<?xml version='1.0' encoding='UTF-8'?>
<svg xmlns="http://www.w3.org/2000/svg" xmlns:xlink="http://www.w3.org/1999/xlink" width="600px" height="300px" viewBox="0 0 600 300" x="0px" y="0px" enable-background="new 0 0 600 300"><defs><symbol overflow="visible" id="64d0ec58a"><path d="M11.88.66c6.18 0 11.1-3.24 11.1-9 0-9.66-14.64-7.68-14.64-13.8 0-2.1.43-3.55 5.22-3.55 1.5 0 2.88.32 3.85.61.36 1.5.65 3.13.78 4.63.89.36 1.97.4 3.04.1.61-1.96 1.08-4.6 1.08-7.37a30.26 30.26 0 00-8.58-1.14c-4.86 0-10.43 1.98-10.43 7.98 0 6.43 6.97 7.02 11.4 9.36 1.8.96 3.11 2.16 3.11 4.2 0 3.54-1.43 4.45-5.26 4.45-1.99 0-4.4-.32-5.47-.85a52 52 0 01-.6-6 3.32 3.32 0 00-2.82 0A36.48 36.48 0 002.58-.95c1.98.89 5.47 1.6 9.3 1.6zm0 0"/></symbol><symbol overflow="visible" id="64d0ec58b"><path d="M11.34.84c3.43 0 6.9-1.39 9.3-2.82a3.7 3.7 0 00-1.02-2.7c-2.17.77-3.84 1.26-5.93 1.26-1.92 0-2.83-2.22-2.83-6.6v-14.53h9.12c.18-1.18.24-2.32.24-3.65l-9.36-.11v-7.92a6.94 6.94 0 00-3.06-.36L5.8-28.44c-1.54.13-3.17.36-4.6.72-.13.78-.13 1.63.1 2.4 1.56.18 3.38.54 4.5.77v16.82c0 5.51 1.46 8.57 5.53 8.57zm0 0"/></symbol><symbol overflow="visible" id="64d0ec58c"><path d="M2.28.06c2.28 0 4.8-.12 7.27-.12 1.97 0 7.07.06 9.3.12.23-.54.35-1.8.35-2.7-1.5-.48-4.43-.9-7.07-1.08a50.93 50.93 0 01-.2-4.5v-11.64c2.48-3.95 4.45-4.69 6.73-4.69a10 10 0 011.56.13c.36 1.73.6 4.62.72 6.65 1.01.36 2.04.36 3.12 0a41.48 41.48 0 001.08-10.3 14.66 14.66 0 00-4.86-.79c-3.66 0-6.48 2.7-8.34 5.64-.17-1.5-.72-4.2-1.02-5.22l-.48-.42a32.9 32.9 0 00-8.52 2.16c-.12.72 0 1.56.24 2.34 1.56.17 3.18.48 4.75.95V-7c0 1.2-.07 2.03-.25 3.35-1.2.43-3.11.85-4.8 1.02 0 .95.19 2.22.42 2.7zm0 0"/></symbol><symbol overflow="visible" id="64d0ec58d"><path d="M8.88.84c2.7 0 6.54-1.8 9.9-4.8.6 2.82 1.74 4.8 2.94 4.8 2.1 0 4.98-1.43 6.84-3.06 0-.9-.36-1.69-.9-2.22-1.14.36-2.52.78-3.85.96-.23-1.32-.3-3.11-.3-4.74V-19.5c0-8.16-5.93-9.48-9.46-9.48-4.14 0-7.82 1.32-10.7 3.06 0 2.1.56 4.56 1.45 6.42 1.14.36 2.34.13 3.48-.42 0-1.67.06-3.3.42-4.86 1.57-.36 3.18-.49 4.74-.49 4.08 0 5.04 3.07 5.04 7.7C10.8-16.2 2.1-13.03 2.1-6.3 2.1-1.86 4.92.84 8.88.84zM7.44-7.8c0-1.26.48-2.89 1.2-3.6.72-.72 5.1-1.97 9.84-2.52v7.08c-1.86 1.68-4.75 3.12-6.54 3.12-3.17 0-4.5-1.86-4.5-4.08zm0 0"/></symbol><symbol overflow="visible" id="64d0ec58e"><path d="M24.66.66c6.06 0 10.86-3.24 10.86-9 0-9.66-12.79-7.68-12.79-13.8 0-4.27 8.22-7.98 8.22-12.9 0-7.74-6.47-10.91-12.1-10.91-7.33 0-11.77 6.72-11.77 16.97v.6c-1.5.11-3.24.36-4.63.66-.1.78-.1 1.63.13 2.4 1.5.18 3.42.54 4.5.77v17.53c0 1.2-.06 2.04-.24 3.36-1.2.43-3.12.85-4.8 1.02 0 .95.18 2.22.41 2.7 2.47 0 4.82-.12 7.27-.12.72 0 1.69.06 2.15.12l.49-.48c-.17-6-.23-10.67-.23-17.28v-12.53c0-5.22.95-9.32 2.15-10.7.36-.41 2.03-1.13 4.08-1.13 3.95 0 7.08 3.42 7.08 9.06 0 1.8-7.74 6.84-7.74 11.94 0 4.43 2.75 6.42 7.02 8.1 3.97 1.55 5.64 3.24 5.64 5.65 0 3.53-1.38 4.43-5.1 4.43-1.85 0-4.2-.3-5.21-.84a48.8 48.8 0 01-.61-6 3.28 3.28 0 00-2.82 0 36.48 36.48 0 00-1.07 8.77c1.9.89 5.32 1.6 9.1 1.6zm0 0"/></symbol><symbol overflow="visible" id="64d0ec58f"><path d="M14.58.84c3.9 0 8.83-2.46 11.58-4.32-.07-.9-.3-1.61-1.02-2.16-3.72 1.44-6.9 2.16-9.55 2.16-5.87 0-7.86-5.88-8.15-10.74h6.97c4.5 0 8.39.06 10.86.13l.46-.49c.2-.78.32-2.34.32-3.72 0-5.22-2.4-10.75-10.7-10.75-7.62 0-12.94 7.93-12.94 15.36C2.4-5.52 6 .84 14.58.84zM10.44-24c.72-.72 2.83-1.14 4.08-1.14 5.34 0 6.25 3.72 6.25 7.56-1.5.13-4.14.24-7.33.24H7.56c.42-2.82 1.5-5.22 2.88-6.66zm0 0"/></symbol><symbol overflow="visible" id="64d0ec58g"><path d="M16.08.9c8.51 0 13.73-6 13.73-13.5 0-5.63-4.8-8.7-9.3-10.32l-5.15-1.86c-2.81-1.02-6.23-3.24-6.23-6.78 0-2.1.71-3.36 1.73-4.25.36-.31 2.87-.97 5.7-.97 2.52 0 4.92.23 6.9.78.48 1.92.73 3.84.9 5.88.84.48 1.92.54 3.12.25A36.52 36.52 0 0028.8-39a34.86 34.86 0 00-11.58-2.1c-6.13 0-13.56 3-13.56 11.4 0 6.06 5.76 8.76 10.2 10.43l4.37 1.7c3.07 1.13 6 3.41 6 6.52 0 2.83-.65 4.82-2.03 6.13-.3.3-2.89 1.5-5.76 1.5-3.42 0-5.94-.36-8.1-1.08-.48-2.64-.71-5.1-.84-7.31a5.14 5.14 0 00-3.19-.25A50.92 50.92 0 002.88-1.73C5.88-.13 10.86.9 16.07.9zm0 0"/></symbol><symbol overflow="visible" id="64d0ec58h"><path d="M9.36.06c3 0 5.7-.12 8.77-.12 2.28 0 6.59 0 8.57.12.36-.9.49-1.86.43-2.87a28.63 28.63 0 00-6.07-1.14 42.4 42.4 0 01-.25-4.99V-36.3h9.9a42 42 0 01.98 7.32c.89.36 1.9.36 3.17 0 .48-3.6.66-7.2.55-10.8l-.49-.49c-3.72.13-9.9.13-14.1.13h-5.27c-4.2 0-10.4 0-14.11-.13l-.49.49c-.1 3.72.07 7.33.55 10.8 1.08.42 2.1.36 3.19 0 .1-2.4.4-4.93.95-7.32h9.9v28.67c0 1.27-.06 2.54-.3 3.68-2.16.53-4.26.95-6.43 1.14 0 .95.13 1.9.55 2.87zm0 0"/></symbol><symbol overflow="visible" id="64d0ec58i"><path d="M2.4.06c2.58 0 4.97-.12 7.62-.12 1.98 0 5.7 0 7.43.12.32-.9.43-1.86.36-2.87a18.48 18.48 0 00-4.86-1.14 46.18 46.18 0 01-.23-4.99v-8.4c1.98.3 4.2.42 5.94.42L26.94 0h2.22c2.28 0 4.75 0 6.71.06.32-.6.43-1.92.43-2.87-1.5-.55-3.3-.9-5.22-1.14l-6.95-14.18c4.92-2.32 8.03-7.67 8.03-12.35 0-4.61-2.58-9.9-10.93-9.9-2.87 0-6.95.24-11.21.24-2.64 0-5.04-.13-7.61-.13a8.14 8.14 0 00-.49 2.9c1.74.17 3.49.59 5.22 1.14.17 2.21.3 4.73.3 8.28v17.8c0 2 0 4.28-.3 6.2-1.73.53-3.48.95-5.22 1.14 0 .95.13 1.9.49 2.87zm17.23-36.54c4.3 0 7.01 3.12 7.01 7.98 0 2.52-.9 4.73-2.58 6-.3.23-3.36 1.38-6.18 1.38-1.74 0-3.36-.07-5.16-.24V-36.3c2.05-.06 4.86-.18 6.9-.18zm0 0"/></symbol><symbol overflow="visible" id="64d0ec58j"><path d="M.78.06c2.58 0 4.92-.12 6.9-.12 1.45 0 4.91 0 6.66.12.3-.9.43-1.86.36-2.87L9.42-3.95l3.17-9.55H17c2.8 0 6.3.06 9.46.23l3.32 9.32-5.64 1.14c0 .95.1 1.9.46 2.87 2.6 0 4.99-.12 7.63-.12 1.98 0 5.7 0 7.44.12.3-.9.42-1.86.36-2.87a15.93 15.93 0 00-4.44-1.14L22.68-40.5c-1.98 0-3.73.23-5.27.84L5.09-3.96C3.5-3.41 1.92-3 .3-2.8c0 .95.13 1.9.5 2.87zm19.14-35.4h.06l.3 4.39 4.86 13.8H13.86zm0 0"/></symbol><symbol overflow="visible" id="64d0ec58k"><path d="M2.4.06c2.58 0 4.97-.12 7.62-.12h6.9c4.2 0 10.38 0 14.1.12l.48-.48c.48-3.53.66-7.02.66-10.56a5.8 5.8 0 00-3.18-.24 74.57 74.57 0 01-2.17 7.31h-14.1v-15l12.2.25c.36-1.07.53-2.34.59-3.71l-.48-.49-12.3.23V-36.3h13.37c.55 2.1.85 4.38.97 6.6a4.8 4.8 0 003.17 0c.49-3.36.68-6.72.55-10.08l-.48-.49c-3.72.13-9.9.13-14.1.13h-6.18c-2.64 0-5.04-.13-7.61-.13a8.14 8.14 0 00-.49 2.9c1.74.17 3.49.59 5.22 1.14.17 2.21.3 4.73.3 8.28v20.32c0 1.27-.07 2.54-.3 3.68-1.73.53-3.48.95-5.22 1.14 0 .95.13 1.9.49 2.87zm0 0"/></symbol><symbol overflow="visible" id="64d0ec58l"><path d="M3.83 0v-5.95H6.2v-.82H.45v.82h2.4V0zm0 0"/></symbol><symbol overflow="visible" id="64d0ec58m"><path d="M5.75-2.23v-.43c0-1.6-.9-2.51-2.42-2.51S.87-4.16.87-2.48c0 1.71.91 2.62 2.5 2.62 1.43 0 2.07-.56 2.29-1.52l-.9-.09c-.18.61-.59.9-1.35.9-.94 0-1.52-.54-1.58-1.66zm-2.4-2.2c.93 0 1.43.5 1.48 1.55H1.84c.08-1.07.6-1.56 1.5-1.56zm0 0"/></symbol><symbol overflow="visible" id="64d0ec58n"><path d="M1.83 0l1.42-2h.06l1.46 2H5.8L4-2.53l1.78-2.49H4.8L3.42-3.08h-.08l-1.4-1.94H.89l1.78 2.49L.84 0zm0 0"/></symbol><symbol overflow="visible" id="64d0ec58o"><path d="M5.52-4.25v-.77H3.17v-1.56h-.81l-.14 1.56H.75v.77h1.47v2.4c0 1.3.48 1.94 1.84 1.94C4.6.1 5.14 0 5.55-.14L5.4-.91c-.32.13-.72.2-1.13.2-.8 0-1.1-.37-1.1-1.23v-2.31zm0 0"/></symbol><symbol overflow="visible" id="64d0ec58p"><path d="M3.33-3.42c.47 0 .8-.27.8-.8 0-.51-.33-.8-.8-.8-.47 0-.8.29-.8.8 0 .53.33.8.8.8zm0 3.5c.47 0 .8-.27.8-.78 0-.53-.33-.82-.8-.82-.47 0-.8.29-.8.82 0 .51.33.78.8.78zm0 0"/></symbol><symbol overflow="visible" id="64d0ec58r"><path d="M3.36.16c1.4 0 2.2-.6 2.2-1.57 0-.89-.54-1.22-1.47-1.39L3-3c-.67-.14-.86-.33-.86-.73 0-.5.4-.74 1.17-.74.83 0 1.19.27 1.27.8l.9-.05c-.12-1-.8-1.47-2.17-1.47-1.34 0-2.1.53-2.1 1.5 0 .81.45 1.22 1.52 1.44l1.04.2c.56.11.87.24.87.72 0 .52-.45.78-1.28.78-.95 0-1.36-.28-1.42-.87l-.9.06C1.07-.36 1.8.16 3.35.16zm0 0"/></symbol><symbol overflow="visible" id="64d0ec58s"><path d="M5.08-5.16c-.94 0-1.58.43-1.9 1.3h-.09l-.07-1.16H1.05v.77h1.1v3.48H.96V0h3.96v-.77H3.1v-1.46c0-1.36.6-2.05 1.83-2.05.4 0 .76.08 1.1.17l.15-.87c-.33-.11-.7-.18-1.11-.18zm0 0"/></symbol><symbol overflow="visible" id="64d0ec58t"><path d="M2.83.14c.94 0 1.5-.39 1.81-.95h.08l.1.81h.76v-3.38c0-1.23-.69-1.8-2.13-1.8-1.43 0-2.03.65-2.18 1.6l.93.1c.11-.6.44-.93 1.22-.93.85 0 1.22.32 1.22 1.04v.34l-1.81.2C1.6-2.7 1.1-2.17 1.1-1.28c0 .92.64 1.42 1.72 1.42zm.25-.77c-.67 0-1.02-.28-1.02-.74 0-.44.28-.72 1-.82l1.58-.19v.41c0 .8-.6 1.34-1.56 1.34zm0 0"/></symbol><symbol overflow="visible" id="64d0ec58u"><path d="M3.77.14c1.3 0 2.14-.6 2.14-2 0-1.33-.97-1.86-1.8-1.89v-.05c.64-.12 1.3-.62 1.3-1.67 0-1.1-.83-1.81-2.13-1.81-1.5 0-2.26.83-2.26 2.53V0h.95v-4.8c0-1.23.37-1.73 1.31-1.73.77 0 1.24.44 1.24 1.14 0 .87-.58 1.31-1.38 1.31h-.17v.75h.22c1.06 0 1.8.36 1.8 1.4 0 1-.54 1.32-1.41 1.32a3.6 3.6 0 01-.86-.1l-.1.7c.38.09.74.15 1.15.15zm0 0"/></symbol><symbol overflow="visible" id="64d0ec58v"><path d="M3.42.14c1.61 0 2.56-.75 2.56-2 0-1.1-.67-1.6-1.95-1.86l-.97-.2c-.87-.17-1.23-.49-1.23-1.11 0-.7.54-1.11 1.5-1.11 1.06 0 1.51.34 1.69 1.23l.9-.09c-.17-1.28-.98-1.9-2.6-1.9C1.79-6.9.9-6.18.9-4.98c0 1.06.66 1.66 1.88 1.9l1.01.2c.85.17 1.25.4 1.25 1.09 0 .73-.6 1.16-1.6 1.16-1.07 0-1.66-.4-1.8-1.24l-.94.1C.83-.53 1.75.13 3.42.13zm0 0"/></symbol><symbol overflow="visible" id="64d0ec58w"><path d="M4.06-2.77c1.25-.04 1.92-.7 1.92-1.96 0-1.36-.7-2.04-2.17-2.04H.92V0h.97v-2.73h1.08L4.95 0h1.1zM1.9-6h1.7c1.07 0 1.46.34 1.46 1.28 0 .9-.44 1.27-1.47 1.27H1.89zm0 0"/></symbol><symbol overflow="visible" id="64d0ec58x"><path d="M6.17 0L3.98-6.77h-1.3L.5 0h.97l.44-1.47h2.78L5.16 0zM3.28-5.94h.08l1.1 3.74H2.15zm0 0"/></symbol><symbol overflow="visible" id="64d0ec58y"><path d="M3.9.14c1.41 0 2.16-.67 2.16-1.95 0-1.27-.84-1.77-2.06-1.85l1.69-2.2v-.58c-.7-.31-1.6-.47-2.32-.47C1.78-6.9.9-6.17.9-4.2V0h.92v-4.22c0-1.4.5-1.9 1.53-1.9.43 0 .96.06 1.36.23v.03l-1.62 2.2v.57c1.44 0 2.06.34 2.06 1.26 0 .86-.56 1.2-1.39 1.2-.38 0-.81-.06-1.1-.14l-.1.74c.36.1.9.17 1.36.17zm0 0"/></symbol><symbol overflow="visible" id="64d0ec58z"><path d="M5.92-6.77H1.1V0h4.83v-.8H2.06v-2.26h3.22v-.75H2.06v-2.16h3.86zm0 0"/></symbol><symbol overflow="visible" id="64d0ec58A"><path d="M5.95-6.77H1.1V0h.99v-2.92H5.3v-.77H2.08v-2.26h3.87zm0 0"/></symbol><symbol overflow="visible" id="64d0ec58B"><path d="M2.73.14c.9 0 1.43-.45 1.74-1.08h.06l.13.94h.8v-5.02h-.94v2.7c0 .98-.57 1.62-1.46 1.62-.75 0-1.1-.4-1.1-1.22v-3.1h-.93v3.32c0 1.17.55 1.84 1.7 1.84zm0 0"/></symbol><symbol overflow="visible" id="64d0ec58C"><path d="M3.33.14c1.9 0 2.76-1.27 2.76-3.52 0-2.26-.86-3.53-2.76-3.53S.58-5.64.58-3.37c0 2.25.86 3.51 2.75 3.51zM3.3-.67c-1.25 0-1.73-.95-1.73-2.7 0-1.77.5-2.72 1.75-2.72s1.75.95 1.75 2.71c0 1.75-.5 2.7-1.77 2.7zm0 0"/></symbol><symbol overflow="visible" id="64d0ec58D"><path d="M3.92-7.14H1.36v.76h1.6v5.61H1.15V0H5.7v-.77H3.92zm0 0"/></symbol><symbol overflow="visible" id="64d0ec58E"><path d="M2.84.14C3.8.14 4.33-.26 4.6-.9h.07L4.8 0h.76v-7.14h-.95v2.95h-.08c-.28-.6-.86-.97-1.67-.97-1.48 0-2.27.99-2.27 2.64C.6-.84 1.36.14 2.84.14zm.22-.8c-.98 0-1.48-.59-1.48-1.84s.5-1.86 1.48-1.86c1.13 0 1.58.8 1.58 1.86S4.2-.66 3.06-.66zm0 0"/></symbol><symbol overflow="visible" id="64d0ec58F"><path d="M5.33-2.2v-.75h-4v.75zm0 0"/></symbol><symbol overflow="visible" id="64d0ec58G"><path d="M3.33.14c1.62 0 2.5-.95 2.5-2.66 0-1.68-.88-2.64-2.5-2.64-1.63 0-2.5.96-2.5 2.64 0 1.7.87 2.66 2.5 2.66zm0-.77c-1.06 0-1.52-.6-1.52-1.89 0-1.28.46-1.87 1.52-1.87 1.08 0 1.53.6 1.53 1.87 0 1.29-.45 1.9-1.53 1.9zm0 0"/></symbol><symbol overflow="visible" id="64d0ec58H"><path d="M2.16 0v-2.69c0-.98.6-1.6 1.46-1.6.74 0 1.07.4 1.07 1.2V0h.95v-3.31c0-1.17-.56-1.85-1.67-1.85-.9 0-1.44.46-1.75 1.08h-.06v-3.06H1.2V0zm0 0"/></symbol><symbol overflow="visible" id="64d0ec58I"><path d="M3.16 2.03c1.67 0 2.4-.86 2.4-2.51v-4.54h-.81l-.13.91h-.06c-.26-.58-.8-1.05-1.73-1.05-1.42 0-2.24 1-2.24 2.52 0 1.6.75 2.56 2.2 2.56.94 0 1.5-.5 1.77-1.03h.05v.72c0 1.17-.42 1.67-1.45 1.67-.93 0-1.3-.34-1.41-.89L.8.5c.12.96.87 1.54 2.36 1.54zM3.06-.8c-.98 0-1.48-.57-1.48-1.82 0-1.13.5-1.75 1.48-1.75 1.06 0 1.58.76 1.58 1.75 0 .95-.56 1.82-1.58 1.82zm0 0"/></symbol><symbol overflow="visible" id="64d0ec58J"><path d="M2.06 1.9V-.84h.05c.28.58.8.97 1.77.97 1.5 0 2.2-.98 2.2-2.66 0-1.65-.7-2.64-2.19-2.64-.97 0-1.5.44-1.78 1.05h-.08l-.1-.9H1.1v6.9zm1.5-2.56c-1.06 0-1.53-.8-1.53-1.86 0-1.04.47-1.84 1.53-1.84 1.11 0 1.53.61 1.53 1.84 0 1.27-.42 1.86-1.53 1.86zm0 0"/></symbol><symbol overflow="visible" id="64d0ec58K"><path d="M3.42-.86h-.08L1.77-5.02H.8L2.73 0h.41c-.33.95-.72 1.27-1.45 1.27-.22 0-.49-.04-.69-.08l-.1.73c.2.06.58.11.87.11 1.2 0 1.7-.7 2.21-2.03l1.94-5.02H5zm0 0"/></symbol><symbol overflow="visible" id="64d0ec58L"><path d="M3.34.14c1.43 0 2.13-.66 2.25-1.78l-.89-.1c-.1.7-.5 1.08-1.34 1.08-1.03 0-1.52-.64-1.52-1.84 0-1.23.47-1.86 1.52-1.86.84 0 1.23.36 1.34 1.08l.9-.1c-.13-1.09-.82-1.78-2.26-1.78-1.56 0-2.46.97-2.46 2.66 0 1.66.9 2.64 2.46 2.64zm0 0"/></symbol><symbol overflow="visible" id="64d0ec58M"><path d="M3.58-5.81c.42 0 .72-.22.72-.67 0-.44-.3-.68-.72-.68-.44 0-.72.24-.72.68 0 .45.28.67.72.67zm.5.8H1.52v.76h1.6v3.48h-1.8V0h4.46v-.77h-1.7zm0 0"/></symbol><symbol overflow="visible" id="64d0ec58N"><path d="M2.16 0v-2.67c0-.99.59-1.63 1.46-1.63.74 0 1.07.38 1.07 1.22V0h.95v-3.31c0-1.2-.56-1.85-1.67-1.85-.92 0-1.49.46-1.77 1.08h-.06l-.12-.94H1.2V0zm0 0"/></symbol><symbol overflow="visible" id="64d0ec58O"><path d="M4.63-6.5c.45 0 .98.08 1.39.2l.2-.72a5.3 5.3 0 00-1.64-.26c-1.52 0-2.16.56-2.16 1.87v.4H.9v.76h1.53V0h.94v-4.25h2.53v-.77H3.36v-.3c0-.84.33-1.18 1.27-1.18zm0 0"/></symbol><symbol overflow="visible" id="64d0ec58P"><path d="M3.55-2.73h1.67C5.09-1.45 4.58-.64 3.36-.64c-1.25 0-1.78-1.03-1.78-2.73 0-1.77.53-2.72 1.81-2.72.9 0 1.47.45 1.69 1.43l.95-.09C5.8-6 5.11-6.91 3.41-6.91 1.44-6.9.58-5.59.58-3.37.58-1.2 1.4.13 3.14.13c1.3 0 1.78-.73 2-1.36h.1L5.33 0h.75v-3.42H3.55zm0 0"/></symbol><symbol overflow="visible" id="64d0ec58Q"><path d="M1.63 0v-2.9c0-.8.15-1.4.71-1.4.41 0 .55.3.55.88V0h.95v-2.9c0-.8.18-1.4.72-1.4.4 0 .57.3.57.88V0h.95v-3.63c0-.92-.28-1.53-1.11-1.53-.63 0-.95.41-1.1.9h-.06c-.1-.52-.44-.9-1.08-.9-.6 0-.93.41-1.06.9H1.6l-.23-.76H.67V0zm0 0"/></symbol><symbol overflow="visible" id="64d0ec58R"><path d="M5.55 0v-.75H2.3v-.06l3.2-3.49v-.72H1.2v.75H4.3v.07L1.11-.72V0zm0 0"/></symbol><symbol overflow="visible" id="64d0ec58S"><path d="M1.45-2.95c0 2.56 1.08 4.37 3.67 4.84l.11-.67C3.28.86 2.43-.75 2.43-2.95s.85-3.82 2.8-4.16l-.1-.69c-2.6.49-3.68 2.3-3.68 4.85zm0 0"/></symbol><symbol overflow="visible" id="64d0ec58T"><path d="M4.22-6.77h-.86l-2.03.7v.87c.64-.17 1.26-.38 1.89-.55v4.9H1.03V0h4.9v-.86H4.21zm0 0"/></symbol><symbol overflow="visible" id="64d0ec58U"><path d="M3.42.14c1.55 0 2.44-.84 2.44-2.33 0-1.45-.83-2.22-2.14-2.22-.75 0-1.28.27-1.67.72H2l.31-2.22h3.11v-.86H1.53l-.45 3.93h.81c.3-.36.9-.79 1.58-.79.92 0 1.44.43 1.44 1.47 0 .99-.54 1.5-1.49 1.5-.83 0-1.28-.32-1.5-1.01l-.95.1C1.07-.46 2 .13 3.42.13zm0 0"/></symbol><symbol overflow="visible" id="64d0ec58V"><path d="M1.45-7.1c1.96.33 2.8 1.94 2.8 4.15 0 2.2-.84 3.8-2.8 4.17l.11.67c2.58-.47 3.67-2.28 3.67-4.84 0-2.55-1.09-4.36-3.67-4.85zm0 0"/></symbol></defs><g fill="#515151"><use xlink:href="#64d0ec58a" x="216.57" y="122"/><use xlink:href="#64d0ec58b" x="242.01" y="122"/><use xlink:href="#64d0ec58c" x="262.95" y="122"/><use xlink:href="#64d0ec58d" x="288.81" y="122"/><use xlink:href="#64d0ec58e" x="318.03" y="122"/><use xlink:href="#64d0ec58f" x="354.63" y="122"/></g><use xlink:href="#64d0ec58g" x="177.15" y="182" fill="#515151"/><g fill="#515151"><use xlink:href="#64d0ec58h" x="208.59" y="182"/><use xlink:href="#64d0ec58i" x="244.95" y="182"/><use xlink:href="#64d0ec58j" x="281.97" y="182"/></g><g fill="#fff"><use xlink:href="#64d0ec58g" x="322.59" y="182"/><use xlink:href="#64d0ec58g" x="355.23" y="182"/></g><use xlink:href="#64d0ec58k" x="387.87" y="182" fill="#515151"/><g fill="#fff"><use xlink:href="#64d0ec58l" x="236.6667" y="252"/><use xlink:href="#64d0ec58m" x="243.3337" y="252"/><use xlink:href="#64d0ec58n" x="250.0007" y="252"/><use xlink:href="#64d0ec58o" x="256.6677" y="252"/><use xlink:href="#64d0ec58p" x="263.3347" y="252"/><use xlink:href="#64d0ec58q" x="270.0017" y="252"/><use xlink:href="#64d0ec58r" x="276.6687" y="252"/><use xlink:href="#64d0ec58o" x="283.3357" y="252"/><use xlink:href="#64d0ec58s" x="290.0027" y="252"/><use xlink:href="#64d0ec58t" x="296.6697" y="252"/><use xlink:href="#64d0ec58u" x="303.3367" y="252"/><use xlink:href="#64d0ec58m" x="310.0037" y="252"/><use xlink:href="#64d0ec58q" x="316.6707" y="252"/><use xlink:href="#64d0ec58v" x="323.3377" y="252"/><use xlink:href="#64d0ec58l" x="330.0047" y="252"/><use xlink:href="#64d0ec58w" x="336.6717" y="252"/><use xlink:href="#64d0ec58x" x="343.3387" y="252"/><use xlink:href="#64d0ec58y" x="350.0057" y="252"/><use xlink:href="#64d0ec58z" x="356.6727" y="252"/><use xlink:href="#64d0ec58q" x="363.3397" y="252"/></g><g fill="#fff"><use xlink:href="#64d0ec58A" x="113.3333" y="266"/><use xlink:href="#64d0ec58m" x="120.0003" y="266"/><use xlink:href="#64d0ec58t" x="126.6673" y="266"/><use xlink:href="#64d0ec58o" x="133.3343" y="266"/><use xlink:href="#64d0ec58B" x="140.0013" y="266"/><use xlink:href="#64d0ec58s" x="146.6683" y="266"/><use xlink:href="#64d0ec58m" x="153.3353" y="266"/><use xlink:href="#64d0ec58p" x="160.0023" y="266"/><use xlink:href="#64d0ec58q" x="166.6693" y="266"/><use xlink:href="#64d0ec58C" x="173.3363" y="266"/><use xlink:href="#64d0ec58D" x="180.0033" y="266"/><use xlink:href="#64d0ec58E" x="186.6703" y="266"/><use xlink:href="#64d0ec58F" x="193.3373" y="266"/><use xlink:href="#64d0ec58G" x="200.0043" y="266"/><use xlink:href="#64d0ec58s" x="206.6713" y="266"/><use xlink:href="#64d0ec58o" x="213.3383" y="266"/><use xlink:href="#64d0ec58H" x="220.0053" y="266"/><use xlink:href="#64d0ec58G" x="226.6723" y="266"/><use xlink:href="#64d0ec58I" x="233.3393" y="266"/><use xlink:href="#64d0ec58s" x="240.0063" y="266"/><use xlink:href="#64d0ec58t" x="246.6733" y="266"/><use xlink:href="#64d0ec58J" x="253.3403" y="266"/><use xlink:href="#64d0ec58H" x="260.0073" y="266"/><use xlink:href="#64d0ec58K" x="266.6743" y="266"/><use xlink:href="#64d0ec58q" x="273.3413" y="266"/><use xlink:href="#64d0ec58L" x="280.0083" y="266"/><use xlink:href="#64d0ec58t" x="286.6753" y="266"/><use xlink:href="#64d0ec58r" x="293.3423" y="266"/><use xlink:href="#64d0ec58M" x="300.0093" y="266"/><use xlink:href="#64d0ec58N" x="306.6763" y="266"/><use xlink:href="#64d0ec58I" x="313.3433" y="266"/><use xlink:href="#64d0ec58q" x="320.0103" y="266"/><use xlink:href="#64d0ec58O" x="326.6773" y="266"/><use xlink:href="#64d0ec58G" x="333.3443" y="266"/><use xlink:href="#64d0ec58s" x="340.0113" y="266"/><use xlink:href="#64d0ec58q" x="346.6783" y="266"/><use xlink:href="#64d0ec58P" x="353.3453" y="266"/><use xlink:href="#64d0ec58m" x="360.0123" y="266"/><use xlink:href="#64d0ec58s" x="366.6793" y="266"/><use xlink:href="#64d0ec58Q" x="373.3463" y="266"/><use xlink:href="#64d0ec58t" x="380.0133" y="266"/><use xlink:href="#64d0ec58N" x="386.6803" y="266"/><use xlink:href="#64d0ec58q" x="393.3473" y="266"/><use xlink:href="#64d0ec58m" x="400.0143" y="266"/><use xlink:href="#64d0ec58r" x="406.6813" y="266"/><use xlink:href="#64d0ec58R" x="413.3483" y="266"/><use xlink:href="#64d0ec58m" x="420.0153" y="266"/><use xlink:href="#64d0ec58o" x="426.6823" y="266"/><use xlink:href="#64d0ec58o" x="433.3493" y="266"/><use xlink:href="#64d0ec58q" x="440.0163" y="266"/><use xlink:href="#64d0ec58S" x="446.6833" y="266"/><use xlink:href="#64d0ec58r" x="453.3503" y="266"/><use xlink:href="#64d0ec58r" x="460.0173" y="266"/><use xlink:href="#64d0ec58T" x="466.6843" y="266"/><use xlink:href="#64d0ec58U" x="473.3513" y="266"/><use xlink:href="#64d0ec58V" x="480.0183" y="266"/></g></svg>