<?xml version='1.0' encoding='UTF-8'?>
<svg xmlns="http://www.w3.org/2000/svg" xmlns:xlink="http://www.w3.org/1999/xlink" width="600px" height="300px" viewBox="0 0 600 300" x="0px" y="0px" enable-background="new 0 0 600 300"><defs><symbol overflow="visible" id="fa5df0dfa"><path d="M32.4.3c1.91-.07 3.9-.36 5.65-.85v-27.4c0-3.55.04-6.07.23-8.28 1.8-.2 3.42-.61 4.86-1.15a7.67 7.67 0 00-.36-2.89c-1.73.13-5.34.13-6.9.13-2.16 0-4.57-.13-7.15-.13a8.12 8.12 0 00-.46 2.9c1.73.17 3.46.59 5.21 1.14.18 2.21.3 4.73.3 8.28v22.3h-.06l-1.63-5.4L14.7-39.9a47.9 47.9 0 00-5.15-.23c-2.18 0-4.57-.13-7.14-.13a8.14 8.14 0 00-.49 2.9c1.74.17 3.49.59 5.22 1.14.17 2.21.3 4.73.3 8.28v20.32c0 1.27-.07 2.54-.3 3.68-1.73.53-3.48.95-5.22 1.14 0 .95.13 1.9.49 2.87 2.57 0 4.96-.12 7.14-.12 1.54 0 5.15 0 6.89.12.3-.9.42-1.86.36-2.87a18.63 18.63 0 00-4.86-1.14 46.18 46.18 0 01-.24-4.99V-36.3h.07l1.73 5.4zm0 0"/></symbol><symbol overflow="visible" id="fa5df0dfb"><path d="M15.06.84c8.4 0 13.31-8.15 13.31-15.42 0-8.22-3.95-14.47-12.65-14.47-8.4 0-13.31 8.18-13.31 15.43C2.4-5.22 6.55.84 15.06.84zm1.08-4.03c-6.42 0-8.64-7.01-8.64-12.1 0-3.62 1.31-6.79 3-8.59.72-.71 2.88-1.14 4.14-1.14 6.42 0 8.64 7.02 8.64 12.11 0 3.61-1.33 6.79-3 8.6-.72.72-2.87 1.12-4.14 1.12zm0 0"/></symbol><symbol overflow="visible" id="fa5df0dfc"><path d="M3.95-3.23A4.07 4.07 0 008.1.84c2.35 0 4.14-1.8 4.14-4.07 0-2.22-1.8-3.85-4.14-3.85-2.32 0-4.14 1.63-4.14 3.85zm0 0"/></symbol><symbol overflow="visible" id="fa5df0dfe"><path d="M3.48.06c2.82 0 5.46-.12 8.4-.12 2.28 0 6.42 0 8.28.12.36-.9.48-1.86.42-2.87-1.67-.49-3.66-.9-5.77-1.1a41.4 41.4 0 01-.23-4.73v-30l-.49-.48C9.66-38.45 6.13-37.5 3.06-36a3.3 3.3 0 00.53 2.45h5.7v26.17c0 1.2-.06 2.4-.23 3.47-2.1.55-4.08.91-6.12 1.1 0 .95.12 1.9.54 2.87zm0 0"/></symbol><symbol overflow="visible" id="fa5df0dff"><path d="M17.7 1.02c9.43 0 15-10.86 15-20.88 0-10.14-4.75-19.37-14.15-19.37-9.36 0-14.96 10.92-14.96 20.87C3.6-8.22 8.3 1.02 17.7 1.02zM9-20.88c0-6.6 2.05-10.62 3.66-12.6.54-.66 2.76-1.5 4.62-1.5 2.4 0 4.38 1.14 6 3.06L11.05-9.6C9.65-12.66 9-16.63 9-20.88zM19.02-3.23a7.45 7.45 0 01-5.94-3l12.19-22.2c1.3 3.05 1.96 6.95 1.96 11.15 0 6.55-2.03 10.56-3.65 12.55-.53.65-2.7 1.5-4.56 1.5zm0 0"/></symbol><symbol overflow="visible" id="fa5df0dfg"><path d="M3.83 0v-5.95H6.2v-.82H.45v.82h2.4V0zm0 0"/></symbol><symbol overflow="visible" id="fa5df0dfh"><path d="M5.75-2.23v-.43c0-1.6-.9-2.51-2.42-2.51S.87-4.16.87-2.48c0 1.71.91 2.62 2.5 2.62 1.43 0 2.07-.56 2.29-1.52l-.9-.09c-.18.61-.59.9-1.35.9-.94 0-1.52-.54-1.58-1.66zm-2.4-2.2c.93 0 1.43.5 1.48 1.55H1.84c.08-1.07.6-1.56 1.5-1.56zm0 0"/></symbol><symbol overflow="visible" id="fa5df0dfi"><path d="M1.83 0l1.42-2h.06l1.46 2H5.8L4-2.53l1.78-2.49H4.8L3.42-3.08h-.08l-1.4-1.94H.89l1.78 2.49L.84 0zm0 0"/></symbol><symbol overflow="visible" id="fa5df0dfj"><path d="M5.52-4.25v-.77H3.17v-1.56h-.81l-.14 1.56H.75v.77h1.47v2.4c0 1.3.48 1.94 1.84 1.94C4.6.1 5.14 0 5.55-.14L5.4-.91c-.32.13-.72.2-1.13.2-.8 0-1.1-.37-1.1-1.23v-2.31zm0 0"/></symbol><symbol overflow="visible" id="fa5df0dfk"><path d="M3.33-3.42c.47 0 .8-.27.8-.8 0-.51-.33-.8-.8-.8-.47 0-.8.29-.8.8 0 .53.33.8.8.8zm0 3.5c.47 0 .8-.27.8-.78 0-.53-.33-.82-.8-.82-.47 0-.8.29-.8.82 0 .51.33.78.8.78zm0 0"/></symbol><symbol overflow="visible" id="fa5df0dfm"><path d="M1.84 0v-4.48l-.06-.99h.1L4.46 0h1.28v-6.77h-.92v4.4l.06 1.03h-.1L2.21-6.77H.92V0zm0 0"/></symbol><symbol overflow="visible" id="fa5df0dfn"><path d="M3.33.14c1.62 0 2.5-.95 2.5-2.66 0-1.68-.88-2.64-2.5-2.64-1.63 0-2.5.96-2.5 2.64 0 1.7.87 2.66 2.5 2.66zm0-.77c-1.06 0-1.52-.6-1.52-1.89 0-1.28.46-1.87 1.52-1.87 1.08 0 1.53.6 1.53 1.87 0 1.29-.45 1.9-1.53 1.9zm0 0"/></symbol><symbol overflow="visible" id="fa5df0dfo"><path d="M3.33.08c.51 0 .83-.27.83-.81 0-.57-.32-.82-.83-.82-.52 0-.81.25-.81.82 0 .54.3.8.8.8zm0 0"/></symbol><symbol overflow="visible" id="fa5df0dfp"><path d="M4.22-6.77h-.86l-2.03.7v.87c.64-.17 1.26-.38 1.89-.55v4.9H1.03V0h4.9v-.86H4.21zm0 0"/></symbol><symbol overflow="visible" id="fa5df0dfq"><path d="M3.33.14c1.65 0 2.6-1.1 2.6-3.52S4.99-6.9 3.34-6.9C1.67-6.9.72-5.8.72-3.37c0 2.4.95 3.51 2.6 3.51zm0-.84c-1.13 0-1.6-.85-1.6-2.67 0-1.86.47-2.7 1.6-2.7 1.12 0 1.6.84 1.6 2.7 0 1.82-.48 2.67-1.6 2.67zM3.3-2.64c.38 0 .56-.28.56-.72 0-.44-.18-.7-.56-.7-.39 0-.56.26-.56.7 0 .44.17.72.56.72zm0 0"/></symbol><symbol overflow="visible" id="fa5df0dfr"><path d="M5.95-6.77H1.1V0h.99v-2.92H5.3v-.77H2.08v-2.26h3.87zm0 0"/></symbol><symbol overflow="visible" id="fa5df0dfs"><path d="M2.83.14c.94 0 1.5-.39 1.81-.95h.08l.1.81h.76v-3.38c0-1.23-.69-1.8-2.13-1.8-1.43 0-2.03.65-2.18 1.6l.93.1c.11-.6.44-.93 1.22-.93.85 0 1.22.32 1.22 1.04v.34l-1.81.2C1.6-2.7 1.1-2.17 1.1-1.28c0 .92.64 1.42 1.72 1.42zm.25-.77c-.67 0-1.02-.28-1.02-.74 0-.44.28-.72 1-.82l1.58-.19v.41c0 .8-.6 1.34-1.56 1.34zm0 0"/></symbol><symbol overflow="visible" id="fa5df0dft"><path d="M2.73.14c.9 0 1.43-.45 1.74-1.08h.06l.13.94h.8v-5.02h-.94v2.7c0 .98-.57 1.62-1.46 1.62-.75 0-1.1-.4-1.1-1.22v-3.1h-.93v3.32c0 1.17.55 1.84 1.7 1.84zm0 0"/></symbol><symbol overflow="visible" id="fa5df0dfu"><path d="M5.08-5.16c-.94 0-1.58.43-1.9 1.3h-.09l-.07-1.16H1.05v.77h1.1v3.48H.96V0h3.96v-.77H3.1v-1.46c0-1.36.6-2.05 1.83-2.05.4 0 .76.08 1.1.17l.15-.87c-.33-.11-.7-.18-1.11-.18zm0 0"/></symbol><symbol overflow="visible" id="fa5df0dfv"><path d="M3.42.14c1.61 0 2.56-.75 2.56-2 0-1.1-.67-1.6-1.95-1.86l-.97-.2c-.87-.17-1.23-.49-1.23-1.11 0-.7.54-1.11 1.5-1.11 1.06 0 1.51.34 1.69 1.23l.9-.09c-.17-1.28-.98-1.9-2.6-1.9C1.79-6.9.9-6.18.9-4.98c0 1.06.66 1.66 1.88 1.9l1.01.2c.85.17 1.25.4 1.25 1.09 0 .73-.6 1.16-1.6 1.16-1.07 0-1.66-.4-1.8-1.24l-.94.1C.83-.53 1.75.13 3.42.13zm0 0"/></symbol><symbol overflow="visible" id="fa5df0dfw"><path d="M3.92-7.14H1.36v.76h1.6v5.61H1.15V0H5.7v-.77H3.92zm0 0"/></symbol><symbol overflow="visible" id="fa5df0dfx"><path d="M3.36.16c1.4 0 2.2-.6 2.2-1.57 0-.89-.54-1.22-1.47-1.39L3-3c-.67-.14-.86-.33-.86-.73 0-.5.4-.74 1.17-.74.83 0 1.19.27 1.27.8l.9-.05c-.12-1-.8-1.47-2.17-1.47-1.34 0-2.1.53-2.1 1.5 0 .81.45 1.22 1.52 1.44l1.04.2c.56.11.87.24.87.72 0 .52-.45.78-1.28.78-.95 0-1.36-.28-1.42-.87l-.9.06C1.07-.36 1.8.16 3.35.16zm0 0"/></symbol><symbol overflow="visible" id="fa5df0dfy"><path d="M2.16 0v-2.69c0-.98.6-1.6 1.46-1.6.74 0 1.07.4 1.07 1.2V0h.95v-3.31c0-1.17-.56-1.85-1.67-1.85-.9 0-1.44.46-1.75 1.08h-.06v-3.06H1.2V0zm0 0"/></symbol><symbol overflow="visible" id="fa5df0dfz"><path d="M2.84.14C3.8.14 4.33-.26 4.6-.9h.07L4.8 0h.76v-7.14h-.95v2.95h-.08c-.28-.6-.86-.97-1.67-.97-1.48 0-2.27.99-2.27 2.64C.6-.84 1.36.14 2.84.14zm.22-.8c-.98 0-1.48-.59-1.48-1.84s.5-1.86 1.48-1.86c1.13 0 1.58.8 1.58 1.86S4.2-.66 3.06-.66zm0 0"/></symbol><symbol overflow="visible" id="fa5df0dfA"><path d="M5.55 0v-.75H2.3v-.06l3.2-3.49v-.72H1.2v.75H4.3v.07L1.11-.72V0zm0 0"/></symbol><symbol overflow="visible" id="fa5df0dfB"><path d="M1.45-2.95c0 2.56 1.08 4.37 3.67 4.84l.11-.67C3.28.86 2.43-.75 2.43-2.95s.85-3.82 2.8-4.16l-.1-.69c-2.6.49-3.68 2.3-3.68 4.85zm0 0"/></symbol><symbol overflow="visible" id="fa5df0dfC"><path d="M1.45-7.1c1.96.33 2.8 1.94 2.8 4.15 0 2.2-.84 3.8-2.8 4.17l.11.67c2.58-.47 3.67-2.28 3.67-4.84 0-2.55-1.09-4.36-3.67-4.85zm0 0"/></symbol></defs><use xlink:href="#fa5df0dfa" x="201.99" y="152" fill="#515151"/><use xlink:href="#fa5df0dfb" x="245.13" y="152" fill="#515151"/><g fill="#515151"><use xlink:href="#fa5df0dfc" x="273.81" y="152"/><use xlink:href="#fa5df0dfd" x="290.01" y="152"/><use xlink:href="#fa5df0dfe" x="302.61" y="152"/></g><use xlink:href="#fa5df0dff" x="325.41" y="152" fill="#fff"/><use xlink:href="#fa5df0dff" x="361.71" y="152" fill="#fff"/><g fill="#fff"><use xlink:href="#fa5df0dfg" x="256.6667" y="252"/><use xlink:href="#fa5df0dfh" x="263.3337" y="252"/><use xlink:href="#fa5df0dfi" x="270.0007" y="252"/><use xlink:href="#fa5df0dfj" x="276.6677" y="252"/><use xlink:href="#fa5df0dfk" x="283.3347" y="252"/><use xlink:href="#fa5df0dfl" x="290.0017" y="252"/><use xlink:href="#fa5df0dfm" x="296.6687" y="252"/><use xlink:href="#fa5df0dfn" x="303.3357" y="252"/><use xlink:href="#fa5df0dfo" x="310.0027" y="252"/><use xlink:href="#fa5df0dfl" x="316.6697" y="252"/><use xlink:href="#fa5df0dfp" x="323.3367" y="252"/><use xlink:href="#fa5df0dfq" x="330.0037" y="252"/><use xlink:href="#fa5df0dfq" x="336.6707" y="252"/></g><g fill="#fff"><use xlink:href="#fa5df0dfr" x="206.6667" y="266"/><use xlink:href="#fa5df0dfh" x="213.3337" y="266"/><use xlink:href="#fa5df0dfs" x="220.0007" y="266"/><use xlink:href="#fa5df0dfj" x="226.6677" y="266"/><use xlink:href="#fa5df0dft" x="233.3347" y="266"/><use xlink:href="#fa5df0dfu" x="240.0017" y="266"/><use xlink:href="#fa5df0dfh" x="246.6687" y="266"/><use xlink:href="#fa5df0dfk" x="253.3357" y="266"/><use xlink:href="#fa5df0dfl" x="260.0027" y="266"/><use xlink:href="#fa5df0dfv" x="266.6697" y="266"/><use xlink:href="#fa5df0dfw" x="273.3367" y="266"/><use xlink:href="#fa5df0dfs" x="280.0037" y="266"/><use xlink:href="#fa5df0dfx" x="286.6707" y="266"/><use xlink:href="#fa5df0dfy" x="293.3377" y="266"/><use xlink:href="#fa5df0dfh" x="300.0047" y="266"/><use xlink:href="#fa5df0dfz" x="306.6717" y="266"/><use xlink:href="#fa5df0dfl" x="313.3387" y="266"/><use xlink:href="#fa5df0dfA" x="320.0057" y="266"/><use xlink:href="#fa5df0dfh" x="326.6727" y="266"/><use xlink:href="#fa5df0dfu" x="333.3397" y="266"/><use xlink:href="#fa5df0dfn" x="340.0067" y="266"/><use xlink:href="#fa5df0dfl" x="346.6737" y="266"/><use xlink:href="#fa5df0dfB" x="353.3407" y="266"/><use xlink:href="#fa5df0dfA" x="360.0077" y="266"/><use xlink:href="#fa5df0dfh" x="366.6747" y="266"/><use xlink:href="#fa5df0dfu" x="373.3417" y="266"/><use xlink:href="#fa5df0dfn" x="380.0087" y="266"/><use xlink:href="#fa5df0dfC" x="386.6757" y="266"/></g></svg>