<?xml version='1.0' encoding='UTF-8'?>
<svg xmlns="http://www.w3.org/2000/svg" xmlns:xlink="http://www.w3.org/1999/xlink" width="310px" height="280px" viewBox="0 0 310 280" x="0px" y="0px" enable-background="new 0 0 310 280"><defs><symbol overflow="visible" id="4610e75aa"><path d="M14.58.83c8.19 0 13.2-5.61 13.2-12.6 0-5.17-4.12-7.92-8.1-9.51l-4.62-1.92c-2.47-1.05-5.54-2.64-5.54-5.46 0-1.65.54-2.75 1.37-3.46.33-.22 2.31-.7 4.23-.7 2.43 0 4.24.21 5.83.7.4 1.7.61 3.42.72 5.23 1.05.6 2.47.66 4.02.27.6-2.58.93-5.4.98-8.96a31.97 31.97 0 00-11.15-2.1c-6.11 0-13.05 2.98-13.05 10.9 0 5.66 4.51 8.19 8.36 9.73l4.19 1.64c3.18 1.27 5.6 3.04 5.6 5.57 0 2.09-.5 3.57-1.59 4.62a10.2 10.2 0 01-4.67 1.16c-2.75 0-4.8-.35-6.5-1a64.4 64.4 0 01-.7-6.55 6.49 6.49 0 00-4.08-.27A47.04 47.04 0 001.77-1.77C4.62-.22 9.52.83 14.57.83zm0 0"/></symbol><symbol overflow="visible" id="4610e75ab"><path d="M1.1.06c2.09 0 4.46-.12 7.65-.12 1.92 0 5.66.06 7.14.12.22-.6.33-2.15.33-3.2a16 16 0 00-4.13-.98c-.1-1.32-.15-2.65-.15-4.13v-3.52l3.69-.93C18.05-6.16 21.38.6 25.13.6c3.02 0 6.77-1 7.92-1.65a4.19 4.19 0 00-.6-2.8c-.55.12-1.23.16-1.71.16-1.88 0-2.75-.65-4.13-2.2-1.7-2.03-4.18-5.99-6-9.34l6.33-6.88c1.43-.17 2.9-.6 4.28-1.1 0-1.04-.1-2.48-.32-3.13-1.6.04-3.41.1-5.07.1-3.45 0-6.26-.1-8.18-.1-.29.76-.44 2.09-.44 3.18l3.8.94-4.74 5.28-4.34 1.42v-10.21c0-6.07.04-10.35.22-15.85l-.61-.55c-3.63.16-7.53.82-10.78 1.97-.22 1-.11 1.94.21 2.86 1.44.17 2.93.5 4.35.9v29.24c0 1.11-.05 1.88-.22 3.1-1.1.37-2.86.76-4.4.92 0 1.16.17 2.64.38 3.2zm0 0"/></symbol><symbol overflow="visible" id="4610e75ac"><path d="M14.25.77c8.3 0 13.08-7.58 13.08-14.35 0-7.7-3.9-13.48-12.38-13.48-8.3 0-13.07 7.6-13.07 14.36C1.88-4.9 5.93.77 14.24.77zm.94-4.68c-4.9 0-6.61-5.93-6.61-10.23 0-3.08.98-5.83 2.31-7.36.5-.6 2.14-.9 3.14-.9 4.9 0 6.6 5.96 6.6 10.24 0 3.08-.99 5.79-2.32 7.32-.5.65-2.14.93-3.12.93zm0 0"/></symbol><symbol overflow="visible" id="4610e75ad"><path d="M1.1.06c2.09 0 4.46-.12 7.54-.12 2.03 0 5.77.06 7.25.12.22-.6.33-2.15.33-3.2a16 16 0 00-4.13-.98c-.1-1.32-.15-2.65-.15-4.13v-17.48c0-6.07.04-10.35.22-15.85l-.61-.55c-3.63.16-7.53.82-10.78 1.97-.22 1-.11 1.94.21 2.86 1.44.17 2.93.5 4.35.9v29.24c0 1.11-.05 1.88-.22 3.1-1.1.37-2.86.76-4.4.92 0 1.16.17 2.64.38 3.2zm0 0"/></symbol><symbol overflow="visible" id="4610e75ae"><path d="M8.9.77c2.65 0 5.79-1.6 8.47-3.8.79 2.26 2.05 3.8 3.32 3.8 2.58 0 5.5-1.65 7.36-3.52 0-.94-.44-1.7-.99-2.2-1.15.28-2.31.54-3.51.72-.18-1.2-.24-2.82-.24-4.02v-9.9c0-7.65-5.83-8.85-9.23-8.85-4.13 0-8.14 1.2-11.16 2.97 0 2.42.6 4.67 1.6 6.33 1.42.37 2.8.1 4.17-.57 0-1.42.06-2.9.44-4.23a17.9 17.9 0 013.74-.33c2.91 0 3.74 2.49 3.85 6.11C10.28-15.34 1.7-12.05 1.7-6 1.7-1.66 4.4.77 8.9.77zM8.54-7.7c0-.99.44-2.42 1.1-2.97.54-.5 3.8-1.27 7.09-1.7v6.1c-1.49 1.1-3.25 1.97-4.52 1.97-2.47 0-3.67-1.6-3.67-3.4zm0 0"/></symbol><symbol overflow="visible" id="4610e75af"><path d="M2.03.06c2.1 0 4.52-.12 7.7-.12 2.54 0 7.43.06 9.41.12.28-.6.4-2.15.4-3.2a35.46 35.46 0 00-6.5-.98c-.12-1.32-.16-2.65-.16-4.13v-9.4c1.92-3.15 3.84-4.13 5.43-4.13.44 0 .77 0 1.16.06.33 1.42.6 3.95.76 5.66 1.27.5 2.75.5 4.13 0 .83-3.02 1.05-6.11 1.05-10.07-1.32-.5-2.91-.76-4.85-.76-3.4 0-5.93 2.25-7.68 4.83a37.9 37.9 0 00-1.27-4.5l-.67-.44c-3.3.27-6.53.98-9.24 1.97-.22.94-.1 1.94.22 2.92 1.44.17 2.92.44 4.35.88v14.07c0 1.11-.05 1.88-.22 3.1-1.1.37-2.86.76-4.4.92 0 1.16.16 2.64.38 3.2zm0 0"/></symbol><symbol overflow="visible" id="4610e75ag"><path d="M4.02.17c2.01 0 3.15-.89 3.15-2.4 0-1.35-.8-1.93-2.33-2.24L3.67-4.7c-1.01-.2-1.44-.58-1.44-1.35 0-.83.66-1.3 1.88-1.3 1.17 0 1.75.4 1.94 1.46L7.15-6c-.2-1.53-1.21-2.28-3-2.28-1.96 0-3.04.87-3.04 2.31 0 1.28.75 1.99 2.2 2.28l1.22.24c1.02.2 1.52.5 1.52 1.3 0 .9-.72 1.4-2 1.4-1.33 0-1.94-.47-2.11-1.48l-1.11.1C1-.6 1.98.17 4.02.17zm0 0"/></symbol><symbol overflow="visible" id="4610e75ah"><path d="M6.92-6.02H5.55L2.78-3.45H2.7v-5.13H1.56V0H2.7v-2.78h.08L5.64 0h1.5L3.88-3.22zm0 0"/></symbol><symbol overflow="visible" id="4610e75ai"><path d="M4 .17c1.95 0 3-1.14 3-3.19 0-2.03-1.05-3.17-3-3.17S1-5.05 1-3.02C1-.97 2.05.18 4 .18zm0-.92c-1.28 0-1.83-.72-1.83-2.27 0-1.53.55-2.25 1.83-2.25s1.83.72 1.83 2.25C5.83-1.47 5.28-.75 4-.75zm0 0"/></symbol><symbol overflow="visible" id="4610e75aj"><path d="M4.7-8.58H1.64v.92h1.92v6.74h-2.2V0h5.47v-.92H4.7zm0 0"/></symbol><symbol overflow="visible" id="4610e75ak"><path d="M3.4.17C4.51.17 5.2-.3 5.57-.97h.08l.12.97h.9v-4.05c0-1.48-.82-2.15-2.54-2.15-1.73 0-2.44.75-2.6 1.9l1.1.11c.13-.7.52-1.1 1.47-1.1 1.01 0 1.47.37 1.47 1.23v.42l-2.17.23c-1.49.18-2.08.82-2.08 1.86 0 1.13.76 1.72 2.06 1.72zm.29-.92c-.81 0-1.2-.33-1.2-.9 0-.52.32-.87 1.2-.96l1.89-.23v.48c0 .95-.75 1.61-1.9 1.61zm0 0"/></symbol><symbol overflow="visible" id="4610e75al"><path d="M6.1-6.19c-1.12 0-1.9.52-2.3 1.57h-.08l-.11-1.4H1.27v.91h1.32v4.19H1.14V0H5.9v-.92H3.73v-1.75c0-1.64.7-2.46 2.2-2.46.48 0 .91.08 1.32.2l.17-1.05c-.39-.13-.83-.2-1.33-.2zm0 0"/></symbol><symbol overflow="visible" id="4610e75an"><path d="M1.1-8.1V0h1.18v-2.72h2.03c1.9 0 2.86-.8 2.86-2.64v-.17c0-1.81-.97-2.58-2.83-2.58zM6-5.37C6-4.1 5.48-3.6 4.1-3.6H2.29v-3.58h1.83c1.37 0 1.89.4 1.89 1.66zm0 0"/></symbol><symbol overflow="visible" id="4610e75ao"><path d="M7.1-8.1H1.32V0h5.8v-.95H2.47v-2.72h3.87v-.9H2.47v-2.59H7.1zm0 0"/></symbol></defs><use xlink:href="#4610e75aa" x="73.4625" y="145"/><use xlink:href="#4610e75ab" x="103.2725" y="145"/><use xlink:href="#4610e75ac" x="135.8325" y="145"/><use xlink:href="#4610e75ad" x="165.0375" y="145"/><use xlink:href="#4610e75ae" x="182.2525" y="145"/><use xlink:href="#4610e75af" x="210.6325" y="145"/><g fill-opacity=".33"><use xlink:href="#4610e75ag" x="119" y="230"/><use xlink:href="#4610e75ah" x="127.0004" y="230"/><use xlink:href="#4610e75ai" x="135.0008" y="230"/><use xlink:href="#4610e75aj" x="143.0012" y="230"/><use xlink:href="#4610e75ak" x="151.0016" y="230"/><use xlink:href="#4610e75al" x="159.002" y="230"/><use xlink:href="#4610e75am" x="167.0024" y="230"/><use xlink:href="#4610e75an" x="175.0028" y="230"/><use xlink:href="#4610e75ao" x="183.0032" y="230"/></g></svg>