<?xml version='1.0' encoding='UTF-8'?>
<svg xmlns="http://www.w3.org/2000/svg" xmlns:xlink="http://www.w3.org/1999/xlink" width="600px" height="300px" viewBox="0 0 600 300" x="0px" y="0px" enable-background="new 0 0 600 300"><defs><symbol overflow="visible" id="db379d95a"><path d="M5.45-34.5c0 3.9 2.64 5.94 6.2 8.28-6.37 2.28-9.24 6.49-9.24 12.53C2.4-4.92 7.56.84 15.7.84c8.16 0 12.79-6.6 12.79-14.53 0-7.73-4.27-11.26-12.3-15.4-4.92-2.54-6.42-3.68-6.97-5.41 5.11-2.28 16.14-1.5 16.14-6.42 0-1.63-.23-3.36-1.6-5.7-1.04 0-1.75.24-2.29.71.36 2.83-2.04 4.2-7.68 5.22-5.64 1.03-8.35 2.7-8.35 6.19zM10.2-4.14c-.84-.66-2.7-3.3-2.7-8.7 0-4.74 2.05-8.94 7.38-11.16 5.82 2.81 8.17 6.23 8.17 10.69 0 6.23-3.74 10.12-8.4 10.12-1.63 0-3.73-.36-4.45-.95zm0 0"/></symbol><symbol overflow="visible" id="db379d95b"><path d="M2.28.06c2.35 0 4.99-.12 7.27-.12 1.6 0 5.8.06 7.6.12.3-.54.43-1.8.43-2.7-1.31-.48-3.49-.9-5.45-1.08a52.28 52.28 0 01-.2-4.69v-16.43h9.13c.42 1.62.72 3.65.78 5.53.9.23 2.16.23 3.11 0 .49-2.77.61-5.4.49-8.47l-.42-.49c-3 .13-7.93.13-11.4.13H8.7c-1.8 0-4.07-.13-6.42-.13-.3.68-.42 1.82-.42 2.7 1.69.2 3.19.55 4.8 1.09.18 1.07.25 2.28.25 3.3v14.16c0 1.14-.07 2.29-.25 3.3-1.57.53-3.18.9-4.8 1.08 0 .9.12 1.8.42 2.7zm0 0"/></symbol><symbol overflow="visible" id="db379d95c"><path d="M1.5 8.7c1.08.24 2.22.24 3.23 0 .13-2.82.55-6.12.97-8.76h22.32c.42 2.64.84 5.93.96 8.76 1.02.24 2.16.24 3.24 0 .42-3.48.6-7.56.55-11.82l-.49-.47c-1.5.04-3.42.04-5.4.1v-16.5c0-1.5.06-3.06.18-4.5 1.63-.17 3.17-.53 4.5-1.07 0-.96-.06-1.92-.36-2.7-1.86.06-5.04.12-7.07.12H14.4c-2.29 0-4.7-.13-7.04-.13-.3.68-.42 1.82-.42 2.7 1.63.26 3.07.66 4.63 1.15C10.56-15.84 9.42-9 6.06-3.48c-1.68-.07-3.36-.07-4.62-.11l-.49.46c-.04 4.27.13 8.35.55 11.83zM20.28-3.48h-9.65c2.8-5.75 4.24-12.72 5.09-21h6.12v21h-1.56zm0 0"/></symbol><symbol overflow="visible" id="db379d95d"><path d="M2.28.06c2.35 0 4.99-.12 7.27-.12 1.37 0 4.9.06 6.47.12.25-.54.36-1.8.36-2.7-1.02-.48-2.7-.9-4.25-1.08a52.28 52.28 0 01-.2-4.69v-16.43H24.3v17.82c0 1.14-.07 2.29-.24 3.3-1.5.53-3 .9-4.56 1.08 0 .9.13 1.8.42 2.7 2.28 0 4.8-.12 7.02-.12 1.43 0 5.1.06 6.72.12.25-.54.36-1.8.36-2.7-1.08-.48-2.88-.9-4.5-1.08-.11-1.44-.18-2.87-.18-4.69v-11.57c0-1.5.07-3.07.18-4.5 1.62-.18 3.18-.54 4.5-1.08 0-.96-.07-1.92-.36-2.7-1.86.06-5.03.12-7.08.12H9.18c-2.27 0-4.55-.13-6.9-.13-.3.68-.42 1.82-.42 2.7 1.69.2 3.19.55 4.8 1.09.18 1.07.25 2.28.25 3.3v14.16c0 1.14-.07 2.29-.25 3.3-1.57.53-3.18.9-4.8 1.08 0 .9.12 1.8.42 2.7zm0 0"/></symbol><symbol overflow="visible" id="db379d95e"><path d="M12.23-28.14c-3 0-7.6 0-10.8-.13l-.48.49c-.04 3.3.13 6.36.55 9.06 1.08.24 2.22.24 3.23 0 .13-1.98.55-4.26.97-6.12h6.49v17.82c0 1.14-.06 2.29-.25 3.3-1.86.53-3.85.9-5.75 1.08 0 .9.1 1.8.47 2.7 2.64 0 5.57-.12 8.15-.12 1.63 0 5.83.06 7.63.12.3-.54.42-1.8.42-2.7-1.31-.48-3.48-.9-5.45-1.08a52.28 52.28 0 01-.2-4.69v-16.43h6.5c.41 1.86.84 4.14.95 6.12a7.6 7.6 0 003.25 0c.4-2.7.59-5.76.53-9.06l-.49-.49c-3.17.13-7.8.13-10.8.13zm0 0"/></symbol><symbol overflow="visible" id="db379d95f"><path d="M2.28.06c2.35 0 4.99-.12 7.27-.12h32.87c1.44 0 5.1.06 6.72.12.23-.54.36-1.8.36-2.7-1.08-.48-2.88-.9-4.5-1.08a52.28 52.28 0 01-.19-4.69v-11.57c0-1.5.06-3.07.19-4.5 1.63-.18 3.19-.54 4.5-1.08 0-.96-.06-1.92-.36-2.7-1.86.06-5.05.12-7.08.12-2.04 0-4.14-.13-6.25-.13-.3.68-.4 1.82-.4 2.7 1.43.2 2.75.55 4.14 1.09.17 1.07.23 2.28.23 3.3v17.7h-11.4v-16.5c0-1.5.06-3.07.18-4.5 1.38-.18 2.7-.54 3.78-1.08 0-.96-.06-1.92-.36-2.7-1.62.06-4.56.12-6.36.12-2.04 0-4.14-.13-6.18-.13-.3.68-.42 1.82-.42 2.7 1.43.2 2.7.55 4.07 1.09.2 1.07.25 2.28.25 3.3v17.7h-11.4v-16.5c0-1.5.06-3.07.19-4.5 1.37-.18 2.68-.54 3.78-1.08 0-.96-.07-1.92-.36-2.7-1.63.06-4.57.12-6.36.12-2.28 0-4.56-.13-6.9-.13-.3.68-.43 1.82-.43 2.7 1.69.2 3.19.55 4.8 1.09.18 1.07.25 2.28.25 3.3v14.16c0 1.14-.07 2.29-.25 3.3-1.57.53-3.18.9-4.8 1.08 0 .9.12 1.8.42 2.7zm0 0"/></symbol><symbol overflow="visible" id="db379d95h"><path d="M25.2-16.69c0-9.76-10.2-14.39-14.47-19.01v-.11c3-.74 6.55-.78 9.85-.85 2.28-.06 4.14-.97 5.28-3.97a18.5 18.5 0 001.08-5.64c-.53-.46-1.44-.65-2.28-.59-.9 1.8-1.74 3.06-3 4.73-3.85.2-8.04.61-11.1 1.57-2.34.72-3.97 5.58-2.51 7.62 1.3 1.86 3.36 3.72 5.39 5.81C6-23.09 1.69-17.52 1.69-10.43 1.69-5.06 3.66.94 10.08.94c9.48 0 15.12-8.32 15.12-17.64zM6.78-11.7c0-5.1 3.06-9.43 8.64-13.2 2.58 2.95 4.67 6.42 4.67 10.74 0 4.44-1.86 8.22-3.59 9.96a9.2 9.2 0 01-4.08 1.14c-3.9 0-5.64-3.72-5.64-8.64zm0 0"/></symbol><symbol overflow="visible" id="db379d95i"><path d="M2.4-33h13.87c.71 0 1.07-1.14 1.07-2.28 0-.66-.12-1.27-.36-1.74H3.06c-.78 0-1.14.83-1.14 1.93 0 .72.17 1.5.49 2.09zM7.03.72c2.7 0 6.9-2.58 8.93-4.8-.17-.84-.6-1.5-1.25-1.98A25.03 25.03 0 019.2-4.38l2.69-19.32c.06-.43.12-1.02.12-1.86 0-2.16-1.02-3.36-3.23-3.36-2.64 0-5.18.72-7.14 1.86a3.18 3.18 0 000 2.15c1.73 0 3.35.2 5.09.55A526.18 526.18 0 014.2-6a18.1 18.1 0 00-.36 3c0 1.98.79 3.72 3.18 3.72zm0 0"/></symbol><symbol overflow="visible" id="db379d95j"><path d="M7.56.78c3 0 6.66-1.98 10.14-5.1-.65 4.87-1.43 9.9-2.82 14.59-.96.78-3.24 1.37-5.1 1.37-3.06 0-5.87-1.27-7.33-3.66H1.8a5.78 5.78 0 00-2.16 4.2c0 .48.13.96.42 1.32 1.38 1.38 4.63 2.45 8.16 2.45 7.56 0 12-5.39 13.08-10.97C22.3-.36 22.8-4.2 23.34-8.64l1.93-15.06c.17-1.02.3-1.8.53-2.82l.3-.36a27.03 27.03 0 00-10.44-2.28c-8.75 0-13.61 9.54-13.61 19.14 0 2.16.17 4.5.65 6.47C3.3-1.02 4.86.78 7.56.78zm-.42-12.55c0-5.87 2.1-10.8 4.38-12.82a7.8 7.8 0 013.18-.55c1.74 0 3.66.42 5.52 1.2l-2.1 16.2c-3.3 2.4-6.54 4.2-9.3 4.2-1.09-1.08-1.68-3.96-1.68-8.23zm0 0"/></symbol><symbol overflow="visible" id="db379d95k"><path d="M9.06-33H27.6c.72 0 1.1-1.02 1.1-2.05 0-.6-.13-1.14-.38-1.54H9.71c-.77 0-1.13.78-1.13 1.73 0 .6.19 1.31.48 1.86zM9.3.95c3 0 6.72-1.9 10.5-5.1.25 2.84.84 4.87 2.4 4.87 2.7 0 6.9-2.58 8.94-4.8-.19-.84-.6-1.5-1.27-1.98-1.6.72-3.46 1.33-5.45 1.68a651.81 651.81 0 013.24-23.76l-.47-.48c-2.11-.24-4.88.35-4.99 1.43-.65 6-1.62 13.5-2.47 19.88-3.3 2.26-6.36 3.76-9.3 4.18C9.37-3.66 9.2-5.08 9.2-7.02c0-1.75 1.6-9.78 3.04-16.56a10 10 0 00.13-1.56c0-2.4-1.14-3.78-3.48-3.78-2.33 0-4.93.72-6.9 1.86a3.18 3.18 0 000 2.15c1.74 0 3.43.2 5.16.55C4.92-13.8 3.95-8.22 3.95-4.98 3.95-1.73 5.65.95 9.3.95zm0 0"/></symbol><symbol overflow="visible" id="db379d95l"><path d="M9.06-33h32.28c.72 0 1.08-1.02 1.08-2.05 0-.6-.12-1.14-.36-1.54H9.72c-.78 0-1.14.78-1.14 1.73 0 .6.19 1.31.48 1.86zm0 33.95c2.75 0 6.36-1.8 9.85-4.8.36 2.7 1.96 4.8 5.03 4.8 2.76 0 6.12-1.8 9.65-4.73.25 2.64.85 4.5 2.35 4.5 2.7 0 6.9-2.58 8.94-4.8-.18-.84-.6-1.5-1.26-1.98a24.36 24.36 0 01-5.46 1.68 616.43 616.43 0 013.25-23.76l-.49-.48c-2.1-.24-4.86.35-4.98 1.43-.66 6.13-1.67 13.75-2.52 20.17-2.87 2.1-5.58 3.6-8.15 3.9C24.23-3.79 24-5.05 24-6.3c0-.78.13-1.5.19-2.1.83-6.3 1.86-12.9 3.17-19.74l-.48-.48c-2.58-.24-5.16.35-5.29 1.43-.95 6.85-1.86 13.5-2.68 20.05-3.07 2.16-5.83 3.66-8.54 4.01C9.37-3.66 9.2-5.08 9.2-7.02c0-1.75 1.6-9.78 3.04-16.56a10 10 0 00.13-1.56c0-2.4-1.14-3.78-3.48-3.78-2.33 0-4.93.72-6.9 1.86a3.18 3.18 0 000 2.15c1.74 0 3.43.2 5.16.55C4.92-13.8 3.95-8.22 3.95-4.98 3.95-1.73 5.58.95 9.06.95zm0 0"/></symbol><symbol overflow="visible" id="db379d95m"><path d="M9.06.95c2.75 0 6.36-1.8 9.85-4.8.36 2.7 1.96 4.8 5.03 4.8 2.76 0 6.12-1.8 9.65-4.73.25 2.64.85 4.5 2.35 4.5 2.7 0 6.9-2.58 8.94-4.8-.18-.84-.6-1.5-1.26-1.98a24.36 24.36 0 01-5.46 1.68 616.43 616.43 0 013.25-23.76l-.49-.48c-2.1-.24-4.86.35-4.98 1.43-.66 6.13-1.67 13.75-2.52 20.17-2.87 2.1-5.58 3.6-8.15 3.9C24.23-3.79 24-5.05 24-6.3c0-.78.13-1.5.19-2.1.83-6.3 1.86-12.9 3.17-19.74l-.48-.48c-2.58-.24-5.16.35-5.29 1.43-.95 6.85-1.86 13.5-2.68 20.05-3.07 2.16-5.83 3.66-8.54 4.01C9.37-3.66 9.2-5.08 9.2-7.02c0-1.75 1.6-9.78 3.04-16.56a10 10 0 00.13-1.56c0-2.4-1.14-3.78-3.48-3.78-2.33 0-4.93.72-6.9 1.86a3.18 3.18 0 000 2.15c1.74 0 3.43.2 5.16.55C4.92-13.8 3.95-8.22 3.95-4.98 3.95-1.73 5.58.95 9.06.95zm0 0"/></symbol><symbol overflow="visible" id="db379d95n"><path d="M3.83 0v-5.95H6.2v-.82H.45v.82h2.4V0zm0 0"/></symbol><symbol overflow="visible" id="db379d95o"><path d="M5.75-2.23v-.43c0-1.6-.9-2.51-2.42-2.51S.87-4.16.87-2.48c0 1.71.91 2.62 2.5 2.62 1.43 0 2.07-.56 2.29-1.52l-.9-.09c-.18.61-.59.9-1.35.9-.94 0-1.52-.54-1.58-1.66zm-2.4-2.2c.93 0 1.43.5 1.48 1.55H1.84c.08-1.07.6-1.56 1.5-1.56zm0 0"/></symbol><symbol overflow="visible" id="db379d95p"><path d="M1.83 0l1.42-2h.06l1.46 2H5.8L4-2.53l1.78-2.49H4.8L3.42-3.08h-.08l-1.4-1.94H.89l1.78 2.49L.84 0zm0 0"/></symbol><symbol overflow="visible" id="db379d95q"><path d="M5.52-4.25v-.77H3.17v-1.56h-.81l-.14 1.56H.75v.77h1.47v2.4c0 1.3.48 1.94 1.84 1.94C4.6.1 5.14 0 5.55-.14L5.4-.91c-.32.13-.72.2-1.13.2-.8 0-1.1-.37-1.1-1.23v-2.31zm0 0"/></symbol><symbol overflow="visible" id="db379d95r"><path d="M3.33-3.42c.47 0 .8-.27.8-.8 0-.51-.33-.8-.8-.8-.47 0-.8.29-.8.8 0 .53.33.8.8.8zm0 3.5c.47 0 .8-.27.8-.78 0-.53-.33-.82-.8-.82-.47 0-.8.29-.8.82 0 .51.33.78.8.78zm0 0"/></symbol><symbol overflow="visible" id="db379d95t"><path d="M3.4.14c1.55 0 2.46-.95 2.46-2.62 0-1.65-.83-2.47-2.17-2.47-.96 0-1.63.48-1.9 1.15h-.07c.12-1.56.42-2.14 1.92-2.37.88-.14 1.38-.19 1.86-.25l-.08-.86c-.6.05-1.22.14-1.92.25C1.45-6.7.92-5.7.92-3.03.92-.78 1.87.14 3.4.14zm0-.75c-1 0-1.5-.72-1.5-1.92 0-1.05.6-1.72 1.57-1.72.94 0 1.4.58 1.4 1.78C4.88-1.22 4.4-.6 3.4-.6zm0 0"/></symbol><symbol overflow="visible" id="db379d95u"><path d="M1.44-5.02V0h.95v-4.25h3.22v-.77zm0 0"/></symbol><symbol overflow="visible" id="db379d95v"><path d="M5.36-5.02H1.7a36.7 36.7 0 01-.12 2.44c-.06.9-.27 1.52-.55 1.81h-.6v2.1h.87V0h3.92v1.33h.87v-2.1h-.73zM1.92-.77c.25-.39.4-1.04.46-1.75.04-.46.07-1.12.1-1.75h1.97v3.5zm0 0"/></symbol><symbol overflow="visible" id="db379d95w"><path d="M1.1-5.02V0h.96v-4.22h2.55V0h.95v-5.02zm0 0"/></symbol><symbol overflow="visible" id="db379d95x"><path d="M.95-5.02v.77h1.9V0h.96v-4.25h1.9v-.77zm0 0"/></symbol><symbol overflow="visible" id="db379d95y"><path d="M5.2-.73H3.75v-4.29h-.83v4.29H1.47v-4.29H.64V0h5.4v-5.02H5.2zm0 0"/></symbol><symbol overflow="visible" id="db379d95z"><path d="M5.95-6.77H1.1V0h.99v-2.92H5.3v-.77H2.08v-2.26h3.87zm0 0"/></symbol><symbol overflow="visible" id="db379d95A"><path d="M2.83.14c.94 0 1.5-.39 1.81-.95h.08l.1.81h.76v-3.38c0-1.23-.69-1.8-2.13-1.8-1.43 0-2.03.65-2.18 1.6l.93.1c.11-.6.44-.93 1.22-.93.85 0 1.22.32 1.22 1.04v.34l-1.81.2C1.6-2.7 1.1-2.17 1.1-1.28c0 .92.64 1.42 1.72 1.42zm.25-.77c-.67 0-1.02-.28-1.02-.74 0-.44.28-.72 1-.82l1.58-.19v.41c0 .8-.6 1.34-1.56 1.34zm0 0"/></symbol><symbol overflow="visible" id="db379d95B"><path d="M2.73.14c.9 0 1.43-.45 1.74-1.08h.06l.13.94h.8v-5.02h-.94v2.7c0 .98-.57 1.62-1.46 1.62-.75 0-1.1-.4-1.1-1.22v-3.1h-.93v3.32c0 1.17.55 1.84 1.7 1.84zm0 0"/></symbol><symbol overflow="visible" id="db379d95C"><path d="M5.08-5.16c-.94 0-1.58.43-1.9 1.3h-.09l-.07-1.16H1.05v.77h1.1v3.48H.96V0h3.96v-.77H3.1v-1.46c0-1.36.6-2.05 1.83-2.05.4 0 .76.08 1.1.17l.15-.87c-.33-.11-.7-.18-1.11-.18zm0 0"/></symbol><symbol overflow="visible" id="db379d95D"><path d="M3.42.14c1.61 0 2.56-.75 2.56-2 0-1.1-.67-1.6-1.95-1.86l-.97-.2c-.87-.17-1.23-.49-1.23-1.11 0-.7.54-1.11 1.5-1.11 1.06 0 1.51.34 1.69 1.23l.9-.09c-.17-1.28-.98-1.9-2.6-1.9C1.79-6.9.9-6.18.9-4.98c0 1.06.66 1.66 1.88 1.9l1.01.2c.85.17 1.25.4 1.25 1.09 0 .73-.6 1.16-1.6 1.16-1.07 0-1.66-.4-1.8-1.24l-.94.1C.83-.53 1.75.13 3.42.13zm0 0"/></symbol><symbol overflow="visible" id="db379d95E"><path d="M3.9.14c1.48 0 2.18-.98 2.18-2.64 0-1.67-.7-2.66-2.17-2.66-.91 0-1.49.41-1.79 1h-.06v-2.98h-.95V0h.81l.11-.9h.06c.29.63.82 1.04 1.82 1.04zm-.32-.8c-1.08 0-1.55-.8-1.55-1.84 0-1.06.47-1.86 1.55-1.86 1.1 0 1.51.61 1.51 1.86S4.64-.66 3.58-.66zm0 0"/></symbol><symbol overflow="visible" id="db379d95F"><path d="M3.58-5.81c.42 0 .72-.22.72-.67 0-.44-.3-.68-.72-.68-.44 0-.72.24-.72.68 0 .45.28.67.72.67zm.5.8H1.52v.76h1.6v3.48h-1.8V0h4.46v-.77h-1.7zm0 0"/></symbol><symbol overflow="visible" id="db379d95G"><path d="M2.16 0v-2.67c0-.99.59-1.63 1.46-1.63.74 0 1.07.38 1.07 1.22V0h.95v-3.31c0-1.2-.56-1.85-1.67-1.85-.92 0-1.49.46-1.77 1.08h-.06l-.12-.94H1.2V0zm0 0"/></symbol><symbol overflow="visible" id="db379d95H"><path d="M2.58.95l2.39-8.67h-.9L1.7.95zm0 0"/></symbol><symbol overflow="visible" id="db379d95I"><path d="M1.64 0v-3.17l-.16-2.5h.1L2.9-1.83h.82l1.35-3.84h.1l-.16 2.5V0h.95v-6.77h-1.3l-1.3 3.82h-.09L2-6.77H.69V0zm0 0"/></symbol><symbol overflow="visible" id="db379d95J"><path d="M3.34.14c1.43 0 2.13-.66 2.25-1.78l-.89-.1c-.1.7-.5 1.08-1.34 1.08-1.03 0-1.52-.64-1.52-1.84 0-1.23.47-1.86 1.52-1.86.84 0 1.23.36 1.34 1.08l.9-.1c-.13-1.09-.82-1.78-2.26-1.78-1.56 0-2.46.97-2.46 2.66 0 1.66.9 2.64 2.46 2.64zm0 0"/></symbol><symbol overflow="visible" id="db379d95K"><path d="M2.84.14C3.8.14 4.33-.26 4.6-.9h.07L4.8 0h.76v-7.14h-.95v2.95h-.08c-.28-.6-.86-.97-1.67-.97-1.48 0-2.27.99-2.27 2.64C.6-.84 1.36.14 2.84.14zm.22-.8c-.98 0-1.48-.59-1.48-1.84s.5-1.86 1.48-1.86c1.13 0 1.58.8 1.58 1.86S4.2-.66 3.06-.66zm0 0"/></symbol><symbol overflow="visible" id="db379d95L"><path d="M3.33.14c1.62 0 2.5-.95 2.5-2.66 0-1.68-.88-2.64-2.5-2.64-1.63 0-2.5.96-2.5 2.64 0 1.7.87 2.66 2.5 2.66zm0-.77c-1.06 0-1.52-.6-1.52-1.89 0-1.28.46-1.87 1.52-1.87 1.08 0 1.53.6 1.53 1.87 0 1.29-.45 1.9-1.53 1.9zm0 0"/></symbol><symbol overflow="visible" id="db379d95M"><path d="M4.63-6.5c.45 0 .98.08 1.39.2l.2-.72a5.3 5.3 0 00-1.64-.26c-1.52 0-2.16.56-2.16 1.87v.4H.9v.76h1.53V0h.94v-4.25h2.53v-.77H3.36v-.3c0-.84.33-1.18 1.27-1.18zm0 0"/></symbol><symbol overflow="visible" id="db379d95N"><path d="M1.63 0v-2.9c0-.8.15-1.4.71-1.4.41 0 .55.3.55.88V0h.95v-2.9c0-.8.18-1.4.72-1.4.4 0 .57.3.57.88V0h.95v-3.63c0-.92-.28-1.53-1.11-1.53-.63 0-.95.41-1.1.9h-.06c-.1-.52-.44-.9-1.08-.9-.6 0-.93.41-1.06.9H1.6l-.23-.76H.67V0zm0 0"/></symbol><symbol overflow="visible" id="db379d95O"><path d="M3.36.16c1.4 0 2.2-.6 2.2-1.57 0-.89-.54-1.22-1.47-1.39L3-3c-.67-.14-.86-.33-.86-.73 0-.5.4-.74 1.17-.74.83 0 1.19.27 1.27.8l.9-.05c-.12-1-.8-1.47-2.17-1.47-1.34 0-2.1.53-2.1 1.5 0 .81.45 1.22 1.52 1.44l1.04.2c.56.11.87.24.87.72 0 .52-.45.78-1.28.78-.95 0-1.36-.28-1.42-.87l-.9.06C1.07-.36 1.8.16 3.35.16zm0 0"/></symbol><symbol overflow="visible" id="db379d95P"><path d="M1.45-2.95c0 2.56 1.08 4.37 3.67 4.84l.11-.67C3.28.86 2.43-.75 2.43-2.95s.85-3.82 2.8-4.16l-.1-.69c-2.6.49-3.68 2.3-3.68 4.85zm0 0"/></symbol><symbol overflow="visible" id="db379d95Q"><path d="M3.92-7.14H1.36v.76h1.6v5.61H1.15V0H5.7v-.77H3.92zm0 0"/></symbol><symbol overflow="visible" id="db379d95R"><path d="M3.16 2.03c1.67 0 2.4-.86 2.4-2.51v-4.54h-.81l-.13.91h-.06c-.26-.58-.8-1.05-1.73-1.05-1.42 0-2.24 1-2.24 2.52 0 1.6.75 2.56 2.2 2.56.94 0 1.5-.5 1.77-1.03h.05v.72c0 1.17-.42 1.67-1.45 1.67-.93 0-1.3-.34-1.41-.89L.8.5c.12.96.87 1.54 2.36 1.54zM3.06-.8c-.98 0-1.48-.57-1.48-1.82 0-1.13.5-1.75 1.48-1.75 1.06 0 1.58.76 1.58 1.75 0 .95-.56 1.82-1.58 1.82zm0 0"/></symbol><symbol overflow="visible" id="db379d95S"><path d="M3.33.14c1.65 0 2.6-1.1 2.6-3.52S4.99-6.9 3.34-6.9C1.67-6.9.72-5.8.72-3.37c0 2.4.95 3.51 2.6 3.51zm0-.84c-1.13 0-1.6-.85-1.6-2.67 0-1.86.47-2.7 1.6-2.7 1.12 0 1.6.84 1.6 2.7 0 1.82-.48 2.67-1.6 2.67zM3.3-2.64c.38 0 .56-.28.56-.72 0-.44-.18-.7-.56-.7-.39 0-.56.26-.56.7 0 .44.17.72.56.72zm0 0"/></symbol><symbol overflow="visible" id="db379d95T"><path d="M.92-4.42h.88v-1.49h3.1v.05L2.27 0H3.3l2.64-6v-.77H.92zm0 0"/></symbol><symbol overflow="visible" id="db379d95U"><path d="M1.45-7.1c1.96.33 2.8 1.94 2.8 4.15 0 2.2-.84 3.8-2.8 4.17l.11.67c2.58-.47 3.67-2.28 3.67-4.84 0-2.55-1.09-4.36-3.67-4.85zm0 0"/></symbol></defs><use xlink:href="#db379d95a" x="92.19" y="152" fill="#fff"/><use xlink:href="#db379d95b" x="123.09" y="152" fill="#515151"/><g fill="#515151"><use xlink:href="#db379d95c" x="146.73" y="152"/><use xlink:href="#db379d95d" x="180.57" y="152"/><use xlink:href="#db379d95e" x="216.75" y="152"/><use xlink:href="#db379d95f" x="246.15" y="152"/><use xlink:href="#db379d95g" x="297.81" y="152"/></g><use xlink:href="#db379d95h" x="310.41" y="152" fill="#fff"/><use xlink:href="#db379d95i" x="337.65" y="152" fill="#fff"/><use xlink:href="#db379d95j" x="354.81" y="152" fill="#fff"/><use xlink:href="#db379d95k" x="382.95" y="152" fill="#fff"/><use xlink:href="#db379d95l" x="415.41" y="152" fill="#fff"/><use xlink:href="#db379d95m" x="461.61" y="152" fill="#fff"/><g fill="#fff"><use xlink:href="#db379d95n" x="236.6667" y="252"/><use xlink:href="#db379d95o" x="243.3337" y="252"/><use xlink:href="#db379d95p" x="250.0007" y="252"/><use xlink:href="#db379d95q" x="256.6677" y="252"/><use xlink:href="#db379d95r" x="263.3347" y="252"/><use xlink:href="#db379d95s" x="270.0017" y="252"/><use xlink:href="#db379d95t" x="276.6687" y="252"/><use xlink:href="#db379d95u" x="283.3357" y="252"/><use xlink:href="#db379d95v" x="290.0027" y="252"/><use xlink:href="#db379d95w" x="296.6697" y="252"/><use xlink:href="#db379d95x" x="303.3367" y="252"/><use xlink:href="#db379d95y" x="310.0037" y="252"/><use xlink:href="#db379d95s" x="316.6707" y="252"/><use xlink:href="#db379d95t" x="323.3377" y="252"/><use xlink:href="#db379d95u" x="330.0047" y="252"/><use xlink:href="#db379d95v" x="336.6717" y="252"/><use xlink:href="#db379d95w" x="343.3387" y="252"/><use xlink:href="#db379d95x" x="350.0057" y="252"/><use xlink:href="#db379d95y" x="356.6727" y="252"/></g><g fill="#fff"><use xlink:href="#db379d95z" x="113.3333" y="266"/><use xlink:href="#db379d95o" x="120.0003" y="266"/><use xlink:href="#db379d95A" x="126.6673" y="266"/><use xlink:href="#db379d95q" x="133.3343" y="266"/><use xlink:href="#db379d95B" x="140.0013" y="266"/><use xlink:href="#db379d95C" x="146.6683" y="266"/><use xlink:href="#db379d95o" x="153.3353" y="266"/><use xlink:href="#db379d95r" x="160.0023" y="266"/><use xlink:href="#db379d95s" x="166.6693" y="266"/><use xlink:href="#db379d95D" x="173.3363" y="266"/><use xlink:href="#db379d95o" x="180.0033" y="266"/><use xlink:href="#db379d95C" x="186.6703" y="266"/><use xlink:href="#db379d95E" x="193.3373" y="266"/><use xlink:href="#db379d95F" x="200.0043" y="266"/><use xlink:href="#db379d95A" x="206.6713" y="266"/><use xlink:href="#db379d95G" x="213.3383" y="266"/><use xlink:href="#db379d95H" x="220.0053" y="266"/><use xlink:href="#db379d95I" x="226.6723" y="266"/><use xlink:href="#db379d95A" x="233.3393" y="266"/><use xlink:href="#db379d95J" x="240.0063" y="266"/><use xlink:href="#db379d95o" x="246.6733" y="266"/><use xlink:href="#db379d95K" x="253.3403" y="266"/><use xlink:href="#db379d95L" x="260.0073" y="266"/><use xlink:href="#db379d95G" x="266.6743" y="266"/><use xlink:href="#db379d95F" x="273.3413" y="266"/><use xlink:href="#db379d95A" x="280.0083" y="266"/><use xlink:href="#db379d95G" x="286.6753" y="266"/><use xlink:href="#db379d95s" x="293.3423" y="266"/><use xlink:href="#db379d95M" x="300.0093" y="266"/><use xlink:href="#db379d95L" x="306.6763" y="266"/><use xlink:href="#db379d95C" x="313.3433" y="266"/><use xlink:href="#db379d95N" x="320.0103" y="266"/><use xlink:href="#db379d95O" x="326.6773" y="266"/><use xlink:href="#db379d95s" x="333.3443" y="266"/><use xlink:href="#db379d95P" x="340.0113" y="266"/><use xlink:href="#db379d95O" x="346.6783" y="266"/><use xlink:href="#db379d95o" x="353.3453" y="266"/><use xlink:href="#db379d95q" x="360.0123" y="266"/><use xlink:href="#db379d95s" x="366.6793" y="266"/><use xlink:href="#db379d95Q" x="373.3463" y="266"/><use xlink:href="#db379d95A" x="380.0133" y="266"/><use xlink:href="#db379d95G" x="386.6803" y="266"/><use xlink:href="#db379d95R" x="393.3473" y="266"/><use xlink:href="#db379d95B" x="400.0143" y="266"/><use xlink:href="#db379d95A" x="406.6813" y="266"/><use xlink:href="#db379d95R" x="413.3483" y="266"/><use xlink:href="#db379d95o" x="420.0153" y="266"/><use xlink:href="#db379d95s" x="426.6823" y="266"/><use xlink:href="#db379d95L" x="433.3493" y="266"/><use xlink:href="#db379d95C" x="440.0163" y="266"/><use xlink:href="#db379d95s" x="446.6833" y="266"/><use xlink:href="#db379d95O" x="453.3503" y="266"/><use xlink:href="#db379d95O" x="460.0173" y="266"/><use xlink:href="#db379d95S" x="466.6843" y="266"/><use xlink:href="#db379d95T" x="473.3513" y="266"/><use xlink:href="#db379d95U" x="480.0183" y="266"/></g></svg>