<?xml version='1.0' encoding='UTF-8'?>
<svg xmlns="http://www.w3.org/2000/svg" xmlns:xlink="http://www.w3.org/1999/xlink" width="600px" height="300px" viewBox="0 0 600 300" x="0px" y="0px" enable-background="new 0 0 600 300"><defs><symbol overflow="visible" id="cb7208c0a"><path d="M9.36.06c3 0 5.7-.12 8.77-.12 2.28 0 6.59 0 8.57.12.36-.9.49-1.86.43-2.87a28.63 28.63 0 00-6.07-1.14 42.4 42.4 0 01-.25-4.99V-36.3h9.9a42 42 0 01.98 7.32c.89.36 1.9.36 3.17 0 .48-3.6.66-7.2.55-10.8l-.49-.49c-3.72.13-9.9.13-14.1.13h-5.27c-4.2 0-10.4 0-14.11-.13l-.49.49c-.1 3.72.07 7.33.55 10.8 1.08.42 2.1.36 3.19 0 .1-2.4.4-4.93.95-7.32h9.9v28.67c0 1.27-.06 2.54-.3 3.68-2.16.53-4.26.95-6.43 1.14 0 .95.13 1.9.55 2.87zM16.3 17.1c3.78-2.39 5.47-5.45 5.47-8.32 0-1.82-.72-3.68-2.7-5.22a7.18 7.18 0 00-4.02 1.9c1.08 1.63 1.86 3.2 1.86 4.7 0 1.55-.3 3.41-1.92 5.57.19.65.66 1.08 1.31 1.37zm0 0"/></symbol><symbol overflow="visible" id="cb7208c0b"><path d="M.78.06c2.58 0 4.92-.12 6.9-.12 1.45 0 4.91 0 6.66.12.3-.9.43-1.86.36-2.87L9.42-3.95l3.17-9.55H17c2.8 0 6.3.06 9.46.23l3.32 9.32-5.64 1.14c0 .95.1 1.9.46 2.87 2.6 0 4.99-.12 7.63-.12 1.98 0 5.7 0 7.44.12.3-.9.42-1.86.36-2.87a15.93 15.93 0 00-4.44-1.14L22.68-40.5c-1.98 0-3.73.23-5.27.84L5.09-3.96C3.5-3.41 1.92-3 .3-2.8c0 .95.13 1.9.5 2.87zm19.14-35.4h.06l.3 4.39 4.86 13.8H13.86zm0 0"/></symbol><symbol overflow="visible" id="cb7208c0c"><path d="M2.4.06c2.58 0 4.97-.12 7.62-.12 1.98 0 5.7 0 7.43.12.32-.9.43-1.86.36-2.87a18.48 18.48 0 00-4.86-1.14 46.18 46.18 0 01-.23-4.99v-8.4c1.98.3 4.2.42 5.94.42L26.94 0h2.22c2.28 0 4.75 0 6.71.06.32-.6.43-1.92.43-2.87-1.5-.55-3.3-.9-5.22-1.14l-6.95-14.18c4.92-2.32 8.03-7.67 8.03-12.35 0-4.61-2.58-9.9-10.93-9.9-2.87 0-6.95.24-11.21.24-2.64 0-5.04-.13-7.61-.13a8.14 8.14 0 00-.49 2.9c1.74.17 3.49.59 5.22 1.14.17 2.21.3 4.73.3 8.28v17.8c0 2 0 4.28-.3 6.2-1.73.53-3.48.95-5.22 1.14 0 .95.13 1.9.49 2.87zm17.23-36.54c4.3 0 7.01 3.12 7.01 7.98 0 2.52-.9 4.73-2.58 6-.3.23-3.36 1.38-6.18 1.38-1.74 0-3.36-.07-5.16-.24V-36.3c2.05-.06 4.86-.18 6.9-.18zm0 0"/></symbol><symbol overflow="visible" id="cb7208c0d"><path d="M20.1-44.1c5.1 0 8.27-3.06 9.84-6.06-.17-.84-.78-1.39-1.86-1.68-1.63 1.68-3.95 3.48-7.38 3.48-3.18 0-5.93-1.73-7.62-3.48-1.02.3-1.67.84-1.99 1.68a9.72 9.72 0 009 6.07zM.77.07c2.58 0 4.92-.12 6.9-.12 1.45 0 4.91 0 6.66.12.3-.9.43-1.86.36-2.87L9.42-3.95l3.17-9.55H17c2.8 0 6.3.06 9.46.23l3.32 9.32-5.64 1.14c0 .95.1 1.9.46 2.87 2.6 0 4.99-.12 7.63-.12 1.98 0 5.7 0 7.44.12.3-.9.42-1.86.36-2.87a15.93 15.93 0 00-4.44-1.14L22.68-40.5c-1.98 0-3.73.23-5.27.84L5.09-3.96C3.5-3.41 1.92-3 .3-2.8c0 .95.13 1.9.5 2.87zm19.14-35.4h.06l.3 4.39 4.86 13.8H13.86zm0 0"/></symbol><symbol overflow="visible" id="cb7208c0e"><path d="M11.34.84c3.43 0 6.9-1.39 9.3-2.82a3.7 3.7 0 00-1.02-2.7c-2.17.77-3.84 1.26-5.93 1.26-1.92 0-2.83-2.22-2.83-6.6v-14.53h9.12c.18-1.18.24-2.32.24-3.65l-9.36-.11v-7.92a6.94 6.94 0 00-3.06-.36L5.8-28.44c-1.54.13-3.17.36-4.6.72-.13.78-.13 1.63.1 2.4 1.56.18 3.38.54 4.5.77v16.82c0 5.51 1.46 8.57 5.53 8.57zM7.7 5.45c1.08 1.63 1.86 3.2 1.86 4.7 0 1.55-.32 3.41-1.93 5.57.18.65.66 1.08 1.32 1.37 3.78-2.39 5.47-5.45 5.47-8.32 0-1.82-.72-3.68-2.7-5.22a7.18 7.18 0 00-4.02 1.9zm0 0"/></symbol><symbol overflow="visible" id="cb7208c0f"><path d="M8.88.84c2.7 0 6.54-1.8 9.9-4.8.6 2.82 1.74 4.8 2.94 4.8 2.1 0 4.98-1.43 6.84-3.06 0-.9-.36-1.69-.9-2.22-1.14.36-2.52.78-3.85.96-.23-1.32-.3-3.11-.3-4.74V-19.5c0-8.16-5.93-9.48-9.46-9.48-4.14 0-7.82 1.32-10.7 3.06 0 2.1.56 4.56 1.45 6.42 1.14.36 2.34.13 3.48-.42 0-1.67.06-3.3.42-4.86 1.57-.36 3.18-.49 4.74-.49 4.08 0 5.04 3.07 5.04 7.7C10.8-16.2 2.1-13.03 2.1-6.3 2.1-1.86 4.92.84 8.88.84zM7.44-7.8c0-1.26.48-2.89 1.2-3.6.72-.72 5.1-1.97 9.84-2.52v7.08c-1.86 1.68-4.75 3.12-6.54 3.12-3.17 0-4.5-1.86-4.5-4.08zm0 0"/></symbol><symbol overflow="visible" id="cb7208c0g"><path d="M2.28.06c2.28 0 4.8-.12 7.27-.12 1.97 0 7.07.06 9.3.12.23-.54.35-1.8.35-2.7-1.5-.48-4.43-.9-7.07-1.08a50.93 50.93 0 01-.2-4.5v-11.64c2.48-3.95 4.45-4.69 6.73-4.69a10 10 0 011.56.13c.36 1.73.6 4.62.72 6.65 1.01.36 2.04.36 3.12 0a41.48 41.48 0 001.08-10.3 14.66 14.66 0 00-4.86-.79c-3.66 0-6.48 2.7-8.34 5.64-.17-1.5-.72-4.2-1.02-5.22l-.48-.42a32.9 32.9 0 00-8.52 2.16c-.12.72 0 1.56.24 2.34 1.56.17 3.18.48 4.75.95V-7c0 1.2-.07 2.03-.25 3.35-1.2.43-3.11.85-4.8 1.02 0 .95.19 2.22.42 2.7zm0 0"/></symbol><symbol overflow="visible" id="cb7208c0h"><path d="M13.38-32.64c5.1 0 8.93-4.5 9.78-7.02-.18-.84-.79-1.39-1.86-1.68-1.61 2.1-3.96 4.26-7.38 4.26-3.19 0-5.94-2.1-7.62-4.26-1.02.3-1.67.84-1.99 1.68.85 2.64 3.97 7.02 9.07 7.02zM8.88.84c2.7 0 6.54-1.8 9.9-4.8.6 2.82 1.74 4.8 2.94 4.8 2.1 0 4.98-1.43 6.84-3.06 0-.9-.36-1.69-.9-2.22-1.14.36-2.52.78-3.85.96-.23-1.32-.3-3.11-.3-4.74V-19.5c0-8.16-5.93-9.48-9.46-9.48-4.14 0-7.82 1.32-10.7 3.06 0 2.1.56 4.56 1.45 6.42 1.14.36 2.34.13 3.48-.42 0-1.67.06-3.3.42-4.86 1.57-.36 3.18-.49 4.74-.49 4.08 0 5.04 3.07 5.04 7.7C10.8-16.2 2.1-13.03 2.1-6.3 2.1-1.86 4.92.84 8.88.84zM7.44-7.8c0-1.26.48-2.89 1.2-3.6.72-.72 5.1-1.97 9.84-2.52v7.08c-1.86 1.68-4.75 3.12-6.54 3.12-3.17 0-4.5-1.86-4.5-4.08zm0 0"/></symbol><symbol overflow="visible" id="cb7208c0i"><path d="M3.83 0v-5.95H6.2v-.82H.45v.82h2.4V0zm0 0"/></symbol><symbol overflow="visible" id="cb7208c0j"><path d="M5.75-2.23v-.43c0-1.6-.9-2.51-2.42-2.51S.87-4.16.87-2.48c0 1.71.91 2.62 2.5 2.62 1.43 0 2.07-.56 2.29-1.52l-.9-.09c-.18.61-.59.9-1.35.9-.94 0-1.52-.54-1.58-1.66zm-2.4-2.2c.93 0 1.43.5 1.48 1.55H1.84c.08-1.07.6-1.56 1.5-1.56zm0 0"/></symbol><symbol overflow="visible" id="cb7208c0k"><path d="M1.83 0l1.42-2h.06l1.46 2H5.8L4-2.53l1.78-2.49H4.8L3.42-3.08h-.08l-1.4-1.94H.89l1.78 2.49L.84 0zm0 0"/></symbol><symbol overflow="visible" id="cb7208c0l"><path d="M5.52-4.25v-.77H3.17v-1.56h-.81l-.14 1.56H.75v.77h1.47v2.4c0 1.3.48 1.94 1.84 1.94C4.6.1 5.14 0 5.55-.14L5.4-.91c-.32.13-.72.2-1.13.2-.8 0-1.1-.37-1.1-1.23v-2.31zm0 0"/></symbol><symbol overflow="visible" id="cb7208c0m"><path d="M3.33-3.42c.47 0 .8-.27.8-.8 0-.51-.33-.8-.8-.8-.47 0-.8.29-.8.8 0 .53.33.8.8.8zm0 3.5c.47 0 .8-.27.8-.78 0-.53-.33-.82-.8-.82-.47 0-.8.29-.8.82 0 .51.33.78.8.78zm0 0"/></symbol><symbol overflow="visible" id="cb7208c0o"><path d="M3.83-5.95H6.2v-.82H.45v.82h2.4V0h.17l-.13.64c.52.05.81.17.81.5 0 .36-.22.42-.48.42-.14 0-.36-.03-.52-.08l-.08.5c.2.07.5.15.79.15.56 0 1.06-.2 1.06-.91 0-.52-.44-.77-.95-.86L3.58 0h.25zm0 0"/></symbol><symbol overflow="visible" id="cb7208c0p"><path d="M6.17 0L3.98-6.77h-1.3L.5 0h.97l.44-1.47h2.78L5.16 0zM3.28-5.94h.08l1.1 3.74H2.15zm0 0"/></symbol><symbol overflow="visible" id="cb7208c0q"><path d="M4.06-2.77c1.25-.04 1.92-.7 1.92-1.96 0-1.36-.7-2.04-2.17-2.04H.92V0h.97v-2.73h1.08L4.95 0h1.1zM1.9-6h1.7c1.07 0 1.46.34 1.46 1.28 0 .9-.44 1.27-1.47 1.27H1.89zm0 0"/></symbol><symbol overflow="visible" id="cb7208c0r"><path d="M3.34-7.36c1.08 0 1.74-.51 1.79-1.72h-.7c-.07.75-.34 1.13-1.09 1.13S2.33-8.3 2.27-9.08h-.7c.04 1.2.66 1.72 1.77 1.72zM6.17 0L3.98-6.77h-1.3L.5 0h.97l.44-1.47h2.78L5.16 0zM3.28-5.94h.08l1.1 3.74H2.15zm0 0"/></symbol><symbol overflow="visible" id="cb7208c0s"><path d="M3.69.08l.37.01C4.6.1 5.14 0 5.55-.14L5.4-.91c-.32.13-.72.2-1.13.2-.8 0-1.1-.37-1.1-1.23v-2.31h2.34v-.77H3.17v-1.56h-.81l-.14 1.56H.75v.77h1.47v2.4c0 .96.25 1.55.94 1.82l-.14.67c.51.05.82.17.82.5 0 .36-.23.42-.5.42-.14 0-.36-.03-.5-.08l-.09.5c.2.07.5.15.78.15.56 0 1.08-.2 1.08-.91 0-.52-.44-.77-.97-.86zm0 0"/></symbol><symbol overflow="visible" id="cb7208c0t"><path d="M2.83.14c.94 0 1.5-.39 1.81-.95h.08l.1.81h.76v-3.38c0-1.23-.69-1.8-2.13-1.8-1.43 0-2.03.65-2.18 1.6l.93.1c.11-.6.44-.93 1.22-.93.85 0 1.22.32 1.22 1.04v.34l-1.81.2C1.6-2.7 1.1-2.17 1.1-1.28c0 .92.64 1.42 1.72 1.42zm.25-.77c-.67 0-1.02-.28-1.02-.74 0-.44.28-.72 1-.82l1.58-.19v.41c0 .8-.6 1.34-1.56 1.34zm0 0"/></symbol><symbol overflow="visible" id="cb7208c0u"><path d="M5.08-5.16c-.94 0-1.58.43-1.9 1.3h-.09l-.07-1.16H1.05v.77h1.1v3.48H.96V0h3.96v-.77H3.1v-1.46c0-1.36.6-2.05 1.83-2.05.4 0 .76.08 1.1.17l.15-.87c-.33-.11-.7-.18-1.11-.18zm0 0"/></symbol><symbol overflow="visible" id="cb7208c0v"><path d="M3.53-5.67c1.05 0 1.64-.56 1.69-1.85h-.69c-.05.77-.26 1.22-1 1.22-.72 0-.95-.45-1-1.22h-.7c.04 1.29.62 1.85 1.7 1.85zM2.83.14c.94 0 1.5-.39 1.81-.95h.08l.1.81h.76v-3.38c0-1.23-.69-1.8-2.13-1.8-1.43 0-2.03.65-2.18 1.6l.93.1c.11-.6.44-.93 1.22-.93.85 0 1.22.32 1.22 1.04v.34l-1.81.2C1.6-2.7 1.1-2.17 1.1-1.28c0 .92.64 1.42 1.72 1.42zm.25-.77c-.67 0-1.02-.28-1.02-.74 0-.44.28-.72 1-.82l1.58-.19v.41c0 .8-.6 1.34-1.56 1.34zm0 0"/></symbol><symbol overflow="visible" id="cb7208c0w"><path d="M5.95-6.77H1.1V0h.99v-2.92H5.3v-.77H2.08v-2.26h3.87zm0 0"/></symbol><symbol overflow="visible" id="cb7208c0x"><path d="M2.73.14c.9 0 1.43-.45 1.74-1.08h.06l.13.94h.8v-5.02h-.94v2.7c0 .98-.57 1.62-1.46 1.62-.75 0-1.1-.4-1.1-1.22v-3.1h-.93v3.32c0 1.17.55 1.84 1.7 1.84zm0 0"/></symbol><symbol overflow="visible" id="cb7208c0y"><path d="M3.33.14c1.62 0 2.5-.95 2.5-2.66 0-1.68-.88-2.64-2.5-2.64-1.63 0-2.5.96-2.5 2.64 0 1.7.87 2.66 2.5 2.66zm0-.77c-1.06 0-1.52-.6-1.52-1.89 0-1.28.46-1.87 1.52-1.87 1.08 0 1.53.6 1.53 1.87 0 1.29-.45 1.9-1.53 1.9zm0 0"/></symbol><symbol overflow="visible" id="cb7208c0z"><path d="M1.63 0v-2.9c0-.8.15-1.4.71-1.4.41 0 .55.3.55.88V0h.95v-2.9c0-.8.18-1.4.72-1.4.4 0 .57.3.57.88V0h.95v-3.63c0-.92-.28-1.53-1.11-1.53-.63 0-.95.41-1.1.9h-.06c-.1-.52-.44-.9-1.08-.9-.6 0-.93.41-1.06.9H1.6l-.23-.76H.67V0zm0 0"/></symbol><symbol overflow="visible" id="cb7208c0A"><path d="M2.16 0v-2.67c0-.99.59-1.63 1.46-1.63.74 0 1.07.38 1.07 1.22V0h.95v-3.31c0-1.2-.56-1.85-1.67-1.85-.92 0-1.49.46-1.77 1.08h-.06l-.12-.94H1.2V0zm0 0"/></symbol><symbol overflow="visible" id="cb7208c0B"><path d="M3.58-5.81c.42 0 .72-.22.72-.67 0-.44-.3-.68-.72-.68-.44 0-.72.24-.72.68 0 .45.28.67.72.67zm.5.8H1.52v.76h1.6v3.48h-1.8V0h4.46v-.77h-1.7zm0 0"/></symbol><symbol overflow="visible" id="cb7208c0C"><path d="M1.45-2.95c0 2.56 1.08 4.37 3.67 4.84l.11-.67C3.28.86 2.43-.75 2.43-2.95s.85-3.82 2.8-4.16l-.1-.69c-2.6.49-3.68 2.3-3.68 4.85zm0 0"/></symbol><symbol overflow="visible" id="cb7208c0D"><path d="M3.36.16c1.4 0 2.2-.6 2.2-1.57 0-.89-.54-1.22-1.47-1.39L3-3c-.67-.14-.86-.33-.86-.73 0-.5.4-.74 1.17-.74.83 0 1.19.27 1.27.8l.9-.05c-.12-1-.8-1.47-2.17-1.47-1.34 0-2.1.53-2.1 1.5 0 .81.45 1.22 1.52 1.44l1.04.2c.56.11.87.24.87.72 0 .52-.45.78-1.28.78-.95 0-1.36-.28-1.42-.87l-.9.06C1.07-.36 1.8.16 3.35.16zm0 0"/></symbol><symbol overflow="visible" id="cb7208c0E"><path d="M3.92-7.14H1.36v.76h1.6v5.61H1.15V0H5.7v-.77H3.92zm0 0"/></symbol><symbol overflow="visible" id="cb7208c0F"><path d="M3.16 2.03c1.67 0 2.4-.86 2.4-2.51v-4.54h-.81l-.13.91h-.06c-.26-.58-.8-1.05-1.73-1.05-1.42 0-2.24 1-2.24 2.52 0 1.6.75 2.56 2.2 2.56.94 0 1.5-.5 1.77-1.03h.05v.72c0 1.17-.42 1.67-1.45 1.67-.93 0-1.3-.34-1.41-.89L.8.5c.12.96.87 1.54 2.36 1.54zM3.06-.8c-.98 0-1.48-.57-1.48-1.82 0-1.13.5-1.75 1.48-1.75 1.06 0 1.58.76 1.58 1.75 0 .95-.56 1.82-1.58 1.82zm0 0"/></symbol><symbol overflow="visible" id="cb7208c0G"><path d="M1.45-7.1c1.96.33 2.8 1.94 2.8 4.15 0 2.2-.84 3.8-2.8 4.17l.11.67c2.58-.47 3.67-2.28 3.67-4.84 0-2.55-1.09-4.36-3.67-4.85zm0 0"/></symbol></defs><use xlink:href="#cb7208c0a" x="164.07" y="152" fill="#fff"/><g fill="#515151"><use xlink:href="#cb7208c0b" x="200.43" y="152"/><use xlink:href="#cb7208c0c" x="241.05" y="152"/><use xlink:href="#cb7208c0d" x="278.07" y="152"/></g><use xlink:href="#cb7208c0e" x="330.69" y="152" fill="#fff"/><g fill="#515151"><use xlink:href="#cb7208c0f" x="351.63" y="152"/><use xlink:href="#cb7208c0g" x="380.85" y="152"/><use xlink:href="#cb7208c0h" x="406.71" y="152"/></g><g fill="#fff"><use xlink:href="#cb7208c0i" x="250" y="252"/><use xlink:href="#cb7208c0j" x="256.667" y="252"/><use xlink:href="#cb7208c0k" x="263.334" y="252"/><use xlink:href="#cb7208c0l" x="270.001" y="252"/><use xlink:href="#cb7208c0m" x="276.668" y="252"/><use xlink:href="#cb7208c0n" x="283.335" y="252"/><use xlink:href="#cb7208c0o" x="290.002" y="252"/><use xlink:href="#cb7208c0p" x="296.669" y="252"/><use xlink:href="#cb7208c0q" x="303.336" y="252"/><use xlink:href="#cb7208c0r" x="310.003" y="252"/><use xlink:href="#cb7208c0n" x="316.67" y="252"/><use xlink:href="#cb7208c0s" x="323.337" y="252"/><use xlink:href="#cb7208c0t" x="330.004" y="252"/><use xlink:href="#cb7208c0u" x="336.671" y="252"/><use xlink:href="#cb7208c0v" x="343.338" y="252"/></g><g fill="#fff"><use xlink:href="#cb7208c0w" x="193.3333" y="266"/><use xlink:href="#cb7208c0j" x="200.0003" y="266"/><use xlink:href="#cb7208c0t" x="206.6673" y="266"/><use xlink:href="#cb7208c0l" x="213.3343" y="266"/><use xlink:href="#cb7208c0x" x="220.0013" y="266"/><use xlink:href="#cb7208c0u" x="226.6683" y="266"/><use xlink:href="#cb7208c0j" x="233.3353" y="266"/><use xlink:href="#cb7208c0m" x="240.0023" y="266"/><use xlink:href="#cb7208c0n" x="246.6693" y="266"/><use xlink:href="#cb7208c0q" x="253.3363" y="266"/><use xlink:href="#cb7208c0y" x="260.0033" y="266"/><use xlink:href="#cb7208c0z" x="266.6703" y="266"/><use xlink:href="#cb7208c0t" x="273.3373" y="266"/><use xlink:href="#cb7208c0A" x="280.0043" y="266"/><use xlink:href="#cb7208c0B" x="286.6713" y="266"/><use xlink:href="#cb7208c0t" x="293.3383" y="266"/><use xlink:href="#cb7208c0A" x="300.0053" y="266"/><use xlink:href="#cb7208c0n" x="306.6723" y="266"/><use xlink:href="#cb7208c0C" x="313.3393" y="266"/><use xlink:href="#cb7208c0D" x="320.0063" y="266"/><use xlink:href="#cb7208c0j" x="326.6733" y="266"/><use xlink:href="#cb7208c0l" x="333.3403" y="266"/><use xlink:href="#cb7208c0n" x="340.0073" y="266"/><use xlink:href="#cb7208c0E" x="346.6743" y="266"/><use xlink:href="#cb7208c0t" x="353.3413" y="266"/><use xlink:href="#cb7208c0A" x="360.0083" y="266"/><use xlink:href="#cb7208c0F" x="366.6753" y="266"/><use xlink:href="#cb7208c0x" x="373.3423" y="266"/><use xlink:href="#cb7208c0t" x="380.0093" y="266"/><use xlink:href="#cb7208c0F" x="386.6763" y="266"/><use xlink:href="#cb7208c0j" x="393.3433" y="266"/><use xlink:href="#cb7208c0G" x="400.0103" y="266"/></g></svg>