<?xml version='1.0' encoding='UTF-8'?>
<svg xmlns="http://www.w3.org/2000/svg" xmlns:xlink="http://www.w3.org/1999/xlink" width="600px" height="300px" viewBox="0 0 600 300" x="0px" y="0px" enable-background="new 0 0 600 300"><defs><symbol overflow="visible" id="be16be33a"><path d="M15.72.84c9 0 13.01-6.36 13.01-13.39 0-4.54-2.09-8.39-4.54-10.8v-.06h9.95l.48-.46c0-1.75-.3-3.36-1.2-4.75-3.42.12-6.84.18-10.26.18h-5.94c-9.24 0-14.81 5.82-14.81 13.86C2.4-7.14 7.8.84 15.7.84zm-5.22-5.1c-.6-.43-3-3.79-3-8.82 0-5.22 3.13-10.33 10.63-10.33h2.68c1.88 2.83 2.83 6 2.83 9.25 0 4.38-2.52 10.97-9 10.97a8.25 8.25 0 01-4.14-1.08zm0 0"/></symbol><symbol overflow="visible" id="be16be33b"><path d="M4.38-.19l.48.49C6.72.23 8.8-.06 10.08-.6c1.86-5.7 4.2-10.38 7.01-14.1C19.38-4.7 21.2.84 23.52.84c2.17 0 4.86-1.5 6.6-3.36A3.9 3.9 0 0028.86-6c-1.63.48-3.3.84-5.16.95a64.91 64.91 0 01-3.97-12.65 26.77 26.77 0 018.9-6c-.13-2.35-.91-4.02-2.58-5.1-8.77 3.36-13.7 13.25-16.82 23.64h-.1c0-7.62.1-14.4.95-22.8a9.2 9.2 0 00-6.24 0c.47 8.59.54 17.52.54 27.77zm0 0"/></symbol><symbol overflow="visible" id="be16be33c"><path d="M22.2-22.63c1.38-1.01 1.99-2.75 1.32-4.8-2.52-1.13-5.33-1.62-9.11-1.62-6.36 0-10.99 3.61-10.99 8.53 0 2.4 1.56 4.68 3.9 6C4.5-12.36 3-9.72 3-6.9 3-2.45 6.3.84 12.95.84c4.86 0 9.13-1.86 12.49-4.5a3.95 3.95 0 00-1.63-2.89c-3.4 1.4-6.89 2.28-10.43 2.28-3.83 0-6.36-1.8-6.36-4.14 0-1.43.84-2.93 3-4.14 1.98.43 4.2.74 6.3.74.9 0 1.8-.06 2.63-.19.36-.9.55-1.73.55-2.64 0-.78-.19-1.63-.48-2.4l-.47-.54-8.77 1.2c-1.69-.9-2.34-2.1-2.34-3.35 0-1.75 2.47-4.2 6.97-4.2 2.39 0 4.8.35 7.8 1.3zm0 0"/></symbol><symbol overflow="visible" id="be16be33d"><path d="M19.14 15.3c1.02 0 2.05-.18 2.94-.53-.3-5.29-.49-9.61-.6-14.41a15.08 15.08 0 0014.46-15c0-6.55-3.06-10.38-7.63-12.6-1.9-.96-4.01-1.26-6.6-1.39.13-1.92.24-4.07.37-6.53a7.9 7.9 0 00-5.81 0c.1 2.46.23 4.68.36 6.6a15.06 15.06 0 00-14.22 15C2.4-7.02 5.45-3.2 10-.96 12 0 14.17.3 16.87.43c-.13 4.67-.3 9.49-.6 14.35.9.36 1.86.53 2.88.53zM7.27-15.23c0-3.85 2.21-7.27 4.25-8.7.9-.62 3.06-1.02 5.04-1.02h.24c.12 3.95.18 7.07.18 10.54 0 3.72 0 7.46-.06 11.18-6.19-.32-9.65-5.83-9.65-12zm14.09.82c0-3.53.06-6.59.23-10.54 6 .3 9.49 5.8 9.49 12 0 3.65-1.92 7.18-3.85 8.45-.82.55-3.3 1.27-5.45 1.27h-.36c-.06-3.32-.06-6.91-.06-11.18zm0 0"/></symbol><symbol overflow="visible" id="be16be33e"><path d="M16.08.9c8.87 0 14.1-10.85 14.1-24.12 0-13.37-4.45-22.62-13.32-22.62-8.77 0-14.05 10.92-14.05 24.12C2.81-8.34 7.21.91 16.08.91zm-.36-42.48c5.1 0 8.22 6.17 8.87 16.31l-8.03.25-8.34-.25c.12-9.1 1.92-12.89 3.3-14.8.48-.66 2.53-1.5 4.2-1.5zm.78 20.64l8.28.24v.06c0 9.78-1.92 13.8-3.36 15.78-.48.66-2.47 1.5-4.14 1.5-5.34 0-8.47-6.55-9-17.34zm0 0"/></symbol><symbol overflow="visible" id="be16be33f"><path d="M7.8-33.13c1.68-1.8 3.72-3 4.8-3 3.12 0 5.59 3.32 9.12 3.32 2.76 0 6.36-2.53 8.47-5.96a3.12 3.12 0 00-2.11-1.54c-1.67 1.8-3.72 3-4.8 3-3.36 0-5.58-3.31-9.19-3.31-2.68 0-6.23 2.4-8.32 5.82.3.78.95 1.38 2.03 1.67zm23.82 47.9c-.3-9.85-.42-19.63-.42-29.47 0-8.75-3.65-14.35-11.1-14.35-4.32 0-7.8 3-9.24 7.93-.17-4.5-1.31-7.93-3.66-7.93-2.1 0-4.75 1.46-6.54 3.43a3.82 3.82 0 001.26 3.42c1.38-.49 3.42-.85 5.16-.96.84 2.58 1.2 6.6 1.2 11.04 0 3.6 0 5.93-.78 11.89.72.35 1.73.59 2.77.59 1.07 0 2.09-.13 2.87-.48v-13.02c.84-6 4.31-11.88 8.81-11.88 1.75 0 2.53.43 2.96.9 1.07 1.5 1.43 4.43 1.43 7.2 0 9.42 0 20.76-.54 31.69.9.36 1.86.53 2.89.53 1.01 0 2.03-.18 2.93-.53zM13.02 5.4l-.47-.49a6.7 6.7 0 00-4.14.78c-.68 1.25-.85 2.64-.85 4.32 0 3.42 1.8 6 4.38 6 2.1 0 3.9-.66 5.4-1.97 0-1.14-.25-2.18-1.07-2.9-1.33.3-2.41.43-3.72.43-.13-.6-.13-1.38-.13-1.99 0-1.3.17-2.68.6-4.18zm0 0"/></symbol><symbol overflow="visible" id="be16be33h"><path d="M18-28.44c-9.6 0-15.95 6.78-15.95 15.66C2.05-5.1 5.88.95 12.42.95c9.3 0 13.56-7.08 13.56-14.75 0-4.2-1.2-6.9-2.93-9.42v-.12c3.23.06 6.82.18 9.72.48l.46-.48c0-2.1-.89-5.1-2.15-5.1zm.19 5.03h1.5a22.56 22.56 0 011.43 8.29c0 5.34-3.06 12.06-9.12 12.06-1.8 0-3.36-.53-4.27-1.38-.53-2.15-.71-4.2-.71-6.72 0-6.71 3.48-12.25 11.17-12.25zm0 0"/></symbol><symbol overflow="visible" id="be16be33i"><path d="M11.45-11.22l-1.5 4.08-.23-.06.97-4.8c.47-2.4 2.03-9.23 2.03-12.55 0-2.32-.95-4.37-3.17-4.37-2.4 0-4.82 1.37-7.03 3.48a4.3 4.3 0 00.78 3.3c1.33-.42 3.18-.84 4.92-.95-.95 8.21-2.58 14.57-4.8 22.8l.49.48C6 .42 10.56 0 10.92-1.14c2.81-8.77 5.35-14.64 10.8-19.2l.12.12c-1.8 3.84-2.4 7.63-2.4 11.88 0 4.8 2.1 9.06 5.28 9.06 2.58 0 5.7-1.86 7.98-4.38a4.03 4.03 0 00-1.8-2.89 15.04 15.04 0 01-5.04 1.46 15.8 15.8 0 01-2.52-8.7c0-5.59 2.1-10.21 8.22-10.4l.49-.47c-.49-2.76-1.92-4.26-3.2-4.26-1.07 0-2.57.36-3.7.78-6.07 2.28-10.7 9-13.7 16.92zm0 0"/></symbol><symbol overflow="visible" id="be16be33j"><path d="M22.08-22.73l.65-.2c.91-.77 1.5-2.15 1.5-3.29 0-.78-.3-1.33-.89-1.62-1.68-.85-4.07-1.32-7.62-1.32-6.36 0-11.52 4.14-11.52 9.3a6.7 6.7 0 002.82 5.22c-3.18 2.4-4.86 5.28-4.86 8.22 0 4.37 2.7 7.37 8.21 7.37C15 .95 19.2-.9 22.7-3.55a3.46 3.46 0 00-1.2-2.87c-3.36 1.37-6.68 2.28-9.91 2.28-3.24 0-5.28-1.74-5.58-3.9.36-1.62 1.44-3 3.6-4.32 2.1.55 4.2.72 6.42.72 1.68 0 2.1-3.55 1.98-5.52l-.48-.48c-2.64.12-5.4.48-7.93 1.02a5.2 5.2 0 01-1.54-2.7c.17-1.98 2.75-4.74 7.07-4.74a19 19 0 016.96 1.33zm0 0"/></symbol><symbol overflow="visible" id="be16be33k"><path d="M14.7 15.3c1.02 0 2.03-.18 3-.53.36-5.29.78-9.61 1.32-14.41 8.7-.72 16.03-7.92 16.03-17.05 0-5.15-2.35-8.75-6.2-10.54a14.55 14.55 0 00-5.76-1.33c.36-1.99.72-4.14 1.2-6.6a7.4 7.4 0 00-2.8-.54 8.5 8.5 0 00-3 .54 296 296 0 01-.55 6.6c-8.64.84-15.78 8.28-15.78 17.28 0 5.15 2.4 8.51 6.18 10.33 1.8.82 3.66 1.25 6 1.3a316.1 316.1 0 01-2.46 14.42c.84.36 1.8.53 2.82.53zM7.27-12.95c0-4.33 2.03-8.7 5.57-10.99.96-.6 3.18-1.01 4.57-1.01h.23c-.36 3.95-.72 7.07-1.2 10.54-.49 3.72-.96 7.46-1.57 11.18-5.03-.25-7.6-4.5-7.6-9.72zm13.54-1.46c.49-3.53.97-6.59 1.63-10.54 4.98.23 7.5 4.6 7.5 9.89 0 4.69-2.03 8.7-5.16 10.56-.9.55-3.42 1.27-5.28 1.27h-.06c.36-3.32.84-6.91 1.37-11.18zm0 0"/></symbol><symbol overflow="visible" id="be16be33l"><path d="M14.81.84c8.24 0 12.78-10.03 14.11-21.48h2.81l.55-.48c.42-1.25.66-3 .42-4.2h-3.42c.06-.9.06-1.74.06-2.63 0-9.61-3.6-17.9-11.53-17.9-6.47 0-11.68 4.57-11.68 11.23 0 8.04 7.5 13.2 17.75 13.92C22.5-12 19.27-3.2 14.94-3.2c-1.74 0-2.88-.53-3.3-1.01-.55-.72-.95-2.28-.95-4.2v-5.33c0-3.72-1.27-5.29-2.96-5.29-2.39 0-5.03 1.61-7.01 3.36a3.5 3.5 0 00.78 3.47c1.69-.47 2.94-.72 4.44-.89l.25 3.49C6.55-3.2 9.06.84 14.8.84zm1.46-27.25c-2.35-1.3-5.18-4.25-5.18-8.03 0-3.97 3.49-7.37 6.97-7.37 1.63 0 3.42.4 4.02 1.19 1.5 2.1 2.58 6.06 2.51 11.4 0 1.2-.04 2.52-.17 3.9-4.26-.12-7.44-.6-8.15-1.09zm0 0"/></symbol><symbol overflow="visible" id="be16be33m"><path d="M23.77-32.7c2.21 0 6.3-2.94 8.39-6-.3-.78-.9-1.32-1.86-1.5-1.57 1.39-4.02 2.83-5.35 3.12-3-.78-5.22-3.42-7.8-3.42-2.21 0-6.3 2.94-8.38 6 .3.78.89 1.31 1.86 1.5 1.56-1.38 4.01-2.81 5.32-3.13 3 .79 5.24 3.43 7.82 3.43zM11.52-20.87h-.11c.23-4.93-.43-8.05-2.47-8.05-2.28 0-5.28 1.92-6.78 3.48a4.2 4.2 0 00.78 3.3c1.33-.48 3.3-.84 4.92-.95l.19 8.57A56.01 56.01 0 005.7-.66l.49.47c.89.32 2.1.42 3 .42 1.6 0 2.51-.46 2.51-1.85v-10.8c2.46-6.96 6.49-12.72 10.32-12.72 1.5 0 2.17.42 2.57.78.36.95.49 2.94.49 4.5 0 9.66-2.16 21.48-4.92 34.73l.48.49c2.77.19 5.16-.3 5.4-1.92C27.43 3.36 29.7-14.52 29.7-18.6c0-6-2.47-10.57-8.76-10.57-4.5 0-8.28 3.96-9.42 8.29zM10.8 5.4l-.43-.49c-1.24-.19-3-.06-4.01.96-1.08 1.03-1.67 2.89-1.67 5.28 0 2.76 1.31 4.86 3.6 4.86 2.02 0 3.9-.66 5.44-1.97.13-1.14 0-2.18-.65-2.9-1.2.3-2.22.43-3.49.43v-.66c0-1.37.32-3.06 1.2-5.51zm0 0"/></symbol><symbol overflow="visible" id="be16be33n"><path d="M3.83 0v-5.95H6.2v-.82H.45v.82h2.4V0zm0 0"/></symbol><symbol overflow="visible" id="be16be33o"><path d="M5.75-2.23v-.43c0-1.6-.9-2.51-2.42-2.51S.87-4.16.87-2.48c0 1.71.91 2.62 2.5 2.62 1.43 0 2.07-.56 2.29-1.52l-.9-.09c-.18.61-.59.9-1.35.9-.94 0-1.52-.54-1.58-1.66zm-2.4-2.2c.93 0 1.43.5 1.48 1.55H1.84c.08-1.07.6-1.56 1.5-1.56zm0 0"/></symbol><symbol overflow="visible" id="be16be33p"><path d="M1.83 0l1.42-2h.06l1.46 2H5.8L4-2.53l1.78-2.49H4.8L3.42-3.08h-.08l-1.4-1.94H.89l1.78 2.49L.84 0zm0 0"/></symbol><symbol overflow="visible" id="be16be33q"><path d="M5.52-4.25v-.77H3.17v-1.56h-.81l-.14 1.56H.75v.77h1.47v2.4c0 1.3.48 1.94 1.84 1.94C4.6.1 5.14 0 5.55-.14L5.4-.91c-.32.13-.72.2-1.13.2-.8 0-1.1-.37-1.1-1.23v-2.31zm0 0"/></symbol><symbol overflow="visible" id="be16be33r"><path d="M3.33-3.42c.47 0 .8-.27.8-.8 0-.51-.33-.8-.8-.8-.47 0-.8.29-.8.8 0 .53.33.8.8.8zm0 3.5c.47 0 .8-.27.8-.78 0-.53-.33-.82-.8-.82-.47 0-.8.29-.8.82 0 .51.33.78.8.78zm0 0"/></symbol><symbol overflow="visible" id="be16be33t"><path d="M3.22.14c1.5 0 2.4-.95 2.4-2.39 0-1.03-.43-1.55-.82-1.86v-.06h1.36v-.85H3.42c-1.69 0-2.65.93-2.65 2.6C.77-.86 1.69.14 3.22.14zm0-.77c-1 0-1.49-.65-1.49-1.8 0-1.23.54-1.84 1.52-1.84 1.02 0 1.47.74 1.47 1.85 0 1.14-.49 1.8-1.5 1.8zm0 0"/></symbol><symbol overflow="visible" id="be16be33u"><path d="M4.83-5.02L2.45-2.86H2.4v-2.16h-.95V0h.95v-2.34h.06L4.85 0H6L3.31-2.7 5.9-5.02zm0 0"/></symbol><symbol overflow="visible" id="be16be33v"><path d="M3.42.16c1.6 0 2.2-.64 2.31-1.61l-.89-.08c-.09.64-.48.97-1.42.97-1 0-1.33-.35-1.33-.86 0-.55.27-.8 1.22-.8h.8v-.65h-.8c-.76 0-1.1-.25-1.1-.8 0-.44.26-.78 1.21-.78.99 0 1.24.37 1.33.89l.9-.06c-.12-.94-.73-1.55-2.23-1.55-1.48 0-2.14.54-2.14 1.44 0 .65.38 1.01.9 1.14v.06c-.56.08-1.02.5-1.02 1.22 0 .89.67 1.47 2.26 1.47zm0 0"/></symbol><symbol overflow="visible" id="be16be33w"><path d="M6.1-2.5c0-1.6-.87-2.48-2.33-2.64v-1.33H2.9v1.33C1.42-5 .58-4.1.58-2.5.58-.9 1.42-.02 2.9.13v1.76h.86V.13C5.23-.02 6.09-.9 6.09-2.5zm-4.7 0c0-1.17.46-1.78 1.52-1.9v3.8c-1.06-.13-1.51-.73-1.51-1.9zm2.33-1.9c1.08.12 1.54.73 1.54 1.9S4.8-.73 3.73-.6zm0 0"/></symbol><symbol overflow="visible" id="be16be33x"><path d="M3.33-7.28C1.66-7.28.87-6.08.87-3.56c0 2.48.79 3.7 2.46 3.7S5.8-1.08 5.8-3.56c0-2.52-.8-3.72-2.47-3.72zm0 .76c1.03 0 1.47.72 1.51 2.54H1.81c.06-1.82.5-2.54 1.52-2.54zm0 5.9c-1.06 0-1.47-.8-1.52-2.63h3.03C4.81-1.42 4.4-.62 3.33-.62zm0 0"/></symbol><symbol overflow="visible" id="be16be33z"><path d="M5.95-6.77H1.1V0h.99v-2.92H5.3v-.77H2.08v-2.26h3.87zm0 0"/></symbol><symbol overflow="visible" id="be16be33A"><path d="M2.83.14c.94 0 1.5-.39 1.81-.95h.08l.1.81h.76v-3.38c0-1.23-.69-1.8-2.13-1.8-1.43 0-2.03.65-2.18 1.6l.93.1c.11-.6.44-.93 1.22-.93.85 0 1.22.32 1.22 1.04v.34l-1.81.2C1.6-2.7 1.1-2.17 1.1-1.28c0 .92.64 1.42 1.72 1.42zm.25-.77c-.67 0-1.02-.28-1.02-.74 0-.44.28-.72 1-.82l1.58-.19v.41c0 .8-.6 1.34-1.56 1.34zm0 0"/></symbol><symbol overflow="visible" id="be16be33B"><path d="M2.73.14c.9 0 1.43-.45 1.74-1.08h.06l.13.94h.8v-5.02h-.94v2.7c0 .98-.57 1.62-1.46 1.62-.75 0-1.1-.4-1.1-1.22v-3.1h-.93v3.32c0 1.17.55 1.84 1.7 1.84zm0 0"/></symbol><symbol overflow="visible" id="be16be33C"><path d="M5.08-5.16c-.94 0-1.58.43-1.9 1.3h-.09l-.07-1.16H1.05v.77h1.1v3.48H.96V0h3.96v-.77H3.1v-1.46c0-1.36.6-2.05 1.83-2.05.4 0 .76.08 1.1.17l.15-.87c-.33-.11-.7-.18-1.11-.18zm0 0"/></symbol><symbol overflow="visible" id="be16be33D"><path d="M6.17 0L3.98-6.77h-1.3L.5 0h.97l.44-1.47h2.78L5.16 0zM3.28-5.94h.08l1.1 3.74H2.15zm0 0"/></symbol><symbol overflow="visible" id="be16be33E"><path d="M3.92-7.14H1.36v.76h1.6v5.61H1.15V0H5.7v-.77H3.92zm0 0"/></symbol><symbol overflow="visible" id="be16be33F"><path d="M2.16 0v-2.67c0-.99.59-1.63 1.46-1.63.74 0 1.07.38 1.07 1.22V0h.95v-3.31c0-1.2-.56-1.85-1.67-1.85-.92 0-1.49.46-1.77 1.08h-.06l-.12-.94H1.2V0zm0 0"/></symbol><symbol overflow="visible" id="be16be33G"><path d="M3.58-5.81c.42 0 .72-.22.72-.67 0-.44-.3-.68-.72-.68-.44 0-.72.24-.72.68 0 .45.28.67.72.67zm.5.8H1.52v.76h1.6v3.48h-1.8V0h4.46v-.77h-1.7zm0 0"/></symbol><symbol overflow="visible" id="be16be33H"><path d="M3.9 0l2-5.02h-.96L3.4-.94h-.07L1.8-5.02H.77L2.78 0zm0 0"/></symbol><symbol overflow="visible" id="be16be33I"><path d="M3.38-5.9c.12-.5.42-1.04.67-1.41l-.63-.22a4.28 4.28 0 00-1.01 2.39c0 .66.3 1 .9 1 .6 0 .9-.33.9-.9 0-.57-.32-.83-.83-.85zm0 0"/></symbol><symbol overflow="visible" id="be16be33J"><path d="M2.16 0v-2.69c0-.98.6-1.6 1.46-1.6.74 0 1.07.4 1.07 1.2V0h.95v-3.31c0-1.17-.56-1.85-1.67-1.85-.9 0-1.44.46-1.75 1.08h-.06v-3.06H1.2V0zm0 0"/></symbol><symbol overflow="visible" id="be16be33K"><path d="M3.3-7.53c-.55 0-.85.3-.85.84 0 .55.36.8.83.8h.03a5.1 5.1 0 01-.69 1.47l.52.23a4.29 4.29 0 001.02-2.4c0-.63-.33-.94-.86-.94zm0 0"/></symbol><symbol overflow="visible" id="be16be33L"><path d="M2.84.14C3.8.14 4.33-.26 4.6-.9h.07L4.8 0h.76v-7.14h-.95v2.95h-.08c-.28-.6-.86-.97-1.67-.97-1.48 0-2.27.99-2.27 2.64C.6-.84 1.36.14 2.84.14zm.22-.8c-.98 0-1.48-.59-1.48-1.84s.5-1.86 1.48-1.86c1.13 0 1.58.8 1.58 1.86S4.2-.66 3.06-.66zm0 0"/></symbol><symbol overflow="visible" id="be16be33M"><path d="M2.06 1.9V-.84h.05c.28.58.8.97 1.77.97 1.5 0 2.2-.98 2.2-2.66 0-1.65-.7-2.64-2.19-2.64-.97 0-1.5.44-1.78 1.05h-.08l-.1-.9H1.1v6.9zm1.5-2.56c-1.06 0-1.53-.8-1.53-1.86 0-1.04.47-1.84 1.53-1.84 1.11 0 1.53.61 1.53 1.84 0 1.27-.42 1.86-1.53 1.86zm0 0"/></symbol><symbol overflow="visible" id="be16be33N"><path d="M1.45-2.95c0 2.56 1.08 4.37 3.67 4.84l.11-.67C3.28.86 2.43-.75 2.43-2.95s.85-3.82 2.8-4.16l-.1-.69c-2.6.49-3.68 2.3-3.68 4.85zm0 0"/></symbol><symbol overflow="visible" id="be16be33O"><path d="M3.36.16c1.4 0 2.2-.6 2.2-1.57 0-.89-.54-1.22-1.47-1.39L3-3c-.67-.14-.86-.33-.86-.73 0-.5.4-.74 1.17-.74.83 0 1.19.27 1.27.8l.9-.05c-.12-1-.8-1.47-2.17-1.47-1.34 0-2.1.53-2.1 1.5 0 .81.45 1.22 1.52 1.44l1.04.2c.56.11.87.24.87.72 0 .52-.45.78-1.28.78-.95 0-1.36-.28-1.42-.87l-.9.06C1.07-.36 1.8.16 3.35.16zm0 0"/></symbol><symbol overflow="visible" id="be16be33P"><path d="M4.22-6.77h-.86l-2.03.7v.87c.64-.17 1.26-.38 1.89-.55v4.9H1.03V0h4.9v-.86H4.21zm0 0"/></symbol><symbol overflow="visible" id="be16be33Q"><path d="M1.45-7.1c1.96.33 2.8 1.94 2.8 4.15 0 2.2-.84 3.8-2.8 4.17l.11.67c2.58-.47 3.67-2.28 3.67-4.84 0-2.55-1.09-4.36-3.67-4.85zm0 0"/></symbol><symbol overflow="visible" id="be16be33y"><path d="M.9-3.94c.01-.38-.1-.58-.32-.58-.1 0-.2.02-.3.04v-.72c.11-.05.3-.09.56-.1.57 0 .86.3.86.92h.03c.4-.6.98-.92 1.74-.92 1.15.01 1.73.59 1.73 1.72v5.53h-.89v-5.3c.01-.75-.34-1.14-1.04-1.17-.52 0-.89.17-1.11.49-.25.32-.36.74-.36 1.25V0H.9zm3.37-2a1.2 1.2 0 00-.24-.48c-.18-.19-.46-.28-.84-.28-.36 0-.62.1-.8.28-.1.12-.18.28-.23.48h-.49c.07-.47.24-.82.52-1.03.27-.2.63-.31 1.1-.31.57 0 1 .2 1.24.58.13.2.2.45.24.76zM.86.56h.9v1.8c0 .16.11.23.36.23l.43-.01v.34c-.15.02-.39.03-.72.03a1.86 1.86 0 01-.8-.17C.96 2.73.91 2.66.91 2.6a.49.49 0 01-.05-.21zm0 0"/></symbol></defs><g fill="#515151"><use xlink:href="#be16be33a" x="94.95" y="152"/><use xlink:href="#be16be33b" x="130.83" y="152"/></g><use xlink:href="#be16be33c" x="161.55" y="152" fill="#515151"/><use xlink:href="#be16be33d" x="188.67" y="152" fill="#fff"/><use xlink:href="#be16be33e" x="227.01" y="152" fill="#fff"/><g fill="#515151"><use xlink:href="#be16be33f" x="260.01" y="152"/><use xlink:href="#be16be33g" x="295.41" y="152"/></g><g fill="#515151"><use xlink:href="#be16be33h" x="308.01" y="152"/><use xlink:href="#be16be33i" x="342.57" y="152"/><use xlink:href="#be16be33j" x="376.59" y="152"/></g><use xlink:href="#be16be33k" x="402.39" y="152" fill="#fff"/><use xlink:href="#be16be33l" x="439.65" y="152" fill="#fff"/><use xlink:href="#be16be33m" x="472.65" y="152" fill="#515151"/><g fill="#fff"><use xlink:href="#be16be33n" x="237.2249" y="252"/><use xlink:href="#be16be33o" x="243.8919" y="252"/><use xlink:href="#be16be33p" x="250.5589" y="252"/><use xlink:href="#be16be33q" x="257.2259" y="252"/><use xlink:href="#be16be33r" x="263.8929" y="252"/><use xlink:href="#be16be33s" x="270.5599" y="252"/><use xlink:href="#be16be33t" x="277.2269" y="252"/><use xlink:href="#be16be33u" x="283.8939" y="252"/><use xlink:href="#be16be33v" x="290.5609" y="252"/><use xlink:href="#be16be33w" x="297.2279" y="252"/><use xlink:href="#be16be33x" x="303.8949" y="252"/></g><use xlink:href="#be16be33y" x="310.5583" y="252" fill="#fff"/><g fill="#fff"><use xlink:href="#be16be33s" x="316.6667" y="252"/><use xlink:href="#be16be33t" x="323.3337" y="252"/><use xlink:href="#be16be33u" x="330.0007" y="252"/><use xlink:href="#be16be33v" x="336.6677" y="252"/><use xlink:href="#be16be33w" x="343.3347" y="252"/><use xlink:href="#be16be33x" x="350.0017" y="252"/></g><use xlink:href="#be16be33y" x="356.6667" y="252" fill="#fff"/><g fill="#fff"><use xlink:href="#be16be33z" x="150" y="266"/><use xlink:href="#be16be33o" x="156.667" y="266"/><use xlink:href="#be16be33A" x="163.334" y="266"/><use xlink:href="#be16be33q" x="170.001" y="266"/><use xlink:href="#be16be33B" x="176.668" y="266"/><use xlink:href="#be16be33C" x="183.335" y="266"/><use xlink:href="#be16be33o" x="190.002" y="266"/><use xlink:href="#be16be33r" x="196.669" y="266"/><use xlink:href="#be16be33s" x="203.336" y="266"/><use xlink:href="#be16be33D" x="210.003" y="266"/><use xlink:href="#be16be33E" x="216.67" y="266"/><use xlink:href="#be16be33q" x="223.337" y="266"/><use xlink:href="#be16be33o" x="230.004" y="266"/><use xlink:href="#be16be33C" x="236.671" y="266"/><use xlink:href="#be16be33F" x="243.338" y="266"/><use xlink:href="#be16be33A" x="250.005" y="266"/><use xlink:href="#be16be33q" x="256.672" y="266"/><use xlink:href="#be16be33G" x="263.339" y="266"/><use xlink:href="#be16be33H" x="270.006" y="266"/><use xlink:href="#be16be33o" x="276.673" y="266"/><use xlink:href="#be16be33s" x="283.34" y="266"/><use xlink:href="#be16be33I" x="290.007" y="266"/><use xlink:href="#be16be33q" x="296.674" y="266"/><use xlink:href="#be16be33J" x="303.341" y="266"/><use xlink:href="#be16be33o" x="310.008" y="266"/><use xlink:href="#be16be33q" x="316.675" y="266"/><use xlink:href="#be16be33A" x="323.342" y="266"/><use xlink:href="#be16be33K" x="330.009" y="266"/><use xlink:href="#be16be33s" x="336.676" y="266"/><use xlink:href="#be16be33A" x="343.343" y="266"/><use xlink:href="#be16be33F" x="350.01" y="266"/><use xlink:href="#be16be33L" x="356.677" y="266"/><use xlink:href="#be16be33s" x="363.344" y="266"/><use xlink:href="#be16be33I" x="370.011" y="266"/><use xlink:href="#be16be33M" x="376.678" y="266"/><use xlink:href="#be16be33J" x="383.345" y="266"/><use xlink:href="#be16be33G" x="390.012" y="266"/><use xlink:href="#be16be33K" x="396.679" y="266"/><use xlink:href="#be16be33s" x="403.346" y="266"/><use xlink:href="#be16be33N" x="410.013" y="266"/><use xlink:href="#be16be33O" x="416.68" y="266"/><use xlink:href="#be16be33O" x="423.347" y="266"/><use xlink:href="#be16be33P" x="430.014" y="266"/><use xlink:href="#be16be33P" x="436.681" y="266"/><use xlink:href="#be16be33Q" x="443.348" y="266"/></g></svg>