<?xml version='1.0' encoding='UTF-8'?>
<svg xmlns="http://www.w3.org/2000/svg" xmlns:xlink="http://www.w3.org/1999/xlink" width="400px" height="600px" viewBox="0 0 400 600" x="0px" y="0px" enable-background="new 0 0 400 600"><defs><symbol overflow="visible" id="fad64704a"><path d="M13.23-14.31v-.38l-7.51-9.9H17.4c.36 1.43.54 2.95.64 4.39.54.25 1.07.25 1.67 0 .23-2.52.4-3.6.33-6.4l-.28-.24c-2.36.07-6.36.07-9.05.07H2.84c-.4.33-.89 1.08-1 1.77l8.4 11.05L1.2-1.85c0 .65.08 1.2.4 1.8h9.68c2.67 0 6.56 0 8.92.1l.28-.28c.32-2.57.4-4.72.4-7.08-.57-.2-1.11-.28-1.68-.13-.32 1.6-.76 3.32-1.28 4.85H4.48zm0 0"/></symbol><symbol overflow="visible" id="fad64704b"><path d="M3.13-.05l.28.28c1.1 0 2.15-.15 2.87-.46A32.24 32.24 0 0111.12-10C12.64-3 13.88.56 15.53.56c1.28 0 2.92-.92 4.12-2.08.08-.76-.16-1.6-.72-2-.8.29-2.4.6-3.51.72-.97-2.48-2-5.25-2.77-9 1.8-1.92 3.8-3.36 6-4.25-.05-1.3-.44-2.3-1.4-3-5.96 2.49-9.6 9.46-11.47 16.1h-.05c-.08-5.1.12-9.82.51-15.53a4.34 4.34 0 00-3.46 0c.3 5.56.35 12 .35 18.43zm0 0"/></symbol><symbol overflow="visible" id="fad64704c"><path d="M14.56-28.05v-.39c-.64-1.08-1.56-1.68-3.12-1.72l-3.16 8.11c.44.61 1 .9 1.64.9zM9.87-19.2c-5.59 0-8.15 4.36-8.15 9.56C1.72-4.6 4.88.56 10.28.56c5.49 0 8.16-4.2 8.16-9.56 0-4.8-3.2-10.2-8.57-10.2zM9.53-1.72c-.88 0-2.32-.36-2.83-.84a8.89 8.89 0 01-2.25-6.2c0-3.72 1.6-8.16 6.2-8.16.88 0 2.31.36 2.84.87a8.92 8.92 0 012.24 6.18c0 3.74-1.6 8.15-6.2 8.15zm0 0"/></symbol><symbol overflow="visible" id="fad64704d"><path d="M1.64-29.77a3.5 3.5 0 00.77 2.7c.51-.05 1.23-.13 1.82-.13 3.13 0 4.46 1.48 5.54 5.56l.51 2a580.39 580.39 0 01-9.23 18.6A3.84 3.84 0 003.88.4C6.36-5.52 8.22-9.7 11.3-15.77l3.2 12c.72 2.72 1.93 4.33 3 4.33 1.26 0 2.85-.87 3.93-2.08.08-.76-.16-1.6-.72-2-.88.32-2.31.65-3.36.72-2.05-5.4-4.67-14.8-6.4-21.76-1-4.08-3.55-5.85-5.91-5.85-1.13 0-2.36.29-3.4.64zm0 0"/></symbol><symbol overflow="visible" id="fad64704e"><path d="M7.84.56c2.24 0 4.75-2 7.2-6.97h.04C14.64-1 16.2.56 17.48.56c1.29 0 2.64-.72 4.04-2.08a2.01 2.01 0 00-.68-2c-.8.29-2.4.6-3.53.72-.23-1.12-.39-2.56-.39-4.33 0-2.46.64-5.64 2.24-10.8a5.07 5.07 0 00-2.8-.87l-.28.28-.52 4.32h-.04C14.23-17.05 12-19.16 9-19.16c-4.77 0-7.28 4.29-7.28 10.44C1.72-4.4 3.44.56 7.84.56zM4.52-3.88A11.6 11.6 0 014-7.2c0-5.28 2.2-9.28 5.69-9.28 2.1 0 4.1 1.84 5.47 4.76-1.47 5.8-5.85 9.67-8.24 9.67-1.28 0-2.08-.95-2.4-1.83zm0 0"/></symbol><symbol overflow="visible" id="fad64704f"><path d="M6.92 9.52a55.8 55.8 0 01-2-11.6h.03A7.42 7.42 0 0010.48.44c4.93 0 7.96-4 7.96-8.8 0-6.2-3.2-10.84-8.92-10.84-4.44 0-7.11 4.64-7.11 11.6 0 4.2.36 11.72 1.3 18 1.06 0 2.34-.32 3.21-.88zM4.77-6c0-6.77 2.1-10.56 5.8-10.56 2.07 0 3.79 1.33 4.43 2.12.36.44 1.13 2.67 1.13 4.88 0 4.8-3.2 7.36-6.7 7.36-1.5 0-3.38-.75-4.63-1.88-.03-.64-.03-1.28-.03-1.92zm0 0"/></symbol><symbol overflow="visible" id="fad64704g"><path d="M3.42.14c1.61 0 2.56-.75 2.56-2 0-1.1-.67-1.6-1.95-1.86l-.97-.2c-.87-.17-1.23-.49-1.23-1.11 0-.7.54-1.11 1.5-1.11 1.06 0 1.51.34 1.69 1.23l.9-.09c-.17-1.28-.98-1.9-2.6-1.9C1.79-6.9.9-6.18.9-4.98c0 1.06.66 1.66 1.88 1.9l1.01.2c.85.17 1.25.4 1.25 1.09 0 .73-.6 1.16-1.6 1.16-1.07 0-1.66-.4-1.8-1.24l-.94.1C.83-.53 1.75.13 3.42.13zm0 0"/></symbol><symbol overflow="visible" id="fad64704h"><path d="M5.77-5.02H4.63L2.3-2.88h-.06v-4.26h-.94V0h.94v-2.31h.06L4.71 0h1.24L3.23-2.69zm0 0"/></symbol><symbol overflow="visible" id="fad64704i"><path d="M3.33.14c1.62 0 2.5-.95 2.5-2.66 0-1.68-.88-2.64-2.5-2.64-1.63 0-2.5.96-2.5 2.64 0 1.7.87 2.66 2.5 2.66zm0-.77c-1.06 0-1.52-.6-1.52-1.89 0-1.28.46-1.87 1.52-1.87 1.08 0 1.53.6 1.53 1.87 0 1.29-.45 1.9-1.53 1.9zm0 0"/></symbol><symbol overflow="visible" id="fad64704j"><path d="M3.92-7.14H1.36v.76h1.6v5.61H1.15V0H5.7v-.77H3.92zm0 0"/></symbol><symbol overflow="visible" id="fad64704k"><path d="M2.83.14c.94 0 1.5-.39 1.81-.95h.08l.1.81h.76v-3.38c0-1.23-.69-1.8-2.13-1.8-1.43 0-2.03.65-2.18 1.6l.93.1c.11-.6.44-.93 1.22-.93.85 0 1.22.32 1.22 1.04v.34l-1.81.2C1.6-2.7 1.1-2.17 1.1-1.28c0 .92.64 1.42 1.72 1.42zm.25-.77c-.67 0-1.02-.28-1.02-.74 0-.44.28-.72 1-.82l1.58-.19v.41c0 .8-.6 1.34-1.56 1.34zm0 0"/></symbol><symbol overflow="visible" id="fad64704l"><path d="M5.08-5.16c-.94 0-1.58.43-1.9 1.3h-.09l-.07-1.16H1.05v.77h1.1v3.48H.96V0h3.96v-.77H3.1v-1.46c0-1.36.6-2.05 1.83-2.05.4 0 .76.08 1.1.17l.15-.87c-.33-.11-.7-.18-1.11-.18zm0 0"/></symbol><symbol overflow="visible" id="fad64704n"><path d="M.92-6.77V0h.99v-2.27h1.68c1.58 0 2.38-.65 2.38-2.2v-.14c0-1.51-.8-2.16-2.34-2.16zM5-4.47c0 1.05-.42 1.45-1.58 1.45H1.91v-2.96h1.51C4.58-5.98 5-5.66 5-4.61zm0 0"/></symbol><symbol overflow="visible" id="fad64704o"><path d="M5.92-6.77H1.1V0h4.83v-.8H2.06v-2.26h3.22v-.75H2.06v-2.16h3.86zm0 0"/></symbol><symbol overflow="visible" id="fad64704p"><path d="M2.08-6.77h-.99V0h4.79v-.81h-3.8zm0 0"/></symbol><symbol overflow="visible" id="fad64704q"><path d="M3.58-5.81c.42 0 .72-.22.72-.67 0-.44-.3-.68-.72-.68-.44 0-.72.24-.72.68 0 .45.28.67.72.67zm.5.8H1.52v.76h1.6v3.48h-1.8V0h4.46v-.77h-1.7zm0 0"/></symbol><symbol overflow="visible" id="fad64704r"><path d="M3.16 2.03c1.67 0 2.4-.86 2.4-2.51v-4.54h-.81l-.13.91h-.06c-.26-.58-.8-1.05-1.73-1.05-1.42 0-2.24 1-2.24 2.52 0 1.6.75 2.56 2.2 2.56.94 0 1.5-.5 1.77-1.03h.05v.72c0 1.17-.42 1.67-1.45 1.67-.93 0-1.3-.34-1.41-.89L.8.5c.12.96.87 1.54 2.36 1.54zM3.06-.8c-.98 0-1.48-.57-1.48-1.82 0-1.13.5-1.75 1.48-1.75 1.06 0 1.58.76 1.58 1.75 0 .95-.56 1.82-1.58 1.82zm0 0"/></symbol><symbol overflow="visible" id="fad64704s"><path d="M2.16 0v-2.69c0-.98.6-1.6 1.46-1.6.74 0 1.07.4 1.07 1.2V0h.95v-3.31c0-1.17-.56-1.85-1.67-1.85-.9 0-1.44.46-1.75 1.08h-.06v-3.06H1.2V0zm0 0"/></symbol><symbol overflow="visible" id="fad64704t"><path d="M5.52-4.25v-.77H3.17v-1.56h-.81l-.14 1.56H.75v.77h1.47v2.4c0 1.3.48 1.94 1.84 1.94C4.6.1 5.14 0 5.55-.14L5.4-.91c-.32.13-.72.2-1.13.2-.8 0-1.1-.37-1.1-1.23v-2.31zm0 0"/></symbol><symbol overflow="visible" id="fad64704A"><path d="M3.83-5.97h1.73v-.8H1.1v.8h1.75v5.19H1.1V0h4.47v-.78H3.83zm0 0"/></symbol><symbol overflow="visible" id="fad64704B"><path d="M3.34.14c1.43 0 2.13-.66 2.25-1.78l-.89-.1c-.1.7-.5 1.08-1.34 1.08-1.03 0-1.52-.64-1.52-1.84 0-1.23.47-1.86 1.52-1.86.84 0 1.23.36 1.34 1.08l.9-.1c-.13-1.09-.82-1.78-2.26-1.78-1.56 0-2.46.97-2.46 2.66 0 1.66.9 2.64 2.46 2.64zm0 0"/></symbol><symbol overflow="visible" id="fad64704I"><path d="M4.06-2.77c1.25-.04 1.92-.7 1.92-1.96 0-1.36-.7-2.04-2.17-2.04H.92V0h.97v-2.73h1.08L4.95 0h1.1zM1.9-6h1.7c1.07 0 1.46.34 1.46 1.28 0 .9-.44 1.27-1.47 1.27H1.89zm0 0"/></symbol><symbol overflow="visible" id="fad64704J"><path d="M5.75-2.23v-.43c0-1.6-.9-2.51-2.42-2.51S.87-4.16.87-2.48c0 1.71.91 2.62 2.5 2.62 1.43 0 2.07-.56 2.29-1.52l-.9-.09c-.18.61-.59.9-1.35.9-.94 0-1.52-.54-1.58-1.66zm-2.4-2.2c.93 0 1.43.5 1.48 1.55H1.84c.08-1.07.6-1.56 1.5-1.56zm0 0"/></symbol><symbol overflow="visible" id="fad64704K"><path d="M2.73.14c.9 0 1.43-.45 1.74-1.08h.06l.13.94h.8v-5.02h-.94v2.7c0 .98-.57 1.62-1.46 1.62-.75 0-1.1-.4-1.1-1.22v-3.1h-.93v3.32c0 1.17.55 1.84 1.7 1.84zm0 0"/></symbol><symbol overflow="visible" id="fad64704X"><path d="M1.64 0v-3.17l-.16-2.5h.1L2.9-1.83h.82l1.35-3.84h.1l-.16 2.5V0h.95v-6.77h-1.3l-1.3 3.82h-.09L2-6.77H.69V0zm0 0"/></symbol><symbol overflow="visible" id="fad64704Y"><path d="M2.84.14C3.8.14 4.33-.26 4.6-.9h.07L4.8 0h.76v-7.14h-.95v2.95h-.08c-.28-.6-.86-.97-1.67-.97-1.48 0-2.27.99-2.27 2.64C.6-.84 1.36.14 2.84.14zm.22-.8c-.98 0-1.48-.59-1.48-1.84s.5-1.86 1.48-1.86c1.13 0 1.58.8 1.58 1.86S4.2-.66 3.06-.66zm0 0"/></symbol><symbol overflow="visible" id="fad64704Z"><path d="M1.63 0v-2.9c0-.8.15-1.4.71-1.4.41 0 .55.3.55.88V0h.95v-2.9c0-.8.18-1.4.72-1.4.4 0 .57.3.57.88V0h.95v-3.63c0-.92-.28-1.53-1.11-1.53-.63 0-.95.41-1.1.9h-.06c-.1-.52-.44-.9-1.08-.9-.6 0-.93.41-1.06.9H1.6l-.23-.76H.67V0zm0 0"/></symbol><symbol overflow="visible" id="fad64704am"><path d="M3.9.14c1.48 0 2.18-.98 2.18-2.64 0-1.67-.7-2.66-2.17-2.66-.91 0-1.49.41-1.79 1h-.06v-2.98h-.95V0h.81l.11-.9h.06c.29.63.82 1.04 1.82 1.04zm-.32-.8c-1.08 0-1.55-.8-1.55-1.84 0-1.06.47-1.86 1.55-1.86 1.1 0 1.51.61 1.51 1.86S4.64-.66 3.58-.66zm0 0"/></symbol><symbol overflow="visible" id="fad64704az"><path d="M4.66-3.45c.76-.14 1.15-.67 1.15-1.57 0-1.07-.64-1.75-2.18-1.75H.92V0h2.71C5.2 0 5.98-.64 5.98-1.77c0-1.03-.56-1.43-1.32-1.59zM3.56-6c.9 0 1.31.4 1.31 1.13 0 .71-.4 1.14-1.3 1.14h-1.7V-6zM1.87-.75v-2.27H3.6c.97 0 1.44.33 1.44 1.13 0 .8-.47 1.14-1.44 1.14zm0 0"/></symbol><symbol overflow="visible" id="fad64704u"><path d="M12.36-14.13l.08-.35L6.36-24.6h10.92c.13 1.43.16 2.95.08 4.39.52.25 1 .28 1.64.15.4-1.8.84-3.8 1.16-6.54l-.29-.25c-2.28.07-5.95.07-8.43.07H3.88A3.72 3.72 0 002.63-25l6.72 11.2L-.28-1.87c-.13.64-.08 1.23.12 1.82h8.8c2.52 0 6.05 0 8.28.1l.28-.28a49.34 49.34 0 001.36-7.08 2.7 2.7 0 00-1.68-.13 49.55 49.55 0 01-1.93 4.85H3.05zm0 0"/></symbol><symbol overflow="visible" id="fad64704v"><path d="M6.88-6.92L5.83-4.44H5.7l.72-3.28c.54-2.69 1.3-6.64 1.3-8.6 0-1.48-.27-2.8-1.76-2.8-1.54 0-3.47 1.12-4.39 2.12-.15.64.16 1.44.49 1.84 1.03-.32 2.03-.6 3.23-.68-.33 4.2-1.51 10.07-3.16 15.68l.29.29c1.07.1 3.82-.08 4-.7 1.54-6.35 4.51-11.35 8.03-13.71l.08.08a20.19 20.19 0 00-1.75 8.07c0 3.72 1.54 6.61 3.8 6.61 1.35 0 3.3-1.12 4.74-2.76-.08-.6-.39-1.16-1-1.52-.9.44-2.47.96-3.51 1a10.94 10.94 0 01-1.85-6.15c0-3.57 1.05-7.53 5.61-7.36l.28-.28c-.28-1.54-1.07-2.49-1.84-2.49-1.13 0-2.8.44-4.4 1.49-2.55 1.67-5.37 4.82-7.72 10.67zm0 0"/></symbol><symbol overflow="visible" id="fad64704w"><path d="M15.2-28.08l.08-.4a2.87 2.87 0 00-2.44-1.64c-.53 0-.89.17-1.04.53L8.28-22.2a2 2 0 001.6 1zM8 .64c5.4 0 8.31-4.6 8.31-10.2 0-5.28-1.87-9.72-6.47-9.72-5.12 0-8.43 4.2-8.43 10.2C1.4-3.8 3.44.64 8 .64zM10.44-17c1.15 0 2.08.4 2.72 1.08.4 1.23.64 2.97.64 4.4 0 5.24-2.36 9.88-6.4 9.88-1.09 0-2-.36-2.71-1.05-.4-1.39-.57-3.19-.57-4.44 0-5.18 2.32-9.87 6.32-9.87zm0 0"/></symbol><symbol overflow="visible" id="fad64704x"><path d="M.05-1.23L0-.88C.4-.3 1.28.49 1.95.49c.46 0 .82-.32 1.13-.76 2.8-3.95 5.51-9.4 7.92-15.6h.13L13.2-3.77c.44 2.7 1.32 4.25 2.28 4.25 1.32 0 2.93-1 4.4-2.64a2 2 0 00-1-1.53c-.83.4-1.88.74-3.04.9-1.36-5.7-2.8-14.16-3.96-21.52-.68-4.38-2.96-6.33-5.4-6.33-1.43 0-2.25.23-2.71.69-.65.51-.7 1.47-.7 2.43l.29.2c.33-.12 1.33-.2 1.64-.2 3.05 0 4.4 1.83 5.08 5.64l.4 2.4C7.23-12.48 3.72-6.31.05-1.23zm0 0"/></symbol><symbol overflow="visible" id="fad64704y"><path d="M13.84-5.4c.11 4.09.85 5.88 2.11 5.88 1.33 0 3.36-1.2 4.64-2.64-.1-.76-.46-1.2-1-1.53a9.49 9.49 0 01-3.39.92 46.8 46.8 0 01-.68-5.07L20.48-18v-.4c-.43-.48-1.25-.73-2.04-.73-.64 0-1.03.2-1.13.61l-2.23 6.57L15-12c-.36-4.69-2-7.28-5.44-7.28-4.72 0-8.15 6-8.15 12.16C1.4-2.6 3 .63 6.28.63c3 0 5.77-2.64 7.52-6.05zM3.77-3.13a8.76 8.76 0 01-.25-2.2c0-4.96 2.32-11.09 6.56-11.09.33 0 .64.05.92.1 1.36 1.31 2.08 3.95 2.48 7.47-2.36 4-5.43 6.76-7.68 6.76-1.03 0-1.64-.44-2.03-1.04zm0 0"/></symbol><symbol overflow="visible" id="fad64704z"><path d="M3.8 8.69c-.32-3-.52-6.81-.52-9.38v-.72h.03A6.72 6.72 0 008.12.52c4.8 0 8.36-4.11 8.36-10.64 0-5.52-2.43-9.16-6.92-9.16-5.51 0-8.2 6.44-8.69 20.28l-.3 9 .27.23c.2.05.29.05.47.05 1.38 0 2.56-.72 2.49-1.6zm6.48-25.13c1.67 0 2.88.64 3.72 1.6.23 1 .36 2.28.36 3.56 0 5.87-3.4 9.33-7.28 9.33a6.58 6.58 0 01-3.72-1.36c.44-8.74 3.05-13.13 6.92-13.13zm0 0"/></symbol><symbol overflow="visible" id="fad64704C"><path d="M13.72-14.4v-.44L6.69-24.2h10.83c.36 1.43.56 2.97.64 4.4.71.24 1.4.24 2.12 0 .31-2.56.44-3.92.36-6.72l-.33-.32c-2.47.07-6.6.07-9.39.07H2.84a3.6 3.6 0 00-1.07 2.13L9.92-13.8 1.32-2.2c0 .76.12 1.48.45 2.15h9.64c2.8 0 6.9 0 9.39.1l.32-.33c.32-2.8.44-5.24.44-7.56A3.96 3.96 0 0019.44-8c-.32 1.56-.8 3.4-1.32 4.88H5.29zm0 0"/></symbol><symbol overflow="visible" id="fad64704D"><path d="M2.92-.13l.31.33C4.48.16 5.88-.05 6.72-.4a31.4 31.4 0 014.69-9.4C12.92-3.12 14.12.56 15.69.56c1.44 0 3.23-1 4.39-2.25A2.56 2.56 0 0019.23-4a15.6 15.6 0 01-3.43.64 44.52 44.52 0 01-2.64-8.44 17.72 17.72 0 015.92-4c-.08-1.56-.6-2.68-1.72-3.4-5.84 2.25-9.13 8.84-11.2 15.76h-.08c0-5.08.08-9.6.64-15.2a6.25 6.25 0 00-4.16 0c.31 5.72.36 11.69.36 18.52zm0 0"/></symbol><symbol overflow="visible" id="fad64704E"><path d="M15.2-28.36v-.48a4.13 4.13 0 00-3.72-1.88l-3.2 8.31c.6.72 1.13 1.05 2 1.1zm-5.15 9c-5.82 0-8.46 4.16-8.46 9.64C1.6-4.87 4.88.56 10.5.56c5.67 0 8.43-4.04 8.43-9.64 0-4.84-3.28-10.28-8.87-10.28zM9.77-2.13c-.85 0-2.29-.28-2.77-.75a8.62 8.62 0 01-2-5.71c0-3.41 1.48-8.1 5.77-8.1.82 0 2.28.28 2.75.77 1.12 1.2 2 3.33 2 5.72 0 3.4-1.47 8.07-5.75 8.07zm0 0"/></symbol><symbol overflow="visible" id="fad64704F"><path d="M1.44-29.72a4.7 4.7 0 00.87 3.24 12.7 12.7 0 011.85-.16c3.15 0 4.6 1.64 5.68 5.52l.4 1.4A500.79 500.79 0 01.83-1.36 4.66 4.66 0 004.24.41c2.53-5.85 4.32-10 7.28-15.54l3.17 11.36c.75 2.72 2.1 4.33 3.03 4.33 1.4 0 3.08-1 4.2-2.25A2.56 2.56 0 0021.08-4c-1 .31-2.08.56-3.24.64a245.78 245.78 0 01-6.6-21.16C10.3-28 7.94-30.4 5.27-30.4c-1.44 0-2.64.25-3.84.7zm0 0"/></symbol><symbol overflow="visible" id="fad64704G"><path d="M7.92.56c2.67 0 5.24-2.08 7.64-6.8h.03c-.43 4.88 1.05 6.8 2.29 6.8 1.43 0 3.25-1 4.4-2.25A2.56 2.56 0 0021.44-4c-1.08.31-2.2.56-3.44.64-.23-1.08-.4-2.28-.4-3.77 0-2.51.52-5.71 2.27-10.87a6.01 6.01 0 00-3.43-1.05l-.32.33-.48 4.31h-.08c-1.33-2.82-3.44-4.95-6.51-4.95-4.82 0-7.46 4.36-7.46 10.48C1.6-4.3 3.44.56 7.92.56zM4.7-4.24c-.25-.6-.4-2.04-.4-3.17 0-4.67 2-8.54 5.5-8.54 2.05 0 3.98 1.51 5.37 4.18C13.59-6.16 9.52-2.59 7-2.59c-1.05 0-2-.77-2.31-1.64zm0 0"/></symbol><symbol overflow="visible" id="fad64704H"><path d="M7.31 9.31c-.9-2.87-1.9-6.95-2.26-11.6h.08A7.5 7.5 0 0010.71.45c4.8 0 8-3.75 8-8.72 0-6.56-3.36-11.08-9.16-11.08C5-19.36 2.2-14.88 2.2-7.72c0 4.24.36 11.8 1.28 18.13 1.29-.1 2.68-.41 3.83-1.1zM4.88-5.92c0-6.44 2.12-10.03 5.76-10.03 2.16 0 4 1.1 4.56 1.95.36.6.85 2.4.85 4.08 0 4.76-3.18 6.97-6.74 6.97-1.31 0-3.08-.61-4.39-1.57-.04-.48-.04-.92-.04-1.4zm0 0"/></symbol><symbol overflow="visible" id="fad64704L"><path d="M12.56-14.08l.08-.44-5.36-9.68h9.92c.11 1.43.16 2.97.08 4.4.67.24 1.31.28 2.08.11.52-2 .92-4.03 1.23-6.83l-.3-.32c-2.37.07-6.16.07-8.77.07h-7.4a3.94 3.94 0 00-1.35 2.13L8.84-13.6l-9 11.39c-.12.76-.07 1.48.11 2.15h8.46c2.64 0 6.51 0 8.82.1l.33-.33a61.42 61.42 0 001.4-7.56A3.76 3.76 0 0016.86-8a51.13 51.13 0 01-1.95 4.88H3.84zm0 0"/></symbol><symbol overflow="visible" id="fad64704M"><path d="M7.64-7.48l-1 2.71-.16-.03.64-3.2c.32-1.6 1.36-6.16 1.36-8.36 0-1.56-.64-2.92-2.12-2.92-1.6 0-3.2.92-4.67 2.33-.17.64.03 1.54.51 2.18.88-.28 2.11-.54 3.28-.64-.64 5.49-1.71 9.72-3.2 15.2l.31.33C4 .29 7.05 0 7.3-.77c1.87-5.82 3.55-9.75 7.2-12.8l.07.09a17.87 17.87 0 00-1.6 7.92c0 3.2 1.4 6.04 3.52 6.04 1.72 0 3.8-1.25 5.32-2.92a2.61 2.61 0 00-1.2-1.92c-.96.49-2.32.88-3.37.95a10.55 10.55 0 01-1.67-5.8c0-3.71 1.4-6.79 5.49-6.91l.3-.32c-.3-1.84-1.27-2.84-2.12-2.84-.71 0-1.71.23-2.46.51-4.05 1.54-7.13 6-9.13 11.29zm0 0"/></symbol><symbol overflow="visible" id="fad64704N"><path d="M15.88-28.36l.07-.48c-.39-1.04-1.75-1.85-2.82-1.85-.57 0-1.05.2-1.29.69l-3.48 7.4c.4.76 1.12 1.24 1.95 1.29zm-7.6 29c5.49 0 8.64-4.64 8.64-10.28 0-5.31-2.05-9.8-6.8-9.8-5.04 0-8.76 4.24-8.76 10.28 0 5.32 2.16 9.8 6.92 9.8zm2.36-17.4c1.05 0 1.92.24 2.67.92.38 1.36.4 2.96.4 4.25 0 4.71-2.4 9.54-5.94 9.54a3.63 3.63 0 01-2.61-.9c-.36-1.36-.4-2.97-.4-4.25 0-4.6 2.37-9.57 5.88-9.57zm0 0"/></symbol><symbol overflow="visible" id="fad64704O"><path d="M.05-1.72l-.05.4c.48.8 1.48 1.8 2.31 1.8.49 0 .97-.32 1.2-.64 3.13-4.32 5.37-8.8 7.77-14.96h.08l2 11.35c.48 2.7 1.23 4.25 2.28 4.25C17.2.48 19-.8 20.48-2.44a2.74 2.74 0 00-1.2-1.92c-.92.44-1.92.8-2.97.95C15-9 13.6-17 12.36-24.77c-.56-3.46-2.84-5.87-5.56-5.87-1.49 0-2.4.28-2.96.8-.71.68-.8 1.8-.8 2.96l.32.24a8.54 8.54 0 012-.23c2.95 0 4.28 1.82 4.92 5.51l.31 1.8A104.15 104.15 0 01.05-1.72zm0 0"/></symbol><symbol overflow="visible" id="fad64704P"><path d="M13.8-4.77c.12 3.36.84 5.25 2.07 5.25 1.54 0 3.36-1.28 4.85-2.92a2.68 2.68 0 00-1.2-1.92c-1.11.52-2.08.84-3.36.95-.2-1.1-.36-2.51-.52-4.07l5.16-10.44v-.49a3.42 3.42 0 00-2.36-.87c-.72 0-1.2.2-1.32.64l-2 6.2h-.07c-.53-4.33-2.13-7-5.36-7-4.4 0-8.33 5.49-8.33 12.2C1.36-2.55 3.16.65 6.4.65c3.07 0 5.59-2.23 7.3-5.4zM4.12-3.64a8.43 8.43 0 01-.25-2.13c0-4.82 2.25-10.07 6.2-10.07.45 0 .77 0 1.09.07 1.15 1.29 1.84 3.72 2.15 7-2.1 3.49-4.95 6-7.26 6-.92 0-1.57-.35-1.92-.87zm0 0"/></symbol><symbol overflow="visible" id="fad64704Q"><path d="M4.16 8.4c-.32-3-.6-6.6-.6-9.88v-.04h.08a6.5 6.5 0 005 2.04C13.2.52 17-3.56 17-10.2c0-5.36-2.56-9.24-7.16-9.24-5.48 0-8.53 5.96-9.15 20.8L.3 9.92l.33.31c.28.05.48.05.72.05 1.64 0 2.92-.8 2.8-1.87zm6.25-24.27c1.82 0 2.87.46 3.8 1.46.23.93.3 2.1.3 3.29 0 5.24-3.46 8.43-7.03 8.43a6.67 6.67 0 01-3.84-1.19c.4-7.89 2.92-12 6.77-12zm0 0"/></symbol><symbol overflow="visible" id="fad64704R"><path d="M13.88-14.52V-15L7.2-23.84h10.16c.33 1.43.52 2.96.64 4.4.84.24 1.64.24 2.52 0 .36-2.6.48-4.2.4-7.04l-.36-.36c-2.6.07-6.84.07-9.76.07h-8a4.45 4.45 0 00-1.28 2.7L9.36-13.7 1.16-2.52c0 .88.12 1.72.48 2.47h9.56c2.93 0 7.2 0 9.75.1l.4-.36c.34-3 .45-5.57.45-7.85a4.95 4.95 0 00-2.52-.2c-.33 1.56-.8 3.44-1.33 4.88H5.7zm0 0"/></symbol><symbol overflow="visible" id="fad64704S"><path d="M2.77-.16l.39.36c1.36-.04 2.8-.28 3.76-.72a28.25 28.25 0 014.6-9.07C12.92-3.36 14.23.56 15.8.56c1.6 0 3.48-1.08 4.68-2.4a3.12 3.12 0 00-1-2.6c-1.04.32-2.17.52-3.36.64a40.28 40.28 0 01-2.6-7.97 18.96 18.96 0 015.96-3.75c-.12-1.8-.76-3.07-2-3.84C11.72-17.4 8.31-10.92 6.2-3.8h-.12c.08-5.08.23-9.48.97-14.97a6.68 6.68 0 00-2.36-.39c-.82 0-1.61.11-2.33.4.36 5.76.4 11.71.4 18.6zm0 0"/></symbol><symbol overflow="visible" id="fad64704T"><path d="M15.69-28.64v-.56a4.7 4.7 0 00-4.1-2l-3.28 8.56a2.75 2.75 0 002.17 1.16zm-5.49 9.12c-6 0-8.72 4.2-8.72 9.72C1.48-4.92 4.88.56 10.64.56c5.88 0 8.72-4.08 8.72-9.72 0-4.89-3.36-10.36-9.16-10.36zM9.95-2.44c-.75 0-2.1-.25-2.54-.72C6.36-4.3 5.56-6.4 5.56-8.72c0-3.28 1.4-7.8 5.32-7.8.8 0 2.12.29 2.56.72 1.04 1.16 1.84 3.24 1.84 5.57 0 3.28-1.36 7.8-5.33 7.8zm0 0"/></symbol><symbol overflow="visible" id="fad64704U"><path d="M1.28-29.69c-.16 1.28.2 2.74.95 3.82.54-.08 1.18-.18 1.93-.18 3.2 0 4.68 1.7 5.76 5.36l.28 1A378.87 378.87 0 01.72-1.77 5.52 5.52 0 004.64.41c2.44-5.64 4.28-9.7 7.08-14.9l3.12 10.72C15.6-1.05 16.92.56 17.95.56c1.57 0 3.25-1.08 4.46-2.36a3.28 3.28 0 00-1-2.6c-1 .28-2 .53-3.18.6-2.07-5.51-4.46-13-6.59-20.68-.95-3.47-3.36-5.93-6.12-5.93-1.6 0-2.96.25-4.24.72zm0 0"/></symbol><symbol overflow="visible" id="fad64704V"><path d="M8.16.56c2.89 0 5.53-2.15 7.8-6.72l.04.04c-.36 4.84 1 6.68 2.31 6.68 1.46 0 3.4-1.04 4.61-2.4a3.36 3.36 0 00-1-2.6 18.3 18.3 0 01-3.36.64 16.2 16.2 0 01-.4-3.72c0-2.4.56-5.56 2.32-10.56a6.6 6.6 0 00-3.96-1.15l-.36.36-.47 4.23h-.1c-1.3-2.84-3.43-4.92-6.51-4.92-4.85 0-7.6 4.43-7.6 10.51C1.48-4.15 3.6.56 8.16.56zM4.92-4.52c-.23-.6-.4-1.92-.4-3 0-4.32 1.92-7.96 5.32-7.96 2 0 3.93 1.36 5.32 3.76-1.64 5.31-5.47 8.6-8 8.6-1 0-1.93-.65-2.24-1.4zm0 0"/></symbol><symbol overflow="visible" id="fad64704W"><path d="M7.69 9.16c-1.05-3-2.1-6.85-2.49-11.32h.11a7.5 7.5 0 005.64 2.6c4.7 0 8-3.67 8-8.8 0-6.64-3.54-11.2-9.36-11.2-4.64 0-7.54 4.4-7.54 11.72 0 4.28.36 11.89 1.18 18.25 1.57 0 3.18-.46 4.46-1.25zm-2.64-15c0-6.16 2.08-9.64 5.67-9.64 2.08 0 3.87 1 4.4 1.76.36.56.83 2.2.83 3.8 0 4.4-3.1 6.44-6.6 6.44-1.35 0-3-.52-4.3-1.36v-1zm0 0"/></symbol><symbol overflow="visible" id="fad64704aa"><path d="M12.8-13.92l.07-.56-5.18-9.36h9.47c.07 1.43.12 2.96.04 4.4.8.24 1.6.28 2.49.08.62-2.2 1-4.28 1.31-7.12l-.36-.36c-2.44.07-6.33.07-9.05.07H4.31c-.8.7-1.39 1.64-1.62 2.77l5.87 10.6-8.6 10.8C-.2-1.71-.17-.8.07-.04H8.4c2.71 0 6.75 0 9.15.1l.36-.36a59.89 59.89 0 001.44-7.85c-.8-.28-1.6-.36-2.44-.2a44.73 44.73 0 01-1.97 4.88H4.48zm0 0"/></symbol><symbol overflow="visible" id="fad64704ab"><path d="M7.92-7.69l-.97 2.64-.18-.03.64-3c.43-2 1.36-6.12 1.36-8.33 0-1.64-.7-3.03-2.18-3.03-1.8 0-3.46 1-5 2.44-.1.84.18 1.84.64 2.52.9-.29 2.13-.57 3.2-.64C4.73-9.78 3.65-5.56 2.17-.23l.36.35C4.2.33 7.36-.05 7.64-.95c1.72-5.57 3.44-9.4 6.95-12.36l.1.1A16.72 16.72 0 0013.2-5.8c0 3.24 1.4 6.28 3.6 6.28 1.84 0 4.04-1.4 5.48-3.17a3 3 0 00-1.36-2.19c-1 .52-2.28.88-3.33 1-.9-1.56-1.46-3.4-1.46-5.43 0-3.53 1.3-6.46 5.28-6.64l.36-.4c-.29-2.09-1.2-3.09-2.2-3.09-.85 0-1.85.24-2.62.52-4.23 1.56-7.03 5.97-9.03 11.23zm0 0"/></symbol><symbol overflow="visible" id="fad64704ac"><path d="M16.48-28.69l.08-.51c-.51-1.11-2-2-3.15-2-.61 0-1.13.2-1.36.72l-3.53 7.71c.4.85 1.2 1.33 2.07 1.36zM8.52.64c5.48 0 8.96-4.69 8.96-10.36 0-5.36-2.17-9.87-7.07-9.87-5 0-9.1 4.28-9.1 10.36C1.31-3.87 3.6.64 8.51.64zm2.25-17.23c.95 0 1.71.18 2.39.71.32 1.36.4 2.88.4 4.2 0 4.73-2.33 9.32-5.44 9.32-.92 0-1.68-.2-2.35-.72a18.2 18.2 0 01-.36-4.2c0-4.56 2.28-9.31 5.36-9.31zm0 0"/></symbol><symbol overflow="visible" id="fad64704ad"><path d="M.05-2.13L0-1.69C.56-.72 1.72.48 2.72.48c.51 0 1-.28 1.33-.68 3.03-4.16 5.3-8.85 7.51-14.49h.08L13.6-3.77c.49 2.7 1.25 4.25 2.33 4.25 1.77 0 3.77-1.4 5.24-3.17a3.18 3.18 0 00-1.4-2.19c-.96.47-1.96.83-2.92 1a352 352 0 01-3.89-20.84c-.54-3.48-2.75-5.92-5.8-5.92-1.5 0-2.56.33-3.15.92-.8.8-.92 2.08-.92 3.4l.36.27c.6-.18 1.6-.26 2.33-.26 2.87 0 4.15 1.83 4.8 5.39l.23 1.44C7.36-12.48 4.4-7.8.05-2.12zm0 0"/></symbol><symbol overflow="visible" id="fad64704ae"><path d="M14.08-4.72c.28 3.28 1.04 5.2 2.33 5.2 1.51 0 3.46-1.35 5-3.17A3.3 3.3 0 0020-4.88a9.6 9.6 0 01-3.31 1A46.58 46.58 0 0116-7.83l5.13-10.04v-.56c-.61-.64-1.7-1-2.65-1-.8 0-1.32.24-1.43.67l-1.85 5.7h-.12c-.6-4-2.08-6.52-5.24-6.52-4.48 0-8.53 5.46-8.53 12.28C1.31-2.51 3.23.64 6.6.64c2.97 0 5.64-2.16 7.41-5.36zm-9.64.6a8.33 8.33 0 01-.24-2.04c0-4.6 2.32-9.15 6.16-9.28.36 0 .69 0 1 .03 1.08 1.25 1.72 3.41 2.05 6.2-2.1 3.5-4.93 5.85-7.18 5.85-.82 0-1.46-.33-1.8-.77zm0 0"/></symbol><symbol overflow="visible" id="fad64704af"><path d="M4.56 8.16a84.44 84.44 0 01-.64-9.75l.13-.05A6.73 6.73 0 009.2.52c4.4 0 8.32-3.93 8.32-10.68 0-5.48-2.64-9.43-7.36-9.43-5.44 0-8.8 5.54-9.6 21.3l-.4 8.16.36.36c.35.05.64.05.96.05 1.88 0 3.24-.84 3.08-2.12zm6.13-23.6c1.75 0 2.8.44 3.72 1.4.23.84.3 1.96.3 3.04 0 4.69-3.4 7.69-6.84 7.69a7.74 7.74 0 01-3.87-1c.48-7.17 2.95-11.13 6.69-11.13zm0 0"/></symbol><symbol overflow="visible" id="fad64704ag"><path d="M14.05-14.64v-.6l-6.25-8.2h9.36c.32 1.44.53 2.96.6 4.4 1.04.24 2 .24 3 0 .44-2.65.52-4.52.44-7.37l-.4-.43c-2.68.07-7.08.07-10.11.07H2.77c-.9.9-1.36 1.97-1.54 3.36l7.49 9.85L.92-2.87c0 1 .2 1.95.56 2.82H11c3.05 0 7.48 0 10.2.1l.4-.4c.32-3.24.48-5.93.48-8.21a6.38 6.38 0 00-2.95-.24c-.33 1.57-.9 3.49-1.41 4.93H6.16zm0 0"/></symbol><symbol overflow="visible" id="fad64704ah"><path d="M2.6-.2l.45.4c1.51-.08 3.03-.36 4.1-.89a24.2 24.2 0 014.54-8.67C12.95-3.64 14.4.56 15.95.56c1.82 0 3.77-1.2 5-2.56a3.9 3.9 0 00-1.15-2.92c-1 .23-2.11.48-3.32.56-.96-2-1.71-4.05-2.48-7.33a20.35 20.35 0 015.92-3.47c-.15-2.07-.92-3.6-2.33-4.36-5.67 1.64-9.18 7.93-11.36 15.32h-.1c.15-5.08.39-9.36 1.3-14.72a8.58 8.58 0 00-2.66-.4c-.93 0-1.82.12-2.64.4.39 5.8.46 11.76.46 18.72zm0 0"/></symbol><symbol overflow="visible" id="fad64704ai"><path d="M16.2-29v-.6a5.27 5.27 0 00-4.48-2.17l-3.36 8.82a2.9 2.9 0 002.36 1.3zm-5.84 9.31c-6.16 0-9 4.2-9 9.82C1.36-4.96 4.84.55 10.88.55c6.04 0 9-4.12 9-9.8 0-4.92-3.47-10.45-9.52-10.45zM10.2-2.84c-.72 0-1.92-.2-2.28-.68-.97-1.12-1.69-3.07-1.69-5.32 0-3.11 1.25-7.44 4.82-7.44.72 0 1.9.2 2.26.64.97 1.12 1.69 3.12 1.69 5.36 0 3.12-1.23 7.44-4.8 7.44zm0 0"/></symbol><symbol overflow="visible" id="fad64704aj"><path d="M1.05-29.64a7.32 7.32 0 001.1 4.44c.54-.08 1.13-.16 2.05-.16 3.2 0 4.75 1.72 5.85 5.23l.15.49C7.05-13.41 3.23-6.92.56-2.28A6.23 6.23 0 005.12.36c2.4-5.31 4.24-9.28 6.83-14.08L15-3.77c.84 2.72 2.08 4.33 3.23 4.33 1.72 0 3.49-1.15 4.7-2.51 0-1.2-.37-2.28-1.13-2.92-1 .23-1.93.43-3.08.51-2.08-5.4-4.4-12.48-6.6-20.08-1-3.48-3.48-5.97-6.35-5.97-1.77 0-3.29.25-4.72.77zm0 0"/></symbol><symbol overflow="visible" id="fad64704ak"><path d="M8.4.56c3.2 0 5.91-2.25 8-6.56l.12.05C16.2-1.2 17.44.56 18.8.56 20.3.56 22.4-.56 23.69-2a4.06 4.06 0 00-1.2-2.92c-1 .23-2.13.48-3.29.56-.2-1-.36-2.2-.36-3.64 0-2.28.57-5.36 2.36-10.16a7.53 7.53 0 00-4.6-1.32l-.4.4-.43 4.2h-.13c-1.36-2.84-3.4-4.89-6.52-4.89-4.92 0-7.76 4.49-7.76 10.57C1.36-3.92 3.76.56 8.4.56zM5.2-4.88a7.52 7.52 0 01-.43-2.8c0-3.88 1.92-7.27 5.1-7.27 2 0 3.85 1.18 5.2 3.26-1.66 5-5.2 7.92-7.76 7.92-.9 0-1.8-.46-2.1-1.1zm0 0"/></symbol><symbol overflow="visible" id="fad64704al"><path d="M8.13 8.95a40.37 40.37 0 01-2.7-11h.13A7.4 7.4 0 0011.2.44c4.6 0 8.08-3.6 8.08-8.92 0-6.68-3.84-11.29-9.69-11.29-4.71 0-7.75 4.25-7.75 11.77 0 4.31.36 12 1.16 18.4a8.67 8.67 0 005.13-1.45zM5.22-5.77c0-5.82 2-9.18 5.61-9.18 2 0 3.68.87 4.2 1.6.37.5.84 1.94.84 3.4 0 4.03-3.08 5.82-6.47 5.82-1.41 0-2.9-.39-4.18-1.07v-.57zm0 0"/></symbol><symbol overflow="visible" id="fad64704an"><path d="M13.08-13.77l.08-.67-5.04-9h8.96c.08 1.44.08 2.96.05 4.4.95.24 1.92.27 2.95.04a39.4 39.4 0 001.36-7.44l-.36-.4c-2.56.07-6.56.07-9.36.07H4.56c-1 .9-1.72 2.13-1.97 3.54L8.16-13.2.08-3.08c-.16 1-.13 2.16.12 3.03h8.24c2.8 0 7 0 9.51.1l.4-.4c.77-3.24 1.21-5.93 1.52-8.21a6.12 6.12 0 00-2.92-.24A45.44 45.44 0 0115-3.87H5.2zm0 0"/></symbol><symbol overflow="visible" id="fad64704ao"><path d="M8.23-7.88L7.31-5.4l-.18-.03.59-2.72c.56-2.48 1.36-6.12 1.36-8.32 0-1.72-.72-3.11-2.2-3.11-2 0-3.8 1.07-5.36 2.54a4.76 4.76 0 00.8 2.9c.84-.26 2.09-.54 3.04-.62C4.56-9.59 3.48-5.4 2-.28l.4.44c2.04.15 5.32-.2 5.65-1.32C9.59-6.44 11.3-10.2 14.77-13l.07.08a15.68 15.68 0 00-1.4 6.84c0 3.28 1.4 6.56 3.72 6.56 1.96 0 4.36-1.6 5.71-3.43-.18-1.13-.75-2-1.59-2.53-1 .53-2.23.89-3.28 1.04-.8-1.48-1.23-3.2-1.23-5.04 0-3.29 1.23-5.96 5.07-6.32l.44-.43c-.23-2.41-1.2-3.36-2.36-3.36-1 0-1.97.23-2.72.51-4.48 1.6-6.97 5.88-8.97 11.2zm0 0"/></symbol><symbol overflow="visible" id="fad64704ap"><path d="M17.16-29.05l.12-.6a4.5 4.5 0 00-3.6-2.15c-.63 0-1.16.2-1.4.75l-3.56 8.1c.36.9 1.28 1.43 2.23 1.47zM8.84.65c5.44 0 9.32-4.73 9.32-10.45 0-5.43-2.29-9.97-7.47-9.97-4.92 0-9.4 4.29-9.4 10.46 0 5.39 2.4 9.95 7.55 9.95zm2.08-17c.8 0 1.49.12 2.08.48.28 1.28.31 2.71.31 4.1 0 4.7-2.15 9-4.8 9-.8 0-1.43-.1-2-.46a17.97 17.97 0 01-.35-4.18c0-4.51 2.2-8.95 4.76-8.95zm0 0"/></symbol><symbol overflow="visible" id="fad64704aq"><path d="M.05-2.64L0-2.12C.64-.93 2 .48 3.2.48c.52 0 1.08-.28 1.44-.76 2.95-3.95 5.28-8.85 7.2-13.85h.11l1.9 10.36c.5 2.72 1.23 4.25 2.43 4.25 2 0 4.2-1.56 5.67-3.43-.18-1.1-.8-2-1.64-2.53-1 .53-2 .89-2.87 1.04a369 369 0 01-3.8-20.25c-.56-3.47-2.69-5.95-6.05-5.95-1.59 0-2.75.36-3.43 1.08-.88.92-1.04 2.4-1.04 3.92l.4.28c.76-.2 1.76-.28 2.68-.28 2.8 0 4.03 1.84 4.64 5.28l.2.95a86.85 86.85 0 01-11 16.77zm0 0"/></symbol><symbol overflow="visible" id="fad64704ar"><path d="M14.44-4.69c.4 3.2 1.28 5.17 2.6 5.17 1.52 0 3.55-1.43 5.12-3.43-.16-1-.75-2.05-1.6-2.53-1 .48-2.12.89-3.28 1.04-.28-1.08-.6-2.4-.84-3.8l5.08-9.6v-.6a4.16 4.16 0 00-3-1.15c-.83 0-1.47.23-1.6.71l-1.64 5.04h-.12c-.68-3.6-2.04-5.93-5.08-5.93-4.6 0-8.8 5.49-8.8 12.33C1.28-2.52 3.36.64 6.8.64c2.84 0 5.8-2.05 7.51-5.33zm-9.64.05a8.34 8.34 0 01-.24-1.95c0-4.33 2.44-8.1 6.08-8.36h.92c.96 1.18 1.56 3.03 1.92 5.18-2.04 3.54-4.84 5.7-7 5.7-.8 0-1.36-.24-1.68-.57zm0 0"/></symbol><symbol overflow="visible" id="fad64704as"><path d="M5.05 7.88a81.5 81.5 0 01-.7-9.6l.13-.05A7.11 7.11 0 009.84.52c4.29 0 8.32-3.72 8.32-10.6 0-5.69-2.8-9.69-7.64-9.69-5.36 0-9.11 5.08-10.11 21.9L0 9.8l.36.4c.48.08.87.11 1.28.11 2.16 0 3.6-.95 3.4-2.44zm6-22.75c1.64 0 2.67.35 3.6 1.23.22.8.3 1.8.3 2.8 0 4.04-3.36 6.8-6.6 6.8a8.43 8.43 0 01-3.87-.83c.57-6.33 2.96-10 6.57-10zm0 0"/></symbol><symbol overflow="visible" id="fad64704at"><path d="M14.23-14.8v-.68l-5.67-7.44h8.36c.28 1.44.49 2.97.6 4.4 1.2.24 2.4.24 3.56 0 .51-2.68.6-4.92.51-7.8l-.46-.52c-2.85.07-7.41.07-10.61.07H2.69a6.3 6.3 0 00-1.77 4.18l7 9.18L.7-3.36c0 1.16.19 2.31.6 3.31h9.43c3.2 0 7.87 0 10.72.1l.48-.49c.31-3.51.49-6.33.49-8.6a7.78 7.78 0 00-3.49-.27 40.54 40.54 0 01-1.44 4.9H6.72zm0 0"/></symbol><symbol overflow="visible" id="fad64704au"><path d="M2.4-.28l.48.48C4.58.12 6.22-.23 7.47-.84c1-3.44 2.47-6.11 4.4-8.29C13-3.95 14.59.57 16.16.57c2 0 4.07-1.37 5.4-2.8a5.4 5.4 0 00-1.4-3.33c-.93.25-2.08.43-3.2.56-.96-1.8-1.6-3.56-2.37-6.56a21.77 21.77 0 015.9-3.16c-.26-2.44-1.13-4.2-2.72-5.05-5.57 1.29-9.2 7.36-11.49 15.08l-.16-.03c.29-5.05.65-9.2 1.8-14.4-1.04-.29-2.04-.4-3.08-.4s-2.04.11-3 .4c.44 5.84.57 11.84.57 18.84zm0 0"/></symbol><symbol overflow="visible" id="fad64704av"><path d="M16.88-29.4v-.68c-1-1.48-2.88-2.36-5-2.36L8.44-23.3c.44.83 1.48 1.39 2.6 1.47zm-6.29 9.48c-6.43 0-9.39 4.28-9.39 9.92C1.2-5.05 4.84.56 11.13.56c6.3 0 9.39-4.15 9.39-9.92 0-4.95-3.64-10.56-9.93-10.56zm-.07 16.6c-.64 0-1.68-.16-2-.6C7.69-5 7.08-6.88 7.08-9c0-2.95 1.08-7.05 4.12-7.05.64 0 1.68.18 2 .61.85 1.08 1.44 2.96 1.44 5.08 0 2.95-1.08 7.05-4.12 7.05zm0 0"/></symbol><symbol overflow="visible" id="fad64704aw"><path d="M.8-29.6a8.72 8.72 0 001.28 5.29c.48-.13 1.08-.2 2.12-.2 3.2 0 4.88 1.74 5.92 4.95C7-13.56 3.05-7.41.41-2.88A7.44 7.44 0 005.7.37c2.29-5 4.13-8.84 6.57-13.2l2.92 9.07c.88 2.72 2.08 4.33 3.4 4.33 1.92 0 3.71-1.28 5-2.72-.08-1.32-.44-2.56-1.32-3.32-1 .2-1.84.4-3 .48a299.3 299.3 0 01-6.56-19.4c-1.08-3.48-3.6-6-6.64-6-2 0-3.72.24-5.28.8zm0 0"/></symbol><symbol overflow="visible" id="fad64704ax"><path d="M8.72.56c3.51 0 6.33-2.33 8.28-6.4l.13.04c-.2 4.67.87 6.36 2.3 6.36 1.52 0 3.85-1.2 5.16-2.76a5.44 5.44 0 00-1.39-3.36c-.97.25-2.12.43-3.2.56-.2-1-.31-2.2-.31-3.56 0-2.13.6-5.13 2.39-9.72-1.44-1.03-3.08-1.52-5.36-1.52l-.49.49-.39 4.1h-.15c-1.38-2.84-3.38-4.84-6.49-4.84-5 0-8 4.61-8 10.61 0 5.75 2.8 10 7.52 10zM5.56-5.3a5.36 5.36 0 01-.48-2.53c0-3.36 1.84-6.44 4.87-6.44 1.93 0 3.7 1 5.05 2.69-1.72 4.54-4.92 7.03-7.48 7.03-.83 0-1.68-.24-1.96-.75zm0 0"/></symbol><symbol overflow="visible" id="fad64704ay"><path d="M8.64 8.72A37.84 37.84 0 015.7-1.84l.15-.03a7.38 7.38 0 005.68 2.3c4.43 0 8.12-3.48 8.12-9.02 0-6.77-4.16-11.46-10-11.46-4.84 0-8.05 4.13-8.05 11.9 0 4.35.36 12.07 1.1 18.56a9.22 9.22 0 005.95-1.7zm2.31-23c1.9 0 3.49.72 4 1.36.36.44.82 1.64.82 2.97 0 3.51-3.05 5.07-6.33 5.07-1.4 0-2.75-.32-3.96-.84 0-5.36 1.93-8.56 5.47-8.56zm0 0"/></symbol><symbol overflow="visible" id="fad64704aA"><path d="M13.44-13.52l.08-.89-4.8-8.51H17a51.8 51.8 0 010 4.4c1.16.24 2.36.24 3.56 0 .88-2.68 1.13-4.96 1.44-7.84l-.4-.48c-2.68.07-6.8.07-9.76.07h-7a7.55 7.55 0 00-2.32 4.49l5.2 9.33L.23-3.7C.08-2.52.13-1.05.36-.05h8.08c2.97 0 7.36 0 10 .1l.48-.49a98.44 98.44 0 001.56-8.6 7.51 7.51 0 00-3.43-.27 48.66 48.66 0 01-1.97 4.9H6.12zm0 0"/></symbol><symbol overflow="visible" id="fad64704aB"><path d="M8.64-8.16L7.77-5.8l-.2-.04.55-2.4c.72-3.07 1.36-6.12 1.36-8.32 0-1.85-.76-3.28-2.28-3.28-2.25 0-4.2 1.25-5.76 2.71 0 1.33.36 2.61.97 3.36.82-.23 2.03-.46 2.87-.54-.92 4.9-1.97 9.1-3.48 14l.48.47c2.44.2 5.88-.24 6.24-1.6 1.36-4.92 3.12-8.56 6.4-11.2l.13.12a14.41 14.41 0 00-1.28 6.11c0 3.33 1.39 6.9 3.82 6.9 2.18 0 4.72-1.85 6-3.77a4.14 4.14 0 00-1.87-2.95c-1.03.54-2.2.92-3.24 1.1-.6-1.43-.92-3-.92-4.51 0-3.05 1.13-5.44 4.85-5.95l.46-.49c-.18-2.8-1.1-3.76-2.46-3.76-1.2 0-2.13.25-2.93.53-4.76 1.67-6.84 5.8-8.84 11.15zm0 0"/></symbol><symbol overflow="visible" id="fad64704aC"><path d="M18.05-29.48l.1-.68a5.32 5.32 0 00-4.07-2.4c-.72 0-1.28.25-1.52.84l-3.6 8.52c.35 1 1.4 1.56 2.45 1.64zM9.2.64c5.44 0 9.75-4.76 9.75-10.56 0-5.49-2.43-10.08-7.87-10.08C6.23-20 1.2-15.64 1.2-9.44 1.2-3.95 3.77.64 9.2.64zm1.93-16.77c.64 0 1.18.05 1.64.2.23 1.24.3 2.57.3 4.09 0 4.64-2.02 8.6-4.02 8.6-.64 0-1.2-.04-1.64-.2a20.64 20.64 0 01-.33-4.08c0-4.48 2.08-8.6 4.04-8.6zm0 0"/></symbol><symbol overflow="visible" id="fad64704aD"><path d="M.05-3.23L0-2.7C.72-1.2 2.31.48 3.8.48c.56 0 1.12-.25 1.6-.84 2.83-3.72 5.2-8.87 6.83-13.12h.18l1.75 9.71C14.69-1.05 15.4.48 16.72.48c2.28 0 4.76-1.71 6.2-3.76a4.3 4.3 0 00-1.87-2.95c-1.1.59-2.1.95-2.85 1.1a372.95 372.95 0 01-3.72-19.51c-.56-3.48-2.56-6-6.36-6-1.64 0-2.96.4-3.71 1.23-1 1.1-1.2 2.85-1.25 4.61l.48.32c.92-.24 1.95-.36 3.13-.36 2.71 0 3.87 1.89 4.46 5.12l.08.4A80.07 80.07 0 01.05-3.22zm0 0"/></symbol><symbol overflow="visible" id="fad64704aE"><path d="M14.88-4.6c.6 3.04 1.56 5.08 2.96 5.08 1.47 0 3.68-1.56 5.29-3.76-.2-1.16-.9-2.4-1.9-2.95-.87.46-2.1.92-3.23 1.1-.31-1.07-.69-2.3-1-3.64l5-9.03v-.68a4.87 4.87 0 00-3.44-1.36c-.92 0-1.64.28-1.8.8l-1.35 4.27h-.18c-.8-3.1-2-5.23-4.92-5.23-4.67 0-9.1 5.52-9.1 12.4C1.2-2.47 3.5.65 7.07.65c2.69 0 5.92-1.87 7.6-5.23zM5.22-5.3c-.1-.57-.18-1.28-.18-1.85 0-3.96 2.51-6.76 6-7.2.23-.05.51-.05.8-.05.8 1.13 1.35 2.54 1.71 4-2 3.54-4.76 5.46-6.76 5.46a3 3 0 01-1.57-.36zm0 0"/></symbol><symbol overflow="visible" id="fad64704aF"><path d="M5.64 7.56a72.57 72.57 0 01-.76-9.43l.17-.05a7.64 7.64 0 005.6 2.44c4.07 0 8.27-3.47 8.27-10.52 0-5.92-2.92-10-7.97-10C5.7-20 1.48-15.48.23 2.64l-.46 7.08.43.48c.57.08 1.11.11 1.6.11 2.51 0 4.08-1.03 3.84-2.75zm5.8-21.8c1.51 0 2.6.32 3.51 1.08.2.72.28 1.64.28 2.52 0 3.2-3.23 5.69-6.28 5.69-1.54 0-2.8-.25-3.87-.64.69-5.29 2.97-8.64 6.36-8.64zm0 0"/></symbol></defs><use xlink:href="#fad64704a" x="38.25875" y="72.4672"/><use xlink:href="#fad64704b" x="61.29875" y="72.4672"/><use xlink:href="#fad64704c" x="81.45875" y="72.4672"/><use xlink:href="#fad64704d" x="101.17875" y="72.4672"/><use xlink:href="#fad64704e" x="122.77875" y="72.4672"/><use xlink:href="#fad64704f" x="144.49875" y="72.4672"/><g fill-opacity=".33"><use xlink:href="#fad64704g" x="51.45875" y="113.9344"/><use xlink:href="#fad64704h" x="58.12575" y="113.9344"/><use xlink:href="#fad64704i" x="64.79275" y="113.9344"/><use xlink:href="#fad64704j" x="71.45975" y="113.9344"/><use xlink:href="#fad64704k" x="78.12675" y="113.9344"/><use xlink:href="#fad64704l" x="84.79375" y="113.9344"/><use xlink:href="#fad64704m" x="91.46075" y="113.9344"/><use xlink:href="#fad64704n" x="98.12775" y="113.9344"/><use xlink:href="#fad64704o" x="104.79475" y="113.9344"/><use xlink:href="#fad64704m" x="111.46175" y="113.9344"/><use xlink:href="#fad64704p" x="118.12875" y="113.9344"/><use xlink:href="#fad64704q" x="124.79575" y="113.9344"/><use xlink:href="#fad64704r" x="131.46275" y="113.9344"/><use xlink:href="#fad64704s" x="138.12975" y="113.9344"/><use xlink:href="#fad64704t" x="144.79675" y="113.9344"/></g><use xlink:href="#fad64704u" x="239.68125" y="72.4672"/><use xlink:href="#fad64704v" x="259.60125" y="72.4672"/><use xlink:href="#fad64704w" x="281.20125" y="72.4672"/><use xlink:href="#fad64704x" x="298.00125" y="72.4672"/><use xlink:href="#fad64704y" x="318.08125" y="72.4672"/><use xlink:href="#fad64704z" x="339.60125" y="72.4672"/><g fill-opacity=".33"><use xlink:href="#fad64704g" x="225.20792" y="113.9344"/><use xlink:href="#fad64704h" x="231.87492" y="113.9344"/><use xlink:href="#fad64704i" x="238.54192" y="113.9344"/><use xlink:href="#fad64704j" x="245.20892" y="113.9344"/><use xlink:href="#fad64704k" x="251.87592" y="113.9344"/><use xlink:href="#fad64704l" x="258.54292" y="113.9344"/><use xlink:href="#fad64704m" x="265.20992" y="113.9344"/><use xlink:href="#fad64704n" x="271.87692" y="113.9344"/><use xlink:href="#fad64704o" x="278.54392" y="113.9344"/><use xlink:href="#fad64704m" x="285.21092" y="113.9344"/><use xlink:href="#fad64704p" x="291.87792" y="113.9344"/><use xlink:href="#fad64704q" x="298.54492" y="113.9344"/><use xlink:href="#fad64704r" x="305.21192" y="113.9344"/><use xlink:href="#fad64704s" x="311.87892" y="113.9344"/><use xlink:href="#fad64704t" x="318.54592" y="113.9344"/><use xlink:href="#fad64704m" x="325.21292" y="113.9344"/><use xlink:href="#fad64704A" x="331.87992" y="113.9344"/><use xlink:href="#fad64704t" x="338.54692" y="113.9344"/><use xlink:href="#fad64704k" x="345.21392" y="113.9344"/><use xlink:href="#fad64704j" x="351.88092" y="113.9344"/><use xlink:href="#fad64704q" x="358.54792" y="113.9344"/><use xlink:href="#fad64704B" x="365.21492" y="113.9344"/></g><use xlink:href="#fad64704C" x="37.13875" y="190.7336"/><use xlink:href="#fad64704D" x="60.57875" y="190.7336"/><use xlink:href="#fad64704E" x="81.05875" y="190.7336"/><use xlink:href="#fad64704F" x="101.17875" y="190.7336"/><use xlink:href="#fad64704G" x="123.13875" y="190.7336"/><use xlink:href="#fad64704H" x="145.45875" y="190.7336"/><g fill-opacity=".33"><use xlink:href="#fad64704g" x="44.79208" y="232.2008"/><use xlink:href="#fad64704h" x="51.45908" y="232.2008"/><use xlink:href="#fad64704i" x="58.12608" y="232.2008"/><use xlink:href="#fad64704j" x="64.79308" y="232.2008"/><use xlink:href="#fad64704k" x="71.46008" y="232.2008"/><use xlink:href="#fad64704l" x="78.12708" y="232.2008"/><use xlink:href="#fad64704m" x="84.79408" y="232.2008"/><use xlink:href="#fad64704n" x="91.46108" y="232.2008"/><use xlink:href="#fad64704o" x="98.12808" y="232.2008"/><use xlink:href="#fad64704m" x="104.79508" y="232.2008"/><use xlink:href="#fad64704I" x="111.46208" y="232.2008"/><use xlink:href="#fad64704J" x="118.12908" y="232.2008"/><use xlink:href="#fad64704r" x="124.79608" y="232.2008"/><use xlink:href="#fad64704K" x="131.46308" y="232.2008"/><use xlink:href="#fad64704j" x="138.13008" y="232.2008"/><use xlink:href="#fad64704k" x="144.79708" y="232.2008"/><use xlink:href="#fad64704l" x="151.46408" y="232.2008"/></g><use xlink:href="#fad64704L" x="238.26125" y="190.7336"/><use xlink:href="#fad64704M" x="258.22125" y="190.7336"/><use xlink:href="#fad64704N" x="280.50125" y="190.7336"/><use xlink:href="#fad64704O" x="297.98125" y="190.7336"/><use xlink:href="#fad64704P" x="318.66125" y="190.7336"/><use xlink:href="#fad64704Q" x="340.46125" y="190.7336"/><g fill-opacity=".33"><use xlink:href="#fad64704g" x="245.20792" y="232.2008"/><use xlink:href="#fad64704h" x="251.87492" y="232.2008"/><use xlink:href="#fad64704i" x="258.54192" y="232.2008"/><use xlink:href="#fad64704j" x="265.20892" y="232.2008"/><use xlink:href="#fad64704k" x="271.87592" y="232.2008"/><use xlink:href="#fad64704l" x="278.54292" y="232.2008"/><use xlink:href="#fad64704m" x="285.20992" y="232.2008"/><use xlink:href="#fad64704n" x="291.87692" y="232.2008"/><use xlink:href="#fad64704o" x="298.54392" y="232.2008"/><use xlink:href="#fad64704m" x="305.21092" y="232.2008"/><use xlink:href="#fad64704A" x="311.87792" y="232.2008"/><use xlink:href="#fad64704t" x="318.54492" y="232.2008"/><use xlink:href="#fad64704k" x="325.21192" y="232.2008"/><use xlink:href="#fad64704j" x="331.87892" y="232.2008"/><use xlink:href="#fad64704q" x="338.54592" y="232.2008"/><use xlink:href="#fad64704B" x="345.21292" y="232.2008"/></g><use xlink:href="#fad64704R" x="36.25875" y="309"/><use xlink:href="#fad64704S" x="59.61875" y="309"/><use xlink:href="#fad64704T" x="80.37875" y="309"/><use xlink:href="#fad64704U" x="100.85875" y="309"/><use xlink:href="#fad64704V" x="123.17875" y="309"/><use xlink:href="#fad64704W" x="146.17875" y="309"/><g fill-opacity=".33"><use xlink:href="#fad64704g" x="48.12542" y="350.4672"/><use xlink:href="#fad64704h" x="54.79242" y="350.4672"/><use xlink:href="#fad64704i" x="61.45942" y="350.4672"/><use xlink:href="#fad64704j" x="68.12642" y="350.4672"/><use xlink:href="#fad64704k" x="74.79342" y="350.4672"/><use xlink:href="#fad64704l" x="81.46042" y="350.4672"/><use xlink:href="#fad64704m" x="88.12742" y="350.4672"/><use xlink:href="#fad64704n" x="94.79442" y="350.4672"/><use xlink:href="#fad64704o" x="101.46142" y="350.4672"/><use xlink:href="#fad64704m" x="108.12842" y="350.4672"/><use xlink:href="#fad64704X" x="114.79542" y="350.4672"/><use xlink:href="#fad64704J" x="121.46242" y="350.4672"/><use xlink:href="#fad64704Y" x="128.12942" y="350.4672"/><use xlink:href="#fad64704q" x="134.79642" y="350.4672"/><use xlink:href="#fad64704K" x="141.46342" y="350.4672"/><use xlink:href="#fad64704Z" x="148.13042" y="350.4672"/></g><use xlink:href="#fad64704aa" x="236.88125" y="309"/><use xlink:href="#fad64704ab" x="256.88125" y="309"/><use xlink:href="#fad64704ac" x="279.56125" y="309"/><use xlink:href="#fad64704ad" x="297.68125" y="309"/><use xlink:href="#fad64704ae" x="319.04125" y="309"/><use xlink:href="#fad64704af" x="341.36125" y="309"/><g fill-opacity=".33"><use xlink:href="#fad64704g" x="221.87458" y="350.4672"/><use xlink:href="#fad64704h" x="228.54158" y="350.4672"/><use xlink:href="#fad64704i" x="235.20858" y="350.4672"/><use xlink:href="#fad64704j" x="241.87558" y="350.4672"/><use xlink:href="#fad64704k" x="248.54258" y="350.4672"/><use xlink:href="#fad64704l" x="255.20958" y="350.4672"/><use xlink:href="#fad64704m" x="261.87658" y="350.4672"/><use xlink:href="#fad64704n" x="268.54358" y="350.4672"/><use xlink:href="#fad64704o" x="275.21058" y="350.4672"/><use xlink:href="#fad64704m" x="281.87758" y="350.4672"/><use xlink:href="#fad64704X" x="288.54458" y="350.4672"/><use xlink:href="#fad64704J" x="295.21158" y="350.4672"/><use xlink:href="#fad64704Y" x="301.87858" y="350.4672"/><use xlink:href="#fad64704q" x="308.54558" y="350.4672"/><use xlink:href="#fad64704K" x="315.21258" y="350.4672"/><use xlink:href="#fad64704Z" x="321.87958" y="350.4672"/><use xlink:href="#fad64704m" x="328.54658" y="350.4672"/><use xlink:href="#fad64704A" x="335.21358" y="350.4672"/><use xlink:href="#fad64704t" x="341.88058" y="350.4672"/><use xlink:href="#fad64704k" x="348.54758" y="350.4672"/><use xlink:href="#fad64704j" x="355.21458" y="350.4672"/><use xlink:href="#fad64704q" x="361.88158" y="350.4672"/><use xlink:href="#fad64704B" x="368.54858" y="350.4672"/></g><use xlink:href="#fad64704ag" x="35.19875" y="427.2664"/><use xlink:href="#fad64704ah" x="58.47875" y="427.2664"/><use xlink:href="#fad64704ai" x="79.59875" y="427.2664"/><use xlink:href="#fad64704aj" x="100.55875" y="427.2664"/><use xlink:href="#fad64704ak" x="123.27875" y="427.2664"/><use xlink:href="#fad64704al" x="147.07875" y="427.2664"/><g fill-opacity=".33"><use xlink:href="#fad64704g" x="41.45875" y="468.7336"/><use xlink:href="#fad64704h" x="48.12575" y="468.7336"/><use xlink:href="#fad64704i" x="54.79275" y="468.7336"/><use xlink:href="#fad64704j" x="61.45975" y="468.7336"/><use xlink:href="#fad64704k" x="68.12675" y="468.7336"/><use xlink:href="#fad64704l" x="74.79375" y="468.7336"/><use xlink:href="#fad64704m" x="81.46075" y="468.7336"/><use xlink:href="#fad64704n" x="88.12775" y="468.7336"/><use xlink:href="#fad64704o" x="94.79475" y="468.7336"/><use xlink:href="#fad64704m" x="101.46175" y="468.7336"/><use xlink:href="#fad64704g" x="108.12875" y="468.7336"/><use xlink:href="#fad64704J" x="114.79575" y="468.7336"/><use xlink:href="#fad64704Z" x="121.46275" y="468.7336"/><use xlink:href="#fad64704q" x="128.12975" y="468.7336"/><use xlink:href="#fad64704am" x="134.79675" y="468.7336"/><use xlink:href="#fad64704i" x="141.46375" y="468.7336"/><use xlink:href="#fad64704j" x="148.13075" y="468.7336"/><use xlink:href="#fad64704Y" x="154.79775" y="468.7336"/></g><use xlink:href="#fad64704an" x="235.28125" y="427.2664"/><use xlink:href="#fad64704ao" x="255.28125" y="427.2664"/><use xlink:href="#fad64704ap" x="278.48125" y="427.2664"/><use xlink:href="#fad64704aq" x="297.32125" y="427.2664"/><use xlink:href="#fad64704ar" x="319.48125" y="427.2664"/><use xlink:href="#fad64704as" x="342.40125" y="427.2664"/><g fill-opacity=".33"><use xlink:href="#fad64704g" x="215.207917" y="468.7336"/><use xlink:href="#fad64704h" x="221.874917" y="468.7336"/><use xlink:href="#fad64704i" x="228.541917" y="468.7336"/><use xlink:href="#fad64704j" x="235.208917" y="468.7336"/><use xlink:href="#fad64704k" x="241.875917" y="468.7336"/><use xlink:href="#fad64704l" x="248.542917" y="468.7336"/><use xlink:href="#fad64704m" x="255.209917" y="468.7336"/><use xlink:href="#fad64704n" x="261.876917" y="468.7336"/><use xlink:href="#fad64704o" x="268.543917" y="468.7336"/><use xlink:href="#fad64704m" x="275.210917" y="468.7336"/><use xlink:href="#fad64704g" x="281.877917" y="468.7336"/><use xlink:href="#fad64704J" x="288.544917" y="468.7336"/><use xlink:href="#fad64704Z" x="295.211917" y="468.7336"/><use xlink:href="#fad64704q" x="301.878917" y="468.7336"/><use xlink:href="#fad64704am" x="308.545917" y="468.7336"/><use xlink:href="#fad64704i" x="315.212917" y="468.7336"/><use xlink:href="#fad64704j" x="321.879917" y="468.7336"/><use xlink:href="#fad64704Y" x="328.546917" y="468.7336"/><use xlink:href="#fad64704m" x="335.213917" y="468.7336"/><use xlink:href="#fad64704A" x="341.880917" y="468.7336"/><use xlink:href="#fad64704t" x="348.547917" y="468.7336"/><use xlink:href="#fad64704k" x="355.214917" y="468.7336"/><use xlink:href="#fad64704j" x="361.881917" y="468.7336"/><use xlink:href="#fad64704q" x="368.548917" y="468.7336"/><use xlink:href="#fad64704B" x="375.215917" y="468.7336"/></g><use xlink:href="#fad64704at" x="33.91875" y="545.5328"/><use xlink:href="#fad64704au" x="57.11875" y="545.5328"/><use xlink:href="#fad64704av" x="78.63875" y="545.5328"/><use xlink:href="#fad64704aw" x="100.15875" y="545.5328"/><g><use xlink:href="#fad64704ax" x="123.35875" y="545.5328"/></g><g><use xlink:href="#fad64704ay" x="148.15875" y="545.5328"/></g><g fill-opacity=".33"><use xlink:href="#fad64704g" x="54.79208" y="587"/><use xlink:href="#fad64704h" x="61.45908" y="587"/><use xlink:href="#fad64704i" x="68.12608" y="587"/><use xlink:href="#fad64704j" x="74.79308" y="587"/><use xlink:href="#fad64704k" x="81.46008" y="587"/><use xlink:href="#fad64704l" x="88.12708" y="587"/><use xlink:href="#fad64704m" x="94.79408" y="587"/><use xlink:href="#fad64704n" x="101.46108" y="587"/><use xlink:href="#fad64704o" x="108.12808" y="587"/><use xlink:href="#fad64704m" x="114.79508" y="587"/><use xlink:href="#fad64704az" x="121.46208" y="587"/><use xlink:href="#fad64704i" x="128.12908" y="587"/><use xlink:href="#fad64704j" x="134.79608" y="587"/><use xlink:href="#fad64704Y" x="141.46308" y="587"/></g><g><use xlink:href="#fad64704aA" x="233.30125" y="545.5328"/></g><g><use xlink:href="#fad64704aB" x="253.34125" y="545.5328"/></g><g><use xlink:href="#fad64704aC" x="277.14125" y="545.5328"/></g><g><use xlink:href="#fad64704aD" x="296.90125" y="545.5328"/><use xlink:href="#fad64704aE" x="320.02125" y="545.5328"/></g><g><use xlink:href="#fad64704aF" x="343.66125" y="545.5328"/></g><g fill-opacity=".33"><use xlink:href="#fad64704g" x="228.54125" y="587"/><use xlink:href="#fad64704h" x="235.20825" y="587"/><use xlink:href="#fad64704i" x="241.87525" y="587"/><use xlink:href="#fad64704j" x="248.54225" y="587"/><use xlink:href="#fad64704k" x="255.20925" y="587"/><use xlink:href="#fad64704l" x="261.87625" y="587"/><use xlink:href="#fad64704m" x="268.54325" y="587"/><use xlink:href="#fad64704n" x="275.21025" y="587"/><use xlink:href="#fad64704o" x="281.87725" y="587"/><use xlink:href="#fad64704m" x="288.54425" y="587"/><use xlink:href="#fad64704az" x="295.21125" y="587"/><use xlink:href="#fad64704i" x="301.87825" y="587"/><use xlink:href="#fad64704j" x="308.54525" y="587"/><use xlink:href="#fad64704Y" x="315.21225" y="587"/><use xlink:href="#fad64704m" x="321.87925" y="587"/><use xlink:href="#fad64704A" x="328.54625" y="587"/><use xlink:href="#fad64704t" x="335.21325" y="587"/><use xlink:href="#fad64704k" x="341.88025" y="587"/><use xlink:href="#fad64704j" x="348.54725" y="587"/><use xlink:href="#fad64704q" x="355.21425" y="587"/><use xlink:href="#fad64704B" x="361.88125" y="587"/></g></svg>