<?xml version='1.0' encoding='UTF-8'?>
<svg xmlns="http://www.w3.org/2000/svg" xmlns:xlink="http://www.w3.org/1999/xlink" width="400px" height="600px" viewBox="0 0 400 600" x="0px" y="0px" enable-background="new 0 0 400 600"><defs><symbol overflow="visible" id="8dc91d78a"><path d="M10.8.6c5.51 0 8.92-3.96 8.92-8.91 0-3.77-3.31-5.77-6.36-6.85L9.88-16.4c-2.16-.75-4.24-2.18-4.24-4.71 0-1.52.52-2.44 1.24-3.08.25-.2 1.96-.75 4.17-.75 1.75 0 3.39.23 4.8.64.35 1.26.5 2.6.63 3.95.44.28 1.04.31 1.64.16.6-1.88.93-3.88.96-5.88-2.2-.8-5.16-1.33-7.49-1.33-4.1 0-8.82 1.93-8.82 7.46 0 4 3.43 5.47 7.15 6.87L12.8-12c2 .77 3.97 2.31 3.97 4.56 0 2.03-.54 3.57-1.49 4.52-.2.2-1.84 1.08-4.2 1.08a19.7 19.7 0 01-5.6-.75 37.91 37.91 0 01-.6-4.9 2.51 2.51 0 00-1.68-.1c-.56 2.28-.89 4.36-.97 6.51C4.2-.05 7.52.6 10.8.6zm0 0"/></symbol><symbol overflow="visible" id="8dc91d78b"><path d="M1.13.05c1.51 0 3.15-.1 4.43-.1.75 0 3.16.05 4.24.1.15-.33.25-1.05.25-1.53-.74-.32-2-.57-3.1-.68-.08-.96-.1-1.96-.1-3.04v-3.28l3.23-.93C11.68-4.8 14.44.41 16.92.41c1.92 0 3.36-.36 4.56-.85a2.5 2.5 0 00-.4-1.36c-.4.08-.88.11-1.28.11-1.44 0-2.28-.47-3.36-1.72-1.36-1.54-2.96-4.3-4.4-7.3l5.12-5.77a8.97 8.97 0 002.76-.68c0-.48-.08-1.07-.23-1.53-1.28.05-2.4.1-3.33.1-1.48 0-3.4-.1-4.72-.1-.12.46-.23 1-.23 1.57l2.9.53-4.1 4.87c-.98.44-2.16.92-3.37 1.31v-8.46c0-4.41.04-7.44.16-11.44l-.28-.28c-2.03.18-4.36.71-5.8 1.23-.05.44 0 .88.16 1.28 1.04.13 2.12.28 3.15.56V-4.4c0 .82-.03 1.46-.15 2.29-.8.25-2.08.53-3.2.64 0 .53.12 1.17.24 1.53zm0 0"/></symbol><symbol overflow="visible" id="8dc91d78c"><path d="M9.88.56c5.4 0 8.56-5.15 8.56-10.2 0-5.2-2.57-9.56-8.16-9.56-5.36 0-8.56 5.4-8.56 10.2C1.72-3.64 4.4.56 9.87.56zm.76-2.28c-4.6 0-6.2-4.4-6.2-8.15a8.92 8.92 0 012.25-6.18c.51-.51 1.95-.87 2.83-.87 4.6 0 6.2 4.44 6.2 8.15 0 2.82-1.03 4.97-2.24 6.2-.53.5-1.96.85-2.84.85zm0 0"/></symbol><symbol overflow="visible" id="8dc91d78d"><path d="M1.13.05c1.51 0 3.18-.1 4.46-.1.77 0 3.13.05 4.2.1.16-.33.26-1.05.26-1.53-.74-.32-2-.57-3.1-.68-.08-.96-.1-1.96-.1-3.04v-13.68c0-4.4.03-7.43.15-11.43l-.28-.28c-2.03.18-4.36.71-5.8 1.23-.05.44 0 .88.16 1.28 1.04.13 2.12.28 3.15.56V-4.4c0 .82-.03 1.46-.15 2.29-.8.25-2.08.53-3.2.64 0 .53.12 1.17.24 1.53zm0 0"/></symbol><symbol overflow="visible" id="8dc91d78e"><path d="M5.8.56c2 0 4.48-1.28 6.89-3.51.26 2.1 1 3.51 1.75 3.51 1.12 0 2.97-.84 4.12-1.76a2.5 2.5 0 00-.51-1.44c-.82.28-1.74.52-2.57.69-.2-.93-.28-2.1-.28-3.25v-7.67c0-5.08-2.43-6.29-6.15-6.29-2.61 0-4.93.72-6.7 1.64 0 1.52.34 3.08.8 4.36.54.2 1.2.08 1.8-.2 0-1.16.05-2.23.25-3.33 1.16-.23 2.24-.31 3.64-.31 2.72 0 3.75 2.2 3.75 5.36v.05c-5.82.95-10.9 3.03-10.9 7.46 0 2.85 1.67 4.7 4.1 4.7zM4.4-4.95c0-1 .47-2.05 1.04-2.57.6-.56 3.64-1.56 7.15-1.92v4.52c-1.67 1.76-3.82 3.04-5.46 3.04-1.85 0-2.72-1.35-2.72-3.07zm0 0"/></symbol><symbol overflow="visible" id="8dc91d78f"><path d="M1.52.05c1.53 0 3.2-.1 4.48-.1 1 0 4.23.05 5.69.1a4.5 4.5 0 00.23-1.53c-1-.32-2.87-.6-4.56-.68-.08-.96-.13-1.96-.13-3.04v-7.67c1.54-2.77 3.13-3.85 4.85-3.85.48 0 .8.03 1.08.08.2 1.12.32 2.69.36 4 .53.2 1.25.2 1.8 0 .4-1.95.52-3.64.52-6-.89-.28-1.89-.44-2.96-.44-2.57 0-4.4 1.67-5.65 3.85a27.75 27.75 0 00-.43-3.57l-.28-.25c-1.83.25-3.68.7-5.2 1.2-.04.37 0 .9.16 1.29 1.08.12 2.11.33 3.16.6V-4.4c0 .82-.05 1.46-.16 2.29-.8.25-2.07.48-3.2.64 0 .53.13 1.17.24 1.53zm0 0"/></symbol><symbol overflow="visible" id="8dc91d78g"><path d="M3.42.14c1.61 0 2.56-.75 2.56-2 0-1.1-.67-1.6-1.95-1.86l-.97-.2c-.87-.17-1.23-.49-1.23-1.11 0-.7.54-1.11 1.5-1.11 1.06 0 1.51.34 1.69 1.23l.9-.09c-.17-1.28-.98-1.9-2.6-1.9C1.79-6.9.9-6.18.9-4.98c0 1.06.66 1.66 1.88 1.9l1.01.2c.85.17 1.25.4 1.25 1.09 0 .73-.6 1.16-1.6 1.16-1.07 0-1.66-.4-1.8-1.24l-.94.1C.83-.53 1.75.13 3.42.13zm0 0"/></symbol><symbol overflow="visible" id="8dc91d78h"><path d="M5.77-5.02H4.63L2.3-2.88h-.06v-4.26h-.94V0h.94v-2.31h.06L4.71 0h1.24L3.23-2.69zm0 0"/></symbol><symbol overflow="visible" id="8dc91d78i"><path d="M3.33.14c1.62 0 2.5-.95 2.5-2.66 0-1.68-.88-2.64-2.5-2.64-1.63 0-2.5.96-2.5 2.64 0 1.7.87 2.66 2.5 2.66zm0-.77c-1.06 0-1.52-.6-1.52-1.89 0-1.28.46-1.87 1.52-1.87 1.08 0 1.53.6 1.53 1.87 0 1.29-.45 1.9-1.53 1.9zm0 0"/></symbol><symbol overflow="visible" id="8dc91d78j"><path d="M3.92-7.14H1.36v.76h1.6v5.61H1.15V0H5.7v-.77H3.92zm0 0"/></symbol><symbol overflow="visible" id="8dc91d78k"><path d="M2.83.14c.94 0 1.5-.39 1.81-.95h.08l.1.81h.76v-3.38c0-1.23-.69-1.8-2.13-1.8-1.43 0-2.03.65-2.18 1.6l.93.1c.11-.6.44-.93 1.22-.93.85 0 1.22.32 1.22 1.04v.34l-1.81.2C1.6-2.7 1.1-2.17 1.1-1.28c0 .92.64 1.42 1.72 1.42zm.25-.77c-.67 0-1.02-.28-1.02-.74 0-.44.28-.72 1-.82l1.58-.19v.41c0 .8-.6 1.34-1.56 1.34zm0 0"/></symbol><symbol overflow="visible" id="8dc91d78l"><path d="M5.08-5.16c-.94 0-1.58.43-1.9 1.3h-.09l-.07-1.16H1.05v.77h1.1v3.48H.96V0h3.96v-.77H3.1v-1.46c0-1.36.6-2.05 1.83-2.05.4 0 .76.08 1.1.17l.15-.87c-.33-.11-.7-.18-1.11-.18zm0 0"/></symbol><symbol overflow="visible" id="8dc91d78n"><path d="M.92-6.77V0h.99v-2.27h1.68c1.58 0 2.38-.65 2.38-2.2v-.14c0-1.51-.8-2.16-2.34-2.16zM5-4.47c0 1.05-.42 1.45-1.58 1.45H1.91v-2.96h1.51C4.58-5.98 5-5.66 5-4.61zm0 0"/></symbol><symbol overflow="visible" id="8dc91d78o"><path d="M5.92-6.77H1.1V0h4.83v-.8H2.06v-2.26h3.22v-.75H2.06v-2.16h3.86zm0 0"/></symbol><symbol overflow="visible" id="8dc91d78p"><path d="M2.08-6.77h-.99V0h4.79v-.81h-3.8zm0 0"/></symbol><symbol overflow="visible" id="8dc91d78q"><path d="M3.58-5.81c.42 0 .72-.22.72-.67 0-.44-.3-.68-.72-.68-.44 0-.72.24-.72.68 0 .45.28.67.72.67zm.5.8H1.52v.76h1.6v3.48h-1.8V0h4.46v-.77h-1.7zm0 0"/></symbol><symbol overflow="visible" id="8dc91d78r"><path d="M3.16 2.03c1.67 0 2.4-.86 2.4-2.51v-4.54h-.81l-.13.91h-.06c-.26-.58-.8-1.05-1.73-1.05-1.42 0-2.24 1-2.24 2.52 0 1.6.75 2.56 2.2 2.56.94 0 1.5-.5 1.77-1.03h.05v.72c0 1.17-.42 1.67-1.45 1.67-.93 0-1.3-.34-1.41-.89L.8.5c.12.96.87 1.54 2.36 1.54zM3.06-.8c-.98 0-1.48-.57-1.48-1.82 0-1.13.5-1.75 1.48-1.75 1.06 0 1.58.76 1.58 1.75 0 .95-.56 1.82-1.58 1.82zm0 0"/></symbol><symbol overflow="visible" id="8dc91d78s"><path d="M2.16 0v-2.69c0-.98.6-1.6 1.46-1.6.74 0 1.07.4 1.07 1.2V0h.95v-3.31c0-1.17-.56-1.85-1.67-1.85-.9 0-1.44.46-1.75 1.08h-.06v-3.06H1.2V0zm0 0"/></symbol><symbol overflow="visible" id="8dc91d78t"><path d="M5.52-4.25v-.77H3.17v-1.56h-.81l-.14 1.56H.75v.77h1.47v2.4c0 1.3.48 1.94 1.84 1.94C4.6.1 5.14 0 5.55-.14L5.4-.91c-.32.13-.72.2-1.13.2-.8 0-1.1-.37-1.1-1.23v-2.31zm0 0"/></symbol><symbol overflow="visible" id="8dc91d78A"><path d="M3.83-5.97h1.73v-.8H1.1v.8h1.75v5.19H1.1V0h4.47v-.78H3.83zm0 0"/></symbol><symbol overflow="visible" id="8dc91d78B"><path d="M3.34.14c1.43 0 2.13-.66 2.25-1.78l-.89-.1c-.1.7-.5 1.08-1.34 1.08-1.03 0-1.52-.64-1.52-1.84 0-1.23.47-1.86 1.52-1.86.84 0 1.23.36 1.34 1.08l.9-.1c-.13-1.09-.82-1.78-2.26-1.78-1.56 0-2.46.97-2.46 2.66 0 1.66.9 2.64 2.46 2.64zm0 0"/></symbol><symbol overflow="visible" id="8dc91d78I"><path d="M4.06-2.77c1.25-.04 1.92-.7 1.92-1.96 0-1.36-.7-2.04-2.17-2.04H.92V0h.97v-2.73h1.08L4.95 0h1.1zM1.9-6h1.7c1.07 0 1.46.34 1.46 1.28 0 .9-.44 1.27-1.47 1.27H1.89zm0 0"/></symbol><symbol overflow="visible" id="8dc91d78J"><path d="M5.75-2.23v-.43c0-1.6-.9-2.51-2.42-2.51S.87-4.16.87-2.48c0 1.71.91 2.62 2.5 2.62 1.43 0 2.07-.56 2.29-1.52l-.9-.09c-.18.61-.59.9-1.35.9-.94 0-1.52-.54-1.58-1.66zm-2.4-2.2c.93 0 1.43.5 1.48 1.55H1.84c.08-1.07.6-1.56 1.5-1.56zm0 0"/></symbol><symbol overflow="visible" id="8dc91d78K"><path d="M2.73.14c.9 0 1.43-.45 1.74-1.08h.06l.13.94h.8v-5.02h-.94v2.7c0 .98-.57 1.62-1.46 1.62-.75 0-1.1-.4-1.1-1.22v-3.1h-.93v3.32c0 1.17.55 1.84 1.7 1.84zm0 0"/></symbol><symbol overflow="visible" id="8dc91d78X"><path d="M1.64 0v-3.17l-.16-2.5h.1L2.9-1.83h.82l1.35-3.84h.1l-.16 2.5V0h.95v-6.77h-1.3l-1.3 3.82h-.09L2-6.77H.69V0zm0 0"/></symbol><symbol overflow="visible" id="8dc91d78Y"><path d="M2.84.14C3.8.14 4.33-.26 4.6-.9h.07L4.8 0h.76v-7.14h-.95v2.95h-.08c-.28-.6-.86-.97-1.67-.97-1.48 0-2.27.99-2.27 2.64C.6-.84 1.36.14 2.84.14zm.22-.8c-.98 0-1.48-.59-1.48-1.84s.5-1.86 1.48-1.86c1.13 0 1.58.8 1.58 1.86S4.2-.66 3.06-.66zm0 0"/></symbol><symbol overflow="visible" id="8dc91d78Z"><path d="M1.63 0v-2.9c0-.8.15-1.4.71-1.4.41 0 .55.3.55.88V0h.95v-2.9c0-.8.18-1.4.72-1.4.4 0 .57.3.57.88V0h.95v-3.63c0-.92-.28-1.53-1.11-1.53-.63 0-.95.41-1.1.9h-.06c-.1-.52-.44-.9-1.08-.9-.6 0-.93.41-1.06.9H1.6l-.23-.76H.67V0zm0 0"/></symbol><symbol overflow="visible" id="8dc91d78am"><path d="M3.9.14c1.48 0 2.18-.98 2.18-2.64 0-1.67-.7-2.66-2.17-2.66-.91 0-1.49.41-1.79 1h-.06v-2.98h-.95V0h.81l.11-.9h.06c.29.63.82 1.04 1.82 1.04zm-.32-.8c-1.08 0-1.55-.8-1.55-1.84 0-1.06.47-1.86 1.55-1.86 1.1 0 1.51.61 1.51 1.86S4.64-.66 3.58-.66zm0 0"/></symbol><symbol overflow="visible" id="8dc91d78az"><path d="M4.66-3.45c.76-.14 1.15-.67 1.15-1.57 0-1.07-.64-1.75-2.18-1.75H.92V0h2.71C5.2 0 5.98-.64 5.98-1.77c0-1.03-.56-1.43-1.32-1.59zM3.56-6c.9 0 1.31.4 1.31 1.13 0 .71-.4 1.14-1.3 1.14h-1.7V-6zM1.87-.75v-2.27H3.6c.97 0 1.44.33 1.44 1.13 0 .8-.47 1.14-1.44 1.14zm0 0"/></symbol><symbol overflow="visible" id="8dc91d78u"><path d="M7.95.6c6.05 0 9.49-4.37 9.49-9.68 0-3.08-2.6-4.8-5.03-5.84l-3.18-1.36C7.52-17 5.8-18.36 5.8-20.6c0-1.77.76-2.9 1.64-3.72.92-.38 2.15-.69 3.87-.69 1.64 0 3.2.2 4.46.56.15 1.28.15 2.64.07 4 .4.28 1.08.32 1.64.16.8-1.88 1.29-3.64 1.57-5.64a15.72 15.72 0 00-6.9-1.49c-4.74 0-9.15 2.54-9.15 8 0 3.64 3.2 5.25 5.72 6.29l2.56 1.07c1.72.74 3.28 2.2 3.28 4.2 0 1.9-.69 3.62-1.87 4.85a9.3 9.3 0 01-4.81 1.2c-1.57 0-3.16-.32-4.47-.8-.1-1.71 0-3.45.1-4.96-.56-.2-1.1-.28-1.74-.13A40.8 40.8 0 00.05-1.12C1.87-.08 4.88.58 7.95.58zm0 0"/></symbol><symbol overflow="visible" id="8dc91d78v"><path d="M2.2.13C3.6.28 4.92-.08 5-.7c.28-2.47.64-5.19 1-7.87l4.95 7.44C11.52-.23 12.2.4 13.13.4c1.46 0 3.03-1.1 4.56-2.77-.1-.4-.28-.84-.64-1.12-1.05.48-2.4.96-3.57 1.12L8.41-9.72c5.43-2.56 8.46-5.08 8.46-8 0-.76-.87-1.64-2.92-1.72l-.26.28c.67 3.68-3.33 6.36-7.46 8.75L6.95-16l1.46-11.08c.03-.33.07-.8.07-1.08 0-1.48-.56-2.25-1.89-2.25a8.7 8.7 0 00-4.18 1.13c-.18.44-.18.87 0 1.2 1.23 0 2.3.03 3.43.28L3.95-13.4C3.44-9.45 2.77-4.37 1.92-.17zm0 0"/></symbol><symbol overflow="visible" id="8dc91d78w"><path d="M6.77.64c6.15 0 9.8-5.33 9.8-12.12 0-3.36-1.05-7.8-5.37-7.8-6.15 0-9.8 5.33-9.8 12.12C1.4-3.8 2.45.64 6.78.64zM8.3-1.64c-3.08 0-4.19-2.77-4.19-7.31a11 11 0 012.68-7.18c.68-.43 1.8-.87 2.84-.87 3.08 0 4.2 2.77 4.2 7.31a11 11 0 01-2.68 7.17c-.68.44-1.8.88-2.85.88zm0 0"/></symbol><symbol overflow="visible" id="8dc91d78x"><path d="M4.23.48C5.7.48 8.41-1.08 9.7-2.59c-.13-.41-.38-.82-.74-1.1-1.07.53-2.39.97-3.75 1.2l3.24-24.59c.04-.33.08-.8.08-1.08 0-1.48-.57-2.25-1.88-2.25a8.8 8.8 0 00-4.2 1.13 1.6 1.6 0 000 1.2c1.25 0 2.33.03 3.44.28L2.56-3.56c-.12.84-.15 1.4-.15 1.8C2.4-.7 2.95.47 4.23.47zm0 0"/></symbol><symbol overflow="visible" id="8dc91d78y"><path d="M4.77.64c2.3 0 4.92-1.36 7.3-3.52.13 1.36.5 3.36 1.5 3.36 1.43 0 4.12-1.56 5.38-3.07a2.1 2.1 0 00-.72-1.1c-1.07.53-2.39.97-3.75 1.2l1.8-13.38c.08-.61.2-1.33.4-2.05-1.88-.92-4.4-1.36-6.48-1.36-5.89 0-8.89 6.36-8.89 12.76 0 1.4.13 3.04.49 4.32C2.23-.56 3.12.64 4.77.64zm-.7-8.23c0-3.82 1.45-7.64 3.21-9.05A5.05 5.05 0 019.23-17c1.64 0 3.13.36 4.41.88L12.16-4.85C9.76-3 7.2-1.8 5.36-1.8c-.8-.84-1.28-2.92-1.28-5.8zm0 0"/></symbol><symbol overflow="visible" id="8dc91d78z"><path d="M2.36.13c1.4.15 2.72-.2 2.8-.82.53-3.83 1.04-8.23 1.56-12.19 1.4-1.6 2.97-2.8 4.87-3.84.57.44 1.1 1 1.57 1.67 1-.18 2.12-1.39 2.12-2.03 0-.84-.84-2.33-2.4-2.33-1.68 0-3.76 1.57-5.8 3.9 0-.08.04-.18.04-.26.04-.36.08-.82.08-1.1 0-1.49-.56-2.25-1.89-2.25-1.26 0-2.87.35-4.18 1.12-.18.44-.18.88 0 1.2 1.23 0 2.3.03 3.43.28l-.48 3.68c-.49 3.71-1.13 8.2-2 12.68zm0 0"/></symbol><symbol overflow="visible" id="8dc91d78C"><path d="M10.72.6c5.69 0 9.15-4 9.15-9 0-3.76-3.18-5.8-6.18-6.88l-3.46-1.24c-1.87-.68-4.15-2.17-4.15-4.53 0-1.39.48-2.23 1.15-2.82.25-.2 1.93-.65 3.82-.65 1.67 0 3.26.16 4.6.52.3 1.28.47 2.56.58 3.92.57.31 1.29.36 2.08.16.53-1.88.85-3.88.9-6.08a23.32 23.32 0 00-7.73-1.4c-4.07 0-9.04 2-9.04 7.6 0 4.03 3.84 5.85 6.8 6.96l2.92 1.12c2.04.77 4 2.28 4 4.36 0 1.88-.44 3.2-1.36 4.08-.2.2-1.93 1-3.85 1C8.7-2.28 7-2.52 5.56-3A37.4 37.4 0 015-7.88a3.5 3.5 0 00-2.13-.17 32.98 32.98 0 00-.95 6.9c2 1.07 5.31 1.74 8.8 1.74zm0 0"/></symbol><symbol overflow="visible" id="8dc91d78D"><path d="M1 .05c1.52 0 3.2-.1 4.84-.1.96 0 3.4.05 4.47.1.17-.36.25-1.2.25-1.82a11.9 11.9 0 00-3-.71c-.08-.96-.12-1.93-.12-3v-2.96l2.92-.8C11.88-4.47 14.52.42 17.3.42c1.69 0 4.28-.57 5-.97a1.86 1.86 0 00-.43-1.56c-.4.07-.88.12-1.29.12-1.46 0-2.23-.52-3.3-1.72-1.34-1.51-3.16-4.64-4.45-7.12l5.11-5.47c.9-.13 1.82-.4 2.7-.77 0-.6-.09-1.4-.24-1.76-1.18.04-2.41.07-3.36.07-1.77 0-3.61-.07-4.9-.07a5.94 5.94 0 00-.28 1.8l2.49.6L10.69-12c-.85.44-2 .95-3.25 1.4v-8.2c0-4.4.04-7.51.15-11.51l-.3-.33c-2.21.2-4.93.8-6.52 1.4-.08.52 0 1.04.15 1.55 1.03.13 2.16.38 3.16.64v22.36c0 .82-.03 1.38-.16 2.25-.8.28-2.08.56-3.2.67 0 .65.12 1.49.28 1.82zm0 0"/></symbol><symbol overflow="visible" id="8dc91d78E"><path d="M10.05.56c5.6 0 8.87-5.44 8.87-10.28 0-5.48-2.64-9.64-8.44-9.64-5.6 0-8.89 5.44-8.89 10.28 0 5.6 2.77 9.64 8.46 9.64zm.72-2.69C6.48-2.13 5-6.8 5-10.2c0-2.4.88-4.52 2-5.72.48-.49 1.92-.77 2.77-.77 4.28 0 5.75 4.69 5.75 8.1 0 2.39-.88 4.51-2 5.71-.47.47-1.93.75-2.75.75zm0 0"/></symbol><symbol overflow="visible" id="8dc91d78F"><path d="M1 .05c1.52 0 3.2-.1 4.84-.1.96 0 3.4.05 4.47.1.17-.36.25-1.2.25-1.82a11.9 11.9 0 00-3-.71c-.08-.96-.12-1.93-.12-3V-18.8c0-4.4.04-7.51.15-11.51l-.3-.33c-2.21.2-4.93.8-6.52 1.4-.08.52 0 1.04.15 1.55 1.03.13 2.13.38 3.16.64v22.36c0 .82-.03 1.38-.16 2.25-.8.28-2.08.56-3.2.67 0 .65.12 1.49.28 1.82zm0 0"/></symbol><symbol overflow="visible" id="8dc91d78G"><path d="M5.92.56c1.8 0 4.36-1.2 6.6-3.2.4 1.87 1.17 3.2 1.96 3.2 1.4 0 3.32-.97 4.57-2.04 0-.6-.25-1.11-.61-1.47-.75.23-1.67.51-2.57.64-.15-.9-.18-2.1-.18-3.17V-13c0-5.44-3.97-6.31-6.33-6.31-2.77 0-5.2.87-7.13 2.03 0 1.4.36 3.05.97 4.28.75.23 1.57.08 2.32-.28 0-1.13.04-2.2.28-3.24 1.04-.25 2.12-.32 3.15-.32 2.74 0 3.36 2.04 3.36 5.12-5.1.92-10.9 3.03-10.9 7.52C1.4-1.23 3.28.56 5.92.56zM4.95-5.2c0-.85.33-1.92.82-2.4.46-.48 3.39-1.32 6.54-1.68v4.72c-1.23 1.12-3.15 2.08-4.36 2.08-2.1 0-3-1.24-3-2.72zm0 0"/></symbol><symbol overflow="visible" id="8dc91d78H"><path d="M1.52.05c1.53 0 3.2-.1 4.84-.1 1.33 0 4.72.05 6.2.1.16-.36.24-1.2.24-1.82-1-.3-2.96-.59-4.72-.71-.08-.96-.13-1.93-.13-3v-7.75c1.64-2.64 2.97-3.13 4.49-3.13.44 0 .76.05 1.04.08.24 1.16.4 3.08.47 4.44.7.25 1.36.25 2.1 0 .51-2.29.72-4.04.72-6.88a9.71 9.71 0 00-3.25-.51c-2.44 0-4.32 1.8-5.57 3.75-.1-1-.47-2.8-.67-3.47l-.33-.28c-2.03.18-4.18.82-5.67 1.43-.08.49 0 1.03.16 1.57 1.04.1 2.12.3 3.15.64v10.9c0 .82-.03 1.38-.15 2.25-.8.28-2.08.56-3.2.67 0 .65.12 1.49.28 1.82zm0 0"/></symbol><symbol overflow="visible" id="8dc91d78L"><path d="M8.28.6C14.31.6 18-4.06 18-9.09c0-3.2-2.52-4.97-4.95-6l-3.1-1.33c-1.54-.67-3.3-2.1-3.3-4.23A4.5 4.5 0 018.04-24c.87-.31 2.07-.52 3.6-.52 1.58 0 3.04.16 4.2.52.1 1.28.1 2.56.03 3.92.53.31 1.24.36 2.07.16A26.85 26.85 0 0019.52-26c-2-.88-4.83-1.4-7.11-1.4C7.95-27.4 3-24.85 3-19.29c0 3.51 3.05 5.2 5.44 6.23l2.6 1.13c1.8.76 3.24 2.33 3.24 4.2a6.6 6.6 0 01-1.6 4.36 8.64 8.64 0 01-4.37 1.08c-1.72 0-3.15-.24-4.39-.72-.08-1.77 0-3.4.13-4.88a3.49 3.49 0 00-2.13-.17c-.8 2.28-1.4 4.53-1.8 6.9C1.88-.09 4.96.58 8.29.58zm0 0"/></symbol><symbol overflow="visible" id="8dc91d78M"><path d="M1.95.13C3.7.28 5.44-.14 5.52-.84c.28-2.57.6-5.11.96-7.68l4.6 7.32c.6.92 1.4 1.6 2.44 1.6 1.8 0 3.53-1.27 5.12-2.96a2.15 2.15 0 00-.77-1.36c-1.1.48-2.39.87-3.59 1.08L9.31-10c5.33-2.48 8.4-4.88 8.4-7.72 0-.92-1.27-1.8-3.63-1.87l-.31.3c.64 3.65-3.13 6.29-6.97 8.45.2-1.68.43-3.32.64-4.96l1.43-11.07c.05-.41.08-.72.08-1.05 0-1.56-.72-2.49-2.26-2.49-1.57 0-3.25.49-4.57 1.25a2.06 2.06 0 000 1.44c1.16 0 2.29.13 3.44.36L3.72-13.2a222.8 222.8 0 01-2.08 13zm0 0"/></symbol><symbol overflow="visible" id="8dc91d78N"><path d="M6.92.64c6.44 0 10.2-5.36 10.2-12.23 0-3.46-1.17-7.85-5.68-7.85-6.36 0-10.08 5.36-10.08 12.24 0 3.43 1.2 7.84 5.56 7.84zm1.72-2.69c-2.8 0-3.87-2.6-3.87-6.95 0-3.28 1.23-5.8 2.39-7a6.07 6.07 0 012.84-.77c2.52 0 3.72 2.61 3.72 7 0 3.08-1.24 5.72-2.4 6.93-.68.4-1.76.8-2.68.8zm0 0"/></symbol><symbol overflow="visible" id="8dc91d78O"><path d="M4.28.48c1.8 0 4.6-1.71 5.95-3.2-.1-.56-.39-1-.82-1.33a16 16 0 01-3.64 1.13l3.1-23.95c.05-.41.08-.72.08-1.05 0-1.56-.72-2.49-2.26-2.49-1.57 0-3.25.49-4.57 1.25a2.06 2.06 0 000 1.44c1.16 0 2.29.13 3.44.36L2.36-4.05c-.13.9-.2 1.64-.2 2.05 0 1.31.53 2.48 2.12 2.48zm0 0"/></symbol><symbol overflow="visible" id="8dc91d78P"><path d="M5.05.64c2.1 0 4.72-1.48 7.15-3.77.11 2.05.49 3.61 1.6 3.61 1.8 0 4.6-1.71 5.97-3.2-.13-.56-.41-1-.85-1.33-1.08.49-2.33.9-3.64 1.13l1.67-12.88c.13-.76.25-1.36.46-2.12a18.24 18.24 0 00-6.97-1.52c-5.85 0-9.08 6.4-9.08 12.85 0 1.43.12 3 .44 4.36C2.2-.56 3.23.64 5.05.64zm-.28-8.4c0-3.96 1.39-7.29 2.92-8.65a5.18 5.18 0 012.1-.36c1.21 0 2.5.29 3.8.85L12.2-5.12C9.92-3.49 7.72-2.23 5.88-2.23c-.72-.72-1.11-2.7-1.11-5.54zm0 0"/></symbol><symbol overflow="visible" id="8dc91d78Q"><path d="M2.36.13c1.72.15 3.48-.26 3.56-.97.44-3.72 1-7.8 1.49-11.57C8.69-14 10-15.2 11.8-16.3a9.09 9.09 0 011.8 1.87c1.2-.36 2.48-1.64 2.48-2.36 0-.97-.95-2.76-2.52-2.76-1.84 0-3.87 1.8-5.76 4.15l.04-.39c.04-.4.08-.68.08-1 0-1.56-.72-2.48-2.28-2.48-1.56 0-3.23.48-4.56 1.23a2.3 2.3 0 000 1.46c1.15 0 2.23.1 3.4.36l-.36 3.03a199.1 199.1 0 01-2.07 13zm0 0"/></symbol><symbol overflow="visible" id="8dc91d78R"><path d="M10.69.6c5.8 0 9.36-4.04 9.36-9.08 0-3.75-3.13-5.75-6.1-6.88l-3.39-1.33c-1.84-.72-4.08-2.03-4.08-4.26 0-1.33.44-2.13 1.08-2.7.24-.2 1.8-.58 3.49-.58 1.67 0 3.15.15 4.39.51.33 1.28.48 2.56.56 3.88.69.36 1.52.4 2.48.15.47-1.87.75-3.87.8-6.26a23.81 23.81 0 00-7.87-1.46c-4.25 0-9.25 2.1-9.25 7.77 0 4.08 3.56 5.87 6.48 7l2.95 1.16c2.18.84 4.05 2.25 4.05 4.2 0 1.72-.4 2.97-1.28 3.76-.2.2-1.84.93-3.64.93-2.16 0-3.72-.25-5.08-.72a36.38 36.38 0 01-.56-4.85c-.8-.28-1.6-.4-2.49-.15a34.1 34.1 0 00-.95 7.1C3.7-.12 7.08.6 10.7.6zm0 0"/></symbol><symbol overflow="visible" id="8dc91d78S"><path d="M.92.05c1.52 0 3.2-.1 5.16-.1 1.15 0 3.72.05 4.8.1.17-.4.24-1.36.24-2.05a11.9 11.9 0 00-3-.72c-.07-.97-.12-1.92-.12-3v-2.8l2.84-.71C12.44-4.48 15 .44 17.77.44c1.92 0 4.54-.64 5.36-1.08.1-.6-.08-1.31-.44-1.8-.4.08-.9.13-1.28.13-1.41 0-2.13-.49-3.18-1.69a42.74 42.74 0 01-4.39-6.95l4.88-5.25c.97-.11 1.92-.44 2.87-.8 0-.64-.07-1.56-.23-2-1.16.05-2.44.08-3.52.08-2.07 0-4.04-.08-5.36-.08a6.1 6.1 0 00-.32 2.05l2.64.64-3.6 4.15c-.89.4-2.04.85-3.2 1.24v-7.85c0-4.39.05-7.51.16-11.51l-.36-.36c-2.4.16-5.2.72-7.11 1.44-.13.6-.05 1.2.15 1.8 1.04.12 2.11.35 3.16.63v21.85c0 .8-.05 1.36-.16 2.23-.8.28-2.07.56-3.2.69 0 .72.13 1.69.28 2.05zm0 0"/></symbol><symbol overflow="visible" id="8dc91d78T"><path d="M10.2.56c5.8 0 9.16-5.48 9.16-10.36 0-5.51-2.72-9.72-8.72-9.72-5.77 0-9.16 5.47-9.16 10.36C1.48-3.52 4.31.56 10.2.56zm.68-3c-3.93 0-5.32-4.51-5.32-7.8 0-2.32.8-4.4 1.85-5.56.43-.43 1.8-.72 2.54-.72 3.97 0 5.33 4.52 5.33 7.8 0 2.31-.8 4.4-1.84 5.56-.44.47-1.75.72-2.56.72zm0 0"/></symbol><symbol overflow="visible" id="8dc91d78U"><path d="M.92.05c1.52 0 3.2-.1 5.13-.1 1.18 0 3.75.05 4.83.1.17-.4.24-1.36.24-2.05a11.9 11.9 0 00-3-.72c-.07-.97-.12-1.92-.12-3v-13.05c0-4.39.05-7.51.16-11.51l-.36-.36c-2.4.16-5.2.72-7.11 1.44-.13.6-.05 1.2.15 1.8 1.04.12 2.11.35 3.16.63v21.85c0 .8-.05 1.36-.16 2.23-.8.28-2.07.56-3.2.69 0 .72.13 1.69.28 2.05zm0 0"/></symbol><symbol overflow="visible" id="8dc91d78V"><path d="M6.16.56c1.89 0 4.32-1.2 6.43-2.97.46 1.72 1.29 2.97 2.18 2.97 1.59 0 3.59-1.08 4.87-2.28 0-.64-.23-1.16-.64-1.51-.8.18-1.69.43-2.56.54a23.4 23.4 0 01-.16-3.03v-7.36c0-5.51-4.08-6.4-6.51-6.4-2.9 0-5.54.89-7.57 2.12 0 1.56.36 3.2 1.03 4.4.9.27 1.77.09 2.65-.32 0-1.08.04-2.16.32-3.16.96-.25 1.96-.28 2.92-.28 2.47 0 3.08 1.92 3.11 4.8C7.36-11 1.31-8.72 1.31-4.28 1.31-1.2 3.23.56 6.16.56zM5.52-5.4c0-.75.32-1.82.8-2.28.48-.43 3.12-1.1 5.91-1.47v4.64c-1.18.96-2.75 1.75-3.87 1.75C6.4-2.77 5.52-4 5.52-5.4zm0 0"/></symbol><symbol overflow="visible" id="8dc91d78W"><path d="M1.52.05c1.53 0 3.2-.1 5.17-.1 1.54 0 5.03.05 6.51.1.16-.4.24-1.36.24-2.05-1.03-.31-2.96-.6-4.72-.72-.08-.97-.13-1.92-.13-3v-7.33c1.54-2.47 2.9-3.07 4.25-3.07.4 0 .68.04.96.07.25 1.1.4 2.97.51 4.28.77.29 1.64.29 2.49 0 .56-2.23.76-4.23.76-7.07a9.38 9.38 0 00-3.36-.57c-2.48 0-4.32 1.72-5.6 3.7-.16-1-.55-2.73-.8-3.41l-.4-.29c-2.2.18-4.45.77-6.12 1.46-.12.54-.05 1.18.16 1.8 1.04.1 2.12.3 3.15.63v10.6c0 .8-.03 1.36-.15 2.23-.8.28-2.08.56-3.2.69 0 .72.12 1.69.28 2.05zm0 0"/></symbol><symbol overflow="visible" id="8dc91d78aa"><path d="M8.56.6a9.63 9.63 0 009.92-9.68c0-3.2-2.48-5-4.89-6.08l-3-1.36c-1.51-.68-3.28-2.04-3.28-4.07a4.2 4.2 0 011.33-3.13 9.26 9.26 0 013.31-.51c1.57 0 2.9.15 3.97.51.13 1.28.13 2.56.03 3.88.61.36 1.46.4 2.46.15a30.43 30.43 0 001.51-6.26 20.08 20.08 0 00-7.33-1.46C8-27.4 3-24.7 3-19.2c0 3.44 2.84 5.29 5.16 6.34l2.64 1.18c1.89.81 3.28 2.28 3.28 4.1 0 1.18-.36 2.82-1.49 4.03a8.03 8.03 0 01-4 .97c-1.71 0-3.07-.25-4.23-.72-.05-1.74.05-3.38.16-4.85-.8-.28-1.6-.4-2.52-.15C1.2-6.05.6-3.77.16-1.21c1.8 1.08 5 1.8 8.4 1.8zm0 0"/></symbol><symbol overflow="visible" id="8dc91d78ab"><path d="M1.77.13C3.8.28 5.92-.14 6-.93c.28-2.56.6-5.08.92-7.6l4.31 7.24C11.84-.31 12.72.4 13.87.4c2 0 3.97-1.33 5.57-3-.08-.61-.4-1.2-.88-1.61-1.08.48-2.28.89-3.43 1.08l-4.97-7.16c5.2-2.36 8.28-4.67 8.28-7.44 0-1.08-1.52-1.97-4.16-2.05l-.36.36c.64 3.61-2.87 6.05-6.64 8.18.2-1.57.4-3.08.56-4.57l1.44-10.92c.03-.44.08-.76.08-1.08 0-1.64-.84-2.6-2.67-2.6a9.7 9.7 0 00-4.82 1.24c-.18.6-.18 1.2-.03 1.68 1.16 0 2.29.12 3.44.36L3.48-13.2C2.92-8.95 2.28-4.8 1.41-.23zm0 0"/></symbol><symbol overflow="visible" id="8dc91d78ac"><path d="M7.08.64c6.64 0 10.56-5.4 10.56-12.33 0-3.47-1.33-7.9-5.87-7.9C5.16-19.6 1.3-14.2 1.3-7.23 1.31-3.8 2.7.64 7.08.64zm1.84-3c-2.51 0-3.51-2.44-3.51-6.69 0-3.15 1.1-5.72 2.18-6.87.7-.4 1.7-.67 2.57-.67 2.28 0 3.4 2.43 3.4 6.71 0 3-1.15 5.65-2.25 6.83-.6.33-1.54.7-2.39.7zm0 0"/></symbol><symbol overflow="visible" id="8dc91d78ad"><path d="M4.28.48c2.03 0 5-1.68 6.4-3.2a2.51 2.51 0 00-.91-1.6c-1.08.48-2.29.88-3.57 1.16l3.08-23.56c.03-.44.08-.76.08-1.08 0-1.64-.88-2.6-2.72-2.6-1.8 0-3.48.48-4.8 1.24-.15.6-.15 1.2 0 1.68 1.16 0 2.29.12 3.44.36L2.16-4.16C2.08-3.3 2-2.59 2-2.08 2-.59 2.64.48 4.28.48zm0 0"/></symbol><symbol overflow="visible" id="8dc91d78ae"><path d="M5.2.64c2.2 0 4.64-1.4 7-3.6.16 2 .52 3.44 1.88 3.44 2.04 0 4.97-1.68 6.36-3.2a2.39 2.39 0 00-.92-1.6c-1.04.48-2.24.88-3.52 1.16l1.64-12.64c.08-.76.23-1.36.44-2.12a18.94 18.94 0 00-7.49-1.67c-5.82 0-9.28 6.43-9.28 12.95 0 1.44.1 3.05.46 4.4C2.16-.55 3.23.65 5.2.65zm.2-8.52c0-3.92 1.24-7.04 2.6-8.35.56-.2 1.23-.33 2.08-.33 1.08 0 2.33.28 3.48.76L12.23-5.4C10.2-3.88 8.16-2.73 6.36-2.57c-.64-.72-.95-2.64-.95-5.31zm0 0"/></symbol><symbol overflow="visible" id="8dc91d78af"><path d="M2.4.13c2 .15 4.12-.26 4.2-1.05.4-3.52.88-7.24 1.32-10.77a18.1 18.1 0 014.16-4.15 9.15 9.15 0 011.87 1.96c1.4-.53 2.82-1.92 2.82-2.71 0-1.13-1.05-3.13-2.72-3.13-1.9 0-3.9 2.03-5.7 4.64.06-.23.06-.48.09-.69.04-.43.08-.71.08-1.07 0-1.64-.83-2.6-2.64-2.6-1.8 0-3.52.49-4.83 1.24a2.91 2.91 0 000 1.72c1.15 0 2.23.12 3.39.36l-.36 2.92C3.56-8.95 2.88-4.8 2.05-.23zm0 0"/></symbol><symbol overflow="visible" id="8dc91d78ag"><path d="M10.6.6c5.96 0 9.6-4.08 9.6-9.16 0-3.75-3-5.75-5.89-6.92l-3.36-1.4c-1.8-.76-4.03-1.92-4.03-3.96 0-1.2.4-2 1-2.52a8.72 8.72 0 013.08-.52c1.77 0 3.08.16 4.23.52.29 1.23.46 2.48.54 3.8.75.43 1.8.48 2.92.2.43-1.87.67-3.92.72-6.52a23.28 23.28 0 00-8.13-1.53c-4.44 0-9.48 2.18-9.48 7.93 0 4.12 3.28 5.96 6.08 7.07l3.04 1.2C13.23-10.27 15-9 15-7.15c0 1.52-.36 2.6-1.16 3.36-.2.16-1.71.85-3.4.85-2 0-3.49-.25-4.72-.74a44.28 44.28 0 01-.52-4.75 4.7 4.7 0 00-2.97-.2c-.54 2.28-.87 4.6-.95 7.36C3.36-.16 6.92.59 10.6.59zm0 0"/></symbol><symbol overflow="visible" id="8dc91d78ah"><path d="M.8.05c1.51 0 3.25-.1 5.56-.1 1.4 0 4.12.05 5.2.1.16-.46.24-1.57.24-2.33a11.9 11.9 0 00-3-.72c-.08-.95-.11-1.92-.11-3v-2.56l2.67-.67c1.77 4.75 4.2 9.67 6.92 9.67 2.2 0 4.92-.72 5.77-1.2.1-.72-.1-1.47-.46-2.04-.39.08-.87.11-1.23.11-1.36 0-2-.47-3-1.6A48.21 48.21 0 0115-11.07l4.6-5c1.04-.12 2.12-.44 3.12-.8a9.4 9.4 0 00-.24-2.28c-1.17.04-2.48.08-3.68.08-2.52 0-4.57-.08-5.96-.08-.2.57-.32 1.52-.32 2.32l2.76.68-3.44 3.85-3.15 1.03v-7.44c0-4.4.03-7.51.15-11.51l-.43-.41c-2.64.12-5.49.6-7.85 1.44-.15.72-.08 1.4.16 2.07 1.05.13 2.12.36 3.16.65V-5.2c0 .8-.04 1.36-.16 2.25-.8.26-2.08.54-3.2.67C.52-1.44.64-.36.8.05zm0 0"/></symbol><symbol overflow="visible" id="8dc91d78ai"><path d="M10.36.56c6.05 0 9.52-5.51 9.52-10.44 0-5.6-2.83-9.8-9-9.8-6.04 0-9.52 5.52-9.52 10.45 0 5.67 2.95 9.8 9 9.8zm.69-3.4c-3.57 0-4.82-4.32-4.82-7.44 0-2.24.72-4.24 1.7-5.36.35-.44 1.55-.64 2.27-.64 3.57 0 4.8 4.33 4.8 7.44 0 2.25-.72 4.2-1.69 5.32-.36.47-1.54.68-2.26.68zm0 0"/></symbol><symbol overflow="visible" id="8dc91d78aj"><path d="M.8.05c1.51 0 3.25-.1 5.48-.1 1.49 0 4.2.05 5.28.1.16-.46.24-1.57.24-2.33a11.9 11.9 0 00-3-.72c-.08-.95-.11-1.92-.11-3v-12.72c0-4.4.03-7.51.15-11.51l-.43-.41c-2.64.12-5.49.6-7.85 1.44-.15.72-.08 1.4.16 2.07 1.05.13 2.12.36 3.16.65V-5.2c0 .8-.04 1.36-.16 2.25-.8.26-2.08.54-3.2.67C.52-1.44.64-.36.8.05zm0 0"/></symbol><symbol overflow="visible" id="8dc91d78ak"><path d="M6.48.56c1.93 0 4.2-1.15 6.16-2.76.56 1.64 1.48 2.76 2.4 2.76 1.88 0 4-1.2 5.37-2.56 0-.69-.33-1.23-.72-1.6-.85.2-1.69.4-2.57.52A22.9 22.9 0 0116.95-6v-7.2c0-5.57-4.23-6.44-6.72-6.44-3 0-5.92.87-8.1 2.16 0 1.76.43 3.4 1.15 4.6 1.03.29 2.03.08 3.03-.4 0-1.03.05-2.13.33-3.08.88-.2 1.84-.23 2.72-.23 2.12 0 2.72 1.8 2.8 4.43-4.68 1-10.93 3.4-10.93 7.8C1.23-1.2 3.2.56 6.48.56zM6.2-5.59c0-.72.32-1.77.8-2.18.4-.36 2.77-.92 5.16-1.23v4.44c-1.08.8-2.36 1.43-3.29 1.43-1.8 0-2.67-1.15-2.67-2.46zm0 0"/></symbol><symbol overflow="visible" id="8dc91d78al"><path d="M1.48.05c1.52 0 3.29-.1 5.6-.1 1.84 0 5.4.05 6.84.1.2-.46.28-1.57.28-2.33-1.04-.31-3-.6-4.72-.72-.07-.95-.12-1.92-.12-3v-6.84c1.4-2.29 2.8-3 3.95-3 .33 0 .56 0 .85.04.25 1.03.43 2.88.56 4.11.92.38 2 .38 3 0 .6-2.19.76-4.44.76-7.31-.96-.36-2.12-.56-3.53-.56-2.47 0-4.3 1.64-5.6 3.51-.2-.95-.63-2.6-.91-3.26l-.49-.33c-2.39.2-4.75.72-6.72 1.44-.15.68-.07 1.4.18 2.12 1.03.13 2.1.31 3.15.64V-5.2c0 .8-.04 1.36-.15 2.25-.82.26-2.1.54-3.2.67 0 .84.1 1.92.27 2.33zm0 0"/></symbol><symbol overflow="visible" id="8dc91d78an"><path d="M8.92.6c6.13 0 10.13-4.68 10.13-9.65 0-3.23-2.46-5.07-4.77-6.18l-2.97-1.46c-1.47-.67-3.15-1.9-3.15-3.83a4.1 4.1 0 011.15-2.92 9.5 9.5 0 013-.43c1.56 0 2.74.15 3.74.51.07 1.23.07 2.48 0 3.8.72.43 1.72.48 2.9.2.61-1.87 1.13-3.92 1.49-6.52a20.15 20.15 0 00-7.6-1.53c-4.84 0-9.8 2.85-9.8 8.33 0 3.36 2.6 5.31 4.76 6.36l2.68 1.28c1.96.92 3.36 2.28 3.36 3.96 0 .92-.25 2.53-1.32 3.68-1.08.52-2.11.85-3.6.85a9.28 9.28 0 01-4-.74c-.04-1.72.03-3.31.16-4.75a4.77 4.77 0 00-3-.2C1.28-6.36.68-4.04.23-1.28 2.08-.16 5.41.59 8.93.59zm0 0"/></symbol><symbol overflow="visible" id="8dc91d78ao"><path d="M1.56.13c2.36.18 4.88-.2 5-1.18.24-2.51.57-5 .85-7.47l4 7.16C12.08-.3 13.05.41 14.28.41c2.24 0 4.52-1.36 6.13-3.05a3.4 3.4 0 00-1.05-1.88c-1.05.47-2.16.83-3.23 1.04l-4.93-7.08c5.03-2.28 8.08-4.52 8.08-7.2 0-1.2-1.76-2.08-4.76-2.16l-.4.4c.6 3.52-2.56 5.72-6.28 7.75.16-1.36.32-2.71.52-4.03l1.4-10.76c.08-.44.08-.75.08-1.13 0-1.72-.96-2.72-3.12-2.72-2.13 0-3.8.49-5.13 1.2a3.95 3.95 0 00-.03 2c1.16 0 2.24.13 3.44.41L3.16-13.2C2.59-8.95 2-4.84 1.12-.28zm0 0"/></symbol><symbol overflow="visible" id="8dc91d78ap"><path d="M7.23.64c6.93 0 11-5.44 11-12.44 0-3.51-1.51-7.97-6.1-7.97-6.85 0-10.85 5.46-10.85 12.46C1.28-3.84 2.8.64 7.23.64zm2.05-3.4c-2.23 0-3.12-2.2-3.12-6.29 0-3.07 1-5.67 2-6.8.56-.3 1.4-.5 2.15-.5 2.05 0 3 2.15 3 6.3 0 2.93-1 5.61-1.95 6.77-.56.28-1.4.51-2.08.51zm0 0"/></symbol><symbol overflow="visible" id="8dc91d78aq"><path d="M4.31.48c2.28 0 5.46-1.68 6.9-3.25a2.48 2.48 0 00-1.05-1.82c-1.04.43-2.2.87-3.4 1.1l2.96-23.07c.08-.44.08-.75.08-1.13 0-1.72-1-2.72-3.16-2.72-2.08 0-3.76.49-5.08 1.2a3.29 3.29 0 00-.08 2c1.16 0 2.29.13 3.44.41L1.95-4.3c-.1.75-.18 1.51-.18 2.15 0 1.68.8 2.64 2.54 2.64zm0 0"/></symbol><symbol overflow="visible" id="8dc91d78ar"><path d="M5.36.64c2.33 0 4.6-1.33 6.84-3.4.2 1.88.64 3.24 2.16 3.24 2.4 0 5.44-1.64 6.92-3.25a2.51 2.51 0 00-1.08-1.82c-1 .46-2.15.87-3.4 1.1l1.6-12.3c.08-.77.24-1.37.44-2.13a19.32 19.32 0 00-8-1.85c-5.92 0-9.56 6.49-9.56 13.05 0 1.49.03 3.13.4 4.52C2.14-.52 3.2.64 5.37.64zm.8-8.69c0-3.87 1-6.75 2.2-8 .6-.18 1.28-.3 2.05-.3 1 0 2.07.27 3.15.66l-1.28 9.97c-1.8 1.4-3.64 2.49-5.36 2.8-.51-.72-.76-2.64-.76-5.13zm0 0"/></symbol><symbol overflow="visible" id="8dc91d78as"><path d="M2.44.13C4.77.3 7.28-.08 7.4-1.05c.36-3.26.75-6.6 1.15-9.8a19.95 19.95 0 013.8-4.43c.84.6 1.56 1.36 2.05 2.05 1.64-.7 3.18-2.2 3.18-3.13 0-1.36-1.1-3.52-3.03-3.52-1.84 0-3.8 2.24-5.51 5.08l.1-.97c.08-.43.08-.75.08-1.1 0-1.72-1-2.72-3.1-2.72-2.08 0-3.77.46-5.08 1.23-.25.72-.2 1.44-.05 2 1.16 0 2.23.13 3.4.4l-.35 2.76C3.52-8.95 2.88-4.84 2-.28zm0 0"/></symbol><symbol overflow="visible" id="8dc91d78at"><path d="M10.52.6c6.12 0 9.89-4.12 9.89-9.24 0-3.8-2.9-5.77-5.7-7l-3.27-1.48c-1.75-.8-3.96-1.75-3.96-3.6 0-1.08.36-1.84.93-2.28a6.96 6.96 0 012.59-.48c1.77 0 2.92.17 3.95.53.25 1.23.4 2.47.49 3.75.92.48 2.12.56 3.48.2.36-1.88.6-3.95.64-6.8-2.4-1-5.84-1.6-8.43-1.6-4.65 0-9.77 2.27-9.77 8.12 0 4.2 2.92 6.08 5.64 7.2l3.08 1.24c2.51 1 4.12 2.12 4.12 3.8 0 1.32-.28 2.24-1 2.88-.2.16-1.6.75-3.12.75-1.8 0-3.13-.28-4.28-.75a55.75 55.75 0 01-.44-4.68 5.79 5.79 0 00-3.56-.2 34.74 34.74 0 00-.96 7.68C3-.2 6.72.6 10.52.6zm0 0"/></symbol><symbol overflow="visible" id="8dc91d78au"><path d="M.64.05c1.52 0 3.28-.1 6.08-.1 1.69 0 4.56.05 5.64.1a13 13 0 00.23-2.7c-.71-.3-1.9-.58-3-.7-.07-.96-.1-1.93-.1-3v-2.3L12-9.22C13.92-4.52 16.23.48 18.92.48c2.52 0 5.31-.84 6.24-1.4.12-.8-.08-1.67-.44-2.31-.4.07-.84.1-1.2.1-1.24 0-1.8-.43-2.75-1.56-1.25-1.43-3-4.18-4.29-6.54l4.24-4.7c1.12-.12 2.28-.43 3.4-.79 0-.87-.07-2.12-.25-2.69-1.15.05-2.51.1-3.92.1-3 0-5.18-.1-6.67-.1-.2.64-.33 1.77-.33 2.7l2.97.71-3.28 3.44c-1.08.28-2.12.6-3.16.87v-6.95c0-4.4.04-7.52.16-11.52l-.48-.48c-2.96.08-5.88.48-8.75 1.48-.18.85-.1 1.64.15 2.44 1.03.13 2.13.36 3.16.64v20.52c0 .8-.03 1.36-.16 2.25-.8.26-2.08.54-3.2.67 0 .95.12 2.2.28 2.69zm0 0"/></symbol><symbol overflow="visible" id="8dc91d78av"><path d="M10.6.56c6.28 0 9.92-5.6 9.92-10.56 0-5.64-2.96-9.92-9.4-9.92-6.28 0-9.92 5.6-9.92 10.56C1.2-3.59 4.28.56 10.6.56zm.6-3.87c-3.04 0-4.12-4.1-4.12-7.05 0-2.12.6-4 1.44-5.08.32-.44 1.36-.6 2-.6 3.04 0 4.12 4.09 4.12 7.04 0 2.13-.6 4-1.44 5.08-.32.44-1.36.6-2 .6zm0 0"/></symbol><symbol overflow="visible" id="8dc91d78aw"><path d="M.64.05c1.52 0 3.28-.1 5.95-.1 1.82 0 4.7.05 5.77.1a13 13 0 00.23-2.7c-.71-.3-1.9-.58-3-.7-.07-.96-.1-1.93-.1-3v-12.3c0-4.4.03-7.5.15-11.5l-.48-.5c-2.96.09-5.88.5-8.75 1.5-.18.84-.1 1.63.15 2.43 1.03.13 2.13.36 3.16.64v20.52c0 .8-.03 1.36-.16 2.25-.8.26-2.08.54-3.2.67 0 .95.12 2.2.28 2.69zm0 0"/></symbol><symbol overflow="visible" id="8dc91d78ax"><path d="M6.84.56c1.96 0 4.11-1.08 5.93-2.51C13.44-.48 14.4.56 15.44.56c2.15 0 4.4-1.36 5.84-2.87 0-.77-.33-1.38-.8-1.74-.84.2-1.64.36-2.56.46-.05-.9-.08-2-.08-2.77v-7c0-5.6-4.43-6.52-7-6.52-3.2 0-6.4.88-8.8 2.29 0 1.95.48 3.59 1.32 4.8 1.2.27 2.33.07 3.52-.5 0-1 .04-2.02.32-3 .75-.12 1.64-.15 2.4-.15 1.8 0 2.35 1.64 2.48 4C7.48-11.3 1.16-8.8 1.16-4.48 1.16-1.16 3.13.56 6.84.56zm.2-6.44c0-.64.27-1.64.76-2 .4-.28 2.28-.68 4.28-.92v4.2a5.36 5.36 0 01-2.6 1.04c-1.6 0-2.43-1.13-2.43-2.31zm0 0"/></symbol><symbol overflow="visible" id="8dc91d78ay"><path d="M1.48.05c1.52 0 3.29-.1 6.08-.1 2.16 0 5.88.05 7.28.1.2-.53.32-1.82.32-2.7-1.11-.3-3.04-.58-4.72-.7-.08-.96-.13-1.93-.13-3v-6.24c1.2-2 2.64-2.93 3.61-2.93.24 0 .44 0 .67.04.25.96.49 2.76.61 3.92 1.08.44 2.49.44 3.64 0 .64-2.16.8-4.72.8-7.6a9.75 9.75 0 00-3.72-.64c-2.51 0-4.33 1.57-5.64 3.4-.23-.91-.72-2.48-1.05-3.16l-.64-.32c-2.59.16-5.07.65-7.36 1.44-.23.75-.15 1.64.18 2.44 1.03.13 2.1.31 3.15.64v9.8c0 .8-.04 1.36-.15 2.25-.82.26-2.1.54-3.2.67 0 .95.1 2.2.27 2.69zm0 0"/></symbol><symbol overflow="visible" id="8dc91d78aA"><path d="M9.31.6c6.2 0 10.4-4.72 10.4-9.65 0-3.23-2.35-5.15-4.59-6.3l-2.89-1.5c-1.43-.71-3.07-1.84-3.07-3.59 0-1.08.36-1.84 1.04-2.6.8-.27 1.68-.44 2.57-.44 1.51 0 2.51.17 3.43.53.03 1.23.03 2.47-.07 3.75.87.48 2.07.56 3.46.2a44.94 44.94 0 001.46-6.8c-2.18-1-5.4-1.6-7.9-1.6-5.1 0-10.1 3-10.1 8.48 0 3.2 2.3 5.4 4.3 6.4l2.78 1.4c2.07 1.04 3.39 2.28 3.39 3.8 0 .55-.08 2.09-1.11 3.24a6.91 6.91 0 01-3.1.67c-1.62 0-2.8-.28-3.75-.75 0-1.68.08-3.25.2-4.68a5.76 5.76 0 00-3.56-.2C1.4-6.78.8-4.42.31-1.37 2.23-.2 5.7.6 9.31.6zm0 0"/></symbol><symbol overflow="visible" id="8dc91d78aB"><path d="M1.28.13c2.8.18 5.84-.2 5.95-1.29.25-2.48.54-4.92.82-7.28l3.6 6.96A3.63 3.63 0 0014.8.4c2.51 0 5.15-1.46 6.8-3.1a4.13 4.13 0 00-1.29-2.23c-.95.48-2 .84-3 1.04l-4.87-7.07c4.87-2.13 7.87-4.25 7.87-6.82 0-1.43-2.08-2.3-5.47-2.39l-.48.47c.6 3.46-2.23 5.4-5.84 7.38.12-1.17.28-2.33.43-3.49l1.4-10.56c.09-.48.09-.8.09-1.16 0-1.84-1.16-2.89-3.72-2.89-2.44 0-4.16.49-5.49 1.2a4.9 4.9 0 00-.07 2.37c1.15 0 2.25.12 3.43.4L2.8-13.2A245 245 0 01.8-.36zm0 0"/></symbol><symbol overflow="visible" id="8dc91d78aC"><path d="M7.44.64c7.28 0 11.51-5.51 11.51-12.6 0-3.52-1.72-8.04-6.36-8.04C5.41-20 1.2-14.48 1.2-7.4 1.2-3.88 2.95.63 7.44.63zm2.25-3.87c-1.85 0-2.61-1.93-2.61-5.85 0-2.97.87-5.6 1.72-6.69a4.23 4.23 0 011.72-.36c1.71 0 2.56 1.93 2.56 5.9 0 2.8-.88 5.51-1.72 6.64-.44.18-1.13.36-1.67.36zm0 0"/></symbol><symbol overflow="visible" id="8dc91d78aD"><path d="M4.31.48c2.64 0 6-1.64 7.53-3.25A3 3 0 0010.64-5c-.95.44-2.08.88-3.23 1.16l2.87-22.52c.08-.48.08-.8.08-1.16 0-1.84-1.2-2.89-3.77-2.89a11 11 0 00-5.43 1.2 4.9 4.9 0 00-.08 2.37c1.15 0 2.23.12 3.4.4L1.68-4.52c-.09.72-.16 1.44-.16 2.24 0 1.92.96 2.76 2.8 2.76zm0 0"/></symbol><symbol overflow="visible" id="8dc91d78aE"><path d="M5.56.64c2.44 0 4.52-1.2 6.67-3.16.2 1.75.72 3 2.54 3 2.8 0 6-1.56 7.51-3.25A3 3 0 0021.08-5c-.95.48-2.08.88-3.24 1.16l1.52-11.96c.08-.76.23-1.36.44-2.12A20.13 20.13 0 0011.08-20C5.12-20 1.2-13.44 1.2-6.8c0 1.52.03 3.2.4 4.6C2.07-.52 3.2.64 5.55.64zM7.08-8.2c0-3.85.76-6.44 1.72-7.6a8.82 8.82 0 012-.28c.89 0 1.8.2 2.72.56l-1.2 9.47A14.2 14.2 0 017.58-3.4c-.36-.71-.51-2.54-.51-4.8zm0 0"/></symbol><symbol overflow="visible" id="8dc91d78aF"><path d="M2.48.13c2.75.18 5.75-.2 5.88-1.29l.95-8.71c1.05-1.9 2.2-3.33 3.46-4.7.82.57 1.64 1.41 2.18 2.13 1.9-.87 3.64-2.6 3.64-3.64 0-1.6-1.23-4.05-3.36-4.05-1.82 0-3.71 2.49-5.36 5.57.08-.4.13-.75.18-1.16.07-.48.07-.8.07-1.2 0-1.85-1.17-2.92-3.68-2.92-2.4 0-4.13.48-5.44 1.25-.28.87-.2 1.71-.05 2.39a14 14 0 013.4.4L4-13.2A245 245 0 012-.36zm0 0"/></symbol></defs><use xlink:href="#8dc91d78a" x="46.81875" y="72.4672"/><use xlink:href="#8dc91d78b" x="68.61875" y="72.4672"/><use xlink:href="#8dc91d78c" x="89.45875" y="72.4672"/><use xlink:href="#8dc91d78d" x="109.61875" y="72.4672"/><use xlink:href="#8dc91d78e" x="120.61875" y="72.4672"/><use xlink:href="#8dc91d78f" x="139.69875" y="72.4672"/><g fill-opacity=".33"><use xlink:href="#8dc91d78g" x="51.45875" y="113.9344"/><use xlink:href="#8dc91d78h" x="58.12575" y="113.9344"/><use xlink:href="#8dc91d78i" x="64.79275" y="113.9344"/><use xlink:href="#8dc91d78j" x="71.45975" y="113.9344"/><use xlink:href="#8dc91d78k" x="78.12675" y="113.9344"/><use xlink:href="#8dc91d78l" x="84.79375" y="113.9344"/><use xlink:href="#8dc91d78m" x="91.46075" y="113.9344"/><use xlink:href="#8dc91d78n" x="98.12775" y="113.9344"/><use xlink:href="#8dc91d78o" x="104.79475" y="113.9344"/><use xlink:href="#8dc91d78m" x="111.46175" y="113.9344"/><use xlink:href="#8dc91d78p" x="118.12875" y="113.9344"/><use xlink:href="#8dc91d78q" x="124.79575" y="113.9344"/><use xlink:href="#8dc91d78r" x="131.46275" y="113.9344"/><use xlink:href="#8dc91d78s" x="138.12975" y="113.9344"/><use xlink:href="#8dc91d78t" x="144.79675" y="113.9344"/></g><use xlink:href="#8dc91d78u" x="247.70125" y="72.4672"/><use xlink:href="#8dc91d78v" x="267.66125" y="72.4672"/><use xlink:href="#8dc91d78w" x="285.62125" y="72.4672"/><use xlink:href="#8dc91d78x" x="303.58125" y="72.4672"/><use xlink:href="#8dc91d78y" x="314.26125" y="72.4672"/><use xlink:href="#8dc91d78z" x="334.10125" y="72.4672"/><g fill-opacity=".33"><use xlink:href="#8dc91d78g" x="225.20792" y="113.9344"/><use xlink:href="#8dc91d78h" x="231.87492" y="113.9344"/><use xlink:href="#8dc91d78i" x="238.54192" y="113.9344"/><use xlink:href="#8dc91d78j" x="245.20892" y="113.9344"/><use xlink:href="#8dc91d78k" x="251.87592" y="113.9344"/><use xlink:href="#8dc91d78l" x="258.54292" y="113.9344"/><use xlink:href="#8dc91d78m" x="265.20992" y="113.9344"/><use xlink:href="#8dc91d78n" x="271.87692" y="113.9344"/><use xlink:href="#8dc91d78o" x="278.54392" y="113.9344"/><use xlink:href="#8dc91d78m" x="285.21092" y="113.9344"/><use xlink:href="#8dc91d78p" x="291.87792" y="113.9344"/><use xlink:href="#8dc91d78q" x="298.54492" y="113.9344"/><use xlink:href="#8dc91d78r" x="305.21192" y="113.9344"/><use xlink:href="#8dc91d78s" x="311.87892" y="113.9344"/><use xlink:href="#8dc91d78t" x="318.54592" y="113.9344"/><use xlink:href="#8dc91d78m" x="325.21292" y="113.9344"/><use xlink:href="#8dc91d78A" x="331.87992" y="113.9344"/><use xlink:href="#8dc91d78t" x="338.54692" y="113.9344"/><use xlink:href="#8dc91d78k" x="345.21392" y="113.9344"/><use xlink:href="#8dc91d78j" x="351.88092" y="113.9344"/><use xlink:href="#8dc91d78q" x="358.54792" y="113.9344"/><use xlink:href="#8dc91d78B" x="365.21492" y="113.9344"/></g><use xlink:href="#8dc91d78C" x="45.25875" y="190.7336"/><use xlink:href="#8dc91d78D" x="67.01875" y="190.7336"/><use xlink:href="#8dc91d78E" x="88.89875" y="190.7336"/><use xlink:href="#8dc91d78F" x="109.41875" y="190.7336"/><use xlink:href="#8dc91d78G" x="120.93875" y="190.7336"/><use xlink:href="#8dc91d78H" x="140.41875" y="190.7336"/><g fill-opacity=".33"><use xlink:href="#8dc91d78g" x="44.79208" y="232.2008"/><use xlink:href="#8dc91d78h" x="51.45908" y="232.2008"/><use xlink:href="#8dc91d78i" x="58.12608" y="232.2008"/><use xlink:href="#8dc91d78j" x="64.79308" y="232.2008"/><use xlink:href="#8dc91d78k" x="71.46008" y="232.2008"/><use xlink:href="#8dc91d78l" x="78.12708" y="232.2008"/><use xlink:href="#8dc91d78m" x="84.79408" y="232.2008"/><use xlink:href="#8dc91d78n" x="91.46108" y="232.2008"/><use xlink:href="#8dc91d78o" x="98.12808" y="232.2008"/><use xlink:href="#8dc91d78m" x="104.79508" y="232.2008"/><use xlink:href="#8dc91d78I" x="111.46208" y="232.2008"/><use xlink:href="#8dc91d78J" x="118.12908" y="232.2008"/><use xlink:href="#8dc91d78r" x="124.79608" y="232.2008"/><use xlink:href="#8dc91d78K" x="131.46308" y="232.2008"/><use xlink:href="#8dc91d78j" x="138.13008" y="232.2008"/><use xlink:href="#8dc91d78k" x="144.79708" y="232.2008"/><use xlink:href="#8dc91d78l" x="151.46408" y="232.2008"/></g><use xlink:href="#8dc91d78L" x="245.94125" y="190.7336"/><use xlink:href="#8dc91d78M" x="266.34125" y="190.7336"/><use xlink:href="#8dc91d78N" x="285.10125" y="190.7336"/><use xlink:href="#8dc91d78O" x="303.58125" y="190.7336"/><use xlink:href="#8dc91d78P" x="314.62125" y="190.7336"/><use xlink:href="#8dc91d78Q" x="335.06125" y="190.7336"/><g fill-opacity=".33"><use xlink:href="#8dc91d78g" x="245.20792" y="232.2008"/><use xlink:href="#8dc91d78h" x="251.87492" y="232.2008"/><use xlink:href="#8dc91d78i" x="258.54192" y="232.2008"/><use xlink:href="#8dc91d78j" x="265.20892" y="232.2008"/><use xlink:href="#8dc91d78k" x="271.87592" y="232.2008"/><use xlink:href="#8dc91d78l" x="278.54292" y="232.2008"/><use xlink:href="#8dc91d78m" x="285.20992" y="232.2008"/><use xlink:href="#8dc91d78n" x="291.87692" y="232.2008"/><use xlink:href="#8dc91d78o" x="298.54392" y="232.2008"/><use xlink:href="#8dc91d78m" x="305.21092" y="232.2008"/><use xlink:href="#8dc91d78A" x="311.87792" y="232.2008"/><use xlink:href="#8dc91d78t" x="318.54492" y="232.2008"/><use xlink:href="#8dc91d78k" x="325.21192" y="232.2008"/><use xlink:href="#8dc91d78j" x="331.87892" y="232.2008"/><use xlink:href="#8dc91d78q" x="338.54592" y="232.2008"/><use xlink:href="#8dc91d78B" x="345.21292" y="232.2008"/></g><use xlink:href="#8dc91d78R" x="43.83875" y="309"/><use xlink:href="#8dc91d78S" x="65.55875" y="309"/><g><use xlink:href="#8dc91d78T" x="88.27875" y="309"/><use xlink:href="#8dc91d78U" x="109.11875" y="309"/><use xlink:href="#8dc91d78V" x="121.11875" y="309"/><use xlink:href="#8dc91d78W" x="141.11875" y="309"/></g><g fill-opacity=".33"><use xlink:href="#8dc91d78g" x="48.12542" y="350.4672"/><use xlink:href="#8dc91d78h" x="54.79242" y="350.4672"/><use xlink:href="#8dc91d78i" x="61.45942" y="350.4672"/><use xlink:href="#8dc91d78j" x="68.12642" y="350.4672"/><use xlink:href="#8dc91d78k" x="74.79342" y="350.4672"/><use xlink:href="#8dc91d78l" x="81.46042" y="350.4672"/><use xlink:href="#8dc91d78m" x="88.12742" y="350.4672"/><use xlink:href="#8dc91d78n" x="94.79442" y="350.4672"/><use xlink:href="#8dc91d78o" x="101.46142" y="350.4672"/><use xlink:href="#8dc91d78m" x="108.12842" y="350.4672"/><use xlink:href="#8dc91d78X" x="114.79542" y="350.4672"/><use xlink:href="#8dc91d78J" x="121.46242" y="350.4672"/><use xlink:href="#8dc91d78Y" x="128.12942" y="350.4672"/><use xlink:href="#8dc91d78q" x="134.79642" y="350.4672"/><use xlink:href="#8dc91d78K" x="141.46342" y="350.4672"/><use xlink:href="#8dc91d78Z" x="148.13042" y="350.4672"/></g><g><use xlink:href="#8dc91d78aa" x="244.32125" y="309"/><use xlink:href="#8dc91d78ab" x="265.12125" y="309"/></g><g><use xlink:href="#8dc91d78ac" x="284.64125" y="309"/><use xlink:href="#8dc91d78ad" x="303.60125" y="309"/><use xlink:href="#8dc91d78ae" x="314.96125" y="309"/><use xlink:href="#8dc91d78af" x="335.96125" y="309"/></g><g fill-opacity=".33"><use xlink:href="#8dc91d78g" x="221.87458" y="350.4672"/><use xlink:href="#8dc91d78h" x="228.54158" y="350.4672"/><use xlink:href="#8dc91d78i" x="235.20858" y="350.4672"/><use xlink:href="#8dc91d78j" x="241.87558" y="350.4672"/><use xlink:href="#8dc91d78k" x="248.54258" y="350.4672"/><use xlink:href="#8dc91d78l" x="255.20958" y="350.4672"/><use xlink:href="#8dc91d78m" x="261.87658" y="350.4672"/><use xlink:href="#8dc91d78n" x="268.54358" y="350.4672"/><use xlink:href="#8dc91d78o" x="275.21058" y="350.4672"/><use xlink:href="#8dc91d78m" x="281.87758" y="350.4672"/><use xlink:href="#8dc91d78X" x="288.54458" y="350.4672"/><use xlink:href="#8dc91d78J" x="295.21158" y="350.4672"/><use xlink:href="#8dc91d78Y" x="301.87858" y="350.4672"/><use xlink:href="#8dc91d78q" x="308.54558" y="350.4672"/><use xlink:href="#8dc91d78K" x="315.21258" y="350.4672"/><use xlink:href="#8dc91d78Z" x="321.87958" y="350.4672"/><use xlink:href="#8dc91d78m" x="328.54658" y="350.4672"/><use xlink:href="#8dc91d78A" x="335.21358" y="350.4672"/><use xlink:href="#8dc91d78t" x="341.88058" y="350.4672"/><use xlink:href="#8dc91d78k" x="348.54758" y="350.4672"/><use xlink:href="#8dc91d78j" x="355.21458" y="350.4672"/><use xlink:href="#8dc91d78q" x="361.88158" y="350.4672"/><use xlink:href="#8dc91d78B" x="368.54858" y="350.4672"/></g><g><use xlink:href="#8dc91d78ag" x="42.15875" y="427.2664"/><use xlink:href="#8dc91d78ah" x="63.83875" y="427.2664"/></g><g><use xlink:href="#8dc91d78ai" x="87.51875" y="427.2664"/><use xlink:href="#8dc91d78aj" x="108.75875" y="427.2664"/><use xlink:href="#8dc91d78ak" x="121.27875" y="427.2664"/><use xlink:href="#8dc91d78al" x="141.91875" y="427.2664"/></g><g fill-opacity=".33"><use xlink:href="#8dc91d78g" x="41.45875" y="468.7336"/><use xlink:href="#8dc91d78h" x="48.12575" y="468.7336"/><use xlink:href="#8dc91d78i" x="54.79275" y="468.7336"/><use xlink:href="#8dc91d78j" x="61.45975" y="468.7336"/><use xlink:href="#8dc91d78k" x="68.12675" y="468.7336"/><use xlink:href="#8dc91d78l" x="74.79375" y="468.7336"/><use xlink:href="#8dc91d78m" x="81.46075" y="468.7336"/><use xlink:href="#8dc91d78n" x="88.12775" y="468.7336"/><use xlink:href="#8dc91d78o" x="94.79475" y="468.7336"/><use xlink:href="#8dc91d78m" x="101.46175" y="468.7336"/><use xlink:href="#8dc91d78g" x="108.12875" y="468.7336"/><use xlink:href="#8dc91d78J" x="114.79575" y="468.7336"/><use xlink:href="#8dc91d78Z" x="121.46275" y="468.7336"/><use xlink:href="#8dc91d78q" x="128.12975" y="468.7336"/><use xlink:href="#8dc91d78am" x="134.79675" y="468.7336"/><use xlink:href="#8dc91d78i" x="141.46375" y="468.7336"/><use xlink:href="#8dc91d78j" x="148.13075" y="468.7336"/><use xlink:href="#8dc91d78Y" x="154.79775" y="468.7336"/></g><g><use xlink:href="#8dc91d78an" x="242.46125" y="427.2664"/><use xlink:href="#8dc91d78ao" x="263.74125" y="427.2664"/></g><g><use xlink:href="#8dc91d78ap" x="284.14125" y="427.2664"/><use xlink:href="#8dc91d78aq" x="303.62125" y="427.2664"/><use xlink:href="#8dc91d78ar" x="315.34125" y="427.2664"/><use xlink:href="#8dc91d78as" x="336.98125" y="427.2664"/></g><g fill-opacity=".33"><use xlink:href="#8dc91d78g" x="215.207917" y="468.7336"/><use xlink:href="#8dc91d78h" x="221.874917" y="468.7336"/><use xlink:href="#8dc91d78i" x="228.541917" y="468.7336"/><use xlink:href="#8dc91d78j" x="235.208917" y="468.7336"/><use xlink:href="#8dc91d78k" x="241.875917" y="468.7336"/><use xlink:href="#8dc91d78l" x="248.542917" y="468.7336"/><use xlink:href="#8dc91d78m" x="255.209917" y="468.7336"/><use xlink:href="#8dc91d78n" x="261.876917" y="468.7336"/><use xlink:href="#8dc91d78o" x="268.543917" y="468.7336"/><use xlink:href="#8dc91d78m" x="275.210917" y="468.7336"/><use xlink:href="#8dc91d78g" x="281.877917" y="468.7336"/><use xlink:href="#8dc91d78J" x="288.544917" y="468.7336"/><use xlink:href="#8dc91d78Z" x="295.211917" y="468.7336"/><use xlink:href="#8dc91d78q" x="301.878917" y="468.7336"/><use xlink:href="#8dc91d78am" x="308.545917" y="468.7336"/><use xlink:href="#8dc91d78i" x="315.212917" y="468.7336"/><use xlink:href="#8dc91d78j" x="321.879917" y="468.7336"/><use xlink:href="#8dc91d78Y" x="328.546917" y="468.7336"/><use xlink:href="#8dc91d78m" x="335.213917" y="468.7336"/><use xlink:href="#8dc91d78A" x="341.880917" y="468.7336"/><use xlink:href="#8dc91d78t" x="348.547917" y="468.7336"/><use xlink:href="#8dc91d78k" x="355.214917" y="468.7336"/><use xlink:href="#8dc91d78j" x="361.881917" y="468.7336"/><use xlink:href="#8dc91d78q" x="368.548917" y="468.7336"/><use xlink:href="#8dc91d78B" x="375.215917" y="468.7336"/></g><g><use xlink:href="#8dc91d78at" x="40.11875" y="545.5328"/><use xlink:href="#8dc91d78au" x="61.71875" y="545.5328"/></g><g><use xlink:href="#8dc91d78av" x="86.55875" y="545.5328"/><use xlink:href="#8dc91d78aw" x="108.27875" y="545.5328"/><use xlink:href="#8dc91d78ax" x="121.47875" y="545.5328"/><use xlink:href="#8dc91d78ay" x="142.87875" y="545.5328"/></g><g fill-opacity=".33"><use xlink:href="#8dc91d78g" x="54.79208" y="587"/><use xlink:href="#8dc91d78h" x="61.45908" y="587"/><use xlink:href="#8dc91d78i" x="68.12608" y="587"/><use xlink:href="#8dc91d78j" x="74.79308" y="587"/><use xlink:href="#8dc91d78k" x="81.46008" y="587"/><use xlink:href="#8dc91d78l" x="88.12708" y="587"/><use xlink:href="#8dc91d78m" x="94.79408" y="587"/><use xlink:href="#8dc91d78n" x="101.46108" y="587"/><use xlink:href="#8dc91d78o" x="108.12808" y="587"/><use xlink:href="#8dc91d78m" x="114.79508" y="587"/><use xlink:href="#8dc91d78az" x="121.46208" y="587"/><use xlink:href="#8dc91d78i" x="128.12908" y="587"/><use xlink:href="#8dc91d78j" x="134.79608" y="587"/><use xlink:href="#8dc91d78Y" x="141.46308" y="587"/></g><g><use xlink:href="#8dc91d78aA" x="240.16125" y="545.5328"/><use xlink:href="#8dc91d78aB" x="262.00125" y="545.5328"/></g><g><use xlink:href="#8dc91d78aC" x="283.48125" y="545.5328"/><use xlink:href="#8dc91d78aD" x="303.64125" y="545.5328"/><use xlink:href="#8dc91d78aE" x="315.80125" y="545.5328"/><use xlink:href="#8dc91d78aF" x="338.24125" y="545.5328"/></g><g fill-opacity=".33"><use xlink:href="#8dc91d78g" x="228.54125" y="587"/><use xlink:href="#8dc91d78h" x="235.20825" y="587"/><use xlink:href="#8dc91d78i" x="241.87525" y="587"/><use xlink:href="#8dc91d78j" x="248.54225" y="587"/><use xlink:href="#8dc91d78k" x="255.20925" y="587"/><use xlink:href="#8dc91d78l" x="261.87625" y="587"/><use xlink:href="#8dc91d78m" x="268.54325" y="587"/><use xlink:href="#8dc91d78n" x="275.21025" y="587"/><use xlink:href="#8dc91d78o" x="281.87725" y="587"/><use xlink:href="#8dc91d78m" x="288.54425" y="587"/><use xlink:href="#8dc91d78az" x="295.21125" y="587"/><use xlink:href="#8dc91d78i" x="301.87825" y="587"/><use xlink:href="#8dc91d78j" x="308.54525" y="587"/><use xlink:href="#8dc91d78Y" x="315.21225" y="587"/><use xlink:href="#8dc91d78m" x="321.87925" y="587"/><use xlink:href="#8dc91d78A" x="328.54625" y="587"/><use xlink:href="#8dc91d78t" x="335.21325" y="587"/><use xlink:href="#8dc91d78k" x="341.88025" y="587"/><use xlink:href="#8dc91d78j" x="348.54725" y="587"/><use xlink:href="#8dc91d78q" x="355.21425" y="587"/><use xlink:href="#8dc91d78B" x="361.88125" y="587"/></g></svg>