<?xml version='1.0' encoding='UTF-8'?>
<svg xmlns="http://www.w3.org/2000/svg" xmlns:xlink="http://www.w3.org/1999/xlink" width="600px" height="300px" viewBox="0 0 600 300" x="0px" y="0px" enable-background="new 0 0 600 300"><defs><symbol overflow="visible" id="3f99cb0ea"><path d="M2.4.06c2.58 0 4.97-.12 7.62-.12 1.98 0 5.7 0 7.43.12.32-.9.43-1.86.36-2.87a18.48 18.48 0 00-4.86-1.14 46.18 46.18 0 01-.23-4.99V-19.2h7.56c4.02 0 8.16.12 12.36.3v9.24c0 1.86 0 3.9-.3 5.7-1.75.54-3.48.96-5.22 1.15 0 .95.11 1.9.47 2.87 2.6 0 4.99-.12 7.63-.12 1.98 0 5.7 0 7.44.12.3-.9.42-1.86.36-2.87a18.63 18.63 0 00-4.86-1.14 46.18 46.18 0 01-.24-4.99v-16.92c0-4.62 0-7.73.24-10.37 1.8-.2 3.42-.61 4.86-1.15a7.67 7.67 0 00-.36-2.89c-1.74.13-5.46.13-7.44.13-2.64 0-5.03-.13-7.63-.13a8.12 8.12 0 00-.46 2.9c1.73.17 3.46.59 5.21 1.14.18 2.21.3 4.73.3 8.28v5.03H12.72v-2.94c0-4.62 0-7.73.23-10.37a19.8 19.8 0 004.86-1.15 7.37 7.37 0 00-.36-2.89c-1.73.13-5.45.13-7.43.13-2.64 0-5.04-.13-7.61-.13a8.14 8.14 0 00-.49 2.9c1.74.17 3.49.59 5.22 1.14.17 2.21.3 4.73.3 8.28v18.3c0 1.85 0 3.88-.3 5.7-1.73.53-3.48.95-5.22 1.14 0 .95.13 1.9.49 2.87zm0 0"/></symbol><symbol overflow="visible" id="3f99cb0eb"><path d="M10.5-19.14c-2.7 0-5.28.55-7.73 1.73 0 2.64.3 4.57.82 6.49.97.3 1.86.23 2.9 0 .06-1.5.23-3.06.59-4.5.65-.13 1.5-.24 2.15-.24 2.22 0 3.68 1.68 3.68 3.9 0 3-4.7 6.6-10.86 10.74 0 1.44.17 2.82.6 3.96h6c2.8 0 6.9 0 9.35.12l.42-.42c.3-1.08.3-2.52 0-3.6H7.27l2.51-1.62c4.27-2.76 8.1-6.36 8.1-10.56 0-2.88-3-6-7.38-6zm0 0"/></symbol><symbol overflow="visible" id="3f99cb0ec"><path d="M16.08.9c8.51 0 13.73-6 13.73-13.5 0-5.63-4.8-8.7-9.3-10.32l-5.15-1.86c-2.81-1.02-6.23-3.24-6.23-6.78 0-2.1.71-3.36 1.73-4.25.36-.31 2.87-.97 5.7-.97 2.52 0 4.92.23 6.9.78.48 1.92.73 3.84.9 5.88.84.48 1.92.54 3.12.25A36.52 36.52 0 0028.8-39a34.86 34.86 0 00-11.58-2.1c-6.13 0-13.56 3-13.56 11.4 0 6.06 5.76 8.76 10.2 10.43l4.37 1.7c3.07 1.13 6 3.41 6 6.52 0 2.83-.65 4.82-2.03 6.13-.3.3-2.89 1.5-5.76 1.5-3.42 0-5.94-.36-8.1-1.08-.48-2.64-.71-5.1-.84-7.31a5.14 5.14 0 00-3.19-.25A50.92 50.92 0 002.88-1.73C5.88-.13 10.86.9 16.07.9zm0 0"/></symbol><symbol overflow="visible" id="3f99cb0ed"><path d="M20.16 1.08c11.46 0 18.54-11.46 18.54-21.9 0-11.52-6.18-20.46-17.47-20.46-11.45 0-18.53 11.51-18.53 21.9C2.7-7.91 8.77 1.09 20.16 1.09zm1.68-4.31c-9.71 0-13.68-8.83-13.68-18.72 0-6.36 2.64-10.82 4.86-12.97 1.14-1.14 4.68-2.03 6.54-2.03 9.72 0 13.67 8.8 13.67 18.72 0 6.36-2.64 10.8-4.85 12.95-1.15 1.14-4.68 2.05-6.54 2.05zm0 0"/></symbol><symbol overflow="visible" id="3f99cb0ee"><path d="M11.34 3.42a10 10 0 004.14-.9v-5.16h3.83a7 7 0 00.19-2.81l-4.02-.32v-12.3c-1.32-.59-2.76-.84-4.26-.84L1.44-5.87c0 1.18.19 2.28.72 3.23h8.76V3zm-.6-16.62l.18-.24v7.8H4.98l4.68-6.17zm0 0"/></symbol><symbol overflow="visible" id="3f99cb0eg"><path d="M3-7.98c0 5.7 1.98 11.46 7.14 17.82.95-.12 1.8-.6 2.52-1.39C9 2.28 7.92-3 7.92-7.56c0-5.35 1.14-10.44 4.74-16.63-.47-.76-1.32-1.25-2.46-1.43C4.98-19.2 3-13.56 3-7.98zm0 0"/></symbol><symbol overflow="visible" id="3f99cb0eh"><path d="M1.31-5.52c0 4.8 3.67 9 9.25 9 5.64 0 8.81-3.18 8.81-8.17 0-3.76-3.53-7.08-7.73-10.01-2.83-1.99-4.8-3.53-4.8-4.74 0-.42.18-.78.3-.9.24-.18.95-.47 1.92-.47 3 0 5.22 1.97 7.92 4.97a4.42 4.42 0 002.75-2.04c-2.15-4.26-5.45-6.6-9.71-6.6-3.72 0-6.6 2.4-6.6 5.46 0 2.46 1.86 4.2 4.27 6v.11C3.42-11.77 1.3-8.87 1.3-5.5zM7.62-.19a7.33 7.33 0 01-1.68-4.97 6.24 6.24 0 014.14-6.12c2.83 2.15 4.44 4.33 4.44 6.72C14.52-1.63 12.55.3 9.95.3 9.06.3 7.98.19 7.63-.2zm0 0"/></symbol><symbol overflow="visible" id="3f99cb0ei"><path d="M14.81-10.14a3.4 3.4 0 001.14-3.6c-1.86-.78-3.82-1.03-6.36-1.03-4.3 0-7.37 2.22-7.37 5.22 0 1.5.65 2.9 2.1 3.85-1.62 1.26-2.4 2.76-2.4 4.39 0 2.75 2.22 4.8 6.49 4.8 3.59 0 6.46-1.15 8.75-2.83a2.94 2.94 0 00-1.32-2.4A19.52 19.52 0 019.06-.35c-2.34 0-3.84-.9-3.84-2.16 0-.6.36-1.26 1.08-1.75 1.2.25 2.51.32 3.84.32.72 0 1.44 0 2.1-.07a5.46 5.46 0 00.06-3.48l-.49-.48-5.26.78c-.78-.36-1.1-.9-1.1-1.44 0-1.02 1.46-2.28 4.4-2.28 1.56 0 3.06.19 4.96.78zm0 0"/></symbol><symbol overflow="visible" id="3f99cb0ej"><path d="M2.58-.55c0 2.4 1.01 4.03 2.83 4.03 1.9 0 3.65-1.03 5.09-2.34a4.37 4.37 0 00-1.14-2.76c-.9.25-2.16.48-3.23.54.06-4.56.42-8.47 1.14-13.01a8.64 8.64 0 00-2.58-.36c-.9 0-1.82.1-2.6.36.32 5.03.49 9.17.49 13.54zm0 0"/></symbol><symbol overflow="visible" id="3f99cb0ek"><path d="M2.88 2.81l.35.38c1.63-.06 3.13-.38 4.27-.85a21.3 21.3 0 014.27-7.68c1.25 4.98 2.64 8.82 4.3 8.82 1.63 0 3.62-1.07 4.87-2.34a4.1 4.1 0 00-1.14-2.76c-.96.25-2.1.48-3.24.54a25.12 25.12 0 01-2.58-6.36 20.56 20.56 0 015.7-3.12c0-1.92-.73-3.36-2.23-4.08-5.51 1.33-9 7.02-11.1 13.73h-.12c.2-4.54.43-8.39 1.33-13.18a9.68 9.68 0 00-5.15 0c.36 5.21.46 10.6.46 16.9zm0 0"/></symbol><symbol overflow="visible" id="3f99cb0el"><path d="M19.02-9.72l.36-.42c.06-1.56-.3-3-1.15-4.2-2.21.06-3.71.06-5.87.06H7.92c-3.23 0-5.7.97-7.44 2.76a3.94 3.94 0 001.44 2.7c1.67-.66 3.72-.9 6.42-.9v9.17c0 2.35.9 4.03 2.64 4.03 1.68 0 3.6-.96 5.04-2.34 0-1.01-.43-2.05-1.14-2.76-.9.25-2.16.48-3.3.54v-8.64zm0 0"/></symbol><symbol overflow="visible" id="3f99cb0em"><path d="M22.38 11.77c-.3-5.83-.36-11.83-.36-17.83 0-5.28-2.88-8.75-7.8-8.75-3.42 0-5.52 1.97-6.42 5.58h-.11c-.19-3.13-.97-5.54-2.53-5.54-1.44 0-3.47 1.04-4.74 2.35A4.1 4.1 0 001.5-9.66c.9-.25 2.16-.48 3.23-.54.55 1.62.85 3.97.85 6.42 0 1.92-.13 3.72-.36 6.12l-.13.54c.68.25 1.5.35 2.29.35.71 0 1.75-.1 2.4-.3v-7.37c.6-4.5 2.88-7.2 5.28-7.2 1.02 0 1.44.3 1.67.6.61.77.85 2.59.85 4.26v18.55c.78.23 1.37.36 2.28.36.84 0 1.73-.13 2.52-.36zm0 0"/></symbol><symbol overflow="visible" id="3f99cb0en"><path d="M10.69-7.86c0-5.7-1.99-11.4-7.14-17.77-1.03.13-1.92.61-2.53 1.4 3.6 6.17 4.75 11.39 4.75 16.01C5.77-2.94 4.63 2.16.95 8.34c.49.79 1.27 1.25 2.47 1.5C8.64 3.42 10.7-2.28 10.7-7.86zm0 0"/></symbol><symbol overflow="visible" id="3f99cb0eo"><path d="M3.83 0v-5.95H6.2v-.82H.45v.82h2.4V0zm0 0"/></symbol><symbol overflow="visible" id="3f99cb0ep"><path d="M5.75-2.23v-.43c0-1.6-.9-2.51-2.42-2.51S.87-4.16.87-2.48c0 1.71.91 2.62 2.5 2.62 1.43 0 2.07-.56 2.29-1.52l-.9-.09c-.18.61-.59.9-1.35.9-.94 0-1.52-.54-1.58-1.66zm-2.4-2.2c.93 0 1.43.5 1.48 1.55H1.84c.08-1.07.6-1.56 1.5-1.56zm0 0"/></symbol><symbol overflow="visible" id="3f99cb0eq"><path d="M1.83 0l1.42-2h.06l1.46 2H5.8L4-2.53l1.78-2.49H4.8L3.42-3.08h-.08l-1.4-1.94H.89l1.78 2.49L.84 0zm0 0"/></symbol><symbol overflow="visible" id="3f99cb0er"><path d="M5.52-4.25v-.77H3.17v-1.56h-.81l-.14 1.56H.75v.77h1.47v2.4c0 1.3.48 1.94 1.84 1.94C4.6.1 5.14 0 5.55-.14L5.4-.91c-.32.13-.72.2-1.13.2-.8 0-1.1-.37-1.1-1.23v-2.31zm0 0"/></symbol><symbol overflow="visible" id="3f99cb0es"><path d="M3.33-3.42c.47 0 .8-.27.8-.8 0-.51-.33-.8-.8-.8-.47 0-.8.29-.8.8 0 .53.33.8.8.8zm0 3.5c.47 0 .8-.27.8-.78 0-.53-.33-.82-.8-.82-.47 0-.8.29-.8.82 0 .51.33.78.8.78zm0 0"/></symbol><symbol overflow="visible" id="3f99cb0eu"><path d="M1.9 0v-3.03h2.87V0h.98v-6.77h-.98v2.91H1.9v-2.9H.92V0zm0 0"/></symbol><symbol overflow="visible" id="3f99cb0ev"><path d="M5.67 0v-.86H2.14V-.9L3.6-2c1.05-.83 2-1.68 2-2.91 0-1.19-.73-1.99-2.26-1.99-1.66 0-2.3 1.02-2.44 2.33l1 .08c.1-.92.42-1.58 1.44-1.58.87 0 1.26.44 1.26 1.24 0 .9-.8 1.53-1.96 2.53L.83-.81V0zm0 0"/></symbol><symbol overflow="visible" id="3f99cb0ew"><path d="M3.42.14c1.61 0 2.56-.75 2.56-2 0-1.1-.67-1.6-1.95-1.86l-.97-.2c-.87-.17-1.23-.49-1.23-1.11 0-.7.54-1.11 1.5-1.11 1.06 0 1.51.34 1.69 1.23l.9-.09c-.17-1.28-.98-1.9-2.6-1.9C1.79-6.9.9-6.18.9-4.98c0 1.06.66 1.66 1.88 1.9l1.01.2c.85.17 1.25.4 1.25 1.09 0 .73-.6 1.16-1.6 1.16-1.07 0-1.66-.4-1.8-1.24l-.94.1C.83-.53 1.75.13 3.42.13zm0 0"/></symbol><symbol overflow="visible" id="3f99cb0ex"><path d="M3.33.14c1.9 0 2.76-1.27 2.76-3.52 0-2.26-.86-3.53-2.76-3.53S.58-5.64.58-3.37c0 2.25.86 3.51 2.75 3.51zM3.3-.67c-1.25 0-1.73-.95-1.73-2.7 0-1.77.5-2.72 1.75-2.72s1.75.95 1.75 2.71c0 1.75-.5 2.7-1.77 2.7zm0 0"/></symbol><symbol overflow="visible" id="3f99cb0ey"><path d="M5.1 0v-1.47H6v-.81h-.9v-4.49H3.8L.48-2.23v.76h3.66V0zM1.5-2.33l2.6-3.53h.04v3.58H1.5zm0 0"/></symbol><symbol overflow="visible" id="3f99cb0ez"><path d="M1.45-2.95c0 2.56 1.08 4.37 3.67 4.84l.11-.67C3.28.86 2.43-.75 2.43-2.95s.85-3.82 2.8-4.16l-.1-.69c-2.6.49-3.68 2.3-3.68 4.85zm0 0"/></symbol><symbol overflow="visible" id="3f99cb0eA"><path d="M3.42.14C4.97.14 5.91-.8 5.91-2.3c0-1.24-.54-2.05-1.94-2.52-.99-.33-1.42-.56-1.42-1.08 0-.43.3-.68.98-.68.74 0 1.06.23 1.17.8l.9-.07c-.12-.86-.7-1.42-2.08-1.42-1.32 0-1.9.55-1.9 1.33 0 .75.52 1.14 1.3 1.39v.06c-1.04.03-2 .81-2 2.23C.92-.8 1.86.14 3.42.14zm0-.75c-1.04 0-1.51-.64-1.51-1.7 0-1.03.5-1.72 1.5-1.72 1.01 0 1.53.66 1.53 1.72s-.49 1.7-1.52 1.7zm0 0"/></symbol><symbol overflow="visible" id="3f99cb0eB"><path d="M3.42.16c1.6 0 2.2-.64 2.31-1.61l-.89-.08c-.09.64-.48.97-1.42.97-1 0-1.33-.35-1.33-.86 0-.55.27-.8 1.22-.8h.8v-.65h-.8c-.76 0-1.1-.25-1.1-.8 0-.44.26-.78 1.21-.78.99 0 1.24.37 1.33.89l.9-.06c-.12-.94-.73-1.55-2.23-1.55-1.48 0-2.14.54-2.14 1.44 0 .65.38 1.01.9 1.14v.06c-.56.08-1.02.5-1.02 1.22 0 .89.67 1.47 2.26 1.47zm0 0"/></symbol><symbol overflow="visible" id="3f99cb0eC"><path d="M5.4-.75c-.24.05-.5.08-.76.08-.62 0-.84-.16-.84-.77v-3.58H1.23v.83h1.61v2.86C2.84-.3 3.27.11 4.36.11c.37 0 .78-.06 1.12-.14zm0 0"/></symbol><symbol overflow="visible" id="3f99cb0eD"><path d="M4.83-5.02L2.45-2.86H2.4v-2.16h-.95V0h.95v-2.34h.06L4.85 0H6L3.31-2.7 5.9-5.02zm0 0"/></symbol><symbol overflow="visible" id="3f99cb0eE"><path d="M5.7-5.02H.83v.83h1.92v2.94C2.75-.3 3.2.11 4.23.11c.36 0 .74-.05 1.02-.14l-.1-.7c-.18.04-.46.06-.67.06-.59 0-.8-.19-.8-.72v-2.8H5.7zm0 0"/></symbol><symbol overflow="visible" id="3f99cb0eF"><path d="M5.6 1.9v-5.21c0-1.17-.55-1.85-1.68-1.85-.87 0-1.47.43-1.75 1.08h-.06l-.13-.94h-.8V0h.95v-2.69c0-.97.6-1.6 1.43-1.6.77 0 1.1.37 1.1 1.2v4.98zm0 0"/></symbol><symbol overflow="visible" id="3f99cb0eG"><path d="M1.45-7.1c1.96.33 2.8 1.94 2.8 4.15 0 2.2-.84 3.8-2.8 4.17l.11.67c2.58-.47 3.67-2.28 3.67-4.84 0-2.55-1.09-4.36-3.67-4.85zm0 0"/></symbol><symbol overflow="visible" id="3f99cb0eH"><path d="M5.95-6.77H1.1V0h.99v-2.92H5.3v-.77H2.08v-2.26h3.87zm0 0"/></symbol><symbol overflow="visible" id="3f99cb0eI"><path d="M2.83.14c.94 0 1.5-.39 1.81-.95h.08l.1.81h.76v-3.38c0-1.23-.69-1.8-2.13-1.8-1.43 0-2.03.65-2.18 1.6l.93.1c.11-.6.44-.93 1.22-.93.85 0 1.22.32 1.22 1.04v.34l-1.81.2C1.6-2.7 1.1-2.17 1.1-1.28c0 .92.64 1.42 1.72 1.42zm.25-.77c-.67 0-1.02-.28-1.02-.74 0-.44.28-.72 1-.82l1.58-.19v.41c0 .8-.6 1.34-1.56 1.34zm0 0"/></symbol><symbol overflow="visible" id="3f99cb0eJ"><path d="M2.73.14c.9 0 1.43-.45 1.74-1.08h.06l.13.94h.8v-5.02h-.94v2.7c0 .98-.57 1.62-1.46 1.62-.75 0-1.1-.4-1.1-1.22v-3.1h-.93v3.32c0 1.17.55 1.84 1.7 1.84zm0 0"/></symbol><symbol overflow="visible" id="3f99cb0eK"><path d="M5.08-5.16c-.94 0-1.58.43-1.9 1.3h-.09l-.07-1.16H1.05v.77h1.1v3.48H.96V0h3.96v-.77H3.1v-1.46c0-1.36.6-2.05 1.83-2.05.4 0 .76.08 1.1.17l.15-.87c-.33-.11-.7-.18-1.11-.18zm0 0"/></symbol><symbol overflow="visible" id="3f99cb0eL"><path d="M3.34.14c1.43 0 2.13-.66 2.25-1.78l-.89-.1c-.1.7-.5 1.08-1.34 1.08-1.03 0-1.52-.64-1.52-1.84 0-1.23.47-1.86 1.52-1.86.84 0 1.23.36 1.34 1.08l.9-.1c-.13-1.09-.82-1.78-2.26-1.78-1.56 0-2.46.97-2.46 2.66 0 1.66.9 2.64 2.46 2.64zm0 0"/></symbol><symbol overflow="visible" id="3f99cb0eM"><path d="M3.58-5.81c.42 0 .72-.22.72-.67 0-.44-.3-.68-.72-.68-.44 0-.72.24-.72.68 0 .45.28.67.72.67zm.5.8H1.52v.76h1.6v3.48h-1.8V0h4.46v-.77h-1.7zm0 0"/></symbol><symbol overflow="visible" id="3f99cb0eN"><path d="M2.16 0v-2.67c0-.99.59-1.63 1.46-1.63.74 0 1.07.38 1.07 1.22V0h.95v-3.31c0-1.2-.56-1.85-1.67-1.85-.92 0-1.49.46-1.77 1.08h-.06l-.12-.94H1.2V0zm0 0"/></symbol><symbol overflow="visible" id="3f99cb0eO"><path d="M4.63-6.5c.45 0 .98.08 1.39.2l.2-.72a5.3 5.3 0 00-1.64-.26c-1.52 0-2.16.56-2.16 1.87v.4H.9v.76h1.53V0h.94v-4.25h2.53v-.77H3.36v-.3c0-.84.33-1.18 1.27-1.18zm0 0"/></symbol><symbol overflow="visible" id="3f99cb0eP"><path d="M3.33.14c1.62 0 2.5-.95 2.5-2.66 0-1.68-.88-2.64-2.5-2.64-1.63 0-2.5.96-2.5 2.64 0 1.7.87 2.66 2.5 2.66zm0-.77c-1.06 0-1.52-.6-1.52-1.89 0-1.28.46-1.87 1.52-1.87 1.08 0 1.53.6 1.53 1.87 0 1.29-.45 1.9-1.53 1.9zm0 0"/></symbol><symbol overflow="visible" id="3f99cb0eQ"><path d="M3.36.16c1.4 0 2.2-.6 2.2-1.57 0-.89-.54-1.22-1.47-1.39L3-3c-.67-.14-.86-.33-.86-.73 0-.5.4-.74 1.17-.74.83 0 1.19.27 1.27.8l.9-.05c-.12-1-.8-1.47-2.17-1.47-1.34 0-2.1.53-2.1 1.5 0 .81.45 1.22 1.52 1.44l1.04.2c.56.11.87.24.87.72 0 .52-.45.78-1.28.78-.95 0-1.36-.28-1.42-.87l-.9.06C1.07-.36 1.8.16 3.35.16zm0 0"/></symbol></defs><use xlink:href="#3f99cb0ea" x="118.95" y="152" fill="#515151"/><use xlink:href="#3f99cb0eb" x="164.19" y="152" fill="#fff"/><g fill="#515151"><use xlink:href="#3f99cb0ec" x="185.19" y="152"/><use xlink:href="#3f99cb0ed" x="217.83" y="152"/></g><use xlink:href="#3f99cb0ee" x="258.63" y="152" fill="#fff"/><g fill="#515151"><use xlink:href="#3f99cb0ef" x="279.63" y="152"/><use xlink:href="#3f99cb0ea" x="292.23" y="152"/></g><use xlink:href="#3f99cb0eg" x="337.47" y="152" fill="#fff"/><use xlink:href="#3f99cb0eh" x="351.09" y="152" fill="#fff"/><use xlink:href="#3f99cb0ei" x="371.85" y="152" fill="#fff"/><use xlink:href="#3f99cb0ej" x="389.85" y="152" fill="#fff"/><use xlink:href="#3f99cb0ek" x="400.95" y="152" fill="#fff"/><use xlink:href="#3f99cb0el" x="422.79" y="152" fill="#fff"/><use xlink:href="#3f99cb0em" x="442.71" y="152" fill="#fff"/><use xlink:href="#3f99cb0en" x="467.37" y="152" fill="#fff"/><g fill="#fff"><use xlink:href="#3f99cb0eo" x="230" y="252"/><use xlink:href="#3f99cb0ep" x="236.667" y="252"/><use xlink:href="#3f99cb0eq" x="243.334" y="252"/><use xlink:href="#3f99cb0er" x="250.001" y="252"/><use xlink:href="#3f99cb0es" x="256.668" y="252"/><use xlink:href="#3f99cb0et" x="263.335" y="252"/><use xlink:href="#3f99cb0eu" x="270.002" y="252"/><use xlink:href="#3f99cb0ev" x="276.669" y="252"/><use xlink:href="#3f99cb0ew" x="283.336" y="252"/><use xlink:href="#3f99cb0ex" x="290.003" y="252"/><use xlink:href="#3f99cb0ey" x="296.67" y="252"/><use xlink:href="#3f99cb0et" x="303.337" y="252"/><use xlink:href="#3f99cb0eu" x="310.004" y="252"/><use xlink:href="#3f99cb0ez" x="316.671" y="252"/><use xlink:href="#3f99cb0eA" x="323.338" y="252"/><use xlink:href="#3f99cb0eB" x="330.005" y="252"/><use xlink:href="#3f99cb0eC" x="336.672" y="252"/><use xlink:href="#3f99cb0eD" x="343.339" y="252"/><use xlink:href="#3f99cb0eE" x="350.006" y="252"/><use xlink:href="#3f99cb0eF" x="356.673" y="252"/><use xlink:href="#3f99cb0eG" x="363.34" y="252"/></g><g fill="#fff"><use xlink:href="#3f99cb0eH" x="180" y="266"/><use xlink:href="#3f99cb0ep" x="186.667" y="266"/><use xlink:href="#3f99cb0eI" x="193.334" y="266"/><use xlink:href="#3f99cb0er" x="200.001" y="266"/><use xlink:href="#3f99cb0eJ" x="206.668" y="266"/><use xlink:href="#3f99cb0eK" x="213.335" y="266"/><use xlink:href="#3f99cb0ep" x="220.002" y="266"/><use xlink:href="#3f99cb0es" x="226.669" y="266"/><use xlink:href="#3f99cb0et" x="233.336" y="266"/><use xlink:href="#3f99cb0ew" x="240.003" y="266"/><use xlink:href="#3f99cb0eL" x="246.67" y="266"/><use xlink:href="#3f99cb0eM" x="253.337" y="266"/><use xlink:href="#3f99cb0ep" x="260.004" y="266"/><use xlink:href="#3f99cb0eN" x="266.671" y="266"/><use xlink:href="#3f99cb0er" x="273.338" y="266"/><use xlink:href="#3f99cb0eM" x="280.005" y="266"/><use xlink:href="#3f99cb0eO" x="286.672" y="266"/><use xlink:href="#3f99cb0eM" x="293.339" y="266"/><use xlink:href="#3f99cb0eL" x="300.006" y="266"/><use xlink:href="#3f99cb0et" x="306.673" y="266"/><use xlink:href="#3f99cb0eM" x="313.34" y="266"/><use xlink:href="#3f99cb0eN" x="320.007" y="266"/><use xlink:href="#3f99cb0eO" x="326.674" y="266"/><use xlink:href="#3f99cb0ep" x="333.341" y="266"/><use xlink:href="#3f99cb0eK" x="340.008" y="266"/><use xlink:href="#3f99cb0eM" x="346.675" y="266"/><use xlink:href="#3f99cb0eP" x="353.342" y="266"/><use xlink:href="#3f99cb0eK" x="360.009" y="266"/><use xlink:href="#3f99cb0eQ" x="366.676" y="266"/><use xlink:href="#3f99cb0et" x="373.343" y="266"/><use xlink:href="#3f99cb0ez" x="380.01" y="266"/><use xlink:href="#3f99cb0eQ" x="386.677" y="266"/><use xlink:href="#3f99cb0eM" x="393.344" y="266"/><use xlink:href="#3f99cb0eN" x="400.011" y="266"/><use xlink:href="#3f99cb0eO" x="406.678" y="266"/><use xlink:href="#3f99cb0eG" x="413.345" y="266"/></g></svg>