<?xml version='1.0' encoding='UTF-8'?>
<svg xmlns="http://www.w3.org/2000/svg" xmlns:xlink="http://www.w3.org/1999/xlink" width="600px" height="300px" viewBox="0 0 600 300" x="0px" y="0px" enable-background="new 0 0 600 300"><defs><symbol overflow="visible" id="54e8ed36a"><path d="M.9 9.78c1.08.42 2.1.36 3.18 0 .19-3.23.54-6.6 1.26-9.84h30.6c.6 3.19.9 6.54 1.01 9.84.97.36 2.05.36 3.42 0 .49-4.8.68-9.42.55-13.33l-.48-.47-4.56.07L23.05-40.5c-1.99 0-3.74.23-5.28.84L5.45-3.96l-4.6-.06-.5.47C.24.48.43 5.1.92 9.78zm19.38-45.12h.06l.3 4.39 9.48 27.04H9.79zm0 0"/></symbol><symbol overflow="visible" id="54e8ed36b"><path d="M20.28-30.95l9.49 27-5.64 1.14c0 .95.1 1.9.46 2.87 2.6 0 4.99-.12 7.63-.12 1.98 0 5.7 0 7.44.12.3-.9.42-1.86.36-2.87a15.93 15.93 0 00-4.44-1.14L22.68-40.5c-1.98 0-3.73.23-5.27.84L5.09-3.96C3.5-3.41 1.92-3 .3-2.8c0 .95.13 1.9.5 2.87 2.57 0 4.91-.12 6.9-.12 1.43 0 4.9 0 6.65.12.3-.9.43-1.86.36-2.87L9.42-3.95l10.5-31.4h.06zm0 0"/></symbol><symbol overflow="visible" id="54e8ed36c"><path d="M14.81.84c7.1 0 13.1-5.57 13.1-15.48 0-5.64-2.6-10.67-8.05-11.64 3.72-2.28 5.7-5.64 5.7-9.53 0-5.64-2.93-10.14-9.18-10.14-8.46 0-12.9 6.95-12.9 19.37v12.3C3.48-3.72 7.56.84 14.81.84zm-6.3-28.43c0-5.6 1.08-11.41 2.47-13.14.66-.72 2.52-1.2 3.96-1.2 3.42 0 5.58 3.52 5.58 7.55 0 1.86-.6 3.6-1.68 4.93-.9 1.01-3.18 2.51-5.76 3.23l-4.56 1.27zm0 12.3v-5.9l2.47-.72c1.38-.4 2.64-.59 3.83-.59 5.24 0 7.99 3.84 7.99 9.9 0 4.08-1.2 7.02-2.52 8.29-.48.4-2.34 1.12-4.26 1.12-4.44 0-7.5-4.01-7.5-12.1zm0 0"/></symbol><symbol overflow="visible" id="54e8ed36d"><path d="M13.02.66c3 0 6.36-1.2 8.93-2.58v1.69c0 6.04-.89 9-1.8 9.78-1.2.89-3.46 1.25-4.8 1.25-3.35 0-5.93-.85-7.5-2.1l-.47.18C6 10.02 5.4 11.7 5.58 13.68c1.8 1.26 4.73 1.98 7.69 1.98C21.78 15.66 27 8.52 27-2.7V-21.2c0-2.15.72-4.6 1.98-6.89a2.4 2.4 0 00-1.75-1.33c-1.01.49-2.51 1.99-3.65 3.49-1.99-1.63-5.52-3.13-8.28-3.13-6.53 0-12.9 6.61-12.9 15.43C2.4-5.7 5.95.65 13.03.65zM7.5-15.3c0-3.54 1.38-6.84 3-8.57.48-.49 1.92-1.15 4.5-1.15 2.34 0 4.92.79 6.95 1.57v18.6a33.4 33.4 0 01-7.67 1.2c-4.5 0-6.78-5.7-6.78-11.65zm0 0"/></symbol><symbol overflow="visible" id="54e8ed36e"><path d="M7.56.6c4.2 0 8.16-7.32 10.44-14.46l3.3.9v5.94c0 1.2-.07 2.04-.24 3.36-1.01.43-2.64.85-4.01 1.02 0 .95.17 2.22.36 2.7 2.03 0 4.18-.12 6.36-.12 1.25 0 4.5.06 5.93.12.18-.54.3-1.8.3-2.7-.9-.48-2.4-.9-3.72-1.08a50.93 50.93 0 01-.19-4.5v-4.73l3.32-.9C31.69-6.73 35.64.58 39.84.58c2.52 0 6.43-.82 7.5-1.43a2.87 2.87 0 00-.65-2.35c-.61.13-1.33.19-1.92.19-2.22 0-3.36-.78-4.99-2.58-1.98-2.28-4.73-6.97-6.66-10.69l7.68-8.21c1.33-.18 2.7-.6 4.01-1.14 0-.9-.1-2.1-.36-2.65-1.73.07-3.6.13-5.03.13-2.64 0-5.4-.13-7.33-.13-.23.68-.4 1.75-.4 2.7l3.72.91L29.88-18l-3.79 1.56V-28.2c0-6.6.07-11.28.25-17.28l-.48-.47c-3.13.3-7.14 1.18-9.55 2.1-.1.77 0 1.55.25 2.33 1.57.18 3.24.54 4.74.96v24.12L17.52-18 12-24.66l3.72-.9c0-.96-.17-2.03-.42-2.7-1.93 0-4.68.12-7.32.12-1.43 0-3.3-.06-5.04-.13a8.49 8.49 0 00-.36 2.64c1.5.32 2.83.68 4.01 1.15l7.7 8.21c-1.93 3.72-4.7 8.41-6.66 10.7C6-3.79 4.86-3 2.63-3c-.6 0-1.33-.06-1.92-.19-.53.61-.84 1.56-.66 2.35C1.14-.24 5.05.59 7.56.59zm0 0"/></symbol><symbol overflow="visible" id="54e8ed36f"><path d="M9.36-3.66l7.5-20.93h.06l.24 4.37 6 16.56-4.74 1.02c0 .95.17 2.22.42 2.7 2.29 0 4.8-.12 7.25-.12 1.46 0 5.11.06 6.72.12.25-.54.38-1.8.38-2.7-1.1-.48-2.9-.9-4.5-1.08L19.62-28.5c-1.8 0-3.9.3-5.57.84L5.28-3.72c-1.2.42-3.12.9-4.8 1.08 0 .95.18 2.22.43 2.7 1.96 0 4.14-.12 6.3-.12 1.24 0 4.73.06 6.35.12.24-.54.36-1.8.36-2.7zm0 0"/></symbol><symbol overflow="visible" id="54e8ed36g"><path d="M1.5.06c2.28 0 4.8-.12 7.27-.12 1.43 0 5.09.06 6.71.12.24-.54.36-1.8.36-2.7-1.07-.48-2.89-.9-4.5-1.08a50.93 50.93 0 01-.18-4.5v-5.22h6.96C18.13-5.22 22.09.84 30.23.84c8.05 0 12.79-8.15 12.79-15.42 0-8.22-3.79-14.47-12.11-14.47-6.91 0-11.35 5.96-12.49 12.25h-7.26v-11.4c0-6.6.06-11.28.25-17.28l-.49-.47c-3.3.3-7.37 1.18-9.78 2.1-.12.77 0 1.55.24 2.33 1.56.18 3.18.54 4.75.96v33.54c0 1.2-.07 2.04-.25 3.36-1.2.43-3.11.85-4.8 1.02 0 .95.19 2.22.42 2.7zm29.77-3.25c-6 0-8.05-7.01-8.05-12.1 0-3.62 1.2-6.79 2.83-8.59.65-.71 2.64-1.14 3.82-1.14 6 0 8.05 7.02 8.05 12.11 0 3.61-1.2 6.79-2.83 8.6-.65.72-2.64 1.12-3.82 1.12zm0 0"/></symbol><symbol overflow="visible" id="54e8ed36h"><path d="M-2.88 9.72c1.08.42 2.1.42 3.18.06.6-3.23 1.39-6.6 2.4-9.84h28.5l-.12 9.78c.84.3 1.98.36 3.19.06a104 104 0 002.21-13.33L36-4.02l-4.02.07-7.5-36.55c-2.04 0-3.78.23-5.46.84L2.94-3.96l-4.08-.06-.55.47A98.26 98.26 0 00-2.88 9.72zM21.2-35.34h.04l-.3 4.39 5.35 27.04H7.38zm0 0"/></symbol><symbol overflow="visible" id="54e8ed36i"><path d="M19.69-30.95l5.26 27-5.45 1.14c-.13.95-.19 1.9.06 2.87 2.46 0 4.8-.12 7.38-.12 1.92 0 5.4 0 7.01.12.42-.9.67-1.86.74-2.87a12.82 12.82 0 00-4.03-1.14L23.22-40.5c-2.03 0-3.78.23-5.45.84L1.63-3.96C.05-3.41-1.5-3-3-2.8A8.9 8.9 0 00-2.94.06c2.4 0 4.56-.12 6.6-.12 1.5 0 4.8 0 6.6.12.43-.9.66-1.86.72-2.87L6.12-3.95l13.8-31.4h.06zm0 0"/></symbol><symbol overflow="visible" id="54e8ed36j"><path d="M4.08-25.38l-.9 10.25c-.12 1.4-.18 2.7-.18 3.91C3-2.4 5.64.95 11.77.95c8.64 0 14.57-7.43 14.57-17.22 0-4.8-1.75-8.87-6.36-9.71 4.25-2.64 6.83-6.24 6.83-10.97 0-4.75-2.51-8.64-7.43-8.64-8.82 0-14.22 7.9-15.3 20.22zm5.15-1.85c.55-5.54 2.47-11.22 4.08-13.2a7.5 7.5 0 013.85-1.15c2.93 0 4.56 3.06 4.56 6.49 0 5.15-3.95 7.97-8.28 9.17L9-24.66zM8.16-16.08L8.64-21l2.34-.66c1.38-.42 2.58-.6 3.72-.6 4.38 0 6.6 3.18 6.6 8.04 0 4.74-1.61 7.63-3.18 9.9-.96.73-2.76 1.26-4.98 1.26-3.3 0-5.16-3.17-5.16-9.9 0-.96.07-1.98.18-3.12zm0 0"/></symbol><symbol overflow="visible" id="54e8ed36k"><path d="M7.56.78c3 0 6.66-1.98 10.14-5.1-.65 4.87-1.43 9.9-2.82 14.59-.96.78-3.24 1.37-5.1 1.37-3.06 0-5.87-1.27-7.33-3.66H1.8a5.78 5.78 0 00-2.16 4.2c0 .48.13.96.42 1.32 1.38 1.38 4.63 2.45 8.16 2.45 7.56 0 12-5.39 13.08-10.97C22.3-.36 22.8-4.2 23.34-8.64l1.93-15.06c.17-1.02.3-1.8.53-2.82l.3-.36a27.03 27.03 0 00-10.44-2.28c-8.75 0-13.61 9.54-13.61 19.14 0 2.16.17 4.5.65 6.47C3.3-1.02 4.86.78 7.56.78zm-.42-12.55c0-5.87 2.1-10.8 4.38-12.82a7.8 7.8 0 013.18-.55c1.74 0 3.66.42 5.52 1.2l-2.1 16.2c-3.3 2.4-6.54 4.2-9.3 4.2-1.09-1.08-1.68-3.96-1.68-8.23zm0 0"/></symbol><symbol overflow="visible" id="54e8ed36l"><path d="M2.1.78c5.28 0 12.12-5.64 18.06-12.3h.18C19.8-7.86 19.2-4.2 18.48-.3l.47.49c2.6.23 5.11-.38 5.24-1.46.4-3.89.89-7.8 1.37-11.68a61.1 61.1 0 015.35-4.82l.1.07a30.24 30.24 0 00-1.24 9.18c0 5.1 1.18 9.3 4.25 9.3 3.12 0 6.48-1.33 9.96-4.44-.12-.9-.35-1.56-.96-2.1a15.23 15.23 0 01-7.08 2.63c-1.08-2.68-1.44-5.8-1.44-9.3 0-3.23.48-6.05 1.44-8.76 3.19-1.8 6.3-2.81 9.25-2.81l.6-.42c.52-1.08.59-2.1.59-2.81 0-1.27-.79-1.93-2.1-1.93-5.28 0-12.12 5.64-18.06 12.3h-.13c.25-2.34.55-4.62.85-6.84l2.1-16.61c.05-.61.12-1.1.12-1.56 0-2.35-.9-3.72-3.24-3.72-2.34 0-4.86.72-6.84 1.86a3.38 3.38 0 000 2.15c1.73 0 3.42.17 5.15.53L21.48-19.8c-.18 1.44-.36 2.82-.6 4.25a57.02 57.02 0 01-5.4 4.93l-.12-.07c.84-2.45 1.27-5.75 1.27-9.17 0-5.1-1.2-9.3-4.27-9.3-3.13 0-6.48 1.32-9.95 4.44.1.9.36 1.56.95 2.1a15.65 15.65 0 017.08-2.65c1.08 2.7 1.44 5.83 1.44 9.32 0 3.23-.47 6.04-1.44 8.75-3.17 1.8-6.3 2.83-9.24 2.83l-.6.42a6.18 6.18 0 00-.6 2.8C0 .13.78.79 2.1.79zm0 0"/></symbol><symbol overflow="visible" id="54e8ed36m"><path d="M.78-4.2l-.3.6C.78-1.61 2.1.49 3.36.49 7.8.48 14.09-7.08 16.69-23.4h.1l2.05 17.47c.54 4.38 1.97 6.66 4.02 6.66 2.4 0 6.36-2.52 8.28-4.63a3.26 3.26 0 00-1.2-1.96 27.9 27.9 0 01-4.8 1.5l-3.06-18.36c-.72-4.2-2.64-6.2-5.4-6.2-3.73 0-6.3.66-8.4 1.87-.3.9-.19 1.62 0 2.15 1.67 0 3.36.13 4.86.43C11.04-12.55 6.72-6.91.78-4.2zm0 0"/></symbol><symbol overflow="visible" id="54e8ed36n"><path d="M2.94.19C5.52.42 8.16-.2 8.28-1.27c.42-4.01.95-8.03 1.5-12.04h5.58c-.06.83-.13 1.67-.13 2.51 0 5.16 1.7 11.75 7.86 11.75C32.16.95 37.5-7.08 37.5-17.4c0-5.15-1.63-11.75-8.05-11.75-7.14 0-11.93 5.16-13.6 12.47h-5.58c.3-2.39.59-4.73.89-7.01l2.15-16.61c.06-.61.13-1.1.13-1.56 0-2.35-1.08-3.72-3.42-3.72-2.33 0-4.86.72-6.83 1.86a3.18 3.18 0 000 2.15c1.73 0 3.4.17 5.15.53L5.58-19.8C4.73-13.44 3.78-7.14 2.45-.3zm22.62-3.25c-3.78 0-5.22-3.9-5.22-10.44 0-4.92 1.68-8.7 3.24-10.5a7.46 7.46 0 013.84-1.14c3.36 0 4.99 3.9 4.99 10.5 0 4.62-1.7 8.58-3.25 10.37-.9.61-2.35 1.2-3.6 1.2zm0 0"/></symbol><symbol overflow="visible" id="54e8ed36o"><path d="M3.83 0v-5.95H6.2v-.82H.45v.82h2.4V0zm0 0"/></symbol><symbol overflow="visible" id="54e8ed36p"><path d="M5.75-2.23v-.43c0-1.6-.9-2.51-2.42-2.51S.87-4.16.87-2.48c0 1.71.91 2.62 2.5 2.62 1.43 0 2.07-.56 2.29-1.52l-.9-.09c-.18.61-.59.9-1.35.9-.94 0-1.52-.54-1.58-1.66zm-2.4-2.2c.93 0 1.43.5 1.48 1.55H1.84c.08-1.07.6-1.56 1.5-1.56zm0 0"/></symbol><symbol overflow="visible" id="54e8ed36q"><path d="M1.83 0l1.42-2h.06l1.46 2H5.8L4-2.53l1.78-2.49H4.8L3.42-3.08h-.08l-1.4-1.94H.89l1.78 2.49L.84 0zm0 0"/></symbol><symbol overflow="visible" id="54e8ed36r"><path d="M5.52-4.25v-.77H3.17v-1.56h-.81l-.14 1.56H.75v.77h1.47v2.4c0 1.3.48 1.94 1.84 1.94C4.6.1 5.14 0 5.55-.14L5.4-.91c-.32.13-.72.2-1.13.2-.8 0-1.1-.37-1.1-1.23v-2.31zm0 0"/></symbol><symbol overflow="visible" id="54e8ed36s"><path d="M3.33-3.42c.47 0 .8-.27.8-.8 0-.51-.33-.8-.8-.8-.47 0-.8.29-.8.8 0 .53.33.8.8.8zm0 3.5c.47 0 .8-.27.8-.78 0-.53-.33-.82-.8-.82-.47 0-.8.29-.8.82 0 .51.33.78.8.78zm0 0"/></symbol><symbol overflow="visible" id="54e8ed36u"><path d="M5.7-6.77H1.6c0 1.52 0 2.79-.13 3.7a5.04 5.04 0 01-.7 2.26H.09v2.39H1V0h4.64v1.58h.9v-2.4H5.7zM1.72-.8c.26-.5.47-1.22.58-2.08.1-.75.12-1.9.15-3.08h2.32V-.8zm0 0"/></symbol><symbol overflow="visible" id="54e8ed36v"><path d="M1.63-6.77c-.05 1.49-.15 3.33-.2 4.32C1.33-1.12 1.1-.78.51-.78.39-.78.25-.8.19-.81L.12.02c.18.03.4.06.6.06C1.82.08 2.2-.7 2.3-2.36c.04-.86.12-2.23.17-3.6H4.8V0h.94v-6.77zm0 0"/></symbol><symbol overflow="visible" id="54e8ed36w"><path d="M4.78-2.63c.55-.14.86-.5.86-1.07 0-.9-.55-1.32-1.76-1.32H1.44V0h2.39c1.34 0 1.95-.4 1.95-1.38 0-.67-.37-1.04-1-1.18zM3.72-4.36c.75 0 1 .22 1 .72 0 .48-.27.77-1.13.77H2.36v-1.49zM2.36-.66v-1.57h1.31c.85 0 1.19.23 1.19.78 0 .54-.28.8-1.13.8zm0 0"/></symbol><symbol overflow="visible" id="54e8ed36x"><path d="M5.36-5.02H1.7a36.7 36.7 0 01-.12 2.44c-.06.9-.27 1.52-.55 1.81h-.6v2.1h.87V0h3.92v1.33h.87v-2.1h-.73zM1.92-.77c.25-.39.4-1.04.46-1.75.04-.46.07-1.12.1-1.75h1.97v3.5zm0 0"/></symbol><symbol overflow="visible" id="54e8ed36y"><path d="M5.4-5.02L4.15-2.89H3.7v-2.13h-.73v2.13h-.44L1.27-5.02h-.9l1.46 2.38L.28 0h.92l1.32-2.31h.45V0h.73v-2.31h.46L5.46 0h.92L4.83-2.66l1.45-2.36zm0 0"/></symbol><symbol overflow="visible" id="54e8ed36z"><path d="M1.58-5.02c-.03.94-.11 2.35-.17 3.08-.08.86-.24 1.19-.74 1.19-.12 0-.23-.02-.31-.03L.3.02c.14.03.36.06.55.06 1.06 0 1.3-.64 1.39-1.9.05-.54.1-1.63.14-2.43h2.06V0h.96v-5.02zm0 0"/></symbol><symbol overflow="visible" id="54e8ed36A"><path d="M4.05-5.16c-1.2 0-1.74.79-1.82 2.2h-.76v-2.06h-.8V0h.8v-2.2h.75C2.28-.72 2.77.14 4.05.14 5.38.14 5.9-.83 5.9-2.52c0-1.68-.54-2.64-1.86-2.64zm0 4.55C3.25-.6 3-1.19 3-2.5c0-1.32.25-1.9 1.05-1.9.78 0 1.03.58 1.03 1.9 0 1.32-.25 1.9-1.03 1.9zm0 0"/></symbol><symbol overflow="visible" id="54e8ed36B"><path d="M5.95-6.77H1.1V0h.99v-2.92H5.3v-.77H2.08v-2.26h3.87zm0 0"/></symbol><symbol overflow="visible" id="54e8ed36C"><path d="M2.83.14c.94 0 1.5-.39 1.81-.95h.08l.1.81h.76v-3.38c0-1.23-.69-1.8-2.13-1.8-1.43 0-2.03.65-2.18 1.6l.93.1c.11-.6.44-.93 1.22-.93.85 0 1.22.32 1.22 1.04v.34l-1.81.2C1.6-2.7 1.1-2.17 1.1-1.28c0 .92.64 1.42 1.72 1.42zm.25-.77c-.67 0-1.02-.28-1.02-.74 0-.44.28-.72 1-.82l1.58-.19v.41c0 .8-.6 1.34-1.56 1.34zm0 0"/></symbol><symbol overflow="visible" id="54e8ed36D"><path d="M2.73.14c.9 0 1.43-.45 1.74-1.08h.06l.13.94h.8v-5.02h-.94v2.7c0 .98-.57 1.62-1.46 1.62-.75 0-1.1-.4-1.1-1.22v-3.1h-.93v3.32c0 1.17.55 1.84 1.7 1.84zm0 0"/></symbol><symbol overflow="visible" id="54e8ed36E"><path d="M5.08-5.16c-.94 0-1.58.43-1.9 1.3h-.09l-.07-1.16H1.05v.77h1.1v3.48H.96V0h3.96v-.77H3.1v-1.46c0-1.36.6-2.05 1.83-2.05.4 0 .76.08 1.1.17l.15-.87c-.33-.11-.7-.18-1.11-.18zm0 0"/></symbol><symbol overflow="visible" id="54e8ed36F"><path d="M4.66-3.45c.76-.14 1.15-.67 1.15-1.57 0-1.07-.64-1.75-2.18-1.75H.92V0h2.71C5.2 0 5.98-.64 5.98-1.77c0-1.03-.56-1.43-1.32-1.59zM3.56-6c.9 0 1.31.4 1.31 1.13 0 .71-.4 1.14-1.3 1.14h-1.7V-6zM1.87-.75v-2.27H3.6c.97 0 1.44.33 1.44 1.13 0 .8-.47 1.14-1.44 1.14zm0 0"/></symbol><symbol overflow="visible" id="54e8ed36G"><path d="M3.92-7.14H1.36v.76h1.6v5.61H1.15V0H5.7v-.77H3.92zm0 0"/></symbol><symbol overflow="visible" id="54e8ed36H"><path d="M3.16 2.03c1.67 0 2.4-.86 2.4-2.51v-4.54h-.81l-.13.91h-.06c-.26-.58-.8-1.05-1.73-1.05-1.42 0-2.24 1-2.24 2.52 0 1.6.75 2.56 2.2 2.56.94 0 1.5-.5 1.77-1.03h.05v.72c0 1.17-.42 1.67-1.45 1.67-.93 0-1.3-.34-1.41-.89L.8.5c.12.96.87 1.54 2.36 1.54zM3.06-.8c-.98 0-1.48-.57-1.48-1.82 0-1.13.5-1.75 1.48-1.75 1.06 0 1.58.76 1.58 1.75 0 .95-.56 1.82-1.58 1.82zm0 0"/></symbol><symbol overflow="visible" id="54e8ed36I"><path d="M3.58-5.81c.42 0 .72-.22.72-.67 0-.44-.3-.68-.72-.68-.44 0-.72.24-.72.68 0 .45.28.67.72.67zm.5.8H1.52v.76h1.6v3.48h-1.8V0h4.46v-.77h-1.7zm0 0"/></symbol><symbol overflow="visible" id="54e8ed36J"><path d="M2.16 0v-2.67c0-.99.59-1.63 1.46-1.63.74 0 1.07.38 1.07 1.22V0h.95v-3.31c0-1.2-.56-1.85-1.67-1.85-.92 0-1.49.46-1.77 1.08h-.06l-.12-.94H1.2V0zm0 0"/></symbol><symbol overflow="visible" id="54e8ed36K"><path d="M4.63-6.5c.45 0 .98.08 1.39.2l.2-.72a5.3 5.3 0 00-1.64-.26c-1.52 0-2.16.56-2.16 1.87v.4H.9v.76h1.53V0h.94v-4.25h2.53v-.77H3.36v-.3c0-.84.33-1.18 1.27-1.18zm0 0"/></symbol><symbol overflow="visible" id="54e8ed36L"><path d="M3.33.14c1.62 0 2.5-.95 2.5-2.66 0-1.68-.88-2.64-2.5-2.64-1.63 0-2.5.96-2.5 2.64 0 1.7.87 2.66 2.5 2.66zm0-.77c-1.06 0-1.52-.6-1.52-1.89 0-1.28.46-1.87 1.52-1.87 1.08 0 1.53.6 1.53 1.87 0 1.29-.45 1.9-1.53 1.9zm0 0"/></symbol><symbol overflow="visible" id="54e8ed36M"><path d="M1.63 0v-2.9c0-.8.15-1.4.71-1.4.41 0 .55.3.55.88V0h.95v-2.9c0-.8.18-1.4.72-1.4.4 0 .57.3.57.88V0h.95v-3.63c0-.92-.28-1.53-1.11-1.53-.63 0-.95.41-1.1.9h-.06c-.1-.52-.44-.9-1.08-.9-.6 0-.93.41-1.06.9H1.6l-.23-.76H.67V0zm0 0"/></symbol><symbol overflow="visible" id="54e8ed36N"><path d="M3.36.16c1.4 0 2.2-.6 2.2-1.57 0-.89-.54-1.22-1.47-1.39L3-3c-.67-.14-.86-.33-.86-.73 0-.5.4-.74 1.17-.74.83 0 1.19.27 1.27.8l.9-.05c-.12-1-.8-1.47-2.17-1.47-1.34 0-2.1.53-2.1 1.5 0 .81.45 1.22 1.52 1.44l1.04.2c.56.11.87.24.87.72 0 .52-.45.78-1.28.78-.95 0-1.36-.28-1.42-.87l-.9.06C1.07-.36 1.8.16 3.35.16zm0 0"/></symbol><symbol overflow="visible" id="54e8ed36O"><path d="M1.45-2.95c0 2.56 1.08 4.37 3.67 4.84l.11-.67C3.28.86 2.43-.75 2.43-2.95s.85-3.82 2.8-4.16l-.1-.69c-2.6.49-3.68 2.3-3.68 4.85zm0 0"/></symbol><symbol overflow="visible" id="54e8ed36P"><path d="M3.33.14c1.65 0 2.6-1.1 2.6-3.52S4.99-6.9 3.34-6.9C1.67-6.9.72-5.8.72-3.37c0 2.4.95 3.51 2.6 3.51zm0-.84c-1.13 0-1.6-.85-1.6-2.67 0-1.86.47-2.7 1.6-2.7 1.12 0 1.6.84 1.6 2.7 0 1.82-.48 2.67-1.6 2.67zM3.3-2.64c.38 0 .56-.28.56-.72 0-.44-.18-.7-.56-.7-.39 0-.56.26-.56.7 0 .44.17.72.56.72zm0 0"/></symbol><symbol overflow="visible" id="54e8ed36Q"><path d="M3.33.16c1.69 0 2.69-.74 2.69-1.94 0-1.05-.8-1.58-1.43-1.72v-.05c.5-.14 1.2-.58 1.2-1.56 0-1.12-.95-1.81-2.46-1.81-1.52 0-2.46.69-2.46 1.81 0 .97.68 1.4 1.18 1.56v.05c-.6.14-1.4.64-1.4 1.72 0 1.2 1 1.94 2.68 1.94zm0-4.04c-.97 0-1.49-.43-1.49-1.12 0-.78.52-1.1 1.49-1.1.95 0 1.48.32 1.48 1.1 0 .69-.53 1.13-1.48 1.13zm0 3.24c-1.1 0-1.7-.42-1.7-1.25 0-.78.6-1.2 1.7-1.2s1.7.42 1.7 1.2c0 .83-.6 1.25-1.7 1.25zm0 0"/></symbol><symbol overflow="visible" id="54e8ed36R"><path d="M1.45-7.1c1.96.33 2.8 1.94 2.8 4.15 0 2.2-.84 3.8-2.8 4.17l.11.67c2.58-.47 3.67-2.28 3.67-4.84 0-2.55-1.09-4.36-3.67-4.85zm0 0"/></symbol></defs><g fill="#fff"><use xlink:href="#54e8ed36a" x="35.01" y="152"/><use xlink:href="#54e8ed36b" x="76.89" y="152"/><use xlink:href="#54e8ed36c" x="116.01" y="152"/><use xlink:href="#54e8ed36d" x="146.19" y="152"/><use xlink:href="#54e8ed36e" x="178.41" y="152"/><use xlink:href="#54e8ed36f" x="225.33" y="152"/><use xlink:href="#54e8ed36g" x="259.11" y="152"/><use xlink:href="#54e8ed36h" x="317.13" y="152"/><use xlink:href="#54e8ed36i" x="357.21" y="152"/><use xlink:href="#54e8ed36j" x="392.13" y="152"/><use xlink:href="#54e8ed36k" x="420.75" y="152"/><use xlink:href="#54e8ed36l" x="448.89" y="152"/><use xlink:href="#54e8ed36m" x="493.83" y="152"/><use xlink:href="#54e8ed36n" x="525.45" y="152"/><use xlink:href="#54e8ed36o" x="230" y="252"/><use xlink:href="#54e8ed36p" x="236.667" y="252"/><use xlink:href="#54e8ed36q" x="243.334" y="252"/><use xlink:href="#54e8ed36r" x="250.001" y="252"/><use xlink:href="#54e8ed36s" x="256.668" y="252"/><use xlink:href="#54e8ed36t" x="263.335" y="252"/><use xlink:href="#54e8ed36u" x="270.002" y="252"/><use xlink:href="#54e8ed36v" x="276.669" y="252"/><use xlink:href="#54e8ed36w" x="283.336" y="252"/><use xlink:href="#54e8ed36x" x="290.003" y="252"/><use xlink:href="#54e8ed36y" x="296.67" y="252"/><use xlink:href="#54e8ed36z" x="303.337" y="252"/><use xlink:href="#54e8ed36A" x="310.004" y="252"/><use xlink:href="#54e8ed36t" x="316.671" y="252"/><use xlink:href="#54e8ed36u" x="323.338" y="252"/><use xlink:href="#54e8ed36v" x="330.005" y="252"/><use xlink:href="#54e8ed36w" x="336.672" y="252"/><use xlink:href="#54e8ed36x" x="343.339" y="252"/><use xlink:href="#54e8ed36y" x="350.006" y="252"/><use xlink:href="#54e8ed36z" x="356.673" y="252"/><use xlink:href="#54e8ed36A" x="363.34" y="252"/><g><use xlink:href="#54e8ed36B" x="143.3333" y="266"/><use xlink:href="#54e8ed36p" x="150.0003" y="266"/><use xlink:href="#54e8ed36C" x="156.6673" y="266"/><use xlink:href="#54e8ed36r" x="163.3343" y="266"/><use xlink:href="#54e8ed36D" x="170.0013" y="266"/><use xlink:href="#54e8ed36E" x="176.6683" y="266"/><use xlink:href="#54e8ed36p" x="183.3353" y="266"/><use xlink:href="#54e8ed36s" x="190.0023" y="266"/><use xlink:href="#54e8ed36t" x="196.6693" y="266"/><use xlink:href="#54e8ed36F" x="203.3363" y="266"/><use xlink:href="#54e8ed36D" x="210.0033" y="266"/><use xlink:href="#54e8ed36G" x="216.6703" y="266"/><use xlink:href="#54e8ed36H" x="223.3373" y="266"/><use xlink:href="#54e8ed36C" x="230.0043" y="266"/><use xlink:href="#54e8ed36E" x="236.6713" y="266"/><use xlink:href="#54e8ed36I" x="243.3383" y="266"/><use xlink:href="#54e8ed36C" x="250.0053" y="266"/><use xlink:href="#54e8ed36J" x="256.6723" y="266"/><use xlink:href="#54e8ed36t" x="263.3393" y="266"/><use xlink:href="#54e8ed36K" x="270.0063" y="266"/><use xlink:href="#54e8ed36L" x="276.6733" y="266"/><use xlink:href="#54e8ed36E" x="283.3403" y="266"/><use xlink:href="#54e8ed36M" x="290.0073" y="266"/><use xlink:href="#54e8ed36N" x="296.6743" y="266"/><use xlink:href="#54e8ed36t" x="303.3413" y="266"/><use xlink:href="#54e8ed36O" x="310.0083" y="266"/><use xlink:href="#54e8ed36N" x="316.6753" y="266"/><use xlink:href="#54e8ed36p" x="323.3423" y="266"/><use xlink:href="#54e8ed36r" x="330.0093" y="266"/><use xlink:href="#54e8ed36t" x="336.6763" y="266"/><use xlink:href="#54e8ed36G" x="343.3433" y="266"/><use xlink:href="#54e8ed36C" x="350.0103" y="266"/><use xlink:href="#54e8ed36J" x="356.6773" y="266"/><use xlink:href="#54e8ed36H" x="363.3443" y="266"/><use xlink:href="#54e8ed36D" x="370.0113" y="266"/><use xlink:href="#54e8ed36C" x="376.6783" y="266"/><use xlink:href="#54e8ed36H" x="383.3453" y="266"/><use xlink:href="#54e8ed36p" x="390.0123" y="266"/><use xlink:href="#54e8ed36t" x="396.6793" y="266"/><use xlink:href="#54e8ed36L" x="403.3463" y="266"/><use xlink:href="#54e8ed36E" x="410.0133" y="266"/><use xlink:href="#54e8ed36t" x="416.6803" y="266"/><use xlink:href="#54e8ed36N" x="423.3473" y="266"/><use xlink:href="#54e8ed36N" x="430.0143" y="266"/><use xlink:href="#54e8ed36P" x="436.6813" y="266"/><use xlink:href="#54e8ed36Q" x="443.3483" y="266"/><use xlink:href="#54e8ed36R" x="450.0153" y="266"/></g></g></svg>