<?xml version='1.0' encoding='UTF-8'?>
<svg xmlns="http://www.w3.org/2000/svg" xmlns:xlink="http://www.w3.org/1999/xlink" width="600px" height="300px" viewBox="0 0 600 300" x="0px" y="0px" enable-background="new 0 0 600 300"><defs><symbol overflow="visible" id="9973cce1a"><path d="M16.08.9c8.51 0 13.73-6 13.73-13.5 0-5.63-4.8-8.7-9.3-10.32l-5.15-1.86c-2.81-1.02-6.23-3.24-6.23-6.78 0-2.1.71-3.36 1.73-4.25.36-.31 2.87-.97 5.7-.97 2.52 0 4.92.23 6.9.78.48 1.92.73 3.84.9 5.88.84.48 1.92.54 3.12.25A36.52 36.52 0 0028.8-39a34.86 34.86 0 00-11.58-2.1c-6.13 0-13.56 3-13.56 11.4 0 6.06 5.76 8.76 10.2 10.43l4.37 1.7c3.07 1.13 6 3.41 6 6.52 0 2.83-.65 4.82-2.03 6.13-.3.3-2.89 1.5-5.76 1.5-3.42 0-5.94-.36-8.1-1.08-.48-2.64-.71-5.1-.84-7.31a5.14 5.14 0 00-3.19-.25A50.92 50.92 0 002.88-1.73C5.88-.13 10.86.9 16.07.9zm0 0"/></symbol><symbol overflow="visible" id="9973cce1b"><path d="M11.34.84c3.43 0 6.9-1.39 9.3-2.82a3.7 3.7 0 00-1.02-2.7c-2.17.77-3.84 1.26-5.93 1.26-1.92 0-2.83-2.22-2.83-6.6v-14.53h9.12c.18-1.18.24-2.32.24-3.65l-9.36-.11v-7.92a6.94 6.94 0 00-3.06-.36L5.8-28.44c-1.54.13-3.17.36-4.6.72-.13.78-.13 1.63.1 2.4 1.56.18 3.38.54 4.5.77v16.82c0 5.51 1.46 8.57 5.53 8.57zm0 0"/></symbol><symbol overflow="visible" id="9973cce1c"><path d="M12.9.84c3.3 0 6.66-2.82 9.24-5.64.48 2.75 1.63 5.64 3.06 5.64 2.1 0 4.99-1.43 6.85-3.06 0-.9-.36-1.69-.9-2.22-1.15.36-2.52.78-3.85.96-.24-1.32-.3-3.11-.3-4.74v-12.97c0-2.15.72-4.6 1.98-6.89a2.4 2.4 0 00-1.75-1.33c-1.07.49-2.51 1.99-3.71 3.55a13.49 13.49 0 00-8.46-3.19c-6.12 0-12.65 6.49-12.65 15.43C2.4-5.59 5.94.84 12.9.84zM7.5-15.3c0-3.54 1.38-6.84 2.94-8.57.48-.49 1.86-1.15 4.44-1.15 2.17 0 4.74.6 7.07 1.5v15.3c-2.32 2.16-5.8 4.63-7.8 4.63-4.43 0-6.65-5.64-6.65-11.7zm0 0"/></symbol><symbol overflow="visible" id="9973cce1d"><path d="M2.28.06c2.28 0 4.8-.12 7.27-.12 1.43 0 5.1.06 6.72.12.23-.54.36-1.8.36-2.7-1.08-.48-2.9-.9-4.5-1.08a50.93 50.93 0 01-.2-4.5v-14.22c1.7-1.14 4.09-2.47 6.66-2.47 4.75 0 5.22 3.32 5.22 7.82v10.07c0 1.2-.04 2.04-.23 3.36-1.31.43-2.52.72-4.27 1.02 0 .95.25 2.22.49 2.7 1.68 0 4.2-.12 6.65-.12 1.46 0 4.5.06 6.13.12.19-.54.3-1.8.3-2.7a12.76 12.76 0 00-3.9-1.08c-.06-1.44-.12-2.87-.12-4.5v-11.22c0-1.01-.06-1.98-.17-2.83 1.67-1.14 4.25-2.64 6.95-2.64 4.73 0 5.22 3.32 5.22 7.82v10.07c0 1.2-.06 2.04-.23 3.36-1.2.43-3.13.85-4.82 1.02 0 .95.19 2.22.42 2.7 2.29 0 4.82-.12 7.27-.12 1.44 0 5.1.06 6.66.12.3-.54.42-1.8.42-2.7-1.08-.48-2.88-.9-4.5-1.08a51.16 51.16 0 01-.17-4.5v-11.22c0-6.65-2.77-9.6-8.05-9.6-3.78 0-7.44 2.16-9.72 4.68-1.08-3.19-3.6-4.69-7.33-4.69-3.47 0-6.83 1.82-9.1 4.1-.3-1.33-.55-2.77-.79-3.49l-.48-.42a32.9 32.9 0 00-8.52 2.16c-.12.72 0 1.56.24 2.34 1.56.17 3.18.48 4.75.95V-7c0 1.2-.07 2.03-.25 3.35-1.2.43-3.11.85-4.8 1.02 0 .95.19 2.22.42 2.7zm0 0"/></symbol><symbol overflow="visible" id="9973cce1e"><path d="M2.05.06c2.45 0 4.8-.12 7.25-.12 2.76 0 6 .06 9.3.12.24-.54.35-1.8.35-2.7a35.6 35.6 0 00-7.07-1.08c-.11-1.44-.18-2.87-.18-4.5v-16.33h7.02c.19-1.18.23-2.32.23-3.65l-7.25-.11v-1.92c0-5.22.96-9.32 2.16-10.7.36-.41 2.05-1.13 4.08-1.13 1.01 0 2.15.12 3.18.3.3 1.68.43 3.42.47 5.1.85.53 1.99.6 3.32.24a26.6 26.6 0 001.3-8.03c-2.27-.9-4.73-1.5-7.79-1.5-7.33 0-11.76 6.72-11.76 16.97v.54c-1.61.17-3.3.36-4.61.72-.13.78-.13 1.63.1 2.4 1.57.18 3.55.54 4.5.77v17.53c0 1.2-.06 2.04-.23 3.36-1.2.43-3.12.85-4.8 1.02 0 .95.18 2.22.43 2.7zm0 0"/></symbol><symbol overflow="visible" id="9973cce1f"><path d="M15.06.84c8.4 0 13.31-8.15 13.31-15.42 0-8.22-3.95-14.47-12.65-14.47-8.4 0-13.31 8.18-13.31 15.43C2.4-5.22 6.55.84 15.06.84zm1.08-4.03c-6.42 0-8.64-7.01-8.64-12.1 0-3.62 1.31-6.79 3-8.59.72-.71 2.88-1.14 4.14-1.14 6.42 0 8.64 7.02 8.64 12.11 0 3.61-1.33 6.79-3 8.6-.72.72-2.87 1.12-4.14 1.12zm0 0"/></symbol><symbol overflow="visible" id="9973cce1g"><path d="M2.28.06c2.28 0 4.8-.12 7.27-.12 1.97 0 7.07.06 9.3.12.23-.54.35-1.8.35-2.7-1.5-.48-4.43-.9-7.07-1.08a50.93 50.93 0 01-.2-4.5v-11.64c2.48-3.95 4.45-4.69 6.73-4.69a10 10 0 011.56.13c.36 1.73.6 4.62.72 6.65 1.01.36 2.04.36 3.12 0a41.48 41.48 0 001.08-10.3 14.66 14.66 0 00-4.86-.79c-3.66 0-6.48 2.7-8.34 5.64-.17-1.5-.72-4.2-1.02-5.22l-.48-.42a32.9 32.9 0 00-8.52 2.16c-.12.72 0 1.56.24 2.34 1.56.17 3.18.48 4.75.95V-7c0 1.2-.07 2.03-.25 3.35-1.2.43-3.11.85-4.8 1.02 0 .95.19 2.22.42 2.7zm0 0"/></symbol><symbol overflow="visible" id="9973cce1h"><path d="M13.02.84c3.3 0 6.54-2.76 9.06-5.53.48 2.7 1.62 5.53 3.06 5.53 2.1 0 4.98-1.43 6.84-3.06 0-.9-.36-1.69-.9-2.22-1.14.36-2.52.78-3.85.96-.23-1.32-.3-3.11-.3-4.74V-28.2c0-6.6.07-11.28.26-17.28l-.49-.47c-3.54.3-7.92 1.18-10.5 2.1-.12.77 0 1.55.24 2.33 1.8.18 3.65.54 5.47.96v13.8c-1.75-1.08-4.57-2.1-6.61-2.1-6.72 0-12.9 6.78-12.9 15.23C2.4-5.57 5.95.85 13.03.85zM7.5-15.3c0-3.42 1.31-6.6 3-8.4.72-.72 2.88-1.14 4.14-1.14 2.58 0 5.22.78 7.27 1.5v15.36c-2.35 2.1-5.6 4.5-7.63 4.5-4.5 0-6.78-5.75-6.78-11.82zm0 0"/></symbol><symbol overflow="visible" id="9973cce1j"><path d="M12.42.9C21.48.9 27-6.05 27-13.62c0-4.8-3.78-7.43-7.44-9l-4.62-1.96c-2.35-1.04-4.99-3.2-4.99-6.36 0-2.24.85-3.78 2.11-5.05 1.31-.48 3.13-.78 5.4-.78 2.4 0 4.56.23 6.3.78.18 1.92.18 3.84.05 5.88.78.48 1.88.54 3.13.25A42.88 42.88 0 0029.28-39c-3-1.31-7.26-2.1-10.69-2.1-6.65 0-14.09 3.83-14.09 12.18 0 5.28 4.56 7.8 8.16 9.36l3.9 1.68c2.7 1.15 4.86 3.47 4.86 6.3 0 2.16-.72 4.74-2.4 6.53-1.68.9-3.54 1.63-6.54 1.63a18.2 18.2 0 01-6.6-1.08c-.11-2.64 0-5.1.18-7.31a5.1 5.1 0 00-3.18-.25A62.75 62.75 0 00.17-1.73C2.82-.13 7.45.9 12.43.9zm0 0"/></symbol><symbol overflow="visible" id="9973cce1k"><path d="M7.02.72c3.36 0 8.57-3.17 11.1-5.88-.18-.84-.6-1.5-1.26-1.98a30.44 30.44 0 01-7.63 2.76l2.54-19.32c.04-.24.04-.43.1-.66h7.99c.55-1.02.72-2.16.72-3.55-2.45-.3-5.16-.4-8.16-.4.49-2.83.96-5.7 1.63-8.7l-.49-.49c-2.4-.23-5.34.36-5.47 1.44l-.89 7.75H2.64c-1.08 0-1.2 2.33-1.2 3.95h5.28c-.17 1.56-.36 3.06-.53 4.56A552.8 552.8 0 014.2-6a18.1 18.1 0 00-.36 3c0 1.98.79 3.72 3.18 3.72zm0 0"/></symbol><symbol overflow="visible" id="9973cce1l"><path d="M6.66.9c2.64 0 6.42-2.1 9.6-4.85.24 2.68.83 4.67 2.33 4.67 2.7 0 6.91-2.58 8.96-4.8-.2-.84-.61-1.5-1.27-1.98a24.36 24.36 0 01-5.47 1.68l2.47-15.18c.13-.6.17-1.14.17-1.57 0-5.15-2.68-7.92-8.1-7.92-4.3 0-8.44 1.93-12.05 5.77.36 1.14 1.08 2.1 1.98 2.47 2.81-2.96 5.94-4.33 8.77-4.33 3.23 0 4.14 2.4 4.14 4.92 0 .9-.13 1.8-.25 2.64C9.72-16.38.84-13.27.84-5.64.84-1.63 2.81.9 6.66.9zm-.72-8.04c0-1.56.42-2.88 1.5-4.31a29.09 29.09 0 019.9-2.28L16.2-7.02c-2.15 1.8-4.75 3.36-6.97 3.36-2.21 0-3.3-1.62-3.3-3.48zm0 0"/></symbol><symbol overflow="visible" id="9973cce1m"><path d="M3.55.19C6.13.42 8.77-.2 8.88-1.27c.78-6.3 1.68-13.25 2.53-19.43 3.23-2.46 6.23-4.02 9.1-4.38 1.04.66 1.27 1.92 1.27 3.17 0 .79-.12 1.5-.19 2.11-.82 6.3-1.8 12.66-3.1 19.5l.46.49c2.6.23 5.18-.38 5.28-1.46.91-6.59 1.75-12.89 2.58-19.18 3.42-2.6 6.55-4.27 9.49-4.63 1.01.53 1.2 1.99 1.2 3.85 0 1.73-1.56 9.59-3 16.3-.13.66-.19 1.34-.19 1.93 0 1.98.85 3.72 3.06 3.72 2.7 0 6.91-2.58 8.94-4.8-.17-.84-.6-1.5-1.25-1.98-1.62.72-3.6 1.33-5.58 1.68 1.68-7.39 3.24-14.89 3.24-18.9 0-3.17-1.63-5.88-5.1-5.88-3.06 0-6.78 2.1-10.68 5.52-.13-3-1.74-5.52-5.1-5.52-2.89 0-6.36 1.86-10.03 4.93.06-.32.06-.61.06-.97 0-2.35-1.07-3.72-3.42-3.72-2.32 0-4.86.72-6.82 1.86a3.18 3.18 0 000 2.15c1.73 0 3.35.2 5.09.55l-.53 4.56A290.2 290.2 0 013.06-.3zm0 0"/></symbol><symbol overflow="visible" id="9973cce1n"><path d="M1.8 15.23c2.58.25 5.34-.36 5.47-1.43.71-7.57 1.6-15.3 2.51-22.44l1.92-15.72h6.36c.53-1.02.72-2.16.72-3.55-2.05-.23-4.2-.36-6.6-.4.66-5.05 1.74-11.35 3.12-12.61.65-.24 1.39-.36 2.1-.36 2.1 0 4.38 1.01 5.88 2.16 1.92-.66 4.14-3.36 3.6-4.15-.9-1.25-3.24-2.32-6.72-2.32-6.07 0-10.8 4.25-11.75 10.3-.36 2.1-.68 4.34-1.04 6.98H2.64c-1.08 0-1.2 2.33-1.2 3.95h5.4c-.18 1.38-.36 2.88-.6 4.56L4.3-4.73a361.57 361.57 0 01-3 19.5zm0 0"/></symbol><symbol overflow="visible" id="9973cce1o"><path d="M10.38.95c9.67 0 15.3-8.03 15.3-18.36 0-5.15-1.74-11.75-8.52-11.75-9.54 0-15.11 8.04-15.11 18.36C2.05-5.64 3.85.95 10.37.95zm2.57-4.01c-4.18 0-5.8-3.9-5.8-10.44 0-4.92 1.85-8.7 3.58-10.5A9.07 9.07 0 0115-25.14c3.78 0 5.58 3.9 5.58 10.5 0 4.62-1.86 8.58-3.6 10.37a8.71 8.71 0 01-4.03 1.2zm0 0"/></symbol><symbol overflow="visible" id="9973cce1p"><path d="M3.55.19C6.13.42 8.77-.2 8.88-1.27c.67-5.57 1.5-11.68 2.21-17.32C13.02-21 15-22.8 17.7-24.5c1.14.97 2.03 1.86 2.7 2.83 1.8-.54 3.73-2.46 3.73-3.54 0-1.44-1.44-4.14-3.79-4.14-2.76 0-5.82 2.7-8.64 6.25l.07-.61c.04-.6.1-1.02.1-1.5 0-2.35-1.07-3.72-3.42-3.72-2.32 0-4.86.72-6.82 1.86a3.18 3.18 0 000 2.15c1.73 0 3.35.2 5.09.55l-.53 4.56A290.2 290.2 0 013.06-.3zm0 0"/></symbol><symbol overflow="visible" id="9973cce1q"><path d="M7.56.95c3.24 0 7.25-2.26 10.92-5.87.24 3.23.72 5.64 2.46 5.64 2.7 0 6.9-2.58 8.93-4.8-.17-.84-.59-1.5-1.25-1.98a24.36 24.36 0 01-5.46 1.68l4.68-35.93c.07-.61.11-1.1.11-1.56 0-2.35-1.07-3.72-3.4-3.72-2.6 0-5.4.72-7.57 1.86a3.18 3.18 0 000 2.15c1.97 0 3.9.17 5.88.53L21.19-28.3a26.17 26.17 0 00-5.53-.67c-8.75 0-13.61 9.54-13.61 19.14 0 2.15.17 4.5.65 6.48C3.3-.84 4.86.95 7.56.95zm-.42-12.53c0-5.87 2.1-10.8 4.38-12.84.84-.36 1.8-.53 3.18-.53 1.8 0 3.85.47 5.88 1.37L18.55-7.86c-3.49 2.58-6.85 4.5-9.74 4.5-1.08-1.08-1.67-3.95-1.67-8.22zm0 0"/></symbol><symbol overflow="visible" id="9973cce1r"><path d="M3.83 0v-5.95H6.2v-.82H.45v.82h2.4V0zm0 0"/></symbol><symbol overflow="visible" id="9973cce1s"><path d="M5.75-2.23v-.43c0-1.6-.9-2.51-2.42-2.51S.87-4.16.87-2.48c0 1.71.91 2.62 2.5 2.62 1.43 0 2.07-.56 2.29-1.52l-.9-.09c-.18.61-.59.9-1.35.9-.94 0-1.52-.54-1.58-1.66zm-2.4-2.2c.93 0 1.43.5 1.48 1.55H1.84c.08-1.07.6-1.56 1.5-1.56zm0 0"/></symbol><symbol overflow="visible" id="9973cce1t"><path d="M1.83 0l1.42-2h.06l1.46 2H5.8L4-2.53l1.78-2.49H4.8L3.42-3.08h-.08l-1.4-1.94H.89l1.78 2.49L.84 0zm0 0"/></symbol><symbol overflow="visible" id="9973cce1u"><path d="M5.52-4.25v-.77H3.17v-1.56h-.81l-.14 1.56H.75v.77h1.47v2.4c0 1.3.48 1.94 1.84 1.94C4.6.1 5.14 0 5.55-.14L5.4-.91c-.32.13-.72.2-1.13.2-.8 0-1.1-.37-1.1-1.23v-2.31zm0 0"/></symbol><symbol overflow="visible" id="9973cce1v"><path d="M3.33-3.42c.47 0 .8-.27.8-.8 0-.51-.33-.8-.8-.8-.47 0-.8.29-.8.8 0 .53.33.8.8.8zm0 3.5c.47 0 .8-.27.8-.78 0-.53-.33-.82-.8-.82-.47 0-.8.29-.8.82 0 .51.33.78.8.78zm0 0"/></symbol><symbol overflow="visible" id="9973cce1x"><path d="M3.42.14c1.61 0 2.56-.75 2.56-2 0-1.1-.67-1.6-1.95-1.86l-.97-.2c-.87-.17-1.23-.49-1.23-1.11 0-.7.54-1.11 1.5-1.11 1.06 0 1.51.34 1.69 1.23l.9-.09c-.17-1.28-.98-1.9-2.6-1.9C1.79-6.9.9-6.18.9-4.98c0 1.06.66 1.66 1.88 1.9l1.01.2c.85.17 1.25.4 1.25 1.09 0 .73-.6 1.16-1.6 1.16-1.07 0-1.66-.4-1.8-1.24l-.94.1C.83-.53 1.75.13 3.42.13zm0 0"/></symbol><symbol overflow="visible" id="9973cce1y"><path d="M2.83.14c.94 0 1.5-.39 1.81-.95h.08l.1.81h.76v-3.38c0-1.23-.69-1.8-2.13-1.8-1.43 0-2.03.65-2.18 1.6l.93.1c.11-.6.44-.93 1.22-.93.85 0 1.22.32 1.22 1.04v.34l-1.81.2C1.6-2.7 1.1-2.17 1.1-1.28c0 .92.64 1.42 1.72 1.42zm.25-.77c-.67 0-1.02-.28-1.02-.74 0-.44.28-.72 1-.82l1.58-.19v.41c0 .8-.6 1.34-1.56 1.34zm0 0"/></symbol><symbol overflow="visible" id="9973cce1z"><path d="M1.63 0v-2.9c0-.8.15-1.4.71-1.4.41 0 .55.3.55.88V0h.95v-2.9c0-.8.18-1.4.72-1.4.4 0 .57.3.57.88V0h.95v-3.63c0-.92-.28-1.53-1.11-1.53-.63 0-.95.41-1.1.9h-.06c-.1-.52-.44-.9-1.08-.9-.6 0-.93.41-1.06.9H1.6l-.23-.76H.67V0zm0 0"/></symbol><symbol overflow="visible" id="9973cce1A"><path d="M4.63-6.5c.45 0 .98.08 1.39.2l.2-.72a5.3 5.3 0 00-1.64-.26c-1.52 0-2.16.56-2.16 1.87v.4H.9v.76h1.53V0h.94v-4.25h2.53v-.77H3.36v-.3c0-.84.33-1.18 1.27-1.18zm0 0"/></symbol><symbol overflow="visible" id="9973cce1B"><path d="M3.33.14c1.62 0 2.5-.95 2.5-2.66 0-1.68-.88-2.64-2.5-2.64-1.63 0-2.5.96-2.5 2.64 0 1.7.87 2.66 2.5 2.66zm0-.77c-1.06 0-1.52-.6-1.52-1.89 0-1.28.46-1.87 1.52-1.87 1.08 0 1.53.6 1.53 1.87 0 1.29-.45 1.9-1.53 1.9zm0 0"/></symbol><symbol overflow="visible" id="9973cce1C"><path d="M5.08-5.16c-.94 0-1.58.43-1.9 1.3h-.09l-.07-1.16H1.05v.77h1.1v3.48H.96V0h3.96v-.77H3.1v-1.46c0-1.36.6-2.05 1.83-2.05.4 0 .76.08 1.1.17l.15-.87c-.33-.11-.7-.18-1.11-.18zm0 0"/></symbol><symbol overflow="visible" id="9973cce1D"><path d="M2.84.14C3.8.14 4.33-.26 4.6-.9h.07L4.8 0h.76v-7.14h-.95v2.95h-.08c-.28-.6-.86-.97-1.67-.97-1.48 0-2.27.99-2.27 2.64C.6-.84 1.36.14 2.84.14zm.22-.8c-.98 0-1.48-.59-1.48-1.84s.5-1.86 1.48-1.86c1.13 0 1.58.8 1.58 1.86S4.2-.66 3.06-.66zm0 0"/></symbol><symbol overflow="visible" id="9973cce1E"><path d="M5.95-6.77H1.1V0h.99v-2.92H5.3v-.77H2.08v-2.26h3.87zm0 0"/></symbol><symbol overflow="visible" id="9973cce1F"><path d="M2.73.14c.9 0 1.43-.45 1.74-1.08h.06l.13.94h.8v-5.02h-.94v2.7c0 .98-.57 1.62-1.46 1.62-.75 0-1.1-.4-1.1-1.22v-3.1h-.93v3.32c0 1.17.55 1.84 1.7 1.84zm0 0"/></symbol><symbol overflow="visible" id="9973cce1G"><path d="M6.17 0L3.98-6.77h-1.3L.5 0h.97l.44-1.47h2.78L5.16 0zM3.28-5.94h.08l1.1 3.74H2.15zm0 0"/></symbol><symbol overflow="visible" id="9973cce1H"><path d="M3.92-7.14H1.36v.76h1.6v5.61H1.15V0H5.7v-.77H3.92zm0 0"/></symbol><symbol overflow="visible" id="9973cce1I"><path d="M2.16 0v-2.67c0-.99.59-1.63 1.46-1.63.74 0 1.07.38 1.07 1.22V0h.95v-3.31c0-1.2-.56-1.85-1.67-1.85-.92 0-1.49.46-1.77 1.08h-.06l-.12-.94H1.2V0zm0 0"/></symbol><symbol overflow="visible" id="9973cce1J"><path d="M3.58-5.81c.42 0 .72-.22.72-.67 0-.44-.3-.68-.72-.68-.44 0-.72.24-.72.68 0 .45.28.67.72.67zm.5.8H1.52v.76h1.6v3.48h-1.8V0h4.46v-.77h-1.7zm0 0"/></symbol><symbol overflow="visible" id="9973cce1K"><path d="M3.9 0l2-5.02h-.96L3.4-.94h-.07L1.8-5.02H.77L2.78 0zm0 0"/></symbol><symbol overflow="visible" id="9973cce1L"><path d="M3.38-5.9c.12-.5.42-1.04.67-1.41l-.63-.22a4.28 4.28 0 00-1.01 2.39c0 .66.3 1 .9 1 .6 0 .9-.33.9-.9 0-.57-.32-.83-.83-.85zm0 0"/></symbol><symbol overflow="visible" id="9973cce1M"><path d="M3.3-7.53c-.55 0-.85.3-.85.84 0 .55.36.8.83.8h.03a5.1 5.1 0 01-.69 1.47l.52.23a4.29 4.29 0 001.02-2.4c0-.63-.33-.94-.86-.94zm0 0"/></symbol><symbol overflow="visible" id="9973cce1N"><path d="M1.45-2.95c0 2.56 1.08 4.37 3.67 4.84l.11-.67C3.28.86 2.43-.75 2.43-2.95s.85-3.82 2.8-4.16l-.1-.69c-2.6.49-3.68 2.3-3.68 4.85zm0 0"/></symbol><symbol overflow="visible" id="9973cce1O"><path d="M3.36.16c1.4 0 2.2-.6 2.2-1.57 0-.89-.54-1.22-1.47-1.39L3-3c-.67-.14-.86-.33-.86-.73 0-.5.4-.74 1.17-.74.83 0 1.19.27 1.27.8l.9-.05c-.12-1-.8-1.47-2.17-1.47-1.34 0-2.1.53-2.1 1.5 0 .81.45 1.22 1.52 1.44l1.04.2c.56.11.87.24.87.72 0 .52-.45.78-1.28.78-.95 0-1.36-.28-1.42-.87l-.9.06C1.07-.36 1.8.16 3.35.16zm0 0"/></symbol><symbol overflow="visible" id="9973cce1P"><path d="M3.33.14c1.65 0 2.6-1.1 2.6-3.52S4.99-6.9 3.34-6.9C1.67-6.9.72-5.8.72-3.37c0 2.4.95 3.51 2.6 3.51zm0-.84c-1.13 0-1.6-.85-1.6-2.67 0-1.86.47-2.7 1.6-2.7 1.12 0 1.6.84 1.6 2.7 0 1.82-.48 2.67-1.6 2.67zM3.3-2.64c.38 0 .56-.28.56-.72 0-.44-.18-.7-.56-.7-.39 0-.56.26-.56.7 0 .44.17.72.56.72zm0 0"/></symbol><symbol overflow="visible" id="9973cce1Q"><path d="M5.67 0v-.86H2.14V-.9L3.6-2c1.05-.83 2-1.68 2-2.91 0-1.19-.73-1.99-2.26-1.99-1.66 0-2.3 1.02-2.44 2.33l1 .08c.1-.92.42-1.58 1.44-1.58.87 0 1.26.44 1.26 1.24 0 .9-.8 1.53-1.96 2.53L.83-.81V0zm0 0"/></symbol><symbol overflow="visible" id="9973cce1R"><path d="M1.45-7.1c1.96.33 2.8 1.94 2.8 4.15 0 2.2-.84 3.8-2.8 4.17l.11.67c2.58-.47 3.67-2.28 3.67-4.84 0-2.55-1.09-4.36-3.67-4.85zm0 0"/></symbol></defs><g fill="#515151"><use xlink:href="#9973cce1a" x="57.39" y="152"/><use xlink:href="#9973cce1b" x="90.03" y="152"/></g><use xlink:href="#9973cce1c" x="110.97" y="152" fill="#fff"/><g fill="#515151"><use xlink:href="#9973cce1d" x="144.33" y="152"/><use xlink:href="#9973cce1e" x="195.81" y="152"/></g><g fill="#515151"><use xlink:href="#9973cce1f" x="216.21" y="152"/><use xlink:href="#9973cce1g" x="246.99" y="152"/><use xlink:href="#9973cce1h" x="272.85" y="152"/><use xlink:href="#9973cce1i" x="305.91" y="152"/></g><g fill="#515151"><use xlink:href="#9973cce1j" x="318.51" y="152"/><use xlink:href="#9973cce1k" x="348.27" y="152"/></g><use xlink:href="#9973cce1l" x="368.49" y="152" fill="#fff"/><g fill="#515151"><use xlink:href="#9973cce1m" x="396.39" y="152"/><use xlink:href="#9973cce1n" x="443.61" y="152"/></g><g fill="#515151"><use xlink:href="#9973cce1o" x="461.55" y="152"/><use xlink:href="#9973cce1p" x="489.27" y="152"/></g><use xlink:href="#9973cce1q" x="511.71" y="152" fill="#515151"/><g fill="#fff"><use xlink:href="#9973cce1r" x="223.3333" y="252"/><use xlink:href="#9973cce1s" x="230.0003" y="252"/><use xlink:href="#9973cce1t" x="236.6673" y="252"/><use xlink:href="#9973cce1u" x="243.3343" y="252"/><use xlink:href="#9973cce1v" x="250.0013" y="252"/><use xlink:href="#9973cce1w" x="256.6683" y="252"/><use xlink:href="#9973cce1x" x="263.3353" y="252"/><use xlink:href="#9973cce1u" x="270.0023" y="252"/><use xlink:href="#9973cce1y" x="276.6693" y="252"/><use xlink:href="#9973cce1z" x="283.3363" y="252"/><use xlink:href="#9973cce1A" x="290.0033" y="252"/><use xlink:href="#9973cce1B" x="296.6703" y="252"/><use xlink:href="#9973cce1C" x="303.3373" y="252"/><use xlink:href="#9973cce1D" x="310.0043" y="252"/><use xlink:href="#9973cce1w" x="316.6713" y="252"/><use xlink:href="#9973cce1x" x="323.3383" y="252"/><use xlink:href="#9973cce1u" x="330.0053" y="252"/><use xlink:href="#9973cce1y" x="336.6723" y="252"/><use xlink:href="#9973cce1z" x="343.3393" y="252"/><use xlink:href="#9973cce1A" x="350.0063" y="252"/><use xlink:href="#9973cce1B" x="356.6733" y="252"/><use xlink:href="#9973cce1C" x="363.3403" y="252"/><use xlink:href="#9973cce1D" x="370.0073" y="252"/></g><g fill="#fff"><use xlink:href="#9973cce1E" x="170" y="266"/><use xlink:href="#9973cce1s" x="176.667" y="266"/><use xlink:href="#9973cce1y" x="183.334" y="266"/><use xlink:href="#9973cce1u" x="190.001" y="266"/><use xlink:href="#9973cce1F" x="196.668" y="266"/><use xlink:href="#9973cce1C" x="203.335" y="266"/><use xlink:href="#9973cce1s" x="210.002" y="266"/><use xlink:href="#9973cce1v" x="216.669" y="266"/><use xlink:href="#9973cce1w" x="223.336" y="266"/><use xlink:href="#9973cce1G" x="230.003" y="266"/><use xlink:href="#9973cce1H" x="236.67" y="266"/><use xlink:href="#9973cce1u" x="243.337" y="266"/><use xlink:href="#9973cce1s" x="250.004" y="266"/><use xlink:href="#9973cce1C" x="256.671" y="266"/><use xlink:href="#9973cce1I" x="263.338" y="266"/><use xlink:href="#9973cce1y" x="270.005" y="266"/><use xlink:href="#9973cce1u" x="276.672" y="266"/><use xlink:href="#9973cce1J" x="283.339" y="266"/><use xlink:href="#9973cce1K" x="290.006" y="266"/><use xlink:href="#9973cce1s" x="296.673" y="266"/><use xlink:href="#9973cce1w" x="303.34" y="266"/><use xlink:href="#9973cce1A" x="310.007" y="266"/><use xlink:href="#9973cce1B" x="316.674" y="266"/><use xlink:href="#9973cce1C" x="323.341" y="266"/><use xlink:href="#9973cce1z" x="330.008" y="266"/><use xlink:href="#9973cce1w" x="336.675" y="266"/><use xlink:href="#9973cce1B" x="343.342" y="266"/><use xlink:href="#9973cce1A" x="350.009" y="266"/><use xlink:href="#9973cce1w" x="356.676" y="266"/><use xlink:href="#9973cce1L" x="363.343" y="266"/><use xlink:href="#9973cce1y" x="370.01" y="266"/><use xlink:href="#9973cce1M" x="376.677" y="266"/><use xlink:href="#9973cce1w" x="383.344" y="266"/><use xlink:href="#9973cce1N" x="390.011" y="266"/><use xlink:href="#9973cce1O" x="396.678" y="266"/><use xlink:href="#9973cce1O" x="403.345" y="266"/><use xlink:href="#9973cce1P" x="410.012" y="266"/><use xlink:href="#9973cce1Q" x="416.679" y="266"/><use xlink:href="#9973cce1R" x="423.346" y="266"/></g></svg>