<?xml version='1.0' encoding='UTF-8'?>
<svg xmlns="http://www.w3.org/2000/svg" xmlns:xlink="http://www.w3.org/1999/xlink" width="600px" height="300px" viewBox="0 0 600 300" x="0px" y="0px" enable-background="new 0 0 600 300"><defs><symbol overflow="visible" id="dcd42d01a"><path d="M35.34-1.5l-3.36-4.8v-21.65c0-3.55.07-6.07.24-8.28 1.8-.2 3.42-.61 4.86-1.15a7.67 7.67 0 00-.36-2.89c-1.74.13-5.34.13-6.9.13-2.16 0-4.55-.13-7.13-.13a7.81 7.81 0 00-.49 2.9c1.74.17 3.49.59 5.22 1.14.17 2.21.3 4.73.3 8.28v15.53L8.22-40.44c-1.38 0-3.24.3-4.38.85l-.36.65 3.96 6.13v25.19c0 1.26-.07 2.53-.3 3.67-1.73.53-3.48.95-5.22 1.14 0 .95.13 1.9.49 2.87 2.57 0 4.96-.12 7.14-.12 1.54 0 5.15 0 6.89.12.3-.9.42-1.86.36-2.87a18.63 18.63 0 00-4.86-1.14 46.18 46.18 0 01-.24-4.99v-17.28L28.86.3a14.3 14.3 0 006.12-1.14zm9.72-33.19c-5.83 0-9.25 4.99-9.25 9.42 0 5.18 2.9 8.83 8.77 8.83 5.87 0 9.23-4.98 9.23-9.42 0-5.05-2.69-8.83-8.75-8.83zm.17 15.06c-3.46 0-4.67-3.78-4.67-6.59 0-1.98.66-3.72 1.63-4.73.36-.36 1.54-.55 2.26-.55 3.49 0 4.7 3.78 4.7 6.6 0 1.98-.67 3.71-1.63 4.74-.43.43-1.57.54-2.29.54zm-7.6 9.36h14.39a7.62 7.62 0 000-3.36h-14.4a6.8 6.8 0 000 3.36zm0 0"/></symbol><symbol overflow="visible" id="dcd42d01b"><path d="M13.63.84c7.6 0 13.85-6.12 13.85-14.64 0-5.89-4.56-10.39-11.53-10.39-1.67 0-3.1.25-4.97.67v-10.62h14.33c.38-1.08.55-2.28.61-3.66l-.48-.42c-4.08 0-8.16.06-12.13.06H6.48l-.48.47v18.85l.48.48a23.43 23.43 0 018.22-1.56 7.33 7.33 0 017.32 7.56c0 2.64-.79 5.77-2.4 7.27-.71.65-3 1.67-5.34 1.67-1.92 0-3.6-.13-4.86-.53a45.71 45.71 0 01-1.33-6.9 5.58 5.58 0 00-3.17.22 99.33 99.33 0 00-.6 9.49 24.14 24.14 0 009.3 1.98zm0 0"/></symbol><symbol overflow="visible" id="dcd42d01c"><path d="M14.58-39.06c-3.96 0-7.67.9-11.4 2.87a50 50 0 001.02 9.85c1.14.48 2.28.3 3.36 0 .07-2.7.3-5.46.78-7.97 1.32-.31 3-.49 4.44-.49 4.67 0 7.56 3.42 7.56 7.99 0 6.17-7.75 13.5-18.06 21.89-.12 1.92.13 3.48.66 4.86h10.69c4.01 0 9.95 0 13.5.12l.46-.48c.49-4.31.68-7.44.68-10.8a6.44 6.44 0 00-3.2-.3c-.59 2.4-1.26 4.74-2.02 6.96h-15l4.54-3.9c6.68-5.7 13.2-12.3 13.2-20.16 0-6.3-4.6-10.44-11.21-10.44zm0 0"/></symbol><symbol overflow="visible" id="dcd42d01e"><path d="M3.48.06c2.82 0 5.46-.12 8.4-.12 2.28 0 6.42 0 8.28.12.36-.9.48-1.86.42-2.87-1.67-.49-3.66-.9-5.77-1.1a41.4 41.4 0 01-.23-4.73v-30l-.49-.48C9.66-38.45 6.13-37.5 3.06-36a3.3 3.3 0 00.53 2.45h5.7v26.17c0 1.2-.06 2.4-.23 3.47-2.1.55-4.08.91-6.12 1.1 0 .95.12 1.9.54 2.87zm0 0"/></symbol><symbol overflow="visible" id="dcd42d01f"><path d="M29.58-11.52c0-4.2-3.6-7.14-9-9.9v-.13c4.37-2.32 7.37-5.32 7.37-9.4 0-4.33-3.82-8.28-10.9-8.28-5.4 0-12.36 4.25-12.36 11.21 0 3.36 3 5.88 7.5 8.4v.12c-5.96 3-8.64 6.48-8.64 10.73 0 6.61 4.3 9.79 11.75 9.79 8.22 0 14.28-6.07 14.28-12.54zm-19.8-18.6c0-1.86.85-3.24 1.74-3.9.48-.35 2.4-.96 4.32-.96 4.02 0 7.25 2.64 7.25 5.57 0 2.35-2.57 4.63-5.57 6.49-4.44-2.28-7.74-4.5-7.74-7.2zM8.45-9.84c0-3.11 2.9-6.07 7.2-7.97 4.76 2.45 8.77 4.8 8.77 8.03 0 1.92-.55 3.9-1.92 5.05-.6.53-3.23 1.54-6 1.54-3.55 0-8.05-1.6-8.05-6.65zm0 0"/></symbol><symbol overflow="visible" id="dcd42d01g"><path d="M6.3-17.16c1.86 0 4.08-1.07 6-2.53.54 1.46 1.43 2.53 2.34 2.53 1.8 0 3.84-1.07 5.16-2.34 0-.66-.24-1.14-.66-1.5-.78.19-1.73.36-2.64.48v-9.06c0-5.05-4.14-5.83-6.55-5.83-2.93 0-5.75.78-7.86 1.99 0 1.5.43 2.87 1.1 3.97a4.3 4.3 0 002.94-.43c0-.84.06-1.68.3-2.53.88-.1 1.79-.17 2.7-.17 2.03 0 2.64 1.63 2.74 3.85-4.6.89-10.6 3.04-10.6 7.14 0 2.87 1.85 4.43 5.03 4.43zM6-22.8c0-.6.3-1.56.78-1.86.42-.3 2.7-.78 5.1-1.07v3.82c-1.08.72-2.46 1.33-3.54 1.33-1.5 0-2.34-1.08-2.34-2.22zm0 0"/></symbol><symbol overflow="visible" id="dcd42d01h"><path d="M27.78-2.77a17.5 17.5 0 00-4.62-1.07c-.11-1.5-.18-3.11-.18-4.74v-1.86h6.83a6.7 6.7 0 00.25-3.48l-7.08-.42v-23.29c-1.5-.65-3-.89-4.5-.89L1.8-14.7c0 1.5.25 3 .78 4.26h15.3v3.13c0 1.18-.07 2.39-.24 3.47-2.1.54-4.08.9-6.12 1.07 0 .91.12 1.86.48 2.83 2.88 0 5.45-.12 8.4-.12 1.98 0 5.4 0 7.08.12.24-.9.36-1.86.3-2.83zm-9.97-29.87h.07v18.42H6l10.08-14.47zm0 0"/></symbol><symbol overflow="visible" id="dcd42d01i"><path d="M10.56-35.4c-5.83 0-9.25 4.98-9.25 9.42 0 5.17 2.9 8.82 8.77 8.82 5.87 0 9.23-4.98 9.23-9.42 0-5.05-2.68-8.83-8.75-8.83zm.17 15.06c-3.46 0-4.67-3.79-4.67-6.6 0-1.98.66-3.72 1.63-4.75.36-.36 1.54-.53 2.26-.53 3.49 0 4.7 3.78 4.7 6.6 0 1.98-.67 3.71-1.63 4.75-.43.42-1.57.53-2.29.53zm0 0"/></symbol><symbol overflow="visible" id="dcd42d01j"><path d="M9.78-17.16c2.7 0 5.94-1.39 7.8-2.7-.13-.9-.3-1.5-.9-1.98-2.27.84-4.02 1.26-5.63 1.26-3.49 0-4.82-2.94-5.05-5.51h2.77c2.8 0 5.8.04 8.09.1l.36-.42c.23-.46.3-1.25.3-2.03 0-3.06-1.57-6.97-7.25-6.97-5.22 0-8.96 4.93-8.96 9.55 0 4.86 2.53 8.7 8.47 8.7zM7.63-31.8c.35-.36 1.37-.54 1.96-.54 2.7 0 3.25 1.86 3.25 3.84H6.06c.24-1.44.9-2.58 1.57-3.3zm0 0"/></symbol><symbol overflow="visible" id="dcd42d01k"><path d="M1.44-17.58c1.5 0 3.19-.12 5.47-.12 1.73 0 5.21.06 6.59.12.19-.42.3-1.5.3-2.22-1.02-.3-2.94-.54-4.61-.65-.06-.85-.13-1.7-.13-2.7v-5.94c1.38-1.99 2.7-2.7 3.9-2.7.3 0 .54 0 .84.06.18.95.42 2.51.48 3.59.9.36 1.99.36 2.94 0 .55-1.98.72-4.02.72-6.6-.9-.35-2.03-.6-3.42-.6-2.4 0-4.2 1.5-5.46 3.25-.3-.97-.54-1.99-.84-3l-.53-.25c-2.28.12-4.57.6-6.49 1.26-.12.6-.06 1.31.18 1.99 1.03.1 2.04.3 3.06.59v9.06c0 .72 0 1.25-.13 2.03-.76.25-2.03.49-3.1.61 0 .78.1 1.8.23 2.22zm0 0"/></symbol><symbol overflow="visible" id="dcd42d01l"><path d="M3.83 0v-5.95H6.2v-.82H.45v.82h2.4V0zm0 0"/></symbol><symbol overflow="visible" id="dcd42d01m"><path d="M5.75-2.23v-.43c0-1.6-.9-2.51-2.42-2.51S.87-4.16.87-2.48c0 1.71.91 2.62 2.5 2.62 1.43 0 2.07-.56 2.29-1.52l-.9-.09c-.18.61-.59.9-1.35.9-.94 0-1.52-.54-1.58-1.66zm-2.4-2.2c.93 0 1.43.5 1.48 1.55H1.84c.08-1.07.6-1.56 1.5-1.56zm0 0"/></symbol><symbol overflow="visible" id="dcd42d01n"><path d="M1.83 0l1.42-2h.06l1.46 2H5.8L4-2.53l1.78-2.49H4.8L3.42-3.08h-.08l-1.4-1.94H.89l1.78 2.49L.84 0zm0 0"/></symbol><symbol overflow="visible" id="dcd42d01o"><path d="M5.52-4.25v-.77H3.17v-1.56h-.81l-.14 1.56H.75v.77h1.47v2.4c0 1.3.48 1.94 1.84 1.94C4.6.1 5.14 0 5.55-.14L5.4-.91c-.32.13-.72.2-1.13.2-.8 0-1.1-.37-1.1-1.23v-2.31zm0 0"/></symbol><symbol overflow="visible" id="dcd42d01p"><path d="M3.33-3.42c.47 0 .8-.27.8-.8 0-.51-.33-.8-.8-.8-.47 0-.8.29-.8.8 0 .53.33.8.8.8zm0 3.5c.47 0 .8-.27.8-.78 0-.53-.33-.82-.8-.82-.47 0-.8.29-.8.82 0 .51.33.78.8.78zm0 0"/></symbol><symbol overflow="visible" id="dcd42d01r"><path d="M1.84 0v-4.48l-.06-.99h.1L4.46 0h1.28v-6.77h-.92v4.4l.06 1.03h-.1L2.21-6.77H.92V0zm0 0"/></symbol><symbol overflow="visible" id="dcd42d01s"><path d="M3.33.14c1.62 0 2.5-.95 2.5-2.66 0-1.68-.88-2.64-2.5-2.64-1.63 0-2.5.96-2.5 2.64 0 1.7.87 2.66 2.5 2.66zm0-.77c-1.06 0-1.52-.6-1.52-1.89 0-1.28.46-1.87 1.52-1.87 1.08 0 1.53.6 1.53 1.87 0 1.29-.45 1.9-1.53 1.9zm0 0"/></symbol><symbol overflow="visible" id="dcd42d01t"><path d="M3.42.14c1.55 0 2.44-.84 2.44-2.33 0-1.45-.83-2.22-2.14-2.22-.75 0-1.28.27-1.67.72H2l.31-2.22h3.11v-.86H1.53l-.45 3.93h.81c.3-.36.9-.79 1.58-.79.92 0 1.44.43 1.44 1.47 0 .99-.54 1.5-1.49 1.5-.83 0-1.28-.32-1.5-1.01l-.95.1C1.07-.46 2 .13 3.42.13zm0 0"/></symbol><symbol overflow="visible" id="dcd42d01u"><path d="M5.67 0v-.86H2.14V-.9L3.6-2c1.05-.83 2-1.68 2-2.91 0-1.19-.73-1.99-2.26-1.99-1.66 0-2.3 1.02-2.44 2.33l1 .08c.1-.92.42-1.58 1.44-1.58.87 0 1.26.44 1.26 1.24 0 .9-.8 1.53-1.96 2.53L.83-.81V0zm0 0"/></symbol><symbol overflow="visible" id="dcd42d01v"><path d="M4.22-6.77h-.86l-2.03.7v.87c.64-.17 1.26-.38 1.89-.55v4.9H1.03V0h4.9v-.86H4.21zm0 0"/></symbol><symbol overflow="visible" id="dcd42d01w"><path d="M3.33.16c1.69 0 2.69-.74 2.69-1.94 0-1.05-.8-1.58-1.43-1.72v-.05c.5-.14 1.2-.58 1.2-1.56 0-1.12-.95-1.81-2.46-1.81-1.52 0-2.46.69-2.46 1.81 0 .97.68 1.4 1.18 1.56v.05c-.6.14-1.4.64-1.4 1.72 0 1.2 1 1.94 2.68 1.94zm0-4.04c-.97 0-1.49-.43-1.49-1.12 0-.78.52-1.1 1.49-1.1.95 0 1.48.32 1.48 1.1 0 .69-.53 1.13-1.48 1.13zm0 3.24c-1.1 0-1.7-.42-1.7-1.25 0-.78.6-1.2 1.7-1.2s1.7.42 1.7 1.2c0 .83-.6 1.25-1.7 1.25zm0 0"/></symbol><symbol overflow="visible" id="dcd42d01x"><path d="M2.83.14c.94 0 1.5-.39 1.81-.95h.08l.1.81h.76v-3.38c0-1.23-.69-1.8-2.13-1.8-1.43 0-2.03.65-2.18 1.6l.93.1c.11-.6.44-.93 1.22-.93.85 0 1.22.32 1.22 1.04v.34l-1.81.2C1.6-2.7 1.1-2.17 1.1-1.28c0 .92.64 1.42 1.72 1.42zm.25-.77c-.67 0-1.02-.28-1.02-.74 0-.44.28-.72 1-.82l1.58-.19v.41c0 .8-.6 1.34-1.56 1.34zm0 0"/></symbol><symbol overflow="visible" id="dcd42d01y"><path d="M5.1 0v-1.47H6v-.81h-.9v-4.49H3.8L.48-2.23v.76h3.66V0zM1.5-2.33l2.6-3.53h.04v3.58H1.5zm0 0"/></symbol><symbol overflow="visible" id="dcd42d01z"><path d="M5.08-5.16c-.94 0-1.58.43-1.9 1.3h-.09l-.07-1.16H1.05v.77h1.1v3.48H.96V0h3.96v-.77H3.1v-1.46c0-1.36.6-2.05 1.83-2.05.4 0 .76.08 1.1.17l.15-.87c-.33-.11-.7-.18-1.11-.18zm0 0"/></symbol><symbol overflow="visible" id="dcd42d01A"><path d="M5.95-6.77H1.1V0h.99v-2.92H5.3v-.77H2.08v-2.26h3.87zm0 0"/></symbol><symbol overflow="visible" id="dcd42d01B"><path d="M2.73.14c.9 0 1.43-.45 1.74-1.08h.06l.13.94h.8v-5.02h-.94v2.7c0 .98-.57 1.62-1.46 1.62-.75 0-1.1-.4-1.1-1.22v-3.1h-.93v3.32c0 1.17.55 1.84 1.7 1.84zm0 0"/></symbol><symbol overflow="visible" id="dcd42d01C"><path d="M3.33.14c1.9 0 2.76-1.27 2.76-3.52 0-2.26-.86-3.53-2.76-3.53S.58-5.64.58-3.37c0 2.25.86 3.51 2.75 3.51zM3.3-.67c-1.25 0-1.73-.95-1.73-2.7 0-1.77.5-2.72 1.75-2.72s1.75.95 1.75 2.71c0 1.75-.5 2.7-1.77 2.7zm0 0"/></symbol><symbol overflow="visible" id="dcd42d01D"><path d="M2.84.14C3.8.14 4.33-.26 4.6-.9h.07L4.8 0h.76v-7.14h-.95v2.95h-.08c-.28-.6-.86-.97-1.67-.97-1.48 0-2.27.99-2.27 2.64C.6-.84 1.36.14 2.84.14zm.22-.8c-.98 0-1.48-.59-1.48-1.84s.5-1.86 1.48-1.86c1.13 0 1.58.8 1.58 1.86S4.2-.66 3.06-.66zm0 0"/></symbol><symbol overflow="visible" id="dcd42d01E"><path d="M3.58-5.81c.42 0 .72-.22.72-.67 0-.44-.3-.68-.72-.68-.44 0-.72.24-.72.68 0 .45.28.67.72.67zm.5.8H1.52v.76h1.6v3.48h-1.8V0h4.46v-.77h-1.7zm0 0"/></symbol><symbol overflow="visible" id="dcd42d01F"><path d="M2.16 0v-2.67c0-.99.59-1.63 1.46-1.63.74 0 1.07.38 1.07 1.22V0h.95v-3.31c0-1.2-.56-1.85-1.67-1.85-.92 0-1.49.46-1.77 1.08h-.06l-.12-.94H1.2V0zm0 0"/></symbol><symbol overflow="visible" id="dcd42d01G"><path d="M3.92-7.14H1.36v.76h1.6v5.61H1.15V0H5.7v-.77H3.92zm0 0"/></symbol><symbol overflow="visible" id="dcd42d01H"><path d="M3.36.16c1.4 0 2.2-.6 2.2-1.57 0-.89-.54-1.22-1.47-1.39L3-3c-.67-.14-.86-.33-.86-.73 0-.5.4-.74 1.17-.74.83 0 1.19.27 1.27.8l.9-.05c-.12-1-.8-1.47-2.17-1.47-1.34 0-2.1.53-2.1 1.5 0 .81.45 1.22 1.52 1.44l1.04.2c.56.11.87.24.87.72 0 .52-.45.78-1.28.78-.95 0-1.36-.28-1.42-.87l-.9.06C1.07-.36 1.8.16 3.35.16zm0 0"/></symbol><symbol overflow="visible" id="dcd42d01I"><path d="M1.45-2.95c0 2.56 1.08 4.37 3.67 4.84l.11-.67C3.28.86 2.43-.75 2.43-2.95s.85-3.82 2.8-4.16l-.1-.69c-2.6.49-3.68 2.3-3.68 4.85zm0 0"/></symbol><symbol overflow="visible" id="dcd42d01J"><path d="M1.45-7.1c1.96.33 2.8 1.94 2.8 4.15 0 2.2-.84 3.8-2.8 4.17l.11.67c2.58-.47 3.67-2.28 3.67-4.84 0-2.55-1.09-4.36-3.67-4.85zm0 0"/></symbol></defs><use xlink:href="#dcd42d01a" x="113.01" y="152" fill="#fff"/><g fill="#515151"><use xlink:href="#dcd42d01b" x="168.15" y="152"/><use xlink:href="#dcd42d01c" x="199.23" y="152"/><use xlink:href="#dcd42d01d" x="230.13" y="152"/><use xlink:href="#dcd42d01e" x="242.73" y="152"/><use xlink:href="#dcd42d01f" x="265.53" y="152"/></g><use xlink:href="#dcd42d01g" x="298.41" y="152" fill="#fff"/><g fill="#515151"><use xlink:href="#dcd42d01d" x="318.45" y="152"/><use xlink:href="#dcd42d01c" x="331.05" y="152"/><use xlink:href="#dcd42d01h" x="361.95" y="152"/></g><use xlink:href="#dcd42d01i" x="393.63" y="152" fill="#fff"/><g fill="#515151"><use xlink:href="#dcd42d01d" x="414.27" y="152"/><use xlink:href="#dcd42d01e" x="426.87" y="152"/></g><use xlink:href="#dcd42d01j" x="449.67" y="152" fill="#fff"/><use xlink:href="#dcd42d01k" x="468.69" y="152" fill="#fff"/><g fill="#fff"><use xlink:href="#dcd42d01l" x="226.6667" y="252"/><use xlink:href="#dcd42d01m" x="233.3337" y="252"/><use xlink:href="#dcd42d01n" x="240.0007" y="252"/><use xlink:href="#dcd42d01o" x="246.6677" y="252"/><use xlink:href="#dcd42d01p" x="253.3347" y="252"/><use xlink:href="#dcd42d01q" x="260.0017" y="252"/><use xlink:href="#dcd42d01r" x="266.6687" y="252"/><use xlink:href="#dcd42d01s" x="273.3357" y="252"/><use xlink:href="#dcd42d01t" x="280.0027" y="252"/><use xlink:href="#dcd42d01u" x="286.6697" y="252"/><use xlink:href="#dcd42d01q" x="293.3367" y="252"/><use xlink:href="#dcd42d01v" x="300.0037" y="252"/><use xlink:href="#dcd42d01w" x="306.6707" y="252"/><use xlink:href="#dcd42d01x" x="313.3377" y="252"/><use xlink:href="#dcd42d01q" x="320.0047" y="252"/><use xlink:href="#dcd42d01u" x="326.6717" y="252"/><use xlink:href="#dcd42d01y" x="333.3387" y="252"/><use xlink:href="#dcd42d01s" x="340.0057" y="252"/><use xlink:href="#dcd42d01q" x="346.6727" y="252"/><use xlink:href="#dcd42d01v" x="353.3397" y="252"/><use xlink:href="#dcd42d01m" x="360.0067" y="252"/><use xlink:href="#dcd42d01z" x="366.6737" y="252"/></g><g fill="#fff"><use xlink:href="#dcd42d01A" x="220" y="266"/><use xlink:href="#dcd42d01m" x="226.667" y="266"/><use xlink:href="#dcd42d01x" x="233.334" y="266"/><use xlink:href="#dcd42d01o" x="240.001" y="266"/><use xlink:href="#dcd42d01B" x="246.668" y="266"/><use xlink:href="#dcd42d01z" x="253.335" y="266"/><use xlink:href="#dcd42d01m" x="260.002" y="266"/><use xlink:href="#dcd42d01p" x="266.669" y="266"/><use xlink:href="#dcd42d01q" x="273.336" y="266"/><use xlink:href="#dcd42d01C" x="280.003" y="266"/><use xlink:href="#dcd42d01z" x="286.67" y="266"/><use xlink:href="#dcd42d01D" x="293.337" y="266"/><use xlink:href="#dcd42d01E" x="300.004" y="266"/><use xlink:href="#dcd42d01F" x="306.671" y="266"/><use xlink:href="#dcd42d01x" x="313.338" y="266"/><use xlink:href="#dcd42d01G" x="320.005" y="266"/><use xlink:href="#dcd42d01H" x="326.672" y="266"/><use xlink:href="#dcd42d01q" x="333.339" y="266"/><use xlink:href="#dcd42d01I" x="340.006" y="266"/><use xlink:href="#dcd42d01s" x="346.673" y="266"/><use xlink:href="#dcd42d01z" x="353.34" y="266"/><use xlink:href="#dcd42d01D" x="360.007" y="266"/><use xlink:href="#dcd42d01F" x="366.674" y="266"/><use xlink:href="#dcd42d01J" x="373.341" y="266"/></g></svg>