<?xml version='1.0' encoding='UTF-8'?>
<svg xmlns="http://www.w3.org/2000/svg" xmlns:xlink="http://www.w3.org/1999/xlink" width="600px" height="300px" viewBox="0 0 600 300" x="0px" y="0px" enable-background="new 0 0 600 300"><defs><symbol overflow="visible" id="acab9612a"><path d="M9.36.06c3 0 5.7-.12 8.77-.12 2.28 0 6.59 0 8.57.12.36-.9.49-1.86.43-2.87a28.63 28.63 0 00-6.07-1.14 42.4 42.4 0 01-.25-4.99V-36.3h14.96v29.28c0 1.2-.07 2.04-.25 3.36-1.2.43-3.11.85-4.8 1.02 0 .95.19 2.22.42 2.7 2.28 0 4.8-.12 7.27-.12 2.8 0 5.09.06 6.72.12.23-.54.35-1.8.35-2.7-1.07-.48-2.89-.9-4.5-1.08a50.93 50.93 0 01-.18-4.5v-14.94a16.98 16.98 0 017.56-1.75c4.73 0 5.45 3.32 5.45 7.82v10.07c0 1.2-.04 2.04-.17 3.36-1.27.43-3.19.85-4.86 1.02 0 .95.17 2.22.42 2.7 2.28 0 4.8-.12 7.25-.12 1.46 0 5.11.06 6.74.12.3-.54.4-1.8.4-2.7-1.14-.48-2.93-.9-4.54-1.08a50.93 50.93 0 01-.2-4.5v-11.22c0-6.65-3-9.6-8.27-9.6a18.6 18.6 0 00-9.78 3.12c0-8.88.06-9.78.25-15.78l-.49-.49c-2.64.38-4.8 1.2-6.84 2.05H15.55c-4.2 0-10.4 0-14.11-.13l-.49.49c-.1 3.72.07 7.33.55 10.8 1.08.42 2.1.36 3.19 0 .1-2.4.4-4.93.95-7.32h9.9v28.67c0 1.27-.06 2.54-.3 3.68-2.16.53-4.26.95-6.43 1.14 0 .95.13 1.9.55 2.87zm0 0"/></symbol><symbol overflow="visible" id="acab9612b"><path d="M14.58.84c3.9 0 8.83-2.46 11.58-4.32-.07-.9-.3-1.61-1.02-2.16-3.72 1.44-6.9 2.16-9.55 2.16-5.87 0-7.86-5.88-8.15-10.74h6.97c4.5 0 8.39.06 10.86.13l.46-.49c.2-.78.32-2.34.32-3.72 0-5.22-2.4-10.75-10.7-10.75-7.62 0-12.94 7.93-12.94 15.36C2.4-5.52 6 .84 14.58.84zM10.44-24c.72-.72 2.83-1.14 4.08-1.14 5.34 0 6.25 3.72 6.25 7.56-1.5.13-4.14.24-7.33.24H7.56c.42-2.82 1.5-5.22 2.88-6.66zm0 0"/></symbol><symbol overflow="visible" id="acab9612d"><path d="M4.98 1.2C6.06.66 7.62-.9 8.81-2.52c2.7 2.1 6.13 3.36 8.96 3.36 7.18 0 12.53-8.1 12.53-15.42 0-8.7-4.44-14.28-10.86-14.28-3.9 0-7.14 1.67-9.17 3.42v-2.76c0-6.6.04-11.28.23-17.28l-.48-.47c-3.3.3-7.38 1.18-9.79 2.1-.1.77 0 1.55.25 2.33 1.57.18 3.18.54 4.74.96v33.54c0 2.16-.72 4.61-1.99 6.9.25.6.97 1.2 1.75 1.32zm12.79-25.92c4.92 0 7.43 5.81 7.43 11.81 0 3.43-1.26 6.55-3 8.6-.42.47-2.22 1.12-3.78 1.12-3.06 0-6.19-1.73-8.15-3.72v-15.23c2.28-1.44 5.39-2.58 7.5-2.58zm0 0"/></symbol><symbol overflow="visible" id="acab9612e"><path d="M8.88.84c2.7 0 6.54-1.8 9.9-4.8.6 2.82 1.74 4.8 2.94 4.8 2.1 0 4.98-1.43 6.84-3.06 0-.9-.36-1.69-.9-2.22-1.14.36-2.52.78-3.85.96-.23-1.32-.3-3.11-.3-4.74V-19.5c0-8.16-5.93-9.48-9.46-9.48-4.14 0-7.82 1.32-10.7 3.06 0 2.1.56 4.56 1.45 6.42 1.14.36 2.34.13 3.48-.42 0-1.67.06-3.3.42-4.86 1.57-.36 3.18-.49 4.74-.49 4.08 0 5.04 3.07 5.04 7.7C10.8-16.2 2.1-13.03 2.1-6.3 2.1-1.86 4.92.84 8.88.84zM7.44-7.8c0-1.26.48-2.89 1.2-3.6.72-.72 5.1-1.97 9.84-2.52v7.08c-1.86 1.68-4.75 3.12-6.54 3.12-3.17 0-4.5-1.86-4.5-4.08zm0 0"/></symbol><symbol overflow="visible" id="acab9612f"><path d="M2.05.06c2.45 0 4.67-.12 7.14-.12 2.03 0 4.44.06 6.83.12.25-.54.36-1.8.36-2.7a15.31 15.31 0 00-4.5-1.08c-.11-1.44-.18-2.87-.18-4.5v-16.33h13.8v17.53c0 1.2-.06 1.97-.23 3.3-1.2.42-3.13.9-4.82 1.08 0 .95.2 2.22.43 2.7 2.17 0 4.2-.12 6.3-.12 2.4 0 5.04.06 7.68.12.23-.54.36-1.8.36-2.7-1.2-.55-3.06-.95-4.5-1.08a51.16 51.16 0 01-.17-4.5v-16.33h7.01c.17-1.18.24-2.32.24-3.65l-7.25-.11v-1.92c0-5.9 1.07-9.43 2.15-10.82.53-.53 2.35-1.01 4.2-1.01 2.16 0 4.62.48 7.15 1.62v33.42c0 1.2-.07 2.04-.25 3.36-1.2.43-3.11.85-4.8 1.02 0 .95.19 2.22.42 2.7 2.28 0 4.74-.12 7.27-.12 1.44 0 5.1.06 6.72.12.23-.54.36-1.8.36-2.7-1.08-.48-2.9-.9-4.5-1.08a50.93 50.93 0 01-.2-4.5V-28.2c0-6.6.07-11.28.24-17.28l-.47-.47c-1.14.04-3 .4-4.56.83a29.2 29.2 0 00-6.36-.83c-3.42 0-6.19 1.14-8.22 3.23a26.13 26.13 0 00-7.75-1.26c-8.32 0-14.75 5.76-15.23 15.54a32.2 32.2 0 00-4.67.72c-.13.78-.13 1.63.1 2.4 1.57.18 3.55.54 4.5.77v17.53c0 1.2-.06 2.04-.23 3.36-1.2.43-3.12.85-4.8 1.02 0 .95.18 2.22.43 2.7zm13.37-39.12c.6-.53 2.7-1.02 4.5-1.02 2.03 0 4.56.49 7.27 1.31-1.14 2.58-1.69 5.9-1.69 9.79v.67H11.7c.11-5.64 2.1-9.19 3.72-10.75zm0 0"/></symbol><symbol overflow="visible" id="acab9612g"><path d="M13.02.84c3.3 0 6.54-2.76 9.06-5.53.48 2.7 1.62 5.53 3.06 5.53 2.1 0 4.98-1.43 6.84-3.06 0-.9-.36-1.69-.9-2.22-1.14.36-2.52.78-3.85.96-.23-1.32-.3-3.11-.3-4.74V-28.2c0-6.6.07-11.28.26-17.28l-.49-.47c-3.54.3-7.92 1.18-10.5 2.1-.12.77 0 1.55.24 2.33 1.8.18 3.65.54 5.47.96v13.8c-1.75-1.08-4.57-2.1-6.61-2.1-6.72 0-12.9 6.78-12.9 15.23C2.4-5.57 5.95.85 13.03.85zM7.5-15.3c0-3.42 1.31-6.6 3-8.4.72-.72 2.88-1.14 4.14-1.14 2.58 0 5.22.78 7.27 1.5v15.36c-2.35 2.1-5.6 4.5-7.63 4.5-4.5 0-6.78-5.75-6.78-11.82zm0 0"/></symbol><symbol overflow="visible" id="acab9612h"><path d="M15.06.84c8.4 0 13.31-8.15 13.31-15.42 0-8.22-3.95-14.47-12.65-14.47-8.4 0-13.31 8.18-13.31 15.43C2.4-5.22 6.55.84 15.06.84zm1.08-4.03c-6.42 0-8.64-7.01-8.64-12.1 0-3.62 1.31-6.79 3-8.59.72-.71 2.88-1.14 4.14-1.14 6.42 0 8.64 7.02 8.64 12.11 0 3.61-1.33 6.79-3 8.6-.72.72-2.87 1.12-4.14 1.12zm0 0"/></symbol><symbol overflow="visible" id="acab9612i"><path d="M2.05.06c2.45 0 4.67-.12 7.14-.12 2.03 0 4.44.06 6.83.12.25-.54.36-1.8.36-2.7a15.31 15.31 0 00-4.5-1.08c-.11-1.44-.18-2.87-.18-4.5v-16.33h13.8v17.53c0 1.2-.06 2.04-.23 3.36-1.2.43-3.13.85-4.82 1.02 0 .95.2 2.22.43 2.7 2.46 0 4.8-.12 7.26-.12 1.98 0 4.31.06 6.72.12.23-.6.36-1.8.36-2.7-1.14-.55-3.06-.9-4.5-1.08a51.16 51.16 0 01-.17-4.5v-16.33h13.8v17.53c0 1.2-.07 2.16-.26 3.3-1.18.42-3.1.9-4.8 1.08 0 .95.2 2.22.43 2.7 2.28 0 4.8-.12 7.26-.12 1.44 0 5.1.06 6.72.12.24-.54.36-1.8.36-2.7-1.08-.48-2.87-.9-4.5-1.08a50.93 50.93 0 01-.19-4.5v-3c0-6.6.07-11.28.26-17.28l-.49-.48a104 104 0 01-10.27.67h-8.32v-1.92c0-5.9 1.18-9.43 2.32-10.75.49-.54 2.41-1.08 4.63-1.08 3.3 0 5.64.36 7.02.97 0 2.15.3 4.3 1.07 6.3 1.1.41 2.11.41 3.07 0 1.39-2.52 1.98-5.12 1.98-8.12a27.28 27.28 0 00-12.3-3.04c-3.65 0-6.48 1.14-8.53 3.23a26.52 26.52 0 00-7.86-1.26c-8.32 0-14.75 5.76-15.23 15.54a32.2 32.2 0 00-4.67.72c-.13.78-.13 1.63.1 2.4 1.57.18 3.55.54 4.5.77v17.53c0 1.2-.06 2.04-.23 3.36-1.2.43-3.12.85-4.8 1.02 0 .95.18 2.22.43 2.7zm13.37-39.12c.6-.53 2.7-1.02 4.5-1.02 2.03 0 4.63.49 7.31 1.31-1.18 2.7-1.73 6-1.73 9.79v.67H11.7c.11-5.64 2.1-9.19 3.72-10.75zm0 0"/></symbol><symbol overflow="visible" id="acab9612j"><path d="M14.64.84c3.55 0 8.28-2.1 10.98-4.07a3.07 3.07 0 00-1.03-2.29c-3.71 1.44-6.3 2.04-8.93 2.04-6.3 0-8.16-6.83-8.16-11.82 0-3.54 1.31-6.65 3-8.4.84-.72 3.36-1.14 4.86-1.14 1.8 0 3.48.12 4.5.3.3 1.68.42 3.3.48 4.98 1.02.6 2.16.65 3.54.25a23.08 23.08 0 001.26-7.82c-2.28-1.01-5.45-1.73-9.55-1.73-8.09 0-13.18 8.05-13.18 15.23C2.4-5.52 6 .85 14.64.85zm0 0"/></symbol><symbol overflow="visible" id="acab9612k"><path d="M3.83 0v-5.95H6.2v-.82H.45v.82h2.4V0zm0 0"/></symbol><symbol overflow="visible" id="acab9612l"><path d="M5.75-2.23v-.43c0-1.6-.9-2.51-2.42-2.51S.87-4.16.87-2.48c0 1.71.91 2.62 2.5 2.62 1.43 0 2.07-.56 2.29-1.52l-.9-.09c-.18.61-.59.9-1.35.9-.94 0-1.52-.54-1.58-1.66zm-2.4-2.2c.93 0 1.43.5 1.48 1.55H1.84c.08-1.07.6-1.56 1.5-1.56zm0 0"/></symbol><symbol overflow="visible" id="acab9612m"><path d="M1.83 0l1.42-2h.06l1.46 2H5.8L4-2.53l1.78-2.49H4.8L3.42-3.08h-.08l-1.4-1.94H.89l1.78 2.49L.84 0zm0 0"/></symbol><symbol overflow="visible" id="acab9612n"><path d="M5.52-4.25v-.77H3.17v-1.56h-.81l-.14 1.56H.75v.77h1.47v2.4c0 1.3.48 1.94 1.84 1.94C4.6.1 5.14 0 5.55-.14L5.4-.91c-.32.13-.72.2-1.13.2-.8 0-1.1-.37-1.1-1.23v-2.31zm0 0"/></symbol><symbol overflow="visible" id="acab9612o"><path d="M3.33-3.42c.47 0 .8-.27.8-.8 0-.51-.33-.8-.8-.8-.47 0-.8.29-.8.8 0 .53.33.8.8.8zm0 3.5c.47 0 .8-.27.8-.78 0-.53-.33-.82-.8-.82-.47 0-.8.29-.8.82 0 .51.33.78.8.78zm0 0"/></symbol><symbol overflow="visible" id="acab9612q"><path d="M2.16 0v-2.69c0-.98.6-1.6 1.46-1.6.74 0 1.07.4 1.07 1.2V0h.95v-3.31c0-1.17-.56-1.85-1.67-1.85-.9 0-1.44.46-1.75 1.08h-.06v-3.06H1.2V0zm0 0"/></symbol><symbol overflow="visible" id="acab9612r"><path d="M3.9.14c1.48 0 2.18-.98 2.18-2.64 0-1.67-.7-2.66-2.17-2.66-.91 0-1.49.41-1.79 1h-.06v-2.98h-.95V0h.81l.11-.9h.06c.29.63.82 1.04 1.82 1.04zm-.32-.8c-1.08 0-1.55-.8-1.55-1.84 0-1.06.47-1.86 1.55-1.86 1.1 0 1.51.61 1.51 1.86S4.64-.66 3.58-.66zm0 0"/></symbol><symbol overflow="visible" id="acab9612s"><path d="M2.83.14c.94 0 1.5-.39 1.81-.95h.08l.1.81h.76v-3.38c0-1.23-.69-1.8-2.13-1.8-1.43 0-2.03.65-2.18 1.6l.93.1c.11-.6.44-.93 1.22-.93.85 0 1.22.32 1.22 1.04v.34l-1.81.2C1.6-2.7 1.1-2.17 1.1-1.28c0 .92.64 1.42 1.72 1.42zm.25-.77c-.67 0-1.02-.28-1.02-.74 0-.44.28-.72 1-.82l1.58-.19v.41c0 .8-.6 1.34-1.56 1.34zm0 0"/></symbol><symbol overflow="visible" id="acab9612t"><path d="M4.63-6.5c.45 0 .98.08 1.39.2l.2-.72a5.3 5.3 0 00-1.64-.26c-1.52 0-2.16.56-2.16 1.87v.4H.9v.76h1.53V0h.94v-4.25h2.53v-.77H3.36v-.3c0-.84.33-1.18 1.27-1.18zm0 0"/></symbol><symbol overflow="visible" id="acab9612u"><path d="M3.92-7.14H1.36v.76h1.6v5.61H1.15V0H5.7v-.77H3.92zm0 0"/></symbol><symbol overflow="visible" id="acab9612v"><path d="M2.84.14C3.8.14 4.33-.26 4.6-.9h.07L4.8 0h.76v-7.14h-.95v2.95h-.08c-.28-.6-.86-.97-1.67-.97-1.48 0-2.27.99-2.27 2.64C.6-.84 1.36.14 2.84.14zm.22-.8c-.98 0-1.48-.59-1.48-1.84s.5-1.86 1.48-1.86c1.13 0 1.58.8 1.58 1.86S4.2-.66 3.06-.66zm0 0"/></symbol><symbol overflow="visible" id="acab9612w"><path d="M3.33.14c1.62 0 2.5-.95 2.5-2.66 0-1.68-.88-2.64-2.5-2.64-1.63 0-2.5.96-2.5 2.64 0 1.7.87 2.66 2.5 2.66zm0-.77c-1.06 0-1.52-.6-1.52-1.89 0-1.28.46-1.87 1.52-1.87 1.08 0 1.53.6 1.53 1.87 0 1.29-.45 1.9-1.53 1.9zm0 0"/></symbol><symbol overflow="visible" id="acab9612x"><path d="M3.58-5.81c.42 0 .72-.22.72-.67 0-.44-.3-.68-.72-.68-.44 0-.72.24-.72.68 0 .45.28.67.72.67zm.5.8H1.52v.76h1.6v3.48h-1.8V0h4.46v-.77h-1.7zm0 0"/></symbol><symbol overflow="visible" id="acab9612y"><path d="M3.34.14c1.43 0 2.13-.66 2.25-1.78l-.89-.1c-.1.7-.5 1.08-1.34 1.08-1.03 0-1.52-.64-1.52-1.84 0-1.23.47-1.86 1.52-1.86.84 0 1.23.36 1.34 1.08l.9-.1c-.13-1.09-.82-1.78-2.26-1.78-1.56 0-2.46.97-2.46 2.66 0 1.66.9 2.64 2.46 2.64zm0 0"/></symbol><symbol overflow="visible" id="acab9612z"><path d="M5.95-6.77H1.1V0h.99v-2.92H5.3v-.77H2.08v-2.26h3.87zm0 0"/></symbol><symbol overflow="visible" id="acab9612A"><path d="M2.73.14c.9 0 1.43-.45 1.74-1.08h.06l.13.94h.8v-5.02h-.94v2.7c0 .98-.57 1.62-1.46 1.62-.75 0-1.1-.4-1.1-1.22v-3.1h-.93v3.32c0 1.17.55 1.84 1.7 1.84zm0 0"/></symbol><symbol overflow="visible" id="acab9612B"><path d="M5.08-5.16c-.94 0-1.58.43-1.9 1.3h-.09l-.07-1.16H1.05v.77h1.1v3.48H.96V0h3.96v-.77H3.1v-1.46c0-1.36.6-2.05 1.83-2.05.4 0 .76.08 1.1.17l.15-.87c-.33-.11-.7-.18-1.11-.18zm0 0"/></symbol><symbol overflow="visible" id="acab9612C"><path d="M3.42.14c1.61 0 2.56-.75 2.56-2 0-1.1-.67-1.6-1.95-1.86l-.97-.2c-.87-.17-1.23-.49-1.23-1.11 0-.7.54-1.11 1.5-1.11 1.06 0 1.51.34 1.69 1.23l.9-.09c-.17-1.28-.98-1.9-2.6-1.9C1.79-6.9.9-6.18.9-4.98c0 1.06.66 1.66 1.88 1.9l1.01.2c.85.17 1.25.4 1.25 1.09 0 .73-.6 1.16-1.6 1.16-1.07 0-1.66-.4-1.8-1.24l-.94.1C.83-.53 1.75.13 3.42.13zm0 0"/></symbol><symbol overflow="visible" id="acab9612D"><path d="M2.16 0v-2.67c0-.99.59-1.63 1.46-1.63.74 0 1.07.38 1.07 1.22V0h.95v-3.31c0-1.2-.56-1.85-1.67-1.85-.92 0-1.49.46-1.77 1.08h-.06l-.12-.94H1.2V0zm0 0"/></symbol><symbol overflow="visible" id="acab9612E"><path d="M3.16 2.03c1.67 0 2.4-.86 2.4-2.51v-4.54h-.81l-.13.91h-.06c-.26-.58-.8-1.05-1.73-1.05-1.42 0-2.24 1-2.24 2.52 0 1.6.75 2.56 2.2 2.56.94 0 1.5-.5 1.77-1.03h.05v.72c0 1.17-.42 1.67-1.45 1.67-.93 0-1.3-.34-1.41-.89L.8.5c.12.96.87 1.54 2.36 1.54zM3.06-.8c-.98 0-1.48-.57-1.48-1.82 0-1.13.5-1.75 1.48-1.75 1.06 0 1.58.76 1.58 1.75 0 .95-.56 1.82-1.58 1.82zm0 0"/></symbol><symbol overflow="visible" id="acab9612F"><path d="M3.36.16c1.4 0 2.2-.6 2.2-1.57 0-.89-.54-1.22-1.47-1.39L3-3c-.67-.14-.86-.33-.86-.73 0-.5.4-.74 1.17-.74.83 0 1.19.27 1.27.8l.9-.05c-.12-1-.8-1.47-2.17-1.47-1.34 0-2.1.53-2.1 1.5 0 .81.45 1.22 1.52 1.44l1.04.2c.56.11.87.24.87.72 0 .52-.45.78-1.28.78-.95 0-1.36-.28-1.42-.87l-.9.06C1.07-.36 1.8.16 3.35.16zm0 0"/></symbol><symbol overflow="visible" id="acab9612G"><path d="M1.45-2.95c0 2.56 1.08 4.37 3.67 4.84l.11-.67C3.28.86 2.43-.75 2.43-2.95s.85-3.82 2.8-4.16l-.1-.69c-2.6.49-3.68 2.3-3.68 4.85zm0 0"/></symbol><symbol overflow="visible" id="acab9612H"><path d="M1.45-7.1c1.96.33 2.8 1.94 2.8 4.15 0 2.2-.84 3.8-2.8 4.17l.11.67c2.58-.47 3.67-2.28 3.67-4.84 0-2.55-1.09-4.36-3.67-4.85zm0 0"/></symbol></defs><use xlink:href="#acab9612a" x="79.98" y="152" fill="#fff"/><g fill="#515151"><use xlink:href="#acab9612b" x="144.48" y="152"/><use xlink:href="#acab9612c" x="173.28" y="152"/><use xlink:href="#acab9612d" x="185.88" y="152"/><use xlink:href="#acab9612e" x="218.58" y="152"/></g><use xlink:href="#acab9612f" x="247.8" y="152" fill="#fff"/><g fill="#515151"><use xlink:href="#acab9612b" x="303" y="152"/><use xlink:href="#acab9612g" x="331.8" y="152"/><use xlink:href="#acab9612c" x="364.86" y="152"/><use xlink:href="#acab9612h" x="377.46" y="152"/></g><use xlink:href="#acab9612i" x="408.24" y="152" fill="#fff"/><g fill="#515151"><use xlink:href="#acab9612j" x="463.98" y="152"/><use xlink:href="#acab9612b" x="491.22" y="152"/></g><g fill="#fff"><use xlink:href="#acab9612k" x="220" y="252"/><use xlink:href="#acab9612l" x="226.667" y="252"/><use xlink:href="#acab9612m" x="233.334" y="252"/><use xlink:href="#acab9612n" x="240.001" y="252"/><use xlink:href="#acab9612o" x="246.668" y="252"/><use xlink:href="#acab9612p" x="253.335" y="252"/><use xlink:href="#acab9612k" x="260.002" y="252"/><use xlink:href="#acab9612q" x="266.669" y="252"/><use xlink:href="#acab9612l" x="273.336" y="252"/><use xlink:href="#acab9612p" x="280.003" y="252"/><use xlink:href="#acab9612r" x="286.67" y="252"/><use xlink:href="#acab9612s" x="293.337" y="252"/><use xlink:href="#acab9612t" x="300.004" y="252"/><use xlink:href="#acab9612t" x="306.671" y="252"/><use xlink:href="#acab9612u" x="313.338" y="252"/><use xlink:href="#acab9612l" x="320.005" y="252"/><use xlink:href="#acab9612v" x="326.672" y="252"/><use xlink:href="#acab9612p" x="333.339" y="252"/><use xlink:href="#acab9612w" x="340.006" y="252"/><use xlink:href="#acab9612t" x="346.673" y="252"/><use xlink:href="#acab9612t" x="353.34" y="252"/><use xlink:href="#acab9612x" x="360.007" y="252"/><use xlink:href="#acab9612y" x="366.674" y="252"/><use xlink:href="#acab9612l" x="373.341" y="252"/></g><g fill="#fff"><use xlink:href="#acab9612z" x="186.6667" y="266"/><use xlink:href="#acab9612l" x="193.3337" y="266"/><use xlink:href="#acab9612s" x="200.0007" y="266"/><use xlink:href="#acab9612n" x="206.6677" y="266"/><use xlink:href="#acab9612A" x="213.3347" y="266"/><use xlink:href="#acab9612B" x="220.0017" y="266"/><use xlink:href="#acab9612l" x="226.6687" y="266"/><use xlink:href="#acab9612o" x="233.3357" y="266"/><use xlink:href="#acab9612p" x="240.0027" y="266"/><use xlink:href="#acab9612C" x="246.6697" y="266"/><use xlink:href="#acab9612n" x="253.3367" y="266"/><use xlink:href="#acab9612s" x="260.0037" y="266"/><use xlink:href="#acab9612D" x="266.6707" y="266"/><use xlink:href="#acab9612v" x="273.3377" y="266"/><use xlink:href="#acab9612s" x="280.0047" y="266"/><use xlink:href="#acab9612B" x="286.6717" y="266"/><use xlink:href="#acab9612v" x="293.3387" y="266"/><use xlink:href="#acab9612p" x="300.0057" y="266"/><use xlink:href="#acab9612u" x="306.6727" y="266"/><use xlink:href="#acab9612x" x="313.3397" y="266"/><use xlink:href="#acab9612E" x="320.0067" y="266"/><use xlink:href="#acab9612s" x="326.6737" y="266"/><use xlink:href="#acab9612n" x="333.3407" y="266"/><use xlink:href="#acab9612A" x="340.0077" y="266"/><use xlink:href="#acab9612B" x="346.6747" y="266"/><use xlink:href="#acab9612l" x="353.3417" y="266"/><use xlink:href="#acab9612F" x="360.0087" y="266"/><use xlink:href="#acab9612p" x="366.6757" y="266"/><use xlink:href="#acab9612G" x="373.3427" y="266"/><use xlink:href="#acab9612u" x="380.0097" y="266"/><use xlink:href="#acab9612x" x="386.6767" y="266"/><use xlink:href="#acab9612E" x="393.3437" y="266"/><use xlink:href="#acab9612s" x="400.0107" y="266"/><use xlink:href="#acab9612H" x="406.6777" y="266"/></g></svg>