<?xml version='1.0' encoding='UTF-8'?>
<svg xmlns="http://www.w3.org/2000/svg" xmlns:xlink="http://www.w3.org/1999/xlink" width="600px" height="300px" viewBox="0 0 600 300" x="0px" y="0px" enable-background="new 0 0 600 300"><defs><symbol overflow="visible" id="e907eec7a"><path d="M2.4.06c2.58 0 4.97-.12 7.62-.12 1.98 0 5.7 0 7.43.12.32-.9.43-1.86.36-2.87a18.48 18.48 0 00-4.86-1.14 46.18 46.18 0 01-.23-4.99v-9.78h4.73c2.28 4.44 4.4 8.34 7.2 12.53C27.2-2.4 29.53.6 31.93.6c2.45 0 5.22-.46 7.38-1.37.3-1.08.12-2.1-.72-3.06-.6.12-1.27.18-1.8.18a6.2 6.2 0 01-5.1-2.57 128.8 128.8 0 01-8.76-13.46l7.02-14.87 5.76.54a5.07 5.07 0 001.14-4.07 15.47 15.47 0 00-7.32-2.9c-1.38 1.27-2.52 3.2-3.54 5.29l-6.36 13.14h-6.9v-3.3c0-4.62 0-7.73.23-10.37a19.8 19.8 0 004.86-1.15 7.37 7.37 0 00-.36-2.89c-1.73.13-5.45.13-7.43.13-2.64 0-5.04-.13-7.61-.13a8.14 8.14 0 00-.49 2.9c1.74.17 3.49.59 5.22 1.14.17 2.21.3 4.73.3 8.28v18.3c0 1.85 0 3.88-.3 5.7-1.73.53-3.48.95-5.22 1.14 0 .95.13 1.9.49 2.87zm0 0"/></symbol><symbol overflow="visible" id="e907eec7b"><path d="M2.28.06c2.35 0 4.99-.12 7.27-.12.76 0 1.8 0 2.57-.07L26.7-24.18h.07l-.79 4.99v12.18c0 1.14-.06 2.29-.25 3.3-1.54.53-3.17.9-4.8 1.08 0 .9.13 1.8.43 2.7 2.34 0 4.98-.12 7.27-.12 1.43 0 5.09.06 6.71.12.24-.54.36-1.8.36-2.7-1.08-.48-2.89-.9-4.5-1.08a52.28 52.28 0 01-.18-4.69v-11.57c0-1.5.06-3.07.18-4.5 1.61-.18 3.18-.54 4.5-1.08 0-.96-.06-1.92-.36-2.7-1.86.06-5.04.12-7.07.12-1.04 0-2.18 0-3.13.06L11.34-5.4h-.06l.66-4.96v-9.61c0-1.5.06-3.07.19-4.5 1.6-.18 3.17-.54 4.5-1.08 0-.96-.07-1.92-.36-2.7-1.86.06-5.05.12-7.08.12-2.28 0-4.56-.13-6.9-.13-.3.68-.43 1.82-.43 2.7 1.69.2 3.19.55 4.8 1.09.18 1.07.25 2.28.25 3.3v14.16c0 1.14-.07 2.29-.25 3.3-1.57.53-3.18.9-4.8 1.08 0 .9.12 1.8.42 2.7zm0 0"/></symbol><symbol overflow="visible" id="e907eec7c"><path d="M1.5 15.06c2.45 0 4.8-.12 7.27-.12 2.21 0 6 .06 9.3.12.23-.54.35-1.75.35-2.64-1.92-.54-4.8-.97-7.08-1.08a51.2 51.2 0 01-.18-4.5v-9c2.53 1.74 5.4 2.82 7.5 2.82 7.2 0 12.54-8.1 12.54-15.43 0-8.68-4.43-14.28-10.86-14.28-4.14 0-7.5 1.86-9.54 3.78a28.57 28.57 0 00-.66-3.17l-.48-.42a32.9 32.9 0 00-8.52 2.16c-.12.72 0 1.56.24 2.34 1.56.17 3.18.48 4.75.95V8.05c0 1.18-.07 2.03-.25 3.36-1.2.4-3.11.82-4.8 1.01 0 .96.19 2.16.42 2.64zM18.66-24.9c4.92 0 7.43 5.83 7.43 11.83 0 3.42-1.25 6.53-3 8.58-.4.48-2.21 1.14-3.78 1.14-3.23 0-6.23-1.73-8.15-3.78v-15.17c2.28-1.46 5.4-2.6 7.5-2.6zm0 0"/></symbol><symbol overflow="visible" id="e907eec7d"><path d="M6.48.84c3.11 0 7.74-11.34 8.94-25.32h5.4v17.46c0 1.14-.05 2.29-.24 3.3-1.74.53-3.6.9-5.4 1.08 0 .9.12 1.8.48 2.7 2.53 0 5.34-.12 7.8-.12 1.45 0 5.1.06 6.73.12.23-.54.36-1.8.36-2.7-1.1-.48-2.9-.9-4.5-1.08a52.28 52.28 0 01-.2-4.69v-11.57c0-1.5.07-3.07.2-4.5 1.6-.18 3.17-.54 4.5-1.08 0-.96-.07-1.92-.36-2.7-1.88.06-5.05.12-7.1.12h-9.3c-2.27 0-4.56-.13-6.88-.13a7.33 7.33 0 00-.43 2.7c1.68.26 3.18.66 4.74 1.21-.9 9.3-2.4 15.13-4.56 19.31a22.4 22.4 0 01-4.2-2.1A4.16 4.16 0 00.3-4.3C1.56-1.86 4.08.84 6.48.84zm0 0"/></symbol><symbol overflow="visible" id="e907eec7e"><path d="M31.08 8.7c1.01.24 2.15.24 3.23 0 .42-3.48.61-7.56.55-11.82l-.48-.47c-1.5.04-3.43.04-5.4.1v-16.5c0-1.5.07-3.06.18-4.5 1.62-.17 3.18-.53 4.5-1.07 0-.96-.07-1.92-.36-2.7-1.86.06-5.03.12-7.08.12-2.16 0-4.31-.13-6.49-.13-.3.68-.42 1.82-.42 2.7 1.57.2 2.9.55 4.4 1.09.16 1.07.23 2.28.23 3.3v17.7h-12v-16.5c0-1.5.06-3.07.19-4.5 1.43-.18 2.8-.54 4.07-1.08 0-.96-.06-1.92-.36-2.7-1.75.06-4.75.12-6.65.12-2.28 0-4.56-.13-6.9-.13-.3.68-.43 1.82-.43 2.7 1.69.2 3.19.55 4.8 1.09.18 1.07.25 2.28.25 3.3v14.16c0 1.14-.07 2.29-.25 3.3-1.57.53-3.18.9-4.8 1.08 0 .9.12 1.8.42 2.7 2.35 0 4.99-.12 7.27-.12h20.57c.43 2.64.83 5.93.96 8.76zm0 0"/></symbol><symbol overflow="visible" id="e907eec7f"><path d="M8.88.84c2.7 0 6.54-1.8 9.9-4.8.6 2.82 1.74 4.8 2.94 4.8 2.1 0 4.98-1.43 6.84-3.06 0-.9-.36-1.69-.9-2.22-1.14.36-2.52.78-3.85.96-.23-1.32-.3-3.11-.3-4.74V-19.5c0-8.16-5.93-9.48-9.46-9.48-4.14 0-7.82 1.32-10.7 3.06 0 2.1.56 4.56 1.45 6.42 1.14.36 2.34.13 3.48-.42 0-1.67.06-3.3.42-4.86 1.57-.36 3.18-.49 4.74-.49 4.08 0 5.04 3.07 5.04 7.7C10.8-16.2 2.1-13.03 2.1-6.3 2.1-1.86 4.92.84 8.88.84zM7.44-7.8c0-1.26.48-2.89 1.2-3.6.72-.72 5.1-1.97 9.84-2.52v7.08c-1.86 1.68-4.75 3.12-6.54 3.12-3.17 0-4.5-1.86-4.5-4.08zm0 0"/></symbol><symbol overflow="visible" id="e907eec7h"><path d="M7.08.6c2.58 0 5.51-4.5 7.01-6.79 2.77-4.12 4.93-8.15 7.14-12.53h3.13v9.06c0 1.86 0 3.9-.3 5.7-1.62.54-3.3.96-4.92 1.15 0 .95.13 1.9.48 2.87 2.46 0 4.8-.12 7.2-.12 1.87 0 5.34 0 7.02.12.3-.9.43-1.86.36-2.87-1.39-.55-2.89-.97-4.56-1.14a42.5 42.5 0 01-.23-4.99v-9.78h3.04c2.24 4.38 4.46 8.4 7.2 12.53C41.16-3.9 44.29.6 46.86.6c2.88 0 5.71-.65 7.45-1.37.3-1.08.12-2.1-.72-3.06-.6.12-1.27.18-1.8.18a6.2 6.2 0 01-5.1-2.57c-3.3-4.5-6.18-8.96-8.76-13.5l7.02-14.83 5.76.54a5.07 5.07 0 001.14-4.07 15.47 15.47 0 00-7.32-2.9c-1.38 1.27-2.52 3.2-3.54 5.29l-6.35 13.14H29.4v-3.3c0-4.62 0-7.73.23-10.37 1.67-.2 3.17-.61 4.56-1.15a7.67 7.67 0 00-.36-2.89c-1.68.13-5.15.13-7.03.13-2.39 0-4.73-.13-7.18-.13a8.14 8.14 0 00-.49 2.9c1.63.17 3.3.59 4.92 1.14.17 2.21.3 4.73.3 8.28v5.39H19.2L12.78-35.7c-1.01-2.1-2.1-4.02-3.55-5.28a15.4 15.4 0 00-7.3 2.89 5.01 5.01 0 001.13 4.07l5.75-.54 7.2 14.76c-2.57 4.57-5.39 9-8.74 13.57a6.25 6.25 0 01-5.11 2.57c-.54 0-1.2-.06-1.8-.18A3.11 3.11 0 00-.36-.78C1.37-.06 4.2.59 7.08.59zm0 0"/></symbol><symbol overflow="visible" id="e907eec7i"><path d="M14.58.84c3.9 0 8.83-2.46 11.58-4.32-.07-.9-.3-1.61-1.02-2.16-3.72 1.44-6.9 2.16-9.55 2.16-5.87 0-7.86-5.88-8.15-10.74h6.97c4.5 0 8.39.06 10.86.13l.46-.49c.2-.78.32-2.34.32-3.72 0-5.22-2.4-10.75-10.7-10.75-7.62 0-12.94 7.93-12.94 15.36C2.4-5.52 6 .84 14.58.84zM10.44-24c.72-.72 2.83-1.14 4.08-1.14 5.34 0 6.25 3.72 6.25 7.56-1.5.13-4.14.24-7.33.24H7.56c.42-2.82 1.5-5.22 2.88-6.66zm0 0"/></symbol><symbol overflow="visible" id="e907eec7j"><path d="M3.83 0v-5.95H6.2v-.82H.45v.82h2.4V0zm0 0"/></symbol><symbol overflow="visible" id="e907eec7k"><path d="M5.75-2.23v-.43c0-1.6-.9-2.51-2.42-2.51S.87-4.16.87-2.48c0 1.71.91 2.62 2.5 2.62 1.43 0 2.07-.56 2.29-1.52l-.9-.09c-.18.61-.59.9-1.35.9-.94 0-1.52-.54-1.58-1.66zm-2.4-2.2c.93 0 1.43.5 1.48 1.55H1.84c.08-1.07.6-1.56 1.5-1.56zm0 0"/></symbol><symbol overflow="visible" id="e907eec7l"><path d="M1.83 0l1.42-2h.06l1.46 2H5.8L4-2.53l1.78-2.49H4.8L3.42-3.08h-.08l-1.4-1.94H.89l1.78 2.49L.84 0zm0 0"/></symbol><symbol overflow="visible" id="e907eec7m"><path d="M5.52-4.25v-.77H3.17v-1.56h-.81l-.14 1.56H.75v.77h1.47v2.4c0 1.3.48 1.94 1.84 1.94C4.6.1 5.14 0 5.55-.14L5.4-.91c-.32.13-.72.2-1.13.2-.8 0-1.1-.37-1.1-1.23v-2.31zm0 0"/></symbol><symbol overflow="visible" id="e907eec7n"><path d="M3.33-3.42c.47 0 .8-.27.8-.8 0-.51-.33-.8-.8-.8-.47 0-.8.29-.8.8 0 .53.33.8.8.8zm0 3.5c.47 0 .8-.27.8-.78 0-.53-.33-.82-.8-.82-.47 0-.8.29-.8.82 0 .51.33.78.8.78zm0 0"/></symbol><symbol overflow="visible" id="e907eec7p"><path d="M4.95-6.77L2.37-3.78H1.9v-2.99H.92V0h.97v-3.08h.49L4.96 0h1.19L3.23-3.5l2.85-3.27zm0 0"/></symbol><symbol overflow="visible" id="e907eec7q"><path d="M2.03 0L4.6-3.72h.08V0h.92v-5.02h-.96L2.06-1.27H2v-3.75h-.92V0zm0 0"/></symbol><symbol overflow="visible" id="e907eec7r"><path d="M2.06 1.9V-.84h.05c.28.58.8.97 1.77.97 1.5 0 2.2-.98 2.2-2.66 0-1.65-.7-2.64-2.19-2.64-.97 0-1.5.44-1.78 1.05h-.08l-.1-.9H1.1v6.9zm1.5-2.56c-1.06 0-1.53-.8-1.53-1.86 0-1.04.47-1.84 1.53-1.84 1.11 0 1.53.61 1.53 1.84 0 1.27-.42 1.86-1.53 1.86zm0 0"/></symbol><symbol overflow="visible" id="e907eec7s"><path d="M1.58-5.02c-.03.94-.11 2.35-.17 3.08-.08.86-.24 1.19-.74 1.19-.12 0-.23-.02-.31-.03L.3.02c.14.03.36.06.55.06 1.06 0 1.3-.64 1.39-1.9.05-.54.1-1.63.14-2.43h2.06V0h.96v-5.02zm0 0"/></symbol><symbol overflow="visible" id="e907eec7t"><path d="M5.38-.77v-4.25h-.96v4.25H2.03v-4.25h-.95V0h4.14v1.33h.87v-2.1zm0 0"/></symbol><symbol overflow="visible" id="e907eec7u"><path d="M2.83.14c.94 0 1.5-.39 1.81-.95h.08l.1.81h.76v-3.38c0-1.23-.69-1.8-2.13-1.8-1.43 0-2.03.65-2.18 1.6l.93.1c.11-.6.44-.93 1.22-.93.85 0 1.22.32 1.22 1.04v.34l-1.81.2C1.6-2.7 1.1-2.17 1.1-1.28c0 .92.64 1.42 1.72 1.42zm.25-.77c-.67 0-1.02-.28-1.02-.74 0-.44.28-.72 1-.82l1.58-.19v.41c0 .8-.6 1.34-1.56 1.34zm0 0"/></symbol><symbol overflow="visible" id="e907eec7v"><path d="M6.4-6.77h-.88l-1.25 3h-.54v-3h-.8v3H2.4l-1.27-3H.27l1.4 3.29L.16 0h.93l1.32-3.08h.51V0h.81v-3.08h.52L5.58 0h.92L5-3.48zm0 0"/></symbol><symbol overflow="visible" id="e907eec7w"><path d="M5.75-2.23v-.43c0-1.6-.9-2.51-2.42-2.51S.87-4.16.87-2.48c0 1.71.91 2.62 2.5 2.62 1.43 0 2.07-.56 2.29-1.52l-.9-.09c-.18.61-.59.9-1.35.9-.94 0-1.52-.54-1.58-1.66zm-2.4-2.2c.93 0 1.43.5 1.48 1.55H1.84c.08-1.07.6-1.56 1.5-1.56zm0 0"/></symbol><symbol overflow="visible" id="e907eec7x"><path d="M5.95-6.77H1.1V0h.99v-2.92H5.3v-.77H2.08v-2.26h3.87zm0 0"/></symbol><symbol overflow="visible" id="e907eec7y"><path d="M2.83.14c.94 0 1.5-.39 1.81-.95h.08l.1.81h.76v-3.38c0-1.23-.69-1.8-2.13-1.8-1.43 0-2.03.65-2.18 1.6l.93.1c.11-.6.44-.93 1.22-.93.85 0 1.22.32 1.22 1.04v.34l-1.81.2C1.6-2.7 1.1-2.17 1.1-1.28c0 .92.64 1.42 1.72 1.42zm.25-.77c-.67 0-1.02-.28-1.02-.74 0-.44.28-.72 1-.82l1.58-.19v.41c0 .8-.6 1.34-1.56 1.34zm0 0"/></symbol><symbol overflow="visible" id="e907eec7z"><path d="M2.73.14c.9 0 1.43-.45 1.74-1.08h.06l.13.94h.8v-5.02h-.94v2.7c0 .98-.57 1.62-1.46 1.62-.75 0-1.1-.4-1.1-1.22v-3.1h-.93v3.32c0 1.17.55 1.84 1.7 1.84zm0 0"/></symbol><symbol overflow="visible" id="e907eec7A"><path d="M5.08-5.16c-.94 0-1.58.43-1.9 1.3h-.09l-.07-1.16H1.05v.77h1.1v3.48H.96V0h3.96v-.77H3.1v-1.46c0-1.36.6-2.05 1.83-2.05.4 0 .76.08 1.1.17l.15-.87c-.33-.11-.7-.18-1.11-.18zm0 0"/></symbol><symbol overflow="visible" id="e907eec7B"><path d="M6.17 0L3.98-6.77h-1.3L.5 0h.97l.44-1.47h2.78L5.16 0zM3.28-5.94h.08l1.1 3.74H2.15zm0 0"/></symbol><symbol overflow="visible" id="e907eec7C"><path d="M3.92-7.14H1.36v.76h1.6v5.61H1.15V0H5.7v-.77H3.92zm0 0"/></symbol><symbol overflow="visible" id="e907eec7D"><path d="M2.16 0v-2.67c0-.99.59-1.63 1.46-1.63.74 0 1.07.38 1.07 1.22V0h.95v-3.31c0-1.2-.56-1.85-1.67-1.85-.92 0-1.49.46-1.77 1.08h-.06l-.12-.94H1.2V0zm0 0"/></symbol><symbol overflow="visible" id="e907eec7E"><path d="M3.58-5.81c.42 0 .72-.22.72-.67 0-.44-.3-.68-.72-.68-.44 0-.72.24-.72.68 0 .45.28.67.72.67zm.5.8H1.52v.76h1.6v3.48h-1.8V0h4.46v-.77h-1.7zm0 0"/></symbol><symbol overflow="visible" id="e907eec7F"><path d="M3.9 0l2-5.02h-.96L3.4-.94h-.07L1.8-5.02H.77L2.78 0zm0 0"/></symbol><symbol overflow="visible" id="e907eec7G"><path d="M4.63-6.5c.45 0 .98.08 1.39.2l.2-.72a5.3 5.3 0 00-1.64-.26c-1.52 0-2.16.56-2.16 1.87v.4H.9v.76h1.53V0h.94v-4.25h2.53v-.77H3.36v-.3c0-.84.33-1.18 1.27-1.18zm0 0"/></symbol><symbol overflow="visible" id="e907eec7H"><path d="M3.33.14c1.62 0 2.5-.95 2.5-2.66 0-1.68-.88-2.64-2.5-2.64-1.63 0-2.5.96-2.5 2.64 0 1.7.87 2.66 2.5 2.66zm0-.77c-1.06 0-1.52-.6-1.52-1.89 0-1.28.46-1.87 1.52-1.87 1.08 0 1.53.6 1.53 1.87 0 1.29-.45 1.9-1.53 1.9zm0 0"/></symbol><symbol overflow="visible" id="e907eec7I"><path d="M1.63 0v-2.9c0-.8.15-1.4.71-1.4.41 0 .55.3.55.88V0h.95v-2.9c0-.8.18-1.4.72-1.4.4 0 .57.3.57.88V0h.95v-3.63c0-.92-.28-1.53-1.11-1.53-.63 0-.95.41-1.1.9h-.06c-.1-.52-.44-.9-1.08-.9-.6 0-.93.41-1.06.9H1.6l-.23-.76H.67V0zm0 0"/></symbol><symbol overflow="visible" id="e907eec7J"><path d="M3.36.16c1.4 0 2.2-.6 2.2-1.57 0-.89-.54-1.22-1.47-1.39L3-3c-.67-.14-.86-.33-.86-.73 0-.5.4-.74 1.17-.74.83 0 1.19.27 1.27.8l.9-.05c-.12-1-.8-1.47-2.17-1.47-1.34 0-2.1.53-2.1 1.5 0 .81.45 1.22 1.52 1.44l1.04.2c.56.11.87.24.87.72 0 .52-.45.78-1.28.78-.95 0-1.36-.28-1.42-.87l-.9.06C1.07-.36 1.8.16 3.35.16zm0 0"/></symbol><symbol overflow="visible" id="e907eec7K"><path d="M3.38-5.9c.12-.5.42-1.04.67-1.41l-.63-.22a4.28 4.28 0 00-1.01 2.39c0 .66.3 1 .9 1 .6 0 .9-.33.9-.9 0-.57-.32-.83-.83-.85zm0 0"/></symbol><symbol overflow="visible" id="e907eec7L"><path d="M4.95-6.77L2.37-3.78H1.9v-2.99H.92V0h.97v-3.08h.49L4.96 0h1.19L3.23-3.5l2.85-3.27zm0 0"/></symbol><symbol overflow="visible" id="e907eec7M"><path d="M3.3-7.53c-.55 0-.85.3-.85.84 0 .55.36.8.83.8h.03a5.1 5.1 0 01-.69 1.47l.52.23a4.29 4.29 0 001.02-2.4c0-.63-.33-.94-.86-.94zm0 0"/></symbol><symbol overflow="visible" id="e907eec7N"><path d="M2.84.14C3.8.14 4.33-.26 4.6-.9h.07L4.8 0h.76v-7.14h-.95v2.95h-.08c-.28-.6-.86-.97-1.67-.97-1.48 0-2.27.99-2.27 2.64C.6-.84 1.36.14 2.84.14zm.22-.8c-.98 0-1.48-.59-1.48-1.84s.5-1.86 1.48-1.86c1.13 0 1.58.8 1.58 1.86S4.2-.66 3.06-.66zm0 0"/></symbol><symbol overflow="visible" id="e907eec7O"><path d="M6 0v-.81H1.92V-.9L6-6v-.77H.77v.82h3.98v.1L.67-.78V0zm0 0"/></symbol><symbol overflow="visible" id="e907eec7P"><path d="M2.16 0v-2.69c0-.98.6-1.6 1.46-1.6.74 0 1.07.4 1.07 1.2V0h.95v-3.31c0-1.17-.56-1.85-1.67-1.85-.9 0-1.44.46-1.75 1.08h-.06v-3.06H1.2V0zm0 0"/></symbol><symbol overflow="visible" id="e907eec7Q"><path d="M1.45-2.95c0 2.56 1.08 4.37 3.67 4.84l.11-.67C3.28.86 2.43-.75 2.43-2.95s.85-3.82 2.8-4.16l-.1-.69c-2.6.49-3.68 2.3-3.68 4.85zm0 0"/></symbol><symbol overflow="visible" id="e907eec7R"><path d="M4.22-6.77h-.86l-2.03.7v.87c.64-.17 1.26-.38 1.89-.55v4.9H1.03V0h4.9v-.86H4.21zm0 0"/></symbol><symbol overflow="visible" id="e907eec7S"><path d="M5.1 0v-1.47H6v-.81h-.9v-4.49H3.8L.48-2.23v.76h3.66V0zM1.5-2.33l2.6-3.53h.04v3.58H1.5zm0 0"/></symbol><symbol overflow="visible" id="e907eec7T"><path d="M1.45-7.1c1.96.33 2.8 1.94 2.8 4.15 0 2.2-.84 3.8-2.8 4.17l.11.67c2.58-.47 3.67-2.28 3.67-4.84 0-2.55-1.09-4.36-3.67-4.85zm0 0"/></symbol></defs><use xlink:href="#e907eec7a" x="94.56" y="152" fill="#fff"/><g fill="#515151"><use xlink:href="#e907eec7b" x="133.5" y="152"/><use xlink:href="#e907eec7c" x="171.36" y="152"/><use xlink:href="#e907eec7b" x="204.96" y="152"/><use xlink:href="#e907eec7d" x="242.82" y="152"/><use xlink:href="#e907eec7d" x="275.52" y="152"/><use xlink:href="#e907eec7b" x="308.22" y="152"/><use xlink:href="#e907eec7e" x="346.08" y="152"/><use xlink:href="#e907eec7f" x="382.02" y="152"/><use xlink:href="#e907eec7g" x="411.24" y="152"/></g><use xlink:href="#e907eec7h" x="423.84" y="152" fill="#fff"/><use xlink:href="#e907eec7i" x="476.64" y="152" fill="#515151"/><g fill="#fff"><use xlink:href="#e907eec7j" x="240" y="252"/><use xlink:href="#e907eec7k" x="246.667" y="252"/><use xlink:href="#e907eec7l" x="253.334" y="252"/><use xlink:href="#e907eec7m" x="260.001" y="252"/><use xlink:href="#e907eec7n" x="266.668" y="252"/><use xlink:href="#e907eec7o" x="273.335" y="252"/><use xlink:href="#e907eec7p" x="280.002" y="252"/><use xlink:href="#e907eec7q" x="286.669" y="252"/><use xlink:href="#e907eec7r" x="293.336" y="252"/><use xlink:href="#e907eec7q" x="300.003" y="252"/><use xlink:href="#e907eec7s" x="306.67" y="252"/><use xlink:href="#e907eec7s" x="313.337" y="252"/><use xlink:href="#e907eec7q" x="320.004" y="252"/><use xlink:href="#e907eec7t" x="326.671" y="252"/><use xlink:href="#e907eec7u" x="333.338" y="252"/><use xlink:href="#e907eec7o" x="340.005" y="252"/><use xlink:href="#e907eec7v" x="346.672" y="252"/><use xlink:href="#e907eec7w" x="353.339" y="252"/></g><g fill="#fff"><use xlink:href="#e907eec7x" x="130" y="266"/><use xlink:href="#e907eec7k" x="136.667" y="266"/><use xlink:href="#e907eec7y" x="143.334" y="266"/><use xlink:href="#e907eec7m" x="150.001" y="266"/><use xlink:href="#e907eec7z" x="156.668" y="266"/><use xlink:href="#e907eec7A" x="163.335" y="266"/><use xlink:href="#e907eec7k" x="170.002" y="266"/><use xlink:href="#e907eec7n" x="176.669" y="266"/><use xlink:href="#e907eec7o" x="183.336" y="266"/><use xlink:href="#e907eec7B" x="190.003" y="266"/><use xlink:href="#e907eec7C" x="196.67" y="266"/><use xlink:href="#e907eec7m" x="203.337" y="266"/><use xlink:href="#e907eec7k" x="210.004" y="266"/><use xlink:href="#e907eec7A" x="216.671" y="266"/><use xlink:href="#e907eec7D" x="223.338" y="266"/><use xlink:href="#e907eec7y" x="230.005" y="266"/><use xlink:href="#e907eec7m" x="236.672" y="266"/><use xlink:href="#e907eec7E" x="243.339" y="266"/><use xlink:href="#e907eec7F" x="250.006" y="266"/><use xlink:href="#e907eec7k" x="256.673" y="266"/><use xlink:href="#e907eec7o" x="263.34" y="266"/><use xlink:href="#e907eec7G" x="270.007" y="266"/><use xlink:href="#e907eec7H" x="276.674" y="266"/><use xlink:href="#e907eec7A" x="283.341" y="266"/><use xlink:href="#e907eec7I" x="290.008" y="266"/><use xlink:href="#e907eec7J" x="296.675" y="266"/><use xlink:href="#e907eec7o" x="303.342" y="266"/><use xlink:href="#e907eec7H" x="310.009" y="266"/><use xlink:href="#e907eec7G" x="316.676" y="266"/><use xlink:href="#e907eec7o" x="323.343" y="266"/><use xlink:href="#e907eec7K" x="330.01" y="266"/><use xlink:href="#e907eec7L" x="336.677" y="266"/><use xlink:href="#e907eec7y" x="343.344" y="266"/><use xlink:href="#e907eec7M" x="350.011" y="266"/><use xlink:href="#e907eec7o" x="356.678" y="266"/><use xlink:href="#e907eec7y" x="363.345" y="266"/><use xlink:href="#e907eec7D" x="370.012" y="266"/><use xlink:href="#e907eec7N" x="376.679" y="266"/><use xlink:href="#e907eec7o" x="383.346" y="266"/><use xlink:href="#e907eec7K" x="390.013" y="266"/><use xlink:href="#e907eec7O" x="396.68" y="266"/><use xlink:href="#e907eec7P" x="403.347" y="266"/><use xlink:href="#e907eec7k" x="410.014" y="266"/><use xlink:href="#e907eec7M" x="416.681" y="266"/><use xlink:href="#e907eec7o" x="423.348" y="266"/><use xlink:href="#e907eec7Q" x="430.015" y="266"/><use xlink:href="#e907eec7J" x="436.682" y="266"/><use xlink:href="#e907eec7J" x="443.349" y="266"/><use xlink:href="#e907eec7R" x="450.016" y="266"/><use xlink:href="#e907eec7S" x="456.683" y="266"/><use xlink:href="#e907eec7T" x="463.35" y="266"/></g></svg>