<?xml version='1.0' encoding='UTF-8'?>
<svg xmlns="http://www.w3.org/2000/svg" xmlns:xlink="http://www.w3.org/1999/xlink" width="600px" height="300px" viewBox="0 0 600 300" x="0px" y="0px" enable-background="new 0 0 600 300"><defs><symbol overflow="visible" id="ce388197a"><path d="M9.36.06c3 0 5.7-.12 8.77-.12 2.28 0 6.59 0 8.57.12.36-.9.49-1.86.43-2.87a28.63 28.63 0 00-6.07-1.14 42.4 42.4 0 01-.25-4.99V-36.3h9.9a42 42 0 01.98 7.32c.89.36 1.9.36 3.17 0 .48-3.6.66-7.2.55-10.8l-.49-.49c-3.72.13-9.9.13-14.1.13h-5.27c-4.2 0-10.4 0-14.11-.13l-.49.49c-.1 3.72.07 7.33.55 10.8 1.08.42 2.1.36 3.19 0 .1-2.4.4-4.93.95-7.32h9.9v28.67c0 1.27-.06 2.54-.3 3.68-2.16.53-4.26.95-6.43 1.14 0 .95.13 1.9.55 2.87zm0 0"/></symbol><symbol overflow="visible" id="ce388197b"><path d="M15.06.84c8.4 0 13.31-8.15 13.31-15.42 0-8.22-3.95-14.47-12.65-14.47-8.4 0-13.31 8.18-13.31 15.43C2.4-5.22 6.55.84 15.06.84zm1.08-4.03c-6.42 0-8.64-7.01-8.64-12.1 0-3.62 1.31-6.79 3-8.59.72-.71 2.88-1.14 4.14-1.14 6.42 0 8.64 7.02 8.64 12.11 0 3.61-1.33 6.79-3 8.6-.72.72-2.87 1.12-4.14 1.12zm0 0"/></symbol><symbol overflow="visible" id="ce388197c"><path d="M11.34.84c3.43 0 6.9-1.39 9.3-2.82a3.7 3.7 0 00-1.02-2.7c-2.17.77-3.84 1.26-5.93 1.26-1.92 0-2.83-2.22-2.83-6.6v-14.53h9.12c.18-1.18.24-2.32.24-3.65l-9.36-.11v-7.92a6.94 6.94 0 00-3.06-.36L5.8-28.44c-1.54.13-3.17.36-4.6.72-.13.78-.13 1.63.1 2.4 1.56.18 3.38.54 4.5.77v16.82c0 5.51 1.46 8.57 5.53 8.57zm0 0"/></symbol><symbol overflow="visible" id="ce388197d"><path d="M8.88.84c2.7 0 6.54-1.8 9.9-4.8.6 2.82 1.74 4.8 2.94 4.8 2.1 0 4.98-1.43 6.84-3.06 0-.9-.36-1.69-.9-2.22-1.14.36-2.52.78-3.85.96-.23-1.32-.3-3.11-.3-4.74V-19.5c0-8.16-5.93-9.48-9.46-9.48-4.14 0-7.82 1.32-10.7 3.06 0 2.1.56 4.56 1.45 6.42 1.14.36 2.34.13 3.48-.42 0-1.67.06-3.3.42-4.86 1.57-.36 3.18-.49 4.74-.49 4.08 0 5.04 3.07 5.04 7.7C10.8-16.2 2.1-13.03 2.1-6.3 2.1-1.86 4.92.84 8.88.84zM7.44-7.8c0-1.26.48-2.89 1.2-3.6.72-.72 5.1-1.97 9.84-2.52v7.08c-1.86 1.68-4.75 3.12-6.54 3.12-3.17 0-4.5-1.86-4.5-4.08zm0 0"/></symbol><symbol overflow="visible" id="ce388197e"><path d="M1.5.06c2.28 0 4.8-.12 7.27-.12 1.43 0 5.09.06 6.71.12.24-.54.36-1.8.36-2.7-1.07-.48-2.89-.9-4.5-1.08a50.93 50.93 0 01-.18-4.5V-28.2c0-6.6.06-11.28.25-17.28l-.49-.47c-3.3.3-7.37 1.18-9.78 2.1-.12.77 0 1.55.24 2.33 1.56.18 3.18.54 4.75.96v33.54c0 1.2-.07 2.04-.25 3.36-1.2.43-3.11.85-4.8 1.02 0 .95.19 2.22.42 2.7zm0 0"/></symbol><symbol overflow="visible" id="ce388197f"><path d="M4.02-24.48a4.06 4.06 0 008.1 0c0-2.1-1.8-3.72-4.03-3.72-2.21 0-4.07 1.62-4.07 3.72zm0 21.36a4.06 4.06 0 008.1 0c0-2.1-1.8-3.72-4.03-3.72-2.21 0-4.07 1.62-4.07 3.71zm0 0"/></symbol><symbol overflow="visible" id="ce388197h"><path d="M29.58-11.52c0-4.2-3.6-7.14-9-9.9v-.13c4.37-2.32 7.37-5.32 7.37-9.4 0-4.33-3.82-8.28-10.9-8.28-5.4 0-12.36 4.25-12.36 11.21 0 3.36 3 5.88 7.5 8.4v.12c-5.96 3-8.64 6.48-8.64 10.73 0 6.61 4.3 9.79 11.75 9.79 8.22 0 14.28-6.07 14.28-12.54zm-19.8-18.6c0-1.86.85-3.24 1.74-3.9.48-.35 2.4-.96 4.32-.96 4.02 0 7.25 2.64 7.25 5.57 0 2.35-2.57 4.63-5.57 6.49-4.44-2.28-7.74-4.5-7.74-7.2zM8.45-9.84c0-3.11 2.9-6.07 7.2-7.97 4.76 2.45 8.77 4.8 8.77 8.03 0 1.92-.55 3.9-1.92 5.05-.6.53-3.23 1.54-6 1.54-3.55 0-8.05-1.6-8.05-6.65zm0 0"/></symbol><symbol overflow="visible" id="ce388197i"><path d="M13.63.84c7.6 0 13.85-6.12 13.85-14.64 0-5.89-4.56-10.39-11.53-10.39-1.67 0-3.1.25-4.97.67v-10.62h14.33c.38-1.08.55-2.28.61-3.66l-.48-.42c-4.08 0-8.16.06-12.13.06H6.48l-.48.47v18.85l.48.48a23.43 23.43 0 018.22-1.56 7.33 7.33 0 017.32 7.56c0 2.64-.79 5.77-2.4 7.27-.71.65-3 1.67-5.34 1.67-1.92 0-3.6-.13-4.86-.53a45.71 45.71 0 01-1.33-6.9 5.58 5.58 0 00-3.17.22 99.33 99.33 0 00-.6 9.49 24.14 24.14 0 009.3 1.98zm0 0"/></symbol><symbol overflow="visible" id="ce388197j"><path d="M3.48.06c2.82 0 5.46-.12 8.4-.12 2.28 0 6.42 0 8.28.12.36-.9.48-1.86.42-2.87-1.67-.49-3.66-.9-5.77-1.1a41.4 41.4 0 01-.23-4.73v-30l-.49-.48C9.66-38.45 6.13-37.5 3.06-36a3.3 3.3 0 00.53 2.45h5.7v26.17c0 1.2-.06 2.4-.23 3.47-2.1.55-4.08.91-6.12 1.1 0 .95.12 1.9.54 2.87zm0 0"/></symbol><symbol overflow="visible" id="ce388197k"><path d="M25.5-36.48a3.54 3.54 0 00-.66-2.88C8.1-37.14 3.24-26.64 3.24-15.66c0 6.9 2.88 16.68 12.18 16.68 6.53 0 13.27-5.22 13.27-13.97 0-6-4.27-10.75-10.27-10.75-3.19 0-6.19 1.07-9.6 4.32H8.7c.36-8.46 5.1-14.7 16.8-17.1zm-9.06 17.34a7.43 7.43 0 017.37 7.5c0 3.12-.89 5.7-2.51 7.27-.53.46-2.28 1.18-4.2 1.18-4.98 0-7.8-5.45-8.29-12.65 2.28-1.86 5.11-3.3 7.63-3.3zm0 0"/></symbol><symbol overflow="visible" id="ce388197l"><path d="M3.83 0v-5.95H6.2v-.82H.45v.82h2.4V0zm0 0"/></symbol><symbol overflow="visible" id="ce388197m"><path d="M5.75-2.23v-.43c0-1.6-.9-2.51-2.42-2.51S.87-4.16.87-2.48c0 1.71.91 2.62 2.5 2.62 1.43 0 2.07-.56 2.29-1.52l-.9-.09c-.18.61-.59.9-1.35.9-.94 0-1.52-.54-1.58-1.66zm-2.4-2.2c.93 0 1.43.5 1.48 1.55H1.84c.08-1.07.6-1.56 1.5-1.56zm0 0"/></symbol><symbol overflow="visible" id="ce388197n"><path d="M1.83 0l1.42-2h.06l1.46 2H5.8L4-2.53l1.78-2.49H4.8L3.42-3.08h-.08l-1.4-1.94H.89l1.78 2.49L.84 0zm0 0"/></symbol><symbol overflow="visible" id="ce388197o"><path d="M5.52-4.25v-.77H3.17v-1.56h-.81l-.14 1.56H.75v.77h1.47v2.4c0 1.3.48 1.94 1.84 1.94C4.6.1 5.14 0 5.55-.14L5.4-.91c-.32.13-.72.2-1.13.2-.8 0-1.1-.37-1.1-1.23v-2.31zm0 0"/></symbol><symbol overflow="visible" id="ce388197p"><path d="M3.33-3.42c.47 0 .8-.27.8-.8 0-.51-.33-.8-.8-.8-.47 0-.8.29-.8.8 0 .53.33.8.8.8zm0 3.5c.47 0 .8-.27.8-.78 0-.53-.33-.82-.8-.82-.47 0-.8.29-.8.82 0 .51.33.78.8.78zm0 0"/></symbol><symbol overflow="visible" id="ce388197r"><path d="M3.33.14c1.62 0 2.5-.95 2.5-2.66 0-1.68-.88-2.64-2.5-2.64-1.63 0-2.5.96-2.5 2.64 0 1.7.87 2.66 2.5 2.66zm0-.77c-1.06 0-1.52-.6-1.52-1.89 0-1.28.46-1.87 1.52-1.87 1.08 0 1.53.6 1.53 1.87 0 1.29-.45 1.9-1.53 1.9zm0 0"/></symbol><symbol overflow="visible" id="ce388197s"><path d="M2.83.14c.94 0 1.5-.39 1.81-.95h.08l.1.81h.76v-3.38c0-1.23-.69-1.8-2.13-1.8-1.43 0-2.03.65-2.18 1.6l.93.1c.11-.6.44-.93 1.22-.93.85 0 1.22.32 1.22 1.04v.34l-1.81.2C1.6-2.7 1.1-2.17 1.1-1.28c0 .92.64 1.42 1.72 1.42zm.25-.77c-.67 0-1.02-.28-1.02-.74 0-.44.28-.72 1-.82l1.58-.19v.41c0 .8-.6 1.34-1.56 1.34zm0 0"/></symbol><symbol overflow="visible" id="ce388197t"><path d="M3.92-7.14H1.36v.76h1.6v5.61H1.15V0H5.7v-.77H3.92zm0 0"/></symbol><symbol overflow="visible" id="ce388197u"><path d="M3.33.16c1.69 0 2.69-.74 2.69-1.94 0-1.05-.8-1.58-1.43-1.72v-.05c.5-.14 1.2-.58 1.2-1.56 0-1.12-.95-1.81-2.46-1.81-1.52 0-2.46.69-2.46 1.81 0 .97.68 1.4 1.18 1.56v.05c-.6.14-1.4.64-1.4 1.72 0 1.2 1 1.94 2.68 1.94zm0-4.04c-.97 0-1.49-.43-1.49-1.12 0-.78.52-1.1 1.49-1.1.95 0 1.48.32 1.48 1.1 0 .69-.53 1.13-1.48 1.13zm0 3.24c-1.1 0-1.7-.42-1.7-1.25 0-.78.6-1.2 1.7-1.2s1.7.42 1.7 1.2c0 .83-.6 1.25-1.7 1.25zm0 0"/></symbol><symbol overflow="visible" id="ce388197v"><path d="M3.42.14c1.55 0 2.44-.84 2.44-2.33 0-1.45-.83-2.22-2.14-2.22-.75 0-1.28.27-1.67.72H2l.31-2.22h3.11v-.86H1.53l-.45 3.93h.81c.3-.36.9-.79 1.58-.79.92 0 1.44.43 1.44 1.47 0 .99-.54 1.5-1.49 1.5-.83 0-1.28-.32-1.5-1.01l-.95.1C1.07-.46 2 .13 3.42.13zm0 0"/></symbol><symbol overflow="visible" id="ce388197w"><path d="M4.22-6.77h-.86l-2.03.7v.87c.64-.17 1.26-.38 1.89-.55v4.9H1.03V0h4.9v-.86H4.21zm0 0"/></symbol><symbol overflow="visible" id="ce388197x"><path d="M3.42.14c1.58 0 2.49-.86 2.49-2.3 0-1.42-.86-2.17-2.22-2.17-1.03 0-1.58.5-1.9 1.02h-.04c.03-1.63.4-2.77 1.73-2.77.91 0 1.24.44 1.36.96l.97-.11c-.23-.96-.86-1.68-2.33-1.68C1.84-6.9.86-5.86.86-3.1.86-.9 1.78.14 3.42.14zm.02-.78c-.9 0-1.47-.55-1.47-1.47 0-.9.7-1.47 1.53-1.47.92 0 1.47.52 1.47 1.47 0 .97-.6 1.47-1.53 1.47zm0 0"/></symbol><symbol overflow="visible" id="ce388197y"><path d="M5.95-6.77H1.1V0h.99v-2.92H5.3v-.77H2.08v-2.26h3.87zm0 0"/></symbol><symbol overflow="visible" id="ce388197z"><path d="M2.73.14c.9 0 1.43-.45 1.74-1.08h.06l.13.94h.8v-5.02h-.94v2.7c0 .98-.57 1.62-1.46 1.62-.75 0-1.1-.4-1.1-1.22v-3.1h-.93v3.32c0 1.17.55 1.84 1.7 1.84zm0 0"/></symbol><symbol overflow="visible" id="ce388197A"><path d="M5.08-5.16c-.94 0-1.58.43-1.9 1.3h-.09l-.07-1.16H1.05v.77h1.1v3.48H.96V0h3.96v-.77H3.1v-1.46c0-1.36.6-2.05 1.83-2.05.4 0 .76.08 1.1.17l.15-.87c-.33-.11-.7-.18-1.11-.18zm0 0"/></symbol><symbol overflow="visible" id="ce388197B"><path d="M2.08-6.77h-.99V0h4.79v-.81h-3.8zm0 0"/></symbol><symbol overflow="visible" id="ce388197C"><path d="M3.58-5.81c.42 0 .72-.22.72-.67 0-.44-.3-.68-.72-.68-.44 0-.72.24-.72.68 0 .45.28.67.72.67zm.5.8H1.52v.76h1.6v3.48h-1.8V0h4.46v-.77h-1.7zm0 0"/></symbol><symbol overflow="visible" id="ce388197D"><path d="M2.16 0v-2.67c0-.99.59-1.63 1.46-1.63.74 0 1.07.38 1.07 1.22V0h.95v-3.31c0-1.2-.56-1.85-1.67-1.85-.92 0-1.49.46-1.77 1.08h-.06l-.12-.94H1.2V0zm0 0"/></symbol><symbol overflow="visible" id="ce388197E"><path d="M3.16 2.03c1.67 0 2.4-.86 2.4-2.51v-4.54h-.81l-.13.91h-.06c-.26-.58-.8-1.05-1.73-1.05-1.42 0-2.24 1-2.24 2.52 0 1.6.75 2.56 2.2 2.56.94 0 1.5-.5 1.77-1.03h.05v.72c0 1.17-.42 1.67-1.45 1.67-.93 0-1.3-.34-1.41-.89L.8.5c.12.96.87 1.54 2.36 1.54zM3.06-.8c-.98 0-1.48-.57-1.48-1.82 0-1.13.5-1.75 1.48-1.75 1.06 0 1.58.76 1.58 1.75 0 .95-.56 1.82-1.58 1.82zm0 0"/></symbol><symbol overflow="visible" id="ce388197F"><path d="M1.63 0v-2.9c0-.8.15-1.4.71-1.4.41 0 .55.3.55.88V0h.95v-2.9c0-.8.18-1.4.72-1.4.4 0 .57.3.57.88V0h.95v-3.63c0-.92-.28-1.53-1.11-1.53-.63 0-.95.41-1.1.9h-.06c-.1-.52-.44-.9-1.08-.9-.6 0-.93.41-1.06.9H1.6l-.23-.76H.67V0zm0 0"/></symbol><symbol overflow="visible" id="ce388197G"><path d="M3.36.16c1.4 0 2.2-.6 2.2-1.57 0-.89-.54-1.22-1.47-1.39L3-3c-.67-.14-.86-.33-.86-.73 0-.5.4-.74 1.17-.74.83 0 1.19.27 1.27.8l.9-.05c-.12-1-.8-1.47-2.17-1.47-1.34 0-2.1.53-2.1 1.5 0 .81.45 1.22 1.52 1.44l1.04.2c.56.11.87.24.87.72 0 .52-.45.78-1.28.78-.95 0-1.36-.28-1.42-.87l-.9.06C1.07-.36 1.8.16 3.35.16zm0 0"/></symbol><symbol overflow="visible" id="ce388197H"><path d="M1.45-2.95c0 2.56 1.08 4.37 3.67 4.84l.11-.67C3.28.86 2.43-.75 2.43-2.95s.85-3.82 2.8-4.16l-.1-.69c-2.6.49-3.68 2.3-3.68 4.85zm0 0"/></symbol><symbol overflow="visible" id="ce388197I"><path d="M2.84.14C3.8.14 4.33-.26 4.6-.9h.07L4.8 0h.76v-7.14h-.95v2.95h-.08c-.28-.6-.86-.97-1.67-.97-1.48 0-2.27.99-2.27 2.64C.6-.84 1.36.14 2.84.14zm.22-.8c-.98 0-1.48-.59-1.48-1.84s.5-1.86 1.48-1.86c1.13 0 1.58.8 1.58 1.86S4.2-.66 3.06-.66zm0 0"/></symbol><symbol overflow="visible" id="ce388197J"><path d="M4.63-6.5c.45 0 .98.08 1.39.2l.2-.72a5.3 5.3 0 00-1.64-.26c-1.52 0-2.16.56-2.16 1.87v.4H.9v.76h1.53V0h.94v-4.25h2.53v-.77H3.36v-.3c0-.84.33-1.18 1.27-1.18zm0 0"/></symbol><symbol overflow="visible" id="ce388197K"><path d="M1.45-7.1c1.96.33 2.8 1.94 2.8 4.15 0 2.2-.84 3.8-2.8 4.17l.11.67c2.58-.47 3.67-2.28 3.67-4.84 0-2.55-1.09-4.36-3.67-4.85zm0 0"/></symbol></defs><use xlink:href="#ce388197a" x="160.77" y="152" fill="#515151"/><g fill="#515151"><use xlink:href="#ce388197b" x="194.01" y="152"/><use xlink:href="#ce388197c" x="224.79" y="152"/><use xlink:href="#ce388197d" x="245.73" y="152"/><use xlink:href="#ce388197e" x="274.95" y="152"/><use xlink:href="#ce388197f" x="292.23" y="152"/><use xlink:href="#ce388197g" x="308.43" y="152"/></g><g fill="#fff"><use xlink:href="#ce388197h" x="321.03" y="152"/><use xlink:href="#ce388197i" x="353.91" y="152"/><use xlink:href="#ce388197j" x="384.99" y="152"/><use xlink:href="#ce388197k" x="407.79" y="152"/></g><g fill="#fff"><use xlink:href="#ce388197l" x="243.3333" y="252"/><use xlink:href="#ce388197m" x="250.0003" y="252"/><use xlink:href="#ce388197n" x="256.6673" y="252"/><use xlink:href="#ce388197o" x="263.3343" y="252"/><use xlink:href="#ce388197p" x="270.0013" y="252"/><use xlink:href="#ce388197q" x="276.6683" y="252"/><use xlink:href="#ce388197l" x="283.3353" y="252"/><use xlink:href="#ce388197r" x="290.0023" y="252"/><use xlink:href="#ce388197o" x="296.6693" y="252"/><use xlink:href="#ce388197s" x="303.3363" y="252"/><use xlink:href="#ce388197t" x="310.0033" y="252"/><use xlink:href="#ce388197p" x="316.6703" y="252"/><use xlink:href="#ce388197q" x="323.3373" y="252"/><use xlink:href="#ce388197u" x="330.0043" y="252"/><use xlink:href="#ce388197v" x="336.6713" y="252"/><use xlink:href="#ce388197w" x="343.3383" y="252"/><use xlink:href="#ce388197x" x="350.0053" y="252"/></g><g fill="#fff"><use xlink:href="#ce388197y" x="186.6667" y="266"/><use xlink:href="#ce388197m" x="193.3337" y="266"/><use xlink:href="#ce388197s" x="200.0007" y="266"/><use xlink:href="#ce388197o" x="206.6677" y="266"/><use xlink:href="#ce388197z" x="213.3347" y="266"/><use xlink:href="#ce388197A" x="220.0017" y="266"/><use xlink:href="#ce388197m" x="226.6687" y="266"/><use xlink:href="#ce388197p" x="233.3357" y="266"/><use xlink:href="#ce388197q" x="240.0027" y="266"/><use xlink:href="#ce388197B" x="246.6697" y="266"/><use xlink:href="#ce388197C" x="253.3367" y="266"/><use xlink:href="#ce388197D" x="260.0037" y="266"/><use xlink:href="#ce388197C" x="266.6707" y="266"/><use xlink:href="#ce388197D" x="273.3377" y="266"/><use xlink:href="#ce388197E" x="280.0047" y="266"/><use xlink:href="#ce388197q" x="286.6717" y="266"/><use xlink:href="#ce388197D" x="293.3387" y="266"/><use xlink:href="#ce388197z" x="300.0057" y="266"/><use xlink:href="#ce388197F" x="306.6727" y="266"/><use xlink:href="#ce388197m" x="313.3397" y="266"/><use xlink:href="#ce388197A" x="320.0067" y="266"/><use xlink:href="#ce388197s" x="326.6737" y="266"/><use xlink:href="#ce388197t" x="333.3407" y="266"/><use xlink:href="#ce388197G" x="340.0077" y="266"/><use xlink:href="#ce388197q" x="346.6747" y="266"/><use xlink:href="#ce388197H" x="353.3417" y="266"/><use xlink:href="#ce388197I" x="360.0087" y="266"/><use xlink:href="#ce388197m" x="366.6757" y="266"/><use xlink:href="#ce388197J" x="373.3427" y="266"/><use xlink:href="#ce388197s" x="380.0097" y="266"/><use xlink:href="#ce388197z" x="386.6767" y="266"/><use xlink:href="#ce388197t" x="393.3437" y="266"/><use xlink:href="#ce388197o" x="400.0107" y="266"/><use xlink:href="#ce388197K" x="406.6777" y="266"/></g></svg>