<?xml version='1.0' encoding='UTF-8'?>
<svg xmlns="http://www.w3.org/2000/svg" xmlns:xlink="http://www.w3.org/1999/xlink" width="600px" height="300px" viewBox="0 0 600 300" x="0px" y="0px" enable-background="new 0 0 600 300"><defs><symbol overflow="visible" id="21bd2d21a"><path d="M19.27.19c9.95 0 14.21-7.03 14.21-13.4 0-4.24-2.93-8.02-8.89-9.23 4.7-2.1 5.83-5.7 5.83-8.83 0-5.21-4.08-9.1-9.65-9.1-2.9 0-6.49.23-10.75.23-2.64 0-5.04-.13-7.61-.13a8.14 8.14 0 00-.49 2.9c1.74.17 3.49.59 5.22 1.14.17 2.21.3 4.73.3 8.28v17.8c0 2 0 4.28-.3 6.2-1.73.53-3.48.95-5.22 1.14 0 .95.13 1.9.49 2.87 2.57 0 4.96-.12 7.6-.12 3.55 0 6.3.25 9.26.25zm-.85-36.67c3.72 0 6.53 3.06 6.53 6.9 0 3.24-2.32 6.42-7.73 6.42h-4.5V-36.3c1.92-.06 4.08-.18 5.7-.18zm.53 17.34c5.05 0 9.07 3.23 9.07 7.44 0 3.48-1.08 5.34-2.64 6.65-.36.32-3 1.2-6.96 1.2h-5.7v-15.3zm0 0"/></symbol><symbol overflow="visible" id="21bd2d21b"><path d="M8.52-33.66c2.34 0 4.14-2.47 4.14-4.62 0-1.86-1.8-3.3-3.6-3.3-2.28 0-4.14 2.52-4.14 4.67 0 1.82 1.99 3.25 3.6 3.25zM2.28.06c2.28 0 4.8-.12 7.27-.12 1.43 0 5.1.06 6.72.12.23-.54.36-1.8.36-2.7-1.08-.48-2.9-.9-4.5-1.08a50.93 50.93 0 01-.2-4.5v-3c0-6.6.07-11.28.26-17.28l-.49-.48c-3.3.3-7.39 1.2-9.78 2.1-.12.79 0 1.57.24 2.33 1.56.2 3.18.55 4.75.97v16.56c0 1.2-.07 2.16-.25 3.3-1.2.42-3.11.9-4.8 1.08 0 .95.19 2.22.42 2.7zm0 0"/></symbol><symbol overflow="visible" id="21bd2d21c"><path d="M15.06.84c8.4 0 13.31-8.15 13.31-15.42 0-8.22-3.95-14.47-12.65-14.47-8.4 0-13.31 8.18-13.31 15.43C2.4-5.22 6.55.84 15.06.84zm1.08-4.03c-6.42 0-8.64-7.01-8.64-12.1 0-3.62 1.31-6.79 3-8.59.72-.71 2.88-1.14 4.14-1.14 6.42 0 8.64 7.02 8.64 12.11 0 3.61-1.33 6.79-3 8.6-.72.72-2.87 1.12-4.14 1.12zm0 0"/></symbol><symbol overflow="visible" id="21bd2d21d"><path d="M13.02.66c3 0 6.36-1.2 8.93-2.58v1.69c0 6.04-.89 9-1.8 9.78-1.2.89-3.46 1.25-4.8 1.25-3.35 0-5.93-.85-7.5-2.1l-.47.18C6 10.02 5.4 11.7 5.58 13.68c1.8 1.26 4.73 1.98 7.69 1.98C21.78 15.66 27 8.52 27-2.7V-21.2c0-2.15.72-4.6 1.98-6.89a2.4 2.4 0 00-1.75-1.33c-1.01.49-2.51 1.99-3.65 3.49-1.99-1.63-5.52-3.13-8.28-3.13-6.53 0-12.9 6.61-12.9 15.43C2.4-5.7 5.95.65 13.03.65zM7.5-15.3c0-3.54 1.38-6.84 3-8.57.48-.49 1.92-1.15 4.5-1.15 2.34 0 4.92.79 6.95 1.57v18.6a33.4 33.4 0 01-7.67 1.2c-4.5 0-6.78-5.7-6.78-11.65zm0 0"/></symbol><symbol overflow="visible" id="21bd2d21e"><path d="M2.28.06c2.28 0 4.8-.12 7.27-.12 1.97 0 7.07.06 9.3.12.23-.54.35-1.8.35-2.7-1.5-.48-4.43-.9-7.07-1.08a50.93 50.93 0 01-.2-4.5v-11.64c2.48-3.95 4.45-4.69 6.73-4.69a10 10 0 011.56.13c.36 1.73.6 4.62.72 6.65 1.01.36 2.04.36 3.12 0a41.48 41.48 0 001.08-10.3 14.66 14.66 0 00-4.86-.79c-3.66 0-6.48 2.7-8.34 5.64-.17-1.5-.72-4.2-1.02-5.22l-.48-.42a32.9 32.9 0 00-8.52 2.16c-.12.72 0 1.56.24 2.34 1.56.17 3.18.48 4.75.95V-7c0 1.2-.07 2.03-.25 3.35-1.2.43-3.11.85-4.8 1.02 0 .95.19 2.22.42 2.7zm0 0"/></symbol><symbol overflow="visible" id="21bd2d21f"><path d="M8.88.84c2.7 0 6.54-1.8 9.9-4.8.6 2.82 1.74 4.8 2.94 4.8 2.1 0 4.98-1.43 6.84-3.06 0-.9-.36-1.69-.9-2.22-1.14.36-2.52.78-3.85.96-.23-1.32-.3-3.11-.3-4.74V-19.5c0-8.16-5.93-9.48-9.46-9.48-4.14 0-7.82 1.32-10.7 3.06 0 2.1.56 4.56 1.45 6.42 1.14.36 2.34.13 3.48-.42 0-1.67.06-3.3.42-4.86 1.57-.36 3.18-.49 4.74-.49 4.08 0 5.04 3.07 5.04 7.7C10.8-16.2 2.1-13.03 2.1-6.3 2.1-1.86 4.92.84 8.88.84zM7.44-7.8c0-1.26.48-2.89 1.2-3.6.72-.72 5.1-1.97 9.84-2.52v7.08c-1.86 1.68-4.75 3.12-6.54 3.12-3.17 0-4.5-1.86-4.5-4.08zm0 0"/></symbol><symbol overflow="visible" id="21bd2d21g"><path d="M1.5 15.06c2.45 0 4.8-.12 7.27-.12 2.21 0 6 .06 9.3.12.23-.54.35-1.75.35-2.64-1.92-.54-4.8-.97-7.08-1.08a51.2 51.2 0 01-.18-4.5v-9c2.53 1.74 5.4 2.82 7.5 2.82 7.2 0 12.54-8.1 12.54-15.43 0-8.68-4.43-14.28-10.86-14.28-4.14 0-7.5 1.86-9.54 3.78a28.57 28.57 0 00-.66-3.17l-.48-.42a32.9 32.9 0 00-8.52 2.16c-.12.72 0 1.56.24 2.34 1.56.17 3.18.48 4.75.95V8.05c0 1.18-.07 2.03-.25 3.36-1.2.4-3.11.82-4.8 1.01 0 .96.19 2.16.42 2.64zM18.66-24.9c4.92 0 7.43 5.83 7.43 11.83 0 3.42-1.25 6.53-3 8.58-.4.48-2.21 1.14-3.78 1.14-3.23 0-6.23-1.73-8.15-3.78v-15.17c2.28-1.46 5.4-2.6 7.5-2.6zm0 0"/></symbol><symbol overflow="visible" id="21bd2d21h"><path d="M1.5.06c2.28 0 4.8-.12 7.27-.12 1.43 0 5.09.06 6.71.12.24-.54.36-1.8.36-2.7-1.07-.48-2.89-.9-4.5-1.08a50.93 50.93 0 01-.18-4.5v-14.94c1.98-.96 4.5-1.75 7.56-1.75 4.73 0 5.47 3.32 5.47 7.82v10.07c0 1.2-.07 2.04-.19 3.36-1.27.43-3.19.85-4.86 1.02 0 .95.17 2.22.42 2.7 2.28 0 4.8-.12 7.25-.12 1.46 0 5.11.06 6.74.12.3-.54.4-1.8.4-2.7-1.14-.48-2.93-.9-4.54-1.08a50.93 50.93 0 01-.2-4.5v-11.22c0-6.65-3-9.6-8.27-9.6a18.6 18.6 0 00-9.78 3.12v-2.28c0-6.6.06-11.28.25-17.28l-.49-.47c-3.3.3-7.37 1.18-9.78 2.1-.12.77 0 1.55.24 2.33 1.56.18 3.18.54 4.75.96v33.54c0 1.2-.07 2.04-.25 3.36-1.2.43-3.11.85-4.8 1.02 0 .95.19 2.22.42 2.7zm0 0"/></symbol><symbol overflow="visible" id="21bd2d21i"><path d="M7.27 15.36c4.5 0 8.21-6.72 11.57-15.84l8.88-24c1.2-.18 2.4-.54 3.42-1.08a5.8 5.8 0 00-.3-2.7c-1.62.06-3.25.12-4.62.12-2.58 0-4.92-.13-6.78-.13a9.09 9.09 0 00-.42 2.7l4.62.98-7.5 21h-.06L15.84-8l-6-16.5 4.61-1.07c.13-.96.07-1.86-.3-2.7-2.21.06-4.8.12-6.88.12-2.22 0-4.27-.13-5.83-.13a9.09 9.09 0 00-.42 2.7c1.03.2 2.46.62 3.3 1.09L13.26 0h1.8l-.91 2.05c-2.4 5.33-5.29 9.1-10.97 9.1H2.4a3.7 3.7 0 00-.97 2.65c1.01.72 3.25 1.56 5.83 1.56zm0 0"/></symbol><symbol overflow="visible" id="21bd2d21k"><path d="M17.4.19a13.8 13.8 0 0013.8-13.63c0-4.2-2.47-7.69-7.14-9.12 3.85-2.16 6.53-5.7 6.53-9.6 0-4.98-3.46-8.4-10.8-8.4-4.56 0-9.95.72-15.52 2.34-.2 1.27 0 2.34.59 3.24 1.56-.43 2.94-.72 4.5-.9L5.76-7.61c-.18 1.26-.3 2.4-.78 3.67A23.4 23.4 0 010-2.81C-.13-1.86-.13-.84.06.06c2.46 0 4.74-.12 7.32-.12 3.78 0 7.2.25 10.03.25zm1.02-36.85c3.6 0 6.72 2.16 6.72 6.11 0 3.13-2.34 6.43-5.94 7.4-1.92.06-3.97.17-6.18.42l1.75-13.86c1.43-.07 2.68-.07 3.65-.07zm-.6 17.4c5.76 0 7.91 3.9 7.91 7.74a9.02 9.02 0 01-2.8 6.47c-1.57.67-4.02 1.2-6.79 1.2h-5.58l1.99-15.1c2.03-.25 3.72-.32 5.26-.32zm0 0"/></symbol><symbol overflow="visible" id="21bd2d21l"><path d="M9.84-33.66c2.35-.12 4.08-2.47 4.08-4.62 0-1.86-1.73-3.3-3.54-3.3-2.29 0-4.15 2.52-4.15 4.67 0 1.82 1.99 3.25 3.61 3.25zM7.02.72c2.7 0 6.9-2.58 8.93-4.8-.17-.84-.6-1.5-1.25-1.98A25.03 25.03 0 019.2-4.38l2.69-19.32c.06-.43.12-1.02.12-1.86 0-2.16-1.02-3.36-3.23-3.36-2.64 0-5.18.72-7.14 1.86a3.18 3.18 0 000 2.15c1.73 0 3.35.2 5.09.55A526.18 526.18 0 014.2-6a18.1 18.1 0 00-.36 3c0 1.98.79 3.72 3.18 3.72zm0 0"/></symbol><symbol overflow="visible" id="21bd2d21m"><path d="M10.38.95c9.67 0 15.3-8.03 15.3-18.36 0-5.15-1.74-11.75-8.52-11.75-9.54 0-15.11 8.04-15.11 18.36C2.05-5.64 3.85.95 10.37.95zm2.57-4.01c-4.18 0-5.8-3.9-5.8-10.44 0-4.92 1.85-8.7 3.58-10.5A9.07 9.07 0 0115-25.14c3.78 0 5.58 3.9 5.58 10.5 0 4.62-1.86 8.58-3.6 10.37a8.71 8.71 0 01-4.03 1.2zm0 0"/></symbol><symbol overflow="visible" id="21bd2d21n"><path d="M12.42-8.28c9.06 0 13.56-6.49 13.56-12.3 0-1.69-.36-3.3-1.26-4.62 3.23-.66 7.26-1.57 7.26-3.49 0-.76-.96-2.26-2.04-3.23h-.85a51.1 51.1 0 01-5.93 4.98c-1.5-1.14-3.66-1.86-6.6-1.86-8.47 0-13.2 6.66-13.2 12.53 0 4.08 1.98 6.55 5.4 7.5-2.1 2.11-3.6 4.27-3.6 6.32 0 .6.18 1.14.6 1.6C2.42.92-1.2 4.09-1.2 8.23c0 4.33 3.42 7.73 10.07 7.73 11.11 0 17.54-4.73 17.54-13.25 0-4.01-3.32-6.42-10.57-6.42-1.75 0-4.07-.12-5.7-.3a4.3 4.3 0 01-.12-1.03c0-1.25.42-2.26 1.07-3.3.43.07.85.07 1.33.07zm1.38-3.85c-3.49 0-5.64-2.74-5.64-6.23 0-2.28 1.5-4.62 2.7-5.87 1.5-.55 2.94-.79 4.33-.79 4.01 0 6 3.07 6 6 0 2.46-1.27 4.57-2.7 6.11-1.15.43-3 .79-4.7.79zM3.84 6.84C3.84 4.5 5.45 2.1 7.56.2c1.38.47 3.49.76 6.53.76 5.29 0 7.4 1.2 7.4 3.74 0 2.15-1.08 4.12-2.18 5.58a20.42 20.42 0 01-8.33 1.67c-5.76 0-7.14-2.88-7.14-5.1zm0 0"/></symbol><symbol overflow="visible" id="21bd2d21o"><path d="M3.55.19C6.13.42 8.77-.2 8.88-1.27c.67-5.57 1.5-11.68 2.21-17.32C13.02-21 15-22.8 17.7-24.5c1.14.97 2.03 1.86 2.7 2.83 1.8-.54 3.73-2.46 3.73-3.54 0-1.44-1.44-4.14-3.79-4.14-2.76 0-5.82 2.7-8.64 6.25l.07-.61c.04-.6.1-1.02.1-1.5 0-2.35-1.07-3.72-3.42-3.72-2.32 0-4.86.72-6.82 1.86a3.18 3.18 0 000 2.15c1.73 0 3.35.2 5.09.55l-.53 4.56A290.2 290.2 0 013.06-.3zm0 0"/></symbol><symbol overflow="visible" id="21bd2d21p"><path d="M7.56.95c3.17 0 7.08-2.22 10.74-5.64.18 3.07.72 5.4 2.4 5.4 2.7 0 6.9-2.57 8.94-4.79-.19-.84-.6-1.5-1.27-1.98-1.6.72-3.46 1.33-5.45 1.68l2.52-19.32c.18-1.14.36-2.03.65-3.18a27.03 27.03 0 00-10.43-2.28c-8.75 0-13.61 9.6-13.61 19.25 0 2.18.17 4.5.65 6.55C3.3-.84 4.86.95 7.56.95zm-.42-12.6c0-5.93 2.1-10.91 4.38-12.94a7.8 7.8 0 013.18-.55c1.8 0 3.72.42 5.7 1.27L18.3-7.7c-3.43 2.47-6.72 4.33-9.49 4.33-1.08-1.08-1.67-4.02-1.67-8.28zm0 0"/></symbol><symbol overflow="visible" id="21bd2d21q"><path d="M13.98.78c8.94 0 13.86-9.55 13.86-19.14 0-2.22-.06-4.69-.6-6.66-.66-2.46-2.33-4.14-5.1-4.14-3.06 0-6.95 2.04-10.56 5.29.06-.43.12-.85.12-1.33 0-2.35-.97-3.72-3.3-3.72-2.34 0-4.85.72-6.84 1.86a3.18 3.18 0 000 2.15c1.74 0 3.42.2 5.16.55L4.2-4.73a395.63 395.63 0 01-3 19.5l.49.46c2.58.25 5.33-.36 5.45-1.43.42-4.68.95-9.43 1.5-14.03A16.8 16.8 0 0013.98.78zM9.66-8.64l1.5-11.94c3.54-2.51 6.96-4.44 9.84-4.44 1.14 1.14 1.73 4.02 1.73 8.33 0 5.9-2.15 10.88-4.5 12.9a7.5 7.5 0 01-2.75.56c-2.17 0-4.32-.72-6.25-1.93.13-1.2.32-2.34.43-3.48zm0 0"/></symbol><symbol overflow="visible" id="21bd2d21r"><path d="M2.94.19C5.52.42 8.16-.2 8.28-1.27 9-7.73 9.95-14.34 10.73-20.52c3.68-2.53 6.97-4.2 10.14-4.56 1.08.53 1.27 1.99 1.27 3.85 0 1.73-1.56 9.59-3 16.3-.12.66-.19 1.34-.19 1.93 0 1.98.85 3.72 3.07 3.72 2.7 0 6.9-2.58 8.93-4.8-.17-.84-.6-1.5-1.25-1.98-1.62.72-3.6 1.33-5.57 1.68 1.67-7.39 3.23-14.89 3.23-18.9 0-3.17-1.67-5.88-5.34-5.88-3.11 0-6.9 1.93-10.8 5.16l2.1-16.31c.05-.61.12-1.1.12-1.56 0-2.35-1.08-3.72-3.42-3.72-2.33 0-4.86.72-6.83 1.86a3.18 3.18 0 000 2.15c1.73 0 3.4.17 5.15.53L5.58-19.8C4.73-13.44 3.78-7.14 2.45-.3zm0 0"/></symbol><symbol overflow="visible" id="21bd2d21s"><path d="M3.78 16.27l.53-.43a57.54 57.54 0 019.67-14.57c8.22-9.32 13.38-17.54 13.38-24.85 0-1.2-.13-2.28-.48-3.42-.43-1.44-2.88-1.92-5.04-1.92l-.48.48c.19 1.02.3 2.1.3 3.13 0 8.15-2.16 15.04-8.04 21.65h-.12c.19-2.21.23-4.8.23-7.43 0-6.13-1.01-12.49-2.51-15.32-.85-1.54-2.03-2.57-3.53-2.57-1.99 0-5.64 1.56-7.4 3.67 0 .76.37 1.67.91 1.97 1.44-.3 2.94-.47 4.74-.66C8.7-17.87 9.3-11.28 9.3-3.06V1.3C4.56 5.34-.55 11.64-.55 13.27c0 1.3 2.24 2.8 4.33 3zm0 0"/></symbol><symbol overflow="visible" id="21bd2d21t"><path d="M3.83 0v-5.95H6.2v-.82H.45v.82h2.4V0zm0 0"/></symbol><symbol overflow="visible" id="21bd2d21u"><path d="M5.75-2.23v-.43c0-1.6-.9-2.51-2.42-2.51S.87-4.16.87-2.48c0 1.71.91 2.62 2.5 2.62 1.43 0 2.07-.56 2.29-1.52l-.9-.09c-.18.61-.59.9-1.35.9-.94 0-1.52-.54-1.58-1.66zm-2.4-2.2c.93 0 1.43.5 1.48 1.55H1.84c.08-1.07.6-1.56 1.5-1.56zm0 0"/></symbol><symbol overflow="visible" id="21bd2d21v"><path d="M1.83 0l1.42-2h.06l1.46 2H5.8L4-2.53l1.78-2.49H4.8L3.42-3.08h-.08l-1.4-1.94H.89l1.78 2.49L.84 0zm0 0"/></symbol><symbol overflow="visible" id="21bd2d21w"><path d="M5.52-4.25v-.77H3.17v-1.56h-.81l-.14 1.56H.75v.77h1.47v2.4c0 1.3.48 1.94 1.84 1.94C4.6.1 5.14 0 5.55-.14L5.4-.91c-.32.13-.72.2-1.13.2-.8 0-1.1-.37-1.1-1.23v-2.31zm0 0"/></symbol><symbol overflow="visible" id="21bd2d21x"><path d="M3.33-3.42c.47 0 .8-.27.8-.8 0-.51-.33-.8-.8-.8-.47 0-.8.29-.8.8 0 .53.33.8.8.8zm0 3.5c.47 0 .8-.27.8-.78 0-.53-.33-.82-.8-.82-.47 0-.8.29-.8.82 0 .51.33.78.8.78zm0 0"/></symbol><symbol overflow="visible" id="21bd2d21z"><path d="M4.66-3.45c.76-.14 1.15-.67 1.15-1.57 0-1.07-.64-1.75-2.18-1.75H.92V0h2.71C5.2 0 5.98-.64 5.98-1.77c0-1.03-.56-1.43-1.32-1.59zM3.56-6c.9 0 1.31.4 1.31 1.13 0 .71-.4 1.14-1.3 1.14h-1.7V-6zM1.87-.75v-2.27H3.6c.97 0 1.44.33 1.44 1.13 0 .8-.47 1.14-1.44 1.14zm0 0"/></symbol><symbol overflow="visible" id="21bd2d21A"><path d="M3.58-5.81c.42 0 .72-.22.72-.67 0-.44-.3-.68-.72-.68-.44 0-.72.24-.72.68 0 .45.28.67.72.67zm.5.8H1.52v.76h1.6v3.48h-1.8V0h4.46v-.77h-1.7zm0 0"/></symbol><symbol overflow="visible" id="21bd2d21B"><path d="M3.33.14c1.62 0 2.5-.95 2.5-2.66 0-1.68-.88-2.64-2.5-2.64-1.63 0-2.5.96-2.5 2.64 0 1.7.87 2.66 2.5 2.66zm0-.77c-1.06 0-1.52-.6-1.52-1.89 0-1.28.46-1.87 1.52-1.87 1.08 0 1.53.6 1.53 1.87 0 1.29-.45 1.9-1.53 1.9zm0 0"/></symbol><symbol overflow="visible" id="21bd2d21C"><path d="M3.16 2.03c1.67 0 2.4-.86 2.4-2.51v-4.54h-.81l-.13.91h-.06c-.26-.58-.8-1.05-1.73-1.05-1.42 0-2.24 1-2.24 2.52 0 1.6.75 2.56 2.2 2.56.94 0 1.5-.5 1.77-1.03h.05v.72c0 1.17-.42 1.67-1.45 1.67-.93 0-1.3-.34-1.41-.89L.8.5c.12.96.87 1.54 2.36 1.54zM3.06-.8c-.98 0-1.48-.57-1.48-1.82 0-1.13.5-1.75 1.48-1.75 1.06 0 1.58.76 1.58 1.75 0 .95-.56 1.82-1.58 1.82zm0 0"/></symbol><symbol overflow="visible" id="21bd2d21D"><path d="M5.08-5.16c-.94 0-1.58.43-1.9 1.3h-.09l-.07-1.16H1.05v.77h1.1v3.48H.96V0h3.96v-.77H3.1v-1.46c0-1.36.6-2.05 1.83-2.05.4 0 .76.08 1.1.17l.15-.87c-.33-.11-.7-.18-1.11-.18zm0 0"/></symbol><symbol overflow="visible" id="21bd2d21E"><path d="M2.83.14c.94 0 1.5-.39 1.81-.95h.08l.1.81h.76v-3.38c0-1.23-.69-1.8-2.13-1.8-1.43 0-2.03.65-2.18 1.6l.93.1c.11-.6.44-.93 1.22-.93.85 0 1.22.32 1.22 1.04v.34l-1.81.2C1.6-2.7 1.1-2.17 1.1-1.28c0 .92.64 1.42 1.72 1.42zm.25-.77c-.67 0-1.02-.28-1.02-.74 0-.44.28-.72 1-.82l1.58-.19v.41c0 .8-.6 1.34-1.56 1.34zm0 0"/></symbol><symbol overflow="visible" id="21bd2d21F"><path d="M2.06 1.9V-.84h.05c.28.58.8.97 1.77.97 1.5 0 2.2-.98 2.2-2.66 0-1.65-.7-2.64-2.19-2.64-.97 0-1.5.44-1.78 1.05h-.08l-.1-.9H1.1v6.9zm1.5-2.56c-1.06 0-1.53-.8-1.53-1.86 0-1.04.47-1.84 1.53-1.84 1.11 0 1.53.61 1.53 1.84 0 1.27-.42 1.86-1.53 1.86zm0 0"/></symbol><symbol overflow="visible" id="21bd2d21G"><path d="M2.16 0v-2.69c0-.98.6-1.6 1.46-1.6.74 0 1.07.4 1.07 1.2V0h.95v-3.31c0-1.17-.56-1.85-1.67-1.85-.9 0-1.44.46-1.75 1.08h-.06v-3.06H1.2V0zm0 0"/></symbol><symbol overflow="visible" id="21bd2d21H"><path d="M3.42-.86h-.08L1.77-5.02H.8L2.73 0h.41c-.33.95-.72 1.27-1.45 1.27-.22 0-.49-.04-.69-.08l-.1.73c.2.06.58.11.87.11 1.2 0 1.7-.7 2.21-2.03l1.94-5.02H5zm0 0"/></symbol><symbol overflow="visible" id="21bd2d21I"><path d="M5.95-6.77H1.1V0h.99v-2.92H5.3v-.77H2.08v-2.26h3.87zm0 0"/></symbol><symbol overflow="visible" id="21bd2d21J"><path d="M2.73.14c.9 0 1.43-.45 1.74-1.08h.06l.13.94h.8v-5.02h-.94v2.7c0 .98-.57 1.62-1.46 1.62-.75 0-1.1-.4-1.1-1.22v-3.1h-.93v3.32c0 1.17.55 1.84 1.7 1.84zm0 0"/></symbol><symbol overflow="visible" id="21bd2d21K"><path d="M6.17 0L3.98-6.77h-1.3L.5 0h.97l.44-1.47h2.78L5.16 0zM3.28-5.94h.08l1.1 3.74H2.15zm0 0"/></symbol><symbol overflow="visible" id="21bd2d21L"><path d="M3.92-7.14H1.36v.76h1.6v5.61H1.15V0H5.7v-.77H3.92zm0 0"/></symbol><symbol overflow="visible" id="21bd2d21M"><path d="M2.16 0v-2.67c0-.99.59-1.63 1.46-1.63.74 0 1.07.38 1.07 1.22V0h.95v-3.31c0-1.2-.56-1.85-1.67-1.85-.92 0-1.49.46-1.77 1.08h-.06l-.12-.94H1.2V0zm0 0"/></symbol><symbol overflow="visible" id="21bd2d21N"><path d="M3.9 0l2-5.02h-.96L3.4-.94h-.07L1.8-5.02H.77L2.78 0zm0 0"/></symbol><symbol overflow="visible" id="21bd2d21O"><path d="M4.63-6.5c.45 0 .98.08 1.39.2l.2-.72a5.3 5.3 0 00-1.64-.26c-1.52 0-2.16.56-2.16 1.87v.4H.9v.76h1.53V0h.94v-4.25h2.53v-.77H3.36v-.3c0-.84.33-1.18 1.27-1.18zm0 0"/></symbol><symbol overflow="visible" id="21bd2d21P"><path d="M1.63 0v-2.9c0-.8.15-1.4.71-1.4.41 0 .55.3.55.88V0h.95v-2.9c0-.8.18-1.4.72-1.4.4 0 .57.3.57.88V0h.95v-3.63c0-.92-.28-1.53-1.11-1.53-.63 0-.95.41-1.1.9h-.06c-.1-.52-.44-.9-1.08-.9-.6 0-.93.41-1.06.9H1.6l-.23-.76H.67V0zm0 0"/></symbol><symbol overflow="visible" id="21bd2d21Q"><path d="M3.38-5.9c.12-.5.42-1.04.67-1.41l-.63-.22a4.28 4.28 0 00-1.01 2.39c0 .66.3 1 .9 1 .6 0 .9-.33.9-.9 0-.57-.32-.83-.83-.85zm0 0"/></symbol><symbol overflow="visible" id="21bd2d21R"><path d="M3.3-7.53c-.55 0-.85.3-.85.84 0 .55.36.8.83.8h.03a5.1 5.1 0 01-.69 1.47l.52.23a4.29 4.29 0 001.02-2.4c0-.63-.33-.94-.86-.94zm0 0"/></symbol><symbol overflow="visible" id="21bd2d21S"><path d="M1.45-2.95c0 2.56 1.08 4.37 3.67 4.84l.11-.67C3.28.86 2.43-.75 2.43-2.95s.85-3.82 2.8-4.16l-.1-.69c-2.6.49-3.68 2.3-3.68 4.85zm0 0"/></symbol><symbol overflow="visible" id="21bd2d21T"><path d="M3.36.16c1.4 0 2.2-.6 2.2-1.57 0-.89-.54-1.22-1.47-1.39L3-3c-.67-.14-.86-.33-.86-.73 0-.5.4-.74 1.17-.74.83 0 1.19.27 1.27.8l.9-.05c-.12-1-.8-1.47-2.17-1.47-1.34 0-2.1.53-2.1 1.5 0 .81.45 1.22 1.52 1.44l1.04.2c.56.11.87.24.87.72 0 .52-.45.78-1.28.78-.95 0-1.36-.28-1.42-.87l-.9.06C1.07-.36 1.8.16 3.35.16zm0 0"/></symbol><symbol overflow="visible" id="21bd2d21U"><path d="M3.33.14c1.65 0 2.6-1.1 2.6-3.52S4.99-6.9 3.34-6.9C1.67-6.9.72-5.8.72-3.37c0 2.4.95 3.51 2.6 3.51zm0-.84c-1.13 0-1.6-.85-1.6-2.67 0-1.86.47-2.7 1.6-2.7 1.12 0 1.6.84 1.6 2.7 0 1.82-.48 2.67-1.6 2.67zM3.3-2.64c.38 0 .56-.28.56-.72 0-.44-.18-.7-.56-.7-.39 0-.56.26-.56.7 0 .44.17.72.56.72zm0 0"/></symbol><symbol overflow="visible" id="21bd2d21V"><path d="M3.25.14c1.58 0 2.53-.69 2.53-1.95 0-1.19-.92-1.56-1.6-1.61v-.05A1.6 1.6 0 005.6-5.12c0-1.13-.87-1.79-2.3-1.79-1.62 0-2.32.82-2.45 1.88l.97.06c.13-.69.52-1.1 1.47-1.1.86 0 1.35.32 1.35 1.05 0 .86-.6 1.2-1.66 1.2h-.49v.79h.54c1.12 0 1.78.25 1.78 1.14 0 .78-.46 1.22-1.55 1.22-1.06 0-1.48-.4-1.63-1.1l-.98.07C.75-.56 1.56.14 3.25.14zm0 0"/></symbol><symbol overflow="visible" id="21bd2d21W"><path d="M1.45-7.1c1.96.33 2.8 1.94 2.8 4.15 0 2.2-.84 3.8-2.8 4.17l.11.67c2.58-.47 3.67-2.28 3.67-4.84 0-2.55-1.09-4.36-3.67-4.85zm0 0"/></symbol></defs><g fill="#515151"><use xlink:href="#21bd2d21a" x="32.28" y="152"/><use xlink:href="#21bd2d21b" x="67.8" y="152"/><use xlink:href="#21bd2d21c" x="86.1" y="152"/></g><use xlink:href="#21bd2d21d" x="116.88" y="152" fill="#fff"/><g fill="#515151"><use xlink:href="#21bd2d21e" x="149.1" y="152"/><use xlink:href="#21bd2d21f" x="174.96" y="152"/><use xlink:href="#21bd2d21g" x="204.18" y="152"/><use xlink:href="#21bd2d21h" x="237.78" y="152"/></g><g fill="#515151"><use xlink:href="#21bd2d21i" x="271.14" y="152"/><use xlink:href="#21bd2d21j" x="303.24" y="152"/></g><g fill="#515151"><use xlink:href="#21bd2d21k" x="315.84" y="152"/><use xlink:href="#21bd2d21l" x="349.92" y="152"/><use xlink:href="#21bd2d21m" x="367.08" y="152"/></g><use xlink:href="#21bd2d21n" x="394.8" y="152" fill="#fff"/><use xlink:href="#21bd2d21o" x="424.32" y="152" fill="#515151"/><g fill="#515151"><use xlink:href="#21bd2d21p" x="446.76" y="152"/><use xlink:href="#21bd2d21q" x="477.42" y="152"/><use xlink:href="#21bd2d21r" x="507.54" y="152"/></g><use xlink:href="#21bd2d21s" x="538.62" y="152" fill="#515151"/><g fill="#fff"><use xlink:href="#21bd2d21t" x="216.6667" y="252"/><use xlink:href="#21bd2d21u" x="223.3337" y="252"/><use xlink:href="#21bd2d21v" x="230.0007" y="252"/><use xlink:href="#21bd2d21w" x="236.6677" y="252"/><use xlink:href="#21bd2d21x" x="243.3347" y="252"/><use xlink:href="#21bd2d21y" x="250.0017" y="252"/><use xlink:href="#21bd2d21z" x="256.6687" y="252"/><use xlink:href="#21bd2d21A" x="263.3357" y="252"/><use xlink:href="#21bd2d21B" x="270.0027" y="252"/><use xlink:href="#21bd2d21C" x="276.6697" y="252"/><use xlink:href="#21bd2d21D" x="283.3367" y="252"/><use xlink:href="#21bd2d21E" x="290.0037" y="252"/><use xlink:href="#21bd2d21F" x="296.6707" y="252"/><use xlink:href="#21bd2d21G" x="303.3377" y="252"/><use xlink:href="#21bd2d21H" x="310.0047" y="252"/><use xlink:href="#21bd2d21y" x="316.6717" y="252"/><use xlink:href="#21bd2d21z" x="323.3387" y="252"/><use xlink:href="#21bd2d21A" x="330.0057" y="252"/><use xlink:href="#21bd2d21B" x="336.6727" y="252"/><use xlink:href="#21bd2d21C" x="343.3397" y="252"/><use xlink:href="#21bd2d21D" x="350.0067" y="252"/><use xlink:href="#21bd2d21E" x="356.6737" y="252"/><use xlink:href="#21bd2d21F" x="363.3407" y="252"/><use xlink:href="#21bd2d21G" x="370.0077" y="252"/><use xlink:href="#21bd2d21H" x="376.6747" y="252"/></g><g fill="#fff"><use xlink:href="#21bd2d21I" x="170" y="266"/><use xlink:href="#21bd2d21u" x="176.667" y="266"/><use xlink:href="#21bd2d21E" x="183.334" y="266"/><use xlink:href="#21bd2d21w" x="190.001" y="266"/><use xlink:href="#21bd2d21J" x="196.668" y="266"/><use xlink:href="#21bd2d21D" x="203.335" y="266"/><use xlink:href="#21bd2d21u" x="210.002" y="266"/><use xlink:href="#21bd2d21x" x="216.669" y="266"/><use xlink:href="#21bd2d21y" x="223.336" y="266"/><use xlink:href="#21bd2d21K" x="230.003" y="266"/><use xlink:href="#21bd2d21L" x="236.67" y="266"/><use xlink:href="#21bd2d21w" x="243.337" y="266"/><use xlink:href="#21bd2d21u" x="250.004" y="266"/><use xlink:href="#21bd2d21D" x="256.671" y="266"/><use xlink:href="#21bd2d21M" x="263.338" y="266"/><use xlink:href="#21bd2d21E" x="270.005" y="266"/><use xlink:href="#21bd2d21w" x="276.672" y="266"/><use xlink:href="#21bd2d21A" x="283.339" y="266"/><use xlink:href="#21bd2d21N" x="290.006" y="266"/><use xlink:href="#21bd2d21u" x="296.673" y="266"/><use xlink:href="#21bd2d21y" x="303.34" y="266"/><use xlink:href="#21bd2d21O" x="310.007" y="266"/><use xlink:href="#21bd2d21B" x="316.674" y="266"/><use xlink:href="#21bd2d21D" x="323.341" y="266"/><use xlink:href="#21bd2d21P" x="330.008" y="266"/><use xlink:href="#21bd2d21y" x="336.675" y="266"/><use xlink:href="#21bd2d21B" x="343.342" y="266"/><use xlink:href="#21bd2d21O" x="350.009" y="266"/><use xlink:href="#21bd2d21y" x="356.676" y="266"/><use xlink:href="#21bd2d21Q" x="363.343" y="266"/><use xlink:href="#21bd2d21C" x="370.01" y="266"/><use xlink:href="#21bd2d21R" x="376.677" y="266"/><use xlink:href="#21bd2d21y" x="383.344" y="266"/><use xlink:href="#21bd2d21S" x="390.011" y="266"/><use xlink:href="#21bd2d21T" x="396.678" y="266"/><use xlink:href="#21bd2d21T" x="403.345" y="266"/><use xlink:href="#21bd2d21U" x="410.012" y="266"/><use xlink:href="#21bd2d21V" x="416.679" y="266"/><use xlink:href="#21bd2d21W" x="423.346" y="266"/></g></svg>