<?xml version='1.0' encoding='UTF-8'?>
<svg xmlns="http://www.w3.org/2000/svg" xmlns:xlink="http://www.w3.org/1999/xlink" width="600px" height="300px" viewBox="0 0 600 300" x="0px" y="0px" enable-background="new 0 0 600 300"><defs><symbol overflow="visible" id="6bfd5923a"><path d="M21.06.9c4.63 0 8.82-.9 12.36-2.04 0-3.24-.23-6.84-.9-10.38a5.09 5.09 0 00-3.18.24 56.14 56.14 0 01-.84 7.33c-1.44.3-3.84.53-5.81.53-10.69 0-14.53-8.7-14.53-18.53 0-6.32 2.64-10.63 4.86-12.78 1.39-1.15 5.7-2.05 7.98-2.05 2.45 0 5.1.12 6.72.36.48 2.15.78 4.33.9 6.6.79.41 1.74.48 3.07.24.95-3.19 1.43-6.6 1.37-9.9a33.11 33.11 0 00-10.98-1.61C9.48-41.1 2.7-29.81 2.7-19.37 2.7-8.16 8.7.9 21.06.9zm0 0"/></symbol><symbol overflow="visible" id="6bfd5923b"><path d="M2.4.06c2.58 0 4.97-.12 7.62-.12h6.9c4.2 0 10.38 0 14.1.12l.48-.48c.48-3.53.66-7.02.66-10.56a5.8 5.8 0 00-3.18-.24 74.57 74.57 0 01-2.17 7.31h-14.1v-15l12.2.25c.36-1.07.53-2.34.59-3.71l-.48-.49-12.3.23V-36.3h13.37c.55 2.1.85 4.38.97 6.6a4.8 4.8 0 003.17 0c.49-3.36.68-6.72.55-10.08l-.48-.49c-3.72.13-9.9.13-14.1.13h-6.18c-2.64 0-5.04-.13-7.61-.13a8.14 8.14 0 00-.49 2.9c1.74.17 3.49.59 5.22 1.14.17 2.21.3 4.73.3 8.28v20.32c0 1.27-.07 2.54-.3 3.68-1.73.53-3.48.95-5.22 1.14 0 .95.13 1.9.49 2.87zm0 0"/></symbol><symbol overflow="visible" id="6bfd5923c"><path d="M2.4.06c2.58 0 4.97-.12 7.62-.12h6.9c4.2 0 10.38 0 14.1.12l.48-.48c.48-3.78.66-7.5.66-11.28a5.66 5.66 0 00-3.18-.24 90.6 90.6 0 01-2.17 8.03h-14.1v-24.04c0-3.55.07-6.07.24-8.28 2.24-.2 4.27-.61 6.07-1.15a6.61 6.61 0 00-.43-2.89c-1.8.13-5.8.13-7.9.13-2.9 0-5.47-.13-8.28-.13a8.14 8.14 0 00-.49 2.9c1.74.17 3.49.59 5.22 1.14.17 2.21.3 4.73.3 8.28v20.32c0 1.27-.07 2.54-.3 3.68-1.73.53-3.48.95-5.22 1.14 0 .95.13 1.9.49 2.87zm0 0"/></symbol><symbol overflow="visible" id="6bfd5923d"><path d="M-10.44-21.66c0 1.8 1.99 3.24 3.6 3.24 2.34 0 4.14-2.45 4.14-4.63 0-1.86-1.8-3.3-3.6-3.3-2.28 0-4.14 2.54-4.14 4.7zm0 0"/></symbol><symbol overflow="visible" id="6bfd5923e"><path d="M.78.06c2.58 0 4.92-.12 6.9-.12 1.45 0 4.91 0 6.66.12.3-.9.43-1.86.36-2.87L9.42-3.95l3.17-9.55H17c2.8 0 6.3.06 9.46.23l3.32 9.32-5.64 1.14c0 .95.1 1.9.46 2.87 2.6 0 4.99-.12 7.63-.12 1.98 0 5.7 0 7.44.12.3-.9.42-1.86.36-2.87a15.93 15.93 0 00-4.44-1.14L22.68-40.5c-1.98 0-3.73.23-5.27.84L5.09-3.96C3.5-3.41 1.92-3 .3-2.8c0 .95.13 1.9.5 2.87zm19.14-35.4h.06l.3 4.39 4.86 13.8H13.86zm0 0"/></symbol><symbol overflow="visible" id="6bfd5923g"><path d="M14.64.84c3.55 0 8.28-2.1 10.98-4.07a3.07 3.07 0 00-1.03-2.29c-3.71 1.44-6.3 2.04-8.93 2.04-6.3 0-8.16-6.83-8.16-11.82 0-3.54 1.31-6.65 3-8.4.84-.72 3.36-1.14 4.86-1.14 1.8 0 3.48.12 4.5.3.3 1.68.42 3.3.48 4.98 1.02.6 2.16.65 3.54.25a23.08 23.08 0 001.26-7.82c-2.28-1.01-5.45-1.73-9.55-1.73-8.09 0-13.18 8.05-13.18 15.23C2.4-5.52 6 .85 14.64.85zm0 0"/></symbol><symbol overflow="visible" id="6bfd5923h"><path d="M14.58.84c3.9 0 8.83-2.46 11.58-4.32-.07-.9-.3-1.61-1.02-2.16-3.72 1.44-6.9 2.16-9.55 2.16-5.87 0-7.86-5.88-8.15-10.74h6.97c4.5 0 8.39.06 10.86.13l.46-.49c.2-.78.32-2.34.32-3.72 0-5.22-2.4-10.75-10.7-10.75-7.62 0-12.94 7.93-12.94 15.36C2.4-5.52 6 .84 14.58.84zM10.44-24c.72-.72 2.83-1.14 4.08-1.14 5.34 0 6.25 3.72 6.25 7.56-1.5.13-4.14.24-7.33.24H7.56c.42-2.82 1.5-5.22 2.88-6.66zm0 0"/></symbol><symbol overflow="visible" id="6bfd5923i"><path d="M1.5.06c2.28 0 4.8-.12 7.27-.12 1.43 0 5.09.06 6.71.12.24-.54.36-1.8.36-2.7-1.07-.48-2.89-.9-4.5-1.08a50.93 50.93 0 01-.18-4.5V-28.2c0-6.6.06-11.28.25-17.28l-.49-.47c-3.3.3-7.37 1.18-9.78 2.1-.12.77 0 1.55.24 2.33 1.56.18 3.18.54 4.75.96v33.54c0 1.2-.07 2.04-.25 3.36-1.2.43-3.11.85-4.8 1.02 0 .95.19 2.22.42 2.7zm0 0"/></symbol><symbol overflow="visible" id="6bfd5923j"><path d="M-1.73-22.02c0 1.8 1.96 3.24 3.59 3.24C4.2-18.78 6-21.23 6-23.41c0-1.86-1.8-3.3-3.6-3.3-2.27 0-4.13 2.52-4.13 4.7zm0 0"/></symbol><symbol overflow="visible" id="6bfd5923k"><path d="M8.88.84c2.7 0 6.54-1.8 9.9-4.8.6 2.82 1.74 4.8 2.94 4.8 2.1 0 4.98-1.43 6.84-3.06 0-.9-.36-1.69-.9-2.22-1.14.36-2.52.78-3.85.96-.23-1.32-.3-3.11-.3-4.74V-19.5c0-8.16-5.93-9.48-9.46-9.48-4.14 0-7.82 1.32-10.7 3.06 0 2.1.56 4.56 1.45 6.42 1.14.36 2.34.13 3.48-.42 0-1.67.06-3.3.42-4.86 1.57-.36 3.18-.49 4.74-.49 4.08 0 5.04 3.07 5.04 7.7C10.8-16.2 2.1-13.03 2.1-6.3 2.1-1.86 4.92.84 8.88.84zM7.44-7.8c0-1.26.48-2.89 1.2-3.6.72-.72 5.1-1.97 9.84-2.52v7.08c-1.86 1.68-4.75 3.12-6.54 3.12-3.17 0-4.5-1.86-4.5-4.08zm0 0"/></symbol><symbol overflow="visible" id="6bfd5923l"><path d="M3.83 0v-5.95H6.2v-.82H.45v.82h2.4V0zm0 0"/></symbol><symbol overflow="visible" id="6bfd5923m"><path d="M5.75-2.23v-.43c0-1.6-.9-2.51-2.42-2.51S.87-4.16.87-2.48c0 1.71.91 2.62 2.5 2.62 1.43 0 2.07-.56 2.29-1.52l-.9-.09c-.18.61-.59.9-1.35.9-.94 0-1.52-.54-1.58-1.66zm-2.4-2.2c.93 0 1.43.5 1.48 1.55H1.84c.08-1.07.6-1.56 1.5-1.56zm0 0"/></symbol><symbol overflow="visible" id="6bfd5923n"><path d="M1.83 0l1.42-2h.06l1.46 2H5.8L4-2.53l1.78-2.49H4.8L3.42-3.08h-.08l-1.4-1.94H.89l1.78 2.49L.84 0zm0 0"/></symbol><symbol overflow="visible" id="6bfd5923o"><path d="M5.52-4.25v-.77H3.17v-1.56h-.81l-.14 1.56H.75v.77h1.47v2.4c0 1.3.48 1.94 1.84 1.94C4.6.1 5.14 0 5.55-.14L5.4-.91c-.32.13-.72.2-1.13.2-.8 0-1.1-.37-1.1-1.23v-2.31zm0 0"/></symbol><symbol overflow="visible" id="6bfd5923p"><path d="M3.33-3.42c.47 0 .8-.27.8-.8 0-.51-.33-.8-.8-.8-.47 0-.8.29-.8.8 0 .53.33.8.8.8zm0 3.5c.47 0 .8-.27.8-.78 0-.53-.33-.82-.8-.82-.47 0-.8.29-.8.82 0 .51.33.78.8.78zm0 0"/></symbol><symbol overflow="visible" id="6bfd5923r"><path d="M3.42.14C5.1.14 5.9-.69 6.11-2.17l-.95-.1C4.96-1.19 4.5-.69 3.44-.69c-1.27 0-1.81-.94-1.81-2.69s.54-2.7 1.8-2.7c1.09 0 1.5.49 1.73 1.58l.93-.1c-.21-1.46-.95-2.3-2.62-2.3C1.53-6.9.62-5.6.62-3.38c0 2.2.91 3.51 2.8 3.51zm0 0"/></symbol><symbol overflow="visible" id="6bfd5923s"><path d="M5.92-6.77H1.1V0h4.83v-.8H2.06v-2.26h3.22v-.75H2.06v-2.16h3.86zm0 0"/></symbol><symbol overflow="visible" id="6bfd5923t"><path d="M2.08-6.77h-.99V0h4.79v-.81h-3.8zm0 0"/></symbol><symbol overflow="visible" id="6bfd5923u"><path d="M3.33-1.98c.51 0 .83-.27.83-.8 0-.56-.32-.83-.83-.83-.52 0-.81.27-.81.83 0 .53.3.8.8.8zm0 0"/></symbol><symbol overflow="visible" id="6bfd5923v"><path d="M6.17 0L3.98-6.77h-1.3L.5 0h.97l.44-1.47h2.78L5.16 0zM3.28-5.94h.08l1.1 3.74H2.15zm0 0"/></symbol><symbol overflow="visible" id="6bfd5923w"><path d="M3.34.14c1.43 0 2.13-.66 2.25-1.78l-.89-.1c-.1.7-.5 1.08-1.34 1.08-1.03 0-1.52-.64-1.52-1.84 0-1.23.47-1.86 1.52-1.86.84 0 1.23.36 1.34 1.08l.9-.1c-.13-1.09-.82-1.78-2.26-1.78-1.56 0-2.46.97-2.46 2.66 0 1.66.9 2.64 2.46 2.64zm0 0"/></symbol><symbol overflow="visible" id="6bfd5923x"><path d="M3.92-7.14H1.36v.76h1.6v5.61H1.15V0H5.7v-.77H3.92zm0 0"/></symbol><symbol overflow="visible" id="6bfd5923y"><path d="M2.83.14c.94 0 1.5-.39 1.81-.95h.08l.1.81h.76v-3.38c0-1.23-.69-1.8-2.13-1.8-1.43 0-2.03.65-2.18 1.6l.93.1c.11-.6.44-.93 1.22-.93.85 0 1.22.32 1.22 1.04v.34l-1.81.2C1.6-2.7 1.1-2.17 1.1-1.28c0 .92.64 1.42 1.72 1.42zm.25-.77c-.67 0-1.02-.28-1.02-.74 0-.44.28-.72 1-.82l1.58-.19v.41c0 .8-.6 1.34-1.56 1.34zm0 0"/></symbol><symbol overflow="visible" id="6bfd5923z"><path d="M5.95-6.77H1.1V0h.99v-2.92H5.3v-.77H2.08v-2.26h3.87zm0 0"/></symbol><symbol overflow="visible" id="6bfd5923A"><path d="M2.73.14c.9 0 1.43-.45 1.74-1.08h.06l.13.94h.8v-5.02h-.94v2.7c0 .98-.57 1.62-1.46 1.62-.75 0-1.1-.4-1.1-1.22v-3.1h-.93v3.32c0 1.17.55 1.84 1.7 1.84zm0 0"/></symbol><symbol overflow="visible" id="6bfd5923B"><path d="M5.08-5.16c-.94 0-1.58.43-1.9 1.3h-.09l-.07-1.16H1.05v.77h1.1v3.48H.96V0h3.96v-.77H3.1v-1.46c0-1.36.6-2.05 1.83-2.05.4 0 .76.08 1.1.17l.15-.87c-.33-.11-.7-.18-1.11-.18zm0 0"/></symbol><symbol overflow="visible" id="6bfd5923C"><path d="M2.16 0v-2.67c0-.99.59-1.63 1.46-1.63.74 0 1.07.38 1.07 1.22V0h.95v-3.31c0-1.2-.56-1.85-1.67-1.85-.92 0-1.49.46-1.77 1.08h-.06l-.12-.94H1.2V0zm0 0"/></symbol><symbol overflow="visible" id="6bfd5923D"><path d="M1.45-2.95c0 2.56 1.08 4.37 3.67 4.84l.11-.67C3.28.86 2.43-.75 2.43-2.95s.85-3.82 2.8-4.16l-.1-.69c-2.6.49-3.68 2.3-3.68 4.85zm0 0"/></symbol><symbol overflow="visible" id="6bfd5923E"><path d="M3.36.16c1.4 0 2.2-.6 2.2-1.57 0-.89-.54-1.22-1.47-1.39L3-3c-.67-.14-.86-.33-.86-.73 0-.5.4-.74 1.17-.74.83 0 1.19.27 1.27.8l.9-.05c-.12-1-.8-1.47-2.17-1.47-1.34 0-2.1.53-2.1 1.5 0 .81.45 1.22 1.52 1.44l1.04.2c.56.11.87.24.87.72 0 .52-.45.78-1.28.78-.95 0-1.36-.28-1.42-.87l-.9.06C1.07-.36 1.8.16 3.35.16zm0 0"/></symbol><symbol overflow="visible" id="6bfd5923F"><path d="M3.16 2.03c1.67 0 2.4-.86 2.4-2.51v-4.54h-.81l-.13.91h-.06c-.26-.58-.8-1.05-1.73-1.05-1.42 0-2.24 1-2.24 2.52 0 1.6.75 2.56 2.2 2.56.94 0 1.5-.5 1.77-1.03h.05v.72c0 1.17-.42 1.67-1.45 1.67-.93 0-1.3-.34-1.41-.89L.8.5c.12.96.87 1.54 2.36 1.54zM3.06-.8c-.98 0-1.48-.57-1.48-1.82 0-1.13.5-1.75 1.48-1.75 1.06 0 1.58.76 1.58 1.75 0 .95-.56 1.82-1.58 1.82zm0 0"/></symbol><symbol overflow="visible" id="6bfd5923G"><path d="M1.45-7.1c1.96.33 2.8 1.94 2.8 4.15 0 2.2-.84 3.8-2.8 4.17l.11.67c2.58-.47 3.67-2.28 3.67-4.84 0-2.55-1.09-4.36-3.67-4.85zm0 0"/></symbol></defs><g fill="#515151"><use xlink:href="#6bfd5923a" x="142.65" y="152"/><use xlink:href="#6bfd5923b" x="179.01" y="152"/></g><use xlink:href="#6bfd5923c" x="213.99" y="152" fill="#fff"/><use xlink:href="#6bfd5923d" x="247.05" y="152" fill="#fff"/><use xlink:href="#6bfd5923c" x="247.05" y="152" fill="#fff"/><use xlink:href="#6bfd5923e" x="280.11" y="152" fill="#515151"/><g fill="#515151"><use xlink:href="#6bfd5923f" x="320.13" y="152"/><use xlink:href="#6bfd5923g" x="332.73" y="152"/><use xlink:href="#6bfd5923h" x="359.97" y="152"/></g><use xlink:href="#6bfd5923i" x="388.77" y="152" fill="#fff"/><use xlink:href="#6bfd5923j" x="406.05" y="152" fill="#fff"/><use xlink:href="#6bfd5923i" x="410.85" y="152" fill="#fff"/><use xlink:href="#6bfd5923k" x="428.13" y="152" fill="#515151"/><g fill="#fff"><use xlink:href="#6bfd5923l" x="236.6667" y="252"/><use xlink:href="#6bfd5923m" x="243.3337" y="252"/><use xlink:href="#6bfd5923n" x="250.0007" y="252"/><use xlink:href="#6bfd5923o" x="256.6677" y="252"/><use xlink:href="#6bfd5923p" x="263.3347" y="252"/><use xlink:href="#6bfd5923q" x="270.0017" y="252"/><use xlink:href="#6bfd5923r" x="276.6687" y="252"/><use xlink:href="#6bfd5923s" x="283.3357" y="252"/><use xlink:href="#6bfd5923t" x="290.0027" y="252"/><use xlink:href="#6bfd5923u" x="296.6697" y="252"/><use xlink:href="#6bfd5923t" x="303.3367" y="252"/><use xlink:href="#6bfd5923v" x="310.0037" y="252"/><use xlink:href="#6bfd5923q" x="316.6707" y="252"/><use xlink:href="#6bfd5923w" x="323.3377" y="252"/><use xlink:href="#6bfd5923m" x="330.0047" y="252"/><use xlink:href="#6bfd5923x" x="336.6717" y="252"/><use xlink:href="#6bfd5923u" x="343.3387" y="252"/><use xlink:href="#6bfd5923x" x="350.0057" y="252"/><use xlink:href="#6bfd5923y" x="356.6727" y="252"/></g><g fill="#fff"><use xlink:href="#6bfd5923z" x="196.6667" y="266"/><use xlink:href="#6bfd5923m" x="203.3337" y="266"/><use xlink:href="#6bfd5923y" x="210.0007" y="266"/><use xlink:href="#6bfd5923o" x="216.6677" y="266"/><use xlink:href="#6bfd5923A" x="223.3347" y="266"/><use xlink:href="#6bfd5923B" x="230.0017" y="266"/><use xlink:href="#6bfd5923m" x="236.6687" y="266"/><use xlink:href="#6bfd5923p" x="243.3357" y="266"/><use xlink:href="#6bfd5923q" x="250.0027" y="266"/><use xlink:href="#6bfd5923r" x="256.6697" y="266"/><use xlink:href="#6bfd5923y" x="263.3367" y="266"/><use xlink:href="#6bfd5923o" x="270.0037" y="266"/><use xlink:href="#6bfd5923y" x="276.6707" y="266"/><use xlink:href="#6bfd5923x" x="283.3377" y="266"/><use xlink:href="#6bfd5923y" x="290.0047" y="266"/><use xlink:href="#6bfd5923C" x="296.6717" y="266"/><use xlink:href="#6bfd5923q" x="303.3387" y="266"/><use xlink:href="#6bfd5923D" x="310.0057" y="266"/><use xlink:href="#6bfd5923E" x="316.6727" y="266"/><use xlink:href="#6bfd5923m" x="323.3397" y="266"/><use xlink:href="#6bfd5923o" x="330.0067" y="266"/><use xlink:href="#6bfd5923q" x="336.6737" y="266"/><use xlink:href="#6bfd5923x" x="343.3407" y="266"/><use xlink:href="#6bfd5923y" x="350.0077" y="266"/><use xlink:href="#6bfd5923C" x="356.6747" y="266"/><use xlink:href="#6bfd5923F" x="363.3417" y="266"/><use xlink:href="#6bfd5923A" x="370.0087" y="266"/><use xlink:href="#6bfd5923y" x="376.6757" y="266"/><use xlink:href="#6bfd5923F" x="383.3427" y="266"/><use xlink:href="#6bfd5923m" x="390.0097" y="266"/><use xlink:href="#6bfd5923G" x="396.6767" y="266"/></g></svg>