<?xml version='1.0' encoding='UTF-8'?>
<svg xmlns="http://www.w3.org/2000/svg" xmlns:xlink="http://www.w3.org/1999/xlink" width="600px" height="300px" viewBox="0 0 600 300" x="0px" y="0px" enable-background="new 0 0 600 300"><defs><symbol overflow="visible" id="eb29eafea"><path d="M9.36.06c3 0 5.7-.12 8.77-.12 2.28 0 6.59 0 8.57.12.36-.9.49-1.86.43-2.87a28.63 28.63 0 00-6.07-1.14 42.4 42.4 0 01-.25-4.99V-36.3h9.9a42 42 0 01.98 7.32c.89.36 1.9.36 3.17 0 .48-3.6.66-7.2.55-10.8l-.49-.49c-3.72.13-9.9.13-14.1.13h-5.27c-4.2 0-10.4 0-14.11-.13l-.49.49c-.1 3.72.07 7.33.55 10.8 1.08.42 2.1.36 3.19 0 .1-2.4.4-4.93.95-7.32h9.9v28.67c0 1.27-.06 2.54-.3 3.68-2.16.53-4.26.95-6.43 1.14 0 .95.13 1.9.55 2.87zm0 0"/></symbol><symbol overflow="visible" id="eb29eafeb"><path d="M15.06.84c8.4 0 13.31-8.15 13.31-15.42 0-8.22-3.95-14.47-12.65-14.47-8.4 0-13.31 8.18-13.31 15.43C2.4-5.22 6.55.84 15.06.84zm1.08-4.03c-6.42 0-8.64-7.01-8.64-12.1 0-3.62 1.31-6.79 3-8.59.72-.71 2.88-1.14 4.14-1.14 6.42 0 8.64 7.02 8.64 12.11 0 3.61-1.33 6.79-3 8.6-.72.72-2.87 1.12-4.14 1.12zm0 0"/></symbol><symbol overflow="visible" id="eb29eafec"><path d="M11.34.84c3.43 0 6.9-1.39 9.3-2.82a3.7 3.7 0 00-1.02-2.7c-2.17.77-3.84 1.26-5.93 1.26-1.92 0-2.83-2.22-2.83-6.6v-14.53h9.12c.18-1.18.24-2.32.24-3.65l-9.36-.11v-7.92a6.94 6.94 0 00-3.06-.36L5.8-28.44c-1.54.13-3.17.36-4.6.72-.13.78-.13 1.63.1 2.4 1.56.18 3.38.54 4.5.77v16.82c0 5.51 1.46 8.57 5.53 8.57zm0 0"/></symbol><symbol overflow="visible" id="eb29eafed"><path d="M8.88.84c2.7 0 6.54-1.8 9.9-4.8.6 2.82 1.74 4.8 2.94 4.8 2.1 0 4.98-1.43 6.84-3.06 0-.9-.36-1.69-.9-2.22-1.14.36-2.52.78-3.85.96-.23-1.32-.3-3.11-.3-4.74V-19.5c0-8.16-5.93-9.48-9.46-9.48-4.14 0-7.82 1.32-10.7 3.06 0 2.1.56 4.56 1.45 6.42 1.14.36 2.34.13 3.48-.42 0-1.67.06-3.3.42-4.86 1.57-.36 3.18-.49 4.74-.49 4.08 0 5.04 3.07 5.04 7.7C10.8-16.2 2.1-13.03 2.1-6.3 2.1-1.86 4.92.84 8.88.84zM7.44-7.8c0-1.26.48-2.89 1.2-3.6.72-.72 5.1-1.97 9.84-2.52v7.08c-1.86 1.68-4.75 3.12-6.54 3.12-3.17 0-4.5-1.86-4.5-4.08zm0 0"/></symbol><symbol overflow="visible" id="eb29eafee"><path d="M1.5.06c2.28 0 4.8-.12 7.27-.12 1.43 0 5.09.06 6.71.12.24-.54.36-1.8.36-2.7-1.07-.48-2.89-.9-4.5-1.08a50.93 50.93 0 01-.18-4.5V-28.2c0-6.6.06-11.28.25-17.28l-.49-.47c-3.3.3-7.37 1.18-9.78 2.1-.12.77 0 1.55.24 2.33 1.56.18 3.18.54 4.75.96v33.54c0 1.2-.07 2.04-.25 3.36-1.2.43-3.11.85-4.8 1.02 0 .95.19 2.22.42 2.7zm0 0"/></symbol><symbol overflow="visible" id="eb29eafef"><path d="M4.02-24.48a4.06 4.06 0 008.1 0c0-2.1-1.8-3.72-4.03-3.72-2.21 0-4.07 1.62-4.07 3.72zm0 21.36a4.06 4.06 0 008.1 0c0-2.1-1.8-3.72-4.03-3.72-2.21 0-4.07 1.62-4.07 3.71zm0 0"/></symbol><symbol overflow="visible" id="eb29eafeh"><path d="M28.86-11.52c0-4.2-3.55-7.14-8.81-9.84v-.19c4.3-2.32 7.25-5.32 7.25-9.4 0-4.33-3.78-8.28-10.74-8.28-5.34 0-12.12 4.25-12.12 11.21 0 3.36 2.87 5.94 7.33 8.4v.12c-5.83 3-8.47 6.48-8.47 10.73 0 6.61 4.26 9.79 11.51 9.79 8.11 0 14.05-6.07 14.05-12.54zM9.48-30.12c0-1.86.79-3.24 1.68-3.9.48-.35 2.34-.96 4.26-.96 3.9 0 7.02 2.64 7.02 5.57 0 2.35-2.46 4.63-5.4 6.49-4.32-2.28-7.56-4.5-7.56-7.2zM8.22-9.84c0-3.11 2.76-6 6.97-7.93 4.67 2.41 8.58 4.75 8.58 7.99 0 1.92-.55 3.9-1.86 5.05-.61.53-3.2 1.54-5.9 1.54-3.46 0-7.8-1.6-7.8-6.65zm0 0"/></symbol><symbol overflow="visible" id="eb29eafei"><path d="M7.31-51v63.48h4.46V-51zm0 0"/></symbol><symbol overflow="visible" id="eb29eafej"><path d="M13.86.84C21.59.84 27.9-5.28 27.9-13.8c0-5.89-4.63-10.39-11.64-10.39-1.75 0-3.2.25-5.11.67v-10.62h14.57c.36-1.08.55-2.28.61-3.66l-.48-.42c-4.14 0-8.28.06-12.23.06H6.66l-.47.47v18.85l.47.48c2.7-.95 5.28-1.56 8.34-1.56a7.4 7.4 0 017.44 7.56c0 2.64-.78 5.77-2.46 7.27-.71.65-3.06 1.67-5.4 1.67-1.99 0-3.72-.13-4.99-.53a43.83 43.83 0 01-1.3-6.9 5.84 5.84 0 00-3.24.22 99.33 99.33 0 00-.61 9.49A24.99 24.99 0 0013.86.84zm0 0"/></symbol><symbol overflow="visible" id="eb29eafek"><path d="M6.72.06c3.48 0 6.78-.12 9.78-.12 2.28 0 7.31 0 9.66.12.42-.9.6-1.86.54-2.87-2.1-.49-4.56-.9-7.2-1.1-.19-1.5-.3-3.04-.3-4.73v-30l-.48-.48c-5.28.67-9.24 1.62-12.53 3.12-.25 1.02.1 1.8.65 2.45h7.08v26.17c0 1.2-.06 2.4-.3 3.47C11.05-3.36 8.59-3 6-2.8c0 .95.19 1.9.72 2.87zm0 0"/></symbol><symbol overflow="visible" id="eb29eafel"><path d="M16.02 1.02c6.6 0 13.39-5.22 13.39-13.97 0-6-4.33-10.75-10.4-10.75-3.17 0-6.17 1.07-9.65 4.32h-.13c.36-8.46 5.18-14.7 16.99-17.1a3.8 3.8 0 00-.72-2.88C8.64-37.14 3.78-26.64 3.78-15.66c0 6.9 2.88 16.68 12.24 16.68zm1.03-20.16a7.5 7.5 0 017.5 7.5c0 3.12-.9 5.7-2.6 7.27-.53.46-2.26 1.18-4.18 1.18-5.05 0-7.86-5.45-8.41-12.65 2.28-1.86 5.16-3.3 7.69-3.3zm0 0"/></symbol><symbol overflow="visible" id="eb29eafem"><path d="M3.83 0v-5.95H6.2v-.82H.45v.82h2.4V0zm0 0"/></symbol><symbol overflow="visible" id="eb29eafen"><path d="M5.75-2.23v-.43c0-1.6-.9-2.51-2.42-2.51S.87-4.16.87-2.48c0 1.71.91 2.62 2.5 2.62 1.43 0 2.07-.56 2.29-1.52l-.9-.09c-.18.61-.59.9-1.35.9-.94 0-1.52-.54-1.58-1.66zm-2.4-2.2c.93 0 1.43.5 1.48 1.55H1.84c.08-1.07.6-1.56 1.5-1.56zm0 0"/></symbol><symbol overflow="visible" id="eb29eafeo"><path d="M1.83 0l1.42-2h.06l1.46 2H5.8L4-2.53l1.78-2.49H4.8L3.42-3.08h-.08l-1.4-1.94H.89l1.78 2.49L.84 0zm0 0"/></symbol><symbol overflow="visible" id="eb29eafep"><path d="M5.52-4.25v-.77H3.17v-1.56h-.81l-.14 1.56H.75v.77h1.47v2.4c0 1.3.48 1.94 1.84 1.94C4.6.1 5.14 0 5.55-.14L5.4-.91c-.32.13-.72.2-1.13.2-.8 0-1.1-.37-1.1-1.23v-2.31zm0 0"/></symbol><symbol overflow="visible" id="eb29eafeq"><path d="M3.33-3.42c.47 0 .8-.27.8-.8 0-.51-.33-.8-.8-.8-.47 0-.8.29-.8.8 0 .53.33.8.8.8zm0 3.5c.47 0 .8-.27.8-.78 0-.53-.33-.82-.8-.82-.47 0-.8.29-.8.82 0 .51.33.78.8.78zm0 0"/></symbol><symbol overflow="visible" id="eb29eafes"><path d="M3.33.14c1.62 0 2.5-.95 2.5-2.66 0-1.68-.88-2.64-2.5-2.64-1.63 0-2.5.96-2.5 2.64 0 1.7.87 2.66 2.5 2.66zm0-.77c-1.06 0-1.52-.6-1.52-1.89 0-1.28.46-1.87 1.52-1.87 1.08 0 1.53.6 1.53 1.87 0 1.29-.45 1.9-1.53 1.9zm0 0"/></symbol><symbol overflow="visible" id="eb29eafet"><path d="M2.83.14c.94 0 1.5-.39 1.81-.95h.08l.1.81h.76v-3.38c0-1.23-.69-1.8-2.13-1.8-1.43 0-2.03.65-2.18 1.6l.93.1c.11-.6.44-.93 1.22-.93.85 0 1.22.32 1.22 1.04v.34l-1.81.2C1.6-2.7 1.1-2.17 1.1-1.28c0 .92.64 1.42 1.72 1.42zm.25-.77c-.67 0-1.02-.28-1.02-.74 0-.44.28-.72 1-.82l1.58-.19v.41c0 .8-.6 1.34-1.56 1.34zm0 0"/></symbol><symbol overflow="visible" id="eb29eafeu"><path d="M3.92-7.14H1.36v.76h1.6v5.61H1.15V0H5.7v-.77H3.92zm0 0"/></symbol><symbol overflow="visible" id="eb29eafev"><path d="M3.33.16c1.69 0 2.69-.74 2.69-1.94 0-1.05-.8-1.58-1.43-1.72v-.05c.5-.14 1.2-.58 1.2-1.56 0-1.12-.95-1.81-2.46-1.81-1.52 0-2.46.69-2.46 1.81 0 .97.68 1.4 1.18 1.56v.05c-.6.14-1.4.64-1.4 1.72 0 1.2 1 1.94 2.68 1.94zm0-4.04c-.97 0-1.49-.43-1.49-1.12 0-.78.52-1.1 1.49-1.1.95 0 1.48.32 1.48 1.1 0 .69-.53 1.13-1.48 1.13zm0 3.24c-1.1 0-1.7-.42-1.7-1.25 0-.78.6-1.2 1.7-1.2s1.7.42 1.7 1.2c0 .83-.6 1.25-1.7 1.25zm0 0"/></symbol><symbol overflow="visible" id="eb29eafew"><path d="M3.42.14c1.55 0 2.44-.84 2.44-2.33 0-1.45-.83-2.22-2.14-2.22-.75 0-1.28.27-1.67.72H2l.31-2.22h3.11v-.86H1.53l-.45 3.93h.81c.3-.36.9-.79 1.58-.79.92 0 1.44.43 1.44 1.47 0 .99-.54 1.5-1.49 1.5-.83 0-1.28-.32-1.5-1.01l-.95.1C1.07-.46 2 .13 3.42.13zm0 0"/></symbol><symbol overflow="visible" id="eb29eafex"><path d="M4.22-6.77h-.86l-2.03.7v.87c.64-.17 1.26-.38 1.89-.55v4.9H1.03V0h4.9v-.86H4.21zm0 0"/></symbol><symbol overflow="visible" id="eb29eafey"><path d="M3.42.14c1.58 0 2.49-.86 2.49-2.3 0-1.42-.86-2.17-2.22-2.17-1.03 0-1.58.5-1.9 1.02h-.04c.03-1.63.4-2.77 1.73-2.77.91 0 1.24.44 1.36.96l.97-.11c-.23-.96-.86-1.68-2.33-1.68C1.84-6.9.86-5.86.86-3.1.86-.9 1.78.14 3.42.14zm.02-.78c-.9 0-1.47-.55-1.47-1.47 0-.9.7-1.47 1.53-1.47.92 0 1.47.52 1.47 1.47 0 .97-.6 1.47-1.53 1.47zm0 0"/></symbol><symbol overflow="visible" id="eb29eafez"><path d="M5.95-6.77H1.1V0h.99v-2.92H5.3v-.77H2.08v-2.26h3.87zm0 0"/></symbol><symbol overflow="visible" id="eb29eafeA"><path d="M2.73.14c.9 0 1.43-.45 1.74-1.08h.06l.13.94h.8v-5.02h-.94v2.7c0 .98-.57 1.62-1.46 1.62-.75 0-1.1-.4-1.1-1.22v-3.1h-.93v3.32c0 1.17.55 1.84 1.7 1.84zm0 0"/></symbol><symbol overflow="visible" id="eb29eafeB"><path d="M5.08-5.16c-.94 0-1.58.43-1.9 1.3h-.09l-.07-1.16H1.05v.77h1.1v3.48H.96V0h3.96v-.77H3.1v-1.46c0-1.36.6-2.05 1.83-2.05.4 0 .76.08 1.1.17l.15-.87c-.33-.11-.7-.18-1.11-.18zm0 0"/></symbol><symbol overflow="visible" id="eb29eafeC"><path d="M3.9.14c1.48 0 2.18-.98 2.18-2.64 0-1.67-.7-2.66-2.17-2.66-.91 0-1.49.41-1.79 1h-.06v-2.98h-.95V0h.81l.11-.9h.06c.29.63.82 1.04 1.82 1.04zm-.32-.8c-1.08 0-1.55-.8-1.55-1.84 0-1.06.47-1.86 1.55-1.86 1.1 0 1.51.61 1.51 1.86S4.64-.66 3.58-.66zm0 0"/></symbol><symbol overflow="visible" id="eb29eafeD"><path d="M3.58-5.81c.42 0 .72-.22.72-.67 0-.44-.3-.68-.72-.68-.44 0-.72.24-.72.68 0 .45.28.67.72.67zm.5.8H1.52v.76h1.6v3.48h-1.8V0h4.46v-.77h-1.7zm0 0"/></symbol><symbol overflow="visible" id="eb29eafeE"><path d="M2.16 0v-2.67c0-.99.59-1.63 1.46-1.63.74 0 1.07.38 1.07 1.22V0h.95v-3.31c0-1.2-.56-1.85-1.67-1.85-.92 0-1.49.46-1.77 1.08h-.06l-.12-.94H1.2V0zm0 0"/></symbol><symbol overflow="visible" id="eb29eafeF"><path d="M3.16 2.03c1.67 0 2.4-.86 2.4-2.51v-4.54h-.81l-.13.91h-.06c-.26-.58-.8-1.05-1.73-1.05-1.42 0-2.24 1-2.24 2.52 0 1.6.75 2.56 2.2 2.56.94 0 1.5-.5 1.77-1.03h.05v.72c0 1.17-.42 1.67-1.45 1.67-.93 0-1.3-.34-1.41-.89L.8.5c.12.96.87 1.54 2.36 1.54zM3.06-.8c-.98 0-1.48-.57-1.48-1.82 0-1.13.5-1.75 1.48-1.75 1.06 0 1.58.76 1.58 1.75 0 .95-.56 1.82-1.58 1.82zm0 0"/></symbol><symbol overflow="visible" id="eb29eafeG"><path d="M1.63 0v-2.9c0-.8.15-1.4.71-1.4.41 0 .55.3.55.88V0h.95v-2.9c0-.8.18-1.4.72-1.4.4 0 .57.3.57.88V0h.95v-3.63c0-.92-.28-1.53-1.11-1.53-.63 0-.95.41-1.1.9h-.06c-.1-.52-.44-.9-1.08-.9-.6 0-.93.41-1.06.9H1.6l-.23-.76H.67V0zm0 0"/></symbol><symbol overflow="visible" id="eb29eafeH"><path d="M3.36.16c1.4 0 2.2-.6 2.2-1.57 0-.89-.54-1.22-1.47-1.39L3-3c-.67-.14-.86-.33-.86-.73 0-.5.4-.74 1.17-.74.83 0 1.19.27 1.27.8l.9-.05c-.12-1-.8-1.47-2.17-1.47-1.34 0-2.1.53-2.1 1.5 0 .81.45 1.22 1.52 1.44l1.04.2c.56.11.87.24.87.72 0 .52-.45.78-1.28.78-.95 0-1.36-.28-1.42-.87l-.9.06C1.07-.36 1.8.16 3.35.16zm0 0"/></symbol><symbol overflow="visible" id="eb29eafeI"><path d="M1.45-2.95c0 2.56 1.08 4.37 3.67 4.84l.11-.67C3.28.86 2.43-.75 2.43-2.95s.85-3.82 2.8-4.16l-.1-.69c-2.6.49-3.68 2.3-3.68 4.85zm0 0"/></symbol><symbol overflow="visible" id="eb29eafeJ"><path d="M1.45-7.1c1.96.33 2.8 1.94 2.8 4.15 0 2.2-.84 3.8-2.8 4.17l.11.67c2.58-.47 3.67-2.28 3.67-4.84 0-2.55-1.09-4.36-3.67-4.85zm0 0"/></symbol></defs><use xlink:href="#eb29eafea" x="125.25" y="152" fill="#515151"/><g fill="#515151"><use xlink:href="#eb29eafeb" x="158.49" y="152"/><use xlink:href="#eb29eafec" x="189.27" y="152"/><use xlink:href="#eb29eafed" x="210.21" y="152"/><use xlink:href="#eb29eafee" x="239.43" y="152"/><use xlink:href="#eb29eafef" x="256.71" y="152"/><use xlink:href="#eb29eafeg" x="272.91" y="152"/></g><use xlink:href="#eb29eafeh" x="285.51" y="152" fill="#fff"/><use xlink:href="#eb29eafei" x="318.51" y="152" fill="#515151"/><use xlink:href="#eb29eafej" x="337.59" y="152" fill="#fff"/><use xlink:href="#eb29eafei" x="370.59" y="152" fill="#515151"/><use xlink:href="#eb29eafek" x="389.67" y="152" fill="#fff"/><use xlink:href="#eb29eafei" x="422.67" y="152" fill="#515151"/><use xlink:href="#eb29eafel" x="441.75" y="152" fill="#fff"/><g fill="#fff"><use xlink:href="#eb29eafem" x="243.3333" y="252"/><use xlink:href="#eb29eafen" x="250.0003" y="252"/><use xlink:href="#eb29eafeo" x="256.6673" y="252"/><use xlink:href="#eb29eafep" x="263.3343" y="252"/><use xlink:href="#eb29eafeq" x="270.0013" y="252"/><use xlink:href="#eb29eafer" x="276.6683" y="252"/><use xlink:href="#eb29eafem" x="283.3353" y="252"/><use xlink:href="#eb29eafes" x="290.0023" y="252"/><use xlink:href="#eb29eafep" x="296.6693" y="252"/><use xlink:href="#eb29eafet" x="303.3363" y="252"/><use xlink:href="#eb29eafeu" x="310.0033" y="252"/><use xlink:href="#eb29eafeq" x="316.6703" y="252"/><use xlink:href="#eb29eafer" x="323.3373" y="252"/><use xlink:href="#eb29eafev" x="330.0043" y="252"/><use xlink:href="#eb29eafew" x="336.6713" y="252"/><use xlink:href="#eb29eafex" x="343.3383" y="252"/><use xlink:href="#eb29eafey" x="350.0053" y="252"/></g><g fill="#fff"><use xlink:href="#eb29eafez" x="170" y="266"/><use xlink:href="#eb29eafen" x="176.667" y="266"/><use xlink:href="#eb29eafet" x="183.334" y="266"/><use xlink:href="#eb29eafep" x="190.001" y="266"/><use xlink:href="#eb29eafeA" x="196.668" y="266"/><use xlink:href="#eb29eafeB" x="203.335" y="266"/><use xlink:href="#eb29eafen" x="210.002" y="266"/><use xlink:href="#eb29eafeq" x="216.669" y="266"/><use xlink:href="#eb29eafer" x="223.336" y="266"/><use xlink:href="#eb29eafem" x="230.003" y="266"/><use xlink:href="#eb29eafet" x="236.67" y="266"/><use xlink:href="#eb29eafeC" x="243.337" y="266"/><use xlink:href="#eb29eafeA" x="250.004" y="266"/><use xlink:href="#eb29eafeu" x="256.671" y="266"/><use xlink:href="#eb29eafet" x="263.338" y="266"/><use xlink:href="#eb29eafeB" x="270.005" y="266"/><use xlink:href="#eb29eafer" x="276.672" y="266"/><use xlink:href="#eb29eafeu" x="283.339" y="266"/><use xlink:href="#eb29eafeD" x="290.006" y="266"/><use xlink:href="#eb29eafeE" x="296.673" y="266"/><use xlink:href="#eb29eafeD" x="303.34" y="266"/><use xlink:href="#eb29eafeE" x="310.007" y="266"/><use xlink:href="#eb29eafeF" x="316.674" y="266"/><use xlink:href="#eb29eafer" x="323.341" y="266"/><use xlink:href="#eb29eafeE" x="330.008" y="266"/><use xlink:href="#eb29eafeA" x="336.675" y="266"/><use xlink:href="#eb29eafeG" x="343.342" y="266"/><use xlink:href="#eb29eafen" x="350.009" y="266"/><use xlink:href="#eb29eafeB" x="356.676" y="266"/><use xlink:href="#eb29eafet" x="363.343" y="266"/><use xlink:href="#eb29eafeu" x="370.01" y="266"/><use xlink:href="#eb29eafeH" x="376.677" y="266"/><use xlink:href="#eb29eafer" x="383.344" y="266"/><use xlink:href="#eb29eafeI" x="390.011" y="266"/><use xlink:href="#eb29eafep" x="396.678" y="266"/><use xlink:href="#eb29eafeE" x="403.345" y="266"/><use xlink:href="#eb29eafeA" x="410.012" y="266"/><use xlink:href="#eb29eafeG" x="416.679" y="266"/><use xlink:href="#eb29eafeJ" x="423.346" y="266"/></g></svg>