<?xml version='1.0' encoding='UTF-8'?>
<svg xmlns="http://www.w3.org/2000/svg" xmlns:xlink="http://www.w3.org/1999/xlink" width="600px" height="300px" viewBox="0 0 600 300" x="0px" y="0px" enable-background="new 0 0 600 300"><defs><symbol overflow="visible" id="8dbff761a"><path d="M8.4.9c7.32 0 12.05-5.4 12.05-13.2v-15.65c0-3.55.07-6.07.25-8.28 1.8-.2 3.43-.61 4.86-1.15a7.67 7.67 0 00-.36-2.89c-1.86.13-5.89.13-7.98.13-2.81 0-5.4-.13-8.16-.13a7.03 7.03 0 00-.54 2.9c2.1.17 4.26.59 6.36 1.14.18 2.21.3 4.73.3 8.28v16.73c0 3-.66 5.22-1.55 6.49-.36.53-2.47 1.3-4.44 1.3-1.33 0-2.4-.12-3.42-.41-.43-2.64-.55-5.35-.68-7.97a6.8 6.8 0 00-3.17 0A61.8 61.8 0 00.84-.3C2.77.55 5.22.9 8.41.9zm0 0"/></symbol><symbol overflow="visible" id="8dbff761b"><path d="M.78.06c2.58 0 4.92-.12 6.9-.12 1.45 0 4.91 0 6.66.12.3-.9.43-1.86.36-2.87L9.42-3.95l3.17-9.55H17c2.8 0 6.3.06 9.46.23l3.32 9.32-5.64 1.14c0 .95.1 1.9.46 2.87 2.6 0 4.99-.12 7.63-.12 1.98 0 5.7 0 7.44.12.3-.9.42-1.86.36-2.87a15.93 15.93 0 00-4.44-1.14L22.68-40.5c-1.98 0-3.73.23-5.27.84L5.09-3.96C3.5-3.41 1.92-3 .3-2.8c0 .95.13 1.9.5 2.87zm19.14-35.4h.06l.3 4.39 4.86 13.8H13.86zm0 0"/></symbol><symbol overflow="visible" id="8dbff761c"><path d="M32.4.3c1.91-.07 3.9-.36 5.65-.85v-27.4c0-3.55.04-6.07.23-8.28 1.8-.2 3.42-.61 4.86-1.15a7.67 7.67 0 00-.36-2.89c-1.73.13-5.34.13-6.9.13-2.16 0-4.57-.13-7.15-.13a8.12 8.12 0 00-.46 2.9c1.73.17 3.46.59 5.21 1.14.18 2.21.3 4.73.3 8.28v22.3h-.06l-1.63-5.4L14.7-39.9a47.9 47.9 0 00-5.15-.23c-2.18 0-4.57-.13-7.14-.13a8.14 8.14 0 00-.49 2.9c1.74.17 3.49.59 5.22 1.14.17 2.21.3 4.73.3 8.28v20.32c0 1.27-.07 2.54-.3 3.68-1.73.53-3.48.95-5.22 1.14 0 .95.13 1.9.49 2.87 2.57 0 4.96-.12 7.14-.12 1.54 0 5.15 0 6.89.12.3-.9.42-1.86.36-2.87a18.63 18.63 0 00-4.86-1.14 46.18 46.18 0 01-.24-4.99V-36.3h.07l1.73 5.4zm0 0"/></symbol><symbol overflow="visible" id="8dbff761e"><path d="M36.13.6c2.15 0 5.21-1.32 7.67-2.82-.07-.84-.3-1.69-1.08-2.28-2.03.72-3.84.95-5.22.95-1.2 0-3.55-.83-6.55-3 4.57-4.8 6.9-9.76 8.11-14.15 1.63-.18 3.42-.6 4.5-1.08 0-.9-.12-2.16-.36-2.7-1.39.06-4.62.12-5.93.12-2.29 0-4.93-.12-7.4-.12-.3.6-.46 1.75-.46 2.7 1.8.19 3.89.6 5.21 1.01a25.25 25.25 0 01-6.3 12 77.99 77.99 0 01-11.7-12.82c6.96-3.68 9.43-7.99 9.43-11.6 0-5.03-3.55-8.1-8.35-8.1-5.1 0-10.5 3.5-10.5 11.1 0 2.24 1.14 5.11 2.88 8.24-6.06 3.23-8.46 7.54-8.46 12.47 0 5.7 4.74 10.56 12.72 10.56 4.8 0 8.52-1.63 12.43-4.38C30.48-.6 33.23.6 36.13.6zM12.18-31.99c0-2.1.65-3.54 1.19-4.08.42-.42 1.74-.9 3.12-.9 2.52 0 4.31 2.4 4.31 5.27 0 1.88-1.5 4.92-5.87 7.57-1.67-2.82-2.75-5.58-2.75-7.86zM6.84-11.45c0-2.77 1.57-5.47 4.97-7.82A70.6 70.6 0 0024-5.45a15 15 0 01-7.38 2.22c-6.18 0-9.78-4.08-9.78-8.22zm0 0"/></symbol><symbol overflow="visible" id="8dbff761f"><path d="M2.4.06c2.58 0 4.97-.12 7.62-.12 1.98 0 5.7 0 7.43.12.32-.9.43-1.86.36-2.87a18.48 18.48 0 00-4.86-1.14 46.18 46.18 0 01-.23-4.99v-8.4c1.98.3 4.2.42 5.94.42L26.94 0h2.22c2.28 0 4.75 0 6.71.06.32-.6.43-1.92.43-2.87-1.5-.55-3.3-.9-5.22-1.14l-6.95-14.18c4.92-2.32 8.03-7.67 8.03-12.35 0-4.61-2.58-9.9-10.93-9.9-2.87 0-6.95.24-11.21.24-2.64 0-5.04-.13-7.61-.13a8.14 8.14 0 00-.49 2.9c1.74.17 3.49.59 5.22 1.14.17 2.21.3 4.73.3 8.28v17.8c0 2 0 4.28-.3 6.2-1.73.53-3.48.95-5.22 1.14 0 .95.13 1.9.49 2.87zm17.23-36.54c4.3 0 7.01 3.12 7.01 7.98 0 2.52-.9 4.73-2.58 6-.3.23-3.36 1.38-6.18 1.38-1.74 0-3.36-.07-5.16-.24V-36.3c2.05-.06 4.86-.18 6.9-.18zm0 0"/></symbol><symbol overflow="visible" id="8dbff761g"><path d="M2.4.06c2.58 0 4.97-.12 7.62-.12 1.98 0 5.7 0 7.43.12.32-.9.43-1.86.36-2.87a18.48 18.48 0 00-4.86-1.14 46.18 46.18 0 01-.23-4.99v-19.01c0-3.55.06-6.07.23-8.28a19.8 19.8 0 004.86-1.15 7.37 7.37 0 00-.36-2.89c-1.73.13-5.45.13-7.43.13-2.64 0-5.04-.13-7.61-.13a8.14 8.14 0 00-.49 2.9c1.74.17 3.49.59 5.22 1.14.17 2.21.3 4.73.3 8.28v20.32c0 1.27-.07 2.54-.3 3.68-1.73.53-3.48.95-5.22 1.14 0 .95.13 1.9.49 2.87zm0 0"/></symbol><symbol overflow="visible" id="8dbff761h"><path d="M2.4.06c2.58 0 4.97-.12 7.62-.12 1.98 0 5.7 0 7.43.12.32-.9.43-1.86.36-2.87a18.48 18.48 0 00-4.86-1.14 46.18 46.18 0 01-.23-4.99v-6.3l3.97-4.03L29.77 0h2.15c2.28 0 4.86 0 6.9.06.3-.6.41-1.92.41-2.87-1.5-.55-3.3-.9-5.21-1.14l-13.2-19.5 12.6-12.78a17.1 17.1 0 004.44-1.15 7.67 7.67 0 00-.36-2.89c-1.92.13-5.77.13-7.31.13-2.17 0-4.5-.13-7.1-.13a8.24 8.24 0 00-.46 2.96l5.57 1.08-15.48 15.71v-5.34c0-4.62 0-7.73.23-10.37a19.8 19.8 0 004.86-1.15 7.37 7.37 0 00-.36-2.89c-1.73.13-5.45.13-7.43.13-2.64 0-5.04-.13-7.61-.13a8.14 8.14 0 00-.49 2.9c1.74.17 3.49.59 5.22 1.14.17 2.21.3 4.73.3 8.28v18.3c0 1.85 0 3.88-.3 5.7-1.73.53-3.48.95-5.22 1.14 0 .95.13 1.9.49 2.87zm0 0"/></symbol><symbol overflow="visible" id="8dbff761i"><path d="M16.08.9c8.51 0 13.73-6 13.73-13.5 0-5.63-4.8-8.7-9.3-10.32l-5.15-1.86c-2.81-1.02-6.23-3.24-6.23-6.78 0-2.1.71-3.36 1.73-4.25.36-.31 2.87-.97 5.7-.97 2.52 0 4.92.23 6.9.78.48 1.92.73 3.84.9 5.88.84.48 1.92.54 3.12.25A36.52 36.52 0 0028.8-39a34.86 34.86 0 00-11.58-2.1c-6.13 0-13.56 3-13.56 11.4 0 6.06 5.76 8.76 10.2 10.43l4.37 1.7c3.07 1.13 6 3.41 6 6.52 0 2.83-.65 4.82-2.03 6.13-.3.3-2.89 1.5-5.76 1.5-3.42 0-5.94-.36-8.1-1.08-.48-2.64-.71-5.1-.84-7.31a5.14 5.14 0 00-3.19-.25A50.92 50.92 0 002.88-1.73C5.88-.13 10.86.9 16.07.9zm0 0"/></symbol><symbol overflow="visible" id="8dbff761j"><path d="M3.83 0v-5.95H6.2v-.82H.45v.82h2.4V0zm0 0"/></symbol><symbol overflow="visible" id="8dbff761k"><path d="M5.75-2.23v-.43c0-1.6-.9-2.51-2.42-2.51S.87-4.16.87-2.48c0 1.71.91 2.62 2.5 2.62 1.43 0 2.07-.56 2.29-1.52l-.9-.09c-.18.61-.59.9-1.35.9-.94 0-1.52-.54-1.58-1.66zm-2.4-2.2c.93 0 1.43.5 1.48 1.55H1.84c.08-1.07.6-1.56 1.5-1.56zm0 0"/></symbol><symbol overflow="visible" id="8dbff761l"><path d="M1.83 0l1.42-2h.06l1.46 2H5.8L4-2.53l1.78-2.49H4.8L3.42-3.08h-.08l-1.4-1.94H.89l1.78 2.49L.84 0zm0 0"/></symbol><symbol overflow="visible" id="8dbff761m"><path d="M5.52-4.25v-.77H3.17v-1.56h-.81l-.14 1.56H.75v.77h1.47v2.4c0 1.3.48 1.94 1.84 1.94C4.6.1 5.14 0 5.55-.14L5.4-.91c-.32.13-.72.2-1.13.2-.8 0-1.1-.37-1.1-1.23v-2.31zm0 0"/></symbol><symbol overflow="visible" id="8dbff761n"><path d="M3.33-3.42c.47 0 .8-.27.8-.8 0-.51-.33-.8-.8-.8-.47 0-.8.29-.8.8 0 .53.33.8.8.8zm0 3.5c.47 0 .8-.27.8-.78 0-.53-.33-.82-.8-.82-.47 0-.8.29-.8.82 0 .51.33.78.8.78zm0 0"/></symbol><symbol overflow="visible" id="8dbff761p"><path d="M5.56-6.77h-3.8v.83h2.82v3.44c0 1.23-.28 1.81-1.36 1.81-.94 0-1.24-.48-1.33-1.3l-.03-.15-.92.1.01.18c.13 1.25.78 2 2.28 2 1.7 0 2.33-.86 2.33-2.64zm0 0"/></symbol><symbol overflow="visible" id="8dbff761q"><path d="M6.17 0L3.98-6.77h-1.3L.5 0h.97l.44-1.47h2.78L5.16 0zM3.28-5.94h.08l1.1 3.74H2.15zm0 0"/></symbol><symbol overflow="visible" id="8dbff761r"><path d="M1.84 0v-4.48l-.06-.99h.1L4.46 0h1.28v-6.77h-.92v4.4l.06 1.03h-.1L2.21-6.77H.92V0zm0 0"/></symbol><symbol overflow="visible" id="8dbff761s"><path d="M5.4-1.22c.43-.66.66-1.51.66-2.44l-.83-.09c0 .75-.14 1.4-.4 1.92l-1.7-1.83c.8-.42 1.39-.96 1.39-1.86 0-.87-.66-1.4-1.61-1.4-1.14 0-1.72.62-1.72 1.47 0 .72.47 1.3.83 1.68-.8.41-1.52.99-1.52 2.1C.5-.44 1.52.14 2.7.14c.9 0 1.64-.3 2.2-.78l.58.64h1.05zM2.86-6.25c.44 0 .82.23.82.73 0 .7-.47 1.11-1 1.41-.47-.53-.67-.92-.67-1.34 0-.47.3-.8.85-.8zM2.81-.62c-.83 0-1.42-.41-1.42-1.18 0-.76.5-1.18 1.05-1.5l1.94 2.1c-.4.37-.91.57-1.57.57zm0 0"/></symbol><symbol overflow="visible" id="8dbff761t"><path d="M4.06-2.77c1.25-.04 1.92-.7 1.92-1.96 0-1.36-.7-2.04-2.17-2.04H.92V0h.97v-2.73h1.08L4.95 0h1.1zM1.9-6h1.7c1.07 0 1.46.34 1.46 1.28 0 .9-.44 1.27-1.47 1.27H1.89zm0 0"/></symbol><symbol overflow="visible" id="8dbff761u"><path d="M3.83-5.97h1.73v-.8H1.1v.8h1.75v5.19H1.1V0h4.47v-.78H3.83zm0 0"/></symbol><symbol overflow="visible" id="8dbff761v"><path d="M4.95-6.77L2.37-3.78H1.9v-2.99H.92V0h.97v-3.08h.49L4.96 0h1.19L3.23-3.5l2.85-3.27zm0 0"/></symbol><symbol overflow="visible" id="8dbff761w"><path d="M3.42.14c1.61 0 2.56-.75 2.56-2 0-1.1-.67-1.6-1.95-1.86l-.97-.2c-.87-.17-1.23-.49-1.23-1.11 0-.7.54-1.11 1.5-1.11 1.06 0 1.51.34 1.69 1.23l.9-.09c-.17-1.28-.98-1.9-2.6-1.9C1.79-6.9.9-6.18.9-4.98c0 1.06.66 1.66 1.88 1.9l1.01.2c.85.17 1.25.4 1.25 1.09 0 .73-.6 1.16-1.6 1.16-1.07 0-1.66-.4-1.8-1.24l-.94.1C.83-.53 1.75.13 3.42.13zm0 0"/></symbol><symbol overflow="visible" id="8dbff761x"><path d="M5.95-6.77H1.1V0h.99v-2.92H5.3v-.77H2.08v-2.26h3.87zm0 0"/></symbol><symbol overflow="visible" id="8dbff761y"><path d="M2.83.14c.94 0 1.5-.39 1.81-.95h.08l.1.81h.76v-3.38c0-1.23-.69-1.8-2.13-1.8-1.43 0-2.03.65-2.18 1.6l.93.1c.11-.6.44-.93 1.22-.93.85 0 1.22.32 1.22 1.04v.34l-1.81.2C1.6-2.7 1.1-2.17 1.1-1.28c0 .92.64 1.42 1.72 1.42zm.25-.77c-.67 0-1.02-.28-1.02-.74 0-.44.28-.72 1-.82l1.58-.19v.41c0 .8-.6 1.34-1.56 1.34zm0 0"/></symbol><symbol overflow="visible" id="8dbff761z"><path d="M2.73.14c.9 0 1.43-.45 1.74-1.08h.06l.13.94h.8v-5.02h-.94v2.7c0 .98-.57 1.62-1.46 1.62-.75 0-1.1-.4-1.1-1.22v-3.1h-.93v3.32c0 1.17.55 1.84 1.7 1.84zm0 0"/></symbol><symbol overflow="visible" id="8dbff761A"><path d="M5.08-5.16c-.94 0-1.58.43-1.9 1.3h-.09l-.07-1.16H1.05v.77h1.1v3.48H.96V0h3.96v-.77H3.1v-1.46c0-1.36.6-2.05 1.83-2.05.4 0 .76.08 1.1.17l.15-.87c-.33-.11-.7-.18-1.11-.18zm0 0"/></symbol><symbol overflow="visible" id="8dbff761B"><path d="M3.92-7.14H1.36v.76h1.6v5.61H1.15V0H5.7v-.77H3.92zm0 0"/></symbol><symbol overflow="visible" id="8dbff761C"><path d="M2.16 0v-2.67c0-.99.59-1.63 1.46-1.63.74 0 1.07.38 1.07 1.22V0h.95v-3.31c0-1.2-.56-1.85-1.67-1.85-.92 0-1.49.46-1.77 1.08h-.06l-.12-.94H1.2V0zm0 0"/></symbol><symbol overflow="visible" id="8dbff761D"><path d="M3.58-5.81c.42 0 .72-.22.72-.67 0-.44-.3-.68-.72-.68-.44 0-.72.24-.72.68 0 .45.28.67.72.67zm.5.8H1.52v.76h1.6v3.48h-1.8V0h4.46v-.77h-1.7zm0 0"/></symbol><symbol overflow="visible" id="8dbff761E"><path d="M3.9 0l2-5.02h-.96L3.4-.94h-.07L1.8-5.02H.77L2.78 0zm0 0"/></symbol><symbol overflow="visible" id="8dbff761F"><path d="M4.63-6.5c.45 0 .98.08 1.39.2l.2-.72a5.3 5.3 0 00-1.64-.26c-1.52 0-2.16.56-2.16 1.87v.4H.9v.76h1.53V0h.94v-4.25h2.53v-.77H3.36v-.3c0-.84.33-1.18 1.27-1.18zm0 0"/></symbol><symbol overflow="visible" id="8dbff761G"><path d="M3.33.14c1.62 0 2.5-.95 2.5-2.66 0-1.68-.88-2.64-2.5-2.64-1.63 0-2.5.96-2.5 2.64 0 1.7.87 2.66 2.5 2.66zm0-.77c-1.06 0-1.52-.6-1.52-1.89 0-1.28.46-1.87 1.52-1.87 1.08 0 1.53.6 1.53 1.87 0 1.29-.45 1.9-1.53 1.9zm0 0"/></symbol><symbol overflow="visible" id="8dbff761H"><path d="M1.63 0v-2.9c0-.8.15-1.4.71-1.4.41 0 .55.3.55.88V0h.95v-2.9c0-.8.18-1.4.72-1.4.4 0 .57.3.57.88V0h.95v-3.63c0-.92-.28-1.53-1.11-1.53-.63 0-.95.41-1.1.9h-.06c-.1-.52-.44-.9-1.08-.9-.6 0-.93.41-1.06.9H1.6l-.23-.76H.67V0zm0 0"/></symbol><symbol overflow="visible" id="8dbff761I"><path d="M3.38-5.9c.12-.5.42-1.04.67-1.41l-.63-.22a4.28 4.28 0 00-1.01 2.39c0 .66.3 1 .9 1 .6 0 .9-.33.9-.9 0-.57-.32-.83-.83-.85zm0 0"/></symbol><symbol overflow="visible" id="8dbff761J"><path d="M3.3-7.53c-.55 0-.85.3-.85.84 0 .55.36.8.83.8h.03a5.1 5.1 0 01-.69 1.47l.52.23a4.29 4.29 0 001.02-2.4c0-.63-.33-.94-.86-.94zm0 0"/></symbol><symbol overflow="visible" id="8dbff761K"><path d="M1.45-2.95c0 2.56 1.08 4.37 3.67 4.84l.11-.67C3.28.86 2.43-.75 2.43-2.95s.85-3.82 2.8-4.16l-.1-.69c-2.6.49-3.68 2.3-3.68 4.85zm0 0"/></symbol><symbol overflow="visible" id="8dbff761L"><path d="M3.36.16c1.4 0 2.2-.6 2.2-1.57 0-.89-.54-1.22-1.47-1.39L3-3c-.67-.14-.86-.33-.86-.73 0-.5.4-.74 1.17-.74.83 0 1.19.27 1.27.8l.9-.05c-.12-1-.8-1.47-2.17-1.47-1.34 0-2.1.53-2.1 1.5 0 .81.45 1.22 1.52 1.44l1.04.2c.56.11.87.24.87.72 0 .52-.45.78-1.28.78-.95 0-1.36-.28-1.42-.87l-.9.06C1.07-.36 1.8.16 3.35.16zm0 0"/></symbol><symbol overflow="visible" id="8dbff761M"><path d="M3.33.14c1.65 0 2.6-1.1 2.6-3.52S4.99-6.9 3.34-6.9C1.67-6.9.72-5.8.72-3.37c0 2.4.95 3.51 2.6 3.51zm0-.84c-1.13 0-1.6-.85-1.6-2.67 0-1.86.47-2.7 1.6-2.7 1.12 0 1.6.84 1.6 2.7 0 1.82-.48 2.67-1.6 2.67zM3.3-2.64c.38 0 .56-.28.56-.72 0-.44-.18-.7-.56-.7-.39 0-.56.26-.56.7 0 .44.17.72.56.72zm0 0"/></symbol><symbol overflow="visible" id="8dbff761N"><path d="M4.22-6.77h-.86l-2.03.7v.87c.64-.17 1.26-.38 1.89-.55v4.9H1.03V0h4.9v-.86H4.21zm0 0"/></symbol><symbol overflow="visible" id="8dbff761O"><path d="M1.45-7.1c1.96.33 2.8 1.94 2.8 4.15 0 2.2-.84 3.8-2.8 4.17l.11.67c2.58-.47 3.67-2.28 3.67-4.84 0-2.55-1.09-4.36-3.67-4.85zm0 0"/></symbol></defs><use xlink:href="#8dbff761a" x="133.11" y="152" fill="#fff"/><g fill="#515151"><use xlink:href="#8dbff761b" x="156.93" y="152"/><use xlink:href="#8dbff761c" x="197.55" y="152"/><use xlink:href="#8dbff761d" x="242.01" y="152"/><use xlink:href="#8dbff761e" x="254.61" y="152"/><use xlink:href="#8dbff761d" x="298.83" y="152"/><use xlink:href="#8dbff761f" x="311.43" y="152"/><use xlink:href="#8dbff761g" x="348.45" y="152"/></g><use xlink:href="#8dbff761a" x="368.49" y="152" fill="#fff"/><g fill="#515151"><use xlink:href="#8dbff761h" x="394.71" y="152"/><use xlink:href="#8dbff761i" x="434.25" y="152"/></g><g fill="#fff"><use xlink:href="#8dbff761j" x="243.3333" y="252"/><use xlink:href="#8dbff761k" x="250.0003" y="252"/><use xlink:href="#8dbff761l" x="256.6673" y="252"/><use xlink:href="#8dbff761m" x="263.3343" y="252"/><use xlink:href="#8dbff761n" x="270.0013" y="252"/><use xlink:href="#8dbff761o" x="276.6683" y="252"/><use xlink:href="#8dbff761p" x="283.3353" y="252"/><use xlink:href="#8dbff761q" x="290.0023" y="252"/><use xlink:href="#8dbff761r" x="296.6693" y="252"/><use xlink:href="#8dbff761o" x="303.3363" y="252"/><use xlink:href="#8dbff761s" x="310.0033" y="252"/><use xlink:href="#8dbff761o" x="316.6703" y="252"/><use xlink:href="#8dbff761t" x="323.3373" y="252"/><use xlink:href="#8dbff761u" x="330.0043" y="252"/><use xlink:href="#8dbff761p" x="336.6713" y="252"/><use xlink:href="#8dbff761v" x="343.3383" y="252"/><use xlink:href="#8dbff761w" x="350.0053" y="252"/></g><g fill="#fff"><use xlink:href="#8dbff761x" x="170" y="266"/><use xlink:href="#8dbff761k" x="176.667" y="266"/><use xlink:href="#8dbff761y" x="183.334" y="266"/><use xlink:href="#8dbff761m" x="190.001" y="266"/><use xlink:href="#8dbff761z" x="196.668" y="266"/><use xlink:href="#8dbff761A" x="203.335" y="266"/><use xlink:href="#8dbff761k" x="210.002" y="266"/><use xlink:href="#8dbff761n" x="216.669" y="266"/><use xlink:href="#8dbff761o" x="223.336" y="266"/><use xlink:href="#8dbff761q" x="230.003" y="266"/><use xlink:href="#8dbff761B" x="236.67" y="266"/><use xlink:href="#8dbff761m" x="243.337" y="266"/><use xlink:href="#8dbff761k" x="250.004" y="266"/><use xlink:href="#8dbff761A" x="256.671" y="266"/><use xlink:href="#8dbff761C" x="263.338" y="266"/><use xlink:href="#8dbff761y" x="270.005" y="266"/><use xlink:href="#8dbff761m" x="276.672" y="266"/><use xlink:href="#8dbff761D" x="283.339" y="266"/><use xlink:href="#8dbff761E" x="290.006" y="266"/><use xlink:href="#8dbff761k" x="296.673" y="266"/><use xlink:href="#8dbff761o" x="303.34" y="266"/><use xlink:href="#8dbff761F" x="310.007" y="266"/><use xlink:href="#8dbff761G" x="316.674" y="266"/><use xlink:href="#8dbff761A" x="323.341" y="266"/><use xlink:href="#8dbff761H" x="330.008" y="266"/><use xlink:href="#8dbff761o" x="336.675" y="266"/><use xlink:href="#8dbff761G" x="343.342" y="266"/><use xlink:href="#8dbff761F" x="350.009" y="266"/><use xlink:href="#8dbff761o" x="356.676" y="266"/><use xlink:href="#8dbff761I" x="363.343" y="266"/><use xlink:href="#8dbff761p" x="370.01" y="266"/><use xlink:href="#8dbff761J" x="376.677" y="266"/><use xlink:href="#8dbff761o" x="383.344" y="266"/><use xlink:href="#8dbff761K" x="390.011" y="266"/><use xlink:href="#8dbff761L" x="396.678" y="266"/><use xlink:href="#8dbff761L" x="403.345" y="266"/><use xlink:href="#8dbff761M" x="410.012" y="266"/><use xlink:href="#8dbff761N" x="416.679" y="266"/><use xlink:href="#8dbff761O" x="423.346" y="266"/></g></svg>