<?xml version='1.0' encoding='UTF-8'?>
<svg xmlns="http://www.w3.org/2000/svg" xmlns:xlink="http://www.w3.org/1999/xlink" width="600px" height="300px" viewBox="0 0 600 300" x="0px" y="0px" enable-background="new 0 0 600 300"><defs><symbol overflow="visible" id="c1d31c8ea"><path d="M2.4.06c2.58 0 4.97-.12 7.62-.12h6.9c4.2 0 10.38 0 14.1.12l.48-.48c.48-3.78.66-7.5.66-11.28a5.66 5.66 0 00-3.18-.24 90.6 90.6 0 01-2.17 8.03h-14.1v-24.04c0-3.55.07-6.07.24-8.28 2.24-.2 4.27-.61 6.07-1.15a6.61 6.61 0 00-.43-2.89c-1.8.13-5.8.13-7.9.13-2.9 0-5.47-.13-8.28-.13a8.14 8.14 0 00-.49 2.9c1.74.17 3.49.59 5.22 1.14.17 2.21.3 4.73.3 8.28v20.32c0 1.27-.07 2.54-.3 3.68-1.73.53-3.48.95-5.22 1.14 0 .95.13 1.9.49 2.87zm0 0"/></symbol><symbol overflow="visible" id="c1d31c8eb"><path d="M15.06.84c8.4 0 13.31-8.15 13.31-15.42 0-8.22-3.95-14.47-12.65-14.47-8.4 0-13.31 8.18-13.31 15.43C2.4-5.22 6.55.84 15.06.84zm1.08-4.03c-6.42 0-8.64-7.01-8.64-12.1 0-3.62 1.31-6.79 3-8.59.72-.71 2.88-1.14 4.14-1.14 6.42 0 8.64 7.02 8.64 12.11 0 3.61-1.33 6.79-3 8.6-.72.72-2.87 1.12-4.14 1.12zm0 0"/></symbol><symbol overflow="visible" id="c1d31c8ec"><path d="M11.88.66c6.18 0 11.1-3.24 11.1-9 0-9.66-14.64-7.68-14.64-13.8 0-2.1.43-3.55 5.22-3.55 1.5 0 2.88.32 3.85.61.36 1.5.65 3.13.78 4.63.89.36 1.97.4 3.04.1.61-1.96 1.08-4.6 1.08-7.37 0-3.84-.89-7.62-2.81-10.26 2.94-1.74 5.45-3.66 8.64-3.66 1.27 0 2.28.36 3.13.95v12.25c-1.57.13-3.2.36-4.63.72-.12.78-.12 1.63.13 2.4 1.54.18 3.36.54 4.5.77v16.82c0 5.51 1.43 8.57 5.51 8.57 3.42 0 6.9-1.39 9.3-2.82a3.7 3.7 0 00-1.02-2.7c-2.15.77-3.84 1.26-5.94 1.26-1.92 0-2.82-2.22-2.82-6.6v-14.53h9.12c.17-1.18.24-2.32.24-3.65l-9.36-.11V-43.8l-.49-.48a13.57 13.57 0 00-6.04-1.38c-5.35 0-8.77 3.47-12.72 5.28a8.4 8.4 0 00-4.5-1.2c-1.1 0-2.11.17-3.36.78a9.93 9.93 0 00-.97 4.38c.6.48 1.73.97 3.48 1.08 1.61 0 3.11-.36 4.44-.96 1.44 1.44 2.28 3.6 2.4 7.74-1.5-.17-3.12-.3-4.8-.3-4.87 0-10.44 1.98-10.44 7.98 0 6.43 6.97 7.08 11.4 9.36 1.8.96 3.11 2.16 3.11 4.2 0 3.54-1.43 4.45-5.26 4.45-1.99 0-4.4-.32-5.47-.85a52 52 0 01-.6-6 3.32 3.32 0 00-2.82 0A36.48 36.48 0 002.58-.95c1.98.89 5.47 1.6 9.3 1.6zm0 0"/></symbol><symbol overflow="visible" id="c1d31c8ee"><path d="M8.88.84c2.7 0 6.54-1.8 9.9-4.8.6 2.82 1.74 4.8 2.94 4.8 2.1 0 4.98-1.43 6.84-3.06 0-.9-.36-1.69-.9-2.22-1.14.36-2.52.78-3.85.96-.23-1.32-.3-3.11-.3-4.74V-19.5c0-8.16-5.93-9.48-9.46-9.48-4.14 0-7.82 1.32-10.7 3.06 0 2.1.56 4.56 1.45 6.42 1.14.36 2.34.13 3.48-.42 0-1.67.06-3.3.42-4.86 1.57-.36 3.18-.49 4.74-.49 4.08 0 5.04 3.07 5.04 7.7C10.8-16.2 2.1-13.03 2.1-6.3 2.1-1.86 4.92.84 8.88.84zM7.44-7.8c0-1.26.48-2.89 1.2-3.6.72-.72 5.1-1.97 9.84-2.52v7.08c-1.86 1.68-4.75 3.12-6.54 3.12-3.17 0-4.5-1.86-4.5-4.08zm0 0"/></symbol><symbol overflow="visible" id="c1d31c8ef"><path d="M2.28.06c2.28 0 4.8-.12 7.27-.12 1.97 0 7.07.06 9.3.12.23-.54.35-1.8.35-2.7-1.5-.48-4.43-.9-7.07-1.08a50.93 50.93 0 01-.2-4.5v-11.64c2.48-3.95 4.45-4.69 6.73-4.69a10 10 0 011.56.13c.36 1.73.6 4.62.72 6.65 1.01.36 2.04.36 3.12 0a41.48 41.48 0 001.08-10.3 14.66 14.66 0 00-4.86-.79c-3.66 0-6.48 2.7-8.34 5.64-.17-1.5-.72-4.2-1.02-5.22l-.48-.42a32.9 32.9 0 00-8.52 2.16c-.12.72 0 1.56.24 2.34 1.56.17 3.18.48 4.75.95V-7c0 1.2-.07 2.03-.25 3.35-1.2.43-3.11.85-4.8 1.02 0 .95.19 2.22.42 2.7zm0 0"/></symbol><symbol overflow="visible" id="c1d31c8eg"><path d="M11.34.84c3.43 0 6.9-1.39 9.3-2.82a3.7 3.7 0 00-1.02-2.7c-2.17.77-3.84 1.26-5.93 1.26-1.92 0-2.83-2.22-2.83-6.6v-14.53h9.12c.18-1.18.24-2.32.24-3.65l-9.36-.11v-7.92a6.94 6.94 0 00-3.06-.36L5.8-28.44c-1.54.13-3.17.36-4.6.72-.13.78-.13 1.63.1 2.4 1.56.18 3.38.54 4.5.77v16.82c0 5.51 1.46 8.57 5.53 8.57zm0 0"/></symbol><symbol overflow="visible" id="c1d31c8eh"><path d="M8.52-33.66c2.34 0 4.14-2.47 4.14-4.62 0-1.86-1.8-3.3-3.6-3.3-2.28 0-4.14 2.52-4.14 4.67 0 1.82 1.99 3.25 3.6 3.25zM2.28.06c2.28 0 4.8-.12 7.27-.12 1.43 0 5.1.06 6.72.12.23-.54.36-1.8.36-2.7-1.08-.48-2.9-.9-4.5-1.08a50.93 50.93 0 01-.2-4.5v-3c0-6.6.07-11.28.26-17.28l-.49-.48c-3.3.3-7.39 1.2-9.78 2.1-.12.79 0 1.57.24 2.33 1.56.2 3.18.55 4.75.97v16.56c0 1.2-.07 2.16-.25 3.3-1.2.42-3.11.9-4.8 1.08 0 .95.19 2.22.42 2.7zm0 0"/></symbol><symbol overflow="visible" id="c1d31c8ei"><path d="M2.05.06c2.45 0 4.8-.12 7.25-.12 2.76 0 6 .06 9.3.12.24-.54.35-1.8.35-2.7a35.6 35.6 0 00-7.07-1.08c-.11-1.44-.18-2.87-.18-4.5v-16.33h7.02c.19-1.18.23-2.32.23-3.65l-7.25-.11v-1.92c0-5.22.96-9.32 2.16-10.7.36-.41 2.05-1.13 4.08-1.13 1.01 0 2.15.12 3.18.3.3 1.68.43 3.42.47 5.1.85.53 1.99.6 3.32.24a26.6 26.6 0 001.3-8.03c-2.27-.9-4.73-1.5-7.79-1.5-7.33 0-11.76 6.72-11.76 16.97v.54c-1.61.17-3.3.36-4.61.72-.13.78-.13 1.63.1 2.4 1.57.18 3.55.54 4.5.77v17.53c0 1.2-.06 2.04-.23 3.36-1.2.43-3.12.85-4.8 1.02 0 .95.18 2.22.43 2.7zm0 0"/></symbol><symbol overflow="visible" id="c1d31c8ej"><path d="M14.64.84c3.55 0 8.28-2.1 10.98-4.07a3.07 3.07 0 00-1.03-2.29c-3.71 1.44-6.3 2.04-8.93 2.04-6.3 0-8.16-6.83-8.16-11.82 0-3.54 1.31-6.65 3-8.4.84-.72 3.36-1.14 4.86-1.14 1.8 0 3.48.12 4.5.3.3 1.68.42 3.3.48 4.98 1.02.6 2.16.65 3.54.25a23.08 23.08 0 001.26-7.82c0-4.07-.9-8.03-2.83-10.85 2.7-1.74 4.99-3.66 7.92-3.66a4.5 4.5 0 012.83.95v12.25c-1.56.13-3.19.36-4.62.72-.13.78-.13 1.63.12 2.4 1.57.18 3.36.54 4.5.77v16.82c0 5.51 1.44 8.57 5.52 8.57 3.42 0 6.9-1.39 9.3-2.82a3.7 3.7 0 00-1.02-2.7c-2.16.77-3.84 1.26-5.94 1.26-1.92 0-2.83-2.22-2.83-6.6v-14.53h9.13c.19-1.18.23-2.32.23-3.65l-9.36-.11V-43.8l-.47-.48a12.47 12.47 0 00-5.76-1.38c-5.05 0-8.28 3.47-12.06 5.28a8.04 8.04 0 00-4.44-1.2c-1.08 0-2.1.17-3.36.78a10.13 10.13 0 00-.95 4.38c.6.48 1.73.97 3.47 1.08 1.62 0 3.12-.36 4.43-.96 1.4 1.5 2.24 3.78 2.4 7.99-1.66-.38-3.58-.55-5.76-.55-8.09 0-13.18 8.05-13.18 15.23C2.4-5.52 6 .85 14.64.85zm0 0"/></symbol><symbol overflow="visible" id="c1d31c8ek"><path d="M11.88.66c6.18 0 11.1-3.24 11.1-9 0-9.66-14.64-7.68-14.64-13.8 0-2.1.43-3.55 5.22-3.55 1.5 0 2.88.32 3.85.61.36 1.5.65 3.13.78 4.63.89.36 1.97.4 3.04.1.61-1.96 1.08-4.6 1.08-7.37a30.26 30.26 0 00-8.58-1.14c-4.86 0-10.43 1.98-10.43 7.98 0 6.43 6.97 7.02 11.4 9.36 1.8.96 3.11 2.16 3.11 4.2 0 3.54-1.43 4.45-5.26 4.45-1.99 0-4.4-.32-5.47-.85a52 52 0 01-.6-6 3.32 3.32 0 00-2.82 0A36.48 36.48 0 002.58-.95c1.98.89 5.47 1.6 9.3 1.6zm0 0"/></symbol><symbol overflow="visible" id="c1d31c8el"><path d="M3.83 0v-5.95H6.2v-.82H.45v.82h2.4V0zm0 0"/></symbol><symbol overflow="visible" id="c1d31c8em"><path d="M5.75-2.23v-.43c0-1.6-.9-2.51-2.42-2.51S.87-4.16.87-2.48c0 1.71.91 2.62 2.5 2.62 1.43 0 2.07-.56 2.29-1.52l-.9-.09c-.18.61-.59.9-1.35.9-.94 0-1.52-.54-1.58-1.66zm-2.4-2.2c.93 0 1.43.5 1.48 1.55H1.84c.08-1.07.6-1.56 1.5-1.56zm0 0"/></symbol><symbol overflow="visible" id="c1d31c8en"><path d="M1.83 0l1.42-2h.06l1.46 2H5.8L4-2.53l1.78-2.49H4.8L3.42-3.08h-.08l-1.4-1.94H.89l1.78 2.49L.84 0zm0 0"/></symbol><symbol overflow="visible" id="c1d31c8eo"><path d="M5.52-4.25v-.77H3.17v-1.56h-.81l-.14 1.56H.75v.77h1.47v2.4c0 1.3.48 1.94 1.84 1.94C4.6.1 5.14 0 5.55-.14L5.4-.91c-.32.13-.72.2-1.13.2-.8 0-1.1-.37-1.1-1.23v-2.31zm0 0"/></symbol><symbol overflow="visible" id="c1d31c8ep"><path d="M3.33-3.42c.47 0 .8-.27.8-.8 0-.51-.33-.8-.8-.8-.47 0-.8.29-.8.8 0 .53.33.8.8.8zm0 3.5c.47 0 .8-.27.8-.78 0-.53-.33-.82-.8-.82-.47 0-.8.29-.8.82 0 .51.33.78.8.78zm0 0"/></symbol><symbol overflow="visible" id="c1d31c8er"><path d="M2.08-6.77h-.99V0h4.79v-.81h-3.8zm0 0"/></symbol><symbol overflow="visible" id="c1d31c8es"><path d="M3.33.14c1.62 0 2.5-.95 2.5-2.66 0-1.68-.88-2.64-2.5-2.64-1.63 0-2.5.96-2.5 2.64 0 1.7.87 2.66 2.5 2.66zm0-.77c-1.06 0-1.52-.6-1.52-1.89 0-1.28.46-1.87 1.52-1.87 1.08 0 1.53.6 1.53 1.87 0 1.29-.45 1.9-1.53 1.9zm0 0"/></symbol><symbol overflow="visible" id="c1d31c8et"><path d="M3.36.16c1.4 0 2.2-.6 2.2-1.57 0-.89-.54-1.22-1.47-1.39L3-3c-.67-.14-.86-.33-.86-.73 0-.5.4-.74 1.17-.74.83 0 1.19.27 1.27.8l.9-.05c-.12-1-.8-1.47-2.17-1.47-1.34 0-2.1.53-2.1 1.5 0 .81.45 1.22 1.52 1.44l1.04.2c.56.11.87.24.87.72 0 .52-.45.78-1.28.78-.95 0-1.36-.28-1.42-.87l-.9.06C1.07-.36 1.8.16 3.35.16zm0 0"/></symbol><symbol overflow="visible" id="c1d31c8eu"><path d="M2.83.14c.94 0 1.5-.39 1.81-.95h.08l.1.81h.76v-3.38c0-1.23-.69-1.8-2.13-1.8-1.43 0-2.03.65-2.18 1.6l.93.1c.11-.6.44-.93 1.22-.93.85 0 1.22.32 1.22 1.04v.34l-1.81.2C1.6-2.7 1.1-2.17 1.1-1.28c0 .92.64 1.42 1.72 1.42zm.25-.77c-.67 0-1.02-.28-1.02-.74 0-.44.28-.72 1-.82l1.58-.19v.41c0 .8-.6 1.34-1.56 1.34zm0 0"/></symbol><symbol overflow="visible" id="c1d31c8ev"><path d="M5.08-5.16c-.94 0-1.58.43-1.9 1.3h-.09l-.07-1.16H1.05v.77h1.1v3.48H.96V0h3.96v-.77H3.1v-1.46c0-1.36.6-2.05 1.83-2.05.4 0 .76.08 1.1.17l.15-.87c-.33-.11-.7-.18-1.11-.18zm0 0"/></symbol><symbol overflow="visible" id="c1d31c8ew"><path d="M3.58-5.81c.42 0 .72-.22.72-.67 0-.44-.3-.68-.72-.68-.44 0-.72.24-.72.68 0 .45.28.67.72.67zm.5.8H1.52v.76h1.6v3.48h-1.8V0h4.46v-.77h-1.7zm0 0"/></symbol><symbol overflow="visible" id="c1d31c8ex"><path d="M4.63-6.5c.45 0 .98.08 1.39.2l.2-.72a5.3 5.3 0 00-1.64-.26c-1.52 0-2.16.56-2.16 1.87v.4H.9v.76h1.53V0h.94v-4.25h2.53v-.77H3.36v-.3c0-.84.33-1.18 1.27-1.18zm0 0"/></symbol><symbol overflow="visible" id="c1d31c8ey"><path d="M3.34.14c1.43 0 2.13-.66 2.25-1.78l-.89-.1c-.1.7-.5 1.08-1.34 1.08-1.03 0-1.52-.64-1.52-1.84 0-1.23.47-1.86 1.52-1.86.84 0 1.23.36 1.34 1.08l.9-.1c-.13-1.09-.82-1.78-2.26-1.78-1.56 0-2.46.97-2.46 2.66 0 1.66.9 2.64 2.46 2.64zm0 0"/></symbol><symbol overflow="visible" id="c1d31c8ez"><path d="M5.95-6.77H1.1V0h.99v-2.92H5.3v-.77H2.08v-2.26h3.87zm0 0"/></symbol><symbol overflow="visible" id="c1d31c8eA"><path d="M2.73.14c.9 0 1.43-.45 1.74-1.08h.06l.13.94h.8v-5.02h-.94v2.7c0 .98-.57 1.62-1.46 1.62-.75 0-1.1-.4-1.1-1.22v-3.1h-.93v3.32c0 1.17.55 1.84 1.7 1.84zm0 0"/></symbol><symbol overflow="visible" id="c1d31c8eB"><path d="M.92-6.77V0h2.11c2.03 0 3.03-1.03 3.03-3.36 0-2.39-1.01-3.4-2.93-3.4zM1.91-.8v-5.17h1.18c1.29 0 1.96.63 1.96 2.61 0 1.94-.67 2.56-1.96 2.56zm0 0"/></symbol><symbol overflow="visible" id="c1d31c8eC"><path d="M2.16 0v-2.67c0-.99.59-1.63 1.46-1.63.74 0 1.07.38 1.07 1.22V0h.95v-3.31c0-1.2-.56-1.85-1.67-1.85-.92 0-1.49.46-1.77 1.08h-.06l-.12-.94H1.2V0zm0 0"/></symbol><symbol overflow="visible" id="c1d31c8eD"><path d="M3.42-.86h-.08L1.77-5.02H.8L2.73 0h.41c-.33.95-.72 1.27-1.45 1.27-.22 0-.49-.04-.69-.08l-.1.73c.2.06.58.11.87.11 1.2 0 1.7-.7 2.21-2.03l1.94-5.02H5zm0 0"/></symbol><symbol overflow="visible" id="c1d31c8eE"><path d="M3.92-7.14H1.36v.76h1.6v5.61H1.15V0H5.7v-.77H3.92zm0 0"/></symbol><symbol overflow="visible" id="c1d31c8eF"><path d="M3.16 2.03c1.67 0 2.4-.86 2.4-2.51v-4.54h-.81l-.13.91h-.06c-.26-.58-.8-1.05-1.73-1.05-1.42 0-2.24 1-2.24 2.52 0 1.6.75 2.56 2.2 2.56.94 0 1.5-.5 1.77-1.03h.05v.72c0 1.17-.42 1.67-1.45 1.67-.93 0-1.3-.34-1.41-.89L.8.5c.12.96.87 1.54 2.36 1.54zM3.06-.8c-.98 0-1.48-.57-1.48-1.82 0-1.13.5-1.75 1.48-1.75 1.06 0 1.58.76 1.58 1.75 0 .95-.56 1.82-1.58 1.82zm0 0"/></symbol><symbol overflow="visible" id="c1d31c8eG"><path d="M1.45-2.95c0 2.56 1.08 4.37 3.67 4.84l.11-.67C3.28.86 2.43-.75 2.43-2.95s.85-3.82 2.8-4.16l-.1-.69c-2.6.49-3.68 2.3-3.68 4.85zm0 0"/></symbol><symbol overflow="visible" id="c1d31c8eH"><path d="M2.84.14C3.8.14 4.33-.26 4.6-.9h.07L4.8 0h.76v-7.14h-.95v2.95h-.08c-.28-.6-.86-.97-1.67-.97-1.48 0-2.27.99-2.27 2.64C.6-.84 1.36.14 2.84.14zm.22-.8c-.98 0-1.48-.59-1.48-1.84s.5-1.86 1.48-1.86c1.13 0 1.58.8 1.58 1.86S4.2-.66 3.06-.66zm0 0"/></symbol><symbol overflow="visible" id="c1d31c8eI"><path d="M1.45-7.1c1.96.33 2.8 1.94 2.8 4.15 0 2.2-.84 3.8-2.8 4.17l.11.67c2.58-.47 3.67-2.28 3.67-4.84 0-2.55-1.09-4.36-3.67-4.85zm0 0"/></symbol></defs><g fill="#515151"><use xlink:href="#c1d31c8ea" x="128.46" y="152"/><use xlink:href="#c1d31c8eb" x="161.52" y="152"/></g><use xlink:href="#c1d31c8ec" x="192.3" y="152" fill="#fff"/><g fill="#515151"><use xlink:href="#c1d31c8ed" x="238.68" y="152"/><use xlink:href="#c1d31c8ee" x="251.28" y="152"/><use xlink:href="#c1d31c8ef" x="280.5" y="152"/><use xlink:href="#c1d31c8eg" x="306.36" y="152"/><use xlink:href="#c1d31c8eh" x="327.3" y="152"/><use xlink:href="#c1d31c8ei" x="345.6" y="152"/></g><use xlink:href="#c1d31c8ee" x="368.7" y="152" fill="#515151"/><use xlink:href="#c1d31c8ej" x="397.92" y="152" fill="#fff"/><use xlink:href="#c1d31c8ek" x="446.1" y="152" fill="#515151"/><g fill="#fff"><use xlink:href="#c1d31c8el" x="233.3333" y="252"/><use xlink:href="#c1d31c8em" x="240.0003" y="252"/><use xlink:href="#c1d31c8en" x="246.6673" y="252"/><use xlink:href="#c1d31c8eo" x="253.3343" y="252"/><use xlink:href="#c1d31c8ep" x="260.0013" y="252"/><use xlink:href="#c1d31c8eq" x="266.6683" y="252"/><use xlink:href="#c1d31c8er" x="273.3353" y="252"/><use xlink:href="#c1d31c8es" x="280.0023" y="252"/><use xlink:href="#c1d31c8et" x="286.6693" y="252"/><use xlink:href="#c1d31c8eo" x="293.3363" y="252"/><use xlink:href="#c1d31c8eq" x="300.0033" y="252"/><use xlink:href="#c1d31c8eu" x="306.6703" y="252"/><use xlink:href="#c1d31c8ev" x="313.3373" y="252"/><use xlink:href="#c1d31c8eo" x="320.0043" y="252"/><use xlink:href="#c1d31c8ew" x="326.6713" y="252"/><use xlink:href="#c1d31c8ex" x="333.3383" y="252"/><use xlink:href="#c1d31c8eu" x="340.0053" y="252"/><use xlink:href="#c1d31c8ey" x="346.6723" y="252"/><use xlink:href="#c1d31c8eo" x="353.3393" y="252"/><use xlink:href="#c1d31c8et" x="360.0063" y="252"/></g><g fill="#fff"><use xlink:href="#c1d31c8ez" x="170" y="266"/><use xlink:href="#c1d31c8em" x="176.667" y="266"/><use xlink:href="#c1d31c8eu" x="183.334" y="266"/><use xlink:href="#c1d31c8eo" x="190.001" y="266"/><use xlink:href="#c1d31c8eA" x="196.668" y="266"/><use xlink:href="#c1d31c8ev" x="203.335" y="266"/><use xlink:href="#c1d31c8em" x="210.002" y="266"/><use xlink:href="#c1d31c8ep" x="216.669" y="266"/><use xlink:href="#c1d31c8eq" x="223.336" y="266"/><use xlink:href="#c1d31c8eB" x="230.003" y="266"/><use xlink:href="#c1d31c8ew" x="236.67" y="266"/><use xlink:href="#c1d31c8et" x="243.337" y="266"/><use xlink:href="#c1d31c8ey" x="250.004" y="266"/><use xlink:href="#c1d31c8ev" x="256.671" y="266"/><use xlink:href="#c1d31c8em" x="263.338" y="266"/><use xlink:href="#c1d31c8eo" x="270.005" y="266"/><use xlink:href="#c1d31c8ew" x="276.672" y="266"/><use xlink:href="#c1d31c8es" x="283.339" y="266"/><use xlink:href="#c1d31c8eC" x="290.006" y="266"/><use xlink:href="#c1d31c8eu" x="296.673" y="266"/><use xlink:href="#c1d31c8ev" x="303.34" y="266"/><use xlink:href="#c1d31c8eD" x="310.007" y="266"/><use xlink:href="#c1d31c8eq" x="316.674" y="266"/><use xlink:href="#c1d31c8eE" x="323.341" y="266"/><use xlink:href="#c1d31c8ew" x="330.008" y="266"/><use xlink:href="#c1d31c8eF" x="336.675" y="266"/><use xlink:href="#c1d31c8eu" x="343.342" y="266"/><use xlink:href="#c1d31c8eo" x="350.009" y="266"/><use xlink:href="#c1d31c8eA" x="356.676" y="266"/><use xlink:href="#c1d31c8ev" x="363.343" y="266"/><use xlink:href="#c1d31c8em" x="370.01" y="266"/><use xlink:href="#c1d31c8et" x="376.677" y="266"/><use xlink:href="#c1d31c8eq" x="383.344" y="266"/><use xlink:href="#c1d31c8eG" x="390.011" y="266"/><use xlink:href="#c1d31c8eH" x="396.678" y="266"/><use xlink:href="#c1d31c8eE" x="403.345" y="266"/><use xlink:href="#c1d31c8ew" x="410.012" y="266"/><use xlink:href="#c1d31c8eF" x="416.679" y="266"/><use xlink:href="#c1d31c8eI" x="423.346" y="266"/></g></svg>