<?xml version='1.0' encoding='UTF-8'?>
<svg xmlns="http://www.w3.org/2000/svg" xmlns:xlink="http://www.w3.org/1999/xlink" width="600px" height="300px" viewBox="0 0 600 300" x="0px" y="0px" enable-background="new 0 0 600 300"><defs><symbol overflow="visible" id="a3c98ef3a"><path d="M2.4.06c2.58 0 4.97-.12 7.62-.12h6.9c4.2 0 10.38 0 14.1.12l.48-.48c.48-3.78.66-7.5.66-11.28a5.66 5.66 0 00-3.18-.24 90.6 90.6 0 01-2.17 8.03h-14.1v-24.04c0-3.55.07-6.07.24-8.28 2.24-.2 4.27-.61 6.07-1.15a6.61 6.61 0 00-.43-2.89c-1.8.13-5.8.13-7.9.13-2.9 0-5.47-.13-8.28-.13a8.14 8.14 0 00-.49 2.9c1.74.17 3.49.59 5.22 1.14.17 2.21.3 4.73.3 8.28v20.32c0 1.27-.07 2.54-.3 3.68-1.73.53-3.48.95-5.22 1.14 0 .95.13 1.9.49 2.87zm0 0"/></symbol><symbol overflow="visible" id="a3c98ef3b"><path d="M2.28-12.6c2.58 0 4.56-.12 6.9-.12 1.98 0 4.87 0 6.6.13.3-.91.42-1.86.36-2.9a21.09 21.09 0 00-4.27-1.13 45.88 45.88 0 01-.23-4.97v-6.36c0-3.55.06-6.07.23-8.28 1.82-.32 2.83-.61 4.27-1.15a7.67 7.67 0 00-.36-2.89c-1.73.13-4.62.13-6.6.13-2.34 0-4.32-.13-6.9-.13a8.14 8.14 0 00-.48 2.9c1.75.23 2.89.59 4.62 1.14.17 2.21.3 4.73.3 8.28v7.67c0 1.26-.06 2.51-.3 3.66-1.73.54-2.87.9-4.62 1.14 0 .96.12 1.92.48 2.89zM18 .9c10.44 0 14.64-6 14.64-15v-13.85c0-3.55.06-6.07.23-8.28a19.8 19.8 0 004.86-1.15 7.37 7.37 0 00-.35-2.89c-1.86.13-5.88.13-7.97.13-2.83 0-4.2-.13-6.97-.13a7.01 7.01 0 00-.53 2.9c2.09.3 3.04.59 5.15 1.14.17 2.21.3 4.73.3 8.28v14.93c0 2.7-.23 5.75-1.73 7.57-.97 1.14-2.58 2.03-5.77 2.03-3.95 0-7.44-1.86-9.84-3.49-1.57 1.46-2.33 3.32-2.7 5.41A24.58 24.58 0 0018 .9zm0 0"/></symbol><symbol overflow="visible" id="a3c98ef3c"><path d="M32.4.3c1.91-.07 3.9-.36 5.65-.85v-27.4c0-3.55.04-6.07.23-8.28 1.8-.2 3.42-.61 4.86-1.15a7.67 7.67 0 00-.36-2.89c-1.73.13-5.34.13-6.9.13-2.16 0-4.57-.13-7.15-.13a8.12 8.12 0 00-.46 2.9c1.73.17 3.46.59 5.21 1.14.18 2.21.3 4.73.3 8.28v22.3h-.06l-1.63-5.4L14.7-39.9a47.9 47.9 0 00-5.15-.23c-2.18 0-4.57-.13-7.14-.13a8.14 8.14 0 00-.49 2.9c1.74.17 3.49.59 5.22 1.14.17 2.21.3 4.73.3 8.28v20.32c0 1.27-.07 2.54-.3 3.68-1.73.53-3.48.95-5.22 1.14 0 .95.13 1.9.49 2.87 2.57 0 4.96-.12 7.14-.12 1.54 0 5.15 0 6.89.12.3-.9.42-1.86.36-2.87a18.63 18.63 0 00-4.86-1.14 46.18 46.18 0 01-.24-4.99V-36.3h.07l1.73 5.4zm0 0"/></symbol><symbol overflow="visible" id="a3c98ef3d"><path d="M19.27.19c9.95 0 14.21-7.03 14.21-13.4 0-4.24-2.93-8.02-8.89-9.23 4.7-2.1 5.83-5.7 5.83-8.83 0-5.21-4.08-9.1-9.65-9.1-2.9 0-6.49.23-10.75.23-2.64 0-5.04-.13-7.61-.13a8.14 8.14 0 00-.49 2.9c1.74.17 3.49.59 5.22 1.14.17 2.21.3 4.73.3 8.28v17.8c0 2 0 4.28-.3 6.2-1.73.53-3.48.95-5.22 1.14 0 .95.13 1.9.49 2.87 2.57 0 4.96-.12 7.6-.12 3.55 0 6.3.25 9.26.25zm-.85-36.67c3.72 0 6.53 3.06 6.53 6.9 0 3.24-2.32 6.42-7.73 6.42h-4.5V-36.3c1.92-.06 4.08-.18 5.7-.18zm.53 17.34c5.05 0 9.07 3.23 9.07 7.44 0 3.48-1.08 5.34-2.64 6.65-.36.32-3 1.2-6.96 1.2h-5.7v-15.3zm0 0"/></symbol><symbol overflow="visible" id="a3c98ef3e"><path d="M19.86 1.08c11.16 0 16.08-6.6 16.08-15.9v-13.13c0-3.55.06-6.07.25-8.28 1.8-.2 3.4-.61 4.86-1.15a8 8 0 00-.36-2.89c-1.75.13-4.75.13-6.42.13-2.65 0-5.05-.13-7.63-.13a8.14 8.14 0 00-.48 2.9c1.75.17 3.48.59 5.21 1.14.2 2.21.32 4.73.32 8.28v13.86c0 5.32-1.75 7.96-2.47 8.75-.84.9-3.95 2.1-7.31 2.1-8.05 0-10.5-3.9-10.5-12.67v-12.04c0-3.55 0-6.07.17-8.28 1.8-.2 3.42-.61 4.86-1.15a7.67 7.67 0 00-.36-2.89c-1.74.13-5.4.13-7.38.13-2.64 0-5.04-.13-7.62-.13a8.14 8.14 0 00-.49 2.9c1.75.17 3.49.59 5.22 1.14.19 2.21.32 4.73.32 8.28v13.9c0 10.82 4.73 15.13 13.73 15.13zm0 0"/></symbol><symbol overflow="visible" id="a3c98ef3f"><path d="M16.08.9c8.51 0 13.73-6 13.73-13.5 0-5.63-4.8-8.7-9.3-10.32l-5.15-1.86c-2.81-1.02-6.23-3.24-6.23-6.78 0-2.1.71-3.36 1.73-4.25.36-.31 2.87-.97 5.7-.97 2.52 0 4.92.23 6.9.78.48 1.92.73 3.84.9 5.88.84.48 1.92.54 3.12.25A36.52 36.52 0 0028.8-39a34.86 34.86 0 00-11.58-2.1c-6.13 0-13.56 3-13.56 11.4 0 6.06 5.76 8.76 10.2 10.43l4.37 1.7c3.07 1.13 6 3.41 6 6.52 0 2.83-.65 4.82-2.03 6.13-.3.3-2.89 1.5-5.76 1.5-3.42 0-5.94-.36-8.1-1.08-.48-2.64-.71-5.1-.84-7.31a5.14 5.14 0 00-3.19-.25A50.92 50.92 0 002.88-1.73C5.88-.13 10.86.9 16.07.9zm0 0"/></symbol><symbol overflow="visible" id="a3c98ef3g"><path d="M3.83 0v-5.95H6.2v-.82H.45v.82h2.4V0zm0 0"/></symbol><symbol overflow="visible" id="a3c98ef3h"><path d="M5.75-2.23v-.43c0-1.6-.9-2.51-2.42-2.51S.87-4.16.87-2.48c0 1.71.91 2.62 2.5 2.62 1.43 0 2.07-.56 2.29-1.52l-.9-.09c-.18.61-.59.9-1.35.9-.94 0-1.52-.54-1.58-1.66zm-2.4-2.2c.93 0 1.43.5 1.48 1.55H1.84c.08-1.07.6-1.56 1.5-1.56zm0 0"/></symbol><symbol overflow="visible" id="a3c98ef3i"><path d="M1.83 0l1.42-2h.06l1.46 2H5.8L4-2.53l1.78-2.49H4.8L3.42-3.08h-.08l-1.4-1.94H.89l1.78 2.49L.84 0zm0 0"/></symbol><symbol overflow="visible" id="a3c98ef3j"><path d="M5.52-4.25v-.77H3.17v-1.56h-.81l-.14 1.56H.75v.77h1.47v2.4c0 1.3.48 1.94 1.84 1.94C4.6.1 5.14 0 5.55-.14L5.4-.91c-.32.13-.72.2-1.13.2-.8 0-1.1-.37-1.1-1.23v-2.31zm0 0"/></symbol><symbol overflow="visible" id="a3c98ef3k"><path d="M3.33-3.42c.47 0 .8-.27.8-.8 0-.51-.33-.8-.8-.8-.47 0-.8.29-.8.8 0 .53.33.8.8.8zm0 3.5c.47 0 .8-.27.8-.78 0-.53-.33-.82-.8-.82-.47 0-.8.29-.8.82 0 .51.33.78.8.78zm0 0"/></symbol><symbol overflow="visible" id="a3c98ef3m"><path d="M2.08-6.77h-.99V0h4.79v-.81h-3.8zm0 0"/></symbol><symbol overflow="visible" id="a3c98ef3n"><path d="M3.83-5.97h1.73v-.8H1.1v.8h1.75v5.19H1.1V0h4.47v-.78H3.83zm0 0"/></symbol><symbol overflow="visible" id="a3c98ef3o"><path d="M5.56-6.77h-3.8v.83h2.82v3.44c0 1.23-.28 1.81-1.36 1.81-.94 0-1.24-.48-1.33-1.3l-.03-.15-.92.1.01.18c.13 1.25.78 2 2.28 2 1.7 0 2.33-.86 2.33-2.64zm0 0"/></symbol><symbol overflow="visible" id="a3c98ef3p"><path d="M1.84 0v-4.48l-.06-.99h.1L4.46 0h1.28v-6.77h-.92v4.4l.06 1.03h-.1L2.21-6.77H.92V0zm0 0"/></symbol><symbol overflow="visible" id="a3c98ef3q"><path d="M4.66-3.45c.76-.14 1.15-.67 1.15-1.57 0-1.07-.64-1.75-2.18-1.75H.92V0h2.71C5.2 0 5.98-.64 5.98-1.77c0-1.03-.56-1.43-1.32-1.59zM3.56-6c.9 0 1.31.4 1.31 1.13 0 .71-.4 1.14-1.3 1.14h-1.7V-6zM1.87-.75v-2.27H3.6c.97 0 1.44.33 1.44 1.13 0 .8-.47 1.14-1.44 1.14zm0 0"/></symbol><symbol overflow="visible" id="a3c98ef3r"><path d="M3.33.14c1.7 0 2.51-.86 2.51-2.69v-4.22h-.98v4.2c0 1.41-.47 1.9-1.53 1.9S1.8-1.16 1.8-2.57v-4.2H.8v4.22c0 1.83.81 2.7 2.52 2.7zm0 0"/></symbol><symbol overflow="visible" id="a3c98ef3s"><path d="M3.42.14c1.61 0 2.56-.75 2.56-2 0-1.1-.67-1.6-1.95-1.86l-.97-.2c-.87-.17-1.23-.49-1.23-1.11 0-.7.54-1.11 1.5-1.11 1.06 0 1.51.34 1.69 1.23l.9-.09c-.17-1.28-.98-1.9-2.6-1.9C1.79-6.9.9-6.18.9-4.98c0 1.06.66 1.66 1.88 1.9l1.01.2c.85.17 1.25.4 1.25 1.09 0 .73-.6 1.16-1.6 1.16-1.07 0-1.66-.4-1.8-1.24l-.94.1C.83-.53 1.75.13 3.42.13zm0 0"/></symbol><symbol overflow="visible" id="a3c98ef3t"><path d="M5.95-6.77H1.1V0h.99v-2.92H5.3v-.77H2.08v-2.26h3.87zm0 0"/></symbol><symbol overflow="visible" id="a3c98ef3u"><path d="M2.83.14c.94 0 1.5-.39 1.81-.95h.08l.1.81h.76v-3.38c0-1.23-.69-1.8-2.13-1.8-1.43 0-2.03.65-2.18 1.6l.93.1c.11-.6.44-.93 1.22-.93.85 0 1.22.32 1.22 1.04v.34l-1.81.2C1.6-2.7 1.1-2.17 1.1-1.28c0 .92.64 1.42 1.72 1.42zm.25-.77c-.67 0-1.02-.28-1.02-.74 0-.44.28-.72 1-.82l1.58-.19v.41c0 .8-.6 1.34-1.56 1.34zm0 0"/></symbol><symbol overflow="visible" id="a3c98ef3v"><path d="M2.73.14c.9 0 1.43-.45 1.74-1.08h.06l.13.94h.8v-5.02h-.94v2.7c0 .98-.57 1.62-1.46 1.62-.75 0-1.1-.4-1.1-1.22v-3.1h-.93v3.32c0 1.17.55 1.84 1.7 1.84zm0 0"/></symbol><symbol overflow="visible" id="a3c98ef3w"><path d="M5.08-5.16c-.94 0-1.58.43-1.9 1.3h-.09l-.07-1.16H1.05v.77h1.1v3.48H.96V0h3.96v-.77H3.1v-1.46c0-1.36.6-2.05 1.83-2.05.4 0 .76.08 1.1.17l.15-.87c-.33-.11-.7-.18-1.11-.18zm0 0"/></symbol><symbol overflow="visible" id="a3c98ef3x"><path d="M6.17 0L3.98-6.77h-1.3L.5 0h.97l.44-1.47h2.78L5.16 0zM3.28-5.94h.08l1.1 3.74H2.15zm0 0"/></symbol><symbol overflow="visible" id="a3c98ef3y"><path d="M3.92-7.14H1.36v.76h1.6v5.61H1.15V0H5.7v-.77H3.92zm0 0"/></symbol><symbol overflow="visible" id="a3c98ef3z"><path d="M2.16 0v-2.67c0-.99.59-1.63 1.46-1.63.74 0 1.07.38 1.07 1.22V0h.95v-3.31c0-1.2-.56-1.85-1.67-1.85-.92 0-1.49.46-1.77 1.08h-.06l-.12-.94H1.2V0zm0 0"/></symbol><symbol overflow="visible" id="a3c98ef3A"><path d="M3.58-5.81c.42 0 .72-.22.72-.67 0-.44-.3-.68-.72-.68-.44 0-.72.24-.72.68 0 .45.28.67.72.67zm.5.8H1.52v.76h1.6v3.48h-1.8V0h4.46v-.77h-1.7zm0 0"/></symbol><symbol overflow="visible" id="a3c98ef3B"><path d="M3.9 0l2-5.02h-.96L3.4-.94h-.07L1.8-5.02H.77L2.78 0zm0 0"/></symbol><symbol overflow="visible" id="a3c98ef3C"><path d="M.92-6.77V0h2.11c2.03 0 3.03-1.03 3.03-3.36 0-2.39-1.01-3.4-2.93-3.4zM1.91-.8v-5.17h1.18c1.29 0 1.96.63 1.96 2.61 0 1.94-.67 2.56-1.96 2.56zm0 0"/></symbol><symbol overflow="visible" id="a3c98ef3D"><path d="M3.34.14c1.43 0 2.13-.66 2.25-1.78l-.89-.1c-.1.7-.5 1.08-1.34 1.08-1.03 0-1.52-.64-1.52-1.84 0-1.23.47-1.86 1.52-1.86.84 0 1.23.36 1.34 1.08l.9-.1c-.13-1.09-.82-1.78-2.26-1.78-1.56 0-2.46.97-2.46 2.66 0 1.66.9 2.64 2.46 2.64zm0 0"/></symbol><symbol overflow="visible" id="a3c98ef3E"><path d="M2.16 0v-2.69c0-.98.6-1.6 1.46-1.6.74 0 1.07.4 1.07 1.2V0h.95v-3.31c0-1.17-.56-1.85-1.67-1.85-.9 0-1.44.46-1.75 1.08h-.06v-3.06H1.2V0zm0 0"/></symbol><symbol overflow="visible" id="a3c98ef3F"><path d="M3.38-5.9c.12-.5.42-1.04.67-1.41l-.63-.22a4.28 4.28 0 00-1.01 2.39c0 .66.3 1 .9 1 .6 0 .9-.33.9-.9 0-.57-.32-.83-.83-.85zm0 0"/></symbol><symbol overflow="visible" id="a3c98ef3G"><path d="M3.3-7.53c-.55 0-.85.3-.85.84 0 .55.36.8.83.8h.03a5.1 5.1 0 01-.69 1.47l.52.23a4.29 4.29 0 001.02-2.4c0-.63-.33-.94-.86-.94zm0 0"/></symbol><symbol overflow="visible" id="a3c98ef3H"><path d="M1.45-2.95c0 2.56 1.08 4.37 3.67 4.84l.11-.67C3.28.86 2.43-.75 2.43-2.95s.85-3.82 2.8-4.16l-.1-.69c-2.6.49-3.68 2.3-3.68 4.85zm0 0"/></symbol><symbol overflow="visible" id="a3c98ef3I"><path d="M3.36.16c1.4 0 2.2-.6 2.2-1.57 0-.89-.54-1.22-1.47-1.39L3-3c-.67-.14-.86-.33-.86-.73 0-.5.4-.74 1.17-.74.83 0 1.19.27 1.27.8l.9-.05c-.12-1-.8-1.47-2.17-1.47-1.34 0-2.1.53-2.1 1.5 0 .81.45 1.22 1.52 1.44l1.04.2c.56.11.87.24.87.72 0 .52-.45.78-1.28.78-.95 0-1.36-.28-1.42-.87l-.9.06C1.07-.36 1.8.16 3.35.16zm0 0"/></symbol><symbol overflow="visible" id="a3c98ef3J"><path d="M3.33.14c1.65 0 2.6-1.1 2.6-3.52S4.99-6.9 3.34-6.9C1.67-6.9.72-5.8.72-3.37c0 2.4.95 3.51 2.6 3.51zm0-.84c-1.13 0-1.6-.85-1.6-2.67 0-1.86.47-2.7 1.6-2.7 1.12 0 1.6.84 1.6 2.7 0 1.82-.48 2.67-1.6 2.67zM3.3-2.64c.38 0 .56-.28.56-.72 0-.44-.18-.7-.56-.7-.39 0-.56.26-.56.7 0 .44.17.72.56.72zm0 0"/></symbol><symbol overflow="visible" id="a3c98ef3K"><path d="M4.22-6.77h-.86l-2.03.7v.87c.64-.17 1.26-.38 1.89-.55v4.9H1.03V0h4.9v-.86H4.21zm0 0"/></symbol><symbol overflow="visible" id="a3c98ef3L"><path d="M1.45-7.1c1.96.33 2.8 1.94 2.8 4.15 0 2.2-.84 3.8-2.8 4.17l.11.67c2.58-.47 3.67-2.28 3.67-4.84 0-2.55-1.09-4.36-3.67-4.85zm0 0"/></symbol></defs><use xlink:href="#a3c98ef3a" x="187.11" y="152" fill="#515151"/><use xlink:href="#a3c98ef3b" x="220.17" y="152" fill="#fff"/><g fill="#515151"><use xlink:href="#a3c98ef3c" x="258.57" y="152"/><use xlink:href="#a3c98ef3d" x="303.03" y="152"/><use xlink:href="#a3c98ef3e" x="338.55" y="152"/><use xlink:href="#a3c98ef3f" x="380.25" y="152"/></g><g fill="#fff"><use xlink:href="#a3c98ef3g" x="256.6667" y="252"/><use xlink:href="#a3c98ef3h" x="263.3337" y="252"/><use xlink:href="#a3c98ef3i" x="270.0007" y="252"/><use xlink:href="#a3c98ef3j" x="276.6677" y="252"/><use xlink:href="#a3c98ef3k" x="283.3347" y="252"/><use xlink:href="#a3c98ef3l" x="290.0017" y="252"/><use xlink:href="#a3c98ef3m" x="296.6687" y="252"/><use xlink:href="#a3c98ef3n" x="303.3357" y="252"/><use xlink:href="#a3c98ef3o" x="310.0027" y="252"/><use xlink:href="#a3c98ef3p" x="316.6697" y="252"/><use xlink:href="#a3c98ef3q" x="323.3367" y="252"/><use xlink:href="#a3c98ef3r" x="330.0037" y="252"/><use xlink:href="#a3c98ef3s" x="336.6707" y="252"/></g><g fill="#fff"><use xlink:href="#a3c98ef3t" x="173.3333" y="266"/><use xlink:href="#a3c98ef3h" x="180.0003" y="266"/><use xlink:href="#a3c98ef3u" x="186.6673" y="266"/><use xlink:href="#a3c98ef3j" x="193.3343" y="266"/><use xlink:href="#a3c98ef3v" x="200.0013" y="266"/><use xlink:href="#a3c98ef3w" x="206.6683" y="266"/><use xlink:href="#a3c98ef3h" x="213.3353" y="266"/><use xlink:href="#a3c98ef3k" x="220.0023" y="266"/><use xlink:href="#a3c98ef3l" x="226.6693" y="266"/><use xlink:href="#a3c98ef3x" x="233.3363" y="266"/><use xlink:href="#a3c98ef3y" x="240.0033" y="266"/><use xlink:href="#a3c98ef3j" x="246.6703" y="266"/><use xlink:href="#a3c98ef3h" x="253.3373" y="266"/><use xlink:href="#a3c98ef3w" x="260.0043" y="266"/><use xlink:href="#a3c98ef3z" x="266.6713" y="266"/><use xlink:href="#a3c98ef3u" x="273.3383" y="266"/><use xlink:href="#a3c98ef3j" x="280.0053" y="266"/><use xlink:href="#a3c98ef3A" x="286.6723" y="266"/><use xlink:href="#a3c98ef3B" x="293.3393" y="266"/><use xlink:href="#a3c98ef3h" x="300.0063" y="266"/><use xlink:href="#a3c98ef3l" x="306.6733" y="266"/><use xlink:href="#a3c98ef3C" x="313.3403" y="266"/><use xlink:href="#a3c98ef3v" x="320.0073" y="266"/><use xlink:href="#a3c98ef3j" x="326.6743" y="266"/><use xlink:href="#a3c98ef3D" x="333.3413" y="266"/><use xlink:href="#a3c98ef3E" x="340.0083" y="266"/><use xlink:href="#a3c98ef3l" x="346.6753" y="266"/><use xlink:href="#a3c98ef3F" x="353.3423" y="266"/><use xlink:href="#a3c98ef3n" x="360.0093" y="266"/><use xlink:href="#a3c98ef3o" x="366.6763" y="266"/><use xlink:href="#a3c98ef3G" x="373.3433" y="266"/><use xlink:href="#a3c98ef3l" x="380.0103" y="266"/><use xlink:href="#a3c98ef3H" x="386.6773" y="266"/><use xlink:href="#a3c98ef3I" x="393.3443" y="266"/><use xlink:href="#a3c98ef3I" x="400.0113" y="266"/><use xlink:href="#a3c98ef3J" x="406.6783" y="266"/><use xlink:href="#a3c98ef3K" x="413.3453" y="266"/><use xlink:href="#a3c98ef3L" x="420.0123" y="266"/></g></svg>