<?xml version='1.0' encoding='UTF-8'?>
<svg xmlns="http://www.w3.org/2000/svg" xmlns:xlink="http://www.w3.org/1999/xlink" width="600px" height="300px" viewBox="0 0 600 300" x="0px" y="0px" enable-background="new 0 0 600 300"><defs><symbol overflow="visible" id="6b2d12b5a"><path d="M2.4.06c2.58 0 4.97-.12 7.62-.12 1.98 0 5.7 0 7.43.12.32-.9.43-1.86.36-2.87a18.48 18.48 0 00-4.86-1.14 46.18 46.18 0 01-.23-4.99V-19.2h7.56c4.02 0 8.16.12 12.36.3v9.24c0 1.86 0 3.9-.3 5.7-1.75.54-3.48.96-5.22 1.15 0 .95.11 1.9.47 2.87 2.6 0 4.99-.12 7.63-.12 1.98 0 5.7 0 7.44.12.3-.9.42-1.86.36-2.87a18.63 18.63 0 00-4.86-1.14 46.18 46.18 0 01-.24-4.99v-16.92c0-4.62 0-7.73.24-10.37 1.8-.2 3.42-.61 4.86-1.15a7.67 7.67 0 00-.36-2.89c-1.74.13-5.46.13-7.44.13-2.64 0-5.03-.13-7.63-.13a8.12 8.12 0 00-.46 2.9c1.73.17 3.46.59 5.21 1.14.18 2.21.3 4.73.3 8.28v5.03H12.72v-2.94c0-4.62 0-7.73.23-10.37a19.8 19.8 0 004.86-1.15 7.37 7.37 0 00-.36-2.89c-1.73.13-5.45.13-7.43.13-2.64 0-5.04-.13-7.61-.13a8.14 8.14 0 00-.49 2.9c1.74.17 3.49.59 5.22 1.14.17 2.21.3 4.73.3 8.28v18.3c0 1.85 0 3.88-.3 5.7-1.73.53-3.48.95-5.22 1.14 0 .95.13 1.9.49 2.87zm0 0"/></symbol><symbol overflow="visible" id="6b2d12b5b"><path d="M10.5-46.98c-2.7 0-5.28.54-7.73 1.75 0 2.64.3 4.54.82 6.46.97.32 1.86.25 2.9 0 .06-1.5.23-3.04.59-4.5.65-.1 1.5-.23 2.15-.23 2.22 0 3.68 1.69 3.68 3.9 0 3-4.7 6.6-10.86 10.74 0 1.44.17 2.81.6 3.95h6c2.8 0 6.9 0 9.35.13l.42-.42c.3-1.08.3-2.52 0-3.6H7.27l2.51-1.62c4.27-2.77 8.1-6.36 8.1-10.56 0-2.88-3-6-7.38-6zm0 0"/></symbol><symbol overflow="visible" id="6b2d12b5c"><path d="M2.7-33.13l10.57-.1c.3-1.15.23-2.22 0-3.36l-10.5.17a7.34 7.34 0 00-.07 3.3zm0 0"/></symbol><symbol overflow="visible" id="6b2d12b5d"><path d="M17.58-42c0-2.77-3.17-4.98-7.02-4.98-2.83 0-5.34.54-7.86 1.75 0 2.21.3 4.07.85 5.75.95.25 1.86.18 2.87 0 .06-1.32.24-2.65.6-3.83.67-.13 1.5-.19 2.28-.19 2.04 0 3.3 1.2 3.3 2.58 0 1.37-1.44 3-4.32 3.06a6.79 6.79 0 00-.48 3.06l.42.42c.42-.06.9-.06 1.37-.06 2.18 0 3.97 1.31 3.97 3.13 0 1.12-.19 2.15-1.01 2.75-.36.25-1.86.65-3.2.65-.9 0-1.79-.04-2.44-.23-.49-1.38-.72-2.77-.97-4.2a8.07 8.07 0 00-2.75.18c-.38 1.93-.55 3.9-.55 6.6 2.16.72 4.31 1.14 6.66 1.14 5.1 0 9.25-3.6 9.25-7.67 0-2.18-1.4-4.2-4.63-4.99 2.28-1.01 3.66-2.76 3.66-4.92zm0 0"/></symbol><symbol overflow="visible" id="6b2d12b5e"><path d="M3-35.81C3-30.12 4.98-24.36 10.14-18a4.1 4.1 0 002.52-1.38C9-25.55 7.92-30.84 7.92-35.4c0-5.32 1.14-10.43 4.74-16.6-.47-.79-1.32-1.27-2.46-1.44C4.98-47.05 3-41.41 3-35.81zm0 0"/></symbol><symbol overflow="visible" id="6b2d12b5f"><path d="M7.98-24.42c4.44 0 7.86-1.92 7.86-5.81 0-5.7-9.48-4.93-9.48-8.05 0-.78.12-1.67 3-1.67.84 0 1.5.1 2.05.3.3.84.46 1.8.59 2.7.78.3 1.8.3 2.77.04.42-1.3.71-3.1.71-4.9-1.68-.49-3.9-.74-6.3-.74-3.37 0-7.26 1.4-7.26 5.4 0 3.43 3.72 4.57 6.78 5.59 1.44.48 2.46 1.2 2.46 2.34 0 1.38-.6 1.99-2.94 1.99-1.14 0-2.45-.2-3.06-.43-.18-1.03-.3-2.15-.36-3.25-.96-.3-1.8-.3-2.7 0a19.2 19.2 0 00-.79 5.47c1.46.53 3.85 1.02 6.67 1.02zm0 0"/></symbol><symbol overflow="visible" id="6b2d12b5g"><path d="M9.23-24.36c2.64 0 4.5-1.33 6.13-3 .48 1.67 1.37 3 2.45 3 1.82 0 3.85-1.08 5.17-2.34 0-.66-.3-1.14-.71-1.5-.79.18-1.7.36-2.58.48v-4.56c0-3.6 0-6.42.04-9.42l-.36-.36h-1.73c-2.28 0-3.78-.06-5.28-.13-.13.55-.23 1.4-.23 2.24 1.01.17 1.96.4 2.93.76v9.13c-1.26 1.14-2.94 2.22-4.26 2.22-1.74 0-2.58-1.38-2.58-4.32 0-2.04 0-6.25.06-9.54l-.42-.36H6.19c-2.35 0-3.85-.06-5.4-.13-.2.55-.24 1.4-.24 2.24 1.07.17 2.03.4 3.04.76v8.96c0 3.95 2.11 5.87 5.64 5.87zm0 0"/></symbol><symbol overflow="visible" id="6b2d12b5h"><path d="M.9-15.78c1.55 0 3.18-.13 5.4-.13 2.04 0 4.56.07 6.72.13.12-.42.25-1.44.25-2.16a21.3 21.3 0 00-4.63-.65c-.06-.85-.12-1.75-.12-2.7v-4.4a8.6 8.6 0 004.26 1.27c4.92 0 8.4-4.99 8.4-9.49 0-5.32-2.88-8.68-7.09-8.68-2.51 0-4.5.95-5.93 2.09l-.54-1.8-.48-.25c-2.34.13-4.62.61-6.48 1.27-.18.6-.07 1.33.12 1.98 1.02.11 2.1.3 3.13.6v18.12c0 .72-.07 1.2-.2 2.03-.77.25-2.02.49-3.12.61 0 .78.13 1.74.32 2.16zM12.24-39.3c2.83 0 4.27 3.11 4.27 6.36 0 1.92-.66 3.66-1.69 4.67-.3.32-1.19.68-2.03.68-1.5 0-3.12-.61-4.26-1.57v-9a9.14 9.14 0 013.71-1.14zm0 0"/></symbol><symbol overflow="visible" id="6b2d12b5i"><path d="M6.78-24.9c2.03 0 3.49.18 5.03.18 4.99 0 8.17-2.47 8.17-5.7 0-1.8-1.56-3.49-4.43-4.02 2.51-1.01 3.3-2.28 3.3-3.72 0-2.34-2.41-4.03-5.83-4.03-1.61 0-3.83.13-6.43.13-2.03 0-3.65-.13-5.15-.13-.24.74-.3 1.5-.3 2.24 1.02.1 2.1.3 3.13.65a12 12 0 01.17 1.99v7.67c0 .66-.07 1.5-.17 1.98-1.04.36-2.11.54-3.13.66 0 .72.06 1.5.3 2.22 1.5 0 3.25-.13 5.34-.13zm4.5-14.58c1.86 0 2.88.96 2.88 2.1 0 1.2-1.08 2.29-3.85 2.29H8.94v-4.33c.78 0 1.56-.06 2.34-.06zm-.06 6.84c2.83 0 4.08.95 4.08 2.52 0 1.03-.36 1.85-1.02 2.28-.23.18-1.44.36-3.84.36h-1.5v-5.16zm0 0"/></symbol><symbol overflow="visible" id="6b2d12b5j"><path d="M9.78-24.36c2.7 0 5.94-1.37 7.8-2.7-.13-.9-.3-1.5-.9-1.99-2.27.85-4.02 1.27-5.63 1.27-3.49 0-4.82-2.94-5.05-5.52h2.77c2.8 0 5.8.07 8.09.11l.36-.4c.23-.49.3-1.27.3-2.05 0-3.06-1.57-6.95-7.25-6.95-5.22 0-8.96 4.9-8.96 9.53 0 4.86 2.53 8.7 8.47 8.7zM7.63-39c.35-.36 1.37-.55 1.96-.55 2.7 0 3.25 1.86 3.25 3.85H6.06c.24-1.44.9-2.58 1.57-3.3zm0 0"/></symbol><symbol overflow="visible" id="6b2d12b5k"><path d="M.9-15.78c1.55 0 3.18-.13 5.4-.13 2.04 0 4.56.07 6.72.13.12-.42.25-1.44.25-2.16a21.3 21.3 0 00-4.63-.65c-.06-.85-.12-1.75-.12-2.7v-4.4a8.6 8.6 0 004.26 1.27c4.92 0 8.4-4.99 8.4-9.49 0-5.32-2.88-8.68-7.09-8.68-2.51 0-4.5.95-5.93 2.09l-.54-1.8-.48-.25c-2.34.13-4.62.61-6.48 1.27-.18.6-.07 1.33.12 1.98 1.02.11 2.1.3 3.13.6v18.12c0 .72-.07 1.2-.2 2.03-.77.25-2.02.49-3.12.61 0 .78.13 1.74.32 2.16zM12.24-39.3c2.83 0 4.27 3.11 4.27 6.36 0 1.92-.66 3.66-1.69 4.67-.3.32-1.19.68-2.03.68-1.5 0-3.12-.61-4.26-1.57v-9a9.14 9.14 0 013.71-1.14zm0 0"/></symbol><symbol overflow="visible" id="6b2d12b5l"><path d="M.66-24.78c1.32 0 2.57-.13 4.2-.13.9 0 2.45.07 4.37.13.25-.66.25-1.44.25-2.22l-2.46-.6 3.3-4.09 3.54 4.1-2.16.59c0 .78.11 1.69.36 2.22 1.31 0 3.17-.13 5.94-.13 1.31 0 2.58.07 3.84.13.24-.72.3-1.44.24-2.22-.78-.3-1.74-.48-2.7-.6l-5.22-5.95 4.8-5.8c.84-.13 1.68-.3 2.46-.6.06-.78 0-1.5-.23-2.24-.97.06-1.99.13-3.07.13-2.04 0-3.54-.13-4.75-.13-.17.55-.3 1.46-.3 2.24l2.05.6-2.89 3.65L9-39.36l1.92-.6c.06-.77.06-1.5-.19-2.23-2.68.06-3.95.13-5.21.13-1.61 0-3.3-.13-4.38-.13-.19.55-.3 1.46-.3 2.24.85.1 2.16.36 2.75.6l4.75 5.44-5.15 6.32c-.67.3-1.88.46-2.77.59 0 .78.06 1.69.24 2.22zm0 0"/></symbol><symbol overflow="visible" id="6b2d12b5m"><path d="M10.69-35.7c0-5.7-1.99-11.4-7.14-17.75-1.03.1-1.92.6-2.53 1.37 3.6 6.17 4.75 11.4 4.75 16.02 0 5.28-1.14 10.37-4.82 16.56.49.78 1.27 1.27 2.47 1.5 5.22-6.42 7.27-12.13 7.27-17.7zm0 0"/></symbol><symbol overflow="visible" id="6b2d12b5n"><path d="M3.83 0v-5.95H6.2v-.82H.45v.82h2.4V0zm0 0"/></symbol><symbol overflow="visible" id="6b2d12b5o"><path d="M5.75-2.23v-.43c0-1.6-.9-2.51-2.42-2.51S.87-4.16.87-2.48c0 1.71.91 2.62 2.5 2.62 1.43 0 2.07-.56 2.29-1.52l-.9-.09c-.18.61-.59.9-1.35.9-.94 0-1.52-.54-1.58-1.66zm-2.4-2.2c.93 0 1.43.5 1.48 1.55H1.84c.08-1.07.6-1.56 1.5-1.56zm0 0"/></symbol><symbol overflow="visible" id="6b2d12b5p"><path d="M1.83 0l1.42-2h.06l1.46 2H5.8L4-2.53l1.78-2.49H4.8L3.42-3.08h-.08l-1.4-1.94H.89l1.78 2.49L.84 0zm0 0"/></symbol><symbol overflow="visible" id="6b2d12b5q"><path d="M5.52-4.25v-.77H3.17v-1.56h-.81l-.14 1.56H.75v.77h1.47v2.4c0 1.3.48 1.94 1.84 1.94C4.6.1 5.14 0 5.55-.14L5.4-.91c-.32.13-.72.2-1.13.2-.8 0-1.1-.37-1.1-1.23v-2.31zm0 0"/></symbol><symbol overflow="visible" id="6b2d12b5r"><path d="M3.33-3.42c.47 0 .8-.27.8-.8 0-.51-.33-.8-.8-.8-.47 0-.8.29-.8.8 0 .53.33.8.8.8zm0 3.5c.47 0 .8-.27.8-.78 0-.53-.33-.82-.8-.82-.47 0-.8.29-.8.82 0 .51.33.78.8.78zm0 0"/></symbol><symbol overflow="visible" id="6b2d12b5t"><path d="M1.9 0v-3.03h2.87V0h.98v-6.77h-.98v2.91H1.9v-2.9H.92V0zm0 0"/></symbol><symbol overflow="visible" id="6b2d12b5u"><path d="M5.67 0v-.86H2.14V-.9L3.6-2c1.05-.83 2-1.68 2-2.91 0-1.19-.73-1.99-2.26-1.99-1.66 0-2.3 1.02-2.44 2.33l1 .08c.1-.92.42-1.58 1.44-1.58.87 0 1.26.44 1.26 1.24 0 .9-.8 1.53-1.96 2.53L.83-.81V0zm0 0"/></symbol><symbol overflow="visible" id="6b2d12b5v"><path d="M5.33-2.2v-.75h-4v.75zm0 0"/></symbol><symbol overflow="visible" id="6b2d12b5w"><path d="M3.25.14c1.58 0 2.53-.69 2.53-1.95 0-1.19-.92-1.56-1.6-1.61v-.05A1.6 1.6 0 005.6-5.12c0-1.13-.87-1.79-2.3-1.79-1.62 0-2.32.82-2.45 1.88l.97.06c.13-.69.52-1.1 1.47-1.1.86 0 1.35.32 1.35 1.05 0 .86-.6 1.2-1.66 1.2h-.49v.79h.54c1.12 0 1.78.25 1.78 1.14 0 .78-.46 1.22-1.55 1.22-1.06 0-1.48-.4-1.63-1.1l-.98.07C.75-.56 1.56.14 3.25.14zm0 0"/></symbol><symbol overflow="visible" id="6b2d12b5x"><path d="M1.45-2.95c0 2.56 1.08 4.37 3.67 4.84l.11-.67C3.28.86 2.43-.75 2.43-2.95s.85-3.82 2.8-4.16l-.1-.69c-2.6.49-3.68 2.3-3.68 4.85zm0 0"/></symbol><symbol overflow="visible" id="6b2d12b5y"><path d="M3.36.16c1.4 0 2.2-.6 2.2-1.57 0-.89-.54-1.22-1.47-1.39L3-3c-.67-.14-.86-.33-.86-.73 0-.5.4-.74 1.17-.74.83 0 1.19.27 1.27.8l.9-.05c-.12-1-.8-1.47-2.17-1.47-1.34 0-2.1.53-2.1 1.5 0 .81.45 1.22 1.52 1.44l1.04.2c.56.11.87.24.87.72 0 .52-.45.78-1.28.78-.95 0-1.36-.28-1.42-.87l-.9.06C1.07-.36 1.8.16 3.35.16zm0 0"/></symbol><symbol overflow="visible" id="6b2d12b5z"><path d="M2.73.14c.9 0 1.43-.45 1.74-1.08h.06l.13.94h.8v-5.02h-.94v2.7c0 .98-.57 1.62-1.46 1.62-.75 0-1.1-.4-1.1-1.22v-3.1h-.93v3.32c0 1.17.55 1.84 1.7 1.84zm0 0"/></symbol><symbol overflow="visible" id="6b2d12b5A"><path d="M2.06 1.9V-.84h.05c.28.58.8.97 1.77.97 1.5 0 2.2-.98 2.2-2.66 0-1.65-.7-2.64-2.19-2.64-.97 0-1.5.44-1.78 1.05h-.08l-.1-.9H1.1v6.9zm1.5-2.56c-1.06 0-1.53-.8-1.53-1.86 0-1.04.47-1.84 1.53-1.84 1.11 0 1.53.61 1.53 1.84 0 1.27-.42 1.86-1.53 1.86zm0 0"/></symbol><symbol overflow="visible" id="6b2d12b5B"><path d="M4.78-2.63c.55-.14.86-.5.86-1.07 0-.9-.55-1.32-1.76-1.32H1.44V0h2.39c1.34 0 1.95-.4 1.95-1.38 0-.67-.37-1.04-1-1.18zM3.72-4.36c.75 0 1 .22 1 .72 0 .48-.27.77-1.13.77H2.36v-1.49zM2.36-.66v-1.57h1.31c.85 0 1.19.23 1.19.78 0 .54-.28.8-1.13.8zm0 0"/></symbol><symbol overflow="visible" id="6b2d12b5C"><path d="M5.75-2.23v-.43c0-1.6-.9-2.51-2.42-2.51S.87-4.16.87-2.48c0 1.71.91 2.62 2.5 2.62 1.43 0 2.07-.56 2.29-1.52l-.9-.09c-.18.61-.59.9-1.35.9-.94 0-1.52-.54-1.58-1.66zm-2.4-2.2c.93 0 1.43.5 1.48 1.55H1.84c.08-1.07.6-1.56 1.5-1.56zm0 0"/></symbol><symbol overflow="visible" id="6b2d12b5D"><path d="M2.06 1.9V-.84h.05c.28.58.8.97 1.77.97 1.5 0 2.2-.98 2.2-2.66 0-1.65-.7-2.64-2.19-2.64-.97 0-1.5.44-1.78 1.05h-.08l-.1-.9H1.1v6.9zm1.5-2.56c-1.06 0-1.53-.8-1.53-1.86 0-1.04.47-1.84 1.53-1.84 1.11 0 1.53.61 1.53 1.84 0 1.27-.42 1.86-1.53 1.86zm0 0"/></symbol><symbol overflow="visible" id="6b2d12b5E"><path d="M1.83 0l1.42-2h.06l1.46 2H5.8L4-2.53l1.78-2.49H4.8L3.42-3.08h-.08l-1.4-1.94H.89l1.78 2.49L.84 0zm0 0"/></symbol><symbol overflow="visible" id="6b2d12b5F"><path d="M1.45-7.1c1.96.33 2.8 1.94 2.8 4.15 0 2.2-.84 3.8-2.8 4.17l.11.67c2.58-.47 3.67-2.28 3.67-4.84 0-2.55-1.09-4.36-3.67-4.85zm0 0"/></symbol><symbol overflow="visible" id="6b2d12b5G"><path d="M5.95-6.77H1.1V0h.99v-2.92H5.3v-.77H2.08v-2.26h3.87zm0 0"/></symbol><symbol overflow="visible" id="6b2d12b5H"><path d="M2.83.14c.94 0 1.5-.39 1.81-.95h.08l.1.81h.76v-3.38c0-1.23-.69-1.8-2.13-1.8-1.43 0-2.03.65-2.18 1.6l.93.1c.11-.6.44-.93 1.22-.93.85 0 1.22.32 1.22 1.04v.34l-1.81.2C1.6-2.7 1.1-2.17 1.1-1.28c0 .92.64 1.42 1.72 1.42zm.25-.77c-.67 0-1.02-.28-1.02-.74 0-.44.28-.72 1-.82l1.58-.19v.41c0 .8-.6 1.34-1.56 1.34zm0 0"/></symbol><symbol overflow="visible" id="6b2d12b5I"><path d="M5.08-5.16c-.94 0-1.58.43-1.9 1.3h-.09l-.07-1.16H1.05v.77h1.1v3.48H.96V0h3.96v-.77H3.1v-1.46c0-1.36.6-2.05 1.83-2.05.4 0 .76.08 1.1.17l.15-.87c-.33-.11-.7-.18-1.11-.18zm0 0"/></symbol><symbol overflow="visible" id="6b2d12b5J"><path d="M3.42.14c1.61 0 2.56-.75 2.56-2 0-1.1-.67-1.6-1.95-1.86l-.97-.2c-.87-.17-1.23-.49-1.23-1.11 0-.7.54-1.11 1.5-1.11 1.06 0 1.51.34 1.69 1.23l.9-.09c-.17-1.28-.98-1.9-2.6-1.9C1.79-6.9.9-6.18.9-4.98c0 1.06.66 1.66 1.88 1.9l1.01.2c.85.17 1.25.4 1.25 1.09 0 .73-.6 1.16-1.6 1.16-1.07 0-1.66-.4-1.8-1.24l-.94.1C.83-.53 1.75.13 3.42.13zm0 0"/></symbol><symbol overflow="visible" id="6b2d12b5K"><path d="M3.34.14c1.43 0 2.13-.66 2.25-1.78l-.89-.1c-.1.7-.5 1.08-1.34 1.08-1.03 0-1.52-.64-1.52-1.84 0-1.23.47-1.86 1.52-1.86.84 0 1.23.36 1.34 1.08l.9-.1c-.13-1.09-.82-1.78-2.26-1.78-1.56 0-2.46.97-2.46 2.66 0 1.66.9 2.64 2.46 2.64zm0 0"/></symbol><symbol overflow="visible" id="6b2d12b5L"><path d="M3.58-5.81c.42 0 .72-.22.72-.67 0-.44-.3-.68-.72-.68-.44 0-.72.24-.72.68 0 .45.28.67.72.67zm.5.8H1.52v.76h1.6v3.48h-1.8V0h4.46v-.77h-1.7zm0 0"/></symbol></defs><use xlink:href="#6b2d12b5a" x="145.89" y="152" fill="#515151"/><use xlink:href="#6b2d12b5b" x="191.13" y="152" fill="#fff"/><use xlink:href="#6b2d12b5c" x="212.13" y="152" fill="#fff"/><use xlink:href="#6b2d12b5d" x="228.33" y="152" fill="#fff"/><use xlink:href="#6b2d12b5e" x="261.93" y="152" fill="#fff"/><use xlink:href="#6b2d12b5f" x="275.55" y="152" fill="#fff"/><use xlink:href="#6b2d12b5g" x="292.65" y="152" fill="#fff"/><use xlink:href="#6b2d12b5h" x="316.23" y="152" fill="#fff"/><use xlink:href="#6b2d12b5c" x="338.73" y="152" fill="#fff"/><use xlink:href="#6b2d12b5i" x="354.93" y="152" fill="#fff"/><use xlink:href="#6b2d12b5j" x="376.29" y="152" fill="#fff"/><use xlink:href="#6b2d12b5k" x="395.31" y="152" fill="#fff"/><use xlink:href="#6b2d12b5l" x="417.81" y="152" fill="#fff"/><use xlink:href="#6b2d12b5m" x="440.43" y="152" fill="#fff"/><g fill="#fff"><use xlink:href="#6b2d12b5n" x="230" y="252"/><use xlink:href="#6b2d12b5o" x="236.667" y="252"/><use xlink:href="#6b2d12b5p" x="243.334" y="252"/><use xlink:href="#6b2d12b5q" x="250.001" y="252"/><use xlink:href="#6b2d12b5r" x="256.668" y="252"/><use xlink:href="#6b2d12b5s" x="263.335" y="252"/><use xlink:href="#6b2d12b5t" x="270.002" y="252"/><use xlink:href="#6b2d12b5u" x="276.669" y="252"/><use xlink:href="#6b2d12b5v" x="283.336" y="252"/><use xlink:href="#6b2d12b5w" x="290.003" y="252"/><use xlink:href="#6b2d12b5s" x="296.67" y="252"/><use xlink:href="#6b2d12b5x" x="303.337" y="252"/><use xlink:href="#6b2d12b5y" x="310.004" y="252"/><use xlink:href="#6b2d12b5z" x="316.671" y="252"/><use xlink:href="#6b2d12b5A" x="323.338" y="252"/><use xlink:href="#6b2d12b5v" x="330.005" y="252"/><use xlink:href="#6b2d12b5B" x="336.672" y="252"/><use xlink:href="#6b2d12b5C" x="343.339" y="252"/><use xlink:href="#6b2d12b5D" x="350.006" y="252"/><use xlink:href="#6b2d12b5E" x="356.673" y="252"/><use xlink:href="#6b2d12b5F" x="363.34" y="252"/></g><g fill="#fff"><use xlink:href="#6b2d12b5G" x="210" y="266"/><use xlink:href="#6b2d12b5o" x="216.667" y="266"/><use xlink:href="#6b2d12b5H" x="223.334" y="266"/><use xlink:href="#6b2d12b5q" x="230.001" y="266"/><use xlink:href="#6b2d12b5z" x="236.668" y="266"/><use xlink:href="#6b2d12b5I" x="243.335" y="266"/><use xlink:href="#6b2d12b5o" x="250.002" y="266"/><use xlink:href="#6b2d12b5r" x="256.669" y="266"/><use xlink:href="#6b2d12b5s" x="263.336" y="266"/><use xlink:href="#6b2d12b5J" x="270.003" y="266"/><use xlink:href="#6b2d12b5z" x="276.67" y="266"/><use xlink:href="#6b2d12b5A" x="283.337" y="266"/><use xlink:href="#6b2d12b5o" x="290.004" y="266"/><use xlink:href="#6b2d12b5I" x="296.671" y="266"/><use xlink:href="#6b2d12b5y" x="303.338" y="266"/><use xlink:href="#6b2d12b5K" x="310.005" y="266"/><use xlink:href="#6b2d12b5I" x="316.672" y="266"/><use xlink:href="#6b2d12b5L" x="323.339" y="266"/><use xlink:href="#6b2d12b5A" x="330.006" y="266"/><use xlink:href="#6b2d12b5q" x="336.673" y="266"/><use xlink:href="#6b2d12b5s" x="343.34" y="266"/><use xlink:href="#6b2d12b5x" x="350.007" y="266"/><use xlink:href="#6b2d12b5y" x="356.674" y="266"/><use xlink:href="#6b2d12b5z" x="363.341" y="266"/><use xlink:href="#6b2d12b5A" x="370.008" y="266"/><use xlink:href="#6b2d12b5y" x="376.675" y="266"/><use xlink:href="#6b2d12b5F" x="383.342" y="266"/></g></svg>