<?xml version='1.0' encoding='UTF-8'?>
<svg xmlns="http://www.w3.org/2000/svg" xmlns:xlink="http://www.w3.org/1999/xlink" width="600px" height="300px" viewBox="0 0 600 300" x="0px" y="0px" enable-background="new 0 0 600 300"><defs><symbol overflow="visible" id="2c0fdfe2a"><path d="M32.4.3c1.91-.07 3.9-.36 5.65-.85v-27.4c0-3.55.04-6.07.23-8.28 1.8-.2 3.42-.61 4.86-1.15a7.67 7.67 0 00-.36-2.89c-1.73.13-5.34.13-6.9.13-2.16 0-4.57-.13-7.15-.13a8.12 8.12 0 00-.46 2.9c1.73.17 3.46.59 5.21 1.14.18 2.21.3 4.73.3 8.28v22.3h-.06l-1.63-5.4L14.7-39.9a47.9 47.9 0 00-5.15-.23c-2.18 0-4.57-.13-7.14-.13a8.14 8.14 0 00-.49 2.9c1.74.17 3.49.59 5.22 1.14.17 2.21.3 4.73.3 8.28v20.32c0 1.27-.07 2.54-.3 3.68-1.73.53-3.48.95-5.22 1.14 0 .95.13 1.9.49 2.87 2.57 0 4.96-.12 7.14-.12 1.54 0 5.15 0 6.89.12.3-.9.42-1.86.36-2.87a18.63 18.63 0 00-4.86-1.14 46.18 46.18 0 01-.24-4.99V-36.3h.07l1.73 5.4zm0 0"/></symbol><symbol overflow="visible" id="2c0fdfe2b"><path d="M2.4.06c2.58 0 4.97-.12 7.62-.12h6.9c4.2 0 10.38 0 14.1.12l.48-.48c.48-3.53.66-7.02.66-10.56a5.8 5.8 0 00-3.18-.24 74.57 74.57 0 01-2.17 7.31h-14.1v-15l12.2.25c.36-1.07.53-2.34.59-3.71l-.48-.49-12.3.23V-36.3h13.37c.55 2.1.85 4.38.97 6.6a4.8 4.8 0 003.17 0c.49-3.36.68-6.72.55-10.08l-.48-.49c-3.72.13-9.9.13-14.1.13h-6.18c-2.64 0-5.04-.13-7.61-.13a8.14 8.14 0 00-.49 2.9c1.74.17 3.49.59 5.22 1.14.17 2.21.3 4.73.3 8.28v20.32c0 1.27-.07 2.54-.3 3.68-1.73.53-3.48.95-5.22 1.14 0 .95.13 1.9.49 2.87zm0 0"/></symbol><symbol overflow="visible" id="2c0fdfe2c"><path d="M2.4.06c2.7 0 5.16-.12 7.87-.12 2.09 0 6.36 0 8.32.12.36-.9.49-1.86.43-2.87-1.8-.55-3.83-.97-6.07-1.14a46.18 46.18 0 01-.23-4.99v-6.42c1.92.3 4.01.48 6 .48 7.26 0 13.44-7.92 13.44-14.28 0-5.93-2.94-11.21-10.93-11.21-2.87 0-6.95.23-11.21.23-2.64 0-5.04-.13-7.61-.13a8.14 8.14 0 00-.49 2.9c1.74.17 3.49.59 5.22 1.14.17 2.21.3 4.73.3 8.28v20.32c0 1.27-.07 2.54-.3 3.68-1.73.53-3.48.95-5.22 1.14 0 .95.13 1.9.49 2.87zm17.23-36.54c5.21 0 7.07 4.98 7.07 9 0 2.93-1.07 5.4-2.57 6.71-.32.32-3.2 1.7-6.13 1.7-2.05 0-3.72-.07-5.28-.24V-36.3c2.05-.06 4.86-.18 6.9-.18zm0 0"/></symbol><symbol overflow="visible" id="2c0fdfe2d"><path d="M.78.06c2.58 0 4.92-.12 6.9-.12 1.45 0 4.91 0 6.66.12.3-.9.43-1.86.36-2.87L9.42-3.95l3.17-9.55H17c2.8 0 6.3.06 9.46.23l3.32 9.32-5.64 1.14c0 .95.1 1.9.46 2.87 2.6 0 4.99-.12 7.63-.12 1.98 0 5.7 0 7.44.12.3-.9.42-1.86.36-2.87a15.93 15.93 0 00-4.44-1.14L22.68-40.5c-1.98 0-3.73.23-5.27.84L5.09-3.96C3.5-3.41 1.92-3 .3-2.8c0 .95.13 1.9.5 2.87zm19.14-35.4h.06l.3 4.39 4.86 13.8H13.86zm0 0"/></symbol><symbol overflow="visible" id="2c0fdfe2e"><path d="M6 .06c2.58 0 4.98-.12 7.63-.12 1.96 0 5.68 0 7.43.12.3-.9.42-1.86.36-2.87a18.63 18.63 0 00-4.86-1.14 42.4 42.4 0 01-.25-4.99v-19.01c0-3.55.07-6.07.25-8.28 1.8-.2 3.42-.61 4.86-1.15a7.67 7.67 0 00-.36-2.89c-1.75.13-5.47.13-7.43.13-2.65 0-5.05-.13-7.63-.13a8.14 8.14 0 00-.48 2.9c1.75.17 3.48.59 5.21 1.14.2 2.21.32 4.73.32 8.28v20.32c0 1.27-.07 2.54-.32 3.68a28.1 28.1 0 01-5.21 1.14c0 .95.12 1.9.48 2.87zm13.92-20.28c0 1.67 1.63 3.06 3.17 3.06 2.22 0 3.68-2.34 3.68-4.43a3.14 3.14 0 00-3.13-3.13c-2.22 0-3.72 2.4-3.72 4.5zm-19.33 0c0 1.67 1.57 3.06 3.13 3.06 2.28 0 3.72-2.34 3.72-4.43a3.14 3.14 0 00-3.17-3.13c-2.18 0-3.68 2.4-3.68 4.5zm0 0"/></symbol><symbol overflow="visible" id="2c0fdfe2f"><path d="M2.45 0h31.7c.41-.9.65-2.28.58-3.95L20.64-40.5c-1.98 0-3.72.23-5.28.84L1.86-3.96c-.06 1.62.19 2.94.6 3.96zm15.78-30.95l10.14 25.9H6.66l11.21-30.3h.07zm0 0"/></symbol><symbol overflow="visible" id="2c0fdfe2g"><path d="M3.83 0v-5.95H6.2v-.82H.45v.82h2.4V0zm0 0"/></symbol><symbol overflow="visible" id="2c0fdfe2h"><path d="M5.75-2.23v-.43c0-1.6-.9-2.51-2.42-2.51S.87-4.16.87-2.48c0 1.71.91 2.62 2.5 2.62 1.43 0 2.07-.56 2.29-1.52l-.9-.09c-.18.61-.59.9-1.35.9-.94 0-1.52-.54-1.58-1.66zm-2.4-2.2c.93 0 1.43.5 1.48 1.55H1.84c.08-1.07.6-1.56 1.5-1.56zm0 0"/></symbol><symbol overflow="visible" id="2c0fdfe2i"><path d="M1.83 0l1.42-2h.06l1.46 2H5.8L4-2.53l1.78-2.49H4.8L3.42-3.08h-.08l-1.4-1.94H.89l1.78 2.49L.84 0zm0 0"/></symbol><symbol overflow="visible" id="2c0fdfe2j"><path d="M5.52-4.25v-.77H3.17v-1.56h-.81l-.14 1.56H.75v.77h1.47v2.4c0 1.3.48 1.94 1.84 1.94C4.6.1 5.14 0 5.55-.14L5.4-.91c-.32.13-.72.2-1.13.2-.8 0-1.1-.37-1.1-1.23v-2.31zm0 0"/></symbol><symbol overflow="visible" id="2c0fdfe2k"><path d="M3.33-3.42c.47 0 .8-.27.8-.8 0-.51-.33-.8-.8-.8-.47 0-.8.29-.8.8 0 .53.33.8.8.8zm0 3.5c.47 0 .8-.27.8-.78 0-.53-.33-.82-.8-.82-.47 0-.8.29-.8.82 0 .51.33.78.8.78zm0 0"/></symbol><symbol overflow="visible" id="2c0fdfe2m"><path d="M1.84 0v-4.48l-.06-.99h.1L4.46 0h1.28v-6.77h-.92v4.4l.06 1.03h-.1L2.21-6.77H.92V0zm0 0"/></symbol><symbol overflow="visible" id="2c0fdfe2n"><path d="M5.92-6.77H1.1V0h4.83v-.8H2.06v-2.26h3.22v-.75H2.06v-2.16h3.86zm0 0"/></symbol><symbol overflow="visible" id="2c0fdfe2o"><path d="M.92-6.77V0h.99v-2.27h1.68c1.58 0 2.38-.65 2.38-2.2v-.14c0-1.51-.8-2.16-2.34-2.16zM5-4.47c0 1.05-.42 1.45-1.58 1.45H1.91v-2.96h1.51C4.58-5.98 5-5.66 5-4.61zm0 0"/></symbol><symbol overflow="visible" id="2c0fdfe2p"><path d="M6.17 0L3.98-6.77h-1.3L.5 0h.97l.44-1.47h2.78L5.16 0zM3.28-5.94h.08l1.1 3.74H2.15zm0 0"/></symbol><symbol overflow="visible" id="2c0fdfe2q"><path d="M2.38-7.53c.32 0 .56-.19.56-.53 0-.35-.24-.52-.56-.52-.33 0-.57.17-.57.52 0 .34.24.53.56.53zm1.93 0c.32 0 .55-.19.55-.53 0-.35-.24-.52-.55-.52-.34 0-.56.17-.56.52 0 .34.22.53.56.53zm-.48 1.56h1.73v-.8H1.1v.8h1.75v5.19H1.1V0h4.47v-.78H3.83zm0 0"/></symbol><symbol overflow="visible" id="2c0fdfe2r"><path d="M2.69-6.77L.59-.67V0h5.47v-.67l-2.08-6.1zm.6.83h.07L5.03-.8H1.66zm0 0"/></symbol><symbol overflow="visible" id="2c0fdfe2s"><path d="M5.95-6.77H1.1V0h.99v-2.92H5.3v-.77H2.08v-2.26h3.87zm0 0"/></symbol><symbol overflow="visible" id="2c0fdfe2t"><path d="M2.83.14c.94 0 1.5-.39 1.81-.95h.08l.1.81h.76v-3.38c0-1.23-.69-1.8-2.13-1.8-1.43 0-2.03.65-2.18 1.6l.93.1c.11-.6.44-.93 1.22-.93.85 0 1.22.32 1.22 1.04v.34l-1.81.2C1.6-2.7 1.1-2.17 1.1-1.28c0 .92.64 1.42 1.72 1.42zm.25-.77c-.67 0-1.02-.28-1.02-.74 0-.44.28-.72 1-.82l1.58-.19v.41c0 .8-.6 1.34-1.56 1.34zm0 0"/></symbol><symbol overflow="visible" id="2c0fdfe2u"><path d="M2.73.14c.9 0 1.43-.45 1.74-1.08h.06l.13.94h.8v-5.02h-.94v2.7c0 .98-.57 1.62-1.46 1.62-.75 0-1.1-.4-1.1-1.22v-3.1h-.93v3.32c0 1.17.55 1.84 1.7 1.84zm0 0"/></symbol><symbol overflow="visible" id="2c0fdfe2v"><path d="M5.08-5.16c-.94 0-1.58.43-1.9 1.3h-.09l-.07-1.16H1.05v.77h1.1v3.48H.96V0h3.96v-.77H3.1v-1.46c0-1.36.6-2.05 1.83-2.05.4 0 .76.08 1.1.17l.15-.87c-.33-.11-.7-.18-1.11-.18zm0 0"/></symbol><symbol overflow="visible" id="2c0fdfe2w"><path d="M6.17 0L3.98-6.77h-1.3L.5 0h.97l.44-1.47h2.78L5.16 0zM3.28-5.94h.08l1.1 3.74H2.15zm0 0"/></symbol><symbol overflow="visible" id="2c0fdfe2x"><path d="M3.92-7.14H1.36v.76h1.6v5.61H1.15V0H5.7v-.77H3.92zm0 0"/></symbol><symbol overflow="visible" id="2c0fdfe2y"><path d="M2.16 0v-2.67c0-.99.59-1.63 1.46-1.63.74 0 1.07.38 1.07 1.22V0h.95v-3.31c0-1.2-.56-1.85-1.67-1.85-.92 0-1.49.46-1.77 1.08h-.06l-.12-.94H1.2V0zm0 0"/></symbol><symbol overflow="visible" id="2c0fdfe2z"><path d="M3.58-5.81c.42 0 .72-.22.72-.67 0-.44-.3-.68-.72-.68-.44 0-.72.24-.72.68 0 .45.28.67.72.67zm.5.8H1.52v.76h1.6v3.48h-1.8V0h4.46v-.77h-1.7zm0 0"/></symbol><symbol overflow="visible" id="2c0fdfe2A"><path d="M3.9 0l2-5.02h-.96L3.4-.94h-.07L1.8-5.02H.77L2.78 0zm0 0"/></symbol><symbol overflow="visible" id="2c0fdfe2B"><path d="M3.3-7.53c-.55 0-.85.3-.85.84 0 .55.36.8.83.8h.03a5.1 5.1 0 01-.69 1.47l.52.23a4.29 4.29 0 001.02-2.4c0-.63-.33-.94-.86-.94zm0 0"/></symbol><symbol overflow="visible" id="2c0fdfe2C"><path d="M3.83-5.97h1.73v-.8H1.1v.8h1.75v5.19H1.1V0h4.47v-.78H3.83zm0 0"/></symbol><symbol overflow="visible" id="2c0fdfe2D"><path d="M3.33.14c1.62 0 2.5-.95 2.5-2.66 0-1.68-.88-2.64-2.5-2.64-1.63 0-2.5.96-2.5 2.64 0 1.7.87 2.66 2.5 2.66zm0-.77c-1.06 0-1.52-.6-1.52-1.89 0-1.28.46-1.87 1.52-1.87 1.08 0 1.53.6 1.53 1.87 0 1.29-.45 1.9-1.53 1.9zm0 0"/></symbol><symbol overflow="visible" id="2c0fdfe2E"><path d="M2.44 0l.87-3.31h.06L4.25 0H5.3l1.03-5.02h-.88l-.73 3.94h-.08L3.77-4.4h-.85l-.87 3.33h-.08l-.75-3.94H.34L1.36 0zm0 0"/></symbol><symbol overflow="visible" id="2c0fdfe2F"><path d="M2.16 0v-2.69c0-.98.6-1.6 1.46-1.6.74 0 1.07.4 1.07 1.2V0h.95v-3.31c0-1.17-.56-1.85-1.67-1.85-.9 0-1.44.46-1.75 1.08h-.06v-3.06H1.2V0zm0 0"/></symbol><symbol overflow="visible" id="2c0fdfe2G"><path d="M2.84.14C3.8.14 4.33-.26 4.6-.9h.07L4.8 0h.76v-7.14h-.95v2.95h-.08c-.28-.6-.86-.97-1.67-.97-1.48 0-2.27.99-2.27 2.64C.6-.84 1.36.14 2.84.14zm.22-.8c-.98 0-1.48-.59-1.48-1.84s.5-1.86 1.48-1.86c1.13 0 1.58.8 1.58 1.86S4.2-.66 3.06-.66zm0 0"/></symbol><symbol overflow="visible" id="2c0fdfe2H"><path d="M3.42-.86h-.08L1.77-5.02H.8L2.73 0h.41c-.33.95-.72 1.27-1.45 1.27-.22 0-.49-.04-.69-.08l-.1.73c.2.06.58.11.87.11 1.2 0 1.7-.7 2.21-2.03l1.94-5.02H5zm0 0"/></symbol><symbol overflow="visible" id="2c0fdfe2I"><path d="M5.77-5.02H4.63L2.3-2.88h-.06v-4.26h-.94V0h.94v-2.31h.06L4.71 0h1.24L3.23-2.69zm0 0"/></symbol><symbol overflow="visible" id="2c0fdfe2J"><path d="M1.45-2.95c0 2.56 1.08 4.37 3.67 4.84l.11-.67C3.28.86 2.43-.75 2.43-2.95s.85-3.82 2.8-4.16l-.1-.69c-2.6.49-3.68 2.3-3.68 4.85zm0 0"/></symbol><symbol overflow="visible" id="2c0fdfe2K"><path d="M3.36.16c1.4 0 2.2-.6 2.2-1.57 0-.89-.54-1.22-1.47-1.39L3-3c-.67-.14-.86-.33-.86-.73 0-.5.4-.74 1.17-.74.83 0 1.19.27 1.27.8l.9-.05c-.12-1-.8-1.47-2.17-1.47-1.34 0-2.1.53-2.1 1.5 0 .81.45 1.22 1.52 1.44l1.04.2c.56.11.87.24.87.72 0 .52-.45.78-1.28.78-.95 0-1.36-.28-1.42-.87l-.9.06C1.07-.36 1.8.16 3.35.16zm0 0"/></symbol><symbol overflow="visible" id="2c0fdfe2L"><path d="M4.22-6.77h-.86l-2.03.7v.87c.64-.17 1.26-.38 1.89-.55v4.9H1.03V0h4.9v-.86H4.21zm0 0"/></symbol><symbol overflow="visible" id="2c0fdfe2M"><path d="M3.33.14c1.65 0 2.6-1.1 2.6-3.52S4.99-6.9 3.34-6.9C1.67-6.9.72-5.8.72-3.37c0 2.4.95 3.51 2.6 3.51zm0-.84c-1.13 0-1.6-.85-1.6-2.67 0-1.86.47-2.7 1.6-2.7 1.12 0 1.6.84 1.6 2.7 0 1.82-.48 2.67-1.6 2.67zM3.3-2.64c.38 0 .56-.28.56-.72 0-.44-.18-.7-.56-.7-.39 0-.56.26-.56.7 0 .44.17.72.56.72zm0 0"/></symbol><symbol overflow="visible" id="2c0fdfe2N"><path d="M1.45-7.1c1.96.33 2.8 1.94 2.8 4.15 0 2.2-.84 3.8-2.8 4.17l.11.67c2.58-.47 3.67-2.28 3.67-4.84 0-2.55-1.09-4.36-3.67-4.85zm0 0"/></symbol></defs><g fill="#515151"><use xlink:href="#2c0fdfe2a" x="175.74" y="152"/><use xlink:href="#2c0fdfe2b" x="220.2" y="152"/><use xlink:href="#2c0fdfe2c" x="255.18" y="152"/></g><use xlink:href="#2c0fdfe2d" x="285.06" y="152" fill="#515151"/><use xlink:href="#2c0fdfe2e" x="322.68" y="152" fill="#fff"/><g fill="#515151"><use xlink:href="#2c0fdfe2f" x="347.04" y="152"/><use xlink:href="#2c0fdfe2d" x="383.64" y="152"/></g><g fill="#fff"><use xlink:href="#2c0fdfe2g" x="256.6667" y="252"/><use xlink:href="#2c0fdfe2h" x="263.3337" y="252"/><use xlink:href="#2c0fdfe2i" x="270.0007" y="252"/><use xlink:href="#2c0fdfe2j" x="276.6677" y="252"/><use xlink:href="#2c0fdfe2k" x="283.3347" y="252"/><use xlink:href="#2c0fdfe2l" x="290.0017" y="252"/><use xlink:href="#2c0fdfe2m" x="296.6687" y="252"/><use xlink:href="#2c0fdfe2n" x="303.3357" y="252"/><use xlink:href="#2c0fdfe2o" x="310.0027" y="252"/><use xlink:href="#2c0fdfe2p" x="316.6697" y="252"/><use xlink:href="#2c0fdfe2q" x="323.3367" y="252"/><use xlink:href="#2c0fdfe2r" x="330.0037" y="252"/><use xlink:href="#2c0fdfe2p" x="336.6707" y="252"/></g><g fill="#fff"><use xlink:href="#2c0fdfe2s" x="136.6667" y="266"/><use xlink:href="#2c0fdfe2h" x="143.3337" y="266"/><use xlink:href="#2c0fdfe2t" x="150.0007" y="266"/><use xlink:href="#2c0fdfe2j" x="156.6677" y="266"/><use xlink:href="#2c0fdfe2u" x="163.3347" y="266"/><use xlink:href="#2c0fdfe2v" x="170.0017" y="266"/><use xlink:href="#2c0fdfe2h" x="176.6687" y="266"/><use xlink:href="#2c0fdfe2k" x="183.3357" y="266"/><use xlink:href="#2c0fdfe2l" x="190.0027" y="266"/><use xlink:href="#2c0fdfe2w" x="196.6697" y="266"/><use xlink:href="#2c0fdfe2x" x="203.3367" y="266"/><use xlink:href="#2c0fdfe2j" x="210.0037" y="266"/><use xlink:href="#2c0fdfe2h" x="216.6707" y="266"/><use xlink:href="#2c0fdfe2v" x="223.3377" y="266"/><use xlink:href="#2c0fdfe2y" x="230.0047" y="266"/><use xlink:href="#2c0fdfe2t" x="236.6717" y="266"/><use xlink:href="#2c0fdfe2j" x="243.3387" y="266"/><use xlink:href="#2c0fdfe2z" x="250.0057" y="266"/><use xlink:href="#2c0fdfe2A" x="256.6727" y="266"/><use xlink:href="#2c0fdfe2h" x="263.3397" y="266"/><use xlink:href="#2c0fdfe2l" x="270.0067" y="266"/><use xlink:href="#2c0fdfe2B" x="276.6737" y="266"/><use xlink:href="#2c0fdfe2C" x="283.3407" y="266"/><use xlink:href="#2c0fdfe2D" x="290.0077" y="266"/><use xlink:href="#2c0fdfe2j" x="296.6747" y="266"/><use xlink:href="#2c0fdfe2t" x="303.3417" y="266"/><use xlink:href="#2c0fdfe2l" x="310.0087" y="266"/><use xlink:href="#2c0fdfe2E" x="316.6757" y="266"/><use xlink:href="#2c0fdfe2z" x="323.3427" y="266"/><use xlink:href="#2c0fdfe2j" x="330.0097" y="266"/><use xlink:href="#2c0fdfe2F" x="336.6767" y="266"/><use xlink:href="#2c0fdfe2l" x="343.3437" y="266"/><use xlink:href="#2c0fdfe2G" x="350.0107" y="266"/><use xlink:href="#2c0fdfe2z" x="356.6777" y="266"/><use xlink:href="#2c0fdfe2t" x="363.3447" y="266"/><use xlink:href="#2c0fdfe2x" x="370.0117" y="266"/><use xlink:href="#2c0fdfe2H" x="376.6787" y="266"/><use xlink:href="#2c0fdfe2j" x="383.3457" y="266"/><use xlink:href="#2c0fdfe2z" x="390.0127" y="266"/><use xlink:href="#2c0fdfe2I" x="396.6797" y="266"/><use xlink:href="#2c0fdfe2t" x="403.3467" y="266"/><use xlink:href="#2c0fdfe2B" x="410.0137" y="266"/><use xlink:href="#2c0fdfe2l" x="416.6807" y="266"/><use xlink:href="#2c0fdfe2J" x="423.3477" y="266"/><use xlink:href="#2c0fdfe2K" x="430.0147" y="266"/><use xlink:href="#2c0fdfe2K" x="436.6817" y="266"/><use xlink:href="#2c0fdfe2L" x="443.3487" y="266"/><use xlink:href="#2c0fdfe2M" x="450.0157" y="266"/><use xlink:href="#2c0fdfe2N" x="456.6827" y="266"/></g></svg>