<?xml version='1.0' encoding='UTF-8'?>
<svg xmlns="http://www.w3.org/2000/svg" xmlns:xlink="http://www.w3.org/1999/xlink" width="600px" height="300px" viewBox="0 0 600 300" x="0px" y="0px" enable-background="new 0 0 600 300"><defs><symbol overflow="visible" id="5172bb3ca"><path d="M14.58-39.06c-3.96 0-7.67.9-11.4 2.87a50 50 0 001.02 9.85c1.14.48 2.28.3 3.36 0 .07-2.7.3-5.46.78-7.97 1.32-.31 3-.49 4.44-.49 4.67 0 7.56 3.42 7.56 7.99 0 6.17-7.75 13.5-18.06 21.89-.12 1.92.13 3.48.66 4.86h10.69c4.01 0 9.95 0 13.5.12l.46-.48c.49-4.31.68-7.44.68-10.8a6.44 6.44 0 00-3.2-.3c-.59 2.4-1.26 4.74-2.02 6.96h-15l4.54-3.9c6.68-5.7 13.2-12.3 13.2-20.16 0-6.3-4.6-10.44-11.21-10.44zm0 0"/></symbol><symbol overflow="visible" id="5172bb3cb"><path d="M13.63.84c7.6 0 13.85-6.12 13.85-14.64 0-5.89-4.56-10.39-11.53-10.39-1.67 0-3.1.25-4.97.67v-10.62h14.33c.38-1.08.55-2.28.61-3.66l-.48-.42c-4.08 0-8.16.06-12.13.06H6.48l-.48.47v18.85l.48.48a23.43 23.43 0 018.22-1.56 7.33 7.33 0 017.32 7.56c0 2.64-.79 5.77-2.4 7.27-.71.65-3 1.67-5.34 1.67-1.92 0-3.6-.13-4.86-.53a45.71 45.71 0 01-1.33-6.9 5.58 5.58 0 00-3.17.22 99.33 99.33 0 00-.6 9.49 24.14 24.14 0 009.3 1.98zm0 0"/></symbol><symbol overflow="visible" id="5172bb3cd"><path d="M17.58-37.08c0-2.76-3.17-4.98-7.02-4.98-2.83 0-5.34.54-7.86 1.75 0 2.22.3 4.08.85 5.75.95.25 1.86.19 2.87 0 .06-1.31.24-2.64.6-3.85.67-.1 1.5-.17 2.28-.17 2.04 0 3.3 1.2 3.3 2.58 0 1.38-1.44 3-4.32 3.06a6.79 6.79 0 00-.48 3.06l.42.43c.42-.07.9-.07 1.37-.07 2.18 0 3.97 1.32 3.97 3.11 0 1.14-.19 2.18-1.01 2.77-.36.23-1.86.66-3.2.66-.9 0-1.79-.07-2.44-.24-.49-1.37-.72-2.76-.97-4.2a8.07 8.07 0 00-2.75.19c-.38 1.92-.55 3.89-.55 6.59 2.16.72 4.31 1.14 6.66 1.14 5.1 0 9.25-3.6 9.25-7.69 0-2.15-1.4-4.18-4.63-4.97 2.28-1.03 3.66-2.76 3.66-4.92zm20.05-4.73L11.52-.66a5.5 5.5 0 003.06 1.93l26.1-41.11a4.9 4.9 0 00-3.05-1.97zM43.13-.84c1.31 0 2.88-.3 4.14-.9V-6.9h3.84c.24-.95.3-1.73.18-2.8l-4.02-.3v-12.3a10.1 10.1 0 00-4.26-.85l-9.79 13.02c0 1.2.2 2.28.72 3.23h8.77v5.64zm-.6-16.61l.18-.25v7.8h-5.94l4.67-6.18zm0 0"/></symbol><symbol overflow="visible" id="5172bb3ce"><path d="M17.16-22.27c-1.08-.3-2.29-.53-3.6-.59-.06-.9-.12-1.86-.12-2.87v-16.04l-.42-.42c-3.07.25-5.7.78-8.22 1.75-.07.9.06 1.63.36 2.22H8.7v13.2c0 .72-.06 1.44-.18 2.16-1.25.3-2.52.55-3.79.6 0 .78.07 1.62.32 2.4 1.8 0 3.4-.12 6-.12 2.03 0 4.73 0 5.87.12.17-.78.3-1.56.24-2.4zm0 0"/></symbol><symbol overflow="visible" id="5172bb3cf"><path d="M10.5-42.06c-2.7 0-5.28.54-7.73 1.75a23 23 0 00.82 6.47c.97.3 1.86.25 2.9 0 .06-1.5.23-3.07.59-4.5.65-.11 1.5-.24 2.15-.24 2.22 0 3.68 1.67 3.68 3.9 0 3-4.7 6.6-10.86 10.74 0 1.44.17 2.82.6 3.96h6c2.8 0 6.9 0 9.35.12l.42-.42c.3-1.08.3-2.52 0-3.6H7.27l2.51-1.62c4.27-2.77 8.1-6.36 8.1-10.56 0-2.88-3-6-7.38-6zm0 0"/></symbol><symbol overflow="visible" id="5172bb3cg"><path d="M16.63-41.81L-9.48-.66a5.5 5.5 0 003.06 1.93l26.1-41.11a4.9 4.9 0 00-3.05-1.97zm0 0"/></symbol><symbol overflow="visible" id="5172bb3ch"><path d="M9.72-.84l9.48-19.44a4.88 4.88 0 00-1.26-2.64h-6.17c-2.47 0-6.13 0-8.29-.13l-.42.43c-.12 2.76.06 5.1.42 7.14 1.02.3 1.93.36 2.88 0 .06-1.44.23-2.94.55-4.32h8.21A471.43 471.43 0 015.59-3.3v.6C6.42-1.5 7.92-.9 9.72-.84zm0 0"/></symbol><symbol overflow="visible" id="5172bb3ci"><path d="M18.72-14.16c0-3.84-1.8-9.42-8.03-9.42-4.46 0-8.77 3.24-8.77 8.16 0 3.54 2.52 6.3 6.17 6.3 1.86 0 3.61-.6 5.64-2.4h.13c-.17 4.25-3 7.32-9.84 8.52-.18.95.06 1.86.54 2.34 10.38-.96 14.16-6.9 14.16-13.5zM6.36-16.2c0-1.5.3-2.58 1.08-3.3a4.3 4.3 0 012.15-.6c2.29 0 3.68 2.46 4.14 5.88a6.27 6.27 0 01-3.71 1.56 3.58 3.58 0 01-3.66-3.54zm0 0"/></symbol><symbol overflow="visible" id="5172bb3cj"><path d="M9.6-30.72c2.46 0 3.96 1.44 3.96 3.84 0 1.15-.25 2.4-1.01 3.11-.36.32-1.75.79-2.96.79-.89 0-1.96-.07-2.51-.24a22.6 22.6 0 01-.78-3.55c-.9-.1-1.86-.04-2.64.2-.43 1.73-.6 3.88-.6 6.05 2.03.72 3.96 1.02 6.24 1.02 5.4 0 9.25-4.31 9.25-8.64 0-3.6-3.07-6-7.5-6-.78 0-1.5.06-2.24.19v-4.4h8.4c.24-.84.37-1.8.37-2.93l-.42-.42c-2.7.06-5.4.12-8.1.12H4.62l-.42.42v10.68l.42.42c1.57-.42 3.24-.66 4.97-.66zm0 0"/></symbol><symbol overflow="visible" id="5172bb3ck"><path d="M3.83 0v-5.95H6.2v-.82H.45v.82h2.4V0zm0 0"/></symbol><symbol overflow="visible" id="5172bb3cl"><path d="M5.75-2.23v-.43c0-1.6-.9-2.51-2.42-2.51S.87-4.16.87-2.48c0 1.71.91 2.62 2.5 2.62 1.43 0 2.07-.56 2.29-1.52l-.9-.09c-.18.61-.59.9-1.35.9-.94 0-1.52-.54-1.58-1.66zm-2.4-2.2c.93 0 1.43.5 1.48 1.55H1.84c.08-1.07.6-1.56 1.5-1.56zm0 0"/></symbol><symbol overflow="visible" id="5172bb3cm"><path d="M1.83 0l1.42-2h.06l1.46 2H5.8L4-2.53l1.78-2.49H4.8L3.42-3.08h-.08l-1.4-1.94H.89l1.78 2.49L.84 0zm0 0"/></symbol><symbol overflow="visible" id="5172bb3cn"><path d="M5.52-4.25v-.77H3.17v-1.56h-.81l-.14 1.56H.75v.77h1.47v2.4c0 1.3.48 1.94 1.84 1.94C4.6.1 5.14 0 5.55-.14L5.4-.91c-.32.13-.72.2-1.13.2-.8 0-1.1-.37-1.1-1.23v-2.31zm0 0"/></symbol><symbol overflow="visible" id="5172bb3co"><path d="M3.33-3.42c.47 0 .8-.27.8-.8 0-.51-.33-.8-.8-.8-.47 0-.8.29-.8.8 0 .53.33.8.8.8zm0 3.5c.47 0 .8-.27.8-.78 0-.53-.33-.82-.8-.82-.47 0-.8.29-.8.82 0 .51.33.78.8.78zm0 0"/></symbol><symbol overflow="visible" id="5172bb3cq"><path d="M5.67 0v-.86H2.14V-.9L3.6-2c1.05-.83 2-1.68 2-2.91 0-1.19-.73-1.99-2.26-1.99-1.66 0-2.3 1.02-2.44 2.33l1 .08c.1-.92.42-1.58 1.44-1.58.87 0 1.26.44 1.26 1.24 0 .9-.8 1.53-1.96 2.53L.83-.81V0zm0 0"/></symbol><symbol overflow="visible" id="5172bb3cr"><path d="M3.42.14c1.55 0 2.44-.84 2.44-2.33 0-1.45-.83-2.22-2.14-2.22-.75 0-1.28.27-1.67.72H2l.31-2.22h3.11v-.86H1.53l-.45 3.93h.81c.3-.36.9-.79 1.58-.79.92 0 1.44.43 1.44 1.47 0 .99-.54 1.5-1.49 1.5-.83 0-1.28-.32-1.5-1.01l-.95.1C1.07-.46 2 .13 3.42.13zm0 0"/></symbol><symbol overflow="visible" id="5172bb3cs"><path d="M3.25.14c1.58 0 2.53-.69 2.53-1.95 0-1.19-.92-1.56-1.6-1.61v-.05A1.6 1.6 0 005.6-5.12c0-1.13-.87-1.79-2.3-1.79-1.62 0-2.32.82-2.45 1.88l.97.06c.13-.69.52-1.1 1.47-1.1.86 0 1.35.32 1.35 1.05 0 .86-.6 1.2-1.66 1.2h-.49v.79h.54c1.12 0 1.78.25 1.78 1.14 0 .78-.46 1.22-1.55 1.22-1.06 0-1.48-.4-1.63-1.1l-.98.07C.75-.56 1.56.14 3.25.14zm0 0"/></symbol><symbol overflow="visible" id="5172bb3ct"><path d="M2.58.95l2.39-8.67h-.9L1.7.95zm0 0"/></symbol><symbol overflow="visible" id="5172bb3cu"><path d="M5.1 0v-1.47H6v-.81h-.9v-4.49H3.8L.48-2.23v.76h3.66V0zM1.5-2.33l2.6-3.53h.04v3.58H1.5zm0 0"/></symbol><symbol overflow="visible" id="5172bb3cv"><path d="M4.22-6.77h-.86l-2.03.7v.87c.64-.17 1.26-.38 1.89-.55v4.9H1.03V0h4.9v-.86H4.21zm0 0"/></symbol><symbol overflow="visible" id="5172bb3cw"><path d="M.92-4.42h.88v-1.49h3.1v.05L2.27 0H3.3l2.64-6v-.77H.92zm0 0"/></symbol><symbol overflow="visible" id="5172bb3cx"><path d="M3.25-6.9C1.67-6.9.77-6.04.77-4.6c0 1.41.85 2.18 2.21 2.18 1.04 0 1.58-.52 1.88-1.03h.06c0 1.54-.39 2.78-1.73 2.78-.9 0-1.24-.44-1.36-.97l-.97.1c.22.96.86 1.68 2.33 1.68C4.83.14 5.8-.9 5.8-3.64c0-2.22-.92-3.27-2.56-3.27zm-.02.8c.91 0 1.46.52 1.46 1.44 0 .91-.69 1.47-1.53 1.47-.91 0-1.46-.51-1.46-1.47S2.3-6.1 3.23-6.1zm0 0"/></symbol><symbol overflow="visible" id="5172bb3cy"><path d="M5.95-6.77H1.1V0h.99v-2.92H5.3v-.77H2.08v-2.26h3.87zm0 0"/></symbol><symbol overflow="visible" id="5172bb3cz"><path d="M2.83.14c.94 0 1.5-.39 1.81-.95h.08l.1.81h.76v-3.38c0-1.23-.69-1.8-2.13-1.8-1.43 0-2.03.65-2.18 1.6l.93.1c.11-.6.44-.93 1.22-.93.85 0 1.22.32 1.22 1.04v.34l-1.81.2C1.6-2.7 1.1-2.17 1.1-1.28c0 .92.64 1.42 1.72 1.42zm.25-.77c-.67 0-1.02-.28-1.02-.74 0-.44.28-.72 1-.82l1.58-.19v.41c0 .8-.6 1.34-1.56 1.34zm0 0"/></symbol><symbol overflow="visible" id="5172bb3cA"><path d="M2.73.14c.9 0 1.43-.45 1.74-1.08h.06l.13.94h.8v-5.02h-.94v2.7c0 .98-.57 1.62-1.46 1.62-.75 0-1.1-.4-1.1-1.22v-3.1h-.93v3.32c0 1.17.55 1.84 1.7 1.84zm0 0"/></symbol><symbol overflow="visible" id="5172bb3cB"><path d="M5.08-5.16c-.94 0-1.58.43-1.9 1.3h-.09l-.07-1.16H1.05v.77h1.1v3.48H.96V0h3.96v-.77H3.1v-1.46c0-1.36.6-2.05 1.83-2.05.4 0 .76.08 1.1.17l.15-.87c-.33-.11-.7-.18-1.11-.18zm0 0"/></symbol><symbol overflow="visible" id="5172bb3cC"><path d="M3.34.14c1.43 0 2.13-.66 2.25-1.78l-.89-.1c-.1.7-.5 1.08-1.34 1.08-1.03 0-1.52-.64-1.52-1.84 0-1.23.47-1.86 1.52-1.86.84 0 1.23.36 1.34 1.08l.9-.1c-.13-1.09-.82-1.78-2.26-1.78-1.56 0-2.46.97-2.46 2.66 0 1.66.9 2.64 2.46 2.64zm0 0"/></symbol><symbol overflow="visible" id="5172bb3cD"><path d="M3.58-5.81c.42 0 .72-.22.72-.67 0-.44-.3-.68-.72-.68-.44 0-.72.24-.72.68 0 .45.28.67.72.67zm.5.8H1.52v.76h1.6v3.48h-1.8V0h4.46v-.77h-1.7zm0 0"/></symbol><symbol overflow="visible" id="5172bb3cE"><path d="M3.33.14c1.62 0 2.5-.95 2.5-2.66 0-1.68-.88-2.64-2.5-2.64-1.63 0-2.5.96-2.5 2.64 0 1.7.87 2.66 2.5 2.66zm0-.77c-1.06 0-1.52-.6-1.52-1.89 0-1.28.46-1.87 1.52-1.87 1.08 0 1.53.6 1.53 1.87 0 1.29-.45 1.9-1.53 1.9zm0 0"/></symbol><symbol overflow="visible" id="5172bb3cF"><path d="M2.16 0v-2.67c0-.99.59-1.63 1.46-1.63.74 0 1.07.38 1.07 1.22V0h.95v-3.31c0-1.2-.56-1.85-1.67-1.85-.92 0-1.49.46-1.77 1.08h-.06l-.12-.94H1.2V0zm0 0"/></symbol><symbol overflow="visible" id="5172bb3cG"><path d="M3.36.16c1.4 0 2.2-.6 2.2-1.57 0-.89-.54-1.22-1.47-1.39L3-3c-.67-.14-.86-.33-.86-.73 0-.5.4-.74 1.17-.74.83 0 1.19.27 1.27.8l.9-.05c-.12-1-.8-1.47-2.17-1.47-1.34 0-2.1.53-2.1 1.5 0 .81.45 1.22 1.52 1.44l1.04.2c.56.11.87.24.87.72 0 .52-.45.78-1.28.78-.95 0-1.36-.28-1.42-.87l-.9.06C1.07-.36 1.8.16 3.35.16zm0 0"/></symbol><symbol overflow="visible" id="5172bb3cH"><path d="M1.45-2.95c0 2.56 1.08 4.37 3.67 4.84l.11-.67C3.28.86 2.43-.75 2.43-2.95s.85-3.82 2.8-4.16l-.1-.69c-2.6.49-3.68 2.3-3.68 4.85zm0 0"/></symbol><symbol overflow="visible" id="5172bb3cI"><path d="M4.63-6.5c.45 0 .98.08 1.39.2l.2-.72a5.3 5.3 0 00-1.64-.26c-1.52 0-2.16.56-2.16 1.87v.4H.9v.76h1.53V0h.94v-4.25h2.53v-.77H3.36v-.3c0-.84.33-1.18 1.27-1.18zm0 0"/></symbol><symbol overflow="visible" id="5172bb3cJ"><path d="M1.45-7.1c1.96.33 2.8 1.94 2.8 4.15 0 2.2-.84 3.8-2.8 4.17l.11.67c2.58-.47 3.67-2.28 3.67-4.84 0-2.55-1.09-4.36-3.67-4.85zm0 0"/></symbol></defs><g fill="#515151"><use xlink:href="#5172bb3ca" x="149.91" y="152"/><use xlink:href="#5172bb3cb" x="180.81" y="152"/><use xlink:href="#5172bb3cc" x="211.89" y="152"/></g><use xlink:href="#5172bb3cd" x="224.49" y="152" fill="#fff"/><use xlink:href="#5172bb3ce" x="289.89" y="152" fill="#fff"/><use xlink:href="#5172bb3cf" x="310.89" y="152" fill="#fff"/><use xlink:href="#5172bb3cg" x="331.89" y="152" fill="#fff"/><use xlink:href="#5172bb3ch" x="342.69" y="152" fill="#fff"/><use xlink:href="#5172bb3ci" x="363.69" y="152" fill="#fff"/><use xlink:href="#5172bb3cj" x="397.29" y="152" fill="#fff"/><use xlink:href="#5172bb3cg" x="418.29" y="152" fill="#fff"/><use xlink:href="#5172bb3ci" x="429.09" y="152" fill="#fff"/><g fill="#fff"><use xlink:href="#5172bb3ck" x="226.6667" y="252"/><use xlink:href="#5172bb3cl" x="233.3337" y="252"/><use xlink:href="#5172bb3cm" x="240.0007" y="252"/><use xlink:href="#5172bb3cn" x="246.6677" y="252"/><use xlink:href="#5172bb3co" x="253.3347" y="252"/><use xlink:href="#5172bb3cp" x="260.0017" y="252"/><use xlink:href="#5172bb3cq" x="266.6687" y="252"/><use xlink:href="#5172bb3cr" x="273.3357" y="252"/><use xlink:href="#5172bb3cp" x="280.0027" y="252"/><use xlink:href="#5172bb3cs" x="286.6697" y="252"/><use xlink:href="#5172bb3ct" x="293.3367" y="252"/><use xlink:href="#5172bb3cu" x="300.0037" y="252"/><use xlink:href="#5172bb3cp" x="306.6707" y="252"/><use xlink:href="#5172bb3cv" x="313.3377" y="252"/><use xlink:href="#5172bb3cq" x="320.0047" y="252"/><use xlink:href="#5172bb3ct" x="326.6717" y="252"/><use xlink:href="#5172bb3cw" x="333.3387" y="252"/><use xlink:href="#5172bb3cx" x="340.0057" y="252"/><use xlink:href="#5172bb3cp" x="346.6727" y="252"/><use xlink:href="#5172bb3cr" x="353.3397" y="252"/><use xlink:href="#5172bb3ct" x="360.0067" y="252"/><use xlink:href="#5172bb3cx" x="366.6737" y="252"/></g><g fill="#fff"><use xlink:href="#5172bb3cy" x="216.6667" y="266"/><use xlink:href="#5172bb3cl" x="223.3337" y="266"/><use xlink:href="#5172bb3cz" x="230.0007" y="266"/><use xlink:href="#5172bb3cn" x="236.6677" y="266"/><use xlink:href="#5172bb3cA" x="243.3347" y="266"/><use xlink:href="#5172bb3cB" x="250.0017" y="266"/><use xlink:href="#5172bb3cl" x="256.6687" y="266"/><use xlink:href="#5172bb3co" x="263.3357" y="266"/><use xlink:href="#5172bb3cp" x="270.0027" y="266"/><use xlink:href="#5172bb3cy" x="276.6697" y="266"/><use xlink:href="#5172bb3cB" x="283.3367" y="266"/><use xlink:href="#5172bb3cz" x="290.0037" y="266"/><use xlink:href="#5172bb3cC" x="296.6707" y="266"/><use xlink:href="#5172bb3cn" x="303.3377" y="266"/><use xlink:href="#5172bb3cD" x="310.0047" y="266"/><use xlink:href="#5172bb3cE" x="316.6717" y="266"/><use xlink:href="#5172bb3cF" x="323.3387" y="266"/><use xlink:href="#5172bb3cG" x="330.0057" y="266"/><use xlink:href="#5172bb3cp" x="336.6727" y="266"/><use xlink:href="#5172bb3cH" x="343.3397" y="266"/><use xlink:href="#5172bb3cI" x="350.0067" y="266"/><use xlink:href="#5172bb3cB" x="356.6737" y="266"/><use xlink:href="#5172bb3cz" x="363.3407" y="266"/><use xlink:href="#5172bb3cC" x="370.0077" y="266"/><use xlink:href="#5172bb3cJ" x="376.6747" y="266"/></g></svg>