<?xml version='1.0' encoding='UTF-8'?>
<svg xmlns="http://www.w3.org/2000/svg" xmlns:xlink="http://www.w3.org/1999/xlink" width="600px" height="300px" viewBox="0 0 600 300" x="0px" y="0px" enable-background="new 0 0 600 300"><defs><symbol overflow="visible" id="01888c91a"><path d="M8.77.06c2.51 0 4.92-.12 7.73-.12 2.28 0 5.81 0 7.69.12.3-.9.36-1.75.3-2.7-1.5-.36-3.26-.72-5.18-.84-.1-1.15-.17-2.4-.17-3.66v-19.08h7.67c.42 1.8.67 3.78.78 5.64.97.3 1.93.3 3.2 0 .48-2.7.52-5.34.52-8.7l-.47-.49c-3.06.13-8.28.13-11.82.13h-4.93c-3.53 0-8.75 0-11.8-.13l-.5.49c0 3.42.07 6.06.5 8.7 1.2.3 2.15.3 3.23 0 .12-1.86.36-3.84.78-5.64h7.75v20.03c0 .97-.07 1.88-.25 2.7a35.8 35.8 0 01-5.46.85c0 .84.07 1.86.43 2.7zm0 0"/></symbol><symbol overflow="visible" id="01888c91b"><path d="M17.94.84c9.65 0 15.65-8.53 15.65-16.2 0-8.52-5.22-15.19-14.75-15.19-9.65 0-15.6 8.53-15.6 16.2 0 8.47 5.1 15.2 14.7 15.2zm1.37-3.96c-7.6 0-10.73-6.18-10.73-13.08 0-4.38 1.98-7.44 3.72-8.94.84-.72 3.54-1.44 5.15-1.44 7.7 0 10.82 6.17 10.82 13.02 0 4.44-2.05 7.5-3.72 9-.85.72-3.55 1.43-5.24 1.43zm0 0"/></symbol><symbol overflow="visible" id="01888c91c"><path d="M1.86.06c1.98 0 3.9-.12 5.76-.12 1.44 0 4.32 0 5.94.12.24-.9.3-1.75.3-2.7l-4.38-.78 2.33-6h3.61c2.4 0 5.22.06 7.86.23l2.4 5.77-4.68.78c0 .9.13 1.8.42 2.7 2.16 0 4.38-.12 6.78-.12 1.93 0 4.99 0 6.49.12.3-.9.36-1.75.3-2.7-1.08-.36-2.41-.72-3.72-.84L20.64-29.94c-1.92 0-3.6.24-4.98.66L5.52-3.48c-1.38.42-2.7.71-4.08.84 0 .9.12 1.8.42 2.7zm16.08-25.33H18l.23 3.85 3.68 8.83H13zm0 0"/></symbol><symbol overflow="visible" id="01888c91d"><path d="M3 .06c2.16 0 4.27-.12 6.72-.12h5.94c3.54 0 8.64 0 11.82.12l.47-.48c.43-3.3.49-6.17.49-9.06a7.07 7.07 0 00-3.17-.24 43.97 43.97 0 01-1.82 6.24H12.3v-16.68c0-2.57.06-4.43.25-6.06 1.9-.12 3.65-.42 5.15-.84a6.75 6.75 0 00-.36-2.7c-1.68.12-5.1.12-7.26.12-2.58 0-4.8-.13-7.08-.13-.3.91-.42 1.82-.42 2.7 1.44.13 2.87.43 4.33.85.17 1.63.3 3.42.3 6.06v14.04c0 .9-.07 1.8-.3 2.64-1.46.42-2.9.71-4.33.84 0 .9.12 1.8.42 2.7zm0 0"/></symbol><symbol overflow="visible" id="01888c91e"><path d="M4.02-24.48a4.06 4.06 0 008.1 0c0-2.1-1.8-3.72-4.03-3.72-2.21 0-4.07 1.62-4.07 3.72zm0 21.36a4.06 4.06 0 008.1 0c0-2.1-1.8-3.72-4.03-3.72-2.21 0-4.07 1.62-4.07 3.71zm0 0"/></symbol><symbol overflow="visible" id="01888c91g"><path d="M26.7-9.13c0-3.23-3.12-5.57-7.62-7.6v-.07c3.72-1.75 6.19-4.32 6.19-7.32 0-3.36-3.36-6.43-9.55-6.43-4.99 0-10.86 3.55-10.86 8.9 0 2.57 2.4 4.67 6.23 6.52v.07c-5.03 2.28-7.25 5.15-7.25 8.34C3.84-1.62 7.63.84 14.1.84c7.33 0 12.61-4.98 12.61-9.96zM9.84-23.16c0-1.32.54-2.28 1.32-2.76a9.39 9.39 0 013.48-.66c3.3 0 5.88 1.86 5.88 3.95 0 1.63-2.1 3.32-4.5 4.57-3.6-1.57-6.18-3.13-6.18-5.1zm-1.2 15.3c0-2.22 2.4-4.33 5.88-5.7 3.9 1.75 7.14 3.48 7.14 5.87a4.3 4.3 0 01-1.57 3.49c-.53.42-2.64 1.08-4.9 1.08-2.96 0-6.55-1.08-6.55-4.74zm0 0"/></symbol><symbol overflow="visible" id="01888c91h"><path d="M12.72.66c6.84 0 12.36-5.4 12.36-11.52 0-4.62-4.08-8.28-10.2-8.28-1.38 0-2.58.12-3.96.42v-7.26h12.3c.3-.96.48-2.04.55-3.3l-.49-.49c-3.6.07-7.26.13-10.8.13H6.42l-.48.48v14.58l.48.49c2.28-.68 4.56-1.1 7.14-1.1 3.49 0 6.17 2.24 6.17 5.64 0 1.82-.53 3.9-1.92 5.05-.6.48-2.58 1.2-4.54 1.2-1.5 0-2.96-.12-3.97-.36C8.7-5.46 8.34-7.2 8.1-9a6.94 6.94 0 00-3.18.23c-.36 2.41-.54 4.93-.6 7.86a23.76 23.76 0 008.4 1.57zm0 0"/></symbol><symbol overflow="visible" id="01888c91i"><path d="M3.66.06c2.46 0 4.8-.12 7.62-.12 2.22 0 5.81 0 7.5.12.24-.84.36-1.8.3-2.7-1.5-.42-3.17-.72-5.03-.84-.13-1.2-.2-2.46-.2-3.79v-22.67l-.47-.48c-4.02.42-7.2 1.2-10.08 2.4-.11.96.12 1.74.48 2.4h4.99V-6.3c0 .96-.07 1.92-.25 2.82-1.8.42-3.54.71-5.33.84 0 .9.1 1.8.47 2.7zm0 0"/></symbol><symbol overflow="visible" id="01888c91j"><path d="M23.4-27.95a3.34 3.34 0 00-.6-2.7C8.16-29.1 3.66-20.89 3.66-12.14 3.66-6.83 6.19.85 14.46.85c5.82 0 11.76-4.14 11.76-11.04 0-4.74-3.66-8.52-8.88-8.52-2.7 0-5.4.84-8.34 3.36h-.06c.3-6.23 4.37-10.8 14.47-12.6zm-8.04 13.37c3.3 0 6.12 2.35 6.12 5.4 0 2.23-.71 4.09-2.04 5.16-.42.36-1.92.9-3.53.9-3.91 0-6.25-3.83-6.85-9.07 1.92-1.37 4.25-2.39 6.3-2.39zm0 0"/></symbol><symbol overflow="visible" id="01888c91k"><path d="M3.83 0v-5.95H6.2v-.82H.45v.82h2.4V0zm0 0"/></symbol><symbol overflow="visible" id="01888c91l"><path d="M5.75-2.23v-.43c0-1.6-.9-2.51-2.42-2.51S.87-4.16.87-2.48c0 1.71.91 2.62 2.5 2.62 1.43 0 2.07-.56 2.29-1.52l-.9-.09c-.18.61-.59.9-1.35.9-.94 0-1.52-.54-1.58-1.66zm-2.4-2.2c.93 0 1.43.5 1.48 1.55H1.84c.08-1.07.6-1.56 1.5-1.56zm0 0"/></symbol><symbol overflow="visible" id="01888c91m"><path d="M1.83 0l1.42-2h.06l1.46 2H5.8L4-2.53l1.78-2.49H4.8L3.42-3.08h-.08l-1.4-1.94H.89l1.78 2.49L.84 0zm0 0"/></symbol><symbol overflow="visible" id="01888c91n"><path d="M5.52-4.25v-.77H3.17v-1.56h-.81l-.14 1.56H.75v.77h1.47v2.4c0 1.3.48 1.94 1.84 1.94C4.6.1 5.14 0 5.55-.14L5.4-.91c-.32.13-.72.2-1.13.2-.8 0-1.1-.37-1.1-1.23v-2.31zm0 0"/></symbol><symbol overflow="visible" id="01888c91o"><path d="M3.33-3.42c.47 0 .8-.27.8-.8 0-.51-.33-.8-.8-.8-.47 0-.8.29-.8.8 0 .53.33.8.8.8zm0 3.5c.47 0 .8-.27.8-.78 0-.53-.33-.82-.8-.82-.47 0-.8.29-.8.82 0 .51.33.78.8.78zm0 0"/></symbol><symbol overflow="visible" id="01888c91q"><path d="M3.33.14c1.62 0 2.5-.95 2.5-2.66 0-1.68-.88-2.64-2.5-2.64-1.63 0-2.5.96-2.5 2.64 0 1.7.87 2.66 2.5 2.66zm0-.77c-1.06 0-1.52-.6-1.52-1.89 0-1.28.46-1.87 1.52-1.87 1.08 0 1.53.6 1.53 1.87 0 1.29-.45 1.9-1.53 1.9zm0 0"/></symbol><symbol overflow="visible" id="01888c91r"><path d="M2.83.14c.94 0 1.5-.39 1.81-.95h.08l.1.81h.76v-3.38c0-1.23-.69-1.8-2.13-1.8-1.43 0-2.03.65-2.18 1.6l.93.1c.11-.6.44-.93 1.22-.93.85 0 1.22.32 1.22 1.04v.34l-1.81.2C1.6-2.7 1.1-2.17 1.1-1.28c0 .92.64 1.42 1.72 1.42zm.25-.77c-.67 0-1.02-.28-1.02-.74 0-.44.28-.72 1-.82l1.58-.19v.41c0 .8-.6 1.34-1.56 1.34zm0 0"/></symbol><symbol overflow="visible" id="01888c91s"><path d="M3.92-7.14H1.36v.76h1.6v5.61H1.15V0H5.7v-.77H3.92zm0 0"/></symbol><symbol overflow="visible" id="01888c91t"><path d="M3.33.16c1.69 0 2.69-.74 2.69-1.94 0-1.05-.8-1.58-1.43-1.72v-.05c.5-.14 1.2-.58 1.2-1.56 0-1.12-.95-1.81-2.46-1.81-1.52 0-2.46.69-2.46 1.81 0 .97.68 1.4 1.18 1.56v.05c-.6.14-1.4.64-1.4 1.72 0 1.2 1 1.94 2.68 1.94zm0-4.04c-.97 0-1.49-.43-1.49-1.12 0-.78.52-1.1 1.49-1.1.95 0 1.48.32 1.48 1.1 0 .69-.53 1.13-1.48 1.13zm0 3.24c-1.1 0-1.7-.42-1.7-1.25 0-.78.6-1.2 1.7-1.2s1.7.42 1.7 1.2c0 .83-.6 1.25-1.7 1.25zm0 0"/></symbol><symbol overflow="visible" id="01888c91u"><path d="M3.42.14c1.55 0 2.44-.84 2.44-2.33 0-1.45-.83-2.22-2.14-2.22-.75 0-1.28.27-1.67.72H2l.31-2.22h3.11v-.86H1.53l-.45 3.93h.81c.3-.36.9-.79 1.58-.79.92 0 1.44.43 1.44 1.47 0 .99-.54 1.5-1.49 1.5-.83 0-1.28-.32-1.5-1.01l-.95.1C1.07-.46 2 .13 3.42.13zm0 0"/></symbol><symbol overflow="visible" id="01888c91v"><path d="M4.22-6.77h-.86l-2.03.7v.87c.64-.17 1.26-.38 1.89-.55v4.9H1.03V0h4.9v-.86H4.21zm0 0"/></symbol><symbol overflow="visible" id="01888c91w"><path d="M3.42.14c1.58 0 2.49-.86 2.49-2.3 0-1.42-.86-2.17-2.22-2.17-1.03 0-1.58.5-1.9 1.02h-.04c.03-1.63.4-2.77 1.73-2.77.91 0 1.24.44 1.36.96l.97-.11c-.23-.96-.86-1.68-2.33-1.68C1.84-6.9.86-5.86.86-3.1.86-.9 1.78.14 3.42.14zm.02-.78c-.9 0-1.47-.55-1.47-1.47 0-.9.7-1.47 1.53-1.47.92 0 1.47.52 1.47 1.47 0 .97-.6 1.47-1.53 1.47zm0 0"/></symbol><symbol overflow="visible" id="01888c91x"><path d="M5.95-6.77H1.1V0h.99v-2.92H5.3v-.77H2.08v-2.26h3.87zm0 0"/></symbol><symbol overflow="visible" id="01888c91y"><path d="M2.73.14c.9 0 1.43-.45 1.74-1.08h.06l.13.94h.8v-5.02h-.94v2.7c0 .98-.57 1.62-1.46 1.62-.75 0-1.1-.4-1.1-1.22v-3.1h-.93v3.32c0 1.17.55 1.84 1.7 1.84zm0 0"/></symbol><symbol overflow="visible" id="01888c91z"><path d="M5.08-5.16c-.94 0-1.58.43-1.9 1.3h-.09l-.07-1.16H1.05v.77h1.1v3.48H.96V0h3.96v-.77H3.1v-1.46c0-1.36.6-2.05 1.83-2.05.4 0 .76.08 1.1.17l.15-.87c-.33-.11-.7-.18-1.11-.18zm0 0"/></symbol><symbol overflow="visible" id="01888c91A"><path d="M3.42.14c1.61 0 2.56-.75 2.56-2 0-1.1-.67-1.6-1.95-1.86l-.97-.2c-.87-.17-1.23-.49-1.23-1.11 0-.7.54-1.11 1.5-1.11 1.06 0 1.51.34 1.69 1.23l.9-.09c-.17-1.28-.98-1.9-2.6-1.9C1.79-6.9.9-6.18.9-4.98c0 1.06.66 1.66 1.88 1.9l1.01.2c.85.17 1.25.4 1.25 1.09 0 .73-.6 1.16-1.6 1.16-1.07 0-1.66-.4-1.8-1.24l-.94.1C.83-.53 1.75.13 3.42.13zm0 0"/></symbol><symbol overflow="visible" id="01888c91B"><path d="M1.63 0v-2.9c0-.8.15-1.4.71-1.4.41 0 .55.3.55.88V0h.95v-2.9c0-.8.18-1.4.72-1.4.4 0 .57.3.57.88V0h.95v-3.63c0-.92-.28-1.53-1.11-1.53-.63 0-.95.41-1.1.9h-.06c-.1-.52-.44-.9-1.08-.9-.6 0-.93.41-1.06.9H1.6l-.23-.76H.67V0zm0 0"/></symbol><symbol overflow="visible" id="01888c91C"><path d="M5.33-2.2v-.75h-4v.75zm0 0"/></symbol><symbol overflow="visible" id="01888c91D"><path d="M3.34.14c1.43 0 2.13-.66 2.25-1.78l-.89-.1c-.1.7-.5 1.08-1.34 1.08-1.03 0-1.52-.64-1.52-1.84 0-1.23.47-1.86 1.52-1.86.84 0 1.23.36 1.34 1.08l.9-.1c-.13-1.09-.82-1.78-2.26-1.78-1.56 0-2.46.97-2.46 2.66 0 1.66.9 2.64 2.46 2.64zm0 0"/></symbol><symbol overflow="visible" id="01888c91E"><path d="M2.06 1.9V-.84h.05c.28.58.8.97 1.77.97 1.5 0 2.2-.98 2.2-2.66 0-1.65-.7-2.64-2.19-2.64-.97 0-1.5.44-1.78 1.05h-.08l-.1-.9H1.1v6.9zm1.5-2.56c-1.06 0-1.53-.8-1.53-1.86 0-1.04.47-1.84 1.53-1.84 1.11 0 1.53.61 1.53 1.84 0 1.27-.42 1.86-1.53 1.86zm0 0"/></symbol><symbol overflow="visible" id="01888c91F"><path d="M2.16 0v-2.67c0-.99.59-1.63 1.46-1.63.74 0 1.07.38 1.07 1.22V0h.95v-3.31c0-1.2-.56-1.85-1.67-1.85-.92 0-1.49.46-1.77 1.08h-.06l-.12-.94H1.2V0zm0 0"/></symbol><symbol overflow="visible" id="01888c91G"><path d="M3.36.16c1.4 0 2.2-.6 2.2-1.57 0-.89-.54-1.22-1.47-1.39L3-3c-.67-.14-.86-.33-.86-.73 0-.5.4-.74 1.17-.74.83 0 1.19.27 1.27.8l.9-.05c-.12-1-.8-1.47-2.17-1.47-1.34 0-2.1.53-2.1 1.5 0 .81.45 1.22 1.52 1.44l1.04.2c.56.11.87.24.87.72 0 .52-.45.78-1.28.78-.95 0-1.36-.28-1.42-.87l-.9.06C1.07-.36 1.8.16 3.35.16zm0 0"/></symbol><symbol overflow="visible" id="01888c91H"><path d="M1.45-2.95c0 2.56 1.08 4.37 3.67 4.84l.11-.67C3.28.86 2.43-.75 2.43-2.95s.85-3.82 2.8-4.16l-.1-.69c-2.6.49-3.68 2.3-3.68 4.85zm0 0"/></symbol><symbol overflow="visible" id="01888c91I"><path d="M5.67 0v-.86H2.14V-.9L3.6-2c1.05-.83 2-1.68 2-2.91 0-1.19-.73-1.99-2.26-1.99-1.66 0-2.3 1.02-2.44 2.33l1 .08c.1-.92.42-1.58 1.44-1.58.87 0 1.26.44 1.26 1.24 0 .9-.8 1.53-1.96 2.53L.83-.81V0zm0 0"/></symbol><symbol overflow="visible" id="01888c91J"><path d="M1.45-7.1c1.96.33 2.8 1.94 2.8 4.15 0 2.2-.84 3.8-2.8 4.17l.11.67c2.58-.47 3.67-2.28 3.67-4.84 0-2.55-1.09-4.36-3.67-4.85zm0 0"/></symbol></defs><use xlink:href="#01888c91a" x="149.76" y="152" fill="#515151"/><use xlink:href="#01888c91b" x="181.68" y="152" fill="#515151"/><use xlink:href="#01888c91a" x="217.32" y="152" fill="#515151"/><use xlink:href="#01888c91c" x="245.94" y="152" fill="#515151"/><use xlink:href="#01888c91d" x="280.8" y="152" fill="#515151"/><g fill="#515151"><use xlink:href="#01888c91e" x="310.92" y="152"/><use xlink:href="#01888c91f" x="327.12" y="152"/></g><use xlink:href="#01888c91g" x="339.72" y="152" fill="#fff"/><use xlink:href="#01888c91h" x="370.08" y="152" fill="#fff"/><use xlink:href="#01888c91i" x="399.06" y="152" fill="#fff"/><use xlink:href="#01888c91j" x="420.9" y="152" fill="#fff"/><g fill="#fff"><use xlink:href="#01888c91k" x="243.3333" y="252"/><use xlink:href="#01888c91l" x="250.0003" y="252"/><use xlink:href="#01888c91m" x="256.6673" y="252"/><use xlink:href="#01888c91n" x="263.3343" y="252"/><use xlink:href="#01888c91o" x="270.0013" y="252"/><use xlink:href="#01888c91p" x="276.6683" y="252"/><use xlink:href="#01888c91k" x="283.3353" y="252"/><use xlink:href="#01888c91q" x="290.0023" y="252"/><use xlink:href="#01888c91n" x="296.6693" y="252"/><use xlink:href="#01888c91r" x="303.3363" y="252"/><use xlink:href="#01888c91s" x="310.0033" y="252"/><use xlink:href="#01888c91o" x="316.6703" y="252"/><use xlink:href="#01888c91p" x="323.3373" y="252"/><use xlink:href="#01888c91t" x="330.0043" y="252"/><use xlink:href="#01888c91u" x="336.6713" y="252"/><use xlink:href="#01888c91v" x="343.3383" y="252"/><use xlink:href="#01888c91w" x="350.0053" y="252"/></g><g fill="#fff"><use xlink:href="#01888c91x" x="186.6667" y="266"/><use xlink:href="#01888c91l" x="193.3337" y="266"/><use xlink:href="#01888c91r" x="200.0007" y="266"/><use xlink:href="#01888c91n" x="206.6677" y="266"/><use xlink:href="#01888c91y" x="213.3347" y="266"/><use xlink:href="#01888c91z" x="220.0017" y="266"/><use xlink:href="#01888c91l" x="226.6687" y="266"/><use xlink:href="#01888c91o" x="233.3357" y="266"/><use xlink:href="#01888c91p" x="240.0027" y="266"/><use xlink:href="#01888c91A" x="246.6697" y="266"/><use xlink:href="#01888c91B" x="253.3367" y="266"/><use xlink:href="#01888c91r" x="260.0037" y="266"/><use xlink:href="#01888c91s" x="266.6707" y="266"/><use xlink:href="#01888c91s" x="273.3377" y="266"/><use xlink:href="#01888c91C" x="280.0047" y="266"/><use xlink:href="#01888c91D" x="286.6717" y="266"/><use xlink:href="#01888c91r" x="293.3387" y="266"/><use xlink:href="#01888c91E" x="300.0057" y="266"/><use xlink:href="#01888c91p" x="306.6727" y="266"/><use xlink:href="#01888c91F" x="313.3397" y="266"/><use xlink:href="#01888c91y" x="320.0067" y="266"/><use xlink:href="#01888c91B" x="326.6737" y="266"/><use xlink:href="#01888c91l" x="333.3407" y="266"/><use xlink:href="#01888c91z" x="340.0077" y="266"/><use xlink:href="#01888c91r" x="346.6747" y="266"/><use xlink:href="#01888c91s" x="353.3417" y="266"/><use xlink:href="#01888c91G" x="360.0087" y="266"/><use xlink:href="#01888c91p" x="366.6757" y="266"/><use xlink:href="#01888c91H" x="373.3427" y="266"/><use xlink:href="#01888c91D" x="380.0097" y="266"/><use xlink:href="#01888c91I" x="386.6767" y="266"/><use xlink:href="#01888c91G" x="393.3437" y="266"/><use xlink:href="#01888c91D" x="400.0107" y="266"/><use xlink:href="#01888c91J" x="406.6777" y="266"/></g></svg>