<?xml version='1.0' encoding='UTF-8'?>
<svg xmlns="http://www.w3.org/2000/svg" xmlns:xlink="http://www.w3.org/1999/xlink" width="600px" height="300px" viewBox="0 0 600 300" x="0px" y="0px" enable-background="new 0 0 600 300"><defs><symbol overflow="visible" id="5e45f093a"><path d="M12.9-47.77c1.5-1.67 3.3-2.75 4.2-2.75 2.76 0 4.98 2.82 8.04 2.82 2.52 0 5.64-2.46 7.5-5.7a3.13 3.13 0 00-2.1-1.55c-1.5 1.67-3.3 2.75-4.2 2.75-3 0-4.92-2.82-8.15-2.82-2.4 0-5.47 2.33-7.33 5.58.3.78.95 1.38 2.05 1.67zm3.72 5.96l.47.47c1.86 0 3.2.72 3.2 1.92 0 1.62-1.7 2.87-4.15 3.9 0 1.08.36 1.8 1.02 2.46 5.28-1.2 8.21-4.56 8.21-8.16 0-2.64-2.21-5.16-6.1-4.86a5.26 5.26 0 00-2.64 4.27zM2.46.06c3.2-.12 8.11-.12 11.7-.12h1.76c.89-.6 1.5-1.5 1.73-2.64-4.33-4.02-7.14-8.28-7.14-13.61 0-3.61 1.56-6.9 3.9-9.07.79-.71 3-1.2 4.97-1.2 5.22 0 9.68 4.5 9.68 10.67 0 4.93-2.6 9.32-6.78 13.4.3.95.82 1.8 1.67 2.45h1.68c3.6 0 8.4 0 11.58.12l.49-.48c.4-2.58.53-5.52.53-8.28a7.13 7.13 0 00-3.17-.24 45.5 45.5 0 01-1.82 5.46H27.3v-.07c3.97-3.23 7.07-8.51 7.07-13.73 0-6.24-4.6-13.27-13.85-13.27-9.11 0-15.36 8.05-15.36 14.83 0 4.63 3.36 9.36 7.14 12.17v.07h-6a45.42 45.42 0 01-1.8-5.46 7.24 7.24 0 00-3.06.24c0 2.76.19 5.47.54 8.28zm0 0"/></symbol><symbol overflow="visible" id="5e45f093b"><path d="M3 .06c2.16 0 4.27-.12 6.72-.12 2.22 0 5.83 0 7.62.12.3-.9.3-1.75.3-2.7a32.6 32.6 0 00-5.16-.84 32.87 32.87 0 01-.18-3.6v-19.14h9.97c.42 1.74.65 3.84.78 5.64.95.3 2.1.3 3.17 0 .42-2.64.6-5.51.55-8.7l-.49-.49c-3.06.13-8.1.13-11.7.13H9.72c-2.45 0-4.56-.13-6.72-.13-.3.91-.42 1.82-.42 2.7 1.44.13 2.87.43 4.33.85.17 1.63.3 3.42.3 6.06v14.04c0 .9-.07 1.8-.3 2.64-1.46.42-2.9.71-4.33.84 0 .9.12 1.8.42 2.7zm0 0"/></symbol><symbol overflow="visible" id="5e45f093c"><path d="M9.84-34.63c1.68-1.8 3.72-3 4.8-3 3.13 0 5.58 3.32 9.13 3.32 2.75 0 6.36-2.53 8.45-5.96a3.13 3.13 0 00-2.1-1.54c-1.68 1.8-3.71 3-4.8 3-3.37 0-5.59-3.31-9.18-3.31-2.7 0-6.23 2.4-8.34 5.82.3.78.97 1.38 2.04 1.67zM3 .08c2.16 0 4.27-.13 6.72-.13 1.92 0 4.98 0 6.55.12.23-.9.3-1.75.3-2.7-1.21-.36-2.59-.72-4.02-.84a22.13 22.13 0 01-.25-3.6v-6.72H18c3.23 0 6.66.07 10.02.24v7.44c0 .9-.07 1.8-.3 2.64-1.44.42-2.88.71-4.31.84 0 .9.1 1.8.4 2.7 2.17 0 4.27-.12 6.74-.12 1.9 0 4.97 0 6.53.12.23-.9.3-1.75.3-2.7a20.02 20.02 0 00-4.02-.84 24.09 24.09 0 01-.23-3.6v-13.08c0-2.64.06-4.43.23-6.06 1.44-.12 2.83-.48 4.02-.84 0-.96-.07-1.86-.3-2.7-1.56.12-4.63.12-6.53.12-2.47 0-4.57-.13-6.74-.13-.3.91-.4 1.82-.4 2.7 1.43.13 2.87.43 4.3.85.2 1.63.3 3.42.3 6.06v3H12.3v-3c0-2.64.06-4.43.25-6.06 1.43-.12 2.8-.48 4.01-.84 0-.96-.06-1.86-.3-2.7-1.56.12-4.62.12-6.54.12-2.45 0-4.56-.13-6.72-.13-.3.91-.42 1.82-.42 2.7 1.44.13 2.87.43 4.33.85.17 1.63.3 3.42.3 6.06v14.04c0 .9-.07 1.8-.3 2.64-1.46.42-2.9.71-4.33.84 0 .9.12 1.8.42 2.7zm0 0"/></symbol><symbol overflow="visible" id="5e45f093d"><path d="M18.06-16.14v-.6l-8.15-9.48h12.4c.38 1.63.74 3.3.78 4.86 1.14.3 2.18.3 3.25 0 .36-2.58.54-5.16.47-7.92l-.47-.49c-3.18.13-8.4.13-12.06.13H4.31a5.54 5.54 0 00-1.54 3.3l9.65 11.21L2.28-3c0 1.02.17 2.05.6 2.94H14.8c3.61 0 8.9 0 12.06.12l.49-.48c.36-3.24.55-5.94.55-8.28a7.2 7.2 0 00-3.2-.24c-.35 1.5-.9 3.36-1.5 4.74H8.06zm0 0"/></symbol><symbol overflow="visible" id="5e45f093e"><path d="M29.64-29.64H9.72c-2.45 0-4.56-.13-6.72-.13-.3.91-.42 1.82-.42 2.7 1.44.13 2.87.43 4.33.85.17 1.63.3 3.42.3 6.06v14.04c0 .9-.07 1.8-.3 2.64-1.46.42-2.9.71-4.33.84 0 .9.12 1.8.42 2.7 2.16 0 4.27-.12 6.72-.12 1.92 0 4.98 0 6.55.12.23-.9.3-1.75.3-2.7-1.21-.36-2.59-.72-4.02-.84a22.13 22.13 0 01-.25-3.6v-19.14h14.82v20.1c0 1.32-.06 1.98-.3 2.64-1.45.42-2.88.71-4.32.84 0 .9.13 1.8.42 2.7 2.16 0 4.27-.12 6.72-.12 1.92 0 4.98 0 6.55.12.23-.9.3-1.75.3-2.7-1.2-.36-2.58-.72-4.04-.84a24.09 24.09 0 01-.23-3.6v-13.08c0-2.64.06-4.43.23-6.06 1.46-.12 2.83-.48 4.03-.84 0-.96-.06-1.86-.3-2.7-1.55.12-4.62.12-6.54.12zm0 0"/></symbol><symbol overflow="visible" id="5e45f093f"><path d="M1.86.06c1.98 0 3.9-.12 5.76-.12 1.44 0 4.32 0 5.94.12.24-.9.3-1.75.3-2.7l-4.38-.78 2.33-6h3.61c2.4 0 5.22.06 7.86.23l2.4 5.77-4.68.78c0 .9.13 1.8.42 2.7 2.16 0 4.38-.12 6.78-.12 1.93 0 4.99 0 6.49.12.3-.9.36-1.75.3-2.7-1.08-.36-2.41-.72-3.72-.84L20.64-29.94c-1.92 0-3.6.24-4.98.66L5.52-3.48c-1.38.42-2.7.71-4.08.84 0 .9.12 1.8.42 2.7zm16.08-25.33H18l.23 3.85 3.68 8.83H13zm0 0"/></symbol><symbol overflow="visible" id="5e45f093g"><path d="M18.23-21.42l7.46 18-4.69.78c0 .9.13 1.8.42 2.7 2.16 0 4.38-.12 6.78-.12 1.93 0 4.99 0 6.49.12.3-.9.36-1.75.3-2.7-1.08-.36-2.41-.72-3.72-.84L20.64-29.94c-1.92 0-3.6.24-4.98.66L5.52-3.48c-1.38.42-2.7.71-4.08.84 0 .9.12 1.8.42 2.7 1.98 0 3.9-.12 5.76-.12 1.44 0 4.32 0 5.94.12.24-.9.3-1.75.3-2.7l-4.38-.78 8.46-21.85H18zm0 0"/></symbol><symbol overflow="visible" id="5e45f093h"><path d="M3 .06c2.16 0 4.27-.12 6.72-.12 1.92 0 4.98 0 6.55.12.23-.9.3-1.75.3-2.7-1.21-.36-2.59-.72-4.02-.84a22.13 22.13 0 01-.25-3.6v-13.08c0-2.64.06-4.43.25-6.06 1.43-.12 2.8-.48 4.01-.84 0-.96-.06-1.86-.3-2.7-1.56.12-4.62.12-6.54.12-2.45 0-4.56-.13-6.72-.13-.3.91-.42 1.82-.42 2.7 1.44.13 2.87.43 4.33.85.17 1.63.3 3.42.3 6.06v14.04c0 .9-.07 1.8-.26 2.64-1.43.42-2.93.71-4.37.84 0 .9.12 1.8.42 2.7zm0 0"/></symbol><symbol overflow="visible" id="5e45f093i"><path d="M18.3-33.48c1.32-.07 2.1-.54 3-1.61l-4.8-12.49a6.17 6.17 0 00-5.58 2.81v.72zM17.94.84c9.65 0 15.65-8.53 15.65-16.2 0-8.52-5.22-15.19-14.75-15.19-9.65 0-15.6 8.53-15.6 16.2 0 8.47 5.1 15.2 14.7 15.2zm1.37-3.96c-7.6 0-10.73-6.18-10.73-13.08 0-4.38 1.98-7.44 3.72-8.94.84-.72 3.54-1.44 5.15-1.44 7.7 0 10.82 6.17 10.82 13.02 0 4.44-2.05 7.5-3.72 9-.85.72-3.55 1.43-5.24 1.43zm0 0"/></symbol><symbol overflow="visible" id="5e45f093j"><path d="M27.42.23c1.8-.04 3.9-.3 5.52-.71v-19.68c0-2.57.06-4.43.19-6.06 1.5-.12 2.87-.48 4.07-.84 0-.96-.06-1.86-.3-2.7-1.56.12-4.45.12-5.88.12-1.93 0-4.08-.13-6.18-.13-.3.91-.42 1.82-.42 2.7 1.44.13 2.88.43 4.31.85.2 1.63.25 3.49.25 6.06v15.11h-.06L27.6-9.42 13.86-29.45c-1.31-.2-3-.2-4.63-.2-1.96 0-4.07-.12-6.23-.12-.3.91-.42 1.82-.42 2.7 1.44.13 2.87.43 4.33.85.17 1.63.3 3.42.3 6.06v14.04c0 .9-.07 1.8-.3 2.64-1.46.42-2.9.71-4.33.84 0 .9.12 1.8.42 2.7 2.1 0 4.2-.12 6.13-.12 1.5 0 4.37 0 6 .12.23-.9.3-1.75.3-2.7-1.21-.36-2.59-.72-4.09-.84-.12-1.15-.18-2.4-.18-3.66V-25.5h.12l1.31 4.38zm0 0"/></symbol><symbol overflow="visible" id="5e45f093k"><path d="M3.83 0v-5.95H6.2v-.82H.45v.82h2.4V0zm0 0"/></symbol><symbol overflow="visible" id="5e45f093l"><path d="M5.75-2.23v-.43c0-1.6-.9-2.51-2.42-2.51S.87-4.16.87-2.48c0 1.71.91 2.62 2.5 2.62 1.43 0 2.07-.56 2.29-1.52l-.9-.09c-.18.61-.59.9-1.35.9-.94 0-1.52-.54-1.58-1.66zm-2.4-2.2c.93 0 1.43.5 1.48 1.55H1.84c.08-1.07.6-1.56 1.5-1.56zm0 0"/></symbol><symbol overflow="visible" id="5e45f093m"><path d="M1.83 0l1.42-2h.06l1.46 2H5.8L4-2.53l1.78-2.49H4.8L3.42-3.08h-.08l-1.4-1.94H.89l1.78 2.49L.84 0zm0 0"/></symbol><symbol overflow="visible" id="5e45f093n"><path d="M5.52-4.25v-.77H3.17v-1.56h-.81l-.14 1.56H.75v.77h1.47v2.4c0 1.3.48 1.94 1.84 1.94C4.6.1 5.14 0 5.55-.14L5.4-.91c-.32.13-.72.2-1.13.2-.8 0-1.1-.37-1.1-1.23v-2.31zm0 0"/></symbol><symbol overflow="visible" id="5e45f093o"><path d="M3.33-3.42c.47 0 .8-.27.8-.8 0-.51-.33-.8-.8-.8-.47 0-.8.29-.8.8 0 .53.33.8.8.8zm0 3.5c.47 0 .8-.27.8-.78 0-.53-.33-.82-.8-.82-.47 0-.8.29-.8.82 0 .51.33.78.8.78zm0 0"/></symbol><symbol overflow="visible" id="5e45f093r"><path d="M5.03-5.02L3.41-1.08h-.07L1.7-5.02H.67l2.2 5.1v1.81h.93V.08L6-5.02zm0 0"/></symbol><symbol overflow="visible" id="5e45f093t"><path d="M5.08 1.95c.15-.3.33-.72.33-1.22 0-.95-.72-1.23-1.49-1.48C3-1.03 2.1-1.35 2.1-2.72c0-1.01.49-1.65 1.5-1.65.83 0 1.22.37 1.33 1.09l.9-.1c-.13-1.09-.84-1.78-2.24-1.78-1.56 0-2.46 1-2.46 2.49 0 1.89 1.22 2.31 2.24 2.64.62.19 1.1.37 1.1.87 0 .36-.13.68-.26.94zm0 0"/></symbol><symbol overflow="visible" id="5e45f093u"><path d="M6.08-5.02H.59v.83h.88V0h.87v-4.19h1.91v2.96C4.25-.27 4.63.1 5.42.1c.24 0 .47-.05.61-.1L5.97-.7l-.33.03c-.37 0-.5-.14-.5-.67V-4.2h.94zm0 0"/></symbol><symbol overflow="visible" id="5e45f093v"><path d="M2.72.14c.97 0 1.45-.55 1.7-1.12h.08C4.56-.25 4.92.1 5.7.1c.27 0 .5-.05.66-.11l-.11-.72c-.1.03-.2.05-.33.05-.34 0-.54-.16-.54-.66v-3.69h-.96v.83h-.06c-.27-.6-.8-.97-1.64-.97-1.4 0-2.14.99-2.14 2.66C.58-.84 1.33.14 2.72.14zm.25-.8C2-.66 1.55-1.25 1.55-2.5S2-4.36 2.97-4.36c1.01 0 1.48.8 1.48 1.86 0 1.05-.47 1.84-1.48 1.84zm0 0"/></symbol><symbol overflow="visible" id="5e45f093w"><path d="M4.06-5.02c-.62-1.53-.76-2.26-1.83-2.26-.26 0-.54.05-.76.1l.1.76c.2-.05.35-.06.5-.06.48 0 .66.21 1 1.09l.13.37h-.37L.8 0h.98L3.4-4.13h.06L5.05 0h1zm0 0"/></symbol><symbol overflow="visible" id="5e45f093x"><path d="M5.4-.75c-.24.05-.5.08-.76.08-.62 0-.84-.16-.84-.77v-3.58H1.23v.83h1.61v2.86C2.84-.3 3.27.11 4.36.11c.37 0 .78-.06 1.12-.14zm0 0"/></symbol><symbol overflow="visible" id="5e45f093z"><path d="M3.9 0l2-5.02h-.96L3.4-.94h-.07L1.8-5.02H.77L2.78 0zm0 0"/></symbol><symbol overflow="visible" id="5e45f093A"><path d="M5.95-6.77H1.1V0h.99v-2.92H5.3v-.77H2.08v-2.26h3.87zm0 0"/></symbol><symbol overflow="visible" id="5e45f093B"><path d="M2.83.14c.94 0 1.5-.39 1.81-.95h.08l.1.81h.76v-3.38c0-1.23-.69-1.8-2.13-1.8-1.43 0-2.03.65-2.18 1.6l.93.1c.11-.6.44-.93 1.22-.93.85 0 1.22.32 1.22 1.04v.34l-1.81.2C1.6-2.7 1.1-2.17 1.1-1.28c0 .92.64 1.42 1.72 1.42zm.25-.77c-.67 0-1.02-.28-1.02-.74 0-.44.28-.72 1-.82l1.58-.19v.41c0 .8-.6 1.34-1.56 1.34zm0 0"/></symbol><symbol overflow="visible" id="5e45f093C"><path d="M2.73.14c.9 0 1.43-.45 1.74-1.08h.06l.13.94h.8v-5.02h-.94v2.7c0 .98-.57 1.62-1.46 1.62-.75 0-1.1-.4-1.1-1.22v-3.1h-.93v3.32c0 1.17.55 1.84 1.7 1.84zm0 0"/></symbol><symbol overflow="visible" id="5e45f093D"><path d="M5.08-5.16c-.94 0-1.58.43-1.9 1.3h-.09l-.07-1.16H1.05v.77h1.1v3.48H.96V0h3.96v-.77H3.1v-1.46c0-1.36.6-2.05 1.83-2.05.4 0 .76.08 1.1.17l.15-.87c-.33-.11-.7-.18-1.11-.18zm0 0"/></symbol><symbol overflow="visible" id="5e45f093E"><path d="M3.55-2.73h1.67C5.09-1.45 4.58-.64 3.36-.64c-1.25 0-1.78-1.03-1.78-2.73 0-1.77.53-2.72 1.81-2.72.9 0 1.47.45 1.69 1.43l.95-.09C5.8-6 5.11-6.91 3.41-6.91 1.44-6.9.58-5.59.58-3.37.58-1.2 1.4.13 3.14.13c1.3 0 1.78-.73 2-1.36h.1L5.33 0h.75v-3.42H3.55zm0 0"/></symbol><symbol overflow="visible" id="5e45f093F"><path d="M5.77-5.02H4.63L2.3-2.88h-.06v-4.26h-.94V0h.94v-2.31h.06L4.71 0h1.24L3.23-2.69zm0 0"/></symbol><symbol overflow="visible" id="5e45f093G"><path d="M3.36.16c1.4 0 2.2-.6 2.2-1.57 0-.89-.54-1.22-1.47-1.39L3-3c-.67-.14-.86-.33-.86-.73 0-.5.4-.74 1.17-.74.83 0 1.19.27 1.27.8l.9-.05c-.12-1-.8-1.47-2.17-1.47-1.34 0-2.1.53-2.1 1.5 0 .81.45 1.22 1.52 1.44l1.04.2c.56.11.87.24.87.72 0 .52-.45.78-1.28.78-.95 0-1.36-.28-1.42-.87l-.9.06C1.07-.36 1.8.16 3.35.16zm0 0"/></symbol><symbol overflow="visible" id="5e45f093H"><path d="M1.63 0v-2.9c0-.8.15-1.4.71-1.4.41 0 .55.3.55.88V0h.95v-2.9c0-.8.18-1.4.72-1.4.4 0 .57.3.57.88V0h.95v-3.63c0-.92-.28-1.53-1.11-1.53-.63 0-.95.41-1.1.9h-.06c-.1-.52-.44-.9-1.08-.9-.6 0-.93.41-1.06.9H1.6l-.23-.76H.67V0zm0 0"/></symbol><symbol overflow="visible" id="5e45f093I"><path d="M3.92-7.14H1.36v.76h1.6v5.61H1.15V0H5.7v-.77H3.92zm0 0"/></symbol><symbol overflow="visible" id="5e45f093J"><path d="M3.34.14c1.43 0 2.13-.66 2.25-1.78l-.89-.1c-.1.7-.5 1.08-1.34 1.08-1.03 0-1.52-.64-1.52-1.84 0-1.23.47-1.86 1.52-1.86.84 0 1.23.36 1.34 1.08l.9-.1c-.13-1.09-.82-1.78-2.26-1.78-1.56 0-2.46.97-2.46 2.66 0 1.66.9 2.64 2.46 2.64zm0 0"/></symbol><symbol overflow="visible" id="5e45f093K"><path d="M2.06 1.9V-.84h.05c.28.58.8.97 1.77.97 1.5 0 2.2-.98 2.2-2.66 0-1.65-.7-2.64-2.19-2.64-.97 0-1.5.44-1.78 1.05h-.08l-.1-.9H1.1v6.9zm1.5-2.56c-1.06 0-1.53-.8-1.53-1.86 0-1.04.47-1.84 1.53-1.84 1.11 0 1.53.61 1.53 1.84 0 1.27-.42 1.86-1.53 1.86zm0 0"/></symbol><symbol overflow="visible" id="5e45f093L"><path d="M3.58-5.81c.42 0 .72-.22.72-.67 0-.44-.3-.68-.72-.68-.44 0-.72.24-.72.68 0 .45.28.67.72.67zm.5.8H1.52v.76h1.6v3.48h-1.8V0h4.46v-.77h-1.7zm0 0"/></symbol><symbol overflow="visible" id="5e45f093M"><path d="M2.44 0l.87-3.31h.06L4.25 0H5.3l1.03-5.02h-.88l-.73 3.94h-.08L3.77-4.4h-.85l-.87 3.33h-.08l-.75-3.94H.34L1.36 0zm0 0"/></symbol><symbol overflow="visible" id="5e45f093N"><path d="M2.16 0v-2.69c0-.98.6-1.6 1.46-1.6.74 0 1.07.4 1.07 1.2V0h.95v-3.31c0-1.17-.56-1.85-1.67-1.85-.9 0-1.44.46-1.75 1.08h-.06v-3.06H1.2V0zm0 0"/></symbol><symbol overflow="visible" id="5e45f093O"><path d="M2.84.14C3.8.14 4.33-.26 4.6-.9h.07L4.8 0h.76v-7.14h-.95v2.95h-.08c-.28-.6-.86-.97-1.67-.97-1.48 0-2.27.99-2.27 2.64C.6-.84 1.36.14 2.84.14zm.22-.8c-.98 0-1.48-.59-1.48-1.84s.5-1.86 1.48-1.86c1.13 0 1.58.8 1.58 1.86S4.2-.66 3.06-.66zm0 0"/></symbol><symbol overflow="visible" id="5e45f093P"><path d="M1.45-2.95c0 2.56 1.08 4.37 3.67 4.84l.11-.67C3.28.86 2.43-.75 2.43-2.95s.85-3.82 2.8-4.16l-.1-.69c-2.6.49-3.68 2.3-3.68 4.85zm0 0"/></symbol><symbol overflow="visible" id="5e45f093Q"><path d="M5.4-1.22c.43-.66.66-1.51.66-2.44l-.83-.09c0 .75-.14 1.4-.4 1.92l-1.7-1.83c.8-.42 1.39-.96 1.39-1.86 0-.87-.66-1.4-1.61-1.4-1.14 0-1.72.62-1.72 1.47 0 .72.47 1.3.83 1.68-.8.41-1.52.99-1.52 2.1C.5-.44 1.52.14 2.7.14c.9 0 1.64-.3 2.2-.78l.58.64h1.05zM2.86-6.25c.44 0 .82.23.82.73 0 .7-.47 1.11-1 1.41-.47-.53-.67-.92-.67-1.34 0-.47.3-.8.85-.8zM2.81-.62c-.83 0-1.42-.41-1.42-1.18 0-.76.5-1.18 1.05-1.5l1.94 2.1c-.4.37-.91.57-1.57.57zm0 0"/></symbol><symbol overflow="visible" id="5e45f093R"><path d="M4.22-6.77h-.86l-2.03.7v.87c.64-.17 1.26-.38 1.89-.55v4.9H1.03V0h4.9v-.86H4.21zm0 0"/></symbol><symbol overflow="visible" id="5e45f093S"><path d="M3.25.14c1.58 0 2.53-.69 2.53-1.95 0-1.19-.92-1.56-1.6-1.61v-.05A1.6 1.6 0 005.6-5.12c0-1.13-.87-1.79-2.3-1.79-1.62 0-2.32.82-2.45 1.88l.97.06c.13-.69.52-1.1 1.47-1.1.86 0 1.35.32 1.35 1.05 0 .86-.6 1.2-1.66 1.2h-.49v.79h.54c1.12 0 1.78.25 1.78 1.14 0 .78-.46 1.22-1.55 1.22-1.06 0-1.48-.4-1.63-1.1l-.98.07C.75-.56 1.56.14 3.25.14zm0 0"/></symbol><symbol overflow="visible" id="5e45f093T"><path d="M1.45-7.1c1.96.33 2.8 1.94 2.8 4.15 0 2.2-.84 3.8-2.8 4.17l.11.67c2.58-.47 3.67-2.28 3.67-4.84 0-2.55-1.09-4.36-3.67-4.85zm0 0"/></symbol><symbol overflow="visible" id="5e45f093q"><path d="M4.27-1.53c0 .27.08.48.25.62.15.16.34.24.57.24.21 0 .38-.06.52-.19a.93.93 0 00.31-.44c.15-.35.22-.7.22-1.03A3.93 3.93 0 004.91-5.2h.96c.38.41.67.85.86 1.3.21.46.32.98.32 1.57 0 .64-.14 1.19-.42 1.66-.32.5-.81.75-1.47.76A1.4 1.4 0 013.8-.84h-.02c-.07.28-.23.5-.48.67-.25.17-.53.26-.86.26C1.77.1 1.29-.17.98-.67a2.82 2.82 0 01-.45-1.66c0-.6.1-1.11.31-1.56.21-.46.5-.9.86-1.31h.97a3.91 3.91 0 00-1.23 2.87c-.01.34.06.68.23 1.03.08.18.2.33.33.44.13.13.29.19.48.19.25 0 .45-.08.6-.24a.9.9 0 00.23-.62v-2.49h.96zm-.94-4.53c.14-.02.25-.1.33-.24.07-.14.1-.19.1-.14v-.04l-.01-.07h-.33v-.84h.75v.78c0 .1-.07.28-.22.52a.78.78 0 01-.62.39zM4.8-7.22a1.3 1.3 0 00-.22-.48c-.18-.2-.47-.28-.86-.28-.35 0-.62.09-.8.28-.09.11-.16.27-.21.48h-.49c.07-.48.23-.82.5-1.03.27-.22.65-.33 1.11-.33.57 0 .99.2 1.24.6.12.2.2.45.23.76zm0 0"/></symbol><symbol overflow="visible" id="5e45f093s"><path d="M.9-3.94c.01-.38-.1-.58-.32-.58-.1 0-.2.02-.3.04v-.72c.11-.05.3-.09.56-.1.57 0 .86.3.86.92h.03c.4-.6.98-.92 1.74-.92 1.15.01 1.73.59 1.73 1.72v5.53h-.89v-5.3c.01-.75-.34-1.14-1.04-1.17-.52 0-.89.17-1.11.49-.25.32-.36.74-.36 1.25V0H.9zm3.41-2.1a1.2 1.2 0 00-.23-.48c-.18-.18-.46-.28-.85-.28-.35 0-.62.1-.8.28-.1.12-.18.28-.23.49h-.48c.07-.48.24-.82.51-1.03.27-.21.64-.32 1.1-.32.58 0 1 .2 1.25.58.12.2.2.46.23.77zm0 0"/></symbol><symbol overflow="visible" id="5e45f093y"><path d="M3.05-5.3c.78.01 1.4.26 1.84.75.45.5.68 1.1.69 1.85 0 .83-.22 1.5-.64 2-.43.52-1.06.78-1.9.8C2.22.07 1.6-.2 1.18-.73A3.06 3.06 0 01.55-2.7c0-.77.22-1.4.68-1.88.45-.47 1.06-.7 1.82-.72zM4.6-2.6c0-.48-.12-.93-.34-1.34-.25-.41-.65-.63-1.22-.64-.57.01-.97.22-1.2.63-.25.4-.36.85-.35 1.36 0 .56.14 1.02.42 1.39.26.38.63.57 1.13.57.54 0 .93-.2 1.18-.6.25-.39.38-.84.38-1.36zm-.75-3.2h-.53L2.27-7.75h.87zm0 0"/></symbol></defs><g fill="#fff"><use xlink:href="#5e45f093a" x="97.8" y="152"/><use xlink:href="#5e45f093b" x="150.06" y="152"/><use xlink:href="#5e45f093c" x="178.8" y="152"/><use xlink:href="#5e45f093d" x="219.06" y="152"/><use xlink:href="#5e45f093e" x="262.62" y="152"/><use xlink:href="#5e45f093f" x="300.18" y="152"/><use xlink:href="#5e45f093g" x="336.84" y="152"/><use xlink:href="#5e45f093f" x="373.5" y="152"/><use xlink:href="#5e45f093h" x="408.36" y="152"/><use xlink:href="#5e45f093i" x="427.2" y="152"/><use xlink:href="#5e45f093j" x="462.84" y="152"/><use xlink:href="#5e45f093k" x="236.7692" y="252"/><use xlink:href="#5e45f093l" x="243.4362" y="252"/><use xlink:href="#5e45f093m" x="250.1032" y="252"/><use xlink:href="#5e45f093n" x="256.7702" y="252"/><use xlink:href="#5e45f093o" x="263.4372" y="252"/><use xlink:href="#5e45f093p" x="270.1042" y="252"/><use xlink:href="#5e45f093q" x="276.7692" y="252"/><use xlink:href="#5e45f093p" x="284.3473" y="252"/><use xlink:href="#5e45f093r" x="291.0143" y="252"/><g><use xlink:href="#5e45f093s" x="297.6807" y="252"/></g><g><use xlink:href="#5e45f093t" x="303.7891" y="252"/><use xlink:href="#5e45f093p" x="310.4561" y="252"/><use xlink:href="#5e45f093u" x="317.1231" y="252"/><use xlink:href="#5e45f093v" x="323.7901" y="252"/><use xlink:href="#5e45f093w" x="330.4571" y="252"/><use xlink:href="#5e45f093v" x="337.1241" y="252"/><use xlink:href="#5e45f093x" x="343.7911" y="252"/></g><g><use xlink:href="#5e45f093y" x="350.4557" y="252"/></g><g><use xlink:href="#5e45f093z" x="356.5641" y="252"/></g><g><use xlink:href="#5e45f093A" x="103.33333" y="266"/><use xlink:href="#5e45f093l" x="110.00033" y="266"/><use xlink:href="#5e45f093B" x="116.66733" y="266"/><use xlink:href="#5e45f093n" x="123.33433" y="266"/><use xlink:href="#5e45f093C" x="130.00133" y="266"/><use xlink:href="#5e45f093D" x="136.66833" y="266"/><use xlink:href="#5e45f093l" x="143.33533" y="266"/><use xlink:href="#5e45f093o" x="150.00233" y="266"/><use xlink:href="#5e45f093p" x="156.66933" y="266"/><use xlink:href="#5e45f093E" x="163.33633" y="266"/><use xlink:href="#5e45f093D" x="170.00333" y="266"/><use xlink:href="#5e45f093l" x="176.67033" y="266"/><use xlink:href="#5e45f093l" x="183.33733" y="266"/><use xlink:href="#5e45f093F" x="190.00433" y="266"/><use xlink:href="#5e45f093p" x="196.67133" y="266"/><use xlink:href="#5e45f093G" x="203.33833" y="266"/><use xlink:href="#5e45f093H" x="210.00533" y="266"/><use xlink:href="#5e45f093B" x="216.67233" y="266"/><use xlink:href="#5e45f093I" x="223.33933" y="266"/><use xlink:href="#5e45f093I" x="230.00633" y="266"/><use xlink:href="#5e45f093p" x="236.67333" y="266"/><use xlink:href="#5e45f093J" x="243.34033" y="266"/><use xlink:href="#5e45f093B" x="250.00733" y="266"/><use xlink:href="#5e45f093K" x="256.67433" y="266"/><use xlink:href="#5e45f093L" x="263.34133" y="266"/><use xlink:href="#5e45f093n" x="270.00833" y="266"/><use xlink:href="#5e45f093B" x="276.67533" y="266"/><use xlink:href="#5e45f093I" x="283.34233" y="266"/><use xlink:href="#5e45f093G" x="290.00933" y="266"/><use xlink:href="#5e45f093p" x="296.67633" y="266"/><use xlink:href="#5e45f093M" x="303.34333" y="266"/><use xlink:href="#5e45f093L" x="310.01033" y="266"/><use xlink:href="#5e45f093n" x="316.67733" y="266"/><use xlink:href="#5e45f093N" x="323.34433" y="266"/><use xlink:href="#5e45f093p" x="330.01133" y="266"/><use xlink:href="#5e45f093O" x="336.67833" y="266"/><use xlink:href="#5e45f093L" x="343.34533" y="266"/><use xlink:href="#5e45f093B" x="350.01233" y="266"/><use xlink:href="#5e45f093J" x="356.67933" y="266"/><use xlink:href="#5e45f093D" x="363.34633" y="266"/><use xlink:href="#5e45f093L" x="370.01333" y="266"/><use xlink:href="#5e45f093n" x="376.68033" y="266"/><use xlink:href="#5e45f093L" x="383.34733" y="266"/><use xlink:href="#5e45f093J" x="390.01433" y="266"/><use xlink:href="#5e45f093G" x="396.68133" y="266"/><use xlink:href="#5e45f093p" x="403.34833" y="266"/><use xlink:href="#5e45f093P" x="410.01533" y="266"/><use xlink:href="#5e45f093G" x="416.68233" y="266"/><use xlink:href="#5e45f093H" x="423.34933" y="266"/><use xlink:href="#5e45f093J" x="430.01633" y="266"/><use xlink:href="#5e45f093K" x="436.68333" y="266"/><use xlink:href="#5e45f093p" x="443.35033" y="266"/><use xlink:href="#5e45f093Q" x="450.01733" y="266"/><use xlink:href="#5e45f093p" x="456.68433" y="266"/><use xlink:href="#5e45f093G" x="463.35133" y="266"/><use xlink:href="#5e45f093G" x="470.01833" y="266"/><use xlink:href="#5e45f093R" x="476.68533" y="266"/><use xlink:href="#5e45f093S" x="483.35233" y="266"/><use xlink:href="#5e45f093T" x="490.01933" y="266"/></g></g></svg>