<?xml version='1.0' encoding='UTF-8'?>
<svg xmlns="http://www.w3.org/2000/svg" width="895px" height="734px" viewBox="0 0 895 734" y="0px" x="0px" enable-background="new 0 0 895 734"><path fill="#1f1f1f" d="M0 0h895v734H0z"/><path d="M236.668 404.84l35.2-9.242c69.081-18.918 85.8-40.918 85.8-96.36 0-60.281-37.84-90.199-110-90.199-41.36 0-76.559 8.8-103.84 22.879v54.121c32.121-14.96 64.68-22.441 98.121-22.441 36.52 0 51.04 12.32 51.04 40.043 0 22.437-7.919 31.238-39.16 40.476l-35.642 9.242c-60.718 16.72-87.117 41.801-87.117 98.121v69.957h220.438v-52.359h-154V450.16c0-25.52 9.68-36.52 39.16-45.32m253.441-116.602c0-22.879-15.398-37.398-40.48-37.398-25.078 0-40.918 14.52-40.918 37.398 0 23.32 15.84 37.84 40.918 37.84 25.082 0 40.48-14.52 40.48-37.84m0 155.32c0-22.878-15.398-37.398-40.48-37.398-25.078 0-40.918 14.52-40.918 37.399 0 23.32 15.84 37.84 40.918 37.84 25.082 0 40.48-14.52 40.48-37.84m285.989-75.68c0-114.399-41.36-158.84-121-158.84-79.641 0-121 44.441-121 158.84 0 114.398 41.359 158.84 121 158.84 79.64 0 121-44.442 121-158.84m-173.801 0c0-83.16 12.762-105.16 52.8-105.16 40.04 0 52.801 22 52.801 105.16s-12.761 104.719-52.8 104.719c-40.04 0-52.801-21.559-52.801-104.72" fill="#fff"/></svg>