<?xml version='1.0' encoding='UTF-8'?>
<svg xmlns="http://www.w3.org/2000/svg" width="1100px" height="734px" viewBox="0 0 1100 734" y="0px" x="0px" enable-background="new 0 0 1100 734"><path fill="#d20514" d="M0 0h1100v734H0z"/><path d="M108.531 641.457h74.317v-6.102H115.37V512.602h-6.84zm98.903 0h6.84V512.602h-6.84zm133.105-4.437v-61.008h-45.11v6.101h38.454v51.024c-11.278 3.511-21.074 4.254-32.352 4.254-35.125 0-49.914-17.008-49.914-60.453 0-43.446 14.418-60.458 49.914-60.458 12.203 0 23.48 1.852 37.16 7.211v-5.914c-11.46-5.363-25.328-7.582-37.16-7.582-39.008 0-56.754 19.782-56.754 66.743 0 46.957 17.93 66.738 56.57 66.738 14.973 0 27.176-2.035 39.192-6.656m119.797 4.437h7.207l-49.73-128.855h-8.133l-49.918 128.855h7.21l13.68-36.605h66zm-77.277-42.707l30.687-79.496 30.875 79.496zm0 0M182.664 313.8v-6.1h-74.133v128.855h6.84v-61.563h61.192v-6.097H115.37V313.8zm117.758 86.704v-92.805h-6.652v92.805c0 21.262-14.606 31.613-40.118 31.613-24.773 0-40.117-10.351-40.117-31.613v-92.805h-6.84v92.805c0 24.773 17.93 37.902 46.957 37.902 29.762 0 46.77-13.129 46.77-37.902m111.664 2.219c0-20.891-8.32-27.176-33.094-33.09l-13.125-3.145c-24.59-5.914-29.765-10.906-29.765-26.992 0-18.672 8.691-27.914 34.386-27.914 13.496 0 23.48 2.219 36.051 6.84v-6.102c-10.723-4.62-22.555-7.023-36.234-7.023-29.028 0-41.043 12.015-41.043 34.2 0 19.968 8.136 26.808 35.125 33.276l13.129 3.145c22 5.176 27.73 10.168 27.73 27.176 0 20.152-11.094 29.394-37.16 29.394-12.758 0-24.402-2.586-38.086-7.578v6.098c11.277 4.992 24.96 7.765 38.27 7.765 29.765 0 43.816-11.644 43.816-36.05m103.71 0c0-20.891-8.32-27.176-33.093-33.09l-13.125-3.145c-24.586-5.914-29.765-10.906-29.765-26.992 0-18.672 8.69-27.914 34.386-27.914 13.496 0 23.48 2.219 36.051 6.84v-6.102c-10.723-4.62-22.555-7.023-36.234-7.023-29.024 0-41.043 12.015-41.043 34.2 0 19.968 8.136 26.808 35.129 33.276l13.125 3.145c22 5.176 27.73 10.168 27.73 27.176 0 20.152-11.094 29.394-37.16 29.394-12.758 0-24.402-2.586-38.086-7.578v6.098c11.281 4.992 24.96 7.765 38.27 7.765 29.765 0 43.816-11.644 43.816-36.05m28.469 33.832h52.504c26.992 0 36.234-11.278 36.234-34.754 0-16.64-7.024-27.176-23.11-31.246 12.57-5.543 19.043-15.528 19.043-30.133 0-22.555-9.984-32.723-32.91-32.723h-51.761zm6.84-68.403v-54.351h44.921c19.227 0 25.883 8.32 25.883 26.62 0 20.52-11.832 27.731-25.883 27.731zm0 62.305v-56.02h46.035c18.672 0 29.207 7.766 29.207 27.364 0 18.855-6.47 28.656-29.578 28.656zm200.03 6.098h7.212l-49.73-128.856h-8.134l-49.918 128.856h7.211l13.68-36.602h66zm-77.277-42.703l30.692-79.497 30.87 79.497zm108.891 42.703h74.316v-6.098H789.59V307.699h-6.84zm98.902 0h74.32v-6.098h-67.48V307.699h-6.84zm0 0M108.531 231.656h46.403c39.746 0 51.578-18.488 51.578-64.523 0-45.848-11.832-64.332-51.578-64.332H108.53zm6.84-6.101V108.902h39.375c34.02 0 44.926 14.235 44.926 58.23 0 44.188-10.906 58.423-44.926 58.423zm122.317 6.101h78.57v-6.101h-71.73v-56.387h61.745v-6.102h-61.746v-54.164h70.621v-6.101h-77.46zm199.035-36.05V102.8h-6.657v92.804c0 21.262-14.605 31.614-40.117 31.614-24.773 0-40.117-10.352-40.117-31.614v-92.804h-6.84v92.804c0 24.774 17.934 37.899 46.957 37.899 29.766 0 46.774-13.125 46.774-37.899m67.222 36.051h6.657V108.902h43.628v-6.101h-93.914v6.101h43.63zm149.125-33.832c0-20.89-8.32-27.176-33.093-33.094l-13.125-3.14c-24.59-5.918-29.766-10.91-29.766-26.992 0-18.672 8.687-27.918 34.387-27.918 13.496 0 23.476 2.222 36.05 6.843v-6.101c-10.722-4.621-22.554-7.024-36.234-7.024-29.027 0-41.043 12.016-41.043 34.2 0 19.964 8.133 26.804 35.125 33.277l13.125 3.145c22 5.175 27.734 10.167 27.734 27.175 0 20.149-11.093 29.395-37.16 29.395-12.758 0-24.406-2.59-38.086-7.582v6.101c11.278 4.993 24.957 7.766 38.27 7.766 29.766 0 43.816-11.648 43.816-36.05m112.887 28.284v-5.914c-12.941 4.989-23.664 7.395-36.234 7.395-34.02 0-48.07-17.563-48.07-60.457 0-42.887 14.05-60.453 48.07-60.453 12.382 0 22.922 2.59 35.68 7.21v-5.913c-11.833-4.809-23.11-7.579-36.051-7.579-37.532 0-54.54 20.887-54.54 66.735 0 45.851 17.008 66.742 54.54 66.742 13.125 0 24.586-2.59 36.605-7.766m110.852-123.308v60.265h-78.204v-60.265h-6.84v128.855h6.84v-62.488h78.204v62.488h6.84V102.801zm44.113 128.855h78.57v-6.101h-71.73v-56.387h61.75v-6.102h-61.75v-54.164h70.62v-6.101h-77.46zm0 0" fill="#fff"/></svg>