<?xml version='1.0' encoding='UTF-8'?>
<svg xmlns="http://www.w3.org/2000/svg" width="895px" height="734px" viewBox="0 0 895 734" y="0px" x="0px" enable-background="new 0 0 895 734"><path fill="#1f1f1f" d="M0 0h895v734H0z"/><path d="M355.027 512.2v-165H251.63v47.519h44.879v77.879c-11.88 1.32-23.758 2.203-33.88 2.203-53.241 0-67.76-21.121-67.76-106.922 0-82.719 12.32-106.04 72.6-106.04 30.36 0 59.4 4.84 80.079 10.56v-51.04c-21.117-7.48-50.598-12.32-88.438-12.32-97.242 0-130.242 44-130.242 158.84 0 118.36 33.883 159.281 128.48 159.281 40.923 0 75.243-7.48 97.68-14.96m293.036-144.321c0-116.602-36.961-158.84-122.762-158.84-85.797 0-123.637 42.238-123.637 158.84 0 117.039 37.84 159.281 123.637 159.281 85.8 0 122.761-42.242 122.761-159.281m-180.398 0c0-82.719 10.117-106.04 57.2-106.04 47.077 0 57.198 23.321 57.198 106.04 0 82.719-10.12 106.48-57.199 106.48-47.082 0-57.199-23.761-57.199-106.48m243.758 54.558h38.719l3.523-27.718c6.16-47.961 9.68-106.48 9.68-136.399v-43.562h-65.121v43.562c0 29.918 3.52 88.438 9.68 136.399zm57.64 69.961c0-20.238-12.761-34.757-37.84-34.757-25.081 0-37.84 14.52-37.84 34.757 0 20.243 12.759 34.762 37.84 34.762 25.079 0 37.84-14.52 37.84-34.762" fill="#fff"/></svg>