<?xml version='1.0' encoding='UTF-8'?>
<svg xmlns="http://www.w3.org/2000/svg" xmlns:xlink="http://www.w3.org/1999/xlink" width="600px" height="300px" viewBox="0 0 600 300" x="0px" y="0px" enable-background="new 0 0 600 300"><defs><symbol overflow="visible" id="a78724f9a"><path d="M20.1-5.45c.54-1.03.6-2.11.18-3.32C10.44-9.07 6.6-14.28 6.6-19.8c0-5.04 3.25-9.18 10.33-11.64l.36-.54a8.08 8.08 0 00-2.22-3.83C5.87-32.94 1.73-27.3 1.73-20.45c0 8.57 6.68 14.93 18.36 15zm16.13-1.1h-.46a21.62 21.62 0 01-4.04 3.85h-.1a22.25 22.25 0 01-.55-4.99v-26.26a16.1 16.1 0 00-4.67-1.7l-.49.43a235 235 0 01.24 11.4l-13.2 2.52-.48.49c.18 1.54.79 3 1.57 4.18l12.1-2.39V-8.4c0 5.47 1.27 9.13 4.27 9.13 2.28 0 5.52-1.14 7.44-2.77.48-.3.72-.72.72-1.14 0-.83-1.02-2.22-2.35-3.36zm0 0"/></symbol><symbol overflow="visible" id="a78724f9b"><path d="M10.31-40.02L.48-48.19c-2.93-2.51-5.64-3.83-9.12-3.83-2.1 0-4.14.47-6.13 1.5a8.79 8.79 0 002.05 5.16c1.86-.78 3.36-1.37 5.22-1.37 1.92 0 4.14.65 6.3 2.15l9.84 6.9a4.65 4.65 0 001.67-2.34zm4.5 33.47h-.47a21.62 21.62 0 01-4.03 3.85h-.1a22.25 22.25 0 01-.55-4.99v-26.26c-1.38-.78-3.11-1.4-4.68-1.7l-.48.43c.19 3.6.23 7.63.23 11.81v15C4.73-2.94 6 .72 9 .72c2.28 0 5.52-1.14 7.44-2.77.48-.3.72-.72.72-1.14 0-.83-1.02-2.22-2.35-3.36zm0 0"/></symbol><symbol overflow="visible" id="a78724f9c"><path d="M25.08-24.84L17.45-21c-2.75-2.28-4.25-4.38-4.25-6.36 0-2.64 2.7-3.9 6.24-4.02l.48-.48c-.06-1.44-.42-2.87-1.2-3.78-.6-.13-1.2-.13-1.8-.13-4.69 0-8.7 2.77-8.7 7.08 0 3.49 2.51 6.38 6.12 9.25l-5.7 2.88v.65a9.07 9.07 0 002.81 3.72l7.5-3.72c3.07 2.7 4.2 5.54 4.2 7.46 0 2.87-2.5 5.22-6.65 5.22-4.56 0-9-2.9-13.08-8.18-1.08.32-1.98.91-2.51 1.86C5.64-2.15 11.34.85 17.5.85c6.79 0 10.5-3.43 10.5-8.16 0-3.38-1.92-6.9-5.87-10.14l5.81-2.96v-.65a8.34 8.34 0 00-2.87-3.78zm0 0"/></symbol><symbol overflow="visible" id="a78724f9d"><path d="M33-6.55h-.48A22.04 22.04 0 0128.5-2.7h-.13a22.26 22.26 0 01-.53-4.99v-26.26a16.2 16.2 0 00-4.68-1.7l-.47.43c.1 2.77.17 5.7.23 8.81h-7.5c-6.78 0-13.2 2.22-13.2 9.68C2.22-11.05 6-4.86 12 .3c1.2-.42 2.1-1.2 2.58-2.1-4.8-5.76-7.2-9.97-7.2-13.92 0-4.62 3.3-6.23 9.71-6.23 1.5 0 3.61.04 5.83.17v13.37c0 5.47 1.27 9.13 4.27 9.13 2.26 0 5.51-1.14 7.43-2.77.47-.3.72-.72.72-1.14 0-.83-1.03-2.22-2.34-3.36zm0 0"/></symbol><symbol overflow="visible" id="a78724f9e"><path d="M14.81-6.55h-.47a21.62 21.62 0 01-4.03 3.85h-.1a22.25 22.25 0 01-.55-4.99v-26.26c-1.38-.78-3.11-1.4-4.68-1.7l-.48.43c.19 3.6.23 7.63.23 11.81v15C4.73-2.94 6 .72 9 .72c2.28 0 5.52-1.14 7.44-2.77.48-.3.72-.72.72-1.14 0-.83-1.02-2.22-2.35-3.36zm0 0"/></symbol><symbol overflow="visible" id="a78724f9f"><path d="M-9.36-39.72c1.98 0 2.94-1.62 2.94-3.19 0-2.22-1.56-3.65-3.13-3.65-2.03 0-3.04 1.69-3.04 3.25 0 2.1 1.67 3.6 3.23 3.6zm0 0"/></symbol><symbol overflow="visible" id="a78724f9g"><path d="M9.23.72c1.86 0 5.41-1.2 7.2-2.77.37-.3.73-.65.73-1.14 0-.89-1.02-2.22-2.35-3.36h-.47a21.62 21.62 0 01-4.03 3.85h-.1a22.25 22.25 0 01-.55-4.99v-24.65c0-9.78 3.71-14.03 10.43-14.03 5.41 0 10.82 2.74 18.13 8.74a3.57 3.57 0 001.56-2.15c-7.01-6.36-13.62-10.8-20.87-10.8-8.47 0-14.18 5.58-14.18 16.86V-8.4C4.73-2.7 6 .72 9.23.72zm0 0"/></symbol><symbol overflow="visible" id="a78724f9h"><path d="M.55-25.92c.1 1.5 1.14 3.12 2.93 4.14 2.52-2.16 4.57-3.06 6.43-3.06 2.8 0 5.39 1.86 9.04 5.34L5.1-10.31c.61 1.86 1.63 3.36 3.07 4.19l12.96-9.72v7.43c0 5.47 1.25 9.13 4.25 9.13a13 13 0 007.44-2.77c.49-.3.74-.72.74-1.14 0-.83-1.03-2.22-2.35-3.36h-.48A22.04 22.04 0 0126.7-2.7h-.12a22.26 22.26 0 01-.53-4.99v-26.26a16.2 16.2 0 00-4.7-1.7l-.48.43c.2 3.6.25 7.63.25 11.81v1.27c-6.54-5.94-8.34-7.08-11.7-7.08-3.12 0-6.12.95-8.87 3.3zm0 0"/></symbol><symbol overflow="visible" id="a78724f9j"><path d="M9.13.72c2.03 0 5.51-1.2 7.3-2.77.43-.3.73-.65.73-1.14 0-.89-1.02-2.22-2.35-3.36h-.47a21.62 21.62 0 01-4.03 3.85h-.1a22.25 22.25 0 01-.55-4.99v-22.8c0-12.3 6.06-17.93 18.65-17.93 11.7 0 23.83 3.36 39.9 10.8.5-.54.85-1.32.98-2.22-14.77-7.8-27.9-12.78-41.28-12.78-14.7 0-23.18 6.42-23.18 20.64v23.57C4.73-2.77 6 .72 9.13.72zm0 0"/></symbol><symbol overflow="visible" id="a78724f9k"><path d="M12.23-35.77c-3.1 0-6.36 1.15-8.45 2.96a7.63 7.63 0 002.94 4.19h.6c1.91-1.74 4.38-2.94 6.96-2.94 1.14 0 2.16.25 3 .84 1.31 1.02 2.03 3.06 2.03 4.92 0 3.85-3 7.99-8.45 9.78-.72-2.7-1.98-5.04-3.72-5.04-2.34 0-5.05 4.01-5.05 7.08 0 2.4 1.63 3.3 4.82 3.3.46 0 1.01 0 1.54-.05C9.72-3.91 14.1.84 20.7.84c1.93 0 3.96-.36 5.82-1.14l.25-.54A9.38 9.38 0 0025.2-5.1c-1.39.59-3.25 1.07-4.8 1.07-3.54 0-7.45-2.46-8.88-7.26 3.25-.85 6.3-2.45 8.64-4.63 2.1 2.11 4.43 3.32 7.26 3.32 3.06 0 6.78-.79 9.95-2.83a5.7 5.7 0 00-2.03-4.2c-2.89 1.8-6 2.82-9 2.82-1.39 0-2.93-.36-4.26-1.2 1.33-1.8 2.1-3.84 2.1-6.06 0-5.22-4.5-11.7-11.95-11.7zm0 0"/></symbol><symbol overflow="visible" id="a78724f9l"><path d="M32.81-6.55h-.47a21.62 21.62 0 01-4.03 3.85h-.1a22.25 22.25 0 01-.55-4.99v-26.26c-1.38-.78-3.11-1.4-4.68-1.7l-.48.43c.19 3.6.23 7.63.23 11.81v7.1a10 10 0 01-7.6 3.47c-1.86 0-3.36-.54-4.08-1.44-.78-1.02-1.4-3.72-1.4-6.72v-5.52c0-5.89-1.2-9.12-4.2-9.12-1.73 0-5.39 1.08-6.65 2.1-.43.35-.66.77-.66 1.13 0 .85 1.02 2.22 2.34 3.36h.47a18.02 18.02 0 013.42-3.17h.13c.13 1.56.23 3.24.23 4.99v5.45c0 7.92 5.83 13.14 11.47 13.14 2.46 0 4.68-.6 6.53-1.63v1.86C22.73-2.94 24 .72 27 .72c2.28 0 5.52-1.14 7.44-2.77.48-.3.72-.72.72-1.14 0-.83-1.02-2.22-2.35-3.36zm0 0"/></symbol><symbol overflow="visible" id="a78724f9m"><path d="M2.1-13.98c0 2.4 1.56 3.3 4.98 3.3.48 0 .9 0 1.37-.05C9.78-3.84 14.22.84 20.88.84 22.8.84 24.9.48 26.7-.3l.3-.54a9.69 9.69 0 00-1.56-4.32 13.42 13.42 0 01-4.92 1.14c-3.47 0-7.44-2.46-8.88-7.14 7.08-1.5 13.86-6.3 13.86-12.84 0-5.64-4.92-11.77-12.78-11.77-3.42 0-6.6 1.2-8.88 2.96a8.1 8.1 0 002.88 4.31h.6c2.04-1.56 4.55-3.06 7.5-3.06 2.1 0 3.54.78 4.13 1.33 1.1 1.01 1.63 2.57 1.63 4.37 0 4.31-3.3 8.34-9.6 9.84-.78-2.7-2.04-5.04-3.84-5.04-2.34 0-5.05 3.97-5.05 7.08zm0 0"/></symbol><symbol overflow="visible" id="a78724f9n"><path d="M7.38-28.73h.67c2.57-1.7 5.45-2.83 8.51-2.83 1.8 0 3.17.36 3.9 1.2.41.36.84 1.31.84 2.4 0 3.24-3.9 5.46-8.35 7.09-6.72 2.51-10.9 5.39-10.9 10.43 0 6.3 6.4 11.28 15.1 11.28 5.12 0 9.79-1.75 13.08-5.64a8.68 8.68 0 00-3.53-3.54c-2.76 3.12-6.36 4.98-11.89 4.98-2.81 0-4.19-.42-5.22-1.02a5.54 5.54 0 01-2.64-4.85c0-3.2 2.64-5.18 9.13-7.57 6.23-2.28 10.08-5.47 10.08-9.65 0-4.1-3.6-9.32-11.35-9.32-2.87 0-6.72.72-9.65 2.47.42 1.67 1.07 3.3 2.21 4.57zm0 0"/></symbol><symbol overflow="visible" id="a78724f9o"><path d="M8.28-35.81c-4.62 3.65-6.55 8.33-6.55 13.25 0 8.4 5.77 14.58 12.61 14.58 5.4 0 8.88-3.9 8.88-10.57 0-2.68-.53-5.15-.53-6.95 0-3.78 2.26-6.06 5.03-6.06 1.62 0 2.58.54 2.94 1.26.42.72.78 2.4.78 4.44V-8.4c0 5.47 1.33 9.13 4.26 9.13 2.35 0 5.58-1.14 7.44-2.77.48-.3.72-.72.72-1.14 0-.83-.95-2.22-2.34-3.36h-.47a21.62 21.62 0 01-4.03 3.85h-.11a22.25 22.25 0 01-.55-4.99v-16.67c0-5.7-3.95-11.4-9.9-11.4-4.74 0-8.65 3.12-8.65 8.57 0 2.05.55 5.17.55 7.57 0 3.71-1.27 7.43-5.94 7.43-1.26 0-2.47-.23-3.36-1.25-1.37-1.44-2.47-4.69-2.47-8.1 0-4.32 1.63-7.98 5.9-11.23v-.65c-.97-1.14-2.35-1.86-4.2-2.4zm0 0"/></symbol><symbol overflow="visible" id="a78724f9p"><path d="M4.73-30.36v21.84C4.73-2.82 6 .6 9.23.6c1.86 0 5.41-1.25 7.2-2.75.37-.3.73-.71.73-1.14 0-.9-1.02-2.22-2.35-3.36h-.47a21.73 21.73 0 01-4.03 3.79h-.1c-.37-1.5-.55-3.25-.55-4.99v-21.23c0-11.7-5.7-22.7-16.74-22.7-6.54 0-10.44 3.56-10.44 8.06 0 1.54.43 3.17 1.08 4.54a9.27 9.27 0 004.63 1.56l.36-.42a9.98 9.98 0 01-1.1-4.25c0-2.58 1.93-5.34 6.74-5.34 3.47 0 6 1.69 7.5 3.48 2.45 3.11 3.04 8.22 3.04 13.8zm0 0"/></symbol><symbol overflow="visible" id="a78724f9q"><path d="M12.36-35.77c-4.63 0-8.64 3.13-8.64 7.57 0 5.22 5.47 9.54 11.47 9.54.83 0 1.54-.06 2.33-.18l.12.06a14.84 14.84 0 01-6.84 5.16c-1.14-2.29-2.52-3.72-4.02-3.72-2.22 0-4.33 3.18-4.33 5.89 0 2.32 1.5 3.1 4.4 3.1.65 0 1.24-.06 1.92-.1 1.5 5.51 5.93 9.3 12.17 9.3 1.86 0 3.78-.37 5.58-1.08l.3-.61a7.76 7.76 0 00-1.62-4.32c-1.39.66-3.06 1.2-4.75 1.2a9.7 9.7 0 01-8.51-5.23c6.54-2.03 12.48-7.67 12.48-14.1 0-6.12-5.34-12.48-12.06-12.48zM42.23-6.55h-.46a21.62 21.62 0 01-4.04 3.85h-.1a22.25 22.25 0 01-.55-4.99v-26.26a16.1 16.1 0 00-4.67-1.7l-.49.43c.17 3.6.24 7.63.24 11.81v15c0 5.47 1.26 9.13 4.26 9.13 2.28 0 5.52-1.14 7.44-2.77.48-.3.72-.72.72-1.14 0-.83-1.02-2.22-2.35-3.36zM10.73-23.4a4.5 4.5 0 01-2.09-3.78c0-2.68 2.34-4.43 5.16-4.43 2.04 0 3.36.9 4.01 1.75 1.4 1.56 1.75 3.78 1.75 5.21 0 .36 0 .79-.06 1.14-1.5.72-3.23 1.08-4.98 1.08-1.61 0-3-.42-3.79-.97zm0 0"/></symbol><symbol overflow="visible" id="a78724f9r"><path d="M29.45-15.84c0-3.85-2.68-6.9-5.64-9.36-.47-.49-.95-.9-.95-1.32 0-.42.42-1.03 1.56-2.21l3.78-4.08a12.08 12.08 0 00-3.78-2.96h-.72a51 51 0 00-4.32 5.05c-1.2 1.63-1.74 2.94-1.74 3.66 0 .97.78 1.92 2.05 2.93 3 2.41 5.1 5.11 5.1 7.5 0 2.05-1.63 3.79-4.09 3.79-3.12 0-6.65-2.82-9.48-6.54a4.65 4.65 0 00-2.16 1.86c3.42 5.16 7.86 8.64 12.9 8.64 4.62 0 7.5-2.93 7.5-6.96zM9.06-22.63v-.71a11.08 11.08 0 00-4.5-1.32 16.6 16.6 0 00-2.93 9.36c0 9.78 8.57 16.57 18.42 16.57 6.4 0 11.64-2.9 14.93-7.27a7.84 7.84 0 00-3.18-2.94h-.72A15.25 15.25 0 0118.55-2.7c-6.9 0-12.32-4.02-12.32-11.28 0-3.07.97-6 2.83-8.64zm0 0"/></symbol><symbol overflow="visible" id="a78724f9s"><path d="M4.73-32.34v23.82C4.73-2.82 6 .6 9.23.6c1.86 0 5.41-1.25 7.2-2.75.37-.3.73-.71.73-1.14 0-.9-1.02-2.22-2.35-3.36h-.47a21.73 21.73 0 01-4.03 3.79h-.1c-.37-1.5-.55-3.25-.55-4.99v-23.22c0-10.56-4.8-20.64-13.8-20.64-5.34 0-8.7 3.6-8.7 7.99 0 1.54.42 3.17 1.03 4.54 1.12.85 3 1.46 4.6 1.56l.43-.42a10.19 10.19 0 01-1.08-4.25c0-2.58 1.56-5.22 4.99-5.22 2.57 0 4.37 1.5 5.39 3.11 1.75 2.77 2.21 7.27 2.21 12.07zm0 0"/></symbol><symbol overflow="visible" id="a78724f9t"><path d="M5.95-6.77H1.1V0h.99v-2.92H5.3v-.77H2.08v-2.26h3.87zm0 0"/></symbol><symbol overflow="visible" id="a78724f9u"><path d="M5.75-2.23v-.43c0-1.6-.9-2.51-2.42-2.51S.87-4.16.87-2.48c0 1.71.91 2.62 2.5 2.62 1.43 0 2.07-.56 2.29-1.52l-.9-.09c-.18.61-.59.9-1.35.9-.94 0-1.52-.54-1.58-1.66zm-2.4-2.2c.93 0 1.43.5 1.48 1.55H1.84c.08-1.07.6-1.56 1.5-1.56zm0 0"/></symbol><symbol overflow="visible" id="a78724f9v"><path d="M2.83.14c.94 0 1.5-.39 1.81-.95h.08l.1.81h.76v-3.38c0-1.23-.69-1.8-2.13-1.8-1.43 0-2.03.65-2.18 1.6l.93.1c.11-.6.44-.93 1.22-.93.85 0 1.22.32 1.22 1.04v.34l-1.81.2C1.6-2.7 1.1-2.17 1.1-1.28c0 .92.64 1.42 1.72 1.42zm.25-.77c-.67 0-1.02-.28-1.02-.74 0-.44.28-.72 1-.82l1.58-.19v.41c0 .8-.6 1.34-1.56 1.34zm0 0"/></symbol><symbol overflow="visible" id="a78724f9w"><path d="M5.52-4.25v-.77H3.17v-1.56h-.81l-.14 1.56H.75v.77h1.47v2.4c0 1.3.48 1.94 1.84 1.94C4.6.1 5.14 0 5.55-.14L5.4-.91c-.32.13-.72.2-1.13.2-.8 0-1.1-.37-1.1-1.23v-2.31zm0 0"/></symbol><symbol overflow="visible" id="a78724f9x"><path d="M2.73.14c.9 0 1.43-.45 1.74-1.08h.06l.13.94h.8v-5.02h-.94v2.7c0 .98-.57 1.62-1.46 1.62-.75 0-1.1-.4-1.1-1.22v-3.1h-.93v3.32c0 1.17.55 1.84 1.7 1.84zm0 0"/></symbol><symbol overflow="visible" id="a78724f9y"><path d="M5.08-5.16c-.94 0-1.58.43-1.9 1.3h-.09l-.07-1.16H1.05v.77h1.1v3.48H.96V0h3.96v-.77H3.1v-1.46c0-1.36.6-2.05 1.83-2.05.4 0 .76.08 1.1.17l.15-.87c-.33-.11-.7-.18-1.11-.18zm0 0"/></symbol><symbol overflow="visible" id="a78724f9z"><path d="M3.33-3.42c.47 0 .8-.27.8-.8 0-.51-.33-.8-.8-.8-.47 0-.8.29-.8.8 0 .53.33.8.8.8zm0 3.5c.47 0 .8-.27.8-.78 0-.53-.33-.82-.8-.82-.47 0-.8.29-.8.82 0 .51.33.78.8.78zm0 0"/></symbol><symbol overflow="visible" id="a78724f9B"><path d="M3.42.14C5.1.14 5.9-.69 6.11-2.17l-.95-.1C4.96-1.19 4.5-.69 3.44-.69c-1.27 0-1.81-.94-1.81-2.69s.54-2.7 1.8-2.7c1.09 0 1.5.49 1.73 1.58l.93-.1c-.21-1.46-.95-2.3-2.62-2.3C1.53-6.9.62-5.6.62-3.38c0 2.2.91 3.51 2.8 3.51zm0 0"/></symbol><symbol overflow="visible" id="a78724f9C"><path d="M3.33.14c1.62 0 2.5-.95 2.5-2.66 0-1.68-.88-2.64-2.5-2.64-1.63 0-2.5.96-2.5 2.64 0 1.7.87 2.66 2.5 2.66zm0-.77c-1.06 0-1.52-.6-1.52-1.89 0-1.28.46-1.87 1.52-1.87 1.08 0 1.53.6 1.53 1.87 0 1.29-.45 1.9-1.53 1.9zm0 0"/></symbol><symbol overflow="visible" id="a78724f9D"><path d="M2.16 0v-2.67c0-.99.59-1.63 1.46-1.63.74 0 1.07.38 1.07 1.22V0h.95v-3.31c0-1.2-.56-1.85-1.67-1.85-.92 0-1.49.46-1.77 1.08h-.06l-.12-.94H1.2V0zm0 0"/></symbol><symbol overflow="visible" id="a78724f9E"><path d="M1.83 0l1.42-2h.06l1.46 2H5.8L4-2.53l1.78-2.49H4.8L3.42-3.08h-.08l-1.4-1.94H.89l1.78 2.49L.84 0zm0 0"/></symbol><symbol overflow="visible" id="a78724f9F"><path d="M3.92-7.14H1.36v.76h1.6v5.61H1.15V0H5.7v-.77H3.92zm0 0"/></symbol><symbol overflow="visible" id="a78724f9G"><path d="M1.63 0v-2.9c0-.8.15-1.4.71-1.4.41 0 .55.3.55.88V0h.95v-2.9c0-.8.18-1.4.72-1.4.4 0 .57.3.57.88V0h.95v-3.63c0-.92-.28-1.53-1.11-1.53-.63 0-.95.41-1.1.9h-.06c-.1-.52-.44-.9-1.08-.9-.6 0-.93.41-1.06.9H1.6l-.23-.76H.67V0zm0 0"/></symbol><symbol overflow="visible" id="a78724f9H"><path d="M4.63-6.5c.45 0 .98.08 1.39.2l.2-.72a5.3 5.3 0 00-1.64-.26c-1.52 0-2.16.56-2.16 1.87v.4H.9v.76h1.53V0h.94v-4.25h2.53v-.77H3.36v-.3c0-.84.33-1.18 1.27-1.18zm0 0"/></symbol><symbol overflow="visible" id="a78724f9I"><path d="M3.36.16c1.4 0 2.2-.6 2.2-1.57 0-.89-.54-1.22-1.47-1.39L3-3c-.67-.14-.86-.33-.86-.73 0-.5.4-.74 1.17-.74.83 0 1.19.27 1.27.8l.9-.05c-.12-1-.8-1.47-2.17-1.47-1.34 0-2.1.53-2.1 1.5 0 .81.45 1.22 1.52 1.44l1.04.2c.56.11.87.24.87.72 0 .52-.45.78-1.28.78-.95 0-1.36-.28-1.42-.87l-.9.06C1.07-.36 1.8.16 3.35.16zm0 0"/></symbol></defs><g fill="#fff"><use xlink:href="#a78724f9a" x="106.53" y="115"/><use xlink:href="#a78724f9b" x="144.57" y="115"/><use xlink:href="#a78724f9c" x="161.19" y="115"/><use xlink:href="#a78724f9d" x="192.51" y="115"/><use xlink:href="#a78724f9e" x="227.37" y="115"/><use xlink:href="#a78724f9f" x="244.05" y="115.12"/><use xlink:href="#a78724f9g" x="243.99" y="115"/><use xlink:href="#a78724f9h" x="260.01" y="115"/><use xlink:href="#a78724f9c" x="293.01" y="115"/><use xlink:href="#a78724f9i" x="324.33" y="115"/><use xlink:href="#a78724f9j" x="339.03" y="115"/><use xlink:href="#a78724f9k" x="355.65" y="115"/><use xlink:href="#a78724f9l" x="382.53" y="115"/><g><use xlink:href="#a78724f9g" x="417.21" y="115"/><use xlink:href="#a78724f9m" x="433.83" y="115"/><use xlink:href="#a78724f9n" x="462.69" y="115"/></g><g><use xlink:href="#a78724f9c" x="182.94" y="195"/><use xlink:href="#a78724f9e" x="214.26" y="195"/></g><g><use xlink:href="#a78724f9o" x="230.88" y="195"/><use xlink:href="#a78724f9p" x="273.9" y="195"/></g><g><use xlink:href="#a78724f9i" x="290.52" y="195"/><use xlink:href="#a78724f9q" x="305.22" y="195"/><use xlink:href="#a78724f9e" x="349.26" y="195"/></g><g><use xlink:href="#a78724f9f" x="365.94" y="195.12"/></g><g><use xlink:href="#a78724f9r" x="365.88" y="195"/><use xlink:href="#a78724f9s" x="400.44" y="195"/></g><g><use xlink:href="#a78724f9t" x="196.6667" y="266"/><use xlink:href="#a78724f9u" x="203.3337" y="266"/><use xlink:href="#a78724f9v" x="210.0007" y="266"/><use xlink:href="#a78724f9w" x="216.6677" y="266"/><use xlink:href="#a78724f9x" x="223.3347" y="266"/><use xlink:href="#a78724f9y" x="230.0017" y="266"/><use xlink:href="#a78724f9u" x="236.6687" y="266"/><use xlink:href="#a78724f9z" x="243.3357" y="266"/><use xlink:href="#a78724f9A" x="250.0027" y="266"/><use xlink:href="#a78724f9B" x="256.6697" y="266"/><use xlink:href="#a78724f9C" x="263.3367" y="266"/><use xlink:href="#a78724f9D" x="270.0037" y="266"/><use xlink:href="#a78724f9w" x="276.6707" y="266"/><use xlink:href="#a78724f9u" x="283.3377" y="266"/><use xlink:href="#a78724f9E" x="290.0047" y="266"/><use xlink:href="#a78724f9w" x="296.6717" y="266"/><use xlink:href="#a78724f9x" x="303.3387" y="266"/><use xlink:href="#a78724f9v" x="310.0057" y="266"/><use xlink:href="#a78724f9F" x="316.6727" y="266"/><use xlink:href="#a78724f9A" x="323.3397" y="266"/><use xlink:href="#a78724f9G" x="330.0067" y="266"/><use xlink:href="#a78724f9v" x="336.6737" y="266"/><use xlink:href="#a78724f9w" x="343.3407" y="266"/><use xlink:href="#a78724f9y" x="350.0077" y="266"/><use xlink:href="#a78724f9v" x="356.6747" y="266"/><use xlink:href="#a78724f9A" x="363.3417" y="266"/><use xlink:href="#a78724f9H" x="370.0087" y="266"/><use xlink:href="#a78724f9C" x="376.6757" y="266"/><use xlink:href="#a78724f9y" x="383.3427" y="266"/><use xlink:href="#a78724f9G" x="390.0097" y="266"/><use xlink:href="#a78724f9I" x="396.6767" y="266"/></g></g></svg>