<?xml version='1.0' encoding='UTF-8'?>
<svg xmlns="http://www.w3.org/2000/svg" xmlns:xlink="http://www.w3.org/1999/xlink" width="600px" height="300px" viewBox="0 0 600 300" x="0px" y="0px" enable-background="new 0 0 600 300"><defs><symbol overflow="visible" id="21bdecc4a"><path d="M17.7.84c7.32 0 12.6-7.5 12.6-15.42 0-8.58-4.25-14.28-11.22-14.28-3.6 0-6.6 1.38-8.81 3.17v-2.58c0-6.59.04-11.15.23-17.15l-.55-.49c-3.36.25-7.07.97-9.72 1.93-.1.84-.04 1.62.25 2.34 1.57.19 3.18.48 4.74.9v33.72c0 2.16-.72 4.57-1.99 6.83.43.61 1.08 1.2 1.99 1.4a17.83 17.83 0 003.6-3.55C11.4-.24 14.44.84 17.7.84zm-.36-25.62c5.29 0 7.74 5.7 7.74 11.58 0 3.65-1.27 6.72-3 8.82-.42.43-2.03 1.2-3.9 1.2-2.95 0-5.82-1.38-7.91-3.6v-15.6c2.28-1.43 4.92-2.4 7.07-2.4zm0 0"/></symbol><symbol overflow="visible" id="21bdecc4b"><path d="M28.8-2.22c0-.9-.36-1.69-.85-2.22-1.25.36-2.57.72-3.82.9a27.28 27.28 0 01-.36-4.68V-19.5c0-7.8-4.4-9.48-9.55-9.48-4.14 0-7.92 1.14-10.8 2.7 0 2.4.53 4.8 1.38 6.66 1.01.35 2.22.12 3.36-.43 0-1.67.06-3.23.36-4.86 1.62-.3 3.12-.4 5.04-.4 3.72 0 5.1 3.1 5.16 7.6C10.62-16.26 2.34-13 2.34-6.3 2.34-1.86 4.98.84 9.06.84c3 0 6.66-1.86 9.96-4.8.54 2.82 1.75 4.8 3 4.8C24.06.84 27-.59 28.8-2.22zM7.56-7.8c0-1.33.66-2.89 1.44-3.6.84-.72 5.05-1.97 9.72-2.52v6.78c-2.28 2.1-5.1 3.72-7.2 3.72-2.64 0-3.96-1.99-3.96-4.38zm0 0"/></symbol><symbol overflow="visible" id="21bdecc4c"><path d="M1.63-2.64c0 .95.17 2.16.42 2.7 2.33 0 4.8-.12 7.25-.12 1.8 0 4.62.06 6.72.12.25-.54.36-1.8.36-2.7-1.08-.55-2.94-.9-4.5-1.02-.11-1.43-.18-2.93-.18-4.56v-16.33h13.8v17.53c0 1.2-.06 2.16-.23 3.43-1.2.4-3.13.71-4.82.95 0 .95.2 2.1.36 2.7 2.35 0 4.88-.12 7.33-.12 1.63 0 4.8.06 6.72.12.23-.54.36-1.86.36-2.7-1.08-.55-2.94-.9-4.5-1.02a52.63 52.63 0 01-.17-4.56v-16.33h7.3c.2-1.18.24-2.39.24-3.72h-7.54v-2.09c0-5.4 1.25-8.94 2.32-10.44.36-.48 2.05-1.14 4.2-1.14 2.29 0 4.87.6 6.98 1.56v33.36c0 1.2-.07 2.16-.25 3.43-1.2.36-3.11.78-4.8.95 0 .95.19 2.1.36 2.7 2.28 0 4.86-.12 7.27-.12 1.5 0 5.28.06 6.89.12.25-.54.35-1.86.35-2.7-1.07-.48-3-.84-4.6-1.02a52.4 52.4 0 01-.2-4.56v-20.05c0-6.59.07-11.15.24-17.15l-.47-.49c-1.75.13-3.48.36-5.15.72a24.35 24.35 0 00-6.31-.76 10.1 10.1 0 00-7.68 3.23 28.44 28.44 0 00-8.28-1.26c-8.47 0-14.28 5.76-14.76 15.6-1.61.11-3.43.3-4.74.66-.12.78-.12 1.8.13 2.52 1.6.25 3.36.48 4.6.65v17.53c0 1.2-.06 2.16-.23 3.43-1.2.4-3.12.71-4.8.95zm13.8-36.3c.59-.54 2.7-1.08 4.5-1.08 2.02 0 4.62.43 7.26 1.25-1.1 2.7-1.69 6-1.69 9.79v.71l-13.8-.04c.11-5.6 2.1-9.13 3.72-10.63zm0 0"/></symbol><symbol overflow="visible" id="21bdecc4d"><path d="M2.4-13.56C2.4-5.58 6.2.84 14.35.84c4.2 0 8.4-1.75 11.75-4.2-.04-.95-.36-1.86-1.01-2.4-3.78 1.5-6.72 2.34-9.42 2.34-5.94 0-7.86-6.06-8.1-10.8h6.78c3.9 0 7.86.06 10.93.13l.46-.49c.25-.97.32-2.34.32-3.72 0-5.4-2.47-10.75-10.7-10.75-7.62 0-12.94 7.93-12.94 15.49zm8.29-10.38c.72-.65 2.58-1.2 3.83-1.2 4.92 0 6.3 3.48 6.3 7.56-1.5.13-4.13.24-7.32.24H7.73a12.68 12.68 0 012.96-6.6zm0 0"/></symbol><symbol overflow="visible" id="21bdecc4e"><path d="M2.4-13.63C2.4-5.57 5.95.85 13.03.85c3.6 0 6.71-2.4 9.18-5.04.49 2.64 1.61 5.04 3.07 5.04 2.09 0 4.92-1.43 6.78-3.06 0-.9-.36-1.69-.9-2.22-1.09.3-2.52.72-3.85.9-.24-1.32-.3-3.05-.3-4.68V-28.2c0-6.6.06-11.22.23-17.22l-.53-.49c-3.54.32-6.97.97-9.84 1.93-.13.84 0 1.56.23 2.34 1.75.19 3.13.48 4.82.9v13.55a14.85 14.85 0 00-6.61-1.67c-7.32 0-12.9 6.78-12.9 15.23zm5.22-1.14c0-3.95 1.44-7.18 3.07-9 .72-.65 2.62-1.07 4.6-1.07 2.29 0 4.57.54 6.62 1.39v15.47c-2.7 2.53-5.7 4.56-7.57 4.56-4.56 0-6.71-5.81-6.71-11.35zm0 0"/></symbol><symbol overflow="visible" id="21bdecc4f"><path d="M15.72-29.05c-8.35 0-13.31 8.18-13.31 15.43C2.4-5.46 6.55.84 15.06.84c8.46 0 13.38-7.92 13.38-15.42 0-7.98-4.02-14.47-12.72-14.47zm.42 25.86c-6.3 0-8.52-6.47-8.52-11.81 0-3.9 1.38-7.02 3.07-8.81.72-.78 2.69-1.27 3.95-1.27 6.36 0 8.52 6.53 8.52 11.88 0 3.9-1.38 7.07-3.07 8.89-.65.72-2.68 1.12-3.95 1.12zm0 0"/></symbol><symbol overflow="visible" id="21bdecc4g"><path d="M1.63-2.64c0 .95.17 2.16.42 2.7 2.33 0 4.8-.12 7.25-.12 1.8 0 4.62.06 6.72.12.25-.54.36-1.8.36-2.7-1.08-.55-2.94-.9-4.5-1.02-.11-1.43-.18-2.93-.18-4.56v-16.33h13.8v17.53c0 1.2-.06 2.16-.23 3.43-1.2.4-3.13.71-4.82.95a11 11 0 00.36 2.7c2.4 0 4.88-.12 7.33-.12 1.8 0 4.63.06 6.72.12.23-.54.36-1.8.36-2.7-1.08-.55-3-.9-4.5-1.02a52.63 52.63 0 01-.17-4.56v-16.33h13.8V-6.9c0 1.14-.07 2.18-.26 3.25-1.18.43-3.1.79-4.8 1.02a11 11 0 00.37 2.7c2.28 0 4.8-.12 7.26-.12 1.5 0 5.28.06 6.9.12.24-.54.37-1.8.37-2.7-1.1-.48-3-.84-4.63-1.02a52.4 52.4 0 01-.19-4.56v-3.12c0-6.66.07-11.1.26-17.1l-.55-.48c-3.3.36-7.31.6-10.2.6h-8.33v-1.98c0-5.57 1.37-9 2.51-10.43.49-.55 1.86-1.2 4.63-1.2 2.69 0 4.5.29 6.53.88 0 1.82.3 3.49.84 5.24 1.14.3 2.35.3 3.66 0 .9-2.47 1.26-4.81 1.26-7.92a35 35 0 00-11.82-2.22c-3.43 0-6.18 1.18-8.28 3.3a27 27 0 00-8.46-1.33c-8.47 0-14.28 5.76-14.76 15.6-1.61.11-3.43.3-4.74.66-.12.78-.12 1.8.13 2.52 1.6.25 3.36.48 4.6.65v17.53c0 1.2-.06 2.16-.23 3.43-1.2.4-3.12.71-4.8.95zm13.8-36.3c.59-.54 2.7-1.08 4.5-1.08 2.09 0 4.66.43 7.37 1.32-1.2 2.64-1.8 5.93-1.8 9.72v.67H11.7c.11-5.6 2.1-9.13 3.72-10.63zm0 0"/></symbol><symbol overflow="visible" id="21bdecc4h"><path d="M15.6-24.9c1.68 0 3.24.12 4.56.35.25 1.75.3 3.32.36 5.11.96.42 2.04.49 3.3.13a22.96 22.96 0 001.26-7.99 26.18 26.18 0 00-9.42-1.56C7.5-28.86 2.4-21.13 2.4-13.63 2.4-5.52 6.12.85 14.45.85c3.9 0 8.18-1.75 11.24-4.03-.13-.89-.42-1.86-1.1-2.45-3.71 1.44-6.3 2.22-8.87 2.22-6.3 0-8.1-6.78-8.1-11.58 0-3.84 1.38-7.14 3.11-8.77.72-.65 3-1.14 4.86-1.14zm0 0"/></symbol><symbol overflow="visible" id="21bdecc4i"><path d="M3.83 0v-5.95H6.2v-.82H.45v.82h2.4V0zm0 0"/></symbol><symbol overflow="visible" id="21bdecc4j"><path d="M5.75-2.23v-.43c0-1.6-.9-2.51-2.42-2.51S.87-4.16.87-2.48c0 1.71.91 2.62 2.5 2.62 1.43 0 2.07-.56 2.29-1.52l-.9-.09c-.18.61-.59.9-1.35.9-.94 0-1.52-.54-1.58-1.66zm-2.4-2.2c.93 0 1.43.5 1.48 1.55H1.84c.08-1.07.6-1.56 1.5-1.56zm0 0"/></symbol><symbol overflow="visible" id="21bdecc4k"><path d="M1.83 0l1.42-2h.06l1.46 2H5.8L4-2.53l1.78-2.49H4.8L3.42-3.08h-.08l-1.4-1.94H.89l1.78 2.49L.84 0zm0 0"/></symbol><symbol overflow="visible" id="21bdecc4l"><path d="M5.52-4.25v-.77H3.17v-1.56h-.81l-.14 1.56H.75v.77h1.47v2.4c0 1.3.48 1.94 1.84 1.94C4.6.1 5.14 0 5.55-.14L5.4-.91c-.32.13-.72.2-1.13.2-.8 0-1.1-.37-1.1-1.23v-2.31zm0 0"/></symbol><symbol overflow="visible" id="21bdecc4m"><path d="M3.33-3.42c.47 0 .8-.27.8-.8 0-.51-.33-.8-.8-.8-.47 0-.8.29-.8.8 0 .53.33.8.8.8zm0 3.5c.47 0 .8-.27.8-.78 0-.53-.33-.82-.8-.82-.47 0-.8.29-.8.82 0 .51.33.78.8.78zm0 0"/></symbol><symbol overflow="visible" id="21bdecc4o"><path d="M3.9.14c1.48 0 2.18-.98 2.18-2.64 0-1.67-.7-2.66-2.17-2.66-.91 0-1.49.41-1.79 1h-.06v-2.98h-.95V0h.81l.11-.9h.06c.29.63.82 1.04 1.82 1.04zm-.32-.8c-1.08 0-1.55-.8-1.55-1.84 0-1.06.47-1.86 1.55-1.86 1.1 0 1.51.61 1.51 1.86S4.64-.66 3.58-.66zm0 0"/></symbol><symbol overflow="visible" id="21bdecc4p"><path d="M2.83.14c.94 0 1.5-.39 1.81-.95h.08l.1.81h.76v-3.38c0-1.23-.69-1.8-2.13-1.8-1.43 0-2.03.65-2.18 1.6l.93.1c.11-.6.44-.93 1.22-.93.85 0 1.22.32 1.22 1.04v.34l-1.81.2C1.6-2.7 1.1-2.17 1.1-1.28c0 .92.64 1.42 1.72 1.42zm.25-.77c-.67 0-1.02-.28-1.02-.74 0-.44.28-.72 1-.82l1.58-.19v.41c0 .8-.6 1.34-1.56 1.34zm0 0"/></symbol><symbol overflow="visible" id="21bdecc4q"><path d="M4.63-6.5c.45 0 .98.08 1.39.2l.2-.72a5.3 5.3 0 00-1.64-.26c-1.52 0-2.16.56-2.16 1.87v.4H.9v.76h1.53V0h.94v-4.25h2.53v-.77H3.36v-.3c0-.84.33-1.18 1.27-1.18zm0 0"/></symbol><symbol overflow="visible" id="21bdecc4r"><path d="M3.92-7.14H1.36v.76h1.6v5.61H1.15V0H5.7v-.77H3.92zm0 0"/></symbol><symbol overflow="visible" id="21bdecc4s"><path d="M2.84.14C3.8.14 4.33-.26 4.6-.9h.07L4.8 0h.76v-7.14h-.95v2.95h-.08c-.28-.6-.86-.97-1.67-.97-1.48 0-2.27.99-2.27 2.64C.6-.84 1.36.14 2.84.14zm.22-.8c-.98 0-1.48-.59-1.48-1.84s.5-1.86 1.48-1.86c1.13 0 1.58.8 1.58 1.86S4.2-.66 3.06-.66zm0 0"/></symbol><symbol overflow="visible" id="21bdecc4t"><path d="M3.33.14c1.62 0 2.5-.95 2.5-2.66 0-1.68-.88-2.64-2.5-2.64-1.63 0-2.5.96-2.5 2.64 0 1.7.87 2.66 2.5 2.66zm0-.77c-1.06 0-1.52-.6-1.52-1.89 0-1.28.46-1.87 1.52-1.87 1.08 0 1.53.6 1.53 1.87 0 1.29-.45 1.9-1.53 1.9zm0 0"/></symbol><symbol overflow="visible" id="21bdecc4u"><path d="M3.58-5.81c.42 0 .72-.22.72-.67 0-.44-.3-.68-.72-.68-.44 0-.72.24-.72.68 0 .45.28.67.72.67zm.5.8H1.52v.76h1.6v3.48h-1.8V0h4.46v-.77h-1.7zm0 0"/></symbol><symbol overflow="visible" id="21bdecc4v"><path d="M3.34.14c1.43 0 2.13-.66 2.25-1.78l-.89-.1c-.1.7-.5 1.08-1.34 1.08-1.03 0-1.52-.64-1.52-1.84 0-1.23.47-1.86 1.52-1.86.84 0 1.23.36 1.34 1.08l.9-.1c-.13-1.09-.82-1.78-2.26-1.78-1.56 0-2.46.97-2.46 2.66 0 1.66.9 2.64 2.46 2.64zm0 0"/></symbol><symbol overflow="visible" id="21bdecc4w"><path d="M5.95-6.77H1.1V0h.99v-2.92H5.3v-.77H2.08v-2.26h3.87zm0 0"/></symbol><symbol overflow="visible" id="21bdecc4x"><path d="M2.73.14c.9 0 1.43-.45 1.74-1.08h.06l.13.94h.8v-5.02h-.94v2.7c0 .98-.57 1.62-1.46 1.62-.75 0-1.1-.4-1.1-1.22v-3.1h-.93v3.32c0 1.17.55 1.84 1.7 1.84zm0 0"/></symbol><symbol overflow="visible" id="21bdecc4y"><path d="M5.08-5.16c-.94 0-1.58.43-1.9 1.3h-.09l-.07-1.16H1.05v.77h1.1v3.48H.96V0h3.96v-.77H3.1v-1.46c0-1.36.6-2.05 1.83-2.05.4 0 .76.08 1.1.17l.15-.87c-.33-.11-.7-.18-1.11-.18zm0 0"/></symbol><symbol overflow="visible" id="21bdecc4z"><path d="M3.34.14c1.7 0 2.64-.75 2.64-2 0-1.1-.67-1.6-1.95-1.86l-.97-.2c-.84-.16-1.2-.49-1.2-1.11 0-.7.56-1.11 1.56-1.11.99 0 1.47.34 1.63 1.23L5.97-5C5.8-6.28 4.95-6.9 3.45-6.9 1.81-6.9.92-6.18.92-4.98c0 1.06.63 1.66 1.85 1.9l1.01.2c.85.17 1.25.4 1.25 1.09 0 .73-.6 1.16-1.66 1.16-1.1 0-1.6-.4-1.75-1.24l-.93.1C.84-.53 1.66.13 3.34.13zm0 0"/></symbol><symbol overflow="visible" id="21bdecc4A"><path d="M2.16 0v-2.67c0-.99.59-1.63 1.46-1.63.74 0 1.07.38 1.07 1.22V0h.95v-3.31c0-1.2-.56-1.85-1.67-1.85-.92 0-1.49.46-1.77 1.08h-.06l-.12-.94H1.2V0zm0 0"/></symbol><symbol overflow="visible" id="21bdecc4B"><path d="M3.16 2.03c1.67 0 2.4-.86 2.4-2.51v-4.54h-.81l-.13.91h-.06c-.26-.58-.8-1.05-1.73-1.05-1.42 0-2.24 1-2.24 2.52 0 1.6.75 2.56 2.2 2.56.94 0 1.5-.5 1.77-1.03h.05v.72c0 1.17-.42 1.67-1.45 1.67-.93 0-1.3-.34-1.41-.89L.8.5c.12.96.87 1.54 2.36 1.54zM3.06-.8c-.98 0-1.48-.57-1.48-1.82 0-1.13.5-1.75 1.48-1.75 1.06 0 1.58.76 1.58 1.75 0 .95-.56 1.82-1.58 1.82zm0 0"/></symbol><symbol overflow="visible" id="21bdecc4C"><path d="M3.36.16c1.4 0 2.2-.6 2.2-1.57 0-.89-.54-1.22-1.47-1.39L3-3c-.67-.14-.86-.33-.86-.73 0-.5.4-.74 1.17-.74.83 0 1.19.27 1.27.8l.9-.05c-.12-1-.8-1.47-2.17-1.47-1.34 0-2.1.53-2.1 1.5 0 .81.45 1.22 1.52 1.44l1.04.2c.56.11.87.24.87.72 0 .52-.45.78-1.28.78-.95 0-1.36-.28-1.42-.87l-.9.06C1.07-.36 1.8.16 3.35.16zm0 0"/></symbol><symbol overflow="visible" id="21bdecc4D"><path d="M1.45-2.95c0 2.56 1.08 4.37 3.67 4.84l.11-.67C3.28.86 2.43-.75 2.43-2.95s.85-3.82 2.8-4.16l-.1-.69c-2.6.49-3.68 2.3-3.68 4.85zm0 0"/></symbol><symbol overflow="visible" id="21bdecc4E"><path d="M1.45-7.1c1.96.33 2.8 1.94 2.8 4.15 0 2.2-.84 3.8-2.8 4.17l.11.67c2.58-.47 3.67-2.28 3.67-4.84 0-2.55-1.09-4.36-3.67-4.85zm0 0"/></symbol></defs><g fill="#515151"><use xlink:href="#21bdecc4a" x="132.75" y="148"/><use xlink:href="#21bdecc4b" x="165.45" y="148"/></g><use xlink:href="#21bdecc4c" x="194.91" y="148" fill="#fff"/><g fill="#515151"><use xlink:href="#21bdecc4d" x="250.05" y="148"/><use xlink:href="#21bdecc4e" x="278.85" y="148"/></g><use xlink:href="#21bdecc4f" x="324.69" y="148" fill="#515151"/><use xlink:href="#21bdecc4g" x="355.47" y="148" fill="#fff"/><g fill="#515151"><use xlink:href="#21bdecc4h" x="411.21" y="148"/><use xlink:href="#21bdecc4d" x="438.45" y="148"/></g><g fill="#fff"><use xlink:href="#21bdecc4i" x="233.3333" y="252"/><use xlink:href="#21bdecc4j" x="240.0003" y="252"/><use xlink:href="#21bdecc4k" x="246.6673" y="252"/><use xlink:href="#21bdecc4l" x="253.3343" y="252"/><use xlink:href="#21bdecc4m" x="260.0013" y="252"/><use xlink:href="#21bdecc4n" x="266.6683" y="252"/><use xlink:href="#21bdecc4o" x="273.3353" y="252"/><use xlink:href="#21bdecc4p" x="280.0023" y="252"/><use xlink:href="#21bdecc4q" x="286.6693" y="252"/><use xlink:href="#21bdecc4q" x="293.3363" y="252"/><use xlink:href="#21bdecc4r" x="300.0033" y="252"/><use xlink:href="#21bdecc4j" x="306.6703" y="252"/><use xlink:href="#21bdecc4s" x="313.3373" y="252"/><use xlink:href="#21bdecc4n" x="320.0043" y="252"/><use xlink:href="#21bdecc4t" x="326.6713" y="252"/><use xlink:href="#21bdecc4q" x="333.3383" y="252"/><use xlink:href="#21bdecc4q" x="340.0053" y="252"/><use xlink:href="#21bdecc4u" x="346.6723" y="252"/><use xlink:href="#21bdecc4v" x="353.3393" y="252"/><use xlink:href="#21bdecc4j" x="360.0063" y="252"/></g><g fill="#fff"><use xlink:href="#21bdecc4w" x="186.6667" y="266"/><use xlink:href="#21bdecc4j" x="193.3337" y="266"/><use xlink:href="#21bdecc4p" x="200.0007" y="266"/><use xlink:href="#21bdecc4l" x="206.6677" y="266"/><use xlink:href="#21bdecc4x" x="213.3347" y="266"/><use xlink:href="#21bdecc4y" x="220.0017" y="266"/><use xlink:href="#21bdecc4j" x="226.6687" y="266"/><use xlink:href="#21bdecc4m" x="233.3357" y="266"/><use xlink:href="#21bdecc4n" x="240.0027" y="266"/><use xlink:href="#21bdecc4z" x="246.6697" y="266"/><use xlink:href="#21bdecc4l" x="253.3367" y="266"/><use xlink:href="#21bdecc4p" x="260.0037" y="266"/><use xlink:href="#21bdecc4A" x="266.6707" y="266"/><use xlink:href="#21bdecc4s" x="273.3377" y="266"/><use xlink:href="#21bdecc4p" x="280.0047" y="266"/><use xlink:href="#21bdecc4y" x="286.6717" y="266"/><use xlink:href="#21bdecc4s" x="293.3387" y="266"/><use xlink:href="#21bdecc4n" x="300.0057" y="266"/><use xlink:href="#21bdecc4r" x="306.6727" y="266"/><use xlink:href="#21bdecc4u" x="313.3397" y="266"/><use xlink:href="#21bdecc4B" x="320.0067" y="266"/><use xlink:href="#21bdecc4p" x="326.6737" y="266"/><use xlink:href="#21bdecc4l" x="333.3407" y="266"/><use xlink:href="#21bdecc4x" x="340.0077" y="266"/><use xlink:href="#21bdecc4y" x="346.6747" y="266"/><use xlink:href="#21bdecc4j" x="353.3417" y="266"/><use xlink:href="#21bdecc4C" x="360.0087" y="266"/><use xlink:href="#21bdecc4n" x="366.6757" y="266"/><use xlink:href="#21bdecc4D" x="373.3427" y="266"/><use xlink:href="#21bdecc4r" x="380.0097" y="266"/><use xlink:href="#21bdecc4u" x="386.6767" y="266"/><use xlink:href="#21bdecc4B" x="393.3437" y="266"/><use xlink:href="#21bdecc4p" x="400.0107" y="266"/><use xlink:href="#21bdecc4E" x="406.6777" y="266"/></g></svg>