<?xml version='1.0' encoding='UTF-8'?>
<svg xmlns="http://www.w3.org/2000/svg" xmlns:xlink="http://www.w3.org/1999/xlink" width="600px" height="300px" viewBox="0 0 600 300" x="0px" y="0px" enable-background="new 0 0 600 300"><defs><symbol overflow="visible" id="e1aa5341a"><path d="M12.23-35.77c-3.1 0-6.36 1.15-8.45 2.96a7.63 7.63 0 002.94 4.19h.6c1.91-1.74 4.38-2.94 6.96-2.94 1.14 0 2.16.25 3 .84 1.31 1.02 2.03 3.06 2.03 4.92 0 3.85-3.04 8.03-8.45 9.78-.72-2.7-1.98-5.04-3.72-5.04-2.34 0-5.05 4.01-5.05 7.08 0 2.34 1.63 3.3 4.75 3.3.54 0 1.08 0 1.61-.05C9.72-3.91 14.1.84 20.7.84c1.93 0 3.96-.36 5.82-1.14l.25-.54A9.38 9.38 0 0025.2-5.1c-1.39.59-3.25 1.07-4.8 1.07-3.54 0-7.45-2.46-8.88-7.26 3.78-.95 7.32-2.94 9.71-5.64a8.95 8.95 0 006.13 2.47c1.44 0 2.94-.32 4.27-.9v6.94c0 5.47 1.25 9.13 4.25 9.13a13 13 0 007.43-2.77c.49-.3.74-.72.74-1.14 0-.83-1.03-2.22-2.35-3.36h-.48A22.04 22.04 0 0137.2-2.7h-.12a22.26 22.26 0 01-.53-4.99v-26.26a16.2 16.2 0 00-4.7-1.7l-.48.43c.2 3.6.25 7.63.25 11.81v2.29c-1.5 1.62-3.25 2.57-5.34 2.57a8.14 8.14 0 01-3.36-.76 10.03 10.03 0 001.27-4.75c0-5.22-4.5-11.7-11.96-11.7zm0 0"/></symbol><symbol overflow="visible" id="e1aa5341b"><path d="M14.16-24.55c-7.02 0-12.18 3.43-12.18 9.43 0 5.17 3.83 11.04 9.47 15.71a4.78 4.78 0 002.47-2.15c-4.26-4.92-6.72-9-6.72-12.53 0-4.1 3.42-6 8.46-6 1.98 0 3.84.3 5.7.89 2.4 6.12 6.55 10.5 12.6 10.5 2.34 0 5.04-.53 7.5-2.03v2.32c0 5.47 1.26 9.13 4.26 9.13 2.28 0 5.51-1.14 7.44-2.77.48-.3.72-.72.72-1.14 0-.83-1.02-2.22-2.33-3.36h-.49a22.04 22.04 0 01-4.01 3.85h-.13a22.25 22.25 0 01-.55-4.99v-26.26c-1.37-.78-3.1-1.4-4.67-1.7l-.48.43c.19 3.6.23 7.63.23 11.81v6a10.22 10.22 0 01-8.26 4.5c-3.67 0-6-2.57-7.03-5.57 4.14-1.25 7.98-4.02 7.98-8.22 0-4.68-4.86-9.07-10.44-9.07-1.8 0-3.54.49-4.62 1.04a7.36 7.36 0 002.34 4.67h.6c1.03-.66 2.53-1.5 3.96-1.5.79 0 1.61.25 2.22.84.72.6 1.08 1.67 1.08 2.7 0 2.4-2.05 4.25-5.4 5.29a29.77 29.77 0 00-9.72-1.82zm0 0"/></symbol><symbol overflow="visible" id="e1aa5341c"><path d="M4.8-21.9c-2.82 0-4.25 1.26-4.25 3.18 0 3.3 4.5 7.92 7.6 7.92 1.63 0 2.77-1.43 2.77-4.43v-2.22h11.1v9.04c0 5.47 1.26 9.13 4.26 9.13 2.28 0 5.52-1.14 7.44-2.77.48-.3.72-.72.72-1.14 0-.83-1.02-2.22-2.35-3.36h-.47A21.62 21.62 0 0127.6-2.7h-.1a22.25 22.25 0 01-.55-4.99v-26.26a16.1 16.1 0 00-4.67-1.7l-.49.43c.17 3.6.24 7.63.24 11.81v1.99c-5.58-.3-11.58-.49-17.22-.49zm0 0"/></symbol><symbol overflow="visible" id="e1aa5341d"><path d="M14.81-6.55h-.47a21.62 21.62 0 01-4.03 3.85h-.1a22.25 22.25 0 01-.55-4.99v-26.26c-1.38-.78-3.11-1.4-4.68-1.7l-.48.43c.19 3.6.23 7.63.23 11.81v15C4.73-2.94 6 .72 9 .72c2.28 0 5.52-1.14 7.44-2.77.48-.3.72-.72.72-1.14 0-.83-1.02-2.22-2.35-3.36zm0 0"/></symbol><symbol overflow="visible" id="e1aa5341f"><path d="M33.06-6.55h-.48a22.04 22.04 0 01-4.02 3.85h-.12a22.26 22.26 0 01-.53-4.99v-26.26a16.2 16.2 0 00-4.7-1.7l-.48.43c.2 3.6.25 7.63.25 11.81v6.91a10.2 10.2 0 01-7.86 3.66c-1.85 0-3.35-.54-4.07-1.44-.78-1.02-1.4-3.72-1.4-6.72v-5.52c0-5.89-1.2-9.12-4.2-9.12-1.73 0-5.39 1.08-6.65 2.1-.43.35-.66.77-.66 1.13 0 .85 1.02 2.22 2.34 3.36h.47a18.02 18.02 0 013.42-3.17h.13c.13 1.56.23 3.24.23 4.99v5.45c0 7.37 5.22 12.48 10.57 12.97v.1L8.87-3c.79 1.73 2.05 3 3.72 3.78L23-9.84v1.43c0 5.47 1.24 9.13 4.24 9.13 2.29 0 5.54-1.14 7.46-2.77.47-.3.72-.72.72-1.14 0-.83-1.03-2.22-2.35-3.36zm0 0"/></symbol><symbol overflow="visible" id="e1aa5341g"><path d="M32.45-6.55h-.47a21.62 21.62 0 01-4.03 3.85h-.1a22.25 22.25 0 01-.55-4.99v-26.26c-1.38-.78-3.11-1.4-4.68-1.7l-.48.43c.17 3.6.23 7.63.23 11.81v6a10.23 10.23 0 01-8.28 4.5c-3.59 0-6-2.21-7.01-4.73 4.14-1.31 7.98-4.2 7.98-8.58 0-4.92-4.8-9.55-10.44-9.55-1.8 0-3.54.49-4.62 1.04a7.36 7.36 0 002.34 4.67h.6c1.01-.66 2.51-1.5 3.97-1.5.78 0 1.6.25 2.21.9.72.66 1.08 1.8 1.08 2.88 0 3.12-3.06 5.4-7.39 6.6a4.86 4.86 0 00-.65 2.59C4.5-12.91 8.8-8.7 14.87-8.7c2.35 0 5.05-.53 7.5-2.03v2.32c0 5.47 1.27 9.13 4.27 9.13 2.28 0 5.52-1.14 7.44-2.77.48-.3.72-.72.72-1.14 0-.83-1.02-2.22-2.35-3.36zm0 0"/></symbol><symbol overflow="visible" id="e1aa5341h"><path d="M10.31-40.02L.48-48.19c-2.93-2.51-5.64-3.83-9.12-3.83-2.1 0-4.14.47-6.13 1.5a8.79 8.79 0 002.05 5.16c1.86-.78 3.36-1.37 5.22-1.37 1.92 0 4.14.65 6.3 2.15l9.84 6.9a4.65 4.65 0 001.67-2.34zm4.5 33.47h-.47a21.62 21.62 0 01-4.03 3.85h-.1a22.25 22.25 0 01-.55-4.99v-26.26c-1.38-.78-3.11-1.4-4.68-1.7l-.48.43c.19 3.6.23 7.63.23 11.81v15C4.73-2.94 6 .72 9 .72c2.28 0 5.52-1.14 7.44-2.77.48-.3.72-.72.72-1.14 0-.83-1.02-2.22-2.35-3.36zm0 0"/></symbol><symbol overflow="visible" id="e1aa5341i"><path d="M4.63-29.28h.59a11.77 11.77 0 016.66-2.28c1.68 0 3.12.42 4.14 1.5 1.14 1.26 2.17 3.78 2.17 7.2 0 5.81-3.13 9.84-7.4 9.84-2.74 0-5.45-1.62-7.85-4.43A5.23 5.23 0 00.59-15.6c2.64 4.37 6.49 6.78 11.29 6.78 6.96 0 11.21-5.24 11.21-12.61 0-7.67-5.03-14.35-13.18-14.35-3 0-5.7.85-7.75 1.99a8.75 8.75 0 002.46 4.5zm33.1 22.73h-.46a21.62 21.62 0 01-4.04 3.85h-.1a22.25 22.25 0 01-.55-4.99v-26.26a16.1 16.1 0 00-4.67-1.7l-.49.43c.17 3.6.24 7.63.24 11.81v15c0 5.47 1.26 9.13 4.26 9.13 2.28 0 5.52-1.14 7.44-2.77.48-.3.72-.72.72-1.14 0-.83-1.02-2.22-2.35-3.36zm0 0"/></symbol><symbol overflow="visible" id="e1aa5341j"><path d="M26.88-35.77c-1.8 0-3.54.49-4.61 1.04a7.74 7.74 0 002.32 4.67h.61c1.02-.66 2.52-1.5 3.96-1.5.84 0 1.62.25 2.28.78.65.6 1.01 1.56 1.01 2.64 0 3.06-3.1 4.98-7.37 5.77l-12.13 2.51-.47.48c.18 1.57.79 3 1.57 4.2l11.03-2.34C27.59-12.3 31.63-8.7 37.2-8.7c2.35 0 5.03-.53 7.5-2.03v2.32c0 5.47 1.25 9.13 4.25 9.13 2.28 0 5.53-1.14 7.46-2.77.47-.3.72-.72.72-1.14 0-.83-1.04-2.22-2.35-3.36h-.48a22.04 22.04 0 01-4.02 3.85h-.12a22.26 22.26 0 01-.53-4.99v-26.26a16.2 16.2 0 00-4.7-1.7l-.48.43c.2 3.6.25 7.63.25 11.81v6a10.27 10.27 0 01-8.28 4.5c-3.78 0-6.12-2.57-7.08-5.64 3.9-.95 8.04-4.07 8.04-8.22 0-4.54-4.86-9-10.5-9zm-11.82 1.33C5.87-31.5 1.73-25.86 1.73-19.02c0 8.58 6.68 14.94 18.36 15 .55-1.03.61-2.1.2-3.3-9.85-.3-13.7-5.52-13.7-11.04 0-5.05 3.25-9.19 10.33-11.64l.36-.55a8.63 8.63 0 00-2.22-3.89zm0 0"/></symbol><symbol overflow="visible" id="e1aa5341k"><path d="M-10.69 10.27C-8.77 8.45-6.9 7.63-5.4 7.63c1.99 0 3 1.43 3 3.23 0 2.7-2.39 3.9-5.28 3.9-3.83 0-9.1-2.04-14.51-8.76a4.1 4.1 0 00-2.46 1.8c5.58 7.62 12.3 11.1 18.07 11.1 5.68 0 8.64-3.3 8.64-6.9 0-4.02-3.74-8.05-9-8.05-2.24 0-4.46.67-6.74 2.53a4.97 4.97 0 003 3.79zm0 0"/></symbol><symbol overflow="visible" id="e1aa5341l"><path d="M12.36-35.77c-4.63 0-8.64 3.13-8.64 7.57 0 5.22 5.47 9.54 11.47 9.54.83 0 1.54-.06 2.33-.18l.12.06a14.84 14.84 0 01-6.84 5.16c-1.14-2.29-2.52-3.72-4.02-3.72-2.22 0-4.33 3.18-4.33 5.89 0 2.32 1.5 3.1 4.4 3.1.65 0 1.24-.06 1.92-.1 1.5 5.51 5.93 9.3 12.17 9.3 1.86 0 3.78-.37 5.58-1.08l.3-.61a7.76 7.76 0 00-1.62-4.32c-1.39.66-3.06 1.2-4.75 1.2a9.7 9.7 0 01-8.51-5.23c6.54-2.03 12.48-7.67 12.48-14.1 0-6.12-5.34-12.48-12.06-12.48zM42.23-6.55h-.46a21.62 21.62 0 01-4.04 3.85h-.1a22.25 22.25 0 01-.55-4.99v-26.26a16.1 16.1 0 00-4.67-1.7l-.49.43c.17 3.6.24 7.63.24 11.81v15c0 5.47 1.26 9.13 4.26 9.13 2.28 0 5.52-1.14 7.44-2.77.48-.3.72-.72.72-1.14 0-.83-1.02-2.22-2.35-3.36zM10.73-23.4a4.5 4.5 0 01-2.09-3.78c0-2.68 2.34-4.43 5.16-4.43 2.04 0 3.36.9 4.01 1.75 1.4 1.56 1.75 3.78 1.75 5.21 0 .36 0 .79-.06 1.14-1.5.72-3.23 1.08-4.98 1.08-1.61 0-3-.42-3.79-.97zm0 0"/></symbol><symbol overflow="visible" id="e1aa5341m"><path d="M35.45-6.55h-.47a21.62 21.62 0 01-4.03 3.85h-.1a22.25 22.25 0 01-.55-4.99v-26.26c-1.38-.78-3.11-1.4-4.68-1.7l-.48.43c.17 3.6.23 7.63.23 11.81v5.9c-3.71-.2-7.6-.36-11.51-.43v-8.7c0-5.4-1.31-9-4.27-9-2.32 0-5.68.9-7.6 2.22-.43.36-.72.78-.72 1.2 0 .84 1.07 2.22 2.39 3.3h.48c1.27-1.27 2.7-2.4 4.08-3.3h.12c.43 1.56.6 3.24.6 4.99V-18H7.5c-2.81 0-4.27 1.31-4.27 3.19 0 3.17 4.5 7.86 7.57 7.86 1.5 0 3-1.4 3-4.7v-1.85h11.57v5.1c0 5.46 1.27 9.12 4.27 9.12 2.28 0 5.52-1.14 7.44-2.77.48-.3.72-.72.72-1.14 0-.83-1.02-2.22-2.35-3.36zm0 0"/></symbol><symbol overflow="visible" id="e1aa5341n"><path d="M-4.27 12.72c-1.96 1.8-3.78 2.7-5.32 2.7-1.86 0-2.96-1.44-2.96-3.23 0-2.64 2.35-3.85 5.28-3.85 3.25 0 8.54 1.44 12.97 9.85a4.28 4.28 0 002.52-1.69C3.66 7.56-3 4.2-8.52 4.2c-5.4 0-8.46 3.3-8.46 6.9 0 3.9 3.67 7.98 9 7.98 2.21 0 4.43-.72 6.71-2.58a5.09 5.09 0 00-3-3.78zm0 0"/></symbol><symbol overflow="visible" id="e1aa5341o"><path d="M8.28-35.81c-4.62 3.65-6.55 8.33-6.55 13.25 0 8.4 5.77 14.58 12.61 14.58 5.4 0 8.88-3.9 8.88-10.57 0-2.68-.53-5.15-.53-6.95 0-3.78 2.26-6.06 5.03-6.06 1.62 0 2.58.54 2.94 1.26.42.72.78 2.4.78 4.44V-8.4c0 5.47 1.33 9.13 4.26 9.13 2.35 0 5.58-1.14 7.44-2.77.48-.3.72-.72.72-1.14 0-.83-.95-2.22-2.34-3.36h-.47a21.62 21.62 0 01-4.03 3.85h-.11a22.25 22.25 0 01-.55-4.99v-16.67c0-5.7-3.95-11.4-9.9-11.4-4.74 0-8.65 3.12-8.65 8.57 0 2.05.55 5.17.55 7.57 0 3.71-1.27 7.43-5.94 7.43-1.26 0-2.47-.23-3.36-1.25-1.37-1.44-2.47-4.69-2.47-8.1 0-4.32 1.63-7.98 5.9-11.23v-.65c-.97-1.14-2.35-1.86-4.2-2.4zm0 0"/></symbol><symbol overflow="visible" id="e1aa5341p"><path d="M24.23 9.3L19.73-.2c2.05-.89 3.68-2.33 3.68-4.25 0-3-3.91-4.86-6.13-4.86-1.73 0-2.47 1.2-2.47 2.94 0 .78.13 1.8.38 2.77-.85.3-1.88.46-2.77.46-1.8 0-3.42-.59-4.37-1.6a5.45 5.45 0 01-1.4-3.61c0-3.11 2.94-5.64 7.44-8.22a36.9 36.9 0 0014.47 2.93h1.38v5.22c0 5.47 1.26 9.13 4.26 9.13 2.28 0 5.52-1.14 7.44-2.77.48-.3.72-.72.72-1.14 0-.83-1.02-2.22-2.34-3.36h-.47a21.62 21.62 0 01-4.03 3.85h-.11a22.25 22.25 0 01-.55-4.99v-26.26a16.1 16.1 0 00-4.67-1.7l-.49.43c.18 3.6.24 7.63.24 11.81v5.11c-1.57.24-3.24.36-5.03.36-2.6 0-5.05-.3-7.2-.97 3-1.8 4.85-4.5 4.85-7.37 0-4.38-4.37-9.49-10.01-9.49-3.97 0-7.86 2.54-7.86 7.7 0 3.59 1.9 6.59 4.86 8.87v.06C5.09-16.8 2.09-13.7 2.09-9.6 2.1-3.84 8 .95 14.16.95c.65 0 1.39-.04 2.04-.17l3.24 10.38c1.68.12 4.01-.72 4.8-1.86zM9.2-27a4.4 4.4 0 014.44-4.63c1.14 0 2.28.36 3.06 1.15a4.57 4.57 0 011.18 3.12c0 2.34-1.85 4.67-5.09 6.3-2.22-1.57-3.6-3.6-3.6-5.94zm0 0"/></symbol><symbol overflow="visible" id="e1aa5341q"><path d="M2.1-13.98c0 2.4 1.56 3.3 4.98 3.3.48 0 .9 0 1.37-.05C9.78-3.84 14.22.84 20.88.84 22.8.84 24.9.48 26.7-.3l.3-.54a9.69 9.69 0 00-1.56-4.32 13.42 13.42 0 01-4.92 1.14c-3.47 0-7.44-2.46-8.88-7.14 7.08-1.5 13.86-6.3 13.86-12.84 0-5.64-4.92-11.77-12.78-11.77-3.42 0-6.6 1.2-8.88 2.96a8.1 8.1 0 002.88 4.31h.6c2.04-1.56 4.55-3.06 7.5-3.06 2.1 0 3.54.78 4.13 1.33 1.1 1.01 1.63 2.57 1.63 4.37 0 4.31-3.3 8.34-9.6 9.84-.78-2.7-2.04-5.04-3.84-5.04-2.34 0-5.05 3.97-5.05 7.08zm0 0"/></symbol><symbol overflow="visible" id="e1aa5341r"><path d="M5.95-6.77H1.1V0h.99v-2.92H5.3v-.77H2.08v-2.26h3.87zm0 0"/></symbol><symbol overflow="visible" id="e1aa5341s"><path d="M5.75-2.23v-.43c0-1.6-.9-2.51-2.42-2.51S.87-4.16.87-2.48c0 1.71.91 2.62 2.5 2.62 1.43 0 2.07-.56 2.29-1.52l-.9-.09c-.18.61-.59.9-1.35.9-.94 0-1.52-.54-1.58-1.66zm-2.4-2.2c.93 0 1.43.5 1.48 1.55H1.84c.08-1.07.6-1.56 1.5-1.56zm0 0"/></symbol><symbol overflow="visible" id="e1aa5341t"><path d="M2.83.14c.94 0 1.5-.39 1.81-.95h.08l.1.81h.76v-3.38c0-1.23-.69-1.8-2.13-1.8-1.43 0-2.03.65-2.18 1.6l.93.1c.11-.6.44-.93 1.22-.93.85 0 1.22.32 1.22 1.04v.34l-1.81.2C1.6-2.7 1.1-2.17 1.1-1.28c0 .92.64 1.42 1.72 1.42zm.25-.77c-.67 0-1.02-.28-1.02-.74 0-.44.28-.72 1-.82l1.58-.19v.41c0 .8-.6 1.34-1.56 1.34zm0 0"/></symbol><symbol overflow="visible" id="e1aa5341u"><path d="M5.52-4.25v-.77H3.17v-1.56h-.81l-.14 1.56H.75v.77h1.47v2.4c0 1.3.48 1.94 1.84 1.94C4.6.1 5.14 0 5.55-.14L5.4-.91c-.32.13-.72.2-1.13.2-.8 0-1.1-.37-1.1-1.23v-2.31zm0 0"/></symbol><symbol overflow="visible" id="e1aa5341v"><path d="M2.73.14c.9 0 1.43-.45 1.74-1.08h.06l.13.94h.8v-5.02h-.94v2.7c0 .98-.57 1.62-1.46 1.62-.75 0-1.1-.4-1.1-1.22v-3.1h-.93v3.32c0 1.17.55 1.84 1.7 1.84zm0 0"/></symbol><symbol overflow="visible" id="e1aa5341w"><path d="M5.08-5.16c-.94 0-1.58.43-1.9 1.3h-.09l-.07-1.16H1.05v.77h1.1v3.48H.96V0h3.96v-.77H3.1v-1.46c0-1.36.6-2.05 1.83-2.05.4 0 .76.08 1.1.17l.15-.87c-.33-.11-.7-.18-1.11-.18zm0 0"/></symbol><symbol overflow="visible" id="e1aa5341x"><path d="M3.33-3.42c.47 0 .8-.27.8-.8 0-.51-.33-.8-.8-.8-.47 0-.8.29-.8.8 0 .53.33.8.8.8zm0 3.5c.47 0 .8-.27.8-.78 0-.53-.33-.82-.8-.82-.47 0-.8.29-.8.82 0 .51.33.78.8.78zm0 0"/></symbol><symbol overflow="visible" id="e1aa5341z"><path d="M6.17 0L3.98-6.77h-1.3L.5 0h.97l.44-1.47h2.78L5.16 0zM3.28-5.94h.08l1.1 3.74H2.15zm0 0"/></symbol><symbol overflow="visible" id="e1aa5341A"><path d="M2.44 0l.87-3.31h.06L4.25 0H5.3l1.03-5.02h-.88l-.73 3.94h-.08L3.77-4.4h-.85l-.87 3.33h-.08l-.75-3.94H.34L1.36 0zm0 0"/></symbol><symbol overflow="visible" id="e1aa5341B"><path d="M3.58-5.81c.42 0 .72-.22.72-.67 0-.44-.3-.68-.72-.68-.44 0-.72.24-.72.68 0 .45.28.67.72.67zm.5.8H1.52v.76h1.6v3.48h-1.8V0h4.46v-.77h-1.7zm0 0"/></symbol><symbol overflow="visible" id="e1aa5341C"><path d="M2.84.14C3.8.14 4.33-.26 4.6-.9h.07L4.8 0h.76v-7.14h-.95v2.95h-.08c-.28-.6-.86-.97-1.67-.97-1.48 0-2.27.99-2.27 2.64C.6-.84 1.36.14 2.84.14zm.22-.8c-.98 0-1.48-.59-1.48-1.84s.5-1.86 1.48-1.86c1.13 0 1.58.8 1.58 1.86S4.2-.66 3.06-.66zm0 0"/></symbol><symbol overflow="visible" id="e1aa5341D"><path d="M2.16 0v-2.67c0-.99.59-1.63 1.46-1.63.74 0 1.07.38 1.07 1.22V0h.95v-3.31c0-1.2-.56-1.85-1.67-1.85-.92 0-1.49.46-1.77 1.08h-.06l-.12-.94H1.2V0zm0 0"/></symbol><symbol overflow="visible" id="e1aa5341E"><path d="M3.16 2.03c1.67 0 2.4-.86 2.4-2.51v-4.54h-.81l-.13.91h-.06c-.26-.58-.8-1.05-1.73-1.05-1.42 0-2.24 1-2.24 2.52 0 1.6.75 2.56 2.2 2.56.94 0 1.5-.5 1.77-1.03h.05v.72c0 1.17-.42 1.67-1.45 1.67-.93 0-1.3-.34-1.41-.89L.8.5c.12.96.87 1.54 2.36 1.54zM3.06-.8c-.98 0-1.48-.57-1.48-1.82 0-1.13.5-1.75 1.48-1.75 1.06 0 1.58.76 1.58 1.75 0 .95-.56 1.82-1.58 1.82zm0 0"/></symbol><symbol overflow="visible" id="e1aa5341F"><path d="M3.33.14c1.62 0 2.5-.95 2.5-2.66 0-1.68-.88-2.64-2.5-2.64-1.63 0-2.5.96-2.5 2.64 0 1.7.87 2.66 2.5 2.66zm0-.77c-1.06 0-1.52-.6-1.52-1.89 0-1.28.46-1.87 1.52-1.87 1.08 0 1.53.6 1.53 1.87 0 1.29-.45 1.9-1.53 1.9zm0 0"/></symbol><symbol overflow="visible" id="e1aa5341G"><path d="M4.63-6.5c.45 0 .98.08 1.39.2l.2-.72a5.3 5.3 0 00-1.64-.26c-1.52 0-2.16.56-2.16 1.87v.4H.9v.76h1.53V0h.94v-4.25h2.53v-.77H3.36v-.3c0-.84.33-1.18 1.27-1.18zm0 0"/></symbol><symbol overflow="visible" id="e1aa5341H"><path d="M3.34.14c1.43 0 2.13-.66 2.25-1.78l-.89-.1c-.1.7-.5 1.08-1.34 1.08-1.03 0-1.52-.64-1.52-1.84 0-1.23.47-1.86 1.52-1.86.84 0 1.23.36 1.34 1.08l.9-.1c-.13-1.09-.82-1.78-2.26-1.78-1.56 0-2.46.97-2.46 2.66 0 1.66.9 2.64 2.46 2.64zm0 0"/></symbol><symbol overflow="visible" id="e1aa5341I"><path d="M4.14-7.16c-.44 0-.72.24-.72.68 0 .45.28.67.72.67.42 0 .72-.22.72-.67 0-.44-.3-.68-.72-.68zm-2.8 2.14v.77h2.33v4.16c0 .95-.36 1.28-1.28 1.28-.4 0-.89-.08-1.23-.22l-.22.78c.42.17 1.1.28 1.6.28 1.55 0 2.08-.67 2.08-2.1v-4.95zm0 0"/></symbol><symbol overflow="visible" id="e1aa5341J"><path d="M3.36.16c1.4 0 2.2-.6 2.2-1.57 0-.89-.54-1.22-1.47-1.39L3-3c-.67-.14-.86-.33-.86-.73 0-.5.4-.74 1.17-.74.83 0 1.19.27 1.27.8l.9-.05c-.12-1-.8-1.47-2.17-1.47-1.34 0-2.1.53-2.1 1.5 0 .81.45 1.22 1.52 1.44l1.04.2c.56.11.87.24.87.72 0 .52-.45.78-1.28.78-.95 0-1.36-.28-1.42-.87l-.9.06C1.07-.36 1.8.16 3.35.16zm0 0"/></symbol></defs><g fill="#fff"><use xlink:href="#e1aa5341a" x="43.35" y="115"/><use xlink:href="#e1aa5341b" x="86.91" y="115"/><use xlink:href="#e1aa5341c" x="140.25" y="115"/><use xlink:href="#e1aa5341d" x="174.21" y="115"/><use xlink:href="#e1aa5341e" x="190.83" y="115"/><use xlink:href="#e1aa5341f" x="205.53" y="115"/><use xlink:href="#e1aa5341g" x="240.45" y="115"/><use xlink:href="#e1aa5341h" x="274.77" y="115"/><use xlink:href="#e1aa5341i" x="291.39" y="115"/><use xlink:href="#e1aa5341h" x="330.99" y="115"/><use xlink:href="#e1aa5341e" x="347.61" y="115"/><use xlink:href="#e1aa5341a" x="362.31" y="115"/><use xlink:href="#e1aa5341h" x="405.87" y="115"/><g><use xlink:href="#e1aa5341j" x="422.49" y="115"/><use xlink:href="#e1aa5341k" x="479.13" y="115"/></g><g><use xlink:href="#e1aa5341l" x="479.13" y="115"/></g><g><use xlink:href="#e1aa5341c" x="522.69" y="115"/><use xlink:href="#e1aa5341e" x="556.65" y="115"/></g><g><use xlink:href="#e1aa5341m" x="182.58" y="195"/><use xlink:href="#e1aa5341n" x="219.9" y="195"/><use xlink:href="#e1aa5341o" x="219.9" y="195"/><use xlink:href="#e1aa5341d" x="262.92" y="195"/></g><g><use xlink:href="#e1aa5341p" x="279.54" y="195"/></g><g><use xlink:href="#e1aa5341q" x="321.36" y="195"/><use xlink:href="#e1aa5341h" x="350.22" y="195"/><use xlink:href="#e1aa5341c" x="366.84" y="195"/><use xlink:href="#e1aa5341h" x="400.8" y="195"/></g><g><use xlink:href="#e1aa5341r" x="186.6667" y="266"/><use xlink:href="#e1aa5341s" x="193.3337" y="266"/><use xlink:href="#e1aa5341t" x="200.0007" y="266"/><use xlink:href="#e1aa5341u" x="206.6677" y="266"/><use xlink:href="#e1aa5341v" x="213.3347" y="266"/><use xlink:href="#e1aa5341w" x="220.0017" y="266"/><use xlink:href="#e1aa5341s" x="226.6687" y="266"/><use xlink:href="#e1aa5341x" x="233.3357" y="266"/><use xlink:href="#e1aa5341y" x="240.0027" y="266"/><use xlink:href="#e1aa5341z" x="246.6697" y="266"/><use xlink:href="#e1aa5341y" x="253.3367" y="266"/><use xlink:href="#e1aa5341A" x="260.0037" y="266"/><use xlink:href="#e1aa5341B" x="266.6707" y="266"/><use xlink:href="#e1aa5341C" x="273.3377" y="266"/><use xlink:href="#e1aa5341s" x="280.0047" y="266"/><use xlink:href="#e1aa5341y" x="286.6717" y="266"/><use xlink:href="#e1aa5341w" x="293.3387" y="266"/><use xlink:href="#e1aa5341t" x="300.0057" y="266"/><use xlink:href="#e1aa5341D" x="306.6727" y="266"/><use xlink:href="#e1aa5341E" x="313.3397" y="266"/><use xlink:href="#e1aa5341s" x="320.0067" y="266"/><use xlink:href="#e1aa5341y" x="326.6737" y="266"/><use xlink:href="#e1aa5341F" x="333.3407" y="266"/><use xlink:href="#e1aa5341G" x="340.0077" y="266"/><use xlink:href="#e1aa5341y" x="346.6747" y="266"/><use xlink:href="#e1aa5341H" x="353.3417" y="266"/><use xlink:href="#e1aa5341F" x="360.0087" y="266"/><use xlink:href="#e1aa5341D" x="366.6757" y="266"/><use xlink:href="#e1aa5341I" x="373.3427" y="266"/><use xlink:href="#e1aa5341v" x="380.0097" y="266"/><use xlink:href="#e1aa5341D" x="386.6767" y="266"/><use xlink:href="#e1aa5341H" x="393.3437" y="266"/><use xlink:href="#e1aa5341u" x="400.0107" y="266"/><use xlink:href="#e1aa5341J" x="406.6777" y="266"/></g></g></svg>