<?xml version='1.0' encoding='UTF-8'?>
<svg xmlns="http://www.w3.org/2000/svg" xmlns:xlink="http://www.w3.org/1999/xlink" width="600px" height="300px" viewBox="0 0 600 300" x="0px" y="0px" enable-background="new 0 0 600 300"><defs><symbol overflow="visible" id="8c676076a"><path d="M20.81-8.94V-36.3h9.9c.56 2.35.85 5.1.98 7.5.89.3 2.1.43 3.17 0 .48-3.6.66-7.32.55-11.04l-.49-.43c-3.72.13-9.9.13-14.1.13h-5.27c-4.2 0-10.33 0-14.05-.13l-.55.43c-.1 3.65.13 7.43.61 11.04a4.8 4.8 0 003.17 0c.07-2.4.36-5.15.97-7.5h9.85v28.67c0 1.27-.07 2.54-.32 3.68-2.15.53-4.25.95-6.42 1.14 0 .95.13 1.9.55 2.87 3 0 5.7-.12 8.77-.12 2.28 0 6.65 0 8.64.12.36-.9.46-1.86.42-2.87a28.5 28.5 0 00-6.13-1.14 42.4 42.4 0 01-.25-4.99zm0 0"/></symbol><symbol overflow="visible" id="8c676076b"><path d="M15.72-29.05c-8.35 0-13.31 8.18-13.31 15.43C2.4-5.46 6.55.84 15.06.84c8.46 0 13.38-7.92 13.38-15.42 0-7.98-4.02-14.47-12.72-14.47zm.42 25.86c-6.3 0-8.52-6.47-8.52-11.81 0-3.9 1.38-7.02 3.07-8.81.72-.78 2.69-1.27 3.95-1.27 6.36 0 8.52 6.53 8.52 11.88 0 3.9-1.38 7.07-3.07 8.89-.65.72-2.68 1.12-3.95 1.12zm0 0"/></symbol><symbol overflow="visible" id="8c676076c"><path d="M1.14-25.2c1.56.18 3.36.48 4.67.65v16.86c0 5.47 1.57 8.53 5.64 8.53 3.32 0 6.61-1.26 9.2-2.89 0-1.08-.3-1.97-1.02-2.68-2.11.78-3.85 1.3-6 1.3-1.86 0-2.77-2.21-2.77-6.59v-14.53h9.23c.2-1.18.25-2.32.25-3.65l-9.48-.11v-7.92a10.24 10.24 0 00-3.23-.43L5.8-28.38c-1.5.07-3.36.3-4.8.66-.1.84-.1 1.74.13 2.52zm0 0"/></symbol><symbol overflow="visible" id="8c676076d"><path d="M28.8-2.22c0-.9-.36-1.69-.85-2.22-1.25.36-2.57.72-3.82.9a27.28 27.28 0 01-.36-4.68V-19.5c0-7.8-4.4-9.48-9.55-9.48-4.14 0-7.92 1.14-10.8 2.7 0 2.4.53 4.8 1.38 6.66 1.01.35 2.22.12 3.36-.43 0-1.67.06-3.23.36-4.86 1.62-.3 3.12-.4 5.04-.4 3.72 0 5.1 3.1 5.16 7.6C10.62-16.26 2.34-13 2.34-6.3 2.34-1.86 4.98.84 9.06.84c3 0 6.66-1.86 9.96-4.8.54 2.82 1.75 4.8 3 4.8C24.06.84 27-.59 28.8-2.22zM7.56-7.8c0-1.33.66-2.89 1.44-3.6.84-.72 5.05-1.97 9.72-2.52v6.78c-2.28 2.1-5.1 3.72-7.2 3.72-2.64 0-3.96-1.99-3.96-4.38zm0 0"/></symbol><symbol overflow="visible" id="8c676076e"><path d="M11.22-8.22v-20.05c0-6.59.06-11.15.23-17.15l-.47-.49c-3.42.25-7.07.97-9.78 1.93-.12.84-.06 1.62.24 2.34 1.56.19 3.19.48 4.75.9v33.72c0 1.2-.07 2.16-.25 3.43-1.2.36-3.13.78-4.8.95 0 .95.17 2.1.36 2.7 2.28 0 4.86-.12 7.27-.12 1.5 0 5.21.06 6.82.12.25-.54.36-1.86.36-2.7a17.18 17.18 0 00-4.54-1.02 52.4 52.4 0 01-.2-4.56zm0 0"/></symbol><symbol overflow="visible" id="8c676076f"><path d="M4.02-24.48a4.06 4.06 0 008.1 0c0-2.1-1.8-3.72-4.03-3.72-2.21 0-4.07 1.62-4.07 3.72zm0 21.36a4.06 4.06 0 008.1 0c0-2.1-1.8-3.72-4.03-3.72-2.21 0-4.07 1.62-4.07 3.71zm0 0"/></symbol><symbol overflow="visible" id="8c676076g"><path d="M29.58-11.52c0-3.9-3.72-6.9-9.13-9.6v-.18c4.57-2.4 7.5-5.57 7.5-9.65 0-4.33-3.82-8.28-10.9-8.28-5.4 0-12.36 4.18-12.36 11.03 0 3.42 3 6 7.6 8.51v.19c-6 3-8.74 6.48-8.74 10.73 0 6.43 4.43 9.79 11.75 9.79 8.22 0 14.28-5.52 14.28-12.54zM9.78-29.94a5.1 5.1 0 011.86-4.01 8.56 8.56 0 014.2-1.1c4.02 0 7.25 2.7 7.25 5.64 0 2.35-2.32 4.5-5.87 6.68-4.31-2.29-7.44-4.5-7.44-7.2zM8.45-9.84c0-3.07 2.53-5.94 7.27-8.04 4.73 2.46 8.7 4.93 8.7 8.1 0 1.92-.55 3.9-1.92 5.05-.6.53-3.23 1.6-6 1.6-3.55 0-8.05-1.67-8.05-6.71zm0 0"/></symbol><symbol overflow="visible" id="8c676076h"><path d="M14.4-20.05a7.44 7.44 0 017.68 7.7c0 2.63-.85 5.76-2.45 7.26-.72.65-3 1.67-5.35 1.67-1.62 0-3.3-.13-4.86-.49A43.04 43.04 0 018.1-10.8a5.1 5.1 0 00-3.17.3 61.84 61.84 0 00-.6 9.36 24.14 24.14 0 009.3 1.98c7.68 0 13.86-6.12 13.86-14.64 0-5.76-4.43-10.32-11.34-10.32-1.8 0-3.36.18-5.22.67v-10.7h14.4c.41-1.13.6-2.27.6-3.65l-.48-.42c-4.08 0-8.16.06-12.13.06H6.48l-.48.47v18.78l.48.49a22.3 22.3 0 017.93-1.63zm0 0"/></symbol><symbol overflow="visible" id="8c676076i"><path d="M3.48-33.6H9.3v26.23c0 1.18-.11 2.28-.3 3.35-2.1.54-4.02.9-6.06 1.14 0 .9.12 1.97.54 2.94 2.82 0 5.46-.12 8.4-.12 2.28 0 6.42 0 8.28.12.36-.9.48-1.98.42-3a29.6 29.6 0 00-5.77-1.08c-.17-1.5-.23-2.93-.23-4.62v-30l-.49-.48c-4.07.6-7.8 1.56-11.15 3a4.15 4.15 0 00.54 2.53zm0 0"/></symbol><symbol overflow="visible" id="8c676076j"><path d="M25.5-36.36a3.77 3.77 0 00-.66-3C8.1-37.14 3.24-26.64 3.24-15.66c0 6.9 2.88 16.68 12.18 16.68 6.78 0 13.27-4.93 13.27-13.97 0-6-4.27-10.75-10.27-10.75-3.19 0-6.19 1.07-9.6 4.32H8.7c.36-8.7 5.46-14.76 16.8-16.98zm-9.06 17.22c4.26 0 7.33 3.23 7.33 7.69 0 2.87-.85 5.45-2.47 7.01a7.89 7.89 0 01-4.2 1.2c-5.04 0-7.8-5.46-8.33-12.67 2.28-1.8 5.09-3.23 7.67-3.23zm0 0"/></symbol><symbol overflow="visible" id="8c676076k"><path d="M3.83 0v-5.95H6.2v-.82H.45v.82h2.4V0zm0 0"/></symbol><symbol overflow="visible" id="8c676076l"><path d="M5.75-2.23v-.43c0-1.6-.9-2.51-2.42-2.51S.87-4.16.87-2.48c0 1.71.91 2.62 2.5 2.62 1.43 0 2.07-.56 2.29-1.52l-.9-.09c-.18.61-.59.9-1.35.9-.94 0-1.52-.54-1.58-1.66zm-2.4-2.2c.93 0 1.43.5 1.48 1.55H1.84c.08-1.07.6-1.56 1.5-1.56zm0 0"/></symbol><symbol overflow="visible" id="8c676076m"><path d="M1.83 0l1.42-2h.06l1.46 2H5.8L4-2.53l1.78-2.49H4.8L3.42-3.08h-.08l-1.4-1.94H.89l1.78 2.49L.84 0zm0 0"/></symbol><symbol overflow="visible" id="8c676076n"><path d="M5.52-4.25v-.77H3.17v-1.56h-.81l-.14 1.56H.75v.77h1.47v2.4c0 1.3.48 1.94 1.84 1.94C4.6.1 5.14 0 5.55-.14L5.4-.91c-.32.13-.72.2-1.13.2-.8 0-1.1-.37-1.1-1.23v-2.31zm0 0"/></symbol><symbol overflow="visible" id="8c676076o"><path d="M3.33-3.42c.47 0 .8-.27.8-.8 0-.51-.33-.8-.8-.8-.47 0-.8.29-.8.8 0 .53.33.8.8.8zm0 3.5c.47 0 .8-.27.8-.78 0-.53-.33-.82-.8-.82-.47 0-.8.29-.8.82 0 .51.33.78.8.78zm0 0"/></symbol><symbol overflow="visible" id="8c676076q"><path d="M3.33.14c1.62 0 2.5-.95 2.5-2.66 0-1.68-.88-2.64-2.5-2.64-1.63 0-2.5.96-2.5 2.64 0 1.7.87 2.66 2.5 2.66zm0-.77c-1.06 0-1.52-.6-1.52-1.89 0-1.28.46-1.87 1.52-1.87 1.08 0 1.53.6 1.53 1.87 0 1.29-.45 1.9-1.53 1.9zm0 0"/></symbol><symbol overflow="visible" id="8c676076r"><path d="M2.83.14c.94 0 1.5-.39 1.81-.95h.08l.1.81h.76v-3.38c0-1.23-.69-1.8-2.13-1.8-1.43 0-2.03.65-2.18 1.6l.93.1c.11-.6.44-.93 1.22-.93.85 0 1.22.32 1.22 1.04v.34l-1.81.2C1.6-2.7 1.1-2.17 1.1-1.28c0 .92.64 1.42 1.72 1.42zm.25-.77c-.67 0-1.02-.28-1.02-.74 0-.44.28-.72 1-.82l1.58-.19v.41c0 .8-.6 1.34-1.56 1.34zm0 0"/></symbol><symbol overflow="visible" id="8c676076s"><path d="M3.92-7.14H1.36v.76h1.6v5.61H1.15V0H5.7v-.77H3.92zm0 0"/></symbol><symbol overflow="visible" id="8c676076t"><path d="M3.33.16c1.69 0 2.69-.74 2.69-1.94 0-1.05-.8-1.58-1.43-1.72v-.05c.5-.14 1.2-.58 1.2-1.56 0-1.12-.95-1.81-2.46-1.81-1.52 0-2.46.69-2.46 1.81 0 .97.68 1.4 1.18 1.56v.05c-.6.14-1.4.64-1.4 1.72 0 1.2 1 1.94 2.68 1.94zm0-4.04c-.97 0-1.49-.43-1.49-1.12 0-.78.52-1.1 1.49-1.1.95 0 1.48.32 1.48 1.1 0 .69-.53 1.13-1.48 1.13zm0 3.24c-1.1 0-1.7-.42-1.7-1.25 0-.78.6-1.2 1.7-1.2s1.7.42 1.7 1.2c0 .83-.6 1.25-1.7 1.25zm0 0"/></symbol><symbol overflow="visible" id="8c676076u"><path d="M3.42.14c1.55 0 2.44-.84 2.44-2.33 0-1.45-.83-2.22-2.14-2.22-.75 0-1.28.27-1.67.72H2l.31-2.22h3.11v-.86H1.53l-.45 3.93h.81c.3-.36.9-.79 1.58-.79.92 0 1.44.43 1.44 1.47 0 .99-.54 1.5-1.49 1.5-.83 0-1.28-.32-1.5-1.01l-.95.1C1.07-.46 2 .13 3.42.13zm0 0"/></symbol><symbol overflow="visible" id="8c676076v"><path d="M4.22-6.77h-.86l-2.03.7v.87c.64-.17 1.26-.38 1.89-.55v4.9H1.03V0h4.9v-.86H4.21zm0 0"/></symbol><symbol overflow="visible" id="8c676076w"><path d="M3.42.14c1.58 0 2.49-.86 2.49-2.3 0-1.42-.86-2.17-2.22-2.17-1.03 0-1.58.5-1.9 1.02h-.04c.03-1.63.4-2.77 1.73-2.77.91 0 1.24.44 1.36.96l.97-.11c-.23-.96-.86-1.68-2.33-1.68C1.84-6.9.86-5.86.86-3.1.86-.9 1.78.14 3.42.14zm.02-.78c-.9 0-1.47-.55-1.47-1.47 0-.9.7-1.47 1.53-1.47.92 0 1.47.52 1.47 1.47 0 .97-.6 1.47-1.53 1.47zm0 0"/></symbol><symbol overflow="visible" id="8c676076x"><path d="M5.95-6.77H1.1V0h.99v-2.92H5.3v-.77H2.08v-2.26h3.87zm0 0"/></symbol><symbol overflow="visible" id="8c676076y"><path d="M2.73.14c.9 0 1.43-.45 1.74-1.08h.06l.13.94h.8v-5.02h-.94v2.7c0 .98-.57 1.62-1.46 1.62-.75 0-1.1-.4-1.1-1.22v-3.1h-.93v3.32c0 1.17.55 1.84 1.7 1.84zm0 0"/></symbol><symbol overflow="visible" id="8c676076z"><path d="M5.08-5.16c-.94 0-1.58.43-1.9 1.3h-.09l-.07-1.16H1.05v.77h1.1v3.48H.96V0h3.96v-.77H3.1v-1.46c0-1.36.6-2.05 1.83-2.05.4 0 .76.08 1.1.17l.15-.87c-.33-.11-.7-.18-1.11-.18zm0 0"/></symbol><symbol overflow="visible" id="8c676076A"><path d="M1.84 0v-4.48l-.06-.99h.1L4.46 0h1.28v-6.77h-.92v4.4l.06 1.03h-.1L2.21-6.77H.92V0zm0 0"/></symbol><symbol overflow="visible" id="8c676076B"><path d="M1.63 0v-2.9c0-.8.15-1.4.71-1.4.41 0 .55.3.55.88V0h.95v-2.9c0-.8.18-1.4.72-1.4.4 0 .57.3.57.88V0h.95v-3.63c0-.92-.28-1.53-1.11-1.53-.63 0-.95.41-1.1.9h-.06c-.1-.52-.44-.9-1.08-.9-.6 0-.93.41-1.06.9H1.6l-.23-.76H.67V0zm0 0"/></symbol><symbol overflow="visible" id="8c676076C"><path d="M3.36.16c1.4 0 2.2-.6 2.2-1.57 0-.89-.54-1.22-1.47-1.39L3-3c-.67-.14-.86-.33-.86-.73 0-.5.4-.74 1.17-.74.83 0 1.19.27 1.27.8l.9-.05c-.12-1-.8-1.47-2.17-1.47-1.34 0-2.1.53-2.1 1.5 0 .81.45 1.22 1.52 1.44l1.04.2c.56.11.87.24.87.72 0 .52-.45.78-1.28.78-.95 0-1.36-.28-1.42-.87l-.9.06C1.07-.36 1.8.16 3.35.16zm0 0"/></symbol><symbol overflow="visible" id="8c676076D"><path d="M3.58-5.81c.42 0 .72-.22.72-.67 0-.44-.3-.68-.72-.68-.44 0-.72.24-.72.68 0 .45.28.67.72.67zm.5.8H1.52v.76h1.6v3.48h-1.8V0h4.46v-.77h-1.7zm0 0"/></symbol><symbol overflow="visible" id="8c676076E"><path d="M3.16 2.03c1.67 0 2.4-.86 2.4-2.51v-4.54h-.81l-.13.91h-.06c-.26-.58-.8-1.05-1.73-1.05-1.42 0-2.24 1-2.24 2.52 0 1.6.75 2.56 2.2 2.56.94 0 1.5-.5 1.77-1.03h.05v.72c0 1.17-.42 1.67-1.45 1.67-.93 0-1.3-.34-1.41-.89L.8.5c.12.96.87 1.54 2.36 1.54zM3.06-.8c-.98 0-1.48-.57-1.48-1.82 0-1.13.5-1.75 1.48-1.75 1.06 0 1.58.76 1.58 1.75 0 .95-.56 1.82-1.58 1.82zm0 0"/></symbol><symbol overflow="visible" id="8c676076F"><path d="M2.16 0v-2.67c0-.99.59-1.63 1.46-1.63.74 0 1.07.38 1.07 1.22V0h.95v-3.31c0-1.2-.56-1.85-1.67-1.85-.92 0-1.49.46-1.77 1.08h-.06l-.12-.94H1.2V0zm0 0"/></symbol><symbol overflow="visible" id="8c676076G"><path d="M2.84.14C3.8.14 4.33-.26 4.6-.9h.07L4.8 0h.76v-7.14h-.95v2.95h-.08c-.28-.6-.86-.97-1.67-.97-1.48 0-2.27.99-2.27 2.64C.6-.84 1.36.14 2.84.14zm.22-.8c-.98 0-1.48-.59-1.48-1.84s.5-1.86 1.48-1.86c1.13 0 1.58.8 1.58 1.86S4.2-.66 3.06-.66zm0 0"/></symbol><symbol overflow="visible" id="8c676076H"><path d="M2.44 0l.87-3.31h.06L4.25 0H5.3l1.03-5.02h-.88l-.73 3.94h-.08L3.77-4.4h-.85l-.87 3.33h-.08l-.75-3.94H.34L1.36 0zm0 0"/></symbol><symbol overflow="visible" id="8c676076I"><path d="M2.16 0v-2.69c0-.98.6-1.6 1.46-1.6.74 0 1.07.4 1.07 1.2V0h.95v-3.31c0-1.17-.56-1.85-1.67-1.85-.9 0-1.44.46-1.75 1.08h-.06v-3.06H1.2V0zm0 0"/></symbol><symbol overflow="visible" id="8c676076J"><path d="M3.55-2.73h1.67C5.09-1.45 4.58-.64 3.36-.64c-1.25 0-1.78-1.03-1.78-2.73 0-1.77.53-2.72 1.81-2.72.9 0 1.47.45 1.69 1.43l.95-.09C5.8-6 5.11-6.91 3.41-6.91 1.44-6.9.58-5.59.58-3.37.58-1.2 1.4.13 3.14.13c1.3 0 1.78-.73 2-1.36h.1L5.33 0h.75v-3.42H3.55zm0 0"/></symbol><symbol overflow="visible" id="8c676076K"><path d="M4.14-7.16c-.44 0-.72.24-.72.68 0 .45.28.67.72.67.42 0 .72-.22.72-.67 0-.44-.3-.68-.72-.68zm-2.8 2.14v.77h2.33v4.16c0 .95-.36 1.28-1.28 1.28-.4 0-.89-.08-1.23-.22l-.22.78c.42.17 1.1.28 1.6.28 1.55 0 2.08-.67 2.08-2.1v-4.95zm0 0"/></symbol><symbol overflow="visible" id="8c676076L"><path d="M1.45-2.95c0 2.56 1.08 4.37 3.67 4.84l.11-.67C3.28.86 2.43-.75 2.43-2.95s.85-3.82 2.8-4.16l-.1-.69c-2.6.49-3.68 2.3-3.68 4.85zm0 0"/></symbol><symbol overflow="visible" id="8c676076M"><path d="M4.63-6.5c.45 0 .98.08 1.39.2l.2-.72a5.3 5.3 0 00-1.64-.26c-1.52 0-2.16.56-2.16 1.87v.4H.9v.76h1.53V0h.94v-4.25h2.53v-.77H3.36v-.3c0-.84.33-1.18 1.27-1.18zm0 0"/></symbol><symbol overflow="visible" id="8c676076N"><path d="M1.45-7.1c1.96.33 2.8 1.94 2.8 4.15 0 2.2-.84 3.8-2.8 4.17l.11.67c2.58-.47 3.67-2.28 3.67-4.84 0-2.55-1.09-4.36-3.67-4.85zm0 0"/></symbol></defs><g fill="#515151"><use xlink:href="#8c676076a" x="159" y="148"/><use xlink:href="#8c676076b" x="195.36" y="148"/><use xlink:href="#8c676076c" x="226.14" y="148"/><use xlink:href="#8c676076d" x="247.08" y="148"/><use xlink:href="#8c676076e" x="276.54" y="148"/></g><use xlink:href="#8c676076f" x="293.82" y="148" fill="#515151"/><use xlink:href="#8c676076g" x="322.8" y="148" fill="#fff"/><use xlink:href="#8c676076h" x="355.68" y="148" fill="#fff"/><use xlink:href="#8c676076i" x="386.76" y="148" fill="#fff"/><use xlink:href="#8c676076j" x="409.56" y="148" fill="#fff"/><g fill="#fff"><use xlink:href="#8c676076k" x="243.3333" y="252"/><use xlink:href="#8c676076l" x="250.0003" y="252"/><use xlink:href="#8c676076m" x="256.6673" y="252"/><use xlink:href="#8c676076n" x="263.3343" y="252"/><use xlink:href="#8c676076o" x="270.0013" y="252"/><use xlink:href="#8c676076p" x="276.6683" y="252"/><use xlink:href="#8c676076k" x="283.3353" y="252"/><use xlink:href="#8c676076q" x="290.0023" y="252"/><use xlink:href="#8c676076n" x="296.6693" y="252"/><use xlink:href="#8c676076r" x="303.3363" y="252"/><use xlink:href="#8c676076s" x="310.0033" y="252"/><use xlink:href="#8c676076o" x="316.6703" y="252"/><use xlink:href="#8c676076p" x="323.3373" y="252"/><use xlink:href="#8c676076t" x="330.0043" y="252"/><use xlink:href="#8c676076u" x="336.6713" y="252"/><use xlink:href="#8c676076v" x="343.3383" y="252"/><use xlink:href="#8c676076w" x="350.0053" y="252"/></g><g fill="#fff"><use xlink:href="#8c676076x" x="136.6667" y="266"/><use xlink:href="#8c676076l" x="143.3337" y="266"/><use xlink:href="#8c676076r" x="150.0007" y="266"/><use xlink:href="#8c676076n" x="156.6677" y="266"/><use xlink:href="#8c676076y" x="163.3347" y="266"/><use xlink:href="#8c676076z" x="170.0017" y="266"/><use xlink:href="#8c676076l" x="176.6687" y="266"/><use xlink:href="#8c676076o" x="183.3357" y="266"/><use xlink:href="#8c676076p" x="190.0027" y="266"/><use xlink:href="#8c676076A" x="196.6697" y="266"/><use xlink:href="#8c676076y" x="203.3367" y="266"/><use xlink:href="#8c676076B" x="210.0037" y="266"/><use xlink:href="#8c676076l" x="216.6707" y="266"/><use xlink:href="#8c676076z" x="223.3377" y="266"/><use xlink:href="#8c676076r" x="230.0047" y="266"/><use xlink:href="#8c676076s" x="236.6717" y="266"/><use xlink:href="#8c676076C" x="243.3387" y="266"/><use xlink:href="#8c676076p" x="250.0057" y="266"/><use xlink:href="#8c676076r" x="256.6727" y="266"/><use xlink:href="#8c676076s" x="263.3397" y="266"/><use xlink:href="#8c676076D" x="270.0067" y="266"/><use xlink:href="#8c676076E" x="276.6737" y="266"/><use xlink:href="#8c676076F" x="283.3407" y="266"/><use xlink:href="#8c676076l" x="290.0077" y="266"/><use xlink:href="#8c676076G" x="296.6747" y="266"/><use xlink:href="#8c676076p" x="303.3417" y="266"/><use xlink:href="#8c676076H" x="310.0087" y="266"/><use xlink:href="#8c676076D" x="316.6757" y="266"/><use xlink:href="#8c676076n" x="323.3427" y="266"/><use xlink:href="#8c676076I" x="330.0097" y="266"/><use xlink:href="#8c676076p" x="336.6767" y="266"/><use xlink:href="#8c676076J" x="343.3437" y="266"/><use xlink:href="#8c676076y" x="350.0107" y="266"/><use xlink:href="#8c676076K" x="356.6777" y="266"/><use xlink:href="#8c676076r" x="363.3447" y="266"/><use xlink:href="#8c676076z" x="370.0117" y="266"/><use xlink:href="#8c676076r" x="376.6787" y="266"/><use xlink:href="#8c676076n" x="383.3457" y="266"/><use xlink:href="#8c676076D" x="390.0127" y="266"/><use xlink:href="#8c676076p" x="396.6797" y="266"/><use xlink:href="#8c676076L" x="403.3467" y="266"/><use xlink:href="#8c676076G" x="410.0137" y="266"/><use xlink:href="#8c676076l" x="416.6807" y="266"/><use xlink:href="#8c676076M" x="423.3477" y="266"/><use xlink:href="#8c676076r" x="430.0147" y="266"/><use xlink:href="#8c676076y" x="436.6817" y="266"/><use xlink:href="#8c676076s" x="443.3487" y="266"/><use xlink:href="#8c676076n" x="450.0157" y="266"/><use xlink:href="#8c676076N" x="456.6827" y="266"/></g></svg>