<?xml version='1.0' encoding='UTF-8'?>
<svg xmlns="http://www.w3.org/2000/svg" xmlns:xlink="http://www.w3.org/1999/xlink" width="600px" height="300px" viewBox="0 0 600 300" x="0px" y="0px" enable-background="new 0 0 600 300"><defs><symbol overflow="visible" id="b71d8112a"><path d="M23.58-8.52c0-4.43-2.1-8.89-5.16-13.03l10.74-10.97a7.93 7.93 0 00-3-3.18h-.6L15.3-25.37A47.24 47.24 0 001.86-35.81a6.75 6.75 0 00-3.17 3.65l.1.53c5.71 2.65 10.4 5.7 13.8 9-4.54 4.86-6.4 8.47-6.4 12.49C6.19-3.66 10.92.84 16.02.84c4.86 0 7.56-4.39 7.56-9.36zM14.45-3.3c-.76 0-1.8-.18-2.45-.97-.72-.95-1.14-2.8-1.14-4.54 0-3.25 1.73-6.78 4.92-10.03 2.03 2.89 3.13 5.93 3.13 9.06 0 4.01-1.82 6.48-4.46 6.48zm0 0"/></symbol><symbol overflow="visible" id="b71d8112b"><path d="M6.19-35.64c-2.11 0-5.28.9-6.9 2.1-.5.35-.73.77-.73 1.2 0 .78 1.02 2.15 2.35 3.3h.53a17.13 17.13 0 013.42-3.18h.12c.11 1.56.24 3.24.24 4.99v6.71c0 7.8 5.1 12.96 10.69 12.96 1.86 0 4.18-.53 5.8-1.5l.13.06v.6c0 5.46 1.32 9.12 4.25 9.12 2.29 0 5.54-1.14 7.46-2.77.47-.3.72-.72.72-1.14 0-.83-1.04-2.22-2.35-3.36h-.48a22.04 22.04 0 01-4.02 3.85h-.12a22.26 22.26 0 01-.53-4.99v-26.26a16.2 16.2 0 00-4.7-1.7l-.48.43c.2 3.6.25 7.63.25 11.81v8.18a8.57 8.57 0 01-6.9 3.46c-1.44 0-2.75-.42-3.49-1.43-1.01-1.25-1.37-3.72-1.37-6.72v-6.6c0-5.46-1.14-9.12-3.9-9.12zm0 0"/></symbol><symbol overflow="visible" id="b71d8112c"><path d="M5.77-24.78c0 6.9 6.42 12.78 13.5 12.78.53 0 1.01-.06 1.54-.13a8.94 8.94 0 011.2 4.04c0 3.04-2.93 4.67-6.06 4.67-5.26 0-9.6-4.63-12.23-8.77a5.12 5.12 0 00-2.58 1.81C5.04-3.22 10.44.85 16.74.85c5.04 0 10.2-2.64 10.2-7.43 0-2.29-1.14-4.46-2.82-6.36 1.97-.85 3.3-2.24 3.3-3.61 0-2.52-4.08-6.13-6.97-6.13-1.6 0-3.04 1.1-3.04 3.32 0 .95.3 2.03.78 3.06-.49.04-.9.1-1.33.1a5.6 5.6 0 01-4.02-1.5 8.38 8.38 0 01-2.21-5.57c0-4.02 3.23-7.2 9.17-8.22l.48-.48a5.86 5.86 0 00-1.86-3.9c-7.69.83-12.65 5.1-12.65 11.1zm0 0"/></symbol><symbol overflow="visible" id="b71d8112d"><path d="M3.72-16.38c-1.14.18-2.35.6-3 1.25C3.3-6 8.34.85 16.92.85c8.64 0 14.81-6.84 14.81-16.2 0-8.87-5.51-20.4-14.64-20.4-5.09 0-9.3 3.67-9.3 8.34 0 4.92 4.7 9.72 9.79 9.72 3.65 0 6.6-2.46 6.84-6.6.06-.65.06-1.32 0-2.34l.24-.13a22.74 22.74 0 012.15 9.79c0 8.1-4.97 13.56-10.86 13.56-6.3 0-10.01-6-12.23-12.96zm9.48-6.84a5.73 5.73 0 01-.65-2.83 5.39 5.39 0 015.51-5.51c.9 0 1.74.18 2.52.54.48 1.5.6 2.88.6 3.83 0 3.55-1.87 5.4-4.87 5.4-1.5 0-2.58-.48-3.1-1.43zm0 0"/></symbol><symbol overflow="visible" id="b71d8112e"><path d="M18.72-35.81L5.45-18.3c-2.33 3.07-3.17 5.52-3.17 7.86C2.28-3.9 8.94.84 14.77.84c3.82 0 7.73-1.92 10.54-5.7a11.83 11.83 0 00-2.87-3.55h-.6c-2.89 3.68-5.82 5.18-8.46 5.18-1.61 0-3.18-.49-4.15-1.27a6.5 6.5 0 01-1.92-4.73c0-2.05.78-4.14 2.7-6.61l12.97-16.74a9.13 9.13 0 00-4.26-3.23zm0 0"/></symbol><symbol overflow="visible" id="b71d8112f"><path d="M3.83 0v-5.95H6.2v-.82H.45v.82h2.4V0zm0 0"/></symbol><symbol overflow="visible" id="b71d8112g"><path d="M5.75-2.23v-.43c0-1.6-.9-2.51-2.42-2.51S.87-4.16.87-2.48c0 1.71.91 2.62 2.5 2.62 1.43 0 2.07-.56 2.29-1.52l-.9-.09c-.18.61-.59.9-1.35.9-.94 0-1.52-.54-1.58-1.66zm-2.4-2.2c.93 0 1.43.5 1.48 1.55H1.84c.08-1.07.6-1.56 1.5-1.56zm0 0"/></symbol><symbol overflow="visible" id="b71d8112h"><path d="M1.83 0l1.42-2h.06l1.46 2H5.8L4-2.53l1.78-2.49H4.8L3.42-3.08h-.08l-1.4-1.94H.89l1.78 2.49L.84 0zm0 0"/></symbol><symbol overflow="visible" id="b71d8112i"><path d="M5.52-4.25v-.77H3.17v-1.56h-.81l-.14 1.56H.75v.77h1.47v2.4c0 1.3.48 1.94 1.84 1.94C4.6.1 5.14 0 5.55-.14L5.4-.91c-.32.13-.72.2-1.13.2-.8 0-1.1-.37-1.1-1.23v-2.31zm0 0"/></symbol><symbol overflow="visible" id="b71d8112j"><path d="M3.33-3.42c.47 0 .8-.27.8-.8 0-.51-.33-.8-.8-.8-.47 0-.8.29-.8.8 0 .53.33.8.8.8zm0 3.5c.47 0 .8-.27.8-.78 0-.53-.33-.82-.8-.82-.47 0-.8.29-.8.82 0 .51.33.78.8.78zm0 0"/></symbol><symbol overflow="visible" id="b71d8112q"><path d="M5.95-6.77H1.1V0h.99v-2.92H5.3v-.77H2.08v-2.26h3.87zm0 0"/></symbol><symbol overflow="visible" id="b71d8112r"><path d="M2.83.14c.94 0 1.5-.39 1.81-.95h.08l.1.81h.76v-3.38c0-1.23-.69-1.8-2.13-1.8-1.43 0-2.03.65-2.18 1.6l.93.1c.11-.6.44-.93 1.22-.93.85 0 1.22.32 1.22 1.04v.34l-1.81.2C1.6-2.7 1.1-2.17 1.1-1.28c0 .92.64 1.42 1.72 1.42zm.25-.77c-.67 0-1.02-.28-1.02-.74 0-.44.28-.72 1-.82l1.58-.19v.41c0 .8-.6 1.34-1.56 1.34zm0 0"/></symbol><symbol overflow="visible" id="b71d8112s"><path d="M2.73.14c.9 0 1.43-.45 1.74-1.08h.06l.13.94h.8v-5.02h-.94v2.7c0 .98-.57 1.62-1.46 1.62-.75 0-1.1-.4-1.1-1.22v-3.1h-.93v3.32c0 1.17.55 1.84 1.7 1.84zm0 0"/></symbol><symbol overflow="visible" id="b71d8112t"><path d="M5.08-5.16c-.94 0-1.58.43-1.9 1.3h-.09l-.07-1.16H1.05v.77h1.1v3.48H.96V0h3.96v-.77H3.1v-1.46c0-1.36.6-2.05 1.83-2.05.4 0 .76.08 1.1.17l.15-.87c-.33-.11-.7-.18-1.11-.18zm0 0"/></symbol><symbol overflow="visible" id="b71d8112u"><path d="M6.17 0L3.98-6.77h-1.3L.5 0h.97l.44-1.47h2.78L5.16 0zM3.28-5.94h.08l1.1 3.74H2.15zm0 0"/></symbol><symbol overflow="visible" id="b71d8112v"><path d="M3.92-7.14H1.36v.76h1.6v5.61H1.15V0H5.7v-.77H3.92zm0 0"/></symbol><symbol overflow="visible" id="b71d8112w"><path d="M2.16 0v-2.67c0-.99.59-1.63 1.46-1.63.74 0 1.07.38 1.07 1.22V0h.95v-3.31c0-1.2-.56-1.85-1.67-1.85-.92 0-1.49.46-1.77 1.08h-.06l-.12-.94H1.2V0zm0 0"/></symbol><symbol overflow="visible" id="b71d8112x"><path d="M3.58-5.81c.42 0 .72-.22.72-.67 0-.44-.3-.68-.72-.68-.44 0-.72.24-.72.68 0 .45.28.67.72.67zm.5.8H1.52v.76h1.6v3.48h-1.8V0h4.46v-.77h-1.7zm0 0"/></symbol><symbol overflow="visible" id="b71d8112y"><path d="M3.9 0l2-5.02h-.96L3.4-.94h-.07L1.8-5.02H.77L2.78 0zm0 0"/></symbol><symbol overflow="visible" id="b71d8112z"><path d="M3.55-2.73h1.67C5.09-1.45 4.58-.64 3.36-.64c-1.25 0-1.78-1.03-1.78-2.73 0-1.77.53-2.72 1.81-2.72.9 0 1.47.45 1.69 1.43l.95-.09C5.8-6 5.11-6.91 3.41-6.91 1.44-6.9.58-5.59.58-3.37.58-1.2 1.4.13 3.14.13c1.3 0 1.78-.73 2-1.36h.1L5.33 0h.75v-3.42H3.55zm0 0"/></symbol><symbol overflow="visible" id="b71d8112A"><path d="M4.14-7.16c-.44 0-.72.24-.72.68 0 .45.28.67.72.67.42 0 .72-.22.72-.67 0-.44-.3-.68-.72-.68zm-2.8 2.14v.77h2.33v4.16c0 .95-.36 1.28-1.28 1.28-.4 0-.89-.08-1.23-.22l-.22.78c.42.17 1.1.28 1.6.28 1.55 0 2.08-.67 2.08-2.1v-4.95zm0 0"/></symbol><symbol overflow="visible" id="b71d8112B"><path d="M3.42.14c1.58 0 2.49-.86 2.49-2.3 0-1.42-.86-2.17-2.22-2.17-1.03 0-1.58.5-1.9 1.02h-.04c.03-1.63.4-2.77 1.73-2.77.91 0 1.24.44 1.36.96l.97-.11c-.23-.96-.86-1.68-2.33-1.68C1.84-6.9.86-5.86.86-3.1.86-.9 1.78.14 3.42.14zm.02-.78c-.9 0-1.47-.55-1.47-1.47 0-.9.7-1.47 1.53-1.47.92 0 1.47.52 1.47 1.47 0 .97-.6 1.47-1.53 1.47zm0 0"/></symbol><symbol overflow="visible" id="b71d8112C"><path d="M1.45-2.95c0 2.56 1.08 4.37 3.67 4.84l.11-.67C3.28.86 2.43-.75 2.43-2.95s.85-3.82 2.8-4.16l-.1-.69c-2.6.49-3.68 2.3-3.68 4.85zm0 0"/></symbol><symbol overflow="visible" id="b71d8112D"><path d="M3.36.16c1.4 0 2.2-.6 2.2-1.57 0-.89-.54-1.22-1.47-1.39L3-3c-.67-.14-.86-.33-.86-.73 0-.5.4-.74 1.17-.74.83 0 1.19.27 1.27.8l.9-.05c-.12-1-.8-1.47-2.17-1.47-1.34 0-2.1.53-2.1 1.5 0 .81.45 1.22 1.52 1.44l1.04.2c.56.11.87.24.87.72 0 .52-.45.78-1.28.78-.95 0-1.36-.28-1.42-.87l-.9.06C1.07-.36 1.8.16 3.35.16zm0 0"/></symbol><symbol overflow="visible" id="b71d8112E"><path d="M3.33.14c1.65 0 2.6-1.1 2.6-3.52S4.99-6.9 3.34-6.9C1.67-6.9.72-5.8.72-3.37c0 2.4.95 3.51 2.6 3.51zm0-.84c-1.13 0-1.6-.85-1.6-2.67 0-1.86.47-2.7 1.6-2.7 1.12 0 1.6.84 1.6 2.7 0 1.82-.48 2.67-1.6 2.67zM3.3-2.64c.38 0 .56-.28.56-.72 0-.44-.18-.7-.56-.7-.39 0-.56.26-.56.7 0 .44.17.72.56.72zm0 0"/></symbol><symbol overflow="visible" id="b71d8112F"><path d="M5.67 0v-.86H2.14V-.9L3.6-2c1.05-.83 2-1.68 2-2.91 0-1.19-.73-1.99-2.26-1.99-1.66 0-2.3 1.02-2.44 2.33l1 .08c.1-.92.42-1.58 1.44-1.58.87 0 1.26.44 1.26 1.24 0 .9-.8 1.53-1.96 2.53L.83-.81V0zm0 0"/></symbol><symbol overflow="visible" id="b71d8112G"><path d="M1.45-7.1c1.96.33 2.8 1.94 2.8 4.15 0 2.2-.84 3.8-2.8 4.17l.11.67c2.58-.47 3.67-2.28 3.67-4.84 0-2.55-1.09-4.36-3.67-4.85zm0 0"/></symbol><symbol overflow="visible" id="b71d8112l"><path d="M.88-1.63c0 .86.67 1.61 1.8 1.61 1.12 0 1.77-.75 1.77-1.6 0-.72-.39-1.29-.97-1.86l-.21-.24 1.71-1.76-.6-.58-1.7 1.75L.94-6.06l-.6.58 1.73 1.76-.22.24c-.58.57-.99 1.14-.99 1.85zm1.8.82c-.59 0-.91-.38-.91-.81 0-.32.09-.68.85-1.44l.05-.06.05.06c.76.76.84 1.12.84 1.44 0 .43-.33.8-.89.8zm0 0"/></symbol><symbol overflow="visible" id="b71d8112m"><path d="M4.73.08c.2 0 .38-.03.57-.11v-.72c-.1.02-.17.02-.25.02-.3 0-.44-.13-.44-.46v-4.75h-.92v2.27c-.05.78-.42 1.15-1.06 1.15-.61 0-.9-.28-.9-1.09v-1.16c0-.8-.43-1.18-1.01-1.18-.22 0-.4.04-.6.1v.79c.11-.03.2-.05.29-.05.3 0 .4.16.4.45v1.32c0 1 .56 1.67 1.66 1.67.62 0 .97-.27 1.17-.6h.05v1.11c0 .78.36 1.24 1.04 1.24zm0 0"/></symbol><symbol overflow="visible" id="b71d8112n"><path d="M3.45.66c.1-.11.17-.24.17-.43 0-.71-2.87-.6-2.87-2.3 0-.6.4-1.02 1.19-1.16v-.04c-.56-.1-1.2-.46-1.2-1.25 0-.86.78-1.46 2.18-1.46.6 0 1.14.14 1.56.32l-.36.77c-.3-.16-.8-.27-1.25-.27-.75 0-1.15.25-1.15.72 0 .57.58.83 1.48.83h.74v.84H2.92c-.78 0-1.14.29-1.14.7 0 .98 2.81.91 2.81 2.16 0 .29-.07.47-.15.6h-.99zm0 0"/></symbol><symbol overflow="visible" id="b71d8112o"><path d="M.33-5.63C.48-2.69 1.56-.45 3.77-.45c1.35 0 2.35-1.05 2.35-2.9 0-1.71-.9-2.67-2.06-2.67-.9 0-1.6.7-1.6 1.6 0 1.01.8 1.83 2.06 1.73l.25-.75c-.77.06-1.4-.25-1.4-.97 0-.5.32-.76.74-.76.62 0 1.14.65 1.14 1.84 0 1.27-.56 2.02-1.5 2.02-1.52 0-2.42-1.81-2.5-4.52zm0 0"/></symbol><symbol overflow="visible" id="b71d8112p"><path d="M3.48-5.95l-2.2 2.2c-.44.44-.92.95-.92 1.73 0 1.2 1.08 1.97 2.42 1.97.95 0 1.52-.3 1.83-.56l-.42-.78c-.33.26-.85.48-1.44.48-.88 0-1.4-.46-1.4-1.09 0-.48.3-.78.6-1.08l2.32-2.34zm0 0"/></symbol></defs><g fill="#515151"><use xlink:href="#b71d8112a" x="223.71" y="148"/><use xlink:href="#b71d8112b" x="252.27" y="148"/></g><use xlink:href="#b71d8112c" x="285.99" y="148" fill="#fff"/><g fill="#515151"><use xlink:href="#b71d8112d" x="316.41" y="148"/><use xlink:href="#b71d8112e" x="350.43" y="148"/></g><g fill="#fff"><use xlink:href="#b71d8112f" x="266.385" y="252"/><use xlink:href="#b71d8112g" x="273.052" y="252"/><use xlink:href="#b71d8112h" x="279.719" y="252"/><use xlink:href="#b71d8112i" x="286.386" y="252"/><use xlink:href="#b71d8112j" x="293.053" y="252"/><use xlink:href="#b71d8112k" x="299.72" y="252"/></g><g fill="#fff"><use xlink:href="#b71d8112l" x="306.385" y="252"/><use xlink:href="#b71d8112m" x="311.725" y="252"/><use xlink:href="#b71d8112n" x="317.315" y="252"/><use xlink:href="#b71d8112o" x="322.275" y="252"/><use xlink:href="#b71d8112p" x="328.815" y="252"/></g><g fill="#fff"><use xlink:href="#b71d8112q" x="173.3333" y="266"/><use xlink:href="#b71d8112g" x="180.0003" y="266"/><use xlink:href="#b71d8112r" x="186.6673" y="266"/><use xlink:href="#b71d8112i" x="193.3343" y="266"/><use xlink:href="#b71d8112s" x="200.0013" y="266"/><use xlink:href="#b71d8112t" x="206.6683" y="266"/><use xlink:href="#b71d8112g" x="213.3353" y="266"/><use xlink:href="#b71d8112j" x="220.0023" y="266"/><use xlink:href="#b71d8112k" x="226.6693" y="266"/><use xlink:href="#b71d8112u" x="233.3363" y="266"/><use xlink:href="#b71d8112v" x="240.0033" y="266"/><use xlink:href="#b71d8112i" x="246.6703" y="266"/><use xlink:href="#b71d8112g" x="253.3373" y="266"/><use xlink:href="#b71d8112t" x="260.0043" y="266"/><use xlink:href="#b71d8112w" x="266.6713" y="266"/><use xlink:href="#b71d8112r" x="273.3383" y="266"/><use xlink:href="#b71d8112i" x="280.0053" y="266"/><use xlink:href="#b71d8112x" x="286.6723" y="266"/><use xlink:href="#b71d8112y" x="293.3393" y="266"/><use xlink:href="#b71d8112g" x="300.0063" y="266"/><use xlink:href="#b71d8112k" x="306.6733" y="266"/><use xlink:href="#b71d8112z" x="313.3403" y="266"/><use xlink:href="#b71d8112s" x="320.0073" y="266"/><use xlink:href="#b71d8112A" x="326.6743" y="266"/><use xlink:href="#b71d8112r" x="333.3413" y="266"/><use xlink:href="#b71d8112t" x="340.0083" y="266"/><use xlink:href="#b71d8112r" x="346.6753" y="266"/><use xlink:href="#b71d8112i" x="353.3423" y="266"/><use xlink:href="#b71d8112x" x="360.0093" y="266"/><use xlink:href="#b71d8112k" x="366.6763" y="266"/><use xlink:href="#b71d8112B" x="373.3433" y="266"/><use xlink:href="#b71d8112k" x="380.0103" y="266"/><use xlink:href="#b71d8112C" x="386.6773" y="266"/><use xlink:href="#b71d8112D" x="393.3443" y="266"/><use xlink:href="#b71d8112D" x="400.0113" y="266"/><use xlink:href="#b71d8112E" x="406.6783" y="266"/><use xlink:href="#b71d8112F" x="413.3453" y="266"/><use xlink:href="#b71d8112G" x="420.0123" y="266"/></g></svg>