<?xml version='1.0' encoding='UTF-8'?>
<svg xmlns="http://www.w3.org/2000/svg" xmlns:xlink="http://www.w3.org/1999/xlink" width="600px" height="300px" viewBox="0 0 600 300" x="0px" y="0px" enable-background="new 0 0 600 300"><defs><symbol overflow="visible" id="adcae9d7a"><path d="M20.81-8.94V-36.3h9.9c.56 2.35.85 5.1.98 7.5.89.3 2.1.43 3.17 0 .48-3.6.66-7.32.55-11.04l-.49-.43c-3.72.13-9.9.13-14.1.13h-5.27c-4.2 0-10.33 0-14.05-.13l-.55.43c-.1 3.65.13 7.43.61 11.04a4.8 4.8 0 003.17 0c.07-2.4.36-5.15.97-7.5h9.85v28.67c0 1.27-.07 2.54-.32 3.68-2.15.53-4.25.95-6.42 1.14 0 .95.13 1.9.55 2.87 3 0 5.7-.12 8.77-.12 2.28 0 6.65 0 8.64.12.36-.9.46-1.86.42-2.87a28.5 28.5 0 00-6.13-1.14 42.4 42.4 0 01-.25-4.99zm0 0"/></symbol><symbol overflow="visible" id="adcae9d7b"><path d="M15.72-29.05c-8.35 0-13.31 8.18-13.31 15.43C2.4-5.46 6.55.84 15.06.84c8.46 0 13.38-7.92 13.38-15.42 0-7.98-4.02-14.47-12.72-14.47zm.42 25.86c-6.3 0-8.52-6.47-8.52-11.81 0-3.9 1.38-7.02 3.07-8.81.72-.78 2.69-1.27 3.95-1.27 6.36 0 8.52 6.53 8.52 11.88 0 3.9-1.38 7.07-3.07 8.89-.65.72-2.68 1.12-3.95 1.12zm0 0"/></symbol><symbol overflow="visible" id="adcae9d7c"><path d="M1.14-25.2c1.56.18 3.36.48 4.67.65v16.86c0 5.47 1.57 8.53 5.64 8.53 3.32 0 6.61-1.26 9.2-2.89 0-1.08-.3-1.97-1.02-2.68-2.11.78-3.85 1.3-6 1.3-1.86 0-2.77-2.21-2.77-6.59v-14.53h9.23c.2-1.18.25-2.32.25-3.65l-9.48-.11v-7.92a10.24 10.24 0 00-3.23-.43L5.8-28.38c-1.5.07-3.36.3-4.8.66-.1.84-.1 1.74.13 2.52zm0 0"/></symbol><symbol overflow="visible" id="adcae9d7d"><path d="M28.8-2.22c0-.9-.36-1.69-.85-2.22-1.25.36-2.57.72-3.82.9a27.28 27.28 0 01-.36-4.68V-19.5c0-7.8-4.4-9.48-9.55-9.48-4.14 0-7.92 1.14-10.8 2.7 0 2.4.53 4.8 1.38 6.66 1.01.35 2.22.12 3.36-.43 0-1.67.06-3.23.36-4.86 1.62-.3 3.12-.4 5.04-.4 3.72 0 5.1 3.1 5.16 7.6C10.62-16.26 2.34-13 2.34-6.3 2.34-1.86 4.98.84 9.06.84c3 0 6.66-1.86 9.96-4.8.54 2.82 1.75 4.8 3 4.8C24.06.84 27-.59 28.8-2.22zM7.56-7.8c0-1.33.66-2.89 1.44-3.6.84-.72 5.05-1.97 9.72-2.52v6.78c-2.28 2.1-5.1 3.72-7.2 3.72-2.64 0-3.96-1.99-3.96-4.38zm0 0"/></symbol><symbol overflow="visible" id="adcae9d7e"><path d="M11.22-8.22v-20.05c0-6.59.06-11.15.23-17.15l-.47-.49c-3.42.25-7.07.97-9.78 1.93-.12.84-.06 1.62.24 2.34 1.56.19 3.19.48 4.75.9v33.72c0 1.2-.07 2.16-.25 3.43-1.2.36-3.13.78-4.8.95 0 .95.17 2.1.36 2.7 2.28 0 4.86-.12 7.27-.12 1.5 0 5.21.06 6.82.12.25-.54.36-1.86.36-2.7a17.18 17.18 0 00-4.54-1.02 52.4 52.4 0 01-.2-4.56zm0 0"/></symbol><symbol overflow="visible" id="adcae9d7f"><path d="M4.02-24.48a4.06 4.06 0 008.1 0c0-2.1-1.8-3.72-4.03-3.72-2.21 0-4.07 1.62-4.07 3.72zm0 21.36a4.06 4.06 0 008.1 0c0-2.1-1.8-3.72-4.03-3.72-2.21 0-4.07 1.62-4.07 3.71zm0 0"/></symbol><symbol overflow="visible" id="adcae9d7g"><path d="M28.14-11.1c0-3.78-3.55-6.6-8.52-9.18v-.17c4.32-2.35 6.96-5.47 6.96-9.36 0-4.2-3.72-7.99-10.38-7.99-5.1 0-11.57 4.14-11.57 10.8 0 3.55 2.75 5.7 6.95 8.05v.17c-5.58 2.83-8.1 6.3-8.1 10.33 0 6.17 4.2 9.4 11.1 9.4 7.8 0 13.56-5.33 13.56-12.04zM9.54-28.68c0-1.8.96-3.3 1.74-3.95a7.35 7.35 0 013.78-1.02c3.72 0 6.72 2.58 6.72 5.35 0 2.26-2.05 4.31-5.28 6.4-4.02-2.21-6.95-4.3-6.95-6.78zM8.42-9.55c0-2.87 2.15-5.64 6.53-7.6 4.37 2.34 8.04 4.67 8.04 7.73 0 1.8-.6 3.6-1.8 4.8-.6.6-2.88 1.5-5.46 1.5-3.17 0-7.31-1.57-7.31-6.43zm0 0"/></symbol><symbol overflow="visible" id="adcae9d7h"><path d="M11.77-51H7.3v63.48h4.46zm0 0"/></symbol><symbol overflow="visible" id="adcae9d7i"><path d="M14.52-19.27c4.26 0 7.39 3.13 7.39 7.33 0 2.58-.85 5.52-2.41 6.96-.66.6-2.94 1.56-5.16 1.56-1.62 0-3.12-.13-4.75-.42C9.06-6 8.7-8.1 8.41-10.44a5.45 5.45 0 00-3.13.24 56.8 56.8 0 00-.6 9.12A23.74 23.74 0 0013.8.78c7.43 0 13.5-5.87 13.5-14.1 0-5.59-4.38-9.96-11.03-9.96-1.82 0-3.32.19-5.11.6v-10.13h13.98c.3-1.14.55-2.24.55-3.61l-.49-.42c-3.9 0-8.04.06-11.89.06H6.78l-.55.48v18.11l.55.42a22 22 0 017.74-1.5zm0 0"/></symbol><symbol overflow="visible" id="adcae9d7j"><path d="M25.86-2.88a39.8 39.8 0 00-6.6-1.07 50.42 50.42 0 01-.18-4.5v-28.82l-.49-.42c-4.5.49-8.8 1.5-12.3 2.9a4.1 4.1 0 00.55 2.5h6.96V-7.2c0 1.14-.11 2.22-.3 3.25-2.4.53-4.56.89-6.9 1.08 0 .89.12 1.96.54 2.93 3.13 0 6.06-.12 9.23-.12 2.41 0 7.04 0 9 .12.36-.9.55-1.98.49-2.94zm0 0"/></symbol><symbol overflow="visible" id="adcae9d7k"><path d="M25.14-34.98c.17-1.2-.06-2.22-.66-2.94C8.41-35.82 3.6-25.7 3.6-15.12 3.6-8.46 6.42.95 15.5.95c6.59 0 12.82-4.73 12.82-13.43 0-5.82-4.12-10.38-9.83-10.38-3.06 0-5.93 1.02-9.25 4.14h-.1c.35-8.28 5.15-14.1 16.01-16.26zm-8.4 16.56c3.54 0 6.71 2.76 6.71 7.2 0 2.94-.82 5.35-2.32 6.85a7.64 7.64 0 01-4.04 1.14c-4.73 0-7.37-5.18-7.9-12.13 2.22-1.73 4.9-3.06 7.54-3.06zm0 0"/></symbol><symbol overflow="visible" id="adcae9d7l"><path d="M3.83 0v-5.95H6.2v-.82H.45v.82h2.4V0zm0 0"/></symbol><symbol overflow="visible" id="adcae9d7m"><path d="M5.75-2.23v-.43c0-1.6-.9-2.51-2.42-2.51S.87-4.16.87-2.48c0 1.71.91 2.62 2.5 2.62 1.43 0 2.07-.56 2.29-1.52l-.9-.09c-.18.61-.59.9-1.35.9-.94 0-1.52-.54-1.58-1.66zm-2.4-2.2c.93 0 1.43.5 1.48 1.55H1.84c.08-1.07.6-1.56 1.5-1.56zm0 0"/></symbol><symbol overflow="visible" id="adcae9d7n"><path d="M1.83 0l1.42-2h.06l1.46 2H5.8L4-2.53l1.78-2.49H4.8L3.42-3.08h-.08l-1.4-1.94H.89l1.78 2.49L.84 0zm0 0"/></symbol><symbol overflow="visible" id="adcae9d7o"><path d="M5.52-4.25v-.77H3.17v-1.56h-.81l-.14 1.56H.75v.77h1.47v2.4c0 1.3.48 1.94 1.84 1.94C4.6.1 5.14 0 5.55-.14L5.4-.91c-.32.13-.72.2-1.13.2-.8 0-1.1-.37-1.1-1.23v-2.31zm0 0"/></symbol><symbol overflow="visible" id="adcae9d7p"><path d="M3.33-3.42c.47 0 .8-.27.8-.8 0-.51-.33-.8-.8-.8-.47 0-.8.29-.8.8 0 .53.33.8.8.8zm0 3.5c.47 0 .8-.27.8-.78 0-.53-.33-.82-.8-.82-.47 0-.8.29-.8.82 0 .51.33.78.8.78zm0 0"/></symbol><symbol overflow="visible" id="adcae9d7r"><path d="M3.33.14c1.62 0 2.5-.95 2.5-2.66 0-1.68-.88-2.64-2.5-2.64-1.63 0-2.5.96-2.5 2.64 0 1.7.87 2.66 2.5 2.66zm0-.77c-1.06 0-1.52-.6-1.52-1.89 0-1.28.46-1.87 1.52-1.87 1.08 0 1.53.6 1.53 1.87 0 1.29-.45 1.9-1.53 1.9zm0 0"/></symbol><symbol overflow="visible" id="adcae9d7s"><path d="M2.83.14c.94 0 1.5-.39 1.81-.95h.08l.1.81h.76v-3.38c0-1.23-.69-1.8-2.13-1.8-1.43 0-2.03.65-2.18 1.6l.93.1c.11-.6.44-.93 1.22-.93.85 0 1.22.32 1.22 1.04v.34l-1.81.2C1.6-2.7 1.1-2.17 1.1-1.28c0 .92.64 1.42 1.72 1.42zm.25-.77c-.67 0-1.02-.28-1.02-.74 0-.44.28-.72 1-.82l1.58-.19v.41c0 .8-.6 1.34-1.56 1.34zm0 0"/></symbol><symbol overflow="visible" id="adcae9d7t"><path d="M3.92-7.14H1.36v.76h1.6v5.61H1.15V0H5.7v-.77H3.92zm0 0"/></symbol><symbol overflow="visible" id="adcae9d7u"><path d="M3.33.16c1.69 0 2.69-.74 2.69-1.94 0-1.05-.8-1.58-1.43-1.72v-.05c.5-.14 1.2-.58 1.2-1.56 0-1.12-.95-1.81-2.46-1.81-1.52 0-2.46.69-2.46 1.81 0 .97.68 1.4 1.18 1.56v.05c-.6.14-1.4.64-1.4 1.72 0 1.2 1 1.94 2.68 1.94zm0-4.04c-.97 0-1.49-.43-1.49-1.12 0-.78.52-1.1 1.49-1.1.95 0 1.48.32 1.48 1.1 0 .69-.53 1.13-1.48 1.13zm0 3.24c-1.1 0-1.7-.42-1.7-1.25 0-.78.6-1.2 1.7-1.2s1.7.42 1.7 1.2c0 .83-.6 1.25-1.7 1.25zm0 0"/></symbol><symbol overflow="visible" id="adcae9d7v"><path d="M3.42.14c1.55 0 2.44-.84 2.44-2.33 0-1.45-.83-2.22-2.14-2.22-.75 0-1.28.27-1.67.72H2l.31-2.22h3.11v-.86H1.53l-.45 3.93h.81c.3-.36.9-.79 1.58-.79.92 0 1.44.43 1.44 1.47 0 .99-.54 1.5-1.49 1.5-.83 0-1.28-.32-1.5-1.01l-.95.1C1.07-.46 2 .13 3.42.13zm0 0"/></symbol><symbol overflow="visible" id="adcae9d7w"><path d="M4.22-6.77h-.86l-2.03.7v.87c.64-.17 1.26-.38 1.89-.55v4.9H1.03V0h4.9v-.86H4.21zm0 0"/></symbol><symbol overflow="visible" id="adcae9d7x"><path d="M3.42.14c1.58 0 2.49-.86 2.49-2.3 0-1.42-.86-2.17-2.22-2.17-1.03 0-1.58.5-1.9 1.02h-.04c.03-1.63.4-2.77 1.73-2.77.91 0 1.24.44 1.36.96l.97-.11c-.23-.96-.86-1.68-2.33-1.68C1.84-6.9.86-5.86.86-3.1.86-.9 1.78.14 3.42.14zm.02-.78c-.9 0-1.47-.55-1.47-1.47 0-.9.7-1.47 1.53-1.47.92 0 1.47.52 1.47 1.47 0 .97-.6 1.47-1.53 1.47zm0 0"/></symbol><symbol overflow="visible" id="adcae9d7y"><path d="M5.95-6.77H1.1V0h.99v-2.92H5.3v-.77H2.08v-2.26h3.87zm0 0"/></symbol><symbol overflow="visible" id="adcae9d7z"><path d="M2.73.14c.9 0 1.43-.45 1.74-1.08h.06l.13.94h.8v-5.02h-.94v2.7c0 .98-.57 1.62-1.46 1.62-.75 0-1.1-.4-1.1-1.22v-3.1h-.93v3.32c0 1.17.55 1.84 1.7 1.84zm0 0"/></symbol><symbol overflow="visible" id="adcae9d7A"><path d="M5.08-5.16c-.94 0-1.58.43-1.9 1.3h-.09l-.07-1.16H1.05v.77h1.1v3.48H.96V0h3.96v-.77H3.1v-1.46c0-1.36.6-2.05 1.83-2.05.4 0 .76.08 1.1.17l.15-.87c-.33-.11-.7-.18-1.11-.18zm0 0"/></symbol><symbol overflow="visible" id="adcae9d7B"><path d="M3.9.14c1.48 0 2.18-.98 2.18-2.64 0-1.67-.7-2.66-2.17-2.66-.91 0-1.49.41-1.79 1h-.06v-2.98h-.95V0h.81l.11-.9h.06c.29.63.82 1.04 1.82 1.04zm-.32-.8c-1.08 0-1.55-.8-1.55-1.84 0-1.06.47-1.86 1.55-1.86 1.1 0 1.51.61 1.51 1.86S4.64-.66 3.58-.66zm0 0"/></symbol><symbol overflow="visible" id="adcae9d7C"><path d="M2.16 0v-2.67c0-.99.59-1.63 1.46-1.63.74 0 1.07.38 1.07 1.22V0h.95v-3.31c0-1.2-.56-1.85-1.67-1.85-.92 0-1.49.46-1.77 1.08h-.06l-.12-.94H1.2V0zm0 0"/></symbol><symbol overflow="visible" id="adcae9d7D"><path d="M1.63 0v-2.9c0-.8.15-1.4.71-1.4.41 0 .55.3.55.88V0h.95v-2.9c0-.8.18-1.4.72-1.4.4 0 .57.3.57.88V0h.95v-3.63c0-.92-.28-1.53-1.11-1.53-.63 0-.95.41-1.1.9h-.06c-.1-.52-.44-.9-1.08-.9-.6 0-.93.41-1.06.9H1.6l-.23-.76H.67V0zm0 0"/></symbol><symbol overflow="visible" id="adcae9d7E"><path d="M3.36.16c1.4 0 2.2-.6 2.2-1.57 0-.89-.54-1.22-1.47-1.39L3-3c-.67-.14-.86-.33-.86-.73 0-.5.4-.74 1.17-.74.83 0 1.19.27 1.27.8l.9-.05c-.12-1-.8-1.47-2.17-1.47-1.34 0-2.1.53-2.1 1.5 0 .81.45 1.22 1.52 1.44l1.04.2c.56.11.87.24.87.72 0 .52-.45.78-1.28.78-.95 0-1.36-.28-1.42-.87l-.9.06C1.07-.36 1.8.16 3.35.16zm0 0"/></symbol><symbol overflow="visible" id="adcae9d7F"><path d="M3.58-5.81c.42 0 .72-.22.72-.67 0-.44-.3-.68-.72-.68-.44 0-.72.24-.72.68 0 .45.28.67.72.67zm.5.8H1.52v.76h1.6v3.48h-1.8V0h4.46v-.77h-1.7zm0 0"/></symbol><symbol overflow="visible" id="adcae9d7G"><path d="M3.16 2.03c1.67 0 2.4-.86 2.4-2.51v-4.54h-.81l-.13.91h-.06c-.26-.58-.8-1.05-1.73-1.05-1.42 0-2.24 1-2.24 2.52 0 1.6.75 2.56 2.2 2.56.94 0 1.5-.5 1.77-1.03h.05v.72c0 1.17-.42 1.67-1.45 1.67-.93 0-1.3-.34-1.41-.89L.8.5c.12.96.87 1.54 2.36 1.54zM3.06-.8c-.98 0-1.48-.57-1.48-1.82 0-1.13.5-1.75 1.48-1.75 1.06 0 1.58.76 1.58 1.75 0 .95-.56 1.82-1.58 1.82zm0 0"/></symbol><symbol overflow="visible" id="adcae9d7H"><path d="M2.84.14C3.8.14 4.33-.26 4.6-.9h.07L4.8 0h.76v-7.14h-.95v2.95h-.08c-.28-.6-.86-.97-1.67-.97-1.48 0-2.27.99-2.27 2.64C.6-.84 1.36.14 2.84.14zm.22-.8c-.98 0-1.48-.59-1.48-1.84s.5-1.86 1.48-1.86c1.13 0 1.58.8 1.58 1.86S4.2-.66 3.06-.66zm0 0"/></symbol><symbol overflow="visible" id="adcae9d7I"><path d="M2.44 0l.87-3.31h.06L4.25 0H5.3l1.03-5.02h-.88l-.73 3.94h-.08L3.77-4.4h-.85l-.87 3.33h-.08l-.75-3.94H.34L1.36 0zm0 0"/></symbol><symbol overflow="visible" id="adcae9d7J"><path d="M2.16 0v-2.69c0-.98.6-1.6 1.46-1.6.74 0 1.07.4 1.07 1.2V0h.95v-3.31c0-1.17-.56-1.85-1.67-1.85-.9 0-1.44.46-1.75 1.08h-.06v-3.06H1.2V0zm0 0"/></symbol><symbol overflow="visible" id="adcae9d7K"><path d="M3.55-2.73h1.67C5.09-1.45 4.58-.64 3.36-.64c-1.25 0-1.78-1.03-1.78-2.73 0-1.77.53-2.72 1.81-2.72.9 0 1.47.45 1.69 1.43l.95-.09C5.8-6 5.11-6.91 3.41-6.91 1.44-6.9.58-5.59.58-3.37.58-1.2 1.4.13 3.14.13c1.3 0 1.78-.73 2-1.36h.1L5.33 0h.75v-3.42H3.55zm0 0"/></symbol><symbol overflow="visible" id="adcae9d7L"><path d="M4.14-7.16c-.44 0-.72.24-.72.68 0 .45.28.67.72.67.42 0 .72-.22.72-.67 0-.44-.3-.68-.72-.68zm-2.8 2.14v.77h2.33v4.16c0 .95-.36 1.28-1.28 1.28-.4 0-.89-.08-1.23-.22l-.22.78c.42.17 1.1.28 1.6.28 1.55 0 2.08-.67 2.08-2.1v-4.95zm0 0"/></symbol><symbol overflow="visible" id="adcae9d7M"><path d="M1.45-2.95c0 2.56 1.08 4.37 3.67 4.84l.11-.67C3.28.86 2.43-.75 2.43-2.95s.85-3.82 2.8-4.16l-.1-.69c-2.6.49-3.68 2.3-3.68 4.85zm0 0"/></symbol><symbol overflow="visible" id="adcae9d7N"><path d="M1.45-7.1c1.96.33 2.8 1.94 2.8 4.15 0 2.2-.84 3.8-2.8 4.17l.11.67c2.58-.47 3.67-2.28 3.67-4.84 0-2.55-1.09-4.36-3.67-4.85zm0 0"/></symbol></defs><g fill="#515151"><use xlink:href="#adcae9d7a" x="126.12" y="148"/><use xlink:href="#adcae9d7b" x="162.48" y="148"/><use xlink:href="#adcae9d7c" x="193.26" y="148"/><use xlink:href="#adcae9d7d" x="214.2" y="148"/><use xlink:href="#adcae9d7e" x="243.66" y="148"/></g><use xlink:href="#adcae9d7f" x="260.94" y="148" fill="#515151"/><use xlink:href="#adcae9d7g" x="289.92" y="148" fill="#fff"/><use xlink:href="#adcae9d7h" x="321.6" y="148" fill="#515151"/><use xlink:href="#adcae9d7i" x="340.68" y="148" fill="#fff"/><use xlink:href="#adcae9d7h" x="372.36" y="148" fill="#515151"/><use xlink:href="#adcae9d7j" x="391.44" y="148" fill="#fff"/><use xlink:href="#adcae9d7h" x="423.12" y="148" fill="#515151"/><use xlink:href="#adcae9d7k" x="442.2" y="148" fill="#fff"/><g fill="#fff"><use xlink:href="#adcae9d7l" x="243.3333" y="252"/><use xlink:href="#adcae9d7m" x="250.0003" y="252"/><use xlink:href="#adcae9d7n" x="256.6673" y="252"/><use xlink:href="#adcae9d7o" x="263.3343" y="252"/><use xlink:href="#adcae9d7p" x="270.0013" y="252"/><use xlink:href="#adcae9d7q" x="276.6683" y="252"/><use xlink:href="#adcae9d7l" x="283.3353" y="252"/><use xlink:href="#adcae9d7r" x="290.0023" y="252"/><use xlink:href="#adcae9d7o" x="296.6693" y="252"/><use xlink:href="#adcae9d7s" x="303.3363" y="252"/><use xlink:href="#adcae9d7t" x="310.0033" y="252"/><use xlink:href="#adcae9d7p" x="316.6703" y="252"/><use xlink:href="#adcae9d7q" x="323.3373" y="252"/><use xlink:href="#adcae9d7u" x="330.0043" y="252"/><use xlink:href="#adcae9d7v" x="336.6713" y="252"/><use xlink:href="#adcae9d7w" x="343.3383" y="252"/><use xlink:href="#adcae9d7x" x="350.0053" y="252"/></g><g fill="#fff"><use xlink:href="#adcae9d7y" x="120" y="266"/><use xlink:href="#adcae9d7m" x="126.667" y="266"/><use xlink:href="#adcae9d7s" x="133.334" y="266"/><use xlink:href="#adcae9d7o" x="140.001" y="266"/><use xlink:href="#adcae9d7z" x="146.668" y="266"/><use xlink:href="#adcae9d7A" x="153.335" y="266"/><use xlink:href="#adcae9d7m" x="160.002" y="266"/><use xlink:href="#adcae9d7p" x="166.669" y="266"/><use xlink:href="#adcae9d7q" x="173.336" y="266"/><use xlink:href="#adcae9d7l" x="180.003" y="266"/><use xlink:href="#adcae9d7s" x="186.67" y="266"/><use xlink:href="#adcae9d7B" x="193.337" y="266"/><use xlink:href="#adcae9d7z" x="200.004" y="266"/><use xlink:href="#adcae9d7t" x="206.671" y="266"/><use xlink:href="#adcae9d7s" x="213.338" y="266"/><use xlink:href="#adcae9d7A" x="220.005" y="266"/><use xlink:href="#adcae9d7q" x="226.672" y="266"/><use xlink:href="#adcae9d7C" x="233.339" y="266"/><use xlink:href="#adcae9d7z" x="240.006" y="266"/><use xlink:href="#adcae9d7D" x="246.673" y="266"/><use xlink:href="#adcae9d7m" x="253.34" y="266"/><use xlink:href="#adcae9d7A" x="260.007" y="266"/><use xlink:href="#adcae9d7s" x="266.674" y="266"/><use xlink:href="#adcae9d7t" x="273.341" y="266"/><use xlink:href="#adcae9d7E" x="280.008" y="266"/><use xlink:href="#adcae9d7q" x="286.675" y="266"/><use xlink:href="#adcae9d7s" x="293.342" y="266"/><use xlink:href="#adcae9d7t" x="300.009" y="266"/><use xlink:href="#adcae9d7F" x="306.676" y="266"/><use xlink:href="#adcae9d7G" x="313.343" y="266"/><use xlink:href="#adcae9d7C" x="320.01" y="266"/><use xlink:href="#adcae9d7m" x="326.677" y="266"/><use xlink:href="#adcae9d7H" x="333.344" y="266"/><use xlink:href="#adcae9d7q" x="340.011" y="266"/><use xlink:href="#adcae9d7I" x="346.678" y="266"/><use xlink:href="#adcae9d7F" x="353.345" y="266"/><use xlink:href="#adcae9d7o" x="360.012" y="266"/><use xlink:href="#adcae9d7J" x="366.679" y="266"/><use xlink:href="#adcae9d7q" x="373.346" y="266"/><use xlink:href="#adcae9d7K" x="380.013" y="266"/><use xlink:href="#adcae9d7z" x="386.68" y="266"/><use xlink:href="#adcae9d7L" x="393.347" y="266"/><use xlink:href="#adcae9d7s" x="400.014" y="266"/><use xlink:href="#adcae9d7A" x="406.681" y="266"/><use xlink:href="#adcae9d7s" x="413.348" y="266"/><use xlink:href="#adcae9d7o" x="420.015" y="266"/><use xlink:href="#adcae9d7F" x="426.682" y="266"/><use xlink:href="#adcae9d7q" x="433.349" y="266"/><use xlink:href="#adcae9d7M" x="440.016" y="266"/><use xlink:href="#adcae9d7o" x="446.683" y="266"/><use xlink:href="#adcae9d7C" x="453.35" y="266"/><use xlink:href="#adcae9d7z" x="460.017" y="266"/><use xlink:href="#adcae9d7D" x="466.684" y="266"/><use xlink:href="#adcae9d7N" x="473.351" y="266"/></g></svg>