<?xml version='1.0' encoding='UTF-8'?>
<svg xmlns="http://www.w3.org/2000/svg" xmlns:xlink="http://www.w3.org/1999/xlink" width="600px" height="300px" viewBox="0 0 600 300" x="0px" y="0px" enable-background="new 0 0 600 300"><defs><symbol overflow="visible" id="90931a5fa"><path d="M27.72-36.36c.48 2.16.78 4.38.9 6.66.9.36 1.97.54 3.07.25a33.38 33.38 0 001.37-10.03 33.11 33.11 0 00-10.98-1.61C9.48-41.1 2.7-30.72 2.7-19.37 2.7-8.16 8.7.9 21.06.9 25.7.9 29.88 0 33.42-1.14c0-3.24-.23-6.84-.9-10.38a4.68 4.68 0 00-3.18.24c-.12 2.34-.36 4.8-.84 7.33-1.44.3-3.84.53-5.81.53-10.69 0-14.53-8.7-14.53-18.53 0-6.55 2.93-10.93 4.92-12.85 1.56-1.14 5.4-1.98 7.92-1.98 2.45 0 5.1.19 6.72.42zm0 0"/></symbol><symbol overflow="visible" id="90931a5fb"><path d="M25.5-22.38l-.48-.48-12.3.23V-36.3h13.37c.55 2.1.85 4.38.97 6.6a4.8 4.8 0 003.17 0c.49-3.36.68-6.72.55-10.08l-.48-.49c-3.72.13-9.9.13-14.1.13h-6.18c-2.64 0-5.04-.13-7.61-.13a8.14 8.14 0 00-.49 2.9c1.74.17 3.49.59 5.22 1.14.17 2.21.3 4.73.3 8.28v18.3c0 1.85 0 3.88-.3 5.7-1.73.53-3.48.95-5.22 1.14 0 .95.13 1.9.49 2.87 2.57 0 5.03-.12 7.67-.12h6.84c4.2 0 10.38 0 14.1.12l.48-.48c.48-3.53.66-7.02.66-10.56a5.8 5.8 0 00-3.18-.24 74.57 74.57 0 01-2.17 7.31h-14.1V-19l12.2.23c.36-1.02.53-2.22.59-3.6zm0 0"/></symbol><symbol overflow="visible" id="90931a5fc"><path d="M12.9-36.23c2.22-.2 4.26-.61 6.12-1.15a6.01 6.01 0 00-.47-2.89c-1.75.13-5.83.13-7.93.13-2.89 0-5.46-.13-8.28-.13a8.14 8.14 0 00-.48 2.9c1.73.17 3.48.59 5.22 1.14.19 2.21.3 4.73.3 8.28v20.32a23 23 0 01-.3 3.68c-1.74.53-3.49.95-5.22 1.14 0 .95.12 1.9.48 2.87 2.58 0 5.04-.12 7.68-.12h6.84c4.2 0 10.37 0 14.1.12l.54-.48c.48-3.78.66-7.56.66-11.28a5.92 5.92 0 00-3.24-.24c-.6 2.75-1.33 5.4-2.15 8.03H12.66v-24.04c0-3.55.06-6.07.25-8.28zm13.38 17.87c2.34 0 4.2-2.45 4.2-4.62 0-1.93-1.86-3.36-3.67-3.36-2.26 0-4.12 2.57-4.12 4.75 0 1.8 2.03 3.23 3.6 3.23zm0 0"/></symbol><symbol overflow="visible" id="90931a5fd"><path d="M12.9-36.23c2.22-.2 4.26-.61 6.12-1.15a6.01 6.01 0 00-.47-2.89c-1.75.13-5.83.13-7.93.13-2.89 0-5.46-.13-8.28-.13a8.14 8.14 0 00-.48 2.9c1.73.17 3.48.59 5.22 1.14.19 2.21.3 4.73.3 8.28v20.32a23 23 0 01-.3 3.68c-1.74.53-3.49.95-5.22 1.14 0 .95.12 1.9.48 2.87 2.58 0 5.04-.12 7.68-.12h6.84c4.2 0 10.37 0 14.1.12l.54-.48c.48-3.78.66-7.56.66-11.28a5.92 5.92 0 00-3.24-.24c-.6 2.75-1.33 5.4-2.15 8.03H12.66v-24.04c0-3.55.06-6.07.25-8.28zm0 0"/></symbol><symbol overflow="visible" id="90931a5fe"><path d="M40.02-2.81a15.93 15.93 0 00-4.44-1.14L22.68-40.5c-1.98 0-3.73.23-5.27.84L5.09-3.96C3.5-3.41 1.92-3 .3-2.8c0 .95.13 1.9.5 2.87 2.57 0 4.91-.12 6.9-.12 1.43 0 4.9 0 6.65.12.3-.9.43-1.86.36-2.87L9.42-3.95l3.17-9.55H17c2.87 0 6.35.06 9.53.23l3.25 9.32-5.64 1.14c0 .95.1 1.9.46 2.87 2.6 0 4.99-.12 7.63-.12 1.98 0 5.7 0 7.44.12.3-.9.42-1.86.36-2.87zM19.86-34.98l.42 4.03 4.86 13.8H13.8l5.93-17.83zm0 0"/></symbol><symbol overflow="visible" id="90931a5ff"><path d="M15.6-24.9c1.68 0 3.24.12 4.56.35.25 1.75.3 3.32.36 5.11.96.42 2.04.49 3.3.13a22.96 22.96 0 001.26-7.99 26.18 26.18 0 00-9.42-1.56C7.5-28.86 2.4-21.13 2.4-13.63 2.4-5.52 6.12.85 14.45.85c3.9 0 8.18-1.75 11.24-4.03-.13-.89-.42-1.86-1.1-2.45-3.71 1.44-6.3 2.22-8.87 2.22-6.3 0-8.1-6.78-8.1-11.58 0-3.84 1.38-7.14 3.11-8.77.72-.65 3-1.14 4.86-1.14zm0 0"/></symbol><symbol overflow="visible" id="90931a5fg"><path d="M2.4-13.56C2.4-5.58 6.2.84 14.35.84c4.2 0 8.4-1.75 11.75-4.2-.04-.95-.36-1.86-1.01-2.4-3.78 1.5-6.72 2.34-9.42 2.34-5.94 0-7.86-6.06-8.1-10.8h6.78c3.9 0 7.86.06 10.93.13l.46-.49c.25-.97.32-2.34.32-3.72 0-5.4-2.47-10.75-10.7-10.75-7.62 0-12.94 7.93-12.94 15.49zm8.29-10.38c.72-.65 2.58-1.2 3.83-1.2 4.92 0 6.3 3.48 6.3 7.56-1.5.13-4.13.24-7.32.24H7.73a12.68 12.68 0 012.96-6.6zm0 0"/></symbol><symbol overflow="visible" id="90931a5fh"><path d="M11.22-8.22v-20.05c0-6.59.06-11.15.23-17.15l-.47-.49c-3.42.25-7.07.97-9.78 1.93-.12.84-.06 1.62.24 2.34 1.56.19 3.19.48 4.75.9v33.72c0 1.2-.07 2.16-.25 3.43-1.2.36-3.13.78-4.8.95 0 .95.17 2.1.36 2.7 2.28 0 4.86-.12 7.27-.12 1.5 0 5.21.06 6.82.12.25-.54.36-1.86.36-2.7a17.18 17.18 0 00-4.54-1.02 52.4 52.4 0 01-.2-4.56zm7.44-6.36c2.34 0 4.2-2.47 4.2-4.62 0-1.93-1.86-3.36-3.66-3.36-2.28 0-4.14 2.58-4.14 4.75 0 1.8 2.03 3.23 3.6 3.23zm0 0"/></symbol><symbol overflow="visible" id="90931a5fi"><path d="M11.22-8.22v-20.05c0-6.59.06-11.15.23-17.15l-.47-.49c-3.42.25-7.07.97-9.78 1.93-.12.84-.06 1.62.24 2.34 1.56.19 3.19.48 4.75.9v33.72c0 1.2-.07 2.16-.25 3.43-1.2.36-3.13.78-4.8.95 0 .95.17 2.1.36 2.7 2.28 0 4.86-.12 7.27-.12 1.5 0 5.21.06 6.82.12.25-.54.36-1.86.36-2.7a17.18 17.18 0 00-4.54-1.02 52.4 52.4 0 01-.2-4.56zm0 0"/></symbol><symbol overflow="visible" id="90931a5fj"><path d="M28.8-2.22c0-.9-.36-1.69-.85-2.22-1.25.36-2.57.72-3.82.9a27.28 27.28 0 01-.36-4.68V-19.5c0-7.8-4.4-9.48-9.55-9.48-4.14 0-7.92 1.14-10.8 2.7 0 2.4.53 4.8 1.38 6.66 1.01.35 2.22.12 3.36-.43 0-1.67.06-3.23.36-4.86 1.62-.3 3.12-.4 5.04-.4 3.72 0 5.1 3.1 5.16 7.6C10.62-16.26 2.34-13 2.34-6.3 2.34-1.86 4.98.84 9.06.84c3 0 6.66-1.86 9.96-4.8.54 2.82 1.75 4.8 3 4.8C24.06.84 27-.59 28.8-2.22zM7.56-7.8c0-1.33.66-2.89 1.44-3.6.84-.72 5.05-1.97 9.72-2.52v6.78c-2.28 2.1-5.1 3.72-7.2 3.72-2.64 0-3.96-1.99-3.96-4.38zm0 0"/></symbol><symbol overflow="visible" id="90931a5fk"><path d="M3.83 0v-5.95H6.2v-.82H.45v.82h2.4V0zm0 0"/></symbol><symbol overflow="visible" id="90931a5fl"><path d="M5.75-2.23v-.43c0-1.6-.9-2.51-2.42-2.51S.87-4.16.87-2.48c0 1.71.91 2.62 2.5 2.62 1.43 0 2.07-.56 2.29-1.52l-.9-.09c-.18.61-.59.9-1.35.9-.94 0-1.52-.54-1.58-1.66zm-2.4-2.2c.93 0 1.43.5 1.48 1.55H1.84c.08-1.07.6-1.56 1.5-1.56zm0 0"/></symbol><symbol overflow="visible" id="90931a5fm"><path d="M1.83 0l1.42-2h.06l1.46 2H5.8L4-2.53l1.78-2.49H4.8L3.42-3.08h-.08l-1.4-1.94H.89l1.78 2.49L.84 0zm0 0"/></symbol><symbol overflow="visible" id="90931a5fn"><path d="M5.52-4.25v-.77H3.17v-1.56h-.81l-.14 1.56H.75v.77h1.47v2.4c0 1.3.48 1.94 1.84 1.94C4.6.1 5.14 0 5.55-.14L5.4-.91c-.32.13-.72.2-1.13.2-.8 0-1.1-.37-1.1-1.23v-2.31zm0 0"/></symbol><symbol overflow="visible" id="90931a5fo"><path d="M3.33-3.42c.47 0 .8-.27.8-.8 0-.51-.33-.8-.8-.8-.47 0-.8.29-.8.8 0 .53.33.8.8.8zm0 3.5c.47 0 .8-.27.8-.78 0-.53-.33-.82-.8-.82-.47 0-.8.29-.8.82 0 .51.33.78.8.78zm0 0"/></symbol><symbol overflow="visible" id="90931a5fq"><path d="M3.42.14C5.1.14 5.9-.69 6.11-2.17l-.95-.1C4.96-1.19 4.5-.69 3.44-.69c-1.27 0-1.81-.94-1.81-2.69s.54-2.7 1.8-2.7c1.09 0 1.5.49 1.73 1.58l.93-.1c-.21-1.46-.95-2.3-2.62-2.3C1.53-6.9.62-5.6.62-3.38c0 2.2.91 3.51 2.8 3.51zm0 0"/></symbol><symbol overflow="visible" id="90931a5fr"><path d="M5.92-6.77H1.1V0h4.83v-.8H2.06v-2.26h3.22v-.75H2.06v-2.16h3.86zm0 0"/></symbol><symbol overflow="visible" id="90931a5fs"><path d="M2.08-6.77h-.99V0h4.79v-.81h-3.8zm0 0"/></symbol><symbol overflow="visible" id="90931a5ft"><path d="M3.33-1.98c.47 0 .8-.27.8-.85s-.33-.84-.8-.84c-.47 0-.78.26-.78.84s.3.85.78.85zm0 0"/></symbol><symbol overflow="visible" id="90931a5fu"><path d="M6.17 0L3.98-6.77h-1.3L.5 0h.97l.44-1.47h2.78L5.16 0zM3.28-5.94h.08l1.1 3.74H2.15zm0 0"/></symbol><symbol overflow="visible" id="90931a5fv"><path d="M3.34.14c1.43 0 2.13-.66 2.25-1.78l-.89-.1c-.1.7-.5 1.08-1.34 1.08-1.03 0-1.52-.64-1.52-1.84 0-1.23.47-1.86 1.52-1.86.84 0 1.23.36 1.34 1.08l.9-.1c-.13-1.09-.82-1.78-2.26-1.78-1.56 0-2.46.97-2.46 2.66 0 1.66.9 2.64 2.46 2.64zm0 0"/></symbol><symbol overflow="visible" id="90931a5fw"><path d="M3.92-7.14H1.36v.76h1.6v5.61H1.15V0H5.7v-.77H3.92zm0 0"/></symbol><symbol overflow="visible" id="90931a5fx"><path d="M2.83.14c.94 0 1.5-.39 1.81-.95h.08l.1.81h.76v-3.38c0-1.23-.69-1.8-2.13-1.8-1.43 0-2.03.65-2.18 1.6l.93.1c.11-.6.44-.93 1.22-.93.85 0 1.22.32 1.22 1.04v.34l-1.81.2C1.6-2.7 1.1-2.17 1.1-1.28c0 .92.64 1.42 1.72 1.42zm.25-.77c-.67 0-1.02-.28-1.02-.74 0-.44.28-.72 1-.82l1.58-.19v.41c0 .8-.6 1.34-1.56 1.34zm0 0"/></symbol><symbol overflow="visible" id="90931a5fy"><path d="M5.95-6.77H1.1V0h.99v-2.92H5.3v-.77H2.08v-2.26h3.87zm0 0"/></symbol><symbol overflow="visible" id="90931a5fz"><path d="M2.73.14c.9 0 1.43-.45 1.74-1.08h.06l.13.94h.8v-5.02h-.94v2.7c0 .98-.57 1.62-1.46 1.62-.75 0-1.1-.4-1.1-1.22v-3.1h-.93v3.32c0 1.17.55 1.84 1.7 1.84zm0 0"/></symbol><symbol overflow="visible" id="90931a5fA"><path d="M5.08-5.16c-.94 0-1.58.43-1.9 1.3h-.09l-.07-1.16H1.05v.77h1.1v3.48H.96V0h3.96v-.77H3.1v-1.46c0-1.36.6-2.05 1.83-2.05.4 0 .76.08 1.1.17l.15-.87c-.33-.11-.7-.18-1.11-.18zm0 0"/></symbol><symbol overflow="visible" id="90931a5fB"><path d="M2.16 0v-2.67c0-.99.59-1.63 1.46-1.63.74 0 1.07.38 1.07 1.22V0h.95v-3.31c0-1.2-.56-1.85-1.67-1.85-.92 0-1.49.46-1.77 1.08h-.06l-.12-.94H1.2V0zm0 0"/></symbol><symbol overflow="visible" id="90931a5fC"><path d="M1.45-2.95c0 2.56 1.08 4.37 3.67 4.84l.11-.67C3.28.86 2.43-.75 2.43-2.95s.85-3.82 2.8-4.16l-.1-.69c-2.6.49-3.68 2.3-3.68 4.85zm0 0"/></symbol><symbol overflow="visible" id="90931a5fD"><path d="M3.36.16c1.4 0 2.2-.6 2.2-1.57 0-.89-.54-1.22-1.47-1.39L3-3c-.67-.14-.86-.33-.86-.73 0-.5.4-.74 1.17-.74.83 0 1.19.27 1.27.8l.9-.05c-.12-1-.8-1.47-2.17-1.47-1.34 0-2.1.53-2.1 1.5 0 .81.45 1.22 1.52 1.44l1.04.2c.56.11.87.24.87.72 0 .52-.45.78-1.28.78-.95 0-1.36-.28-1.42-.87l-.9.06C1.07-.36 1.8.16 3.35.16zm0 0"/></symbol><symbol overflow="visible" id="90931a5fE"><path d="M3.16 2.03c1.67 0 2.4-.86 2.4-2.51v-4.54h-.81l-.13.91h-.06c-.26-.58-.8-1.05-1.73-1.05-1.42 0-2.24 1-2.24 2.52 0 1.6.75 2.56 2.2 2.56.94 0 1.5-.5 1.77-1.03h.05v.72c0 1.17-.42 1.67-1.45 1.67-.93 0-1.3-.34-1.41-.89L.8.5c.12.96.87 1.54 2.36 1.54zM3.06-.8c-.98 0-1.48-.57-1.48-1.82 0-1.13.5-1.75 1.48-1.75 1.06 0 1.58.76 1.58 1.75 0 .95-.56 1.82-1.58 1.82zm0 0"/></symbol><symbol overflow="visible" id="90931a5fF"><path d="M1.45-7.1c1.96.33 2.8 1.94 2.8 4.15 0 2.2-.84 3.8-2.8 4.17l.11.67c2.58-.47 3.67-2.28 3.67-4.84 0-2.55-1.09-4.36-3.67-4.85zm0 0"/></symbol></defs><g fill="#515151"><use xlink:href="#90931a5fa" x="142.83" y="148"/><use xlink:href="#90931a5fb" x="179.19" y="148"/></g><use xlink:href="#90931a5fc" x="214.17" y="148" fill="#fff"/><use xlink:href="#90931a5fd" x="247.23" y="148" fill="#fff"/><use xlink:href="#90931a5fe" x="280.29" y="148" fill="#515151"/><g fill="#515151"><use xlink:href="#90931a5ff" x="333.75" y="148"/><use xlink:href="#90931a5fg" x="360.99" y="148"/></g><use xlink:href="#90931a5fh" x="389.79" y="148" fill="#fff"/><use xlink:href="#90931a5fi" x="410.43" y="148" fill="#fff"/><use xlink:href="#90931a5fj" x="427.71" y="148" fill="#515151"/><g fill="#fff"><use xlink:href="#90931a5fk" x="236.6667" y="252"/><use xlink:href="#90931a5fl" x="243.3337" y="252"/><use xlink:href="#90931a5fm" x="250.0007" y="252"/><use xlink:href="#90931a5fn" x="256.6677" y="252"/><use xlink:href="#90931a5fo" x="263.3347" y="252"/><use xlink:href="#90931a5fp" x="270.0017" y="252"/><use xlink:href="#90931a5fq" x="276.6687" y="252"/><use xlink:href="#90931a5fr" x="283.3357" y="252"/><use xlink:href="#90931a5fs" x="290.0027" y="252"/><use xlink:href="#90931a5ft" x="296.6697" y="252"/><use xlink:href="#90931a5fs" x="303.3367" y="252"/><use xlink:href="#90931a5fu" x="310.0037" y="252"/><use xlink:href="#90931a5fp" x="316.6707" y="252"/><use xlink:href="#90931a5fv" x="323.3377" y="252"/><use xlink:href="#90931a5fl" x="330.0047" y="252"/><use xlink:href="#90931a5fw" x="336.6717" y="252"/><use xlink:href="#90931a5ft" x="343.3387" y="252"/><use xlink:href="#90931a5fw" x="350.0057" y="252"/><use xlink:href="#90931a5fx" x="356.6727" y="252"/></g><g fill="#fff"><use xlink:href="#90931a5fy" x="196.6667" y="266"/><use xlink:href="#90931a5fl" x="203.3337" y="266"/><use xlink:href="#90931a5fx" x="210.0007" y="266"/><use xlink:href="#90931a5fn" x="216.6677" y="266"/><use xlink:href="#90931a5fz" x="223.3347" y="266"/><use xlink:href="#90931a5fA" x="230.0017" y="266"/><use xlink:href="#90931a5fl" x="236.6687" y="266"/><use xlink:href="#90931a5fo" x="243.3357" y="266"/><use xlink:href="#90931a5fp" x="250.0027" y="266"/><use xlink:href="#90931a5fq" x="256.6697" y="266"/><use xlink:href="#90931a5fx" x="263.3367" y="266"/><use xlink:href="#90931a5fn" x="270.0037" y="266"/><use xlink:href="#90931a5fx" x="276.6707" y="266"/><use xlink:href="#90931a5fw" x="283.3377" y="266"/><use xlink:href="#90931a5fx" x="290.0047" y="266"/><use xlink:href="#90931a5fB" x="296.6717" y="266"/><use xlink:href="#90931a5fp" x="303.3387" y="266"/><use xlink:href="#90931a5fC" x="310.0057" y="266"/><use xlink:href="#90931a5fD" x="316.6727" y="266"/><use xlink:href="#90931a5fl" x="323.3397" y="266"/><use xlink:href="#90931a5fn" x="330.0067" y="266"/><use xlink:href="#90931a5fp" x="336.6737" y="266"/><use xlink:href="#90931a5fw" x="343.3407" y="266"/><use xlink:href="#90931a5fx" x="350.0077" y="266"/><use xlink:href="#90931a5fB" x="356.6747" y="266"/><use xlink:href="#90931a5fE" x="363.3417" y="266"/><use xlink:href="#90931a5fz" x="370.0087" y="266"/><use xlink:href="#90931a5fx" x="376.6757" y="266"/><use xlink:href="#90931a5fE" x="383.3427" y="266"/><use xlink:href="#90931a5fl" x="390.0097" y="266"/><use xlink:href="#90931a5fF" x="396.6767" y="266"/></g></svg>