<?xml version='1.0' encoding='UTF-8'?>
<svg xmlns="http://www.w3.org/2000/svg" xmlns:xlink="http://www.w3.org/1999/xlink" width="1000px" height="2125.98px" viewBox="0 0 1000 2125.98" y="0px" x="0px" enable-background="new 0 0 1000 2125.98"><defs><symbol overflow="visible" id="b11f490ea"><path d="M1.281-8.234v8.203c.703.11 1.844.203 2.735.203 2.515 0 3.75-.984 3.75-2.563 0-1.046-.641-1.765-1.75-2.03.875-.376 1.312-1.063 1.312-1.907 0-1.36-1.266-2.11-3.422-2.11-.828 0-1.906.11-2.625.204zm4.625 2.171c0 .485-.25.813-.625 1-.328.172-.75.25-1.343.25-.344 0-.782 0-1.297-.015v-2.36c.437-.046.89-.062 1.265-.062 1.281 0 2 .297 2 1.188zM4.078-1c-.39 0-.922-.016-1.437-.063v-2.656c.53 0 1.171-.015 1.468-.015 1.657 0 2.25.468 2.25 1.343 0 .47-.25.86-.671 1.079-.391.218-.938.312-1.61.312zm0 0"/></symbol><symbol overflow="visible" id="b11f490eb"><path d="M1.281-8.266V0h5.766L7-1.172H2.656V-3.64h3.5v-1.171h-3.5v-2.282h4.328l.047-1.172zm0 0"/></symbol><symbol overflow="visible" id="b11f490ec"><path d="M1.281-8.266V0h1.39v-3.313H6v-1.171H2.672v-2.61h4.14l.047-1.172zm0 0"/></symbol><symbol overflow="visible" id="b11f490ed"><path d="M.781-4.016C.781-1.719 2.187.188 4.813.188 7.608.188 8.89-2 8.89-4.25c0-2.281-1.391-4.203-4.016-4.203-2.813 0-4.094 2.187-4.094 4.437zm6.688-.156c0 1.063-.313 2.094-1.063 2.656-.39.282-.906.485-1.562.485-1.735 0-2.64-1.407-2.64-3.094 0-1.047.343-2.063 1.077-2.625.39-.281.906-.484 1.547-.484 1.734 0 2.64 1.375 2.64 3.062zm0 0"/></symbol><symbol overflow="visible" id="b11f490ee"><path d="M3.594-4.25c-.297 0-.594-.016-.922-.031v-2.86c.406-.03.828-.046 1.156-.046 1.438 0 2.25.453 2.25 1.39 0 .61-.312 1.031-.797 1.25-.422.219-1 .297-1.687.297zM1.28-8.234V0h1.39v-3.094c.329.016.704.031.954.031a6 6 0 0 0 .781-.046L6.313 0h1.421a2.201 2.201 0 0 0-.343-.703L5.687-3.406C6.845-3.86 7.5-4.72 7.5-5.875c0-1.625-1.328-2.563-3.688-2.563-.89 0-1.828.079-2.53.204zm0 0"/></symbol><symbol overflow="visible" id="b11f490ef"><path d="M4.188-6.86h.046l.625 1.782.641 1.89H2.828zm-.735-1.406L.5-.656C.39-.406.328-.187.281 0h1.39l.75-2.063h3.47L6.578 0h1.406a6.013 6.013 0 0 0-.234-.688L4.984-8.313zm0 0"/></symbol><symbol overflow="visible" id="b11f490eg"><path d="M.406-8.266l.047 1.204h2.844V0h1.406v-7.063h2.86l.046-1.203zm0 0"/></symbol></defs><path d="M81.04 1769.16h34.233l21.067-22.555h.879l21.066 22.555h34.235l-39.5-41.598h-32.48zm-46.524 121.856c0 63.273 45.937 107.21 101.53 107.21 40.966 0 63.497-25.19 63.497-25.19h.586s-.293 4.394-.293 8.788v12.89h25.457v-103.991h-59.984v25.191h33.648v29.879s-22.824 25.777-58.52 25.777c-43.304 0-76.078-33.097-76.078-81.14 0-44.23 29.262-79.676 77.832-79.676 35.114 0 58.23 20.215 58.23 20.215l14.63-21.68s-25.75-24.898-75.2-24.898c-60.273 0-105.335 46.867-105.335 106.625m231.152-66.786h24.871c0-8.789 2.047-16.406 9.656-16.406 12.582 0 17.555 16.7 42.426 16.7 21.36 0 30.723-15.528 30.723-39.84h-24.871c0 8.496-.582 16.406-9.364 16.406-12.582 0-18.14-16.7-42.132-16.7-20.48 0-31.309 12.598-31.309 39.84m-12.875 128.887c0 29.586 24.871 45.11 50.328 45.11 35.406 0 47.402-29.293 47.402-29.293h.582s-.582 4.98-.582 11.718v14.063h26.332v-93.738c0-37.497-21.066-58-58.52-58-33.94 0-55.3 17.574-55.3 17.574l11.703 20.8s18.434-14.355 41.258-14.355c18.727 0 32.477 8.203 32.477 32.516v2.636h-6.434c-24.871 0-89.246 2.051-89.246 50.97m28.676-1.466c0-26.656 38.625-28.12 59.984-28.12h7.313v4.687c0 21.968-15.508 47.16-39.5 47.16-18.434 0-27.797-11.715-27.797-23.727m182.289-143.242v21.387h58.52v32.512c0 5.566.585 9.96.585 9.96h-.586s-11.41-23.433-45.644-23.433c-39.207 0-67.004 30.465-67.004 74.695 0 45.992 25.164 74.696 65.25 74.696 36.574 0 48.57-27.532 48.57-27.532h.586s-.293 4.098-.293 9.957v14.063h26.918v-164.918h22.238v-21.387H550.66v-20.504h-28.383v20.504zm-25.164 115.121c0-30.758 17.847-50.09 41.258-50.09 28.09 0 43.304 20.504 43.304 49.797 0 37.79-20.773 50.383-42.718 50.383-24.579 0-41.844-17.867-41.844-50.09M661.465 1775.766c-30.45 0-54.75 24.308-54.75 54.765v111.578c0 30.454 24.3 54.762 54.75 54.762 19.32 0 36.887-9.664 47.137-26.36 1.753-2.632 2.632-5.855 2.632-8.784a15.745 15.745 0 0 0-15.808-15.813c-5.563 0-10.246 2.637-13.469 7.906-4.098 7.32-11.71 11.715-20.492 11.715-13.176 0-23.422-10.25-23.422-23.426v-111.578c0-13.18 10.246-23.43 23.422-23.43 8.781 0 16.394 4.395 20.492 11.715 3.223 5.27 7.906 7.907 13.469 7.907a15.745 15.745 0 0 0 15.808-15.813c0-2.93-.879-6.152-2.632-8.785-10.25-16.695-27.817-26.36-47.137-26.36m23.129 263.274c0-10.832-3.516-20.203-10.25-26.355-4.977-4.684-8.782-7.32-16.98-7.32-8.489 0-14.637 5.269-14.637 13.761 0 7.91 4.097 10.836 7.027 13.18 2.926 2.343 4.683 4.101 4.683 6.734 0 3.516-2.05 7.031-6.734 8.496-5.27 1.754-10.246 6.442-10.246 14.348 0 8.492 6.441 14.937 14.93 14.937 3.515 0 6.734-1.172 10.539-2.93 13.176-6.44 21.668-19.327 21.668-34.85m86.062-260.345c-13.176 0-24.886 10.25-29.277 20.5-.879 2.051-1.465 3.516-1.465 7.028 0 7.324 6.441 12.3 13.762 12.3 5.855 0 9.074-2.343 11.71-6.148 3.22-4.395 4.977-6.445 8.489-6.445 6.148 0 15.809 14.058 32.5 14.058 13.758 0 23.422-9.078 28.691-19.035 1.758-3.515 2.633-6.445 2.633-9.078 0-7.031-4.976-12.594-14.05-12.594-4.977 0-8.786 3.223-12.004 7.907-2.637 3.808-3.516 5.859-7.32 5.859-6.15 0-16.102-14.352-33.669-14.352m24.301 57.692c-10.25 0-19.031 4.394-25.766 11.129-1.464-6.442-7.613-11.422-14.347-11.422-8.196 0-14.637 6.738-14.637 14.937v130.903c0 8.199 6.441 14.644 14.637 14.644 8.199 0 14.933-6.445 14.933-14.644v-95.762c.586-12.887 8.2-20.793 18.739-20.793 10.832 0 16.98 8.2 16.98 21.086v95.469c0 8.199 6.442 14.644 14.637 14.644 8.199 0 14.933-6.445 14.933-14.644v-98.692c0-28.992-19.03-46.855-40.109-46.855m97.195-65.305c-8.195 0-14.636 6.734-14.636 14.934 0 4.687 2.047 9.37 6.441 12.007 2.34 1.465 4.977 3.223 7.023 5.274l-8.195 6.441c-4.101 3.223-7.027 7.614-7.027 12.301 0 7.906 6.148 13.469 13.762 13.469 2.34 0 5.27-.586 7.609-2.34l13.762-10.543c3.804 3.805 11.418 16.691 13.175 22.254-3.515-1.172-11.125-2.047-15.812-2.047-21.957 0-43.621 14.934-43.621 46.855v59.45c0 28.992 21.37 47.441 47.43 47.441 26.054 0 47.43-21.379 47.43-47.441v-65.309c0-28.113-8.493-54.469-24.888-77.02l7.32-6.148c3.805-3.223 6.442-7.32 6.442-11.715 0-7.906-6.441-14.058-14.054-14.058-2.637 0-5.563.586-7.907 2.343l-10.539 8.493c-4.976-4.391-10.246-8.493-15.515-12.004-2.637-1.758-5.27-2.637-8.2-2.637m19.91 100.45c9.954 0 17.86 7.906 17.86 17.863v59.742c0 10.25-7.906 18.156-17.86 18.156-9.957 0-17.859-7.906-17.859-18.156v-59.742c0-9.957 7.902-17.864 17.86-17.864M835.668 1307.129c-2.09 0-4.484.598-6.277 2.691l-33.489 30.2c-2.093 2.09-3.289 4.484-3.289 7.175 0 5.082 4.485 9.567 9.57 9.567 2.391 0 4.485-.899 6.579-2.692l33.484-30.199c2.094-2.094 2.992-4.484 2.992-7.176 0-5.082-4.187-9.566-9.57-9.566M951.68 1307.129c-2.094 0-4.485.598-6.282 2.691l-33.488 30.2c-2.09 2.09-3.289 4.484-3.289 7.175 0 5.082 4.488 9.567 9.57 9.567 2.391 0 4.485-.899 6.579-2.692l33.488-30.199c2.09-2.094 2.988-4.484 2.988-7.176 0-5.082-4.183-9.566-9.566-9.566M313.922 1524.09c-7.774 8.375-15.246 18.539-15.246 30.2 0 16.148 13.453 29.003 30.496 29.003h5.98c5.082 0 9.567-4.188 9.567-9.27s-4.184-9.27-9.567-9.27h-5.98c-6.578 0-11.961-4.183-11.961-11.358 0-5.98 2.992-10.465 8.074-16.747l18.238-21.828s-27.523 6.578-29.601 9.27M246.352 505.703H214.32c-4.914 0-8.734 4.004-8.734 8.735 0 4.914 3.82 8.738 8.734 8.738h32.032c4.914 0 8.918-3.824 8.918-8.739 0-4.73-4.004-8.734-8.918-8.734" fill="#1a94e7"/><path d="M524.258 503.152c-6.188 0-11.102 5.098-11.102 11.286 0 6.187 4.914 11.101 11.102 11.101 6.187 0 11.285-4.914 11.285-11.101 0-6.188-5.098-11.286-11.285-11.286"/><path d="M565.387 489.504c-4.73 0-8.735 4.004-8.735 8.734 0 2.367.91 4.735 2.91 6.555l20.387 18.383c1.637 1.636 3.64 2.363 5.824 2.363 4.73 0 8.735-4.004 8.735-8.734 0-2.367-.91-4.735-2.91-6.551L571.21 491.87c-1.637-1.64-3.64-2.367-5.824-2.367M916.64 489.504c-4.73 0-8.734 4.004-8.734 8.734 0 2.367.91 4.735 2.91 6.555l20.383 18.383c1.64 1.636 3.64 2.363 5.824 2.363 4.735 0 8.739-4.004 8.739-8.734 0-2.367-.91-4.735-2.914-6.551l-20.383-18.383c-1.637-1.64-3.64-2.367-5.824-2.367" fill="#1a94e7"/><path d="M960.32 624.184v-81.356c0-5.094-4.004-9.098-9.101-9.098-5.094 0-9.282 4.004-9.282 9.098v59.516c-.542 8.191-5.093 12.922-11.648 12.922-6.73 0-10.555-5.094-10.555-13.106v-59.332c0-5.094-4.004-9.098-9.101-9.098-5.094 0-9.281 4.004-9.281 9.098v61.336c0 18.02 11.832 29.121 24.933 29.121 6.192 0 11.649-2.73 15.836-6.734a9.386 9.386 0 0 0 9.098 6.914c5.097 0 9.101-4.184 9.101-9.281m-82.445 6.734c1.637-1.637 2.73-4.004 2.73-6.55V502.608c0-5.097-4.187-9.285-9.28-9.285-5.098 0-9.102 4.188-9.102 9.285v36.762c-3.641-3.457-8.371-5.46-14.016-5.46-15.648 0-26.57 12.378-26.57 29.484v40.585c0 17.11 10.922 29.485 26.57 29.485 6.008 0 10.922-2.184 14.563-5.824 1.09 3.46 4.73 5.824 8.554 5.824 2.547 0 4.914-.91 6.551-2.547m-15.652-27.3c-.547 7.827-5.825 11.831-11.649 11.831-6.187 0-10.554-4.55-10.554-13.105v-37.309c0-8.555 4.367-13.105 10.554-13.105 9.102 0 11.649 6.918 11.649 19.472zm-98.641 40.948V543.012c0-5.098-4.004-9.282-9.098-9.282-4.187 0-7.644 2.547-8.738 6.004-3.637-3.636-8.55-5.824-14.558-5.824-15.653 0-26.57 12.38-26.57 29.485v40.585c0 17.11 10.917 29.485 26.57 29.485 5.64 0 10.375-2 14.015-5.278v16.563c0 6.188-4.914 11.102-11.101 11.102-6.192 0-8.739-6.004-14.2-6.004-4.914 0-9.28 4.367-9.28 9.28 0 9.466 14.925 14.923 23.48 14.923 16.195 0 29.48-13.285 29.48-29.485m-18.379-40.949c-.547 7.828-5.824 11.832-11.648 11.832-6.188 0-10.559-4.55-10.559-13.105v-37.309c0-8.555 4.371-13.105 10.559-13.105 8.734 0 11.648 6.55 11.648 18.383zm-58.969 20.75v-61.336c0-18.015-11.828-29.12-24.933-29.12-6.367 0-11.828 2.73-16.016 6.917-.91-4.004-4.73-7.098-8.918-7.098-5.094 0-9.097 4.184-9.097 9.282v81.355c0 5.094 4.003 9.098 9.097 9.098 5.098 0 9.281-4.004 9.281-9.098v-59.515c.368-8.008 5.098-12.922 11.649-12.922 6.734 0 10.558 5.097 10.558 13.105v59.332c0 5.094 4.004 9.098 9.098 9.098 5.098 0 9.281-4.004 9.281-9.098m-71.523 0c0-3.64-1.82-5.824-4.55-8.008-2.368-2.004-3.458-4.187-3.458-7.828v-45.136c0-16.196-13.105-29.485-29.305-29.485-7.644 0-14.921 2.914-20.566 8.555-1.816 1.82-2.727 4.004-2.727 6.37 0 4.915 4.368 9.282 9.282 9.282 2.547 0 4.55-.91 6.367-2.73 2.187-2.184 4.55-3.274 7.644-3.274 6.188 0 10.922 4.914 10.922 11.102v3.64l-20.203 8.918c-13.469 6.004-20.383 14.922-20.383 29.301 0 16.2 11.828 28.39 28.211 28.39 6.73 0 14.012-2.91 18.016-8.554 2.184 4.371 4.734 6.192 6.734 7.281a10.397 10.397 0 0 0 4.914 1.274c4.914 0 9.102-4.004 9.102-9.098m-26.39-20.203c0 6.188-4.915 11.102-11.65 11.102-6.734 0-10.554-4.188-10.554-10.555 0-5.645 2.91-9.281 9.098-12.012l13.105-5.824zm-54.962 20.203v-81.172c0-5.097-4.187-9.285-9.285-9.285-5.094 0-9.097 4.188-9.097 9.285v81.172c0 5.094 4.003 9.098 9.097 9.098 5.098 0 9.285-4.004 9.285-9.098m-33.125 0c0-3.64-1.636-6.008-4.55-8.008-2.364-1.64-3.457-3.46-3.457-6.187V502.426c0-5.098-4.188-9.102-9.282-9.102-4.914 0-9.101 4.004-9.101 9.102v107.926c0 8.918 4.55 17.472 12.375 21.84a10.42 10.42 0 0 0 4.914 1.273c4.914 0 9.101-4.004 9.101-9.098m-86.261 20.2V543.011c0-5.098-4.004-9.282-9.102-9.282-4.183 0-7.644 2.547-8.734 6.004-3.64-3.636-8.555-5.824-14.563-5.824-15.652 0-26.57 12.38-26.57 29.485v40.585c0 17.11 10.918 29.485 26.57 29.485 5.645 0 10.375-2 14.016-5.278v16.563c0 6.188-4.914 11.102-11.102 11.102-6.187 0-8.738-6.004-14.195-6.004-4.914 0-9.285 4.367-9.285 9.28 0 9.466 14.926 14.923 23.48 14.923 16.2 0 29.485-13.285 29.485-29.485m-18.383-40.949c-.547 7.828-5.824 11.832-11.649 11.832-6.187 0-10.554-4.55-10.554-13.105v-37.309c0-8.555 4.367-13.105 10.554-13.105 8.735 0 11.649 6.55 11.649 18.383zm-58.965 20.75v-61.336c0-18.015-11.832-29.12-24.934-29.12-6.37 0-11.832 2.73-16.02 6.917-.905-4.004-4.73-7.098-8.917-7.098-5.094 0-9.098 4.184-9.098 9.282v81.355c0 5.094 4.004 9.098 9.098 9.098 5.098 0 9.285-4.004 9.285-9.098v-59.515c.363-8.008 5.094-12.922 11.649-12.922 6.73 0 10.554 5.097 10.554 13.105v59.332c0 5.094 4.004 9.098 9.098 9.098 5.098 0 9.285-4.004 9.285-9.098m-71.527 0c0-3.64-1.82-5.824-4.551-8.008-2.363-2.004-3.457-4.187-3.457-7.828v-45.136c0-16.196-13.102-29.485-29.3-29.485-7.645 0-14.927 2.914-20.567 8.555-1.82 1.82-2.73 4.004-2.73 6.37 0 4.915 4.366 9.282 9.28 9.282 2.551 0 4.551-.91 6.372-2.73 2.183-2.184 4.55-3.274 7.644-3.274 6.188 0 10.918 4.914 10.918 11.102v3.64l-20.2 8.918c-13.468 6.004-20.386 14.922-20.386 29.301 0 16.2 11.832 28.39 28.211 28.39 6.734 0 14.016-2.91 18.02-8.554 2.183 4.371 4.73 6.192 6.734 7.281a10.397 10.397 0 0 0 4.914 1.274c4.914 0 9.098-4.004 9.098-9.098m-26.391-20.203c0 6.188-4.914 11.102-11.644 11.102-6.735 0-10.56-4.188-10.56-10.555 0-5.645 2.915-9.281 9.102-12.012l13.102-5.824zm-54.96 20.02v-81.356c0-5.094-4.005-9.098-9.099-9.098-5.097 0-9.285 4.004-9.285 9.098v59.516c-.543 8.191-5.093 12.922-11.648 12.922-6.73 0-10.555-5.094-10.555-13.106v-59.332c0-5.094-4.004-9.098-9.097-9.098-5.098 0-9.286 4.004-9.286 9.098v61.336c0 18.02 11.832 29.121 24.934 29.121 6.191 0 11.648-2.73 15.836-6.734a9.39 9.39 0 0 0 9.101 6.914c5.094 0 9.098-4.184 9.098-9.281m-75.89-24.57v-32.395c0-5.461-4.188-9.828-9.649-9.828H77.824a9.786 9.786 0 0 0-9.828 9.828c0 5.46 4.367 9.644 9.828 9.644H88.38v22.75c0 8.192-6.55 14.563-14.742 14.563-8.188 0-14.559-6.371-14.559-14.563v-69.16c0-8.187 6.371-14.742 14.559-14.742 5.46 0 10.191 2.73 12.742 7.281 2 3.278 4.914 4.914 8.371 4.914a9.786 9.786 0 0 0 9.828-9.828c0-1.82-.547-3.82-1.637-5.46-6.37-10.376-17.293-16.38-29.304-16.38-18.926 0-34.032 15.29-34.032 34.215v69.16c0 18.93 15.106 34.035 34.032 34.035 18.93 0 34.218-15.105 34.218-34.035"/><path d="M333.746 1054.738H304.73l-4.984 24.922h29.016zm0 0M708.96 924.621h.356l7.832 14.418h26.88l-17.801-30.437h-29.903l-29.902 30.437h28.3zm0 0" fill="#1a94e7"/><path d="M964.39 974.46c0-19.046-12.995-25.987-28.835-25.987-11.75 0-23.856 6.41-29.016 14.597h-.355s.89-3.207 1.78-7.832l7.829-40.23H885l-24.742 127.27h30.797l7.832-40.583c2.488-13.351 12.812-25.277 24.918-25.277 5.52 0 8.187 2.316 8.187 7.832 0 1.246-.176 3.203-.535 5.34l-10.32 52.687h30.793l11.215-57.672c.71-3.738 1.246-7.117 1.246-10.144m-114.453 10.144c.71-3.738 1.246-7.117 1.246-10.144 0-19.047-12.996-25.988-28.836-25.988-12.641 0-25.453 7.656-30.618 15.843h-.355s1.426-4.453 2.313-9.078l.89-4.629h-29.726l-17.797 91.668h30.793l7.832-40.582c2.492-13.351 12.816-25.277 24.918-25.277 5.52 0 8.187 2.316 8.187 7.832 0 1.246-.176 3.203-.531 5.34l-10.324 52.687h30.793zm-112.317 17.801S741 992.796 741 984.43c0-21.184-13.172-35.957-39.156-35.957-30.262 0-52.867 24.03-52.867 55.89 0 21.54 15.484 40.051 46.812 40.051 20.828 0 37.024-11.926 37.024-11.926l-7.833-22.96s-13.882 9.253-27.234 9.253c-11.39 0-17.976-6.05-17.976-16.375zm-26.523-20.824c0 1.066-.18 3.203-.18 3.203h-27.055c2.848-7.297 8.543-13.172 17.446-13.172 6.23 0 9.789 4.274 9.789 9.969m-95.766 12.457l36.848-43.43h-35.778l-24.207 30.258h-8.367l12.817-65.86h-30.793l-24.743 127.27h30.793l6.942-35.597h11.035l13.351 35.597h32.575l-20.473-47.879zm-126.375-9.434c.715-3.738 1.246-7.117 1.246-10.144 0-19.047-12.992-25.988-28.836-25.988-12.637 0-25.453 7.656-30.613 15.843h-.356s1.422-4.453 2.313-9.078l.89-4.629h-29.726l-17.8 91.668h30.792l7.832-40.582c2.492-13.351 12.817-25.277 24.922-25.277 5.52 0 8.188 2.316 8.188 7.832 0 1.246-.176 3.203-.536 5.34l-10.324 52.687h30.797zm-109.465 4.985c0-24.918-19.937-41.117-47.527-41.117-28.656 0-57.137 22.605-57.137 54.824 0 25.098 19.934 41.117 47.524 41.117 28.48 0 57.14-22.426 57.14-54.824m-31.152 1.96c0 16.731-13.172 27.231-25.453 27.231-9.79 0-16.91-6.226-16.91-16.91 0-16.73 13.527-27.766 25.632-27.766 9.614 0 16.73 6.586 16.73 17.446m-85.437-6.946c.715-3.738 1.246-7.117 1.246-10.144 0-19.047-12.992-25.988-28.836-25.988-11.746 0-23.851 6.41-29.011 14.597h-.356s.887-3.207 1.778-7.832l7.832-40.23h-30.793l-24.742 127.27h30.792l7.833-40.583c2.492-13.351 12.816-25.277 24.921-25.277 5.516 0 8.188 2.316 8.188 7.832 0 1.246-.18 3.203-.535 5.34l-10.324 52.687h30.796zM144.36 952.566l17.621-21.359s-15.128-18.336-49.128-18.336c-40.942 0-74.758 34.18-74.758 75.117 0 33.11 22.781 56.426 59.984 56.426 30.082 0 51.086-18.867 51.086-18.867l-12.105-24.742s-17.977 15.129-37.2 15.129c-20.117 0-29.55-13.704-29.55-30.082 0-20.114 15.308-44.5 43.609-44.5 17.625 0 30.441 11.214 30.441 11.214"/><path d="M61.617 351.219l-5.762 6.84h4.098l7.242-6.84zm0 0M405.863 361.297c0-1.8-1.215-3.508-4.547-3.508-3.734 0-6.3 2.25-6.3 5.399 0 2.25 1.757 3.464 4.59 3.464 3.78 0 6.257-2.203 6.257-5.355m-3.375.496c0 1.484-1.215 2.25-2.386 2.203-1.125.047-1.664-.582-1.664-1.348 0-1.171.988-2.25 2.382-2.207 1.172.047 1.668.543 1.668 1.352M454.73 359.363l4.184 7.246h4.547l7.066-7.246h-4.996l-3.87 4.094h-.134l-2.25-4.094zm0 0" fill="#1a94e7"/><path d="M682.246 361.254h-4.68l-.988 4.95h4.727zm0 0M961.605 360.938h-4.367l-4.906 25.246c-.133.718-.223 1.394-.223 1.933 0 3.871 2.79 4.77 5.176 4.77.672 0 1.305-.09 1.305-.09l.808-3.867s-.316.043-.718.043c-.946 0-2.028-.18-2.028-1.844 0-.496.09-1.082.227-1.711zm-13.007 18.406c0-5.895-4.453-9.946-10.801-9.946-7.152 0-14.082 5.985-14.082 13.817 0 5.937 4.453 10.031 10.844 10.031 7.02 0 14.039-5.984 14.039-13.902m-4.453.222c0 5.625-4.86 9.903-9.54 9.903-3.78 0-6.437-2.61-6.437-6.438 0-5.578 4.77-9.851 9.586-9.851 3.734 0 6.39 2.61 6.39 6.386m-21.464-5.488l.855-4.32a9.303 9.303 0 0 0-1.351-.09c-3.598 0-6.704 2.836-8.235 6.074h-.043s.27-.898.45-1.844l.808-3.96h-4.23l-4.41 22.769h4.367l1.574-8.277c1.035-5.313 4.816-10.489 9-10.489.539 0 .898.047 1.215.137m-16.965-3.914h-5.488l1.304-6.48h-4.23l-1.305 6.48h-3.062l-.672 3.555h2.968l-1.98 10.215c-.18.855-.27 1.62-.27 2.293 0 5.402 3.825 6.66 7.336 6.66.72 0 1.438-.09 1.438-.09l.766-3.867s-.54.09-1.305.09c-1.664 0-3.735-.454-3.735-3.555 0-.453.043-1.125.18-1.8l1.89-9.946h5.49zm-18.586 8.145c.18-1.036.316-2.028.316-2.88 0-4.14-2.61-6.03-6.66-6.03-4.547 0-8.191 3.105-9.406 5.355h-.09s.406-1.082.629-2.16l.496-2.656h-4.273l-4.41 22.769h4.363l1.98-10.394c.946-4.77 4.86-8.91 9.45-8.91 2.07 0 3.374 1.034 3.374 3.284 0 .766-.132 1.622-.312 2.567l-2.61 13.453h4.364zm-26.145 1.035c0-5.895-4.453-9.946-10.8-9.946-7.153 0-14.082 5.985-14.082 13.817 0 5.937 4.453 10.031 10.843 10.031 7.02 0 14.04-5.984 14.04-13.902m-4.454.222c0 5.625-4.863 9.903-9.543 9.903-3.777 0-6.433-2.61-6.433-6.438 0-5.578 4.77-9.851 9.586-9.851 3.734 0 6.39 2.61 6.39 6.386m-23.941-11.878l2.656-3.06s-3.465-4.23-11.476-4.23c-9.946 0-18.81 8.641-18.81 19.079 0 8.011 5.31 13.77 14.04 13.77 7.469 0 12.734-4.68 12.734-4.68l-1.933-3.508s-4.637 4.093-10.574 4.093c-6.122 0-9.676-4.273-9.676-9.898 0-7.742 6.3-14.762 14.355-14.762 5.578 0 8.684 3.195 8.684 3.195m-44.008 14.266s.719-2.297.719-4.14c0-4.907-2.79-8.415-8.684-8.415-7.652 0-13.23 6.57-13.23 14.13 0 5.671 4.093 9.718 10.754 9.718 4.906 0 8.683-2.969 8.683-2.969l-1.258-3.464s-3.332 2.656-7.246 2.656c-4.273 0-6.48-2.79-6.48-6.164 0-.453.047-.903.137-1.352zm-3.644-4.5c0 .719-.09 1.215-.09 1.215h-12.153c1.395-3.602 4.5-5.805 7.832-5.805 2.563 0 4.41 1.532 4.41 4.59m-18.632-3.375l.855-4.32a9.284 9.284 0 0 0-1.347-.09c-3.602 0-6.708 2.836-8.239 6.074h-.043s.27-.898.45-1.844l.808-3.96h-4.226l-4.41 22.769h4.363l1.574-8.277c1.035-5.313 4.816-10.489 9-10.489.539 0 .902.047 1.215.137m-22.95 18.629l4.41-22.77h-4.363l-2.027 10.352c-.852 4.453-4.543 8.91-9.09 8.91-2.61 0-3.418-1.262-3.418-3.242 0-.719.09-1.617.27-2.61l2.61-13.41h-4.364l-2.79 14.403c-.183 1.031-.316 1.976-.316 2.879 0 4.41 3.059 6.027 6.614 6.027 4.59 0 7.964-3.148 9.226-5.351h.09s-.36 1.078-.586 2.16l-.539 2.652zm-20.832-22.543h-5.492l1.305-6.48h-4.23l-1.305 6.48h-3.059l-.676 3.555h2.97l-1.977 10.215c-.184.855-.274 1.62-.274 2.293 0 5.402 3.828 6.66 7.336 6.66.723 0 1.442-.09 1.442-.09l.765-3.867s-.543.09-1.305.09c-1.668 0-3.738-.454-3.738-3.555 0-.453.047-1.125.184-1.8l1.886-9.946h5.493zm-19.082 5.356l2.43-2.836s-2.61-3.286-8.594-3.286c-7.515 0-14.039 6.211-14.039 13.95 0 5.851 4.137 9.898 10.707 9.898 5.582 0 9.274-3.375 9.274-3.375L702 386.406s-3.418 3.063-7.648 3.063c-4.051 0-6.66-2.656-6.66-6.438 0-5.488 4.68-9.851 9.808-9.851 3.781 0 5.941 2.34 5.941 2.34m-27.359 17.187l4.41-22.77h-4.363l-4.41 22.77zm-4.77-23.668c0-3.195-1.484-5.762-4.003-7.066-1.352-.72-3.016-1.036-4.95-1.036h-10.89l-6.211 31.77h4.453l2.297-11.742h7.652a12.15 12.15 0 0 0 4.723-.945c4.008-1.758 6.93-5.899 6.93-10.98m-4.59.312c0 3.332-1.707 5.851-4.141 7.02-.988.495-2.16.722-3.375.722h-6.477l2.43-12.285h6.434c3.285 0 5.129 1.664 5.129 4.543m-36.766 9.406c0-5.715-3.102-9.36-8.547-9.36-3.015 0-5.941 1.622-7.562 3.914h-.09s.36-.988.586-2.07l1.98-10.305h-4.367l-6.164 31.77h4.14l.36-1.754c.18-.988.18-1.844.18-1.844h.09c1.125 2.743 3.87 4.137 6.93 4.137 6.347 0 12.464-5.894 12.464-14.488m-4.453.316c0 6.524-4.5 10.395-8.414 10.395-3.555 0-5.086-2.61-5.086-5.762 0-5.445 3.644-10.484 8.371-10.484 3.195 0 5.129 2.207 5.129 5.851m-22.86 2.88s.72-2.298.72-4.142c0-4.906-2.79-8.414-8.684-8.414-7.653 0-13.23 6.57-13.23 14.13 0 5.671 4.093 9.718 10.753 9.718 4.906 0 8.688-2.969 8.688-2.969l-1.262-3.464s-3.332 2.656-7.246 2.656c-4.274 0-6.48-2.79-6.48-6.164 0-.453.046-.903.136-1.352zm-3.644-4.5c0 .718-.09 1.214-.09 1.214h-12.152c1.394-3.602 4.5-5.805 7.832-5.805 2.562 0 4.41 1.532 4.41 4.59m-24.3 7.965l4.726-24.48h-4.367l-4.903 25.246c-.136.718-.226 1.394-.226 1.933 0 3.871 2.789 4.77 5.175 4.77.676 0 1.305-.09 1.305-.09l.809-3.867s-.313.043-.719.043c-.945 0-2.023-.18-2.023-1.844 0-.496.09-1.082.222-1.711m-8.281-6.074c0-5.895-4.453-9.946-10.797-9.946-7.156 0-14.086 5.985-14.086 13.817 0 5.937 4.453 10.031 10.844 10.031 7.02 0 14.039-5.984 14.039-13.902m-4.453.222c0 5.625-4.86 9.903-9.54 9.903-3.78 0-6.437-2.61-6.437-6.438 0-5.578 4.774-9.851 9.586-9.851 3.735 0 6.39 2.61 6.39 6.386m-33.03 13.141l12.87-22.77h-4.679l-8.504 15.481c-.676 1.262-1.441 3.105-1.441 3.105h-.09s-.09-2.16-.227-3.105l-2.472-15.48h-4.32l4.05 22.769zm-16.739 0l6.164-31.77h-4.363l-2.07 10.622c-.18.808-.18 1.664-.18 1.664h-.09c-1.082-2.61-3.87-3.825-6.66-3.825-6.57 0-12.601 5.895-12.601 14.536 0 5.668 3.105 9.312 8.593 9.312 3.469 0 6.258-2.023 7.79-4.363h.085s-.265.765-.402 1.664l-.45 2.16zm-1.843-13.723c0 5.22-3.559 10.485-8.325 10.485-3.195 0-5.175-2.207-5.175-5.852 0-6.523 4.5-10.394 8.414-10.394 3.554 0 5.086 2.609 5.086 5.761m-21.555 2.97s.719-2.298.719-4.142c0-4.906-2.79-8.414-8.684-8.414-7.652 0-13.23 6.57-13.23 14.13 0 5.671 4.093 9.718 10.753 9.718 4.907 0 8.684-2.969 8.684-2.969l-1.258-3.464s-3.332 2.656-7.246 2.656c-4.273 0-6.48-2.79-6.48-6.164 0-.453.047-.903.136-1.352zm-3.645-4.5c0 .718-.09 1.214-.09 1.214H472.91c1.395-3.602 4.5-5.805 7.832-5.805 2.563 0 4.41 1.532 4.41 4.59m-18.632-3.375l.855-4.32a9.284 9.284 0 0 0-1.348-.09c-3.601 0-6.707 2.836-8.238 6.074h-.043s.27-.898.45-1.844l.808-3.96h-4.227l-4.41 22.769h4.363l1.575-8.277c1.035-5.313 4.816-10.489 9-10.489.543 0 .902.047 1.215.137m-18.946 4.68c0-5.715-3.101-9.36-8.547-9.36-3.554 0-6.347 1.891-7.922 4.274h-.09s.317-.899.497-1.8l.36-1.935h-4.052l-6.164 31.77h4.364l1.98-10.305c.227-1.168.316-2.113.316-2.113h.09c1.125 2.652 3.781 3.957 6.793 3.957 6.258 0 12.375-5.894 12.375-14.488m-4.453.316c0 6.524-4.457 10.395-8.414 10.395-3.465 0-5.086-2.656-5.086-5.852 0-5.308 3.692-10.394 8.371-10.394 3.195 0 5.13 2.207 5.13 5.851m-38.071 13.633l4.41-22.77h-4.363l-2.028 10.352c-.851 4.453-4.543 8.91-9.09 8.91-2.609 0-3.418-1.262-3.418-3.242 0-.719.09-1.617.27-2.61l2.61-13.41h-4.364l-2.793 14.403c-.18 1.031-.312 1.976-.312 2.879 0 4.41 3.058 6.027 6.613 6.027 4.59 0 7.965-3.148 9.226-5.351h.09s-.359 1.078-.586 2.16l-.539 2.652zm-20.7-18.629l.856-4.32a9.303 9.303 0 0 0-1.352-.09c-3.597 0-6.703 2.836-8.234 6.074h-.043s.27-.898.45-1.844l.808-3.96h-4.23l-4.41 22.769h4.366l1.575-8.277c1.035-5.313 4.816-10.489 9-10.489.539 0 .898.047 1.215.137m-16.965-3.914h-5.489l1.305-6.48h-4.23l-1.305 6.48h-3.063l-.671 3.555h2.968l-1.98 10.215c-.18.855-.27 1.62-.27 2.293 0 5.402 3.825 6.66 7.336 6.66.719 0 1.438-.09 1.438-.09l.765-3.867s-.539.09-1.304.09c-1.664 0-3.735-.454-3.735-3.555 0-.453.047-1.125.18-1.8l1.89-9.946h5.489zm-18.27 11.79s.719-2.298.719-4.142c0-4.906-2.79-8.414-8.684-8.414-7.648 0-13.23 6.57-13.23 14.13 0 5.671 4.098 9.718 10.758 9.718 4.902 0 8.683-2.969 8.683-2.969l-1.261-3.464s-3.329 2.656-7.243 2.656c-4.277 0-6.48-2.79-6.48-6.164 0-.453.043-.903.133-1.352zm-3.644-4.5c0 .718-.09 1.214-.09 1.214h-12.149c1.395-3.602 4.5-5.805 7.829-5.805 2.566 0 4.41 1.532 4.41 4.59m-21.645 1.035c.227-1.125.36-2.16.36-3.058 0-4.051-2.34-6.032-6.391-6.032-3.688 0-7.152 2.34-8.863 5.176h-.09c-.317-3.332-2.07-5.176-5.985-5.176-3.78 0-7.156 2.657-8.73 5.356h-.09s.36-.992.54-1.89l.585-2.926h-4.277l-4.41 22.769h4.367l2.023-10.348c.856-4.5 4.367-9 8.504-9 2.477 0 3.152 1.395 3.152 3.239 0 .765-.09 1.574-.27 2.566l-2.608 13.543h4.316l2.027-10.394c.856-4.32 4.14-8.954 8.414-8.954 2.477 0 3.243 1.348 3.243 3.329 0 .718-.09 1.484-.274 2.476l-2.652 13.543h4.363zm-41.086.18c.18-.856.274-1.8.274-2.52 0-4.906-3.559-6.75-7.922-6.75-4.817 0-8.594 2.383-8.594 2.383l1.168 3.465s3.285-2.156 6.797-2.156c3.058 0 4.094 1.437 4.094 3.555 0 .402 0 .945-.18 1.843h-1.125c-6.164 0-15.164 1.621-15.164 9 0 3.692 3.195 5.758 6.793 5.758 5.176 0 7.965-4.633 7.922-4.633h.09c-.047 0-.317.766-.497 1.801l-.449 2.293H280zm-4.902 3.105l-.18.766c-.812 3.375-3.828 7.2-7.473 7.2-2.519 0-3.644-1.395-3.644-2.97 0-4.636 6.977-4.996 10.172-4.996zm-15.617-7.695l.855-4.32a9.284 9.284 0 0 0-1.348-.09c-3.601 0-6.707 2.836-8.238 6.074h-.043s.27-.898.45-1.844l.808-3.96h-4.227l-4.41 22.769h4.364l1.574-8.277c1.035-5.313 4.816-10.489 9-10.489.539 0 .902.047 1.215.137m-19.887 4.59c.18-.856.27-1.8.27-2.52 0-4.906-3.555-6.75-7.922-6.75-4.813 0-8.594 2.383-8.594 2.383l1.172 3.465s3.281-2.156 6.793-2.156c3.058 0 4.093 1.437 4.093 3.555 0 .402 0 .945-.18 1.843h-1.124c-6.164 0-15.164 1.621-15.164 9 0 3.692 3.195 5.758 6.797 5.758 5.171 0 7.964-4.633 7.918-4.633h.09c-.044 0-.317.766-.497 1.801l-.449 2.293h4.05zm-4.906 3.105l-.18.766c-.809 3.375-3.824 7.2-7.469 7.2-2.52 0-3.644-1.395-3.644-2.97 0-4.636 6.972-4.996 10.168-4.996zm-17.73-3.015c0-5.715-3.106-9.36-8.552-9.36-3.554 0-6.343 1.891-7.918 4.274h-.09s.313-.899.497-1.8l.36-1.935h-4.052l-6.164 31.77h4.364l1.98-10.305c.227-1.168.316-2.113.316-2.113h.09c1.125 2.652 3.778 3.957 6.793 3.957 6.254 0 12.375-5.894 12.375-14.488m-4.453.316c0 6.524-4.457 10.395-8.418 10.395-3.465 0-5.082-2.656-5.082-5.852 0-5.308 3.688-10.394 8.367-10.394 3.196 0 5.133 2.207 5.133 5.851m-35.012-.406c.18-.856.27-1.8.27-2.52 0-4.906-3.555-6.75-7.918-6.75-4.816 0-8.594 2.383-8.594 2.383l1.168 3.465s3.285-2.156 6.797-2.156c3.059 0 4.094 1.437 4.094 3.555 0 .402 0 .945-.18 1.843h-1.125c-6.164 0-15.164 1.621-15.164 9 0 3.692 3.195 5.758 6.793 5.758 5.176 0 7.965-4.633 7.922-4.633h.09c-.047 0-.317.766-.496 1.801l-.45 2.293h4.051zm-4.902 3.105l-.18.766c-.812 3.375-3.828 7.2-7.472 7.2-2.52 0-3.645-1.395-3.645-2.97 0-4.636 6.977-4.996 10.172-4.996zm-27.18 10.934l12.868-22.77h-4.68l-8.504 15.481c-.676 1.262-1.441 3.105-1.441 3.105h-.09s-.09-2.16-.223-3.105l-2.477-15.48h-4.32l4.05 22.769zm-13.547-14.039c.18-.856.27-1.8.27-2.52 0-4.906-3.555-6.75-7.918-6.75-4.816 0-8.598 2.383-8.598 2.383l1.172 3.465s3.285-2.156 6.793-2.156c3.063 0 4.098 1.437 4.098 3.555 0 .402 0 .945-.18 1.843h-1.125c-6.168 0-15.168 1.621-15.168 9 0 3.692 3.196 5.758 6.797 5.758 5.176 0 7.965-4.633 7.918-4.633h.09c-.043 0-.313.766-.492 1.801l-.45 2.293h4.047zm-4.906 3.105l-.18.766c-.808 3.375-3.824 7.2-7.468 7.2-2.52 0-3.645-1.395-3.645-2.97 0-4.636 6.973-4.996 10.168-4.996zm-15.613-7.695l.855-4.32a9.284 9.284 0 0 0-1.347-.09c-3.602 0-6.707 2.836-8.239 6.074h-.043s.27-.898.45-1.844l.808-3.96h-4.226l-4.41 22.769h4.363l1.574-8.277c1.035-5.313 4.817-10.489 9-10.489.54 0 .902.047 1.215.137m-18.945 4.68c0-5.715-3.106-9.36-8.547-9.36-3.559 0-6.348 1.891-7.922 4.274h-.09s.316-.899.496-1.8l.36-1.935h-4.051l-6.164 31.77h4.363l1.98-10.305c.227-1.168.317-2.113.317-2.113h.09c1.125 2.652 3.777 3.957 6.793 3.957 6.257 0 12.375-5.894 12.375-14.488m-4.454.316c0 6.524-4.457 10.395-8.414 10.395-3.464 0-5.085-2.656-5.085-5.852 0-5.308 3.687-10.394 8.37-10.394 3.192 0 5.13 2.207 5.13 5.851m-24.75 2.61l4.05-20.747h-4.41l-4.008 20.387c-.945 4.95-4.633 7.828-9.539 7.828-4.23 0-6.703-2.113-6.703-5.847 0-.633.043-1.262.18-1.89l3.96-20.478h-4.41l-3.96 20.34c-.18.903-.27 1.754-.27 2.567 0 5.984 4.68 9.402 11.113 9.402 7.246 0 12.602-4.5 13.996-11.562"/><path d="M93.133 1159.969l-5.719 10.324h4.043l6.777-10.324zm0 0M284.023 1159.969l-5.722 10.324h3.98l6.781-10.324zm0 0M293.973 1159.969l-5.72 10.324h3.919l6.777-10.324zm0 0M363.762 1159.969l-5.723 10.324h4.043l6.781-10.324zm0 0" fill="#1a94e7"/><path d="M539.66 1169.672h4.664v-5.973h-4.664zm0 0"/><path d="M571.195 1159.969l-5.722 10.324h4.043l6.78-10.324zm0 0M793.742 1159.969l-5.722 10.324h4.043l6.78-10.324zm0 0M847.73 1159.969l-5.722 10.324h4.043l6.777-10.324zm0 0M891.89 1159.969l-5.722 10.324h4.043l6.781-10.324zm0 0" fill="#1a94e7"/><path d="M959.625 1206.367v-20.027c0-7.836-4.168-12.004-11.695-12.004-6.965 0-11.07 3.61-11.07 3.61l1.93 3.171s3.667-2.988 8.831-2.988c4.54 0 7.774 2.055 7.774 8.148v.809h-1.743c-5.41 0-19.156.25-19.156 10.762 0 6.218 5.473 9.265 10.637 9.265 7.836 0 10.574-6.965 10.512-6.965h.125s-.188 1.122-.188 2.676v3.543zm-4.23-14.492c0 5.414-3.543 11.633-9.579 11.633-4.664 0-6.964-2.988-6.964-5.91 0-6.903 9.828-7.09 14.8-7.09h1.743zm-42.918-8.895c0-3.421 3.05-4.789 6.16-4.789 5.164 0 7.836 2.864 7.836 2.864l1.93-3.297s-3.051-3.422-9.641-3.422c-5.723 0-10.574 3.047-10.574 8.644 0 10.204 16.667 8.524 16.667 15.364 0 3.234-3.046 4.914-6.28 4.914-5.848 0-9.333-3.793-9.333-3.793l-2.3 3.11s3.98 4.538 11.57 4.538c6.281 0 10.636-3.668 10.636-8.77 0-10.323-16.671-8.456-16.671-15.363m-16.73 23.387h4.042v-20.027c0-7.836-4.168-12.004-11.691-12.004-6.97 0-11.075 3.61-11.075 3.61l1.93 3.171s3.668-2.988 8.832-2.988c4.54 0 7.774 2.055 7.774 8.148v.809h-1.739c-5.414 0-19.16.25-19.16 10.762 0 6.218 5.477 9.265 10.637 9.265 7.84 0 10.574-6.965 10.512-6.965h.125s-.188 1.122-.188 2.676zm-.188-14.492c0 5.414-3.543 11.633-9.579 11.633-4.664 0-6.964-2.988-6.964-5.91 0-6.903 9.828-7.09 14.804-7.09h1.739zm-27.055 14.742c1.058 0 1.805-.125 1.805-.125v-3.855s-.563.125-1.43.125c-2.367 0-7.094-.934-7.094-8.211v-15.613h7.899v-3.547h-7.899v-8.954h-4.105v8.954h-4.168v3.546h4.105v16.047c0 10.45 7.278 11.633 10.887 11.633m-26.496-.25h4.23v-31.285h-4.23zm-8.399.25c.746 0 1.493-.125 1.493-.125v-3.855s-.434.062-.993.062c-1.617 0-3.484-.562-3.484-4.664v-35.394h-4.23v36.324c0 6.844 4.664 7.652 7.214 7.652m-15.3 0c.746 0 1.496-.125 1.496-.125v-3.855s-.438.062-.996.062c-1.618 0-3.485-.562-3.485-4.664v-35.394h-4.23v36.324c0 6.844 4.668 7.652 7.215 7.652m-20.711-.25h4.043v-20.027c0-7.836-4.168-12.004-11.692-12.004-6.969 0-11.074 3.61-11.074 3.61l1.93 3.171s3.668-2.988 8.832-2.988c4.539 0 7.773 2.055 7.773 8.148v.809h-1.738c-5.414 0-19.16.25-19.16 10.762 0 6.218 5.472 9.265 10.636 9.265 7.836 0 10.575-6.965 10.512-6.965h.125s-.187 1.122-.187 2.676zm-.188-14.492c0 5.414-3.543 11.633-9.578 11.633-4.664 0-6.965-2.988-6.965-5.91 0-6.903 9.828-7.09 14.805-7.09h1.738zm-26.558-.934s.125-1.43.125-2.175c0-7.774-4.477-14.43-13.125-14.43-8.395 0-15.422 6.156-15.422 16.422 0 9.64 7.09 16.355 16.355 16.355 7.094 0 11.57-4.351 11.57-4.351l-1.867-3.297s-3.793 3.793-9.515 3.793c-6.47 0-12.004-4.352-12.192-12.317zm-4.164-3.48h-19.72c1.06-6.223 5.598-9.582 10.821-9.582 4.606 0 8.586 3.05 8.899 9.582m-30.231 3.297c0-9.703-5.227-16.422-13.621-16.422-8.024 0-10.7 6.219-10.7 6.219h-.124s.187-1.121.187-2.61v-15.304h-4.23v43.726h4.105v-2.922c0-1.492-.187-2.55-.187-2.55h.125s2.863 6.218 10.328 6.218c8.207 0 14.117-6.406 14.117-16.355m-4.293 0c0 7.96-4.601 12.562-10.137 12.562-6.718 0-9.953-6.218-9.953-12.5 0-8.898 4.914-12.629 10.14-12.629 5.845 0 9.95 4.914 9.95 12.567m-59.273-1.93v-.125l10.882-13.621h-5.035l-9.332 11.941h-5.039v-24.382h-4.226v43.726h4.226v-15.61h5.102l10.386 15.61h5.04zm-20.961 2.113s.125-1.43.125-2.175c0-7.774-4.48-14.43-13.125-14.43-8.399 0-15.426 6.156-15.426 16.422 0 9.64 7.09 16.355 16.36 16.355 7.09 0 11.57-4.351 11.57-4.351l-1.868-3.297s-3.793 3.793-9.515 3.793c-6.473 0-12.004-4.352-12.192-12.317zm-4.168-3.48h-19.715c1.055-6.223 5.598-9.582 10.82-9.582 4.602 0 8.582 3.05 8.895 9.582m-36.074 18.906h4.167v-19.902c0-7.715-2.738-12.13-10.511-12.13-7.34 0-11.383 5.165-12.504 8.024h-.125s.187-1.058.187-2.425v-4.852h-4.168v31.285h4.23v-14.988c0-1.492.126-2.926.497-4.23 1.43-5.16 5.973-8.833 11.32-8.833 6.098 0 6.907 4.356 6.907 9.27zm-31.165-15.426s.125-1.43.125-2.175c0-7.774-4.476-14.43-13.125-14.43-8.394 0-15.421 6.156-15.421 16.422 0 9.64 7.09 16.355 16.355 16.355 7.094 0 11.57-4.351 11.57-4.351l-1.867-3.297s-3.793 3.793-9.515 3.793c-6.47 0-12.004-4.352-12.192-12.317zm-4.164-3.48h-19.718c1.058-6.223 5.597-9.582 10.824-9.582 4.601 0 8.582 3.05 8.894 9.582m-32.285 20.09v-32.469h-4.226v32.281c0 7.153-4.727 8.024-7.09 8.024-.813 0-1.371-.125-1.371-.125v3.734s.683.125 1.804.125c3.485 0 10.883-1.184 10.883-11.57m-12.437-16.61s.125-1.43.125-2.175c0-7.774-4.48-14.43-13.125-14.43-8.399 0-15.426 6.156-15.426 16.422 0 9.64 7.09 16.355 16.36 16.355 7.09 0 11.57-4.351 11.57-4.351l-1.868-3.297s-3.793 3.793-9.515 3.793c-6.469 0-12.004-4.352-12.192-12.317zm-4.168-3.48h-19.715c1.055-6.223 5.598-9.582 10.82-9.582 4.606 0 8.586 3.05 8.895 9.582M497.863 1179c.809 0 1.617.188 1.617.188v-4.231s-.808-.187-1.68-.187c-4.913 0-8.46 3.796-9.952 8.46h-.125s.187-1.058.187-2.425v-5.723h-4.168v31.285h4.23v-13.183c0-1.993.25-4.106.872-6.098 1.367-4.602 4.664-8.086 9.02-8.086m-22.333 11.941s.125-1.43.125-2.175c0-7.774-4.476-14.43-13.125-14.43-8.394 0-15.422 6.156-15.422 16.422 0 9.64 7.09 16.355 16.356 16.355 7.094 0 11.57-4.351 11.57-4.351l-1.863-3.297s-3.797 3.793-9.52 3.793c-6.468 0-12.004-4.352-12.191-12.317zm-4.164-3.48h-19.719c1.059-6.223 5.598-9.582 10.825-9.582 4.601 0 8.582 3.05 8.894 9.582m-43.293 25.375l15.363-37.754h-4.476l-9.082 22.828c-.559 1.555-1.059 3.297-1.059 3.297h-.125s-.496-1.805-1.117-3.36l-9.207-22.765h-4.601l13 31.04-1.93 4.413c-1.242 2.863-3.172 5.102-5.906 5.102-1.993 0-3.735-1.43-3.735-1.43l-1.617 3.418s2.238 1.805 5.535 1.805c4.106 0 7.34-2.551 8.957-6.594m-23.82-6.469h4.168v-19.902c0-7.715-2.738-12.13-10.516-12.13-7.336 0-11.379 5.165-12.5 8.024h-.125s.188-1.058.188-2.425v-4.852H381.3v31.285h4.23v-14.988c0-1.492.125-2.926.496-4.23 1.434-5.16 5.973-8.833 11.32-8.833 6.098 0 6.907 4.356 6.907 9.27zm-31.16-15.426s.12-1.43.12-2.175c0-7.774-4.476-14.43-13.12-14.43-8.399 0-15.43 6.156-15.43 16.422 0 9.64 7.094 16.355 16.36 16.355 7.093 0 11.57-4.351 11.57-4.351l-1.867-3.297s-3.793 3.793-9.516 3.793c-6.469 0-12.004-4.352-12.191-12.317zm-4.168-3.48h-19.719c1.059-6.223 5.598-9.582 10.824-9.582 4.602 0 8.582 3.05 8.895 9.582m-29.047-21.336c.93 0 1.492.125 1.492.125v-3.734s-.746-.184-1.93-.184c-3.48 0-10.761 1.305-10.761 11.629v1.43h-3.918v3.546h3.918v27.43h4.168v-27.43h8.023v-3.546h-8.023v-1.43c0-6.965 4.668-7.836 7.03-7.836m-37.32 24.508c0-9.332-7.34-16.297-16.484-16.297-9.14 0-16.543 6.965-16.543 16.297 0 9.39 7.403 16.48 16.543 16.48 9.145 0 16.485-7.09 16.485-16.48m-4.293 0c0 7.215-5.473 12.625-12.192 12.625-6.715 0-12.191-5.41-12.191-12.625 0-7.156 5.476-12.442 12.191-12.442 6.719 0 12.192 5.286 12.192 12.442m-47.645 22.203l15.363-37.754h-4.476l-9.082 22.828c-.559 1.555-1.059 3.297-1.059 3.297h-.125s-.496-1.805-1.117-3.36l-9.207-22.765h-4.602l13 31.04-1.93 4.413c-1.241 2.863-3.171 5.102-5.91 5.102-1.988 0-3.73-1.43-3.73-1.43l-1.617 3.418s2.238 1.805 5.535 1.805c4.106 0 7.34-2.551 8.957-6.594m-23.82-6.469h4.168v-19.902c0-7.715-2.739-12.13-10.516-12.13-7.34 0-11.383 5.165-12.5 8.024h-.125s.188-1.058.188-2.425v-4.852h-4.168v31.285h4.23v-14.988c0-1.492.125-2.926.496-4.23 1.43-5.16 5.973-8.833 11.32-8.833 6.098 0 6.907 4.356 6.907 9.27zM195.887 1179c.808 0 1.617.188 1.617.188v-4.231s-.809-.187-1.68-.187c-4.914 0-8.46 3.796-9.953 8.46h-.125s.188-1.058.188-2.425v-5.723h-4.168v31.285h4.23v-13.183c0-1.993.25-4.106.871-6.098 1.367-4.602 4.664-8.086 9.02-8.086m-22.328 11.941s.125-1.43.125-2.175c0-7.774-4.48-14.43-13.125-14.43-8.399 0-15.426 6.156-15.426 16.422 0 9.64 7.09 16.355 16.36 16.355 7.089 0 11.566-4.351 11.566-4.351l-1.864-3.297s-3.797 3.793-9.52 3.793c-6.468 0-12.003-4.352-12.19-12.317zm-4.168-3.48h-19.72c1.06-6.223 5.599-9.582 10.825-9.582 4.602 0 8.582 3.05 8.895 9.582m-30.23 3.297c0-9.703-5.224-16.422-13.622-16.422-8.273 0-10.883 6.344-10.883 6.344h-.125s.125-1.059.125-2.364v-3.234h-3.98v43.727h4.226v-15.114c0-1.617-.183-2.738-.183-2.738h.12s2.74 6.156 10.329 6.156c8.086 0 13.992-6.406 13.992-16.355m-4.289 0c0 7.96-4.605 12.562-10.14 12.562-6.47 0-9.954-6.218-9.954-12.5 0-8.898 4.914-12.629 10.141-12.629 5.848 0 9.953 4.914 9.953 12.567m-32.406.183s.125-1.43.125-2.175c0-7.774-4.48-14.43-13.125-14.43-8.399 0-15.426 6.156-15.426 16.422 0 9.64 7.09 16.355 16.36 16.355 7.09 0 11.57-4.351 11.57-4.351l-1.867-3.297s-3.793 3.793-9.516 3.793c-6.473 0-12.008-4.352-12.191-12.317zm-4.168-3.48H78.578c1.059-6.223 5.602-9.582 10.824-9.582 4.602 0 8.582 3.05 8.895 9.582m-42.36-3.984v-.122L69 1162.641h-4.852l-11.816 18.972H44.93v-18.972h-4.293v43.726h4.293v-20.898h7.402l12.563 20.898h4.976zm0 0"/><path d="M132.055 755.34h-11.446c-1.062 0-1.949.887-1.949 1.95 0 1.179.887 2.003 1.95 2.003h11.445c1.18 0 2.066-.824 2.066-2.004 0-1.062-.887-1.95-2.066-1.95M441.445 755.34H430c-1.063 0-1.95.887-1.95 1.95 0 1.179.887 2.003 1.95 2.003h11.445c1.18 0 2.063-.824 2.063-2.004 0-1.062-.883-1.95-2.063-1.95M602.395 752.688c-.473 0-.887.175-1.239.468l-4.722 3.66-4.72-3.66c-.355-.293-.765-.468-1.237-.468-1.063 0-1.891.824-1.891 1.945 0 .59.297 1.12.77 1.535l5.78 4.484c.356.235.766.47 1.298.47.53 0 .945-.235 1.3-.47l5.782-4.484c.472-.414.765-.945.765-1.535 0-1.121-.824-1.946-1.886-1.946M623.988 755.34H612.54a1.967 1.967 0 0 0-1.945 1.95c0 1.179.886 2.003 1.945 2.003h11.45c1.179 0 2.062-.824 2.062-2.004 0-1.062-.883-1.95-2.063-1.95" fill="#1a94e7"/><path d="M945.531 781.3v-12.507h11.621c1.18 0 2.067-.887 2.067-2.008 0-1.18-.887-2.062-2.067-2.062h-13.687c-1.18 0-2.063.882-2.063 2.062v18.883c0 1.18.883 2.062 2.063 2.062.828 0 1.418-.468 1.828-1.058 1.121-1.89 3.012-2.953 5.016-2.953 3.246 0 5.843 2.656 5.843 5.902v7.137c0 3.246-2.597 5.902-5.843 5.902-2.184 0-3.954-1.18-5.075-3.012-.41-.648-1.062-1.058-1.828-1.058-1.18 0-2.066.883-2.066 2.004 0 .414.12.765.355 1.18 1.828 3.128 5.016 4.956 8.614 4.956a9.923 9.923 0 0 0 9.972-9.972v-7.137c0-5.547-4.426-9.973-9.617-9.973-2.066 0-3.836.59-5.133 1.653m-28.082-14.516c0-1.18-.886-2.062-2.066-2.062h-17.227a2.051 2.051 0 0 0-2.066 2.062c0 1.121.945 2.008 2.066 2.008h6.547v35.93c0 1.18.887 2.066 2.067 2.066 1.18 0 2.12-.887 2.12-2.066v-35.93h6.493c1.18 0 2.066-.887 2.066-2.008m-29.797 30.031v-22.418c0-5.546-4.484-9.972-10.027-9.972a9.923 9.923 0 0 0-9.973 9.972v22.418a9.923 9.923 0 0 0 9.973 9.973c5.543 0 10.027-4.426 10.027-9.973m-4.187 0a5.82 5.82 0 0 1-5.84 5.844c-3.246 0-5.785-2.597-5.785-5.844v-22.418c0-3.246 2.539-5.902 5.785-5.902 3.242 0 5.84 2.656 5.84 5.902zm-26.727 0v-30.324c0-1.18-.945-2.066-2.125-2.066-1.18 0-2.066.886-2.066 2.066v30.324a5.817 5.817 0 0 1-5.84 5.844c-1.121 0-1.945-.297-2.773-.77-.414-.175-.649-.292-1.18-.292-1.18 0-2.067 1.004-2.067 2.125 0 .707.356 1.355 1.004 1.77 1.301.765 3.13 1.296 5.016 1.296 5.547 0 10.031-4.426 10.031-9.973m-24.308 0v-22.418c0-5.546-4.485-9.972-10.028-9.972a9.923 9.923 0 0 0-9.972 9.972v22.418a9.923 9.923 0 0 0 9.972 9.973c5.543 0 10.028-4.426 10.028-9.973m-4.188 0a5.82 5.82 0 0 1-5.84 5.844c-3.246 0-5.785-2.597-5.785-5.844v-22.418c0-3.246 2.54-5.902 5.785-5.902 3.243 0 5.84 2.656 5.84 5.902zm-24.308-30.03c0-1.18-.887-2.063-2.067-2.063h-17.226a2.051 2.051 0 0 0-2.067 2.062c0 1.121.946 2.008 2.067 2.008h6.547v35.93c0 1.18.886 2.066 2.066 2.066 1.18 0 2.125-.887 2.125-2.066v-35.93h6.488c1.18 0 2.067-.887 2.067-2.008m-41.774 35.578v-15.34h9.856c1.12 0 2.004-.882 2.004-2.062 0-1.121-.883-2.066-2.004-2.066h-9.856v-14.102h11.153c1.18 0 2.066-.887 2.066-2.008 0-1.18-.887-2.062-2.067-2.062H760.04a2.051 2.051 0 0 0-2.066 2.062v37.645c0 1.18.945 2.062 2.066 2.062h13.274c1.18 0 2.066-.883 2.066-2.062 0-1.18-.887-2.067-2.067-2.067zm-16.164 2.36v-38.23c0-1.18-.945-2.067-2.066-2.067-1.18 0-2.121.886-2.121 2.066v38.23c0 1.18.941 2.067 2.12 2.067a2.055 2.055 0 0 0 2.067-2.066m-12.742-.293a2.055 2.055 0 0 0-2.067-2.067h-11.093v-35.87c0-1.18-.942-2.067-2.121-2.067-1.18 0-2.067.886-2.067 2.066v37.938c0 1.18.887 2.062 2.008 2.062h13.274c1.18 0 2.066-.883 2.066-2.062m-44.25-7.614v-30.324c0-1.18-.945-2.066-2.125-2.066-1.18 0-2.063.886-2.063 2.066v30.324a5.82 5.82 0 0 1-5.843 5.844c-3.243 0-5.782-2.597-5.782-5.844v-30.324c0-1.18-.941-2.066-2.12-2.066-1.184 0-2.067.886-2.067 2.066v30.324a9.922 9.922 0 0 0 9.969 9.973c5.547 0 10.03-4.426 10.03-9.973m-31.386 7.907v-38.23c0-1.18-.887-2.067-2.066-2.067-.883 0-1.594.472-1.946 1.3l-8.613 18.704-8.617-18.703c-.352-.829-1.063-1.301-1.945-1.301-1.18 0-2.067.886-2.067 2.066v38.23c0 1.243.887 2.067 2.067 2.067 1.18 0 2.066-.887 2.066-2.066v-29.32l6.547 14.335c.355.766 1.062 1.239 1.95 1.239.882 0 1.589-.473 1.944-1.239l6.551-14.336v29.32c0 1.18.883 2.067 2.063 2.067 1.18 0 2.066-.824 2.066-2.066m-37.23 0v-38.23c0-1.18-.942-2.067-2.063-2.067-1.183 0-2.125.886-2.125 2.066v38.23c0 1.18.942 2.067 2.125 2.067a2.051 2.051 0 0 0 2.063-2.066m-16.34-2.36h-12.688l14.516-34.574c.117-.351.234-.707.234-1.004 0-1.18-.941-2.062-2.062-2.062h-15.871c-1.18 0-2.067.882-2.067 2.062 0 1.121.887 2.008 2.067 2.008h12.683l-14.515 34.574c-.117.356-.235.766-.235 1.063 0 1.18.946 2.062 2.067 2.062h15.87c1.18 0 2.063-.883 2.063-2.062 0-1.18-.882-2.067-2.062-2.067m-39.176 0v-15.34h9.852c1.12 0 2.007-.882 2.007-2.062 0-1.121-.886-2.066-2.007-2.066h-9.852v-14.102h11.149c1.183 0 2.066-.887 2.066-2.008 0-1.18-.883-2.062-2.066-2.062h-13.274a2.051 2.051 0 0 0-2.066 2.062v37.645c0 1.18.945 2.062 2.066 2.062h13.274c1.183 0 2.066-.883 2.066-2.062 0-1.18-.883-2.067-2.066-2.067zm-14.75 1.418l-6.078-16.168c3.66-1.414 6.254-4.957 6.254-9.203v-3.719a9.921 9.921 0 0 0-9.969-9.968h-7.965c-1.183 0-2.066.882-2.066 2.062v37.938c0 1.18.945 2.066 2.125 2.066a2.051 2.051 0 0 0 2.062-2.066V788.32h5.43l6.313 17.114c.293.824 1.003 1.355 2.003 1.355 1.184 0 2.067-.887 2.067-2.008 0-.41-.059-.707-.176-1m-9.793-19.531h-5.844v-15.457h5.844c3.184 0 5.84 2.715 5.84 5.898v3.72c0 3.187-2.656 5.839-5.84 5.839m-34.633 20.473c0-.235 0-.47-.117-.883l-10.504-37.938c-.234-.945-1.004-1.476-2.004-1.476-1.004 0-1.773.531-2.007 1.476l-10.504 37.938c-.118.414-.118.648-.118.883 0 1.12.887 2.066 2.067 2.066 1.062 0 1.828-.648 2.004-1.535l2.125-7.727H499.5l2.125 7.727c.234.887.941 1.535 2.004 1.535 1.18 0 2.066-.945 2.066-2.066m-7.316-11.27h-10.621l5.312-19.82zM474.78 804.43a2.055 2.055 0 0 0-2.066-2.067H461.62v-35.87c0-1.18-.941-2.067-2.121-2.067-1.18 0-2.066.886-2.066 2.066v37.938c0 1.18.886 2.062 2.003 2.062h13.278c1.18 0 2.066-.883 2.066-2.062m-26.375.293c0-.235 0-.47-.117-.883l-10.504-37.938c-.234-.945-1-1.476-2.004-1.476s-1.77.531-2.008 1.476l-10.5 37.938c-.117.414-.117.648-.117.883 0 1.12.883 2.066 2.063 2.066 1.062 0 1.828-.648 2.008-1.535l2.12-7.727h12.864l2.125 7.727c.234.887.945 1.535 2.004 1.535 1.18 0 2.066-.945 2.066-2.066m-7.316-11.27h-10.621l5.312-19.82zm-26.961 11.211v-38.23c0-1.18-.887-2.008-2.067-2.008a1.99 1.99 0 0 0-2.003 2.008v29.734l-14.34-30.383c-.41-.887-1.121-1.36-2.063-1.36-1.238 0-2.125.829-2.125 2.067v38.23c0 1.243.946 2.067 2.125 2.067 1.121 0 2.004-.887 2.004-2.066v-29.735l14.277 30.383c.473.945 1.184 1.418 2.125 1.418 1.18 0 2.067-.887 2.067-2.125m-31.625.059c0-.235 0-.47-.117-.883l-10.504-37.938c-.235-.945-1-1.476-2.004-1.476s-1.77.531-2.008 1.476l-10.5 37.938c-.117.414-.117.648-.117.883 0 1.12.883 2.066 2.062 2.066 1.063 0 1.829-.648 2.008-1.535l2.125-7.727h12.86l2.125 7.727c.234.887.945 1.535 2.003 1.535a2.052 2.052 0 0 0 2.067-2.066m-7.317-11.27H364.57l5.309-19.82zm-24.777 10.031l-10.265-21.297 10.207-14.398c.293-.473.41-.883.41-1.297 0-1.18-.942-2.066-2.063-2.066-.77 0-1.36.414-1.828 1.062l-13.219 18.82v-17.816c0-1.18-.941-2.066-2.062-2.066-1.18 0-2.125.886-2.125 2.066v38.23c0 1.18.945 2.067 2.125 2.067a2.051 2.051 0 0 0 2.062-2.066V790.8l3.66-5.016 9.438 19.766c.414.707 1.063 1.238 1.95 1.238 1.179 0 2.124-.887 2.124-2.066 0-.41-.12-.707-.414-1.239m-60.062-25.015c-1.063-1.063-1.653-2.535-1.653-4.07a5.817 5.817 0 0 1 5.844-5.84c2.063 0 4.012 1.058 5.074 2.949.41.707 1.117 1.004 1.77 1.004 1.18 0 2.12-.887 2.12-2.008 0-.356-.116-.766-.35-1.18-1.77-3.066-5.075-4.898-8.614-4.898-5.547 0-10.031 4.484-10.031 9.972 0 2.594 1.004 5.133 2.832 6.961l10.441 10.739c1.121 1.12 1.832 2.715 1.832 4.308a6.195 6.195 0 0 1-6.195 6.196c-2.184 0-4.133-1.122-5.313-3.13-.41-.706-1.062-1.062-1.77-1.062-1.179 0-2.124.945-2.124 2.125 0 .414.121.766.297 1.063 1.828 3.066 5.133 5.132 8.91 5.132 5.723 0 10.383-4.601 10.383-10.324 0-2.597-1.063-5.254-2.95-7.14zm-27.61 23.894v-15.34h9.852c1.12 0 2.008-.882 2.008-2.062 0-1.121-.887-2.066-2.008-2.066h-9.852v-14.102h11.149c1.183 0 2.066-.887 2.066-2.008 0-1.18-.883-2.062-2.066-2.062h-13.274a2.051 2.051 0 0 0-2.066 2.062v37.645c0 1.18.945 2.062 2.066 2.062h13.274c1.183 0 2.066-.883 2.066-2.062 0-1.18-.883-2.067-2.066-2.067zm-16.168 2.36v-38.23c0-1.18-.941-2.067-2.062-2.067-1.18 0-2.125.886-2.125 2.066v38.23c0 1.18.945 2.067 2.125 2.067a2.051 2.051 0 0 0 2.062-2.066m-13.449-37.938c0-1.18-.887-2.062-2.066-2.062h-17.227a2.051 2.051 0 0 0-2.066 2.062c0 1.121.945 2.008 2.066 2.008h6.547v35.93c0 1.18.887 2.066 2.066 2.066 1.18 0 2.121-.887 2.121-2.066v-35.93h6.493c1.18 0 2.066-.887 2.066-2.008m-41.773 35.578v-15.34h9.855c1.121 0 2.004-.882 2.004-2.062 0-1.121-.883-2.066-2.004-2.066h-9.855v-14.102H202.5c1.18 0 2.063-.887 2.063-2.008 0-1.18-.883-2.062-2.063-2.062h-13.277a2.048 2.048 0 0 0-2.063 2.062v37.645c0 1.18.942 2.062 2.063 2.062H202.5c1.18 0 2.063-.883 2.063-2.062 0-1.18-.883-2.067-2.063-2.067zm-16.164 2.36v-38.23c0-1.18-.946-2.067-2.067-2.067-1.18 0-2.125.886-2.125 2.066v38.23c0 1.18.946 2.067 2.125 2.067a2.055 2.055 0 0 0 2.067-2.066m-12.746-.293a2.051 2.051 0 0 0-2.063-2.067h-11.094v-35.87c0-1.18-.945-2.067-2.125-2.067-1.18 0-2.062.886-2.062 2.066v37.938c0 1.18.883 2.062 2.004 2.062h13.277c1.18 0 2.063-.883 2.063-2.062m-40.415-2.067v-15.34h9.856c1.121 0 2.004-.882 2.004-2.062 0-1.121-.883-2.066-2.004-2.066h-9.856v-14.102h11.153c1.18 0 2.066-.887 2.066-2.008 0-1.18-.887-2.062-2.066-2.062h-13.274a2.051 2.051 0 0 0-2.066 2.062v37.645c0 1.18.945 2.062 2.066 2.062h13.274c1.18 0 2.066-.883 2.066-2.062 0-1.18-.887-2.067-2.066-2.067zM108.16 767.38c.117-.414.117-.652.117-.887a2.055 2.055 0 0 0-2.066-2.066c-1.059 0-1.828.648-2.004 1.535l-8.555 31.566-8.554-31.566c-.18-.887-.946-1.535-2.008-1.535-1.18 0-2.063.945-2.063 2.066 0 .235 0 .473.118.887l10.5 37.875c.238 1.004 1.003 1.535 2.007 1.535 1.004 0 1.77-.531 2.004-1.535zm-34.93 34.984H60.547l14.516-34.574c.117-.351.234-.707.234-1.004 0-1.18-.945-2.062-2.067-2.062H57.363c-1.183 0-2.066.882-2.066 2.062 0 1.121.883 2.008 2.066 2.008h12.684L55.53 803.367c-.117.356-.234.766-.234 1.063 0 1.18.945 2.062 2.066 2.062H73.23c1.184 0 2.067-.883 2.067-2.062 0-1.18-.883-2.067-2.067-2.067m-28.082 2.36v-38.23c0-1.18-.945-2.067-2.066-2.067-1.18 0-2.121.886-2.121 2.066v38.23c0 1.18.941 2.067 2.121 2.067a2.055 2.055 0 0 0 2.066-2.066"/><path d="M20 439.82h960M20 711.7h960M20 319.11h960M20 1116.906h960M20 858.117h960M20 1612.684h960M20 1257.11h960" fill="none" stroke="#d9dfdd"/><path d="M962.145 1391.746c0-2.691-.899-5.086-2.993-6.879-8.37-8.672-19.433-12.855-30.496-12.855-23.922 0-43.355 19.433-43.355 43.355v66.676c0 23.918 19.433 43.355 43.355 43.355 11.063 0 22.125-4.187 30.496-12.558 2.094-2.094 2.993-4.485 2.993-6.88 0-5.378-4.786-10.163-9.868-10.163-2.691 0-4.785.898-6.879 2.988-4.78 4.785-10.464 6.88-16.742 6.88-13.156 0-23.62-10.466-23.62-23.325v-66.973c0-13.156 10.464-23.62 23.62-23.62 6.278 0 11.961 2.39 16.742 6.874 2.094 2.094 4.188 2.992 6.88 2.992 5.081 0 9.867-4.785 9.867-9.867m-169.23 20.332c0-11.363 8.968-20.332 20.331-20.332 7.176 0 13.453 3.586 17.34 10.164 2.094 3.29 5.082 5.082 8.371 5.082 5.383 0 10.168-4.183 10.168-9.867 0-1.492-.598-3.586-1.195-5.082-6.578-11.66-19.735-20.031-34.684-20.031-22.129 0-40.066 17.937-40.066 40.066 0 13.156 6.578 25.414 17.34 32.887l31.097 21.531c5.082 3.586 8.672 9.867 8.672 17.64 0 11.958-9.57 21.528-21.23 21.528-8.371 0-14.653-4.187-18.836-11.062-1.797-3.29-4.785-4.786-8.375-4.786-5.68 0-9.868 4.485-9.868 9.868 0 1.793.301 3.289 1.2 4.785 7.175 12.855 20.629 20.93 35.879 20.93 22.722 0 40.96-18.239 40.96-41.262 0-13.457-6.277-26.313-17.34-34.086l-30.796-21.23c-5.98-4.188-8.969-9.868-8.969-16.743m-56.21 69.965v-66.676c0-23.922-19.438-43.355-43.356-43.355-23.922 0-43.356 19.433-43.356 43.355v66.676c0 23.918 19.434 43.355 43.356 43.355 23.918 0 43.355-19.437 43.355-43.355m-19.734.297c0 12.86-10.465 23.324-23.621 23.324-13.157 0-23.621-10.465-23.621-23.324v-66.973c0-13.156 10.464-23.62 23.62-23.62 13.157 0 23.622 10.464 23.622 23.62zm-97.774 28.11l-41.86-75.95 40.364-45.746c1.797-1.793 2.692-4.184 2.692-6.578 0-5.68-4.485-10.164-9.868-10.164-2.691 0-5.382.894-7.472 3.586l-55.914 64.285V1315.5c0-5.68-4.485-10.168-9.867-10.168-5.68 0-9.868 4.488-9.868 10.168v200.031c0 5.383 4.188 9.867 9.868 9.867 5.382 0 9.867-4.484 9.867-9.867v-48.738l15.847-17.64 38.57 71.163c2.094 3.286 5.083 5.082 8.97 5.082 5.382 0 9.867-4.484 9.867-9.867 0-1.793-.598-3.289-1.196-5.082m-139.03 5.082V1315.5c0-5.68-4.485-10.168-9.868-10.168-5.68 0-9.867 4.488-9.867 10.168v68.469c-6.578-7.473-15.848-11.957-26.313-11.957-22.722 0-40.664 18.836-40.664 43.355v66.676c0 24.516 17.942 43.355 40.664 43.355 10.766 0 20.035-4.484 26.61-12.261.582 5.758 2.847 10.008 7.18 11.363 2.472.723 6.41.441 8.566-1.117 2.52-1.418 3.691-4.266 3.691-7.852m-19.734-34.683c-.899 15.547-11.66 25.113-23.922 25.113-13.156 0-23.32-10.164-23.32-25.113v-64.285c0-14.653 10.164-24.817 23.32-24.817 15.25 0 23.922 11.957 23.922 31.094zm-102.852-31.996v-28.704c0-26.011-15.848-48.136-43.355-48.136-27.508 0-43.356 22.125-43.356 48.136v61.895c0 21.828 16.742 39.469 35.281 41.559 4.852.503 8.848.476 12.258.054 12.594-1.55 21.594-5.55 24.524-8.281 2.246-2.094 4.78-5.527 4.78-9.414 0-4.184-3.331-8.262-6.847-9.461-1.36-.445-3.258-.613-4.933-.105-7.852 2.324-9.93 9.27-21.707 9.27-13.157 0-23.621-10.466-23.621-23.325v-23.621h57.109c5.379 0 9.867-4.184 9.867-9.867m-19.734-9.864h-47.242v-23.62c0-13.157 10.464-23.622 23.62-23.622 13.157 0 23.622 10.465 23.622 23.621zm-87.008-41.562c0-13.457-18.242-25.414-31.399-25.414-9.863 0-18.835 4.183-24.816 12.855-.894-5.68-2.691-12.855-9.566-12.855-8.075 0-9.868 8.668-9.868 15.547v122.59c0 6.578 1.793 15.25 9.868 15.25 7.773 0 9.867-8.672 9.867-15.551v-92.391c.598-19.133 11.96-25.71 20.629-25.71 14.054 0 16.445 15.245 25.418 15.245 5.68 0 9.867-4.484 9.867-9.566m-109.137-15.547v-18.84c0-28.105-22.426-50.531-50.531-50.531H50.805c-5.98 0-10.465 4.488-10.465 10.465v192.257c0 5.98 4.781 10.465 10.762 10.465 5.683 0 10.464-4.484 10.464-10.465v-83.12h29.602c28.105 0 50.531-22.426 50.531-50.231m-20.93 0c0 16.144-13.457 29.598-29.601 29.598H61.566v-78.336h29.602c16.144 0 29.602 13.453 29.602 29.898zm0 0"/><path d="M200.371 103.941c-1.23 0-2.215.493-3.2 1.23l-21.648 16.727-21.648-16.726c-.984-.738-1.969-1.23-3.195-1.23-2.707 0-4.922 2.214-4.922 4.917 0 1.477.738 2.954 1.969 3.938l24.843 19.187a4.73 4.73 0 0 0 2.953.985 4.73 4.73 0 0 0 2.954-.985l24.843-19.187c1.23-.984 1.97-2.461 1.97-3.938 0-2.703-2.216-4.918-4.919-4.918M565.922 98.281c-.985 0-2.211.25-3.195 1.235l-27.801 25.09c-.985.984-1.473 2.214-1.473 3.445a4.932 4.932 0 0 0 4.918 4.918c.984 0 2.215-.246 3.2-1.23l27.796-25.09c.985-.985 1.477-2.215 1.477-3.446a4.936 4.936 0 0 0-4.922-4.922M861.613 103.941c-1.23 0-2.215.493-3.199 1.23l-21.644 16.727-21.649-16.726c-.984-.738-1.969-1.23-3.2-1.23-2.706 0-4.921 2.214-4.921 4.917 0 1.477.738 2.954 1.969 3.938l24.847 19.187a4.73 4.73 0 0 0 2.954.985c.98 0 1.964-.246 2.949-.985l24.847-19.187c1.23-.984 1.97-2.461 1.97-3.938 0-2.703-2.216-4.918-4.923-4.918" fill="#1a94e7"/><path d="M960.996 206.77v-27.551c0-17.957-14.512-32.473-32.473-32.473-17.957 0-32.468 14.516-32.468 32.473v54.855c0 17.961 14.511 32.473 32.468 32.473 8.368 0 16.485-2.95 22.88-9.594.984-.984 1.476-2.215 1.476-3.441 0-2.707-2.461-4.922-4.918-4.922-.984 0-2.215.246-3.445 1.476-4.43 4.426-10.086 6.641-15.993 6.641a22.572 22.572 0 0 1-22.628-22.633v-22.383h50.183c2.703 0 4.918-1.968 4.918-4.921m-9.84-4.918h-45.261v-22.633a22.572 22.572 0 0 1 22.628-22.633 22.573 22.573 0 0 1 22.633 22.633zM815.86 234.074V179.22a22.572 22.572 0 0 1 22.63-22.633c5.906 0 11.562 2.215 15.991 6.64 1.23 1.231 2.461 1.477 3.446 1.477 2.703 0 4.918-2.46 4.918-4.918 0-1.23-.492-2.46-1.477-3.445-6.394-6.64-14.512-9.594-22.879-9.594-17.957 0-32.468 14.516-32.468 32.473v54.855c0 17.961 14.511 32.473 32.468 32.473 8.367 0 16.485-2.95 22.88-9.594.984-.984 1.476-2.215 1.476-3.441 0-2.707-2.461-4.922-4.918-4.922-.985 0-2.215.246-3.446 1.476-4.43 4.426-10.085 6.641-15.992 6.641a22.572 22.572 0 0 1-22.629-22.633m-38.129 27.801c0-.984-.246-2.953-2.707-4.43-4.918-2.953-8.609-7.87-8.609-14.511v-63.961c0-17.711-13.531-32.227-31.488-32.227-8.364 0-16.48 2.953-22.88 9.594-.984.984-1.476 2.215-1.476 3.445 0 2.457 2.215 4.918 4.922 4.918.985 0 2.215-.246 3.446-1.476 4.425-4.426 10.085-6.641 15.988-6.641 12.547 0 21.648 10.086 21.648 22.387v9.84l-32.472 14.265c-15.004 6.645-22.633 17.715-22.633 31.98 0 18.208 13.039 31.489 31.734 31.489 10.824 0 19.926-4.672 25.832-13.035 2.457 5.902 5.41 9.101 10.578 12.297 1.23.738 2.211.984 3.196.984 2.46 0 4.921-1.969 4.921-4.918m-21.156-27.8c0 12.792-10.086 22.632-23.37 22.632-13.036 0-21.895-8.855-21.895-21.648 0-9.84 5.414-17.711 16.484-22.63l28.781-12.792zm-77.242-79.95c.242-.738.488-1.723.488-2.46a4.932 4.932 0 0 0-4.918-4.919c-2.46 0-4.183 1.477-4.922 3.938l-28.043 94.707-28.042-94.707c-.739-2.461-2.461-3.938-4.922-3.938-2.703 0-4.918 2.215-4.918 4.918 0 .738.246 1.723.492 2.461l32.473 108.488c.492 1.965 2.21 3.934 4.918 3.934 2.707 0 4.43-1.969 4.921-3.934zm-94.715 107.75c0-.984-.242-2.953-2.703-4.43-4.922-2.953-8.61-7.87-8.61-14.511v-63.961c0-17.711-13.53-32.227-31.488-32.227-8.367 0-16.484 2.953-22.879 9.594-.984.984-1.476 2.215-1.476 3.445 0 2.457 2.215 4.918 4.922 4.918.98 0 2.21-.246 3.441-1.476 4.43-4.426 10.086-6.641 15.992-6.641 12.543 0 21.649 10.086 21.649 22.387v9.84l-32.473 14.265c-15.008 6.645-22.633 17.715-22.633 31.98 0 18.208 13.04 31.489 31.735 31.489 10.824 0 19.926-4.672 25.828-13.035 2.46 5.902 5.414 9.101 10.578 12.297 1.23.738 2.215.984 3.2.984 2.46 0 4.917-1.969 4.917-4.918m-21.152-27.8c0 12.792-10.086 22.632-23.371 22.632-13.04 0-21.895-8.855-21.895-21.648 0-9.84 5.41-17.711 16.48-22.63l28.786-12.792zm-67.41-69.864c0-4.691-4.77-9.535-9.02-12.516-4.558-3.187-10.113-4.949-14.625-4.949-8.61 0-17.437 3.691-22.355 12.055 0-4.43 1.23-12.055-4.922-12.055-6.395 0-4.918 8.117-4.918 12.793v94.219c0 4.672-1.477 12.789 4.918 12.789 6.398 0 4.922-8.363 4.922-13.035v-72.325c.492-18.453 12.3-24.601 20.172-24.601 5.355 0 9.617 2.48 12.554 5.176 3.801 3.476 4.68 6.941 8.762 6.941 2.703 0 4.512-2.125 4.512-4.492m-98.64 97.418v-81.18c0-18.695-12.548-33.703-30.505-33.703-10.086 0-18.941 4.43-24.601 12.547V96.809c0-2.707-2.215-4.922-4.918-4.922a4.936 4.936 0 0 0-4.922 4.922v164.82c0 2.707 2.215 4.918 4.922 4.918a4.932 4.932 0 0 0 4.918-4.918v-78.723c0-16.234 10.578-26.32 23.617-26.32 12.793 0 21.648 9.348 21.648 25.094v79.949a4.93 4.93 0 0 0 4.918 4.918c2.707 0 4.922-2.211 4.922-4.918m-104.3-54.86v-27.55c0-17.957-14.516-32.473-32.473-32.473s-32.473 14.516-32.473 32.473v54.855c0 17.961 14.516 32.473 32.473 32.473 8.363 0 16.48-2.95 22.879-9.594.984-.984 1.472-2.215 1.472-3.441 0-2.707-2.457-4.922-4.918-4.922-.984 0-2.215.246-3.445 1.476-4.426 4.426-10.086 6.641-15.988 6.641a22.573 22.573 0 0 1-22.633-22.633v-22.383h50.183c2.707 0 4.922-1.968 4.922-4.921m-9.84-4.918h-45.265v-22.633a22.573 22.573 0 0 1 22.633-22.633 22.573 22.573 0 0 1 22.632 22.633zM205.29 164.21c0-4.691-4.77-9.535-9.02-12.516-4.558-3.187-10.113-4.949-14.624-4.949-8.61 0-17.438 3.691-22.356 12.055 0-4.43 1.23-12.055-4.922-12.055-6.394 0-4.918 8.117-4.918 12.793v94.219c0 4.672-1.476 12.789 4.918 12.789 6.399 0 4.922-8.363 4.922-13.035v-72.325c.492-18.453 12.3-24.601 20.172-24.601 5.355 0 9.613 2.48 12.555 5.176 3.797 3.476 4.675 6.941 8.757 6.941 2.707 0 4.516-2.125 4.516-4.492M115.5 151.664v-15.496a38.004 38.004 0 0 0-38.129-38.129H43.914c-2.953 0-5.164 2.215-5.164 5.164v158.18c0 3.195 2.457 5.41 5.41 5.41 2.953 0 5.41-2.215 5.41-5.41v-71.586h27.801a38.007 38.007 0 0 0 38.129-38.133m-10.578 0c0 15.254-12.547 27.8-27.797 27.8H49.57v-71.093h27.555c15.25 0 27.797 12.543 27.797 27.797zm0 0"/><path d="M34.516 1891.008c0 63.277 45.937 107.219 101.53 107.219 40.966 0 63.497-25.192 63.497-25.192h.586s-.293 4.395-.293 8.79v12.89h25.453v-104h-59.98v25.195h33.648v29.88s-22.824 25.78-58.52 25.78c-43.304 0-76.078-33.101-76.078-81.148 0-44.235 29.262-79.68 77.832-79.68 35.114 0 58.227 20.211 58.227 20.211l14.633-21.676s-25.75-24.902-75.2-24.902c-60.277 0-105.335 46.871-105.335 106.633zm61.738-117.473h24.871l15.215-23.433h.586l15.508 23.433h24.87l-25.75-37.203h-29.55zm156.539 179.578c0 29.59 24.871 45.114 50.328 45.114 35.406 0 47.402-29.293 47.402-29.293h.586s-.586 4.98-.586 11.718v14.063h26.332v-93.746c0-37.496-21.066-58.004-58.52-58.004-33.94 0-55.3 17.578-55.3 17.578l11.703 20.8s18.434-14.355 41.258-14.355c18.727 0 32.477 8.203 32.477 32.516v2.637h-6.438c-24.87 0-89.242 2.05-89.242 50.972zm28.676-1.465c0-26.656 38.62-28.12 59.984-28.12h7.313v4.687c0 21.969-15.508 47.164-39.5 47.164-18.434 0-27.797-11.719-27.797-23.73zm-11.41-126.843h20.48c0-8.79 2.633-19.043 11.41-19.043 12.582 0 17.266 19.918 36.871 19.918 19.895 0 29.844-12.887 29.844-37.203h-20.48c0 8.496-2.637 19.043-11.414 19.043-12.582 0-17.262-19.922-36.868-19.922-19.898 0-29.843 12.597-29.843 37.207zm214.183 4.976h38.035v26.66c0 5.567.586 9.961.586 9.961h-.586s-11.41-23.437-45.644-23.437c-39.207 0-67.004 30.469-67.004 77.633 0 45.992 25.164 77.629 65.25 77.629 36.574 0 48.57-27.536 48.57-27.536h.586s-.293 4.102-.293 9.961v14.063h26.918V1829.78h22.238v-18.453H550.66v-23.437h-28.383v23.437h-38.035zm-45.648 90.817c0-33.692 19.312-53.024 42.722-53.024 28.09 0 41.84 26.363 41.84 52.73 0 37.79-20.773 53.317-42.718 53.317-24.579 0-41.844-20.8-41.844-53.023zm0 0M645.945 1995.32v7.024c0 1.949-.488 3.707-1.465 5.27a11.852 11.852 0 0 1-3.804 3.808c-3.906 2.144-6.395 5.312-7.465 9.512-1.074 4.195-.54 8.242 1.61 12.148 2.144 3.902 5.316 6.34 9.515 7.32 4.195.973 8.05.387 11.566-1.757 6.633-3.907 11.856-9.075 15.66-15.516 3.81-6.441 5.711-13.371 5.711-20.785v-7.024c6.442-2.152 12.442-5.316 18.004-9.515 5.563-4.192 10.102-9.414 13.614-15.66l3.222-5.563c2.145-3.902 2.68-7.95 1.61-12.148-1.075-4.196-3.563-7.364-7.465-9.516-3.906-2.145-7.86-2.68-11.856-1.61-4.004 1.075-7.078 3.563-9.222 7.465l-3.516 5.563c-2.539 4.492-6.293 7.809-11.27 9.953-4.98 2.149-10.007 2.54-15.078 1.172-5.27-1.559-9.472-4.39-12.59-8.492-3.124-4.098-4.683-8.875-4.683-14.344v-111.238c0-5.27 1.559-10 4.684-14.2 3.117-4.195 7.32-6.976 12.59-8.343 5.07-1.559 10.097-1.266 15.078.879 4.976 2.148 8.73 5.465 11.27 9.953l3.515 5.562c2.144 3.907 5.218 6.395 9.222 7.465 3.996 1.074 7.95.54 11.856-1.61 3.902-2.144 6.39-5.316 7.465-9.515 1.07-4.195.535-8.242-1.61-12.148l-3.222-5.563a56.691 56.691 0 0 0-11.563-13.906c-4.59-3.996-9.566-7.121-14.933-9.367-5.368-2.242-11.079-3.559-17.125-3.953-6.051-.387-12.106.199-18.153 1.757a52.576 52.576 0 0 0-16.25 7.465c-4.976 3.418-9.273 7.465-12.879 12.149-3.617 4.683-6.398 9.86-8.347 15.515-1.953 5.664-2.926 11.614-2.926 17.86v111.238c0 6.05.922 11.855 2.781 17.418a53.78 53.78 0 0 0 8.05 15.371 56.413 56.413 0 0 0 12.446 12.149c4.778 3.41 10.098 6 15.953 7.757zm125.598-184.132c.777-.391 1.363-.586 1.758-.586 1.949-.391 3.61-.098 4.976.875l2.633 2.05c8.004 5.856 16.492 7.903 25.473 6.149 4.488-.973 8.586-2.586 12.297-4.832 3.703-2.239 6.925-5.313 9.66-9.219 1.95-3.121 2.586-6.488 1.902-10.102-.683-3.609-2.683-6.484-6-8.636-2.93-1.946-6.199-2.532-9.808-1.754-3.614.781-6.395 2.734-8.344 5.855-1.563 1.754-3.028 2.633-4.39 2.633-.395.2-1.028.246-1.903.149-.879-.098-1.809-.54-2.781-1.32l-2.637-1.755c-7.613-5.855-16.008-8-25.18-6.441-4.492.976-8.636 2.684-12.441 5.121-3.805 2.445-6.98 5.418-9.516 8.93-2.148 3.32-2.832 6.734-2.047 10.246.774 3.512 2.633 6.344 5.559 8.488 3.121 1.953 6.488 2.59 10.101 1.906 3.61-.683 6.489-2.586 8.637-5.71.586-.973 1.27-1.657 2.051-2.047zm-5.27 30.152c-2.93-3.317-6.636-4.977-11.125-4.977-4.101 0-7.613 1.418-10.543 4.242-2.925 2.833-4.39 6.297-4.39 10.395v130.852c0 3.906 1.465 7.32 4.39 10.246 2.93 2.93 6.442 4.394 10.543 4.394 4.098 0 7.563-1.465 10.391-4.394 2.828-2.926 4.246-6.34 4.246-10.246v-98.067c0-5.074 1.707-9.367 5.125-12.879 3.414-3.515 7.656-5.27 12.735-5.27 5.074 0 9.37 1.755 12.882 5.27 3.512 3.512 5.27 7.805 5.27 12.88v98.066c0 3.906 1.414 7.32 4.246 10.246 2.828 2.93 6.293 4.394 10.39 4.394 4.102 0 7.563-1.465 10.395-4.394 2.828-2.926 4.246-6.34 4.246-10.246v-98.067c0-6.441-1.222-12.535-3.66-18.297-2.441-5.754-5.809-10.781-10.102-15.074-4.292-4.293-9.32-7.707-15.074-10.246-5.761-2.535-11.96-3.805-18.593-3.805-7.61 0-14.739 1.66-21.372 4.977zm98.368 107.726c0 6.442 1.27 12.543 3.808 18.297 2.531 5.758 5.95 10.785 10.246 15.075 4.29 4.296 9.317 7.714 15.078 10.246 5.754 2.535 11.856 3.808 18.297 3.808 6.442 0 12.54-1.273 18.301-3.808 5.754-2.532 10.781-5.95 15.074-10.246 4.293-4.29 7.711-9.317 10.25-15.075 2.532-5.754 3.805-11.855 3.805-18.297v-65.28c0-11.126-1.367-21.954-4.098-32.493-2.738-10.54-6.64-20.492-11.71-29.863a93.112 93.112 0 0 0-4.247-7.61 284.397 284.397 0 0 0-4.539-7.027l4.684-2.926c3.12-2.144 5.074-5.12 5.855-8.93.778-3.804.098-7.363-2.047-10.683-2.152-3.121-5.125-5.074-8.93-5.856-3.808-.777-7.37-.093-10.687 2.051l-7.906 5.27a113.874 113.874 0 0 0-15.516-12.004c-3.511-2.34-7.273-3.121-11.273-2.34-4 .781-7.074 2.828-9.219 6.145-2.152 3.32-2.883 7.027-2.199 11.125.684 4.097 2.785 7.222 6.297 9.367a66.396 66.396 0 0 0 3.512 2.195 16.189 16.189 0 0 1 3.222 2.488l-6.148 3.809c-3.125 2.34-5.078 5.367-5.856 9.074-.78 3.707-.101 7.223 2.047 10.54 2.149 3.32 5.125 5.366 8.93 6.144 3.808.785 7.367.101 10.687-2.047l9.953-7.028a100.055 100.055 0 0 1 4.395 6.59 160.155 160.155 0 0 1 4.098 7.172c-.98-.195-2.051-.34-3.223-.441a42.15 42.15 0 0 0-3.512-.145c-6.441 0-12.543 1.27-18.297 3.805-5.761 2.539-10.789 5.953-15.078 10.246-4.297 4.293-7.715 9.32-10.246 15.074-2.539 5.762-3.808 11.856-3.808 18.297zm65.289 0c0 5.079-1.758 9.368-5.27 12.883-3.515 3.512-7.71 5.266-12.59 5.266-5.078 0-9.367-1.754-12.883-5.266-3.511-3.515-5.269-7.804-5.269-12.883v-65.28c0-5.075 1.758-9.368 5.27-12.88 3.515-3.515 7.804-5.27 12.882-5.27 4.88 0 9.075 1.755 12.59 5.27 3.512 3.512 5.27 7.805 5.27 12.88zm0 0" fill="none" stroke="#000"/><use xlink:href="#b11f490ea" x="234.4882" y="1692.4269"/><use xlink:href="#b11f490eb" x="243.3832" y="1692.4269"/><use xlink:href="#b11f490ec" x="251.5432" y="1692.4269"/><use xlink:href="#b11f490ed" x="259.1332" y="1692.4269"/><use xlink:href="#b11f490ee" x="269.1832" y="1692.4269"/><use xlink:href="#b11f490eb" x="277.9582" y="1692.4269"/><use xlink:href="#b11f490ea" x="642.4432" y="1719.3519"/><use xlink:href="#b11f490eb" x="651.3382" y="1719.3519"/><use xlink:href="#b11f490ec" x="659.4982" y="1719.3519"/><use xlink:href="#b11f490ed" x="667.0882" y="1719.3519"/><use xlink:href="#b11f490ee" x="677.1382" y="1719.3519"/><use xlink:href="#b11f490eb" x="685.9132" y="1719.3519"/><g fill="#1a94e7"><use xlink:href="#b11f490ef" x="424.8532" y="1732.8219"/><use xlink:href="#b11f490ec" x="433.5682" y="1732.8219"/><use xlink:href="#b11f490eg" x="441.3532" y="1732.8219"/><use xlink:href="#b11f490eb" x="449.7382" y="1732.8219"/><use xlink:href="#b11f490ee" x="457.8982" y="1732.8219"/></g><g fill="#1a94e7"><use xlink:href="#b11f490ef" x="885.8182" y="1729.2819"/><use xlink:href="#b11f490ec" x="894.5332" y="1729.2819"/><use xlink:href="#b11f490eg" x="902.3182" y="1729.2819"/><use xlink:href="#b11f490eb" x="910.7032" y="1729.2819"/><use xlink:href="#b11f490ee" x="918.8632" y="1729.2819"/></g><path d="M231.285 1696.648l-62.586 62.586M697.598 1724.871l62.586 62.582" fill="none" stroke="#000"/><path d="M421.14 1737.027l-49.292 49.293M881.3 1732.773l-49.292 49.293" fill="none" stroke="#1a94e7"/></svg>