<?xml version='1.0' encoding='UTF-8'?>
<svg xmlns="http://www.w3.org/2000/svg" xmlns:xlink="http://www.w3.org/1999/xlink" width="450px" height="260px" viewBox="0 0 450 260" y="0px" x="0px" enable-background="new 0 0 450 260"><defs><symbol overflow="visible" id="2363c985a"><path d="M2-14.734L1.984 0h8.657l-.063-1.781H4.047v-4.86h5.219v-1.78h-5.22v-4.532h6.47l.062-1.781zm0 0"/></symbol><symbol overflow="visible" id="2363c985b"><path d="M.969-10.344c.015.36.172.688.422 1.031l2.593 3.907-2.906 4.39C.844-.687.688-.375.688 0h1.89l2.594-4.063h.047L7.875 0h2.063c-.016-.375-.172-.703-.391-1.031L6.578-5.406l2.625-3.907a2.42 2.42 0 0 0 .406-1.03H7.672L5.39-6.704h-.063l-2.187-3.64zm0 0"/></symbol><symbol overflow="visible" id="2363c985c"><path d="M2.625-13.422l-.469 3.078H.72v1.703h1.547v5.516c0 2.594.859 3.36 2.53 3.36.829 0 1.907-.172 2.845-.5l-.407-1.516a7.521 7.521 0 0 1-1.64.218c-1.016 0-1.297-.437-1.297-2.109V-8.64h3.156v-1.703H4.297v-3.078zm0 0"/></symbol><symbol overflow="visible" id="2363c985d"><path d="M1.094-4.906c0 3.343 1.937 5.14 4.578 5.14a8.92 8.92 0 0 0 3.812-.843L8.97-2.047c-.953.36-2.078.5-2.938.5-1.625 0-2.703-.922-2.843-3.094h6.359c.11-.53.172-1.171.172-1.734 0-2.422-1.25-4.25-3.828-4.25-2.97 0-4.797 2.531-4.797 5.719zm4.64-4.047c1.329 0 1.97.906 1.97 2.203 0 .219 0 .453-.032.672H3.219c.219-1.781 1.047-2.875 2.515-2.875zm0 0"/></symbol><symbol overflow="visible" id="2363c985e"><path d="M1.516-10.297c.171 2.281.218 3.281.218 4.11V0h2.032v-7.703c.89-.719 1.89-1.203 2.875-1.203 1.28 0 1.609.86 1.609 2.61V0h2.047v-7.063c0-2.28-.86-3.578-3.125-3.578-1.438 0-2.578.516-3.625 1.532l-.313-1.407zm0 0"/></symbol><symbol overflow="visible" id="2363c985f"><path d="M1.297-7.484c.016 1.625 1.281 2.312 2.75 2.89 1.297.5 2.516.89 2.516 1.86 0 .828-.86 1.28-2.016 1.28-1 0-1.922-.327-2.828-.921L.875-1.031A6.111 6.111 0 0 0 4.641.234c2.421 0 4.03-1.265 4.03-3.187 0-1.828-1.483-2.485-3.155-3.078C4.312-6.484 3.39-6.86 3.39-7.72c0-.687.609-1.172 1.687-1.172.844 0 1.625.282 2.375.766l.89-1.313c-.843-.656-1.874-1.14-3.218-1.14-2.094 0-3.875 1.156-3.828 3.094zm0 0"/></symbol><symbol overflow="visible" id="2363c985g"><path d="M1.688-10.313V0h2.03v-10.36zm-.282-3.218c0 .75.5 1.219 1.282 1.219.828 0 1.359-.563 1.359-1.376 0-.718-.484-1.234-1.25-1.234-.813 0-1.39.578-1.39 1.39zm0 0"/></symbol><symbol overflow="visible" id="2363c985h"><path d="M1.094-4.953c0 3.078 1.75 5.266 4.531 5.266 3.234 0 4.875-2.797 4.875-5.688 0-3.031-1.719-5.266-4.516-5.266-3.218 0-4.89 2.86-4.89 5.688zm7.312-.11c0 1.297-.328 2.329-.875 2.954a2.336 2.336 0 0 1-1.672.671c-1.765 0-2.671-1.546-2.671-3.796 0-1.407.359-2.422.906-3.016.328-.36.875-.656 1.672-.656 1.734 0 2.64 1.578 2.64 3.844zm0 0"/></symbol><symbol overflow="visible" id="2363c985i"><path d="M2.36-12.469v2.125H.796v1.703h1.562L2.375 0h2.031v-8.64h2.532v-1.704H4.405v-2.422c0-1.359.485-2.187 1.672-2.187.719 0 1.375.281 1.86.562l.78-1.359c-.734-.547-1.609-.984-2.78-.984-2.438 0-3.579 1.859-3.579 4.265zm0 0"/></symbol><symbol overflow="visible" id="2363c985j"><path d="M12.438-14.734l-3.22 12.14h-.093l-.594-2.672-2.672-9.468H2.984L1.391-1.688C1.312-1.14 1.203-.484 1.187 0h1.891l1.406-12.078h.094l.64 2.703L7.86 0h2.485l3.297-12.078h.062l.266 2.734L15.156 0h1.953c0-.484-.109-1.016-.172-1.563l-1.64-13.171zm0 0"/></symbol><symbol overflow="visible" id="2363c985k"><path d="M2.375-11.39c0 1.406.953 2.75 1.734 3.78-1.562 1.032-2.937 2.376-2.921 4.22C1.188-.876 3.14.265 5.718.265c1.579 0 3.063-.579 4.313-1.5 1.14.953 2 1.5 3.39 1.5.907 0 1.688-.36 2.095-.688l-.563-1.375c-.297.11-.812.297-1.375.297-.906 0-1.453-.328-2.187-.938 1.75-1.859 2.843-4.312 2.953-6.406h-1.938c-.344 1.906-1.015 3.813-2.312 5.219A57.976 57.976 0 0 1 6.64-7.344c1.562-1.062 3.062-2.453 3.078-4.468C9.75-13.656 8.344-15 6.219-15c-2.485 0-3.844 1.61-3.844 3.61zm1.953-.047c0-.626.156-1.126.469-1.454.312-.312.75-.468 1.36-.468.921 0 1.624.75 1.624 1.75 0 1.312-.937 2.218-2.125 3.03-.64-.858-1.328-1.937-1.328-2.858zM5.86-1.5c-1.671 0-2.578-.828-2.609-2.125 0-1.234.86-2.11 1.813-2.781a40.475 40.475 0 0 0 3.625 3.984c-.797.531-1.72.922-2.829.922zm0 0"/></symbol><symbol overflow="visible" id="2363c985l"><path d="M1.61-10.313v7.032c0 2.297.984 3.594 3.187 3.594 1.297 0 2.422-.532 3.406-1.516L8.516.109l1.687-.218c-.156-2.36-.187-3.188-.187-4.079v-6.156H7.984v7.656c-.906.797-1.796 1.235-2.687 1.235-1.156 0-1.64-.766-1.64-2.578v-6.328zm0 0"/></symbol><symbol overflow="visible" id="2363c985m"><path d="M1.39-10.828c0 2.594 2.079 3.437 4.11 4.234 1.766.625 3.297 1.188 3.297 2.766 0 1.656-1.61 2.265-3.235 2.265-1.406 0-2.75-.39-3.937-1.062L.859-1.031C1.953-.281 3.734.312 5.563.312c2.906 0 5.375-1.406 5.375-4.312 0-2.688-2.22-3.5-4.407-4.344C4.891-8.954 3.5-9.53 3.5-11c0-1.719 1.688-2.172 3.125-2.172 1.203 0 2.39.281 3.25.61l.625-1.579c-1.063-.562-2.453-.906-3.828-.906-2.672 0-5.281 1.281-5.281 4.219zm0 0"/></symbol><symbol overflow="visible" id="2363c985n"><path d="M1.313-8.906l.75 1.265c1.062-.734 2.187-1.187 3.171-1.187 1.235 0 1.72.687 1.72 2.734V-6c-2.329.188-3.735.516-4.626 1.078C1.453-4.375.875-3.469.875-2.359.875-.766 1.906.234 3.609.234c1.25 0 2.47-.546 3.516-1.484L7.453.125l1.703-.234C9-2.36 8.953-3.281 8.953-4.063v-2.625c0-2.734-1.031-3.89-3.297-3.89-1.718 0-3.187.672-4.343 1.672zm2.75 7.547c-.782 0-1.204-.438-1.204-1.266 0-.61.266-.984.61-1.219.469-.297 1.39-.531 3.484-.703v1.89c-1.016.829-2.047 1.298-2.89 1.298zm0 0"/></symbol><symbol overflow="visible" id="2363c985p"><path d="M1.516-10.297c.171 2.328.218 3.281.218 4.11V0h2.032v-6.844c.703-1.125 1.578-1.578 2.578-1.578.406 0 .765.047 1.187.156l.36-1.921a2.703 2.703 0 0 0-1.438-.391c-1.172 0-2.094.719-2.828 1.969l-.39-1.907zm0 0"/></symbol><symbol overflow="visible" id="2363c985q"><path d="M17.563-14.734L14.233-2.328h-.093l-.485-2.781-2.156-9.625H8.797L5.875-2.328h-.094L5.22-5.11l-2.516-9.625H.641c.062.5.28 1.218.484 1.953L4.531.047l2.547-.094 2.969-12.312h.094l.375 2.234L12.78.047l2.547-.094 3.703-12.64c.219-.797.5-1.547.594-2.047zm0 0"/></symbol><symbol overflow="visible" id="2363c985r"><path d="M1.656-16.484V-.375c1.313.39 2.5.61 3.938.61 3.468 0 5.047-2.72 5.047-5.61 0-2.984-1.47-5.266-4.047-5.266-1.188 0-2.078.516-2.89 1.407v-7.282zM5.72-1.47a8.182 8.182 0 0 1-2.016-.25v-5.937c.735-.75 1.594-1.25 2.516-1.25 1.5 0 2.343 1.422 2.343 3.734 0 1.328-.203 2.266-1 3.078-.296.328-.984.625-1.843.625zm0 0"/></symbol><symbol overflow="visible" id="2363c985s"><path d="M1.172-7.156c0 4.093 2.266 7.468 6.36 7.468 4.39 0 6.452-3.968 6.452-7.906 0-4.093-2.265-7.453-6.343-7.453-4.422 0-6.47 3.953-6.47 7.89zm10.64-.235c0 1.829-.484 3.875-1.874 5.032-.516.453-1.266.812-2.344.812-2.782 0-4.266-2.64-4.266-5.797 0-1.828.5-3.875 1.89-5.047.516-.437 1.266-.812 2.345-.812 2.78 0 4.25 2.625 4.25 5.812zm0 0"/></symbol><symbol overflow="visible" id="2363c985t"><path d="M8.14-10.344L5.438-2.156h-.093a13.218 13.218 0 0 0-.532-2.094l-2.015-6.094H.703c0 .36.094.688.203 1.031L4.266 0h.468C3.656 2.625 2.438 3.734.484 3.766v1.609c.282.031.579.078 1.032.078 1.937 0 3.406-1.422 4.78-4.906l3.61-9.86c.125-.328.219-.656.219-1.03zm0 0"/></symbol><symbol overflow="visible" id="2363c985u"><path d="M1.984-14.734V0h8.22l-.063-1.781H4.047v-12.953zm0 0"/></symbol><symbol overflow="visible" id="2363c985v"><path d="M1.172-7.016c0 4.063 2.156 7.25 6.687 7.25 1.563 0 3.047-.359 4.344-1.046v-6.625h-5.14v1.78h3.171v3.766c-.734.172-1.484.282-2.203.282-3.547 0-4.687-2.766-4.687-5.61 0-1.875.484-3.578 1.672-4.75.687-.687 1.625-1.172 3-1.172 1.187 0 2.218.313 3.265.891l.781-1.625c-1.156-.719-2.453-1.11-3.937-1.11-4.688 0-6.953 3.876-6.953 7.97zm0 0"/></symbol></defs><path fill="#212121" d="M0 0h450v260H0z"/><path d="M240.012 63.988h-10.473v45.332h32.168v-8.824h-21.695zm0 0M284.75 92.043h8.523v7.926c-1.57.601-4.632 1.199-7.55 1.199-9.426 0-12.57-4.79-12.57-14.512 0-9.277 2.992-14.738 12.417-14.738 5.239 0 8.23 1.644 10.696 4.789l6.511-5.984c-3.964-5.684-10.925-7.407-17.433-7.407-14.66 0-22.367 8.004-22.367 23.262 0 15.188 6.957 23.418 22.293 23.418 7.035 0 13.918-1.797 17.656-4.414V83.59H284.75zm0 0M178.8 51.785c-19.363 0-35.066 15.692-35.066 35.059 0 19.36 15.703 35.066 35.067 35.066 19.367 0 35.066-15.707 35.066-35.066 0-19.367-15.699-35.059-35.066-35.059m8.379 47.668v2.738h-9.77V71.457h2.785v27.996zm12.382 8.125c-5.554 5.55-12.93 8.598-20.761 8.598-7.828 0-15.203-3.047-20.762-8.598-5.535-5.535-8.574-12.906-8.574-20.742 0-16.18 13.164-29.352 29.336-29.352.34 0 1.039.008 1.394.024v2.734c-.32-.008-1.07-.015-1.394-.015-7.102 0-13.778 2.765-18.805 7.796-5.031 5.024-7.8 11.707-7.8 18.813 0 7.11 2.769 13.789 7.8 18.812 5.027 5.024 11.703 7.79 18.805 7.79 14.07 0 25.62-10.977 26.554-24.813v-.395h-18.16v-2.726h19.774l1.176-.008v1.34c0 7.836-3.043 15.207-8.583 20.742m-27.746-31.93c0 2.313-1.882 4.2-4.207 4.2a4.208 4.208 0 0 1-4.199-4.2 4.207 4.207 0 0 1 4.2-4.207 4.206 4.206 0 0 1 4.206 4.207" fill="#fff"/><use xlink:href="#2363c985a" x="72.796" y="175" fill="#fff"/><use xlink:href="#2363c985b" x="84.632" y="175" fill="#fff"/><use xlink:href="#2363c985c" x="95.346" y="175" fill="#fff"/><use xlink:href="#2363c985d" x="103.684" y="175" fill="#fff"/><use xlink:href="#2363c985e" x="114.618" y="175" fill="#fff"/><use xlink:href="#2363c985f" x="126.63" y="175" fill="#fff"/><use xlink:href="#2363c985g" x="136.398" y="175" fill="#fff"/><use xlink:href="#2363c985h" x="141.92" y="175" fill="#fff"/><use xlink:href="#2363c985e" x="153.624" y="175" fill="#fff"/><use xlink:href="#2363c985h" x="170.454" y="175" fill="#fff"/><use xlink:href="#2363c985i" x="182.0238" y="175" fill="#fff"/><use xlink:href="#2363c985j" x="194.0578" y="175" fill="#fff"/><use xlink:href="#2363c985g" x="212.4718" y="175" fill="#fff"/><use xlink:href="#2363c985f" x="217.9938" y="175" fill="#fff"/><use xlink:href="#2363c985h" x="227.7618" y="175" fill="#fff"/><use xlink:href="#2363c985k" x="244.2838" y="175" fill="#fff"/><use xlink:href="#2363c985j" x="265.2938" y="175" fill="#fff"/><use xlink:href="#2363c985l" x="283.7078" y="175" fill="#fff"/><use xlink:href="#2363c985f" x="295.5658" y="175" fill="#fff"/><use xlink:href="#2363c985d" x="305.3338" y="175" fill="#fff"/><use xlink:href="#2363c985h" x="316.2678" y="175" fill="#fff"/><use xlink:href="#2363c985m" x="332.7898" y="175" fill="#fff"/><use xlink:href="#2363c985n" x="344.8238" y="175" fill="#fff"/><use xlink:href="#2363c985e" x="355.5378" y="175" fill="#fff"/><g fill="#fff"><use xlink:href="#2363c985f" x="367.5498" y="175"/><use xlink:href="#2363c985o" x="377.2078" y="175"/></g><g fill="#fff"><use xlink:href="#2363c985i" x="146.782" y="203.006"/><use xlink:href="#2363c985h" x="154.174" y="203.006"/></g><use xlink:href="#2363c985p" x="165.878" y="203.006" fill="#fff"/><g fill="#fff"><use xlink:href="#2363c985o" x="173.776" y="203.006"/><use xlink:href="#2363c985q" x="178.33" y="203.006"/></g><use xlink:href="#2363c985d" x="197.58" y="203.006" fill="#fff"/><use xlink:href="#2363c985r" x="208.514" y="203.006" fill="#fff"/><use xlink:href="#2363c985s" x="220.372" y="203.006" fill="#fff"/><use xlink:href="#2363c985m" x="235.618" y="203.006" fill="#fff"/><use xlink:href="#2363c985o" x="247.652" y="203.006" fill="#fff"/><use xlink:href="#2363c985r" x="252.47" y="203.006" fill="#fff"/><g fill="#fff"><use xlink:href="#2363c985t" x="263.998" y="203.006"/><use xlink:href="#2363c985o" x="274.602" y="203.006"/></g><use xlink:href="#2363c985u" x="279.42" y="203.006" fill="#fff"/><use xlink:href="#2363c985v" x="289.606" y="203.006" fill="#fff"/></svg>