<?xml version='1.0' encoding='UTF-8'?>
<svg xmlns="http://www.w3.org/2000/svg" xmlns:xlink="http://www.w3.org/1999/xlink" width="1000px" height="2250px" viewBox="0 0 1000 2250" x="0px" y="0px" enable-background="new 0 0 1000 2250"><defs><symbol overflow="visible" id="94a5f556a"><path d="M9.72 0h64.8v-32.4H61.78v-80.35h12.74v-32.4H9.72v32.4h12.75v80.34H9.72zm0 0"/></symbol><symbol overflow="visible" id="94a5f556b"><path d="M61.78 2.6c34.34 0 55.72-19.88 55.72-51 0-10.35-3.02-19.2-8.2-25.9h18.8v-31.33H72.57c-42.55 0-66.53 19.88-66.53 55.3C6.05-17.28 27 2.6 61.78 2.6zm0-32.41c-11.89 0-18.8-8.2-18.8-21.82 0-14.68 8.65-22.67 22.9-22.67h7.78c4.75 6.25 6.9 13.6 6.9 21.38 0 14.26-7.12 23.1-18.78 23.1zm0 0"/></symbol><symbol overflow="visible" id="94a5f556c"><path d="M64.38 2.6c36.5 0 58.3-20.74 58.3-55.52 0-34.56-21.8-55.3-58.3-55.3-36.52 0-58.33 20.74-58.33 55.3 0 34.78 21.8 55.51 58.33 55.51zm0-32.41c-12.75 0-20.32-8.64-20.32-23.11 0-14.25 7.56-22.9 20.31-22.9 12.74 0 20.3 8.65 20.3 22.9 0 14.47-7.56 23.1-20.3 23.1zm0 0"/></symbol><symbol overflow="visible" id="94a5f556d"><path d="M37.58-114.9c12.53 0 19.87-7.35 19.87-19.88s-7.34-19.88-19.87-19.88c-12.52 0-19.86 7.35-19.86 19.88s7.34 19.87 19.86 19.87zm50.55 0c12.53 0 19.87-7.35 19.87-19.88s-7.34-19.88-19.88-19.88c-12.53 0-19.87 7.35-19.87 19.88s7.34 19.87 19.88 19.87zM62.86 2.6c34.34 0 53.78-18.58 53.78-51.63v-56.6H79.7v56.6c0 12.31-6.04 19.22-16.84 19.22s-16.84-6.9-16.84-19.22v-56.6H9.08v56.6c0 33.05 19.44 51.62 53.78 51.62zm0 0"/></symbol><symbol overflow="visible" id="94a5f556e"><path d="M64.58 44.72l34.78-17.08V2.16c35.42-3.46 55.73-25.49 55.73-62.2v-45.59h-34.78v45.58c0 17.92-7.12 28.3-20.95 30.9v-113.63L64.58-125.5v96.34c-13.81-2.59-20.95-12.96-20.95-30.89v-45.58H8.85v45.58c0 36.72 20.3 58.75 55.72 62.2zm0 0"/></symbol><symbol overflow="visible" id="94a5f556f"><path d="M97.84-111.23l19.88-48.83H82.94l-8.42 42.98zM51.62 2.59c17.07 0 29.6-7.34 35.86-20.73 6.27 13.39 18.79 20.73 36.07 20.73 27.43 0 44.06-20.09 44.06-53.78 0-20.73-5.17-39.53-15.55-54.44h-38.23c9.94 15.99 16.86 33.7 16.86 52.07 0 15.54-4.11 23.75-11.67 23.75-9.29 0-14.25-8.64-14.25-25.92V-79.7H70.2v23.97c0 17.28-4.97 25.92-14.04 25.92-7.77 0-11.66-8.2-11.66-23.75 0-18.36 6.69-36.08 16.84-52.06H23.11C12.75-90.72 7.56-71.92 7.56-51.2 7.56-17.5 23.96 2.6 51.62 2.6zm0 0"/></symbol><symbol overflow="visible" id="94a5f556g"><path d="M42.77 0H79.7l42.77-105.63H83.16L61.34-44.05l-22.03-61.56H0zm0 0"/></symbol><symbol overflow="visible" id="94a5f556h"><path d="M7.42 0h69.3v-4.06H13.3l39.34-43.81-37.66-42.15h60.07v-4.06H9.09v3.92l37.82 42.28L7.42-3.91zm0 0"/></symbol><symbol overflow="visible" id="94a5f556i"><path d="M38.5 1.69c9.94 0 17.92-3.78 24.22-11.2L62.86 0h3.92v-65.66h-3.92l-.14 9.52c-6.3-7.42-14.28-11.2-24.22-11.2-19.45 0-31.08 12.89-31.08 34.57C7.42-11.2 19.05 1.7 38.5 1.7zM11.62-32.77c0-19.03 10.22-30.51 27.16-30.51 9.66 0 17.64 4.2 23.8 12.6v35.7c-5.88 8.26-14 12.6-23.8 12.6-16.94 0-27.16-11.34-27.16-30.39zm0 0"/></symbol><symbol overflow="visible" id="94a5f556j"><path d="M46.9 27.44l4.05-1.13V1.7c24.92 0 39.49-12.61 39.49-34.46 0-21.82-14.28-34.3-39.49-34.57V-98l-4.04 1.13v29.53c-25.07 0-39.49 12.6-39.49 34.57 0 21.7 14.28 34.18 39.49 34.46zm-35.27-60.2c0-19.32 12.59-30.38 35.28-30.52v60.9c-22.41 0-35.28-10.92-35.28-30.39zm74.6 0c0 19.32-12.73 30.24-35.28 30.38v-60.9c22.4 0 35.28 10.92 35.28 30.51zm0 0"/></symbol><symbol overflow="visible" id="94a5f556k"><path d="M32.06 1.69c11.06 0 19.88-3.38 26.31-10.1l-2.8-3.07c-6.43 6.17-14.27 9.1-23.37 9.1-12.89 0-20.58-5.32-20.58-14.56 0-9.51 6.86-14.7 18.9-14.7h11.76v-3.92H31.36c-11.63 0-18.06-5.03-18.06-13.86 0-8.67 7-13.86 18.9-13.86 8.25 0 15.53 2.8 21.7 8.26l2.8-3.07c-6.15-6.18-14.42-9.25-24.64-9.25-14.42 0-22.97 6.57-22.97 17.78 0 7.84 4.07 13.3 11.35 15.4-8.4 2.24-13.02 8.25-13.02 17.22C7.42-5.19 16.66 1.7 32.06 1.7zm0 0"/></symbol><symbol overflow="visible" id="94a5f556l"><path d="M15.55-73.5l9.37-27.44H19.6l-7.82 26.6zM26.3 1.69c3.38 0 6.32-.56 8.55-1.69l-1.27-3.64c-2.23.84-4.6 1.27-7.14 1.27-6.43 0-9.93-3.5-9.93-9.94v-53.35h-4.2v53.47c0 9.11 4.9 13.88 14 13.88zm0 0"/></symbol><symbol overflow="visible" id="94a5f556m"><path d="M60.48 24.08c1.25-4.9 1.96-9.1 1.96-12.6 0-7.7-3.36-11.62-16.24-13.86-25.48-4.2-34.58-13.17-34.58-32.06 0-17.64 10.65-28.84 27.58-28.84 10.64 0 18.49 4.76 23.38 13.58l4.06-1.67C61.04-62.02 51.8-67.34 39.2-67.34c-19.6 0-31.78 12.75-31.78 32.9 0 21 9.94 31.5 37.52 36.13 9.94 1.67 13.3 4.19 13.3 10.08 0 2.93-.55 6.71-1.68 11.18zm0 0"/></symbol><symbol overflow="visible" id="94a5f556o"><path d="M39.63 1.69c20.15 0 32.06-12.9 32.06-34.46 0-21.68-11.9-34.57-32.06-34.57-20.18 0-32.2 12.89-32.2 34.57C7.42-11.2 19.44 1.7 39.62 1.7zm0-4.06c-17.65 0-28-11.35-28-30.4 0-19.03 10.35-30.51 28-30.51 17.5 0 27.85 11.48 27.85 30.51 0 19.05-10.36 30.4-27.86 30.4zm0 0"/></symbol><symbol overflow="visible" id="94a5f556p"><path d="M37.94 1.69c18.62 0 30.37-11.63 30.37-30.25 0-14.7-7.12-25.2-25.04-32.06-17.36-6.44-23.25-10.65-23.25-19.74 0-9.1 7.56-14.7 19.6-14.7 7.57 0 14.43 2.8 20.86 8.26l2.8-3.08c-6.44-6.17-14.42-9.25-23.66-9.25-14.56 0-23.8 7.29-23.8 18.77 0 9.1 5.04 15.13 16.52 20.02C14.56-53.62 7.42-43.12 7.42-28.56 7.42-9.94 19.2 1.69 37.94 1.69zm0-4.06c-16.24 0-26.31-10.08-26.31-26.2 0-13.57 6.57-22.95 26.3-29.52 19.62 6.57 26.2 15.95 26.2 29.53 0 16.1-10.08 26.18-26.2 26.18zm0 0"/></symbol><symbol overflow="visible" id="94a5f556q"><path d="M12.31 0h4.2v-50.69c5.9-8.1 14-12.6 23.94-12.6 12.33 0 19.61 7.43 19.61 19.74v70.99l4.2-1.13v-70c0-14.69-8.82-23.65-23.67-23.65-9.8 0-17.78 3.78-24.07 11.2l-.14-9.52H12.3zm0 0"/></symbol><symbol overflow="visible" id="94a5f556r"><path d="M33.31 27.44l4.2-1.13V0l27.72-65.66h-4.6L35.42-6.02 10.35-65.66H5.59L33.31 0zm0 0"/></symbol><symbol overflow="visible" id="94a5f556s"><path d="M6.36 0h3.19l11.12-66.36L58.41 0h3.18l11.86-71.23h-3.17L59.14-4.87 21.31-71.23h-3.08zm0 0"/></symbol><symbol overflow="visible" id="94a5f556t"><path d="M30.31-55.66l10.4-20.76h-4.04L27.34-56.7zM20.98 1.27c8.38 0 15.38-2.33 19.94-6.99L38.8-8.06C34.34-3.92 28.1-1.8 21.1-1.8c-8.58 0-14.43-3.6-14.43-9.86 0-7.73 6.36-12.3 16.86-12.3h8.27l.53-2.96h-8.8c-7.2 0-11.23-3.72-11.23-10.17 0-6.7 6.14-10.82 15.04-10.82 6.36 0 12.2 2.22 16.02 6.57l2.53-2.02c-4.23-5.08-10.8-7.62-18.55-7.62-10.8 0-18.23 5.4-18.23 13.78 0 5.72 2.55 9.86 6.89 11.54-7.84 1.6-12.5 6.7-12.5 14.11 0 8.05 7 12.82 17.48 12.82zm0 0"/></symbol><symbol overflow="visible" id="94a5f556u"><path d="M25.86 1.27c7.53 0 13.36-2.54 18.45-7.74L43.36 0h2.97l8.26-49.72h-2.97l-1.37 7.31c-4.36-5.72-10.4-8.57-18.03-8.57C15.69-50.98 5.3-38.8 5.3-19.5c0 13.03 7.73 20.77 20.56 20.77zM8.48-19.5c0-17.4 9.22-28.4 23.85-28.4 7.31 0 13.05 3.17 17.17 9.52L44.94-10.8C39.54-4.98 33.6-1.8 26.19-1.8c-11.03 0-17.7-6.68-17.7-17.7zm0 0"/></symbol><symbol overflow="visible" id="94a5f556w"><path d="M-5.72 22.9h4.24l25.65-34.56L38.48 22.9h3.49L26.72-14.09l26.06-35.63h-4.12L24.7-17.06 11.23-49.72h-3.6l14.53 35.1zm0 0"/></symbol><symbol overflow="visible" id="94a5f556x"><path d="M.64 22.9h3.17l5.1-30.21C13.14-1.6 19.3 1.27 27.45 1.27c16.53 0 26.93-12.08 26.93-31.16 0-12.94-7.74-21.1-20.04-21.1-13.47 0-22.89 8.7-25.23 23zM12.3-27.99c2.12-12.41 10.28-19.93 21.93-19.93 10.4 0 16.86 6.99 16.86 18.02 0 17.17-9.22 28.1-23.64 28.1-7.95 0-13.89-3.2-17.9-9.55zm0 0"/></symbol><symbol overflow="visible" id="94a5f556y"><path d="M5.1 0h3.17l4.03-23.95h11.87L38.91 0h3.8L27.35-25.23l22.7-24.49h-4.57l-21.1 22.69H12.84l3.7-22.69h-3.17zm0 0"/></symbol><symbol overflow="visible" id="94a5f556z"><path d="M30.2 1.27a19 19 0 007.85-1.58L37.2-3.2c-2.43.97-4.56 1.4-6.78 1.4-6.47 0-9.1-3.62-8.06-10.62l5.73-34.23h20.77l.53-3.08H7.2l-.53 3.08h18.24l-5.72 34.23C17.7-3.5 21.62 1.27 30.2 1.27zm0 0"/></symbol><symbol overflow="visible" id="94a5f556A"><path d="M5.1 0h3.17l6.46-38.9c4.88-5.83 11.13-9 18.55-9 10.17 0 15.06 5.82 13.25 16.21l-9.1 54.58h3.16l9.13-54.69c2.1-12.1-4.14-19.18-16.11-19.18-7.42 0-13.47 2.54-18.14 7.53l.97-6.27h-3.08zm0 0"/></symbol><symbol overflow="visible" id="94a5f556B"><path d="M16.33 1.27c1.9 0 3.92-.32 5.83-.96l-.64-2.97c-1.6.54-3.4.86-4.99.86-4.98 0-7.42-2.97-6.56-8.17l6.56-39.75h-3.17L6.78-9.97c-1.16 7 2.44 11.24 9.55 11.24zm0 0"/></symbol><symbol overflow="visible" id="94a5f556C"><path d="M25.44 1.27c16.1 0 26.08-11.55 26.08-29.79 0-6.89-1.6-13.03-4.88-18.12H61.6l.52-3.08H34.45C16.22-49.72 5.3-38.8 5.3-20.45c0 13.67 7.64 21.72 20.14 21.72zm0-3.07c-10.28 0-16.75-7-16.96-18.65-.32-16.44 9.33-26.2 25.75-26.2h8.8c3.61 5.1 5.31 11.24 5.31 18.02 0 16.44-8.7 26.83-22.9 26.83zm0 0"/></symbol><symbol overflow="visible" id="94a5f556D"><path d="M35.3-55.66l10.5-20.76h-4.14L32.44-56.7zM25.86 1.27c7.53 0 13.36-2.54 18.45-7.74L43.36 0h2.97l8.26-49.72h-2.97l-1.37 7.31c-4.36-5.72-10.4-8.57-18.03-8.57C15.69-50.98 5.3-38.8 5.3-19.5c0 13.03 7.73 20.77 20.56 20.77zM8.48-19.5c0-17.4 9.22-28.4 23.85-28.4 7.31 0 13.05 3.17 17.17 9.52L44.94-10.8C39.54-4.98 33.6-1.8 26.19-1.8c-11.03 0-17.7-6.68-17.7-17.7zm0 0"/></symbol><symbol overflow="visible" id="94a5f556E"><path d="M6.34 0h1.91v-39.38L37.53 0h1.9v-42.67h-1.9V-3.3L8.25-42.67h-1.9zm0 0"/></symbol><symbol overflow="visible" id="94a5f556F"><path d="M11.94.77C13.47.77 14.8.52 15.8 0l-.58-1.66c-1.01.4-2.09.58-3.23.58-2.92 0-4.5-1.6-4.5-4.51v-24.2H5.6v24.26C5.6-1.4 7.8.77 11.93.77zm0 0"/></symbol><symbol overflow="visible" id="94a5f556G"><path d="M24.95-33.34l4.25-12.44h-2.47l-3.56 12.06zM14.48.76c5.27 0 8.82-3.1 9.97-8.63C25.6-2.34 29.08.77 34.35.77c6.54 0 10.42-5.41 10.42-14.55 0-6.1-1.52-11.42-4.57-16h-2.3c3.32 4.58 4.96 9.9 4.96 16 0 7.94-3.17 12.7-8.56 12.7-5.6 0-8.9-4.76-8.9-12.76v-8.32h-1.9v8.32c0 8-3.38 12.76-8.95 12.76-5.4 0-8.52-4.76-8.52-12.7 0-6.1 1.66-11.42 4.95-16H8.7c-3.04 4.58-4.57 9.9-4.57 16C4.13-4.64 7.92.77 14.47.77zm0 0"/></symbol><symbol overflow="visible" id="94a5f556H"><path d="M17.97.77C27.1.77 31.8-6.93 31.8-22.1c0-15.2-4.7-22.86-13.84-22.86-9.2 0-13.84 7.67-13.84 22.86C4.13-6.92 8.77.77 17.96.77zm0-43.88c7.75 0 11.69 6.6 11.94 19.73H6.03c.25-13.14 4.19-19.73 11.94-19.73zm0 42.03c-7.88 0-11.88-6.86-11.94-20.51h23.88C29.84-7.94 25.84-1.08 17.97-1.08zm0 0"/></symbol><symbol overflow="visible" id="94a5f556I"><path d="M14.48.77c5.27 0 8.82-3.11 9.97-8.64C25.6-2.34 29.08.77 34.35.77c6.54 0 10.42-5.41 10.42-14.55 0-6.1-1.52-11.42-4.57-16h-2.3c3.32 4.58 4.96 9.9 4.96 16 0 7.94-3.17 12.7-8.56 12.7-5.6 0-8.9-4.76-8.9-12.76v-8.32h-1.9v8.32c0 8-3.38 12.76-8.95 12.76-5.4 0-8.52-4.76-8.52-12.7 0-6.1 1.66-11.42 4.95-16H8.7c-3.04 4.58-4.57 9.9-4.57 16C4.13-4.64 7.92.77 14.47.77zm0 0"/></symbol><symbol overflow="visible" id="94a5f556K"><path d="M18.42-33.34l4.25-12.44h-2.42L16.7-33.72zM17.47.76c4.5 0 8.12-1.71 10.98-5.07L28.52 0h1.78v-29.78h-1.78l-.07 4.31a13.76 13.76 0 00-10.98-5.08c-8.83 0-14.11 5.85-14.11 15.7C3.36-5.09 8.64.76 17.46.76zM5.27-14.85c0-8.64 4.64-13.84 12.32-13.84 4.38 0 8 1.9 10.8 5.72V-6.8c-2.67 3.75-6.36 5.72-10.8 5.72-7.68 0-12.32-5.14-12.32-13.78zm0 0"/></symbol><symbol overflow="visible" id="94a5f556L"><path d="M15.1 0h1.92l12.57-29.78H27.5L16.06-2.73 4.7-29.78H2.55zm0 0"/></symbol><symbol overflow="visible" id="94a5f556M"><path d="M14.55.77c5.01 0 9.01-1.54 11.93-4.58l-1.28-1.4a14.73 14.73 0 01-10.6 4.13c-5.83 0-9.33-2.42-9.33-6.6 0-4.32 3.1-6.66 8.57-6.66h5.33v-1.79h-4.95c-5.27 0-8.19-2.3-8.19-6.3 0-3.93 3.17-6.27 8.58-6.27 3.73 0 7.05 1.26 9.84 3.75l1.27-1.4c-2.8-2.8-6.55-4.2-11.17-4.2-6.55 0-10.43 2.99-10.43 8.07 0 3.56 1.85 6.03 5.15 6.98-3.8 1.02-5.91 3.75-5.91 7.81 0 5.35 4.2 8.46 11.19 8.46zm0 0"/></symbol><symbol overflow="visible" id="94a5f556N"><path d="M20.25.77c1.9 0 3.63-.4 5.02-1.15l-.63-1.65c-1.34.64-2.8.95-4.33.95-3.67 0-5.58-1.9-5.58-5.6v-21.26h12.44v-1.84H1.91v1.84h10.92v21.27c0 4.83 2.6 7.44 7.42 7.44zm0 0"/></symbol><symbol overflow="visible" id="94a5f556O"><path d="M17.47.77c4.5 0 8.12-1.72 10.98-5.08L28.52 0h1.78v-29.78h-1.78l-.07 4.31a13.76 13.76 0 00-10.98-5.08c-8.83 0-14.11 5.85-14.11 15.7C3.36-5.09 8.64.76 17.46.76zM5.27-14.86c0-8.64 4.64-13.84 12.32-13.84 4.38 0 8 1.9 10.8 5.72V-6.8c-2.67 3.75-6.36 5.72-10.8 5.72-7.68 0-12.32-5.14-12.32-13.78zm0 0"/></symbol><symbol overflow="visible" id="94a5f556P"><path d="M5.6 12.45l1.9-.51V-3.94C9.14-.95 12.25.76 16.45.76a12.7 12.7 0 0010.47-5.01L26.98 0h1.79v-29.78h-1.91V-6.8a11.75 11.75 0 01-10.4 5.72c-5.73 0-8.96-3.23-8.96-8.95v-19.75H5.6zm0 0"/></symbol><symbol overflow="visible" id="94a5f556Q"><path d="M17.97.77c9.14 0 14.55-5.85 14.55-15.63 0-9.84-5.41-15.69-14.55-15.69S3.36-24.7 3.36-14.85C3.36-5.09 8.83.76 17.96.76zm0-1.85c-8 0-12.7-5.14-12.7-13.78s4.7-13.84 12.7-13.84c7.94 0 12.64 5.2 12.64 13.84S25.9-1.08 17.97-1.08zm0 0"/></symbol><symbol overflow="visible" id="94a5f556R"><path d="M17.2.77c7.7 0 11.94-4.33 11.94-11.94v-18.61h-1.9v18.6c0 6.41-3.61 10.1-10.04 10.1-6.4 0-10.1-3.69-10.1-10.1v-18.6H5.2v18.6C5.2-3.55 9.53.78 17.2.78zm0 0"/></symbol><symbol overflow="visible" id="94a5f556S"><path d="M27.44 10.92c.56-2.22.89-4.12.89-5.72 0-3.48-1.53-5.26-7.38-6.28C9.4-2.98 5.27-7.05 5.27-15.62c0-8 4.82-13.08 12.51-13.08 4.83 0 8.38 2.15 10.61 6.15l1.83-.75c-2.53-4.82-6.72-7.25-12.44-7.25-8.89 0-14.42 5.78-14.42 14.93C3.36-6.1 7.88-1.32 20.39.77c4.5.76 6.03 1.9 6.03 4.56 0 1.34-.26 3.04-.76 5.08zm0 0"/></symbol><symbol overflow="visible" id="94a5f556T"><path d="M21.27 12.45l1.84-.51V.77C34.42.77 41-4.95 41-14.86c0-9.9-6.46-15.56-17.9-15.69v-13.9l-1.84.51v13.4c-11.36 0-17.91 5.71-17.91 15.68C3.36-5.02 9.84.64 21.26.77zm-16-27.3c0-8.78 5.71-13.8 16-13.85v27.62c-10.16 0-16-4.95-16-13.78zm33.84 0c0 8.76-5.77 13.7-16 13.77V-28.7c10.17 0 16 4.95 16 13.84zm0 0"/></symbol><symbol overflow="visible" id="94a5f556U"><path d="M7.05-33.34l4.25-12.44H8.9L5.32-33.72zM11.94.76C13.47.77 14.8.53 15.8 0l-.58-1.66c-1.01.4-2.09.58-3.23.58-2.92 0-4.5-1.6-4.5-4.51v-24.2H5.6v24.26C5.6-1.4 7.8.77 11.93.77zm0 0"/></symbol><symbol overflow="visible" id="94a5f556V"><path d="M2.55 0H4.7l12.13-27.05L27.5 0h2.1L14.72-37.47c-2.21-5.64-4.45-7.48-8.95-7.48-1.4 0-2.67.18-3.87.62l.7 1.72c.89-.31 2.03-.5 3.17-.5 3.55 0 5.27 1.52 7.11 6.03l2.98 7.49zm0 0"/></symbol><symbol overflow="visible" id="94a5f556W"><path d="M2.75 0h17.38l5.06-30.25h9.12L49.94 0h19.8L49.5-36.84l31.23-37.08h-21.1L35.75-45.66h-8.03l4.73-28.26H15.06zm0 0"/></symbol><symbol overflow="visible" id="94a5f556X"><path d="M-2.97 22.66L15.3 14.3l2.97-18.14C22-.44 26.84 1.3 33 1.3c17.7 0 28.94-12.75 28.94-32.87 0-14.2-9.58-23.22-24.75-23.22-17.06 0-28.94 9.9-31.69 26.73zm25.3-51.14c1.22-7.16 6.15-11.57 12.87-11.57 5.72 0 9.35 3.86 9.35 10.02 0 10.01-5.07 16.5-12.53 16.5-4.85 0-8.7-1.66-11.33-5.06zm0 0"/></symbol><symbol overflow="visible" id="94a5f556Y"><path d="M23.88 1.31c10.56 0 19.35-2.4 25.84-7.25L42.9-17.27c-4.63 2.86-10.24 5.29-17.07 5.29-4.39 0-7.14-1.44-7.14-4.2 0-3.29 3.2-4.84 9.13-4.84h9.69l2.07-12.3H29.7c-3.97 0-5.93-1.34-5.93-3.98 0-2.75 2.86-4.28 7.68-4.28 6.18 0 10.78 2.42 14.53 5.4l9.24-10.68c-6.38-5.28-14.84-7.92-24.75-7.92-13.97 0-23.53 6.48-23.53 16.72 0 4.51 2.3 8.14 6.37 10.45C5.83-25.3 1.55-20.45 1.55-13.75c0 9.45 8.8 15.06 22.32 15.06zm0 0"/></symbol><symbol overflow="visible" id="94a5f556Z"><path d="M-2.31 22.66l18.26-8.36 2.53-15.5C20.8.1 23.88.77 27.61.77c4.84 0 8.69-1.43 11.98-4.72L40.5 0h12.74l8.93-53.45H45.3l-6.04 35.97a14.2 14.2 0 01-10 3.95c-5.61 0-8.14-3.08-7.27-8.9l5.17-31.02H10.34zm0 0"/></symbol><symbol overflow="visible" id="94a5f556aa"><path d="M25.63 1.31c6.5 0 11.67-1.86 15.51-5.6L42.02 0h12.87l8.9-53.45H50.95l-2.88 5.5c-3.62-4.63-8.9-6.83-15.83-6.83-17.71 0-28.93 12.87-28.93 33.33C3.3-7.27 11.66 1.3 25.62 1.3zm-4.94-24.75c0-10 5.26-16.6 13.51-16.6 4.2 0 7.38 1.65 9.58 5.06l-2.86 17.17c-2.64 2.86-6.05 4.28-10.23 4.28-6.38 0-10-3.63-10-9.9zm0 0"/></symbol><symbol overflow="visible" id="94a5f556ab"><path d="M27.94 1.31c18.92 0 30.9-11.22 30.9-29.03 0-4.51-1.09-8.36-3.07-11.44h11l2.42-14.3h-29.6c-22.54 0-36.18 11.55-36.18 30.8 0 15.07 9.14 23.97 24.53 23.97zm1.54-14.84c-5.71 0-9.14-3.95-9.25-10.67-.1-9.35 5.4-14.96 14.43-14.96h5.15a20.55 20.55 0 012.2 9.46c0 9.9-4.82 16.17-12.53 16.17zm0 0"/></symbol><symbol overflow="visible" id="94a5f556ac"><path d="M33.66 1.31c3.64 0 7.15-.54 10.56-1.64l-.99-13.75a24.2 24.2 0 01-4.73.55c-4.3 0-6.05-2.2-5.4-6.6l3.2-19.03h17.72l2.42-14.3H6.8l-2.4 14.3h15.06l-3.19 19.47c-2.31 13.75 3.74 21 17.38 21zm0 0"/></symbol><symbol overflow="visible" id="94a5f556ad"><path d="M41.36-56.77l13.31-24.42H38.72L30.8-60.5zM1.44 0h16.83l6.04-35.86a15.4 15.4 0 0110.46-4.19c5.71 0 8.35 3.32 7.46 9.03l-9.01 53.68 18.26-8.36 7.7-46.32c2.3-14.3-4.5-22.76-18.59-22.76-6.72 0-12.22 1.98-16.39 5.94l-1.1-4.61H10.33zm0 0"/></symbol><symbol overflow="visible" id="94a5f556af"><path d="M14.19 22.66l18.26-8.36L34.65.55l30.8-54H46.97L29.16-20.12l-6.72-33.33H5.06L18.05-.55zm0 0"/></symbol><symbol overflow="visible" id="94a5f556ag"><path d="M37.4-56.77l13.3-24.42H34.77L26.84-60.5zM23.89 1.31c10.56 0 19.35-2.4 25.84-7.25L42.9-17.27c-4.63 2.86-10.24 5.29-17.07 5.29-4.39 0-7.14-1.44-7.14-4.2 0-3.29 3.2-4.84 9.13-4.84h9.69l2.07-12.3H29.7c-3.97 0-5.93-1.34-5.93-3.98 0-2.75 2.86-4.28 7.68-4.28 6.18 0 10.78 2.42 14.53 5.4l9.24-10.68c-6.38-5.28-14.84-7.92-24.75-7.92-13.97 0-23.53 6.48-23.53 16.72 0 4.51 2.3 8.14 6.37 10.45C5.83-25.3 1.55-20.45 1.55-13.75c0 9.45 8.8 15.06 22.32 15.06zm0 0"/></symbol><symbol overflow="visible" id="94a5f556ah"><path d="M25.19 22.44l17.15-7.92 2.2-13.2C66 .65 79.2-10.9 79.2-28.95c0-14.51-9.14-23.64-25.3-25.62l3.85-23.31-17.16 7.92-2.53 15.17c-21.34.66-34.54 12.1-34.54 30.14 0 14.52 9.14 23.66 25.3 25.62zM19.9-25.62c0-8.58 5.93-14.08 15.84-14.86L31.12-13.2c-7.35-.88-11.21-5.18-11.21-12.43zm43.01-2.2c0 8.57-6.05 14.07-15.95 14.73l4.51-27.29c7.47 1 11.44 5.29 11.44 12.55zm0 0"/></symbol><symbol overflow="visible" id="94a5f556ai"><path d="M28.48 1.31c15.63 0 26.74-9.12 29.16-24.18l5.17-30.58H45.98l-5.06 30.01c-.98 6.07-5.06 9.9-10.56 9.9-6.7 0-9.8-4.16-8.58-11.43l4.74-28.48H9.69L5.06-25.52C2.2-8.47 10.78 1.31 28.48 1.31zm0 0"/></symbol><symbol overflow="visible" id="94a5f556aj"><path d="M6.19 0h16.08v-21.63h5.14L43.47 0h19.22L41.16-28.67l20.57-27.4h-19L27.52-35.8h-5.25v-20.25H6.19zm0 0"/></symbol><symbol overflow="visible" id="94a5f556ak"><path d="M.53 0H16.7L21-10.4h24.25L49.56 0h16.17L41.37-56.06H24.9zM33.2-39.8l7.03 17.22H26.05zm0 0"/></symbol><symbol overflow="visible" id="94a5f556al"><path d="M34.23 1.27c19.32 0 30.97-11.04 30.97-29.3 0-18.38-11.65-29.3-30.97-29.3S3.25-46.4 3.25-28.03c0 18.26 11.66 29.3 30.98 29.3zm0-13.13c-9.76 0-15.43-5.98-15.43-16.17 0-10.19 5.67-16.17 15.43-16.17 9.77 0 15.33 5.98 15.33 16.17 0 10.19-5.56 16.17-15.33 16.17zM23-22.58h22.47v-11.75H23zm0 0"/></symbol><symbol overflow="visible" id="94a5f556am"><path d="M6.19 0h16.6v-21.63h21.3V0h16.6v-56.06h-16.6v20.25H22.8v-20.25H6.18zm0 0"/></symbol><symbol overflow="visible" id="94a5f556an"><path d="M6.19 0h15.65v-32.66l11.97 16.07h9.35l11.97-16.07V0h15.64v-56.06H55.66L38.44-33.28 21.3-56.06H6.2zm0 0"/></symbol><symbol overflow="visible" id="94a5f556ao"><path d="M6.19 0h45.58v-13.13H22.78v-9.23h19.53v-12.19H22.78v-8.39H50.5v-13.12H6.19zm0 0"/></symbol><symbol overflow="visible" id="94a5f556ap"><path d="M6.19 0h16.08v-16.6h10.28c14.5 0 22.58-7.13 22.58-19.73 0-12.6-8.08-19.73-22.58-19.73H6.19zM31.5-42.42c4.52 0 7.14 2.2 7.14 6.1 0 3.88-2.62 6.09-7.14 6.09h-9.23v-12.2zm0 0"/></symbol><symbol overflow="visible" id="94a5f556aq"><path d="M6.19 0h16.6v-56.06H6.18zm0 0"/></symbol><symbol overflow="visible" id="94a5f556ar"><path d="M6.19 0h15.65v-31.92L47.36 0h14.6v-56.06H46.3v31.81L20.8-56.06H6.19zm0 0"/></symbol><symbol overflow="visible" id="94a5f556at"><path d="M3.78 0h51.77v-14.17H26.67l27.61-30.25v-11.64H5.05V-42H31.3L3.78-11.77zm0 0"/></symbol><symbol overflow="visible" id="94a5f556au"><path d="M3.16 0h29.5v-12.7c-7.25-4.32-10.82-10.08-10.82-17.22 0-7.99 5.14-12.81 13.64-12.81 8.52 0 13.55 4.82 13.55 12.8 0 7.15-3.56 12.91-10.7 17.23V0h29.5v-14.17H57.64c5.67-4.2 8.52-10.3 8.52-17.75 0-15.95-11.46-25.4-30.68-25.4-19.2 0-30.65 9.45-30.65 25.4 0 7.45 2.84 13.55 8.5 17.75H3.16zm0 0"/></symbol><symbol overflow="visible" id="94a5f556av"><path d="M12.86 0h10.3l8.23-49.4H21.1zM8.3-33.38l8.6-16.01H7.58L2.06-35.58zm0 0"/></symbol><symbol overflow="visible" id="94a5f556aw"><path d="M18.75.88c11.83 0 19.77-7.2 19.77-18.08 0-6.47-3.16-11.7-10.52-16.02-5.52-3.1-7.27-4.19-7.27-7.12 0-2.88 2.27-4.86 6.32-4.86 3.37 0 6.1 1.54 8.67 3.6l5.6-6.92a21.57 21.57 0 00-14.35-5.28c-9.63 0-15.94 5.22-15.94 13.16a11.2 11.2 0 004.55 9.25C7.42-28.6 2.2-22.5 2.2-14.27 2.2-5 8.6.87 18.75.87zm.73-8.6c-4.34 0-7.28-2.72-7.28-7.06 0-5.2 3.32-8.74 9.77-10.72 5 2.64 6.55 5.28 6.55 8.9 0 5.35-3.54 8.88-9.04 8.88zm0 0"/></symbol><symbol overflow="visible" id="94a5f556ax"><path d="M13.6.88c1.92 0 3.74-.22 5.5-.66v-8.24c-.94.22-1.98.3-2.93.3-2.42 0-3.53-1.39-3.1-3.97l3.98-23.81h-9.7L3.3-11.47C1.98-3.67 5.81.88 13.6.88zm0 0"/></symbol><symbol overflow="visible" id="94a5f556ay"><path d="M19.4.88c13.08 0 21.32-8.46 21.32-21.9 0-9.64-6.33-15.36-16.9-15.36-13.09 0-21.32 8.44-21.32 21.83C2.5-4.92 8.81.88 19.4.88zm.82-8.6c-4.86 0-7.72-2.8-7.72-7.64 0-7.58 4.03-12.5 10.44-12.5 4.92 0 7.78 2.88 7.78 7.72 0 7.5-4.03 12.42-10.5 12.42zm0 0"/></symbol><symbol overflow="visible" id="94a5f556aA"><path d="M-1.25 15.88h9.7l2.86-17.13C12.94 0 15.28.59 18.16.59c3.53 0 6.3-1.1 8.67-3.45L27.27 0h7.42l5.89-35.5h-9.7l-4.05 24.55a10.51 10.51 0 01-7.72 3.23c-4.33 0-6.33-2.42-5.58-6.76l3.52-21.02h-9.7zm0 0"/></symbol><symbol overflow="visible" id="94a5f556aB"><path d="M15.73.88c6.83 0 12.57-1.61 16.68-4.85l-4.03-6.55a20.72 20.72 0 01-11.55 3.7c-3.45 0-5.66-1.26-5.66-3.54 0-2.72 2.5-4.12 7.06-4.12h6.32l1.17-7.13h-6.47c-3 0-4.63-1.25-4.63-3.45 0-2.28 2.36-3.61 6.04-3.61 4.18 0 7.42 1.55 10 3.75l5.36-6.17c-4.05-3.54-9.49-5.29-15.88-5.29-9.05 0-15.22 4.2-15.22 10.88a7.72 7.72 0 004.35 7.13c-5.08 1.54-8.02 4.84-8.02 9.4C1.25-2.8 6.98.88 15.73.88zm0 0"/></symbol><symbol overflow="visible" id="94a5f556aC"><path d="M27.56-38l8.6-16.02h-9.33L21.3-40.28zM17.26.88c4.49 0 8.02-1.32 10.68-3.97l.5 3.09h7.43l5.96-35.5h-7.5l-1.85 3.9c-2.5-3.24-6.09-4.77-10.8-4.77C9.93-36.38 2.5-27.87 2.5-14.2 2.5-4.79 8.02.87 17.27.87zM12.5-15.29c0-7.58 3.97-12.58 10.28-12.58a8.21 8.21 0 017.36 3.97L28-11.17a10.07 10.07 0 01-7.94 3.45c-4.78 0-7.56-2.8-7.56-7.56zm0 0"/></symbol><symbol overflow="visible" id="94a5f556aD"><path d="M-2.13 0H8.6l13.97-24.4L26.7 0h9.98L28.3-38.44C25.95-49.9 21.97-53.8 12.78-53.8c-1.9 0-3.6.22-5.14.58l1.4 8.24c.88-.08 1.76-.22 2.73-.22 4.62 0 6.53 1.68 7.71 6.9l.5 2.2zm0 0"/></symbol><symbol overflow="visible" id="94a5f556aE"><path d="M17.27.88c4.48 0 8.01-1.32 10.67-3.97l.5 3.09h7.43l5.96-35.5h-7.5l-1.85 3.9c-2.5-3.24-6.09-4.77-10.8-4.77C9.93-36.38 2.5-27.87 2.5-14.2 2.5-4.79 8.02.87 17.27.87zM12.5-15.29c0-7.58 3.97-12.58 10.28-12.58a8.21 8.21 0 017.36 3.97L28-11.17a10.07 10.07 0 01-7.94 3.45c-4.78 0-7.56-2.8-7.56-7.56zm0 0"/></symbol><symbol overflow="visible" id="94a5f556aF"><path d="M4.92 0h9.7l4.57-27.27h11.23l-2.64 15.8C26.45-3.59 30.2.88 38.08.88c1.9 0 3.75-.22 5.5-.66v-8.24c-.95.22-1.99.3-2.94.3-2.42 0-3.6-1.39-3.16-3.97l2.65-15.58h7.06l1.39-8.23H4.63l-1.4 8.23h6.25zm0 0"/></symbol><symbol overflow="visible" id="94a5f556aG"><path d="M22.2.88c2.43 0 4.63-.36 6.83-1.1l-.66-7.94c-1.18.3-2.28.44-3.45.44-3.1 0-4.42-1.6-3.9-4.92l2.43-14.63h12.27l1.4-8.23H4.63l-1.39 8.23h10.52l-2.5 14.93C9.85-3.75 13.67.87 22.2.87zm0 0"/></symbol><symbol overflow="visible" id="94a5f556aH"><path d="M24.33-38l8.6-16.02h-9.34l-5.51 13.74zM15.73.88c6.83 0 12.57-1.61 16.68-4.85l-4.03-6.55a20.72 20.72 0 01-11.55 3.7c-3.45 0-5.66-1.26-5.66-3.54 0-2.72 2.5-4.12 7.06-4.12h6.32l1.17-7.13h-6.47c-3 0-4.63-1.25-4.63-3.45 0-2.28 2.36-3.61 6.04-3.61 4.18 0 7.42 1.55 10 3.75l5.36-6.17c-4.05-3.54-9.49-5.29-15.88-5.29-9.05 0-15.22 4.2-15.22 10.88a7.72 7.72 0 004.35 7.13c-5.08 1.54-8.02 4.84-8.02 9.4C1.25-2.8 6.98.88 15.73.88zm0 0"/></symbol><symbol overflow="visible" id="94a5f556aI"><path d="M18.52.88c12.36 0 20.14-7.57 20.14-19.63 0-3.38-.8-6.23-2.43-8.52h8.1l1.31-8.23H26.02C11.32-35.5 2.5-27.86 2.5-15 2.5-5.08 8.53.88 18.52.88zm.8-8.6c-4.4 0-7.04-3.01-7.12-8.08-.07-7.14 4.11-11.47 11.1-11.47h3.82a14.81 14.81 0 011.83 7.43c0 7.42-3.6 12.12-9.62 12.12zm0 0"/></symbol><symbol overflow="visible" id="94a5f556aJ"><path d="M13 0h74.4v-10.14H29.71l36.86-36.31c14.4-14.07 20.81-26.9 20.81-39.7 0-21.9-13.87-35.6-36.12-35.6-17.8 0-31.33 6.77-40.41 20.3l8.55 6.4c7.46-10.5 17.62-16.2 30.8-16.2 15.82 0 25.79 9.97 25.79 25.63 0 10.51-6.22 21.01-19.75 34.18L13-9.25zm0 0"/></symbol><symbol overflow="visible" id="94a5f556aK"><path d="M51.27 2.14c28.12 0 42.54-20.83 42.54-61.95 0-41.11-14.42-61.94-42.54-61.94-28.13 0-42.55 20.83-42.55 61.94 0 41.12 14.42 61.95 42.55 61.95zM19.4-59.8c0-35.06 10.5-52.16 31.86-52.16 12.8 0 21.71 6.06 26.87 18.7l-56.78 56.6a124.35 124.35 0 01-1.95-23.14zM51.27-7.66c-12.82 0-21.72-6.04-26.88-18.68l56.78-56.61c1.24 6.6 1.95 14.25 1.95 23.14 0 35.08-10.5 52.15-31.85 52.15zm0 0"/></symbol><symbol overflow="visible" id="94a5f556aL"><path d="M55.9 0h11.2v-119.6h-9.79l-34.7 17.26 4.98 9.78 28.3-14.24zm0 0"/></symbol><symbol overflow="visible" id="94a5f556aM"><path d="M46.98 2.14C71.38 2.14 87.4-13 87.4-35.42c0-22.08-12.98-35.25-38.27-36.85l35.07-38.09v-9.25H15.13v10.14h54.65L34.36-71.02v8.2h7.83C63.9-62.83 76-52.87 76-35.43 76-19.05 64.27-8.36 46.45-8.36c-12.8 0-22.6-5.17-29.9-14.06l-7.83 7.47C17.8-3.56 30.44 2.15 46.98 2.15zm0 0"/></symbol><symbol overflow="visible" id="94a5f556aN"><path d="M4.81-55.72H55v-10.31H4.81zm0 0"/></symbol><symbol overflow="visible" id="94a5f556aO"><path d="M54.47 2.14c23.67 0 39.34-16.2 39.34-40.23 0-23.85-13.72-38.1-37.03-38.1-15.66 0-27.06 5.35-34.53 16.56C23.5-92.2 34.53-111.6 59.28-111.6c10.14 0 18.16 3.56 24.9 9.8l6.43-8.19c-7.84-7.84-18.52-11.75-31.88-11.75-30.78 0-47.87 24.2-47.87 66.22 0 37.37 15.48 57.67 43.6 57.67zM55-66.58c17.45 0 27.6 10.69 27.6 28.49 0 17.98-11.22 30.07-28.3 30.07-19.77 0-30.8-15.48-32.05-39.68C29.19-60.16 40.05-66.58 55-66.58zm0 0"/></symbol><symbol overflow="visible" id="94a5f556aP"><path d="M28.66 0h12.1L89-111.25v-8.36H11.4v10.14h65.32zm0 0"/></symbol><symbol overflow="visible" id="94a5f556aQ"><path d="M9.16 0h91.8v-35.75c-25.46-16.88-40.9-38.9-40.9-67.2 0-32.33 19.16-51.49 51.19-51.49 31.75 0 50.9 19.16 50.9 51.49 0 28.3-15.43 50.33-40.88 67.2V0h91.8v-39.75h-34.32c20.88-17.73 31.17-40.6 31.17-68.36 0-54.9-36.89-87.52-98.67-87.52-62.06 0-98.95 32.61-98.95 87.52 0 27.75 10.3 50.63 31.17 68.36H9.16zm0 0"/></symbol><symbol overflow="visible" id="94a5f556aR"><path d="M57.28 2.6c32.99 0 54.9-19.74 54.9-49.26 0-30.15-19.3-47.3-53.59-47.3h-9.32v-22.57h57.71v-29.3H18.02v78.99h32.76c17.36 0 27.13 7.17 27.13 20.18 0 11.72-8.47 19.1-22.58 19.1-13.02 0-21.47-6.08-29.28-13.46L4.98-18.23C18.44-4.34 35.81 2.6 57.28 2.6zm0 0"/></symbol><symbol overflow="visible" id="94a5f556aS"><path d="M1.3-45.56h16.28C24.73-13.9 45.14 2.6 77.47 2.6c21.48 0 38.19-7.81 50.34-23.44l-25.17-15.62c-6.08 6.3-13.23 10.84-24.1 10.84-13.45 0-22.77-6.72-27.54-19.95h39.06v-23.22H47.1v-4.13-5.86h42.97v-23.21H51.64c5-12.16 13.9-18.24 26.9-18.24 10.87 0 18.02 4.56 24.1 10.84l25.17-15.6c-12.15-15.63-28.86-23.44-50.34-23.44-31.69 0-52.08 16.04-59.45 46.44H1.3v23.21h13.67c0 1.96-.22 3.91-.22 5.86 0 1.52 0 2.82.22 4.13H1.3zm0 0"/></symbol><symbol overflow="visible" id="94a5f556aT"><path d="M5.6 0h12.1l.2-1.17H7.1l1.3-7.81h7.79l.17-1.16H8.59l1.27-7.5H20.3l.2-1.17H8.73zM2.47-13.25l2.83-5.56H3.86l-2.38 5.2zm0 0"/></symbol><symbol overflow="visible" id="94a5f556aU"><path d="M8.06.34c.78 0 1.49-.14 2.13-.42l-.22-1.1a4.9 4.9 0 01-1.7.34c-1.63 0-2.33-.9-2.05-2.66l1.42-8.55h5.38l.2-1.14H1.87l-.18 1.14h4.7L4.95-3.5C4.53-1.02 5.62.34 8.06.34zm0 0"/></symbol><symbol overflow="visible" id="94a5f556aV"><path d="M6.78.34c4.31 0 7-3.03 7-7.8 0-1.77-.42-3.32-1.33-4.59h3.9l.2-1.14H9.22c-4.94 0-7.88 2.9-7.88 7.75C1.34-1.8 3.4.34 6.78.34zm.05-1.18c-2.58 0-4.17-1.74-4.22-4.68-.1-4.09 2.31-6.53 6.4-6.53h2.22a7.9 7.9 0 011.29 4.49c0 4.12-2.16 6.72-5.7 6.72zm0 0"/></symbol><symbol overflow="visible" id="94a5f556aW"><path d="M4.45.34c.53 0 1.07-.09 1.63-.26l-.14-1.11c-.42.1-.9.19-1.32.19-1.26 0-1.85-.72-1.65-2.07L4.7-13.19H3.44L1.7-2.89C1.4-.87 2.38.34 4.45.34zm0 0"/></symbol><symbol overflow="visible" id="94a5f556aY"><path d="M2.58 0h1.26l2.02-12.05h7.05l-1.54 9.16c-.34 2.02.68 3.23 2.74 3.23.53 0 1.06-.09 1.62-.26l-.14-1.11c-.42.1-.89.19-1.3.19-1.27 0-1.85-.72-1.66-2.07l1.54-9.14h3.22l.19-1.14H1.88l-.2 1.14H4.6zm0 0"/></symbol><symbol overflow="visible" id="94a5f556aZ"><path d="M1.84.34c.64 0 1.1-.45 1.1-1.09 0-.53-.33-.84-.85-.84-.67 0-1.07.45-1.07 1.09 0 .5.3.84.82.84zm0 0"/></symbol><symbol overflow="visible" id="94a5f556ba"><path d="M-1.52 5.4H.06l6.4-8.54 3.68 8.55h1.38L7.45-4.1l6.83-9.1h-1.56l-6 8-3.42-8H1.94l3.8 8.96zm0 0"/></symbol><symbol overflow="visible" id="94a5f556bb"><path d="M7.95 0h1.27l3.12-18.81h-1.1l-5.87 2.54.43 1.13 5.04-2.22zm0 0"/></symbol><symbol overflow="visible" id="94a5f556bc"><path d="M4.17-11.6c.64 0 1.1-.45 1.1-1.09 0-.53-.35-.84-.85-.84-.67 0-1.1.45-1.1 1.1 0 .5.32.84.85.84zM2.2.35c.64 0 1.1-.45 1.1-1.09 0-.53-.35-.84-.85-.84-.67 0-1.1.45-1.1 1.09 0 .5.32.84.85.84zm0 0"/></symbol><symbol overflow="visible" id="94a5f556bd"><path d="M7.08.34c4.9 0 8.15-5.15 8.15-12.86 0-4.23-1.9-6.64-5.3-6.64-4.88 0-8.16 5.16-8.16 12.86C1.77-2.08 3.7.34 7.07.34zm.06-1.18c-2.62 0-4.1-1.96-4.1-5.49 0-7 2.76-11.64 6.85-11.64 2.63 0 4.08 1.95 4.08 5.49 0 6.96-2.72 11.64-6.83 11.64zm0 0"/></symbol><symbol overflow="visible" id="94a5f556be"><path d="M1.23 0h1.25l1.7-10.16a5.88 5.88 0 014.62-2.18c2.54 0 3.75 1.45 3.32 4.03L9.8 5.55l1.3-.35 2.3-13.57c.52-3.26-1.13-5.16-4.35-5.16-1.9 0-3.47.65-4.68 1.94l.16-1.6h-1.1zm0 0"/></symbol><symbol overflow="visible" id="94a5f556bf"><path d="M.31 5.55l1.31-.35 1.13-6.76C3.33-.36 4.65.3 6.53.3c1.81 0 3.24-.6 4.36-1.83L10.72 0h1.1l2.21-13.19h-1.26l-1.7 10.16A5.45 5.45 0 016.6-.84c-2.55 0-3.75-1.43-3.33-3.93l1.42-8.42H3.44zm0 0"/></symbol><symbol overflow="visible" id="94a5f556bg"><path d="M6.8.34c1.93 0 3.45-.68 4.73-2L11.38 0h1.07l2.2-13.19h-1.1l-.43 1.88a5.46 5.46 0 00-4.64-2.22c-4.39 0-7.14 3.23-7.14 8.34C1.34-1.73 3.4.34 6.8.34zm-4.2-5.6c0-4.35 2.32-7.08 5.96-7.08 1.83 0 3.25.78 4.3 2.37l-1.16 6.9A6.04 6.04 0 017.03-.85c-2.78 0-4.42-1.64-4.42-4.43zm0 0"/></symbol><symbol overflow="visible" id="94a5f556bh"><path d="M4.53-14.67l2.83-5.58H5.9l-2.38 5.22zM4.45.34c.53 0 1.07-.09 1.63-.26l-.14-1.11c-.42.1-.9.19-1.32.19-1.26 0-1.85-.72-1.65-2.07L4.7-13.19H3.44L1.7-2.89C1.4-.87 2.38.34 4.45.34zm0 0"/></symbol><symbol overflow="visible" id="94a5f556bi"><path d="M5.44 0h1.25l7.76-13.19h-1.47L6.27-1.69l-2.88-11.5H2.1zm0 0"/></symbol><symbol overflow="visible" id="94a5f556bj"><path d="M5.6.34c2.28 0 4.2-.62 5.43-1.86l-.7-.89A6.8 6.8 0 015.69-.78c-2.13 0-3.57-.9-3.57-2.4 0-1.91 1.58-3.04 4.18-3.04h2.25l.15-1.06H6.4c-1.8 0-2.82-.9-2.82-2.49 0-1.62 1.54-2.64 3.76-2.64 1.64 0 3.13.6 4.18 1.7l.86-.8c-1.18-1.35-3-2.02-5.1-2.02-2.94 0-4.95 1.44-4.95 3.73 0 1.46.64 2.49 1.78 3C2.08-6.36.87-5.05.87-3.1.88-.96 2.75.33 5.6.33zm0 0"/></symbol><symbol overflow="visible" id="94a5f556bk"><path d="M5.63.34c2.04 0 3.8-1.37 4.73-3.7.22 2.33 1.62 3.7 4.1 3.7 3.43 0 5.45-3.17 5.45-8.21 0-1.96-.36-3.75-1.07-5.32H17.5a12.5 12.5 0 011.14 5.38c0 4.31-1.5 6.97-4.22 6.97-2.47 0-3.6-2.07-3.04-5.41l.57-3.58h-1.2l-.64 3.78c-.53 3.2-2.23 5.2-4.31 5.2-1.96 0-2.97-1.38-2.97-3.77a12.5 12.5 0 013.33-8.57H4.64a13.18 13.18 0 00-3.08 8.67C1.56-1.48 3 .34 5.62.34zm0 0"/></symbol><symbol overflow="visible" id="94a5f556bl"><path d="M10.42 4.9c.47-1.2.75-2.18.75-2.95 0-1.48-.7-2.34-2.86-2.73C4.1-1.52 2.66-3 2.66-5.66c0-4.1 2.32-6.68 6-6.68 2.04 0 3.39.92 4.21 2.62l1.2-.44c-.96-2.25-2.79-3.37-5.37-3.37-4.47 0-7.32 3.1-7.32 7.95 0 3.22 1.7 5.11 6.37 5.92 1.63.27 2.14.8 2.14 1.82 0 .59-.2 1.37-.6 2.36zm0 0"/></symbol><symbol overflow="visible" id="94a5f556bm"><path d="M7.1.34c4.54 0 7.43-3.2 7.43-8.26 0-3.5-2.15-5.61-5.73-5.61-4.57 0-7.46 3.2-7.46 8.26C1.34-1.77 3.5.34 7.11.34zm.07-1.18c-2.86 0-4.56-1.68-4.56-4.5 0-4.27 2.37-7 6.1-7 2.85 0 4.56 1.67 4.56 4.46 0 4.3-2.35 7.04-6.1 7.04zm0 0"/></symbol><symbol overflow="visible" id="94a5f556bn"><path d="M6.94.34c4.03 0 6.72-2.7 6.72-6.73 0-2.3-1.18-4.22-4.14-5.74-2.72-1.37-3.58-2.15-3.58-3.64 0-1.76 1.56-2.93 3.92-2.93 1.48 0 2.77.6 3.94 1.7l.87-.84a6.5 6.5 0 00-4.81-2.02c-3.11 0-5.19 1.63-5.19 4.06 0 1.72 1.02 2.82 2.55 3.64-3.69 1.2-5.99 3.57-5.99 7.07 0 3.32 2.2 5.43 5.7 5.43zM7-.84c-2.75 0-4.48-1.64-4.48-4.29 0-3.15 2.12-5.3 5.89-6.18 3.04 1.48 4 3.03 4 4.95C12.4-3.05 10.2-.84 7-.84zm0 0"/></symbol><symbol overflow="visible" id="94a5f556bo"><path d="M9.19-14.67l2.83-5.58h-1.44L8.2-15.03zM1.23 0h1.25l1.7-10.16a5.88 5.88 0 014.62-2.18c2.54 0 3.75 1.45 3.32 4.03L9.8 5.55l1.3-.35 2.3-13.57c.52-3.26-1.13-5.16-4.35-5.16-1.9 0-3.47.65-4.68 1.94l.16-1.6h-1.1zm0 0"/></symbol><symbol overflow="visible" id="94a5f556bp"><path d="M9.52-14.67l2.82-5.58H10.9l-2.37 5.22zM6.8.34c1.93 0 3.45-.68 4.73-2L11.38 0h1.07l2.2-13.19h-1.1l-.43 1.88a5.46 5.46 0 00-4.64-2.22c-4.39 0-7.14 3.23-7.14 8.34C1.34-1.73 3.4.34 6.8.34zm-4.2-5.6c0-4.35 2.32-7.08 5.96-7.08 1.83 0 3.25.78 4.3 2.37l-1.16 6.9A6.04 6.04 0 017.03-.85c-2.78 0-4.42-1.64-4.42-4.43zm0 0"/></symbol><symbol overflow="visible" id="94a5f556bq"><path d="M1.23 0h1.24L3.5-6.19h2.94L10.16 0h1.48L7.61-6.66l6-6.53h-1.69L6.53-7.34H3.7l.97-5.85H3.44zm0 0"/></symbol><symbol overflow="visible" id="94a5f556br"><path d="M6.86.34c3.14 0 5.4-1.97 5.9-5.1l1.44-8.43h-1.26l-1.42 8.42A4.45 4.45 0 016.94-.84c-2.85 0-4.19-1.64-3.72-4.57l1.31-7.78H3.28L1.95-5.44C1.38-1.8 3.2.34 6.85.34zm0 0"/></symbol><symbol overflow="visible" id="94a5f556bs"><path d="M.14 5.55l1.31-.35L2.63-1.8C3.71-.4 5.3.34 7.38.34c4.4 0 7.17-3.2 7.17-8.26 0-3.42-2.12-5.61-5.44-5.61-3.64 0-6.21 2.33-6.82 6.17zm3.42-12.9c.5-3.12 2.56-5 5.49-5 2.57 0 4.2 1.74 4.2 4.47 0 4.3-2.3 7.04-5.9 7.04-2 0-3.5-.79-4.5-2.38zm0 0"/></symbol><symbol overflow="visible" id="94a5f556bt"><path d="M5.4 4.45l1-.75a14.35 14.35 0 01-3.35-9.47c0-6.21 2.43-10.86 7.25-13.86l-.78-.95c-5.27 3.28-7.75 8.1-7.75 14.9C1.77-1.57 3 1.81 5.4 4.44zm0 0"/></symbol><symbol overflow="visible" id="94a5f556bu"><path d="M-.1 0h1.44l7.04-11.56L10.91 0h1.31L8.56-15.73c-.67-3-1.76-4.13-4.04-4.13-.6 0-1.1.1-1.55.23l.31 1.1c.33-.1.69-.14 1.14-.14 1.66 0 2.38.78 2.94 3.08l.62 2.4zm0 0"/></symbol><symbol overflow="visible" id="94a5f556bv"><path d="M9.52-14.67l2.82-5.58H10.9l-2.37 5.22zM7.1.34c4.53 0 7.42-3.2 7.42-8.26 0-3.5-2.15-5.61-5.73-5.61-4.57 0-7.46 3.2-7.46 8.26C1.34-1.77 3.5.34 7.11.34zm.06-1.18c-2.86 0-4.56-1.68-4.56-4.5 0-4.27 2.37-7 6.1-7 2.85 0 4.56 1.67 4.56 4.46 0 4.3-2.35 7.04-6.1 7.04zm0 0"/></symbol><symbol overflow="visible" id="94a5f556bw"><path d="M-.06 4.67L3.1-1.69H1.59l-2.71 6zm0 0"/></symbol><symbol overflow="visible" id="94a5f556bx"><path d="M8.17-14.67L11-20.25H9.58L7.2-15.03zM5.6.34c2.29 0 4.2-.62 5.44-1.86l-.7-.89A6.8 6.8 0 015.69-.78c-2.13 0-3.57-.9-3.57-2.4 0-1.91 1.58-3.04 4.18-3.04h2.25l.15-1.06H6.4c-1.8 0-2.82-.9-2.82-2.49 0-1.62 1.54-2.64 3.76-2.64 1.64 0 3.13.6 4.18 1.7l.86-.8c-1.18-1.35-3-2.02-5.1-2.02-2.94 0-4.95 1.44-4.95 3.73 0 1.46.64 2.49 1.78 3C2.08-6.36.87-5.05.87-3.1.88-.96 2.75.33 5.6.33zm0 0"/></symbol><symbol overflow="visible" id="94a5f556by"><path d="M3.44-20.58l-1 .75c2.2 2.64 3.36 5.8 3.36 9.44C5.8-4.17 3.36.47-1.45 3.5l.78.95c5.26-3.28 7.75-8.12 7.75-14.92 0-4.12-1.22-7.48-3.64-10.1zm0 0"/></symbol><symbol overflow="visible" id="94a5f556bz"><path d="M4.52 5.55l1.3-.35L6.7.03l7.76-13.22h-1.47L6.27-1.69l-2.88-11.5H2.1L5.44-.03zm0 0"/></symbol><symbol overflow="visible" id="94a5f556bA"><path d="M7.22 5.52l1.26-.29L9.3.34c5.6 0 9.01-2.86 9.01-7.59 0-3.81-2.4-6.05-6.68-6.25l1-6.13-1.26.29-.98 5.8c-5.58 0-8.98 2.87-8.98 7.6C1.4-2.12 3.8.11 8.09.31zm-4.6-11.5c0-3.93 2.83-6.32 7.57-6.4L8.29-.84C4.66-.95 2.62-2.83 2.62-5.98zM17.09-7.2c0 3.92-2.83 6.3-7.6 6.39l1.94-11.53c3.61.1 5.66 1.98 5.66 5.14zm0 0"/></symbol><symbol overflow="visible" id="94a5f556bB"><path d="M9.75 4.9c.47-1.2.75-2.18.75-2.95 0-1.48-.7-2.34-2.86-2.73-4.2-.7-5.26-2.25-5.26-4.84 0-3.99 5.5-8.38 11.56-12.77l.17-1.13H4.03l-.17 1.14h8.12C6.22-14.03 1.1-10 1.1-5.52 1.1-2.36 2.41-.47 7.11.34c1.6.27 2.1.8 2.1 1.82 0 .59-.2 1.37-.59 2.36zm0 0"/></symbol><symbol overflow="visible" id="94a5f556bC"><path d="M2.19 0h3.19v-8.28h9.4V0h3.19v-18.81h-3.19v7.75h-9.4v-7.75h-3.2zm0 0"/></symbol><symbol overflow="visible" id="94a5f556bE"><path d="M.5 0h3.25l4.14-9.9L11.4 0h3.22L8.9-15.13C7.59-18.73 6.12-19.9 3-19.9c-.78 0-1.52.11-2.19.32l.64 2.54c.46-.14.96-.23 1.46-.23 1.65 0 2.5.7 3.2 2.53l.47 1.22zm0 0"/></symbol><symbol overflow="visible" id="94a5f556bF"><path d="M6.72.34c2.51 0 4.56-.68 6.14-2.03L11.34-3.6a7.03 7.03 0 01-4.37 1.52C5.2-2.1 4.2-2.77 4.2-3.92c0-1.17.9-1.8 2.52-1.8h2.51v-2.26H6.8c-1.5 0-2.35-.58-2.35-1.68 0-1.06.9-1.68 2.52-1.68 1.6 0 2.89.53 4.03 1.34l1.52-1.92a8.87 8.87 0 00-5.8-1.86c-3.36 0-5.3 1.44-5.3 3.89 0 1.37.7 2.42 1.94 2.95A3.26 3.26 0 001.09-3.7C1.1-1.14 3.16.34 6.72.34zm0 0"/></symbol><symbol overflow="visible" id="94a5f556bG"><path d="M1.84 5.73l3.04-.75V-.7c.67.62 1.62.95 2.76.95 1.49 0 2.69-.56 3.6-1.7L11.58 0h2.35v-13.44h-3.02v9.35a3.72 3.72 0 01-3.28 1.73c-1.76 0-2.76-1-2.76-2.77v-8.3H1.83zm0 0"/></symbol><symbol overflow="visible" id="94a5f556bH"><path d="M8.14.34c4.44 0 7.06-2.67 7.06-7.06 0-4.42-2.62-7.06-7.06-7.06-4.42 0-7.05 2.64-7.05 7.06C1.1-2.32 3.72.34 8.14.34zm0-2.7C5.7-2.36 4.2-4 4.2-6.72c0-2.75 1.49-4.37 3.94-4.37 2.5 0 3.95 1.62 3.95 4.37 0 2.72-1.45 4.36-3.95 4.36zm0 0"/></symbol><symbol overflow="visible" id="94a5f556bI"><path d="M6.05 0h3.03l5.53-13.44h-3.22L7.56-3.7l-3.81-9.74H.5zm0 0"/></symbol><symbol overflow="visible" id="94a5f556bJ"><path d="M8.98-14.53l2.27-5.97H8.28l-1.31 5.47zM7.47.34a5.3 5.3 0 004.26-1.82L12.1 0h2.36v-13.44H12.1l-.36 1.52a5.18 5.18 0 00-4.26-1.86c-3.97 0-6.38 2.64-6.38 7.06C1.1-2.32 3.47.34 7.47.34zM4.2-6.72c0-2.75 1.46-4.37 3.86-4.37 1.38 0 2.5.59 3.36 1.73v5.27a3.93 3.93 0 01-3.36 1.73C5.66-2.36 4.2-4 4.2-6.72zm0 0"/></symbol><symbol overflow="visible" id="94a5f556bK"><path d="M7.81.34c4.14 0 6.72-2.39 6.72-6.14 0-3-1.37-5.01-4.87-6.51-2.77-1.16-3.9-1.69-3.9-3.03 0-1.2 1.02-1.96 2.7-1.96 1.34 0 2.43.53 3.46 1.35l1.61-2.11a8.13 8.13 0 00-5.3-1.85c-3.32 0-5.46 1.7-5.46 4.46 0 1.76.84 2.97 2.53 3.89-2.82 1.17-4.2 3.1-4.2 5.76C1.1-2.05 3.7.34 7.8.34zm0-2.67c-2.22 0-3.6-1.37-3.6-3.54 0-1.86.92-3.18 3.6-4.1 2.69.92 3.61 2.24 3.61 4.1 0 2.17-1.39 3.54-3.6 3.54zm0 0"/></symbol><symbol overflow="visible" id="94a5f556bL"><path d="M7.47.34a5.3 5.3 0 004.26-1.82L12.1 0h2.36v-13.44H12.1l-.36 1.52a5.18 5.18 0 00-4.26-1.86c-3.97 0-6.38 2.64-6.38 7.06C1.1-2.32 3.47.34 7.47.34zM4.2-6.72c0-2.75 1.46-4.37 3.86-4.37 1.38 0 2.5.59 3.36 1.73v5.27a3.93 3.93 0 01-3.36 1.73C5.66-2.36 4.2-4 4.2-6.72zm0 0"/></symbol><symbol overflow="visible" id="94a5f556bM"><path d="M4.2-14.53l2.27-5.97H3.5l-1.31 5.47zM5.87.34A6.5 6.5 0 008.07 0L7.7-2.52c-.36.08-.8.16-1.3.16-1 0-1.53-.53-1.53-1.5v-9.58H1.85v9.74C1.84-1.1 3.28.34 5.88.34zm0 0"/></symbol><symbol overflow="visible" id="94a5f556bN"><path d="M5.88.34A6.5 6.5 0 008.05 0L7.7-2.52c-.36.08-.8.16-1.3.16-1 0-1.53-.53-1.53-1.5v-9.58H1.85v9.74C1.84-1.1 3.28.34 5.88.34zm0 0"/></symbol><symbol overflow="visible" id="94a5f556bO"><path d="M7.73-14.53L10-20.5H7.03l-1.31 5.47zM6.72.34c2.51 0 4.56-.68 6.14-2.03L11.34-3.6a7.03 7.03 0 01-4.37 1.52C5.2-2.1 4.2-2.77 4.2-3.92c0-1.17.9-1.8 2.52-1.8h2.51v-2.26H6.8c-1.5 0-2.35-.58-2.35-1.68 0-1.06.9-1.68 2.52-1.68 1.6 0 2.89.53 4.03 1.34l1.52-1.92a8.87 8.87 0 00-5.8-1.86c-3.36 0-5.3 1.44-5.3 3.89 0 1.37.7 2.42 1.94 2.95A3.26 3.26 0 001.09-3.7C1.1-1.14 3.16.34 6.72.34zm0 0"/></symbol><symbol overflow="visible" id="94a5f556bP"><path d="M1.69 5.73l3.01-.75v-6.21A5.5 5.5 0 008.81.34c4.02 0 6.4-2.67 6.4-7.06 0-4.42-2.52-7.06-6.73-7.06-4.34 0-6.8 2.47-6.8 6.89zM4.7-7.07c0-2.55 1.32-4.02 3.67-4.02 2.33 0 3.72 1.62 3.72 4.37 0 2.72-1.42 4.36-3.86 4.36A4.2 4.2 0 014.7-4.17zm0 0"/></symbol><symbol overflow="visible" id="94a5f556bQ"><path d="M7.81.34c4.17 0 6.72-2.64 6.72-6.73 0-1.84-.64-3.36-1.8-4.45h3.32v-2.6H8.9c-4.99 0-7.82 2.52-7.82 6.97C1.1-2.22 3.61.34 7.81.34zm0-2.7c-2.3 0-3.7-1.6-3.7-4.19 0-2.75 1.6-4.3 4.3-4.3h1.36a5.53 5.53 0 011.75 4.13c0 2.66-1.38 4.36-3.7 4.36zm0 0"/></symbol><symbol overflow="visible" id="94a5f556bR"><path d="M9.23.34a6.6 6.6 0 002.7-.51l-.54-2.49c-.53.2-1.06.3-1.64.3-1.27 0-1.86-.58-1.86-1.84v-6.64h4.88v-2.6H.67v2.6h4.2v6.8C4.88-1.2 6.42.35 9.23.35zm0 0"/></symbol><symbol overflow="visible" id="94a5f556bS"><path d="M1.84 0h2.94v-5.6h1.9L10.73 0h3.56L9.23-6.9l4.8-6.54H10.5L6.69-8.2h-1.9v-5.24H1.83zm0 0"/></symbol><symbol overflow="visible" id="94a5f556bT"><path d="M8.98-14.53l2.27-5.97H8.28l-1.31 5.47zM8.14.34c4.44 0 7.06-2.67 7.06-7.06 0-4.42-2.62-7.06-7.06-7.06-4.42 0-7.05 2.64-7.05 7.06C1.1-2.32 3.72.34 8.14.34zm0-2.7C5.7-2.36 4.2-4 4.2-6.72c0-2.75 1.49-4.37 3.94-4.37 2.5 0 3.95 1.62 3.95 4.37 0 2.72-1.45 4.36-3.95 4.36zm0 0"/></symbol><symbol overflow="visible" id="94a5f556bU"><path d="M3.19 0h3.03v-10.84h5.03v7.14c0 2.6 1.44 4.04 4.03 4.04A6.5 6.5 0 0017.47 0l-.36-2.52c-.36.08-.81.16-1.31.16-.99 0-1.52-.53-1.52-1.5v-6.98h2.86v-2.6H.67v2.6H3.2zm0 0"/></symbol><symbol overflow="visible" id="94a5f556bV"><path d="M2.69 4.31l2.51-7H1.9L.35 3.71zm0 0"/></symbol><symbol overflow="visible" id="94a5f556bW"><path d="M8.81 5.72l2.86-.7V.32c4.63-.29 7.24-3.04 7.24-7.71v-6.05h-2.86v6.05c0 3.14-1.55 4.9-4.38 5.1v-15.55l-2.86.73V-2.3c-2.83-.18-4.36-1.95-4.36-5.1v-6.04H1.6v6.05C1.6-2.72 4.2.03 8.81.3zm0 0"/></symbol><symbol overflow="visible" id="94a5f556bX"><path d="M7.9.34c3.97 0 6.2-2.18 6.2-6.06v-7.72h-3v7.72c0 2.14-1.16 3.36-3.2 3.36-2.03 0-3.2-1.22-3.2-3.36v-7.72H1.7v7.72c0 3.88 2.23 6.06 6.2 6.06zm0 0"/></symbol><symbol overflow="visible" id="94a5f556bY"><path d="M0 5.45h3.36l4.03-7.39 4.03 7.4h3.36L9.33-4.26l5.12-9.19h-3.3l-3.76 6.9-3.72-6.9H.34l5.11 9.19zm0 0"/></symbol><symbol overflow="visible" id="94a5f556bZ"><path d="M8.73-14.53L11-20.5H8.03l-1.31 5.47zM7.9.34c3.99 0 6.22-2.18 6.22-6.06v-7.72h-3.02v7.72c0 2.14-1.15 3.36-3.2 3.36-2.01 0-3.19-1.22-3.19-3.36v-7.72H1.7v7.72c0 3.88 2.23 6.06 6.2 6.06zm0 0"/></symbol><symbol overflow="visible" id="94a5f556ca"><path d="M6.55.34c2.25 0 3.84-1.09 4.54-3.06.7 1.97 2.3 3.06 4.54 3.06 3.28 0 5.2-2.53 5.2-6.73 0-2.69-.67-5.1-2.02-7.05h-3.18a12.23 12.23 0 012.18 6.9c0 2.68-.9 4.18-2.53 4.18-1.75 0-2.76-1.56-2.76-4.36v-3.36H9.66v3.36c0 2.8-1 4.36-2.77 4.36-1.6 0-2.51-1.5-2.51-4.19 0-2.53.8-4.84 2.17-6.89h-3.2a12.25 12.25 0 00-2 7.05C1.34-2.2 3.3.34 6.54.34zm0 0"/></symbol><symbol overflow="visible" id="94a5f556cb"><path d="M12.66 5.06c.46-1.36.7-2.54.7-3.54 0-2.02-.92-3-4.2-3.7C5.55-2.9 4.2-4.2 4.2-6.98c0-2.55 1.52-4.12 3.94-4.12 1.66 0 2.7.73 3.45 1.87l2.61-1.36c-1.32-2.14-3.36-3.2-6.14-3.2-4.31 0-6.97 2.64-6.97 6.89C1.1-2.77 2.86-.56 8 .5c1.67.34 2.26.84 2.26 1.86 0 .53-.14 1.22-.34 1.95zm0 0"/></symbol><symbol overflow="visible" id="94a5f556cc"><path d="M6.05 5.73l3.03-.75V0l5.53-13.44h-3.22L7.56-3.7l-3.81-9.74H.5L6.05 0zm0 0"/></symbol><symbol overflow="visible" id="94a5f556cd"><path d="M1.84 0h3.04v-9.36a4.18 4.18 0 013.43-1.73c1.74 0 2.78 1.04 2.78 2.78V5.73l3.02-.75V-8.56c0-3.28-1.9-5.22-5.13-5.22a5.5 5.5 0 00-4.39 1.9l-.39-1.56H1.84zm0 0"/></symbol><symbol overflow="visible" id="94a5f556ce"><path d="M8.73-14.53L11-20.5H8.03l-1.31 5.47zM1.84 0h3.04v-9.36a4.18 4.18 0 013.43-1.73c1.74 0 2.78 1.04 2.78 2.78V5.73l3.02-.75V-8.56c0-3.28-1.9-5.22-5.13-5.22a5.5 5.5 0 00-4.39 1.9l-.39-1.56H1.84zm0 0"/></symbol><symbol overflow="visible" id="94a5f556cf"><path d="M3.36.34c1.17 0 1.84-.7 1.84-1.86 0-1.17-.67-1.84-1.84-1.84-1.14 0-1.84.67-1.84 1.84 0 1.16.7 1.86 1.84 1.86zm0 0"/></symbol><symbol overflow="visible" id="94a5f556cg"><path d="M6.75 0h1.06l-3.1-8.1H3.41L.28 0h1.05l.69-1.83h4.06zM2.31-2.64l1.72-4.58h.05l1.7 4.58zm0 0"/></symbol><symbol overflow="visible" id="94a5f556ch"><path d="M3.17.17c.99 0 1.61-.45 2.02-1.23h.04L5.37 0h.82v-8.58h-.97v3.55h-.05c-.36-.74-1-1.16-1.97-1.16C1.58-6.19.6-5.02.6-3.02.6-1 1.57.18 3.18.18zm.2-.84C2.23-.67 1.61-1.44 1.61-3c0-1.58.6-2.34 1.76-2.34 1.29 0 1.88.95 1.88 2.34 0 1.38-.6 2.33-1.88 2.33zm0 0"/></symbol><symbol overflow="visible" id="94a5f556ci"><path d="M6.06-2.7v-.55c0-1.9-1-2.94-2.68-2.94C1.7-6.19.6-5.08.6-2.99.6-.98 1.63.18 3.45.18c1.53 0 2.25-.7 2.5-1.7L5-1.61c-.19.55-.63.95-1.55.95-1.14 0-1.76-.68-1.84-2.04zM3.38-5.37c1.09 0 1.68.62 1.73 1.92H1.6c.1-1.32.73-1.92 1.76-1.92zm0 0"/></symbol><symbol overflow="visible" id="94a5f556cj"><path d="M1.1 0h.96v-8.58H1.1zm0 0"/></symbol><symbol overflow="visible" id="94a5f556ck"><path d="M1.1 2.25h.96V-.98h.05c.34.71 1 1.15 1.94 1.15C5.72.17 6.67-1 6.67-3.02c0-2-.95-3.17-2.6-3.17-.95 0-1.57.46-1.98 1.24h-.04L1.9-6.02h-.82zM3.86-.67c-1.23 0-1.84-.97-1.84-2.35 0-1.37.61-2.32 1.85-2.32 1.2 0 1.8.76 1.8 2.32 0 1.58-.6 2.35-1.8 2.35zm0 0"/></symbol><symbol overflow="visible" id="94a5f556cl"><path d="M1.1 0h.96v-3.3c0-1.2.78-2 1.83-2 .9 0 1.33.49 1.33 1.6V0h.97v-4.05c0-1.4-.74-2.14-2-2.14-1.03 0-1.67.5-2.08 1.24h-.05v-3.63H1.1zm0 0"/></symbol><symbol overflow="visible" id="94a5f556cm"><path d="M1.58-7.05c.39 0 .67-.2.67-.64 0-.45-.28-.65-.67-.65-.4 0-.67.2-.67.65 0 .44.26.64.67.64zM1.09 0h.97v-6.02H1.1zm0 0"/></symbol><symbol overflow="visible" id="94a5f556co"><path d="M4.58-8.1H1.27V0h1.01v-3.23h2.28c1.92 0 2.83-.85 2.83-2.46 0-1.6-.9-2.42-2.81-2.42zm-.24 4.02H2.28v-3.17h2.06c1.54 0 2.07.42 2.07 1.58 0 1.14-.54 1.6-2.07 1.6zm0 0"/></symbol><symbol overflow="visible" id="94a5f556cp"><path d="M6.9-7.23v-.88H1.28V0H6.9v-.88H2.28v-2.8h3.9v-.84h-3.9v-2.71zm0 0"/></symbol><symbol overflow="visible" id="94a5f556cq"><path d="M.3 0h1.04l1.57-2.33h.04L4.65 0h1.08L3.61-3l2.1-3.02H4.66L3.11-3.73h-.05L1.44-6.02H.34l2.08 2.94zm0 0"/></symbol><symbol overflow="visible" id="94a5f556cr"><path d="M2.4-5.19h1.91v-.83h-1.9v-1.87h-.77l-.2 1.87H.19v.83h1.25v3.46C1.44-.5 2 .14 3.28.14c.38 0 .78-.08 1.06-.16l-.1-.8c-.2.05-.47.1-.77.1-.7 0-1.06-.26-1.06-1.1zm0 0"/></symbol><symbol overflow="visible" id="94a5f556cs"><path d="M1.1 0h.96v-3.3c0-1.18.75-1.97 1.72-1.97.24 0 .44.04.56.08l.11-.92c-.15-.05-.39-.08-.62-.08-.83 0-1.4.44-1.74 1.24h-.04L1.9-6.02h-.82zm0 0"/></symbol><symbol overflow="visible" id="94a5f556ct"><path d="M2.63.17c1.01 0 1.68-.42 2.01-1.1h.06l.11.93h.8v-4.1c0-1.43-.8-2.09-2.36-2.09-1.58 0-2.27.7-2.44 1.85l.97.09c.11-.72.5-1.14 1.45-1.14.99 0 1.44.4 1.44 1.34v.42l-2.03.27C1.2-3.19.58-2.64.58-1.55c0 1.08.7 1.72 2.04 1.72zm.18-.8c-.87 0-1.25-.37-1.25-.98 0-.58.33-.9 1.16-1.03l1.95-.27v.58c0 .99-.7 1.7-1.86 1.7zm0 0"/></symbol><symbol overflow="visible" id="94a5f556cu"><path d="M4.08.17C5.72.17 6.68-1 6.68-3c0-2.02-.96-3.19-2.63-3.19-.94 0-1.6.44-1.94 1.16h-.05v-3.55H1.1V0h.82l.14-1.06h.04C2.5-.28 3.13.17 4.08.17zm-.2-.84C2.63-.67 2.02-1.62 2.02-3c0-1.38.61-2.34 1.85-2.34 1.2 0 1.8.76 1.8 2.34 0 1.56-.6 2.33-1.8 2.33zm0 0"/></symbol><symbol overflow="visible" id="94a5f556cv"><path d="M3.47.17c1.81 0 2.86-1.14 2.86-3.19 0-2.04-1.05-3.17-2.86-3.17C1.66-6.19.6-5.06.6-3.02.6-.97 1.66.18 3.47.18zm0-.84c-1.25 0-1.86-.78-1.86-2.35 0-1.56.6-2.32 1.86-2.32 1.25 0 1.86.76 1.86 2.32 0 1.57-.61 2.35-1.86 2.35zm0 0"/></symbol><symbol overflow="visible" id="94a5f556cw"><path d="M2.55 2.25h.97a12.14 12.14 0 01-1.54-5.8c0-2.37.75-4.34 1.54-5.78h-.97a11.28 11.28 0 000 11.58zm0 0"/></symbol><symbol overflow="visible" id="94a5f556cx"><path d="M3.05.17c1.48 0 2.37-.69 2.37-1.87 0-1.02-.6-1.4-1.84-1.68l-.81-.18c-.74-.16-1.05-.4-1.05-.9 0-.65.44-.95 1.26-.95.9 0 1.32.32 1.4 1.04l.95-.08c-.1-1.2-.86-1.77-2.33-1.77-1.4 0-2.23.64-2.23 1.84 0 .96.59 1.44 1.78 1.7l.8.15c.76.15 1.12.34 1.12.94 0 .6-.53.97-1.4.97-1 0-1.5-.35-1.62-1.13l-.95.1C.6-.48 1.4.16 3.05.16zm0 0"/></symbol><symbol overflow="visible" id="94a5f556cy"><path d="M1.1 0h.96v-3.3c0-1.2.78-2 1.77-2 .86 0 1.28.52 1.28 1.55V0h.97v-3.3c0-1.2.78-2 1.78-2 .84 0 1.26.52 1.26 1.55V0h.97v-4.03c0-1.4-.7-2.16-1.95-2.16-1.05 0-1.69.58-2.1 1.35h-.06C5.75-5.7 5.12-6.2 4.12-6.2c-.96 0-1.62.52-2.03 1.24h-.04L1.9-6.02h-.82zm0 0"/></symbol><symbol overflow="visible" id="94a5f556cz"><path d="M3.4.17c1.6 0 2.41-.73 2.57-2.04L5-1.96c-.13.86-.6 1.28-1.6 1.28-1.2 0-1.8-.81-1.8-2.35 0-1.53.59-2.32 1.8-2.32.98 0 1.48.45 1.6 1.3l.97-.08C5.8-5.45 4.94-6.2 3.4-6.2 1.64-6.19.6-5 .6-3.02.6-1 1.64.18 3.4.18zm0 0"/></symbol><symbol overflow="visible" id="94a5f556cA"><path d="M.9-9.33h-.98c.78 1.44 1.53 3.4 1.53 5.78C1.45-1.17.7.81-.08 2.25H.9a11.28 11.28 0 000-11.58zm0 0"/></symbol><symbol overflow="visible" id="94a5f556cB"><path d="M2.7 0h1v-7.23h2.64v-.88H.06v.88H2.7zm0 0"/></symbol><symbol overflow="visible" id="94a5f556cC"><path d="M1.1 0h.96v-3.3c0-1.2.78-2 1.83-2 .9 0 1.33.52 1.33 1.55V0h.97v-4.03c0-1.4-.7-2.16-2.02-2.16-1.01 0-1.67.52-2.08 1.24h-.04L1.9-6.02h-.82zm0 0"/></symbol><symbol overflow="visible" id="94a5f556cD"><path d="M6.05-4.05v-.06c.93-.2 1.42-.81 1.42-1.94 0-1.26-.7-2.06-2.6-2.06h-3.6V0h3.6c1.91 0 2.8-.78 2.8-2.13 0-1.25-.64-1.75-1.62-1.92zm-1.2-3.22c1.13 0 1.63.46 1.63 1.4 0 .9-.5 1.4-1.62 1.4H2.25v-2.8zm.03 6.43H2.25v-2.82h2.63c1.2 0 1.8.41 1.8 1.41 0 1.02-.6 1.4-1.8 1.4zm0 0"/></symbol><symbol overflow="visible" id="94a5f556cE"><path d="M1.27 0h1.01v-8.1H1.27zm0 0"/></symbol><symbol overflow="visible" id="94a5f556cF"><path d="M4.05-8.1H1.27V0h2.67c2.72 0 3.92-1.25 3.92-4.05 0-2.84-1.22-4.06-3.81-4.06zm.01 7.22H2.28v-6.35h1.78c1.85 0 2.77.73 2.77 3.18 0 2.44-.92 3.17-2.77 3.17zm0 0"/></symbol><symbol overflow="visible" id="94a5f556cG"><path d="M4.84-6.02L3.08-.9h-.05L1.13-6H.07L2.39 0h.38c-.49 1.17-.94 1.55-1.61 1.55-.2 0-.5-.02-.74-.08l-.1.83c.23.06.55.12.88.12 1.35 0 1.9-.87 2.47-2.42l2.19-6.02zm0 0"/></symbol><symbol overflow="visible" id="94a5f556cH"><path d="M5.94-6.02h-1.2L2.1-3.45h-.05v-5.13H1.1V0h.97v-2.83h.05L4.83 0h1.22L2.98-3.19zm0 0"/></symbol><symbol overflow="visible" id="94a5f556cI"><path d="M2.3 0h.98v-8.1h-.8L.4-7.3v.9l1.9-.66zm0 0"/></symbol><symbol overflow="visible" id="94a5f556cJ"><path d="M4.6 0h.96v-1.84h1.07v-.85H5.55V-8.1H4.23L.17-2.63v.79H4.6zM1.24-2.69v-.04l3.3-4.46h.04v4.5zm0 0"/></symbol><symbol overflow="visible" id="94a5f556cK"><path d="M1.19 1.94c.56-.72 1-1.56 1-2.35 0-.48-.24-.8-.72-.8-.4 0-.67.24-.67.66 0 .4.26.63.64.64-.11.55-.42 1.16-.77 1.63zm0 0"/></symbol><symbol overflow="visible" id="94a5f556cL"><path d="M3.55-7.9c.22 0 .45.04.6.07l.1-.81c-.19-.05-.55-.11-.86-.11-1.22 0-1.94.63-1.94 2.13v.6H.33v.83h1.12V0h.97v-5.19h1.63v-.83H2.42v-.54c0-.97.31-1.33 1.13-1.33zm0 0"/></symbol><symbol overflow="visible" id="94a5f556cM"><path d="M3.45-9.03c-.34.4-.87 1.19-.87 1.97 0 .5.26.8.72.8.39 0 .67-.22.67-.66 0-.44-.31-.63-.67-.64.1-.42.4-.9.65-1.25zm-2.14 0a3.3 3.3 0 00-.87 1.97c0 .5.26.8.72.8.37 0 .67-.22.67-.66 0-.44-.31-.63-.69-.64.13-.42.4-.9.66-1.25zm0 0"/></symbol><symbol overflow="visible" id="94a5f556cN"><path d="M1-6.27c.36-.4.88-1.18.88-1.96 0-.5-.27-.8-.72-.8-.38 0-.68.22-.68.65 0 .44.32.63.7.65-.13.42-.41.89-.66 1.25zm2.16 0c.34-.4.86-1.18.86-1.96 0-.5-.25-.8-.7-.8-.4 0-.68.22-.68.65 0 .44.31.63.67.65-.12.42-.4.89-.65 1.25zm0 0"/></symbol><symbol overflow="visible" id="94a5f556cO"><path d="M1.27 0h.92v-7.02h.06L5.02 0h1.03L8.8-7.02h.06V0h1v-8.1h-1.6L5.62-1.23h-.06L2.85-8.1H1.28zm0 0"/></symbol><symbol overflow="visible" id="94a5f556cP"><path d="M2.94.17c.98 0 1.6-.51 2.01-1.23H5L5.16 0h.8v-6.02h-.98v3.3c0 1.2-.78 2.02-1.76 2.02-.85 0-1.27-.52-1.27-1.57v-3.75H.98v4.04C.98-.6 1.68.17 2.94.17zm0 0"/></symbol><symbol overflow="visible" id="94a5f556cQ"><path d="M2.28-.88V-8.1H1.27V0h4.92v-.88zm0 0"/></symbol><symbol overflow="visible" id="94a5f556cR"><path d="M3.48 2.42c1.88 0 2.7-1.03 2.7-2.9v-5.54h-.8l-.15 1.07H5.2c-.3-.61-.83-1.24-1.96-1.24-1.7 0-2.62 1.22-2.62 3.05 0 1.87.86 3.08 2.62 3.08a2 2 0 001.93-1.2h.06v.78c0 1.39-.5 2.06-1.74 2.06C2.41 1.58 2 1.16 1.86.5L.87.6c.15 1.13.94 1.82 2.61 1.82zM3.4-.89c-1.17 0-1.78-.8-1.78-2.25 0-1.38.6-2.2 1.78-2.2 1.23 0 1.86.96 1.86 2.2 0 1.2-.64 2.25-1.86 2.25zm0 0"/></symbol><symbol overflow="visible" id="94a5f556cS"><path d="M.55 0h4.47v-.83H1.75v-.05l3.31-4.35v-.79H.72v.83h3.16v.05L.54-.78zm0 0"/></symbol></defs><path d="M22.58 230.5h960" fill="none" stroke="#ddd"/><use xlink:href="#94a5f556a" x="35.3481" y="1104.6687"/><use xlink:href="#94a5f556b" x="115.7001" y="1104.6687"/><use xlink:href="#94a5f556c" x="247.0281" y="1104.6687"/><use xlink:href="#94a5f556d" x="375.7641" y="1104.6687"/><use xlink:href="#94a5f556e" x="501.4761" y="1104.6687"/><use xlink:href="#94a5f556f" x="665.4201" y="1104.6687"/><use xlink:href="#94a5f556g" x="840.3801" y="1104.6687"/><use xlink:href="#94a5f556h" x="33" y="370.157"/><use xlink:href="#94a5f556i" x="114.62" y="370.157"/><use xlink:href="#94a5f556j" x="193.72" y="370.157"/><use xlink:href="#94a5f556k" x="291.58" y="370.157"/><use xlink:href="#94a5f556l" x="355.7" y="370.157"/><use xlink:href="#94a5f556m" x="391.4" y="370.157"/><use xlink:href="#94a5f556n" x="463.64" y="370.157"/><use xlink:href="#94a5f556o" x="494.93" y="370.157"/><use xlink:href="#94a5f556p" x="574.03" y="370.157"/><use xlink:href="#94a5f556q" x="649.77" y="370.157"/><use xlink:href="#94a5f556r" x="723.97" y="370.157"/><use xlink:href="#94a5f556l" x="794.95" y="370.157"/><use xlink:href="#94a5f556k" x="832.33" y="370.157"/><use xlink:href="#94a5f556m" x="894.756" y="370.157"/><use xlink:href="#94a5f556s" x="35.6742" y="1303.4709"/><use xlink:href="#94a5f556t" x="112.1002" y="1303.4709"/><use xlink:href="#94a5f556u" x="159.3762" y="1303.4709"/><use xlink:href="#94a5f556v" x="219.2662" y="1303.4709"/><use xlink:href="#94a5f556w" x="242.7982" y="1303.4709"/><use xlink:href="#94a5f556u" x="292.7242" y="1303.4709"/><use xlink:href="#94a5f556x" x="352.6142" y="1303.4709"/><use xlink:href="#94a5f556u" x="412.5042" y="1303.4709"/><use xlink:href="#94a5f556y" x="472.3942" y="1303.4709"/><use xlink:href="#94a5f556z" x="523.5922" y="1303.4709"/><use xlink:href="#94a5f556A" x="572.1402" y="1303.4709"/><use xlink:href="#94a5f556x" x="629.5922" y="1303.4709"/><use xlink:href="#94a5f556B" x="689.4822" y="1303.4709"/><use xlink:href="#94a5f556C" x="716.5122" y="1303.4709"/><use xlink:href="#94a5f556z" x="780.2182" y="1303.4709"/><use xlink:href="#94a5f556B" x="828.7662" y="1303.4709"/><use xlink:href="#94a5f556y" x="857.0682" y="1303.4709"/><use xlink:href="#94a5f556D" x="904.4502" y="1303.4709"/><use xlink:href="#94a5f556E" x="36.1986" y="1985.8583"/><use xlink:href="#94a5f556F" x="81.9821" y="1985.8583"/><use xlink:href="#94a5f556G" x="98.1746" y="1985.8583"/><use xlink:href="#94a5f556H" x="147.0696" y="1985.8583"/><use xlink:href="#94a5f556I" x="183.0106" y="1985.8583"/><use xlink:href="#94a5f556J" x="231.9056" y="1985.8583"/><use xlink:href="#94a5f556K" x="247.1456" y="1985.8583"/><use xlink:href="#94a5f556L" x="283.0231" y="1985.8583"/><use xlink:href="#94a5f556M" x="314.44925" y="1985.8583"/><use xlink:href="#94a5f556N" x="343.53225" y="1985.8583"/><use xlink:href="#94a5f556O" x="371.85325" y="1985.8583"/><use xlink:href="#94a5f556J" x="407.73075" y="1985.8583"/><use xlink:href="#94a5f556P" x="422.97075" y="1985.8583"/><use xlink:href="#94a5f556M" x="457.38775" y="1985.8583"/><use xlink:href="#94a5f556J" x="486.47075" y="1985.8583"/><use xlink:href="#94a5f556N" x="500.56775" y="1985.8583"/><use xlink:href="#94a5f556Q" x="528.88875" y="1985.8583"/><use xlink:href="#94a5f556R" x="564.76625" y="1985.8583"/><use xlink:href="#94a5f556S" x="599.18325" y="1985.8583"/><use xlink:href="#94a5f556J" x="631.94925" y="1985.8583"/><use xlink:href="#94a5f556T" x="647.18925" y="1985.8583"/><use xlink:href="#94a5f556U" x="691.57575" y="1985.8583"/><use xlink:href="#94a5f556V" x="709.2859" y="1985.8583"/><use xlink:href="#94a5f556Q" x="739.9564" y="1985.8583"/><use xlink:href="#94a5f556R" x="775.8339" y="1985.8583"/><use xlink:href="#94a5f556S" x="810.2509" y="1985.8583"/><use xlink:href="#94a5f556J" x="843.0169" y="1985.8583"/><use xlink:href="#94a5f556P" x="858.2569" y="1985.8583"/><use xlink:href="#94a5f556Q" x="892.6739" y="1985.8583"/><use xlink:href="#94a5f556R" x="928.5514" y="1985.8583"/><use xlink:href="#94a5f556W" x="38.389" y="2170.0777"/><use xlink:href="#94a5f556X" x="113.079" y="2170.0777"/><use xlink:href="#94a5f556Y" x="178.199" y="2170.0777"/><use xlink:href="#94a5f556Z" x="232.429" y="2170.0777"/><use xlink:href="#94a5f556aa" x="295.899" y="2170.0777"/><use xlink:href="#94a5f556ab" x="361.019" y="2170.0777"/><use xlink:href="#94a5f556ac" x="430.099" y="2170.0777"/><use xlink:href="#94a5f556ad" x="484.329" y="2170.0777"/><use xlink:href="#94a5f556ae" x="547.799" y="2170.0777"/><use xlink:href="#94a5f556af" x="572.208" y="2170.0777"/><use xlink:href="#94a5f556ag" x="632.378" y="2170.0777"/><use xlink:href="#94a5f556ah" x="685.299" y="2170.0777"/><use xlink:href="#94a5f556ai" x="767.909" y="2170.0777"/><use xlink:href="#94a5f556X" x="831.379" y="2170.0777"/><use xlink:href="#94a5f556aa" x="896.499" y="2170.0777"/><use xlink:href="#94a5f556aj" x="33.071" y="162.9324"/><use xlink:href="#94a5f556ak" x="104.891" y="162.9324"/><use xlink:href="#94a5f556al" x="175.976" y="162.9324"/><use xlink:href="#94a5f556am" x="251.786" y="162.9324"/><use xlink:href="#94a5f556an" x="326.021" y="162.9324"/><use xlink:href="#94a5f556ao" x="410.336" y="162.9324"/><use xlink:href="#94a5f556ap" x="473.231" y="162.9324"/><use xlink:href="#94a5f556aq" x="538.331" y="162.9324"/><use xlink:href="#94a5f556ar" x="574.661" y="162.9324"/><use xlink:href="#94a5f556am" x="650.156" y="162.9324"/><use xlink:href="#94a5f556as" x="724.391" y="162.9324"/><use xlink:href="#94a5f556at" x="755.051" y="162.9324"/><use xlink:href="#94a5f556au" x="821.726" y="162.9324"/><use xlink:href="#94a5f556am" x="900.056" y="162.9324"/><use xlink:href="#94a5f556av" x="38.682" y="847.3354"/><use xlink:href="#94a5f556aw" x="69.993" y="847.3354"/><use xlink:href="#94a5f556ax" x="111.3735" y="847.3354"/><use xlink:href="#94a5f556ay" x="133.2765" y="847.3354"/><use xlink:href="#94a5f556az" x="176.421" y="847.3354"/><use xlink:href="#94a5f556aA" x="194.061" y="847.3354"/><use xlink:href="#94a5f556aB" x="236.0295" y="847.3354"/><use xlink:href="#94a5f556az" x="271.824" y="847.3354"/><use xlink:href="#94a5f556aC" x="289.464" y="847.3354"/><use xlink:href="#94a5f556aD" x="332.6085" y="847.3354"/><use xlink:href="#94a5f556aD" x="373.9155" y="847.3354"/><use xlink:href="#94a5f556aE" x="412.5765" y="847.3354"/><use xlink:href="#94a5f556az" x="455.721" y="847.3354"/><use xlink:href="#94a5f556aE" x="473.361" y="847.3354"/><use xlink:href="#94a5f556aF" x="516.5055" y="847.3354"/><use xlink:href="#94a5f556ay" x="564.06" y="847.3354"/><use xlink:href="#94a5f556aG" x="606.3225" y="847.3354"/><use xlink:href="#94a5f556aB" x="642.117" y="847.3354"/><use xlink:href="#94a5f556aD" x="677.9115" y="847.3354"/><use xlink:href="#94a5f556aH" x="718.3365" y="847.3354"/><use xlink:href="#94a5f556aI" x="753.249" y="847.3354"/><use xlink:href="#94a5f556aA" x="798.1575" y="847.3354"/><use xlink:href="#94a5f556aE" x="840.126" y="847.3354"/><use xlink:href="#94a5f556aG" x="883.2705" y="847.3354"/><use xlink:href="#94a5f556aE" x="918.183" y="847.3354"/><use xlink:href="#94a5f556aJ" x="32.0883" y="1830.3652"/><use xlink:href="#94a5f556aK" x="134.6163" y="1830.3652"/><use xlink:href="#94a5f556aL" x="237.1443" y="1830.3652"/><use xlink:href="#94a5f556aM" x="339.6723" y="1830.3652"/><use xlink:href="#94a5f556aN" x="442.2003" y="1830.3652"/><use xlink:href="#94a5f556aK" x="502.0083" y="1830.3652"/><use xlink:href="#94a5f556aO" x="604.5363" y="1830.3652"/><use xlink:href="#94a5f556aN" x="707.0643" y="1830.3652"/><use xlink:href="#94a5f556aL" x="766.8723" y="1830.3652"/><use xlink:href="#94a5f556aP" x="869.4003" y="1830.3652"/><path d="M20 436.56h960M20 745.5h960M20 909.96h960M20 1186.02h960M20 1372.46h960M20 1642.21h960M20 1896.39h960M20 2042.5h960" fill="none" stroke="#ddd"/><use xlink:href="#94a5f556aQ" x="59.4176" y="674.7345"/><use xlink:href="#94a5f556aR" x="683.0104" y="1576.1201"/><use xlink:href="#94a5f556aS" x="808.0024" y="1576.1201"/><use xlink:href="#94a5f556aT" x="411" y="506.2285"/><use xlink:href="#94a5f556aU" x="429.648" y="506.2285"/><use xlink:href="#94a5f556aV" x="442.164" y="506.2285"/><use xlink:href="#94a5f556aW" x="458.684" y="506.2285"/><use xlink:href="#94a5f556aX" x="465.74" y="506.2285"/><use xlink:href="#94a5f556aY" x="471.6452" y="506.2285"/><use xlink:href="#94a5f556aZ" x="490.0132" y="506.2285"/><use xlink:href="#94a5f556ba" x="494.3812" y="506.2285"/><use xlink:href="#94a5f556aZ" x="506.816" y="506.2285"/><use xlink:href="#94a5f556aX" x="511.688" y="506.2285"/><use xlink:href="#94a5f556bb" x="512.4972" y="506.2285"/><use xlink:href="#94a5f556bc" x="528.5412" y="506.2285"/><use xlink:href="#94a5f556bb" x="533.9732" y="506.2285"/><use xlink:href="#94a5f556bd" x="550.0172" y="506.2285"/><use xlink:href="#94a5f556aZ" x="566.0612" y="506.2285"/><use xlink:href="#94a5f556bd" x="571.9412" y="506.2285"/><use xlink:href="#94a5f556bd" x="587.9852" y="506.2285"/><use xlink:href="#94a5f556bd" x="604.0292" y="506.2285"/><use xlink:href="#94a5f556aX" x="620.0732" y="506.2285"/><use xlink:href="#94a5f556aV" x="626.4824" y="506.2285"/><use xlink:href="#94a5f556be" x="643.0024" y="506.2285"/><use xlink:href="#94a5f556bf" x="658.2064" y="506.2285"/><use xlink:href="#94a5f556bg" x="673.4104" y="506.2285"/><use xlink:href="#94a5f556bh" x="689.2584" y="506.2285"/><use xlink:href="#94a5f556bi" x="695.4744" y="506.2285"/><use xlink:href="#94a5f556bj" x="709.4184" y="506.2285"/><use xlink:href="#94a5f556aW" x="722.2704" y="506.2285"/><use xlink:href="#94a5f556aX" x="729.3264" y="506.2285"/><use xlink:href="#94a5f556aY" x="735.2344" y="506.2285"/><use xlink:href="#94a5f556bk" x="752.7596" y="506.2285"/><use xlink:href="#94a5f556bl" x="774.3476" y="506.2285"/><use xlink:href="#94a5f556aX" x="788.7676" y="506.2285"/><use xlink:href="#94a5f556bm" x="795.174" y="506.2285"/><use xlink:href="#94a5f556aY" x="810.686" y="506.2285"/><use xlink:href="#94a5f556bm" x="828.214" y="506.2285"/><use xlink:href="#94a5f556aW" x="844.062" y="506.2285"/><use xlink:href="#94a5f556bg" x="851.286" y="506.2285"/><use xlink:href="#94a5f556bn" x="867.134" y="506.2285"/><use xlink:href="#94a5f556bo" x="882.31" y="506.2285"/><use xlink:href="#94a5f556aY" x="897.1808" y="506.2285"/><use xlink:href="#94a5f556bm" x="914.7088" y="506.2285"/><use xlink:href="#94a5f556aU" x="930.218" y="506.2285"/><use xlink:href="#94a5f556bj" x="943.07" y="506.2285"/><use xlink:href="#94a5f556aX" x="956.006" y="506.2285"/><use xlink:href="#94a5f556bf" x="411" y="548.2285"/><use xlink:href="#94a5f556bm" x="426.372" y="548.2285"/><use xlink:href="#94a5f556bi" x="441.716" y="548.2285"/><use xlink:href="#94a5f556bp" x="455.492" y="548.2285"/><use xlink:href="#94a5f556bn" x="471.508" y="548.2285"/><use xlink:href="#94a5f556bg" x="486.852" y="548.2285"/><use xlink:href="#94a5f556aX" x="502.868" y="548.2285"/><use xlink:href="#94a5f556bf" x="509.672" y="548.2285"/><use xlink:href="#94a5f556bo" x="525.044" y="548.2285"/><use xlink:href="#94a5f556bq" x="540.416" y="548.2285"/><use xlink:href="#94a5f556bm" x="553.268" y="548.2285"/><use xlink:href="#94a5f556br" x="569.284" y="548.2285"/><use xlink:href="#94a5f556bl" x="584.656" y="548.2285"/><use xlink:href="#94a5f556aX" x="599.244" y="548.2285"/><use xlink:href="#94a5f556bj" x="606.048" y="548.2285"/><use xlink:href="#94a5f556aY" x="619.068" y="548.2285"/><use xlink:href="#94a5f556bh" x="637.1" y="548.2285"/><use xlink:href="#94a5f556aX" x="644.324" y="548.2285"/><use xlink:href="#94a5f556aU" x="650.6212" y="548.2285"/><use xlink:href="#94a5f556bm" x="663.3052" y="548.2285"/><use xlink:href="#94a5f556br" x="679.3212" y="548.2285"/><use xlink:href="#94a5f556aX" x="694.6932" y="548.2285"/><use xlink:href="#94a5f556ba" x="700.9932" y="548.2285"/><use xlink:href="#94a5f556bp" x="714.4332" y="548.2285"/><use xlink:href="#94a5f556bs" x="730.4492" y="548.2285"/><use xlink:href="#94a5f556aU" x="746.1292" y="548.2285"/><use xlink:href="#94a5f556be" x="759.1492" y="548.2285"/><use xlink:href="#94a5f556aX" x="774.5212" y="548.2285"/><use xlink:href="#94a5f556bt" x="781.3252" y="548.2285"/><use xlink:href="#94a5f556aY" x="789.3052" y="548.2285"/><use xlink:href="#94a5f556aZ" x="807.8412" y="548.2285"/><use xlink:href="#94a5f556ba" x="812.3772" y="548.2285"/><use xlink:href="#94a5f556aZ" x="824.9772" y="548.2285"/><use xlink:href="#94a5f556aX" x="830.0172" y="548.2285"/><g><use xlink:href="#94a5f556ba" x="836.3172" y="548.2285"/><use xlink:href="#94a5f556aW" x="850.4292" y="548.2285"/></g><g><use xlink:href="#94a5f556bu" x="858.4904" y="548.2285"/></g><g><use xlink:href="#94a5f556aW" x="872.6024" y="548.2285"/></g><g><use xlink:href="#94a5f556bm" x="879.9944" y="548.2285"/><use xlink:href="#94a5f556aV" x="896.0104" y="548.2285"/></g><g><use xlink:href="#94a5f556aU" x="913.0344" y="548.2285"/></g><g><use xlink:href="#94a5f556bv" x="925.7184" y="548.2285"/></g><g><use xlink:href="#94a5f556bw" x="941.2304" y="548.2285"/></g><g><use xlink:href="#94a5f556aX" x="947.1916" y="548.2285"/></g><g><use xlink:href="#94a5f556bo" x="411" y="590.2285"/><use xlink:href="#94a5f556aX" x="426.372" y="590.2285"/><use xlink:href="#94a5f556bj" x="433.176" y="590.2285"/><use xlink:href="#94a5f556bq" x="446.196" y="590.2285"/></g><g><use xlink:href="#94a5f556bg" x="459.048" y="590.2285"/><use xlink:href="#94a5f556aU" x="475.064" y="590.2285"/></g><g><use xlink:href="#94a5f556bm" x="487.748" y="590.2285"/><use xlink:href="#94a5f556aV" x="503.764" y="590.2285"/></g><g><use xlink:href="#94a5f556aU" x="520.788" y="590.2285"/></g><g><use xlink:href="#94a5f556bv" x="533.472" y="590.2285"/></g><g><use xlink:href="#94a5f556bw" x="548.9812" y="590.2285"/></g><g><use xlink:href="#94a5f556aX" x="554.0212" y="590.2285"/><use xlink:href="#94a5f556bo" x="560.8252" y="590.2285"/><use xlink:href="#94a5f556aX" x="576.1972" y="590.2285"/><use xlink:href="#94a5f556bf" x="583.0012" y="590.2285"/><use xlink:href="#94a5f556bx" x="598.3732" y="590.2285"/><use xlink:href="#94a5f556aU" x="611.3932" y="590.2285"/></g><g><use xlink:href="#94a5f556bs" x="624.0744" y="590.2285"/><use xlink:href="#94a5f556bm" x="640.0904" y="590.2285"/><use xlink:href="#94a5f556aX" x="656.1064" y="590.2285"/><use xlink:href="#94a5f556bq" x="662.9104" y="590.2285"/><use xlink:href="#94a5f556aZ" x="676.7704" y="590.2285"/></g><g><use xlink:href="#94a5f556bu" x="683.3224" y="590.2285"/></g><g><use xlink:href="#94a5f556aY" x="696.7596" y="590.2285"/></g><g><use xlink:href="#94a5f556aZ" x="715.2956" y="590.2285"/></g><g><use xlink:href="#94a5f556by" x="720.8396" y="590.2285"/><use xlink:href="#94a5f556aX" x="729.3236" y="590.2285"/><use xlink:href="#94a5f556bg" x="736.1276" y="590.2285"/><use xlink:href="#94a5f556bi" x="752.1436" y="590.2285"/></g><g><use xlink:href="#94a5f556aU" x="766.9248" y="590.2285"/><use xlink:href="#94a5f556aW" x="779.9448" y="590.2285"/></g><g><use xlink:href="#94a5f556aV" x="787.3368" y="590.2285"/></g><g><use xlink:href="#94a5f556aU" x="804.3608" y="590.2285"/></g><g><use xlink:href="#94a5f556bm" x="817.0448" y="590.2285"/><use xlink:href="#94a5f556aW" x="833.0608" y="590.2285"/></g><g><use xlink:href="#94a5f556ba" x="839.7808" y="590.2285"/></g><g><use xlink:href="#94a5f556bj" x="853.554" y="590.2285"/><use xlink:href="#94a5f556bh" x="866.574" y="590.2285"/></g><g><use xlink:href="#94a5f556aX" x="873.798" y="590.2285"/><use xlink:href="#94a5f556aV" x="880.602" y="590.2285"/></g><g><use xlink:href="#94a5f556aU" x="897.626" y="590.2285"/><use xlink:href="#94a5f556be" x="910.646" y="590.2285"/></g><g><use xlink:href="#94a5f556bi" x="925.682" y="590.2285"/></g><g><use xlink:href="#94a5f556aX" x="940.0432" y="590.2285"/></g><g><use xlink:href="#94a5f556aY" x="411" y="632.2285"/><use xlink:href="#94a5f556bs" x="428.948" y="632.2285"/><use xlink:href="#94a5f556bg" x="444.88" y="632.2285"/><use xlink:href="#94a5f556bz" x="460.812" y="632.2285"/><use xlink:href="#94a5f556bf" x="475.176" y="632.2285"/><use xlink:href="#94a5f556bg" x="490.464" y="632.2285"/><use xlink:href="#94a5f556aU" x="506.396" y="632.2285"/><use xlink:href="#94a5f556aW" x="519.332" y="632.2285"/><use xlink:href="#94a5f556bq" x="526.976" y="632.2285"/></g><g><use xlink:href="#94a5f556bv" x="539.7412" y="632.2285"/></g><g><use xlink:href="#94a5f556aU" x="555.3372" y="632.2285"/><use xlink:href="#94a5f556be" x="568.2732" y="632.2285"/></g><g><use xlink:href="#94a5f556aU" x="583.2252" y="632.2285"/></g><g><use xlink:href="#94a5f556bg" x="595.8252" y="632.2285"/><use xlink:href="#94a5f556aX" x="611.7572" y="632.2285"/><use xlink:href="#94a5f556aV" x="618.4772" y="632.2285"/><use xlink:href="#94a5f556bj" x="635.0812" y="632.2285"/><use xlink:href="#94a5f556aX" x="648.0172" y="632.2285"/><use xlink:href="#94a5f556bb" x="654.7372" y="632.2285"/><use xlink:href="#94a5f556bd" x="670.8652" y="632.2285"/><use xlink:href="#94a5f556aZ" x="686.9932" y="632.2285"/><use xlink:href="#94a5f556bd" x="692.9572" y="632.2285"/><use xlink:href="#94a5f556bd" x="709.0852" y="632.2285"/><use xlink:href="#94a5f556bd" x="725.2132" y="632.2285"/><use xlink:href="#94a5f556aX" x="741.3412" y="632.2285"/><use xlink:href="#94a5f556bA" x="748.0612" y="632.2285"/><use xlink:href="#94a5f556bm" x="767.8012" y="632.2285"/><use xlink:href="#94a5f556bs" x="783.7332" y="632.2285"/><use xlink:href="#94a5f556bx" x="799.6652" y="632.2285"/></g><g><use xlink:href="#94a5f556bl" x="812.2596" y="632.2285"/><use xlink:href="#94a5f556aX" x="826.7636" y="632.2285"/></g><g><use xlink:href="#94a5f556aU" x="832.9796" y="632.2285"/><use xlink:href="#94a5f556be" x="845.9156" y="632.2285"/></g><g><use xlink:href="#94a5f556bi" x="860.8676" y="632.2285"/></g><g><use xlink:href="#94a5f556aX" x="874.7276" y="632.2285"/><use xlink:href="#94a5f556bh" x="881.4476" y="632.2285"/></g><g><use xlink:href="#94a5f556bn" x="888.7556" y="632.2285"/><use xlink:href="#94a5f556aW" x="904.0156" y="632.2285"/></g><g><use xlink:href="#94a5f556bg" x="911.3236" y="632.2285"/><use xlink:href="#94a5f556aX" x="927.2556" y="632.2285"/></g><g><use xlink:href="#94a5f556bf" x="411" y="674.2285"/><use xlink:href="#94a5f556bm" x="426.372" y="674.2285"/></g><g><use xlink:href="#94a5f556bi" x="441.716" y="674.2285"/></g><g><use xlink:href="#94a5f556bp" x="455.492" y="674.2285"/><use xlink:href="#94a5f556bn" x="471.508" y="674.2285"/><use xlink:href="#94a5f556bg" x="486.852" y="674.2285"/><use xlink:href="#94a5f556aX" x="502.868" y="674.2285"/><use xlink:href="#94a5f556bj" x="509.672" y="674.2285"/><use xlink:href="#94a5f556aY" x="522.692" y="674.2285"/><use xlink:href="#94a5f556bh" x="540.724" y="674.2285"/></g><g><use xlink:href="#94a5f556aX" x="547.948" y="674.2285"/></g><g><use xlink:href="#94a5f556aU" x="554.248" y="674.2285"/></g><g><use xlink:href="#94a5f556bm" x="566.932" y="674.2285"/><use xlink:href="#94a5f556br" x="582.948" y="674.2285"/><use xlink:href="#94a5f556aX" x="598.32" y="674.2285"/><use xlink:href="#94a5f556bg" x="605.124" y="674.2285"/><use xlink:href="#94a5f556aY" x="621.14" y="674.2285"/><use xlink:href="#94a5f556bj" x="639.172" y="674.2285"/><use xlink:href="#94a5f556aW" x="652.192" y="674.2285"/><use xlink:href="#94a5f556bq" x="659.92" y="674.2285"/></g><g><use xlink:href="#94a5f556bm" x="672.7692" y="674.2285"/></g><g><use xlink:href="#94a5f556bi" x="688.1132" y="674.2285"/><use xlink:href="#94a5f556aW" x="702.5612" y="674.2285"/><use xlink:href="#94a5f556bB" x="710.2892" y="674.2285"/></g><g><use xlink:href="#94a5f556bm" x="721.6292" y="674.2285"/><use xlink:href="#94a5f556bf" x="737.6452" y="674.2285"/><use xlink:href="#94a5f556bx" x="753.0172" y="674.2285"/><use xlink:href="#94a5f556bi" x="766.0372" y="674.2285"/></g><g><use xlink:href="#94a5f556bm" x="779.8132" y="674.2285"/><use xlink:href="#94a5f556br" x="795.8292" y="674.2285"/><use xlink:href="#94a5f556aX" x="811.2012" y="674.2285"/><use xlink:href="#94a5f556bj" x="818.0052" y="674.2285"/></g><g><use xlink:href="#94a5f556bn" x="830.6892" y="674.2285"/><use xlink:href="#94a5f556bp" x="846.0332" y="674.2285"/><use xlink:href="#94a5f556bA" x="862.0492" y="674.2285"/><use xlink:href="#94a5f556bm" x="881.8732" y="674.2285"/><use xlink:href="#94a5f556br" x="897.8892" y="674.2285"/><use xlink:href="#94a5f556bl" x="913.2612" y="674.2285"/><use xlink:href="#94a5f556aZ" x="927.8492" y="674.2285"/></g><g><use xlink:href="#94a5f556bC" x="40" y="1447.3365"/><use xlink:href="#94a5f556bD" x="60.16" y="1447.3365"/></g><g><use xlink:href="#94a5f556bE" x="66.376" y="1447.3365"/><use xlink:href="#94a5f556bF" x="81.496" y="1447.3365"/><use xlink:href="#94a5f556bG" x="94.936" y="1447.3365"/><use xlink:href="#94a5f556bH" x="110.728" y="1447.3365"/></g><g><use xlink:href="#94a5f556bI" x="126.352" y="1447.3365"/></g><g><use xlink:href="#94a5f556bJ" x="140.8" y="1447.3365"/><use xlink:href="#94a5f556bK" x="157.096" y="1447.3365"/><use xlink:href="#94a5f556bL" x="172.72" y="1447.3365"/><use xlink:href="#94a5f556bD" x="189.016" y="1447.3365"/><use xlink:href="#94a5f556bF" x="195.736" y="1447.3365"/><use xlink:href="#94a5f556bM" x="209.176" y="1447.3365"/></g><g><use xlink:href="#94a5f556bI" x="216.2292" y="1447.3365"/></g><g><use xlink:href="#94a5f556bL" x="230.6772" y="1447.3365"/><use xlink:href="#94a5f556bN" x="246.9732" y="1447.3365"/></g><g><use xlink:href="#94a5f556bD" x="254.8692" y="1447.3365"/><use xlink:href="#94a5f556bO" x="261.5892" y="1447.3365"/><use xlink:href="#94a5f556bI" x="275.0292" y="1447.3365"/></g><g><use xlink:href="#94a5f556bL" x="289.4772" y="1447.3365"/><use xlink:href="#94a5f556bD" x="305.7732" y="1447.3365"/><use xlink:href="#94a5f556bK" x="312.4932" y="1447.3365"/><use xlink:href="#94a5f556bP" x="328.1172" y="1447.3365"/><use xlink:href="#94a5f556bH" x="344.4132" y="1447.3365"/><use xlink:href="#94a5f556bQ" x="360.7092" y="1447.3365"/><use xlink:href="#94a5f556bN" x="377.6772" y="1447.3365"/></g><g><use xlink:href="#94a5f556bQ" x="385.7384" y="1447.3365"/></g><g><use xlink:href="#94a5f556bR" x="403.0424" y="1447.3365"/><use xlink:href="#94a5f556bN" x="416.4824" y="1447.3365"/><use xlink:href="#94a5f556bS" x="424.8824" y="1447.3365"/></g><g><use xlink:href="#94a5f556bT" x="438.6584" y="1447.3365"/><use xlink:href="#94a5f556bD" x="454.9544" y="1447.3365"/></g><g><use xlink:href="#94a5f556bU" x="40" y="1489.3365"/></g><g><use xlink:href="#94a5f556bH" x="57.976" y="1489.3365"/></g><g><use xlink:href="#94a5f556bR" x="73.936" y="1489.3365"/></g><g><use xlink:href="#94a5f556bT" x="87.04" y="1489.3365"/></g><g><use xlink:href="#94a5f556bV" x="102.832" y="1489.3365"/></g><g><use xlink:href="#94a5f556bD" x="108.544" y="1489.3365"/><use xlink:href="#94a5f556bL" x="115.264" y="1489.3365"/><use xlink:href="#94a5f556bI" x="131.56" y="1489.3365"/></g><g><use xlink:href="#94a5f556bL" x="146.008" y="1489.3365"/><use xlink:href="#94a5f556bW" x="162.304" y="1489.3365"/><use xlink:href="#94a5f556bX" x="182.8" y="1489.3365"/><use xlink:href="#94a5f556bS" x="198.592" y="1489.3365"/><use xlink:href="#94a5f556bR" x="213.376" y="1489.3365"/><use xlink:href="#94a5f556bN" x="226.816" y="1489.3365"/><use xlink:href="#94a5f556bS" x="235.216" y="1489.3365"/></g><g><use xlink:href="#94a5f556bT" x="248.9892" y="1489.3365"/></g><g><use xlink:href="#94a5f556bV" x="264.7812" y="1489.3365"/></g><g><use xlink:href="#94a5f556bD" x="270.4932" y="1489.3365"/><use xlink:href="#94a5f556bL" x="277.2132" y="1489.3365"/><use xlink:href="#94a5f556bU" x="293.5092" y="1489.3365"/></g><g><use xlink:href="#94a5f556bT" x="311.4852" y="1489.3365"/><use xlink:href="#94a5f556bD" x="327.7812" y="1489.3365"/></g><g><use xlink:href="#94a5f556bY" x="333.9972" y="1489.3365"/><use xlink:href="#94a5f556bX" x="348.7812" y="1489.3365"/><use xlink:href="#94a5f556bG" x="364.5732" y="1489.3365"/><use xlink:href="#94a5f556bT" x="380.3652" y="1489.3365"/><use xlink:href="#94a5f556bD" x="396.6612" y="1489.3365"/></g><g><use xlink:href="#94a5f556bE" x="402.8744" y="1489.3365"/><use xlink:href="#94a5f556bF" x="417.9944" y="1489.3365"/><use xlink:href="#94a5f556bG" x="431.4344" y="1489.3365"/><use xlink:href="#94a5f556bH" x="447.2264" y="1489.3365"/></g><g><use xlink:href="#94a5f556bI" x="462.8504" y="1489.3365"/><use xlink:href="#94a5f556bN" x="477.9704" y="1489.3365"/></g><g><use xlink:href="#94a5f556bH" x="486.0344" y="1489.3365"/><use xlink:href="#94a5f556bZ" x="502.3304" y="1489.3365"/></g><g><use xlink:href="#94a5f556bV" x="517.6184" y="1489.3365"/><use xlink:href="#94a5f556bD" x="524.3384" y="1489.3365"/></g><g><use xlink:href="#94a5f556bN" x="40" y="1531.3365"/></g><g><use xlink:href="#94a5f556bK" x="48.064" y="1531.3365"/><use xlink:href="#94a5f556bN" x="63.688" y="1531.3365"/></g><g><use xlink:href="#94a5f556bL" x="71.752" y="1531.3365"/><use xlink:href="#94a5f556bM" x="88.048" y="1531.3365"/></g><g><use xlink:href="#94a5f556bR" x="95.104" y="1531.3365"/><use xlink:href="#94a5f556bF" x="108.544" y="1531.3365"/><use xlink:href="#94a5f556bP" x="121.984" y="1531.3365"/><use xlink:href="#94a5f556bL" x="138.28" y="1531.3365"/><use xlink:href="#94a5f556bD" x="154.576" y="1531.3365"/><use xlink:href="#94a5f556bK" x="161.296" y="1531.3365"/><use xlink:href="#94a5f556bN" x="176.92" y="1531.3365"/></g><g><use xlink:href="#94a5f556bL" x="184.9812" y="1531.3365"/><use xlink:href="#94a5f556bK" x="201.2772" y="1531.3365"/><use xlink:href="#94a5f556bF" x="216.9012" y="1531.3365"/></g><g><use xlink:href="#94a5f556bK" x="230.0052" y="1531.3365"/><use xlink:href="#94a5f556bH" x="245.6292" y="1531.3365"/><use xlink:href="#94a5f556bG" x="261.9252" y="1531.3365"/><use xlink:href="#94a5f556bO" x="277.7172" y="1531.3365"/><use xlink:href="#94a5f556bI" x="291.1572" y="1531.3365"/></g><g><use xlink:href="#94a5f556bH" x="305.6052" y="1531.3365"/><use xlink:href="#94a5f556bD" x="321.9012" y="1531.3365"/></g><g><use xlink:href="#94a5f556bR" x="328.1172" y="1531.3365"/></g><g><use xlink:href="#94a5f556bH" x="341.2212" y="1531.3365"/><use xlink:href="#94a5f556bD" x="357.5172" y="1531.3365"/><use xlink:href="#94a5f556bS" x="364.2372" y="1531.3365"/></g><g><use xlink:href="#94a5f556bL" x="378.0104" y="1531.3365"/><use xlink:href="#94a5f556bE" x="394.3064" y="1531.3365"/></g><g><use xlink:href="#94a5f556bH" x="408.7572" y="1531.3365"/><use xlink:href="#94a5f556bS" x="425.0532" y="1531.3365"/></g><g><use xlink:href="#94a5f556bL" x="438.8264" y="1531.3365"/><use xlink:href="#94a5f556bM" x="455.1224" y="1531.3365"/><use xlink:href="#94a5f556bP" x="463.5224" y="1531.3365"/><use xlink:href="#94a5f556bN" x="479.8184" y="1531.3365"/><use xlink:href="#94a5f556bD" x="488.2184" y="1531.3365"/></g><g><use xlink:href="#94a5f556bS" x="40" y="1573.3365"/><use xlink:href="#94a5f556bX" x="54.784" y="1573.3365"/><use xlink:href="#94a5f556bP" x="70.576" y="1573.3365"/><use xlink:href="#94a5f556bM" x="86.872" y="1573.3365"/></g><g><use xlink:href="#94a5f556ca" x="94.936" y="1573.3365"/><use xlink:href="#94a5f556cb" x="117.112" y="1573.3365"/><use xlink:href="#94a5f556bD" x="131.728" y="1573.3365"/></g><g><use xlink:href="#94a5f556bE" x="137.944" y="1573.3365"/></g><g><use xlink:href="#94a5f556bT" x="152.392" y="1573.3365"/></g><g><use xlink:href="#94a5f556cc" x="168.016" y="1573.3365"/><use xlink:href="#94a5f556ca" x="183.136" y="1573.3365"/><use xlink:href="#94a5f556bD" x="205.312" y="1573.3365"/></g><g><use xlink:href="#94a5f556bR" x="211.5252" y="1573.3365"/><use xlink:href="#94a5f556cd" x="224.9652" y="1573.3365"/><use xlink:href="#94a5f556cb" x="240.7572" y="1573.3365"/><use xlink:href="#94a5f556bD" x="255.3732" y="1573.3365"/><use xlink:href="#94a5f556bK" x="262.0932" y="1573.3365"/><use xlink:href="#94a5f556bP" x="277.7172" y="1573.3365"/><use xlink:href="#94a5f556bH" x="294.0132" y="1573.3365"/><use xlink:href="#94a5f556bQ" x="310.3092" y="1573.3365"/><use xlink:href="#94a5f556bF" x="327.2772" y="1573.3365"/><use xlink:href="#94a5f556bP" x="340.7172" y="1573.3365"/><use xlink:href="#94a5f556ce" x="357.0132" y="1573.3365"/><use xlink:href="#94a5f556cb" x="372.8052" y="1573.3365"/><use xlink:href="#94a5f556bD" x="387.4212" y="1573.3365"/></g><g><use xlink:href="#94a5f556bR" x="393.6344" y="1573.3365"/><use xlink:href="#94a5f556cd" x="407.0744" y="1573.3365"/><use xlink:href="#94a5f556cb" x="422.8664" y="1573.3365"/><use xlink:href="#94a5f556bD" x="437.4824" y="1573.3365"/></g><g><use xlink:href="#94a5f556cc" x="443.6984" y="1573.3365"/></g><g><use xlink:href="#94a5f556bF" x="458.4824" y="1573.3365"/><use xlink:href="#94a5f556bZ" x="471.9224" y="1573.3365"/><use xlink:href="#94a5f556bQ" x="487.7144" y="1573.3365"/><use xlink:href="#94a5f556cd" x="504.6824" y="1573.3365"/><use xlink:href="#94a5f556cb" x="520.4744" y="1573.3365"/><use xlink:href="#94a5f556cf" x="535.0904" y="1573.3365"/></g><path d="M620 1420.7v165" fill="none" stroke="#ddd"/><g fill="#3d38b5"><use xlink:href="#94a5f556cg" x="20" y="211"/><use xlink:href="#94a5f556ch" x="28.1" y="211"/><use xlink:href="#94a5f556ci" x="35.384" y="211"/><use xlink:href="#94a5f556cj" x="42.056" y="211"/><use xlink:href="#94a5f556ck" x="45.2" y="211"/><use xlink:href="#94a5f556cl" x="52.484" y="211"/><use xlink:href="#94a5f556cm" x="59.66" y="211"/><use xlink:href="#94a5f556cn" x="62.804" y="211"/><use xlink:href="#94a5f556co" x="65.924" y="211"/><use xlink:href="#94a5f556cp" x="73.604" y="211"/><use xlink:href="#94a5f556cn" x="81.164" y="211"/><use xlink:href="#94a5f556cp" x="84.284" y="211"/><use xlink:href="#94a5f556cq" x="91.844" y="211"/><use xlink:href="#94a5f556cr" x="97.88" y="211"/><use xlink:href="#94a5f556cs" x="102.608" y="211"/><use xlink:href="#94a5f556ct" x="107.228" y="211"/><use xlink:href="#94a5f556cu" x="113.828" y="211"/><use xlink:href="#94a5f556cv" x="121.112" y="211"/><use xlink:href="#94a5f556cj" x="128.048" y="211"/><use xlink:href="#94a5f556ch" x="131.192" y="211"/><use xlink:href="#94a5f556cn" x="138.476" y="211"/><use xlink:href="#94a5f556cw" x="141.596" y="211"/><use xlink:href="#94a5f556cx" x="145.028" y="211"/><use xlink:href="#94a5f556cy" x="151.052" y="211"/><use xlink:href="#94a5f556ct" x="162.128" y="211"/><use xlink:href="#94a5f556cj" x="168.728" y="211"/><use xlink:href="#94a5f556cj" x="171.872" y="211"/><use xlink:href="#94a5f556cn" x="175.016" y="211"/><use xlink:href="#94a5f556cz" x="178.136" y="211"/></g><g fill="#3d38b5"><use xlink:href="#94a5f556ct" x="184.5644" y="211"/><use xlink:href="#94a5f556ck" x="191.1644" y="211"/></g><g fill="#3d38b5"><use xlink:href="#94a5f556cx" x="198.3248" y="211"/><use xlink:href="#94a5f556cA" x="204.3488" y="211"/></g><g fill="#3d38b5"><use xlink:href="#94a5f556cg" x="20" y="417.064"/><use xlink:href="#94a5f556ch" x="28.1" y="417.064"/><use xlink:href="#94a5f556ci" x="35.384" y="417.064"/><use xlink:href="#94a5f556cj" x="42.056" y="417.064"/><use xlink:href="#94a5f556ck" x="45.2" y="417.064"/><use xlink:href="#94a5f556cl" x="52.484" y="417.064"/><use xlink:href="#94a5f556cm" x="59.66" y="417.064"/><use xlink:href="#94a5f556cn" x="62.804" y="417.064"/><use xlink:href="#94a5f556co" x="65.924" y="417.064"/><use xlink:href="#94a5f556cp" x="73.604" y="417.064"/><use xlink:href="#94a5f556cn" x="81.164" y="417.064"/><use xlink:href="#94a5f556cB" x="84.284" y="417.064"/><use xlink:href="#94a5f556cl" x="90.692" y="417.064"/><use xlink:href="#94a5f556cm" x="97.868" y="417.064"/><use xlink:href="#94a5f556cC" x="101.012" y="417.064"/></g><g fill="#3d38b5"><use xlink:href="#94a5f556cg" x="20" y="726.004"/><use xlink:href="#94a5f556ch" x="28.1" y="726.004"/><use xlink:href="#94a5f556ci" x="35.384" y="726.004"/><use xlink:href="#94a5f556cj" x="42.056" y="726.004"/><use xlink:href="#94a5f556ck" x="45.2" y="726.004"/><use xlink:href="#94a5f556cl" x="52.484" y="726.004"/><use xlink:href="#94a5f556cm" x="59.66" y="726.004"/><use xlink:href="#94a5f556cn" x="62.804" y="726.004"/><use xlink:href="#94a5f556co" x="65.924" y="726.004"/><use xlink:href="#94a5f556cp" x="73.604" y="726.004"/><use xlink:href="#94a5f556cn" x="81.164" y="726.004"/><use xlink:href="#94a5f556cp" x="84.284" y="726.004"/><use xlink:href="#94a5f556cq" x="91.844" y="726.004"/><use xlink:href="#94a5f556cr" x="97.88" y="726.004"/><use xlink:href="#94a5f556cs" x="102.608" y="726.004"/><use xlink:href="#94a5f556ct" x="107.228" y="726.004"/><use xlink:href="#94a5f556cu" x="113.828" y="726.004"/><use xlink:href="#94a5f556cv" x="121.112" y="726.004"/><use xlink:href="#94a5f556cj" x="128.048" y="726.004"/><use xlink:href="#94a5f556ch" x="131.192" y="726.004"/></g><g fill="#3d38b5"><use xlink:href="#94a5f556cg" x="20" y="890.464"/><use xlink:href="#94a5f556ch" x="28.1" y="890.464"/><use xlink:href="#94a5f556ci" x="35.384" y="890.464"/><use xlink:href="#94a5f556cj" x="42.056" y="890.464"/><use xlink:href="#94a5f556ck" x="45.2" y="890.464"/><use xlink:href="#94a5f556cl" x="52.484" y="890.464"/><use xlink:href="#94a5f556cm" x="59.66" y="890.464"/><use xlink:href="#94a5f556cn" x="62.804" y="890.464"/><use xlink:href="#94a5f556co" x="65.924" y="890.464"/><use xlink:href="#94a5f556cp" x="73.604" y="890.464"/><use xlink:href="#94a5f556cn" x="81.164" y="890.464"/><use xlink:href="#94a5f556cB" x="84.284" y="890.464"/></g><g fill="#3d38b5"><use xlink:href="#94a5f556ci" x="90.182" y="890.464"/></g><g fill="#3d38b5"><use xlink:href="#94a5f556cq" x="96.794" y="890.464"/><use xlink:href="#94a5f556cr" x="102.83" y="890.464"/><use xlink:href="#94a5f556cn" x="107.558" y="890.464"/><use xlink:href="#94a5f556cD" x="110.678" y="890.464"/><use xlink:href="#94a5f556cv" x="119.15" y="890.464"/><use xlink:href="#94a5f556cj" x="126.086" y="890.464"/><use xlink:href="#94a5f556ch" x="129.23" y="890.464"/><use xlink:href="#94a5f556cn" x="136.514" y="890.464"/><use xlink:href="#94a5f556cE" x="139.634" y="890.464"/><use xlink:href="#94a5f556cr" x="143.174" y="890.464"/><use xlink:href="#94a5f556ct" x="147.902" y="890.464"/><use xlink:href="#94a5f556cj" x="154.502" y="890.464"/><use xlink:href="#94a5f556cm" x="157.646" y="890.464"/><use xlink:href="#94a5f556cz" x="160.79" y="890.464"/></g><g fill="#3d38b5"><use xlink:href="#94a5f556cg" x="20" y="1166.524"/><use xlink:href="#94a5f556ch" x="28.1" y="1166.524"/><use xlink:href="#94a5f556ci" x="35.384" y="1166.524"/><use xlink:href="#94a5f556cj" x="42.056" y="1166.524"/><use xlink:href="#94a5f556ck" x="45.2" y="1166.524"/><use xlink:href="#94a5f556cl" x="52.484" y="1166.524"/><use xlink:href="#94a5f556cm" x="59.66" y="1166.524"/><use xlink:href="#94a5f556cn" x="62.804" y="1166.524"/><use xlink:href="#94a5f556co" x="65.924" y="1166.524"/><use xlink:href="#94a5f556cp" x="73.604" y="1166.524"/><use xlink:href="#94a5f556cn" x="81.164" y="1166.524"/><use xlink:href="#94a5f556cF" x="84.284" y="1166.524"/><use xlink:href="#94a5f556cm" x="92.816" y="1166.524"/><use xlink:href="#94a5f556cx" x="95.96" y="1166.524"/><use xlink:href="#94a5f556ck" x="101.984" y="1166.524"/><use xlink:href="#94a5f556cj" x="109.268" y="1166.524"/><use xlink:href="#94a5f556ct" x="112.412" y="1166.524"/><use xlink:href="#94a5f556cG" x="119.012" y="1166.524"/><use xlink:href="#94a5f556cn" x="124.94" y="1166.524"/><use xlink:href="#94a5f556cD" x="128.06" y="1166.524"/><use xlink:href="#94a5f556cj" x="136.532" y="1166.524"/><use xlink:href="#94a5f556ct" x="139.676" y="1166.524"/><use xlink:href="#94a5f556cz" x="146.276" y="1166.524"/><use xlink:href="#94a5f556cH" x="152.804" y="1166.524"/><use xlink:href="#94a5f556cn" x="158.876" y="1166.524"/><use xlink:href="#94a5f556cw" x="161.996" y="1166.524"/><use xlink:href="#94a5f556cx" x="165.428" y="1166.524"/></g><g fill="#3d38b5"><use xlink:href="#94a5f556cr" x="171.428" y="1166.524"/><use xlink:href="#94a5f556cG" x="176.156" y="1166.524"/><use xlink:href="#94a5f556cj" x="182.084" y="1166.524"/><use xlink:href="#94a5f556cm" x="185.228" y="1166.524"/><use xlink:href="#94a5f556cx" x="188.372" y="1166.524"/></g><g fill="#3d38b5"><use xlink:href="#94a5f556cr" x="194.3528" y="1166.524"/><use xlink:href="#94a5f556cm" x="199.0808" y="1166.524"/><use xlink:href="#94a5f556cz" x="202.2248" y="1166.524"/><use xlink:href="#94a5f556cn" x="208.7528" y="1166.524"/><use xlink:href="#94a5f556cx" x="211.8728" y="1166.524"/></g><g fill="#3d38b5"><use xlink:href="#94a5f556ci" x="217.7984" y="1166.524"/><use xlink:href="#94a5f556cr" x="224.4704" y="1166.524"/><use xlink:href="#94a5f556cn" x="229.1984" y="1166.524"/><use xlink:href="#94a5f556cI" x="232.3184" y="1166.524"/><use xlink:href="#94a5f556cJ" x="237.1184" y="1166.524"/><use xlink:href="#94a5f556cK" x="244.1624" y="1166.524"/><use xlink:href="#94a5f556cn" x="247.1384" y="1166.524"/><use xlink:href="#94a5f556cx" x="250.2584" y="1166.524"/></g><g fill="#3d38b5"><use xlink:href="#94a5f556ci" x="256.1696" y="1166.524"/><use xlink:href="#94a5f556cs" x="262.8416" y="1166.524"/><use xlink:href="#94a5f556cs" x="267.4616" y="1166.524"/><use xlink:href="#94a5f556cm" x="272.0816" y="1166.524"/><use xlink:href="#94a5f556cL" x="275.2256" y="1166.524"/></g><g fill="#3d38b5"><use xlink:href="#94a5f556ci" x="279.4436" y="1166.524"/><use xlink:href="#94a5f556ch" x="286.1156" y="1166.524"/><use xlink:href="#94a5f556cn" x="293.3996" y="1166.524"/><use xlink:href="#94a5f556cM" x="296.5196" y="1166.524"/><use xlink:href="#94a5f556cE" x="300.9716" y="1166.524"/><use xlink:href="#94a5f556cN" x="304.5116" y="1166.524"/></g><g fill="#3d38b5"><use xlink:href="#94a5f556cA" x="309.3356" y="1166.524"/></g><g fill="#3d38b5"><use xlink:href="#94a5f556cg" x="20" y="1352.968"/><use xlink:href="#94a5f556ch" x="28.1" y="1352.968"/><use xlink:href="#94a5f556ci" x="35.384" y="1352.968"/><use xlink:href="#94a5f556cj" x="42.056" y="1352.968"/><use xlink:href="#94a5f556ck" x="45.2" y="1352.968"/><use xlink:href="#94a5f556cl" x="52.484" y="1352.968"/><use xlink:href="#94a5f556cm" x="59.66" y="1352.968"/><use xlink:href="#94a5f556cn" x="62.804" y="1352.968"/><use xlink:href="#94a5f556co" x="65.924" y="1352.968"/><use xlink:href="#94a5f556cp" x="73.604" y="1352.968"/><use xlink:href="#94a5f556cn" x="81.164" y="1352.968"/><use xlink:href="#94a5f556cB" x="84.284" y="1352.968"/></g><g fill="#3d38b5"><use xlink:href="#94a5f556ci" x="90.182" y="1352.968"/></g><g fill="#3d38b5"><use xlink:href="#94a5f556cq" x="96.794" y="1352.968"/><use xlink:href="#94a5f556cr" x="102.83" y="1352.968"/><use xlink:href="#94a5f556cn" x="107.558" y="1352.968"/><use xlink:href="#94a5f556cB" x="110.678" y="1352.968"/><use xlink:href="#94a5f556cl" x="117.086" y="1352.968"/><use xlink:href="#94a5f556cm" x="124.262" y="1352.968"/><use xlink:href="#94a5f556cC" x="127.406" y="1352.968"/><use xlink:href="#94a5f556cn" x="134.582" y="1352.968"/><use xlink:href="#94a5f556cE" x="137.702" y="1352.968"/><use xlink:href="#94a5f556cr" x="141.242" y="1352.968"/><use xlink:href="#94a5f556ct" x="145.97" y="1352.968"/><use xlink:href="#94a5f556cj" x="152.57" y="1352.968"/><use xlink:href="#94a5f556cm" x="155.714" y="1352.968"/><use xlink:href="#94a5f556cz" x="158.858" y="1352.968"/></g><g fill="#3d38b5"><use xlink:href="#94a5f556cg" x="20" y="1622.716"/><use xlink:href="#94a5f556ch" x="28.1" y="1622.716"/><use xlink:href="#94a5f556ci" x="35.384" y="1622.716"/><use xlink:href="#94a5f556cj" x="42.056" y="1622.716"/><use xlink:href="#94a5f556ck" x="45.2" y="1622.716"/><use xlink:href="#94a5f556cl" x="52.484" y="1622.716"/><use xlink:href="#94a5f556cm" x="59.66" y="1622.716"/><use xlink:href="#94a5f556cn" x="62.804" y="1622.716"/><use xlink:href="#94a5f556co" x="65.924" y="1622.716"/><use xlink:href="#94a5f556cp" x="73.604" y="1622.716"/><use xlink:href="#94a5f556cn" x="81.164" y="1622.716"/><use xlink:href="#94a5f556cO" x="84.284" y="1622.716"/><use xlink:href="#94a5f556ci" x="95.408" y="1622.716"/><use xlink:href="#94a5f556ch" x="102.08" y="1622.716"/><use xlink:href="#94a5f556cm" x="109.364" y="1622.716"/><use xlink:href="#94a5f556cP" x="112.508" y="1622.716"/><use xlink:href="#94a5f556cy" x="119.552" y="1622.716"/></g><g fill="#3d38b5"><use xlink:href="#94a5f556cg" x="20" y="1876.888"/><use xlink:href="#94a5f556ch" x="28.1" y="1876.888"/><use xlink:href="#94a5f556ci" x="35.384" y="1876.888"/><use xlink:href="#94a5f556cj" x="42.056" y="1876.888"/><use xlink:href="#94a5f556ck" x="45.2" y="1876.888"/><use xlink:href="#94a5f556cl" x="52.484" y="1876.888"/><use xlink:href="#94a5f556cm" x="59.66" y="1876.888"/><use xlink:href="#94a5f556cn" x="62.804" y="1876.888"/><use xlink:href="#94a5f556co" x="65.924" y="1876.888"/><use xlink:href="#94a5f556cp" x="73.604" y="1876.888"/><use xlink:href="#94a5f556cn" x="81.164" y="1876.888"/><use xlink:href="#94a5f556cQ" x="84.284" y="1876.888"/><use xlink:href="#94a5f556cm" x="90.692" y="1876.888"/><use xlink:href="#94a5f556cR" x="93.836" y="1876.888"/><use xlink:href="#94a5f556cl" x="101.12" y="1876.888"/><use xlink:href="#94a5f556cr" x="108.296" y="1876.888"/><use xlink:href="#94a5f556cn" x="113.024" y="1876.888"/><use xlink:href="#94a5f556cw" x="116.144" y="1876.888"/><use xlink:href="#94a5f556cx" x="119.576" y="1876.888"/></g><g fill="#3d38b5"><use xlink:href="#94a5f556cj" x="125.5532" y="1876.888"/><use xlink:href="#94a5f556ct" x="128.6972" y="1876.888"/></g><g fill="#3d38b5"><use xlink:href="#94a5f556cx" x="135.1256" y="1876.888"/></g><g fill="#3d38b5"><use xlink:href="#94a5f556cl" x="141.0968" y="1876.888"/><use xlink:href="#94a5f556ci" x="148.2728" y="1876.888"/><use xlink:href="#94a5f556ch" x="154.9448" y="1876.888"/><use xlink:href="#94a5f556cn" x="162.2288" y="1876.888"/><use xlink:href="#94a5f556cS" x="165.3488" y="1876.888"/></g><g fill="#3d38b5"><use xlink:href="#94a5f556ci" x="170.8448" y="1876.888"/><use xlink:href="#94a5f556cs" x="177.5168" y="1876.888"/><use xlink:href="#94a5f556cv" x="182.1368" y="1876.888"/><use xlink:href="#94a5f556cA" x="189.0728" y="1876.888"/></g><g fill="#3d38b5"><use xlink:href="#94a5f556cg" x="20" y="2023"/><use xlink:href="#94a5f556ch" x="28.1" y="2023"/><use xlink:href="#94a5f556ci" x="35.384" y="2023"/><use xlink:href="#94a5f556cj" x="42.056" y="2023"/><use xlink:href="#94a5f556ck" x="45.2" y="2023"/><use xlink:href="#94a5f556cl" x="52.484" y="2023"/><use xlink:href="#94a5f556cm" x="59.66" y="2023"/><use xlink:href="#94a5f556cn" x="62.804" y="2023"/><use xlink:href="#94a5f556co" x="65.924" y="2023"/><use xlink:href="#94a5f556cp" x="73.604" y="2023"/><use xlink:href="#94a5f556cn" x="81.164" y="2023"/><use xlink:href="#94a5f556cB" x="84.284" y="2023"/><use xlink:href="#94a5f556cl" x="90.692" y="2023"/><use xlink:href="#94a5f556cm" x="97.868" y="2023"/><use xlink:href="#94a5f556cC" x="101.012" y="2023"/></g><g fill="#3d38b5"><use xlink:href="#94a5f556cg" x="20" y="2230"/><use xlink:href="#94a5f556ch" x="28.1" y="2230"/><use xlink:href="#94a5f556ci" x="35.384" y="2230"/><use xlink:href="#94a5f556cj" x="42.056" y="2230"/><use xlink:href="#94a5f556ck" x="45.2" y="2230"/><use xlink:href="#94a5f556cl" x="52.484" y="2230"/><use xlink:href="#94a5f556cm" x="59.66" y="2230"/><use xlink:href="#94a5f556cn" x="62.804" y="2230"/><use xlink:href="#94a5f556co" x="65.924" y="2230"/><use xlink:href="#94a5f556cp" x="73.604" y="2230"/><use xlink:href="#94a5f556cn" x="81.164" y="2230"/><use xlink:href="#94a5f556cF" x="84.284" y="2230"/><use xlink:href="#94a5f556cm" x="92.816" y="2230"/><use xlink:href="#94a5f556cx" x="95.96" y="2230"/><use xlink:href="#94a5f556ck" x="101.984" y="2230"/><use xlink:href="#94a5f556cj" x="109.268" y="2230"/><use xlink:href="#94a5f556ct" x="112.412" y="2230"/><use xlink:href="#94a5f556cG" x="119.012" y="2230"/><use xlink:href="#94a5f556cn" x="124.94" y="2230"/><use xlink:href="#94a5f556cp" x="128.06" y="2230"/><use xlink:href="#94a5f556cq" x="135.62" y="2230"/><use xlink:href="#94a5f556cr" x="141.656" y="2230"/><use xlink:href="#94a5f556cs" x="146.384" y="2230"/><use xlink:href="#94a5f556ct" x="151.004" y="2230"/><use xlink:href="#94a5f556cu" x="157.604" y="2230"/><use xlink:href="#94a5f556cv" x="164.888" y="2230"/><use xlink:href="#94a5f556cj" x="171.824" y="2230"/><use xlink:href="#94a5f556ch" x="174.968" y="2230"/><use xlink:href="#94a5f556cn" x="182.252" y="2230"/><use xlink:href="#94a5f556cE" x="185.372" y="2230"/><use xlink:href="#94a5f556cr" x="188.912" y="2230"/><use xlink:href="#94a5f556ct" x="193.64" y="2230"/><use xlink:href="#94a5f556cj" x="200.24" y="2230"/><use xlink:href="#94a5f556cm" x="203.384" y="2230"/><use xlink:href="#94a5f556cz" x="206.528" y="2230"/></g><g fill="#3d38b5"><use xlink:href="#94a5f556cg" x="668" y="1622.716"/><use xlink:href="#94a5f556ch" x="676.1" y="1622.716"/><use xlink:href="#94a5f556ci" x="683.384" y="1622.716"/><use xlink:href="#94a5f556cj" x="690.056" y="1622.716"/><use xlink:href="#94a5f556ck" x="693.2" y="1622.716"/><use xlink:href="#94a5f556cl" x="700.484" y="1622.716"/><use xlink:href="#94a5f556cm" x="707.66" y="1622.716"/><use xlink:href="#94a5f556cn" x="710.804" y="1622.716"/><use xlink:href="#94a5f556co" x="713.924" y="1622.716"/><use xlink:href="#94a5f556cp" x="721.604" y="1622.716"/><use xlink:href="#94a5f556cn" x="729.164" y="1622.716"/><use xlink:href="#94a5f556cp" x="732.284" y="1622.716"/><use xlink:href="#94a5f556cq" x="739.844" y="1622.716"/><use xlink:href="#94a5f556cr" x="745.88" y="1622.716"/><use xlink:href="#94a5f556cs" x="750.608" y="1622.716"/><use xlink:href="#94a5f556ct" x="755.228" y="1622.716"/><use xlink:href="#94a5f556cu" x="761.828" y="1622.716"/><use xlink:href="#94a5f556cv" x="769.112" y="1622.716"/><use xlink:href="#94a5f556cj" x="776.048" y="1622.716"/><use xlink:href="#94a5f556ch" x="779.192" y="1622.716"/></g><g fill="#3d38b5"><use xlink:href="#94a5f556cg" x="395" y="726.004"/><use xlink:href="#94a5f556ch" x="403.1" y="726.004"/><use xlink:href="#94a5f556ci" x="410.384" y="726.004"/><use xlink:href="#94a5f556cj" x="417.056" y="726.004"/><use xlink:href="#94a5f556ck" x="420.2" y="726.004"/><use xlink:href="#94a5f556cl" x="427.484" y="726.004"/><use xlink:href="#94a5f556cm" x="434.66" y="726.004"/><use xlink:href="#94a5f556cn" x="437.804" y="726.004"/><use xlink:href="#94a5f556co" x="440.924" y="726.004"/><use xlink:href="#94a5f556cp" x="448.604" y="726.004"/><use xlink:href="#94a5f556cn" x="456.164" y="726.004"/><use xlink:href="#94a5f556cp" x="459.284" y="726.004"/><use xlink:href="#94a5f556cq" x="466.844" y="726.004"/><use xlink:href="#94a5f556cr" x="472.88" y="726.004"/><use xlink:href="#94a5f556cs" x="477.608" y="726.004"/><use xlink:href="#94a5f556ct" x="482.228" y="726.004"/><use xlink:href="#94a5f556cj" x="488.828" y="726.004"/><use xlink:href="#94a5f556cm" x="491.972" y="726.004"/><use xlink:href="#94a5f556cR" x="495.116" y="726.004"/><use xlink:href="#94a5f556cl" x="502.4" y="726.004"/><use xlink:href="#94a5f556cr" x="509.576" y="726.004"/><use xlink:href="#94a5f556cn" x="514.304" y="726.004"/><use xlink:href="#94a5f556cE" x="517.424" y="726.004"/><use xlink:href="#94a5f556cr" x="520.964" y="726.004"/><use xlink:href="#94a5f556ct" x="525.692" y="726.004"/><use xlink:href="#94a5f556cj" x="532.292" y="726.004"/><use xlink:href="#94a5f556cm" x="535.436" y="726.004"/><use xlink:href="#94a5f556cz" x="538.58" y="726.004"/></g><path d="M346.5 474.1V700" fill="none" stroke="#ddd"/></svg>