<?xml version='1.0' encoding='UTF-8'?>
<svg xmlns="http://www.w3.org/2000/svg" xmlns:xlink="http://www.w3.org/1999/xlink" width="600px" height="300px" viewBox="0 0 600 300" x="0px" y="0px" enable-background="new 0 0 600 300"><defs><symbol overflow="visible" id="615bdbe4a"><path d="M6.8 0h6.72v-42.48L45.12 0h6.4v-53.77H44.8v42.49L13.2-53.77H6.8zm0 0"/></symbol><symbol overflow="visible" id="615bdbe4b"><path d="M23.05.95c12.3 0 19.67-7.51 19.67-20 0-12.54-7.36-20.07-19.67-20.07-12.25 0-19.61 7.53-19.61 20.07 0 12.49 7.36 20 19.6 20zm0-6c-7.93 0-12.74-5.26-12.74-14 0-8.8 4.81-14 12.74-14 8 0 12.72 5.2 12.72 14 0 8.74-4.72 14-12.72 14zm0 0"/></symbol><symbol overflow="visible" id="615bdbe4c"><path d="M9.2.95c2.72 0 4.32-1.6 4.32-4.3 0-2.73-1.6-4.34-4.32-4.34S4.88-6.08 4.88-3.36C4.88-.64 6.47.95 9.2.95zm0 0"/></symbol><symbol overflow="visible" id="615bdbe4e"><path d="M24.16 0h6.71v-53.77H25.2L9.44-45.92l2.87 5.69 11.85-5.93zm0 0"/></symbol><symbol overflow="visible" id="615bdbe4f"><path d="M23.05.95c12.95 0 19.6-9.36 19.6-27.82 0-18.49-6.65-27.85-19.6-27.85-12.97 0-19.61 9.36-19.61 27.84C3.44-8.4 10.08.95 23.04.95zM9.85-26.87c0-15.05 4.23-22.18 13.2-22.18 5.18 0 8.8 2.4 10.95 7.36L10.4-18.08c-.4-2.56-.56-5.51-.56-8.8zm13.2 22.15c-5.2 0-8.82-2.4-10.97-7.36l23.6-23.6c.4 2.55.55 5.52.55 8.8 0 14.96-4.23 22.16-13.18 22.16zm0 0"/></symbol><symbol overflow="visible" id="615bdbe4g"><path d="M3.83 0v-5.95H6.2v-.82H.45v.82h2.4V0zm0 0"/></symbol><symbol overflow="visible" id="615bdbe4h"><path d="M5.75-2.23v-.43c0-1.6-.9-2.51-2.42-2.51S.87-4.16.87-2.48c0 1.71.91 2.62 2.5 2.62 1.43 0 2.07-.56 2.29-1.52l-.9-.09c-.18.61-.59.9-1.35.9-.94 0-1.52-.54-1.58-1.66zm-2.4-2.2c.93 0 1.43.5 1.48 1.55H1.84c.08-1.07.6-1.56 1.5-1.56zm0 0"/></symbol><symbol overflow="visible" id="615bdbe4i"><path d="M1.83 0l1.42-2h.06l1.46 2H5.8L4-2.53l1.78-2.49H4.8L3.42-3.08h-.08l-1.4-1.94H.89l1.78 2.49L.84 0zm0 0"/></symbol><symbol overflow="visible" id="615bdbe4j"><path d="M5.52-4.25v-.77H3.17v-1.56h-.81l-.14 1.56H.75v.77h1.47v2.4c0 1.3.48 1.94 1.84 1.94C4.6.1 5.14 0 5.55-.14L5.4-.91c-.32.13-.72.2-1.13.2-.8 0-1.1-.37-1.1-1.23v-2.31zm0 0"/></symbol><symbol overflow="visible" id="615bdbe4k"><path d="M3.33-3.42c.47 0 .8-.27.8-.8 0-.51-.33-.8-.8-.8-.47 0-.8.29-.8.8 0 .53.33.8.8.8zm0 3.5c.47 0 .8-.27.8-.78 0-.53-.33-.82-.8-.82-.47 0-.8.29-.8.82 0 .51.33.78.8.78zm0 0"/></symbol><symbol overflow="visible" id="615bdbe4m"><path d="M1.84 0v-4.48l-.06-.99h.1L4.46 0h1.28v-6.77h-.92v4.4l.06 1.03h-.1L2.21-6.77H.92V0zm0 0"/></symbol><symbol overflow="visible" id="615bdbe4n"><path d="M3.33.14c1.62 0 2.5-.95 2.5-2.66 0-1.68-.88-2.64-2.5-2.64-1.63 0-2.5.96-2.5 2.64 0 1.7.87 2.66 2.5 2.66zm0-.77c-1.06 0-1.52-.6-1.52-1.89 0-1.28.46-1.87 1.52-1.87 1.08 0 1.53.6 1.53 1.87 0 1.29-.45 1.9-1.53 1.9zm0 0"/></symbol><symbol overflow="visible" id="615bdbe4o"><path d="M3.33.08c.47 0 .8-.27.8-.85 0-.59-.33-.85-.8-.85-.47 0-.78.26-.78.85 0 .58.3.85.78.85zm0 0"/></symbol><symbol overflow="visible" id="615bdbe4p"><path d="M4.22-6.77h-.86l-2.03.7v.87c.64-.17 1.26-.38 1.89-.55v4.9H1.03V0h4.9v-.86H4.21zm0 0"/></symbol><symbol overflow="visible" id="615bdbe4q"><path d="M3.33.14c1.65 0 2.6-1.1 2.6-3.52S4.99-6.9 3.34-6.9C1.67-6.9.72-5.8.72-3.37c0 2.4.95 3.51 2.6 3.51zm0-.84c-1.13 0-1.6-.85-1.6-2.67 0-1.86.47-2.7 1.6-2.7 1.12 0 1.6.84 1.6 2.7 0 1.82-.48 2.67-1.6 2.67zM3.3-2.64c.38 0 .56-.28.56-.72 0-.44-.18-.7-.56-.7-.39 0-.56.26-.56.7 0 .44.17.72.56.72zm0 0"/></symbol><symbol overflow="visible" id="615bdbe4r"><path d="M5.95-6.77H1.1V0h.99v-2.92H5.3v-.77H2.08v-2.26h3.87zm0 0"/></symbol><symbol overflow="visible" id="615bdbe4s"><path d="M2.83.14c.94 0 1.5-.39 1.81-.95h.08l.1.81h.76v-3.38c0-1.23-.69-1.8-2.13-1.8-1.43 0-2.03.65-2.18 1.6l.93.1c.11-.6.44-.93 1.22-.93.85 0 1.22.32 1.22 1.04v.34l-1.81.2C1.6-2.7 1.1-2.17 1.1-1.28c0 .92.64 1.42 1.72 1.42zm.25-.77c-.67 0-1.02-.28-1.02-.74 0-.44.28-.72 1-.82l1.58-.19v.41c0 .8-.6 1.34-1.56 1.34zm0 0"/></symbol><symbol overflow="visible" id="615bdbe4t"><path d="M2.73.14c.9 0 1.43-.45 1.74-1.08h.06l.13.94h.8v-5.02h-.94v2.7c0 .98-.57 1.62-1.46 1.62-.75 0-1.1-.4-1.1-1.22v-3.1h-.93v3.32c0 1.17.55 1.84 1.7 1.84zm0 0"/></symbol><symbol overflow="visible" id="615bdbe4u"><path d="M5.08-5.16c-.94 0-1.58.43-1.9 1.3h-.09l-.07-1.16H1.05v.77h1.1v3.48H.96V0h3.96v-.77H3.1v-1.46c0-1.36.6-2.05 1.83-2.05.4 0 .76.08 1.1.17l.15-.87c-.33-.11-.7-.18-1.11-.18zm0 0"/></symbol><symbol overflow="visible" id="615bdbe4v"><path d="M3.34.14c1.7 0 2.64-.75 2.64-2 0-1.1-.67-1.6-1.95-1.86l-.97-.2c-.84-.16-1.2-.49-1.2-1.11 0-.7.56-1.11 1.56-1.11.99 0 1.47.34 1.63 1.23L5.97-5C5.8-6.28 4.95-6.9 3.45-6.9 1.81-6.9.92-6.18.92-4.98c0 1.06.63 1.66 1.85 1.9l1.01.2c.85.17 1.25.4 1.25 1.09 0 .73-.6 1.16-1.66 1.16-1.1 0-1.6-.4-1.75-1.24l-.93.1C.84-.53 1.66.13 3.34.13zm0 0"/></symbol><symbol overflow="visible" id="615bdbe4w"><path d="M3.92-7.14H1.36v.76h1.6v5.61H1.15V0H5.7v-.77H3.92zm0 0"/></symbol><symbol overflow="visible" id="615bdbe4x"><path d="M3.36.16c1.4 0 2.2-.6 2.2-1.57 0-.89-.54-1.22-1.47-1.39L3-3c-.67-.14-.86-.33-.86-.73 0-.5.4-.74 1.17-.74.83 0 1.19.27 1.27.8l.9-.05c-.12-1-.8-1.47-2.17-1.47-1.34 0-2.1.53-2.1 1.5 0 .81.45 1.22 1.52 1.44l1.04.2c.56.11.87.24.87.72 0 .52-.45.78-1.28.78-.95 0-1.36-.28-1.42-.87l-.9.06C1.07-.36 1.8.16 3.35.16zm0 0"/></symbol><symbol overflow="visible" id="615bdbe4y"><path d="M2.16 0v-2.69c0-.98.6-1.6 1.46-1.6.74 0 1.07.4 1.07 1.2V0h.95v-3.31c0-1.17-.56-1.85-1.67-1.85-.9 0-1.44.46-1.75 1.08h-.06v-3.06H1.2V0zm0 0"/></symbol><symbol overflow="visible" id="615bdbe4z"><path d="M2.84.14C3.8.14 4.33-.26 4.6-.9h.07L4.8 0h.76v-7.14h-.95v2.95h-.08c-.28-.6-.86-.97-1.67-.97-1.48 0-2.27.99-2.27 2.64C.6-.84 1.36.14 2.84.14zm.22-.8c-.98 0-1.48-.59-1.48-1.84s.5-1.86 1.48-1.86c1.13 0 1.58.8 1.58 1.86S4.2-.66 3.06-.66zm0 0"/></symbol><symbol overflow="visible" id="615bdbe4A"><path d="M5.55 0v-.75H2.3v-.06l3.2-3.49v-.72H1.2v.75H4.3v.07L1.11-.72V0zm0 0"/></symbol><symbol overflow="visible" id="615bdbe4B"><path d="M1.45-2.95c0 2.56 1.08 4.37 3.67 4.84l.11-.67C3.28.86 2.43-.75 2.43-2.95s.85-3.82 2.8-4.16l-.1-.69c-2.6.49-3.68 2.3-3.68 4.85zm0 0"/></symbol><symbol overflow="visible" id="615bdbe4C"><path d="M1.45-7.1c1.96.33 2.8 1.94 2.8 4.15 0 2.2-.84 3.8-2.8 4.17l.11.67c2.58-.47 3.67-2.28 3.67-4.84 0-2.55-1.09-4.36-3.67-4.85zm0 0"/></symbol></defs><g fill="#515151"><use xlink:href="#615bdbe4a" x="162" y="159"/><use xlink:href="#615bdbe4b" x="220.32" y="159"/></g><use xlink:href="#615bdbe4c" x="265.04" y="159" fill="#515151"/><g fill="#515151"><use xlink:href="#615bdbe4d" x="280.56" y="159"/><use xlink:href="#615bdbe4e" x="299.76" y="159"/></g><use xlink:href="#615bdbe4f" x="345.84" y="159" fill="#fff"/><use xlink:href="#615bdbe4f" x="391.92" y="159" fill="#fff"/><g fill="#fff"><use xlink:href="#615bdbe4g" x="256.6667" y="252"/><use xlink:href="#615bdbe4h" x="263.3337" y="252"/><use xlink:href="#615bdbe4i" x="270.0007" y="252"/><use xlink:href="#615bdbe4j" x="276.6677" y="252"/><use xlink:href="#615bdbe4k" x="283.3347" y="252"/><use xlink:href="#615bdbe4l" x="290.0017" y="252"/><use xlink:href="#615bdbe4m" x="296.6687" y="252"/><use xlink:href="#615bdbe4n" x="303.3357" y="252"/><use xlink:href="#615bdbe4o" x="310.0027" y="252"/><use xlink:href="#615bdbe4l" x="316.6697" y="252"/><use xlink:href="#615bdbe4p" x="323.3367" y="252"/><use xlink:href="#615bdbe4q" x="330.0037" y="252"/><use xlink:href="#615bdbe4q" x="336.6707" y="252"/></g><g fill="#fff"><use xlink:href="#615bdbe4r" x="206.6667" y="266"/><use xlink:href="#615bdbe4h" x="213.3337" y="266"/><use xlink:href="#615bdbe4s" x="220.0007" y="266"/><use xlink:href="#615bdbe4j" x="226.6677" y="266"/><use xlink:href="#615bdbe4t" x="233.3347" y="266"/><use xlink:href="#615bdbe4u" x="240.0017" y="266"/><use xlink:href="#615bdbe4h" x="246.6687" y="266"/><use xlink:href="#615bdbe4k" x="253.3357" y="266"/><use xlink:href="#615bdbe4l" x="260.0027" y="266"/><use xlink:href="#615bdbe4v" x="266.6697" y="266"/><use xlink:href="#615bdbe4w" x="273.3367" y="266"/><use xlink:href="#615bdbe4s" x="280.0037" y="266"/><use xlink:href="#615bdbe4x" x="286.6707" y="266"/><use xlink:href="#615bdbe4y" x="293.3377" y="266"/><use xlink:href="#615bdbe4h" x="300.0047" y="266"/><use xlink:href="#615bdbe4z" x="306.6717" y="266"/><use xlink:href="#615bdbe4l" x="313.3387" y="266"/><use xlink:href="#615bdbe4A" x="320.0057" y="266"/><use xlink:href="#615bdbe4h" x="326.6727" y="266"/><use xlink:href="#615bdbe4u" x="333.3397" y="266"/><use xlink:href="#615bdbe4n" x="340.0067" y="266"/><use xlink:href="#615bdbe4l" x="346.6737" y="266"/><use xlink:href="#615bdbe4B" x="353.3407" y="266"/><use xlink:href="#615bdbe4A" x="360.0077" y="266"/><use xlink:href="#615bdbe4h" x="366.6747" y="266"/><use xlink:href="#615bdbe4u" x="373.3417" y="266"/><use xlink:href="#615bdbe4n" x="380.0087" y="266"/><use xlink:href="#615bdbe4C" x="386.6757" y="266"/></g></svg>