<?xml version='1.0' encoding='UTF-8'?>
<svg xmlns="http://www.w3.org/2000/svg" xmlns:xlink="http://www.w3.org/1999/xlink" width="600px" height="300px" viewBox="0 0 600 300" x="0px" y="0px" enable-background="new 0 0 600 300"><defs><symbol overflow="visible" id="ee5241c0a"><path d="M5.36 0h34.4v-6H15.45l15.04-14.8c6.4-6.07 9.29-11.76 9.29-17.51 0-10.1-6.49-16.4-16.72-16.4-8.18 0-14.4 3.02-18.64 9.12l5.03 3.82c3.2-4.23 7.36-6.71 12.87-6.71 6.49 0 10.57 4 10.57 10.48 0 4.4-2.8 8.8-8.8 14.56L5.36-5.36zm0 0"/></symbol><symbol overflow="visible" id="ee5241c0b"><path d="M24.48.95c10.88 0 18.16-7.36 18.16-18.23 0-10.88-6.23-17.36-16.8-17.36-6.48 0-11.36 2.16-14.56 6.48.8-13.2 5.44-20.56 15.44-20.56 4.48 0 7.92 1.6 10.8 4.16l3.68-4.88c-3.76-3.51-8.72-5.28-14.8-5.28-14.09 0-22 10.8-22 29.77C4.4-8.15 11.53.95 24.49.95zm.16-29.9c7.13 0 11.28 4.39 11.28 11.67 0 7.36-4.56 12.23-11.6 12.23-8.09 0-12.63-6.39-13.2-16.39 2.96-5.04 7.44-7.51 13.52-7.51zm0 0"/></symbol><symbol overflow="visible" id="ee5241c0d"><path d="M22.88-34.56H28v-30.72h-4.48l-9.36 4.64 2.25 4.33 6.46-3.28zm-20.8 10H44v-4.64H2.08zm24.56 36.08h4.88V5.05h3.92V.72h-3.92V-19.2H26.8L10.72.72v4.33h15.92zM15.7.72l10.95-13.36V.72zm0 0"/></symbol><symbol overflow="visible" id="ee5241c0e"><path d="M24.16 0h6.71v-53.77H25.2L9.44-45.92l2.87 5.69 11.85-5.93zm0 0"/></symbol><symbol overflow="visible" id="ee5241c0f"><path d="M21.13.95c11.18 0 18.64-6.87 18.64-17.18 0-10.72-6.82-16.82-18.9-16.82h-6.23v-14.72h23.2v-6H8.24v26.41h11.2c8.64 0 13.43 4 13.43 11.13 0 6.64-4.71 10.95-12.07 10.95-5.6 0-9.68-2.31-12.88-6L3.44-6.72C7.69-1.59 13.59.95 21.12.95zm0 0"/></symbol><symbol overflow="visible" id="ee5241c0g"><path d="M21.77-33.92c7.03 0 11.75-4.08 11.75-10.16 0-4.97-2.8-8.64-8.96-9.6l8.16-7.6v-4h-20v4.4h13.36l-8.24 7.83v3.36h2.47c5.28 0 7.92 1.92 7.92 5.69 0 3.36-2.54 5.6-6.71 5.6a9.01 9.01 0 01-7.2-3.2l-3.37 3.2c2.64 2.96 6.33 4.48 10.82 4.48zm-19.7 9.36H44v-4.64H2.08zm20.98 36.72c7.6 0 12.07-3.44 12.07-8.96 0-3.76-2.07-6.25-6-7.51 3.44-1.28 5.2-3.77 5.2-6.97 0-5.36-4.24-8.56-11.27-8.56-7.05 0-11.28 3.2-11.28 8.56 0 3.2 1.75 5.69 5.18 6.97-3.9 1.26-6 3.75-6 7.51 0 5.52 4.49 8.96 12.1 8.96zm0-18.32c-4.57-.64-6.33-2.25-6.33-4.8 0-2.96 2.4-4.73 6.33-4.73 3.9 0 6.3 1.77 6.3 4.74 0 2.54-1.76 4.15-6.3 4.8zm0 14.16C18.72 8 16 6.16 16 2.95c0-3.18 2.16-4.54 7.05-5.43C27.92-1.6 30-.23 30 2.95 30 6.15 27.44 8 23.05 8zm0 0"/></symbol><symbol overflow="visible" id="ee5241c0h"><path d="M3.83 0v-5.95H6.2v-.82H.45v.82h2.4V0zm0 0"/></symbol><symbol overflow="visible" id="ee5241c0i"><path d="M5.75-2.23v-.43c0-1.6-.9-2.51-2.42-2.51S.87-4.16.87-2.48c0 1.71.91 2.62 2.5 2.62 1.43 0 2.07-.56 2.29-1.52l-.9-.09c-.18.61-.59.9-1.35.9-.94 0-1.52-.54-1.58-1.66zm-2.4-2.2c.93 0 1.43.5 1.48 1.55H1.84c.08-1.07.6-1.56 1.5-1.56zm0 0"/></symbol><symbol overflow="visible" id="ee5241c0j"><path d="M1.83 0l1.42-2h.06l1.46 2H5.8L4-2.53l1.78-2.49H4.8L3.42-3.08h-.08l-1.4-1.94H.89l1.78 2.49L.84 0zm0 0"/></symbol><symbol overflow="visible" id="ee5241c0k"><path d="M5.52-4.25v-.77H3.17v-1.56h-.81l-.14 1.56H.75v.77h1.47v2.4c0 1.3.48 1.94 1.84 1.94C4.6.1 5.14 0 5.55-.14L5.4-.91c-.32.13-.72.2-1.13.2-.8 0-1.1-.37-1.1-1.23v-2.31zm0 0"/></symbol><symbol overflow="visible" id="ee5241c0l"><path d="M3.33-3.42c.47 0 .8-.27.8-.8 0-.51-.33-.8-.8-.8-.47 0-.8.29-.8.8 0 .53.33.8.8.8zm0 3.5c.47 0 .8-.27.8-.78 0-.53-.33-.82-.8-.82-.47 0-.8.29-.8.82 0 .51.33.78.8.78zm0 0"/></symbol><symbol overflow="visible" id="ee5241c0n"><path d="M5.67 0v-.86H2.14V-.9L3.6-2c1.05-.83 2-1.68 2-2.91 0-1.19-.73-1.99-2.26-1.99-1.66 0-2.3 1.02-2.44 2.33l1 .08c.1-.92.42-1.58 1.44-1.58.87 0 1.26.44 1.26 1.24 0 .9-.8 1.53-1.96 2.53L.83-.81V0zm0 0"/></symbol><symbol overflow="visible" id="ee5241c0o"><path d="M3.42.14c1.58 0 2.49-.86 2.49-2.3 0-1.42-.86-2.17-2.22-2.17-1.03 0-1.58.5-1.9 1.02h-.04c.03-1.63.4-2.77 1.73-2.77.91 0 1.24.44 1.36.96l.97-.11c-.23-.96-.86-1.68-2.33-1.68C1.84-6.9.86-5.86.86-3.1.86-.9 1.78.14 3.42.14zm.02-.78c-.9 0-1.47-.55-1.47-1.47 0-.9.7-1.47 1.53-1.47.92 0 1.47.52 1.47 1.47 0 .97-.6 1.47-1.53 1.47zm0 0"/></symbol><symbol overflow="visible" id="ee5241c0p"><path d="M4.22-6.77h-.86l-2.03.7v.87c.64-.17 1.26-.38 1.89-.55v4.9H1.03V0h4.9v-.86H4.21zm0 0"/></symbol><symbol overflow="visible" id="ee5241c0q"><path d="M2.58.95l2.39-8.67h-.9L1.7.95zm0 0"/></symbol><symbol overflow="visible" id="ee5241c0r"><path d="M5.1 0v-1.47H6v-.81h-.9v-4.49H3.8L.48-2.23v.76h3.66V0zM1.5-2.33l2.6-3.53h.04v3.58H1.5zm0 0"/></symbol><symbol overflow="visible" id="ee5241c0s"><path d="M3.42.14c1.55 0 2.44-.84 2.44-2.33 0-1.45-.83-2.22-2.14-2.22-.75 0-1.28.27-1.67.72H2l.31-2.22h3.11v-.86H1.53l-.45 3.93h.81c.3-.36.9-.79 1.58-.79.92 0 1.44.43 1.44 1.47 0 .99-.54 1.5-1.49 1.5-.83 0-1.28-.32-1.5-1.01l-.95.1C1.07-.46 2 .13 3.42.13zm0 0"/></symbol><symbol overflow="visible" id="ee5241c0t"><path d="M3.25.14c1.58 0 2.53-.69 2.53-1.95 0-1.19-.92-1.56-1.6-1.61v-.05A1.6 1.6 0 005.6-5.12c0-1.13-.87-1.79-2.3-1.79-1.62 0-2.32.82-2.45 1.88l.97.06c.13-.69.52-1.1 1.47-1.1.86 0 1.35.32 1.35 1.05 0 .86-.6 1.2-1.66 1.2h-.49v.79h.54c1.12 0 1.78.25 1.78 1.14 0 .78-.46 1.22-1.55 1.22-1.06 0-1.48-.4-1.63-1.1l-.98.07C.75-.56 1.56.14 3.25.14zm0 0"/></symbol><symbol overflow="visible" id="ee5241c0u"><path d="M3.33.16c1.69 0 2.69-.74 2.69-1.94 0-1.05-.8-1.58-1.43-1.72v-.05c.5-.14 1.2-.58 1.2-1.56 0-1.12-.95-1.81-2.46-1.81-1.52 0-2.46.69-2.46 1.81 0 .97.68 1.4 1.18 1.56v.05c-.6.14-1.4.64-1.4 1.72 0 1.2 1 1.94 2.68 1.94zm0-4.04c-.97 0-1.49-.43-1.49-1.12 0-.78.52-1.1 1.49-1.1.95 0 1.48.32 1.48 1.1 0 .69-.53 1.13-1.48 1.13zm0 3.24c-1.1 0-1.7-.42-1.7-1.25 0-.78.6-1.2 1.7-1.2s1.7.42 1.7 1.2c0 .83-.6 1.25-1.7 1.25zm0 0"/></symbol><symbol overflow="visible" id="ee5241c0v"><path d="M5.95-6.77H1.1V0h.99v-2.92H5.3v-.77H2.08v-2.26h3.87zm0 0"/></symbol><symbol overflow="visible" id="ee5241c0w"><path d="M2.83.14c.94 0 1.5-.39 1.81-.95h.08l.1.81h.76v-3.38c0-1.23-.69-1.8-2.13-1.8-1.43 0-2.03.65-2.18 1.6l.93.1c.11-.6.44-.93 1.22-.93.85 0 1.22.32 1.22 1.04v.34l-1.81.2C1.6-2.7 1.1-2.17 1.1-1.28c0 .92.64 1.42 1.72 1.42zm.25-.77c-.67 0-1.02-.28-1.02-.74 0-.44.28-.72 1-.82l1.58-.19v.41c0 .8-.6 1.34-1.56 1.34zm0 0"/></symbol><symbol overflow="visible" id="ee5241c0x"><path d="M2.73.14c.9 0 1.43-.45 1.74-1.08h.06l.13.94h.8v-5.02h-.94v2.7c0 .98-.57 1.62-1.46 1.62-.75 0-1.1-.4-1.1-1.22v-3.1h-.93v3.32c0 1.17.55 1.84 1.7 1.84zm0 0"/></symbol><symbol overflow="visible" id="ee5241c0y"><path d="M5.08-5.16c-.94 0-1.58.43-1.9 1.3h-.09l-.07-1.16H1.05v.77h1.1v3.48H.96V0h3.96v-.77H3.1v-1.46c0-1.36.6-2.05 1.83-2.05.4 0 .76.08 1.1.17l.15-.87c-.33-.11-.7-.18-1.11-.18zm0 0"/></symbol><symbol overflow="visible" id="ee5241c0z"><path d="M1.84 0v-4.48l-.06-.99h.1L4.46 0h1.28v-6.77h-.92v4.4l.06 1.03h-.1L2.21-6.77H.92V0zm0 0"/></symbol><symbol overflow="visible" id="ee5241c0A"><path d="M3.34.14c1.43 0 2.13-.66 2.25-1.78l-.89-.1c-.1.7-.5 1.08-1.34 1.08-1.03 0-1.52-.64-1.52-1.84 0-1.23.47-1.86 1.52-1.86.84 0 1.23.36 1.34 1.08l.9-.1c-.13-1.09-.82-1.78-2.26-1.78-1.56 0-2.46.97-2.46 2.66 0 1.66.9 2.64 2.46 2.64zm0 0"/></symbol><symbol overflow="visible" id="ee5241c0B"><path d="M3.58-5.81c.42 0 .72-.22.72-.67 0-.44-.3-.68-.72-.68-.44 0-.72.24-.72.68 0 .45.28.67.72.67zm.5.8H1.52v.76h1.6v3.48h-1.8V0h4.46v-.77h-1.7zm0 0"/></symbol><symbol overflow="visible" id="ee5241c0C"><path d="M3.33.14c1.62 0 2.5-.95 2.5-2.66 0-1.68-.88-2.64-2.5-2.64-1.63 0-2.5.96-2.5 2.64 0 1.7.87 2.66 2.5 2.66zm0-.77c-1.06 0-1.52-.6-1.52-1.89 0-1.28.46-1.87 1.52-1.87 1.08 0 1.53.6 1.53 1.87 0 1.29-.45 1.9-1.53 1.9zm0 0"/></symbol><symbol overflow="visible" id="ee5241c0D"><path d="M2.16 0v-2.67c0-.99.59-1.63 1.46-1.63.74 0 1.07.38 1.07 1.22V0h.95v-3.31c0-1.2-.56-1.85-1.67-1.85-.92 0-1.49.46-1.77 1.08h-.06l-.12-.94H1.2V0zm0 0"/></symbol><symbol overflow="visible" id="ee5241c0E"><path d="M3.36.16c1.4 0 2.2-.6 2.2-1.57 0-.89-.54-1.22-1.47-1.39L3-3c-.67-.14-.86-.33-.86-.73 0-.5.4-.74 1.17-.74.83 0 1.19.27 1.27.8l.9-.05c-.12-1-.8-1.47-2.17-1.47-1.34 0-2.1.53-2.1 1.5 0 .81.45 1.22 1.52 1.44l1.04.2c.56.11.87.24.87.72 0 .52-.45.78-1.28.78-.95 0-1.36-.28-1.42-.87l-.9.06C1.07-.36 1.8.16 3.35.16zm0 0"/></symbol><symbol overflow="visible" id="ee5241c0F"><path d="M1.45-2.95c0 2.56 1.08 4.37 3.67 4.84l.11-.67C3.28.86 2.43-.75 2.43-2.95s.85-3.82 2.8-4.16l-.1-.69c-2.6.49-3.68 2.3-3.68 4.85zm0 0"/></symbol><symbol overflow="visible" id="ee5241c0G"><path d="M4.63-6.5c.45 0 .98.08 1.39.2l.2-.72a5.3 5.3 0 00-1.64-.26c-1.52 0-2.16.56-2.16 1.87v.4H.9v.76h1.53V0h.94v-4.25h2.53v-.77H3.36v-.3c0-.84.33-1.18 1.27-1.18zm0 0"/></symbol><symbol overflow="visible" id="ee5241c0H"><path d="M5.4-1.22c.43-.66.66-1.51.66-2.44l-.83-.09c0 .75-.14 1.4-.4 1.92l-1.7-1.83c.8-.42 1.39-.96 1.39-1.86 0-.87-.66-1.4-1.61-1.4-1.14 0-1.72.62-1.72 1.47 0 .72.47 1.3.83 1.68-.8.41-1.52.99-1.52 2.1C.5-.44 1.52.14 2.7.14c.9 0 1.64-.3 2.2-.78l.58.64h1.05zM2.86-6.25c.44 0 .82.23.82.73 0 .7-.47 1.11-1 1.41-.47-.53-.67-.92-.67-1.34 0-.47.3-.8.85-.8zM2.81-.62c-.83 0-1.42-.41-1.42-1.18 0-.76.5-1.18 1.05-1.5l1.94 2.1c-.4.37-.91.57-1.57.57zm0 0"/></symbol><symbol overflow="visible" id="ee5241c0I"><path d="M1.45-7.1c1.96.33 2.8 1.94 2.8 4.15 0 2.2-.84 3.8-2.8 4.17l.11.67c2.58-.47 3.67-2.28 3.67-4.84 0-2.55-1.09-4.36-3.67-4.85zm0 0"/></symbol></defs><g fill="#515151"><use xlink:href="#ee5241c0a" x="142.56" y="159"/><use xlink:href="#ee5241c0b" x="188.64" y="159"/><use xlink:href="#ee5241c0c" x="234.72" y="159"/></g><use xlink:href="#ee5241c0d" x="253.92" y="159" fill="#fff"/><g fill="#515151"><use xlink:href="#ee5241c0c" x="300" y="159"/><use xlink:href="#ee5241c0e" x="319.2" y="159"/><use xlink:href="#ee5241c0f" x="365.28" y="159"/></g><use xlink:href="#ee5241c0g" x="411.36" y="159" fill="#fff"/><g fill="#fff"><use xlink:href="#ee5241c0h" x="240" y="252"/><use xlink:href="#ee5241c0i" x="246.667" y="252"/><use xlink:href="#ee5241c0j" x="253.334" y="252"/><use xlink:href="#ee5241c0k" x="260.001" y="252"/><use xlink:href="#ee5241c0l" x="266.668" y="252"/><use xlink:href="#ee5241c0m" x="273.335" y="252"/><use xlink:href="#ee5241c0n" x="280.002" y="252"/><use xlink:href="#ee5241c0o" x="286.669" y="252"/><use xlink:href="#ee5241c0m" x="293.336" y="252"/><use xlink:href="#ee5241c0p" x="300.003" y="252"/><use xlink:href="#ee5241c0q" x="306.67" y="252"/><use xlink:href="#ee5241c0r" x="313.337" y="252"/><use xlink:href="#ee5241c0m" x="320.004" y="252"/><use xlink:href="#ee5241c0p" x="326.671" y="252"/><use xlink:href="#ee5241c0s" x="333.338" y="252"/><use xlink:href="#ee5241c0t" x="340.005" y="252"/><use xlink:href="#ee5241c0q" x="346.672" y="252"/><use xlink:href="#ee5241c0u" x="353.339" y="252"/></g><g fill="#fff"><use xlink:href="#ee5241c0v" x="180" y="266"/><use xlink:href="#ee5241c0i" x="186.667" y="266"/><use xlink:href="#ee5241c0w" x="193.334" y="266"/><use xlink:href="#ee5241c0k" x="200.001" y="266"/><use xlink:href="#ee5241c0x" x="206.668" y="266"/><use xlink:href="#ee5241c0y" x="213.335" y="266"/><use xlink:href="#ee5241c0i" x="220.002" y="266"/><use xlink:href="#ee5241c0l" x="226.669" y="266"/><use xlink:href="#ee5241c0m" x="233.336" y="266"/><use xlink:href="#ee5241c0z" x="240.003" y="266"/><use xlink:href="#ee5241c0x" x="246.67" y="266"/><use xlink:href="#ee5241c0k" x="253.337" y="266"/><use xlink:href="#ee5241c0m" x="260.004" y="266"/><use xlink:href="#ee5241c0v" x="266.671" y="266"/><use xlink:href="#ee5241c0y" x="273.338" y="266"/><use xlink:href="#ee5241c0w" x="280.005" y="266"/><use xlink:href="#ee5241c0A" x="286.672" y="266"/><use xlink:href="#ee5241c0k" x="293.339" y="266"/><use xlink:href="#ee5241c0B" x="300.006" y="266"/><use xlink:href="#ee5241c0C" x="306.673" y="266"/><use xlink:href="#ee5241c0D" x="313.34" y="266"/><use xlink:href="#ee5241c0E" x="320.007" y="266"/><use xlink:href="#ee5241c0m" x="326.674" y="266"/><use xlink:href="#ee5241c0F" x="333.341" y="266"/><use xlink:href="#ee5241c0G" x="340.008" y="266"/><use xlink:href="#ee5241c0y" x="346.675" y="266"/><use xlink:href="#ee5241c0w" x="353.342" y="266"/><use xlink:href="#ee5241c0A" x="360.009" y="266"/><use xlink:href="#ee5241c0m" x="366.676" y="266"/><use xlink:href="#ee5241c0H" x="373.343" y="266"/><use xlink:href="#ee5241c0m" x="380.01" y="266"/><use xlink:href="#ee5241c0E" x="386.677" y="266"/><use xlink:href="#ee5241c0E" x="393.344" y="266"/><use xlink:href="#ee5241c0p" x="400.011" y="266"/><use xlink:href="#ee5241c0u" x="406.678" y="266"/><use xlink:href="#ee5241c0I" x="413.345" y="266"/></g></svg>