<?xml version='1.0' encoding='UTF-8'?>
<svg xmlns="http://www.w3.org/2000/svg" xmlns:xlink="http://www.w3.org/1999/xlink" width="600px" height="300px" viewBox="0 0 600 300" x="0px" y="0px" enable-background="new 0 0 600 300"><defs><symbol overflow="visible" id="9ce793b3a"><path d="M53.2 13.69l6.8-6.4-26-25.6h63.36v-9.46H34l26-25.59-6.8-6.4-36.72 36.71zm0 0"/></symbol><symbol overflow="visible" id="9ce793b3b"><path d="M94.31-18.64l-6.39-6.8-25.6 26V-62.8h-9.45V.56l-25.59-26-6.4 6.8 36.71 36.72zm0 0"/></symbol><symbol overflow="visible" id="9ce793b3c"><path d="M20.88-27.44l6.4 6.8 25.6-26v63.36h9.43v-63.36l25.61 26 6.4-6.8-36.73-36.72zm0 0"/></symbol><symbol overflow="visible" id="9ce793b3d"><path d="M62-59.77l-6.8 6.41 26 25.6H17.84v9.45H81.2l-26 25.6 6.8 6.4 36.72-36.74zm0 0"/></symbol><symbol overflow="visible" id="9ce793b3e"><path d="M3.83 0v-5.95H6.2v-.82H.45v.82h2.4V0zm0 0"/></symbol><symbol overflow="visible" id="9ce793b3f"><path d="M5.75-2.23v-.43c0-1.6-.9-2.51-2.42-2.51S.87-4.16.87-2.48c0 1.71.91 2.62 2.5 2.62 1.43 0 2.07-.56 2.29-1.52l-.9-.09c-.18.61-.59.9-1.35.9-.94 0-1.52-.54-1.58-1.66zm-2.4-2.2c.93 0 1.43.5 1.48 1.55H1.84c.08-1.07.6-1.56 1.5-1.56zm0 0"/></symbol><symbol overflow="visible" id="9ce793b3g"><path d="M1.83 0l1.42-2h.06l1.46 2H5.8L4-2.53l1.78-2.49H4.8L3.42-3.08h-.08l-1.4-1.94H.89l1.78 2.49L.84 0zm0 0"/></symbol><symbol overflow="visible" id="9ce793b3h"><path d="M5.52-4.25v-.77H3.17v-1.56h-.81l-.14 1.56H.75v.77h1.47v2.4c0 1.3.48 1.94 1.84 1.94C4.6.1 5.14 0 5.55-.14L5.4-.91c-.32.13-.72.2-1.13.2-.8 0-1.1-.37-1.1-1.23v-2.31zm0 0"/></symbol><symbol overflow="visible" id="9ce793b3i"><path d="M3.33-3.42c.47 0 .8-.27.8-.8 0-.51-.33-.8-.8-.8-.47 0-.8.29-.8.8 0 .53.33.8.8.8zm0 3.5c.47 0 .8-.27.8-.78 0-.53-.33-.82-.8-.82-.47 0-.8.29-.8.82 0 .51.33.78.8.78zm0 0"/></symbol><symbol overflow="visible" id="9ce793b3k"><path d="M5.95-6.77H1.1V0h.99v-2.92H5.3v-.77H2.08v-2.26h3.87zm0 0"/></symbol><symbol overflow="visible" id="9ce793b3l"><path d="M2.83.14c.94 0 1.5-.39 1.81-.95h.08l.1.81h.76v-3.38c0-1.23-.69-1.8-2.13-1.8-1.43 0-2.03.65-2.18 1.6l.93.1c.11-.6.44-.93 1.22-.93.85 0 1.22.32 1.22 1.04v.34l-1.81.2C1.6-2.7 1.1-2.17 1.1-1.28c0 .92.64 1.42 1.72 1.42zm.25-.77c-.67 0-1.02-.28-1.02-.74 0-.44.28-.72 1-.82l1.58-.19v.41c0 .8-.6 1.34-1.56 1.34zm0 0"/></symbol><symbol overflow="visible" id="9ce793b3m"><path d="M2.73.14c.9 0 1.43-.45 1.74-1.08h.06l.13.94h.8v-5.02h-.94v2.7c0 .98-.57 1.62-1.46 1.62-.75 0-1.1-.4-1.1-1.22v-3.1h-.93v3.32c0 1.17.55 1.84 1.7 1.84zm0 0"/></symbol><symbol overflow="visible" id="9ce793b3n"><path d="M5.08-5.16c-.94 0-1.58.43-1.9 1.3h-.09l-.07-1.16H1.05v.77h1.1v3.48H.96V0h3.96v-.77H3.1v-1.46c0-1.36.6-2.05 1.83-2.05.4 0 .76.08 1.1.17l.15-.87c-.33-.11-.7-.18-1.11-.18zm0 0"/></symbol><symbol overflow="visible" id="9ce793b3o"><path d="M2.08-6.77h-.99V0h4.79v-.81h-3.8zm0 0"/></symbol><symbol overflow="visible" id="9ce793b3p"><path d="M3.16 2.03c1.67 0 2.4-.86 2.4-2.51v-4.54h-.81l-.13.91h-.06c-.26-.58-.8-1.05-1.73-1.05-1.42 0-2.24 1-2.24 2.52 0 1.6.75 2.56 2.2 2.56.94 0 1.5-.5 1.77-1.03h.05v.72c0 1.17-.42 1.67-1.45 1.67-.93 0-1.3-.34-1.41-.89L.8.5c.12.96.87 1.54 2.36 1.54zM3.06-.8c-.98 0-1.48-.57-1.48-1.82 0-1.13.5-1.75 1.48-1.75 1.06 0 1.58.76 1.58 1.75 0 .95-.56 1.82-1.58 1.82zm0 0"/></symbol><symbol overflow="visible" id="9ce793b3q"><path d="M3.33.14c1.62 0 2.5-.95 2.5-2.66 0-1.68-.88-2.64-2.5-2.64-1.63 0-2.5.96-2.5 2.64 0 1.7.87 2.66 2.5 2.66zm0-.77c-1.06 0-1.52-.6-1.52-1.89 0-1.28.46-1.87 1.52-1.87 1.08 0 1.53.6 1.53 1.87 0 1.29-.45 1.9-1.53 1.9zm0 0"/></symbol><symbol overflow="visible" id="9ce793b3r"><path d="M2.44 0l.87-3.31h.06L4.25 0H5.3l1.03-5.02h-.88l-.73 3.94h-.08L3.77-4.4h-.85l-.87 3.33h-.08l-.75-3.94H.34L1.36 0zm0 0"/></symbol><symbol overflow="visible" id="9ce793b3s"><path d="M3.36.16c1.4 0 2.2-.6 2.2-1.57 0-.89-.54-1.22-1.47-1.39L3-3c-.67-.14-.86-.33-.86-.73 0-.5.4-.74 1.17-.74.83 0 1.19.27 1.27.8l.9-.05c-.12-1-.8-1.47-2.17-1.47-1.34 0-2.1.53-2.1 1.5 0 .81.45 1.22 1.52 1.44l1.04.2c.56.11.87.24.87.72 0 .52-.45.78-1.28.78-.95 0-1.36-.28-1.42-.87l-.9.06C1.07-.36 1.8.16 3.35.16zm0 0"/></symbol><symbol overflow="visible" id="9ce793b3t"><path d="M1.45-2.95c0 2.56 1.08 4.37 3.67 4.84l.11-.67C3.28.86 2.43-.75 2.43-2.95s.85-3.82 2.8-4.16l-.1-.69c-2.6.49-3.68 2.3-3.68 4.85zm0 0"/></symbol><symbol overflow="visible" id="9ce793b3u"><path d="M3.33.14c1.65 0 2.6-1.1 2.6-3.52S4.99-6.9 3.34-6.9C1.67-6.9.72-5.8.72-3.37c0 2.4.95 3.51 2.6 3.51zm0-.84c-1.13 0-1.6-.85-1.6-2.67 0-1.86.47-2.7 1.6-2.7 1.12 0 1.6.84 1.6 2.7 0 1.82-.48 2.67-1.6 2.67zM3.3-2.64c.38 0 .56-.28.56-.72 0-.44-.18-.7-.56-.7-.39 0-.56.26-.56.7 0 .44.17.72.56.72zm0 0"/></symbol><symbol overflow="visible" id="9ce793b3v"><path d="M3.42.14c1.58 0 2.49-.86 2.49-2.3 0-1.42-.86-2.17-2.22-2.17-1.03 0-1.58.5-1.9 1.02h-.04c.03-1.63.4-2.77 1.73-2.77.91 0 1.24.44 1.36.96l.97-.11c-.23-.96-.86-1.68-2.33-1.68C1.84-6.9.86-5.86.86-3.1.86-.9 1.78.14 3.42.14zm.02-.78c-.9 0-1.47-.55-1.47-1.47 0-.9.7-1.47 1.53-1.47.92 0 1.47.52 1.47 1.47 0 .97-.6 1.47-1.53 1.47zm0 0"/></symbol><symbol overflow="visible" id="9ce793b3w"><path d="M5.4-1.22c.43-.66.66-1.51.66-2.44l-.83-.09c0 .75-.14 1.4-.4 1.92l-1.7-1.83c.8-.42 1.39-.96 1.39-1.86 0-.87-.66-1.4-1.61-1.4-1.14 0-1.72.62-1.72 1.47 0 .72.47 1.3.83 1.68-.8.41-1.52.99-1.52 2.1C.5-.44 1.52.14 2.7.14c.9 0 1.64-.3 2.2-.78l.58.64h1.05zM2.86-6.25c.44 0 .82.23.82.73 0 .7-.47 1.11-1 1.41-.47-.53-.67-.92-.67-1.34 0-.47.3-.8.85-.8zM2.81-.62c-.83 0-1.42-.41-1.42-1.18 0-.76.5-1.18 1.05-1.5l1.94 2.1c-.4.37-.91.57-1.57.57zm0 0"/></symbol><symbol overflow="visible" id="9ce793b3x"><path d="M4.22-6.77h-.86l-2.03.7v.87c.64-.17 1.26-.38 1.89-.55v4.9H1.03V0h4.9v-.86H4.21zm0 0"/></symbol><symbol overflow="visible" id="9ce793b3y"><path d="M3.25-6.9C1.67-6.9.77-6.04.77-4.6c0 1.41.85 2.18 2.21 2.18 1.04 0 1.58-.52 1.88-1.03h.06c0 1.54-.39 2.78-1.73 2.78-.9 0-1.24-.44-1.36-.97l-.97.1c.22.96.86 1.68 2.33 1.68C4.83.14 5.8-.9 5.8-3.64c0-2.22-.92-3.27-2.56-3.27zm-.02.8c.91 0 1.46.52 1.46 1.44 0 .91-.69 1.47-1.53 1.47-.91 0-1.46-.51-1.46-1.47S2.3-6.1 3.23-6.1zm0 0"/></symbol><symbol overflow="visible" id="9ce793b3z"><path d="M1.45-7.1c1.96.33 2.8 1.94 2.8 4.15 0 2.2-.84 3.8-2.8 4.17l.11.67c2.58-.47 3.67-2.28 3.67-4.84 0-2.55-1.09-4.36-3.67-4.85zm0 0"/></symbol></defs><g fill="#fff"><use xlink:href="#9ce793b3a" x="40.8" y="159"/><use xlink:href="#9ce793b3b" x="175.2" y="159"/><use xlink:href="#9ce793b3c" x="309.6" y="159"/><use xlink:href="#9ce793b3d" x="444" y="159"/><use xlink:href="#9ce793b3e" x="283.3333" y="252"/><use xlink:href="#9ce793b3f" x="290.0003" y="252"/><use xlink:href="#9ce793b3g" x="296.6673" y="252"/><use xlink:href="#9ce793b3h" x="303.3343" y="252"/><use xlink:href="#9ce793b3i" x="310.0013" y="252"/><use xlink:href="#9ce793b3j" x="316.6683" y="252"/><g><use xlink:href="#9ce793b3k" x="180" y="266"/><use xlink:href="#9ce793b3f" x="186.667" y="266"/><use xlink:href="#9ce793b3l" x="193.334" y="266"/><use xlink:href="#9ce793b3h" x="200.001" y="266"/><use xlink:href="#9ce793b3m" x="206.668" y="266"/><use xlink:href="#9ce793b3n" x="213.335" y="266"/><use xlink:href="#9ce793b3f" x="220.002" y="266"/><use xlink:href="#9ce793b3i" x="226.669" y="266"/><use xlink:href="#9ce793b3j" x="233.336" y="266"/><use xlink:href="#9ce793b3o" x="240.003" y="266"/><use xlink:href="#9ce793b3l" x="246.67" y="266"/><use xlink:href="#9ce793b3n" x="253.337" y="266"/><use xlink:href="#9ce793b3p" x="260.004" y="266"/><use xlink:href="#9ce793b3f" x="266.671" y="266"/><use xlink:href="#9ce793b3n" x="273.338" y="266"/><use xlink:href="#9ce793b3j" x="280.005" y="266"/><use xlink:href="#9ce793b3l" x="286.672" y="266"/><use xlink:href="#9ce793b3n" x="293.339" y="266"/><use xlink:href="#9ce793b3n" x="300.006" y="266"/><use xlink:href="#9ce793b3q" x="306.673" y="266"/><use xlink:href="#9ce793b3r" x="313.34" y="266"/><use xlink:href="#9ce793b3s" x="320.007" y="266"/><use xlink:href="#9ce793b3j" x="326.674" y="266"/><use xlink:href="#9ce793b3t" x="333.341" y="266"/><use xlink:href="#9ce793b3s" x="340.008" y="266"/><use xlink:href="#9ce793b3s" x="346.675" y="266"/><use xlink:href="#9ce793b3u" x="353.342" y="266"/><use xlink:href="#9ce793b3v" x="360.009" y="266"/><use xlink:href="#9ce793b3j" x="366.676" y="266"/><use xlink:href="#9ce793b3w" x="373.343" y="266"/><use xlink:href="#9ce793b3j" x="380.01" y="266"/><use xlink:href="#9ce793b3s" x="386.677" y="266"/><use xlink:href="#9ce793b3s" x="393.344" y="266"/><use xlink:href="#9ce793b3x" x="400.011" y="266"/><use xlink:href="#9ce793b3y" x="406.678" y="266"/><use xlink:href="#9ce793b3z" x="413.345" y="266"/></g></g></svg>