<?xml version='1.0' encoding='UTF-8'?>
<svg xmlns="http://www.w3.org/2000/svg" xmlns:xlink="http://www.w3.org/1999/xlink" width="200px" height="840px" viewBox="0 0 200 840" x="0px" y="0px" enable-background="new 0 0 200 840"><defs><symbol overflow="visible" id="06e33112a"><path d="M4 0h10.313c5.124 0 8.093-2.719 8.093-7.594 0-4.843-2.968-7.61-8.093-7.61H5.233v-10.515h15.25v-1.156H4zm1.234-1.156v-12.89h9.047c4.406 0 6.922 2.358 6.922 6.452 0 4.078-2.515 6.438-6.922 6.438zm0 0"/></symbol><symbol overflow="visible" id="06e33112b"><path d="M11.203.484c3.594 0 6.235-1.53 7.844-4.562l-1.125-.438C16.484-2 14.234-.687 11.203-.687c-4.844 0-7.765-3.079-7.89-8.391h16.203v-.766c0-5.875-3.157-9.39-8.438-9.39-5.484 0-8.953 3.797-8.953 9.875 0 6.156 3.39 9.843 9.078 9.843zm-.125-18.609c4.36 0 7.078 2.969 7.281 7.969H3.312c.282-4.89 3.25-7.969 7.766-7.969zm0 0"/></symbol><symbol overflow="visible" id="06e33112c"><path d="M13.406 7.844l1.156-.328V.484c7.126 0 11.282-3.609 11.282-9.843 0-6.235-4.078-9.797-11.282-9.875V-28l-1.156.313v8.453c-7.172 0-11.281 3.593-11.281 9.875 0 6.203 4.078 9.765 11.281 9.843zM3.312-9.36c0-5.516 3.61-8.688 10.094-8.72V-.686C7-.688 3.312-3.797 3.312-9.36zm21.329 0C24.64-3.844 21-.72 14.563-.688v-17.39c6.39 0 10.078 3.125 10.078 8.719zm0 0"/></symbol><symbol overflow="visible" id="06e33112e"><path d="M2.406 0h10.64c5.673 0 9.079-3.281 9.079-8.766 0-4.109-2.61-6.437-7.203-6.437H6.156L7.922-25.72h15.234l.203-1.156H6.875zm1.39-1.156l2.157-12.89h8.922c3.844 0 6.047 1.921 6.047 5.327 0 4.719-2.969 7.563-7.875 7.563zm0 0"/></symbol><symbol overflow="visible" id="06e33112f"><path d="M9.953.484c3.61 0 6.36-1.437 8.125-4.328l-1-.562C15.438-1.922 13.047-.688 10-.688c-4.281 0-6.797-2.515-6.797-6.796 0-.563 0-1.079.031-1.594h16.203c.125-.766.25-1.61.25-2.438 0-4.843-2.765-7.718-7.453-7.718C5.954-19.234 2-14.687 2-7.484c0 5 3 7.968 7.953 7.968zm2.25-18.609c4.75 0 6.75 3.531 6.203 7.969h-15c.828-4.922 4.078-7.969 8.797-7.969zm0 0"/></symbol><symbol overflow="visible" id="06e33112g"><path d="M10.484 7.844l1.235-.328L12.875.484c8.047 0 12.922-4.046 12.922-10.796 0-5.485-3.485-8.688-9.64-8.891L17.64-28l-1.235.313L15-19.235c-8.078 0-12.922 4.03-12.922 10.797 0 5.484 3.438 8.671 9.64 8.921zM3.281-8.438c0-5.968 4.281-9.562 11.516-9.64L11.875-.688C6.406-.844 3.281-3.64 3.281-8.438zm21.313-1.874c0 5.953-4.313 9.546-11.516 9.624l2.875-17.39c5.531.203 8.64 3 8.64 7.765zm0 0"/></symbol><symbol overflow="visible" id="06e33112h"><path d="M3.39-6.719l-.906.032L.406-.704C.312-.453.266-.234.203 0H1l.625-1.875h2.547L4.797 0h.781c-.047-.234-.125-.453-.203-.703zm-.453 1.016h.016l.422 1.422.578 1.718H1.86zm0 0"/></symbol><symbol overflow="visible" id="06e33112i"><path d="M.531-2.188c0 1.329.75 2.329 1.781 2.329.594 0 1.063-.297 1.485-.735l.125.64.656-.093C4.516-.969 4.5-1.375 4.5-1.703v-5.813l-.797.032v3c-.312-.204-.625-.329-1.047-.329-1.437 0-2.14 1.36-2.125 2.625zm.813-.156c0-.594.125-1.14.468-1.484.204-.203.47-.297.875-.297.36 0 .688.078 1.016.266v2.656c-.406.39-.812.656-1.25.656-.734 0-1.11-.75-1.11-1.797zm0 0"/></symbol><symbol overflow="visible" id="06e33112j"><path d="M.531-2.234c0 1.53.875 2.343 2.031 2.343.563 0 1.126-.125 1.672-.375l-.203-.562c-.453.172-.937.25-1.328.25-.781 0-1.328-.485-1.375-1.563h2.938c.046-.234.078-.515.078-.765 0-1.063-.563-1.89-1.688-1.89-1.312 0-2.125 1.124-2.125 2.562zm2.063-1.907c.64 0 .953.454.953 1.094v.344H1.344c.093-.89.531-1.438 1.25-1.438zm0 0"/></symbol><symbol overflow="visible" id="06e33112k"><path d="M1.563-7.516l-.766.032v6.671c0 .61.281.922.812.922.25 0 .532-.046.797-.156L2.234-.64c-.14.047-.28.079-.375.079-.203 0-.296-.141-.296-.454zm0 0"/></symbol><symbol overflow="visible" id="06e33112l"><path d="M1.39-4.734l-.656.078c.063 1.015.079 1.453.079 1.828v5.234h.78V-.188c.345.204.641.329 1.079.329 1.39 0 2.125-1.329 2.125-2.625-.016-1.313-.75-2.329-1.844-2.329-.578 0-1.015.282-1.437.704zm1.438.609c.766 0 1.14.766 1.14 1.797 0 .594-.124 1.172-.468 1.484-.219.219-.484.313-.875.313a1.94 1.94 0 01-1.031-.281v-2.735c.422-.36.797-.578 1.234-.578zm0 0"/></symbol><symbol overflow="visible" id="06e33112m"><path d="M1.578-7.516l-.781.032V0h.781v-3.64c.438-.297.922-.485 1.406-.485.61 0 .782.39.782 1.234V0h.796v-3.188c0-1.03-.375-1.624-1.375-1.624-.593 0-1.124.203-1.609.578zm0 0"/></symbol><symbol overflow="visible" id="06e33112n"><path d="M.672-6.094c0 .297.203.5.515.5.329 0 .547-.218.547-.562 0-.297-.187-.5-.5-.5-.343 0-.562.218-.562.562zm.906 1.407l-.781.03V0h.781zm0 0"/></symbol><symbol overflow="visible" id="06e33112p"><path d="M.938-6.656V0h.796v-2.469c.25.031.5.031.72.031 1.75 0 2.733-.906 2.733-2.328 0-1.296-.875-2.046-2.64-2.046-.469.015-1.031.062-1.61.156zm1.656.562c1.14 0 1.75.438 1.75 1.407 0 .656-.297 1.125-.782 1.343-.296.14-.718.219-1.171.219-.204 0-.438-.031-.657-.047v-2.844a5.49 5.49 0 01.86-.078zm0 0"/></symbol><symbol overflow="visible" id="06e33112q"><path d="M4.766-.688H1.734v-2.39h2.438v-.703H1.734v-2.235h3l.032-.687H.937V0h3.844zm0 0"/></symbol><symbol overflow="visible" id="06e33112r"><path d="M6.375-7.516l-.781.032v.78H.187V-6h2.126v6h.796v-6h2.485v6h.781v-3.64c.438-.297.922-.485 1.406-.485.61 0 .782.39.782 1.234V0h.78v-3.188c0-1.03-.374-1.624-1.374-1.624-.594 0-1.11.203-1.594.578zm0 0"/></symbol><symbol overflow="visible" id="06e33112s"><path d="M1.39-4.734l-.656.078c.063 1 .079 1.453.079 1.812V0h.78v-3.531c.438-.36.923-.594 1.407-.594.625 0 .781.406.781 1.25V0h.781v-3.188c0-1.03-.359-1.624-1.375-1.624-.64 0-1.171.25-1.671.718zm0 0"/></symbol><symbol overflow="visible" id="06e33112A"><path d="M1.313-4.672H.469a.834.834 0 00.187.438l1.188 1.78L.484-.436C.406-.297.313-.157.313 0h.734l1.25-1.938h.015L3.595 0h.797a.834.834 0 00-.188-.438l-1.36-2.015 1.204-1.781c.094-.141.156-.282.187-.438h-.75L2.375-2.969h-.016zm0 0"/></symbol><symbol overflow="visible" id="06e33112B"><path d="M1.813-6.063h-.641L.984-4.671H.328v.656h.703v2.641c0 1.125.344 1.484 1.094 1.484.344 0 .797-.062 1.188-.218l-.141-.594c-.297.078-.594.11-.766.11-.469 0-.594-.204-.594-.97v-2.453H3.25v-.656H1.812zm0 0"/></symbol><symbol overflow="visible" id="06e33112C"><path d="M1.39-4.734l-.656.078c.063 1.015.079 1.453.079 1.812V0h.78v-3.125c.329-.578.75-.828 1.204-.828.187 0 .36.015.531.078l.156-.719a1.113 1.113 0 00-.64-.187c-.531 0-.969.328-1.297.922zm0 0"/></symbol><symbol overflow="visible" id="06e33112D"><path d="M1.063-2.188c-.391.25-.641.641-.641 1.126C.422-.345.89.109 1.64.109c.562 0 1.125-.265 1.625-.703l.14.64.656-.093c-.078-1-.078-1.406-.078-1.766v-1.203c0-1.218-.437-1.765-1.437-1.765-.75 0-1.406.312-1.922.765l.281.485c.5-.344 1.031-.563 1.5-.563.578 0 .797.344.797 1.328v.079c-1.078.093-1.75.234-2.14.5zm.125 1.032c0-.297.14-.485.296-.61.25-.14.688-.265 1.72-.343v.937c-.5.422-1 .656-1.407.656-.375 0-.61-.218-.61-.64zm0 0"/></symbol><symbol overflow="visible" id="06e33112E"><path d="M.984-.734c0 .187.047.359.141.468C.609.094.281.547.281 1.125c-.015.89.813 1.422 1.953 1.422 1.329 0 2.329-.672 2.329-1.766 0-.922-.72-1.297-1.86-1.328-.625 0-1-.047-1-.469 0-.171.078-.296.172-.437.14.016.281.016.422.016 1.203 0 1.875-.766 1.875-1.704 0-.406-.14-.78-.39-1.062.265-.11.577-.188.89-.219l-.031-.672c-.516.016-.938.25-1.266.547a2.082 2.082 0 00-.984-.234c-1.266 0-1.86.875-1.86 1.75 0 .61.297 1.156.875 1.422-.281.28-.422.546-.422.875zm2.422-2.344c0 .672-.422 1.031-1.062 1.031-.719 0-1.063-.406-1.063-1.078 0-.64.422-1.031 1.063-1.031.719 0 1.062.422 1.062 1.078zm-2.39 4.11c0-.407.218-.72.593-.985.266.078.579.078.829.078.812.016 1.406.11 1.406.75a.883.883 0 01-.328.688c-.282.234-.704.328-1.172.328-.797 0-1.328-.282-1.328-.86zm0 0"/></symbol><symbol overflow="visible" id="06e33112M"><path d="M4.594-.688h-2.86v-6.015H.938V0h3.687zm0 0"/></symbol><symbol overflow="visible" id="06e33112U"><path d="M.938-6.656V0h.796v-2.734c.25.03.516.03.704.03.218 0 .406 0 .578-.03L4.516 0h.843a3.702 3.702 0 00-.296-.625L3.796-2.922c.89-.344 1.375-1.062 1.375-1.953 0-1.281-.984-1.938-2.578-1.938-.5 0-1.094.063-1.656.157zm1.656.562c1.11 0 1.734.407 1.734 1.282 0 .625-.312 1.015-.766 1.218-.312.14-.718.203-1.14.203-.235 0-.453-.015-.688-.03v-2.595c.313-.046.61-.078.86-.078zm0 0"/></symbol><symbol overflow="visible" id="06e33112V"><path d="M1.547-4.688l-.781.032v3.172c0 1.03.421 1.625 1.39 1.625.61 0 1.11-.266 1.578-.735l.141.64.64-.093c-.062-1.078-.077-1.39-.077-1.797v-2.828h-.782v3.484c-.437.391-.875.641-1.312.641-.563 0-.797-.36-.797-1.219zm0 0"/></symbol><symbol overflow="visible" id="06e33112ad"><path d="M6.797-6.703H5.703L4.11-1.047h-.03l-.282-1.156-1.313-4.5H1.406L.656-.72C.625-.484.578-.203.562 0h.75l.672-5.625h.032l.296 1.219L3.595 0h.953l1.61-5.61h.03l.125 1.204L6.875 0h.766c-.016-.203-.047-.438-.079-.672zm0 0"/></symbol><symbol overflow="visible" id="06e33112ae"><path d="M1.39-4.734l-.656.078c.079 1.031.079 1.453.079 1.812V0h.78v-3.516c.407-.343.86-.609 1.329-.609.531 0 .719.375.719 1.297V0h.78v-3.125c0-.14 0-.281-.015-.39.39-.344.86-.61 1.328-.61.532 0 .72.375.72 1.297V0h.78v-3.125c0-1.094-.375-1.688-1.296-1.688-.641 0-1.141.282-1.641.782-.172-.516-.547-.782-1.172-.782-.64 0-1.125.266-1.594.75zm0 0"/></symbol><symbol overflow="visible" id="06e33112am"><path d="M.938-6.656v6.61a12.69 12.69 0 001.765.155c1.735 0 2.61-.812 2.61-2.03 0-.907-.516-1.47-1.375-1.657.687-.328.984-.922.984-1.578 0-1.125-.875-1.64-2.313-1.64-.53 0-1.109.062-1.671.14zm1.656.547c.922 0 1.5.296 1.5 1.109 0 .375-.14.766-.516.984-.203.11-.484.188-.922.188-.281 0-.562 0-.922-.016v-2.203c.313-.031.61-.062.86-.062zm.078 2.953c1.234 0 1.797.453 1.797 1.234 0 .406-.157.781-.516 1.047-.25.188-.61.281-1.187.281-.329 0-.657-.015-1.032-.062v-2.5h.938zm0 0"/></symbol><symbol overflow="visible" id="06e33112an"><path d="M.531-2.25c0 1.39.766 2.39 2.016 2.39 1.437 0 2.14-1.296 2.14-2.546 0-1.39-.75-2.406-2.015-2.406-1.438 0-2.14 1.328-2.14 2.562zm3.344-.047c0 .625-.156 1.14-.438 1.438-.171.171-.437.312-.812.312-.844 0-1.297-.75-1.297-1.812 0-.672.188-1.157.453-1.454.172-.171.453-.312.813-.312.844 0 1.281.766 1.281 1.828zm0 0"/></symbol><symbol overflow="visible" id="06e33112av"><path d="M1.563-7.516l-.782.032v7.328c.594.172 1.078.265 1.703.265 1.579 0 2.25-1.234 2.25-2.515 0-1.36-.64-2.406-1.812-2.406-.547 0-.969.265-1.36.671zm1.234 3.391c.719 0 1.14.688 1.14 1.781 0 .656-.124 1.11-.5 1.5-.14.14-.468.281-.89.281-.36 0-.672-.03-.985-.125v-2.828c.375-.359.797-.609 1.235-.609zm0 0"/></symbol><symbol overflow="visible" id="06e33112aD"><path d="M.531-2.219C.531-.78 1.312.11 2.594.11c.437 0 .953-.125 1.453-.343l-.188-.594c-.421.156-.843.25-1.156.25-.86 0-1.375-.547-1.375-1.735 0-.734.203-1.25.547-1.53.172-.141.406-.25.719-.25.406 0 .734.155 1.094.468l.39-.453c-.36-.453-.797-.703-1.422-.703C1.375-4.781.531-3.734.531-2.22zm0 0"/></symbol><symbol overflow="visible" id="06e33112aE"><path d="M4.563-4.672h-.797L1.594-2.219v-5.297l-.797.032V0h.797v-1.25l.718-.781L3.845 0h.86a1.34 1.34 0 00-.235-.438L2.812-2.562l1.532-1.735c.125-.125.203-.25.218-.375zm0 0"/></symbol><symbol overflow="visible" id="06e33112t"><path d="M3.844 0h10.515c5.235 0 8.235-2.797 8.235-7.688 0-4.906-3-7.718-8.235-7.718H5.688v-9.797h15v-1.672H3.843zm1.844-1.688v-12.03h8.593c4.125 0 6.438 2.202 6.438 6.03 0 3.813-2.313 6-6.438 6zm0 0"/></symbol><symbol overflow="visible" id="06e33112u"><path d="M11.234.484c3.72 0 6.407-1.53 8.047-4.562l-1.593-.64c-1.375 2.359-3.485 3.593-6.407 3.593-4.594 0-7.36-2.875-7.515-7.797h16v-.922c0-5.922-3.25-9.469-8.641-9.469C5.562-19.313 2-15.483 2-9.438 2-3.234 5.484.485 11.234.485zm-.109-18.25c4.11 0 6.672 2.72 6.875 7.36H3.797c.328-4.547 3.078-7.36 7.328-7.36zm0 0"/></symbol><symbol overflow="visible" id="06e33112v"><path d="M13.234 7.875l1.72-.39v-7c7.093-.047 11.25-3.641 11.25-9.922 0-6.157-4.079-9.766-11.25-9.876v-8.734l-1.72.406v8.328C6.156-19.28 2-15.688 2-9.438 2-3.234 6.078.36 13.234.485zM24.438-9.438c0 5.235-3.391 8.204-9.485 8.282v-16.532c5.969 0 9.485 3 9.485 8.25zm-20.641 0c0-5.203 3.36-8.156 9.437-8.25v16.532c-5.953 0-9.437-3-9.437-8.281zm0 0"/></symbol><symbol overflow="visible" id="06e33112x"><path d="M2.234 0h10.844c5.766 0 9.235-3.36 9.235-8.875 0-4.172-2.625-6.531-7.313-6.531H6.64l1.641-9.797h15l.282-1.672H6.718zM4.36-1.688l2-12.03h8.438c3.64 0 5.687 1.796 5.687 4.952 0 4.407-2.797 7.079-7.406 7.079zm0 0"/></symbol><symbol overflow="visible" id="06e33112y"><path d="M10.047.484c3.672 0 6.469-1.437 8.265-4.328l-1.468-.75c-1.563 2.282-3.797 3.469-6.719 3.469-4.047 0-6.484-2.39-6.484-6.469 0-.453 0-.89.046-1.328h15.954c.156-.844.28-1.719.28-2.64 0-4.844-2.843-7.75-7.608-7.75-6.391 0-10.391 4.593-10.391 11.796 0 5 3.031 8 8.125 8zm2.156-18.25c4.485 0 6.36 3.25 5.922 7.36H3.875c.89-4.547 3.922-7.36 8.328-7.36zm0 0"/></symbol><symbol overflow="visible" id="06e33112z"><path d="M10.313 7.875l1.812-.39 1.156-7c8 0 12.875-4.079 12.875-10.844 0-5.438-3.437-8.641-9.562-8.922l1.453-8.766-1.813.406-1.39 8.328C6.875-19.313 2-15.233 2-8.483 2-3.047 5.438.156 11.563.437zM3.766-8.563c0-5.593 4.03-9 10.796-9.124L11.845-1.203c-5.156-.156-8.078-2.844-8.078-7.36zm20.64-1.718c0 5.594-4.047 9-10.843 9.125l2.75-16.485c5.171.157 8.093 2.844 8.093 7.36zm0 0"/></symbol><symbol overflow="visible" id="06e33112F"><path d="M3.64 0h10.766c5.36 0 8.438-2.844 8.438-7.797 0-5-3.078-7.844-8.438-7.844H6.203v-8.953h14.719v-2.281H3.64zm2.563-2.281v-11.031h8.031c3.813 0 5.97 2 5.97 5.515 0 3.516-2.157 5.516-5.97 5.516zm0 0"/></symbol><symbol overflow="visible" id="06e33112G"><path d="M11.313.484c3.765 0 6.53-1.53 8.25-4.562l-2.157-.875c-1.328 2.11-3.25 3.312-6.047 3.312-4.234 0-6.796-2.593-7.046-7.078h15.734v-1.125c0-5.953-3.328-9.594-8.844-9.594-5.719 0-9.328 3.875-9.328 9.954 0 6.25 3.531 9.968 9.438 9.968zm-.11-17.843c3.797 0 6.156 2.484 6.39 6.718H4.36c.407-4.156 2.954-6.718 6.844-6.718zm0 0"/></symbol><symbol overflow="visible" id="06e33112H"><path d="M13.047 8l2.39-.64V.483c7.126-.171 11.204-3.796 11.204-9.968 0-6.157-4.078-9.75-11.203-9.922v-8.75l-2.391.64v8.11c-7.094.172-11.172 3.765-11.172 9.922 0 6.171 4.078 9.796 11.172 9.968zm11.11-17.484c0 4.843-3.11 7.609-8.72 7.718v-15.39c5.61.078 8.72 2.875 8.72 7.672zm-19.798 0c0-4.797 3.125-7.594 8.688-7.672v15.39C7.484-1.875 4.359-4.64 4.359-9.484zm0 0"/></symbol><symbol overflow="visible" id="06e33112J"><path d="M2.047 0h11.11c5.89 0 9.405-3.406 9.405-9.047 0-4.187-2.718-6.594-7.484-6.594H7.203l1.516-8.953h14.687l.39-2.281H6.517zM5-2.281l1.844-11.031h7.922c3.312 0 5.187 1.624 5.187 4.546 0 4-2.547 6.485-6.797 6.485zm0 0"/></symbol><symbol overflow="visible" id="06e33112K"><path d="M10.125.484c3.75 0 6.594-1.437 8.469-4.328l-2.032-1c-1.484 2.078-3.515 3.203-6.25 3.203-3.828 0-6.109-2.28-6.109-6.125v-.953h15.672c.203-.922.328-1.875.328-2.844 0-4.921-2.922-7.874-7.797-7.874-6.484 0-10.61 4.64-10.61 11.843 0 5.032 3.126 8.078 8.329 8.078zm2.078-17.843c4.11 0 5.875 2.922 5.563 6.718H4.484c.829-4.156 3.672-6.718 7.72-6.718zm0 0"/></symbol><symbol overflow="visible" id="06e33112L"><path d="M10.125 8l2.516-.64L13.766.483c7.921 0 12.828-4.078 12.828-10.843 0-5.438-3.438-8.688-9.516-9.047l1.485-8.75-2.516.64-1.36 8.078c-7.89 0-12.812 4.125-12.812 10.875 0 5.407 3.406 8.641 9.484 9zM4.312-8.688c0-5.187 3.766-8.359 10-8.468l-2.546 15.39C7-2 4.312-4.484 4.312-8.687zm19.813-1.593c0 5.234-3.719 8.406-9.969 8.515l2.563-15.39c4.765.234 7.406 2.672 7.406 6.875zm0 0"/></symbol><symbol overflow="visible" id="06e33112N"><path d="M3.406 0h11.078c5.438 0 8.594-2.922 8.594-7.953 0-5.047-3.156-7.922-8.594-7.922h-7.64v-8h14.312v-3H3.406zm3.438-3v-9.875h7.39c3.407 0 5.329 1.75 5.329 4.922C19.563-4.797 17.64-3 14.233-3zm0 0"/></symbol><symbol overflow="visible" id="06e33112O"><path d="M11.406.484c3.875 0 6.719-1.53 8.516-4.562l-2.875-1.156c-1.203 1.875-2.969 2.953-5.563 2.953-3.843 0-6.203-2.281-6.53-6.235h15.405c.047-.484.047-.921.047-1.328 0-6.031-3.484-9.719-9.125-9.719-5.844 0-9.562 3.875-9.562 10.047 0 6.235 3.64 10 9.687 10zm-.125-17.359c3.438 0 5.563 2.156 5.875 5.953H5c.484-3.719 2.797-5.953 6.281-5.953zm0 0"/></symbol><symbol overflow="visible" id="06e33112P"><path d="M12.844 8.078l3.203-.797V.484c7.031-.25 11.078-3.921 11.078-10 0-6.125-4.047-9.765-11.078-10v-8.718l-3.203.797v7.921c-7.047.235-11.125 3.875-11.125 10 0 6.079 4.078 9.75 11.125 10zM23.875-9.516c0 4.36-2.828 6.922-7.828 7.079v-14.157c5 .157 7.828 2.672 7.828 7.078zM5-9.516c0-4.406 2.797-6.921 7.844-7.078v14.157C7.797-2.595 5-5.158 5-9.517zm0 0"/></symbol><symbol overflow="visible" id="06e33112R"><path d="M1.797 0h11.437c6 0 9.641-3.438 9.641-9.203 0-4.281-2.797-6.672-7.672-6.672H7.875l1.328-8h14.36l.484-3H6.28zm3.969-3l1.64-9.875h7.282c3 0 4.624 1.469 4.624 4.078C19.313-5.203 17.047-3 13.235-3zm0 0"/></symbol><symbol overflow="visible" id="06e33112S"><path d="M10.203.484c3.875 0 6.797-1.437 8.75-4.328l-2.672-1.281c-1.406 1.813-3.234 2.844-5.765 2.844-3.594 0-5.672-2.078-5.672-5.64v-.595h15.312c.25-1 .407-2.046.407-3.078 0-4.969-3-7.969-8.079-7.969-6.609 0-10.843 4.688-10.843 11.875 0 5.094 3.203 8.172 8.562 8.172zm2.031-17.359c3.688 0 5.282 2.563 5.079 5.953H5.155c.89-3.719 3.438-5.953 7.078-5.953zm0 0"/></symbol><symbol overflow="visible" id="06e33112T"><path d="M9.875 8.078l3.328-.797L14.36.484c7.922-.125 12.766-4.25 12.766-10.89 0-5.39-3.406-8.64-9.438-9.078l1.438-8.75-3.328.797-1.313 7.921C6.563-19.406 1.72-15.313 1.72-8.64 1.719-3.28 5.125 0 11.156.438zM5-8.844c0-4.719 3.406-7.594 9-7.75l-2.36 14.11C7.36-2.72 5-4.954 5-8.844zm18.844-1.39c0 4.718-3.407 7.64-9 7.796l2.36-14.156c4.28.282 6.64 2.516 6.64 6.36zm0 0"/></symbol><symbol overflow="visible" id="06e33112W"><path d="M3.125 0h11.469c5.562 0 8.812-3 8.812-8.125 0-5.11-3.25-8.078-8.812-8.078H7.563v-6.844h13.921v-3.828H3.125zm4.438-3.844v-8.515h6.671c2.97 0 4.61 1.515 4.61 4.234 0 2.766-1.64 4.281-4.61 4.281zm0 0"/></symbol><symbol overflow="visible" id="06e33112X"><path d="M11.516.484c3.968 0 6.89-1.53 8.765-4.562l-3.593-1.516C15.563-4 14-3 11.593-3c-3.39 0-5.469-1.875-5.875-5.281h15c.047-.594.047-1.078.047-1.563 0-6.156-3.563-9.844-9.36-9.844-6 0-9.844 3.891-9.844 10.094 0 6.281 3.72 10.078 9.954 10.078zm-.11-16.797c3 0 4.828 1.797 5.188 5.032H5.766c.515-3.203 2.546-5.031 5.64-5.031zm0 0"/></symbol><symbol overflow="visible" id="06e33112Y"><path d="M12.594 8.203l4.094-1.047V.438c7-.313 11.03-4 11.03-10.032 0-6.047-4.03-9.719-11.03-10.047v-8.718l-4.094 1.047v7.671c-7 .328-11.031 4-11.031 10.047 0 6.031 4.03 9.719 11.03 10.031zM5.766-9.594c0-3.89 2.437-6.172 6.828-6.36v12.72c-4.39-.204-6.828-2.485-6.828-6.36zm17.75 0c0 3.875-2.438 6.156-6.828 6.36v-12.72c4.39.188 6.828 2.47 6.828 6.36zm0 0"/></symbol><symbol overflow="visible" id="06e33112aa"><path d="M1.516 0h11.796c6.204 0 9.891-3.516 9.891-9.406 0-4.36-2.844-6.797-7.89-6.797H8.686l1.11-6.844h13.922l.64-3.828H6zm5.078-3.844l1.453-8.515h6.547c2.61 0 4.047 1.234 4.047 3.515 0 3.078-2 5-5.282 5zm0 0"/></symbol><symbol overflow="visible" id="06e33112ab"><path d="M10.313.484c3.968 0 7-1.437 9-4.328l-3.391-1.64C14.687-3.922 13.047-3 10.766-3 7.484-3 5.562-4.875 5.562-8.125v-.156h14.954c.25-1.125.406-2.235.406-3.36 0-5.046-3.078-8.046-8.328-8.046-6.719 0-11.11 4.687-11.11 11.89 0 5.156 3.313 8.281 8.829 8.281zm1.921-16.797c3.25 0 4.641 2.157 4.61 5.032H5.954c.89-3.156 3.124-5.031 6.28-5.031zm0 0"/></symbol><symbol overflow="visible" id="06e33112ac"><path d="M9.64 8.203l4.235-1.047L15 .484c7.875-.171 12.688-4.28 12.688-10.921.03-5.36-3.375-8.641-9.329-9.157l1.438-8.765-4.235 1.047-1.28 7.625C6.405-19.517 1.593-15.36 1.593-8.767c0 5.36 3.36 8.641 9.328 9.172zM5.798-9c0-4.156 2.969-6.766 7.844-6.953L11.562-3.281C7.845-3.562 5.766-5.562 5.798-9zm17.719-1.203c0 4.156-3 6.765-7.922 6.969l2.125-12.688c3.718.281 5.797 2.328 5.797 5.719zm0 0"/></symbol><symbol overflow="visible" id="06e33112af"><path d="M2.844 0h11.844c5.671 0 9.03-3.047 9.03-8.234 0-5.204-3.359-8.282-9.03-8.282H8.28v-5.687h13.516v-4.672H2.844zM8.28-4.688v-7.156h5.922c2.563 0 3.922 1.281 3.922 3.61 0 2.312-1.36 3.546-3.922 3.546zm0 0"/></symbol><symbol overflow="visible" id="06e33112ag"><path d="M11.64.484c4.047 0 7.047-1.53 9-4.562l-4.328-1.844c-1.078 1.328-2.437 2.203-4.593 2.203-2.922 0-4.719-1.515-5.235-4.328h14.594c.047-.719.047-1.234.047-1.797 0-6.234-3.64-9.953-9.61-9.953-6.203 0-10.109 3.922-10.109 10.11C1.406-3.314 5.203.483 11.641.483zm-.124-16.25c2.562 0 4.171 1.454 4.562 4.125H6.563c.562-2.64 2.312-4.125 4.953-4.125zm0 0"/></symbol><symbol overflow="visible" id="06e33112ah"><path d="M12.36 8.313l4.953-1.266V.437c6.968-.39 11-4.125 11-10.124 0-6-4.032-9.72-11-10.11v-8.687l-4.954 1.28v7.407c-6.921.39-10.953 4.11-10.953 10.11 0 6 4.032 9.734 10.953 10.124zm10.796-18c0 3.374-2.078 5.374-5.843 5.64V-15.28c3.765.234 5.843 2.234 5.843 5.594zm-16.64 0c0-3.36 2.078-5.36 5.843-5.594v11.234c-3.765-.266-5.843-2.266-5.843-5.64zm0 0"/></symbol><symbol overflow="visible" id="06e33112aj"><path d="M1.234 0h12.172c6.36 0 10.11-3.594 10.11-9.563 0-4.437-2.922-6.953-8.078-6.953h-6l.968-5.687h13.469l.813-4.672H5.718zm6.204-4.688l1.203-7.156h5.875c2.203 0 3.437 1.047 3.437 2.969 0 2.594-1.719 4.188-4.515 4.188zm0 0"/></symbol><symbol overflow="visible" id="06e33112ak"><path d="M10.438.484c4.046 0 7.156-1.437 9.25-4.328l-4.125-1.953C14.437-4.516 13.046-3.719 11-3.719c-2.922 0-4.594-1.562-4.719-4.328h14.563c.281-1.187.437-2.39.437-3.64 0-5.079-3.156-8.11-8.562-8.11-6.875 0-11.406 4.672-11.406 11.875 0 5.234 3.453 8.406 9.124 8.406zm1.796-16.25c2.72 0 4 1.72 4.079 4.125H6.765c.875-2.593 2.828-4.125 5.468-4.125zm0 0"/></symbol><symbol overflow="visible" id="06e33112al"><path d="M9.36 8.313l5.203-1.266L15.64.484c7.843-.203 12.64-4.359 12.64-10.968 0-5.313-3.328-8.641-9.281-9.235l1.484-8.765-5.203 1.28-1.234 7.407c-7.813.203-12.61 4.36-12.61 10.922 0 5.313 3.329 8.64 9.25 9.281zM6.562-9.157c0-3.64 2.562-5.921 6.75-6.124L11.437-4.078c-3.156-.328-4.874-2.078-4.874-5.078zm16.593-1c0 3.641-2.562 5.876-6.75 6.11l1.875-11.187c3.157.312 4.875 2.078 4.875 5.078zm0 0"/></symbol><symbol overflow="visible" id="06e33112ao"><path d="M2.594 0h12.172c5.75 0 9.187-3.125 9.187-8.406 0-5.235-3.437-8.36-9.187-8.36H8.922v-4.718h13.125v-5.391H2.594zm6.328-5.406v-6h5.281c2.156 0 3.281 1.047 3.281 3 0 1.969-1.125 3-3.28 3zm0 0"/></symbol><symbol overflow="visible" id="06e33112ap"><path d="M11.719.484c4.156 0 7.234-1.53 9.281-4.562l-5.047-2.125C15-5.125 13.797-4.36 11.797-4.36c-2.485 0-4.078-1.204-4.594-3.485H21.36c.125-.797.125-1.39.125-2 0-6.312-3.797-10.078-9.89-10.078-6.313 0-10.36 3.922-10.36 10.203C1.234-3.359 5.156.484 11.72.484zm-.125-15.765c2.203 0 3.562 1.156 3.969 3.36H7.233c.61-2.157 2.125-3.36 4.36-3.36zm0 0"/></symbol><symbol overflow="visible" id="06e33112aq"><path d="M12.156 8.406l5.766-1.453V.437c6.875-.484 10.875-4.203 10.875-10.156 0-5.969-4-9.687-10.875-10.156v-8.688l-5.766 1.438v7.25c-6.875.469-10.922 4.188-10.922 10.156 0 5.953 4.047 9.672 10.922 10.156zm-5-18.125c0-2.922 1.797-4.687 5-4.969v9.922c-3.203-.28-5-2.03-5-4.953zm15.719 0c0 2.922-1.797 4.672-4.953 4.953v-9.921c3.156.28 4.953 2.046 4.953 4.968zm0 0"/></symbol><symbol overflow="visible" id="06e33112as"><path d="M1 0h12.484c6.47 0 10.36-3.64 10.36-9.719 0-4.515-3-7.047-8.328-7.047h-5.391l.75-4.718h13.172l.875-5.391H5.484zm7.203-5.406l1-6h5.235c1.874 0 2.874.89 2.874 2.484 0 2.203-1.437 3.516-3.796 3.516zm0 0"/></symbol><symbol overflow="visible" id="06e33112at"><path d="M10.516.484c4.171 0 7.359-1.437 9.53-4.328l-4.812-2.234c-1 1-2.187 1.719-4.03 1.719-2.517 0-4-1.235-4.25-3.485h14.171c.313-1.281.516-2.562.516-3.875 0-5.125-3.282-8.203-8.844-8.203-7 0-11.64 4.719-11.64 11.922 0 5.313 3.53 8.484 9.359 8.484zM12.28-15.28c2.281 0 3.406 1.36 3.563 3.36H7.516c.843-2.126 2.484-3.36 4.765-3.36zm0 0"/></symbol><symbol overflow="visible" id="06e33112au"><path d="M9.156 8.406l5.969-1.453L16.203.484c7.797-.25 12.594-4.437 12.594-11 0-5.28-3.313-8.609-9.203-9.328l1.453-8.718-5.969 1.437-1.203 7.203c-7.797.235-12.594 4.406-12.594 10.969 0 5.265 3.313 8.64 9.203 9.312zM7.234-9.312c0-3.172 2.172-5.126 5.766-5.407l-1.688 9.922c-2.671-.328-4.078-1.89-4.078-4.516zm15.641-.813c0 3.125-2.188 5.125-5.797 5.36l1.64-9.922c2.72.374 4.157 1.921 4.157 4.562zm0 0"/></symbol><symbol overflow="visible" id="06e33112aw"><path d="M2.406 0h12.39c5.892 0 9.407-3.156 9.407-8.516 0-5.328-3.515-8.484-9.406-8.484h-5.36v-3.875h12.844v-6H2.406zm7.031-6v-5h4.72c1.843 0 2.796.844 2.796 2.484C16.953-6.875 16-6 14.156-6zm0 0"/></symbol><symbol overflow="visible" id="06e33112ax"><path d="M11.797.484c4.25 0 7.406-1.53 9.484-4.562l-5.593-2.36c-.922.844-1.922 1.563-3.813 1.563-2.11 0-3.469-.969-4.078-2.766H21.64c.125-.875.125-1.562.125-2.203 0-6.36-3.891-10.203-10.078-10.203-6.485 0-10.563 3.969-10.563 10.25 0 6.438 4 10.281 10.672 10.281zm-.11-15.359c1.829 0 3.032.922 3.47 2.672H7.874c.61-1.719 1.89-2.672 3.813-2.672zm0 0"/></symbol><symbol overflow="visible" id="06e33112ay"><path d="M11.953 8.484l6.453-1.609V.437c6.828-.562 10.828-4.312 10.828-10.234 0-5.89-4-9.64-10.828-10.203v-8.64l-6.453 1.593V-20c-6.828.563-10.828 4.313-10.828 10.234 0 5.891 4 9.641 10.828 10.204zM7.72-9.796c.047-2.517 1.515-4.079 4.234-4.407v8.844C9.234-5.688 7.72-7.234 7.72-9.797zm14.922 0c0 2.562-1.516 4.108-4.235 4.437v-8.844c2.719.328 4.235 1.89 4.235 4.406zm0 0"/></symbol><symbol overflow="visible" id="06e33112aA"><path d="M.797 0h12.765c6.594 0 10.516-3.719 10.516-9.875C24.078-14.438 21-17 15.594-17h-4.906l.624-3.875h12.844l1-6H5.281zm8.047-6l.844-5h4.718c1.547 0 2.39.719 2.39 2.078C16.797-7.125 15.595-6 13.595-6zm0 0"/></symbol><symbol overflow="visible" id="06e33112aB"><path d="M10.64.484c4.204 0 7.438-1.437 9.672-4.328l-5.359-2.469c-.906.75-1.906 1.438-3.547 1.438-2.203 0-3.531-.969-3.844-2.766H21.36c.36-1.359.563-2.718.563-4.078 0-5.203-3.36-8.328-9-8.328-7.125 0-11.844 4.766-11.844 11.969 0 5.36 3.563 8.562 9.563 8.562zm1.641-15.359c1.922 0 2.922 1.078 3.156 2.672h-7.28c.796-1.672 2.25-2.672 4.124-2.672zm0 0"/></symbol><symbol overflow="visible" id="06e33112aC"><path d="M8.953 8.484l6.688-1.609 1.078-6.39c7.718-.282 12.515-4.485 12.515-11 0-5.282-3.28-8.641-9.109-9.407l1.438-8.719-6.688 1.594-1.188 7c-7.734.328-12.53 4.485-12.53 11 0 5.281 3.327 8.61 9.155 9.406zM7.797-9.438c0-2.718 1.89-4.484 4.922-4.765L11.28-5.406C9-5.766 7.797-7.125 7.797-9.438zm14.797-.687c0 2.719-1.875 4.484-4.907 4.766l1.47-8.797c2.28.36 3.437 1.75 3.437 4.031zm0 0"/></symbol></defs><use xlink:href="#06e33112a" x="21.08" y="66.66667"/><use xlink:href="#06e33112b" x="45.6" y="66.66667"/><use xlink:href="#06e33112c" x="67.24" y="66.66667"/><use xlink:href="#06e33112d" x="95.2" y="66.66667"/><use xlink:href="#06e33112e" x="104.8" y="66.66667"/><use xlink:href="#06e33112f" x="129.32" y="66.66667"/><use xlink:href="#06e33112g" x="150.96" y="66.66667"/><use xlink:href="#06e33112h" x="67.83" y="100" fill="#b7b7b7"/><g fill="#b7b7b7"><use xlink:href="#06e33112i" x="73.62" y="100"/><use xlink:href="#06e33112j" x="78.93" y="100"/><use xlink:href="#06e33112k" x="83.8" y="100"/><use xlink:href="#06e33112l" x="86.38" y="100"/><use xlink:href="#06e33112m" x="91.69" y="100"/><use xlink:href="#06e33112n" x="97.01" y="100"/><use xlink:href="#06e33112o" x="99.39" y="100"/><use xlink:href="#06e33112p" x="101.55" y="100"/><use xlink:href="#06e33112q" x="107.15" y="100"/><use xlink:href="#06e33112o" x="112.45" y="100"/></g><g fill="#b7b7b7"><use xlink:href="#06e33112r" x="114.35" y="100"/><use xlink:href="#06e33112n" x="124.46" y="100"/><use xlink:href="#06e33112s" x="126.84" y="100"/></g><use xlink:href="#06e33112t" x="20.6" y="166.66667"/><use xlink:href="#06e33112u" x="45.2" y="166.66667"/><use xlink:href="#06e33112v" x="67" y="166.66667"/><use xlink:href="#06e33112w" x="95.2" y="166.66667"/><use xlink:href="#06e33112x" x="104.8" y="166.66667"/><use xlink:href="#06e33112y" x="129.4" y="166.66667"/><use xlink:href="#06e33112z" x="151.2" y="166.66667"/><use xlink:href="#06e33112h" x="56.295" y="200" fill="#b7b7b7"/><g fill="#b7b7b7"><use xlink:href="#06e33112i" x="62.085" y="200"/><use xlink:href="#06e33112j" x="67.395" y="200"/><use xlink:href="#06e33112k" x="72.265" y="200"/><use xlink:href="#06e33112l" x="74.845" y="200"/><use xlink:href="#06e33112m" x="80.155" y="200"/><use xlink:href="#06e33112n" x="85.475" y="200"/><use xlink:href="#06e33112o" x="87.855" y="200"/><use xlink:href="#06e33112p" x="90.015" y="200"/><use xlink:href="#06e33112q" x="95.615" y="200"/><use xlink:href="#06e33112o" x="100.915" y="200"/><use xlink:href="#06e33112q" x="103.075" y="200"/><use xlink:href="#06e33112A" x="108.375" y="200"/><use xlink:href="#06e33112B" x="113.075" y="200"/><use xlink:href="#06e33112C" x="116.665" y="200"/></g><g fill="#b7b7b7"><use xlink:href="#06e33112D" x="120.135" y="200"/><use xlink:href="#06e33112k" x="124.885" y="200"/><use xlink:href="#06e33112n" x="127.465" y="200"/><use xlink:href="#06e33112E" x="129.845" y="200"/><use xlink:href="#06e33112m" x="134.795" y="200"/><use xlink:href="#06e33112B" x="140.115" y="200"/></g><use xlink:href="#06e33112F" x="20.04" y="266.66667"/><use xlink:href="#06e33112G" x="44.76" y="266.66667"/><use xlink:href="#06e33112H" x="66.68" y="266.66667"/><use xlink:href="#06e33112I" x="95.2" y="266.66667"/><use xlink:href="#06e33112J" x="104.8" y="266.66667"/><use xlink:href="#06e33112K" x="129.52" y="266.66667"/><use xlink:href="#06e33112L" x="151.44" y="266.66667"/><use xlink:href="#06e33112h" x="66.06" y="300" fill="#b7b7b7"/><g fill="#b7b7b7"><use xlink:href="#06e33112i" x="71.85" y="300"/><use xlink:href="#06e33112j" x="77.16" y="300"/><use xlink:href="#06e33112k" x="82.03" y="300"/><use xlink:href="#06e33112l" x="84.61" y="300"/><use xlink:href="#06e33112m" x="89.92" y="300"/><use xlink:href="#06e33112n" x="95.24" y="300"/><use xlink:href="#06e33112o" x="97.62" y="300"/><use xlink:href="#06e33112p" x="99.78" y="300"/><use xlink:href="#06e33112q" x="105.38" y="300"/><use xlink:href="#06e33112o" x="110.68" y="300"/><use xlink:href="#06e33112M" x="112.84" y="300"/><use xlink:href="#06e33112n" x="117.7" y="300"/><use xlink:href="#06e33112E" x="120.08" y="300"/><use xlink:href="#06e33112m" x="125.03" y="300"/><use xlink:href="#06e33112B" x="130.35" y="300"/></g><use xlink:href="#06e33112N" x="19.36" y="366.66667"/><use xlink:href="#06e33112O" x="44.2" y="366.66667"/><use xlink:href="#06e33112P" x="66.32" y="366.66667"/><use xlink:href="#06e33112Q" x="95.2" y="366.66667"/><use xlink:href="#06e33112R" x="104.8" y="366.66667"/><use xlink:href="#06e33112S" x="129.64" y="366.66667"/><use xlink:href="#06e33112T" x="151.76" y="366.66667"/><use xlink:href="#06e33112h" x="60.78" y="400" fill="#b7b7b7"/><g fill="#b7b7b7"><use xlink:href="#06e33112i" x="66.57" y="400"/><use xlink:href="#06e33112j" x="71.88" y="400"/><use xlink:href="#06e33112k" x="76.75" y="400"/><use xlink:href="#06e33112l" x="79.33" y="400"/><use xlink:href="#06e33112m" x="84.64" y="400"/><use xlink:href="#06e33112n" x="89.96" y="400"/><use xlink:href="#06e33112o" x="92.34" y="400"/><use xlink:href="#06e33112p" x="94.5" y="400"/><use xlink:href="#06e33112q" x="100.1" y="400"/><use xlink:href="#06e33112o" x="105.4" y="400"/><use xlink:href="#06e33112U" x="107.56" y="400"/></g><g fill="#b7b7b7"><use xlink:href="#06e33112j" x="113.17" y="400"/><use xlink:href="#06e33112E" x="118.04" y="400"/><use xlink:href="#06e33112V" x="122.99" y="400"/><use xlink:href="#06e33112k" x="128.24" y="400"/><use xlink:href="#06e33112D" x="130.82" y="400"/><use xlink:href="#06e33112C" x="135.57" y="400"/></g><g><use xlink:href="#06e33112W" x="18.64" y="466.66667"/><use xlink:href="#06e33112X" x="43.6" y="466.66667"/><use xlink:href="#06e33112Y" x="65.92" y="466.66667"/><use xlink:href="#06e33112Z" x="95.2" y="466.66667"/></g><g><use xlink:href="#06e33112aa" x="104.8" y="466.66667"/><use xlink:href="#06e33112ab" x="129.76" y="466.66667"/><use xlink:href="#06e33112ac" x="152.08" y="466.66667"/></g><g fill="#b7b7b7"><use xlink:href="#06e33112h" x="59.61" y="500"/></g><g fill="#b7b7b7"><use xlink:href="#06e33112i" x="65.4" y="500"/><use xlink:href="#06e33112j" x="70.71" y="500"/><use xlink:href="#06e33112k" x="75.58" y="500"/><use xlink:href="#06e33112l" x="78.16" y="500"/><use xlink:href="#06e33112m" x="83.47" y="500"/><use xlink:href="#06e33112n" x="88.79" y="500"/><use xlink:href="#06e33112o" x="91.17" y="500"/><use xlink:href="#06e33112p" x="93.33" y="500"/><use xlink:href="#06e33112q" x="98.93" y="500"/><use xlink:href="#06e33112o" x="104.23" y="500"/><use xlink:href="#06e33112ad" x="106.39" y="500"/></g><g fill="#b7b7b7"><use xlink:href="#06e33112j" x="114.58" y="500"/><use xlink:href="#06e33112i" x="119.45" y="500"/><use xlink:href="#06e33112n" x="124.76" y="500"/><use xlink:href="#06e33112V" x="127.14" y="500"/><use xlink:href="#06e33112ae" x="132.39" y="500"/></g><g><use xlink:href="#06e33112af" x="17.92" y="566.66667"/><use xlink:href="#06e33112ag" x="43" y="566.66667"/><use xlink:href="#06e33112ah" x="65.52" y="566.66667"/><use xlink:href="#06e33112ai" x="95.2" y="566.66667"/></g><g><use xlink:href="#06e33112aj" x="104.8" y="566.66667"/><use xlink:href="#06e33112ak" x="129.88" y="566.66667"/><use xlink:href="#06e33112al" x="152.4" y="566.66667"/></g><g fill="#b7b7b7"><use xlink:href="#06e33112h" x="67.15" y="600"/></g><g fill="#b7b7b7"><use xlink:href="#06e33112i" x="72.94" y="600"/><use xlink:href="#06e33112j" x="78.25" y="600"/><use xlink:href="#06e33112k" x="83.12" y="600"/><use xlink:href="#06e33112l" x="85.7" y="600"/><use xlink:href="#06e33112m" x="91.01" y="600"/><use xlink:href="#06e33112n" x="96.33" y="600"/><use xlink:href="#06e33112o" x="98.71" y="600"/><use xlink:href="#06e33112p" x="100.87" y="600"/><use xlink:href="#06e33112q" x="106.47" y="600"/><use xlink:href="#06e33112o" x="111.77" y="600"/><use xlink:href="#06e33112am" x="113.93" y="600"/><use xlink:href="#06e33112an" x="119.75" y="600"/><use xlink:href="#06e33112k" x="124.96" y="600"/><use xlink:href="#06e33112i" x="127.54" y="600"/></g><g><use xlink:href="#06e33112ao" x="17.24" y="666.66667"/><use xlink:href="#06e33112ap" x="42.44" y="666.66667"/><use xlink:href="#06e33112aq" x="65.16" y="666.66667"/><use xlink:href="#06e33112ar" x="95.2" y="666.66667"/></g><g><use xlink:href="#06e33112as" x="104.8" y="666.66667"/><use xlink:href="#06e33112at" x="130" y="666.66667"/><use xlink:href="#06e33112au" x="152.72" y="666.66667"/></g><g fill="#b7b7b7"><use xlink:href="#06e33112h" x="56.525" y="700"/></g><g fill="#b7b7b7"><use xlink:href="#06e33112i" x="62.315" y="700"/><use xlink:href="#06e33112j" x="67.625" y="700"/><use xlink:href="#06e33112k" x="72.495" y="700"/><use xlink:href="#06e33112l" x="75.075" y="700"/><use xlink:href="#06e33112m" x="80.385" y="700"/><use xlink:href="#06e33112n" x="85.705" y="700"/><use xlink:href="#06e33112o" x="88.085" y="700"/><use xlink:href="#06e33112p" x="90.245" y="700"/><use xlink:href="#06e33112q" x="95.845" y="700"/><use xlink:href="#06e33112o" x="101.145" y="700"/><use xlink:href="#06e33112q" x="103.305" y="700"/><use xlink:href="#06e33112A" x="108.605" y="700"/><use xlink:href="#06e33112B" x="113.305" y="700"/><use xlink:href="#06e33112C" x="116.895" y="700"/></g><g fill="#b7b7b7"><use xlink:href="#06e33112D" x="120.365" y="700"/><use xlink:href="#06e33112av" x="125.115" y="700"/><use xlink:href="#06e33112an" x="130.375" y="700"/><use xlink:href="#06e33112k" x="135.585" y="700"/><use xlink:href="#06e33112i" x="138.165" y="700"/></g><g><use xlink:href="#06e33112aw" x="16.64" y="766.66667"/><use xlink:href="#06e33112ax" x="41.96" y="766.66667"/><use xlink:href="#06e33112ay" x="64.84" y="766.66667"/><use xlink:href="#06e33112az" x="95.2" y="766.66667"/></g><g><use xlink:href="#06e33112aA" x="104.8" y="766.66667"/><use xlink:href="#06e33112aB" x="130.12" y="766.66667"/><use xlink:href="#06e33112aC" x="153" y="766.66667"/></g><g fill="#b7b7b7"><use xlink:href="#06e33112h" x="65.345" y="800"/></g><g fill="#b7b7b7"><use xlink:href="#06e33112i" x="71.135" y="800"/><use xlink:href="#06e33112j" x="76.445" y="800"/><use xlink:href="#06e33112k" x="81.315" y="800"/><use xlink:href="#06e33112l" x="83.895" y="800"/><use xlink:href="#06e33112m" x="89.205" y="800"/><use xlink:href="#06e33112n" x="94.525" y="800"/><use xlink:href="#06e33112o" x="96.905" y="800"/><use xlink:href="#06e33112p" x="99.065" y="800"/><use xlink:href="#06e33112q" x="104.665" y="800"/><use xlink:href="#06e33112o" x="109.965" y="800"/><use xlink:href="#06e33112am" x="112.125" y="800"/></g><g fill="#b7b7b7"><use xlink:href="#06e33112k" x="117.935" y="800"/><use xlink:href="#06e33112D" x="120.515" y="800"/><use xlink:href="#06e33112aD" x="125.265" y="800"/><use xlink:href="#06e33112aE" x="129.725" y="800"/></g></svg>