<?xml version='1.0' encoding='UTF-8'?>
<svg xmlns="http://www.w3.org/2000/svg" xmlns:xlink="http://www.w3.org/1999/xlink" width="600px" height="300px" viewBox="0 0 600 300" x="0px" y="0px" enable-background="new 0 0 600 300"><defs><symbol overflow="visible" id="ffa24000a"><path d="M20.31 0h7.05v-47.52h18.33v-6.25H2.08v6.25H20.3zm0 0"/></symbol><symbol overflow="visible" id="ffa24000b"><path d="M23.05.95c12.3 0 19.67-7.51 19.67-20 0-12.54-7.36-20.07-19.67-20.07-12.25 0-19.61 7.53-19.61 20.07 0 12.49 7.36 20 19.6 20zm0-6c-7.93 0-12.74-5.26-12.74-14 0-8.8 4.81-14 12.74-14 8 0 12.72 5.2 12.72 14 0 8.74-4.72 14-12.72 14zm0 0"/></symbol><symbol overflow="visible" id="ffa24000c"><path d="M22.31.95c3.2 0 6.1-.64 8.64-1.9L29.2-6.41a15.04 15.04 0 01-5.92 1.36c-4.4 0-6.87-2.54-6.87-6.95v-20.23h12.64v-5.93H16.4v-12.32L9.69-48.8v10.64H2.08v5.93h7.6v20.54C9.69-3.59 14.24.95 22.32.95zm0 0"/></symbol><symbol overflow="visible" id="ffa24000d"><path d="M16.95.95c5.2 0 9.36-1.82 12.33-5.43L30 0h5.36v-23.92c0-9.85-5.44-15.2-15.67-15.2-5.61 0-10.57 1.43-14.82 4.32l3.54 4.72a19.85 19.85 0 0110.95-3.28c6.16 0 9.44 3.13 9.44 9.13v3.18a23.38 23.38 0 00-9.93-2.07c-9.92 0-15.92 4.4-15.92 12.07 0 7.28 5.61 12 14 12zM9.7-11.28c0-4.56 3.9-7.2 10.23-7.2 3.28 0 6.24.8 8.88 2.4v6.56C26.48-6 22.95-4.08 18.48-4.08c-5.2 0-8.8-2.72-8.8-7.2zm0 0"/></symbol><symbol overflow="visible" id="ffa24000e"><path d="M5.84 0h6.72v-56.56l-6.72 1.69zm0 0"/></symbol><symbol overflow="visible" id="ffa24000f"><path d="M10.16-30.48c2.71 0 4.32-1.6 4.32-4.32s-1.6-4.33-4.32-4.33-4.32 1.61-4.32 4.33c0 2.72 1.6 4.32 4.32 4.32zm0 31.43c2.71 0 4.32-1.6 4.32-4.3 0-2.73-1.6-4.34-4.32-4.34S5.84-6.08 5.84-3.36c0 2.72 1.6 4.31 4.32 4.31zm0 0"/></symbol><symbol overflow="visible" id="ffa24000h"><path d="M23.05.95c12.3 0 19.67-5.6 19.67-15.1 0-7.05-4-11.37-11.2-13.44 6.25-2 9.76-6.33 9.76-12.64 0-9.05-6.87-14.49-18.23-14.49-11.28 0-18.18 5.44-18.18 14.49 0 6.3 3.54 10.64 9.77 12.64-7.2 2.07-11.2 6.39-11.2 13.43C3.44-4.64 10.8.95 23.04.95zm0-31.18c-8.33-1.29-11.46-4.33-11.46-9.61 0-5.75 4.33-9.2 11.46-9.2 7.18 0 11.51 3.45 11.51 9.2 0 5.28-3.12 8.32-11.51 9.6zm0 25.51c-8 0-12.74-3.6-12.74-9.76 0-6.08 3.61-8.8 12.74-10.47 9.18 1.67 12.72 4.39 12.72 10.47 0 6.17-4.65 9.76-12.72 9.76zm0 0"/></symbol><symbol overflow="visible" id="ffa24000i"><path d="M18.23.95c11.2 0 18.72-6.87 18.72-17.18 0-10.72-6.87-16.82-18.95-16.82h-6.23v-14.72h23.28v-6H5.35v26.41h11.3c8.55 0 13.35 4 13.35 11.13C30-9.6 25.28-5.28 17.92-5.28c-5.51 0-9.6-2.31-12.8-6L.57-6.72C4.8-1.59 10.72.95 18.23.95zm0 0"/></symbol><symbol overflow="visible" id="ffa24000j"><path d="M16.64 0h6.72v-53.77h-5.67L2-45.92l2.8 5.69 11.84-5.93zm0 0"/></symbol><symbol overflow="visible" id="ffa24000k"><path d="M24.48.95c10.96 0 18.24-7.36 18.24-18.23 0-10.88-6.31-17.36-16.88-17.36-6.48 0-11.28 2.16-14.56 6.48.88-13.2 5.44-20.56 15.52-20.56 4.4 0 7.84 1.6 10.8 4.16l3.68-4.88c-3.84-3.51-8.72-5.28-14.87-5.28-14.1 0-22 10.8-22 29.77C4.4-8.15 11.5.95 24.48.95zm.16-29.9c7.13 0 11.36 4.39 11.36 11.67 0 7.36-4.64 12.23-11.69 12.23-8.08 0-12.62-6.39-13.1-16.39 2.87-5.04 7.35-7.51 13.43-7.51zm0 0"/></symbol><symbol overflow="visible" id="ffa24000l"><path d="M3.83 0v-5.95H6.2v-.82H.45v.82h2.4V0zm0 0"/></symbol><symbol overflow="visible" id="ffa24000m"><path d="M5.75-2.23v-.43c0-1.6-.9-2.51-2.42-2.51S.87-4.16.87-2.48c0 1.71.91 2.62 2.5 2.62 1.43 0 2.07-.56 2.29-1.52l-.9-.09c-.18.61-.59.9-1.35.9-.94 0-1.52-.54-1.58-1.66zm-2.4-2.2c.93 0 1.43.5 1.48 1.55H1.84c.08-1.07.6-1.56 1.5-1.56zm0 0"/></symbol><symbol overflow="visible" id="ffa24000n"><path d="M1.83 0l1.42-2h.06l1.46 2H5.8L4-2.53l1.78-2.49H4.8L3.42-3.08h-.08l-1.4-1.94H.89l1.78 2.49L.84 0zm0 0"/></symbol><symbol overflow="visible" id="ffa24000o"><path d="M5.52-4.25v-.77H3.17v-1.56h-.81l-.14 1.56H.75v.77h1.47v2.4c0 1.3.48 1.94 1.84 1.94C4.6.1 5.14 0 5.55-.14L5.4-.91c-.32.13-.72.2-1.13.2-.8 0-1.1-.37-1.1-1.23v-2.31zm0 0"/></symbol><symbol overflow="visible" id="ffa24000p"><path d="M3.33-3.42c.47 0 .8-.27.8-.8 0-.51-.33-.8-.8-.8-.47 0-.8.29-.8.8 0 .53.33.8.8.8zm0 3.5c.47 0 .8-.27.8-.78 0-.53-.33-.82-.8-.82-.47 0-.8.29-.8.82 0 .51.33.78.8.78zm0 0"/></symbol><symbol overflow="visible" id="ffa24000r"><path d="M3.33.14c1.62 0 2.5-.95 2.5-2.66 0-1.68-.88-2.64-2.5-2.64-1.63 0-2.5.96-2.5 2.64 0 1.7.87 2.66 2.5 2.66zm0-.77c-1.06 0-1.52-.6-1.52-1.89 0-1.28.46-1.87 1.52-1.87 1.08 0 1.53.6 1.53 1.87 0 1.29-.45 1.9-1.53 1.9zm0 0"/></symbol><symbol overflow="visible" id="ffa24000s"><path d="M2.83.14c.94 0 1.5-.39 1.81-.95h.08l.1.81h.76v-3.38c0-1.23-.69-1.8-2.13-1.8-1.43 0-2.03.65-2.18 1.6l.93.1c.11-.6.44-.93 1.22-.93.85 0 1.22.32 1.22 1.04v.34l-1.81.2C1.6-2.7 1.1-2.17 1.1-1.28c0 .92.64 1.42 1.72 1.42zm.25-.77c-.67 0-1.02-.28-1.02-.74 0-.44.28-.72 1-.82l1.58-.19v.41c0 .8-.6 1.34-1.56 1.34zm0 0"/></symbol><symbol overflow="visible" id="ffa24000t"><path d="M3.92-7.14H1.36v.76h1.6v5.61H1.15V0H5.7v-.77H3.92zm0 0"/></symbol><symbol overflow="visible" id="ffa24000u"><path d="M3.33.16c1.69 0 2.69-.74 2.69-1.94 0-1.05-.8-1.58-1.43-1.72v-.05c.5-.14 1.2-.58 1.2-1.56 0-1.12-.95-1.81-2.46-1.81-1.52 0-2.46.69-2.46 1.81 0 .97.68 1.4 1.18 1.56v.05c-.6.14-1.4.64-1.4 1.72 0 1.2 1 1.94 2.68 1.94zm0-4.04c-.97 0-1.49-.43-1.49-1.12 0-.78.52-1.1 1.49-1.1.95 0 1.48.32 1.48 1.1 0 .69-.53 1.13-1.48 1.13zm0 3.24c-1.1 0-1.7-.42-1.7-1.25 0-.78.6-1.2 1.7-1.2s1.7.42 1.7 1.2c0 .83-.6 1.25-1.7 1.25zm0 0"/></symbol><symbol overflow="visible" id="ffa24000v"><path d="M3.42.14c1.55 0 2.44-.84 2.44-2.33 0-1.45-.83-2.22-2.14-2.22-.75 0-1.28.27-1.67.72H2l.31-2.22h3.11v-.86H1.53l-.45 3.93h.81c.3-.36.9-.79 1.58-.79.92 0 1.44.43 1.44 1.47 0 .99-.54 1.5-1.49 1.5-.83 0-1.28-.32-1.5-1.01l-.95.1C1.07-.46 2 .13 3.42.13zm0 0"/></symbol><symbol overflow="visible" id="ffa24000w"><path d="M4.22-6.77h-.86l-2.03.7v.87c.64-.17 1.26-.38 1.89-.55v4.9H1.03V0h4.9v-.86H4.21zm0 0"/></symbol><symbol overflow="visible" id="ffa24000x"><path d="M3.42.14c1.58 0 2.49-.86 2.49-2.3 0-1.42-.86-2.17-2.22-2.17-1.03 0-1.58.5-1.9 1.02h-.04c.03-1.63.4-2.77 1.73-2.77.91 0 1.24.44 1.36.96l.97-.11c-.23-.96-.86-1.68-2.33-1.68C1.84-6.9.86-5.86.86-3.1.86-.9 1.78.14 3.42.14zm.02-.78c-.9 0-1.47-.55-1.47-1.47 0-.9.7-1.47 1.53-1.47.92 0 1.47.52 1.47 1.47 0 .97-.6 1.47-1.53 1.47zm0 0"/></symbol><symbol overflow="visible" id="ffa24000y"><path d="M5.95-6.77H1.1V0h.99v-2.92H5.3v-.77H2.08v-2.26h3.87zm0 0"/></symbol><symbol overflow="visible" id="ffa24000z"><path d="M2.73.14c.9 0 1.43-.45 1.74-1.08h.06l.13.94h.8v-5.02h-.94v2.7c0 .98-.57 1.62-1.46 1.62-.75 0-1.1-.4-1.1-1.22v-3.1h-.93v3.32c0 1.17.55 1.84 1.7 1.84zm0 0"/></symbol><symbol overflow="visible" id="ffa24000A"><path d="M5.08-5.16c-.94 0-1.58.43-1.9 1.3h-.09l-.07-1.16H1.05v.77h1.1v3.48H.96V0h3.96v-.77H3.1v-1.46c0-1.36.6-2.05 1.83-2.05.4 0 .76.08 1.1.17l.15-.87c-.33-.11-.7-.18-1.11-.18zm0 0"/></symbol><symbol overflow="visible" id="ffa24000B"><path d="M.92-6.77V0h.99v-2.27h1.68c1.58 0 2.38-.65 2.38-2.2v-.14c0-1.51-.8-2.16-2.34-2.16zM5-4.47c0 1.05-.42 1.45-1.58 1.45H1.91v-2.96h1.51C4.58-5.98 5-5.66 5-4.61zm0 0"/></symbol><symbol overflow="visible" id="ffa24000C"><path d="M2.06 1.9V-.84h.05c.28.58.8.97 1.77.97 1.5 0 2.2-.98 2.2-2.66 0-1.65-.7-2.64-2.19-2.64-.97 0-1.5.44-1.78 1.05h-.08l-.1-.9H1.1v6.9zm1.5-2.56c-1.06 0-1.53-.8-1.53-1.86 0-1.04.47-1.84 1.53-1.84 1.11 0 1.53.61 1.53 1.84 0 1.27-.42 1.86-1.53 1.86zm0 0"/></symbol><symbol overflow="visible" id="ffa24000D"><path d="M3.58-5.81c.42 0 .72-.22.72-.67 0-.44-.3-.68-.72-.68-.44 0-.72.24-.72.68 0 .45.28.67.72.67zm.5.8H1.52v.76h1.6v3.48h-1.8V0h4.46v-.77h-1.7zm0 0"/></symbol><symbol overflow="visible" id="ffa24000E"><path d="M2.16 0v-2.67c0-.99.59-1.63 1.46-1.63.74 0 1.07.38 1.07 1.22V0h.95v-3.31c0-1.2-.56-1.85-1.67-1.85-.92 0-1.49.46-1.77 1.08h-.06l-.12-.94H1.2V0zm0 0"/></symbol><symbol overflow="visible" id="ffa24000F"><path d="M1.63 0v-2.9c0-.8.15-1.4.71-1.4.41 0 .55.3.55.88V0h.95v-2.9c0-.8.18-1.4.72-1.4.4 0 .57.3.57.88V0h.95v-3.63c0-.92-.28-1.53-1.11-1.53-.63 0-.95.41-1.1.9h-.06c-.1-.52-.44-.9-1.08-.9-.6 0-.93.41-1.06.9H1.6l-.23-.76H.67V0zm0 0"/></symbol><symbol overflow="visible" id="ffa24000G"><path d="M3.36.16c1.4 0 2.2-.6 2.2-1.57 0-.89-.54-1.22-1.47-1.39L3-3c-.67-.14-.86-.33-.86-.73 0-.5.4-.74 1.17-.74.83 0 1.19.27 1.27.8l.9-.05c-.12-1-.8-1.47-2.17-1.47-1.34 0-2.1.53-2.1 1.5 0 .81.45 1.22 1.52 1.44l1.04.2c.56.11.87.24.87.72 0 .52-.45.78-1.28.78-.95 0-1.36-.28-1.42-.87l-.9.06C1.07-.36 1.8.16 3.35.16zm0 0"/></symbol><symbol overflow="visible" id="ffa24000H"><path d="M1.45-2.95c0 2.56 1.08 4.37 3.67 4.84l.11-.67C3.28.86 2.43-.75 2.43-2.95s.85-3.82 2.8-4.16l-.1-.69c-2.6.49-3.68 2.3-3.68 4.85zm0 0"/></symbol><symbol overflow="visible" id="ffa24000I"><path d="M1.45-7.1c1.96.33 2.8 1.94 2.8 4.15 0 2.2-.84 3.8-2.8 4.17l.11.67c2.58-.47 3.67-2.28 3.67-4.84 0-2.55-1.09-4.36-3.67-4.85zm0 0"/></symbol></defs><use xlink:href="#ffa24000a" x="108.68" y="159" fill="#515151"/><use xlink:href="#ffa24000b" x="147.4" y="159" fill="#515151"/><g fill="#515151"><use xlink:href="#ffa24000c" x="192.6" y="159"/><use xlink:href="#ffa24000d" x="225.96" y="159"/><use xlink:href="#ffa24000e" x="266.68" y="159"/><use xlink:href="#ffa24000f" x="285.08" y="159"/><use xlink:href="#ffa24000g" x="305.4" y="159"/></g><use xlink:href="#ffa24000h" x="324.6" y="159" fill="#fff"/><use xlink:href="#ffa24000i" x="372.2" y="159" fill="#fff"/><use xlink:href="#ffa24000j" x="414.04" y="159" fill="#fff"/><use xlink:href="#ffa24000k" x="445.16" y="159" fill="#fff"/><g fill="#fff"><use xlink:href="#ffa24000l" x="243.3333" y="252"/><use xlink:href="#ffa24000m" x="250.0003" y="252"/><use xlink:href="#ffa24000n" x="256.6673" y="252"/><use xlink:href="#ffa24000o" x="263.3343" y="252"/><use xlink:href="#ffa24000p" x="270.0013" y="252"/><use xlink:href="#ffa24000q" x="276.6683" y="252"/><use xlink:href="#ffa24000l" x="283.3353" y="252"/><use xlink:href="#ffa24000r" x="290.0023" y="252"/><use xlink:href="#ffa24000o" x="296.6693" y="252"/><use xlink:href="#ffa24000s" x="303.3363" y="252"/><use xlink:href="#ffa24000t" x="310.0033" y="252"/><use xlink:href="#ffa24000p" x="316.6703" y="252"/><use xlink:href="#ffa24000q" x="323.3373" y="252"/><use xlink:href="#ffa24000u" x="330.0043" y="252"/><use xlink:href="#ffa24000v" x="336.6713" y="252"/><use xlink:href="#ffa24000w" x="343.3383" y="252"/><use xlink:href="#ffa24000x" x="350.0053" y="252"/></g><g fill="#fff"><use xlink:href="#ffa24000y" x="176.6667" y="266"/><use xlink:href="#ffa24000m" x="183.3337" y="266"/><use xlink:href="#ffa24000s" x="190.0007" y="266"/><use xlink:href="#ffa24000o" x="196.6677" y="266"/><use xlink:href="#ffa24000z" x="203.3347" y="266"/><use xlink:href="#ffa24000A" x="210.0017" y="266"/><use xlink:href="#ffa24000m" x="216.6687" y="266"/><use xlink:href="#ffa24000p" x="223.3357" y="266"/><use xlink:href="#ffa24000q" x="230.0027" y="266"/><use xlink:href="#ffa24000B" x="236.6697" y="266"/><use xlink:href="#ffa24000A" x="243.3367" y="266"/><use xlink:href="#ffa24000r" x="250.0037" y="266"/><use xlink:href="#ffa24000C" x="256.6707" y="266"/><use xlink:href="#ffa24000r" x="263.3377" y="266"/><use xlink:href="#ffa24000A" x="270.0047" y="266"/><use xlink:href="#ffa24000o" x="276.6717" y="266"/><use xlink:href="#ffa24000D" x="283.3387" y="266"/><use xlink:href="#ffa24000r" x="290.0057" y="266"/><use xlink:href="#ffa24000E" x="296.6727" y="266"/><use xlink:href="#ffa24000s" x="303.3397" y="266"/><use xlink:href="#ffa24000t" x="310.0067" y="266"/><use xlink:href="#ffa24000q" x="316.6737" y="266"/><use xlink:href="#ffa24000E" x="323.3407" y="266"/><use xlink:href="#ffa24000z" x="330.0077" y="266"/><use xlink:href="#ffa24000F" x="336.6747" y="266"/><use xlink:href="#ffa24000m" x="343.3417" y="266"/><use xlink:href="#ffa24000A" x="350.0087" y="266"/><use xlink:href="#ffa24000s" x="356.6757" y="266"/><use xlink:href="#ffa24000t" x="363.3427" y="266"/><use xlink:href="#ffa24000G" x="370.0097" y="266"/><use xlink:href="#ffa24000q" x="376.6767" y="266"/><use xlink:href="#ffa24000H" x="383.3437" y="266"/><use xlink:href="#ffa24000C" x="390.0107" y="266"/><use xlink:href="#ffa24000E" x="396.6777" y="266"/><use xlink:href="#ffa24000z" x="403.3447" y="266"/><use xlink:href="#ffa24000F" x="410.0117" y="266"/><use xlink:href="#ffa24000I" x="416.6787" y="266"/></g></svg>