<?xml version='1.0' encoding='UTF-8'?>
<svg xmlns="http://www.w3.org/2000/svg" xmlns:xlink="http://www.w3.org/1999/xlink" width="600px" height="300px" viewBox="0 0 600 300" x="0px" y="0px" enable-background="new 0 0 600 300"><defs><symbol overflow="visible" id="e6065d01a"><path d="M5.36 0h34.4v-6H15.45l15.04-14.8c6.4-6.07 9.29-11.76 9.29-17.51 0-10.1-6.49-16.4-16.72-16.4-8.18 0-14.4 3.02-18.64 9.12l5.03 3.82c3.2-4.23 7.36-6.71 12.87-6.71 6.49 0 10.57 4 10.57 10.48 0 4.4-2.8 8.8-8.8 14.56L5.36-5.36zm0 0"/></symbol><symbol overflow="visible" id="e6065d01b"><path d="M21.13.95c11.18 0 18.64-6.87 18.64-17.18 0-10.72-6.82-16.82-18.9-16.82h-6.23v-14.72h23.2v-6H8.24v26.41h11.2c8.64 0 13.43 4 13.43 11.13 0 6.64-4.71 10.95-12.07 10.95-5.6 0-9.68-2.31-12.88-6L3.44-6.72C7.69-1.59 13.59.95 21.12.95zm0 0"/></symbol><symbol overflow="visible" id="e6065d01d"><path d="M13.13-22.4c7.03 0 11.74-4.08 11.74-10.16 0-4.96-2.8-8.64-8.95-9.6l8.16-7.6v-4h-20v4.4h13.36L9.2-41.52v3.36h2.49c5.26 0 7.9 1.93 7.9 5.68 0 3.35-2.54 5.6-6.71 5.6a9 9 0 01-7.2-3.2l-3.37 3.2c2.64 2.96 6.33 4.47 10.81 4.47zm0 0"/></symbol><symbol overflow="visible" id="e6065d01e"><path d="M-10.31 1.2l35.83-53.76-3.68-2.4L-14-1.2zm0 0"/></symbol><symbol overflow="visible" id="e6065d01f"><path d="M18 0h4.88v-6.48h3.92v-4.32h-3.93v-19.92h-4.71L2.08-10.8v4.32H18zM7.05-10.8L18-24.16v13.36zm0 0"/></symbol><symbol overflow="visible" id="e6065d01g"><path d="M14.23-23.05h5.13v-30.72h-4.48l-9.36 4.65 2.25 4.32 6.46-3.28zm0 0"/></symbol><symbol overflow="visible" id="e6065d01h"><path d="M3.44-23.05h21.43v-4.64H11.29l8-7.1c3.67-3.21 5.6-6.65 5.6-10.09 0-5.84-4.08-9.53-10.47-9.53-4.82 0-8.72 1.77-11.61 5.13l3.6 3.05c2-2.08 4.47-3.46 7.52-3.46 3.52 0 5.67 2 5.67 5.2 0 2.41-1.67 4.8-5.36 8l-10.8 9.44zm0 0"/></symbol><symbol overflow="visible" id="e6065d01i"><path d="M7.13 0h5.51l12.4-26.88v-3.84H3.14v4.64h16.3zm0 0"/></symbol><symbol overflow="visible" id="e6065d01j"><path d="M13.6-31.36c-6.8 0-11.37 4.23-11.37 10.72 0 6.33 3.77 10 10.41 10 3.44 0 6.16-1.05 8.08-3.13C20.08-6.95 17.2-3.59 12-3.59a9.93 9.93 0 01-6.23-2.33L3.05-2.56a13.5 13.5 0 009.1 3.2c8.8 0 13.77-6.23 13.77-17.28 0-9.36-4.4-14.72-12.33-14.72zM7.2-20.64c0-4 2.64-6.56 6.49-6.56 4.39 0 6.95 3.04 7.19 8.8-1.52 2.48-4.16 3.84-7.44 3.84-3.92 0-6.24-2.24-6.24-6.08zm0 0"/></symbol><symbol overflow="visible" id="e6065d01k"><path d="M13.13-22.4c7.03 0 11.74-4.08 11.74-10.16 0-6.24-4.15-9.67-11.51-9.67H9.84v-7.13h13.93v-4.4H5.2v15.6H12c5.05 0 7.6 1.93 7.6 5.68 0 3.35-2.55 5.6-6.73 5.6a9 9 0 01-7.18-3.2l-3.38 3.2c2.64 2.96 6.33 4.47 10.81 4.47zm0 0"/></symbol><symbol overflow="visible" id="e6065d01l"><path d="M3.83 0v-5.95H6.2v-.82H.45v.82h2.4V0zm0 0"/></symbol><symbol overflow="visible" id="e6065d01m"><path d="M5.75-2.23v-.43c0-1.6-.9-2.51-2.42-2.51S.87-4.16.87-2.48c0 1.71.91 2.62 2.5 2.62 1.43 0 2.07-.56 2.29-1.52l-.9-.09c-.18.61-.59.9-1.35.9-.94 0-1.52-.54-1.58-1.66zm-2.4-2.2c.93 0 1.43.5 1.48 1.55H1.84c.08-1.07.6-1.56 1.5-1.56zm0 0"/></symbol><symbol overflow="visible" id="e6065d01n"><path d="M1.83 0l1.42-2h.06l1.46 2H5.8L4-2.53l1.78-2.49H4.8L3.42-3.08h-.08l-1.4-1.94H.89l1.78 2.49L.84 0zm0 0"/></symbol><symbol overflow="visible" id="e6065d01o"><path d="M5.52-4.25v-.77H3.17v-1.56h-.81l-.14 1.56H.75v.77h1.47v2.4c0 1.3.48 1.94 1.84 1.94C4.6.1 5.14 0 5.55-.14L5.4-.91c-.32.13-.72.2-1.13.2-.8 0-1.1-.37-1.1-1.23v-2.31zm0 0"/></symbol><symbol overflow="visible" id="e6065d01p"><path d="M3.33-3.42c.47 0 .8-.27.8-.8 0-.51-.33-.8-.8-.8-.47 0-.8.29-.8.8 0 .53.33.8.8.8zm0 3.5c.47 0 .8-.27.8-.78 0-.53-.33-.82-.8-.82-.47 0-.8.29-.8.82 0 .51.33.78.8.78zm0 0"/></symbol><symbol overflow="visible" id="e6065d01r"><path d="M5.67 0v-.86H2.14V-.9L3.6-2c1.05-.83 2-1.68 2-2.91 0-1.19-.73-1.99-2.26-1.99-1.66 0-2.3 1.02-2.44 2.33l1 .08c.1-.92.42-1.58 1.44-1.58.87 0 1.26.44 1.26 1.24 0 .9-.8 1.53-1.96 2.53L.83-.81V0zm0 0"/></symbol><symbol overflow="visible" id="e6065d01s"><path d="M3.42.14c1.55 0 2.44-.84 2.44-2.33 0-1.45-.83-2.22-2.14-2.22-.75 0-1.28.27-1.67.72H2l.31-2.22h3.11v-.86H1.53l-.45 3.93h.81c.3-.36.9-.79 1.58-.79.92 0 1.44.43 1.44 1.47 0 .99-.54 1.5-1.49 1.5-.83 0-1.28-.32-1.5-1.01l-.95.1C1.07-.46 2 .13 3.42.13zm0 0"/></symbol><symbol overflow="visible" id="e6065d01t"><path d="M3.25.14c1.58 0 2.53-.69 2.53-1.95 0-1.19-.92-1.56-1.6-1.61v-.05A1.6 1.6 0 005.6-5.12c0-1.13-.87-1.79-2.3-1.79-1.62 0-2.32.82-2.45 1.88l.97.06c.13-.69.52-1.1 1.47-1.1.86 0 1.35.32 1.35 1.05 0 .86-.6 1.2-1.66 1.2h-.49v.79h.54c1.12 0 1.78.25 1.78 1.14 0 .78-.46 1.22-1.55 1.22-1.06 0-1.48-.4-1.63-1.1l-.98.07C.75-.56 1.56.14 3.25.14zm0 0"/></symbol><symbol overflow="visible" id="e6065d01u"><path d="M2.58.95l2.39-8.67h-.9L1.7.95zm0 0"/></symbol><symbol overflow="visible" id="e6065d01v"><path d="M5.1 0v-1.47H6v-.81h-.9v-4.49H3.8L.48-2.23v.76h3.66V0zM1.5-2.33l2.6-3.53h.04v3.58H1.5zm0 0"/></symbol><symbol overflow="visible" id="e6065d01w"><path d="M4.22-6.77h-.86l-2.03.7v.87c.64-.17 1.26-.38 1.89-.55v4.9H1.03V0h4.9v-.86H4.21zm0 0"/></symbol><symbol overflow="visible" id="e6065d01x"><path d="M.92-4.42h.88v-1.49h3.1v.05L2.27 0H3.3l2.64-6v-.77H.92zm0 0"/></symbol><symbol overflow="visible" id="e6065d01y"><path d="M3.25-6.9C1.67-6.9.77-6.04.77-4.6c0 1.41.85 2.18 2.21 2.18 1.04 0 1.58-.52 1.88-1.03h.06c0 1.54-.39 2.78-1.73 2.78-.9 0-1.24-.44-1.36-.97l-.97.1c.22.96.86 1.68 2.33 1.68C4.83.14 5.8-.9 5.8-3.64c0-2.22-.92-3.27-2.56-3.27zm-.02.8c.91 0 1.46.52 1.46 1.44 0 .91-.69 1.47-1.53 1.47-.91 0-1.46-.51-1.46-1.47S2.3-6.1 3.23-6.1zm0 0"/></symbol><symbol overflow="visible" id="e6065d01z"><path d="M5.95-6.77H1.1V0h.99v-2.92H5.3v-.77H2.08v-2.26h3.87zm0 0"/></symbol><symbol overflow="visible" id="e6065d01A"><path d="M2.83.14c.94 0 1.5-.39 1.81-.95h.08l.1.81h.76v-3.38c0-1.23-.69-1.8-2.13-1.8-1.43 0-2.03.65-2.18 1.6l.93.1c.11-.6.44-.93 1.22-.93.85 0 1.22.32 1.22 1.04v.34l-1.81.2C1.6-2.7 1.1-2.17 1.1-1.28c0 .92.64 1.42 1.72 1.42zm.25-.77c-.67 0-1.02-.28-1.02-.74 0-.44.28-.72 1-.82l1.58-.19v.41c0 .8-.6 1.34-1.56 1.34zm0 0"/></symbol><symbol overflow="visible" id="e6065d01B"><path d="M2.73.14c.9 0 1.43-.45 1.74-1.08h.06l.13.94h.8v-5.02h-.94v2.7c0 .98-.57 1.62-1.46 1.62-.75 0-1.1-.4-1.1-1.22v-3.1h-.93v3.32c0 1.17.55 1.84 1.7 1.84zm0 0"/></symbol><symbol overflow="visible" id="e6065d01C"><path d="M5.08-5.16c-.94 0-1.58.43-1.9 1.3h-.09l-.07-1.16H1.05v.77h1.1v3.48H.96V0h3.96v-.77H3.1v-1.46c0-1.36.6-2.05 1.83-2.05.4 0 .76.08 1.1.17l.15-.87c-.33-.11-.7-.18-1.11-.18zm0 0"/></symbol><symbol overflow="visible" id="e6065d01D"><path d="M3.34.14c1.43 0 2.13-.66 2.25-1.78l-.89-.1c-.1.7-.5 1.08-1.34 1.08-1.03 0-1.52-.64-1.52-1.84 0-1.23.47-1.86 1.52-1.86.84 0 1.23.36 1.34 1.08l.9-.1c-.13-1.09-.82-1.78-2.26-1.78-1.56 0-2.46.97-2.46 2.66 0 1.66.9 2.64 2.46 2.64zm0 0"/></symbol><symbol overflow="visible" id="e6065d01E"><path d="M3.58-5.81c.42 0 .72-.22.72-.67 0-.44-.3-.68-.72-.68-.44 0-.72.24-.72.68 0 .45.28.67.72.67zm.5.8H1.52v.76h1.6v3.48h-1.8V0h4.46v-.77h-1.7zm0 0"/></symbol><symbol overflow="visible" id="e6065d01F"><path d="M3.33.14c1.62 0 2.5-.95 2.5-2.66 0-1.68-.88-2.64-2.5-2.64-1.63 0-2.5.96-2.5 2.64 0 1.7.87 2.66 2.5 2.66zm0-.77c-1.06 0-1.52-.6-1.52-1.89 0-1.28.46-1.87 1.52-1.87 1.08 0 1.53.6 1.53 1.87 0 1.29-.45 1.9-1.53 1.9zm0 0"/></symbol><symbol overflow="visible" id="e6065d01G"><path d="M2.16 0v-2.67c0-.99.59-1.63 1.46-1.63.74 0 1.07.38 1.07 1.22V0h.95v-3.31c0-1.2-.56-1.85-1.67-1.85-.92 0-1.49.46-1.77 1.08h-.06l-.12-.94H1.2V0zm0 0"/></symbol><symbol overflow="visible" id="e6065d01H"><path d="M3.36.16c1.4 0 2.2-.6 2.2-1.57 0-.89-.54-1.22-1.47-1.39L3-3c-.67-.14-.86-.33-.86-.73 0-.5.4-.74 1.17-.74.83 0 1.19.27 1.27.8l.9-.05c-.12-1-.8-1.47-2.17-1.47-1.34 0-2.1.53-2.1 1.5 0 .81.45 1.22 1.52 1.44l1.04.2c.56.11.87.24.87.72 0 .52-.45.78-1.28.78-.95 0-1.36-.28-1.42-.87l-.9.06C1.07-.36 1.8.16 3.35.16zm0 0"/></symbol><symbol overflow="visible" id="e6065d01I"><path d="M1.45-2.95c0 2.56 1.08 4.37 3.67 4.84l.11-.67C3.28.86 2.43-.75 2.43-2.95s.85-3.82 2.8-4.16l-.1-.69c-2.6.49-3.68 2.3-3.68 4.85zm0 0"/></symbol><symbol overflow="visible" id="e6065d01J"><path d="M4.63-6.5c.45 0 .98.08 1.39.2l.2-.72a5.3 5.3 0 00-1.64-.26c-1.52 0-2.16.56-2.16 1.87v.4H.9v.76h1.53V0h.94v-4.25h2.53v-.77H3.36v-.3c0-.84.33-1.18 1.27-1.18zm0 0"/></symbol><symbol overflow="visible" id="e6065d01K"><path d="M1.45-7.1c1.96.33 2.8 1.94 2.8 4.15 0 2.2-.84 3.8-2.8 4.17l.11.67c2.58-.47 3.67-2.28 3.67-4.84 0-2.55-1.09-4.36-3.67-4.85zm0 0"/></symbol></defs><g fill="#515151"><use xlink:href="#e6065d01a" x="92.64" y="159"/><use xlink:href="#e6065d01b" x="138.72" y="159"/><use xlink:href="#e6065d01c" x="184.8" y="159"/></g><use xlink:href="#e6065d01d" x="204" y="159" fill="#fff"/><use xlink:href="#e6065d01e" x="232.8" y="159" fill="#fff"/><use xlink:href="#e6065d01f" x="244.32" y="159" fill="#fff"/><use xlink:href="#e6065d01g" x="292.32" y="159" fill="#fff"/><use xlink:href="#e6065d01h" x="321.12" y="159" fill="#fff"/><use xlink:href="#e6065d01e" x="349.92" y="159" fill="#fff"/><use xlink:href="#e6065d01i" x="361.44" y="159" fill="#fff"/><use xlink:href="#e6065d01j" x="390.24" y="159" fill="#fff"/><use xlink:href="#e6065d01k" x="438.24" y="159" fill="#fff"/><use xlink:href="#e6065d01e" x="467.04" y="159" fill="#fff"/><use xlink:href="#e6065d01j" x="478.56" y="159" fill="#fff"/><g fill="#fff"><use xlink:href="#e6065d01l" x="226.6667" y="252"/><use xlink:href="#e6065d01m" x="233.3337" y="252"/><use xlink:href="#e6065d01n" x="240.0007" y="252"/><use xlink:href="#e6065d01o" x="246.6677" y="252"/><use xlink:href="#e6065d01p" x="253.3347" y="252"/><use xlink:href="#e6065d01q" x="260.0017" y="252"/><use xlink:href="#e6065d01r" x="266.6687" y="252"/><use xlink:href="#e6065d01s" x="273.3357" y="252"/><use xlink:href="#e6065d01q" x="280.0027" y="252"/><use xlink:href="#e6065d01t" x="286.6697" y="252"/><use xlink:href="#e6065d01u" x="293.3367" y="252"/><use xlink:href="#e6065d01v" x="300.0037" y="252"/><use xlink:href="#e6065d01q" x="306.6707" y="252"/><use xlink:href="#e6065d01w" x="313.3377" y="252"/><use xlink:href="#e6065d01r" x="320.0047" y="252"/><use xlink:href="#e6065d01u" x="326.6717" y="252"/><use xlink:href="#e6065d01x" x="333.3387" y="252"/><use xlink:href="#e6065d01y" x="340.0057" y="252"/><use xlink:href="#e6065d01q" x="346.6727" y="252"/><use xlink:href="#e6065d01s" x="353.3397" y="252"/><use xlink:href="#e6065d01u" x="360.0067" y="252"/><use xlink:href="#e6065d01y" x="366.6737" y="252"/></g><g fill="#fff"><use xlink:href="#e6065d01z" x="216.6667" y="266"/><use xlink:href="#e6065d01m" x="223.3337" y="266"/><use xlink:href="#e6065d01A" x="230.0007" y="266"/><use xlink:href="#e6065d01o" x="236.6677" y="266"/><use xlink:href="#e6065d01B" x="243.3347" y="266"/><use xlink:href="#e6065d01C" x="250.0017" y="266"/><use xlink:href="#e6065d01m" x="256.6687" y="266"/><use xlink:href="#e6065d01p" x="263.3357" y="266"/><use xlink:href="#e6065d01q" x="270.0027" y="266"/><use xlink:href="#e6065d01z" x="276.6697" y="266"/><use xlink:href="#e6065d01C" x="283.3367" y="266"/><use xlink:href="#e6065d01A" x="290.0037" y="266"/><use xlink:href="#e6065d01D" x="296.6707" y="266"/><use xlink:href="#e6065d01o" x="303.3377" y="266"/><use xlink:href="#e6065d01E" x="310.0047" y="266"/><use xlink:href="#e6065d01F" x="316.6717" y="266"/><use xlink:href="#e6065d01G" x="323.3387" y="266"/><use xlink:href="#e6065d01H" x="330.0057" y="266"/><use xlink:href="#e6065d01q" x="336.6727" y="266"/><use xlink:href="#e6065d01I" x="343.3397" y="266"/><use xlink:href="#e6065d01J" x="350.0067" y="266"/><use xlink:href="#e6065d01C" x="356.6737" y="266"/><use xlink:href="#e6065d01A" x="363.3407" y="266"/><use xlink:href="#e6065d01D" x="370.0077" y="266"/><use xlink:href="#e6065d01K" x="376.6747" y="266"/></g></svg>