<?xml version='1.0' encoding='UTF-8'?>
<svg xmlns="http://www.w3.org/2000/svg" xmlns:xlink="http://www.w3.org/1999/xlink" width="600px" height="300px" viewBox="0 0 600 300" x="0px" y="0px" enable-background="new 0 0 600 300"><defs><symbol overflow="visible" id="37af3938a"><path d="M5.36 0h34.4v-6H15.45l15.04-14.8c6.4-6.07 9.29-11.76 9.29-17.51 0-10.1-6.49-16.4-16.72-16.4-8.18 0-14.4 3.02-18.64 9.12l5.03 3.82c3.2-4.23 7.36-6.71 12.87-6.71 6.49 0 10.57 4 10.57 10.48 0 4.4-2.8 8.8-8.8 14.56L5.36-5.36zm0 0"/></symbol><symbol overflow="visible" id="37af3938b"><path d="M11.28-30.23c3.2 0 5.77-.97 7.6-2.9l.4 2.26h4.08v-14.08c0-6.17-3.52-9.46-10.23-9.46-3.61 0-6.82.97-9.61 2.72l2.56 3.2a13.14 13.14 0 016.8-1.92c3.76 0 5.68 1.77 5.68 5.2v1.52a15.72 15.72 0 00-6.15-1.19c-6.49 0-10.18 2.65-10.18 7.29 0 4.54 3.54 7.36 9.05 7.36zM7.13-37.7c0-2.54 2.07-3.9 6.15-3.9 1.85 0 3.67.39 5.28 1.28v3.83c-1.28 1.68-3.43 2.71-6.08 2.71-3.36 0-5.36-1.51-5.36-3.92zm-4 16.64h20.8v-4.3H3.12zm0 0"/></symbol><symbol overflow="visible" id="37af3938d"><path d="M1.52-23.05h5.53l3.26-7.67h14.74l3.26 7.67h5.53L20.31-53.77h-5.26zm16.17-24.72l5.51 12.72H12.16zM2.16-13.2H33.2v-4.32H2.16zm0 0"/></symbol><symbol overflow="visible" id="37af3938e"><path d="M2.64 0h29.2v-5.69H12.41L24.16-16.3c4.96-4.33 7.68-8.97 7.68-13.61 0-8-5.43-13.03-14.15-13.03-6.82 0-12.1 2.39-16 7.18l4.72 3.93c2.8-3.29 6.3-5.2 10.54-5.2 5.05 0 8.18 2.96 8.18 7.68 0 3.44-2.25 6.4-7.2 10.72L2.63-5.04zm0 0"/></symbol><symbol overflow="visible" id="37af3938f"><path d="M1.52-15.13h5.53l3.26-7.59h14.74l3.26 7.6h5.53L20.31-45.84h-5.26zm16.17-24.71l5.51 12.8H12.16zM2.16-5.28H33.2V-9.6H2.16zm0 0"/></symbol><symbol overflow="visible" id="37af3938g"><path d="M3.83 0v-5.95H6.2v-.82H.45v.82h2.4V0zm0 0"/></symbol><symbol overflow="visible" id="37af3938h"><path d="M5.75-2.23v-.43c0-1.6-.9-2.51-2.42-2.51S.87-4.16.87-2.48c0 1.71.91 2.62 2.5 2.62 1.43 0 2.07-.56 2.29-1.52l-.9-.09c-.18.61-.59.9-1.35.9-.94 0-1.52-.54-1.58-1.66zm-2.4-2.2c.93 0 1.43.5 1.48 1.55H1.84c.08-1.07.6-1.56 1.5-1.56zm0 0"/></symbol><symbol overflow="visible" id="37af3938i"><path d="M1.83 0l1.42-2h.06l1.46 2H5.8L4-2.53l1.78-2.49H4.8L3.42-3.08h-.08l-1.4-1.94H.89l1.78 2.49L.84 0zm0 0"/></symbol><symbol overflow="visible" id="37af3938j"><path d="M5.52-4.25v-.77H3.17v-1.56h-.81l-.14 1.56H.75v.77h1.47v2.4c0 1.3.48 1.94 1.84 1.94C4.6.1 5.14 0 5.55-.14L5.4-.91c-.32.13-.72.2-1.13.2-.8 0-1.1-.37-1.1-1.23v-2.31zm0 0"/></symbol><symbol overflow="visible" id="37af3938k"><path d="M3.33-3.42c.47 0 .8-.27.8-.8 0-.51-.33-.8-.8-.8-.47 0-.8.29-.8.8 0 .53.33.8.8.8zm0 3.5c.47 0 .8-.27.8-.78 0-.53-.33-.82-.8-.82-.47 0-.8.29-.8.82 0 .51.33.78.8.78zm0 0"/></symbol><symbol overflow="visible" id="37af3938m"><path d="M5.67 0v-.86H2.14V-.9L3.6-2c1.05-.83 2-1.68 2-2.91 0-1.19-.73-1.99-2.26-1.99-1.66 0-2.3 1.02-2.44 2.33l1 .08c.1-.92.42-1.58 1.44-1.58.87 0 1.26.44 1.26 1.24 0 .9-.8 1.53-1.96 2.53L.83-.81V0zm0 0"/></symbol><symbol overflow="visible" id="37af3938n"><path d="M2.97-3.19c.67 0 1.06-.3 1.2-.62h.05l.06.51h.61v-2.26c0-.85-.44-1.32-1.44-1.32-1.01 0-1.4.44-1.51 1.11l.75.08c.06-.37.22-.6.75-.6.54 0 .72.27.72.73v.17l-1.14.16c-.86.1-1.25.4-1.25 1.03 0 .65.43 1.01 1.2 1.01zm.2-.54c-.42 0-.62-.2-.62-.5 0-.32.2-.46.64-.54l.97-.15v.31c0 .5-.38.88-.99.88zm0 0"/></symbol><symbol overflow="visible" id="37af3938o"><path d="M5.95-6.77H1.1V0h.99v-2.92H5.3v-.77H2.08v-2.26h3.87zm0 0"/></symbol><symbol overflow="visible" id="37af3938p"><path d="M2.83.14c.94 0 1.5-.39 1.81-.95h.08l.1.81h.76v-3.38c0-1.23-.69-1.8-2.13-1.8-1.43 0-2.03.65-2.18 1.6l.93.1c.11-.6.44-.93 1.22-.93.85 0 1.22.32 1.22 1.04v.34l-1.81.2C1.6-2.7 1.1-2.17 1.1-1.28c0 .92.64 1.42 1.72 1.42zm.25-.77c-.67 0-1.02-.28-1.02-.74 0-.44.28-.72 1-.82l1.58-.19v.41c0 .8-.6 1.34-1.56 1.34zm0 0"/></symbol><symbol overflow="visible" id="37af3938q"><path d="M2.73.14c.9 0 1.43-.45 1.74-1.08h.06l.13.94h.8v-5.02h-.94v2.7c0 .98-.57 1.62-1.46 1.62-.75 0-1.1-.4-1.1-1.22v-3.1h-.93v3.32c0 1.17.55 1.84 1.7 1.84zm0 0"/></symbol><symbol overflow="visible" id="37af3938r"><path d="M5.08-5.16c-.94 0-1.58.43-1.9 1.3h-.09l-.07-1.16H1.05v.77h1.1v3.48H.96V0h3.96v-.77H3.1v-1.46c0-1.36.6-2.05 1.83-2.05.4 0 .76.08 1.1.17l.15-.87c-.33-.11-.7-.18-1.11-.18zm0 0"/></symbol><symbol overflow="visible" id="37af3938s"><path d="M4.66-3.45c.76-.14 1.15-.67 1.15-1.57 0-1.07-.64-1.75-2.18-1.75H.92V0h2.71C5.2 0 5.98-.64 5.98-1.77c0-1.03-.56-1.43-1.32-1.59zM3.56-6c.9 0 1.31.4 1.31 1.13 0 .71-.4 1.14-1.3 1.14h-1.7V-6zM1.87-.75v-2.27H3.6c.97 0 1.44.33 1.44 1.13 0 .8-.47 1.14-1.44 1.14zm0 0"/></symbol><symbol overflow="visible" id="37af3938t"><path d="M3.36.16c1.4 0 2.2-.6 2.2-1.57 0-.89-.54-1.22-1.47-1.39L3-3c-.67-.14-.86-.33-.86-.73 0-.5.4-.74 1.17-.74.83 0 1.19.27 1.27.8l.9-.05c-.12-1-.8-1.47-2.17-1.47-1.34 0-2.1.53-2.1 1.5 0 .81.45 1.22 1.52 1.44l1.04.2c.56.11.87.24.87.72 0 .52-.45.78-1.28.78-.95 0-1.36-.28-1.42-.87l-.9.06C1.07-.36 1.8.16 3.35.16zm0 0"/></symbol><symbol overflow="visible" id="37af3938u"><path d="M3.58-5.81c.42 0 .72-.22.72-.67 0-.44-.3-.68-.72-.68-.44 0-.72.24-.72.68 0 .45.28.67.72.67zm.5.8H1.52v.76h1.6v3.48h-1.8V0h4.46v-.77h-1.7zm0 0"/></symbol><symbol overflow="visible" id="37af3938v"><path d="M3.34.14c1.43 0 2.13-.66 2.25-1.78l-.89-.1c-.1.7-.5 1.08-1.34 1.08-1.03 0-1.52-.64-1.52-1.84 0-1.23.47-1.86 1.52-1.86.84 0 1.23.36 1.34 1.08l.9-.1c-.13-1.09-.82-1.78-2.26-1.78-1.56 0-2.46.97-2.46 2.66 0 1.66.9 2.64 2.46 2.64zm0 0"/></symbol><symbol overflow="visible" id="37af3938w"><path d="M3.33.14c1.62 0 2.5-.95 2.5-2.66 0-1.68-.88-2.64-2.5-2.64-1.63 0-2.5.96-2.5 2.64 0 1.7.87 2.66 2.5 2.66zm0-.77c-1.06 0-1.52-.6-1.52-1.89 0-1.28.46-1.87 1.52-1.87 1.08 0 1.53.6 1.53 1.87 0 1.29-.45 1.9-1.53 1.9zm0 0"/></symbol><symbol overflow="visible" id="37af3938x"><path d="M2.84.14C3.8.14 4.33-.26 4.6-.9h.07L4.8 0h.76v-7.14h-.95v2.95h-.08c-.28-.6-.86-.97-1.67-.97-1.48 0-2.27.99-2.27 2.64C.6-.84 1.36.14 2.84.14zm.22-.8c-.98 0-1.48-.59-1.48-1.84s.5-1.86 1.48-1.86c1.13 0 1.58.8 1.58 1.86S4.2-.66 3.06-.66zm0 0"/></symbol><symbol overflow="visible" id="37af3938y"><path d="M2.16 0v-2.67c0-.99.59-1.63 1.46-1.63.74 0 1.07.38 1.07 1.22V0h.95v-3.31c0-1.2-.56-1.85-1.67-1.85-.92 0-1.49.46-1.77 1.08h-.06l-.12-.94H1.2V0zm0 0"/></symbol><symbol overflow="visible" id="37af3938z"><path d="M3.92-7.14H1.36v.76h1.6v5.61H1.15V0H5.7v-.77H3.92zm0 0"/></symbol></defs><use xlink:href="#37af3938a" x="167.48" y="159" fill="#515151"/><use xlink:href="#37af3938b" x="213.56" y="159" fill="#fff"/><g fill="#515151"><use xlink:href="#37af3938c" x="240.6" y="159"/><use xlink:href="#37af3938a" x="259.8" y="159"/></g><use xlink:href="#37af3938d" x="305.88" y="159" fill="#fff"/><use xlink:href="#37af3938e" x="360.44" y="159" fill="#515151"/><use xlink:href="#37af3938f" x="397.16" y="159" fill="#fff"/><g fill="#fff"><use xlink:href="#37af3938g" x="253.3333" y="252"/><use xlink:href="#37af3938h" x="260.0003" y="252"/><use xlink:href="#37af3938i" x="266.6673" y="252"/><use xlink:href="#37af3938j" x="273.3343" y="252"/><use xlink:href="#37af3938k" x="280.0013" y="252"/><use xlink:href="#37af3938l" x="286.6683" y="252"/><use xlink:href="#37af3938m" x="293.3353" y="252"/><use xlink:href="#37af3938n" x="300.0023" y="252"/><use xlink:href="#37af3938l" x="306.6693" y="252"/><use xlink:href="#37af3938m" x="313.3363" y="252"/><use xlink:href="#37af3938n" x="320.0033" y="252"/><use xlink:href="#37af3938l" x="326.6703" y="252"/><use xlink:href="#37af3938m" x="333.3373" y="252"/><use xlink:href="#37af3938n" x="340.0043" y="252"/></g><g fill="#fff"><use xlink:href="#37af3938o" x="223.3333" y="266"/><use xlink:href="#37af3938h" x="230.0003" y="266"/><use xlink:href="#37af3938p" x="236.6673" y="266"/><use xlink:href="#37af3938j" x="243.3343" y="266"/><use xlink:href="#37af3938q" x="250.0013" y="266"/><use xlink:href="#37af3938r" x="256.6683" y="266"/><use xlink:href="#37af3938h" x="263.3353" y="266"/><use xlink:href="#37af3938k" x="270.0023" y="266"/><use xlink:href="#37af3938l" x="276.6693" y="266"/><use xlink:href="#37af3938s" x="283.3363" y="266"/><use xlink:href="#37af3938p" x="290.0033" y="266"/><use xlink:href="#37af3938t" x="296.6703" y="266"/><use xlink:href="#37af3938u" x="303.3373" y="266"/><use xlink:href="#37af3938v" x="310.0043" y="266"/><use xlink:href="#37af3938l" x="316.6713" y="266"/><use xlink:href="#37af3938w" x="323.3383" y="266"/><use xlink:href="#37af3938r" x="330.0053" y="266"/><use xlink:href="#37af3938x" x="336.6723" y="266"/><use xlink:href="#37af3938u" x="343.3393" y="266"/><use xlink:href="#37af3938y" x="350.0063" y="266"/><use xlink:href="#37af3938p" x="356.6733" y="266"/><use xlink:href="#37af3938z" x="363.3403" y="266"/><use xlink:href="#37af3938t" x="370.0073" y="266"/></g></svg>