<?xml version='1.0' encoding='UTF-8'?>
<svg xmlns="http://www.w3.org/2000/svg" xmlns:xlink="http://www.w3.org/1999/xlink" width="2200px" height="1100px" viewBox="0 0 2200 1100" x="0px" y="0px" enable-background="new 0 0 2200 1100"><defs><symbol overflow="visible" id="28dcb20db"><path d="M6.844.438L20.125-19.47l-1.36-.89L5.486-.437zM5.28-8.533h1.89v-11.39H5.517l-3.47 1.719.829 1.61 2.406-1.22zM21.61 0h1.813v-2.406h1.453V-4h-1.453v-7.375h-1.75L15.703-4v1.594h5.906zm-4.062-4l4.062-4.953V-4zm0 0"/></symbol><symbol overflow="visible" id="28dcb20dc"><path d="M7.828.36c4.14 0 6.906-2.547 6.906-6.376 0-3.562-2.015-5.718-5.937-6.171l5.406-5.75v-1.985H2.343v2.219H11L5.547-11.86v1.718H7c3.313 0 5.188 1.485 5.188 4.125 0 2.454-1.75 4.063-4.485 4.063-2.078 0-3.578-.86-4.766-2.219L1.282-2.484C2.844-.594 5.031.359 7.828.359zm0 0"/></symbol><symbol overflow="visible" id="28dcb20dd"><path d="M1.984 0h12.75v-2.219H5.72l5.578-5.484c2.375-2.25 3.437-4.36 3.437-6.5 0-3.735-2.406-6.078-6.203-6.078-3.015 0-5.328 1.14-6.906 3.39L3.5-15.469c1.188-1.578 2.719-2.5 4.766-2.5 2.406 0 3.921 1.485 3.921 3.89 0 1.626-1.046 3.267-3.265 5.392L1.984-1.984zm0 0"/></symbol><symbol overflow="visible" id="28dcb20de"><path d="M8.953 0h2.485v-19.922H9.344L3.5-17.016l1.063 2.11 4.39-2.203zm0 0"/></symbol><symbol overflow="visible" id="28dcb20df"><path d="M6.844.438L20.125-19.47l-1.36-.89L5.486-.437zM5.28-8.533h1.89v-11.39H5.517l-3.47 1.719.829 1.61 2.406-1.22zm15 8.766c2.813 0 4.469-1.265 4.469-3.312 0-1.39-.766-2.313-2.219-2.797 1.266-.469 1.922-1.39 1.922-2.578 0-1.985-1.578-3.172-4.172-3.172-2.61 0-4.187 1.188-4.187 3.172 0 1.187.656 2.11 1.922 2.578-1.453.484-2.22 1.406-2.22 2.797 0 2.047 1.657 3.312 4.485 3.312zm0-6.78c-1.703-.235-2.343-.829-2.343-1.782 0-1.094.89-1.75 2.343-1.75 1.453 0 2.328.656 2.328 1.75 0 .953-.64 1.547-2.328 1.781zm0 5.25c-1.61 0-2.61-.688-2.61-1.876 0-1.187.798-1.687 2.61-2.015 1.797.328 2.578.828 2.578 2.015 0 1.188-.953 1.875-2.578 1.875zm0 0"/></symbol><symbol overflow="visible" id="28dcb20dg"><path d="M6.844.438L20.125-19.47l-1.36-.89L5.486-.437zM4.859-8.297c2.61 0 4.36-1.515 4.36-3.765 0-1.844-1.031-3.204-3.313-3.563l3.016-2.813v-1.484H1.516v1.64h4.953L3.406-15.39v1.25h.922c1.953 0 2.938.72 2.938 2.11 0 1.234-.954 2.078-2.5 2.078-1.172 0-2.016-.453-2.657-1.188L.86-9.953c.985 1.094 2.344 1.656 4 1.656zM21.61 0h1.813v-2.406h1.453V-4h-1.453v-7.375h-1.75L15.703-4v1.594h5.906zm-4.062-4l4.062-4.953V-4zm0 0"/></symbol><symbol overflow="visible" id="28dcb20dh"><path d="M6.844.438L20.125-19.47l-1.36-.89L5.486-.437zM4.859-8.297c2.61 0 4.36-1.515 4.36-3.765 0-1.844-1.031-3.204-3.313-3.563l3.016-2.813v-1.484H1.516v1.64h4.953L3.406-15.39v1.25h.922c1.953 0 2.938.72 2.938 2.11 0 1.234-.954 2.078-2.5 2.078-1.172 0-2.016-.453-2.657-1.188L.86-9.953c.985 1.094 2.344 1.656 4 1.656zM20.281.234c2.813 0 4.469-1.265 4.469-3.312 0-1.39-.766-2.313-2.219-2.797 1.266-.469 1.922-1.39 1.922-2.578 0-1.985-1.578-3.172-4.172-3.172-2.61 0-4.187 1.188-4.187 3.172 0 1.187.656 2.11 1.922 2.578-1.453.484-2.22 1.406-2.22 2.797 0 2.047 1.657 3.312 4.485 3.312zm0-6.78c-1.703-.235-2.343-.829-2.343-1.782 0-1.094.89-1.75 2.343-1.75 1.453 0 2.328.656 2.328 1.75 0 .953-.64 1.547-2.328 1.781zm0 5.25c-1.61 0-2.61-.688-2.61-1.876 0-1.187.798-1.687 2.61-2.015 1.797.328 2.578.828 2.578 2.015 0 1.188-.953 1.875-2.578 1.875zm0 0"/></symbol><symbol overflow="visible" id="28dcb20di"><path d="M10.938 0h2.484v-4.469h2.61v-2.11h-2.61v-13.343h-2.344L1.031-6.578v2.11h9.906zM3.702-6.578l7.235-9.64v9.64zm0 0"/></symbol><symbol overflow="visible" id="28dcb20dj"><path d="M.734 0H3.47l2.25-5.484h9.343L17.313 0h2.72l-8.329-19.922h-2.64zm9.672-16.953l3.766 9.312H6.609zm0 0"/></symbol><symbol overflow="visible" id="28dcb20dk"><path d="M2.156 0h2.5v-20.953l-2.5.625zm0 0"/></symbol><symbol overflow="visible" id="28dcb20dm"><path d="M8.453.36c2.875 0 4.969-1.126 6.313-3.376l-2.141-.875c-.89 1.407-2.188 2.204-4.125 2.204-2.844 0-4.594-1.688-4.828-4.625h11.422c.015-.36.015-.688.015-.985 0-4.469-2.578-7.203-6.75-7.203-4.328 0-7.078 2.875-7.078 7.453C1.281-2.437 3.97.36 8.453.36zM8.36-12.517c2.547 0 4.125 1.61 4.36 4.422H3.703c.36-2.75 2.078-4.422 4.656-4.422zm0 0"/></symbol><symbol overflow="visible" id="28dcb20dn"><path d="M8.266.36c1.187 0 2.25-.235 3.203-.72l-.656-2.015c-.704.297-1.422.5-2.188.5-1.625 0-2.547-.938-2.547-2.578v-7.484h4.688v-2.204H6.078v-4.562l-2.484.625v3.937H.766v2.204h2.828v7.609c0 3 1.687 4.687 4.672 4.687zm0 0"/></symbol><symbol overflow="visible" id="28dcb20do"><path d="M2.156 0h2.5v-9.906c.953-1.469 2.344-2.219 4.14-2.219.423 0 .782.063 1.126.156l.25-2.375a5.161 5.161 0 0 0-1.25-.156c-1.953 0-3.5.75-4.469 2.11l-.297-1.75h-2zm0 0"/></symbol><symbol overflow="visible" id="28dcb20dp"><path d="M3.406-16.89c1.016 0 1.61-.594 1.61-1.61 0-1-.594-1.594-1.61-1.594-1 0-1.594.594-1.594 1.594 0 1.016.594 1.61 1.594 1.61zM2.156 0h2.5v-14.14h-2.5zm0 0"/></symbol><symbol overflow="visible" id="28dcb20dq"><path d="M2.156 0h2.5v-10.172c1-1.328 2.375-2.062 4.063-2.062 2.078 0 3.312 1.234 3.312 3.312V0h2.5v-9.125c0-3.36-2-5.375-5.281-5.375-2.016 0-3.625.719-4.797 2.14l-.297-1.78h-2zm0 0"/></symbol><symbol overflow="visible" id="28dcb20dr"><path d="M8 0c1.875 0 3.36-.625 4.453-1.844v1.516C12.453 2.453 10.813 4 7.891 4c-1.844 0-3.36-.625-4.657-1.594l-1.25 1.75C3.61 5.453 5.625 6.11 8 6.11c4.422 0 6.938-2.468 6.938-6.828V-14.14h-1.985l-.297 1.75C11.531-13.78 9.984-14.5 8-14.5c-4.203 0-6.719 2.734-6.719 7.266C1.281-2.734 3.797 0 8 0zM3.828-7.234c0-3.172 1.719-5.063 4.625-5.063 1.625 0 2.953.672 4 2.078v5.953c-.953 1.36-2.312 2.11-4 2.11-2.906 0-4.625-1.938-4.625-5.078zm0 0"/></symbol><symbol overflow="visible" id="28dcb20ds"><path d="M6.281.36c1.922 0 3.469-.688 4.563-2.016L11.109 0h1.985v-8.86c0-3.656-2.016-5.64-5.797-5.64-2.078 0-3.922.547-5.484 1.61l1.296 1.75c1.22-.782 2.516-1.22 4.063-1.22 2.281 0 3.5 1.157 3.5 3.376v1.187c-1.094-.5-2.313-.766-3.672-.766-3.688 0-5.906 1.626-5.906 4.47C1.094-1.392 3.172.358 6.28.358zM3.594-4.173c0-1.703 1.437-2.672 3.781-2.672 1.219 0 2.313.297 3.297.89v2.423C9.812-2.22 8.5-1.516 6.844-1.516c-1.922 0-3.25-1-3.25-2.656zm0 0"/></symbol><symbol overflow="visible" id="28dcb20dt"><path d="M8 .36c1.984 0 3.531-.688 4.656-2.079L12.953 0h1.985v-20.953l-2.485.625v7.703C11.36-13.875 9.875-14.5 8-14.5c-4.203 0-6.719 2.797-6.719 7.453C1.281-2.437 3.797.36 8 .36zM3.828-7.048c0-3.266 1.719-5.187 4.625-5.187 1.625 0 2.953.671 4 2.062v6.203c-.953 1.36-2.312 2.094-4 2.094-2.906 0-4.625-1.953-4.625-5.172zm0 0"/></symbol><symbol overflow="visible" id="28dcb20du"><path d="M3.594 0h2.484v-11.938h4.688v-2.203H6.078v-2.156c0-1.64.922-2.547 2.547-2.547.828 0 1.516.203 2.188.5l.656-1.984c-.953-.485-2.016-.719-3.203-.719-2.985 0-4.672 1.688-4.672 4.688v2.218H.766v2.204h2.828zm0 0"/></symbol><symbol overflow="visible" id="28dcb20dv"><path d="M6.938 0h2.64l4.766-16.063L19.14 0h2.609l6.047-19.922H25.14L20.39-3.859l-4.797-16.063h-2.5L8.328-3.859 3.594-19.922H.922zm0 0"/></symbol><symbol overflow="visible" id="28dcb20dw"><path d="M2.156 0h2.5v-10.172c1-1.328 2.375-2.062 4.063-2.062 2.078 0 3.312 1.234 3.312 3.312V0h2.5v-9.125c0-3.36-2-5.375-5.281-5.375-1.922 0-3.438.656-4.594 1.906v-8.36l-2.5.626zm0 0"/></symbol><symbol overflow="visible" id="28dcb20dx"><path d="M2.156 0h2.5v-10.344c.828-1.219 2.078-1.89 3.578-1.89 1.97 0 3.063 1.125 3.063 3.14V0h2.484v-9.313a13.2 13.2 0 0 0-.062-1.124c.984-1.188 2.234-1.797 3.656-1.797 1.953 0 3.078 1.125 3.078 3.14V0h2.485v-9.313c0-3.25-1.829-5.187-5.063-5.187-2.016 0-3.64.75-4.828 2.172-.828-1.36-2.313-2.172-4.297-2.172-1.844 0-3.297.656-4.328 1.969l-.266-1.61h-2zm0 0"/></symbol><symbol overflow="visible" id="28dcb20dy"><path d="M2.156 0h2l.297-1.719C5.578-.329 7.11.36 9.093.36c4.22 0 6.735-2.796 6.735-7.406 0-4.656-2.515-7.453-6.734-7.453-1.86 0-3.344.625-4.438 1.875v-8.328l-2.5.625zm6.5-12.234c2.906 0 4.594 1.921 4.594 5.187 0 3.219-1.688 5.172-4.594 5.172-1.625 0-2.969-.703-4-2.094v-6.203c.953-1.328 2.313-2.062 4-2.062zm0 0"/></symbol><symbol overflow="visible" id="28dcb20dz"><path d="M3.11 6.11c2.874 0 4.328-1.22 5.718-4.829l6.14-15.422h-2.671L8.03-2.969 3.406-14.14H.734L6.906-.03 6.47 1.03c-.844 2.172-1.703 2.875-3.5 2.875-.625 0-1.156-.11-1.672-.265L.719 5.687a6.85 6.85 0 0 0 2.39.422zm0 0"/></symbol><symbol overflow="visible" id="28dcb20dA"><path d="M8.531.36c4.563 0 7.297-2.797 7.297-7.407 0-4.656-2.734-7.453-7.297-7.453-4.531 0-7.25 2.797-7.25 7.453C1.281-2.437 4 .36 8.531.36zm0-2.235c-2.922 0-4.703-1.953-4.703-5.172 0-3.266 1.781-5.187 4.703-5.187 2.969 0 4.719 1.921 4.719 5.187 0 3.219-1.75 5.172-4.719 5.172zm0 0"/></symbol><symbol overflow="visible" id="28dcb20dB"><path d="M6.766.36c3.546 0 5.796-1.688 5.796-4.36 0-3.469-2.984-3.906-5.39-4.234C5.39-8.5 3.766-8.75 3.766-10.375c0-1.281 1.218-2.078 3.14-2.078 1.594 0 2.844.515 3.938 1.375l1.375-1.64C10.875-13.876 9.094-14.5 6.906-14.5c-3.437 0-5.625 1.64-5.625 4.188 0 3.28 2.875 3.734 5.235 4.093 1.843.297 3.562.563 3.562 2.282 0 1.39-1.281 2.25-3.312 2.25-1.75 0-3.204-.657-4.485-1.688L.921-1.781C2.485-.391 4.392.359 6.767.359zm0 0"/></symbol><symbol overflow="visible" id="28dcb20dC"><path d="M40.813 1.313c14.656 0 25.374-5.688 32.374-17.063l-13.124-6.672C55.906-16.406 50.547-12.25 41.25-12.25c-13.563 0-21.781-9.188-21.781-24.516 0-15.312 8.218-24.5 21.781-24.5 9.297 0 14.656 4.157 18.813 10.172l13.124-6.672c-7-11.375-17.718-17.062-32.374-17.062-23.204 0-36.985 14.219-36.985 38.062 0 23.86 13.781 38.078 36.984 38.078zm0 0"/></symbol><symbol overflow="visible" id="28dcb20dD"><path d="M7.766 0h15.312v-73.516H7.766zm0 0"/></symbol><symbol overflow="visible" id="28dcb20dE"><path d="M25.375 0h15.328v-60.39h22.86v-13.126H2.406v13.125h22.969zm0 0"/></symbol><symbol overflow="visible" id="28dcb20dF"><path d="M27.688 0H43v-31.188l27.781-42.328H53.5L35.344-44.859 17.28-73.516H-.109l27.797 42.329zm0 0"/></symbol><symbol overflow="visible" id="28dcb20dG"><path d="M41.14 1.313c23.407 0 37.297-14.22 37.297-38.079 0-23.843-13.89-38.062-37.296-38.062-23.422 0-37.313 14.219-37.313 38.062 0 23.86 13.89 38.078 37.313 38.078zm0-13.563c-13.562 0-21.671-9.188-21.671-24.516 0-15.312 8.11-24.5 21.672-24.5 13.453 0 21.547 9.188 21.547 24.5 0 15.328-8.094 24.516-21.547 24.516zm0 0"/></symbol><symbol overflow="visible" id="28dcb20dH"><path d="M7.766 0h15.312v-29.11h25.61v-12.687h-25.61V-60.39h36.11v-13.125H7.766zm0 0"/></symbol><symbol overflow="visible" id="28dcb20dI"><path d="M23.625 0h15.219L53.39-51.64 67.828 0h15.328l21.656-73.516H89.5L75.047-21.875l-14.438-51.64H46.172l-14.547 51.64-14.344-51.64H1.86zm0 0"/></symbol><symbol overflow="visible" id="28dcb20dJ"><path d="M7.766 0H60.5v-12.797H23.078v-18.281h25.61v-12.25h-25.61v-17.39h36.11v-12.798H7.766zm0 0"/></symbol><symbol overflow="visible" id="28dcb20dK"><path d="M31.953 1.313c18.156 0 29.64-8.86 29.64-22.86 0-17.953-15.53-20.687-27.452-22.765-8.11-1.313-15.11-2.516-15.11-8.75 0-5.36 5.032-8.641 13.797-8.641 7.766 0 13.563 2.734 18.703 6.453l8.75-10.39c-7.547-6.126-16.734-9.188-27.453-9.188-17.844 0-29 8.64-29 22.203 0 17.281 14.985 20.016 26.813 22.094C38.953-29 46.28-27.688 46.28-21.11c0 5.797-5.25 9.297-14.328 9.297-8.437 0-15-3.282-20.797-7.766l-8.64 10.39c8.093 7 17.937 10.5 29.437 10.5zm0 0"/></symbol><symbol overflow="visible" id="28dcb20dL"><path d="M7.766 0h14.437v-49.781l18.61 26.922h9.406l18.484-26.922V0h14.453v-73.516H69.578L45.516-38.734 21.328-73.516H7.766zm0 0"/></symbol><symbol overflow="visible" id="28dcb20dM"><path d="M7.766 0h14.437v-49.563L59.078 0h13.563v-73.516H58.203v49.563L21.328-73.516H7.766zm0 0"/></symbol><symbol overflow="visible" id="28dcb20dN"><path d="M7.766 0H22.64v-26.469h9.75L49.67 0h17.282L48.141-27.469C58.75-30.203 64.984-38.079 64.984-50c0-15.313-9.187-23.516-25.593-23.516H7.766zm30.312-60.719c7.547 0 11.703 3.828 11.703 10.719 0 6.89-4.156 10.828-11.703 10.828H22.641v-21.547zm0 0"/></symbol><symbol overflow="visible" id="28dcb20dO"><path d="M73.016 3c41.515 0 67.765-20.25 67.765-52.266 0-41-35.5-47.265-62.765-52.015-18.5-3-34.5-5.75-34.5-20 0-12.25 11.5-19.75 31.5-19.75 17.75 0 31.015 6.25 42.765 14.75l20-23.75c-17.25-14.016-38.25-21.016-62.765-21.016-40.75 0-66.266 19.766-66.266 50.766 0 39.515 34.266 45.765 61.266 50.515 19 3.5 35.765 6.5 35.765 21.5C105.781-35.016 93.766-27 73.016-27c-19.25 0-34.25-7.516-47.516-17.766L5.75-21C24.25-5 46.766 3 73.016 3zm0 0"/></symbol><symbol overflow="visible" id="28dcb20dP"><path d="M58.016 0h35v-138.031h52.265v-30.016H5.5v30.016h52.516zm0 0"/></symbol><symbol overflow="visible" id="28dcb20dQ"><path d="M17.75 0h34.016v-60.516h22.25L113.53 0h39.5l-43-62.766c24.25-6.25 38.5-24.25 38.5-51.515 0-35-21-53.766-58.515-53.766H17.75zm69.266-138.781c17.265 0 26.765 8.75 26.765 24.5s-9.5 24.765-26.765 24.765h-35.25v-49.265zm0 0"/></symbol><symbol overflow="visible" id="28dcb20dR"><path d="M17.75 0h120.531v-29.25H52.766v-41.766h58.515V-99.03H52.766v-39.75h82.515v-29.266H17.75zm0 0"/></symbol><symbol overflow="visible" id="28dcb20dS"><path d="M54.016 0h34.75l33.265-118.031L155.031 0h35.016l49.516-168.047h-35.016l-33 118.031-33.016-118.03h-33L72.266-50.017l-32.75-118.03H4.25zm0 0"/></symbol><symbol overflow="visible" id="28dcb20dT"><path d="M93.266 3c33.515 0 58.015-13 74.03-39.016l-30.015-15.25c-9.5 13.75-21.75 23.266-43 23.266-31.015 0-49.765-21.016-49.765-56.016 0-35.015 18.75-56.015 49.765-56.015 21.25 0 33.5 9.5 43 23.25l30.016-15.25c-16.016-26.016-40.516-39.016-74.031-39.016-53 0-84.516 32.516-84.516 87.031C8.75-29.5 40.266 3 93.266 3zm0 0"/></symbol><symbol overflow="visible" id="28dcb20dU"><path d="M13.25 0h114.531v-29.25H62.766L99.78-64.016c19-17.75 28-35.265 28-53.265 0-33-21.5-53.766-55.765-53.766-27 0-47.516 9.5-61.766 28.516l24.016 19.5c9-10.5 19.75-18 34-18 15.75 0 25.5 10 25.5 25.75 0 11.75-8.25 23.265-26.5 40.015L13.25-25.25zm0 0"/></symbol><symbol overflow="visible" id="28dcb20dV"><path d="M2.75 0h36.266l14.5-37.766h71.765L139.781 0h36.266L106.78-168.047H72.016zm86.516-130.031l25.015 64.015H64.516zm0 0"/></symbol><symbol overflow="visible" id="28dcb20dW"><path d="M17.75 0h68.516c55.015 0 86.03-30.25 86.03-84.016 0-53.765-31.015-84.03-86.03-84.03H17.75zm35.016-30v-108.031h31.5c33.265 0 52.015 19.75 52.015 54.015 0 34.25-18.75 54.016-52.015 54.016zm0 0"/></symbol><symbol overflow="visible" id="28dcb20dX"><path d="M17.75 0h110.531v-30H52.766v-138.047H17.75zm0 0"/></symbol><symbol overflow="visible" id="28dcb20dY"><path d="M17.75 0h34.016v-57.516h36.75c38.515 0 60.015-20 60.015-55.265 0-35.25-21.5-55.266-60.015-55.266H17.75zm68.766-138.031c17.515 0 27.265 9 27.265 25.25s-9.75 25.265-27.265 25.265h-34.75v-50.515zm0 0"/></symbol><symbol overflow="visible" id="28dcb20dZ"><path d="M17.75 0h35.016v-71.266h75.515V0h34.766v-168.047H128.28v66.766H52.766v-66.766H17.75zm0 0"/></symbol><symbol overflow="visible" id="28dcb20daa"><path d="M17.75 0h35.016v-168.047H17.75zm0 0"/></symbol><clipPath id="a"><path d="M0 2.637h2197V1100H0zm0 0"/></clipPath></defs><path fill="#3b35b9" d="M0 0h2200v1100H0z"/><path d="M0 1100h2197V2.637H0zm0 0" fill="#3b35b9"/><g clip-path="url(#a)"><path d="M-29.898 1127.516h2253.793V-18.464H-29.898zm0 0" fill="none" stroke-width=".89" stroke="#1f191a" stroke-miterlimit="10"/></g><path d="M218.172 695.8h1735.715v-10.503H218.172zm0 0" fill="#6e6acb"/><path d="M260.184 128.648h1651.695c23.105 0 42.008 18.985 42.008 42.016v645.918c0 23.027-18.985 42.012-42.008 42.012H260.184c-23.028 0-42.012-18.907-42.012-42.012V170.664c0-23.11 18.91-42.016 42.012-42.016zm0 0" fill="none" stroke-width="1.2" stroke="#fff" stroke-miterlimit="22.926"/><path d="M260.184 160.156v21.008M249.68 170.66h21.007" fill="none" stroke-width="1.049" stroke="#fff" stroke-miterlimit="22.926"/><path d="M176.16 811.332h1819.735M176.16 737.809h1819.735M176.16 690.547h1819.735M176.16 606.523h1819.735M176.16 438.48h1819.735M176.16 380.715h1819.735M176.16 212.672h1819.735M176.16 858.594h1819.735M176.16 128.648h1819.735m-42.008-42.011v813.965M218.172 86.637v813.965m1609.68-813.965v813.965M344.207 86.637v813.965" fill="none" stroke="#fff" stroke-dasharray="5.251,5.251" stroke-miterlimit="22.926"/><use xlink:href="#28dcb20db" x="2118.261" y="701.0502" fill="#fff"/><path d="M1827.852 942.613v84.024M1953.887 942.613v84.024M344.207 942.613v84.024M218.172 942.613v84.024M2037.91 695.8h69.848M2037.91 685.297h69.848M50.129 858.594h84.02M50.129 811.332h84.02M50.129 737.809h84.02M50.129 690.547h84.02M50.129 606.527h84.02M50.129 438.48h84.02M50.129 380.715h84.02M50.129 212.672h84.02M50.129 128.648h84.02" fill="none" stroke-width="1.049" stroke="#fff" stroke-miterlimit="22.926"/><path d="M218.172 685.297h1735.715M218.172 695.8h1735.715" fill="none" stroke-width="1.2" stroke="#fff" stroke-miterlimit="22.926"/><use xlink:href="#28dcb20dc" x="272.6494" y="995.1273" fill="#fff"/><use xlink:href="#28dcb20dc" x="1882.336" y="995.1273" fill="#fff"/><path d="M260.184 170.66l-29.707-29.707M234.195 152.094l-3.715-11.145 11.137 3.719" fill="none" stroke-width="1.049" stroke="#fff" stroke-miterlimit="22.926"/><use xlink:href="#28dcb20dd" x="83.604" y="181.1615" fill="#fff"/><use xlink:href="#28dcb20dd" x="83.604" y="659.0256" fill="#fff"/><g fill="#fff"><use xlink:href="#28dcb20de" x="70.7993" y="724.6793"/><use xlink:href="#28dcb20df" x="87.872228" y="724.6793"/></g><g fill="#fff"><use xlink:href="#28dcb20de" x="70.7993" y="845.4644"/><use xlink:href="#28dcb20df" x="87.872228" y="845.4644"/></g><g fill="#fff"><use xlink:href="#28dcb20de" x="70.7993" y="785.0867"/><use xlink:href="#28dcb20dg" x="87.872228" y="785.0867"/></g><g fill="#fff"><use xlink:href="#28dcb20de" x="70.7993" y="420.1232"/><use xlink:href="#28dcb20dh" x="87.872228" y="420.1232"/></g><use xlink:href="#28dcb20di" x="83.604" y="307.2225" fill="#fff"/><use xlink:href="#28dcb20di" x="83.604" y="533.0239" fill="#fff"/><path d="M260.184 212.672c23.203 0 42.011-18.813 42.011-42.012 0-23.203-18.808-42.012-42.011-42.012-23.2 0-42.012 18.809-42.012 42.012 0 23.2 18.812 42.012 42.012 42.012zm0 0" fill="none" stroke-width="1.049" stroke="#fff" stroke-dasharray="5.251,5.251" stroke-miterlimit="22.926"/><use xlink:href="#28dcb20dj" x="407.2236" y="995.1293" fill="#fff"/><g fill="#fff"><use xlink:href="#28dcb20dk" x="427.4977" y="995.1293"/><use xlink:href="#28dcb20dk" x="434.315015" y="995.1293"/><use xlink:href="#28dcb20dl" x="441.13233" y="995.1293"/><use xlink:href="#28dcb20dk" x="448.24605" y="995.1293"/></g><use xlink:href="#28dcb20dm" x="455.0634" y="995.1293" fill="#fff"/><use xlink:href="#28dcb20dn" x="471.0989" y="995.1293" fill="#fff"/><use xlink:href="#28dcb20dn" x="483.459" y="995.1293" fill="#fff"/><g fill="#fff"><use xlink:href="#28dcb20dm" x="495.493" y="995.1293"/><use xlink:href="#28dcb20do" x="511.884196" y="995.1293"/><use xlink:href="#28dcb20dp" x="522.821541" y="995.1293"/><use xlink:href="#28dcb20dq" x="529.638856" y="995.1293"/><use xlink:href="#28dcb20dr" x="546.148614" y="995.1293"/><use xlink:href="#28dcb20dl" x="563.251183" y="995.1293"/></g><use xlink:href="#28dcb20do" x="570.3649" y="995.1293" fill="#fff"/><g fill="#fff"><use xlink:href="#28dcb20ds" x="580.9762" y="995.1293"/><use xlink:href="#28dcb20dq" x="596.063214" y="995.1293"/><use xlink:href="#28dcb20dr" x="612.572973" y="995.1293"/><use xlink:href="#28dcb20dm" x="629.675541" y="995.1293"/><use xlink:href="#28dcb20dt" x="646.066738" y="995.1293"/><use xlink:href="#28dcb20dl" x="663.169306" y="995.1293"/><use xlink:href="#28dcb20dk" x="670.283026" y="995.1293"/></g><use xlink:href="#28dcb20dm" x="677.1004" y="995.1293" fill="#fff"/><use xlink:href="#28dcb20du" x="693.1359" y="995.1293" fill="#fff"/><use xlink:href="#28dcb20dn" x="705.0217" y="995.1293" fill="#fff"/><path d="M354.707 979.375l-10.504 5.25 10.504 5.254M1817.348 989.879l10.504-5.25-10.504-5.254" fill="none" stroke-width="1.049" stroke="#fff" stroke-miterlimit="22.926"/><g fill="#fff"><use xlink:href="#28dcb20dv" x="1322.6" y="995.1293"/><use xlink:href="#28dcb20dp" x="1351.321644" y="995.1293"/><use xlink:href="#28dcb20dt" x="1358.138959" y="995.1293"/><use xlink:href="#28dcb20dn" x="1375.241528" y="995.1293"/><use xlink:href="#28dcb20dw" x="1387.601616" y="995.1293"/><use xlink:href="#28dcb20dl" x="1404.111375" y="995.1293"/><use xlink:href="#28dcb20dt" x="1411.225095" y="995.1293"/></g><use xlink:href="#28dcb20dm" x="1428.328" y="995.1293" fill="#fff"/><use xlink:href="#28dcb20dn" x="1444.363" y="995.1293" fill="#fff"/><g fill="#fff"><use xlink:href="#28dcb20dm" x="1456.397" y="995.1293"/><use xlink:href="#28dcb20do" x="1472.788196" y="995.1293"/><use xlink:href="#28dcb20dx" x="1483.725541" y="995.1293"/><use xlink:href="#28dcb20dp" x="1508.653202" y="995.1293"/><use xlink:href="#28dcb20dq" x="1515.470517" y="995.1293"/><use xlink:href="#28dcb20dm" x="1531.980275" y="995.1293"/><use xlink:href="#28dcb20dt" x="1548.371472" y="995.1293"/><use xlink:href="#28dcb20dl" x="1565.47404" y="995.1293"/></g><use xlink:href="#28dcb20dy" x="1572.588" y="995.1293" fill="#fff"/><use xlink:href="#28dcb20dz" x="1589.009" y="995.1293" fill="#fff"/><g fill="#fff"><use xlink:href="#28dcb20dk" x="1611.269" y="995.1293"/><use xlink:href="#28dcb20dA" x="1618.086315" y="995.1293"/><use xlink:href="#28dcb20dq" x="1635.188883" y="995.1293"/><use xlink:href="#28dcb20dr" x="1651.698642" y="995.1293"/><use xlink:href="#28dcb20dm" x="1668.801211" y="995.1293"/><use xlink:href="#28dcb20dB" x="1685.192407" y="995.1293"/><use xlink:href="#28dcb20dn" x="1698.856677" y="995.1293"/><use xlink:href="#28dcb20dl" x="1711.216766" y="995.1293"/><use xlink:href="#28dcb20dk" x="1718.330486" y="995.1293"/><use xlink:href="#28dcb20dp" x="1725.147801" y="995.1293"/><use xlink:href="#28dcb20dq" x="1731.965116" y="995.1293"/><use xlink:href="#28dcb20dm" x="1748.474875" y="995.1293"/></g><path d="M1785.84 984.629h42.012M344.203 984.629h42.012" fill="none" stroke-width="1.049" stroke="#fff" stroke-miterlimit="22.926"/><use xlink:href="#28dcb20dC" x="340.376" y="811.3305" fill="#6e6acb"/><use xlink:href="#28dcb20dD" x="415.6435" y="811.3305" fill="#6e6acb"/><use xlink:href="#28dcb20dE" x="446.4945" y="811.3305" fill="#6e6acb"/><use xlink:href="#28dcb20dF" x="514.4322" y="811.3305" fill="#6e6acb"/><use xlink:href="#28dcb20dG" x="609.3918" y="811.3305" fill="#6e6acb"/><use xlink:href="#28dcb20dH" x="691.661" y="811.3305" fill="#6e6acb"/><use xlink:href="#28dcb20dI" x="777.978" y="811.3305" fill="#6e6acb"/><use xlink:href="#28dcb20dJ" x="884.6435" y="811.3305" fill="#6e6acb"/><use xlink:href="#28dcb20dK" x="949.2992" y="811.3305" fill="#6e6acb"/><use xlink:href="#28dcb20dE" x="1013.955" y="811.3305" fill="#6e6acb"/><use xlink:href="#28dcb20dL" x="1079.923" y="811.3305" fill="#6e6acb"/><use xlink:href="#28dcb20dD" x="1170.835" y="811.3305" fill="#6e6acb"/><use xlink:href="#28dcb20dM" x="1201.686" y="811.3305" fill="#6e6acb"/><use xlink:href="#28dcb20dK" x="1282.096" y="811.3305" fill="#6e6acb"/><use xlink:href="#28dcb20dE" x="1346.751" y="811.3305" fill="#6e6acb"/><use xlink:href="#28dcb20dJ" x="1412.72" y="811.3305" fill="#6e6acb"/><use xlink:href="#28dcb20dN" x="1477.375" y="811.3305" fill="#6e6acb"/><use xlink:href="#28dcb20dO" x="338.4575" y="606.5267" fill="#6e6acb"/><use xlink:href="#28dcb20dP" x="486.2441" y="606.5267" fill="#6e6acb"/><use xlink:href="#28dcb20dQ" x="637.0315" y="606.5267" fill="#6e6acb"/><use xlink:href="#28dcb20dR" x="795.8209" y="606.5267" fill="#6e6acb"/><use xlink:href="#28dcb20dR" x="943.6075" y="606.5267" fill="#6e6acb"/><use xlink:href="#28dcb20dP" x="1091.394" y="606.5267" fill="#6e6acb"/><use xlink:href="#28dcb20dS" x="1293.194" y="606.5267" fill="#6e6acb"/><use xlink:href="#28dcb20dT" x="1528.002" y="606.5267" fill="#6e6acb"/><use xlink:href="#28dcb20dU" x="1700.045" y="606.5267" fill="#6e6acb"/><use xlink:href="#28dcb20dV" x="341.4582" y="380.7207" fill="#6e6acb"/><use xlink:href="#28dcb20dW" x="520.2526" y="380.7207" fill="#6e6acb"/><use xlink:href="#28dcb20dR" x="701.0474" y="380.7207" fill="#6e6acb"/><use xlink:href="#28dcb20dX" x="848.834" y="380.7207" fill="#6e6acb"/><use xlink:href="#28dcb20dY" x="982.8673" y="380.7207" fill="#6e6acb"/><use xlink:href="#28dcb20dZ" x="1138.656" y="380.7207" fill="#6e6acb"/><use xlink:href="#28dcb20daa" x="1319.451" y="380.7207" fill="#6e6acb"/><path d="M381.184 812.645c14.66 0 25.378-5.692 32.382-17.067l-13.128-6.676c-4.157 6.02-9.52 10.176-18.817 10.176-13.566 0-21.773-9.191-21.773-24.508 0-15.312 8.207-24.504 21.773-24.504 9.297 0 14.66 4.157 18.816 10.176l13.13-6.676c-7.004-11.375-17.723-17.066-32.383-17.066-23.196 0-36.977 14.223-36.977 38.07 0 23.852 13.781 38.075 36.977 38.075zm0 0M423.41 811.332h15.317v-73.52H423.41zm0 0M471.883 811.332h15.316v-60.39h22.863v-13.13h-61.156v13.13h22.977zm0 0M542.113 811.332h15.317v-31.18l27.789-42.34h-17.285l-18.16 28.665-18.051-28.664h-17.395l27.785 42.34zm0 0M650.54 812.64c23.413 0 37.304-14.222 37.304-38.07 0-23.847-13.89-38.074-37.305-38.074-23.41 0-37.305 14.227-37.305 38.074 0 23.848 13.895 38.07 37.305 38.07zm0-13.566c-13.567 0-21.661-9.187-21.661-24.504 0-15.316 8.094-24.508 21.66-24.508 13.457 0 21.55 9.192 21.55 24.508 0 15.317-8.093 24.504-21.55 24.504zm0 0M699.438 811.332h15.316V782.23h25.598v-12.687h-25.598v-18.598h36.101v-13.133h-51.417zm0 0M801.625 811.332h15.207l14.55-51.637 14.442 51.637h15.317l21.66-73.52h-15.317l-14.441 51.637-14.441-51.636h-14.438l-14.55 51.636-14.333-51.636h-15.426zm0 0M892.43 811.332h52.734v-12.8h-37.418v-18.27h25.602v-12.254h-25.602v-17.395h36.102v-12.8H892.43zm0 0M981.27 812.645c18.16 0 29.644-8.864 29.644-22.868 0-17.941-15.531-20.675-27.457-22.754-8.098-1.312-15.098-2.515-15.098-8.753 0-5.36 5.032-8.641 13.786-8.641 7.765 0 13.566 2.734 18.707 6.453l8.753-10.39c-7.55-6.13-16.738-9.192-27.46-9.192-17.833 0-28.993 8.645-28.993 22.207 0 17.29 14.989 20.023 26.805 22.102 8.313 1.53 15.645 2.843 15.645 9.406 0 5.8-5.25 9.3-14.332 9.3-8.426 0-14.989-3.28-20.786-7.769l-8.644 10.395c8.097 7 17.941 10.504 29.43 10.504zm0 0M1039.363 811.332h15.317v-60.387h22.863v-13.133h-61.156v13.133h22.976zm0 0M1087.719 811.328h14.441v-49.777l18.598 26.914h9.406l18.492-26.914v49.777h14.442v-73.52h-13.567l-24.07 34.794-24.176-34.793h-13.566zm0 0M1178.633 811.332h15.316v-73.52h-15.316zm0 0M1209.48 811.332h14.442v-49.559l36.867 49.559h13.566v-73.52h-14.44v49.56l-36.868-49.56h-13.567zm0 0M1314.074 812.645c18.164 0 29.649-8.86 29.649-22.864 0-17.941-15.536-20.676-27.457-22.758-8.098-1.312-15.098-2.515-15.098-8.75 0-5.359 5.031-8.644 13.781-8.644 7.77 0 13.567 2.738 18.711 6.457l8.75-10.395c-7.547-6.125-16.738-9.191-27.46-9.191-17.833 0-28.99 8.645-28.99 22.21 0 17.286 14.99 20.02 26.806 22.099 8.312 1.53 15.64 2.843 15.64 9.41 0 5.797-5.25 9.297-14.332 9.297-8.422 0-14.984-3.282-20.785-7.766l-8.64 10.395c8.093 7 17.94 10.5 29.425 10.5zm0 0M1372.168 811.332h15.316v-60.39h22.864v-13.13h-61.153v13.13h22.973zm0 0M1420.527 811.332h52.73v-12.8h-37.413v-18.27h25.601v-12.254h-25.601v-17.395h36.101v-12.8h-51.418zm0 0M1485.188 811.332h14.878v-26.477h9.735l17.285 26.477h17.285l-18.816-27.46c10.613-2.735 16.847-10.614 16.847-22.536 0-15.32-9.187-23.524-25.597-23.524h-31.618zm30.304-60.719c7.547 0 11.703 3.828 11.703 10.723 0 6.89-4.156 10.828-11.703 10.828h-15.426v-21.55zm0 0M411.477 609.527c41.507 0 67.765-20.254 67.765-52.261 0-41.012-35.508-47.262-62.765-52.016-18.504-3-34.508-5.75-34.508-20.004 0-12.254 11.504-19.754 31.508-19.754 17.753 0 31.007 6.25 42.761 14.754l20.004-23.758c-17.254-14.004-38.258-21.004-62.765-21.004-40.762 0-66.266 19.754-66.266 50.762 0 39.512 34.258 45.762 61.266 50.512 19.003 3.5 35.757 6.504 35.757 21.508 0 13.254-12.004 21.254-32.757 21.254-19.258 0-34.258-7.5-47.512-17.754l-19.758 23.757c18.508 16.004 41.012 24.004 67.27 24.004zm0 0M544.266 606.527h35.007v-138.03h52.262v-30.009H491.754v30.008h52.512zm0 0M654.793 606.527h34.008v-60.511h22.258l39.511 60.511h39.508l-43.012-62.765c24.258-6.25 38.512-24.254 38.512-51.512 0-35.008-21.008-53.762-58.515-53.762h-72.27zm69.27-138.78c17.253 0 26.757 8.75 26.757 24.503 0 15.754-9.504 24.758-26.757 24.758H688.8v-49.262zm0 0M813.586 606.527h120.531v-29.254h-85.52v-41.761h58.512v-28.008h-58.511v-39.758h82.52v-29.258H813.585zm0 0M961.383 606.527h120.527v-29.254h-85.52v-41.761h58.516v-28.008h-58.515v-39.758h82.52v-29.258H961.382zm0 0M1149.434 606.527h35.007V468.492h52.266v-30.008h-139.785v30.008h52.512zm0 0M1347.234 606.527h34.762l33.258-118.027 33.008 118.027h35.008l49.511-168.039h-35.008l-33.007 118.028-33.008-118.028h-33.008l-33.258 118.028-32.758-118.028h-35.261zm0 0M1621.316 609.527c33.508 0 58.012-13.004 74.02-39.007l-30.012-15.254c-9.5 13.75-21.754 23.254-43.008 23.254-31.007 0-49.761-21.004-49.761-56.012 0-35.012 18.754-56.016 49.761-56.016 21.254 0 33.508 9.504 43.008 23.254l30.012-15.254c-16.008-26.004-40.512-39.008-74.02-39.008-53.015 0-84.523 32.508-84.523 87.024 0 54.512 31.508 87.02 84.523 87.02zm0 0M1713.344 606.527h114.527v-29.254h-65.016l37.012-34.761c19.004-17.754 28.004-35.258 28.004-53.262 0-33.008-21.504-53.762-55.762-53.762-27.007 0-47.511 9.5-61.765 28.504l24.008 19.508c9-10.504 19.753-18.008 34.007-18.008 15.754 0 25.504 10.004 25.504 25.758 0 11.754-8.25 23.258-26.504 40.008l-54.015 50.015zm0 0M344.207 380.715h36.258l14.504-37.758h71.77l14.5 37.758H517.5l-69.27-168.04h-34.757zm86.52-130.031l25.007 64.015h-49.761zm0 0M538.012 380.719h68.515c55.016 0 86.024-30.258 86.024-84.024 0-53.761-31.008-84.02-86.024-84.02h-68.515zm35.008-30.008V242.684h31.507c33.262 0 52.016 19.754 52.016 54.011 0 34.262-18.754 54.016-52.016 54.016zm0 0M718.813 380.719H839.34V351.46h-85.52v-41.762h58.516v-28.004H753.82v-39.761h82.52v-29.258H718.812zm0 0M866.605 380.715h110.528v-30.008h-75.52V212.676h-35.008zm0 0M1000.64 380.715h34.008v-57.512h36.762c38.508 0 60.016-20.008 60.016-55.265 0-35.258-21.508-55.262-60.016-55.262h-70.77zm68.77-138.031c17.504 0 27.254 9 27.254 25.253 0 16.254-9.75 25.258-27.254 25.258h-34.762v-50.511zm0 0M1156.434 380.715h35.007v-71.266h75.52v71.266h34.758v-168.04h-34.758v66.766h-75.52v-66.765h-35.007zm0 0M1337.238 380.715h35.008v-168.04h-35.008zm0 0" fill="none" stroke-width="1.8" stroke="#fff" stroke-miterlimit="22.926"/></svg>