<?xml version='1.0' encoding='UTF-8'?>
<svg xmlns="http://www.w3.org/2000/svg" xmlns:xlink="http://www.w3.org/1999/xlink" width="600px" height="300px" viewBox="0 0 600 300" x="0px" y="0px" enable-background="new 0 0 600 300"><defs><symbol overflow="visible" id="98a0a6c9a"><path d="M6.31 0h19.77c8.97 0 14.08-4.23 14.08-11.69 0-4.95-2.64-8.47-7.2-10.08 3.68-1.51 5.76-4.64 5.76-8.95 0-7.2-4.95-11.28-13.6-11.28H6.32zm18.33-36.48c4.72 0 7.36 2.25 7.36 6.25S29.36-24 24.64-24h-11.6v-12.48zM13.04-5.52V-18.8h12.48c4.96 0 7.76 2.4 7.76 6.64s-2.8 6.64-7.76 6.64zm0 0"/></symbol><symbol overflow="visible" id="98a0a6c9b"><path d="M6.31 0h30.82v-5.69H13.2v-13.03h16.72v-5.36H13.2v-12.15h22.96V-42H6.3zm0 0"/></symbol><symbol overflow="visible" id="98a0a6c9c"><path d="M6.31 0h6.74v-14.64h10.54c9.85 0 15.46-4.88 15.46-13.67 0-8.74-5.61-13.69-15.46-13.69H6.31zm16.97-36.08c5.67 0 8.88 2.8 8.88 7.77 0 5.03-3.2 7.83-8.88 7.83H13.05v-15.6zm0 0"/></symbol><symbol overflow="visible" id="98a0a6c9d"><path d="M25.2.95c8.72 0 15.11-3.36 19.2-10.07l-6.09-3.04c-2.72 4.4-6.72 6.88-12.87 6.88-9.36 0-14.88-5.84-14.88-15.67 0-9.93 5.52-15.77 14.88-15.77 6.15 0 10.15 2.49 12.87 6.88l6.1-3.04c-4.1-6.71-10.49-10.07-19.2-10.07-13.62 0-21.77 8.23-21.77 22C3.44-7.28 11.59.95 25.2.95zm0 0"/></symbol><symbol overflow="visible" id="98a0a6c9e"><path d="M6.31 0h6.17l24.8-31.92V0H44v-42h-6.16L13.04-9.92V-42H6.32zm0 0"/></symbol><symbol overflow="visible" id="98a0a6c9f"><path d="M2.64 0h7.52l11.6-15.6H30V0h6.72v-42H18.95c-9.6 0-15.03 4.8-15.03 13.2 0 7.03 4 11.68 10.96 12.88zm16.8-21.28c-5.52 0-8.64-2.72-8.64-7.52 0-4.72 3.12-7.43 8.64-7.43H30v14.95zm0 0"/></symbol><symbol overflow="visible" id="98a0a6c9g"><path d="M3.83 0v-5.95H6.2v-.82H.45v.82h2.4V0zm0 0"/></symbol><symbol overflow="visible" id="98a0a6c9h"><path d="M5.75-2.23v-.43c0-1.6-.9-2.51-2.42-2.51S.87-4.16.87-2.48c0 1.71.91 2.62 2.5 2.62 1.43 0 2.07-.56 2.29-1.52l-.9-.09c-.18.61-.59.9-1.35.9-.94 0-1.52-.54-1.58-1.66zm-2.4-2.2c.93 0 1.43.5 1.48 1.55H1.84c.08-1.07.6-1.56 1.5-1.56zm0 0"/></symbol><symbol overflow="visible" id="98a0a6c9i"><path d="M1.83 0l1.42-2h.06l1.46 2H5.8L4-2.53l1.78-2.49H4.8L3.42-3.08h-.08l-1.4-1.94H.89l1.78 2.49L.84 0zm0 0"/></symbol><symbol overflow="visible" id="98a0a6c9j"><path d="M5.52-4.25v-.77H3.17v-1.56h-.81l-.14 1.56H.75v.77h1.47v2.4c0 1.3.48 1.94 1.84 1.94C4.6.1 5.14 0 5.55-.14L5.4-.91c-.32.13-.72.2-1.13.2-.8 0-1.1-.37-1.1-1.23v-2.31zm0 0"/></symbol><symbol overflow="visible" id="98a0a6c9k"><path d="M3.33-3.42c.47 0 .8-.27.8-.8 0-.51-.33-.8-.8-.8-.47 0-.8.29-.8.8 0 .53.33.8.8.8zm0 3.5c.47 0 .8-.27.8-.78 0-.53-.33-.82-.8-.82-.47 0-.8.29-.8.82 0 .51.33.78.8.78zm0 0"/></symbol><symbol overflow="visible" id="98a0a6c9m"><path d="M4.66-3.45c.76-.14 1.15-.67 1.15-1.57 0-1.07-.64-1.75-2.18-1.75H.92V0h2.71C5.2 0 5.98-.64 5.98-1.77c0-1.03-.56-1.43-1.32-1.59zM3.56-6c.9 0 1.31.4 1.31 1.13 0 .71-.4 1.14-1.3 1.14h-1.7V-6zM1.87-.75v-2.27H3.6c.97 0 1.44.33 1.44 1.13 0 .8-.47 1.14-1.44 1.14zm0 0"/></symbol><symbol overflow="visible" id="98a0a6c9n"><path d="M5.75-2.23v-.43c0-1.6-.9-2.51-2.42-2.51S.87-4.16.87-2.48c0 1.71.91 2.62 2.5 2.62 1.43 0 2.07-.56 2.29-1.52l-.9-.09c-.18.61-.59.9-1.35.9-.94 0-1.52-.54-1.58-1.66zm-2.4-2.2c.93 0 1.43.5 1.48 1.55H1.84c.08-1.07.6-1.56 1.5-1.56zm0 0"/></symbol><symbol overflow="visible" id="98a0a6c9o"><path d="M2.06 1.9V-.84h.05c.28.58.8.97 1.77.97 1.5 0 2.2-.98 2.2-2.66 0-1.65-.7-2.64-2.19-2.64-.97 0-1.5.44-1.78 1.05h-.08l-.1-.9H1.1v6.9zm1.5-2.56c-1.06 0-1.53-.8-1.53-1.86 0-1.04.47-1.84 1.53-1.84 1.11 0 1.53.61 1.53 1.84 0 1.27-.42 1.86-1.53 1.86zm0 0"/></symbol><symbol overflow="visible" id="98a0a6c9p"><path d="M3.34.14c1.43 0 2.13-.66 2.25-1.78l-.89-.1c-.1.7-.5 1.08-1.34 1.08-1.03 0-1.52-.64-1.52-1.84 0-1.23.47-1.86 1.52-1.86.84 0 1.23.36 1.34 1.08l.9-.1c-.13-1.09-.82-1.78-2.26-1.78-1.56 0-2.46.97-2.46 2.66 0 1.66.9 2.64 2.46 2.64zm0 0"/></symbol><symbol overflow="visible" id="98a0a6c9q"><path d="M2.03 0L4.6-3.72h.08V0h.92v-5.02h-.96L2.06-1.27H2v-3.75h-.92V0zm0 0"/></symbol><symbol overflow="visible" id="98a0a6c9r"><path d="M2.92-5.02c-1.34 0-1.95.54-1.95 1.55 0 .9.47 1.4 1.34 1.52L.87 0h1.1l1.36-1.88h1.04V0h.96v-5.02zm.11 2.47c-.81 0-1.1-.3-1.1-.9 0-.61.29-.86 1.1-.86h1.35v1.76zm0 0"/></symbol><symbol overflow="visible" id="98a0a6c9s"><path d="M5.95-6.77H1.1V0h.99v-2.92H5.3v-.77H2.08v-2.26h3.87zm0 0"/></symbol><symbol overflow="visible" id="98a0a6c9t"><path d="M2.83.14c.94 0 1.5-.39 1.81-.95h.08l.1.81h.76v-3.38c0-1.23-.69-1.8-2.13-1.8-1.43 0-2.03.65-2.18 1.6l.93.1c.11-.6.44-.93 1.22-.93.85 0 1.22.32 1.22 1.04v.34l-1.81.2C1.6-2.7 1.1-2.17 1.1-1.28c0 .92.64 1.42 1.72 1.42zm.25-.77c-.67 0-1.02-.28-1.02-.74 0-.44.28-.72 1-.82l1.58-.19v.41c0 .8-.6 1.34-1.56 1.34zm0 0"/></symbol><symbol overflow="visible" id="98a0a6c9u"><path d="M2.73.14c.9 0 1.43-.45 1.74-1.08h.06l.13.94h.8v-5.02h-.94v2.7c0 .98-.57 1.62-1.46 1.62-.75 0-1.1-.4-1.1-1.22v-3.1h-.93v3.32c0 1.17.55 1.84 1.7 1.84zm0 0"/></symbol><symbol overflow="visible" id="98a0a6c9v"><path d="M5.08-5.16c-.94 0-1.58.43-1.9 1.3h-.09l-.07-1.16H1.05v.77h1.1v3.48H.96V0h3.96v-.77H3.1v-1.46c0-1.36.6-2.05 1.83-2.05.4 0 .76.08 1.1.17l.15-.87c-.33-.11-.7-.18-1.11-.18zm0 0"/></symbol><symbol overflow="visible" id="98a0a6c9w"><path d="M3.42.14C5.1.14 5.9-.69 6.11-2.17l-.95-.1C4.96-1.19 4.5-.69 3.44-.69c-1.27 0-1.81-.94-1.81-2.69s.54-2.7 1.8-2.7c1.09 0 1.5.49 1.73 1.58l.93-.1c-.21-1.46-.95-2.3-2.62-2.3C1.53-6.9.62-5.6.62-3.38c0 2.2.91 3.51 2.8 3.51zm0 0"/></symbol><symbol overflow="visible" id="98a0a6c9x"><path d="M3.42-.86h-.08L1.77-5.02H.8L2.73 0h.41c-.33.95-.72 1.27-1.45 1.27-.22 0-.49-.04-.69-.08l-.1.73c.2.06.58.11.87.11 1.2 0 1.7-.7 2.21-2.03l1.94-5.02H5zm0 0"/></symbol><symbol overflow="visible" id="98a0a6c9y"><path d="M3.58-5.81c.42 0 .72-.22.72-.67 0-.44-.3-.68-.72-.68-.44 0-.72.24-.72.68 0 .45.28.67.72.67zm.5.8H1.52v.76h1.6v3.48h-1.8V0h4.46v-.77h-1.7zm0 0"/></symbol><symbol overflow="visible" id="98a0a6c9z"><path d="M3.92-7.14H1.36v.76h1.6v5.61H1.15V0H5.7v-.77H3.92zm0 0"/></symbol><symbol overflow="visible" id="98a0a6c9A"><path d="M3.34.14c1.43 0 2.13-.66 2.25-1.78l-.89-.1c-.1.7-.5 1.08-1.34 1.08-1.03 0-1.52-.64-1.52-1.84 0-1.23.47-1.86 1.52-1.86.84 0 1.23.36 1.34 1.08l.9-.1c-.13-1.09-.82-1.78-2.26-1.78-1.56 0-2.46.97-2.46 2.66 0 1.66.9 2.64 2.46 2.64zm0 0"/></symbol><symbol overflow="visible" id="98a0a6c9B"><path d="M3.36.16c1.4 0 2.2-.6 2.2-1.57 0-.89-.54-1.22-1.47-1.39L3-3c-.67-.14-.86-.33-.86-.73 0-.5.4-.74 1.17-.74.83 0 1.19.27 1.27.8l.9-.05c-.12-1-.8-1.47-2.17-1.47-1.34 0-2.1.53-2.1 1.5 0 .81.45 1.22 1.52 1.44l1.04.2c.56.11.87.24.87.72 0 .52-.45.78-1.28.78-.95 0-1.36-.28-1.42-.87l-.9.06C1.07-.36 1.8.16 3.35.16zm0 0"/></symbol><symbol overflow="visible" id="98a0a6c9C"><path d="M1.63 0v-2.9c0-.8.15-1.4.71-1.4.41 0 .55.3.55.88V0h.95v-2.9c0-.8.18-1.4.72-1.4.4 0 .57.3.57.88V0h.95v-3.63c0-.92-.28-1.53-1.11-1.53-.63 0-.95.41-1.1.9h-.06c-.1-.52-.44-.9-1.08-.9-.6 0-.93.41-1.06.9H1.6l-.23-.76H.67V0zm0 0"/></symbol><symbol overflow="visible" id="98a0a6c9D"><path d="M2.06 1.9V-.84h.05c.28.58.8.97 1.77.97 1.5 0 2.2-.98 2.2-2.66 0-1.65-.7-2.64-2.19-2.64-.97 0-1.5.44-1.78 1.05h-.08l-.1-.9H1.1v6.9zm1.5-2.56c-1.06 0-1.53-.8-1.53-1.86 0-1.04.47-1.84 1.53-1.84 1.11 0 1.53.61 1.53 1.84 0 1.27-.42 1.86-1.53 1.86zm0 0"/></symbol><symbol overflow="visible" id="98a0a6c9E"><path d="M1.45-2.95c0 2.56 1.08 4.37 3.67 4.84l.11-.67C3.28.86 2.43-.75 2.43-2.95s.85-3.82 2.8-4.16l-.1-.69c-2.6.49-3.68 2.3-3.68 4.85zm0 0"/></symbol><symbol overflow="visible" id="98a0a6c9F"><path d="M5.4-1.22c.43-.66.66-1.51.66-2.44l-.83-.09c0 .75-.14 1.4-.4 1.92l-1.7-1.83c.8-.42 1.39-.96 1.39-1.86 0-.87-.66-1.4-1.61-1.4-1.14 0-1.72.62-1.72 1.47 0 .72.47 1.3.83 1.68-.8.41-1.52.99-1.52 2.1C.5-.44 1.52.14 2.7.14c.9 0 1.64-.3 2.2-.78l.58.64h1.05zM2.86-6.25c.44 0 .82.23.82.73 0 .7-.47 1.11-1 1.41-.47-.53-.67-.92-.67-1.34 0-.47.3-.8.85-.8zM2.81-.62c-.83 0-1.42-.41-1.42-1.18 0-.76.5-1.18 1.05-1.5l1.94 2.1c-.4.37-.91.57-1.57.57zm0 0"/></symbol><symbol overflow="visible" id="98a0a6c9G"><path d="M5.67 0v-.86H2.14V-.9L3.6-2c1.05-.83 2-1.68 2-2.91 0-1.19-.73-1.99-2.26-1.99-1.66 0-2.3 1.02-2.44 2.33l1 .08c.1-.92.42-1.58 1.44-1.58.87 0 1.26.44 1.26 1.24 0 .9-.8 1.53-1.96 2.53L.83-.81V0zm0 0"/></symbol><symbol overflow="visible" id="98a0a6c9H"><path d="M1.45-7.1c1.96.33 2.8 1.94 2.8 4.15 0 2.2-.84 3.8-2.8 4.17l.11.67c2.58-.47 3.67-2.28 3.67-4.84 0-2.55-1.09-4.36-3.67-4.85zm0 0"/></symbol></defs><g fill="#fff"><use xlink:href="#98a0a6c9a" x="166.52" y="159"/><use xlink:href="#98a0a6c9b" x="210.12" y="159"/><use xlink:href="#98a0a6c9c" x="250.84" y="159"/><use xlink:href="#98a0a6c9d" x="292.84" y="159"/><use xlink:href="#98a0a6c9e" x="340.2" y="159"/><use xlink:href="#98a0a6c9f" x="390.52" y="159"/><use xlink:href="#98a0a6c9g" x="260" y="252"/><use xlink:href="#98a0a6c9h" x="266.667" y="252"/><use xlink:href="#98a0a6c9i" x="273.334" y="252"/><use xlink:href="#98a0a6c9j" x="280.001" y="252"/><use xlink:href="#98a0a6c9k" x="286.668" y="252"/><use xlink:href="#98a0a6c9l" x="293.335" y="252"/><use xlink:href="#98a0a6c9m" x="300.002" y="252"/><use xlink:href="#98a0a6c9n" x="306.669" y="252"/><use xlink:href="#98a0a6c9o" x="313.336" y="252"/><use xlink:href="#98a0a6c9p" x="320.003" y="252"/><use xlink:href="#98a0a6c9q" x="326.67" y="252"/><use xlink:href="#98a0a6c9r" x="333.337" y="252"/><g><use xlink:href="#98a0a6c9s" x="146.6667" y="266"/><use xlink:href="#98a0a6c9h" x="153.3337" y="266"/><use xlink:href="#98a0a6c9t" x="160.0007" y="266"/><use xlink:href="#98a0a6c9j" x="166.6677" y="266"/><use xlink:href="#98a0a6c9u" x="173.3347" y="266"/><use xlink:href="#98a0a6c9v" x="180.0017" y="266"/><use xlink:href="#98a0a6c9h" x="186.6687" y="266"/><use xlink:href="#98a0a6c9k" x="193.3357" y="266"/><use xlink:href="#98a0a6c9l" x="200.0027" y="266"/><use xlink:href="#98a0a6c9w" x="206.6697" y="266"/><use xlink:href="#98a0a6c9x" x="213.3367" y="266"/><use xlink:href="#98a0a6c9v" x="220.0037" y="266"/><use xlink:href="#98a0a6c9y" x="226.6707" y="266"/><use xlink:href="#98a0a6c9z" x="233.3377" y="266"/><use xlink:href="#98a0a6c9z" x="240.0047" y="266"/><use xlink:href="#98a0a6c9y" x="246.6717" y="266"/><use xlink:href="#98a0a6c9A" x="253.3387" y="266"/><use xlink:href="#98a0a6c9l" x="260.0057" y="266"/><use xlink:href="#98a0a6c9B" x="266.6727" y="266"/><use xlink:href="#98a0a6c9C" x="273.3397" y="266"/><use xlink:href="#98a0a6c9t" x="280.0067" y="266"/><use xlink:href="#98a0a6c9z" x="286.6737" y="266"/><use xlink:href="#98a0a6c9z" x="293.3407" y="266"/><use xlink:href="#98a0a6c9l" x="300.0077" y="266"/><use xlink:href="#98a0a6c9A" x="306.6747" y="266"/><use xlink:href="#98a0a6c9t" x="313.3417" y="266"/><use xlink:href="#98a0a6c9D" x="320.0087" y="266"/><use xlink:href="#98a0a6c9y" x="326.6757" y="266"/><use xlink:href="#98a0a6c9j" x="333.3427" y="266"/><use xlink:href="#98a0a6c9t" x="340.0097" y="266"/><use xlink:href="#98a0a6c9z" x="346.6767" y="266"/><use xlink:href="#98a0a6c9B" x="353.3437" y="266"/><use xlink:href="#98a0a6c9l" x="360.0107" y="266"/><use xlink:href="#98a0a6c9E" x="366.6777" y="266"/><use xlink:href="#98a0a6c9B" x="373.3447" y="266"/><use xlink:href="#98a0a6c9C" x="380.0117" y="266"/><use xlink:href="#98a0a6c9A" x="386.6787" y="266"/><use xlink:href="#98a0a6c9D" x="393.3457" y="266"/><use xlink:href="#98a0a6c9l" x="400.0127" y="266"/><use xlink:href="#98a0a6c9F" x="406.6797" y="266"/><use xlink:href="#98a0a6c9l" x="413.3467" y="266"/><use xlink:href="#98a0a6c9A" x="420.0137" y="266"/><use xlink:href="#98a0a6c9G" x="426.6807" y="266"/><use xlink:href="#98a0a6c9B" x="433.3477" y="266"/><use xlink:href="#98a0a6c9A" x="440.0147" y="266"/><use xlink:href="#98a0a6c9H" x="446.6817" y="266"/></g></g></svg>