<?xml version='1.0' encoding='UTF-8'?>
<svg xmlns="http://www.w3.org/2000/svg" xmlns:xlink="http://www.w3.org/1999/xlink" width="600px" height="300px" viewBox="0 0 600 300" x="0px" y="0px" enable-background="new 0 0 600 300"><defs><symbol overflow="visible" id="fb486ae4a"><path d="M25.44.95c11.12 0 17.76-6 17.76-16 0-7.18-3.6-12.15-9.84-14.07 5.05-1.93 7.92-6.4 7.92-12.65 0-9.43-6.16-15.03-16.33-15.03-13.67 0-20.72 9.67-20.72 28.88 0 19.2 7.2 28.87 21.2 28.87zm-.32-5.9c-9.53 0-14.17-7.28-14.17-22.97 0-15.67 4.4-22.95 13.7-22.95 6.15 0 9.91 3.59 9.91 9.51 0 6.08-4 9.67-11.2 9.67h-3.77v5.77h4.72c7.69 0 11.92 3.76 11.92 10.48 0 6.56-4.07 10.49-11.1 10.49zm0 0"/></symbol><symbol overflow="visible" id="fb486ae4b"><path d="M22.8.95c12.89 0 19.43-9.67 19.43-28.87 0-19.2-6.71-28.88-19.92-28.88-10.39 0-17.26 6.16-17.26 15.44 0 10.56 7.51 16.4 21.26 16.4 3.46 0 6.49-.56 9.2-1.68C35.29-12 31.14-4.95 22.8-4.95c-7.93 0-12.49-5.13-12.49-14.4 0-.57.1-1.21.17-1.77H3.77c-.08.64-.18 1.35-.18 2.17C3.6-6.41 10.64.95 22.8.95zM11.77-41.2c0-5.85 4.3-9.67 10.71-9.67 7.93 0 12.16 6 12.88 18.46a19.34 19.34 0 01-8.72 1.85c-9.69 0-14.87-3.75-14.87-10.64zm0 0"/></symbol><symbol overflow="visible" id="fb486ae4c"><path d="M25.52 16.16l6.4-1.6V.96c14.95-.4 23.92-8.73 23.92-22.4 0-10.8-5.92-17.68-15.28-17.68-9.69 0-15.04 6.07-15.04 17.12v16.88c-9.44-.4-15.04-6.57-15.04-16.72 0-6.24 2.08-11.68 6.08-16.32H9.52c-3.68 4.64-5.6 10.32-5.6 16.72C3.92-8 12.16.56 25.52.96zm6.4-38.47c0-6.9 2.95-10.74 8.64-10.74 5.36 0 8.72 4.49 8.72 11.61 0 10.08-6.4 16-17.36 16.32zm0 0"/></symbol><symbol overflow="visible" id="fb486ae4d"><path d="M3.83 0v-5.95H6.2v-.82H.45v.82h2.4V0zm0 0"/></symbol><symbol overflow="visible" id="fb486ae4e"><path d="M5.75-2.23v-.43c0-1.6-.9-2.51-2.42-2.51S.87-4.16.87-2.48c0 1.71.91 2.62 2.5 2.62 1.43 0 2.07-.56 2.29-1.52l-.9-.09c-.18.61-.59.9-1.35.9-.94 0-1.52-.54-1.58-1.66zm-2.4-2.2c.93 0 1.43.5 1.48 1.55H1.84c.08-1.07.6-1.56 1.5-1.56zm0 0"/></symbol><symbol overflow="visible" id="fb486ae4f"><path d="M1.83 0l1.42-2h.06l1.46 2H5.8L4-2.53l1.78-2.49H4.8L3.42-3.08h-.08l-1.4-1.94H.89l1.78 2.49L.84 0zm0 0"/></symbol><symbol overflow="visible" id="fb486ae4g"><path d="M5.52-4.25v-.77H3.17v-1.56h-.81l-.14 1.56H.75v.77h1.47v2.4c0 1.3.48 1.94 1.84 1.94C4.6.1 5.14 0 5.55-.14L5.4-.91c-.32.13-.72.2-1.13.2-.8 0-1.1-.37-1.1-1.23v-2.31zm0 0"/></symbol><symbol overflow="visible" id="fb486ae4h"><path d="M3.33-3.42c.47 0 .8-.27.8-.8 0-.51-.33-.8-.8-.8-.47 0-.8.29-.8.8 0 .53.33.8.8.8zm0 3.5c.47 0 .8-.27.8-.78 0-.53-.33-.82-.8-.82-.47 0-.8.29-.8.82 0 .51.33.78.8.78zm0 0"/></symbol><symbol overflow="visible" id="fb486ae4j"><path d="M3.48-7.28c-1.42 0-2.28.78-2.28 2.42V1.9h.94V-.7h.08c.2.44.69.85 1.64.85 1.25 0 2-.77 2-2.03 0-1.22-.84-1.72-1.56-1.81v-.07c.67-.1 1.28-.67 1.28-1.62 0-1.3-.83-1.9-2.1-1.9zm-.01.75c.76 0 1.2.36 1.2 1.22 0 .73-.36 1.23-1.2 1.23h-.44v.74h.44c.87 0 1.45.4 1.45 1.36 0 .93-.5 1.37-1.33 1.37-.9 0-1.45-.6-1.45-1.48v-2.86c0-1.05.42-1.58 1.33-1.58zm0 0"/></symbol><symbol overflow="visible" id="fb486ae4k"><path d="M3.33-7.28C1.66-7.28.87-6.08.87-3.56c0 2.48.79 3.7 2.46 3.7S5.8-1.08 5.8-3.56c0-2.52-.8-3.72-2.47-3.72zm0 .76c1.03 0 1.47.72 1.51 2.54H1.81c.06-1.82.5-2.54 1.52-2.54zm0 5.9c-1.06 0-1.47-.8-1.52-2.63h3.03C4.81-1.42 4.4-.62 3.33-.62zm0 0"/></symbol><symbol overflow="visible" id="fb486ae4l"><path d="M6.1-2.5c0-1.6-.87-2.48-2.33-2.64v-1.33H2.9v1.33C1.42-5 .58-4.1.58-2.5.58-.9 1.42-.02 2.9.13v1.76h.86V.13C5.23-.02 6.09-.9 6.09-2.5zm-4.7 0c0-1.17.46-1.78 1.52-1.9v3.8c-1.06-.13-1.51-.73-1.51-1.9zm2.33-1.9c1.08.12 1.54.73 1.54 1.9S4.8-.73 3.73-.6zm0 0"/></symbol><symbol overflow="visible" id="fb486ae4m"><path d="M5.95-6.77H1.1V0h.99v-2.92H5.3v-.77H2.08v-2.26h3.87zm0 0"/></symbol><symbol overflow="visible" id="fb486ae4n"><path d="M2.83.14c.94 0 1.5-.39 1.81-.95h.08l.1.81h.76v-3.38c0-1.23-.69-1.8-2.13-1.8-1.43 0-2.03.65-2.18 1.6l.93.1c.11-.6.44-.93 1.22-.93.85 0 1.22.32 1.22 1.04v.34l-1.81.2C1.6-2.7 1.1-2.17 1.1-1.28c0 .92.64 1.42 1.72 1.42zm.25-.77c-.67 0-1.02-.28-1.02-.74 0-.44.28-.72 1-.82l1.58-.19v.41c0 .8-.6 1.34-1.56 1.34zm0 0"/></symbol><symbol overflow="visible" id="fb486ae4o"><path d="M2.73.14c.9 0 1.43-.45 1.74-1.08h.06l.13.94h.8v-5.02h-.94v2.7c0 .98-.57 1.62-1.46 1.62-.75 0-1.1-.4-1.1-1.22v-3.1h-.93v3.32c0 1.17.55 1.84 1.7 1.84zm0 0"/></symbol><symbol overflow="visible" id="fb486ae4p"><path d="M5.08-5.16c-.94 0-1.58.43-1.9 1.3h-.09l-.07-1.16H1.05v.77h1.1v3.48H.96V0h3.96v-.77H3.1v-1.46c0-1.36.6-2.05 1.83-2.05.4 0 .76.08 1.1.17l.15-.87c-.33-.11-.7-.18-1.11-.18zm0 0"/></symbol><symbol overflow="visible" id="fb486ae4q"><path d="M3.42.14C5.1.14 5.9-.69 6.11-2.17l-.95-.1C4.96-1.19 4.5-.69 3.44-.69c-1.27 0-1.81-.94-1.81-2.69s.54-2.7 1.8-2.7c1.09 0 1.5.49 1.73 1.58l.93-.1c-.21-1.46-.95-2.3-2.62-2.3C1.53-6.9.62-5.6.62-3.38c0 2.2.91 3.51 2.8 3.51zm0 0"/></symbol><symbol overflow="visible" id="fb486ae4r"><path d="M3.36.16c1.4 0 2.2-.6 2.2-1.57 0-.89-.54-1.22-1.47-1.39L3-3c-.67-.14-.86-.33-.86-.73 0-.5.4-.74 1.17-.74.83 0 1.19.27 1.27.8l.9-.05c-.12-1-.8-1.47-2.17-1.47-1.34 0-2.1.53-2.1 1.5 0 .81.45 1.22 1.52 1.44l1.04.2c.56.11.87.24.87.72 0 .52-.45.78-1.28.78-.95 0-1.36-.28-1.42-.87l-.9.06C1.07-.36 1.8.16 3.35.16zm0 0"/></symbol><symbol overflow="visible" id="fb486ae4s"><path d="M3.58-5.81c.42 0 .72-.22.72-.67 0-.44-.3-.68-.72-.68-.44 0-.72.24-.72.68 0 .45.28.67.72.67zm.5.8H1.52v.76h1.6v3.48h-1.8V0h4.46v-.77h-1.7zm0 0"/></symbol><symbol overflow="visible" id="fb486ae4t"><path d="M3.9 0l2-5.02h-.96L3.4-.94h-.07L1.8-5.02H.77L2.78 0zm0 0"/></symbol><symbol overflow="visible" id="fb486ae4u"><path d="M4.63-6.5c.45 0 .98.08 1.39.2l.2-.72a5.3 5.3 0 00-1.64-.26c-1.52 0-2.16.56-2.16 1.87v.4H.9v.76h1.53V0h.94v-4.25h2.53v-.77H3.36v-.3c0-.84.33-1.18 1.27-1.18zm0 0"/></symbol><symbol overflow="visible" id="fb486ae4v"><path d="M3.33.14c1.62 0 2.5-.95 2.5-2.66 0-1.68-.88-2.64-2.5-2.64-1.63 0-2.5.96-2.5 2.64 0 1.7.87 2.66 2.5 2.66zm0-.77c-1.06 0-1.52-.6-1.52-1.89 0-1.28.46-1.87 1.52-1.87 1.08 0 1.53.6 1.53 1.87 0 1.29-.45 1.9-1.53 1.9zm0 0"/></symbol><symbol overflow="visible" id="fb486ae4w"><path d="M1.63 0v-2.9c0-.8.15-1.4.71-1.4.41 0 .55.3.55.88V0h.95v-2.9c0-.8.18-1.4.72-1.4.4 0 .57.3.57.88V0h.95v-3.63c0-.92-.28-1.53-1.11-1.53-.63 0-.95.41-1.1.9h-.06c-.1-.52-.44-.9-1.08-.9-.6 0-.93.41-1.06.9H1.6l-.23-.76H.67V0zm0 0"/></symbol><symbol overflow="visible" id="fb486ae4x"><path d="M3.55-2.73h1.67C5.09-1.45 4.58-.64 3.36-.64c-1.25 0-1.78-1.03-1.78-2.73 0-1.77.53-2.72 1.81-2.72.9 0 1.47.45 1.69 1.43l.95-.09C5.8-6 5.11-6.91 3.41-6.91 1.44-6.9.58-5.59.58-3.37.58-1.2 1.4.13 3.14.13c1.3 0 1.78-.73 2-1.36h.1L5.33 0h.75v-3.42H3.55zm0 0"/></symbol><symbol overflow="visible" id="fb486ae4y"><path d="M5.77-5.02H4.63L2.3-2.88h-.06v-4.26h-.94V0h.94v-2.31h.06L4.71 0h1.24L3.23-2.69zm0 0"/></symbol><symbol overflow="visible" id="fb486ae4z"><path d="M3.92-7.14H1.36v.76h1.6v5.61H1.15V0H5.7v-.77H3.92zm0 0"/></symbol><symbol overflow="visible" id="fb486ae4A"><path d="M1.45-2.95c0 2.56 1.08 4.37 3.67 4.84l.11-.67C3.28.86 2.43-.75 2.43-2.95s.85-3.82 2.8-4.16l-.1-.69c-2.6.49-3.68 2.3-3.68 4.85zm0 0"/></symbol><symbol overflow="visible" id="fb486ae4B"><path d="M4.22-6.77h-.86l-2.03.7v.87c.64-.17 1.26-.38 1.89-.55v4.9H1.03V0h4.9v-.86H4.21zm0 0"/></symbol><symbol overflow="visible" id="fb486ae4C"><path d="M1.45-7.1c1.96.33 2.8 1.94 2.8 4.15 0 2.2-.84 3.8-2.8 4.17l.11.67c2.58-.47 3.67-2.28 3.67-4.84 0-2.55-1.09-4.36-3.67-4.85zm0 0"/></symbol></defs><g fill="#fff"><use xlink:href="#fb486ae4a" x="224.04" y="159"/><use xlink:href="#fb486ae4b" x="270.2" y="159"/><use xlink:href="#fb486ae4c" x="316.68" y="159"/><use xlink:href="#fb486ae4d" x="270" y="252"/><use xlink:href="#fb486ae4e" x="276.667" y="252"/><use xlink:href="#fb486ae4f" x="283.334" y="252"/><use xlink:href="#fb486ae4g" x="290.001" y="252"/><use xlink:href="#fb486ae4h" x="296.668" y="252"/><use xlink:href="#fb486ae4i" x="303.335" y="252"/><use xlink:href="#fb486ae4j" x="310.002" y="252"/><use xlink:href="#fb486ae4k" x="316.669" y="252"/><use xlink:href="#fb486ae4l" x="323.336" y="252"/><g><use xlink:href="#fb486ae4m" x="130" y="266"/><use xlink:href="#fb486ae4e" x="136.667" y="266"/><use xlink:href="#fb486ae4n" x="143.334" y="266"/><use xlink:href="#fb486ae4g" x="150.001" y="266"/><use xlink:href="#fb486ae4o" x="156.668" y="266"/><use xlink:href="#fb486ae4p" x="163.335" y="266"/><use xlink:href="#fb486ae4e" x="170.002" y="266"/><use xlink:href="#fb486ae4h" x="176.669" y="266"/><use xlink:href="#fb486ae4i" x="183.336" y="266"/><use xlink:href="#fb486ae4q" x="190.003" y="266"/><use xlink:href="#fb486ae4o" x="196.67" y="266"/><use xlink:href="#fb486ae4p" x="203.337" y="266"/><use xlink:href="#fb486ae4r" x="210.004" y="266"/><use xlink:href="#fb486ae4s" x="216.671" y="266"/><use xlink:href="#fb486ae4t" x="223.338" y="266"/><use xlink:href="#fb486ae4e" x="230.005" y="266"/><use xlink:href="#fb486ae4i" x="236.672" y="266"/><use xlink:href="#fb486ae4u" x="243.339" y="266"/><use xlink:href="#fb486ae4v" x="250.006" y="266"/><use xlink:href="#fb486ae4p" x="256.673" y="266"/><use xlink:href="#fb486ae4w" x="263.34" y="266"/><use xlink:href="#fb486ae4r" x="270.007" y="266"/><use xlink:href="#fb486ae4i" x="276.674" y="266"/><use xlink:href="#fb486ae4v" x="283.341" y="266"/><use xlink:href="#fb486ae4u" x="290.008" y="266"/><use xlink:href="#fb486ae4i" x="296.675" y="266"/><use xlink:href="#fb486ae4r" x="303.342" y="266"/><use xlink:href="#fb486ae4v" x="310.009" y="266"/><use xlink:href="#fb486ae4w" x="316.676" y="266"/><use xlink:href="#fb486ae4e" x="323.343" y="266"/><use xlink:href="#fb486ae4i" x="330.01" y="266"/><use xlink:href="#fb486ae4x" x="336.677" y="266"/><use xlink:href="#fb486ae4p" x="343.344" y="266"/><use xlink:href="#fb486ae4e" x="350.011" y="266"/><use xlink:href="#fb486ae4e" x="356.678" y="266"/><use xlink:href="#fb486ae4y" x="363.345" y="266"/><use xlink:href="#fb486ae4i" x="370.012" y="266"/><use xlink:href="#fb486ae4z" x="376.679" y="266"/><use xlink:href="#fb486ae4e" x="383.346" y="266"/><use xlink:href="#fb486ae4g" x="390.013" y="266"/><use xlink:href="#fb486ae4g" x="396.68" y="266"/><use xlink:href="#fb486ae4e" x="403.347" y="266"/><use xlink:href="#fb486ae4p" x="410.014" y="266"/><use xlink:href="#fb486ae4r" x="416.681" y="266"/><use xlink:href="#fb486ae4i" x="423.348" y="266"/><use xlink:href="#fb486ae4A" x="430.015" y="266"/><use xlink:href="#fb486ae4r" x="436.682" y="266"/><use xlink:href="#fb486ae4r" x="443.349" y="266"/><use xlink:href="#fb486ae4B" x="450.016" y="266"/><use xlink:href="#fb486ae4B" x="456.683" y="266"/><use xlink:href="#fb486ae4C" x="463.35" y="266"/></g></g></svg>