<?xml version='1.0' encoding='UTF-8'?>
<svg xmlns="http://www.w3.org/2000/svg" xmlns:xlink="http://www.w3.org/1999/xlink" width="600px" height="300px" viewBox="0 0 600 300" x="0px" y="0px" enable-background="new 0 0 600 300"><defs><symbol overflow="visible" id="7bbd97b6a"><path d="M21.6.95c5.35 0 9.52-1.82 12.56-5.6l.8 4.65h5.35v-56.56l-6.72 1.69v20.8c-2.95-3.37-6.95-5.05-12-5.05-11.36 0-18.15 7.53-18.15 20.07 0 12.49 6.8 20 18.15 20zm-11.29-20c0-8.8 4.64-14 12.49-14 4.4 0 8 1.85 10.8 5.61v16.72a12.62 12.62 0 01-10.8 5.67c-7.85 0-12.49-5.26-12.49-14zm0 0"/></symbol><symbol overflow="visible" id="7bbd97b6b"><path d="M5.84 0h6.72v-26.72c2.56-4 6.31-6 11.2-6 1.11 0 2.08.16 3.04.4l.64-6.4c-1.03-.23-2.08-.4-3.36-.4-5.28 0-9.44 2-12.08 5.68l-.8-4.72H5.84zm0 0"/></symbol><symbol overflow="visible" id="7bbd97b6c"><path d="M21.6.95c5.35 0 9.52-1.82 12.56-5.6l.8 4.65h5.35v-38.16h-5.36l-.8 4.72c-3.02-3.76-7.2-5.69-12.56-5.69-11.36 0-18.15 7.54-18.15 20.08 0 12.49 6.8 20 18.15 20zm-11.29-20c0-8.8 4.64-14 12.49-14 4.4 0 8 1.85 10.8 5.61v16.72a12.62 12.62 0 01-10.8 5.67c-7.85 0-12.49-5.26-12.49-14zm0 0"/></symbol><symbol overflow="visible" id="7bbd97b6d"><path d="M21.6 0c5.04 0 9.04-1.69 12-4.95v4.08c0 7.51-4.4 11.67-12.32 11.67-4.97 0-9.05-1.68-12.56-4.32L5.36 11.2c4.4 3.52 9.84 5.28 16.23 5.28 11.93 0 18.72-6.64 18.72-18.4v-36.24h-5.36l-.8 4.72c-3.02-3.76-7.2-5.69-12.56-5.69-11.36 0-18.15 7.36-18.15 19.61C3.44-7.36 10.24 0 21.59 0zM10.3-19.52c0-8.56 4.64-13.68 12.49-13.68 4.4 0 8 1.84 10.8 5.6v16.08a12.62 12.62 0 01-10.8 5.68c-7.85 0-12.49-5.2-12.49-13.68zm0 0"/></symbol><symbol overflow="visible" id="7bbd97b6e"><path d="M23.05.95c12.3 0 19.67-7.51 19.67-20 0-12.54-7.36-20.07-19.67-20.07-12.25 0-19.61 7.53-19.61 20.07 0 12.49 7.36 20 19.6 20zm0-6c-7.93 0-12.74-5.26-12.74-14 0-8.8 4.81-14 12.74-14 8 0 12.72 5.2 12.72 14 0 8.74-4.72 14-12.72 14zm0 0"/></symbol><symbol overflow="visible" id="7bbd97b6f"><path d="M5.84 0h6.72v-27.44c2.72-3.6 6.4-5.6 10.96-5.6 5.6 0 8.96 3.35 8.96 8.96V0h6.72v-24.64c0-9.05-5.36-14.48-14.25-14.48-5.43 0-9.75 1.92-12.95 5.76l-.8-4.8H5.84zm0 0"/></symbol><symbol overflow="visible" id="7bbd97b6g"><path d="M3.83 0v-5.95H6.2v-.82H.45v.82h2.4V0zm0 0"/></symbol><symbol overflow="visible" id="7bbd97b6h"><path d="M5.75-2.23v-.43c0-1.6-.9-2.51-2.42-2.51S.87-4.16.87-2.48c0 1.71.91 2.62 2.5 2.62 1.43 0 2.07-.56 2.29-1.52l-.9-.09c-.18.61-.59.9-1.35.9-.94 0-1.52-.54-1.58-1.66zm-2.4-2.2c.93 0 1.43.5 1.48 1.55H1.84c.08-1.07.6-1.56 1.5-1.56zm0 0"/></symbol><symbol overflow="visible" id="7bbd97b6i"><path d="M1.83 0l1.42-2h.06l1.46 2H5.8L4-2.53l1.78-2.49H4.8L3.42-3.08h-.08l-1.4-1.94H.89l1.78 2.49L.84 0zm0 0"/></symbol><symbol overflow="visible" id="7bbd97b6j"><path d="M5.52-4.25v-.77H3.17v-1.56h-.81l-.14 1.56H.75v.77h1.47v2.4c0 1.3.48 1.94 1.84 1.94C4.6.1 5.14 0 5.55-.14L5.4-.91c-.32.13-.72.2-1.13.2-.8 0-1.1-.37-1.1-1.23v-2.31zm0 0"/></symbol><symbol overflow="visible" id="7bbd97b6k"><path d="M3.33-3.42c.47 0 .8-.27.8-.8 0-.51-.33-.8-.8-.8-.47 0-.8.29-.8.8 0 .53.33.8.8.8zm0 3.5c.47 0 .8-.27.8-.78 0-.53-.33-.82-.8-.82-.47 0-.8.29-.8.82 0 .51.33.78.8.78zm0 0"/></symbol><symbol overflow="visible" id="7bbd97b6m"><path d="M2.84.14C3.8.14 4.33-.26 4.6-.9h.07L4.8 0h.76v-7.14h-.95v2.95h-.08c-.28-.6-.86-.97-1.67-.97-1.48 0-2.27.99-2.27 2.64C.6-.84 1.36.14 2.84.14zm.22-.8c-.98 0-1.48-.59-1.48-1.84s.5-1.86 1.48-1.86c1.13 0 1.58.8 1.58 1.86S4.2-.66 3.06-.66zm0 0"/></symbol><symbol overflow="visible" id="7bbd97b6n"><path d="M5.08-5.16c-.94 0-1.58.43-1.9 1.3h-.09l-.07-1.16H1.05v.77h1.1v3.48H.96V0h3.96v-.77H3.1v-1.46c0-1.36.6-2.05 1.83-2.05.4 0 .76.08 1.1.17l.15-.87c-.33-.11-.7-.18-1.11-.18zm0 0"/></symbol><symbol overflow="visible" id="7bbd97b6o"><path d="M2.83.14c.94 0 1.5-.39 1.81-.95h.08l.1.81h.76v-3.38c0-1.23-.69-1.8-2.13-1.8-1.43 0-2.03.65-2.18 1.6l.93.1c.11-.6.44-.93 1.22-.93.85 0 1.22.32 1.22 1.04v.34l-1.81.2C1.6-2.7 1.1-2.17 1.1-1.28c0 .92.64 1.42 1.72 1.42zm.25-.77c-.67 0-1.02-.28-1.02-.74 0-.44.28-.72 1-.82l1.58-.19v.41c0 .8-.6 1.34-1.56 1.34zm0 0"/></symbol><symbol overflow="visible" id="7bbd97b6p"><path d="M3.16 2.03c1.67 0 2.4-.86 2.4-2.51v-4.54h-.81l-.13.91h-.06c-.26-.58-.8-1.05-1.73-1.05-1.42 0-2.24 1-2.24 2.52 0 1.6.75 2.56 2.2 2.56.94 0 1.5-.5 1.77-1.03h.05v.72c0 1.17-.42 1.67-1.45 1.67-.93 0-1.3-.34-1.41-.89L.8.5c.12.96.87 1.54 2.36 1.54zM3.06-.8c-.98 0-1.48-.57-1.48-1.82 0-1.13.5-1.75 1.48-1.75 1.06 0 1.58.76 1.58 1.75 0 .95-.56 1.82-1.58 1.82zm0 0"/></symbol><symbol overflow="visible" id="7bbd97b6q"><path d="M3.33.14c1.62 0 2.5-.95 2.5-2.66 0-1.68-.88-2.64-2.5-2.64-1.63 0-2.5.96-2.5 2.64 0 1.7.87 2.66 2.5 2.66zm0-.77c-1.06 0-1.52-.6-1.52-1.89 0-1.28.46-1.87 1.52-1.87 1.08 0 1.53.6 1.53 1.87 0 1.29-.45 1.9-1.53 1.9zm0 0"/></symbol><symbol overflow="visible" id="7bbd97b6r"><path d="M2.16 0v-2.67c0-.99.59-1.63 1.46-1.63.74 0 1.07.38 1.07 1.22V0h.95v-3.31c0-1.2-.56-1.85-1.67-1.85-.92 0-1.49.46-1.77 1.08h-.06l-.12-.94H1.2V0zm0 0"/></symbol><symbol overflow="visible" id="7bbd97b6s"><path d="M5.95-6.77H1.1V0h.99v-2.92H5.3v-.77H2.08v-2.26h3.87zm0 0"/></symbol><symbol overflow="visible" id="7bbd97b6t"><path d="M2.73.14c.9 0 1.43-.45 1.74-1.08h.06l.13.94h.8v-5.02h-.94v2.7c0 .98-.57 1.62-1.46 1.62-.75 0-1.1-.4-1.1-1.22v-3.1h-.93v3.32c0 1.17.55 1.84 1.7 1.84zm0 0"/></symbol><symbol overflow="visible" id="7bbd97b6u"><path d="M3.34.14c1.7 0 2.64-.75 2.64-2 0-1.1-.67-1.6-1.95-1.86l-.97-.2c-.84-.16-1.2-.49-1.2-1.11 0-.7.56-1.11 1.56-1.11.99 0 1.47.34 1.63 1.23L5.97-5C5.8-6.28 4.95-6.9 3.45-6.9 1.81-6.9.92-6.18.92-4.98c0 1.06.63 1.66 1.85 1.9l1.01.2c.85.17 1.25.4 1.25 1.09 0 .73-.6 1.16-1.66 1.16-1.1 0-1.6-.4-1.75-1.24l-.93.1C.84-.53 1.66.13 3.34.13zm0 0"/></symbol><symbol overflow="visible" id="7bbd97b6v"><path d="M3.58-5.81c.42 0 .72-.22.72-.67 0-.44-.3-.68-.72-.68-.44 0-.72.24-.72.68 0 .45.28.67.72.67zm.5.8H1.52v.76h1.6v3.48h-1.8V0h4.46v-.77h-1.7zm0 0"/></symbol><symbol overflow="visible" id="7bbd97b6w"><path d="M3.92-7.14H1.36v.76h1.6v5.61H1.15V0H5.7v-.77H3.92zm0 0"/></symbol><symbol overflow="visible" id="7bbd97b6x"><path d="M5.14-2.2v-.75h-3.6v.75zm0 0"/></symbol><symbol overflow="visible" id="7bbd97b6y"><path d="M3.36.16c1.4 0 2.2-.6 2.2-1.57 0-.89-.54-1.22-1.47-1.39L3-3c-.67-.14-.86-.33-.86-.73 0-.5.4-.74 1.17-.74.83 0 1.19.27 1.27.8l.9-.05c-.12-1-.8-1.47-2.17-1.47-1.34 0-2.1.53-2.1 1.5 0 .81.45 1.22 1.52 1.44l1.04.2c.56.11.87.24.87.72 0 .52-.45.78-1.28.78-.95 0-1.36-.28-1.42-.87l-.9.06C1.07-.36 1.8.16 3.35.16zm0 0"/></symbol><symbol overflow="visible" id="7bbd97b6z"><path d="M3.42-.86h-.08L1.77-5.02H.8L2.73 0h.41c-.33.95-.72 1.27-1.45 1.27-.22 0-.49-.04-.69-.08l-.1.73c.2.06.58.11.87.11 1.2 0 1.7-.7 2.21-2.03l1.94-5.02H5zm0 0"/></symbol><symbol overflow="visible" id="7bbd97b6A"><path d="M3.38-5.97c.1-.47.4-1 .64-1.34l-.58-.22c-.35.39-.96 1.39-.96 2.26 0 .6.32.93.86.93.55 0 .85-.32.85-.85 0-.51-.35-.78-.82-.78zm0 0"/></symbol><symbol overflow="visible" id="7bbd97b6B"><path d="M3.33-7.53c-.52 0-.8.28-.8.8 0 .51.33.76.78.76h.03c-.1.47-.4 1.02-.65 1.38l.5.2c.34-.4.95-1.36.95-2.25 0-.6-.31-.9-.81-.9zm0 0"/></symbol><symbol overflow="visible" id="7bbd97b6C"><path d="M1.45-2.95c0 2.56 1.08 4.37 3.67 4.84l.11-.67C3.28.86 2.43-.75 2.43-2.95s.85-3.82 2.8-4.16l-.1-.69c-2.6.49-3.68 2.3-3.68 4.85zm0 0"/></symbol><symbol overflow="visible" id="7bbd97b6D"><path d="M3.33.14c1.65 0 2.6-1.1 2.6-3.52S4.99-6.9 3.34-6.9C1.67-6.9.72-5.8.72-3.37c0 2.4.95 3.51 2.6 3.51zm0-.84c-1.13 0-1.6-.85-1.6-2.67 0-1.86.47-2.7 1.6-2.7 1.12 0 1.6.84 1.6 2.7 0 1.82-.48 2.67-1.6 2.67zM3.3-2.64c.38 0 .56-.28.56-.72 0-.44-.18-.7-.56-.7-.39 0-.56.26-.56.7 0 .44.17.72.56.72zm0 0"/></symbol><symbol overflow="visible" id="7bbd97b6E"><path d="M5.67 0v-.86H2.14V-.9L3.6-2c1.05-.83 2-1.68 2-2.91 0-1.19-.73-1.99-2.26-1.99-1.66 0-2.3 1.02-2.44 2.33l1 .08c.1-.92.42-1.58 1.44-1.58.87 0 1.26.44 1.26 1.24 0 .9-.8 1.53-1.96 2.53L.83-.81V0zm0 0"/></symbol><symbol overflow="visible" id="7bbd97b6F"><path d="M1.45-7.1c1.96.33 2.8 1.94 2.8 4.15 0 2.2-.84 3.8-2.8 4.17l.11.67c2.58-.47 3.67-2.28 3.67-4.84 0-2.55-1.09-4.36-3.67-4.85zm0 0"/></symbol></defs><g fill="#515151"><use xlink:href="#7bbd97b6a" x="171.12" y="159"/><use xlink:href="#7bbd97b6b" x="217.28" y="159"/></g><use xlink:href="#7bbd97b6c" x="245.84" y="159" fill="#fff"/><g fill="#515151"><use xlink:href="#7bbd97b6d" x="292" y="159"/><use xlink:href="#7bbd97b6e" x="338.16" y="159"/><use xlink:href="#7bbd97b6f" x="384.32" y="159"/></g><g fill="#fff"><use xlink:href="#7bbd97b6g" x="260" y="252"/><use xlink:href="#7bbd97b6h" x="266.667" y="252"/><use xlink:href="#7bbd97b6i" x="273.334" y="252"/><use xlink:href="#7bbd97b6j" x="280.001" y="252"/><use xlink:href="#7bbd97b6k" x="286.668" y="252"/><use xlink:href="#7bbd97b6l" x="293.335" y="252"/><use xlink:href="#7bbd97b6m" x="300.002" y="252"/><use xlink:href="#7bbd97b6n" x="306.669" y="252"/><use xlink:href="#7bbd97b6o" x="313.336" y="252"/><use xlink:href="#7bbd97b6p" x="320.003" y="252"/><use xlink:href="#7bbd97b6q" x="326.67" y="252"/><use xlink:href="#7bbd97b6r" x="333.337" y="252"/></g><g fill="#fff"><use xlink:href="#7bbd97b6s" x="166.6667" y="266"/><use xlink:href="#7bbd97b6h" x="173.3337" y="266"/><use xlink:href="#7bbd97b6o" x="180.0007" y="266"/><use xlink:href="#7bbd97b6j" x="186.6677" y="266"/><use xlink:href="#7bbd97b6t" x="193.3347" y="266"/><use xlink:href="#7bbd97b6n" x="200.0017" y="266"/><use xlink:href="#7bbd97b6h" x="206.6687" y="266"/><use xlink:href="#7bbd97b6k" x="213.3357" y="266"/><use xlink:href="#7bbd97b6l" x="220.0027" y="266"/><use xlink:href="#7bbd97b6u" x="226.6697" y="266"/><use xlink:href="#7bbd97b6v" x="233.3367" y="266"/><use xlink:href="#7bbd97b6r" x="240.0037" y="266"/><use xlink:href="#7bbd97b6p" x="246.6707" y="266"/><use xlink:href="#7bbd97b6w" x="253.3377" y="266"/><use xlink:href="#7bbd97b6h" x="260.0047" y="266"/><use xlink:href="#7bbd97b6x" x="266.6717" y="266"/><use xlink:href="#7bbd97b6y" x="273.3387" y="266"/><use xlink:href="#7bbd97b6j" x="280.0057" y="266"/><use xlink:href="#7bbd97b6q" x="286.6727" y="266"/><use xlink:href="#7bbd97b6n" x="293.3397" y="266"/><use xlink:href="#7bbd97b6h" x="300.0067" y="266"/><use xlink:href="#7bbd97b6z" x="306.6737" y="266"/><use xlink:href="#7bbd97b6l" x="313.3407" y="266"/><use xlink:href="#7bbd97b6w" x="320.0077" y="266"/><use xlink:href="#7bbd97b6h" x="326.6747" y="266"/><use xlink:href="#7bbd97b6j" x="333.3417" y="266"/><use xlink:href="#7bbd97b6j" x="340.0087" y="266"/><use xlink:href="#7bbd97b6h" x="346.6757" y="266"/><use xlink:href="#7bbd97b6n" x="353.3427" y="266"/><use xlink:href="#7bbd97b6l" x="360.0097" y="266"/><use xlink:href="#7bbd97b6A" x="366.6767" y="266"/><use xlink:href="#7bbd97b6o" x="373.3437" y="266"/><use xlink:href="#7bbd97b6B" x="380.0107" y="266"/><use xlink:href="#7bbd97b6l" x="386.6777" y="266"/><use xlink:href="#7bbd97b6C" x="393.3447" y="266"/><use xlink:href="#7bbd97b6y" x="400.0117" y="266"/><use xlink:href="#7bbd97b6y" x="406.6787" y="266"/><use xlink:href="#7bbd97b6D" x="413.3457" y="266"/><use xlink:href="#7bbd97b6E" x="420.0127" y="266"/><use xlink:href="#7bbd97b6F" x="426.6797" y="266"/></g></svg>