<?xml version='1.0' encoding='UTF-8'?>
<svg xmlns="http://www.w3.org/2000/svg" xmlns:xlink="http://www.w3.org/1999/xlink" width="600px" height="300px" viewBox="0 0 600 300" x="0px" y="0px" enable-background="new 0 0 600 300"><defs><symbol overflow="visible" id="f98e0b1ba"><path d="M6.8 0h7.04v-24.48h29.6V0h7.12v-53.77h-7.12v23.05h-29.6v-23.05H6.8zm0 0"/></symbol><symbol overflow="visible" id="f98e0b1bb"><path d="M2.16 11.52h21.43V6.88H10l8-7.11c3.69-3.2 5.6-6.64 5.6-10.08 0-5.85-4.08-9.53-10.48-9.53-4.8 0-8.71 1.76-11.6 5.12l3.6 3.03c2-2.08 4.47-3.44 7.52-3.44 3.52 0 5.67 2 5.67 5.2 0 2.41-1.67 4.8-5.36 8L2.15 7.53zm0 0"/></symbol><symbol overflow="visible" id="f98e0b1bc"><path d="M23.2.95c12.64 0 20.57-6.15 20.57-15.9 0-12.25-10.57-14.18-19.54-15.61-7.1-1.28-13.67-2.24-13.67-8.88 0-5.69 4.88-9.04 12.96-9.04 6.07 0 10.96 2 15.12 5.35L42.8-48c-5.11-4.48-11.52-6.72-19.28-6.72-12.24 0-20.08 6-20.08 15.44 0 11.84 10.33 13.69 19.2 15.2 7.28 1.2 14.08 2.4 14.08 9.28 0 5.93-5.13 9.52-13.52 9.52-6.48 0-11.92-2.4-16.48-6.31L2.48-6.72C8.08-1.59 15.05.95 23.2.95zm0 0"/></symbol><symbol overflow="visible" id="f98e0b1bd"><path d="M29.92.95c16.56 0 26.49-10.39 26.49-27.82 0-17.44-9.93-27.85-26.49-27.85S3.44-44.32 3.44-26.88C3.44-9.43 13.36.95 29.92.95zm0-6.39c-12 0-19.2-8-19.2-21.43 0-13.44 7.2-21.44 19.2-21.44 12.08 0 19.28 8 19.28 21.44 0 13.43-7.2 21.43-19.28 21.43zm0 0"/></symbol><symbol overflow="visible" id="f98e0b1be"><path d="M18.72 11.52h4.87V5.05h3.93V.72h-3.93V-19.2h-4.71L2.8.72v4.33h15.92zM7.84.72l10.88-13.36V.72zm0 0"/></symbol><symbol overflow="visible" id="f98e0b1bg"><path d="M1.77 2.08h14.39v-4.64H1.76zm0 0"/></symbol><symbol overflow="visible" id="f98e0b1bh"><path d="M6.56-15.92c2.08 0 3.28-1.2 3.28-3.28s-1.2-3.28-3.28-3.28-3.28 1.2-3.28 3.28c0 2.07 1.2 3.28 3.28 3.28zM4 11.52h5.13v-22.88H4zm0 0"/></symbol><symbol overflow="visible" id="f98e0b1bi"><path d="M4 11.52h5.13V-4.31a7.68 7.68 0 016.3-3.05c3.29 0 5.05 1.77 5.05 4.8v14.08h5.11V-2.95c0-5.77-3.28-9.05-9.1-9.05-3.29 0-5.93 1.13-7.77 3.36l-.49-2.72H4zm0 0"/></symbol><symbol overflow="visible" id="f98e0b1bj"><path d="M1.77-6.88H6.3v18.4h5.13v-18.4h7.6v-4.48h-7.6v-3.05c0-2.39 1.44-3.75 4.08-3.75 1.2 0 2.32.4 3.28.8l1.51-4a12.25 12.25 0 00-5.6-1.28c-5.35 0-8.4 2.87-8.4 8.08v3.2H1.77zm0 0"/></symbol><symbol overflow="visible" id="f98e0b1bk"><path d="M3.83 0v-5.95H6.2v-.82H.45v.82h2.4V0zm0 0"/></symbol><symbol overflow="visible" id="f98e0b1bl"><path d="M5.75-2.23v-.43c0-1.6-.9-2.51-2.42-2.51S.87-4.16.87-2.48c0 1.71.91 2.62 2.5 2.62 1.43 0 2.07-.56 2.29-1.52l-.9-.09c-.18.61-.59.9-1.35.9-.94 0-1.52-.54-1.58-1.66zm-2.4-2.2c.93 0 1.43.5 1.48 1.55H1.84c.08-1.07.6-1.56 1.5-1.56zm0 0"/></symbol><symbol overflow="visible" id="f98e0b1bm"><path d="M1.83 0l1.42-2h.06l1.46 2H5.8L4-2.53l1.78-2.49H4.8L3.42-3.08h-.08l-1.4-1.94H.89l1.78 2.49L.84 0zm0 0"/></symbol><symbol overflow="visible" id="f98e0b1bn"><path d="M5.52-4.25v-.77H3.17v-1.56h-.81l-.14 1.56H.75v.77h1.47v2.4c0 1.3.48 1.94 1.84 1.94C4.6.1 5.14 0 5.55-.14L5.4-.91c-.32.13-.72.2-1.13.2-.8 0-1.1-.37-1.1-1.23v-2.31zm0 0"/></symbol><symbol overflow="visible" id="f98e0b1bo"><path d="M3.33-3.42c.47 0 .8-.27.8-.8 0-.51-.33-.8-.8-.8-.47 0-.8.29-.8.8 0 .53.33.8.8.8zm0 3.5c.47 0 .8-.27.8-.78 0-.53-.33-.82-.8-.82-.47 0-.8.29-.8.82 0 .51.33.78.8.78zm0 0"/></symbol><symbol overflow="visible" id="f98e0b1bq"><path d="M1.9 0v-3.03h2.87V0h.98v-6.77h-.98v2.91H1.9v-2.9H.92V0zm0 0"/></symbol><symbol overflow="visible" id="f98e0b1br"><path d="M5.67 0v-.86H2.14V-.9L3.6-2c1.05-.83 2-1.68 2-2.91 0-1.19-.73-1.99-2.26-1.99-1.66 0-2.3 1.02-2.44 2.33l1 .08c.1-.92.42-1.58 1.44-1.58.87 0 1.26.44 1.26 1.24 0 .9-.8 1.53-1.96 2.53L.83-.81V0zm0 0"/></symbol><symbol overflow="visible" id="f98e0b1bs"><path d="M3.34.14c1.7 0 2.64-.75 2.64-2 0-1.1-.67-1.6-1.95-1.86l-.97-.2c-.84-.16-1.2-.49-1.2-1.11 0-.7.56-1.11 1.56-1.11.99 0 1.47.34 1.63 1.23L5.97-5C5.8-6.28 4.95-6.9 3.45-6.9 1.81-6.9.92-6.18.92-4.98c0 1.06.63 1.66 1.85 1.9l1.01.2c.85.17 1.25.4 1.25 1.09 0 .73-.6 1.16-1.66 1.16-1.1 0-1.6-.4-1.75-1.24l-.93.1C.84-.53 1.66.13 3.34.13zm0 0"/></symbol><symbol overflow="visible" id="f98e0b1bt"><path d="M3.33.14c1.9 0 2.76-1.27 2.76-3.52 0-2.26-.86-3.53-2.76-3.53S.58-5.64.58-3.37c0 2.25.86 3.51 2.75 3.51zM3.3-.67c-1.25 0-1.73-.95-1.73-2.7 0-1.77.5-2.72 1.75-2.72s1.75.95 1.75 2.71c0 1.75-.5 2.7-1.77 2.7zm0 0"/></symbol><symbol overflow="visible" id="f98e0b1bu"><path d="M5.1 0v-1.47H6v-.81h-.9v-4.49H3.8L.48-2.23v.76h3.66V0zM1.5-2.33l2.6-3.53h.04v3.58H1.5zm0 0"/></symbol><symbol overflow="visible" id="f98e0b1bv"><path d="M5.14-2.2v-.75h-3.6v.75zm0 0"/></symbol><symbol overflow="visible" id="f98e0b1bw"><path d="M3.58-5.81c.42 0 .72-.22.72-.67 0-.44-.3-.68-.72-.68-.44 0-.72.24-.72.68 0 .45.28.67.72.67zm.5.8H1.52v.76h1.6v3.48h-1.8V0h4.46v-.77h-1.7zm0 0"/></symbol><symbol overflow="visible" id="f98e0b1bx"><path d="M2.16 0v-2.67c0-.99.59-1.63 1.46-1.63.74 0 1.07.38 1.07 1.22V0h.95v-3.31c0-1.2-.56-1.85-1.67-1.85-.92 0-1.49.46-1.77 1.08h-.06l-.12-.94H1.2V0zm0 0"/></symbol><symbol overflow="visible" id="f98e0b1by"><path d="M4.63-6.5c.45 0 .98.08 1.39.2l.2-.72a5.3 5.3 0 00-1.64-.26c-1.52 0-2.16.56-2.16 1.87v.4H.9v.76h1.53V0h.94v-4.25h2.53v-.77H3.36v-.3c0-.84.33-1.18 1.27-1.18zm0 0"/></symbol><symbol overflow="visible" id="f98e0b1bz"><path d="M5.95-6.77H1.1V0h.99v-2.92H5.3v-.77H2.08v-2.26h3.87zm0 0"/></symbol><symbol overflow="visible" id="f98e0b1bA"><path d="M2.83.14c.94 0 1.5-.39 1.81-.95h.08l.1.81h.76v-3.38c0-1.23-.69-1.8-2.13-1.8-1.43 0-2.03.65-2.18 1.6l.93.1c.11-.6.44-.93 1.22-.93.85 0 1.22.32 1.22 1.04v.34l-1.81.2C1.6-2.7 1.1-2.17 1.1-1.28c0 .92.64 1.42 1.72 1.42zm.25-.77c-.67 0-1.02-.28-1.02-.74 0-.44.28-.72 1-.82l1.58-.19v.41c0 .8-.6 1.34-1.56 1.34zm0 0"/></symbol><symbol overflow="visible" id="f98e0b1bB"><path d="M2.73.14c.9 0 1.43-.45 1.74-1.08h.06l.13.94h.8v-5.02h-.94v2.7c0 .98-.57 1.62-1.46 1.62-.75 0-1.1-.4-1.1-1.22v-3.1h-.93v3.32c0 1.17.55 1.84 1.7 1.84zm0 0"/></symbol><symbol overflow="visible" id="f98e0b1bC"><path d="M5.08-5.16c-.94 0-1.58.43-1.9 1.3h-.09l-.07-1.16H1.05v.77h1.1v3.48H.96V0h3.96v-.77H3.1v-1.46c0-1.36.6-2.05 1.83-2.05.4 0 .76.08 1.1.17l.15-.87c-.33-.11-.7-.18-1.11-.18zm0 0"/></symbol><symbol overflow="visible" id="f98e0b1bD"><path d="M3.34.14c1.43 0 2.13-.66 2.25-1.78l-.89-.1c-.1.7-.5 1.08-1.34 1.08-1.03 0-1.52-.64-1.52-1.84 0-1.23.47-1.86 1.52-1.86.84 0 1.23.36 1.34 1.08l.9-.1c-.13-1.09-.82-1.78-2.26-1.78-1.56 0-2.46.97-2.46 2.66 0 1.66.9 2.64 2.46 2.64zm0 0"/></symbol><symbol overflow="visible" id="f98e0b1bE"><path d="M3.33.14c1.62 0 2.5-.95 2.5-2.66 0-1.68-.88-2.64-2.5-2.64-1.63 0-2.5.96-2.5 2.64 0 1.7.87 2.66 2.5 2.66zm0-.77c-1.06 0-1.52-.6-1.52-1.89 0-1.28.46-1.87 1.52-1.87 1.08 0 1.53.6 1.53 1.87 0 1.29-.45 1.9-1.53 1.9zm0 0"/></symbol><symbol overflow="visible" id="f98e0b1bF"><path d="M3.36.16c1.4 0 2.2-.6 2.2-1.57 0-.89-.54-1.22-1.47-1.39L3-3c-.67-.14-.86-.33-.86-.73 0-.5.4-.74 1.17-.74.83 0 1.19.27 1.27.8l.9-.05c-.12-1-.8-1.47-2.17-1.47-1.34 0-2.1.53-2.1 1.5 0 .81.45 1.22 1.52 1.44l1.04.2c.56.11.87.24.87.72 0 .52-.45.78-1.28.78-.95 0-1.36-.28-1.42-.87l-.9.06C1.07-.36 1.8.16 3.35.16zm0 0"/></symbol><symbol overflow="visible" id="f98e0b1bG"><path d="M1.45-2.95c0 2.56 1.08 4.37 3.67 4.84l.11-.67C3.28.86 2.43-.75 2.43-2.95s.85-3.82 2.8-4.16l-.1-.69c-2.6.49-3.68 2.3-3.68 4.85zm0 0"/></symbol><symbol overflow="visible" id="f98e0b1bH"><path d="M1.45-7.1c1.96.33 2.8 1.94 2.8 4.15 0 2.2-.84 3.8-2.8 4.17l.11.67c2.58-.47 3.67-2.28 3.67-4.84 0-2.55-1.09-4.36-3.67-4.85zm0 0"/></symbol></defs><use xlink:href="#f98e0b1ba" x="97.76" y="159" fill="#515151"/><use xlink:href="#f98e0b1bb" x="155.12" y="159" fill="#fff"/><g fill="#515151"><use xlink:href="#f98e0b1bc" x="181.36" y="159"/><use xlink:href="#f98e0b1bd" x="228.16" y="159"/></g><use xlink:href="#f98e0b1be" x="288" y="159" fill="#fff"/><g fill="#515151"><use xlink:href="#f98e0b1bf" x="318.32" y="159"/><use xlink:href="#f98e0b1ba" x="337.52" y="159"/></g><use xlink:href="#f98e0b1bb" x="394.88" y="159" fill="#fff"/><use xlink:href="#f98e0b1bg" x="421.12" y="159" fill="#fff"/><use xlink:href="#f98e0b1bh" x="439.04" y="159" fill="#fff"/><use xlink:href="#f98e0b1bi" x="452.16" y="159" fill="#fff"/><use xlink:href="#f98e0b1bj" x="481.44" y="159" fill="#fff"/><g fill="#fff"><use xlink:href="#f98e0b1bk" x="240" y="252"/><use xlink:href="#f98e0b1bl" x="246.667" y="252"/><use xlink:href="#f98e0b1bm" x="253.334" y="252"/><use xlink:href="#f98e0b1bn" x="260.001" y="252"/><use xlink:href="#f98e0b1bo" x="266.668" y="252"/><use xlink:href="#f98e0b1bp" x="273.335" y="252"/><use xlink:href="#f98e0b1bq" x="280.002" y="252"/><use xlink:href="#f98e0b1br" x="286.669" y="252"/><use xlink:href="#f98e0b1bs" x="293.336" y="252"/><use xlink:href="#f98e0b1bt" x="300.003" y="252"/><use xlink:href="#f98e0b1bu" x="306.67" y="252"/><use xlink:href="#f98e0b1bp" x="313.337" y="252"/><use xlink:href="#f98e0b1bq" x="320.004" y="252"/><use xlink:href="#f98e0b1br" x="326.671" y="252"/><use xlink:href="#f98e0b1bv" x="333.338" y="252"/><use xlink:href="#f98e0b1bw" x="340.005" y="252"/><use xlink:href="#f98e0b1bx" x="346.672" y="252"/><use xlink:href="#f98e0b1by" x="353.339" y="252"/></g><g fill="#fff"><use xlink:href="#f98e0b1bz" x="180" y="266"/><use xlink:href="#f98e0b1bl" x="186.667" y="266"/><use xlink:href="#f98e0b1bA" x="193.334" y="266"/><use xlink:href="#f98e0b1bn" x="200.001" y="266"/><use xlink:href="#f98e0b1bB" x="206.668" y="266"/><use xlink:href="#f98e0b1bC" x="213.335" y="266"/><use xlink:href="#f98e0b1bl" x="220.002" y="266"/><use xlink:href="#f98e0b1bo" x="226.669" y="266"/><use xlink:href="#f98e0b1bp" x="233.336" y="266"/><use xlink:href="#f98e0b1bs" x="240.003" y="266"/><use xlink:href="#f98e0b1bD" x="246.67" y="266"/><use xlink:href="#f98e0b1bw" x="253.337" y="266"/><use xlink:href="#f98e0b1bl" x="260.004" y="266"/><use xlink:href="#f98e0b1bx" x="266.671" y="266"/><use xlink:href="#f98e0b1bn" x="273.338" y="266"/><use xlink:href="#f98e0b1bw" x="280.005" y="266"/><use xlink:href="#f98e0b1by" x="286.672" y="266"/><use xlink:href="#f98e0b1bw" x="293.339" y="266"/><use xlink:href="#f98e0b1bD" x="300.006" y="266"/><use xlink:href="#f98e0b1bp" x="306.673" y="266"/><use xlink:href="#f98e0b1bw" x="313.34" y="266"/><use xlink:href="#f98e0b1bx" x="320.007" y="266"/><use xlink:href="#f98e0b1by" x="326.674" y="266"/><use xlink:href="#f98e0b1bl" x="333.341" y="266"/><use xlink:href="#f98e0b1bC" x="340.008" y="266"/><use xlink:href="#f98e0b1bw" x="346.675" y="266"/><use xlink:href="#f98e0b1bE" x="353.342" y="266"/><use xlink:href="#f98e0b1bC" x="360.009" y="266"/><use xlink:href="#f98e0b1bF" x="366.676" y="266"/><use xlink:href="#f98e0b1bp" x="373.343" y="266"/><use xlink:href="#f98e0b1bG" x="380.01" y="266"/><use xlink:href="#f98e0b1bF" x="386.677" y="266"/><use xlink:href="#f98e0b1bw" x="393.344" y="266"/><use xlink:href="#f98e0b1bx" x="400.011" y="266"/><use xlink:href="#f98e0b1by" x="406.678" y="266"/><use xlink:href="#f98e0b1bH" x="413.345" y="266"/></g></svg>