<?xml version='1.0' encoding='UTF-8'?>
<svg xmlns="http://www.w3.org/2000/svg" xmlns:xlink="http://www.w3.org/1999/xlink" width="600px" height="300px" viewBox="0 0 600 300" x="0px" y="0px" enable-background="new 0 0 600 300"><defs><symbol overflow="visible" id="fd1c40a6a"><path d="M18.23.95c9.61 0 15.7-4.54 15.7-11.75 0-9.36-8.09-10.56-14.57-11.43-4.8-.72-9.2-1.36-9.2-5.77 0-3.44 3.28-5.6 8.48-5.6 4.31 0 7.67 1.37 10.64 3.68l3.67-4.4c-3.6-3.12-8.39-4.8-14.3-4.8-9.3 0-15.21 4.4-15.21 11.28 0 8.89 7.76 10.07 14.15 11.04 4.97.8 9.61 1.52 9.61 6.16 0 3.77-3.43 6.08-8.97 6.08-4.71 0-8.64-1.75-12.07-4.57L2.48-4.8C6.72-1.05 11.84.95 18.23.95zm0 0"/></symbol><symbol overflow="visible" id="fd1c40a6b"><path d="M22.31.95c3.2 0 6.1-.64 8.64-1.9L29.2-6.41a15.04 15.04 0 01-5.92 1.36c-4.4 0-6.87-2.54-6.87-6.95v-20.23h12.64v-5.93H16.4v-12.32L9.69-48.8v10.64H2.08v5.93h7.6v20.54C9.69-3.59 14.24.95 22.32.95zm0 0"/></symbol><symbol overflow="visible" id="fd1c40a6c"><path d="M5.84 0h6.72v-26.72c2.56-4 6.31-6 11.2-6 1.11 0 2.08.16 3.04.4l.64-6.4c-1.03-.23-2.08-.4-3.36-.4-5.28 0-9.44 2-12.08 5.68l-.8-4.72H5.84zm0 0"/></symbol><symbol overflow="visible" id="fd1c40a6d"><path d="M16.95.95c5.2 0 9.36-1.82 12.33-5.43L30 0h5.36v-23.92c0-9.85-5.44-15.2-15.67-15.2-5.61 0-10.57 1.43-14.82 4.32l3.54 4.72a19.85 19.85 0 0110.95-3.28c6.16 0 9.44 3.13 9.44 9.13v3.18a23.38 23.38 0 00-9.93-2.07c-9.92 0-15.92 4.4-15.92 12.07 0 7.28 5.61 12 14 12zM9.7-11.28c0-4.56 3.9-7.2 10.23-7.2 3.28 0 6.24.8 8.88 2.4v6.56C26.48-6 22.95-4.08 18.48-4.08c-5.2 0-8.8-2.72-8.8-7.2zm0 0"/></symbol><symbol overflow="visible" id="fd1c40a6e"><path d="M5.84 0h6.72v-38.64c0-7.84 4.08-12.23 11.36-12.23 6.72 0 10.64 3.59 10.64 9.59 0 6.16-4 9.6-11.2 9.6h-3.77v5.76h4.72c7.77 0 11.92 3.76 11.92 10.48 0 6.56-4 10.49-10.64 10.49-2.46 0-4.95-.49-7.18-1.28L16.95-.72a27.02 27.02 0 009.7 1.67c10.3 0 16.55-6 16.55-16 0-7.18-3.6-12.15-9.84-14.07 5.05-1.93 7.92-6.32 7.92-12.57 0-9.44-6.48-15.1-17.2-15.1-11.6 0-18.24 6.56-18.24 18.3zm0 0"/></symbol><symbol overflow="visible" id="fd1c40a6f"><path d="M22.8.95c7.76 0 13.43-3.03 17.04-9.1l-5.76-2.33c-2.4 3.76-5.92 5.92-11.13 5.92-7.67 0-12.39-4.57-13.03-12.49h30.8c.08-.95.08-1.82.08-2.64 0-12.08-6.96-19.43-18.24-19.43-11.68 0-19.12 7.76-19.12 20.07 0 12.49 7.28 20 19.36 20zm-.24-34.72c6.88 0 11.13 4.33 11.75 11.93H10c.95-7.44 5.6-11.93 12.56-11.93zm0 0"/></symbol><symbol overflow="visible" id="fd1c40a6g"><path d="M23.2.95c12.64 0 20.57-6.15 20.57-15.9 0-12.25-10.57-14.18-19.54-15.61-7.1-1.28-13.67-2.24-13.67-8.88 0-5.69 4.88-9.04 12.96-9.04 6.07 0 10.96 2 15.12 5.35L42.8-48c-5.11-4.48-11.52-6.72-19.28-6.72-12.24 0-20.08 6-20.08 15.44 0 11.84 10.33 13.69 19.2 15.2 7.28 1.2 14.08 2.4 14.08 9.28 0 5.93-5.13 9.52-13.52 9.52-6.48 0-11.92-2.4-16.48-6.31L2.48-6.72C8.08-1.59 15.05.95 23.2.95zm0 0"/></symbol><symbol overflow="visible" id="fd1c40a6h"><path d="M20.31 0h7.05v-47.52h18.33v-6.25H2.08v6.25H20.3zm0 0"/></symbol><symbol overflow="visible" id="fd1c40a6i"><path d="M6.8 0h6.89v-20.95H24L38.8 0h8.25L31.77-21.2c9.03-1.11 14.3-6.88 14.3-16.16 0-10.64-6.38-16.4-17.76-16.4H6.8zm21.04-47.77c7.11 0 11.11 3.77 11.11 10.41 0 6.64-4 10.31-11.1 10.31H13.68v-20.72zm0 0"/></symbol><symbol overflow="visible" id="fd1c40a6j"><path d="M2 0h7.36l6.08-14.8h25.2L46.72 0h7.36L31.59-53.77h-7.1zm26.08-45.77l10.15 25.13H17.84zm0 0"/></symbol><symbol overflow="visible" id="fd1c40a6k"><path d="M6.8 0h36.33v-6H13.84v-18.31h20.64v-5.92H13.84v-17.54h28.32v-6H6.8zm0 0"/></symbol><symbol overflow="visible" id="fd1c40a6l"><path d="M3.83 0v-5.95H6.2v-.82H.45v.82h2.4V0zm0 0"/></symbol><symbol overflow="visible" id="fd1c40a6m"><path d="M5.75-2.23v-.43c0-1.6-.9-2.51-2.42-2.51S.87-4.16.87-2.48c0 1.71.91 2.62 2.5 2.62 1.43 0 2.07-.56 2.29-1.52l-.9-.09c-.18.61-.59.9-1.35.9-.94 0-1.52-.54-1.58-1.66zm-2.4-2.2c.93 0 1.43.5 1.48 1.55H1.84c.08-1.07.6-1.56 1.5-1.56zm0 0"/></symbol><symbol overflow="visible" id="fd1c40a6n"><path d="M1.83 0l1.42-2h.06l1.46 2H5.8L4-2.53l1.78-2.49H4.8L3.42-3.08h-.08l-1.4-1.94H.89l1.78 2.49L.84 0zm0 0"/></symbol><symbol overflow="visible" id="fd1c40a6o"><path d="M5.52-4.25v-.77H3.17v-1.56h-.81l-.14 1.56H.75v.77h1.47v2.4c0 1.3.48 1.94 1.84 1.94C4.6.1 5.14 0 5.55-.14L5.4-.91c-.32.13-.72.2-1.13.2-.8 0-1.1-.37-1.1-1.23v-2.31zm0 0"/></symbol><symbol overflow="visible" id="fd1c40a6p"><path d="M3.33-3.42c.47 0 .8-.27.8-.8 0-.51-.33-.8-.8-.8-.47 0-.8.29-.8.8 0 .53.33.8.8.8zm0 3.5c.47 0 .8-.27.8-.78 0-.53-.33-.82-.8-.82-.47 0-.8.29-.8.82 0 .51.33.78.8.78zm0 0"/></symbol><symbol overflow="visible" id="fd1c40a6r"><path d="M3.36.16c1.4 0 2.2-.6 2.2-1.57 0-.89-.54-1.22-1.47-1.39L3-3c-.67-.14-.86-.33-.86-.73 0-.5.4-.74 1.17-.74.83 0 1.19.27 1.27.8l.9-.05c-.12-1-.8-1.47-2.17-1.47-1.34 0-2.1.53-2.1 1.5 0 .81.45 1.22 1.52 1.44l1.04.2c.56.11.87.24.87.72 0 .52-.45.78-1.28.78-.95 0-1.36-.28-1.42-.87l-.9.06C1.07-.36 1.8.16 3.35.16zm0 0"/></symbol><symbol overflow="visible" id="fd1c40a6s"><path d="M5.08-5.16c-.94 0-1.58.43-1.9 1.3h-.09l-.07-1.16H1.05v.77h1.1v3.48H.96V0h3.96v-.77H3.1v-1.46c0-1.36.6-2.05 1.83-2.05.4 0 .76.08 1.1.17l.15-.87c-.33-.11-.7-.18-1.11-.18zm0 0"/></symbol><symbol overflow="visible" id="fd1c40a6t"><path d="M2.83.14c.94 0 1.5-.39 1.81-.95h.08l.1.81h.76v-3.38c0-1.23-.69-1.8-2.13-1.8-1.43 0-2.03.65-2.18 1.6l.93.1c.11-.6.44-.93 1.22-.93.85 0 1.22.32 1.22 1.04v.34l-1.81.2C1.6-2.7 1.1-2.17 1.1-1.28c0 .92.64 1.42 1.72 1.42zm.25-.77c-.67 0-1.02-.28-1.02-.74 0-.44.28-.72 1-.82l1.58-.19v.41c0 .8-.6 1.34-1.56 1.34zm0 0"/></symbol><symbol overflow="visible" id="fd1c40a6u"><path d="M3.77.14c1.3 0 2.14-.6 2.14-2 0-1.33-.97-1.86-1.8-1.89v-.06c.64-.13 1.3-.61 1.3-1.66 0-1.1-.83-1.81-2.13-1.81-1.5 0-2.26.83-2.26 2.53V0h.95v-4.8c0-1.23.37-1.73 1.31-1.73.77 0 1.24.44 1.24 1.14 0 .87-.58 1.31-1.38 1.31h-.17v.75h.22c1.06 0 1.8.36 1.8 1.4 0 1-.54 1.32-1.41 1.32a3.6 3.6 0 01-.86-.1l-.1.7c.38.09.74.15 1.15.15zm0 0"/></symbol><symbol overflow="visible" id="fd1c40a6v"><path d="M3.34.14c1.7 0 2.64-.75 2.64-2 0-1.1-.67-1.6-1.95-1.86l-.97-.2c-.84-.16-1.2-.49-1.2-1.11 0-.7.56-1.11 1.56-1.11.99 0 1.47.34 1.63 1.23L5.97-5C5.8-6.28 4.95-6.9 3.45-6.9 1.81-6.9.92-6.18.92-4.98c0 1.06.63 1.66 1.85 1.9l1.01.2c.85.17 1.25.4 1.25 1.09 0 .73-.6 1.16-1.66 1.16-1.1 0-1.6-.4-1.75-1.24l-.93.1C.84-.53 1.66.13 3.34.13zm0 0"/></symbol><symbol overflow="visible" id="fd1c40a6w"><path d="M4.06-2.77c1.25-.04 1.92-.7 1.92-1.96 0-1.36-.7-2.04-2.17-2.04H.92V0h.97v-2.73h1.08L4.95 0h1.1zM1.9-6h1.7c1.07 0 1.46.34 1.46 1.28 0 .9-.44 1.27-1.47 1.27H1.89zm0 0"/></symbol><symbol overflow="visible" id="fd1c40a6x"><path d="M6.17 0L3.98-6.77h-1.3L.5 0h.97l.44-1.47h2.78L5.16 0zM3.28-5.94h.08l1.1 3.74H2.15zm0 0"/></symbol><symbol overflow="visible" id="fd1c40a6y"><path d="M3.9.14c1.41 0 2.16-.67 2.16-1.95 0-1.27-.84-1.77-2.06-1.85l1.69-2.2v-.58c-.7-.31-1.6-.47-2.32-.47C1.78-6.9.9-6.17.9-4.2V0h.92v-4.22c0-1.4.5-1.9 1.53-1.9.43 0 .96.06 1.36.23v.03l-1.62 2.2v.57c1.44 0 2.06.34 2.06 1.26 0 .86-.56 1.2-1.39 1.2-.38 0-.81-.06-1.1-.14l-.1.74c.36.1.9.17 1.36.17zm0 0"/></symbol><symbol overflow="visible" id="fd1c40a6z"><path d="M5.92-6.77H1.1V0h4.83v-.8H2.06v-2.26h3.22v-.75H2.06v-2.16h3.86zm0 0"/></symbol><symbol overflow="visible" id="fd1c40a6A"><path d="M5.95-6.77H1.1V0h.99v-2.92H5.3v-.77H2.08v-2.26h3.87zm0 0"/></symbol><symbol overflow="visible" id="fd1c40a6B"><path d="M2.73.14c.9 0 1.43-.45 1.74-1.08h.06l.13.94h.8v-5.02h-.94v2.7c0 .98-.57 1.62-1.46 1.62-.75 0-1.1-.4-1.1-1.22v-3.1h-.93v3.32c0 1.17.55 1.84 1.7 1.84zm0 0"/></symbol><symbol overflow="visible" id="fd1c40a6C"><path d="M3.92-7.14H1.36v.76h1.6v5.61H1.15V0H5.7v-.77H3.92zm0 0"/></symbol><symbol overflow="visible" id="fd1c40a6D"><path d="M2.16 0v-2.67c0-.99.59-1.63 1.46-1.63.74 0 1.07.38 1.07 1.22V0h.95v-3.31c0-1.2-.56-1.85-1.67-1.85-.92 0-1.49.46-1.77 1.08h-.06l-.12-.94H1.2V0zm0 0"/></symbol><symbol overflow="visible" id="fd1c40a6E"><path d="M3.58-5.81c.42 0 .72-.22.72-.67 0-.44-.3-.68-.72-.68-.44 0-.72.24-.72.68 0 .45.28.67.72.67zm.5.8H1.52v.76h1.6v3.48h-1.8V0h4.46v-.77h-1.7zm0 0"/></symbol><symbol overflow="visible" id="fd1c40a6F"><path d="M3.9 0l2-5.02h-.96L3.4-.94h-.07L1.8-5.02H.77L2.78 0zm0 0"/></symbol><symbol overflow="visible" id="fd1c40a6G"><path d="M3.34.14c1.43 0 2.13-.66 2.25-1.78l-.89-.1c-.1.7-.5 1.08-1.34 1.08-1.03 0-1.52-.64-1.52-1.84 0-1.23.47-1.86 1.52-1.86.84 0 1.23.36 1.34 1.08l.9-.1c-.13-1.09-.82-1.78-2.26-1.78-1.56 0-2.46.97-2.46 2.66 0 1.66.9 2.64 2.46 2.64zm0 0"/></symbol><symbol overflow="visible" id="fd1c40a6H"><path d="M3.16 2.03c1.67 0 2.4-.86 2.4-2.51v-4.54h-.81l-.13.91h-.06c-.26-.58-.8-1.05-1.73-1.05-1.42 0-2.24 1-2.24 2.52 0 1.6.75 2.56 2.2 2.56.94 0 1.5-.5 1.77-1.03h.05v.72c0 1.17-.42 1.67-1.45 1.67-.93 0-1.3-.34-1.41-.89L.8.5c.12.96.87 1.54 2.36 1.54zM3.06-.8c-.98 0-1.48-.57-1.48-1.82 0-1.13.5-1.75 1.48-1.75 1.06 0 1.58.76 1.58 1.75 0 .95-.56 1.82-1.58 1.82zm0 0"/></symbol><symbol overflow="visible" id="fd1c40a6I"><path d="M4.63-6.5c.45 0 .98.08 1.39.2l.2-.72a5.3 5.3 0 00-1.64-.26c-1.52 0-2.16.56-2.16 1.87v.4H.9v.76h1.53V0h.94v-4.25h2.53v-.77H3.36v-.3c0-.84.33-1.18 1.27-1.18zm0 0"/></symbol><symbol overflow="visible" id="fd1c40a6J"><path d="M3.33.14c1.62 0 2.5-.95 2.5-2.66 0-1.68-.88-2.64-2.5-2.64-1.63 0-2.5.96-2.5 2.64 0 1.7.87 2.66 2.5 2.66zm0-.77c-1.06 0-1.52-.6-1.52-1.89 0-1.28.46-1.87 1.52-1.87 1.08 0 1.53.6 1.53 1.87 0 1.29-.45 1.9-1.53 1.9zm0 0"/></symbol><symbol overflow="visible" id="fd1c40a6K"><path d="M3.55-2.73h1.67C5.09-1.45 4.58-.64 3.36-.64c-1.25 0-1.78-1.03-1.78-2.73 0-1.77.53-2.72 1.81-2.72.9 0 1.47.45 1.69 1.43l.95-.09C5.8-6 5.11-6.91 3.41-6.91 1.44-6.9.58-5.59.58-3.37.58-1.2 1.4.13 3.14.13c1.3 0 1.78-.73 2-1.36h.1L5.33 0h.75v-3.42H3.55zm0 0"/></symbol><symbol overflow="visible" id="fd1c40a6L"><path d="M1.63 0v-2.9c0-.8.15-1.4.71-1.4.41 0 .55.3.55.88V0h.95v-2.9c0-.8.18-1.4.72-1.4.4 0 .57.3.57.88V0h.95v-3.63c0-.92-.28-1.53-1.11-1.53-.63 0-.95.41-1.1.9h-.06c-.1-.52-.44-.9-1.08-.9-.6 0-.93.41-1.06.9H1.6l-.23-.76H.67V0zm0 0"/></symbol><symbol overflow="visible" id="fd1c40a6M"><path d="M5.55 0v-.75H2.3v-.06l3.2-3.49v-.72H1.2v.75H4.3v.07L1.11-.72V0zm0 0"/></symbol><symbol overflow="visible" id="fd1c40a6N"><path d="M1.45-2.95c0 2.56 1.08 4.37 3.67 4.84l.11-.67C3.28.86 2.43-.75 2.43-2.95s.85-3.82 2.8-4.16l-.1-.69c-2.6.49-3.68 2.3-3.68 4.85zm0 0"/></symbol><symbol overflow="visible" id="fd1c40a6O"><path d="M4.22-6.77h-.86l-2.03.7v.87c.64-.17 1.26-.38 1.89-.55v4.9H1.03V0h4.9v-.86H4.21zm0 0"/></symbol><symbol overflow="visible" id="fd1c40a6P"><path d="M3.42.14c1.55 0 2.44-.84 2.44-2.33 0-1.45-.83-2.22-2.14-2.22-.75 0-1.28.27-1.67.72H2l.31-2.22h3.11v-.86H1.53l-.45 3.93h.81c.3-.36.9-.79 1.58-.79.92 0 1.44.43 1.44 1.47 0 .99-.54 1.5-1.49 1.5-.83 0-1.28-.32-1.5-1.01l-.95.1C1.07-.46 2 .13 3.42.13zm0 0"/></symbol><symbol overflow="visible" id="fd1c40a6Q"><path d="M1.45-7.1c1.96.33 2.8 1.94 2.8 4.15 0 2.2-.84 3.8-2.8 4.17l.11.67c2.58-.47 3.67-2.28 3.67-4.84 0-2.55-1.09-4.36-3.67-4.85zm0 0"/></symbol></defs><g fill="#515151"><use xlink:href="#fd1c40a6a" x="185.04" y="119"/><use xlink:href="#fd1c40a6b" x="221.92" y="119"/><use xlink:href="#fd1c40a6c" x="255.28" y="119"/></g><g fill="#515151"><use xlink:href="#fd1c40a6d" x="283.84" y="119"/><use xlink:href="#fd1c40a6e" x="324.56" y="119"/><use xlink:href="#fd1c40a6f" x="370.72" y="119"/></g><g fill="#515151"><use xlink:href="#fd1c40a6g" x="129.48" y="199"/><use xlink:href="#fd1c40a6h" x="176.28" y="199"/><use xlink:href="#fd1c40a6i" x="224.04" y="199"/></g><use xlink:href="#fd1c40a6j" x="275.48" y="199" fill="#515151"/><g fill="#fff"><use xlink:href="#fd1c40a6g" x="331.56" y="199"/><use xlink:href="#fd1c40a6g" x="378.36" y="199"/></g><use xlink:href="#fd1c40a6k" x="425.16" y="199" fill="#515151"/><g fill="#fff"><use xlink:href="#fd1c40a6l" x="236.6667" y="252"/><use xlink:href="#fd1c40a6m" x="243.3337" y="252"/><use xlink:href="#fd1c40a6n" x="250.0007" y="252"/><use xlink:href="#fd1c40a6o" x="256.6677" y="252"/><use xlink:href="#fd1c40a6p" x="263.3347" y="252"/><use xlink:href="#fd1c40a6q" x="270.0017" y="252"/><use xlink:href="#fd1c40a6r" x="276.6687" y="252"/><use xlink:href="#fd1c40a6o" x="283.3357" y="252"/><use xlink:href="#fd1c40a6s" x="290.0027" y="252"/><use xlink:href="#fd1c40a6t" x="296.6697" y="252"/><use xlink:href="#fd1c40a6u" x="303.3367" y="252"/><use xlink:href="#fd1c40a6m" x="310.0037" y="252"/><use xlink:href="#fd1c40a6q" x="316.6707" y="252"/><use xlink:href="#fd1c40a6v" x="323.3377" y="252"/><use xlink:href="#fd1c40a6l" x="330.0047" y="252"/><use xlink:href="#fd1c40a6w" x="336.6717" y="252"/><use xlink:href="#fd1c40a6x" x="343.3387" y="252"/><use xlink:href="#fd1c40a6y" x="350.0057" y="252"/><use xlink:href="#fd1c40a6z" x="356.6727" y="252"/><use xlink:href="#fd1c40a6q" x="363.3397" y="252"/></g><g fill="#fff"><use xlink:href="#fd1c40a6A" x="126.6667" y="266"/><use xlink:href="#fd1c40a6m" x="133.3337" y="266"/><use xlink:href="#fd1c40a6t" x="140.0007" y="266"/><use xlink:href="#fd1c40a6o" x="146.6677" y="266"/><use xlink:href="#fd1c40a6B" x="153.3347" y="266"/><use xlink:href="#fd1c40a6s" x="160.0017" y="266"/><use xlink:href="#fd1c40a6m" x="166.6687" y="266"/><use xlink:href="#fd1c40a6p" x="173.3357" y="266"/><use xlink:href="#fd1c40a6q" x="180.0027" y="266"/><use xlink:href="#fd1c40a6x" x="186.6697" y="266"/><use xlink:href="#fd1c40a6C" x="193.3367" y="266"/><use xlink:href="#fd1c40a6o" x="200.0037" y="266"/><use xlink:href="#fd1c40a6m" x="206.6707" y="266"/><use xlink:href="#fd1c40a6s" x="213.3377" y="266"/><use xlink:href="#fd1c40a6D" x="220.0047" y="266"/><use xlink:href="#fd1c40a6t" x="226.6717" y="266"/><use xlink:href="#fd1c40a6o" x="233.3387" y="266"/><use xlink:href="#fd1c40a6E" x="240.0057" y="266"/><use xlink:href="#fd1c40a6F" x="246.6727" y="266"/><use xlink:href="#fd1c40a6m" x="253.3397" y="266"/><use xlink:href="#fd1c40a6q" x="260.0067" y="266"/><use xlink:href="#fd1c40a6G" x="266.6737" y="266"/><use xlink:href="#fd1c40a6t" x="273.3407" y="266"/><use xlink:href="#fd1c40a6r" x="280.0077" y="266"/><use xlink:href="#fd1c40a6E" x="286.6747" y="266"/><use xlink:href="#fd1c40a6D" x="293.3417" y="266"/><use xlink:href="#fd1c40a6H" x="300.0087" y="266"/><use xlink:href="#fd1c40a6q" x="306.6757" y="266"/><use xlink:href="#fd1c40a6I" x="313.3427" y="266"/><use xlink:href="#fd1c40a6J" x="320.0097" y="266"/><use xlink:href="#fd1c40a6s" x="326.6767" y="266"/><use xlink:href="#fd1c40a6q" x="333.3437" y="266"/><use xlink:href="#fd1c40a6K" x="340.0107" y="266"/><use xlink:href="#fd1c40a6m" x="346.6777" y="266"/><use xlink:href="#fd1c40a6s" x="353.3447" y="266"/><use xlink:href="#fd1c40a6L" x="360.0117" y="266"/><use xlink:href="#fd1c40a6t" x="366.6787" y="266"/><use xlink:href="#fd1c40a6D" x="373.3457" y="266"/><use xlink:href="#fd1c40a6q" x="380.0127" y="266"/><use xlink:href="#fd1c40a6m" x="386.6797" y="266"/><use xlink:href="#fd1c40a6r" x="393.3467" y="266"/><use xlink:href="#fd1c40a6M" x="400.0137" y="266"/><use xlink:href="#fd1c40a6m" x="406.6807" y="266"/><use xlink:href="#fd1c40a6o" x="413.3477" y="266"/><use xlink:href="#fd1c40a6o" x="420.0147" y="266"/><use xlink:href="#fd1c40a6q" x="426.6817" y="266"/><use xlink:href="#fd1c40a6N" x="433.3487" y="266"/><use xlink:href="#fd1c40a6r" x="440.0157" y="266"/><use xlink:href="#fd1c40a6r" x="446.6827" y="266"/><use xlink:href="#fd1c40a6O" x="453.3497" y="266"/><use xlink:href="#fd1c40a6P" x="460.0167" y="266"/><use xlink:href="#fd1c40a6Q" x="466.6837" y="266"/></g></svg>