<?xml version='1.0' encoding='UTF-8'?>
<svg xmlns="http://www.w3.org/2000/svg" xmlns:xlink="http://www.w3.org/1999/xlink" width="600px" height="300px" viewBox="0 0 600 300" x="0px" y="0px" enable-background="new 0 0 600 300"><defs><symbol overflow="visible" id="d0b811f8a"><path d="M32.48-8.16c3.83 0 6.8-1.28 8.88-3.92 1.6 2.49 4.48 3.92 8.23 3.92 8.41 0 13.61-6.48 13.61-16.56 0-15.36-10.56-24.48-28.25-24.48-18.72 0-29.9 10.56-29.9 28.25 0 17.6 11.6 28.23 30.87 28.23 9.13 0 17.03-2.56 23.44-7.69L56.4-4.08a32.7 32.7 0 01-20.18 6.72c-16.23 0-26-8.87-26-23.6 0-14.8 9.2-23.6 24.72-23.6 14.4 0 23.13 7.69 23.13 20.56 0 6.56-2.88 10.64-7.36 10.64-2.88 0-4.64-1.6-4.64-4.23v-15.29h-5.13l-.47 2.4c-1.84-2.24-4.48-3.36-8-3.36-7.43 0-11.84 4.8-11.84 12.89 0 8 4.4 12.8 11.84 12.8zm-5.76-12.8c0-4.96 2.72-7.84 7.12-7.84 2.72 0 4.8 1.11 6.24 3.28v9.04c-1.28 2.17-3.44 3.28-6.24 3.28-4.4 0-7.12-2.88-7.12-7.75zm0 0"/></symbol><symbol overflow="visible" id="d0b811f8b"><path d="M25.2.95c8.72 0 15.11-3.36 19.2-10.07l-6.09-3.04c-2.72 4.4-6.72 6.88-12.87 6.88-9.36 0-14.88-5.84-14.88-15.67 0-9.93 5.52-15.77 14.88-15.77 6.15 0 10.15 2.49 12.87 6.88l6.1-3.04c-4.1-6.71-10.49-10.07-19.2-10.07-13.62 0-21.77 8.23-21.77 22C3.44-7.28 11.59.95 25.2.95zm0 0"/></symbol><symbol overflow="visible" id="d0b811f8c"><path d="M6.31 0h6.9v-42H6.3zm0 0"/></symbol><symbol overflow="visible" id="d0b811f8d"><path d="M6.31 0h6.74v-15.6h7.82L32.48 0h7.83L28.08-15.92c6.97-1.2 10.97-5.85 10.97-12.88 0-8.4-5.46-13.2-14.97-13.2H6.3zm17.2-36.23c5.54 0 8.65 2.71 8.65 7.43 0 4.8-3.11 7.52-8.64 7.52H13.05v-14.95zm0 0"/></symbol><symbol overflow="visible" id="d0b811f8e"><path d="M24.23.95c11.7 0 18.33-6.3 18.33-17.36V-42H35.7v25.6c0 7.12-4.17 11.12-11.46 11.12-7.36 0-11.51-4-11.51-11.13V-42H5.84v25.6C5.84-5.37 12.48.94 24.24.94zm0 0"/></symbol><symbol overflow="visible" id="d0b811f8f"><path d="M6.31 0h28.64v-6H13.2v-36H6.31zm0 0"/></symbol><symbol overflow="visible" id="d0b811f8g"><path d="M2 0h6.88l4.71-10.88h20.9L39.28 0h6.87L27.52-42h-6.88zm22.08-34.64l8.08 18.4H16zm0 0"/></symbol><symbol overflow="visible" id="d0b811f8h"><path d="M18.08 8.31l4.56-4.15c-7.77-6.72-11.6-15.11-11.6-25.11 0-10.1 3.84-18.49 11.6-25.13l-4.56-4.23c-9.28 7.1-14 16.95-14 29.36 0 12.3 4.72 22.23 14 29.26zm0 0"/></symbol><symbol overflow="visible" id="d0b811f8i"><path d="M14.95 0h6.57v-42h-5.68L2.95-36l2.74 5.36 9.26-4.16zm0 0"/></symbol><symbol overflow="visible" id="d0b811f8j"><path d="M20.08.95c10.33 0 16.56-4.54 16.56-12.07 0-4.96-2.72-8.57-8.48-10.4 4.71-1.76 7.28-5.28 7.28-9.84 0-7.2-5.75-11.6-15.36-11.6-9.6 0-15.44 4.4-15.44 11.6 0 4.56 2.56 8.08 7.28 9.84-5.69 1.83-8.48 5.52-8.48 10.4C3.44-3.6 9.69.95 20.08.95zm0-24.72c-6.49-.8-8.88-3.28-8.88-7.18 0-4.1 3.28-6.64 8.88-6.64 5.51 0 8.8 2.54 8.8 6.64 0 3.9-2.4 6.3-8.8 7.18zm0 19.36c-6.16 0-9.92-2.64-9.92-7.1 0-4 2.71-6.41 9.92-7.7 7.2 1.29 9.84 3.7 9.84 7.7 0 4.46-3.69 7.1-9.84 7.1zm0 0"/></symbol><symbol overflow="visible" id="d0b811f8k"><path d="M21.52.95c9.12 0 15.12-5.83 15.12-14.64 0-8.62-5.05-13.6-14-13.6-5.05 0-8.95 1.7-11.6 4.8.73-10 4.96-14.95 12.24-14.95 3.52 0 6.4 1.28 8.88 3.36l3.53-4.56c-3.38-2.88-7.61-4.31-12.74-4.31-11.82 0-18.54 8.47-18.54 23.43C4.4-6.4 10.56.95 21.5.95zm.07-23.03c5.36 0 8.49 3.03 8.49 8.4 0 5.45-3.44 9.12-8.72 9.12-5.92 0-9.67-4.08-10.31-11.52a12 12 0 0110.54-6zm0 0"/></symbol><symbol overflow="visible" id="d0b811f8l"><path d="M25.92 0h6.4v-8.88h5.76v-5.53H32.3V-42h-6L3.6-14.4v5.53h22.33zm-15.6-14.4l15.6-19.12v19.11zm0 0"/></symbol><symbol overflow="visible" id="d0b811f8m"><path d="M5.77-50.31L1.2-46.08c7.75 6.64 11.68 15.03 11.68 25.13 0 10-3.93 18.39-11.68 25.1l4.57 4.16c9.36-7.03 14-16.95 14-29.26 0-12.4-4.64-22.25-14-29.36zm0 0"/></symbol><symbol overflow="visible" id="d0b811f8n"><path d="M6.64-12.88h6.08L13.2-42H6.16zM9.7.96c2.47 0 4-1.51 4-4 0-2.47-1.53-3.9-4-3.9-2.49 0-4 1.43-4 3.9 0 2.49 1.51 4 4 4zm0 0"/></symbol><symbol overflow="visible" id="d0b811f8o"><path d="M3.83 0v-5.95H6.2v-.82H.45v.82h2.4V0zm0 0"/></symbol><symbol overflow="visible" id="d0b811f8p"><path d="M5.75-2.23v-.43c0-1.6-.9-2.51-2.42-2.51S.87-4.16.87-2.48c0 1.71.91 2.62 2.5 2.62 1.43 0 2.07-.56 2.29-1.52l-.9-.09c-.18.61-.59.9-1.35.9-.94 0-1.52-.54-1.58-1.66zm-2.4-2.2c.93 0 1.43.5 1.48 1.55H1.84c.08-1.07.6-1.56 1.5-1.56zm0 0"/></symbol><symbol overflow="visible" id="d0b811f8q"><path d="M1.83 0l1.42-2h.06l1.46 2H5.8L4-2.53l1.78-2.49H4.8L3.42-3.08h-.08l-1.4-1.94H.89l1.78 2.49L.84 0zm0 0"/></symbol><symbol overflow="visible" id="d0b811f8r"><path d="M5.52-4.25v-.77H3.17v-1.56h-.81l-.14 1.56H.75v.77h1.47v2.4c0 1.3.48 1.94 1.84 1.94C4.6.1 5.14 0 5.55-.14L5.4-.91c-.32.13-.72.2-1.13.2-.8 0-1.1-.37-1.1-1.23v-2.31zm0 0"/></symbol><symbol overflow="visible" id="d0b811f8s"><path d="M3.33-3.42c.47 0 .8-.27.8-.8 0-.51-.33-.8-.8-.8-.47 0-.8.29-.8.8 0 .53.33.8.8.8zm0 3.5c.47 0 .8-.27.8-.78 0-.53-.33-.82-.8-.82-.47 0-.8.29-.8.82 0 .51.33.78.8.78zm0 0"/></symbol><symbol overflow="visible" id="d0b811f8u"><path d="M5.42-3.63c-.15-.43-.51-.75-1.19-.75-.98 0-1.54.66-1.54 1.83 0 1.13.6 1.85 1.72 1.85 1.07 0 1.75-.61 1.75-1.93v-.65c0-2.06-.72-3.13-2.66-3.13C1.47-6.4.64-5.08.64-3.14v.94c0 2.06.92 3.26 3.22 3.26.6 0 1.22-.12 1.58-.28L5.3.25C4.94.41 4.42.5 3.86.5 1.96.5 1.3-.44 1.3-2.2v-.94c0-1.53.51-2.69 2.2-2.69 1.56 0 2.05.86 2.05 2.2zm-.98 2.35c-.69 0-1.02-.42-1.02-1.27 0-.86.33-1.23.99-1.23.7 0 1.01.44 1.01 1.22 0 .9-.36 1.28-.98 1.28zm0 0"/></symbol><symbol overflow="visible" id="d0b811f8v"><path d="M3.42.14C5.1.14 5.9-.69 6.11-2.17l-.95-.1C4.96-1.19 4.5-.69 3.44-.69c-1.27 0-1.81-.94-1.81-2.69s.54-2.7 1.8-2.7c1.09 0 1.5.49 1.73 1.58l.93-.1c-.21-1.46-.95-2.3-2.62-2.3C1.53-6.9.62-5.6.62-3.38c0 2.2.91 3.51 2.8 3.51zm0 0"/></symbol><symbol overflow="visible" id="d0b811f8w"><path d="M3.58-5.81c.42 0 .72-.22.72-.67 0-.44-.3-.68-.72-.68-.44 0-.72.24-.72.68 0 .45.28.67.72.67zm.5.8H1.52v.76h1.6v3.48h-1.8V0h4.46v-.77h-1.7zm0 0"/></symbol><symbol overflow="visible" id="d0b811f8x"><path d="M5.08-5.16c-.94 0-1.58.43-1.9 1.3h-.09l-.07-1.16H1.05v.77h1.1v3.48H.96V0h3.96v-.77H3.1v-1.46c0-1.36.6-2.05 1.83-2.05.4 0 .76.08 1.1.17l.15-.87c-.33-.11-.7-.18-1.11-.18zm0 0"/></symbol><symbol overflow="visible" id="d0b811f8y"><path d="M3.34.14c1.43 0 2.13-.66 2.25-1.78l-.89-.1c-.1.7-.5 1.08-1.34 1.08-1.03 0-1.52-.64-1.52-1.84 0-1.23.47-1.86 1.52-1.86.84 0 1.23.36 1.34 1.08l.9-.1c-.13-1.09-.82-1.78-2.26-1.78-1.56 0-2.46.97-2.46 2.66 0 1.66.9 2.64 2.46 2.64zm0 0"/></symbol><symbol overflow="visible" id="d0b811f8z"><path d="M2.73.14c.9 0 1.43-.45 1.74-1.08h.06l.13.94h.8v-5.02h-.94v2.7c0 .98-.57 1.62-1.46 1.62-.75 0-1.1-.4-1.1-1.22v-3.1h-.93v3.32c0 1.17.55 1.84 1.7 1.84zm0 0"/></symbol><symbol overflow="visible" id="d0b811f8A"><path d="M3.92-7.14H1.36v.76h1.6v5.61H1.15V0H5.7v-.77H3.92zm0 0"/></symbol><symbol overflow="visible" id="d0b811f8B"><path d="M2.83.14c.94 0 1.5-.39 1.81-.95h.08l.1.81h.76v-3.38c0-1.23-.69-1.8-2.13-1.8-1.43 0-2.03.65-2.18 1.6l.93.1c.11-.6.44-.93 1.22-.93.85 0 1.22.32 1.22 1.04v.34l-1.81.2C1.6-2.7 1.1-2.17 1.1-1.28c0 .92.64 1.42 1.72 1.42zm.25-.77c-.67 0-1.02-.28-1.02-.74 0-.44.28-.72 1-.82l1.58-.19v.41c0 .8-.6 1.34-1.56 1.34zm0 0"/></symbol><symbol overflow="visible" id="d0b811f8C"><path d="M1.45-2.95c0 2.56 1.08 4.37 3.67 4.84l.11-.67C3.28.86 2.43-.75 2.43-2.95s.85-3.82 2.8-4.16l-.1-.69c-2.6.49-3.68 2.3-3.68 4.85zm0 0"/></symbol><symbol overflow="visible" id="d0b811f8D"><path d="M4.22-6.77h-.86l-2.03.7v.87c.64-.17 1.26-.38 1.89-.55v4.9H1.03V0h4.9v-.86H4.21zm0 0"/></symbol><symbol overflow="visible" id="d0b811f8E"><path d="M3.33.16c1.69 0 2.69-.74 2.69-1.94 0-1.05-.8-1.58-1.43-1.72v-.05c.5-.14 1.2-.58 1.2-1.56 0-1.12-.95-1.81-2.46-1.81-1.52 0-2.46.69-2.46 1.81 0 .97.68 1.4 1.18 1.56v.05c-.6.14-1.4.64-1.4 1.72 0 1.2 1 1.94 2.68 1.94zm0-4.04c-.97 0-1.49-.43-1.49-1.12 0-.78.52-1.1 1.49-1.1.95 0 1.48.32 1.48 1.1 0 .69-.53 1.13-1.48 1.13zm0 3.24c-1.1 0-1.7-.42-1.7-1.25 0-.78.6-1.2 1.7-1.2s1.7.42 1.7 1.2c0 .83-.6 1.25-1.7 1.25zm0 0"/></symbol><symbol overflow="visible" id="d0b811f8F"><path d="M3.42.14c1.58 0 2.49-.86 2.49-2.3 0-1.42-.86-2.17-2.22-2.17-1.03 0-1.58.5-1.9 1.02h-.04c.03-1.63.4-2.77 1.73-2.77.91 0 1.24.44 1.36.96l.97-.11c-.23-.96-.86-1.68-2.33-1.68C1.84-6.9.86-5.86.86-3.1.86-.9 1.78.14 3.42.14zm.02-.78c-.9 0-1.47-.55-1.47-1.47 0-.9.7-1.47 1.53-1.47.92 0 1.47.52 1.47 1.47 0 .97-.6 1.47-1.53 1.47zm0 0"/></symbol><symbol overflow="visible" id="d0b811f8G"><path d="M5.1 0v-1.47H6v-.81h-.9v-4.49H3.8L.48-2.23v.76h3.66V0zM1.5-2.33l2.6-3.53h.04v3.58H1.5zm0 0"/></symbol><symbol overflow="visible" id="d0b811f8H"><path d="M1.45-7.1c1.96.33 2.8 1.94 2.8 4.15 0 2.2-.84 3.8-2.8 4.17l.11.67c2.58-.47 3.67-2.28 3.67-4.84 0-2.55-1.09-4.36-3.67-4.85zm0 0"/></symbol><symbol overflow="visible" id="d0b811f8I"><path d="M3.72-1.77l.1-2.56v-2.81h-.96v2.81l.08 2.56zM3.32.08c.37 0 .6-.2.6-.58 0-.38-.23-.58-.6-.58-.35 0-.57.2-.57.58 0 .38.22.58.58.58zm0 0"/></symbol><symbol overflow="visible" id="d0b811f8J"><path d="M5.95-6.77H1.1V0h.99v-2.92H5.3v-.77H2.08v-2.26h3.87zm0 0"/></symbol><symbol overflow="visible" id="d0b811f8K"><path d="M3.34.14c1.7 0 2.64-.75 2.64-2 0-1.1-.67-1.6-1.95-1.86l-.97-.2c-.84-.16-1.2-.49-1.2-1.11 0-.7.56-1.11 1.56-1.11.99 0 1.47.34 1.63 1.23L5.97-5C5.8-6.28 4.95-6.9 3.45-6.9 1.81-6.9.92-6.18.92-4.98c0 1.06.63 1.66 1.85 1.9l1.01.2c.85.17 1.25.4 1.25 1.09 0 .73-.6 1.16-1.66 1.16-1.1 0-1.6-.4-1.75-1.24l-.93.1C.84-.53 1.66.13 3.34.13zm0 0"/></symbol><symbol overflow="visible" id="d0b811f8L"><path d="M1.63 0v-2.9c0-.8.15-1.4.71-1.4.41 0 .55.3.55.88V0h.95v-2.9c0-.8.18-1.4.72-1.4.4 0 .57.3.57.88V0h.95v-3.63c0-.92-.28-1.53-1.11-1.53-.63 0-.95.41-1.1.9h-.06c-.1-.52-.44-.9-1.08-.9-.6 0-.93.41-1.06.9H1.6l-.23-.76H.67V0zm0 0"/></symbol><symbol overflow="visible" id="d0b811f8M"><path d="M2.06 1.9V-.84h.05c.28.58.8.97 1.77.97 1.5 0 2.2-.98 2.2-2.66 0-1.65-.7-2.64-2.19-2.64-.97 0-1.5.44-1.78 1.05h-.08l-.1-.9H1.1v6.9zm1.5-2.56c-1.06 0-1.53-.8-1.53-1.86 0-1.04.47-1.84 1.53-1.84 1.11 0 1.53.61 1.53 1.84 0 1.27-.42 1.86-1.53 1.86zm0 0"/></symbol><symbol overflow="visible" id="d0b811f8N"><path d="M3.36.16c1.4 0 2.2-.6 2.2-1.57 0-.89-.54-1.22-1.47-1.39L3-3c-.67-.14-.86-.33-.86-.73 0-.5.4-.74 1.17-.74.83 0 1.19.27 1.27.8l.9-.05c-.12-1-.8-1.47-2.17-1.47-1.34 0-2.1.53-2.1 1.5 0 .81.45 1.22 1.52 1.44l1.04.2c.56.11.87.24.87.72 0 .52-.45.78-1.28.78-.95 0-1.36-.28-1.42-.87l-.9.06C1.07-.36 1.8.16 3.35.16zm0 0"/></symbol><symbol overflow="visible" id="d0b811f8O"><path d="M5.4-1.22c.43-.66.66-1.51.66-2.44l-.83-.09c0 .75-.14 1.4-.4 1.92l-1.7-1.83c.8-.42 1.39-.96 1.39-1.86 0-.87-.66-1.4-1.61-1.4-1.14 0-1.72.62-1.72 1.47 0 .72.47 1.3.83 1.68-.8.41-1.52.99-1.52 2.1C.5-.44 1.52.14 2.7.14c.9 0 1.64-.3 2.2-.78l.58.64h1.05zM2.86-6.25c.44 0 .82.23.82.73 0 .7-.47 1.11-1 1.41-.47-.53-.67-.92-.67-1.34 0-.47.3-.8.85-.8zM2.81-.62c-.83 0-1.42-.41-1.42-1.18 0-.76.5-1.18 1.05-1.5l1.94 2.1c-.4.37-.91.57-1.57.57zm0 0"/></symbol><symbol overflow="visible" id="d0b811f8P"><path d="M5.67 0v-.86H2.14V-.9L3.6-2c1.05-.83 2-1.68 2-2.91 0-1.19-.73-1.99-2.26-1.99-1.66 0-2.3 1.02-2.44 2.33l1 .08c.1-.92.42-1.58 1.44-1.58.87 0 1.26.44 1.26 1.24 0 .9-.8 1.53-1.96 2.53L.83-.81V0zm0 0"/></symbol></defs><g fill="#fff"><use xlink:href="#d0b811f8a" x="98.24" y="119"/><use xlink:href="#d0b811f8b" x="166.56" y="119"/><use xlink:href="#d0b811f8c" x="213.92" y="119"/><use xlink:href="#d0b811f8d" x="233.44" y="119"/><use xlink:href="#d0b811f8b" x="276.4" y="119"/><use xlink:href="#d0b811f8e" x="323.76" y="119"/><use xlink:href="#d0b811f8f" x="372.16" y="119"/><use xlink:href="#d0b811f8g" x="410.64" y="119"/><use xlink:href="#d0b811f8d" x="458.8" y="119"/><use xlink:href="#d0b811f8h" x="191.08" y="199"/><use xlink:href="#d0b811f8i" x="214.92" y="199"/><use xlink:href="#d0b811f8j" x="243.88" y="199"/><use xlink:href="#d0b811f8k" x="283.96" y="199"/><use xlink:href="#d0b811f8l" x="325" y="199"/><use xlink:href="#d0b811f8m" x="365.72" y="199"/><use xlink:href="#d0b811f8n" x="389.56" y="199"/><use xlink:href="#d0b811f8o" x="223.3333" y="252"/><use xlink:href="#d0b811f8p" x="230.0003" y="252"/><use xlink:href="#d0b811f8q" x="236.6673" y="252"/><use xlink:href="#d0b811f8r" x="243.3343" y="252"/><use xlink:href="#d0b811f8s" x="250.0013" y="252"/><use xlink:href="#d0b811f8t" x="256.6683" y="252"/><use xlink:href="#d0b811f8u" x="263.3353" y="252"/><use xlink:href="#d0b811f8v" x="270.0023" y="252"/><use xlink:href="#d0b811f8w" x="276.6693" y="252"/><use xlink:href="#d0b811f8x" x="283.3363" y="252"/><use xlink:href="#d0b811f8y" x="290.0033" y="252"/><use xlink:href="#d0b811f8z" x="296.6703" y="252"/><use xlink:href="#d0b811f8A" x="303.3373" y="252"/><use xlink:href="#d0b811f8B" x="310.0043" y="252"/><use xlink:href="#d0b811f8x" x="316.6713" y="252"/><use xlink:href="#d0b811f8t" x="323.3383" y="252"/><use xlink:href="#d0b811f8C" x="330.0053" y="252"/><use xlink:href="#d0b811f8D" x="336.6723" y="252"/><use xlink:href="#d0b811f8E" x="343.3393" y="252"/><use xlink:href="#d0b811f8F" x="350.0063" y="252"/><use xlink:href="#d0b811f8G" x="356.6733" y="252"/><use xlink:href="#d0b811f8H" x="363.3403" y="252"/><use xlink:href="#d0b811f8I" x="370.0073" y="252"/><g><use xlink:href="#d0b811f8J" x="176.6667" y="266"/><use xlink:href="#d0b811f8p" x="183.3337" y="266"/><use xlink:href="#d0b811f8B" x="190.0007" y="266"/><use xlink:href="#d0b811f8r" x="196.6677" y="266"/><use xlink:href="#d0b811f8z" x="203.3347" y="266"/><use xlink:href="#d0b811f8x" x="210.0017" y="266"/><use xlink:href="#d0b811f8p" x="216.6687" y="266"/><use xlink:href="#d0b811f8s" x="223.3357" y="266"/><use xlink:href="#d0b811f8t" x="230.0027" y="266"/><use xlink:href="#d0b811f8K" x="236.6697" y="266"/><use xlink:href="#d0b811f8L" x="243.3367" y="266"/><use xlink:href="#d0b811f8B" x="250.0037" y="266"/><use xlink:href="#d0b811f8A" x="256.6707" y="266"/><use xlink:href="#d0b811f8A" x="263.3377" y="266"/><use xlink:href="#d0b811f8t" x="270.0047" y="266"/><use xlink:href="#d0b811f8y" x="276.6717" y="266"/><use xlink:href="#d0b811f8B" x="283.3387" y="266"/><use xlink:href="#d0b811f8M" x="290.0057" y="266"/><use xlink:href="#d0b811f8w" x="296.6727" y="266"/><use xlink:href="#d0b811f8r" x="303.3397" y="266"/><use xlink:href="#d0b811f8B" x="310.0067" y="266"/><use xlink:href="#d0b811f8A" x="316.6737" y="266"/><use xlink:href="#d0b811f8N" x="323.3407" y="266"/><use xlink:href="#d0b811f8t" x="330.0077" y="266"/><use xlink:href="#d0b811f8C" x="336.6747" y="266"/><use xlink:href="#d0b811f8N" x="343.3417" y="266"/><use xlink:href="#d0b811f8L" x="350.0087" y="266"/><use xlink:href="#d0b811f8y" x="356.6757" y="266"/><use xlink:href="#d0b811f8M" x="363.3427" y="266"/><use xlink:href="#d0b811f8t" x="370.0097" y="266"/><use xlink:href="#d0b811f8O" x="376.6767" y="266"/><use xlink:href="#d0b811f8t" x="383.3437" y="266"/><use xlink:href="#d0b811f8y" x="390.0107" y="266"/><use xlink:href="#d0b811f8P" x="396.6777" y="266"/><use xlink:href="#d0b811f8N" x="403.3447" y="266"/><use xlink:href="#d0b811f8y" x="410.0117" y="266"/><use xlink:href="#d0b811f8H" x="416.6787" y="266"/></g></g></svg>