<?xml version='1.0' encoding='UTF-8'?>
<svg xmlns="http://www.w3.org/2000/svg" xmlns:xlink="http://www.w3.org/1999/xlink" width="200px" height="840px" viewBox="0 0 200 840" x="0px" y="0px" enable-background="new 0 0 200 840"><defs><symbol overflow="visible" id="3836dcfda"><path d="M14.64.484c7.563 0 12.079-4.796 12.079-12.765 0-.281-.032-.516-.032-.766H16v1.125h9.484C25.281-4.844 21.312-.687 14.641-.687c-6.954 0-11.329-4.907-11.329-12.75 0-8 4.282-12.766 11.454-12.766 4.515 0 7.75 1.89 9.796 5.562l1.204-.484c-2.282-4.156-5.922-6.234-11-6.234-7.922 0-12.641 5.203-12.641 13.922C2.125-4.922 6.953.483 14.641.483zm0 0"/></symbol><symbol overflow="visible" id="3836dcfdb"><path d="M8.64.484c2.766 0 5-1.046 6.641-3.171L15.312 0h1.126v-12.438c0-4.406-2.391-6.796-6.797-6.796-2.688 0-4.922.718-6.797 2.156l.844.875c1.796-1.235 3.75-1.875 5.906-1.875 3.719 0 5.687 1.953 5.687 5.64v2.672c-1.719-.875-3.594-1.312-5.687-1.312-4.75 0-7.719 2.078-7.719 5.765 0 3.547 2.766 5.797 6.766 5.797zM3.079-5.312c0-3 2.516-4.688 6.563-4.688 2.046 0 3.921.516 5.64 1.563v4.234C13.766-1.875 11.516-.641 8.72-.641c-3.313 0-5.64-1.796-5.64-4.671zm0 0"/></symbol><symbol overflow="visible" id="3836dcfdc"><path d="M3.516 0h1.203v-14.484c1.687-2.313 4-3.594 6.843-3.594 3.516 0 5.594 2.125 5.594 5.64V0h1.203v-12.484c0-4.204-2.515-6.75-6.765-6.75-2.797 0-5.078 1.03-6.875 3.156V-28l-1.203.313zm0 0"/></symbol><symbol overflow="visible" id="3836dcfde"><path d="M13.594.484c7.25 0 12.172-4.562 13.484-12.328.078-.39.125-.797.156-1.203H16.562l-.156 1.125h9.438C24.64-4.922 20.078-.687 13.64-.687c-5.954 0-9.766-4.157-9.766-10.157 0-9.39 5.125-15.36 13.203-15.36 4.485 0 7.61 1.97 9.36 5.798l1.203-.36c-1.953-4.39-5.485-6.593-10.563-6.593-8.844 0-14.39 6.406-14.39 16.562C2.688-4.157 6.921.484 13.594.484zm0 0"/></symbol><symbol overflow="visible" id="3836dcfdf"><path d="M7.563.484c2.718 0 4.875-1 6.515-2.718L13.718 0h1.126l2-11.953c.75-4.563-1.532-7.281-6.157-7.281-2.453 0-4.609.64-6.562 1.922l.719.953c1.718-1.125 3.64-1.72 5.797-1.72 3.875 0 5.671 2.204 5.046 6.126l-.453 2.469c-1.718-1.079-3.671-1.594-5.875-1.594-5.125 0-8.156 2.312-8.156 6.234 0 3.36 2.39 5.328 6.36 5.328zM2.405-4.844C2.406-8.078 5-10 9.406-10c2.031 0 3.906.594 5.64 1.797l-.733 4.25C12.405-1.72 10.405-.641 7.686-.641c-3.28 0-5.28-1.562-5.28-4.203zm0 0"/></symbol><symbol overflow="visible" id="3836dcfdg"><path d="M1.922 0h1.203l2.438-14.688c1.843-2.187 4.203-3.39 7-3.39 3.843 0 5.671 2.203 5 6.125L15.563 0h1.203l2-12c.797-4.516-1.563-7.234-6.078-7.234-2.766 0-5.047.953-6.813 2.797L7.797-28l-1.234.313zm0 0"/></symbol><symbol overflow="visible" id="3836dcfdh"><path d="M3.39-6.719l-.906.032L.406-.704C.312-.453.266-.234.203 0H1l.625-1.875h2.547L4.797 0h.781c-.047-.234-.125-.453-.203-.703zm-.453 1.016h.016l.422 1.422.578 1.718H1.86zm0 0"/></symbol><symbol overflow="visible" id="3836dcfdi"><path d="M.531-2.188c0 1.329.75 2.329 1.781 2.329.594 0 1.063-.297 1.485-.735l.125.64.656-.093C4.516-.969 4.5-1.375 4.5-1.703v-5.813l-.797.032v3c-.312-.204-.625-.329-1.047-.329-1.437 0-2.14 1.36-2.125 2.625zm.813-.156c0-.594.125-1.14.468-1.484.204-.203.47-.297.875-.297.36 0 .688.078 1.016.266v2.656c-.406.39-.812.656-1.25.656-.734 0-1.11-.75-1.11-1.797zm0 0"/></symbol><symbol overflow="visible" id="3836dcfdj"><path d="M.531-2.234c0 1.53.875 2.343 2.031 2.343.563 0 1.126-.125 1.672-.375l-.203-.562c-.453.172-.937.25-1.328.25-.781 0-1.328-.485-1.375-1.563h2.938c.046-.234.078-.515.078-.765 0-1.063-.563-1.89-1.688-1.89-1.312 0-2.125 1.124-2.125 2.562zm2.063-1.907c.64 0 .953.454.953 1.094v.344H1.344c.093-.89.531-1.438 1.25-1.438zm0 0"/></symbol><symbol overflow="visible" id="3836dcfdk"><path d="M1.563-7.516l-.766.032v6.671c0 .61.281.922.812.922.25 0 .532-.046.797-.156L2.234-.64c-.14.047-.28.079-.375.079-.203 0-.296-.141-.296-.454zm0 0"/></symbol><symbol overflow="visible" id="3836dcfdl"><path d="M1.39-4.734l-.656.078c.063 1.015.079 1.453.079 1.828v5.234h.78V-.188c.345.204.641.329 1.079.329 1.39 0 2.125-1.329 2.125-2.625-.016-1.313-.75-2.329-1.844-2.329-.578 0-1.015.282-1.437.704zm1.438.609c.766 0 1.14.766 1.14 1.797 0 .594-.124 1.172-.468 1.484-.219.219-.484.313-.875.313a1.94 1.94 0 01-1.031-.281v-2.735c.422-.36.797-.578 1.234-.578zm0 0"/></symbol><symbol overflow="visible" id="3836dcfdm"><path d="M1.578-7.516l-.781.032V0h.781v-3.64c.438-.297.922-.485 1.406-.485.61 0 .782.39.782 1.234V0h.796v-3.188c0-1.03-.375-1.624-1.375-1.624-.593 0-1.124.203-1.609.578zm0 0"/></symbol><symbol overflow="visible" id="3836dcfdn"><path d="M.672-6.094c0 .297.203.5.515.5.329 0 .547-.218.547-.562 0-.297-.187-.5-.5-.5-.343 0-.562.218-.562.562zm.906 1.407l-.781.03V0h.781zm0 0"/></symbol><symbol overflow="visible" id="3836dcfdp"><path d="M.938-6.656V0h.796v-2.469c.25.031.5.031.72.031 1.75 0 2.733-.906 2.733-2.328 0-1.296-.875-2.046-2.64-2.046-.469.015-1.031.062-1.61.156zm1.656.562c1.14 0 1.75.438 1.75 1.407 0 .656-.297 1.125-.782 1.343-.296.14-.718.219-1.171.219-.204 0-.438-.031-.657-.047v-2.844a5.49 5.49 0 01.86-.078zm0 0"/></symbol><symbol overflow="visible" id="3836dcfdq"><path d="M4.766-.688H1.734v-2.39h2.438v-.703H1.734v-2.235h3l.032-.687H.937V0h3.844zm0 0"/></symbol><symbol overflow="visible" id="3836dcfdr"><path d="M6.375-7.516l-.781.032v.78H.187V-6h2.126v6h.796v-6h2.485v6h.781v-3.64c.438-.297.922-.485 1.406-.485.61 0 .782.39.782 1.234V0h.78v-3.188c0-1.03-.374-1.624-1.374-1.624-.594 0-1.11.203-1.594.578zm0 0"/></symbol><symbol overflow="visible" id="3836dcfds"><path d="M1.39-4.734l-.656.078c.063 1 .079 1.453.079 1.812V0h.78v-3.531c.438-.36.923-.594 1.407-.594.625 0 .781.406.781 1.25V0h.781v-3.188c0-1.03-.359-1.624-1.375-1.624-.64 0-1.171.25-1.671.718zm0 0"/></symbol><symbol overflow="visible" id="3836dcfdA"><path d="M1.313-4.672H.469a.834.834 0 00.187.438l1.188 1.78L.484-.436C.406-.297.313-.157.313 0h.734l1.25-1.938h.015L3.595 0h.797a.834.834 0 00-.188-.438l-1.36-2.015 1.204-1.781c.094-.141.156-.282.187-.438h-.75L2.375-2.969h-.016zm0 0"/></symbol><symbol overflow="visible" id="3836dcfdB"><path d="M1.813-6.063h-.641L.984-4.671H.328v.656h.703v2.641c0 1.125.344 1.484 1.094 1.484.344 0 .797-.062 1.188-.218l-.141-.594c-.297.078-.594.11-.766.11-.469 0-.594-.204-.594-.97v-2.453H3.25v-.656H1.812zm0 0"/></symbol><symbol overflow="visible" id="3836dcfdC"><path d="M1.39-4.734l-.656.078c.063 1.015.079 1.453.079 1.812V0h.78v-3.125c.329-.578.75-.828 1.204-.828.187 0 .36.015.531.078l.156-.719a1.113 1.113 0 00-.64-.187c-.531 0-.969.328-1.297.922zm0 0"/></symbol><symbol overflow="visible" id="3836dcfdD"><path d="M1.063-2.188c-.391.25-.641.641-.641 1.126C.422-.345.89.109 1.64.109c.562 0 1.125-.265 1.625-.703l.14.64.656-.093c-.078-1-.078-1.406-.078-1.766v-1.203c0-1.218-.437-1.765-1.437-1.765-.75 0-1.406.312-1.922.765l.281.485c.5-.344 1.031-.563 1.5-.563.578 0 .797.344.797 1.328v.079c-1.078.093-1.75.234-2.14.5zm.125 1.032c0-.297.14-.485.296-.61.25-.14.688-.265 1.72-.343v.937c-.5.422-1 .656-1.407.656-.375 0-.61-.218-.61-.64zm0 0"/></symbol><symbol overflow="visible" id="3836dcfdE"><path d="M.984-.734c0 .187.047.359.141.468C.609.094.281.547.281 1.125c-.015.89.813 1.422 1.953 1.422 1.329 0 2.329-.672 2.329-1.766 0-.922-.72-1.297-1.86-1.328-.625 0-1-.047-1-.469 0-.171.078-.296.172-.437.14.016.281.016.422.016 1.203 0 1.875-.766 1.875-1.704 0-.406-.14-.78-.39-1.062.265-.11.577-.188.89-.219l-.031-.672c-.516.016-.938.25-1.266.547a2.082 2.082 0 00-.984-.234c-1.266 0-1.86.875-1.86 1.75 0 .61.297 1.156.875 1.422-.281.28-.422.546-.422.875zm2.422-2.344c0 .672-.422 1.031-1.062 1.031-.719 0-1.063-.406-1.063-1.078 0-.64.422-1.031 1.063-1.031.719 0 1.062.422 1.062 1.078zm-2.39 4.11c0-.407.218-.72.593-.985.266.078.579.078.829.078.812.016 1.406.11 1.406.75a.883.883 0 01-.328.688c-.282.234-.704.328-1.172.328-.797 0-1.328-.282-1.328-.86zm0 0"/></symbol><symbol overflow="visible" id="3836dcfdM"><path d="M4.594-.688h-2.86v-6.015H.938V0h3.687zm0 0"/></symbol><symbol overflow="visible" id="3836dcfdU"><path d="M.938-6.656V0h.796v-2.734c.25.03.516.03.704.03.218 0 .406 0 .578-.03L4.516 0h.843a3.702 3.702 0 00-.296-.625L3.796-2.922c.89-.344 1.375-1.062 1.375-1.953 0-1.281-.984-1.938-2.578-1.938-.5 0-1.094.063-1.656.157zm1.656.562c1.11 0 1.734.407 1.734 1.282 0 .625-.312 1.015-.766 1.218-.312.14-.718.203-1.14.203-.235 0-.453-.015-.688-.03v-2.595c.313-.046.61-.078.86-.078zm0 0"/></symbol><symbol overflow="visible" id="3836dcfdV"><path d="M1.547-4.688l-.781.032v3.172c0 1.03.421 1.625 1.39 1.625.61 0 1.11-.266 1.578-.735l.141.64.64-.093c-.062-1.078-.077-1.39-.077-1.797v-2.828h-.782v3.484c-.437.391-.875.641-1.312.641-.563 0-.797-.36-.797-1.219zm0 0"/></symbol><symbol overflow="visible" id="3836dcfdad"><path d="M6.797-6.703H5.703L4.11-1.047h-.03l-.282-1.156-1.313-4.5H1.406L.656-.72C.625-.484.578-.203.562 0h.75l.672-5.625h.032l.296 1.219L3.595 0h.953l1.61-5.61h.03l.125 1.204L6.875 0h.766c-.016-.203-.047-.438-.079-.672zm0 0"/></symbol><symbol overflow="visible" id="3836dcfdae"><path d="M1.39-4.734l-.656.078c.079 1.031.079 1.453.079 1.812V0h.78v-3.516c.407-.343.86-.609 1.329-.609.531 0 .719.375.719 1.297V0h.78v-3.125c0-.14 0-.281-.015-.39.39-.344.86-.61 1.328-.61.532 0 .72.375.72 1.297V0h.78v-3.125c0-1.094-.375-1.688-1.296-1.688-.641 0-1.141.282-1.641.782-.172-.516-.547-.782-1.172-.782-.64 0-1.125.266-1.594.75zm0 0"/></symbol><symbol overflow="visible" id="3836dcfdam"><path d="M.938-6.656v6.61a12.69 12.69 0 001.765.155c1.735 0 2.61-.812 2.61-2.03 0-.907-.516-1.47-1.375-1.657.687-.328.984-.922.984-1.578 0-1.125-.875-1.64-2.313-1.64-.53 0-1.109.062-1.671.14zm1.656.547c.922 0 1.5.296 1.5 1.109 0 .375-.14.766-.516.984-.203.11-.484.188-.922.188-.281 0-.562 0-.922-.016v-2.203c.313-.031.61-.062.86-.062zm.078 2.953c1.234 0 1.797.453 1.797 1.234 0 .406-.157.781-.516 1.047-.25.188-.61.281-1.187.281-.329 0-.657-.015-1.032-.062v-2.5h.938zm0 0"/></symbol><symbol overflow="visible" id="3836dcfdan"><path d="M.531-2.25c0 1.39.766 2.39 2.016 2.39 1.437 0 2.14-1.296 2.14-2.546 0-1.39-.75-2.406-2.015-2.406-1.438 0-2.14 1.328-2.14 2.562zm3.344-.047c0 .625-.156 1.14-.438 1.438-.171.171-.437.312-.812.312-.844 0-1.297-.75-1.297-1.812 0-.672.188-1.157.453-1.454.172-.171.453-.312.813-.312.844 0 1.281.766 1.281 1.828zm0 0"/></symbol><symbol overflow="visible" id="3836dcfdav"><path d="M1.563-7.516l-.782.032v7.328c.594.172 1.078.265 1.703.265 1.579 0 2.25-1.234 2.25-2.515 0-1.36-.64-2.406-1.812-2.406-.547 0-.969.265-1.36.671zm1.234 3.391c.719 0 1.14.688 1.14 1.781 0 .656-.124 1.11-.5 1.5-.14.14-.468.281-.89.281-.36 0-.672-.03-.985-.125v-2.828c.375-.359.797-.609 1.235-.609zm0 0"/></symbol><symbol overflow="visible" id="3836dcfdaD"><path d="M.531-2.219C.531-.78 1.312.11 2.594.11c.437 0 .953-.125 1.453-.343l-.188-.594c-.421.156-.843.25-1.156.25-.86 0-1.375-.547-1.375-1.735 0-.734.203-1.25.547-1.53.172-.141.406-.25.719-.25.406 0 .734.155 1.094.468l.39-.453c-.36-.453-.797-.703-1.422-.703C1.375-4.781.531-3.734.531-2.22zm0 0"/></symbol><symbol overflow="visible" id="3836dcfdaE"><path d="M4.563-4.672h-.797L1.594-2.219v-5.297l-.797.032V0h.797v-1.25l.718-.781L3.845 0h.86a1.34 1.34 0 00-.235-.438L2.812-2.562l1.532-1.735c.125-.125.203-.25.218-.375zm0 0"/></symbol><symbol overflow="visible" id="3836dcfdt"><path d="M14.688.484c7.624 0 12.156-4.843 12.156-12.89v-.906H15.797v1.671h9.156c-.265 6.563-4.031 10.407-10.265 10.407-6.641 0-10.813-4.688-10.813-12.204 0-7.687 4.078-12.203 10.922-12.203 4.36 0 7.406 1.797 9.406 5.235l1.672-.719c-2.281-4.156-6-6.234-11.078-6.234C6.797-27.36 2-22.156 2-13.437 2-4.922 6.922.483 14.688.483zm0 0"/></symbol><symbol overflow="visible" id="3836dcfdu"><path d="M8.594.484c2.719 0 4.922-1 6.484-3.046L15.234 0h1.563v-12.313c0-4.562-2.485-7-7.11-7-2.687 0-5 .72-6.968 2.157l1.078 1.281c1.797-1.203 3.719-1.844 5.844-1.844 3.515 0 5.406 1.875 5.406 5.36v2.406c-1.64-.844-3.485-1.281-5.485-1.281-4.796 0-7.796 2.109-7.796 5.875 0 3.562 2.796 5.843 6.828 5.843zm-5.031-5.89c0-2.797 2.39-4.39 6.156-4.39 1.969 0 3.719.515 5.328 1.483v3.954c-1.453 2.156-3.531 3.312-6.203 3.312-3.078 0-5.281-1.64-5.281-4.36zm0 0"/></symbol><symbol overflow="visible" id="3836dcfdv"><path d="M3.36 0h1.796v-14.281c1.61-2.203 3.797-3.36 6.438-3.36 3.328 0 5.328 2 5.328 5.328V0h1.797v-12.438c0-4.28-2.563-6.874-6.875-6.874-2.719 0-4.969 1-6.688 3v-11.766l-1.797.484zm0 0"/></symbol><symbol overflow="visible" id="3836dcfdx"><path d="M13.64.484c7.36 0 12.313-4.609 13.594-12.437.078-.453.125-.922.172-1.36H16.438l-.282 1.672h9.125C24.078-5.156 19.797-1.234 13.72-1.234c-5.719 0-9.281-3.97-9.281-9.72 0-9 4.921-14.687 12.609-14.687 4.36 0 7.265 1.875 8.953 5.485l1.766-.61c-1.97-4.39-5.563-6.593-10.641-6.593C8.203-27.36 2.562-21 2.562-10.875c0 6.75 4.313 11.36 11.079 11.36zm0 0"/></symbol><symbol overflow="visible" id="3836dcfdy"><path d="M7.516.484c2.64 0 4.765-.921 6.359-2.609L13.641 0h1.562l1.953-11.844c.797-4.719-1.562-7.469-6.39-7.469-2.454 0-4.688.625-6.72 1.907l.907 1.36c1.688-1.079 3.563-1.673 5.64-1.673 3.72 0 5.454 2.078 4.813 5.797l-.36 2.235c-1.687-1.032-3.608-1.547-5.733-1.547-5.157 0-8.188 2.359-8.188 6.359 0 3.36 2.438 5.36 6.39 5.36zM2.922-4.953c0-3.047 2.437-4.844 6.515-4.844 1.97 0 3.766.594 5.329 1.719l-.641 4C12.312-2.047 10.437-1 7.875-1c-3.11-.047-4.953-1.484-4.953-3.953zm0 0"/></symbol><symbol overflow="visible" id="3836dcfdz"><path d="M1.766 0h1.796l2.391-14.516c1.844-2.078 4-3.125 6.61-3.125 3.64 0 5.359 2.078 4.75 5.766L15.313 0h1.812l2-11.953c.75-4.64-1.563-7.36-6.203-7.36-2.688 0-4.875.875-6.563 2.594l1.875-11.36-1.875.485zm0 0"/></symbol><symbol overflow="visible" id="3836dcfdF"><path d="M14.688.484c7.75 0 12.359-4.89 12.359-13 0-.359 0-.718-.047-1.078H15.562v2.235h8.797c-.359 6-3.875 9.484-9.672 9.484-6.25 0-10.171-4.438-10.171-11.563C4.516-20.718 8.359-25 14.844-25c4.156 0 7 1.766 8.875 4.922l2.36-1.047c-2.36-4.156-6.126-6.234-11.282-6.234-8.078 0-12.922 5.203-12.922 13.922C1.875-4.922 6.844.483 14.688.483zm0 0"/></symbol><symbol overflow="visible" id="3836dcfdG"><path d="M8.516.484c2.687 0 4.843-.968 6.359-2.89L15.125 0h2.078v-12.156c0-4.719-2.61-7.281-7.437-7.281-2.766 0-5.125.718-7.172 2.156L4-15.484c1.719-1.11 3.563-1.75 5.64-1.75 3.313 0 5.126 1.718 5.126 5v2.03c-1.61-.796-3.329-1.155-5.282-1.155-4.843 0-7.843 2.125-7.843 5.921C1.64-1.844 4.437.484 8.516.484zm-4.36-6c0-2.562 2.157-4 5.688-4 1.797 0 3.437.438 4.922 1.313v3.687c-1.329 1.954-3.282 3.032-5.72 3.032-2.89 0-4.89-1.516-4.89-4.032zm0 0"/></symbol><symbol overflow="visible" id="3836dcfdH"><path d="M3.156 0h2.531v-14c1.47-2.047 3.516-3.125 6-3.125 3.079 0 4.907 1.844 4.907 4.922V0h2.531v-12.36c0-4.437-2.61-7.078-7-7.078-2.64 0-4.813.954-6.438 2.844v-11.562l-2.53.64zm0 0"/></symbol><symbol overflow="visible" id="3836dcfdJ"><path d="M13.64.484c7.485 0 12.563-4.687 13.797-12.64.079-.485.157-.969.204-1.438H16.234l-.359 2.235h8.766c-1.203 5.953-5.203 9.484-10.797 9.484-5.406 0-8.766-3.719-8.766-9.203C5.078-19.594 9.766-25 17.047-25c4.11 0 6.828 1.844 8.437 5.156l2.47-.922c-2.032-4.39-5.673-6.593-10.829-6.593C8.156-27.36 2.437-21 2.437-10.922 2.438-4.125 6.766.484 13.642.484zm0 0"/></symbol><symbol overflow="visible" id="3836dcfdK"><path d="M7.438.484c2.609 0 4.64-.89 6.25-2.484l-.172 2h2.078l1.969-11.688c.843-4.874-1.641-7.75-6.688-7.75-2.516 0-4.828.641-6.953 1.922l1.156 1.828c1.64-1 3.438-1.546 5.484-1.546 3.516 0 5.157 1.922 4.563 5.39l-.328 1.922c-1.64-.953-3.485-1.437-5.563-1.437C4.078-11.36 1-9 1-4.922 1-1.562 3.484.484 7.438.484zM3.483-5.125c0-2.75 2.282-4.39 6.032-4.39 1.796 0 3.484.515 4.968 1.562l-.64 3.719c-1.64 1.828-3.36 2.75-5.719 2.75-2.89 0-4.64-1.313-4.64-3.641zm0 0"/></symbol><symbol overflow="visible" id="3836dcfdL"><path d="M1.563 0h2.515l2.36-14.281c1.718-1.875 3.765-2.844 6.125-2.844 3.39 0 5 1.922 4.39 5.36L15 0h2.516l2-11.875c.797-4.766-1.563-7.563-6.282-7.563-2.546 0-4.671.797-6.312 2.391l1.844-11.11-2.61.641zm0 0"/></symbol><symbol overflow="visible" id="3836dcfdN"><path d="M14.719.484c7.844 0 12.515-4.968 12.515-13.171 0-.391 0-.797-.03-1.266H15.311V-11h8.329c-.438 5.313-3.688 8.36-8.922 8.36-5.844 0-9.438-4.126-9.438-10.797 0-6.797 3.563-10.797 9.594-10.797 3.969 0 6.531 1.672 8.281 4.547l3.125-1.438c-2.406-4.156-6.234-6.234-11.437-6.234-8.203 0-13.125 5.203-13.125 13.922 0 8.515 5.047 13.921 13 13.921zm0 0"/></symbol><symbol overflow="visible" id="3836dcfdO"><path d="M8.484.484c2.594 0 4.672-.921 6.157-2.718L15 0h2.688v-11.953c0-4.922-2.735-7.61-7.844-7.61-2.797 0-5.281.72-7.406 2.157l1.765 2.36c1.64-1.032 3.39-1.642 5.484-1.642 3.079 0 4.72 1.563 4.72 4.563v1.61c-1.485-.688-3.126-1.047-4.97-1.047-4.953 0-7.953 2.203-7.953 6.046 0 3.641 2.797 6 7 6zM4.844-5.64c0-2.28 1.953-3.593 5.11-3.593 1.64 0 3.124.39 4.452 1.187v3.281C13.234-3 11.484-2.046 9.234-2.046c-2.593 0-4.39-1.36-4.39-3.595zm0 0"/></symbol><symbol overflow="visible" id="3836dcfdP"><path d="M2.922 0h3.36v-13.719c1.359-1.797 3.202-2.797 5.484-2.797 2.796 0 4.468 1.672 4.468 4.47V0h3.36v-12.313c0-4.53-2.672-7.25-7.11-7.25-2.609 0-4.64.875-6.203 2.563v-11.281l-3.36.843zm0 0"/></symbol><symbol overflow="visible" id="3836dcfdR"><path d="M13.688.484c7.624 0 12.796-4.718 14.03-12.843.079-.516.126-1.079.157-1.594H16.047L15.562-11h8.313c-1.234 5.281-4.828 8.36-9.922 8.36-5.031 0-8.11-3.438-8.11-8.594 0-7.97 4.36-13 11.157-13 3.875 0 6.36 1.75 7.844 4.75l3.312-1.282c-2.078-4.39-5.797-6.593-11-6.593C8.078-27.36 2.313-21 2.313-10.953 2.313-4.078 6.686.484 13.687.484zm0 0"/></symbol><symbol overflow="visible" id="3836dcfdS"><path d="M7.36.484c2.515 0 4.515-.796 6.077-2.328L13.408 0h2.671L18-11.484c.875-5.079-1.688-8.079-7-8.079-2.594 0-4.953.641-7.203 1.922l1.437 2.407c1.563-.922 3.282-1.454 5.282-1.454 3.28 0 4.796 1.766 4.25 4.922l-.25 1.563c-1.563-.922-3.36-1.36-5.313-1.36-5.25 0-8.36 2.438-8.36 6.563C.844-1.594 3.407.484 7.36.484zM4.202-5.28c0-2.485 2.031-3.953 5.39-3.953 1.641 0 3.204.468 4.532 1.39l-.563 3.438c-1.484 1.61-3.046 2.36-5.156 2.36-2.64 0-4.203-1.157-4.203-3.235zm0 0"/></symbol><symbol overflow="visible" id="3836dcfdT"><path d="M1.313 0h3.375L7-14c1.594-1.688 3.438-2.516 5.594-2.516 3.094 0 4.531 1.72 4 4.875L14.64 0H18l2-11.844c.797-4.875-1.594-7.719-6.406-7.719-2.438 0-4.438.72-6 2.125L9.406-28.28l-3.531.843zm0 0"/></symbol><symbol overflow="visible" id="3836dcfdW"><path d="M14.766.484c7.953 0 12.718-5.078 12.718-13.328 0-.469 0-.953-.047-1.515H15v3.718h7.844c-.563 4.594-3.438 7.157-8.078 7.157-5.329 0-8.641-3.797-8.641-9.954 0-6.28 3.281-9.968 8.828-9.968 3.735 0 5.969 1.61 7.61 4.125l3.953-1.844c-2.47-4.156-6.36-6.234-11.641-6.234-8.313 0-13.313 5.203-13.313 13.922C1.563-4.922 6.688.483 14.767.483zm0 0"/></symbol><symbol overflow="visible" id="3836dcfdX"><path d="M8.406.484c2.516 0 4.547-.843 6-2.53L14.875 0h3.36v-11.766c0-5.156-2.876-7.921-8.282-7.921-2.875 0-5.437.734-7.672 2.171l2.156 3c1.61-.968 3.25-1.562 5.282-1.562 2.844 0 4.328 1.39 4.328 4.078v1.156c-1.406-.594-2.969-.922-4.688-.922-5.046 0-8.046 2.204-8.046 6.125 0 3.72 2.843 6.125 7.093 6.125zm-2.765-6.25c0-2 1.671-3.109 4.437-3.109 1.438 0 2.766.313 3.969 1V-5c-1 1.516-2.563 2.36-4.563 2.36-2.28 0-3.843-1.204-3.843-3.126zm0 0"/></symbol><symbol overflow="visible" id="3836dcfdY"><path d="M2.64 0h4.313v-13.36c1.203-1.593 2.89-2.484 4.922-2.484 2.484 0 3.969 1.485 3.969 3.969V0h4.312v-12.234c0-4.688-2.718-7.454-7.312-7.454-2.438 0-4.406.766-5.89 2.282v-11L2.64-27.313zm0 0"/></symbol><symbol overflow="visible" id="3836dcfdaa"><path d="M13.719.484C21.516.484 26.844-4.312 28-12.594c.078-.562.125-1.203.156-1.765h-12.36l-.593 3.718h7.75c-1.187 4.563-4.36 7.157-8.875 7.157-4.562 0-7.36-3.157-7.36-7.922 0-7.313 4.048-12 10.235-12 3.64 0 5.813 1.687 7.203 4.328l4.25-1.688c-2.172-4.39-5.922-6.593-11.203-6.593C8-27.36 2.156-21.047 2.156-11.047c0 7 4.406 11.531 11.563 11.531zm0 0"/></symbol><symbol overflow="visible" id="3836dcfdab"><path d="M7.281.484c2.438 0 4.407-.765 5.875-2.203L13.281 0h3.36l1.875-11.281c.922-5.313-1.75-8.406-7.391-8.406-2.64 0-5.125.64-7.484 1.921l1.765 3.047c1.516-.844 3.157-1.36 5.078-1.36 3 0 4.391 1.563 3.922 4.438l-.203 1.125c-1.484-.843-3.203-1.25-5.078-1.25-5.281 0-8.438 2.485-8.438 6.641 0 3.484 2.594 5.61 6.594 5.61zM5-5.484c0-2.157 1.766-3.391 4.719-3.391 1.437 0 2.797.39 4 1.188l-.516 3.093C11.953-3.28 10.516-2.64 8.72-2.64 6.359-2.64 5-3.687 5-5.484zm0 0"/></symbol><symbol overflow="visible" id="3836dcfdac"><path d="M1.047 0h4.312l2.282-13.688c1.437-1.437 3.078-2.156 4.953-2.156 2.765 0 4.047 1.531 3.562 4.328L14.234 0h4.329l1.953-11.766c.843-5.03-1.563-7.921-6.516-7.921-2.234 0-4.156.609-5.688 1.812l1.766-10.531-4.484 1.093zm0 0"/></symbol><symbol overflow="visible" id="3836dcfdaf"><path d="M14.797.484C22.875.484 27.719-4.687 27.719-13c0-.563-.032-1.125-.078-1.719H14.688v4.485h7.265c-.64 3.828-3.156 5.921-7.156 5.921-4.844 0-7.844-3.484-7.844-9.125 0-5.765 2.969-9.124 8.047-9.124 3.484 0 5.438 1.515 6.953 3.718l4.813-2.281c-2.563-4.156-6.485-6.234-11.844-6.234-8.485 0-13.516 5.203-13.516 13.922C1.406-4.922 6.594.483 14.796.483zm0 0"/></symbol><symbol overflow="visible" id="3836dcfdag"><path d="M8.313.484c2.484 0 4.453-.796 5.843-2.359L14.766 0h4.03v-11.563c0-5.39-3.077-8.234-8.718-8.234-2.953 0-5.594.719-7.953 2.156L4.688-14c1.515-.844 3.078-1.484 5.078-1.484 2.546 0 3.921 1.28 3.921 3.609v.719c-1.328-.531-2.765-.797-4.406-.797-5.125 0-8.125 2.234-8.125 6.187C1.156-1.953 4 .484 8.313.484zM6.437-5.875c0-1.719 1.407-2.64 3.766-2.64 1.281 0 2.438.28 3.485.828v2.453c-.891 1.28-2.25 2-3.97 2-2 0-3.28-1-3.28-2.641zm0 0"/></symbol><symbol overflow="visible" id="3836dcfdah"><path d="M2.36 0h5.28v-13c1.048-1.406 2.563-2.156 4.36-2.156 2.156 0 3.438 1.281 3.438 3.437V0h5.28v-12.156c0-4.797-2.796-7.64-7.515-7.64-2.281 0-4.125.64-5.562 1.952v-10.672l-5.282 1.313zm0 0"/></symbol><symbol overflow="visible" id="3836dcfdaj"><path d="M13.766.484c7.953 0 13.39-4.843 14.515-13.328a25.27 25.27 0 00.157-1.875H15.515l-.72 4.485h7.282c-1.203 3.796-3.953 5.921-7.875 5.921-4.125 0-6.64-2.843-6.64-7.25 0-6.671 3.718-11 9.359-11 3.39 0 5.234 1.61 6.562 3.875l5.157-2.078c-2.235-4.39-6.047-6.593-11.407-6.593-9.359 0-15.28 6.28-15.28 16.234C1.953-4 6.437.485 13.765.485zm0 0"/></symbol><symbol overflow="visible" id="3836dcfdak"><path d="M7.203.484c2.36 0 4.281-.718 5.719-2.078L13.156 0h4.047l1.844-11.078c.906-5.563-1.844-8.719-7.813-8.719-2.671 0-5.28.64-7.75 1.922l2.079 3.672c1.484-.75 3.03-1.281 4.875-1.281 2.718 0 3.968 1.406 3.562 3.968l-.125.672c-1.438-.75-3.031-1.11-4.828-1.11-5.328 0-8.531 2.517-8.531 6.75 0 3.516 2.64 5.688 6.687 5.688zM5.797-5.64c0-1.843 1.484-2.875 4-2.875 1.281 0 2.484.313 3.515 1l-.437 2.72C11.797-3.767 10.562-3.235 9-3.235c-2.047 0-3.203-.891-3.203-2.407zm0 0"/></symbol><symbol overflow="visible" id="3836dcfdal"><path d="M.766 0h5.28l2.235-13.36c1.281-1.203 2.719-1.796 4.313-1.796 2.406 0 3.531 1.36 3.125 3.75L13.844 0h5.281l1.922-11.688c.875-5.156-1.563-8.109-6.64-8.109-2.095 0-3.891.516-5.329 1.516l1.719-10.235-5.516 1.313zm0 0"/></symbol><symbol overflow="visible" id="3836dcfdao"><path d="M14.844.484c8.203 0 13.078-5.25 13.078-13.64 0-.61-.047-1.203-.078-1.922H14.437v5.203h6.766c-.719 3.11-2.969 4.797-6.36 4.797-4.437 0-7.124-3.156-7.124-8.36 0-5.28 2.687-8.359 7.328-8.359 3.265 0 4.953 1.438 6.36 3.36l5.546-2.688c-2.594-4.156-6.594-6.234-12-6.234-8.594 0-13.719 5.203-13.719 13.922C1.234-4.922 6.516.483 14.844.483zm0 0"/></symbol><symbol overflow="visible" id="3836dcfdap"><path d="M8.281.484c2.406 0 4.313-.765 5.672-2.25L14.641 0h4.64v-11.36c0-5.593-3.203-8.562-9.125-8.562-3 0-5.75.719-8.203 2.156l2.922 4.203c1.438-.75 2.922-1.359 4.922-1.359 2.328 0 3.515 1.125 3.515 3.156v.329c-1.187-.485-2.546-.72-4.078-.72C4.047-12.156 1-9.843 1-5.843 1-1.954 3.844.484 8.281.484zM7.125-6c0-1.438 1.188-2.234 3.188-2.234 1.124 0 2.124.234 3 .671v2.125c-.72 1.032-1.876 1.641-3.391 1.641-1.719 0-2.797-.844-2.797-2.203zm0 0"/></symbol><symbol overflow="visible" id="3836dcfdaq"><path d="M2.125 0h6.11v-12.719c.921-1.156 2.25-1.844 3.843-1.844 1.875 0 3 1.126 3 3V0h6.125v-12.125c0-4.875-2.89-7.797-7.64-7.797-2.157 0-3.97.563-5.329 1.719v-10.39l-6.109 1.515zm0 0"/></symbol><symbol overflow="visible" id="3836dcfdas"><path d="M13.797.484c8.125 0 13.64-4.89 14.719-13.53.078-.642.125-1.392.172-2.032H15.313l-.829 5.203h6.75c-1.156 3.11-3.515 4.797-6.922 4.797-3.75 0-6-2.563-6-6.64 0-6.126 3.407-10.079 8.563-10.079 3.172 0 4.719 1.516 5.969 3.485l6-2.454c-2.282-4.39-6.157-6.593-11.563-6.593-9.484 0-15.437 6.28-15.437 16.203 0 7.203 4.515 11.64 11.953 11.64zm0 0"/></symbol><symbol overflow="visible" id="3836dcfdat"><path d="M7.125.484c2.313 0 4.156-.687 5.594-1.968L13.047 0h4.64l1.797-10.875c.953-5.766-1.922-9.047-8.125-9.047-2.765 0-5.406.64-8 1.922l2.36 4.234c1.406-.64 2.875-1.156 4.687-1.156 2.469 0 3.594 1.235 3.235 3.485l-.047.312c-1.36-.672-2.906-1.031-4.594-1.031-5.406 0-8.64 2.562-8.64 6.875C.36-1.72 3.077.484 7.124.484zm-.61-6.28c0-1.563 1.25-2.438 3.36-2.438 1.125 0 2.203.28 3.078.875L12.563-5c-.876.797-1.97 1.203-3.282 1.203-1.797 0-2.765-.719-2.765-2zm0 0"/></symbol><symbol overflow="visible" id="3836dcfdau"><path d="M.516 0H6.64l2.203-13.047c1.11-1 2.39-1.515 3.797-1.515 2.078 0 3.046 1.156 2.718 3.28L13.484 0h6.11l1.922-11.64c.89-5.282-1.594-8.282-6.75-8.282-1.97 0-3.641.438-5 1.328l1.64-10-6.36 1.516zm0 0"/></symbol><symbol overflow="visible" id="3836dcfdaw"><path d="M14.844.484c8.312 0 13.281-5.28 13.281-13.765 0-.672-.047-1.313-.125-2.078H14.203v5.765h6.313c-.75 2.547-2.72 3.875-5.672 3.875-4.047 0-6.485-2.922-6.485-7.718 0-4.922 2.438-7.72 6.72-7.72 3.077 0 4.562 1.391 5.874 3.032l6.203-3c-2.672-4.156-6.718-6.234-12.203-6.234-8.672 0-13.828 5.203-13.828 13.922C1.125-4.922 6.438.483 14.844.483zm0 0"/></symbol><symbol overflow="visible" id="3836dcfdax"><path d="M8.234.484c2.329 0 4.25-.718 5.563-2.125L14.516 0h5.171v-11.234c0-5.766-3.328-8.813-9.453-8.813-3.078 0-5.875.735-8.39 2.172l3.234 4.719c1.36-.688 2.797-1.328 4.719-1.328 2.125 0 3.25 1 3.25 2.796a12.085 12.085 0 00-3.844-.624c-5.281 0-8.328 2.359-8.328 6.39C.875-2 3.719.484 8.235.484zM7.72-6.125c0-1.188 1-1.875 2.718-1.875.97 0 1.844.203 2.61.594v1.765c-.61.875-1.64 1.36-2.922 1.36-1.531 0-2.406-.672-2.406-1.844zm0 0"/></symbol><symbol overflow="visible" id="3836dcfday"><path d="M1.922 0h6.844v-12.438c.796-1.046 2-1.609 3.39-1.609 1.64 0 2.61.969 2.61 2.61V0h6.828v-12.078c0-5-2.907-7.969-7.75-7.969-2.047 0-3.766.531-5.078 1.531v-10.172L1.922-27zm0 0"/></symbol><symbol overflow="visible" id="3836dcfdaA"><path d="M13.797.484c8.281 0 13.89-4.968 14.922-13.718.078-.688.156-1.454.203-2.125H15.125l-.922 5.765h6.313c-1.11 2.547-3.157 3.875-6.078 3.875-3.438 0-5.485-2.328-5.485-6.125 0-5.64 3.172-9.312 7.922-9.312 2.969 0 4.281 1.468 5.438 3.156l6.734-2.766c-2.36-4.39-6.281-6.593-11.766-6.593-9.515 0-15.562 6.234-15.562 16.125C1.719-3.954 6.28.484 13.797.484zm0 0"/></symbol><symbol overflow="visible" id="3836dcfdaB"><path d="M7.047.484c2.266 0 4.11-.64 5.516-1.89L12.921 0h5.156l1.797-10.766c1-5.921-2-9.28-8.39-9.28-2.797 0-5.532.64-8.25 1.921l2.609 4.719c1.39-.547 2.797-1.078 4.515-1.078 2.282 0 3.329 1.125 3 3.125-1.312-.641-2.796-.954-4.437-.954-5.406 0-8.64 2.594-8.64 7C.281-1.765 3 .484 7.046.484zm.078-6.437C7.125-7.234 8.156-8 9.953-8c.969 0 1.922.281 2.688.766l-.329 2.03c-.75.641-1.671.97-2.796.97-1.563-.047-2.391-.61-2.391-1.72zm0 0"/></symbol><symbol overflow="visible" id="3836dcfdaC"><path d="M.313 0h6.843l2.125-12.797c1.031-.844 2.156-1.25 3.36-1.25 1.843 0 2.671 1 2.406 2.89L13.157 0H20l1.922-11.594c.922-5.36-1.61-8.453-6.844-8.453-1.844 0-3.437.406-4.765 1.203l1.64-9.843L4.797-27zm0 0"/></symbol></defs><use xlink:href="#3836dcfda" x="24.96" y="66.66667"/><use xlink:href="#3836dcfdb" x="53.76" y="66.66667"/><use xlink:href="#3836dcfdc" x="73.52" y="66.66667"/><use xlink:href="#3836dcfdd" x="95.2" y="66.66667"/><use xlink:href="#3836dcfde" x="104.8" y="66.66667"/><use xlink:href="#3836dcfdf" x="133.6" y="66.66667"/><use xlink:href="#3836dcfdg" x="153.36" y="66.66667"/><use xlink:href="#3836dcfdh" x="67.83" y="100" fill="#b7b7b7"/><g fill="#b7b7b7"><use xlink:href="#3836dcfdi" x="73.62" y="100"/><use xlink:href="#3836dcfdj" x="78.93" y="100"/><use xlink:href="#3836dcfdk" x="83.8" y="100"/><use xlink:href="#3836dcfdl" x="86.38" y="100"/><use xlink:href="#3836dcfdm" x="91.69" y="100"/><use xlink:href="#3836dcfdn" x="97.01" y="100"/><use xlink:href="#3836dcfdo" x="99.39" y="100"/><use xlink:href="#3836dcfdp" x="101.55" y="100"/><use xlink:href="#3836dcfdq" x="107.15" y="100"/><use xlink:href="#3836dcfdo" x="112.45" y="100"/></g><g fill="#b7b7b7"><use xlink:href="#3836dcfdr" x="114.35" y="100"/><use xlink:href="#3836dcfdn" x="124.46" y="100"/><use xlink:href="#3836dcfds" x="126.84" y="100"/></g><use xlink:href="#3836dcfdt" x="24.56" y="166.66667"/><use xlink:href="#3836dcfdu" x="53.44" y="166.66667"/><use xlink:href="#3836dcfdv" x="73.36" y="166.66667"/><use xlink:href="#3836dcfdw" x="95.2" y="166.66667"/><use xlink:href="#3836dcfdx" x="104.8" y="166.66667"/><use xlink:href="#3836dcfdy" x="133.68" y="166.66667"/><use xlink:href="#3836dcfdz" x="153.6" y="166.66667"/><use xlink:href="#3836dcfdh" x="56.295" y="200" fill="#b7b7b7"/><g fill="#b7b7b7"><use xlink:href="#3836dcfdi" x="62.085" y="200"/><use xlink:href="#3836dcfdj" x="67.395" y="200"/><use xlink:href="#3836dcfdk" x="72.265" y="200"/><use xlink:href="#3836dcfdl" x="74.845" y="200"/><use xlink:href="#3836dcfdm" x="80.155" y="200"/><use xlink:href="#3836dcfdn" x="85.475" y="200"/><use xlink:href="#3836dcfdo" x="87.855" y="200"/><use xlink:href="#3836dcfdp" x="90.015" y="200"/><use xlink:href="#3836dcfdq" x="95.615" y="200"/><use xlink:href="#3836dcfdo" x="100.915" y="200"/><use xlink:href="#3836dcfdq" x="103.075" y="200"/><use xlink:href="#3836dcfdA" x="108.375" y="200"/><use xlink:href="#3836dcfdB" x="113.075" y="200"/><use xlink:href="#3836dcfdC" x="116.665" y="200"/></g><g fill="#b7b7b7"><use xlink:href="#3836dcfdD" x="120.135" y="200"/><use xlink:href="#3836dcfdk" x="124.885" y="200"/><use xlink:href="#3836dcfdn" x="127.465" y="200"/><use xlink:href="#3836dcfdE" x="129.845" y="200"/><use xlink:href="#3836dcfdm" x="134.795" y="200"/><use xlink:href="#3836dcfdB" x="140.115" y="200"/></g><use xlink:href="#3836dcfdF" x="24.12" y="266.66667"/><use xlink:href="#3836dcfdG" x="53.04" y="266.66667"/><use xlink:href="#3836dcfdH" x="73.16" y="266.66667"/><use xlink:href="#3836dcfdI" x="95.2" y="266.66667"/><use xlink:href="#3836dcfdJ" x="104.8" y="266.66667"/><use xlink:href="#3836dcfdK" x="133.72" y="266.66667"/><use xlink:href="#3836dcfdL" x="153.84" y="266.66667"/><use xlink:href="#3836dcfdh" x="66.06" y="300" fill="#b7b7b7"/><g fill="#b7b7b7"><use xlink:href="#3836dcfdi" x="71.85" y="300"/><use xlink:href="#3836dcfdj" x="77.16" y="300"/><use xlink:href="#3836dcfdk" x="82.03" y="300"/><use xlink:href="#3836dcfdl" x="84.61" y="300"/><use xlink:href="#3836dcfdm" x="89.92" y="300"/><use xlink:href="#3836dcfdn" x="95.24" y="300"/><use xlink:href="#3836dcfdo" x="97.62" y="300"/><use xlink:href="#3836dcfdp" x="99.78" y="300"/><use xlink:href="#3836dcfdq" x="105.38" y="300"/><use xlink:href="#3836dcfdo" x="110.68" y="300"/><use xlink:href="#3836dcfdM" x="112.84" y="300"/><use xlink:href="#3836dcfdn" x="117.7" y="300"/><use xlink:href="#3836dcfdE" x="120.08" y="300"/><use xlink:href="#3836dcfdm" x="125.03" y="300"/><use xlink:href="#3836dcfdB" x="130.35" y="300"/></g><use xlink:href="#3836dcfdN" x="23.6" y="366.66667"/><use xlink:href="#3836dcfdO" x="52.56" y="366.66667"/><use xlink:href="#3836dcfdP" x="72.92" y="366.66667"/><use xlink:href="#3836dcfdQ" x="95.2" y="366.66667"/><use xlink:href="#3836dcfdR" x="104.8" y="366.66667"/><use xlink:href="#3836dcfdS" x="133.76" y="366.66667"/><use xlink:href="#3836dcfdT" x="154.12" y="366.66667"/><use xlink:href="#3836dcfdh" x="60.78" y="400" fill="#b7b7b7"/><g fill="#b7b7b7"><use xlink:href="#3836dcfdi" x="66.57" y="400"/><use xlink:href="#3836dcfdj" x="71.88" y="400"/><use xlink:href="#3836dcfdk" x="76.75" y="400"/><use xlink:href="#3836dcfdl" x="79.33" y="400"/><use xlink:href="#3836dcfdm" x="84.64" y="400"/><use xlink:href="#3836dcfdn" x="89.96" y="400"/><use xlink:href="#3836dcfdo" x="92.34" y="400"/><use xlink:href="#3836dcfdp" x="94.5" y="400"/><use xlink:href="#3836dcfdq" x="100.1" y="400"/><use xlink:href="#3836dcfdo" x="105.4" y="400"/><use xlink:href="#3836dcfdU" x="107.56" y="400"/></g><g fill="#b7b7b7"><use xlink:href="#3836dcfdj" x="113.17" y="400"/><use xlink:href="#3836dcfdE" x="118.04" y="400"/><use xlink:href="#3836dcfdV" x="122.99" y="400"/><use xlink:href="#3836dcfdk" x="128.24" y="400"/><use xlink:href="#3836dcfdD" x="130.82" y="400"/><use xlink:href="#3836dcfdC" x="135.57" y="400"/></g><g><use xlink:href="#3836dcfdW" x="22.96" y="466.66667"/><use xlink:href="#3836dcfdX" x="52" y="466.66667"/><use xlink:href="#3836dcfdY" x="72.64" y="466.66667"/><use xlink:href="#3836dcfdZ" x="95.2" y="466.66667"/></g><g><use xlink:href="#3836dcfdaa" x="104.8" y="466.66667"/><use xlink:href="#3836dcfdab" x="133.84" y="466.66667"/><use xlink:href="#3836dcfdac" x="154.48" y="466.66667"/></g><g fill="#b7b7b7"><use xlink:href="#3836dcfdh" x="59.61" y="500"/></g><g fill="#b7b7b7"><use xlink:href="#3836dcfdi" x="65.4" y="500"/><use xlink:href="#3836dcfdj" x="70.71" y="500"/><use xlink:href="#3836dcfdk" x="75.58" y="500"/><use xlink:href="#3836dcfdl" x="78.16" y="500"/><use xlink:href="#3836dcfdm" x="83.47" y="500"/><use xlink:href="#3836dcfdn" x="88.79" y="500"/><use xlink:href="#3836dcfdo" x="91.17" y="500"/><use xlink:href="#3836dcfdp" x="93.33" y="500"/><use xlink:href="#3836dcfdq" x="98.93" y="500"/><use xlink:href="#3836dcfdo" x="104.23" y="500"/><use xlink:href="#3836dcfdad" x="106.39" y="500"/></g><g fill="#b7b7b7"><use xlink:href="#3836dcfdj" x="114.58" y="500"/><use xlink:href="#3836dcfdi" x="119.45" y="500"/><use xlink:href="#3836dcfdn" x="124.76" y="500"/><use xlink:href="#3836dcfdV" x="127.14" y="500"/><use xlink:href="#3836dcfdae" x="132.39" y="500"/></g><g><use xlink:href="#3836dcfdaf" x="22.32" y="566.66667"/><use xlink:href="#3836dcfdag" x="51.44" y="566.66667"/><use xlink:href="#3836dcfdah" x="72.36" y="566.66667"/><use xlink:href="#3836dcfdai" x="95.2" y="566.66667"/></g><g><use xlink:href="#3836dcfdaj" x="104.8" y="566.66667"/><use xlink:href="#3836dcfdak" x="133.92" y="566.66667"/><use xlink:href="#3836dcfdal" x="154.84" y="566.66667"/></g><g fill="#b7b7b7"><use xlink:href="#3836dcfdh" x="67.15" y="600"/></g><g fill="#b7b7b7"><use xlink:href="#3836dcfdi" x="72.94" y="600"/><use xlink:href="#3836dcfdj" x="78.25" y="600"/><use xlink:href="#3836dcfdk" x="83.12" y="600"/><use xlink:href="#3836dcfdl" x="85.7" y="600"/><use xlink:href="#3836dcfdm" x="91.01" y="600"/><use xlink:href="#3836dcfdn" x="96.33" y="600"/><use xlink:href="#3836dcfdo" x="98.71" y="600"/><use xlink:href="#3836dcfdp" x="100.87" y="600"/><use xlink:href="#3836dcfdq" x="106.47" y="600"/><use xlink:href="#3836dcfdo" x="111.77" y="600"/><use xlink:href="#3836dcfdam" x="113.93" y="600"/><use xlink:href="#3836dcfdan" x="119.75" y="600"/><use xlink:href="#3836dcfdk" x="124.96" y="600"/><use xlink:href="#3836dcfdi" x="127.54" y="600"/></g><g><use xlink:href="#3836dcfdao" x="21.8" y="666.66667"/><use xlink:href="#3836dcfdap" x="50.96" y="666.66667"/><use xlink:href="#3836dcfdaq" x="72.12" y="666.66667"/><use xlink:href="#3836dcfdar" x="95.2" y="666.66667"/></g><g><use xlink:href="#3836dcfdas" x="104.8" y="666.66667"/><use xlink:href="#3836dcfdat" x="133.96" y="666.66667"/><use xlink:href="#3836dcfdau" x="155.12" y="666.66667"/></g><g fill="#b7b7b7"><use xlink:href="#3836dcfdh" x="56.525" y="700"/></g><g fill="#b7b7b7"><use xlink:href="#3836dcfdi" x="62.315" y="700"/><use xlink:href="#3836dcfdj" x="67.625" y="700"/><use xlink:href="#3836dcfdk" x="72.495" y="700"/><use xlink:href="#3836dcfdl" x="75.075" y="700"/><use xlink:href="#3836dcfdm" x="80.385" y="700"/><use xlink:href="#3836dcfdn" x="85.705" y="700"/><use xlink:href="#3836dcfdo" x="88.085" y="700"/><use xlink:href="#3836dcfdp" x="90.245" y="700"/><use xlink:href="#3836dcfdq" x="95.845" y="700"/><use xlink:href="#3836dcfdo" x="101.145" y="700"/><use xlink:href="#3836dcfdq" x="103.305" y="700"/><use xlink:href="#3836dcfdA" x="108.605" y="700"/><use xlink:href="#3836dcfdB" x="113.305" y="700"/><use xlink:href="#3836dcfdC" x="116.895" y="700"/></g><g fill="#b7b7b7"><use xlink:href="#3836dcfdD" x="120.365" y="700"/><use xlink:href="#3836dcfdav" x="125.115" y="700"/><use xlink:href="#3836dcfdan" x="130.375" y="700"/><use xlink:href="#3836dcfdk" x="135.585" y="700"/><use xlink:href="#3836dcfdi" x="138.165" y="700"/></g><g><use xlink:href="#3836dcfdaw" x="21.32" y="766.66667"/><use xlink:href="#3836dcfdax" x="50.56" y="766.66667"/><use xlink:href="#3836dcfday" x="71.92" y="766.66667"/><use xlink:href="#3836dcfdaz" x="95.2" y="766.66667"/></g><g><use xlink:href="#3836dcfdaA" x="104.8" y="766.66667"/><use xlink:href="#3836dcfdaB" x="134.04" y="766.66667"/><use xlink:href="#3836dcfdaC" x="155.4" y="766.66667"/></g><g fill="#b7b7b7"><use xlink:href="#3836dcfdh" x="65.345" y="800"/></g><g fill="#b7b7b7"><use xlink:href="#3836dcfdi" x="71.135" y="800"/><use xlink:href="#3836dcfdj" x="76.445" y="800"/><use xlink:href="#3836dcfdk" x="81.315" y="800"/><use xlink:href="#3836dcfdl" x="83.895" y="800"/><use xlink:href="#3836dcfdm" x="89.205" y="800"/><use xlink:href="#3836dcfdn" x="94.525" y="800"/><use xlink:href="#3836dcfdo" x="96.905" y="800"/><use xlink:href="#3836dcfdp" x="99.065" y="800"/><use xlink:href="#3836dcfdq" x="104.665" y="800"/><use xlink:href="#3836dcfdo" x="109.965" y="800"/><use xlink:href="#3836dcfdam" x="112.125" y="800"/></g><g fill="#b7b7b7"><use xlink:href="#3836dcfdk" x="117.935" y="800"/><use xlink:href="#3836dcfdD" x="120.515" y="800"/><use xlink:href="#3836dcfdaD" x="125.265" y="800"/><use xlink:href="#3836dcfdaE" x="129.725" y="800"/></g></svg>