<?xml version='1.0' encoding='UTF-8'?>
<svg xmlns="http://www.w3.org/2000/svg" xmlns:xlink="http://www.w3.org/1999/xlink" width="600px" height="300px" viewBox="0 0 600 300" x="0px" y="0px" enable-background="new 0 0 600 300"><defs><symbol overflow="visible" id="8e8de439a"><path d="M29.69.95c10.39 0 18.08-4.15 22.87-12.47l-6.25-3.04C42.8-8.8 37.7-5.44 29.84-5.44c-12 0-19.12-8-19.12-21.43 0-13.44 7.12-21.44 19.12-21.44 7.85 0 12.96 3.36 16.47 9.1l6.25-3.02c-4.8-8.33-12.48-12.49-22.87-12.49-16.4 0-26.25 10.4-26.25 27.84C3.44-9.43 13.28.95 29.69.95zm0 0"/></symbol><symbol overflow="visible" id="8e8de439b"><path d="M6.8 0h36.33v-6H13.84v-18.31h20.64v-5.92H13.84v-17.54h28.32v-6H6.8zm0 0"/></symbol><symbol overflow="visible" id="8e8de439c"><path d="M6.8 0h33.76v-6.23H13.84v-47.54H6.8zm0 0"/></symbol><symbol overflow="visible" id="8e8de439d"><path d="M-10.95-24.23c2.72 0 4.3-1.61 4.3-4.33 0-2.72-1.58-4.32-4.3-4.32-2.74 0-4.33 1.6-4.33 4.32s1.6 4.33 4.33 4.33zm0 0"/></symbol><symbol overflow="visible" id="8e8de439e"><path d="M2 0h7.36l6.08-14.8h25.2L46.72 0h7.36L31.59-53.77h-7.1zm26.08-45.77l10.15 25.13H17.84zm0 0"/></symbol><symbol overflow="visible" id="8e8de439g"><path d="M22.8.95c7.76 0 13.43-3.03 17.04-9.1l-5.92-3.05c-2.33 3.84-5.76 6.15-10.87 6.15-8 0-12.74-5.26-12.74-14 0-8.8 4.74-14 12.74-14 5.1 0 8.54 2.25 10.87 6.1L39.84-30c-3.6-6.08-9.28-9.13-17.04-9.13-12.08 0-19.36 7.54-19.36 20.08 0 12.49 7.28 20 19.36 20zm0 0"/></symbol><symbol overflow="visible" id="8e8de439h"><path d="M22.8.95c7.76 0 13.43-3.03 17.04-9.1l-5.76-2.33c-2.4 3.76-5.92 5.92-11.13 5.92-7.67 0-12.39-4.57-13.03-12.49h30.8c.08-.95.08-1.82.08-2.64 0-12.08-6.96-19.43-18.24-19.43-11.68 0-19.12 7.76-19.12 20.07 0 12.49 7.28 20 19.36 20zm-.24-34.72c6.88 0 11.13 4.33 11.75 11.93H10c.95-7.44 5.6-11.93 12.56-11.93zm0 0"/></symbol><symbol overflow="visible" id="8e8de439i"><path d="M5.84 0h6.72v-56.56l-6.72 1.69zm0 0"/></symbol><symbol overflow="visible" id="8e8de439j"><path d="M4.4-25.52c2.47 0 4-1.53 4-4 0-2.48-1.53-4-4-4-2.48 0-4 1.52-4 4 0 2.47 1.52 4 4 4zm0 0"/></symbol><symbol overflow="visible" id="8e8de439k"><path d="M16.95.95c5.2 0 9.36-1.82 12.33-5.43L30 0h5.36v-23.92c0-9.85-5.44-15.2-15.67-15.2-5.61 0-10.57 1.43-14.82 4.32l3.54 4.72a19.85 19.85 0 0110.95-3.28c6.16 0 9.44 3.13 9.44 9.13v3.18a23.38 23.38 0 00-9.93-2.07c-9.92 0-15.92 4.4-15.92 12.07 0 7.28 5.61 12 14 12zM9.7-11.28c0-4.56 3.9-7.2 10.23-7.2 3.28 0 6.24.8 8.88 2.4v6.56C26.48-6 22.95-4.08 18.48-4.08c-5.2 0-8.8-2.72-8.8-7.2zm0 0"/></symbol><symbol overflow="visible" id="8e8de439l"><path d="M3.83 0v-5.95H6.2v-.82H.45v.82h2.4V0zm0 0"/></symbol><symbol overflow="visible" id="8e8de439m"><path d="M5.75-2.23v-.43c0-1.6-.9-2.51-2.42-2.51S.87-4.16.87-2.48c0 1.71.91 2.62 2.5 2.62 1.43 0 2.07-.56 2.29-1.52l-.9-.09c-.18.61-.59.9-1.35.9-.94 0-1.52-.54-1.58-1.66zm-2.4-2.2c.93 0 1.43.5 1.48 1.55H1.84c.08-1.07.6-1.56 1.5-1.56zm0 0"/></symbol><symbol overflow="visible" id="8e8de439n"><path d="M1.83 0l1.42-2h.06l1.46 2H5.8L4-2.53l1.78-2.49H4.8L3.42-3.08h-.08l-1.4-1.94H.89l1.78 2.49L.84 0zm0 0"/></symbol><symbol overflow="visible" id="8e8de439o"><path d="M5.52-4.25v-.77H3.17v-1.56h-.81l-.14 1.56H.75v.77h1.47v2.4c0 1.3.48 1.94 1.84 1.94C4.6.1 5.14 0 5.55-.14L5.4-.91c-.32.13-.72.2-1.13.2-.8 0-1.1-.37-1.1-1.23v-2.31zm0 0"/></symbol><symbol overflow="visible" id="8e8de439p"><path d="M3.33-3.42c.47 0 .8-.27.8-.8 0-.51-.33-.8-.8-.8-.47 0-.8.29-.8.8 0 .53.33.8.8.8zm0 3.5c.47 0 .8-.27.8-.78 0-.53-.33-.82-.8-.82-.47 0-.8.29-.8.82 0 .51.33.78.8.78zm0 0"/></symbol><symbol overflow="visible" id="8e8de439r"><path d="M3.42.14C5.1.14 5.9-.69 6.11-2.17l-.95-.1C4.96-1.19 4.5-.69 3.44-.69c-1.27 0-1.81-.94-1.81-2.69s.54-2.7 1.8-2.7c1.09 0 1.5.49 1.73 1.58l.93-.1c-.21-1.46-.95-2.3-2.62-2.3C1.53-6.9.62-5.6.62-3.38c0 2.2.91 3.51 2.8 3.51zm0 0"/></symbol><symbol overflow="visible" id="8e8de439s"><path d="M5.92-6.77H1.1V0h4.83v-.8H2.06v-2.26h3.22v-.75H2.06v-2.16h3.86zm0 0"/></symbol><symbol overflow="visible" id="8e8de439t"><path d="M2.08-6.77h-.99V0h4.79v-.81h-3.8zm0 0"/></symbol><symbol overflow="visible" id="8e8de439u"><path d="M3.33-1.98c.47 0 .8-.27.8-.85s-.33-.84-.8-.84c-.47 0-.78.26-.78.84s.3.85.78.85zm0 0"/></symbol><symbol overflow="visible" id="8e8de439v"><path d="M6.17 0L3.98-6.77h-1.3L.5 0h.97l.44-1.47h2.78L5.16 0zM3.28-5.94h.08l1.1 3.74H2.15zm0 0"/></symbol><symbol overflow="visible" id="8e8de439w"><path d="M3.34.14c1.43 0 2.13-.66 2.25-1.78l-.89-.1c-.1.7-.5 1.08-1.34 1.08-1.03 0-1.52-.64-1.52-1.84 0-1.23.47-1.86 1.52-1.86.84 0 1.23.36 1.34 1.08l.9-.1c-.13-1.09-.82-1.78-2.26-1.78-1.56 0-2.46.97-2.46 2.66 0 1.66.9 2.64 2.46 2.64zm0 0"/></symbol><symbol overflow="visible" id="8e8de439x"><path d="M3.92-7.14H1.36v.76h1.6v5.61H1.15V0H5.7v-.77H3.92zm0 0"/></symbol><symbol overflow="visible" id="8e8de439y"><path d="M2.83.14c.94 0 1.5-.39 1.81-.95h.08l.1.81h.76v-3.38c0-1.23-.69-1.8-2.13-1.8-1.43 0-2.03.65-2.18 1.6l.93.1c.11-.6.44-.93 1.22-.93.85 0 1.22.32 1.22 1.04v.34l-1.81.2C1.6-2.7 1.1-2.17 1.1-1.28c0 .92.64 1.42 1.72 1.42zm.25-.77c-.67 0-1.02-.28-1.02-.74 0-.44.28-.72 1-.82l1.58-.19v.41c0 .8-.6 1.34-1.56 1.34zm0 0"/></symbol><symbol overflow="visible" id="8e8de439z"><path d="M5.95-6.77H1.1V0h.99v-2.92H5.3v-.77H2.08v-2.26h3.87zm0 0"/></symbol><symbol overflow="visible" id="8e8de439A"><path d="M2.73.14c.9 0 1.43-.45 1.74-1.08h.06l.13.94h.8v-5.02h-.94v2.7c0 .98-.57 1.62-1.46 1.62-.75 0-1.1-.4-1.1-1.22v-3.1h-.93v3.32c0 1.17.55 1.84 1.7 1.84zm0 0"/></symbol><symbol overflow="visible" id="8e8de439B"><path d="M5.08-5.16c-.94 0-1.58.43-1.9 1.3h-.09l-.07-1.16H1.05v.77h1.1v3.48H.96V0h3.96v-.77H3.1v-1.46c0-1.36.6-2.05 1.83-2.05.4 0 .76.08 1.1.17l.15-.87c-.33-.11-.7-.18-1.11-.18zm0 0"/></symbol><symbol overflow="visible" id="8e8de439C"><path d="M2.16 0v-2.67c0-.99.59-1.63 1.46-1.63.74 0 1.07.38 1.07 1.22V0h.95v-3.31c0-1.2-.56-1.85-1.67-1.85-.92 0-1.49.46-1.77 1.08h-.06l-.12-.94H1.2V0zm0 0"/></symbol><symbol overflow="visible" id="8e8de439D"><path d="M1.45-2.95c0 2.56 1.08 4.37 3.67 4.84l.11-.67C3.28.86 2.43-.75 2.43-2.95s.85-3.82 2.8-4.16l-.1-.69c-2.6.49-3.68 2.3-3.68 4.85zm0 0"/></symbol><symbol overflow="visible" id="8e8de439E"><path d="M3.36.16c1.4 0 2.2-.6 2.2-1.57 0-.89-.54-1.22-1.47-1.39L3-3c-.67-.14-.86-.33-.86-.73 0-.5.4-.74 1.17-.74.83 0 1.19.27 1.27.8l.9-.05c-.12-1-.8-1.47-2.17-1.47-1.34 0-2.1.53-2.1 1.5 0 .81.45 1.22 1.52 1.44l1.04.2c.56.11.87.24.87.72 0 .52-.45.78-1.28.78-.95 0-1.36-.28-1.42-.87l-.9.06C1.07-.36 1.8.16 3.35.16zm0 0"/></symbol><symbol overflow="visible" id="8e8de439F"><path d="M3.16 2.03c1.67 0 2.4-.86 2.4-2.51v-4.54h-.81l-.13.91h-.06c-.26-.58-.8-1.05-1.73-1.05-1.42 0-2.24 1-2.24 2.52 0 1.6.75 2.56 2.2 2.56.94 0 1.5-.5 1.77-1.03h.05v.72c0 1.17-.42 1.67-1.45 1.67-.93 0-1.3-.34-1.41-.89L.8.5c.12.96.87 1.54 2.36 1.54zM3.06-.8c-.98 0-1.48-.57-1.48-1.82 0-1.13.5-1.75 1.48-1.75 1.06 0 1.58.76 1.58 1.75 0 .95-.56 1.82-1.58 1.82zm0 0"/></symbol><symbol overflow="visible" id="8e8de439G"><path d="M1.45-7.1c1.96.33 2.8 1.94 2.8 4.15 0 2.2-.84 3.8-2.8 4.17l.11.67c2.58-.47 3.67-2.28 3.67-4.84 0-2.55-1.09-4.36-3.67-4.85zm0 0"/></symbol></defs><g fill="#515151"><use xlink:href="#8e8de439a" x="82.64" y="159"/><use xlink:href="#8e8de439b" x="138" y="159"/></g><use xlink:href="#8e8de439c" x="184.8" y="159" fill="#fff"/><use xlink:href="#8e8de439d" x="227.36" y="159" fill="#fff"/><use xlink:href="#8e8de439c" x="227.36" y="159" fill="#fff"/><use xlink:href="#8e8de439e" x="271.36" y="159" fill="#515151"/><g fill="#515151"><use xlink:href="#8e8de439f" x="326" y="159"/><use xlink:href="#8e8de439g" x="345.2" y="159"/></g><use xlink:href="#8e8de439h" x="386.8" y="159" fill="#515151"/><use xlink:href="#8e8de439i" x="431.04" y="159" fill="#fff"/><use xlink:href="#8e8de439j" x="449.44" y="159" fill="#fff"/><use xlink:href="#8e8de439i" x="458.24" y="159" fill="#fff"/><use xlink:href="#8e8de439k" x="476.64" y="159" fill="#515151"/><g fill="#fff"><use xlink:href="#8e8de439l" x="236.6667" y="252"/><use xlink:href="#8e8de439m" x="243.3337" y="252"/><use xlink:href="#8e8de439n" x="250.0007" y="252"/><use xlink:href="#8e8de439o" x="256.6677" y="252"/><use xlink:href="#8e8de439p" x="263.3347" y="252"/><use xlink:href="#8e8de439q" x="270.0017" y="252"/><use xlink:href="#8e8de439r" x="276.6687" y="252"/><use xlink:href="#8e8de439s" x="283.3357" y="252"/><use xlink:href="#8e8de439t" x="290.0027" y="252"/><use xlink:href="#8e8de439u" x="296.6697" y="252"/><use xlink:href="#8e8de439t" x="303.3367" y="252"/><use xlink:href="#8e8de439v" x="310.0037" y="252"/><use xlink:href="#8e8de439q" x="316.6707" y="252"/><use xlink:href="#8e8de439w" x="323.3377" y="252"/><use xlink:href="#8e8de439m" x="330.0047" y="252"/><use xlink:href="#8e8de439x" x="336.6717" y="252"/><use xlink:href="#8e8de439u" x="343.3387" y="252"/><use xlink:href="#8e8de439x" x="350.0057" y="252"/><use xlink:href="#8e8de439y" x="356.6727" y="252"/></g><g fill="#fff"><use xlink:href="#8e8de439z" x="196.6667" y="266"/><use xlink:href="#8e8de439m" x="203.3337" y="266"/><use xlink:href="#8e8de439y" x="210.0007" y="266"/><use xlink:href="#8e8de439o" x="216.6677" y="266"/><use xlink:href="#8e8de439A" x="223.3347" y="266"/><use xlink:href="#8e8de439B" x="230.0017" y="266"/><use xlink:href="#8e8de439m" x="236.6687" y="266"/><use xlink:href="#8e8de439p" x="243.3357" y="266"/><use xlink:href="#8e8de439q" x="250.0027" y="266"/><use xlink:href="#8e8de439r" x="256.6697" y="266"/><use xlink:href="#8e8de439y" x="263.3367" y="266"/><use xlink:href="#8e8de439o" x="270.0037" y="266"/><use xlink:href="#8e8de439y" x="276.6707" y="266"/><use xlink:href="#8e8de439x" x="283.3377" y="266"/><use xlink:href="#8e8de439y" x="290.0047" y="266"/><use xlink:href="#8e8de439C" x="296.6717" y="266"/><use xlink:href="#8e8de439q" x="303.3387" y="266"/><use xlink:href="#8e8de439D" x="310.0057" y="266"/><use xlink:href="#8e8de439E" x="316.6727" y="266"/><use xlink:href="#8e8de439m" x="323.3397" y="266"/><use xlink:href="#8e8de439o" x="330.0067" y="266"/><use xlink:href="#8e8de439q" x="336.6737" y="266"/><use xlink:href="#8e8de439x" x="343.3407" y="266"/><use xlink:href="#8e8de439y" x="350.0077" y="266"/><use xlink:href="#8e8de439C" x="356.6747" y="266"/><use xlink:href="#8e8de439F" x="363.3417" y="266"/><use xlink:href="#8e8de439A" x="370.0087" y="266"/><use xlink:href="#8e8de439y" x="376.6757" y="266"/><use xlink:href="#8e8de439F" x="383.3427" y="266"/><use xlink:href="#8e8de439m" x="390.0097" y="266"/><use xlink:href="#8e8de439G" x="396.6767" y="266"/></g></svg>