<?xml version='1.0' encoding='UTF-8'?>
<svg xmlns="http://www.w3.org/2000/svg" xmlns:xlink="http://www.w3.org/1999/xlink" width="600px" height="300px" viewBox="0 0 600 300" x="0px" y="0px" enable-background="new 0 0 600 300"><defs><symbol overflow="visible" id="c14f7c63a"><path d="M1.6 13.44H8.3V0h46.17v13.44h6.72V-6.23h-5.84l-20.4-47.54h-7.12L7.44-6.23H1.59zm29.84-58.8L48-6.23H14.87zm0 0"/></symbol><symbol overflow="visible" id="c14f7c63b"><path d="M30.64-53.77h-7.12L2 0h7.52l17.6-45.05L44.64 0h7.52zm0 0"/></symbol><symbol overflow="visible" id="c14f7c63c"><path d="M1.6 11.52h6.32V0h34.16v11.52h6.4V-5.84h-5.53L28.41-38.16h-6.72L7.12-5.84H1.6zM25.04-30.8L36.08-5.84H14zm0 0"/></symbol><symbol overflow="visible" id="c14f7c63d"><path d="M24.56-38.16h-6.72L2 0h7.2l12-29.77L33.2 0h7.2zm0 0"/></symbol><symbol overflow="visible" id="c14f7c63e"><path d="M3.83 0v-5.95H6.2v-.82H.45v.82h2.4V0zm0 0"/></symbol><symbol overflow="visible" id="c14f7c63f"><path d="M5.75-2.23v-.43c0-1.6-.9-2.51-2.42-2.51S.87-4.16.87-2.48c0 1.71.91 2.62 2.5 2.62 1.43 0 2.07-.56 2.29-1.52l-.9-.09c-.18.61-.59.9-1.35.9-.94 0-1.52-.54-1.58-1.66zm-2.4-2.2c.93 0 1.43.5 1.48 1.55H1.84c.08-1.07.6-1.56 1.5-1.56zm0 0"/></symbol><symbol overflow="visible" id="c14f7c63g"><path d="M1.83 0l1.42-2h.06l1.46 2H5.8L4-2.53l1.78-2.49H4.8L3.42-3.08h-.08l-1.4-1.94H.89l1.78 2.49L.84 0zm0 0"/></symbol><symbol overflow="visible" id="c14f7c63h"><path d="M5.52-4.25v-.77H3.17v-1.56h-.81l-.14 1.56H.75v.77h1.47v2.4c0 1.3.48 1.94 1.84 1.94C4.6.1 5.14 0 5.55-.14L5.4-.91c-.32.13-.72.2-1.13.2-.8 0-1.1-.37-1.1-1.23v-2.31zm0 0"/></symbol><symbol overflow="visible" id="c14f7c63i"><path d="M3.33-3.42c.47 0 .8-.27.8-.8 0-.51-.33-.8-.8-.8-.47 0-.8.29-.8.8 0 .53.33.8.8.8zm0 3.5c.47 0 .8-.27.8-.78 0-.53-.33-.82-.8-.82-.47 0-.8.29-.8.82 0 .51.33.78.8.78zm0 0"/></symbol><symbol overflow="visible" id="c14f7c63k"><path d="M5.69-6.77H1.6c-.02 1.52-.02 2.79-.14 3.7a5.04 5.04 0 01-.7 2.26H.09v2.39H1V0h4.63v1.58h.9v-2.4H5.7zM1.72-.8c.26-.5.47-1.22.58-2.08.1-.75.12-1.9.15-3.08h2.3V-.8zm0 0"/></symbol><symbol overflow="visible" id="c14f7c63l"><path d="M1.63-6.77c-.05 1.49-.15 3.33-.2 4.29-.1 1.3-.32 1.7-.91 1.7C.39-.78.25-.8.19-.81L.12.02c.18.03.4.06.63.06 1.2 0 1.42-.94 1.53-2.47.06-.83.14-2.2.19-3.56H4.8V0h.94v-6.77zm0 0"/></symbol><symbol overflow="visible" id="c14f7c63m"><path d="M5.36-5.02H1.7a36.7 36.7 0 01-.12 2.44c-.06.9-.27 1.52-.55 1.81h-.6v2.1h.87V0h3.92v1.33h.87v-2.1h-.73zM1.92-.77c.25-.39.4-1.04.46-1.75.04-.46.07-1.12.1-1.75h1.97v3.5zm0 0"/></symbol><symbol overflow="visible" id="c14f7c63n"><path d="M1.58-5.02c-.03.94-.11 2.35-.17 3.08-.08.86-.24 1.19-.74 1.19-.12 0-.23-.02-.31-.03L.3.02c.14.03.36.06.55.06 1.06 0 1.3-.64 1.39-1.9.05-.54.1-1.63.14-2.43h2.06V0h.96v-5.02zm0 0"/></symbol><symbol overflow="visible" id="c14f7c63o"><path d="M5.95-6.77H1.1V0h.99v-2.92H5.3v-.77H2.08v-2.26h3.87zm0 0"/></symbol><symbol overflow="visible" id="c14f7c63p"><path d="M2.83.14c.94 0 1.5-.39 1.81-.95h.08l.1.81h.76v-3.38c0-1.23-.69-1.8-2.13-1.8-1.43 0-2.03.65-2.18 1.6l.93.1c.11-.6.44-.93 1.22-.93.85 0 1.22.32 1.22 1.04v.34l-1.81.2C1.6-2.7 1.1-2.17 1.1-1.28c0 .92.64 1.42 1.72 1.42zm.25-.77c-.67 0-1.02-.28-1.02-.74 0-.44.28-.72 1-.82l1.58-.19v.41c0 .8-.6 1.34-1.56 1.34zm0 0"/></symbol><symbol overflow="visible" id="c14f7c63q"><path d="M2.73.14c.9 0 1.43-.45 1.74-1.08h.06l.13.94h.8v-5.02h-.94v2.7c0 .98-.57 1.62-1.46 1.62-.75 0-1.1-.4-1.1-1.22v-3.1h-.93v3.32c0 1.17.55 1.84 1.7 1.84zm0 0"/></symbol><symbol overflow="visible" id="c14f7c63r"><path d="M5.08-5.16c-.94 0-1.58.43-1.9 1.3h-.09l-.07-1.16H1.05v.77h1.1v3.48H.96V0h3.96v-.77H3.1v-1.46c0-1.36.6-2.05 1.83-2.05.4 0 .76.08 1.1.17l.15-.87c-.33-.11-.7-.18-1.11-.18zm0 0"/></symbol><symbol overflow="visible" id="c14f7c63s"><path d="M3.42.14C5.1.14 5.9-.69 6.11-2.17l-.95-.1C4.96-1.19 4.5-.69 3.44-.69c-1.27 0-1.81-.94-1.81-2.69s.54-2.7 1.8-2.7c1.09 0 1.5.49 1.73 1.58l.93-.1c-.21-1.46-.95-2.3-2.62-2.3C1.53-6.9.62-5.6.62-3.38c0 2.2.91 3.51 2.8 3.51zm0 0"/></symbol><symbol overflow="visible" id="c14f7c63t"><path d="M3.42-.86h-.08L1.77-5.02H.8L2.73 0h.41c-.33.95-.72 1.27-1.45 1.27-.22 0-.49-.04-.69-.08l-.1.73c.2.06.58.11.87.11 1.2 0 1.7-.7 2.21-2.03l1.94-5.02H5zm0 0"/></symbol><symbol overflow="visible" id="c14f7c63u"><path d="M3.58-5.81c.42 0 .72-.22.72-.67 0-.44-.3-.68-.72-.68-.44 0-.72.24-.72.68 0 .45.28.67.72.67zm.5.8H1.52v.76h1.6v3.48h-1.8V0h4.46v-.77h-1.7zm0 0"/></symbol><symbol overflow="visible" id="c14f7c63v"><path d="M3.92-7.14H1.36v.76h1.6v5.61H1.15V0H5.7v-.77H3.92zm0 0"/></symbol><symbol overflow="visible" id="c14f7c63w"><path d="M3.34.14c1.43 0 2.13-.66 2.25-1.78l-.89-.1c-.1.7-.5 1.08-1.34 1.08-1.03 0-1.52-.64-1.52-1.84 0-1.23.47-1.86 1.52-1.86.84 0 1.23.36 1.34 1.08l.9-.1c-.13-1.09-.82-1.78-2.26-1.78-1.56 0-2.46.97-2.46 2.66 0 1.66.9 2.64 2.46 2.64zm0 0"/></symbol><symbol overflow="visible" id="c14f7c63x"><path d="M3.36.16c1.4 0 2.2-.6 2.2-1.57 0-.89-.54-1.22-1.47-1.39L3-3c-.67-.14-.86-.33-.86-.73 0-.5.4-.74 1.17-.74.83 0 1.19.27 1.27.8l.9-.05c-.12-1-.8-1.47-2.17-1.47-1.34 0-2.1.53-2.1 1.5 0 .81.45 1.22 1.52 1.44l1.04.2c.56.11.87.24.87.72 0 .52-.45.78-1.28.78-.95 0-1.36-.28-1.42-.87l-.9.06C1.07-.36 1.8.16 3.35.16zm0 0"/></symbol><symbol overflow="visible" id="c14f7c63y"><path d="M3.33.14c1.62 0 2.5-.95 2.5-2.66 0-1.68-.88-2.64-2.5-2.64-1.63 0-2.5.96-2.5 2.64 0 1.7.87 2.66 2.5 2.66zm0-.77c-1.06 0-1.52-.6-1.52-1.89 0-1.28.46-1.87 1.52-1.87 1.08 0 1.53.6 1.53 1.87 0 1.29-.45 1.9-1.53 1.9zm0 0"/></symbol><symbol overflow="visible" id="c14f7c63z"><path d="M4.63-6.5c.45 0 .98.08 1.39.2l.2-.72a5.3 5.3 0 00-1.64-.26c-1.52 0-2.16.56-2.16 1.87v.4H.9v.76h1.53V0h.94v-4.25h2.53v-.77H3.36v-.3c0-.84.33-1.18 1.27-1.18zm0 0"/></symbol><symbol overflow="visible" id="c14f7c63A"><path d="M1.63 0v-2.9c0-.8.15-1.4.71-1.4.41 0 .55.3.55.88V0h.95v-2.9c0-.8.18-1.4.72-1.4.4 0 .57.3.57.88V0h.95v-3.63c0-.92-.28-1.53-1.11-1.53-.63 0-.95.41-1.1.9h-.06c-.1-.52-.44-.9-1.08-.9-.6 0-.93.41-1.06.9H1.6l-.23-.76H.67V0zm0 0"/></symbol><symbol overflow="visible" id="c14f7c63B"><path d="M1.45-2.95c0 2.56 1.08 4.37 3.67 4.84l.11-.67C3.28.86 2.43-.75 2.43-2.95s.85-3.82 2.8-4.16l-.1-.69c-2.6.49-3.68 2.3-3.68 4.85zm0 0"/></symbol><symbol overflow="visible" id="c14f7c63C"><path d="M3.33.14c1.65 0 2.6-1.1 2.6-3.52S4.99-6.9 3.34-6.9C1.67-6.9.72-5.8.72-3.37c0 2.4.95 3.51 2.6 3.51zm0-.84c-1.13 0-1.6-.85-1.6-2.67 0-1.86.47-2.7 1.6-2.7 1.12 0 1.6.84 1.6 2.7 0 1.82-.48 2.67-1.6 2.67zM3.3-2.64c.38 0 .56-.28.56-.72 0-.44-.18-.7-.56-.7-.39 0-.56.26-.56.7 0 .44.17.72.56.72zm0 0"/></symbol><symbol overflow="visible" id="c14f7c63D"><path d="M3.25-6.9C1.67-6.9.77-6.04.77-4.6c0 1.41.85 2.18 2.21 2.18 1.04 0 1.58-.52 1.88-1.03h.06c0 1.54-.39 2.78-1.73 2.78-.9 0-1.24-.44-1.36-.97l-.97.1c.22.96.86 1.68 2.33 1.68C4.83.14 5.8-.9 5.8-3.64c0-2.22-.92-3.27-2.56-3.27zm-.02.8c.91 0 1.46.52 1.46 1.44 0 .91-.69 1.47-1.53 1.47-.91 0-1.46-.51-1.46-1.47S2.3-6.1 3.23-6.1zm0 0"/></symbol><symbol overflow="visible" id="c14f7c63E"><path d="M1.45-7.1c1.96.33 2.8 1.94 2.8 4.15 0 2.2-.84 3.8-2.8 4.17l.11.67c2.58-.47 3.67-2.28 3.67-4.84 0-2.55-1.09-4.36-3.67-4.85zm0 0"/></symbol></defs><g fill="#fff"><use xlink:href="#c14f7c63a" x="193.36" y="159"/><use xlink:href="#c14f7c63b" x="257.6" y="159"/><use xlink:href="#c14f7c63c" x="313.2" y="159"/><use xlink:href="#c14f7c63d" x="364.24" y="159"/><use xlink:href="#c14f7c63e" x="266.6667" y="252"/><use xlink:href="#c14f7c63f" x="273.3337" y="252"/><use xlink:href="#c14f7c63g" x="280.0007" y="252"/><use xlink:href="#c14f7c63h" x="286.6677" y="252"/><use xlink:href="#c14f7c63i" x="293.3347" y="252"/><use xlink:href="#c14f7c63j" x="300.0017" y="252"/><use xlink:href="#c14f7c63k" x="306.6687" y="252"/><use xlink:href="#c14f7c63l" x="313.3357" y="252"/><use xlink:href="#c14f7c63m" x="320.0027" y="252"/><use xlink:href="#c14f7c63n" x="326.6697" y="252"/><g><use xlink:href="#c14f7c63o" x="166.6667" y="266"/><use xlink:href="#c14f7c63f" x="173.3337" y="266"/><use xlink:href="#c14f7c63p" x="180.0007" y="266"/><use xlink:href="#c14f7c63h" x="186.6677" y="266"/><use xlink:href="#c14f7c63q" x="193.3347" y="266"/><use xlink:href="#c14f7c63r" x="200.0017" y="266"/><use xlink:href="#c14f7c63f" x="206.6687" y="266"/><use xlink:href="#c14f7c63i" x="213.3357" y="266"/><use xlink:href="#c14f7c63j" x="220.0027" y="266"/><use xlink:href="#c14f7c63s" x="226.6697" y="266"/><use xlink:href="#c14f7c63t" x="233.3367" y="266"/><use xlink:href="#c14f7c63r" x="240.0037" y="266"/><use xlink:href="#c14f7c63u" x="246.6707" y="266"/><use xlink:href="#c14f7c63v" x="253.3377" y="266"/><use xlink:href="#c14f7c63v" x="260.0047" y="266"/><use xlink:href="#c14f7c63u" x="266.6717" y="266"/><use xlink:href="#c14f7c63w" x="273.3387" y="266"/><use xlink:href="#c14f7c63j" x="280.0057" y="266"/><use xlink:href="#c14f7c63u" x="286.6727" y="266"/><use xlink:href="#c14f7c63x" x="293.3397" y="266"/><use xlink:href="#c14f7c63y" x="300.0067" y="266"/><use xlink:href="#c14f7c63x" x="306.6737" y="266"/><use xlink:href="#c14f7c63w" x="313.3407" y="266"/><use xlink:href="#c14f7c63f" x="320.0077" y="266"/><use xlink:href="#c14f7c63v" x="326.6747" y="266"/><use xlink:href="#c14f7c63f" x="333.3417" y="266"/><use xlink:href="#c14f7c63x" x="340.0087" y="266"/><use xlink:href="#c14f7c63j" x="346.6757" y="266"/><use xlink:href="#c14f7c63z" x="353.3427" y="266"/><use xlink:href="#c14f7c63y" x="360.0097" y="266"/><use xlink:href="#c14f7c63r" x="366.6767" y="266"/><use xlink:href="#c14f7c63A" x="373.3437" y="266"/><use xlink:href="#c14f7c63x" x="380.0107" y="266"/><use xlink:href="#c14f7c63j" x="386.6777" y="266"/><use xlink:href="#c14f7c63B" x="393.3447" y="266"/><use xlink:href="#c14f7c63x" x="400.0117" y="266"/><use xlink:href="#c14f7c63x" x="406.6787" y="266"/><use xlink:href="#c14f7c63C" x="413.3457" y="266"/><use xlink:href="#c14f7c63D" x="420.0127" y="266"/><use xlink:href="#c14f7c63E" x="426.6797" y="266"/></g></g></svg>