<?xml version='1.0' encoding='UTF-8'?>
<svg xmlns="http://www.w3.org/2000/svg" xmlns:xlink="http://www.w3.org/1999/xlink" width="600px" height="300px" viewBox="0 0 600 300" x="0px" y="0px" enable-background="new 0 0 600 300"><defs><symbol overflow="visible" id="3b15ebdaa"><path d="M6.8 0h6.72v-42.56l17.12 24.72h4.64l17.2-24.72V0h6.72v-53.77h-6.4L32.95-25.2 13.2-53.77H6.8zm0 0"/></symbol><symbol overflow="visible" id="3b15ebdab"><path d="M9.6-56.64l13.04-14.4H14.8L5.12-58.96zM6.8 0h7.04v-53.77H6.8zm0 0"/></symbol><symbol overflow="visible" id="3b15ebdac"><path d="M28.56-56.64l13.03-14.4h-7.82L24-58.96zM15.7.96c10.95 0 17.1-6.16 17.1-17.04v-37.69h-7.1v37.7c0 6.79-3.85 10.63-10.64 10.63-3.7 0-6.9-1.36-9.85-3.6L1.7-3.85c3.75 3.12 8.39 4.8 14 4.8zm0 0"/></symbol><symbol overflow="visible" id="3b15ebdad"><path d="M6.8 0h6.72v-42.48L45.12 0h6.4v-53.77H44.8v42.49L13.2-53.77H6.8zm0 0"/></symbol><symbol overflow="visible" id="3b15ebdaf"><path d="M5.84 0h6.72v-27.92a11.32 11.32 0 019.67-5.13c5.29 0 8.25 3.05 8.25 8.49V0h6.72v-25.13c0-1.03-.08-2.07-.15-3.03 2.64-3.2 6-4.89 9.83-4.89 5.28 0 8.32 3.05 8.32 8.49V0h6.72v-25.13c0-8.8-4.97-14-13.69-14-5.43 0-9.82 2-13.03 5.85-2.25-3.67-6.25-5.84-11.6-5.84-4.96 0-8.88 1.76-11.68 5.28l-.72-4.32H5.84zm0 0"/></symbol><symbol overflow="visible" id="3b15ebdag"><path d="M8.48-42.23l13.04-14.41h-7.83L4-44.56zM5.84 0h6.72v-38.16H5.84zm0 0"/></symbol><symbol overflow="visible" id="3b15ebdah"><path d="M8.48-42.23l13.04-14.41h-7.83L4-44.56zM-.08 16.48c8.08 0 12.64-4.56 12.64-12.64v-42H5.84V3.6c0 4.49-2.48 6.97-6.96 6.97-2.24 0-4-.56-5.83-1.36l-1.85 5.36a19.6 19.6 0 008.72 1.92zm0 0"/></symbol><symbol overflow="visible" id="3b15ebdai"><path d="M5.84 0h6.72v-27.44c2.72-3.6 6.4-5.6 10.96-5.6 5.6 0 8.96 3.35 8.96 8.96V0h6.72v-24.64c0-9.05-5.36-14.48-14.25-14.48-5.43 0-9.75 1.92-12.95 5.76l-.8-4.8H5.84zm0 0"/></symbol><symbol overflow="visible" id="3b15ebdaj"><path d="M3.83 0v-5.95H6.2v-.82H.45v.82h2.4V0zm0 0"/></symbol><symbol overflow="visible" id="3b15ebdak"><path d="M5.75-2.23v-.43c0-1.6-.9-2.51-2.42-2.51S.87-4.16.87-2.48c0 1.71.91 2.62 2.5 2.62 1.43 0 2.07-.56 2.29-1.52l-.9-.09c-.18.61-.59.9-1.35.9-.94 0-1.52-.54-1.58-1.66zm-2.4-2.2c.93 0 1.43.5 1.48 1.55H1.84c.08-1.07.6-1.56 1.5-1.56zm0 0"/></symbol><symbol overflow="visible" id="3b15ebdal"><path d="M1.83 0l1.42-2h.06l1.46 2H5.8L4-2.53l1.78-2.49H4.8L3.42-3.08h-.08l-1.4-1.94H.89l1.78 2.49L.84 0zm0 0"/></symbol><symbol overflow="visible" id="3b15ebdam"><path d="M5.52-4.25v-.77H3.17v-1.56h-.81l-.14 1.56H.75v.77h1.47v2.4c0 1.3.48 1.94 1.84 1.94C4.6.1 5.14 0 5.55-.14L5.4-.91c-.32.13-.72.2-1.13.2-.8 0-1.1-.37-1.1-1.23v-2.31zm0 0"/></symbol><symbol overflow="visible" id="3b15ebdan"><path d="M3.33-3.42c.47 0 .8-.27.8-.8 0-.51-.33-.8-.8-.8-.47 0-.8.29-.8.8 0 .53.33.8.8.8zm0 3.5c.47 0 .8-.27.8-.78 0-.53-.33-.82-.8-.82-.47 0-.8.29-.8.82 0 .51.33.78.8.78zm0 0"/></symbol><symbol overflow="visible" id="3b15ebdap"><path d="M1.64 0v-3.17l-.16-2.5h.1L2.9-1.83h.82l1.35-3.84h.1l-.16 2.5V0h.95v-6.77h-1.3l-1.3 3.82h-.09L2-6.77H.69V0zm0 0"/></symbol><symbol overflow="visible" id="3b15ebdaq"><path d="M3.7-7.31l1.32-1.82h-.97L2.95-7.3zm.13 1.34h1.73v-.8H1.1v.8h1.75v5.19H1.1V0h4.47v-.78H3.83zm0 0"/></symbol><symbol overflow="visible" id="3b15ebdar"><path d="M5.56-6.77h-3.8v.83h2.82v3.44c0 1.23-.28 1.81-1.36 1.81-.94 0-1.24-.48-1.33-1.3l-.03-.15-.92.1.01.18c.13 1.25.78 2 2.28 2 1.7 0 2.33-.86 2.33-2.64zm0 0"/></symbol><symbol overflow="visible" id="3b15ebdas"><path d="M1.84 0v-4.48l-.06-.99h.1L4.46 0h1.28v-6.77h-.92v4.4l.06 1.03h-.1L2.21-6.77H.92V0zm0 0"/></symbol><symbol overflow="visible" id="3b15ebdat"><path d="M1.63 0v-2.9c0-.8.15-1.4.71-1.4.41 0 .55.3.55.88V0h.95v-2.9c0-.8.18-1.4.72-1.4.4 0 .57.3.57.88V0h.95v-3.63c0-.92-.28-1.53-1.11-1.53-.63 0-.95.41-1.1.9h-.06c-.1-.52-.44-.9-1.08-.9-.6 0-.93.41-1.06.9H1.6l-.23-.76H.67V0zm0 0"/></symbol><symbol overflow="visible" id="3b15ebdau"><path d="M4.17-7.8l-1.1 2.08h.76L5.14-7.8zm-.1 2.78H1.53v.77h1.6v3.48h-1.8V0h4.46v-.77h-1.7zm0 0"/></symbol><symbol overflow="visible" id="3b15ebdav"><path d="M4.14-7.16c-.44 0-.72.24-.72.68 0 .45.28.67.72.67.42 0 .72-.22.72-.67 0-.44-.3-.68-.72-.68zm-2.8 2.14v.77h2.33v4.16c0 .95-.36 1.28-1.28 1.28-.4 0-.89-.08-1.23-.22l-.22.78c.42.17 1.1.28 1.6.28 1.55 0 2.08-.67 2.08-2.1v-4.95zm0 0"/></symbol><symbol overflow="visible" id="3b15ebdaw"><path d="M2.16 0v-2.67c0-.99.59-1.63 1.46-1.63.74 0 1.07.38 1.07 1.22V0h.95v-3.31c0-1.2-.56-1.85-1.67-1.85-.92 0-1.49.46-1.77 1.08h-.06l-.12-.94H1.2V0zm0 0"/></symbol><symbol overflow="visible" id="3b15ebdax"><path d="M5.95-6.77H1.1V0h.99v-2.92H5.3v-.77H2.08v-2.26h3.87zm0 0"/></symbol><symbol overflow="visible" id="3b15ebday"><path d="M2.83.14c.94 0 1.5-.39 1.81-.95h.08l.1.81h.76v-3.38c0-1.23-.69-1.8-2.13-1.8-1.43 0-2.03.65-2.18 1.6l.93.1c.11-.6.44-.93 1.22-.93.85 0 1.22.32 1.22 1.04v.34l-1.81.2C1.6-2.7 1.1-2.17 1.1-1.28c0 .92.64 1.42 1.72 1.42zm.25-.77c-.67 0-1.02-.28-1.02-.74 0-.44.28-.72 1-.82l1.58-.19v.41c0 .8-.6 1.34-1.56 1.34zm0 0"/></symbol><symbol overflow="visible" id="3b15ebdaz"><path d="M2.73.14c.9 0 1.43-.45 1.74-1.08h.06l.13.94h.8v-5.02h-.94v2.7c0 .98-.57 1.62-1.46 1.62-.75 0-1.1-.4-1.1-1.22v-3.1h-.93v3.32c0 1.17.55 1.84 1.7 1.84zm0 0"/></symbol><symbol overflow="visible" id="3b15ebdaA"><path d="M5.08-5.16c-.94 0-1.58.43-1.9 1.3h-.09l-.07-1.16H1.05v.77h1.1v3.48H.96V0h3.96v-.77H3.1v-1.46c0-1.36.6-2.05 1.83-2.05.4 0 .76.08 1.1.17l.15-.87c-.33-.11-.7-.18-1.11-.18zm0 0"/></symbol><symbol overflow="visible" id="3b15ebdaB"><path d="M.92-6.77V0h2.11c2.03 0 3.03-1.03 3.03-3.36 0-2.39-1.01-3.4-2.93-3.4zM1.91-.8v-5.17h1.18c1.29 0 1.96.63 1.96 2.61 0 1.94-.67 2.56-1.96 2.56zm0 0"/></symbol><symbol overflow="visible" id="3b15ebdaC"><path d="M3.34.14c1.43 0 2.13-.66 2.25-1.78l-.89-.1c-.1.7-.5 1.08-1.34 1.08-1.03 0-1.52-.64-1.52-1.84 0-1.23.47-1.86 1.52-1.86.84 0 1.23.36 1.34 1.08l.9-.1c-.13-1.09-.82-1.78-2.26-1.78-1.56 0-2.46.97-2.46 2.66 0 1.66.9 2.64 2.46 2.64zm0 0"/></symbol><symbol overflow="visible" id="3b15ebdaD"><path d="M2.16 0v-2.69c0-.98.6-1.6 1.46-1.6.74 0 1.07.4 1.07 1.2V0h.95v-3.31c0-1.17-.56-1.85-1.67-1.85-.9 0-1.44.46-1.75 1.08h-.06v-3.06H1.2V0zm0 0"/></symbol><symbol overflow="visible" id="3b15ebdaE"><path d="M3.38-5.97c.1-.47.4-1 .64-1.34l-.58-.22c-.35.39-.96 1.39-.96 2.26 0 .6.32.93.86.93.55 0 .85-.32.85-.85 0-.51-.35-.78-.82-.78zm0 0"/></symbol><symbol overflow="visible" id="3b15ebdaF"><path d="M3.58-5.81c.42 0 .72-.22.72-.67 0-.44-.3-.68-.72-.68-.44 0-.72.24-.72.68 0 .45.28.67.72.67zm.5.8H1.52v.76h1.6v3.48h-1.8V0h4.46v-.77h-1.7zm0 0"/></symbol><symbol overflow="visible" id="3b15ebdaG"><path d="M3.33-7.53c-.52 0-.8.28-.8.8 0 .51.33.76.78.76h.03c-.1.47-.4 1.02-.65 1.38l.5.2c.34-.4.95-1.36.95-2.25 0-.6-.31-.9-.81-.9zm0 0"/></symbol><symbol overflow="visible" id="3b15ebdaH"><path d="M2.44 0l.87-3.31h.06L4.25 0H5.3l1.03-5.02h-.88l-.73 3.94h-.08L3.77-4.4h-.85l-.87 3.33h-.08l-.75-3.94H.34L1.36 0zm0 0"/></symbol><symbol overflow="visible" id="3b15ebdaI"><path d="M1.45-2.95c0 2.56 1.08 4.37 3.67 4.84l.11-.67C3.28.86 2.43-.75 2.43-2.95s.85-3.82 2.8-4.16l-.1-.69c-2.6.49-3.68 2.3-3.68 4.85zm0 0"/></symbol><symbol overflow="visible" id="3b15ebdaJ"><path d="M3.36.16c1.4 0 2.2-.6 2.2-1.57 0-.89-.54-1.22-1.47-1.39L3-3c-.67-.14-.86-.33-.86-.73 0-.5.4-.74 1.17-.74.83 0 1.19.27 1.27.8l.9-.05c-.12-1-.8-1.47-2.17-1.47-1.34 0-2.1.53-2.1 1.5 0 .81.45 1.22 1.52 1.44l1.04.2c.56.11.87.24.87.72 0 .52-.45.78-1.28.78-.95 0-1.36-.28-1.42-.87l-.9.06C1.07-.36 1.8.16 3.35.16zm0 0"/></symbol><symbol overflow="visible" id="3b15ebdaK"><path d="M3.92-7.14H1.36v.76h1.6v5.61H1.15V0H5.7v-.77H3.92zm0 0"/></symbol><symbol overflow="visible" id="3b15ebdaL"><path d="M3.16 2.03c1.67 0 2.4-.86 2.4-2.51v-4.54h-.81l-.13.91h-.06c-.26-.58-.8-1.05-1.73-1.05-1.42 0-2.24 1-2.24 2.52 0 1.6.75 2.56 2.2 2.56.94 0 1.5-.5 1.77-1.03h.05v.72c0 1.17-.42 1.67-1.45 1.67-.93 0-1.3-.34-1.41-.89L.8.5c.12.96.87 1.54 2.36 1.54zM3.06-.8c-.98 0-1.48-.57-1.48-1.82 0-1.13.5-1.75 1.48-1.75 1.06 0 1.58.76 1.58 1.75 0 .95-.56 1.82-1.58 1.82zm0 0"/></symbol><symbol overflow="visible" id="3b15ebdaM"><path d="M1.45-7.1c1.96.33 2.8 1.94 2.8 4.15 0 2.2-.84 3.8-2.8 4.17l.11.67c2.58-.47 3.67-2.28 3.67-4.84 0-2.55-1.09-4.36-3.67-4.85zm0 0"/></symbol></defs><use xlink:href="#3b15ebdaa" x="122.6" y="159" fill="#515151"/><use xlink:href="#3b15ebdab" x="188.6" y="159" fill="#fff"/><use xlink:href="#3b15ebdac" x="209.24" y="159" fill="#fff"/><g fill="#515151"><use xlink:href="#3b15ebdad" x="248.36" y="159"/><use xlink:href="#3b15ebdae" x="306.68" y="159"/><use xlink:href="#3b15ebdaf" x="325.88" y="159"/></g><use xlink:href="#3b15ebdag" x="393.16" y="159" fill="#fff"/><use xlink:href="#3b15ebdah" x="414.44" y="159" fill="#fff"/><use xlink:href="#3b15ebdai" x="432.84" y="159" fill="#515151"/><g fill="#fff"><use xlink:href="#3b15ebdaj" x="250" y="252"/><use xlink:href="#3b15ebdak" x="256.667" y="252"/><use xlink:href="#3b15ebdal" x="263.334" y="252"/><use xlink:href="#3b15ebdam" x="270.001" y="252"/><use xlink:href="#3b15ebdan" x="276.668" y="252"/><use xlink:href="#3b15ebdao" x="283.335" y="252"/><use xlink:href="#3b15ebdap" x="290.002" y="252"/><use xlink:href="#3b15ebdaq" x="296.669" y="252"/><use xlink:href="#3b15ebdar" x="303.336" y="252"/><use xlink:href="#3b15ebdas" x="310.003" y="252"/><use xlink:href="#3b15ebdao" x="316.67" y="252"/><use xlink:href="#3b15ebdat" x="323.337" y="252"/><use xlink:href="#3b15ebdau" x="330.004" y="252"/><use xlink:href="#3b15ebdav" x="336.671" y="252"/><use xlink:href="#3b15ebdaw" x="343.338" y="252"/></g><g fill="#fff"><use xlink:href="#3b15ebdax" x="150" y="266"/><use xlink:href="#3b15ebdak" x="156.667" y="266"/><use xlink:href="#3b15ebday" x="163.334" y="266"/><use xlink:href="#3b15ebdam" x="170.001" y="266"/><use xlink:href="#3b15ebdaz" x="176.668" y="266"/><use xlink:href="#3b15ebdaA" x="183.335" y="266"/><use xlink:href="#3b15ebdak" x="190.002" y="266"/><use xlink:href="#3b15ebdan" x="196.669" y="266"/><use xlink:href="#3b15ebdao" x="203.336" y="266"/><use xlink:href="#3b15ebdaB" x="210.003" y="266"/><use xlink:href="#3b15ebdaz" x="216.67" y="266"/><use xlink:href="#3b15ebdam" x="223.337" y="266"/><use xlink:href="#3b15ebdaC" x="230.004" y="266"/><use xlink:href="#3b15ebdaD" x="236.671" y="266"/><use xlink:href="#3b15ebdao" x="243.338" y="266"/><use xlink:href="#3b15ebdaE" x="250.005" y="266"/><use xlink:href="#3b15ebdaF" x="256.672" y="266"/><use xlink:href="#3b15ebdav" x="263.339" y="266"/><use xlink:href="#3b15ebdaG" x="270.006" y="266"/><use xlink:href="#3b15ebdao" x="276.673" y="266"/><use xlink:href="#3b15ebdaH" x="283.34" y="266"/><use xlink:href="#3b15ebdaF" x="290.007" y="266"/><use xlink:href="#3b15ebdam" x="296.674" y="266"/><use xlink:href="#3b15ebdaD" x="303.341" y="266"/><use xlink:href="#3b15ebdao" x="310.008" y="266"/><use xlink:href="#3b15ebday" x="316.675" y="266"/><use xlink:href="#3b15ebdaC" x="323.342" y="266"/><use xlink:href="#3b15ebdaz" x="330.009" y="266"/><use xlink:href="#3b15ebdam" x="336.676" y="266"/><use xlink:href="#3b15ebdak" x="343.343" y="266"/><use xlink:href="#3b15ebdao" x="350.01" y="266"/><use xlink:href="#3b15ebdaI" x="356.677" y="266"/><use xlink:href="#3b15ebdaJ" x="363.344" y="266"/><use xlink:href="#3b15ebdak" x="370.011" y="266"/><use xlink:href="#3b15ebdam" x="376.678" y="266"/><use xlink:href="#3b15ebdao" x="383.345" y="266"/><use xlink:href="#3b15ebdaK" x="390.012" y="266"/><use xlink:href="#3b15ebday" x="396.679" y="266"/><use xlink:href="#3b15ebdaw" x="403.346" y="266"/><use xlink:href="#3b15ebdaL" x="410.013" y="266"/><use xlink:href="#3b15ebdaz" x="416.68" y="266"/><use xlink:href="#3b15ebday" x="423.347" y="266"/><use xlink:href="#3b15ebdaL" x="430.014" y="266"/><use xlink:href="#3b15ebdak" x="436.681" y="266"/><use xlink:href="#3b15ebdaM" x="443.348" y="266"/></g></svg>