<?xml version='1.0' encoding='UTF-8'?>
<svg xmlns="http://www.w3.org/2000/svg" xmlns:xlink="http://www.w3.org/1999/xlink" width="600px" height="300px" viewBox="0 0 600 300" x="0px" y="0px" enable-background="new 0 0 600 300"><defs><symbol overflow="visible" id="0d205d42a"><path d="M6.31 0h6.9v-35.92h22.95V0h6.89v-42H6.3zm0 0"/></symbol><symbol overflow="visible" id="0d205d42b"><path d="M6.31 0h6.74v-14.64h10.54c9.85 0 15.46-4.88 15.46-13.67 0-8.74-5.61-13.69-15.46-13.69H6.31zm16.97-36.08c5.67 0 8.88 2.8 8.88 7.77 0 5.03-3.2 7.83-8.88 7.83H13.05v-15.6zm0 0"/></symbol><symbol overflow="visible" id="0d205d42c"><path d="M3.13 0h19.82v-5.52c-7.43-3.84-11.18-9.53-11.18-16.89 0-8.95 5.51-14.3 14.64-14.3 9.18 0 14.71 5.35 14.71 14.3 0 7.36-3.76 13.05-11.2 16.9V0H49.7v-6h-10.9c6.26-4.16 9.44-9.84 9.44-17.13 0-12.39-8.15-19.82-21.82-19.82-13.61 0-21.77 7.43-21.77 19.83 0 7.28 3.2 12.96 9.44 17.12H3.12zm0 0"/></symbol><symbol overflow="visible" id="0d205d42d"><path d="M17.44 0h6.87v-35.92h14.82V-42H2.55v6.08h14.88zm0 0"/></symbol><symbol overflow="visible" id="0d205d42e"><path d="M25.44.95c13.76 0 22.08-8.23 22.08-21.9 0-13.77-8.32-22-22.08-22-13.67 0-22 8.23-22 22 0 13.67 8.33 21.9 22 21.9zm0-6.23c-9.28 0-14.88-5.84-14.88-15.67 0-9.93 5.6-15.77 14.88-15.77 9.36 0 14.97 5.84 14.97 15.77 0 9.82-5.61 15.67-14.97 15.67zm0 0"/></symbol><symbol overflow="visible" id="0d205d42f"><path d="M18.08 0h6.87v-17.92L42-42h-8L21.52-24.23 9.05-42h-8l17.03 24.08zm0 0"/></symbol><symbol overflow="visible" id="0d205d42g"><path d="M3.83 0v-5.95H6.2v-.82H.45v.82h2.4V0zm0 0"/></symbol><symbol overflow="visible" id="0d205d42h"><path d="M5.75-2.23v-.43c0-1.6-.9-2.51-2.42-2.51S.87-4.16.87-2.48c0 1.71.91 2.62 2.5 2.62 1.43 0 2.07-.56 2.29-1.52l-.9-.09c-.18.61-.59.9-1.35.9-.94 0-1.52-.54-1.58-1.66zm-2.4-2.2c.93 0 1.43.5 1.48 1.55H1.84c.08-1.07.6-1.56 1.5-1.56zm0 0"/></symbol><symbol overflow="visible" id="0d205d42i"><path d="M1.83 0l1.42-2h.06l1.46 2H5.8L4-2.53l1.78-2.49H4.8L3.42-3.08h-.08l-1.4-1.94H.89l1.78 2.49L.84 0zm0 0"/></symbol><symbol overflow="visible" id="0d205d42j"><path d="M5.52-4.25v-.77H3.17v-1.56h-.81l-.14 1.56H.75v.77h1.47v2.4c0 1.3.48 1.94 1.84 1.94C4.6.1 5.14 0 5.55-.14L5.4-.91c-.32.13-.72.2-1.13.2-.8 0-1.1-.37-1.1-1.23v-2.31zm0 0"/></symbol><symbol overflow="visible" id="0d205d42k"><path d="M3.33-3.42c.47 0 .8-.27.8-.8 0-.51-.33-.8-.8-.8-.47 0-.8.29-.8.8 0 .53.33.8.8.8zm0 3.5c.47 0 .8-.27.8-.78 0-.53-.33-.82-.8-.82-.47 0-.8.29-.8.82 0 .51.33.78.8.78zm0 0"/></symbol><symbol overflow="visible" id="0d205d42m"><path d="M.92-6.77V0h.94v-5.92H4.8V0h.94v-6.77zm0 0"/></symbol><symbol overflow="visible" id="0d205d42n"><path d="M1.88 1.9V-.84h.07c.28.58.83.97 1.66.97 1.45 0 2.22-.98 2.22-2.66 0-1.67-.9-2.64-2.46-2.64-1.53 0-2.45.91-2.45 2.64V1.9zM3.35-.65c-1 0-1.52-.75-1.52-1.88 0-1.23.52-1.84 1.52-1.84 1.05 0 1.5.61 1.5 1.84 0 1.27-.45 1.88-1.5 1.88zm0 0"/></symbol><symbol overflow="visible" id="0d205d42o"><path d="M2.06.14c.78 0 1.16-.53 1.24-1.22h.06c.1.69.47 1.22 1.23 1.22 1.04 0 1.44-.92 1.44-2.45 0-2.03-.92-2.77-1.76-2.85l-.1.77c.52.08 1.05.51 1.05 2.06 0 1-.11 1.69-.72 1.69-.6 0-.77-.75-.77-1.55v-1.44h-.8v1.44c0 .8-.15 1.55-.76 1.55-.6 0-.73-.69-.73-1.69 0-1.54.53-1.98 1.04-2.06l-.07-.77C1.56-5.08.62-4.34.62-2.3.63-.78 1.05.14 2.06.14zm0 0"/></symbol><symbol overflow="visible" id="0d205d42p"><path d="M5.7-5.02H.83v.83h1.92v2.94C2.75-.3 3.2.11 4.23.11c.36 0 .74-.05 1.02-.14l-.1-.7c-.18.04-.46.06-.67.06-.59 0-.8-.19-.8-.72v-2.8H5.7zm0 0"/></symbol><symbol overflow="visible" id="0d205d42q"><path d="M3.63-5.72l.87-1.8h-.94l-.69 1.8zM3.33.14c1.62 0 2.5-.95 2.5-2.66 0-1.68-.88-2.64-2.5-2.64-1.63 0-2.5.96-2.5 2.64 0 1.7.87 2.66 2.5 2.66zm0-.77c-1.06 0-1.52-.6-1.52-1.89 0-1.28.46-1.87 1.52-1.87 1.08 0 1.53.6 1.53 1.87 0 1.29-.45 1.9-1.53 1.9zm0 0"/></symbol><symbol overflow="visible" id="0d205d42r"><path d="M3.33.14c1.4 0 2.22-.72 2.22-2.31v-2.85h-.96v2.85c0 1.1-.39 1.53-1.26 1.53-.86 0-1.27-.42-1.27-1.53v-2.85h-.95v2.85c0 1.6.83 2.31 2.22 2.31zm0 0"/></symbol><symbol overflow="visible" id="0d205d42s"><path d="M6.08-5.02H.59v.83h.88V0h.87v-4.19h1.91v2.96C4.25-.27 4.63.1 5.42.1c.24 0 .47-.05.61-.1L5.97-.7l-.33.03c-.37 0-.5-.14-.5-.67V-4.2h.94zm0 0"/></symbol><symbol overflow="visible" id="0d205d42t"><path d="M3.33.14c1.62 0 2.5-.95 2.5-2.66 0-1.68-.88-2.64-2.5-2.64-1.63 0-2.5.96-2.5 2.64 0 1.7.87 2.66 2.5 2.66zm0-.77c-1.06 0-1.52-.6-1.52-1.89 0-1.28.46-1.87 1.52-1.87 1.08 0 1.53.6 1.53 1.87 0 1.29-.45 1.9-1.53 1.9zm0 0"/></symbol><symbol overflow="visible" id="0d205d42u"><path d="M5.95-6.77H1.1V0h.99v-2.92H5.3v-.77H2.08v-2.26h3.87zm0 0"/></symbol><symbol overflow="visible" id="0d205d42v"><path d="M2.83.14c.94 0 1.5-.39 1.81-.95h.08l.1.81h.76v-3.38c0-1.23-.69-1.8-2.13-1.8-1.43 0-2.03.65-2.18 1.6l.93.1c.11-.6.44-.93 1.22-.93.85 0 1.22.32 1.22 1.04v.34l-1.81.2C1.6-2.7 1.1-2.17 1.1-1.28c0 .92.64 1.42 1.72 1.42zm.25-.77c-.67 0-1.02-.28-1.02-.74 0-.44.28-.72 1-.82l1.58-.19v.41c0 .8-.6 1.34-1.56 1.34zm0 0"/></symbol><symbol overflow="visible" id="0d205d42w"><path d="M2.73.14c.9 0 1.43-.45 1.74-1.08h.06l.13.94h.8v-5.02h-.94v2.7c0 .98-.57 1.62-1.46 1.62-.75 0-1.1-.4-1.1-1.22v-3.1h-.93v3.32c0 1.17.55 1.84 1.7 1.84zm0 0"/></symbol><symbol overflow="visible" id="0d205d42x"><path d="M5.08-5.16c-.94 0-1.58.43-1.9 1.3h-.09l-.07-1.16H1.05v.77h1.1v3.48H.96V0h3.96v-.77H3.1v-1.46c0-1.36.6-2.05 1.83-2.05.4 0 .76.08 1.1.17l.15-.87c-.33-.11-.7-.18-1.11-.18zm0 0"/></symbol><symbol overflow="visible" id="0d205d42y"><path d="M3.55-2.73h1.67C5.09-1.45 4.58-.64 3.36-.64c-1.25 0-1.78-1.03-1.78-2.73 0-1.77.53-2.72 1.81-2.72.9 0 1.47.45 1.69 1.43l.95-.09C5.8-6 5.11-6.91 3.41-6.91 1.44-6.9.58-5.59.58-3.37.58-1.2 1.4.13 3.14.13c1.3 0 1.78-.73 2-1.36h.1L5.33 0h.75v-3.42H3.55zm0 0"/></symbol><symbol overflow="visible" id="0d205d42z"><path d="M5.77-5.02H4.63L2.3-2.88h-.06v-4.26h-.94V0h.94v-2.31h.06L4.71 0h1.24L3.23-2.69zm0 0"/></symbol><symbol overflow="visible" id="0d205d42A"><path d="M3.36.16c1.4 0 2.2-.6 2.2-1.57 0-.89-.54-1.22-1.47-1.39L3-3c-.67-.14-.86-.33-.86-.73 0-.5.4-.74 1.17-.74.83 0 1.19.27 1.27.8l.9-.05c-.12-1-.8-1.47-2.17-1.47-1.34 0-2.1.53-2.1 1.5 0 .81.45 1.22 1.52 1.44l1.04.2c.56.11.87.24.87.72 0 .52-.45.78-1.28.78-.95 0-1.36-.28-1.42-.87l-.9.06C1.07-.36 1.8.16 3.35.16zm0 0"/></symbol><symbol overflow="visible" id="0d205d42B"><path d="M1.63 0v-2.9c0-.8.15-1.4.71-1.4.41 0 .55.3.55.88V0h.95v-2.9c0-.8.18-1.4.72-1.4.4 0 .57.3.57.88V0h.95v-3.63c0-.92-.28-1.53-1.11-1.53-.63 0-.95.41-1.1.9h-.06c-.1-.52-.44-.9-1.08-.9-.6 0-.93.41-1.06.9H1.6l-.23-.76H.67V0zm0 0"/></symbol><symbol overflow="visible" id="0d205d42C"><path d="M3.92-7.14H1.36v.76h1.6v5.61H1.15V0H5.7v-.77H3.92zm0 0"/></symbol><symbol overflow="visible" id="0d205d42D"><path d="M3.34.14c1.43 0 2.13-.66 2.25-1.78l-.89-.1c-.1.7-.5 1.08-1.34 1.08-1.03 0-1.52-.64-1.52-1.84 0-1.23.47-1.86 1.52-1.86.84 0 1.23.36 1.34 1.08l.9-.1c-.13-1.09-.82-1.78-2.26-1.78-1.56 0-2.46.97-2.46 2.66 0 1.66.9 2.64 2.46 2.64zm0 0"/></symbol><symbol overflow="visible" id="0d205d42E"><path d="M2.06 1.9V-.84h.05c.28.58.8.97 1.77.97 1.5 0 2.2-.98 2.2-2.66 0-1.65-.7-2.64-2.19-2.64-.97 0-1.5.44-1.78 1.05h-.08l-.1-.9H1.1v6.9zm1.5-2.56c-1.06 0-1.53-.8-1.53-1.86 0-1.04.47-1.84 1.53-1.84 1.11 0 1.53.61 1.53 1.84 0 1.27-.42 1.86-1.53 1.86zm0 0"/></symbol><symbol overflow="visible" id="0d205d42F"><path d="M3.58-5.81c.42 0 .72-.22.72-.67 0-.44-.3-.68-.72-.68-.44 0-.72.24-.72.68 0 .45.28.67.72.67zm.5.8H1.52v.76h1.6v3.48h-1.8V0h4.46v-.77h-1.7zm0 0"/></symbol><symbol overflow="visible" id="0d205d42G"><path d="M1.45-2.95c0 2.56 1.08 4.37 3.67 4.84l.11-.67C3.28.86 2.43-.75 2.43-2.95s.85-3.82 2.8-4.16l-.1-.69c-2.6.49-3.68 2.3-3.68 4.85zm0 0"/></symbol><symbol overflow="visible" id="0d205d42H"><path d="M5.4-1.22c.43-.66.66-1.51.66-2.44l-.83-.09c0 .75-.14 1.4-.4 1.92l-1.7-1.83c.8-.42 1.39-.96 1.39-1.86 0-.87-.66-1.4-1.61-1.4-1.14 0-1.72.62-1.72 1.47 0 .72.47 1.3.83 1.68-.8.41-1.52.99-1.52 2.1C.5-.44 1.52.14 2.7.14c.9 0 1.64-.3 2.2-.78l.58.64h1.05zM2.86-6.25c.44 0 .82.23.82.73 0 .7-.47 1.11-1 1.41-.47-.53-.67-.92-.67-1.34 0-.47.3-.8.85-.8zM2.81-.62c-.83 0-1.42-.41-1.42-1.18 0-.76.5-1.18 1.05-1.5l1.94 2.1c-.4.37-.91.57-1.57.57zm0 0"/></symbol><symbol overflow="visible" id="0d205d42I"><path d="M5.67 0v-.86H2.14V-.9L3.6-2c1.05-.83 2-1.68 2-2.91 0-1.19-.73-1.99-2.26-1.99-1.66 0-2.3 1.02-2.44 2.33l1 .08c.1-.92.42-1.58 1.44-1.58.87 0 1.26.44 1.26 1.24 0 .9-.8 1.53-1.96 2.53L.83-.81V0zm0 0"/></symbol><symbol overflow="visible" id="0d205d42J"><path d="M1.45-7.1c1.96.33 2.8 1.94 2.8 4.15 0 2.2-.84 3.8-2.8 4.17l.11.67c2.58-.47 3.67-2.28 3.67-4.84 0-2.55-1.09-4.36-3.67-4.85zm0 0"/></symbol></defs><g fill="#fff"><use xlink:href="#0d205d42a" x="90" y="159"/><use xlink:href="#0d205d42b" x="139.36" y="159"/><use xlink:href="#0d205d42c" x="181.36" y="159"/><use xlink:href="#0d205d42d" x="233.28" y="159"/><use xlink:href="#0d205d42e" x="274" y="159"/><use xlink:href="#0d205d42d" x="324" y="159"/><use xlink:href="#0d205d42f" x="366.64" y="159"/><use xlink:href="#0d205d42a" x="409.68" y="159"/><use xlink:href="#0d205d42e" x="459.04" y="159"/><use xlink:href="#0d205d42g" x="250" y="252"/><use xlink:href="#0d205d42h" x="256.667" y="252"/><use xlink:href="#0d205d42i" x="263.334" y="252"/><use xlink:href="#0d205d42j" x="270.001" y="252"/><use xlink:href="#0d205d42k" x="276.668" y="252"/><use xlink:href="#0d205d42l" x="283.335" y="252"/><use xlink:href="#0d205d42m" x="290.002" y="252"/><use xlink:href="#0d205d42n" x="296.669" y="252"/><use xlink:href="#0d205d42o" x="303.336" y="252"/><use xlink:href="#0d205d42p" x="310.003" y="252"/><use xlink:href="#0d205d42q" x="316.67" y="252"/><use xlink:href="#0d205d42p" x="323.337" y="252"/><use xlink:href="#0d205d42r" x="330.004" y="252"/><use xlink:href="#0d205d42s" x="336.671" y="252"/><use xlink:href="#0d205d42t" x="343.338" y="252"/><g><use xlink:href="#0d205d42u" x="156.6667" y="266"/><use xlink:href="#0d205d42h" x="163.3337" y="266"/><use xlink:href="#0d205d42v" x="170.0007" y="266"/><use xlink:href="#0d205d42j" x="176.6677" y="266"/><use xlink:href="#0d205d42w" x="183.3347" y="266"/><use xlink:href="#0d205d42x" x="190.0017" y="266"/><use xlink:href="#0d205d42h" x="196.6687" y="266"/><use xlink:href="#0d205d42k" x="203.3357" y="266"/><use xlink:href="#0d205d42l" x="210.0027" y="266"/><use xlink:href="#0d205d42y" x="216.6697" y="266"/><use xlink:href="#0d205d42x" x="223.3367" y="266"/><use xlink:href="#0d205d42h" x="230.0037" y="266"/><use xlink:href="#0d205d42h" x="236.6707" y="266"/><use xlink:href="#0d205d42z" x="243.3377" y="266"/><use xlink:href="#0d205d42l" x="250.0047" y="266"/><use xlink:href="#0d205d42A" x="256.6717" y="266"/><use xlink:href="#0d205d42B" x="263.3387" y="266"/><use xlink:href="#0d205d42v" x="270.0057" y="266"/><use xlink:href="#0d205d42C" x="276.6727" y="266"/><use xlink:href="#0d205d42C" x="283.3397" y="266"/><use xlink:href="#0d205d42l" x="290.0067" y="266"/><use xlink:href="#0d205d42D" x="296.6737" y="266"/><use xlink:href="#0d205d42v" x="303.3407" y="266"/><use xlink:href="#0d205d42E" x="310.0077" y="266"/><use xlink:href="#0d205d42F" x="316.6747" y="266"/><use xlink:href="#0d205d42j" x="323.3417" y="266"/><use xlink:href="#0d205d42v" x="330.0087" y="266"/><use xlink:href="#0d205d42C" x="336.6757" y="266"/><use xlink:href="#0d205d42A" x="343.3427" y="266"/><use xlink:href="#0d205d42l" x="350.0097" y="266"/><use xlink:href="#0d205d42G" x="356.6767" y="266"/><use xlink:href="#0d205d42A" x="363.3437" y="266"/><use xlink:href="#0d205d42B" x="370.0107" y="266"/><use xlink:href="#0d205d42D" x="376.6777" y="266"/><use xlink:href="#0d205d42E" x="383.3447" y="266"/><use xlink:href="#0d205d42l" x="390.0117" y="266"/><use xlink:href="#0d205d42H" x="396.6787" y="266"/><use xlink:href="#0d205d42l" x="403.3457" y="266"/><use xlink:href="#0d205d42D" x="410.0127" y="266"/><use xlink:href="#0d205d42I" x="416.6797" y="266"/><use xlink:href="#0d205d42A" x="423.3467" y="266"/><use xlink:href="#0d205d42D" x="430.0137" y="266"/><use xlink:href="#0d205d42J" x="436.6807" y="266"/></g></g></svg>