<?xml version='1.0' encoding='UTF-8'?>
<svg xmlns="http://www.w3.org/2000/svg" xmlns:xlink="http://www.w3.org/1999/xlink" width="600px" height="300px" viewBox="0 0 600 300" x="0px" y="0px" enable-background="new 0 0 600 300"><defs><symbol overflow="visible" id="2c4a3b10a"><path d="M4.56 0h20.08v-6h-6.48v-41.77h6.48v-6H4.56v6h6.49V-6H4.56zm0 0"/></symbol><symbol overflow="visible" id="2c4a3b10b"><path d="M5.84 0h6.72v-56.56l-6.72 1.69zm0 0"/></symbol><symbol overflow="visible" id="2c4a3b10c"><path d="M9.2-45.6c2.72 0 4.32-1.6 4.32-4.32s-1.6-4.31-4.32-4.31-4.32 1.59-4.32 4.3c0 2.73 1.6 4.34 4.32 4.34zM5.84 0h6.72v-38.16H5.84zm0 0"/></symbol><symbol overflow="visible" id="2c4a3b10d"><path d="M5.84 0h6.72v-27.44c2.72-3.6 6.4-5.6 10.96-5.6 5.6 0 8.96 3.35 8.96 8.96V0h6.72v-24.64c0-9.05-5.36-14.48-14.25-14.48-5.43 0-9.75 1.92-12.95 5.76l-.8-4.8H5.84zm0 0"/></symbol><symbol overflow="visible" id="2c4a3b10e"><path d="M23.05.95c12.3 0 19.67-7.51 19.67-20 0-12.54-7.36-20.07-19.67-20.07-12.25 0-19.61 7.53-19.61 20.07 0 12.49 7.36 20 19.6 20zm0-6c-7.93 0-12.74-5.26-12.74-14 0-8.8 4.81-14 12.74-14 8 0 12.72 5.2 12.72 14 0 8.74-4.72 14-12.72 14zm0 0"/></symbol><symbol overflow="visible" id="2c4a3b10f"><path d="M18.23.95c9.61 0 15.7-4.54 15.7-11.75 0-9.36-8.09-10.56-14.57-11.43-4.8-.72-9.2-1.36-9.2-5.77 0-3.44 3.28-5.6 8.48-5.6 4.31 0 7.67 1.37 10.64 3.68l3.67-4.4c-3.6-3.12-8.39-4.8-14.3-4.8-9.3 0-15.21 4.4-15.21 11.28 0 8.89 7.76 10.07 14.15 11.04 4.97.8 9.61 1.52 9.61 6.16 0 3.77-3.43 6.08-8.97 6.08-4.71 0-8.64-1.75-12.07-4.57L2.48-4.8C6.72-1.05 11.84.95 18.23.95zm0 0"/></symbol><symbol overflow="visible" id="2c4a3b10g"><path d="M3.83 0v-5.95H6.2v-.82H.45v.82h2.4V0zm0 0"/></symbol><symbol overflow="visible" id="2c4a3b10h"><path d="M5.75-2.23v-.43c0-1.6-.9-2.51-2.42-2.51S.87-4.16.87-2.48c0 1.71.91 2.62 2.5 2.62 1.43 0 2.07-.56 2.29-1.52l-.9-.09c-.18.61-.59.9-1.35.9-.94 0-1.52-.54-1.58-1.66zm-2.4-2.2c.93 0 1.43.5 1.48 1.55H1.84c.08-1.07.6-1.56 1.5-1.56zm0 0"/></symbol><symbol overflow="visible" id="2c4a3b10i"><path d="M1.83 0l1.42-2h.06l1.46 2H5.8L4-2.53l1.78-2.49H4.8L3.42-3.08h-.08l-1.4-1.94H.89l1.78 2.49L.84 0zm0 0"/></symbol><symbol overflow="visible" id="2c4a3b10j"><path d="M5.52-4.25v-.77H3.17v-1.56h-.81l-.14 1.56H.75v.77h1.47v2.4c0 1.3.48 1.94 1.84 1.94C4.6.1 5.14 0 5.55-.14L5.4-.91c-.32.13-.72.2-1.13.2-.8 0-1.1-.37-1.1-1.23v-2.31zm0 0"/></symbol><symbol overflow="visible" id="2c4a3b10k"><path d="M3.33-3.42c.47 0 .8-.27.8-.8 0-.51-.33-.8-.8-.8-.47 0-.8.29-.8.8 0 .53.33.8.8.8zm0 3.5c.47 0 .8-.27.8-.78 0-.53-.33-.82-.8-.82-.47 0-.8.29-.8.82 0 .51.33.78.8.78zm0 0"/></symbol><symbol overflow="visible" id="2c4a3b10m"><path d="M3.83-5.97h1.73v-.8H1.1v.8h1.75v5.19H1.1V0h4.47v-.78H3.83zm0 0"/></symbol><symbol overflow="visible" id="2c4a3b10n"><path d="M3.92-7.14H1.36v.76h1.6v5.61H1.15V0H5.7v-.77H3.92zm0 0"/></symbol><symbol overflow="visible" id="2c4a3b10o"><path d="M3.58-5.81c.42 0 .72-.22.72-.67 0-.44-.3-.68-.72-.68-.44 0-.72.24-.72.68 0 .45.28.67.72.67zm.5.8H1.52v.76h1.6v3.48h-1.8V0h4.46v-.77h-1.7zm0 0"/></symbol><symbol overflow="visible" id="2c4a3b10p"><path d="M2.16 0v-2.67c0-.99.59-1.63 1.46-1.63.74 0 1.07.38 1.07 1.22V0h.95v-3.31c0-1.2-.56-1.85-1.67-1.85-.92 0-1.49.46-1.77 1.08h-.06l-.12-.94H1.2V0zm0 0"/></symbol><symbol overflow="visible" id="2c4a3b10q"><path d="M3.33.14c1.62 0 2.5-.95 2.5-2.66 0-1.68-.88-2.64-2.5-2.64-1.63 0-2.5.96-2.5 2.64 0 1.7.87 2.66 2.5 2.66zm0-.77c-1.06 0-1.52-.6-1.52-1.89 0-1.28.46-1.87 1.52-1.87 1.08 0 1.53.6 1.53 1.87 0 1.29-.45 1.9-1.53 1.9zm0 0"/></symbol><symbol overflow="visible" id="2c4a3b10r"><path d="M3.36.16c1.4 0 2.2-.6 2.2-1.57 0-.89-.54-1.22-1.47-1.39L3-3c-.67-.14-.86-.33-.86-.73 0-.5.4-.74 1.17-.74.83 0 1.19.27 1.27.8l.9-.05c-.12-1-.8-1.47-2.17-1.47-1.34 0-2.1.53-2.1 1.5 0 .81.45 1.22 1.52 1.44l1.04.2c.56.11.87.24.87.72 0 .52-.45.78-1.28.78-.95 0-1.36-.28-1.42-.87l-.9.06C1.07-.36 1.8.16 3.35.16zm0 0"/></symbol><symbol overflow="visible" id="2c4a3b10s"><path d="M5.95-6.77H1.1V0h.99v-2.92H5.3v-.77H2.08v-2.26h3.87zm0 0"/></symbol><symbol overflow="visible" id="2c4a3b10t"><path d="M2.83.14c.94 0 1.5-.39 1.81-.95h.08l.1.81h.76v-3.38c0-1.23-.69-1.8-2.13-1.8-1.43 0-2.03.65-2.18 1.6l.93.1c.11-.6.44-.93 1.22-.93.85 0 1.22.32 1.22 1.04v.34l-1.81.2C1.6-2.7 1.1-2.17 1.1-1.28c0 .92.64 1.42 1.72 1.42zm.25-.77c-.67 0-1.02-.28-1.02-.74 0-.44.28-.72 1-.82l1.58-.19v.41c0 .8-.6 1.34-1.56 1.34zm0 0"/></symbol><symbol overflow="visible" id="2c4a3b10u"><path d="M2.73.14c.9 0 1.43-.45 1.74-1.08h.06l.13.94h.8v-5.02h-.94v2.7c0 .98-.57 1.62-1.46 1.62-.75 0-1.1-.4-1.1-1.22v-3.1h-.93v3.32c0 1.17.55 1.84 1.7 1.84zm0 0"/></symbol><symbol overflow="visible" id="2c4a3b10v"><path d="M5.08-5.16c-.94 0-1.58.43-1.9 1.3h-.09l-.07-1.16H1.05v.77h1.1v3.48H.96V0h3.96v-.77H3.1v-1.46c0-1.36.6-2.05 1.83-2.05.4 0 .76.08 1.1.17l.15-.87c-.33-.11-.7-.18-1.11-.18zm0 0"/></symbol><symbol overflow="visible" id="2c4a3b10w"><path d="M3.34.14c1.7 0 2.64-.75 2.64-2 0-1.1-.67-1.6-1.95-1.86l-.97-.2c-.84-.16-1.2-.49-1.2-1.11 0-.7.56-1.11 1.56-1.11.99 0 1.47.34 1.63 1.23L5.97-5C5.8-6.28 4.95-6.9 3.45-6.9 1.81-6.9.92-6.18.92-4.98c0 1.06.63 1.66 1.85 1.9l1.01.2c.85.17 1.25.4 1.25 1.09 0 .73-.6 1.16-1.66 1.16-1.1 0-1.6-.4-1.75-1.24l-.93.1C.84-.53 1.66.13 3.34.13zm0 0"/></symbol><symbol overflow="visible" id="2c4a3b10x"><path d="M4.63-6.5c.45 0 .98.08 1.39.2l.2-.72a5.3 5.3 0 00-1.64-.26c-1.52 0-2.16.56-2.16 1.87v.4H.9v.76h1.53V0h.94v-4.25h2.53v-.77H3.36v-.3c0-.84.33-1.18 1.27-1.18zm0 0"/></symbol><symbol overflow="visible" id="2c4a3b10y"><path d="M2.84.14C3.8.14 4.33-.26 4.6-.9h.07L4.8 0h.76v-7.14h-.95v2.95h-.08c-.28-.6-.86-.97-1.67-.97-1.48 0-2.27.99-2.27 2.64C.6-.84 1.36.14 2.84.14zm.22-.8c-.98 0-1.48-.59-1.48-1.84s.5-1.86 1.48-1.86c1.13 0 1.58.8 1.58 1.86S4.2-.66 3.06-.66zm0 0"/></symbol><symbol overflow="visible" id="2c4a3b10z"><path d="M3.38-5.97c.1-.47.4-1 .64-1.34l-.58-.22c-.35.39-.96 1.39-.96 2.26 0 .6.32.93.86.93.55 0 .85-.32.85-.85 0-.51-.35-.78-.82-.78zm0 0"/></symbol><symbol overflow="visible" id="2c4a3b10A"><path d="M3.33-7.53c-.52 0-.8.28-.8.8 0 .51.33.76.78.76h.03c-.1.47-.4 1.02-.65 1.38l.5.2c.34-.4.95-1.36.95-2.25 0-.6-.31-.9-.81-.9zm0 0"/></symbol><symbol overflow="visible" id="2c4a3b10B"><path d="M1.45-2.95c0 2.56 1.08 4.37 3.67 4.84l.11-.67C3.28.86 2.43-.75 2.43-2.95s.85-3.82 2.8-4.16l-.1-.69c-2.6.49-3.68 2.3-3.68 4.85zm0 0"/></symbol><symbol overflow="visible" id="2c4a3b10C"><path d="M4.22-6.77h-.86l-2.03.7v.87c.64-.17 1.26-.38 1.89-.55v4.9H1.03V0h4.9v-.86H4.21zm0 0"/></symbol><symbol overflow="visible" id="2c4a3b10D"><path d="M5.1 0v-1.47H6v-.81h-.9v-4.49H3.8L.48-2.23v.76h3.66V0zM1.5-2.33l2.6-3.53h.04v3.58H1.5zm0 0"/></symbol><symbol overflow="visible" id="2c4a3b10E"><path d="M1.45-7.1c1.96.33 2.8 1.94 2.8 4.15 0 2.2-.84 3.8-2.8 4.17l.11.67c2.58-.47 3.67-2.28 3.67-4.84 0-2.55-1.09-4.36-3.67-4.85zm0 0"/></symbol></defs><use xlink:href="#2c4a3b10a" x="184.8" y="159" fill="#fff"/><g fill="#515151"><use xlink:href="#2c4a3b10b" x="214" y="159"/><use xlink:href="#2c4a3b10b" x="232.4" y="159"/><use xlink:href="#2c4a3b10c" x="250.8" y="159"/><use xlink:href="#2c4a3b10d" x="269.2" y="159"/><use xlink:href="#2c4a3b10e" x="313.76" y="159"/><use xlink:href="#2c4a3b10c" x="359.92" y="159"/><use xlink:href="#2c4a3b10f" x="378.32" y="159"/></g><g fill="#fff"><use xlink:href="#2c4a3b10g" x="253.3333" y="252"/><use xlink:href="#2c4a3b10h" x="260.0003" y="252"/><use xlink:href="#2c4a3b10i" x="266.6673" y="252"/><use xlink:href="#2c4a3b10j" x="273.3343" y="252"/><use xlink:href="#2c4a3b10k" x="280.0013" y="252"/><use xlink:href="#2c4a3b10l" x="286.6683" y="252"/><use xlink:href="#2c4a3b10m" x="293.3353" y="252"/><use xlink:href="#2c4a3b10n" x="300.0023" y="252"/><use xlink:href="#2c4a3b10n" x="306.6693" y="252"/><use xlink:href="#2c4a3b10o" x="313.3363" y="252"/><use xlink:href="#2c4a3b10p" x="320.0033" y="252"/><use xlink:href="#2c4a3b10q" x="326.6703" y="252"/><use xlink:href="#2c4a3b10o" x="333.3373" y="252"/><use xlink:href="#2c4a3b10r" x="340.0043" y="252"/></g><g fill="#fff"><use xlink:href="#2c4a3b10s" x="183.3333" y="266"/><use xlink:href="#2c4a3b10h" x="190.0003" y="266"/><use xlink:href="#2c4a3b10t" x="196.6673" y="266"/><use xlink:href="#2c4a3b10j" x="203.3343" y="266"/><use xlink:href="#2c4a3b10u" x="210.0013" y="266"/><use xlink:href="#2c4a3b10v" x="216.6683" y="266"/><use xlink:href="#2c4a3b10h" x="223.3353" y="266"/><use xlink:href="#2c4a3b10k" x="230.0023" y="266"/><use xlink:href="#2c4a3b10l" x="236.6693" y="266"/><use xlink:href="#2c4a3b10w" x="243.3363" y="266"/><use xlink:href="#2c4a3b10h" x="250.0033" y="266"/><use xlink:href="#2c4a3b10v" x="256.6703" y="266"/><use xlink:href="#2c4a3b10o" x="263.3373" y="266"/><use xlink:href="#2c4a3b10x" x="270.0043" y="266"/><use xlink:href="#2c4a3b10x" x="276.6713" y="266"/><use xlink:href="#2c4a3b10h" x="283.3383" y="266"/><use xlink:href="#2c4a3b10y" x="290.0053" y="266"/><use xlink:href="#2c4a3b10l" x="296.6723" y="266"/><use xlink:href="#2c4a3b10n" x="303.3393" y="266"/><use xlink:href="#2c4a3b10h" x="310.0063" y="266"/><use xlink:href="#2c4a3b10j" x="316.6733" y="266"/><use xlink:href="#2c4a3b10j" x="323.3403" y="266"/><use xlink:href="#2c4a3b10h" x="330.0073" y="266"/><use xlink:href="#2c4a3b10v" x="336.6743" y="266"/><use xlink:href="#2c4a3b10l" x="343.3413" y="266"/><use xlink:href="#2c4a3b10z" x="350.0083" y="266"/><use xlink:href="#2c4a3b10m" x="356.6753" y="266"/><use xlink:href="#2c4a3b10A" x="363.3423" y="266"/><use xlink:href="#2c4a3b10l" x="370.0093" y="266"/><use xlink:href="#2c4a3b10B" x="376.6763" y="266"/><use xlink:href="#2c4a3b10r" x="383.3433" y="266"/><use xlink:href="#2c4a3b10r" x="390.0103" y="266"/><use xlink:href="#2c4a3b10C" x="396.6773" y="266"/><use xlink:href="#2c4a3b10D" x="403.3443" y="266"/><use xlink:href="#2c4a3b10E" x="410.0113" y="266"/></g></svg>