<?xml version='1.0' encoding='UTF-8'?>
<svg xmlns="http://www.w3.org/2000/svg" xmlns:xlink="http://www.w3.org/1999/xlink" width="600px" height="300px" viewBox="0 0 600 300" x="0px" y="0px" enable-background="new 0 0 600 300"><defs><symbol overflow="visible" id="20161c5fa"><path d="M6.8 0h7.04v-53.77H6.8zm0 0"/></symbol><symbol overflow="visible" id="20161c5fb"><path d="M16.23.95c2.25 0 4.25-.3 5.85-.95l-.95-5.69c-1.2.4-2.41.64-3.85.64-3.12 0-4.72-1.67-4.72-4.8v-46.71l-6.72 1.69v45.43c0 6.72 3.68 10.4 10.4 10.4zm0 0"/></symbol><symbol overflow="visible" id="20161c5fc"><path d="M9.2-45.6c2.72 0 4.32-1.6 4.32-4.32s-1.6-4.31-4.32-4.31-4.32 1.59-4.32 4.3c0 2.73 1.6 4.34 4.32 4.34zM5.84 0h6.72v-38.16H5.84zm0 0"/></symbol><symbol overflow="visible" id="20161c5fd"><path d="M5.84 0h6.72v-27.44c2.72-3.6 6.4-5.6 10.96-5.6 5.6 0 8.96 3.35 8.96 8.96V0h6.72v-24.64c0-9.05-5.36-14.48-14.25-14.48-5.43 0-9.75 1.92-12.95 5.76l-.8-4.8H5.84zm0 0"/></symbol><symbol overflow="visible" id="20161c5fe"><path d="M23.05.95c12.3 0 19.67-7.51 19.67-20 0-12.54-7.36-20.07-19.67-20.07-12.25 0-19.61 7.53-19.61 20.07 0 12.49 7.36 20 19.6 20zm0-6c-7.93 0-12.74-5.26-12.74-14 0-8.8 4.81-14 12.74-14 8 0 12.72 5.2 12.72 14 0 8.74-4.72 14-12.72 14zm0 0"/></symbol><symbol overflow="visible" id="20161c5ff"><path d="M18.23.95c9.61 0 15.7-4.54 15.7-11.75 0-9.36-8.09-10.56-14.57-11.43-4.8-.72-9.2-1.36-9.2-5.77 0-3.44 3.28-5.6 8.48-5.6 4.31 0 7.67 1.37 10.64 3.68l3.67-4.4c-3.6-3.12-8.39-4.8-14.3-4.8-9.3 0-15.21 4.4-15.21 11.28 0 8.89 7.76 10.07 14.15 11.04 4.97.8 9.61 1.52 9.61 6.16 0 3.77-3.43 6.08-8.97 6.08-4.71 0-8.64-1.75-12.07-4.57L2.48-4.8C6.72-1.05 11.84.95 18.23.95zm0 0"/></symbol><symbol overflow="visible" id="20161c5fg"><path d="M3.83 0v-5.95H6.2v-.82H.45v.82h2.4V0zm0 0"/></symbol><symbol overflow="visible" id="20161c5fh"><path d="M5.75-2.23v-.43c0-1.6-.9-2.51-2.42-2.51S.87-4.16.87-2.48c0 1.71.91 2.62 2.5 2.62 1.43 0 2.07-.56 2.29-1.52l-.9-.09c-.18.61-.59.9-1.35.9-.94 0-1.52-.54-1.58-1.66zm-2.4-2.2c.93 0 1.43.5 1.48 1.55H1.84c.08-1.07.6-1.56 1.5-1.56zm0 0"/></symbol><symbol overflow="visible" id="20161c5fi"><path d="M1.83 0l1.42-2h.06l1.46 2H5.8L4-2.53l1.78-2.49H4.8L3.42-3.08h-.08l-1.4-1.94H.89l1.78 2.49L.84 0zm0 0"/></symbol><symbol overflow="visible" id="20161c5fj"><path d="M5.52-4.25v-.77H3.17v-1.56h-.81l-.14 1.56H.75v.77h1.47v2.4c0 1.3.48 1.94 1.84 1.94C4.6.1 5.14 0 5.55-.14L5.4-.91c-.32.13-.72.2-1.13.2-.8 0-1.1-.37-1.1-1.23v-2.31zm0 0"/></symbol><symbol overflow="visible" id="20161c5fk"><path d="M3.33-3.42c.47 0 .8-.27.8-.8 0-.51-.33-.8-.8-.8-.47 0-.8.29-.8.8 0 .53.33.8.8.8zm0 3.5c.47 0 .8-.27.8-.78 0-.53-.33-.82-.8-.82-.47 0-.8.29-.8.82 0 .51.33.78.8.78zm0 0"/></symbol><symbol overflow="visible" id="20161c5fm"><path d="M3.83-5.97h1.73v-.8H1.1v.8h1.75v5.19H1.1V0h4.47v-.78H3.83zm0 0"/></symbol><symbol overflow="visible" id="20161c5fn"><path d="M3.92-7.14H1.36v.76h1.6v5.61H1.15V0H5.7v-.77H3.92zm0 0"/></symbol><symbol overflow="visible" id="20161c5fo"><path d="M3.58-5.81c.42 0 .72-.22.72-.67 0-.44-.3-.68-.72-.68-.44 0-.72.24-.72.68 0 .45.28.67.72.67zm.5.8H1.52v.76h1.6v3.48h-1.8V0h4.46v-.77h-1.7zm0 0"/></symbol><symbol overflow="visible" id="20161c5fp"><path d="M2.16 0v-2.67c0-.99.59-1.63 1.46-1.63.74 0 1.07.38 1.07 1.22V0h.95v-3.31c0-1.2-.56-1.85-1.67-1.85-.92 0-1.49.46-1.77 1.08h-.06l-.12-.94H1.2V0zm0 0"/></symbol><symbol overflow="visible" id="20161c5fq"><path d="M3.33.14c1.62 0 2.5-.95 2.5-2.66 0-1.68-.88-2.64-2.5-2.64-1.63 0-2.5.96-2.5 2.64 0 1.7.87 2.66 2.5 2.66zm0-.77c-1.06 0-1.52-.6-1.52-1.89 0-1.28.46-1.87 1.52-1.87 1.08 0 1.53.6 1.53 1.87 0 1.29-.45 1.9-1.53 1.9zm0 0"/></symbol><symbol overflow="visible" id="20161c5fr"><path d="M3.36.16c1.4 0 2.2-.6 2.2-1.57 0-.89-.54-1.22-1.47-1.39L3-3c-.67-.14-.86-.33-.86-.73 0-.5.4-.74 1.17-.74.83 0 1.19.27 1.27.8l.9-.05c-.12-1-.8-1.47-2.17-1.47-1.34 0-2.1.53-2.1 1.5 0 .81.45 1.22 1.52 1.44l1.04.2c.56.11.87.24.87.72 0 .52-.45.78-1.28.78-.95 0-1.36-.28-1.42-.87l-.9.06C1.07-.36 1.8.16 3.35.16zm0 0"/></symbol><symbol overflow="visible" id="20161c5fs"><path d="M5.95-6.77H1.1V0h.99v-2.92H5.3v-.77H2.08v-2.26h3.87zm0 0"/></symbol><symbol overflow="visible" id="20161c5ft"><path d="M2.83.14c.94 0 1.5-.39 1.81-.95h.08l.1.81h.76v-3.38c0-1.23-.69-1.8-2.13-1.8-1.43 0-2.03.65-2.18 1.6l.93.1c.11-.6.44-.93 1.22-.93.85 0 1.22.32 1.22 1.04v.34l-1.81.2C1.6-2.7 1.1-2.17 1.1-1.28c0 .92.64 1.42 1.72 1.42zm.25-.77c-.67 0-1.02-.28-1.02-.74 0-.44.28-.72 1-.82l1.58-.19v.41c0 .8-.6 1.34-1.56 1.34zm0 0"/></symbol><symbol overflow="visible" id="20161c5fu"><path d="M2.73.14c.9 0 1.43-.45 1.74-1.08h.06l.13.94h.8v-5.02h-.94v2.7c0 .98-.57 1.62-1.46 1.62-.75 0-1.1-.4-1.1-1.22v-3.1h-.93v3.32c0 1.17.55 1.84 1.7 1.84zm0 0"/></symbol><symbol overflow="visible" id="20161c5fv"><path d="M5.08-5.16c-.94 0-1.58.43-1.9 1.3h-.09l-.07-1.16H1.05v.77h1.1v3.48H.96V0h3.96v-.77H3.1v-1.46c0-1.36.6-2.05 1.83-2.05.4 0 .76.08 1.1.17l.15-.87c-.33-.11-.7-.18-1.11-.18zm0 0"/></symbol><symbol overflow="visible" id="20161c5fw"><path d="M1.9 0v-3.03h2.87V0h.98v-6.77h-.98v2.91H1.9v-2.9H.92V0zm0 0"/></symbol><symbol overflow="visible" id="20161c5fx"><path d="M5.77-5.02H4.63L2.3-2.88h-.06v-4.26h-.94V0h.94v-2.31h.06L4.71 0h1.24L3.23-2.69zm0 0"/></symbol><symbol overflow="visible" id="20161c5fy"><path d="M2.84.14C3.8.14 4.33-.26 4.6-.9h.07L4.8 0h.76v-7.14h-.95v2.95h-.08c-.28-.6-.86-.97-1.67-.97-1.48 0-2.27.99-2.27 2.64C.6-.84 1.36.14 2.84.14zm.22-.8c-.98 0-1.48-.59-1.48-1.84s.5-1.86 1.48-1.86c1.13 0 1.58.8 1.58 1.86S4.2-.66 3.06-.66zm0 0"/></symbol><symbol overflow="visible" id="20161c5fz"><path d="M3.38-5.97c.1-.47.4-1 .64-1.34l-.58-.22c-.35.39-.96 1.39-.96 2.26 0 .6.32.93.86.93.55 0 .85-.32.85-.85 0-.51-.35-.78-.82-.78zm0 0"/></symbol><symbol overflow="visible" id="20161c5fA"><path d="M3.33-7.53c-.52 0-.8.28-.8.8 0 .51.33.76.78.76h.03c-.1.47-.4 1.02-.65 1.38l.5.2c.34-.4.95-1.36.95-2.25 0-.6-.31-.9-.81-.9zm0 0"/></symbol><symbol overflow="visible" id="20161c5fB"><path d="M1.45-2.95c0 2.56 1.08 4.37 3.67 4.84l.11-.67C3.28.86 2.43-.75 2.43-2.95s.85-3.82 2.8-4.16l-.1-.69c-2.6.49-3.68 2.3-3.68 4.85zm0 0"/></symbol><symbol overflow="visible" id="20161c5fC"><path d="M3.33.14c1.65 0 2.6-1.1 2.6-3.52S4.99-6.9 3.34-6.9C1.67-6.9.72-5.8.72-3.37c0 2.4.95 3.51 2.6 3.51zm0-.84c-1.13 0-1.6-.85-1.6-2.67 0-1.86.47-2.7 1.6-2.7 1.12 0 1.6.84 1.6 2.7 0 1.82-.48 2.67-1.6 2.67zM3.3-2.64c.38 0 .56-.28.56-.72 0-.44-.18-.7-.56-.7-.39 0-.56.26-.56.7 0 .44.17.72.56.72zm0 0"/></symbol><symbol overflow="visible" id="20161c5fD"><path d="M5.1 0v-1.47H6v-.81h-.9v-4.49H3.8L.48-2.23v.76h3.66V0zM1.5-2.33l2.6-3.53h.04v3.58H1.5zm0 0"/></symbol><symbol overflow="visible" id="20161c5fE"><path d="M1.45-7.1c1.96.33 2.8 1.94 2.8 4.15 0 2.2-.84 3.8-2.8 4.17l.11.67c2.58-.47 3.67-2.28 3.67-4.84 0-2.55-1.09-4.36-3.67-4.85zm0 0"/></symbol></defs><use xlink:href="#20161c5fa" x="185.24" y="159" fill="#515151"/><use xlink:href="#20161c5fb" x="205.88" y="159" fill="#fff"/><use xlink:href="#20161c5fb" x="228.12" y="159" fill="#fff"/><g fill="#515151"><use xlink:href="#20161c5fc" x="250.36" y="159"/><use xlink:href="#20161c5fd" x="268.76" y="159"/><use xlink:href="#20161c5fe" x="313.32" y="159"/><use xlink:href="#20161c5fc" x="359.48" y="159"/><use xlink:href="#20161c5ff" x="377.88" y="159"/></g><g fill="#fff"><use xlink:href="#20161c5fg" x="253.3333" y="252"/><use xlink:href="#20161c5fh" x="260.0003" y="252"/><use xlink:href="#20161c5fi" x="266.6673" y="252"/><use xlink:href="#20161c5fj" x="273.3343" y="252"/><use xlink:href="#20161c5fk" x="280.0013" y="252"/><use xlink:href="#20161c5fl" x="286.6683" y="252"/><use xlink:href="#20161c5fm" x="293.3353" y="252"/><use xlink:href="#20161c5fn" x="300.0023" y="252"/><use xlink:href="#20161c5fn" x="306.6693" y="252"/><use xlink:href="#20161c5fo" x="313.3363" y="252"/><use xlink:href="#20161c5fp" x="320.0033" y="252"/><use xlink:href="#20161c5fq" x="326.6703" y="252"/><use xlink:href="#20161c5fo" x="333.3373" y="252"/><use xlink:href="#20161c5fr" x="340.0043" y="252"/></g><g fill="#fff"><use xlink:href="#20161c5fs" x="190" y="266"/><use xlink:href="#20161c5fh" x="196.667" y="266"/><use xlink:href="#20161c5ft" x="203.334" y="266"/><use xlink:href="#20161c5fj" x="210.001" y="266"/><use xlink:href="#20161c5fu" x="216.668" y="266"/><use xlink:href="#20161c5fv" x="223.335" y="266"/><use xlink:href="#20161c5fh" x="230.002" y="266"/><use xlink:href="#20161c5fk" x="236.669" y="266"/><use xlink:href="#20161c5fl" x="243.336" y="266"/><use xlink:href="#20161c5fw" x="250.003" y="266"/><use xlink:href="#20161c5fq" x="256.67" y="266"/><use xlink:href="#20161c5fq" x="263.337" y="266"/><use xlink:href="#20161c5fx" x="270.004" y="266"/><use xlink:href="#20161c5fh" x="276.671" y="266"/><use xlink:href="#20161c5fy" x="283.338" y="266"/><use xlink:href="#20161c5fl" x="290.005" y="266"/><use xlink:href="#20161c5fn" x="296.672" y="266"/><use xlink:href="#20161c5fh" x="303.339" y="266"/><use xlink:href="#20161c5fj" x="310.006" y="266"/><use xlink:href="#20161c5fj" x="316.673" y="266"/><use xlink:href="#20161c5fh" x="323.34" y="266"/><use xlink:href="#20161c5fv" x="330.007" y="266"/><use xlink:href="#20161c5fl" x="336.674" y="266"/><use xlink:href="#20161c5fz" x="343.341" y="266"/><use xlink:href="#20161c5fn" x="350.008" y="266"/><use xlink:href="#20161c5fA" x="356.675" y="266"/><use xlink:href="#20161c5fl" x="363.342" y="266"/><use xlink:href="#20161c5fB" x="370.009" y="266"/><use xlink:href="#20161c5fr" x="376.676" y="266"/><use xlink:href="#20161c5fr" x="383.343" y="266"/><use xlink:href="#20161c5fC" x="390.01" y="266"/><use xlink:href="#20161c5fD" x="396.677" y="266"/><use xlink:href="#20161c5fE" x="403.344" y="266"/></g></svg>