<?xml version='1.0' encoding='UTF-8'?>
<svg xmlns="http://www.w3.org/2000/svg" xmlns:xlink="http://www.w3.org/1999/xlink" width="2200px" height="1400px" viewBox="0 0 2200 1400" x="0px" y="0px" enable-background="new 0 0 2200 1400"><defs><symbol overflow="visible" id="a97b1925bc"><path d="M161.406-73c16.547 0 26.235-13.125 26.235-34.234v-31.938h108.953V0h70.14v-338.797h66.735v-56.469H218.453v56.47h78.14v129.468H184.798v-88.969c0-59.89-43.922-104.953-102.094-104.953-49.625 0-83.281 31.375-83.281 77 0 34.797 20.547 65.594 54.187 81l33.657-27.953c-18.25-11.406-27.375-24.531-27.375-39.36 0-17.671 10.828-29.656 26.797-29.656 17.124 0 28.53 15.969 28.53 38.781v92.97h-22.25c-20.53 0-35.359 11.405-35.359 28.53C57.61-146.577 122.625-73 161.406-73zm0 0"/></symbol><symbol overflow="visible" id="a97b1925be"><path d="M285.188-423.203l38.203-51.344c-15.391-17.11-41.063-36.5-63.313-47.328l-38.781 50.766c21.11 13.109 46.766 32.5 63.89 47.906zM45.625-59.313c0 98.672 64.453 152.282 181.953 152.282 146.578 0 205.89-54.75 205.89-126.047 0-36.5-20.53-61.031-63.874-78.719 34.797-22.812 50.765-58.734 50.765-112.36 0-110.64-50.765-172.812-129.468-172.812-58.75 0-108.375 46.203-108.375 107.797 0 66.735 54.75 112.938 171.672 116.922-10.829 15.969-44.485 32.516-88.97 34.219l-14.827 67.875c84.406 4 110.64 20.531 110.64 40.5 0 24.515-27.937 44.484-126.61 44.484-83.28 0-118.64-26.812-118.64-77.562 0-19.97 4.563-47.344 13.125-69.594l-73.015 8.562c-5.703 20.532-10.266 42.782-10.266 64.454zM245.828-288.03c0-22.813 16.531-41.063 44.484-41.063 33.079 0 61.032 32.5 64.454 88.406-81.563 0-108.938-18.828-108.938-47.343zm0 0"/></symbol><symbol overflow="visible" id="a97b1925bg"><path d="M95.25 0h46.203C264.641 0 326.25-65.594 326.25-180.797c0-42.781-9.703-79.281-27.375-107.812 27.375-26.235 51.89-54.75 74.14-84.97v-1.14L274.907-377c-7.984 14.25-18.25 27.375-29.656 39.922-24.516-13.125-55.313-19.969-90.688-19.969-47.328 0-93.53 10.266-134.03 28.516l13.124 70.734c33.64-17.687 71.297-32.515 114.64-32.515 62.735 0 96.954 42.78 96.954 109.515 0 73-34.219 115.781-79.844 115.781h-5.703l-13.125-75.296C138.594-186.5 119.203-204.188 73-204.188c-17.672 0-33.078 2.843-45.625 6.265l5.703 59.89c6.281-1.702 13.125-2.843 18.828-2.843 13.688 0 19.39 7.406 22.235 23.953zM71.86 151.719c17.109-19.969 44.5-37.64 77.578-37.64 34.78 0 63.875 14.827 84.984 34.78 55.89-10.265 91.828-49.609 91.828-116.922l-64.453 1.72c0 24.515-5.703 42.765-25.672 53.609-25.656-22.25-66.156-38.22-107.797-38.22-32.5 0-63.312 11.985-83.844 28.517zm0 0"/></symbol><symbol overflow="visible" id="a97b1925bh"><path d="M316.547 6.844c47.344 0 78.719-29.657 78.719-78.14 0-35.36-20.547-62.735-47.922-71.86 5.14-7.422 7.422-17.11 7.422-30.235v-41.64c0-88.406-56.47-139.156-164.266-139.156-57.61 0-113.5 18.25-150 39.921l15.39 66.735c34.797-24.531 80.422-43.36 129.47-43.36 61.03 0 93.546 29.094 93.546 88.985v55.89c-45.625 5.703-82.125 29.094-108.375 59.891v-57.61c0-49.046-30.219-80.421-78.703-80.421-45.062 0-74.719 26.812-74.719 67.875 0 41.062 25.094 67.875 70.72 67.875 2.28 0 5.14 0 7.421-.563V0h62.734c18.828-31.375 45.641-60.453 79.282-77.563v5.704c0 49.046 31.375 78.703 79.28 78.703zM87.266-126.625c-15.97 0-26.813-11.406-26.813-29.656 0-17.672 10.844-29.078 26.813-29.078 16.546 0 27.375 11.406 27.375 29.078 0 18.25-10.829 29.656-27.375 29.656zm229.28 88.984c-17.671 0-29.655-12.547-29.655-32.515 0-19.953 11.984-33.078 29.656-33.078 17.11 0 29.094 13.125 29.094 33.078 0 19.969-11.985 32.515-29.094 32.515zm0 0"/></symbol><symbol overflow="visible" id="a97b1925bi"><path d="M.64 0h9.985l3.688-10.938h18.515L36.516 0H46.75L29.39-47.203H18zm16.22-18.516l6.671-19.968 6.75 19.968zm0 0"/></symbol><symbol overflow="visible" id="a97b1925bj"><path d="M17.422.766c2.36 0 5.61-.391 8.344-1.907l-.891-7.125c-1.781 1.079-3.375 1.594-5.031 1.594-3.172 0-4.516-1.719-4.516-5.406v-15.844H25.5v-6.547H15.328v-11.078L6.61-43.516v9.047H1.08v6.547h5.53v17.172C6.61-2.094 11.188.766 17.422.766zm0 0"/></symbol><symbol overflow="visible" id="a97b1925bk"><path d="M4.516 0h8.78v-20.094c1.204-5.156 4.642-6.875 8.267-6.875 1.656 0 3.312.375 4.515.828l.64-8.203c-.89-.453-2.421-.765-4.14-.765-4.125 0-7.375 1.906-9.61 7.125l-.187-6.485H4.516zm0 0"/></symbol><symbol overflow="visible" id="a97b1925bl"><path d="M4.203-40.266h9.594v-8.14H4.203zM4.641 0h8.78v-34.469h-8.78zm0 0"/></symbol><symbol overflow="visible" id="a97b1925bm"><path d="M22.828.766c9.422 0 15.844-6.813 15.844-18.391 0-11.063-5.844-17.61-14.5-17.61-4.64 0-8.14 2.032-10.875 5.141v-19.39H4.516V0h8.015l.25-3.625c2.86 3.25 6.235 4.39 10.047 4.39zm-2.156-7.25c-3.11 0-5.781-1.22-7.375-3.438v-13.11c1.656-2.796 4.64-4.577 8.14-4.577 4.829 0 8.266 3.375 8.266 10.25 0 6.734-3.437 10.875-9.031 10.875zm0 0"/></symbol><symbol overflow="visible" id="a97b1925bn"><path d="M15.906.766c5.531 0 8.969-2.672 11.188-6.047L27.219 0H35.5v-34.469h-8.781v21.938c-1.078 2.797-3.563 5.656-7.828 5.656-3.75 0-5.782-2.156-5.782-7.063v-20.53H4.33v22.39C4.328-3.875 8.593.766 15.905.766zm0 0"/></symbol><symbol overflow="visible" id="a97b1925bo"><path d="M20.734.766c6.172 0 10.938-1.782 13.938-3.688l-1.469-7.062c-3.172 2.156-6.547 3.625-11.39 3.625-6.985 0-10.047-3.188-10.422-8.47h23.718v-3.937c0-8.593-3.937-16.468-15.578-16.468-10.687 0-17.11 6.984-17.11 18.375C2.422-5.781 8.595.766 20.735.766zm-9.343-21.25c.437-5.532 3.937-8.203 8.265-8.203 5.344 0 7 3.75 7 7.625v.578zm0 0"/></symbol><symbol overflow="visible" id="a97b1925bp"><path d="M15.781.766c9.031 0 14.563-3.563 14.563-10.813 0-6.875-5.344-9.156-10.938-10.625-5.031-1.265-7.39-1.844-7.39-4.328 0-1.969 1.593-3.375 5.406-3.375 3.828 0 7.265 1.406 10.062 3.188l1.391-7.313c-2.922-1.719-7-2.734-11.516-2.734-9.28 0-14.047 4.187-14.047 10.812 0 7.125 5.532 9.094 11.313 10.688 5.031 1.39 6.938 1.968 6.938 4.312 0 2.047-1.532 3.375-5.47 3.375-4.39 0-8.593-1.516-12.155-3.875L2.546-2.609C6.047-.516 10.437.766 15.78.766zm0 0"/></symbol><symbol overflow="visible" id="a97b1925br"><path d="M6.75 0h8.766v-27.922h8.656v-6.547h-8.656v-2.875c0-4.125 1.468-5.468 4.968-5.468 1.72 0 3.563.328 4.828.703l.516-7.375c-1.344-.391-3.75-.578-5.797-.578-6.36 0-13.281 2.093-13.281 12.593v3H1.078v6.547H6.75zm0 0"/></symbol><symbol overflow="visible" id="a97b1925bs"><path d="M19.594.766c9.86 0 17.172-6.36 17.172-18 0-11.641-7.313-18-17.172-18-9.797 0-17.172 6.359-17.172 18 0 11.64 7.375 18 17.172 18zm0-7.25c-4.969 0-8.14-3.891-8.14-10.75 0-6.813 3.171-10.75 8.14-10.75 5.093 0 8.203 3.937 8.203 10.75 0 6.859-3.11 10.75-8.203 10.75zm0 0"/></symbol><symbol overflow="visible" id="a97b1925bt"><path d="M4.516 0h8.78v-22.078c1.329-3.11 4.204-5.531 7.767-5.531 3.546 0 5.406 2.359 5.406 7.062V0h8.765v-22.078c1.407-3.11 4.203-5.531 7.766-5.531 3.563 0 5.469 2.359 5.469 7.062V0h8.781v-22.39c0-8.141-4.203-12.844-11.39-12.844-5.657 0-9.344 2.984-11.704 6.547-1.718-4.329-5.343-6.547-10.234-6.547-5.281 0-8.656 2.734-11.016 6.093l-.125-5.328H4.516zm0 0"/></symbol><symbol overflow="visible" id="a97b1925bu"><path d="M4.516 13.734h8.78V-2.672C15.97-.312 19.142.766 22.907.766c9.344 0 15.766-6.875 15.766-18.391 0-11-5.844-17.61-14.438-17.61-5.093 0-8.78 2.282-11.265 5.594l-.188-4.828H4.516zM20.609-6.484c-2.922 0-5.656-1.079-7.312-3.125v-13.094c1.531-3.125 4.578-4.906 8.14-4.906 4.954 0 8.266 3.562 8.266 10.25 0 6.797-3.5 10.875-9.094 10.875zm0 0"/></symbol><symbol overflow="visible" id="a97b1925bv"><path d="M13.61 0h9.609l12.968-34.469h-9.406L18.703-8.53 10.5-34.47H.703zm0 0"/></symbol><symbol overflow="visible" id="a97b1925bw"><path d="M17.563.766c4.765 0 8.14-1.844 10.75-5.22L28.438 0h8.265v-49.484h-8.781v18.062c-2.344-2.36-5.219-3.812-9.531-3.812-9.672 0-15.844 6.984-15.844 18.187C2.547-5.922 8.594.766 17.562.766zm2.53-7.579c-5.077 0-8.577-3.421-8.577-10.296 0-6.75 3.312-10.813 9.03-10.813 3.626 0 5.985 1.719 7.376 3.625v13.11c-1.203 2.468-4.063 4.374-7.828 4.374zm0 0"/></symbol><symbol overflow="visible" id="a97b1925bx"><path d="M13.938.766c4.953 0 8.453-2.172 10.874-5.157L24.938 0h8.266v-22.969c0-7.562-3.937-12.265-14.625-12.265-5.797 0-10.5 1.39-13.75 3.5l1.469 7.047c2.922-2.032 6.484-3.422 11.125-3.422 5.406 0 7 1.968 7 5.718v1.016h-4.328c-11.766 0-17.422 3.75-17.422 11.453C2.672-3.047 7.187.766 13.937.766zM16.53-6.11c-3.234 0-5.203-1.454-5.203-4.454 0-3.75 3.11-5.28 9.922-5.28h3.172v5.155c-1.328 2.485-4.125 4.579-7.89 4.579zm0 0"/></symbol><symbol overflow="visible" id="a97b1925by"><path d="M4.64 0h8.782v-49.484H4.64zm0 0"/></symbol><symbol overflow="visible" id="a97b1925bz"><path d="M8.016 14.625c6.812 0 11.187-2.86 15.78-15l12.907-34.094H27.36L19.141-8.453 10.875-34.47H.891L14.437.641c-2.093 4.828-3.687 6.421-7.062 6.421-1.719 0-3.234-.39-4.578-.89l-.703 7.5c1.719.578 3.562.953 5.922.953zm0 0"/></symbol><symbol overflow="visible" id="a97b1925bA"><path d="M6.906 0H9.36l6.344-17.453H13.36L8.203-2.656l-5.14-14.797h-2.5zm0 0"/></symbol><symbol overflow="visible" id="a97b1925bB"><path d="M5.344.281c1.828 0 3.234-.875 4.156-2.015L9.547 0h1.969v-8.375c0-2.703-1.313-4.375-4.844-4.375-1.969 0-3.547.516-4.625 1.328l.422 1.89c1.078-.796 2.328-1.312 4-1.312 2.203 0 2.89.922 2.89 2.656v.563H7.734c-4.343 0-6.468 1.328-6.468 4.094C1.266-1.078 2.937.28 5.344.28zm.468-1.875c-1.468 0-2.328-.656-2.328-2 0-1.703 1.391-2.375 4.438-2.375h1.437v2.25C8.75-2.594 7.531-1.594 5.813-1.594zm0 0"/></symbol><symbol overflow="visible" id="a97b1925bC"><path d="M1.969 0H4.14v-7.672c.484-2.187 1.78-2.953 3.265-2.953.563 0 1.157.11 1.578.281l.188-2.078c-.313-.156-.875-.281-1.485-.281-1.625 0-2.812.828-3.671 2.61l-.063-2.376H1.97zm0 0"/></symbol><symbol overflow="visible" id="a97b1925bD"><path d="M1.828-15.094h2.547v-2.547H1.828zM2.016 0h2.171v-12.469H2.017zm0 0"/></symbol><symbol overflow="visible" id="a97b1925bE"><path d="M6.11.281c.827 0 1.843-.156 2.702-.687l-.28-1.922c-.673.453-1.282.687-1.97.687-1.25 0-1.812-.718-1.812-2.171v-6.954h3.953v-1.703H4.75v-4l-2.156.625v3.375H.469v1.703h2.125v7.235C2.594-.75 4.109.28 6.109.28zm0 0"/></symbol><symbol overflow="visible" id="a97b1925bF"><path d="M7.11.281c3.374 0 5.968-2.375 5.968-6.515 0-4.141-2.594-6.516-5.969-6.516-3.39 0-5.984 2.375-5.984 6.516C1.125-2.094 3.719.28 7.109.28zm0-1.875c-2.313 0-3.75-1.765-3.75-4.64 0-2.86 1.437-4.625 3.75-4.625 2.296 0 3.734 1.765 3.734 4.625 0 2.875-1.438 4.64-3.735 4.64zm0 0"/></symbol><symbol overflow="visible" id="a97b1925bG"><path d="M1.969 0H4.14v-8.281c.656-1.578 2-2.485 3.593-2.485 1.641 0 2.516.954 2.516 3.141V0h2.172v-8.094c0-2.953-1.531-4.656-4.172-4.656-2.016 0-3.36 1.047-4.25 2.266l-.047-1.985H1.97zm0 0"/></symbol><symbol overflow="visible" id="a97b1925bI"><path d="M7.781.281c3.532 0 5.907-2.562 5.907-6.672 0-3.984-2.235-6.359-5.391-6.359-1.781 0-3.125.781-4.156 1.938v-7.485H1.969V0h1.89l.11-1.313C5.03-.171 6.344.282 7.78.282zm-.328-1.875c-1.406 0-2.578-.562-3.312-1.562v-5.516c.75-1.281 2.109-2.094 3.687-2.094 2.125 0 3.625 1.485 3.625 4.438 0 2.984-1.531 4.734-4 4.734zm0 0"/></symbol><symbol overflow="visible" id="a97b1925bJ"><path d="M7.344.281c2.25 0 3.89-.75 4.812-1.453l-.422-1.906c-1.203.89-2.359 1.453-4.109 1.453-2.844 0-4.219-1.484-4.313-4.11h9.032v-1.171c0-3.016-1.438-5.844-5.313-5.844-3.718 0-5.906 2.61-5.906 6.656C1.125-2.187 3.25.281 7.344.281zm-4-7.672c.25-2.39 1.765-3.562 3.687-3.562 2.344 0 3.172 1.672 3.172 3.406v.156zm0 0"/></symbol><symbol overflow="visible" id="a97b1925bK"><path d="M4.781 0h2.11L10-9.547 13.047 0h2.125l4.203-12.469h-2.328l-2.844 9.86-3.062-9.86H8.953l-3.078 9.86-2.844-9.86H.61zm0 0"/></symbol><symbol overflow="visible" id="a97b1925bL"><path d="M5.625.281c2.938 0 4.86-1.219 4.86-3.765 0-2.329-1.626-3.047-3.97-3.72-1.937-.53-2.968-.812-2.968-1.968 0-.984.75-1.719 2.453-1.719 1.406 0 2.484.5 3.531 1.125l.422-1.968c-1.015-.641-2.406-1.016-3.89-1.016-2.907 0-4.625 1.438-4.625 3.766 0 2.421 1.875 3.062 4.14 3.718 1.875.532 2.766.829 2.766 1.97 0 1.046-.75 1.702-2.469 1.702-1.578 0-3-.547-4.328-1.39l-.422 2C2.297-.22 3.735.28 5.625.28zm0 0"/></symbol><symbol overflow="visible" id="a97b1925bM"><path d="M1.969 0H4.14v-8.281c.656-1.578 2-2.485 3.593-2.485 1.641 0 2.516.954 2.516 3.141V0h2.172v-8.094c0-2.953-1.531-4.656-4.172-4.656-1.922 0-3.219.938-4.11 2.094v-7.64H1.97zm0 0"/></symbol><symbol overflow="visible" id="a97b1925bN"><path d="M6.531.328c2.516 0 4.078-1.203 5.235-2.61L13.922 0h2.828l-3.86-4.063a23.653 23.653 0 0 0 2.141-4.593l-1.937-1.031c-.344 1.39-.75 2.843-1.5 4.25L8-9.235c2.203-1.204 3.422-2.672 3.422-4.688 0-2.375-1.735-3.86-4.25-3.86-2.656 0-4.344 1.626-4.344 4 0 1.407.61 2.563 2.203 4.345C2.797-8.235 1.22-6.86 1.22-4.47 1.219-1.766 3.203.328 6.53.328zm.422-10.656c-1.5-1.594-1.969-2.438-1.969-3.469 0-1.375.829-2.14 2.125-2.14 1.329 0 2.204.812 2.204 2.234 0 1.375-.876 2.515-2.36 3.375zm-.016 8.687c-2.015 0-3.453-1.14-3.453-3.062 0-1.672 1.032-2.703 2.579-3.594l4.453 4.672c-.97 1.25-1.954 1.984-3.579 1.984zm0 0"/></symbol><symbol overflow="visible" id="a97b1925bO"><path d="M2.016 0h2.171v-18.297H2.017zm0 0"/></symbol><symbol overflow="visible" id="a97b1925bP"><path d="M6.469 5.594c4.375 0 6.578-1.672 6.578-4.188 0-1.781-1.094-3.078-3.922-3.218L5.219-2c-.938-.047-1.25-.563-1.25-1.11 0-.671.5-1.046 1.25-1.078.468.094.968.141 1.453.141 2.922 0 5.156-1.547 5.156-4.344 0-.937-.234-1.75-.687-2.375h2.375v-1.984h-.094l-3.797.656c-.828-.437-1.844-.656-2.953-.656-2.89 0-5.14 1.531-5.14 4.36 0 1.718.843 2.937 2.14 3.656-1.25.484-1.625 1.296-1.625 2.125 0 .828.375 1.453 1.11 1.828C1.343-.281.593.875.593 2.14c0 1.906 1.64 3.453 5.875 3.453zm.234-11.328c-1.906 0-3.016-.985-3.016-2.688 0-1.719 1.11-2.625 2.97-2.625 1.905 0 3.015.953 3.015 2.672 0 1.703-1.11 2.64-2.969 2.64zM6.656 3.78c-2.828 0-3.953-.719-3.953-2.047 0-.906.563-1.562 1.531-1.859l4.375.25c1.875.094 2.329.672 2.329 1.469 0 1.437-1.407 2.187-4.282 2.187zm0 0"/></symbol><symbol overflow="visible" id="a97b1925bQ"><path d="M9.234.328c4.641 0 7.938-3.39 7.938-9.047 0-5.672-3.297-9.062-7.938-9.062-4.625 0-7.921 3.39-7.921 9.062 0 5.656 3.296 9.047 7.921 9.047zm0-2.062C5.781-1.734 3.72-4.47 3.72-8.72c0-4.328 2.062-6.984 5.515-6.984 3.47 0 5.532 2.719 5.532 6.984 0 4.328-2.063 6.985-5.532 6.985zm0 0"/></symbol><symbol overflow="visible" id="a97b1925bR"><path d="M1.969 5.219H4.14v-6.282C5.125-.171 6.344.282 7.812.282c3.5 0 5.875-2.578 5.875-6.672 0-3.953-2.234-6.359-5.359-6.359-1.937 0-3.39.89-4.312 2.094l-.063-1.813H1.97zm5.468-6.813c-1.328 0-2.546-.515-3.296-1.422v-5.546c.703-1.407 2.093-2.204 3.671-2.204 2.188 0 3.641 1.532 3.641 4.438 0 2.984-1.547 4.734-4.015 4.734zm0 0"/></symbol><symbol overflow="visible" id="a97b1925bS"><path d="M1.969 0H4.14v-8.281c.593-1.39 1.859-2.485 3.5-2.485 1.578 0 2.421 1 2.421 3.141V0h2.172v-8.281c.579-1.39 1.844-2.485 3.5-2.485 1.579 0 2.422 1 2.422 3.141V0h2.157v-8.094c0-2.953-1.532-4.656-4.11-4.656-2.125 0-3.484 1.14-4.375 2.375-.61-1.594-1.953-2.375-3.687-2.375-1.985 0-3.266 1.063-4.141 2.266l-.047-1.985H1.97zm0 0"/></symbol><symbol overflow="visible" id="a97b1925bT"><path d="M6.75.281c1.813 0 3.11-.75 4.094-1.953L10.89 0h1.968v-18.297h-2.156v6.985c-.89-.891-2-1.438-3.64-1.438-3.61 0-5.907 2.61-5.907 6.594 0 4 2.328 6.437 5.594 6.437zm.453-1.969c-2.266 0-3.812-1.515-3.812-4.5 0-2.937 1.484-4.671 4-4.671 1.609 0 2.671.718 3.312 1.593v5.594c-.562 1.125-1.812 1.985-3.5 1.985zm0 0"/></symbol><symbol overflow="visible" id="a97b1925bU"><path d="M1.969 0H4.14v-4.422l1.406-1.36L10.297 0h2.734v-.047L6.937-7.125l5.438-5.297v-.047H9.641l-5.5 5.813v-11.64H1.969zm0 0"/></symbol><symbol overflow="visible" id="a97b1925bV"><path d="M2.297 0H12.89v-2.016H4.562v-15.437H2.297zm0 0"/></symbol><symbol overflow="visible" id="a97b1925bW"><path d="M2.5 3.813C3.781 2.25 4.563.187 4.563-1.86c0-.5-.047-.938-.094-1.25H2.094c.015.218.062.609.062 1.187 0 1.875-.531 3.75-1.594 5.453zm0 0"/></symbol><symbol overflow="visible" id="a97b1925bX"><path d="M7.297.281c2.062 0 3.422-.734 4.219-1.406l-.422-1.906C10.047-2.11 8.938-1.625 7.5-1.625c-2.656 0-4.14-1.719-4.14-4.61 0-2.859 1.484-4.609 4.046-4.609 1.532 0 2.703.61 3.453 1.39l.516-1.921c-.813-.781-2.11-1.375-3.969-1.375-3.765 0-6.281 2.422-6.281 6.594C1.125-2.094 3.547.28 7.297.28zm0 0"/></symbol><symbol overflow="visible" id="a97b1925bY"><path d="M6.094.281c2.015 0 3.343-1.015 4.203-2.25L10.344 0h1.984v-12.469h-2.172v8.219C9.734-3.078 8.61-1.687 6.625-1.687c-1.64 0-2.578-.97-2.578-3.157v-7.625H1.875v8.094c0 2.969 1.61 4.656 4.219 4.656zm0 0"/></symbol><symbol overflow="visible" id="a97b1925bZ"><path d="M2.64 0h2.157v-10.766h3.39v-1.703h-3.39v-1.453c0-2.015.64-2.64 2.062-2.64.625 0 1.391.125 1.86.296l.172-2.03c-.454-.11-1.25-.188-1.891-.188-2.078 0-4.36.734-4.36 4.656v1.36H.47v1.702H2.64zm0 0"/></symbol><symbol overflow="visible" id="a97b1925ca"><path d="M10.703 5.219h2.156V-12.47h-1.875l-.125 1.422c-.906-1.094-2.062-1.703-3.796-1.703-3.625 0-5.907 2.64-5.907 6.594 0 4 2.328 6.437 5.563 6.437 1.703 0 3-.656 3.984-1.719zM7.172-1.688c-2.203 0-3.781-1.484-3.781-4.515 0-2.938 1.484-4.656 4.015-4.656 1.672 0 2.657.75 3.297 1.734v5.64C9.97-2.405 8.72-1.687 7.172-1.687zm0 0"/></symbol><clipPath id="a"><path d="M275 579h48v94h-48zm0 0"/></clipPath><clipPath id="b"><path d="M275.07 626.227c0 25.64 20.785 46.425 46.422 46.425 25.64 0 46.426-20.785 46.426-46.425 0-25.641-20.785-46.426-46.426-46.426-25.637 0-46.422 20.785-46.422 46.426"/></clipPath><clipPath id="c"><path d="M275 579h63v94h-63zm0 0"/></clipPath><clipPath id="d"><path d="M275.07 626.227c0 25.64 20.785 46.425 46.422 46.425 25.64 0 46.426-20.785 46.426-46.425 0-25.641-20.785-46.426-46.426-46.426-25.637 0-46.422 20.785-46.422 46.426"/></clipPath><clipPath id="e"><path d="M275 579h77v94h-77zm0 0"/></clipPath><clipPath id="f"><path d="M275.07 626.227c0 25.64 20.785 46.425 46.422 46.425 25.64 0 46.426-20.785 46.426-46.425 0-25.641-20.785-46.426-46.426-46.426-25.637 0-46.422 20.785-46.422 46.426"/></clipPath><clipPath id="g"><path d="M275 579h92v94h-92zm0 0"/></clipPath><clipPath id="h"><path d="M275.07 626.227c0 25.64 20.785 46.425 46.422 46.425 25.64 0 46.426-20.785 46.426-46.425 0-25.641-20.785-46.426-46.426-46.426-25.637 0-46.422 20.785-46.422 46.426"/></clipPath><clipPath id="i"><path d="M275 579h93v94h-93zm0 0"/></clipPath><clipPath id="j"><path d="M275.07 626.227c0 25.64 20.785 46.425 46.422 46.425 25.64 0 46.426-20.785 46.426-46.425 0-25.641-20.785-46.426-46.426-46.426-25.637 0-46.422 20.785-46.422 46.426"/></clipPath><clipPath id="k"><path d="M276 579h92v94h-92zm0 0"/></clipPath><clipPath id="l"><path d="M275.07 626.227c0 25.64 20.785 46.425 46.422 46.425 25.64 0 46.426-20.785 46.426-46.425 0-25.641-20.785-46.426-46.426-46.426-25.637 0-46.422 20.785-46.422 46.426"/></clipPath><clipPath id="m"><path d="M275 579h93v94h-93zm0 0"/></clipPath><clipPath id="n"><path d="M275.07 626.227c0 25.64 20.785 46.425 46.422 46.425 25.64 0 46.426-20.785 46.426-46.425 0-25.641-20.785-46.426-46.426-46.426-25.637 0-46.422 20.785-46.422 46.426"/></clipPath><clipPath id="o"><path d="M291 579h77v94h-77zm0 0"/></clipPath><clipPath id="p"><path d="M275.07 626.227c0 25.64 20.785 46.425 46.422 46.425 25.64 0 46.426-20.785 46.426-46.425 0-25.641-20.785-46.426-46.426-46.426-25.637 0-46.422 20.785-46.422 46.426"/></clipPath><clipPath id="q"><path d="M275 579h93v94h-93zm0 0"/></clipPath><clipPath id="r"><path d="M275.07 626.227c0 25.64 20.785 46.425 46.422 46.425 25.64 0 46.426-20.785 46.426-46.425 0-25.641-20.785-46.426-46.426-46.426-25.637 0-46.422 20.785-46.422 46.426"/></clipPath><clipPath id="s"><path d="M305 579h63v94h-63zm0 0"/></clipPath><clipPath id="t"><path d="M275.07 626.227c0 25.64 20.785 46.425 46.422 46.425 25.64 0 46.426-20.785 46.426-46.425 0-25.641-20.785-46.426-46.426-46.426-25.637 0-46.422 20.785-46.422 46.426"/></clipPath><clipPath id="u"><path d="M275 579h93v94h-93zm0 0"/></clipPath><clipPath id="v"><path d="M275.07 626.227c0 25.64 20.785 46.425 46.422 46.425 25.64 0 46.426-20.785 46.426-46.425 0-25.641-20.785-46.426-46.426-46.426-25.637 0-46.422 20.785-46.422 46.426"/></clipPath><clipPath id="w"><path d="M320 579h48v94h-48zm0 0"/></clipPath><clipPath id="x"><path d="M275.07 626.227c0 25.64 20.785 46.425 46.422 46.425 25.64 0 46.426-20.785 46.426-46.425 0-25.641-20.785-46.426-46.426-46.426-25.637 0-46.422 20.785-46.422 46.426"/></clipPath><clipPath id="y"><path d="M1597 723h68v132h-68zm0 0"/></clipPath><clipPath id="z"><path d="M1597.422 789.004c0 36.285 29.691 65.7 66.324 65.7 36.629 0 66.324-29.415 66.324-65.7 0-36.285-29.695-65.7-66.324-65.7-36.633 0-66.324 29.415-66.324 65.7"/></clipPath><clipPath id="A"><path d="M1597 723h83v132h-83zm0 0"/></clipPath><clipPath id="B"><path d="M1597.422 789.004c0 36.285 29.691 65.7 66.324 65.7 36.629 0 66.324-29.415 66.324-65.7 0-36.285-29.695-65.7-66.324-65.7-36.633 0-66.324 29.415-66.324 65.7"/></clipPath><clipPath id="C"><path d="M1597 723h98v132h-98zm0 0"/></clipPath><clipPath id="D"><path d="M1597.422 789.004c0 36.285 29.691 65.7 66.324 65.7 36.629 0 66.324-29.415 66.324-65.7 0-36.285-29.695-65.7-66.324-65.7-36.633 0-66.324 29.415-66.324 65.7"/></clipPath><clipPath id="E"><path d="M1597 723h113v132h-113zm0 0"/></clipPath><clipPath id="F"><path d="M1597.422 789.004c0 36.285 29.691 65.7 66.324 65.7 36.629 0 66.324-29.415 66.324-65.7 0-36.285-29.695-65.7-66.324-65.7-36.633 0-66.324 29.415-66.324 65.7"/></clipPath><clipPath id="G"><path d="M1597 723h127v132h-127zm0 0"/></clipPath><clipPath id="H"><path d="M1597.422 789.004c0 36.285 29.691 65.7 66.324 65.7 36.629 0 66.324-29.415 66.324-65.7 0-36.285-29.695-65.7-66.324-65.7-36.633 0-66.324 29.415-66.324 65.7"/></clipPath><clipPath id="I"><path d="M1597 723h134v132h-134zm0 0"/></clipPath><clipPath id="J"><path d="M1597.422 789.004c0 36.285 29.691 65.7 66.324 65.7 36.629 0 66.324-29.415 66.324-65.7 0-36.285-29.695-65.7-66.324-65.7-36.633 0-66.324 29.415-66.324 65.7"/></clipPath><clipPath id="K"><path d="M1618 723h113v132h-113zm0 0"/></clipPath><clipPath id="L"><path d="M1597.422 789.004c0 36.285 29.691 65.7 66.324 65.7 36.629 0 66.324-29.415 66.324-65.7 0-36.285-29.695-65.7-66.324-65.7-36.633 0-66.324 29.415-66.324 65.7"/></clipPath><clipPath id="M"><path d="M1597 723h134v132h-134zm0 0"/></clipPath><clipPath id="N"><path d="M1597.422 789.004c0 36.285 29.691 65.7 66.324 65.7 36.629 0 66.324-29.415 66.324-65.7 0-36.285-29.695-65.7-66.324-65.7-36.633 0-66.324 29.415-66.324 65.7"/></clipPath><clipPath id="O"><path d="M1633 723h98v132h-98zm0 0"/></clipPath><clipPath id="P"><path d="M1597.422 789.004c0 36.285 29.691 65.7 66.324 65.7 36.629 0 66.324-29.415 66.324-65.7 0-36.285-29.695-65.7-66.324-65.7-36.633 0-66.324 29.415-66.324 65.7"/></clipPath><clipPath id="Q"><path d="M1597 723h134v132h-134zm0 0"/></clipPath><clipPath id="R"><path d="M1597.422 789.004c0 36.285 29.691 65.7 66.324 65.7 36.629 0 66.324-29.415 66.324-65.7 0-36.285-29.695-65.7-66.324-65.7-36.633 0-66.324 29.415-66.324 65.7"/></clipPath><clipPath id="S"><path d="M1648 723h83v132h-83zm0 0"/></clipPath><clipPath id="T"><path d="M1597.422 789.004c0 36.285 29.691 65.7 66.324 65.7 36.629 0 66.324-29.415 66.324-65.7 0-36.285-29.695-65.7-66.324-65.7-36.633 0-66.324 29.415-66.324 65.7"/></clipPath><clipPath id="U"><path d="M1603 723h128v132h-128zm0 0"/></clipPath><clipPath id="V"><path d="M1597.422 789.004c0 36.285 29.691 65.7 66.324 65.7 36.629 0 66.324-29.415 66.324-65.7 0-36.285-29.695-65.7-66.324-65.7-36.633 0-66.324 29.415-66.324 65.7"/></clipPath><clipPath id="W"><path d="M1663 723h68v132h-68zm0 0"/></clipPath><clipPath id="X"><path d="M1597.422 789.004c0 36.285 29.691 65.7 66.324 65.7 36.629 0 66.324-29.415 66.324-65.7 0-36.285-29.695-65.7-66.324-65.7-36.633 0-66.324 29.415-66.324 65.7"/></clipPath><clipPath id="Y"><path d="M875 564h89v188h-89zm0 0"/></clipPath><clipPath id="Z"><path d="M875.55 656.809c0 52.504 38.895 95.07 86.876 95.07 47.976 0 86.87-42.567 86.87-95.07 0-52.508-38.894-95.07-86.87-95.07-47.98 0-86.875 42.562-86.875 95.07"/></clipPath><clipPath id="aa"><path d="M875 561h104v191H875zm0 0"/></clipPath><clipPath id="ab"><path d="M875.55 656.809c0 52.504 38.895 95.07 86.876 95.07 47.976 0 86.87-42.567 86.87-95.07 0-52.508-38.894-95.07-86.87-95.07-47.98 0-86.875 42.562-86.875 95.07"/></clipPath><clipPath id="ac"><path d="M875 561h118v191H875zm0 0"/></clipPath><clipPath id="ad"><path d="M875.55 656.809c0 52.504 38.895 95.07 86.876 95.07 47.976 0 86.87-42.567 86.87-95.07 0-52.508-38.894-95.07-86.87-95.07-47.98 0-86.875 42.562-86.875 95.07"/></clipPath><clipPath id="ae"><path d="M875 561h133v191H875zm0 0"/></clipPath><clipPath id="af"><path d="M875.55 656.809c0 52.504 38.895 95.07 86.876 95.07 47.976 0 86.87-42.567 86.87-95.07 0-52.508-38.894-95.07-86.87-95.07-47.98 0-86.875 42.562-86.875 95.07"/></clipPath><clipPath id="ag"><path d="M875 561h148v191H875zm0 0"/></clipPath><clipPath id="ah"><path d="M875.55 656.809c0 52.504 38.895 95.07 86.876 95.07 47.976 0 86.87-42.567 86.87-95.07 0-52.508-38.894-95.07-86.87-95.07-47.98 0-86.875 42.562-86.875 95.07"/></clipPath><clipPath id="ai"><path d="M875 561h163v191H875zm0 0"/></clipPath><clipPath id="aj"><path d="M875.55 656.809c0 52.504 38.895 95.07 86.876 95.07 47.976 0 86.87-42.567 86.87-95.07 0-52.508-38.894-95.07-86.87-95.07-47.98 0-86.875 42.562-86.875 95.07"/></clipPath><clipPath id="ak"><path d="M875 561h175v191H875zm0 0"/></clipPath><clipPath id="al"><path d="M875.55 656.809c0 52.504 38.895 95.07 86.876 95.07 47.976 0 86.87-42.567 86.87-95.07 0-52.508-38.894-95.07-86.87-95.07-47.98 0-86.875 42.562-86.875 95.07"/></clipPath><clipPath id="am"><path d="M917 561h133v191H917zm0 0"/></clipPath><clipPath id="an"><path d="M875.55 656.809c0 52.504 38.895 95.07 86.876 95.07 47.976 0 86.87-42.567 86.87-95.07 0-52.508-38.894-95.07-86.87-95.07-47.98 0-86.875 42.562-86.875 95.07"/></clipPath><clipPath id="ao"><path d="M875 561h175v191H875zm0 0"/></clipPath><clipPath id="ap"><path d="M875.55 656.809c0 52.504 38.895 95.07 86.876 95.07 47.976 0 86.87-42.567 86.87-95.07 0-52.508-38.894-95.07-86.87-95.07-47.98 0-86.875 42.562-86.875 95.07"/></clipPath><clipPath id="aq"><path d="M931 561h119v191H931zm0 0"/></clipPath><clipPath id="ar"><path d="M875.55 656.809c0 52.504 38.895 95.07 86.876 95.07 47.976 0 86.87-42.567 86.87-95.07 0-52.508-38.894-95.07-86.87-95.07-47.98 0-86.875 42.562-86.875 95.07"/></clipPath><clipPath id="as"><path d="M887 561h163v191H887zm0 0"/></clipPath><clipPath id="at"><path d="M875.55 656.809c0 52.504 38.895 95.07 86.876 95.07 47.976 0 86.87-42.567 86.87-95.07 0-52.508-38.894-95.07-86.87-95.07-47.98 0-86.875 42.562-86.875 95.07"/></clipPath><clipPath id="au"><path d="M946 561h104v191H946zm0 0"/></clipPath><clipPath id="av"><path d="M875.55 656.809c0 52.504 38.895 95.07 86.876 95.07 47.976 0 86.87-42.567 86.87-95.07 0-52.508-38.894-95.07-86.87-95.07-47.98 0-86.875 42.562-86.875 95.07"/></clipPath><clipPath id="aw"><path d="M902 561h148v191H902zm0 0"/></clipPath><clipPath id="ax"><path d="M875.55 656.809c0 52.504 38.895 95.07 86.876 95.07 47.976 0 86.87-42.567 86.87-95.07 0-52.508-38.894-95.07-86.87-95.07-47.98 0-86.875 42.562-86.875 95.07"/></clipPath><clipPath id="ay"><path d="M961 561h89v188h-89zm0 0"/></clipPath><clipPath id="az"><path d="M875.55 656.809c0 52.504 38.895 95.07 86.876 95.07 47.976 0 86.87-42.567 86.87-95.07 0-52.508-38.894-95.07-86.87-95.07-47.98 0-86.875 42.562-86.875 95.07"/></clipPath><clipPath id="aA"><path d="M734 794h159v203H734zm0 0"/></clipPath><clipPath id="aB"><path d="M773.598 849.734c-22.09 10.993-36.328 26.418-38.582 44.786-5.422 44.168 60.441 88.597 147.113 99.238 86.676 10.644 161.332-16.535 166.754-60.7 4.531-36.902-40.707-73.984-106.266-91.394C931 808 898.81 792.172 859.035 792.172c-42.629 0-85.437 22.828-85.437 57.562"/></clipPath><clipPath id="aC"><path d="M734 792h174v205H734zm0 0"/></clipPath><clipPath id="aD"><path d="M773.598 849.734c-22.09 10.993-36.328 26.418-38.582 44.786-5.422 44.168 60.441 88.597 147.113 99.238 86.676 10.644 161.332-16.535 166.754-60.7 4.531-36.902-40.707-73.984-106.266-91.394C931 808 898.81 792.172 859.035 792.172c-42.629 0-85.437 22.828-85.437 57.562"/></clipPath><clipPath id="aE"><path d="M734 792h189v205H734zm0 0"/></clipPath><clipPath id="aF"><path d="M773.598 849.734c-22.09 10.993-36.328 26.418-38.582 44.786-5.422 44.168 60.441 88.597 147.113 99.238 86.676 10.644 161.332-16.535 166.754-60.7 4.531-36.902-40.707-73.984-106.266-91.394C931 808 898.81 792.172 859.035 792.172c-42.629 0-85.437 22.828-85.437 57.562"/></clipPath><clipPath id="aG"><path d="M742 792h196v205H742zm0 0"/></clipPath><clipPath id="aH"><path d="M773.598 849.734c-22.09 10.993-36.328 26.418-38.582 44.786-5.422 44.168 60.441 88.597 147.113 99.238 86.676 10.644 161.332-16.535 166.754-60.7 4.531-36.902-40.707-73.984-106.266-91.394C931 808 898.81 792.172 859.035 792.172c-42.629 0-85.437 22.828-85.437 57.562"/></clipPath><clipPath id="aI"><path d="M757 792h196v205H757zm0 0"/></clipPath><clipPath id="aJ"><path d="M773.598 849.734c-22.09 10.993-36.328 26.418-38.582 44.786-5.422 44.168 60.441 88.597 147.113 99.238 86.676 10.644 161.332-16.535 166.754-60.7 4.531-36.902-40.707-73.984-106.266-91.394C931 808 898.81 792.172 859.035 792.172c-42.629 0-85.437 22.828-85.437 57.562"/></clipPath><clipPath id="aK"><path d="M772 792h195v205H772zm0 0"/></clipPath><clipPath id="aL"><path d="M773.598 849.734c-22.09 10.993-36.328 26.418-38.582 44.786-5.422 44.168 60.441 88.597 147.113 99.238 86.676 10.644 161.332-16.535 166.754-60.7 4.531-36.902-40.707-73.984-106.266-91.394C931 808 898.81 792.172 859.035 792.172c-42.629 0-85.437 22.828-85.437 57.562"/></clipPath><clipPath id="aM"><path d="M787 792h195v205H787zm0 0"/></clipPath><clipPath id="aN"><path d="M773.598 849.734c-22.09 10.993-36.328 26.418-38.582 44.786-5.422 44.168 60.441 88.597 147.113 99.238 86.676 10.644 161.332-16.535 166.754-60.7 4.531-36.902-40.707-73.984-106.266-91.394C931 808 898.81 792.172 859.035 792.172c-42.629 0-85.437 22.828-85.437 57.562"/></clipPath><clipPath id="aO"><path d="M846 792h196v205H846zm0 0"/></clipPath><clipPath id="aP"><path d="M773.598 849.734c-22.09 10.993-36.328 26.418-38.582 44.786-5.422 44.168 60.441 88.597 147.113 99.238 86.676 10.644 161.332-16.535 166.754-60.7 4.531-36.902-40.707-73.984-106.266-91.394C931 808 898.81 792.172 859.035 792.172c-42.629 0-85.437 22.828-85.437 57.562"/></clipPath><clipPath id="aQ"><path d="M802 792h195v205H802zm0 0"/></clipPath><clipPath id="aR"><path d="M773.598 849.734c-22.09 10.993-36.328 26.418-38.582 44.786-5.422 44.168 60.441 88.597 147.113 99.238 86.676 10.644 161.332-16.535 166.754-60.7 4.531-36.902-40.707-73.984-106.266-91.394C931 808 898.81 792.172 859.035 792.172c-42.629 0-85.437 22.828-85.437 57.562"/></clipPath><clipPath id="aS"><path d="M861 792h189v205H861zm0 0"/></clipPath><clipPath id="aT"><path d="M773.598 849.734c-22.09 10.993-36.328 26.418-38.582 44.786-5.422 44.168 60.441 88.597 147.113 99.238 86.676 10.644 161.332-16.535 166.754-60.7 4.531-36.902-40.707-73.984-106.266-91.394C931 808 898.81 792.172 859.035 792.172c-42.629 0-85.437 22.828-85.437 57.562"/></clipPath><clipPath id="aU"><path d="M816 792h196v205H816zm0 0"/></clipPath><clipPath id="aV"><path d="M773.598 849.734c-22.09 10.993-36.328 26.418-38.582 44.786-5.422 44.168 60.441 88.597 147.113 99.238 86.676 10.644 161.332-16.535 166.754-60.7 4.531-36.902-40.707-73.984-106.266-91.394C931 808 898.81 792.172 859.035 792.172c-42.629 0-85.437 22.828-85.437 57.562"/></clipPath><clipPath id="aW"><path d="M876 792h174v196H876zm0 0"/></clipPath><clipPath id="aX"><path d="M773.598 849.734c-22.09 10.993-36.328 26.418-38.582 44.786-5.422 44.168 60.441 88.597 147.113 99.238 86.676 10.644 161.332-16.535 166.754-60.7 4.531-36.902-40.707-73.984-106.266-91.394C931 808 898.81 792.172 859.035 792.172c-42.629 0-85.437 22.828-85.437 57.562"/></clipPath><clipPath id="aY"><path d="M831 792h196v205H831zm0 0"/></clipPath><clipPath id="aZ"><path d="M773.598 849.734c-22.09 10.993-36.328 26.418-38.582 44.786-5.422 44.168 60.441 88.597 147.113 99.238 86.676 10.644 161.332-16.535 166.754-60.7 4.531-36.902-40.707-73.984-106.266-91.394C931 808 898.81 792.172 859.035 792.172c-42.629 0-85.437 22.828-85.437 57.562"/></clipPath><clipPath id="ba"><path d="M891 792h159v188H891zm0 0"/></clipPath><clipPath id="bb"><path d="M773.598 849.734c-22.09 10.993-36.328 26.418-38.582 44.786-5.422 44.168 60.441 88.597 147.113 99.238 86.676 10.644 161.332-16.535 166.754-60.7 4.531-36.902-40.707-73.984-106.266-91.394C931 808 898.81 792.172 859.035 792.172c-42.629 0-85.437 22.828-85.437 57.562"/></clipPath></defs><path fill="#00d06d" d="M0 0h2200v1400H0z"/><g clip-path="url(#a)"><g clip-path="url(#b)"><path d="M155.934 562.465l138 239.023" fill="none" stroke-width="5" stroke="#225ee0"/></g></g><g clip-path="url(#c)"><g clip-path="url(#d)"><path d="M170.79 553.887l138 239.023" fill="none" stroke-width="5" stroke="#225ee0"/></g></g><g clip-path="url(#e)"><g clip-path="url(#f)"><path d="M185.645 545.313l138 239.023" fill="none" stroke-width="5" stroke="#225ee0"/></g></g><g clip-path="url(#g)"><g clip-path="url(#h)"><path d="M200.5 536.734l138 239.024" fill="none" stroke-width="5" stroke="#225ee0"/></g></g><g clip-path="url(#i)"><g clip-path="url(#j)" fill="none" stroke-width="5" stroke="#225ee0"><path d="M215.355 528.156l138 239.024M230.21 519.582l138 239.02M245.066 511.004l138 239.023"/></g></g><g clip-path="url(#k)"><g clip-path="url(#l)"><path d="M304.488 476.695l138 239.024" fill="none" stroke-width="5" stroke="#225ee0"/></g></g><g clip-path="url(#m)"><g clip-path="url(#n)"><path d="M259.922 502.426l138 239.023" fill="none" stroke-width="5" stroke="#225ee0"/></g></g><g clip-path="url(#o)"><g clip-path="url(#p)"><path d="M319.344 468.117l138 239.024" fill="none" stroke-width="5" stroke="#225ee0"/></g></g><g clip-path="url(#q)"><g clip-path="url(#r)"><path d="M274.777 493.848l138 239.023" fill="none" stroke-width="5" stroke="#225ee0"/></g></g><g clip-path="url(#s)"><g clip-path="url(#t)"><path d="M334.2 459.543l138 239.023" fill="none" stroke-width="5" stroke="#225ee0"/></g></g><g clip-path="url(#u)"><g clip-path="url(#v)"><path d="M289.633 485.273l138 239.024" fill="none" stroke-width="5" stroke="#225ee0"/></g></g><g clip-path="url(#w)"><g clip-path="url(#x)"><path d="M349.055 450.965l138 239.023" fill="none" stroke-width="5" stroke="#225ee0"/></g></g><path d="M342.984 920.918c58.743 0 106.368-47.625 106.368-106.367 0-58.746-47.625-106.367-106.368-106.367-58.746 0-106.367 47.62-106.367 106.367 0 58.742 47.621 106.367 106.367 106.367M1487.254 680.426c51.516 0 93.277-42.563 93.277-95.07 0-52.504-41.761-95.07-93.277-95.07s-93.277 42.566-93.277 95.07c0 52.507 41.761 95.07 93.277 95.07M1269.645 1145.66c51.52 0 93.28-42.562 93.28-95.07 0-52.504-41.76-95.067-93.28-95.067-51.516 0-93.278 42.563-93.278 95.067 0 52.508 41.762 95.07 93.278 95.07" fill="#225ee0"/><g clip-path="url(#y)"><g clip-path="url(#z)"><path d="M1498.184 725.242l138 239.024" fill="none" stroke-width="5" stroke="#225ee0"/></g></g><g clip-path="url(#A)"><g clip-path="url(#B)"><path d="M1513.04 716.664l138 239.024" fill="none" stroke-width="5" stroke="#225ee0"/></g></g><g clip-path="url(#C)"><g clip-path="url(#D)"><path d="M1527.895 708.09l138 239.023" fill="none" stroke-width="5" stroke="#225ee0"/></g></g><g clip-path="url(#E)"><g clip-path="url(#F)"><path d="M1542.75 699.512l138 239.023" fill="none" stroke-width="5" stroke="#225ee0"/></g></g><g clip-path="url(#G)"><g clip-path="url(#H)"><path d="M1557.605 690.934l138 239.023" fill="none" stroke-width="5" stroke="#225ee0"/></g></g><g clip-path="url(#I)"><g clip-path="url(#J)" fill="none" stroke-width="5" stroke="#225ee0"><path d="M1572.46 682.355l138 239.024M1587.32 673.781l138 239.024"/></g></g><g clip-path="url(#K)"><g clip-path="url(#L)"><path d="M1646.742 639.473l138 239.023" fill="none" stroke-width="5" stroke="#225ee0"/></g></g><g clip-path="url(#M)"><g clip-path="url(#N)"><path d="M1602.172 665.203l138 239.024" fill="none" stroke-width="5" stroke="#225ee0"/></g></g><g clip-path="url(#O)"><g clip-path="url(#P)"><path d="M1661.598 630.895l138 239.023" fill="none" stroke-width="5" stroke="#225ee0"/></g></g><g clip-path="url(#Q)"><g clip-path="url(#R)"><path d="M1617.031 656.629l138 239.02" fill="none" stroke-width="5" stroke="#225ee0"/></g></g><g clip-path="url(#S)"><g clip-path="url(#T)"><path d="M1676.453 622.32l138 239.024" fill="none" stroke-width="5" stroke="#225ee0"/></g></g><g clip-path="url(#U)"><g clip-path="url(#V)"><path d="M1631.887 648.05l138 239.024" fill="none" stroke-width="5" stroke="#225ee0"/></g></g><g clip-path="url(#W)"><g clip-path="url(#X)"><path d="M1691.309 613.742l138 239.024" fill="none" stroke-width="5" stroke="#225ee0"/></g></g><path d="M1888.277 988.441c61.254 0 110.91-49.996 110.91-111.668 0-61.671-49.656-111.668-110.91-111.668-61.257 0-110.914 49.997-110.914 111.668 0 61.672 49.657 111.668 110.914 111.668" fill="#225ee0"/><g clip-path="url(#Y)"><g clip-path="url(#Z)"><path d="M796.863 593.047l138 239.023" fill="none" stroke-width="5" stroke="#225ee0"/></g></g><g clip-path="url(#aa)"><g clip-path="url(#ab)"><path d="M811.719 584.469l138 239.023" fill="none" stroke-width="5" stroke="#225ee0"/></g></g><g clip-path="url(#ac)"><g clip-path="url(#ad)"><path d="M826.574 575.895l138 239.02" fill="none" stroke-width="5" stroke="#225ee0"/></g></g><g clip-path="url(#ae)"><g clip-path="url(#af)"><path d="M841.43 567.316l138 239.024" fill="none" stroke-width="5" stroke="#225ee0"/></g></g><g clip-path="url(#ag)"><g clip-path="url(#ah)"><path d="M856.285 558.738l138 239.024" fill="none" stroke-width="5" stroke="#225ee0"/></g></g><g clip-path="url(#ai)"><g clip-path="url(#aj)"><path d="M871.14 550.16l138 239.024" fill="none" stroke-width="5" stroke="#225ee0"/></g></g><g clip-path="url(#ak)"><g clip-path="url(#al)"><path d="M885.996 541.586l138 239.023" fill="none" stroke-width="5" stroke="#225ee0"/></g></g><g clip-path="url(#am)"><g clip-path="url(#an)"><path d="M945.418 507.277l138 239.024" fill="none" stroke-width="5" stroke="#225ee0"/></g></g><g clip-path="url(#ao)"><g clip-path="url(#ap)"><path d="M900.852 533.008l138 239.023" fill="none" stroke-width="5" stroke="#225ee0"/></g></g><g clip-path="url(#aq)"><g clip-path="url(#ar)"><path d="M960.273 498.7l138 239.023" fill="none" stroke-width="5" stroke="#225ee0"/></g></g><g clip-path="url(#as)"><g clip-path="url(#at)"><path d="M915.707 524.43l138 239.023" fill="none" stroke-width="5" stroke="#225ee0"/></g></g><g clip-path="url(#au)"><g clip-path="url(#av)"><path d="M975.129 490.125l138 239.023" fill="none" stroke-width="5" stroke="#225ee0"/></g></g><g clip-path="url(#aw)"><g clip-path="url(#ax)"><path d="M930.563 515.855l138 239.024" fill="none" stroke-width="5" stroke="#225ee0"/></g></g><g clip-path="url(#ay)"><g clip-path="url(#az)"><path d="M989.984 481.547l138 239.023" fill="none" stroke-width="5" stroke="#225ee0"/></g></g><g clip-path="url(#aA)"><g clip-path="url(#aB)"><path d="M726.387 823.273l138 239.024" fill="none" stroke-width="5" stroke="#225ee0"/></g></g><g clip-path="url(#aC)"><g clip-path="url(#aD)"><path d="M741.242 814.695l138 239.024" fill="none" stroke-width="5" stroke="#225ee0"/></g></g><g clip-path="url(#aE)"><g clip-path="url(#aF)"><path d="M756.098 806.117l138 239.024" fill="none" stroke-width="5" stroke="#225ee0"/></g></g><g clip-path="url(#aG)"><g clip-path="url(#aH)"><path d="M770.953 797.54l138 239.023" fill="none" stroke-width="5" stroke="#225ee0"/></g></g><g clip-path="url(#aI)"><g clip-path="url(#aJ)"><path d="M785.809 788.965l138 239.023" fill="none" stroke-width="5" stroke="#225ee0"/></g></g><g clip-path="url(#aK)"><g clip-path="url(#aL)"><path d="M800.668 780.387l138 239.023" fill="none" stroke-width="5" stroke="#225ee0"/></g></g><g clip-path="url(#aM)"><g clip-path="url(#aN)"><path d="M815.523 771.809l138 239.023" fill="none" stroke-width="5" stroke="#225ee0"/></g></g><g clip-path="url(#aO)"><g clip-path="url(#aP)"><path d="M874.945 737.504l138 239.023" fill="none" stroke-width="5" stroke="#225ee0"/></g></g><g clip-path="url(#aQ)"><g clip-path="url(#aR)"><path d="M830.379 763.234l138 239.024" fill="none" stroke-width="5" stroke="#225ee0"/></g></g><g clip-path="url(#aS)"><g clip-path="url(#aT)"><path d="M889.8 728.926l138 239.023" fill="none" stroke-width="5" stroke="#225ee0"/></g></g><g clip-path="url(#aU)"><g clip-path="url(#aV)"><path d="M845.234 754.656l138 239.024" fill="none" stroke-width="5" stroke="#225ee0"/></g></g><g clip-path="url(#aW)"><g clip-path="url(#aX)"><path d="M904.656 720.348l138 239.023" fill="none" stroke-width="5" stroke="#225ee0"/></g></g><g clip-path="url(#aY)"><g clip-path="url(#aZ)"><path d="M860.09 746.078l138 239.024" fill="none" stroke-width="5" stroke="#225ee0"/></g></g><g clip-path="url(#ba)"><g clip-path="url(#bb)"><path d="M919.512 711.773l138 239.024" fill="none" stroke-width="5" stroke="#225ee0"/></g></g><g fill="#fff"><use xlink:href="#a97b1925bc" x="230.8659" y="946.1557"/><use xlink:href="#a97b1925bd" x="524.604287" y="946.1557"/></g><use xlink:href="#a97b1925be" x="659.780982" y="946.1557" fill="#fff"/><use xlink:href="#a97b1925bf" x="1120.066182" y="946.1557" fill="#fff"/><use xlink:href="#a97b1925bg" x="1163.984349" y="946.1557" fill="#fff"/><use xlink:href="#a97b1925bh" x="1572.936627" y="946.1557" fill="#fff"/><use xlink:href="#a97b1925bi" x="547.8992" y="163.9285" fill="#fff"/><g fill="#fff"><use xlink:href="#a97b1925bj" x="594.26586" y="163.9285"/><use xlink:href="#a97b1925bj" x="621.487987" y="163.9285"/><use xlink:href="#a97b1925bk" x="648.710113" y="163.9285"/><use xlink:href="#a97b1925bl" x="676.250256" y="163.9285"/></g><g fill="#fff"><use xlink:href="#a97b1925bm" x="695.01317" y="163.9285"/><use xlink:href="#a97b1925bn" x="736.227979" y="163.9285"/><use xlink:href="#a97b1925bj" x="776.170726" y="163.9285"/><use xlink:href="#a97b1925bo" x="803.392853" y="163.9285"/><use xlink:href="#a97b1925bp" x="841.236697" y="163.9285"/><use xlink:href="#a97b1925bq" x="873.992294" y="163.9285"/><use xlink:href="#a97b1925br" x="889.066228" y="163.9285"/></g><g fill="#fff"><use xlink:href="#a97b1925bs" x="913.044597" y="163.9285"/><use xlink:href="#a97b1925bk" x="952.28771" y="163.9285"/><use xlink:href="#a97b1925bq" x="979.827852" y="163.9285"/><use xlink:href="#a97b1925bl" x="994.901787" y="163.9285"/><use xlink:href="#a97b1925bt" x="1012.965067" y="163.9285"/><use xlink:href="#a97b1925bu" x="1074.532868" y="163.9285"/><use xlink:href="#a97b1925bk" x="1115.747677" y="163.9285"/></g><use xlink:href="#a97b1925bs" x="1142.015757" y="163.9285" fill="#fff"/><use xlink:href="#a97b1925bv" x="1180.432029" y="163.9285" fill="#fff"/><g fill="#fff"><use xlink:href="#a97b1925bo" x="1216.494987" y="163.9285"/><use xlink:href="#a97b1925bw" x="1254.338832" y="163.9285"/><use xlink:href="#a97b1925bq" x="1295.55364" y="163.9285"/><use xlink:href="#a97b1925bk" x="1310.627575" y="163.9285"/></g><use xlink:href="#a97b1925bo" x="1336.895655" y="163.9285" fill="#fff"/><g fill="#fff"><use xlink:href="#a97b1925bx" x="1374.421484" y="163.9285"/><use xlink:href="#a97b1925bw" x="1411.947313" y="163.9285"/><use xlink:href="#a97b1925bx" x="1453.162122" y="163.9285"/><use xlink:href="#a97b1925bm" x="1490.687951" y="163.9285"/><use xlink:href="#a97b1925bl" x="1531.90276" y="163.9285"/></g><use xlink:href="#a97b1925by" x="1550.665675" y="163.9285" fill="#fff"/><g fill="#fff"><use xlink:href="#a97b1925bl" x="1569.422229" y="163.9285"/><use xlink:href="#a97b1925bj" x="1587.485509" y="163.9285"/><use xlink:href="#a97b1925bz" x="1614.707636" y="163.9285"/></g><use xlink:href="#a97b1925bA" x="1163.0245" y="394.4883" fill="#fff"/><g fill="#fff"><use xlink:href="#a97b1925bB" x="1177.655433" y="394.4883"/><use xlink:href="#a97b1925bC" x="1191.063201" y="394.4883"/><use xlink:href="#a97b1925bD" x="1200.613295" y="394.4883"/><use xlink:href="#a97b1925bB" x="1206.823209" y="394.4883"/><use xlink:href="#a97b1925bE" x="1220.230977" y="394.4883"/><use xlink:href="#a97b1925bD" x="1229.616414" y="394.4883"/><use xlink:href="#a97b1925bF" x="1235.826328" y="394.4883"/><use xlink:href="#a97b1925bG" x="1250.033858" y="394.4883"/><use xlink:href="#a97b1925bH" x="1264.335477" y="394.4883"/><use xlink:href="#a97b1925bI" x="1270.451301" y="394.4883"/><use xlink:href="#a97b1925bJ" x="1285.293935" y="394.4883"/><use xlink:href="#a97b1925bE" x="1298.842838" y="394.4883"/><use xlink:href="#a97b1925bK" x="1308.228275" y="394.4883"/></g><g fill="#fff"><use xlink:href="#a97b1925bJ" x="1327.940046" y="394.4883"/><use xlink:href="#a97b1925bJ" x="1341.488949" y="394.4883"/><use xlink:href="#a97b1925bG" x="1355.037851" y="394.4883"/><use xlink:href="#a97b1925bH" x="1369.33947" y="394.4883"/><use xlink:href="#a97b1925bL" x="1375.455294" y="394.4883"/><use xlink:href="#a97b1925bM" x="1387.028315" y="394.4883"/><use xlink:href="#a97b1925bF" x="1401.329934" y="394.4883"/><use xlink:href="#a97b1925bC" x="1415.537464" y="394.4883"/><use xlink:href="#a97b1925bE" x="1425.087558" y="394.4883"/><use xlink:href="#a97b1925bH" x="1434.472996" y="394.4883"/><use xlink:href="#a97b1925bN" x="1440.58882" y="394.4883"/><use xlink:href="#a97b1925bH" x="1457.242679" y="394.4883"/><use xlink:href="#a97b1925bO" x="1463.358503" y="394.4883"/><use xlink:href="#a97b1925bF" x="1469.568417" y="394.4883"/><use xlink:href="#a97b1925bG" x="1483.775946" y="394.4883"/><use xlink:href="#a97b1925bP" x="1498.077566" y="394.4883"/><use xlink:href="#a97b1925bH" x="1512.096916" y="394.4883"/><use xlink:href="#a97b1925bE" x="1518.21274" y="394.4883"/><use xlink:href="#a97b1925bB" x="1527.598178" y="394.4883"/><use xlink:href="#a97b1925bD" x="1541.005946" y="394.4883"/><use xlink:href="#a97b1925bO" x="1547.215859" y="394.4883"/><use xlink:href="#a97b1925bL" x="1553.425773" y="394.4883"/><use xlink:href="#a97b1925bH" x="1564.998794" y="394.4883"/></g><path d="M1357.656 432.27l39.625 71.546" fill="none" stroke-width="1.96" stroke="#fff"/><g fill="#fff"><use xlink:href="#a97b1925bQ" x="193.7801" y="1080.8073"/><use xlink:href="#a97b1925bR" x="212.268706" y="1080.8073"/><use xlink:href="#a97b1925bJ" x="227.111341" y="1080.8073"/><use xlink:href="#a97b1925bG" x="240.660243" y="1080.8073"/><use xlink:href="#a97b1925bH" x="254.961862" y="1080.8073"/><use xlink:href="#a97b1925bO" x="261.077686" y="1080.8073"/><use xlink:href="#a97b1925bF" x="267.2876" y="1080.8073"/><use xlink:href="#a97b1925bF" x="281.49513" y="1080.8073"/><use xlink:href="#a97b1925bR" x="295.702659" y="1080.8073"/><use xlink:href="#a97b1925bL" x="310.545294" y="1080.8073"/><use xlink:href="#a97b1925bH" x="322.118314" y="1080.8073"/><use xlink:href="#a97b1925bN" x="328.234138" y="1080.8073"/><use xlink:href="#a97b1925bH" x="344.887998" y="1080.8073"/><use xlink:href="#a97b1925bR" x="351.003822" y="1080.8073"/><use xlink:href="#a97b1925bC" x="365.846456" y="1080.8073"/></g><g fill="#fff"><use xlink:href="#a97b1925bF" x="374.926102" y="1080.8073"/><use xlink:href="#a97b1925bS" x="389.133632" y="1080.8073"/><use xlink:href="#a97b1925bD" x="411.338778" y="1080.8073"/><use xlink:href="#a97b1925bG" x="417.548691" y="1080.8073"/><use xlink:href="#a97b1925bJ" x="431.85031" y="1080.8073"/><use xlink:href="#a97b1925bG" x="445.399213" y="1080.8073"/><use xlink:href="#a97b1925bE" x="459.700832" y="1080.8073"/><use xlink:href="#a97b1925bH" x="469.08627" y="1080.8073"/><use xlink:href="#a97b1925bT" x="475.202094" y="1080.8073"/><use xlink:href="#a97b1925bB" x="490.044728" y="1080.8073"/><use xlink:href="#a97b1925bC" x="503.452496" y="1080.8073"/><use xlink:href="#a97b1925bU" x="513.00259" y="1080.8073"/><use xlink:href="#a97b1925bH" x="526.081045" y="1080.8073"/><use xlink:href="#a97b1925bU" x="532.196869" y="1080.8073"/><use xlink:href="#a97b1925bG" x="545.275323" y="1080.8073"/><use xlink:href="#a97b1925bF" x="559.576942" y="1080.8073"/><use xlink:href="#a97b1925bE" x="573.784472" y="1080.8073"/><use xlink:href="#a97b1925bL" x="583.16991" y="1080.8073"/></g><g fill="#fff"><use xlink:href="#a97b1925bV" x="1679.21966" y="1125.570427"/><use xlink:href="#a97b1925bB" x="1692.392204" y="1125.570427"/><use xlink:href="#a97b1925bC" x="1705.799972" y="1125.570427"/></g><use xlink:href="#a97b1925bP" x="1714.99723" y="1125.570427" fill="#fff"/><g fill="#fff"><use xlink:href="#a97b1925bJ" x="1728.898969" y="1125.570427"/><use xlink:href="#a97b1925bW" x="1742.447871" y="1125.570427"/><use xlink:href="#a97b1925bH" x="1749.034143" y="1125.570427"/><use xlink:href="#a97b1925bX" x="1755.149967" y="1125.570427"/><use xlink:href="#a97b1925bO" x="1767.569794" y="1125.570427"/><use xlink:href="#a97b1925bJ" x="1773.779708" y="1125.570427"/></g><g fill="#fff"><use xlink:href="#a97b1925bB" x="1787.210998" y="1125.570427"/><use xlink:href="#a97b1925bC" x="1800.618766" y="1125.570427"/><use xlink:href="#a97b1925bH" x="1810.168861" y="1125.570427"/><use xlink:href="#a97b1925bO" x="1816.284685" y="1125.570427"/><use xlink:href="#a97b1925bF" x="1822.494598" y="1125.570427"/><use xlink:href="#a97b1925bF" x="1836.702128" y="1125.570427"/><use xlink:href="#a97b1925bR" x="1850.909658" y="1125.570427"/><use xlink:href="#a97b1925bL" x="1865.752292" y="1125.570427"/><use xlink:href="#a97b1925bH" x="1877.325313" y="1125.570427"/><use xlink:href="#a97b1925bN" x="1883.441137" y="1125.570427"/><use xlink:href="#a97b1925bH" x="1900.094996" y="1125.570427"/><use xlink:href="#a97b1925bU" x="1906.21082" y="1125.570427"/><use xlink:href="#a97b1925bG" x="1919.289274" y="1125.570427"/><use xlink:href="#a97b1925bF" x="1933.590894" y="1125.570427"/><use xlink:href="#a97b1925bE" x="1947.798423" y="1125.570427"/><use xlink:href="#a97b1925bL" x="1957.183861" y="1125.570427"/></g><g fill="#fff"><use xlink:href="#a97b1925bV" x="800.093482" y="1246.357951"/><use xlink:href="#a97b1925bD" x="813.266026" y="1246.357951"/><use xlink:href="#a97b1925bP" x="819.47594" y="1246.357951"/><use xlink:href="#a97b1925bB" x="833.49529" y="1246.357951"/><use xlink:href="#a97b1925bE" x="846.903058" y="1246.357951"/><use xlink:href="#a97b1925bY" x="856.288496" y="1246.357951"/><use xlink:href="#a97b1925bC" x="870.590115" y="1246.357951"/></g><g fill="#fff"><use xlink:href="#a97b1925bJ" x="879.669762" y="1246.357951"/><use xlink:href="#a97b1925bL" x="893.218664" y="1246.357951"/><use xlink:href="#a97b1925bH" x="904.791685" y="1246.357951"/><use xlink:href="#a97b1925bZ" x="910.907509" y="1246.357951"/></g><g fill="#fff"><use xlink:href="#a97b1925bF" x="919.022737" y="1246.357951"/><use xlink:href="#a97b1925bC" x="933.230266" y="1246.357951"/><use xlink:href="#a97b1925bH" x="942.780361" y="1246.357951"/><use xlink:href="#a97b1925bZ" x="948.896185" y="1246.357951"/><use xlink:href="#a97b1925bC" x="957.364249" y="1246.357951"/></g><g fill="#fff"><use xlink:href="#a97b1925bJ" x="966.443895" y="1246.357951"/><use xlink:href="#a97b1925ca" x="979.992798" y="1246.357951"/><use xlink:href="#a97b1925bY" x="994.835432" y="1246.357951"/><use xlink:href="#a97b1925bJ" x="1009.137051" y="1246.357951"/><use xlink:href="#a97b1925bG" x="1022.685954" y="1246.357951"/><use xlink:href="#a97b1925bE" x="1036.987573" y="1246.357951"/><use xlink:href="#a97b1925bH" x="1046.37301" y="1246.357951"/><use xlink:href="#a97b1925bO" x="1052.488834" y="1246.357951"/><use xlink:href="#a97b1925bJ" x="1058.698748" y="1246.357951"/><use xlink:href="#a97b1925bE" x="1072.24765" y="1246.357951"/><use xlink:href="#a97b1925bE" x="1081.633088" y="1246.357951"/><use xlink:href="#a97b1925bJ" x="1091.018526" y="1246.357951"/><use xlink:href="#a97b1925bC" x="1104.567428" y="1246.357951"/><use xlink:href="#a97b1925bH" x="1114.117522" y="1246.357951"/><use xlink:href="#a97b1925bX" x="1120.233346" y="1246.357951"/><use xlink:href="#a97b1925bF" x="1132.653174" y="1246.357951"/><use xlink:href="#a97b1925bS" x="1146.860703" y="1246.357951"/><use xlink:href="#a97b1925bI" x="1169.065849" y="1246.357951"/><use xlink:href="#a97b1925bD" x="1183.908483" y="1246.357951"/><use xlink:href="#a97b1925bG" x="1190.118397" y="1246.357951"/><use xlink:href="#a97b1925bB" x="1204.420016" y="1246.357951"/><use xlink:href="#a97b1925bE" x="1217.827784" y="1246.357951"/><use xlink:href="#a97b1925bD" x="1227.213222" y="1246.357951"/><use xlink:href="#a97b1925bF" x="1233.423135" y="1246.357951"/><use xlink:href="#a97b1925bG" x="1247.630665" y="1246.357951"/><use xlink:href="#a97b1925bL" x="1261.932284" y="1246.357951"/></g><path d="M357.41 956.117l42.86 77.219M961.516 1076.477l67.152 119.804M1764.328 974.332l56.399 100.953" fill="none" stroke-width="1.96" stroke="#fff"/><g fill="#fff"><use xlink:href="#a97b1925bV" x="437.2544" y="394.4883"/><use xlink:href="#a97b1925bB" x="450.426944" y="394.4883"/><use xlink:href="#a97b1925bC" x="463.834712" y="394.4883"/></g><use xlink:href="#a97b1925bP" x="473.03197" y="394.4883" fill="#fff"/><g fill="#fff"><use xlink:href="#a97b1925bJ" x="486.933709" y="394.4883"/><use xlink:href="#a97b1925bH" x="500.482611" y="394.4883"/><use xlink:href="#a97b1925bX" x="506.598435" y="394.4883"/><use xlink:href="#a97b1925bF" x="519.018262" y="394.4883"/><use xlink:href="#a97b1925bY" x="533.225792" y="394.4883"/><use xlink:href="#a97b1925bG" x="547.527411" y="394.4883"/><use xlink:href="#a97b1925bE" x="561.82903" y="394.4883"/><use xlink:href="#a97b1925bJ" x="571.214468" y="394.4883"/><use xlink:href="#a97b1925bC" x="584.76337" y="394.4883"/></g><g fill="#fff"><use xlink:href="#a97b1925bL" x="593.960629" y="394.4883"/><use xlink:href="#a97b1925bM" x="605.53365" y="394.4883"/><use xlink:href="#a97b1925bB" x="619.835269" y="394.4883"/><use xlink:href="#a97b1925bR" x="633.243037" y="394.4883"/><use xlink:href="#a97b1925bJ" x="648.085671" y="394.4883"/><use xlink:href="#a97b1925bL" x="661.634574" y="394.4883"/><use xlink:href="#a97b1925bH" x="673.207594" y="394.4883"/><use xlink:href="#a97b1925bN" x="679.323418" y="394.4883"/><use xlink:href="#a97b1925bH" x="695.977278" y="394.4883"/><use xlink:href="#a97b1925bF" x="702.093102" y="394.4883"/><use xlink:href="#a97b1925bR" x="716.300631" y="394.4883"/><use xlink:href="#a97b1925bJ" x="731.143266" y="394.4883"/><use xlink:href="#a97b1925bG" x="744.692168" y="394.4883"/><use xlink:href="#a97b1925bH" x="758.993787" y="394.4883"/><use xlink:href="#a97b1925bB" x="765.109611" y="394.4883"/><use xlink:href="#a97b1925bR" x="778.517379" y="394.4883"/><use xlink:href="#a97b1925bJ" x="793.360014" y="394.4883"/><use xlink:href="#a97b1925bC" x="806.908916" y="394.4883"/><use xlink:href="#a97b1925bE" x="816.45901" y="394.4883"/><use xlink:href="#a97b1925bY" x="825.844448" y="394.4883"/><use xlink:href="#a97b1925bC" x="840.146067" y="394.4883"/></g><g fill="#fff"><use xlink:href="#a97b1925bJ" x="849.225714" y="394.4883"/><use xlink:href="#a97b1925bL" x="862.774616" y="394.4883"/></g><path d="M664.488 433.133L796.93 667.418" fill="none" stroke-width="1.96" stroke="#fff"/></svg>