<?xml version='1.0' encoding='UTF-8'?>
<svg xmlns="http://www.w3.org/2000/svg" xmlns:xlink="http://www.w3.org/1999/xlink" width="450px" height="260px" viewBox="0 0 450 260" x="0px" y="0px" enable-background="new 0 0 450 260"><defs><symbol overflow="visible" id="c55730f3a"><path d="M1.172-7.063c0 4.11 2.187 7.297 6.5 7.297 1.562 0 3.047-.359 4.25-1l-.563-1.609c-1.046.469-2.203.766-3.39.766-3.485 0-4.625-2.75-4.625-5.61 0-1.781.437-3.578 1.578-4.765.734-.735 1.703-1.157 2.953-1.157 1.188 0 2.203.313 3.219.86l.781-1.594c-.969-.625-2.344-1.11-3.984-1.11-4.61 0-6.72 3.922-6.72 7.922zm0 0"/></symbol><symbol overflow="visible" id="c55730f3b"><path d="M1.656-16.484v14.547c0 1.406.703 2.171 2 2.171.594 0 1.25-.125 1.89-.359L5.11-1.672c-.312.11-.578.156-.796.156-.438 0-.61-.265-.61-.921v-14.079zm0 0"/></symbol><symbol overflow="visible" id="c55730f3c"><path d="M1.313-8.906l.75 1.265c1.062-.734 2.187-1.187 3.171-1.187 1.235 0 1.72.687 1.72 2.734V-6c-2.329.188-3.735.516-4.626 1.078C1.453-4.375.875-3.469.875-2.359.875-.766 1.906.234 3.609.234c1.25 0 2.47-.546 3.516-1.484L7.453.125l1.703-.234C9-2.36 8.953-3.281 8.953-4.063v-2.625c0-2.734-1.031-3.89-3.297-3.89-1.718 0-3.187.672-4.343 1.672zm2.75 7.547c-.782 0-1.204-.438-1.204-1.266 0-.61.266-.984.61-1.219.469-.297 1.39-.531 3.484-.703v1.89c-1.016.829-2.047 1.298-2.89 1.298zm0 0"/></symbol><symbol overflow="visible" id="c55730f3d"><path d="M1.516-10.297c.171 2.328.218 3.281.218 4.11V0h2.032v-6.844c.703-1.125 1.578-1.578 2.578-1.578.406 0 .765.047 1.187.156l.36-1.921a2.703 2.703 0 0 0-1.438-.391c-1.172 0-2.094.719-2.828 1.969l-.39-1.907zm0 0"/></symbol><symbol overflow="visible" id="c55730f3e"><path d="M1.688-10.313V0h2.03v-10.36zm-.282-3.218c0 .75.5 1.219 1.282 1.219.828 0 1.359-.563 1.359-1.376 0-.718-.484-1.234-1.25-1.234-.813 0-1.39.578-1.39 1.39zm0 0"/></symbol><symbol overflow="visible" id="c55730f3f"><path d="M1.547-10.297c.172 2.328.187 3.297.187 4.11V0h2.032v-7.672c.828-.703 1.78-1.234 2.718-1.234 1.125 0 1.485.781 1.485 2.75V0h2.015v-6.938c0-.25 0-.5-.015-.734.828-.703 1.781-1.234 2.719-1.234 1.124 0 1.484.781 1.484 2.75V0h2.015v-6.938c0-2.437-.859-3.703-2.921-3.703-1.454 0-2.532.594-3.579 1.672-.406-1.11-1.265-1.672-2.64-1.672-1.39 0-2.453.547-3.484 1.579l-.313-1.454zm0 0"/></symbol><symbol overflow="visible" id="c55730f3g"><path d="M1.094-4.953c0 3.078 1.75 5.266 4.531 5.266 3.234 0 4.875-2.797 4.875-5.688 0-3.031-1.719-5.266-4.516-5.266-3.218 0-4.89 2.86-4.89 5.688zm7.312-.11c0 1.297-.328 2.329-.875 2.954a2.336 2.336 0 0 1-1.672.671c-1.765 0-2.671-1.546-2.671-3.796 0-1.407.359-2.422.906-3.016.328-.36.875-.656 1.672-.656 1.734 0 2.64 1.578 2.64 3.844zm0 0"/></symbol><symbol overflow="visible" id="c55730f3i"><path d="M10.281-14.734v9.359c0 1.422-.36 2.422-1.078 3.094-.406.39-1.172.765-2.078.765-2.531 0-3.234-1.515-3.234-4.187v-9.031H1.844v9.406c0 3.75 1.812 5.64 5.062 5.64 3.922 0 5.407-2.562 5.407-6.171v-8.875zm0 0"/></symbol><symbol overflow="visible" id="c55730f3j"><path d="M1.984-14.625V-.094C3.078.11 4.656.234 6.141.234c4.421 0 7.296-3.25 7.296-7.843 0-4.422-2.64-7.375-6.984-7.375-1.562 0-3.094.156-4.469.359zm4.11 13.016c-.703 0-1.438-.047-2.047-.11v-11.265c.75-.079 1.578-.157 2.312-.157 3.141 0 4.907 2.25 4.922 5.641.031 2.156-.781 4.094-2.437 5.188-.656.437-1.688.703-2.75.703zm0 0"/></symbol><symbol overflow="visible" id="c55730f3k"><path d="M6.516-12.25h.078l.89 3.094L8.61-5.672H4.33zM5.39-14.703L.797-1.36C.609-.875.484-.47.39 0h2.046l1.297-3.938h5.438L10.453 0h2a9.7 9.7 0 0 0-.375-1.39l-4.36-13.391zm0 0"/></symbol><symbol overflow="visible" id="c55730f3l"><path d="M1.656-16.484V-.375c1.313.39 2.5.61 3.938.61 3.468 0 5.047-2.72 5.047-5.61 0-2.984-1.47-5.266-4.047-5.266-1.188 0-2.078.516-2.89 1.407v-7.282zM5.72-1.47a8.182 8.182 0 0 1-2.016-.25v-5.937c.735-.75 1.594-1.25 2.516-1.25 1.5 0 2.343 1.422 2.343 3.734 0 1.328-.203 2.266-1 3.078-.296.328-.984.625-1.843.625zm0 0"/></symbol><symbol overflow="visible" id="c55730f3m"><path d="M1.125-4.89c0 3.202 1.75 5.124 4.64 5.124.985 0 2.157-.25 3.25-.765l-.453-1.516c-.921.328-1.812.5-2.53.5-1.813 0-2.845-1.11-2.845-3.578 0-1.5.376-2.64 1.079-3.219.39-.297.875-.5 1.515-.5.813 0 1.563.328 2.407.969l.937-1.234c-.828-.97-1.844-1.47-3.203-1.47-2.906 0-4.797 2.313-4.797 5.688zm0 0"/></symbol><symbol overflow="visible" id="c55730f3n"><path d="M1.625-3.063c.047.516.11 1.079.11 1.547C1.734 0 1.28 1.438.155 2.578l.828.672c1.782-1.14 2.72-2.922 2.72-4.828 0-.516-.079-1.11-.188-1.594zm0 0"/></symbol><symbol overflow="visible" id="c55730f3o"><path d="M1.094-4.906c0 3.343 1.937 5.14 4.578 5.14a8.92 8.92 0 0 0 3.812-.843L8.97-2.047c-.953.36-2.078.5-2.938.5-1.625 0-2.703-.922-2.843-3.094h6.359c.11-.53.172-1.171.172-1.734 0-2.422-1.25-4.25-3.828-4.25-2.97 0-4.797 2.531-4.797 5.719zm4.64-4.047c1.329 0 1.97.906 1.97 2.203 0 .219 0 .453-.032.672H3.219c.219-1.781 1.047-2.875 2.515-2.875zm0 0"/></symbol><symbol overflow="visible" id="c55730f3p"><path d="M8.14-10.344L5.454-2.156h-.078a17.6 17.6 0 0 0-.578-2.094l-2.031-6.094H.703c0 .36.094.688.203 1.031L4.25.017l2.203-.032 3.469-9.296c.11-.329.219-.657.219-1.032zm0 0"/></symbol><symbol overflow="visible" id="c55730f3q"><path d="M1.516-10.297c.171 2.281.218 3.281.218 4.11V0h2.032v-7.703c.89-.719 1.89-1.203 2.875-1.203 1.28 0 1.609.86 1.609 2.61V0h2.047v-7.063c0-2.28-.86-3.578-3.125-3.578-1.438 0-2.578.516-3.625 1.532l-.313-1.407zm0 0"/></symbol><symbol overflow="visible" id="c55730f3r"><path d="M2.063-1.578c0 .437.14.781.328 1.078C1.28.281.578 1.234.578 2.438c-.031 2 1.813 3.156 4.375 3.156 3.094 0 5.328-1.532 5.328-3.922 0-1.984-1.547-2.922-4.203-2.953-1.344-.016-2.14-.125-2.14-1.032 0-.328.124-.593.328-.859.25.047.53.063.812.063 2.75 0 4.313-1.704 4.313-3.829 0-.843-.282-1.64-.782-2.28a10.833 10.833 0 0 1 1.907-.376l-.063-1.734c-1.187.047-2.14.547-2.89 1.281-.594-.344-1.344-.531-2.188-.531-2.844 0-4.281 1.906-4.281 3.906 0 1.375.687 2.531 1.937 3.156-.64.61-.969 1.204-.969 1.938zm3.218 5.5c-1.687 0-2.843-.516-2.843-1.719 0-.797.421-1.406 1.171-1.969.61.157 1.282.203 1.797.203C7.125.47 8.36.657 8.36 1.907c0 .577-.234 1.046-.687 1.39-.516.437-1.36.625-2.39.625zM7.438-6.797c0 1.39-.86 2.14-2.172 2.14-1.5 0-2.204-.827-2.204-2.234 0-1.312.829-2.125 2.172-2.125 1.5 0 2.204.86 2.204 2.22zm0 0"/></symbol><symbol overflow="visible" id="c55730f3s"><path d="M5.516-1.453C4-1.453 3.187-2.97 3.187-5.22c0-1.234.266-2.375.954-3.047.39-.421.968-.64 1.796-.64a4.2 4.2 0 0 1 2.157.562v5.61c-.86.796-1.719 1.28-2.578 1.28zM1.094-4.797C1.125-1.875 2.844.313 5.14.313c1.234 0 2.25-.594 3.171-1.547L8.626.109l1.688-.218c-.157-2.141-.172-3.016-.172-3.782v-12.625l-2.047.032v6.547c-.688-.454-1.344-.704-2.219-.704-3.11 0-4.797 2.97-4.781 5.844zm0 0"/></symbol><symbol overflow="visible" id="c55730f3t"><path d="M.39-14.734l.047 1.78h4.579V0h2.062v-12.953h5.266V0h2.015v-7.938c.938-.593 1.922-.953 2.891-.953 1.25 0 1.61.797 1.61 2.547L18.874 0h2.031v-7.047c0-2.328-.89-3.594-3.11-3.594-1.296 0-2.39.391-3.437 1.188v-7.063l-2.015.032v1.75zm0 0"/></symbol><symbol overflow="visible" id="c55730f3u"><path d="M2.36-12.469v2.125H.796v1.703h1.562L2.375 0h2.031v-8.64h2.532v-1.704H4.405v-2.422c0-1.359.485-2.187 1.672-2.187.719 0 1.375.281 1.86.562l.78-1.359c-.734-.547-1.609-.984-2.78-.984-2.438 0-3.579 1.859-3.579 4.265zm0 0"/></symbol><symbol overflow="visible" id="c55730f3v"><path d="M12.438-14.734l-3.22 12.14h-.093l-.594-2.672-2.672-9.468H2.984L1.391-1.688C1.312-1.14 1.203-.484 1.187 0h1.891l1.406-12.078h.094l.64 2.703L7.86 0h2.485l3.297-12.078h.062l.266 2.734L15.156 0h1.953c0-.484-.109-1.016-.172-1.563l-1.64-13.171zm0 0"/></symbol><symbol overflow="visible" id="c55730f3w"><path d="M1.297-7.484c.016 1.625 1.281 2.312 2.75 2.89 1.297.5 2.516.89 2.516 1.86 0 .828-.86 1.28-2.016 1.28-1 0-1.922-.327-2.828-.921L.875-1.031A6.111 6.111 0 0 0 4.641.234c2.421 0 4.03-1.265 4.03-3.187 0-1.828-1.483-2.485-3.155-3.078C4.312-6.484 3.39-6.86 3.39-7.72c0-.687.609-1.172 1.687-1.172.844 0 1.625.282 2.375.766l.89-1.313c-.843-.656-1.874-1.14-3.218-1.14-2.094 0-3.875 1.156-3.828 3.094zm0 0"/></symbol><symbol overflow="visible" id="c55730f3x"><path d="M7.406-10.313L5.172-2.14h-.094l-.39-1.562-1.891-6.64H.719c0 .359.094.687.203 1.03L3.937.017l2.25-.032 2.079-7.468h.078l.328 1.437L10.469.016l2.265-.032 3.063-9.296c.11-.329.219-.704.219-1.032h-2L11.719-2.14h-.078l-.375-1.562-1.829-6.656zm0 0"/></symbol></defs><path fill="#1b1b1b" d="M0 0h450v260H0z"/><g fill="#fff"><use xlink:href="#c55730f3a" x="37.8931" y="174.2913"/><use xlink:href="#c55730f3b" x="50.7191" y="174.2913"/><use xlink:href="#c55730f3c" x="56.7251" y="174.2913"/><use xlink:href="#c55730f3d" x="67.4391" y="174.2913"/><use xlink:href="#c55730f3e" x="75.7991" y="174.2913"/><use xlink:href="#c55730f3f" x="81.3211" y="174.2913"/><use xlink:href="#c55730f3g" x="99.2511" y="174.2913"/><use xlink:href="#c55730f3h" x="110.9551" y="174.2913"/><use xlink:href="#c55730f3i" x="115.7731" y="174.2913"/><use xlink:href="#c55730f3j" x="130.0291" y="174.2913"/><use xlink:href="#c55730f3h" x="144.7251" y="174.2913"/></g><g fill="#fff"><use xlink:href="#c55730f3k" x="149.1251" y="174.2913"/><use xlink:href="#c55730f3d" x="162.2151" y="174.2913"/></g><g fill="#fff"><use xlink:href="#c55730f3c" x="170.1813" y="174.2913"/><use xlink:href="#c55730f3l" x="180.8953" y="174.2913"/><use xlink:href="#c55730f3e" x="192.7533" y="174.2913"/><use xlink:href="#c55730f3m" x="198.2753" y="174.2913"/><use xlink:href="#c55730f3n" x="208.2853" y="174.2913"/><use xlink:href="#c55730f3h" x="213.6753" y="174.2913"/><use xlink:href="#c55730f3j" x="218.4933" y="174.2913"/><use xlink:href="#c55730f3o" x="233.1893" y="174.2913"/><use xlink:href="#c55730f3p" x="244.1233" y="174.2913"/><use xlink:href="#c55730f3c" x="255.0133" y="174.2913"/><use xlink:href="#c55730f3q" x="265.7273" y="174.2913"/><use xlink:href="#c55730f3c" x="277.7393" y="174.2913"/><use xlink:href="#c55730f3r" x="288.4533" y="174.2913"/></g><g fill="#fff"><use xlink:href="#c55730f3c" x="299.6073" y="174.2913"/><use xlink:href="#c55730f3d" x="310.3213" y="174.2913"/><use xlink:href="#c55730f3e" x="318.6813" y="174.2913"/><use xlink:href="#c55730f3n" x="324.2033" y="174.2913"/><use xlink:href="#c55730f3h" x="329.5933" y="174.2913"/><use xlink:href="#c55730f3c" x="334.4113" y="174.2913"/><use xlink:href="#c55730f3q" x="345.1253" y="174.2913"/><use xlink:href="#c55730f3s" x="357.1373" y="174.2913"/><use xlink:href="#c55730f3h" x="369.1053" y="174.2913"/></g><g fill="#fff"><use xlink:href="#c55730f3t" x="373.3513" y="174.2913"/><use xlink:href="#c55730f3c" x="395.9893" y="174.2913"/><use xlink:href="#c55730f3e" x="406.7033" y="174.2913"/></g><use xlink:href="#c55730f3h" x="412.1131" y="174.2913" fill="#fff"/><use xlink:href="#c55730f3u" x="163.3811" y="202.2973" fill="#fff"/><g fill="#fff"><use xlink:href="#c55730f3g" x="170.7731" y="202.2973"/><use xlink:href="#c55730f3d" x="182.4771" y="202.2973"/></g><g fill="#fff"><use xlink:href="#c55730f3h" x="190.3751" y="202.2973"/><use xlink:href="#c55730f3v" x="195.1931" y="202.2973"/><use xlink:href="#c55730f3g" x="213.6071" y="202.2973"/><use xlink:href="#c55730f3d" x="225.3111" y="202.2973"/><use xlink:href="#c55730f3e" x="233.6711" y="202.2973"/><use xlink:href="#c55730f3w" x="239.1931" y="202.2973"/><use xlink:href="#c55730f3c" x="248.9611" y="202.2973"/></g><use xlink:href="#c55730f3x" x="259.5651" y="202.2973" fill="#fff"/><use xlink:href="#c55730f3c" x="276.0211" y="202.2973" fill="#fff"/><path d="M145.176 99.813a2.583 2.583 0 0 1-2.594-2.575V92.48h25.383V80.594h-25.383v-6.25h25.383V62.457H112.14v11.887h14.011v6.25h-14.011V92.48h14.011l.004 5.872c0 8.02 6.543 14.53 14.61 14.53l27.199-.007V99.812zm0 0M170.938 92.621h15V62.5h-15zm0 0M277.027 62.5v9.29h10.133l.012-9.29h52.668l.02 35.906c0 8.008-6.567 14.524-14.637 14.524l-18.985-.012V99.859h14.594c1.422 0 2.594-1.16 2.594-2.582l-.012-22.875h-21.242v18.13h-15l-.012-8.856h-10.133l.004 14.73c0 8.008-6.558 14.524-14.617 14.524l-17.012-.012V99.859h12.61a2.583 2.583 0 0 0 2.586-2.582V83.676h-15.196l-.004 8.855h-14.996v-8.855h-10.136v14.73c0 8.008-6.559 14.524-14.63 14.524l-19.706-.012V99.859h15.316a2.585 2.585 0 0 0 2.582-2.582l.012-34.777h16.426v9.29h10.136V62.5h15v9.29h15.196V62.5zm0 0" fill="#fff"/></svg>