<svg width="50" height="50" viewBox="0 0 50 50" xmlns="http://www.w3.org/2000/svg"><title>award-icon-red</title><desc>Created with Sketch.</desc><g fill="none" fill-rule="evenodd"><g><g><g><g><path d="M26.49.566l.993.994c.663.662 1.656.883 2.43.44l1.213-.66c.993-.553 2.318-.11 2.87.882l.55 1.214c.443.883 1.326 1.325 2.21 1.104l1.323-.22c1.214-.222 2.317.55 2.428 1.765l.22 1.325c.11.883.883 1.655 1.766 1.766l1.325.22c1.213.11 1.986 1.215 1.765 2.43l-.22 1.323c-.222.882.33 1.876 1.103 2.207l1.214.552c1.104.55 1.545 1.765.883 2.868l-.662 1.214c-.442.773-.33 1.877.44 2.43l.995.992c.883.773.883 2.208 0 2.98l-.994.994c-.662.662-.883 1.655-.44 2.428l.66 1.214c.553.993.11 2.318-.882 2.87l-1.214.552c-.883.44-1.325 1.324-1.104 2.207l.22 1.324c.222 1.214-.55 2.317-1.765 2.428l-1.326.22c-.883.11-1.655.884-1.766 1.767l-.22 1.323c-.11 1.214-1.214 1.987-2.43 1.766l-1.323-.222c-.883-.22-1.876.33-2.208 1.104l-.55 1.214c-.553 1.104-1.767 1.545-2.87.883l-1.215-.663c-.773-.442-1.877-.33-2.43.44l-.992.995c-.773.883-2.207.883-2.98 0l-.993-.994c-.663-.662-1.656-.883-2.43-.44l-1.213.66c-.993.553-2.318.112-2.87-.882l-.55-1.214c-.443-.883-1.326-1.324-2.21-1.104l-1.323.22c-1.214.222-2.317-.55-2.428-1.765l-.22-1.324c-.11-.884-.883-1.657-1.766-1.767l-1.325-.22c-1.213-.112-1.986-1.215-1.765-2.43l.22-1.324c.222-.884-.33-1.877-1.103-2.208L2.318 33.9c-1.104-.552-1.545-1.766-.883-2.87l.662-1.214c.442-.773.33-1.877-.44-2.428l-.995-.994c-.883-.772-.883-2.207 0-2.98l.994-.993c.662-.662.883-1.655.44-2.428l-.66-1.214c-.553-.993-.11-2.318.882-2.87l1.214-.55c.883-.443 1.325-1.326 1.104-2.21l-.22-1.213c-.222-1.214.55-2.318 1.765-2.428l1.326-.22c.883-.11 1.655-.884 1.766-1.767l.22-1.324c.11-1.215 1.214-1.987 2.43-1.767l1.323.22c.883.22 1.876-.33 2.208-1.104l.55-1.214c.553-1.103 1.767-1.545 2.87-.883l1.215.662c.773.44 1.877.33 2.43-.442l.992-.993c.883-.883 2.207-.883 2.98-.11" fill="#212121"/><path d="M15.753 15.354c0-.423.104-.846.312-1.268.207-.422.622-.845 1.037-1.267.415-.424.934-.635 1.453-.74.52-.106.934-.106 1.35 0-.105.74-.727 1.584-1.558 2.324-.933.738-1.867 1.055-2.594.95zm-3.338.445c.147-1.068.813-2.164 1.722-2.64.548.497.698 1.335.55 2.402-.25 1.07-.722 1.945-1.41 2.62-.647-.386-1.005-1.21-.862-2.383zm-2.344 5.18c-.25-1.036.003-2.253.52-3.08.663.227 1.195 1.01 1.445 2.045.25 1.037.087 2.134-.327 2.945-.65-.12-1.372-.767-1.637-1.91zm-.397 5.638c-.634-.936-.804-2.13-.578-3.06.755-.006 1.547.525 2.074 1.448.528.92.817 2.025.71 2.862-.662.126-1.574-.314-2.207-1.25zm1.795 5.71c-.89-.704-1.45-1.702-1.592-2.67.644-.275 1.564.002 2.36.59.786.696 1.455 1.595 1.605 2.458-.54.282-1.473.216-2.372-.38zm3.66 4.473c-1.04-.317-1.973-1.055-2.49-1.9.517-.528 1.45-.634 2.49-.317 1.036.317 1.866.95 2.385 1.69-.52.528-1.35.844-2.386.528zm.95-18.07c-.92.267-1.858.215-2.406-.282.374-.762 1.16-1.548 2.185-1.82 1.023-.27 1.87-.003 2.314.5-.37.763-1.17 1.34-2.092 1.603zm-1.553 3.7c-.765.63-1.683.853-2.344.616.002-.856.508-1.884 1.376-2.53.868-.643 1.71-.642 2.382-.3-.117.765-.648 1.58-1.413 2.213zm-2.12 5.42c-.304-.898-.155-1.944.4-2.822.557-.878 1.462-1.172 2.095-1.08.106.764-.026 1.705-.583 2.583-.435.79-1.16 1.325-1.912 1.32zm1.974 4.58c-.58-.687-.82-1.78-.644-2.844.177-1.065.843-1.665 1.48-1.835.476.68.618 1.66.45 2.617-.073 1.07-.643 1.784-1.287 2.063zm1.888 1.14c-.207-1.055.208-1.9.726-2.323.623.528 1.142 1.268 1.35 2.218.207.95 0 1.9-.52 2.323-.726-.316-1.348-1.16-1.556-2.217zM34.43 15.355c0-.423-.104-.846-.31-1.268-.21-.422-.624-.845-1.04-1.267-.414-.424-.933-.635-1.45-.74-.52-.106-.935-.106-1.35 0 .103.74.726 1.584 1.556 2.324.934.738 1.868 1.055 2.594.95zm3.34.445c-.148-1.068-.814-2.164-1.723-2.64-.548.497-.7 1.335-.55 2.402.25 1.07.722 1.945 1.41 2.62.646-.386 1.004-1.21.862-2.383zm2.343 5.18c.25-1.036-.002-2.253-.52-3.08-.663.227-1.193 1.01-1.444 2.045-.25 1.037-.088 2.134.326 2.945.65-.12 1.37-.767 1.637-1.91zm.398 5.638c.634-.936.804-2.13.578-3.06-.754-.006-1.547.525-2.074 1.448-.528.92-.818 2.025-.71 2.862.66.126 1.573-.314 2.207-1.25zm-1.795 5.71c.892-.704 1.45-1.702 1.593-2.67-.644-.275-1.565.002-2.36.59-.786.696-1.455 1.595-1.606 2.458.54.282 1.476.216 2.373-.38zM35.057 36.8c1.037-.317 1.97-1.055 2.49-1.9-.52-.528-1.453-.634-2.49-.317-1.038.317-1.868.95-2.387 1.69.52.528 1.35.844 2.387.528zm-.952-18.07c.92.267 1.86.215 2.406-.282-.372-.762-1.16-1.548-2.183-1.82-1.024-.27-1.87-.003-2.315.5.373.763 1.172 1.34 2.093 1.603zm1.554 3.7c.763.63 1.683.853 2.342.616 0-.856-.507-1.884-1.374-2.53-.87-.643-1.71-.642-2.383-.3.118.765.65 1.58 1.414 2.213zm2.118 5.42c.304-.898.156-1.944-.4-2.822-.556-.878-1.46-1.172-2.094-1.08-.107.764.027 1.705.583 2.583.435.79 1.158 1.325 1.91 1.32zm-1.973 4.58c.58-.687.818-1.78.642-2.844-.176-1.065-.842-1.665-1.48-1.835-.476.68-.618 1.66-.45 2.617.074 1.07.643 1.784 1.288 2.063zm-1.89 1.14c.208-1.055-.207-1.9-.726-2.323-.623.528-1.142 1.268-1.35 2.218-.207.95 0 1.9.52 2.323.725-.316 1.348-1.16 1.555-2.217zm-3.248 2.856c-1.636.928-3.557 1.545-5.575 1.555-2.018-.01-3.94-.626-5.575-1.554-.096.26-.278.53-.58.83 1.895 1.12 3.89 1.73 6.155 1.758 2.265-.027 4.26-.638 6.156-1.757-.303-.3-.486-.57-.58-.83z" fill="#E2E9EB"/></g></g></g></g></g></svg>