<?xml version="1.0" encoding="UTF-8"?><svg enable-background="new 0 0 940 600" height="600px" version="1.1" viewBox="0 0 940 600" width="940px" x="0px" xml:space="preserve" xmlns="http://www.w3.org/2000/svg" xmlns:xlink="http://www.w3.org/1999/xlink" y="0px">
<g id="surface1">
<rect height="600" style="fill:rgb(92.89856%,94.099426%,94.898987%);fill-opacity:1;stroke:none;" width="940" x="0" y="0"/>
<path d="M 193.109375 428.183594 L 193.109375 482.003906 C 193.109375 490.585938 197.53125 498.125 204.03125 503.585938 C 207.410156 506.445312 210.789062 508.003906 214.167969 508.003906 C 218.589844 508.003906 224.308594 505.40625 229.507812 502.023438 L 229.507812 500.984375 L 221.96875 488.503906 C 215.988281 492.664062 212.347656 494.746094 210.53125 494.746094 C 209.488281 494.746094 208.710938 493.964844 208.710938 491.886719 L 208.710938 385.546875 L 194.410156 381.90625 L 193.109375 383.207031 L 193.109375 414.664062 M 207.667969 373.585938 L 208.964844 372.546875 C 184.265625 324.964844 179.847656 310.40625 155.925781 310.40625 C 146.304688 310.40625 138.246094 311.707031 131.226562 313.785156 L 137.726562 331.207031 L 138.765625 331.984375 C 146.046875 329.90625 153.585938 328.605469 161.386719 328.605469 C 175.945312 328.605469 180.367188 334.84375 187.648438 349.40625 C 191.804688 357.726562 193.625 362.664062 196.746094 370.207031 Z M 363.402344 486.164062 C 356.644531 488.503906 351.183594 489.546875 347.285156 489.546875 C 335.0625 489.546875 327.003906 480.707031 324.664062 464.585938 C 337.664062 462.246094 349.363281 455.226562 356.382812 445.34375 C 364.445312 451.066406 370.683594 453.144531 378.484375 453.144531 C 381.082031 453.144531 383.683594 453.144531 386.285156 452.625 L 386.285156 482.003906 C 386.285156 490.585938 390.703125 498.125 397.203125 503.585938 C 400.582031 506.445312 403.964844 508.003906 407.34375 508.003906 C 411.761719 508.003906 417.484375 505.40625 422.683594 502.023438 L 422.683594 500.984375 L 415.144531 488.503906 C 409.164062 492.664062 405.523438 494.746094 403.703125 494.746094 C 402.664062 494.746094 401.882812 493.964844 401.882812 491.886719 L 401.882812 385.546875 L 387.582031 381.90625 L 386.285156 383.207031 L 386.285156 434.164062 C 380.824219 437.023438 375.363281 438.324219 370.164062 438.324219 C 367.042969 438.324219 363.664062 437.804688 360.804688 437.023438 C 362.101562 432.863281 363.144531 428.445312 363.144531 423.765625 C 363.144531 411.285156 357.421875 400.886719 350.144531 393.34375 C 342.082031 385.285156 332.464844 380.863281 321.285156 380.863281 C 310.625 380.863281 298.664062 384.246094 289.5625 390.226562 L 289.5625 391.265625 L 299.964844 406.863281 C 308.804688 400.625 319.203125 395.425781 328.304688 395.425781 C 339.222656 395.425781 348.324219 403.484375 348.324219 417.265625 C 348.324219 432.605469 337.664062 444.304688 322.84375 447.425781 C 319.464844 440.664062 312.964844 436.765625 304.644531 436.765625 C 297.363281 436.765625 292.683594 440.664062 292.683594 444.824219 C 292.683594 447.945312 295.023438 452.625 298.402344 457.566406 C 301.523438 461.984375 306.722656 465.363281 314.003906 465.363281 C 318.945312 491.363281 333.242188 507.484375 352.484375 507.484375 C 356.644531 507.484375 362.363281 506.707031 367.824219 505.144531 Z M 347.277344 527.765625 L 347.277344 528.804688 C 367.816406 558.183594 387.058594 569.625 405.257812 569.625 C 415.917969 569.625 429.699219 562.605469 429.699219 547.003906 C 429.699219 541.546875 428.398438 536.34375 425.277344 531.144531 C 419.816406 521.785156 413.058594 517.886719 404.738281 517.886719 C 396.675781 517.886719 390.175781 521.003906 383.9375 525.425781 L 392.515625 539.207031 L 393.558594 539.207031 C 398.757812 535.046875 404.738281 532.183594 411.238281 532.183594 C 416.957031 532.183594 420.335938 535.566406 420.335938 540.765625 C 420.335938 549.863281 407.859375 556.105469 399.015625 556.105469 C 383.15625 556.105469 368.078125 543.625 352.476562 522.824219 Z M 394.082031 338.484375 L 379.523438 353.304688 L 394.082031 368.125 L 408.902344 353.304688 Z M 441.140625 416.484375 C 441.140625 425.324219 447.121094 435.984375 457.261719 443.523438 C 444.523438 450.023438 440.101562 457.566406 440.101562 466.925781 C 440.101562 480.445312 449.722656 492.40625 457.78125 498.386719 C 464.800781 503.324219 475.203125 507.484375 487.160156 507.484375 C 501.460938 507.484375 516.28125 501.503906 528.242188 489.023438 L 528.242188 487.726562 L 518.621094 474.464844 C 503.542969 488.503906 489.242188 493.183594 479.101562 493.183594 C 464.542969 493.183594 455.703125 483.304688 455.703125 473.425781 C 455.703125 459.386719 473.640625 452.363281 496.523438 448.984375 L 497.5625 447.425781 L 488.460938 434.425781 C 480.140625 435.984375 473.121094 438.066406 469.222656 438.066406 C 462.722656 438.066406 456.480469 431.304688 456.480469 424.023438 C 456.480469 419.085938 459.601562 414.144531 467.402344 409.464844 C 472.339844 406.34375 480.140625 402.964844 487.941406 397.765625 C 488.722656 397.246094 489.761719 396.207031 489.761719 395.164062 C 489.761719 394.386719 489.242188 393.085938 488.203125 391.785156 L 479.882812 381.644531 L 478.839844 381.644531 C 473.382812 386.84375 465.839844 391.003906 459.863281 393.863281 C 449.460938 398.804688 441.140625 406.085938 441.140625 416.484375 M 606.925781 486.164062 C 599.128906 488.503906 593.148438 489.546875 588.46875 489.546875 C 574.6875 489.546875 565.585938 480.707031 562.726562 464.585938 C 583.789062 460.683594 605.109375 445.605469 605.109375 423.765625 C 605.109375 411.285156 599.386719 400.886719 591.585938 393.34375 C 583.007812 385.285156 572.085938 380.863281 560.128906 380.863281 C 548.6875 380.863281 535.949219 384.765625 526.066406 391.785156 L 526.066406 392.824219 L 536.46875 408.425781 C 546.347656 401.40625 557.789062 395.425781 567.925781 395.425781 C 580.148438 395.425781 590.289062 403.484375 590.289062 417.265625 C 590.289062 432.605469 577.546875 443.523438 560.128906 446.90625 C 555.96875 440.664062 548.167969 436.246094 540.367188 436.246094 C 533.085938 436.246094 528.40625 440.144531 528.40625 444.304688 C 528.40625 447.425781 530.746094 453.664062 534.648438 458.34375 C 537.765625 461.984375 541.667969 465.363281 552.066406 465.363281 C 557.007812 491.363281 572.347656 507.484375 594.1875 507.484375 C 598.867188 507.484375 605.109375 506.707031 611.347656 505.144531 Z M 727.300781 382.683594 C 703.640625 382.683594 686.222656 393.605469 686.222656 410.503906 C 686.222656 423.246094 692.722656 433.90625 703.902344 443.785156 C 697.660156 448.984375 693.761719 455.226562 693.761719 462.765625 C 693.761719 478.625 703.121094 490.324219 713.261719 497.863281 C 721.0625 503.84375 731.722656 508.003906 742.121094 508.003906 C 782.941406 508.003906 811.28125 465.886719 811.28125 430.003906 C 811.28125 401.664062 794.121094 381.644531 773.582031 381.644531 C 761.101562 381.644531 749.921875 392.824219 749.921875 406.863281 C 749.921875 427.144531 766.5625 444.824219 789.703125 455.226562 C 777.742188 477.066406 755.640625 493.964844 733.542969 493.964844 C 720.28125 493.964844 709.101562 484.085938 709.101562 471.34375 C 709.101562 458.34375 723.140625 450.546875 740.5625 447.425781 L 741.601562 445.863281 L 732.5 432.605469 C 725.222656 433.644531 718.460938 435.726562 712.742188 438.324219 C 705.980469 433.90625 700.78125 426.625 700.78125 419.34375 C 700.78125 407.125 714.042969 397.503906 735.363281 397.503906 L 736.402344 395.945312 Z M 765.261719 413.363281 C 765.261719 402.707031 773.320312 396.207031 779.820312 396.207031 C 792.042969 396.207031 798.542969 408.683594 798.542969 422.464844 C 798.542969 430.265625 796.722656 438.066406 794.121094 445.34375 L 793.601562 445.34375 C 776.441406 437.804688 765.261719 430.265625 765.261719 413.363281 M 780.859375 373.585938 L 782.160156 372.546875 C 757.460938 324.964844 753.039062 310.40625 729.121094 310.40625 C 719.5 310.40625 711.441406 311.707031 704.421875 313.785156 L 710.921875 331.207031 L 711.960938 331.984375 C 719.242188 329.90625 726.78125 328.605469 734.582031 328.605469 C 749.140625 328.605469 753.558594 334.84375 760.839844 349.40625 C 765 357.726562 766.820312 362.664062 769.941406 370.207031 Z M 780.859375 373.585938 " style=" stroke:none;fill-rule:nonzero;fill:rgb(12.89978%,12.89978%,12.89978%);fill-opacity:1;"/>
<path d="M 118.65625 102.597656 L 200.414062 102.597656 L 200.414062 126.84375 C 191.402344 126.210938 182.261719 126.082031 172.359375 126.082031 C 139.605469 126.082031 128.941406 137.761719 128.941406 156.679688 C 128.941406 176.355469 141.253906 197.8125 165.628906 220.15625 L 166.773438 220.15625 L 177.691406 204.539062 C 154.710938 190.574219 141.890625 175.722656 141.890625 162.773438 C 141.890625 151.472656 152.425781 141.824219 180.738281 141.824219 C 187.59375 141.824219 194.195312 141.824219 200.414062 142.207031 L 199.90625 216.472656 L 214.125 220.28125 L 215.394531 218.886719 L 214.886719 102.597656 L 237.867188 102.597656 L 238.882812 101.199219 L 232.789062 88.886719 L 113.578125 88.886719 L 112.5625 90.28125 Z M 212.476562 91.425781 L 213.363281 90.15625 C 188.734375 42.675781 183.785156 27.058594 159.789062 27.058594 C 150.140625 27.058594 142.144531 28.328125 135.160156 30.359375 L 141.636719 47.753906 L 142.652344 48.515625 C 150.015625 46.484375 157.632812 45.214844 165.25 45.214844 C 179.976562 45.214844 184.292969 51.433594 191.527344 65.90625 C 195.84375 74.414062 199.652344 82.917969 203.460938 91.425781 Z M 285.472656 102.597656 L 317.339844 102.597656 C 318.480469 108.816406 319.117188 116.816406 319.242188 125.828125 C 319.242188 133.191406 318.480469 139.285156 316.957031 144.492188 C 312.894531 143.855469 308.707031 143.222656 305.40625 143.222656 C 296.898438 143.222656 294.105469 150.964844 294.105469 153.886719 C 294.105469 158.835938 297.40625 166.074219 302.484375 174.707031 C 311.878906 190.320312 328.765625 207.460938 351.363281 225.488281 L 352.503906 225.488281 L 361.136719 208.984375 C 343.746094 199.460938 327.75 188.925781 315.816406 175.722656 C 320.894531 172.292969 325.71875 167.34375 329.78125 159.851562 C 343.109375 166.328125 355.550781 169.246094 366.089844 169.246094 C 371.800781 169.246094 377.386719 168.613281 382.71875 167.34375 L 382.210938 216.472656 L 396.558594 220.28125 L 397.828125 218.886719 L 397.191406 102.597656 L 420.171875 102.597656 L 421.1875 101.199219 L 415.09375 88.886719 L 280.394531 88.886719 L 279.378906 90.28125 Z M 382.71875 102.597656 L 382.71875 149.824219 C 373.324219 151.855469 364.3125 152.996094 355.933594 152.996094 C 348.316406 152.996094 339.9375 151.726562 332.445312 148.933594 C 333.589844 143.601562 333.96875 138.269531 333.96875 132.683594 C 333.96875 123.289062 333.082031 113.386719 331.050781 102.597656 Z M 328.003906 235.136719 L 328.003906 235.769531 C 348.570312 266.113281 367.867188 278.300781 386.148438 278.300781 C 396.8125 278.300781 410.648438 271.316406 410.648438 255.703125 C 410.648438 250.371094 409.253906 245.039062 406.078125 239.832031 C 400.621094 230.691406 393.890625 226.628906 385.640625 226.628906 C 377.640625 226.628906 371.167969 230.058594 365.074219 235.007812 L 373.707031 248.71875 L 374.722656 248.71875 C 379.925781 244.148438 385.511719 240.976562 391.988281 240.976562 C 397.828125 240.976562 401.128906 244.402344 401.128906 249.609375 C 401.128906 258.75 388.8125 264.96875 379.925781 264.96875 C 363.929688 264.96875 348.824219 251.257812 333.207031 229.675781 Z M 359.234375 49.65625 L 345.394531 63.621094 L 359.234375 77.585938 L 373.199219 63.621094 Z M 415.09375 102.597656 L 490.375 102.597656 L 490.375 123.289062 C 490.375 125.574219 489.105469 126.84375 486.566406 126.84375 L 468.921875 126.84375 C 443.910156 126.84375 425.882812 138.144531 425.882812 160.488281 C 425.882812 183.972656 447.085938 207.332031 477.554688 207.332031 C 485.425781 207.332031 493.042969 206.0625 500.660156 202.253906 C 506.753906 208.347656 509.546875 214.0625 509.546875 219.519531 C 509.546875 227.390625 503.832031 233.738281 495.074219 239.578125 L 510.179688 251.640625 L 511.195312 251.640625 C 520.082031 245.546875 526.175781 238.183594 526.175781 227.773438 C 526.175781 219.902344 521.097656 210 507.894531 197.9375 C 515.003906 193.113281 518.6875 187.402344 518.6875 180.546875 C 518.6875 175.339844 516.65625 170.769531 512.847656 166.835938 C 509.292969 163.28125 505.230469 161.375 500.152344 161.375 C 491.265625 161.375 484.789062 168.613281 484.789062 176.101562 C 484.789062 181.179688 486.441406 185.242188 489.742188 188.542969 C 483.265625 191.71875 477.046875 193.496094 470.191406 193.496094 C 452.796875 193.496094 441.5 182.195312 441.5 167.46875 C 441.5 150.839844 455.335938 141.570312 484.789062 141.570312 L 503.453125 141.570312 L 504.722656 140.300781 L 504.59375 102.597656 L 532.90625 102.597656 L 533.921875 101.199219 L 527.828125 88.886719 L 410.015625 88.886719 L 409 90.28125 Z M 527.828125 102.597656 L 573.148438 102.597656 C 574.292969 107.800781 574.546875 113.515625 574.546875 118.085938 C 574.546875 125.828125 572.894531 132.683594 570.230469 137.382812 C 565.277344 136.875 559.691406 136.621094 554.105469 136.621094 C 547.757812 136.621094 543.949219 138.144531 542.046875 140.808594 C 540.394531 142.96875 539.761719 145.125 539.761719 147.539062 C 539.761719 152.109375 542.933594 159.726562 549.15625 168.738281 C 561.34375 186.257812 579.242188 203.269531 601.207031 220.15625 L 602.730469 220.15625 L 611.488281 203.90625 C 590.289062 192.351562 572.640625 180.164062 561.976562 167.597656 C 578.480469 159.089844 589.652344 146.269531 589.652344 123.925781 C 589.652344 116.6875 589.144531 109.453125 587.75 102.597656 L 618.980469 102.597656 L 619.996094 101.199219 L 613.902344 88.886719 L 522.75 88.886719 L 521.734375 90.28125 Z M 666.585938 102.597656 L 769.292969 102.597656 L 769.292969 112.625 C 759.769531 115.164062 751.773438 123.289062 751.773438 136.238281 C 751.773438 150.839844 761.800781 166.328125 779.574219 180.164062 C 767.007812 191.84375 749.613281 200.097656 732.984375 200.097656 C 714.828125 200.097656 709.878906 190.449219 709.878906 184.226562 C 709.878906 175.339844 720.414062 166.453125 744.410156 165.820312 L 744.917969 164.550781 L 737.171875 150.203125 C 725.875 151.21875 716.480469 153.632812 709.371094 157.441406 C 697.054688 152.109375 693.121094 146.648438 693.121094 141.191406 C 693.121094 134.714844 698.960938 129.636719 712.035156 129.636719 C 717.367188 129.636719 726.761719 130.527344 735.777344 134.207031 L 736.539062 133.320312 L 728.285156 115.292969 C 721.558594 113.386719 715.082031 112.753906 710.386719 112.753906 C 693.882812 112.753906 680.171875 120.625 680.171875 135.605469 C 680.171875 146.140625 686.773438 156.550781 699.976562 164.929688 C 696.929688 168.738281 695.277344 173.183594 695.277344 178.261719 C 695.277344 195.019531 713.179688 214.570312 741.617188 214.570312 C 775.765625 214.570312 808.648438 186.386719 808.648438 151.980469 C 808.648438 141.953125 805.980469 131.667969 798.238281 122.90625 C 793.921875 118.210938 788.84375 114.65625 783.382812 113.007812 L 783.382812 102.597656 L 826.421875 102.597656 L 827.4375 101.199219 L 821.34375 88.886719 L 661.507812 88.886719 L 660.492188 90.28125 Z M 765.609375 144.363281 C 765.609375 133.699219 774.371094 126.082031 783.128906 126.082031 C 791.890625 126.082031 797.730469 133.828125 797.730469 144.871094 C 797.730469 154.265625 793.667969 163.789062 786.9375 172.167969 L 786.175781 172.167969 C 772.464844 163.40625 765.609375 153.632812 765.609375 144.363281 M 781.351562 91.425781 L 782.242188 90.15625 C 757.613281 42.675781 752.660156 27.058594 728.667969 27.058594 C 719.019531 27.058594 711.019531 28.328125 704.039062 30.359375 L 710.511719 47.753906 L 711.527344 48.515625 C 718.890625 46.484375 726.507812 45.214844 734.125 45.214844 C 748.851562 45.214844 753.167969 51.433594 760.40625 65.90625 C 764.722656 74.414062 768.53125 82.917969 772.339844 91.425781 Z M 781.351562 91.425781 " style=" stroke:none;fill-rule:nonzero;fill:rgb(12.89978%,12.89978%,12.89978%);fill-opacity:1;"/>
<path d="M 193.996094 389.347656 L 193.996094 413.59375 C 184.980469 412.960938 175.84375 412.832031 165.9375 412.832031 C 133.183594 412.832031 122.519531 424.515625 122.519531 443.429688 C 122.519531 463.109375 134.835938 484.5625 159.210938 506.90625 L 160.351562 506.90625 L 171.269531 491.289062 C 148.292969 477.328125 135.472656 462.472656 135.472656 449.523438 C 135.472656 438.226562 146.007812 428.578125 174.316406 428.578125 C 181.171875 428.578125 187.773438 428.578125 193.996094 428.957031 " style=" stroke:none;fill-rule:nonzero;fill:rgb(12.89978%,12.89978%,12.89978%);fill-opacity:1;"/>
<path d="M -0.00128125 -0.0000375 C 17.713562 -0.0000375 32.076844 14.359338 32.076844 32.074181 C 32.076844 49.792931 17.713562 64.152306 -0.00128125 64.152306 C -17.716125 64.152306 -32.0755 49.792931 -32.0755 32.074181 C -32.0755 14.359338 -17.716125 -0.0000375 -0.00128125 -0.0000375 Z M -0.00128125 -0.0000375 " style="fill:none;stroke-width:3;stroke-linecap:butt;stroke-linejoin:miter;stroke:rgb(86.999512%,28.999329%,14.99939%);stroke-opacity:1;stroke-miterlimit:10;" transform="matrix(1,0,0,-1,600.263,242.7734)"/>
<path d="M -0.00128125 -0.0000375 C 17.713563 -0.0000375 32.076844 14.359338 32.076844 32.074181 C 32.076844 49.792931 17.713563 64.152306 -0.00128125 64.152306 C -17.716125 64.152306 -32.0755 49.792931 -32.0755 32.074181 C -32.0755 14.359338 -17.716125 -0.0000375 -0.00128125 -0.0000375 Z M -0.00128125 -0.0000375 " style="fill:none;stroke-width:3;stroke-linecap:butt;stroke-linejoin:miter;stroke:rgb(86.999512%,28.999329%,14.99939%);stroke-opacity:1;stroke-miterlimit:10;" transform="matrix(1,0,0,-1,162.263,242.7734)"/>
<path d="M -0.00061875 -0.0000375 C 17.714225 -0.0000375 32.077506 14.359338 32.077506 32.074181 C 32.077506 49.792931 17.714225 64.152306 -0.00061875 64.152306 C -17.715463 64.152306 -32.074838 49.792931 -32.074838 32.074181 C -32.074838 14.359338 -17.715463 -0.0000375 -0.00061875 -0.0000375 Z M -0.00061875 -0.0000375 " style="fill:none;stroke-width:3;stroke-linecap:butt;stroke-linejoin:miter;stroke:rgb(86.999512%,28.999329%,14.99939%);stroke-opacity:1;stroke-miterlimit:10;" transform="matrix(1,0,0,-1,155.1764,524.7734)"/>
</g>
</svg>