<?xml version="1.0" encoding="UTF-8"?><svg enable-background="new 0 0 940 400" height="400px" version="1.1" viewBox="0 0 940 400" width="940px" x="0px" xml:space="preserve" xmlns="http://www.w3.org/2000/svg" xmlns:xlink="http://www.w3.org/1999/xlink" y="0px">
<g id="surface1">
<rect height="400" style="fill:rgb(92.89856%,94.099426%,94.898987%);fill-opacity:1;stroke:none;" width="940" x="0" y="0"/>
<path d="M 137.648438 81.484375 L 311.339844 81.484375 L 311.339844 132.996094 C 292.191406 131.648438 272.769531 131.378906 251.734375 131.378906 C 182.148438 131.378906 159.492188 156.191406 159.492188 196.378906 C 159.492188 238.183594 185.65625 283.765625 237.4375 331.230469 L 239.867188 331.230469 L 263.058594 298.058594 C 214.242188 268.390625 187.003906 236.835938 187.003906 209.324219 C 187.003906 185.320312 209.386719 164.824219 269.535156 164.824219 C 284.097656 164.824219 298.121094 164.824219 311.339844 165.632812 L 310.257812 323.410156 L 340.464844 331.5 L 343.164062 328.535156 L 342.085938 81.484375 L 390.902344 81.484375 L 393.058594 78.515625 L 380.113281 52.355469 L 126.859375 52.355469 L 124.699219 55.320312 Z M 732.484375 279.925781 C 732.484375 298.15625 741.875 314.175781 755.683594 325.773438 C 762.863281 331.847656 770.042969 335.164062 777.222656 335.164062 C 786.613281 335.164062 798.765625 329.640625 809.816406 322.457031 L 809.816406 320.25 L 793.796875 293.738281 C 781.089844 302.574219 773.359375 306.992188 769.492188 306.992188 C 767.28125 306.992188 765.625 305.335938 765.625 300.917969 L 765.625 75 L 735.246094 67.269531 L 732.484375 70.03125 L 732.484375 136.867188 C 707.628906 135.761719 688.292969 135.207031 680.007812 135.207031 C 610.964844 135.207031 582.792969 156.75 582.792969 198.179688 C 582.792969 247.339844 615.933594 284.898438 661.78125 330.746094 L 663.992188 330.746094 L 678.351562 316.382812 C 637.476562 278.824219 615.382812 241.816406 615.382812 214.75 C 615.382812 186.578125 640.238281 165.035156 689.953125 165.035156 C 709.285156 165.035156 721.988281 165.035156 732.484375 165.589844 Z M 732.484375 279.925781 " style=" stroke:none;fill-rule:nonzero;fill:rgb(12.89978%,12.89978%,12.89978%);fill-opacity:1;"/>
<path d="M -0.000925 -0.00000625 L 237.299856 -0.00000625 " style="fill:none;stroke-width:2.552;stroke-linecap:butt;stroke-linejoin:miter;stroke:rgb(86.999512%,28.999329%,14.99939%);stroke-opacity:1;stroke-miterlimit:10;" transform="matrix(1,0,0,-1,134.6728,68.1914)"/>
<path d="M 379.707031 68.191406 L 367.191406 63.636719 L 367.191406 72.746094 Z M 379.707031 68.191406 " style=" stroke:none;fill-rule:nonzero;fill:rgb(86.999512%,28.999329%,14.99939%);fill-opacity:1;"/>
<path d="M 0.00133125 0.00001875 L 0.00133125 -229.640606 " style="fill:none;stroke-width:2.552;stroke-linecap:butt;stroke-linejoin:miter;stroke:rgb(86.999512%,28.999329%,14.99939%);stroke-opacity:1;stroke-miterlimit:10;" transform="matrix(1,0,0,-1,326.9557,77.5508)"/>
<path d="M 326.957031 314.925781 L 331.507812 302.410156 L 322.402344 302.410156 Z M 326.957031 314.925781 " style=" stroke:none;fill-rule:nonzero;fill:rgb(86.999512%,28.999329%,14.99939%);fill-opacity:1;"/>
<path d="M 0.00081875 -0.00001875 L 0.00081875 -213.265644 C 0.00081875 -233.203144 9.821131 -250.218769 22.58285 -250.218769 C 33.430506 -250.218769 40.539881 -243.585956 40.539881 -243.585956 " style="fill:none;stroke-width:2.552;stroke-linecap:butt;stroke-linejoin:miter;stroke:rgb(86.999512%,28.999329%,14.99939%);stroke-opacity:1;stroke-miterlimit:10;" transform="matrix(1,0,0,-1,743.5734,71.5117)"/>
<path d="M 789.765625 309.820312 L 777.507812 315.03125 L 783.722656 321.6875 Z M 789.765625 309.820312 " style=" stroke:none;fill-rule:nonzero;fill:rgb(86.999512%,28.999329%,14.99939%);fill-opacity:1;"/>
<path d="M -0.000575 0.00003125 C -0.000575 0.00003125 -137.832606 17.019562 -137.832606 -45.589813 C -137.832606 -110.832 -79.48495 -152.082 -79.48495 -152.082 " style="fill:none;stroke-width:2.552;stroke-linecap:butt;stroke-linejoin:miter;stroke:rgb(86.999512%,28.999329%,14.99939%);stroke-opacity:1;stroke-miterlimit:10;" transform="matrix(1,0,0,-1,311.6412,148.168)"/>
<path d="M 238.472656 304.714844 L 230.882812 293.773438 L 225.625 301.210938 Z M 238.472656 304.714844 " style=" stroke:none;fill-rule:nonzero;fill:rgb(86.999512%,28.999329%,14.99939%);fill-opacity:1;"/>
<path d="M 0.00045 -0.00000625 C 0.00045 -0.00000625 -137.370644 12.4414 -137.370644 -47.859381 C -137.370644 -110.5586 -79.335488 -159.343756 -79.335488 -159.343756 " style="fill:none;stroke-width:2.552;stroke-linecap:butt;stroke-linejoin:miter;stroke:rgb(86.999512%,28.999329%,14.99939%);stroke-opacity:1;stroke-miterlimit:10;" transform="matrix(1,0,0,-1,735.5933,149.4414)"/>
<path d="M 662.175781 313.757812 L 655.527344 302.21875 L 649.664062 309.191406 Z M 662.175781 313.757812 " style=" stroke:none;fill-rule:nonzero;fill:rgb(86.999512%,28.999329%,14.99939%);fill-opacity:1;"/>
<path d="M 178.667969 235.800781 C 182.460938 235.800781 185.535156 232.722656 185.535156 228.929688 C 185.535156 225.136719 182.460938 222.058594 178.667969 222.058594 C 174.875 222.058594 171.796875 225.136719 171.796875 228.929688 C 171.796875 232.722656 174.875 235.800781 178.667969 235.800781 " style=" stroke:none;fill-rule:nonzero;fill:rgb(12.89978%,12.89978%,12.89978%);fill-opacity:1;"/>
<path d="M 0.00086875 0.00001875 C 3.793837 0.00001875 6.868056 3.078144 6.868056 6.871113 C 6.868056 10.664081 3.793837 13.742206 0.00086875 13.742206 C -3.7921 13.742206 -6.870225 10.664081 -6.870225 6.871113 C -6.870225 3.078144 -3.7921 0.00001875 0.00086875 0.00001875 Z M 0.00086875 0.00001875 " style="fill:none;stroke-width:2.552;stroke-linecap:butt;stroke-linejoin:miter;stroke:rgb(86.999512%,28.999329%,14.99939%);stroke-opacity:1;stroke-miterlimit:10;" transform="matrix(1,0,0,-1,178.6671,235.8008)"/>
</g>
</svg>