<?xml version="1.0" encoding="UTF-8"?><svg enable-background="new 0 0 940 450" height="450px" version="1.1" viewBox="0 0 940 450" width="940px" x="0px" xml:space="preserve" xmlns="http://www.w3.org/2000/svg" xmlns:xlink="http://www.w3.org/1999/xlink" y="0px">
<g id="surface1">
<rect height="450" style="fill:rgb(92.89856%,94.099426%,94.898987%);fill-opacity:1;stroke:none;" width="940" x="0" y="0"/>
<path d="M 246.761719 354.488281 C 243.5625 359.6875 239.363281 364.085938 234.960938 368.085938 L 234.5625 368.085938 C 233.960938 363.085938 233.5625 358.085938 233.5625 352.6875 L 233.5625 268.285156 C 227.160156 264.285156 219.5625 261.6875 211.960938 260.488281 L 209.960938 262.488281 C 210.5625 274.488281 210.761719 288.285156 210.761719 302.285156 L 210.761719 323.6875 C 204.160156 332.285156 195.5625 336.886719 186.363281 336.886719 C 181.363281 336.886719 177.363281 335.488281 175.761719 333.085938 C 174.160156 330.488281 172.363281 323.085938 172.363281 314.886719 L 172.363281 294.285156 C 172.363281 274.085938 166.960938 261.085938 154.160156 261.085938 C 147.363281 261.085938 132.5625 265.085938 128.5625 268.085938 C 126.761719 269.488281 126.363281 271.285156 126.363281 272.488281 C 126.363281 276.6875 129.5625 282.488281 134.761719 287.6875 L 137.363281 287.6875 C 140.363281 283.285156 144.363281 279.488281 148.761719 276.085938 L 149.160156 276.085938 C 149.363281 281.085938 149.5625 286.285156 149.5625 291.6875 L 149.5625 307.488281 C 149.5625 335.488281 170.5625 355.488281 191.5625 355.488281 C 198.363281 355.488281 204.761719 354.085938 210.761719 351.488281 C 210.960938 370.285156 216.363281 383.085938 228.5625 383.085938 C 236.363281 383.085938 249.960938 378.6875 255.5625 374.085938 C 257.363281 372.6875 257.960938 371.085938 257.960938 369.488281 C 257.960938 365.285156 254.761719 359.6875 249.363281 354.488281 Z M 246.761719 354.488281 " style=" stroke:none;fill-rule:nonzero;fill:rgb(12.89978%,12.89978%,12.89978%);fill-opacity:1;"/>
<path d="M 426.960938 354.488281 C 423.757812 359.6875 419.558594 364.085938 415.160156 368.085938 L 414.757812 368.085938 C 414.160156 363.085938 413.757812 358.085938 413.757812 352.6875 L 413.757812 268.285156 C 407.359375 264.285156 399.757812 261.6875 392.160156 260.488281 L 390.160156 262.488281 C 390.757812 273.886719 390.960938 286.886719 390.960938 300.085938 L 347.960938 308.085938 L 345.960938 310.488281 C 346.359375 316.6875 348.558594 322.886719 351.757812 328.6875 L 390.960938 320.6875 L 390.960938 350.085938 C 390.960938 369.6875 396.359375 383.085938 408.757812 383.085938 C 416.558594 383.085938 430.160156 378.6875 435.757812 374.085938 C 437.558594 372.6875 438.160156 371.085938 438.160156 369.488281 C 438.160156 365.285156 434.960938 359.6875 429.558594 354.488281 Z M 426.960938 354.488281 " style=" stroke:none;fill-rule:nonzero;fill:rgb(12.89978%,12.89978%,12.89978%);fill-opacity:1;"/>
<path d="M 374.359375 364.285156 C 376.757812 359.285156 376.960938 354.488281 375.160156 349.488281 C 342.558594 348.488281 329.960938 331.6875 329.960938 314.285156 C 329.960938 297.6875 341.757812 285.285156 364.160156 279.6875 L 366.160156 277.488281 C 364.359375 270.488281 361.160156 264.886719 356.558594 260.285156 C 322.757812 267.085938 308.359375 285.6875 308.359375 310.6875 C 308.359375 341.488281 331.960938 363.488281 374.359375 364.285156 " style=" stroke:none;fill-rule:nonzero;fill:rgb(12.89978%,12.89978%,12.89978%);fill-opacity:1;"/>
<path d="M 251.0625 61.03125 C 249.664062 55.632812 247.265625 50.433594 244.664062 46.433594 L 117.664062 46.433594 L 115.863281 48.234375 C 117.265625 53.832031 119.464844 59.03125 122.265625 63.03125 L 140.664062 63.03125 L 140.664062 99.832031 C 140.664062 122.03125 158.464844 143.832031 185.464844 143.832031 C 191.265625 143.832031 197.265625 142.632812 202.664062 140.03125 L 203.464844 140.632812 L 203.464844 166.433594 C 209.464844 169.632812 218.265625 171.632812 225.265625 172.433594 L 227.265625 170.832031 C 226.265625 158.832031 226.0625 144.632812 226.0625 130.632812 L 226.0625 63.03125 L 249.265625 63.03125 Z M 203.464844 112.832031 C 198.664062 121.234375 190.0625 125.234375 180.464844 125.234375 C 174.265625 125.234375 168.664062 123.433594 166.863281 121.03125 C 164.664062 118.03125 163.464844 110.433594 163.464844 103.234375 L 163.464844 63.03125 L 203.464844 63.03125 Z M 203.464844 112.832031 " style=" stroke:none;fill-rule:nonzero;fill:rgb(12.89978%,12.89978%,12.89978%);fill-opacity:1;"/>
<path d="M 289.660156 46.433594 L 287.859375 48.234375 C 289.257812 53.832031 291.460938 59.03125 294.257812 63.03125 L 393.859375 63.03125 L 393.859375 89.832031 L 393.460938 89.832031 C 390.660156 88.433594 386.660156 87.03125 381.859375 87.03125 C 372.660156 87.03125 364.058594 91.03125 358.257812 97.433594 C 351.058594 89.632812 343.058594 85.03125 331.859375 85.03125 C 312.257812 85.03125 301.257812 99.234375 301.257812 114.234375 C 301.257812 132.832031 316.859375 154.03125 345.460938 173.03125 C 350.257812 170.234375 353.859375 165.832031 355.460938 161.832031 C 332.460938 144.234375 325.257812 128.433594 325.257812 118.832031 C 325.257812 109.632812 331.859375 104.832031 338.859375 104.832031 C 343.058594 104.832031 347.660156 106.832031 351.257812 111.234375 C 350.859375 113.234375 350.660156 115.433594 350.660156 117.632812 C 350.660156 121.234375 351.058594 125.832031 352.058594 129.832031 C 357.859375 134.03125 363.859375 136.433594 371.660156 137.832031 L 373.859375 136.234375 C 372.859375 132.234375 372.257812 128.234375 372.257812 124.632812 C 372.257812 113.234375 378.058594 104.832031 389.257812 104.832031 C 390.859375 104.832031 392.257812 105.03125 393.859375 105.433594 L 393.859375 166.433594 C 400.058594 169.632812 408.859375 171.632812 415.660156 172.433594 L 417.660156 170.832031 C 416.660156 158.832031 416.460938 144.632812 416.460938 130.632812 L 416.460938 63.03125 L 439.859375 63.03125 L 441.460938 61.03125 C 440.257812 55.632812 437.859375 50.433594 435.058594 46.433594 Z M 289.660156 46.433594 " style=" stroke:none;fill-rule:nonzero;fill:rgb(12.89978%,12.89978%,12.89978%);fill-opacity:1;"/>
<path d="M 615.265625 354.488281 C 612.066406 359.6875 607.867188 364.085938 603.464844 368.085938 L 603.066406 368.085938 C 602.464844 363.085938 602.066406 358.085938 602.066406 352.6875 L 602.066406 268.285156 C 595.664062 264.285156 588.066406 261.6875 580.464844 260.488281 L 578.464844 262.488281 C 579.066406 274.488281 579.265625 288.285156 579.265625 302.285156 L 579.265625 323.6875 C 572.664062 332.285156 564.066406 336.886719 554.867188 336.886719 C 549.867188 336.886719 545.867188 335.488281 544.265625 333.085938 C 542.664062 330.488281 540.867188 323.085938 540.867188 314.886719 L 540.867188 294.285156 C 540.867188 274.085938 535.464844 261.085938 522.664062 261.085938 C 515.867188 261.085938 501.066406 265.085938 497.066406 268.085938 C 495.265625 269.488281 494.867188 271.285156 494.867188 272.488281 C 494.867188 276.6875 498.066406 282.488281 503.265625 287.6875 L 505.867188 287.6875 C 508.867188 283.285156 512.867188 279.488281 517.265625 276.085938 L 517.664062 276.085938 C 517.867188 281.085938 518.066406 286.285156 518.066406 291.6875 L 518.066406 307.488281 C 518.066406 335.488281 539.066406 355.488281 560.066406 355.488281 C 566.867188 355.488281 573.265625 354.085938 579.265625 351.488281 C 579.464844 370.285156 584.867188 383.085938 597.066406 383.085938 C 604.867188 383.085938 618.464844 378.6875 624.066406 374.085938 C 625.867188 372.6875 626.464844 371.085938 626.464844 369.488281 C 626.464844 365.285156 623.265625 359.6875 617.867188 354.488281 Z M 615.265625 354.488281 " style=" stroke:none;fill-rule:nonzero;fill:rgb(12.89978%,12.89978%,12.89978%);fill-opacity:1;"/>
<path d="M 795.464844 354.488281 C 792.261719 359.6875 788.0625 364.085938 783.664062 368.085938 L 783.261719 368.085938 C 782.664062 363.085938 782.261719 358.085938 782.261719 352.6875 L 782.261719 268.285156 C 775.863281 264.285156 768.261719 261.6875 760.664062 260.488281 L 758.664062 262.488281 C 759.261719 273.886719 759.464844 286.886719 759.464844 300.085938 L 716.464844 308.085938 L 714.464844 310.488281 C 714.863281 316.6875 717.0625 322.886719 720.261719 328.6875 L 759.464844 320.6875 L 759.464844 350.085938 C 759.464844 369.6875 764.863281 383.085938 777.261719 383.085938 C 785.0625 383.085938 798.664062 378.6875 804.261719 374.085938 C 806.0625 372.6875 806.664062 371.085938 806.664062 369.488281 C 806.664062 365.285156 803.464844 359.6875 798.0625 354.488281 Z M 795.464844 354.488281 " style=" stroke:none;fill-rule:nonzero;fill:rgb(12.89978%,12.89978%,12.89978%);fill-opacity:1;"/>
<path d="M 742.863281 364.285156 C 745.261719 359.285156 745.464844 354.488281 743.664062 349.488281 C 711.0625 348.488281 698.464844 331.6875 698.464844 314.285156 C 698.464844 297.6875 710.261719 285.285156 732.664062 279.6875 L 734.664062 277.488281 C 732.863281 270.488281 729.664062 264.886719 725.0625 260.285156 C 691.261719 267.085938 676.863281 285.6875 676.863281 310.6875 C 676.863281 341.488281 700.464844 363.488281 742.863281 364.285156 " style=" stroke:none;fill-rule:nonzero;fill:rgb(12.89978%,12.89978%,12.89978%);fill-opacity:1;"/>
<path d="M 742.679688 393.285156 C 742.679688 407.285156 756.28125 423.6875 778.480469 423.6875 C 787.28125 423.6875 798.480469 421.085938 808.082031 413.085938 C 806.679688 406.6875 803.082031 400.488281 798.882812 396.6875 L 796.679688 396.6875 C 789.679688 402.6875 780.480469 407.085938 772.082031 407.085938 C 764.480469 407.085938 761.28125 403.886719 761.28125 398.488281 C 761.28125 391.488281 769.679688 385.085938 783.480469 382.488281 C 783.480469 377.085938 782.480469 372.6875 779.679688 367.488281 C 754.679688 369.285156 742.679688 380.488281 742.679688 393.285156 " style=" stroke:none;fill-rule:nonzero;fill:rgb(12.89978%,12.89978%,12.89978%);fill-opacity:1;"/>
<path d="M 562.308594 393.285156 C 562.308594 407.285156 575.90625 423.6875 598.109375 423.6875 C 606.90625 423.6875 618.109375 421.085938 627.707031 413.085938 C 626.308594 406.6875 622.707031 400.488281 618.507812 396.6875 L 616.308594 396.6875 C 609.308594 402.6875 600.109375 407.085938 591.707031 407.085938 C 584.109375 407.085938 580.90625 403.886719 580.90625 398.488281 C 580.90625 391.488281 589.308594 385.085938 603.109375 382.488281 C 603.109375 377.085938 602.109375 372.6875 599.308594 367.488281 C 574.308594 369.285156 562.308594 380.488281 562.308594 393.285156 " style=" stroke:none;fill-rule:nonzero;fill:rgb(12.89978%,12.89978%,12.89978%);fill-opacity:1;"/>
<path d="M 615.316406 61.03125 C 613.914062 55.632812 611.515625 50.433594 608.914062 46.433594 L 481.914062 46.433594 L 480.117188 48.234375 C 481.515625 53.832031 483.714844 59.03125 486.515625 63.03125 L 504.914062 63.03125 L 504.914062 99.832031 C 504.914062 122.03125 522.714844 143.832031 549.714844 143.832031 C 555.515625 143.832031 561.515625 142.632812 566.914062 140.03125 L 567.714844 140.632812 L 567.714844 166.433594 C 573.714844 169.632812 582.515625 171.632812 589.515625 172.433594 L 591.515625 170.832031 C 590.515625 158.832031 590.316406 144.632812 590.316406 130.632812 L 590.316406 63.03125 L 613.515625 63.03125 Z M 567.714844 112.832031 C 562.914062 121.234375 554.316406 125.234375 544.714844 125.234375 C 538.515625 125.234375 532.914062 123.433594 531.117188 121.03125 C 528.914062 118.03125 527.714844 110.433594 527.714844 103.234375 L 527.714844 63.03125 L 567.714844 63.03125 Z M 567.714844 112.832031 " style=" stroke:none;fill-rule:nonzero;fill:rgb(12.89978%,12.89978%,12.89978%);fill-opacity:1;"/>
<path d="M 590.113281 187.832031 C 583.113281 193.832031 573.714844 197.234375 565.113281 197.234375 C 558.113281 197.234375 554.3125 194.832031 554.3125 190.03125 C 554.3125 180.234375 570.3125 174.433594 589.515625 172.433594 L 589.515625 168.632812 L 576.3125 156.832031 C 551.714844 159.433594 536.714844 169.632812 536.714844 184.433594 C 536.714844 198.234375 549.3125 214.632812 571.3125 214.632812 C 580.113281 214.632812 590.714844 212.03125 600.914062 204.03125 C 599.3125 198.234375 595.3125 191.632812 592.113281 187.832031 Z M 590.113281 187.832031 " style=" stroke:none;fill-rule:nonzero;fill:rgb(12.89978%,12.89978%,12.89978%);fill-opacity:1;"/>
<path d="M 653.910156 46.433594 L 652.109375 48.234375 C 653.511719 53.832031 655.710938 59.03125 658.511719 63.03125 L 758.109375 63.03125 L 758.109375 89.832031 L 757.710938 89.832031 C 754.910156 88.433594 750.910156 87.03125 746.109375 87.03125 C 736.910156 87.03125 728.3125 91.03125 722.511719 97.433594 C 715.3125 89.632812 707.3125 85.03125 696.109375 85.03125 C 676.511719 85.03125 665.511719 99.234375 665.511719 114.234375 C 665.511719 132.832031 681.109375 154.03125 709.710938 173.03125 C 714.511719 170.234375 718.109375 165.832031 719.710938 161.832031 C 696.710938 144.234375 689.511719 128.433594 689.511719 118.832031 C 689.511719 109.632812 696.109375 104.832031 703.109375 104.832031 C 707.3125 104.832031 711.910156 106.832031 715.511719 111.234375 C 715.109375 113.234375 714.910156 115.433594 714.910156 117.632812 C 714.910156 121.234375 715.3125 125.832031 716.3125 129.832031 C 722.109375 134.03125 728.109375 136.433594 735.910156 137.832031 L 738.109375 136.234375 C 737.109375 132.234375 736.511719 128.234375 736.511719 124.632812 C 736.511719 113.234375 742.3125 104.832031 753.511719 104.832031 C 755.109375 104.832031 756.511719 105.03125 758.109375 105.433594 L 758.109375 166.433594 C 764.3125 169.632812 773.109375 171.632812 779.910156 172.433594 L 781.910156 170.832031 C 780.910156 158.832031 780.710938 144.632812 780.710938 130.632812 L 780.710938 63.03125 L 804.109375 63.03125 L 805.710938 61.03125 C 804.511719 55.632812 802.109375 50.433594 799.3125 46.433594 Z M 653.910156 46.433594 " style=" stroke:none;fill-rule:nonzero;fill:rgb(12.89978%,12.89978%,12.89978%);fill-opacity:1;"/>
<path d="M 780.707031 187.832031 C 773.707031 193.832031 764.308594 197.234375 755.707031 197.234375 C 748.707031 197.234375 744.910156 194.832031 744.910156 190.03125 C 744.910156 180.234375 760.910156 174.433594 780.109375 172.433594 L 780.109375 168.632812 L 766.910156 156.832031 C 742.308594 159.433594 727.308594 169.632812 727.308594 184.433594 C 727.308594 198.234375 739.910156 214.632812 761.910156 214.632812 C 770.707031 214.632812 781.308594 212.03125 791.507812 204.03125 C 789.910156 198.234375 785.910156 191.632812 782.707031 187.832031 Z M 780.707031 187.832031 " style=" stroke:none;fill-rule:nonzero;fill:rgb(12.89978%,12.89978%,12.89978%);fill-opacity:1;"/>
</g>
</svg>