<?xml version="1.0" encoding="UTF-8"?><svg enable-background="new 0 0 940 400" height="400px" version="1.1" viewBox="0 0 940 400" width="940px" x="0px" xml:space="preserve" xmlns="http://www.w3.org/2000/svg" xmlns:xlink="http://www.w3.org/1999/xlink" y="0px">
<g id="surface1">
<rect height="400" style="fill:rgb(92.89856%,94.099426%,94.898987%);fill-opacity:1;stroke:none;" width="940" x="0" y="0"/>
<path d="M 73.773438 251.054688 L 72.546875 252.28125 C 73.503906 256.09375 75 259.636719 76.90625 262.363281 L 127.164062 262.363281 L 127.164062 285.242188 C 114.632812 284.289062 100.0625 283.746094 88.347656 283.746094 C 81.8125 283.746094 78.542969 287.285156 78.542969 291.507812 C 78.542969 301.042969 90.527344 313.027344 98.15625 313.027344 C 102.375 313.027344 105.371094 309.621094 105.371094 303.359375 L 105.371094 296.683594 L 127.164062 296.683594 L 127.164062 332.777344 C 131.25 334.957031 137.242188 336.316406 142.011719 336.863281 L 143.371094 335.773438 C 142.691406 327.601562 142.554688 317.929688 142.554688 308.398438 L 142.554688 262.363281 L 158.355469 262.363281 L 159.582031 261 C 158.628906 257.320312 157.128906 253.78125 155.222656 251.054688 Z M 110.171875 217.65625 C 114.121094 233.863281 124.066406 241.628906 136.050781 241.628906 C 151.578125 241.628906 157.296875 228.691406 157.296875 217.929688 C 155.527344 216.839844 150.078125 216.023438 146.808594 216.023438 L 145.582031 216.976562 C 145.175781 224.738281 140.953125 230.1875 133.734375 230.1875 C 127.46875 230.1875 122.023438 226.101562 118.34375 215.070312 C 115.757812 215.339844 112.757812 216.023438 110.171875 217.65625 M 133.324219 222.425781 C 138.367188 222.425781 140.953125 218.472656 140.953125 214.660156 C 140.953125 208.941406 136.730469 205.398438 132.917969 205.398438 C 127.742188 205.398438 125.152344 209.484375 125.152344 213.570312 C 125.152344 218.882812 129.511719 222.425781 133.324219 222.425781 M 185.863281 251.054688 L 184.636719 252.28125 C 185.59375 256.09375 187.089844 259.636719 188.996094 262.363281 L 206.292969 262.363281 L 207.792969 292.597656 L 203.296875 292.597656 C 196.898438 292.597656 193.628906 296.136719 193.628906 300.359375 C 193.628906 308.941406 206.429688 321.746094 215.011719 321.746094 C 219.234375 321.746094 222.636719 318.746094 222.636719 307.445312 L 222.636719 305.808594 L 248.378906 305.808594 L 248.378906 332.777344 C 252.464844 334.957031 258.460938 336.316406 263.226562 336.863281 L 264.589844 335.773438 C 263.90625 327.601562 263.773438 317.929688 263.773438 308.398438 L 263.773438 262.363281 L 279.570312 262.363281 L 280.796875 261 C 279.84375 257.320312 278.207031 253.78125 276.4375 251.054688 Z M 222.09375 292.871094 C 221.957031 284.152344 221.277344 272.578125 220.730469 262.363281 L 248.378906 262.363281 L 248.378906 294.09375 C 240.34375 293.550781 231.082031 293.140625 222.09375 292.871094 M 231.082031 217.65625 C 235.03125 233.863281 244.976562 241.628906 256.960938 241.628906 C 272.488281 241.628906 278.207031 228.691406 278.207031 217.929688 C 276.4375 216.839844 270.988281 216.023438 267.71875 216.023438 L 266.496094 216.976562 C 266.085938 224.738281 261.863281 230.1875 254.644531 230.1875 C 248.378906 230.1875 242.933594 226.101562 239.253906 215.070312 C 236.667969 215.339844 233.671875 216.023438 231.082031 217.65625 M 254.238281 222.425781 C 259.277344 222.425781 261.863281 218.472656 261.863281 214.660156 C 261.863281 208.941406 257.640625 205.398438 253.828125 205.398438 C 248.652344 205.398438 246.066406 209.484375 246.066406 213.570312 C 246.066406 218.882812 250.421875 222.425781 254.238281 222.425781 M 307.082031 251.054688 L 305.855469 252.28125 C 306.808594 256.09375 308.304688 259.636719 310.214844 262.363281 L 330.097656 262.363281 C 333.503906 265.628906 335 269.445312 335 272.847656 C 335 280.066406 328.601562 282.925781 316.75 285.789062 C 315.386719 288.101562 315.117188 290.28125 315.253906 292.734375 C 322.609375 311.257812 335.546875 321.746094 350.9375 321.746094 C 356.113281 321.746094 361.425781 320.519531 365.511719 318.066406 L 366.054688 318.476562 L 366.054688 332.777344 C 370.140625 334.957031 376.132812 336.316406 380.765625 336.863281 L 382.261719 335.773438 C 381.582031 327.601562 381.445312 317.929688 381.445312 308.398438 L 381.445312 262.363281 L 397.246094 262.363281 L 398.335938 261 C 397.519531 257.320312 395.882812 253.78125 394.113281 251.054688 Z M 349.4375 278.839844 C 349.4375 272.984375 346.304688 267.535156 342.902344 262.769531 L 342.902344 262.363281 L 366.054688 262.363281 L 366.054688 299.953125 C 360.878906 306.21875 353.523438 308.941406 347.941406 308.941406 C 338.542969 308.941406 332.6875 304.039062 330.507812 296.546875 C 345.082031 292.324219 349.4375 286.058594 349.4375 278.839844 M 348.265625 217.65625 C 352.214844 233.863281 362.15625 241.628906 374.144531 241.628906 C 389.667969 241.628906 395.390625 228.691406 395.390625 217.929688 C 393.621094 216.839844 388.171875 216.023438 384.902344 216.023438 L 383.675781 216.976562 C 383.269531 224.738281 379.046875 230.1875 371.828125 230.1875 C 365.5625 230.1875 360.113281 226.101562 356.4375 215.070312 C 353.847656 215.339844 350.851562 216.023438 348.265625 217.65625 M 371.417969 222.425781 C 376.457031 222.425781 379.046875 218.472656 379.046875 214.660156 C 379.046875 208.941406 374.824219 205.398438 371.007812 205.398438 C 365.835938 205.398438 363.246094 209.484375 363.246094 213.570312 C 363.246094 218.882812 367.605469 222.425781 371.417969 222.425781 M 424.753906 251.054688 L 423.53125 252.28125 C 424.484375 256.09375 425.980469 259.636719 427.886719 262.363281 L 472.96875 262.363281 L 472.96875 279.523438 L 472.5625 279.660156 C 466.976562 275.707031 461.121094 273.800781 454.855469 273.800781 C 442.734375 273.800781 430.746094 281.429688 430.746094 295.59375 C 430.746094 311.394531 445.457031 321.609375 457.988281 321.609375 C 462.617188 321.609375 468.339844 320.109375 472.5625 317.113281 L 472.96875 317.386719 L 472.96875 332.777344 C 477.191406 334.957031 483.046875 336.316406 487.816406 336.863281 L 489.175781 335.773438 C 488.496094 327.601562 488.359375 318.339844 488.359375 308.804688 L 488.359375 306.898438 C 496.667969 299 503.34375 294.503906 509.199219 294.503906 C 513.011719 294.503906 514.917969 296.820312 514.917969 300.359375 C 514.917969 306.761719 508.65625 315.207031 498.984375 321.0625 C 500.753906 325.832031 503.75 330.050781 508.246094 332.640625 C 521.59375 325.011719 528.128906 314.660156 528.128906 304.175781 C 528.128906 291.507812 518.734375 281.429688 505.25 281.429688 C 499.527344 281.429688 494.355469 283.472656 488.90625 287.285156 L 488.359375 287.011719 L 488.359375 262.363281 L 535.484375 262.363281 L 536.710938 261 C 535.757812 257.320312 534.125 253.78125 532.355469 251.054688 Z M 452.8125 309.757812 C 450.632812 309.757812 448.863281 309.351562 447.773438 308.261719 C 446.273438 307.035156 445.457031 304.582031 445.457031 301.316406 C 445.457031 291.917969 452.539062 286.332031 460.710938 286.332031 C 464.660156 286.332031 468.203125 287.832031 472.96875 290.144531 L 472.96875 298.316406 C 466.976562 304.992188 458.125 309.757812 452.8125 309.757812 M 454.992188 217.65625 C 458.941406 233.863281 468.882812 241.628906 480.867188 241.628906 C 496.394531 241.628906 502.117188 228.691406 502.117188 217.929688 C 500.34375 216.839844 494.898438 216.023438 491.628906 216.023438 L 490.402344 216.976562 C 489.992188 224.738281 485.773438 230.1875 478.550781 230.1875 C 472.289062 230.1875 466.839844 226.101562 463.164062 215.070312 C 460.574219 215.339844 457.578125 216.023438 454.992188 217.65625 M 478.144531 222.425781 C 483.183594 222.425781 485.773438 218.472656 485.773438 214.660156 C 485.773438 208.941406 481.550781 205.398438 477.734375 205.398438 C 472.558594 205.398438 469.972656 209.484375 469.972656 213.570312 C 469.972656 218.882812 474.332031 222.425781 478.144531 222.425781 M 644.171875 280.75 C 638.316406 280.75 633.003906 282.792969 627.417969 286.605469 L 627.007812 286.46875 L 627.007812 262.363281 L 674.816406 262.363281 L 676.042969 261 C 675.222656 257.320312 673.589844 253.78125 671.683594 251.054688 L 557.546875 251.054688 L 556.324219 252.28125 C 557.277344 256.09375 558.773438 259.636719 560.679688 262.363281 L 572.9375 262.363281 L 572.9375 286.46875 C 572.9375 301.722656 585.0625 316.433594 602.902344 316.433594 C 605.355469 316.433594 608.488281 315.886719 611.210938 314.527344 L 611.621094 314.660156 L 611.621094 332.777344 C 615.707031 334.957031 621.699219 336.316406 626.464844 336.863281 L 627.828125 335.773438 C 627.148438 327.601562 627.007812 317.929688 627.007812 308.398438 L 627.007812 306.082031 C 635.453125 298.046875 642.265625 293.824219 648.121094 293.824219 C 652.070312 293.824219 653.976562 296.003906 653.976562 299.542969 C 653.976562 306.082031 647.710938 314.390625 638.042969 320.246094 C 639.8125 325.148438 642.808594 329.234375 647.304688 331.960938 C 660.515625 324.332031 667.1875 313.84375 667.1875 303.492188 C 667.1875 290.691406 657.792969 280.75 644.171875 280.75 M 598.40625 303.902344 C 595.140625 303.902344 591.871094 302.539062 590.917969 301.316406 C 589.28125 298.726562 588.464844 294.09375 588.464844 288.648438 L 588.464844 262.363281 L 611.621094 262.363281 L 611.621094 297.636719 C 608.078125 301.722656 603.582031 303.902344 598.40625 303.902344 M 664.75 217.65625 C 668.703125 233.863281 678.644531 241.628906 690.628906 241.628906 C 706.15625 241.628906 711.875 228.691406 711.875 217.929688 C 710.105469 216.839844 704.660156 216.023438 701.390625 216.023438 L 700.164062 216.976562 C 699.753906 224.738281 695.53125 230.1875 688.316406 230.1875 C 682.046875 230.1875 676.601562 226.101562 672.921875 215.070312 C 670.335938 215.339844 667.339844 216.023438 664.75 217.65625 M 687.90625 222.425781 C 692.945312 222.425781 695.53125 218.472656 695.53125 214.660156 C 695.53125 208.941406 691.3125 205.398438 687.496094 205.398438 C 682.320312 205.398438 679.734375 209.484375 679.734375 213.570312 C 679.734375 218.882812 684.089844 222.425781 687.90625 222.425781 M 663.511719 252.28125 C 664.464844 256.09375 665.960938 259.636719 667.871094 262.363281 L 680.945312 262.363281 L 680.945312 332.777344 C 685.167969 334.957031 691.023438 336.316406 695.789062 336.863281 L 697.152344 335.773438 C 696.472656 327.601562 696.335938 317.929688 696.335938 308.398438 L 696.335938 262.363281 L 712.132812 262.363281 L 713.359375 261 C 712.542969 257.320312 710.910156 253.78125 709 251.054688 L 664.738281 251.054688 Z M 734.195312 251.054688 L 732.96875 252.28125 C 733.921875 256.09375 735.421875 259.636719 737.328125 262.363281 L 749.859375 262.363281 L 749.859375 287.421875 C 749.859375 302.539062 761.980469 317.386719 780.367188 317.386719 C 784.316406 317.386719 788.402344 316.570312 792.078125 314.796875 L 792.625 315.207031 L 792.625 332.777344 C 796.710938 334.957031 802.703125 336.316406 807.46875 336.863281 L 808.832031 335.773438 C 808.152344 327.601562 808.015625 317.929688 808.015625 308.398438 L 808.015625 262.363281 L 823.816406 262.363281 L 825.039062 261 C 824.085938 257.320312 822.453125 253.78125 820.679688 251.054688 Z M 776.960938 304.71875 C 772.738281 304.71875 768.925781 303.492188 767.699219 301.859375 C 766.203125 299.816406 765.382812 294.640625 765.382812 289.738281 L 765.382812 262.363281 L 792.625 262.363281 L 792.625 296.273438 C 789.355469 301.996094 783.5 304.71875 776.960938 304.71875 M 817.261719 217.65625 C 821.210938 233.863281 831.15625 241.628906 843.140625 241.628906 C 858.667969 241.628906 864.386719 228.691406 864.386719 217.929688 C 862.617188 216.839844 857.167969 216.023438 853.902344 216.023438 L 852.675781 216.976562 C 852.265625 224.738281 848.042969 230.1875 840.824219 230.1875 C 834.5625 230.1875 829.113281 226.101562 825.433594 215.070312 C 822.847656 215.339844 819.851562 216.023438 817.261719 217.65625 M 840.417969 222.425781 C 845.457031 222.425781 848.042969 218.472656 848.042969 214.660156 C 848.042969 208.941406 843.820312 205.398438 840.007812 205.398438 C 834.832031 205.398438 832.246094 209.484375 832.246094 213.570312 C 832.246094 218.882812 836.605469 222.425781 840.417969 222.425781 M 816.324219 252.28125 C 817.277344 256.09375 818.773438 259.636719 820.679688 262.363281 L 833.753906 262.363281 L 833.753906 332.777344 C 837.976562 334.957031 843.835938 336.316406 848.601562 336.863281 L 849.964844 335.773438 C 849.28125 327.601562 849.148438 317.929688 849.148438 308.398438 L 849.148438 262.363281 L 864.945312 262.363281 L 866.171875 261 C 865.355469 257.320312 863.71875 253.78125 861.8125 251.054688 L 817.546875 251.054688 Z M 816.324219 252.28125 " style=" stroke:none;fill-rule:nonzero;fill:rgb(12.89978%,12.89978%,12.89978%);fill-opacity:1;"/>
<path d="M 73.773438 80.804688 L 72.546875 82.03125 C 73.503906 85.84375 75 89.386719 76.90625 92.113281 L 127.164062 92.113281 L 127.164062 114.992188 C 114.632812 114.039062 100.0625 113.496094 88.347656 113.496094 C 81.8125 113.496094 78.542969 117.035156 78.542969 121.257812 C 78.542969 130.792969 90.527344 142.777344 98.15625 142.777344 C 102.375 142.777344 105.371094 139.371094 105.371094 133.109375 L 105.371094 126.433594 L 127.164062 126.433594 L 127.164062 162.527344 C 131.25 164.707031 137.242188 166.066406 142.011719 166.613281 L 143.371094 165.523438 C 142.691406 157.351562 142.554688 147.679688 142.554688 138.148438 L 142.554688 92.113281 L 158.355469 92.113281 L 159.582031 90.75 C 158.628906 87.070312 157.128906 83.53125 155.222656 80.804688 Z M 135.171875 72.363281 C 140.621094 72.363281 143.480469 67.867188 143.480469 63.78125 C 143.480469 57.652344 138.851562 53.566406 134.765625 53.566406 C 129.179688 53.566406 126.183594 58.199219 126.183594 62.691406 C 126.183594 68.414062 130.953125 72.363281 135.171875 72.363281 M 185.863281 80.804688 L 184.636719 82.03125 C 185.59375 85.84375 187.089844 89.386719 188.996094 92.113281 L 206.292969 92.113281 L 207.792969 122.347656 L 203.296875 122.347656 C 196.898438 122.347656 193.628906 125.886719 193.628906 130.109375 C 193.628906 138.691406 206.429688 151.496094 215.011719 151.496094 C 219.234375 151.496094 222.636719 148.496094 222.636719 137.195312 L 222.636719 135.558594 L 248.378906 135.558594 L 248.378906 162.527344 C 252.464844 164.707031 258.460938 166.066406 263.226562 166.613281 L 264.589844 165.523438 C 263.90625 157.351562 263.773438 147.679688 263.773438 138.148438 L 263.773438 92.113281 L 279.570312 92.113281 L 280.796875 90.75 C 279.84375 87.070312 278.207031 83.53125 276.4375 80.804688 Z M 222.09375 122.621094 C 221.957031 113.902344 221.277344 102.328125 220.730469 92.113281 L 248.378906 92.113281 L 248.378906 123.84375 C 240.34375 123.300781 231.082031 122.890625 222.09375 122.621094 M 256.292969 72.363281 C 261.742188 72.363281 264.601562 67.867188 264.601562 63.78125 C 264.601562 57.652344 259.96875 53.566406 255.882812 53.566406 C 250.300781 53.566406 247.304688 58.199219 247.304688 62.691406 C 247.304688 68.414062 252.070312 72.363281 256.292969 72.363281 M 307.082031 80.804688 L 305.855469 82.03125 C 306.808594 85.84375 308.304688 89.386719 310.214844 92.113281 L 330.097656 92.113281 C 333.503906 95.378906 335 99.195312 335 102.597656 C 335 109.816406 328.601562 112.675781 316.75 115.539062 C 315.386719 117.851562 315.117188 120.03125 315.253906 122.484375 C 322.609375 141.007812 335.546875 151.496094 350.9375 151.496094 C 356.113281 151.496094 361.425781 150.269531 365.511719 147.816406 L 366.054688 148.226562 L 366.054688 162.527344 C 370.140625 164.707031 376.132812 166.066406 380.765625 166.613281 L 382.261719 165.523438 C 381.582031 157.351562 381.445312 147.679688 381.445312 138.148438 L 381.445312 92.113281 L 397.246094 92.113281 L 398.335938 90.75 C 397.519531 87.070312 395.882812 83.53125 394.113281 80.804688 Z M 349.4375 108.589844 C 349.4375 102.734375 346.304688 97.285156 342.902344 92.519531 L 342.902344 92.113281 L 366.054688 92.113281 L 366.054688 129.703125 C 360.878906 135.96875 353.523438 138.691406 347.941406 138.691406 C 338.542969 138.691406 332.6875 133.789062 330.507812 126.296875 C 345.082031 122.074219 349.4375 115.808594 349.4375 108.589844 M 374.265625 72.363281 C 379.714844 72.363281 382.574219 67.867188 382.574219 63.78125 C 382.574219 57.652344 377.945312 53.566406 373.859375 53.566406 C 368.273438 53.566406 365.277344 58.199219 365.277344 62.691406 C 365.277344 68.414062 370.042969 72.363281 374.265625 72.363281 M 424.753906 80.804688 L 423.53125 82.03125 C 424.484375 85.84375 425.980469 89.386719 427.886719 92.113281 L 472.96875 92.113281 L 472.96875 109.273438 L 472.5625 109.410156 C 466.976562 105.457031 461.121094 103.550781 454.855469 103.550781 C 442.734375 103.550781 430.746094 111.179688 430.746094 125.34375 C 430.746094 141.144531 445.457031 151.359375 457.988281 151.359375 C 462.617188 151.359375 468.339844 149.859375 472.5625 146.863281 L 472.96875 147.136719 L 472.96875 162.527344 C 477.191406 164.707031 483.046875 166.066406 487.816406 166.613281 L 489.175781 165.523438 C 488.496094 157.351562 488.359375 148.089844 488.359375 138.554688 L 488.359375 136.648438 C 496.667969 128.75 503.34375 124.253906 509.199219 124.253906 C 513.011719 124.253906 514.917969 126.570312 514.917969 130.109375 C 514.917969 136.511719 508.65625 144.957031 498.984375 150.8125 C 500.753906 155.582031 503.75 159.800781 508.246094 162.390625 C 521.59375 154.761719 528.128906 144.410156 528.128906 133.925781 C 528.128906 121.257812 518.734375 111.179688 505.25 111.179688 C 499.527344 111.179688 494.355469 113.222656 488.90625 117.035156 L 488.359375 116.761719 L 488.359375 92.113281 L 535.484375 92.113281 L 536.710938 90.75 C 535.757812 87.070312 534.125 83.53125 532.355469 80.804688 Z M 452.8125 139.507812 C 450.632812 139.507812 448.863281 139.101562 447.773438 138.011719 C 446.273438 136.785156 445.457031 134.332031 445.457031 131.066406 C 445.457031 121.667969 452.539062 116.082031 460.710938 116.082031 C 464.660156 116.082031 468.203125 117.582031 472.96875 119.894531 L 472.96875 128.066406 C 466.976562 134.742188 458.125 139.507812 452.8125 139.507812 M 480.1875 72.363281 C 485.632812 72.363281 488.492188 67.867188 488.492188 63.78125 C 488.492188 57.652344 483.863281 53.566406 479.777344 53.566406 C 474.191406 53.566406 471.195312 58.199219 471.195312 62.691406 C 471.195312 68.414062 475.960938 72.363281 480.1875 72.363281 M 644.171875 110.5 C 638.316406 110.5 633.003906 112.542969 627.417969 116.355469 L 627.007812 116.21875 L 627.007812 92.113281 L 674.816406 92.113281 L 676.042969 90.75 C 675.222656 87.070312 673.589844 83.53125 671.683594 80.804688 L 557.546875 80.804688 L 556.324219 82.03125 C 557.277344 85.84375 558.773438 89.386719 560.679688 92.113281 L 572.9375 92.113281 L 572.9375 116.21875 C 572.9375 131.472656 585.0625 146.183594 602.902344 146.183594 C 605.355469 146.183594 608.488281 145.636719 611.210938 144.277344 L 611.621094 144.410156 L 611.621094 162.527344 C 615.707031 164.707031 621.699219 166.066406 626.464844 166.613281 L 627.828125 165.523438 C 627.148438 157.351562 627.007812 147.679688 627.007812 138.148438 L 627.007812 135.832031 C 635.453125 127.796875 642.265625 123.574219 648.121094 123.574219 C 652.070312 123.574219 653.976562 125.753906 653.976562 129.292969 C 653.976562 135.832031 647.710938 144.140625 638.042969 149.996094 C 639.8125 154.898438 642.808594 158.984375 647.304688 161.710938 C 660.515625 154.082031 667.1875 143.59375 667.1875 133.242188 C 667.1875 120.441406 657.792969 110.5 644.171875 110.5 M 598.40625 133.652344 C 595.140625 133.652344 591.871094 132.289062 590.917969 131.066406 C 589.28125 128.476562 588.464844 123.84375 588.464844 118.398438 L 588.464844 92.113281 L 611.621094 92.113281 L 611.621094 127.386719 C 608.078125 131.472656 603.582031 133.652344 598.40625 133.652344 M 690.183594 72.363281 C 695.628906 72.363281 698.492188 67.867188 698.492188 63.78125 C 698.492188 57.652344 693.859375 53.566406 689.773438 53.566406 C 684.191406 53.566406 681.195312 58.199219 681.195312 62.691406 C 681.195312 68.414062 685.960938 72.363281 690.183594 72.363281 M 663.511719 82.03125 C 664.464844 85.84375 665.960938 89.386719 667.871094 92.113281 L 680.945312 92.113281 L 680.945312 162.527344 C 685.167969 164.707031 691.023438 166.066406 695.789062 166.613281 L 697.152344 165.523438 C 696.472656 157.351562 696.335938 147.679688 696.335938 138.148438 L 696.335938 92.113281 L 712.132812 92.113281 L 713.359375 90.75 C 712.542969 87.070312 710.910156 83.53125 709 80.804688 L 664.738281 80.804688 Z M 734.195312 80.804688 L 732.96875 82.03125 C 733.921875 85.84375 735.421875 89.386719 737.328125 92.113281 L 749.859375 92.113281 L 749.859375 117.171875 C 749.859375 132.289062 761.980469 147.136719 780.367188 147.136719 C 784.316406 147.136719 788.402344 146.320312 792.078125 144.546875 L 792.625 144.957031 L 792.625 162.527344 C 796.710938 164.707031 802.703125 166.066406 807.46875 166.613281 L 808.832031 165.523438 C 808.152344 157.351562 808.015625 147.679688 808.015625 138.148438 L 808.015625 92.113281 L 823.816406 92.113281 L 825.039062 90.75 C 824.085938 87.070312 822.453125 83.53125 820.679688 80.804688 Z M 776.960938 134.46875 C 772.738281 134.46875 768.925781 133.242188 767.699219 131.609375 C 766.203125 129.566406 765.382812 124.390625 765.382812 119.488281 L 765.382812 92.113281 L 792.625 92.113281 L 792.625 126.023438 C 789.355469 131.746094 783.5 134.46875 776.960938 134.46875 M 842.695312 72.363281 C 848.140625 72.363281 851 67.867188 851 63.78125 C 851 57.652344 846.371094 53.566406 842.285156 53.566406 C 836.699219 53.566406 833.703125 58.199219 833.703125 62.691406 C 833.703125 68.414062 838.472656 72.363281 842.695312 72.363281 M 816.324219 82.03125 C 817.277344 85.84375 818.773438 89.386719 820.679688 92.113281 L 833.753906 92.113281 L 833.753906 162.527344 C 837.976562 164.707031 843.835938 166.066406 848.601562 166.613281 L 849.964844 165.523438 C 849.28125 157.351562 849.148438 147.679688 849.148438 138.148438 L 849.148438 92.113281 L 864.945312 92.113281 L 866.171875 90.75 C 865.355469 87.070312 863.71875 83.53125 861.8125 80.804688 L 817.546875 80.804688 Z M 816.324219 82.03125 " style=" stroke:none;fill-rule:nonzero;fill:rgb(12.89978%,12.89978%,12.89978%);fill-opacity:1;"/>
<path d="M 0.00034375 0 L 0.00034375 -416 " style="fill:none;stroke-width:3;stroke-linecap:butt;stroke-linejoin:miter;stroke:rgb(86.999512%,28.999329%,14.99939%);stroke-opacity:1;stroke-miterlimit:10;" transform="matrix(1,0,0,-1,255.902,-8)"/>
<path d="M -0.00145625 0 L -0.00145625 -416 " style="fill:none;stroke-width:3;stroke-linecap:butt;stroke-linejoin:miter;stroke:rgb(86.999512%,28.999329%,14.99939%);stroke-opacity:1;stroke-miterlimit:10;" transform="matrix(1,0,0,-1,134.8413,-8)"/>
<path d="M -0.0010375 0 L -0.0010375 -416 " style="fill:none;stroke-width:3;stroke-linecap:butt;stroke-linejoin:miter;stroke:rgb(86.999512%,28.999329%,14.99939%);stroke-opacity:1;stroke-miterlimit:10;" transform="matrix(1,0,0,-1,373.7276,-8)"/>
<path d="M -0.000475 0 L -0.000475 -416 " style="fill:none;stroke-width:3;stroke-linecap:butt;stroke-linejoin:miter;stroke:rgb(86.999512%,28.999329%,14.99939%);stroke-opacity:1;stroke-miterlimit:10;" transform="matrix(1,0,0,-1,480.7036,-8)"/>
<path d="M -0.0017625 0 L -0.0017625 -416 " style="fill:none;stroke-width:3;stroke-linecap:butt;stroke-linejoin:miter;stroke:rgb(86.999512%,28.999329%,14.99939%);stroke-opacity:1;stroke-miterlimit:10;" transform="matrix(1,0,0,-1,689.0252,-8)"/>
<path d="M -0.00034375 0 L -0.00034375 -416 " style="fill:none;stroke-width:3;stroke-linecap:butt;stroke-linejoin:miter;stroke:rgb(86.999512%,28.999329%,14.99939%);stroke-opacity:1;stroke-miterlimit:10;" transform="matrix(1,0,0,-1,841.848,-8)"/>
</g>
</svg>