<?xml version="1.0" encoding="UTF-8"?><svg enable-background="new 0 0 940 400" height="400px" version="1.1" viewBox="0 0 940 400" width="940px" x="0px" xml:space="preserve" xmlns="http://www.w3.org/2000/svg" xmlns:xlink="http://www.w3.org/1999/xlink" y="0px">
<g id="surface1">
<rect height="400" style="fill:rgb(92.89856%,94.099426%,94.898987%);fill-opacity:1;stroke:none;" width="940" x="0" y="0"/>
<path d="M 245.925781 115.691406 L 217.90625 115.691406 L 217.90625 139.953125 L 217.21875 139.953125 C 206.511719 121.046875 189.199219 111.589844 165.277344 111.589844 C 140.675781 111.589844 121.082031 120.277344 106.503906 137.648438 C 91.921875 155.019531 84.632812 178.226562 84.632812 207.273438 C 84.632812 234.269531 91.265625 255.601562 104.539062 271.261719 C 117.804688 286.925781 135.433594 294.753906 157.417969 294.753906 C 185.097656 294.753906 205.03125 283.367188 217.21875 260.582031 L 217.90625 260.582031 L 217.90625 371.128906 L 245.925781 371.128906 Z M 203.296875 254.347656 C 193.554688 265.566406 180.484375 271.175781 164.082031 271.175781 C 149.160156 271.175781 136.972656 265.453125 127.519531 254.003906 C 118.0625 242.558594 113.335938 226.75 113.335938 206.589844 C 113.335938 183.925781 118.234375 166.351562 128.03125 153.878906 C 137.828125 141.40625 151.152344 135.167969 168.011719 135.167969 C 182.476562 135.167969 194.410156 140.125 203.808594 150.035156 C 213.207031 159.945312 217.90625 172.074219 217.90625 186.429688 L 217.90625 211.886719 C 217.90625 228.972656 213.035156 243.128906 203.296875 254.347656 M 517.253906 219.449219 L 517.9375 219.617188 L 517.9375 290.652344 L 545.957031 290.652344 L 545.957031 61.015625 L 572.097656 61.015625 L 572.097656 35.898438 L 364.160156 35.898438 L 364.160156 61.015625 L 517.9375 61.015625 L 517.9375 121.160156 L 517.253906 121.328125 C 512.582031 116.203125 507.683594 112.132812 502.558594 109.113281 C 497.433594 106.097656 492.476562 103.789062 487.695312 102.195312 C 482.910156 100.601562 478.4375 99.574219 474.28125 99.117188 C 470.121094 98.664062 466.679688 98.433594 463.945312 98.433594 C 454.035156 98.433594 444.75 100.289062 436.09375 103.988281 C 427.4375 107.691406 419.863281 112.785156 413.371094 119.28125 C 406.875 125.773438 401.777344 133.433594 398.078125 142.261719 C 394.375 151.089844 392.523438 160.628906 392.523438 170.878906 C 392.523438 181.132812 394.375 190.957031 398.078125 200.355469 C 401.777344 209.75 406.988281 218.066406 413.710938 225.300781 C 420.429688 232.535156 428.433594 238.3125 437.71875 242.640625 C 447 246.972656 456.542969 249.136719 466.195312 249.136719 C 485.605469 249.136719 504.875 237.378906 517.253906 219.449219 M 518.621094 174.46875 C 518.621094 179.9375 517.339844 185.574219 514.777344 191.382812 C 512.210938 197.191406 508.59375 202.433594 503.925781 207.101562 C 499.253906 211.773438 493.675781 215.617188 487.179688 218.636719 C 480.6875 221.65625 473.511719 223.164062 465.652344 223.164062 C 458.019531 223.164062 451.355469 221.710938 445.664062 218.808594 C 439.964844 215.902344 435.210938 212.144531 431.394531 207.53125 C 427.578125 202.917969 424.703125 197.703125 422.765625 191.894531 C 420.828125 186.085938 419.863281 180.222656 419.863281 174.296875 C 419.863281 168.828125 420.714844 163.136719 422.425781 157.210938 C 424.132812 151.289062 426.867188 145.90625 430.625 141.066406 C 434.386719 136.226562 439.195312 132.207031 445.0625 129.019531 C 450.929688 125.832031 458.078125 124.234375 466.507812 124.234375 C 477.214844 124.234375 486.78125 126.882812 495.210938 132.179688 C 503.640625 137.476562 511.445312 144.453125 518.621094 153.109375 Z M 863.929688 35.898438 L 655.992188 35.898438 L 655.992188 61.015625 L 809.765625 61.015625 L 809.765625 121.160156 L 809.085938 121.328125 C 804.414062 116.203125 799.515625 112.132812 794.390625 109.113281 C 789.265625 106.097656 784.308594 103.789062 779.527344 102.195312 C 774.742188 100.601562 770.269531 99.574219 766.113281 99.117188 C 761.953125 98.664062 758.507812 98.433594 755.777344 98.433594 C 745.867188 98.433594 736.582031 100.289062 727.925781 103.988281 C 719.265625 107.691406 711.695312 112.785156 705.199219 119.28125 C 698.707031 125.773438 693.609375 133.433594 689.910156 142.261719 C 686.207031 151.089844 684.355469 160.628906 684.355469 170.878906 C 684.355469 181.132812 686.207031 190.957031 689.910156 200.355469 C 693.609375 209.75 698.820312 218.066406 705.542969 225.300781 C 712.261719 232.535156 720.261719 238.3125 729.546875 242.640625 C 738.832031 246.972656 749.113281 249.136719 760.390625 249.136719 C 766.539062 249.136719 772.09375 248.511719 777.046875 247.253906 C 782.003906 246.003906 786.472656 244.4375 790.460938 242.558594 C 794.445312 240.675781 797.976562 238.570312 801.054688 236.234375 C 804.128906 233.902344 806.804688 231.652344 809.085938 229.484375 L 809.765625 229.65625 L 809.765625 290.652344 L 837.789062 290.652344 L 837.789062 61.015625 L 863.929688 61.015625 Z M 810.453125 174.46875 C 810.453125 179.9375 809.167969 185.574219 806.605469 191.382812 C 804.042969 197.191406 800.425781 202.433594 795.757812 207.101562 C 791.085938 211.773438 785.503906 215.617188 779.011719 218.636719 C 772.519531 221.65625 765.34375 223.164062 757.484375 223.164062 C 749.851562 223.164062 743.1875 221.710938 737.492188 218.808594 C 731.796875 215.902344 727.042969 212.144531 723.226562 207.53125 C 719.410156 202.917969 716.535156 197.703125 714.597656 191.894531 C 712.660156 186.085938 711.695312 180.222656 711.695312 174.296875 C 711.695312 168.828125 712.546875 163.136719 714.257812 157.210938 C 715.964844 151.289062 718.699219 145.90625 722.457031 141.066406 C 726.214844 136.226562 731.027344 132.207031 736.894531 129.019531 C 742.761719 125.832031 749.90625 124.234375 758.339844 124.234375 C 769.042969 124.234375 778.613281 126.882812 787.042969 132.179688 C 795.472656 137.476562 803.277344 144.453125 810.453125 153.109375 Z M 810.453125 174.46875 " style=" stroke:none;fill-rule:nonzero;fill:rgb(12.89978%,12.89978%,12.89978%);fill-opacity:1;"/>
<path d="M 0.00154375 -0.00194375 C 25.341387 -0.00194375 45.884356 20.544931 45.884356 45.888681 C 45.884356 71.228525 25.341387 91.771494 0.00154375 91.771494 C -25.342206 91.771494 -45.885175 71.228525 -45.885175 45.888681 C -45.885175 20.544931 -25.342206 -0.00194375 0.00154375 -0.00194375 Z M 0.00154375 -0.00194375 " style="fill:none;stroke-width:3;stroke-linecap:butt;stroke-linejoin:miter;stroke:rgb(86.999512%,28.999329%,14.99939%);stroke-opacity:1;stroke-miterlimit:10;" transform="matrix(1,0,0,-1,512.6508,258.5254)"/>
<path d="M 0.00125 0.00000625 C 25.341094 0.00000625 45.884062 20.542975 45.884062 45.886725 C 45.884062 71.230475 25.341094 91.773444 0.00125 91.773444 C -25.3425 91.773444 -45.885469 71.230475 -45.885469 45.886725 C -45.885469 20.542975 -25.3425 0.00000625 0.00125 0.00000625 Z M 0.00125 0.00000625 " style="fill:none;stroke-width:3;stroke-linecap:butt;stroke-linejoin:miter;stroke:rgb(86.999512%,28.999329%,14.99939%);stroke-opacity:1;stroke-miterlimit:10;" transform="matrix(1,0,0,-1,219.5925,299.9961)"/>
<path d="M -0.0004 -0.00194375 C 25.34335 -0.00194375 45.886319 20.544931 45.886319 45.888681 C 45.886319 71.228525 25.34335 91.771494 -0.0004 91.771494 C -25.340244 91.771494 -45.887119 71.228525 -45.887119 45.888681 C -45.887119 20.544931 -25.340244 -0.00194375 -0.0004 -0.00194375 Z M -0.0004 -0.00194375 " style="fill:none;stroke-width:3;stroke-linecap:butt;stroke-linejoin:miter;stroke:rgb(86.999512%,28.999329%,14.99939%);stroke-opacity:1;stroke-miterlimit:10;" transform="matrix(1,0,0,-1,805.8754,258.5254)"/>
</g>
</svg>