<?xml version='1.0' encoding='UTF-8'?>
<svg xmlns="http://www.w3.org/2000/svg" xmlns:xlink="http://www.w3.org/1999/xlink" width="600px" height="300px" viewBox="0 0 600 300" x="0px" y="0px" enable-background="new 0 0 600 300"><defs><symbol overflow="visible" id="aaa01a0fa"><path d="M15.38 0h6.48v-54.17h-5.23c-4.7 1.83-9.38 3.65-14.07 5.5v5.9c4.27-1.45 8.53-2.96 12.81-4.42zm0 0"/></symbol><symbol overflow="visible" id="aaa01a0fb"><path d="M25.94 1.27c13.1 0 21.17-5.82 21.17-15.58 0-8.31-6.4-12.66-11.22-13.77v-.34c3.75-1.14 9.28-4.61 9.28-12.52 0-9-7.4-14.42-19.23-14.42-11.78 0-19.14 5.42-19.14 14.42 0 7.78 5.37 11.3 9.18 12.52v.34c-4.6 1.11-11.14 5.24-11.14 13.77 0 9.76 8.1 15.58 21.1 15.58zm0-31.86c-8.42 0-12.63-3.94-12.63-9.66 0-6.67 4.42-9.6 12.63-9.6 8.2 0 12.7 2.93 12.7 9.6 0 5.72-4.27 9.66-12.7 9.66zm0 26.32c-9.27 0-14.5-3.62-14.5-10.65 0-6.56 4.97-10.38 14.5-10.38 9.54 0 14.53 3.82 14.53 10.38 0 7.03-5.27 10.65-14.53 10.65zm0 0"/></symbol><symbol overflow="visible" id="aaa01a0fc"><path d="M12.52-25.83c4.84 0 8.2-2.2 9.42-4.87h.34l.5 4h4.27v-18.2c0-6.7-3.66-10.26-11.07-10.26-7.7 0-10.9 3.08-11.82 8.74l5.34.45c.6-3.17 1.94-4.92 6.4-4.92 4.32 0 6.04 2.14 6.04 6.14v1.14l-9.16 1.34c-6.87 1.04-9.87 3.24-9.87 8.5 0 5.05 3.46 7.94 9.6 7.94zm1.25-4.08c-3.7 0-5.33-1.45-5.33-4.23 0-2.52 1.51-3.78 5.25-4.42l8.25-1.38v2.6c0 4.15-3.28 7.43-8.17 7.43zm0 0"/></symbol><symbol overflow="visible" id="aaa01a0fe"><path d="M3.2 0h37.96v-5.84H12.09v-.38l12.86-10.4c8.43-6.8 15.57-13.44 15.57-23.16 0-9.2-5.65-15.53-17.52-15.53-12.81 0-18 7.81-19.27 18.53l6.7.5c.87-8.08 3.95-13.34 12.5-13.34 7.48 0 10.87 3.65 10.87 10.21 0 6.72-4.8 11.68-13.5 19.16L3.2-5.45zm0 0"/></symbol><symbol overflow="visible" id="aaa01a0ff"><path d="M30.67 0h6.45v-12.33h7.13v-5.56h-7.13v-36.28h-8.8L1.18-17.52v5.2h29.48zM8.31-17.9v-.37l22.02-29.68h.34v30.06zm0 0"/></symbol><symbol overflow="visible" id="aaa01a0fg"><path d="M15.72-25.83c8.65 0 13.73-5.19 13.73-14.72 0-9.34-5.07-14.54-13.73-14.54-8.58 0-13.7 5.2-13.7 14.54 0 9.53 5.12 14.72 13.7 14.72zm0-4.5c-5.5 0-8.05-3.47-8.05-10.22 0-6.56 2.55-10 8.05-10 5.53 0 8.08 3.44 8.08 10 0 6.75-2.55 10.22-8.08 10.22zm0 0"/></symbol><symbol overflow="visible" id="aaa01a0fh"><path d="M71.45-25.83c8.66 0 13.74-5.19 13.74-14.72 0-9.34-5.08-14.54-13.74-14.54-8.58 0-13.65 5.2-13.65 14.54 0 9.53 5.08 14.72 13.65 14.72zM8.44 0h6.17v-43.3H15L43.83 0h6.69v-54.17h-6.16v43.3h-.38l-28.84-43.3h-6.7zm63.01-30.33c-5.5 0-8.01-3.47-8.01-10.22 0-6.56 2.51-10 8.01-10 5.57 0 8.08 3.44 8.08 10 0 6.75-2.51 10.22-8.08 10.22zM58.94-13.39h25.1v-5.16h-25.1zm0 0"/></symbol><symbol overflow="visible" id="aaa01a0fi"><path d="M23.77 1.14c12.06 0 19.37-6.67 19.37-18.66 0-11.32-6.56-17.54-16.86-17.54-6.48 0-10.75 2.48-13.95 6.22h-.4l2.6-19.49h25.25v-5.84H9.27L5.72-22.81h5.53c2.48-3.05 7.3-6.75 13.4-6.75 7.7 0 11.93 3.65 11.93 12.31 0 8.6-4.72 12.86-12.81 12.86-6.86 0-10.96-2.7-12.55-8.31l-6.53.6C5.77-3.4 13.02 1.15 23.77 1.15zm0 0"/></symbol><symbol overflow="visible" id="aaa01a0fj"><path d="M3.83 0v-5.95H6.2v-.82H.45v.82h2.4V0zm0 0"/></symbol><symbol overflow="visible" id="aaa01a0fk"><path d="M5.75-2.23v-.43c0-1.6-.9-2.51-2.42-2.51S.87-4.16.87-2.48c0 1.71.91 2.62 2.5 2.62 1.43 0 2.07-.56 2.29-1.52l-.9-.09c-.18.61-.59.9-1.35.9-.94 0-1.52-.54-1.58-1.66zm-2.4-2.2c.93 0 1.43.5 1.48 1.55H1.84c.08-1.07.6-1.56 1.5-1.56zm0 0"/></symbol><symbol overflow="visible" id="aaa01a0fl"><path d="M1.83 0l1.42-2h.06l1.46 2H5.8L4-2.53l1.78-2.49H4.8L3.42-3.08h-.08l-1.4-1.94H.89l1.78 2.49L.84 0zm0 0"/></symbol><symbol overflow="visible" id="aaa01a0fm"><path d="M5.52-4.25v-.77H3.17v-1.56h-.81l-.14 1.56H.75v.77h1.47v2.4c0 1.3.48 1.94 1.84 1.94C4.6.1 5.14 0 5.55-.14L5.4-.91c-.32.13-.72.2-1.13.2-.8 0-1.1-.37-1.1-1.23v-2.31zm0 0"/></symbol><symbol overflow="visible" id="aaa01a0fn"><path d="M3.33-3.42c.47 0 .8-.27.8-.8 0-.51-.33-.8-.8-.8-.47 0-.8.29-.8.8 0 .53.33.8.8.8zm0 3.5c.47 0 .8-.27.8-.78 0-.53-.33-.82-.8-.82-.47 0-.8.29-.8.82 0 .51.33.78.8.78zm0 0"/></symbol><symbol overflow="visible" id="aaa01a0fp"><path d="M4.22-6.77h-.86l-2.03.7v.87c.64-.17 1.26-.38 1.89-.55v4.9H1.03V0h4.9v-.86H4.21zm0 0"/></symbol><symbol overflow="visible" id="aaa01a0fq"><path d="M3.33.16c1.69 0 2.69-.74 2.69-1.94 0-1.05-.8-1.58-1.43-1.72v-.05c.5-.14 1.2-.58 1.2-1.56 0-1.12-.95-1.81-2.46-1.81-1.52 0-2.46.69-2.46 1.81 0 .97.68 1.4 1.18 1.56v.05c-.6.14-1.4.64-1.4 1.72 0 1.2 1 1.94 2.68 1.94zm0-4.04c-.97 0-1.49-.43-1.49-1.12 0-.78.52-1.1 1.49-1.1.95 0 1.48.32 1.48 1.1 0 .69-.53 1.13-1.48 1.13zm0 3.24c-1.1 0-1.7-.42-1.7-1.25 0-.78.6-1.2 1.7-1.2s1.7.42 1.7 1.2c0 .83-.6 1.25-1.7 1.25zm0 0"/></symbol><symbol overflow="visible" id="aaa01a0fr"><path d="M2.83.14c.94 0 1.5-.39 1.81-.95h.08l.1.81h.76v-3.38c0-1.23-.69-1.8-2.13-1.8-1.43 0-2.03.65-2.18 1.6l.93.1c.11-.6.44-.93 1.22-.93.85 0 1.22.32 1.22 1.04v.34l-1.81.2C1.6-2.7 1.1-2.17 1.1-1.28c0 .92.64 1.42 1.72 1.42zm.25-.77c-.67 0-1.02-.28-1.02-.74 0-.44.28-.72 1-.82l1.58-.19v.41c0 .8-.6 1.34-1.56 1.34zm0 0"/></symbol><symbol overflow="visible" id="aaa01a0fs"><path d="M5.67 0v-.86H2.14V-.9L3.6-2c1.05-.83 2-1.68 2-2.91 0-1.19-.73-1.99-2.26-1.99-1.66 0-2.3 1.02-2.44 2.33l1 .08c.1-.92.42-1.58 1.44-1.58.87 0 1.26.44 1.26 1.24 0 .9-.8 1.53-1.96 2.53L.83-.81V0zm0 0"/></symbol><symbol overflow="visible" id="aaa01a0ft"><path d="M5.1 0v-1.47H6v-.81h-.9v-4.49H3.8L.48-2.23v.76h3.66V0zM1.5-2.33l2.6-3.53h.04v3.58H1.5zm0 0"/></symbol><symbol overflow="visible" id="aaa01a0fu"><path d="M3.33.14c1.62 0 2.5-.95 2.5-2.66 0-1.68-.88-2.64-2.5-2.64-1.63 0-2.5.96-2.5 2.64 0 1.7.87 2.66 2.5 2.66zm0-.77c-1.06 0-1.52-.6-1.52-1.89 0-1.28.46-1.87 1.52-1.87 1.08 0 1.53.6 1.53 1.87 0 1.29-.45 1.9-1.53 1.9zm0 0"/></symbol><symbol overflow="visible" id="aaa01a0fv"><path d="M1.84 0v-4.48l-.06-.99h.1L4.46 0h1.28v-6.77h-.92v4.4l.06 1.03h-.1L2.21-6.77H.92V0zm0 0"/></symbol><symbol overflow="visible" id="aaa01a0fw"><path d="M3.42.14c1.55 0 2.44-.84 2.44-2.33 0-1.45-.83-2.22-2.14-2.22-.75 0-1.28.27-1.67.72H2l.31-2.22h3.11v-.86H1.53l-.45 3.93h.81c.3-.36.9-.79 1.58-.79.92 0 1.44.43 1.44 1.47 0 .99-.54 1.5-1.49 1.5-.83 0-1.28-.32-1.5-1.01l-.95.1C1.07-.46 2 .13 3.42.13zm0 0"/></symbol><symbol overflow="visible" id="aaa01a0fx"><path d="M5.95-6.77H1.1V0h.99v-2.92H5.3v-.77H2.08v-2.26h3.87zm0 0"/></symbol><symbol overflow="visible" id="aaa01a0fy"><path d="M2.73.14c.9 0 1.43-.45 1.74-1.08h.06l.13.94h.8v-5.02h-.94v2.7c0 .98-.57 1.62-1.46 1.62-.75 0-1.1-.4-1.1-1.22v-3.1h-.93v3.32c0 1.17.55 1.84 1.7 1.84zm0 0"/></symbol><symbol overflow="visible" id="aaa01a0fz"><path d="M5.08-5.16c-.94 0-1.58.43-1.9 1.3h-.09l-.07-1.16H1.05v.77h1.1v3.48H.96V0h3.96v-.77H3.1v-1.46c0-1.36.6-2.05 1.83-2.05.4 0 .76.08 1.1.17l.15-.87c-.33-.11-.7-.18-1.11-.18zm0 0"/></symbol><symbol overflow="visible" id="aaa01a0fA"><path d="M3.33.14c1.9 0 2.76-1.27 2.76-3.52 0-2.26-.86-3.53-2.76-3.53S.58-5.64.58-3.37c0 2.25.86 3.51 2.75 3.51zM3.3-.67c-1.25 0-1.73-.95-1.73-2.7 0-1.77.5-2.72 1.75-2.72s1.75.95 1.75 2.71c0 1.75-.5 2.7-1.77 2.7zm0 0"/></symbol><symbol overflow="visible" id="aaa01a0fB"><path d="M2.84.14C3.8.14 4.33-.26 4.6-.9h.07L4.8 0h.76v-7.14h-.95v2.95h-.08c-.28-.6-.86-.97-1.67-.97-1.48 0-2.27.99-2.27 2.64C.6-.84 1.36.14 2.84.14zm.22-.8c-.98 0-1.48-.59-1.48-1.84s.5-1.86 1.48-1.86c1.13 0 1.58.8 1.58 1.86S4.2-.66 3.06-.66zm0 0"/></symbol><symbol overflow="visible" id="aaa01a0fC"><path d="M3.58-5.81c.42 0 .72-.22.72-.67 0-.44-.3-.68-.72-.68-.44 0-.72.24-.72.68 0 .45.28.67.72.67zm.5.8H1.52v.76h1.6v3.48h-1.8V0h4.46v-.77h-1.7zm0 0"/></symbol><symbol overflow="visible" id="aaa01a0fD"><path d="M2.16 0v-2.67c0-.99.59-1.63 1.46-1.63.74 0 1.07.38 1.07 1.22V0h.95v-3.31c0-1.2-.56-1.85-1.67-1.85-.92 0-1.49.46-1.77 1.08h-.06l-.12-.94H1.2V0zm0 0"/></symbol><symbol overflow="visible" id="aaa01a0fE"><path d="M3.92-7.14H1.36v.76h1.6v5.61H1.15V0H5.7v-.77H3.92zm0 0"/></symbol><symbol overflow="visible" id="aaa01a0fF"><path d="M3.36.16c1.4 0 2.2-.6 2.2-1.57 0-.89-.54-1.22-1.47-1.39L3-3c-.67-.14-.86-.33-.86-.73 0-.5.4-.74 1.17-.74.83 0 1.19.27 1.27.8l.9-.05c-.12-1-.8-1.47-2.17-1.47-1.34 0-2.1.53-2.1 1.5 0 .81.45 1.22 1.52 1.44l1.04.2c.56.11.87.24.87.72 0 .52-.45.78-1.28.78-.95 0-1.36-.28-1.42-.87l-.9.06C1.07-.36 1.8.16 3.35.16zm0 0"/></symbol><symbol overflow="visible" id="aaa01a0fG"><path d="M1.45-2.95c0 2.56 1.08 4.37 3.67 4.84l.11-.67C3.28.86 2.43-.75 2.43-2.95s.85-3.82 2.8-4.16l-.1-.69c-2.6.49-3.68 2.3-3.68 4.85zm0 0"/></symbol><symbol overflow="visible" id="aaa01a0fH"><path d="M1.45-7.1c1.96.33 2.8 1.94 2.8 4.15 0 2.2-.84 3.8-2.8 4.17l.11.67c2.58-.47 3.67-2.28 3.67-4.84 0-2.55-1.09-4.36-3.67-4.85zm0 0"/></symbol></defs><g fill="#515151"><use xlink:href="#aaa01a0fa" x="69.47074" y="160.5"/><use xlink:href="#aaa01a0fb" x="100.32954" y="160.5"/></g><use xlink:href="#aaa01a0fc" x="152.2522" y="160.5" fill="#fff"/><use xlink:href="#aaa01a0fd" x="182.9615" y="160.5" fill="#515151"/><g fill="#515151"><use xlink:href="#aaa01a0fe" x="203.8293" y="160.5"/><use xlink:href="#aaa01a0ff" x="249.1493" y="160.5"/></g><use xlink:href="#aaa01a0fg" x="296.1852" y="160.5" fill="#fff"/><use xlink:href="#aaa01a0fd" x="327.6574" y="160.5" fill="#515151"/><use xlink:href="#aaa01a0fh" x="348.5244" y="160.5" fill="#fff"/><g fill="#515151"><use xlink:href="#aaa01a0fi" x="438.5541" y="160.5"/><use xlink:href="#aaa01a0fe" x="485.2131" y="160.5"/></g><g fill="#fff"><use xlink:href="#aaa01a0fj" x="240" y="252"/><use xlink:href="#aaa01a0fk" x="246.667" y="252"/><use xlink:href="#aaa01a0fl" x="253.334" y="252"/><use xlink:href="#aaa01a0fm" x="260.001" y="252"/><use xlink:href="#aaa01a0fn" x="266.668" y="252"/><use xlink:href="#aaa01a0fo" x="273.335" y="252"/><use xlink:href="#aaa01a0fp" x="280.002" y="252"/><use xlink:href="#aaa01a0fq" x="286.669" y="252"/><use xlink:href="#aaa01a0fr" x="293.336" y="252"/><use xlink:href="#aaa01a0fo" x="300.003" y="252"/><use xlink:href="#aaa01a0fs" x="306.67" y="252"/><use xlink:href="#aaa01a0ft" x="313.337" y="252"/><use xlink:href="#aaa01a0fu" x="320.004" y="252"/><use xlink:href="#aaa01a0fo" x="326.671" y="252"/><use xlink:href="#aaa01a0fv" x="333.338" y="252"/><use xlink:href="#aaa01a0fu" x="340.005" y="252"/><use xlink:href="#aaa01a0fw" x="346.672" y="252"/><use xlink:href="#aaa01a0fs" x="353.339" y="252"/></g><g fill="#fff"><use xlink:href="#aaa01a0fx" x="220" y="266"/><use xlink:href="#aaa01a0fk" x="226.667" y="266"/><use xlink:href="#aaa01a0fr" x="233.334" y="266"/><use xlink:href="#aaa01a0fm" x="240.001" y="266"/><use xlink:href="#aaa01a0fy" x="246.668" y="266"/><use xlink:href="#aaa01a0fz" x="253.335" y="266"/><use xlink:href="#aaa01a0fk" x="260.002" y="266"/><use xlink:href="#aaa01a0fn" x="266.669" y="266"/><use xlink:href="#aaa01a0fo" x="273.336" y="266"/><use xlink:href="#aaa01a0fA" x="280.003" y="266"/><use xlink:href="#aaa01a0fz" x="286.67" y="266"/><use xlink:href="#aaa01a0fB" x="293.337" y="266"/><use xlink:href="#aaa01a0fC" x="300.004" y="266"/><use xlink:href="#aaa01a0fD" x="306.671" y="266"/><use xlink:href="#aaa01a0fr" x="313.338" y="266"/><use xlink:href="#aaa01a0fE" x="320.005" y="266"/><use xlink:href="#aaa01a0fF" x="326.672" y="266"/><use xlink:href="#aaa01a0fo" x="333.339" y="266"/><use xlink:href="#aaa01a0fG" x="340.006" y="266"/><use xlink:href="#aaa01a0fu" x="346.673" y="266"/><use xlink:href="#aaa01a0fz" x="353.34" y="266"/><use xlink:href="#aaa01a0fB" x="360.007" y="266"/><use xlink:href="#aaa01a0fD" x="366.674" y="266"/><use xlink:href="#aaa01a0fH" x="373.341" y="266"/></g></svg>