<?xml version='1.0' encoding='UTF-8'?>
<svg xmlns="http://www.w3.org/2000/svg" xmlns:xlink="http://www.w3.org/1999/xlink" width="600px" height="300px" viewBox="0 0 600 300" x="0px" y="0px" enable-background="new 0 0 600 300"><defs><symbol overflow="visible" id="e07733bfa"><path d="M20.33 1.14c9.92 0 15.87-4.58 15.87-12.55 0-6.71-4.12-9.39-12.33-11.17l-5.45-1.19c-4.84-1.03-6.94-2.59-6.94-6.1 0-4.2 2.9-6.25 8.47-6.25 5.88 0 8.77 2.09 9.24 6.93l6.4-.53c-.6-7.89-5.72-11.75-15.56-11.75-9.31 0-14.87 4.2-14.87 12.2 0 6.43 3.96 9.63 11.89 11.3l5.3 1.11c5.04 1.03 7.48 2.25 7.48 6.22 0 4.12-3.55 6.48-9.38 6.48-6.53 0-10-2.32-10.72-7.48l-6.42.55c.69 8 6 12.23 17.02 12.23zm0 0"/></symbol><symbol overflow="visible" id="e07733bfb"><path d="M16.06-34.6h12.78v-5.57H16.06v-12.47h-5.08l-1.4 12.47H1.3v5.58h8.28v23.03C9.58-3.31 13.39.92 21.86.92c2.6 0 5.27-.5 7.17-1.08l-.72-5.37c-1.42.37-3.17.76-5.15.76-4.7 0-7.1-1.82-7.1-7.4zm0 0"/></symbol><symbol overflow="visible" id="e07733bfc"><path d="M7.28 0h6.49v-22.02c0-7.93 4.96-13.12 11.48-13.12 1.56 0 2.86.23 3.78.47l.69-6.14a17.7 17.7 0 00-4.13-.5c-5.6 0-9.45 2.97-11.59 8.2h-.38l-.92-7.06H7.28zm0 0"/></symbol><symbol overflow="visible" id="e07733bfd"><path d="M17.52 1.1c6.75 0 11.28-2.82 13.5-7.4h.37l.69 6.3h5.42v-27.31c0-9.66-5.42-14.05-15.8-14.05-10.56 0-15.1 4.78-16.25 12.4l6.4.59c.82-4.82 3.37-7.65 9.78-7.65 6.56 0 9.57 2.72 9.57 9v2.8l-13.54 1.75C7.96-21.25 3.8-17.66 3.8-10.37c0 7.2 4.77 11.48 13.7 11.48zm1.3-5.3c-5.88 0-8.4-2.47-8.4-6.6 0-3.8 2.17-6.03 7.74-6.8l13.04-1.82v3.86C31.2-9 26.52-4.2 18.81-4.2zm0 0"/></symbol><symbol overflow="visible" id="e07733bfe"><path d="M27.97 1.14c10.86 0 17.23-4.6 17.23-16.1 0-10.34-7.47-14.76-13.89-15v-.34c5.19-.95 9.77-5.53 9.77-13.68 0-8.74-6.25-14.38-16.4-14.38-11.63 0-17.4 6.6-17.4 20.33V0h6.49v-38c0-10.48 3.06-14.8 11.03-14.8 6.14 0 10.1 3.4 10.1 9.46 0 6.95-4.73 10.8-11.13 10.8h-1.54v5.57h1.54c8.62 0 15.06 2.75 15.06 11.44 0 8.33-4.3 11.22-11.55 11.22-2.37 0-5.26-.38-7.78-.96L19-.07c3.05.76 5.98 1.21 8.97 1.21zm0 0"/></symbol><symbol overflow="visible" id="e07733bff"><path d="M40.52-18.05v-3.65c0-12.6-6.75-19.66-17.97-19.66-11.18 0-18.47 7.48-18.47 21.4 0 13.37 6.8 21.1 19 21.1 10.19 0 15-4.69 16.7-11.33l-6.4-.6C32.08-7.07 29.27-4.43 23-4.43c-7.52 0-11.78-4.5-12.28-13.63zM22.55-35.94c7.32 0 11.22 4.28 11.56 12.9H10.8c.72-8.82 4.8-12.9 11.75-12.9zm0 0"/></symbol><symbol overflow="visible" id="e07733bfg"><path d="M25.38 1.14c12.73 0 20.09-6.1 20.09-15.75 0-8.86-5.27-13.05-15.86-15l-7.03-1.25c-7.58-1.37-10.6-4.16-10.6-9.66 0-5.9 4.7-9.18 12.63-9.18 8.77 0 12.58 2.62 13.87 10.06l6.65-.45C43.8-50.7 37.19-55.31 24.64-55.31c-12.1 0-19.27 5.53-19.27 15.22 0 8.36 4.9 13.04 15.35 15.03l7.01 1.33c7.7 1.45 11.14 3.62 11.14 9.42 0 5.95-4.96 9.84-13.3 9.84-9.59 0-14.09-3.36-15.3-10.06L3.63-14C4.69-3.92 11.78 1.14 25.38 1.14zm0 0"/></symbol><symbol overflow="visible" id="e07733bfh"><path d="M18.05 0h6.72v-48.33h17.6v-5.84h-42v5.84h17.68zm0 0"/></symbol><symbol overflow="visible" id="e07733bfi"><path d="M49.36 0L31.89-23.08c11.6-.1 17.2-5.64 17.2-15.3 0-10.34-5.87-15.8-18.18-15.8H8.44V0h6.75v-22.78h9.34L41.55 0zM15.19-28.27v-20.18h14.48c9.24 0 12.9 2.64 12.9 10.08 0 7.28-3.7 10.1-13.09 10.1zm0 0"/></symbol><symbol overflow="visible" id="e07733bfj"><path d="M45.1 0h7.09L31.44-54.17H22.8L1.88 0h7.01l4.58-12.2h27.08zM15.44-17.66L26.9-48.19h.34l11.33 30.53zm0 0"/></symbol><symbol overflow="visible" id="e07733bfk"><path d="M46.13-48.33v-5.84H8.42V0h37.7v-5.84H15.18v-18.77h25.97v-5.56H15.19v-18.16zm0 0"/></symbol><symbol overflow="visible" id="e07733bfl"><path d="M3.83 0v-5.95H6.2v-.82H.45v.82h2.4V0zm0 0"/></symbol><symbol overflow="visible" id="e07733bfm"><path d="M5.75-2.23v-.43c0-1.6-.9-2.51-2.42-2.51S.87-4.16.87-2.48c0 1.71.91 2.62 2.5 2.62 1.43 0 2.07-.56 2.29-1.52l-.9-.09c-.18.61-.59.9-1.35.9-.94 0-1.52-.54-1.58-1.66zm-2.4-2.2c.93 0 1.43.5 1.48 1.55H1.84c.08-1.07.6-1.56 1.5-1.56zm0 0"/></symbol><symbol overflow="visible" id="e07733bfn"><path d="M1.83 0l1.42-2h.06l1.46 2H5.8L4-2.53l1.78-2.49H4.8L3.42-3.08h-.08l-1.4-1.94H.89l1.78 2.49L.84 0zm0 0"/></symbol><symbol overflow="visible" id="e07733bfo"><path d="M5.52-4.25v-.77H3.17v-1.56h-.81l-.14 1.56H.75v.77h1.47v2.4c0 1.3.48 1.94 1.84 1.94C4.6.1 5.14 0 5.55-.14L5.4-.91c-.32.13-.72.2-1.13.2-.8 0-1.1-.37-1.1-1.23v-2.31zm0 0"/></symbol><symbol overflow="visible" id="e07733bfp"><path d="M3.33-3.42c.47 0 .8-.27.8-.8 0-.51-.33-.8-.8-.8-.47 0-.8.29-.8.8 0 .53.33.8.8.8zm0 3.5c.47 0 .8-.27.8-.78 0-.53-.33-.82-.8-.82-.47 0-.8.29-.8.82 0 .51.33.78.8.78zm0 0"/></symbol><symbol overflow="visible" id="e07733bfr"><path d="M3.36.16c1.4 0 2.2-.6 2.2-1.57 0-.89-.54-1.22-1.47-1.39L3-3c-.67-.14-.86-.33-.86-.73 0-.5.4-.74 1.17-.74.83 0 1.19.27 1.27.8l.9-.05c-.12-1-.8-1.47-2.17-1.47-1.34 0-2.1.53-2.1 1.5 0 .81.45 1.22 1.52 1.44l1.04.2c.56.11.87.24.87.72 0 .52-.45.78-1.28.78-.95 0-1.36-.28-1.42-.87l-.9.06C1.07-.36 1.8.16 3.35.16zm0 0"/></symbol><symbol overflow="visible" id="e07733bfs"><path d="M5.08-5.16c-.94 0-1.58.43-1.9 1.3h-.09l-.07-1.16H1.05v.77h1.1v3.48H.96V0h3.96v-.77H3.1v-1.46c0-1.36.6-2.05 1.83-2.05.4 0 .76.08 1.1.17l.15-.87c-.33-.11-.7-.18-1.11-.18zm0 0"/></symbol><symbol overflow="visible" id="e07733bft"><path d="M2.83.14c.94 0 1.5-.39 1.81-.95h.08l.1.81h.76v-3.38c0-1.23-.69-1.8-2.13-1.8-1.43 0-2.03.65-2.18 1.6l.93.1c.11-.6.44-.93 1.22-.93.85 0 1.22.32 1.22 1.04v.34l-1.81.2C1.6-2.7 1.1-2.17 1.1-1.28c0 .92.64 1.42 1.72 1.42zm.25-.77c-.67 0-1.02-.28-1.02-.74 0-.44.28-.72 1-.82l1.58-.19v.41c0 .8-.6 1.34-1.56 1.34zm0 0"/></symbol><symbol overflow="visible" id="e07733bfu"><path d="M3.77.14c1.3 0 2.14-.6 2.14-2 0-1.33-.97-1.86-1.8-1.89v-.05c.64-.12 1.3-.62 1.3-1.67 0-1.1-.83-1.81-2.13-1.81-1.5 0-2.26.83-2.26 2.53V0h.95v-4.8c0-1.23.37-1.73 1.31-1.73.77 0 1.24.44 1.24 1.14 0 .87-.58 1.31-1.38 1.31h-.17v.75h.22c1.06 0 1.8.36 1.8 1.4 0 1-.54 1.32-1.41 1.32a3.6 3.6 0 01-.86-.1l-.1.7c.38.09.74.15 1.15.15zm0 0"/></symbol><symbol overflow="visible" id="e07733bfv"><path d="M3.42.14c1.61 0 2.56-.75 2.56-2 0-1.1-.67-1.6-1.95-1.86l-.97-.2c-.87-.17-1.23-.49-1.23-1.11 0-.7.54-1.11 1.5-1.11 1.06 0 1.51.34 1.69 1.23l.9-.09c-.17-1.28-.98-1.9-2.6-1.9C1.79-6.9.9-6.18.9-4.98c0 1.06.66 1.66 1.88 1.9l1.01.2c.85.17 1.25.4 1.25 1.09 0 .73-.6 1.16-1.6 1.16-1.07 0-1.66-.4-1.8-1.24l-.94.1C.83-.53 1.75.13 3.42.13zm0 0"/></symbol><symbol overflow="visible" id="e07733bfw"><path d="M4.06-2.77c1.25-.04 1.92-.7 1.92-1.96 0-1.36-.7-2.04-2.17-2.04H.92V0h.97v-2.73h1.08L4.95 0h1.1zM1.9-6h1.7c1.07 0 1.46.34 1.46 1.28 0 .9-.44 1.27-1.47 1.27H1.89zm0 0"/></symbol><symbol overflow="visible" id="e07733bfx"><path d="M6.17 0L3.98-6.77h-1.3L.5 0h.97l.44-1.47h2.78L5.16 0zM3.28-5.94h.08l1.1 3.74H2.15zm0 0"/></symbol><symbol overflow="visible" id="e07733bfy"><path d="M3.9.14c1.41 0 2.16-.67 2.16-1.95 0-1.27-.84-1.77-2.06-1.85l1.69-2.2v-.58c-.7-.31-1.6-.47-2.32-.47C1.78-6.9.9-6.17.9-4.2V0h.92v-4.22c0-1.4.5-1.9 1.53-1.9.43 0 .96.06 1.36.23v.03l-1.62 2.2v.57c1.44 0 2.06.34 2.06 1.26 0 .86-.56 1.2-1.39 1.2-.38 0-.81-.06-1.1-.14l-.1.74c.36.1.9.17 1.36.17zm0 0"/></symbol><symbol overflow="visible" id="e07733bfz"><path d="M5.92-6.77H1.1V0h4.83v-.8H2.06v-2.26h3.22v-.75H2.06v-2.16h3.86zm0 0"/></symbol><symbol overflow="visible" id="e07733bfA"><path d="M5.95-6.77H1.1V0h.99v-2.92H5.3v-.77H2.08v-2.26h3.87zm0 0"/></symbol><symbol overflow="visible" id="e07733bfB"><path d="M2.73.14c.9 0 1.43-.45 1.74-1.08h.06l.13.94h.8v-5.02h-.94v2.7c0 .98-.57 1.62-1.46 1.62-.75 0-1.1-.4-1.1-1.22v-3.1h-.93v3.32c0 1.17.55 1.84 1.7 1.84zm0 0"/></symbol><symbol overflow="visible" id="e07733bfC"><path d="M3.33.14c1.9 0 2.76-1.27 2.76-3.52 0-2.26-.86-3.53-2.76-3.53S.58-5.64.58-3.37c0 2.25.86 3.51 2.75 3.51zM3.3-.67c-1.25 0-1.73-.95-1.73-2.7 0-1.77.5-2.72 1.75-2.72s1.75.95 1.75 2.71c0 1.75-.5 2.7-1.77 2.7zm0 0"/></symbol><symbol overflow="visible" id="e07733bfD"><path d="M3.92-7.14H1.36v.76h1.6v5.61H1.15V0H5.7v-.77H3.92zm0 0"/></symbol><symbol overflow="visible" id="e07733bfE"><path d="M2.84.14C3.8.14 4.33-.26 4.6-.9h.07L4.8 0h.76v-7.14h-.95v2.95h-.08c-.28-.6-.86-.97-1.67-.97-1.48 0-2.27.99-2.27 2.64C.6-.84 1.36.14 2.84.14zm.22-.8c-.98 0-1.48-.59-1.48-1.84s.5-1.86 1.48-1.86c1.13 0 1.58.8 1.58 1.86S4.2-.66 3.06-.66zm0 0"/></symbol><symbol overflow="visible" id="e07733bfF"><path d="M5.33-2.2v-.75h-4v.75zm0 0"/></symbol><symbol overflow="visible" id="e07733bfG"><path d="M3.33.14c1.62 0 2.5-.95 2.5-2.66 0-1.68-.88-2.64-2.5-2.64-1.63 0-2.5.96-2.5 2.64 0 1.7.87 2.66 2.5 2.66zm0-.77c-1.06 0-1.52-.6-1.52-1.89 0-1.28.46-1.87 1.52-1.87 1.08 0 1.53.6 1.53 1.87 0 1.29-.45 1.9-1.53 1.9zm0 0"/></symbol><symbol overflow="visible" id="e07733bfH"><path d="M2.16 0v-2.69c0-.98.6-1.6 1.46-1.6.74 0 1.07.4 1.07 1.2V0h.95v-3.31c0-1.17-.56-1.85-1.67-1.85-.9 0-1.44.46-1.75 1.08h-.06v-3.06H1.2V0zm0 0"/></symbol><symbol overflow="visible" id="e07733bfI"><path d="M3.16 2.03c1.67 0 2.4-.86 2.4-2.51v-4.54h-.81l-.13.91h-.06c-.26-.58-.8-1.05-1.73-1.05-1.42 0-2.24 1-2.24 2.52 0 1.6.75 2.56 2.2 2.56.94 0 1.5-.5 1.77-1.03h.05v.72c0 1.17-.42 1.67-1.45 1.67-.93 0-1.3-.34-1.41-.89L.8.5c.12.96.87 1.54 2.36 1.54zM3.06-.8c-.98 0-1.48-.57-1.48-1.82 0-1.13.5-1.75 1.48-1.75 1.06 0 1.58.76 1.58 1.75 0 .95-.56 1.82-1.58 1.82zm0 0"/></symbol><symbol overflow="visible" id="e07733bfJ"><path d="M2.06 1.9V-.84h.05c.28.58.8.97 1.77.97 1.5 0 2.2-.98 2.2-2.66 0-1.65-.7-2.64-2.19-2.64-.97 0-1.5.44-1.78 1.05h-.08l-.1-.9H1.1v6.9zm1.5-2.56c-1.06 0-1.53-.8-1.53-1.86 0-1.04.47-1.84 1.53-1.84 1.11 0 1.53.61 1.53 1.84 0 1.27-.42 1.86-1.53 1.86zm0 0"/></symbol><symbol overflow="visible" id="e07733bfK"><path d="M3.42-.86h-.08L1.77-5.02H.8L2.73 0h.41c-.33.95-.72 1.27-1.45 1.27-.22 0-.49-.04-.69-.08l-.1.73c.2.06.58.11.87.11 1.2 0 1.7-.7 2.21-2.03l1.94-5.02H5zm0 0"/></symbol><symbol overflow="visible" id="e07733bfL"><path d="M3.34.14c1.43 0 2.13-.66 2.25-1.78l-.89-.1c-.1.7-.5 1.08-1.34 1.08-1.03 0-1.52-.64-1.52-1.84 0-1.23.47-1.86 1.52-1.86.84 0 1.23.36 1.34 1.08l.9-.1c-.13-1.09-.82-1.78-2.26-1.78-1.56 0-2.46.97-2.46 2.66 0 1.66.9 2.64 2.46 2.64zm0 0"/></symbol><symbol overflow="visible" id="e07733bfM"><path d="M3.58-5.81c.42 0 .72-.22.72-.67 0-.44-.3-.68-.72-.68-.44 0-.72.24-.72.68 0 .45.28.67.72.67zm.5.8H1.52v.76h1.6v3.48h-1.8V0h4.46v-.77h-1.7zm0 0"/></symbol><symbol overflow="visible" id="e07733bfN"><path d="M2.16 0v-2.67c0-.99.59-1.63 1.46-1.63.74 0 1.07.38 1.07 1.22V0h.95v-3.31c0-1.2-.56-1.85-1.67-1.85-.92 0-1.49.46-1.77 1.08h-.06l-.12-.94H1.2V0zm0 0"/></symbol><symbol overflow="visible" id="e07733bfO"><path d="M4.63-6.5c.45 0 .98.08 1.39.2l.2-.72a5.3 5.3 0 00-1.64-.26c-1.52 0-2.16.56-2.16 1.87v.4H.9v.76h1.53V0h.94v-4.25h2.53v-.77H3.36v-.3c0-.84.33-1.18 1.27-1.18zm0 0"/></symbol><symbol overflow="visible" id="e07733bfP"><path d="M3.55-2.73h1.67C5.09-1.45 4.58-.64 3.36-.64c-1.25 0-1.78-1.03-1.78-2.73 0-1.77.53-2.72 1.81-2.72.9 0 1.47.45 1.69 1.43l.95-.09C5.8-6 5.11-6.91 3.41-6.91 1.44-6.9.58-5.59.58-3.37.58-1.2 1.4.13 3.14.13c1.3 0 1.78-.73 2-1.36h.1L5.33 0h.75v-3.42H3.55zm0 0"/></symbol><symbol overflow="visible" id="e07733bfQ"><path d="M1.63 0v-2.9c0-.8.15-1.4.71-1.4.41 0 .55.3.55.88V0h.95v-2.9c0-.8.18-1.4.72-1.4.4 0 .57.3.57.88V0h.95v-3.63c0-.92-.28-1.53-1.11-1.53-.63 0-.95.41-1.1.9h-.06c-.1-.52-.44-.9-1.08-.9-.6 0-.93.41-1.06.9H1.6l-.23-.76H.67V0zm0 0"/></symbol><symbol overflow="visible" id="e07733bfR"><path d="M5.55 0v-.75H2.3v-.06l3.2-3.49v-.72H1.2v.75H4.3v.07L1.11-.72V0zm0 0"/></symbol><symbol overflow="visible" id="e07733bfS"><path d="M1.45-2.95c0 2.56 1.08 4.37 3.67 4.84l.11-.67C3.28.86 2.43-.75 2.43-2.95s.85-3.82 2.8-4.16l-.1-.69c-2.6.49-3.68 2.3-3.68 4.85zm0 0"/></symbol><symbol overflow="visible" id="e07733bfT"><path d="M4.22-6.77h-.86l-2.03.7v.87c.64-.17 1.26-.38 1.89-.55v4.9H1.03V0h4.9v-.86H4.21zm0 0"/></symbol><symbol overflow="visible" id="e07733bfU"><path d="M3.42.14c1.55 0 2.44-.84 2.44-2.33 0-1.45-.83-2.22-2.14-2.22-.75 0-1.28.27-1.67.72H2l.31-2.22h3.11v-.86H1.53l-.45 3.93h.81c.3-.36.9-.79 1.58-.79.92 0 1.44.43 1.44 1.47 0 .99-.54 1.5-1.49 1.5-.83 0-1.28-.32-1.5-1.01l-.95.1C1.07-.46 2 .13 3.42.13zm0 0"/></symbol><symbol overflow="visible" id="e07733bfV"><path d="M1.45-7.1c1.96.33 2.8 1.94 2.8 4.15 0 2.2-.84 3.8-2.8 4.17l.11.67c2.58-.47 3.67-2.28 3.67-4.84 0-2.55-1.09-4.36-3.67-4.85zm0 0"/></symbol></defs><use xlink:href="#e07733bfa" x="180.2339" y="109" fill="#515151"/><use xlink:href="#e07733bfb" x="220.0949" y="109" fill="#515151"/><use xlink:href="#e07733bfc" x="251.6438" y="109" fill="#515151"/><use xlink:href="#e07733bfd" x="282.5026" y="109" fill="#515151"/><g fill="#515151"><use xlink:href="#e07733bfe" x="326.5248" y="109"/><use xlink:href="#e07733bff" x="375.2438" y="109"/></g><g fill="#515151"><use xlink:href="#e07733bfg" x="126.3687" y="212"/><use xlink:href="#e07733bfh" x="175.8499" y="212"/></g><use xlink:href="#e07733bfi" x="218.6361" y="212" fill="#515151"/><use xlink:href="#e07733bfj" x="271.3103" y="212" fill="#515151"/><g fill="#fff"><use xlink:href="#e07733bfg" x="324.1669" y="212"/><use xlink:href="#e07733bfg" x="372.8859" y="212"/></g><use xlink:href="#e07733bfk" x="423.1231" y="212" fill="#515151"/><g fill="#fff"><use xlink:href="#e07733bfl" x="236.6667" y="252"/><use xlink:href="#e07733bfm" x="243.3337" y="252"/><use xlink:href="#e07733bfn" x="250.0007" y="252"/><use xlink:href="#e07733bfo" x="256.6677" y="252"/><use xlink:href="#e07733bfp" x="263.3347" y="252"/><use xlink:href="#e07733bfq" x="270.0017" y="252"/><use xlink:href="#e07733bfr" x="276.6687" y="252"/><use xlink:href="#e07733bfo" x="283.3357" y="252"/><use xlink:href="#e07733bfs" x="290.0027" y="252"/><use xlink:href="#e07733bft" x="296.6697" y="252"/><use xlink:href="#e07733bfu" x="303.3367" y="252"/><use xlink:href="#e07733bfm" x="310.0037" y="252"/><use xlink:href="#e07733bfq" x="316.6707" y="252"/><use xlink:href="#e07733bfv" x="323.3377" y="252"/><use xlink:href="#e07733bfl" x="330.0047" y="252"/><use xlink:href="#e07733bfw" x="336.6717" y="252"/><use xlink:href="#e07733bfx" x="343.3387" y="252"/><use xlink:href="#e07733bfy" x="350.0057" y="252"/><use xlink:href="#e07733bfz" x="356.6727" y="252"/><use xlink:href="#e07733bfq" x="363.3397" y="252"/></g><g fill="#fff"><use xlink:href="#e07733bfA" x="113.3333" y="266"/><use xlink:href="#e07733bfm" x="120.0003" y="266"/><use xlink:href="#e07733bft" x="126.6673" y="266"/><use xlink:href="#e07733bfo" x="133.3343" y="266"/><use xlink:href="#e07733bfB" x="140.0013" y="266"/><use xlink:href="#e07733bfs" x="146.6683" y="266"/><use xlink:href="#e07733bfm" x="153.3353" y="266"/><use xlink:href="#e07733bfp" x="160.0023" y="266"/><use xlink:href="#e07733bfq" x="166.6693" y="266"/><use xlink:href="#e07733bfC" x="173.3363" y="266"/><use xlink:href="#e07733bfD" x="180.0033" y="266"/><use xlink:href="#e07733bfE" x="186.6703" y="266"/><use xlink:href="#e07733bfF" x="193.3373" y="266"/><use xlink:href="#e07733bfG" x="200.0043" y="266"/><use xlink:href="#e07733bfs" x="206.6713" y="266"/><use xlink:href="#e07733bfo" x="213.3383" y="266"/><use xlink:href="#e07733bfH" x="220.0053" y="266"/><use xlink:href="#e07733bfG" x="226.6723" y="266"/><use xlink:href="#e07733bfI" x="233.3393" y="266"/><use xlink:href="#e07733bfs" x="240.0063" y="266"/><use xlink:href="#e07733bft" x="246.6733" y="266"/><use xlink:href="#e07733bfJ" x="253.3403" y="266"/><use xlink:href="#e07733bfH" x="260.0073" y="266"/><use xlink:href="#e07733bfK" x="266.6743" y="266"/><use xlink:href="#e07733bfq" x="273.3413" y="266"/><use xlink:href="#e07733bfL" x="280.0083" y="266"/><use xlink:href="#e07733bft" x="286.6753" y="266"/><use xlink:href="#e07733bfr" x="293.3423" y="266"/><use xlink:href="#e07733bfM" x="300.0093" y="266"/><use xlink:href="#e07733bfN" x="306.6763" y="266"/><use xlink:href="#e07733bfI" x="313.3433" y="266"/><use xlink:href="#e07733bfq" x="320.0103" y="266"/><use xlink:href="#e07733bfO" x="326.6773" y="266"/><use xlink:href="#e07733bfG" x="333.3443" y="266"/><use xlink:href="#e07733bfs" x="340.0113" y="266"/><use xlink:href="#e07733bfq" x="346.6783" y="266"/><use xlink:href="#e07733bfP" x="353.3453" y="266"/><use xlink:href="#e07733bfm" x="360.0123" y="266"/><use xlink:href="#e07733bfs" x="366.6793" y="266"/><use xlink:href="#e07733bfQ" x="373.3463" y="266"/><use xlink:href="#e07733bft" x="380.0133" y="266"/><use xlink:href="#e07733bfN" x="386.6803" y="266"/><use xlink:href="#e07733bfq" x="393.3473" y="266"/><use xlink:href="#e07733bfm" x="400.0143" y="266"/><use xlink:href="#e07733bfr" x="406.6813" y="266"/><use xlink:href="#e07733bfR" x="413.3483" y="266"/><use xlink:href="#e07733bfm" x="420.0153" y="266"/><use xlink:href="#e07733bfo" x="426.6823" y="266"/><use xlink:href="#e07733bfo" x="433.3493" y="266"/><use xlink:href="#e07733bfq" x="440.0163" y="266"/><use xlink:href="#e07733bfS" x="446.6833" y="266"/><use xlink:href="#e07733bfr" x="453.3503" y="266"/><use xlink:href="#e07733bfr" x="460.0173" y="266"/><use xlink:href="#e07733bfT" x="466.6843" y="266"/><use xlink:href="#e07733bfU" x="473.3513" y="266"/><use xlink:href="#e07733bfV" x="480.0183" y="266"/></g></svg>