<?xml version='1.0' encoding='UTF-8'?>
<svg xmlns="http://www.w3.org/2000/svg" xmlns:xlink="http://www.w3.org/1999/xlink" width="600px" height="300px" viewBox="0 0 600 300" x="0px" y="0px" enable-background="new 0 0 600 300"><defs><symbol overflow="visible" id="be4e9d89a"><path d="M52.88-9.34v-6.49L36.2-27.7v-.46l16.67-11.86v-6.48L29-30.7v5.56zm-24.43 0v-6.49L11.78-27.7v-.46l16.67-11.86v-6.48L4.58-30.7v5.56zm0 0"/></symbol><symbol overflow="visible" id="be4e9d89b"><path d="M20.72-55.2c-2.6 0-4.47 1.37-4.47 4.36 0 2.97 1.88 4.3 4.47 4.3 2.67 0 4.5-1.34 4.5-4.3 0-2.99-1.83-4.36-4.5-4.36zm3.36 13.89h-6.19v3.81c0 5.69-3.58 8.47-7.28 11.4-4.1 3.2-8.33 6.6-8.33 14.27 0 9.13 6.35 14.5 17.06 14.5 12.29 0 17.7-5.45 19.35-16.44l-6.49-.65c-1.15 7.67-4.36 11.6-12.86 11.6-7.09 0-10.64-3.29-10.64-9.27 0-5.2 3.63-7.86 7.36-10.91 3.92-3.2 8.02-6.8 8.02-14.23zm0 0"/></symbol><symbol overflow="visible" id="be4e9d89c"><path d="M46.16 7.83h7.01l-8.31-10.5c7.14-4.53 11.1-12.94 11.1-24.4 0-17.84-9.54-28.24-25.74-28.24-16.19 0-25.67 10.4-25.67 28.23 0 17.81 9.48 28.22 25.67 28.22 3.47 0 6.6-.45 9.45-1.45zM30.22-4.73c-12.25 0-18.84-7.66-18.84-22.35 0-14.62 6.59-22.36 18.84-22.36 12.31 0 18.95 7.74 18.95 22.36 0 9.56-2.86 16.25-8.31 19.64l-7.4-9.47h-6.87L35.5-5.3c-1.62.38-3.37.57-5.27.57zm0 0"/></symbol><symbol overflow="visible" id="be4e9d89d"><path d="M29.19 1.14c13.73 0 21.62-6.83 21.62-22.39v-32.92h-6.8v32.2c0 13-5.13 17.2-14.82 17.2-9.66 0-14.82-4.2-14.82-17.2v-32.2H7.63v32.92c0 15.56 7.82 22.4 21.56 22.4zm0 0"/></symbol><symbol overflow="visible" id="be4e9d89e"><path d="M23.92-59.52h5.64l8.78-12.12h-7.51zm22.2 11.2v-5.85H8.45V0h37.69v-5.84H15.18v-18.77h25.97v-5.56H15.19v-18.16zm0 0"/></symbol><symbol overflow="visible" id="be4e9d89f"><path d="M15.6-13.23h6.23v-3.82c0-5.87 3.89-8.7 7.44-11.53 4.23-3.47 8.15-6.78 8.15-14.1 0-9.2-6.33-14.54-17.1-14.54-12.27 0-17.65 5.45-19.29 16.44l6.49.66c1.14-7.68 4.34-11.61 12.8-11.61 7.1 0 10.7 3.28 10.7 9.28 0 5.03-3.44 7.7-7.02 10.67-4.05 3.2-8.4 6.83-8.4 14.47zM18.96.66c2.6 0 4.52-1.38 4.52-4.36 0-2.97-1.92-4.32-4.52-4.32-2.65 0-4.45 1.35-4.45 4.32 0 2.98 1.8 4.36 4.45 4.36zm0 0"/></symbol><symbol overflow="visible" id="be4e9d89g"><path d="M30.52-46.5v6.48l16.67 11.83v.46l-16.67 11.9v6.49l23.89-15.8v-5.56zm-24.41 0v6.48l16.67 11.83v.46L6.11-15.83v6.49l23.87-15.8v-5.56zm0 0"/></symbol><symbol overflow="visible" id="be4e9d89h"><path d="M3.83 0v-5.95H6.2v-.82H.45v.82h2.4V0zm0 0"/></symbol><symbol overflow="visible" id="be4e9d89i"><path d="M5.75-2.23v-.43c0-1.6-.9-2.51-2.42-2.51S.87-4.16.87-2.48c0 1.71.91 2.62 2.5 2.62 1.43 0 2.07-.56 2.29-1.52l-.9-.09c-.18.61-.59.9-1.35.9-.94 0-1.52-.54-1.58-1.66zm-2.4-2.2c.93 0 1.43.5 1.48 1.55H1.84c.08-1.07.6-1.56 1.5-1.56zm0 0"/></symbol><symbol overflow="visible" id="be4e9d89j"><path d="M1.83 0l1.42-2h.06l1.46 2H5.8L4-2.53l1.78-2.49H4.8L3.42-3.08h-.08l-1.4-1.94H.89l1.78 2.49L.84 0zm0 0"/></symbol><symbol overflow="visible" id="be4e9d89k"><path d="M5.52-4.25v-.77H3.17v-1.56h-.81l-.14 1.56H.75v.77h1.47v2.4c0 1.3.48 1.94 1.84 1.94C4.6.1 5.14 0 5.55-.14L5.4-.91c-.32.13-.72.2-1.13.2-.8 0-1.1-.37-1.1-1.23v-2.31zm0 0"/></symbol><symbol overflow="visible" id="be4e9d89l"><path d="M3.33-3.42c.47 0 .8-.27.8-.8 0-.51-.33-.8-.8-.8-.47 0-.8.29-.8.8 0 .53.33.8.8.8zm0 3.5c.47 0 .8-.27.8-.78 0-.53-.33-.82-.8-.82-.47 0-.8.29-.8.82 0 .51.33.78.8.78zm0 0"/></symbol><symbol overflow="visible" id="be4e9d89n"><path d="M3.27-1.1L1.25-2.56v-.08l2.02-1.45v-.86L.45-3v.81L3.27-.23zm2.95 0L4.19-2.56v-.08l2.03-1.45v-.86L3.39-3v.81L6.22-.23zm0 0"/></symbol><symbol overflow="visible" id="be4e9d89o"><path d="M4.06-5.14c-.34 0-.6.2-.6.58 0 .37.26.58.6.58.36 0 .6-.2.6-.58 0-.38-.24-.58-.6-.58zm-.4 1.84v.52c0 .67-.47 1-.94 1.36-.49.37-1 .78-1 1.7 0 1.13.76 1.8 2.19 1.8 1.53 0 2.26-.66 2.45-2l-.92-.1C5.28.9 4.92 1.33 3.9 1.33c-.82 0-1.25-.4-1.25-1.08 0-.6.42-.94.87-1.28.47-.4.99-.8.99-1.66v-.6zm0 0"/></symbol><symbol overflow="visible" id="be4e9d89p"><path d="M6.1-3.38c0-2.26-.87-3.53-2.77-3.53S.58-5.64.58-3.37c0 2.25.86 3.51 2.75 3.51.39 0 .73-.05 1.03-.16l.56.99h1.03l-.8-1.44c.65-.6.94-1.58.94-2.9zM3.3-.67c-1.25 0-1.73-.94-1.73-2.7 0-1.76.5-2.71 1.75-2.71s1.75.95 1.75 2.71c0 .94-.14 1.65-.47 2.11l-.5-.89H3.08l.8 1.41c-.18.06-.35.08-.57.08zm0 0"/></symbol><symbol overflow="visible" id="be4e9d89q"><path d="M3.33.14c1.7 0 2.51-.86 2.51-2.69v-4.22h-.98v4.2c0 1.41-.47 1.9-1.53 1.9S1.8-1.16 1.8-2.57v-4.2H.8v4.22c0 1.83.81 2.7 2.52 2.7zm0 0"/></symbol><symbol overflow="visible" id="be4e9d89r"><path d="M3.86-7.31l1.31-1.82H4.2L3.1-7.3zm2.06.54H1.1V0h4.83v-.8H2.06v-2.26h3.22v-.75H2.06v-2.16h3.86zm0 0"/></symbol><symbol overflow="visible" id="be4e9d89s"><path d="M3.7-1.77v-.51c0-.67.47-1 .9-1.33.54-.4 1.06-.81 1.06-1.72 0-1.14-.77-1.81-2.2-1.81-1.52 0-2.26.66-2.44 2l.92.1c.15-.91.51-1.35 1.51-1.35.83 0 1.25.39 1.25 1.08 0 .6-.4.92-.84 1.26-.48.4-1 .8-1 1.67v.61zM3.3.08c.34 0 .6-.2.6-.58 0-.38-.26-.58-.6-.58-.35 0-.58.2-.58.58 0 .38.23.58.58.58zm0 0"/></symbol><symbol overflow="visible" id="be4e9d89t"><path d="M3.27-2.19V-3L.45-4.94v.86l2.02 1.46v.06L.45-1.11v.88zm2.95 0V-3L3.39-4.94v.86l2.03 1.46v.06L3.4-1.11v.88zm0 0"/></symbol><symbol overflow="visible" id="be4e9d89u"><path d="M5.95-6.77H1.1V0h.99v-2.92H5.3v-.77H2.08v-2.26h3.87zm0 0"/></symbol><symbol overflow="visible" id="be4e9d89v"><path d="M2.83.14c.94 0 1.5-.39 1.81-.95h.08l.1.81h.76v-3.38c0-1.23-.69-1.8-2.13-1.8-1.43 0-2.03.65-2.18 1.6l.93.1c.11-.6.44-.93 1.22-.93.85 0 1.22.32 1.22 1.04v.34l-1.81.2C1.6-2.7 1.1-2.17 1.1-1.28c0 .92.64 1.42 1.72 1.42zm.25-.77c-.67 0-1.02-.28-1.02-.74 0-.44.28-.72 1-.82l1.58-.19v.41c0 .8-.6 1.34-1.56 1.34zm0 0"/></symbol><symbol overflow="visible" id="be4e9d89w"><path d="M2.73.14c.9 0 1.43-.45 1.74-1.08h.06l.13.94h.8v-5.02h-.94v2.7c0 .98-.57 1.62-1.46 1.62-.75 0-1.1-.4-1.1-1.22v-3.1h-.93v3.32c0 1.17.55 1.84 1.7 1.84zm0 0"/></symbol><symbol overflow="visible" id="be4e9d89x"><path d="M5.08-5.16c-.94 0-1.58.43-1.9 1.3h-.09l-.07-1.16H1.05v.77h1.1v3.48H.96V0h3.96v-.77H3.1v-1.46c0-1.36.6-2.05 1.83-2.05.4 0 .76.08 1.1.17l.15-.87c-.33-.11-.7-.18-1.11-.18zm0 0"/></symbol><symbol overflow="visible" id="be4e9d89y"><path d="M3.42.14C5.1.14 5.9-.69 6.11-2.17l-.95-.1C4.96-1.19 4.5-.69 3.44-.69c-1.27 0-1.81-.94-1.81-2.69s.54-2.7 1.8-2.7c1.09 0 1.5.49 1.73 1.58l.93-.1c-.21-1.46-.95-2.3-2.62-2.3C1.53-6.9.62-5.6.62-3.38c0 2.2.91 3.51 2.8 3.51zm0 0"/></symbol><symbol overflow="visible" id="be4e9d89z"><path d="M3.36.16c1.4 0 2.2-.6 2.2-1.57 0-.89-.54-1.22-1.47-1.39L3-3c-.67-.14-.86-.33-.86-.73 0-.5.4-.74 1.17-.74.83 0 1.19.27 1.27.8l.9-.05c-.12-1-.8-1.47-2.17-1.47-1.34 0-2.1.53-2.1 1.5 0 .81.45 1.22 1.52 1.44l1.04.2c.56.11.87.24.87.72 0 .52-.45.78-1.28.78-.95 0-1.36-.28-1.42-.87l-.9.06C1.07-.36 1.8.16 3.35.16zm0 0"/></symbol><symbol overflow="visible" id="be4e9d89A"><path d="M5.33-2.2v-.75h-4v.75zm0 0"/></symbol><symbol overflow="visible" id="be4e9d89B"><path d="M2.16 0v-2.67c0-.99.59-1.63 1.46-1.63.74 0 1.07.38 1.07 1.22V0h.95v-3.31c0-1.2-.56-1.85-1.67-1.85-.92 0-1.49.46-1.77 1.08h-.06l-.12-.94H1.2V0zm0 0"/></symbol><symbol overflow="visible" id="be4e9d89C"><path d="M3.58-5.81c.42 0 .72-.22.72-.67 0-.44-.3-.68-.72-.68-.44 0-.72.24-.72.68 0 .45.28.67.72.67zm.5.8H1.52v.76h1.6v3.48h-1.8V0h4.46v-.77h-1.7zm0 0"/></symbol><symbol overflow="visible" id="be4e9d89D"><path d="M3.9 0l2-5.02h-.96L3.4-.94h-.07L1.8-5.02H.77L2.78 0zm0 0"/></symbol><symbol overflow="visible" id="be4e9d89E"><path d="M4.63-6.5c.45 0 .98.08 1.39.2l.2-.72a5.3 5.3 0 00-1.64-.26c-1.52 0-2.16.56-2.16 1.87v.4H.9v.76h1.53V0h.94v-4.25h2.53v-.77H3.36v-.3c0-.84.33-1.18 1.27-1.18zm0 0"/></symbol><symbol overflow="visible" id="be4e9d89F"><path d="M3.33.14c1.62 0 2.5-.95 2.5-2.66 0-1.68-.88-2.64-2.5-2.64-1.63 0-2.5.96-2.5 2.64 0 1.7.87 2.66 2.5 2.66zm0-.77c-1.06 0-1.52-.6-1.52-1.89 0-1.28.46-1.87 1.52-1.87 1.08 0 1.53.6 1.53 1.87 0 1.29-.45 1.9-1.53 1.9zm0 0"/></symbol><symbol overflow="visible" id="be4e9d89G"><path d="M1.63 0v-2.9c0-.8.15-1.4.71-1.4.41 0 .55.3.55.88V0h.95v-2.9c0-.8.18-1.4.72-1.4.4 0 .57.3.57.88V0h.95v-3.63c0-.92-.28-1.53-1.11-1.53-.63 0-.95.41-1.1.9h-.06c-.1-.52-.44-.9-1.08-.9-.6 0-.93.41-1.06.9H1.6l-.23-.76H.67V0zm0 0"/></symbol><symbol overflow="visible" id="be4e9d89H"><path d="M1.45-2.95c0 2.56 1.08 4.37 3.67 4.84l.11-.67C3.28.86 2.43-.75 2.43-2.95s.85-3.82 2.8-4.16l-.1-.69c-2.6.49-3.68 2.3-3.68 4.85zm0 0"/></symbol><symbol overflow="visible" id="be4e9d89I"><path d="M3.34.14c1.43 0 2.13-.66 2.25-1.78l-.89-.1c-.1.7-.5 1.08-1.34 1.08-1.03 0-1.52-.64-1.52-1.84 0-1.23.47-1.86 1.52-1.86.84 0 1.23.36 1.34 1.08l.9-.1c-.13-1.09-.82-1.78-2.26-1.78-1.56 0-2.46.97-2.46 2.66 0 1.66.9 2.64 2.46 2.64zm0 0"/></symbol><symbol overflow="visible" id="be4e9d89J"><path d="M1.45-7.1c1.96.33 2.8 1.94 2.8 4.15 0 2.2-.84 3.8-2.8 4.17l.11.67c2.58-.47 3.67-2.28 3.67-4.84 0-2.55-1.09-4.36-3.67-4.85zm0 0"/></symbol></defs><use xlink:href="#be4e9d89a" x="116.9843" y="160.5" fill="#fff"/><use xlink:href="#be4e9d89b" x="175.9613" y="160.5" fill="#fff"/><g fill="#515151"><use xlink:href="#be4e9d89c" x="215.6735" y="160.5"/><use xlink:href="#be4e9d89d" x="275.3723" y="160.5"/></g><use xlink:href="#be4e9d89e" x="333.8351" y="160.5" fill="#515151"/><use xlink:href="#be4e9d89f" x="384.3265" y="160.5" fill="#fff"/><use xlink:href="#be4e9d89g" x="424.0387" y="160.5" fill="#fff"/><g fill="#fff"><use xlink:href="#be4e9d89h" x="256.6667" y="252"/><use xlink:href="#be4e9d89i" x="263.3337" y="252"/><use xlink:href="#be4e9d89j" x="270.0007" y="252"/><use xlink:href="#be4e9d89k" x="276.6677" y="252"/><use xlink:href="#be4e9d89l" x="283.3347" y="252"/><use xlink:href="#be4e9d89m" x="290.0017" y="252"/><use xlink:href="#be4e9d89n" x="296.6687" y="252"/><use xlink:href="#be4e9d89o" x="303.3357" y="252"/><use xlink:href="#be4e9d89p" x="310.0027" y="252"/><use xlink:href="#be4e9d89q" x="316.6697" y="252"/><use xlink:href="#be4e9d89r" x="323.3367" y="252"/><use xlink:href="#be4e9d89s" x="330.0037" y="252"/><use xlink:href="#be4e9d89t" x="336.6707" y="252"/></g><g fill="#fff"><use xlink:href="#be4e9d89u" x="180" y="266"/><use xlink:href="#be4e9d89i" x="186.667" y="266"/><use xlink:href="#be4e9d89v" x="193.334" y="266"/><use xlink:href="#be4e9d89k" x="200.001" y="266"/><use xlink:href="#be4e9d89w" x="206.668" y="266"/><use xlink:href="#be4e9d89x" x="213.335" y="266"/><use xlink:href="#be4e9d89i" x="220.002" y="266"/><use xlink:href="#be4e9d89l" x="226.669" y="266"/><use xlink:href="#be4e9d89m" x="233.336" y="266"/><use xlink:href="#be4e9d89y" x="240.003" y="266"/><use xlink:href="#be4e9d89v" x="246.67" y="266"/><use xlink:href="#be4e9d89z" x="253.337" y="266"/><use xlink:href="#be4e9d89i" x="260.004" y="266"/><use xlink:href="#be4e9d89A" x="266.671" y="266"/><use xlink:href="#be4e9d89z" x="273.338" y="266"/><use xlink:href="#be4e9d89i" x="280.005" y="266"/><use xlink:href="#be4e9d89B" x="286.672" y="266"/><use xlink:href="#be4e9d89z" x="293.339" y="266"/><use xlink:href="#be4e9d89C" x="300.006" y="266"/><use xlink:href="#be4e9d89k" x="306.673" y="266"/><use xlink:href="#be4e9d89C" x="313.34" y="266"/><use xlink:href="#be4e9d89D" x="320.007" y="266"/><use xlink:href="#be4e9d89i" x="326.674" y="266"/><use xlink:href="#be4e9d89m" x="333.341" y="266"/><use xlink:href="#be4e9d89E" x="340.008" y="266"/><use xlink:href="#be4e9d89F" x="346.675" y="266"/><use xlink:href="#be4e9d89x" x="353.342" y="266"/><use xlink:href="#be4e9d89G" x="360.009" y="266"/><use xlink:href="#be4e9d89z" x="366.676" y="266"/><use xlink:href="#be4e9d89m" x="373.343" y="266"/><use xlink:href="#be4e9d89H" x="380.01" y="266"/><use xlink:href="#be4e9d89I" x="386.677" y="266"/><use xlink:href="#be4e9d89v" x="393.344" y="266"/><use xlink:href="#be4e9d89z" x="400.011" y="266"/><use xlink:href="#be4e9d89i" x="406.678" y="266"/><use xlink:href="#be4e9d89J" x="413.345" y="266"/></g></svg>