<?xml version='1.0' encoding='UTF-8'?>
<svg xmlns="http://www.w3.org/2000/svg" xmlns:xlink="http://www.w3.org/1999/xlink" width="600px" height="300px" viewBox="0 0 600 300" x="0px" y="0px" enable-background="new 0 0 600 300"><defs><symbol overflow="visible" id="d1e6f4e0a"><path d="M18.05 0h6.72v-48.33h17.6v-5.84h-42v5.84h17.68zm0 0"/></symbol><symbol overflow="visible" id="d1e6f4e0b"><path d="M23.13 1.14c12.12 0 19.1-7.6 19.1-21.28 0-13.63-6.98-21.17-19.1-21.17-12.1 0-19.05 7.54-19.05 21.17 0 13.69 6.95 21.28 19.05 21.28zm0-5.6c-8.33 0-12.41-5.27-12.41-15.68 0-10.38 4.08-15.53 12.4-15.53 8.35 0 12.47 5.15 12.47 15.53 0 10.4-4.12 15.67-12.47 15.67zm0 0"/></symbol><symbol overflow="visible" id="d1e6f4e0c"><path d="M16.06-34.6h12.78v-5.57H16.06v-12.47h-5.08l-1.4 12.47H1.3v5.58h8.28v23.03C9.58-3.31 13.39.92 21.86.92c2.6 0 5.27-.5 7.17-1.08l-.72-5.37c-1.42.37-3.17.76-5.15.76-4.7 0-7.1-1.82-7.1-7.4zm0 0"/></symbol><symbol overflow="visible" id="d1e6f4e0d"><path d="M17.52 1.1c6.75 0 11.28-2.82 13.5-7.4h.37l.69 6.3h5.42v-27.31c0-9.66-5.42-14.05-15.8-14.05-10.56 0-15.1 4.78-16.25 12.4l6.4.59c.82-4.82 3.37-7.65 9.78-7.65 6.56 0 9.57 2.72 9.57 9v2.8l-13.54 1.75C7.96-21.25 3.8-17.66 3.8-10.37c0 7.2 4.77 11.48 13.7 11.48zm1.3-5.3c-5.88 0-8.4-2.47-8.4-6.6 0-3.8 2.17-6.03 7.74-6.8l13.04-1.82v3.86C31.2-9 26.52-4.2 18.81-4.2zm0 0"/></symbol><symbol overflow="visible" id="d1e6f4e0e"><path d="M7.28 0h6.49v-57.22H7.28zm0 0"/></symbol><symbol overflow="visible" id="d1e6f4e0f"><path d="M9.92-31.05c2.7 0 4.69-1.5 4.69-4.57 0-3.1-1.98-4.55-4.69-4.55-2.78 0-4.7 1.45-4.7 4.55 0 3.07 1.92 4.57 4.7 4.57zm0 31.7c2.7 0 4.69-1.5 4.69-4.57 0-3.14-1.98-4.55-4.69-4.55-2.78 0-4.7 1.4-4.7 4.55C5.22-.84 7.14.66 9.92.66zm0 0"/></symbol><symbol overflow="visible" id="d1e6f4e0h"><path d="M25.94 1.27c13.1 0 21.17-5.82 21.17-15.58 0-8.31-6.4-12.66-11.22-13.77v-.34c3.75-1.14 9.28-4.61 9.28-12.52 0-9-7.4-14.42-19.23-14.42-11.78 0-19.14 5.42-19.14 14.42 0 7.78 5.37 11.3 9.18 12.52v.34c-4.6 1.11-11.14 5.24-11.14 13.77 0 9.76 8.1 15.58 21.1 15.58zm0-31.86c-8.42 0-12.63-3.94-12.63-9.66 0-6.67 4.42-9.6 12.63-9.6 8.2 0 12.7 2.93 12.7 9.6 0 5.72-4.27 9.66-12.7 9.66zm0 26.32c-9.27 0-14.5-3.62-14.5-10.65 0-6.56 4.97-10.38 14.5-10.38 9.54 0 14.53 3.82 14.53 10.38 0 7.03-5.27 10.65-14.53 10.65zm0 0"/></symbol><symbol overflow="visible" id="d1e6f4e0i"><path d="M23.77 1.14c12.06 0 19.37-6.67 19.37-18.66 0-11.32-6.56-17.54-16.86-17.54-6.48 0-10.75 2.48-13.95 6.22h-.4l2.6-19.49h25.25v-5.84H9.27L5.72-22.81h5.53c2.48-3.05 7.3-6.75 13.4-6.75 7.7 0 11.93 3.65 11.93 12.31 0 8.6-4.72 12.86-12.81 12.86-6.86 0-10.96-2.7-12.55-8.31l-6.53.6C5.77-3.4 13.02 1.15 23.77 1.15zm0 0"/></symbol><symbol overflow="visible" id="d1e6f4e0j"><path d="M15.38 0h6.48v-54.17h-5.23c-4.7 1.83-9.38 3.65-14.07 5.5v5.9c4.27-1.45 8.53-2.96 12.81-4.42zm0 0"/></symbol><symbol overflow="visible" id="d1e6f4e0k"><path d="M25.56 1.14c12.25 0 19.35-6.75 19.35-18.34 0-11.25-6.99-17.47-17.7-17.47-8.1 0-12.94 4.19-15.35 8.73h-.34c.42-14 3.09-23.68 14.57-23.68 7.36 0 10.2 3.46 11.33 7.89l6.56-.72c-1.67-7.3-6.82-12.86-17.85-12.86-13.05 0-20.68 8.42-20.68 30.78 0 17.6 7.52 25.67 20.11 25.67zm.11-5.48c-7.78 0-12.6-5.05-12.6-12.33 0-7.6 5.66-12.67 13.05-12.67 7.83 0 12.33 4.39 12.33 12.51 0 8.25-4.87 12.49-12.78 12.49zm0 0"/></symbol><symbol overflow="visible" id="d1e6f4e0l"><path d="M3.83 0v-5.95H6.2v-.82H.45v.82h2.4V0zm0 0"/></symbol><symbol overflow="visible" id="d1e6f4e0m"><path d="M5.75-2.23v-.43c0-1.6-.9-2.51-2.42-2.51S.87-4.16.87-2.48c0 1.71.91 2.62 2.5 2.62 1.43 0 2.07-.56 2.29-1.52l-.9-.09c-.18.61-.59.9-1.35.9-.94 0-1.52-.54-1.58-1.66zm-2.4-2.2c.93 0 1.43.5 1.48 1.55H1.84c.08-1.07.6-1.56 1.5-1.56zm0 0"/></symbol><symbol overflow="visible" id="d1e6f4e0n"><path d="M1.83 0l1.42-2h.06l1.46 2H5.8L4-2.53l1.78-2.49H4.8L3.42-3.08h-.08l-1.4-1.94H.89l1.78 2.49L.84 0zm0 0"/></symbol><symbol overflow="visible" id="d1e6f4e0o"><path d="M5.52-4.25v-.77H3.17v-1.56h-.81l-.14 1.56H.75v.77h1.47v2.4c0 1.3.48 1.94 1.84 1.94C4.6.1 5.14 0 5.55-.14L5.4-.91c-.32.13-.72.2-1.13.2-.8 0-1.1-.37-1.1-1.23v-2.31zm0 0"/></symbol><symbol overflow="visible" id="d1e6f4e0p"><path d="M3.33-3.42c.47 0 .8-.27.8-.8 0-.51-.33-.8-.8-.8-.47 0-.8.29-.8.8 0 .53.33.8.8.8zm0 3.5c.47 0 .8-.27.8-.78 0-.53-.33-.82-.8-.82-.47 0-.8.29-.8.82 0 .51.33.78.8.78zm0 0"/></symbol><symbol overflow="visible" id="d1e6f4e0r"><path d="M3.33.14c1.62 0 2.5-.95 2.5-2.66 0-1.68-.88-2.64-2.5-2.64-1.63 0-2.5.96-2.5 2.64 0 1.7.87 2.66 2.5 2.66zm0-.77c-1.06 0-1.52-.6-1.52-1.89 0-1.28.46-1.87 1.52-1.87 1.08 0 1.53.6 1.53 1.87 0 1.29-.45 1.9-1.53 1.9zm0 0"/></symbol><symbol overflow="visible" id="d1e6f4e0s"><path d="M2.83.14c.94 0 1.5-.39 1.81-.95h.08l.1.81h.76v-3.38c0-1.23-.69-1.8-2.13-1.8-1.43 0-2.03.65-2.18 1.6l.93.1c.11-.6.44-.93 1.22-.93.85 0 1.22.32 1.22 1.04v.34l-1.81.2C1.6-2.7 1.1-2.17 1.1-1.28c0 .92.64 1.42 1.72 1.42zm.25-.77c-.67 0-1.02-.28-1.02-.74 0-.44.28-.72 1-.82l1.58-.19v.41c0 .8-.6 1.34-1.56 1.34zm0 0"/></symbol><symbol overflow="visible" id="d1e6f4e0t"><path d="M3.92-7.14H1.36v.76h1.6v5.61H1.15V0H5.7v-.77H3.92zm0 0"/></symbol><symbol overflow="visible" id="d1e6f4e0u"><path d="M3.33.16c1.69 0 2.69-.74 2.69-1.94 0-1.05-.8-1.58-1.43-1.72v-.05c.5-.14 1.2-.58 1.2-1.56 0-1.12-.95-1.81-2.46-1.81-1.52 0-2.46.69-2.46 1.81 0 .97.68 1.4 1.18 1.56v.05c-.6.14-1.4.64-1.4 1.72 0 1.2 1 1.94 2.68 1.94zm0-4.04c-.97 0-1.49-.43-1.49-1.12 0-.78.52-1.1 1.49-1.1.95 0 1.48.32 1.48 1.1 0 .69-.53 1.13-1.48 1.13zm0 3.24c-1.1 0-1.7-.42-1.7-1.25 0-.78.6-1.2 1.7-1.2s1.7.42 1.7 1.2c0 .83-.6 1.25-1.7 1.25zm0 0"/></symbol><symbol overflow="visible" id="d1e6f4e0v"><path d="M3.42.14c1.55 0 2.44-.84 2.44-2.33 0-1.45-.83-2.22-2.14-2.22-.75 0-1.28.27-1.67.72H2l.31-2.22h3.11v-.86H1.53l-.45 3.93h.81c.3-.36.9-.79 1.58-.79.92 0 1.44.43 1.44 1.47 0 .99-.54 1.5-1.49 1.5-.83 0-1.28-.32-1.5-1.01l-.95.1C1.07-.46 2 .13 3.42.13zm0 0"/></symbol><symbol overflow="visible" id="d1e6f4e0w"><path d="M4.22-6.77h-.86l-2.03.7v.87c.64-.17 1.26-.38 1.89-.55v4.9H1.03V0h4.9v-.86H4.21zm0 0"/></symbol><symbol overflow="visible" id="d1e6f4e0x"><path d="M3.42.14c1.58 0 2.49-.86 2.49-2.3 0-1.42-.86-2.17-2.22-2.17-1.03 0-1.58.5-1.9 1.02h-.04c.03-1.63.4-2.77 1.73-2.77.91 0 1.24.44 1.36.96l.97-.11c-.23-.96-.86-1.68-2.33-1.68C1.84-6.9.86-5.86.86-3.1.86-.9 1.78.14 3.42.14zm.02-.78c-.9 0-1.47-.55-1.47-1.47 0-.9.7-1.47 1.53-1.47.92 0 1.47.52 1.47 1.47 0 .97-.6 1.47-1.53 1.47zm0 0"/></symbol><symbol overflow="visible" id="d1e6f4e0y"><path d="M5.95-6.77H1.1V0h.99v-2.92H5.3v-.77H2.08v-2.26h3.87zm0 0"/></symbol><symbol overflow="visible" id="d1e6f4e0z"><path d="M2.73.14c.9 0 1.43-.45 1.74-1.08h.06l.13.94h.8v-5.02h-.94v2.7c0 .98-.57 1.62-1.46 1.62-.75 0-1.1-.4-1.1-1.22v-3.1h-.93v3.32c0 1.17.55 1.84 1.7 1.84zm0 0"/></symbol><symbol overflow="visible" id="d1e6f4e0A"><path d="M5.08-5.16c-.94 0-1.58.43-1.9 1.3h-.09l-.07-1.16H1.05v.77h1.1v3.48H.96V0h3.96v-.77H3.1v-1.46c0-1.36.6-2.05 1.83-2.05.4 0 .76.08 1.1.17l.15-.87c-.33-.11-.7-.18-1.11-.18zm0 0"/></symbol><symbol overflow="visible" id="d1e6f4e0B"><path d="M2.08-6.77h-.99V0h4.79v-.81h-3.8zm0 0"/></symbol><symbol overflow="visible" id="d1e6f4e0C"><path d="M3.58-5.81c.42 0 .72-.22.72-.67 0-.44-.3-.68-.72-.68-.44 0-.72.24-.72.68 0 .45.28.67.72.67zm.5.8H1.52v.76h1.6v3.48h-1.8V0h4.46v-.77h-1.7zm0 0"/></symbol><symbol overflow="visible" id="d1e6f4e0D"><path d="M2.16 0v-2.67c0-.99.59-1.63 1.46-1.63.74 0 1.07.38 1.07 1.22V0h.95v-3.31c0-1.2-.56-1.85-1.67-1.85-.92 0-1.49.46-1.77 1.08h-.06l-.12-.94H1.2V0zm0 0"/></symbol><symbol overflow="visible" id="d1e6f4e0E"><path d="M3.16 2.03c1.67 0 2.4-.86 2.4-2.51v-4.54h-.81l-.13.91h-.06c-.26-.58-.8-1.05-1.73-1.05-1.42 0-2.24 1-2.24 2.52 0 1.6.75 2.56 2.2 2.56.94 0 1.5-.5 1.77-1.03h.05v.72c0 1.17-.42 1.67-1.45 1.67-.93 0-1.3-.34-1.41-.89L.8.5c.12.96.87 1.54 2.36 1.54zM3.06-.8c-.98 0-1.48-.57-1.48-1.82 0-1.13.5-1.75 1.48-1.75 1.06 0 1.58.76 1.58 1.75 0 .95-.56 1.82-1.58 1.82zm0 0"/></symbol><symbol overflow="visible" id="d1e6f4e0F"><path d="M1.63 0v-2.9c0-.8.15-1.4.71-1.4.41 0 .55.3.55.88V0h.95v-2.9c0-.8.18-1.4.72-1.4.4 0 .57.3.57.88V0h.95v-3.63c0-.92-.28-1.53-1.11-1.53-.63 0-.95.41-1.1.9h-.06c-.1-.52-.44-.9-1.08-.9-.6 0-.93.41-1.06.9H1.6l-.23-.76H.67V0zm0 0"/></symbol><symbol overflow="visible" id="d1e6f4e0G"><path d="M3.36.16c1.4 0 2.2-.6 2.2-1.57 0-.89-.54-1.22-1.47-1.39L3-3c-.67-.14-.86-.33-.86-.73 0-.5.4-.74 1.17-.74.83 0 1.19.27 1.27.8l.9-.05c-.12-1-.8-1.47-2.17-1.47-1.34 0-2.1.53-2.1 1.5 0 .81.45 1.22 1.52 1.44l1.04.2c.56.11.87.24.87.72 0 .52-.45.78-1.28.78-.95 0-1.36-.28-1.42-.87l-.9.06C1.07-.36 1.8.16 3.35.16zm0 0"/></symbol><symbol overflow="visible" id="d1e6f4e0H"><path d="M1.45-2.95c0 2.56 1.08 4.37 3.67 4.84l.11-.67C3.28.86 2.43-.75 2.43-2.95s.85-3.82 2.8-4.16l-.1-.69c-2.6.49-3.68 2.3-3.68 4.85zm0 0"/></symbol><symbol overflow="visible" id="d1e6f4e0I"><path d="M2.84.14C3.8.14 4.33-.26 4.6-.9h.07L4.8 0h.76v-7.14h-.95v2.95h-.08c-.28-.6-.86-.97-1.67-.97-1.48 0-2.27.99-2.27 2.64C.6-.84 1.36.14 2.84.14zm.22-.8c-.98 0-1.48-.59-1.48-1.84s.5-1.86 1.48-1.86c1.13 0 1.58.8 1.58 1.86S4.2-.66 3.06-.66zm0 0"/></symbol><symbol overflow="visible" id="d1e6f4e0J"><path d="M4.63-6.5c.45 0 .98.08 1.39.2l.2-.72a5.3 5.3 0 00-1.64-.26c-1.52 0-2.16.56-2.16 1.87v.4H.9v.76h1.53V0h.94v-4.25h2.53v-.77H3.36v-.3c0-.84.33-1.18 1.27-1.18zm0 0"/></symbol><symbol overflow="visible" id="d1e6f4e0K"><path d="M1.45-7.1c1.96.33 2.8 1.94 2.8 4.15 0 2.2-.84 3.8-2.8 4.17l.11.67c2.58-.47 3.67-2.28 3.67-4.84 0-2.55-1.09-4.36-3.67-4.85zm0 0"/></symbol></defs><g fill="#515151"><use xlink:href="#d1e6f4e0a" x="98.67315" y="160.5"/><use xlink:href="#d1e6f4e0b" x="138.00885" y="160.5"/></g><use xlink:href="#d1e6f4e0c" x="184.24555" y="160.5" fill="#515151"/><use xlink:href="#d1e6f4e0d" x="215.75325" y="160.5" fill="#515151"/><use xlink:href="#d1e6f4e0e" x="259.82695" y="160.5" fill="#515151"/><use xlink:href="#d1e6f4e0f" x="280.82865" y="160.5" fill="#515151"/><use xlink:href="#d1e6f4e0g" x="300.69735" y="160.5" fill="#515151"/><use xlink:href="#d1e6f4e0h" x="321.5728" y="160.5" fill="#fff"/><g fill="#fff"><use xlink:href="#d1e6f4e0i" x="373.114" y="160.5"/><use xlink:href="#d1e6f4e0j" x="419.773" y="160.5"/></g><use xlink:href="#d1e6f4e0k" x="451.7751" y="160.5" fill="#fff"/><g fill="#fff"><use xlink:href="#d1e6f4e0l" x="243.3333" y="252"/><use xlink:href="#d1e6f4e0m" x="250.0003" y="252"/><use xlink:href="#d1e6f4e0n" x="256.6673" y="252"/><use xlink:href="#d1e6f4e0o" x="263.3343" y="252"/><use xlink:href="#d1e6f4e0p" x="270.0013" y="252"/><use xlink:href="#d1e6f4e0q" x="276.6683" y="252"/><use xlink:href="#d1e6f4e0l" x="283.3353" y="252"/><use xlink:href="#d1e6f4e0r" x="290.0023" y="252"/><use xlink:href="#d1e6f4e0o" x="296.6693" y="252"/><use xlink:href="#d1e6f4e0s" x="303.3363" y="252"/><use xlink:href="#d1e6f4e0t" x="310.0033" y="252"/><use xlink:href="#d1e6f4e0p" x="316.6703" y="252"/><use xlink:href="#d1e6f4e0q" x="323.3373" y="252"/><use xlink:href="#d1e6f4e0u" x="330.0043" y="252"/><use xlink:href="#d1e6f4e0v" x="336.6713" y="252"/><use xlink:href="#d1e6f4e0w" x="343.3383" y="252"/><use xlink:href="#d1e6f4e0x" x="350.0053" y="252"/></g><g fill="#fff"><use xlink:href="#d1e6f4e0y" x="186.6667" y="266"/><use xlink:href="#d1e6f4e0m" x="193.3337" y="266"/><use xlink:href="#d1e6f4e0s" x="200.0007" y="266"/><use xlink:href="#d1e6f4e0o" x="206.6677" y="266"/><use xlink:href="#d1e6f4e0z" x="213.3347" y="266"/><use xlink:href="#d1e6f4e0A" x="220.0017" y="266"/><use xlink:href="#d1e6f4e0m" x="226.6687" y="266"/><use xlink:href="#d1e6f4e0p" x="233.3357" y="266"/><use xlink:href="#d1e6f4e0q" x="240.0027" y="266"/><use xlink:href="#d1e6f4e0B" x="246.6697" y="266"/><use xlink:href="#d1e6f4e0C" x="253.3367" y="266"/><use xlink:href="#d1e6f4e0D" x="260.0037" y="266"/><use xlink:href="#d1e6f4e0C" x="266.6707" y="266"/><use xlink:href="#d1e6f4e0D" x="273.3377" y="266"/><use xlink:href="#d1e6f4e0E" x="280.0047" y="266"/><use xlink:href="#d1e6f4e0q" x="286.6717" y="266"/><use xlink:href="#d1e6f4e0D" x="293.3387" y="266"/><use xlink:href="#d1e6f4e0z" x="300.0057" y="266"/><use xlink:href="#d1e6f4e0F" x="306.6727" y="266"/><use xlink:href="#d1e6f4e0m" x="313.3397" y="266"/><use xlink:href="#d1e6f4e0A" x="320.0067" y="266"/><use xlink:href="#d1e6f4e0s" x="326.6737" y="266"/><use xlink:href="#d1e6f4e0t" x="333.3407" y="266"/><use xlink:href="#d1e6f4e0G" x="340.0077" y="266"/><use xlink:href="#d1e6f4e0q" x="346.6747" y="266"/><use xlink:href="#d1e6f4e0H" x="353.3417" y="266"/><use xlink:href="#d1e6f4e0I" x="360.0087" y="266"/><use xlink:href="#d1e6f4e0m" x="366.6757" y="266"/><use xlink:href="#d1e6f4e0J" x="373.3427" y="266"/><use xlink:href="#d1e6f4e0s" x="380.0097" y="266"/><use xlink:href="#d1e6f4e0z" x="386.6767" y="266"/><use xlink:href="#d1e6f4e0t" x="393.3437" y="266"/><use xlink:href="#d1e6f4e0o" x="400.0107" y="266"/><use xlink:href="#d1e6f4e0K" x="406.6777" y="266"/></g></svg>