<?xml version='1.0' encoding='UTF-8'?>
<svg xmlns="http://www.w3.org/2000/svg" xmlns:xlink="http://www.w3.org/1999/xlink" width="600px" height="300px" viewBox="0 0 600 300" x="0px" y="0px" enable-background="new 0 0 600 300"><defs><symbol overflow="visible" id="173e28c8a"><path d="M17.52 1.1c6.75 0 11.28-2.82 13.5-7.4h.37l.69 6.3h5.42v-27.31c0-9.66-5.42-14.05-15.8-14.05-10.56 0-15.1 4.78-16.25 12.4l6.4.59c.82-4.82 3.37-7.65 9.78-7.65 6.56 0 9.57 2.72 9.57 9v2.8l-13.54 1.75C7.96-21.25 3.8-17.66 3.8-10.37c0 7.2 4.77 11.48 13.7 11.48zm1.3-5.3c-5.88 0-8.4-2.47-8.4-6.6 0-3.8 2.17-6.03 7.74-6.8l13.04-1.82v3.86C31.2-9 26.52-4.2 18.81-4.2zm0 0"/></symbol><symbol overflow="visible" id="173e28c8b"><path d="M7.28 0h6.49v-21.97c0-8.05 5.18-13.39 12.21-13.39 6.02 0 8.9 3.4 8.9 10.33V0h6.48v-26.94c0-9.26-4.7-14.37-13.47-14.37-6.83 0-11.22 3.44-13.89 8.2h-.38l-.92-7.06H7.28zm0 0"/></symbol><symbol overflow="visible" id="173e28c8c"><path d="M32.34-40.17L20.6-6.07h-.34L7.52-40.16H.5L17.13 2.7 12.25 15H19l20.1-55.17zm0 0"/></symbol><symbol overflow="visible" id="173e28c8d"><path d="M14.23 0h8.13l9.72-32.55h.23L42.05 0h8.12l12.97-40.17h-6.48L46.6-6.8h-.4l-9.85-33.37h-7.78L18.8-6.8h-.39L8.28-40.17H1.27zm0 0"/></symbol><symbol overflow="visible" id="173e28c8e"><path d="M3.83 0v-5.95H6.2v-.82H.45v.82h2.4V0zm0 0"/></symbol><symbol overflow="visible" id="173e28c8f"><path d="M5.75-2.23v-.43c0-1.6-.9-2.51-2.42-2.51S.87-4.16.87-2.48c0 1.71.91 2.62 2.5 2.62 1.43 0 2.07-.56 2.29-1.52l-.9-.09c-.18.61-.59.9-1.35.9-.94 0-1.52-.54-1.58-1.66zm-2.4-2.2c.93 0 1.43.5 1.48 1.55H1.84c.08-1.07.6-1.56 1.5-1.56zm0 0"/></symbol><symbol overflow="visible" id="173e28c8g"><path d="M1.83 0l1.42-2h.06l1.46 2H5.8L4-2.53l1.78-2.49H4.8L3.42-3.08h-.08l-1.4-1.94H.89l1.78 2.49L.84 0zm0 0"/></symbol><symbol overflow="visible" id="173e28c8h"><path d="M5.52-4.25v-.77H3.17v-1.56h-.81l-.14 1.56H.75v.77h1.47v2.4c0 1.3.48 1.94 1.84 1.94C4.6.1 5.14 0 5.55-.14L5.4-.91c-.32.13-.72.2-1.13.2-.8 0-1.1-.37-1.1-1.23v-2.31zm0 0"/></symbol><symbol overflow="visible" id="173e28c8i"><path d="M3.33-3.42c.47 0 .8-.27.8-.8 0-.51-.33-.8-.8-.8-.47 0-.8.29-.8.8 0 .53.33.8.8.8zm0 3.5c.47 0 .8-.27.8-.78 0-.53-.33-.82-.8-.82-.47 0-.8.29-.8.82 0 .51.33.78.8.78zm0 0"/></symbol><symbol overflow="visible" id="173e28c8k"><path d="M2.83.14c.94 0 1.5-.39 1.81-.95h.08l.1.81h.76v-3.38c0-1.23-.69-1.8-2.13-1.8-1.43 0-2.03.65-2.18 1.6l.93.1c.11-.6.44-.93 1.22-.93.85 0 1.22.32 1.22 1.04v.34l-1.81.2C1.6-2.7 1.1-2.17 1.1-1.28c0 .92.64 1.42 1.72 1.42zm.25-.77c-.67 0-1.02-.28-1.02-.74 0-.44.28-.72 1-.82l1.58-.19v.41c0 .8-.6 1.34-1.56 1.34zm0 0"/></symbol><symbol overflow="visible" id="173e28c8l"><path d="M2.16 0v-2.67c0-.99.59-1.63 1.46-1.63.74 0 1.07.38 1.07 1.22V0h.95v-3.31c0-1.2-.56-1.85-1.67-1.85-.92 0-1.49.46-1.77 1.08h-.06l-.12-.94H1.2V0zm0 0"/></symbol><symbol overflow="visible" id="173e28c8m"><path d="M3.42-.86h-.08L1.77-5.02H.8L2.73 0h.41c-.33.95-.72 1.27-1.45 1.27-.22 0-.49-.04-.69-.08l-.1.73c.2.06.58.11.87.11 1.2 0 1.7-.7 2.21-2.03l1.94-5.02H5zm0 0"/></symbol><symbol overflow="visible" id="173e28c8n"><path d="M2.44 0l.87-3.31h.06L4.25 0H5.3l1.03-5.02h-.88l-.73 3.94h-.08L3.77-4.4h-.85l-.87 3.33h-.08l-.75-3.94H.34L1.36 0zm0 0"/></symbol><symbol overflow="visible" id="173e28c8o"><path d="M5.95-6.77H1.1V0h.99v-2.92H5.3v-.77H2.08v-2.26h3.87zm0 0"/></symbol><symbol overflow="visible" id="173e28c8p"><path d="M2.73.14c.9 0 1.43-.45 1.74-1.08h.06l.13.94h.8v-5.02h-.94v2.7c0 .98-.57 1.62-1.46 1.62-.75 0-1.1-.4-1.1-1.22v-3.1h-.93v3.32c0 1.17.55 1.84 1.7 1.84zm0 0"/></symbol><symbol overflow="visible" id="173e28c8q"><path d="M5.08-5.16c-.94 0-1.58.43-1.9 1.3h-.09l-.07-1.16H1.05v.77h1.1v3.48H.96V0h3.96v-.77H3.1v-1.46c0-1.36.6-2.05 1.83-2.05.4 0 .76.08 1.1.17l.15-.87c-.33-.11-.7-.18-1.11-.18zm0 0"/></symbol><symbol overflow="visible" id="173e28c8r"><path d="M3.42.14c1.61 0 2.56-.75 2.56-2 0-1.1-.67-1.6-1.95-1.86l-.97-.2c-.87-.17-1.23-.49-1.23-1.11 0-.7.54-1.11 1.5-1.11 1.06 0 1.51.34 1.69 1.23l.9-.09c-.17-1.28-.98-1.9-2.6-1.9C1.79-6.9.9-6.18.9-4.98c0 1.06.66 1.66 1.88 1.9l1.01.2c.85.17 1.25.4 1.25 1.09 0 .73-.6 1.16-1.6 1.16-1.07 0-1.66-.4-1.8-1.24l-.94.1C.83-.53 1.75.13 3.42.13zm0 0"/></symbol><symbol overflow="visible" id="173e28c8s"><path d="M3.58-5.81c.42 0 .72-.22.72-.67 0-.44-.3-.68-.72-.68-.44 0-.72.24-.72.68 0 .45.28.67.72.67zm.5.8H1.52v.76h1.6v3.48h-1.8V0h4.46v-.77h-1.7zm0 0"/></symbol><symbol overflow="visible" id="173e28c8t"><path d="M1.63 0v-2.9c0-.8.15-1.4.71-1.4.41 0 .55.3.55.88V0h.95v-2.9c0-.8.18-1.4.72-1.4.4 0 .57.3.57.88V0h.95v-3.63c0-.92-.28-1.53-1.11-1.53-.63 0-.95.41-1.1.9h-.06c-.1-.52-.44-.9-1.08-.9-.6 0-.93.41-1.06.9H1.6l-.23-.76H.67V0zm0 0"/></symbol><symbol overflow="visible" id="173e28c8u"><path d="M2.06 1.9V-.84h.05c.28.58.8.97 1.77.97 1.5 0 2.2-.98 2.2-2.66 0-1.65-.7-2.64-2.19-2.64-.97 0-1.5.44-1.78 1.05h-.08l-.1-.9H1.1v6.9zm1.5-2.56c-1.06 0-1.53-.8-1.53-1.86 0-1.04.47-1.84 1.53-1.84 1.11 0 1.53.61 1.53 1.84 0 1.27-.42 1.86-1.53 1.86zm0 0"/></symbol><symbol overflow="visible" id="173e28c8v"><path d="M3.92-7.14H1.36v.76h1.6v5.61H1.15V0H5.7v-.77H3.92zm0 0"/></symbol><symbol overflow="visible" id="173e28c8w"><path d="M2.84.14C3.8.14 4.33-.26 4.6-.9h.07L4.8 0h.76v-7.14h-.95v2.95h-.08c-.28-.6-.86-.97-1.67-.97-1.48 0-2.27.99-2.27 2.64C.6-.84 1.36.14 2.84.14zm.22-.8c-.98 0-1.48-.59-1.48-1.84s.5-1.86 1.48-1.86c1.13 0 1.58.8 1.58 1.86S4.2-.66 3.06-.66zm0 0"/></symbol><symbol overflow="visible" id="173e28c8x"><path d="M3.36.16c1.4 0 2.2-.6 2.2-1.57 0-.89-.54-1.22-1.47-1.39L3-3c-.67-.14-.86-.33-.86-.73 0-.5.4-.74 1.17-.74.83 0 1.19.27 1.27.8l.9-.05c-.12-1-.8-1.47-2.17-1.47-1.34 0-2.1.53-2.1 1.5 0 .81.45 1.22 1.52 1.44l1.04.2c.56.11.87.24.87.72 0 .52-.45.78-1.28.78-.95 0-1.36-.28-1.42-.87l-.9.06C1.07-.36 1.8.16 3.35.16zm0 0"/></symbol><symbol overflow="visible" id="173e28c8y"><path d="M3.38-5.9c.12-.5.42-1.04.67-1.41l-.63-.22a4.28 4.28 0 00-1.01 2.39c0 .66.3 1 .9 1 .6 0 .9-.33.9-.9 0-.57-.32-.83-.83-.85zm0 0"/></symbol><symbol overflow="visible" id="173e28c8z"><path d="M3.3-7.53c-.55 0-.85.3-.85.84 0 .55.36.8.83.8h.03a5.1 5.1 0 01-.69 1.47l.52.23a4.29 4.29 0 001.02-2.4c0-.63-.33-.94-.86-.94zm0 0"/></symbol><symbol overflow="visible" id="173e28c8A"><path d="M1.45-2.95c0 2.56 1.08 4.37 3.67 4.84l.11-.67C3.28.86 2.43-.75 2.43-2.95s.85-3.82 2.8-4.16l-.1-.69c-2.6.49-3.68 2.3-3.68 4.85zm0 0"/></symbol><symbol overflow="visible" id="173e28c8B"><path d="M4.22-6.77h-.86l-2.03.7v.87c.64-.17 1.26-.38 1.89-.55v4.9H1.03V0h4.9v-.86H4.21zm0 0"/></symbol><symbol overflow="visible" id="173e28c8C"><path d="M3.33.16c1.69 0 2.69-.74 2.69-1.94 0-1.05-.8-1.58-1.43-1.72v-.05c.5-.14 1.2-.58 1.2-1.56 0-1.12-.95-1.81-2.46-1.81-1.52 0-2.46.69-2.46 1.81 0 .97.68 1.4 1.18 1.56v.05c-.6.14-1.4.64-1.4 1.72 0 1.2 1 1.94 2.68 1.94zm0-4.04c-.97 0-1.49-.43-1.49-1.12 0-.78.52-1.1 1.49-1.1.95 0 1.48.32 1.48 1.1 0 .69-.53 1.13-1.48 1.13zm0 3.24c-1.1 0-1.7-.42-1.7-1.25 0-.78.6-1.2 1.7-1.2s1.7.42 1.7 1.2c0 .83-.6 1.25-1.7 1.25zm0 0"/></symbol><symbol overflow="visible" id="173e28c8D"><path d="M1.45-7.1c1.96.33 2.8 1.94 2.8 4.15 0 2.2-.84 3.8-2.8 4.17l.11.67c2.58-.47 3.67-2.28 3.67-4.84 0-2.55-1.09-4.36-3.67-4.85zm0 0"/></symbol></defs><g fill="#515151"><use xlink:href="#173e28c8a" x="160.2443" y="160.5"/><use xlink:href="#173e28c8b" x="204.2665" y="160.5"/></g><use xlink:href="#173e28c8c" x="252.1431" y="160.5" fill="#fff"/><g fill="#515151"><use xlink:href="#173e28c8d" x="291.7409" y="160.5"/><use xlink:href="#173e28c8a" x="356.1365" y="160.5"/></g><use xlink:href="#173e28c8c" x="400.158" y="160.5" fill="#fff"/><g fill="#fff"><use xlink:href="#173e28c8e" x="260" y="252"/><use xlink:href="#173e28c8f" x="266.667" y="252"/><use xlink:href="#173e28c8g" x="273.334" y="252"/><use xlink:href="#173e28c8h" x="280.001" y="252"/><use xlink:href="#173e28c8i" x="286.668" y="252"/><use xlink:href="#173e28c8j" x="293.335" y="252"/><use xlink:href="#173e28c8k" x="300.002" y="252"/><use xlink:href="#173e28c8l" x="306.669" y="252"/><use xlink:href="#173e28c8m" x="313.336" y="252"/><use xlink:href="#173e28c8n" x="320.003" y="252"/><use xlink:href="#173e28c8k" x="326.67" y="252"/><use xlink:href="#173e28c8m" x="333.337" y="252"/></g><g fill="#fff"><use xlink:href="#173e28c8o" x="100" y="266"/><use xlink:href="#173e28c8f" x="106.667" y="266"/><use xlink:href="#173e28c8k" x="113.334" y="266"/><use xlink:href="#173e28c8h" x="120.001" y="266"/><use xlink:href="#173e28c8p" x="126.668" y="266"/><use xlink:href="#173e28c8q" x="133.335" y="266"/><use xlink:href="#173e28c8f" x="140.002" y="266"/><use xlink:href="#173e28c8i" x="146.669" y="266"/><use xlink:href="#173e28c8j" x="153.336" y="266"/><use xlink:href="#173e28c8r" x="160.003" y="266"/><use xlink:href="#173e28c8s" x="166.67" y="266"/><use xlink:href="#173e28c8t" x="173.337" y="266"/><use xlink:href="#173e28c8u" x="180.004" y="266"/><use xlink:href="#173e28c8v" x="186.671" y="266"/><use xlink:href="#173e28c8f" x="193.338" y="266"/><use xlink:href="#173e28c8q" x="200.005" y="266"/><use xlink:href="#173e28c8j" x="206.672" y="266"/><use xlink:href="#173e28c8f" x="213.339" y="266"/><use xlink:href="#173e28c8g" x="220.006" y="266"/><use xlink:href="#173e28c8h" x="226.673" y="266"/><use xlink:href="#173e28c8f" x="233.34" y="266"/><use xlink:href="#173e28c8l" x="240.007" y="266"/><use xlink:href="#173e28c8w" x="246.674" y="266"/><use xlink:href="#173e28c8f" x="253.341" y="266"/><use xlink:href="#173e28c8q" x="260.008" y="266"/><use xlink:href="#173e28c8x" x="266.675" y="266"/><use xlink:href="#173e28c8j" x="273.342" y="266"/><use xlink:href="#173e28c8s" x="280.009" y="266"/><use xlink:href="#173e28c8l" x="286.676" y="266"/><use xlink:href="#173e28c8j" x="293.343" y="266"/><use xlink:href="#173e28c8y" x="300.01" y="266"/><use xlink:href="#173e28c8m" x="306.677" y="266"/><use xlink:href="#173e28c8z" x="313.344" y="266"/><use xlink:href="#173e28c8j" x="320.011" y="266"/><use xlink:href="#173e28c8k" x="326.678" y="266"/><use xlink:href="#173e28c8l" x="333.345" y="266"/><use xlink:href="#173e28c8w" x="340.012" y="266"/><use xlink:href="#173e28c8j" x="346.679" y="266"/><use xlink:href="#173e28c8q" x="353.346" y="266"/><use xlink:href="#173e28c8f" x="360.013" y="266"/><use xlink:href="#173e28c8v" x="366.68" y="266"/><use xlink:href="#173e28c8k" x="373.347" y="266"/><use xlink:href="#173e28c8h" x="380.014" y="266"/><use xlink:href="#173e28c8f" x="386.681" y="266"/><use xlink:href="#173e28c8w" x="393.348" y="266"/><use xlink:href="#173e28c8j" x="400.015" y="266"/><use xlink:href="#173e28c8v" x="406.682" y="266"/><use xlink:href="#173e28c8f" x="413.349" y="266"/><use xlink:href="#173e28c8h" x="420.016" y="266"/><use xlink:href="#173e28c8h" x="426.683" y="266"/><use xlink:href="#173e28c8f" x="433.35" y="266"/><use xlink:href="#173e28c8q" x="440.017" y="266"/><use xlink:href="#173e28c8x" x="446.684" y="266"/><use xlink:href="#173e28c8j" x="453.351" y="266"/><use xlink:href="#173e28c8A" x="460.018" y="266"/><use xlink:href="#173e28c8x" x="466.685" y="266"/><use xlink:href="#173e28c8x" x="473.352" y="266"/><use xlink:href="#173e28c8B" x="480.019" y="266"/><use xlink:href="#173e28c8C" x="486.686" y="266"/><use xlink:href="#173e28c8D" x="493.353" y="266"/></g></svg>