<?xml version='1.0' encoding='UTF-8'?>
<svg xmlns="http://www.w3.org/2000/svg" xmlns:xlink="http://www.w3.org/1999/xlink" width="1000px" height="1672.44px" viewBox="0 0 1000 1672.44" x="0px" y="0px" enable-background="new 0 0 1000 1672.44"><defs><symbol overflow="visible" id="f296197aa"><path d="M24.28 0h21.55v-63.94h24.06v-17.2H.17v17.2h24.11zm0 0"/></symbol><symbol overflow="visible" id="f296197ab"><path d="M7.83 0H28.4v-29.72c0-8.62 6.1-14 14.8-14 1.87 0 3.65.17 5.37.52l2-18.7c-1.78-.38-4.06-.73-6.52-.73-8.75 0-12.86 5.08-15.2 14.35h-.75l-2.17-12.64H7.83zm0 0"/></symbol><symbol overflow="visible" id="f296197ac"><path d="M25.08 1.6C34.45 1.6 40.92-2.29 44-8.53h.75L46.45 0h17.66v-39.77c0-15.82-9.66-23.15-28.45-23.15-20.86 0-27.83 7.55-30.07 20.58l19.79 1.93c.96-5.25 3.25-7.87 9.65-7.87s9.03 2.56 9.03 8v2.62l-20 2.41c-15.31 1.7-21.1 8.1-21.1 18.63 0 11.48 7.62 18.21 22.12 18.21zm7.03-13.7c-5.77 0-8.34-2.24-8.34-6.18 0-3.66 2.12-5.27 7.71-6.06l12.58-1.72v3.89c0 5.76-4.17 10.06-11.95 10.06zm0 0"/></symbol><symbol overflow="visible" id="f296197ad"><path d="M7.83 0H28.4v-32.23c0-7.7 4.96-12.63 11.82-12.63 6.35 0 8.63 3.66 8.63 10.52V0h20.56v-39.94c0-13.89-5.65-22.69-19.94-22.69-10.73 0-16.8 5.32-20.73 13.55h-.69l-2.12-11.84H7.83zm0 0"/></symbol><symbol overflow="visible" id="f296197ae"><path d="M32 2.1c18.45 0 28.92-7.87 28.92-21.13 0-10.69-6.92-15.38-20.34-18l-9.16-1.83c-5.36-1.03-7.36-2.39-7.36-5.55 0-3.01 2.57-4.56 7.7-4.56 6.3 0 8.52 2.22 8.99 6.56L60.17-44c-1.25-13.2-10.23-18.97-28.8-18.97-18.06 0-27.2 7.25-27.2 20.05 0 10.98 7.42 16.47 20.63 19.26l8.34 1.77c5.78 1.14 7.9 2.3 7.9 5.55 0 3.14-3.04 4.75-8.8 4.75-7.27 0-9.66-2.13-10.47-6.99L2.23-16.92C3.2-4 12.23 2.1 32 2.1zm0 0"/></symbol><symbol overflow="visible" id="f296197af"><path d="M41.03-71.25c2.69 0 5.2.33 6.52.56l2-15.2c-2.7-.73-8-1.53-13.72-1.53-16.17 0-23.49 6.5-23.49 21.83v4.67H2.45v15.55h9.9V0h20.57v-45.38h14.5v-15.54h-14.5v-1.66c0-5.65 1.83-8.67 8.11-8.67zm0 0"/></symbol><symbol overflow="visible" id="f296197ag"><path d="M36.23 1.72c21.66 0 33.08-11.66 33.08-32.17 0-20.47-11.42-32.17-33.08-32.17-21.6 0-33.03 11.7-33.03 32.17C3.2-9.94 14.63 1.72 36.23 1.72zm0-15.55c-8.85 0-12.12-5.42-12.12-16.62 0-11.27 3.27-16.63 12.12-16.63 8.91 0 12.18 5.36 12.18 16.63 0 11.2-3.27 16.62-12.18 16.62zm0 0"/></symbol><symbol overflow="visible" id="f296197ah"><path d="M7.83 0H28.4v-32.23c0-7.7 4.96-12.63 11.42-12.63 6 0 8.34 3.66 8.34 10.52V0h20.58v-32.23c0-7.7 4.9-12.63 11.42-12.63 5.94 0 8.28 3.66 8.28 10.52V0h20.58v-39.94c0-13.89-5.72-22.69-19.66-22.69-11.48 0-16.92 5.66-20.92 13.83h-.73c-2-8.28-7.44-13.83-18.64-13.83-10.33 0-16.4 5.32-20.33 13.55h-.69l-2.12-11.84H7.83zm0 0"/></symbol><symbol overflow="visible" id="f296197ai"><path d="M31.03-45.38h14.9v-15.54h-14.9v-17.94H13.9l-3.03 17.94H1.08v15.55h9.78v27.2c0 13.42 6.45 19.83 21.72 19.83 5.08 0 11.14-.97 14.28-2l-2-14.97c-1.78.39-3.83.69-5.83.69-5.89 0-8-2.13-8-8.52zm0 0"/></symbol><symbol overflow="visible" id="f296197aj"><path d="M18.4-68.97c7.2 0 11.7-3.6 11.7-10.45 0-6.86-4.5-10.47-11.7-10.47-7.43 0-11.88 3.6-11.88 10.47 0 6.84 4.45 10.45 11.89 10.45zM7.84 0H28.4v-60.92H7.83zm0 0"/></symbol><symbol overflow="visible" id="f296197ak"><path d="M3.5 0h7.13c16.82 0 23.4-7.86 23.4-25.6v-27.6h6.94c11.73 0 16.22 3.8 16.22 15.23V0h22.1v-44.66c0-18.98-10.12-29.67-33.15-29.67H4v21.13h8.9v22.73c0 7.13-.92 10.75-8.17 10.75H3.5zm0 0"/></symbol><symbol overflow="visible" id="f296197al"><path d="M38.03-45.64c0-18.67-6.89-28.69-29.31-28.69H3.37v21.13h1.49c8.6 0 11.05 3.14 11.05 12.6V0h22.12zm0 0"/></symbol><symbol overflow="visible" id="f296197am"><path d="M75.63-74.33H5.22v21.13h47.42C48.47-35.44 44.41-17.75 40.24 0H62.1c4.48-18.73 9.03-37.28 13.52-56.02zm-47.8 90.3v-55.9h-22v55.9zm0 0"/></symbol><symbol overflow="visible" id="f296197an"><path d="M37.47-45.64c0-18.67-5.9-28.69-28.31-28.69H4v21.13h1.28c8.61 0 11.06 3.14 11.06 12.65v12.9h21.13zm0 0"/></symbol><symbol overflow="visible" id="f296197ao"><path d="M4.1 9.45L22.18 5.6C53.14-1.05 72.55-8.17 74.14-44.9l1.23-29.42h-22.1l-1.24 28.81c-.6 14.68-4.98 20.83-12.9 24.75L26.59-74.33H3.94l14.19 59.7-14.02 3.5zm0 0"/></symbol><symbol overflow="visible" id="f296197ap"><path d="M73.6-44.66c0-18.98-10.08-29.67-33.18-29.67H5.22v21.13h30.1c11.73 0 16.16 3.8 16.16 15.23V0H73.6zM27.82 0v-39.63h-22V0zm0 0"/></symbol><symbol overflow="visible" id="f296197ar"><path d="M23.53-74.33v-12.9H2.77v33.1h37.21C33.84-36.13 27.83-18.05 21.63 0h22.42c6.62-18.98 13.2-38.03 19.84-57v-17.33zm0 0"/></symbol><symbol overflow="visible" id="f296197as"><path d="M11.36 0h22.12v-53.2h8.47c11.74 0 16.16 3.8 16.16 15.23V0h22.1v-44.66c0-18.98-10.05-29.67-33.1-29.67H3.56v21.13h7.8zm0 0"/></symbol><symbol overflow="visible" id="f296197at"><path d="M48.66 1.23c21.73 0 30.89-13.95 30.89-40 0-23.82-10.32-37.21-28.32-37.21-12.9 0-18.06 6.32-22.23 15.78l-3.81-14.13H3.44l7.62 28.69L4.05 0H25.6l4.98-36.6c1.79-12.8 6.2-18.74 14.63-18.74 8.6 0 12.95 6.39 12.95 17.93 0 12.77-4.17 19.28-13.83 19.28-2.39 0-5.34-.73-6.8-1.21V-.38c2.94.93 7.37 1.61 11.12 1.61zm0 0"/></symbol><symbol overflow="visible" id="f296197au"><path d="M10.73-2.38l14.85-83.7h-2.5L7.86 0h49.16l.5-2.38zm0 0"/></symbol><symbol overflow="visible" id="f296197av"><path d="M28.94 1.88c17.34 0 28.2-11.61 32.08-33.2 3.48-19.21-3.5-34.8-23.1-34.8-17.34 0-28.19 11.48-32.06 33.06C2.5-13.96 9.1 1.88 28.94 1.88zm.12-2.38c-18.2 0-23.7-14.22-20.7-32.31 3.37-20.22 13.22-30.94 29.44-30.94 17.97 0 24.2 14.1 20.72 32.19C54.64-11.36 45.28-.5 29.06-.5zm0 0"/></symbol><symbol overflow="visible" id="f296197aw"><path d="M27.7 1.88c14.35 0 22.08-6.61 28.44-21.72h-2.62C47.66-6.74 41.3-.5 27.82-.5 11.12-.5 5.37-14.72 8.37-32.81c3.37-20.22 13.6-30.94 28.2-30.94 12.47 0 18.46 5.23 20.7 18.7h2.38c-2.5-14.97-8.98-21.08-22.95-21.08-15.74 0-27.08 11.49-30.83 33.07C2.5-13.96 9.36 1.88 27.7 1.88zm0 0"/></symbol><symbol overflow="visible" id="f296197ax"><path d="M28.14 1.88c13.1 0 21.2-7.61 25.81-18.22h.13L51.47 0h1.98l11.36-64.25h-2l-3.73 18.22h-.13c-1.12-8.99-6.48-20.1-21.84-20.1-16.22 0-27.44 11.61-31.31 33.2C2.3-13.73 9.55 1.86 28.14 1.86zm.13-2.38C11.42-.5 4.8-14.6 8.3-32.69c3.87-20.22 13.6-31.06 28.68-31.06 16.85 0 22.47 14.22 19.6 32.31C53.22-10.6 41.98-.5 28.27-.5zm0 0"/></symbol><symbol overflow="visible" id="f296197ay"><path d="M15.66 1.25c2.62 0 4.98-.5 7.1-1.38l.38-2.37c-2.12.75-4.6 1.5-6.98 1.5-5.49 0-8.74-2.75-7.36-10.86l14.22-80.47h-2.5L6.42-12.1C4.8-2.63 8.92 1.25 15.66 1.25zm0 0"/></symbol><symbol overflow="visible" id="f296197aA"><path d="M4.8 0h2.5l6.23-35.19c3-17.1 13.24-28.56 26.45-28.56 13.47 0 18.35 8.1 15.85 22.58L48.59 0h2.5l6.24-35.19c3-17.1 13.22-28.56 26.45-28.56 13.47 0 18.34 8.1 15.84 22.58L92.4 0h2.48l7.25-41.17c2.74-15.6-3.25-24.95-18.34-24.95-12.6 0-20.97 9.35-24.83 18.59h-.12c0-11.36-5.99-18.6-18.85-18.6-12.59 0-20.32 9.11-24.2 18.1h-.12l2.5-16.22h-2zm0 0"/></symbol><symbol overflow="visible" id="f296197aB"><path d="M28.14 1.88c13.1 0 21.2-7.61 25.81-18.22h.13L51.47 0h1.98L69.8-92.33H67.3l-8.23 46.3h-.13c-1.12-8.99-6.48-20.1-21.84-20.1-16.22 0-27.44 11.61-31.31 33.2C2.3-13.73 9.55 1.86 28.14 1.86zm.13-2.38C11.42-.5 4.8-14.6 8.3-32.69c3.87-20.22 13.6-31.06 28.68-31.06 16.85 0 22.47 14.22 19.6 32.31C53.22-10.6 41.98-.5 28.27-.5zm0 0"/></symbol><symbol overflow="visible" id="f296197aC"><path d="M58.08-31.81c.62-4 1-6.99 1-10.36 0-15.22-7.74-23.95-22.2-23.95-16.36 0-27.2 11.6-30.96 32.56C2.32-13.6 9.17 1.88 28.02 1.88c13.21 0 19.95-4.88 26.43-17.22h-2.73C46.34-5.11 40.36-.5 28.14-.5 11.54-.5 5.42-13.72 8.17-31.81zM36.75-63.75c16.7 0 21.83 12.34 19.2 29.69H8.55c3.62-19.2 13.34-29.69 28.2-29.69zm0 0"/></symbol><symbol overflow="visible" id="f296197aD"><path d="M4.8 0h2.5l5.98-33.94c2.75-15.34 10.49-29.31 23.6-29.31 3.48 0 5.73.75 7.1 1.13l.5-2.26c-1.37-.37-3.87-1.12-7.37-1.12-10.47 0-17.33 6.48-21.33 17.47h-.12l2.5-16.22h-2zm0 0"/></symbol><symbol overflow="visible" id="f296197aE"><path d="M4.8 0h2.5l6.23-35.19c3-17.1 13.86-28.56 27.95-28.56 13.72 0 18.6 8.1 16.1 22.58L50.34 0h2.5l7.24-41.17c2.73-15.6-3.25-24.95-18.6-24.95-13.46 0-21.82 8.98-25.7 17.96h-.12l2.5-16.09h-2zm0 0"/></symbol><symbol overflow="visible" id="f296197aF"><path d="M19.78-77.36c2.36 0 3.99-1.6 3.99-3.86 0-1.62-1-2.87-3-2.87-2.36 0-3.99 1.62-3.99 3.87 0 1.63 1 2.86 3 2.86zM4.92 0h2.5l11.24-64.25h-2.5zm0 0"/></symbol><symbol overflow="visible" id="f296197aG"><path d="M24.83 1.88c13.84 0 23.08-8.36 23.08-19.22 0-8.36-4.11-12.85-15.1-15.6l-6.36-1.62c-8.98-2.25-12.6-6.36-12.6-12.97 0-9.74 7.85-16.34 19.96-16.34 9.99 0 15.85 4.23 17.6 15.21h2.36c-1.86-12.36-8.72-17.47-19.83-17.47-13.47 0-22.58 7.61-22.58 18.72 0 7.86 4.6 12.6 14.34 15.1l6.36 1.62c9.86 2.49 13.35 6.24 13.35 13.6 0 9.6-8.6 16.71-20.58 16.71C11.73-.38 7.6-5.86 5.1-16.09H2.75C5.23-4 10.85 1.87 24.83 1.87zm0 0"/></symbol><symbol overflow="visible" id="f296197aH"><path d="M32.95 0h1.03v-24.58h-1.37c-5.28 0-6.31-1.03-6.31-7.56v-52.83H6.3v56.61C6.31-9.53 13.1 0 32.95 0zm0 0"/></symbol><symbol overflow="visible" id="f296197aI"><path d="M0 0h4.14c6.94 0 12.8-1.38 16.4-5.28C24.23-1.38 30.15 0 34.68 0h2.88v-24.58h-.58c-2.88 0-4.64-.56-5.69-2.1-.86-1.23-1.2-3-1.2-5.59v-17.1H13.2v16.18c0 2.7-.28 5-1.89 6.55-1.33 1.33-3.62 2.06-7.4 2.06H0c-7.81 0-11.48 4.14-11.48 13.33C-11.48-2.65-6.9 0 0 0zm7.64 30.6l5.84-7.76 10.29 7.75 7.92-10.43-11.42-8.68-5.86 7.75-10.27-7.75-7.92 10.5zm0 0"/></symbol><symbol overflow="visible" id="f296197aJ"><path d="M0 0h15.16c20.67 0 30.2-5.73 42.59-15.95l7.17-5.93c2.99-2.4 6.1-4.46 9.08-5.9 2.4-1.1 4.7-1.78 6.83-1.95v-20.91c-5.4 0-12.92-1.77-21.13-3.72-8.15-1.95-16.93-4.08-24.97-4.72-1.54-.1-3.04-.17-4.53-.17-16.93 0-24.23 10.8-24.23 28.25h16.87c.7-5.52 2.94-7.47 8.96-7.47 1.04 0 2.18.06 3.45.13 2.7.22 5.73.56 8.95 1.03 3.16.45 6.49 1.03 9.64 1.6-.92.7-1.78 1.32-2.68 2l-.93.7c-9.35 7.06-20.37 8.43-27.5 8.43H0c-7.81 0-11.48 4.14-11.48 13.33C-11.48-2.65-6.9 0 0 0zm36.05 27.1l8.84-11.7-12.75-9.67-8.83 11.72zm0 0"/></symbol><symbol overflow="visible" id="f296197aK"><path d="M24.97 27.84c16.48 0 26.36-11.93 30.37-27.84h7.93v-24.58h-6.1c-.17-1.6-.39-3.15-.69-4.7-2.75-15.16-11.3-28.02-26.85-28.02-13.44 0-23.9 14.58-23.9 32.72C5.73-9.3 15.5-2.4 33.3-2.4c2.64 0 5.28-.17 7.47-.34C36.1 2.98 26.23 6.03 13.2 6.03a82.8 82.8 0 01-7.47-.3v19.2c7.07 1.71 13.5 2.91 19.24 2.91zm7.06-52.18c-9.19 0-11.94-2.18-12.05-4.02-.12-3.1 4.47-5.97 9.75-5.97 6.96 0 11.08 4.6 12.11 9.99zm0 0"/></symbol><symbol overflow="visible" id="f296197aL"><path d="M0 0h2.7C25.03 0 31-13.31 31-37.2v-47.77H11.02v50.53c0 8.61-2.07 9.86-8.2 9.86H0c-7.81 0-11.48 4.14-11.48 13.33C-11.48-2.65-6.9 0 0 0zm0 0"/></symbol><symbol overflow="visible" id="f296197aM"><path d="M20.9-57.98l8.83-11.7L17-79.35 8.16-67.62zM0 0h4.14c6.94 0 12.8-1.38 16.4-5.28C24.23-1.38 30.15 0 34.68 0h2.88v-24.58h-.58c-2.88 0-4.64-.56-5.69-2.1-.86-1.23-1.2-3-1.2-5.59v-17.1H13.2v16.18c0 2.7-.28 5-1.89 6.55-1.33 1.33-3.62 2.06-7.4 2.06H0c-7.81 0-11.48 4.14-11.48 13.33C-11.48-2.65-6.9 0 0 0zm0 0"/></symbol><symbol overflow="visible" id="f296197aN"><path d="M0 0h11.02c7.12 0 13.03-1.2 17.57-3.73A67.63 67.63 0 0052.81 0v-24.58c-6.14 0-9.53-.05-13.89-.97-.06-1.78-.28-3.6-.62-5.56-1.5-7.3-5.46-15.8-13.72-26.87l23.64-6.2v-21.24L2.19-73.25v18.72c14.1 14.45 18.25 21.34 18.25 25.48 0 3.22-2.75 4.47-8.38 4.47H0c-7.81 0-11.48 4.14-11.48 13.33C-11.48-2.65-6.9 0 0 0zm0 0"/></symbol><symbol overflow="visible" id="f296197aO"><path d="M12.63-57.98l5.85-7.75 10.29 7.75 7.92-10.44-11.42-8.67-5.86 7.75L9.12-77.1 1.2-66.6zM0 0h4.14c6.94 0 12.8-1.38 16.4-5.28C24.23-1.38 30.15 0 34.68 0h2.88v-24.58h-.58c-2.88 0-4.64-.56-5.69-2.1-.86-1.23-1.2-3-1.2-5.59v-17.1H13.2v16.18c0 2.7-.28 5-1.89 6.55-1.33 1.33-3.62 2.06-7.4 2.06H0c-7.81 0-11.48 4.14-11.48 13.33C-11.48-2.65-6.9 0 0 0zm0 0"/></symbol><symbol overflow="visible" id="f296197aP"><path d="M6.31 0H26.3v-84.97H6.3zm0 0"/></symbol><symbol overflow="visible" id="f296197aQ"><path d="M24.97 27.84c22.1 0 32.33-21.46 32.55-45.3v-.34c0-19.4-8.49-39.5-27.9-39.5-13.43 0-23.89 14.58-23.89 32.72C5.73-9.3 15.5-2.4 33.3-2.4c2.06 0 4.25 0 6.42-.23l.36.69c-3.28 3.67-11.2 8.03-26.6 8.03-2.34 0-4.98-.11-7.75-.35v19.2c7.07 1.71 13.5 2.91 19.24 2.91zm7.06-52.18c-9.19 0-11.94-2.18-12.05-4.02-.12-3.1 4.47-5.97 9.75-5.97 5.58 0 10.05 3.74 11.25 6.31.35.7.65 1.72-.17 2.41-1.14.98-4.08 1.27-8.78 1.27zm0 0"/></symbol><symbol overflow="visible" id="f296197aS"><path d="M7.81 33.64H27.1c-.92-16.53-1.6-28.47-1.6-35.14 0-2.98.92-4.36 4.42-4.36C36.8-1.44 44.78 1.5 52.7 1.5c15.37 0 21.12-11.03 21.12-24.92 0-17.69-11.6-31.92-26.06-31.92-11.49 0-17.46 7-22.5 18.14-1.33 2.93-3.11 6.37-4.04 10.22-11.3 1.95-15.5 10.21-15.5 21.46 0 8.85 1.16 25.04 2.08 39.16zM53.05-21.7c-3.67 0-8.27-.63-11.6-2.07-3.67-1.54-3.9-3.09-2.53-5.39 1.67-2.8 3.9-4.59 7.58-4.59 5.34 0 13.2 4.13 13.2 9.06 0 2.19-2.87 2.99-6.65 2.99zm0 0"/></symbol><symbol overflow="visible" id="f296197aT"><path d="M0 0h5.63c7.85 0 12.62-2.19 15.5-5.28C24.1-2.12 29.05 0 35.48 0h4.13v-24.58h-.69c-4.76 0-6.78-1.89-6.78-7.22v-53.17H12.17v52.7c0 6.1-3.45 7.7-9.08 7.7H0c-7.81 0-11.48 4.13-11.48 13.32C-11.48-2.65-6.9 0 0 0zm0 0"/></symbol><symbol overflow="visible" id="f296197aU"><path d="M0 0h9.08c10.39 0 19.97-2.64 28-7.13A49.11 49.11 0 0062.68 0h7v-24.58H58.4a47.51 47.51 0 002.28-4.64 34.15 34.15 0 001.44-3.9c1.56-5.35 1.22-17.46-1.44-20.72a13.6 13.6 0 00-3.72-2.99c-5.1-2.98-12-4.48-20.56-4.48-7.92 0-17.33 1.15-27.78 3.1v18.37c3.1 5.23 6.31 10.45 9.94 15.26H0c-7.81 0-11.48 4.14-11.48 13.33C-11.48-2.65-6.9 0 0 0zm37.55-28.36c-4.83-3.1-8.74-7.69-12.17-12.62v-.24c4.82-.8 8.84-1.03 12.04-1.03 5.92 0 9.7.92 11.44 2.3 1.42 1.03 1.72 2.12.8 3.6-1.55 2.48-6.32 5.63-12.11 8zm0 0"/></symbol><symbol overflow="visible" id="f296197aV"><path d="M23.58 0h5.76l14.11-80.36h28.49l.98-5.06H10.1l-1 5.06H37.7zm0 0"/></symbol><symbol overflow="visible" id="f296197aW"><path d="M4.27 0h5.57l6.2-35.03c2.71-15.49 12.62-26 25.2-26 12.8 0 16.63 7.8 14.35 21.17L48.53 0h5.58l7.05-39.81c2.86-16.1-2.97-26.3-18.5-26.3-12.46 0-20 7.61-23.78 15.53h-.13L26-91.63h-5.58zm0 0"/></symbol><symbol overflow="visible" id="f296197aX"><path d="M59.25-30.83c.73-4.95 1.05-7.73 1.05-10.95 0-15.11-7.86-24.4-22.85-24.4-16.78 0-28.17 11.59-31.93 32.63-3.6 19.99 3.82 35.4 23.14 35.4 14.6 0 21.42-6 27.18-17.94h-5.7C45.31-7 39.98-3.03 29.04-3.03c-15.48 0-20.43-12.2-18.4-27.8zM37.08-61.34c14.8 0 19.56 10.7 17.39 26.18H11.52c3.4-16.9 12.12-26.18 25.56-26.18zm0 0"/></symbol><symbol overflow="visible" id="f296197aZ"><path d="M22.78-76.02c3.22 0 5.45-2.17 5.45-5.32 0-2.35-1.54-3.91-4.15-3.91-3.22 0-5.44 2.17-5.44 5.33 0 2.3 1.55 3.9 4.14 3.9zM-5.64 25.18c9.84 0 14.25-5.8 16.28-17.26l12.7-72.17h-5.57L5.14 7.61C3.66 16.34.63 20.48-6.06 20.48c-2.55 0-5.4-.6-7.19-1.3l-.86 4.46c1.97.88 5.31 1.55 8.47 1.55zm0 0"/></symbol><symbol overflow="visible" id="f296197aaa"><path d="M29.28 1.86c17.77 0 29.03-11.58 32.88-33.13 3.53-19.3-3.91-34.84-23.91-34.84-17.7 0-28.9 11.45-32.8 32.92C2.05-13.8 9.28 1.86 29.28 1.86zm.38-4.9c-16.6 0-21.36-13-18.64-29.59 3.15-18.51 11.89-28.59 26.87-28.59 16.47 0 21.84 12.81 18.69 29.4C53.1-13.24 44.68-3.02 29.66-3.02zm0 0"/></symbol><symbol overflow="visible" id="f296197aab"><path d="M57.88-64.25L25.74-7.61h-.13L12.76-64.25H7.06L21.8-.92 7.67 23.34h6.14l50.02-87.59zm0 0"/></symbol><symbol overflow="visible" id="f296197aac"><path d="M41.36-88.53c3.89 0 6.73.75 8.53 1.25l.81-4.7a29.47 29.47 0 00-9.84-1.49c-10.72 0-16.53 5.75-19 19.67l-1.67 9.55H7.06l-.75 4.83h13L8.8 0h5.56l10.53-59.42h18.75l.88-4.83H25.75l1.6-9.1c2-11.34 6.07-15.18 14-15.18zm0 0"/></symbol><symbol overflow="visible" id="f296197aad"><path d="M25.38 1.86c13 0 19.8-8.17 23.53-16.03h.12L47.17 0h4.64l11.4-64.25h-5.57l-6.2 35.03c-2.72 15.47-12 26-24.63 26-12.58 0-16.34-8.05-14-21.17l7-39.86h-5.58l-6.98 39.8c-2.8 15.84 2.84 26.3 18.13 26.3zm0 0"/></symbol><symbol overflow="visible" id="f296197aae"><path d="M17.08 1.36c2.8 0 5.58-.5 7.69-1.3l.73-4.76c-1.8.62-4.33 1.23-6.56 1.23-5.19 0-8.3-2.6-7.05-10.03l13.86-78.13h-5.56L6.44-13.56C4.7-3.34 9.22 1.36 17.08 1.36zm0 0"/></symbol><symbol overflow="visible" id="f296197aaf"><path d="M20.55-76.02c3.22 0 5.45-2.17 5.45-5.32 0-2.35-1.55-3.91-4.14-3.91-3.22 0-5.45 2.17-5.45 5.33 0 2.3 1.54 3.9 4.14 3.9zM4.33 0H9.9l11.32-64.25h-5.57zm0 0"/></symbol><symbol overflow="visible" id="f296197aag"><path d="M25.5 1.86c14.36 0 24.2-8.36 24.2-19.94 0-8.42-4.33-13.25-15.47-16.03l-6.68-1.67c-8.11-2.05-11.4-5.52-11.4-11.4 0-8.48 7-14.35 17.83-14.35 9.47 0 14.36 3.84 15.85 13.67h5.26c-1.8-12.75-8.48-18.31-20.86-18.31-13.92 0-23.46 7.8-23.46 19.5 0 8.3 4.82 13.19 14.6 15.65l6.5 1.61c8.99 2.24 12.4 5.58 12.4 11.83 0 8.55-7.5 14.8-18.52 14.8-11.7 0-15.72-4.64-18.14-14.19H2.3C4.64-4.07 11.14 1.86 25.5 1.86zm0 0"/></symbol><symbol overflow="visible" id="f296197aah"><path d="M4.27 0h5.57l6.2-35.03c2.71-15.49 12.62-26 25.38-26 12.81 0 16.7 7.8 14.42 21.17L48.78 0h5.58l7.05-39.81c2.84-16.1-2.97-26.3-18.63-26.3-12.94 0-20.5 8.05-24.2 15.97h-.13l1.86-14.11h-4.65zm0 0"/></symbol><symbol overflow="visible" id="f296197aai"><path d="M7.44 0h11.58l11.82-66.92h.61L68.15 0h11.82L95.2-86.55H83.62L71.8-19.63h-.61L34.5-86.55H22.67zm0 0"/></symbol><symbol overflow="visible" id="f296197aaj"><path d="M64.73-28.4a82.97 82.97 0 001.35-13.77c0-14.52-9.16-24.14-25.36-24.14-17.8 0-30.6 11.1-34.38 32.67C2.7-12.44 11.7 1.83 32.54 1.83c17.8 0 25-7.31 29.15-18.4L49.86-17.8c-2.92 5.61-7.44 9.27-16.45 9.27-13.53 0-16.35-9.88-15.61-19.88zM39.86-56.32c12.19 0 15.73 7.19 14.52 18.76H19.5c3.42-12.8 9.88-18.76 20.36-18.76zm0 0"/></symbol><symbol overflow="visible" id="f296197aak"><path d="M16.33 0h15.86l23.28-50.72h.36L60.95 0H76.8l31.7-64.36H95.81L71.56-11.83h-.73l-5.25-52.53H50.59L26.94-11.83h-.74l-6.1-52.53H7.57zm0 0"/></symbol><symbol overflow="visible" id="f296197aam"><path d="M28.53 1.83c16.45 0 27.67-6.7 27.67-21.22 0-8.77-5.48-14.02-16.47-17.19l-7.92-2.31c-6.33-1.83-9.5-4.02-9.5-8.53 0-6.58 5.36-9.14 14.02-9.14 8.78 0 12.19 3.04 12.31 10.36l11.95-.61c.11-12.31-7.68-19.63-23.65-19.63-15.97 0-26.58 7.19-26.58 20.6 0 9.76 7.08 14.51 16.95 17.3l7.44 2.09c6.45 1.82 9.5 4.39 9.5 8.78 0 6.83-5.84 9.75-15.1 9.75-9.65 0-14.27-3.42-14.76-11.1l-11.95.74c.12 13.28 8.4 20.1 26.1 20.1zm0 0"/></symbol><symbol overflow="visible" id="f296197aan"><path d="M30.47-54h19.87l1.83-10.36H32.31l3.4-19.75h-9.74L20-64.36H7.44L5.6-54h12.55L12.3-20.23C9.87-6.1 15.84 1.57 29.62 1.57c4.4 0 8.41-.84 11.46-1.7l.6-10.1c-2.3.6-6.32 1.21-9.37 1.21-6.72 0-9.26-2.68-7.81-11.21zm0 0"/></symbol><symbol overflow="visible" id="f296197aao"><path d="M5.48 0h12.2l6.46-36.2c1.95-10.97 8.66-18.17 19.5-18.17 2.81 0 6.22.6 7.8 1.1l2.69-11.7c-1.58-.6-5-1.22-7.57-1.22-9.98 0-14.98 4.02-19.37 12.92h-.61l.6-11.09H16.84zm0 0"/></symbol><symbol overflow="visible" id="f296197aap"><path d="M26.58 1.83c12.19 0 17.55-5.49 22.06-12.31h.61L48.65 0H59l11.47-64.36h-12.2L51.94-28.4C49.86-16.33 40.72-8.78 30.97-8.78c-9.27 0-11.83-6.45-9.88-17.31l6.83-38.27h-12.2L8.9-26.2C5.84-9.4 11.7 1.83 26.58 1.83zm0 0"/></symbol><symbol overflow="visible" id="f296197aaq"><path d="M32.42 1.83c16.58 0 26.35-7.31 29.88-21.7l-12.08-1.46c-2.8 8.53-7.06 12.8-16.94 12.8-13.28 0-17.19-10-14.75-23.78 2.69-15.47 9.4-23.52 21.2-23.52 9.65 0 13.54 4.75 14.27 13.16l12.19-.61c-.97-13.4-8.77-22.9-25.6-22.9-18.65 0-30.59 12.06-34.25 32.77C2.7-12.44 11.7 1.83 32.42 1.83zm0 0"/></symbol><symbol overflow="visible" id="f296197aar"><path d="M2.7 0h1v-7.23h2.64v-.88H.06v.88H2.7zm0 0"/></symbol><symbol overflow="visible" id="f296197aas"><path d="M6.06-2.7v-.55c0-1.9-1-2.94-2.68-2.94C1.7-6.19.6-5.08.6-2.99.6-.98 1.63.18 3.45.18c1.53 0 2.25-.7 2.5-1.7L5-1.61c-.19.55-.63.95-1.55.95-1.14 0-1.76-.68-1.84-2.04zM3.38-5.37c1.09 0 1.68.62 1.73 1.92H1.6c.1-1.32.73-1.92 1.76-1.92zm0 0"/></symbol><symbol overflow="visible" id="f296197aat"><path d="M.3 0h1.04l1.57-2.33h.04L4.65 0h1.08L3.61-3l2.1-3.02H4.66L3.11-3.73h-.05L1.44-6.02H.34l2.08 2.94zm0 0"/></symbol><symbol overflow="visible" id="f296197aau"><path d="M2.4-5.19h1.91v-.83h-1.9v-1.87h-.77l-.2 1.87H.19v.83h1.25v3.46C1.44-.5 2 .14 3.28.14c.38 0 .78-.08 1.06-.16l-.1-.8c-.2.05-.47.1-.77.1-.7 0-1.06-.26-1.06-1.1zm0 0"/></symbol><symbol overflow="visible" id="f296197aaw"><path d="M6.9-7.23v-.88H1.28V0H6.9v-.88H2.28v-2.8h3.9v-.84h-3.9v-2.71zm0 0"/></symbol><symbol overflow="visible" id="f296197aax"><path d="M1.1 0h.96v-3.3c0-1.18.75-1.97 1.72-1.97.24 0 .44.04.56.08l.11-.92c-.15-.05-.39-.08-.62-.08-.83 0-1.4.44-1.74 1.24h-.04L1.9-6.02h-.82zm0 0"/></symbol><symbol overflow="visible" id="f296197aay"><path d="M2.63.17c1.01 0 1.68-.42 2.01-1.1h.06l.11.93h.8v-4.1c0-1.43-.8-2.09-2.36-2.09-1.58 0-2.27.7-2.44 1.85l.97.09c.11-.72.5-1.14 1.45-1.14.99 0 1.44.4 1.44 1.34v.42l-2.03.27C1.2-3.19.58-2.64.58-1.55c0 1.08.7 1.72 2.04 1.72zm.18-.8c-.87 0-1.25-.37-1.25-.98 0-.58.33-.9 1.16-1.03l1.95-.27v.58c0 .99-.7 1.7-1.86 1.7zm0 0"/></symbol><symbol overflow="visible" id="f296197aaz"><path d="M4.08.17C5.72.17 6.68-1 6.68-3c0-2.02-.96-3.19-2.63-3.19-.94 0-1.6.44-1.94 1.16h-.05v-3.55H1.1V0h.82l.14-1.06h.04C2.5-.28 3.13.17 4.08.17zm-.2-.84C2.63-.67 2.02-1.62 2.02-3c0-1.38.61-2.34 1.85-2.34 1.2 0 1.8.76 1.8 2.34 0 1.56-.6 2.33-1.8 2.33zm0 0"/></symbol><symbol overflow="visible" id="f296197aaA"><path d="M3.47.17c1.81 0 2.86-1.14 2.86-3.19 0-2.04-1.05-3.17-2.86-3.17C1.66-6.19.6-5.06.6-3.02.6-.97 1.66.18 3.47.18zm0-.84c-1.25 0-1.86-.78-1.86-2.35 0-1.56.6-2.32 1.86-2.32 1.25 0 1.86.76 1.86 2.32 0 1.57-.61 2.35-1.86 2.35zm0 0"/></symbol><symbol overflow="visible" id="f296197aaB"><path d="M1.1 0h.96v-8.58H1.1zm0 0"/></symbol><symbol overflow="visible" id="f296197aaC"><path d="M3.17.17c.99 0 1.61-.45 2.02-1.23h.04L5.37 0h.82v-8.58h-.97v3.55h-.05c-.36-.74-1-1.16-1.97-1.16C1.58-6.19.6-5.02.6-3.02.6-1 1.57.18 3.18.18zm.2-.84C2.23-.67 1.61-1.44 1.61-3c0-1.58.6-2.34 1.76-2.34 1.29 0 1.88.95 1.88 2.34 0 1.38-.6 2.33-1.88 2.33zm0 0"/></symbol><symbol overflow="visible" id="f296197aaD"><path d="M4.05-8.1H1.27V0h2.67c2.72 0 3.92-1.25 3.92-4.05 0-2.84-1.22-4.06-3.81-4.06zm.01 7.22H2.28v-6.35h1.78c1.85 0 2.77.73 2.77 3.18 0 2.44-.92 3.17-2.77 3.17zm0 0"/></symbol><symbol overflow="visible" id="f296197aaE"><path d="M1.58-7.05c.39 0 .67-.2.67-.64 0-.45-.28-.65-.67-.65-.4 0-.67.2-.67.65 0 .44.26.64.67.64zM1.09 0h.97v-6.02H1.1zm0 0"/></symbol><symbol overflow="visible" id="f296197aaF"><path d="M3.05.17c1.48 0 2.37-.69 2.37-1.87 0-1.02-.6-1.4-1.84-1.68l-.81-.18c-.74-.16-1.05-.4-1.05-.9 0-.65.44-.95 1.26-.95.9 0 1.32.32 1.4 1.04l.95-.08c-.1-1.2-.86-1.77-2.33-1.77-1.4 0-2.23.64-2.23 1.84 0 .96.59 1.44 1.78 1.7l.8.15c.76.15 1.12.34 1.12.94 0 .6-.53.97-1.4.97-1 0-1.5-.35-1.62-1.13l-.95.1C.6-.48 1.4.16 3.05.16zm0 0"/></symbol><symbol overflow="visible" id="f296197aaG"><path d="M1.1 2.25h.96V-.98h.05c.34.71 1 1.15 1.94 1.15C5.72.17 6.67-1 6.67-3.02c0-2-.95-3.17-2.6-3.17-.95 0-1.57.46-1.98 1.24h-.04L1.9-6.02h-.82zM3.86-.67c-1.23 0-1.84-.97-1.84-2.35 0-1.37.61-2.32 1.85-2.32 1.2 0 1.8.76 1.8 2.32 0 1.58-.6 2.35-1.8 2.35zm0 0"/></symbol><symbol overflow="visible" id="f296197aaH"><path d="M4.84-6.02L3.08-.9h-.05L1.13-6H.07L2.39 0h.38c-.49 1.17-.94 1.55-1.61 1.55-.2 0-.5-.02-.74-.08l-.1.83c.23.06.55.12.88.12 1.35 0 1.9-.87 2.47-2.42l2.19-6.02zm0 0"/></symbol><symbol overflow="visible" id="f296197aaI"><path d="M1.1 0h.96v-3.3c0-1.2.78-2 1.83-2 .9 0 1.33.49 1.33 1.6V0h.97v-4.05c0-1.4-.74-2.14-2-2.14-1.03 0-1.67.5-2.08 1.24h-.05v-3.63H1.1zm0 0"/></symbol><symbol overflow="visible" id="f296197aaJ"><path d="M1.1 0h.96v-3.3c0-1.2.78-2 1.83-2 .9 0 1.33.52 1.33 1.55V0h.97v-4.03c0-1.4-.7-2.16-2.02-2.16-1.01 0-1.67.52-2.08 1.24h-.04L1.9-6.02h-.82zm0 0"/></symbol><symbol overflow="visible" id="f296197aaK"><path d="M1.27 0h.92v-7.02h.06L5.02 0h1.03L8.8-7.02h.06V0h1v-8.1h-1.6L5.62-1.23h-.06L2.85-8.1H1.28zm0 0"/></symbol><symbol overflow="visible" id="f296197aaL"><path d="M2.94.17c.98 0 1.6-.51 2.01-1.23H5L5.16 0h.8v-6.02h-.98v3.3c0 1.2-.78 2.02-1.76 2.02-.85 0-1.27-.52-1.27-1.57v-3.75H.98v4.04C.98-.6 1.68.17 2.94.17zm0 0"/></symbol><symbol overflow="visible" id="f296197aaM"><path d="M1.1 0h.96v-3.3c0-1.2.78-2 1.77-2 .86 0 1.28.52 1.28 1.55V0h.97v-3.3c0-1.2.78-2 1.78-2 .84 0 1.26.52 1.26 1.55V0h.97v-4.03c0-1.4-.7-2.16-1.95-2.16-1.05 0-1.69.58-2.1 1.35h-.06C5.75-5.7 5.12-6.2 4.12-6.2c-.96 0-1.62.52-2.03 1.24h-.04L1.9-6.02h-.82zm0 0"/></symbol><symbol overflow="visible" id="f296197aaN"><path d="M1.27 0h1.01v-8.1H1.27zm0 0"/></symbol><symbol overflow="visible" id="f296197aaO"><path d="M3.4.17c1.6 0 2.41-.73 2.57-2.04L5-1.96c-.13.86-.6 1.28-1.6 1.28-1.2 0-1.8-.81-1.8-2.35 0-1.53.59-2.32 1.8-2.32.98 0 1.48.45 1.6 1.3l.97-.08C5.8-5.45 4.94-6.2 3.4-6.2 1.64-6.19.6-5 .6-3.02.6-1 1.64.18 3.4.18zm0 0"/></symbol><symbol overflow="visible" id="f296197aaP"><path d="M6.05-4.05v-.06c.93-.2 1.42-.81 1.42-1.94 0-1.26-.7-2.06-2.6-2.06h-3.6V0h3.6c1.91 0 2.8-.78 2.8-2.13 0-1.25-.64-1.75-1.62-1.92zm-1.2-3.22c1.13 0 1.63.46 1.63 1.4 0 .9-.5 1.4-1.62 1.4H2.25v-2.8zm.03 6.43H2.25v-2.82h2.63c1.2 0 1.8.41 1.8 1.41 0 1.02-.6 1.4-1.8 1.4zm0 0"/></symbol><symbol overflow="visible" id="f296197aaQ"><path d="M3.48 2.42c1.88 0 2.7-1.03 2.7-2.9v-5.54h-.8l-.15 1.07H5.2c-.3-.61-.83-1.24-1.96-1.24-1.7 0-2.62 1.22-2.62 3.05 0 1.87.86 3.08 2.62 3.08a2 2 0 001.93-1.2h.06v.78c0 1.39-.5 2.06-1.74 2.06C2.41 1.58 2 1.16 1.86.5L.87.6c.15 1.13.94 1.82 2.61 1.82zM3.4-.89c-1.17 0-1.78-.8-1.78-2.25 0-1.38.6-2.2 1.78-2.2 1.23 0 1.86.96 1.86 2.2 0 1.2-.64 2.25-1.86 2.25zm0 0"/></symbol><symbol overflow="visible" id="f296197aaR"><path d="M2.55 2.25h.97a12.14 12.14 0 01-1.54-5.8c0-2.37.75-4.34 1.54-5.78h-.97a11.28 11.28 0 000 11.58zm0 0"/></symbol><symbol overflow="visible" id="f296197aaS"><path d="M4.6 0h.96v-1.84h1.07v-.85H5.55V-8.1H4.23L.17-2.63v.79H4.6zM1.24-2.69v-.04l3.3-4.46h.04v4.5zm0 0"/></symbol><symbol overflow="visible" id="f296197aaT"><path d="M1.19 1.94c.56-.72 1-1.56 1-2.35 0-.48-.24-.8-.72-.8-.4 0-.67.24-.67.66 0 .4.26.63.64.64-.11.55-.42 1.16-.77 1.63zm0 0"/></symbol><symbol overflow="visible" id="f296197aaU"><path d="M5.94-6.02h-1.2L2.1-3.45h-.05v-5.13H1.1V0h.97v-2.83h.05L4.83 0h1.22L2.98-3.19zm0 0"/></symbol><symbol overflow="visible" id="f296197aaV"><path d="M3.45-9.03c-.34.4-.87 1.19-.87 1.97 0 .5.26.8.72.8.39 0 .67-.22.67-.66 0-.44-.31-.63-.67-.64.1-.42.4-.9.65-1.25zm-2.14 0a3.3 3.3 0 00-.87 1.97c0 .5.26.8.72.8.37 0 .67-.22.67-.66 0-.44-.31-.63-.69-.64.13-.42.4-.9.66-1.25zm0 0"/></symbol><symbol overflow="visible" id="f296197aaW"><path d="M2.6.14c.32 0 .68-.08.84-.14l-.11-.77c-.13.04-.31.07-.5.07-.53 0-.78-.2-.78-.8v-7.08h-.97v7.13c0 1.07.5 1.6 1.53 1.6zm0 0"/></symbol><symbol overflow="visible" id="f296197aaX"><path d="M1-6.27c.36-.4.88-1.18.88-1.96 0-.5-.27-.8-.72-.8-.38 0-.68.22-.68.65 0 .44.32.63.7.65-.13.42-.41.89-.66 1.25zm2.16 0c.34-.4.86-1.18.86-1.96 0-.5-.25-.8-.7-.8-.4 0-.68.22-.68.65 0 .44.31.63.67.65-.12.42-.4.89-.65 1.25zm0 0"/></symbol><symbol overflow="visible" id="f296197aaY"><path d="M.9-9.33h-.98c.78 1.44 1.53 3.4 1.53 5.78C1.45-1.17.7.81-.08 2.25H.9a11.28 11.28 0 000-11.58zm0 0"/></symbol><symbol overflow="visible" id="f296197aaZ"><path d="M62.48-86.75h-48.9V0h2.51v-84.36h46.4zm0 0"/></symbol><symbol overflow="visible" id="f296197aba"><path d="M33.69 1.9c17.6 0 27.9-12.59 27.9-34.34 0-21.75-10.3-34.19-27.9-34.19-17.6 0-27.9 12.44-27.9 34.2 0 21.74 10.3 34.32 27.9 34.32zm0-2.4c-16.1 0-25.4-11.56-25.4-31.94 0-20.36 9.3-31.8 25.4-31.8 16.1 0 25.39 11.44 25.39 31.8 0 20.38-9.3 31.94-25.4 31.94zm0 0"/></symbol><symbol overflow="visible" id="f296197abb"><path d="M10.56 23.9h2.52v-40.74h.12C15.34-7.3 23.13 1.89 37.47 1.89c17.34 0 27.01-12.83 27.01-34.2 0-21.5-9.67-34.31-27.01-34.31-13.33 0-21.63 8.8-24.4 19.48h-.12l-.37-17.61h-2.02zM37.46-.5c-13.94 0-24.38-9.44-24.38-31.81 0-20.86 9.92-31.92 24.39-31.92 15.83 0 24.51 11.68 24.51 31.92C61.98-12.2 53.3-.5 37.47-.5zm0 0"/></symbol><symbol overflow="visible" id="f296197abc"><path d="M58.08-2.4v-62.35h-39.1a940.9 940.9 0 01-2.01 33.33C15.84-18.48 12.83-6.16 8.92-2.4H1.25v18.73h2.52V0H65v16.34h2.52V-2.39zm-46.14 0c3.9-5.02 6.42-17.33 7.42-29.02.75-8.42 1.39-20 1.89-30.94h34.31v59.97zm0 0"/></symbol><symbol overflow="visible" id="f296197abd"><path d="M33.44 1.9c13.45 0 20.87-6.68 25.26-21.88H56.2C52.29-6.78 46.02-.5 33.44-.5 17.47-.5 8.3-11.94 8.3-32.44c0-20.36 9.3-31.8 25.01-31.8 12.2 0 19.24 5.29 22.63 18.85h2.51c-3.89-15.08-11.43-21.23-25.14-21.23-17.22 0-27.53 12.43-27.53 34.18C5.78-10.56 15.97 1.9 33.44 1.9zm0 0"/></symbol><symbol overflow="visible" id="f296197abe"><path d="M51.92-64.75h-3.51L13.2-33.44h-.13v-31.31h-2.52V0h2.52v-32.94h.12L49.53 0h3.64L16.6-33.31zm0 0"/></symbol><symbol overflow="visible" id="f296197abf"><path d="M24.9 1.9c14.57 0 23.76-9.57 26.4-18.24h.12L51.92 0h2.02v-44.13c0-15.34-7.92-22.5-21.25-22.5-12.83 0-20.24 6.66-24.4 20.74h2.52C14.45-58.45 21-64.36 32.7-64.36 45-64.36 51.42-57.83 51.42-44c0 4.02-4.4 5.78-10.19 7.17l-16.71 3.9C12.06-30.06 5.78-23.78 5.78-14.59 5.78-4.02 13.08 1.9 24.9 1.9zm-.38-2.27C14.32-.38 8.3-5.67 8.3-14.7c0-7.93 4.9-13.2 16.84-15.97l16.6-3.9c6.28-1.5 8.3-2.77 9.68-4.77v11.56c0 17.6-13.08 27.4-26.9 27.4zm0 0"/></symbol><symbol overflow="visible" id="f296197abg"><path d="M53.17-64.75H28.66c-14.46 0-22 6.3-22 17.98 0 11.7 7.54 18.24 22 18.24h1.7c-2.08.87-3.9 2.89-5.72 5.28L6.04 0h3l18-22.38c3.26-4.03 5.65-6.03 10.3-6.03h13.32V0h2.51zM28.66-30.67c-12.57 0-19.49-5.28-19.49-16.1 0-10.8 6.92-15.71 19.49-15.71h22v31.8zm0 0"/></symbol><symbol overflow="visible" id="f296197abi"><path d="M58.58-32.06v-1.5c0-20.75-8.8-33.06-25.27-33.06-17.6 0-27.53 12.43-27.53 34.18S14.7 1.9 32.56 1.9c12.31 0 19.36-4.9 24.77-17.36h-2.77C49.91-5.16 43.87-.5 32.56-.5 16.22-.5 8.42-11.94 8.3-32.06zM33.3-64.23c14.85 0 22.5 11.06 22.75 29.92H8.3c.5-19.24 9.3-29.92 25.01-29.92zm0 0"/></symbol><symbol overflow="visible" id="f296197abj"><path d="M93.6-93.98H12.04V0h20.84v-76.66h39.86V0h20.84zm0 0"/></symbol><symbol overflow="visible" id="f296197abk"><path d="M41.3 1.98c23.83 0 36.6-13.43 36.6-37.2 0-23.69-12.78-37.06-36.6-37.06-23.7 0-36.47 13.37-36.47 37.06 0 23.77 12.78 37.2 36.47 37.2zm0-15.48c-11.52 0-16.28-7.22-16.28-21.72 0-14.42 4.76-21.64 16.28-21.64 11.65 0 16.42 7.22 16.42 21.64 0 14.5-4.77 21.72-16.42 21.72zm0 0"/></symbol><symbol overflow="visible" id="f296197abl"><path d="M52.16-70.3c-7.14-21.1-10.46-30.97-26.94-30.97a55.8 55.8 0 00-13.77 1.85l2.05 15.5a37.3 37.3 0 018.14-1.06c6.48 0 9.08 2.78 13.31 14.68h-8.6L.58 0h20.79l17.14-52.75h.8L55.2 0h20.92zm0 0"/></symbol><symbol overflow="visible" id="f296197abm"><path d="M42.69 1.98c20.8 0 33.7-9.59 33.7-33.3V-70.3H56.53v38.99c0 12.58-3.97 17.54-13.84 17.54-9.8 0-13.9-4.96-13.9-17.54V-70.3H8.95v38.99c0 23.7 12.97 33.3 33.75 33.3zm0 0"/></symbol><symbol overflow="visible" id="f296197abn"><path d="M76.45-70.3H55.33L30.9-42.03h-.8V-70.3H10.27V0H30.1v-30.38h.73L55.27 0H78.1L47.8-38zm0 0"/></symbol><symbol overflow="visible" id="f296197abo"><path d="M33.83 1.98c13.89 0 20.19-7.87 23.62-15.75h.86C59.64-3.9 64.34 1.86 77.05 1.86c4.62 0 8.73-.86 11.45-1.99L86.9-14.5c-1.24.4-2.71.6-4.23.6-4.37 0-6.22-2.18-6.22-7.88V-70.3H56.6v11.13h-.8c-3.3-8.02-10.18-13.11-21.63-13.11-18.53 0-29.33 13.83-29.33 37.06 0 23.24 10.8 37.2 29 37.2zm7.14-15.75c-11.05 0-15.95-7.01-15.95-21.45 0-14.3 4.9-21.31 15.95-21.31 11.06 0 15.89 7.81 15.89 21.31 0 13.7-4.83 21.45-15.9 21.45zm0 0"/></symbol><symbol overflow="visible" id="f296197abp"><path d="M61.95-53.28V-70.3H-.33v17.02h20.58v34.1c0 13.95 6.9 21.04 21.72 21.04C47.59 1.86 53.42.53 56.2-.4l-1.65-14.3c-1.27.33-4.44.78-6.9.78-5.5 0-8.26-2.17-8.26-8.32v-31.05zm0 0"/></symbol><symbol overflow="visible" id="f296197abq"><path d="M30.84 1.86c5.1 0 10.4-1.13 13.24-2.19l-1.66-14.3c-1.25.33-3.56.72-5.28.72-5.23 0-7.62-2.17-7.62-8.32V-70.3H9.66v50.5c0 14.11 6.5 21.66 21.18 21.66zm0 0"/></symbol><symbol overflow="visible" id="f296197abr"><path d="M10.98-79.3h15.1l13.1-25.01H19.54zM30.84 1.86c5.1 0 10.4-1.13 13.24-2.19l-1.66-14.3c-1.25.33-3.56.72-5.28.72-5.23 0-7.62-2.17-7.62-8.32V-70.3H9.66v50.5c0 14.11 6.5 21.66 21.18 21.66zm0 0"/></symbol></defs><use xlink:href="#f296197aa" x="39.056" y="174.4322"/><use xlink:href="#f296197ab" x="104.888" y="174.4322"/><use xlink:href="#f296197ac" x="156.848" y="174.4322"/><use xlink:href="#f296197ad" x="227.648" y="174.4322"/><use xlink:href="#f296197ae" x="303.848" y="174.4322"/><use xlink:href="#f296197af" x="367.808" y="174.4322"/><use xlink:href="#f296197ag" x="416.72" y="174.4322"/><use xlink:href="#f296197ab" x="489.2" y="174.4322"/><use xlink:href="#f296197ah" x="541.16" y="174.4322"/><use xlink:href="#f296197ac" x="656.84" y="174.4322"/><use xlink:href="#f296197ai" x="727.64" y="174.4322"/><use xlink:href="#f296197aj" x="777.92" y="174.4322"/><use xlink:href="#f296197ag" x="814.16" y="174.4322"/><use xlink:href="#f296197ad" x="886.64" y="174.4322"/><use xlink:href="#f296197ak" x="38.9484" y="1202.4871"/><use xlink:href="#f296197al" x="123.2241" y="1202.4871"/><use xlink:href="#f296197am" x="166.3101" y="1202.4871"/><use xlink:href="#f296197an" x="246.7674" y="1202.4871"/><use xlink:href="#f296197ak" x="289.2729" y="1202.4871"/><use xlink:href="#f296197ao" x="373.368" y="1202.4871"/><use xlink:href="#f296197ap" x="453.2835" y="1202.4871"/><use xlink:href="#f296197aq" x="531.9735" y="1202.4871"/><use xlink:href="#f296197ak" x="560.4825" y="1202.4871"/><use xlink:href="#f296197am" x="644.8485" y="1202.4871"/><use xlink:href="#f296197ar" x="724.6995" y="1202.4871"/><use xlink:href="#f296197as" x="792.8115" y="1202.4871"/><use xlink:href="#f296197at" x="878.0805" y="1202.4871"/><use xlink:href="#f296197au" x="33.8912" y="1398.2749"/><use xlink:href="#f296197av" x="96.6402" y="1398.2749"/><use xlink:href="#f296197aw" x="163.4502" y="1398.2749"/><use xlink:href="#f296197ax" x="226.9852" y="1398.2749"/><use xlink:href="#f296197ay" x="296.5462" y="1398.2749"/><use xlink:href="#f296197az" x="326.6762" y="1398.2749"/><use xlink:href="#f296197aA" x="357.8542" y="1398.2749"/><use xlink:href="#f296197av" x="467.3702" y="1398.2749"/><use xlink:href="#f296197aB" x="534.1802" y="1398.2749"/><use xlink:href="#f296197aC" x="603.7412" y="1398.2749"/><use xlink:href="#f296197aD" x="667.2762" y="1398.2749"/><use xlink:href="#f296197aE" x="708.2661" y="1398.2749"/><use xlink:href="#f296197aF" x="775.7311" y="1398.2749"/><use xlink:href="#f296197aG" x="799.2456" y="1398.2749"/><use xlink:href="#f296197aA" x="856.6236" y="1398.2749"/><use xlink:href="#f296197aH" x="34.2574" y="1593.9066"/><use xlink:href="#f296197aI" x="68.2024" y="1593.9066"/><use xlink:href="#f296197aJ" x="105.7124" y="1593.9066"/><use xlink:href="#f296197aK" x="192.2799" y="1593.9066"/><use xlink:href="#f296197aL" x="255.5199" y="1593.9066"/><use xlink:href="#f296197aK" x="292.8749" y="1593.9066"/><use xlink:href="#f296197aM" x="356.1149" y="1593.9066"/><use xlink:href="#f296197aN" x="393.6249" y="1593.9066"/><use xlink:href="#f296197aO" x="446.4799" y="1593.9066"/><use xlink:href="#f296197aL" x="483.9899" y="1593.9066"/><use xlink:href="#f296197aP" x="521.3449" y="1593.9066"/><use xlink:href="#f296197aQ" x="553.8949" y="1593.9066"/><use xlink:href="#f296197aR" x="617.1349" y="1593.9066"/><use xlink:href="#f296197aS" x="643.4849" y="1593.9066"/><use xlink:href="#f296197aK" x="722.9999" y="1593.9066"/><use xlink:href="#f296197aT" x="786.2399" y="1593.9066"/><use xlink:href="#f296197aU" x="825.9199" y="1593.9066"/><g><use xlink:href="#f296197aL" x="895.5769" y="1593.9066"/><use xlink:href="#f296197aP" x="932.9319" y="1593.9066"/></g><g><use xlink:href="#f296197aV" x="34.3558" y="996.7645"/><use xlink:href="#f296197aW" x="98.5758" y="996.7645"/><use xlink:href="#f296197aX" x="166.9558" y="996.7645"/><use xlink:href="#f296197aY" x="231.6958" y="996.7645"/><use xlink:href="#f296197aZ" x="262.2458" y="996.7645"/></g><g><use xlink:href="#f296197aaa" x="289.0908" y="996.7645"/><use xlink:href="#f296197aab" x="356.6908" y="996.7645"/><use xlink:href="#f296197aac" x="416.2308" y="996.7645"/><use xlink:href="#f296197aad" x="455.1008" y="996.7645"/><use xlink:href="#f296197aae" x="522.5708" y="996.7645"/><use xlink:href="#f296197aY" x="555.7208" y="996.7645"/><use xlink:href="#f296197aaf" x="586.2708" y="996.7645"/><use xlink:href="#f296197aae" x="611.7508" y="996.7645"/><use xlink:href="#f296197aae" x="644.9008" y="996.7645"/><use xlink:href="#f296197aad" x="678.0508" y="996.7645"/></g><g><use xlink:href="#f296197aag" x="745.4038" y="996.7645"/><use xlink:href="#f296197aaf" x="803.9038" y="996.7645"/><use xlink:href="#f296197aaa" x="829.3838" y="996.7645"/><use xlink:href="#f296197aah" x="896.9838" y="996.7645"/></g><g><use xlink:href="#f296197aai" x="32.6924" y="583.5132"/><use xlink:href="#f296197aaj" x="131.3804" y="583.5132"/><use xlink:href="#f296197aak" x="202.8044" y="583.5132"/><use xlink:href="#f296197aal" x="307.3804" y="583.5132"/><use xlink:href="#f296197aam" x="340.2764" y="583.5132"/></g><g><use xlink:href="#f296197aan" x="404.494" y="583.5132"/><use xlink:href="#f296197aao" x="454.798" y="583.5132"/><use xlink:href="#f296197aap" x="504.718" y="583.5132"/><use xlink:href="#f296197aaq" x="580.622" y="583.5132"/><use xlink:href="#f296197aan" x="650.766" y="583.5132"/><use xlink:href="#f296197aap" x="701.07" y="583.5132"/><use xlink:href="#f296197aao" x="776.974" y="583.5132"/><use xlink:href="#f296197aaj" x="826.894" y="583.5132"/><use xlink:href="#f296197aam" x="898.318" y="583.5132"/></g><path d="M20 241.92h960" fill="none" stroke="#ddd"/><g fill="#ff5000"><use xlink:href="#f296197aar" x="20" y="222.4188"/></g><g fill="#ff5000"><use xlink:href="#f296197aas" x="25.892" y="222.4188"/></g><g fill="#ff5000"><use xlink:href="#f296197aat" x="32.5028" y="222.4188"/><use xlink:href="#f296197aau" x="38.5388" y="222.4188"/><use xlink:href="#f296197aav" x="43.2668" y="222.4188"/><use xlink:href="#f296197aaw" x="46.3868" y="222.4188"/><use xlink:href="#f296197aat" x="53.9468" y="222.4188"/><use xlink:href="#f296197aau" x="59.9828" y="222.4188"/><use xlink:href="#f296197aax" x="64.7108" y="222.4188"/><use xlink:href="#f296197aay" x="69.3308" y="222.4188"/><use xlink:href="#f296197aaz" x="75.9308" y="222.4188"/><use xlink:href="#f296197aaA" x="83.2148" y="222.4188"/><use xlink:href="#f296197aaB" x="90.1508" y="222.4188"/><use xlink:href="#f296197aaC" x="93.2948" y="222.4188"/></g><path d="M20 446.92h960" fill="none" stroke="#ddd"/><g fill="#ff5000"><use xlink:href="#f296197aaD" x="20" y="427.4188"/><use xlink:href="#f296197aaE" x="28.532" y="427.4188"/><use xlink:href="#f296197aaF" x="31.676" y="427.4188"/><use xlink:href="#f296197aaG" x="37.7" y="427.4188"/><use xlink:href="#f296197aaB" x="44.984" y="427.4188"/><use xlink:href="#f296197aay" x="48.128" y="427.4188"/><use xlink:href="#f296197aaH" x="54.728" y="427.4188"/><use xlink:href="#f296197aav" x="60.656" y="427.4188"/><use xlink:href="#f296197aar" x="63.776" y="427.4188"/><use xlink:href="#f296197aaI" x="70.184" y="427.4188"/><use xlink:href="#f296197aaE" x="77.36" y="427.4188"/><use xlink:href="#f296197aaJ" x="80.504" y="427.4188"/><use xlink:href="#f296197aav" x="87.68" y="427.4188"/></g><path d="M20 651.92h960" fill="none" stroke="#ddd"/><g fill="#ff5000"><use xlink:href="#f296197aar" x="20" y="632.4188"/></g><g fill="#ff5000"><use xlink:href="#f296197aas" x="25.892" y="632.4188"/></g><g fill="#ff5000"><use xlink:href="#f296197aat" x="32.5028" y="632.4188"/><use xlink:href="#f296197aau" x="38.5388" y="632.4188"/><use xlink:href="#f296197aav" x="43.2668" y="632.4188"/><use xlink:href="#f296197aaK" x="46.3868" y="632.4188"/><use xlink:href="#f296197aas" x="57.5108" y="632.4188"/><use xlink:href="#f296197aaC" x="64.1828" y="632.4188"/><use xlink:href="#f296197aaE" x="71.4668" y="632.4188"/><use xlink:href="#f296197aaL" x="74.6108" y="632.4188"/><use xlink:href="#f296197aaM" x="81.6548" y="632.4188"/><use xlink:href="#f296197aav" x="92.7308" y="632.4188"/><use xlink:href="#f296197aaN" x="95.8508" y="632.4188"/><use xlink:href="#f296197aau" x="99.3908" y="632.4188"/><use xlink:href="#f296197aay" x="104.1188" y="632.4188"/><use xlink:href="#f296197aaB" x="110.7188" y="632.4188"/><use xlink:href="#f296197aaE" x="113.8628" y="632.4188"/><use xlink:href="#f296197aaO" x="117.0068" y="632.4188"/></g><path d="M20 856.92h960" fill="none" stroke="#ddd"/><g fill="#ff5000"><use xlink:href="#f296197aar" x="20" y="837.4188"/></g><g fill="#ff5000"><use xlink:href="#f296197aas" x="25.892" y="837.4188"/></g><g fill="#ff5000"><use xlink:href="#f296197aat" x="32.5028" y="837.4188"/><use xlink:href="#f296197aau" x="38.5388" y="837.4188"/><use xlink:href="#f296197aav" x="43.2668" y="837.4188"/><use xlink:href="#f296197aaP" x="46.3868" y="837.4188"/><use xlink:href="#f296197aaA" x="54.8588" y="837.4188"/><use xlink:href="#f296197aaB" x="61.7948" y="837.4188"/><use xlink:href="#f296197aaC" x="64.9388" y="837.4188"/></g><path d="M20 1061.92h960" fill="none" stroke="#ddd"/><g fill="#ff5000"><use xlink:href="#f296197aaD" x="20" y="1042.4188"/><use xlink:href="#f296197aaE" x="28.532" y="1042.4188"/><use xlink:href="#f296197aaF" x="31.676" y="1042.4188"/><use xlink:href="#f296197aaG" x="37.7" y="1042.4188"/><use xlink:href="#f296197aaB" x="44.984" y="1042.4188"/><use xlink:href="#f296197aay" x="48.128" y="1042.4188"/><use xlink:href="#f296197aaH" x="54.728" y="1042.4188"/><use xlink:href="#f296197aav" x="60.656" y="1042.4188"/><use xlink:href="#f296197aaw" x="63.776" y="1042.4188"/><use xlink:href="#f296197aat" x="71.336" y="1042.4188"/><use xlink:href="#f296197aau" x="77.372" y="1042.4188"/><use xlink:href="#f296197aax" x="82.1" y="1042.4188"/><use xlink:href="#f296197aay" x="86.72" y="1042.4188"/><use xlink:href="#f296197aaB" x="93.32" y="1042.4188"/><use xlink:href="#f296197aaE" x="96.464" y="1042.4188"/><use xlink:href="#f296197aaQ" x="99.608" y="1042.4188"/><use xlink:href="#f296197aaI" x="106.892" y="1042.4188"/><use xlink:href="#f296197aau" x="114.068" y="1042.4188"/><use xlink:href="#f296197aav" x="118.796" y="1042.4188"/><use xlink:href="#f296197aaN" x="121.916" y="1042.4188"/><use xlink:href="#f296197aau" x="125.456" y="1042.4188"/><use xlink:href="#f296197aay" x="130.184" y="1042.4188"/><use xlink:href="#f296197aaB" x="136.784" y="1042.4188"/><use xlink:href="#f296197aaE" x="139.928" y="1042.4188"/><use xlink:href="#f296197aaO" x="143.072" y="1042.4188"/><use xlink:href="#f296197aav" x="149.6" y="1042.4188"/><use xlink:href="#f296197aaR" x="152.72" y="1042.4188"/></g><g fill="#ff5000"><use xlink:href="#f296197aaF" x="156.188" y="1042.4188"/></g><g fill="#ff5000"><use xlink:href="#f296197aau" x="162.1592" y="1042.4188"/><use xlink:href="#f296197aaH" x="166.8872" y="1042.4188"/><use xlink:href="#f296197aaB" x="172.8152" y="1042.4188"/><use xlink:href="#f296197aaE" x="175.9592" y="1042.4188"/><use xlink:href="#f296197aaF" x="179.1032" y="1042.4188"/></g><g fill="#ff5000"><use xlink:href="#f296197aau" x="185.0852" y="1042.4188"/><use xlink:href="#f296197aaE" x="189.8132" y="1042.4188"/><use xlink:href="#f296197aaO" x="192.9572" y="1042.4188"/><use xlink:href="#f296197aav" x="199.4852" y="1042.4188"/><use xlink:href="#f296197aaF" x="202.6052" y="1042.4188"/></g><g fill="#ff5000"><use xlink:href="#f296197aas" x="208.5308" y="1042.4188"/><use xlink:href="#f296197aau" x="215.2028" y="1042.4188"/><use xlink:href="#f296197aav" x="219.9308" y="1042.4188"/></g><g fill="#ff5000"><use xlink:href="#f296197aaS" x="223.0508" y="1042.4188"/><use xlink:href="#f296197aaT" x="230.0948" y="1042.4188"/><use xlink:href="#f296197aav" x="233.0708" y="1042.4188"/><use xlink:href="#f296197aaI" x="236.1908" y="1042.4188"/><use xlink:href="#f296197aaA" x="243.3668" y="1042.4188"/><use xlink:href="#f296197aaA" x="250.3028" y="1042.4188"/><use xlink:href="#f296197aaU" x="257.2388" y="1042.4188"/></g><g fill="#ff5000"><use xlink:href="#f296197aas" x="263.1872" y="1042.4188"/><use xlink:href="#f296197aaC" x="269.8592" y="1042.4188"/><use xlink:href="#f296197aav" x="277.1432" y="1042.4188"/><use xlink:href="#f296197aaV" x="280.2632" y="1042.4188"/><use xlink:href="#f296197aaW" x="284.7152" y="1042.4188"/><use xlink:href="#f296197aaX" x="288.6032" y="1042.4188"/></g><g fill="#ff5000"><use xlink:href="#f296197aaY" x="293.4272" y="1042.4188"/></g><path d="M20 1267.02h960" fill="none" stroke="#ddd"/><g fill="#ff5000"><use xlink:href="#f296197aaD" x="20" y="1247.5146"/><use xlink:href="#f296197aaE" x="28.532" y="1247.5146"/><use xlink:href="#f296197aaF" x="31.676" y="1247.5146"/><use xlink:href="#f296197aaG" x="37.7" y="1247.5146"/><use xlink:href="#f296197aaB" x="44.984" y="1247.5146"/><use xlink:href="#f296197aay" x="48.128" y="1247.5146"/><use xlink:href="#f296197aaH" x="54.728" y="1247.5146"/><use xlink:href="#f296197aav" x="60.656" y="1247.5146"/><use xlink:href="#f296197aaw" x="63.776" y="1247.5146"/><use xlink:href="#f296197aat" x="71.336" y="1247.5146"/><use xlink:href="#f296197aau" x="77.372" y="1247.5146"/><use xlink:href="#f296197aax" x="82.1" y="1247.5146"/><use xlink:href="#f296197aay" x="86.72" y="1247.5146"/><use xlink:href="#f296197aaz" x="93.32" y="1247.5146"/><use xlink:href="#f296197aaA" x="100.604" y="1247.5146"/><use xlink:href="#f296197aaB" x="107.54" y="1247.5146"/><use xlink:href="#f296197aaC" x="110.684" y="1247.5146"/></g><path d="M20 1457.07h960" fill="none" stroke="#ddd"/><g fill="#ff5000"><use xlink:href="#f296197aaD" x="20" y="1437.5693"/><use xlink:href="#f296197aaE" x="28.532" y="1437.5693"/><use xlink:href="#f296197aaF" x="31.676" y="1437.5693"/><use xlink:href="#f296197aaG" x="37.7" y="1437.5693"/><use xlink:href="#f296197aaB" x="44.984" y="1437.5693"/><use xlink:href="#f296197aay" x="48.128" y="1437.5693"/><use xlink:href="#f296197aaH" x="54.728" y="1437.5693"/><use xlink:href="#f296197aav" x="60.656" y="1437.5693"/><use xlink:href="#f296197aaw" x="63.776" y="1437.5693"/><use xlink:href="#f296197aat" x="71.336" y="1437.5693"/><use xlink:href="#f296197aau" x="77.372" y="1437.5693"/><use xlink:href="#f296197aax" x="82.1" y="1437.5693"/><use xlink:href="#f296197aay" x="86.72" y="1437.5693"/><use xlink:href="#f296197aaz" x="93.32" y="1437.5693"/><use xlink:href="#f296197aaA" x="100.604" y="1437.5693"/><use xlink:href="#f296197aaB" x="107.54" y="1437.5693"/><use xlink:href="#f296197aaC" x="110.684" y="1437.5693"/></g><g fill="#ff5000"><use xlink:href="#f296197aaD" x="20" y="1646.5493"/><use xlink:href="#f296197aaE" x="28.532" y="1646.5493"/><use xlink:href="#f296197aaF" x="31.676" y="1646.5493"/><use xlink:href="#f296197aaG" x="37.7" y="1646.5493"/><use xlink:href="#f296197aaB" x="44.984" y="1646.5493"/><use xlink:href="#f296197aay" x="48.128" y="1646.5493"/><use xlink:href="#f296197aaH" x="54.728" y="1646.5493"/><use xlink:href="#f296197aav" x="60.656" y="1646.5493"/><use xlink:href="#f296197aaw" x="63.776" y="1646.5493"/><use xlink:href="#f296197aat" x="71.336" y="1646.5493"/><use xlink:href="#f296197aau" x="77.372" y="1646.5493"/><use xlink:href="#f296197aax" x="82.1" y="1646.5493"/><use xlink:href="#f296197aay" x="86.72" y="1646.5493"/><use xlink:href="#f296197aaz" x="93.32" y="1646.5493"/><use xlink:href="#f296197aaA" x="100.604" y="1646.5493"/><use xlink:href="#f296197aaB" x="107.54" y="1646.5493"/><use xlink:href="#f296197aaC" x="110.684" y="1646.5493"/></g><g><use xlink:href="#f296197aaZ" x="26.627" y="377.717"/></g><g><use xlink:href="#f296197aba" x="82.4498" y="377.717"/><use xlink:href="#f296197abb" x="149.7698" y="377.717"/><use xlink:href="#f296197aba" x="219.9938" y="377.717"/></g><g><use xlink:href="#f296197abc" x="286.3502" y="377.717"/><use xlink:href="#f296197abd" x="357.6302" y="377.717"/><use xlink:href="#f296197abe" x="421.6502" y="377.717"/><use xlink:href="#f296197abf" x="476.2982" y="377.717"/><use xlink:href="#f296197abg" x="539.2622" y="377.717"/><use xlink:href="#f296197abh" x="603.0182" y="377.717"/><use xlink:href="#f296197abd" x="634.4342" y="377.717"/><use xlink:href="#f296197abb" x="698.4542" y="377.717"/><use xlink:href="#f296197abi" x="768.6782" y="377.717"/><use xlink:href="#f296197abc" x="832.8302" y="377.717"/><use xlink:href="#f296197abf" x="904.1102" y="377.717"/></g><g><use xlink:href="#f296197abj" x="32.1903" y="790.7834"/><use xlink:href="#f296197abk" x="137.8303" y="790.7834"/></g><g><use xlink:href="#f296197abl" x="221.5361" y="790.7834"/></g><g><use xlink:href="#f296197abm" x="296.6656" y="790.7834"/><use xlink:href="#f296197abn" x="382.0116" y="790.7834"/><use xlink:href="#f296197abo" x="459.8516" y="790.7834"/></g><g><use xlink:href="#f296197abp" x="551.4526" y="790.7834"/></g><g><use xlink:href="#f296197abk" x="615.5316" y="790.7834"/><use xlink:href="#f296197abq" x="698.2366" y="790.7834"/><use xlink:href="#f296197abn" x="746.7476" y="790.7834"/></g><g><use xlink:href="#f296197abr" x="824.4625" y="790.7834"/></g><g><use xlink:href="#f296197abo" x="870.9302" y="790.7834"/></g></svg>