<?xml version='1.0' encoding='UTF-8'?>
<svg xmlns="http://www.w3.org/2000/svg" xmlns:xlink="http://www.w3.org/1999/xlink" width="600px" height="300px" viewBox="0 0 600 300" x="0px" y="0px" enable-background="new 0 0 600 300"><defs><symbol overflow="visible" id="159e2462b"><path d="M27.47-51.73l19.69-9.43v-5.06l-19.7 9.38zm-8.2 69.01h28.45l.58-6.56H17.05c-3.82 0-6.7-.53-6.7-3.74 0-3.8 2.28-6.98 8.76-6.98h40.86v-6.6h-6.14a9.7 9.7 0 00.26-2.4c0-7.14-6.75-16.9-20.32-30.25L58.14-50.7v-6.52L27.47-42.58v6C41.66-23.34 48.3-14.66 48.3-9.13c0 1.99-1.22 2.54-5.35 2.54H19.87c-9.68 0-15.3 5.18-15.3 14.03 0 9.31 7.76 9.84 14.7 9.84zm0 0"/></symbol><symbol overflow="visible" id="159e2462c"><path d="M14.5-36.84l3.47-4.63-5.95-4.5L8.5-41.3zM0 0h11.03c7.17 0 9.64-2.9 9.64-9.53 0-.9-.03-1.77-.1-2.75-.46-5.88-1-12.1-1.46-17.47l-5.88.53c.58 5.88 1.14 11.78 1.7 17.74.07 1.18.13 2.06.13 2.75 0 2.14-.8 2.14-4.26 2.14H0c-2.48 0-3.05 1.03-3.05 3.23C-3.05-.96-2.4 0 0 0zm0 0"/></symbol><symbol overflow="visible" id="159e2462d"><path d="M1.95 17.6c12.9 0 17.7-6.2 18.85-17.87 1.67.27 3.23.27 4.64.27h1.72v-6.6h-5.07c-1 0-1 0-1-1-.03-5.82-.5-11.93-1.14-19l-5.84.54c.69 7.25 1.37 14.42 1.37 20.08 0 12.8-3.39 17.2-15.14 17.2-.8 0-1.64 0-2.51-.05l.6 6.3c1.23.08 2.41.12 3.52.12zm0 0"/></symbol><symbol overflow="visible" id="159e2462e"><path d="M0 0h11.03c7.17 0 9.64-2.9 9.64-9.53 0-.9-.03-1.77-.1-2.75-.46-5.88-1-12.1-1.46-17.47l-5.88.53c.58 5.88 1.14 11.78 1.7 17.74.07 1.18.13 2.06.13 2.75 0 2.14-.8 2.14-4.26 2.14H0c-2.48 0-3.05 1.03-3.05 3.23C-3.05-.96-2.4 0 0 0zm9.88 16.75l3.48-4.63-6-4.5-3.47 4.66zm0 0"/></symbol><symbol overflow="visible" id="159e2462f"><path d="M19.27 17.28h28.45l.58-6.56H17.05c-3.82 0-6.7-.53-6.7-3.74 0-3.8 2.28-6.98 8.76-6.98h17.86c7.2 0 9.69-2.9 9.69-9.53 0-.9-.05-1.77-.11-2.75-.5-5.88-1-12.1-1.46-17.47l-5.87.53c.53 5.88 1.14 11.78 1.64 17.74.1 1.18.19 2.06.19 2.75 0 2.14-.8 2.14-4.27 2.14h-16.9c-9.7 0-15.3 5.18-15.3 14.03 0 9.31 7.75 9.84 14.69 9.84zM37.3 32.55l3.31-4.44-5.68-4.31-3.35 4.43zm-9.84.03l3.36-4.47-5.74-4.27-3.34 4.43zm6.56 8.39l3.13-4.24-5.43-4.07-3.15 4.23zm0 0"/></symbol><symbol overflow="visible" id="159e2462g"><path d="M11.06 17.73c15.06 0 20.88-9.37 20.88-25.09v-2.51c0-10.93-4.28-19.16-13.44-19.16-8.81 0-13.92 7.36-13.92 16.33C4.58-3.17 10.27.19 20.53.19c1.7 0 3.55-.11 5.72-.3l.03.08c-1.45 8.47-7.33 11.36-15.72 11.36-1.56 0-3.2-.08-4.87-.27l.6 6.38c1.6.15 3.16.3 4.77.3zm9.5-24.03c-7.1 0-10.76-1.48-10.76-6.64 0-5.6 2.98-9.5 8.17-9.5 8.44 0 8.97 9.58 8.73 14.92-.03 1-.03 1-1.03 1.04-1.83.1-3.55.18-5.1.18zm0 0"/></symbol><symbol overflow="visible" id="159e2462h"><path d="M-1.56 17.47c1.22.08 2.4.12 3.51.12 15.22 0 19.14-8.67 19.14-24.57 0-6.04-.45-12.32-1.14-19.61l-5.84.53c.69 7.25 1.37 14.42 1.37 20.08 0 12.8-3.39 17.2-15.14 17.2-.8 0-1.64 0-2.51-.05zm0 0"/></symbol><symbol overflow="visible" id="159e2462i"><path d="M3.83 0v-5.95H6.2v-.82H.45v.82h2.4V0zm0 0"/></symbol><symbol overflow="visible" id="159e2462j"><path d="M5.75-2.23v-.43c0-1.6-.9-2.51-2.42-2.51S.87-4.16.87-2.48c0 1.71.91 2.62 2.5 2.62 1.43 0 2.07-.56 2.29-1.52l-.9-.09c-.18.61-.59.9-1.35.9-.94 0-1.52-.54-1.58-1.66zm-2.4-2.2c.93 0 1.43.5 1.48 1.55H1.84c.08-1.07.6-1.56 1.5-1.56zm0 0"/></symbol><symbol overflow="visible" id="159e2462k"><path d="M1.83 0l1.42-2h.06l1.46 2H5.8L4-2.53l1.78-2.49H4.8L3.42-3.08h-.08l-1.4-1.94H.89l1.78 2.49L.84 0zm0 0"/></symbol><symbol overflow="visible" id="159e2462l"><path d="M5.52-4.25v-.77H3.17v-1.56h-.81l-.14 1.56H.75v.77h1.47v2.4c0 1.3.48 1.94 1.84 1.94C4.6.1 5.14 0 5.55-.14L5.4-.91c-.32.13-.72.2-1.13.2-.8 0-1.1-.37-1.1-1.23v-2.31zm0 0"/></symbol><symbol overflow="visible" id="159e2462m"><path d="M3.33-3.42c.47 0 .8-.27.8-.8 0-.51-.33-.8-.8-.8-.47 0-.8.29-.8.8 0 .53.33.8.8.8zm0 3.5c.47 0 .8-.27.8-.78 0-.53-.33-.82-.8-.82-.47 0-.8.29-.8.82 0 .51.33.78.8.78zm0 0"/></symbol><symbol overflow="visible" id="159e2462v"><path d="M5.95-6.77H1.1V0h.99v-2.92H5.3v-.77H2.08v-2.26h3.87zm0 0"/></symbol><symbol overflow="visible" id="159e2462w"><path d="M2.83.14c.94 0 1.5-.39 1.81-.95h.08l.1.81h.76v-3.38c0-1.23-.69-1.8-2.13-1.8-1.43 0-2.03.65-2.18 1.6l.93.1c.11-.6.44-.93 1.22-.93.85 0 1.22.32 1.22 1.04v.34l-1.81.2C1.6-2.7 1.1-2.17 1.1-1.28c0 .92.64 1.42 1.72 1.42zm.25-.77c-.67 0-1.02-.28-1.02-.74 0-.44.28-.72 1-.82l1.58-.19v.41c0 .8-.6 1.34-1.56 1.34zm0 0"/></symbol><symbol overflow="visible" id="159e2462x"><path d="M2.73.14c.9 0 1.43-.45 1.74-1.08h.06l.13.94h.8v-5.02h-.94v2.7c0 .98-.57 1.62-1.46 1.62-.75 0-1.1-.4-1.1-1.22v-3.1h-.93v3.32c0 1.17.55 1.84 1.7 1.84zm0 0"/></symbol><symbol overflow="visible" id="159e2462y"><path d="M5.08-5.16c-.94 0-1.58.43-1.9 1.3h-.09l-.07-1.16H1.05v.77h1.1v3.48H.96V0h3.96v-.77H3.1v-1.46c0-1.36.6-2.05 1.83-2.05.4 0 .76.08 1.1.17l.15-.87c-.33-.11-.7-.18-1.11-.18zm0 0"/></symbol><symbol overflow="visible" id="159e2462z"><path d="M3.33.14c1.7 0 2.51-.86 2.51-2.69v-4.22h-.98v4.2c0 1.41-.47 1.9-1.53 1.9S1.8-1.16 1.8-2.57v-4.2H.8v4.22c0 1.83.81 2.7 2.52 2.7zm0 0"/></symbol><symbol overflow="visible" id="159e2462A"><path d="M2.84.14C3.8.14 4.33-.26 4.6-.9h.07L4.8 0h.76v-7.14h-.95v2.95h-.08c-.28-.6-.86-.97-1.67-.97-1.48 0-2.27.99-2.27 2.64C.6-.84 1.36.14 2.84.14zm.22-.8c-.98 0-1.48-.59-1.48-1.84s.5-1.86 1.48-1.86c1.13 0 1.58.8 1.58 1.86S4.2-.66 3.06-.66zm0 0"/></symbol><symbol overflow="visible" id="159e2462B"><path d="M3.34.14c1.43 0 2.13-.66 2.25-1.78l-.89-.1c-.1.7-.5 1.08-1.34 1.08-1.03 0-1.52-.64-1.52-1.84 0-1.23.47-1.86 1.52-1.86.84 0 1.23.36 1.34 1.08l.9-.1c-.13-1.09-.82-1.78-2.26-1.78-1.56 0-2.46.97-2.46 2.66 0 1.66.9 2.64 2.46 2.64zm0 0"/></symbol><symbol overflow="visible" id="159e2462C"><path d="M3.33.14c1.62 0 2.5-.95 2.5-2.66 0-1.68-.88-2.64-2.5-2.64-1.63 0-2.5.96-2.5 2.64 0 1.7.87 2.66 2.5 2.66zm0-.77c-1.06 0-1.52-.6-1.52-1.89 0-1.28.46-1.87 1.52-1.87 1.08 0 1.53.6 1.53 1.87 0 1.29-.45 1.9-1.53 1.9zm0 0"/></symbol><symbol overflow="visible" id="159e2462D"><path d="M2.16 0v-2.67c0-.99.59-1.63 1.46-1.63.74 0 1.07.38 1.07 1.22V0h.95v-3.31c0-1.2-.56-1.85-1.67-1.85-.92 0-1.49.46-1.77 1.08h-.06l-.12-.94H1.2V0zm0 0"/></symbol><symbol overflow="visible" id="159e2462E"><path d="M3.92-7.14H1.36v.76h1.6v5.61H1.15V0H5.7v-.77H3.92zm0 0"/></symbol><symbol overflow="visible" id="159e2462F"><path d="M3.36.16c1.4 0 2.2-.6 2.2-1.57 0-.89-.54-1.22-1.47-1.39L3-3c-.67-.14-.86-.33-.86-.73 0-.5.4-.74 1.17-.74.83 0 1.19.27 1.27.8l.9-.05c-.12-1-.8-1.47-2.17-1.47-1.34 0-2.1.53-2.1 1.5 0 .81.45 1.22 1.52 1.44l1.04.2c.56.11.87.24.87.72 0 .52-.45.78-1.28.78-.95 0-1.36-.28-1.42-.87l-.9.06C1.07-.36 1.8.16 3.35.16zm0 0"/></symbol><symbol overflow="visible" id="159e2462G"><path d="M1.45-2.95c0 2.56 1.08 4.37 3.67 4.84l.11-.67C3.28.86 2.43-.75 2.43-2.95s.85-3.82 2.8-4.16l-.1-.69c-2.6.49-3.68 2.3-3.68 4.85zm0 0"/></symbol><symbol overflow="visible" id="159e2462H"><path d="M3.16 2.03c1.67 0 2.4-.86 2.4-2.51v-4.54h-.81l-.13.91h-.06c-.26-.58-.8-1.05-1.73-1.05-1.42 0-2.24 1-2.24 2.52 0 1.6.75 2.56 2.2 2.56.94 0 1.5-.5 1.77-1.03h.05v.72c0 1.17-.42 1.67-1.45 1.67-.93 0-1.3-.34-1.41-.89L.8.5c.12.96.87 1.54 2.36 1.54zM3.06-.8c-.98 0-1.48-.57-1.48-1.82 0-1.13.5-1.75 1.48-1.75 1.06 0 1.58.76 1.58 1.75 0 .95-.56 1.82-1.58 1.82zm0 0"/></symbol><symbol overflow="visible" id="159e2462I"><path d="M1.45-7.1c1.96.33 2.8 1.94 2.8 4.15 0 2.2-.84 3.8-2.8 4.17l.11.67c2.58-.47 3.67-2.28 3.67-4.84 0-2.55-1.09-4.36-3.67-4.85zm0 0"/></symbol><symbol overflow="visible" id="159e2462o"><path d="M2.73-5.02L4.6-5.9v-.53l-1.86.88zm-.71 6.8h2.75l.06-.76H1.78c-.4 0-.69-.07-.69-.35C1.1.28 1.3 0 2 0H6v-.75h-.64l.01-.2c0-.66-.68-1.58-1.9-2.82l2.28-1.06v-.73L2.73-4.14v.69C4.03-2.27 4.7-1.48 4.7-.95c0 .1-.06.2-.4.2H2.1C1.04-.75.43-.25.43.73c0 1.05.94 1.05 1.58 1.05zm0 0"/></symbol><symbol overflow="visible" id="159e2462p"><path d="M1.4-3.69l.38-.5-.64-.48-.39.5zM0 0h1c.8 0 1.08-.34 1.08-1.1v-.26L1.94-3l-.67.06.15 1.61.02.31c0 .27-.1.27-.52.27H0c-.3 0-.38.13-.38.36 0 .27.08.39.38.39zm0 0"/></symbol><symbol overflow="visible" id="159e2462q"><path d="M.19 1.77c1.3 0 1.8-.65 1.92-1.8.17.03.34.03.47.03h.17v-.75h-.5c-.1 0-.1 0-.1-.1 0-.54-.04-1.15-.1-1.84l-.67.06c.06.68.12 1.41.12 1.97 0 1.25-.33 1.7-1.5 1.7-.08 0-.14 0-.22-.02l.08.73.33.02zm0 0"/></symbol><symbol overflow="visible" id="159e2462r"><path d="M0 0h1c.8 0 1.08-.34 1.08-1.1v-.26L1.94-3l-.67.06.15 1.61.02.31c0 .27-.1.27-.52.27H0c-.3 0-.38.13-.38.36 0 .27.08.39.38.39zm.98 1.73l.38-.5-.64-.5-.38.52zm0 0"/></symbol><symbol overflow="visible" id="159e2462s"><path d="M2.02 1.78h2.75l.06-.76H1.78c-.4 0-.69-.07-.69-.35C1.1.28 1.3 0 2 0h1.59c.8 0 1.1-.34 1.1-1.1 0-.07 0-.17-.02-.26L4.52-3l-.66.06a639.59 639.59 0 01.16 1.92c0 .27-.1.27-.52.27H2.1C1.04-.75.43-.25.43.73c0 1.05.94 1.05 1.58 1.05zm.76 1.52l.36-.47.6.47.35-.49-.6-.45-.35.45-.6-.45-.37.47zm.64.84l.35-.44-.58-.43-.33.45zm0 0"/></symbol><symbol overflow="visible" id="159e2462t"><path d="M1.08 1.78c1.54 0 2.1-.95 2.1-2.56v-.2c0-1.07-.38-1.94-1.32-1.94-.92 0-1.42.75-1.42 1.64 0 .97.54 1.3 1.51 1.3.18 0 .36-.02.6-.04-.16.79-.75 1.05-1.53 1.05-.16 0-.33 0-.5-.03l.07.73c.16.04.33.05.49.05zm.89-2.5c-.61 0-.94-.12-.94-.6 0-.5.27-.85.75-.85.81 0 .83.95.81 1.33-.01.09-.01.09-.1.1l-.52.02zm0 0"/></symbol><symbol overflow="visible" id="159e2462u"><path d="M-.14 1.75l.33.02c1.56 0 1.95-.94 1.95-2.58 0-.55-.03-1.17-.1-1.88l-.67.06c.07.68.13 1.41.13 1.97 0 1.25-.33 1.7-1.5 1.7-.08 0-.14 0-.22-.02zm0 0"/></symbol></defs><use xlink:href="#159e2462a" x="133.9793" y="160.5" fill="#515151"/><g fill="#515151"><use xlink:href="#159e2462b" x="154.8463" y="160.5"/><use xlink:href="#159e2462c" x="214.8129" y="160.5"/></g><use xlink:href="#159e2462d" x="236.7725" y="160.5" fill="#515151"/><g fill="#515151"><use xlink:href="#159e2462e" x="263.8821" y="160.5"/><use xlink:href="#159e2462a" x="289.1377" y="160.5"/></g><g fill="#fff"><use xlink:href="#159e2462f" x="310.1093" y="160.5"/><use xlink:href="#159e2462a" x="361.3415" y="160.5"/></g><use xlink:href="#159e2462g" x="382.1887" y="160.5" fill="#fff"/><use xlink:href="#159e2462h" x="419.48" y="160.5" fill="#515151"/><g fill="#fff"><use xlink:href="#159e2462i" x="260.8778" y="252"/><use xlink:href="#159e2462j" x="267.5448" y="252"/><use xlink:href="#159e2462k" x="274.2118" y="252"/><use xlink:href="#159e2462l" x="280.8788" y="252"/><use xlink:href="#159e2462m" x="287.5458" y="252"/><use xlink:href="#159e2462n" x="294.2128" y="252"/></g><g fill="#fff"><use xlink:href="#159e2462o" x="300.8778" y="252"/><use xlink:href="#159e2462p" x="306.8778" y="252"/></g><use xlink:href="#159e2462q" x="309.0928" y="252" fill="#fff"/><use xlink:href="#159e2462r" x="311.8488" y="252" fill="#fff"/><use xlink:href="#159e2462s" x="321.0444" y="252" fill="#fff"/><g fill="#fff"><use xlink:href="#159e2462t" x="332.8259" y="252"/><use xlink:href="#159e2462u" x="336.5299" y="252"/></g><g fill="#fff"><use xlink:href="#159e2462v" x="133.3333" y="266"/><use xlink:href="#159e2462j" x="140.0003" y="266"/><use xlink:href="#159e2462w" x="146.6673" y="266"/><use xlink:href="#159e2462l" x="153.3343" y="266"/><use xlink:href="#159e2462x" x="160.0013" y="266"/><use xlink:href="#159e2462y" x="166.6683" y="266"/><use xlink:href="#159e2462j" x="173.3353" y="266"/><use xlink:href="#159e2462m" x="180.0023" y="266"/><use xlink:href="#159e2462n" x="186.6693" y="266"/><use xlink:href="#159e2462z" x="193.3363" y="266"/><use xlink:href="#159e2462y" x="200.0033" y="266"/><use xlink:href="#159e2462A" x="206.6703" y="266"/><use xlink:href="#159e2462x" x="213.3373" y="266"/><use xlink:href="#159e2462n" x="220.0043" y="266"/><use xlink:href="#159e2462B" x="226.6713" y="266"/><use xlink:href="#159e2462C" x="233.3383" y="266"/><use xlink:href="#159e2462D" x="240.0053" y="266"/><use xlink:href="#159e2462l" x="246.6723" y="266"/><use xlink:href="#159e2462j" x="253.3393" y="266"/><use xlink:href="#159e2462k" x="260.0063" y="266"/><use xlink:href="#159e2462l" x="266.6733" y="266"/><use xlink:href="#159e2462x" x="273.3403" y="266"/><use xlink:href="#159e2462w" x="280.0073" y="266"/><use xlink:href="#159e2462E" x="286.6743" y="266"/><use xlink:href="#159e2462n" x="293.3413" y="266"/><use xlink:href="#159e2462w" x="300.0083" y="266"/><use xlink:href="#159e2462E" x="306.6753" y="266"/><use xlink:href="#159e2462l" x="313.3423" y="266"/><use xlink:href="#159e2462j" x="320.0093" y="266"/><use xlink:href="#159e2462y" x="326.6763" y="266"/><use xlink:href="#159e2462D" x="333.3433" y="266"/><use xlink:href="#159e2462w" x="340.0103" y="266"/><use xlink:href="#159e2462l" x="346.6773" y="266"/><use xlink:href="#159e2462j" x="353.3443" y="266"/><use xlink:href="#159e2462F" x="360.0113" y="266"/><use xlink:href="#159e2462n" x="366.6783" y="266"/><use xlink:href="#159e2462G" x="373.3453" y="266"/><use xlink:href="#159e2462F" x="380.0123" y="266"/><use xlink:href="#159e2462j" x="386.6793" y="266"/><use xlink:href="#159e2462l" x="393.3463" y="266"/><use xlink:href="#159e2462n" x="400.0133" y="266"/><use xlink:href="#159e2462E" x="406.6803" y="266"/><use xlink:href="#159e2462w" x="413.3473" y="266"/><use xlink:href="#159e2462D" x="420.0143" y="266"/><use xlink:href="#159e2462H" x="426.6813" y="266"/><use xlink:href="#159e2462x" x="433.3483" y="266"/><use xlink:href="#159e2462w" x="440.0153" y="266"/><use xlink:href="#159e2462H" x="446.6823" y="266"/><use xlink:href="#159e2462j" x="453.3493" y="266"/><use xlink:href="#159e2462I" x="460.0163" y="266"/></g></svg>