<?xml version='1.0' encoding='UTF-8'?>
<svg xmlns="http://www.w3.org/2000/svg" xmlns:xlink="http://www.w3.org/1999/xlink" width="600px" height="300px" viewBox="0 0 600 300" x="0px" y="0px" enable-background="new 0 0 600 300"><defs><symbol overflow="visible" id="3ffec2f7a"><path d="M19.3-5.69v-42.8h7.93v-5.68H4.58v5.69h7.97v42.8h-9.5V0h25.72v-5.69zm0 0"/></symbol><symbol overflow="visible" id="3ffec2f7b"><path d="M7.28 0h6.49v-57.22H7.28zm0 0"/></symbol><symbol overflow="visible" id="3ffec2f7c"><path d="M10.53-47c2.6 0 4.47-1.38 4.47-4.34 0-2.99-1.88-4.32-4.47-4.32-2.67 0-4.47 1.33-4.47 4.32 0 2.97 1.8 4.34 4.47 4.34zM7.28 0h6.49v-40.17H7.28zm0 0"/></symbol><symbol overflow="visible" id="3ffec2f7d"><path d="M7.28 0h6.49v-21.97c0-8.05 5.18-13.39 12.21-13.39 6.02 0 8.9 3.4 8.9 10.33V0h6.48v-26.94c0-9.26-4.7-14.37-13.47-14.37-6.83 0-11.22 3.44-13.89 8.2h-.38l-.92-7.06H7.28zm0 0"/></symbol><symbol overflow="visible" id="3ffec2f7e"><path d="M23.13 1.14c12.12 0 19.1-7.6 19.1-21.28 0-13.63-6.98-21.17-19.1-21.17-12.1 0-19.05 7.54-19.05 21.17 0 13.69 6.95 21.28 19.05 21.28zm0-5.6c-8.33 0-12.41-5.27-12.41-15.68 0-10.38 4.08-15.53 12.4-15.53 8.35 0 12.47 5.15 12.47 15.53 0 10.4-4.12 15.67-12.47 15.67zm0 0"/></symbol><symbol overflow="visible" id="3ffec2f7f"><path d="M20.33 1.14c9.92 0 15.87-4.58 15.87-12.55 0-6.71-4.12-9.39-12.33-11.17l-5.45-1.19c-4.84-1.03-6.94-2.59-6.94-6.1 0-4.2 2.9-6.25 8.47-6.25 5.88 0 8.77 2.09 9.24 6.93l6.4-.53c-.6-7.89-5.72-11.75-15.56-11.75-9.31 0-14.87 4.2-14.87 12.2 0 6.43 3.96 9.63 11.89 11.3l5.3 1.11c5.04 1.03 7.48 2.25 7.48 6.22 0 4.12-3.55 6.48-9.38 6.48-6.53 0-10-2.32-10.72-7.48l-6.42.55c.69 8 6 12.23 17.02 12.23zm0 0"/></symbol><symbol overflow="visible" id="3ffec2f7g"><path d="M3.83 0v-5.95H6.2v-.82H.45v.82h2.4V0zm0 0"/></symbol><symbol overflow="visible" id="3ffec2f7h"><path d="M5.75-2.23v-.43c0-1.6-.9-2.51-2.42-2.51S.87-4.16.87-2.48c0 1.71.91 2.62 2.5 2.62 1.43 0 2.07-.56 2.29-1.52l-.9-.09c-.18.61-.59.9-1.35.9-.94 0-1.52-.54-1.58-1.66zm-2.4-2.2c.93 0 1.43.5 1.48 1.55H1.84c.08-1.07.6-1.56 1.5-1.56zm0 0"/></symbol><symbol overflow="visible" id="3ffec2f7i"><path d="M1.83 0l1.42-2h.06l1.46 2H5.8L4-2.53l1.78-2.49H4.8L3.42-3.08h-.08l-1.4-1.94H.89l1.78 2.49L.84 0zm0 0"/></symbol><symbol overflow="visible" id="3ffec2f7j"><path d="M5.52-4.25v-.77H3.17v-1.56h-.81l-.14 1.56H.75v.77h1.47v2.4c0 1.3.48 1.94 1.84 1.94C4.6.1 5.14 0 5.55-.14L5.4-.91c-.32.13-.72.2-1.13.2-.8 0-1.1-.37-1.1-1.23v-2.31zm0 0"/></symbol><symbol overflow="visible" id="3ffec2f7k"><path d="M3.33-3.42c.47 0 .8-.27.8-.8 0-.51-.33-.8-.8-.8-.47 0-.8.29-.8.8 0 .53.33.8.8.8zm0 3.5c.47 0 .8-.27.8-.78 0-.53-.33-.82-.8-.82-.47 0-.8.29-.8.82 0 .51.33.78.8.78zm0 0"/></symbol><symbol overflow="visible" id="3ffec2f7m"><path d="M3.83-5.97h1.73v-.8H1.1v.8h1.75v5.19H1.1V0h4.47v-.78H3.83zm0 0"/></symbol><symbol overflow="visible" id="3ffec2f7n"><path d="M3.92-7.14H1.36v.76h1.6v5.61H1.15V0H5.7v-.77H3.92zm0 0"/></symbol><symbol overflow="visible" id="3ffec2f7o"><path d="M3.58-5.81c.42 0 .72-.22.72-.67 0-.44-.3-.68-.72-.68-.44 0-.72.24-.72.68 0 .45.28.67.72.67zm.5.8H1.52v.76h1.6v3.48h-1.8V0h4.46v-.77h-1.7zm0 0"/></symbol><symbol overflow="visible" id="3ffec2f7p"><path d="M2.16 0v-2.67c0-.99.59-1.63 1.46-1.63.74 0 1.07.38 1.07 1.22V0h.95v-3.31c0-1.2-.56-1.85-1.67-1.85-.92 0-1.49.46-1.77 1.08h-.06l-.12-.94H1.2V0zm0 0"/></symbol><symbol overflow="visible" id="3ffec2f7q"><path d="M3.33.14c1.62 0 2.5-.95 2.5-2.66 0-1.68-.88-2.64-2.5-2.64-1.63 0-2.5.96-2.5 2.64 0 1.7.87 2.66 2.5 2.66zm0-.77c-1.06 0-1.52-.6-1.52-1.89 0-1.28.46-1.87 1.52-1.87 1.08 0 1.53.6 1.53 1.87 0 1.29-.45 1.9-1.53 1.9zm0 0"/></symbol><symbol overflow="visible" id="3ffec2f7r"><path d="M3.36.16c1.4 0 2.2-.6 2.2-1.57 0-.89-.54-1.22-1.47-1.39L3-3c-.67-.14-.86-.33-.86-.73 0-.5.4-.74 1.17-.74.83 0 1.19.27 1.27.8l.9-.05c-.12-1-.8-1.47-2.17-1.47-1.34 0-2.1.53-2.1 1.5 0 .81.45 1.22 1.52 1.44l1.04.2c.56.11.87.24.87.72 0 .52-.45.78-1.28.78-.95 0-1.36-.28-1.42-.87l-.9.06C1.07-.36 1.8.16 3.35.16zm0 0"/></symbol><symbol overflow="visible" id="3ffec2f7s"><path d="M5.95-6.77H1.1V0h.99v-2.92H5.3v-.77H2.08v-2.26h3.87zm0 0"/></symbol><symbol overflow="visible" id="3ffec2f7t"><path d="M2.83.14c.94 0 1.5-.39 1.81-.95h.08l.1.81h.76v-3.38c0-1.23-.69-1.8-2.13-1.8-1.43 0-2.03.65-2.18 1.6l.93.1c.11-.6.44-.93 1.22-.93.85 0 1.22.32 1.22 1.04v.34l-1.81.2C1.6-2.7 1.1-2.17 1.1-1.28c0 .92.64 1.42 1.72 1.42zm.25-.77c-.67 0-1.02-.28-1.02-.74 0-.44.28-.72 1-.82l1.58-.19v.41c0 .8-.6 1.34-1.56 1.34zm0 0"/></symbol><symbol overflow="visible" id="3ffec2f7u"><path d="M2.73.14c.9 0 1.43-.45 1.74-1.08h.06l.13.94h.8v-5.02h-.94v2.7c0 .98-.57 1.62-1.46 1.62-.75 0-1.1-.4-1.1-1.22v-3.1h-.93v3.32c0 1.17.55 1.84 1.7 1.84zm0 0"/></symbol><symbol overflow="visible" id="3ffec2f7v"><path d="M5.08-5.16c-.94 0-1.58.43-1.9 1.3h-.09l-.07-1.16H1.05v.77h1.1v3.48H.96V0h3.96v-.77H3.1v-1.46c0-1.36.6-2.05 1.83-2.05.4 0 .76.08 1.1.17l.15-.87c-.33-.11-.7-.18-1.11-.18zm0 0"/></symbol><symbol overflow="visible" id="3ffec2f7w"><path d="M3.42.14c1.61 0 2.56-.75 2.56-2 0-1.1-.67-1.6-1.95-1.86l-.97-.2c-.87-.17-1.23-.49-1.23-1.11 0-.7.54-1.11 1.5-1.11 1.06 0 1.51.34 1.69 1.23l.9-.09c-.17-1.28-.98-1.9-2.6-1.9C1.79-6.9.9-6.18.9-4.98c0 1.06.66 1.66 1.88 1.9l1.01.2c.85.17 1.25.4 1.25 1.09 0 .73-.6 1.16-1.6 1.16-1.07 0-1.66-.4-1.8-1.24l-.94.1C.83-.53 1.75.13 3.42.13zm0 0"/></symbol><symbol overflow="visible" id="3ffec2f7x"><path d="M4.63-6.5c.45 0 .98.08 1.39.2l.2-.72a5.3 5.3 0 00-1.64-.26c-1.52 0-2.16.56-2.16 1.87v.4H.9v.76h1.53V0h.94v-4.25h2.53v-.77H3.36v-.3c0-.84.33-1.18 1.27-1.18zm0 0"/></symbol><symbol overflow="visible" id="3ffec2f7y"><path d="M2.84.14C3.8.14 4.33-.26 4.6-.9h.07L4.8 0h.76v-7.14h-.95v2.95h-.08c-.28-.6-.86-.97-1.67-.97-1.48 0-2.27.99-2.27 2.64C.6-.84 1.36.14 2.84.14zm.22-.8c-.98 0-1.48-.59-1.48-1.84s.5-1.86 1.48-1.86c1.13 0 1.58.8 1.58 1.86S4.2-.66 3.06-.66zm0 0"/></symbol><symbol overflow="visible" id="3ffec2f7z"><path d="M3.38-5.9c.12-.5.42-1.04.67-1.41l-.63-.22a4.28 4.28 0 00-1.01 2.39c0 .66.3 1 .9 1 .6 0 .9-.33.9-.9 0-.57-.32-.83-.83-.85zm0 0"/></symbol><symbol overflow="visible" id="3ffec2f7A"><path d="M3.3-7.53c-.55 0-.85.3-.85.84 0 .55.36.8.83.8h.03a5.1 5.1 0 01-.69 1.47l.52.23a4.29 4.29 0 001.02-2.4c0-.63-.33-.94-.86-.94zm0 0"/></symbol><symbol overflow="visible" id="3ffec2f7B"><path d="M1.45-2.95c0 2.56 1.08 4.37 3.67 4.84l.11-.67C3.28.86 2.43-.75 2.43-2.95s.85-3.82 2.8-4.16l-.1-.69c-2.6.49-3.68 2.3-3.68 4.85zm0 0"/></symbol><symbol overflow="visible" id="3ffec2f7C"><path d="M4.22-6.77h-.86l-2.03.7v.87c.64-.17 1.26-.38 1.89-.55v4.9H1.03V0h4.9v-.86H4.21zm0 0"/></symbol><symbol overflow="visible" id="3ffec2f7D"><path d="M5.1 0v-1.47H6v-.81h-.9v-4.49H3.8L.48-2.23v.76h3.66V0zM1.5-2.33l2.6-3.53h.04v3.58H1.5zm0 0"/></symbol><symbol overflow="visible" id="3ffec2f7E"><path d="M1.45-7.1c1.96.33 2.8 1.94 2.8 4.15 0 2.2-.84 3.8-2.8 4.17l.11.67c2.58-.47 3.67-2.28 3.67-4.84 0-2.55-1.09-4.36-3.67-4.85zm0 0"/></symbol></defs><use xlink:href="#3ffec2f7a" x="174.855" y="160.5" fill="#fff"/><g fill="#515151"><use xlink:href="#3ffec2f7b" x="206.6706" y="160.5"/><use xlink:href="#3ffec2f7b" x="227.6929" y="160.5"/><use xlink:href="#3ffec2f7c" x="248.7152" y="160.5"/><use xlink:href="#3ffec2f7d" x="269.7375" y="160.5"/><use xlink:href="#3ffec2f7e" x="317.6428" y="160.5"/><use xlink:href="#3ffec2f7c" x="363.9001" y="160.5"/><use xlink:href="#3ffec2f7f" x="384.9224" y="160.5"/></g><g fill="#fff"><use xlink:href="#3ffec2f7g" x="253.3333" y="252"/><use xlink:href="#3ffec2f7h" x="260.0003" y="252"/><use xlink:href="#3ffec2f7i" x="266.6673" y="252"/><use xlink:href="#3ffec2f7j" x="273.3343" y="252"/><use xlink:href="#3ffec2f7k" x="280.0013" y="252"/><use xlink:href="#3ffec2f7l" x="286.6683" y="252"/><use xlink:href="#3ffec2f7m" x="293.3353" y="252"/><use xlink:href="#3ffec2f7n" x="300.0023" y="252"/><use xlink:href="#3ffec2f7n" x="306.6693" y="252"/><use xlink:href="#3ffec2f7o" x="313.3363" y="252"/><use xlink:href="#3ffec2f7p" x="320.0033" y="252"/><use xlink:href="#3ffec2f7q" x="326.6703" y="252"/><use xlink:href="#3ffec2f7o" x="333.3373" y="252"/><use xlink:href="#3ffec2f7r" x="340.0043" y="252"/></g><g fill="#fff"><use xlink:href="#3ffec2f7s" x="183.3333" y="266"/><use xlink:href="#3ffec2f7h" x="190.0003" y="266"/><use xlink:href="#3ffec2f7t" x="196.6673" y="266"/><use xlink:href="#3ffec2f7j" x="203.3343" y="266"/><use xlink:href="#3ffec2f7u" x="210.0013" y="266"/><use xlink:href="#3ffec2f7v" x="216.6683" y="266"/><use xlink:href="#3ffec2f7h" x="223.3353" y="266"/><use xlink:href="#3ffec2f7k" x="230.0023" y="266"/><use xlink:href="#3ffec2f7l" x="236.6693" y="266"/><use xlink:href="#3ffec2f7w" x="243.3363" y="266"/><use xlink:href="#3ffec2f7h" x="250.0033" y="266"/><use xlink:href="#3ffec2f7v" x="256.6703" y="266"/><use xlink:href="#3ffec2f7o" x="263.3373" y="266"/><use xlink:href="#3ffec2f7x" x="270.0043" y="266"/><use xlink:href="#3ffec2f7x" x="276.6713" y="266"/><use xlink:href="#3ffec2f7h" x="283.3383" y="266"/><use xlink:href="#3ffec2f7y" x="290.0053" y="266"/><use xlink:href="#3ffec2f7l" x="296.6723" y="266"/><use xlink:href="#3ffec2f7n" x="303.3393" y="266"/><use xlink:href="#3ffec2f7h" x="310.0063" y="266"/><use xlink:href="#3ffec2f7j" x="316.6733" y="266"/><use xlink:href="#3ffec2f7j" x="323.3403" y="266"/><use xlink:href="#3ffec2f7h" x="330.0073" y="266"/><use xlink:href="#3ffec2f7v" x="336.6743" y="266"/><use xlink:href="#3ffec2f7l" x="343.3413" y="266"/><use xlink:href="#3ffec2f7z" x="350.0083" y="266"/><use xlink:href="#3ffec2f7m" x="356.6753" y="266"/><use xlink:href="#3ffec2f7A" x="363.3423" y="266"/><use xlink:href="#3ffec2f7l" x="370.0093" y="266"/><use xlink:href="#3ffec2f7B" x="376.6763" y="266"/><use xlink:href="#3ffec2f7r" x="383.3433" y="266"/><use xlink:href="#3ffec2f7r" x="390.0103" y="266"/><use xlink:href="#3ffec2f7C" x="396.6773" y="266"/><use xlink:href="#3ffec2f7D" x="403.3443" y="266"/><use xlink:href="#3ffec2f7E" x="410.0113" y="266"/></g></svg>