<?xml version='1.0' encoding='UTF-8'?>
<svg xmlns="http://www.w3.org/2000/svg" xmlns:xlink="http://www.w3.org/1999/xlink" width="600px" height="300px" viewBox="0 0 600 300" x="0px" y="0px" enable-background="new 0 0 600 300"><defs><symbol overflow="visible" id="ac271852a"><path d="M13.84-15.03l6.35-6.22-8.07-8.05-6.28 6.22zm0 0"/></symbol><symbol overflow="visible" id="ac271852b"><path d="M11.6 0h5.84c0-30.94-.77-34.38-5.92-51.73l-6.18.39C10.88-34.48 11.6-31.54 11.6 0zm0 0"/></symbol><symbol overflow="visible" id="ac271852c"><path d="M11.6 0h5.84c0-13.84-.16-22.17-.77-28.66 1.94.66 3.97 1 6.14 1 9.85 0 14.19-6.06 14.19-17.01 0-2.22-.16-4.5-.5-7.06l-5.8.65c.35 2.6.58 4.88.58 6.83 0 6.98-2.33 10-8.36 10-5.14 0-6.9-.81-8.34-6.56-.77-3.2-1.72-6.56-3.06-10.92l-6.18.39C10.88-34.48 11.6-31.54 11.6 0zm0 0"/></symbol><symbol overflow="visible" id="ac271852d"><path d="M11.6 0h5.84c0-13.84-.16-22.17-.77-28.66 1.94.66 3.97 1 6.14 1 2.78 0 5-.68 6.8-1.95a20.95 20.95 0 008.16 1.95c8.01 0 11.82-6.21 11.82-17.17 0-2.1-.15-4.42-.42-6.9l-5.37.65c.15 2.14.26 4.08.26 5.77 0 7.58-1.69 11.06-6.3 11.06-1.82 0-3.2-.23-4.3-.58 1.02-2.64 1.48-5.92 1.48-9.84 0-2.22-.14-4.5-.46-7.06l-5.8.65c.32 2.6.54 4.88.54 6.83 0 6.98-1.8 10.03-6.4 10-5.16-.05-6.84-.81-8.24-6.56-.74-3.2-1.72-6.56-3.06-10.92l-6.18.39C10.88-34.48 11.6-31.54 11.6 0zm0 0"/></symbol><symbol overflow="visible" id="ac271852e"><path d="M24.22.45c3.01 0 6.48-.26 10.31-.8l.64-6.59c-4.5.57-8.12.8-11.1.8-9.54 0-12.77-2.44-12.77-6.94 0-5.53 6.62-9.62 18.76-13.28l.64-6.67c-4.23 1.78-7.78 2.51-10.6 2.51-5.15 0-7.93-2.14-7.93-4.65 0-3.02 3.13-7.1 12.13-9.77l.65-6.3c-11.48 2.76-18.2 9.2-18.2 16.52 0 3.78 2.38 7.36 6.83 9-4.74 3.02-8.24 7.86-8.24 13.05C5.34-3.97 11.56.45 24.22.45zm0 0"/></symbol><symbol overflow="visible" id="ac271852f"><path d="M23.23-2.67c11.49 0 17.55-6.14 17.55-17.44 0-12.73-7.14-27.39-17.7-27.39-10.53 0-17.74 14.4-17.74 27.17 0 11.4 6.41 17.66 17.9 17.66zm.11-6.6c-8.23 0-12.25-3.8-12.25-11.4 0-8.97 5.13-20.22 12.07-20.22 6.86 0 11.86 11.48 11.86 20.48 0 8.02-4.2 11.14-11.68 11.14zm0 0"/></symbol><symbol overflow="visible" id="ac271852g"><path d="M29.64 0h6.11a114.08 114.08 0 01-3.06-27.5c0-6.75.39-14.34.89-24.23H5.98l-.64 6.6h21.79c-.27 6.3-.43 11.6-.43 16.36 0 10.27.77 18.35 2.94 28.77zm0 0"/></symbol><symbol overflow="visible" id="ac271852h"><path d="M3.83 0v-5.95H6.2v-.82H.45v.82h2.4V0zm0 0"/></symbol><symbol overflow="visible" id="ac271852i"><path d="M5.75-2.23v-.43c0-1.6-.9-2.51-2.42-2.51S.87-4.16.87-2.48c0 1.71.91 2.62 2.5 2.62 1.43 0 2.07-.56 2.29-1.52l-.9-.09c-.18.61-.59.9-1.35.9-.94 0-1.52-.54-1.58-1.66zm-2.4-2.2c.93 0 1.43.5 1.48 1.55H1.84c.08-1.07.6-1.56 1.5-1.56zm0 0"/></symbol><symbol overflow="visible" id="ac271852j"><path d="M1.83 0l1.42-2h.06l1.46 2H5.8L4-2.53l1.78-2.49H4.8L3.42-3.08h-.08l-1.4-1.94H.89l1.78 2.49L.84 0zm0 0"/></symbol><symbol overflow="visible" id="ac271852k"><path d="M5.52-4.25v-.77H3.17v-1.56h-.81l-.14 1.56H.75v.77h1.47v2.4c0 1.3.48 1.94 1.84 1.94C4.6.1 5.14 0 5.55-.14L5.4-.91c-.32.13-.72.2-1.13.2-.8 0-1.1-.37-1.1-1.23v-2.31zm0 0"/></symbol><symbol overflow="visible" id="ac271852l"><path d="M3.33-3.42c.47 0 .8-.27.8-.8 0-.51-.33-.8-.8-.8-.47 0-.8.29-.8.8 0 .53.33.8.8.8zm0 3.5c.47 0 .8-.27.8-.78 0-.53-.33-.82-.8-.82-.47 0-.8.29-.8.82 0 .51.33.78.8.78zm0 0"/></symbol><symbol overflow="visible" id="ac271852u"><path d="M5.95-6.77H1.1V0h.99v-2.92H5.3v-.77H2.08v-2.26h3.87zm0 0"/></symbol><symbol overflow="visible" id="ac271852v"><path d="M2.83.14c.94 0 1.5-.39 1.81-.95h.08l.1.81h.76v-3.38c0-1.23-.69-1.8-2.13-1.8-1.43 0-2.03.65-2.18 1.6l.93.1c.11-.6.44-.93 1.22-.93.85 0 1.22.32 1.22 1.04v.34l-1.81.2C1.6-2.7 1.1-2.17 1.1-1.28c0 .92.64 1.42 1.72 1.42zm.25-.77c-.67 0-1.02-.28-1.02-.74 0-.44.28-.72 1-.82l1.58-.19v.41c0 .8-.6 1.34-1.56 1.34zm0 0"/></symbol><symbol overflow="visible" id="ac271852w"><path d="M2.73.14c.9 0 1.43-.45 1.74-1.08h.06l.13.94h.8v-5.02h-.94v2.7c0 .98-.57 1.62-1.46 1.62-.75 0-1.1-.4-1.1-1.22v-3.1h-.93v3.32c0 1.17.55 1.84 1.7 1.84zm0 0"/></symbol><symbol overflow="visible" id="ac271852x"><path d="M5.08-5.16c-.94 0-1.58.43-1.9 1.3h-.09l-.07-1.16H1.05v.77h1.1v3.48H.96V0h3.96v-.77H3.1v-1.46c0-1.36.6-2.05 1.83-2.05.4 0 .76.08 1.1.17l.15-.87c-.33-.11-.7-.18-1.11-.18zm0 0"/></symbol><symbol overflow="visible" id="ac271852y"><path d="M6.17 0L3.98-6.77h-1.3L.5 0h.97l.44-1.47h2.78L5.16 0zM3.28-5.94h.08l1.1 3.74H2.15zm0 0"/></symbol><symbol overflow="visible" id="ac271852z"><path d="M3.9.14c1.48 0 2.18-.98 2.18-2.64 0-1.67-.7-2.66-2.17-2.66-.91 0-1.49.41-1.79 1h-.06v-2.98h-.95V0h.81l.11-.9h.06c.29.63.82 1.04 1.82 1.04zm-.32-.8c-1.08 0-1.55-.8-1.55-1.84 0-1.06.47-1.86 1.55-1.86 1.1 0 1.51.61 1.51 1.86S4.64-.66 3.58-.66zm0 0"/></symbol><symbol overflow="visible" id="ac271852A"><path d="M3.58-5.81c.42 0 .72-.22.72-.67 0-.44-.3-.68-.72-.68-.44 0-.72.24-.72.68 0 .45.28.67.72.67zm.5.8H1.52v.76h1.6v3.48h-1.8V0h4.46v-.77h-1.7zm0 0"/></symbol><symbol overflow="visible" id="ac271852B"><path d="M3.34.14c1.43 0 2.13-.66 2.25-1.78l-.89-.1c-.1.7-.5 1.08-1.34 1.08-1.03 0-1.52-.64-1.52-1.84 0-1.23.47-1.86 1.52-1.86.84 0 1.23.36 1.34 1.08l.9-.1c-.13-1.09-.82-1.78-2.26-1.78-1.56 0-2.46.97-2.46 2.66 0 1.66.9 2.64 2.46 2.64zm0 0"/></symbol><symbol overflow="visible" id="ac271852C"><path d="M2.16 0v-2.67c0-.99.59-1.63 1.46-1.63.74 0 1.07.38 1.07 1.22V0h.95v-3.31c0-1.2-.56-1.85-1.67-1.85-.92 0-1.49.46-1.77 1.08h-.06l-.12-.94H1.2V0zm0 0"/></symbol><symbol overflow="visible" id="ac271852D"><path d="M1.63 0v-2.9c0-.8.15-1.4.71-1.4.41 0 .55.3.55.88V0h.95v-2.9c0-.8.18-1.4.72-1.4.4 0 .57.3.57.88V0h.95v-3.63c0-.92-.28-1.53-1.11-1.53-.63 0-.95.41-1.1.9h-.06c-.1-.52-.44-.9-1.08-.9-.6 0-.93.41-1.06.9H1.6l-.23-.76H.67V0zm0 0"/></symbol><symbol overflow="visible" id="ac271852E"><path d="M3.92-7.14H1.36v.76h1.6v5.61H1.15V0H5.7v-.77H3.92zm0 0"/></symbol><symbol overflow="visible" id="ac271852F"><path d="M3.36.16c1.4 0 2.2-.6 2.2-1.57 0-.89-.54-1.22-1.47-1.39L3-3c-.67-.14-.86-.33-.86-.73 0-.5.4-.74 1.17-.74.83 0 1.19.27 1.27.8l.9-.05c-.12-1-.8-1.47-2.17-1.47-1.34 0-2.1.53-2.1 1.5 0 .81.45 1.22 1.52 1.44l1.04.2c.56.11.87.24.87.72 0 .52-.45.78-1.28.78-.95 0-1.36-.28-1.42-.87l-.9.06C1.07-.36 1.8.16 3.35.16zm0 0"/></symbol><symbol overflow="visible" id="ac271852G"><path d="M1.45-2.95c0 2.56 1.08 4.37 3.67 4.84l.11-.67C3.28.86 2.43-.75 2.43-2.95s.85-3.82 2.8-4.16l-.1-.69c-2.6.49-3.68 2.3-3.68 4.85zm0 0"/></symbol><symbol overflow="visible" id="ac271852H"><path d="M2.84.14C3.8.14 4.33-.26 4.6-.9h.07L4.8 0h.76v-7.14h-.95v2.95h-.08c-.28-.6-.86-.97-1.67-.97-1.48 0-2.27.99-2.27 2.64C.6-.84 1.36.14 2.84.14zm.22-.8c-.98 0-1.48-.59-1.48-1.84s.5-1.86 1.48-1.86c1.13 0 1.58.8 1.58 1.86S4.2-.66 3.06-.66zm0 0"/></symbol><symbol overflow="visible" id="ac271852I"><path d="M4.63-6.5c.45 0 .98.08 1.39.2l.2-.72a5.3 5.3 0 00-1.64-.26c-1.52 0-2.16.56-2.16 1.87v.4H.9v.76h1.53V0h.94v-4.25h2.53v-.77H3.36v-.3c0-.84.33-1.18 1.27-1.18zm0 0"/></symbol><symbol overflow="visible" id="ac271852J"><path d="M1.45-7.1c1.96.33 2.8 1.94 2.8 4.15 0 2.2-.84 3.8-2.8 4.17l.11.67c2.58-.47 3.67-2.28 3.67-4.84 0-2.55-1.09-4.36-3.67-4.85zm0 0"/></symbol><symbol overflow="visible" id="ac271852n"><path d="M1.38-1.45l.68-.68L1.2-3l-.67.67zm0 0"/></symbol><symbol overflow="visible" id="ac271852o"><path d="M1.14 0h.66c0-2.92-.1-3.38-.57-5.03L.52-5c.53 1.6.62 1.97.62 5zm0 0"/></symbol><symbol overflow="visible" id="ac271852p"><path d="M1.14 0h.66c0-1.28-.02-2.08-.08-2.72.2.06.42.1.6.1 1 0 1.46-.66 1.46-1.77 0-.2-.01-.42-.05-.64l-.65.06c.03.25.04.45.04.63 0 .65-.21.96-.8.96-.52 0-.68-.09-.84-.75l-.25-.9L.52-5c.53 1.6.62 1.97.62 5zm0 0"/></symbol><symbol overflow="visible" id="ac271852q"><path d="M1.14 0h.66c0-1.28-.02-2.08-.08-2.72.2.06.42.1.6.1.26 0 .48-.07.66-.2.24.12.63.2.82.2.84 0 1.22-.66 1.22-1.77 0-.19-.02-.42-.04-.64l-.6.06.01.47c0 .77-.14 1.13-.6 1.13-.15 0-.27-.02-.37-.05.1-.27.14-.58.14-.97 0-.2-.01-.42-.04-.64l-.66.06c.02.25.05.45.05.63 0 .65-.18.96-.6.96-.51 0-.67-.09-.83-.75l-.25-.9L.52-5c.53 1.6.62 1.97.62 5zm0 0"/></symbol><symbol overflow="visible" id="ac271852r"><path d="M2.33.05c.31 0 .69-.03 1.1-.1L3.5-.8c-.5.08-.9.1-1.22.1-.86 0-1.08-.26-1.08-.59 0-.5.66-.87 1.78-1.22l.07-.76c-.4.19-.77.26-1.03.26-.49 0-.75-.18-.75-.4 0-.22.17-.66 1.15-.92l.06-.72C1.31-4.84.66-4.11.66-3.4c0 .36.2.7.6.89-.43.31-.74.78-.74 1.25 0 .83.59 1.3 1.8 1.3zm0 0"/></symbol><symbol overflow="visible" id="ac271852s"><path d="M2.33-.22c1.2 0 1.76-.64 1.76-1.7 0-1.19-.67-2.74-1.8-2.74-1.09 0-1.77 1.5-1.77 2.7 0 1.1.6 1.74 1.8 1.74zm.01-.75C1.5-.97 1.17-1.34 1.17-2c0-.75.46-1.9 1.14-1.9.69 0 1.13 1.18 1.13 1.93 0 .7-.38 1-1.1 1zm0 0"/></symbol><symbol overflow="visible" id="ac271852t"><path d="M2.84 0h.7c-.23-1-.29-1.83-.29-2.75 0-.67.03-1.4.08-2.28H.59l-.07.75h2.06l-.03 1.36c0 1 .08 1.84.3 2.92zm0 0"/></symbol></defs><g fill="#fff"><use xlink:href="#ac271852a" x="172.0511" y="160.5"/><use xlink:href="#ac271852b" x="192.3833" y="160.5"/><use xlink:href="#ac271852c" x="215.1875" y="160.5"/><use xlink:href="#ac271852d" x="257.5617" y="160.5"/><use xlink:href="#ac271852e" x="309.8239" y="160.5"/><use xlink:href="#ac271852f" x="347.6661" y="160.5"/><use xlink:href="#ac271852g" x="386.9503" y="160.5"/><use xlink:href="#ac271852h" x="267.1593" y="252"/><use xlink:href="#ac271852i" x="273.8263" y="252"/><use xlink:href="#ac271852j" x="280.4933" y="252"/><use xlink:href="#ac271852k" x="287.1603" y="252"/><use xlink:href="#ac271852l" x="293.8273" y="252"/><use xlink:href="#ac271852m" x="300.4943" y="252"/><use xlink:href="#ac271852n" x="307.1593" y="252"/><use xlink:href="#ac271852o" x="309.1813" y="252"/><g><use xlink:href="#ac271852p" x="311.5033" y="252"/></g><g><use xlink:href="#ac271852q" x="315.7953" y="252"/></g><g><use xlink:href="#ac271852r" x="321.0773" y="252"/></g><g><use xlink:href="#ac271852s" x="324.8293" y="252"/></g><g><use xlink:href="#ac271852t" x="328.7813" y="252"/></g><g><use xlink:href="#ac271852u" x="186.6667" y="266"/><use xlink:href="#ac271852i" x="193.3337" y="266"/><use xlink:href="#ac271852v" x="200.0007" y="266"/><use xlink:href="#ac271852k" x="206.6677" y="266"/><use xlink:href="#ac271852w" x="213.3347" y="266"/><use xlink:href="#ac271852x" x="220.0017" y="266"/><use xlink:href="#ac271852i" x="226.6687" y="266"/><use xlink:href="#ac271852l" x="233.3357" y="266"/><use xlink:href="#ac271852m" x="240.0027" y="266"/><use xlink:href="#ac271852y" x="246.6697" y="266"/><use xlink:href="#ac271852x" x="253.3367" y="266"/><use xlink:href="#ac271852v" x="260.0037" y="266"/><use xlink:href="#ac271852z" x="266.6707" y="266"/><use xlink:href="#ac271852A" x="273.3377" y="266"/><use xlink:href="#ac271852B" x="280.0047" y="266"/><use xlink:href="#ac271852m" x="286.6717" y="266"/><use xlink:href="#ac271852C" x="293.3387" y="266"/><use xlink:href="#ac271852w" x="300.0057" y="266"/><use xlink:href="#ac271852D" x="306.6727" y="266"/><use xlink:href="#ac271852i" x="313.3397" y="266"/><use xlink:href="#ac271852x" x="320.0067" y="266"/><use xlink:href="#ac271852v" x="326.6737" y="266"/><use xlink:href="#ac271852E" x="333.3407" y="266"/><use xlink:href="#ac271852F" x="340.0077" y="266"/><use xlink:href="#ac271852m" x="346.6747" y="266"/><use xlink:href="#ac271852G" x="353.3417" y="266"/><use xlink:href="#ac271852H" x="360.0087" y="266"/><use xlink:href="#ac271852i" x="366.6757" y="266"/><use xlink:href="#ac271852I" x="373.3427" y="266"/><use xlink:href="#ac271852v" x="380.0097" y="266"/><use xlink:href="#ac271852w" x="386.6767" y="266"/><use xlink:href="#ac271852E" x="393.3437" y="266"/><use xlink:href="#ac271852k" x="400.0107" y="266"/><use xlink:href="#ac271852J" x="406.6777" y="266"/></g></g></svg>