<?xml version='1.0' encoding='UTF-8'?>
<svg xmlns="http://www.w3.org/2000/svg" xmlns:xlink="http://www.w3.org/1999/xlink" width="600px" height="300px" viewBox="0 0 600 300" x="0px" y="0px" enable-background="new 0 0 600 300"><defs><symbol overflow="visible" id="0021fb41a"><path d="M21.17 1.14c6.6 0 10.72-2.97 13.42-8.2h.4l.9 7.06h5.42v-57.22h-6.48v23.61h-.35c-2.32-4.87-6.59-7.7-13.07-7.7-10.93 0-17.33 7.86-17.33 21.2 0 13.44 6.34 21.25 17.1 21.25zm1.38-5.64c-7.7 0-11.83-5.1-11.83-15.56 0-10.5 4.12-15.61 11.78-15.61 8.63 0 12.56 6.37 12.56 15.6 0 9.24-3.94 15.57-12.51 15.57zm0 0"/></symbol><symbol overflow="visible" id="0021fb41b"><path d="M7.28 0h6.49v-22.02c0-7.93 4.96-13.12 11.48-13.12 1.56 0 2.86.23 3.78.47l.69-6.14a17.7 17.7 0 00-4.13-.5c-5.6 0-9.45 2.97-11.59 8.2h-.38l-.92-7.06H7.28zm0 0"/></symbol><symbol overflow="visible" id="0021fb41c"><path d="M21.33 1.14c6.4 0 10.6-3.01 13.26-8.2h.4l.9 7.06h5.42v-40.17H35.9l-.9 6.56h-.4c-2.25-4.81-6.67-7.7-13.04-7.7-11.18 0-17.47 7.86-17.47 21.25s6.3 21.2 17.25 21.2zm1.45-5.64c-8.06 0-12.06-5.1-12.06-15.56 0-10.5 4-15.61 12.06-15.61 8.24 0 12.28 6.4 12.28 15.6S31.02-4.5 22.78-4.5zm0 0"/></symbol><symbol overflow="visible" id="0021fb41d"><path d="M23.31 16.14c12.47 0 18-6.9 18-19.39v-36.92H35.9l-.9 7.06h-.4c-1.9-4.05-5.48-8.2-13.04-8.2-11.36 0-17.47 8.15-17.47 20.37C4.08-8.47 9.8-.42 21.55-.42c7.56 0 11.06-4.4 12.9-8.05h.38v5.22c0 9.31-3.28 13.81-11.52 13.81-7.25 0-10-2.89-10.87-7.25L5.84 4c.91 7.56 6.25 12.14 17.47 12.14zM22.66-5.9c-7.9 0-11.94-5.3-11.94-15.03 0-9.23 4.05-14.73 11.94-14.73 8.25 0 12.36 6.4 12.36 14.73 0 8-4.2 15.03-12.36 15.03zm0 0"/></symbol><symbol overflow="visible" id="0021fb41e"><path d="M23.13 1.14c12.12 0 19.1-7.6 19.1-21.28 0-13.63-6.98-21.17-19.1-21.17-12.1 0-19.05 7.54-19.05 21.17 0 13.69 6.95 21.28 19.05 21.28zm0-5.6c-8.33 0-12.41-5.27-12.41-15.68 0-10.38 4.08-15.53 12.4-15.53 8.35 0 12.47 5.15 12.47 15.53 0 10.4-4.12 15.67-12.47 15.67zm0 0"/></symbol><symbol overflow="visible" id="0021fb41f"><path d="M7.28 0h6.49v-21.97c0-8.05 5.18-13.39 12.21-13.39 6.02 0 8.9 3.4 8.9 10.33V0h6.48v-26.94c0-9.26-4.7-14.37-13.47-14.37-6.83 0-11.22 3.44-13.89 8.2h-.38l-.92-7.06H7.28zm0 0"/></symbol><symbol overflow="visible" id="0021fb41g"><path d="M3.83 0v-5.95H6.2v-.82H.45v.82h2.4V0zm0 0"/></symbol><symbol overflow="visible" id="0021fb41h"><path d="M5.75-2.23v-.43c0-1.6-.9-2.51-2.42-2.51S.87-4.16.87-2.48c0 1.71.91 2.62 2.5 2.62 1.43 0 2.07-.56 2.29-1.52l-.9-.09c-.18.61-.59.9-1.35.9-.94 0-1.52-.54-1.58-1.66zm-2.4-2.2c.93 0 1.43.5 1.48 1.55H1.84c.08-1.07.6-1.56 1.5-1.56zm0 0"/></symbol><symbol overflow="visible" id="0021fb41i"><path d="M1.83 0l1.42-2h.06l1.46 2H5.8L4-2.53l1.78-2.49H4.8L3.42-3.08h-.08l-1.4-1.94H.89l1.78 2.49L.84 0zm0 0"/></symbol><symbol overflow="visible" id="0021fb41j"><path d="M5.52-4.25v-.77H3.17v-1.56h-.81l-.14 1.56H.75v.77h1.47v2.4c0 1.3.48 1.94 1.84 1.94C4.6.1 5.14 0 5.55-.14L5.4-.91c-.32.13-.72.2-1.13.2-.8 0-1.1-.37-1.1-1.23v-2.31zm0 0"/></symbol><symbol overflow="visible" id="0021fb41k"><path d="M3.33-3.42c.47 0 .8-.27.8-.8 0-.51-.33-.8-.8-.8-.47 0-.8.29-.8.8 0 .53.33.8.8.8zm0 3.5c.47 0 .8-.27.8-.78 0-.53-.33-.82-.8-.82-.47 0-.8.29-.8.82 0 .51.33.78.8.78zm0 0"/></symbol><symbol overflow="visible" id="0021fb41m"><path d="M2.84.14C3.8.14 4.33-.26 4.6-.9h.07L4.8 0h.76v-7.14h-.95v2.95h-.08c-.28-.6-.86-.97-1.67-.97-1.48 0-2.27.99-2.27 2.64C.6-.84 1.36.14 2.84.14zm.22-.8c-.98 0-1.48-.59-1.48-1.84s.5-1.86 1.48-1.86c1.13 0 1.58.8 1.58 1.86S4.2-.66 3.06-.66zm0 0"/></symbol><symbol overflow="visible" id="0021fb41n"><path d="M5.08-5.16c-.94 0-1.58.43-1.9 1.3h-.09l-.07-1.16H1.05v.77h1.1v3.48H.96V0h3.96v-.77H3.1v-1.46c0-1.36.6-2.05 1.83-2.05.4 0 .76.08 1.1.17l.15-.87c-.33-.11-.7-.18-1.11-.18zm0 0"/></symbol><symbol overflow="visible" id="0021fb41o"><path d="M2.83.14c.94 0 1.5-.39 1.81-.95h.08l.1.81h.76v-3.38c0-1.23-.69-1.8-2.13-1.8-1.43 0-2.03.65-2.18 1.6l.93.1c.11-.6.44-.93 1.22-.93.85 0 1.22.32 1.22 1.04v.34l-1.81.2C1.6-2.7 1.1-2.17 1.1-1.28c0 .92.64 1.42 1.72 1.42zm.25-.77c-.67 0-1.02-.28-1.02-.74 0-.44.28-.72 1-.82l1.58-.19v.41c0 .8-.6 1.34-1.56 1.34zm0 0"/></symbol><symbol overflow="visible" id="0021fb41p"><path d="M3.16 2.03c1.67 0 2.4-.86 2.4-2.51v-4.54h-.81l-.13.91h-.06c-.26-.58-.8-1.05-1.73-1.05-1.42 0-2.24 1-2.24 2.52 0 1.6.75 2.56 2.2 2.56.94 0 1.5-.5 1.77-1.03h.05v.72c0 1.17-.42 1.67-1.45 1.67-.93 0-1.3-.34-1.41-.89L.8.5c.12.96.87 1.54 2.36 1.54zM3.06-.8c-.98 0-1.48-.57-1.48-1.82 0-1.13.5-1.75 1.48-1.75 1.06 0 1.58.76 1.58 1.75 0 .95-.56 1.82-1.58 1.82zm0 0"/></symbol><symbol overflow="visible" id="0021fb41q"><path d="M3.33.14c1.62 0 2.5-.95 2.5-2.66 0-1.68-.88-2.64-2.5-2.64-1.63 0-2.5.96-2.5 2.64 0 1.7.87 2.66 2.5 2.66zm0-.77c-1.06 0-1.52-.6-1.52-1.89 0-1.28.46-1.87 1.52-1.87 1.08 0 1.53.6 1.53 1.87 0 1.29-.45 1.9-1.53 1.9zm0 0"/></symbol><symbol overflow="visible" id="0021fb41r"><path d="M2.16 0v-2.67c0-.99.59-1.63 1.46-1.63.74 0 1.07.38 1.07 1.22V0h.95v-3.31c0-1.2-.56-1.85-1.67-1.85-.92 0-1.49.46-1.77 1.08h-.06l-.12-.94H1.2V0zm0 0"/></symbol><symbol overflow="visible" id="0021fb41s"><path d="M5.95-6.77H1.1V0h.99v-2.92H5.3v-.77H2.08v-2.26h3.87zm0 0"/></symbol><symbol overflow="visible" id="0021fb41t"><path d="M2.73.14c.9 0 1.43-.45 1.74-1.08h.06l.13.94h.8v-5.02h-.94v2.7c0 .98-.57 1.62-1.46 1.62-.75 0-1.1-.4-1.1-1.22v-3.1h-.93v3.32c0 1.17.55 1.84 1.7 1.84zm0 0"/></symbol><symbol overflow="visible" id="0021fb41u"><path d="M6.17 0L3.98-6.77h-1.3L.5 0h.97l.44-1.47h2.78L5.16 0zM3.28-5.94h.08l1.1 3.74H2.15zm0 0"/></symbol><symbol overflow="visible" id="0021fb41v"><path d="M3.92-7.14H1.36v.76h1.6v5.61H1.15V0H5.7v-.77H3.92zm0 0"/></symbol><symbol overflow="visible" id="0021fb41w"><path d="M3.58-5.81c.42 0 .72-.22.72-.67 0-.44-.3-.68-.72-.68-.44 0-.72.24-.72.68 0 .45.28.67.72.67zm.5.8H1.52v.76h1.6v3.48h-1.8V0h4.46v-.77h-1.7zm0 0"/></symbol><symbol overflow="visible" id="0021fb41x"><path d="M3.9 0l2-5.02h-.96L3.4-.94h-.07L1.8-5.02H.77L2.78 0zm0 0"/></symbol><symbol overflow="visible" id="0021fb41y"><path d="M4.63-6.5c.45 0 .98.08 1.39.2l.2-.72a5.3 5.3 0 00-1.64-.26c-1.52 0-2.16.56-2.16 1.87v.4H.9v.76h1.53V0h.94v-4.25h2.53v-.77H3.36v-.3c0-.84.33-1.18 1.27-1.18zm0 0"/></symbol><symbol overflow="visible" id="0021fb41z"><path d="M1.63 0v-2.9c0-.8.15-1.4.71-1.4.41 0 .55.3.55.88V0h.95v-2.9c0-.8.18-1.4.72-1.4.4 0 .57.3.57.88V0h.95v-3.63c0-.92-.28-1.53-1.11-1.53-.63 0-.95.41-1.1.9h-.06c-.1-.52-.44-.9-1.08-.9-.6 0-.93.41-1.06.9H1.6l-.23-.76H.67V0zm0 0"/></symbol><symbol overflow="visible" id="0021fb41A"><path d="M3.38-5.9c.12-.5.42-1.04.67-1.41l-.63-.22a4.28 4.28 0 00-1.01 2.39c0 .66.3 1 .9 1 .6 0 .9-.33.9-.9 0-.57-.32-.83-.83-.85zm0 0"/></symbol><symbol overflow="visible" id="0021fb41B"><path d="M3.3-7.53c-.55 0-.85.3-.85.84 0 .55.36.8.83.8h.03a5.1 5.1 0 01-.69 1.47l.52.23a4.29 4.29 0 001.02-2.4c0-.63-.33-.94-.86-.94zm0 0"/></symbol><symbol overflow="visible" id="0021fb41C"><path d="M1.45-2.95c0 2.56 1.08 4.37 3.67 4.84l.11-.67C3.28.86 2.43-.75 2.43-2.95s.85-3.82 2.8-4.16l-.1-.69c-2.6.49-3.68 2.3-3.68 4.85zm0 0"/></symbol><symbol overflow="visible" id="0021fb41D"><path d="M3.36.16c1.4 0 2.2-.6 2.2-1.57 0-.89-.54-1.22-1.47-1.39L3-3c-.67-.14-.86-.33-.86-.73 0-.5.4-.74 1.17-.74.83 0 1.19.27 1.27.8l.9-.05c-.12-1-.8-1.47-2.17-1.47-1.34 0-2.1.53-2.1 1.5 0 .81.45 1.22 1.52 1.44l1.04.2c.56.11.87.24.87.72 0 .52-.45.78-1.28.78-.95 0-1.36-.28-1.42-.87l-.9.06C1.07-.36 1.8.16 3.35.16zm0 0"/></symbol><symbol overflow="visible" id="0021fb41E"><path d="M3.33.14c1.65 0 2.6-1.1 2.6-3.52S4.99-6.9 3.34-6.9C1.67-6.9.72-5.8.72-3.37c0 2.4.95 3.51 2.6 3.51zm0-.84c-1.13 0-1.6-.85-1.6-2.67 0-1.86.47-2.7 1.6-2.7 1.12 0 1.6.84 1.6 2.7 0 1.82-.48 2.67-1.6 2.67zM3.3-2.64c.38 0 .56-.28.56-.72 0-.44-.18-.7-.56-.7-.39 0-.56.26-.56.7 0 .44.17.72.56.72zm0 0"/></symbol><symbol overflow="visible" id="0021fb41F"><path d="M5.67 0v-.86H2.14V-.9L3.6-2c1.05-.83 2-1.68 2-2.91 0-1.19-.73-1.99-2.26-1.99-1.66 0-2.3 1.02-2.44 2.33l1 .08c.1-.92.42-1.58 1.44-1.58.87 0 1.26.44 1.26 1.24 0 .9-.8 1.53-1.96 2.53L.83-.81V0zm0 0"/></symbol><symbol overflow="visible" id="0021fb41G"><path d="M1.45-7.1c1.96.33 2.8 1.94 2.8 4.15 0 2.2-.84 3.8-2.8 4.17l.11.67c2.58-.47 3.67-2.28 3.67-4.84 0-2.55-1.09-4.36-3.67-4.85zm0 0"/></symbol></defs><g fill="#515151"><use xlink:href="#0021fb41a" x="164.5931" y="160.5"/><use xlink:href="#0021fb41b" x="213.1988" y="160.5"/></g><use xlink:href="#0021fb41c" x="244.0557" y="160.5" fill="#fff"/><g fill="#515151"><use xlink:href="#0021fb41d" x="292.6565" y="160.5"/><use xlink:href="#0021fb41e" x="341.2622" y="160.5"/><use xlink:href="#0021fb41f" x="387.4989" y="160.5"/></g><g fill="#fff"><use xlink:href="#0021fb41g" x="260" y="252"/><use xlink:href="#0021fb41h" x="266.667" y="252"/><use xlink:href="#0021fb41i" x="273.334" y="252"/><use xlink:href="#0021fb41j" x="280.001" y="252"/><use xlink:href="#0021fb41k" x="286.668" y="252"/><use xlink:href="#0021fb41l" x="293.335" y="252"/><use xlink:href="#0021fb41m" x="300.002" y="252"/><use xlink:href="#0021fb41n" x="306.669" y="252"/><use xlink:href="#0021fb41o" x="313.336" y="252"/><use xlink:href="#0021fb41p" x="320.003" y="252"/><use xlink:href="#0021fb41q" x="326.67" y="252"/><use xlink:href="#0021fb41r" x="333.337" y="252"/></g><g fill="#fff"><use xlink:href="#0021fb41s" x="170" y="266"/><use xlink:href="#0021fb41h" x="176.667" y="266"/><use xlink:href="#0021fb41o" x="183.334" y="266"/><use xlink:href="#0021fb41j" x="190.001" y="266"/><use xlink:href="#0021fb41t" x="196.668" y="266"/><use xlink:href="#0021fb41n" x="203.335" y="266"/><use xlink:href="#0021fb41h" x="210.002" y="266"/><use xlink:href="#0021fb41k" x="216.669" y="266"/><use xlink:href="#0021fb41l" x="223.336" y="266"/><use xlink:href="#0021fb41u" x="230.003" y="266"/><use xlink:href="#0021fb41v" x="236.67" y="266"/><use xlink:href="#0021fb41j" x="243.337" y="266"/><use xlink:href="#0021fb41h" x="250.004" y="266"/><use xlink:href="#0021fb41n" x="256.671" y="266"/><use xlink:href="#0021fb41r" x="263.338" y="266"/><use xlink:href="#0021fb41o" x="270.005" y="266"/><use xlink:href="#0021fb41j" x="276.672" y="266"/><use xlink:href="#0021fb41w" x="283.339" y="266"/><use xlink:href="#0021fb41x" x="290.006" y="266"/><use xlink:href="#0021fb41h" x="296.673" y="266"/><use xlink:href="#0021fb41l" x="303.34" y="266"/><use xlink:href="#0021fb41y" x="310.007" y="266"/><use xlink:href="#0021fb41q" x="316.674" y="266"/><use xlink:href="#0021fb41n" x="323.341" y="266"/><use xlink:href="#0021fb41z" x="330.008" y="266"/><use xlink:href="#0021fb41l" x="336.675" y="266"/><use xlink:href="#0021fb41q" x="343.342" y="266"/><use xlink:href="#0021fb41y" x="350.009" y="266"/><use xlink:href="#0021fb41l" x="356.676" y="266"/><use xlink:href="#0021fb41A" x="363.343" y="266"/><use xlink:href="#0021fb41o" x="370.01" y="266"/><use xlink:href="#0021fb41B" x="376.677" y="266"/><use xlink:href="#0021fb41l" x="383.344" y="266"/><use xlink:href="#0021fb41C" x="390.011" y="266"/><use xlink:href="#0021fb41D" x="396.678" y="266"/><use xlink:href="#0021fb41D" x="403.345" y="266"/><use xlink:href="#0021fb41E" x="410.012" y="266"/><use xlink:href="#0021fb41F" x="416.679" y="266"/><use xlink:href="#0021fb41G" x="423.346" y="266"/></g></svg>