<?xml version='1.0' encoding='UTF-8'?>
<svg xmlns="http://www.w3.org/2000/svg" xmlns:xlink="http://www.w3.org/1999/xlink" width="600px" height="300px" viewBox="0 0 600 300" x="0px" y="0px" enable-background="new 0 0 600 300"><defs><symbol overflow="visible" id="7a0aa16fa"><path d="M18.05 0h6.72v-48.33h17.6v-5.84h-42v5.84h17.68zm-1.43 18.84h4.82L24.95 5.2h-6.3zm0 0"/></symbol><symbol overflow="visible" id="7a0aa16fb"><path d="M45.1 0h7.09L31.44-54.17H22.8L1.88 0h7.01l4.58-12.2h27.08zM15.44-17.66L26.9-48.19h.34l11.33 30.53zm0 0"/></symbol><symbol overflow="visible" id="7a0aa16fc"><path d="M49.36 0L31.89-23.08c11.6-.1 17.2-5.64 17.2-15.3 0-10.34-5.87-15.8-18.18-15.8H8.44V0h6.75v-22.78h9.34L41.55 0zM15.19-28.27v-20.18h14.48c9.24 0 12.9 2.64 12.9 10.08 0 7.28-3.7 10.1-13.09 10.1zm0 0"/></symbol><symbol overflow="visible" id="7a0aa16fd"><path d="M27.08-59.13c7.56 0 12.33-4.5 12.7-11.87h-5.56c-.53 4.2-2.49 7.1-7.14 7.1-4.61 0-6.52-2.82-7.05-7.1h-5.66c.4 7.38 4.93 11.88 12.7 11.88zM45.09 0h7.1L31.44-54.17H22.8L1.88 0h7.01l4.58-12.2h27.08zM15.45-17.66L26.9-48.19h.34l11.33 30.53zm0 0"/></symbol><symbol overflow="visible" id="7a0aa16ff"><path d="M16.06-34.6h12.78v-5.57H16.06v-12.47h-5.08l-1.4 12.47H1.3v5.58h8.28v23.03C9.58-3.31 13.39.92 21.86.92c2.6 0 5.27-.5 7.17-1.08l-.72-5.37c-1.42.37-3.17.76-5.15.76-4.7 0-7.1-1.82-7.1-7.4zm-1.34 53.44h4.81L23.05 5.2h-6.3zm0 0"/></symbol><symbol overflow="visible" id="7a0aa16fg"><path d="M17.52 1.1c6.75 0 11.28-2.82 13.5-7.4h.37l.69 6.3h5.42v-27.31c0-9.66-5.42-14.05-15.8-14.05-10.56 0-15.1 4.78-16.25 12.4l6.4.59c.82-4.82 3.37-7.65 9.78-7.65 6.56 0 9.57 2.72 9.57 9v2.8l-13.54 1.75C7.96-21.25 3.8-17.66 3.8-10.37c0 7.2 4.77 11.48 13.7 11.48zm1.3-5.3c-5.88 0-8.4-2.47-8.4-6.6 0-3.8 2.17-6.03 7.74-6.8l13.04-1.82v3.86C31.2-9 26.52-4.2 18.81-4.2zm0 0"/></symbol><symbol overflow="visible" id="7a0aa16fh"><path d="M7.28 0h6.49v-22.02c0-7.93 4.96-13.12 11.48-13.12 1.56 0 2.86.23 3.78.47l.69-6.14a17.7 17.7 0 00-4.13-.5c-5.6 0-9.45 2.97-11.59 8.2h-.38l-.92-7.06H7.28zm0 0"/></symbol><symbol overflow="visible" id="7a0aa16fi"><path d="M22.4-45.63c7.08 0 11.66-4.5 11.9-12.43h-5.27c-.37 4.31-2.06 7.67-6.64 7.67s-6.25-3.36-6.64-7.67h-5.33c.22 7.94 4.64 12.44 11.97 12.44zM17.51 1.12c6.75 0 11.28-2.83 13.5-7.4h.37L32.08 0h5.42v-27.31c0-9.66-5.42-14.05-15.8-14.05-10.56 0-15.1 4.78-16.25 12.4l6.4.59c.82-4.82 3.37-7.65 9.78-7.65 6.56 0 9.57 2.72 9.57 9v2.8l-13.54 1.75C7.96-21.25 3.8-17.66 3.8-10.37c0 7.2 4.77 11.48 13.7 11.48zm1.3-5.31c-5.88 0-8.4-2.47-8.4-6.6 0-3.8 2.17-6.03 7.74-6.8l13.04-1.82v3.86C31.2-9 26.52-4.2 18.81-4.2zm0 0"/></symbol><symbol overflow="visible" id="7a0aa16fj"><path d="M3.83 0v-5.95H6.2v-.82H.45v.82h2.4V0zm0 0"/></symbol><symbol overflow="visible" id="7a0aa16fk"><path d="M5.75-2.23v-.43c0-1.6-.9-2.51-2.42-2.51S.87-4.16.87-2.48c0 1.71.91 2.62 2.5 2.62 1.43 0 2.07-.56 2.29-1.52l-.9-.09c-.18.61-.59.9-1.35.9-.94 0-1.52-.54-1.58-1.66zm-2.4-2.2c.93 0 1.43.5 1.48 1.55H1.84c.08-1.07.6-1.56 1.5-1.56zm0 0"/></symbol><symbol overflow="visible" id="7a0aa16fl"><path d="M1.83 0l1.42-2h.06l1.46 2H5.8L4-2.53l1.78-2.49H4.8L3.42-3.08h-.08l-1.4-1.94H.89l1.78 2.49L.84 0zm0 0"/></symbol><symbol overflow="visible" id="7a0aa16fm"><path d="M5.52-4.25v-.77H3.17v-1.56h-.81l-.14 1.56H.75v.77h1.47v2.4c0 1.3.48 1.94 1.84 1.94C4.6.1 5.14 0 5.55-.14L5.4-.91c-.32.13-.72.2-1.13.2-.8 0-1.1-.37-1.1-1.23v-2.31zm0 0"/></symbol><symbol overflow="visible" id="7a0aa16fn"><path d="M3.33-3.42c.47 0 .8-.27.8-.8 0-.51-.33-.8-.8-.8-.47 0-.8.29-.8.8 0 .53.33.8.8.8zm0 3.5c.47 0 .8-.27.8-.78 0-.53-.33-.82-.8-.82-.47 0-.8.29-.8.82 0 .51.33.78.8.78zm0 0"/></symbol><symbol overflow="visible" id="7a0aa16fp"><path d="M3.83-5.95H6.2v-.82H.45v.82h2.4V0h.17l-.13.64c.52.05.81.17.81.5 0 .36-.22.42-.48.42-.14 0-.36-.03-.52-.08l-.08.5c.2.07.5.15.79.15.56 0 1.06-.2 1.06-.91 0-.52-.44-.77-.95-.86L3.58 0h.25zm0 0"/></symbol><symbol overflow="visible" id="7a0aa16fq"><path d="M6.17 0L3.98-6.77h-1.3L.5 0h.97l.44-1.47h2.78L5.16 0zM3.28-5.94h.08l1.1 3.74H2.15zm0 0"/></symbol><symbol overflow="visible" id="7a0aa16fr"><path d="M4.06-2.77c1.25-.04 1.92-.7 1.92-1.96 0-1.36-.7-2.04-2.17-2.04H.92V0h.97v-2.73h1.08L4.95 0h1.1zM1.9-6h1.7c1.07 0 1.46.34 1.46 1.28 0 .9-.44 1.27-1.47 1.27H1.89zm0 0"/></symbol><symbol overflow="visible" id="7a0aa16fs"><path d="M3.34-7.36c1.08 0 1.74-.51 1.79-1.72h-.7c-.07.75-.34 1.13-1.09 1.13S2.33-8.3 2.27-9.08h-.7c.04 1.2.66 1.72 1.77 1.72zM6.17 0L3.98-6.77h-1.3L.5 0h.97l.44-1.47h2.78L5.16 0zM3.28-5.94h.08l1.1 3.74H2.15zm0 0"/></symbol><symbol overflow="visible" id="7a0aa16ft"><path d="M3.69.08l.37.01C4.6.1 5.14 0 5.55-.14L5.4-.91c-.32.13-.72.2-1.13.2-.8 0-1.1-.37-1.1-1.23v-2.31h2.34v-.77H3.17v-1.56h-.81l-.14 1.56H.75v.77h1.47v2.4c0 .96.25 1.55.94 1.82l-.14.67c.51.05.82.17.82.5 0 .36-.23.42-.5.42-.14 0-.36-.03-.5-.08l-.09.5c.2.07.5.15.78.15.56 0 1.08-.2 1.08-.91 0-.52-.44-.77-.97-.86zm0 0"/></symbol><symbol overflow="visible" id="7a0aa16fu"><path d="M2.83.14c.94 0 1.5-.39 1.81-.95h.08l.1.81h.76v-3.38c0-1.23-.69-1.8-2.13-1.8-1.43 0-2.03.65-2.18 1.6l.93.1c.11-.6.44-.93 1.22-.93.85 0 1.22.32 1.22 1.04v.34l-1.81.2C1.6-2.7 1.1-2.17 1.1-1.28c0 .92.64 1.42 1.72 1.42zm.25-.77c-.67 0-1.02-.28-1.02-.74 0-.44.28-.72 1-.82l1.58-.19v.41c0 .8-.6 1.34-1.56 1.34zm0 0"/></symbol><symbol overflow="visible" id="7a0aa16fv"><path d="M5.08-5.16c-.94 0-1.58.43-1.9 1.3h-.09l-.07-1.16H1.05v.77h1.1v3.48H.96V0h3.96v-.77H3.1v-1.46c0-1.36.6-2.05 1.83-2.05.4 0 .76.08 1.1.17l.15-.87c-.33-.11-.7-.18-1.11-.18zm0 0"/></symbol><symbol overflow="visible" id="7a0aa16fw"><path d="M3.53-5.67c1.05 0 1.64-.56 1.69-1.85h-.69c-.05.77-.26 1.22-1 1.22-.72 0-.95-.45-1-1.22h-.7c.04 1.29.62 1.85 1.7 1.85zM2.83.14c.94 0 1.5-.39 1.81-.95h.08l.1.81h.76v-3.38c0-1.23-.69-1.8-2.13-1.8-1.43 0-2.03.65-2.18 1.6l.93.1c.11-.6.44-.93 1.22-.93.85 0 1.22.32 1.22 1.04v.34l-1.81.2C1.6-2.7 1.1-2.17 1.1-1.28c0 .92.64 1.42 1.72 1.42zm.25-.77c-.67 0-1.02-.28-1.02-.74 0-.44.28-.72 1-.82l1.58-.19v.41c0 .8-.6 1.34-1.56 1.34zm0 0"/></symbol><symbol overflow="visible" id="7a0aa16fx"><path d="M5.95-6.77H1.1V0h.99v-2.92H5.3v-.77H2.08v-2.26h3.87zm0 0"/></symbol><symbol overflow="visible" id="7a0aa16fy"><path d="M2.73.14c.9 0 1.43-.45 1.74-1.08h.06l.13.94h.8v-5.02h-.94v2.7c0 .98-.57 1.62-1.46 1.62-.75 0-1.1-.4-1.1-1.22v-3.1h-.93v3.32c0 1.17.55 1.84 1.7 1.84zm0 0"/></symbol><symbol overflow="visible" id="7a0aa16fz"><path d="M3.33.14c1.62 0 2.5-.95 2.5-2.66 0-1.68-.88-2.64-2.5-2.64-1.63 0-2.5.96-2.5 2.64 0 1.7.87 2.66 2.5 2.66zm0-.77c-1.06 0-1.52-.6-1.52-1.89 0-1.28.46-1.87 1.52-1.87 1.08 0 1.53.6 1.53 1.87 0 1.29-.45 1.9-1.53 1.9zm0 0"/></symbol><symbol overflow="visible" id="7a0aa16fA"><path d="M1.63 0v-2.9c0-.8.15-1.4.71-1.4.41 0 .55.3.55.88V0h.95v-2.9c0-.8.18-1.4.72-1.4.4 0 .57.3.57.88V0h.95v-3.63c0-.92-.28-1.53-1.11-1.53-.63 0-.95.41-1.1.9h-.06c-.1-.52-.44-.9-1.08-.9-.6 0-.93.41-1.06.9H1.6l-.23-.76H.67V0zm0 0"/></symbol><symbol overflow="visible" id="7a0aa16fB"><path d="M2.16 0v-2.67c0-.99.59-1.63 1.46-1.63.74 0 1.07.38 1.07 1.22V0h.95v-3.31c0-1.2-.56-1.85-1.67-1.85-.92 0-1.49.46-1.77 1.08h-.06l-.12-.94H1.2V0zm0 0"/></symbol><symbol overflow="visible" id="7a0aa16fC"><path d="M3.58-5.81c.42 0 .72-.22.72-.67 0-.44-.3-.68-.72-.68-.44 0-.72.24-.72.68 0 .45.28.67.72.67zm.5.8H1.52v.76h1.6v3.48h-1.8V0h4.46v-.77h-1.7zm0 0"/></symbol><symbol overflow="visible" id="7a0aa16fD"><path d="M1.45-2.95c0 2.56 1.08 4.37 3.67 4.84l.11-.67C3.28.86 2.43-.75 2.43-2.95s.85-3.82 2.8-4.16l-.1-.69c-2.6.49-3.68 2.3-3.68 4.85zm0 0"/></symbol><symbol overflow="visible" id="7a0aa16fE"><path d="M3.36.16c1.4 0 2.2-.6 2.2-1.57 0-.89-.54-1.22-1.47-1.39L3-3c-.67-.14-.86-.33-.86-.73 0-.5.4-.74 1.17-.74.83 0 1.19.27 1.27.8l.9-.05c-.12-1-.8-1.47-2.17-1.47-1.34 0-2.1.53-2.1 1.5 0 .81.45 1.22 1.52 1.44l1.04.2c.56.11.87.24.87.72 0 .52-.45.78-1.28.78-.95 0-1.36-.28-1.42-.87l-.9.06C1.07-.36 1.8.16 3.35.16zm0 0"/></symbol><symbol overflow="visible" id="7a0aa16fF"><path d="M3.92-7.14H1.36v.76h1.6v5.61H1.15V0H5.7v-.77H3.92zm0 0"/></symbol><symbol overflow="visible" id="7a0aa16fG"><path d="M3.16 2.03c1.67 0 2.4-.86 2.4-2.51v-4.54h-.81l-.13.91h-.06c-.26-.58-.8-1.05-1.73-1.05-1.42 0-2.24 1-2.24 2.52 0 1.6.75 2.56 2.2 2.56.94 0 1.5-.5 1.77-1.03h.05v.72c0 1.17-.42 1.67-1.45 1.67-.93 0-1.3-.34-1.41-.89L.8.5c.12.96.87 1.54 2.36 1.54zM3.06-.8c-.98 0-1.48-.57-1.48-1.82 0-1.13.5-1.75 1.48-1.75 1.06 0 1.58.76 1.58 1.75 0 .95-.56 1.82-1.58 1.82zm0 0"/></symbol><symbol overflow="visible" id="7a0aa16fH"><path d="M1.45-7.1c1.96.33 2.8 1.94 2.8 4.15 0 2.2-.84 3.8-2.8 4.17l.11.67c2.58-.47 3.67-2.28 3.67-4.84 0-2.55-1.09-4.36-3.67-4.85zm0 0"/></symbol></defs><use xlink:href="#7a0aa16fa" x="115.2485" y="160.5" fill="#fff"/><g fill="#515151"><use xlink:href="#7a0aa16fb" x="152.6719" y="160.5"/><use xlink:href="#7a0aa16fc" x="206.7263" y="160.5"/></g><g fill="#515151"><use xlink:href="#7a0aa16fd" x="259.3387" y="160.5"/><use xlink:href="#7a0aa16fe" x="313.3931" y="160.5"/></g><use xlink:href="#7a0aa16ff" x="334.2952" y="160.5" fill="#fff"/><g fill="#515151"><use xlink:href="#7a0aa16fg" x="365.8437" y="160.5"/><use xlink:href="#7a0aa16fh" x="409.8659" y="160.5"/></g><use xlink:href="#7a0aa16fi" x="440.7041" y="160.5" fill="#515151"/><g fill="#fff"><use xlink:href="#7a0aa16fj" x="250" y="252"/><use xlink:href="#7a0aa16fk" x="256.667" y="252"/><use xlink:href="#7a0aa16fl" x="263.334" y="252"/><use xlink:href="#7a0aa16fm" x="270.001" y="252"/><use xlink:href="#7a0aa16fn" x="276.668" y="252"/><use xlink:href="#7a0aa16fo" x="283.335" y="252"/><use xlink:href="#7a0aa16fp" x="290.002" y="252"/><use xlink:href="#7a0aa16fq" x="296.669" y="252"/><use xlink:href="#7a0aa16fr" x="303.336" y="252"/><use xlink:href="#7a0aa16fs" x="310.003" y="252"/><use xlink:href="#7a0aa16fo" x="316.67" y="252"/><use xlink:href="#7a0aa16ft" x="323.337" y="252"/><use xlink:href="#7a0aa16fu" x="330.004" y="252"/><use xlink:href="#7a0aa16fv" x="336.671" y="252"/><use xlink:href="#7a0aa16fw" x="343.338" y="252"/></g><g fill="#fff"><use xlink:href="#7a0aa16fx" x="193.3333" y="266"/><use xlink:href="#7a0aa16fk" x="200.0003" y="266"/><use xlink:href="#7a0aa16fu" x="206.6673" y="266"/><use xlink:href="#7a0aa16fm" x="213.3343" y="266"/><use xlink:href="#7a0aa16fy" x="220.0013" y="266"/><use xlink:href="#7a0aa16fv" x="226.6683" y="266"/><use xlink:href="#7a0aa16fk" x="233.3353" y="266"/><use xlink:href="#7a0aa16fn" x="240.0023" y="266"/><use xlink:href="#7a0aa16fo" x="246.6693" y="266"/><use xlink:href="#7a0aa16fr" x="253.3363" y="266"/><use xlink:href="#7a0aa16fz" x="260.0033" y="266"/><use xlink:href="#7a0aa16fA" x="266.6703" y="266"/><use xlink:href="#7a0aa16fu" x="273.3373" y="266"/><use xlink:href="#7a0aa16fB" x="280.0043" y="266"/><use xlink:href="#7a0aa16fC" x="286.6713" y="266"/><use xlink:href="#7a0aa16fu" x="293.3383" y="266"/><use xlink:href="#7a0aa16fB" x="300.0053" y="266"/><use xlink:href="#7a0aa16fo" x="306.6723" y="266"/><use xlink:href="#7a0aa16fD" x="313.3393" y="266"/><use xlink:href="#7a0aa16fE" x="320.0063" y="266"/><use xlink:href="#7a0aa16fk" x="326.6733" y="266"/><use xlink:href="#7a0aa16fm" x="333.3403" y="266"/><use xlink:href="#7a0aa16fo" x="340.0073" y="266"/><use xlink:href="#7a0aa16fF" x="346.6743" y="266"/><use xlink:href="#7a0aa16fu" x="353.3413" y="266"/><use xlink:href="#7a0aa16fB" x="360.0083" y="266"/><use xlink:href="#7a0aa16fG" x="366.6753" y="266"/><use xlink:href="#7a0aa16fy" x="373.3423" y="266"/><use xlink:href="#7a0aa16fu" x="380.0093" y="266"/><use xlink:href="#7a0aa16fG" x="386.6763" y="266"/><use xlink:href="#7a0aa16fk" x="393.3433" y="266"/><use xlink:href="#7a0aa16fH" x="400.0103" y="266"/></g></svg>