<?xml version='1.0' encoding='UTF-8'?>
<svg xmlns="http://www.w3.org/2000/svg" xmlns:xlink="http://www.w3.org/1999/xlink" width="600px" height="300px" viewBox="0 0 600 300" x="0px" y="0px" enable-background="new 0 0 600 300"><defs><symbol overflow="visible" id="b0a10245a"><path d="M29.95-15.03l6.33-6.22-8.05-8.05-6.3 6.22zm0 0"/></symbol><symbol overflow="visible" id="b0a10245b"><path d="M9.42 11.44h6.46v-77.05H9.41zm0 0"/></symbol><symbol overflow="visible" id="b0a10245c"><path d="M28.72 0h5.84c0-30.94-.76-34.38-5.9-51.73l-6.2.39c5.5 16.86 6.26 19.8 6.26 51.34zm0 0"/></symbol><symbol overflow="visible" id="b0a10245d"><path d="M18.95 0h5.85c0-13.84-.16-22.17-.77-28.66 1.95.66 3.97 1 6.11 1 9.88 0 14.19-6.06 14.19-17.01 0-2.22-.16-4.5-.45-7.06l-5.8.65c.3 2.6.53 4.88.53 6.83 0 6.98-2.3 10-8.36 10-5.1 0-6.9-.81-8.31-6.56-.77-3.2-1.75-6.56-3.05-10.92l-6.19.39c5.5 16.86 6.25 19.8 6.25 51.34zm0 0"/></symbol><symbol overflow="visible" id="b0a10245e"><path d="M12.63 0h5.87c0-13.84-.16-22.17-.8-28.66 1.94.66 4 1 6.14 1 2.79 0 5.04-.68 6.83-1.95 2.4 1.19 5.8 1.95 8.13 1.95 8.04 0 11.86-6.21 11.86-17.17 0-2.1-.2-4.42-.46-6.9l-5.37.65c.19 2.14.26 4.08.26 5.77 0 7.58-1.68 11.06-6.3 11.06-1.82 0-3.2-.23-4.3-.58 1.03-2.64 1.53-5.92 1.53-9.84 0-2.22-.16-4.5-.5-7.06l-5.8.65c.34 2.6.58 4.88.58 6.83 0 6.98-1.8 10.03-6.46 10-5.1-.05-6.82-.81-8.2-6.56-.77-3.2-1.75-6.56-3.1-10.92l-6.16.39C11.9-34.48 12.63-31.54 12.63 0zm0 0"/></symbol><symbol overflow="visible" id="b0a10245f"><path d="M12.52-.16h5.75c0-17.62-.22-25.51-2.66-36.54-1.45-6.49-.16-8.42 1.52-8.42 3.46 0 7.93 4 14.12 14.34L47.98-44.1l-3.65-4.93-11.64 9.16c-5.49-8.1-10.64-11.87-15.86-11.87-6.35 0-9.08 6-6.83 16.45 2.67 12.23 2.52 15.83 2.52 35.12zm0 0"/></symbol><symbol overflow="visible" id="b0a10245g"><path d="M20.38 0c3.01 0 6.14-.66 8.34-2.6C31.28-.57 34.25 0 37.05 0 43 0 48.8-3.25 48.8-14.03c0-12.06-7.78-21.72-25.9-38.42l-4.24 4.6 4.04 3.68C13.58-32.9 8.36-24.72 8.36-14c0 10.19 5.03 14 12.02 14zm-.13-6.6C16.02-6.6 14-8.5 14-14.07 14-22.5 17.73-29 27.2-40.25c12.58 11.67 15.86 19.27 15.86 26.4 0 5.2-1.56 7.26-5.9 7.26-5.5 0-5.5-2.22-5.5-5.58v-3.92h-5.88v3.84c0 3.6 0 5.66-5.53 5.66zm0 0"/></symbol><symbol overflow="visible" id="b0a10245h"><path d="M8.92 0l7.6.03c5.42-9 9.73-14.37 14.53-18.26 4.65-3.82 9.73-6.2 16.53-8.97l.6-6.99c-5.12 2.11-8.59 3.63-12.35 5.47-2.6 1.25-4.66 1.44-7.72-.16a10.06 10.06 0 01-5.33-8.62c0-5.19 3.42-8.1 9.69-8.1 2.4 0 5.3.48 8.55 1.38l.75-6.01a32.38 32.38 0 00-9.65-1.58c-9.2 0-15.42 5.04-15.42 14.5 0 6.26 3.94 12.01 9.47 14.87C20.98-17.86 15.45-10.9 8.92 0zm0 0"/></symbol><symbol overflow="visible" id="b0a10245i"><path d="M3.83 0v-5.95H6.2v-.82H.45v.82h2.4V0zm0 0"/></symbol><symbol overflow="visible" id="b0a10245j"><path d="M5.75-2.23v-.43c0-1.6-.9-2.51-2.42-2.51S.87-4.16.87-2.48c0 1.71.91 2.62 2.5 2.62 1.43 0 2.07-.56 2.29-1.52l-.9-.09c-.18.61-.59.9-1.35.9-.94 0-1.52-.54-1.58-1.66zm-2.4-2.2c.93 0 1.43.5 1.48 1.55H1.84c.08-1.07.6-1.56 1.5-1.56zm0 0"/></symbol><symbol overflow="visible" id="b0a10245k"><path d="M1.83 0l1.42-2h.06l1.46 2H5.8L4-2.53l1.78-2.49H4.8L3.42-3.08h-.08l-1.4-1.94H.89l1.78 2.49L.84 0zm0 0"/></symbol><symbol overflow="visible" id="b0a10245l"><path d="M5.52-4.25v-.77H3.17v-1.56h-.81l-.14 1.56H.75v.77h1.47v2.4c0 1.3.48 1.94 1.84 1.94C4.6.1 5.14 0 5.55-.14L5.4-.91c-.32.13-.72.2-1.13.2-.8 0-1.1-.37-1.1-1.23v-2.31zm0 0"/></symbol><symbol overflow="visible" id="b0a10245m"><path d="M3.33-3.42c.47 0 .8-.27.8-.8 0-.51-.33-.8-.8-.8-.47 0-.8.29-.8.8 0 .53.33.8.8.8zm0 3.5c.47 0 .8-.27.8-.78 0-.53-.33-.82-.8-.82-.47 0-.8.29-.8.82 0 .51.33.78.8.78zm0 0"/></symbol><symbol overflow="visible" id="b0a10245v"><path d="M5.95-6.77H1.1V0h.99v-2.92H5.3v-.77H2.08v-2.26h3.87zm0 0"/></symbol><symbol overflow="visible" id="b0a10245w"><path d="M2.83.14c.94 0 1.5-.39 1.81-.95h.08l.1.81h.76v-3.38c0-1.23-.69-1.8-2.13-1.8-1.43 0-2.03.65-2.18 1.6l.93.1c.11-.6.44-.93 1.22-.93.85 0 1.22.32 1.22 1.04v.34l-1.81.2C1.6-2.7 1.1-2.17 1.1-1.28c0 .92.64 1.42 1.72 1.42zm.25-.77c-.67 0-1.02-.28-1.02-.74 0-.44.28-.72 1-.82l1.58-.19v.41c0 .8-.6 1.34-1.56 1.34zm0 0"/></symbol><symbol overflow="visible" id="b0a10245x"><path d="M2.73.14c.9 0 1.43-.45 1.74-1.08h.06l.13.94h.8v-5.02h-.94v2.7c0 .98-.57 1.62-1.46 1.62-.75 0-1.1-.4-1.1-1.22v-3.1h-.93v3.32c0 1.17.55 1.84 1.7 1.84zm0 0"/></symbol><symbol overflow="visible" id="b0a10245y"><path d="M5.08-5.16c-.94 0-1.58.43-1.9 1.3h-.09l-.07-1.16H1.05v.77h1.1v3.48H.96V0h3.96v-.77H3.1v-1.46c0-1.36.6-2.05 1.83-2.05.4 0 .76.08 1.1.17l.15-.87c-.33-.11-.7-.18-1.11-.18zm0 0"/></symbol><symbol overflow="visible" id="b0a10245z"><path d="M3.9.14c1.48 0 2.18-.98 2.18-2.64 0-1.67-.7-2.66-2.17-2.66-.91 0-1.49.41-1.79 1h-.06v-2.98h-.95V0h.81l.11-.9h.06c.29.63.82 1.04 1.82 1.04zm-.32-.8c-1.08 0-1.55-.8-1.55-1.84 0-1.06.47-1.86 1.55-1.86 1.1 0 1.51.61 1.51 1.86S4.64-.66 3.58-.66zm0 0"/></symbol><symbol overflow="visible" id="b0a10245A"><path d="M3.92-7.14H1.36v.76h1.6v5.61H1.15V0H5.7v-.77H3.92zm0 0"/></symbol><symbol overflow="visible" id="b0a10245B"><path d="M3.33.14c1.7 0 2.51-.86 2.51-2.69v-4.22h-.98v4.2c0 1.41-.47 1.9-1.53 1.9S1.8-1.16 1.8-2.57v-4.2H.8v4.22c0 1.83.81 2.7 2.52 2.7zm0 0"/></symbol><symbol overflow="visible" id="b0a10245C"><path d="M2.84.14C3.8.14 4.33-.26 4.6-.9h.07L4.8 0h.76v-7.14h-.95v2.95h-.08c-.28-.6-.86-.97-1.67-.97-1.48 0-2.27.99-2.27 2.64C.6-.84 1.36.14 2.84.14zm.22-.8c-.98 0-1.48-.59-1.48-1.84s.5-1.86 1.48-1.86c1.13 0 1.58.8 1.58 1.86S4.2-.66 3.06-.66zm0 0"/></symbol><symbol overflow="visible" id="b0a10245D"><path d="M2.16 0v-2.67c0-.99.59-1.63 1.46-1.63.74 0 1.07.38 1.07 1.22V0h.95v-3.31c0-1.2-.56-1.85-1.67-1.85-.92 0-1.49.46-1.77 1.08h-.06l-.12-.94H1.2V0zm0 0"/></symbol><symbol overflow="visible" id="b0a10245E"><path d="M1.63 0v-2.9c0-.8.15-1.4.71-1.4.41 0 .55.3.55.88V0h.95v-2.9c0-.8.18-1.4.72-1.4.4 0 .57.3.57.88V0h.95v-3.63c0-.92-.28-1.53-1.11-1.53-.63 0-.95.41-1.1.9h-.06c-.1-.52-.44-.9-1.08-.9-.6 0-.93.41-1.06.9H1.6l-.23-.76H.67V0zm0 0"/></symbol><symbol overflow="visible" id="b0a10245F"><path d="M3.36.16c1.4 0 2.2-.6 2.2-1.57 0-.89-.54-1.22-1.47-1.39L3-3c-.67-.14-.86-.33-.86-.73 0-.5.4-.74 1.17-.74.83 0 1.19.27 1.27.8l.9-.05c-.12-1-.8-1.47-2.17-1.47-1.34 0-2.1.53-2.1 1.5 0 .81.45 1.22 1.52 1.44l1.04.2c.56.11.87.24.87.72 0 .52-.45.78-1.28.78-.95 0-1.36-.28-1.42-.87l-.9.06C1.07-.36 1.8.16 3.35.16zm0 0"/></symbol><symbol overflow="visible" id="b0a10245G"><path d="M1.45-2.95c0 2.56 1.08 4.37 3.67 4.84l.11-.67C3.28.86 2.43-.75 2.43-2.95s.85-3.82 2.8-4.16l-.1-.69c-2.6.49-3.68 2.3-3.68 4.85zm0 0"/></symbol><symbol overflow="visible" id="b0a10245H"><path d="M3.16 2.03c1.67 0 2.4-.86 2.4-2.51v-4.54h-.81l-.13.91h-.06c-.26-.58-.8-1.05-1.73-1.05-1.42 0-2.24 1-2.24 2.52 0 1.6.75 2.56 2.2 2.56.94 0 1.5-.5 1.77-1.03h.05v.72c0 1.17-.42 1.67-1.45 1.67-.93 0-1.3-.34-1.41-.89L.8.5c.12.96.87 1.54 2.36 1.54zM3.06-.8c-.98 0-1.48-.57-1.48-1.82 0-1.13.5-1.75 1.48-1.75 1.06 0 1.58.76 1.58 1.75 0 .95-.56 1.82-1.58 1.82zm0 0"/></symbol><symbol overflow="visible" id="b0a10245I"><path d="M5.4-1.22c.43-.66.66-1.51.66-2.44l-.83-.09c0 .75-.14 1.4-.4 1.92l-1.7-1.83c.8-.42 1.39-.96 1.39-1.86 0-.87-.66-1.4-1.61-1.4-1.14 0-1.72.62-1.72 1.47 0 .72.47 1.3.83 1.68-.8.41-1.52.99-1.52 2.1C.5-.44 1.52.14 2.7.14c.9 0 1.64-.3 2.2-.78l.58.64h1.05zM2.86-6.25c.44 0 .82.23.82.73 0 .7-.47 1.11-1 1.41-.47-.53-.67-.92-.67-1.34 0-.47.3-.8.85-.8zM2.81-.62c-.83 0-1.42-.41-1.42-1.18 0-.76.5-1.18 1.05-1.5l1.94 2.1c-.4.37-.91.57-1.57.57zm0 0"/></symbol><symbol overflow="visible" id="b0a10245J"><path d="M1.45-7.1c1.96.33 2.8 1.94 2.8 4.15 0 2.2-.84 3.8-2.8 4.17l.11.67c2.58-.47 3.67-2.28 3.67-4.84 0-2.55-1.09-4.36-3.67-4.85zm0 0"/></symbol><symbol overflow="visible" id="b0a10245o"><path d="M1.38-1.45l.68-.68L1.2-3l-.67.67zm0 0"/></symbol><symbol overflow="visible" id="b0a10245p"><path d="M1.14 0h.66c0-2.92-.1-3.38-.57-5.03L.52-5c.53 1.6.62 1.97.62 5zm0 0"/></symbol><symbol overflow="visible" id="b0a10245q"><path d="M1.14 0h.66c0-1.28-.02-2.08-.08-2.72.2.06.42.1.6.1 1 0 1.46-.66 1.46-1.77 0-.2-.01-.42-.05-.64l-.65.06c.03.25.04.45.04.63 0 .65-.21.96-.8.96-.52 0-.68-.09-.84-.75l-.25-.9L.52-5c.53 1.6.62 1.97.62 5zm0 0"/></symbol><symbol overflow="visible" id="b0a10245r"><path d="M1.14 0h.66c0-1.28-.02-2.08-.08-2.72.2.06.42.1.6.1.26 0 .48-.07.66-.2.24.12.63.2.82.2.84 0 1.22-.66 1.22-1.77 0-.19-.02-.42-.04-.64l-.6.06.01.47c0 .77-.14 1.13-.6 1.13-.15 0-.27-.02-.37-.05.1-.27.14-.58.14-.97 0-.2-.01-.42-.04-.64l-.66.06c.02.25.05.45.05.63 0 .65-.18.96-.6.96-.51 0-.67-.09-.83-.75l-.25-.9L.52-5c.53 1.6.62 1.97.62 5zm0 0"/></symbol><symbol overflow="visible" id="b0a10245s"><path d="M1.14 0h.66c0-.92-.02-1.6-.03-2.16.21.04.45.05.71.05.66 0 1.43-.08 2.29-.25L4.84-3c-.53.13-1.32.19-1.56.2-.08 0-.08 0-.12-.06-.1-.14-.32-.48-.32-.86 0-.45.29-.64.7-.64.21 0 .48.06.74.16l.17-.64a2.7 2.7 0 00-.93-.2c-.77 0-1.32.46-1.32 1.35 0 .3.08.64.24.9-.24 0-.47 0-.66-.04-.06 0-.06 0-.08-.1a11.9 11.9 0 00-.47-2.1L.52-5c.53 1.6.62 1.97.62 5zm0 0"/></symbol><symbol overflow="visible" id="b0a10245t"><path d="M1.72 0c.25 0 .58-.03.81-.22.3.19.58.22.81.22.52 0 1.18-.27 1.18-1.4 0-1.16-.85-2.23-2.57-3.68l-.47.52.36.33C1-3.2.52-2.43.52-1.43.52-.35 1.08 0 1.72 0zm0-.75c-.36 0-.56-.19-.56-.69 0-.72.3-1.36 1.2-2.37 1.22 1.04 1.5 1.87 1.5 2.42 0 .45-.11.64-.5.64-.5 0-.5-.1-.5-.5v-.36H2.2v.36c0 .4 0 .5-.48.5zm0 0"/></symbol><symbol overflow="visible" id="b0a10245u"><path d="M.52 0h.87a5.44 5.44 0 012.95-2.6l.08-.8-1.19.52c-.28.15-.48.16-.71.04a.88.88 0 01-.47-.75c0-.5.34-.74.9-.74a3 3 0 01.77.11l.08-.69a3.1 3.1 0 00-.9-.14c-.88 0-1.54.49-1.54 1.49 0 .58.33 1.12.81 1.4C1.72-1.75 1.13-1 .52 0zm0 0"/></symbol></defs><use xlink:href="#b0a10245a" x="23.84556" y="160.5" fill="#fff"/><use xlink:href="#b0a10245b" x="81.06778" y="160.5" fill="#515151"/><use xlink:href="#b0a10245c" x="106.36" y="160.5" fill="#fff"/><use xlink:href="#b0a10245b" x="163.5822" y="160.5" fill="#515151"/><use xlink:href="#b0a10245d" x="188.8744" y="160.5" fill="#fff"/><use xlink:href="#b0a10245b" x="246.0967" y="160.5" fill="#515151"/><use xlink:href="#b0a10245e" x="271.3889" y="160.5" fill="#fff"/><use xlink:href="#b0a10245b" x="328.6111" y="160.5" fill="#515151"/><use xlink:href="#b0a10245f" x="353.9033" y="160.5" fill="#fff"/><use xlink:href="#b0a10245b" x="411.1256" y="160.5" fill="#515151"/><use xlink:href="#b0a10245g" x="436.4178" y="160.5" fill="#fff"/><use xlink:href="#b0a10245b" x="493.64" y="160.5" fill="#515151"/><use xlink:href="#b0a10245h" x="518.9322" y="160.5" fill="#fff"/><g fill="#fff"><use xlink:href="#b0a10245i" x="265.3222" y="252"/><use xlink:href="#b0a10245j" x="271.9892" y="252"/><use xlink:href="#b0a10245k" x="278.6562" y="252"/><use xlink:href="#b0a10245l" x="285.3232" y="252"/><use xlink:href="#b0a10245m" x="291.9902" y="252"/><use xlink:href="#b0a10245n" x="298.6572" y="252"/></g><use xlink:href="#b0a10245o" x="305.3222" y="252" fill="#fff"/><g fill="#fff"><use xlink:href="#b0a10245p" x="307.9" y="252"/><use xlink:href="#b0a10245q" x="310.219" y="252"/><use xlink:href="#b0a10245r" x="314.518" y="252"/><use xlink:href="#b0a10245s" x="320.057" y="252"/></g><use xlink:href="#b0a10245t" x="325.126" y="252" fill="#fff"/><use xlink:href="#b0a10245u" x="329.745" y="252" fill="#fff"/><g fill="#fff"><use xlink:href="#b0a10245v" x="126.6667" y="266"/><use xlink:href="#b0a10245j" x="133.3337" y="266"/><use xlink:href="#b0a10245w" x="140.0007" y="266"/><use xlink:href="#b0a10245l" x="146.6677" y="266"/><use xlink:href="#b0a10245x" x="153.3347" y="266"/><use xlink:href="#b0a10245y" x="160.0017" y="266"/><use xlink:href="#b0a10245j" x="166.6687" y="266"/><use xlink:href="#b0a10245m" x="173.3357" y="266"/><use xlink:href="#b0a10245n" x="180.0027" y="266"/><use xlink:href="#b0a10245i" x="186.6697" y="266"/><use xlink:href="#b0a10245w" x="193.3367" y="266"/><use xlink:href="#b0a10245z" x="200.0037" y="266"/><use xlink:href="#b0a10245x" x="206.6707" y="266"/><use xlink:href="#b0a10245A" x="213.3377" y="266"/><use xlink:href="#b0a10245w" x="220.0047" y="266"/><use xlink:href="#b0a10245y" x="226.6717" y="266"/><use xlink:href="#b0a10245n" x="233.3387" y="266"/><use xlink:href="#b0a10245B" x="240.0057" y="266"/><use xlink:href="#b0a10245y" x="246.6727" y="266"/><use xlink:href="#b0a10245C" x="253.3397" y="266"/><use xlink:href="#b0a10245x" x="260.0067" y="266"/><use xlink:href="#b0a10245n" x="266.6737" y="266"/><use xlink:href="#b0a10245D" x="273.3407" y="266"/><use xlink:href="#b0a10245x" x="280.0077" y="266"/><use xlink:href="#b0a10245E" x="286.6747" y="266"/><use xlink:href="#b0a10245j" x="293.3417" y="266"/><use xlink:href="#b0a10245y" x="300.0087" y="266"/><use xlink:href="#b0a10245w" x="306.6757" y="266"/><use xlink:href="#b0a10245A" x="313.3427" y="266"/><use xlink:href="#b0a10245F" x="320.0097" y="266"/><use xlink:href="#b0a10245n" x="326.6767" y="266"/><use xlink:href="#b0a10245G" x="333.3437" y="266"/><use xlink:href="#b0a10245F" x="340.0107" y="266"/><use xlink:href="#b0a10245j" x="346.6777" y="266"/><use xlink:href="#b0a10245l" x="353.3447" y="266"/><use xlink:href="#b0a10245n" x="360.0117" y="266"/><use xlink:href="#b0a10245A" x="366.6787" y="266"/><use xlink:href="#b0a10245w" x="373.3457" y="266"/><use xlink:href="#b0a10245D" x="380.0127" y="266"/><use xlink:href="#b0a10245H" x="386.6797" y="266"/><use xlink:href="#b0a10245x" x="393.3467" y="266"/><use xlink:href="#b0a10245w" x="400.0137" y="266"/><use xlink:href="#b0a10245H" x="406.6807" y="266"/><use xlink:href="#b0a10245j" x="413.3477" y="266"/><use xlink:href="#b0a10245n" x="420.0147" y="266"/><use xlink:href="#b0a10245I" x="426.6817" y="266"/><use xlink:href="#b0a10245n" x="433.3487" y="266"/><use xlink:href="#b0a10245l" x="440.0157" y="266"/><use xlink:href="#b0a10245D" x="446.6827" y="266"/><use xlink:href="#b0a10245x" x="453.3497" y="266"/><use xlink:href="#b0a10245E" x="460.0167" y="266"/><use xlink:href="#b0a10245J" x="466.6837" y="266"/></g></svg>