<?xml version='1.0' encoding='UTF-8'?>
<svg xmlns="http://www.w3.org/2000/svg" xmlns:xlink="http://www.w3.org/1999/xlink" width="600px" height="300px" viewBox="0 0 600 300" x="0px" y="0px" enable-background="new 0 0 600 300"><defs><symbol overflow="visible" id="386945afa"><path d="M13.84-15.03l6.35-6.22-8.07-8.05-6.28 6.22zm0 0"/></symbol><symbol overflow="visible" id="386945afb"><path d="M11.6 0h5.84c0-30.94-.77-34.38-5.92-51.73l-6.18.39C10.88-34.48 11.6-31.54 11.6 0zm0 0"/></symbol><symbol overflow="visible" id="386945afc"><path d="M11.6 0h5.84c0-13.84-.16-22.17-.77-28.66 1.94.66 3.97 1 6.14 1 9.85 0 14.19-6.06 14.19-17.01 0-2.22-.16-4.5-.5-7.06l-5.8.65c.35 2.6.58 4.88.58 6.83 0 6.98-2.33 10-8.36 10-5.14 0-6.9-.81-8.34-6.56-.77-3.2-1.72-6.56-3.06-10.92l-6.18.39C10.88-34.48 11.6-31.54 11.6 0zm0 0"/></symbol><symbol overflow="visible" id="386945afd"><path d="M11.6 0h5.84c0-13.84-.16-22.17-.77-28.66 1.94.66 3.97 1 6.14 1 2.78 0 5-.68 6.8-1.95a20.95 20.95 0 008.16 1.95c8.01 0 11.82-6.21 11.82-17.17 0-2.1-.15-4.42-.42-6.9l-5.37.65c.15 2.14.26 4.08.26 5.77 0 7.58-1.69 11.06-6.3 11.06-1.82 0-3.2-.23-4.3-.58 1.02-2.64 1.48-5.92 1.48-9.84 0-2.22-.14-4.5-.46-7.06l-5.8.65c.32 2.6.54 4.88.54 6.83 0 6.98-1.8 10.03-6.4 10-5.16-.05-6.84-.81-8.24-6.56-.74-3.2-1.72-6.56-3.06-10.92l-6.18.39C10.88-34.48 11.6-31.54 11.6 0zm0 0"/></symbol><symbol overflow="visible" id="386945afe"><path d="M11.6 0h5.84c0-10.19-.08-17.4-.35-23.08 3.05.38 5.99.61 9.2.61 6.44 0 13.91-.84 22.88-2.48l.66-5.72c-5.85 1.3-13.4 1.98-17.22 2.14-.67.03-.8-.05-1.17-.61-1.46-2.06-3.33-5.61-3.33-9.2 0-5.14 3.33-7.32 8.12-7.32 2.25 0 4.9.49 7.68 1.36l1.37-5.64a28.03 28.03 0 00-9.19-1.72c-7.98 0-13.7 4.5-13.7 13.55 0 3.13.95 6.72 2.75 9.73-2.7-.12-5.45-.34-7.94-.68-.57-.08-.57-.08-.64-.85-.81-7.32-2.3-12.7-5.04-21.82l-6.18.39C10.88-34.48 11.6-31.54 11.6 0zm0 0"/></symbol><symbol overflow="visible" id="386945aff"><path d="M17.36 0c2.97 0 6.14-.66 8.31-2.6C28.27-.57 31.25 0 34.03 0c5.9 0 11.7-3.25 11.7-14.03 0-12.06-7.78-21.72-25.85-38.42l-4.27 4.6 4.08 3.68C10.56-32.9 5.34-24.72 5.34-14c0 10.19 5 14 12.02 14zm-.11-6.6c-4.23 0-6.27-1.9-6.27-7.48 0-8.42 3.7-14.92 13.2-26.17 12.55 11.67 15.88 19.27 15.88 26.4 0 5.2-1.58 7.26-5.92 7.26-5.48 0-5.48-2.22-5.48-5.58v-3.92h-5.88v3.84c0 3.6 0 5.66-5.53 5.66zm0 0"/></symbol><symbol overflow="visible" id="386945afg"><path d="M5.34 0l7.6.03c5.4-9 9.72-14.37 14.53-18.26 4.66-3.82 9.72-6.2 16.51-8.97l.61-6.99a205.7 205.7 0 00-12.36 5.47c-2.59 1.25-4.65 1.44-7.7-.16-3.28-1.82-5.34-5.15-5.34-8.62 0-5.19 3.43-8.1 9.68-8.1 2.41 0 5.32.48 8.55 1.38l.77-6.01a32.55 32.55 0 00-9.66-1.58c-9.19 0-15.4 5.04-15.4 14.5 0 6.26 3.92 12.01 9.45 14.87C17.39-17.86 11.86-10.9 5.34 0zm0 0"/></symbol><symbol overflow="visible" id="386945afh"><path d="M3.83 0v-5.95H6.2v-.82H.45v.82h2.4V0zm0 0"/></symbol><symbol overflow="visible" id="386945afi"><path d="M5.75-2.23v-.43c0-1.6-.9-2.51-2.42-2.51S.87-4.16.87-2.48c0 1.71.91 2.62 2.5 2.62 1.43 0 2.07-.56 2.29-1.52l-.9-.09c-.18.61-.59.9-1.35.9-.94 0-1.52-.54-1.58-1.66zm-2.4-2.2c.93 0 1.43.5 1.48 1.55H1.84c.08-1.07.6-1.56 1.5-1.56zm0 0"/></symbol><symbol overflow="visible" id="386945afj"><path d="M1.83 0l1.42-2h.06l1.46 2H5.8L4-2.53l1.78-2.49H4.8L3.42-3.08h-.08l-1.4-1.94H.89l1.78 2.49L.84 0zm0 0"/></symbol><symbol overflow="visible" id="386945afk"><path d="M5.52-4.25v-.77H3.17v-1.56h-.81l-.14 1.56H.75v.77h1.47v2.4c0 1.3.48 1.94 1.84 1.94C4.6.1 5.14 0 5.55-.14L5.4-.91c-.32.13-.72.2-1.13.2-.8 0-1.1-.37-1.1-1.23v-2.31zm0 0"/></symbol><symbol overflow="visible" id="386945afl"><path d="M3.33-3.42c.47 0 .8-.27.8-.8 0-.51-.33-.8-.8-.8-.47 0-.8.29-.8.8 0 .53.33.8.8.8zm0 3.5c.47 0 .8-.27.8-.78 0-.53-.33-.82-.8-.82-.47 0-.8.29-.8.82 0 .51.33.78.8.78zm0 0"/></symbol><symbol overflow="visible" id="386945afu"><path d="M5.95-6.77H1.1V0h.99v-2.92H5.3v-.77H2.08v-2.26h3.87zm0 0"/></symbol><symbol overflow="visible" id="386945afv"><path d="M2.83.14c.94 0 1.5-.39 1.81-.95h.08l.1.81h.76v-3.38c0-1.23-.69-1.8-2.13-1.8-1.43 0-2.03.65-2.18 1.6l.93.1c.11-.6.44-.93 1.22-.93.85 0 1.22.32 1.22 1.04v.34l-1.81.2C1.6-2.7 1.1-2.17 1.1-1.28c0 .92.64 1.42 1.72 1.42zm.25-.77c-.67 0-1.02-.28-1.02-.74 0-.44.28-.72 1-.82l1.58-.19v.41c0 .8-.6 1.34-1.56 1.34zm0 0"/></symbol><symbol overflow="visible" id="386945afw"><path d="M2.73.14c.9 0 1.43-.45 1.74-1.08h.06l.13.94h.8v-5.02h-.94v2.7c0 .98-.57 1.62-1.46 1.62-.75 0-1.1-.4-1.1-1.22v-3.1h-.93v3.32c0 1.17.55 1.84 1.7 1.84zm0 0"/></symbol><symbol overflow="visible" id="386945afx"><path d="M5.08-5.16c-.94 0-1.58.43-1.9 1.3h-.09l-.07-1.16H1.05v.77h1.1v3.48H.96V0h3.96v-.77H3.1v-1.46c0-1.36.6-2.05 1.83-2.05.4 0 .76.08 1.1.17l.15-.87c-.33-.11-.7-.18-1.11-.18zm0 0"/></symbol><symbol overflow="visible" id="386945afy"><path d="M.92-6.77V0h.99v-2.27h1.68c1.58 0 2.38-.65 2.38-2.2v-.14c0-1.51-.8-2.16-2.34-2.16zM5-4.47c0 1.05-.42 1.45-1.58 1.45H1.91v-2.96h1.51C4.58-5.98 5-5.66 5-4.61zm0 0"/></symbol><symbol overflow="visible" id="386945afz"><path d="M3.36.16c1.4 0 2.2-.6 2.2-1.57 0-.89-.54-1.22-1.47-1.39L3-3c-.67-.14-.86-.33-.86-.73 0-.5.4-.74 1.17-.74.83 0 1.19.27 1.27.8l.9-.05c-.12-1-.8-1.47-2.17-1.47-1.34 0-2.1.53-2.1 1.5 0 .81.45 1.22 1.52 1.44l1.04.2c.56.11.87.24.87.72 0 .52-.45.78-1.28.78-.95 0-1.36-.28-1.42-.87l-.9.06C1.07-.36 1.8.16 3.35.16zm0 0"/></symbol><symbol overflow="visible" id="386945afA"><path d="M3.58-5.81c.42 0 .72-.22.72-.67 0-.44-.3-.68-.72-.68-.44 0-.72.24-.72.68 0 .45.28.67.72.67zm.5.8H1.52v.76h1.6v3.48h-1.8V0h4.46v-.77h-1.7zm0 0"/></symbol><symbol overflow="visible" id="386945afB"><path d="M2.16 0v-2.67c0-.99.59-1.63 1.46-1.63.74 0 1.07.38 1.07 1.22V0h.95v-3.31c0-1.2-.56-1.85-1.67-1.85-.92 0-1.49.46-1.77 1.08h-.06l-.12-.94H1.2V0zm0 0"/></symbol><symbol overflow="visible" id="386945afC"><path d="M1.63 0v-2.9c0-.8.15-1.4.71-1.4.41 0 .55.3.55.88V0h.95v-2.9c0-.8.18-1.4.72-1.4.4 0 .57.3.57.88V0h.95v-3.63c0-.92-.28-1.53-1.11-1.53-.63 0-.95.41-1.1.9h-.06c-.1-.52-.44-.9-1.08-.9-.6 0-.93.41-1.06.9H1.6l-.23-.76H.67V0zm0 0"/></symbol><symbol overflow="visible" id="386945afD"><path d="M3.92-7.14H1.36v.76h1.6v5.61H1.15V0H5.7v-.77H3.92zm0 0"/></symbol><symbol overflow="visible" id="386945afE"><path d="M1.45-2.95c0 2.56 1.08 4.37 3.67 4.84l.11-.67C3.28.86 2.43-.75 2.43-2.95s.85-3.82 2.8-4.16l-.1-.69c-2.6.49-3.68 2.3-3.68 4.85zm0 0"/></symbol><symbol overflow="visible" id="386945afF"><path d="M2.84.14C3.8.14 4.33-.26 4.6-.9h.07L4.8 0h.76v-7.14h-.95v2.95h-.08c-.28-.6-.86-.97-1.67-.97-1.48 0-2.27.99-2.27 2.64C.6-.84 1.36.14 2.84.14zm.22-.8c-.98 0-1.48-.59-1.48-1.84s.5-1.86 1.48-1.86c1.13 0 1.58.8 1.58 1.86S4.2-.66 3.06-.66zm0 0"/></symbol><symbol overflow="visible" id="386945afG"><path d="M4.63-6.5c.45 0 .98.08 1.39.2l.2-.72a5.3 5.3 0 00-1.64-.26c-1.52 0-2.16.56-2.16 1.87v.4H.9v.76h1.53V0h.94v-4.25h2.53v-.77H3.36v-.3c0-.84.33-1.18 1.27-1.18zm0 0"/></symbol><symbol overflow="visible" id="386945afH"><path d="M1.45-7.1c1.96.33 2.8 1.94 2.8 4.15 0 2.2-.84 3.8-2.8 4.17l.11.67c2.58-.47 3.67-2.28 3.67-4.84 0-2.55-1.09-4.36-3.67-4.85zm0 0"/></symbol><symbol overflow="visible" id="386945afn"><path d="M1.38-1.45l.68-.68L1.2-3l-.67.67zm0 0"/></symbol><symbol overflow="visible" id="386945afo"><path d="M1.14 0h.66c0-2.92-.1-3.38-.57-5.03L.52-5c.53 1.6.62 1.97.62 5zm0 0"/></symbol><symbol overflow="visible" id="386945afp"><path d="M1.14 0h.66c0-1.28-.02-2.08-.08-2.72.2.06.42.1.6.1 1 0 1.46-.66 1.46-1.77 0-.2-.01-.42-.05-.64l-.65.06c.03.25.04.45.04.63 0 .65-.21.96-.8.96-.52 0-.68-.09-.84-.75l-.25-.9L.52-5c.53 1.6.62 1.97.62 5zm0 0"/></symbol><symbol overflow="visible" id="386945afq"><path d="M1.14 0h.66c0-1.28-.02-2.08-.08-2.72.2.06.42.1.6.1.26 0 .48-.07.66-.2.24.12.63.2.82.2.84 0 1.22-.66 1.22-1.77 0-.19-.02-.42-.04-.64l-.6.06.01.47c0 .77-.14 1.13-.6 1.13-.15 0-.27-.02-.37-.05.1-.27.14-.58.14-.97 0-.2-.01-.42-.04-.64l-.66.06c.02.25.05.45.05.63 0 .65-.18.96-.6.96-.51 0-.67-.09-.83-.75l-.25-.9L.52-5c.53 1.6.62 1.97.62 5zm0 0"/></symbol><symbol overflow="visible" id="386945afr"><path d="M1.14 0h.66c0-.92-.02-1.6-.03-2.16.21.04.45.05.71.05.66 0 1.43-.08 2.29-.25L4.84-3c-.53.13-1.32.19-1.56.2-.08 0-.08 0-.12-.06-.1-.14-.32-.48-.32-.86 0-.45.29-.64.7-.64.21 0 .48.06.74.16l.17-.64a2.7 2.7 0 00-.93-.2c-.77 0-1.32.46-1.32 1.35 0 .3.08.64.24.9-.24 0-.47 0-.66-.04-.06 0-.06 0-.08-.1a11.9 11.9 0 00-.47-2.1L.52-5c.53 1.6.62 1.97.62 5zm0 0"/></symbol><symbol overflow="visible" id="386945afs"><path d="M1.72 0c.25 0 .58-.03.81-.22.3.19.58.22.81.22.52 0 1.18-.27 1.18-1.4 0-1.16-.85-2.23-2.57-3.68l-.47.52.36.33C1-3.2.52-2.43.52-1.43.52-.35 1.08 0 1.72 0zm0-.75c-.36 0-.56-.19-.56-.69 0-.72.3-1.36 1.2-2.37 1.22 1.04 1.5 1.87 1.5 2.42 0 .45-.11.64-.5.64-.5 0-.5-.1-.5-.5v-.36H2.2v.36c0 .4 0 .5-.48.5zm0 0"/></symbol><symbol overflow="visible" id="386945aft"><path d="M.52 0h.87a5.44 5.44 0 012.95-2.6l.08-.8-1.19.52c-.28.15-.48.16-.71.04a.88.88 0 01-.47-.75c0-.5.34-.74.9-.74a3 3 0 01.77.11l.08-.69a3.1 3.1 0 00-.9-.14c-.88 0-1.54.49-1.54 1.49 0 .58.33 1.12.81 1.4C1.72-1.75 1.13-1 .52 0zm0 0"/></symbol></defs><g fill="#fff"><use xlink:href="#386945afa" x="155.3422" y="160.5"/><use xlink:href="#386945afb" x="175.6744" y="160.5"/><use xlink:href="#386945afc" x="198.4786" y="160.5"/><use xlink:href="#386945afd" x="240.8528" y="160.5"/><use xlink:href="#386945afe" x="295.793" y="160.5"/><use xlink:href="#386945aff" x="347.9522" y="160.5"/><use xlink:href="#386945afg" x="394.8584" y="160.5"/><use xlink:href="#386945afh" x="265.3222" y="252"/><use xlink:href="#386945afi" x="271.9892" y="252"/><use xlink:href="#386945afj" x="278.6562" y="252"/><use xlink:href="#386945afk" x="285.3232" y="252"/><use xlink:href="#386945afl" x="291.9902" y="252"/><use xlink:href="#386945afm" x="298.6572" y="252"/><g><use xlink:href="#386945afn" x="305.3222" y="252"/></g><g><use xlink:href="#386945afo" x="307.9" y="252"/><use xlink:href="#386945afp" x="310.219" y="252"/><use xlink:href="#386945afq" x="314.518" y="252"/><use xlink:href="#386945afr" x="320.057" y="252"/></g><g><use xlink:href="#386945afs" x="325.126" y="252"/></g><g><use xlink:href="#386945aft" x="329.745" y="252"/></g><g><use xlink:href="#386945afu" x="183.3333" y="266"/><use xlink:href="#386945afi" x="190.0003" y="266"/><use xlink:href="#386945afv" x="196.6673" y="266"/><use xlink:href="#386945afk" x="203.3343" y="266"/><use xlink:href="#386945afw" x="210.0013" y="266"/><use xlink:href="#386945afx" x="216.6683" y="266"/><use xlink:href="#386945afi" x="223.3353" y="266"/><use xlink:href="#386945afl" x="230.0023" y="266"/><use xlink:href="#386945afm" x="236.6693" y="266"/><use xlink:href="#386945afy" x="243.3363" y="266"/><use xlink:href="#386945afi" x="250.0033" y="266"/><use xlink:href="#386945afx" x="256.6703" y="266"/><use xlink:href="#386945afz" x="263.3373" y="266"/><use xlink:href="#386945afA" x="270.0043" y="266"/><use xlink:href="#386945afv" x="276.6713" y="266"/><use xlink:href="#386945afB" x="283.3383" y="266"/><use xlink:href="#386945afm" x="290.0053" y="266"/><use xlink:href="#386945afB" x="296.6723" y="266"/><use xlink:href="#386945afw" x="303.3393" y="266"/><use xlink:href="#386945afC" x="310.0063" y="266"/><use xlink:href="#386945afi" x="316.6733" y="266"/><use xlink:href="#386945afx" x="323.3403" y="266"/><use xlink:href="#386945afv" x="330.0073" y="266"/><use xlink:href="#386945afD" x="336.6743" y="266"/><use xlink:href="#386945afz" x="343.3413" y="266"/><use xlink:href="#386945afm" x="350.0083" y="266"/><use xlink:href="#386945afE" x="356.6753" y="266"/><use xlink:href="#386945afF" x="363.3423" y="266"/><use xlink:href="#386945afi" x="370.0093" y="266"/><use xlink:href="#386945afG" x="376.6763" y="266"/><use xlink:href="#386945afv" x="383.3433" y="266"/><use xlink:href="#386945afw" x="390.0103" y="266"/><use xlink:href="#386945afD" x="396.6773" y="266"/><use xlink:href="#386945afk" x="403.3443" y="266"/><use xlink:href="#386945afH" x="410.0113" y="266"/></g></g></svg>