<?xml version='1.0' encoding='UTF-8'?>
<svg xmlns="http://www.w3.org/2000/svg" xmlns:xlink="http://www.w3.org/1999/xlink" width="600px" height="300px" viewBox="0 0 600 300" x="0px" y="0px" enable-background="new 0 0 600 300"><defs><symbol overflow="visible" id="d8ed71c2a"><path d="M27.28 1.14c10.94 0 17.24-7.81 17.24-21.2 0-13.4-6.3-21.25-17.47-21.25-6.33 0-10.7 2.89-12.94 7.7h-.34v-23.6H7.28V0h5.42l.93-7.06H14c2.67 5.18 6.86 8.2 13.28 8.2zM25.83-4.5c-8.24 0-12.28-6.38-12.28-15.56 0-9.2 4.04-15.61 12.28-15.61 8.05 0 12.05 5.1 12.05 15.6 0 10.46-4 15.57-12.05 15.57zm0 0"/></symbol><symbol overflow="visible" id="d8ed71c2b"><path d="M17.52 1.1c6.75 0 11.28-2.82 13.5-7.4h.37l.69 6.3h5.42v-27.31c0-9.66-5.42-14.05-15.8-14.05-10.56 0-15.1 4.78-16.25 12.4l6.4.59c.82-4.82 3.37-7.65 9.78-7.65 6.56 0 9.57 2.68 9.57 8.9 0 1.9-1.14 3.04-3.3 3.35l-10.24 1.3C8.28-21.33 3.8-17.3 3.8-10.37c0 6.85 4.77 11.48 13.7 11.48zm1.25-5.3c-5.83 0-8.35-2.47-8.35-6.6 0-3.7 2.17-5.9 7.74-6.67l9.34-1.26c2.14-.27 3.25-.77 3.7-1.41v4.58C31.2-9 26.55-4.2 18.77-4.2zm0 0"/></symbol><symbol overflow="visible" id="d8ed71c2c"><path d="M7.28 0h6.49v-57.22H7.28zm0 0"/></symbol><symbol overflow="visible" id="d8ed71c2d"><path d="M7.28 0h6.49v-21.97c0-8.05 5.18-13.39 12.21-13.39 6.02 0 8.9 3.4 8.9 10.33V0h6.48v-26.94c0-9.26-4.7-14.37-13.47-14.37-6.83 0-11.22 3.44-13.89 8.2h-.38l-.92-7.06H7.28zm0 0"/></symbol><symbol overflow="visible" id="d8ed71c2e"><path d="M22.7 1.14c10.64 0 16.07-4.92 17.16-13.6l-6.48-.59c-.88 5.72-4.04 8.58-10.6 8.58-8.06 0-12.06-5.45-12.06-15.64 0-10.22 3.94-15.56 11.98-15.56 6.49 0 9.85 2.98 10.64 8.7l6.52-.53c-1.06-8.78-6.9-13.81-17.16-13.81-11.75 0-18.62 7.89-18.62 21.2 0 13.44 6.9 21.25 18.62 21.25zm0 0"/></symbol><symbol overflow="visible" id="d8ed71c2f"><path d="M40.52-18.05v-3.65c0-12.6-6.75-19.66-17.97-19.66-11.18 0-18.47 7.48-18.47 21.4 0 13.37 6.8 21.1 19 21.1 10.19 0 15-4.69 16.7-11.33l-6.4-.6C32.08-7.07 29.27-4.43 23-4.43c-7.52 0-11.78-4.5-12.28-13.63zM22.55-35.94c7.32 0 11.22 4.28 11.56 12.9H10.8c.72-8.82 4.8-12.9 11.75-12.9zm0 0"/></symbol><symbol overflow="visible" id="d8ed71c2g"><path d="M3.83 0v-5.95H6.2v-.82H.45v.82h2.4V0zm0 0"/></symbol><symbol overflow="visible" id="d8ed71c2h"><path d="M5.75-2.23v-.43c0-1.6-.9-2.51-2.42-2.51S.87-4.16.87-2.48c0 1.71.91 2.62 2.5 2.62 1.43 0 2.07-.56 2.29-1.52l-.9-.09c-.18.61-.59.9-1.35.9-.94 0-1.52-.54-1.58-1.66zm-2.4-2.2c.93 0 1.43.5 1.48 1.55H1.84c.08-1.07.6-1.56 1.5-1.56zm0 0"/></symbol><symbol overflow="visible" id="d8ed71c2i"><path d="M1.83 0l1.42-2h.06l1.46 2H5.8L4-2.53l1.78-2.49H4.8L3.42-3.08h-.08l-1.4-1.94H.89l1.78 2.49L.84 0zm0 0"/></symbol><symbol overflow="visible" id="d8ed71c2j"><path d="M5.52-4.25v-.77H3.17v-1.56h-.81l-.14 1.56H.75v.77h1.47v2.4c0 1.3.48 1.94 1.84 1.94C4.6.1 5.14 0 5.55-.14L5.4-.91c-.32.13-.72.2-1.13.2-.8 0-1.1-.37-1.1-1.23v-2.31zm0 0"/></symbol><symbol overflow="visible" id="d8ed71c2k"><path d="M3.33-3.42c.47 0 .8-.27.8-.8 0-.51-.33-.8-.8-.8-.47 0-.8.29-.8.8 0 .53.33.8.8.8zm0 3.5c.47 0 .8-.27.8-.78 0-.53-.33-.82-.8-.82-.47 0-.8.29-.8.82 0 .51.33.78.8.78zm0 0"/></symbol><symbol overflow="visible" id="d8ed71c2m"><path d="M3.9.14c1.48 0 2.18-.98 2.18-2.64 0-1.67-.7-2.66-2.17-2.66-.91 0-1.49.41-1.79 1h-.06v-2.98h-.95V0h.81l.11-.9h.06c.29.63.82 1.04 1.82 1.04zm-.32-.8c-1.08 0-1.55-.8-1.55-1.84 0-1.06.47-1.86 1.55-1.86 1.1 0 1.51.61 1.51 1.86S4.64-.66 3.58-.66zm0 0"/></symbol><symbol overflow="visible" id="d8ed71c2n"><path d="M2.83.14c.94 0 1.5-.39 1.81-.95h.08l.1.81h.76v-3.38c0-1.23-.69-1.8-2.13-1.8-1.43 0-2.03.65-2.18 1.6l.93.1c.11-.6.44-.93 1.22-.93.85 0 1.22.32 1.22 1.04v.34l-1.81.2C1.6-2.7 1.1-2.17 1.1-1.28c0 .92.64 1.42 1.72 1.42zm.25-.77c-.67 0-1.02-.28-1.02-.74 0-.44.28-.72 1-.82l1.58-.19v.41c0 .8-.6 1.34-1.56 1.34zm0 0"/></symbol><symbol overflow="visible" id="d8ed71c2o"><path d="M3.92-7.14H1.36v.76h1.6v5.61H1.15V0H5.7v-.77H3.92zm0 0"/></symbol><symbol overflow="visible" id="d8ed71c2p"><path d="M2.16 0v-2.67c0-.99.59-1.63 1.46-1.63.74 0 1.07.38 1.07 1.22V0h.95v-3.31c0-1.2-.56-1.85-1.67-1.85-.92 0-1.49.46-1.77 1.08h-.06l-.12-.94H1.2V0zm0 0"/></symbol><symbol overflow="visible" id="d8ed71c2q"><path d="M3.34.14c1.43 0 2.13-.66 2.25-1.78l-.89-.1c-.1.7-.5 1.08-1.34 1.08-1.03 0-1.52-.64-1.52-1.84 0-1.23.47-1.86 1.52-1.86.84 0 1.23.36 1.34 1.08l.9-.1c-.13-1.09-.82-1.78-2.26-1.78-1.56 0-2.46.97-2.46 2.66 0 1.66.9 2.64 2.46 2.64zm0 0"/></symbol><symbol overflow="visible" id="d8ed71c2r"><path d="M5.95-6.77H1.1V0h.99v-2.92H5.3v-.77H2.08v-2.26h3.87zm0 0"/></symbol><symbol overflow="visible" id="d8ed71c2s"><path d="M2.73.14c.9 0 1.43-.45 1.74-1.08h.06l.13.94h.8v-5.02h-.94v2.7c0 .98-.57 1.62-1.46 1.62-.75 0-1.1-.4-1.1-1.22v-3.1h-.93v3.32c0 1.17.55 1.84 1.7 1.84zm0 0"/></symbol><symbol overflow="visible" id="d8ed71c2t"><path d="M5.08-5.16c-.94 0-1.58.43-1.9 1.3h-.09l-.07-1.16H1.05v.77h1.1v3.48H.96V0h3.96v-.77H3.1v-1.46c0-1.36.6-2.05 1.83-2.05.4 0 .76.08 1.1.17l.15-.87c-.33-.11-.7-.18-1.11-.18zm0 0"/></symbol><symbol overflow="visible" id="d8ed71c2u"><path d="M3.42.14c1.61 0 2.56-.75 2.56-2 0-1.1-.67-1.6-1.95-1.86l-.97-.2c-.87-.17-1.23-.49-1.23-1.11 0-.7.54-1.11 1.5-1.11 1.06 0 1.51.34 1.69 1.23l.9-.09c-.17-1.28-.98-1.9-2.6-1.9C1.79-6.9.9-6.18.9-4.98c0 1.06.66 1.66 1.88 1.9l1.01.2c.85.17 1.25.4 1.25 1.09 0 .73-.6 1.16-1.6 1.16-1.07 0-1.66-.4-1.8-1.24l-.94.1C.83-.53 1.75.13 3.42.13zm0 0"/></symbol><symbol overflow="visible" id="d8ed71c2v"><path d="M3.33.14c1.62 0 2.5-.95 2.5-2.66 0-1.68-.88-2.64-2.5-2.64-1.63 0-2.5.96-2.5 2.64 0 1.7.87 2.66 2.5 2.66zm0-.77c-1.06 0-1.52-.6-1.52-1.89 0-1.28.46-1.87 1.52-1.87 1.08 0 1.53.6 1.53 1.87 0 1.29-.45 1.9-1.53 1.9zm0 0"/></symbol><symbol overflow="visible" id="d8ed71c2w"><path d="M4.63-6.5c.45 0 .98.08 1.39.2l.2-.72a5.3 5.3 0 00-1.64-.26c-1.52 0-2.16.56-2.16 1.87v.4H.9v.76h1.53V0h.94v-4.25h2.53v-.77H3.36v-.3c0-.84.33-1.18 1.27-1.18zm0 0"/></symbol><symbol overflow="visible" id="d8ed71c2x"><path d="M3.38-5.9c.12-.5.42-1.04.67-1.41l-.63-.22a4.28 4.28 0 00-1.01 2.39c0 .66.3 1 .9 1 .6 0 .9-.33.9-.9 0-.57-.32-.83-.83-.85zm0 0"/></symbol><symbol overflow="visible" id="d8ed71c2y"><path d="M3.3-7.53c-.55 0-.85.3-.85.84 0 .55.36.8.83.8h.03a5.1 5.1 0 01-.69 1.47l.52.23a4.29 4.29 0 001.02-2.4c0-.63-.33-.94-.86-.94zm0 0"/></symbol><symbol overflow="visible" id="d8ed71c2z"><path d="M2.84.14C3.8.14 4.33-.26 4.6-.9h.07L4.8 0h.76v-7.14h-.95v2.95h-.08c-.28-.6-.86-.97-1.67-.97-1.48 0-2.27.99-2.27 2.64C.6-.84 1.36.14 2.84.14zm.22-.8c-.98 0-1.48-.59-1.48-1.84s.5-1.86 1.48-1.86c1.13 0 1.58.8 1.58 1.86S4.2-.66 3.06-.66zm0 0"/></symbol><symbol overflow="visible" id="d8ed71c2A"><path d="M3.36.16c1.4 0 2.2-.6 2.2-1.57 0-.89-.54-1.22-1.47-1.39L3-3c-.67-.14-.86-.33-.86-.73 0-.5.4-.74 1.17-.74.83 0 1.19.27 1.27.8l.9-.05c-.12-1-.8-1.47-2.17-1.47-1.34 0-2.1.53-2.1 1.5 0 .81.45 1.22 1.52 1.44l1.04.2c.56.11.87.24.87.72 0 .52-.45.78-1.28.78-.95 0-1.36-.28-1.42-.87l-.9.06C1.07-.36 1.8.16 3.35.16zm0 0"/></symbol><symbol overflow="visible" id="d8ed71c2B"><path d="M1.45-2.95c0 2.56 1.08 4.37 3.67 4.84l.11-.67C3.28.86 2.43-.75 2.43-2.95s.85-3.82 2.8-4.16l-.1-.69c-2.6.49-3.68 2.3-3.68 4.85zm0 0"/></symbol><symbol overflow="visible" id="d8ed71c2C"><path d="M4.22-6.77h-.86l-2.03.7v.87c.64-.17 1.26-.38 1.89-.55v4.9H1.03V0h4.9v-.86H4.21zm0 0"/></symbol><symbol overflow="visible" id="d8ed71c2D"><path d="M3.42.14c1.58 0 2.49-.86 2.49-2.3 0-1.42-.86-2.17-2.22-2.17-1.03 0-1.58.5-1.9 1.02h-.04c.03-1.63.4-2.77 1.73-2.77.91 0 1.24.44 1.36.96l.97-.11c-.23-.96-.86-1.68-2.33-1.68C1.84-6.9.86-5.86.86-3.1.86-.9 1.78.14 3.42.14zm.02-.78c-.9 0-1.47-.55-1.47-1.47 0-.9.7-1.47 1.53-1.47.92 0 1.47.52 1.47 1.47 0 .97-.6 1.47-1.53 1.47zm0 0"/></symbol><symbol overflow="visible" id="d8ed71c2E"><path d="M1.45-7.1c1.96.33 2.8 1.94 2.8 4.15 0 2.2-.84 3.8-2.8 4.17l.11.67c2.58-.47 3.67-2.28 3.67-4.84 0-2.55-1.09-4.36-3.67-4.85zm0 0"/></symbol></defs><use xlink:href="#d8ed71c2a" x="153.1678" y="160.5" fill="#515151"/><use xlink:href="#d8ed71c2b" x="201.7685" y="160.5" fill="#fff"/><use xlink:href="#d8ed71c2c" x="245.7915" y="160.5" fill="#515151"/><use xlink:href="#d8ed71c2b" x="266.8111" y="160.5" fill="#fff"/><g fill="#515151"><use xlink:href="#d8ed71c2d" x="310.8341" y="160.5"/><use xlink:href="#d8ed71c2e" x="358.7085" y="160.5"/></g><use xlink:href="#d8ed71c2f" x="402.3599" y="160.5" fill="#515151"/><g fill="#fff"><use xlink:href="#d8ed71c2g" x="256.6667" y="252"/><use xlink:href="#d8ed71c2h" x="263.3337" y="252"/><use xlink:href="#d8ed71c2i" x="270.0007" y="252"/><use xlink:href="#d8ed71c2j" x="276.6677" y="252"/><use xlink:href="#d8ed71c2k" x="283.3347" y="252"/><use xlink:href="#d8ed71c2l" x="290.0017" y="252"/><use xlink:href="#d8ed71c2m" x="296.6687" y="252"/><use xlink:href="#d8ed71c2n" x="303.3357" y="252"/><use xlink:href="#d8ed71c2o" x="310.0027" y="252"/><use xlink:href="#d8ed71c2n" x="316.6697" y="252"/><use xlink:href="#d8ed71c2p" x="323.3367" y="252"/><use xlink:href="#d8ed71c2q" x="330.0037" y="252"/><use xlink:href="#d8ed71c2h" x="336.6707" y="252"/></g><g fill="#fff"><use xlink:href="#d8ed71c2r" x="146.6667" y="266"/><use xlink:href="#d8ed71c2h" x="153.3337" y="266"/><use xlink:href="#d8ed71c2n" x="160.0007" y="266"/><use xlink:href="#d8ed71c2j" x="166.6677" y="266"/><use xlink:href="#d8ed71c2s" x="173.3347" y="266"/><use xlink:href="#d8ed71c2t" x="180.0017" y="266"/><use xlink:href="#d8ed71c2h" x="186.6687" y="266"/><use xlink:href="#d8ed71c2k" x="193.3357" y="266"/><use xlink:href="#d8ed71c2l" x="200.0027" y="266"/><use xlink:href="#d8ed71c2u" x="206.6697" y="266"/><use xlink:href="#d8ed71c2v" x="213.3367" y="266"/><use xlink:href="#d8ed71c2w" x="220.0037" y="266"/><use xlink:href="#d8ed71c2j" x="226.6707" y="266"/><use xlink:href="#d8ed71c2h" x="233.3377" y="266"/><use xlink:href="#d8ed71c2t" x="240.0047" y="266"/><use xlink:href="#d8ed71c2l" x="246.6717" y="266"/><use xlink:href="#d8ed71c2x" x="253.3387" y="266"/><use xlink:href="#d8ed71c2n" x="260.0057" y="266"/><use xlink:href="#d8ed71c2y" x="266.6727" y="266"/><use xlink:href="#d8ed71c2l" x="273.3397" y="266"/><use xlink:href="#d8ed71c2n" x="280.0067" y="266"/><use xlink:href="#d8ed71c2p" x="286.6737" y="266"/><use xlink:href="#d8ed71c2z" x="293.3407" y="266"/><use xlink:href="#d8ed71c2l" x="300.0077" y="266"/><use xlink:href="#d8ed71c2t" x="306.6747" y="266"/><use xlink:href="#d8ed71c2h" x="313.3417" y="266"/><use xlink:href="#d8ed71c2o" x="320.0087" y="266"/><use xlink:href="#d8ed71c2n" x="326.6757" y="266"/><use xlink:href="#d8ed71c2j" x="333.3427" y="266"/><use xlink:href="#d8ed71c2h" x="340.0097" y="266"/><use xlink:href="#d8ed71c2z" x="346.6767" y="266"/><use xlink:href="#d8ed71c2l" x="353.3437" y="266"/><use xlink:href="#d8ed71c2o" x="360.0107" y="266"/><use xlink:href="#d8ed71c2h" x="366.6777" y="266"/><use xlink:href="#d8ed71c2j" x="373.3447" y="266"/><use xlink:href="#d8ed71c2j" x="380.0117" y="266"/><use xlink:href="#d8ed71c2h" x="386.6787" y="266"/><use xlink:href="#d8ed71c2t" x="393.3457" y="266"/><use xlink:href="#d8ed71c2A" x="400.0127" y="266"/><use xlink:href="#d8ed71c2l" x="406.6797" y="266"/><use xlink:href="#d8ed71c2B" x="413.3467" y="266"/><use xlink:href="#d8ed71c2A" x="420.0137" y="266"/><use xlink:href="#d8ed71c2A" x="426.6807" y="266"/><use xlink:href="#d8ed71c2C" x="433.3477" y="266"/><use xlink:href="#d8ed71c2D" x="440.0147" y="266"/><use xlink:href="#d8ed71c2E" x="446.6817" y="266"/></g></svg>