<?xml version='1.0' encoding='UTF-8'?>
<svg xmlns="http://www.w3.org/2000/svg" xmlns:xlink="http://www.w3.org/1999/xlink" width="600px" height="300px" viewBox="0 0 600 300" x="0px" y="0px" enable-background="new 0 0 600 300"><defs><symbol overflow="visible" id="cfaf9cb8a"><path d="M29.83 1.14c13.51 0 21.44-6.56 23.31-18.23l-6.72-.54c-1.9 8.93-6.78 12.86-16.6 12.86-12 0-18.34-8.09-18.34-22.3 0-14.24 6.33-22.34 18.32-22.34 9.68 0 14.5 4.05 16.54 12.78l6.7-.5C51.07-48.83 43.1-55.3 29.8-55.3 14-55.31 4.55-44.75 4.55-27.08c0 17.66 9.42 28.22 25.28 28.22zm0 0"/></symbol><symbol overflow="visible" id="cfaf9cb8b"><path d="M46.13-48.33v-5.84H8.42V0h37.7v-5.84H15.18v-18.77h25.97v-5.56H15.19v-18.16zm0 0"/></symbol><symbol overflow="visible" id="cfaf9cb8c"><path d="M15.19-5.84v-48.33H8.44V0h32.92v-5.84zm0 0"/></symbol><symbol overflow="visible" id="cfaf9cb8d"><path d="M-9.27-25.72c2.47 0 4.35-1.36 4.35-4.34 0-2.94-1.88-4.32-4.35-4.32-2.56 0-4.36 1.38-4.36 4.32 0 2.98 1.8 4.34 4.36 4.34zm0 0"/></symbol><symbol overflow="visible" id="cfaf9cb8e"><path d="M45.1 0h7.09L31.44-54.17H22.8L1.88 0h7.01l4.58-12.2h27.08zM15.44-17.66L26.9-48.19h.34l11.33 30.53zm0 0"/></symbol><symbol overflow="visible" id="cfaf9cb8g"><path d="M22.7 1.14c10.64 0 16.07-4.92 17.16-13.6l-6.48-.59c-.88 5.72-4.04 8.58-10.6 8.58-8.06 0-12.06-5.45-12.06-15.64 0-10.22 3.94-15.56 11.98-15.56 6.49 0 9.85 2.98 10.64 8.7l6.52-.53c-1.06-8.78-6.9-13.81-17.16-13.81-11.75 0-18.62 7.89-18.62 21.2 0 13.44 6.9 21.25 18.62 21.25zm0 0"/></symbol><symbol overflow="visible" id="cfaf9cb8h"><path d="M40.52-18.05v-3.65c0-12.6-6.75-19.66-17.97-19.66-11.18 0-18.47 7.48-18.47 21.4 0 13.37 6.8 21.1 19 21.1 10.19 0 15-4.69 16.7-11.33l-6.4-.6C32.08-7.07 29.27-4.43 23-4.43c-7.52 0-11.78-4.5-12.28-13.63zM22.55-35.94c7.32 0 11.22 4.28 11.56 12.9H10.8c.72-8.82 4.8-12.9 11.75-12.9zm0 0"/></symbol><symbol overflow="visible" id="cfaf9cb8i"><path d="M7.28 0h6.49v-57.22H7.28zm0 0"/></symbol><symbol overflow="visible" id="cfaf9cb8j"><path d="M2.67-24.6c2.33 0 4.16-1.38 4.16-4.2 0-2.82-1.83-4.12-4.16-4.12-2.4 0-4.15 1.3-4.15 4.12 0 2.82 1.75 4.2 4.15 4.2zm0 0"/></symbol><symbol overflow="visible" id="cfaf9cb8k"><path d="M17.52 1.1c6.75 0 11.28-2.82 13.5-7.4h.37l.69 6.3h5.42v-27.31c0-9.66-5.42-14.05-15.8-14.05-10.56 0-15.1 4.78-16.25 12.4l6.4.59c.82-4.82 3.37-7.65 9.78-7.65 6.56 0 9.57 2.72 9.57 9v2.8l-13.54 1.75C7.96-21.25 3.8-17.66 3.8-10.37c0 7.2 4.77 11.48 13.7 11.48zm1.3-5.3c-5.88 0-8.4-2.47-8.4-6.6 0-3.8 2.17-6.03 7.74-6.8l13.04-1.82v3.86C31.2-9 26.52-4.2 18.81-4.2zm0 0"/></symbol><symbol overflow="visible" id="cfaf9cb8l"><path d="M3.83 0v-5.95H6.2v-.82H.45v.82h2.4V0zm0 0"/></symbol><symbol overflow="visible" id="cfaf9cb8m"><path d="M5.75-2.23v-.43c0-1.6-.9-2.51-2.42-2.51S.87-4.16.87-2.48c0 1.71.91 2.62 2.5 2.62 1.43 0 2.07-.56 2.29-1.52l-.9-.09c-.18.61-.59.9-1.35.9-.94 0-1.52-.54-1.58-1.66zm-2.4-2.2c.93 0 1.43.5 1.48 1.55H1.84c.08-1.07.6-1.56 1.5-1.56zm0 0"/></symbol><symbol overflow="visible" id="cfaf9cb8n"><path d="M1.83 0l1.42-2h.06l1.46 2H5.8L4-2.53l1.78-2.49H4.8L3.42-3.08h-.08l-1.4-1.94H.89l1.78 2.49L.84 0zm0 0"/></symbol><symbol overflow="visible" id="cfaf9cb8o"><path d="M5.52-4.25v-.77H3.17v-1.56h-.81l-.14 1.56H.75v.77h1.47v2.4c0 1.3.48 1.94 1.84 1.94C4.6.1 5.14 0 5.55-.14L5.4-.91c-.32.13-.72.2-1.13.2-.8 0-1.1-.37-1.1-1.23v-2.31zm0 0"/></symbol><symbol overflow="visible" id="cfaf9cb8p"><path d="M3.33-3.42c.47 0 .8-.27.8-.8 0-.51-.33-.8-.8-.8-.47 0-.8.29-.8.8 0 .53.33.8.8.8zm0 3.5c.47 0 .8-.27.8-.78 0-.53-.33-.82-.8-.82-.47 0-.8.29-.8.82 0 .51.33.78.8.78zm0 0"/></symbol><symbol overflow="visible" id="cfaf9cb8r"><path d="M3.42.14C5.1.14 5.9-.69 6.11-2.17l-.95-.1C4.96-1.19 4.5-.69 3.44-.69c-1.27 0-1.81-.94-1.81-2.69s.54-2.7 1.8-2.7c1.09 0 1.5.49 1.73 1.58l.93-.1c-.21-1.46-.95-2.3-2.62-2.3C1.53-6.9.62-5.6.62-3.38c0 2.2.91 3.51 2.8 3.51zm0 0"/></symbol><symbol overflow="visible" id="cfaf9cb8s"><path d="M5.92-6.77H1.1V0h4.83v-.8H2.06v-2.26h3.22v-.75H2.06v-2.16h3.86zm0 0"/></symbol><symbol overflow="visible" id="cfaf9cb8t"><path d="M2.08-6.77h-.99V0h4.79v-.81h-3.8zm0 0"/></symbol><symbol overflow="visible" id="cfaf9cb8u"><path d="M3.33-1.98c.51 0 .83-.27.83-.8 0-.56-.32-.83-.83-.83-.52 0-.81.27-.81.83 0 .53.3.8.8.8zm0 0"/></symbol><symbol overflow="visible" id="cfaf9cb8v"><path d="M6.17 0L3.98-6.77h-1.3L.5 0h.97l.44-1.47h2.78L5.16 0zM3.28-5.94h.08l1.1 3.74H2.15zm0 0"/></symbol><symbol overflow="visible" id="cfaf9cb8w"><path d="M3.34.14c1.43 0 2.13-.66 2.25-1.78l-.89-.1c-.1.7-.5 1.08-1.34 1.08-1.03 0-1.52-.64-1.52-1.84 0-1.23.47-1.86 1.52-1.86.84 0 1.23.36 1.34 1.08l.9-.1c-.13-1.09-.82-1.78-2.26-1.78-1.56 0-2.46.97-2.46 2.66 0 1.66.9 2.64 2.46 2.64zm0 0"/></symbol><symbol overflow="visible" id="cfaf9cb8x"><path d="M3.92-7.14H1.36v.76h1.6v5.61H1.15V0H5.7v-.77H3.92zm0 0"/></symbol><symbol overflow="visible" id="cfaf9cb8y"><path d="M2.83.14c.94 0 1.5-.39 1.81-.95h.08l.1.81h.76v-3.38c0-1.23-.69-1.8-2.13-1.8-1.43 0-2.03.65-2.18 1.6l.93.1c.11-.6.44-.93 1.22-.93.85 0 1.22.32 1.22 1.04v.34l-1.81.2C1.6-2.7 1.1-2.17 1.1-1.28c0 .92.64 1.42 1.72 1.42zm.25-.77c-.67 0-1.02-.28-1.02-.74 0-.44.28-.72 1-.82l1.58-.19v.41c0 .8-.6 1.34-1.56 1.34zm0 0"/></symbol><symbol overflow="visible" id="cfaf9cb8z"><path d="M5.95-6.77H1.1V0h.99v-2.92H5.3v-.77H2.08v-2.26h3.87zm0 0"/></symbol><symbol overflow="visible" id="cfaf9cb8A"><path d="M2.73.14c.9 0 1.43-.45 1.74-1.08h.06l.13.94h.8v-5.02h-.94v2.7c0 .98-.57 1.62-1.46 1.62-.75 0-1.1-.4-1.1-1.22v-3.1h-.93v3.32c0 1.17.55 1.84 1.7 1.84zm0 0"/></symbol><symbol overflow="visible" id="cfaf9cb8B"><path d="M5.08-5.16c-.94 0-1.58.43-1.9 1.3h-.09l-.07-1.16H1.05v.77h1.1v3.48H.96V0h3.96v-.77H3.1v-1.46c0-1.36.6-2.05 1.83-2.05.4 0 .76.08 1.1.17l.15-.87c-.33-.11-.7-.18-1.11-.18zm0 0"/></symbol><symbol overflow="visible" id="cfaf9cb8C"><path d="M2.16 0v-2.67c0-.99.59-1.63 1.46-1.63.74 0 1.07.38 1.07 1.22V0h.95v-3.31c0-1.2-.56-1.85-1.67-1.85-.92 0-1.49.46-1.77 1.08h-.06l-.12-.94H1.2V0zm0 0"/></symbol><symbol overflow="visible" id="cfaf9cb8D"><path d="M1.45-2.95c0 2.56 1.08 4.37 3.67 4.84l.11-.67C3.28.86 2.43-.75 2.43-2.95s.85-3.82 2.8-4.16l-.1-.69c-2.6.49-3.68 2.3-3.68 4.85zm0 0"/></symbol><symbol overflow="visible" id="cfaf9cb8E"><path d="M3.36.16c1.4 0 2.2-.6 2.2-1.57 0-.89-.54-1.22-1.47-1.39L3-3c-.67-.14-.86-.33-.86-.73 0-.5.4-.74 1.17-.74.83 0 1.19.27 1.27.8l.9-.05c-.12-1-.8-1.47-2.17-1.47-1.34 0-2.1.53-2.1 1.5 0 .81.45 1.22 1.52 1.44l1.04.2c.56.11.87.24.87.72 0 .52-.45.78-1.28.78-.95 0-1.36-.28-1.42-.87l-.9.06C1.07-.36 1.8.16 3.35.16zm0 0"/></symbol><symbol overflow="visible" id="cfaf9cb8F"><path d="M3.16 2.03c1.67 0 2.4-.86 2.4-2.51v-4.54h-.81l-.13.91h-.06c-.26-.58-.8-1.05-1.73-1.05-1.42 0-2.24 1-2.24 2.52 0 1.6.75 2.56 2.2 2.56.94 0 1.5-.5 1.77-1.03h.05v.72c0 1.17-.42 1.67-1.45 1.67-.93 0-1.3-.34-1.41-.89L.8.5c.12.96.87 1.54 2.36 1.54zM3.06-.8c-.98 0-1.48-.57-1.48-1.82 0-1.13.5-1.75 1.48-1.75 1.06 0 1.58.76 1.58 1.75 0 .95-.56 1.82-1.58 1.82zm0 0"/></symbol><symbol overflow="visible" id="cfaf9cb8G"><path d="M1.45-7.1c1.96.33 2.8 1.94 2.8 4.15 0 2.2-.84 3.8-2.8 4.17l.11.67c2.58-.47 3.67-2.28 3.67-4.84 0-2.55-1.09-4.36-3.67-4.85zm0 0"/></symbol></defs><g fill="#515151"><use xlink:href="#cfaf9cb8a" x="75.47907" y="160.5"/><use xlink:href="#cfaf9cb8b" x="132.55137" y="160.5"/></g><use xlink:href="#cfaf9cb8c" x="183.0569" y="160.5" fill="#fff"/><use xlink:href="#cfaf9cb8d" x="225.8209" y="160.5" fill="#fff"/><use xlink:href="#cfaf9cb8c" x="225.8209" y="160.5" fill="#fff"/><g fill="#515151"><use xlink:href="#cfaf9cb8e" x="270.0346" y="160.5"/><use xlink:href="#cfaf9cb8f" x="324.089" y="160.5"/><use xlink:href="#cfaf9cb8g" x="344.9774" y="160.5"/></g><use xlink:href="#cfaf9cb8h" x="388.6288" y="160.5" fill="#515151"/><use xlink:href="#cfaf9cb8i" x="433.0798" y="160.5" fill="#fff"/><use xlink:href="#cfaf9cb8j" x="454.0994" y="160.5" fill="#fff"/><use xlink:href="#cfaf9cb8i" x="459.4783" y="160.5" fill="#fff"/><use xlink:href="#cfaf9cb8k" x="480.498" y="160.5" fill="#515151"/><g fill="#fff"><use xlink:href="#cfaf9cb8l" x="236.6667" y="252"/><use xlink:href="#cfaf9cb8m" x="243.3337" y="252"/><use xlink:href="#cfaf9cb8n" x="250.0007" y="252"/><use xlink:href="#cfaf9cb8o" x="256.6677" y="252"/><use xlink:href="#cfaf9cb8p" x="263.3347" y="252"/><use xlink:href="#cfaf9cb8q" x="270.0017" y="252"/><use xlink:href="#cfaf9cb8r" x="276.6687" y="252"/><use xlink:href="#cfaf9cb8s" x="283.3357" y="252"/><use xlink:href="#cfaf9cb8t" x="290.0027" y="252"/><use xlink:href="#cfaf9cb8u" x="296.6697" y="252"/><use xlink:href="#cfaf9cb8t" x="303.3367" y="252"/><use xlink:href="#cfaf9cb8v" x="310.0037" y="252"/><use xlink:href="#cfaf9cb8q" x="316.6707" y="252"/><use xlink:href="#cfaf9cb8w" x="323.3377" y="252"/><use xlink:href="#cfaf9cb8m" x="330.0047" y="252"/><use xlink:href="#cfaf9cb8x" x="336.6717" y="252"/><use xlink:href="#cfaf9cb8u" x="343.3387" y="252"/><use xlink:href="#cfaf9cb8x" x="350.0057" y="252"/><use xlink:href="#cfaf9cb8y" x="356.6727" y="252"/></g><g fill="#fff"><use xlink:href="#cfaf9cb8z" x="196.6667" y="266"/><use xlink:href="#cfaf9cb8m" x="203.3337" y="266"/><use xlink:href="#cfaf9cb8y" x="210.0007" y="266"/><use xlink:href="#cfaf9cb8o" x="216.6677" y="266"/><use xlink:href="#cfaf9cb8A" x="223.3347" y="266"/><use xlink:href="#cfaf9cb8B" x="230.0017" y="266"/><use xlink:href="#cfaf9cb8m" x="236.6687" y="266"/><use xlink:href="#cfaf9cb8p" x="243.3357" y="266"/><use xlink:href="#cfaf9cb8q" x="250.0027" y="266"/><use xlink:href="#cfaf9cb8r" x="256.6697" y="266"/><use xlink:href="#cfaf9cb8y" x="263.3367" y="266"/><use xlink:href="#cfaf9cb8o" x="270.0037" y="266"/><use xlink:href="#cfaf9cb8y" x="276.6707" y="266"/><use xlink:href="#cfaf9cb8x" x="283.3377" y="266"/><use xlink:href="#cfaf9cb8y" x="290.0047" y="266"/><use xlink:href="#cfaf9cb8C" x="296.6717" y="266"/><use xlink:href="#cfaf9cb8q" x="303.3387" y="266"/><use xlink:href="#cfaf9cb8D" x="310.0057" y="266"/><use xlink:href="#cfaf9cb8E" x="316.6727" y="266"/><use xlink:href="#cfaf9cb8m" x="323.3397" y="266"/><use xlink:href="#cfaf9cb8o" x="330.0067" y="266"/><use xlink:href="#cfaf9cb8q" x="336.6737" y="266"/><use xlink:href="#cfaf9cb8x" x="343.3407" y="266"/><use xlink:href="#cfaf9cb8y" x="350.0077" y="266"/><use xlink:href="#cfaf9cb8C" x="356.6747" y="266"/><use xlink:href="#cfaf9cb8F" x="363.3417" y="266"/><use xlink:href="#cfaf9cb8A" x="370.0087" y="266"/><use xlink:href="#cfaf9cb8y" x="376.6757" y="266"/><use xlink:href="#cfaf9cb8F" x="383.3427" y="266"/><use xlink:href="#cfaf9cb8m" x="390.0097" y="266"/><use xlink:href="#cfaf9cb8G" x="396.6767" y="266"/></g></svg>