<?xml version='1.0' encoding='UTF-8'?>
<svg xmlns="http://www.w3.org/2000/svg" xmlns:xlink="http://www.w3.org/1999/xlink" width="310px" height="280px" viewBox="0 0 310 280" x="0px" y="0px" enable-background="new 0 0 310 280"><defs><symbol overflow="visible" id="ef4e79cea"><path d="M2.56 12.16c7.66 0 11.8-5.44 12.9-13.07 1.32.68 2.95.91 4.13.91h.4v-7.94h-.41c-2.55 0-3.8-.36-4.28-4.01a70.22 70.22 0 00-1.64-8.47H7.08c1.64 6.94 2.6 11.69 2.6 15.44 0 4.3-1.38 9.26-8.9 9.8-.98.16-2.12.24-3.37.26v6.44c1.8.4 3.54.64 5.15.64zm0 0"/></symbol><symbol overflow="visible" id="ef4e79ceb"><path d="M6.05-25l2.53-3.36 4.4 3.36L16-28.98l-4.7-3.55-2.52 3.36-4.4-3.36-3 3.98zM0 0h1.6c3.48 0 6.42-.52 8.03-2.48C11.13-.7 13.72 0 16 0h.98v-7.94h-.39c-1.6 0-2.54-.33-3.09-1.14-.52-.78-.64-1.97-.64-3.7v-7.64H6.92v7.72c0 1.86-.19 3.1-1.06 3.84-.75.67-2.05.92-4.22.92H0c-2.78 0-3.77 1.33-3.77 4.16C-3.77-.98-2.55 0 0 0zm0 0"/></symbol><symbol overflow="visible" id="ef4e79cec"><path d="M0 0h2.25c6.8 0 10.6-3.19 11.33-9.4.1-.74.15-1.54.15-2.4 0-3.06-.6-7.04-1.73-11.1H5.14c1.55 4.96 2.3 8.48 2.3 11 0 .6-.08 1.12-.17 1.59-.46 1.78-1.8 2.37-4.52 2.37H0c-2.78 0-3.77 1.33-3.77 4.16C-3.77-.98-2.55 0 0 0zm6.33 13.36l3.23-4.34-5.08-3.83-3.23 4.33zm0 0"/></symbol><symbol overflow="visible" id="ef4e79ced"><path d="M3.27 0h6.65v-38.38H3.27zm0 0"/></symbol><symbol overflow="visible" id="ef4e79cee"><path d="M13.06 0h2.27c6.76 0 9.95-4.14 9.89-9.56 0-1.22-.17-2.5-.45-3.85-.94-3.96-3.18-8.53-6.7-13.71l-5.8 3.89c3.78 5.5 5.54 8.71 6.3 10.8.34.91.43 1.59.43 2.16 0 1.93-1.58 2.33-4.3 2.33h-1.4c-3.82 0-4.57-.36-4.57-3.15v-1.54H2.87v3C2.88-2.9 6.38 0 13.07 0zm0 0"/></symbol><symbol overflow="visible" id="ef4e79cef"><path d="M.58-44.33l12.04-.98v-3.74l-3.42.25a3.44 3.44 0 01-2-.3 1.68 1.68 0 01-1.14-1.63c0-1.25 1.1-1.9 2.83-1.9.58 0 1.17.08 1.8.2v-3.65a8.8 8.8 0 00-2.2-.31c-3.66 0-5.97 2.48-5.97 5.67 0 .84.18 1.67.48 2.47l-2.42.19zM3.27 0h6.65v-38.38H3.27zm0 0"/></symbol><symbol overflow="visible" id="ef4e79ceg"><path d="M7.4 0L4.79-8.1H3.23L.6 0h1.18l.51-1.77h3.35L6.19 0zM3.95-7.13h.1l1.32 4.47h-2.8zm0 0"/></symbol><symbol overflow="visible" id="ef4e79ceh"><path d="M3.42.17c1.13 0 1.77-.5 2.1-1.26h.07L5.75 0h.92v-8.58H5.53v3.56h-.08c-.34-.75-1.04-1.17-2.01-1.17C1.64-6.19.72-5 .72-3.02c0 2 .92 3.2 2.7 3.2zm.27-.95c-1.2 0-1.8-.74-1.8-2.22 0-1.52.6-2.23 1.78-2.23 1.35 0 1.9.95 1.9 2.23 0 1.27-.55 2.22-1.88 2.22zm0 0"/></symbol><symbol overflow="visible" id="ef4e79cei"><path d="M3.4.17C4.51.17 5.2-.3 5.57-.97h.08l.12.97h.9v-4.05c0-1.48-.82-2.15-2.54-2.15-1.73 0-2.44.75-2.6 1.9l1.1.11c.13-.7.52-1.1 1.47-1.1 1.01 0 1.47.37 1.47 1.23v.42l-2.17.23c-1.49.18-2.08.82-2.08 1.86 0 1.13.76 1.72 2.06 1.72zm.29-.92c-.81 0-1.2-.33-1.2-.9 0-.52.32-.87 1.2-.96l1.89-.23v.48c0 .95-.75 1.61-1.9 1.61zm0 0"/></symbol><symbol overflow="visible" id="ef4e79cej"><path d="M2.47 2.27V-1h.06c.35.69.95 1.17 2.13 1.17 1.8 0 2.62-1.19 2.62-3.19 0-1.98-.83-3.17-2.6-3.17-1.18 0-1.8.53-2.15 1.27h-.08l-.15-1.1h-.97v8.29zm1.8-3.05C3-.78 2.44-1.75 2.44-3.02c0-1.26.56-2.21 1.83-2.21 1.34 0 1.84.71 1.84 2.21S5.6-.78 4.27-.78zm0 0"/></symbol><symbol overflow="visible" id="ef4e79cek"><path d="M6.63-5.1v-.92H3.8v-1.87h-.98l-.17 1.87H.9v.91h1.75v2.88c0 1.57.57 2.35 2.21 2.35.65 0 1.29-.12 1.79-.3l-.18-.9a3.9 3.9 0 01-1.34.22c-.97 0-1.33-.44-1.33-1.47V-5.1zm0 0"/></symbol><symbol overflow="visible" id="ef4e79cel"><path d="M6.9-2.69v-.5C6.9-5.13 5.82-6.2 4-6.2 2.17-6.2 1.06-5 1.06-2.98c0 2.06 1.08 3.15 3 3.15C5.75.17 6.52-.5 6.8-1.64l-1.08-.13c-.24.75-.7 1.07-1.64 1.07-1.11 0-1.81-.64-1.88-1.99zM4-5.33c1.14 0 1.75.61 1.8 1.88H2.22c.1-1.28.7-1.88 1.78-1.88zm0 0"/></symbol><symbol overflow="visible" id="ef4e79cem"><path d="M6.1-6.19c-1.12 0-1.9.52-2.3 1.57h-.08l-.11-1.4H1.27v.91h1.32v4.19H1.14V0H5.9v-.92H3.73v-1.75c0-1.64.7-2.46 2.2-2.46.48 0 .91.08 1.32.2l.17-1.05c-.39-.13-.83-.2-1.33-.2zm0 0"/></symbol><symbol overflow="visible" id="ef4e79ceo"><path d="M4.69.17c1.76 0 2.6-1.19 2.6-3.17 0-2-.84-3.19-2.6-3.19-1.1 0-1.8.49-2.14 1.2h-.08v-3.59H1.33V0h.97l.15-1.1h.07c.34.77.96 1.27 2.17 1.27zm-.4-.95C3-.78 2.45-1.75 2.45-3c0-1.28.56-2.23 1.86-2.23S6.1-4.52 6.1-3c0 1.48-.52 2.22-1.8 2.22zm0 0"/></symbol><symbol overflow="visible" id="ef4e79cep"><path d="M4.3-6.97c.5 0 .86-.28.86-.81S4.8-8.6 4.3-8.6c-.53 0-.86.28-.86.8 0 .54.33.82.86.82zm.6.95H1.82v.91h1.92v4.19H1.56V0h5.38v-.92H4.89zm0 0"/></symbol><symbol overflow="visible" id="ef4e79ceq"><path d="M4.02.17c1.7 0 2.56-.78 2.7-2.12l-1.08-.13c-.12.85-.6 1.3-1.6 1.3C2.79-.78 2.2-1.55 2.2-3c0-1.48.58-2.23 1.85-2.23 1 0 1.47.42 1.6 1.3l1.07-.12c-.16-1.33-.99-2.14-2.7-2.14-1.88 0-2.97 1.17-2.97 3.19 0 2 1.1 3.17 2.97 3.17zm0 0"/></symbol><symbol overflow="visible" id="ef4e79cer"><path d="M1.1-8.1V0h2.54c2.44 0 3.63-1.25 3.63-4.05 0-2.84-1.2-4.06-3.52-4.06zM2.29-.96v-6.2H3.7c1.55 0 2.36.74 2.36 3.1 0 2.35-.81 3.1-2.36 3.1zm0 0"/></symbol><symbol overflow="visible" id="ef4e79ces"><path d="M4.02.19c1.7 0 2.65-.72 2.65-1.88 0-1.06-.65-1.45-1.76-1.67L3.6-3.6c-.81-.16-1.03-.37-1.03-.87 0-.6.45-.88 1.4-.88 1 0 1.43.31 1.52.95l1.1-.06c-.16-1.2-.97-1.75-2.63-1.75-1.61 0-2.5.63-2.5 1.8 0 .97.53 1.47 1.81 1.72l1.25.23c.67.14 1.03.3 1.03.88 0 .62-.53.93-1.53.93-1.16 0-1.62-.32-1.7-1.04l-1.1.07C1.3-.43 2.17.2 4.02.2zm0 0"/></symbol><symbol overflow="visible" id="ef4e79cet"><path d="M4.7-8.58H1.64v.92h1.92v6.74h-2.2V0h5.47v-.92H4.7zm0 0"/></symbol><symbol overflow="visible" id="ef4e79ceu"><path d="M4.1-1.03h-.08L2.1-6.02H.95L3.28 0h.49c-.4 1.14-.86 1.52-1.74 1.52-.26 0-.58-.04-.84-.1l-.11.9c.25.06.7.12 1.04.12 1.46 0 2.05-.85 2.66-2.44L7.1-6.02H6zm0 0"/></symbol></defs><use xlink:href="#ef4e79cea" x="100.9574" y="145"/><use xlink:href="#ef4e79ceb" x="120.9494" y="145"/><use xlink:href="#ef4e79cec" x="137.9314" y="145"/><use xlink:href="#ef4e79ced" x="154.5634" y="145"/><use xlink:href="#ef4e79cee" x="167.7654" y="145"/><g><use xlink:href="#ef4e79cef" x="195.8774" y="145"/></g><g fill-opacity=".33"><use xlink:href="#ef4e79ceg" x="67" y="230"/><use xlink:href="#ef4e79ceh" x="75.0004" y="230"/><use xlink:href="#ef4e79cei" x="83.0008" y="230"/><use xlink:href="#ef4e79cej" x="91.0012" y="230"/><use xlink:href="#ef4e79cek" x="99.0016" y="230"/><use xlink:href="#ef4e79cel" x="107.002" y="230"/><use xlink:href="#ef4e79cem" x="115.0024" y="230"/><use xlink:href="#ef4e79cen" x="123.0028" y="230"/><use xlink:href="#ef4e79ceg" x="131.0032" y="230"/><use xlink:href="#ef4e79cem" x="139.0036" y="230"/><use xlink:href="#ef4e79cei" x="147.004" y="230"/><use xlink:href="#ef4e79ceo" x="155.0044" y="230"/><use xlink:href="#ef4e79cep" x="163.0048" y="230"/><use xlink:href="#ef4e79ceq" x="171.0052" y="230"/><use xlink:href="#ef4e79cen" x="179.0056" y="230"/><use xlink:href="#ef4e79cer" x="187.006" y="230"/><use xlink:href="#ef4e79cep" x="195.0064" y="230"/><use xlink:href="#ef4e79ces" x="203.0068" y="230"/><use xlink:href="#ef4e79cej" x="211.0072" y="230"/><use xlink:href="#ef4e79cet" x="219.0076" y="230"/><use xlink:href="#ef4e79cei" x="227.008" y="230"/><use xlink:href="#ef4e79ceu" x="235.0084" y="230"/></g></svg>