<?xml version='1.0' encoding='UTF-8'?>
<svg xmlns="http://www.w3.org/2000/svg" xmlns:xlink="http://www.w3.org/1999/xlink" width="600px" height="300px" viewBox="0 0 600 300" x="0px" y="0px" enable-background="new 0 0 600 300"><defs><symbol overflow="visible" id="a80f1fa2a"><path d="M8.44 0h6.75v-24.64h30.25V0h6.72v-54.17h-6.72v23.69H15.19v-23.7H8.44zm0 0"/></symbol><symbol overflow="visible" id="a80f1fa2b"><path d="M3.36 7.63h23.77V2.78H11.21v-.26l6.98-4.77c5.83-3.94 8.93-6.8 8.93-12.75 0-5.33-3.66-9.03-11.25-9.03-8.2 0-11.41 4.6-12.02 10.6l5.4.57c.54-3.89 2.15-6.56 6.62-6.56 4 0 5.67 1.87 5.67 4.84 0 3.63-2.6 6.03-7.1 9.4L3.35 3.08zm0 0"/></symbol><symbol overflow="visible" id="a80f1fa2c"><path d="M25.38 1.14c12.73 0 20.09-6.1 20.09-15.75 0-8.86-5.27-13.05-15.86-15l-7.03-1.25c-7.58-1.37-10.6-4.16-10.6-9.66 0-5.9 4.7-9.18 12.63-9.18 8.77 0 12.58 2.62 13.87 10.06l6.65-.45C43.8-50.7 37.19-55.31 24.64-55.31c-12.1 0-19.27 5.53-19.27 15.22 0 8.36 4.9 13.04 15.35 15.03l7.01 1.33c7.7 1.45 11.14 3.62 11.14 9.42 0 5.95-4.96 9.84-13.3 9.84-9.59 0-14.09-3.36-15.3-10.06L3.63-14C4.69-3.92 11.78 1.14 25.38 1.14zm0 0"/></symbol><symbol overflow="visible" id="a80f1fa2d"><path d="M30.22 1.14c16.2 0 25.75-10.4 25.75-28.22 0-17.83-9.55-28.23-25.75-28.23-16.19 0-25.67 10.4-25.67 28.23 0 17.81 9.48 28.22 25.67 28.22zm0-5.9c-12.25 0-18.81-7.76-18.81-22.32 0-14.58 6.56-22.33 18.8-22.33 12.29 0 18.85 7.75 18.85 22.33 0 14.56-6.56 22.31-18.84 22.31zm0 0"/></symbol><symbol overflow="visible" id="a80f1fa2e"><path d="M18.69 7.63h5.6V1.26h4.02v-4.63H24.3v-19.9h-8.16L.8-3.13v4.39h17.89zM6.83-3.37v-.19L18.5-18.73h.19v15.37zm0 0"/></symbol><symbol overflow="visible" id="a80f1fa2f"><path d="M3.83 0v-5.95H6.2v-.82H.45v.82h2.4V0zm0 0"/></symbol><symbol overflow="visible" id="a80f1fa2g"><path d="M5.75-2.23v-.43c0-1.6-.9-2.51-2.42-2.51S.87-4.16.87-2.48c0 1.71.91 2.62 2.5 2.62 1.43 0 2.07-.56 2.29-1.52l-.9-.09c-.18.61-.59.9-1.35.9-.94 0-1.52-.54-1.58-1.66zm-2.4-2.2c.93 0 1.43.5 1.48 1.55H1.84c.08-1.07.6-1.56 1.5-1.56zm0 0"/></symbol><symbol overflow="visible" id="a80f1fa2h"><path d="M1.83 0l1.42-2h.06l1.46 2H5.8L4-2.53l1.78-2.49H4.8L3.42-3.08h-.08l-1.4-1.94H.89l1.78 2.49L.84 0zm0 0"/></symbol><symbol overflow="visible" id="a80f1fa2i"><path d="M5.52-4.25v-.77H3.17v-1.56h-.81l-.14 1.56H.75v.77h1.47v2.4c0 1.3.48 1.94 1.84 1.94C4.6.1 5.14 0 5.55-.14L5.4-.91c-.32.13-.72.2-1.13.2-.8 0-1.1-.37-1.1-1.23v-2.31zm0 0"/></symbol><symbol overflow="visible" id="a80f1fa2j"><path d="M3.33-3.42c.47 0 .8-.27.8-.8 0-.51-.33-.8-.8-.8-.47 0-.8.29-.8.8 0 .53.33.8.8.8zm0 3.5c.47 0 .8-.27.8-.78 0-.53-.33-.82-.8-.82-.47 0-.8.29-.8.82 0 .51.33.78.8.78zm0 0"/></symbol><symbol overflow="visible" id="a80f1fa2l"><path d="M1.9 0v-3.03h2.87V0h.98v-6.77h-.98v2.91H1.9v-2.9H.92V0zm0 0"/></symbol><symbol overflow="visible" id="a80f1fa2m"><path d="M5.67 0v-.86H2.14V-.9L3.6-2c1.05-.83 2-1.68 2-2.91 0-1.19-.73-1.99-2.26-1.99-1.66 0-2.3 1.02-2.44 2.33l1 .08c.1-.92.42-1.58 1.44-1.58.87 0 1.26.44 1.26 1.24 0 .9-.8 1.53-1.96 2.53L.83-.81V0zm0 0"/></symbol><symbol overflow="visible" id="a80f1fa2n"><path d="M3.42.14c1.61 0 2.56-.75 2.56-2 0-1.1-.67-1.6-1.95-1.86l-.97-.2c-.87-.17-1.23-.49-1.23-1.11 0-.7.54-1.11 1.5-1.11 1.06 0 1.51.34 1.69 1.23l.9-.09c-.17-1.28-.98-1.9-2.6-1.9C1.79-6.9.9-6.18.9-4.98c0 1.06.66 1.66 1.88 1.9l1.01.2c.85.17 1.25.4 1.25 1.09 0 .73-.6 1.16-1.6 1.16-1.07 0-1.66-.4-1.8-1.24l-.94.1C.83-.53 1.75.13 3.42.13zm0 0"/></symbol><symbol overflow="visible" id="a80f1fa2o"><path d="M3.33.14c1.9 0 2.76-1.27 2.76-3.52 0-2.26-.86-3.53-2.76-3.53S.58-5.64.58-3.37c0 2.25.86 3.51 2.75 3.51zM3.3-.67c-1.25 0-1.73-.95-1.73-2.7 0-1.77.5-2.72 1.75-2.72s1.75.95 1.75 2.71c0 1.75-.5 2.7-1.77 2.7zm0 0"/></symbol><symbol overflow="visible" id="a80f1fa2p"><path d="M5.1 0v-1.47H6v-.81h-.9v-4.49H3.8L.48-2.23v.76h3.66V0zM1.5-2.33l2.6-3.53h.04v3.58H1.5zm0 0"/></symbol><symbol overflow="visible" id="a80f1fa2q"><path d="M5.95-6.77H1.1V0h.99v-2.92H5.3v-.77H2.08v-2.26h3.87zm0 0"/></symbol><symbol overflow="visible" id="a80f1fa2r"><path d="M2.83.14c.94 0 1.5-.39 1.81-.95h.08l.1.81h.76v-3.38c0-1.23-.69-1.8-2.13-1.8-1.43 0-2.03.65-2.18 1.6l.93.1c.11-.6.44-.93 1.22-.93.85 0 1.22.32 1.22 1.04v.34l-1.81.2C1.6-2.7 1.1-2.17 1.1-1.28c0 .92.64 1.42 1.72 1.42zm.25-.77c-.67 0-1.02-.28-1.02-.74 0-.44.28-.72 1-.82l1.58-.19v.41c0 .8-.6 1.34-1.56 1.34zm0 0"/></symbol><symbol overflow="visible" id="a80f1fa2s"><path d="M2.73.14c.9 0 1.43-.45 1.74-1.08h.06l.13.94h.8v-5.02h-.94v2.7c0 .98-.57 1.62-1.46 1.62-.75 0-1.1-.4-1.1-1.22v-3.1h-.93v3.32c0 1.17.55 1.84 1.7 1.84zm0 0"/></symbol><symbol overflow="visible" id="a80f1fa2t"><path d="M5.08-5.16c-.94 0-1.58.43-1.9 1.3h-.09l-.07-1.16H1.05v.77h1.1v3.48H.96V0h3.96v-.77H3.1v-1.46c0-1.36.6-2.05 1.83-2.05.4 0 .76.08 1.1.17l.15-.87c-.33-.11-.7-.18-1.11-.18zm0 0"/></symbol><symbol overflow="visible" id="a80f1fa2u"><path d="M3.34.14c1.43 0 2.13-.66 2.25-1.78l-.89-.1c-.1.7-.5 1.08-1.34 1.08-1.03 0-1.52-.64-1.52-1.84 0-1.23.47-1.86 1.52-1.86.84 0 1.23.36 1.34 1.08l.9-.1c-.13-1.09-.82-1.78-2.26-1.78-1.56 0-2.46.97-2.46 2.66 0 1.66.9 2.64 2.46 2.64zm0 0"/></symbol><symbol overflow="visible" id="a80f1fa2v"><path d="M3.58-5.81c.42 0 .72-.22.72-.67 0-.44-.3-.68-.72-.68-.44 0-.72.24-.72.68 0 .45.28.67.72.67zm.5.8H1.52v.76h1.6v3.48h-1.8V0h4.46v-.77h-1.7zm0 0"/></symbol><symbol overflow="visible" id="a80f1fa2w"><path d="M2.16 0v-2.67c0-.99.59-1.63 1.46-1.63.74 0 1.07.38 1.07 1.22V0h.95v-3.31c0-1.2-.56-1.85-1.67-1.85-.92 0-1.49.46-1.77 1.08h-.06l-.12-.94H1.2V0zm0 0"/></symbol><symbol overflow="visible" id="a80f1fa2x"><path d="M4.63-6.5c.45 0 .98.08 1.39.2l.2-.72a5.3 5.3 0 00-1.64-.26c-1.52 0-2.16.56-2.16 1.87v.4H.9v.76h1.53V0h.94v-4.25h2.53v-.77H3.36v-.3c0-.84.33-1.18 1.27-1.18zm0 0"/></symbol><symbol overflow="visible" id="a80f1fa2y"><path d="M3.33.14c1.62 0 2.5-.95 2.5-2.66 0-1.68-.88-2.64-2.5-2.64-1.63 0-2.5.96-2.5 2.64 0 1.7.87 2.66 2.5 2.66zm0-.77c-1.06 0-1.52-.6-1.52-1.89 0-1.28.46-1.87 1.52-1.87 1.08 0 1.53.6 1.53 1.87 0 1.29-.45 1.9-1.53 1.9zm0 0"/></symbol><symbol overflow="visible" id="a80f1fa2z"><path d="M3.36.16c1.4 0 2.2-.6 2.2-1.57 0-.89-.54-1.22-1.47-1.39L3-3c-.67-.14-.86-.33-.86-.73 0-.5.4-.74 1.17-.74.83 0 1.19.27 1.27.8l.9-.05c-.12-1-.8-1.47-2.17-1.47-1.34 0-2.1.53-2.1 1.5 0 .81.45 1.22 1.52 1.44l1.04.2c.56.11.87.24.87.72 0 .52-.45.78-1.28.78-.95 0-1.36-.28-1.42-.87l-.9.06C1.07-.36 1.8.16 3.35.16zm0 0"/></symbol><symbol overflow="visible" id="a80f1fa2A"><path d="M1.45-2.95c0 2.56 1.08 4.37 3.67 4.84l.11-.67C3.28.86 2.43-.75 2.43-2.95s.85-3.82 2.8-4.16l-.1-.69c-2.6.49-3.68 2.3-3.68 4.85zm0 0"/></symbol><symbol overflow="visible" id="a80f1fa2B"><path d="M1.45-7.1c1.96.33 2.8 1.94 2.8 4.15 0 2.2-.84 3.8-2.8 4.17l.11.67c2.58-.47 3.67-2.28 3.67-4.84 0-2.55-1.09-4.36-3.67-4.85zm0 0"/></symbol></defs><use xlink:href="#a80f1fa2a" x="183.8198" y="160.5" fill="#515151"/><use xlink:href="#a80f1fa2b" x="244.4372" y="160.5" fill="#fff"/><g fill="#515151"><use xlink:href="#a80f1fa2c" x="274.9557" y="160.5"/><use xlink:href="#a80f1fa2d" x="325.1991" y="160.5"/></g><use xlink:href="#a80f1fa2e" x="385.6617" y="160.5" fill="#fff"/><g fill="#fff"><use xlink:href="#a80f1fa2f" x="263.3333" y="252"/><use xlink:href="#a80f1fa2g" x="270.0003" y="252"/><use xlink:href="#a80f1fa2h" x="276.6673" y="252"/><use xlink:href="#a80f1fa2i" x="283.3343" y="252"/><use xlink:href="#a80f1fa2j" x="290.0013" y="252"/><use xlink:href="#a80f1fa2k" x="296.6683" y="252"/><use xlink:href="#a80f1fa2l" x="303.3353" y="252"/><use xlink:href="#a80f1fa2m" x="310.0023" y="252"/><use xlink:href="#a80f1fa2n" x="316.6693" y="252"/><use xlink:href="#a80f1fa2o" x="323.3363" y="252"/><use xlink:href="#a80f1fa2p" x="330.0033" y="252"/></g><g fill="#fff"><use xlink:href="#a80f1fa2q" x="180" y="266"/><use xlink:href="#a80f1fa2g" x="186.667" y="266"/><use xlink:href="#a80f1fa2r" x="193.334" y="266"/><use xlink:href="#a80f1fa2i" x="200.001" y="266"/><use xlink:href="#a80f1fa2s" x="206.668" y="266"/><use xlink:href="#a80f1fa2t" x="213.335" y="266"/><use xlink:href="#a80f1fa2g" x="220.002" y="266"/><use xlink:href="#a80f1fa2j" x="226.669" y="266"/><use xlink:href="#a80f1fa2k" x="233.336" y="266"/><use xlink:href="#a80f1fa2n" x="240.003" y="266"/><use xlink:href="#a80f1fa2u" x="246.67" y="266"/><use xlink:href="#a80f1fa2v" x="253.337" y="266"/><use xlink:href="#a80f1fa2g" x="260.004" y="266"/><use xlink:href="#a80f1fa2w" x="266.671" y="266"/><use xlink:href="#a80f1fa2i" x="273.338" y="266"/><use xlink:href="#a80f1fa2v" x="280.005" y="266"/><use xlink:href="#a80f1fa2x" x="286.672" y="266"/><use xlink:href="#a80f1fa2v" x="293.339" y="266"/><use xlink:href="#a80f1fa2u" x="300.006" y="266"/><use xlink:href="#a80f1fa2k" x="306.673" y="266"/><use xlink:href="#a80f1fa2v" x="313.34" y="266"/><use xlink:href="#a80f1fa2w" x="320.007" y="266"/><use xlink:href="#a80f1fa2x" x="326.674" y="266"/><use xlink:href="#a80f1fa2g" x="333.341" y="266"/><use xlink:href="#a80f1fa2t" x="340.008" y="266"/><use xlink:href="#a80f1fa2v" x="346.675" y="266"/><use xlink:href="#a80f1fa2y" x="353.342" y="266"/><use xlink:href="#a80f1fa2t" x="360.009" y="266"/><use xlink:href="#a80f1fa2z" x="366.676" y="266"/><use xlink:href="#a80f1fa2k" x="373.343" y="266"/><use xlink:href="#a80f1fa2A" x="380.01" y="266"/><use xlink:href="#a80f1fa2z" x="386.677" y="266"/><use xlink:href="#a80f1fa2v" x="393.344" y="266"/><use xlink:href="#a80f1fa2w" x="400.011" y="266"/><use xlink:href="#a80f1fa2x" x="406.678" y="266"/><use xlink:href="#a80f1fa2B" x="413.345" y="266"/></g></svg>