<?xml version='1.0' encoding='UTF-8'?>
<svg xmlns="http://www.w3.org/2000/svg" xmlns:xlink="http://www.w3.org/1999/xlink" width="600px" height="300px" viewBox="0 0 600 300" x="0px" y="0px" enable-background="new 0 0 600 300"><defs><symbol overflow="visible" id="a832ce27a"><path d="M8.44 0h6.17v-43.3H15L46.08 0h6.72v-54.17h-6.14v43.3h-.38l-31.14-43.3h-6.7zm0 0"/></symbol><symbol overflow="visible" id="a832ce27b"><path d="M23.13 1.14c12.12 0 19.1-7.6 19.1-21.28 0-13.63-6.98-21.17-19.1-21.17-12.1 0-19.05 7.54-19.05 21.17 0 13.69 6.95 21.28 19.05 21.28zm0-5.6c-8.33 0-12.41-5.27-12.41-15.68 0-10.38 4.08-15.53 12.4-15.53 8.35 0 12.47 5.15 12.47 15.53 0 10.4-4.12 15.67-12.47 15.67zm0 0"/></symbol><symbol overflow="visible" id="a832ce27c"><path d="M9.92.84c2.86 0 4.92-1.56 4.92-4.76 0-3.25-2.06-4.74-4.92-4.74C6.98-8.66 5-7.17 5-3.92 5-.72 6.98.84 9.92.84zm0 0"/></symbol><symbol overflow="visible" id="a832ce27e"><path d="M15.38 0h6.48v-54.17h-5.23c-4.7 1.83-9.38 3.65-14.07 5.5v5.9c4.27-1.45 8.53-2.96 12.81-4.42zm0 0"/></symbol><symbol overflow="visible" id="a832ce27f"><path d="M26.02 1.14c13.15 0 20.56-9.27 20.56-28.19 0-19.07-7.44-28.26-20.56-28.26-13.2 0-20.57 9.19-20.57 28.26 0 18.93 7.36 28.2 20.57 28.2zM13.77-13.02c-1.3-3.5-1.83-8.18-1.83-14.03 0-15.26 4.12-22.57 14.08-22.57 4.2 0 7.28 1.17 9.5 3.62zm12.25 8.47c-4.16 0-7.2-1.17-9.4-3.5l21.6-33.03c1.3 3.5 1.87 8.16 1.87 14.03 0 15.11-4.2 22.5-14.07 22.5zm0 0"/></symbol><symbol overflow="visible" id="a832ce27g"><path d="M3.83 0v-5.95H6.2v-.82H.45v.82h2.4V0zm0 0"/></symbol><symbol overflow="visible" id="a832ce27h"><path d="M5.75-2.23v-.43c0-1.6-.9-2.51-2.42-2.51S.87-4.16.87-2.48c0 1.71.91 2.62 2.5 2.62 1.43 0 2.07-.56 2.29-1.52l-.9-.09c-.18.61-.59.9-1.35.9-.94 0-1.52-.54-1.58-1.66zm-2.4-2.2c.93 0 1.43.5 1.48 1.55H1.84c.08-1.07.6-1.56 1.5-1.56zm0 0"/></symbol><symbol overflow="visible" id="a832ce27i"><path d="M1.83 0l1.42-2h.06l1.46 2H5.8L4-2.53l1.78-2.49H4.8L3.42-3.08h-.08l-1.4-1.94H.89l1.78 2.49L.84 0zm0 0"/></symbol><symbol overflow="visible" id="a832ce27j"><path d="M5.52-4.25v-.77H3.17v-1.56h-.81l-.14 1.56H.75v.77h1.47v2.4c0 1.3.48 1.94 1.84 1.94C4.6.1 5.14 0 5.55-.14L5.4-.91c-.32.13-.72.2-1.13.2-.8 0-1.1-.37-1.1-1.23v-2.31zm0 0"/></symbol><symbol overflow="visible" id="a832ce27k"><path d="M3.33-3.42c.47 0 .8-.27.8-.8 0-.51-.33-.8-.8-.8-.47 0-.8.29-.8.8 0 .53.33.8.8.8zm0 3.5c.47 0 .8-.27.8-.78 0-.53-.33-.82-.8-.82-.47 0-.8.29-.8.82 0 .51.33.78.8.78zm0 0"/></symbol><symbol overflow="visible" id="a832ce27m"><path d="M1.84 0v-4.48l-.06-.99h.1L4.46 0h1.28v-6.77h-.92v4.4l.06 1.03h-.1L2.21-6.77H.92V0zm0 0"/></symbol><symbol overflow="visible" id="a832ce27n"><path d="M3.33.14c1.62 0 2.5-.95 2.5-2.66 0-1.68-.88-2.64-2.5-2.64-1.63 0-2.5.96-2.5 2.64 0 1.7.87 2.66 2.5 2.66zm0-.77c-1.06 0-1.52-.6-1.52-1.89 0-1.28.46-1.87 1.52-1.87 1.08 0 1.53.6 1.53 1.87 0 1.29-.45 1.9-1.53 1.9zm0 0"/></symbol><symbol overflow="visible" id="a832ce27o"><path d="M3.33.08c.51 0 .83-.27.83-.81 0-.57-.32-.82-.83-.82-.52 0-.81.25-.81.82 0 .54.3.8.8.8zm0 0"/></symbol><symbol overflow="visible" id="a832ce27p"><path d="M4.22-6.77h-.86l-2.03.7v.87c.64-.17 1.26-.38 1.89-.55v4.9H1.03V0h4.9v-.86H4.21zm0 0"/></symbol><symbol overflow="visible" id="a832ce27q"><path d="M3.33.14c1.65 0 2.6-1.1 2.6-3.52S4.99-6.9 3.34-6.9C1.67-6.9.72-5.8.72-3.37c0 2.4.95 3.51 2.6 3.51zm0-.84c-1.13 0-1.6-.85-1.6-2.67 0-1.86.47-2.7 1.6-2.7 1.12 0 1.6.84 1.6 2.7 0 1.82-.48 2.67-1.6 2.67zM3.3-2.64c.38 0 .56-.28.56-.72 0-.44-.18-.7-.56-.7-.39 0-.56.26-.56.7 0 .44.17.72.56.72zm0 0"/></symbol><symbol overflow="visible" id="a832ce27r"><path d="M5.95-6.77H1.1V0h.99v-2.92H5.3v-.77H2.08v-2.26h3.87zm0 0"/></symbol><symbol overflow="visible" id="a832ce27s"><path d="M2.83.14c.94 0 1.5-.39 1.81-.95h.08l.1.81h.76v-3.38c0-1.23-.69-1.8-2.13-1.8-1.43 0-2.03.65-2.18 1.6l.93.1c.11-.6.44-.93 1.22-.93.85 0 1.22.32 1.22 1.04v.34l-1.81.2C1.6-2.7 1.1-2.17 1.1-1.28c0 .92.64 1.42 1.72 1.42zm.25-.77c-.67 0-1.02-.28-1.02-.74 0-.44.28-.72 1-.82l1.58-.19v.41c0 .8-.6 1.34-1.56 1.34zm0 0"/></symbol><symbol overflow="visible" id="a832ce27t"><path d="M2.73.14c.9 0 1.43-.45 1.74-1.08h.06l.13.94h.8v-5.02h-.94v2.7c0 .98-.57 1.62-1.46 1.62-.75 0-1.1-.4-1.1-1.22v-3.1h-.93v3.32c0 1.17.55 1.84 1.7 1.84zm0 0"/></symbol><symbol overflow="visible" id="a832ce27u"><path d="M5.08-5.16c-.94 0-1.58.43-1.9 1.3h-.09l-.07-1.16H1.05v.77h1.1v3.48H.96V0h3.96v-.77H3.1v-1.46c0-1.36.6-2.05 1.83-2.05.4 0 .76.08 1.1.17l.15-.87c-.33-.11-.7-.18-1.11-.18zm0 0"/></symbol><symbol overflow="visible" id="a832ce27v"><path d="M3.42.14c1.61 0 2.56-.75 2.56-2 0-1.1-.67-1.6-1.95-1.86l-.97-.2c-.87-.17-1.23-.49-1.23-1.11 0-.7.54-1.11 1.5-1.11 1.06 0 1.51.34 1.69 1.23l.9-.09c-.17-1.28-.98-1.9-2.6-1.9C1.79-6.9.9-6.18.9-4.98c0 1.06.66 1.66 1.88 1.9l1.01.2c.85.17 1.25.4 1.25 1.09 0 .73-.6 1.16-1.6 1.16-1.07 0-1.66-.4-1.8-1.24l-.94.1C.83-.53 1.75.13 3.42.13zm0 0"/></symbol><symbol overflow="visible" id="a832ce27w"><path d="M3.92-7.14H1.36v.76h1.6v5.61H1.15V0H5.7v-.77H3.92zm0 0"/></symbol><symbol overflow="visible" id="a832ce27x"><path d="M3.36.16c1.4 0 2.2-.6 2.2-1.57 0-.89-.54-1.22-1.47-1.39L3-3c-.67-.14-.86-.33-.86-.73 0-.5.4-.74 1.17-.74.83 0 1.19.27 1.27.8l.9-.05c-.12-1-.8-1.47-2.17-1.47-1.34 0-2.1.53-2.1 1.5 0 .81.45 1.22 1.52 1.44l1.04.2c.56.11.87.24.87.72 0 .52-.45.78-1.28.78-.95 0-1.36-.28-1.42-.87l-.9.06C1.07-.36 1.8.16 3.35.16zm0 0"/></symbol><symbol overflow="visible" id="a832ce27y"><path d="M2.16 0v-2.69c0-.98.6-1.6 1.46-1.6.74 0 1.07.4 1.07 1.2V0h.95v-3.31c0-1.17-.56-1.85-1.67-1.85-.9 0-1.44.46-1.75 1.08h-.06v-3.06H1.2V0zm0 0"/></symbol><symbol overflow="visible" id="a832ce27z"><path d="M2.84.14C3.8.14 4.33-.26 4.6-.9h.07L4.8 0h.76v-7.14h-.95v2.95h-.08c-.28-.6-.86-.97-1.67-.97-1.48 0-2.27.99-2.27 2.64C.6-.84 1.36.14 2.84.14zm.22-.8c-.98 0-1.48-.59-1.48-1.84s.5-1.86 1.48-1.86c1.13 0 1.58.8 1.58 1.86S4.2-.66 3.06-.66zm0 0"/></symbol><symbol overflow="visible" id="a832ce27A"><path d="M5.55 0v-.75H2.3v-.06l3.2-3.49v-.72H1.2v.75H4.3v.07L1.11-.72V0zm0 0"/></symbol><symbol overflow="visible" id="a832ce27B"><path d="M1.45-2.95c0 2.56 1.08 4.37 3.67 4.84l.11-.67C3.28.86 2.43-.75 2.43-2.95s.85-3.82 2.8-4.16l-.1-.69c-2.6.49-3.68 2.3-3.68 4.85zm0 0"/></symbol><symbol overflow="visible" id="a832ce27C"><path d="M1.45-7.1c1.96.33 2.8 1.94 2.8 4.15 0 2.2-.84 3.8-2.8 4.17l.11.67c2.58-.47 3.67-2.28 3.67-4.84 0-2.55-1.09-4.36-3.67-4.85zm0 0"/></symbol></defs><g fill="#515151"><use xlink:href="#a832ce27a" x="158.3941" y="160.5"/><use xlink:href="#a832ce27b" x="219.6173" y="160.5"/></g><use xlink:href="#a832ce27c" x="264.7725" y="160.5" fill="#515151"/><use xlink:href="#a832ce27d" x="284.5897" y="160.5" fill="#515151"/><use xlink:href="#a832ce27e" x="305.4369" y="160.5" fill="#515151"/><use xlink:href="#a832ce27f" x="337.5378" y="160.5" fill="#fff"/><use xlink:href="#a832ce27f" x="389.5719" y="160.5" fill="#fff"/><g fill="#fff"><use xlink:href="#a832ce27g" x="256.6667" y="252"/><use xlink:href="#a832ce27h" x="263.3337" y="252"/><use xlink:href="#a832ce27i" x="270.0007" y="252"/><use xlink:href="#a832ce27j" x="276.6677" y="252"/><use xlink:href="#a832ce27k" x="283.3347" y="252"/><use xlink:href="#a832ce27l" x="290.0017" y="252"/><use xlink:href="#a832ce27m" x="296.6687" y="252"/><use xlink:href="#a832ce27n" x="303.3357" y="252"/><use xlink:href="#a832ce27o" x="310.0027" y="252"/><use xlink:href="#a832ce27l" x="316.6697" y="252"/><use xlink:href="#a832ce27p" x="323.3367" y="252"/><use xlink:href="#a832ce27q" x="330.0037" y="252"/><use xlink:href="#a832ce27q" x="336.6707" y="252"/></g><g fill="#fff"><use xlink:href="#a832ce27r" x="206.6667" y="266"/><use xlink:href="#a832ce27h" x="213.3337" y="266"/><use xlink:href="#a832ce27s" x="220.0007" y="266"/><use xlink:href="#a832ce27j" x="226.6677" y="266"/><use xlink:href="#a832ce27t" x="233.3347" y="266"/><use xlink:href="#a832ce27u" x="240.0017" y="266"/><use xlink:href="#a832ce27h" x="246.6687" y="266"/><use xlink:href="#a832ce27k" x="253.3357" y="266"/><use xlink:href="#a832ce27l" x="260.0027" y="266"/><use xlink:href="#a832ce27v" x="266.6697" y="266"/><use xlink:href="#a832ce27w" x="273.3367" y="266"/><use xlink:href="#a832ce27s" x="280.0037" y="266"/><use xlink:href="#a832ce27x" x="286.6707" y="266"/><use xlink:href="#a832ce27y" x="293.3377" y="266"/><use xlink:href="#a832ce27h" x="300.0047" y="266"/><use xlink:href="#a832ce27z" x="306.6717" y="266"/><use xlink:href="#a832ce27l" x="313.3387" y="266"/><use xlink:href="#a832ce27A" x="320.0057" y="266"/><use xlink:href="#a832ce27h" x="326.6727" y="266"/><use xlink:href="#a832ce27u" x="333.3397" y="266"/><use xlink:href="#a832ce27n" x="340.0067" y="266"/><use xlink:href="#a832ce27l" x="346.6737" y="266"/><use xlink:href="#a832ce27B" x="353.3407" y="266"/><use xlink:href="#a832ce27A" x="360.0077" y="266"/><use xlink:href="#a832ce27h" x="366.6747" y="266"/><use xlink:href="#a832ce27u" x="373.3417" y="266"/><use xlink:href="#a832ce27n" x="380.0087" y="266"/><use xlink:href="#a832ce27C" x="386.6757" y="266"/></g></svg>