<?xml version='1.0' encoding='UTF-8'?>
<svg xmlns="http://www.w3.org/2000/svg" xmlns:xlink="http://www.w3.org/1999/xlink" width="600px" height="300px" viewBox="0 0 600 300" x="0px" y="0px" enable-background="new 0 0 600 300"><defs><symbol overflow="visible" id="6d2dbc6ea"><path d="M25.88 0H32.34v-.97-2.26-2.25-.99h-6.46V0zm0 0H32.34v-.97-2.26-2.25-.99h-6.46V0zm0 0H32.34v-.97-2.26-2.25-.99h-6.46V0zm0 0H32.34v-.97-2.26-2.25-.99h-6.46V0zm6.48 0h6.47v-.97-2.26-2.25-.99h-6.47V0zm0 0h6.47v-.97-2.26-2.25-.99h-6.47V0zm0 0h6.47v-.97-2.26-2.25-.99h-6.47V0zm0 0h6.47v-.97-2.26-2.25-.99h-6.47V0zM45.3 0h6.47v-.97-2.26-2.25-.99H45.3V0zm0 0h6.47v-.97-2.26-2.25-.99H45.3V0zm0 0h6.47v-.97-2.26-2.25-.99H45.3V0zm0 0h6.47v-.97-2.26-2.25-.99H45.3V0zM55 0h6.47v-.97-2.26-2.25-.99H55V0zm0 0h6.47v-.97-2.26-2.25-.99H55V0zm0 0h6.47v-.97-2.26-2.25-.99H55V0zm0 0h6.47v-.97-2.26-2.25-.99H55V0zm9.7 0H71.17v-.97-2.26-2.25-.99H64.7V0zm0 0H71.17v-.97-2.26-2.25-.99H64.7V0zm0 0H71.17v-.97-2.26-2.25-.99H64.7V0zm0 0H71.17v-.97-2.26-2.25-.99H64.7V0zm6.47 0H77.64v-.97-2.26-2.25-.99h-6.47V0zm0 0H77.64v-.97-2.26-2.25-.99h-6.47V0zm0 0H77.64v-.97-2.26-2.25-.99h-6.47V0zm0 0H77.64v-.97-2.26-2.25-.99h-6.47V0zM32.36-6.47h6.47v-.97-2.26-2.25-.99h-6.47V-6.47zm0 0h6.47v-.97-2.26-2.25-.99h-6.47V-6.47zm0 0h6.47v-.97-2.26-2.25-.99h-6.47V-6.47zm0 0h6.47v-.97-2.26-2.25-.99h-6.47V-6.47zm12.94 0h6.47v-.97-2.26-2.25-.99H45.3V-6.47zm0 0h6.47v-.97-2.26-2.25-.99H45.3V-6.47zm0 0h6.47v-.97-2.26-2.25-.99H45.3V-6.47zm0 0h6.47v-.97-2.26-2.25-.99H45.3V-6.47zm9.7 0h6.47v-.97-2.26-2.25-.99H55V-6.47zm0 0h6.47v-.97-2.26-2.25-.99H55V-6.47zm0 0h6.47v-.97-2.26-2.25-.99H55V-6.47zm0 0h6.47v-.97-2.26-2.25-.99H55V-6.47zm16.17 0H77.64v-.97-2.26-2.25-.99h-6.47V-6.47zm0 0H77.64v-.97-2.26-2.25-.99h-6.47V-6.47zm0 0H77.64v-.97-2.26-2.25-.99h-6.47V-6.47zm0 0H77.64v-.97-2.26-2.25-.99h-6.47V-6.47zm-45.3-6.47H32.34v-.97-2.26-2.25-.99h-6.46V-12.94zm0 0H32.34v-.97-2.26-2.25-.99h-6.46V-12.94zm0 0H32.34v-.97-2.26-2.25-.99h-6.46V-12.94zm0 0H32.34v-.97-2.26-2.25-.99h-6.46V-12.94zm6.49 0h6.47v-.97-2.26-2.25-.99h-6.47V-12.94zm0 0h6.47v-.97-2.26-2.25-.99h-6.47V-12.94zm0 0h6.47v-.97-2.26-2.25-.99h-6.47V-12.94zm0 0h6.47v-.97-2.26-2.25-.99h-6.47V-12.94zm6.47 0h6.47v-.97-2.26-2.25-.99h-6.47V-12.94zm0 0h6.47v-.97-2.26-2.25-.99h-6.47V-12.94zm0 0h6.47v-.97-2.26-2.25-.99h-6.47V-12.94zm0 0h6.47v-.97-2.26-2.25-.99h-6.47V-12.94zm6.47 0h6.47v-.97-2.26-2.25-.99H45.3V-12.94zm0 0h6.47v-.97-2.26-2.25-.99H45.3V-12.94zm0 0h6.47v-.97-2.26-2.25-.99H45.3V-12.94zm0 0h6.47v-.97-2.26-2.25-.99H45.3V-12.94zm6.47 0H58.23v-.97-2.26-2.25-.99h-6.46V-12.94zm0 0H58.23v-.97-2.26-2.25-.99h-6.46V-12.94zm0 0H58.23v-.97-2.26-2.25-.99h-6.46V-12.94zm0 0H58.23v-.97-2.26-2.25-.99h-6.46V-12.94zm6.46 0H64.7v-.97-2.26-2.25-.99h-6.47V-12.94zm0 0H64.7v-.97-2.26-2.25-.99h-6.47V-12.94zm0 0H64.7v-.97-2.26-2.25-.99h-6.47V-12.94zm0 0H64.7v-.97-2.26-2.25-.99h-6.47V-12.94zm6.47 0H71.17v-.97-2.26-2.25-.99H64.7V-12.94zm0 0H71.17v-.97-2.26-2.25-.99H64.7V-12.94zm0 0H71.17v-.97-2.26-2.25-.99H64.7V-12.94zm0 0H71.17v-.97-2.26-2.25-.99H64.7V-12.94zm6.47 0H77.64v-.97-2.26-2.25-.99h-6.47V-12.94zm0 0H77.64v-.97-2.26-2.25-.99h-6.47V-12.94zm0 0H77.64v-.97-2.26-2.25-.99h-6.47V-12.94zm0 0H77.64v-.97-2.26-2.25-.99h-6.47V-12.94zM6.47-19.4h6.47v-.96-2.27-2.25-.98H6.47v6.46zm0 0h6.47v-.96-2.27-2.25-.98H6.47v6.46zm0 0h6.47v-.96-2.27-2.25-.98H6.47v6.46zm0 0h6.47v-.96-2.27-2.25-.98H6.47v6.46zm6.47 0h6.47v-.96-2.27-2.25-.98h-6.47v6.46zm0 0h6.47v-.96-2.27-2.25-.98h-6.47v6.46zm0 0h6.47v-.96-2.27-2.25-.98h-6.47v6.46zm0 0h6.47v-.96-2.27-2.25-.98h-6.47v6.46zm6.47 0H25.87v-.96-2.27-2.25-.98h-6.46v6.46zm0 0H25.87v-.96-2.27-2.25-.98h-6.46v6.46zm0 0H25.87v-.96-2.27-2.25-.98h-6.46v6.46zm0 0H25.87v-.96-2.27-2.25-.98h-6.46v6.46zm6.46 0H32.34v-.96-2.27-2.25-.98h-6.46v6.46zm0 0H32.34v-.96-2.27-2.25-.98h-6.46v6.46zm0 0H32.34v-.96-2.27-2.25-.98h-6.46v6.46zm0 0H32.34v-.96-2.27-2.25-.98h-6.46v6.46zm6.49 0h6.47v-.96-2.27-2.25-.98h-6.47v6.46zm0 0h6.47v-.96-2.27-2.25-.98h-6.47v6.46zm0 0h6.47v-.96-2.27-2.25-.98h-6.47v6.46zm0 0h6.47v-.96-2.27-2.25-.98h-6.47v6.46zm6.47 0h6.47v-.96-2.27-2.25-.98h-6.47v6.46zm0 0h6.47v-.96-2.27-2.25-.98h-6.47v6.46zm0 0h6.47v-.96-2.27-2.25-.98h-6.47v6.46zm0 0h6.47v-.96-2.27-2.25-.98h-6.47v6.46zm6.47 0h6.47v-.96-2.27-2.25-.98H45.3v6.46zm0 0h6.47v-.96-2.27-2.25-.98H45.3v6.46zm0 0h6.47v-.96-2.27-2.25-.98H45.3v6.46zm0 0h6.47v-.96-2.27-2.25-.98H45.3v6.46zm6.47 0H58.23v-.96-2.27-2.25-.98h-6.46v6.46zm0 0H58.23v-.96-2.27-2.25-.98h-6.46v6.46zm0 0H58.23v-.96-2.27-2.25-.98h-6.46v6.46zm0 0H58.23v-.96-2.27-2.25-.98h-6.46v6.46zm6.46 0H64.7v-.96-2.27-2.25-.98h-6.47v6.46zm0 0H64.7v-.96-2.27-2.25-.98h-6.47v6.46zm0 0H64.7v-.96-2.27-2.25-.98h-6.47v6.46zm0 0H64.7v-.96-2.27-2.25-.98h-6.47v6.46zm6.47 0H71.17v-.96-2.27-2.25-.98H64.7v6.46zm0 0H71.17v-.96-2.27-2.25-.98H64.7v6.46zm0 0H71.17v-.96-2.27-2.25-.98H64.7v6.46zm0 0H71.17v-.96-2.27-2.25-.98H64.7v6.46zm6.47 0H77.64v-.96-2.27-2.25-.98h-6.47v6.46zm0 0H77.64v-.96-2.27-2.25-.98h-6.47v6.46zm0 0H77.64v-.96-2.27-2.25-.98h-6.47v6.46zm0 0H77.64v-.96-2.27-2.25-.98h-6.47v6.46zm6.47 0H84.11v-.96-2.27-2.25-.98h-6.47v6.46zm0 0H84.11v-.96-2.27-2.25-.98h-6.47v6.46zm0 0H84.11v-.96-2.27-2.25-.98h-6.47v6.46zm0 0H84.11v-.96-2.27-2.25-.98h-6.47v6.46zm6.48 0H90.6v-.96-2.27-2.25-.98h-6.47v6.46zm0 0H90.6v-.96-2.27-2.25-.98h-6.47v6.46zm0 0H90.6v-.96-2.27-2.25-.98h-6.47v6.46zm0 0H90.6v-.96-2.27-2.25-.98h-6.47v6.46zm6.47 0H97.06v-.96-2.27-2.25-.98H90.6v6.46zm0 0H97.06v-.96-2.27-2.25-.98H90.6v6.46zm0 0H97.06v-.96-2.27-2.25-.98H90.6v6.46zm0 0H97.06v-.96-2.27-2.25-.98H90.6v6.46zm6.47 0H103.53v-.96-2.27-2.25-.98h-6.47v6.46zm0 0H103.53v-.96-2.27-2.25-.98h-6.47v6.46zm0 0H103.53v-.96-2.27-2.25-.98h-6.47v6.46zm0 0H103.53v-.96-2.27-2.25-.98h-6.47v6.46zM3.23-25.87H9.7v-.97-2.27-2.25-.98H3.23v6.46zm0 0H9.7v-.97-2.27-2.25-.98H3.23v6.46zm0 0H9.7v-.97-2.27-2.25-.98H3.23v6.46zm0 0H9.7v-.97-2.27-2.25-.98H3.23v6.46zm6.47 0H16.17v-.97-2.27-2.25-.98H9.7v6.46zm0 0H16.17v-.97-2.27-2.25-.98H9.7v6.46zm0 0H16.17v-.97-2.27-2.25-.98H9.7v6.46zm0 0H16.17v-.97-2.27-2.25-.98H9.7v6.46zm6.47 0H22.64v-.97-2.27-2.25-.98h-6.47v6.46zm0 0H22.64v-.97-2.27-2.25-.98h-6.47v6.46zm0 0H22.64v-.97-2.27-2.25-.98h-6.47v6.46zm0 0H22.64v-.97-2.27-2.25-.98h-6.47v6.46zm9.7 0H32.34v-.97-2.27-2.25-.98h-6.46v6.46zm0 0H32.34v-.97-2.27-2.25-.98h-6.46v6.46zm0 0H32.34v-.97-2.27-2.25-.98h-6.46v6.46zm0 0H32.34v-.97-2.27-2.25-.98h-6.46v6.46zm6.49 0h6.47v-.97-2.27-2.25-.98h-6.47v6.46zm0 0h6.47v-.97-2.27-2.25-.98h-6.47v6.46zm0 0h6.47v-.97-2.27-2.25-.98h-6.47v6.46zm0 0h6.47v-.97-2.27-2.25-.98h-6.47v6.46zM19.4-32.37H25.87v-.97-2.26-2.25-.99h-6.46V-32.36zm0 0H25.87v-.97-2.26-2.25-.99h-6.46V-32.36zm0 0H25.87v-.97-2.26-2.25-.99h-6.46V-32.36zm0 0H25.87v-.97-2.26-2.25-.99h-6.46V-32.36zm6.46 0H32.34v-.97-2.26-2.25-.99h-6.46V-32.36zm0 0H32.34v-.97-2.26-2.25-.99h-6.46V-32.36zm0 0H32.34v-.97-2.26-2.25-.99h-6.46V-32.36zm0 0H32.34v-.97-2.26-2.25-.99h-6.46V-32.36zm0-6.47H32.34v-.97-2.26-2.25-.99h-6.46V-38.83zm0 0H32.34v-.97-2.26-2.25-.99h-6.46V-38.83zm0 0H32.34v-.97-2.26-2.25-.99h-6.46V-38.83zm0 0H32.34v-.97-2.26-2.25-.99h-6.46V-38.83zm0 0"/></symbol><symbol overflow="visible" id="6d2dbc6eb"><path d="M32.36 0h6.47v-.97-2.26-2.25-.99h-6.47V0zm0 0h6.47v-.97-2.26-2.25-.99h-6.47V0zm0 0h6.47v-.97-2.26-2.25-.99h-6.47V0zm0 0h6.47v-.97-2.26-2.25-.99h-6.47V0zm6.47 0h6.47v-.97-2.26-2.25-.99h-6.47V0zm0 0h6.47v-.97-2.26-2.25-.99h-6.47V0zm0 0h6.47v-.97-2.26-2.25-.99h-6.47V0zm0 0h6.47v-.97-2.26-2.25-.99h-6.47V0zm9.7 0H55v-.97-2.26-2.25-.99h-6.47V0zm0 0H55v-.97-2.26-2.25-.99h-6.47V0zm0 0H55v-.97-2.26-2.25-.99h-6.47V0zm0 0H55v-.97-2.26-2.25-.99h-6.47V0zm12.94 0h6.47v-.97-2.26-2.25-.99h-6.47V0zm0 0h6.47v-.97-2.26-2.25-.99h-6.47V0zm0 0h6.47v-.97-2.26-2.25-.99h-6.47V0zm0 0h6.47v-.97-2.26-2.25-.99h-6.47V0zm6.47 0h6.47v-.97-2.26-2.25-.99h-6.47V0zm0 0h6.47v-.97-2.26-2.25-.99h-6.47V0zm0 0h6.47v-.97-2.26-2.25-.99h-6.47V0zm0 0h6.47v-.97-2.26-2.25-.99h-6.47V0zm9.7 0H84.11v-.97-2.26-2.25-.99h-6.47V0zm0 0H84.11v-.97-2.26-2.25-.99h-6.47V0zm0 0H84.11v-.97-2.26-2.25-.99h-6.47V0zm0 0H84.11v-.97-2.26-2.25-.99h-6.47V0zm16.19-3.23h6.47v-.97-2.27-2.25-.98h-6.47V-3.23zm0 0h6.47v-.97-2.27-2.25-.98h-6.47V-3.23zm0 0h6.47v-.97-2.27-2.25-.98h-6.47V-3.23zm0 0h6.47v-.97-2.27-2.25-.98h-6.47V-3.23zm-55-3.24h6.47v-.97-2.26-2.25-.99h-6.47V-6.47zm0 0h6.47v-.97-2.26-2.25-.99h-6.47V-6.47zm0 0h6.47v-.97-2.26-2.25-.99h-6.47V-6.47zm0 0h6.47v-.97-2.26-2.25-.99h-6.47V-6.47zm9.7 0H55v-.97-2.26-2.25-.99h-6.47V-6.47zm0 0H55v-.97-2.26-2.25-.99h-6.47V-6.47zm0 0H55v-.97-2.26-2.25-.99h-6.47V-6.47zm0 0H55v-.97-2.26-2.25-.99h-6.47V-6.47zm19.4 0h6.48v-.97-2.26-2.25-.99h-6.47V-6.47zm0 0h6.48v-.97-2.26-2.25-.99h-6.47V-6.47zm0 0h6.48v-.97-2.26-2.25-.99h-6.47V-6.47zm0 0h6.48v-.97-2.26-2.25-.99h-6.47V-6.47zm9.71 0H84.11v-.97-2.26-2.25-.99h-6.47V-6.47zm0 0H84.11v-.97-2.26-2.25-.99h-6.47V-6.47zm0 0H84.11v-.97-2.26-2.25-.99h-6.47V-6.47zm0 0H84.11v-.97-2.26-2.25-.99h-6.47V-6.47zM90.6-9.7H97.06v-.97-2.27-2.25-.98H90.6V-9.7zm0 0H97.06v-.97-2.27-2.25-.98H90.6V-9.7zm0 0H97.06v-.97-2.27-2.25-.98H90.6V-9.7zm0 0H97.06v-.97-2.27-2.25-.98H90.6V-9.7zm-51.76-3.24h6.47v-.97-2.26-2.25-.99h-6.47V-12.94zm0 0h6.47v-.97-2.26-2.25-.99h-6.47V-12.94zm0 0h6.47v-.97-2.26-2.25-.99h-6.47V-12.94zm0 0h6.47v-.97-2.26-2.25-.99h-6.47V-12.94zm9.7 0H55v-.97-2.26-2.25-.99h-6.47V-12.94zm0 0H55v-.97-2.26-2.25-.99h-6.47V-12.94zm0 0H55v-.97-2.26-2.25-.99h-6.47V-12.94zm0 0H55v-.97-2.26-2.25-.99h-6.47V-12.94zm6.47 0h6.47v-.97-2.26-2.25-.99H55V-12.94zm0 0h6.47v-.97-2.26-2.25-.99H55V-12.94zm0 0h6.47v-.97-2.26-2.25-.99H55V-12.94zm0 0h6.47v-.97-2.26-2.25-.99H55V-12.94zm6.47 0h6.47v-.97-2.26-2.25-.99h-6.47V-12.94zm0 0h6.47v-.97-2.26-2.25-.99h-6.47V-12.94zm0 0h6.47v-.97-2.26-2.25-.99h-6.47V-12.94zm0 0h6.47v-.97-2.26-2.25-.99h-6.47V-12.94zm6.47 0h6.47v-.97-2.26-2.25-.99h-6.47V-12.94zm0 0h6.47v-.97-2.26-2.25-.99h-6.47V-12.94zm0 0h6.47v-.97-2.26-2.25-.99h-6.47V-12.94zm0 0h6.47v-.97-2.26-2.25-.99h-6.47V-12.94zm9.7 0H84.11v-.97-2.26-2.25-.99h-6.47V-12.94zm0 0H84.11v-.97-2.26-2.25-.99h-6.47V-12.94zm0 0H84.11v-.97-2.26-2.25-.99h-6.47V-12.94zm0 0H84.11v-.97-2.26-2.25-.99h-6.47V-12.94zm9.72-3.23h6.47v-.97-2.27-2.25-.98h-6.47V-16.17zm0 0h6.47v-.97-2.27-2.25-.98h-6.47V-16.17zm0 0h6.47v-.97-2.27-2.25-.98h-6.47V-16.17zm0 0h6.47v-.97-2.27-2.25-.98h-6.47V-16.17zm-55-3.24h6.47v-.96-2.27-2.25-.98h-6.47v6.46zm0 0h6.47v-.96-2.27-2.25-.98h-6.47v6.46zm0 0h6.47v-.96-2.27-2.25-.98h-6.47v6.46zm0 0h6.47v-.96-2.27-2.25-.98h-6.47v6.46zm6.47 0h6.47v-.96-2.27-2.25-.98h-6.47v6.46zm0 0h6.47v-.96-2.27-2.25-.98h-6.47v6.46zm0 0h6.47v-.96-2.27-2.25-.98h-6.47v6.46zm0 0h6.47v-.96-2.27-2.25-.98h-6.47v6.46zm6.47 0h6.47v-.96-2.27-2.25-.98H45.3v6.46zm0 0h6.47v-.96-2.27-2.25-.98H45.3v6.46zm0 0h6.47v-.96-2.27-2.25-.98H45.3v6.46zm0 0h6.47v-.96-2.27-2.25-.98H45.3v6.46zm6.47 0H58.23v-.96-2.27-2.25-.98h-6.46v6.46zm0 0H58.23v-.96-2.27-2.25-.98h-6.46v6.46zm0 0H58.23v-.96-2.27-2.25-.98h-6.46v6.46zm0 0H58.23v-.96-2.27-2.25-.98h-6.46v6.46zm6.46 0H64.7v-.96-2.27-2.25-.98h-6.47v6.46zm0 0H64.7v-.96-2.27-2.25-.98h-6.47v6.46zm0 0H64.7v-.96-2.27-2.25-.98h-6.47v6.46zm0 0H64.7v-.96-2.27-2.25-.98h-6.47v6.46zm6.47 0H71.17v-.96-2.27-2.25-.98H64.7v6.46zm0 0H71.17v-.96-2.27-2.25-.98H64.7v6.46zm0 0H71.17v-.96-2.27-2.25-.98H64.7v6.46zm0 0H71.17v-.96-2.27-2.25-.98H64.7v6.46zm6.47 0H77.64v-.96-2.27-2.25-.98h-6.47v6.46zm0 0H77.64v-.96-2.27-2.25-.98h-6.47v6.46zm0 0H77.64v-.96-2.27-2.25-.98h-6.47v6.46zm0 0H77.64v-.96-2.27-2.25-.98h-6.47v6.46zm6.47 0H84.11v-.96-2.27-2.25-.98h-6.47v6.46zm0 0H84.11v-.96-2.27-2.25-.98h-6.47v6.46zm0 0H84.11v-.96-2.27-2.25-.98h-6.47v6.46zm0 0H84.11v-.96-2.27-2.25-.98h-6.47v6.46zm6.48-3.23H90.6v-.97-2.27-2.25-.98h-6.47V-22.64zm0 0H90.6v-.97-2.27-2.25-.98h-6.47V-22.64zm0 0H90.6v-.97-2.27-2.25-.98h-6.47V-22.64zm0 0H90.6v-.97-2.27-2.25-.98h-6.47V-22.64zm-71.18-3.23h6.47v-.97-2.27-2.25-.98h-6.47v6.46zm0 0h6.47v-.97-2.27-2.25-.98h-6.47v6.46zm0 0h6.47v-.97-2.27-2.25-.98h-6.47v6.46zm0 0h6.47v-.97-2.27-2.25-.98h-6.47v6.46zm6.47 0H25.87v-.97-2.27-2.25-.98h-6.46v6.46zm0 0H25.87v-.97-2.27-2.25-.98h-6.46v6.46zm0 0H25.87v-.97-2.27-2.25-.98h-6.46v6.46zm0 0H25.87v-.97-2.27-2.25-.98h-6.46v6.46zm6.46 0H32.34v-.97-2.27-2.25-.98h-6.46v6.46zm0 0H32.34v-.97-2.27-2.25-.98h-6.46v6.46zm0 0H32.34v-.97-2.27-2.25-.98h-6.46v6.46zm0 0H32.34v-.97-2.27-2.25-.98h-6.46v6.46zm6.49 0h6.47v-.97-2.27-2.25-.98h-6.47v6.46zm0 0h6.47v-.97-2.27-2.25-.98h-6.47v6.46zm0 0h6.47v-.97-2.27-2.25-.98h-6.47v6.46zm0 0h6.47v-.97-2.27-2.25-.98h-6.47v6.46zm6.47 0h6.47v-.97-2.27-2.25-.98h-6.47v6.46zm0 0h6.47v-.97-2.27-2.25-.98h-6.47v6.46zm0 0h6.47v-.97-2.27-2.25-.98h-6.47v6.46zm0 0h6.47v-.97-2.27-2.25-.98h-6.47v6.46zm6.47 0h6.47v-.97-2.27-2.25-.98H45.3v6.46zm0 0h6.47v-.97-2.27-2.25-.98H45.3v6.46zm0 0h6.47v-.97-2.27-2.25-.98H45.3v6.46zm0 0h6.47v-.97-2.27-2.25-.98H45.3v6.46zm6.47 0H58.23v-.97-2.27-2.25-.98h-6.46v6.46zm0 0H58.23v-.97-2.27-2.25-.98h-6.46v6.46zm0 0H58.23v-.97-2.27-2.25-.98h-6.46v6.46zm0 0H58.23v-.97-2.27-2.25-.98h-6.46v6.46zm6.46 0H64.7v-.97-2.27-2.25-.98h-6.47v6.46zm0 0H64.7v-.97-2.27-2.25-.98h-6.47v6.46zm0 0H64.7v-.97-2.27-2.25-.98h-6.47v6.46zm0 0H64.7v-.97-2.27-2.25-.98h-6.47v6.46zm6.47 0H71.17v-.97-2.27-2.25-.98H64.7v6.46zm0 0H71.17v-.97-2.27-2.25-.98H64.7v6.46zm0 0H71.17v-.97-2.27-2.25-.98H64.7v6.46zm0 0H71.17v-.97-2.27-2.25-.98H64.7v6.46zm6.47 0H77.64v-.97-2.27-2.25-.98h-6.47v6.46zm0 0H77.64v-.97-2.27-2.25-.98h-6.47v6.46zm0 0H77.64v-.97-2.27-2.25-.98h-6.47v6.46zm0 0H77.64v-.97-2.27-2.25-.98h-6.47v6.46zm6.47 0H84.11v-.97-2.27-2.25-.98h-6.47v6.46zm0 0H84.11v-.97-2.27-2.25-.98h-6.47v6.46zm0 0H84.11v-.97-2.27-2.25-.98h-6.47v6.46zm0 0H84.11v-.97-2.27-2.25-.98h-6.47v6.46zM9.7-32.37H16.17v-.97-2.26-2.25-.99H9.7V-32.36zm0 0H16.17v-.97-2.26-2.25-.99H9.7V-32.36zm0 0H16.17v-.97-2.26-2.25-.99H9.7V-32.36zm0 0H16.17v-.97-2.26-2.25-.99H9.7V-32.36zm6.47 0H22.64v-.97-2.26-2.25-.99h-6.47V-32.36zm0 0H22.64v-.97-2.26-2.25-.99h-6.47V-32.36zm0 0H22.64v-.97-2.26-2.25-.99h-6.47V-32.36zm0 0H22.64v-.97-2.26-2.25-.99h-6.47V-32.36zm6.47 0H29.11v-.97-2.26-2.25-.99h-6.47V-32.36zm0 0H29.11v-.97-2.26-2.25-.99h-6.47V-32.36zm0 0H29.11v-.97-2.26-2.25-.99h-6.47V-32.36zm0 0H29.11v-.97-2.26-2.25-.99h-6.47V-32.36zm9.72 0h6.47v-.97-2.26-2.25-.99h-6.47V-32.36zm0 0h6.47v-.97-2.26-2.25-.99h-6.47V-32.36zm0 0h6.47v-.97-2.26-2.25-.99h-6.47V-32.36zm0 0h6.47v-.97-2.26-2.25-.99h-6.47V-32.36zm6.47 0h6.47v-.97-2.26-2.25-.99h-6.47V-32.36zm0 0h6.47v-.97-2.26-2.25-.99h-6.47V-32.36zm0 0h6.47v-.97-2.26-2.25-.99h-6.47V-32.36zm0 0h6.47v-.97-2.26-2.25-.99h-6.47V-32.36zm-12.95-6.47H32.34v-.97-2.26-2.25-.99h-6.46V-38.83zm0 0H32.34v-.97-2.26-2.25-.99h-6.46V-38.83zm0 0H32.34v-.97-2.26-2.25-.99h-6.46V-38.83zm0 0H32.34v-.97-2.26-2.25-.99h-6.46V-38.83zm6.48 0h6.47v-.97-2.26-2.25-.99h-6.47V-38.83zm0 0h6.47v-.97-2.26-2.25-.99h-6.47V-38.83zm0 0h6.47v-.97-2.26-2.25-.99h-6.47V-38.83zm0 0h6.47v-.97-2.26-2.25-.99h-6.47V-38.83zm0-6.47h6.47v-.97-2.26-2.25-.99h-6.47V-45.3zm0 0h6.47v-.97-2.26-2.25-.99h-6.47V-45.3zm0 0h6.47v-.97-2.26-2.25-.99h-6.47V-45.3zm0 0h6.47v-.97-2.26-2.25-.99h-6.47V-45.3zm0-6.47h6.47v-.96V-55v-2.25-.98h-6.47v6.46zm0 0h6.47v-.96V-55v-2.25-.98h-6.47v6.46zm0 0h6.47v-.96V-55v-2.25-.98h-6.47v6.46zm0 0h6.47v-.96V-55v-2.25-.98h-6.47v6.46zm0 0"/></symbol><symbol overflow="visible" id="6d2dbc6ec"><path d="M29.13 0H35.59v-.97-2.26-2.25-.99h-6.46V0zm0 0H35.59v-.97-2.26-2.25-.99h-6.46V0zm0 0H35.59v-.97-2.26-2.25-.99h-6.46V0zm0 0H35.59v-.97-2.26-2.25-.99h-6.46V0zm6.46 0H42.06v-.97-2.26-2.25-.99H35.6V0zm0 0H42.06v-.97-2.26-2.25-.99H35.6V0zm0 0H42.06v-.97-2.26-2.25-.99H35.6V0zm0 0H42.06v-.97-2.26-2.25-.99H35.6V0zm9.7 0h6.48v-.97-2.26-2.25-.99H45.3V0zm0 0h6.48v-.97-2.26-2.25-.99H45.3V0zm0 0h6.48v-.97-2.26-2.25-.99H45.3V0zm0 0h6.48v-.97-2.26-2.25-.99H45.3V0zM55 0h6.47v-.97-2.26-2.25-.99H55V0zm0 0h6.47v-.97-2.26-2.25-.99H55V0zm0 0h6.47v-.97-2.26-2.25-.99H55V0zm0 0h6.47v-.97-2.26-2.25-.99H55V0zm12.94 0h6.47v-.97-2.26-2.25-.99h-6.47V0zm0 0h6.47v-.97-2.26-2.25-.99h-6.47V0zm0 0h6.47v-.97-2.26-2.25-.99h-6.47V0zm0 0h6.47v-.97-2.26-2.25-.99h-6.47V0zm6.47 0H80.87v-.97-2.26-2.25-.99h-6.46V0zm0 0H80.87v-.97-2.26-2.25-.99h-6.46V0zm0 0H80.87v-.97-2.26-2.25-.99h-6.46V0zm0 0H80.87v-.97-2.26-2.25-.99h-6.46V0zM29.13-6.47H35.59v-.97-2.26-2.25-.99h-6.46V-6.47zm0 0H35.59v-.97-2.26-2.25-.99h-6.46V-6.47zm0 0H35.59v-.97-2.26-2.25-.99h-6.46V-6.47zm0 0H35.59v-.97-2.26-2.25-.99h-6.46V-6.47zm16.17 0h6.47v-.97-2.26-2.25-.99H45.3V-6.47zm0 0h6.47v-.97-2.26-2.25-.99H45.3V-6.47zm0 0h6.47v-.97-2.26-2.25-.99H45.3V-6.47zm0 0h6.47v-.97-2.26-2.25-.99H45.3V-6.47zm9.7 0h6.47v-.97-2.26-2.25-.99H55V-6.47zm0 0h6.47v-.97-2.26-2.25-.99H55V-6.47zm0 0h6.47v-.97-2.26-2.25-.99H55V-6.47zm0 0h6.47v-.97-2.26-2.25-.99H55V-6.47zm12.94 0h6.47v-.97-2.26-2.25-.99h-6.47V-6.47zm0 0h6.47v-.97-2.26-2.25-.99h-6.47V-6.47zm0 0h6.47v-.97-2.26-2.25-.99h-6.47V-6.47zm0 0h6.47v-.97-2.26-2.25-.99h-6.47V-6.47zm-38.81-6.47H35.59v-.97-2.26-2.25-.99h-6.46V-12.94zm0 0H35.59v-.97-2.26-2.25-.99h-6.46V-12.94zm0 0H35.59v-.97-2.26-2.25-.99h-6.46V-12.94zm0 0H35.59v-.97-2.26-2.25-.99h-6.46V-12.94zm6.46 0H42.06v-.97-2.26-2.25-.99H35.6V-12.94zm0 0H42.06v-.97-2.26-2.25-.99H35.6V-12.94zm0 0H42.06v-.97-2.26-2.25-.99H35.6V-12.94zm0 0H42.06v-.97-2.26-2.25-.99H35.6V-12.94zm6.47 0H48.53v-.97-2.26-2.25-.99h-6.47V-12.94zm0 0H48.53v-.97-2.26-2.25-.99h-6.47V-12.94zm0 0H48.53v-.97-2.26-2.25-.99h-6.47V-12.94zm0 0H48.53v-.97-2.26-2.25-.99h-6.47V-12.94zm6.47 0H55v-.97-2.26-2.25-.99h-6.47V-12.94zm0 0H55v-.97-2.26-2.25-.99h-6.47V-12.94zm0 0H55v-.97-2.26-2.25-.99h-6.47V-12.94zm0 0H55v-.97-2.26-2.25-.99h-6.47V-12.94zm6.47 0h6.47v-.97-2.26-2.25-.99H55V-12.94zm0 0h6.47v-.97-2.26-2.25-.99H55V-12.94zm0 0h6.47v-.97-2.26-2.25-.99H55V-12.94zm0 0h6.47v-.97-2.26-2.25-.99H55V-12.94zm6.47 0h6.47v-.97-2.26-2.25-.99h-6.47V-12.94zm0 0h6.47v-.97-2.26-2.25-.99h-6.47V-12.94zm0 0h6.47v-.97-2.26-2.25-.99h-6.47V-12.94zm0 0h6.47v-.97-2.26-2.25-.99h-6.47V-12.94zm6.47 0h6.47v-.97-2.26-2.25-.99h-6.47V-12.94zm0 0h6.47v-.97-2.26-2.25-.99h-6.47V-12.94zm0 0h6.47v-.97-2.26-2.25-.99h-6.47V-12.94zm0 0h6.47v-.97-2.26-2.25-.99h-6.47V-12.94zm6.47 0H80.87v-.97-2.26-2.25-.99h-6.46V-12.94zm0 0H80.87v-.97-2.26-2.25-.99h-6.46V-12.94zm0 0H80.87v-.97-2.26-2.25-.99h-6.46V-12.94zm0 0H80.87v-.97-2.26-2.25-.99h-6.46V-12.94zM3.23-19.4H9.7v-.96-2.27-2.25-.98H3.23v6.46zm0 0H9.7v-.96-2.27-2.25-.98H3.23v6.46zm0 0H9.7v-.96-2.27-2.25-.98H3.23v6.46zm0 0H9.7v-.96-2.27-2.25-.98H3.23v6.46zm6.47 0H16.17v-.96-2.27-2.25-.98H9.7v6.46zm0 0H16.17v-.96-2.27-2.25-.98H9.7v6.46zm0 0H16.17v-.96-2.27-2.25-.98H9.7v6.46zm0 0H16.17v-.96-2.27-2.25-.98H9.7v6.46zm6.47 0H22.64v-.96-2.27-2.25-.98h-6.47v6.46zm0 0H22.64v-.96-2.27-2.25-.98h-6.47v6.46zm0 0H22.64v-.96-2.27-2.25-.98h-6.47v6.46zm0 0H22.64v-.96-2.27-2.25-.98h-6.47v6.46zm6.47 0H29.11v-.96-2.27-2.25-.98h-6.47v6.46zm0 0H29.11v-.96-2.27-2.25-.98h-6.47v6.46zm0 0H29.11v-.96-2.27-2.25-.98h-6.47v6.46zm0 0H29.11v-.96-2.27-2.25-.98h-6.47v6.46zm6.48 0H35.6v-.96-2.27-2.25-.98h-6.46v6.46zm0 0H35.6v-.96-2.27-2.25-.98h-6.46v6.46zm0 0H35.6v-.96-2.27-2.25-.98h-6.46v6.46zm0 0H35.6v-.96-2.27-2.25-.98h-6.46v6.46zm6.47 0H42.06v-.96-2.27-2.25-.98H35.6v6.46zm0 0H42.06v-.96-2.27-2.25-.98H35.6v6.46zm0 0H42.06v-.96-2.27-2.25-.98H35.6v6.46zm0 0H42.06v-.96-2.27-2.25-.98H35.6v6.46zm6.47 0H48.53v-.96-2.27-2.25-.98h-6.47v6.46zm0 0H48.53v-.96-2.27-2.25-.98h-6.47v6.46zm0 0H48.53v-.96-2.27-2.25-.98h-6.47v6.46zm0 0H48.53v-.96-2.27-2.25-.98h-6.47v6.46zm6.47 0H55v-.96-2.27-2.25-.98h-6.47v6.46zm0 0H55v-.96-2.27-2.25-.98h-6.47v6.46zm0 0H55v-.96-2.27-2.25-.98h-6.47v6.46zm0 0H55v-.96-2.27-2.25-.98h-6.47v6.46zm6.47 0h6.47v-.96-2.27-2.25-.98H55v6.46zm0 0h6.47v-.96-2.27-2.25-.98H55v6.46zm0 0h6.47v-.96-2.27-2.25-.98H55v6.46zm0 0h6.47v-.96-2.27-2.25-.98H55v6.46zm6.47 0h6.47v-.96-2.27-2.25-.98h-6.47v6.46zm0 0h6.47v-.96-2.27-2.25-.98h-6.47v6.46zm0 0h6.47v-.96-2.27-2.25-.98h-6.47v6.46zm0 0h6.47v-.96-2.27-2.25-.98h-6.47v6.46zm6.47 0h6.47v-.96-2.27-2.25-.98h-6.47v6.46zm0 0h6.47v-.96-2.27-2.25-.98h-6.47v6.46zm0 0h6.47v-.96-2.27-2.25-.98h-6.47v6.46zm0 0h6.47v-.96-2.27-2.25-.98h-6.47v6.46zm6.47 0H80.87v-.96-2.27-2.25-.98h-6.46v6.46zm0 0H80.87v-.96-2.27-2.25-.98h-6.46v6.46zm0 0H80.87v-.96-2.27-2.25-.98h-6.46v6.46zm0 0H80.87v-.96-2.27-2.25-.98h-6.46v6.46zm6.47 0H87.34v-.96-2.27-2.25-.98h-6.47v6.46zm0 0H87.34v-.96-2.27-2.25-.98h-6.47v6.46zm0 0H87.34v-.96-2.27-2.25-.98h-6.47v6.46zm0 0H87.34v-.96-2.27-2.25-.98h-6.47v6.46zm6.48 0h6.47v-.96-2.27-2.25-.98h-6.47v6.46zm0 0h6.47v-.96-2.27-2.25-.98h-6.47v6.46zm0 0h6.47v-.96-2.27-2.25-.98h-6.47v6.46zm0 0h6.47v-.96-2.27-2.25-.98h-6.47v6.46zm6.47 0h6.47v-.96-2.27-2.25-.98h-6.47v6.46zm0 0h6.47v-.96-2.27-2.25-.98h-6.47v6.46zm0 0h6.47v-.96-2.27-2.25-.98h-6.47v6.46zm0 0h6.47v-.96-2.27-2.25-.98h-6.47v6.46zm-25.9-6.46h6.48v-.97-2.27-2.25-.98h-6.47v6.46zm0 0h6.48v-.97-2.27-2.25-.98h-6.47v6.46zm0 0h6.48v-.97-2.27-2.25-.98h-6.47v6.46zm0 0h6.48v-.97-2.27-2.25-.98h-6.47v6.46zm6.48 0H80.87v-.97-2.27-2.25-.98h-6.46v6.46zm0 0H80.87v-.97-2.27-2.25-.98h-6.46v6.46zm0 0H80.87v-.97-2.27-2.25-.98h-6.46v6.46zm0 0H80.87v-.97-2.27-2.25-.98h-6.46v6.46zm9.72 0H90.59v-.97-2.27-2.25-.98h-6.47v6.46zm0 0H90.59v-.97-2.27-2.25-.98h-6.47v6.46zm0 0H90.59v-.97-2.27-2.25-.98h-6.47v6.46zm0 0H90.59v-.97-2.27-2.25-.98h-6.47v6.46zm6.46 0H97.06v-.97-2.27-2.25-.98H90.6v6.46zm0 0H97.06v-.97-2.27-2.25-.98H90.6v6.46zm0 0H97.06v-.97-2.27-2.25-.98H90.6v6.46zm0 0H97.06v-.97-2.27-2.25-.98H90.6v6.46zm6.47 0H103.53v-.97-2.27-2.25-.98h-6.47v6.46zm0 0H103.53v-.97-2.27-2.25-.98h-6.47v6.46zm0 0H103.53v-.97-2.27-2.25-.98h-6.47v6.46zm0 0H103.53v-.97-2.27-2.25-.98h-6.47v6.46zm-22.65-6.49H80.87v-.97-2.26-2.25-.99h-6.46V-32.36zm0 0H80.87v-.97-2.26-2.25-.99h-6.46V-32.36zm0 0H80.87v-.97-2.26-2.25-.99h-6.46V-32.36zm0 0H80.87v-.97-2.26-2.25-.99h-6.46V-32.36zm6.47 0H87.34v-.97-2.26-2.25-.99h-6.47V-32.36zm0 0H87.34v-.97-2.26-2.25-.99h-6.47V-32.36zm0 0H87.34v-.97-2.26-2.25-.99h-6.47V-32.36zm0 0H87.34v-.97-2.26-2.25-.99h-6.47V-32.36zm-6.47-6.47H80.87v-.97-2.26-2.25-.99h-6.46V-38.83zm0 0H80.87v-.97-2.26-2.25-.99h-6.46V-38.83zm0 0H80.87v-.97-2.26-2.25-.99h-6.46V-38.83zm0 0H80.87v-.97-2.26-2.25-.99h-6.46V-38.83zm0 0"/></symbol><symbol overflow="visible" id="6d2dbc6ed"><path d="M3.83 0v-5.95H6.2v-.82H.45v.82h2.4V0zm0 0"/></symbol><symbol overflow="visible" id="6d2dbc6ee"><path d="M5.75-2.23v-.43c0-1.6-.9-2.51-2.42-2.51S.87-4.16.87-2.48c0 1.71.91 2.62 2.5 2.62 1.43 0 2.07-.56 2.29-1.52l-.9-.09c-.18.61-.59.9-1.35.9-.94 0-1.52-.54-1.58-1.66zm-2.4-2.2c.93 0 1.43.5 1.48 1.55H1.84c.08-1.07.6-1.56 1.5-1.56zm0 0"/></symbol><symbol overflow="visible" id="6d2dbc6ef"><path d="M1.83 0l1.42-2h.06l1.46 2H5.8L4-2.53l1.78-2.49H4.8L3.42-3.08h-.08l-1.4-1.94H.89l1.78 2.49L.84 0zm0 0"/></symbol><symbol overflow="visible" id="6d2dbc6eg"><path d="M5.52-4.25v-.77H3.17v-1.56h-.81l-.14 1.56H.75v.77h1.47v2.4c0 1.3.48 1.94 1.84 1.94C4.6.1 5.14 0 5.55-.14L5.4-.91c-.32.13-.72.2-1.13.2-.8 0-1.1-.37-1.1-1.23v-2.31zm0 0"/></symbol><symbol overflow="visible" id="6d2dbc6eh"><path d="M3.33-3.42c.47 0 .8-.27.8-.8 0-.51-.33-.8-.8-.8-.47 0-.8.29-.8.8 0 .53.33.8.8.8zm0 3.5c.47 0 .8-.27.8-.78 0-.53-.33-.82-.8-.82-.47 0-.8.29-.8.82 0 .51.33.78.8.78zm0 0"/></symbol><symbol overflow="visible" id="6d2dbc6ej"><path d="M4.63-6.5c.45 0 .98.08 1.39.2l.2-.72a5.3 5.3 0 00-1.64-.26c-1.52 0-2.16.56-2.16 1.87v.4H.9v.76h1.53V0h.94v-4.25h2.53v-.77H3.36v-.3c0-.84.33-1.18 1.27-1.18zm0 0"/></symbol><symbol overflow="visible" id="6d2dbc6ek"><path d="M3.33.14c1.62 0 2.5-.95 2.5-2.66 0-1.68-.88-2.64-2.5-2.64-1.63 0-2.5.96-2.5 2.64 0 1.7.87 2.66 2.5 2.66zm0-.77c-1.06 0-1.52-.6-1.52-1.89 0-1.28.46-1.87 1.52-1.87 1.08 0 1.53.6 1.53 1.87 0 1.29-.45 1.9-1.53 1.9zm0 0"/></symbol><symbol overflow="visible" id="6d2dbc6el"><path d="M2.44 0l.87-3.31h.06L4.25 0H5.3l1.03-5.02h-.88l-.73 3.94h-.08L3.77-4.4h-.85l-.87 3.33h-.08l-.75-3.94H.34L1.36 0zm0 0"/></symbol><symbol overflow="visible" id="6d2dbc6em"><path d="M3.92-7.14H1.36v.76h1.6v5.61H1.15V0H5.7v-.77H3.92zm0 0"/></symbol><symbol overflow="visible" id="6d2dbc6en"><path d="M5.08-5.16c-.94 0-1.58.43-1.9 1.3h-.09l-.07-1.16H1.05v.77h1.1v3.48H.96V0h3.96v-.77H3.1v-1.46c0-1.36.6-2.05 1.83-2.05.4 0 .76.08 1.1.17l.15-.87c-.33-.11-.7-.18-1.11-.18zm0 0"/></symbol><symbol overflow="visible" id="6d2dbc6eo"><path d="M3.58-5.81c.42 0 .72-.22.72-.67 0-.44-.3-.68-.72-.68-.44 0-.72.24-.72.68 0 .45.28.67.72.67zm.5.8H1.52v.76h1.6v3.48h-1.8V0h4.46v-.77h-1.7zm0 0"/></symbol><symbol overflow="visible" id="6d2dbc6ep"><path d="M3.16 2.03c1.67 0 2.4-.86 2.4-2.51v-4.54h-.81l-.13.91h-.06c-.26-.58-.8-1.05-1.73-1.05-1.42 0-2.24 1-2.24 2.52 0 1.6.75 2.56 2.2 2.56.94 0 1.5-.5 1.77-1.03h.05v.72c0 1.17-.42 1.67-1.45 1.67-.93 0-1.3-.34-1.41-.89L.8.5c.12.96.87 1.54 2.36 1.54zM3.06-.8c-.98 0-1.48-.57-1.48-1.82 0-1.13.5-1.75 1.48-1.75 1.06 0 1.58.76 1.58 1.75 0 .95-.56 1.82-1.58 1.82zm0 0"/></symbol><symbol overflow="visible" id="6d2dbc6eq"><path d="M2.16 0v-2.69c0-.98.6-1.6 1.46-1.6.74 0 1.07.4 1.07 1.2V0h.95v-3.31c0-1.17-.56-1.85-1.67-1.85-.9 0-1.44.46-1.75 1.08h-.06v-3.06H1.2V0zm0 0"/></symbol><symbol overflow="visible" id="6d2dbc6er"><path d="M5.95-6.77H1.1V0h.99v-2.92H5.3v-.77H2.08v-2.26h3.87zm0 0"/></symbol><symbol overflow="visible" id="6d2dbc6es"><path d="M2.83.14c.94 0 1.5-.39 1.81-.95h.08l.1.81h.76v-3.38c0-1.23-.69-1.8-2.13-1.8-1.43 0-2.03.65-2.18 1.6l.93.1c.11-.6.44-.93 1.22-.93.85 0 1.22.32 1.22 1.04v.34l-1.81.2C1.6-2.7 1.1-2.17 1.1-1.28c0 .92.64 1.42 1.72 1.42zm.25-.77c-.67 0-1.02-.28-1.02-.74 0-.44.28-.72 1-.82l1.58-.19v.41c0 .8-.6 1.34-1.56 1.34zm0 0"/></symbol><symbol overflow="visible" id="6d2dbc6et"><path d="M2.73.14c.9 0 1.43-.45 1.74-1.08h.06l.13.94h.8v-5.02h-.94v2.7c0 .98-.57 1.62-1.46 1.62-.75 0-1.1-.4-1.1-1.22v-3.1h-.93v3.32c0 1.17.55 1.84 1.7 1.84zm0 0"/></symbol><symbol overflow="visible" id="6d2dbc6eu"><path d="M3.36.16c1.4 0 2.2-.6 2.2-1.57 0-.89-.54-1.22-1.47-1.39L3-3c-.67-.14-.86-.33-.86-.73 0-.5.4-.74 1.17-.74.83 0 1.19.27 1.27.8l.9-.05c-.12-1-.8-1.47-2.17-1.47-1.34 0-2.1.53-2.1 1.5 0 .81.45 1.22 1.52 1.44l1.04.2c.56.11.87.24.87.72 0 .52-.45.78-1.28.78-.95 0-1.36-.28-1.42-.87l-.9.06C1.07-.36 1.8.16 3.35.16zm0 0"/></symbol><symbol overflow="visible" id="6d2dbc6ev"><path d="M5.4-1.22c.43-.66.66-1.51.66-2.44l-.83-.09c0 .75-.14 1.4-.4 1.92l-1.7-1.83c.8-.42 1.39-.96 1.39-1.86 0-.87-.66-1.4-1.61-1.4-1.14 0-1.72.62-1.72 1.47 0 .72.47 1.3.83 1.68-.8.41-1.52.99-1.52 2.1C.5-.44 1.52.14 2.7.14c.9 0 1.64-.3 2.2-.78l.58.64h1.05zM2.86-6.25c.44 0 .82.23.82.73 0 .7-.47 1.11-1 1.41-.47-.53-.67-.92-.67-1.34 0-.47.3-.8.85-.8zM2.81-.62c-.83 0-1.42-.41-1.42-1.18 0-.76.5-1.18 1.05-1.5l1.94 2.1c-.4.37-.91.57-1.57.57zm0 0"/></symbol><symbol overflow="visible" id="6d2dbc6ew"><path d="M1.45-2.95c0 2.56 1.08 4.37 3.67 4.84l.11-.67C3.28.86 2.43-.75 2.43-2.95s.85-3.82 2.8-4.16l-.1-.69c-2.6.49-3.68 2.3-3.68 4.85zm0 0"/></symbol><symbol overflow="visible" id="6d2dbc6ex"><path d="M2.84.14C3.8.14 4.33-.26 4.6-.9h.07L4.8 0h.76v-7.14h-.95v2.95h-.08c-.28-.6-.86-.97-1.67-.97-1.48 0-2.27.99-2.27 2.64C.6-.84 1.36.14 2.84.14zm.22-.8c-.98 0-1.48-.59-1.48-1.84s.5-1.86 1.48-1.86c1.13 0 1.58.8 1.58 1.86S4.2-.66 3.06-.66zm0 0"/></symbol><symbol overflow="visible" id="6d2dbc6ey"><path d="M1.45-7.1c1.96.33 2.8 1.94 2.8 4.15 0 2.2-.84 3.8-2.8 4.17l.11.67c2.58-.47 3.67-2.28 3.67-4.84 0-2.55-1.09-4.36-3.67-4.85zm0 0"/></symbol></defs><g fill="#eaf734"><use xlink:href="#6d2dbc6ea" x="118.8235" y="165"/><use xlink:href="#6d2dbc6eb" x="245" y="165"/><use xlink:href="#6d2dbc6ec" x="374.4118" y="165"/><use xlink:href="#6d2dbc6ed" x="213.3333" y="252"/><use xlink:href="#6d2dbc6ee" x="220.0003" y="252"/><use xlink:href="#6d2dbc6ef" x="226.6673" y="252"/><use xlink:href="#6d2dbc6eg" x="233.3343" y="252"/><use xlink:href="#6d2dbc6eh" x="240.0013" y="252"/><use xlink:href="#6d2dbc6ei" x="246.6683" y="252"/><use xlink:href="#6d2dbc6eh" x="253.3353" y="252"/><use xlink:href="#6d2dbc6ej" x="260.0023" y="252"/><use xlink:href="#6d2dbc6ek" x="266.6693" y="252"/><use xlink:href="#6d2dbc6ef" x="273.3363" y="252"/><use xlink:href="#6d2dbc6ei" x="280.0033" y="252"/><use xlink:href="#6d2dbc6eh" x="286.6703" y="252"/><use xlink:href="#6d2dbc6el" x="293.3373" y="252"/><use xlink:href="#6d2dbc6ek" x="300.0043" y="252"/><use xlink:href="#6d2dbc6em" x="306.6713" y="252"/><use xlink:href="#6d2dbc6ej" x="313.3383" y="252"/><use xlink:href="#6d2dbc6ei" x="320.0053" y="252"/><use xlink:href="#6d2dbc6eh" x="326.6723" y="252"/><use xlink:href="#6d2dbc6en" x="333.3393" y="252"/><use xlink:href="#6d2dbc6eo" x="340.0063" y="252"/><use xlink:href="#6d2dbc6ep" x="346.6733" y="252"/><use xlink:href="#6d2dbc6eq" x="353.3403" y="252"/><use xlink:href="#6d2dbc6eg" x="360.0073" y="252"/><use xlink:href="#6d2dbc6ej" x="366.6743" y="252"/><use xlink:href="#6d2dbc6ek" x="373.3413" y="252"/><use xlink:href="#6d2dbc6ef" x="380.0083" y="252"/><g><use xlink:href="#6d2dbc6er" x="203.3333" y="266"/><use xlink:href="#6d2dbc6ee" x="210.0003" y="266"/><use xlink:href="#6d2dbc6es" x="216.6673" y="266"/><use xlink:href="#6d2dbc6eg" x="223.3343" y="266"/><use xlink:href="#6d2dbc6et" x="230.0013" y="266"/><use xlink:href="#6d2dbc6en" x="236.6683" y="266"/><use xlink:href="#6d2dbc6ee" x="243.3353" y="266"/><use xlink:href="#6d2dbc6eh" x="250.0023" y="266"/><use xlink:href="#6d2dbc6ei" x="256.6693" y="266"/><use xlink:href="#6d2dbc6er" x="263.3363" y="266"/><use xlink:href="#6d2dbc6ek" x="270.0033" y="266"/><use xlink:href="#6d2dbc6ef" x="276.6703" y="266"/><use xlink:href="#6d2dbc6ee" x="283.3373" y="266"/><use xlink:href="#6d2dbc6eu" x="290.0043" y="266"/><use xlink:href="#6d2dbc6ei" x="296.6713" y="266"/><use xlink:href="#6d2dbc6ev" x="303.3383" y="266"/><use xlink:href="#6d2dbc6ei" x="310.0053" y="266"/><use xlink:href="#6d2dbc6el" x="316.6723" y="266"/><use xlink:href="#6d2dbc6ek" x="323.3393" y="266"/><use xlink:href="#6d2dbc6em" x="330.0063" y="266"/><use xlink:href="#6d2dbc6ej" x="336.6733" y="266"/><use xlink:href="#6d2dbc6eu" x="343.3403" y="266"/><use xlink:href="#6d2dbc6ei" x="350.0073" y="266"/><use xlink:href="#6d2dbc6ew" x="356.6743" y="266"/><use xlink:href="#6d2dbc6ex" x="363.3413" y="266"/><use xlink:href="#6d2dbc6em" x="370.0083" y="266"/><use xlink:href="#6d2dbc6eo" x="376.6753" y="266"/><use xlink:href="#6d2dbc6ep" x="383.3423" y="266"/><use xlink:href="#6d2dbc6ey" x="390.0093" y="266"/></g></g></svg>