<?xml version='1.0' encoding='UTF-8'?>
<svg xmlns="http://www.w3.org/2000/svg" xmlns:xlink="http://www.w3.org/1999/xlink" width="600px" height="300px" viewBox="0 0 600 300" x="0px" y="0px" enable-background="new 0 0 600 300"><defs><symbol overflow="visible" id="f10403d9a"><path d="M19.4 0H25.88v-.97-2.26-2.25-.99h-6.46V0zm0 0H25.88v-.97-2.26-2.25-.99h-6.46V0zm0 0H25.88v-.97-2.26-2.25-.99h-6.46V0zm0 0H25.88v-.97-2.26-2.25-.99h-6.46V0zm6.48 0H32.34v-.97-2.26-2.25-.99h-6.46V0zm0 0H32.34v-.97-2.26-2.25-.99h-6.46V0zm0 0H32.34v-.97-2.26-2.25-.99h-6.46V0zm0 0H32.34v-.97-2.26-2.25-.99h-6.46V0zm6.48 0h6.47v-.97-2.26-2.25-.99h-6.47V0zm0 0h6.47v-.97-2.26-2.25-.99h-6.47V0zm0 0h6.47v-.97-2.26-2.25-.99h-6.47V0zm0 0h6.47v-.97-2.26-2.25-.99h-6.47V0zm6.47 0h6.47v-.97-2.26-2.25-.99h-6.47V0zm0 0h6.47v-.97-2.26-2.25-.99h-6.47V0zm0 0h6.47v-.97-2.26-2.25-.99h-6.47V0zm0 0h6.47v-.97-2.26-2.25-.99h-6.47V0zm6.47 0h6.47v-.97-2.26-2.25-.99H45.3V0zm0 0h6.47v-.97-2.26-2.25-.99H45.3V0zm0 0h6.47v-.97-2.26-2.25-.99H45.3V0zm0 0h6.47v-.97-2.26-2.25-.99H45.3V0zM12.94-6.47h6.47v-.97-2.26-2.25-.99h-6.47V-6.47zm0 0h6.47v-.97-2.26-2.25-.99h-6.47V-6.47zm0 0h6.47v-.97-2.26-2.25-.99h-6.47V-6.47zm0 0h6.47v-.97-2.26-2.25-.99h-6.47V-6.47zm6.47 0H25.87v-.97-2.26-2.25-.99h-6.46V-6.47zm0 0H25.87v-.97-2.26-2.25-.99h-6.46V-6.47zm0 0H25.87v-.97-2.26-2.25-.99h-6.46V-6.47zm0 0H25.87v-.97-2.26-2.25-.99h-6.46V-6.47zm6.46 0H32.34v-.97-2.26-2.25-.99h-6.46V-6.47zm0 0H32.34v-.97-2.26-2.25-.99h-6.46V-6.47zm0 0H32.34v-.97-2.26-2.25-.99h-6.46V-6.47zm0 0H32.34v-.97-2.26-2.25-.99h-6.46V-6.47zm12.96 0h6.47v-.97-2.26-2.25-.99h-6.47V-6.47zm0 0h6.47v-.97-2.26-2.25-.99h-6.47V-6.47zm0 0h6.47v-.97-2.26-2.25-.99h-6.47V-6.47zm0 0h6.47v-.97-2.26-2.25-.99h-6.47V-6.47zm6.47 0h6.47v-.97-2.26-2.25-.99H45.3V-6.47zm0 0h6.47v-.97-2.26-2.25-.99H45.3V-6.47zm0 0h6.47v-.97-2.26-2.25-.99H45.3V-6.47zm0 0h6.47v-.97-2.26-2.25-.99H45.3V-6.47zm6.47 0H58.23v-.97-2.26-2.25-.99h-6.46V-6.47zm0 0H58.23v-.97-2.26-2.25-.99h-6.46V-6.47zm0 0H58.23v-.97-2.26-2.25-.99h-6.46V-6.47zm0 0H58.23v-.97-2.26-2.25-.99h-6.46V-6.47zm-38.83-6.47h6.47v-.97-2.26-2.25-.99h-6.47V-12.94zm0 0h6.47v-.97-2.26-2.25-.99h-6.47V-12.94zm0 0h6.47v-.97-2.26-2.25-.99h-6.47V-12.94zm0 0h6.47v-.97-2.26-2.25-.99h-6.47V-12.94zm6.47 0H25.87v-.97-2.26-2.25-.99h-6.46V-12.94zm0 0H25.87v-.97-2.26-2.25-.99h-6.46V-12.94zm0 0H25.87v-.97-2.26-2.25-.99h-6.46V-12.94zm0 0H25.87v-.97-2.26-2.25-.99h-6.46V-12.94zm6.46 0H32.34v-.97-2.26-2.25-.99h-6.46V-12.94zm0 0H32.34v-.97-2.26-2.25-.99h-6.46V-12.94zm0 0H32.34v-.97-2.26-2.25-.99h-6.46V-12.94zm0 0H32.34v-.97-2.26-2.25-.99h-6.46V-12.94zm6.49 0h6.47v-.97-2.26-2.25-.99h-6.47V-12.94zm0 0h6.47v-.97-2.26-2.25-.99h-6.47V-12.94zm0 0h6.47v-.97-2.26-2.25-.99h-6.47V-12.94zm0 0h6.47v-.97-2.26-2.25-.99h-6.47V-12.94zm6.47 0h6.47v-.97-2.26-2.25-.99h-6.47V-12.94zm0 0h6.47v-.97-2.26-2.25-.99h-6.47V-12.94zm0 0h6.47v-.97-2.26-2.25-.99h-6.47V-12.94zm0 0h6.47v-.97-2.26-2.25-.99h-6.47V-12.94zm6.47 0h6.47v-.97-2.26-2.25-.99H45.3V-12.94zm0 0h6.47v-.97-2.26-2.25-.99H45.3V-12.94zm0 0h6.47v-.97-2.26-2.25-.99H45.3V-12.94zm0 0h6.47v-.97-2.26-2.25-.99H45.3V-12.94zm6.47 0H58.23v-.97-2.26-2.25-.99h-6.46V-12.94zm0 0H58.23v-.97-2.26-2.25-.99h-6.46V-12.94zm0 0H58.23v-.97-2.26-2.25-.99h-6.46V-12.94zm0 0H58.23v-.97-2.26-2.25-.99h-6.46V-12.94zM12.94-19.4h6.47v-.96-2.27-2.25-.98h-6.47v6.46zm0 0h6.47v-.96-2.27-2.25-.98h-6.47v6.46zm0 0h6.47v-.96-2.27-2.25-.98h-6.47v6.46zm0 0h6.47v-.96-2.27-2.25-.98h-6.47v6.46zm6.47 0H25.87v-.96-2.27-2.25-.98h-6.46v6.46zm0 0H25.87v-.96-2.27-2.25-.98h-6.46v6.46zm0 0H25.87v-.96-2.27-2.25-.98h-6.46v6.46zm0 0H25.87v-.96-2.27-2.25-.98h-6.46v6.46zm6.46 0H32.34v-.96-2.27-2.25-.98h-6.46v6.46zm0 0H32.34v-.96-2.27-2.25-.98h-6.46v6.46zm0 0H32.34v-.96-2.27-2.25-.98h-6.46v6.46zm0 0H32.34v-.96-2.27-2.25-.98h-6.46v6.46zm12.96 0h6.47v-.96-2.27-2.25-.98h-6.47v6.46zm0 0h6.47v-.96-2.27-2.25-.98h-6.47v6.46zm0 0h6.47v-.96-2.27-2.25-.98h-6.47v6.46zm0 0h6.47v-.96-2.27-2.25-.98h-6.47v6.46zm6.47 0h6.47v-.96-2.27-2.25-.98H45.3v6.46zm0 0h6.47v-.96-2.27-2.25-.98H45.3v6.46zm0 0h6.47v-.96-2.27-2.25-.98H45.3v6.46zm0 0h6.47v-.96-2.27-2.25-.98H45.3v6.46zm6.47 0H58.23v-.96-2.27-2.25-.98h-6.46v6.46zm0 0H58.23v-.96-2.27-2.25-.98h-6.46v6.46zm0 0H58.23v-.96-2.27-2.25-.98h-6.46v6.46zm0 0H58.23v-.96-2.27-2.25-.98h-6.46v6.46zM19.4-25.87H25.87v-.97-2.27-2.25-.98h-6.46v6.46zm0 0H25.87v-.97-2.27-2.25-.98h-6.46v6.46zm0 0H25.87v-.97-2.27-2.25-.98h-6.46v6.46zm0 0H25.87v-.97-2.27-2.25-.98h-6.46v6.46zm6.46 0H32.34v-.97-2.27-2.25-.98h-6.46v6.46zm0 0H32.34v-.97-2.27-2.25-.98h-6.46v6.46zm0 0H32.34v-.97-2.27-2.25-.98h-6.46v6.46zm0 0H32.34v-.97-2.27-2.25-.98h-6.46v6.46zm6.49 0h6.47v-.97-2.27-2.25-.98h-6.47v6.46zm0 0h6.47v-.97-2.27-2.25-.98h-6.47v6.46zm0 0h6.47v-.97-2.27-2.25-.98h-6.47v6.46zm0 0h6.47v-.97-2.27-2.25-.98h-6.47v6.46zm6.47 0h6.47v-.97-2.27-2.25-.98h-6.47v6.46zm0 0h6.47v-.97-2.27-2.25-.98h-6.47v6.46zm0 0h6.47v-.97-2.27-2.25-.98h-6.47v6.46zm0 0h6.47v-.97-2.27-2.25-.98h-6.47v6.46zm6.47 0h6.47v-.97-2.27-2.25-.98H45.3v6.46zm0 0h6.47v-.97-2.27-2.25-.98H45.3v6.46zm0 0h6.47v-.97-2.27-2.25-.98H45.3v6.46zm0 0h6.47v-.97-2.27-2.25-.98H45.3v6.46zM6.47-32.37h6.47v-.97-2.26-2.25-.99H6.47V-32.36zm0 0h6.47v-.97-2.26-2.25-.99H6.47V-32.36zm0 0h6.47v-.97-2.26-2.25-.99H6.47V-32.36zm0 0h6.47v-.97-2.26-2.25-.99H6.47V-32.36zm6.47 0h6.47v-.97-2.26-2.25-.99h-6.47V-32.36zm0 0h6.47v-.97-2.26-2.25-.99h-6.47V-32.36zm0 0h6.47v-.97-2.26-2.25-.99h-6.47V-32.36zm0 0h6.47v-.97-2.26-2.25-.99h-6.47V-32.36zm12.94 0H32.34v-.97-2.26-2.25-.99h-6.46V-32.36zm0 0H32.34v-.97-2.26-2.25-.99h-6.46V-32.36zm0 0H32.34v-.97-2.26-2.25-.99h-6.46V-32.36zm0 0H32.34v-.97-2.26-2.25-.99h-6.46V-32.36zm6.48 0h6.47v-.97-2.26-2.25-.99h-6.47V-32.36zm0 0h6.47v-.97-2.26-2.25-.99h-6.47V-32.36zm0 0h6.47v-.97-2.26-2.25-.99h-6.47V-32.36zm0 0h6.47v-.97-2.26-2.25-.99h-6.47V-32.36zm6.47 0h6.47v-.97-2.26-2.25-.99h-6.47V-32.36zm0 0h6.47v-.97-2.26-2.25-.99h-6.47V-32.36zm0 0h6.47v-.97-2.26-2.25-.99h-6.47V-32.36zm0 0h6.47v-.97-2.26-2.25-.99h-6.47V-32.36zm12.94 0H58.23v-.97-2.26-2.25-.99h-6.46V-32.36zm0 0H58.23v-.97-2.26-2.25-.99h-6.46V-32.36zm0 0H58.23v-.97-2.26-2.25-.99h-6.46V-32.36zm0 0H58.23v-.97-2.26-2.25-.99h-6.46V-32.36zm6.46 0H64.7v-.97-2.26-2.25-.99h-6.47V-32.36zm0 0H64.7v-.97-2.26-2.25-.99h-6.47V-32.36zm0 0H64.7v-.97-2.26-2.25-.99h-6.47V-32.36zm0 0H64.7v-.97-2.26-2.25-.99h-6.47V-32.36zm-32.35-6.47H32.34v-.97-2.26-2.25-.99h-6.46V-38.83zm0 0H32.34v-.97-2.26-2.25-.99h-6.46V-38.83zm0 0H32.34v-.97-2.26-2.25-.99h-6.46V-38.83zm0 0H32.34v-.97-2.26-2.25-.99h-6.46V-38.83zm6.48 0h6.47v-.97-2.26-2.25-.99h-6.47V-38.83zm0 0h6.47v-.97-2.26-2.25-.99h-6.47V-38.83zm0 0h6.47v-.97-2.26-2.25-.99h-6.47V-38.83zm0 0h6.47v-.97-2.26-2.25-.99h-6.47V-38.83zm6.47 0h6.47v-.97-2.26-2.25-.99h-6.47V-38.83zm0 0h6.47v-.97-2.26-2.25-.99h-6.47V-38.83zm0 0h6.47v-.97-2.26-2.25-.99h-6.47V-38.83zm0 0h6.47v-.97-2.26-2.25-.99h-6.47V-38.83zM19.4-45.3H25.87v-.97-2.26-2.25-.99h-6.46V-45.3zm0 0H25.87v-.97-2.26-2.25-.99h-6.46V-45.3zm0 0H25.87v-.97-2.26-2.25-.99h-6.46V-45.3zm0 0H25.87v-.97-2.26-2.25-.99h-6.46V-45.3zm6.46 0H32.34v-.97-2.26-2.25-.99h-6.46V-45.3zm0 0H32.34v-.97-2.26-2.25-.99h-6.46V-45.3zm0 0H32.34v-.97-2.26-2.25-.99h-6.46V-45.3zm0 0H32.34v-.97-2.26-2.25-.99h-6.46V-45.3zm12.96 0h6.47v-.97-2.26-2.25-.99h-6.47V-45.3zm0 0h6.47v-.97-2.26-2.25-.99h-6.47V-45.3zm0 0h6.47v-.97-2.26-2.25-.99h-6.47V-45.3zm0 0h6.47v-.97-2.26-2.25-.99h-6.47V-45.3zm6.47 0h6.47v-.97-2.26-2.25-.99H45.3V-45.3zm0 0h6.47v-.97-2.26-2.25-.99H45.3V-45.3zm0 0h6.47v-.97-2.26-2.25-.99H45.3V-45.3zm0 0h6.47v-.97-2.26-2.25-.99H45.3V-45.3zm-25.9-6.47H25.88v-.96V-55v-2.25-.98h-6.46v6.46zm0 0H25.88v-.96V-55v-2.25-.98h-6.46v6.46zm0 0H25.88v-.96V-55v-2.25-.98h-6.46v6.46zm0 0H25.88v-.96V-55v-2.25-.98h-6.46v6.46zm12.96 0h6.47v-.96V-55v-2.25-.98h-6.47v6.46zm0 0h6.47v-.96V-55v-2.25-.98h-6.47v6.46zm0 0h6.47v-.96V-55v-2.25-.98h-6.47v6.46zm0 0h6.47v-.96V-55v-2.25-.98h-6.47v6.46zm12.94 0h6.47v-.96V-55v-2.25-.98H45.3v6.46zm0 0h6.47v-.96V-55v-2.25-.98H45.3v6.46zm0 0h6.47v-.96V-55v-2.25-.98H45.3v6.46zm0 0h6.47v-.96V-55v-2.25-.98H45.3v6.46zm-19.42-6.46H32.34v-.97-2.27-2.25-.98h-6.46V-58.23zm0 0H32.34v-.97-2.27-2.25-.98h-6.46V-58.23zm0 0H32.34v-.97-2.27-2.25-.98h-6.46V-58.23zm0 0H32.34v-.97-2.27-2.25-.98h-6.46V-58.23zm6.48 0h6.47v-.97-2.27-2.25-.98h-6.47V-58.23zm0 0h6.47v-.97-2.27-2.25-.98h-6.47V-58.23zm0 0h6.47v-.97-2.27-2.25-.98h-6.47V-58.23zm0 0h6.47v-.97-2.27-2.25-.98h-6.47V-58.23zm6.47 0h6.47v-.97-2.27-2.25-.98h-6.47V-58.23zm0 0h6.47v-.97-2.27-2.25-.98h-6.47V-58.23zm0 0h6.47v-.97-2.27-2.25-.98h-6.47V-58.23zm0 0h6.47v-.97-2.27-2.25-.98h-6.47V-58.23zm0 0"/></symbol><symbol overflow="visible" id="f10403d9b"><path d="M19.4 0H25.88v-.97-2.26-2.25-.99h-6.46V0zm0 0H25.88v-.97-2.26-2.25-.99h-6.46V0zm0 0H25.88v-.97-2.26-2.25-.99h-6.46V0zm0 0H25.88v-.97-2.26-2.25-.99h-6.46V0zm6.48 0H32.34v-.97-2.26-2.25-.99h-6.46V0zm0 0H32.34v-.97-2.26-2.25-.99h-6.46V0zm0 0H32.34v-.97-2.26-2.25-.99h-6.46V0zm0 0H32.34v-.97-2.26-2.25-.99h-6.46V0zm6.48 0h6.47v-.97-2.26-2.25-.99h-6.47V0zm0 0h6.47v-.97-2.26-2.25-.99h-6.47V0zm0 0h6.47v-.97-2.26-2.25-.99h-6.47V0zm0 0h6.47v-.97-2.26-2.25-.99h-6.47V0zm6.47 0h6.47v-.97-2.26-2.25-.99h-6.47V0zm0 0h6.47v-.97-2.26-2.25-.99h-6.47V0zm0 0h6.47v-.97-2.26-2.25-.99h-6.47V0zm0 0h6.47v-.97-2.26-2.25-.99h-6.47V0zm6.47 0h6.47v-.97-2.26-2.25-.99H45.3V0zm0 0h6.47v-.97-2.26-2.25-.99H45.3V0zm0 0h6.47v-.97-2.26-2.25-.99H45.3V0zm0 0h6.47v-.97-2.26-2.25-.99H45.3V0zM12.94-6.47h6.47v-.97-2.26-2.25-.99h-6.47V-6.47zm0 0h6.47v-.97-2.26-2.25-.99h-6.47V-6.47zm0 0h6.47v-.97-2.26-2.25-.99h-6.47V-6.47zm0 0h6.47v-.97-2.26-2.25-.99h-6.47V-6.47zm6.47 0H25.87v-.97-2.26-2.25-.99h-6.46V-6.47zm0 0H25.87v-.97-2.26-2.25-.99h-6.46V-6.47zm0 0H25.87v-.97-2.26-2.25-.99h-6.46V-6.47zm0 0H25.87v-.97-2.26-2.25-.99h-6.46V-6.47zm6.46 0H32.34v-.97-2.26-2.25-.99h-6.46V-6.47zm0 0H32.34v-.97-2.26-2.25-.99h-6.46V-6.47zm0 0H32.34v-.97-2.26-2.25-.99h-6.46V-6.47zm0 0H32.34v-.97-2.26-2.25-.99h-6.46V-6.47zm12.96 0h6.47v-.97-2.26-2.25-.99h-6.47V-6.47zm0 0h6.47v-.97-2.26-2.25-.99h-6.47V-6.47zm0 0h6.47v-.97-2.26-2.25-.99h-6.47V-6.47zm0 0h6.47v-.97-2.26-2.25-.99h-6.47V-6.47zm6.47 0h6.47v-.97-2.26-2.25-.99H45.3V-6.47zm0 0h6.47v-.97-2.26-2.25-.99H45.3V-6.47zm0 0h6.47v-.97-2.26-2.25-.99H45.3V-6.47zm0 0h6.47v-.97-2.26-2.25-.99H45.3V-6.47zm6.47 0H58.23v-.97-2.26-2.25-.99h-6.46V-6.47zm0 0H58.23v-.97-2.26-2.25-.99h-6.46V-6.47zm0 0H58.23v-.97-2.26-2.25-.99h-6.46V-6.47zm0 0H58.23v-.97-2.26-2.25-.99h-6.46V-6.47zm-38.83-6.47h6.47v-.97-2.26-2.25-.99h-6.47V-12.94zm0 0h6.47v-.97-2.26-2.25-.99h-6.47V-12.94zm0 0h6.47v-.97-2.26-2.25-.99h-6.47V-12.94zm0 0h6.47v-.97-2.26-2.25-.99h-6.47V-12.94zm6.47 0H25.87v-.97-2.26-2.25-.99h-6.46V-12.94zm0 0H25.87v-.97-2.26-2.25-.99h-6.46V-12.94zm0 0H25.87v-.97-2.26-2.25-.99h-6.46V-12.94zm0 0H25.87v-.97-2.26-2.25-.99h-6.46V-12.94zm6.46 0H32.34v-.97-2.26-2.25-.99h-6.46V-12.94zm0 0H32.34v-.97-2.26-2.25-.99h-6.46V-12.94zm0 0H32.34v-.97-2.26-2.25-.99h-6.46V-12.94zm0 0H32.34v-.97-2.26-2.25-.99h-6.46V-12.94zm6.49 0h6.47v-.97-2.26-2.25-.99h-6.47V-12.94zm0 0h6.47v-.97-2.26-2.25-.99h-6.47V-12.94zm0 0h6.47v-.97-2.26-2.25-.99h-6.47V-12.94zm0 0h6.47v-.97-2.26-2.25-.99h-6.47V-12.94zm6.47 0h6.47v-.97-2.26-2.25-.99h-6.47V-12.94zm0 0h6.47v-.97-2.26-2.25-.99h-6.47V-12.94zm0 0h6.47v-.97-2.26-2.25-.99h-6.47V-12.94zm0 0h6.47v-.97-2.26-2.25-.99h-6.47V-12.94zm6.47 0h6.47v-.97-2.26-2.25-.99H45.3V-12.94zm0 0h6.47v-.97-2.26-2.25-.99H45.3V-12.94zm0 0h6.47v-.97-2.26-2.25-.99H45.3V-12.94zm0 0h6.47v-.97-2.26-2.25-.99H45.3V-12.94zm6.47 0H58.23v-.97-2.26-2.25-.99h-6.46V-12.94zm0 0H58.23v-.97-2.26-2.25-.99h-6.46V-12.94zm0 0H58.23v-.97-2.26-2.25-.99h-6.46V-12.94zm0 0H58.23v-.97-2.26-2.25-.99h-6.46V-12.94zM12.94-19.4h6.47v-.96-2.27-2.25-.98h-6.47v6.46zm0 0h6.47v-.96-2.27-2.25-.98h-6.47v6.46zm0 0h6.47v-.96-2.27-2.25-.98h-6.47v6.46zm0 0h6.47v-.96-2.27-2.25-.98h-6.47v6.46zm6.47 0H25.87v-.96-2.27-2.25-.98h-6.46v6.46zm0 0H25.87v-.96-2.27-2.25-.98h-6.46v6.46zm0 0H25.87v-.96-2.27-2.25-.98h-6.46v6.46zm0 0H25.87v-.96-2.27-2.25-.98h-6.46v6.46zm6.46 0H32.34v-.96-2.27-2.25-.98h-6.46v6.46zm0 0H32.34v-.96-2.27-2.25-.98h-6.46v6.46zm0 0H32.34v-.96-2.27-2.25-.98h-6.46v6.46zm0 0H32.34v-.96-2.27-2.25-.98h-6.46v6.46zm12.96 0h6.47v-.96-2.27-2.25-.98h-6.47v6.46zm0 0h6.47v-.96-2.27-2.25-.98h-6.47v6.46zm0 0h6.47v-.96-2.27-2.25-.98h-6.47v6.46zm0 0h6.47v-.96-2.27-2.25-.98h-6.47v6.46zm6.47 0h6.47v-.96-2.27-2.25-.98H45.3v6.46zm0 0h6.47v-.96-2.27-2.25-.98H45.3v6.46zm0 0h6.47v-.96-2.27-2.25-.98H45.3v6.46zm0 0h6.47v-.96-2.27-2.25-.98H45.3v6.46zm6.47 0H58.23v-.96-2.27-2.25-.98h-6.46v6.46zm0 0H58.23v-.96-2.27-2.25-.98h-6.46v6.46zm0 0H58.23v-.96-2.27-2.25-.98h-6.46v6.46zm0 0H58.23v-.96-2.27-2.25-.98h-6.46v6.46zM19.4-25.87H25.87v-.97-2.27-2.25-.98h-6.46v6.46zm0 0H25.87v-.97-2.27-2.25-.98h-6.46v6.46zm0 0H25.87v-.97-2.27-2.25-.98h-6.46v6.46zm0 0H25.87v-.97-2.27-2.25-.98h-6.46v6.46zm6.46 0H32.34v-.97-2.27-2.25-.98h-6.46v6.46zm0 0H32.34v-.97-2.27-2.25-.98h-6.46v6.46zm0 0H32.34v-.97-2.27-2.25-.98h-6.46v6.46zm0 0H32.34v-.97-2.27-2.25-.98h-6.46v6.46zm6.49 0h6.47v-.97-2.27-2.25-.98h-6.47v6.46zm0 0h6.47v-.97-2.27-2.25-.98h-6.47v6.46zm0 0h6.47v-.97-2.27-2.25-.98h-6.47v6.46zm0 0h6.47v-.97-2.27-2.25-.98h-6.47v6.46zm6.47 0h6.47v-.97-2.27-2.25-.98h-6.47v6.46zm0 0h6.47v-.97-2.27-2.25-.98h-6.47v6.46zm0 0h6.47v-.97-2.27-2.25-.98h-6.47v6.46zm0 0h6.47v-.97-2.27-2.25-.98h-6.47v6.46zm6.47 0h6.47v-.97-2.27-2.25-.98H45.3v6.46zm0 0h6.47v-.97-2.27-2.25-.98H45.3v6.46zm0 0h6.47v-.97-2.27-2.25-.98H45.3v6.46zm0 0h6.47v-.97-2.27-2.25-.98H45.3v6.46zM6.47-32.37h6.47v-.97-2.26-2.25-.99H6.47V-32.36zm0 0h6.47v-.97-2.26-2.25-.99H6.47V-32.36zm0 0h6.47v-.97-2.26-2.25-.99H6.47V-32.36zm0 0h6.47v-.97-2.26-2.25-.99H6.47V-32.36zm6.47 0h6.47v-.97-2.26-2.25-.99h-6.47V-32.36zm0 0h6.47v-.97-2.26-2.25-.99h-6.47V-32.36zm0 0h6.47v-.97-2.26-2.25-.99h-6.47V-32.36zm0 0h6.47v-.97-2.26-2.25-.99h-6.47V-32.36zm12.94 0H32.34v-.97-2.26-2.25-.99h-6.46V-32.36zm0 0H32.34v-.97-2.26-2.25-.99h-6.46V-32.36zm0 0H32.34v-.97-2.26-2.25-.99h-6.46V-32.36zm0 0H32.34v-.97-2.26-2.25-.99h-6.46V-32.36zm6.48 0h6.47v-.97-2.26-2.25-.99h-6.47V-32.36zm0 0h6.47v-.97-2.26-2.25-.99h-6.47V-32.36zm0 0h6.47v-.97-2.26-2.25-.99h-6.47V-32.36zm0 0h6.47v-.97-2.26-2.25-.99h-6.47V-32.36zm6.47 0h6.47v-.97-2.26-2.25-.99h-6.47V-32.36zm0 0h6.47v-.97-2.26-2.25-.99h-6.47V-32.36zm0 0h6.47v-.97-2.26-2.25-.99h-6.47V-32.36zm0 0h6.47v-.97-2.26-2.25-.99h-6.47V-32.36zm12.94 0H58.23v-.97-2.26-2.25-.99h-6.46V-32.36zm0 0H58.23v-.97-2.26-2.25-.99h-6.46V-32.36zm0 0H58.23v-.97-2.26-2.25-.99h-6.46V-32.36zm0 0H58.23v-.97-2.26-2.25-.99h-6.46V-32.36zm6.46 0H64.7v-.97-2.26-2.25-.99h-6.47V-32.36zm0 0H64.7v-.97-2.26-2.25-.99h-6.47V-32.36zm0 0H64.7v-.97-2.26-2.25-.99h-6.47V-32.36zm0 0H64.7v-.97-2.26-2.25-.99h-6.47V-32.36zm-32.35-6.47H32.34v-.97-2.26-2.25-.99h-6.46V-38.83zm0 0H32.34v-.97-2.26-2.25-.99h-6.46V-38.83zm0 0H32.34v-.97-2.26-2.25-.99h-6.46V-38.83zm0 0H32.34v-.97-2.26-2.25-.99h-6.46V-38.83zm6.48 0h6.47v-.97-2.26-2.25-.99h-6.47V-38.83zm0 0h6.47v-.97-2.26-2.25-.99h-6.47V-38.83zm0 0h6.47v-.97-2.26-2.25-.99h-6.47V-38.83zm0 0h6.47v-.97-2.26-2.25-.99h-6.47V-38.83zm6.47 0h6.47v-.97-2.26-2.25-.99h-6.47V-38.83zm0 0h6.47v-.97-2.26-2.25-.99h-6.47V-38.83zm0 0h6.47v-.97-2.26-2.25-.99h-6.47V-38.83zm0 0h6.47v-.97-2.26-2.25-.99h-6.47V-38.83zM19.4-45.3H25.87v-.97-2.26-2.25-.99h-6.46V-45.3zm0 0H25.87v-.97-2.26-2.25-.99h-6.46V-45.3zm0 0H25.87v-.97-2.26-2.25-.99h-6.46V-45.3zm0 0H25.87v-.97-2.26-2.25-.99h-6.46V-45.3zm6.46 0H32.34v-.97-2.26-2.25-.99h-6.46V-45.3zm0 0H32.34v-.97-2.26-2.25-.99h-6.46V-45.3zm0 0H32.34v-.97-2.26-2.25-.99h-6.46V-45.3zm0 0H32.34v-.97-2.26-2.25-.99h-6.46V-45.3zm12.96 0h6.47v-.97-2.26-2.25-.99h-6.47V-45.3zm0 0h6.47v-.97-2.26-2.25-.99h-6.47V-45.3zm0 0h6.47v-.97-2.26-2.25-.99h-6.47V-45.3zm0 0h6.47v-.97-2.26-2.25-.99h-6.47V-45.3zm6.47 0h6.47v-.97-2.26-2.25-.99H45.3V-45.3zm0 0h6.47v-.97-2.26-2.25-.99H45.3V-45.3zm0 0h6.47v-.97-2.26-2.25-.99H45.3V-45.3zm0 0h6.47v-.97-2.26-2.25-.99H45.3V-45.3zm-25.9-6.47H25.88v-.96V-55v-2.25-.98h-6.46v6.46zm0 0H25.88v-.96V-55v-2.25-.98h-6.46v6.46zm0 0H25.88v-.96V-55v-2.25-.98h-6.46v6.46zm0 0H25.88v-.96V-55v-2.25-.98h-6.46v6.46zm12.96 0h6.47v-.96V-55v-2.25-.98h-6.47v6.46zm0 0h6.47v-.96V-55v-2.25-.98h-6.47v6.46zm0 0h6.47v-.96V-55v-2.25-.98h-6.47v6.46zm0 0h6.47v-.96V-55v-2.25-.98h-6.47v6.46zm12.94 0h6.47v-.96V-55v-2.25-.98H45.3v6.46zm0 0h6.47v-.96V-55v-2.25-.98H45.3v6.46zm0 0h6.47v-.96V-55v-2.25-.98H45.3v6.46zm0 0h6.47v-.96V-55v-2.25-.98H45.3v6.46zm-19.42-6.46H32.34v-.97-2.27-2.25-.98h-6.46V-58.23zm0 0H32.34v-.97-2.27-2.25-.98h-6.46V-58.23zm0 0H32.34v-.97-2.27-2.25-.98h-6.46V-58.23zm0 0H32.34v-.97-2.27-2.25-.98h-6.46V-58.23zm6.48 0h6.47v-.97-2.27-2.25-.98h-6.47V-58.23zm0 0h6.47v-.97-2.27-2.25-.98h-6.47V-58.23zm0 0h6.47v-.97-2.27-2.25-.98h-6.47V-58.23zm0 0h6.47v-.97-2.27-2.25-.98h-6.47V-58.23zm6.47 0h6.47v-.97-2.27-2.25-.98h-6.47V-58.23zm0 0h6.47v-.97-2.27-2.25-.98h-6.47V-58.23zm0 0h6.47v-.97-2.27-2.25-.98h-6.47V-58.23zm0 0h6.47v-.97-2.27-2.25-.98h-6.47V-58.23zM25.88-64.7H32.34v-.97-2.27-2.25-.98h-6.46V-64.7zm0 0H32.34v-.97-2.27-2.25-.98h-6.46V-64.7zm0 0H32.34v-.97-2.27-2.25-.98h-6.46V-64.7zm0 0H32.34v-.97-2.27-2.25-.98h-6.46V-64.7zm6.48 0h6.47v-.97-2.27-2.25-.98h-6.47V-64.7zm0 0h6.47v-.97-2.27-2.25-.98h-6.47V-64.7zm0 0h6.47v-.97-2.27-2.25-.98h-6.47V-64.7zm0 0h6.47v-.97-2.27-2.25-.98h-6.47V-64.7zm6.47 0h6.47v-.97-2.27-2.25-.98h-6.47V-64.7zm0 0h6.47v-.97-2.27-2.25-.98h-6.47V-64.7zm0 0h6.47v-.97-2.27-2.25-.98h-6.47V-64.7zm0 0h6.47v-.97-2.27-2.25-.98h-6.47V-64.7zm-12.95-6.47H32.34v-.97-2.27-2.25-.98h-6.46V-71.17zm0 0H32.34v-.97-2.27-2.25-.98h-6.46V-71.17zm0 0H32.34v-.97-2.27-2.25-.98h-6.46V-71.17zm0 0H32.34v-.97-2.27-2.25-.98h-6.46V-71.17zm12.95 0h6.47v-.97-2.27-2.25-.98h-6.47V-71.17zm0 0h6.47v-.97-2.27-2.25-.98h-6.47V-71.17zm0 0h6.47v-.97-2.27-2.25-.98h-6.47V-71.17zm0 0h6.47v-.97-2.27-2.25-.98h-6.47V-71.17zm6.47 0h6.47v-.97-2.27-2.25-.98H45.3V-71.17zm0 0h6.47v-.97-2.27-2.25-.98H45.3V-71.17zm0 0h6.47v-.97-2.27-2.25-.98H45.3V-71.17zm0 0h6.47v-.97-2.27-2.25-.98H45.3V-71.17zm-19.42-6.47H32.34v-.97-2.27-2.25-.98h-6.46V-77.64zm0 0H32.34v-.97-2.27-2.25-.98h-6.46V-77.64zm0 0H32.34v-.97-2.27-2.25-.98h-6.46V-77.64zm0 0H32.34v-.97-2.27-2.25-.98h-6.46V-77.64zm6.48 0h6.47v-.97-2.27-2.25-.98h-6.47V-77.64zm0 0h6.47v-.97-2.27-2.25-.98h-6.47V-77.64zm0 0h6.47v-.97-2.27-2.25-.98h-6.47V-77.64zm0 0h6.47v-.97-2.27-2.25-.98h-6.47V-77.64zm6.47 0h6.47v-.97-2.27-2.25-.98h-6.47V-77.64zm0 0h6.47v-.97-2.27-2.25-.98h-6.47V-77.64zm0 0h6.47v-.97-2.27-2.25-.98h-6.47V-77.64zm0 0h6.47v-.97-2.27-2.25-.98h-6.47V-77.64zm0 0"/></symbol><symbol overflow="visible" id="f10403d9c"><path d="M3.83 0v-5.95H6.2v-.82H.45v.82h2.4V0zm0 0"/></symbol><symbol overflow="visible" id="f10403d9d"><path d="M5.75-2.23v-.43c0-1.6-.9-2.51-2.42-2.51S.87-4.16.87-2.48c0 1.71.91 2.62 2.5 2.62 1.43 0 2.07-.56 2.29-1.52l-.9-.09c-.18.61-.59.9-1.35.9-.94 0-1.52-.54-1.58-1.66zm-2.4-2.2c.93 0 1.43.5 1.48 1.55H1.84c.08-1.07.6-1.56 1.5-1.56zm0 0"/></symbol><symbol overflow="visible" id="f10403d9e"><path d="M1.83 0l1.42-2h.06l1.46 2H5.8L4-2.53l1.78-2.49H4.8L3.42-3.08h-.08l-1.4-1.94H.89l1.78 2.49L.84 0zm0 0"/></symbol><symbol overflow="visible" id="f10403d9f"><path d="M5.52-4.25v-.77H3.17v-1.56h-.81l-.14 1.56H.75v.77h1.47v2.4c0 1.3.48 1.94 1.84 1.94C4.6.1 5.14 0 5.55-.14L5.4-.91c-.32.13-.72.2-1.13.2-.8 0-1.1-.37-1.1-1.23v-2.31zm0 0"/></symbol><symbol overflow="visible" id="f10403d9g"><path d="M3.33-3.42c.47 0 .8-.27.8-.8 0-.51-.33-.8-.8-.8-.47 0-.8.29-.8.8 0 .53.33.8.8.8zm0 3.5c.47 0 .8-.27.8-.78 0-.53-.33-.82-.8-.82-.47 0-.8.29-.8.82 0 .51.33.78.8.78zm0 0"/></symbol><symbol overflow="visible" id="f10403d9i"><path d="M3.36.16c1.4 0 2.2-.6 2.2-1.57 0-.89-.54-1.22-1.47-1.39L3-3c-.67-.14-.86-.33-.86-.73 0-.5.4-.74 1.17-.74.83 0 1.19.27 1.27.8l.9-.05c-.12-1-.8-1.47-2.17-1.47-1.34 0-2.1.53-2.1 1.5 0 .81.45 1.22 1.52 1.44l1.04.2c.56.11.87.24.87.72 0 .52-.45.78-1.28.78-.95 0-1.36-.28-1.42-.87l-.9.06C1.07-.36 1.8.16 3.35.16zm0 0"/></symbol><symbol overflow="visible" id="f10403d9j"><path d="M2.16 0v-2.67c0-.99.59-1.63 1.46-1.63.74 0 1.07.38 1.07 1.22V0h.95v-3.31c0-1.2-.56-1.85-1.67-1.85-.92 0-1.49.46-1.77 1.08h-.06l-.12-.94H1.2V0zm0 0"/></symbol><symbol overflow="visible" id="f10403d9k"><path d="M3.33.14c1.62 0 2.5-.95 2.5-2.66 0-1.68-.88-2.64-2.5-2.64-1.63 0-2.5.96-2.5 2.64 0 1.7.87 2.66 2.5 2.66zm0-.77c-1.06 0-1.52-.6-1.52-1.89 0-1.28.46-1.87 1.52-1.87 1.08 0 1.53.6 1.53 1.87 0 1.29-.45 1.9-1.53 1.9zm0 0"/></symbol><symbol overflow="visible" id="f10403d9l"><path d="M2.44 0l.87-3.31h.06L4.25 0H5.3l1.03-5.02h-.88l-.73 3.94h-.08L3.77-4.4h-.85l-.87 3.33h-.08l-.75-3.94H.34L1.36 0zm0 0"/></symbol><symbol overflow="visible" id="f10403d9m"><path d="M1.63 0v-2.9c0-.8.15-1.4.71-1.4.41 0 .55.3.55.88V0h.95v-2.9c0-.8.18-1.4.72-1.4.4 0 .57.3.57.88V0h.95v-3.63c0-.92-.28-1.53-1.11-1.53-.63 0-.95.41-1.1.9h-.06c-.1-.52-.44-.9-1.08-.9-.6 0-.93.41-1.06.9H1.6l-.23-.76H.67V0zm0 0"/></symbol><symbol overflow="visible" id="f10403d9n"><path d="M2.83.14c.94 0 1.5-.39 1.81-.95h.08l.1.81h.76v-3.38c0-1.23-.69-1.8-2.13-1.8-1.43 0-2.03.65-2.18 1.6l.93.1c.11-.6.44-.93 1.22-.93.85 0 1.22.32 1.22 1.04v.34l-1.81.2C1.6-2.7 1.1-2.17 1.1-1.28c0 .92.64 1.42 1.72 1.42zm.25-.77c-.67 0-1.02-.28-1.02-.74 0-.44.28-.72 1-.82l1.58-.19v.41c0 .8-.6 1.34-1.56 1.34zm0 0"/></symbol><symbol overflow="visible" id="f10403d9o"><path d="M5.95-6.77H1.1V0h.99v-2.92H5.3v-.77H2.08v-2.26h3.87zm0 0"/></symbol><symbol overflow="visible" id="f10403d9p"><path d="M2.73.14c.9 0 1.43-.45 1.74-1.08h.06l.13.94h.8v-5.02h-.94v2.7c0 .98-.57 1.62-1.46 1.62-.75 0-1.1-.4-1.1-1.22v-3.1h-.93v3.32c0 1.17.55 1.84 1.7 1.84zm0 0"/></symbol><symbol overflow="visible" id="f10403d9q"><path d="M5.08-5.16c-.94 0-1.58.43-1.9 1.3h-.09l-.07-1.16H1.05v.77h1.1v3.48H.96V0h3.96v-.77H3.1v-1.46c0-1.36.6-2.05 1.83-2.05.4 0 .76.08 1.1.17l.15-.87c-.33-.11-.7-.18-1.11-.18zm0 0"/></symbol><symbol overflow="visible" id="f10403d9r"><path d="M3.42.14c1.61 0 2.56-.75 2.56-2 0-1.1-.67-1.6-1.95-1.86l-.97-.2c-.87-.17-1.23-.49-1.23-1.11 0-.7.54-1.11 1.5-1.11 1.06 0 1.51.34 1.69 1.23l.9-.09c-.17-1.28-.98-1.9-2.6-1.9C1.79-6.9.9-6.18.9-4.98c0 1.06.66 1.66 1.88 1.9l1.01.2c.85.17 1.25.4 1.25 1.09 0 .73-.6 1.16-1.6 1.16-1.07 0-1.66-.4-1.8-1.24l-.94.1C.83-.53 1.75.13 3.42.13zm0 0"/></symbol><symbol overflow="visible" id="f10403d9s"><path d="M1.45-2.95c0 2.56 1.08 4.37 3.67 4.84l.11-.67C3.28.86 2.43-.75 2.43-2.95s.85-3.82 2.8-4.16l-.1-.69c-2.6.49-3.68 2.3-3.68 4.85zm0 0"/></symbol><symbol overflow="visible" id="f10403d9t"><path d="M3.38-5.9c.12-.5.42-1.04.67-1.41l-.63-.22a4.28 4.28 0 00-1.01 2.39c0 .66.3 1 .9 1 .6 0 .9-.33.9-.9 0-.57-.32-.83-.83-.85zm0 0"/></symbol><symbol overflow="visible" id="f10403d9u"><path d="M3.3-7.53c-.55 0-.85.3-.85.84 0 .55.36.8.83.8h.03a5.1 5.1 0 01-.69 1.47l.52.23a4.29 4.29 0 001.02-2.4c0-.63-.33-.94-.86-.94zm0 0"/></symbol><symbol overflow="visible" id="f10403d9v"><path d="M3.9.14c1.48 0 2.18-.98 2.18-2.64 0-1.67-.7-2.66-2.17-2.66-.91 0-1.49.41-1.79 1h-.06v-2.98h-.95V0h.81l.11-.9h.06c.29.63.82 1.04 1.82 1.04zm-.32-.8c-1.08 0-1.55-.8-1.55-1.84 0-1.06.47-1.86 1.55-1.86 1.1 0 1.51.61 1.51 1.86S4.64-.66 3.58-.66zm0 0"/></symbol><symbol overflow="visible" id="f10403d9w"><path d="M3.58-5.81c.42 0 .72-.22.72-.67 0-.44-.3-.68-.72-.68-.44 0-.72.24-.72.68 0 .45.28.67.72.67zm.5.8H1.52v.76h1.6v3.48h-1.8V0h4.46v-.77h-1.7zm0 0"/></symbol><symbol overflow="visible" id="f10403d9x"><path d="M3.16 2.03c1.67 0 2.4-.86 2.4-2.51v-4.54h-.81l-.13.91h-.06c-.26-.58-.8-1.05-1.73-1.05-1.42 0-2.24 1-2.24 2.52 0 1.6.75 2.56 2.2 2.56.94 0 1.5-.5 1.77-1.03h.05v.72c0 1.17-.42 1.67-1.45 1.67-.93 0-1.3-.34-1.41-.89L.8.5c.12.96.87 1.54 2.36 1.54zM3.06-.8c-.98 0-1.48-.57-1.48-1.82 0-1.13.5-1.75 1.48-1.75 1.06 0 1.58.76 1.58 1.75 0 .95-.56 1.82-1.58 1.82zm0 0"/></symbol><symbol overflow="visible" id="f10403d9y"><path d="M3.34-1.56c-.54 0-.82.31-.82.86 0 .5.3.78.76.78-.08.4-.34.95-.65 1.39l.53.25c.57-.67 1-1.67 1-2.36 0-.6-.3-.92-.82-.92zm0 0"/></symbol><symbol overflow="visible" id="f10403d9z"><path d="M2.84.14C3.8.14 4.33-.26 4.6-.9h.07L4.8 0h.76v-7.14h-.95v2.95h-.08c-.28-.6-.86-.97-1.67-.97-1.48 0-2.27.99-2.27 2.64C.6-.84 1.36.14 2.84.14zm.22-.8c-.98 0-1.48-.59-1.48-1.84s.5-1.86 1.48-1.86c1.13 0 1.58.8 1.58 1.86S4.2-.66 3.06-.66zm0 0"/></symbol><symbol overflow="visible" id="f10403d9A"><path d="M3.92-7.14H1.36v.76h1.6v5.61H1.15V0H5.7v-.77H3.92zm0 0"/></symbol><symbol overflow="visible" id="f10403d9B"><path d="M1.45-7.1c1.96.33 2.8 1.94 2.8 4.15 0 2.2-.84 3.8-2.8 4.17l.11.67c2.58-.47 3.67-2.28 3.67-4.84 0-2.55-1.09-4.36-3.67-4.85zm0 0"/></symbol></defs><g fill="#eaf734"><use xlink:href="#f10403d9a" x="219.1176" y="165"/><use xlink:href="#f10403d9b" x="309.7059" y="165"/><use xlink:href="#f10403d9c" x="220" y="252"/><use xlink:href="#f10403d9d" x="226.667" y="252"/><use xlink:href="#f10403d9e" x="233.334" y="252"/><use xlink:href="#f10403d9f" x="240.001" y="252"/><use xlink:href="#f10403d9g" x="246.668" y="252"/><use xlink:href="#f10403d9h" x="253.335" y="252"/><use xlink:href="#f10403d9g" x="260.002" y="252"/><use xlink:href="#f10403d9i" x="266.669" y="252"/><use xlink:href="#f10403d9j" x="273.336" y="252"/><use xlink:href="#f10403d9k" x="280.003" y="252"/><use xlink:href="#f10403d9l" x="286.67" y="252"/><use xlink:href="#f10403d9m" x="293.337" y="252"/><use xlink:href="#f10403d9n" x="300.004" y="252"/><use xlink:href="#f10403d9j" x="306.671" y="252"/><use xlink:href="#f10403d9h" x="313.338" y="252"/><use xlink:href="#f10403d9g" x="320.005" y="252"/><use xlink:href="#f10403d9i" x="326.672" y="252"/><use xlink:href="#f10403d9j" x="333.339" y="252"/><use xlink:href="#f10403d9k" x="340.006" y="252"/><use xlink:href="#f10403d9l" x="346.673" y="252"/><use xlink:href="#f10403d9m" x="353.34" y="252"/><use xlink:href="#f10403d9n" x="360.007" y="252"/><use xlink:href="#f10403d9n" x="366.674" y="252"/><use xlink:href="#f10403d9j" x="373.341" y="252"/><g><use xlink:href="#f10403d9o" x="140" y="266"/><use xlink:href="#f10403d9d" x="146.667" y="266"/><use xlink:href="#f10403d9n" x="153.334" y="266"/><use xlink:href="#f10403d9f" x="160.001" y="266"/><use xlink:href="#f10403d9p" x="166.668" y="266"/><use xlink:href="#f10403d9q" x="173.335" y="266"/><use xlink:href="#f10403d9d" x="180.002" y="266"/><use xlink:href="#f10403d9g" x="186.669" y="266"/><use xlink:href="#f10403d9h" x="193.336" y="266"/><use xlink:href="#f10403d9r" x="200.003" y="266"/><use xlink:href="#f10403d9j" x="206.67" y="266"/><use xlink:href="#f10403d9k" x="213.337" y="266"/><use xlink:href="#f10403d9l" x="220.004" y="266"/><use xlink:href="#f10403d9m" x="226.671" y="266"/><use xlink:href="#f10403d9n" x="233.338" y="266"/><use xlink:href="#f10403d9j" x="240.005" y="266"/><use xlink:href="#f10403d9h" x="246.672" y="266"/><use xlink:href="#f10403d9s" x="253.339" y="266"/><use xlink:href="#f10403d9m" x="260.006" y="266"/><use xlink:href="#f10403d9k" x="266.673" y="266"/><use xlink:href="#f10403d9q" x="273.34" y="266"/><use xlink:href="#f10403d9d" x="280.007" y="266"/><use xlink:href="#f10403d9h" x="286.674" y="266"/><use xlink:href="#f10403d9t" x="293.341" y="266"/><use xlink:href="#f10403d9n" x="300.008" y="266"/><use xlink:href="#f10403d9u" x="306.675" y="266"/><use xlink:href="#f10403d9h" x="313.342" y="266"/><use xlink:href="#f10403d9v" x="320.009" y="266"/><use xlink:href="#f10403d9w" x="326.676" y="266"/><use xlink:href="#f10403d9x" x="333.343" y="266"/><use xlink:href="#f10403d9x" x="340.01" y="266"/><use xlink:href="#f10403d9d" x="346.677" y="266"/><use xlink:href="#f10403d9q" x="353.344" y="266"/><use xlink:href="#f10403d9h" x="360.011" y="266"/><use xlink:href="#f10403d9i" x="366.678" y="266"/><use xlink:href="#f10403d9j" x="373.345" y="266"/><use xlink:href="#f10403d9k" x="380.012" y="266"/><use xlink:href="#f10403d9l" x="386.679" y="266"/><use xlink:href="#f10403d9m" x="393.346" y="266"/><use xlink:href="#f10403d9n" x="400.013" y="266"/><use xlink:href="#f10403d9j" x="406.68" y="266"/><use xlink:href="#f10403d9y" x="413.347" y="266"/><use xlink:href="#f10403d9h" x="420.014" y="266"/><use xlink:href="#f10403d9z" x="426.681" y="266"/><use xlink:href="#f10403d9A" x="433.348" y="266"/><use xlink:href="#f10403d9w" x="440.015" y="266"/><use xlink:href="#f10403d9x" x="446.682" y="266"/><use xlink:href="#f10403d9B" x="453.349" y="266"/></g></g></svg>