<?xml version='1.0' encoding='UTF-8'?>
<svg xmlns="http://www.w3.org/2000/svg" xmlns:xlink="http://www.w3.org/1999/xlink" width="600px" height="300px" viewBox="0 0 600 300" x="0px" y="0px" enable-background="new 0 0 600 300"><defs><symbol overflow="visible" id="e71a9cafa"><path d="M32.36 0h6.47v-.97-2.26-2.25-.99h-6.47V0zm0 0h6.47v-.97-2.26-2.25-.99h-6.47V0zm0 0h6.47v-.97-2.26-2.25-.99h-6.47V0zm0 0h6.47v-.97-2.26-2.25-.99h-6.47V0zm6.47 0h6.47v-.97-2.26-2.25-.99h-6.47V0zm0 0h6.47v-.97-2.26-2.25-.99h-6.47V0zm0 0h6.47v-.97-2.26-2.25-.99h-6.47V0zm0 0h6.47v-.97-2.26-2.25-.99h-6.47V0zm6.47 0h6.47v-.97-2.26-2.25-.99H45.3V0zm0 0h6.47v-.97-2.26-2.25-.99H45.3V0zm0 0h6.47v-.97-2.26-2.25-.99H45.3V0zm0 0h6.47v-.97-2.26-2.25-.99H45.3V0zm12.93 0H64.7v-.97-2.26-2.25-.99h-6.47V0zm0 0H64.7v-.97-2.26-2.25-.99h-6.47V0zm0 0H64.7v-.97-2.26-2.25-.99h-6.47V0zm0 0H64.7v-.97-2.26-2.25-.99h-6.47V0zm6.47 0H71.17v-.97-2.26-2.25-.99H64.7V0zm0 0H71.17v-.97-2.26-2.25-.99H64.7V0zm0 0H71.17v-.97-2.26-2.25-.99H64.7V0zm0 0H71.17v-.97-2.26-2.25-.99H64.7V0zM38.83-6.47h6.47v-.97-2.26-2.25-.99h-6.47V-6.47zm0 0h6.47v-.97-2.26-2.25-.99h-6.47V-6.47zm0 0h6.47v-.97-2.26-2.25-.99h-6.47V-6.47zm0 0h6.47v-.97-2.26-2.25-.99h-6.47V-6.47zm19.4 0H64.7v-.97-2.26-2.25-.99h-6.47V-6.47zm0 0H64.7v-.97-2.26-2.25-.99h-6.47V-6.47zm0 0H64.7v-.97-2.26-2.25-.99h-6.47V-6.47zm0 0H64.7v-.97-2.26-2.25-.99h-6.47V-6.47zm-25.87-6.47h6.47v-.97-2.26-2.25-.99h-6.47V-12.94zm0 0h6.47v-.97-2.26-2.25-.99h-6.47V-12.94zm0 0h6.47v-.97-2.26-2.25-.99h-6.47V-12.94zm0 0h6.47v-.97-2.26-2.25-.99h-6.47V-12.94zm6.47 0h6.47v-.97-2.26-2.25-.99h-6.47V-12.94zm0 0h6.47v-.97-2.26-2.25-.99h-6.47V-12.94zm0 0h6.47v-.97-2.26-2.25-.99h-6.47V-12.94zm0 0h6.47v-.97-2.26-2.25-.99h-6.47V-12.94zm6.47 0h6.47v-.97-2.26-2.25-.99H45.3V-12.94zm0 0h6.47v-.97-2.26-2.25-.99H45.3V-12.94zm0 0h6.47v-.97-2.26-2.25-.99H45.3V-12.94zm0 0h6.47v-.97-2.26-2.25-.99H45.3V-12.94zm6.47 0H58.23v-.97-2.26-2.25-.99h-6.46V-12.94zm0 0H58.23v-.97-2.26-2.25-.99h-6.46V-12.94zm0 0H58.23v-.97-2.26-2.25-.99h-6.46V-12.94zm0 0H58.23v-.97-2.26-2.25-.99h-6.46V-12.94zm6.46 0H64.7v-.97-2.26-2.25-.99h-6.47V-12.94zm0 0H64.7v-.97-2.26-2.25-.99h-6.47V-12.94zm0 0H64.7v-.97-2.26-2.25-.99h-6.47V-12.94zm0 0H64.7v-.97-2.26-2.25-.99h-6.47V-12.94zm6.47 0H71.17v-.97-2.26-2.25-.99H64.7V-12.94zm0 0H71.17v-.97-2.26-2.25-.99H64.7V-12.94zm0 0H71.17v-.97-2.26-2.25-.99H64.7V-12.94zm0 0H71.17v-.97-2.26-2.25-.99H64.7V-12.94zM12.94-19.4h6.47v-.96-2.27-2.25-.98h-6.47v6.46zm0 0h6.47v-.96-2.27-2.25-.98h-6.47v6.46zm0 0h6.47v-.96-2.27-2.25-.98h-6.47v6.46zm0 0h6.47v-.96-2.27-2.25-.98h-6.47v6.46zm6.47 0H25.87v-.96-2.27-2.25-.98h-6.46v6.46zm0 0H25.87v-.96-2.27-2.25-.98h-6.46v6.46zm0 0H25.87v-.96-2.27-2.25-.98h-6.46v6.46zm0 0H25.87v-.96-2.27-2.25-.98h-6.46v6.46zm6.46 0H32.34v-.96-2.27-2.25-.98h-6.46v6.46zm0 0H32.34v-.96-2.27-2.25-.98h-6.46v6.46zm0 0H32.34v-.96-2.27-2.25-.98h-6.46v6.46zm0 0H32.34v-.96-2.27-2.25-.98h-6.46v6.46zm45.3 0H77.64v-.96-2.27-2.25-.98h-6.47v6.46zm0 0H77.64v-.96-2.27-2.25-.98h-6.47v6.46zm0 0H77.64v-.96-2.27-2.25-.98h-6.47v6.46zm0 0H77.64v-.96-2.27-2.25-.98h-6.47v6.46zm6.47 0H84.11v-.96-2.27-2.25-.98h-6.47v6.46zm0 0H84.11v-.96-2.27-2.25-.98h-6.47v6.46zm0 0H84.11v-.96-2.27-2.25-.98h-6.47v6.46zm0 0H84.11v-.96-2.27-2.25-.98h-6.47v6.46zm6.48 0H90.6v-.96-2.27-2.25-.98h-6.47v6.46zm0 0H90.6v-.96-2.27-2.25-.98h-6.47v6.46zm0 0H90.6v-.96-2.27-2.25-.98h-6.47v6.46zm0 0H90.6v-.96-2.27-2.25-.98h-6.47v6.46zm-71.18-6.46h6.47v-.97-2.27-2.25-.98h-6.47v6.46zm0 0h6.47v-.97-2.27-2.25-.98h-6.47v6.46zm0 0h6.47v-.97-2.27-2.25-.98h-6.47v6.46zm0 0h6.47v-.97-2.27-2.25-.98h-6.47v6.46zm12.94 0H32.34v-.97-2.27-2.25-.98h-6.46v6.46zm0 0H32.34v-.97-2.27-2.25-.98h-6.46v6.46zm0 0H32.34v-.97-2.27-2.25-.98h-6.46v6.46zm0 0H32.34v-.97-2.27-2.25-.98h-6.46v6.46zm22.65 0H55v-.97-2.27-2.25-.98h-6.47v6.46zm0 0H55v-.97-2.27-2.25-.98h-6.47v6.46zm0 0H55v-.97-2.27-2.25-.98h-6.47v6.46zm0 0H55v-.97-2.27-2.25-.98h-6.47v6.46zm22.64 0H77.64v-.97-2.27-2.25-.98h-6.47v6.46zm0 0H77.64v-.97-2.27-2.25-.98h-6.47v6.46zm0 0H77.64v-.97-2.27-2.25-.98h-6.47v6.46zm0 0H77.64v-.97-2.27-2.25-.98h-6.47v6.46zm12.95 0H90.6v-.97-2.27-2.25-.98h-6.47v6.46zm0 0H90.6v-.97-2.27-2.25-.98h-6.47v6.46zm0 0H90.6v-.97-2.27-2.25-.98h-6.47v6.46zm0 0H90.6v-.97-2.27-2.25-.98h-6.47v6.46zm-71.18-6.49h6.47v-.97-2.26-2.25-.99h-6.47V-32.36zm0 0h6.47v-.97-2.26-2.25-.99h-6.47V-32.36zm0 0h6.47v-.97-2.26-2.25-.99h-6.47V-32.36zm0 0h6.47v-.97-2.26-2.25-.99h-6.47V-32.36zm12.94 0H32.34v-.97-2.26-2.25-.99h-6.46V-32.36zm0 0H32.34v-.97-2.26-2.25-.99h-6.46V-32.36zm0 0H32.34v-.97-2.26-2.25-.99h-6.46V-32.36zm0 0H32.34v-.97-2.26-2.25-.99h-6.46V-32.36zm16.18 0H48.53v-.97-2.26-2.25-.99h-6.47V-32.36zm0 0H48.53v-.97-2.26-2.25-.99h-6.47V-32.36zm0 0H48.53v-.97-2.26-2.25-.99h-6.47V-32.36zm0 0H48.53v-.97-2.26-2.25-.99h-6.47V-32.36zm12.94 0h6.47v-.97-2.26-2.25-.99H55V-32.36zm0 0h6.47v-.97-2.26-2.25-.99H55V-32.36zm0 0h6.47v-.97-2.26-2.25-.99H55V-32.36zm0 0h6.47v-.97-2.26-2.25-.99H55V-32.36zm16.17 0H77.64v-.97-2.26-2.25-.99h-6.47V-32.36zm0 0H77.64v-.97-2.26-2.25-.99h-6.47V-32.36zm0 0H77.64v-.97-2.26-2.25-.99h-6.47V-32.36zm0 0H77.64v-.97-2.26-2.25-.99h-6.47V-32.36zm12.95 0H90.6v-.97-2.26-2.25-.99h-6.47V-32.36zm0 0H90.6v-.97-2.26-2.25-.99h-6.47V-32.36zm0 0H90.6v-.97-2.26-2.25-.99h-6.47V-32.36zm0 0H90.6v-.97-2.26-2.25-.99h-6.47V-32.36zm-71.18-6.47h6.47v-.97-2.26-2.25-.99h-6.47V-38.83zm0 0h6.47v-.97-2.26-2.25-.99h-6.47V-38.83zm0 0h6.47v-.97-2.26-2.25-.99h-6.47V-38.83zm0 0h6.47v-.97-2.26-2.25-.99h-6.47V-38.83zm12.94 0H32.34v-.97-2.26-2.25-.99h-6.46V-38.83zm0 0H32.34v-.97-2.26-2.25-.99h-6.46V-38.83zm0 0H32.34v-.97-2.26-2.25-.99h-6.46V-38.83zm0 0H32.34v-.97-2.26-2.25-.99h-6.46V-38.83zm45.3 0H77.63v-.97-2.26-2.25-.99h-6.47V-38.83zm0 0H77.63v-.97-2.26-2.25-.99h-6.47V-38.83zm0 0H77.63v-.97-2.26-2.25-.99h-6.47V-38.83zm0 0H77.63v-.97-2.26-2.25-.99h-6.47V-38.83zm12.94 0H90.6v-.97-2.26-2.25-.99h-6.47V-38.83zm0 0H90.6v-.97-2.26-2.25-.99h-6.47V-38.83zm0 0H90.6v-.97-2.26-2.25-.99h-6.47V-38.83zm0 0H90.6v-.97-2.26-2.25-.99h-6.47V-38.83zM19.42-45.3H25.87v-.97-2.26-2.25-.99h-6.46V-45.3zm0 0H25.87v-.97-2.26-2.25-.99h-6.46V-45.3zm0 0H25.87v-.97-2.26-2.25-.99h-6.46V-45.3zm0 0H25.87v-.97-2.26-2.25-.99h-6.46V-45.3zm6.46 0H32.34v-.97-2.26-2.25-.99h-6.46V-45.3zm0 0H32.34v-.97-2.26-2.25-.99h-6.46V-45.3zm0 0H32.34v-.97-2.26-2.25-.99h-6.46V-45.3zm0 0H32.34v-.97-2.26-2.25-.99h-6.46V-45.3zm9.72 0H42.06v-.97-2.26-2.25-.99H35.6V-45.3zm0 0H42.06v-.97-2.26-2.25-.99H35.6V-45.3zm0 0H42.06v-.97-2.26-2.25-.99H35.6V-45.3zm0 0H42.06v-.97-2.26-2.25-.99H35.6V-45.3zm6.47 0H48.53v-.97-2.26-2.25-.99h-6.47V-45.3zm0 0H48.53v-.97-2.26-2.25-.99h-6.47V-45.3zm0 0H48.53v-.97-2.26-2.25-.99h-6.47V-45.3zm0 0H48.53v-.97-2.26-2.25-.99h-6.47V-45.3zm12.94 0h6.47v-.97-2.26-2.25-.99H55V-45.3zm0 0h6.47v-.97-2.26-2.25-.99H55V-45.3zm0 0h6.47v-.97-2.26-2.25-.99H55V-45.3zm0 0h6.47v-.97-2.26-2.25-.99H55V-45.3zm6.47 0h6.47v-.97-2.26-2.25-.99h-6.47V-45.3zm0 0h6.47v-.97-2.26-2.25-.99h-6.47V-45.3zm0 0h6.47v-.97-2.26-2.25-.99h-6.47V-45.3zm0 0h6.47v-.97-2.26-2.25-.99h-6.47V-45.3zm9.7 0H77.64v-.97-2.26-2.25-.99h-6.47V-45.3zm0 0H77.64v-.97-2.26-2.25-.99h-6.47V-45.3zm0 0H77.64v-.97-2.26-2.25-.99h-6.47V-45.3zm0 0H77.64v-.97-2.26-2.25-.99h-6.47V-45.3zm6.47 0H84.11v-.97-2.26-2.25-.99h-6.47V-45.3zm0 0H84.11v-.97-2.26-2.25-.99h-6.47V-45.3zm0 0H84.11v-.97-2.26-2.25-.99h-6.47V-45.3zm0 0H84.11v-.97-2.26-2.25-.99h-6.47V-45.3zm-51.77-6.47H32.34v-.96V-55v-2.25-.98h-6.46v6.46zm0 0H32.34v-.96V-55v-2.25-.98h-6.46v6.46zm0 0H32.34v-.96V-55v-2.25-.98h-6.46v6.46zm0 0H32.34v-.96V-55v-2.25-.98h-6.46v6.46zm22.66 0H55v-.96V-55v-2.25-.98h-6.47v6.46zm0 0H55v-.96V-55v-2.25-.98h-6.47v6.46zm0 0H55v-.96V-55v-2.25-.98h-6.47v6.46zm0 0H55v-.96V-55v-2.25-.98h-6.47v6.46zm22.64 0H77.64v-.96V-55v-2.25-.98h-6.47v6.46zm0 0H77.64v-.96V-55v-2.25-.98h-6.47v6.46zm0 0H77.64v-.96V-55v-2.25-.98h-6.47v6.46zm0 0H77.64v-.96V-55v-2.25-.98h-6.47v6.46zM38.83-55h6.47v-.97-2.26-2.25-.99h-6.47V-55zm0 0h6.47v-.97-2.26-2.25-.99h-6.47V-55zm0 0h6.47v-.97-2.26-2.25-.99h-6.47V-55zm0 0h6.47v-.97-2.26-2.25-.99h-6.47V-55zm19.4 0H64.7v-.97-2.26-2.25-.99h-6.47V-55zm0 0H64.7v-.97-2.26-2.25-.99h-6.47V-55zm0 0H64.7v-.97-2.26-2.25-.99h-6.47V-55zm0 0H64.7v-.97-2.26-2.25-.99h-6.47V-55zm-32.35-3.23H32.34v-.97-2.27-2.25-.98h-6.46V-58.23zm0 0H32.34v-.97-2.27-2.25-.98h-6.46V-58.23zm0 0H32.34v-.97-2.27-2.25-.98h-6.46V-58.23zm0 0H32.34v-.97-2.27-2.25-.98h-6.46V-58.23zm22.65 0H55v-.97-2.27-2.25-.98h-6.47V-58.23zm0 0H55v-.97-2.27-2.25-.98h-6.47V-58.23zm0 0H55v-.97-2.27-2.25-.98h-6.47V-58.23zm0 0H55v-.97-2.27-2.25-.98h-6.47V-58.23zm22.64 0H77.64v-.97-2.27-2.25-.98h-6.47V-58.23zm0 0H77.64v-.97-2.27-2.25-.98h-6.47V-58.23zm0 0H77.64v-.97-2.27-2.25-.98h-6.47V-58.23zm0 0H77.64v-.97-2.27-2.25-.98h-6.47V-58.23zm-45.3-6.47H32.34v-.97-2.27-2.25-.98h-6.46V-64.7zm0 0H32.34v-.97-2.27-2.25-.98h-6.46V-64.7zm0 0H32.34v-.97-2.27-2.25-.98h-6.46V-64.7zm0 0H32.34v-.97-2.27-2.25-.98h-6.46V-64.7zm9.72 0H42.06v-.97-2.27-2.25-.98H35.6V-64.7zm0 0H42.06v-.97-2.27-2.25-.98H35.6V-64.7zm0 0H42.06v-.97-2.27-2.25-.98H35.6V-64.7zm0 0H42.06v-.97-2.27-2.25-.98H35.6V-64.7zm6.47 0H48.53v-.97-2.27-2.25-.98h-6.47V-64.7zm0 0H48.53v-.97-2.27-2.25-.98h-6.47V-64.7zm0 0H48.53v-.97-2.27-2.25-.98h-6.47V-64.7zm0 0H48.53v-.97-2.27-2.25-.98h-6.47V-64.7zm12.94 0h6.47v-.97-2.27-2.25-.98H55V-64.7zm0 0h6.47v-.97-2.27-2.25-.98H55V-64.7zm0 0h6.47v-.97-2.27-2.25-.98H55V-64.7zm0 0h6.47v-.97-2.27-2.25-.98H55V-64.7zm6.47 0h6.47v-.97-2.27-2.25-.98h-6.47V-64.7zm0 0h6.47v-.97-2.27-2.25-.98h-6.47V-64.7zm0 0h6.47v-.97-2.27-2.25-.98h-6.47V-64.7zm0 0h6.47v-.97-2.27-2.25-.98h-6.47V-64.7zm9.7 0H77.64v-.97-2.27-2.25-.98h-6.47V-64.7zm0 0H77.64v-.97-2.27-2.25-.98h-6.47V-64.7zm0 0H77.64v-.97-2.27-2.25-.98h-6.47V-64.7zm0 0H77.64v-.97-2.27-2.25-.98h-6.47V-64.7zm-45.3-6.47H32.34v-.97-2.27-2.25-.98h-6.46V-71.17zm0 0H32.34v-.97-2.27-2.25-.98h-6.46V-71.17zm0 0H32.34v-.97-2.27-2.25-.98h-6.46V-71.17zm0 0H32.34v-.97-2.27-2.25-.98h-6.46V-71.17zm45.3 0H77.64v-.97-2.27-2.25-.98h-6.47V-71.17zm0 0H77.64v-.97-2.27-2.25-.98h-6.47V-71.17zm0 0H77.64v-.97-2.27-2.25-.98h-6.47V-71.17zm0 0H77.64v-.97-2.27-2.25-.98h-6.47V-71.17zm-38.81-6.47h6.47v-.97-2.27-2.25-.98h-6.47V-77.64zm0 0h6.47v-.97-2.27-2.25-.98h-6.47V-77.64zm0 0h6.47v-.97-2.27-2.25-.98h-6.47V-77.64zm0 0h6.47v-.97-2.27-2.25-.98h-6.47V-77.64zm12.94 0h6.47v-.97-2.27-2.25-.98H45.3V-77.64zm0 0h6.47v-.97-2.27-2.25-.98H45.3V-77.64zm0 0h6.47v-.97-2.27-2.25-.98H45.3V-77.64zm0 0h6.47v-.97-2.27-2.25-.98H45.3V-77.64zm6.47 0H58.23v-.97-2.27-2.25-.98h-6.46V-77.64zm0 0H58.23v-.97-2.27-2.25-.98h-6.46V-77.64zm0 0H58.23v-.97-2.27-2.25-.98h-6.46V-77.64zm0 0H58.23v-.97-2.27-2.25-.98h-6.46V-77.64zm12.93 0H71.17v-.97-2.27-2.25-.98H64.7V-77.64zm0 0H71.17v-.97-2.27-2.25-.98H64.7V-77.64zm0 0H71.17v-.97-2.27-2.25-.98H64.7V-77.64zm0 0H71.17v-.97-2.27-2.25-.98H64.7V-77.64zm-25.87-6.48h6.47v-.97-2.27-2.25-.98h-6.47v6.46zm0 0h6.47v-.97-2.27-2.25-.98h-6.47v6.46zm0 0h6.47v-.97-2.27-2.25-.98h-6.47v6.46zm0 0h6.47v-.97-2.27-2.25-.98h-6.47v6.46zm19.4 0H64.7v-.97-2.27-2.25-.98h-6.47v6.46zm0 0H64.7v-.97-2.27-2.25-.98h-6.47v6.46zm0 0H64.7v-.97-2.27-2.25-.98h-6.47v6.46zm0 0H64.7v-.97-2.27-2.25-.98h-6.47v6.46zm0 0"/></symbol><symbol overflow="visible" id="e71a9cafb"><path d="M32.36 0h6.47v-.97-2.26-2.25-.99h-6.47V0zm0 0h6.47v-.97-2.26-2.25-.99h-6.47V0zm0 0h6.47v-.97-2.26-2.25-.99h-6.47V0zm0 0h6.47v-.97-2.26-2.25-.99h-6.47V0zm6.47 0h6.47v-.97-2.26-2.25-.99h-6.47V0zm0 0h6.47v-.97-2.26-2.25-.99h-6.47V0zm0 0h6.47v-.97-2.26-2.25-.99h-6.47V0zm0 0h6.47v-.97-2.26-2.25-.99h-6.47V0zm6.47 0h6.47v-.97-2.26-2.25-.99H45.3V0zm0 0h6.47v-.97-2.26-2.25-.99H45.3V0zm0 0h6.47v-.97-2.26-2.25-.99H45.3V0zm0 0h6.47v-.97-2.26-2.25-.99H45.3V0zm12.93 0H64.7v-.97-2.26-2.25-.99h-6.47V0zm0 0H64.7v-.97-2.26-2.25-.99h-6.47V0zm0 0H64.7v-.97-2.26-2.25-.99h-6.47V0zm0 0H64.7v-.97-2.26-2.25-.99h-6.47V0zm6.47 0H71.17v-.97-2.26-2.25-.99H64.7V0zm0 0H71.17v-.97-2.26-2.25-.99H64.7V0zm0 0H71.17v-.97-2.26-2.25-.99H64.7V0zm0 0H71.17v-.97-2.26-2.25-.99H64.7V0zM38.83-6.47h6.47v-.97-2.26-2.25-.99h-6.47V-6.47zm0 0h6.47v-.97-2.26-2.25-.99h-6.47V-6.47zm0 0h6.47v-.97-2.26-2.25-.99h-6.47V-6.47zm0 0h6.47v-.97-2.26-2.25-.99h-6.47V-6.47zm19.4 0H64.7v-.97-2.26-2.25-.99h-6.47V-6.47zm0 0H64.7v-.97-2.26-2.25-.99h-6.47V-6.47zm0 0H64.7v-.97-2.26-2.25-.99h-6.47V-6.47zm0 0H64.7v-.97-2.26-2.25-.99h-6.47V-6.47zm-25.87-6.47h6.47v-.97-2.26-2.25-.99h-6.47V-12.94zm0 0h6.47v-.97-2.26-2.25-.99h-6.47V-12.94zm0 0h6.47v-.97-2.26-2.25-.99h-6.47V-12.94zm0 0h6.47v-.97-2.26-2.25-.99h-6.47V-12.94zm6.47 0h6.47v-.97-2.26-2.25-.99h-6.47V-12.94zm0 0h6.47v-.97-2.26-2.25-.99h-6.47V-12.94zm0 0h6.47v-.97-2.26-2.25-.99h-6.47V-12.94zm0 0h6.47v-.97-2.26-2.25-.99h-6.47V-12.94zm6.47 0h6.47v-.97-2.26-2.25-.99H45.3V-12.94zm0 0h6.47v-.97-2.26-2.25-.99H45.3V-12.94zm0 0h6.47v-.97-2.26-2.25-.99H45.3V-12.94zm0 0h6.47v-.97-2.26-2.25-.99H45.3V-12.94zm6.47 0H58.23v-.97-2.26-2.25-.99h-6.46V-12.94zm0 0H58.23v-.97-2.26-2.25-.99h-6.46V-12.94zm0 0H58.23v-.97-2.26-2.25-.99h-6.46V-12.94zm0 0H58.23v-.97-2.26-2.25-.99h-6.46V-12.94zm6.46 0H64.7v-.97-2.26-2.25-.99h-6.47V-12.94zm0 0H64.7v-.97-2.26-2.25-.99h-6.47V-12.94zm0 0H64.7v-.97-2.26-2.25-.99h-6.47V-12.94zm0 0H64.7v-.97-2.26-2.25-.99h-6.47V-12.94zm6.47 0H71.17v-.97-2.26-2.25-.99H64.7V-12.94zm0 0H71.17v-.97-2.26-2.25-.99H64.7V-12.94zm0 0H71.17v-.97-2.26-2.25-.99H64.7V-12.94zm0 0H71.17v-.97-2.26-2.25-.99H64.7V-12.94zM32.36-19.4h6.47v-.96-2.27-2.25-.98h-6.47v6.46zm0 0h6.47v-.96-2.27-2.25-.98h-6.47v6.46zm0 0h6.47v-.96-2.27-2.25-.98h-6.47v6.46zm0 0h6.47v-.96-2.27-2.25-.98h-6.47v6.46zm32.34 0H71.17v-.96-2.27-2.25-.98H64.7v6.46zm0 0H71.17v-.96-2.27-2.25-.98H64.7v6.46zm0 0H71.17v-.96-2.27-2.25-.98H64.7v6.46zm0 0H71.17v-.96-2.27-2.25-.98H64.7v6.46zm-38.83-6.46H32.34v-.97-2.27-2.25-.98h-6.46v6.46zm0 0H32.34v-.97-2.27-2.25-.98h-6.46v6.46zm0 0H32.34v-.97-2.27-2.25-.98h-6.46v6.46zm0 0H32.34v-.97-2.27-2.25-.98h-6.46v6.46zm22.66 0H55v-.97-2.27-2.25-.98h-6.47v6.46zm0 0H55v-.97-2.27-2.25-.98h-6.47v6.46zm0 0H55v-.97-2.27-2.25-.98h-6.47v6.46zm0 0H55v-.97-2.27-2.25-.98h-6.47v6.46zm22.64 0H77.64v-.97-2.27-2.25-.98h-6.47v6.46zm0 0H77.64v-.97-2.27-2.25-.98h-6.47v6.46zm0 0H77.64v-.97-2.27-2.25-.98h-6.47v6.46zm0 0H77.64v-.97-2.27-2.25-.98h-6.47v6.46zm-64.7-3.25h6.47v-.97-2.27-2.25-.98H6.47v6.46zm0 0h6.47v-.97-2.27-2.25-.98H6.47v6.46zm0 0h6.47v-.97-2.27-2.25-.98H6.47v6.46zm0 0h6.47v-.97-2.27-2.25-.98H6.47v6.46zm6.47 0h6.47v-.97-2.27-2.25-.98h-6.47v6.46zm0 0h6.47v-.97-2.27-2.25-.98h-6.47v6.46zm0 0h6.47v-.97-2.27-2.25-.98h-6.47v6.46zm0 0h6.47v-.97-2.27-2.25-.98h-6.47v6.46zm6.47 0H25.87v-.97-2.27-2.25-.98h-6.46v6.46zm0 0H25.87v-.97-2.27-2.25-.98h-6.46v6.46zm0 0H25.87v-.97-2.27-2.25-.98h-6.46v6.46zm0 0H25.87v-.97-2.27-2.25-.98h-6.46v6.46zm58.23 0H84.11v-.97-2.27-2.25-.98h-6.47v6.46zm0 0H84.11v-.97-2.27-2.25-.98h-6.47v6.46zm0 0H84.11v-.97-2.27-2.25-.98h-6.47v6.46zm0 0H84.11v-.97-2.27-2.25-.98h-6.47v6.46zm6.48 0H90.6v-.97-2.27-2.25-.98h-6.47v6.46zm0 0H90.6v-.97-2.27-2.25-.98h-6.47v6.46zm0 0H90.6v-.97-2.27-2.25-.98h-6.47v6.46zm0 0H90.6v-.97-2.27-2.25-.98h-6.47v6.46zm6.47 0H97.06v-.97-2.27-2.25-.98H90.6v6.46zm0 0H97.06v-.97-2.27-2.25-.98H90.6v6.46zm0 0H97.06v-.97-2.27-2.25-.98H90.6v6.46zm0 0H97.06v-.97-2.27-2.25-.98H90.6v6.46zm-64.72-3.24H32.34v-.97-2.26-2.25-.99h-6.46V-32.36zm0 0H32.34v-.97-2.26-2.25-.99h-6.46V-32.36zm0 0H32.34v-.97-2.26-2.25-.99h-6.46V-32.36zm0 0H32.34v-.97-2.26-2.25-.99h-6.46V-32.36zm16.2 0H48.52v-.97-2.26-2.25-.99h-6.47V-32.36zm0 0H48.52v-.97-2.26-2.25-.99h-6.47V-32.36zm0 0H48.52v-.97-2.26-2.25-.99h-6.47V-32.36zm0 0H48.52v-.97-2.26-2.25-.99h-6.47V-32.36zm12.93 0h6.47v-.97-2.26-2.25-.99H55V-32.36zm0 0h6.47v-.97-2.26-2.25-.99H55V-32.36zm0 0h6.47v-.97-2.26-2.25-.99H55V-32.36zm0 0h6.47v-.97-2.26-2.25-.99H55V-32.36zm16.17 0H77.64v-.97-2.26-2.25-.99h-6.47V-32.36zm0 0H77.64v-.97-2.26-2.25-.99h-6.47V-32.36zm0 0H77.64v-.97-2.26-2.25-.99h-6.47V-32.36zm0 0H77.64v-.97-2.26-2.25-.99h-6.47V-32.36zM0-35.59h6.47v-.97-2.27-2.25-.98H0V-35.6zm0 0h6.47v-.97-2.27-2.25-.98H0V-35.6zm0 0h6.47v-.97-2.27-2.25-.98H0V-35.6zm0 0h6.47v-.97-2.27-2.25-.98H0V-35.6zm97.06 0H103.53v-.97-2.27-2.25-.98h-6.47V-35.6zm0 0H103.53v-.97-2.27-2.25-.98h-6.47V-35.6zm0 0H103.53v-.97-2.27-2.25-.98h-6.47V-35.6zm0 0H103.53v-.97-2.27-2.25-.98h-6.47V-35.6zm-71.19-3.24H32.34v-.97-2.26-2.25-.99h-6.46V-38.83zm0 0H32.34v-.97-2.26-2.25-.99h-6.46V-38.83zm0 0H32.34v-.97-2.26-2.25-.99h-6.46V-38.83zm0 0H32.34v-.97-2.26-2.25-.99h-6.46V-38.83zm45.3 0H77.64v-.97-2.26-2.25-.99h-6.47V-38.83zm0 0H77.64v-.97-2.26-2.25-.99h-6.47V-38.83zm0 0H77.64v-.97-2.26-2.25-.99h-6.47V-38.83zm0 0H77.64v-.97-2.26-2.25-.99h-6.47V-38.83zM0-42.06h6.47v-.97-2.27-2.25-.98H0V-42.06zm0 0h6.47v-.97-2.27-2.25-.98H0V-42.06zm0 0h6.47v-.97-2.27-2.25-.98H0V-42.06zm0 0h6.47v-.97-2.27-2.25-.98H0V-42.06zm97.06 0H103.53v-.97-2.27-2.25-.98h-6.47V-42.06zm0 0H103.53v-.97-2.27-2.25-.98h-6.47V-42.06zm0 0H103.53v-.97-2.27-2.25-.98h-6.47V-42.06zm0 0H103.53v-.97-2.27-2.25-.98h-6.47V-42.06zM19.41-45.3H25.87v-.97-2.26-2.25-.99h-6.46V-45.3zm0 0H25.87v-.97-2.26-2.25-.99h-6.46V-45.3zm0 0H25.87v-.97-2.26-2.25-.99h-6.46V-45.3zm0 0H25.87v-.97-2.26-2.25-.99h-6.46V-45.3zm6.46 0H32.34v-.97-2.26-2.25-.99h-6.46V-45.3zm0 0H32.34v-.97-2.26-2.25-.99h-6.46V-45.3zm0 0H32.34v-.97-2.26-2.25-.99h-6.46V-45.3zm0 0H32.34v-.97-2.26-2.25-.99h-6.46V-45.3zm9.72 0H42.06v-.97-2.26-2.25-.99H35.6V-45.3zm0 0H42.06v-.97-2.26-2.25-.99H35.6V-45.3zm0 0H42.06v-.97-2.26-2.25-.99H35.6V-45.3zm0 0H42.06v-.97-2.26-2.25-.99H35.6V-45.3zm6.47 0H48.53v-.97-2.26-2.25-.99h-6.47V-45.3zm0 0H48.53v-.97-2.26-2.25-.99h-6.47V-45.3zm0 0H48.53v-.97-2.26-2.25-.99h-6.47V-45.3zm0 0H48.53v-.97-2.26-2.25-.99h-6.47V-45.3zm12.94 0h6.47v-.97-2.26-2.25-.99H55V-45.3zm0 0h6.47v-.97-2.26-2.25-.99H55V-45.3zm0 0h6.47v-.97-2.26-2.25-.99H55V-45.3zm0 0h6.47v-.97-2.26-2.25-.99H55V-45.3zm6.47 0h6.47v-.97-2.26-2.25-.99h-6.47V-45.3zm0 0h6.47v-.97-2.26-2.25-.99h-6.47V-45.3zm0 0h6.47v-.97-2.26-2.25-.99h-6.47V-45.3zm0 0h6.47v-.97-2.26-2.25-.99h-6.47V-45.3zm9.7 0H77.64v-.97-2.26-2.25-.99h-6.47V-45.3zm0 0H77.64v-.97-2.26-2.25-.99h-6.47V-45.3zm0 0H77.64v-.97-2.26-2.25-.99h-6.47V-45.3zm0 0H77.64v-.97-2.26-2.25-.99h-6.47V-45.3zm6.47 0H84.11v-.97-2.26-2.25-.99h-6.47V-45.3zm0 0H84.11v-.97-2.26-2.25-.99h-6.47V-45.3zm0 0H84.11v-.97-2.26-2.25-.99h-6.47V-45.3zm0 0H84.11v-.97-2.26-2.25-.99h-6.47V-45.3zM0-48.53h6.47v-.97-2.27-2.25-.98H0V-48.53zm0 0h6.47v-.97-2.27-2.25-.98H0V-48.53zm0 0h6.47v-.97-2.27-2.25-.98H0V-48.53zm0 0h6.47v-.97-2.27-2.25-.98H0V-48.53zm6.47 0h6.47v-.97-2.27-2.25-.98H6.47V-48.53zm0 0h6.47v-.97-2.27-2.25-.98H6.47V-48.53zm0 0h6.47v-.97-2.27-2.25-.98H6.47V-48.53zm0 0h6.47v-.97-2.27-2.25-.98H6.47V-48.53zm6.47 0h6.47v-.97-2.27-2.25-.98h-6.47V-48.53zm0 0h6.47v-.97-2.27-2.25-.98h-6.47V-48.53zm0 0h6.47v-.97-2.27-2.25-.98h-6.47V-48.53zm0 0h6.47v-.97-2.27-2.25-.98h-6.47V-48.53zm71.19 0H90.59v-.97-2.27-2.25-.98h-6.47V-48.53zm0 0H90.59v-.97-2.27-2.25-.98h-6.47V-48.53zm0 0H90.59v-.97-2.27-2.25-.98h-6.47V-48.53zm0 0H90.59v-.97-2.27-2.25-.98h-6.47V-48.53zm6.46 0H97.06v-.97-2.27-2.25-.98H90.6V-48.53zm0 0H97.06v-.97-2.27-2.25-.98H90.6V-48.53zm0 0H97.06v-.97-2.27-2.25-.98H90.6V-48.53zm0 0H97.06v-.97-2.27-2.25-.98H90.6V-48.53zm6.47 0H103.53v-.97-2.27-2.25-.98h-6.47V-48.53zm0 0H103.53v-.97-2.27-2.25-.98h-6.47V-48.53zm0 0H103.53v-.97-2.27-2.25-.98h-6.47V-48.53zm0 0H103.53v-.97-2.27-2.25-.98h-6.47V-48.53zm-71.19-3.24H32.34v-.96V-55v-2.25-.98h-6.46v6.46zm0 0H32.34v-.96V-55v-2.25-.98h-6.46v6.46zm0 0H32.34v-.96V-55v-2.25-.98h-6.46v6.46zm0 0H32.34v-.96V-55v-2.25-.98h-6.46v6.46zm22.66 0H55v-.96V-55v-2.25-.98h-6.47v6.46zm0 0H55v-.96V-55v-2.25-.98h-6.47v6.46zm0 0H55v-.96V-55v-2.25-.98h-6.47v6.46zm0 0H55v-.96V-55v-2.25-.98h-6.47v6.46zm22.64 0H77.64v-.96V-55v-2.25-.98h-6.47v6.46zm0 0H77.64v-.96V-55v-2.25-.98h-6.47v6.46zm0 0H77.64v-.96V-55v-2.25-.98h-6.47v6.46zm0 0H77.64v-.96V-55v-2.25-.98h-6.47v6.46zM38.83-55h6.47v-.97-2.26-2.25-.99h-6.47V-55zm0 0h6.47v-.97-2.26-2.25-.99h-6.47V-55zm0 0h6.47v-.97-2.26-2.25-.99h-6.47V-55zm0 0h6.47v-.97-2.26-2.25-.99h-6.47V-55zm19.4 0H64.7v-.97-2.26-2.25-.99h-6.47V-55zm0 0H64.7v-.97-2.26-2.25-.99h-6.47V-55zm0 0H64.7v-.97-2.26-2.25-.99h-6.47V-55zm0 0H64.7v-.97-2.26-2.25-.99h-6.47V-55zm-32.35-3.23H32.34v-.97-2.27-2.25-.98h-6.46V-58.23zm0 0H32.34v-.97-2.27-2.25-.98h-6.46V-58.23zm0 0H32.34v-.97-2.27-2.25-.98h-6.46V-58.23zm0 0H32.34v-.97-2.27-2.25-.98h-6.46V-58.23zm22.65 0H55v-.97-2.27-2.25-.98h-6.47V-58.23zm0 0H55v-.97-2.27-2.25-.98h-6.47V-58.23zm0 0H55v-.97-2.27-2.25-.98h-6.47V-58.23zm0 0H55v-.97-2.27-2.25-.98h-6.47V-58.23zm22.64 0H77.64v-.97-2.27-2.25-.98h-6.47V-58.23zm0 0H77.64v-.97-2.27-2.25-.98h-6.47V-58.23zm0 0H77.64v-.97-2.27-2.25-.98h-6.47V-58.23zm0 0H77.64v-.97-2.27-2.25-.98h-6.47V-58.23zm-45.3-6.47H32.34v-.97-2.27-2.25-.98h-6.46V-64.7zm0 0H32.34v-.97-2.27-2.25-.98h-6.46V-64.7zm0 0H32.34v-.97-2.27-2.25-.98h-6.46V-64.7zm0 0H32.34v-.97-2.27-2.25-.98h-6.46V-64.7zm9.72 0H42.06v-.97-2.27-2.25-.98H35.6V-64.7zm0 0H42.06v-.97-2.27-2.25-.98H35.6V-64.7zm0 0H42.06v-.97-2.27-2.25-.98H35.6V-64.7zm0 0H42.06v-.97-2.27-2.25-.98H35.6V-64.7zm6.47 0H48.53v-.97-2.27-2.25-.98h-6.47V-64.7zm0 0H48.53v-.97-2.27-2.25-.98h-6.47V-64.7zm0 0H48.53v-.97-2.27-2.25-.98h-6.47V-64.7zm0 0H48.53v-.97-2.27-2.25-.98h-6.47V-64.7zm12.94 0h6.47v-.97-2.27-2.25-.98H55V-64.7zm0 0h6.47v-.97-2.27-2.25-.98H55V-64.7zm0 0h6.47v-.97-2.27-2.25-.98H55V-64.7zm0 0h6.47v-.97-2.27-2.25-.98H55V-64.7zm6.47 0h6.47v-.97-2.27-2.25-.98h-6.47V-64.7zm0 0h6.47v-.97-2.27-2.25-.98h-6.47V-64.7zm0 0h6.47v-.97-2.27-2.25-.98h-6.47V-64.7zm0 0h6.47v-.97-2.27-2.25-.98h-6.47V-64.7zm9.7 0H77.64v-.97-2.27-2.25-.98h-6.47V-64.7zm0 0H77.64v-.97-2.27-2.25-.98h-6.47V-64.7zm0 0H77.64v-.97-2.27-2.25-.98h-6.47V-64.7zm0 0H77.64v-.97-2.27-2.25-.98h-6.47V-64.7zm-45.3-6.47H32.34v-.97-2.27-2.25-.98h-6.46V-71.17zm0 0H32.34v-.97-2.27-2.25-.98h-6.46V-71.17zm0 0H32.34v-.97-2.27-2.25-.98h-6.46V-71.17zm0 0H32.34v-.97-2.27-2.25-.98h-6.46V-71.17zm45.3 0H77.64v-.97-2.27-2.25-.98h-6.47V-71.17zm0 0H77.64v-.97-2.27-2.25-.98h-6.47V-71.17zm0 0H77.64v-.97-2.27-2.25-.98h-6.47V-71.17zm0 0H77.64v-.97-2.27-2.25-.98h-6.47V-71.17zm-38.81-6.47h6.47v-.97-2.27-2.25-.98h-6.47V-77.64zm0 0h6.47v-.97-2.27-2.25-.98h-6.47V-77.64zm0 0h6.47v-.97-2.27-2.25-.98h-6.47V-77.64zm0 0h6.47v-.97-2.27-2.25-.98h-6.47V-77.64zm12.94 0h6.47v-.97-2.27-2.25-.98H45.3V-77.64zm0 0h6.47v-.97-2.27-2.25-.98H45.3V-77.64zm0 0h6.47v-.97-2.27-2.25-.98H45.3V-77.64zm0 0h6.47v-.97-2.27-2.25-.98H45.3V-77.64zm6.47 0H58.23v-.97-2.27-2.25-.98h-6.46V-77.64zm0 0H58.23v-.97-2.27-2.25-.98h-6.46V-77.64zm0 0H58.23v-.97-2.27-2.25-.98h-6.46V-77.64zm0 0H58.23v-.97-2.27-2.25-.98h-6.46V-77.64zm12.93 0H71.17v-.97-2.27-2.25-.98H64.7V-77.64zm0 0H71.17v-.97-2.27-2.25-.98H64.7V-77.64zm0 0H71.17v-.97-2.27-2.25-.98H64.7V-77.64zm0 0H71.17v-.97-2.27-2.25-.98H64.7V-77.64zm-25.87-6.48h6.47v-.97-2.27-2.25-.98h-6.47v6.46zm0 0h6.47v-.97-2.27-2.25-.98h-6.47v6.46zm0 0h6.47v-.97-2.27-2.25-.98h-6.47v6.46zm0 0h6.47v-.97-2.27-2.25-.98h-6.47v6.46zm19.4 0H64.7v-.97-2.27-2.25-.98h-6.47v6.46zm0 0H64.7v-.97-2.27-2.25-.98h-6.47v6.46zm0 0H64.7v-.97-2.27-2.25-.98h-6.47v6.46zm0 0H64.7v-.97-2.27-2.25-.98h-6.47v6.46zm0 0"/></symbol><symbol overflow="visible" id="e71a9cafc"><path d="M32.36 0h6.47v-.97-2.26-2.25-.99h-6.47V0zm0 0h6.47v-.97-2.26-2.25-.99h-6.47V0zm0 0h6.47v-.97-2.26-2.25-.99h-6.47V0zm0 0h6.47v-.97-2.26-2.25-.99h-6.47V0zm6.47 0h6.47v-.97-2.26-2.25-.99h-6.47V0zm0 0h6.47v-.97-2.26-2.25-.99h-6.47V0zm0 0h6.47v-.97-2.26-2.25-.99h-6.47V0zm0 0h6.47v-.97-2.26-2.25-.99h-6.47V0zm6.47 0h6.47v-.97-2.26-2.25-.99H45.3V0zm0 0h6.47v-.97-2.26-2.25-.99H45.3V0zm0 0h6.47v-.97-2.26-2.25-.99H45.3V0zm0 0h6.47v-.97-2.26-2.25-.99H45.3V0zm12.93 0H64.7v-.97-2.26-2.25-.99h-6.47V0zm0 0H64.7v-.97-2.26-2.25-.99h-6.47V0zm0 0H64.7v-.97-2.26-2.25-.99h-6.47V0zm0 0H64.7v-.97-2.26-2.25-.99h-6.47V0zm6.47 0H71.17v-.97-2.26-2.25-.99H64.7V0zm0 0H71.17v-.97-2.26-2.25-.99H64.7V0zm0 0H71.17v-.97-2.26-2.25-.99H64.7V0zm0 0H71.17v-.97-2.26-2.25-.99H64.7V0zM38.83-6.47h6.47v-.97-2.26-2.25-.99h-6.47V-6.47zm0 0h6.47v-.97-2.26-2.25-.99h-6.47V-6.47zm0 0h6.47v-.97-2.26-2.25-.99h-6.47V-6.47zm0 0h6.47v-.97-2.26-2.25-.99h-6.47V-6.47zm19.4 0H64.7v-.97-2.26-2.25-.99h-6.47V-6.47zm0 0H64.7v-.97-2.26-2.25-.99h-6.47V-6.47zm0 0H64.7v-.97-2.26-2.25-.99h-6.47V-6.47zm0 0H64.7v-.97-2.26-2.25-.99h-6.47V-6.47zm-25.87-6.47h6.47v-.97-2.26-2.25-.99h-6.47V-12.94zm0 0h6.47v-.97-2.26-2.25-.99h-6.47V-12.94zm0 0h6.47v-.97-2.26-2.25-.99h-6.47V-12.94zm0 0h6.47v-.97-2.26-2.25-.99h-6.47V-12.94zm6.47 0h6.47v-.97-2.26-2.25-.99h-6.47V-12.94zm0 0h6.47v-.97-2.26-2.25-.99h-6.47V-12.94zm0 0h6.47v-.97-2.26-2.25-.99h-6.47V-12.94zm0 0h6.47v-.97-2.26-2.25-.99h-6.47V-12.94zm6.47 0h6.47v-.97-2.26-2.25-.99H45.3V-12.94zm0 0h6.47v-.97-2.26-2.25-.99H45.3V-12.94zm0 0h6.47v-.97-2.26-2.25-.99H45.3V-12.94zm0 0h6.47v-.97-2.26-2.25-.99H45.3V-12.94zm6.47 0H58.23v-.97-2.26-2.25-.99h-6.46V-12.94zm0 0H58.23v-.97-2.26-2.25-.99h-6.46V-12.94zm0 0H58.23v-.97-2.26-2.25-.99h-6.46V-12.94zm0 0H58.23v-.97-2.26-2.25-.99h-6.46V-12.94zm6.46 0H64.7v-.97-2.26-2.25-.99h-6.47V-12.94zm0 0H64.7v-.97-2.26-2.25-.99h-6.47V-12.94zm0 0H64.7v-.97-2.26-2.25-.99h-6.47V-12.94zm0 0H64.7v-.97-2.26-2.25-.99h-6.47V-12.94zm6.47 0H71.17v-.97-2.26-2.25-.99H64.7V-12.94zm0 0H71.17v-.97-2.26-2.25-.99H64.7V-12.94zm0 0H71.17v-.97-2.26-2.25-.99H64.7V-12.94zm0 0H71.17v-.97-2.26-2.25-.99H64.7V-12.94zM12.94-19.4h6.47v-.96-2.27-2.25-.98h-6.47v6.46zm0 0h6.47v-.96-2.27-2.25-.98h-6.47v6.46zm0 0h6.47v-.96-2.27-2.25-.98h-6.47v6.46zm0 0h6.47v-.96-2.27-2.25-.98h-6.47v6.46zm6.47 0H25.87v-.96-2.27-2.25-.98h-6.46v6.46zm0 0H25.87v-.96-2.27-2.25-.98h-6.46v6.46zm0 0H25.87v-.96-2.27-2.25-.98h-6.46v6.46zm0 0H25.87v-.96-2.27-2.25-.98h-6.46v6.46zm6.46 0H32.34v-.96-2.27-2.25-.98h-6.46v6.46zm0 0H32.34v-.96-2.27-2.25-.98h-6.46v6.46zm0 0H32.34v-.96-2.27-2.25-.98h-6.46v6.46zm0 0H32.34v-.96-2.27-2.25-.98h-6.46v6.46zm6.49 0h6.47v-.96-2.27-2.25-.98h-6.47v6.46zm0 0h6.47v-.96-2.27-2.25-.98h-6.47v6.46zm0 0h6.47v-.96-2.27-2.25-.98h-6.47v6.46zm0 0h6.47v-.96-2.27-2.25-.98h-6.47v6.46zm6.47 0h6.47v-.96-2.27-2.25-.98h-6.47v6.46zm0 0h6.47v-.96-2.27-2.25-.98h-6.47v6.46zm0 0h6.47v-.96-2.27-2.25-.98h-6.47v6.46zm0 0h6.47v-.96-2.27-2.25-.98h-6.47v6.46zm6.47 0h6.47v-.96-2.27-2.25-.98H45.3v6.46zm0 0h6.47v-.96-2.27-2.25-.98H45.3v6.46zm0 0h6.47v-.96-2.27-2.25-.98H45.3v6.46zm0 0h6.47v-.96-2.27-2.25-.98H45.3v6.46zm6.47 0H58.23v-.96-2.27-2.25-.98h-6.46v6.46zm0 0H58.23v-.96-2.27-2.25-.98h-6.46v6.46zm0 0H58.23v-.96-2.27-2.25-.98h-6.46v6.46zm0 0H58.23v-.96-2.27-2.25-.98h-6.46v6.46zm6.46 0H64.7v-.96-2.27-2.25-.98h-6.47v6.46zm0 0H64.7v-.96-2.27-2.25-.98h-6.47v6.46zm0 0H64.7v-.96-2.27-2.25-.98h-6.47v6.46zm0 0H64.7v-.96-2.27-2.25-.98h-6.47v6.46zm6.47 0H71.17v-.96-2.27-2.25-.98H64.7v6.46zm0 0H71.17v-.96-2.27-2.25-.98H64.7v6.46zm0 0H71.17v-.96-2.27-2.25-.98H64.7v6.46zm0 0H71.17v-.96-2.27-2.25-.98H64.7v6.46zm6.47 0H77.64v-.96-2.27-2.25-.98h-6.47v6.46zm0 0H77.64v-.96-2.27-2.25-.98h-6.47v6.46zm0 0H77.64v-.96-2.27-2.25-.98h-6.47v6.46zm0 0H77.64v-.96-2.27-2.25-.98h-6.47v6.46zm6.47 0H84.11v-.96-2.27-2.25-.98h-6.47v6.46zm0 0H84.11v-.96-2.27-2.25-.98h-6.47v6.46zm0 0H84.11v-.96-2.27-2.25-.98h-6.47v6.46zm0 0H84.11v-.96-2.27-2.25-.98h-6.47v6.46zm6.48 0H90.6v-.96-2.27-2.25-.98h-6.47v6.46zm0 0H90.6v-.96-2.27-2.25-.98h-6.47v6.46zm0 0H90.6v-.96-2.27-2.25-.98h-6.47v6.46zm0 0H90.6v-.96-2.27-2.25-.98h-6.47v6.46zm-71.18-6.46h6.47v-.97-2.27-2.25-.98h-6.47v6.46zm0 0h6.47v-.97-2.27-2.25-.98h-6.47v6.46zm0 0h6.47v-.97-2.27-2.25-.98h-6.47v6.46zm0 0h6.47v-.97-2.27-2.25-.98h-6.47v6.46zm12.94 0H32.34v-.97-2.27-2.25-.98h-6.46v6.46zm0 0H32.34v-.97-2.27-2.25-.98h-6.46v6.46zm0 0H32.34v-.97-2.27-2.25-.98h-6.46v6.46zm0 0H32.34v-.97-2.27-2.25-.98h-6.46v6.46zm6.48 0h6.47v-.97-2.27-2.25-.98h-6.47v6.46zm0 0h6.47v-.97-2.27-2.25-.98h-6.47v6.46zm0 0h6.47v-.97-2.27-2.25-.98h-6.47v6.46zm0 0h6.47v-.97-2.27-2.25-.98h-6.47v6.46zm6.47 0h6.47v-.97-2.27-2.25-.98h-6.47v6.46zm0 0h6.47v-.97-2.27-2.25-.98h-6.47v6.46zm0 0h6.47v-.97-2.27-2.25-.98h-6.47v6.46zm0 0h6.47v-.97-2.27-2.25-.98h-6.47v6.46zm12.94 0H58.23v-.97-2.27-2.25-.98h-6.46v6.46zm0 0H58.23v-.97-2.27-2.25-.98h-6.46v6.46zm0 0H58.23v-.97-2.27-2.25-.98h-6.46v6.46zm0 0H58.23v-.97-2.27-2.25-.98h-6.46v6.46zm6.46 0H64.7v-.97-2.27-2.25-.98h-6.47v6.46zm0 0H64.7v-.97-2.27-2.25-.98h-6.47v6.46zm0 0H64.7v-.97-2.27-2.25-.98h-6.47v6.46zm0 0H64.7v-.97-2.27-2.25-.98h-6.47v6.46zm6.47 0H71.17v-.97-2.27-2.25-.98H64.7v6.46zm0 0H71.17v-.97-2.27-2.25-.98H64.7v6.46zm0 0H71.17v-.97-2.27-2.25-.98H64.7v6.46zm0 0H71.17v-.97-2.27-2.25-.98H64.7v6.46zm6.47 0H77.64v-.97-2.27-2.25-.98h-6.47v6.46zm0 0H77.64v-.97-2.27-2.25-.98h-6.47v6.46zm0 0H77.64v-.97-2.27-2.25-.98h-6.47v6.46zm0 0H77.64v-.97-2.27-2.25-.98h-6.47v6.46zm12.95 0H90.6v-.97-2.27-2.25-.98h-6.47v6.46zm0 0H90.6v-.97-2.27-2.25-.98h-6.47v6.46zm0 0H90.6v-.97-2.27-2.25-.98h-6.47v6.46zm0 0H90.6v-.97-2.27-2.25-.98h-6.47v6.46zm-71.18-6.49h6.47v-.97-2.26-2.25-.99h-6.47V-32.36zm0 0h6.47v-.97-2.26-2.25-.99h-6.47V-32.36zm0 0h6.47v-.97-2.26-2.25-.99h-6.47V-32.36zm0 0h6.47v-.97-2.26-2.25-.99h-6.47V-32.36zm12.94 0H32.34v-.97-2.26-2.25-.99h-6.46V-32.36zm0 0H32.34v-.97-2.26-2.25-.99h-6.46V-32.36zm0 0H32.34v-.97-2.26-2.25-.99h-6.46V-32.36zm0 0H32.34v-.97-2.26-2.25-.99h-6.46V-32.36zm6.48 0h6.47v-.97-2.26-2.25-.99h-6.47V-32.36zm0 0h6.47v-.97-2.26-2.25-.99h-6.47V-32.36zm0 0h6.47v-.97-2.26-2.25-.99h-6.47V-32.36zm0 0h6.47v-.97-2.26-2.25-.99h-6.47V-32.36zm6.47 0h6.47v-.97-2.26-2.25-.99h-6.47V-32.36zm0 0h6.47v-.97-2.26-2.25-.99h-6.47V-32.36zm0 0h6.47v-.97-2.26-2.25-.99h-6.47V-32.36zm0 0h6.47v-.97-2.26-2.25-.99h-6.47V-32.36zm19.4 0H64.7v-.97-2.26-2.25-.99h-6.47V-32.36zm0 0H64.7v-.97-2.26-2.25-.99h-6.47V-32.36zm0 0H64.7v-.97-2.26-2.25-.99h-6.47V-32.36zm0 0H64.7v-.97-2.26-2.25-.99h-6.47V-32.36zm6.47 0H71.17v-.97-2.26-2.25-.99H64.7V-32.36zm0 0H71.17v-.97-2.26-2.25-.99H64.7V-32.36zm0 0H71.17v-.97-2.26-2.25-.99H64.7V-32.36zm0 0H71.17v-.97-2.26-2.25-.99H64.7V-32.36zm6.47 0H77.64v-.97-2.26-2.25-.99h-6.47V-32.36zm0 0H77.64v-.97-2.26-2.25-.99h-6.47V-32.36zm0 0H77.64v-.97-2.26-2.25-.99h-6.47V-32.36zm0 0H77.64v-.97-2.26-2.25-.99h-6.47V-32.36zm12.95 0H90.6v-.97-2.26-2.25-.99h-6.47V-32.36zm0 0H90.6v-.97-2.26-2.25-.99h-6.47V-32.36zm0 0H90.6v-.97-2.26-2.25-.99h-6.47V-32.36zm0 0H90.6v-.97-2.26-2.25-.99h-6.47V-32.36zm-71.18-6.47h6.47v-.97-2.26-2.25-.99h-6.47V-38.83zm0 0h6.47v-.97-2.26-2.25-.99h-6.47V-38.83zm0 0h6.47v-.97-2.26-2.25-.99h-6.47V-38.83zm0 0h6.47v-.97-2.26-2.25-.99h-6.47V-38.83zm12.94 0H32.34v-.97-2.26-2.25-.99h-6.46V-38.83zm0 0H32.34v-.97-2.26-2.25-.99h-6.46V-38.83zm0 0H32.34v-.97-2.26-2.25-.99h-6.46V-38.83zm0 0H32.34v-.97-2.26-2.25-.99h-6.46V-38.83zm6.48 0h6.47v-.97-2.26-2.25-.99h-6.47V-38.83zm0 0h6.47v-.97-2.26-2.25-.99h-6.47V-38.83zm0 0h6.47v-.97-2.26-2.25-.99h-6.47V-38.83zm0 0h6.47v-.97-2.26-2.25-.99h-6.47V-38.83zm6.47 0h6.47v-.97-2.26-2.25-.99h-6.47V-38.83zm0 0h6.47v-.97-2.26-2.25-.99h-6.47V-38.83zm0 0h6.47v-.97-2.26-2.25-.99h-6.47V-38.83zm0 0h6.47v-.97-2.26-2.25-.99h-6.47V-38.83zm6.47 0h6.47v-.97-2.26-2.25-.99H45.3V-38.83zm0 0h6.47v-.97-2.26-2.25-.99H45.3V-38.83zm0 0h6.47v-.97-2.26-2.25-.99H45.3V-38.83zm0 0h6.47v-.97-2.26-2.25-.99H45.3V-38.83zm6.47 0H58.23v-.97-2.26-2.25-.99h-6.46V-38.83zm0 0H58.23v-.97-2.26-2.25-.99h-6.46V-38.83zm0 0H58.23v-.97-2.26-2.25-.99h-6.46V-38.83zm0 0H58.23v-.97-2.26-2.25-.99h-6.46V-38.83zm6.46 0H64.7v-.97-2.26-2.25-.99h-6.47V-38.83zm0 0H64.7v-.97-2.26-2.25-.99h-6.47V-38.83zm0 0H64.7v-.97-2.26-2.25-.99h-6.47V-38.83zm0 0H64.7v-.97-2.26-2.25-.99h-6.47V-38.83zm6.47 0H71.17v-.97-2.26-2.25-.99H64.7V-38.83zm0 0H71.17v-.97-2.26-2.25-.99H64.7V-38.83zm0 0H71.17v-.97-2.26-2.25-.99H64.7V-38.83zm0 0H71.17v-.97-2.26-2.25-.99H64.7V-38.83zm6.47 0H77.64v-.97-2.26-2.25-.99h-6.47V-38.83zm0 0H77.64v-.97-2.26-2.25-.99h-6.47V-38.83zm0 0H77.64v-.97-2.26-2.25-.99h-6.47V-38.83zm0 0H77.64v-.97-2.26-2.25-.99h-6.47V-38.83zm12.95 0H90.6v-.97-2.26-2.25-.99h-6.47V-38.83zm0 0H90.6v-.97-2.26-2.25-.99h-6.47V-38.83zm0 0H90.6v-.97-2.26-2.25-.99h-6.47V-38.83zm0 0H90.6v-.97-2.26-2.25-.99h-6.47V-38.83zM19.42-45.3H25.87v-.97-2.26-2.25-.99h-6.46V-45.3zm0 0H25.87v-.97-2.26-2.25-.99h-6.46V-45.3zm0 0H25.87v-.97-2.26-2.25-.99h-6.46V-45.3zm0 0H25.87v-.97-2.26-2.25-.99h-6.46V-45.3zm6.46 0H32.34v-.97-2.26-2.25-.99h-6.46V-45.3zm0 0H32.34v-.97-2.26-2.25-.99h-6.46V-45.3zm0 0H32.34v-.97-2.26-2.25-.99h-6.46V-45.3zm0 0H32.34v-.97-2.26-2.25-.99h-6.46V-45.3zm19.43 0h6.47v-.97-2.26-2.25-.99H45.3V-45.3zm0 0h6.47v-.97-2.26-2.25-.99H45.3V-45.3zm0 0h6.47v-.97-2.26-2.25-.99H45.3V-45.3zm0 0h6.47v-.97-2.26-2.25-.99H45.3V-45.3zm6.47 0H58.23v-.97-2.26-2.25-.99h-6.46V-45.3zm0 0H58.23v-.97-2.26-2.25-.99h-6.46V-45.3zm0 0H58.23v-.97-2.26-2.25-.99h-6.46V-45.3zm0 0H58.23v-.97-2.26-2.25-.99h-6.46V-45.3zm19.4 0H77.64v-.97-2.26-2.25-.99h-6.47V-45.3zm0 0H77.64v-.97-2.26-2.25-.99h-6.47V-45.3zm0 0H77.64v-.97-2.26-2.25-.99h-6.47V-45.3zm0 0H77.64v-.97-2.26-2.25-.99h-6.47V-45.3zm6.47 0H84.11v-.97-2.26-2.25-.99h-6.47V-45.3zm0 0H84.11v-.97-2.26-2.25-.99h-6.47V-45.3zm0 0H84.11v-.97-2.26-2.25-.99h-6.47V-45.3zm0 0H84.11v-.97-2.26-2.25-.99h-6.47V-45.3zm-51.77-6.47H32.34v-.96V-55v-2.25-.98h-6.46v6.46zm0 0H32.34v-.96V-55v-2.25-.98h-6.46v6.46zm0 0H32.34v-.96V-55v-2.25-.98h-6.46v6.46zm0 0H32.34v-.96V-55v-2.25-.98h-6.46v6.46zm12.96 0h6.47v-.96V-55v-2.25-.98h-6.47v6.46zm0 0h6.47v-.96V-55v-2.25-.98h-6.47v6.46zm0 0h6.47v-.96V-55v-2.25-.98h-6.47v6.46zm0 0h6.47v-.96V-55v-2.25-.98h-6.47v6.46zm9.7 0H55v-.96V-55v-2.25-.98h-6.47v6.46zm0 0H55v-.96V-55v-2.25-.98h-6.47v6.46zm0 0H55v-.96V-55v-2.25-.98h-6.47v6.46zm0 0H55v-.96V-55v-2.25-.98h-6.47v6.46zm9.7 0H64.7v-.96V-55v-2.25-.98h-6.47v6.46zm0 0H64.7v-.96V-55v-2.25-.98h-6.47v6.46zm0 0H64.7v-.96V-55v-2.25-.98h-6.47v6.46zm0 0H64.7v-.96V-55v-2.25-.98h-6.47v6.46zm12.94 0H77.64v-.96V-55v-2.25-.98h-6.47v6.46zm0 0H77.64v-.96V-55v-2.25-.98h-6.47v6.46zm0 0H77.64v-.96V-55v-2.25-.98h-6.47v6.46zm0 0H77.64v-.96V-55v-2.25-.98h-6.47v6.46zm-45.3-6.46H32.34v-.97-2.27-2.25-.98h-6.46V-58.23zm0 0H32.34v-.97-2.27-2.25-.98h-6.46V-58.23zm0 0H32.34v-.97-2.27-2.25-.98h-6.46V-58.23zm0 0H32.34v-.97-2.27-2.25-.98h-6.46V-58.23zm22.66 0H55v-.97-2.27-2.25-.98h-6.47V-58.23zm0 0H55v-.97-2.27-2.25-.98h-6.47V-58.23zm0 0H55v-.97-2.27-2.25-.98h-6.47V-58.23zm0 0H55v-.97-2.27-2.25-.98h-6.47V-58.23zm22.64 0H77.64v-.97-2.27-2.25-.98h-6.47V-58.23zm0 0H77.64v-.97-2.27-2.25-.98h-6.47V-58.23zm0 0H77.64v-.97-2.27-2.25-.98h-6.47V-58.23zm0 0H77.64v-.97-2.27-2.25-.98h-6.47V-58.23zm-45.3-6.47H32.34v-.97-2.27-2.25-.98h-6.46V-64.7zm0 0H32.34v-.97-2.27-2.25-.98h-6.46V-64.7zm0 0H32.34v-.97-2.27-2.25-.98h-6.46V-64.7zm0 0H32.34v-.97-2.27-2.25-.98h-6.46V-64.7zm6.49 0h6.47v-.97-2.27-2.25-.98h-6.47V-64.7zm0 0h6.47v-.97-2.27-2.25-.98h-6.47V-64.7zm0 0h6.47v-.97-2.27-2.25-.98h-6.47V-64.7zm0 0h6.47v-.97-2.27-2.25-.98h-6.47V-64.7zm6.47 0h6.47v-.97-2.27-2.25-.98h-6.47V-64.7zm0 0h6.47v-.97-2.27-2.25-.98h-6.47V-64.7zm0 0h6.47v-.97-2.27-2.25-.98h-6.47V-64.7zm0 0h6.47v-.97-2.27-2.25-.98h-6.47V-64.7zm6.47 0h6.47v-.97-2.27-2.25-.98H45.3V-64.7zm0 0h6.47v-.97-2.27-2.25-.98H45.3V-64.7zm0 0h6.47v-.97-2.27-2.25-.98H45.3V-64.7zm0 0h6.47v-.97-2.27-2.25-.98H45.3V-64.7zm6.47 0H58.23v-.97-2.27-2.25-.98h-6.46V-64.7zm0 0H58.23v-.97-2.27-2.25-.98h-6.46V-64.7zm0 0H58.23v-.97-2.27-2.25-.98h-6.46V-64.7zm0 0H58.23v-.97-2.27-2.25-.98h-6.46V-64.7zm6.46 0H64.7v-.97-2.27-2.25-.98h-6.47V-64.7zm0 0H64.7v-.97-2.27-2.25-.98h-6.47V-64.7zm0 0H64.7v-.97-2.27-2.25-.98h-6.47V-64.7zm0 0H64.7v-.97-2.27-2.25-.98h-6.47V-64.7zm6.47 0H71.17v-.97-2.27-2.25-.98H64.7V-64.7zm0 0H71.17v-.97-2.27-2.25-.98H64.7V-64.7zm0 0H71.17v-.97-2.27-2.25-.98H64.7V-64.7zm0 0H71.17v-.97-2.27-2.25-.98H64.7V-64.7zm6.47 0H77.64v-.97-2.27-2.25-.98h-6.47V-64.7zm0 0H77.64v-.97-2.27-2.25-.98h-6.47V-64.7zm0 0H77.64v-.97-2.27-2.25-.98h-6.47V-64.7zm0 0H77.64v-.97-2.27-2.25-.98h-6.47V-64.7zm-45.3-6.47H32.34v-.97-2.27-2.25-.98h-6.46V-71.17zm0 0H32.34v-.97-2.27-2.25-.98h-6.46V-71.17zm0 0H32.34v-.97-2.27-2.25-.98h-6.46V-71.17zm0 0H32.34v-.97-2.27-2.25-.98h-6.46V-71.17zm6.49 0h6.47v-.97-2.27-2.25-.98h-6.47V-71.17zm0 0h6.47v-.97-2.27-2.25-.98h-6.47V-71.17zm0 0h6.47v-.97-2.27-2.25-.98h-6.47V-71.17zm0 0h6.47v-.97-2.27-2.25-.98h-6.47V-71.17zm6.47 0h6.47v-.97-2.27-2.25-.98h-6.47V-71.17zm0 0h6.47v-.97-2.27-2.25-.98h-6.47V-71.17zm0 0h6.47v-.97-2.27-2.25-.98h-6.47V-71.17zm0 0h6.47v-.97-2.27-2.25-.98h-6.47V-71.17zm6.47 0h6.47v-.97-2.27-2.25-.98H45.3V-71.17zm0 0h6.47v-.97-2.27-2.25-.98H45.3V-71.17zm0 0h6.47v-.97-2.27-2.25-.98H45.3V-71.17zm0 0h6.47v-.97-2.27-2.25-.98H45.3V-71.17zm6.47 0H58.23v-.97-2.27-2.25-.98h-6.46V-71.17zm0 0H58.23v-.97-2.27-2.25-.98h-6.46V-71.17zm0 0H58.23v-.97-2.27-2.25-.98h-6.46V-71.17zm0 0H58.23v-.97-2.27-2.25-.98h-6.46V-71.17zm6.46 0H64.7v-.97-2.27-2.25-.98h-6.47V-71.17zm0 0H64.7v-.97-2.27-2.25-.98h-6.47V-71.17zm0 0H64.7v-.97-2.27-2.25-.98h-6.47V-71.17zm0 0H64.7v-.97-2.27-2.25-.98h-6.47V-71.17zm6.47 0H71.17v-.97-2.27-2.25-.98H64.7V-71.17zm0 0H71.17v-.97-2.27-2.25-.98H64.7V-71.17zm0 0H71.17v-.97-2.27-2.25-.98H64.7V-71.17zm0 0H71.17v-.97-2.27-2.25-.98H64.7V-71.17zm6.47 0H77.64v-.97-2.27-2.25-.98h-6.47V-71.17zm0 0H77.64v-.97-2.27-2.25-.98h-6.47V-71.17zm0 0H77.64v-.97-2.27-2.25-.98h-6.47V-71.17zm0 0H77.64v-.97-2.27-2.25-.98h-6.47V-71.17zm-38.81-6.47h6.47v-.97-2.27-2.25-.98h-6.47V-77.64zm0 0h6.47v-.97-2.27-2.25-.98h-6.47V-77.64zm0 0h6.47v-.97-2.27-2.25-.98h-6.47V-77.64zm0 0h6.47v-.97-2.27-2.25-.98h-6.47V-77.64zm6.47 0h6.47v-.97-2.27-2.25-.98h-6.47V-77.64zm0 0h6.47v-.97-2.27-2.25-.98h-6.47V-77.64zm0 0h6.47v-.97-2.27-2.25-.98h-6.47V-77.64zm0 0h6.47v-.97-2.27-2.25-.98h-6.47V-77.64zm6.47 0h6.47v-.97-2.27-2.25-.98H45.3V-77.64zm0 0h6.47v-.97-2.27-2.25-.98H45.3V-77.64zm0 0h6.47v-.97-2.27-2.25-.98H45.3V-77.64zm0 0h6.47v-.97-2.27-2.25-.98H45.3V-77.64zm6.47 0H58.23v-.97-2.27-2.25-.98h-6.46V-77.64zm0 0H58.23v-.97-2.27-2.25-.98h-6.46V-77.64zm0 0H58.23v-.97-2.27-2.25-.98h-6.46V-77.64zm0 0H58.23v-.97-2.27-2.25-.98h-6.46V-77.64zm6.46 0H64.7v-.97-2.27-2.25-.98h-6.47V-77.64zm0 0H64.7v-.97-2.27-2.25-.98h-6.47V-77.64zm0 0H64.7v-.97-2.27-2.25-.98h-6.47V-77.64zm0 0H64.7v-.97-2.27-2.25-.98h-6.47V-77.64zm6.47 0H71.17v-.97-2.27-2.25-.98H64.7V-77.64zm0 0H71.17v-.97-2.27-2.25-.98H64.7V-77.64zm0 0H71.17v-.97-2.27-2.25-.98H64.7V-77.64zm0 0H71.17v-.97-2.27-2.25-.98H64.7V-77.64zm-25.87-6.48h6.47v-.97-2.27-2.25-.98h-6.47v6.46zm0 0h6.47v-.97-2.27-2.25-.98h-6.47v6.46zm0 0h6.47v-.97-2.27-2.25-.98h-6.47v6.46zm0 0h6.47v-.97-2.27-2.25-.98h-6.47v6.46zm19.4 0H64.7v-.97-2.27-2.25-.98h-6.47v6.46zm0 0H64.7v-.97-2.27-2.25-.98h-6.47v6.46zm0 0H64.7v-.97-2.27-2.25-.98h-6.47v6.46zm0 0H64.7v-.97-2.27-2.25-.98h-6.47v6.46zm0 0"/></symbol><symbol overflow="visible" id="e71a9cafd"><path d="M32.36 0h6.47v-.97-2.26-2.25-.99h-6.47V0zm0 0h6.47v-.97-2.26-2.25-.99h-6.47V0zm0 0h6.47v-.97-2.26-2.25-.99h-6.47V0zm0 0h6.47v-.97-2.26-2.25-.99h-6.47V0zm6.47 0h6.47v-.97-2.26-2.25-.99h-6.47V0zm0 0h6.47v-.97-2.26-2.25-.99h-6.47V0zm0 0h6.47v-.97-2.26-2.25-.99h-6.47V0zm0 0h6.47v-.97-2.26-2.25-.99h-6.47V0zm6.47 0h6.47v-.97-2.26-2.25-.99H45.3V0zm0 0h6.47v-.97-2.26-2.25-.99H45.3V0zm0 0h6.47v-.97-2.26-2.25-.99H45.3V0zm0 0h6.47v-.97-2.26-2.25-.99H45.3V0zm12.93 0H64.7v-.97-2.26-2.25-.99h-6.47V0zm0 0H64.7v-.97-2.26-2.25-.99h-6.47V0zm0 0H64.7v-.97-2.26-2.25-.99h-6.47V0zm0 0H64.7v-.97-2.26-2.25-.99h-6.47V0zm6.47 0H71.17v-.97-2.26-2.25-.99H64.7V0zm0 0H71.17v-.97-2.26-2.25-.99H64.7V0zm0 0H71.17v-.97-2.26-2.25-.99H64.7V0zm0 0H71.17v-.97-2.26-2.25-.99H64.7V0zM38.83-6.47h6.47v-.97-2.26-2.25-.99h-6.47V-6.47zm0 0h6.47v-.97-2.26-2.25-.99h-6.47V-6.47zm0 0h6.47v-.97-2.26-2.25-.99h-6.47V-6.47zm0 0h6.47v-.97-2.26-2.25-.99h-6.47V-6.47zm19.4 0H64.7v-.97-2.26-2.25-.99h-6.47V-6.47zm0 0H64.7v-.97-2.26-2.25-.99h-6.47V-6.47zm0 0H64.7v-.97-2.26-2.25-.99h-6.47V-6.47zm0 0H64.7v-.97-2.26-2.25-.99h-6.47V-6.47zm-25.87-6.47h6.47v-.97-2.26-2.25-.99h-6.47V-12.94zm0 0h6.47v-.97-2.26-2.25-.99h-6.47V-12.94zm0 0h6.47v-.97-2.26-2.25-.99h-6.47V-12.94zm0 0h6.47v-.97-2.26-2.25-.99h-6.47V-12.94zm6.47 0h6.47v-.97-2.26-2.25-.99h-6.47V-12.94zm0 0h6.47v-.97-2.26-2.25-.99h-6.47V-12.94zm0 0h6.47v-.97-2.26-2.25-.99h-6.47V-12.94zm0 0h6.47v-.97-2.26-2.25-.99h-6.47V-12.94zm6.47 0h6.47v-.97-2.26-2.25-.99H45.3V-12.94zm0 0h6.47v-.97-2.26-2.25-.99H45.3V-12.94zm0 0h6.47v-.97-2.26-2.25-.99H45.3V-12.94zm0 0h6.47v-.97-2.26-2.25-.99H45.3V-12.94zm6.47 0H58.23v-.97-2.26-2.25-.99h-6.46V-12.94zm0 0H58.23v-.97-2.26-2.25-.99h-6.46V-12.94zm0 0H58.23v-.97-2.26-2.25-.99h-6.46V-12.94zm0 0H58.23v-.97-2.26-2.25-.99h-6.46V-12.94zm6.46 0H64.7v-.97-2.26-2.25-.99h-6.47V-12.94zm0 0H64.7v-.97-2.26-2.25-.99h-6.47V-12.94zm0 0H64.7v-.97-2.26-2.25-.99h-6.47V-12.94zm0 0H64.7v-.97-2.26-2.25-.99h-6.47V-12.94zm6.47 0H71.17v-.97-2.26-2.25-.99H64.7V-12.94zm0 0H71.17v-.97-2.26-2.25-.99H64.7V-12.94zm0 0H71.17v-.97-2.26-2.25-.99H64.7V-12.94zm0 0H71.17v-.97-2.26-2.25-.99H64.7V-12.94zM32.36-19.4h6.47v-.96-2.27-2.25-.98h-6.47v6.46zm0 0h6.47v-.96-2.27-2.25-.98h-6.47v6.46zm0 0h6.47v-.96-2.27-2.25-.98h-6.47v6.46zm0 0h6.47v-.96-2.27-2.25-.98h-6.47v6.46zm6.47 0h6.47v-.96-2.27-2.25-.98h-6.47v6.46zm0 0h6.47v-.96-2.27-2.25-.98h-6.47v6.46zm0 0h6.47v-.96-2.27-2.25-.98h-6.47v6.46zm0 0h6.47v-.96-2.27-2.25-.98h-6.47v6.46zm6.47 0h6.47v-.96-2.27-2.25-.98H45.3v6.46zm0 0h6.47v-.96-2.27-2.25-.98H45.3v6.46zm0 0h6.47v-.96-2.27-2.25-.98H45.3v6.46zm0 0h6.47v-.96-2.27-2.25-.98H45.3v6.46zm6.47 0H58.23v-.96-2.27-2.25-.98h-6.46v6.46zm0 0H58.23v-.96-2.27-2.25-.98h-6.46v6.46zm0 0H58.23v-.96-2.27-2.25-.98h-6.46v6.46zm0 0H58.23v-.96-2.27-2.25-.98h-6.46v6.46zm6.46 0H64.7v-.96-2.27-2.25-.98h-6.47v6.46zm0 0H64.7v-.96-2.27-2.25-.98h-6.47v6.46zm0 0H64.7v-.96-2.27-2.25-.98h-6.47v6.46zm0 0H64.7v-.96-2.27-2.25-.98h-6.47v6.46zm6.47 0H71.17v-.96-2.27-2.25-.98H64.7v6.46zm0 0H71.17v-.96-2.27-2.25-.98H64.7v6.46zm0 0H71.17v-.96-2.27-2.25-.98H64.7v6.46zm0 0H71.17v-.96-2.27-2.25-.98H64.7v6.46zm-38.83-6.46H32.34v-.97-2.27-2.25-.98h-6.46v6.46zm0 0H32.34v-.97-2.27-2.25-.98h-6.46v6.46zm0 0H32.34v-.97-2.27-2.25-.98h-6.46v6.46zm0 0H32.34v-.97-2.27-2.25-.98h-6.46v6.46zm6.49 0h6.47v-.97-2.27-2.25-.98h-6.47v6.46zm0 0h6.47v-.97-2.27-2.25-.98h-6.47v6.46zm0 0h6.47v-.97-2.27-2.25-.98h-6.47v6.46zm0 0h6.47v-.97-2.27-2.25-.98h-6.47v6.46zm6.47 0h6.47v-.97-2.27-2.25-.98h-6.47v6.46zm0 0h6.47v-.97-2.27-2.25-.98h-6.47v6.46zm0 0h6.47v-.97-2.27-2.25-.98h-6.47v6.46zm0 0h6.47v-.97-2.27-2.25-.98h-6.47v6.46zm12.94 0H58.23v-.97-2.27-2.25-.98h-6.46v6.46zm0 0H58.23v-.97-2.27-2.25-.98h-6.46v6.46zm0 0H58.23v-.97-2.27-2.25-.98h-6.46v6.46zm0 0H58.23v-.97-2.27-2.25-.98h-6.46v6.46zm6.46 0H64.7v-.97-2.27-2.25-.98h-6.47v6.46zm0 0H64.7v-.97-2.27-2.25-.98h-6.47v6.46zm0 0H64.7v-.97-2.27-2.25-.98h-6.47v6.46zm0 0H64.7v-.97-2.27-2.25-.98h-6.47v6.46zm6.47 0H71.17v-.97-2.27-2.25-.98H64.7v6.46zm0 0H71.17v-.97-2.27-2.25-.98H64.7v6.46zm0 0H71.17v-.97-2.27-2.25-.98H64.7v6.46zm0 0H71.17v-.97-2.27-2.25-.98H64.7v6.46zm6.47 0H77.64v-.97-2.27-2.25-.98h-6.47v6.46zm0 0H77.64v-.97-2.27-2.25-.98h-6.47v6.46zm0 0H77.64v-.97-2.27-2.25-.98h-6.47v6.46zm0 0H77.64v-.97-2.27-2.25-.98h-6.47v6.46zm-64.7-3.25h6.47v-.97-2.27-2.25-.98H6.47v6.46zm0 0h6.47v-.97-2.27-2.25-.98H6.47v6.46zm0 0h6.47v-.97-2.27-2.25-.98H6.47v6.46zm0 0h6.47v-.97-2.27-2.25-.98H6.47v6.46zm6.47 0h6.47v-.97-2.27-2.25-.98h-6.47v6.46zm0 0h6.47v-.97-2.27-2.25-.98h-6.47v6.46zm0 0h6.47v-.97-2.27-2.25-.98h-6.47v6.46zm0 0h6.47v-.97-2.27-2.25-.98h-6.47v6.46zm6.47 0H25.87v-.97-2.27-2.25-.98h-6.46v6.46zm0 0H25.87v-.97-2.27-2.25-.98h-6.46v6.46zm0 0H25.87v-.97-2.27-2.25-.98h-6.46v6.46zm0 0H25.87v-.97-2.27-2.25-.98h-6.46v6.46zm58.23 0H84.11v-.97-2.27-2.25-.98h-6.47v6.46zm0 0H84.11v-.97-2.27-2.25-.98h-6.47v6.46zm0 0H84.11v-.97-2.27-2.25-.98h-6.47v6.46zm0 0H84.11v-.97-2.27-2.25-.98h-6.47v6.46zm6.48 0H90.6v-.97-2.27-2.25-.98h-6.47v6.46zm0 0H90.6v-.97-2.27-2.25-.98h-6.47v6.46zm0 0H90.6v-.97-2.27-2.25-.98h-6.47v6.46zm0 0H90.6v-.97-2.27-2.25-.98h-6.47v6.46zm6.47 0H97.06v-.97-2.27-2.25-.98H90.6v6.46zm0 0H97.06v-.97-2.27-2.25-.98H90.6v6.46zm0 0H97.06v-.97-2.27-2.25-.98H90.6v6.46zm0 0H97.06v-.97-2.27-2.25-.98H90.6v6.46zm-64.72-3.24H32.34v-.97-2.26-2.25-.99h-6.46V-32.36zm0 0H32.34v-.97-2.26-2.25-.99h-6.46V-32.36zm0 0H32.34v-.97-2.26-2.25-.99h-6.46V-32.36zm0 0H32.34v-.97-2.26-2.25-.99h-6.46V-32.36zm6.49 0h6.47v-.97-2.26-2.25-.99h-6.47V-32.36zm0 0h6.47v-.97-2.26-2.25-.99h-6.47V-32.36zm0 0h6.47v-.97-2.26-2.25-.99h-6.47V-32.36zm0 0h6.47v-.97-2.26-2.25-.99h-6.47V-32.36zm6.47 0h6.47v-.97-2.26-2.25-.99h-6.47V-32.36zm0 0h6.47v-.97-2.26-2.25-.99h-6.47V-32.36zm0 0h6.47v-.97-2.26-2.25-.99h-6.47V-32.36zm0 0h6.47v-.97-2.26-2.25-.99h-6.47V-32.36zm19.4 0H64.7v-.97-2.26-2.25-.99h-6.47V-32.36zm0 0H64.7v-.97-2.26-2.25-.99h-6.47V-32.36zm0 0H64.7v-.97-2.26-2.25-.99h-6.47V-32.36zm0 0H64.7v-.97-2.26-2.25-.99h-6.47V-32.36zm6.47 0H71.17v-.97-2.26-2.25-.99H64.7V-32.36zm0 0H71.17v-.97-2.26-2.25-.99H64.7V-32.36zm0 0H71.17v-.97-2.26-2.25-.99H64.7V-32.36zm0 0H71.17v-.97-2.26-2.25-.99H64.7V-32.36zm6.47 0H77.64v-.97-2.26-2.25-.99h-6.47V-32.36zm0 0H77.64v-.97-2.26-2.25-.99h-6.47V-32.36zm0 0H77.64v-.97-2.26-2.25-.99h-6.47V-32.36zm0 0H77.64v-.97-2.26-2.25-.99h-6.47V-32.36zM0-35.59h6.47v-.97-2.27-2.25-.98H0V-35.6zm0 0h6.47v-.97-2.27-2.25-.98H0V-35.6zm0 0h6.47v-.97-2.27-2.25-.98H0V-35.6zm0 0h6.47v-.97-2.27-2.25-.98H0V-35.6zm97.06 0H103.53v-.97-2.27-2.25-.98h-6.47V-35.6zm0 0H103.53v-.97-2.27-2.25-.98h-6.47V-35.6zm0 0H103.53v-.97-2.27-2.25-.98h-6.47V-35.6zm0 0H103.53v-.97-2.27-2.25-.98h-6.47V-35.6zm-71.19-3.24H32.34v-.97-2.26-2.25-.99h-6.46V-38.83zm0 0H32.34v-.97-2.26-2.25-.99h-6.46V-38.83zm0 0H32.34v-.97-2.26-2.25-.99h-6.46V-38.83zm0 0H32.34v-.97-2.26-2.25-.99h-6.46V-38.83zm6.49 0h6.47v-.97-2.26-2.25-.99h-6.47V-38.83zm0 0h6.47v-.97-2.26-2.25-.99h-6.47V-38.83zm0 0h6.47v-.97-2.26-2.25-.99h-6.47V-38.83zm0 0h6.47v-.97-2.26-2.25-.99h-6.47V-38.83zm6.47 0h6.47v-.97-2.26-2.25-.99h-6.47V-38.83zm0 0h6.47v-.97-2.26-2.25-.99h-6.47V-38.83zm0 0h6.47v-.97-2.26-2.25-.99h-6.47V-38.83zm0 0h6.47v-.97-2.26-2.25-.99h-6.47V-38.83zm6.47 0h6.47v-.97-2.26-2.25-.99H45.3V-38.83zm0 0h6.47v-.97-2.26-2.25-.99H45.3V-38.83zm0 0h6.47v-.97-2.26-2.25-.99H45.3V-38.83zm0 0h6.47v-.97-2.26-2.25-.99H45.3V-38.83zm6.47 0H58.23v-.97-2.26-2.25-.99h-6.46V-38.83zm0 0H58.23v-.97-2.26-2.25-.99h-6.46V-38.83zm0 0H58.23v-.97-2.26-2.25-.99h-6.46V-38.83zm0 0H58.23v-.97-2.26-2.25-.99h-6.46V-38.83zm6.46 0H64.7v-.97-2.26-2.25-.99h-6.47V-38.83zm0 0H64.7v-.97-2.26-2.25-.99h-6.47V-38.83zm0 0H64.7v-.97-2.26-2.25-.99h-6.47V-38.83zm0 0H64.7v-.97-2.26-2.25-.99h-6.47V-38.83zm6.47 0H71.17v-.97-2.26-2.25-.99H64.7V-38.83zm0 0H71.17v-.97-2.26-2.25-.99H64.7V-38.83zm0 0H71.17v-.97-2.26-2.25-.99H64.7V-38.83zm0 0H71.17v-.97-2.26-2.25-.99H64.7V-38.83zm6.47 0H77.64v-.97-2.26-2.25-.99h-6.47V-38.83zm0 0H77.64v-.97-2.26-2.25-.99h-6.47V-38.83zm0 0H77.64v-.97-2.26-2.25-.99h-6.47V-38.83zm0 0H77.64v-.97-2.26-2.25-.99h-6.47V-38.83zM0-42.06h6.47v-.97-2.27-2.25-.98H0V-42.06zm0 0h6.47v-.97-2.27-2.25-.98H0V-42.06zm0 0h6.47v-.97-2.27-2.25-.98H0V-42.06zm0 0h6.47v-.97-2.27-2.25-.98H0V-42.06zm97.06 0H103.53v-.97-2.27-2.25-.98h-6.47V-42.06zm0 0H103.53v-.97-2.27-2.25-.98h-6.47V-42.06zm0 0H103.53v-.97-2.27-2.25-.98h-6.47V-42.06zm0 0H103.53v-.97-2.27-2.25-.98h-6.47V-42.06zM19.41-45.3H25.87v-.97-2.26-2.25-.99h-6.46V-45.3zm0 0H25.87v-.97-2.26-2.25-.99h-6.46V-45.3zm0 0H25.87v-.97-2.26-2.25-.99h-6.46V-45.3zm0 0H25.87v-.97-2.26-2.25-.99h-6.46V-45.3zm6.46 0H32.34v-.97-2.26-2.25-.99h-6.46V-45.3zm0 0H32.34v-.97-2.26-2.25-.99h-6.46V-45.3zm0 0H32.34v-.97-2.26-2.25-.99h-6.46V-45.3zm0 0H32.34v-.97-2.26-2.25-.99h-6.46V-45.3zm19.43 0h6.47v-.97-2.26-2.25-.99H45.3V-45.3zm0 0h6.47v-.97-2.26-2.25-.99H45.3V-45.3zm0 0h6.47v-.97-2.26-2.25-.99H45.3V-45.3zm0 0h6.47v-.97-2.26-2.25-.99H45.3V-45.3zm6.47 0H58.23v-.97-2.26-2.25-.99h-6.46V-45.3zm0 0H58.23v-.97-2.26-2.25-.99h-6.46V-45.3zm0 0H58.23v-.97-2.26-2.25-.99h-6.46V-45.3zm0 0H58.23v-.97-2.26-2.25-.99h-6.46V-45.3zm19.4 0H77.64v-.97-2.26-2.25-.99h-6.47V-45.3zm0 0H77.64v-.97-2.26-2.25-.99h-6.47V-45.3zm0 0H77.64v-.97-2.26-2.25-.99h-6.47V-45.3zm0 0H77.64v-.97-2.26-2.25-.99h-6.47V-45.3zm6.47 0H84.11v-.97-2.26-2.25-.99h-6.47V-45.3zm0 0H84.11v-.97-2.26-2.25-.99h-6.47V-45.3zm0 0H84.11v-.97-2.26-2.25-.99h-6.47V-45.3zm0 0H84.11v-.97-2.26-2.25-.99h-6.47V-45.3zM0-48.53h6.47v-.97-2.27-2.25-.98H0V-48.53zm0 0h6.47v-.97-2.27-2.25-.98H0V-48.53zm0 0h6.47v-.97-2.27-2.25-.98H0V-48.53zm0 0h6.47v-.97-2.27-2.25-.98H0V-48.53zm6.47 0h6.47v-.97-2.27-2.25-.98H6.47V-48.53zm0 0h6.47v-.97-2.27-2.25-.98H6.47V-48.53zm0 0h6.47v-.97-2.27-2.25-.98H6.47V-48.53zm0 0h6.47v-.97-2.27-2.25-.98H6.47V-48.53zm6.47 0h6.47v-.97-2.27-2.25-.98h-6.47V-48.53zm0 0h6.47v-.97-2.27-2.25-.98h-6.47V-48.53zm0 0h6.47v-.97-2.27-2.25-.98h-6.47V-48.53zm0 0h6.47v-.97-2.27-2.25-.98h-6.47V-48.53zm71.19 0H90.59v-.97-2.27-2.25-.98h-6.47V-48.53zm0 0H90.59v-.97-2.27-2.25-.98h-6.47V-48.53zm0 0H90.59v-.97-2.27-2.25-.98h-6.47V-48.53zm0 0H90.59v-.97-2.27-2.25-.98h-6.47V-48.53zm6.46 0H97.06v-.97-2.27-2.25-.98H90.6V-48.53zm0 0H97.06v-.97-2.27-2.25-.98H90.6V-48.53zm0 0H97.06v-.97-2.27-2.25-.98H90.6V-48.53zm0 0H97.06v-.97-2.27-2.25-.98H90.6V-48.53zm6.47 0H103.53v-.97-2.27-2.25-.98h-6.47V-48.53zm0 0H103.53v-.97-2.27-2.25-.98h-6.47V-48.53zm0 0H103.53v-.97-2.27-2.25-.98h-6.47V-48.53zm0 0H103.53v-.97-2.27-2.25-.98h-6.47V-48.53zm-71.19-3.24H32.34v-.96V-55v-2.25-.98h-6.46v6.46zm0 0H32.34v-.96V-55v-2.25-.98h-6.46v6.46zm0 0H32.34v-.96V-55v-2.25-.98h-6.46v6.46zm0 0H32.34v-.96V-55v-2.25-.98h-6.46v6.46zm12.96 0h6.47v-.96V-55v-2.25-.98h-6.47v6.46zm0 0h6.47v-.96V-55v-2.25-.98h-6.47v6.46zm0 0h6.47v-.96V-55v-2.25-.98h-6.47v6.46zm0 0h6.47v-.96V-55v-2.25-.98h-6.47v6.46zm9.7 0H55v-.96V-55v-2.25-.98h-6.47v6.46zm0 0H55v-.96V-55v-2.25-.98h-6.47v6.46zm0 0H55v-.96V-55v-2.25-.98h-6.47v6.46zm0 0H55v-.96V-55v-2.25-.98h-6.47v6.46zm9.7 0H64.7v-.96V-55v-2.25-.98h-6.47v6.46zm0 0H64.7v-.96V-55v-2.25-.98h-6.47v6.46zm0 0H64.7v-.96V-55v-2.25-.98h-6.47v6.46zm0 0H64.7v-.96V-55v-2.25-.98h-6.47v6.46zm12.94 0H77.64v-.96V-55v-2.25-.98h-6.47v6.46zm0 0H77.64v-.96V-55v-2.25-.98h-6.47v6.46zm0 0H77.64v-.96V-55v-2.25-.98h-6.47v6.46zm0 0H77.64v-.96V-55v-2.25-.98h-6.47v6.46zm-45.3-6.46H32.34v-.97-2.27-2.25-.98h-6.46V-58.23zm0 0H32.34v-.97-2.27-2.25-.98h-6.46V-58.23zm0 0H32.34v-.97-2.27-2.25-.98h-6.46V-58.23zm0 0H32.34v-.97-2.27-2.25-.98h-6.46V-58.23zm22.66 0H55v-.97-2.27-2.25-.98h-6.47V-58.23zm0 0H55v-.97-2.27-2.25-.98h-6.47V-58.23zm0 0H55v-.97-2.27-2.25-.98h-6.47V-58.23zm0 0H55v-.97-2.27-2.25-.98h-6.47V-58.23zm22.64 0H77.64v-.97-2.27-2.25-.98h-6.47V-58.23zm0 0H77.64v-.97-2.27-2.25-.98h-6.47V-58.23zm0 0H77.64v-.97-2.27-2.25-.98h-6.47V-58.23zm0 0H77.64v-.97-2.27-2.25-.98h-6.47V-58.23zm-45.3-6.47H32.34v-.97-2.27-2.25-.98h-6.46V-64.7zm0 0H32.34v-.97-2.27-2.25-.98h-6.46V-64.7zm0 0H32.34v-.97-2.27-2.25-.98h-6.46V-64.7zm0 0H32.34v-.97-2.27-2.25-.98h-6.46V-64.7zm22.66 0H55v-.97-2.27-2.25-.98h-6.47V-64.7zm0 0H55v-.97-2.27-2.25-.98h-6.47V-64.7zm0 0H55v-.97-2.27-2.25-.98h-6.47V-64.7zm0 0H55v-.97-2.27-2.25-.98h-6.47V-64.7zm22.64 0H77.64v-.97-2.27-2.25-.98h-6.47V-64.7zm0 0H77.64v-.97-2.27-2.25-.98h-6.47V-64.7zm0 0H77.64v-.97-2.27-2.25-.98h-6.47V-64.7zm0 0H77.64v-.97-2.27-2.25-.98h-6.47V-64.7zm-45.3-6.47H32.34v-.97-2.27-2.25-.98h-6.46V-71.17zm0 0H32.34v-.97-2.27-2.25-.98h-6.46V-71.17zm0 0H32.34v-.97-2.27-2.25-.98h-6.46V-71.17zm0 0H32.34v-.97-2.27-2.25-.98h-6.46V-71.17zm6.49 0h6.47v-.97-2.27-2.25-.98h-6.47V-71.17zm0 0h6.47v-.97-2.27-2.25-.98h-6.47V-71.17zm0 0h6.47v-.97-2.27-2.25-.98h-6.47V-71.17zm0 0h6.47v-.97-2.27-2.25-.98h-6.47V-71.17zm6.47 0h6.47v-.97-2.27-2.25-.98h-6.47V-71.17zm0 0h6.47v-.97-2.27-2.25-.98h-6.47V-71.17zm0 0h6.47v-.97-2.27-2.25-.98h-6.47V-71.17zm0 0h6.47v-.97-2.27-2.25-.98h-6.47V-71.17zm6.47 0h6.47v-.97-2.27-2.25-.98H45.3V-71.17zm0 0h6.47v-.97-2.27-2.25-.98H45.3V-71.17zm0 0h6.47v-.97-2.27-2.25-.98H45.3V-71.17zm0 0h6.47v-.97-2.27-2.25-.98H45.3V-71.17zm6.47 0H58.23v-.97-2.27-2.25-.98h-6.46V-71.17zm0 0H58.23v-.97-2.27-2.25-.98h-6.46V-71.17zm0 0H58.23v-.97-2.27-2.25-.98h-6.46V-71.17zm0 0H58.23v-.97-2.27-2.25-.98h-6.46V-71.17zm6.46 0H64.7v-.97-2.27-2.25-.98h-6.47V-71.17zm0 0H64.7v-.97-2.27-2.25-.98h-6.47V-71.17zm0 0H64.7v-.97-2.27-2.25-.98h-6.47V-71.17zm0 0H64.7v-.97-2.27-2.25-.98h-6.47V-71.17zm6.47 0H71.17v-.97-2.27-2.25-.98H64.7V-71.17zm0 0H71.17v-.97-2.27-2.25-.98H64.7V-71.17zm0 0H71.17v-.97-2.27-2.25-.98H64.7V-71.17zm0 0H71.17v-.97-2.27-2.25-.98H64.7V-71.17zm6.47 0H77.64v-.97-2.27-2.25-.98h-6.47V-71.17zm0 0H77.64v-.97-2.27-2.25-.98h-6.47V-71.17zm0 0H77.64v-.97-2.27-2.25-.98h-6.47V-71.17zm0 0H77.64v-.97-2.27-2.25-.98h-6.47V-71.17zm-38.81-6.47h6.47v-.97-2.27-2.25-.98h-6.47V-77.64zm0 0h6.47v-.97-2.27-2.25-.98h-6.47V-77.64zm0 0h6.47v-.97-2.27-2.25-.98h-6.47V-77.64zm0 0h6.47v-.97-2.27-2.25-.98h-6.47V-77.64zm6.47 0h6.47v-.97-2.27-2.25-.98h-6.47V-77.64zm0 0h6.47v-.97-2.27-2.25-.98h-6.47V-77.64zm0 0h6.47v-.97-2.27-2.25-.98h-6.47V-77.64zm0 0h6.47v-.97-2.27-2.25-.98h-6.47V-77.64zm6.47 0h6.47v-.97-2.27-2.25-.98H45.3V-77.64zm0 0h6.47v-.97-2.27-2.25-.98H45.3V-77.64zm0 0h6.47v-.97-2.27-2.25-.98H45.3V-77.64zm0 0h6.47v-.97-2.27-2.25-.98H45.3V-77.64zm6.47 0H58.23v-.97-2.27-2.25-.98h-6.46V-77.64zm0 0H58.23v-.97-2.27-2.25-.98h-6.46V-77.64zm0 0H58.23v-.97-2.27-2.25-.98h-6.46V-77.64zm0 0H58.23v-.97-2.27-2.25-.98h-6.46V-77.64zm6.46 0H64.7v-.97-2.27-2.25-.98h-6.47V-77.64zm0 0H64.7v-.97-2.27-2.25-.98h-6.47V-77.64zm0 0H64.7v-.97-2.27-2.25-.98h-6.47V-77.64zm0 0H64.7v-.97-2.27-2.25-.98h-6.47V-77.64zm6.47 0H71.17v-.97-2.27-2.25-.98H64.7V-77.64zm0 0H71.17v-.97-2.27-2.25-.98H64.7V-77.64zm0 0H71.17v-.97-2.27-2.25-.98H64.7V-77.64zm0 0H71.17v-.97-2.27-2.25-.98H64.7V-77.64zm-25.87-6.48h6.47v-.97-2.27-2.25-.98h-6.47v6.46zm0 0h6.47v-.97-2.27-2.25-.98h-6.47v6.46zm0 0h6.47v-.97-2.27-2.25-.98h-6.47v6.46zm0 0h6.47v-.97-2.27-2.25-.98h-6.47v6.46zm19.4 0H64.7v-.97-2.27-2.25-.98h-6.47v6.46zm0 0H64.7v-.97-2.27-2.25-.98h-6.47v6.46zm0 0H64.7v-.97-2.27-2.25-.98h-6.47v6.46zm0 0H64.7v-.97-2.27-2.25-.98h-6.47v6.46zm0 0"/></symbol><symbol overflow="visible" id="e71a9cafe"><path d="M3.83 0v-5.95H6.2v-.82H.45v.82h2.4V0zm0 0"/></symbol><symbol overflow="visible" id="e71a9caff"><path d="M5.75-2.23v-.43c0-1.6-.9-2.51-2.42-2.51S.87-4.16.87-2.48c0 1.71.91 2.62 2.5 2.62 1.43 0 2.07-.56 2.29-1.52l-.9-.09c-.18.61-.59.9-1.35.9-.94 0-1.52-.54-1.58-1.66zm-2.4-2.2c.93 0 1.43.5 1.48 1.55H1.84c.08-1.07.6-1.56 1.5-1.56zm0 0"/></symbol><symbol overflow="visible" id="e71a9cafg"><path d="M1.83 0l1.42-2h.06l1.46 2H5.8L4-2.53l1.78-2.49H4.8L3.42-3.08h-.08l-1.4-1.94H.89l1.78 2.49L.84 0zm0 0"/></symbol><symbol overflow="visible" id="e71a9cafh"><path d="M5.52-4.25v-.77H3.17v-1.56h-.81l-.14 1.56H.75v.77h1.47v2.4c0 1.3.48 1.94 1.84 1.94C4.6.1 5.14 0 5.55-.14L5.4-.91c-.32.13-.72.2-1.13.2-.8 0-1.1-.37-1.1-1.23v-2.31zm0 0"/></symbol><symbol overflow="visible" id="e71a9cafi"><path d="M3.33-3.42c.47 0 .8-.27.8-.8 0-.51-.33-.8-.8-.8-.47 0-.8.29-.8.8 0 .53.33.8.8.8zm0 3.5c.47 0 .8-.27.8-.78 0-.53-.33-.82-.8-.82-.47 0-.8.29-.8.82 0 .51.33.78.8.78zm0 0"/></symbol><symbol overflow="visible" id="e71a9cafk"><path d="M3.33.14c1.62 0 2.5-.95 2.5-2.66 0-1.68-.88-2.64-2.5-2.64-1.63 0-2.5.96-2.5 2.64 0 1.7.87 2.66 2.5 2.66zm0-.77c-1.06 0-1.52-.6-1.52-1.89 0-1.28.46-1.87 1.52-1.87 1.08 0 1.53.6 1.53 1.87 0 1.29-.45 1.9-1.53 1.9zm0 0"/></symbol><symbol overflow="visible" id="e71a9cafl"><path d="M2.44 0l.87-3.31h.06L4.25 0H5.3l1.03-5.02h-.88l-.73 3.94h-.08L3.77-4.4h-.85l-.87 3.33h-.08l-.75-3.94H.34L1.36 0zm0 0"/></symbol><symbol overflow="visible" id="e71a9cafm"><path d="M3.92-7.14H1.36v.76h1.6v5.61H1.15V0H5.7v-.77H3.92zm0 0"/></symbol><symbol overflow="visible" id="e71a9cafn"><path d="M4.63-6.5c.45 0 .98.08 1.39.2l.2-.72a5.3 5.3 0 00-1.64-.26c-1.52 0-2.16.56-2.16 1.87v.4H.9v.76h1.53V0h.94v-4.25h2.53v-.77H3.36v-.3c0-.84.33-1.18 1.27-1.18zm0 0"/></symbol><symbol overflow="visible" id="e71a9cafo"><path d="M3.42-.86h-.08L1.77-5.02H.8L2.73 0h.41c-.33.95-.72 1.27-1.45 1.27-.22 0-.49-.04-.69-.08l-.1.73c.2.06.58.11.87.11 1.2 0 1.7-.7 2.21-2.03l1.94-5.02H5zm0 0"/></symbol><symbol overflow="visible" id="e71a9cafp"><path d="M3.58-5.81c.42 0 .72-.22.72-.67 0-.44-.3-.68-.72-.68-.44 0-.72.24-.72.68 0 .45.28.67.72.67zm.5.8H1.52v.76h1.6v3.48h-1.8V0h4.46v-.77h-1.7zm0 0"/></symbol><symbol overflow="visible" id="e71a9cafq"><path d="M2.16 0v-2.67c0-.99.59-1.63 1.46-1.63.74 0 1.07.38 1.07 1.22V0h.95v-3.31c0-1.2-.56-1.85-1.67-1.85-.92 0-1.49.46-1.77 1.08h-.06l-.12-.94H1.2V0zm0 0"/></symbol><symbol overflow="visible" id="e71a9cafr"><path d="M3.16 2.03c1.67 0 2.4-.86 2.4-2.51v-4.54h-.81l-.13.91h-.06c-.26-.58-.8-1.05-1.73-1.05-1.42 0-2.24 1-2.24 2.52 0 1.6.75 2.56 2.2 2.56.94 0 1.5-.5 1.77-1.03h.05v.72c0 1.17-.42 1.67-1.45 1.67-.93 0-1.3-.34-1.41-.89L.8.5c.12.96.87 1.54 2.36 1.54zM3.06-.8c-.98 0-1.48-.57-1.48-1.82 0-1.13.5-1.75 1.48-1.75 1.06 0 1.58.76 1.58 1.75 0 .95-.56 1.82-1.58 1.82zm0 0"/></symbol><symbol overflow="visible" id="e71a9cafs"><path d="M3.9.14c1.48 0 2.18-.98 2.18-2.64 0-1.67-.7-2.66-2.17-2.66-.91 0-1.49.41-1.79 1h-.06v-2.98h-.95V0h.81l.11-.9h.06c.29.63.82 1.04 1.82 1.04zm-.32-.8c-1.08 0-1.55-.8-1.55-1.84 0-1.06.47-1.86 1.55-1.86 1.1 0 1.51.61 1.51 1.86S4.64-.66 3.58-.66zm0 0"/></symbol><symbol overflow="visible" id="e71a9caft"><path d="M2.83.14c.94 0 1.5-.39 1.81-.95h.08l.1.81h.76v-3.38c0-1.23-.69-1.8-2.13-1.8-1.43 0-2.03.65-2.18 1.6l.93.1c.11-.6.44-.93 1.22-.93.85 0 1.22.32 1.22 1.04v.34l-1.81.2C1.6-2.7 1.1-2.17 1.1-1.28c0 .92.64 1.42 1.72 1.42zm.25-.77c-.67 0-1.02-.28-1.02-.74 0-.44.28-.72 1-.82l1.58-.19v.41c0 .8-.6 1.34-1.56 1.34zm0 0"/></symbol><symbol overflow="visible" id="e71a9cafu"><path d="M3.34.14c1.43 0 2.13-.66 2.25-1.78l-.89-.1c-.1.7-.5 1.08-1.34 1.08-1.03 0-1.52-.64-1.52-1.84 0-1.23.47-1.86 1.52-1.86.84 0 1.23.36 1.34 1.08l.9-.1c-.13-1.09-.82-1.78-2.26-1.78-1.56 0-2.46.97-2.46 2.66 0 1.66.9 2.64 2.46 2.64zm0 0"/></symbol><symbol overflow="visible" id="e71a9cafv"><path d="M5.77-5.02H4.63L2.3-2.88h-.06v-4.26h-.94V0h.94v-2.31h.06L4.71 0h1.24L3.23-2.69zm0 0"/></symbol><symbol overflow="visible" id="e71a9cafw"><path d="M5.95-6.77H1.1V0h.99v-2.92H5.3v-.77H2.08v-2.26h3.87zm0 0"/></symbol><symbol overflow="visible" id="e71a9cafx"><path d="M2.73.14c.9 0 1.43-.45 1.74-1.08h.06l.13.94h.8v-5.02h-.94v2.7c0 .98-.57 1.62-1.46 1.62-.75 0-1.1-.4-1.1-1.22v-3.1h-.93v3.32c0 1.17.55 1.84 1.7 1.84zm0 0"/></symbol><symbol overflow="visible" id="e71a9cafy"><path d="M5.08-5.16c-.94 0-1.58.43-1.9 1.3h-.09l-.07-1.16H1.05v.77h1.1v3.48H.96V0h3.96v-.77H3.1v-1.46c0-1.36.6-2.05 1.83-2.05.4 0 .76.08 1.1.17l.15-.87c-.33-.11-.7-.18-1.11-.18zm0 0"/></symbol><symbol overflow="visible" id="e71a9cafz"><path d="M3.33.14c1.9 0 2.76-1.27 2.76-3.52 0-2.26-.86-3.53-2.76-3.53S.58-5.64.58-3.37c0 2.25.86 3.51 2.75 3.51zM3.3-.67c-1.25 0-1.73-.95-1.73-2.7 0-1.77.5-2.72 1.75-2.72s1.75.95 1.75 2.71c0 1.75-.5 2.7-1.77 2.7zm0 0"/></symbol><symbol overflow="visible" id="e71a9cafA"><path d="M3.36.16c1.4 0 2.2-.6 2.2-1.57 0-.89-.54-1.22-1.47-1.39L3-3c-.67-.14-.86-.33-.86-.73 0-.5.4-.74 1.17-.74.83 0 1.19.27 1.27.8l.9-.05c-.12-1-.8-1.47-2.17-1.47-1.34 0-2.1.53-2.1 1.5 0 .81.45 1.22 1.52 1.44l1.04.2c.56.11.87.24.87.72 0 .52-.45.78-1.28.78-.95 0-1.36-.28-1.42-.87l-.9.06C1.07-.36 1.8.16 3.35.16zm0 0"/></symbol><symbol overflow="visible" id="e71a9cafB"><path d="M1.45-2.95c0 2.56 1.08 4.37 3.67 4.84l.11-.67C3.28.86 2.43-.75 2.43-2.95s.85-3.82 2.8-4.16l-.1-.69c-2.6.49-3.68 2.3-3.68 4.85zm0 0"/></symbol><symbol overflow="visible" id="e71a9cafC"><path d="M2.84.14C3.8.14 4.33-.26 4.6-.9h.07L4.8 0h.76v-7.14h-.95v2.95h-.08c-.28-.6-.86-.97-1.67-.97-1.48 0-2.27.99-2.27 2.64C.6-.84 1.36.14 2.84.14zm.22-.8c-.98 0-1.48-.59-1.48-1.84s.5-1.86 1.48-1.86c1.13 0 1.58.8 1.58 1.86S4.2-.66 3.06-.66zm0 0"/></symbol><symbol overflow="visible" id="e71a9cafD"><path d="M1.45-7.1c1.96.33 2.8 1.94 2.8 4.15 0 2.2-.84 3.8-2.8 4.17l.11.67c2.58-.47 3.67-2.28 3.67-4.84 0-2.55-1.09-4.36-3.67-4.85zm0 0"/></symbol></defs><g fill="#eaf734"><use xlink:href="#e71a9cafa" x="63.82353" y="165"/><use xlink:href="#e71a9cafb" x="186.7647" y="165"/><use xlink:href="#e71a9cafc" x="309.7059" y="165"/><use xlink:href="#e71a9cafd" x="432.6471" y="165"/><use xlink:href="#e71a9cafe" x="143.3333" y="252"/><use xlink:href="#e71a9caff" x="150.0003" y="252"/><use xlink:href="#e71a9cafg" x="156.6673" y="252"/><use xlink:href="#e71a9cafh" x="163.3343" y="252"/><use xlink:href="#e71a9cafi" x="170.0013" y="252"/><use xlink:href="#e71a9cafj" x="176.6683" y="252"/><use xlink:href="#e71a9cafi" x="183.3353" y="252"/><use xlink:href="#e71a9cafk" x="190.0023" y="252"/><use xlink:href="#e71a9cafl" x="196.6693" y="252"/><use xlink:href="#e71a9cafm" x="203.3363" y="252"/><use xlink:href="#e71a9cafj" x="210.0033" y="252"/><use xlink:href="#e71a9cafi" x="216.6703" y="252"/><use xlink:href="#e71a9cafn" x="223.3373" y="252"/><use xlink:href="#e71a9cafm" x="230.0043" y="252"/><use xlink:href="#e71a9cafo" x="236.6713" y="252"/><use xlink:href="#e71a9cafp" x="243.3383" y="252"/><use xlink:href="#e71a9cafq" x="250.0053" y="252"/><use xlink:href="#e71a9cafr" x="256.6723" y="252"/><use xlink:href="#e71a9cafk" x="263.3393" y="252"/><use xlink:href="#e71a9cafl" x="270.0063" y="252"/><use xlink:href="#e71a9cafm" x="276.6733" y="252"/><use xlink:href="#e71a9cafj" x="283.3403" y="252"/><use xlink:href="#e71a9cafi" x="290.0073" y="252"/><use xlink:href="#e71a9cafs" x="296.6743" y="252"/><use xlink:href="#e71a9cafm" x="303.3413" y="252"/><use xlink:href="#e71a9caft" x="310.0083" y="252"/><use xlink:href="#e71a9cafu" x="316.6753" y="252"/><use xlink:href="#e71a9cafv" x="323.3423" y="252"/><use xlink:href="#e71a9cafk" x="330.0093" y="252"/><use xlink:href="#e71a9cafl" x="336.6763" y="252"/><use xlink:href="#e71a9cafm" x="343.3433" y="252"/><use xlink:href="#e71a9cafj" x="350.0103" y="252"/><use xlink:href="#e71a9cafi" x="356.6773" y="252"/><use xlink:href="#e71a9cafs" x="363.3443" y="252"/><use xlink:href="#e71a9cafm" x="370.0113" y="252"/><use xlink:href="#e71a9caft" x="376.6783" y="252"/><use xlink:href="#e71a9cafu" x="383.3453" y="252"/><use xlink:href="#e71a9cafv" x="390.0123" y="252"/><use xlink:href="#e71a9cafn" x="396.6793" y="252"/><use xlink:href="#e71a9cafm" x="403.3463" y="252"/><use xlink:href="#e71a9cafo" x="410.0133" y="252"/><use xlink:href="#e71a9cafp" x="416.6803" y="252"/><use xlink:href="#e71a9cafq" x="423.3473" y="252"/><use xlink:href="#e71a9cafr" x="430.0143" y="252"/><use xlink:href="#e71a9cafk" x="436.6813" y="252"/><use xlink:href="#e71a9cafl" x="443.3483" y="252"/><use xlink:href="#e71a9cafm" x="450.0153" y="252"/><g><use xlink:href="#e71a9cafw" x="233.3333" y="266"/><use xlink:href="#e71a9caff" x="240.0003" y="266"/><use xlink:href="#e71a9caft" x="246.6673" y="266"/><use xlink:href="#e71a9cafh" x="253.3343" y="266"/><use xlink:href="#e71a9cafx" x="260.0013" y="266"/><use xlink:href="#e71a9cafy" x="266.6683" y="266"/><use xlink:href="#e71a9caff" x="273.3353" y="266"/><use xlink:href="#e71a9cafi" x="280.0023" y="266"/><use xlink:href="#e71a9cafj" x="286.6693" y="266"/><use xlink:href="#e71a9cafz" x="293.3363" y="266"/><use xlink:href="#e71a9cafl" x="300.0033" y="266"/><use xlink:href="#e71a9cafm" x="306.6703" y="266"/><use xlink:href="#e71a9cafA" x="313.3373" y="266"/><use xlink:href="#e71a9cafj" x="320.0043" y="266"/><use xlink:href="#e71a9cafB" x="326.6713" y="266"/><use xlink:href="#e71a9cafC" x="333.3383" y="266"/><use xlink:href="#e71a9cafm" x="340.0053" y="266"/><use xlink:href="#e71a9cafp" x="346.6723" y="266"/><use xlink:href="#e71a9cafr" x="353.3393" y="266"/><use xlink:href="#e71a9cafD" x="360.0063" y="266"/></g></g></svg>