<?xml version='1.0' encoding='UTF-8'?>
<svg xmlns="http://www.w3.org/2000/svg" xmlns:xlink="http://www.w3.org/1999/xlink" width="600px" height="300px" viewBox="0 0 600 300" x="0px" y="0px" enable-background="new 0 0 600 300"><defs><symbol overflow="visible" id="af780aceb"><path d="M6.47 0h6.47v-.97-2.26-2.25-.99H6.47V0zm0 0h6.47v-.97-2.26-2.25-.99H6.47V0zm0 0h6.47v-.97-2.26-2.25-.99H6.47V0zm0 0h6.47v-.97-2.26-2.25-.99H6.47V0zm6.47 0h6.47v-.97-2.26-2.25-.99h-6.47V0zm0 0h6.47v-.97-2.26-2.25-.99h-6.47V0zm0 0h6.47v-.97-2.26-2.25-.99h-6.47V0zm0 0h6.47v-.97-2.26-2.25-.99h-6.47V0zm25.89 0h6.47v-.97-2.26-2.25-.99h-6.47V0zm0 0h6.47v-.97-2.26-2.25-.99h-6.47V0zm0 0h6.47v-.97-2.26-2.25-.99h-6.47V0zm0 0h6.47v-.97-2.26-2.25-.99h-6.47V0zm6.47 0h6.47v-.97-2.26-2.25-.99H45.3V0zm0 0h6.47v-.97-2.26-2.25-.99H45.3V0zm0 0h6.47v-.97-2.26-2.25-.99H45.3V0zm0 0h6.47v-.97-2.26-2.25-.99H45.3V0zm12.93 0H64.7v-.97-2.26-2.25-.99h-6.47V0zm0 0H64.7v-.97-2.26-2.25-.99h-6.47V0zm0 0H64.7v-.97-2.26-2.25-.99h-6.47V0zm0 0H64.7v-.97-2.26-2.25-.99h-6.47V0zm-45.3-6.47h6.48v-.97-2.26-2.25-.99h-6.47V-6.47zm0 0h6.48v-.97-2.26-2.25-.99h-6.47V-6.47zm0 0h6.48v-.97-2.26-2.25-.99h-6.47V-6.47zm0 0h6.48v-.97-2.26-2.25-.99h-6.47V-6.47zm32.37 0h6.47v-.97-2.26-2.25-.99H45.3V-6.47zm0 0h6.47v-.97-2.26-2.25-.99H45.3V-6.47zm0 0h6.47v-.97-2.26-2.25-.99H45.3V-6.47zm0 0h6.47v-.97-2.26-2.25-.99H45.3V-6.47zm12.93 0H64.7v-.97-2.26-2.25-.99h-6.47V-6.47zm0 0H64.7v-.97-2.26-2.25-.99h-6.47V-6.47zm0 0H64.7v-.97-2.26-2.25-.99h-6.47V-6.47zm0 0H64.7v-.97-2.26-2.25-.99h-6.47V-6.47zm-45.3-6.47h6.48v-.97-2.26-2.25-.99h-6.47V-12.94zm0 0h6.48v-.97-2.26-2.25-.99h-6.47V-12.94zm0 0h6.48v-.97-2.26-2.25-.99h-6.47V-12.94zm0 0h6.48v-.97-2.26-2.25-.99h-6.47V-12.94zm32.37 0h6.47v-.97-2.26-2.25-.99H45.3V-12.94zm0 0h6.47v-.97-2.26-2.25-.99H45.3V-12.94zm0 0h6.47v-.97-2.26-2.25-.99H45.3V-12.94zm0 0h6.47v-.97-2.26-2.25-.99H45.3V-12.94zm12.93 0H64.7v-.97-2.26-2.25-.99h-6.47V-12.94zm0 0H64.7v-.97-2.26-2.25-.99h-6.47V-12.94zm0 0H64.7v-.97-2.26-2.25-.99h-6.47V-12.94zm0 0H64.7v-.97-2.26-2.25-.99h-6.47V-12.94zm-45.3-6.47h6.48v-.96-2.27-2.25-.98h-6.47v6.46zm0 0h6.48v-.96-2.27-2.25-.98h-6.47v6.46zm0 0h6.48v-.96-2.27-2.25-.98h-6.47v6.46zm0 0h6.48v-.96-2.27-2.25-.98h-6.47v6.46zm32.37 0h6.47v-.96-2.27-2.25-.98H45.3v6.46zm0 0h6.47v-.96-2.27-2.25-.98H45.3v6.46zm0 0h6.47v-.96-2.27-2.25-.98H45.3v6.46zm0 0h6.47v-.96-2.27-2.25-.98H45.3v6.46zm12.93 0H64.7v-.96-2.27-2.25-.98h-6.47v6.46zm0 0H64.7v-.96-2.27-2.25-.98h-6.47v6.46zm0 0H64.7v-.96-2.27-2.25-.98h-6.47v6.46zm0 0H64.7v-.96-2.27-2.25-.98h-6.47v6.46zm-45.3-6.46h6.48v-.97-2.27-2.25-.98h-6.47v6.46zm0 0h6.48v-.97-2.27-2.25-.98h-6.47v6.46zm0 0h6.48v-.97-2.27-2.25-.98h-6.47v6.46zm0 0h6.48v-.97-2.27-2.25-.98h-6.47v6.46zm6.48 0H25.87v-.97-2.27-2.25-.98h-6.46v6.46zm0 0H25.87v-.97-2.27-2.25-.98h-6.46v6.46zm0 0H25.87v-.97-2.27-2.25-.98h-6.46v6.46zm0 0H25.87v-.97-2.27-2.25-.98h-6.46v6.46zm6.46 0H32.34v-.97-2.27-2.25-.98h-6.46v6.46zm0 0H32.34v-.97-2.27-2.25-.98h-6.46v6.46zm0 0H32.34v-.97-2.27-2.25-.98h-6.46v6.46zm0 0H32.34v-.97-2.27-2.25-.98h-6.46v6.46zm6.49 0h6.47v-.97-2.27-2.25-.98h-6.47v6.46zm0 0h6.47v-.97-2.27-2.25-.98h-6.47v6.46zm0 0h6.47v-.97-2.27-2.25-.98h-6.47v6.46zm0 0h6.47v-.97-2.27-2.25-.98h-6.47v6.46zm6.47 0h6.47v-.97-2.27-2.25-.98h-6.47v6.46zm0 0h6.47v-.97-2.27-2.25-.98h-6.47v6.46zm0 0h6.47v-.97-2.27-2.25-.98h-6.47v6.46zm0 0h6.47v-.97-2.27-2.25-.98h-6.47v6.46zm6.47 0h6.47v-.97-2.27-2.25-.98H45.3v6.46zm0 0h6.47v-.97-2.27-2.25-.98H45.3v6.46zm0 0h6.47v-.97-2.27-2.25-.98H45.3v6.46zm0 0h6.47v-.97-2.27-2.25-.98H45.3v6.46zm6.47 0H58.23v-.97-2.27-2.25-.98h-6.46v6.46zm0 0H58.23v-.97-2.27-2.25-.98h-6.46v6.46zm0 0H58.23v-.97-2.27-2.25-.98h-6.46v6.46zm0 0H58.23v-.97-2.27-2.25-.98h-6.46v6.46zm6.46 0H64.7v-.97-2.27-2.25-.98h-6.47v6.46zm0 0H64.7v-.97-2.27-2.25-.98h-6.47v6.46zm0 0H64.7v-.97-2.27-2.25-.98h-6.47v6.46zm0 0H64.7v-.97-2.27-2.25-.98h-6.47v6.46zM6.47-32.37h6.47v-.97-2.26-2.25-.99H6.47V-32.36zm0 0h6.47v-.97-2.26-2.25-.99H6.47V-32.36zm0 0h6.47v-.97-2.26-2.25-.99H6.47V-32.36zm0 0h6.47v-.97-2.26-2.25-.99H6.47V-32.36zm51.76 0H64.7v-.97-2.26-2.25-.99h-6.47V-32.36zm0 0H64.7v-.97-2.26-2.25-.99h-6.47V-32.36zm0 0H64.7v-.97-2.26-2.25-.99h-6.47V-32.36zm0 0H64.7v-.97-2.26-2.25-.99h-6.47V-32.36zM6.47-38.83h6.47v-.97-2.26-2.25-.99H6.47V-38.83zm0 0h6.47v-.97-2.26-2.25-.99H6.47V-38.83zm0 0h6.47v-.97-2.26-2.25-.99H6.47V-38.83zm0 0h6.47v-.97-2.26-2.25-.99H6.47V-38.83zm51.76 0H64.7v-.97-2.26-2.25-.99h-6.47V-38.83zm0 0H64.7v-.97-2.26-2.25-.99h-6.47V-38.83zm0 0H64.7v-.97-2.26-2.25-.99h-6.47V-38.83zm0 0H64.7v-.97-2.26-2.25-.99h-6.47V-38.83zM6.47-45.3h6.47v-.97-2.26-2.25-.99H6.47V-45.3zm0 0h6.47v-.97-2.26-2.25-.99H6.47V-45.3zm0 0h6.47v-.97-2.26-2.25-.99H6.47V-45.3zm0 0h6.47v-.97-2.26-2.25-.99H6.47V-45.3zm6.47 0h6.47v-.97-2.26-2.25-.99h-6.47V-45.3zm0 0h6.47v-.97-2.26-2.25-.99h-6.47V-45.3zm0 0h6.47v-.97-2.26-2.25-.99h-6.47V-45.3zm0 0h6.47v-.97-2.26-2.25-.99h-6.47V-45.3zm6.47 0H25.87v-.97-2.26-2.25-.99h-6.46V-45.3zm0 0H25.87v-.97-2.26-2.25-.99h-6.46V-45.3zm0 0H25.87v-.97-2.26-2.25-.99h-6.46V-45.3zm0 0H25.87v-.97-2.26-2.25-.99h-6.46V-45.3zm6.46 0H32.34v-.97-2.26-2.25-.99h-6.46V-45.3zm0 0H32.34v-.97-2.26-2.25-.99h-6.46V-45.3zm0 0H32.34v-.97-2.26-2.25-.99h-6.46V-45.3zm0 0H32.34v-.97-2.26-2.25-.99h-6.46V-45.3zm6.49 0h6.47v-.97-2.26-2.25-.99h-6.47V-45.3zm0 0h6.47v-.97-2.26-2.25-.99h-6.47V-45.3zm0 0h6.47v-.97-2.26-2.25-.99h-6.47V-45.3zm0 0h6.47v-.97-2.26-2.25-.99h-6.47V-45.3zm6.47 0h6.47v-.97-2.26-2.25-.99h-6.47V-45.3zm0 0h6.47v-.97-2.26-2.25-.99h-6.47V-45.3zm0 0h6.47v-.97-2.26-2.25-.99h-6.47V-45.3zm0 0h6.47v-.97-2.26-2.25-.99h-6.47V-45.3zm6.47 0h6.47v-.97-2.26-2.25-.99H45.3V-45.3zm0 0h6.47v-.97-2.26-2.25-.99H45.3V-45.3zm0 0h6.47v-.97-2.26-2.25-.99H45.3V-45.3zm0 0h6.47v-.97-2.26-2.25-.99H45.3V-45.3zm6.47 0H58.23v-.97-2.26-2.25-.99h-6.46V-45.3zm0 0H58.23v-.97-2.26-2.25-.99h-6.46V-45.3zm0 0H58.23v-.97-2.26-2.25-.99h-6.46V-45.3zm0 0H58.23v-.97-2.26-2.25-.99h-6.46V-45.3zm-45.3-6.47h6.47v-.96V-55v-2.25-.98H6.47v6.46zm0 0h6.47v-.96V-55v-2.25-.98H6.47v6.46zm0 0h6.47v-.96V-55v-2.25-.98H6.47v6.46zm0 0h6.47v-.96V-55v-2.25-.98H6.47v6.46zm6.47 0h6.47v-.96V-55v-2.25-.98h-6.47v6.46zm0 0h6.47v-.96V-55v-2.25-.98h-6.47v6.46zm0 0h6.47v-.96V-55v-2.25-.98h-6.47v6.46zm0 0h6.47v-.96V-55v-2.25-.98h-6.47v6.46zm45.3 0H64.7v-.96V-55v-2.25-.98h-6.47v6.46zm0 0H64.7v-.96V-55v-2.25-.98h-6.47v6.46zm0 0H64.7v-.96V-55v-2.25-.98h-6.47v6.46zm0 0H64.7v-.96V-55v-2.25-.98h-6.47v6.46zM6.46-58.23h6.47v-.97-2.27-2.25-.98H6.47V-58.23zm0 0h6.47v-.97-2.27-2.25-.98H6.47V-58.23zm0 0h6.47v-.97-2.27-2.25-.98H6.47V-58.23zm0 0h6.47v-.97-2.27-2.25-.98H6.47V-58.23zm6.47 0h6.47v-.97-2.27-2.25-.98h-6.47V-58.23zm0 0h6.47v-.97-2.27-2.25-.98h-6.47V-58.23zm0 0h6.47v-.97-2.27-2.25-.98h-6.47V-58.23zm0 0h6.47v-.97-2.27-2.25-.98h-6.47V-58.23zm45.3 0H64.7v-.97-2.27-2.25-.98h-6.47V-58.23zm0 0H64.7v-.97-2.27-2.25-.98h-6.47V-58.23zm0 0H64.7v-.97-2.27-2.25-.98h-6.47V-58.23zm0 0H64.7v-.97-2.27-2.25-.98h-6.47V-58.23zM19.4-61.47H25.87v-.97-2.26-2.25-.99h-6.46V-61.47zm0 0H25.87v-.97-2.26-2.25-.99h-6.46V-61.47zm0 0H25.87v-.97-2.26-2.25-.99h-6.46V-61.47zm0 0H25.87v-.97-2.26-2.25-.99h-6.46V-61.47zm6.46 0H32.34v-.97-2.26-2.25-.99h-6.46V-61.47zm0 0H32.34v-.97-2.26-2.25-.99h-6.46V-61.47zm0 0H32.34v-.97-2.26-2.25-.99h-6.46V-61.47zm0 0H32.34v-.97-2.26-2.25-.99h-6.46V-61.47zm25.9 0H58.23v-.97-2.26-2.25-.99h-6.46V-61.47zm0 0H58.23v-.97-2.26-2.25-.99h-6.46V-61.47zm0 0H58.23v-.97-2.26-2.25-.99h-6.46V-61.47zm0 0H58.23v-.97-2.26-2.25-.99h-6.46V-61.47zM6.47-64.7h6.47v-.97-2.27-2.25-.98H6.47V-64.7zm0 0h6.47v-.97-2.27-2.25-.98H6.47V-64.7zm0 0h6.47v-.97-2.27-2.25-.98H6.47V-64.7zm0 0h6.47v-.97-2.27-2.25-.98H6.47V-64.7zm6.47 0h6.47v-.97-2.27-2.25-.98h-6.47V-64.7zm0 0h6.47v-.97-2.27-2.25-.98h-6.47V-64.7zm0 0h6.47v-.97-2.27-2.25-.98h-6.47V-64.7zm0 0h6.47v-.97-2.27-2.25-.98h-6.47V-64.7zm12.94-3.24H32.34v-.97-2.26-2.25-.99h-6.46V-67.94zm0 0H32.34v-.97-2.26-2.25-.99h-6.46V-67.94zm0 0H32.34v-.97-2.26-2.25-.99h-6.46V-67.94zm0 0H32.34v-.97-2.26-2.25-.99h-6.46V-67.94zM6.46-71.17h6.47v-.97-2.27-2.25-.98H6.47V-71.17zm0 0h6.47v-.97-2.27-2.25-.98H6.47V-71.17zm0 0h6.47v-.97-2.27-2.25-.98H6.47V-71.17zm0 0h6.47v-.97-2.27-2.25-.98H6.47V-71.17zm12.94 0H25.87v-.97-2.27-2.25-.98h-6.46V-71.17zm0 0H25.87v-.97-2.27-2.25-.98h-6.46V-71.17zm0 0H25.87v-.97-2.27-2.25-.98h-6.46V-71.17zm0 0H25.87v-.97-2.27-2.25-.98h-6.46V-71.17zm-6.47-3.24h6.47v-.97-2.26-2.25-.98h-6.47v6.46zm0 0h6.47v-.97-2.26-2.25-.98h-6.47v6.46zm0 0h6.47v-.97-2.26-2.25-.98h-6.47v6.46zm0 0h6.47v-.97-2.26-2.25-.98h-6.47v6.46zm-9.7-3.23H9.7v-.97-2.27-2.25-.98H3.23V-77.64zm0 0H9.7v-.97-2.27-2.25-.98H3.23V-77.64zm0 0H9.7v-.97-2.27-2.25-.98H3.23V-77.64zm0 0H9.7v-.97-2.27-2.25-.98H3.23V-77.64zm12.93-3.23H22.64v-.97-2.27-2.25-.98h-6.47v6.46zm0 0H22.64v-.97-2.27-2.25-.98h-6.47v6.46zm0 0H22.64v-.97-2.27-2.25-.98h-6.47v6.46zm0 0H22.64v-.97-2.27-2.25-.98h-6.47v6.46zm6.47 0H29.11v-.97-2.27-2.25-.98h-6.47v6.46zm0 0H29.11v-.97-2.27-2.25-.98h-6.47v6.46zm0 0H29.11v-.97-2.27-2.25-.98h-6.47v6.46zm0 0H29.11v-.97-2.27-2.25-.98h-6.47v6.46zm-25.87-3.25H3.23v-.97-2.27-2.25-.98H-3.23v6.46zm0 0H3.23v-.97-2.27-2.25-.98H-3.23v6.46zm0 0H3.23v-.97-2.27-2.25-.98H-3.23v6.46zm0 0H3.23v-.97-2.27-2.25-.98H-3.23v6.46zm6.46 0H9.7v-.97-2.27-2.25-.98H3.23v6.46zm0 0H9.7v-.97-2.27-2.25-.98H3.23v6.46zm0 0H9.7v-.97-2.27-2.25-.98H3.23v6.46zm0 0H9.7v-.97-2.27-2.25-.98H3.23v6.46zm12.94-3.24H22.64v-.97-2.26-2.25-.99h-6.47V-87.36zm0 0H22.64v-.97-2.26-2.25-.99h-6.47V-87.36zm0 0H22.64v-.97-2.26-2.25-.99h-6.47V-87.36zm0 0H22.64v-.97-2.26-2.25-.99h-6.47V-87.36zM3.23-90.59H9.7v-.97-2.27-2.25-.98H3.23V-90.6zm0 0H9.7v-.97-2.27-2.25-.98H3.23V-90.6zm0 0H9.7v-.97-2.27-2.25-.98H3.23V-90.6zm0 0H9.7v-.97-2.27-2.25-.98H3.23V-90.6zm12.94-3.24H22.64v-.97-2.26-2.25-.99h-6.47V-93.83zm0 0H22.64v-.97-2.26-2.25-.99h-6.47V-93.83zm0 0H22.64v-.97-2.26-2.25-.99h-6.47V-93.83zm0 0H22.64v-.97-2.26-2.25-.99h-6.47V-93.83zm6.47 0H29.11v-.97-2.26-2.25-.99h-6.47V-93.83zm0 0H29.11v-.97-2.26-2.25-.99h-6.47V-93.83zm0 0H29.11v-.97-2.26-2.25-.99h-6.47V-93.83zm0 0H29.11v-.97-2.26-2.25-.99h-6.47V-93.83zm-25.87-3.23H3.23v-.97-2.27-2.25-.98H-3.23V-97.06zm0 0H3.23v-.97-2.27-2.25-.98H-3.23V-97.06zm0 0H3.23v-.97-2.27-2.25-.98H-3.23V-97.06zm0 0H3.23v-.97-2.27-2.25-.98H-3.23V-97.06zm6.46 0H9.7v-.97-2.27-2.25-.98H3.23V-97.06zm0 0H9.7v-.97-2.27-2.25-.98H3.23V-97.06zm0 0H9.7v-.97-2.27-2.25-.98H3.23V-97.06zm0 0H9.7v-.97-2.27-2.25-.98H3.23V-97.06zm12.94-3.24H22.64v-.97-2.26-2.25-.99h-6.47V-100.3zm0 0H22.64v-.97-2.26-2.25-.99h-6.47V-100.3zm0 0H22.64v-.97-2.26-2.25-.99h-6.47V-100.3zm0 0H22.64v-.97-2.26-2.25-.99h-6.47V-100.3zm-12.94-3.23H9.7v-.97-2.27-2.25-.98H3.23V-103.53zm0 0H9.7v-.97-2.27-2.25-.98H3.23V-103.53zm0 0H9.7v-.97-2.27-2.25-.98H3.23V-103.53zm0 0H9.7v-.97-2.27-2.25-.98H3.23V-103.53zm12.94-3.24H22.64v-.96-2.27-2.25-.98h-6.47v6.46zm0 0H22.64v-.96-2.27-2.25-.98h-6.47v6.46zm0 0H22.64v-.96-2.27-2.25-.98h-6.47v6.46zm0 0H22.64v-.96-2.27-2.25-.98h-6.47v6.46zm6.47 0H29.11v-.96-2.27-2.25-.98h-6.47v6.46zm0 0H29.11v-.96-2.27-2.25-.98h-6.47v6.46zm0 0H29.11v-.96-2.27-2.25-.98h-6.47v6.46zm0 0H29.11v-.96-2.27-2.25-.98h-6.47v6.46zM-3.23-110H3.23v-.97-2.26-2.25-.99H-3.23V-110zm0 0H3.23v-.97-2.26-2.25-.99H-3.23V-110zm0 0H3.23v-.97-2.26-2.25-.99H-3.23V-110zm0 0H3.23v-.97-2.26-2.25-.99H-3.23V-110zm6.46 0H9.7v-.97-2.26-2.25-.99H3.23V-110zm0 0H9.7v-.97-2.26-2.25-.99H3.23V-110zm0 0H9.7v-.97-2.26-2.25-.99H3.23V-110zm0 0H9.7v-.97-2.26-2.25-.99H3.23V-110zm12.94-3.23H22.64v-.97-2.27-2.25-.98h-6.47V-113.23zm0 0H22.64v-.97-2.27-2.25-.98h-6.47V-113.23zm0 0H22.64v-.97-2.27-2.25-.98h-6.47V-113.23zm0 0H22.64v-.97-2.27-2.25-.98h-6.47V-113.23zm-12.94-3.24H9.7v-.97-2.26-2.25-.99H3.23V-116.47zm0 0H9.7v-.97-2.26-2.25-.99H3.23V-116.47zm0 0H9.7v-.97-2.26-2.25-.99H3.23V-116.47zm0 0H9.7v-.97-2.26-2.25-.99H3.23V-116.47zm12.94-3.23H22.64v-.97-2.27-2.25-.98h-6.47V-119.7zm0 0H22.64v-.97-2.27-2.25-.98h-6.47V-119.7zm0 0H22.64v-.97-2.27-2.25-.98h-6.47V-119.7zm0 0H22.64v-.97-2.27-2.25-.98h-6.47V-119.7zm-12.94-3.24H9.7v-.97-2.26-2.25-.99H3.23V-122.94zm0 0H9.7v-.97-2.26-2.25-.99H3.23V-122.94zm0 0H9.7v-.97-2.26-2.25-.99H3.23V-122.94zm0 0H9.7v-.97-2.26-2.25-.99H3.23V-122.94zm19.41 0H29.11v-.97-2.26-2.25-.99h-6.47V-122.94zm0 0H29.11v-.97-2.26-2.25-.99h-6.47V-122.94zm0 0H29.11v-.97-2.26-2.25-.99h-6.47V-122.94zm0 0H29.11v-.97-2.26-2.25-.99h-6.47V-122.94zm-25.87-3.23H3.23v-.97-2.27-2.25-.98H-3.23V-126.17zm0 0H3.23v-.97-2.27-2.25-.98H-3.23V-126.17zm0 0H3.23v-.97-2.27-2.25-.98H-3.23V-126.17zm0 0H3.23v-.97-2.27-2.25-.98H-3.23V-126.17zm0 0"/></symbol><symbol overflow="visible" id="af780acec"><path d="M6.47 0h6.47v-.97-2.26-2.25-.99H6.47V0zm0 0h6.47v-.97-2.26-2.25-.99H6.47V0zm0 0h6.47v-.97-2.26-2.25-.99H6.47V0zm0 0h6.47v-.97-2.26-2.25-.99H6.47V0zM19.4 0H25.87v-.97-2.26-2.25-.99h-6.46V0zm0 0H25.87v-.97-2.26-2.25-.99h-6.46V0zm0 0H25.87v-.97-2.26-2.25-.99h-6.46V0zm0 0H25.87v-.97-2.26-2.25-.99h-6.46V0zm6.46 0H32.34v-.97-2.26-2.25-.99h-6.46V0zm0 0H32.34v-.97-2.26-2.25-.99h-6.46V0zm0 0H32.34v-.97-2.26-2.25-.99h-6.46V0zm0 0H32.34v-.97-2.26-2.25-.99h-6.46V0zm25.9 0H58.23v-.97-2.26-2.25-.99h-6.46V0zm0 0H58.23v-.97-2.26-2.25-.99h-6.46V0zm0 0H58.23v-.97-2.26-2.25-.99h-6.46V0zm0 0H58.23v-.97-2.26-2.25-.99h-6.46V0zm6.46 0H64.7v-.97-2.26-2.25-.99h-6.47V0zm0 0H64.7v-.97-2.26-2.25-.99h-6.47V0zm0 0H64.7v-.97-2.26-2.25-.99h-6.47V0zm0 0H64.7v-.97-2.26-2.25-.99h-6.47V0zM6.47-6.47h6.47v-.97-2.26-2.25-.99H6.47V-6.47zm0 0h6.47v-.97-2.26-2.25-.99H6.47V-6.47zm0 0h6.47v-.97-2.26-2.25-.99H6.47V-6.47zm0 0h6.47v-.97-2.26-2.25-.99H6.47V-6.47zm12.94 0H25.87v-.97-2.26-2.25-.99h-6.46V-6.47zm0 0H25.87v-.97-2.26-2.25-.99h-6.46V-6.47zm0 0H25.87v-.97-2.26-2.25-.99h-6.46V-6.47zm0 0H25.87v-.97-2.26-2.25-.99h-6.46V-6.47zm32.36 0H58.23v-.97-2.26-2.25-.99h-6.46V-6.47zm0 0H58.23v-.97-2.26-2.25-.99h-6.46V-6.47zm0 0H58.23v-.97-2.26-2.25-.99h-6.46V-6.47zm0 0H58.23v-.97-2.26-2.25-.99h-6.46V-6.47zm-45.3-6.47h6.47v-.97-2.26-2.25-.99H6.47V-12.94zm0 0h6.47v-.97-2.26-2.25-.99H6.47V-12.94zm0 0h6.47v-.97-2.26-2.25-.99H6.47V-12.94zm0 0h6.47v-.97-2.26-2.25-.99H6.47V-12.94zm12.94 0H25.87v-.97-2.26-2.25-.99h-6.46V-12.94zm0 0H25.87v-.97-2.26-2.25-.99h-6.46V-12.94zm0 0H25.87v-.97-2.26-2.25-.99h-6.46V-12.94zm0 0H25.87v-.97-2.26-2.25-.99h-6.46V-12.94zm32.36 0H58.23v-.97-2.26-2.25-.99h-6.46V-12.94zm0 0H58.23v-.97-2.26-2.25-.99h-6.46V-12.94zm0 0H58.23v-.97-2.26-2.25-.99h-6.46V-12.94zm0 0H58.23v-.97-2.26-2.25-.99h-6.46V-12.94zM6.47-19.4h6.47v-.96-2.27-2.25-.98H6.47v6.46zm0 0h6.47v-.96-2.27-2.25-.98H6.47v6.46zm0 0h6.47v-.96-2.27-2.25-.98H6.47v6.46zm0 0h6.47v-.96-2.27-2.25-.98H6.47v6.46zm12.94 0H25.87v-.96-2.27-2.25-.98h-6.46v6.46zm0 0H25.87v-.96-2.27-2.25-.98h-6.46v6.46zm0 0H25.87v-.96-2.27-2.25-.98h-6.46v6.46zm0 0H25.87v-.96-2.27-2.25-.98h-6.46v6.46zm32.36 0H58.23v-.96-2.27-2.25-.98h-6.46v6.46zm0 0H58.23v-.96-2.27-2.25-.98h-6.46v6.46zm0 0H58.23v-.96-2.27-2.25-.98h-6.46v6.46zm0 0H58.23v-.96-2.27-2.25-.98h-6.46v6.46zm-45.3-6.46h6.47v-.97-2.27-2.25-.98H6.47v6.46zm0 0h6.47v-.97-2.27-2.25-.98H6.47v6.46zm0 0h6.47v-.97-2.27-2.25-.98H6.47v6.46zm0 0h6.47v-.97-2.27-2.25-.98H6.47v6.46zm6.47 0h6.47v-.97-2.27-2.25-.98h-6.47v6.46zm0 0h6.47v-.97-2.27-2.25-.98h-6.47v6.46zm0 0h6.47v-.97-2.27-2.25-.98h-6.47v6.46zm0 0h6.47v-.97-2.27-2.25-.98h-6.47v6.46zm6.47 0H25.87v-.97-2.27-2.25-.98h-6.46v6.46zm0 0H25.87v-.97-2.27-2.25-.98h-6.46v6.46zm0 0H25.87v-.97-2.27-2.25-.98h-6.46v6.46zm0 0H25.87v-.97-2.27-2.25-.98h-6.46v6.46zm6.46 0H32.34v-.97-2.27-2.25-.98h-6.46v6.46zm0 0H32.34v-.97-2.27-2.25-.98h-6.46v6.46zm0 0H32.34v-.97-2.27-2.25-.98h-6.46v6.46zm0 0H32.34v-.97-2.27-2.25-.98h-6.46v6.46zm6.49 0h6.47v-.97-2.27-2.25-.98h-6.47v6.46zm0 0h6.47v-.97-2.27-2.25-.98h-6.47v6.46zm0 0h6.47v-.97-2.27-2.25-.98h-6.47v6.46zm0 0h6.47v-.97-2.27-2.25-.98h-6.47v6.46zm6.47 0h6.47v-.97-2.27-2.25-.98h-6.47v6.46zm0 0h6.47v-.97-2.27-2.25-.98h-6.47v6.46zm0 0h6.47v-.97-2.27-2.25-.98h-6.47v6.46zm0 0h6.47v-.97-2.27-2.25-.98h-6.47v6.46zm6.47 0h6.47v-.97-2.27-2.25-.98H45.3v6.46zm0 0h6.47v-.97-2.27-2.25-.98H45.3v6.46zm0 0h6.47v-.97-2.27-2.25-.98H45.3v6.46zm0 0h6.47v-.97-2.27-2.25-.98H45.3v6.46zm6.47 0H58.23v-.97-2.27-2.25-.98h-6.46v6.46zm0 0H58.23v-.97-2.27-2.25-.98h-6.46v6.46zm0 0H58.23v-.97-2.27-2.25-.98h-6.46v6.46zm0 0H58.23v-.97-2.27-2.25-.98h-6.46v6.46zm-45.3-6.49h6.47v-.97-2.26-2.25-.99H6.47V-32.36zm0 0h6.47v-.97-2.26-2.25-.99H6.47V-32.36zm0 0h6.47v-.97-2.26-2.25-.99H6.47V-32.36zm0 0h6.47v-.97-2.26-2.25-.99H6.47V-32.36zm51.76 0H64.7v-.97-2.26-2.25-.99h-6.47V-32.36zm0 0H64.7v-.97-2.26-2.25-.99h-6.47V-32.36zm0 0H64.7v-.97-2.26-2.25-.99h-6.47V-32.36zm0 0H64.7v-.97-2.26-2.25-.99h-6.47V-32.36zM6.47-38.83h6.47v-.97-2.26-2.25-.99H6.47V-38.83zm0 0h6.47v-.97-2.26-2.25-.99H6.47V-38.83zm0 0h6.47v-.97-2.26-2.25-.99H6.47V-38.83zm0 0h6.47v-.97-2.26-2.25-.99H6.47V-38.83zm51.76 0H64.7v-.97-2.26-2.25-.99h-6.47V-38.83zm0 0H64.7v-.97-2.26-2.25-.99h-6.47V-38.83zm0 0H64.7v-.97-2.26-2.25-.99h-6.47V-38.83zm0 0H64.7v-.97-2.26-2.25-.99h-6.47V-38.83zm-45.3-6.47h6.48v-.97-2.26-2.25-.99h-6.47V-45.3zm0 0h6.48v-.97-2.26-2.25-.99h-6.47V-45.3zm0 0h6.48v-.97-2.26-2.25-.99h-6.47V-45.3zm0 0h6.48v-.97-2.26-2.25-.99h-6.47V-45.3zm6.48 0H25.87v-.97-2.26-2.25-.99h-6.46V-45.3zm0 0H25.87v-.97-2.26-2.25-.99h-6.46V-45.3zm0 0H25.87v-.97-2.26-2.25-.99h-6.46V-45.3zm0 0H25.87v-.97-2.26-2.25-.99h-6.46V-45.3zm6.46 0H32.34v-.97-2.26-2.25-.99h-6.46V-45.3zm0 0H32.34v-.97-2.26-2.25-.99h-6.46V-45.3zm0 0H32.34v-.97-2.26-2.25-.99h-6.46V-45.3zm0 0H32.34v-.97-2.26-2.25-.99h-6.46V-45.3zm6.49 0h6.47v-.97-2.26-2.25-.99h-6.47V-45.3zm0 0h6.47v-.97-2.26-2.25-.99h-6.47V-45.3zm0 0h6.47v-.97-2.26-2.25-.99h-6.47V-45.3zm0 0h6.47v-.97-2.26-2.25-.99h-6.47V-45.3zm6.47 0h6.47v-.97-2.26-2.25-.99h-6.47V-45.3zm0 0h6.47v-.97-2.26-2.25-.99h-6.47V-45.3zm0 0h6.47v-.97-2.26-2.25-.99h-6.47V-45.3zm0 0h6.47v-.97-2.26-2.25-.99h-6.47V-45.3zm6.47 0h6.47v-.97-2.26-2.25-.99H45.3V-45.3zm0 0h6.47v-.97-2.26-2.25-.99H45.3V-45.3zm0 0h6.47v-.97-2.26-2.25-.99H45.3V-45.3zm0 0h6.47v-.97-2.26-2.25-.99H45.3V-45.3zm6.47 0H58.23v-.97-2.26-2.25-.99h-6.46V-45.3zm0 0H58.23v-.97-2.26-2.25-.99h-6.46V-45.3zm0 0H58.23v-.97-2.26-2.25-.99h-6.46V-45.3zm0 0H58.23v-.97-2.26-2.25-.99h-6.46V-45.3zm6.46 0H64.7v-.97-2.26-2.25-.99h-6.47V-45.3zm0 0H64.7v-.97-2.26-2.25-.99h-6.47V-45.3zm0 0H64.7v-.97-2.26-2.25-.99h-6.47V-45.3zm0 0H64.7v-.97-2.26-2.25-.99h-6.47V-45.3zM6.47-51.77h6.47v-.96V-55v-2.25-.98H6.47v6.46zm0 0h6.47v-.96V-55v-2.25-.98H6.47v6.46zm0 0h6.47v-.96V-55v-2.25-.98H6.47v6.46zm0 0h6.47v-.96V-55v-2.25-.98H6.47v6.46zm45.3 0H58.23v-.96V-55v-2.25-.98h-6.46v6.46zm0 0H58.23v-.96V-55v-2.25-.98h-6.46v6.46zm0 0H58.23v-.96V-55v-2.25-.98h-6.46v6.46zm0 0H58.23v-.96V-55v-2.25-.98h-6.46v6.46zm6.46 0H64.7v-.96V-55v-2.25-.98h-6.47v6.46zm0 0H64.7v-.96V-55v-2.25-.98h-6.47v6.46zm0 0H64.7v-.96V-55v-2.25-.98h-6.47v6.46zm0 0H64.7v-.96V-55v-2.25-.98h-6.47v6.46zM6.47-58.23h6.47v-.97-2.27-2.25-.98H6.47V-58.23zm0 0h6.47v-.97-2.27-2.25-.98H6.47V-58.23zm0 0h6.47v-.97-2.27-2.25-.98H6.47V-58.23zm0 0h6.47v-.97-2.27-2.25-.98H6.47V-58.23zm45.3 0H58.23v-.97-2.27-2.25-.98h-6.46V-58.23zm0 0H58.23v-.97-2.27-2.25-.98h-6.46V-58.23zm0 0H58.23v-.97-2.27-2.25-.98h-6.46V-58.23zm0 0H58.23v-.97-2.27-2.25-.98h-6.46V-58.23zm6.46 0H64.7v-.97-2.27-2.25-.98h-6.47V-58.23zm0 0H64.7v-.97-2.27-2.25-.98h-6.47V-58.23zm0 0H64.7v-.97-2.27-2.25-.98h-6.47V-58.23zm0 0H64.7v-.97-2.27-2.25-.98h-6.47V-58.23zm-45.3-3.24h6.48v-.97-2.26-2.25-.99h-6.47V-61.47zm0 0h6.48v-.97-2.26-2.25-.99h-6.47V-61.47zm0 0h6.48v-.97-2.26-2.25-.99h-6.47V-61.47zm0 0h6.48v-.97-2.26-2.25-.99h-6.47V-61.47zm25.9 0h6.47v-.97-2.26-2.25-.99h-6.47V-61.47zm0 0h6.47v-.97-2.26-2.25-.99h-6.47V-61.47zm0 0h6.47v-.97-2.26-2.25-.99h-6.47V-61.47zm0 0h6.47v-.97-2.26-2.25-.99h-6.47V-61.47zm6.47 0h6.47v-.97-2.26-2.25-.99H45.3V-61.47zm0 0h6.47v-.97-2.26-2.25-.99H45.3V-61.47zm0 0h6.47v-.97-2.26-2.25-.99H45.3V-61.47zm0 0h6.47v-.97-2.26-2.25-.99H45.3V-61.47zm6.47-3.23H58.23v-.97-2.27-2.25-.98h-6.46V-64.7zm0 0H58.23v-.97-2.27-2.25-.98h-6.46V-64.7zm0 0H58.23v-.97-2.27-2.25-.98h-6.46V-64.7zm0 0H58.23v-.97-2.27-2.25-.98h-6.46V-64.7zm6.46 0H64.7v-.97-2.27-2.25-.98h-6.47V-64.7zm0 0H64.7v-.97-2.27-2.25-.98h-6.47V-64.7zm0 0H64.7v-.97-2.27-2.25-.98h-6.47V-64.7zm0 0H64.7v-.97-2.27-2.25-.98h-6.47V-64.7zm-19.4-3.24h6.47v-.97-2.26-2.25-.99h-6.47V-67.94zm0 0h6.47v-.97-2.26-2.25-.99h-6.47V-67.94zm0 0h6.47v-.97-2.26-2.25-.99h-6.47V-67.94zm0 0h6.47v-.97-2.26-2.25-.99h-6.47V-67.94zm6.47-3.23h6.47v-.97-2.27-2.25-.98H45.3V-71.17zm0 0h6.47v-.97-2.27-2.25-.98H45.3V-71.17zm0 0h6.47v-.97-2.27-2.25-.98H45.3V-71.17zm0 0h6.47v-.97-2.27-2.25-.98H45.3V-71.17zm12.93 0H64.7v-.97-2.27-2.25-.98h-6.47V-71.17zm0 0H64.7v-.97-2.27-2.25-.98h-6.47V-71.17zm0 0H64.7v-.97-2.27-2.25-.98h-6.47V-71.17zm0 0H64.7v-.97-2.27-2.25-.98h-6.47V-71.17zm-6.46-3.24H58.23v-.97-2.26-2.25-.98h-6.46v6.46zm0 0H58.23v-.97-2.26-2.25-.98h-6.46v6.46zm0 0H58.23v-.97-2.26-2.25-.98h-6.46v6.46zm0 0H58.23v-.97-2.26-2.25-.98h-6.46v6.46zm9.7-3.23h6.47v-.97-2.27-2.25-.98h-6.47V-77.64zm0 0h6.47v-.97-2.27-2.25-.98h-6.47V-77.64zm0 0h6.47v-.97-2.27-2.25-.98h-6.47V-77.64zm0 0h6.47v-.97-2.27-2.25-.98h-6.47V-77.64zm-19.4-3.23H48.52v-.97-2.27-2.25-.98h-6.47v6.46zm0 0H48.52v-.97-2.27-2.25-.98h-6.47v6.46zm0 0H48.52v-.97-2.27-2.25-.98h-6.47v6.46zm0 0H48.52v-.97-2.27-2.25-.98h-6.47v6.46zm6.46 0H55v-.97-2.27-2.25-.98h-6.47v6.46zm0 0H55v-.97-2.27-2.25-.98h-6.47v6.46zm0 0H55v-.97-2.27-2.25-.98h-6.47v6.46zm0 0H55v-.97-2.27-2.25-.98h-6.47v6.46zm12.94-3.25h6.47v-.97-2.27-2.25-.98h-6.47v6.46zm0 0h6.47v-.97-2.27-2.25-.98h-6.47v6.46zm0 0h6.47v-.97-2.27-2.25-.98h-6.47v6.46zm0 0h6.47v-.97-2.27-2.25-.98h-6.47v6.46zm6.47 0h6.47v-.97-2.27-2.25-.98h-6.47v6.46zm0 0h6.47v-.97-2.27-2.25-.98h-6.47v6.46zm0 0h6.47v-.97-2.27-2.25-.98h-6.47v6.46zm0 0h6.47v-.97-2.27-2.25-.98h-6.47v6.46zm-19.4-3.24H55v-.97-2.26-2.25-.99h-6.47V-87.36zm0 0H55v-.97-2.26-2.25-.99h-6.47V-87.36zm0 0H55v-.97-2.26-2.25-.99h-6.47V-87.36zm0 0H55v-.97-2.26-2.25-.99h-6.47V-87.36zm12.93-3.23h6.47v-.97-2.27-2.25-.98h-6.47V-90.6zm0 0h6.47v-.97-2.27-2.25-.98h-6.47V-90.6zm0 0h6.47v-.97-2.27-2.25-.98h-6.47V-90.6zm0 0h6.47v-.97-2.27-2.25-.98h-6.47V-90.6zm-12.94-3.24H55v-.97-2.26-2.25-.99h-6.47V-93.83zm0 0H55v-.97-2.26-2.25-.99h-6.47V-93.83zm0 0H55v-.97-2.26-2.25-.99h-6.47V-93.83zm0 0H55v-.97-2.26-2.25-.99h-6.47V-93.83zm-6.47-3.23H48.53v-.97-2.27-2.25-.98h-6.47V-97.06zm0 0H48.53v-.97-2.27-2.25-.98h-6.47V-97.06zm0 0H48.53v-.97-2.27-2.25-.98h-6.47V-97.06zm0 0H48.53v-.97-2.27-2.25-.98h-6.47V-97.06zm19.4 0h6.48v-.97-2.27-2.25-.98h-6.47V-97.06zm0 0h6.48v-.97-2.27-2.25-.98h-6.47V-97.06zm0 0h6.48v-.97-2.27-2.25-.98h-6.47V-97.06zm0 0h6.48v-.97-2.27-2.25-.98h-6.47V-97.06zm6.48-3.24h6.47v-.97-2.26-2.25-.99h-6.47V-100.3zm0 0h6.47v-.97-2.26-2.25-.99h-6.47V-100.3zm0 0h6.47v-.97-2.26-2.25-.99h-6.47V-100.3zm0 0h6.47v-.97-2.26-2.25-.99h-6.47V-100.3zm0 0"/></symbol><symbol overflow="visible" id="af780aced"><path d="M6.47 0h6.47v-.97-2.26-2.25-.99H6.47V0zm0 0h6.47v-.97-2.26-2.25-.99H6.47V0zm0 0h6.47v-.97-2.26-2.25-.99H6.47V0zm0 0h6.47v-.97-2.26-2.25-.99H6.47V0zm6.47 0h6.47v-.97-2.26-2.25-.99h-6.47V0zm0 0h6.47v-.97-2.26-2.25-.99h-6.47V0zm0 0h6.47v-.97-2.26-2.25-.99h-6.47V0zm0 0h6.47v-.97-2.26-2.25-.99h-6.47V0zm25.89 0h6.47v-.97-2.26-2.25-.99h-6.47V0zm0 0h6.47v-.97-2.26-2.25-.99h-6.47V0zm0 0h6.47v-.97-2.26-2.25-.99h-6.47V0zm0 0h6.47v-.97-2.26-2.25-.99h-6.47V0zm6.47 0h6.47v-.97-2.26-2.25-.99H45.3V0zm0 0h6.47v-.97-2.26-2.25-.99H45.3V0zm0 0h6.47v-.97-2.26-2.25-.99H45.3V0zm0 0h6.47v-.97-2.26-2.25-.99H45.3V0zm12.93 0H64.7v-.97-2.26-2.25-.99h-6.47V0zm0 0H64.7v-.97-2.26-2.25-.99h-6.47V0zm0 0H64.7v-.97-2.26-2.25-.99h-6.47V0zm0 0H64.7v-.97-2.26-2.25-.99h-6.47V0zm-45.3-6.47h6.48v-.97-2.26-2.25-.99h-6.47V-6.47zm0 0h6.48v-.97-2.26-2.25-.99h-6.47V-6.47zm0 0h6.48v-.97-2.26-2.25-.99h-6.47V-6.47zm0 0h6.48v-.97-2.26-2.25-.99h-6.47V-6.47zm32.37 0h6.47v-.97-2.26-2.25-.99H45.3V-6.47zm0 0h6.47v-.97-2.26-2.25-.99H45.3V-6.47zm0 0h6.47v-.97-2.26-2.25-.99H45.3V-6.47zm0 0h6.47v-.97-2.26-2.25-.99H45.3V-6.47zm12.93 0H64.7v-.97-2.26-2.25-.99h-6.47V-6.47zm0 0H64.7v-.97-2.26-2.25-.99h-6.47V-6.47zm0 0H64.7v-.97-2.26-2.25-.99h-6.47V-6.47zm0 0H64.7v-.97-2.26-2.25-.99h-6.47V-6.47zm-45.3-6.47h6.48v-.97-2.26-2.25-.99h-6.47V-12.94zm0 0h6.48v-.97-2.26-2.25-.99h-6.47V-12.94zm0 0h6.48v-.97-2.26-2.25-.99h-6.47V-12.94zm0 0h6.48v-.97-2.26-2.25-.99h-6.47V-12.94zm32.37 0h6.47v-.97-2.26-2.25-.99H45.3V-12.94zm0 0h6.47v-.97-2.26-2.25-.99H45.3V-12.94zm0 0h6.47v-.97-2.26-2.25-.99H45.3V-12.94zm0 0h6.47v-.97-2.26-2.25-.99H45.3V-12.94zm12.93 0H64.7v-.97-2.26-2.25-.99h-6.47V-12.94zm0 0H64.7v-.97-2.26-2.25-.99h-6.47V-12.94zm0 0H64.7v-.97-2.26-2.25-.99h-6.47V-12.94zm0 0H64.7v-.97-2.26-2.25-.99h-6.47V-12.94zm-45.3-6.47h6.48v-.96-2.27-2.25-.98h-6.47v6.46zm0 0h6.48v-.96-2.27-2.25-.98h-6.47v6.46zm0 0h6.48v-.96-2.27-2.25-.98h-6.47v6.46zm0 0h6.48v-.96-2.27-2.25-.98h-6.47v6.46zm32.37 0h6.47v-.96-2.27-2.25-.98H45.3v6.46zm0 0h6.47v-.96-2.27-2.25-.98H45.3v6.46zm0 0h6.47v-.96-2.27-2.25-.98H45.3v6.46zm0 0h6.47v-.96-2.27-2.25-.98H45.3v6.46zm12.93 0H64.7v-.96-2.27-2.25-.98h-6.47v6.46zm0 0H64.7v-.96-2.27-2.25-.98h-6.47v6.46zm0 0H64.7v-.96-2.27-2.25-.98h-6.47v6.46zm0 0H64.7v-.96-2.27-2.25-.98h-6.47v6.46zm-45.3-6.46h6.48v-.97-2.27-2.25-.98h-6.47v6.46zm0 0h6.48v-.97-2.27-2.25-.98h-6.47v6.46zm0 0h6.48v-.97-2.27-2.25-.98h-6.47v6.46zm0 0h6.48v-.97-2.27-2.25-.98h-6.47v6.46zm6.48 0H25.87v-.97-2.27-2.25-.98h-6.46v6.46zm0 0H25.87v-.97-2.27-2.25-.98h-6.46v6.46zm0 0H25.87v-.97-2.27-2.25-.98h-6.46v6.46zm0 0H25.87v-.97-2.27-2.25-.98h-6.46v6.46zm6.46 0H32.34v-.97-2.27-2.25-.98h-6.46v6.46zm0 0H32.34v-.97-2.27-2.25-.98h-6.46v6.46zm0 0H32.34v-.97-2.27-2.25-.98h-6.46v6.46zm0 0H32.34v-.97-2.27-2.25-.98h-6.46v6.46zm6.49 0h6.47v-.97-2.27-2.25-.98h-6.47v6.46zm0 0h6.47v-.97-2.27-2.25-.98h-6.47v6.46zm0 0h6.47v-.97-2.27-2.25-.98h-6.47v6.46zm0 0h6.47v-.97-2.27-2.25-.98h-6.47v6.46zm6.47 0h6.47v-.97-2.27-2.25-.98h-6.47v6.46zm0 0h6.47v-.97-2.27-2.25-.98h-6.47v6.46zm0 0h6.47v-.97-2.27-2.25-.98h-6.47v6.46zm0 0h6.47v-.97-2.27-2.25-.98h-6.47v6.46zm6.47 0h6.47v-.97-2.27-2.25-.98H45.3v6.46zm0 0h6.47v-.97-2.27-2.25-.98H45.3v6.46zm0 0h6.47v-.97-2.27-2.25-.98H45.3v6.46zm0 0h6.47v-.97-2.27-2.25-.98H45.3v6.46zm6.47 0H58.23v-.97-2.27-2.25-.98h-6.46v6.46zm0 0H58.23v-.97-2.27-2.25-.98h-6.46v6.46zm0 0H58.23v-.97-2.27-2.25-.98h-6.46v6.46zm0 0H58.23v-.97-2.27-2.25-.98h-6.46v6.46zm6.46 0H64.7v-.97-2.27-2.25-.98h-6.47v6.46zm0 0H64.7v-.97-2.27-2.25-.98h-6.47v6.46zm0 0H64.7v-.97-2.27-2.25-.98h-6.47v6.46zm0 0H64.7v-.97-2.27-2.25-.98h-6.47v6.46zM6.47-32.37h6.47v-.97-2.26-2.25-.99H6.47V-32.36zm0 0h6.47v-.97-2.26-2.25-.99H6.47V-32.36zm0 0h6.47v-.97-2.26-2.25-.99H6.47V-32.36zm0 0h6.47v-.97-2.26-2.25-.99H6.47V-32.36zm51.76 0H64.7v-.97-2.26-2.25-.99h-6.47V-32.36zm0 0H64.7v-.97-2.26-2.25-.99h-6.47V-32.36zm0 0H64.7v-.97-2.26-2.25-.99h-6.47V-32.36zm0 0H64.7v-.97-2.26-2.25-.99h-6.47V-32.36zM6.47-38.83h6.47v-.97-2.26-2.25-.99H6.47V-38.83zm0 0h6.47v-.97-2.26-2.25-.99H6.47V-38.83zm0 0h6.47v-.97-2.26-2.25-.99H6.47V-38.83zm0 0h6.47v-.97-2.26-2.25-.99H6.47V-38.83zm51.76 0H64.7v-.97-2.26-2.25-.99h-6.47V-38.83zm0 0H64.7v-.97-2.26-2.25-.99h-6.47V-38.83zm0 0H64.7v-.97-2.26-2.25-.99h-6.47V-38.83zm0 0H64.7v-.97-2.26-2.25-.99h-6.47V-38.83zM6.47-45.3h6.47v-.97-2.26-2.25-.99H6.47V-45.3zm0 0h6.47v-.97-2.26-2.25-.99H6.47V-45.3zm0 0h6.47v-.97-2.26-2.25-.99H6.47V-45.3zm0 0h6.47v-.97-2.26-2.25-.99H6.47V-45.3zm6.47 0h6.47v-.97-2.26-2.25-.99h-6.47V-45.3zm0 0h6.47v-.97-2.26-2.25-.99h-6.47V-45.3zm0 0h6.47v-.97-2.26-2.25-.99h-6.47V-45.3zm0 0h6.47v-.97-2.26-2.25-.99h-6.47V-45.3zm6.47 0H25.87v-.97-2.26-2.25-.99h-6.46V-45.3zm0 0H25.87v-.97-2.26-2.25-.99h-6.46V-45.3zm0 0H25.87v-.97-2.26-2.25-.99h-6.46V-45.3zm0 0H25.87v-.97-2.26-2.25-.99h-6.46V-45.3zm6.46 0H32.34v-.97-2.26-2.25-.99h-6.46V-45.3zm0 0H32.34v-.97-2.26-2.25-.99h-6.46V-45.3zm0 0H32.34v-.97-2.26-2.25-.99h-6.46V-45.3zm0 0H32.34v-.97-2.26-2.25-.99h-6.46V-45.3zm6.49 0h6.47v-.97-2.26-2.25-.99h-6.47V-45.3zm0 0h6.47v-.97-2.26-2.25-.99h-6.47V-45.3zm0 0h6.47v-.97-2.26-2.25-.99h-6.47V-45.3zm0 0h6.47v-.97-2.26-2.25-.99h-6.47V-45.3zm6.47 0h6.47v-.97-2.26-2.25-.99h-6.47V-45.3zm0 0h6.47v-.97-2.26-2.25-.99h-6.47V-45.3zm0 0h6.47v-.97-2.26-2.25-.99h-6.47V-45.3zm0 0h6.47v-.97-2.26-2.25-.99h-6.47V-45.3zm6.47 0h6.47v-.97-2.26-2.25-.99H45.3V-45.3zm0 0h6.47v-.97-2.26-2.25-.99H45.3V-45.3zm0 0h6.47v-.97-2.26-2.25-.99H45.3V-45.3zm0 0h6.47v-.97-2.26-2.25-.99H45.3V-45.3zm6.47 0H58.23v-.97-2.26-2.25-.99h-6.46V-45.3zm0 0H58.23v-.97-2.26-2.25-.99h-6.46V-45.3zm0 0H58.23v-.97-2.26-2.25-.99h-6.46V-45.3zm0 0H58.23v-.97-2.26-2.25-.99h-6.46V-45.3zm-45.3-6.47h6.47v-.96V-55v-2.25-.98H6.47v6.46zm0 0h6.47v-.96V-55v-2.25-.98H6.47v6.46zm0 0h6.47v-.96V-55v-2.25-.98H6.47v6.46zm0 0h6.47v-.96V-55v-2.25-.98H6.47v6.46zm6.47 0h6.47v-.96V-55v-2.25-.98h-6.47v6.46zm0 0h6.47v-.96V-55v-2.25-.98h-6.47v6.46zm0 0h6.47v-.96V-55v-2.25-.98h-6.47v6.46zm0 0h6.47v-.96V-55v-2.25-.98h-6.47v6.46zm45.3 0H64.7v-.96V-55v-2.25-.98h-6.47v6.46zm0 0H64.7v-.96V-55v-2.25-.98h-6.47v6.46zm0 0H64.7v-.96V-55v-2.25-.98h-6.47v6.46zm0 0H64.7v-.96V-55v-2.25-.98h-6.47v6.46zM6.46-58.23h6.47v-.97-2.27-2.25-.98H6.47V-58.23zm0 0h6.47v-.97-2.27-2.25-.98H6.47V-58.23zm0 0h6.47v-.97-2.27-2.25-.98H6.47V-58.23zm0 0h6.47v-.97-2.27-2.25-.98H6.47V-58.23zm6.47 0h6.47v-.97-2.27-2.25-.98h-6.47V-58.23zm0 0h6.47v-.97-2.27-2.25-.98h-6.47V-58.23zm0 0h6.47v-.97-2.27-2.25-.98h-6.47V-58.23zm0 0h6.47v-.97-2.27-2.25-.98h-6.47V-58.23zm45.3 0H64.7v-.97-2.27-2.25-.98h-6.47V-58.23zm0 0H64.7v-.97-2.27-2.25-.98h-6.47V-58.23zm0 0H64.7v-.97-2.27-2.25-.98h-6.47V-58.23zm0 0H64.7v-.97-2.27-2.25-.98h-6.47V-58.23zM19.4-61.47H25.87v-.97-2.26-2.25-.99h-6.46V-61.47zm0 0H25.87v-.97-2.26-2.25-.99h-6.46V-61.47zm0 0H25.87v-.97-2.26-2.25-.99h-6.46V-61.47zm0 0H25.87v-.97-2.26-2.25-.99h-6.46V-61.47zm6.46 0H32.34v-.97-2.26-2.25-.99h-6.46V-61.47zm0 0H32.34v-.97-2.26-2.25-.99h-6.46V-61.47zm0 0H32.34v-.97-2.26-2.25-.99h-6.46V-61.47zm0 0H32.34v-.97-2.26-2.25-.99h-6.46V-61.47zm25.9 0H58.23v-.97-2.26-2.25-.99h-6.46V-61.47zm0 0H58.23v-.97-2.26-2.25-.99h-6.46V-61.47zm0 0H58.23v-.97-2.26-2.25-.99h-6.46V-61.47zm0 0H58.23v-.97-2.26-2.25-.99h-6.46V-61.47zM6.47-64.7h6.47v-.97-2.27-2.25-.98H6.47V-64.7zm0 0h6.47v-.97-2.27-2.25-.98H6.47V-64.7zm0 0h6.47v-.97-2.27-2.25-.98H6.47V-64.7zm0 0h6.47v-.97-2.27-2.25-.98H6.47V-64.7zm6.47 0h6.47v-.97-2.27-2.25-.98h-6.47V-64.7zm0 0h6.47v-.97-2.27-2.25-.98h-6.47V-64.7zm0 0h6.47v-.97-2.27-2.25-.98h-6.47V-64.7zm0 0h6.47v-.97-2.27-2.25-.98h-6.47V-64.7zm12.94-3.24H32.34v-.97-2.26-2.25-.99h-6.46V-67.94zm0 0H32.34v-.97-2.26-2.25-.99h-6.46V-67.94zm0 0H32.34v-.97-2.26-2.25-.99h-6.46V-67.94zm0 0H32.34v-.97-2.26-2.25-.99h-6.46V-67.94zM6.46-71.17h6.47v-.97-2.27-2.25-.98H6.47V-71.17zm0 0h6.47v-.97-2.27-2.25-.98H6.47V-71.17zm0 0h6.47v-.97-2.27-2.25-.98H6.47V-71.17zm0 0h6.47v-.97-2.27-2.25-.98H6.47V-71.17zm12.94 0H25.87v-.97-2.27-2.25-.98h-6.46V-71.17zm0 0H25.87v-.97-2.27-2.25-.98h-6.46V-71.17zm0 0H25.87v-.97-2.27-2.25-.98h-6.46V-71.17zm0 0H25.87v-.97-2.27-2.25-.98h-6.46V-71.17zm-6.47-3.24h6.47v-.97-2.26-2.25-.98h-6.47v6.46zm0 0h6.47v-.97-2.26-2.25-.98h-6.47v6.46zm0 0h6.47v-.97-2.26-2.25-.98h-6.47v6.46zm0 0h6.47v-.97-2.26-2.25-.98h-6.47v6.46zm-9.7-3.23H9.7v-.97-2.27-2.25-.98H3.23V-77.64zm0 0H9.7v-.97-2.27-2.25-.98H3.23V-77.64zm0 0H9.7v-.97-2.27-2.25-.98H3.23V-77.64zm0 0H9.7v-.97-2.27-2.25-.98H3.23V-77.64zm12.93-3.23H22.64v-.97-2.27-2.25-.98h-6.47v6.46zm0 0H22.64v-.97-2.27-2.25-.98h-6.47v6.46zm0 0H22.64v-.97-2.27-2.25-.98h-6.47v6.46zm0 0H22.64v-.97-2.27-2.25-.98h-6.47v6.46zm6.47 0H29.11v-.97-2.27-2.25-.98h-6.47v6.46zm0 0H29.11v-.97-2.27-2.25-.98h-6.47v6.46zm0 0H29.11v-.97-2.27-2.25-.98h-6.47v6.46zm0 0H29.11v-.97-2.27-2.25-.98h-6.47v6.46zm-25.87-3.25H3.23v-.97-2.27-2.25-.98H-3.23v6.46zm0 0H3.23v-.97-2.27-2.25-.98H-3.23v6.46zm0 0H3.23v-.97-2.27-2.25-.98H-3.23v6.46zm0 0H3.23v-.97-2.27-2.25-.98H-3.23v6.46zm6.46 0H9.7v-.97-2.27-2.25-.98H3.23v6.46zm0 0H9.7v-.97-2.27-2.25-.98H3.23v6.46zm0 0H9.7v-.97-2.27-2.25-.98H3.23v6.46zm0 0H9.7v-.97-2.27-2.25-.98H3.23v6.46zm12.94-3.24H22.64v-.97-2.26-2.25-.99h-6.47V-87.36zm0 0H22.64v-.97-2.26-2.25-.99h-6.47V-87.36zm0 0H22.64v-.97-2.26-2.25-.99h-6.47V-87.36zm0 0H22.64v-.97-2.26-2.25-.99h-6.47V-87.36zM3.23-90.59H9.7v-.97-2.27-2.25-.98H3.23V-90.6zm0 0H9.7v-.97-2.27-2.25-.98H3.23V-90.6zm0 0H9.7v-.97-2.27-2.25-.98H3.23V-90.6zm0 0H9.7v-.97-2.27-2.25-.98H3.23V-90.6zm12.94-3.24H22.64v-.97-2.26-2.25-.99h-6.47V-93.83zm0 0H22.64v-.97-2.26-2.25-.99h-6.47V-93.83zm0 0H22.64v-.97-2.26-2.25-.99h-6.47V-93.83zm0 0H22.64v-.97-2.26-2.25-.99h-6.47V-93.83zm6.47 0H29.11v-.97-2.26-2.25-.99h-6.47V-93.83zm0 0H29.11v-.97-2.26-2.25-.99h-6.47V-93.83zm0 0H29.11v-.97-2.26-2.25-.99h-6.47V-93.83zm0 0H29.11v-.97-2.26-2.25-.99h-6.47V-93.83zm-25.87-3.23H3.23v-.97-2.27-2.25-.98H-3.23V-97.06zm0 0H3.23v-.97-2.27-2.25-.98H-3.23V-97.06zm0 0H3.23v-.97-2.27-2.25-.98H-3.23V-97.06zm0 0H3.23v-.97-2.27-2.25-.98H-3.23V-97.06zm6.46 0H9.7v-.97-2.27-2.25-.98H3.23V-97.06zm0 0H9.7v-.97-2.27-2.25-.98H3.23V-97.06zm0 0H9.7v-.97-2.27-2.25-.98H3.23V-97.06zm0 0H9.7v-.97-2.27-2.25-.98H3.23V-97.06zm12.94-3.24H22.64v-.97-2.26-2.25-.99h-6.47V-100.3zm0 0H22.64v-.97-2.26-2.25-.99h-6.47V-100.3zm0 0H22.64v-.97-2.26-2.25-.99h-6.47V-100.3zm0 0H22.64v-.97-2.26-2.25-.99h-6.47V-100.3zm-12.94-3.23H9.7v-.97-2.27-2.25-.98H3.23V-103.53zm0 0H9.7v-.97-2.27-2.25-.98H3.23V-103.53zm0 0H9.7v-.97-2.27-2.25-.98H3.23V-103.53zm0 0H9.7v-.97-2.27-2.25-.98H3.23V-103.53zm12.94-3.24H22.64v-.96-2.27-2.25-.98h-6.47v6.46zm0 0H22.64v-.96-2.27-2.25-.98h-6.47v6.46zm0 0H22.64v-.96-2.27-2.25-.98h-6.47v6.46zm0 0H22.64v-.96-2.27-2.25-.98h-6.47v6.46zM3.23-110H9.7v-.97-2.26-2.25-.99H3.23V-110zm0 0H9.7v-.97-2.26-2.25-.99H3.23V-110zm0 0H9.7v-.97-2.26-2.25-.99H3.23V-110zm0 0H9.7v-.97-2.26-2.25-.99H3.23V-110zm19.41 0H29.11v-.97-2.26-2.25-.99h-6.47V-110zm0 0H29.11v-.97-2.26-2.25-.99h-6.47V-110zm0 0H29.11v-.97-2.26-2.25-.99h-6.47V-110zm0 0H29.11v-.97-2.26-2.25-.99h-6.47V-110zm-25.87-3.23H3.23v-.97-2.27-2.25-.98H-3.23V-113.23zm0 0H3.23v-.97-2.27-2.25-.98H-3.23V-113.23zm0 0H3.23v-.97-2.27-2.25-.98H-3.23V-113.23zm0 0H3.23v-.97-2.27-2.25-.98H-3.23V-113.23zm0 0"/></symbol><symbol overflow="visible" id="af780acee"><path d="M3.83 0v-5.95H6.2v-.82H.45v.82h2.4V0zm0 0"/></symbol><symbol overflow="visible" id="af780acef"><path d="M5.75-2.23v-.43c0-1.6-.9-2.51-2.42-2.51S.87-4.16.87-2.48c0 1.71.91 2.62 2.5 2.62 1.43 0 2.07-.56 2.29-1.52l-.9-.09c-.18.61-.59.9-1.35.9-.94 0-1.52-.54-1.58-1.66zm-2.4-2.2c.93 0 1.43.5 1.48 1.55H1.84c.08-1.07.6-1.56 1.5-1.56zm0 0"/></symbol><symbol overflow="visible" id="af780aceg"><path d="M1.83 0l1.42-2h.06l1.46 2H5.8L4-2.53l1.78-2.49H4.8L3.42-3.08h-.08l-1.4-1.94H.89l1.78 2.49L.84 0zm0 0"/></symbol><symbol overflow="visible" id="af780aceh"><path d="M5.52-4.25v-.77H3.17v-1.56h-.81l-.14 1.56H.75v.77h1.47v2.4c0 1.3.48 1.94 1.84 1.94C4.6.1 5.14 0 5.55-.14L5.4-.91c-.32.13-.72.2-1.13.2-.8 0-1.1-.37-1.1-1.23v-2.31zm0 0"/></symbol><symbol overflow="visible" id="af780acei"><path d="M3.33-3.42c.47 0 .8-.27.8-.8 0-.51-.33-.8-.8-.8-.47 0-.8.29-.8.8 0 .53.33.8.8.8zm0 3.5c.47 0 .8-.27.8-.78 0-.53-.33-.82-.8-.82-.47 0-.8.29-.8.82 0 .51.33.78.8.78zm0 0"/></symbol><symbol overflow="visible" id="af780acek"><path d="M2.84.14C3.8.14 4.33-.26 4.6-.9h.07L4.8 0h.76v-7.14h-.95v2.95h-.08c-.28-.6-.86-.97-1.67-.97-1.48 0-2.27.99-2.27 2.64C.6-.84 1.36.14 2.84.14zm.22-.8c-.98 0-1.48-.59-1.48-1.84s.5-1.86 1.48-1.86c1.13 0 1.58.8 1.58 1.86S4.2-.66 3.06-.66zm0 0"/></symbol><symbol overflow="visible" id="af780acel"><path d="M5.08-5.16c-.94 0-1.58.43-1.9 1.3h-.09l-.07-1.16H1.05v.77h1.1v3.48H.96V0h3.96v-.77H3.1v-1.46c0-1.36.6-2.05 1.83-2.05.4 0 .76.08 1.1.17l.15-.87c-.33-.11-.7-.18-1.11-.18zm0 0"/></symbol><symbol overflow="visible" id="af780acem"><path d="M3.58-5.81c.42 0 .72-.22.72-.67 0-.44-.3-.68-.72-.68-.44 0-.72.24-.72.68 0 .45.28.67.72.67zm.5.8H1.52v.76h1.6v3.48h-1.8V0h4.46v-.77h-1.7zm0 0"/></symbol><symbol overflow="visible" id="af780acen"><path d="M3.16 2.03c1.67 0 2.4-.86 2.4-2.51v-4.54h-.81l-.13.91h-.06c-.26-.58-.8-1.05-1.73-1.05-1.42 0-2.24 1-2.24 2.52 0 1.6.75 2.56 2.2 2.56.94 0 1.5-.5 1.77-1.03h.05v.72c0 1.17-.42 1.67-1.45 1.67-.93 0-1.3-.34-1.41-.89L.8.5c.12.96.87 1.54 2.36 1.54zM3.06-.8c-.98 0-1.48-.57-1.48-1.82 0-1.13.5-1.75 1.48-1.75 1.06 0 1.58.76 1.58 1.75 0 .95-.56 1.82-1.58 1.82zm0 0"/></symbol><symbol overflow="visible" id="af780aceo"><path d="M2.16 0v-2.69c0-.98.6-1.6 1.46-1.6.74 0 1.07.4 1.07 1.2V0h.95v-3.31c0-1.17-.56-1.85-1.67-1.85-.9 0-1.44.46-1.75 1.08h-.06v-3.06H1.2V0zm0 0"/></symbol><symbol overflow="visible" id="af780acep"><path d="M5.95-6.77H1.1V0h.99v-2.92H5.3v-.77H2.08v-2.26h3.87zm0 0"/></symbol><symbol overflow="visible" id="af780aceq"><path d="M2.83.14c.94 0 1.5-.39 1.81-.95h.08l.1.81h.76v-3.38c0-1.23-.69-1.8-2.13-1.8-1.43 0-2.03.65-2.18 1.6l.93.1c.11-.6.44-.93 1.22-.93.85 0 1.22.32 1.22 1.04v.34l-1.81.2C1.6-2.7 1.1-2.17 1.1-1.28c0 .92.64 1.42 1.72 1.42zm.25-.77c-.67 0-1.02-.28-1.02-.74 0-.44.28-.72 1-.82l1.58-.19v.41c0 .8-.6 1.34-1.56 1.34zm0 0"/></symbol><symbol overflow="visible" id="af780acer"><path d="M2.73.14c.9 0 1.43-.45 1.74-1.08h.06l.13.94h.8v-5.02h-.94v2.7c0 .98-.57 1.62-1.46 1.62-.75 0-1.1-.4-1.1-1.22v-3.1h-.93v3.32c0 1.17.55 1.84 1.7 1.84zm0 0"/></symbol><symbol overflow="visible" id="af780aces"><path d="M.92-6.77V0h2.11c2.03 0 3.03-1.03 3.03-3.36 0-2.39-1.01-3.4-2.93-3.4zM1.91-.8v-5.17h1.18c1.29 0 1.96.63 1.96 2.61 0 1.94-.67 2.56-1.96 2.56zm0 0"/></symbol><symbol overflow="visible" id="af780acet"><path d="M3.36.16c1.4 0 2.2-.6 2.2-1.57 0-.89-.54-1.22-1.47-1.39L3-3c-.67-.14-.86-.33-.86-.73 0-.5.4-.74 1.17-.74.83 0 1.19.27 1.27.8l.9-.05c-.12-1-.8-1.47-2.17-1.47-1.34 0-2.1.53-2.1 1.5 0 .81.45 1.22 1.52 1.44l1.04.2c.56.11.87.24.87.72 0 .52-.45.78-1.28.78-.95 0-1.36-.28-1.42-.87l-.9.06C1.07-.36 1.8.16 3.35.16zm0 0"/></symbol><symbol overflow="visible" id="af780aceu"><path d="M1.45-2.95c0 2.56 1.08 4.37 3.67 4.84l.11-.67C3.28.86 2.43-.75 2.43-2.95s.85-3.82 2.8-4.16l-.1-.69c-2.6.49-3.68 2.3-3.68 4.85zm0 0"/></symbol><symbol overflow="visible" id="af780acev"><path d="M1.63 0v-2.9c0-.8.15-1.4.71-1.4.41 0 .55.3.55.88V0h.95v-2.9c0-.8.18-1.4.72-1.4.4 0 .57.3.57.88V0h.95v-3.63c0-.92-.28-1.53-1.11-1.53-.63 0-.95.41-1.1.9h-.06c-.1-.52-.44-.9-1.08-.9-.6 0-.93.41-1.06.9H1.6l-.23-.76H.67V0zm0 0"/></symbol><symbol overflow="visible" id="af780acew"><path d="M3.33.14c1.62 0 2.5-.95 2.5-2.66 0-1.68-.88-2.64-2.5-2.64-1.63 0-2.5.96-2.5 2.64 0 1.7.87 2.66 2.5 2.66zm0-.77c-1.06 0-1.52-.6-1.52-1.89 0-1.28.46-1.87 1.52-1.87 1.08 0 1.53.6 1.53 1.87 0 1.29-.45 1.9-1.53 1.9zm0 0"/></symbol><symbol overflow="visible" id="af780acex"><path d="M3.38-5.9c.12-.5.42-1.04.67-1.41l-.63-.22a4.28 4.28 0 00-1.01 2.39c0 .66.3 1 .9 1 .6 0 .9-.33.9-.9 0-.57-.32-.83-.83-.85zm0 0"/></symbol><symbol overflow="visible" id="af780acey"><path d="M3.3-7.53c-.55 0-.85.3-.85.84 0 .55.36.8.83.8h.03a5.1 5.1 0 01-.69 1.47l.52.23a4.29 4.29 0 001.02-2.4c0-.63-.33-.94-.86-.94zm0 0"/></symbol><symbol overflow="visible" id="af780acez"><path d="M2.16 0v-2.67c0-.99.59-1.63 1.46-1.63.74 0 1.07.38 1.07 1.22V0h.95v-3.31c0-1.2-.56-1.85-1.67-1.85-.92 0-1.49.46-1.77 1.08h-.06l-.12-.94H1.2V0zm0 0"/></symbol><symbol overflow="visible" id="af780aceA"><path d="M3.34-1.56c-.54 0-.82.31-.82.86 0 .5.3.78.76.78-.08.4-.34.95-.65 1.39l.53.25c.57-.67 1-1.67 1-2.36 0-.6-.3-.92-.82-.92zm0 0"/></symbol><symbol overflow="visible" id="af780aceB"><path d="M3.92-7.14H1.36v.76h1.6v5.61H1.15V0H5.7v-.77H3.92zm0 0"/></symbol><symbol overflow="visible" id="af780aceC"><path d="M1.45-7.1c1.96.33 2.8 1.94 2.8 4.15 0 2.2-.84 3.8-2.8 4.17l.11.67c2.58-.47 3.67-2.28 3.67-4.84 0-2.55-1.09-4.36-3.67-4.85zm0 0"/></symbol><clipPath id="a"><path d="M170 42h69v123h-69zm0 0"/></clipPath></defs><g clip-path="url(#a)"><use xlink:href="#af780aceb" x="173.8235" y="165" fill="#eaf734"/></g><use xlink:href="#af780acec" x="264.4118" y="165" fill="#eaf734"/><use xlink:href="#af780aced" x="355" y="165" fill="#eaf734"/><g fill="#eaf734"><use xlink:href="#af780acee" x="196.6667" y="252"/><use xlink:href="#af780acef" x="203.3337" y="252"/><use xlink:href="#af780aceg" x="210.0007" y="252"/><use xlink:href="#af780aceh" x="216.6677" y="252"/><use xlink:href="#af780acei" x="223.3347" y="252"/><use xlink:href="#af780acej" x="230.0017" y="252"/><use xlink:href="#af780acei" x="236.6687" y="252"/><use xlink:href="#af780acek" x="243.3357" y="252"/><use xlink:href="#af780acef" x="250.0027" y="252"/><use xlink:href="#af780acef" x="256.6697" y="252"/><use xlink:href="#af780acef" x="263.3367" y="252"/><use xlink:href="#af780acef" x="270.0037" y="252"/><use xlink:href="#af780acel" x="276.6707" y="252"/><use xlink:href="#af780acej" x="283.3377" y="252"/><use xlink:href="#af780acei" x="290.0047" y="252"/><use xlink:href="#af780acel" x="296.6717" y="252"/><use xlink:href="#af780acem" x="303.3387" y="252"/><use xlink:href="#af780acen" x="310.0057" y="252"/><use xlink:href="#af780aceo" x="316.6727" y="252"/><use xlink:href="#af780aceh" x="323.3397" y="252"/><use xlink:href="#af780acek" x="330.0067" y="252"/><use xlink:href="#af780acef" x="336.6737" y="252"/><use xlink:href="#af780acef" x="343.3407" y="252"/><use xlink:href="#af780acel" x="350.0077" y="252"/><use xlink:href="#af780acej" x="356.6747" y="252"/><use xlink:href="#af780acei" x="363.3417" y="252"/><use xlink:href="#af780acek" x="370.0087" y="252"/><use xlink:href="#af780acef" x="376.6757" y="252"/><use xlink:href="#af780acef" x="383.3427" y="252"/><use xlink:href="#af780acef" x="390.0097" y="252"/><use xlink:href="#af780acel" x="396.6767" y="252"/></g><g fill="#eaf734"><use xlink:href="#af780acep" x="160" y="266"/><use xlink:href="#af780acef" x="166.667" y="266"/><use xlink:href="#af780aceq" x="173.334" y="266"/><use xlink:href="#af780aceh" x="180.001" y="266"/><use xlink:href="#af780acer" x="186.668" y="266"/><use xlink:href="#af780acel" x="193.335" y="266"/><use xlink:href="#af780acef" x="200.002" y="266"/><use xlink:href="#af780acei" x="206.669" y="266"/><use xlink:href="#af780acej" x="213.336" y="266"/><use xlink:href="#af780aces" x="220.003" y="266"/><use xlink:href="#af780acef" x="226.67" y="266"/><use xlink:href="#af780acef" x="233.337" y="266"/><use xlink:href="#af780acel" x="240.004" y="266"/><use xlink:href="#af780acet" x="246.671" y="266"/><use xlink:href="#af780acej" x="253.338" y="266"/><use xlink:href="#af780aceu" x="260.005" y="266"/><use xlink:href="#af780acev" x="266.672" y="266"/><use xlink:href="#af780acew" x="273.339" y="266"/><use xlink:href="#af780acel" x="280.006" y="266"/><use xlink:href="#af780acef" x="286.673" y="266"/><use xlink:href="#af780acej" x="293.34" y="266"/><use xlink:href="#af780acex" x="300.007" y="266"/><use xlink:href="#af780acef" x="306.674" y="266"/><use xlink:href="#af780acey" x="313.341" y="266"/><use xlink:href="#af780acej" x="320.008" y="266"/><use xlink:href="#af780acev" x="326.675" y="266"/><use xlink:href="#af780acew" x="333.342" y="266"/><use xlink:href="#af780acel" x="340.009" y="266"/><use xlink:href="#af780acef" x="346.676" y="266"/><use xlink:href="#af780acej" x="353.343" y="266"/><use xlink:href="#af780aceo" x="360.01" y="266"/><use xlink:href="#af780acew" x="366.677" y="266"/><use xlink:href="#af780acel" x="373.344" y="266"/><use xlink:href="#af780acez" x="380.011" y="266"/><use xlink:href="#af780acet" x="386.678" y="266"/><use xlink:href="#af780aceA" x="393.345" y="266"/><use xlink:href="#af780acej" x="400.012" y="266"/><use xlink:href="#af780acek" x="406.679" y="266"/><use xlink:href="#af780aceB" x="413.346" y="266"/><use xlink:href="#af780acem" x="420.013" y="266"/><use xlink:href="#af780acen" x="426.68" y="266"/><use xlink:href="#af780aceC" x="433.347" y="266"/></g></svg>