<?xml version='1.0' encoding='UTF-8'?>
<svg xmlns="http://www.w3.org/2000/svg" xmlns:xlink="http://www.w3.org/1999/xlink" width="600px" height="300px" viewBox="0 0 600 300" x="0px" y="0px" enable-background="new 0 0 600 300"><defs><symbol overflow="visible" id="cb5549c5a"><path d="M29.13 0H35.59v-.97-2.26-2.25-.99h-6.46V0zm0 0H35.59v-.97-2.26-2.25-.99h-6.46V0zm0 0H35.59v-.97-2.26-2.25-.99h-6.46V0zm0 0H35.59v-.97-2.26-2.25-.99h-6.46V0zm6.46 0H42.06v-.97-2.26-2.25-.99H35.6V0zm0 0H42.06v-.97-2.26-2.25-.99H35.6V0zm0 0H42.06v-.97-2.26-2.25-.99H35.6V0zm0 0H42.06v-.97-2.26-2.25-.99H35.6V0zm9.7 0h6.48v-.97-2.26-2.25-.99H45.3V0zm0 0h6.48v-.97-2.26-2.25-.99H45.3V0zm0 0h6.48v-.97-2.26-2.25-.99H45.3V0zm0 0h6.48v-.97-2.26-2.25-.99H45.3V0zm-9.7-6.47H42.06v-.97-2.26-2.25-.99H35.6V-6.47zm0 0H42.06v-.97-2.26-2.25-.99H35.6V-6.47zm0 0H42.06v-.97-2.26-2.25-.99H35.6V-6.47zm0 0H42.06v-.97-2.26-2.25-.99H35.6V-6.47zm9.7 0h6.48v-.97-2.26-2.25-.99H45.3V-6.47zm0 0h6.48v-.97-2.26-2.25-.99H45.3V-6.47zm0 0h6.48v-.97-2.26-2.25-.99H45.3V-6.47zm0 0h6.48v-.97-2.26-2.25-.99H45.3V-6.47zm-9.7-6.47H42.06v-.97-2.26-2.25-.99H35.6V-12.94zm0 0H42.06v-.97-2.26-2.25-.99H35.6V-12.94zm0 0H42.06v-.97-2.26-2.25-.99H35.6V-12.94zm0 0H42.06v-.97-2.26-2.25-.99H35.6V-12.94zm6.47 0H48.53v-.97-2.26-2.25-.99h-6.47V-12.94zm0 0H48.53v-.97-2.26-2.25-.99h-6.47V-12.94zm0 0H48.53v-.97-2.26-2.25-.99h-6.47V-12.94zm0 0H48.53v-.97-2.26-2.25-.99h-6.47V-12.94zm6.47 0H55v-.97-2.26-2.25-.99h-6.47V-12.94zm0 0H55v-.97-2.26-2.25-.99h-6.47V-12.94zm0 0H55v-.97-2.26-2.25-.99h-6.47V-12.94zm0 0H55v-.97-2.26-2.25-.99h-6.47V-12.94zm-19.4-6.47H35.59v-.96-2.27-2.25-.98h-6.46v6.46zm0 0H35.59v-.96-2.27-2.25-.98h-6.46v6.46zm0 0H35.59v-.96-2.27-2.25-.98h-6.46v6.46zm0 0H35.59v-.96-2.27-2.25-.98h-6.46v6.46zm0-6.46H35.59v-.97-2.27-2.25-.98h-6.46v6.46zm0 0H35.59v-.97-2.27-2.25-.98h-6.46v6.46zm0 0H35.59v-.97-2.27-2.25-.98h-6.46v6.46zm0 0H35.59v-.97-2.27-2.25-.98h-6.46v6.46zm6.46-6.49H42.06v-.97-2.26-2.25-.99H35.6V-32.36zm0 0H42.06v-.97-2.26-2.25-.99H35.6V-32.36zm0 0H42.06v-.97-2.26-2.25-.99H35.6V-32.36zm0 0H42.06v-.97-2.26-2.25-.99H35.6V-32.36zm6.47 0H48.53v-.97-2.26-2.25-.99h-6.47V-32.36zm0 0H48.53v-.97-2.26-2.25-.99h-6.47V-32.36zm0 0H48.53v-.97-2.26-2.25-.99h-6.47V-32.36zm0 0H48.53v-.97-2.26-2.25-.99h-6.47V-32.36zm6.47 0H55v-.97-2.26-2.25-.99h-6.47V-32.36zm0 0H55v-.97-2.26-2.25-.99h-6.47V-32.36zm0 0H55v-.97-2.26-2.25-.99h-6.47V-32.36zm0 0H55v-.97-2.26-2.25-.99h-6.47V-32.36zm-35.6-6.47h6.48v-.97-2.26-2.25-.99h-6.47V-38.83zm0 0h6.48v-.97-2.26-2.25-.99h-6.47V-38.83zm0 0h6.48v-.97-2.26-2.25-.99h-6.47V-38.83zm0 0h6.48v-.97-2.26-2.25-.99h-6.47V-38.83zm6.48 0H25.87v-.97-2.26-2.25-.99h-6.46V-38.83zm0 0H25.87v-.97-2.26-2.25-.99h-6.46V-38.83zm0 0H25.87v-.97-2.26-2.25-.99h-6.46V-38.83zm0 0H25.87v-.97-2.26-2.25-.99h-6.46V-38.83zm6.46 0H32.34v-.97-2.26-2.25-.99h-6.46V-38.83zm0 0H32.34v-.97-2.26-2.25-.99h-6.46V-38.83zm0 0H32.34v-.97-2.26-2.25-.99h-6.46V-38.83zm0 0H32.34v-.97-2.26-2.25-.99h-6.46V-38.83zm6.49 0h6.47v-.97-2.26-2.25-.99h-6.47V-38.83zm0 0h6.47v-.97-2.26-2.25-.99h-6.47V-38.83zm0 0h6.47v-.97-2.26-2.25-.99h-6.47V-38.83zm0 0h6.47v-.97-2.26-2.25-.99h-6.47V-38.83zM6.46-45.3h6.48v-.97-2.26-2.25-.99H6.47V-45.3zm0 0h6.48v-.97-2.26-2.25-.99H6.47V-45.3zm0 0h6.48v-.97-2.26-2.25-.99H6.47V-45.3zm0 0h6.48v-.97-2.26-2.25-.99H6.47V-45.3zm32.37 0h6.47v-.97-2.26-2.25-.99h-6.47V-45.3zm0 0h6.47v-.97-2.26-2.25-.99h-6.47V-45.3zm0 0h6.47v-.97-2.26-2.25-.99h-6.47V-45.3zm0 0h6.47v-.97-2.26-2.25-.99h-6.47V-45.3zM6.47-51.77h6.47v-.96V-55v-2.25-.98H6.47v6.46zm0 0h6.47v-.96V-55v-2.25-.98H6.47v6.46zm0 0h6.47v-.96V-55v-2.25-.98H6.47v6.46zm0 0h6.47v-.96V-55v-2.25-.98H6.47v6.46zm6.47 0h6.47v-.96V-55v-2.25-.98h-6.47v6.46zm0 0h6.47v-.96V-55v-2.25-.98h-6.47v6.46zm0 0h6.47v-.96V-55v-2.25-.98h-6.47v6.46zm0 0h6.47v-.96V-55v-2.25-.98h-6.47v6.46zm25.89 0h6.47v-.96V-55v-2.25-.98h-6.47v6.46zm0 0h6.47v-.96V-55v-2.25-.98h-6.47v6.46zm0 0h6.47v-.96V-55v-2.25-.98h-6.47v6.46zm0 0h6.47v-.96V-55v-2.25-.98h-6.47v6.46zM29.13-55H35.59v-.97-2.26-2.25-.99h-6.46V-55zm0 0H35.59v-.97-2.26-2.25-.99h-6.46V-55zm0 0H35.59v-.97-2.26-2.25-.99h-6.46V-55zm0 0H35.59v-.97-2.26-2.25-.99h-6.46V-55zm-9.72-3.23H25.87v-.97-2.27-2.25-.98h-6.46V-58.23zm0 0H25.87v-.97-2.27-2.25-.98h-6.46V-58.23zm0 0H25.87v-.97-2.27-2.25-.98h-6.46V-58.23zm0 0H25.87v-.97-2.27-2.25-.98h-6.46V-58.23zm19.42 0h6.47v-.97-2.27-2.25-.98h-6.47V-58.23zm0 0h6.47v-.97-2.27-2.25-.98h-6.47V-58.23zm0 0h6.47v-.97-2.27-2.25-.98h-6.47V-58.23zm0 0h6.47v-.97-2.27-2.25-.98h-6.47V-58.23zM22.64-64.7H29.11v-.97-2.27-2.25-.98h-6.47V-64.7zm0 0H29.11v-.97-2.27-2.25-.98h-6.47V-64.7zm0 0H29.11v-.97-2.27-2.25-.98h-6.47V-64.7zm0 0H29.11v-.97-2.27-2.25-.98h-6.47V-64.7zm6.48 0H35.6v-.97-2.27-2.25-.98h-6.46V-64.7zm0 0H35.6v-.97-2.27-2.25-.98h-6.46V-64.7zm0 0H35.6v-.97-2.27-2.25-.98h-6.46V-64.7zm0 0H35.6v-.97-2.27-2.25-.98h-6.46V-64.7zm6.47 0H42.06v-.97-2.27-2.25-.98H35.6V-64.7zm0 0H42.06v-.97-2.27-2.25-.98H35.6V-64.7zm0 0H42.06v-.97-2.27-2.25-.98H35.6V-64.7zm0 0H42.06v-.97-2.27-2.25-.98H35.6V-64.7zm3.24-6.47h6.47v-.97-2.27-2.25-.98h-6.47V-71.17zm0 0h6.47v-.97-2.27-2.25-.98h-6.47V-71.17zm0 0h6.47v-.97-2.27-2.25-.98h-6.47V-71.17zm0 0h6.47v-.97-2.27-2.25-.98h-6.47V-71.17zm0 0"/></symbol><symbol overflow="visible" id="cb5549c5b"><path d="M3.23 0H9.7v-.97-2.26-2.25-.99H3.23V0zm0 0H9.7v-.97-2.26-2.25-.99H3.23V0zm0 0H9.7v-.97-2.26-2.25-.99H3.23V0zm0 0H9.7v-.97-2.26-2.25-.99H3.23V0zm9.7 0h6.48v-.97-2.26-2.25-.99h-6.47V0zm0 0h6.48v-.97-2.26-2.25-.99h-6.47V0zm0 0h6.48v-.97-2.26-2.25-.99h-6.47V0zm0 0h6.48v-.97-2.26-2.25-.99h-6.47V0zm6.48 0H25.87v-.97-2.26-2.25-.99h-6.46V0zm0 0H25.87v-.97-2.26-2.25-.99h-6.46V0zm0 0H25.87v-.97-2.26-2.25-.99h-6.46V0zm0 0H25.87v-.97-2.26-2.25-.99h-6.46V0zM3.23-6.47H9.7v-.97-2.26-2.25-.99H3.23V-6.47zm0 0H9.7v-.97-2.26-2.25-.99H3.23V-6.47zm0 0H9.7v-.97-2.26-2.25-.99H3.23V-6.47zm0 0H9.7v-.97-2.26-2.25-.99H3.23V-6.47zm16.18 0H25.87v-.97-2.26-2.25-.99h-6.46V-6.47zm0 0H25.87v-.97-2.26-2.25-.99h-6.46V-6.47zm0 0H25.87v-.97-2.26-2.25-.99h-6.46V-6.47zm0 0H25.87v-.97-2.26-2.25-.99h-6.46V-6.47zM0-12.94h6.47v-.97-2.26-2.25-.99H0V-12.94zm0 0h6.47v-.97-2.26-2.25-.99H0V-12.94zm0 0h6.47v-.97-2.26-2.25-.99H0V-12.94zm0 0h6.47v-.97-2.26-2.25-.99H0V-12.94zm6.47 0h6.47v-.97-2.26-2.25-.99H6.47V-12.94zm0 0h6.47v-.97-2.26-2.25-.99H6.47V-12.94zm0 0h6.47v-.97-2.26-2.25-.99H6.47V-12.94zm0 0h6.47v-.97-2.26-2.25-.99H6.47V-12.94zm6.47 0h6.47v-.97-2.26-2.25-.99h-6.47V-12.94zm0 0h6.47v-.97-2.26-2.25-.99h-6.47V-12.94zm0 0h6.47v-.97-2.26-2.25-.99h-6.47V-12.94zm0 0h6.47v-.97-2.26-2.25-.99h-6.47V-12.94zm6.47 0H25.87v-.97-2.26-2.25-.99h-6.46V-12.94zm0 0H25.87v-.97-2.26-2.25-.99h-6.46V-12.94zm0 0H25.87v-.97-2.26-2.25-.99h-6.46V-12.94zm0 0H25.87v-.97-2.26-2.25-.99h-6.46V-12.94zm6.46-6.47H32.34v-.96-2.27-2.25-.98h-6.46v6.46zm0 0H32.34v-.96-2.27-2.25-.98h-6.46v6.46zm0 0H32.34v-.96-2.27-2.25-.98h-6.46v6.46zm0 0H32.34v-.96-2.27-2.25-.98h-6.46v6.46zm0-6.46H32.34v-.97-2.27-2.25-.98h-6.46v6.46zm0 0H32.34v-.97-2.27-2.25-.98h-6.46v6.46zm0 0H32.34v-.97-2.27-2.25-.98h-6.46v6.46zm0 0H32.34v-.97-2.27-2.25-.98h-6.46v6.46zM0-32.37h6.47v-.97-2.26-2.25-.99H0V-32.36zm0 0h6.47v-.97-2.26-2.25-.99H0V-32.36zm0 0h6.47v-.97-2.26-2.25-.99H0V-32.36zm0 0h6.47v-.97-2.26-2.25-.99H0V-32.36zm6.47 0h6.47v-.97-2.26-2.25-.99H6.47V-32.36zm0 0h6.47v-.97-2.26-2.25-.99H6.47V-32.36zm0 0h6.47v-.97-2.26-2.25-.99H6.47V-32.36zm0 0h6.47v-.97-2.26-2.25-.99H6.47V-32.36zm6.47 0h6.47v-.97-2.26-2.25-.99h-6.47V-32.36zm0 0h6.47v-.97-2.26-2.25-.99h-6.47V-32.36zm0 0h6.47v-.97-2.26-2.25-.99h-6.47V-32.36zm0 0h6.47v-.97-2.26-2.25-.99h-6.47V-32.36zm6.47 0H25.87v-.97-2.26-2.25-.99h-6.46V-32.36zm0 0H25.87v-.97-2.26-2.25-.99h-6.46V-32.36zm0 0H25.87v-.97-2.26-2.25-.99h-6.46V-32.36zm0 0H25.87v-.97-2.26-2.25-.99h-6.46V-32.36zm6.46 0H32.34v-.97-2.26-2.25-.99h-6.46V-32.36zm0 0H32.34v-.97-2.26-2.25-.99h-6.46V-32.36zm0 0H32.34v-.97-2.26-2.25-.99h-6.46V-32.36zm0 0H32.34v-.97-2.26-2.25-.99h-6.46V-32.36zm0-6.47H32.34v-.97-2.26-2.25-.99h-6.46V-38.83zm0 0H32.34v-.97-2.26-2.25-.99h-6.46V-38.83zm0 0H32.34v-.97-2.26-2.25-.99h-6.46V-38.83zm0 0H32.34v-.97-2.26-2.25-.99h-6.46V-38.83zm0-6.47H32.34v-.97-2.26-2.25-.99h-6.46V-45.3zm0 0H32.34v-.97-2.26-2.25-.99h-6.46V-45.3zm0 0H32.34v-.97-2.26-2.25-.99h-6.46V-45.3zm0 0H32.34v-.97-2.26-2.25-.99h-6.46V-45.3zm0-6.47H32.34v-.96V-55v-2.25-.98h-6.46v6.46zm0 0H32.34v-.96V-55v-2.25-.98h-6.46v6.46zm0 0H32.34v-.96V-55v-2.25-.98h-6.46v6.46zm0 0H32.34v-.96V-55v-2.25-.98h-6.46v6.46zm6.49-6.46h6.47v-.97-2.27-2.25-.98h-6.47V-58.23zm0 0h6.47v-.97-2.27-2.25-.98h-6.47V-58.23zm0 0h6.47v-.97-2.27-2.25-.98h-6.47V-58.23zm0 0h6.47v-.97-2.27-2.25-.98h-6.47V-58.23zm0 0"/></symbol><symbol overflow="visible" id="cb5549c5c"><path d="M12.94 0h6.47v-.97-2.26-2.25-.99h-6.47V0zm0 0h6.47v-.97-2.26-2.25-.99h-6.47V0zm0 0h6.47v-.97-2.26-2.25-.99h-6.47V0zm0 0h6.47v-.97-2.26-2.25-.99h-6.47V0zm6.47 0H25.87v-.97-2.26-2.25-.99h-6.46V0zm0 0H25.87v-.97-2.26-2.25-.99h-6.46V0zm0 0H25.87v-.97-2.26-2.25-.99h-6.46V0zm0 0H25.87v-.97-2.26-2.25-.99h-6.46V0zm9.71 0H35.6v-.97-2.26-2.25-.99h-6.46V0zm0 0H35.6v-.97-2.26-2.25-.99h-6.46V0zm0 0H35.6v-.97-2.26-2.25-.99h-6.46V0zm0 0H35.6v-.97-2.26-2.25-.99h-6.46V0zM12.95-6.47h6.47v-.97-2.26-2.25-.99h-6.47V-6.47zm0 0h6.47v-.97-2.26-2.25-.99h-6.47V-6.47zm0 0h6.47v-.97-2.26-2.25-.99h-6.47V-6.47zm0 0h6.47v-.97-2.26-2.25-.99h-6.47V-6.47zm16.19 0H35.59v-.97-2.26-2.25-.99h-6.46V-6.47zm0 0H35.59v-.97-2.26-2.25-.99h-6.46V-6.47zm0 0H35.59v-.97-2.26-2.25-.99h-6.46V-6.47zm0 0H35.59v-.97-2.26-2.25-.99h-6.46V-6.47zm-16.2-6.47h6.48v-.97-2.26-2.25-.99h-6.47V-12.94zm0 0h6.48v-.97-2.26-2.25-.99h-6.47V-12.94zm0 0h6.48v-.97-2.26-2.25-.99h-6.47V-12.94zm0 0h6.48v-.97-2.26-2.25-.99h-6.47V-12.94zm6.48 0H25.87v-.97-2.26-2.25-.99h-6.46V-12.94zm0 0H25.87v-.97-2.26-2.25-.99h-6.46V-12.94zm0 0H25.87v-.97-2.26-2.25-.99h-6.46V-12.94zm0 0H25.87v-.97-2.26-2.25-.99h-6.46V-12.94zm6.46 0H32.34v-.97-2.26-2.25-.99h-6.46V-12.94zm0 0H32.34v-.97-2.26-2.25-.99h-6.46V-12.94zm0 0H32.34v-.97-2.26-2.25-.99h-6.46V-12.94zm0 0H32.34v-.97-2.26-2.25-.99h-6.46V-12.94zm6.49 0h6.47v-.97-2.26-2.25-.99h-6.47V-12.94zm0 0h6.47v-.97-2.26-2.25-.99h-6.47V-12.94zm0 0h6.47v-.97-2.26-2.25-.99h-6.47V-12.94zm0 0h6.47v-.97-2.26-2.25-.99h-6.47V-12.94zM6.46-19.4h6.48v-.96-2.27-2.25-.98H6.47v6.46zm0 0h6.48v-.96-2.27-2.25-.98H6.47v6.46zm0 0h6.48v-.96-2.27-2.25-.98H6.47v6.46zm0 0h6.48v-.96-2.27-2.25-.98H6.47v6.46zm0-6.46h6.48v-.97-2.27-2.25-.98H6.47v6.46zm0 0h6.48v-.97-2.27-2.25-.98H6.47v6.46zm0 0h6.48v-.97-2.27-2.25-.98H6.47v6.46zm0 0h6.48v-.97-2.27-2.25-.98H6.47v6.46zm0-6.49h6.48v-.97-2.26-2.25-.99H6.47V-32.36zm0 0h6.48v-.97-2.26-2.25-.99H6.47V-32.36zm0 0h6.48v-.97-2.26-2.25-.99H6.47V-32.36zm0 0h6.48v-.97-2.26-2.25-.99H6.47V-32.36zm6.48 0h6.47v-.97-2.26-2.25-.99h-6.47V-32.36zm0 0h6.47v-.97-2.26-2.25-.99h-6.47V-32.36zm0 0h6.47v-.97-2.26-2.25-.99h-6.47V-32.36zm0 0h6.47v-.97-2.26-2.25-.99h-6.47V-32.36zm6.47 0H25.87v-.97-2.26-2.25-.99h-6.46V-32.36zm0 0H25.87v-.97-2.26-2.25-.99h-6.46V-32.36zm0 0H25.87v-.97-2.26-2.25-.99h-6.46V-32.36zm0 0H25.87v-.97-2.26-2.25-.99h-6.46V-32.36zm6.46 0H32.34v-.97-2.26-2.25-.99h-6.46V-32.36zm0 0H32.34v-.97-2.26-2.25-.99h-6.46V-32.36zm0 0H32.34v-.97-2.26-2.25-.99h-6.46V-32.36zm0 0H32.34v-.97-2.26-2.25-.99h-6.46V-32.36zm6.49 0h6.47v-.97-2.26-2.25-.99h-6.47V-32.36zm0 0h6.47v-.97-2.26-2.25-.99h-6.47V-32.36zm0 0h6.47v-.97-2.26-2.25-.99h-6.47V-32.36zm0 0h6.47v-.97-2.26-2.25-.99h-6.47V-32.36zm-25.9-6.47h6.48v-.97-2.26-2.25-.99H6.47V-38.83zm0 0h6.48v-.97-2.26-2.25-.99H6.47V-38.83zm0 0h6.48v-.97-2.26-2.25-.99H6.47V-38.83zm0 0h6.48v-.97-2.26-2.25-.99H6.47V-38.83zm0-6.47h6.48v-.97-2.26-2.25-.99H6.47V-45.3zm0 0h6.48v-.97-2.26-2.25-.99H6.47V-45.3zm0 0h6.48v-.97-2.26-2.25-.99H6.47V-45.3zm0 0h6.48v-.97-2.26-2.25-.99H6.47V-45.3zm0-6.47h6.48v-.96V-55v-2.25-.98H6.47v6.46zm0 0h6.48v-.96V-55v-2.25-.98H6.47v6.46zm0 0h6.48v-.96V-55v-2.25-.98H6.47v6.46zm0 0h6.48v-.96V-55v-2.25-.98H6.47v6.46zM0-58.23h6.47v-.97-2.27-2.25-.98H0V-58.23zm0 0h6.47v-.97-2.27-2.25-.98H0V-58.23zm0 0h6.47v-.97-2.27-2.25-.98H0V-58.23zm0 0h6.47v-.97-2.27-2.25-.98H0V-58.23zm0 0"/></symbol><symbol overflow="visible" id="cb5549c5d"><path d="M0-12.94h6.47v-.97-2.26-2.25-.99H0V-12.94zm0 0h6.47v-.97-2.26-2.25-.99H0V-12.94zm0 0h6.47v-.97-2.26-2.25-.99H0V-12.94zm0 0h6.47v-.97-2.26-2.25-.99H0V-12.94zm6.47 0h6.47v-.97-2.26-2.25-.99H6.47V-12.94zm0 0h6.47v-.97-2.26-2.25-.99H6.47V-12.94zm0 0h6.47v-.97-2.26-2.25-.99H6.47V-12.94zm0 0h6.47v-.97-2.26-2.25-.99H6.47V-12.94zm6.47 0h6.47v-.97-2.26-2.25-.99h-6.47V-12.94zm0 0h6.47v-.97-2.26-2.25-.99h-6.47V-12.94zm0 0h6.47v-.97-2.26-2.25-.99h-6.47V-12.94zm0 0h6.47v-.97-2.26-2.25-.99h-6.47V-12.94zM0-32.36h6.47v-.97-2.26-2.25-.99H0V-32.36zm0 0h6.47v-.97-2.26-2.25-.99H0V-32.36zm0 0h6.47v-.97-2.26-2.25-.99H0V-32.36zm0 0h6.47v-.97-2.26-2.25-.99H0V-32.36zm6.47 0h6.47v-.97-2.26-2.25-.99H6.47V-32.36zm0 0h6.47v-.97-2.26-2.25-.99H6.47V-32.36zm0 0h6.47v-.97-2.26-2.25-.99H6.47V-32.36zm0 0h6.47v-.97-2.26-2.25-.99H6.47V-32.36zm6.47 0h6.47v-.97-2.26-2.25-.99h-6.47V-32.36zm0 0h6.47v-.97-2.26-2.25-.99h-6.47V-32.36zm0 0h6.47v-.97-2.26-2.25-.99h-6.47V-32.36zm0 0h6.47v-.97-2.26-2.25-.99h-6.47V-32.36zm0 0"/></symbol><symbol overflow="visible" id="cb5549c5e"><path d="M3.23 0H9.7v-.97-2.26-2.25-.99H3.23V0zm0 0H9.7v-.97-2.26-2.25-.99H3.23V0zm0 0H9.7v-.97-2.26-2.25-.99H3.23V0zm0 0H9.7v-.97-2.26-2.25-.99H3.23V0zm9.7 0h6.48v-.97-2.26-2.25-.99h-6.47V0zm0 0h6.48v-.97-2.26-2.25-.99h-6.47V0zm0 0h6.48v-.97-2.26-2.25-.99h-6.47V0zm0 0h6.48v-.97-2.26-2.25-.99h-6.47V0zm6.48 0H25.87v-.97-2.26-2.25-.99h-6.46V0zm0 0H25.87v-.97-2.26-2.25-.99h-6.46V0zm0 0H25.87v-.97-2.26-2.25-.99h-6.46V0zm0 0H25.87v-.97-2.26-2.25-.99h-6.46V0zM3.23-6.47H9.7v-.97-2.26-2.25-.99H3.23V-6.47zm0 0H9.7v-.97-2.26-2.25-.99H3.23V-6.47zm0 0H9.7v-.97-2.26-2.25-.99H3.23V-6.47zm0 0H9.7v-.97-2.26-2.25-.99H3.23V-6.47zm9.7 0h6.48v-.97-2.26-2.25-.99h-6.47V-6.47zm0 0h6.48v-.97-2.26-2.25-.99h-6.47V-6.47zm0 0h6.48v-.97-2.26-2.25-.99h-6.47V-6.47zm0 0h6.48v-.97-2.26-2.25-.99h-6.47V-6.47zM0-12.94h6.47v-.97-2.26-2.25-.99H0V-12.94zm0 0h6.47v-.97-2.26-2.25-.99H0V-12.94zm0 0h6.47v-.97-2.26-2.25-.99H0V-12.94zm0 0h6.47v-.97-2.26-2.25-.99H0V-12.94zm6.47 0h6.47v-.97-2.26-2.25-.99H6.47V-12.94zm0 0h6.47v-.97-2.26-2.25-.99H6.47V-12.94zm0 0h6.47v-.97-2.26-2.25-.99H6.47V-12.94zm0 0h6.47v-.97-2.26-2.25-.99H6.47V-12.94zm6.47 0h6.47v-.97-2.26-2.25-.99h-6.47V-12.94zm0 0h6.47v-.97-2.26-2.25-.99h-6.47V-12.94zm0 0h6.47v-.97-2.26-2.25-.99h-6.47V-12.94zm0 0h6.47v-.97-2.26-2.25-.99h-6.47V-12.94zm6.47-6.47H25.87v-.96-2.27-2.25-.98h-6.46v6.46zm0 0H25.87v-.96-2.27-2.25-.98h-6.46v6.46zm0 0H25.87v-.96-2.27-2.25-.98h-6.46v6.46zm0 0H25.87v-.96-2.27-2.25-.98h-6.46v6.46zm0-6.46H25.87v-.97-2.27-2.25-.98h-6.46v6.46zm0 0H25.87v-.97-2.27-2.25-.98h-6.46v6.46zm0 0H25.87v-.97-2.27-2.25-.98h-6.46v6.46zm0 0H25.87v-.97-2.27-2.25-.98h-6.46v6.46zM0-32.37h6.47v-.97-2.26-2.25-.99H0V-32.36zm0 0h6.47v-.97-2.26-2.25-.99H0V-32.36zm0 0h6.47v-.97-2.26-2.25-.99H0V-32.36zm0 0h6.47v-.97-2.26-2.25-.99H0V-32.36zm6.47 0h6.47v-.97-2.26-2.25-.99H6.47V-32.36zm0 0h6.47v-.97-2.26-2.25-.99H6.47V-32.36zm0 0h6.47v-.97-2.26-2.25-.99H6.47V-32.36zm0 0h6.47v-.97-2.26-2.25-.99H6.47V-32.36zm6.47 0h6.47v-.97-2.26-2.25-.99h-6.47V-32.36zm0 0h6.47v-.97-2.26-2.25-.99h-6.47V-32.36zm0 0h6.47v-.97-2.26-2.25-.99h-6.47V-32.36zm0 0h6.47v-.97-2.26-2.25-.99h-6.47V-32.36zm3.23-6.47H22.64v-.97-2.26-2.25-.99h-6.47V-38.83zm0 0H22.64v-.97-2.26-2.25-.99h-6.47V-38.83zm0 0H22.64v-.97-2.26-2.25-.99h-6.47V-38.83zm0 0H22.64v-.97-2.26-2.25-.99h-6.47V-38.83zm6.47 0H29.11v-.97-2.26-2.25-.99h-6.47V-38.83zm0 0H29.11v-.97-2.26-2.25-.99h-6.47V-38.83zm0 0H29.11v-.97-2.26-2.25-.99h-6.47V-38.83zm0 0H29.11v-.97-2.26-2.25-.99h-6.47V-38.83zm6.48 0H35.6v-.97-2.26-2.25-.99h-6.46V-38.83zm0 0H35.6v-.97-2.26-2.25-.99h-6.46V-38.83zm0 0H35.6v-.97-2.26-2.25-.99h-6.46V-38.83zm0 0H35.6v-.97-2.26-2.25-.99h-6.46V-38.83zm6.47 0H42.06v-.97-2.26-2.25-.99H35.6V-38.83zm0 0H42.06v-.97-2.26-2.25-.99H35.6V-38.83zm0 0H42.06v-.97-2.26-2.25-.99H35.6V-38.83zm0 0H42.06v-.97-2.26-2.25-.99H35.6V-38.83zM9.7-45.3H16.17v-.97-2.26-2.25-.99H9.7V-45.3zm0 0H16.17v-.97-2.26-2.25-.99H9.7V-45.3zm0 0H16.17v-.97-2.26-2.25-.99H9.7V-45.3zm0 0H16.17v-.97-2.26-2.25-.99H9.7V-45.3zm32.36 0H48.53v-.97-2.26-2.25-.99h-6.47V-45.3zm0 0H48.53v-.97-2.26-2.25-.99h-6.47V-45.3zm0 0H48.53v-.97-2.26-2.25-.99h-6.47V-45.3zm0 0H48.53v-.97-2.26-2.25-.99h-6.47V-45.3zM9.7-51.77H16.17v-.96V-55v-2.25-.98H9.7v6.46zm0 0H16.17v-.96V-55v-2.25-.98H9.7v6.46zm0 0H16.17v-.96V-55v-2.25-.98H9.7v6.46zm0 0H16.17v-.96V-55v-2.25-.98H9.7v6.46zm25.9 0H42.05v-.96V-55v-2.25-.98H35.6v6.46zm0 0H42.05v-.96V-55v-2.25-.98H35.6v6.46zm0 0H42.05v-.96V-55v-2.25-.98H35.6v6.46zm0 0H42.05v-.96V-55v-2.25-.98H35.6v6.46zm6.46 0H48.53v-.96V-55v-2.25-.98h-6.47v6.46zm0 0H48.53v-.96V-55v-2.25-.98h-6.47v6.46zm0 0H48.53v-.96V-55v-2.25-.98h-6.47v6.46zm0 0H48.53v-.96V-55v-2.25-.98h-6.47v6.46zM19.41-55H25.87v-.97-2.26-2.25-.99h-6.46V-55zm0 0H25.87v-.97-2.26-2.25-.99h-6.46V-55zm0 0H25.87v-.97-2.26-2.25-.99h-6.46V-55zm0 0H25.87v-.97-2.26-2.25-.99h-6.46V-55zm-9.7-3.23H16.16v-.97-2.27-2.25-.98H9.7V-58.23zm0 0H16.16v-.97-2.27-2.25-.98H9.7V-58.23zm0 0H16.16v-.97-2.27-2.25-.98H9.7V-58.23zm0 0H16.16v-.97-2.27-2.25-.98H9.7V-58.23zm19.41 0H35.6v-.97-2.27-2.25-.98h-6.46V-58.23zm0 0H35.6v-.97-2.27-2.25-.98h-6.46V-58.23zm0 0H35.6v-.97-2.27-2.25-.98h-6.46V-58.23zm0 0H35.6v-.97-2.27-2.25-.98h-6.46V-58.23zM12.95-64.7h6.47v-.97-2.27-2.25-.98h-6.47V-64.7zm0 0h6.47v-.97-2.27-2.25-.98h-6.47V-64.7zm0 0h6.47v-.97-2.27-2.25-.98h-6.47V-64.7zm0 0h6.47v-.97-2.27-2.25-.98h-6.47V-64.7zm6.47 0H25.87v-.97-2.27-2.25-.98h-6.46V-64.7zm0 0H25.87v-.97-2.27-2.25-.98h-6.46V-64.7zm0 0H25.87v-.97-2.27-2.25-.98h-6.46V-64.7zm0 0H25.87v-.97-2.27-2.25-.98h-6.46V-64.7zm6.46 0H32.34v-.97-2.27-2.25-.98h-6.46V-64.7zm0 0H32.34v-.97-2.27-2.25-.98h-6.46V-64.7zm0 0H32.34v-.97-2.27-2.25-.98h-6.46V-64.7zm0 0H32.34v-.97-2.27-2.25-.98h-6.46V-64.7zM9.7-71.17H16.17v-.97-2.27-2.25-.98H9.7V-71.17zm0 0H16.17v-.97-2.27-2.25-.98H9.7V-71.17zm0 0H16.17v-.97-2.27-2.25-.98H9.7V-71.17zm0 0H16.17v-.97-2.27-2.25-.98H9.7V-71.17zm0 0"/></symbol><symbol overflow="visible" id="cb5549c5f"><path d="M3.83 0v-5.95H6.2v-.82H.45v.82h2.4V0zm0 0"/></symbol><symbol overflow="visible" id="cb5549c5g"><path d="M5.75-2.23v-.43c0-1.6-.9-2.51-2.42-2.51S.87-4.16.87-2.48c0 1.71.91 2.62 2.5 2.62 1.43 0 2.07-.56 2.29-1.52l-.9-.09c-.18.61-.59.9-1.35.9-.94 0-1.52-.54-1.58-1.66zm-2.4-2.2c.93 0 1.43.5 1.48 1.55H1.84c.08-1.07.6-1.56 1.5-1.56zm0 0"/></symbol><symbol overflow="visible" id="cb5549c5h"><path d="M1.83 0l1.42-2h.06l1.46 2H5.8L4-2.53l1.78-2.49H4.8L3.42-3.08h-.08l-1.4-1.94H.89l1.78 2.49L.84 0zm0 0"/></symbol><symbol overflow="visible" id="cb5549c5i"><path d="M5.52-4.25v-.77H3.17v-1.56h-.81l-.14 1.56H.75v.77h1.47v2.4c0 1.3.48 1.94 1.84 1.94C4.6.1 5.14 0 5.55-.14L5.4-.91c-.32.13-.72.2-1.13.2-.8 0-1.1-.37-1.1-1.23v-2.31zm0 0"/></symbol><symbol overflow="visible" id="cb5549c5j"><path d="M3.33-3.42c.47 0 .8-.27.8-.8 0-.51-.33-.8-.8-.8-.47 0-.8.29-.8.8 0 .53.33.8.8.8zm0 3.5c.47 0 .8-.27.8-.78 0-.53-.33-.82-.8-.82-.47 0-.8.29-.8.82 0 .51.33.78.8.78zm0 0"/></symbol><symbol overflow="visible" id="cb5549c5l"><path d="M2.84.14C3.8.14 4.33-.26 4.6-.9h.07L4.8 0h.76v-7.14h-.95v2.95h-.08c-.28-.6-.86-.97-1.67-.97-1.48 0-2.27.99-2.27 2.64C.6-.84 1.36.14 2.84.14zm.22-.8c-.98 0-1.48-.59-1.48-1.84s.5-1.86 1.48-1.86c1.13 0 1.58.8 1.58 1.86S4.2-.66 3.06-.66zm0 0"/></symbol><symbol overflow="visible" id="cb5549c5m"><path d="M3.33.14c1.62 0 2.5-.95 2.5-2.66 0-1.68-.88-2.64-2.5-2.64-1.63 0-2.5.96-2.5 2.64 0 1.7.87 2.66 2.5 2.66zm0-.77c-1.06 0-1.52-.6-1.52-1.89 0-1.28.46-1.87 1.52-1.87 1.08 0 1.53.6 1.53 1.87 0 1.29-.45 1.9-1.53 1.9zm0 0"/></symbol><symbol overflow="visible" id="cb5549c5n"><path d="M3.16 2.03c1.67 0 2.4-.86 2.4-2.51v-4.54h-.81l-.13.91h-.06c-.26-.58-.8-1.05-1.73-1.05-1.42 0-2.24 1-2.24 2.52 0 1.6.75 2.56 2.2 2.56.94 0 1.5-.5 1.77-1.03h.05v.72c0 1.17-.42 1.67-1.45 1.67-.93 0-1.3-.34-1.41-.89L.8.5c.12.96.87 1.54 2.36 1.54zM3.06-.8c-.98 0-1.48-.57-1.48-1.82 0-1.13.5-1.75 1.48-1.75 1.06 0 1.58.76 1.58 1.75 0 .95-.56 1.82-1.58 1.82zm0 0"/></symbol><symbol overflow="visible" id="cb5549c5o"><path d="M5.08-5.16c-.94 0-1.58.43-1.9 1.3h-.09l-.07-1.16H1.05v.77h1.1v3.48H.96V0h3.96v-.77H3.1v-1.46c0-1.36.6-2.05 1.83-2.05.4 0 .76.08 1.1.17l.15-.87c-.33-.11-.7-.18-1.11-.18zm0 0"/></symbol><symbol overflow="visible" id="cb5549c5p"><path d="M3.58-5.81c.42 0 .72-.22.72-.67 0-.44-.3-.68-.72-.68-.44 0-.72.24-.72.68 0 .45.28.67.72.67zm.5.8H1.52v.76h1.6v3.48h-1.8V0h4.46v-.77h-1.7zm0 0"/></symbol><symbol overflow="visible" id="cb5549c5q"><path d="M2.16 0v-2.69c0-.98.6-1.6 1.46-1.6.74 0 1.07.4 1.07 1.2V0h.95v-3.31c0-1.17-.56-1.85-1.67-1.85-.9 0-1.44.46-1.75 1.08h-.06v-3.06H1.2V0zm0 0"/></symbol><symbol overflow="visible" id="cb5549c5r"><path d="M5.95-6.77H1.1V0h.99v-2.92H5.3v-.77H2.08v-2.26h3.87zm0 0"/></symbol><symbol overflow="visible" id="cb5549c5s"><path d="M2.83.14c.94 0 1.5-.39 1.81-.95h.08l.1.81h.76v-3.38c0-1.23-.69-1.8-2.13-1.8-1.43 0-2.03.65-2.18 1.6l.93.1c.11-.6.44-.93 1.22-.93.85 0 1.22.32 1.22 1.04v.34l-1.81.2C1.6-2.7 1.1-2.17 1.1-1.28c0 .92.64 1.42 1.72 1.42zm.25-.77c-.67 0-1.02-.28-1.02-.74 0-.44.28-.72 1-.82l1.58-.19v.41c0 .8-.6 1.34-1.56 1.34zm0 0"/></symbol><symbol overflow="visible" id="cb5549c5t"><path d="M2.73.14c.9 0 1.43-.45 1.74-1.08h.06l.13.94h.8v-5.02h-.94v2.7c0 .98-.57 1.62-1.46 1.62-.75 0-1.1-.4-1.1-1.22v-3.1h-.93v3.32c0 1.17.55 1.84 1.7 1.84zm0 0"/></symbol><symbol overflow="visible" id="cb5549c5u"><path d="M4.95-6.77L2.37-3.78H1.9v-2.99H.92V0h.97v-3.08h.49L4.96 0h1.19L3.23-3.5l2.85-3.27zm0 0"/></symbol><symbol overflow="visible" id="cb5549c5v"><path d="M3.36.16c1.4 0 2.2-.6 2.2-1.57 0-.89-.54-1.22-1.47-1.39L3-3c-.67-.14-.86-.33-.86-.73 0-.5.4-.74 1.17-.74.83 0 1.19.27 1.27.8l.9-.05c-.12-1-.8-1.47-2.17-1.47-1.34 0-2.1.53-2.1 1.5 0 .81.45 1.22 1.52 1.44l1.04.2c.56.11.87.24.87.72 0 .52-.45.78-1.28.78-.95 0-1.36-.28-1.42-.87l-.9.06C1.07-.36 1.8.16 3.35.16zm0 0"/></symbol><symbol overflow="visible" id="cb5549c5w"><path d="M1.45-2.95c0 2.56 1.08 4.37 3.67 4.84l.11-.67C3.28.86 2.43-.75 2.43-2.95s.85-3.82 2.8-4.16l-.1-.69c-2.6.49-3.68 2.3-3.68 4.85zm0 0"/></symbol><symbol overflow="visible" id="cb5549c5x"><path d="M1.63 0v-2.9c0-.8.15-1.4.71-1.4.41 0 .55.3.55.88V0h.95v-2.9c0-.8.18-1.4.72-1.4.4 0 .57.3.57.88V0h.95v-3.63c0-.92-.28-1.53-1.11-1.53-.63 0-.95.41-1.1.9h-.06c-.1-.52-.44-.9-1.08-.9-.6 0-.93.41-1.06.9H1.6l-.23-.76H.67V0zm0 0"/></symbol><symbol overflow="visible" id="cb5549c5y"><path d="M3.38-5.9c.12-.5.42-1.04.67-1.41l-.63-.22a4.28 4.28 0 00-1.01 2.39c0 .66.3 1 .9 1 .6 0 .9-.33.9-.9 0-.57-.32-.83-.83-.85zm0 0"/></symbol><symbol overflow="visible" id="cb5549c5z"><path d="M3.3-7.53c-.55 0-.85.3-.85.84 0 .55.36.8.83.8h.03a5.1 5.1 0 01-.69 1.47l.52.23a4.29 4.29 0 001.02-2.4c0-.63-.33-.94-.86-.94zm0 0"/></symbol><symbol overflow="visible" id="cb5549c5A"><path d="M3.34-1.56c-.54 0-.82.31-.82.86 0 .5.3.78.76.78-.08.4-.34.95-.65 1.39l.53.25c.57-.67 1-1.67 1-2.36 0-.6-.3-.92-.82-.92zm0 0"/></symbol><symbol overflow="visible" id="cb5549c5B"><path d="M3.92-7.14H1.36v.76h1.6v5.61H1.15V0H5.7v-.77H3.92zm0 0"/></symbol><symbol overflow="visible" id="cb5549c5C"><path d="M1.45-7.1c1.96.33 2.8 1.94 2.8 4.15 0 2.2-.84 3.8-2.8 4.17l.11.67c2.58-.47 3.67-2.28 3.67-4.84 0-2.55-1.09-4.36-3.67-4.85zm0 0"/></symbol></defs><g fill="#eaf734"><use xlink:href="#cb5549c5a" x="109.11765" y="165"/><use xlink:href="#cb5549c5b" x="164.1176" y="165"/><use xlink:href="#cb5549c5c" x="222.3529" y="165"/><use xlink:href="#cb5549c5d" x="261.1765" y="165"/><use xlink:href="#cb5549c5d" x="280.5882" y="165"/><use xlink:href="#cb5549c5d" x="300" y="165"/><use xlink:href="#cb5549c5d" x="319.4118" y="165"/><use xlink:href="#cb5549c5d" x="338.8235" y="165"/><use xlink:href="#cb5549c5d" x="358.2353" y="165"/><use xlink:href="#cb5549c5d" x="377.6471" y="165"/><use xlink:href="#cb5549c5d" x="397.0588" y="165"/><use xlink:href="#cb5549c5d" x="416.4706" y="165"/><use xlink:href="#cb5549c5e" x="435.8824" y="165"/><use xlink:href="#cb5549c5f" x="203.3333" y="252"/><use xlink:href="#cb5549c5g" x="210.0003" y="252"/><use xlink:href="#cb5549c5h" x="216.6673" y="252"/><use xlink:href="#cb5549c5i" x="223.3343" y="252"/><use xlink:href="#cb5549c5j" x="230.0013" y="252"/><use xlink:href="#cb5549c5k" x="236.6683" y="252"/><use xlink:href="#cb5549c5j" x="243.3353" y="252"/><use xlink:href="#cb5549c5l" x="250.0023" y="252"/><use xlink:href="#cb5549c5m" x="256.6693" y="252"/><use xlink:href="#cb5549c5n" x="263.3363" y="252"/><use xlink:href="#cb5549c5k" x="270.0033" y="252"/><use xlink:href="#cb5549c5j" x="276.6703" y="252"/><use xlink:href="#cb5549c5o" x="283.3373" y="252"/><use xlink:href="#cb5549c5p" x="290.0043" y="252"/><use xlink:href="#cb5549c5n" x="296.6713" y="252"/><use xlink:href="#cb5549c5q" x="303.3383" y="252"/><use xlink:href="#cb5549c5i" x="310.0053" y="252"/><use xlink:href="#cb5549c5l" x="316.6723" y="252"/><use xlink:href="#cb5549c5m" x="323.3393" y="252"/><use xlink:href="#cb5549c5m" x="330.0063" y="252"/><use xlink:href="#cb5549c5m" x="336.6733" y="252"/><use xlink:href="#cb5549c5m" x="343.3403" y="252"/><use xlink:href="#cb5549c5m" x="350.0073" y="252"/><use xlink:href="#cb5549c5m" x="356.6743" y="252"/><use xlink:href="#cb5549c5m" x="363.3413" y="252"/><use xlink:href="#cb5549c5m" x="370.0083" y="252"/><use xlink:href="#cb5549c5m" x="376.6753" y="252"/><use xlink:href="#cb5549c5m" x="383.3423" y="252"/><use xlink:href="#cb5549c5n" x="390.0093" y="252"/><g><use xlink:href="#cb5549c5r" x="156.6667" y="266"/><use xlink:href="#cb5549c5g" x="163.3337" y="266"/><use xlink:href="#cb5549c5s" x="170.0007" y="266"/><use xlink:href="#cb5549c5i" x="176.6677" y="266"/><use xlink:href="#cb5549c5t" x="183.3347" y="266"/><use xlink:href="#cb5549c5o" x="190.0017" y="266"/><use xlink:href="#cb5549c5g" x="196.6687" y="266"/><use xlink:href="#cb5549c5j" x="203.3357" y="266"/><use xlink:href="#cb5549c5k" x="210.0027" y="266"/><use xlink:href="#cb5549c5u" x="216.6697" y="266"/><use xlink:href="#cb5549c5s" x="223.3367" y="266"/><use xlink:href="#cb5549c5v" x="230.0037" y="266"/><use xlink:href="#cb5549c5q" x="236.6707" y="266"/><use xlink:href="#cb5549c5p" x="243.3377" y="266"/><use xlink:href="#cb5549c5l" x="250.0047" y="266"/><use xlink:href="#cb5549c5m" x="256.6717" y="266"/><use xlink:href="#cb5549c5n" x="263.3387" y="266"/><use xlink:href="#cb5549c5k" x="270.0057" y="266"/><use xlink:href="#cb5549c5w" x="276.6727" y="266"/><use xlink:href="#cb5549c5x" x="283.3397" y="266"/><use xlink:href="#cb5549c5m" x="290.0067" y="266"/><use xlink:href="#cb5549c5o" x="296.6737" y="266"/><use xlink:href="#cb5549c5g" x="303.3407" y="266"/><use xlink:href="#cb5549c5k" x="310.0077" y="266"/><use xlink:href="#cb5549c5y" x="316.6747" y="266"/><use xlink:href="#cb5549c5m" x="323.3417" y="266"/><use xlink:href="#cb5549c5z" x="330.0087" y="266"/><use xlink:href="#cb5549c5k" x="336.6757" y="266"/><use xlink:href="#cb5549c5x" x="343.3427" y="266"/><use xlink:href="#cb5549c5m" x="350.0097" y="266"/><use xlink:href="#cb5549c5o" x="356.6767" y="266"/><use xlink:href="#cb5549c5g" x="363.3437" y="266"/><use xlink:href="#cb5549c5k" x="370.0107" y="266"/><use xlink:href="#cb5549c5l" x="376.6777" y="266"/><use xlink:href="#cb5549c5m" x="383.3447" y="266"/><use xlink:href="#cb5549c5n" x="390.0117" y="266"/><use xlink:href="#cb5549c5A" x="396.6787" y="266"/><use xlink:href="#cb5549c5k" x="403.3457" y="266"/><use xlink:href="#cb5549c5l" x="410.0127" y="266"/><use xlink:href="#cb5549c5B" x="416.6797" y="266"/><use xlink:href="#cb5549c5p" x="423.3467" y="266"/><use xlink:href="#cb5549c5n" x="430.0137" y="266"/><use xlink:href="#cb5549c5C" x="436.6807" y="266"/></g></g></svg>