<?xml version='1.0' encoding='UTF-8'?>
<svg xmlns="http://www.w3.org/2000/svg" xmlns:xlink="http://www.w3.org/1999/xlink" width="600px" height="300px" viewBox="0 0 600 300" x="0px" y="0px" enable-background="new 0 0 600 300"><defs><symbol overflow="visible" id="19097f10a"><path d="M6.47 0h6.47v-.97-2.26-2.25-.99H6.47V0zm0 0h6.47v-.97-2.26-2.25-.99H6.47V0zm0 0h6.47v-.97-2.26-2.25-.99H6.47V0zm0 0h6.47v-.97-2.26-2.25-.99H6.47V0zm6.47 0h6.47v-.97-2.26-2.25-.99h-6.47V0zm0 0h6.47v-.97-2.26-2.25-.99h-6.47V0zm0 0h6.47v-.97-2.26-2.25-.99h-6.47V0zm0 0h6.47v-.97-2.26-2.25-.99h-6.47V0zm6.47 0H25.87v-.97-2.26-2.25-.99h-6.46V0zm0 0H25.87v-.97-2.26-2.25-.99h-6.46V0zm0 0H25.87v-.97-2.26-2.25-.99h-6.46V0zm0 0H25.87v-.97-2.26-2.25-.99h-6.46V0zm6.46 0H32.34v-.97-2.26-2.25-.99h-6.46V0zm0 0H32.34v-.97-2.26-2.25-.99h-6.46V0zm0 0H32.34v-.97-2.26-2.25-.99h-6.46V0zm0 0H32.34v-.97-2.26-2.25-.99h-6.46V0zm6.49 0h6.47v-.97-2.26-2.25-.99h-6.47V0zm0 0h6.47v-.97-2.26-2.25-.99h-6.47V0zm0 0h6.47v-.97-2.26-2.25-.99h-6.47V0zm0 0h6.47v-.97-2.26-2.25-.99h-6.47V0zM12.94-6.47h6.47v-.97-2.26-2.25-.99h-6.47V-6.47zm0 0h6.47v-.97-2.26-2.25-.99h-6.47V-6.47zm0 0h6.47v-.97-2.26-2.25-.99h-6.47V-6.47zm0 0h6.47v-.97-2.26-2.25-.99h-6.47V-6.47zm3.23-6.47H22.64v-.97-2.26-2.25-.99h-6.47V-12.94zm0 0H22.64v-.97-2.26-2.25-.99h-6.47V-12.94zm0 0H22.64v-.97-2.26-2.25-.99h-6.47V-12.94zm0 0H22.64v-.97-2.26-2.25-.99h-6.47V-12.94zm3.24-6.47H25.87v-.96-2.27-2.25-.98h-6.46v6.46zm0 0H25.87v-.96-2.27-2.25-.98h-6.46v6.46zm0 0H25.87v-.96-2.27-2.25-.98h-6.46v6.46zm0 0H25.87v-.96-2.27-2.25-.98h-6.46v6.46zm3.23-6.46H29.11v-.97-2.27-2.25-.98h-6.47v6.46zm0 0H29.11v-.97-2.27-2.25-.98h-6.47v6.46zm0 0H29.11v-.97-2.27-2.25-.98h-6.47v6.46zm0 0H29.11v-.97-2.27-2.25-.98h-6.47v6.46zm3.23-6.49H32.34v-.97-2.26-2.25-.99h-6.46V-32.36zm0 0H32.34v-.97-2.26-2.25-.99h-6.46V-32.36zm0 0H32.34v-.97-2.26-2.25-.99h-6.46V-32.36zm0 0H32.34v-.97-2.26-2.25-.99h-6.46V-32.36zm3.25-6.47H35.6v-.97-2.26-2.25-.99h-6.46V-38.83zm0 0H35.6v-.97-2.26-2.25-.99h-6.46V-38.83zm0 0H35.6v-.97-2.26-2.25-.99h-6.46V-38.83zm0 0H35.6v-.97-2.26-2.25-.99h-6.46V-38.83zM6.48-45.3h6.47v-.97-2.26-2.25-.99H6.47V-45.3zm0 0h6.47v-.97-2.26-2.25-.99H6.47V-45.3zm0 0h6.47v-.97-2.26-2.25-.99H6.47V-45.3zm0 0h6.47v-.97-2.26-2.25-.99H6.47V-45.3zm25.89 0h6.47v-.97-2.26-2.25-.99h-6.47V-45.3zm0 0h6.47v-.97-2.26-2.25-.99h-6.47V-45.3zm0 0h6.47v-.97-2.26-2.25-.99h-6.47V-45.3zm0 0h6.47v-.97-2.26-2.25-.99h-6.47V-45.3zm-25.9-6.47h6.48v-.96V-55v-2.25-.98H6.47v6.46zm0 0h6.48v-.96V-55v-2.25-.98H6.47v6.46zm0 0h6.48v-.96V-55v-2.25-.98H6.47v6.46zm0 0h6.48v-.96V-55v-2.25-.98H6.47v6.46zm25.9 0h6.47v-.96V-55v-2.25-.98h-6.47v6.46zm0 0h6.47v-.96V-55v-2.25-.98h-6.47v6.46zm0 0h6.47v-.96V-55v-2.25-.98h-6.47v6.46zm0 0h6.47v-.96V-55v-2.25-.98h-6.47v6.46zm-25.9-6.46h6.48v-.97-2.27-2.25-.98H6.47V-58.23zm0 0h6.48v-.97-2.27-2.25-.98H6.47V-58.23zm0 0h6.48v-.97-2.27-2.25-.98H6.47V-58.23zm0 0h6.48v-.97-2.27-2.25-.98H6.47V-58.23zm25.9 0h6.47v-.97-2.27-2.25-.98h-6.47V-58.23zm0 0h6.47v-.97-2.27-2.25-.98h-6.47V-58.23zm0 0h6.47v-.97-2.27-2.25-.98h-6.47V-58.23zm0 0h6.47v-.97-2.27-2.25-.98h-6.47V-58.23zM12.94-64.7h6.47v-.97-2.27-2.25-.98h-6.47V-64.7zm0 0h6.47v-.97-2.27-2.25-.98h-6.47V-64.7zm0 0h6.47v-.97-2.27-2.25-.98h-6.47V-64.7zm0 0h6.47v-.97-2.27-2.25-.98h-6.47V-64.7zm6.47 0H25.87v-.97-2.27-2.25-.98h-6.46V-64.7zm0 0H25.87v-.97-2.27-2.25-.98h-6.46V-64.7zm0 0H25.87v-.97-2.27-2.25-.98h-6.46V-64.7zm0 0H25.87v-.97-2.27-2.25-.98h-6.46V-64.7zm6.46 0H32.34v-.97-2.27-2.25-.98h-6.46V-64.7zm0 0H32.34v-.97-2.27-2.25-.98h-6.46V-64.7zm0 0H32.34v-.97-2.27-2.25-.98h-6.46V-64.7zm0 0H32.34v-.97-2.27-2.25-.98h-6.46V-64.7zm0 0"/></symbol><symbol overflow="visible" id="19097f10b"><path d="M12.94 0h6.47v-.97-2.26-2.25-.99h-6.47V0zm0 0h6.47v-.97-2.26-2.25-.99h-6.47V0zm0 0h6.47v-.97-2.26-2.25-.99h-6.47V0zm0 0h6.47v-.97-2.26-2.25-.99h-6.47V0zm6.47 0H25.87v-.97-2.26-2.25-.99h-6.46V0zm0 0H25.87v-.97-2.26-2.25-.99h-6.46V0zm0 0H25.87v-.97-2.26-2.25-.99h-6.46V0zm0 0H25.87v-.97-2.26-2.25-.99h-6.46V0zm6.46 0H32.34v-.97-2.26-2.25-.99h-6.46V0zm0 0H32.34v-.97-2.26-2.25-.99h-6.46V0zm0 0H32.34v-.97-2.26-2.25-.99h-6.46V0zm0 0H32.34v-.97-2.26-2.25-.99h-6.46V0zM6.48-6.47h6.47v-.97-2.26-2.25-.99H6.47V-6.47zm0 0h6.47v-.97-2.26-2.25-.99H6.47V-6.47zm0 0h6.47v-.97-2.26-2.25-.99H6.47V-6.47zm0 0h6.47v-.97-2.26-2.25-.99H6.47V-6.47zm25.89 0h6.47v-.97-2.26-2.25-.99h-6.47V-6.47zm0 0h6.47v-.97-2.26-2.25-.99h-6.47V-6.47zm0 0h6.47v-.97-2.26-2.25-.99h-6.47V-6.47zm0 0h6.47v-.97-2.26-2.25-.99h-6.47V-6.47zm-25.9-6.47h6.48v-.97-2.26-2.25-.99H6.47V-12.94zm0 0h6.48v-.97-2.26-2.25-.99H6.47V-12.94zm0 0h6.48v-.97-2.26-2.25-.99H6.47V-12.94zm0 0h6.48v-.97-2.26-2.25-.99H6.47V-12.94zm25.9 0h6.47v-.97-2.26-2.25-.99h-6.47V-12.94zm0 0h6.47v-.97-2.26-2.25-.99h-6.47V-12.94zm0 0h6.47v-.97-2.26-2.25-.99h-6.47V-12.94zm0 0h6.47v-.97-2.26-2.25-.99h-6.47V-12.94zm0-6.47h6.47v-.96-2.27-2.25-.98h-6.47v6.46zm0 0h6.47v-.96-2.27-2.25-.98h-6.47v6.46zm0 0h6.47v-.96-2.27-2.25-.98h-6.47v6.46zm0 0h6.47v-.96-2.27-2.25-.98h-6.47v6.46zm0-6.46h6.47v-.97-2.27-2.25-.98h-6.47v6.46zm0 0h6.47v-.97-2.27-2.25-.98h-6.47v6.46zm0 0h6.47v-.97-2.27-2.25-.98h-6.47v6.46zm0 0h6.47v-.97-2.27-2.25-.98h-6.47v6.46zm-25.9-6.49h6.48v-.97-2.26-2.25-.99H6.47V-32.36zm0 0h6.48v-.97-2.26-2.25-.99H6.47V-32.36zm0 0h6.48v-.97-2.26-2.25-.99H6.47V-32.36zm0 0h6.48v-.97-2.26-2.25-.99H6.47V-32.36zm25.9 0h6.47v-.97-2.26-2.25-.99h-6.47V-32.36zm0 0h6.47v-.97-2.26-2.25-.99h-6.47V-32.36zm0 0h6.47v-.97-2.26-2.25-.99h-6.47V-32.36zm0 0h6.47v-.97-2.26-2.25-.99h-6.47V-32.36zm-19.42-3.23h6.47v-.97-2.27-2.25-.98h-6.47V-35.6zm0 0h6.47v-.97-2.27-2.25-.98h-6.47V-35.6zm0 0h6.47v-.97-2.27-2.25-.98h-6.47V-35.6zm0 0h6.47v-.97-2.27-2.25-.98h-6.47V-35.6zm-6.47-3.24h6.47v-.97-2.26-2.25-.99H6.47V-38.83zm0 0h6.47v-.97-2.26-2.25-.99H6.47V-38.83zm0 0h6.47v-.97-2.26-2.25-.99H6.47V-38.83zm0 0h6.47v-.97-2.26-2.25-.99H6.47V-38.83zm12.94 0H25.87v-.97-2.26-2.25-.99h-6.46V-38.83zm0 0H25.87v-.97-2.26-2.25-.99h-6.46V-38.83zm0 0H25.87v-.97-2.26-2.25-.99h-6.46V-38.83zm0 0H25.87v-.97-2.26-2.25-.99h-6.46V-38.83zm6.46 0H32.34v-.97-2.26-2.25-.99h-6.46V-38.83zm0 0H32.34v-.97-2.26-2.25-.99h-6.46V-38.83zm0 0H32.34v-.97-2.26-2.25-.99h-6.46V-38.83zm0 0H32.34v-.97-2.26-2.25-.99h-6.46V-38.83zM6.48-45.3h6.47v-.97-2.26-2.25-.99H6.47V-45.3zm0 0h6.47v-.97-2.26-2.25-.99H6.47V-45.3zm0 0h6.47v-.97-2.26-2.25-.99H6.47V-45.3zm0 0h6.47v-.97-2.26-2.25-.99H6.47V-45.3zm0-6.47h6.47v-.96V-55v-2.25-.98H6.47v6.46zm0 0h6.47v-.96V-55v-2.25-.98H6.47v6.46zm0 0h6.47v-.96V-55v-2.25-.98H6.47v6.46zm0 0h6.47v-.96V-55v-2.25-.98H6.47v6.46zm0-6.46h6.47v-.97-2.27-2.25-.98H6.47V-58.23zm0 0h6.47v-.97-2.27-2.25-.98H6.47V-58.23zm0 0h6.47v-.97-2.27-2.25-.98H6.47V-58.23zm0 0h6.47v-.97-2.27-2.25-.98H6.47V-58.23zm0-6.47h6.47v-.97-2.27-2.25-.98H6.47V-64.7zm0 0h6.47v-.97-2.27-2.25-.98H6.47V-64.7zm0 0h6.47v-.97-2.27-2.25-.98H6.47V-64.7zm0 0h6.47v-.97-2.27-2.25-.98H6.47V-64.7zm6.47 0h6.47v-.97-2.27-2.25-.98h-6.47V-64.7zm0 0h6.47v-.97-2.27-2.25-.98h-6.47V-64.7zm0 0h6.47v-.97-2.27-2.25-.98h-6.47V-64.7zm0 0h6.47v-.97-2.27-2.25-.98h-6.47V-64.7zm6.47 0H25.87v-.97-2.27-2.25-.98h-6.46V-64.7zm0 0H25.87v-.97-2.27-2.25-.98h-6.46V-64.7zm0 0H25.87v-.97-2.27-2.25-.98h-6.46V-64.7zm0 0H25.87v-.97-2.27-2.25-.98h-6.46V-64.7zm6.46 0H32.34v-.97-2.27-2.25-.98h-6.46V-64.7zm0 0H32.34v-.97-2.27-2.25-.98h-6.46V-64.7zm0 0H32.34v-.97-2.27-2.25-.98h-6.46V-64.7zm0 0H32.34v-.97-2.27-2.25-.98h-6.46V-64.7zm6.49 0h6.47v-.97-2.27-2.25-.98h-6.47V-64.7zm0 0h6.47v-.97-2.27-2.25-.98h-6.47V-64.7zm0 0h6.47v-.97-2.27-2.25-.98h-6.47V-64.7zm0 0h6.47v-.97-2.27-2.25-.98h-6.47V-64.7zm0 0"/></symbol><symbol overflow="visible" id="19097f10d"><path d="M12.94-45.3h6.47v-.97-2.26-2.25-.99h-6.47V-45.3zm0 0h6.47v-.97-2.26-2.25-.99h-6.47V-45.3zm0 0h6.47v-.97-2.26-2.25-.99h-6.47V-45.3zm0 0h6.47v-.97-2.26-2.25-.99h-6.47V-45.3zm6.47 0H25.87v-.97-2.26-2.25-.99h-6.46V-45.3zm0 0H25.87v-.97-2.26-2.25-.99h-6.46V-45.3zm0 0H25.87v-.97-2.26-2.25-.99h-6.46V-45.3zm0 0H25.87v-.97-2.26-2.25-.99h-6.46V-45.3zm6.46-3.23H32.34v-.97-2.27-2.25-.98h-6.46V-48.53zm0 0H32.34v-.97-2.27-2.25-.98h-6.46V-48.53zm0 0H32.34v-.97-2.27-2.25-.98h-6.46V-48.53zm0 0H32.34v-.97-2.27-2.25-.98h-6.46V-48.53zM16.18-55H22.64v-.97-2.26-2.25-.99h-6.47V-55zm0 0H22.64v-.97-2.26-2.25-.99h-6.47V-55zm0 0H22.64v-.97-2.26-2.25-.99h-6.47V-55zm0 0H22.64v-.97-2.26-2.25-.99h-6.47V-55zm6.47 0H29.11v-.97-2.26-2.25-.99h-6.47V-55zm0 0H29.11v-.97-2.26-2.25-.99h-6.47V-55zm0 0H29.11v-.97-2.26-2.25-.99h-6.47V-55zm0 0H29.11v-.97-2.26-2.25-.99h-6.47V-55zm3.23-6.47H32.34v-.97-2.26-2.25-.99h-6.46V-61.47zm0 0H32.34v-.97-2.26-2.25-.99h-6.46V-61.47zm0 0H32.34v-.97-2.26-2.25-.99h-6.46V-61.47zm0 0H32.34v-.97-2.26-2.25-.99h-6.46V-61.47zM12.95-64.7h6.47v-.97-2.27-2.25-.98h-6.47V-64.7zm0 0h6.47v-.97-2.27-2.25-.98h-6.47V-64.7zm0 0h6.47v-.97-2.27-2.25-.98h-6.47V-64.7zm0 0h6.47v-.97-2.27-2.25-.98h-6.47V-64.7zm6.47 0H25.87v-.97-2.27-2.25-.98h-6.46V-64.7zm0 0H25.87v-.97-2.27-2.25-.98h-6.46V-64.7zm0 0H25.87v-.97-2.27-2.25-.98h-6.46V-64.7zm0 0H25.87v-.97-2.27-2.25-.98h-6.46V-64.7zM0-32.36h6.47v-.97-2.26-2.25-.99H0V-32.36zm0 0h6.47v-.97-2.26-2.25-.99H0V-32.36zm0 0h6.47v-.97-2.26-2.25-.99H0V-32.36zm0 0h6.47v-.97-2.26-2.25-.99H0V-32.36zm6.47 0h6.47v-.97-2.26-2.25-.99H6.47V-32.36zm0 0h6.47v-.97-2.26-2.25-.99H6.47V-32.36zm0 0h6.47v-.97-2.26-2.25-.99H6.47V-32.36zm0 0h6.47v-.97-2.26-2.25-.99H6.47V-32.36zm6.47 0h6.47v-.97-2.26-2.25-.99h-6.47V-32.36zm0 0h6.47v-.97-2.26-2.25-.99h-6.47V-32.36zm0 0h6.47v-.97-2.26-2.25-.99h-6.47V-32.36zm0 0h6.47v-.97-2.26-2.25-.99h-6.47V-32.36zm6.47 0H25.87v-.97-2.26-2.25-.99h-6.46V-32.36zm0 0H25.87v-.97-2.26-2.25-.99h-6.46V-32.36zm0 0H25.87v-.97-2.26-2.25-.99h-6.46V-32.36zm0 0H25.87v-.97-2.26-2.25-.99h-6.46V-32.36zm6.46 0H32.34v-.97-2.26-2.25-.99h-6.46V-32.36zm0 0H32.34v-.97-2.26-2.25-.99h-6.46V-32.36zm0 0H32.34v-.97-2.26-2.25-.99h-6.46V-32.36zm0 0H32.34v-.97-2.26-2.25-.99h-6.46V-32.36zm6.49 0h6.47v-.97-2.26-2.25-.99h-6.47V-32.36zm0 0h6.47v-.97-2.26-2.25-.99h-6.47V-32.36zm0 0h6.47v-.97-2.26-2.25-.99h-6.47V-32.36zm0 0h6.47v-.97-2.26-2.25-.99h-6.47V-32.36zm6.47 0h6.47v-.97-2.26-2.25-.99h-6.47V-32.36zm0 0h6.47v-.97-2.26-2.25-.99h-6.47V-32.36zm0 0h6.47v-.97-2.26-2.25-.99h-6.47V-32.36zm0 0h6.47v-.97-2.26-2.25-.99h-6.47V-32.36zM22.64 0H29.11v-.97-2.26-2.25-.99h-6.47V0zm0 0H29.11v-.97-2.26-2.25-.99h-6.47V0zm0 0H29.11v-.97-2.26-2.25-.99h-6.47V0zm0 0H29.11v-.97-2.26-2.25-.99h-6.47V0zm-9.7-6.47h6.47v-.97-2.26-2.25-.99h-6.47V-6.47zm0 0h6.47v-.97-2.26-2.25-.99h-6.47V-6.47zm0 0h6.47v-.97-2.26-2.25-.99h-6.47V-6.47zm0 0h6.47v-.97-2.26-2.25-.99h-6.47V-6.47zm6.47 0H25.87v-.97-2.26-2.25-.99h-6.46V-6.47zm0 0H25.87v-.97-2.26-2.25-.99h-6.46V-6.47zm0 0H25.87v-.97-2.26-2.25-.99h-6.46V-6.47zm0 0H25.87v-.97-2.26-2.25-.99h-6.46V-6.47zm6.46 0H32.34v-.97-2.26-2.25-.99h-6.46V-6.47zm0 0H32.34v-.97-2.26-2.25-.99h-6.46V-6.47zm0 0H32.34v-.97-2.26-2.25-.99h-6.46V-6.47zm0 0H32.34v-.97-2.26-2.25-.99h-6.46V-6.47zm-9.7-6.47H22.64v-.97-2.26-2.25-.99h-6.47V-12.94zm0 0H22.64v-.97-2.26-2.25-.99h-6.47V-12.94zm0 0H22.64v-.97-2.26-2.25-.99h-6.47V-12.94zm0 0H22.64v-.97-2.26-2.25-.99h-6.47V-12.94zm3.24-6.47H25.87v-.96-2.27-2.25-.98h-6.46v6.46zm0 0H25.87v-.96-2.27-2.25-.98h-6.46v6.46zm0 0H25.87v-.96-2.27-2.25-.98h-6.46v6.46zm0 0H25.87v-.96-2.27-2.25-.98h-6.46v6.46zm0 0"/></symbol><symbol overflow="visible" id="19097f10g"><path d="M19.4-45.3H25.88v-.97-2.26-2.25-.99h-6.46V-45.3zm0 0H25.88v-.97-2.26-2.25-.99h-6.46V-45.3zm0 0H25.88v-.97-2.26-2.25-.99h-6.46V-45.3zm0 0H25.88v-.97-2.26-2.25-.99h-6.46V-45.3zm0-6.47H25.88v-.96V-55v-2.25-.98h-6.46v6.46zm0 0H25.88v-.96V-55v-2.25-.98h-6.46v6.46zm0 0H25.88v-.96V-55v-2.25-.98h-6.46v6.46zm0 0H25.88v-.96V-55v-2.25-.98h-6.46v6.46zm0-6.46H25.88v-.97-2.27-2.25-.98h-6.46V-58.23zm0 0H25.88v-.97-2.27-2.25-.98h-6.46V-58.23zm0 0H25.88v-.97-2.27-2.25-.98h-6.46V-58.23zm0 0H25.88v-.97-2.27-2.25-.98h-6.46V-58.23zm-6.46-3.24h6.47v-.97-2.26-2.25-.99h-6.47V-61.47zm0 0h6.47v-.97-2.26-2.25-.99h-6.47V-61.47zm0 0h6.47v-.97-2.26-2.25-.99h-6.47V-61.47zm0 0h6.47v-.97-2.26-2.25-.99h-6.47V-61.47zm6.47-3.23H25.87v-.97-2.27-2.25-.98h-6.46V-64.7zm0 0H25.87v-.97-2.27-2.25-.98h-6.46V-64.7zm0 0H25.87v-.97-2.27-2.25-.98h-6.46V-64.7zm0 0H25.87v-.97-2.27-2.25-.98h-6.46V-64.7zm0 0"/></symbol><symbol overflow="visible" id="19097f10h"><path d="M12.94-45.3h6.47v-.97-2.26-2.25-.99h-6.47V-45.3zm0 0h6.47v-.97-2.26-2.25-.99h-6.47V-45.3zm0 0h6.47v-.97-2.26-2.25-.99h-6.47V-45.3zm0 0h6.47v-.97-2.26-2.25-.99h-6.47V-45.3zm6.47 0H25.87v-.97-2.26-2.25-.99h-6.46V-45.3zm0 0H25.87v-.97-2.26-2.25-.99h-6.46V-45.3zm0 0H25.87v-.97-2.26-2.25-.99h-6.46V-45.3zm0 0H25.87v-.97-2.26-2.25-.99h-6.46V-45.3zm6.46 0H32.34v-.97-2.26-2.25-.99h-6.46V-45.3zm0 0H32.34v-.97-2.26-2.25-.99h-6.46V-45.3zm0 0H32.34v-.97-2.26-2.25-.99h-6.46V-45.3zm0 0H32.34v-.97-2.26-2.25-.99h-6.46V-45.3zm-6.46-6.47H25.87v-.96V-55v-2.25-.98h-6.46v6.46zm0 0H25.87v-.96V-55v-2.25-.98h-6.46v6.46zm0 0H25.87v-.96V-55v-2.25-.98h-6.46v6.46zm0 0H25.87v-.96V-55v-2.25-.98h-6.46v6.46zM25.87-55H32.34v-.97-2.26-2.25-.99h-6.46V-55zm0 0H32.34v-.97-2.26-2.25-.99h-6.46V-55zm0 0H32.34v-.97-2.26-2.25-.99h-6.46V-55zm0 0H32.34v-.97-2.26-2.25-.99h-6.46V-55zm-12.93-6.47h6.47v-.97-2.26-2.25-.99h-6.47V-61.47zm0 0h6.47v-.97-2.26-2.25-.99h-6.47V-61.47zm0 0h6.47v-.97-2.26-2.25-.99h-6.47V-61.47zm0 0h6.47v-.97-2.26-2.25-.99h-6.47V-61.47zm12.94 0H32.34v-.97-2.26-2.25-.99h-6.46V-61.47zm0 0H32.34v-.97-2.26-2.25-.99h-6.46V-61.47zm0 0H32.34v-.97-2.26-2.25-.99h-6.46V-61.47zm0 0H32.34v-.97-2.26-2.25-.99h-6.46V-61.47zM19.4-64.7H25.87v-.97-2.27-2.25-.98h-6.46V-64.7zm0 0H25.87v-.97-2.27-2.25-.98h-6.46V-64.7zm0 0H25.87v-.97-2.27-2.25-.98h-6.46V-64.7zm0 0H25.87v-.97-2.27-2.25-.98h-6.46V-64.7zm0 0"/></symbol><symbol overflow="visible" id="19097f10j"><path d="M16.17 0H22.64v-.97-2.26-2.25-.99h-6.47V0zm0 0H22.64v-.97-2.26-2.25-.99h-6.47V0zm0 0H22.64v-.97-2.26-2.25-.99h-6.47V0zm0 0H22.64v-.97-2.26-2.25-.99h-6.47V0zm3.24-6.47H25.87v-.97-2.26-2.25-.99h-6.46V-6.47zm0 0H25.87v-.97-2.26-2.25-.99h-6.46V-6.47zm0 0H25.87v-.97-2.26-2.25-.99h-6.46V-6.47zm0 0H25.87v-.97-2.26-2.25-.99h-6.46V-6.47zm3.23-6.47H29.11v-.97-2.26-2.25-.99h-6.47V-12.94zm0 0H29.11v-.97-2.26-2.25-.99h-6.47V-12.94zm0 0H29.11v-.97-2.26-2.25-.99h-6.47V-12.94zm0 0H29.11v-.97-2.26-2.25-.99h-6.47V-12.94zm-9.7-6.47h6.47v-.96-2.27-2.25-.98h-6.47v6.46zm0 0h6.47v-.96-2.27-2.25-.98h-6.47v6.46zm0 0h6.47v-.96-2.27-2.25-.98h-6.47v6.46zm0 0h6.47v-.96-2.27-2.25-.98h-6.47v6.46zm6.47 0H25.87v-.96-2.27-2.25-.98h-6.46v6.46zm0 0H25.87v-.96-2.27-2.25-.98h-6.46v6.46zm0 0H25.87v-.96-2.27-2.25-.98h-6.46v6.46zm0 0H25.87v-.96-2.27-2.25-.98h-6.46v6.46zm6.46 0H32.34v-.96-2.27-2.25-.98h-6.46v6.46zm0 0H32.34v-.96-2.27-2.25-.98h-6.46v6.46zm0 0H32.34v-.96-2.27-2.25-.98h-6.46v6.46zm0 0H32.34v-.96-2.27-2.25-.98h-6.46v6.46zm0 0"/></symbol><symbol overflow="visible" id="19097f10f"><path d="M12.94 0h6.47v-.97-2.26-2.25-.99h-6.47V0zm0 0h6.47v-.97-2.26-2.25-.99h-6.47V0zm0 0h6.47v-.97-2.26-2.25-.99h-6.47V0zm0 0h6.47v-.97-2.26-2.25-.99h-6.47V0zm6.47 0H25.87v-.97-2.26-2.25-.99h-6.46V0zm0 0H25.87v-.97-2.26-2.25-.99h-6.46V0zm0 0H25.87v-.97-2.26-2.25-.99h-6.46V0zm0 0H25.87v-.97-2.26-2.25-.99h-6.46V0zm6.46 0H32.34v-.97-2.26-2.25-.99h-6.46V0zm0 0H32.34v-.97-2.26-2.25-.99h-6.46V0zm0 0H32.34v-.97-2.26-2.25-.99h-6.46V0zm0 0H32.34v-.97-2.26-2.25-.99h-6.46V0zM6.48-6.47h6.47v-.97-2.26-2.25-.99H6.47V-6.47zm0 0h6.47v-.97-2.26-2.25-.99H6.47V-6.47zm0 0h6.47v-.97-2.26-2.25-.99H6.47V-6.47zm0 0h6.47v-.97-2.26-2.25-.99H6.47V-6.47zm25.89 0h6.47v-.97-2.26-2.25-.99h-6.47V-6.47zm0 0h6.47v-.97-2.26-2.25-.99h-6.47V-6.47zm0 0h6.47v-.97-2.26-2.25-.99h-6.47V-6.47zm0 0h6.47v-.97-2.26-2.25-.99h-6.47V-6.47zm-25.9-6.47h6.48v-.97-2.26-2.25-.99H6.47V-12.94zm0 0h6.48v-.97-2.26-2.25-.99H6.47V-12.94zm0 0h6.48v-.97-2.26-2.25-.99H6.47V-12.94zm0 0h6.48v-.97-2.26-2.25-.99H6.47V-12.94zm25.9 0h6.47v-.97-2.26-2.25-.99h-6.47V-12.94zm0 0h6.47v-.97-2.26-2.25-.99h-6.47V-12.94zm0 0h6.47v-.97-2.26-2.25-.99h-6.47V-12.94zm0 0h6.47v-.97-2.26-2.25-.99h-6.47V-12.94zm0-6.47h6.47v-.96-2.27-2.25-.98h-6.47v6.46zm0 0h6.47v-.96-2.27-2.25-.98h-6.47v6.46zm0 0h6.47v-.96-2.27-2.25-.98h-6.47v6.46zm0 0h6.47v-.96-2.27-2.25-.98h-6.47v6.46zm0-6.46h6.47v-.97-2.27-2.25-.98h-6.47v6.46zm0 0h6.47v-.97-2.27-2.25-.98h-6.47v6.46zm0 0h6.47v-.97-2.27-2.25-.98h-6.47v6.46zm0 0h6.47v-.97-2.27-2.25-.98h-6.47v6.46zm-19.42-6.49h6.47v-.97-2.26-2.25-.99h-6.47V-32.36zm0 0h6.47v-.97-2.26-2.25-.99h-6.47V-32.36zm0 0h6.47v-.97-2.26-2.25-.99h-6.47V-32.36zm0 0h6.47v-.97-2.26-2.25-.99h-6.47V-32.36zm6.47 0H25.87v-.97-2.26-2.25-.99h-6.46V-32.36zm0 0H25.87v-.97-2.26-2.25-.99h-6.46V-32.36zm0 0H25.87v-.97-2.26-2.25-.99h-6.46V-32.36zm0 0H25.87v-.97-2.26-2.25-.99h-6.46V-32.36zm6.46 0H32.34v-.97-2.26-2.25-.99h-6.46V-32.36zm0 0H32.34v-.97-2.26-2.25-.99h-6.46V-32.36zm0 0H32.34v-.97-2.26-2.25-.99h-6.46V-32.36zm0 0H32.34v-.97-2.26-2.25-.99h-6.46V-32.36zm6.49-6.47h6.47v-.97-2.26-2.25-.99h-6.47V-38.83zm0 0h6.47v-.97-2.26-2.25-.99h-6.47V-38.83zm0 0h6.47v-.97-2.26-2.25-.99h-6.47V-38.83zm0 0h6.47v-.97-2.26-2.25-.99h-6.47V-38.83zm0-6.47h6.47v-.97-2.26-2.25-.99h-6.47V-45.3zm0 0h6.47v-.97-2.26-2.25-.99h-6.47V-45.3zm0 0h6.47v-.97-2.26-2.25-.99h-6.47V-45.3zm0 0h6.47v-.97-2.26-2.25-.99h-6.47V-45.3zm-25.9-6.47h6.48v-.96V-55v-2.25-.98H6.47v6.46zm0 0h6.48v-.96V-55v-2.25-.98H6.47v6.46zm0 0h6.48v-.96V-55v-2.25-.98H6.47v6.46zm0 0h6.48v-.96V-55v-2.25-.98H6.47v6.46zm25.9 0h6.47v-.96V-55v-2.25-.98h-6.47v6.46zm0 0h6.47v-.96V-55v-2.25-.98h-6.47v6.46zm0 0h6.47v-.96V-55v-2.25-.98h-6.47v6.46zm0 0h6.47v-.96V-55v-2.25-.98h-6.47v6.46zm-25.9-6.46h6.48v-.97-2.27-2.25-.98H6.47V-58.23zm0 0h6.48v-.97-2.27-2.25-.98H6.47V-58.23zm0 0h6.48v-.97-2.27-2.25-.98H6.47V-58.23zm0 0h6.48v-.97-2.27-2.25-.98H6.47V-58.23zm25.9 0h6.47v-.97-2.27-2.25-.98h-6.47V-58.23zm0 0h6.47v-.97-2.27-2.25-.98h-6.47V-58.23zm0 0h6.47v-.97-2.27-2.25-.98h-6.47V-58.23zm0 0h6.47v-.97-2.27-2.25-.98h-6.47V-58.23zM12.94-64.7h6.47v-.97-2.27-2.25-.98h-6.47V-64.7zm0 0h6.47v-.97-2.27-2.25-.98h-6.47V-64.7zm0 0h6.47v-.97-2.27-2.25-.98h-6.47V-64.7zm0 0h6.47v-.97-2.27-2.25-.98h-6.47V-64.7zm6.47 0H25.87v-.97-2.27-2.25-.98h-6.46V-64.7zm0 0H25.87v-.97-2.27-2.25-.98h-6.46V-64.7zm0 0H25.87v-.97-2.27-2.25-.98h-6.46V-64.7zm0 0H25.87v-.97-2.27-2.25-.98h-6.46V-64.7zm6.46 0H32.34v-.97-2.27-2.25-.98h-6.46V-64.7zm0 0H32.34v-.97-2.27-2.25-.98h-6.46V-64.7zm0 0H32.34v-.97-2.27-2.25-.98h-6.46V-64.7zm0 0H32.34v-.97-2.27-2.25-.98h-6.46V-64.7zm0 0"/></symbol><symbol overflow="visible" id="19097f10i"><path d="M0-32.36h6.47v-.97-2.26-2.25-.99H0V-32.36zm0 0h6.47v-.97-2.26-2.25-.99H0V-32.36zm0 0h6.47v-.97-2.26-2.25-.99H0V-32.36zm0 0h6.47v-.97-2.26-2.25-.99H0V-32.36zm6.47 0h6.47v-.97-2.26-2.25-.99H6.47V-32.36zm0 0h6.47v-.97-2.26-2.25-.99H6.47V-32.36zm0 0h6.47v-.97-2.26-2.25-.99H6.47V-32.36zm0 0h6.47v-.97-2.26-2.25-.99H6.47V-32.36zm6.47 0h6.47v-.97-2.26-2.25-.99h-6.47V-32.36zm0 0h6.47v-.97-2.26-2.25-.99h-6.47V-32.36zm0 0h6.47v-.97-2.26-2.25-.99h-6.47V-32.36zm0 0h6.47v-.97-2.26-2.25-.99h-6.47V-32.36zm6.47 0H25.87v-.97-2.26-2.25-.99h-6.46V-32.36zm0 0H25.87v-.97-2.26-2.25-.99h-6.46V-32.36zm0 0H25.87v-.97-2.26-2.25-.99h-6.46V-32.36zm0 0H25.87v-.97-2.26-2.25-.99h-6.46V-32.36zm6.46 0H32.34v-.97-2.26-2.25-.99h-6.46V-32.36zm0 0H32.34v-.97-2.26-2.25-.99h-6.46V-32.36zm0 0H32.34v-.97-2.26-2.25-.99h-6.46V-32.36zm0 0H32.34v-.97-2.26-2.25-.99h-6.46V-32.36zm6.49 0h6.47v-.97-2.26-2.25-.99h-6.47V-32.36zm0 0h6.47v-.97-2.26-2.25-.99h-6.47V-32.36zm0 0h6.47v-.97-2.26-2.25-.99h-6.47V-32.36zm0 0h6.47v-.97-2.26-2.25-.99h-6.47V-32.36zm6.47 0h6.47v-.97-2.26-2.25-.99h-6.47V-32.36zm0 0h6.47v-.97-2.26-2.25-.99h-6.47V-32.36zm0 0h6.47v-.97-2.26-2.25-.99h-6.47V-32.36zm0 0h6.47v-.97-2.26-2.25-.99h-6.47V-32.36zm0 0"/></symbol><symbol overflow="visible" id="19097f10k"><path d="M3.83 0v-5.95H6.2v-.82H.45v.82h2.4V0zm0 0"/></symbol><symbol overflow="visible" id="19097f10l"><path d="M5.75-2.23v-.43c0-1.6-.9-2.51-2.42-2.51S.87-4.16.87-2.48c0 1.71.91 2.62 2.5 2.62 1.43 0 2.07-.56 2.29-1.52l-.9-.09c-.18.61-.59.9-1.35.9-.94 0-1.52-.54-1.58-1.66zm-2.4-2.2c.93 0 1.43.5 1.48 1.55H1.84c.08-1.07.6-1.56 1.5-1.56zm0 0"/></symbol><symbol overflow="visible" id="19097f10m"><path d="M1.83 0l1.42-2h.06l1.46 2H5.8L4-2.53l1.78-2.49H4.8L3.42-3.08h-.08l-1.4-1.94H.89l1.78 2.49L.84 0zm0 0"/></symbol><symbol overflow="visible" id="19097f10n"><path d="M5.52-4.25v-.77H3.17v-1.56h-.81l-.14 1.56H.75v.77h1.47v2.4c0 1.3.48 1.94 1.84 1.94C4.6.1 5.14 0 5.55-.14L5.4-.91c-.32.13-.72.2-1.13.2-.8 0-1.1-.37-1.1-1.23v-2.31zm0 0"/></symbol><symbol overflow="visible" id="19097f10o"><path d="M3.33-3.42c.47 0 .8-.27.8-.8 0-.51-.33-.8-.8-.8-.47 0-.8.29-.8.8 0 .53.33.8.8.8zm0 3.5c.47 0 .8-.27.8-.78 0-.53-.33-.82-.8-.82-.47 0-.8.29-.8.82 0 .51.33.78.8.78zm0 0"/></symbol><symbol overflow="visible" id="19097f10q"><path d="M5.67 0v-.86H2.14V-.9L3.6-2c1.05-.83 2-1.68 2-2.91 0-1.19-.73-1.99-2.26-1.99-1.66 0-2.3 1.02-2.44 2.33l1 .08c.1-.92.42-1.58 1.44-1.58.87 0 1.26.44 1.26 1.24 0 .9-.8 1.53-1.96 2.53L.83-.81V0zm0 0"/></symbol><symbol overflow="visible" id="19097f10r"><path d="M3.42.14c1.55 0 2.44-.84 2.44-2.33 0-1.45-.83-2.22-2.14-2.22-.75 0-1.28.27-1.67.72H2l.31-2.22h3.11v-.86H1.53l-.45 3.93h.81c.3-.36.9-.79 1.58-.79.92 0 1.44.43 1.44 1.47 0 .99-.54 1.5-1.49 1.5-.83 0-1.28-.32-1.5-1.01l-.95.1C1.07-.46 2 .13 3.42.13zm0 0"/></symbol><symbol overflow="visible" id="19097f10s"><path d="M3.25.14c1.58 0 2.53-.69 2.53-1.95 0-1.19-.92-1.56-1.6-1.61v-.05A1.6 1.6 0 005.6-5.12c0-1.13-.87-1.79-2.3-1.79-1.62 0-2.32.82-2.45 1.88l.97.06c.13-.69.52-1.1 1.47-1.1.86 0 1.35.32 1.35 1.05 0 .86-.6 1.2-1.66 1.2h-.49v.79h.54c1.12 0 1.78.25 1.78 1.14 0 .78-.46 1.22-1.55 1.22-1.06 0-1.48-.4-1.63-1.1l-.98.07C.75-.56 1.56.14 3.25.14zm0 0"/></symbol><symbol overflow="visible" id="19097f10t"><path d="M2.58.95l2.39-8.67h-.9L1.7.95zm0 0"/></symbol><symbol overflow="visible" id="19097f10u"><path d="M5.1 0v-1.47H6v-.81h-.9v-4.49H3.8L.48-2.23v.76h3.66V0zM1.5-2.33l2.6-3.53h.04v3.58H1.5zm0 0"/></symbol><symbol overflow="visible" id="19097f10v"><path d="M4.22-6.77h-.86l-2.03.7v.87c.64-.17 1.26-.38 1.89-.55v4.9H1.03V0h4.9v-.86H4.21zm0 0"/></symbol><symbol overflow="visible" id="19097f10w"><path d="M.92-4.42h.88v-1.49h3.1v.05L2.27 0H3.3l2.64-6v-.77H.92zm0 0"/></symbol><symbol overflow="visible" id="19097f10x"><path d="M5.95-6.77H1.1V0h.99v-2.92H5.3v-.77H2.08v-2.26h3.87zm0 0"/></symbol><symbol overflow="visible" id="19097f10y"><path d="M2.83.14c.94 0 1.5-.39 1.81-.95h.08l.1.81h.76v-3.38c0-1.23-.69-1.8-2.13-1.8-1.43 0-2.03.65-2.18 1.6l.93.1c.11-.6.44-.93 1.22-.93.85 0 1.22.32 1.22 1.04v.34l-1.81.2C1.6-2.7 1.1-2.17 1.1-1.28c0 .92.64 1.42 1.72 1.42zm.25-.77c-.67 0-1.02-.28-1.02-.74 0-.44.28-.72 1-.82l1.58-.19v.41c0 .8-.6 1.34-1.56 1.34zm0 0"/></symbol><symbol overflow="visible" id="19097f10z"><path d="M2.73.14c.9 0 1.43-.45 1.74-1.08h.06l.13.94h.8v-5.02h-.94v2.7c0 .98-.57 1.62-1.46 1.62-.75 0-1.1-.4-1.1-1.22v-3.1h-.93v3.32c0 1.17.55 1.84 1.7 1.84zm0 0"/></symbol><symbol overflow="visible" id="19097f10A"><path d="M5.08-5.16c-.94 0-1.58.43-1.9 1.3h-.09l-.07-1.16H1.05v.77h1.1v3.48H.96V0h3.96v-.77H3.1v-1.46c0-1.36.6-2.05 1.83-2.05.4 0 .76.08 1.1.17l.15-.87c-.33-.11-.7-.18-1.11-.18zm0 0"/></symbol><symbol overflow="visible" id="19097f10B"><path d="M3.34.14c1.43 0 2.13-.66 2.25-1.78l-.89-.1c-.1.7-.5 1.08-1.34 1.08-1.03 0-1.52-.64-1.52-1.84 0-1.23.47-1.86 1.52-1.86.84 0 1.23.36 1.34 1.08l.9-.1c-.13-1.09-.82-1.78-2.26-1.78-1.56 0-2.46.97-2.46 2.66 0 1.66.9 2.64 2.46 2.64zm0 0"/></symbol><symbol overflow="visible" id="19097f10C"><path d="M3.58-5.81c.42 0 .72-.22.72-.67 0-.44-.3-.68-.72-.68-.44 0-.72.24-.72.68 0 .45.28.67.72.67zm.5.8H1.52v.76h1.6v3.48h-1.8V0h4.46v-.77h-1.7zm0 0"/></symbol><symbol overflow="visible" id="19097f10D"><path d="M3.33.14c1.62 0 2.5-.95 2.5-2.66 0-1.68-.88-2.64-2.5-2.64-1.63 0-2.5.96-2.5 2.64 0 1.7.87 2.66 2.5 2.66zm0-.77c-1.06 0-1.52-.6-1.52-1.89 0-1.28.46-1.87 1.52-1.87 1.08 0 1.53.6 1.53 1.87 0 1.29-.45 1.9-1.53 1.9zm0 0"/></symbol><symbol overflow="visible" id="19097f10E"><path d="M2.16 0v-2.67c0-.99.59-1.63 1.46-1.63.74 0 1.07.38 1.07 1.22V0h.95v-3.31c0-1.2-.56-1.85-1.67-1.85-.92 0-1.49.46-1.77 1.08h-.06l-.12-.94H1.2V0zm0 0"/></symbol><symbol overflow="visible" id="19097f10F"><path d="M3.36.16c1.4 0 2.2-.6 2.2-1.57 0-.89-.54-1.22-1.47-1.39L3-3c-.67-.14-.86-.33-.86-.73 0-.5.4-.74 1.17-.74.83 0 1.19.27 1.27.8l.9-.05c-.12-1-.8-1.47-2.17-1.47-1.34 0-2.1.53-2.1 1.5 0 .81.45 1.22 1.52 1.44l1.04.2c.56.11.87.24.87.72 0 .52-.45.78-1.28.78-.95 0-1.36-.28-1.42-.87l-.9.06C1.07-.36 1.8.16 3.35.16zm0 0"/></symbol><symbol overflow="visible" id="19097f10G"><path d="M1.45-2.95c0 2.56 1.08 4.37 3.67 4.84l.11-.67C3.28.86 2.43-.75 2.43-2.95s.85-3.82 2.8-4.16l-.1-.69c-2.6.49-3.68 2.3-3.68 4.85zm0 0"/></symbol><symbol overflow="visible" id="19097f10H"><path d="M4.63-6.5c.45 0 .98.08 1.39.2l.2-.72a5.3 5.3 0 00-1.64-.26c-1.52 0-2.16.56-2.16 1.87v.4H.9v.76h1.53V0h.94v-4.25h2.53v-.77H3.36v-.3c0-.84.33-1.18 1.27-1.18zm0 0"/></symbol><symbol overflow="visible" id="19097f10I"><path d="M1.45-7.1c1.96.33 2.8 1.94 2.8 4.15 0 2.2-.84 3.8-2.8 4.17l.11.67c2.58-.47 3.67-2.28 3.67-4.84 0-2.55-1.09-4.36-3.67-4.85zm0 0"/></symbol></defs><g fill="#eaf734"><g fill-opacity=".1"><use xlink:href="#19097f10a" x="135" y="165"/><use xlink:href="#19097f10b" x="180.298" y="165"/><use xlink:href="#19097f10c" x="225.596" y="165"/></g><use xlink:href="#19097f10d" x="245" y="165"/><g fill-opacity=".1"><use xlink:href="#19097f10e" x="290.2941" y="165"/><use xlink:href="#19097f10f" x="309.7091" y="165"/></g><use xlink:href="#19097f10g" x="374.4118" y="165"/><use xlink:href="#19097f10h" x="419.7059" y="165"/><use xlink:href="#19097f10i" x="374.4118" y="165"/><use xlink:href="#19097f10i" x="419.7098" y="165"/><use xlink:href="#19097f10j" x="397.0588" y="165"/><use xlink:href="#19097f10k" x="236.6667" y="252"/><use xlink:href="#19097f10l" x="243.3337" y="252"/><use xlink:href="#19097f10m" x="250.0007" y="252"/><use xlink:href="#19097f10n" x="256.6677" y="252"/><use xlink:href="#19097f10o" x="263.3347" y="252"/><use xlink:href="#19097f10p" x="270.0017" y="252"/><use xlink:href="#19097f10q" x="276.6687" y="252"/><use xlink:href="#19097f10r" x="283.3357" y="252"/><use xlink:href="#19097f10p" x="290.0027" y="252"/><use xlink:href="#19097f10s" x="296.6697" y="252"/><use xlink:href="#19097f10t" x="303.3367" y="252"/><use xlink:href="#19097f10u" x="310.0037" y="252"/><use xlink:href="#19097f10p" x="316.6707" y="252"/><use xlink:href="#19097f10s" x="323.3377" y="252"/><use xlink:href="#19097f10p" x="330.0047" y="252"/><use xlink:href="#19097f10v" x="336.6717" y="252"/><use xlink:href="#19097f10q" x="343.3387" y="252"/><use xlink:href="#19097f10t" x="350.0057" y="252"/><use xlink:href="#19097f10w" x="356.6727" y="252"/><g><use xlink:href="#19097f10x" x="216.6667" y="266"/><use xlink:href="#19097f10l" x="223.3337" y="266"/><use xlink:href="#19097f10y" x="230.0007" y="266"/><use xlink:href="#19097f10n" x="236.6677" y="266"/><use xlink:href="#19097f10z" x="243.3347" y="266"/><use xlink:href="#19097f10A" x="250.0017" y="266"/><use xlink:href="#19097f10l" x="256.6687" y="266"/><use xlink:href="#19097f10o" x="263.3357" y="266"/><use xlink:href="#19097f10p" x="270.0027" y="266"/><use xlink:href="#19097f10x" x="276.6697" y="266"/><use xlink:href="#19097f10A" x="283.3367" y="266"/><use xlink:href="#19097f10y" x="290.0037" y="266"/><use xlink:href="#19097f10B" x="296.6707" y="266"/><use xlink:href="#19097f10n" x="303.3377" y="266"/><use xlink:href="#19097f10C" x="310.0047" y="266"/><use xlink:href="#19097f10D" x="316.6717" y="266"/><use xlink:href="#19097f10E" x="323.3387" y="266"/><use xlink:href="#19097f10F" x="330.0057" y="266"/><use xlink:href="#19097f10p" x="336.6727" y="266"/><use xlink:href="#19097f10G" x="343.3397" y="266"/><use xlink:href="#19097f10H" x="350.0067" y="266"/><use xlink:href="#19097f10A" x="356.6737" y="266"/><use xlink:href="#19097f10y" x="363.3407" y="266"/><use xlink:href="#19097f10B" x="370.0077" y="266"/><use xlink:href="#19097f10I" x="376.6747" y="266"/></g></g></svg>