<?xml version='1.0' encoding='UTF-8'?>
<svg xmlns="http://www.w3.org/2000/svg" xmlns:xlink="http://www.w3.org/1999/xlink" width="600px" height="300px" viewBox="0 0 600 300" x="0px" y="0px" enable-background="new 0 0 600 300"><defs><symbol overflow="visible" id="37f366f0a"><path d="M25.88-6.47H32.34v-.97-2.26-2.25-.99h-6.46V-6.47zm0 0H32.34v-.97-2.26-2.25-.99h-6.46V-6.47zm0 0H32.34v-.97-2.26-2.25-.99h-6.46V-6.47zm0 0H32.34v-.97-2.26-2.25-.99h-6.46V-6.47zm-6.47-6.47H25.87v-.97-2.26-2.25-.99h-6.46V-12.94zm0 0H25.87v-.97-2.26-2.25-.99h-6.46V-12.94zm0 0H25.87v-.97-2.26-2.25-.99h-6.46V-12.94zm0 0H25.87v-.97-2.26-2.25-.99h-6.46V-12.94zm-6.47-6.47h6.47v-.96-2.27-2.25-.98h-6.47v6.46zm0 0h6.47v-.96-2.27-2.25-.98h-6.47v6.46zm0 0h6.47v-.96-2.27-2.25-.98h-6.47v6.46zm0 0h6.47v-.96-2.27-2.25-.98h-6.47v6.46zm-6.47-6.46h6.47v-.97-2.27-2.25-.98H6.47v6.46zm0 0h6.47v-.97-2.27-2.25-.98H6.47v6.46zm0 0h6.47v-.97-2.27-2.25-.98H6.47v6.46zm0 0h6.47v-.97-2.27-2.25-.98H6.47v6.46zm6.47 0h6.47v-.97-2.27-2.25-.98h-6.47v6.46zm0 0h6.47v-.97-2.27-2.25-.98h-6.47v6.46zm0 0h6.47v-.97-2.27-2.25-.98h-6.47v6.46zm0 0h6.47v-.97-2.27-2.25-.98h-6.47v6.46zm6.47 0H25.87v-.97-2.27-2.25-.98h-6.46v6.46zm0 0H25.87v-.97-2.27-2.25-.98h-6.46v6.46zm0 0H25.87v-.97-2.27-2.25-.98h-6.46v6.46zm0 0H25.87v-.97-2.27-2.25-.98h-6.46v6.46zm6.46 0H32.34v-.97-2.27-2.25-.98h-6.46v6.46zm0 0H32.34v-.97-2.27-2.25-.98h-6.46v6.46zm0 0H32.34v-.97-2.27-2.25-.98h-6.46v6.46zm0 0H32.34v-.97-2.27-2.25-.98h-6.46v6.46zm6.49 0h6.47v-.97-2.27-2.25-.98h-6.47v6.46zm0 0h6.47v-.97-2.27-2.25-.98h-6.47v6.46zm0 0h6.47v-.97-2.27-2.25-.98h-6.47v6.46zm0 0h6.47v-.97-2.27-2.25-.98h-6.47v6.46zm6.47 0h6.47v-.97-2.27-2.25-.98h-6.47v6.46zm0 0h6.47v-.97-2.27-2.25-.98h-6.47v6.46zm0 0h6.47v-.97-2.27-2.25-.98h-6.47v6.46zm0 0h6.47v-.97-2.27-2.25-.98h-6.47v6.46zm6.47 0h6.47v-.97-2.27-2.25-.98H45.3v6.46zm0 0h6.47v-.97-2.27-2.25-.98H45.3v6.46zm0 0h6.47v-.97-2.27-2.25-.98H45.3v6.46zm0 0h6.47v-.97-2.27-2.25-.98H45.3v6.46zm6.47 0H58.23v-.97-2.27-2.25-.98h-6.46v6.46zm0 0H58.23v-.97-2.27-2.25-.98h-6.46v6.46zm0 0H58.23v-.97-2.27-2.25-.98h-6.46v6.46zm0 0H58.23v-.97-2.27-2.25-.98h-6.46v6.46zm6.46 0H64.7v-.97-2.27-2.25-.98h-6.47v6.46zm0 0H64.7v-.97-2.27-2.25-.98h-6.47v6.46zm0 0H64.7v-.97-2.27-2.25-.98h-6.47v6.46zm0 0H64.7v-.97-2.27-2.25-.98h-6.47v6.46zm6.47 0H71.17v-.97-2.27-2.25-.98H64.7v6.46zm0 0H71.17v-.97-2.27-2.25-.98H64.7v6.46zm0 0H71.17v-.97-2.27-2.25-.98H64.7v6.46zm0 0H71.17v-.97-2.27-2.25-.98H64.7v6.46zm6.47 0H77.64v-.97-2.27-2.25-.98h-6.47v6.46zm0 0H77.64v-.97-2.27-2.25-.98h-6.47v6.46zm0 0H77.64v-.97-2.27-2.25-.98h-6.47v6.46zm0 0H77.64v-.97-2.27-2.25-.98h-6.47v6.46zm-58.23-6.49h6.47v-.97-2.26-2.25-.99h-6.47V-32.36zm0 0h6.47v-.97-2.26-2.25-.99h-6.47V-32.36zm0 0h6.47v-.97-2.26-2.25-.99h-6.47V-32.36zm0 0h6.47v-.97-2.26-2.25-.99h-6.47V-32.36zm6.47-6.47H25.87v-.97-2.26-2.25-.99h-6.46V-38.83zm0 0H25.87v-.97-2.26-2.25-.99h-6.46V-38.83zm0 0H25.87v-.97-2.26-2.25-.99h-6.46V-38.83zm0 0H25.87v-.97-2.26-2.25-.99h-6.46V-38.83zm6.46-6.47H32.34v-.97-2.26-2.25-.99h-6.46V-45.3zm0 0H32.34v-.97-2.26-2.25-.99h-6.46V-45.3zm0 0H32.34v-.97-2.26-2.25-.99h-6.46V-45.3zm0 0H32.34v-.97-2.26-2.25-.99h-6.46V-45.3zm0 0"/></symbol><symbol overflow="visible" id="37f366f0b"><path d="M0-25.88h6.47v-.96-2.27-2.25-.98H0v6.46zm0 0h6.47v-.96-2.27-2.25-.98H0v6.46zm0 0h6.47v-.96-2.27-2.25-.98H0v6.46zm0 0h6.47v-.96-2.27-2.25-.98H0v6.46zm6.47 0h6.47v-.96-2.27-2.25-.98H6.47v6.46zm0 0h6.47v-.96-2.27-2.25-.98H6.47v6.46zm0 0h6.47v-.96-2.27-2.25-.98H6.47v6.46zm0 0h6.47v-.96-2.27-2.25-.98H6.47v6.46zm6.47 0h6.47v-.96-2.27-2.25-.98h-6.47v6.46zm0 0h6.47v-.96-2.27-2.25-.98h-6.47v6.46zm0 0h6.47v-.96-2.27-2.25-.98h-6.47v6.46zm0 0h6.47v-.96-2.27-2.25-.98h-6.47v6.46zm6.47 0H25.87v-.96-2.27-2.25-.98h-6.46v6.46zm0 0H25.87v-.96-2.27-2.25-.98h-6.46v6.46zm0 0H25.87v-.96-2.27-2.25-.98h-6.46v6.46zm0 0H25.87v-.96-2.27-2.25-.98h-6.46v6.46zm6.46 0H32.34v-.96-2.27-2.25-.98h-6.46v6.46zm0 0H32.34v-.96-2.27-2.25-.98h-6.46v6.46zm0 0H32.34v-.96-2.27-2.25-.98h-6.46v6.46zm0 0H32.34v-.96-2.27-2.25-.98h-6.46v6.46zm6.49 0h6.47v-.96-2.27-2.25-.98h-6.47v6.46zm0 0h6.47v-.96-2.27-2.25-.98h-6.47v6.46zm0 0h6.47v-.96-2.27-2.25-.98h-6.47v6.46zm0 0h6.47v-.96-2.27-2.25-.98h-6.47v6.46zm6.47 0h6.47v-.96-2.27-2.25-.98h-6.47v6.46zm0 0h6.47v-.96-2.27-2.25-.98h-6.47v6.46zm0 0h6.47v-.96-2.27-2.25-.98h-6.47v6.46zm0 0h6.47v-.96-2.27-2.25-.98h-6.47v6.46zm6.47 0h6.47v-.96-2.27-2.25-.98H45.3v6.46zm0 0h6.47v-.96-2.27-2.25-.98H45.3v6.46zm0 0h6.47v-.96-2.27-2.25-.98H45.3v6.46zm0 0h6.47v-.96-2.27-2.25-.98H45.3v6.46zm0 0"/></symbol><symbol overflow="visible" id="37f366f0c"><path d="M51.77-6.47H58.23v-.97-2.26-2.25-.99h-6.46V-6.47zm0 0H58.23v-.97-2.26-2.25-.99h-6.46V-6.47zm0 0H58.23v-.97-2.26-2.25-.99h-6.46V-6.47zm0 0H58.23v-.97-2.26-2.25-.99h-6.46V-6.47zm6.46-6.47H64.7v-.97-2.26-2.25-.99h-6.47V-12.94zm0 0H64.7v-.97-2.26-2.25-.99h-6.47V-12.94zm0 0H64.7v-.97-2.26-2.25-.99h-6.47V-12.94zm0 0H64.7v-.97-2.26-2.25-.99h-6.47V-12.94zm6.47-6.47H71.17v-.96-2.27-2.25-.98H64.7v6.46zm0 0H71.17v-.96-2.27-2.25-.98H64.7v6.46zm0 0H71.17v-.96-2.27-2.25-.98H64.7v6.46zm0 0H71.17v-.96-2.27-2.25-.98H64.7v6.46zM6.47-25.87h6.47v-.97-2.27-2.25-.98H6.47v6.46zm0 0h6.47v-.97-2.27-2.25-.98H6.47v6.46zm0 0h6.47v-.97-2.27-2.25-.98H6.47v6.46zm0 0h6.47v-.97-2.27-2.25-.98H6.47v6.46zm6.47 0h6.47v-.97-2.27-2.25-.98h-6.47v6.46zm0 0h6.47v-.97-2.27-2.25-.98h-6.47v6.46zm0 0h6.47v-.97-2.27-2.25-.98h-6.47v6.46zm0 0h6.47v-.97-2.27-2.25-.98h-6.47v6.46zm6.47 0H25.87v-.97-2.27-2.25-.98h-6.46v6.46zm0 0H25.87v-.97-2.27-2.25-.98h-6.46v6.46zm0 0H25.87v-.97-2.27-2.25-.98h-6.46v6.46zm0 0H25.87v-.97-2.27-2.25-.98h-6.46v6.46zm6.46 0H32.34v-.97-2.27-2.25-.98h-6.46v6.46zm0 0H32.34v-.97-2.27-2.25-.98h-6.46v6.46zm0 0H32.34v-.97-2.27-2.25-.98h-6.46v6.46zm0 0H32.34v-.97-2.27-2.25-.98h-6.46v6.46zm6.49 0h6.47v-.97-2.27-2.25-.98h-6.47v6.46zm0 0h6.47v-.97-2.27-2.25-.98h-6.47v6.46zm0 0h6.47v-.97-2.27-2.25-.98h-6.47v6.46zm0 0h6.47v-.97-2.27-2.25-.98h-6.47v6.46zm6.47 0h6.47v-.97-2.27-2.25-.98h-6.47v6.46zm0 0h6.47v-.97-2.27-2.25-.98h-6.47v6.46zm0 0h6.47v-.97-2.27-2.25-.98h-6.47v6.46zm0 0h6.47v-.97-2.27-2.25-.98h-6.47v6.46zm6.47 0h6.47v-.97-2.27-2.25-.98H45.3v6.46zm0 0h6.47v-.97-2.27-2.25-.98H45.3v6.46zm0 0h6.47v-.97-2.27-2.25-.98H45.3v6.46zm0 0h6.47v-.97-2.27-2.25-.98H45.3v6.46zm6.47 0H58.23v-.97-2.27-2.25-.98h-6.46v6.46zm0 0H58.23v-.97-2.27-2.25-.98h-6.46v6.46zm0 0H58.23v-.97-2.27-2.25-.98h-6.46v6.46zm0 0H58.23v-.97-2.27-2.25-.98h-6.46v6.46zm6.46 0H64.7v-.97-2.27-2.25-.98h-6.47v6.46zm0 0H64.7v-.97-2.27-2.25-.98h-6.47v6.46zm0 0H64.7v-.97-2.27-2.25-.98h-6.47v6.46zm0 0H64.7v-.97-2.27-2.25-.98h-6.47v6.46zm6.47 0H71.17v-.97-2.27-2.25-.98H64.7v6.46zm0 0H71.17v-.97-2.27-2.25-.98H64.7v6.46zm0 0H71.17v-.97-2.27-2.25-.98H64.7v6.46zm0 0H71.17v-.97-2.27-2.25-.98H64.7v6.46zm6.47 0H77.64v-.97-2.27-2.25-.98h-6.47v6.46zm0 0H77.64v-.97-2.27-2.25-.98h-6.47v6.46zm0 0H77.64v-.97-2.27-2.25-.98h-6.47v6.46zm0 0H77.64v-.97-2.27-2.25-.98h-6.47v6.46zm-6.47-6.49H71.17v-.97-2.26-2.25-.99H64.7V-32.36zm0 0H71.17v-.97-2.26-2.25-.99H64.7V-32.36zm0 0H71.17v-.97-2.26-2.25-.99H64.7V-32.36zm0 0H71.17v-.97-2.26-2.25-.99H64.7V-32.36zm-6.47-6.47H64.7v-.97-2.26-2.25-.99h-6.47V-38.83zm0 0H64.7v-.97-2.26-2.25-.99h-6.47V-38.83zm0 0H64.7v-.97-2.26-2.25-.99h-6.47V-38.83zm0 0H64.7v-.97-2.26-2.25-.99h-6.47V-38.83zm-6.46-6.47H58.23v-.97-2.26-2.25-.99h-6.46V-45.3zm0 0H58.23v-.97-2.26-2.25-.99h-6.46V-45.3zm0 0H58.23v-.97-2.26-2.25-.99h-6.46V-45.3zm0 0H58.23v-.97-2.26-2.25-.99h-6.46V-45.3zm0 0"/></symbol><symbol overflow="visible" id="37f366f0d"><path d="M3.83 0v-5.95H6.2v-.82H.45v.82h2.4V0zm0 0"/></symbol><symbol overflow="visible" id="37f366f0e"><path d="M5.75-2.23v-.43c0-1.6-.9-2.51-2.42-2.51S.87-4.16.87-2.48c0 1.71.91 2.62 2.5 2.62 1.43 0 2.07-.56 2.29-1.52l-.9-.09c-.18.61-.59.9-1.35.9-.94 0-1.52-.54-1.58-1.66zm-2.4-2.2c.93 0 1.43.5 1.48 1.55H1.84c.08-1.07.6-1.56 1.5-1.56zm0 0"/></symbol><symbol overflow="visible" id="37f366f0f"><path d="M1.83 0l1.42-2h.06l1.46 2H5.8L4-2.53l1.78-2.49H4.8L3.42-3.08h-.08l-1.4-1.94H.89l1.78 2.49L.84 0zm0 0"/></symbol><symbol overflow="visible" id="37f366f0g"><path d="M5.52-4.25v-.77H3.17v-1.56h-.81l-.14 1.56H.75v.77h1.47v2.4c0 1.3.48 1.94 1.84 1.94C4.6.1 5.14 0 5.55-.14L5.4-.91c-.32.13-.72.2-1.13.2-.8 0-1.1-.37-1.1-1.23v-2.31zm0 0"/></symbol><symbol overflow="visible" id="37f366f0h"><path d="M3.33-3.42c.47 0 .8-.27.8-.8 0-.51-.33-.8-.8-.8-.47 0-.8.29-.8.8 0 .53.33.8.8.8zm0 3.5c.47 0 .8-.27.8-.78 0-.53-.33-.82-.8-.82-.47 0-.8.29-.8.82 0 .51.33.78.8.78zm0 0"/></symbol><symbol overflow="visible" id="37f366f0j"><path d="M5.28-1.56l-2.94-1.8v-.06l2.94-1.8v-.92L1.31-3.8v.82L5.28-.64zm0 0"/></symbol><symbol overflow="visible" id="37f366f0k"><path d="M5.33-2.2v-.75h-4v.75zm0 0"/></symbol><symbol overflow="visible" id="37f366f0l"><path d="M5.95-6.77H1.1V0h.99v-2.92H5.3v-.77H2.08v-2.26h3.87zm0 0"/></symbol><symbol overflow="visible" id="37f366f0m"><path d="M2.83.14c.94 0 1.5-.39 1.81-.95h.08l.1.81h.76v-3.38c0-1.23-.69-1.8-2.13-1.8-1.43 0-2.03.65-2.18 1.6l.93.1c.11-.6.44-.93 1.22-.93.85 0 1.22.32 1.22 1.04v.34l-1.81.2C1.6-2.7 1.1-2.17 1.1-1.28c0 .92.64 1.42 1.72 1.42zm.25-.77c-.67 0-1.02-.28-1.02-.74 0-.44.28-.72 1-.82l1.58-.19v.41c0 .8-.6 1.34-1.56 1.34zm0 0"/></symbol><symbol overflow="visible" id="37f366f0n"><path d="M2.73.14c.9 0 1.43-.45 1.74-1.08h.06l.13.94h.8v-5.02h-.94v2.7c0 .98-.57 1.62-1.46 1.62-.75 0-1.1-.4-1.1-1.22v-3.1h-.93v3.32c0 1.17.55 1.84 1.7 1.84zm0 0"/></symbol><symbol overflow="visible" id="37f366f0o"><path d="M5.08-5.16c-.94 0-1.58.43-1.9 1.3h-.09l-.07-1.16H1.05v.77h1.1v3.48H.96V0h3.96v-.77H3.1v-1.46c0-1.36.6-2.05 1.83-2.05.4 0 .76.08 1.1.17l.15-.87c-.33-.11-.7-.18-1.11-.18zm0 0"/></symbol><symbol overflow="visible" id="37f366f0p"><path d="M3.42.14C5.1.14 5.9-.69 6.11-2.17l-.95-.1C4.96-1.19 4.5-.69 3.44-.69c-1.27 0-1.81-.94-1.81-2.69s.54-2.7 1.8-2.7c1.09 0 1.5.49 1.73 1.58l.93-.1c-.21-1.46-.95-2.3-2.62-2.3C1.53-6.9.62-5.6.62-3.38c0 2.2.91 3.51 2.8 3.51zm0 0"/></symbol><symbol overflow="visible" id="37f366f0q"><path d="M3.33.14c1.62 0 2.5-.95 2.5-2.66 0-1.68-.88-2.64-2.5-2.64-1.63 0-2.5.96-2.5 2.64 0 1.7.87 2.66 2.5 2.66zm0-.77c-1.06 0-1.52-.6-1.52-1.89 0-1.28.46-1.87 1.52-1.87 1.08 0 1.53.6 1.53 1.87 0 1.29-.45 1.9-1.53 1.9zm0 0"/></symbol><symbol overflow="visible" id="37f366f0r"><path d="M1.63 0v-2.9c0-.8.15-1.4.71-1.4.41 0 .55.3.55.88V0h.95v-2.9c0-.8.18-1.4.72-1.4.4 0 .57.3.57.88V0h.95v-3.63c0-.92-.28-1.53-1.11-1.53-.63 0-.95.41-1.1.9h-.06c-.1-.52-.44-.9-1.08-.9-.6 0-.93.41-1.06.9H1.6l-.23-.76H.67V0zm0 0"/></symbol><symbol overflow="visible" id="37f366f0s"><path d="M3.9.14c1.48 0 2.18-.98 2.18-2.64 0-1.67-.7-2.66-2.17-2.66-.91 0-1.49.41-1.79 1h-.06v-2.98h-.95V0h.81l.11-.9h.06c.29.63.82 1.04 1.82 1.04zm-.32-.8c-1.08 0-1.55-.8-1.55-1.84 0-1.06.47-1.86 1.55-1.86 1.1 0 1.51.61 1.51 1.86S4.64-.66 3.58-.66zm0 0"/></symbol><symbol overflow="visible" id="37f366f0t"><path d="M3.58-5.81c.42 0 .72-.22.72-.67 0-.44-.3-.68-.72-.68-.44 0-.72.24-.72.68 0 .45.28.67.72.67zm.5.8H1.52v.76h1.6v3.48h-1.8V0h4.46v-.77h-1.7zm0 0"/></symbol><symbol overflow="visible" id="37f366f0u"><path d="M2.16 0v-2.67c0-.99.59-1.63 1.46-1.63.74 0 1.07.38 1.07 1.22V0h.95v-3.31c0-1.2-.56-1.85-1.67-1.85-.92 0-1.49.46-1.77 1.08h-.06l-.12-.94H1.2V0zm0 0"/></symbol><symbol overflow="visible" id="37f366f0v"><path d="M3.16 2.03c1.67 0 2.4-.86 2.4-2.51v-4.54h-.81l-.13.91h-.06c-.26-.58-.8-1.05-1.73-1.05-1.42 0-2.24 1-2.24 2.52 0 1.6.75 2.56 2.2 2.56.94 0 1.5-.5 1.77-1.03h.05v.72c0 1.17-.42 1.67-1.45 1.67-.93 0-1.3-.34-1.41-.89L.8.5c.12.96.87 1.54 2.36 1.54zM3.06-.8c-.98 0-1.48-.57-1.48-1.82 0-1.13.5-1.75 1.48-1.75 1.06 0 1.58.76 1.58 1.75 0 .95-.56 1.82-1.58 1.82zm0 0"/></symbol><symbol overflow="visible" id="37f366f0w"><path d="M2.44 0l.87-3.31h.06L4.25 0H5.3l1.03-5.02h-.88l-.73 3.94h-.08L3.77-4.4h-.85l-.87 3.33h-.08l-.75-3.94H.34L1.36 0zm0 0"/></symbol><symbol overflow="visible" id="37f366f0x"><path d="M3.36.16c1.4 0 2.2-.6 2.2-1.57 0-.89-.54-1.22-1.47-1.39L3-3c-.67-.14-.86-.33-.86-.73 0-.5.4-.74 1.17-.74.83 0 1.19.27 1.27.8l.9-.05c-.12-1-.8-1.47-2.17-1.47-1.34 0-2.1.53-2.1 1.5 0 .81.45 1.22 1.52 1.44l1.04.2c.56.11.87.24.87.72 0 .52-.45.78-1.28.78-.95 0-1.36-.28-1.42-.87l-.9.06C1.07-.36 1.8.16 3.35.16zm0 0"/></symbol><symbol overflow="visible" id="37f366f0y"><path d="M1.45-2.95c0 2.56 1.08 4.37 3.67 4.84l.11-.67C3.28.86 2.43-.75 2.43-2.95s.85-3.82 2.8-4.16l-.1-.69c-2.6.49-3.68 2.3-3.68 4.85zm0 0"/></symbol><symbol overflow="visible" id="37f366f0z"><path d="M3.33.14c1.65 0 2.6-1.1 2.6-3.52S4.99-6.9 3.34-6.9C1.67-6.9.72-5.8.72-3.37c0 2.4.95 3.51 2.6 3.51zm0-.84c-1.13 0-1.6-.85-1.6-2.67 0-1.86.47-2.7 1.6-2.7 1.12 0 1.6.84 1.6 2.7 0 1.82-.48 2.67-1.6 2.67zM3.3-2.64c.38 0 .56-.28.56-.72 0-.44-.18-.7-.56-.7-.39 0-.56.26-.56.7 0 .44.17.72.56.72zm0 0"/></symbol><symbol overflow="visible" id="37f366f0A"><path d="M3.42.14c1.58 0 2.49-.86 2.49-2.3 0-1.42-.86-2.17-2.22-2.17-1.03 0-1.58.5-1.9 1.02h-.04c.03-1.63.4-2.77 1.73-2.77.91 0 1.24.44 1.36.96l.97-.11c-.23-.96-.86-1.68-2.33-1.68C1.84-6.9.86-5.86.86-3.1.86-.9 1.78.14 3.42.14zm.02-.78c-.9 0-1.47-.55-1.47-1.47 0-.9.7-1.47 1.53-1.47.92 0 1.47.52 1.47 1.47 0 .97-.6 1.47-1.53 1.47zm0 0"/></symbol><symbol overflow="visible" id="37f366f0B"><path d="M1.45-7.1c1.96.33 2.8 1.94 2.8 4.15 0 2.2-.84 3.8-2.8 4.17l.11.67c2.58-.47 3.67-2.28 3.67-4.84 0-2.55-1.09-4.36-3.67-4.85zm0 0"/></symbol></defs><g fill="#eaf734"><use xlink:href="#37f366f0a" x="92.94118" y="165"/><use xlink:href="#37f366f0a" x="196.4706" y="165"/><use xlink:href="#37f366f0b" x="274.1176" y="165"/><use xlink:href="#37f366f0c" x="319.4118" y="165"/><use xlink:href="#37f366f0c" x="422.9412" y="165"/><use xlink:href="#37f366f0d" x="273.3333" y="252"/><use xlink:href="#37f366f0e" x="280.0003" y="252"/><use xlink:href="#37f366f0f" x="286.6673" y="252"/><use xlink:href="#37f366f0g" x="293.3343" y="252"/><use xlink:href="#37f366f0h" x="300.0013" y="252"/><use xlink:href="#37f366f0i" x="306.6683" y="252"/><use xlink:href="#37f366f0j" x="313.3353" y="252"/><use xlink:href="#37f366f0k" x="320.0023" y="252"/><use xlink:href="#37f366f0i" x="326.6693" y="252"/><g><use xlink:href="#37f366f0l" x="193.3333" y="266"/><use xlink:href="#37f366f0e" x="200.0003" y="266"/><use xlink:href="#37f366f0m" x="206.6673" y="266"/><use xlink:href="#37f366f0g" x="213.3343" y="266"/><use xlink:href="#37f366f0n" x="220.0013" y="266"/><use xlink:href="#37f366f0o" x="226.6683" y="266"/><use xlink:href="#37f366f0e" x="233.3353" y="266"/><use xlink:href="#37f366f0h" x="240.0023" y="266"/><use xlink:href="#37f366f0i" x="246.6693" y="266"/><use xlink:href="#37f366f0p" x="253.3363" y="266"/><use xlink:href="#37f366f0q" x="260.0033" y="266"/><use xlink:href="#37f366f0r" x="266.6703" y="266"/><use xlink:href="#37f366f0s" x="273.3373" y="266"/><use xlink:href="#37f366f0t" x="280.0043" y="266"/><use xlink:href="#37f366f0u" x="286.6713" y="266"/><use xlink:href="#37f366f0t" x="293.3383" y="266"/><use xlink:href="#37f366f0u" x="300.0053" y="266"/><use xlink:href="#37f366f0v" x="306.6723" y="266"/><use xlink:href="#37f366f0i" x="313.3393" y="266"/><use xlink:href="#37f366f0m" x="320.0063" y="266"/><use xlink:href="#37f366f0o" x="326.6733" y="266"/><use xlink:href="#37f366f0o" x="333.3403" y="266"/><use xlink:href="#37f366f0q" x="340.0073" y="266"/><use xlink:href="#37f366f0w" x="346.6743" y="266"/><use xlink:href="#37f366f0x" x="353.3413" y="266"/><use xlink:href="#37f366f0i" x="360.0083" y="266"/><use xlink:href="#37f366f0y" x="366.6753" y="266"/><use xlink:href="#37f366f0x" x="373.3423" y="266"/><use xlink:href="#37f366f0x" x="380.0093" y="266"/><use xlink:href="#37f366f0z" x="386.6763" y="266"/><use xlink:href="#37f366f0A" x="393.3433" y="266"/><use xlink:href="#37f366f0B" x="400.0103" y="266"/></g></g></svg>