<?xml version='1.0' encoding='UTF-8'?>
<svg xmlns="http://www.w3.org/2000/svg" xmlns:xlink="http://www.w3.org/1999/xlink" width="600px" height="300px" viewBox="0 0 600 300" x="0px" y="0px" enable-background="new 0 0 600 300"><defs><symbol overflow="visible" id="8dba7678a"><path d="M19.4 0H25.88v-.97-2.26-2.25-.99h-6.46V0zm0 0H25.88v-.97-2.26-2.25-.99h-6.46V0zm0 0H25.88v-.97-2.26-2.25-.99h-6.46V0zm0 0H25.88v-.97-2.26-2.25-.99h-6.46V0zm6.48 0H32.34v-.97-2.26-2.25-.99h-6.46V0zm0 0H32.34v-.97-2.26-2.25-.99h-6.46V0zm0 0H32.34v-.97-2.26-2.25-.99h-6.46V0zm0 0H32.34v-.97-2.26-2.25-.99h-6.46V0zm12.95 0h6.47v-.97-2.26-2.25-.99h-6.47V0zm0 0h6.47v-.97-2.26-2.25-.99h-6.47V0zm0 0h6.47v-.97-2.26-2.25-.99h-6.47V0zm0 0h6.47v-.97-2.26-2.25-.99h-6.47V0zm6.47 0h6.47v-.97-2.26-2.25-.99H45.3V0zm0 0h6.47v-.97-2.26-2.25-.99H45.3V0zm0 0h6.47v-.97-2.26-2.25-.99H45.3V0zm0 0h6.47v-.97-2.26-2.25-.99H45.3V0zM19.4-6.47H25.88v-.97-2.26-2.25-.99h-6.46V-6.47zm0 0H25.88v-.97-2.26-2.25-.99h-6.46V-6.47zm0 0H25.88v-.97-2.26-2.25-.99h-6.46V-6.47zm0 0H25.88v-.97-2.26-2.25-.99h-6.46V-6.47zm6.48 0H32.34v-.97-2.26-2.25-.99h-6.46V-6.47zm0 0H32.34v-.97-2.26-2.25-.99h-6.46V-6.47zm0 0H32.34v-.97-2.26-2.25-.99h-6.46V-6.47zm0 0H32.34v-.97-2.26-2.25-.99h-6.46V-6.47zm12.95 0h6.47v-.97-2.26-2.25-.99h-6.47V-6.47zm0 0h6.47v-.97-2.26-2.25-.99h-6.47V-6.47zm0 0h6.47v-.97-2.26-2.25-.99h-6.47V-6.47zm0 0h6.47v-.97-2.26-2.25-.99h-6.47V-6.47zm6.47 0h6.47v-.97-2.26-2.25-.99H45.3V-6.47zm0 0h6.47v-.97-2.26-2.25-.99H45.3V-6.47zm0 0h6.47v-.97-2.26-2.25-.99H45.3V-6.47zm0 0h6.47v-.97-2.26-2.25-.99H45.3V-6.47zM19.4-19.4H25.88v-.96-2.27-2.25-.98h-6.46v6.46zm0 0H25.88v-.96-2.27-2.25-.98h-6.46v6.46zm0 0H25.88v-.96-2.27-2.25-.98h-6.46v6.46zm0 0H25.88v-.96-2.27-2.25-.98h-6.46v6.46zm6.48 0H32.34v-.96-2.27-2.25-.98h-6.46v6.46zm0 0H32.34v-.96-2.27-2.25-.98h-6.46v6.46zm0 0H32.34v-.96-2.27-2.25-.98h-6.46v6.46zm0 0H32.34v-.96-2.27-2.25-.98h-6.46v6.46zm12.95 0h6.47v-.96-2.27-2.25-.98h-6.47v6.46zm0 0h6.47v-.96-2.27-2.25-.98h-6.47v6.46zm0 0h6.47v-.96-2.27-2.25-.98h-6.47v6.46zm0 0h6.47v-.96-2.27-2.25-.98h-6.47v6.46zm6.47 0h6.47v-.96-2.27-2.25-.98H45.3v6.46zm0 0h6.47v-.96-2.27-2.25-.98H45.3v6.46zm0 0h6.47v-.96-2.27-2.25-.98H45.3v6.46zm0 0h6.47v-.96-2.27-2.25-.98H45.3v6.46zm-25.9-6.46H25.88v-.97-2.27-2.25-.98h-6.46v6.46zm0 0H25.88v-.97-2.27-2.25-.98h-6.46v6.46zm0 0H25.88v-.97-2.27-2.25-.98h-6.46v6.46zm0 0H25.88v-.97-2.27-2.25-.98h-6.46v6.46zm6.48 0H32.34v-.97-2.27-2.25-.98h-6.46v6.46zm0 0H32.34v-.97-2.27-2.25-.98h-6.46v6.46zm0 0H32.34v-.97-2.27-2.25-.98h-6.46v6.46zm0 0H32.34v-.97-2.27-2.25-.98h-6.46v6.46zm12.95 0h6.47v-.97-2.27-2.25-.98h-6.47v6.46zm0 0h6.47v-.97-2.27-2.25-.98h-6.47v6.46zm0 0h6.47v-.97-2.27-2.25-.98h-6.47v6.46zm0 0h6.47v-.97-2.27-2.25-.98h-6.47v6.46zm6.47 0h6.47v-.97-2.27-2.25-.98H45.3v6.46zm0 0h6.47v-.97-2.27-2.25-.98H45.3v6.46zm0 0h6.47v-.97-2.27-2.25-.98H45.3v6.46zm0 0h6.47v-.97-2.27-2.25-.98H45.3v6.46zm-12.94-6.49h6.47v-.97-2.26-2.25-.99h-6.47V-32.36zm0 0h6.47v-.97-2.26-2.25-.99h-6.47V-32.36zm0 0h6.47v-.97-2.26-2.25-.99h-6.47V-32.36zm0 0h6.47v-.97-2.26-2.25-.99h-6.47V-32.36zM19.4-38.83H25.87v-.97-2.26-2.25-.99h-6.46V-38.83zm0 0H25.87v-.97-2.26-2.25-.99h-6.46V-38.83zm0 0H25.87v-.97-2.26-2.25-.99h-6.46V-38.83zm0 0H25.87v-.97-2.26-2.25-.99h-6.46V-38.83zm6.46 0H32.34v-.97-2.26-2.25-.99h-6.46V-38.83zm0 0H32.34v-.97-2.26-2.25-.99h-6.46V-38.83zm0 0H32.34v-.97-2.26-2.25-.99h-6.46V-38.83zm0 0H32.34v-.97-2.26-2.25-.99h-6.46V-38.83zm12.96 0h6.47v-.97-2.26-2.25-.99h-6.47V-38.83zm0 0h6.47v-.97-2.26-2.25-.99h-6.47V-38.83zm0 0h6.47v-.97-2.26-2.25-.99h-6.47V-38.83zm0 0h6.47v-.97-2.26-2.25-.99h-6.47V-38.83zm6.47 0h6.47v-.97-2.26-2.25-.99H45.3V-38.83zm0 0h6.47v-.97-2.26-2.25-.99H45.3V-38.83zm0 0h6.47v-.97-2.26-2.25-.99H45.3V-38.83zm0 0h6.47v-.97-2.26-2.25-.99H45.3V-38.83zM12.94-45.3h6.47v-.97-2.26-2.25-.99h-6.47V-45.3zm0 0h6.47v-.97-2.26-2.25-.99h-6.47V-45.3zm0 0h6.47v-.97-2.26-2.25-.99h-6.47V-45.3zm0 0h6.47v-.97-2.26-2.25-.99h-6.47V-45.3zm12.94 0H32.34v-.97-2.26-2.25-.99h-6.46V-45.3zm0 0H32.34v-.97-2.26-2.25-.99h-6.46V-45.3zm0 0H32.34v-.97-2.26-2.25-.99h-6.46V-45.3zm0 0H32.34v-.97-2.26-2.25-.99h-6.46V-45.3zm12.95 0h6.47v-.97-2.26-2.25-.99h-6.47V-45.3zm0 0h6.47v-.97-2.26-2.25-.99h-6.47V-45.3zm0 0h6.47v-.97-2.26-2.25-.99h-6.47V-45.3zm0 0h6.47v-.97-2.26-2.25-.99h-6.47V-45.3zm12.94 0H58.23v-.97-2.26-2.25-.99h-6.46V-45.3zm0 0H58.23v-.97-2.26-2.25-.99h-6.46V-45.3zm0 0H58.23v-.97-2.26-2.25-.99h-6.46V-45.3zm0 0H58.23v-.97-2.26-2.25-.99h-6.46V-45.3zM19.4-51.77H25.87v-.96V-55v-2.25-.98h-6.46v6.46zm0 0H25.87v-.96V-55v-2.25-.98h-6.46v6.46zm0 0H25.87v-.96V-55v-2.25-.98h-6.46v6.46zm0 0H25.87v-.96V-55v-2.25-.98h-6.46v6.46zm25.89 0h6.47v-.96V-55v-2.25-.98H45.3v6.46zm0 0h6.47v-.96V-55v-2.25-.98H45.3v6.46zm0 0h6.47v-.96V-55v-2.25-.98H45.3v6.46zm0 0h6.47v-.96V-55v-2.25-.98H45.3v6.46zm0 0"/></symbol><symbol overflow="visible" id="8dba7678b"><path d="M12.94 0h6.47v-.97-2.26-2.25-.99h-6.47V0zm0 0h6.47v-.97-2.26-2.25-.99h-6.47V0zm0 0h6.47v-.97-2.26-2.25-.99h-6.47V0zm0 0h6.47v-.97-2.26-2.25-.99h-6.47V0zm6.47 0H25.87v-.97-2.26-2.25-.99h-6.46V0zm0 0H25.87v-.97-2.26-2.25-.99h-6.46V0zm0 0H25.87v-.97-2.26-2.25-.99h-6.46V0zm0 0H25.87v-.97-2.26-2.25-.99h-6.46V0zm6.46 0H32.34v-.97-2.26-2.25-.99h-6.46V0zm0 0H32.34v-.97-2.26-2.25-.99h-6.46V0zm0 0H32.34v-.97-2.26-2.25-.99h-6.46V0zm0 0H32.34v-.97-2.26-2.25-.99h-6.46V0zm12.96 0h6.47v-.97-2.26-2.25-.99h-6.47V0zm0 0h6.47v-.97-2.26-2.25-.99h-6.47V0zm0 0h6.47v-.97-2.26-2.25-.99h-6.47V0zm0 0h6.47v-.97-2.26-2.25-.99h-6.47V0zm6.47 0h6.47v-.97-2.26-2.25-.99H45.3V0zm0 0h6.47v-.97-2.26-2.25-.99H45.3V0zm0 0h6.47v-.97-2.26-2.25-.99H45.3V0zm0 0h6.47v-.97-2.26-2.25-.99H45.3V0zm6.47 0H58.23v-.97-2.26-2.25-.99h-6.46V0zm0 0H58.23v-.97-2.26-2.25-.99h-6.46V0zm0 0H58.23v-.97-2.26-2.25-.99h-6.46V0zm0 0H58.23v-.97-2.26-2.25-.99h-6.46V0zM12.94-6.47h6.47v-.97-2.26-2.25-.99h-6.47V-6.47zm0 0h6.47v-.97-2.26-2.25-.99h-6.47V-6.47zm0 0h6.47v-.97-2.26-2.25-.99h-6.47V-6.47zm0 0h6.47v-.97-2.26-2.25-.99h-6.47V-6.47zm6.47 0H25.87v-.97-2.26-2.25-.99h-6.46V-6.47zm0 0H25.87v-.97-2.26-2.25-.99h-6.46V-6.47zm0 0H25.87v-.97-2.26-2.25-.99h-6.46V-6.47zm0 0H25.87v-.97-2.26-2.25-.99h-6.46V-6.47zm6.46 0H32.34v-.97-2.26-2.25-.99h-6.46V-6.47zm0 0H32.34v-.97-2.26-2.25-.99h-6.46V-6.47zm0 0H32.34v-.97-2.26-2.25-.99h-6.46V-6.47zm0 0H32.34v-.97-2.26-2.25-.99h-6.46V-6.47zm12.96 0h6.47v-.97-2.26-2.25-.99h-6.47V-6.47zm0 0h6.47v-.97-2.26-2.25-.99h-6.47V-6.47zm0 0h6.47v-.97-2.26-2.25-.99h-6.47V-6.47zm0 0h6.47v-.97-2.26-2.25-.99h-6.47V-6.47zm6.47 0h6.47v-.97-2.26-2.25-.99H45.3V-6.47zm0 0h6.47v-.97-2.26-2.25-.99H45.3V-6.47zm0 0h6.47v-.97-2.26-2.25-.99H45.3V-6.47zm0 0h6.47v-.97-2.26-2.25-.99H45.3V-6.47zm6.47 0H58.23v-.97-2.26-2.25-.99h-6.46V-6.47zm0 0H58.23v-.97-2.26-2.25-.99h-6.46V-6.47zm0 0H58.23v-.97-2.26-2.25-.99h-6.46V-6.47zm0 0H58.23v-.97-2.26-2.25-.99h-6.46V-6.47zm-38.83-6.47h6.47v-.97-2.26-2.25-.99h-6.47V-12.94zm0 0h6.47v-.97-2.26-2.25-.99h-6.47V-12.94zm0 0h6.47v-.97-2.26-2.25-.99h-6.47V-12.94zm0 0h6.47v-.97-2.26-2.25-.99h-6.47V-12.94zm6.47 0H25.87v-.97-2.26-2.25-.99h-6.46V-12.94zm0 0H25.87v-.97-2.26-2.25-.99h-6.46V-12.94zm0 0H25.87v-.97-2.26-2.25-.99h-6.46V-12.94zm0 0H25.87v-.97-2.26-2.25-.99h-6.46V-12.94zm6.46 0H32.34v-.97-2.26-2.25-.99h-6.46V-12.94zm0 0H32.34v-.97-2.26-2.25-.99h-6.46V-12.94zm0 0H32.34v-.97-2.26-2.25-.99h-6.46V-12.94zm0 0H32.34v-.97-2.26-2.25-.99h-6.46V-12.94zm12.96 0h6.47v-.97-2.26-2.25-.99h-6.47V-12.94zm0 0h6.47v-.97-2.26-2.25-.99h-6.47V-12.94zm0 0h6.47v-.97-2.26-2.25-.99h-6.47V-12.94zm0 0h6.47v-.97-2.26-2.25-.99h-6.47V-12.94zm6.47 0h6.47v-.97-2.26-2.25-.99H45.3V-12.94zm0 0h6.47v-.97-2.26-2.25-.99H45.3V-12.94zm0 0h6.47v-.97-2.26-2.25-.99H45.3V-12.94zm0 0h6.47v-.97-2.26-2.25-.99H45.3V-12.94zm6.47 0H58.23v-.97-2.26-2.25-.99h-6.46V-12.94zm0 0H58.23v-.97-2.26-2.25-.99h-6.46V-12.94zm0 0H58.23v-.97-2.26-2.25-.99h-6.46V-12.94zm0 0H58.23v-.97-2.26-2.25-.99h-6.46V-12.94zM12.94-25.88h6.47v-.96-2.27-2.25-.98h-6.47v6.46zm0 0h6.47v-.96-2.27-2.25-.98h-6.47v6.46zm0 0h6.47v-.96-2.27-2.25-.98h-6.47v6.46zm0 0h6.47v-.96-2.27-2.25-.98h-6.47v6.46zm6.47 0H25.87v-.96-2.27-2.25-.98h-6.46v6.46zm0 0H25.87v-.96-2.27-2.25-.98h-6.46v6.46zm0 0H25.87v-.96-2.27-2.25-.98h-6.46v6.46zm0 0H25.87v-.96-2.27-2.25-.98h-6.46v6.46zm6.46 0H32.34v-.96-2.27-2.25-.98h-6.46v6.46zm0 0H32.34v-.96-2.27-2.25-.98h-6.46v6.46zm0 0H32.34v-.96-2.27-2.25-.98h-6.46v6.46zm0 0H32.34v-.96-2.27-2.25-.98h-6.46v6.46zm12.96 0h6.47v-.96-2.27-2.25-.98h-6.47v6.46zm0 0h6.47v-.96-2.27-2.25-.98h-6.47v6.46zm0 0h6.47v-.96-2.27-2.25-.98h-6.47v6.46zm0 0h6.47v-.96-2.27-2.25-.98h-6.47v6.46zm6.47 0h6.47v-.96-2.27-2.25-.98H45.3v6.46zm0 0h6.47v-.96-2.27-2.25-.98H45.3v6.46zm0 0h6.47v-.96-2.27-2.25-.98H45.3v6.46zm0 0h6.47v-.96-2.27-2.25-.98H45.3v6.46zm6.47 0H58.23v-.96-2.27-2.25-.98h-6.46v6.46zm0 0H58.23v-.96-2.27-2.25-.98h-6.46v6.46zm0 0H58.23v-.96-2.27-2.25-.98h-6.46v6.46zm0 0H58.23v-.96-2.27-2.25-.98h-6.46v6.46zm-38.83-6.48h6.47v-.97-2.26-2.25-.99h-6.47V-32.36zm0 0h6.47v-.97-2.26-2.25-.99h-6.47V-32.36zm0 0h6.47v-.97-2.26-2.25-.99h-6.47V-32.36zm0 0h6.47v-.97-2.26-2.25-.99h-6.47V-32.36zm6.47 0H25.87v-.97-2.26-2.25-.99h-6.46V-32.36zm0 0H25.87v-.97-2.26-2.25-.99h-6.46V-32.36zm0 0H25.87v-.97-2.26-2.25-.99h-6.46V-32.36zm0 0H25.87v-.97-2.26-2.25-.99h-6.46V-32.36zm6.46 0H32.34v-.97-2.26-2.25-.99h-6.46V-32.36zm0 0H32.34v-.97-2.26-2.25-.99h-6.46V-32.36zm0 0H32.34v-.97-2.26-2.25-.99h-6.46V-32.36zm0 0H32.34v-.97-2.26-2.25-.99h-6.46V-32.36zm12.96 0h6.47v-.97-2.26-2.25-.99h-6.47V-32.36zm0 0h6.47v-.97-2.26-2.25-.99h-6.47V-32.36zm0 0h6.47v-.97-2.26-2.25-.99h-6.47V-32.36zm0 0h6.47v-.97-2.26-2.25-.99h-6.47V-32.36zm6.47 0h6.47v-.97-2.26-2.25-.99H45.3V-32.36zm0 0h6.47v-.97-2.26-2.25-.99H45.3V-32.36zm0 0h6.47v-.97-2.26-2.25-.99H45.3V-32.36zm0 0h6.47v-.97-2.26-2.25-.99H45.3V-32.36zm6.47 0H58.23v-.97-2.26-2.25-.99h-6.46V-32.36zm0 0H58.23v-.97-2.26-2.25-.99h-6.46V-32.36zm0 0H58.23v-.97-2.26-2.25-.99h-6.46V-32.36zm0 0H58.23v-.97-2.26-2.25-.99h-6.46V-32.36zm-38.83-6.47h6.47v-.97-2.26-2.25-.99h-6.47V-38.83zm0 0h6.47v-.97-2.26-2.25-.99h-6.47V-38.83zm0 0h6.47v-.97-2.26-2.25-.99h-6.47V-38.83zm0 0h6.47v-.97-2.26-2.25-.99h-6.47V-38.83zm6.47 0H25.87v-.97-2.26-2.25-.99h-6.46V-38.83zm0 0H25.87v-.97-2.26-2.25-.99h-6.46V-38.83zm0 0H25.87v-.97-2.26-2.25-.99h-6.46V-38.83zm0 0H25.87v-.97-2.26-2.25-.99h-6.46V-38.83zm6.46 0H32.34v-.97-2.26-2.25-.99h-6.46V-38.83zm0 0H32.34v-.97-2.26-2.25-.99h-6.46V-38.83zm0 0H32.34v-.97-2.26-2.25-.99h-6.46V-38.83zm0 0H32.34v-.97-2.26-2.25-.99h-6.46V-38.83zm12.96 0h6.47v-.97-2.26-2.25-.99h-6.47V-38.83zm0 0h6.47v-.97-2.26-2.25-.99h-6.47V-38.83zm0 0h6.47v-.97-2.26-2.25-.99h-6.47V-38.83zm0 0h6.47v-.97-2.26-2.25-.99h-6.47V-38.83zm6.47 0h6.47v-.97-2.26-2.25-.99H45.3V-38.83zm0 0h6.47v-.97-2.26-2.25-.99H45.3V-38.83zm0 0h6.47v-.97-2.26-2.25-.99H45.3V-38.83zm0 0h6.47v-.97-2.26-2.25-.99H45.3V-38.83zm6.47 0H58.23v-.97-2.26-2.25-.99h-6.46V-38.83zm0 0H58.23v-.97-2.26-2.25-.99h-6.46V-38.83zm0 0H58.23v-.97-2.26-2.25-.99h-6.46V-38.83zm0 0H58.23v-.97-2.26-2.25-.99h-6.46V-38.83zM32.36-45.3h6.47v-.97-2.26-2.25-.99h-6.47V-45.3zm0 0h6.47v-.97-2.26-2.25-.99h-6.47V-45.3zm0 0h6.47v-.97-2.26-2.25-.99h-6.47V-45.3zm0 0h6.47v-.97-2.26-2.25-.99h-6.47V-45.3zm-19.42-6.47h6.47v-.96V-55v-2.25-.98h-6.47v6.46zm0 0h6.47v-.96V-55v-2.25-.98h-6.47v6.46zm0 0h6.47v-.96V-55v-2.25-.98h-6.47v6.46zm0 0h6.47v-.96V-55v-2.25-.98h-6.47v6.46zm6.47 0H25.87v-.96V-55v-2.25-.98h-6.46v6.46zm0 0H25.87v-.96V-55v-2.25-.98h-6.46v6.46zm0 0H25.87v-.96V-55v-2.25-.98h-6.46v6.46zm0 0H25.87v-.96V-55v-2.25-.98h-6.46v6.46zm6.46 0H32.34v-.96V-55v-2.25-.98h-6.46v6.46zm0 0H32.34v-.96V-55v-2.25-.98h-6.46v6.46zm0 0H32.34v-.96V-55v-2.25-.98h-6.46v6.46zm0 0H32.34v-.96V-55v-2.25-.98h-6.46v6.46zm12.96 0h6.47v-.96V-55v-2.25-.98h-6.47v6.46zm0 0h6.47v-.96V-55v-2.25-.98h-6.47v6.46zm0 0h6.47v-.96V-55v-2.25-.98h-6.47v6.46zm0 0h6.47v-.96V-55v-2.25-.98h-6.47v6.46zm6.47 0h6.47v-.96V-55v-2.25-.98H45.3v6.46zm0 0h6.47v-.96V-55v-2.25-.98H45.3v6.46zm0 0h6.47v-.96V-55v-2.25-.98H45.3v6.46zm0 0h6.47v-.96V-55v-2.25-.98H45.3v6.46zm6.47 0H58.23v-.96V-55v-2.25-.98h-6.46v6.46zm0 0H58.23v-.96V-55v-2.25-.98h-6.46v6.46zm0 0H58.23v-.96V-55v-2.25-.98h-6.46v6.46zm0 0H58.23v-.96V-55v-2.25-.98h-6.46v6.46zm-45.3-6.46h6.47v-.97-2.27-2.25-.98H6.47V-58.23zm0 0h6.47v-.97-2.27-2.25-.98H6.47V-58.23zm0 0h6.47v-.97-2.27-2.25-.98H6.47V-58.23zm0 0h6.47v-.97-2.27-2.25-.98H6.47V-58.23zm19.4 0H32.34v-.97-2.27-2.25-.98h-6.46V-58.23zm0 0H32.34v-.97-2.27-2.25-.98h-6.46V-58.23zm0 0H32.34v-.97-2.27-2.25-.98h-6.46V-58.23zm0 0H32.34v-.97-2.27-2.25-.98h-6.46V-58.23zm12.96 0h6.47v-.97-2.27-2.25-.98h-6.47V-58.23zm0 0h6.47v-.97-2.27-2.25-.98h-6.47V-58.23zm0 0h6.47v-.97-2.27-2.25-.98h-6.47V-58.23zm0 0h6.47v-.97-2.27-2.25-.98h-6.47V-58.23zm19.4 0H64.7v-.97-2.27-2.25-.98h-6.47V-58.23zm0 0H64.7v-.97-2.27-2.25-.98h-6.47V-58.23zm0 0H64.7v-.97-2.27-2.25-.98h-6.47V-58.23zm0 0H64.7v-.97-2.27-2.25-.98h-6.47V-58.23zm-45.3-6.47h6.48v-.97-2.27-2.25-.98h-6.47V-64.7zm0 0h6.48v-.97-2.27-2.25-.98h-6.47V-64.7zm0 0h6.48v-.97-2.27-2.25-.98h-6.47V-64.7zm0 0h6.48v-.97-2.27-2.25-.98h-6.47V-64.7zm6.48 0H25.87v-.97-2.27-2.25-.98h-6.46V-64.7zm0 0H25.87v-.97-2.27-2.25-.98h-6.46V-64.7zm0 0H25.87v-.97-2.27-2.25-.98h-6.46V-64.7zm0 0H25.87v-.97-2.27-2.25-.98h-6.46V-64.7zm25.89 0h6.47v-.97-2.27-2.25-.98H45.3V-64.7zm0 0h6.47v-.97-2.27-2.25-.98H45.3V-64.7zm0 0h6.47v-.97-2.27-2.25-.98H45.3V-64.7zm0 0h6.47v-.97-2.27-2.25-.98H45.3V-64.7zm6.47 0H58.23v-.97-2.27-2.25-.98h-6.46V-64.7zm0 0H58.23v-.97-2.27-2.25-.98h-6.46V-64.7zm0 0H58.23v-.97-2.27-2.25-.98h-6.46V-64.7zm0 0H58.23v-.97-2.27-2.25-.98h-6.46V-64.7zm0 0"/></symbol><symbol overflow="visible" id="8dba7678c"><path d="M0 0h6.47v-.97-2.26-2.25-.99H0V0zm0 0h6.47v-.97-2.26-2.25-.99H0V0zm0 0h6.47v-.97-2.26-2.25-.99H0V0zm0 0h6.47v-.97-2.26-2.25-.99H0V0zm6.47 0h6.47v-.97-2.26-2.25-.99H6.47V0zm0 0h6.47v-.97-2.26-2.25-.99H6.47V0zm0 0h6.47v-.97-2.26-2.25-.99H6.47V0zm0 0h6.47v-.97-2.26-2.25-.99H6.47V0zm6.47 0h6.47v-.97-2.26-2.25-.99h-6.47V0zm0 0h6.47v-.97-2.26-2.25-.99h-6.47V0zm0 0h6.47v-.97-2.26-2.25-.99h-6.47V0zm0 0h6.47v-.97-2.26-2.25-.99h-6.47V0zm6.47 0H25.87v-.97-2.26-2.25-.99h-6.46V0zm0 0H25.87v-.97-2.26-2.25-.99h-6.46V0zm0 0H25.87v-.97-2.26-2.25-.99h-6.46V0zm0 0H25.87v-.97-2.26-2.25-.99h-6.46V0zm6.46 0H32.34v-.97-2.26-2.25-.99h-6.46V0zm0 0H32.34v-.97-2.26-2.25-.99h-6.46V0zm0 0H32.34v-.97-2.26-2.25-.99h-6.46V0zm0 0H32.34v-.97-2.26-2.25-.99h-6.46V0zm12.96 0h6.47v-.97-2.26-2.25-.99h-6.47V0zm0 0h6.47v-.97-2.26-2.25-.99h-6.47V0zm0 0h6.47v-.97-2.26-2.25-.99h-6.47V0zm0 0h6.47v-.97-2.26-2.25-.99h-6.47V0zm6.47 0h6.47v-.97-2.26-2.25-.99H45.3V0zm0 0h6.47v-.97-2.26-2.25-.99H45.3V0zm0 0h6.47v-.97-2.26-2.25-.99H45.3V0zm0 0h6.47v-.97-2.26-2.25-.99H45.3V0zm6.47 0H58.23v-.97-2.26-2.25-.99h-6.46V0zm0 0H58.23v-.97-2.26-2.25-.99h-6.46V0zm0 0H58.23v-.97-2.26-2.25-.99h-6.46V0zm0 0H58.23v-.97-2.26-2.25-.99h-6.46V0zm6.46 0H64.7v-.97-2.26-2.25-.99h-6.47V0zm0 0H64.7v-.97-2.26-2.25-.99h-6.47V0zm0 0H64.7v-.97-2.26-2.25-.99h-6.47V0zm0 0H64.7v-.97-2.26-2.25-.99h-6.47V0zm6.47 0H71.17v-.97-2.26-2.25-.99H64.7V0zm0 0H71.17v-.97-2.26-2.25-.99H64.7V0zm0 0H71.17v-.97-2.26-2.25-.99H64.7V0zm0 0H71.17v-.97-2.26-2.25-.99H64.7V0zM0-6.47h6.47v-.97-2.26-2.25-.99H0V-6.47zm0 0h6.47v-.97-2.26-2.25-.99H0V-6.47zm0 0h6.47v-.97-2.26-2.25-.99H0V-6.47zm0 0h6.47v-.97-2.26-2.25-.99H0V-6.47zm6.47 0h6.47v-.97-2.26-2.25-.99H6.47V-6.47zm0 0h6.47v-.97-2.26-2.25-.99H6.47V-6.47zm0 0h6.47v-.97-2.26-2.25-.99H6.47V-6.47zm0 0h6.47v-.97-2.26-2.25-.99H6.47V-6.47zm6.47 0h6.47v-.97-2.26-2.25-.99h-6.47V-6.47zm0 0h6.47v-.97-2.26-2.25-.99h-6.47V-6.47zm0 0h6.47v-.97-2.26-2.25-.99h-6.47V-6.47zm0 0h6.47v-.97-2.26-2.25-.99h-6.47V-6.47zm6.47 0H25.87v-.97-2.26-2.25-.99h-6.46V-6.47zm0 0H25.87v-.97-2.26-2.25-.99h-6.46V-6.47zm0 0H25.87v-.97-2.26-2.25-.99h-6.46V-6.47zm0 0H25.87v-.97-2.26-2.25-.99h-6.46V-6.47zm6.46 0H32.34v-.97-2.26-2.25-.99h-6.46V-6.47zm0 0H32.34v-.97-2.26-2.25-.99h-6.46V-6.47zm0 0H32.34v-.97-2.26-2.25-.99h-6.46V-6.47zm0 0H32.34v-.97-2.26-2.25-.99h-6.46V-6.47zm12.96 0h6.47v-.97-2.26-2.25-.99h-6.47V-6.47zm0 0h6.47v-.97-2.26-2.25-.99h-6.47V-6.47zm0 0h6.47v-.97-2.26-2.25-.99h-6.47V-6.47zm0 0h6.47v-.97-2.26-2.25-.99h-6.47V-6.47zm6.47 0h6.47v-.97-2.26-2.25-.99H45.3V-6.47zm0 0h6.47v-.97-2.26-2.25-.99H45.3V-6.47zm0 0h6.47v-.97-2.26-2.25-.99H45.3V-6.47zm0 0h6.47v-.97-2.26-2.25-.99H45.3V-6.47zm6.47 0H58.23v-.97-2.26-2.25-.99h-6.46V-6.47zm0 0H58.23v-.97-2.26-2.25-.99h-6.46V-6.47zm0 0H58.23v-.97-2.26-2.25-.99h-6.46V-6.47zm0 0H58.23v-.97-2.26-2.25-.99h-6.46V-6.47zm6.46 0H64.7v-.97-2.26-2.25-.99h-6.47V-6.47zm0 0H64.7v-.97-2.26-2.25-.99h-6.47V-6.47zm0 0H64.7v-.97-2.26-2.25-.99h-6.47V-6.47zm0 0H64.7v-.97-2.26-2.25-.99h-6.47V-6.47zm6.47 0H71.17v-.97-2.26-2.25-.99H64.7V-6.47zm0 0H71.17v-.97-2.26-2.25-.99H64.7V-6.47zm0 0H71.17v-.97-2.26-2.25-.99H64.7V-6.47zm0 0H71.17v-.97-2.26-2.25-.99H64.7V-6.47zM0-12.94h6.47v-.97-2.26-2.25-.99H0V-12.94zm0 0h6.47v-.97-2.26-2.25-.99H0V-12.94zm0 0h6.47v-.97-2.26-2.25-.99H0V-12.94zm0 0h6.47v-.97-2.26-2.25-.99H0V-12.94zm6.47 0h6.47v-.97-2.26-2.25-.99H6.47V-12.94zm0 0h6.47v-.97-2.26-2.25-.99H6.47V-12.94zm0 0h6.47v-.97-2.26-2.25-.99H6.47V-12.94zm0 0h6.47v-.97-2.26-2.25-.99H6.47V-12.94zm6.47 0h6.47v-.97-2.26-2.25-.99h-6.47V-12.94zm0 0h6.47v-.97-2.26-2.25-.99h-6.47V-12.94zm0 0h6.47v-.97-2.26-2.25-.99h-6.47V-12.94zm0 0h6.47v-.97-2.26-2.25-.99h-6.47V-12.94zm6.47 0H25.87v-.97-2.26-2.25-.99h-6.46V-12.94zm0 0H25.87v-.97-2.26-2.25-.99h-6.46V-12.94zm0 0H25.87v-.97-2.26-2.25-.99h-6.46V-12.94zm0 0H25.87v-.97-2.26-2.25-.99h-6.46V-12.94zm6.46 0H32.34v-.97-2.26-2.25-.99h-6.46V-12.94zm0 0H32.34v-.97-2.26-2.25-.99h-6.46V-12.94zm0 0H32.34v-.97-2.26-2.25-.99h-6.46V-12.94zm0 0H32.34v-.97-2.26-2.25-.99h-6.46V-12.94zm12.96 0h6.47v-.97-2.26-2.25-.99h-6.47V-12.94zm0 0h6.47v-.97-2.26-2.25-.99h-6.47V-12.94zm0 0h6.47v-.97-2.26-2.25-.99h-6.47V-12.94zm0 0h6.47v-.97-2.26-2.25-.99h-6.47V-12.94zm6.47 0h6.47v-.97-2.26-2.25-.99H45.3V-12.94zm0 0h6.47v-.97-2.26-2.25-.99H45.3V-12.94zm0 0h6.47v-.97-2.26-2.25-.99H45.3V-12.94zm0 0h6.47v-.97-2.26-2.25-.99H45.3V-12.94zm6.47 0H58.23v-.97-2.26-2.25-.99h-6.46V-12.94zm0 0H58.23v-.97-2.26-2.25-.99h-6.46V-12.94zm0 0H58.23v-.97-2.26-2.25-.99h-6.46V-12.94zm0 0H58.23v-.97-2.26-2.25-.99h-6.46V-12.94zm6.46 0H64.7v-.97-2.26-2.25-.99h-6.47V-12.94zm0 0H64.7v-.97-2.26-2.25-.99h-6.47V-12.94zm0 0H64.7v-.97-2.26-2.25-.99h-6.47V-12.94zm0 0H64.7v-.97-2.26-2.25-.99h-6.47V-12.94zm6.47 0H71.17v-.97-2.26-2.25-.99H64.7V-12.94zm0 0H71.17v-.97-2.26-2.25-.99H64.7V-12.94zm0 0H71.17v-.97-2.26-2.25-.99H64.7V-12.94zm0 0H71.17v-.97-2.26-2.25-.99H64.7V-12.94zM0-25.88h6.47v-.96-2.27-2.25-.98H0v6.46zm0 0h6.47v-.96-2.27-2.25-.98H0v6.46zm0 0h6.47v-.96-2.27-2.25-.98H0v6.46zm0 0h6.47v-.96-2.27-2.25-.98H0v6.46zm6.47 0h6.47v-.96-2.27-2.25-.98H6.47v6.46zm0 0h6.47v-.96-2.27-2.25-.98H6.47v6.46zm0 0h6.47v-.96-2.27-2.25-.98H6.47v6.46zm0 0h6.47v-.96-2.27-2.25-.98H6.47v6.46zm6.47 0h6.47v-.96-2.27-2.25-.98h-6.47v6.46zm0 0h6.47v-.96-2.27-2.25-.98h-6.47v6.46zm0 0h6.47v-.96-2.27-2.25-.98h-6.47v6.46zm0 0h6.47v-.96-2.27-2.25-.98h-6.47v6.46zm6.47 0H25.87v-.96-2.27-2.25-.98h-6.46v6.46zm0 0H25.87v-.96-2.27-2.25-.98h-6.46v6.46zm0 0H25.87v-.96-2.27-2.25-.98h-6.46v6.46zm0 0H25.87v-.96-2.27-2.25-.98h-6.46v6.46zm6.46 0H32.34v-.96-2.27-2.25-.98h-6.46v6.46zm0 0H32.34v-.96-2.27-2.25-.98h-6.46v6.46zm0 0H32.34v-.96-2.27-2.25-.98h-6.46v6.46zm0 0H32.34v-.96-2.27-2.25-.98h-6.46v6.46zm12.96 0h6.47v-.96-2.27-2.25-.98h-6.47v6.46zm0 0h6.47v-.96-2.27-2.25-.98h-6.47v6.46zm0 0h6.47v-.96-2.27-2.25-.98h-6.47v6.46zm0 0h6.47v-.96-2.27-2.25-.98h-6.47v6.46zm6.47 0h6.47v-.96-2.27-2.25-.98H45.3v6.46zm0 0h6.47v-.96-2.27-2.25-.98H45.3v6.46zm0 0h6.47v-.96-2.27-2.25-.98H45.3v6.46zm0 0h6.47v-.96-2.27-2.25-.98H45.3v6.46zm6.47 0H58.23v-.96-2.27-2.25-.98h-6.46v6.46zm0 0H58.23v-.96-2.27-2.25-.98h-6.46v6.46zm0 0H58.23v-.96-2.27-2.25-.98h-6.46v6.46zm0 0H58.23v-.96-2.27-2.25-.98h-6.46v6.46zm6.46 0H64.7v-.96-2.27-2.25-.98h-6.47v6.46zm0 0H64.7v-.96-2.27-2.25-.98h-6.47v6.46zm0 0H64.7v-.96-2.27-2.25-.98h-6.47v6.46zm0 0H64.7v-.96-2.27-2.25-.98h-6.47v6.46zm6.47 0H71.17v-.96-2.27-2.25-.98H64.7v6.46zm0 0H71.17v-.96-2.27-2.25-.98H64.7v6.46zm0 0H71.17v-.96-2.27-2.25-.98H64.7v6.46zm0 0H71.17v-.96-2.27-2.25-.98H64.7v6.46zM0-32.36h6.47v-.97-2.26-2.25-.99H0V-32.36zm0 0h6.47v-.97-2.26-2.25-.99H0V-32.36zm0 0h6.47v-.97-2.26-2.25-.99H0V-32.36zm0 0h6.47v-.97-2.26-2.25-.99H0V-32.36zm6.47 0h6.47v-.97-2.26-2.25-.99H6.47V-32.36zm0 0h6.47v-.97-2.26-2.25-.99H6.47V-32.36zm0 0h6.47v-.97-2.26-2.25-.99H6.47V-32.36zm0 0h6.47v-.97-2.26-2.25-.99H6.47V-32.36zm6.47 0h6.47v-.97-2.26-2.25-.99h-6.47V-32.36zm0 0h6.47v-.97-2.26-2.25-.99h-6.47V-32.36zm0 0h6.47v-.97-2.26-2.25-.99h-6.47V-32.36zm0 0h6.47v-.97-2.26-2.25-.99h-6.47V-32.36zm6.47 0H25.87v-.97-2.26-2.25-.99h-6.46V-32.36zm0 0H25.87v-.97-2.26-2.25-.99h-6.46V-32.36zm0 0H25.87v-.97-2.26-2.25-.99h-6.46V-32.36zm0 0H25.87v-.97-2.26-2.25-.99h-6.46V-32.36zm6.46 0H32.34v-.97-2.26-2.25-.99h-6.46V-32.36zm0 0H32.34v-.97-2.26-2.25-.99h-6.46V-32.36zm0 0H32.34v-.97-2.26-2.25-.99h-6.46V-32.36zm0 0H32.34v-.97-2.26-2.25-.99h-6.46V-32.36zm12.96 0h6.47v-.97-2.26-2.25-.99h-6.47V-32.36zm0 0h6.47v-.97-2.26-2.25-.99h-6.47V-32.36zm0 0h6.47v-.97-2.26-2.25-.99h-6.47V-32.36zm0 0h6.47v-.97-2.26-2.25-.99h-6.47V-32.36zm6.47 0h6.47v-.97-2.26-2.25-.99H45.3V-32.36zm0 0h6.47v-.97-2.26-2.25-.99H45.3V-32.36zm0 0h6.47v-.97-2.26-2.25-.99H45.3V-32.36zm0 0h6.47v-.97-2.26-2.25-.99H45.3V-32.36zm6.47 0H58.23v-.97-2.26-2.25-.99h-6.46V-32.36zm0 0H58.23v-.97-2.26-2.25-.99h-6.46V-32.36zm0 0H58.23v-.97-2.26-2.25-.99h-6.46V-32.36zm0 0H58.23v-.97-2.26-2.25-.99h-6.46V-32.36zm6.46 0H64.7v-.97-2.26-2.25-.99h-6.47V-32.36zm0 0H64.7v-.97-2.26-2.25-.99h-6.47V-32.36zm0 0H64.7v-.97-2.26-2.25-.99h-6.47V-32.36zm0 0H64.7v-.97-2.26-2.25-.99h-6.47V-32.36zm6.47 0H71.17v-.97-2.26-2.25-.99H64.7V-32.36zm0 0H71.17v-.97-2.26-2.25-.99H64.7V-32.36zm0 0H71.17v-.97-2.26-2.25-.99H64.7V-32.36zm0 0H71.17v-.97-2.26-2.25-.99H64.7V-32.36zM0-38.83h6.47v-.97-2.26-2.25-.99H0V-38.83zm0 0h6.47v-.97-2.26-2.25-.99H0V-38.83zm0 0h6.47v-.97-2.26-2.25-.99H0V-38.83zm0 0h6.47v-.97-2.26-2.25-.99H0V-38.83zm6.47 0h6.47v-.97-2.26-2.25-.99H6.47V-38.83zm0 0h6.47v-.97-2.26-2.25-.99H6.47V-38.83zm0 0h6.47v-.97-2.26-2.25-.99H6.47V-38.83zm0 0h6.47v-.97-2.26-2.25-.99H6.47V-38.83zm6.47 0h6.47v-.97-2.26-2.25-.99h-6.47V-38.83zm0 0h6.47v-.97-2.26-2.25-.99h-6.47V-38.83zm0 0h6.47v-.97-2.26-2.25-.99h-6.47V-38.83zm0 0h6.47v-.97-2.26-2.25-.99h-6.47V-38.83zm6.47 0H25.87v-.97-2.26-2.25-.99h-6.46V-38.83zm0 0H25.87v-.97-2.26-2.25-.99h-6.46V-38.83zm0 0H25.87v-.97-2.26-2.25-.99h-6.46V-38.83zm0 0H25.87v-.97-2.26-2.25-.99h-6.46V-38.83zm6.46 0H32.34v-.97-2.26-2.25-.99h-6.46V-38.83zm0 0H32.34v-.97-2.26-2.25-.99h-6.46V-38.83zm0 0H32.34v-.97-2.26-2.25-.99h-6.46V-38.83zm0 0H32.34v-.97-2.26-2.25-.99h-6.46V-38.83zm12.96 0h6.47v-.97-2.26-2.25-.99h-6.47V-38.83zm0 0h6.47v-.97-2.26-2.25-.99h-6.47V-38.83zm0 0h6.47v-.97-2.26-2.25-.99h-6.47V-38.83zm0 0h6.47v-.97-2.26-2.25-.99h-6.47V-38.83zm6.47 0h6.47v-.97-2.26-2.25-.99H45.3V-38.83zm0 0h6.47v-.97-2.26-2.25-.99H45.3V-38.83zm0 0h6.47v-.97-2.26-2.25-.99H45.3V-38.83zm0 0h6.47v-.97-2.26-2.25-.99H45.3V-38.83zm6.47 0H58.23v-.97-2.26-2.25-.99h-6.46V-38.83zm0 0H58.23v-.97-2.26-2.25-.99h-6.46V-38.83zm0 0H58.23v-.97-2.26-2.25-.99h-6.46V-38.83zm0 0H58.23v-.97-2.26-2.25-.99h-6.46V-38.83zm6.46 0H64.7v-.97-2.26-2.25-.99h-6.47V-38.83zm0 0H64.7v-.97-2.26-2.25-.99h-6.47V-38.83zm0 0H64.7v-.97-2.26-2.25-.99h-6.47V-38.83zm0 0H64.7v-.97-2.26-2.25-.99h-6.47V-38.83zm6.47 0H71.17v-.97-2.26-2.25-.99H64.7V-38.83zm0 0H71.17v-.97-2.26-2.25-.99H64.7V-38.83zm0 0H71.17v-.97-2.26-2.25-.99H64.7V-38.83zm0 0H71.17v-.97-2.26-2.25-.99H64.7V-38.83zM32.36-45.3h6.47v-.97-2.26-2.25-.99h-6.47V-45.3zm0 0h6.47v-.97-2.26-2.25-.99h-6.47V-45.3zm0 0h6.47v-.97-2.26-2.25-.99h-6.47V-45.3zm0 0h6.47v-.97-2.26-2.25-.99h-6.47V-45.3zm-19.42-6.47h6.47v-.96V-55v-2.25-.98h-6.47v6.46zm0 0h6.47v-.96V-55v-2.25-.98h-6.47v6.46zm0 0h6.47v-.96V-55v-2.25-.98h-6.47v6.46zm0 0h6.47v-.96V-55v-2.25-.98h-6.47v6.46zm6.47 0H25.87v-.96V-55v-2.25-.98h-6.46v6.46zm0 0H25.87v-.96V-55v-2.25-.98h-6.46v6.46zm0 0H25.87v-.96V-55v-2.25-.98h-6.46v6.46zm0 0H25.87v-.96V-55v-2.25-.98h-6.46v6.46zm6.46 0H32.34v-.96V-55v-2.25-.98h-6.46v6.46zm0 0H32.34v-.96V-55v-2.25-.98h-6.46v6.46zm0 0H32.34v-.96V-55v-2.25-.98h-6.46v6.46zm0 0H32.34v-.96V-55v-2.25-.98h-6.46v6.46zm12.96 0h6.47v-.96V-55v-2.25-.98h-6.47v6.46zm0 0h6.47v-.96V-55v-2.25-.98h-6.47v6.46zm0 0h6.47v-.96V-55v-2.25-.98h-6.47v6.46zm0 0h6.47v-.96V-55v-2.25-.98h-6.47v6.46zm6.47 0h6.47v-.96V-55v-2.25-.98H45.3v6.46zm0 0h6.47v-.96V-55v-2.25-.98H45.3v6.46zm0 0h6.47v-.96V-55v-2.25-.98H45.3v6.46zm0 0h6.47v-.96V-55v-2.25-.98H45.3v6.46zm6.47 0H58.23v-.96V-55v-2.25-.98h-6.46v6.46zm0 0H58.23v-.96V-55v-2.25-.98h-6.46v6.46zm0 0H58.23v-.96V-55v-2.25-.98h-6.46v6.46zm0 0H58.23v-.96V-55v-2.25-.98h-6.46v6.46zm-45.3-6.46h6.47v-.97-2.27-2.25-.98H6.47V-58.23zm0 0h6.47v-.97-2.27-2.25-.98H6.47V-58.23zm0 0h6.47v-.97-2.27-2.25-.98H6.47V-58.23zm0 0h6.47v-.97-2.27-2.25-.98H6.47V-58.23zm19.4 0H32.34v-.97-2.27-2.25-.98h-6.46V-58.23zm0 0H32.34v-.97-2.27-2.25-.98h-6.46V-58.23zm0 0H32.34v-.97-2.27-2.25-.98h-6.46V-58.23zm0 0H32.34v-.97-2.27-2.25-.98h-6.46V-58.23zm12.96 0h6.47v-.97-2.27-2.25-.98h-6.47V-58.23zm0 0h6.47v-.97-2.27-2.25-.98h-6.47V-58.23zm0 0h6.47v-.97-2.27-2.25-.98h-6.47V-58.23zm0 0h6.47v-.97-2.27-2.25-.98h-6.47V-58.23zm19.4 0H64.7v-.97-2.27-2.25-.98h-6.47V-58.23zm0 0H64.7v-.97-2.27-2.25-.98h-6.47V-58.23zm0 0H64.7v-.97-2.27-2.25-.98h-6.47V-58.23zm0 0H64.7v-.97-2.27-2.25-.98h-6.47V-58.23zm-45.3-6.47h6.48v-.97-2.27-2.25-.98h-6.47V-64.7zm0 0h6.48v-.97-2.27-2.25-.98h-6.47V-64.7zm0 0h6.48v-.97-2.27-2.25-.98h-6.47V-64.7zm0 0h6.48v-.97-2.27-2.25-.98h-6.47V-64.7zm6.48 0H25.87v-.97-2.27-2.25-.98h-6.46V-64.7zm0 0H25.87v-.97-2.27-2.25-.98h-6.46V-64.7zm0 0H25.87v-.97-2.27-2.25-.98h-6.46V-64.7zm0 0H25.87v-.97-2.27-2.25-.98h-6.46V-64.7zm25.89 0h6.47v-.97-2.27-2.25-.98H45.3V-64.7zm0 0h6.47v-.97-2.27-2.25-.98H45.3V-64.7zm0 0h6.47v-.97-2.27-2.25-.98H45.3V-64.7zm0 0h6.47v-.97-2.27-2.25-.98H45.3V-64.7zm6.47 0H58.23v-.97-2.27-2.25-.98h-6.46V-64.7zm0 0H58.23v-.97-2.27-2.25-.98h-6.46V-64.7zm0 0H58.23v-.97-2.27-2.25-.98h-6.46V-64.7zm0 0H58.23v-.97-2.27-2.25-.98h-6.46V-64.7zm0 0"/></symbol><symbol overflow="visible" id="8dba7678d"><path d="M3.83 0v-5.95H6.2v-.82H.45v.82h2.4V0zm0 0"/></symbol><symbol overflow="visible" id="8dba7678e"><path d="M5.75-2.23v-.43c0-1.6-.9-2.51-2.42-2.51S.87-4.16.87-2.48c0 1.71.91 2.62 2.5 2.62 1.43 0 2.07-.56 2.29-1.52l-.9-.09c-.18.61-.59.9-1.35.9-.94 0-1.52-.54-1.58-1.66zm-2.4-2.2c.93 0 1.43.5 1.48 1.55H1.84c.08-1.07.6-1.56 1.5-1.56zm0 0"/></symbol><symbol overflow="visible" id="8dba7678f"><path d="M1.83 0l1.42-2h.06l1.46 2H5.8L4-2.53l1.78-2.49H4.8L3.42-3.08h-.08l-1.4-1.94H.89l1.78 2.49L.84 0zm0 0"/></symbol><symbol overflow="visible" id="8dba7678g"><path d="M5.52-4.25v-.77H3.17v-1.56h-.81l-.14 1.56H.75v.77h1.47v2.4c0 1.3.48 1.94 1.84 1.94C4.6.1 5.14 0 5.55-.14L5.4-.91c-.32.13-.72.2-1.13.2-.8 0-1.1-.37-1.1-1.23v-2.31zm0 0"/></symbol><symbol overflow="visible" id="8dba7678h"><path d="M3.33-3.42c.47 0 .8-.27.8-.8 0-.51-.33-.8-.8-.8-.47 0-.8.29-.8.8 0 .53.33.8.8.8zm0 3.5c.47 0 .8-.27.8-.78 0-.53-.33-.82-.8-.82-.47 0-.8.29-.8.82 0 .51.33.78.8.78zm0 0"/></symbol><symbol overflow="visible" id="8dba7678j"><path d="M2.06 1.9V-.84h.05c.28.58.8.97 1.77.97 1.5 0 2.2-.98 2.2-2.66 0-1.65-.7-2.64-2.19-2.64-.97 0-1.5.44-1.78 1.05h-.08l-.1-.9H1.1v6.9zm1.5-2.56c-1.06 0-1.53-.8-1.53-1.86 0-1.04.47-1.84 1.53-1.84 1.11 0 1.53.61 1.53 1.84 0 1.27-.42 1.86-1.53 1.86zm0 0"/></symbol><symbol overflow="visible" id="8dba7678k"><path d="M5.08-5.16c-.94 0-1.58.43-1.9 1.3h-.09l-.07-1.16H1.05v.77h1.1v3.48H.96V0h3.96v-.77H3.1v-1.46c0-1.36.6-2.05 1.83-2.05.4 0 .76.08 1.1.17l.15-.87c-.33-.11-.7-.18-1.11-.18zm0 0"/></symbol><symbol overflow="visible" id="8dba7678l"><path d="M3.36.16c1.4 0 2.2-.6 2.2-1.57 0-.89-.54-1.22-1.47-1.39L3-3c-.67-.14-.86-.33-.86-.73 0-.5.4-.74 1.17-.74.83 0 1.19.27 1.27.8l.9-.05c-.12-1-.8-1.47-2.17-1.47-1.34 0-2.1.53-2.1 1.5 0 .81.45 1.22 1.52 1.44l1.04.2c.56.11.87.24.87.72 0 .52-.45.78-1.28.78-.95 0-1.36-.28-1.42-.87l-.9.06C1.07-.36 1.8.16 3.35.16zm0 0"/></symbol><symbol overflow="visible" id="8dba7678m"><path d="M2.16 0v-2.67c0-.99.59-1.63 1.46-1.63.74 0 1.07.38 1.07 1.22V0h.95v-3.31c0-1.2-.56-1.85-1.67-1.85-.92 0-1.49.46-1.77 1.08h-.06l-.12-.94H1.2V0zm0 0"/></symbol><symbol overflow="visible" id="8dba7678n"><path d="M5.95-6.77H1.1V0h.99v-2.92H5.3v-.77H2.08v-2.26h3.87zm0 0"/></symbol><symbol overflow="visible" id="8dba7678o"><path d="M2.83.14c.94 0 1.5-.39 1.81-.95h.08l.1.81h.76v-3.38c0-1.23-.69-1.8-2.13-1.8-1.43 0-2.03.65-2.18 1.6l.93.1c.11-.6.44-.93 1.22-.93.85 0 1.22.32 1.22 1.04v.34l-1.81.2C1.6-2.7 1.1-2.17 1.1-1.28c0 .92.64 1.42 1.72 1.42zm.25-.77c-.67 0-1.02-.28-1.02-.74 0-.44.28-.72 1-.82l1.58-.19v.41c0 .8-.6 1.34-1.56 1.34zm0 0"/></symbol><symbol overflow="visible" id="8dba7678p"><path d="M2.73.14c.9 0 1.43-.45 1.74-1.08h.06l.13.94h.8v-5.02h-.94v2.7c0 .98-.57 1.62-1.46 1.62-.75 0-1.1-.4-1.1-1.22v-3.1h-.93v3.32c0 1.17.55 1.84 1.7 1.84zm0 0"/></symbol><symbol overflow="visible" id="8dba7678q"><path d="M.92-6.77V0h.99v-2.27h1.68c1.58 0 2.38-.65 2.38-2.2v-.14c0-1.51-.8-2.16-2.34-2.16zM5-4.47c0 1.05-.42 1.45-1.58 1.45H1.91v-2.96h1.51C4.58-5.98 5-5.66 5-4.61zm0 0"/></symbol><symbol overflow="visible" id="8dba7678r"><path d="M1.45-2.95c0 2.56 1.08 4.37 3.67 4.84l.11-.67C3.28.86 2.43-.75 2.43-2.95s.85-3.82 2.8-4.16l-.1-.69c-2.6.49-3.68 2.3-3.68 4.85zm0 0"/></symbol><symbol overflow="visible" id="8dba7678s"><path d="M1.63 0v-2.9c0-.8.15-1.4.71-1.4.41 0 .55.3.55.88V0h.95v-2.9c0-.8.18-1.4.72-1.4.4 0 .57.3.57.88V0h.95v-3.63c0-.92-.28-1.53-1.11-1.53-.63 0-.95.41-1.1.9h-.06c-.1-.52-.44-.9-1.08-.9-.6 0-.93.41-1.06.9H1.6l-.23-.76H.67V0zm0 0"/></symbol><symbol overflow="visible" id="8dba7678t"><path d="M3.33.14c1.62 0 2.5-.95 2.5-2.66 0-1.68-.88-2.64-2.5-2.64-1.63 0-2.5.96-2.5 2.64 0 1.7.87 2.66 2.5 2.66zm0-.77c-1.06 0-1.52-.6-1.52-1.89 0-1.28.46-1.87 1.52-1.87 1.08 0 1.53.6 1.53 1.87 0 1.29-.45 1.9-1.53 1.9zm0 0"/></symbol><symbol overflow="visible" id="8dba7678u"><path d="M3.38-5.9c.12-.5.42-1.04.67-1.41l-.63-.22a4.28 4.28 0 00-1.01 2.39c0 .66.3 1 .9 1 .6 0 .9-.33.9-.9 0-.57-.32-.83-.83-.85zm0 0"/></symbol><symbol overflow="visible" id="8dba7678v"><path d="M3.3-7.53c-.55 0-.85.3-.85.84 0 .55.36.8.83.8h.03a5.1 5.1 0 01-.69 1.47l.52.23a4.29 4.29 0 001.02-2.4c0-.63-.33-.94-.86-.94zm0 0"/></symbol><symbol overflow="visible" id="8dba7678w"><path d="M3.9.14c1.48 0 2.18-.98 2.18-2.64 0-1.67-.7-2.66-2.17-2.66-.91 0-1.49.41-1.79 1h-.06v-2.98h-.95V0h.81l.11-.9h.06c.29.63.82 1.04 1.82 1.04zm-.32-.8c-1.08 0-1.55-.8-1.55-1.84 0-1.06.47-1.86 1.55-1.86 1.1 0 1.51.61 1.51 1.86S4.64-.66 3.58-.66zm0 0"/></symbol><symbol overflow="visible" id="8dba7678x"><path d="M3.58-5.81c.42 0 .72-.22.72-.67 0-.44-.3-.68-.72-.68-.44 0-.72.24-.72.68 0 .45.28.67.72.67zm.5.8H1.52v.76h1.6v3.48h-1.8V0h4.46v-.77h-1.7zm0 0"/></symbol><symbol overflow="visible" id="8dba7678y"><path d="M3.16 2.03c1.67 0 2.4-.86 2.4-2.51v-4.54h-.81l-.13.91h-.06c-.26-.58-.8-1.05-1.73-1.05-1.42 0-2.24 1-2.24 2.52 0 1.6.75 2.56 2.2 2.56.94 0 1.5-.5 1.77-1.03h.05v.72c0 1.17-.42 1.67-1.45 1.67-.93 0-1.3-.34-1.41-.89L.8.5c.12.96.87 1.54 2.36 1.54zM3.06-.8c-.98 0-1.48-.57-1.48-1.82 0-1.13.5-1.75 1.48-1.75 1.06 0 1.58.76 1.58 1.75 0 .95-.56 1.82-1.58 1.82zm0 0"/></symbol><symbol overflow="visible" id="8dba7678z"><path d="M3.34-1.56c-.54 0-.82.31-.82.86 0 .5.3.78.76.78-.08.4-.34.95-.65 1.39l.53.25c.57-.67 1-1.67 1-2.36 0-.6-.3-.92-.82-.92zm0 0"/></symbol><symbol overflow="visible" id="8dba7678A"><path d="M2.84.14C3.8.14 4.33-.26 4.6-.9h.07L4.8 0h.76v-7.14h-.95v2.95h-.08c-.28-.6-.86-.97-1.67-.97-1.48 0-2.27.99-2.27 2.64C.6-.84 1.36.14 2.84.14zm.22-.8c-.98 0-1.48-.59-1.48-1.84s.5-1.86 1.48-1.86c1.13 0 1.58.8 1.58 1.86S4.2-.66 3.06-.66zm0 0"/></symbol><symbol overflow="visible" id="8dba7678B"><path d="M3.92-7.14H1.36v.76h1.6v5.61H1.15V0H5.7v-.77H3.92zm0 0"/></symbol><symbol overflow="visible" id="8dba7678C"><path d="M1.45-7.1c1.96.33 2.8 1.94 2.8 4.15 0 2.2-.84 3.8-2.8 4.17l.11.67c2.58-.47 3.67-2.28 3.67-4.84 0-2.55-1.09-4.36-3.67-4.85zm0 0"/></symbol></defs><g fill="#eaf734"><use xlink:href="#8dba7678a" x="173.8235" y="165"/><use xlink:href="#8dba7678b" x="264.4118" y="165"/><use xlink:href="#8dba7678c" x="355" y="165"/><use xlink:href="#8dba7678d" x="183.3333" y="252"/><use xlink:href="#8dba7678e" x="190.0003" y="252"/><use xlink:href="#8dba7678f" x="196.6673" y="252"/><use xlink:href="#8dba7678g" x="203.3343" y="252"/><use xlink:href="#8dba7678h" x="210.0013" y="252"/><use xlink:href="#8dba7678i" x="216.6683" y="252"/><use xlink:href="#8dba7678h" x="223.3353" y="252"/><use xlink:href="#8dba7678j" x="230.0023" y="252"/><use xlink:href="#8dba7678k" x="236.6693" y="252"/><use xlink:href="#8dba7678e" x="243.3363" y="252"/><use xlink:href="#8dba7678l" x="250.0033" y="252"/><use xlink:href="#8dba7678e" x="256.6703" y="252"/><use xlink:href="#8dba7678m" x="263.3373" y="252"/><use xlink:href="#8dba7678g" x="270.0043" y="252"/><use xlink:href="#8dba7678i" x="276.6713" y="252"/><use xlink:href="#8dba7678h" x="283.3383" y="252"/><use xlink:href="#8dba7678j" x="290.0053" y="252"/><use xlink:href="#8dba7678k" x="296.6723" y="252"/><use xlink:href="#8dba7678e" x="303.3393" y="252"/><use xlink:href="#8dba7678l" x="310.0063" y="252"/><use xlink:href="#8dba7678e" x="316.6733" y="252"/><use xlink:href="#8dba7678e" x="323.3403" y="252"/><use xlink:href="#8dba7678m" x="330.0073" y="252"/><use xlink:href="#8dba7678g" x="336.6743" y="252"/><use xlink:href="#8dba7678i" x="343.3413" y="252"/><use xlink:href="#8dba7678h" x="350.0083" y="252"/><use xlink:href="#8dba7678j" x="356.6753" y="252"/><use xlink:href="#8dba7678k" x="363.3423" y="252"/><use xlink:href="#8dba7678e" x="370.0093" y="252"/><use xlink:href="#8dba7678l" x="376.6763" y="252"/><use xlink:href="#8dba7678e" x="383.3433" y="252"/><use xlink:href="#8dba7678e" x="390.0103" y="252"/><use xlink:href="#8dba7678e" x="396.6773" y="252"/><use xlink:href="#8dba7678m" x="403.3443" y="252"/><use xlink:href="#8dba7678g" x="410.0113" y="252"/><g><use xlink:href="#8dba7678n" x="136.6667" y="266"/><use xlink:href="#8dba7678e" x="143.3337" y="266"/><use xlink:href="#8dba7678o" x="150.0007" y="266"/><use xlink:href="#8dba7678g" x="156.6677" y="266"/><use xlink:href="#8dba7678p" x="163.3347" y="266"/><use xlink:href="#8dba7678k" x="170.0017" y="266"/><use xlink:href="#8dba7678e" x="176.6687" y="266"/><use xlink:href="#8dba7678h" x="183.3357" y="266"/><use xlink:href="#8dba7678i" x="190.0027" y="266"/><use xlink:href="#8dba7678q" x="196.6697" y="266"/><use xlink:href="#8dba7678k" x="203.3367" y="266"/><use xlink:href="#8dba7678e" x="210.0037" y="266"/><use xlink:href="#8dba7678l" x="216.6707" y="266"/><use xlink:href="#8dba7678g" x="223.3377" y="266"/><use xlink:href="#8dba7678e" x="230.0047" y="266"/><use xlink:href="#8dba7678m" x="236.6717" y="266"/><use xlink:href="#8dba7678g" x="243.3387" y="266"/><use xlink:href="#8dba7678i" x="250.0057" y="266"/><use xlink:href="#8dba7678r" x="256.6727" y="266"/><use xlink:href="#8dba7678s" x="263.3397" y="266"/><use xlink:href="#8dba7678t" x="270.0067" y="266"/><use xlink:href="#8dba7678k" x="276.6737" y="266"/><use xlink:href="#8dba7678e" x="283.3407" y="266"/><use xlink:href="#8dba7678i" x="290.0077" y="266"/><use xlink:href="#8dba7678u" x="296.6747" y="266"/><use xlink:href="#8dba7678e" x="303.3417" y="266"/><use xlink:href="#8dba7678v" x="310.0087" y="266"/><use xlink:href="#8dba7678i" x="316.6757" y="266"/><use xlink:href="#8dba7678w" x="323.3427" y="266"/><use xlink:href="#8dba7678x" x="330.0097" y="266"/><use xlink:href="#8dba7678y" x="336.6767" y="266"/><use xlink:href="#8dba7678y" x="343.3437" y="266"/><use xlink:href="#8dba7678e" x="350.0107" y="266"/><use xlink:href="#8dba7678k" x="356.6777" y="266"/><use xlink:href="#8dba7678i" x="363.3447" y="266"/><use xlink:href="#8dba7678j" x="370.0117" y="266"/><use xlink:href="#8dba7678k" x="376.6787" y="266"/><use xlink:href="#8dba7678e" x="383.3457" y="266"/><use xlink:href="#8dba7678l" x="390.0127" y="266"/><use xlink:href="#8dba7678e" x="396.6797" y="266"/><use xlink:href="#8dba7678m" x="403.3467" y="266"/><use xlink:href="#8dba7678g" x="410.0137" y="266"/><use xlink:href="#8dba7678z" x="416.6807" y="266"/><use xlink:href="#8dba7678i" x="423.3477" y="266"/><use xlink:href="#8dba7678A" x="430.0147" y="266"/><use xlink:href="#8dba7678B" x="436.6817" y="266"/><use xlink:href="#8dba7678x" x="443.3487" y="266"/><use xlink:href="#8dba7678y" x="450.0157" y="266"/><use xlink:href="#8dba7678C" x="456.6827" y="266"/></g></g></svg>