<?xml version='1.0' encoding='UTF-8'?>
<svg xmlns="http://www.w3.org/2000/svg" xmlns:xlink="http://www.w3.org/1999/xlink" width="600px" height="300px" viewBox="0 0 600 300" x="0px" y="0px" enable-background="new 0 0 600 300"><defs><symbol overflow="visible" id="48b056b0a"><path d="M16.17 12.94H22.64v-.99V9.7 7.44v-.97h-6.47v6.47zm0 0H22.64v-.99V9.7 7.44v-.97h-6.47v6.47zm0 0H22.64v-.99V9.7 7.44v-.97h-6.47v6.47zm0 0H22.64v-.99V9.7 7.44v-.97h-6.47v6.47zM9.7 6.47H16.17v-.99-2.25V.97 0H9.7v6.47zm0 0H16.17v-.99-2.25V.97 0H9.7v6.47zm0 0H16.17v-.99-2.25V.97 0H9.7v6.47zm0 0H16.17v-.99-2.25V.97 0H9.7v6.47zm12.94 0H29.11v-.99-2.25V.97 0h-6.47v6.47zm0 0H29.11v-.99-2.25V.97 0h-6.47v6.47zm0 0H29.11v-.99-2.25V.97 0h-6.47v6.47zm0 0H29.11v-.99-2.25V.97 0h-6.47v6.47zM0 0h6.47v-.97-2.26-2.25-.99H0V0zm0 0h6.47v-.97-2.26-2.25-.99H0V0zm0 0h6.47v-.97-2.26-2.25-.99H0V0zm0 0h6.47v-.97-2.26-2.25-.99H0V0zm6.47 0h6.47v-.97-2.26-2.25-.99H6.47V0zm0 0h6.47v-.97-2.26-2.25-.99H6.47V0zm0 0h6.47v-.97-2.26-2.25-.99H6.47V0zm0 0h6.47v-.97-2.26-2.25-.99H6.47V0zm6.47 0h6.47v-.97-2.26-2.25-.99h-6.47V0zm0 0h6.47v-.97-2.26-2.25-.99h-6.47V0zm0 0h6.47v-.97-2.26-2.25-.99h-6.47V0zm0 0h6.47v-.97-2.26-2.25-.99h-6.47V0zm6.47 0H25.87v-.97-2.26-2.25-.99h-6.46V0zm0 0H25.87v-.97-2.26-2.25-.99h-6.46V0zm0 0H25.87v-.97-2.26-2.25-.99h-6.46V0zm0 0H25.87v-.97-2.26-2.25-.99h-6.46V0zm6.46 0H32.34v-.97-2.26-2.25-.99h-6.46V0zm0 0H32.34v-.97-2.26-2.25-.99h-6.46V0zm0 0H32.34v-.97-2.26-2.25-.99h-6.46V0zm0 0H32.34v-.97-2.26-2.25-.99h-6.46V0zm6.49 0h6.47v-.97-2.26-2.25-.99h-6.47V0zm0 0h6.47v-.97-2.26-2.25-.99h-6.47V0zm0 0h6.47v-.97-2.26-2.25-.99h-6.47V0zm0 0h6.47v-.97-2.26-2.25-.99h-6.47V0zM0-51.77h6.47v-.96V-55v-2.25-.98H0v6.46zm0 0h6.47v-.96V-55v-2.25-.98H0v6.46zm0 0h6.47v-.96V-55v-2.25-.98H0v6.46zm0 0h6.47v-.96V-55v-2.25-.98H0v6.46zm6.47 0h6.47v-.96V-55v-2.25-.98H6.47v6.46zm0 0h6.47v-.96V-55v-2.25-.98H6.47v6.46zm0 0h6.47v-.96V-55v-2.25-.98H6.47v6.46zm0 0h6.47v-.96V-55v-2.25-.98H6.47v6.46zm6.47 0h6.47v-.96V-55v-2.25-.98h-6.47v6.46zm0 0h6.47v-.96V-55v-2.25-.98h-6.47v6.46zm0 0h6.47v-.96V-55v-2.25-.98h-6.47v6.46zm0 0h6.47v-.96V-55v-2.25-.98h-6.47v6.46zm6.47 0H25.87v-.96V-55v-2.25-.98h-6.46v6.46zm0 0H25.87v-.96V-55v-2.25-.98h-6.46v6.46zm0 0H25.87v-.96V-55v-2.25-.98h-6.46v6.46zm0 0H25.87v-.96V-55v-2.25-.98h-6.46v6.46zm6.46 0H32.34v-.96V-55v-2.25-.98h-6.46v6.46zm0 0H32.34v-.96V-55v-2.25-.98h-6.46v6.46zm0 0H32.34v-.96V-55v-2.25-.98h-6.46v6.46zm0 0H32.34v-.96V-55v-2.25-.98h-6.46v6.46zm6.49 0h6.47v-.96V-55v-2.25-.98h-6.47v6.46zm0 0h6.47v-.96V-55v-2.25-.98h-6.47v6.46zm0 0h6.47v-.96V-55v-2.25-.98h-6.47v6.46zm0 0h6.47v-.96V-55v-2.25-.98h-6.47v6.46zM9.7-58.23H16.17v-.97-2.27-2.25-.98H9.7V-58.23zm0 0H16.17v-.97-2.27-2.25-.98H9.7V-58.23zm0 0H16.17v-.97-2.27-2.25-.98H9.7V-58.23zm0 0H16.17v-.97-2.27-2.25-.98H9.7V-58.23zm12.94 0H29.11v-.97-2.27-2.25-.98h-6.47V-58.23zm0 0H29.11v-.97-2.27-2.25-.98h-6.47V-58.23zm0 0H29.11v-.97-2.27-2.25-.98h-6.47V-58.23zm0 0H29.11v-.97-2.27-2.25-.98h-6.47V-58.23zm-6.47-6.47H22.64v-.97-2.27-2.25-.98h-6.47V-64.7zm0 0H22.64v-.97-2.27-2.25-.98h-6.47V-64.7zm0 0H22.64v-.97-2.27-2.25-.98h-6.47V-64.7zm0 0H22.64v-.97-2.27-2.25-.98h-6.47V-64.7zm0 0"/></symbol><symbol overflow="visible" id="48b056b0b"><path d="M16.17-6.47H22.64v-.97-2.26-2.25-.99h-6.47V-6.47zm0 0H22.64v-.97-2.26-2.25-.99h-6.47V-6.47zm0 0H22.64v-.97-2.26-2.25-.99h-6.47V-6.47zm0 0H22.64v-.97-2.26-2.25-.99h-6.47V-6.47zM9.7-12.94H16.17v-.97-2.26-2.25-.99H9.7V-12.94zm0 0H16.17v-.97-2.26-2.25-.99H9.7V-12.94zm0 0H16.17v-.97-2.26-2.25-.99H9.7V-12.94zm0 0H16.17v-.97-2.26-2.25-.99H9.7V-12.94zm12.94 0H29.11v-.97-2.26-2.25-.99h-6.47V-12.94zm0 0H29.11v-.97-2.26-2.25-.99h-6.47V-12.94zm0 0H29.11v-.97-2.26-2.25-.99h-6.47V-12.94zm0 0H29.11v-.97-2.26-2.25-.99h-6.47V-12.94zM3.24-19.4H9.7v-.96-2.27-2.25-.98H3.23v6.46zm0 0H9.7v-.96-2.27-2.25-.98H3.23v6.46zm0 0H9.7v-.96-2.27-2.25-.98H3.23v6.46zm0 0H9.7v-.96-2.27-2.25-.98H3.23v6.46zm25.88 0H35.6v-.96-2.27-2.25-.98h-6.46v6.46zm0 0H35.6v-.96-2.27-2.25-.98h-6.46v6.46zm0 0H35.6v-.96-2.27-2.25-.98h-6.46v6.46zm0 0H35.6v-.96-2.27-2.25-.98h-6.46v6.46zm-32.35-6.46H3.23v-.97-2.27-2.25-.98H-3.23v6.46zm0 0H3.23v-.97-2.27-2.25-.98H-3.23v6.46zm0 0H3.23v-.97-2.27-2.25-.98H-3.23v6.46zm0 0H3.23v-.97-2.27-2.25-.98H-3.23v6.46zm38.82 0H42.06v-.97-2.27-2.25-.98H35.6v6.46zm0 0H42.06v-.97-2.27-2.25-.98H35.6v6.46zm0 0H42.06v-.97-2.27-2.25-.98H35.6v6.46zm0 0H42.06v-.97-2.27-2.25-.98H35.6v6.46zM3.23-32.37H9.7v-.97-2.26-2.25-.99H3.23V-32.36zm0 0H9.7v-.97-2.26-2.25-.99H3.23V-32.36zm0 0H9.7v-.97-2.26-2.25-.99H3.23V-32.36zm0 0H9.7v-.97-2.26-2.25-.99H3.23V-32.36zm25.9 0H35.59v-.97-2.26-2.25-.99h-6.46V-32.36zm0 0H35.59v-.97-2.26-2.25-.99h-6.46V-32.36zm0 0H35.59v-.97-2.26-2.25-.99h-6.46V-32.36zm0 0H35.59v-.97-2.26-2.25-.99h-6.46V-32.36zM9.7-38.83H16.17v-.97-2.26-2.25-.99H9.7V-38.83zm0 0H16.17v-.97-2.26-2.25-.99H9.7V-38.83zm0 0H16.17v-.97-2.26-2.25-.99H9.7V-38.83zm0 0H16.17v-.97-2.26-2.25-.99H9.7V-38.83zm12.94 0H29.11v-.97-2.26-2.25-.99h-6.47V-38.83zm0 0H29.11v-.97-2.26-2.25-.99h-6.47V-38.83zm0 0H29.11v-.97-2.26-2.25-.99h-6.47V-38.83zm0 0H29.11v-.97-2.26-2.25-.99h-6.47V-38.83zm-6.47-6.47H22.64v-.97-2.26-2.25-.99h-6.47V-45.3zm0 0H22.64v-.97-2.26-2.25-.99h-6.47V-45.3zm0 0H22.64v-.97-2.26-2.25-.99h-6.47V-45.3zm0 0H22.64v-.97-2.26-2.25-.99h-6.47V-45.3zm0 0"/></symbol><symbol overflow="visible" id="48b056b0c"><path d="M3.23-6.47H9.7v-.97-2.26-2.25-.99H3.23V-6.47zm0 0H9.7v-.97-2.26-2.25-.99H3.23V-6.47zm0 0H9.7v-.97-2.26-2.25-.99H3.23V-6.47zm0 0H9.7v-.97-2.26-2.25-.99H3.23V-6.47zm12.94 0H22.64v-.97-2.26-2.25-.99h-6.47V-6.47zm0 0H22.64v-.97-2.26-2.25-.99h-6.47V-6.47zm0 0H22.64v-.97-2.26-2.25-.99h-6.47V-6.47zm0 0H22.64v-.97-2.26-2.25-.99h-6.47V-6.47zm12.95 0H35.6v-.97-2.26-2.25-.99h-6.46V-6.47zm0 0H35.6v-.97-2.26-2.25-.99h-6.46V-6.47zm0 0H35.6v-.97-2.26-2.25-.99h-6.46V-6.47zm0 0H35.6v-.97-2.26-2.25-.99h-6.46V-6.47zM9.7-12.94H16.17v-.97-2.26-2.25-.99H9.7V-12.94zm0 0H16.17v-.97-2.26-2.25-.99H9.7V-12.94zm0 0H16.17v-.97-2.26-2.25-.99H9.7V-12.94zm0 0H16.17v-.97-2.26-2.25-.99H9.7V-12.94zm12.94 0H29.11v-.97-2.26-2.25-.99h-6.47V-12.94zm0 0H29.11v-.97-2.26-2.25-.99h-6.47V-12.94zm0 0H29.11v-.97-2.26-2.25-.99h-6.47V-12.94zm0 0H29.11v-.97-2.26-2.25-.99h-6.47V-12.94zm-6.47-6.47H22.64v-.96-2.27-2.25-.98h-6.47v6.46zm0 0H22.64v-.96-2.27-2.25-.98h-6.47v6.46zm0 0H22.64v-.96-2.27-2.25-.98h-6.47v6.46zm0 0H22.64v-.96-2.27-2.25-.98h-6.47v6.46zm0-12.95H22.64v-.97-2.26-2.25-.99h-6.47V-32.36zm0 0H22.64v-.97-2.26-2.25-.99h-6.47V-32.36zm0 0H22.64v-.97-2.26-2.25-.99h-6.47V-32.36zm0 0H22.64v-.97-2.26-2.25-.99h-6.47V-32.36zM9.7-38.83H16.17v-.97-2.26-2.25-.99H9.7V-38.83zm0 0H16.17v-.97-2.26-2.25-.99H9.7V-38.83zm0 0H16.17v-.97-2.26-2.25-.99H9.7V-38.83zm0 0H16.17v-.97-2.26-2.25-.99H9.7V-38.83zm12.94 0H29.11v-.97-2.26-2.25-.99h-6.47V-38.83zm0 0H29.11v-.97-2.26-2.25-.99h-6.47V-38.83zm0 0H29.11v-.97-2.26-2.25-.99h-6.47V-38.83zm0 0H29.11v-.97-2.26-2.25-.99h-6.47V-38.83zM3.24-45.3H9.7v-.97-2.26-2.25-.99H3.23V-45.3zm0 0H9.7v-.97-2.26-2.25-.99H3.23V-45.3zm0 0H9.7v-.97-2.26-2.25-.99H3.23V-45.3zm0 0H9.7v-.97-2.26-2.25-.99H3.23V-45.3zm12.93 0H22.64v-.97-2.26-2.25-.99h-6.47V-45.3zm0 0H22.64v-.97-2.26-2.25-.99h-6.47V-45.3zm0 0H22.64v-.97-2.26-2.25-.99h-6.47V-45.3zm0 0H22.64v-.97-2.26-2.25-.99h-6.47V-45.3zm12.95 0H35.6v-.97-2.26-2.25-.99h-6.46V-45.3zm0 0H35.6v-.97-2.26-2.25-.99h-6.46V-45.3zm0 0H35.6v-.97-2.26-2.25-.99h-6.46V-45.3zm0 0H35.6v-.97-2.26-2.25-.99h-6.46V-45.3zm0 0"/></symbol><symbol overflow="visible" id="48b056b0d"><path d="M16.17-6.47H22.64v-.97-2.26-2.25-.99h-6.47V-6.47zm0 0H22.64v-.97-2.26-2.25-.99h-6.47V-6.47zm0 0H22.64v-.97-2.26-2.25-.99h-6.47V-6.47zm0 0H22.64v-.97-2.26-2.25-.99h-6.47V-6.47zM9.7-12.94H16.17v-.97-2.26-2.25-.99H9.7V-12.94zm0 0H16.17v-.97-2.26-2.25-.99H9.7V-12.94zm0 0H16.17v-.97-2.26-2.25-.99H9.7V-12.94zm0 0H16.17v-.97-2.26-2.25-.99H9.7V-12.94zm12.94 0H29.11v-.97-2.26-2.25-.99h-6.47V-12.94zm0 0H29.11v-.97-2.26-2.25-.99h-6.47V-12.94zm0 0H29.11v-.97-2.26-2.25-.99h-6.47V-12.94zm0 0H29.11v-.97-2.26-2.25-.99h-6.47V-12.94zM3.24-19.4H9.7v-.96-2.27-2.25-.98H3.23v6.46zm0 0H9.7v-.96-2.27-2.25-.98H3.23v6.46zm0 0H9.7v-.96-2.27-2.25-.98H3.23v6.46zm0 0H9.7v-.96-2.27-2.25-.98H3.23v6.46zm25.88 0H35.6v-.96-2.27-2.25-.98h-6.46v6.46zm0 0H35.6v-.96-2.27-2.25-.98h-6.46v6.46zm0 0H35.6v-.96-2.27-2.25-.98h-6.46v6.46zm0 0H35.6v-.96-2.27-2.25-.98h-6.46v6.46zm-32.35-6.46H3.23v-.97-2.27-2.25-.98H-3.23v6.46zm0 0H3.23v-.97-2.27-2.25-.98H-3.23v6.46zm0 0H3.23v-.97-2.27-2.25-.98H-3.23v6.46zm0 0H3.23v-.97-2.27-2.25-.98H-3.23v6.46zm19.4 0H22.64v-.97-2.27-2.25-.98h-6.47v6.46zm0 0H22.64v-.97-2.27-2.25-.98h-6.47v6.46zm0 0H22.64v-.97-2.27-2.25-.98h-6.47v6.46zm0 0H22.64v-.97-2.27-2.25-.98h-6.47v6.46zm19.42 0H42.06v-.97-2.27-2.25-.98H35.6v6.46zm0 0H42.06v-.97-2.27-2.25-.98H35.6v6.46zm0 0H42.06v-.97-2.27-2.25-.98H35.6v6.46zm0 0H42.06v-.97-2.27-2.25-.98H35.6v6.46zM3.23-32.37H9.7v-.97-2.26-2.25-.99H3.23V-32.36zm0 0H9.7v-.97-2.26-2.25-.99H3.23V-32.36zm0 0H9.7v-.97-2.26-2.25-.99H3.23V-32.36zm0 0H9.7v-.97-2.26-2.25-.99H3.23V-32.36zm25.9 0H35.59v-.97-2.26-2.25-.99h-6.46V-32.36zm0 0H35.59v-.97-2.26-2.25-.99h-6.46V-32.36zm0 0H35.59v-.97-2.26-2.25-.99h-6.46V-32.36zm0 0H35.59v-.97-2.26-2.25-.99h-6.46V-32.36zM9.7-38.83H16.17v-.97-2.26-2.25-.99H9.7V-38.83zm0 0H16.17v-.97-2.26-2.25-.99H9.7V-38.83zm0 0H16.17v-.97-2.26-2.25-.99H9.7V-38.83zm0 0H16.17v-.97-2.26-2.25-.99H9.7V-38.83zm12.94 0H29.11v-.97-2.26-2.25-.99h-6.47V-38.83zm0 0H29.11v-.97-2.26-2.25-.99h-6.47V-38.83zm0 0H29.11v-.97-2.26-2.25-.99h-6.47V-38.83zm0 0H29.11v-.97-2.26-2.25-.99h-6.47V-38.83zm-6.47-6.47H22.64v-.97-2.26-2.25-.99h-6.47V-45.3zm0 0H22.64v-.97-2.26-2.25-.99h-6.47V-45.3zm0 0H22.64v-.97-2.26-2.25-.99h-6.47V-45.3zm0 0H22.64v-.97-2.26-2.25-.99h-6.47V-45.3zm0 0"/></symbol><symbol overflow="visible" id="48b056b0e"><path d="M9.7-6.47H16.17v-.97-2.26-2.25-.99H9.7V-6.47zm0 0H16.17v-.97-2.26-2.25-.99H9.7V-6.47zm0 0H16.17v-.97-2.26-2.25-.99H9.7V-6.47zm0 0H16.17v-.97-2.26-2.25-.99H9.7V-6.47zm12.94 0H29.11v-.97-2.26-2.25-.99h-6.47V-6.47zm0 0H29.11v-.97-2.26-2.25-.99h-6.47V-6.47zm0 0H29.11v-.97-2.26-2.25-.99h-6.47V-6.47zm0 0H29.11v-.97-2.26-2.25-.99h-6.47V-6.47zm-6.47-6.47H22.64v-.97-2.26-2.25-.99h-6.47V-12.94zm0 0H22.64v-.97-2.26-2.25-.99h-6.47V-12.94zm0 0H22.64v-.97-2.26-2.25-.99h-6.47V-12.94zm0 0H22.64v-.97-2.26-2.25-.99h-6.47V-12.94zm0-25.89H22.64v-.97-2.26-2.25-.99h-6.47V-38.83zm0 0H22.64v-.97-2.26-2.25-.99h-6.47V-38.83zm0 0H22.64v-.97-2.26-2.25-.99h-6.47V-38.83zm0 0H22.64v-.97-2.26-2.25-.99h-6.47V-38.83zM9.7-45.3H16.17v-.97-2.26-2.25-.99H9.7V-45.3zm0 0H16.17v-.97-2.26-2.25-.99H9.7V-45.3zm0 0H16.17v-.97-2.26-2.25-.99H9.7V-45.3zm0 0H16.17v-.97-2.26-2.25-.99H9.7V-45.3zm12.94 0H29.11v-.97-2.26-2.25-.99h-6.47V-45.3zm0 0H29.11v-.97-2.26-2.25-.99h-6.47V-45.3zm0 0H29.11v-.97-2.26-2.25-.99h-6.47V-45.3zm0 0H29.11v-.97-2.26-2.25-.99h-6.47V-45.3zm0 0"/></symbol><symbol overflow="visible" id="48b056b0f"><path d="M3.83 0v-5.95H6.2v-.82H.45v.82h2.4V0zm0 0"/></symbol><symbol overflow="visible" id="48b056b0g"><path d="M5.75-2.23v-.43c0-1.6-.9-2.51-2.42-2.51S.87-4.16.87-2.48c0 1.71.91 2.62 2.5 2.62 1.43 0 2.07-.56 2.29-1.52l-.9-.09c-.18.61-.59.9-1.35.9-.94 0-1.52-.54-1.58-1.66zm-2.4-2.2c.93 0 1.43.5 1.48 1.55H1.84c.08-1.07.6-1.56 1.5-1.56zm0 0"/></symbol><symbol overflow="visible" id="48b056b0h"><path d="M1.83 0l1.42-2h.06l1.46 2H5.8L4-2.53l1.78-2.49H4.8L3.42-3.08h-.08l-1.4-1.94H.89l1.78 2.49L.84 0zm0 0"/></symbol><symbol overflow="visible" id="48b056b0i"><path d="M5.52-4.25v-.77H3.17v-1.56h-.81l-.14 1.56H.75v.77h1.47v2.4c0 1.3.48 1.94 1.84 1.94C4.6.1 5.14 0 5.55-.14L5.4-.91c-.32.13-.72.2-1.13.2-.8 0-1.1-.37-1.1-1.23v-2.31zm0 0"/></symbol><symbol overflow="visible" id="48b056b0j"><path d="M3.33-3.42c.47 0 .8-.27.8-.8 0-.51-.33-.8-.8-.8-.47 0-.8.29-.8.8 0 .53.33.8.8.8zm0 3.5c.47 0 .8-.27.8-.78 0-.53-.33-.82-.8-.82-.47 0-.8.29-.8.82 0 .51.33.78.8.78zm0 0"/></symbol><symbol overflow="visible" id="48b056b0l"><path d="M2.45.4c0 1.18 1.07 1.57 2.99 1.6l.08-.64C4.14 1.3 3.4 1.08 3.4.26c0-.46.23-1.24.23-1.93S3.27-2.75 2.36-2.9v-.06c.9-.14 1.28-.55 1.28-1.24 0-.68-.23-1.47-.23-1.93 0-.82.73-1.02 2.1-1.1l-.07-.64c-1.92.05-2.99.42-2.99 1.61 0 .63.24 1.4.24 2 0 .63-.27.94-1.53 1.02v.6c1.26.08 1.53.4 1.53 1.02 0 .61-.24 1.38-.24 2zm0 0"/></symbol><symbol overflow="visible" id="48b056b0m"><path d="M3.42.14c1.58 0 2.49-.86 2.49-2.3 0-1.42-.86-2.17-2.22-2.17-1.03 0-1.58.5-1.9 1.02h-.04c.03-1.63.4-2.77 1.73-2.77.91 0 1.24.44 1.36.96l.97-.11c-.23-.96-.86-1.68-2.33-1.68C1.84-6.9.86-5.86.86-3.1.86-.9 1.78.14 3.42.14zm.02-.78c-.9 0-1.47-.55-1.47-1.47 0-.9.7-1.47 1.53-1.47.92 0 1.47.52 1.47 1.47 0 .97-.6 1.47-1.53 1.47zm0 0"/></symbol><symbol overflow="visible" id="48b056b0n"><path d="M5.1 0v-1.47H6v-.81h-.9v-4.49H3.8L.48-2.23v.76h3.66V0zM1.5-2.33l2.6-3.53h.04v3.58H1.5zm0 0"/></symbol><symbol overflow="visible" id="48b056b0o"><path d="M.92-4.42h.88v-1.49h3.1v.05L2.27 0H3.3l2.64-6v-.77H.92zm0 0"/></symbol><symbol overflow="visible" id="48b056b0p"><path d="M3.42.14c1.55 0 2.44-.84 2.44-2.33 0-1.45-.83-2.22-2.14-2.22-.75 0-1.28.27-1.67.72H2l.31-2.22h3.11v-.86H1.53l-.45 3.93h.81c.3-.36.9-.79 1.58-.79.92 0 1.44.43 1.44 1.47 0 .99-.54 1.5-1.49 1.5-.83 0-1.28-.32-1.5-1.01l-.95.1C1.07-.46 2 .13 3.42.13zm0 0"/></symbol><symbol overflow="visible" id="48b056b0q"><path d="M3.03-1.69c0 .67.22 1.46.22 1.94 0 .81-.72 1.02-2.1 1.1l.08.62c1.93-.03 2.99-.4 2.99-1.61 0-.63-.24-1.4-.24-2 0-.63.27-.94 1.54-1v-.63c-1.27-.06-1.54-.37-1.54-1 0-.6.24-1.37.24-2 0-1.2-1.06-1.57-2.99-1.6l-.07.62c1.37.08 2.09.28 2.09 1.1 0 .48-.22 1.26-.22 1.95 0 .67.36 1.1 1.28 1.23v.05c-.92.14-1.28.54-1.28 1.23zm0 0"/></symbol><symbol overflow="visible" id="48b056b0r"><path d="M5.95-6.77H1.1V0h.99v-2.92H5.3v-.77H2.08v-2.26h3.87zm0 0"/></symbol><symbol overflow="visible" id="48b056b0s"><path d="M2.83.14c.94 0 1.5-.39 1.81-.95h.08l.1.81h.76v-3.38c0-1.23-.69-1.8-2.13-1.8-1.43 0-2.03.65-2.18 1.6l.93.1c.11-.6.44-.93 1.22-.93.85 0 1.22.32 1.22 1.04v.34l-1.81.2C1.6-2.7 1.1-2.17 1.1-1.28c0 .92.64 1.42 1.72 1.42zm.25-.77c-.67 0-1.02-.28-1.02-.74 0-.44.28-.72 1-.82l1.58-.19v.41c0 .8-.6 1.34-1.56 1.34zm0 0"/></symbol><symbol overflow="visible" id="48b056b0t"><path d="M2.73.14c.9 0 1.43-.45 1.74-1.08h.06l.13.94h.8v-5.02h-.94v2.7c0 .98-.57 1.62-1.46 1.62-.75 0-1.1-.4-1.1-1.22v-3.1h-.93v3.32c0 1.17.55 1.84 1.7 1.84zm0 0"/></symbol><symbol overflow="visible" id="48b056b0u"><path d="M5.08-5.16c-.94 0-1.58.43-1.9 1.3h-.09l-.07-1.16H1.05v.77h1.1v3.48H.96V0h3.96v-.77H3.1v-1.46c0-1.36.6-2.05 1.83-2.05.4 0 .76.08 1.1.17l.15-.87c-.33-.11-.7-.18-1.11-.18zm0 0"/></symbol><symbol overflow="visible" id="48b056b0v"><path d="M3.42.14C5.1.14 5.9-.69 6.11-2.17l-.95-.1C4.96-1.19 4.5-.69 3.44-.69c-1.27 0-1.81-.94-1.81-2.69s.54-2.7 1.8-2.7c1.09 0 1.5.49 1.73 1.58l.93-.1c-.21-1.46-.95-2.3-2.62-2.3C1.53-6.9.62-5.6.62-3.38c0 2.2.91 3.51 2.8 3.51zm0 0"/></symbol><symbol overflow="visible" id="48b056b0w"><path d="M3.33.14c1.62 0 2.5-.95 2.5-2.66 0-1.68-.88-2.64-2.5-2.64-1.63 0-2.5.96-2.5 2.64 0 1.7.87 2.66 2.5 2.66zm0-.77c-1.06 0-1.52-.6-1.52-1.89 0-1.28.46-1.87 1.52-1.87 1.08 0 1.53.6 1.53 1.87 0 1.29-.45 1.9-1.53 1.9zm0 0"/></symbol><symbol overflow="visible" id="48b056b0x"><path d="M1.63 0v-2.9c0-.8.15-1.4.71-1.4.41 0 .55.3.55.88V0h.95v-2.9c0-.8.18-1.4.72-1.4.4 0 .57.3.57.88V0h.95v-3.63c0-.92-.28-1.53-1.11-1.53-.63 0-.95.41-1.1.9h-.06c-.1-.52-.44-.9-1.08-.9-.6 0-.93.41-1.06.9H1.6l-.23-.76H.67V0zm0 0"/></symbol><symbol overflow="visible" id="48b056b0y"><path d="M3.9.14c1.48 0 2.18-.98 2.18-2.64 0-1.67-.7-2.66-2.17-2.66-.91 0-1.49.41-1.79 1h-.06v-2.98h-.95V0h.81l.11-.9h.06c.29.63.82 1.04 1.82 1.04zm-.32-.8c-1.08 0-1.55-.8-1.55-1.84 0-1.06.47-1.86 1.55-1.86 1.1 0 1.51.61 1.51 1.86S4.64-.66 3.58-.66zm0 0"/></symbol><symbol overflow="visible" id="48b056b0z"><path d="M3.58-5.81c.42 0 .72-.22.72-.67 0-.44-.3-.68-.72-.68-.44 0-.72.24-.72.68 0 .45.28.67.72.67zm.5.8H1.52v.76h1.6v3.48h-1.8V0h4.46v-.77h-1.7zm0 0"/></symbol><symbol overflow="visible" id="48b056b0A"><path d="M2.16 0v-2.67c0-.99.59-1.63 1.46-1.63.74 0 1.07.38 1.07 1.22V0h.95v-3.31c0-1.2-.56-1.85-1.67-1.85-.92 0-1.49.46-1.77 1.08h-.06l-.12-.94H1.2V0zm0 0"/></symbol><symbol overflow="visible" id="48b056b0B"><path d="M3.16 2.03c1.67 0 2.4-.86 2.4-2.51v-4.54h-.81l-.13.91h-.06c-.26-.58-.8-1.05-1.73-1.05-1.42 0-2.24 1-2.24 2.52 0 1.6.75 2.56 2.2 2.56.94 0 1.5-.5 1.77-1.03h.05v.72c0 1.17-.42 1.67-1.45 1.67-.93 0-1.3-.34-1.41-.89L.8.5c.12.96.87 1.54 2.36 1.54zM3.06-.8c-.98 0-1.48-.57-1.48-1.82 0-1.13.5-1.75 1.48-1.75 1.06 0 1.58.76 1.58 1.75 0 .95-.56 1.82-1.58 1.82zm0 0"/></symbol><symbol overflow="visible" id="48b056b0C"><path d="M2.06 1.9V-.84h.05c.28.58.8.97 1.77.97 1.5 0 2.2-.98 2.2-2.66 0-1.65-.7-2.64-2.19-2.64-.97 0-1.5.44-1.78 1.05h-.08l-.1-.9H1.1v6.9zm1.5-2.56c-1.06 0-1.53-.8-1.53-1.86 0-1.04.47-1.84 1.53-1.84 1.11 0 1.53.61 1.53 1.84 0 1.27-.42 1.86-1.53 1.86zm0 0"/></symbol><symbol overflow="visible" id="48b056b0D"><path d="M3.36.16c1.4 0 2.2-.6 2.2-1.57 0-.89-.54-1.22-1.47-1.39L3-3c-.67-.14-.86-.33-.86-.73 0-.5.4-.74 1.17-.74.83 0 1.19.27 1.27.8l.9-.05c-.12-1-.8-1.47-2.17-1.47-1.34 0-2.1.53-2.1 1.5 0 .81.45 1.22 1.52 1.44l1.04.2c.56.11.87.24.87.72 0 .52-.45.78-1.28.78-.95 0-1.36-.28-1.42-.87l-.9.06C1.07-.36 1.8.16 3.35.16zm0 0"/></symbol><symbol overflow="visible" id="48b056b0E"><path d="M1.45-2.95c0 2.56 1.08 4.37 3.67 4.84l.11-.67C3.28.86 2.43-.75 2.43-2.95s.85-3.82 2.8-4.16l-.1-.69c-2.6.49-3.68 2.3-3.68 4.85zm0 0"/></symbol><symbol overflow="visible" id="48b056b0F"><path d="M3.33.14c1.65 0 2.6-1.1 2.6-3.52S4.99-6.9 3.34-6.9C1.67-6.9.72-5.8.72-3.37c0 2.4.95 3.51 2.6 3.51zm0-.84c-1.13 0-1.6-.85-1.6-2.67 0-1.86.47-2.7 1.6-2.7 1.12 0 1.6.84 1.6 2.7 0 1.82-.48 2.67-1.6 2.67zM3.3-2.64c.38 0 .56-.28.56-.72 0-.44-.18-.7-.56-.7-.39 0-.56.26-.56.7 0 .44.17.72.56.72zm0 0"/></symbol><symbol overflow="visible" id="48b056b0G"><path d="M3.25-6.9C1.67-6.9.77-6.04.77-4.6c0 1.41.85 2.18 2.21 2.18 1.04 0 1.58-.52 1.88-1.03h.06c0 1.54-.39 2.78-1.73 2.78-.9 0-1.24-.44-1.36-.97l-.97.1c.22.96.86 1.68 2.33 1.68C4.83.14 5.8-.9 5.8-3.64c0-2.22-.92-3.27-2.56-3.27zm-.02.8c.91 0 1.46.52 1.46 1.44 0 .91-.69 1.47-1.53 1.47-.91 0-1.46-.51-1.46-1.47S2.3-6.1 3.23-6.1zm0 0"/></symbol><symbol overflow="visible" id="48b056b0H"><path d="M1.45-7.1c1.96.33 2.8 1.94 2.8 4.15 0 2.2-.84 3.8-2.8 4.17l.11.67c2.58-.47 3.67-2.28 3.67-4.84 0-2.55-1.09-4.36-3.67-4.85zm0 0"/></symbol></defs><g fill="#eaf734"><use xlink:href="#48b056b0a" x="86.47059" y="165"/><use xlink:href="#48b056b0b" x="86.47059" y="165"/><use xlink:href="#48b056b0a" x="125.2941" y="165"/><use xlink:href="#48b056b0c" x="125.2941" y="165"/><use xlink:href="#48b056b0a" x="164.1176" y="165"/><use xlink:href="#48b056b0d" x="164.1176" y="165"/><use xlink:href="#48b056b0a" x="202.9412" y="165"/><use xlink:href="#48b056b0e" x="202.9412" y="165"/><use xlink:href="#48b056b0a" x="241.7647" y="165"/><use xlink:href="#48b056b0b" x="241.7647" y="165"/><use xlink:href="#48b056b0a" x="280.5882" y="165"/><use xlink:href="#48b056b0c" x="280.5882" y="165"/><use xlink:href="#48b056b0a" x="319.4118" y="165"/><use xlink:href="#48b056b0d" x="319.4118" y="165"/><g><use xlink:href="#48b056b0a" x="358.2353" y="165"/><use xlink:href="#48b056b0e" x="358.2353" y="165"/></g><g><use xlink:href="#48b056b0a" x="397.0588" y="165"/><use xlink:href="#48b056b0b" x="397.0588" y="165"/></g><g><use xlink:href="#48b056b0a" x="435.8824" y="165"/><use xlink:href="#48b056b0c" x="435.8824" y="165"/></g><g><use xlink:href="#48b056b0a" x="474.7059" y="165"/><use xlink:href="#48b056b0d" x="474.7059" y="165"/></g><g><use xlink:href="#48b056b0f" x="236.6667" y="252"/><use xlink:href="#48b056b0g" x="243.3337" y="252"/><use xlink:href="#48b056b0h" x="250.0007" y="252"/><use xlink:href="#48b056b0i" x="256.6677" y="252"/><use xlink:href="#48b056b0j" x="263.3347" y="252"/><use xlink:href="#48b056b0k" x="270.0017" y="252"/><use xlink:href="#48b056b0l" x="276.6687" y="252"/><use xlink:href="#48b056b0m" x="283.3357" y="252"/><use xlink:href="#48b056b0n" x="290.0027" y="252"/><use xlink:href="#48b056b0o" x="296.6697" y="252"/><use xlink:href="#48b056b0p" x="303.3367" y="252"/><use xlink:href="#48b056b0m" x="310.0037" y="252"/><use xlink:href="#48b056b0n" x="316.6707" y="252"/><use xlink:href="#48b056b0o" x="323.3377" y="252"/><use xlink:href="#48b056b0p" x="330.0047" y="252"/><use xlink:href="#48b056b0m" x="336.6717" y="252"/><use xlink:href="#48b056b0n" x="343.3387" y="252"/><use xlink:href="#48b056b0o" x="350.0057" y="252"/><use xlink:href="#48b056b0q" x="356.6727" y="252"/></g><g><use xlink:href="#48b056b0r" x="186.6667" y="266"/><use xlink:href="#48b056b0g" x="193.3337" y="266"/><use xlink:href="#48b056b0s" x="200.0007" y="266"/><use xlink:href="#48b056b0i" x="206.6677" y="266"/><use xlink:href="#48b056b0t" x="213.3347" y="266"/><use xlink:href="#48b056b0u" x="220.0017" y="266"/><use xlink:href="#48b056b0g" x="226.6687" y="266"/><use xlink:href="#48b056b0j" x="233.3357" y="266"/><use xlink:href="#48b056b0k" x="240.0027" y="266"/><use xlink:href="#48b056b0v" x="246.6697" y="266"/><use xlink:href="#48b056b0w" x="253.3367" y="266"/><use xlink:href="#48b056b0x" x="260.0037" y="266"/><use xlink:href="#48b056b0y" x="266.6707" y="266"/><use xlink:href="#48b056b0z" x="273.3377" y="266"/><use xlink:href="#48b056b0A" x="280.0047" y="266"/><use xlink:href="#48b056b0z" x="286.6717" y="266"/><use xlink:href="#48b056b0A" x="293.3387" y="266"/><use xlink:href="#48b056b0B" x="300.0057" y="266"/><use xlink:href="#48b056b0k" x="306.6727" y="266"/><use xlink:href="#48b056b0C" x="313.3397" y="266"/><use xlink:href="#48b056b0s" x="320.0067" y="266"/><use xlink:href="#48b056b0i" x="326.6737" y="266"/><use xlink:href="#48b056b0i" x="333.3407" y="266"/><use xlink:href="#48b056b0g" x="340.0077" y="266"/><use xlink:href="#48b056b0u" x="346.6747" y="266"/><use xlink:href="#48b056b0A" x="353.3417" y="266"/><use xlink:href="#48b056b0D" x="360.0087" y="266"/><use xlink:href="#48b056b0k" x="366.6757" y="266"/><use xlink:href="#48b056b0E" x="373.3427" y="266"/><use xlink:href="#48b056b0D" x="380.0097" y="266"/><use xlink:href="#48b056b0D" x="386.6767" y="266"/><use xlink:href="#48b056b0F" x="393.3437" y="266"/><use xlink:href="#48b056b0G" x="400.0107" y="266"/><use xlink:href="#48b056b0H" x="406.6777" y="266"/></g></g></svg>