<?xml version='1.0' encoding='UTF-8'?>
<svg xmlns="http://www.w3.org/2000/svg" xmlns:xlink="http://www.w3.org/1999/xlink" width="600px" height="300px" viewBox="0 0 600 300" x="0px" y="0px" enable-background="new 0 0 600 300"><defs><symbol overflow="visible" id="e8f32b35a"><path d="M6.47 0h6.47v-.97-2.26-2.25-.99H6.47V0zm0 0h6.47v-.97-2.26-2.25-.99H6.47V0zm0 0h6.47v-.97-2.26-2.25-.99H6.47V0zm0 0h6.47v-.97-2.26-2.25-.99H6.47V0zm6.47 0h6.47v-.97-2.26-2.25-.99h-6.47V0zm0 0h6.47v-.97-2.26-2.25-.99h-6.47V0zm0 0h6.47v-.97-2.26-2.25-.99h-6.47V0zm0 0h6.47v-.97-2.26-2.25-.99h-6.47V0zm6.47 0H25.87v-.97-2.26-2.25-.99h-6.46V0zm0 0H25.87v-.97-2.26-2.25-.99h-6.46V0zm0 0H25.87v-.97-2.26-2.25-.99h-6.46V0zm0 0H25.87v-.97-2.26-2.25-.99h-6.46V0zm6.46 0H32.34v-.97-2.26-2.25-.99h-6.46V0zm0 0H32.34v-.97-2.26-2.25-.99h-6.46V0zm0 0H32.34v-.97-2.26-2.25-.99h-6.46V0zm0 0H32.34v-.97-2.26-2.25-.99h-6.46V0zm6.49 0h6.47v-.97-2.26-2.25-.99h-6.47V0zm0 0h6.47v-.97-2.26-2.25-.99h-6.47V0zm0 0h6.47v-.97-2.26-2.25-.99h-6.47V0zm0 0h6.47v-.97-2.26-2.25-.99h-6.47V0zM19.4-6.47H25.87v-.97-2.26-2.25-.99h-6.46V-6.47zm0 0H25.87v-.97-2.26-2.25-.99h-6.46V-6.47zm0 0H25.87v-.97-2.26-2.25-.99h-6.46V-6.47zm0 0H25.87v-.97-2.26-2.25-.99h-6.46V-6.47zm0-6.47H25.87v-.97-2.26-2.25-.99h-6.46V-12.94zm0 0H25.87v-.97-2.26-2.25-.99h-6.46V-12.94zm0 0H25.87v-.97-2.26-2.25-.99h-6.46V-12.94zm0 0H25.87v-.97-2.26-2.25-.99h-6.46V-12.94zm0-6.47H25.87v-.96-2.27-2.25-.98h-6.46v6.46zm0 0H25.87v-.96-2.27-2.25-.98h-6.46v6.46zm0 0H25.87v-.96-2.27-2.25-.98h-6.46v6.46zm0 0H25.87v-.96-2.27-2.25-.98h-6.46v6.46zm0-6.46H25.87v-.97-2.27-2.25-.98h-6.46v6.46zm0 0H25.87v-.97-2.27-2.25-.98h-6.46v6.46zm0 0H25.87v-.97-2.27-2.25-.98h-6.46v6.46zm0 0H25.87v-.97-2.27-2.25-.98h-6.46v6.46zm0-6.49H25.87v-.97-2.26-2.25-.99h-6.46V-32.36zm0 0H25.87v-.97-2.26-2.25-.99h-6.46V-32.36zm0 0H25.87v-.97-2.26-2.25-.99h-6.46V-32.36zm0 0H25.87v-.97-2.26-2.25-.99h-6.46V-32.36zm0-6.47H25.87v-.97-2.26-2.25-.99h-6.46V-38.83zm0 0H25.87v-.97-2.26-2.25-.99h-6.46V-38.83zm0 0H25.87v-.97-2.26-2.25-.99h-6.46V-38.83zm0 0H25.87v-.97-2.26-2.25-.99h-6.46V-38.83zm0-6.47H25.87v-.97-2.26-2.25-.99h-6.46V-45.3zm0 0H25.87v-.97-2.26-2.25-.99h-6.46V-45.3zm0 0H25.87v-.97-2.26-2.25-.99h-6.46V-45.3zm0 0H25.87v-.97-2.26-2.25-.99h-6.46V-45.3zm0-6.47H25.87v-.96V-55v-2.25-.98h-6.46v6.46zm0 0H25.87v-.96V-55v-2.25-.98h-6.46v6.46zm0 0H25.87v-.96V-55v-2.25-.98h-6.46v6.46zm0 0H25.87v-.96V-55v-2.25-.98h-6.46v6.46zM6.47-58.23h6.47v-.97-2.27-2.25-.98H6.47V-58.23zm0 0h6.47v-.97-2.27-2.25-.98H6.47V-58.23zm0 0h6.47v-.97-2.27-2.25-.98H6.47V-58.23zm0 0h6.47v-.97-2.27-2.25-.98H6.47V-58.23zm12.94 0H25.87v-.97-2.27-2.25-.98h-6.46V-58.23zm0 0H25.87v-.97-2.27-2.25-.98h-6.46V-58.23zm0 0H25.87v-.97-2.27-2.25-.98h-6.46V-58.23zm0 0H25.87v-.97-2.27-2.25-.98h-6.46V-58.23zm-6.47-3.24h6.47v-.97-2.26-2.25-.99h-6.47V-61.47zm0 0h6.47v-.97-2.26-2.25-.99h-6.47V-61.47zm0 0h6.47v-.97-2.26-2.25-.99h-6.47V-61.47zm0 0h6.47v-.97-2.26-2.25-.99h-6.47V-61.47zm6.47-3.23H25.87v-.97-2.27-2.25-.98h-6.46V-64.7zm0 0H25.87v-.97-2.27-2.25-.98h-6.46V-64.7zm0 0H25.87v-.97-2.27-2.25-.98h-6.46V-64.7zm0 0H25.87v-.97-2.27-2.25-.98h-6.46V-64.7zm0 0"/></symbol><symbol overflow="visible" id="e8f32b35b"><path d="M12.94 0h6.47v-.97-2.26-2.25-.99h-6.47V0zm0 0h6.47v-.97-2.26-2.25-.99h-6.47V0zm0 0h6.47v-.97-2.26-2.25-.99h-6.47V0zm0 0h6.47v-.97-2.26-2.25-.99h-6.47V0zm6.47 0H25.87v-.97-2.26-2.25-.99h-6.46V0zm0 0H25.87v-.97-2.26-2.25-.99h-6.46V0zm0 0H25.87v-.97-2.26-2.25-.99h-6.46V0zm0 0H25.87v-.97-2.26-2.25-.99h-6.46V0zm6.46 0H32.34v-.97-2.26-2.25-.99h-6.46V0zm0 0H32.34v-.97-2.26-2.25-.99h-6.46V0zm0 0H32.34v-.97-2.26-2.25-.99h-6.46V0zm0 0H32.34v-.97-2.26-2.25-.99h-6.46V0zM6.48-6.47h6.47v-.97-2.26-2.25-.99H6.47V-6.47zm0 0h6.47v-.97-2.26-2.25-.99H6.47V-6.47zm0 0h6.47v-.97-2.26-2.25-.99H6.47V-6.47zm0 0h6.47v-.97-2.26-2.25-.99H6.47V-6.47zm25.89 0h6.47v-.97-2.26-2.25-.99h-6.47V-6.47zm0 0h6.47v-.97-2.26-2.25-.99h-6.47V-6.47zm0 0h6.47v-.97-2.26-2.25-.99h-6.47V-6.47zm0 0h6.47v-.97-2.26-2.25-.99h-6.47V-6.47zm-25.9-6.47h6.48v-.97-2.26-2.25-.99H6.47V-12.94zm0 0h6.48v-.97-2.26-2.25-.99H6.47V-12.94zm0 0h6.48v-.97-2.26-2.25-.99H6.47V-12.94zm0 0h6.48v-.97-2.26-2.25-.99H6.47V-12.94zm25.9 0h6.47v-.97-2.26-2.25-.99h-6.47V-12.94zm0 0h6.47v-.97-2.26-2.25-.99h-6.47V-12.94zm0 0h6.47v-.97-2.26-2.25-.99h-6.47V-12.94zm0 0h6.47v-.97-2.26-2.25-.99h-6.47V-12.94zM6.46-19.4h6.48v-.96-2.27-2.25-.98H6.47v6.46zm0 0h6.48v-.96-2.27-2.25-.98H6.47v6.46zm0 0h6.48v-.96-2.27-2.25-.98H6.47v6.46zm0 0h6.48v-.96-2.27-2.25-.98H6.47v6.46zm25.9 0h6.47v-.96-2.27-2.25-.98h-6.47v6.46zm0 0h6.47v-.96-2.27-2.25-.98h-6.47v6.46zm0 0h6.47v-.96-2.27-2.25-.98h-6.47v6.46zm0 0h6.47v-.96-2.27-2.25-.98h-6.47v6.46zm-25.9-6.46h6.48v-.97-2.27-2.25-.98H6.47v6.46zm0 0h6.48v-.97-2.27-2.25-.98H6.47v6.46zm0 0h6.48v-.97-2.27-2.25-.98H6.47v6.46zm0 0h6.48v-.97-2.27-2.25-.98H6.47v6.46zm25.9 0h6.47v-.97-2.27-2.25-.98h-6.47v6.46zm0 0h6.47v-.97-2.27-2.25-.98h-6.47v6.46zm0 0h6.47v-.97-2.27-2.25-.98h-6.47v6.46zm0 0h6.47v-.97-2.27-2.25-.98h-6.47v6.46zm-19.42-6.49h6.47v-.97-2.26-2.25-.99h-6.47V-32.36zm0 0h6.47v-.97-2.26-2.25-.99h-6.47V-32.36zm0 0h6.47v-.97-2.26-2.25-.99h-6.47V-32.36zm0 0h6.47v-.97-2.26-2.25-.99h-6.47V-32.36zm6.47 0H25.87v-.97-2.26-2.25-.99h-6.46V-32.36zm0 0H25.87v-.97-2.26-2.25-.99h-6.46V-32.36zm0 0H25.87v-.97-2.26-2.25-.99h-6.46V-32.36zm0 0H25.87v-.97-2.26-2.25-.99h-6.46V-32.36zm6.46 0H32.34v-.97-2.26-2.25-.99h-6.46V-32.36zm0 0H32.34v-.97-2.26-2.25-.99h-6.46V-32.36zm0 0H32.34v-.97-2.26-2.25-.99h-6.46V-32.36zm0 0H32.34v-.97-2.26-2.25-.99h-6.46V-32.36zm-19.4-6.47h6.47v-.97-2.26-2.25-.99H6.47V-38.83zm0 0h6.47v-.97-2.26-2.25-.99H6.47V-38.83zm0 0h6.47v-.97-2.26-2.25-.99H6.47V-38.83zm0 0h6.47v-.97-2.26-2.25-.99H6.47V-38.83zm25.89 0h6.47v-.97-2.26-2.25-.99h-6.47V-38.83zm0 0h6.47v-.97-2.26-2.25-.99h-6.47V-38.83zm0 0h6.47v-.97-2.26-2.25-.99h-6.47V-38.83zm0 0h6.47v-.97-2.26-2.25-.99h-6.47V-38.83zM6.46-45.3h6.48v-.97-2.26-2.25-.99H6.47V-45.3zm0 0h6.48v-.97-2.26-2.25-.99H6.47V-45.3zm0 0h6.48v-.97-2.26-2.25-.99H6.47V-45.3zm0 0h6.48v-.97-2.26-2.25-.99H6.47V-45.3zm25.9 0h6.47v-.97-2.26-2.25-.99h-6.47V-45.3zm0 0h6.47v-.97-2.26-2.25-.99h-6.47V-45.3zm0 0h6.47v-.97-2.26-2.25-.99h-6.47V-45.3zm0 0h6.47v-.97-2.26-2.25-.99h-6.47V-45.3zm-25.9-6.47h6.48v-.96V-55v-2.25-.98H6.47v6.46zm0 0h6.48v-.96V-55v-2.25-.98H6.47v6.46zm0 0h6.48v-.96V-55v-2.25-.98H6.47v6.46zm0 0h6.48v-.96V-55v-2.25-.98H6.47v6.46zm25.9 0h6.47v-.96V-55v-2.25-.98h-6.47v6.46zm0 0h6.47v-.96V-55v-2.25-.98h-6.47v6.46zm0 0h6.47v-.96V-55v-2.25-.98h-6.47v6.46zm0 0h6.47v-.96V-55v-2.25-.98h-6.47v6.46zm-25.9-6.46h6.48v-.97-2.27-2.25-.98H6.47V-58.23zm0 0h6.48v-.97-2.27-2.25-.98H6.47V-58.23zm0 0h6.48v-.97-2.27-2.25-.98H6.47V-58.23zm0 0h6.48v-.97-2.27-2.25-.98H6.47V-58.23zm25.9 0h6.47v-.97-2.27-2.25-.98h-6.47V-58.23zm0 0h6.47v-.97-2.27-2.25-.98h-6.47V-58.23zm0 0h6.47v-.97-2.27-2.25-.98h-6.47V-58.23zm0 0h6.47v-.97-2.27-2.25-.98h-6.47V-58.23zM12.94-64.7h6.47v-.97-2.27-2.25-.98h-6.47V-64.7zm0 0h6.47v-.97-2.27-2.25-.98h-6.47V-64.7zm0 0h6.47v-.97-2.27-2.25-.98h-6.47V-64.7zm0 0h6.47v-.97-2.27-2.25-.98h-6.47V-64.7zm6.47 0H25.87v-.97-2.27-2.25-.98h-6.46V-64.7zm0 0H25.87v-.97-2.27-2.25-.98h-6.46V-64.7zm0 0H25.87v-.97-2.27-2.25-.98h-6.46V-64.7zm0 0H25.87v-.97-2.27-2.25-.98h-6.46V-64.7zm6.46 0H32.34v-.97-2.27-2.25-.98h-6.46V-64.7zm0 0H32.34v-.97-2.27-2.25-.98h-6.46V-64.7zm0 0H32.34v-.97-2.27-2.25-.98h-6.46V-64.7zm0 0H32.34v-.97-2.27-2.25-.98h-6.46V-64.7zm0 0"/></symbol><symbol overflow="visible" id="e8f32b35c"><path d="M9.7-38.83H16.17v-.97-2.26-2.25-.99H9.7V-38.83zm0 0H16.17v-.97-2.26-2.25-.99H9.7V-38.83zm0 0H16.17v-.97-2.26-2.25-.99H9.7V-38.83zm0 0H16.17v-.97-2.26-2.25-.99H9.7V-38.83zm12.94 0H29.11v-.97-2.26-2.25-.99h-6.47V-38.83zm0 0H29.11v-.97-2.26-2.25-.99h-6.47V-38.83zm0 0H29.11v-.97-2.26-2.25-.99h-6.47V-38.83zm0 0H29.11v-.97-2.26-2.25-.99h-6.47V-38.83zm-6.47-3.23H22.64v-.97-2.27-2.25-.98h-6.47V-42.06zm0 0H22.64v-.97-2.27-2.25-.98h-6.47V-42.06zm0 0H22.64v-.97-2.27-2.25-.98h-6.47V-42.06zm0 0H22.64v-.97-2.27-2.25-.98h-6.47V-42.06zM3.23-45.3H9.7v-.97-2.26-2.25-.99H3.23V-45.3zm0 0H9.7v-.97-2.26-2.25-.99H3.23V-45.3zm0 0H9.7v-.97-2.26-2.25-.99H3.23V-45.3zm0 0H9.7v-.97-2.26-2.25-.99H3.23V-45.3zm19.41 0H29.11v-.97-2.26-2.25-.99h-6.47V-45.3zm0 0H29.11v-.97-2.26-2.25-.99h-6.47V-45.3zm0 0H29.11v-.97-2.26-2.25-.99h-6.47V-45.3zm0 0H29.11v-.97-2.26-2.25-.99h-6.47V-45.3zM9.7-51.77H16.17v-.96V-55v-2.25-.98H9.7v6.46zm0 0H16.17v-.96V-55v-2.25-.98H9.7v6.46zm0 0H16.17v-.96V-55v-2.25-.98H9.7v6.46zm0 0H16.17v-.96V-55v-2.25-.98H9.7v6.46zm6.47 0H22.64v-.96V-55v-2.25-.98h-6.47v6.46zm0 0H22.64v-.96V-55v-2.25-.98h-6.47v6.46zm0 0H22.64v-.96V-55v-2.25-.98h-6.47v6.46zm0 0H22.64v-.96V-55v-2.25-.98h-6.47v6.46zm6.47 0H29.11v-.96V-55v-2.25-.98h-6.47v6.46zm0 0H29.11v-.96V-55v-2.25-.98h-6.47v6.46zm0 0H29.11v-.96V-55v-2.25-.98h-6.47v6.46zm0 0H29.11v-.96V-55v-2.25-.98h-6.47v6.46zm0-6.46H29.11v-.97-2.27-2.25-.98h-6.47V-58.23zm0 0H29.11v-.97-2.27-2.25-.98h-6.47V-58.23zm0 0H29.11v-.97-2.27-2.25-.98h-6.47V-58.23zm0 0H29.11v-.97-2.27-2.25-.98h-6.47V-58.23zM6.47-64.7h6.47v-.97-2.27-2.25-.98H6.47V-64.7zm0 0h6.47v-.97-2.27-2.25-.98H6.47V-64.7zm0 0h6.47v-.97-2.27-2.25-.98H6.47V-64.7zm0 0h6.47v-.97-2.27-2.25-.98H6.47V-64.7zm6.47 0h6.47v-.97-2.27-2.25-.98h-6.47V-64.7zm0 0h6.47v-.97-2.27-2.25-.98h-6.47V-64.7zm0 0h6.47v-.97-2.27-2.25-.98h-6.47V-64.7zm0 0h6.47v-.97-2.27-2.25-.98h-6.47V-64.7zm6.47 0H25.87v-.97-2.27-2.25-.98h-6.46V-64.7zm0 0H25.87v-.97-2.27-2.25-.98h-6.46V-64.7zm0 0H25.87v-.97-2.27-2.25-.98h-6.46V-64.7zm0 0H25.87v-.97-2.27-2.25-.98h-6.46V-64.7zm0 0"/></symbol><symbol overflow="visible" id="e8f32b35g"><path d="M9.7-38.83H16.17v-.97-2.26-2.25-.99H9.7V-38.83zm0 0H16.17v-.97-2.26-2.25-.99H9.7V-38.83zm0 0H16.17v-.97-2.26-2.25-.99H9.7V-38.83zm0 0H16.17v-.97-2.26-2.25-.99H9.7V-38.83zm6.47 0H22.64v-.97-2.26-2.25-.99h-6.47V-38.83zm0 0H22.64v-.97-2.26-2.25-.99h-6.47V-38.83zm0 0H22.64v-.97-2.26-2.25-.99h-6.47V-38.83zm0 0H22.64v-.97-2.26-2.25-.99h-6.47V-38.83zM3.23-45.3H9.7v-.97-2.26-2.25-.99H3.23V-45.3zm0 0H9.7v-.97-2.26-2.25-.99H3.23V-45.3zm0 0H9.7v-.97-2.26-2.25-.99H3.23V-45.3zm0 0H9.7v-.97-2.26-2.25-.99H3.23V-45.3zm19.41 0H29.11v-.97-2.26-2.25-.99h-6.47V-45.3zm0 0H29.11v-.97-2.26-2.25-.99h-6.47V-45.3zm0 0H29.11v-.97-2.26-2.25-.99h-6.47V-45.3zm0 0H29.11v-.97-2.26-2.25-.99h-6.47V-45.3zm-19.4-6.47H9.7v-.96V-55v-2.25-.98H3.23v6.46zm0 0H9.7v-.96V-55v-2.25-.98H3.23v6.46zm0 0H9.7v-.96V-55v-2.25-.98H3.23v6.46zm0 0H9.7v-.96V-55v-2.25-.98H3.23v6.46zm19.4 0H29.11v-.96V-55v-2.25-.98h-6.47v6.46zm0 0H29.11v-.96V-55v-2.25-.98h-6.47v6.46zm0 0H29.11v-.96V-55v-2.25-.98h-6.47v6.46zm0 0H29.11v-.96V-55v-2.25-.98h-6.47v6.46zm-19.4-6.46H9.7v-.97-2.27-2.25-.98H3.23V-58.23zm0 0H9.7v-.97-2.27-2.25-.98H3.23V-58.23zm0 0H9.7v-.97-2.27-2.25-.98H3.23V-58.23zm0 0H9.7v-.97-2.27-2.25-.98H3.23V-58.23zm19.4 0H29.11v-.97-2.27-2.25-.98h-6.47V-58.23zm0 0H29.11v-.97-2.27-2.25-.98h-6.47V-58.23zm0 0H29.11v-.97-2.27-2.25-.98h-6.47V-58.23zm0 0H29.11v-.97-2.27-2.25-.98h-6.47V-58.23zM9.7-64.7H16.17v-.97-2.27-2.25-.98H9.7V-64.7zm0 0H16.17v-.97-2.27-2.25-.98H9.7V-64.7zm0 0H16.17v-.97-2.27-2.25-.98H9.7V-64.7zm0 0H16.17v-.97-2.27-2.25-.98H9.7V-64.7zm6.47 0H22.64v-.97-2.27-2.25-.98h-6.47V-64.7zm0 0H22.64v-.97-2.27-2.25-.98h-6.47V-64.7zm0 0H22.64v-.97-2.27-2.25-.98h-6.47V-64.7zm0 0H22.64v-.97-2.27-2.25-.98h-6.47V-64.7zm0 0"/></symbol><symbol overflow="visible" id="e8f32b35e"><path d="M6.47 0h6.47v-.97-2.26-2.25-.99H6.47V0zm0 0h6.47v-.97-2.26-2.25-.99H6.47V0zm0 0h6.47v-.97-2.26-2.25-.99H6.47V0zm0 0h6.47v-.97-2.26-2.25-.99H6.47V0zm6.47 0h6.47v-.97-2.26-2.25-.99h-6.47V0zm0 0h6.47v-.97-2.26-2.25-.99h-6.47V0zm0 0h6.47v-.97-2.26-2.25-.99h-6.47V0zm0 0h6.47v-.97-2.26-2.25-.99h-6.47V0zm6.47 0H25.87v-.97-2.26-2.25-.99h-6.46V0zm0 0H25.87v-.97-2.26-2.25-.99h-6.46V0zm0 0H25.87v-.97-2.26-2.25-.99h-6.46V0zm0 0H25.87v-.97-2.26-2.25-.99h-6.46V0zm6.46 0H32.34v-.97-2.26-2.25-.99h-6.46V0zm0 0H32.34v-.97-2.26-2.25-.99h-6.46V0zm0 0H32.34v-.97-2.26-2.25-.99h-6.46V0zm0 0H32.34v-.97-2.26-2.25-.99h-6.46V0zm6.49 0h6.47v-.97-2.26-2.25-.99h-6.47V0zm0 0h6.47v-.97-2.26-2.25-.99h-6.47V0zm0 0h6.47v-.97-2.26-2.25-.99h-6.47V0zm0 0h6.47v-.97-2.26-2.25-.99h-6.47V0zM12.94-6.47h6.47v-.97-2.26-2.25-.99h-6.47V-6.47zm0 0h6.47v-.97-2.26-2.25-.99h-6.47V-6.47zm0 0h6.47v-.97-2.26-2.25-.99h-6.47V-6.47zm0 0h6.47v-.97-2.26-2.25-.99h-6.47V-6.47zm3.23-6.47H22.64v-.97-2.26-2.25-.99h-6.47V-12.94zm0 0H22.64v-.97-2.26-2.25-.99h-6.47V-12.94zm0 0H22.64v-.97-2.26-2.25-.99h-6.47V-12.94zm0 0H22.64v-.97-2.26-2.25-.99h-6.47V-12.94zm3.24-6.47H25.87v-.96-2.27-2.25-.98h-6.46v6.46zm0 0H25.87v-.96-2.27-2.25-.98h-6.46v6.46zm0 0H25.87v-.96-2.27-2.25-.98h-6.46v6.46zm0 0H25.87v-.96-2.27-2.25-.98h-6.46v6.46zm3.23-6.46H29.11v-.97-2.27-2.25-.98h-6.47v6.46zm0 0H29.11v-.97-2.27-2.25-.98h-6.47v6.46zm0 0H29.11v-.97-2.27-2.25-.98h-6.47v6.46zm0 0H29.11v-.97-2.27-2.25-.98h-6.47v6.46zm3.23-6.49H32.34v-.97-2.26-2.25-.99h-6.46V-32.36zm0 0H32.34v-.97-2.26-2.25-.99h-6.46V-32.36zm0 0H32.34v-.97-2.26-2.25-.99h-6.46V-32.36zm0 0H32.34v-.97-2.26-2.25-.99h-6.46V-32.36zm3.25-6.47H35.6v-.97-2.26-2.25-.99h-6.46V-38.83zm0 0H35.6v-.97-2.26-2.25-.99h-6.46V-38.83zm0 0H35.6v-.97-2.26-2.25-.99h-6.46V-38.83zm0 0H35.6v-.97-2.26-2.25-.99h-6.46V-38.83zM6.48-45.3h6.47v-.97-2.26-2.25-.99H6.47V-45.3zm0 0h6.47v-.97-2.26-2.25-.99H6.47V-45.3zm0 0h6.47v-.97-2.26-2.25-.99H6.47V-45.3zm0 0h6.47v-.97-2.26-2.25-.99H6.47V-45.3zm25.89 0h6.47v-.97-2.26-2.25-.99h-6.47V-45.3zm0 0h6.47v-.97-2.26-2.25-.99h-6.47V-45.3zm0 0h6.47v-.97-2.26-2.25-.99h-6.47V-45.3zm0 0h6.47v-.97-2.26-2.25-.99h-6.47V-45.3zm-25.9-6.47h6.48v-.96V-55v-2.25-.98H6.47v6.46zm0 0h6.48v-.96V-55v-2.25-.98H6.47v6.46zm0 0h6.48v-.96V-55v-2.25-.98H6.47v6.46zm0 0h6.48v-.96V-55v-2.25-.98H6.47v6.46zm25.9 0h6.47v-.96V-55v-2.25-.98h-6.47v6.46zm0 0h6.47v-.96V-55v-2.25-.98h-6.47v6.46zm0 0h6.47v-.96V-55v-2.25-.98h-6.47v6.46zm0 0h6.47v-.96V-55v-2.25-.98h-6.47v6.46zm-25.9-6.46h6.48v-.97-2.27-2.25-.98H6.47V-58.23zm0 0h6.48v-.97-2.27-2.25-.98H6.47V-58.23zm0 0h6.48v-.97-2.27-2.25-.98H6.47V-58.23zm0 0h6.48v-.97-2.27-2.25-.98H6.47V-58.23zm25.9 0h6.47v-.97-2.27-2.25-.98h-6.47V-58.23zm0 0h6.47v-.97-2.27-2.25-.98h-6.47V-58.23zm0 0h6.47v-.97-2.27-2.25-.98h-6.47V-58.23zm0 0h6.47v-.97-2.27-2.25-.98h-6.47V-58.23zM12.94-64.7h6.47v-.97-2.27-2.25-.98h-6.47V-64.7zm0 0h6.47v-.97-2.27-2.25-.98h-6.47V-64.7zm0 0h6.47v-.97-2.27-2.25-.98h-6.47V-64.7zm0 0h6.47v-.97-2.27-2.25-.98h-6.47V-64.7zm6.47 0H25.87v-.97-2.27-2.25-.98h-6.46V-64.7zm0 0H25.87v-.97-2.27-2.25-.98h-6.46V-64.7zm0 0H25.87v-.97-2.27-2.25-.98h-6.46V-64.7zm0 0H25.87v-.97-2.27-2.25-.98h-6.46V-64.7zm6.46 0H32.34v-.97-2.27-2.25-.98h-6.46V-64.7zm0 0H32.34v-.97-2.27-2.25-.98h-6.46V-64.7zm0 0H32.34v-.97-2.27-2.25-.98h-6.46V-64.7zm0 0H32.34v-.97-2.27-2.25-.98h-6.46V-64.7zm0 0"/></symbol><symbol overflow="visible" id="e8f32b35f"><path d="M22.64 0H29.11v-.97-2.26-2.25-.99h-6.47V0zm0 0H29.11v-.97-2.26-2.25-.99h-6.47V0zm0 0H29.11v-.97-2.26-2.25-.99h-6.47V0zm0 0H29.11v-.97-2.26-2.25-.99h-6.47V0zm0-6.47H29.11v-.97-2.26-2.25-.99h-6.47V-6.47zm0 0H29.11v-.97-2.26-2.25-.99h-6.47V-6.47zm0 0H29.11v-.97-2.26-2.25-.99h-6.47V-6.47zm0 0H29.11v-.97-2.26-2.25-.99h-6.47V-6.47zm-19.4-6.47H9.7v-.97-2.26-2.25-.99H3.23V-12.94zm0 0H9.7v-.97-2.26-2.25-.99H3.23V-12.94zm0 0H9.7v-.97-2.26-2.25-.99H3.23V-12.94zm0 0H9.7v-.97-2.26-2.25-.99H3.23V-12.94zm6.46 0H16.17v-.97-2.26-2.25-.99H9.7V-12.94zm0 0H16.17v-.97-2.26-2.25-.99H9.7V-12.94zm0 0H16.17v-.97-2.26-2.25-.99H9.7V-12.94zm0 0H16.17v-.97-2.26-2.25-.99H9.7V-12.94zm6.47 0H22.64v-.97-2.26-2.25-.99h-6.47V-12.94zm0 0H22.64v-.97-2.26-2.25-.99h-6.47V-12.94zm0 0H22.64v-.97-2.26-2.25-.99h-6.47V-12.94zm0 0H22.64v-.97-2.26-2.25-.99h-6.47V-12.94zm6.47 0H29.11v-.97-2.26-2.25-.99h-6.47V-12.94zm0 0H29.11v-.97-2.26-2.25-.99h-6.47V-12.94zm0 0H29.11v-.97-2.26-2.25-.99h-6.47V-12.94zm0 0H29.11v-.97-2.26-2.25-.99h-6.47V-12.94zm6.48 0H35.6v-.97-2.26-2.25-.99h-6.46V-12.94zm0 0H35.6v-.97-2.26-2.25-.99h-6.46V-12.94zm0 0H35.6v-.97-2.26-2.25-.99h-6.46V-12.94zm0 0H35.6v-.97-2.26-2.25-.99h-6.46V-12.94zm6.47 0H42.06v-.97-2.26-2.25-.99H35.6V-12.94zm0 0H42.06v-.97-2.26-2.25-.99H35.6V-12.94zm0 0H42.06v-.97-2.26-2.25-.99H35.6V-12.94zm0 0H42.06v-.97-2.26-2.25-.99H35.6V-12.94zM3.23-19.4H9.7v-.96-2.27-2.25-.98H3.23v6.46zm0 0H9.7v-.96-2.27-2.25-.98H3.23v6.46zm0 0H9.7v-.96-2.27-2.25-.98H3.23v6.46zm0 0H9.7v-.96-2.27-2.25-.98H3.23v6.46zm19.41 0H29.11v-.96-2.27-2.25-.98h-6.47v6.46zm0 0H29.11v-.96-2.27-2.25-.98h-6.47v6.46zm0 0H29.11v-.96-2.27-2.25-.98h-6.47v6.46zm0 0H29.11v-.96-2.27-2.25-.98h-6.47v6.46zm-19.4-6.46H9.7v-.97-2.27-2.25-.98H3.23v6.46zm0 0H9.7v-.97-2.27-2.25-.98H3.23v6.46zm0 0H9.7v-.97-2.27-2.25-.98H3.23v6.46zm0 0H9.7v-.97-2.27-2.25-.98H3.23v6.46zm19.4 0H29.11v-.97-2.27-2.25-.98h-6.47v6.46zm0 0H29.11v-.97-2.27-2.25-.98h-6.47v6.46zm0 0H29.11v-.97-2.27-2.25-.98h-6.47v6.46zm0 0H29.11v-.97-2.27-2.25-.98h-6.47v6.46zM6.47-32.37h6.47v-.97-2.26-2.25-.99H6.47V-32.36zm0 0h6.47v-.97-2.26-2.25-.99H6.47V-32.36zm0 0h6.47v-.97-2.26-2.25-.99H6.47V-32.36zm0 0h6.47v-.97-2.26-2.25-.99H6.47V-32.36zm3.23-6.47H16.17v-.97-2.26-2.25-.99H9.7V-38.83zm0 0H16.17v-.97-2.26-2.25-.99H9.7V-38.83zm0 0H16.17v-.97-2.26-2.25-.99H9.7V-38.83zm0 0H16.17v-.97-2.26-2.25-.99H9.7V-38.83zm3.24-6.47h6.47v-.97-2.26-2.25-.99h-6.47V-45.3zm0 0h6.47v-.97-2.26-2.25-.99h-6.47V-45.3zm0 0h6.47v-.97-2.26-2.25-.99h-6.47V-45.3zm0 0h6.47v-.97-2.26-2.25-.99h-6.47V-45.3zm3.23-6.47H22.64v-.96V-55v-2.25-.98h-6.47v6.46zm0 0H22.64v-.96V-55v-2.25-.98h-6.47v6.46zm0 0H22.64v-.96V-55v-2.25-.98h-6.47v6.46zm0 0H22.64v-.96V-55v-2.25-.98h-6.47v6.46zm3.24-6.46H25.87v-.97-2.27-2.25-.98h-6.46V-58.23zm0 0H25.87v-.97-2.27-2.25-.98h-6.46V-58.23zm0 0H25.87v-.97-2.27-2.25-.98h-6.46V-58.23zm0 0H25.87v-.97-2.27-2.25-.98h-6.46V-58.23zm3.23-6.47H29.11v-.97-2.27-2.25-.98h-6.47V-64.7zm0 0H29.11v-.97-2.27-2.25-.98h-6.47V-64.7zm0 0H29.11v-.97-2.27-2.25-.98h-6.47V-64.7zm0 0H29.11v-.97-2.27-2.25-.98h-6.47V-64.7zm0 0"/></symbol><symbol overflow="visible" id="e8f32b35h"><path d="M3.83 0v-5.95H6.2v-.82H.45v.82h2.4V0zm0 0"/></symbol><symbol overflow="visible" id="e8f32b35i"><path d="M5.75-2.23v-.43c0-1.6-.9-2.51-2.42-2.51S.87-4.16.87-2.48c0 1.71.91 2.62 2.5 2.62 1.43 0 2.07-.56 2.29-1.52l-.9-.09c-.18.61-.59.9-1.35.9-.94 0-1.52-.54-1.58-1.66zm-2.4-2.2c.93 0 1.43.5 1.48 1.55H1.84c.08-1.07.6-1.56 1.5-1.56zm0 0"/></symbol><symbol overflow="visible" id="e8f32b35j"><path d="M1.83 0l1.42-2h.06l1.46 2H5.8L4-2.53l1.78-2.49H4.8L3.42-3.08h-.08l-1.4-1.94H.89l1.78 2.49L.84 0zm0 0"/></symbol><symbol overflow="visible" id="e8f32b35k"><path d="M5.52-4.25v-.77H3.17v-1.56h-.81l-.14 1.56H.75v.77h1.47v2.4c0 1.3.48 1.94 1.84 1.94C4.6.1 5.14 0 5.55-.14L5.4-.91c-.32.13-.72.2-1.13.2-.8 0-1.1-.37-1.1-1.23v-2.31zm0 0"/></symbol><symbol overflow="visible" id="e8f32b35l"><path d="M3.33-3.42c.47 0 .8-.27.8-.8 0-.51-.33-.8-.8-.8-.47 0-.8.29-.8.8 0 .53.33.8.8.8zm0 3.5c.47 0 .8-.27.8-.78 0-.53-.33-.82-.8-.82-.47 0-.8.29-.8.82 0 .51.33.78.8.78zm0 0"/></symbol><symbol overflow="visible" id="e8f32b35n"><path d="M4.22-6.77h-.86l-2.03.7v.87c.64-.17 1.26-.38 1.89-.55v4.9H1.03V0h4.9v-.86H4.21zm0 0"/></symbol><symbol overflow="visible" id="e8f32b35o"><path d="M3.33.16c1.69 0 2.69-.74 2.69-1.94 0-1.05-.8-1.58-1.43-1.72v-.05c.5-.14 1.2-.58 1.2-1.56 0-1.12-.95-1.81-2.46-1.81-1.52 0-2.46.69-2.46 1.81 0 .97.68 1.4 1.18 1.56v.05c-.6.14-1.4.64-1.4 1.72 0 1.2 1 1.94 2.68 1.94zm0-4.04c-.97 0-1.49-.43-1.49-1.12 0-.78.52-1.1 1.49-1.1.95 0 1.48.32 1.48 1.1 0 .69-.53 1.13-1.48 1.13zm0 3.24c-1.1 0-1.7-.42-1.7-1.25 0-.78.6-1.2 1.7-1.2s1.7.42 1.7 1.2c0 .83-.6 1.25-1.7 1.25zm0 0"/></symbol><symbol overflow="visible" id="e8f32b35p"><path d="M2.83.14c.94 0 1.5-.39 1.81-.95h.08l.1.81h.76v-3.38c0-1.23-.69-1.8-2.13-1.8-1.43 0-2.03.65-2.18 1.6l.93.1c.11-.6.44-.93 1.22-.93.85 0 1.22.32 1.22 1.04v.34l-1.81.2C1.6-2.7 1.1-2.17 1.1-1.28c0 .92.64 1.42 1.72 1.42zm.25-.77c-.67 0-1.02-.28-1.02-.74 0-.44.28-.72 1-.82l1.58-.19v.41c0 .8-.6 1.34-1.56 1.34zm0 0"/></symbol><symbol overflow="visible" id="e8f32b35q"><path d="M5.67 0v-.86H2.14V-.9L3.6-2c1.05-.83 2-1.68 2-2.91 0-1.19-.73-1.99-2.26-1.99-1.66 0-2.3 1.02-2.44 2.33l1 .08c.1-.92.42-1.58 1.44-1.58.87 0 1.26.44 1.26 1.24 0 .9-.8 1.53-1.96 2.53L.83-.81V0zm0 0"/></symbol><symbol overflow="visible" id="e8f32b35r"><path d="M5.1 0v-1.47H6v-.81h-.9v-4.49H3.8L.48-2.23v.76h3.66V0zM1.5-2.33l2.6-3.53h.04v3.58H1.5zm0 0"/></symbol><symbol overflow="visible" id="e8f32b35s"><path d="M3.33.14c1.62 0 2.5-.95 2.5-2.66 0-1.68-.88-2.64-2.5-2.64-1.63 0-2.5.96-2.5 2.64 0 1.7.87 2.66 2.5 2.66zm0-.77c-1.06 0-1.52-.6-1.52-1.89 0-1.28.46-1.87 1.52-1.87 1.08 0 1.53.6 1.53 1.87 0 1.29-.45 1.9-1.53 1.9zm0 0"/></symbol><symbol overflow="visible" id="e8f32b35t"><path d="M5.95-6.77H1.1V0h.99v-2.92H5.3v-.77H2.08v-2.26h3.87zm0 0"/></symbol><symbol overflow="visible" id="e8f32b35u"><path d="M2.73.14c.9 0 1.43-.45 1.74-1.08h.06l.13.94h.8v-5.02h-.94v2.7c0 .98-.57 1.62-1.46 1.62-.75 0-1.1-.4-1.1-1.22v-3.1h-.93v3.32c0 1.17.55 1.84 1.7 1.84zm0 0"/></symbol><symbol overflow="visible" id="e8f32b35v"><path d="M5.08-5.16c-.94 0-1.58.43-1.9 1.3h-.09l-.07-1.16H1.05v.77h1.1v3.48H.96V0h3.96v-.77H3.1v-1.46c0-1.36.6-2.05 1.83-2.05.4 0 .76.08 1.1.17l.15-.87c-.33-.11-.7-.18-1.11-.18zm0 0"/></symbol><symbol overflow="visible" id="e8f32b35w"><path d="M3.33.14c1.9 0 2.76-1.27 2.76-3.52 0-2.26-.86-3.53-2.76-3.53S.58-5.64.58-3.37c0 2.25.86 3.51 2.75 3.51zM3.3-.67c-1.25 0-1.73-.95-1.73-2.7 0-1.77.5-2.72 1.75-2.72s1.75.95 1.75 2.71c0 1.75-.5 2.7-1.77 2.7zm0 0"/></symbol><symbol overflow="visible" id="e8f32b35x"><path d="M2.84.14C3.8.14 4.33-.26 4.6-.9h.07L4.8 0h.76v-7.14h-.95v2.95h-.08c-.28-.6-.86-.97-1.67-.97-1.48 0-2.27.99-2.27 2.64C.6-.84 1.36.14 2.84.14zm.22-.8c-.98 0-1.48-.59-1.48-1.84s.5-1.86 1.48-1.86c1.13 0 1.58.8 1.58 1.86S4.2-.66 3.06-.66zm0 0"/></symbol><symbol overflow="visible" id="e8f32b35y"><path d="M3.58-5.81c.42 0 .72-.22.72-.67 0-.44-.3-.68-.72-.68-.44 0-.72.24-.72.68 0 .45.28.67.72.67zm.5.8H1.52v.76h1.6v3.48h-1.8V0h4.46v-.77h-1.7zm0 0"/></symbol><symbol overflow="visible" id="e8f32b35z"><path d="M2.16 0v-2.67c0-.99.59-1.63 1.46-1.63.74 0 1.07.38 1.07 1.22V0h.95v-3.31c0-1.2-.56-1.85-1.67-1.85-.92 0-1.49.46-1.77 1.08h-.06l-.12-.94H1.2V0zm0 0"/></symbol><symbol overflow="visible" id="e8f32b35A"><path d="M3.92-7.14H1.36v.76h1.6v5.61H1.15V0H5.7v-.77H3.92zm0 0"/></symbol><symbol overflow="visible" id="e8f32b35B"><path d="M3.36.16c1.4 0 2.2-.6 2.2-1.57 0-.89-.54-1.22-1.47-1.39L3-3c-.67-.14-.86-.33-.86-.73 0-.5.4-.74 1.17-.74.83 0 1.19.27 1.27.8l.9-.05c-.12-1-.8-1.47-2.17-1.47-1.34 0-2.1.53-2.1 1.5 0 .81.45 1.22 1.52 1.44l1.04.2c.56.11.87.24.87.72 0 .52-.45.78-1.28.78-.95 0-1.36-.28-1.42-.87l-.9.06C1.07-.36 1.8.16 3.35.16zm0 0"/></symbol><symbol overflow="visible" id="e8f32b35C"><path d="M1.45-2.95c0 2.56 1.08 4.37 3.67 4.84l.11-.67C3.28.86 2.43-.75 2.43-2.95s.85-3.82 2.8-4.16l-.1-.69c-2.6.49-3.68 2.3-3.68 4.85zm0 0"/></symbol><symbol overflow="visible" id="e8f32b35D"><path d="M1.45-7.1c1.96.33 2.8 1.94 2.8 4.15 0 2.2-.84 3.8-2.8 4.17l.11.67c2.58-.47 3.67-2.28 3.67-4.84 0-2.55-1.09-4.36-3.67-4.85zm0 0"/></symbol></defs><g fill="#eaf734"><g fill-opacity=".1"><use xlink:href="#e8f32b35a" x="167.3529" y="165"/><use xlink:href="#e8f32b35b" x="212.6509" y="165"/></g><use xlink:href="#e8f32b35c" x="257.9412" y="165"/><g fill-opacity=".1"><use xlink:href="#e8f32b35d" x="290.2941" y="165"/><use xlink:href="#e8f32b35e" x="309.7091" y="165"/></g><use xlink:href="#e8f32b35f" x="354.9741" y="165" fill-opacity=".1"/><use xlink:href="#e8f32b35g" x="400.2941" y="165"/><use xlink:href="#e8f32b35h" x="256.6667" y="252"/><use xlink:href="#e8f32b35i" x="263.3337" y="252"/><use xlink:href="#e8f32b35j" x="270.0007" y="252"/><use xlink:href="#e8f32b35k" x="276.6677" y="252"/><use xlink:href="#e8f32b35l" x="283.3347" y="252"/><use xlink:href="#e8f32b35m" x="290.0017" y="252"/><use xlink:href="#e8f32b35n" x="296.6687" y="252"/><use xlink:href="#e8f32b35o" x="303.3357" y="252"/><use xlink:href="#e8f32b35p" x="310.0027" y="252"/><use xlink:href="#e8f32b35m" x="316.6697" y="252"/><use xlink:href="#e8f32b35q" x="323.3367" y="252"/><use xlink:href="#e8f32b35r" x="330.0037" y="252"/><use xlink:href="#e8f32b35s" x="336.6707" y="252"/><g><use xlink:href="#e8f32b35t" x="220" y="266"/><use xlink:href="#e8f32b35i" x="226.667" y="266"/><use xlink:href="#e8f32b35p" x="233.334" y="266"/><use xlink:href="#e8f32b35k" x="240.001" y="266"/><use xlink:href="#e8f32b35u" x="246.668" y="266"/><use xlink:href="#e8f32b35v" x="253.335" y="266"/><use xlink:href="#e8f32b35i" x="260.002" y="266"/><use xlink:href="#e8f32b35l" x="266.669" y="266"/><use xlink:href="#e8f32b35m" x="273.336" y="266"/><use xlink:href="#e8f32b35w" x="280.003" y="266"/><use xlink:href="#e8f32b35v" x="286.67" y="266"/><use xlink:href="#e8f32b35x" x="293.337" y="266"/><use xlink:href="#e8f32b35y" x="300.004" y="266"/><use xlink:href="#e8f32b35z" x="306.671" y="266"/><use xlink:href="#e8f32b35p" x="313.338" y="266"/><use xlink:href="#e8f32b35A" x="320.005" y="266"/><use xlink:href="#e8f32b35B" x="326.672" y="266"/><use xlink:href="#e8f32b35m" x="333.339" y="266"/><use xlink:href="#e8f32b35C" x="340.006" y="266"/><use xlink:href="#e8f32b35s" x="346.673" y="266"/><use xlink:href="#e8f32b35v" x="353.34" y="266"/><use xlink:href="#e8f32b35x" x="360.007" y="266"/><use xlink:href="#e8f32b35z" x="366.674" y="266"/><use xlink:href="#e8f32b35D" x="373.341" y="266"/></g></g></svg>