<?xml version='1.0' encoding='UTF-8'?>
<svg xmlns="http://www.w3.org/2000/svg" xmlns:xlink="http://www.w3.org/1999/xlink" width="600px" height="300px" viewBox="0 0 600 300" x="0px" y="0px" enable-background="new 0 0 600 300"><defs><symbol overflow="visible" id="a70ef639a"><path d="M3.36-1.8L2.88 0h10.07l.32-1.8-3.91-.84v-17.77c0-1.86-.06-2.93-.13-3.82h.13c.42.65 1.02 1.43 2.05 2.64L28.86 0h2.4v-26.45c0-2.05.54-2.9 2.88-3.43l.48-1.75H24.55l-.32 1.75 3.91.9v16.03c0 2.26 0 3.95.06 4.86h-.12c-.42-.61-1.08-1.5-2.28-3L9.06-31.63H2.34l-.36 1.75 4.25.9v23.76c0 2.1-.53 2.94-2.87 3.42zm0 0"/></symbol><symbol overflow="visible" id="a70ef639b"><path d="M12.72.6c6.72 0 11.47-5.94 11.47-13.38 0-6.42-3.85-10.92-10.75-10.92-7.5 0-11.35 6.48-11.35 13.5C2.1-3.66 5.81.6 12.72.6zm.9-2.65c-3.67 0-6.71-3.3-6.71-9.47 0-6.6 1.9-9.54 5.68-9.54 3.61 0 6.79 3.48 6.79 9.54 0 7.25-2.22 9.47-5.75 9.47zm0 0"/></symbol><symbol overflow="visible" id="a70ef639c"><path d="M5.1-2.94C5.1-.84 6.12.3 8.4.3c2.16 0 3.24-1.2 3.24-3.24 0-2.1-1.2-3.3-3.23-3.3-2.11 0-3.32 1.08-3.32 3.3zm0 0"/></symbol><symbol overflow="visible" id="a70ef639e"><path d="M5.16-1.8L4.73 0h14.58l.32-1.8-4.99-.84v-24.13l-1.5-.82-11.4 6.71 1.39 2.33 6.95-4.01.06.06v17.1c0 2.34-.95 3-4.98 3.6zm0 0"/></symbol><symbol overflow="visible" id="a70ef639f"><path d="M14.7.42c6.9 0 11.7-5.22 11.7-14.04 0-8.76-4.8-13.97-11.7-13.97C7.8-27.6 3-22.38 3-13.63 3-4.8 7.8.43 14.7.43zm0-2.64c-4.07 0-6.9-3.48-6.9-11.4 0-7.86 2.83-11.33 6.9-11.33 4.08 0 6.9 3.47 6.9 11.32 0 7.93-2.82 11.41-6.9 11.41zm-2.4-11.4a2.4 2.4 0 102.4-2.4 2.4 2.4 0 00-2.4 2.4zm0 0"/></symbol><symbol overflow="visible" id="a70ef639g"><path d="M3.83 0v-5.95H6.2v-.82H.45v.82h2.4V0zm0 0"/></symbol><symbol overflow="visible" id="a70ef639h"><path d="M5.75-2.23v-.43c0-1.6-.9-2.51-2.42-2.51S.87-4.16.87-2.48c0 1.71.91 2.62 2.5 2.62 1.43 0 2.07-.56 2.29-1.52l-.9-.09c-.18.61-.59.9-1.35.9-.94 0-1.52-.54-1.58-1.66zm-2.4-2.2c.93 0 1.43.5 1.48 1.55H1.84c.08-1.07.6-1.56 1.5-1.56zm0 0"/></symbol><symbol overflow="visible" id="a70ef639i"><path d="M1.83 0l1.42-2h.06l1.46 2H5.8L4-2.53l1.78-2.49H4.8L3.42-3.08h-.08l-1.4-1.94H.89l1.78 2.49L.84 0zm0 0"/></symbol><symbol overflow="visible" id="a70ef639j"><path d="M5.52-4.25v-.77H3.17v-1.56h-.81l-.14 1.56H.75v.77h1.47v2.4c0 1.3.48 1.94 1.84 1.94C4.6.1 5.14 0 5.55-.14L5.4-.91c-.32.13-.72.2-1.13.2-.8 0-1.1-.37-1.1-1.23v-2.31zm0 0"/></symbol><symbol overflow="visible" id="a70ef639k"><path d="M3.33-3.42c.47 0 .8-.27.8-.8 0-.51-.33-.8-.8-.8-.47 0-.8.29-.8.8 0 .53.33.8.8.8zm0 3.5c.47 0 .8-.27.8-.78 0-.53-.33-.82-.8-.82-.47 0-.8.29-.8.82 0 .51.33.78.8.78zm0 0"/></symbol><symbol overflow="visible" id="a70ef639m"><path d="M1.84 0v-4.48l-.06-.99h.1L4.46 0h1.28v-6.77h-.92v4.4l.06 1.03h-.1L2.21-6.77H.92V0zm0 0"/></symbol><symbol overflow="visible" id="a70ef639n"><path d="M3.33.14c1.62 0 2.5-.95 2.5-2.66 0-1.68-.88-2.64-2.5-2.64-1.63 0-2.5.96-2.5 2.64 0 1.7.87 2.66 2.5 2.66zm0-.77c-1.06 0-1.52-.6-1.52-1.89 0-1.28.46-1.87 1.52-1.87 1.08 0 1.53.6 1.53 1.87 0 1.29-.45 1.9-1.53 1.9zm0 0"/></symbol><symbol overflow="visible" id="a70ef639o"><path d="M3.33.08c.47 0 .8-.27.8-.85 0-.59-.33-.85-.8-.85-.47 0-.78.26-.78.85 0 .58.3.85.78.85zm0 0"/></symbol><symbol overflow="visible" id="a70ef639p"><path d="M4.22-6.77h-.86l-2.03.7v.87c.64-.17 1.26-.38 1.89-.55v4.9H1.03V0h4.9v-.86H4.21zm0 0"/></symbol><symbol overflow="visible" id="a70ef639q"><path d="M3.33.14c1.65 0 2.6-1.1 2.6-3.52S4.99-6.9 3.34-6.9C1.67-6.9.72-5.8.72-3.37c0 2.4.95 3.51 2.6 3.51zm0-.84c-1.13 0-1.6-.85-1.6-2.67 0-1.86.47-2.7 1.6-2.7 1.12 0 1.6.84 1.6 2.7 0 1.82-.48 2.67-1.6 2.67zM3.3-2.64c.38 0 .56-.28.56-.72 0-.44-.18-.7-.56-.7-.39 0-.56.26-.56.7 0 .44.17.72.56.72zm0 0"/></symbol><symbol overflow="visible" id="a70ef639r"><path d="M5.95-6.77H1.1V0h.99v-2.92H5.3v-.77H2.08v-2.26h3.87zm0 0"/></symbol><symbol overflow="visible" id="a70ef639s"><path d="M2.83.14c.94 0 1.5-.39 1.81-.95h.08l.1.81h.76v-3.38c0-1.23-.69-1.8-2.13-1.8-1.43 0-2.03.65-2.18 1.6l.93.1c.11-.6.44-.93 1.22-.93.85 0 1.22.32 1.22 1.04v.34l-1.81.2C1.6-2.7 1.1-2.17 1.1-1.28c0 .92.64 1.42 1.72 1.42zm.25-.77c-.67 0-1.02-.28-1.02-.74 0-.44.28-.72 1-.82l1.58-.19v.41c0 .8-.6 1.34-1.56 1.34zm0 0"/></symbol><symbol overflow="visible" id="a70ef639t"><path d="M2.73.14c.9 0 1.43-.45 1.74-1.08h.06l.13.94h.8v-5.02h-.94v2.7c0 .98-.57 1.62-1.46 1.62-.75 0-1.1-.4-1.1-1.22v-3.1h-.93v3.32c0 1.17.55 1.84 1.7 1.84zm0 0"/></symbol><symbol overflow="visible" id="a70ef639u"><path d="M5.08-5.16c-.94 0-1.58.43-1.9 1.3h-.09l-.07-1.16H1.05v.77h1.1v3.48H.96V0h3.96v-.77H3.1v-1.46c0-1.36.6-2.05 1.83-2.05.4 0 .76.08 1.1.17l.15-.87c-.33-.11-.7-.18-1.11-.18zm0 0"/></symbol><symbol overflow="visible" id="a70ef639v"><path d="M3.34.14c1.7 0 2.64-.75 2.64-2 0-1.1-.67-1.6-1.95-1.86l-.97-.2c-.84-.16-1.2-.49-1.2-1.11 0-.7.56-1.11 1.56-1.11.99 0 1.47.34 1.63 1.23L5.97-5C5.8-6.28 4.95-6.9 3.45-6.9 1.81-6.9.92-6.18.92-4.98c0 1.06.63 1.66 1.85 1.9l1.01.2c.85.17 1.25.4 1.25 1.09 0 .73-.6 1.16-1.66 1.16-1.1 0-1.6-.4-1.75-1.24l-.93.1C.84-.53 1.66.13 3.34.13zm0 0"/></symbol><symbol overflow="visible" id="a70ef639w"><path d="M3.92-7.14H1.36v.76h1.6v5.61H1.15V0H5.7v-.77H3.92zm0 0"/></symbol><symbol overflow="visible" id="a70ef639x"><path d="M3.36.16c1.4 0 2.2-.6 2.2-1.57 0-.89-.54-1.22-1.47-1.39L3-3c-.67-.14-.86-.33-.86-.73 0-.5.4-.74 1.17-.74.83 0 1.19.27 1.27.8l.9-.05c-.12-1-.8-1.47-2.17-1.47-1.34 0-2.1.53-2.1 1.5 0 .81.45 1.22 1.52 1.44l1.04.2c.56.11.87.24.87.72 0 .52-.45.78-1.28.78-.95 0-1.36-.28-1.42-.87l-.9.06C1.07-.36 1.8.16 3.35.16zm0 0"/></symbol><symbol overflow="visible" id="a70ef639y"><path d="M2.16 0v-2.69c0-.98.6-1.6 1.46-1.6.74 0 1.07.4 1.07 1.2V0h.95v-3.31c0-1.17-.56-1.85-1.67-1.85-.9 0-1.44.46-1.75 1.08h-.06v-3.06H1.2V0zm0 0"/></symbol><symbol overflow="visible" id="a70ef639z"><path d="M2.84.14C3.8.14 4.33-.26 4.6-.9h.07L4.8 0h.76v-7.14h-.95v2.95h-.08c-.28-.6-.86-.97-1.67-.97-1.48 0-2.27.99-2.27 2.64C.6-.84 1.36.14 2.84.14zm.22-.8c-.98 0-1.48-.59-1.48-1.84s.5-1.86 1.48-1.86c1.13 0 1.58.8 1.58 1.86S4.2-.66 3.06-.66zm0 0"/></symbol><symbol overflow="visible" id="a70ef639A"><path d="M5.55 0v-.75H2.3v-.06l3.2-3.49v-.72H1.2v.75H4.3v.07L1.11-.72V0zm0 0"/></symbol><symbol overflow="visible" id="a70ef639B"><path d="M1.45-2.95c0 2.56 1.08 4.37 3.67 4.84l.11-.67C3.28.86 2.43-.75 2.43-2.95s.85-3.82 2.8-4.16l-.1-.69c-2.6.49-3.68 2.3-3.68 4.85zm0 0"/></symbol><symbol overflow="visible" id="a70ef639C"><path d="M3.34-1.52c-.51 0-.8.32-.8.82 0 .5.33.78.76.78-.1.4-.36.95-.7 1.39l.5.23A4.48 4.48 0 004.13-.64c0-.55-.3-.88-.78-.88zm0 0"/></symbol><symbol overflow="visible" id="a70ef639D"><path d="M6.17 0L3.98-6.77h-1.3L.5 0h.97l.44-1.47h2.78L5.16 0zM3.28-5.94h.08l1.1 3.74H2.15zm0 0"/></symbol><symbol overflow="visible" id="a70ef639E"><path d="M3.9.14c1.48 0 2.18-.98 2.18-2.64 0-1.67-.7-2.66-2.17-2.66-.91 0-1.49.41-1.79 1h-.06v-2.98h-.95V0h.81l.11-.9h.06c.29.63.82 1.04 1.82 1.04zm-.32-.8c-1.08 0-1.55-.8-1.55-1.84 0-1.06.47-1.86 1.55-1.86 1.1 0 1.51.61 1.51 1.86S4.64-.66 3.58-.66zm0 0"/></symbol><symbol overflow="visible" id="a70ef639F"><path d="M3.58-5.81c.42 0 .72-.22.72-.67 0-.44-.3-.68-.72-.68-.44 0-.72.24-.72.68 0 .45.28.67.72.67zm.5.8H1.52v.76h1.6v3.48h-1.8V0h4.46v-.77h-1.7zm0 0"/></symbol><symbol overflow="visible" id="a70ef639G"><path d="M3.34.14c1.43 0 2.13-.66 2.25-1.78l-.89-.1c-.1.7-.5 1.08-1.34 1.08-1.03 0-1.52-.64-1.52-1.84 0-1.23.47-1.86 1.52-1.86.84 0 1.23.36 1.34 1.08l.9-.1c-.13-1.09-.82-1.78-2.26-1.78-1.56 0-2.46.97-2.46 2.66 0 1.66.9 2.64 2.46 2.64zm0 0"/></symbol><symbol overflow="visible" id="a70ef639H"><path d="M.92-6.77V0h.99v-2.27h1.68c1.58 0 2.38-.65 2.38-2.2v-.14c0-1.51-.8-2.16-2.34-2.16zM5-4.47c0 1.05-.42 1.45-1.58 1.45H1.91v-2.96h1.51C4.58-5.98 5-5.66 5-4.61zm0 0"/></symbol><symbol overflow="visible" id="a70ef639I"><path d="M2.16 0v-2.67c0-.99.59-1.63 1.46-1.63.74 0 1.07.38 1.07 1.22V0h.95v-3.31c0-1.2-.56-1.85-1.67-1.85-.92 0-1.49.46-1.77 1.08h-.06l-.12-.94H1.2V0zm0 0"/></symbol><symbol overflow="visible" id="a70ef639J"><path d="M3.42-.86h-.08L1.77-5.02H.8L2.73 0h.41c-.33.95-.72 1.27-1.45 1.27-.22 0-.49-.04-.69-.08l-.1.73c.2.06.58.11.87.11 1.2 0 1.7-.7 2.21-2.03l1.94-5.02H5zm0 0"/></symbol><symbol overflow="visible" id="a70ef639K"><path d="M1.45-7.1c1.96.33 2.8 1.94 2.8 4.15 0 2.2-.84 3.8-2.8 4.17l.11.67c2.58-.47 3.67-2.28 3.67-4.84 0-2.55-1.09-4.36-3.67-4.85zm0 0"/></symbol></defs><g fill="#515151"><use xlink:href="#a70ef639a" x="215.28" y="141"/><use xlink:href="#a70ef639b" x="251.58" y="141"/></g><g fill="#515151"><use xlink:href="#a70ef639c" x="276.66" y="141"/><use xlink:href="#a70ef639d" x="293.4" y="141"/><use xlink:href="#a70ef639e" x="304.8" y="141"/></g><use xlink:href="#a70ef639f" x="325.92" y="141" fill="#fff"/><use xlink:href="#a70ef639f" x="355.32" y="141" fill="#fff"/><g fill="#fff"><use xlink:href="#a70ef639g" x="256.6667" y="252"/><use xlink:href="#a70ef639h" x="263.3337" y="252"/><use xlink:href="#a70ef639i" x="270.0007" y="252"/><use xlink:href="#a70ef639j" x="276.6677" y="252"/><use xlink:href="#a70ef639k" x="283.3347" y="252"/><use xlink:href="#a70ef639l" x="290.0017" y="252"/><use xlink:href="#a70ef639m" x="296.6687" y="252"/><use xlink:href="#a70ef639n" x="303.3357" y="252"/><use xlink:href="#a70ef639o" x="310.0027" y="252"/><use xlink:href="#a70ef639l" x="316.6697" y="252"/><use xlink:href="#a70ef639p" x="323.3367" y="252"/><use xlink:href="#a70ef639q" x="330.0037" y="252"/><use xlink:href="#a70ef639q" x="336.6707" y="252"/></g><g fill="#fff"><use xlink:href="#a70ef639r" x="153.3333" y="266"/><use xlink:href="#a70ef639h" x="160.0003" y="266"/><use xlink:href="#a70ef639s" x="166.6673" y="266"/><use xlink:href="#a70ef639j" x="173.3343" y="266"/><use xlink:href="#a70ef639t" x="180.0013" y="266"/><use xlink:href="#a70ef639u" x="186.6683" y="266"/><use xlink:href="#a70ef639h" x="193.3353" y="266"/><use xlink:href="#a70ef639k" x="200.0023" y="266"/><use xlink:href="#a70ef639l" x="206.6693" y="266"/><use xlink:href="#a70ef639v" x="213.3363" y="266"/><use xlink:href="#a70ef639w" x="220.0033" y="266"/><use xlink:href="#a70ef639s" x="226.6703" y="266"/><use xlink:href="#a70ef639x" x="233.3373" y="266"/><use xlink:href="#a70ef639y" x="240.0043" y="266"/><use xlink:href="#a70ef639h" x="246.6713" y="266"/><use xlink:href="#a70ef639z" x="253.3383" y="266"/><use xlink:href="#a70ef639l" x="260.0053" y="266"/><use xlink:href="#a70ef639A" x="266.6723" y="266"/><use xlink:href="#a70ef639h" x="273.3393" y="266"/><use xlink:href="#a70ef639u" x="280.0063" y="266"/><use xlink:href="#a70ef639l" x="286.6733" y="266"/><use xlink:href="#a70ef639B" x="293.3403" y="266"/><use xlink:href="#a70ef639A" x="300.0073" y="266"/><use xlink:href="#a70ef639h" x="306.6743" y="266"/><use xlink:href="#a70ef639u" x="313.3413" y="266"/><use xlink:href="#a70ef639n" x="320.0083" y="266"/><use xlink:href="#a70ef639C" x="326.6753" y="266"/><use xlink:href="#a70ef639l" x="333.3423" y="266"/><use xlink:href="#a70ef639D" x="340.0093" y="266"/><use xlink:href="#a70ef639u" x="346.6763" y="266"/><use xlink:href="#a70ef639s" x="353.3433" y="266"/><use xlink:href="#a70ef639E" x="360.0103" y="266"/><use xlink:href="#a70ef639F" x="366.6773" y="266"/><use xlink:href="#a70ef639G" x="373.3443" y="266"/><use xlink:href="#a70ef639l" x="380.0113" y="266"/><use xlink:href="#a70ef639H" x="386.6783" y="266"/><use xlink:href="#a70ef639u" x="393.3453" y="266"/><use xlink:href="#a70ef639n" x="400.0123" y="266"/><use xlink:href="#a70ef639l" x="406.6793" y="266"/><use xlink:href="#a70ef639n" x="413.3463" y="266"/><use xlink:href="#a70ef639I" x="420.0133" y="266"/><use xlink:href="#a70ef639w" x="426.6803" y="266"/><use xlink:href="#a70ef639J" x="433.3473" y="266"/><use xlink:href="#a70ef639K" x="440.0143" y="266"/></g></svg>