<?xml version='1.0' encoding='UTF-8'?>
<svg xmlns="http://www.w3.org/2000/svg" xmlns:xlink="http://www.w3.org/1999/xlink" width="600px" height="300px" viewBox="0 0 600 300" x="0px" y="0px" enable-background="new 0 0 600 300"><defs><symbol overflow="visible" id="0d3e9fb8a"><path d="M7.92 21.66l1.02.36c.78-1.38.78-2.33.78-4.25 0-1.99-.53-4.86-1.08-7.86C7.92 6 7.27 2.8 6.84 0c.43-.9 1.74-2.7 2.64-3.72 2.1 4.74 5.7 7.5 8.75 7.5 2.47 0 4.33-1.86 5.54-5.51C24.95-.3 27.48.42 29.16.42c.9 0 1.8-.9 1.8-2.4s-.9-2.33-1.8-2.33c-2.29 0-4.57-.61-7.2-4.03-1.91-2.75-4.02-4.02-6.37-4.02-3.46 0-7.5 3.6-9.95 8.64-1.5 2.81-1.73 4.5-1.73 6 0 1.56.71 3.95 1.5 7.27 1.73 7.25 2.21 8.75 2.51 12.1zm3.13-27.79A5.12 5.12 0 0115.3-8.4c2.47 0 5.34 3.25 5.64 7.99-3.85 0-7.63-1.74-9.9-5.7zm0 0"/></symbol><symbol overflow="visible" id="0d3e9fb8b"><path d="M5.28-2.4c1.92 3.18 6.95 6 9.95 6 2.05 0 4.14-2.65 4.86-5.76A7.8 7.8 0 0025.73.42c.91 0 1.86-.9 1.86-2.4s-.95-2.33-1.86-2.33c-2.15 0-5.09-1.27-7.14-4.69-1.6-2.7-3.53-3.78-5.45-3.78-2.28 0-5.1 2.1-6.9 5.51C4.36-5.28 2.63-4.3 0-4.3c-.95 0-1.63.72-1.63 2.33 0 1.56.68 2.4 1.63 2.4 2.22 0 4.02-1.2 5.28-2.83zm2.4-2.76c.84-1.68 2.95-3.71 4.87-3.71 2.22 0 4.73 3.71 4.97 8.32-4.08 0-8.46-2.51-9.83-4.6zm0 0"/></symbol><symbol overflow="visible" id="0d3e9fb8c"><path d="M7.02-3.66c2.64 3.24 6.78 4.97 9.42 4.97 1.43 0 2.28-.6 3.3-1.86A6.8 6.8 0 0021.3-4.8c0-5.22-3.72-10.14-7.2-10.14-2.7 0-5.58 2.7-7.2 6.3C5.1-5.77 3.37-4.31 0-4.31c-.9 0-1.63.89-1.63 2.39C-1.63-.48-.78.42 0 .42c3.06 0 5.16-1.37 7.02-4.08zm1.8-3.65c.84-1.69 2.76-3.74 4.68-3.74 2.1 0 4.86 3.32 5.16 7.99-3.9 0-8.46-2.16-9.85-4.25zm0 0"/></symbol><symbol overflow="visible" id="0d3e9fb8e"><path d="M7.73-11.16l1.75.54c.9-2.65 1.86-3.72 3.72-3.72 1.8 0 6 2.46 8.7 6.9l-.06.07C11.58-7.32 6.72-4.92 4.74-1.2a6.15 6.15 0 00-.83 3.48c0 1.56.65 3.85 1.43 6.95 1.32 5.35 2.29 9.07 2.58 12.43l1.02.36c.78-1.38.78-2.33.78-4.25 0-1.99-.53-5.05-1.08-7.86C7.92 6 7.2 2.87 6.84 0 9-2.1 13.2-3.3 24.48-3.3l2.1-4.56c-4.02-7.37-9.36-11.05-12.66-11.05-2.83 0-5.04 2.77-6.19 7.75zm0 0"/></symbol><symbol overflow="visible" id="0d3e9fb8f"><path d="M3.83 0v-5.95H6.2v-.82H.45v.82h2.4V0zm0 0"/></symbol><symbol overflow="visible" id="0d3e9fb8g"><path d="M5.75-2.23v-.43c0-1.6-.9-2.51-2.42-2.51S.87-4.16.87-2.48c0 1.71.91 2.62 2.5 2.62 1.43 0 2.07-.56 2.29-1.52l-.9-.09c-.18.61-.59.9-1.35.9-.94 0-1.52-.54-1.58-1.66zm-2.4-2.2c.93 0 1.43.5 1.48 1.55H1.84c.08-1.07.6-1.56 1.5-1.56zm0 0"/></symbol><symbol overflow="visible" id="0d3e9fb8h"><path d="M1.83 0l1.42-2h.06l1.46 2H5.8L4-2.53l1.78-2.49H4.8L3.42-3.08h-.08l-1.4-1.94H.89l1.78 2.49L.84 0zm0 0"/></symbol><symbol overflow="visible" id="0d3e9fb8i"><path d="M5.52-4.25v-.77H3.17v-1.56h-.81l-.14 1.56H.75v.77h1.47v2.4c0 1.3.48 1.94 1.84 1.94C4.6.1 5.14 0 5.55-.14L5.4-.91c-.32.13-.72.2-1.13.2-.8 0-1.1-.37-1.1-1.23v-2.31zm0 0"/></symbol><symbol overflow="visible" id="0d3e9fb8j"><path d="M3.33-3.42c.47 0 .8-.27.8-.8 0-.51-.33-.8-.8-.8-.47 0-.8.29-.8.8 0 .53.33.8.8.8zm0 3.5c.47 0 .8-.27.8-.78 0-.53-.33-.82-.8-.82-.47 0-.8.29-.8.82 0 .51.33.78.8.78zm0 0"/></symbol><symbol overflow="visible" id="0d3e9fb8p"><path d="M5.95-6.77H1.1V0h.99v-2.92H5.3v-.77H2.08v-2.26h3.87zm0 0"/></symbol><symbol overflow="visible" id="0d3e9fb8q"><path d="M2.83.14c.94 0 1.5-.39 1.81-.95h.08l.1.81h.76v-3.38c0-1.23-.69-1.8-2.13-1.8-1.43 0-2.03.65-2.18 1.6l.93.1c.11-.6.44-.93 1.22-.93.85 0 1.22.32 1.22 1.04v.34l-1.81.2C1.6-2.7 1.1-2.17 1.1-1.28c0 .92.64 1.42 1.72 1.42zm.25-.77c-.67 0-1.02-.28-1.02-.74 0-.44.28-.72 1-.82l1.58-.19v.41c0 .8-.6 1.34-1.56 1.34zm0 0"/></symbol><symbol overflow="visible" id="0d3e9fb8r"><path d="M2.73.14c.9 0 1.43-.45 1.74-1.08h.06l.13.94h.8v-5.02h-.94v2.7c0 .98-.57 1.62-1.46 1.62-.75 0-1.1-.4-1.1-1.22v-3.1h-.93v3.32c0 1.17.55 1.84 1.7 1.84zm0 0"/></symbol><symbol overflow="visible" id="0d3e9fb8s"><path d="M5.08-5.16c-.94 0-1.58.43-1.9 1.3h-.09l-.07-1.16H1.05v.77h1.1v3.48H.96V0h3.96v-.77H3.1v-1.46c0-1.36.6-2.05 1.83-2.05.4 0 .76.08 1.1.17l.15-.87c-.33-.11-.7-.18-1.11-.18zm0 0"/></symbol><symbol overflow="visible" id="0d3e9fb8t"><path d="M6.17 0L3.98-6.77h-1.3L.5 0h.97l.44-1.47h2.78L5.16 0zM3.28-5.94h.08l1.1 3.74H2.15zm0 0"/></symbol><symbol overflow="visible" id="0d3e9fb8u"><path d="M3.92-7.14H1.36v.76h1.6v5.61H1.15V0H5.7v-.77H3.92zm0 0"/></symbol><symbol overflow="visible" id="0d3e9fb8v"><path d="M2.16 0v-2.67c0-.99.59-1.63 1.46-1.63.74 0 1.07.38 1.07 1.22V0h.95v-3.31c0-1.2-.56-1.85-1.67-1.85-.92 0-1.49.46-1.77 1.08h-.06l-.12-.94H1.2V0zm0 0"/></symbol><symbol overflow="visible" id="0d3e9fb8w"><path d="M3.58-5.81c.42 0 .72-.22.72-.67 0-.44-.3-.68-.72-.68-.44 0-.72.24-.72.68 0 .45.28.67.72.67zm.5.8H1.52v.76h1.6v3.48h-1.8V0h4.46v-.77h-1.7zm0 0"/></symbol><symbol overflow="visible" id="0d3e9fb8x"><path d="M3.9 0l2-5.02h-.96L3.4-.94h-.07L1.8-5.02H.77L2.78 0zm0 0"/></symbol><symbol overflow="visible" id="0d3e9fb8y"><path d="M4.63-6.5c.45 0 .98.08 1.39.2l.2-.72a5.3 5.3 0 00-1.64-.26c-1.52 0-2.16.56-2.16 1.87v.4H.9v.76h1.53V0h.94v-4.25h2.53v-.77H3.36v-.3c0-.84.33-1.18 1.27-1.18zm0 0"/></symbol><symbol overflow="visible" id="0d3e9fb8z"><path d="M3.33.14c1.62 0 2.5-.95 2.5-2.66 0-1.68-.88-2.64-2.5-2.64-1.63 0-2.5.96-2.5 2.64 0 1.7.87 2.66 2.5 2.66zm0-.77c-1.06 0-1.52-.6-1.52-1.89 0-1.28.46-1.87 1.52-1.87 1.08 0 1.53.6 1.53 1.87 0 1.29-.45 1.9-1.53 1.9zm0 0"/></symbol><symbol overflow="visible" id="0d3e9fb8A"><path d="M1.63 0v-2.9c0-.8.15-1.4.71-1.4.41 0 .55.3.55.88V0h.95v-2.9c0-.8.18-1.4.72-1.4.4 0 .57.3.57.88V0h.95v-3.63c0-.92-.28-1.53-1.11-1.53-.63 0-.95.41-1.1.9h-.06c-.1-.52-.44-.9-1.08-.9-.6 0-.93.41-1.06.9H1.6l-.23-.76H.67V0zm0 0"/></symbol><symbol overflow="visible" id="0d3e9fb8B"><path d="M3.38-5.97c.1-.47.4-1 .64-1.34l-.58-.22c-.35.39-.96 1.39-.96 2.26 0 .6.32.93.86.93.55 0 .85-.32.85-.85 0-.51-.35-.78-.82-.78zm0 0"/></symbol><symbol overflow="visible" id="0d3e9fb8C"><path d="M3.33-7.53c-.52 0-.8.28-.8.8 0 .51.33.76.78.76h.03c-.1.47-.4 1.02-.65 1.38l.5.2c.34-.4.95-1.36.95-2.25 0-.6-.31-.9-.81-.9zm0 0"/></symbol><symbol overflow="visible" id="0d3e9fb8D"><path d="M1.45-2.95c0 2.56 1.08 4.37 3.67 4.84l.11-.67C3.28.86 2.43-.75 2.43-2.95s.85-3.82 2.8-4.16l-.1-.69c-2.6.49-3.68 2.3-3.68 4.85zm0 0"/></symbol><symbol overflow="visible" id="0d3e9fb8E"><path d="M3.36.16c1.4 0 2.2-.6 2.2-1.57 0-.89-.54-1.22-1.47-1.39L3-3c-.67-.14-.86-.33-.86-.73 0-.5.4-.74 1.17-.74.83 0 1.19.27 1.27.8l.9-.05c-.12-1-.8-1.47-2.17-1.47-1.34 0-2.1.53-2.1 1.5 0 .81.45 1.22 1.52 1.44l1.04.2c.56.11.87.24.87.72 0 .52-.45.78-1.28.78-.95 0-1.36-.28-1.42-.87l-.9.06C1.07-.36 1.8.16 3.35.16zm0 0"/></symbol><symbol overflow="visible" id="0d3e9fb8F"><path d="M3.33.14c1.65 0 2.6-1.1 2.6-3.52S4.99-6.9 3.34-6.9C1.67-6.9.72-5.8.72-3.37c0 2.4.95 3.51 2.6 3.51zm0-.84c-1.13 0-1.6-.85-1.6-2.67 0-1.86.47-2.7 1.6-2.7 1.12 0 1.6.84 1.6 2.7 0 1.82-.48 2.67-1.6 2.67zM3.3-2.64c.38 0 .56-.28.56-.72 0-.44-.18-.7-.56-.7-.39 0-.56.26-.56.7 0 .44.17.72.56.72zm0 0"/></symbol><symbol overflow="visible" id="0d3e9fb8G"><path d="M3.25.14c1.58 0 2.53-.69 2.53-1.95 0-1.19-.92-1.56-1.6-1.61v-.05A1.6 1.6 0 005.6-5.12c0-1.13-.87-1.79-2.3-1.79-1.62 0-2.32.82-2.45 1.88l.97.06c.13-.69.52-1.1 1.47-1.1.86 0 1.35.32 1.35 1.05 0 .86-.6 1.2-1.66 1.2h-.49v.79h.54c1.12 0 1.78.25 1.78 1.14 0 .78-.46 1.22-1.55 1.22-1.06 0-1.48-.4-1.63-1.1l-.98.07C.75-.56 1.56.14 3.25.14zm0 0"/></symbol><symbol overflow="visible" id="0d3e9fb8H"><path d="M3.34-1.52c-.51 0-.8.32-.8.82 0 .5.33.78.76.78-.1.4-.36.95-.7 1.39l.5.23A4.48 4.48 0 004.13-.64c0-.55-.3-.88-.78-.88zm0 0"/></symbol><symbol overflow="visible" id="0d3e9fb8I"><path d="M3.9.14c1.48 0 2.18-.98 2.18-2.64 0-1.67-.7-2.66-2.17-2.66-.91 0-1.49.41-1.79 1h-.06v-2.98h-.95V0h.81l.11-.9h.06c.29.63.82 1.04 1.82 1.04zm-.32-.8c-1.08 0-1.55-.8-1.55-1.84 0-1.06.47-1.86 1.55-1.86 1.1 0 1.51.61 1.51 1.86S4.64-.66 3.58-.66zm0 0"/></symbol><symbol overflow="visible" id="0d3e9fb8J"><path d="M3.34.14c1.43 0 2.13-.66 2.25-1.78l-.89-.1c-.1.7-.5 1.08-1.34 1.08-1.03 0-1.52-.64-1.52-1.84 0-1.23.47-1.86 1.52-1.86.84 0 1.23.36 1.34 1.08l.9-.1c-.13-1.09-.82-1.78-2.26-1.78-1.56 0-2.46.97-2.46 2.66 0 1.66.9 2.64 2.46 2.64zm0 0"/></symbol><symbol overflow="visible" id="0d3e9fb8K"><path d="M.92-6.77V0h.99v-2.27h1.68c1.58 0 2.38-.65 2.38-2.2v-.14c0-1.51-.8-2.16-2.34-2.16zM5-4.47c0 1.05-.42 1.45-1.58 1.45H1.91v-2.96h1.51C4.58-5.98 5-5.66 5-4.61zm0 0"/></symbol><symbol overflow="visible" id="0d3e9fb8L"><path d="M3.42-.86h-.08L1.77-5.02H.8L2.73 0h.41c-.33.95-.72 1.27-1.45 1.27-.22 0-.49-.04-.69-.08l-.1.73c.2.06.58.11.87.11 1.2 0 1.7-.7 2.21-2.03l1.94-5.02H5zm0 0"/></symbol><symbol overflow="visible" id="0d3e9fb8M"><path d="M1.45-7.1c1.96.33 2.8 1.94 2.8 4.15 0 2.2-.84 3.8-2.8 4.17l.11.67c2.58-.47 3.67-2.28 3.67-4.84 0-2.55-1.09-4.36-3.67-4.85zm0 0"/></symbol><symbol overflow="visible" id="0d3e9fb8l"><path d="M.6 2.25l.68-.05C1.18 1.12 1.12.37 1.1-.2c0-.16 0-.25.14-.27A5.7 5.7 0 003.06 0c.31 0 .55-.1.72-.27.2.25.5.27.83.27v-.75c-.38 0-.55 0-.55-.4 0-1-.58-1.82-1.48-1.82-.74 0-1 .53-1.28 1.28l-.16.5c-.48.06-.7.4-.7.99 0 .45.1 1.54.15 2.45zM3.05-.72c-.33 0-.87-.17-1.15-.26-.18-.05-.18-.05-.05-.4.12-.37.25-.82.73-.82.5 0 .88.45.88 1.04 0 .32-.11.44-.4.44zm0 0"/></symbol><symbol overflow="visible" id="0d3e9fb8m"><path d="M2.63 0a1 1 0 00.73-.27c.2.25.5.27.83.27v-.75c-.38 0-.57 0-.57-.4 0-1-.57-1.82-1.48-1.82-.87 0-1.1.78-1.45 1.83l-.06.19c-.07.2-.1.2-.24.2H0c-.3 0-.38.13-.38.36 0 .27.08.39.38.39h.3c.45 0 .62-.1.76-.38.63.24 1.16.38 1.56.38zm.01-.72c-.33 0-.89-.17-1.16-.26-.17-.05-.17-.05-.06-.4.14-.37.27-.82.75-.82.49 0 .86.45.86 1.04 0 .32-.1.44-.39.44zm0 0"/></symbol><symbol overflow="visible" id="0d3e9fb8n"><path d="M2.63 0c.65 0 1-.4 1-1.16 0-1-.58-1.8-1.49-1.8-.87 0-1.1.77-1.45 1.82l-.06.19c-.07.2-.1.2-.24.2H0c-.3 0-.38.13-.38.36 0 .27.08.39.38.39h.3c.45 0 .62-.1.76-.38.63.24 1.16.38 1.56.38zm.01-.72c-.33 0-.89-.17-1.16-.26-.17-.05-.17-.05-.06-.4.14-.37.27-.82.75-.82.49 0 .86.45.86 1.04 0 .32-.1.44-.39.44zm0 0"/></symbol><symbol overflow="visible" id="0d3e9fb8o"><path d="M.6 2.25l.68-.05C1.18 1.12 1.12.37 1.1-.2c0-.16 0-.25.14-.27A5.7 5.7 0 003.06 0c.64 0 1-.4 1-1.16 0-1-.58-1.8-1.48-1.8-.74 0-1 .52-1.28 1.27l-.16.5c-.48.06-.7.4-.7.99 0 .45.1 1.54.15 2.45zM3.05-.72c-.33 0-.87-.17-1.15-.26-.18-.05-.18-.05-.05-.4.12-.37.25-.82.73-.82.5 0 .88.45.88 1.04 0 .32-.11.44-.4.44zm0 0"/></symbol></defs><g fill="#fff"><use xlink:href="#0d3e9fb8a" x="240.78" y="141"/><use xlink:href="#0d3e9fb8b" x="269.94" y="141"/><use xlink:href="#0d3e9fb8c" x="295.74" y="141"/><use xlink:href="#0d3e9fb8d" x="319.14" y="141"/><use xlink:href="#0d3e9fb8e" x="330.54" y="141"/><use xlink:href="#0d3e9fb8f" x="267.9815" y="252"/><use xlink:href="#0d3e9fb8g" x="274.6485" y="252"/><use xlink:href="#0d3e9fb8h" x="281.3155" y="252"/><use xlink:href="#0d3e9fb8i" x="287.9825" y="252"/><use xlink:href="#0d3e9fb8j" x="294.6495" y="252"/><use xlink:href="#0d3e9fb8k" x="301.3165" y="252"/><g><use xlink:href="#0d3e9fb8l" x="307.9815" y="252"/><use xlink:href="#0d3e9fb8m" x="312.5925" y="252"/></g><g><use xlink:href="#0d3e9fb8n" x="316.7735" y="252"/></g><g><use xlink:href="#0d3e9fb8o" x="327.5185" y="252"/></g><g><use xlink:href="#0d3e9fb8p" x="106.66667" y="266"/><use xlink:href="#0d3e9fb8g" x="113.33367" y="266"/><use xlink:href="#0d3e9fb8q" x="120.00067" y="266"/><use xlink:href="#0d3e9fb8i" x="126.66767" y="266"/><use xlink:href="#0d3e9fb8r" x="133.33467" y="266"/><use xlink:href="#0d3e9fb8s" x="140.00167" y="266"/><use xlink:href="#0d3e9fb8g" x="146.66867" y="266"/><use xlink:href="#0d3e9fb8j" x="153.33567" y="266"/><use xlink:href="#0d3e9fb8k" x="160.00267" y="266"/><use xlink:href="#0d3e9fb8t" x="166.66967" y="266"/><use xlink:href="#0d3e9fb8u" x="173.33667" y="266"/><use xlink:href="#0d3e9fb8i" x="180.00367" y="266"/><use xlink:href="#0d3e9fb8g" x="186.67067" y="266"/><use xlink:href="#0d3e9fb8s" x="193.33767" y="266"/><use xlink:href="#0d3e9fb8v" x="200.00467" y="266"/><use xlink:href="#0d3e9fb8q" x="206.67167" y="266"/><use xlink:href="#0d3e9fb8i" x="213.33867" y="266"/><use xlink:href="#0d3e9fb8w" x="220.00567" y="266"/><use xlink:href="#0d3e9fb8x" x="226.67267" y="266"/><use xlink:href="#0d3e9fb8g" x="233.33967" y="266"/><use xlink:href="#0d3e9fb8k" x="240.00667" y="266"/><use xlink:href="#0d3e9fb8y" x="246.67367" y="266"/><use xlink:href="#0d3e9fb8z" x="253.34067" y="266"/><use xlink:href="#0d3e9fb8s" x="260.00767" y="266"/><use xlink:href="#0d3e9fb8A" x="266.67467" y="266"/><use xlink:href="#0d3e9fb8k" x="273.34167" y="266"/><use xlink:href="#0d3e9fb8z" x="280.00867" y="266"/><use xlink:href="#0d3e9fb8y" x="286.67567" y="266"/><use xlink:href="#0d3e9fb8k" x="293.34267" y="266"/><use xlink:href="#0d3e9fb8B" x="300.00967" y="266"/><use xlink:href="#0d3e9fb8A" x="306.67667" y="266"/><use xlink:href="#0d3e9fb8w" x="313.34367" y="266"/><use xlink:href="#0d3e9fb8A" x="320.01067" y="266"/><use xlink:href="#0d3e9fb8C" x="326.67767" y="266"/><use xlink:href="#0d3e9fb8k" x="333.34467" y="266"/><use xlink:href="#0d3e9fb8D" x="340.01167" y="266"/><use xlink:href="#0d3e9fb8E" x="346.67867" y="266"/><use xlink:href="#0d3e9fb8E" x="353.34567" y="266"/><use xlink:href="#0d3e9fb8F" x="360.01267" y="266"/><use xlink:href="#0d3e9fb8G" x="366.67967" y="266"/><use xlink:href="#0d3e9fb8H" x="373.34667" y="266"/><use xlink:href="#0d3e9fb8k" x="380.01367" y="266"/><use xlink:href="#0d3e9fb8t" x="386.68067" y="266"/><use xlink:href="#0d3e9fb8s" x="393.34767" y="266"/><use xlink:href="#0d3e9fb8q" x="400.01467" y="266"/><use xlink:href="#0d3e9fb8I" x="406.68167" y="266"/><use xlink:href="#0d3e9fb8w" x="413.34867" y="266"/><use xlink:href="#0d3e9fb8J" x="420.01567" y="266"/><use xlink:href="#0d3e9fb8k" x="426.68267" y="266"/><use xlink:href="#0d3e9fb8K" x="433.34967" y="266"/><use xlink:href="#0d3e9fb8s" x="440.01667" y="266"/><use xlink:href="#0d3e9fb8z" x="446.68367" y="266"/><use xlink:href="#0d3e9fb8k" x="453.35067" y="266"/><use xlink:href="#0d3e9fb8z" x="460.01767" y="266"/><use xlink:href="#0d3e9fb8v" x="466.68467" y="266"/><use xlink:href="#0d3e9fb8u" x="473.35167" y="266"/><use xlink:href="#0d3e9fb8L" x="480.01867" y="266"/><use xlink:href="#0d3e9fb8M" x="486.68567" y="266"/></g></g></svg>