<?xml version='1.0' encoding='UTF-8'?>
<svg xmlns="http://www.w3.org/2000/svg" xmlns:xlink="http://www.w3.org/1999/xlink" width="310px" height="280px" viewBox="0 0 310 280" x="0px" y="0px" enable-background="new 0 0 310 280"><defs><symbol overflow="visible" id="af8b2ccfa"><path d="M9.36 28.16l1.87.46c1.1-1.8 1.41-3.35 1.41-5.84 0-2.42-.47-5.7-1.17-9.6C10.6 8.59 9.52 2.67 9.12-.38c.7-1.4 2.04-2.97 3.2-4.38C14.9 2.97 18.65 6.7 22.7 6.7c3.66 0 7.1-4.12 8.5-9.2A10.2 10.2 0 0038.7.55c1.33 0 2.65-1.64 2.65-4.14 0-2.49-1.32-4.2-2.65-4.2-3.13 0-4.9-.94-8.81-5.08-3.6-3.82-5.54-5.22-8.97-5.22-7.49 0-16.77 12.87-16.77 20.67 0 2.4.84 5.45 2.02 10.3 1.87 7.64 2.73 10.53 3.2 15.28zM29.17-4.45a6.47 6.47 0 01-5.69 3.43c-2.8 0-5.23-1.48-8.2-6.93 1.49-1.64 3.2-2.74 5.24-2.74 2.5 0 5.6 1.8 8.65 6.24zm0 0"/></symbol><symbol overflow="visible" id="af8b2ccfb"><path d="M12.48-18.95l-2.8 3.43.46 3.35C7.72-9.05 4.45-7.8 0-7.8c-1.33 0-2.34 1.4-2.34 4.13C-2.34-.78-1.25.55 0 .55c5.45 0 9.28-2.97 11.63-7.88h.07C14.36-2.19 18.4.55 25.2.55c1.17 0 2.34-1.64 2.34-4.14 0-2.49-1.17-4.2-2.34-4.2-6.4 0-10.46-3.13-12.47-11.16zm5.54 34.23l4.14-5.14a24.2 24.2 0 01-5.79-4.69l-3.5 4.85a20.78 20.78 0 01-4.6-4.46l-4.13 5.24a14.86 14.86 0 005.69 4.6l3.04-4.29c1.41 1.56 3.5 3.13 5.15 3.9zm0 0"/></symbol><symbol overflow="visible" id="af8b2ccfc"><path d="M38.77-14.9l.54-3.04-3.2 1.33c-.94 5.38-2.88 8.11-5.53 8.11-2.11 0-3.52-2.03-3.75-5.31l.47-2.72-3.03 1.25C22.16-9.6 19.73-7.8 17-7.8c-2.88 0-4.67-2.1-5.14-4.92l.7-2.4-2.97.76C7.25-9.67 4.14-7.8 0-7.8c-1.1 0-2.1 1.72-2.1 4.2C-2.1-1.1-1.03.56 0 .56c3.52 0 6.4-1.72 8.66-6.24C9.67-1.87 12.09.55 15.52.55c3.28 0 5.7-1.88 7.89-6.63.7 3.66 2.95 5.92 6.15 5.92 2.97 0 5.3-1.87 7.02-6.46C37.59-2.2 40.8.54 46.25.54c1.33 0 2.66-1.64 2.66-4.14 0-2.49-1.33-4.2-2.66-4.2-4.05 0-7.02-2.58-7.48-7.1zm0 0"/></symbol><symbol overflow="visible" id="af8b2ccfd"><path d="M10.14-33.63l4.3-5.37a22.5 22.5 0 01-5.94-4.84l-4.36 5.39c1.4 2.1 4.13 3.98 6 4.83zm1.17 4.77l-5 8.5c2.11 2.03 4.61 6.31 5.32 10.14C9.28-8.58 4.97-7.8 0-7.8c-1.25 0-2.1 1.49-2.1 4.2C-2.1-.7-1.1.56 0 .56c5.69 0 10.3-1.96 12.88-5.85 2.17-3.43 3.18-6.64 3.18-10.3 0-4.76-2.1-9.82-4.75-13.26zm0 0"/></symbol><symbol overflow="visible" id="af8b2ccfe"><path d="M2.22 0v-5.38l-.1-1.18h.13L5.35 0H6.9v-8.1H5.8v5.26l.08 1.23h-.12l-3.1-6.5H1.12V0zm0 0"/></symbol><symbol overflow="visible" id="af8b2ccff"><path d="M3.4.17C4.51.17 5.2-.3 5.57-.97h.08l.12.97h.9v-4.05c0-1.48-.82-2.15-2.54-2.15-1.73 0-2.44.75-2.6 1.9l1.1.11c.13-.7.52-1.1 1.47-1.1 1.01 0 1.47.37 1.47 1.23v.42l-2.17.23c-1.49.18-2.08.82-2.08 1.86 0 1.13.76 1.72 2.06 1.72zm.29-.92c-.81 0-1.2-.33-1.2-.9 0-.52.32-.87 1.2-.96l1.89-.23v.48c0 .95-.75 1.61-1.9 1.61zm0 0"/></symbol><symbol overflow="visible" id="af8b2ccfg"><path d="M4.02.19c1.7 0 2.65-.72 2.65-1.88 0-1.06-.65-1.45-1.76-1.67L3.6-3.6c-.81-.16-1.03-.37-1.03-.87 0-.6.45-.88 1.4-.88 1 0 1.43.31 1.52.95l1.1-.06c-.16-1.2-.97-1.75-2.63-1.75-1.61 0-2.5.63-2.5 1.8 0 .97.53 1.47 1.81 1.72l1.25.23c.67.14 1.03.3 1.03.88 0 .62-.53.93-1.53.93-1.16 0-1.62-.32-1.7-1.04l-1.1.07C1.3-.43 2.17.2 4.02.2zm0 0"/></symbol><symbol overflow="visible" id="af8b2ccfh"><path d="M4.3-6.97c.5 0 .86-.28.86-.81S4.8-8.6 4.3-8.6c-.53 0-.86.28-.86.8 0 .54.33.82.86.82zm.6.95H1.82v.91h1.92v4.19H1.56V0h5.38v-.92H4.89zm0 0"/></symbol><symbol overflow="visible" id="af8b2ccfi"><path d="M1.94 0v-3.47c0-.97.2-1.69.87-1.69.49 0 .66.36.66 1.07V0H4.6v-3.47c0-.97.22-1.69.87-1.69.49 0 .68.35.68 1.07V0H7.3v-4.34c0-1.11-.35-1.85-1.35-1.85-.75 0-1.14.49-1.3 1.07h-.09c-.1-.61-.51-1.07-1.28-1.07-.73 0-1.12.49-1.28 1.07h-.08l-.3-.9H.8V0zm0 0"/></symbol><symbol overflow="visible" id="af8b2ccfk"><path d="M7.4 0L4.79-8.1H3.23L.6 0h1.18l.51-1.77h3.35L6.19 0zM3.95-7.13h.1l1.32 4.47h-2.8zm0 0"/></symbol><symbol overflow="visible" id="af8b2ccfl"><path d="M6.1-6.19c-1.12 0-1.9.52-2.3 1.57h-.08l-.11-1.4H1.27v.91h1.32v4.19H1.14V0H5.9v-.92H3.73v-1.75c0-1.64.7-2.46 2.2-2.46.48 0 .91.08 1.32.2l.17-1.05c-.39-.13-.83-.2-1.33-.2zm0 0"/></symbol><symbol overflow="visible" id="af8b2ccfm"><path d="M4.69.17c1.76 0 2.6-1.19 2.6-3.17 0-2-.84-3.19-2.6-3.19-1.1 0-1.8.49-2.14 1.2h-.08v-3.59H1.33V0h.97l.15-1.1h.07c.34.77.96 1.27 2.17 1.27zm-.4-.95C3-.78 2.45-1.75 2.45-3c0-1.28.56-2.23 1.86-2.23S6.1-4.52 6.1-3c0 1.48-.52 2.22-1.8 2.22zm0 0"/></symbol><symbol overflow="visible" id="af8b2ccfn"><path d="M4.02.17c1.7 0 2.56-.78 2.7-2.12l-1.08-.13c-.12.85-.6 1.3-1.6 1.3C2.79-.78 2.2-1.55 2.2-3c0-1.48.58-2.23 1.85-2.23 1 0 1.47.42 1.6 1.3l1.07-.12c-.16-1.33-.99-2.14-2.7-2.14-1.88 0-2.97 1.17-2.97 3.19 0 2 1.1 3.17 2.97 3.17zm0 0"/></symbol></defs><use xlink:href="#af8b2ccfa" x="90.338" y="145"/><use xlink:href="#af8b2ccfb" x="129.026" y="145"/><use xlink:href="#af8b2ccfc" x="154.22" y="145"/><use xlink:href="#af8b2ccfd" x="200.474" y="145"/><g fill-opacity=".33"><use xlink:href="#af8b2ccfe" x="103" y="230"/><use xlink:href="#af8b2ccff" x="111.0004" y="230"/><use xlink:href="#af8b2ccfg" x="119.0008" y="230"/><use xlink:href="#af8b2ccfg" x="127.0012" y="230"/><use xlink:href="#af8b2ccfh" x="135.0016" y="230"/><use xlink:href="#af8b2ccfi" x="143.002" y="230"/><use xlink:href="#af8b2ccfj" x="151.0024" y="230"/><use xlink:href="#af8b2ccfk" x="159.0028" y="230"/><use xlink:href="#af8b2ccfl" x="167.0032" y="230"/><use xlink:href="#af8b2ccff" x="175.0036" y="230"/><use xlink:href="#af8b2ccfm" x="183.004" y="230"/><use xlink:href="#af8b2ccfh" x="191.0044" y="230"/><use xlink:href="#af8b2ccfn" x="199.0048" y="230"/></g></svg>