<?xml version='1.0' encoding='UTF-8'?>
<svg xmlns="http://www.w3.org/2000/svg" xmlns:xlink="http://www.w3.org/1999/xlink" width="600px" height="300px" viewBox="0 0 600 300" x="0px" y="0px" enable-background="new 0 0 600 300"><defs><symbol overflow="visible" id="f207e817a"><path d="M8.81-1.8L8.34 0h12.54l.42-1.8-4.2-.84v-26.64l7.68.9.6 3.96h1.98l1.44-7.2H.6l1.45 7.2h1.97l.6-3.95 7.68-.91v24.06c0 2.22-.66 3.06-3.49 3.42zm0 0"/></symbol><symbol overflow="visible" id="f207e817b"><path d="M12.72.6c6.72 0 11.47-5.94 11.47-13.38 0-6.42-3.85-10.92-10.75-10.92-7.5 0-11.35 6.48-11.35 13.5C2.1-3.66 5.81.6 12.72.6zm.9-2.65c-3.67 0-6.71-3.3-6.71-9.47 0-6.6 1.9-9.54 5.68-9.54 3.61 0 6.79 3.48 6.79 9.54 0 7.25-2.22 9.47-5.75 9.47zm0 0"/></symbol><symbol overflow="visible" id="f207e817c"><path d="M9.78-29.64l-4.5.78v5.88H.78L.3-21.3l4.98 1.2v14.52c0 4.8 2.22 6 5.16 6 2.15 0 4.2-.54 6.54-2.04l-.71-2.1c-1.4.6-2.54.9-3.72.9-2.11 0-2.77-.77-2.77-4.45v-12.82h5.81l.79-2.9h-6.6zm0 0"/></symbol><symbol overflow="visible" id="f207e817d"><path d="M2.58-20.64l2.47 3.42c2.51-2.22 4.8-3.66 6.53-4.2 2.04.84 3.3 2.87 3.3 6.65v.91C9-13.08 5.45-11.8 3.65-10.38A5.63 5.63 0 001.8-6.12c0 4.26 3.06 6.6 6.54 6.6 2.52 0 4.97-1.2 6.85-3.3.6 2.34 1.97 3.3 3.89 3.3 1.2 0 2.83-.9 3.6-1.92v-.78l-3.3-.9v-12.43c0-4.97-3.3-8.03-7.44-8.03-3.42 0-6.3.9-9.36 2.94zm12.3 9.42v2.45c0 1.63.06 3 .06 3.91a6.18 6.18 0 01-4.92 2.22c-2.52 0-3.72-1.5-3.72-4.08 0-1.33.25-2.47.65-3.3 1.4-.67 4.82-1.2 7.92-1.2zm0 0"/></symbol><symbol overflow="visible" id="f207e817e"><path d="M2.34-1.8L1.86 0H12.9l.36-1.8-3.91-.84v-31.38l-8.1.96-.35 1.8 3.95.84v26.05c0 1.6-.72 2.21-2.52 2.57zm0 0"/></symbol><symbol overflow="visible" id="f207e817f"><path d="M5.05-19.69c0 2.11 1.01 3.25 3.3 3.25 2.15 0 3.23-1.2 3.23-3.25 0-2.1-1.2-3.3-3.24-3.3-2.1 0-3.3 1.08-3.3 3.3zm0 16.75C5.05-.84 6.06.3 8.35.3c2.15 0 3.23-1.2 3.23-3.24 0-2.1-1.2-3.3-3.24-3.3-2.1 0-3.3 1.08-3.3 3.3zm0 0"/></symbol><symbol overflow="visible" id="f207e817h"><path d="M9.6-15.6v.05c-4.5 2.18-6.41 5.11-6.41 8.4C3.19-2.76 7.08.6 13.08.6c5.83 0 9.9-3.82 9.9-8.32 0-3.43-1.8-6.25-6.78-9.07v-.06c4.08-1.73 5.82-4.56 5.82-7.44 0-4.39-3.72-7.8-8.82-7.8s-9.06 4.26-9.06 8.4c0 3.36 1.99 6 5.45 8.1zm4.85-2.1c-4.86-2.52-6.47-4.5-6.47-6.96 0-2.7 2.16-4.8 5.04-4.8 2.53 0 4.8 1.98 4.8 5.23a8.19 8.19 0 01-3.37 6.53zm-3.3 3.06c6 2.94 8 5.1 8 7.98 0 2.58-2.23 4.61-5.59 4.61-3.54 0-6.19-2.26-6.19-5.87 0-2.7 1.5-5.28 3.79-6.72zm0 0"/></symbol><symbol overflow="visible" id="f207e817i"><path d="M2.1 2.7l1.62 2.28C13.69 3.66 20.64-1.73 20.64-8.4c0-5.32-3.9-8.75-8.7-8.75-1.74 0-3.72.43-4.99.9l-.04-.05.82-7.03h10.4l1.43-3.9H4.31v13.32l.19.06c1.2-.3 3.06-.66 4.8-.66 3.72 0 6.54 2.52 6.54 6.36 0 5.29-5.28 9.43-13.75 10.8zm0 0"/></symbol><symbol overflow="visible" id="f207e817j"><path d="M5.16-1.8L4.73 0h14.58l.32-1.8-4.99-.84v-24.13l-1.5-.82-11.4 6.71 1.39 2.33 6.95-4.01.06.06v17.1c0 2.34-.95 3-4.98 3.6zm0 0"/></symbol><symbol overflow="visible" id="f207e817k"><path d="M19.98-29.45l.72-2.6v-.04C10.5-31.27 3.3-24 3.3-12.55 3.3-4.56 7.73.42 13.73.42c6.13 0 10.33-4.8 10.33-10.62 0-5.1-4.33-8.7-9.06-8.7-2.7 0-5.16.9-6.78 1.98h-.06c1.07-6.9 4.75-10.86 11.82-12.53zM8.1-15.23c1.46-.49 3.25-.79 4.86-.79 3.55 0 6.61 2.64 6.61 7.14 0 4.08-2.58 6.66-5.47 6.66-3.46 0-6.17-3-6.17-9.48 0-1.38.06-2.75.17-3.53zm0 0"/></symbol><symbol overflow="visible" id="f207e817l"><path d="M3.83 0v-5.95H6.2v-.82H.45v.82h2.4V0zm0 0"/></symbol><symbol overflow="visible" id="f207e817m"><path d="M5.75-2.23v-.43c0-1.6-.9-2.51-2.42-2.51S.87-4.16.87-2.48c0 1.71.91 2.62 2.5 2.62 1.43 0 2.07-.56 2.29-1.52l-.9-.09c-.18.61-.59.9-1.35.9-.94 0-1.52-.54-1.58-1.66zm-2.4-2.2c.93 0 1.43.5 1.48 1.55H1.84c.08-1.07.6-1.56 1.5-1.56zm0 0"/></symbol><symbol overflow="visible" id="f207e817n"><path d="M1.83 0l1.42-2h.06l1.46 2H5.8L4-2.53l1.78-2.49H4.8L3.42-3.08h-.08l-1.4-1.94H.89l1.78 2.49L.84 0zm0 0"/></symbol><symbol overflow="visible" id="f207e817o"><path d="M5.52-4.25v-.77H3.17v-1.56h-.81l-.14 1.56H.75v.77h1.47v2.4c0 1.3.48 1.94 1.84 1.94C4.6.1 5.14 0 5.55-.14L5.4-.91c-.32.13-.72.2-1.13.2-.8 0-1.1-.37-1.1-1.23v-2.31zm0 0"/></symbol><symbol overflow="visible" id="f207e817p"><path d="M3.33-3.42c.47 0 .8-.27.8-.8 0-.51-.33-.8-.8-.8-.47 0-.8.29-.8.8 0 .53.33.8.8.8zm0 3.5c.47 0 .8-.27.8-.78 0-.53-.33-.82-.8-.82-.47 0-.8.29-.8.82 0 .51.33.78.8.78zm0 0"/></symbol><symbol overflow="visible" id="f207e817r"><path d="M3.33.14c1.62 0 2.5-.95 2.5-2.66 0-1.68-.88-2.64-2.5-2.64-1.63 0-2.5.96-2.5 2.64 0 1.7.87 2.66 2.5 2.66zm0-.77c-1.06 0-1.52-.6-1.52-1.89 0-1.28.46-1.87 1.52-1.87 1.08 0 1.53.6 1.53 1.87 0 1.29-.45 1.9-1.53 1.9zm0 0"/></symbol><symbol overflow="visible" id="f207e817s"><path d="M2.83.14c.94 0 1.5-.39 1.81-.95h.08l.1.81h.76v-3.38c0-1.23-.69-1.8-2.13-1.8-1.43 0-2.03.65-2.18 1.6l.93.1c.11-.6.44-.93 1.22-.93.85 0 1.22.32 1.22 1.04v.34l-1.81.2C1.6-2.7 1.1-2.17 1.1-1.28c0 .92.64 1.42 1.72 1.42zm.25-.77c-.67 0-1.02-.28-1.02-.74 0-.44.28-.72 1-.82l1.58-.19v.41c0 .8-.6 1.34-1.56 1.34zm0 0"/></symbol><symbol overflow="visible" id="f207e817t"><path d="M3.92-7.14H1.36v.76h1.6v5.61H1.15V0H5.7v-.77H3.92zm0 0"/></symbol><symbol overflow="visible" id="f207e817u"><path d="M3.33.16c1.69 0 2.69-.74 2.69-1.94 0-1.05-.8-1.58-1.43-1.72v-.05c.5-.14 1.2-.58 1.2-1.56 0-1.12-.95-1.81-2.46-1.81-1.52 0-2.46.69-2.46 1.81 0 .97.68 1.4 1.18 1.56v.05c-.6.14-1.4.64-1.4 1.72 0 1.2 1 1.94 2.68 1.94zm0-4.04c-.97 0-1.49-.43-1.49-1.12 0-.78.52-1.1 1.49-1.1.95 0 1.48.32 1.48 1.1 0 .69-.53 1.13-1.48 1.13zm0 3.24c-1.1 0-1.7-.42-1.7-1.25 0-.78.6-1.2 1.7-1.2s1.7.42 1.7 1.2c0 .83-.6 1.25-1.7 1.25zm0 0"/></symbol><symbol overflow="visible" id="f207e817v"><path d="M3.42.14c1.55 0 2.44-.84 2.44-2.33 0-1.45-.83-2.22-2.14-2.22-.75 0-1.28.27-1.67.72H2l.31-2.22h3.11v-.86H1.53l-.45 3.93h.81c.3-.36.9-.79 1.58-.79.92 0 1.44.43 1.44 1.47 0 .99-.54 1.5-1.49 1.5-.83 0-1.28-.32-1.5-1.01l-.95.1C1.07-.46 2 .13 3.42.13zm0 0"/></symbol><symbol overflow="visible" id="f207e817w"><path d="M4.22-6.77h-.86l-2.03.7v.87c.64-.17 1.26-.38 1.89-.55v4.9H1.03V0h4.9v-.86H4.21zm0 0"/></symbol><symbol overflow="visible" id="f207e817x"><path d="M3.42.14c1.58 0 2.49-.86 2.49-2.3 0-1.42-.86-2.17-2.22-2.17-1.03 0-1.58.5-1.9 1.02h-.04c.03-1.63.4-2.77 1.73-2.77.91 0 1.24.44 1.36.96l.97-.11c-.23-.96-.86-1.68-2.33-1.68C1.84-6.9.86-5.86.86-3.1.86-.9 1.78.14 3.42.14zm.02-.78c-.9 0-1.47-.55-1.47-1.47 0-.9.7-1.47 1.53-1.47.92 0 1.47.52 1.47 1.47 0 .97-.6 1.47-1.53 1.47zm0 0"/></symbol><symbol overflow="visible" id="f207e817y"><path d="M5.95-6.77H1.1V0h.99v-2.92H5.3v-.77H2.08v-2.26h3.87zm0 0"/></symbol><symbol overflow="visible" id="f207e817z"><path d="M2.73.14c.9 0 1.43-.45 1.74-1.08h.06l.13.94h.8v-5.02h-.94v2.7c0 .98-.57 1.62-1.46 1.62-.75 0-1.1-.4-1.1-1.22v-3.1h-.93v3.32c0 1.17.55 1.84 1.7 1.84zm0 0"/></symbol><symbol overflow="visible" id="f207e817A"><path d="M5.08-5.16c-.94 0-1.58.43-1.9 1.3h-.09l-.07-1.16H1.05v.77h1.1v3.48H.96V0h3.96v-.77H3.1v-1.46c0-1.36.6-2.05 1.83-2.05.4 0 .76.08 1.1.17l.15-.87c-.33-.11-.7-.18-1.11-.18zm0 0"/></symbol><symbol overflow="visible" id="f207e817B"><path d="M4.06-2.77c1.25-.04 1.92-.7 1.92-1.96 0-1.36-.7-2.04-2.17-2.04H.92V0h.97v-2.73h1.08L4.95 0h1.1zM1.9-6h1.7c1.07 0 1.46.34 1.46 1.28 0 .9-.44 1.27-1.47 1.27H1.89zm0 0"/></symbol><symbol overflow="visible" id="f207e817C"><path d="M2.16 0v-2.67c0-.99.59-1.63 1.46-1.63.74 0 1.07.38 1.07 1.22V0h.95v-3.31c0-1.2-.56-1.85-1.67-1.85-.92 0-1.49.46-1.77 1.08h-.06l-.12-.94H1.2V0zm0 0"/></symbol><symbol overflow="visible" id="f207e817D"><path d="M3.16 2.03c1.67 0 2.4-.86 2.4-2.51v-4.54h-.81l-.13.91h-.06c-.26-.58-.8-1.05-1.73-1.05-1.42 0-2.24 1-2.24 2.52 0 1.6.75 2.56 2.2 2.56.94 0 1.5-.5 1.77-1.03h.05v.72c0 1.17-.42 1.67-1.45 1.67-.93 0-1.3-.34-1.41-.89L.8.5c.12.96.87 1.54 2.36 1.54zM3.06-.8c-.98 0-1.48-.57-1.48-1.82 0-1.13.5-1.75 1.48-1.75 1.06 0 1.58.76 1.58 1.75 0 .95-.56 1.82-1.58 1.82zm0 0"/></symbol><symbol overflow="visible" id="f207e817E"><path d="M3.58-5.81c.42 0 .72-.22.72-.67 0-.44-.3-.68-.72-.68-.44 0-.72.24-.72.68 0 .45.28.67.72.67zm.5.8H1.52v.76h1.6v3.48h-1.8V0h4.46v-.77h-1.7zm0 0"/></symbol><symbol overflow="visible" id="f207e817F"><path d="M1.63 0v-2.9c0-.8.15-1.4.71-1.4.41 0 .55.3.55.88V0h.95v-2.9c0-.8.18-1.4.72-1.4.4 0 .57.3.57.88V0h.95v-3.63c0-.92-.28-1.53-1.11-1.53-.63 0-.95.41-1.1.9h-.06c-.1-.52-.44-.9-1.08-.9-.6 0-.93.41-1.06.9H1.6l-.23-.76H.67V0zm0 0"/></symbol><symbol overflow="visible" id="f207e817G"><path d="M3.36.16c1.4 0 2.2-.6 2.2-1.57 0-.89-.54-1.22-1.47-1.39L3-3c-.67-.14-.86-.33-.86-.73 0-.5.4-.74 1.17-.74.83 0 1.19.27 1.27.8l.9-.05c-.12-1-.8-1.47-2.17-1.47-1.34 0-2.1.53-2.1 1.5 0 .81.45 1.22 1.52 1.44l1.04.2c.56.11.87.24.87.72 0 .52-.45.78-1.28.78-.95 0-1.36-.28-1.42-.87l-.9.06C1.07-.36 1.8.16 3.35.16zm0 0"/></symbol><symbol overflow="visible" id="f207e817H"><path d="M1.45-2.95c0 2.56 1.08 4.37 3.67 4.84l.11-.67C3.28.86 2.43-.75 2.43-2.95s.85-3.82 2.8-4.16l-.1-.69c-2.6.49-3.68 2.3-3.68 4.85zm0 0"/></symbol><symbol overflow="visible" id="f207e817I"><path d="M2.84.14C3.8.14 4.33-.26 4.6-.9h.07L4.8 0h.76v-7.14h-.95v2.95h-.08c-.28-.6-.86-.97-1.67-.97-1.48 0-2.27.99-2.27 2.64C.6-.84 1.36.14 2.84.14zm.22-.8c-.98 0-1.48-.59-1.48-1.84s.5-1.86 1.48-1.86c1.13 0 1.58.8 1.58 1.86S4.2-.66 3.06-.66zm0 0"/></symbol><symbol overflow="visible" id="f207e817J"><path d="M4.63-6.5c.45 0 .98.08 1.39.2l.2-.72a5.3 5.3 0 00-1.64-.26c-1.52 0-2.16.56-2.16 1.87v.4H.9v.76h1.53V0h.94v-4.25h2.53v-.77H3.36v-.3c0-.84.33-1.18 1.27-1.18zm0 0"/></symbol><symbol overflow="visible" id="f207e817K"><path d="M1.45-7.1c1.96.33 2.8 1.94 2.8 4.15 0 2.2-.84 3.8-2.8 4.17l.11.67c2.58-.47 3.67-2.28 3.67-4.84 0-2.55-1.09-4.36-3.67-4.85zm0 0"/></symbol></defs><use xlink:href="#f207e817a" x="184.59" y="141" fill="#515151"/><g fill="#515151"><use xlink:href="#f207e817b" x="209.19" y="141"/><use xlink:href="#f207e817c" x="235.47" y="141"/><use xlink:href="#f207e817d" x="252.99" y="141"/><use xlink:href="#f207e817e" x="276.57" y="141"/><use xlink:href="#f207e817f" x="290.73" y="141"/><use xlink:href="#f207e817g" x="306.75" y="141"/></g><g fill="#fff"><use xlink:href="#f207e817h" x="318.15" y="141"/><use xlink:href="#f207e817i" x="344.25" y="141"/><use xlink:href="#f207e817j" x="367.83" y="141"/><use xlink:href="#f207e817k" x="388.95" y="141"/></g><g fill="#fff"><use xlink:href="#f207e817l" x="243.3333" y="252"/><use xlink:href="#f207e817m" x="250.0003" y="252"/><use xlink:href="#f207e817n" x="256.6673" y="252"/><use xlink:href="#f207e817o" x="263.3343" y="252"/><use xlink:href="#f207e817p" x="270.0013" y="252"/><use xlink:href="#f207e817q" x="276.6683" y="252"/><use xlink:href="#f207e817l" x="283.3353" y="252"/><use xlink:href="#f207e817r" x="290.0023" y="252"/><use xlink:href="#f207e817o" x="296.6693" y="252"/><use xlink:href="#f207e817s" x="303.3363" y="252"/><use xlink:href="#f207e817t" x="310.0033" y="252"/><use xlink:href="#f207e817p" x="316.6703" y="252"/><use xlink:href="#f207e817q" x="323.3373" y="252"/><use xlink:href="#f207e817u" x="330.0043" y="252"/><use xlink:href="#f207e817v" x="336.6713" y="252"/><use xlink:href="#f207e817w" x="343.3383" y="252"/><use xlink:href="#f207e817x" x="350.0053" y="252"/></g><g fill="#fff"><use xlink:href="#f207e817y" x="183.3333" y="266"/><use xlink:href="#f207e817m" x="190.0003" y="266"/><use xlink:href="#f207e817s" x="196.6673" y="266"/><use xlink:href="#f207e817o" x="203.3343" y="266"/><use xlink:href="#f207e817z" x="210.0013" y="266"/><use xlink:href="#f207e817A" x="216.6683" y="266"/><use xlink:href="#f207e817m" x="223.3353" y="266"/><use xlink:href="#f207e817p" x="230.0023" y="266"/><use xlink:href="#f207e817q" x="236.6693" y="266"/><use xlink:href="#f207e817B" x="243.3363" y="266"/><use xlink:href="#f207e817s" x="250.0033" y="266"/><use xlink:href="#f207e817C" x="256.6703" y="266"/><use xlink:href="#f207e817D" x="263.3373" y="266"/><use xlink:href="#f207e817E" x="270.0043" y="266"/><use xlink:href="#f207e817C" x="276.6713" y="266"/><use xlink:href="#f207e817D" x="283.3383" y="266"/><use xlink:href="#f207e817q" x="290.0053" y="266"/><use xlink:href="#f207e817C" x="296.6723" y="266"/><use xlink:href="#f207e817z" x="303.3393" y="266"/><use xlink:href="#f207e817F" x="310.0063" y="266"/><use xlink:href="#f207e817m" x="316.6733" y="266"/><use xlink:href="#f207e817A" x="323.3403" y="266"/><use xlink:href="#f207e817s" x="330.0073" y="266"/><use xlink:href="#f207e817t" x="336.6743" y="266"/><use xlink:href="#f207e817G" x="343.3413" y="266"/><use xlink:href="#f207e817q" x="350.0083" y="266"/><use xlink:href="#f207e817H" x="356.6753" y="266"/><use xlink:href="#f207e817I" x="363.3423" y="266"/><use xlink:href="#f207e817m" x="370.0093" y="266"/><use xlink:href="#f207e817J" x="376.6763" y="266"/><use xlink:href="#f207e817s" x="383.3433" y="266"/><use xlink:href="#f207e817z" x="390.0103" y="266"/><use xlink:href="#f207e817t" x="396.6773" y="266"/><use xlink:href="#f207e817o" x="403.3443" y="266"/><use xlink:href="#f207e817K" x="410.0113" y="266"/></g></svg>