<?xml version='1.0' encoding='UTF-8'?>
<svg xmlns="http://www.w3.org/2000/svg" xmlns:xlink="http://www.w3.org/1999/xlink" width="600px" height="300px" viewBox="0 0 600 300" x="0px" y="0px" enable-background="new 0 0 600 300"><defs><symbol overflow="visible" id="48113c48a"><path d="M27.06-18.19l2.75-3.65c-1.12-.54-3-1.86-4.01-3.07l-2.35 3.36a13.42 13.42 0 01-3.23-2.93l-2.77 3.67a10.75 10.75 0 004.03 3.04l2.04-3c.96 1.04 2.46 2.11 3.54 2.58zm16.86-3.3L40.8-16.3c1.33 1.8 2.64 5.1 3.12 8.03-4.86 2.7-13.33 4.37-21.6 4.37-11.52 0-15.6-2.68-15.6-9.46 0-.61.19-2.11.36-3l-1.14.82c-.9.68-1.74 3.32-1.74 6.36 0 7.03 4.02 10.27 16.74 10.27 8.22 0 16.62-1.67 21.42-4.92 3.06-2.1 4.37-4.97 4.37-7.68 0-3.67-1.37-7.98-2.8-9.96zm0 0"/></symbol><symbol overflow="visible" id="48113c48b"><path d="M7.08-36.23h-.06l-3.43 3.35c.68 5.82.91 12.43.91 19.2 0 8.34.6 9.84 1.86 11.59C7.3-.8 9.55.42 13.02.42c.9 0 1.8-.9 1.8-2.4s-.9-2.33-1.8-2.33c-3.47 0-5.22-1.03-5.22-9.74 0-8.32-.17-16.67-.72-22.18zm0 0"/></symbol><symbol overflow="visible" id="48113c48c"><path d="M3-19.63a87.16 87.16 0 0111.05-4.96l.82-2.41A61.58 61.58 0 003.6-21.84c-.23.48-.53 1.39-.59 2.21zm0 0"/></symbol><symbol overflow="visible" id="48113c48d"><path d="M22.63-32.88l1.92-5.17L3.3-28.3C.78-27.2 0-25.38 0-22.7c0 2.17.9 4.69 3.23 7.57l1.15-1.93a27.89 27.89 0 018.46 9.61C10.31-5.34 7.38-4.3 0-4.3c-.95 0-1.63.72-1.63 2.33 0 1.56.68 2.4 1.63 2.4 7.14 0 10.38-1.44 12.6-3.65 1.8-1.75 2.46-4.82 2.46-5.96 0-3.4-4.62-9.4-12.54-14.94zm0 0"/></symbol><symbol overflow="visible" id="48113c48e"><path d="M16.2-9.66l-2.15 4.14C16.5-2.77 17.52-.3 17.7 1.56c-1.56 3.72-6.54 7.92-15.18 10.31l.84 1.2 7.69.98c6.1-3.25 8.75-9 8.75-12.32 0-.95-.11-1.8-.43-2.51l.07-.06A6.61 6.61 0 0023.58.42c.9 0 1.8-.9 1.8-2.4s-.9-2.33-1.8-2.33c-2.52 0-4.2-1.4-7.38-5.35zm0 0"/></symbol><symbol overflow="visible" id="48113c48f"><path d="M0 .42c4.08 0 7.56-.72 14.16-4.08 6.36-3.18 8.7-3.54 13.39-3.54l1.54-4.44c-4.3 0-5.93-.48-11.32-3.6-4.57-2.7-6.36-3.48-7.93-3.48-1.68 0-3.42.72-5.34 2.45-1.8 1.57-2.34 2.58-2.34 3.49 0 .3.12.72.3 1.01a23.76 23.76 0 016.42-2.45c2.93.78 7.8 2.77 10.98 4.63v.04C14.7-6.23 7.5-4.3 0-4.3c-1.02 0-1.63.95-1.63 2.39C-1.63-.23-.83.42 0 .42zm0 0"/></symbol><symbol overflow="visible" id="48113c48g"><path d="M3.83 0v-5.95H6.2v-.82H.45v.82h2.4V0zm0 0"/></symbol><symbol overflow="visible" id="48113c48h"><path d="M5.75-2.23v-.43c0-1.6-.9-2.51-2.42-2.51S.87-4.16.87-2.48c0 1.71.91 2.62 2.5 2.62 1.43 0 2.07-.56 2.29-1.52l-.9-.09c-.18.61-.59.9-1.35.9-.94 0-1.52-.54-1.58-1.66zm-2.4-2.2c.93 0 1.43.5 1.48 1.55H1.84c.08-1.07.6-1.56 1.5-1.56zm0 0"/></symbol><symbol overflow="visible" id="48113c48i"><path d="M1.83 0l1.42-2h.06l1.46 2H5.8L4-2.53l1.78-2.49H4.8L3.42-3.08h-.08l-1.4-1.94H.89l1.78 2.49L.84 0zm0 0"/></symbol><symbol overflow="visible" id="48113c48j"><path d="M5.52-4.25v-.77H3.17v-1.56h-.81l-.14 1.56H.75v.77h1.47v2.4c0 1.3.48 1.94 1.84 1.94C4.6.1 5.14 0 5.55-.14L5.4-.91c-.32.13-.72.2-1.13.2-.8 0-1.1-.37-1.1-1.23v-2.31zm0 0"/></symbol><symbol overflow="visible" id="48113c48k"><path d="M3.33-3.42c.47 0 .8-.27.8-.8 0-.51-.33-.8-.8-.8-.47 0-.8.29-.8.8 0 .53.33.8.8.8zm0 3.5c.47 0 .8-.27.8-.78 0-.53-.33-.82-.8-.82-.47 0-.8.29-.8.82 0 .51.33.78.8.78zm0 0"/></symbol><symbol overflow="visible" id="48113c48s"><path d="M5.95-6.77H1.1V0h.99v-2.92H5.3v-.77H2.08v-2.26h3.87zm0 0"/></symbol><symbol overflow="visible" id="48113c48t"><path d="M2.83.14c.94 0 1.5-.39 1.81-.95h.08l.1.81h.76v-3.38c0-1.23-.69-1.8-2.13-1.8-1.43 0-2.03.65-2.18 1.6l.93.1c.11-.6.44-.93 1.22-.93.85 0 1.22.32 1.22 1.04v.34l-1.81.2C1.6-2.7 1.1-2.17 1.1-1.28c0 .92.64 1.42 1.72 1.42zm.25-.77c-.67 0-1.02-.28-1.02-.74 0-.44.28-.72 1-.82l1.58-.19v.41c0 .8-.6 1.34-1.56 1.34zm0 0"/></symbol><symbol overflow="visible" id="48113c48u"><path d="M2.73.14c.9 0 1.43-.45 1.74-1.08h.06l.13.94h.8v-5.02h-.94v2.7c0 .98-.57 1.62-1.46 1.62-.75 0-1.1-.4-1.1-1.22v-3.1h-.93v3.32c0 1.17.55 1.84 1.7 1.84zm0 0"/></symbol><symbol overflow="visible" id="48113c48v"><path d="M5.08-5.16c-.94 0-1.58.43-1.9 1.3h-.09l-.07-1.16H1.05v.77h1.1v3.48H.96V0h3.96v-.77H3.1v-1.46c0-1.36.6-2.05 1.83-2.05.4 0 .76.08 1.1.17l.15-.87c-.33-.11-.7-.18-1.11-.18zm0 0"/></symbol><symbol overflow="visible" id="48113c48x"><path d="M6.17 0L3.98-6.77h-1.3L.5 0h.97l.44-1.47h2.78L5.16 0zM3.28-5.94h.08l1.1 3.74H2.15zm0 0"/></symbol><symbol overflow="visible" id="48113c48y"><path d="M3.9.14c1.48 0 2.18-.98 2.18-2.64 0-1.67-.7-2.66-2.17-2.66-.91 0-1.49.41-1.79 1h-.06v-2.98h-.95V0h.81l.11-.9h.06c.29.63.82 1.04 1.82 1.04zm-.32-.8c-1.08 0-1.55-.8-1.55-1.84 0-1.06.47-1.86 1.55-1.86 1.1 0 1.51.61 1.51 1.86S4.64-.66 3.58-.66zm0 0"/></symbol><symbol overflow="visible" id="48113c48z"><path d="M3.58-5.81c.42 0 .72-.22.72-.67 0-.44-.3-.68-.72-.68-.44 0-.72.24-.72.68 0 .45.28.67.72.67zm.5.8H1.52v.76h1.6v3.48h-1.8V0h4.46v-.77h-1.7zm0 0"/></symbol><symbol overflow="visible" id="48113c48A"><path d="M3.34.14c1.43 0 2.13-.66 2.25-1.78l-.89-.1c-.1.7-.5 1.08-1.34 1.08-1.03 0-1.52-.64-1.52-1.84 0-1.23.47-1.86 1.52-1.86.84 0 1.23.36 1.34 1.08l.9-.1c-.13-1.09-.82-1.78-2.26-1.78-1.56 0-2.46.97-2.46 2.66 0 1.66.9 2.64 2.46 2.64zm0 0"/></symbol><symbol overflow="visible" id="48113c48B"><path d="M3.9 0l2-5.02h-.96L3.4-.94h-.07L1.8-5.02H.77L2.78 0zm0 0"/></symbol><symbol overflow="visible" id="48113c48C"><path d="M3.33.14c1.62 0 2.5-.95 2.5-2.66 0-1.68-.88-2.64-2.5-2.64-1.63 0-2.5.96-2.5 2.64 0 1.7.87 2.66 2.5 2.66zm0-.77c-1.06 0-1.52-.6-1.52-1.89 0-1.28.46-1.87 1.52-1.87 1.08 0 1.53.6 1.53 1.87 0 1.29-.45 1.9-1.53 1.9zm0 0"/></symbol><symbol overflow="visible" id="48113c48D"><path d="M3.92-7.14H1.36v.76h1.6v5.61H1.15V0H5.7v-.77H3.92zm0 0"/></symbol><symbol overflow="visible" id="48113c48E"><path d="M3.36.16c1.4 0 2.2-.6 2.2-1.57 0-.89-.54-1.22-1.47-1.39L3-3c-.67-.14-.86-.33-.86-.73 0-.5.4-.74 1.17-.74.83 0 1.19.27 1.27.8l.9-.05c-.12-1-.8-1.47-2.17-1.47-1.34 0-2.1.53-2.1 1.5 0 .81.45 1.22 1.52 1.44l1.04.2c.56.11.87.24.87.72 0 .52-.45.78-1.28.78-.95 0-1.36-.28-1.42-.87l-.9.06C1.07-.36 1.8.16 3.35.16zm0 0"/></symbol><symbol overflow="visible" id="48113c48F"><path d="M2.16 0v-2.67c0-.99.59-1.63 1.46-1.63.74 0 1.07.38 1.07 1.22V0h.95v-3.31c0-1.2-.56-1.85-1.67-1.85-.92 0-1.49.46-1.77 1.08h-.06l-.12-.94H1.2V0zm0 0"/></symbol><symbol overflow="visible" id="48113c48G"><path d="M1.63 0v-2.9c0-.8.15-1.4.71-1.4.41 0 .55.3.55.88V0h.95v-2.9c0-.8.18-1.4.72-1.4.4 0 .57.3.57.88V0h.95v-3.63c0-.92-.28-1.53-1.11-1.53-.63 0-.95.41-1.1.9h-.06c-.1-.52-.44-.9-1.08-.9-.6 0-.93.41-1.06.9H1.6l-.23-.76H.67V0zm0 0"/></symbol><symbol overflow="visible" id="48113c48H"><path d="M5.77-5.02H4.63L2.3-2.88h-.06v-4.26h-.94V0h.94v-2.31h.06L4.71 0h1.24L3.23-2.69zm0 0"/></symbol><symbol overflow="visible" id="48113c48m"><path d="M.38-4.72l1.51-.12v-.43l-1.51.13zm0 0"/></symbol><symbol overflow="visible" id="48113c48n"><path d="M2.73-3.36l.35-.47.6.47.37-.48-.61-.46-.35.46-.6-.46-.35.47zM1.58 0H4.9c.8 0 1.07-.34 1.07-1.1v-.26L5.84-3l-.67.06.14 1.61.03.33c0 .23-.09.25-.51.25H1.72c-.61 0-.61 0-.61-.56v-1.31H.44v1.48C.44-.31.8 0 1.58 0zm0 0"/></symbol><symbol overflow="visible" id="48113c48o"><path d="M1.66 0h.17v-.75h-.05c-.6 0-.6 0-.6-.63v-4.18H.53v4.5C.52-.31.86 0 1.66 0zm0 0"/></symbol><symbol overflow="visible" id="48113c48p"><path d="M0 0h1.67c.63 0 1.11-.28 1.11-.95 0-.66-.67-1.58-1.9-2.82l2.28-1.06v-.73L.14-4.14v.69c1.3 1.18 1.97 1.97 1.97 2.5 0 .1-.05.2-.4.2H0c-.3 0-.38.13-.38.36 0 .27.08.39.38.39zm0 0"/></symbol><symbol overflow="visible" id="48113c48q"><path d="M.19 1.77c1.3 0 1.8-.65 1.92-1.8.17.03.34.03.47.03h.17v-.75h-.5c-.1 0-.1 0-.1-.1 0-.54-.04-1.15-.1-1.84l-.67.06c.06.68.12 1.41.12 1.97 0 1.25-.33 1.7-1.5 1.7-.08 0-.14 0-.22-.02l.08.73.33.02zm0 0"/></symbol><symbol overflow="visible" id="48113c48r"><path d="M0 0h1.08c1.25 0 1.97-.36 2.78-1.14l.69-.64c.04-.05.04-.05.1-.05l.54.08.1-.64-1.84-.28-1.6-.24-.29-.03C.96-2.94.55-2.6.6-1.8l.68.03c0-.35.07-.46.35-.46l.27.01 1.24.17.68.1c-.1.07-.22.17-.31.26l-.17.16C2.55-.83 2-.75.78-.75H0c-.3 0-.38.13-.38.36 0 .27.08.39.38.39zm0 0"/></symbol></defs><g fill="#fff"><use xlink:href="#48113c48a" x="234.87" y="141"/><use xlink:href="#48113c48b" x="283.71" y="141"/><use xlink:href="#48113c48c" x="298.23" y="124.56"/><use xlink:href="#48113c48d" x="296.91" y="141"/><use xlink:href="#48113c48c" x="316.95" y="144.42"/><use xlink:href="#48113c48e" x="311.25" y="141"/><use xlink:href="#48113c48c" x="338.25" y="135.54"/><use xlink:href="#48113c48f" x="334.83" y="141"/><use xlink:href="#48113c48c" x="365.13" y="141"/><use xlink:href="#48113c48g" x="272.5074" y="252"/><use xlink:href="#48113c48h" x="279.1744" y="252"/><use xlink:href="#48113c48i" x="285.8414" y="252"/><use xlink:href="#48113c48j" x="292.5084" y="252"/><use xlink:href="#48113c48k" x="299.1754" y="252"/><use xlink:href="#48113c48l" x="305.8407" y="252"/><use xlink:href="#48113c48m" x="307.8407" y="252"/><use xlink:href="#48113c48n" x="307.8407" y="252"/><use xlink:href="#48113c48o" x="314.274033" y="252"/><g><use xlink:href="#48113c48m" x="316.229589" y="251.207407"/></g><g><use xlink:href="#48113c48p" x="316.103663" y="252"/></g><g><use xlink:href="#48113c48m" x="319.259219" y="253.237037"/></g><g><use xlink:href="#48113c48q" x="319.018478" y="252"/></g><g><use xlink:href="#48113c48m" x="323.559219" y="253.111111"/></g><g><use xlink:href="#48113c48r" x="321.774034" y="252"/></g><g><use xlink:href="#48113c48s" x="186.6667" y="266"/><use xlink:href="#48113c48h" x="193.3337" y="266"/><use xlink:href="#48113c48t" x="200.0007" y="266"/><use xlink:href="#48113c48j" x="206.6677" y="266"/><use xlink:href="#48113c48u" x="213.3347" y="266"/><use xlink:href="#48113c48v" x="220.0017" y="266"/><use xlink:href="#48113c48h" x="226.6687" y="266"/><use xlink:href="#48113c48k" x="233.3357" y="266"/><use xlink:href="#48113c48w" x="240.0027" y="266"/><use xlink:href="#48113c48x" x="246.6697" y="266"/><use xlink:href="#48113c48v" x="253.3367" y="266"/><use xlink:href="#48113c48t" x="260.0037" y="266"/><use xlink:href="#48113c48y" x="266.6707" y="266"/><use xlink:href="#48113c48z" x="273.3377" y="266"/><use xlink:href="#48113c48A" x="280.0047" y="266"/><use xlink:href="#48113c48w" x="286.6717" y="266"/><use xlink:href="#48113c48B" x="293.3387" y="266"/><use xlink:href="#48113c48C" x="300.0057" y="266"/><use xlink:href="#48113c48A" x="306.6727" y="266"/><use xlink:href="#48113c48t" x="313.3397" y="266"/><use xlink:href="#48113c48D" x="320.0067" y="266"/><use xlink:href="#48113c48z" x="326.6737" y="266"/><use xlink:href="#48113c48E" x="333.3407" y="266"/><use xlink:href="#48113c48t" x="340.0077" y="266"/><use xlink:href="#48113c48j" x="346.6747" y="266"/><use xlink:href="#48113c48z" x="353.3417" y="266"/><use xlink:href="#48113c48C" x="360.0087" y="266"/><use xlink:href="#48113c48F" x="366.6757" y="266"/><use xlink:href="#48113c48w" x="373.3427" y="266"/><use xlink:href="#48113c48G" x="380.0097" y="266"/><use xlink:href="#48113c48t" x="386.6767" y="266"/><use xlink:href="#48113c48v" x="393.3437" y="266"/><use xlink:href="#48113c48H" x="400.0107" y="266"/><use xlink:href="#48113c48E" x="406.6777" y="266"/></g></g></svg>