<?xml version='1.0' encoding='UTF-8'?>
<svg xmlns="http://www.w3.org/2000/svg" xmlns:xlink="http://www.w3.org/1999/xlink" width="600px" height="300px" viewBox="0 0 600 300" x="0px" y="0px" enable-background="new 0 0 600 300"><defs><symbol overflow="visible" id="c1e21141a"><path d="M10.02-11.81l4.39-4.27c-.72-1.62-3.43-4.5-5.6-5.76l-4.6 4.56a29.46 29.46 0 015.45 5.47zm0 0"/></symbol><symbol overflow="visible" id="c1e21141b"><path d="M5.34-34.02L2.7-28.98c4.92 8.34 6.96 15.25 6.78 22.62C9.42-3 9.36-1.26 9.23.66h.13L12-.95c.23-1.86.42-5.53.42-8.53 0-8.1-2.51-16.97-6.97-24.54zm0 0"/></symbol><symbol overflow="visible" id="c1e21141c"><path d="M5.22-34.02L2.7-28.98c6.07 9.78 8.1 16.26 7.92 23.46C10.5-3 10.5-1.27 10.38.66h.12l2.64-1.61c.23-1.86.42-5.53.42-8.53 0-4.2-1.26-9.66-3.36-14.16l.07-.06A7.52 7.52 0 0015-22.27c3.84 0 6.48-4.01 6.48-7.73 0-1.63-.18-3.42-.9-3.78l-.49-.24c-.3 4.8-2.21 7.2-5.51 7.2-3.42 0-6.3-2.23-9.17-7.2zm0 0"/></symbol><symbol overflow="visible" id="c1e21141d"><path d="M5.4-34.02h-.18L2.7-28.98c6.07 9.78 7.92 16.26 7.92 23.46 0 2.33-.12 4.25-.24 6.18h.12l2.64-1.61c.23-1.86.42-5.53.42-8.53 0-4.2-1.33-9.47-3.42-13.97l.06-.07a7.22 7.22 0 004.02 1.25c1.69 0 2.64-1.07 3.23-2.45h.13a3 3 0 002.51 1.27c2.6 0 4.82-2.96 4.82-6.55 0-1.63-.2-3.42-.91-3.78l-.48-.24c-.18 3.66-1.38 6.43-3.11 6.43-2.35 0-1.5-3-2.7-5.83l-1.44.55c0 4.5-1.4 6.06-3.13 6.06-2.05 0-5.7-2.64-7.73-7.2zm0 0"/></symbol><symbol overflow="visible" id="c1e21141e"><path d="M16.38-29.16l1.2-4.86c-3.95.24-8.1 1.93-10.63 4.5a10.91 10.91 0 00-2.75 6.54c0 2.7 3.24 4.98 7.92 6.25v.17C8.59-13.8 6.49-10.5 6.49-8.28c0 1.8.72 3.23 1.61 4.5C10.08-1.2 14.45.42 18.23.42c1.63 0 3-.3 4.27-.78l-1.08-4.5c-1.01.36-2.28.55-3.48.55-4.44 0-8.03-1.88-9.53-3.97 1.43-2.52 5.32-6 7.96-7.31l1.15-3.61-.11-.11c-4.46-.61-9.32-2.77-10.75-4.63 2.04-2.51 6.18-4.5 9.71-5.22zm0 0"/></symbol><symbol overflow="visible" id="c1e21141f"><path d="M24.3-15.23c0-6.97-5.46-14.54-9.43-14.54-5.32 0-10.37 9.25-10.37 15.49 0 3.42.84 5.1 1.44 6 1.5 1.98 4.26 3.36 7.56 3.36 3.84 0 7.14-1.5 9-4.08 1.27-1.8 1.8-4.14 1.8-6.23zm-2.22 2.03c-1.31 1.56-4.2 2.89-8.28 2.89-3.07 0-6-1.27-7.08-2.83 1.08-6.3 4.56-11.1 7.5-11.1 3.23 0 6.78 4.44 7.86 11.04zm0 0"/></symbol><symbol overflow="visible" id="c1e21141g"><path d="M2.45-34.02a4.25 4.25 0 00-1.25 3c0 1.86 1.61 3.43 5.35 3.43 2.64 0 6.23-.61 8.15-1.14l.07.1c-.61 3.68-1.27 8.11-1.27 11.9 0 7.5 2.16 13.5 5.7 17.45h.18l2.1-5.28c-3.42-4.02-5.04-9.66-5.04-15.6 0-5.21.78-9.18 1.56-13.2l-.19-.12c-1.9.54-5.58 1.07-9.3 1.07-3.1 0-5.03-.59-6.06-1.6zm0 0"/></symbol><symbol overflow="visible" id="c1e21141h"><path d="M3.83 0v-5.95H6.2v-.82H.45v.82h2.4V0zm0 0"/></symbol><symbol overflow="visible" id="c1e21141i"><path d="M5.75-2.23v-.43c0-1.6-.9-2.51-2.42-2.51S.87-4.16.87-2.48c0 1.71.91 2.62 2.5 2.62 1.43 0 2.07-.56 2.29-1.52l-.9-.09c-.18.61-.59.9-1.35.9-.94 0-1.52-.54-1.58-1.66zm-2.4-2.2c.93 0 1.43.5 1.48 1.55H1.84c.08-1.07.6-1.56 1.5-1.56zm0 0"/></symbol><symbol overflow="visible" id="c1e21141j"><path d="M1.83 0l1.42-2h.06l1.46 2H5.8L4-2.53l1.78-2.49H4.8L3.42-3.08h-.08l-1.4-1.94H.89l1.78 2.49L.84 0zm0 0"/></symbol><symbol overflow="visible" id="c1e21141k"><path d="M5.52-4.25v-.77H3.17v-1.56h-.81l-.14 1.56H.75v.77h1.47v2.4c0 1.3.48 1.94 1.84 1.94C4.6.1 5.14 0 5.55-.14L5.4-.91c-.32.13-.72.2-1.13.2-.8 0-1.1-.37-1.1-1.23v-2.31zm0 0"/></symbol><symbol overflow="visible" id="c1e21141l"><path d="M3.33-3.42c.47 0 .8-.27.8-.8 0-.51-.33-.8-.8-.8-.47 0-.8.29-.8.8 0 .53.33.8.8.8zm0 3.5c.47 0 .8-.27.8-.78 0-.53-.33-.82-.8-.82-.47 0-.8.29-.8.82 0 .51.33.78.8.78zm0 0"/></symbol><symbol overflow="visible" id="c1e21141u"><path d="M5.95-6.77H1.1V0h.99v-2.92H5.3v-.77H2.08v-2.26h3.87zm0 0"/></symbol><symbol overflow="visible" id="c1e21141v"><path d="M2.83.14c.94 0 1.5-.39 1.81-.95h.08l.1.81h.76v-3.38c0-1.23-.69-1.8-2.13-1.8-1.43 0-2.03.65-2.18 1.6l.93.1c.11-.6.44-.93 1.22-.93.85 0 1.22.32 1.22 1.04v.34l-1.81.2C1.6-2.7 1.1-2.17 1.1-1.28c0 .92.64 1.42 1.72 1.42zm.25-.77c-.67 0-1.02-.28-1.02-.74 0-.44.28-.72 1-.82l1.58-.19v.41c0 .8-.6 1.34-1.56 1.34zm0 0"/></symbol><symbol overflow="visible" id="c1e21141w"><path d="M2.73.14c.9 0 1.43-.45 1.74-1.08h.06l.13.94h.8v-5.02h-.94v2.7c0 .98-.57 1.62-1.46 1.62-.75 0-1.1-.4-1.1-1.22v-3.1h-.93v3.32c0 1.17.55 1.84 1.7 1.84zm0 0"/></symbol><symbol overflow="visible" id="c1e21141x"><path d="M5.08-5.16c-.94 0-1.58.43-1.9 1.3h-.09l-.07-1.16H1.05v.77h1.1v3.48H.96V0h3.96v-.77H3.1v-1.46c0-1.36.6-2.05 1.83-2.05.4 0 .76.08 1.1.17l.15-.87c-.33-.11-.7-.18-1.11-.18zm0 0"/></symbol><symbol overflow="visible" id="c1e21141y"><path d="M2.08-6.77h-.99V0h4.79v-.81h-3.8zm0 0"/></symbol><symbol overflow="visible" id="c1e21141z"><path d="M3.58-5.81c.42 0 .72-.22.72-.67 0-.44-.3-.68-.72-.68-.44 0-.72.24-.72.68 0 .45.28.67.72.67zm.5.8H1.52v.76h1.6v3.48h-1.8V0h4.46v-.77h-1.7zm0 0"/></symbol><symbol overflow="visible" id="c1e21141A"><path d="M2.16 0v-2.67c0-.99.59-1.63 1.46-1.63.74 0 1.07.38 1.07 1.22V0h.95v-3.31c0-1.2-.56-1.85-1.67-1.85-.92 0-1.49.46-1.77 1.08h-.06l-.12-.94H1.2V0zm0 0"/></symbol><symbol overflow="visible" id="c1e21141B"><path d="M3.16 2.03c1.67 0 2.4-.86 2.4-2.51v-4.54h-.81l-.13.91h-.06c-.26-.58-.8-1.05-1.73-1.05-1.42 0-2.24 1-2.24 2.52 0 1.6.75 2.56 2.2 2.56.94 0 1.5-.5 1.77-1.03h.05v.72c0 1.17-.42 1.67-1.45 1.67-.93 0-1.3-.34-1.41-.89L.8.5c.12.96.87 1.54 2.36 1.54zM3.06-.8c-.98 0-1.48-.57-1.48-1.82 0-1.13.5-1.75 1.48-1.75 1.06 0 1.58.76 1.58 1.75 0 .95-.56 1.82-1.58 1.82zm0 0"/></symbol><symbol overflow="visible" id="c1e21141C"><path d="M6.17 0L3.98-6.77h-1.3L.5 0h.97l.44-1.47h2.78L5.16 0zM3.28-5.94h.08l1.1 3.74H2.15zm0 0"/></symbol><symbol overflow="visible" id="c1e21141D"><path d="M3.9.14c1.48 0 2.18-.98 2.18-2.64 0-1.67-.7-2.66-2.17-2.66-.91 0-1.49.41-1.79 1h-.06v-2.98h-.95V0h.81l.11-.9h.06c.29.63.82 1.04 1.82 1.04zm-.32-.8c-1.08 0-1.55-.8-1.55-1.84 0-1.06.47-1.86 1.55-1.86 1.1 0 1.51.61 1.51 1.86S4.64-.66 3.58-.66zm0 0"/></symbol><symbol overflow="visible" id="c1e21141E"><path d="M3.34.14c1.43 0 2.13-.66 2.25-1.78l-.89-.1c-.1.7-.5 1.08-1.34 1.08-1.03 0-1.52-.64-1.52-1.84 0-1.23.47-1.86 1.52-1.86.84 0 1.23.36 1.34 1.08l.9-.1c-.13-1.09-.82-1.78-2.26-1.78-1.56 0-2.46.97-2.46 2.66 0 1.66.9 2.64 2.46 2.64zm0 0"/></symbol><symbol overflow="visible" id="c1e21141F"><path d="M1.63 0v-2.9c0-.8.15-1.4.71-1.4.41 0 .55.3.55.88V0h.95v-2.9c0-.8.18-1.4.72-1.4.4 0 .57.3.57.88V0h.95v-3.63c0-.92-.28-1.53-1.11-1.53-.63 0-.95.41-1.1.9h-.06c-.1-.52-.44-.9-1.08-.9-.6 0-.93.41-1.06.9H1.6l-.23-.76H.67V0zm0 0"/></symbol><symbol overflow="visible" id="c1e21141G"><path d="M3.92-7.14H1.36v.76h1.6v5.61H1.15V0H5.7v-.77H3.92zm0 0"/></symbol><symbol overflow="visible" id="c1e21141H"><path d="M3.36.16c1.4 0 2.2-.6 2.2-1.57 0-.89-.54-1.22-1.47-1.39L3-3c-.67-.14-.86-.33-.86-.73 0-.5.4-.74 1.17-.74.83 0 1.19.27 1.27.8l.9-.05c-.12-1-.8-1.47-2.17-1.47-1.34 0-2.1.53-2.1 1.5 0 .81.45 1.22 1.52 1.44l1.04.2c.56.11.87.24.87.72 0 .52-.45.78-1.28.78-.95 0-1.36-.28-1.42-.87l-.9.06C1.07-.36 1.8.16 3.35.16zm0 0"/></symbol><symbol overflow="visible" id="c1e21141I"><path d="M1.45-2.95c0 2.56 1.08 4.37 3.67 4.84l.11-.67C3.28.86 2.43-.75 2.43-2.95s.85-3.82 2.8-4.16l-.1-.69c-2.6.49-3.68 2.3-3.68 4.85zm0 0"/></symbol><symbol overflow="visible" id="c1e21141J"><path d="M2.84.14C3.8.14 4.33-.26 4.6-.9h.07L4.8 0h.76v-7.14h-.95v2.95h-.08c-.28-.6-.86-.97-1.67-.97-1.48 0-2.27.99-2.27 2.64C.6-.84 1.36.14 2.84.14zm.22-.8c-.98 0-1.48-.59-1.48-1.84s.5-1.86 1.48-1.86c1.13 0 1.58.8 1.58 1.86S4.2-.66 3.06-.66zm0 0"/></symbol><symbol overflow="visible" id="c1e21141K"><path d="M4.63-6.5c.45 0 .98.08 1.39.2l.2-.72a5.3 5.3 0 00-1.64-.26c-1.52 0-2.16.56-2.16 1.87v.4H.9v.76h1.53V0h.94v-4.25h2.53v-.77H3.36v-.3c0-.84.33-1.18 1.27-1.18zm0 0"/></symbol><symbol overflow="visible" id="c1e21141L"><path d="M1.45-7.1c1.96.33 2.8 1.94 2.8 4.15 0 2.2-.84 3.8-2.8 4.17l.11.67c2.58-.47 3.67-2.28 3.67-4.84 0-2.55-1.09-4.36-3.67-4.85zm0 0"/></symbol><symbol overflow="visible" id="c1e21141n"><path d="M1.38-1.45l.68-.68L1.2-3l-.67.67zm0 0"/></symbol><symbol overflow="visible" id="c1e21141o"><path d="M1.14 0h.66c0-2.92-.1-3.38-.57-5.03L.52-5c.53 1.6.62 1.97.62 5zm0 0"/></symbol><symbol overflow="visible" id="c1e21141p"><path d="M1.14 0h.66c0-1.28-.02-2.08-.08-2.72.2.06.42.1.6.1 1 0 1.46-.66 1.46-1.77 0-.2-.01-.42-.05-.64l-.65.06c.03.25.04.45.04.63 0 .65-.21.96-.8.96-.52 0-.68-.09-.84-.75l-.25-.9L.52-5c.53 1.6.62 1.97.62 5zm0 0"/></symbol><symbol overflow="visible" id="c1e21141q"><path d="M1.14 0h.66c0-1.28-.02-2.08-.08-2.72.2.06.42.1.6.1.26 0 .48-.07.66-.2.24.12.63.2.82.2.84 0 1.22-.66 1.22-1.77 0-.19-.02-.42-.04-.64l-.6.06.01.47c0 .77-.14 1.13-.6 1.13-.15 0-.27-.02-.37-.05.1-.27.14-.58.14-.97 0-.2-.01-.42-.04-.64l-.66.06c.02.25.05.45.05.63 0 .65-.18.96-.6.96-.51 0-.67-.09-.83-.75l-.25-.9L.52-5c.53 1.6.62 1.97.62 5zm0 0"/></symbol><symbol overflow="visible" id="c1e21141r"><path d="M2.33.05c.31 0 .69-.03 1.1-.1L3.5-.8c-.5.08-.9.1-1.22.1-.86 0-1.08-.26-1.08-.59 0-.5.66-.87 1.78-1.22l.07-.76c-.4.19-.77.26-1.03.26-.49 0-.75-.18-.75-.4 0-.22.17-.66 1.15-.92l.06-.72C1.31-4.84.66-4.11.66-3.4c0 .36.2.7.6.89-.43.31-.74.78-.74 1.25 0 .83.59 1.3 1.8 1.3zm0 0"/></symbol><symbol overflow="visible" id="c1e21141s"><path d="M2.33-.22c1.2 0 1.76-.64 1.76-1.7 0-1.19-.67-2.74-1.8-2.74-1.09 0-1.77 1.5-1.77 2.7 0 1.1.6 1.74 1.8 1.74zm.01-.75C1.5-.97 1.17-1.34 1.17-2c0-.75.46-1.9 1.14-1.9.69 0 1.13 1.18 1.13 1.93 0 .7-.38 1-1.1 1zm0 0"/></symbol><symbol overflow="visible" id="c1e21141t"><path d="M2.84 0h.7c-.23-1-.29-1.83-.29-2.75 0-.67.03-1.4.08-2.28H.59l-.07.75h2.06l-.03 1.36c0 1 .08 1.84.3 2.92zm0 0"/></symbol></defs><g fill="#fff"><use xlink:href="#c1e21141a" x="221.04" y="141"/><use xlink:href="#c1e21141b" x="238.68" y="141"/><use xlink:href="#c1e21141c" x="255.6" y="141"/><use xlink:href="#c1e21141d" x="279.48" y="141"/><use xlink:href="#c1e21141e" x="304.98" y="141"/><use xlink:href="#c1e21141f" x="328.08" y="141"/><use xlink:href="#c1e21141g" x="354.18" y="141"/><use xlink:href="#c1e21141h" x="267.1593" y="252"/><use xlink:href="#c1e21141i" x="273.8263" y="252"/><use xlink:href="#c1e21141j" x="280.4933" y="252"/><use xlink:href="#c1e21141k" x="287.1603" y="252"/><use xlink:href="#c1e21141l" x="293.8273" y="252"/><use xlink:href="#c1e21141m" x="300.4943" y="252"/><g><use xlink:href="#c1e21141n" x="307.1593" y="252"/><use xlink:href="#c1e21141o" x="309.1813" y="252"/></g><g><use xlink:href="#c1e21141p" x="311.5033" y="252"/></g><g><use xlink:href="#c1e21141q" x="315.7953" y="252"/></g><g><use xlink:href="#c1e21141r" x="321.0773" y="252"/></g><g><use xlink:href="#c1e21141s" x="324.8293" y="252"/></g><g><use xlink:href="#c1e21141t" x="328.7813" y="252"/></g><g><use xlink:href="#c1e21141u" x="163.3333" y="266"/><use xlink:href="#c1e21141i" x="170.0003" y="266"/><use xlink:href="#c1e21141v" x="176.6673" y="266"/><use xlink:href="#c1e21141k" x="183.3343" y="266"/><use xlink:href="#c1e21141w" x="190.0013" y="266"/><use xlink:href="#c1e21141x" x="196.6683" y="266"/><use xlink:href="#c1e21141i" x="203.3353" y="266"/><use xlink:href="#c1e21141l" x="210.0023" y="266"/><use xlink:href="#c1e21141m" x="216.6693" y="266"/><use xlink:href="#c1e21141y" x="223.3363" y="266"/><use xlink:href="#c1e21141z" x="230.0033" y="266"/><use xlink:href="#c1e21141A" x="236.6703" y="266"/><use xlink:href="#c1e21141z" x="243.3373" y="266"/><use xlink:href="#c1e21141A" x="250.0043" y="266"/><use xlink:href="#c1e21141B" x="256.6713" y="266"/><use xlink:href="#c1e21141m" x="263.3383" y="266"/><use xlink:href="#c1e21141C" x="270.0053" y="266"/><use xlink:href="#c1e21141x" x="276.6723" y="266"/><use xlink:href="#c1e21141v" x="283.3393" y="266"/><use xlink:href="#c1e21141D" x="290.0063" y="266"/><use xlink:href="#c1e21141z" x="296.6733" y="266"/><use xlink:href="#c1e21141E" x="303.3403" y="266"/><use xlink:href="#c1e21141m" x="310.0073" y="266"/><use xlink:href="#c1e21141A" x="316.6743" y="266"/><use xlink:href="#c1e21141w" x="323.3413" y="266"/><use xlink:href="#c1e21141F" x="330.0083" y="266"/><use xlink:href="#c1e21141i" x="336.6753" y="266"/><use xlink:href="#c1e21141x" x="343.3423" y="266"/><use xlink:href="#c1e21141v" x="350.0093" y="266"/><use xlink:href="#c1e21141G" x="356.6763" y="266"/><use xlink:href="#c1e21141H" x="363.3433" y="266"/><use xlink:href="#c1e21141m" x="370.0103" y="266"/><use xlink:href="#c1e21141I" x="376.6773" y="266"/><use xlink:href="#c1e21141J" x="383.3443" y="266"/><use xlink:href="#c1e21141i" x="390.0113" y="266"/><use xlink:href="#c1e21141K" x="396.6783" y="266"/><use xlink:href="#c1e21141v" x="403.3453" y="266"/><use xlink:href="#c1e21141w" x="410.0123" y="266"/><use xlink:href="#c1e21141G" x="416.6793" y="266"/><use xlink:href="#c1e21141k" x="423.3463" y="266"/><use xlink:href="#c1e21141L" x="430.0133" y="266"/></g></g></svg>