<?xml version='1.0' encoding='UTF-8'?>
<svg xmlns="http://www.w3.org/2000/svg" xmlns:xlink="http://www.w3.org/1999/xlink" width="600px" height="300px" viewBox="0 0 600 300" x="0px" y="0px" enable-background="new 0 0 600 300"><defs><symbol overflow="visible" id="4ec2e92ca"><path d="M2.64-23.22L6-19.98h.06c1.99-2.4 4.86-4.5 6.72-4.97a5.79 5.79 0 013.78 5.26c0 3.19-1.33 4.99-8.1 11.35l-6.12 5.7L2.04 0h19.5l1.26-4.69-.11-.23L5.64-2.64l-.06-.06 6.65-4.99c7.04-5.26 9.13-7.86 9.13-12.17 0-4.27-4.02-7.73-8.58-7.73-3.84 0-7.26 1.43-10.14 4.3zm0 0"/></symbol><symbol overflow="visible" id="4ec2e92cd"><path d="M29.81-35.77L11.58 2.93l2.47 1.09 18.23-38.64zM1.8-31.07l2.7 2.21h.13a9.39 9.39 0 014.3-3.36c2.05.42 2.95 1.74 2.95 3.17 0 1.7-1.26 3.61-5.04 4.1v1.73c4.38.66 5.88 1.92 5.88 3.78 0 1.8-1.27 3.13-3.85 3.13a13.6 13.6 0 01-5.74-1.5L2.04-15.6A14.07 14.07 0 009-13.8c4.63 0 7.31-2.41 7.31-5.59 0-2.64-1.9-4.32-5.75-4.85v-.13c3.53-.78 4.74-2.83 4.74-4.8 0-3-2.82-5.1-6.43-5.1-2.74 0-5.28 1.26-7.07 3.06zm33.36 11.21L25.69-5.8v2.39h9V0h3.3v-3.42h3.3v-2.52h-3.3v-13.92zm-.47 13.92h-6.55L28.08-6l6.6-9.6.12.05zm0 0"/></symbol><symbol overflow="visible" id="4ec2e92ce"><path d="M9.66-34.02L.9-28.92l1.01 1.69 5.7-3.25v11.53c0 2.26-1.03 3.3-4.03 3.6l-.3 1.5h11.16l.32-1.5-3.97-.85v-17.22zm0 0"/></symbol><symbol overflow="visible" id="4ec2e92cf"><path d="M1.69-13.86h13.9l.49-3.48-.06-.07L5.05-16l-.07-.13 3.54-2.52c4.92-3.48 6.48-6.18 6.48-9.06 0-3.97-2.88-6.3-6.55-6.3-2.87 0-5.57 1.5-7.54 3.9v.06l3 2.15h.04c1.14-1.73 3.2-3.59 4.46-4.01 1.54.6 3 1.86 3 4.2 0 1.99-1.04 4.08-5.41 8.1l-4.31 3.96zm0 0"/></symbol><symbol overflow="visible" id="4ec2e92cg"><path d="M12.23-35.77L-6 2.93l2.45 1.09L14.7-34.62zm0 0"/></symbol><symbol overflow="visible" id="4ec2e92ch"><path d="M14.81-19.86H.91v3h11.45L3.66 0h3.78l7.37-17.81zm0 0"/></symbol><symbol overflow="visible" id="4ec2e92ci"><path d="M2.7-3.72L1.62-1.5A12.76 12.76 0 008.1.3c5.18 0 8.11-3.53 8.11-10.5 0-7.02-2.82-9.96-7.2-9.96-4.44 0-7.44 2.94-7.44 6.9 0 3.71 2.52 6.06 6.06 6.06 2.4 0 4.02-1.08 4.97-2.03-.1 4.86-1.96 7.01-4.96 7.01-1.63 0-3.36-.65-4.93-1.5zm9.9-7.08a6.71 6.71 0 01-3.9 1.32c-2.15 0-3.9-1.25-3.9-3.96 0-2.34 1.39-4.5 3.9-4.5 2.64 0 3.9 2.46 3.9 7.14zm0 0"/></symbol><symbol overflow="visible" id="4ec2e92cj"><path d="M2.94-33.72v10.27l.06.04c1.14-.36 2.88-.71 4.27-.71 2.93 0 5.03 1.43 5.03 4.26 0 2.52-1.8 3.78-4.32 3.78-1.86 0-3.9-.65-5.46-1.5L1.44-15.3a14.44 14.44 0 006.78 1.74c4.69 0 7.69-2.64 7.69-6.85 0-3.3-2.47-6.04-6.36-6.04-1.5 0-3.13.47-4.2 1.07v-5.34h9.53v-3zm0 0"/></symbol><symbol overflow="visible" id="4ec2e92cb"><path d="M2.1 2.7l1.62 2.28C13.69 3.66 20.64-1.73 20.64-8.4c0-5.32-3.9-8.75-8.7-8.75-1.74 0-3.72.43-4.99.9l-.04-.05.82-7.03h10.4l1.43-3.9H4.31v13.32l.19.06c1.2-.3 3.06-.66 4.8-.66 3.72 0 6.54 2.52 6.54 6.36 0 5.29-5.28 9.43-13.75 10.8zm0 0"/></symbol><symbol overflow="visible" id="4ec2e92ck"><path d="M3.83 0v-5.95H6.2v-.82H.45v.82h2.4V0zm0 0"/></symbol><symbol overflow="visible" id="4ec2e92cl"><path d="M5.75-2.23v-.43c0-1.6-.9-2.51-2.42-2.51S.87-4.16.87-2.48c0 1.71.91 2.62 2.5 2.62 1.43 0 2.07-.56 2.29-1.52l-.9-.09c-.18.61-.59.9-1.35.9-.94 0-1.52-.54-1.58-1.66zm-2.4-2.2c.93 0 1.43.5 1.48 1.55H1.84c.08-1.07.6-1.56 1.5-1.56zm0 0"/></symbol><symbol overflow="visible" id="4ec2e92cm"><path d="M1.83 0l1.42-2h.06l1.46 2H5.8L4-2.53l1.78-2.49H4.8L3.42-3.08h-.08l-1.4-1.94H.89l1.78 2.49L.84 0zm0 0"/></symbol><symbol overflow="visible" id="4ec2e92cn"><path d="M5.52-4.25v-.77H3.17v-1.56h-.81l-.14 1.56H.75v.77h1.47v2.4c0 1.3.48 1.94 1.84 1.94C4.6.1 5.14 0 5.55-.14L5.4-.91c-.32.13-.72.2-1.13.2-.8 0-1.1-.37-1.1-1.23v-2.31zm0 0"/></symbol><symbol overflow="visible" id="4ec2e92co"><path d="M3.33-3.42c.47 0 .8-.27.8-.8 0-.51-.33-.8-.8-.8-.47 0-.8.29-.8.8 0 .53.33.8.8.8zm0 3.5c.47 0 .8-.27.8-.78 0-.53-.33-.82-.8-.82-.47 0-.8.29-.8.82 0 .51.33.78.8.78zm0 0"/></symbol><symbol overflow="visible" id="4ec2e92cq"><path d="M5.67 0v-.86H2.14V-.9L3.6-2c1.05-.83 2-1.68 2-2.91 0-1.19-.73-1.99-2.26-1.99-1.66 0-2.3 1.02-2.44 2.33l1 .08c.1-.92.42-1.58 1.44-1.58.87 0 1.26.44 1.26 1.24 0 .9-.8 1.53-1.96 2.53L.83-.81V0zm0 0"/></symbol><symbol overflow="visible" id="4ec2e92cr"><path d="M3.42.14c1.55 0 2.44-.84 2.44-2.33 0-1.45-.83-2.22-2.14-2.22-.75 0-1.28.27-1.67.72H2l.31-2.22h3.11v-.86H1.53l-.45 3.93h.81c.3-.36.9-.79 1.58-.79.92 0 1.44.43 1.44 1.47 0 .99-.54 1.5-1.49 1.5-.83 0-1.28-.32-1.5-1.01l-.95.1C1.07-.46 2 .13 3.42.13zm0 0"/></symbol><symbol overflow="visible" id="4ec2e92cs"><path d="M3.25.14c1.58 0 2.53-.69 2.53-1.95 0-1.19-.92-1.56-1.6-1.61v-.05A1.6 1.6 0 005.6-5.12c0-1.13-.87-1.79-2.3-1.79-1.62 0-2.32.82-2.45 1.88l.97.06c.13-.69.52-1.1 1.47-1.1.86 0 1.35.32 1.35 1.05 0 .86-.6 1.2-1.66 1.2h-.49v.79h.54c1.12 0 1.78.25 1.78 1.14 0 .78-.46 1.22-1.55 1.22-1.06 0-1.48-.4-1.63-1.1l-.98.07C.75-.56 1.56.14 3.25.14zm0 0"/></symbol><symbol overflow="visible" id="4ec2e92ct"><path d="M2.58.95l2.39-8.67h-.9L1.7.95zm0 0"/></symbol><symbol overflow="visible" id="4ec2e92cu"><path d="M5.1 0v-1.47H6v-.81h-.9v-4.49H3.8L.48-2.23v.76h3.66V0zM1.5-2.33l2.6-3.53h.04v3.58H1.5zm0 0"/></symbol><symbol overflow="visible" id="4ec2e92cv"><path d="M4.22-6.77h-.86l-2.03.7v.87c.64-.17 1.26-.38 1.89-.55v4.9H1.03V0h4.9v-.86H4.21zm0 0"/></symbol><symbol overflow="visible" id="4ec2e92cw"><path d="M.92-4.42h.88v-1.49h3.1v.05L2.27 0H3.3l2.64-6v-.77H.92zm0 0"/></symbol><symbol overflow="visible" id="4ec2e92cx"><path d="M3.25-6.9C1.67-6.9.77-6.04.77-4.6c0 1.41.85 2.18 2.21 2.18 1.04 0 1.58-.52 1.88-1.03h.06c0 1.54-.39 2.78-1.73 2.78-.9 0-1.24-.44-1.36-.97l-.97.1c.22.96.86 1.68 2.33 1.68C4.83.14 5.8-.9 5.8-3.64c0-2.22-.92-3.27-2.56-3.27zm-.02.8c.91 0 1.46.52 1.46 1.44 0 .91-.69 1.47-1.53 1.47-.91 0-1.46-.51-1.46-1.47S2.3-6.1 3.23-6.1zm0 0"/></symbol><symbol overflow="visible" id="4ec2e92cy"><path d="M5.95-6.77H1.1V0h.99v-2.92H5.3v-.77H2.08v-2.26h3.87zm0 0"/></symbol><symbol overflow="visible" id="4ec2e92cz"><path d="M2.83.14c.94 0 1.5-.39 1.81-.95h.08l.1.81h.76v-3.38c0-1.23-.69-1.8-2.13-1.8-1.43 0-2.03.65-2.18 1.6l.93.1c.11-.6.44-.93 1.22-.93.85 0 1.22.32 1.22 1.04v.34l-1.81.2C1.6-2.7 1.1-2.17 1.1-1.28c0 .92.64 1.42 1.72 1.42zm.25-.77c-.67 0-1.02-.28-1.02-.74 0-.44.28-.72 1-.82l1.58-.19v.41c0 .8-.6 1.34-1.56 1.34zm0 0"/></symbol><symbol overflow="visible" id="4ec2e92cA"><path d="M2.73.14c.9 0 1.43-.45 1.74-1.08h.06l.13.94h.8v-5.02h-.94v2.7c0 .98-.57 1.62-1.46 1.62-.75 0-1.1-.4-1.1-1.22v-3.1h-.93v3.32c0 1.17.55 1.84 1.7 1.84zm0 0"/></symbol><symbol overflow="visible" id="4ec2e92cB"><path d="M5.08-5.16c-.94 0-1.58.43-1.9 1.3h-.09l-.07-1.16H1.05v.77h1.1v3.48H.96V0h3.96v-.77H3.1v-1.46c0-1.36.6-2.05 1.83-2.05.4 0 .76.08 1.1.17l.15-.87c-.33-.11-.7-.18-1.11-.18zm0 0"/></symbol><symbol overflow="visible" id="4ec2e92cC"><path d="M3.34.14c1.43 0 2.13-.66 2.25-1.78l-.89-.1c-.1.7-.5 1.08-1.34 1.08-1.03 0-1.52-.64-1.52-1.84 0-1.23.47-1.86 1.52-1.86.84 0 1.23.36 1.34 1.08l.9-.1c-.13-1.09-.82-1.78-2.26-1.78-1.56 0-2.46.97-2.46 2.66 0 1.66.9 2.64 2.46 2.64zm0 0"/></symbol><symbol overflow="visible" id="4ec2e92cD"><path d="M3.58-5.81c.42 0 .72-.22.72-.67 0-.44-.3-.68-.72-.68-.44 0-.72.24-.72.68 0 .45.28.67.72.67zm.5.8H1.52v.76h1.6v3.48h-1.8V0h4.46v-.77h-1.7zm0 0"/></symbol><symbol overflow="visible" id="4ec2e92cE"><path d="M3.33.14c1.62 0 2.5-.95 2.5-2.66 0-1.68-.88-2.64-2.5-2.64-1.63 0-2.5.96-2.5 2.64 0 1.7.87 2.66 2.5 2.66zm0-.77c-1.06 0-1.52-.6-1.52-1.89 0-1.28.46-1.87 1.52-1.87 1.08 0 1.53.6 1.53 1.87 0 1.29-.45 1.9-1.53 1.9zm0 0"/></symbol><symbol overflow="visible" id="4ec2e92cF"><path d="M2.16 0v-2.67c0-.99.59-1.63 1.46-1.63.74 0 1.07.38 1.07 1.22V0h.95v-3.31c0-1.2-.56-1.85-1.67-1.85-.92 0-1.49.46-1.77 1.08h-.06l-.12-.94H1.2V0zm0 0"/></symbol><symbol overflow="visible" id="4ec2e92cG"><path d="M3.36.16c1.4 0 2.2-.6 2.2-1.57 0-.89-.54-1.22-1.47-1.39L3-3c-.67-.14-.86-.33-.86-.73 0-.5.4-.74 1.17-.74.83 0 1.19.27 1.27.8l.9-.05c-.12-1-.8-1.47-2.17-1.47-1.34 0-2.1.53-2.1 1.5 0 .81.45 1.22 1.52 1.44l1.04.2c.56.11.87.24.87.72 0 .52-.45.78-1.28.78-.95 0-1.36-.28-1.42-.87l-.9.06C1.07-.36 1.8.16 3.35.16zm0 0"/></symbol><symbol overflow="visible" id="4ec2e92cH"><path d="M1.45-2.95c0 2.56 1.08 4.37 3.67 4.84l.11-.67C3.28.86 2.43-.75 2.43-2.95s.85-3.82 2.8-4.16l-.1-.69c-2.6.49-3.68 2.3-3.68 4.85zm0 0"/></symbol><symbol overflow="visible" id="4ec2e92cI"><path d="M4.63-6.5c.45 0 .98.08 1.39.2l.2-.72a5.3 5.3 0 00-1.64-.26c-1.52 0-2.16.56-2.16 1.87v.4H.9v.76h1.53V0h.94v-4.25h2.53v-.77H3.36v-.3c0-.84.33-1.18 1.27-1.18zm0 0"/></symbol><symbol overflow="visible" id="4ec2e92cJ"><path d="M3.34-1.52c-.51 0-.8.32-.8.82 0 .5.33.78.76.78-.1.4-.36.95-.7 1.39l.5.23A4.48 4.48 0 004.13-.64c0-.55-.3-.88-.78-.88zm0 0"/></symbol><symbol overflow="visible" id="4ec2e92cK"><path d="M6.17 0L3.98-6.77h-1.3L.5 0h.97l.44-1.47h2.78L5.16 0zM3.28-5.94h.08l1.1 3.74H2.15zm0 0"/></symbol><symbol overflow="visible" id="4ec2e92cL"><path d="M3.9.14c1.48 0 2.18-.98 2.18-2.64 0-1.67-.7-2.66-2.17-2.66-.91 0-1.49.41-1.79 1h-.06v-2.98h-.95V0h.81l.11-.9h.06c.29.63.82 1.04 1.82 1.04zm-.32-.8c-1.08 0-1.55-.8-1.55-1.84 0-1.06.47-1.86 1.55-1.86 1.1 0 1.51.61 1.51 1.86S4.64-.66 3.58-.66zm0 0"/></symbol><symbol overflow="visible" id="4ec2e92cM"><path d="M.92-6.77V0h.99v-2.27h1.68c1.58 0 2.38-.65 2.38-2.2v-.14c0-1.51-.8-2.16-2.34-2.16zM5-4.47c0 1.05-.42 1.45-1.58 1.45H1.91v-2.96h1.51C4.58-5.98 5-5.66 5-4.61zm0 0"/></symbol><symbol overflow="visible" id="4ec2e92cN"><path d="M3.92-7.14H1.36v.76h1.6v5.61H1.15V0H5.7v-.77H3.92zm0 0"/></symbol><symbol overflow="visible" id="4ec2e92cO"><path d="M3.42-.86h-.08L1.77-5.02H.8L2.73 0h.41c-.33.95-.72 1.27-1.45 1.27-.22 0-.49-.04-.69-.08l-.1.73c.2.06.58.11.87.11 1.2 0 1.7-.7 2.21-2.03l1.94-5.02H5zm0 0"/></symbol><symbol overflow="visible" id="4ec2e92cP"><path d="M1.45-7.1c1.96.33 2.8 1.94 2.8 4.15 0 2.2-.84 3.8-2.8 4.17l.11.67c2.58-.47 3.67-2.28 3.67-4.84 0-2.55-1.09-4.36-3.67-4.85zm0 0"/></symbol></defs><use xlink:href="#4ec2e92ca" x="176.82" y="141" fill="#515151"/><g fill="#515151"><use xlink:href="#4ec2e92cb" x="201.66" y="141"/><use xlink:href="#4ec2e92cc" x="225.24" y="141"/></g><use xlink:href="#4ec2e92cd" x="236.64" y="141" fill="#fff"/><use xlink:href="#4ec2e92ce" x="290.82" y="141" fill="#fff"/><use xlink:href="#4ec2e92cf" x="306.48" y="141" fill="#fff"/><use xlink:href="#4ec2e92cg" x="323.76" y="141" fill="#fff"/><use xlink:href="#4ec2e92ch" x="336.06" y="141" fill="#fff"/><use xlink:href="#4ec2e92ci" x="351.18" y="141" fill="#fff"/><use xlink:href="#4ec2e92cj" x="380.28" y="141" fill="#fff"/><use xlink:href="#4ec2e92cg" x="396.78" y="141" fill="#fff"/><use xlink:href="#4ec2e92ci" x="405.48" y="141" fill="#fff"/><g fill="#fff"><use xlink:href="#4ec2e92ck" x="226.6667" y="252"/><use xlink:href="#4ec2e92cl" x="233.3337" y="252"/><use xlink:href="#4ec2e92cm" x="240.0007" y="252"/><use xlink:href="#4ec2e92cn" x="246.6677" y="252"/><use xlink:href="#4ec2e92co" x="253.3347" y="252"/><use xlink:href="#4ec2e92cp" x="260.0017" y="252"/><use xlink:href="#4ec2e92cq" x="266.6687" y="252"/><use xlink:href="#4ec2e92cr" x="273.3357" y="252"/><use xlink:href="#4ec2e92cp" x="280.0027" y="252"/><use xlink:href="#4ec2e92cs" x="286.6697" y="252"/><use xlink:href="#4ec2e92ct" x="293.3367" y="252"/><use xlink:href="#4ec2e92cu" x="300.0037" y="252"/><use xlink:href="#4ec2e92cp" x="306.6707" y="252"/><use xlink:href="#4ec2e92cv" x="313.3377" y="252"/><use xlink:href="#4ec2e92cq" x="320.0047" y="252"/><use xlink:href="#4ec2e92ct" x="326.6717" y="252"/><use xlink:href="#4ec2e92cw" x="333.3387" y="252"/><use xlink:href="#4ec2e92cx" x="340.0057" y="252"/><use xlink:href="#4ec2e92cp" x="346.6727" y="252"/><use xlink:href="#4ec2e92cr" x="353.3397" y="252"/><use xlink:href="#4ec2e92ct" x="360.0067" y="252"/><use xlink:href="#4ec2e92cx" x="366.6737" y="252"/></g><g fill="#fff"><use xlink:href="#4ec2e92cy" x="160" y="266"/><use xlink:href="#4ec2e92cl" x="166.667" y="266"/><use xlink:href="#4ec2e92cz" x="173.334" y="266"/><use xlink:href="#4ec2e92cn" x="180.001" y="266"/><use xlink:href="#4ec2e92cA" x="186.668" y="266"/><use xlink:href="#4ec2e92cB" x="193.335" y="266"/><use xlink:href="#4ec2e92cl" x="200.002" y="266"/><use xlink:href="#4ec2e92co" x="206.669" y="266"/><use xlink:href="#4ec2e92cp" x="213.336" y="266"/><use xlink:href="#4ec2e92cy" x="220.003" y="266"/><use xlink:href="#4ec2e92cB" x="226.67" y="266"/><use xlink:href="#4ec2e92cz" x="233.337" y="266"/><use xlink:href="#4ec2e92cC" x="240.004" y="266"/><use xlink:href="#4ec2e92cn" x="246.671" y="266"/><use xlink:href="#4ec2e92cD" x="253.338" y="266"/><use xlink:href="#4ec2e92cE" x="260.005" y="266"/><use xlink:href="#4ec2e92cF" x="266.672" y="266"/><use xlink:href="#4ec2e92cG" x="273.339" y="266"/><use xlink:href="#4ec2e92cp" x="280.006" y="266"/><use xlink:href="#4ec2e92cH" x="286.673" y="266"/><use xlink:href="#4ec2e92cI" x="293.34" y="266"/><use xlink:href="#4ec2e92cB" x="300.007" y="266"/><use xlink:href="#4ec2e92cz" x="306.674" y="266"/><use xlink:href="#4ec2e92cC" x="313.341" y="266"/><use xlink:href="#4ec2e92cJ" x="320.008" y="266"/><use xlink:href="#4ec2e92cp" x="326.675" y="266"/><use xlink:href="#4ec2e92cK" x="333.342" y="266"/><use xlink:href="#4ec2e92cB" x="340.009" y="266"/><use xlink:href="#4ec2e92cz" x="346.676" y="266"/><use xlink:href="#4ec2e92cL" x="353.343" y="266"/><use xlink:href="#4ec2e92cD" x="360.01" y="266"/><use xlink:href="#4ec2e92cC" x="366.677" y="266"/><use xlink:href="#4ec2e92cp" x="373.344" y="266"/><use xlink:href="#4ec2e92cM" x="380.011" y="266"/><use xlink:href="#4ec2e92cB" x="386.678" y="266"/><use xlink:href="#4ec2e92cE" x="393.345" y="266"/><use xlink:href="#4ec2e92cp" x="400.012" y="266"/><use xlink:href="#4ec2e92cE" x="406.679" y="266"/><use xlink:href="#4ec2e92cF" x="413.346" y="266"/><use xlink:href="#4ec2e92cN" x="420.013" y="266"/><use xlink:href="#4ec2e92cO" x="426.68" y="266"/><use xlink:href="#4ec2e92cP" x="433.347" y="266"/></g></svg>