<?xml version='1.0' encoding='UTF-8'?>
<svg xmlns="http://www.w3.org/2000/svg" xmlns:xlink="http://www.w3.org/1999/xlink" width="1000px" height="2073px" viewBox="0 0 1000 2073" x="0px" y="0px" enable-background="new 0 0 1000 2073"><defs><symbol overflow="visible" id="33cdb2e3a"><path d="M254.02-48.69l13.5-16.62c-5.32-2.9-13.75-9.16-18.33-14.7L235.7-63.4c4.33 6.28 12.77 12.06 18.32 14.7zm-243.66 47l-2.4 7.24 8.91 10.12c18.07 21.2 70.36 40.97 159.07 40.97 84.1 0 123.14-13.75 134.95-29.89 6.5-8.19 9.4-23.38 9.4-37.36 0-17.83-5.06-36.87-12.77-49.4l-15.2 23.38c6.27 10.85 12.3 28.68 13.74 46.76-15.17 10.59-53.25 19.76-124.6 19.76C107 29.9 45.32 17.36 10.37-1.69zm0 0"/></symbol><symbol overflow="visible" id="33cdb2e3b"><path d="M31.81-145.56h-.23l-18.33 16.14c2.9 20.01 3.86 47 3.86 74.23 0 30.85 2.66 38.56 8.44 46.03C31.09-2.4 40.73 1.7 55.44 1.7c4.1 0 8.42-5.06 8.42-12.78 0-7.7-4.33-13-8.42-13-14.22 0-20.74-4.83-20.74-35.2 0-32.54-.72-64.1-2.89-86.27zm0 0"/></symbol><symbol overflow="visible" id="33cdb2e3c"><path d="M50.13-81.45l13.01-15.9c-5.06-2.9-13.25-8.93-17.83-14.48L34.47-96.88a59.07 59.07 0 01-14.22-13.75L7.47-94.47c4.1 6.02 11.81 11.81 17.36 14.22l9.64-13.27c4.33 4.83 10.84 9.9 15.66 12.07zM38.55-58.56l-8.67 10.6 1.44 10.37C23.86-27.95 13.73-24.1 0-24.1c-4.1 0-7.23 4.32-7.23 12.76C-7.23-2.4-3.86 1.7 0 1.7c16.88 0 28.67-9.16 35.9-24.35h.26C44.34-6.75 56.88 1.7 77.84 1.7c3.61 0 7.24-5.06 7.24-12.78 0-7.7-3.63-13-7.24-13-19.76 0-32.3-9.64-38.56-34.47zm0 0"/></symbol><symbol overflow="visible" id="33cdb2e3d"><path d="M119.78-46.03l1.69-9.4-9.9 4.1c-2.88 16.63-8.9 25.06-17.1 25.06-6.5 0-10.84-6.26-11.56-16.39l1.43-8.43-9.39 3.86C68.44-29.64 60.97-24.1 52.53-24.1c-8.9 0-14.45-6.52-15.9-15.2l2.17-7.46-9.16 2.4C22.41-29.88 12.77-24.08 0-24.08c-3.38 0-6.5 5.3-6.5 13C-6.5-3.38-3.14 1.69 0 1.69c10.84 0 19.77-5.3 26.75-19.28 3.14 11.8 10.6 19.28 21.2 19.28 10.13 0 17.6-5.78 24.35-20.49C74.47-7.47 81.45-.48 91.34-.48c9.16 0 16.4-5.79 21.7-20 3.12 13.73 13 22.17 29.87 22.17 4.1 0 8.2-5.06 8.2-12.78 0-7.7-4.1-13-8.2-13-12.53 0-21.7-7.96-23.13-21.94zm0 0"/></symbol><symbol overflow="visible" id="33cdb2e3e"><path d="M22.4-108.45l13.27-16.63c-5.31-2.89-13.73-9.15-18.31-14.94l-13.5 16.86c4.33 6.27 12.77 12.07 18.55 14.7zm4.83 7.95l-17.1 20.73c11.07 21.93 15.42 38.8 16.14 51.33-4.82 2.66-14.7 4.35-26.27 4.35-3.86 0-6.5 4.57-6.5 13C-6.5-2.17-3.37 1.69 0 1.69c14.7 0 26.27-5.3 32.3-14.7 4.8-6.76 7.47-17.12 7.47-30.37 0-15.42-3.15-33.74-12.54-57.12zm0 0"/></symbol><symbol overflow="visible" id="33cdb2e3f"><path d="M52.53-82.66L65.8-99.3c-5.32-2.89-13.5-9.15-18.32-14.93l-13.5 16.87C38.31-91.09 47-85.3 52.53-82.66zM39.05-29.64C32.3-26.27 16.88-24.1 0-24.1c-3.86 0-6.5 5.3-6.5 13.25C-6.5-2.41-3.14 1.69 0 1.69c19.52 0 36.63-5.78 50.84-17.36C63.4-4.34 78.81 1.69 100.98 1.69c4.1 0 8.43-5.06 8.43-12.78 0-7.7-4.33-13-8.43-13-21.45 0-31.57-2.43-38.07-5.32 10.36-9.87 15.17-19.51 15.17-27.23 0-7.22-9.4-12.05-21.92-12.05-11.33 0-21.7 2.17-32.53 5.55l-5.07 17.1c8.42 3.15 17.6 9.41 20.49 16.4zm0 0"/></symbol><symbol overflow="visible" id="33cdb2e3g"><path d="M35.9-120.5l13.26-16.88c-5.3-2.64-13.74-8.9-18.32-14.7l-13.48 16.64c4.33 6.27 12.77 12.28 18.55 14.94zm22.9 84.6C47.95-27.48 26.52-24.1 0-24.1c-3.6 0-6.5 4.33-6.5 13C-6.5-2.9-3.6 1.7 0 1.7c26.03 0 44.83-4.35 56.88-14.7C65.55-20 71.34-34.48 71.34-51.59c0-32.76-17.84-57.1-34.47-57.1-14.46 0-28.43 19.76-28.43 36.62C8.44-54.46 22.4-40 38.8-40c6.75 0 15.42-3.63 19.04-7.72.49 2.9.72 7.72.96 11.81zm-40-37.37c2.4-7.23 8.43-12.53 15.67-12.53 8.67 0 18.31 7.72 21.44 20.97-2.64 1.44-9.64 2.9-14.94 2.9-10.36 0-18.31-4.35-22.17-11.34zm0 0"/></symbol><symbol overflow="visible" id="33cdb2e3h"><path d="M35.9-138.58v-6.98l-.23-.25-20.48 16.64c0 13.01 1.69 35.19 3.6 55.42 1.7 19.28 2.9 44.1 2.9 78.81h5.78a58.68 58.68 0 009.64-17.1c1.2-4.35 1.94-9.9 1.94-22.66 0-13.25-.97-27.47-1.7-45.55-.73-19.28-1.44-39.53-1.44-58.33zm0 0"/></symbol><symbol overflow="visible" id="33cdb2e3i"><path d="M37.33-37.94l-5.81 3.67C25.09-30.3 18.36-15.3 18.36 2.45c0 38.25 21.73 60.58 64.27 60.58 44.98 0 72.51-15.9 85.67-42.83 3.37-7.04 4.28-13.17 4.28-15.92 0-11.94-27.53-30.9-60.28-39.17-3.67 4.6-7.03 11.94-8.25 19.6 24.17 5.2 45.28 17.13 55.68 28.45-11.32 14.68-35.8 24.48-71 24.48-34.57 0-56.3-17.14-56.3-47.44 0-12.54 1.54-20.5 4.9-28.14zm0 0"/></symbol><symbol overflow="visible" id="33cdb2e3j"><path d="M34.27-144.73h-2.44l-4.9 19.57 19.88 9.49v.6C29.7-107.71 18.05-89.04 18.05-76.8c0 7.97 6.43 17.45 15.92 26.01-9.19 6.74-26.02 13.47-39.49 15.9-1.82 2.46-3.04 6.45-3.04 10.42 0 6.73 3.97 9.8 8.56 9.8 13.77 0 36.1-11.34 50.19-23.57 11.94 7.34 24.78 12.23 35.19 12.23 11.32 0 19.28-2.43 27.84-13.76 7.66-10.1 11.33-21.11 11.33-30.3 0-16.22-30.61-45.6-90.28-74.65zm-2.75 62.1c3.06-10.4 14.68-22.93 22.64-22.93 9.18 0 17.45 10.39 18.36 21.4-3.05 9.5-9.49 17.46-18.36 23.57-9.49-6.43-17.75-14.07-22.64-22.03zm52.64-8.87c13.15 7.34 26 22.95 28.75 31.53-3.05 9.17-11.02 14.06-20.8 14.06-7.34 0-16.53-2.75-25.7-7.34C75.58-64.27 82-77.72 84.16-91.5zm0 0"/></symbol><symbol overflow="visible" id="33cdb2e3k"><path d="M36.1-184.83h-.3l-17.44 17.14c3.36 29.69 4.6 63.35 4.6 97.92 0 42.54 3.06 50.2 9.48 59.07C37.33-3.98 48.66 2.14 66.4 2.14c4.57 0 9.17-4.6 9.17-12.23 0-7.66-4.6-11.94-9.17-11.94-17.75 0-26.63-5.2-26.63-49.58 0-42.53-.92-85.06-3.67-113.22zm0 0"/></symbol><symbol overflow="visible" id="33cdb2e3l"><path d="M90.27-109.23l12.25-17.14c-4.91-3.07-14.08-9.8-18.07-15.3l-12.84 16.51c2.75 4.28 11.31 11.94 18.66 15.93zm19.89 28.45l14.07-18.67c-5.8-2.75-15.3-9.49-20.5-15.61L91.8-97.92c-4.9-2.45-13.46-8.88-17.44-14.08L61.2-94.25c4.9 6.73 14.08 12.86 20.5 15.6l10.4-15.29c4.9 5.2 12.56 10.7 18.06 13.16zm37.03 30.6l2.45-12.85-10.4 4.28c-4.29 22.64-11.94 33.97-22.35 33.97-7.66 0-13.16-8.88-14.08-21.42l1.85-10.72-9.49 4.3C86.3-28.16 78.34-22.04 67.94-22.04c-10.72 0-18.67-8.27-22.03-20.2l3.04-9.18-8.86 2.14C30-29.98 17.44-22.03 0-22.03c-4.6 0-8.27 5.5-8.27 11.94C-8.27-2.45-3.98 2.14 0 2.14c13.47 0 25.7-6.73 35.19-25.39 3.67 15.9 13.47 25.4 26.94 25.4 11.62 0 20.5-6.43 29.37-25.1C93.03-9.2 100.38-.61 112.6-.61c10.71 0 20.82-7.34 27.24-25.4C143.81-8.57 157.9 2.13 178.1 2.13c4.6 0 9.18-4.6 9.18-12.23 0-7.66-4.58-11.94-9.18-11.94-16.22 0-28.15-9.19-30.9-28.16zm0 0"/></symbol><symbol overflow="visible" id="33cdb2e3m"><path d="M37.94-120.88l14.69-18.35c-5.82-3.36-15.3-10.1-20.2-16.52l-15 18.36c4.91 7.03 14.09 13.76 20.5 16.51zm3.67 16.54l-11.92 15.3c.3 12.54 3.36 33.35 6.72 46.8C27.84-28.44 17.75-22.03 0-22.03c-4.9 0-8.27 4.29-8.27 11.95C-8.27-1.84-4.59 2.14 0 2.14c21.42 0 34.9-11.02 42.84-29.69h.61c7.96 18.07 22.03 29.7 47.42 29.7v-24.18c-23.56 0-40.68-13.77-48.34-82.02zm0 0"/></symbol><symbol overflow="visible" id="33cdb2e3n"><path d="M31.83-120.88l-4.9 19.6L46.8-91.8v.61C29.7-83.84 18.05-65.17 18.05-52.94c0 7.96 6.43 17.44 15.92 26.02-10.4 3.36-21.74 4.89-33.97 4.89-3.98 0-8.27 4.89-8.27 12.23C-8.27-2.75-4.28 2.14 0 2.14c18.67 0 36.1-6.42 50.19-16.52C62.13-7.03 74.97-2.13 85.38-2.13c11.32 0 19.28-2.45 27.84-13.77 7.66-10.1 11.33-21.12 11.33-30.3 0-16.21-30.61-45.59-90.28-74.66zm-.31 62.13C34.58-69.15 46.2-81.7 54.16-81.7c9.18 0 17.45 10.4 18.36 21.42-3.05 9.48-9.49 17.44-18.36 23.56-9.49-6.42-17.75-14.08-22.64-22.03zm52.64-8.88c13.15 7.35 26 22.96 28.75 31.52-3.05 9.19-11.02 14.08-20.8 14.08-7.34 0-16.53-2.75-25.7-7.34C75.58-40.4 82-53.86 84.16-67.63zm0 0"/></symbol><symbol overflow="visible" id="33cdb2e3o"><path d="M75.58-115.36l12.25-17.14c-4.9-3.06-14.08-9.8-18.06-15.3l-12.85 16.52c2.75 4.3 11.31 11.94 18.66 15.92zM95.47-86.9l14.08-18.65c-5.82-2.77-15.3-9.5-20.5-15.61L77.1-104.05c-4.9-2.43-13.47-8.86-17.44-14.06l-13.15 17.73c4.89 6.74 14.07 12.86 20.5 15.61l10.4-15.3c4.9 5.21 12.55 10.71 18.05 13.16zm36.42-1.82l-11.01 23.25c8.56 9.8 15.59 25.7 16.82 41-19.89 0-33.97-11.63-40.7-28.14l2.75-11.65-9.78 3.99c-10.4 27.55-17.75 36.1-25.4 36.1-7.65 0-15.62-8.26-18.98-23.26l2.46-10.39-9.2 3.97C28.78-32.13 16.23-22.03 0-22.03c-4.28 0-8.56 4.89-8.56 12.23C-8.56-1.22-4.6 2.14 0 2.14c11.33 0 20.81-6.12 32.44-27.53C38.25-8.27 48.04 0 58.75 0c11.33 0 19.28-6.73 28.16-29.38C96.39-10.7 112.3-.3 125.45-.3c7.05 0 12.86-4.28 19.28-17.13 4.91-9.8 5.82-19.89 5.82-26.62 0-14.08-8.57-33.97-18.66-44.67zm0 0"/></symbol><symbol overflow="visible" id="33cdb2e3p"><path d="M46.23-57.45L35.7-49.98c-6.8 5.1-15.3 21.07-15.3 42.5 0 54.4 30.26 82.28 84.66 82.28 39.44 0 73.78-18.02 88.4-46.58 6.46-12.58 9.85-26.86 9.85-33.31 0-12.6-13.6-31.97-75.47-45.91-5.43 8.5-9.53 21.77-11.9 34 35.7 5.44 57.12 15.98 63.92 25.84-7.81 9.52-34.34 17.68-67.66 17.68-46.25 0-71.4-20.4-71.4-52.7 0-13.95 1.7-22.77 5.43-31.27zm0 0"/></symbol><symbol overflow="visible" id="33cdb2e3q"><path d="M-2.72-204.69l-9.86 21.77h2.03l118.67-32.99 10.2-21.75h-2.73zm95.2 46.92l21.08-41.8-117.3 30.93c-14.62 3.73-31.62 21.42-31.62 40.8 27.88 23.8 47.27 51 53.38 71.06C14.95-52.7 7.82-49.3 0-49.3c-3.73 0-8.5-.68-14.28-1.7-1.7 4.08-2.72 7.48-2.72 11.9 0 13.6 6.8 21.76 19.38 21.76 22.1 0 42.17-21.08 42.17-44.53 0-17-14.28-52.04-35.36-72.43zm0 0"/></symbol><symbol overflow="visible" id="33cdb2e3r"><path d="M39.44-79.56l-10.2 7.48c-5.44 3.74-11.55 15.64-11.55 32.3 0 29.92 18.36 47.6 46.23 47.6 15.99 0 28.9-4.76 38.42-12.59l6.46-34c11.56 28.57 31.97 41.15 65.97 41.15 6.8 0 13.59-9.18 13.59-22.79 0-13.59-6.8-23.8-13.6-23.8-26.85 0-32.98-6.1-39.45-25.15-5.1-14.95-11.54-44.87-19.03-89.77L80.92-130.9c9.52 44.2 16.66 65.97 21.77 80.25-7.49 5.44-24.83 10.2-40.81 10.2-17 0-26.52-8.5-26.52-21.41 0-6.13 1.36-11.57 4.08-17.7zm0 0"/></symbol><symbol overflow="visible" id="33cdb2e3s"><path d="M55.42-128.52l21.42-26.85c-8.5-4.43-21.76-14.63-29.57-23.82L25.84-152.3c6.8 10.19 20.74 19.37 29.58 23.8zM59.5-91.8L44.87-74.45l1.7 14.6C36.38-49.3 21.78-44.2 0-44.2c-5.1 0-10.2 7.48-10.2 23.12C-10.2-5.09-5.1 2.37 0 2.37c25.5 0 43.19-13.59 53.72-36.03h.69C67.3-10.88 85.69 2.37 116.63 2.37c5.09 0 10.18-9.17 10.18-22.78 0-13.59-5.1-23.8-10.19-23.8-26.85 0-45.21-11.88-55.76-47.59zm0 0"/></symbol><symbol overflow="visible" id="33cdb2e3t"><path d="M51-140.42L25.16-94.86C36.05-87.05 51.69-68 55.42-54.4 47.27-47.27 22.78-44.2 0-44.2c-4.77 0-9.19 7.15-9.19 23.13C-9.19-5.09-4.08 2.37 0 2.37c29.23 0 51.34-10.53 63.92-30.93 9.52-15.99 13.94-28.9 13.94-48.96 0-22.78-13.27-47.26-26.86-62.9zM38.08 71.73L58.8 47.27C51 42.16 38.42 32.64 31.62 23.8L13.6 46.92C6.13 41.82-3.06 32.3-8.16 24.82L-28.9 49.63c6.13 9.52 18.36 19.38 26.86 23.13L13.6 52.02C20.41 60.19 30.27 68 38.08 71.73zm0 0"/></symbol><symbol overflow="visible" id="33cdb2e3u"><path d="M49.98-205.36h-.34L17-178.84c4.42 23.12 5.78 61.89 5.78 100.3 0 39.45 4.08 53.38 13.27 64.26C46.58-2.05 60.85 2.38 82.95 2.38c6.82 0 13.61-9.18 13.61-22.79 0-13.59-6.8-23.8-13.6-23.8-20.74 0-28.55-7.8-28.55-43.5 0-44.56-1.03-86.37-4.43-117.65zm0 0"/></symbol><symbol overflow="visible" id="33cdb2e3v"><path d="M34-17.34C46.92 5.44 63.92 22.09 83.64 22.09c12.92 0 29.23-18.36 34.34-39.43C128.52-5.1 143.14 2.37 160.81 2.37c6.81 0 13.61-9.17 13.61-22.78 0-13.59-6.8-23.8-13.6-23.8-15.63 0-26.52-4.74-43.87-24.8-15.3-17.7-25.5-24.15-37.73-24.15-11.56 0-22.44 5.44-39.1 24.82C24.82-50.31 14.63-44.2 0-44.2c-4.42 0-9.19 7.48-9.19 23.47 0 16.3 3.06 23.1 9.19 23.1 11.9 0 24.48-5.43 34-19.71zm15.3-22.44c7.14-9.52 14.62-14.63 24.14-14.63 11.56 0 25.15 10.2 35.01 26.2-5.1 5.43-13.6 9.5-21.75 9.5-11.22 0-19.04-2.71-37.4-21.07zm0 0"/></symbol><symbol overflow="visible" id="33cdb2e3w"><path d="M47.27-160.81l21.42-26.88c-8.5-4.4-21.77-14.6-29.6-23.8l-21.4 26.87c6.8 10.2 20.73 19.39 29.58 23.8zM51-140.42L25.16-94.86C36.05-87.05 51.69-68 55.42-54.4 47.27-47.27 22.78-44.2 0-44.2c-4.77 0-9.19 7.15-9.19 23.13C-9.19-5.09-4.08 2.37 0 2.37c29.23 0 51.34-10.53 63.92-30.93 9.52-15.99 13.94-28.9 13.94-48.96 0-22.78-13.27-47.26-26.86-62.9zm0 0"/></symbol><symbol overflow="visible" id="33cdb2e3x"><path d="M6.5-3.63L5.28.3C32.61-2.42 47.41-5.14 54.2-8.77c3.17-1.8 4.99-5.42 6.2-8.59 7.1 10.27 15.7 15.7 22.2 15.7 5.73 0 9.5-2.42 12.84-7.4a23.5 23.5 0 004.08-12.83C99.52-32.47 88.78-45 79.42-45c-5.89 0-10.1 2.56-16 13.9l-1.36-2.12h-.45l-6.34 7.84 1.2 1.97C46.8-16.45 35.33-11.78 6.5-3.62zm88.17-15.25a9.8 9.8 0 01-8.75 5.9c-6.19 0-13.14-4.54-19.19-13.14 2.58-4.54 6.35-7.55 11.33-7.55 5.75 0 12.08 4.98 16.61 14.8zm-9.2 56.47h2.1a28.13 28.13 0 003.48-8c.45-2.1.6-7.25.6-10.26a298 298 0 00-.74-17.81L84.4 6.5a450.8 450.8 0 011.06 31.1zm-15.25 1.52h2.1a28.33 28.33 0 003.48-8c.45-2.13.6-7.25.6-10.27 0-4.23-.45-14.95-.74-17.82L69.16 8c.45 6.64 1.06 17.38 1.06 31.1zm0 0"/></symbol><symbol overflow="visible" id="33cdb2e3z"><path d="M17.81-91.2h-.14l-8.6 8.45c1.65 14.66 2.26 31.27 2.26 48.33 0 20.98 1.5 24.76 4.67 29.14 2.42 3.31 8.02 6.34 16.77 6.34 2.26 0 4.53-2.26 4.53-6.04 0-3.79-2.27-5.9-4.53-5.9-8.75 0-13.15-2.56-13.15-24.45 0-21-.45-41.98-1.8-55.87zm0 0"/></symbol><symbol overflow="visible" id="33cdb2e3A"><path d="M21.14-49.98L13.28-37c3.33 4.4 6.2 12.53 7.4 21.3C15.26-12.53 9.23-10.88 0-10.88c-2.56 0-4.08 2.43-4.08 6.05 0 4.38 1.81 5.9 4.08 5.9 9.22 0 17.36-3.04 21.75-9.23 4.22-6.03 6.03-12.82 6.03-18.26 0-8.16-2.26-17.06-6.64-23.56zM13.6 27.48l6.94-9.21c-2.86-1.36-7.55-4.68-10.1-7.7l-5.9 8.46a34.99 34.99 0 01-8.16-7.4l-6.93 9.21c2.4 3.32 6.94 6.35 10.1 7.7l5.15-7.56a31.5 31.5 0 008.9 6.5zm0 0"/></symbol><symbol overflow="visible" id="33cdb2e3B"><path d="M15.86-26.88l-2.42 1.66c-1.81 1.2-3.63 4.99-3.63 10.58 0 9.36 6.64 15.7 16.31 15.7 7.85 0 12.99-1.51 17.36-4.53l4.24-10.72C51.94-3.47 58.44 1.06 72.62 1.06c2.27 0 4.54-2.26 4.54-6.04 0-3.79-2.27-5.9-4.53-5.9-11.02 0-15.25-3.01-17.97-12.07-2.41-8.3-4.68-21.9-6.64-39.86l-9.36 8c2.72 18.72 5.73 30.5 7.54 37.14-3.92 4.23-9.97 6.8-18.42 6.8-8.45 0-12.69-3.77-12.69-9.52 0-2.72.16-4.53.77-6.48zm17.36 54.2l7.25-9.05c-2.88-1.66-7.55-4.99-9.97-8.16l-7.4 9.06c2.42 3.49 6.95 6.8 10.12 8.16zm0 0"/></symbol><symbol overflow="visible" id="33cdb2e3C"><path d="M22.2-32.92l-4.53 5.6.9 6.63C13.9-13.44 7.7-10.87 0-10.87c-2.72 0-4.53 2.1-4.53 5.89 0 4.07 1.97 6.04 4.53 6.04 9.81 0 16.77-5.44 21.14-14.65h.16C25.97-3.8 33.52 1.06 46.06 1.06c2.25 0 4.52-2.26 4.52-6.04 0-3.79-2.27-5.9-4.52-5.9-12.84 0-20.39-6.8-23.72-22.04zm10.86 60.4l6.96-9.21a35.93 35.93 0 01-10.13-7.7l-5.87 8.46a34.68 34.68 0 01-8.16-7.4L8.9 20.84c2.42 3.32 6.95 6.35 10.12 7.7l5.13-7.56a31.71 31.71 0 008.9 6.5zm0 0"/></symbol><symbol overflow="visible" id="33cdb2e3D"><path d="M20.53-51.48l-5.89 7.54c.16 6.19 1.67 16.46 3.33 23.1-4.24 6.8-9.2 9.96-17.97 9.96-2.42 0-4.08 2.11-4.08 5.9 0 4.07 1.81 6.04 4.08 6.04 10.56 0 17.22-5.44 21.14-14.65h.3C25.37-4.7 32.3 1.06 44.84 1.06v-11.94c-11.62 0-20.07-6.8-23.86-40.46zm12.4 80.92l6.93-9.2c-2.86-1.36-7.55-4.7-10.11-7.7l-5.9 8.44a34.58 34.58 0 01-8.15-7.39l-6.93 9.2c2.4 3.34 6.32 6.5 9.5 7.87l5.75-7.7a31.73 31.73 0 008.9 6.48zm-5.15 13.45l5.9-8.16c-2.73-1.21-6.65-3.62-9.07-6.2l-5.73 8.02c2.1 2.86 5.59 5.12 8.9 6.34zm0 0"/></symbol><symbol overflow="visible" id="33cdb2e3E"><path d="M-4.08-4.83c0 4.22 1.97 5.9 4.08 5.9h5.6c43.77 0 120.18-5.3 134.98-11.18 7.25-2.87 9.06-6.34 9.06-13.3 0-11.17-12.08-18.26-32.6-18.26-24.18 0-42.9 4.22-75.37 4.22-12.37 0-21.6-.6-27.62-2.4 8.75-11.8 25.06-22.37 43.18-26.59l2.57-12.08c-22.96 4.99-39.27 15.85-48.02 27.63-3.62 4.83-5.14 8.77-5.14 12.08 0 2.87 3.02 7.7 5.74 8.92 4.98 2.25 16.6 3.77 35.93 3.77 24.77 0 48.78-4.22 70.67-4.22 13.9 0 21.75 3.15 24.16 9.5-17.36 4.98-88.33 9.96-137.55 9.96H0c-1.97 0-4.08 1.22-4.08 6.05zm0 0"/></symbol><symbol overflow="visible" id="33cdb2e3F"><path d="M.75 26.28l2.13 3.02 19.32 2.4c15.4-8.14 26.11-24.9 26.11-43.33 0-15.1-8.45-27.64-17.97-27.64-8.45 0-15.84 11.18-15.84 20.4 0 9.96 7.55 17.35 16.6 17.35 4.38 0 8.3-2.26 10.57-4.37C38.5 5.89 24.02 19.78.75 26.28zm18.88-45.31c1.51-5.13 5.14-8.9 9.8-8.9 5 0 10.88 4.98 12.24 13.29-1.5 1.2-6.03 2.4-9.65 2.4-5.6 0-10.13-2.26-12.4-6.8zm0 0"/></symbol><symbol overflow="visible" id="33cdb2e3G"><path d="M15.55-18.72l-2.86 1.81C9.66-14.8 6.05-8.16 6.05.61c0 18.1 10.1 30.19 29.6 30.19 20.98 0 39.1-10.4 46.35-25.82 2.1-4.37 2.56-7.4 2.56-10.12 0-4.22-2.42-6.49-15.86-9.66-13.89-3.32-15.7-3.92-17.67-4.68v-.14C56.63-31.41 65.4-37 72.63-37c3.62 0 6.65 1.06 9.06 2.27l5.6-11.18c-2.73-1.5-6.96-3.01-10.59-3.01-17.06 0-31.25 22.05-31.25 33.51 0 5.3 3.02 8 15.25 10.88C73.84-1.52 76.7-.61 78.52.3v.15c-6.8 10.43-21.6 17.82-40.61 17.82-16.16 0-24.93-7.55-24.93-23.1 0-6.19.91-10.12 2.57-13.89zm33.67 72.78l6.95-9.22c-2.87-1.36-7.55-4.67-10.1-7.7l-5.9 8.47a34.68 34.68 0 01-8.15-7.4l-6.96 9.2c2.42 3.32 6.96 6.34 10.13 7.7l5.12-7.55a32.57 32.57 0 008.9 6.5zm0 0"/></symbol><symbol overflow="visible" id="33cdb2e3H"><path d="M51.34-70.52l6.94-9.21c-2.86-1.36-7.55-4.68-10.1-7.7l-5.9 8.46a34.99 34.99 0 01-8.16-7.4l-6.93 9.21c2.4 3.32 6.93 6.35 10.1 7.7l5.15-7.56a31.5 31.5 0 008.9 6.5zM15.86-26.88l-2.42 1.66c-1.81 1.2-3.63 4.99-3.63 10.58 0 9.36 6.64 15.7 16.31 15.7 7.85 0 12.99-1.51 17.36-4.53l4.24-10.72C51.94-3.47 58.44 1.06 72.62 1.06c2.27 0 4.54-2.26 4.54-6.04 0-3.79-2.27-5.9-4.53-5.9-11.02 0-15.25-3.01-17.97-12.07-2.41-8.3-4.68-21.9-6.64-39.86l-9.36 8c2.72 18.72 5.73 30.5 7.54 37.14-3.92 4.23-9.97 6.8-18.42 6.8-8.45 0-12.69-3.77-12.69-9.52 0-2.72.16-4.53.77-6.48zm0 0"/></symbol><symbol overflow="visible" id="33cdb2e3I"><path d="M21.14-43.8l7.25-9.04c-2.87-1.68-7.55-4.99-9.97-8.16l-7.4 9.06c2.42 3.47 6.95 6.78 10.12 8.14zm1.06 10.88l-4.53 5.6.9 6.63C13.9-13.44 7.7-10.87 0-10.87c-2.72 0-4.53 2.1-4.53 5.89 0 4.07 1.97 6.04 4.53 6.04 9.81 0 16.77-5.44 21.14-14.65h.16C25.97-3.8 33.52 1.06 46.06 1.06c2.25 0 4.52-2.26 4.52-6.04 0-3.79-2.27-5.9-4.52-5.9-12.84 0-20.39-6.8-23.72-22.04zm0 0"/></symbol><symbol overflow="visible" id="33cdb2e3J"><path d="M65.08-43.8L59.64-32.3c4.23 4.83 7.7 12.69 8.31 20.23-9.8 0-16.76-5.73-20.1-13.89l1.37-5.73-4.83 1.95c-5.12 13.6-8.75 17.83-12.53 17.83-3.77 0-7.7-4.08-9.36-11.49l1.2-5.12-4.53 1.95C14.2-15.86 8-10.88 0-10.88c-2.1 0-4.23 2.43-4.23 6.05 0 4.22 1.96 5.9 4.23 5.9 5.6 0 10.27-3.04 16-13.6C18.88-4.08 23.7 0 28.98 0c5.6 0 9.52-3.33 13.91-14.5C47.56-5.28 55.42-.16 61.91-.16c3.48 0 6.34-2.1 9.51-8.45 2.42-4.83 2.88-9.81 2.88-13.14 0-6.94-4.24-16.75-9.22-22.05zm0 0"/></symbol><symbol overflow="visible" id="33cdb2e3K"><path d="M46.92-38.23l9.95-12.49c-3.93-2.05-10.1-6.8-13.73-11.06L33.2-49.3c3.15 4.74 9.62 9 13.73 11.07zM22.28-27.17l-4.9 3.47C12.47-20.06 7.9-9.48 7.9 3.3c0 23.08 14.84 34.77 36.01 34.77 13.11 0 25.6-5.38 32.24-14.06 4.57-6 8.22-15.33 8.22-24.64 0-3.49-.65-9.02-1.91-13.29l.33-.15c3 2.69 6.62 4.26 10.42 4.26 11.22 0 18.33-9.64 20.06-29.07l-7.42-5.85c-1.58 8.69-4.9 13.28-12.64 13.28-6.8 0-12.49-2.06-17.53-6.8l-11.7 16.12c4.1 6.17 8.7 21.17 9.17 28.92-5.38 5.37-16.28 8.68-27.5 8.68-18.33 0-26.7-8.06-26.7-25.9 0-6.17 1.41-12.49 3.32-16.75zm0 0"/></symbol><symbol overflow="visible" id="33cdb2e3L"><path d="M20.7-58.94l-8.37 7.11v5.85c0 29.54 15.15 47.09 35.86 47.09 3.15 0 6.33-4.27 6.33-10.6 0-6.3-3.18-11.06-6.33-11.06-16.11 0-24.49-10.73-25.9-37.6zm10.43 93.22l9.64-11.37c-3.65-2.36-9.49-6.8-12.65-10.9l-8.37 10.74a45.03 45.03 0 01-10.1-10.27L0 24.02c2.84 4.42 8.53 9 12.48 10.75l7.27-9.65c3.16 3.79 7.73 7.43 11.38 9.16zm0 0"/></symbol><symbol overflow="visible" id="33cdb2e3M"><path d="M21.97-74.73l9.95-12.49c-3.95-2.05-10.12-6.8-13.75-11.06L8.22-85.8c3.15 4.75 9.64 9.02 13.75 11.07zm1.73 9.48L11.7-44.08c5.06 3.63 12.33 12.49 14.06 18.8-3.78 3.31-15.16 4.73-25.75 4.73-2.22 0-4.27 3.33-4.27 10.75C-4.27-2.37-1.89 1.1 0 1.1c13.6 0 23.86-4.9 29.7-14.37 4.43-7.43 6.49-13.43 6.49-22.76 0-10.58-6.17-21.95-12.49-29.22zm0 0"/></symbol><symbol overflow="visible" id="33cdb2e3N"><path d="M25.44-90.84v-4.6l-.16-.15-16.6 12.8c0 3 1.59 21.8 2.85 35.07 1.11 11.53 1.42 28.77 1.42 51.83h4.58C21.48 0 24.81-5.37 26.06-9.33c.8-2.69 1.6-7.1 1.6-15.48 0-8.85-.64-15.96-1.11-27.8-.49-12.64-1.11-25.92-1.11-38.23zm0 0"/></symbol><symbol overflow="visible" id="33cdb2e3O"><path d="M0 21.02l3.47 5.04 30.19 7.13C49.3 21.33 54.67 10.27 57.03 1.1h4.44c3.16 0 6.31-4.27 6.31-10.6 0-6.3-3.16-11.06-6.31-11.06h-3.8c-1.89-19.57-11.69-32.7-21.97-32.7-10.1 0-20.22 12.64-20.22 25.77 0 15.8 13.27 27.32 30.5 28.59C41.88 7.9 26.86 16.28 0 21zm23.06-48.2c1.42-4.41 5.85-7.74 10.28-7.74 6.47 0 12.47 4.9 15.64 14.37-1.57.49-5.06.8-7.59.8-8.69 0-15.95-3.47-18.33-7.42zm0 0"/></symbol><symbol overflow="visible" id="33cdb2e3P"><path d="M36.34-88.16l9.64-11.39c-3.64-2.36-9.48-6.78-12.64-10.89L24.97-99.7a43.8 43.8 0 01-10.11-10.27L5.22-98.44c2.84 4.42 8.53 9.02 12.48 10.75l7.27-9.64c3.16 3.8 7.73 7.42 11.37 9.17zm4.58 60.35C33.82-22.28 18.8-20.55 0-20.55c-2.38 0-4.27 3.64-4.27 10.9C-4.27-2.68-2.22 1.12 0 1.12c17.86 0 30.02-2.38 37.92-9.02C45.2-13.75 51.2-27.8 51.2-41.08c0-22.6-12.8-39.5-24.33-39.5C16.44-80.58 6-66.2 6-53.72 6-41.08 16.6-29.7 28.75-29.7c4.1 0 10.28-1.74 11.86-3.64.16 1.57.31 3.95.31 5.53zM14.22-55.3c1.42-3.95 5.84-6.95 10.26-6.95 6.33 0 12.64 4.9 15.33 13.6-1.89.62-6.15 1.09-9.31 1.09-7.9 0-13.75-3.31-16.28-7.74zm0 0"/></symbol><symbol overflow="visible" id="33cdb2e3R"><path d="M57.52-20.55c-18.33 0-35.72 6.49-46.77 24.2-5.06 8.2-7.6 14.52-7.6 19.1 0 7.27 8.07 12.17 31.77 12.17 27.97 0 55.45-.8 76.31-3.48 5.7-3.47 12-11.85 14.85-17.85l-1.27-2.37c-18.15 1.89-49.12 2.84-74.89 2.84-17.84 0-27.33-.47-33.81-2.22C21 6.31 34.92 1.11 57.36 1.11c3.94 0 5.84-5.53 5.84-10.75 0-6.47-2.53-10.9-5.68-10.9zm0 0"/></symbol><symbol overflow="visible" id="33cdb2e3S"><path d="M62.1-70.31l9.8-19.44-54.53 14.4C10.6-73.64 2.7-65.42 2.7-56.42c12.95 11.07 21.95 23.7 24.8 33.02-4.9 1.75-12.32 2.84-27.49 2.84-1.73 0-4.27 2.85-4.27 10.9C-4.27-2.21-2.05 1.12 0 1.12c12.95 0 21.64-1.74 30.34-8.06 5.7-4.11 9.47-13.9 9.47-18.8 0-7.9-6.62-24.17-16.42-33.66zm0 0"/></symbol><symbol overflow="visible" id="33cdb2e3T"><path d="M45.81-60.98l1.9 6c5.06 1.89 11.38 2.68 16.91 2.68 8.85 0 14.7-4.73 14.7-13.1 0-5.87-3.63-12.02-8.7-12.02-4.26 0-9.8 3.48-12.95 14.7h-.64c.95-3.8 1.6-9.48 1.6-11.7 0-1.74-.18-3.31-.33-4.42l3.33-1.58-4.6-9L48.98-85c2.36 4.1 3.79 12.16 3.79 24.02zm29.55-2.22c-1.58 1.42-5.2 2.22-15.16 2.22 3.16-4.91 6.16-6.96 9.32-6.96 2.68 0 4.75 2.05 5.84 4.74zm-58.92 9.95l-4.75 3.64C9-47.56 5.38-39.97 5.38-29.86c0 24.02 15.8 32.7 46.6 32.7 29.07 0 48.35-9.95 61.46-25.43 0 15.95 8.86 23.7 21.17 23.7 3.17 0 6.33-4.27 6.33-10.6 0-6.3-3.16-11.06-6.33-11.06-9.16 0-13.9-3.15-16.11-9l6.16-8.84v-.16l-7.11-.64c-14.07 12.8-32.7 19.6-58.46 19.6-32.54 0-44.23-8.07-44.23-22.91 0-3.16.78-7.9 1.58-10.75zm0 0"/></symbol><symbol overflow="visible" id="33cdb2e3U"><path d="M-4.27-9.8C-4.27-2.53-2.22 1.1 0 1.1h56.1c51.5 0 82.15-3 95.74-8.83 9.16-4.29 15.32-12.18 15.32-21.5 0-11.54-10.74-22.29-46.13-22.29-19.75 0-45.19 3.33-77.58 3.33-15.8 0-23.86-.8-29.86-2.53 8.05-8.22 24.64-16.1 41.7-18.64l3.65-20.06c-23.55 3.94-40.61 14.69-48.19 24.48-3.95 5.06-6.02 9.16-6.02 12.96 0 7.1 4.75 15.95 9.8 18.8 5.38 3 21.17 4.43 37.61 4.43 25.28 0 54.19-3.33 79.63-3.33 15.64 0 20.54 1.27 25.76 6.33-5.84 3-44.25 5.2-105.86 5.2H0c-2.05 0-4.27 3.33-4.27 10.75zm0 0"/></symbol><symbol overflow="visible" id="33cdb2e3V"><path d="M47.72-35.86l-9.33 17.69C46.61-9.16 50.72-1.42 51.03 2.69c-4.1 10.75-20.22 21.17-44.39 28.28l3.47 5.06 30.19 7.11C55.45 29.4 59.72 16.91 59.72 6.8c0-3-.78-7.11-1.42-9.02l.48-.47c4.11 2.69 7.74 3.8 12.16 3.8 3.17 0 6.33-4.27 6.33-10.6 0-6.3-3.16-11.06-6.33-11.06-6.63 0-12.8-3.93-23.22-15.3zm0 0"/></symbol><symbol overflow="visible" id="33cdb2e3X"><path d="M14.36 0c2.78-1.02 7.94-1.9 14.62-1.9 7.3 0 17.64 1.52 22.43 2.77l4.4-9.95C50.66-22.42 38.7-32.25 30.87-32.25c-6.93 0-12.6 8.69-12.6 15.88 0 2.76.37 4.78.89 7.17C12.59-7.31 8.19-2.27 8.19 4.78c0 3.28 1.51 8.33 3.03 14.63 3.9 15.87 4.78 19.03 5.4 26.07l2.02.75c1.64-2.89 1.77-4.9 1.77-8.93 0-4.16-1-10.2-2.27-16.5C16.5 12.6 15.12 5.92 14.36 0zm9.08-10.2c-.38-1.4-.63-3.03-.63-4.28 0-4.55 3.02-8.7 6.55-8.7 6.17 0 14.36 6.16 19.16 13.85l-.13.25c-3.03-.62-11.6-1.76-15.75-1.76-3.66 0-6.56.14-9.2.64zm0 0"/></symbol><symbol overflow="visible" id="33cdb2e3Y"><path d="M17.27-72.45v-3.66l-.13-.12-8.33 7.18c0 11.1.64 19.4 1.52 29.99a457.1 457.1 0 011.89 41.08h2.51a33.15 33.15 0 003.29-7.32c.62-2.26.89-4.65.89-11.32 0-6.94-.52-15.9-.9-25.33a841.47 841.47 0 01-.74-30.5zm0 0"/></symbol><symbol overflow="visible" id="33cdb2e3Z"><path d="M34.02-20.28l-4.54 8.69c5.18 5.8 7.32 10.96 7.7 14.87C33.88 11.1 23.43 19.91 5.3 24.95l1.76 2.52 16.13 2.01c12.84-6.8 18.39-18.9 18.39-25.82 0-2.02-.25-3.79-.88-5.3l.13-.13C43.47.13 46.1.88 49.52.88c1.89 0 3.78-1.9 3.78-5.04 0-3.15-1.9-4.92-3.78-4.92-5.3 0-8.82-2.89-15.5-11.2zm0 0"/></symbol><symbol overflow="visible" id="33cdb2e3aa"><path d="M22.94-51.16c0 6.05 4.03 10.08 10.08 10.08 6.04 0 10.2-4.03 10.2-10.08 0-4.03-1.9-7.18-4.92-8.95l7.8-2.14 5.06-9.19L13.23-61.1C5.8-59.09 2.64-54.05 2.64-47.88 17.9-28.09 22.42-20.02 23.2-14.73 20.92-11.34 13.49-9.08 0-9.08c-2.02 0-3.4 2.14-3.4 5.17C-3.4-1-2.15.88 0 .88c16 0 25.45-5.16 28.34-15.49C35.41-3.28 41.58.87 50.28.87h1.5c1.9 0 3.78-1.89 3.78-5.03 0-3.15-1.89-4.92-3.78-4.92h-1.12c-6.94 0-11.72-3.01-21.43-16.25l-19.4-26.7 14.1-4.03c-.62 1.5-1 3.14-1 4.9zm3.01 0c0-4.15 2.9-7.06 7.07-7.06 4.15 0 7.04 2.9 7.04 7.06s-2.89 7.07-7.04 7.07c-4.16 0-7.07-2.91-7.07-7.07zm0 0"/></symbol><symbol overflow="visible" id="33cdb2e3ab"><path d="M24.31-37.42l5.8-7.69c-2.4-1.12-6.3-3.9-8.44-6.42l-4.9 7.05a28.42 28.42 0 01-6.82-6.18l-5.8 7.7c2.02 2.77 5.8 5.29 8.44 6.41l4.3-6.3a26.83 26.83 0 007.42 5.43zM1.64 5.3c0 6.04 4.03 10.07 10.08 10.07s10.2-4.03 10.2-10.07c0-5.55-3.4-9.46-8.56-10.08a28.03 28.03 0 004.28-6.56h.13C21.67-3.16 27.97.87 38.44.87c1.87 0 3.76-1.89 3.76-5.03 0-3.15-1.89-4.92-3.76-4.92-10.72 0-17.02-5.65-19.8-18.39h-.12l-3.79 4.66.77 5.54c-3.9 6.05-9.08 8.2-15.5 8.2-2.27 0-3.78 1.76-3.78 4.91C-3.78-.75-2.14.88 0 .88c.88 0 1.77 0 2.52-.13a12.8 12.8 0 00-.88 4.55zm3.02 0c0-4.16 2.9-7.07 7.06-7.07 4.15 0 7.06 2.91 7.06 7.07 0 4.15-2.9 7.04-7.06 7.04S4.66 9.45 4.66 5.3zm0 0"/></symbol><symbol overflow="visible" id="33cdb2e3ac"><path d="M60.6-20.66l1-5.3-4.27 1.77c-1.77 9.32-4.9 13.99-9.2 13.99-3.15 0-5.41-3.66-5.79-8.83l.75-4.4-3.9 1.76c-3.66 10.08-6.94 12.6-11.22 12.6-4.4 0-7.69-3.4-9.06-8.32l1.25-3.78-3.66.89C12.34-12.34 7.19-9.08 0-9.08c-1.9 0-3.4 2.28-3.4 4.92C-3.4-1.02-1.65.88 0 .88 5.55.88 10.58-1.9 14.48-9.59 16-3.03 20.03.88 25.58.88c4.78 0 8.44-2.65 12.1-10.33.62 5.67 3.65 9.2 8.7 9.2 4.4 0 8.56-3.03 11.2-10.45C59.22-3.53 65.02.87 73.33.87c1.89 0 3.78-1.89 3.78-5.03 0-3.15-1.9-4.92-3.78-4.92-6.67 0-11.6-3.78-12.72-11.58zm0 0"/></symbol><symbol overflow="visible" id="33cdb2e3ad"><path d="M11.1-53.05l6.04-7.56c-2.4-1.37-6.3-4.16-8.33-6.8l-6.17 7.57c2.02 2.89 5.8 5.65 8.45 6.8zm2.13 4.78L6.05-39.8c5.17 10.83 7.8 21.42 8.06 28.34-2.52 1.4-7.81 2.4-14.11 2.4-2.14 0-3.4 2-3.4 5.04C-3.4-.37-1.9.87 0 .87c6.55 0 12.47-2.01 15.38-5.53 2.76-3.28 4.15-8.57 4.15-14.87 0-7.31-2.14-18.4-6.3-28.74zm0 0"/></symbol><symbol overflow="visible" id="33cdb2e3ae"><path d="M20.8 1.64l5.65-10.08c-3.64-1.01-6.8-2.9-8.43-5.42.76-4.28 3.03-8.56 7.18-13.1l-2.26-2.15C15.25-24.83 10.7-17.5 10.7-11.2c0 6.16 3.78 10.59 10.1 12.85zm0 0"/></symbol><symbol overflow="visible" id="33cdb2e3af"><path d="M37.92-21.92L32-12.86c2.27 3.53 4.8 9.7 5.17 13.11C33.9 8.06 23.44 16.89 5.3 21.92l1.76 2.52 16.13 2.01c12.84-6.8 18.89-18.89 18.89-28.34 0-3.9-.75-7.94-1.63-10.45 2.14.87 5.03 1.76 7.42 1.76 6.57 0 10.72-4.8 12.1-16.51l-3.52-3.27c-.25 7.3-3.4 10.83-8.58 10.83-4.03 0-7.42-1.77-9.95-2.4zm0 0"/></symbol><symbol overflow="visible" id="33cdb2e3ag"><path d="M17.27-44.98l5.8-7.7c-2.41-1.12-6.3-3.9-8.46-6.41l-4.9 7.06a28.79 28.79 0 01-6.82-6.19l-5.78 7.69c2.02 2.78 5.78 5.3 8.44 6.44l4.28-6.32a26.58 26.58 0 007.44 5.43zM-2.64-4.41c0 6.05 4.03 10.08 10.08 10.08 5.92 0 9.95-3.78 10.2-9.83C21.42-.75 26.33.88 32 .88c1.9 0 3.78-1.9 3.78-5.04 0-3.15-1.89-4.92-3.78-4.92-10.95 0-16.88-6.8-18.77-26.7l-.25-.25L9.2-33.4v4.92c0 5.66.75 10.58 2.14 14.49a12.87 12.87 0 00-3.9-.63c-6.05 0-10.08 4.16-10.08 10.2zm3.02 0c0-4.15 2.9-7.06 7.06-7.06 4.15 0 7.04 2.9 7.04 7.06S11.6 2.64 7.44 2.64C3.28 2.64.37-.25.37-4.4zm0 0"/></symbol><symbol overflow="visible" id="33cdb2e3ah"><path d="M17.64-41.7L11.1-30.87c2.77 3.65 5.16 10.46 6.18 17.76C12.72-10.45 7.69-9.08 0-9.08c-2.14 0-3.4 2.02-3.4 5.05C-3.4-.37-1.9.87 0 .87c7.69 0 14.48-2.51 18.14-7.67a27.41 27.41 0 005.05-15.25c0-6.8-1.9-14.23-5.55-19.65zm-.75 59.34l3.4-3.66c-2.52-1.51-5.8-4.78-7.57-7.04l-5.78 5.78a20.65 20.65 0 005.92 5.67l-3.4 3.66a22.39 22.39 0 007.8 6.3l5.68-5.8c-1.9-1-4.92-3.4-6.05-4.9zm0 0"/></symbol><symbol overflow="visible" id="33cdb2e3ai"><path d="M.63 21.92l1.76 2.52 16.13 2.01C29.73 20.53 36.4 10.85 38.44.88h7.3c1.88 0 3.78-1.9 3.78-5.04 0-3.15-1.9-4.92-3.79-4.92H39.2c-1.02-13.6-7.56-22.42-15.13-22.05-6.17.25-12.97 8.7-12.97 16.9C11.1-6.67 18.14.63 32.64.87 30.48 7.45 21.42 16.13.62 21.93zM15.37-14.6c.88-4.03 4.29-7.06 8.07-7.06 5.3 0 9.08 4.9 10.2 12.6h-5.3c-6.54 0-11.45-2.4-12.96-5.54zm0 0"/></symbol><symbol overflow="visible" id="33cdb2e3aj"><path d="M21.8-50.14l5.8-7.69c-2.4-1.14-6.3-3.9-8.44-6.44l-4.93 7.07a28.99 28.99 0 01-6.8-6.17L1.65-55.7c2.02 2.77 5.8 5.28 8.44 6.42l4.28-6.3a26.9 26.9 0 007.44 5.43zM4.16 5.3c0 6.04 4.03 10.07 10.07 10.07 6.05 0 10.2-4.03 10.2-10.07 0-5.3-3.13-9.2-8.05-10.08.64-.64 1.26-1.27 1.76-2.02a27.41 27.41 0 005.05-15.25c0-6.8-1.9-14.23-5.55-19.65L11.1-30.87c2.77 3.65 5.16 10.46 6.18 17.76C12.72-10.45 7.69-9.08 0-9.08c-2.14 0-3.4 2.02-3.4 5.05C-3.4-.37-1.9.87 0 .87 1.77.88 3.53.76 5.17.5a11.5 11.5 0 00-1.01 4.8zm3.03 0c0-4.16 2.89-7.07 7.04-7.07 4.16 0 7.07 2.91 7.07 7.07 0 4.15-2.9 7.04-7.07 7.04-4.15 0-7.04-2.89-7.04-7.04zm0 0"/></symbol><symbol overflow="visible" id="33cdb2e3ak"><path d="M11.97-33.64l-2.4 1.27c-1.88 1-3.77 7.04-3.77 13.34 0 13.86 7.18 21.3 28.1 21.3 16.24 0 31.62-3.54 37.66-7.7 3.28-2.26 6.05-7.68 6.05-11.59 0-6.67-5.92-18.89-21.92-35.01l36.3-10.1 5.03-9.3-37.93 10.32c-7.43 2.02-10.57 7.06-10.57 13.23 14.23 14.11 23.17 29.86 23.68 34.4-5.04 2.9-17.14 5.3-36.8 5.3-18.77 0-24.3-6.05-24.3-19.04 0-2.01.24-4.66.87-6.42zm0 0"/></symbol><symbol overflow="visible" id="33cdb2e3al"><path d="M18.52-27.47l-3.79 4.66.77 5.54c-3.9 6.05-9.08 8.2-15.5 8.2-2.27 0-3.78 1.76-3.78 4.91C-3.78-.75-2.14.88 0 .88c8.19 0 13.98-4.54 17.64-12.22h.13C21.67-3.16 27.97.87 38.44.87c1.87 0 3.76-1.89 3.76-5.03 0-3.15-1.89-4.92-3.76-4.92-10.72 0-17.02-5.65-19.8-18.39zM20.4 23.2l6.04-7.57c-2.39-1.39-6.3-4.15-8.3-6.8l-6.18 7.55c2.01 2.91 5.8 5.68 8.44 6.82zm0 0"/></symbol><symbol overflow="visible" id="33cdb2e3am"><path d="M17.14-42.97l-4.92 6.3C12.34-31.5 13.6-22.94 15-17.4c-3.53 5.67-7.69 8.31-15 8.31-2.02 0-3.4 1.77-3.4 4.92C-3.4-.75-1.9.88 0 .88c8.81 0 14.36-4.54 17.64-12.22h.25C21.17-3.91 26.97.87 37.42.87v-9.95c-9.7 0-16.76-5.65-19.9-33.76zm10.33 66.03l5.8-7.68c-2.4-1.15-6.3-3.91-8.44-6.43L19.9 16a28.68 28.68 0 01-6.8-6.17l-5.8 7.69c2.02 2.76 5.8 5.3 8.44 6.42l4.28-6.3a26.9 26.9 0 007.44 5.42zm0 0"/></symbol><symbol overflow="visible" id="33cdb2e3an"><path d="M16.77-56.7l6.04-7.57c-2.4-1.37-6.31-4.15-8.33-6.8L8.31-63.5c2.02 2.9 5.8 5.67 8.46 6.8zM29.1-15.62C23.3-11.22 12.86-9.09 0-9.09c-1.9 0-3.4 1.77-3.4 4.92C-3.4-1.02-1.9.88 0 .88c12.98 0 23.06-2.65 29.36-8.07 3.4-2.89 4.78-6.92 4.78-14.48 0-16.25-8.69-28.22-16.87-28.22-6.94 0-13.11 9.31-13.11 17 0 8.33 6.04 14.5 13.73 14.5 3.66 0 7.94-2.27 10.33-5.05.39 1.77.64 4.8.89 7.82zM8.44-33.02c1.26-4.28 4.28-7.43 8.19-7.43 4.17 0 9.07 4.17 10.21 11.1-1.26 1-5.04 2-8.06 2-4.67 0-8.45-1.88-10.34-5.67zm0 0"/></symbol><symbol overflow="visible" id="33cdb2e3ao"><path d="M5.78.45l1.56-2.8A4.1 4.1 0 015-3.84a7.3 7.3 0 012-3.63l-.63-.6c-2.14 1.19-3.4 3.22-3.4 4.97 0 1.7 1.06 2.94 2.81 3.56zm0 0"/></symbol><symbol overflow="visible" id="33cdb2e3ap"><path d="M4.27-2.42L3.6-2c-.73.45-1.52 2.17-1.52 4.2 0 4.38 2.49 6.94 7.36 6.94 5.14 0 8.3-1.83 9.8-4.9.4-.8.48-1.5.48-1.82 0-1.37-3.14-3.54-6.89-4.48-.42.51-.8 1.36-.93 2.23 2.76.6 5.17 1.97 6.36 3.27-1.3 1.67-4.1 2.8-8.11 2.8C6.19 6.23 3.7 4.26 3.7.8c0-1.44.2-2.36.57-3.23zm7.98 16.95l1.6-2.14a8.11 8.11 0 01-2.33-1.78l-1.36 1.95a7.61 7.61 0 01-1.9-1.72l-1.6 2.14c.54.77 1.6 1.47 2.34 1.79l1.19-1.75a7.6 7.6 0 002.06 1.51zm0 0"/></symbol><symbol overflow="visible" id="33cdb2e3aq"><path d="M10.3-19.92l1.1-3L-.47-17.3c-1.33.64-1.97 1.2-1.97 2.99 0 1.08.7 2.17 2.48 4.34 2 2.44 3.22 4.69 3.33 6.19C3.08-2.83 2-1.95.48-1.95c-.54 0-.73-.05-1.1-.11-.26.45-.36.56-.36 1.19C-.98-.2-.34.3.56.3c2.46 0 3.99-1.86 4.1-4.75C7.84-.45 9.34.25 11.94.25c.48 0 1.01-.53 1.01-1.4 0-.88-.5-1.37-1.01-1.37-1.47 0-2.94-.78-6.13-4.45l-6.8-7.87zM.17-18.72l1.69-2.1a8.61 8.61 0 01-2.31-1.9l-1.72 2.11c.56.8 1.6 1.56 2.34 1.9zm0 0"/></symbol><symbol overflow="visible" id="33cdb2e3ar"><path d="M6.19-12.84l1.4-1.97a8.26 8.26 0 01-2.06-1.75l-1.47 1.89c.32.5 1.3 1.37 2.13 1.83zM8.47-9.6l1.6-2.13a8.7 8.7 0 01-2.34-1.8l-1.36 1.97a7.1 7.1 0 01-2-1.6l-1.5 2.03a6.3 6.3 0 002.35 1.78L6.4-11.1c.56.59 1.43 1.21 2.06 1.5zM5.39-3.33c-1.01.5-2.94.81-5.39.81-.56 0-.94.57-.94 1.44C-.94-.1-.45.25 0 .25c2.52 0 4.8-.7 6.75-2.1 1.6 1.37 3.58 2.1 6.72 2.1.53 0 1.06-.53 1.06-1.4 0-.88-.53-1.37-1.06-1.37-3.17 0-4.55-.3-5.4-.7 1.35-1.36 1.87-2.65 1.87-3.47 0-.9-1.19-1.47-2.6-1.47-1.56 0-2.62.32-4.09.77l-.56 2c1.15.45 2.22 1.16 2.7 2.06zm0 0"/></symbol><symbol overflow="visible" id="33cdb2e3as"><path d="M5.14-7.63L4.1-6.33l.22 1.53A4.71 4.71 0 010-2.52c-.63 0-1.05.49-1.05 1.36C-1.05-.2-.59.25 0 .25c2.28 0 3.9-1.27 4.9-3.4h.04C6.02-.89 7.77.24 10.67.24c.53 0 1.05-.53 1.05-1.4 0-.88-.52-1.37-1.05-1.37-2.97 0-4.72-1.57-5.48-5.1zm2.53 14l1.61-2.14a8.11 8.11 0 01-2.34-1.78L5.56 4.41a7.58 7.58 0 01-1.89-1.72l-1.6 2.14A6.3 6.3 0 004.4 6.6l1.18-1.75c.57.6 1.44 1.23 2.08 1.51zm0 0"/></symbol><symbol overflow="visible" id="33cdb2e3at"><path d="M6.06-13.94l1.61-2.12a8.7 8.7 0 01-2.36-1.78L3.95-15.9a8.23 8.23 0 01-1.89-1.72l-1.6 2.14a6.3 6.3 0 002.34 1.78l1.18-1.75c.57.6 1.44 1.24 2.08 1.5zm-1.15 2.36l-1.83 3c.76 1.02 1.44 2.9 1.72 4.94A8.93 8.93 0 010-2.52c-.6 0-.94.57-.94 1.4 0 1.01.4 1.37.94 1.37 2.14 0 4.03-.7 5.05-2.14a7.68 7.68 0 001.39-4.24c0-1.89-.52-3.95-1.53-5.45zm0 0"/></symbol><symbol overflow="visible" id="33cdb2e3av"><path d="M16.14-9.9l1.61-2.15a8.11 8.11 0 01-2.34-1.78l-1.38 1.97a8.23 8.23 0 01-1.89-1.72l-1.6 2.14a6.3 6.3 0 002.34 1.78l1.18-1.75c.56.6 1.44 1.22 2.08 1.5zM4.1-9.53l-.62.46c-.5.34-1.02 1.92-1.02 3.7 0 3.92 2.13 5.99 9.13 5.99 5.92 0 10.72-1.75 13.69-4.41 0 2.97 1.46 4.03 4.03 4.03.51 0 1.04-.53 1.04-1.4 0-.88-.53-1.37-1.04-1.37-1.78 0-2.77-.73-3.08-2.17l1.22-1.78v-.05l-.85-.09c-3 2.77-7.4 4.33-13.43 4.33-6.7 0-9.24-1.47-9.24-5.53 0-.35.03-1.22.17-1.7zm0 0"/></symbol><symbol overflow="visible" id="33cdb2e3aw"><path d="M5.98-18.1l1.41-1.96a8.6 8.6 0 01-2.08-1.75l-1.47 1.89c.33.5 1.3 1.37 2.14 1.83zm2.29 3.26l1.6-2.13a8.47 8.47 0 01-2.34-1.8L6.16-16.8a7.03 7.03 0 01-1.99-1.6l-1.51 2.02A6.3 6.3 0 005-14.59l1.19-1.75c.56.59 1.43 1.21 2.08 1.5zm5.06 11.09l.53-2.58a26.21 26.21 0 01-5 2.3c-2.8-.94-5.25-2.83-5.92-5.28a8.37 8.37 0 014.62-1.72c1.22 0 1.86.28 2.88 1.06l.51-.47C9.48-12.78 8.5-13.69 7-13.69c-2.88 0-5.42 3.4-5.42 5.78 0 2.32 1.53 4.13 4.06 4.94-1.26.31-2.87.45-5.64.45-.53 0-.94.46-.94 1.33 0 .94.4 1.44.94 1.44 5.1 0 9.9-1.58 13.33-4zm0 0"/></symbol><symbol overflow="visible" id="33cdb2e3ax"><path d="M4.94-2.77l-.77 2.6C5.4.2 7.03.56 8.95.56c1.97 0 2.99-.62 3.61-1.64a7.96 7.96 0 001.02-3.04c0-.88-.56-2.32-1.44-3.86 1.44-2.32 2.17-5 2.17-8.47 0-2.1-.17-4.07-.34-5.25l-2.35 1.97c.29 1.15.49 3.1.49 5 0 2.09-.28 3.78-.9 5.28a36.9 36.9 0 00-9.29-8.33l-.87 2.9a9.1 9.1 0 012.42 2.8l.73-.94c2.17 1.44 4.3 3.5 5.85 5.57-1.13 1.5-2.77 2.97-5.11 4.68zm7.31-.06c-.48.46-1.47.63-2.69.63-1.15 0-2-.03-3.1-.22a22.83 22.83 0 004.43-3.81 9.23 9.23 0 011.36 3.4zm0 0"/></symbol><symbol overflow="visible" id="33cdb2e3ay"><path d="M6.06-14.34l-.64 3.1c5.4 4.63 6.1 6.16 6.27 8.02-.94.45-2.6.7-5.08.7-2.3 0-3.31-.56-3.31-1.8 0-.62.06-1.04.17-1.46l-.56.39c-.35.25-.82 1.22-.82 2.34C2.1-.88 3.81.25 6.27.25c2.8 0 4.76-.6 5.73-1.9a5.9 5.9 0 001.02-3.12c0-2.51-.97-4.43-6.96-9.57zm0 0"/></symbol><symbol overflow="visible" id="33cdb2e3az"><path d="M22.75-17.7l1.4-1.97a8.97 8.97 0 01-2.07-1.75l-1.47 1.89a7.6 7.6 0 002.14 1.83zm2.28 3.25l1.61-2.14a8.11 8.11 0 01-2.34-1.79l-1.38 1.96a6.77 6.77 0 01-1.98-1.61L19.42-16c.56.78 1.61 1.47 2.35 1.8l1.18-1.75c.57.6 1.44 1.22 2.08 1.5zM2.77-8.95l-.68.37c-.51.31-1.01 1.97-1.01 3.72 0 4.33 2.53 5.9 9.53 5.9 5.03 0 9.06-.79 12.08-2.4C24.5-.46 27.12.25 29.6.25c.53 0 1.05-.53 1.05-1.4 0-.88-.52-1.37-1.05-1.37-1.92 0-3.22-.28-4.13-.53 1.08-1.01 1.9-2.62 1.9-3.8 0-2.78-1.9-4.95-3.5-4.95-1.9 0-4.29 2.6-4.29 5.4 0 1.12.5 2.45 1.24 3.32-2.03.74-5.61 1.22-9.42 1.22-6.44 0-8.85-1.25-8.85-5.42 0-.17.03-.49.06-.8.04-.33.07-.64.15-.87zm20.51 5.14c-1.23-.53-2.34-1.72-2.48-3.13.48-1.18 1.95-2.37 2.62-2.37 1.11 0 2.38 1.47 2.72 2.84a7.66 7.66 0 01-2.86 2.66zm0 0"/></symbol><symbol overflow="visible" id="33cdb2e3aA"><path d="M3.08-4.77C2.3-2.97 1.33-2.52 0-2.52c-.48 0-.94.6-.94 1.4 0 .87.38 1.37.94 1.37 1.4 0 2.73-1.02 3.44-3.3C3.84-.9 5.25.25 7.56.25c.49 0 1.02-.53 1.02-1.4 0-.88-.5-1.37-1.02-1.37-1.72 0-2.6-.59-2.6-5.67 0-4.87-.1-10.33-.44-13.54l-2 1.95c.39 3.4.5 7.84.56 15.01zm0 0"/></symbol><symbol overflow="visible" id="33cdb2e3aB"><path d="M12.81-17.25l1.4-2.6-10.54 2.88C1.61-16.42.73-15.02.73-13.3 4.7-9.37 7.17-5 7.31-3.75 6.06-3.02 4.03-2.52 0-2.52c-.56 0-.94.43-.94 1.36 0 .91.38 1.41.94 1.41 2.42 0 5.45-.6 7.14-1.75a4.55 4.55 0 001.67-3.22c0-1.86-1.64-5.25-6.08-9.73zm0 0"/></symbol><symbol overflow="visible" id="33cdb2e3aC"><path d="M.25-8.6v1.94h17V-8.6zm0 0"/></symbol><symbol overflow="visible" id="33cdb2e3aD"><path d="M9.45-5.64L8.2-3.22C9.63-1.6 10.22-.17 10.33.91c-.9 2.17-3.81 4.62-8.86 6.03l.48.68 4.49.57c3.58-1.9 5.1-5.25 5.1-7.17 0-.57-.06-1.05-.23-1.47l.03-.03c.74.51 1.47.73 2.41.73.53 0 1.06-.53 1.06-1.4 0-.88-.53-1.37-1.06-1.37-1.47 0-2.44-.8-4.3-3.12zm0 0"/></symbol><symbol overflow="visible" id="33cdb2e3aE"><path d="M4.9-11.58l-1.82 3c.76 1.02 1.44 2.9 1.72 4.94A8.93 8.93 0 010-2.52c-.6 0-.94.57-.94 1.4 0 1.01.4 1.37.94 1.37 2.14 0 4.03-.7 5.05-2.14a7.68 7.68 0 001.39-4.24c0-1.89-.52-3.95-1.53-5.45zM4.45 6.44l1.68-2.1a8.92 8.92 0 01-2.3-1.89l-1.73 2.1c.57.8 1.61 1.58 2.35 1.89zm0 0"/></symbol><symbol overflow="visible" id="33cdb2e3aF"><path d="M10.36-7.73l1.69-2.1a8.92 8.92 0 01-2.32-1.89l-1.71 2.1c.56.8 1.6 1.57 2.34 1.89zm-5.73 3.3l-.65.37c-.68.42-1.53 2.65-1.53 5.1 0 3.93 2.03 6.38 6.36 6.38 3.72 0 6.24-1.5 7.36-3.25A7.12 7.12 0 0017.25.25c0-1.52-.14-2.84-.34-3.86l.03-.03c.53.42 1.37.7 2.17.7 1.75 0 2.97-1.33 3.36-4.6l-.99-.9c-.06 2.03-.93 3.02-2.37 3.02-1.4 0-2.48-.81-3.19-1.72l-1.64 2.28c.7 1.47 1.4 4.33 1.47 6.75C14.53 3.53 12 4.52 9.23 4.52c-3.64 0-5.17-1.75-5.17-5.25 0-1.36.17-2.83.57-3.7zm0 0"/></symbol><symbol overflow="visible" id="33cdb2e3aG"><path d="M4.8-12.5l1.6-2.13a8.18 8.18 0 01-2.34-1.8L2.7-14.44A8.16 8.16 0 01.8-16.17L-.8-14.03a6.34 6.34 0 002.36 1.78L2.73-14c.57.6 1.44 1.22 2.07 1.5zm-1.2 2.48l-1.04.74v1.37C2.56-2.28 5.2.25 8.9.25c.53 0 1.05-.53 1.05-1.4 0-.88-.52-1.37-1.05-1.37-3.05 0-4.69-1.89-5.22-7.42zm0 0"/></symbol><symbol overflow="visible" id="33cdb2e3aH"><path d="M4.9-10.16l1.68-2.09a9.19 9.19 0 01-2.31-1.9l-1.7 2.1c.54.82 1.6 1.58 2.34 1.9zm.24 2.54L4.1-6.33l.22 1.52A4.71 4.71 0 010-2.52c-.63 0-1.05.49-1.05 1.36C-1.05-.2-.59.25 0 .25c2.28 0 3.9-1.27 4.9-3.4h.04C6.02-.89 7.77.24 10.67.24c.53 0 1.05-.53 1.05-1.4 0-.88-.52-1.37-1.05-1.37-2.97 0-4.72-1.57-5.48-5.1zm0 0"/></symbol><symbol overflow="visible" id="33cdb2e3aI"><path d="M4.9-11.58l-1.82 3c.76 1.02 1.44 2.9 1.72 4.94A8.93 8.93 0 010-2.52c-.6 0-.94.57-.94 1.4 0 1.01.4 1.37.94 1.37 2.14 0 4.03-.7 5.05-2.14a7.68 7.68 0 001.39-4.24c0-1.89-.52-3.95-1.53-5.45zM3.17 6.37l1.6-2.14a8.11 8.11 0 01-2.34-1.78L1.05 4.41a7.58 7.58 0 01-1.9-1.72l-1.6 2.14A6.3 6.3 0 00-.11 6.6l1.19-1.75c.56.6 1.44 1.23 2.08 1.51zm0 0"/></symbol><symbol overflow="visible" id="33cdb2e3aJ"><path d="M4.8-20.13v-1.01l-.03-.03-2.32 1.98c0 3.1.17 5.4.42 8.35.24 3 .52 6.43.52 11.4h.7c.4-.62.74-1.44.91-2.03.19-.62.25-1.3.25-3.16 0-1.92-.14-4.4-.25-7.03-.1-2.8-.2-5.73-.2-8.46zm0 0"/></symbol><symbol overflow="visible" id="33cdb2e3aK"><path d="M9.83-10.1l1.69-2.12A8.61 8.61 0 019.2-14.1L7.48-12c.57.8 1.61 1.56 2.35 1.9zm-5.2 5.66l-.65.38c-.68.42-1.53 2.65-1.53 5.08 0 3.95 1.99 6.4 6.36 6.4 3.72 0 6.24-1.5 7.36-3.25.88-1.4 1.19-2.84 1.19-4.9 0-2.24-.6-4.58-1.55-6.47l-1.75 2.68a15.4 15.4 0 011.69 6.41C14.53 3.53 12 4.52 9.23 4.52c-3.67 0-5.17-1.75-5.17-5.25 0-1.36.17-2.83.57-3.7zm0 0"/></symbol><symbol overflow="visible" id="33cdb2e3aL"><path d="M.17 6.1l.5.7 4.47.54A11.48 11.48 0 0011.2-2.69c0-3.5-1.97-6.4-4.17-6.4-1.95 0-3.67 2.57-3.67 4.71A3.9 3.9 0 007.2-.33c1.02 0 1.94-.53 2.46-1.02C8.92 1.36 5.56 4.58.17 6.1zM4.55-4.4c.36-1.2 1.18-2.07 2.28-2.07 1.15 0 2.51 1.16 2.83 3.08-.35.28-1.4.56-2.24.56-1.3 0-2.34-.53-2.87-1.58zm0 0"/></symbol><symbol overflow="visible" id="33cdb2e3aM"><path d="M15.16-21.73l-2.07 1.95c.52 3.16.77 8.1.77 12.72-1.33 2.89-5.67 5.28-12 5.62l-.36.7L7.31.77c2.99-1.1 5.67-3.35 6.72-5.73C14.4-1.33 15.9.25 18.52.25c.53 0 1.04-.53 1.04-1.4 0-.88-.51-1.37-1.04-1.37-2.07 0-2.83-1.71-2.83-6.2 0-4.8-.14-9.55-.53-13.01zm-12.82 3.6l-.84 2.77c1.02.77 2.03 2.13 2.56 3.11l.49-1.08c2.8 1.4 5.67 4.61 6.83 7.8l.73-.6c-.84-4.54-4.48-9.06-9.77-12zm0 0"/></symbol><symbol overflow="visible" id="33cdb2e3aN"><path d="M10.53-6.1L8.9-3.55A10.9 10.9 0 0110.33.06C9.43 2.23 6.52 4.7 1.47 6.1l.48.7 4.49.55c3.58-1.89 5.25-5.25 5.25-7.87 0-1.08-.2-2.2-.46-2.9.6.24 1.41.5 2.07.5 1.82 0 2.98-1.34 3.36-4.6l-.97-.9c-.08 2.02-.96 3-2.4 3-1.1 0-2.06-.5-2.76-.66zm0 0"/></symbol><symbol overflow="visible" id="33cdb2e3aO"><path d="M3.6-10.02l-1.04.74v1.37C2.56-2.28 5.2.25 8.9.25c.53 0 1.05-.53 1.05-1.4 0-.88-.52-1.37-1.05-1.37-3.05 0-4.69-1.89-5.22-7.42zM5.93 6.41l1.61-2.14A8.11 8.11 0 015.2 2.48L3.8 4.44a7.83 7.83 0 01-1.89-1.7L.32 4.85c.55.78 1.6 1.47 2.34 1.8L3.84 4.9c.57.59 1.44 1.21 2.08 1.5zm0 0"/></symbol><symbol overflow="visible" id="33cdb2e3aP"><path d="M0 .25h3.81c.53 0 1.05-.53 1.05-1.4 0-.88-.52-1.37-1.05-1.37H0c-.53 0-1.05.49-1.05 1.36C-1.05-.28-.53.25 0 .25zm0 0"/></symbol><symbol overflow="visible" id="33cdb2e3aQ"><path d="M4.9-11.58l-1.82 3c.76 1.02 1.44 2.9 1.72 4.94A8.93 8.93 0 010-2.52c-.6 0-.94.57-.94 1.4 0 1.01.4 1.37.94 1.37 2.14 0 4.03-.7 5.05-2.14a7.68 7.68 0 001.39-4.24c0-1.89-.52-3.95-1.53-5.45zM1.65 6.61l1.69-2.1a8.92 8.92 0 01-2.31-1.88L-.7 4.71C-.14 5.53.9 6.3 1.64 6.6zm0 0"/></symbol><symbol overflow="visible" id="33cdb2e3aR"><path d="M26.64-11.13l1.61-2.14a8.11 8.11 0 01-2.34-1.78l-1.38 1.96a7.58 7.58 0 01-1.89-1.72l-1.6 2.14a6.3 6.3 0 002.34 1.78l1.18-1.75c.57.6 1.44 1.23 2.08 1.52zM1.61-5.3l-.4.68 1.27 1.38c2.6 2.8 7.77 4.55 18.63 4.55 12.28 0 20.75-1.83 25.06-4.24.35 2.06 1.75 3.19 3.95 3.19v-2.77c-1.32 0-2.34-.45-2.84-1.23a9.67 9.67 0 001.38-1.56l-.53-.57C43.3-3.38 35.55-1.6 22.21-1.6 12.14-1.6 5.36-3.1 1.6-5.3zm0 0"/></symbol><symbol overflow="visible" id="33cdb2e3aS"><path d="M3.6-4.34l-.66.42C2.24-3.44 1.4-1.9 1.4.14c0 4.2 2.34 7 6.86 7 4.86 0 9.06-2.42 10.73-5.98.5-1.02.6-1.72.6-2.35 0-.98-.55-1.5-3.68-2.25-3.22-.76-3.64-.9-4.1-1.08v-.03c1.3-2.73 3.34-4.03 5-4.03.85 0 1.55.25 2.12.53l1.3-2.6c-.65-.33-1.61-.7-2.46-.7-3.95 0-7.25 5.12-7.25 7.79 0 1.22.7 1.84 3.53 2.51 3.05.7 3.72.9 4.14 1.11v.05c-1.57 2.4-5.01 4.12-9.42 4.12-3.73 0-5.76-1.75-5.76-5.36 0-1.43.2-2.34.59-3.21zm7.8 16.87l1.62-2.14a8.33 8.33 0 01-2.35-1.78l-1.36 1.95a7.83 7.83 0 01-1.89-1.7l-1.6 2.12c.55.79 1.6 1.47 2.34 1.8l1.18-1.75c.57.6 1.44 1.22 2.07 1.5zm0 0"/></symbol><symbol overflow="visible" id="33cdb2e3aT"><path d="M7.84-9L6.38-5.98c1.78 1.6 2.93 3.42 3.28 4.93C8.8 1.61 5.22 4.7.17 6.1l.5.7 4.47.55c3.58-1.89 5.9-5.76 5.9-8.98 0-2.49-1-4.83-3.2-7.36zm0 0"/></symbol><symbol overflow="visible" id="33cdb2e3aU"><path d="M4.13-21.14h-.04l-2 1.95c.4 3.4.54 7.25.54 11.2 0 4.88.34 5.76 1.07 6.77C4.27-.45 5.56.25 7.6.25c.53 0 1.04-.53 1.04-1.4 0-.88-.52-1.37-1.05-1.37-2.03 0-3.04-.59-3.04-5.67 0-4.87-.11-9.73-.42-12.95zm0 0"/></symbol><symbol overflow="visible" id="33cdb2e3aV"><path d="M4.23-13.72l1.7-2.1A8.92 8.92 0 013.6-17.7l-1.72 2.1c.56.79 1.61 1.57 2.34 1.88zm.68 2.14l-1.83 3c.76 1.02 1.44 2.9 1.72 4.94A8.93 8.93 0 010-2.52c-.6 0-.94.57-.94 1.4 0 1.01.4 1.37.94 1.37 2.14 0 4.03-.7 5.05-2.14a7.68 7.68 0 001.39-4.24c0-1.89-.52-3.95-1.53-5.45zm0 0"/></symbol><symbol overflow="visible" id="33cdb2e3aW"><path d="M4.17-2.23C5.42-.53 6.94.7 8.61.7c2.14 0 3.81-2.51 3.81-4.68 0-2.46-2.4-5.22-4.58-5.22-1.37 0-2.3.87-3.71 3.42C2.73-3.25 1.5-2.52 0-2.52c-.53 0-.94.52-.94 1.4 0 .84.49 1.37.94 1.37 1.64 0 3.05-.78 4.17-2.48zM5.2-4.34c.62-1.25 1.5-2.24 2.48-2.24 1.19 0 2.83 1.3 3.64 3.28a2.65 2.65 0 01-2.39 1.38c-1.3 0-2.51-.74-3.73-2.42zm0 0"/></symbol><symbol overflow="visible" id="33cdb2e3aX"><path d="M1.6.81l-.38.69 1.26 1.38c2.6 2.8 7.77 4.54 17.25 4.54 16.6 0 23.85-2.7 25.52-6.26.45-.96.6-1.72.6-2.35 0-.98-.46-1.44-3.68-2.25-3.22-.8-3.64-.9-4.1-1.1 1.3-2.74 3.34-4.04 5-4.04.85 0 1.55.25 2.12.53l1.3-2.6c-.65-.33-1.62-.7-2.46-.7-3.95 0-7.25 5.12-7.25 7.79 0 1.22.7 1.84 3.53 2.51 3.05.7 3.72.9 4.14 1.16-2.34 2.1-10.39 4.4-23.3 4.4-9 0-15.8-1.5-19.54-3.7zm23.38 12.14l1.61-2.14a8.33 8.33 0 01-2.34-1.78l-1.36 1.95A7.83 7.83 0 0121 9.28l-1.6 2.13c.55.78 1.6 1.46 2.33 1.78l1.2-1.75c.55.6 1.43 1.23 2.05 1.51zm0 0"/></symbol><symbol overflow="visible" id="33cdb2e3aY"><path d="M6.02-12.45c-2.27 2.12-3.93 5.98-4.07 9.72-.48.1-1.25.21-1.95.21-.53 0-.94.57-.94 1.44 0 .83.38 1.33.94 1.33.73 0 1.5-.22 2.1-.36.46 3.33 2.84 6.63 7.1 8.47l2.03-2.3c-1.32-.5-1.86-1.48-1.89-2.84 0-.66.11-1.3.29-1.75C10.38.7 11.65.25 13.86.25c.53 0 1.05-.53 1.05-1.4 0-.88-.52-1.37-1.05-1.37-3.3 0-5.7 2.49-6.05 7C5.84 3.7 4.17 1.33 3.9-.62c3.56-1.3 5.98-3.96 5.98-6.55 0-2.06-1.01-3.64-3.85-5.28zm2.8 6.32A7.4 7.4 0 013.74-2.9c0-2.3.88-5.3 1.81-6.65 1.64.81 2.94 2.28 3.25 3.44zm0 0"/></symbol><symbol overflow="visible" id="33cdb2e3aZ"><path d="M0 .25c2.38 0 4.4-.42 8.27-2.4 3.7-1.83 5.06-2.05 7.8-2.05l.9-2.6c-2.52 0-3.45-.26-6.61-2.1-2.66-1.57-3.7-2.02-4.63-2.02-.96 0-1.98.42-3.1 1.44-1.05.9-1.36 1.5-1.36 2.03 0 .17.06.42.17.6 1.15-.63 2.6-1.23 3.75-1.45 1.7.46 4.54 1.61 6.39 2.7v.04C8.58-3.64 4.38-2.52 0-2.52c-.6 0-.94.57-.94 1.4 0 .98.46 1.37.94 1.37zm11.23 5.28l1.61-2.14a8.33 8.33 0 01-2.34-1.78L9.14 3.56a7.55 7.55 0 01-1.89-1.7l-1.6 2.12a5.77 5.77 0 002.2 1.83l1.32-1.78c.56.6 1.44 1.22 2.06 1.5zm-1.18 3.11l1.36-1.89a7.08 7.08 0 01-2.1-1.44L7.98 7.17c.49.67 1.3 1.19 2.07 1.47zm0 0"/></symbol><symbol overflow="visible" id="33cdb2e3ba"><path d="M.17 6.1l.5.7 4.47.54A10.42 10.42 0 0010.67.25h2.03c.53 0 1.05-.53 1.05-1.4 0-.88-.52-1.37-1.05-1.37h-1.8c-.3-3.78-2.12-6.23-4.21-6.12-1.72.06-3.61 2.4-3.61 4.69 0 2.1 1.97 4.12 5.98 4.2-.6 1.81-3.1 4.23-8.89 5.84zm4.1-10.16c.25-1.13 1.18-1.96 2.25-1.96 1.46 0 2.51 1.36 2.82 3.5H7.88c-1.82 0-3.2-.67-3.61-1.54zm0 0"/></symbol><symbol overflow="visible" id="33cdb2e3bb"><path d="M-.94-1.13c0 .99.46 1.38.94 1.38h1.3c10.14 0 27.86-1.23 31.28-2.6.19-.07.36-.13.5-.21.6 1.8 2.34 2.81 4.65 2.81.6 0 1.08-.5 1.08-1.3 0-.98-.48-1.47-1.08-1.47-2.03 0-2.8-.28-3.43-1.04.28-.5.39-1.1.39-1.86 0-2.6-2.8-4.24-7.56-4.24-5.6 0-9.94.97-17.47.97-2.86 0-5-.12-6.41-.54 2.03-2.74 5.81-5.2 10.02-6.18l.59-2.8c-5.31 1.16-9.1 3.68-11.13 6.41C1.9-10.67 1.55-9.77 1.55-9c0 .67.68 1.8 1.32 2.06 1.16.53 3.85.88 8.33.88 5.74 0 11.3-.97 16.38-.97 3.22 0 5.05.73 5.6 2.2C29.17-3.67 12.7-2.52 1.3-2.52H0c-.45 0-.94.29-.94 1.4zm0 0"/></symbol><symbol overflow="visible" id="33cdb2e3bc"><path d="M2.03-.7a31.96 31.96 0 018.19-3.4l1.01-2.45-.03-.03a12.6 12.6 0 01-4.34 1.02c-1.61 0-2.74-.57-3.33-1.44A2.34 2.34 0 015.7-8.72c.77 0 1.5.28 2.17.81l1.33-2a4.3 4.3 0 00-2.73-1.01c-2.49 0-4.19 2.62-4.19 5.04 0 .88.77 1.7 2.13 1.96-1.9.87-2.49 1.89-2.49 2.6 0 .34.11.62.11.62zm0 0"/></symbol><symbol overflow="visible" id="33cdb2e3bd"><path d="M15.08-10.16l-1.25 2.68a8.54 8.54 0 011.92 4.68 4.87 4.87 0 01-4.66-3.22l.32-1.32-1.11.45C9.1-3.75 8.27-2.77 7.4-2.77c-.88 0-1.8-.93-2.18-2.65l.28-1.19-1.06.45C3.3-3.67 1.86-2.52 0-2.52c-.48 0-.98.57-.98 1.4 0 .98.45 1.37.98 1.37 1.3 0 2.38-.7 3.7-3.16C4.37-.94 5.5 0 6.72 0c1.3 0 2.2-.77 3.22-3.36 1.1 2.14 2.9 3.33 4.4 3.33.82 0 1.47-.5 2.22-1.97.55-1.1.66-2.27.66-3.05 0-1.6-.99-3.87-2.14-5.1zm0 0"/></symbol><symbol overflow="visible" id="33cdb2e3be"><path d="M4.38-19.7l1.4-1.97a8.6 8.6 0 01-2.08-1.75l-1.47 1.89c.33.5 1.3 1.37 2.15 1.83zm2.28 3.25l1.6-2.13a8.47 8.47 0 01-2.34-1.8L4.55-18.4A7.03 7.03 0 012.56-20l-1.51 2.03a6.3 6.3 0 002.34 1.78l1.19-1.75c.56.6 1.44 1.22 2.08 1.5zm1.42 12.1C6.47-3.1 3.56-2.51 0-2.51c-.53 0-.94.49-.94 1.36 0 .88.4 1.41.94 1.41C3.6.25 6.4-.48 8.16-2c.93-.8 1.32-1.92 1.32-4.02 0-4.51-2.42-7.84-4.68-7.84-1.92 0-3.64 2.6-3.64 4.72 0 2.31 1.67 4.03 3.8 4.03 1.02 0 2.21-.62 2.88-1.4.1.5.18 1.32.24 2.17zM2.34-9.16c.35-1.19 1.2-2.06 2.29-2.06 1.15 0 2.51 1.15 2.82 3.07-.34.29-1.39.57-2.23.57-1.3 0-2.34-.54-2.88-1.58zm0 0"/></symbol><symbol overflow="visible" id="33cdb2e3bf"><path d="M36.81-5.25l1.69-2.1a8.92 8.92 0 01-2.31-1.88l-1.72 2.09c.56.81 1.6 1.58 2.34 1.89zM1.61.94l-.4.7 1.27 1.38c2.6 2.8 9.38 5.59 23.7 5.59 10.54 0 15.85-2.48 17.46-4.83.84-1.26 1.02-2.45.98-4.6A3.17 3.17 0 0047.09.26c.65 0 1.15-.31 1.15-1.38 0-1.04-.5-1.39-1.15-1.39-1.24 0-2.25-.59-3.86-3.92l-1.64 2.27c.67 1.44 1.3 3.86 1.4 5.92-2.3 2.2-7.53 3.95-16.7 3.95C15.12 5.7 6.41 3.78 1.61.94zm0 0"/></symbol><symbol overflow="visible" id="33cdb2e3bg"><path d="M9.48-14.31l-1.5 1.81.83 2.14C5.64-9.03 3.78-7.7 3.3-7a4.34 4.34 0 00-.85 2.31c0 1.4 1.96 3.14 3.92 3.14.91 0 1.79-.23 2.77-1.25l.9-.9C10.79-.77 12.26.25 15.2.25c.53 0 1.04-.53 1.04-1.4 0-.88-.51-1.37-1.04-1.37-2.24 0-2.97-.73-3.61-4.14-.77-4.15-1.28-5.9-2.1-7.65zm-.25 5.7c.36 1.3.5 2.69.68 4.03a4.5 4.5 0 01-2.43.69c-1.8 0-2.96-.88-3.5-2.17.82-.74 2.63-1.61 5.25-2.55zm0 0"/></symbol><symbol overflow="visible" id="33cdb2e3bh"><path d="M6.33-16l1.6-2.13a8.4 8.4 0 01-2.34-1.8l-1.36 1.98a8.23 8.23 0 01-1.89-1.72l-1.6 2.14a6.3 6.3 0 002.34 1.78l1.19-1.75c.56.6 1.43 1.22 2.06 1.5zM8.08-4.34C6.47-3.11 3.56-2.52 0-2.52c-.53 0-.94.49-.94 1.36 0 .88.4 1.41.94 1.41C3.6.25 6.4-.48 8.16-2c.93-.8 1.32-1.92 1.32-4.02 0-4.51-2.42-7.84-4.68-7.84-1.92 0-3.64 2.6-3.64 4.72 0 2.31 1.67 4.03 3.8 4.03 1.02 0 2.21-.62 2.88-1.4.1.5.18 1.32.24 2.17zM2.34-9.17c.35-1.19 1.2-2.06 2.29-2.06 1.15 0 2.51 1.15 2.82 3.07-.34.29-1.39.57-2.23.57-1.3 0-2.34-.54-2.88-1.58zm0 0"/></symbol><symbol overflow="visible" id="33cdb2e3bi"><path d="M3.67-6.23l-.56.39c-.42.28-.83 1.15-.83 2.45C2.28-1.22 3.81.25 6.06.25c1.82 0 3-.36 4.02-1.06l.98-2.49C12.05-.8 13.55.25 16.83.25c.53 0 1.06-.53 1.06-1.4 0-.88-.53-1.37-1.06-1.37-2.55 0-3.53-.7-4.16-2.8a59.75 59.75 0 01-1.54-9.24L8.95-12.7a74.2 74.2 0 001.75 8.6c-.9 1-2.3 1.58-4.26 1.58S3.5-3.39 3.5-4.72c0-.64.03-1.06.17-1.51zm0 0"/></symbol><symbol overflow="visible" id="33cdb2e3bj"><path d="M2.97-1.72c0 1.24.6 1.9 1.94 1.9 1.25 0 1.89-.71 1.89-1.9 0-1.22-.7-1.92-1.9-1.92-1.23 0-1.93.62-1.93 1.92zm0 0"/></symbol><symbol overflow="visible" id="33cdb2e3bk"><path d="M-.94-1.13c0 .99.46 1.38.94 1.38h1.3c10.14 0 27.86-1.23 31.28-2.6 1.69-.67 2.1-1.46 2.1-3.07 0-2.6-2.79-4.24-7.55-4.24-5.6 0-9.94.97-17.47.97-2.86 0-5-.12-6.41-.54 2.03-2.74 5.81-5.2 10.02-6.18l.59-2.8c-5.31 1.16-9.1 3.68-11.13 6.41C1.9-10.67 1.55-9.77 1.55-9c0 .67.68 1.8 1.32 2.06 1.16.53 3.85.88 8.33.88 5.74 0 11.3-.97 16.38-.97 3.22 0 5.05.73 5.6 2.2C29.17-3.67 12.7-2.52 1.3-2.52H0c-.45 0-.94.29-.94 1.4zm0 0"/></symbol><symbol overflow="visible" id="33cdb2e3bl"><path d="M36.81-6.3l1.69-2.1a8.61 8.61 0 01-2.31-1.9l-1.72 2.11c.56.8 1.6 1.58 2.34 1.9zM1.61-.25l-.4.7 1.27 1.36c2.57 2.77 9.32 5.61 23.14 5.61 12.68 0 18.13-1.92 19.54-4.2.51-.85.82-2.6.82-4.52 0-2.23-.62-4.58-1.53-6.3L42.7-4.9c.9 1.82 1.47 3.88 1.67 6.54C42 3.22 36.16 4.52 26.32 4.52c-10.81 0-19.9-1.9-24.7-4.77zm0 0"/></symbol><symbol overflow="visible" id="33cdb2e3bm"><path d="M10.33-12.1L12-14.2a9.19 9.19 0 01-2.31-1.9L7.99-14c.56.81 1.6 1.58 2.34 1.9zM4.48-5.85l-.67.56C2.83-3.16 1.78-2.52 0-2.52c-.48 0-.94.66-.94 1.36 0 .82.46 1.41.94 1.41 1.86 0 3.1-1.1 3.92-2.94C5.45-.56 7.67.25 10.22.25c3.25 0 7.31-1.16 8.58-2.73 1.01-1.3 1.72-2.7 1.72-3.5 0-2.7-1.94-4.97-4.07-4.97-3.26 0-7.39 3.92-9.76 7.8a7.37 7.37 0 01-2.2-2.7zM18.8-4.27c-1.75 1.08-4.86 1.75-8.58 1.75-.88 0-1.78-.1-2.28-.21 2.22-2.77 5.53-5.46 7.6-5.46 1.68 0 2.94 1.47 3.26 3.92zm0 0"/></symbol><symbol overflow="visible" id="33cdb2e3bn"><path d="M1.3-6.55a13.7 13.7 0 013.56-1.8c1.89.16 4.23.87 6.23 1.91v.03C7.11-3.56 4.38-2.5 0-2.5c-.6 0-1.05.51-1.05 1.38C-1.05-.24-.53.25 0 .25 3.05.2 5.14-.39 7.84-2.23c2.41-1.7 3.4-2.4 4.16-2.74l.05.03c-.11.42-.2.85-.2 1.27 0 2.34 2.4 3.92 6.18 3.92.52 0 1.05-.53 1.05-1.4 0-.88-.53-1.37-1.05-1.37-2.6 0-5.05-.45-5.05-2.39 0-.09 0-.28.04-.34.64-.28 1.32-.42 3.12-.42l.88-2.46c-3.55 0-4.97-.28-7.46-1.43-2.22-1.05-3.44-1.47-4.42-1.47-.76 0-2.03.56-2.97 1.69-.73.87-1.1 1.64-1.1 2.14 0 .2.09.48.23.65zm0 0"/></symbol><symbol overflow="visible" id="33cdb2e3bo"><path d="M8.64-12.5l1.4-1.95a8.97 8.97 0 01-2.06-1.75l-1.46 1.89c.3.48 1.3 1.36 2.12 1.81zm2.28 3.27l1.61-2.14a8.11 8.11 0 01-2.34-1.79L8.8-11.2a7.26 7.26 0 01-1.98-1.61L5.3-10.78A6.34 6.34 0 007.67-9l1.19-1.75a7.6 7.6 0 002.06 1.52zM5.88-7.4l-.57 2c1.16.45 2.22 1.16 2.63 1.78C4.9-2 2.28 1.58 2.28 5.08c0 4.37 2.77 7.14 7.55 7.14 3.64 0 6.83-2.2 7-3.27l.1-.6c-2.05.74-3.46.96-5.41.96-4.94 0-7.35-2.45-7.35-5.47 0-2.82 1.99-4.96 4.9-6.21C11.08-.49 12.7.25 16.08.25c.54 0 1.07-.53 1.07-1.4 0-.88-.54-1.37-1.07-1.37-2.8 0-4.54-.28-5.39-.7 1.38-1.36 1.86-2.65 1.86-3.67 0-.7-1.19-1.19-2.6-1.19-1.55 0-2.62.24-4.09.69zm0 0"/></symbol><symbol overflow="visible" id="33cdb2e3bp"><path d="M4.9-11.58l-1.82 3c.76 1.02 1.44 2.9 1.72 4.94A8.93 8.93 0 010-2.52c-.6 0-.94.57-.94 1.4 0 1.01.4 1.37.94 1.37 2.14 0 4.03-.7 5.05-2.14a7.68 7.68 0 001.39-4.24c0-1.89-.52-3.95-1.53-5.45zM6.13 6.37l1.61-2.14A8.11 8.11 0 015.4 2.45L4.03 4.41a7.32 7.32 0 01-1.89-1.72L.54 4.83c.54.76 1.6 1.47 2.33 1.78l1.2-1.75a7.6 7.6 0 002.05 1.51zm0 0"/></symbol><symbol overflow="visible" id="33cdb2e3bq"><path d="M5.45-12.4l-.62 1.9C2.45-8.75 1.22-6.27 1.22-4.12 1.22-1.58 2.94.25 5.56.25c2.9 0 5.05-2.2 5.05-5.25 0-2.84-2.53-6.23-5.16-7.4zm0 3.4A8.11 8.11 0 019.1-4.03c-.68.95-1.95 1.51-3.5 1.51-1.36 0-2.57-.73-2.57-2.25 0-1.5.65-2.86 2.43-4.23zm0 0"/></symbol><symbol overflow="visible" id="33cdb2e3br"><path d="M3.95-21.73l-2.14 1.75c0 .39.05.76.22 1.21.11 1.75.31 4.7.66 7.88.28 2.7.5 5.64.5 7.78A7 7 0 010-2.5c-.56 0-.94.56-.94 1.35 0 .85.4 1.41.94 1.41 1.9 0 3.25-.53 4.06-1.75.77-1.19.94-2.88.94-4.23 0-1.3-.2-3.2-.31-5.16-.11-1.92-.2-3.98-.25-5.67l1.83-1.14c-.99-.78-2-2.7-2.32-4.03zm0 0"/></symbol><symbol overflow="visible" id="33cdb2e3bs"><path d="M45.22-10.22l1.6-2.14a8.33 8.33 0 01-2.34-1.78l-1.35 1.95a7.55 7.55 0 01-1.9-1.7l-1.6 2.12c.56.79 1.6 1.47 2.34 1.8l1.19-1.75c.56.6 1.43 1.22 2.06 1.5zM1.6-.25l-.4.7 1.27 1.4C5 4.63 11.8 7.43 25.62 7.43c14.66 0 20.2-1.92 21.63-3.81.56-.78.9-1.75.9-3.36h1.05c.61 0 1.07-.7 1.07-1.4s-.46-1.37-1.07-1.37h-1.04C48.06-7 45.6-9 43.78-9c-1.98 0-3.7 2.6-3.7 4.73 0 2.58 2.06 4.52 6.64 4.52.05.38.08 1.02.08 1.53-2.03 1.38-8.2 2.74-20.49 2.74-10.81 0-19.9-1.9-24.7-4.77zm39.66-4.06c.34-1.19 1.18-2.07 2.28-2.07 1.14 0 2.8 1.27 3.08 3.86-3.41 0-4.83-.73-5.36-1.8zm0 0"/></symbol><symbol overflow="visible" id="33cdb2e3bt"><path d="M3.36-1.16c1.33 2.43 3.1 3.64 4.86 3.64 1.65 0 2.73-1.18 3.75-3.64.84.88 1.78 1.41 3.08 1.41.53 0 1.04-.53 1.04-1.4 0-.88-.51-1.37-1.04-1.37-1.3 0-2.18-.45-3.78-2.28-1.64-1.89-2.49-2.34-3.68-2.34-1.12 0-2.34.62-3.75 2.23C2.17-2.97 1.54-2.5 0-2.5c-.56 0-.94.42-.94 1.35 0 .91.38 1.41.94 1.41a4.5 4.5 0 003.36-1.4zM4.69-2.8c.62-1.01 1.58-1.72 2.6-1.72 1.21 0 2.44.77 3.74 2.57-.56 1.1-1.26 1.8-2.31 1.8-1.4 0-2.74-.72-4.03-2.65zm0 0"/></symbol><symbol overflow="visible" id="33cdb2e3bu"><path d="M5.88-19.6l1.68-2.1a8.61 8.61 0 01-2.31-1.9l-1.72 2.12c.56.8 1.61 1.56 2.35 1.89zm7.3.41l1.13-3-12.39 5.67C.45-15.86 0-14.82 0-13.23c0 1.26.53 2.73 1.9 4.42l.66-1.13a16.2 16.2 0 014.92 5.6C6.02-3.11 4.31-2.52 0-2.52c-.56 0-.94.43-.94 1.36 0 .91.38 1.41.94 1.41 4.17 0 6.06-.84 7.34-2.14a5.58 5.58 0 001.44-3.47c0-1.98-2.69-5.48-7.31-8.7zm0 0"/></symbol><symbol overflow="visible" id="33cdb2e3bv"><path d="M9.88-7.73l1.67-2.1a9.19 9.19 0 01-2.32-1.89l-1.7 2.1c.55.8 1.61 1.57 2.34 1.89zm-5.26 3.3l-.64.37c-.68.45-1.53 2.65-1.53 5.1 0 3.93 2.03 6.38 6.36 6.38 3.72 0 6.24-1.5 7.36-3.25.88-1.4 1.19-2.84 1.16-4.94l.03-.04A3.04 3.04 0 0019.78.25c.52 0 1.05-.45 1.05-1.33 0-.87-.53-1.44-1.05-1.44-1.34 0-2.76-1.4-3.86-3.92l-1.64 2.27c.7 1.34 1.27 3.36 1.47 6.06C14.53 3.53 12 4.52 9.23 4.52c-3.64 0-5.17-1.75-5.17-5.25 0-1.36.17-2.83.57-3.7zm0 0"/></symbol><symbol overflow="visible" id="33cdb2e3bw"><path d="M4.9-11.58l-1.82 3c.76 1.02 1.44 2.9 1.72 4.94A8.93 8.93 0 010-2.52c-.6 0-.94.57-.94 1.4 0 1.01.4 1.37.94 1.37 2.14 0 4.03-.7 5.05-2.14a7.68 7.68 0 001.39-4.24c0-1.89-.52-3.95-1.53-5.45zM6.59 6.37l1.6-2.14a8.33 8.33 0 01-2.34-1.78L4.48 4.41A7.32 7.32 0 012.6 2.69L1 4.83a6.2 6.2 0 002.2 1.83l1.33-1.8a7.6 7.6 0 002.06 1.51zM5.39 9.48L6.75 7.6a7.38 7.38 0 01-2.1-1.43L3.34 8.02c.48.67 1.3 1.18 2.06 1.46zm0 0"/></symbol><symbol overflow="visible" id="33cdb2e3bx"><path d="M12.81-17.3l1.4-2.54-10.54 2.87C1.61-16.42.73-15.02.73-13.3c4.24 5.49 5.5 7.74 5.7 9.2-.62.94-2.68 1.58-6.43 1.58-.56 0-.94.6-.94 1.44 0 .8.35 1.33.94 1.33 4.44 0 7.06-1.44 7.88-4.31C9.82-.91 11.54.25 13.96.25h.42c.52 0 1.05-.53 1.05-1.4 0-.88-.53-1.37-1.05-1.37h-.33c-1.92 0-3.25-.84-5.94-4.51l-5.39-7.42zm0 0"/></symbol><symbol overflow="visible" id="33cdb2e3by"><path d="M6.75-10.4l1.6-2.13a8.33 8.33 0 01-2.33-1.78l-1.36 1.95a7.83 7.83 0 01-1.9-1.7l-1.6 2.12a6.3 6.3 0 002.34 1.78l1.19-1.75a7.6 7.6 0 002.06 1.52zm-1.6 2.78l-1.06 1.3.22 1.52A4.71 4.71 0 010-2.52c-.63 0-1.05.49-1.05 1.36C-1.05-.2-.59.25 0 .25c2.28 0 3.9-1.27 4.9-3.4h.04C6.02-.89 7.77.24 10.67.24c.53 0 1.05-.53 1.05-1.4 0-.88-.52-1.37-1.05-1.37-2.97 0-4.72-1.57-5.48-5.1zm0 0"/></symbol><symbol overflow="visible" id="33cdb2e3bz"><path d="M16.83-5.73l.28-1.47-1.19.48c-.48 2.6-1.36 3.9-2.54 3.9-.88 0-1.52-1.02-1.61-2.46l.2-1.24-1.08.5c-1.02 2.8-1.94 3.5-3.12 3.5-1.22 0-2.13-.95-2.52-2.3l.34-1.05-1.01.23C3.44-3.44 2-2.52 0-2.52c-.53 0-.94.63-.94 1.36 0 .88.49 1.41.94 1.41 1.55 0 2.94-.78 4.03-2.9.4 1.8 1.53 2.9 3.08 2.9 1.33 0 2.34-.73 3.36-2.88.17 1.58 1.01 2.57 2.4 2.57 1.24 0 2.4-.85 3.13-2.9.45 1.98 2.06 3.21 4.38 3.21.51 0 1.04-.53 1.04-1.4 0-.88-.53-1.37-1.05-1.37-1.85 0-3.21-1.04-3.54-3.21zm0 0"/></symbol><symbol overflow="visible" id="33cdb2e3bA"><path d="M6.13-17.3l1.4-1.95A8.97 8.97 0 015.45-21l-1.47 1.9c.33.48 1.3 1.35 2.15 1.8zm2.28 3.27l1.6-2.14a8.11 8.11 0 01-2.34-1.78L6.3-16a7.03 7.03 0 01-1.99-1.6L2.8-15.59a6.3 6.3 0 002.34 1.78l1.19-1.75c.56.61 1.44 1.24 2.08 1.52zM3.75-2.97c-.78.24-2.1.45-3.75.45-.56 0-.94.66-.94 1.4 0 .84.35 1.37.94 1.37 2.34 0 4.23-.56 5.88-1.4 1.82.9 4.09 1.4 6.57 1.4.53 0 1.07-.53 1.07-1.4 0-.88-.54-1.37-1.07-1.37-1.92 0-3.25-.28-4.15-.53 1.07-1.01 1.89-2.62 1.89-3.8 0-2.78-1.9-4.95-3.5-4.95-1.44 0-2.88 1.27-3.72 3.02-.4.87-.55 1.53-.55 2.37 0 1.13.55 2.57 1.33 3.44zm2.34-.84c-1.23-.53-2.34-1.72-2.48-3.13.48-1.18 1.95-2.37 2.62-2.37 1.11 0 2.38 1.47 2.72 2.84A7.54 7.54 0 016.1-3.8zm0 0"/></symbol><symbol overflow="visible" id="33cdb2e3bB"><path d="M5.14-7.63L4.1-6.33l.22 1.53A4.71 4.71 0 010-2.52c-.63 0-1.05.49-1.05 1.36C-1.05-.2-.59.25 0 .25c2.28 0 3.9-1.27 4.9-3.4h.04C6.02-.89 7.77.24 10.67.24c.53 0 1.05-.53 1.05-1.4 0-.88-.52-1.37-1.05-1.37-2.97 0-4.72-1.57-5.48-5.1zm.53 14.07l1.67-2.1a8.86 8.86 0 01-2.3-1.89l-1.71 2.1c.56.8 1.6 1.58 2.34 1.89zm0 0"/></symbol><symbol overflow="visible" id="33cdb2e3bC"><path d="M1.02-.56L.92 0H5.1l.11-.6-1.48-.24v-2.52h1.22c2.06 0 3.58-1.19 3.58-3 0-1.72-1.33-2.72-3.7-2.72H1l-.1.6 1.23.25v6.71c0 .58-.2.83-1.11.96zm2.7-3.6v-4.12h.9c1.36 0 2.3.55 2.3 1.94 0 1.34-.86 2.18-2.4 2.18zm0 0"/></symbol><symbol overflow="visible" id="33cdb2e3bD"><path d="M1.02-.56L.92 0h6.85l.3-2.13h-.7l-.53 1.08-3.12.24v-3.53h2.83l.22-.85H3.72v-3.1l2.9.2.22 1h.6l.51-1.99H1l-.1.6 1.23.25v6.68c0 .61-.2.86-1.11.99zm0 0"/></symbol><symbol overflow="visible" id="33cdb2e3bE"><path d="M1.02-.56L.92 0h3.94l.1-.6-1.24-.24v-2.93h1.51l1.55 2.4C7.62-.13 8.12.2 8.78.2 9.16.2 9.5.08 9.8-.08l.1-.51c-.6-.07-.98-.32-1.85-1.6L6.7-4.16c1.17-.43 1.88-1.36 1.88-2.32 0-1.58-1.27-2.6-3.7-2.6H1l-.1.6 1.23.25v6.71c0 .58-.2.83-1.11.96zm2.7-3.96v-3.76h.56c1.63 0 2.6.6 2.6 1.87 0 1.32-.75 1.9-2.07 1.9zm0 0"/></symbol><symbol overflow="visible" id="33cdb2e3bF"><path d="M1.42-2.6L.91-.77C1.86-.22 3 .2 4.3.2 6.28.2 7.42-.8 7.42-2.36c0-1.19-.58-2.06-2.54-2.95-1.7-.78-2.02-1.19-2.02-1.83 0-.77.72-1.22 1.72-1.22.54 0 1.08.13 1.47.36l.18 1.16h.61l.46-1.79a5.42 5.42 0 00-2.53-.65c-1.97 0-3.2 1.23-3.2 2.51 0 1.2.57 1.91 2.3 2.7C5.7-3.21 6.13-2.72 6.13-2c0 .72-.5 1.3-1.68 1.3-.86 0-1.6-.32-2.13-.78L2.12-2.6zm0 0"/></symbol><symbol overflow="visible" id="33cdb2e3bG"><path d="M1-9.08l-.1.6 1.23.25v6.71c0 .58-.2.83-1.11.96L.92 0h3.94l.1-.6-1.24-.24v-6.72c0-.58.22-.85 1.08-.96l.1-.56zm0 0"/></symbol><symbol overflow="visible" id="33cdb2e3bH"><path d="M.3-.56L.2 0H3.2l.1-.6-.92-.24.75-1.9h3.54l.71 1.9-1 .25-.09.59h3.81l.11-.6-1.12-.24L5.84-9.2l-1.32.32L1.84-1.9C1.52-1.05 1.27-.77.3-.56zm6.06-2.99H3.37l1.49-3.93h.01zm0 0"/></symbol><symbol overflow="visible" id="33cdb2e3bI"><path d="M1.02-.56L.92 0h3.35l.09-.6-1.24-.24v-4.72c0-.5-.03-.96-.04-1.24h.01c.14.2.41.58 1 1.3L8.56 0h.96v-7.58c0-.56.2-.83 1.1-.94l.1-.56H7.37l-.09.6 1.24.25v4.1c0 .68.03 1.35.04 1.65h-.04c-.2-.3-.57-.75-1.18-1.52L3.22-9.08H1l-.1.6 1.23.25v6.71c0 .58-.2.83-1.11.96zm0 0"/></symbol><symbol overflow="visible" id="33cdb2e3bJ"><path d="M4.7-9.08H.8l-.1.6 1.22.25v4.57C1.92-.96 3 .2 5.77.2 8.3.2 9.55-1.1 9.55-3.73v-3.83c0-.58.17-.85.87-.96l.1-.56h-3.1l-.1.6 1.23.25v4.59c0 1.95-1 2.73-2.49 2.73-1.83 0-2.54-.68-2.54-2.65v-4c0-.58.21-.85 1.07-.96zm0 0"/></symbol><symbol overflow="visible" id="33cdb2e3bK"><path d="M1.02-.56L.92 0h3.74c3 0 4.92-1.78 4.92-4.7 0-2.8-1.92-4.38-5.03-4.38H1l-.1.6 1.23.25v6.71c0 .6-.2.83-1.11.96zm3.07-.28H3.7v-7.4h.52c2.36 0 3.66 1.2 3.66 3.88 0 2.58-1.3 3.52-3.79 3.52zm0 0"/></symbol><symbol overflow="visible" id="33cdb2e3bL"><path d="M1.02-.56L.92 0h3.94l.1-.6-1.24-.24v-3.5h4.83v2.82c0 .58-.24.83-1.1.96l-.1.56h3.92l.09-.6-1.22-.24v-6.72c0-.58.2-.85 1.1-.96l.1-.56H7.41l-.11.6 1.25.25v3.04H3.72v-2.37c0-.58.22-.85 1.08-.96l.1-.56H1l-.1.6 1.23.25v6.71c0 .58-.2.83-1.11.96zm0 0"/></symbol><symbol overflow="visible" id="33cdb2e3bM"><path d="M.9-.56L.8 0h3.15l.11-.6-1.22-.24.4-4.43c.07-.87.12-1.36.13-1.64h.07c.08.25.26.75.64 1.6l2.19 5h.8l2.3-5.05c.36-.78.57-1.33.63-1.55h.06c.03.41.08.91.16 1.63l.36 2.87c.08.7.1.99.1 1.2 0 .33-.16.52-.9.65l-.1.56h3.54l.1-.6-1.12-.24-.62-5.43c-.08-.8-.14-1.15-.14-1.45 0-.44.3-.7.9-.8l.1-.56h-2.4L6.96-2.34l-2.9-6.74H1.58l-.1.6 1.11.25-.65 6.57c-.06.7-.25.97-1.03 1.1zm0 0"/></symbol><symbol overflow="visible" id="33cdb2e3bN"><path d="M1.02-.56L.92 0h6.72l.31-2.52h-.68l-.75 1.47-2.8.24v-6.55c0-.7.22-1.01 1.08-1.16l.1-.56H1l-.1.6 1.23.25v6.68c0 .61-.2.86-1.11.99zm0 0"/></symbol><symbol overflow="visible" id="33cdb2e3bO"><path d="M4.1-9.08H.5l-.1.6.9.25 3.12 4.95v1.73c0 .61-.2.86-1.1.99l-.1.56h3.94l.1-.6-1.24-.24v-2.54l2.53-4.46c.26-.5.51-.61 1.04-.68l.11-.56H6.95l-.1.56.95.29-2.22 3.96-2.46-3.96.88-.29zm0 0"/></symbol><symbol overflow="visible" id="33cdb2e3bP"><path d="M2.88-.56l-.1.56h3.99l.09-.6-1.28-.24v-7.52l2.22.27.25 1.51h.6l.5-2.5H.42l.51 2.5h.6l.25-1.51 2.21-.27v6.84c0 .58-.2.83-1.1.96zm0 0"/></symbol><symbol overflow="visible" id="33cdb2e3bQ"><path d="M5.27.2c3 0 4.6-1.9 4.6-4.9 0-2.7-1.5-4.5-4.09-4.5C2.78-9.2 1-7.27 1-4.27 1-1.57 2.66.2 5.27.2zM2.7-4.6c0-2.5 1.07-3.7 2.66-3.7 1.8 0 2.83 1.46 2.83 3.96S7.14-.7 5.55-.7C3.73-.7 2.7-2.1 2.7-4.6zm0 0"/></symbol></defs><path d="M40 322.5h920M40 555.28h920M40 941.54h920M40 1726.8h920M40 1172.2h920M40 1442.37h920" fill="none" stroke="#ddd"/><use xlink:href="#33cdb2e3a" x="29.5939" y="217.5978"/><use xlink:href="#33cdb2e3b" x="358.3179" y="217.5978"/><use xlink:href="#33cdb2e3c" x="414.2299" y="217.5978"/><use xlink:href="#33cdb2e3d" x="492.0729" y="217.5978"/><use xlink:href="#33cdb2e3e" x="634.9859" y="217.5978"/><use xlink:href="#33cdb2e3b" x="684.3909" y="217.5978"/><use xlink:href="#33cdb2e3f" x="740.3029" y="217.5978"/><use xlink:href="#33cdb2e3g" x="841.2819" y="217.5978"/><use xlink:href="#33cdb2e3h" x="920.5709" y="217.5978"/><use xlink:href="#33cdb2e3i" x="21.4611" y="1970"/><use xlink:href="#33cdb2e3j" x="139.2711" y="1970"/><use xlink:href="#33cdb2e3k" x="269.9331" y="1970"/><use xlink:href="#33cdb2e3l" x="337.2531" y="1970"/><use xlink:href="#33cdb2e3m" x="515.3451" y="1970"/><use xlink:href="#33cdb2e3n" x="606.2271" y="1970"/><use xlink:href="#33cdb2e3k" x="741.4791" y="1970"/><use xlink:href="#33cdb2e3o" x="808.7991" y="1970"/><use xlink:href="#33cdb2e3p" x="16.7314" y="827.1917"/><use xlink:href="#33cdb2e3q" x="158.8514" y="827.1917"/><use xlink:href="#33cdb2e3r" x="257.1114" y="827.1917"/><use xlink:href="#33cdb2e3s" x="431.8714" y="827.1917"/><use xlink:href="#33cdb2e3t" x="548.4914" y="827.1917"/><use xlink:href="#33cdb2e3u" x="638.2514" y="827.1917"/><use xlink:href="#33cdb2e3v" x="721.2114" y="827.1917"/><use xlink:href="#33cdb2e3w" x="882.0314" y="827.1917"/><use xlink:href="#33cdb2e3x" x="32.4268" y="1083.2378"/><use xlink:href="#33cdb2e3y" x="139.4858" y="1083.2378"/><use xlink:href="#33cdb2e3z" x="168.1758" y="1083.2378"/><use xlink:href="#33cdb2e3A" x="201.3958" y="1083.2378"/><use xlink:href="#33cdb2e3B" x="236.1258" y="1083.2378"/><use xlink:href="#33cdb2e3C" x="308.7568" y="1083.2378"/><use xlink:href="#33cdb2e3D" x="354.8118" y="1083.2378"/><use xlink:href="#33cdb2e3C" x="399.6588" y="1083.2378"/><use xlink:href="#33cdb2e3E" x="445.7138" y="1083.2378"/><use xlink:href="#33cdb2e3F" x="596.0947" y="1083.2378"/><use xlink:href="#33cdb2e3y" x="650.4547" y="1083.2378"/><use xlink:href="#33cdb2e3G" x="679.1447" y="1083.2378"/><use xlink:href="#33cdb2e3H" x="767.9327" y="1083.2378"/><use xlink:href="#33cdb2e3I" x="840.5637" y="1083.2378"/><use xlink:href="#33cdb2e3J" x="886.6187" y="1083.2378"/><use xlink:href="#33cdb2e3K" x="30.6863" y="1616.2473"/><use xlink:href="#33cdb2e3L" x="123.9063" y="1616.2473"/><use xlink:href="#33cdb2e3M" x="172.0963" y="1616.2473"/><use xlink:href="#33cdb2e3N" x="213.8083" y="1616.2473"/><use xlink:href="#33cdb2e3O" x="243.0383" y="1616.2473"/><use xlink:href="#33cdb2e3P" x="304.5003" y="1616.2473"/><use xlink:href="#33cdb2e3Q" x="360.4323" y="1616.2473"/><use xlink:href="#33cdb2e3R" x="385.7123" y="1616.2473"/><use xlink:href="#33cdb2e3S" x="443.2243" y="1616.2473"/><use xlink:href="#33cdb2e3Q" x="515.9043" y="1616.2473"/><use xlink:href="#33cdb2e3T" x="541.1843" y="1616.2473"/><use xlink:href="#33cdb2e3U" x="675.8003" y="1616.2473"/><use xlink:href="#33cdb2e3V" x="824.1623" y="1616.2473"/><use xlink:href="#33cdb2e3S" x="895.1043" y="1616.2473"/><use xlink:href="#33cdb2e3W" x="1.3307" y="464.8285"/><use xlink:href="#33cdb2e3W" x="7.6307" y="464.8285"/><use xlink:href="#33cdb2e3X" x="31.5707" y="464.8285"/><use xlink:href="#33cdb2e3Y" x="91.7987" y="464.8285"/><use xlink:href="#33cdb2e3Z" x="101.8787" y="464.8285"/><use xlink:href="#33cdb2e3aa" x="151.3967" y="464.8285"/><use xlink:href="#33cdb2e3ab" x="203.1827" y="464.8285"/><use xlink:href="#33cdb2e3ac" x="241.6127" y="464.8285"/><use xlink:href="#33cdb2e3ad" x="314.9447" y="464.8285"/><use xlink:href="#33cdb2e3Y" x="340.1447" y="464.8285"/><use xlink:href="#33cdb2e3W" x="365.3447" y="464.8285"/><use xlink:href="#33cdb2e3ae" x="389.2847" y="464.8285"/><use xlink:href="#33cdb2e3af" x="409.4447" y="464.8285"/><use xlink:href="#33cdb2e3ag" x="456.6947" y="464.8285"/><use xlink:href="#33cdb2e3ah" x="488.6987" y="464.8285"/><use xlink:href="#33cdb2e3ai" x="517.6787" y="464.8285"/><use xlink:href="#33cdb2e3aj" x="563.4167" y="464.8285"/><use xlink:href="#33cdb2e3W" x="592.3967" y="464.8285"/><use xlink:href="#33cdb2e3ae" x="616.3367" y="464.8285"/><use xlink:href="#33cdb2e3ak" x="649.0967" y="464.8285"/><use xlink:href="#33cdb2e3ai" x="730.7447" y="464.8285"/><use xlink:href="#33cdb2e3al" x="776.4827" y="464.8285"/><use xlink:href="#33cdb2e3ac" x="814.9127" y="464.8285"/><use xlink:href="#33cdb2e3am" x="888.2447" y="464.8285"/><use xlink:href="#33cdb2e3an" x="925.6667" y="464.8285"/><use xlink:href="#33cdb2e3ao" x="495.8053" y="1261.0391"/><use xlink:href="#33cdb2e3ap" x="504.7303" y="1261.0391"/><use xlink:href="#33cdb2e3aq" x="518.2053" y="1261.0391"/><use xlink:href="#33cdb2e3ar" x="530.1403" y="1261.0391"/><use xlink:href="#33cdb2e3as" x="543.6153" y="1261.0391"/><use xlink:href="#33cdb2e3at" x="554.2903" y="1261.0391"/><use xlink:href="#33cdb2e3au" x="561.6403" y="1261.0391"/><use xlink:href="#33cdb2e3av" x="568.1118" y="1261.0391"/><use xlink:href="#33cdb2e3as" x="597.4068" y="1261.0391"/><use xlink:href="#33cdb2e3aw" x="608.0818" y="1261.0391"/><g><use xlink:href="#33cdb2e3ax" x="621.0668" y="1261.0391"/></g><g><use xlink:href="#33cdb2e3ay" x="635.9068" y="1261.0391"/></g><g><use xlink:href="#33cdb2e3au" x="650.3268" y="1261.0391"/></g><g><use xlink:href="#33cdb2e3az" x="656.8018" y="1261.0391"/><use xlink:href="#33cdb2e3as" x="686.4118" y="1261.0391"/><use xlink:href="#33cdb2e3aA" x="697.0868" y="1261.0391"/><use xlink:href="#33cdb2e3aB" x="704.6468" y="1261.0391"/></g><g><use xlink:href="#33cdb2e3au" x="714.9368" y="1261.0391"/></g><g><use xlink:href="#33cdb2e3aC" x="721.4118" y="1261.0391"/></g><g><use xlink:href="#33cdb2e3au" x="738.2118" y="1261.0391"/></g><g><use xlink:href="#33cdb2e3az" x="744.6868" y="1261.0391"/><use xlink:href="#33cdb2e3as" x="774.2968" y="1261.0391"/><use xlink:href="#33cdb2e3aA" x="784.9718" y="1261.0391"/><use xlink:href="#33cdb2e3aB" x="792.5318" y="1261.0391"/></g><g><use xlink:href="#33cdb2e3aD" x="798.0968" y="1261.0391"/><use xlink:href="#33cdb2e3aE" x="811.8518" y="1261.0391"/></g><g><use xlink:href="#33cdb2e3au" x="819.2018" y="1261.0391"/></g><g><use xlink:href="#33cdb2e3aF" x="825.6768" y="1261.0391"/><use xlink:href="#33cdb2e3aG" x="844.5768" y="1261.0391"/><use xlink:href="#33cdb2e3aH" x="853.4668" y="1261.0391"/><use xlink:href="#33cdb2e3aI" x="864.1418" y="1261.0391"/></g><g><use xlink:href="#33cdb2e3aJ" x="872.0168" y="1261.0391"/></g><g><use xlink:href="#33cdb2e3au" x="878.3168" y="1261.0391"/></g><g><use xlink:href="#33cdb2e3aK" x="884.7918" y="1261.0391"/></g><g><use xlink:href="#33cdb2e3aL" x="903.1983" y="1261.0391"/></g><g><use xlink:href="#33cdb2e3aM" x="915.6233" y="1261.0391"/><use xlink:href="#33cdb2e3as" x="934.1383" y="1261.0391"/><use xlink:href="#33cdb2e3aB" x="944.8133" y="1261.0391"/></g><g><use xlink:href="#33cdb2e3ao" x="507.1103" y="1303.0391"/></g><g><use xlink:href="#33cdb2e3aL" x="515.8603" y="1303.0391"/></g><g><use xlink:href="#33cdb2e3aN" x="524.9603" y="1303.0391"/><use xlink:href="#33cdb2e3aO" x="538.0853" y="1303.0391"/><use xlink:href="#33cdb2e3aP" x="546.9753" y="1303.0391"/><use xlink:href="#33cdb2e3aQ" x="550.7903" y="1303.0391"/><use xlink:href="#33cdb2e3au" x="558.8403" y="1303.0391"/><use xlink:href="#33cdb2e3aR" x="565.4903" y="1303.0391"/><use xlink:href="#33cdb2e3as" x="615.6103" y="1303.0391"/><use xlink:href="#33cdb2e3aw" x="626.2853" y="1303.0391"/></g><g><use xlink:href="#33cdb2e3ax" x="639.4453" y="1303.0391"/></g><g><use xlink:href="#33cdb2e3ay" x="654.4603" y="1303.0391"/><use xlink:href="#33cdb2e3au" x="669.5803" y="1303.0391"/><use xlink:href="#33cdb2e3aS" x="676.2303" y="1303.0391"/></g><g><use xlink:href="#33cdb2e3aT" x="696.1103" y="1303.0391"/><use xlink:href="#33cdb2e3aU" x="708.5353" y="1303.0391"/><use xlink:href="#33cdb2e3aV" x="716.2353" y="1303.0391"/><use xlink:href="#33cdb2e3au" x="724.2853" y="1303.0391"/><use xlink:href="#33cdb2e3aC" x="730.9353" y="1303.0391"/><use xlink:href="#33cdb2e3au" x="748.4353" y="1303.0391"/><use xlink:href="#33cdb2e3aS" x="755.0853" y="1303.0391"/></g><g><use xlink:href="#33cdb2e3aT" x="774.9653" y="1303.0391"/><use xlink:href="#33cdb2e3aU" x="787.3903" y="1303.0391"/><use xlink:href="#33cdb2e3aH" x="795.0903" y="1303.0391"/><use xlink:href="#33cdb2e3aW" x="805.7653" y="1303.0391"/><use xlink:href="#33cdb2e3au" x="819.4153" y="1303.0391"/><use xlink:href="#33cdb2e3aX" x="826.0653" y="1303.0391"/><use xlink:href="#33cdb2e3aU" x="874.4703" y="1303.0391"/><use xlink:href="#33cdb2e3aY" x="882.1703" y="1303.0391"/><use xlink:href="#33cdb2e3aZ" x="896.0303" y="1303.0391"/></g><g><use xlink:href="#33cdb2e3au" x="912.6518" y="1303.0391"/><use xlink:href="#33cdb2e3aK" x="919.3018" y="1303.0391"/><use xlink:href="#33cdb2e3aJ" x="937.8868" y="1303.0391"/><use xlink:href="#33cdb2e3ay" x="944.8868" y="1303.0391"/></g><g><use xlink:href="#33cdb2e3ao" x="505.7803" y="1345.0391"/></g><g><use xlink:href="#33cdb2e3ba" x="514.5303" y="1345.0391"/><use xlink:href="#33cdb2e3aP" x="527.2353" y="1345.0391"/><use xlink:href="#33cdb2e3aP" x="531.0503" y="1345.0391"/><use xlink:href="#33cdb2e3aP" x="534.8653" y="1345.0391"/><use xlink:href="#33cdb2e3bb" x="538.6803" y="1345.0391"/><use xlink:href="#33cdb2e3aV" x="577.1103" y="1345.0391"/><use xlink:href="#33cdb2e3bc" x="585.1603" y="1345.0391"/><use xlink:href="#33cdb2e3aU" x="596.8853" y="1345.0391"/><use xlink:href="#33cdb2e3bd" x="604.5853" y="1345.0391"/><use xlink:href="#33cdb2e3aJ" x="623.0303" y="1345.0391"/></g><g><use xlink:href="#33cdb2e3aD" x="625.8303" y="1345.0391"/><use xlink:href="#33cdb2e3be" x="639.5853" y="1345.0391"/><use xlink:href="#33cdb2e3au" x="650.2953" y="1345.0391"/><use xlink:href="#33cdb2e3bf" x="656.9453" y="1345.0391"/><use xlink:href="#33cdb2e3aP" x="704.0203" y="1345.0391"/><use xlink:href="#33cdb2e3bb" x="707.8353" y="1345.0391"/><use xlink:href="#33cdb2e3ar" x="746.2653" y="1345.0391"/><use xlink:href="#33cdb2e3aH" x="759.7403" y="1345.0391"/><use xlink:href="#33cdb2e3aH" x="770.4153" y="1345.0391"/><use xlink:href="#33cdb2e3aW" x="781.0903" y="1345.0391"/><use xlink:href="#33cdb2e3au" x="794.7403" y="1345.0391"/><use xlink:href="#33cdb2e3aR" x="801.3903" y="1345.0391"/><use xlink:href="#33cdb2e3be" x="851.5103" y="1345.0391"/><use xlink:href="#33cdb2e3aJ" x="862.2203" y="1345.0391"/><use xlink:href="#33cdb2e3ay" x="869.2203" y="1345.0391"/><use xlink:href="#33cdb2e3au" x="884.3403" y="1345.0391"/><use xlink:href="#33cdb2e3bg" x="890.9903" y="1345.0391"/><use xlink:href="#33cdb2e3aA" x="906.1803" y="1345.0391"/><use xlink:href="#33cdb2e3bh" x="913.7403" y="1345.0391"/><use xlink:href="#33cdb2e3bi" x="924.4503" y="1345.0391"/><use xlink:href="#33cdb2e3as" x="941.2853" y="1345.0391"/><use xlink:href="#33cdb2e3at" x="951.9603" y="1345.0391"/></g><g><use xlink:href="#33cdb2e3bj" x="504.0653" y="1387.0391"/><use xlink:href="#33cdb2e3bg" x="513.8303" y="1387.0391"/><use xlink:href="#33cdb2e3as" x="529.0203" y="1387.0391"/><use xlink:href="#33cdb2e3bd" x="539.6953" y="1387.0391"/><use xlink:href="#33cdb2e3aU" x="558.1403" y="1387.0391"/><use xlink:href="#33cdb2e3aP" x="565.8403" y="1387.0391"/><use xlink:href="#33cdb2e3bk" x="569.6553" y="1387.0391"/><use xlink:href="#33cdb2e3au" x="605.5653" y="1387.0391"/><use xlink:href="#33cdb2e3bl" x="612.2153" y="1387.0391"/></g><g><use xlink:href="#33cdb2e3aN" x="657.3303" y="1387.0391"/><use xlink:href="#33cdb2e3aO" x="670.4553" y="1387.0391"/><use xlink:href="#33cdb2e3bm" x="679.3453" y="1387.0391"/><use xlink:href="#33cdb2e3aU" x="701.0803" y="1387.0391"/><use xlink:href="#33cdb2e3bn" x="708.7803" y="1387.0391"/><use xlink:href="#33cdb2e3aP" x="726.8053" y="1387.0391"/><use xlink:href="#33cdb2e3aP" x="730.6203" y="1387.0391"/><use xlink:href="#33cdb2e3bk" x="734.4353" y="1387.0391"/><use xlink:href="#33cdb2e3au" x="770.3453" y="1387.0391"/><use xlink:href="#33cdb2e3bf" x="776.9953" y="1387.0391"/><use xlink:href="#33cdb2e3aP" x="824.0703" y="1387.0391"/><use xlink:href="#33cdb2e3bk" x="827.8853" y="1387.0391"/></g><g><use xlink:href="#33cdb2e3aL" x="862.7453" y="1387.0391"/><use xlink:href="#33cdb2e3bi" x="875.3453" y="1387.0391"/><use xlink:href="#33cdb2e3aP" x="892.1803" y="1387.0391"/><use xlink:href="#33cdb2e3aP" x="895.9953" y="1387.0391"/><use xlink:href="#33cdb2e3aH" x="899.8103" y="1387.0391"/><use xlink:href="#33cdb2e3aI" x="910.4853" y="1387.0391"/></g><g><use xlink:href="#33cdb2e3aT" x="916.7853" y="1387.0391"/><use xlink:href="#33cdb2e3au" x="929.2103" y="1387.0391"/><use xlink:href="#33cdb2e3bo" x="935.8603" y="1387.0391"/><use xlink:href="#33cdb2e3bp" x="951.9603" y="1387.0391"/></g><g><use xlink:href="#33cdb2e3ao" x="40.1053" y="1253.9691"/></g><g><use xlink:href="#33cdb2e3aL" x="48.8553" y="1253.9691"/><use xlink:href="#33cdb2e3bi" x="61.4553" y="1253.9691"/><use xlink:href="#33cdb2e3aP" x="78.2903" y="1253.9691"/><use xlink:href="#33cdb2e3aH" x="82.1053" y="1253.9691"/><use xlink:href="#33cdb2e3aI" x="92.7803" y="1253.9691"/></g><g><use xlink:href="#33cdb2e3aD" x="98.3803" y="1253.9691"/><use xlink:href="#33cdb2e3be" x="112.1353" y="1253.9691"/><use xlink:href="#33cdb2e3au" x="122.8453" y="1253.9691"/><use xlink:href="#33cdb2e3bq" x="129.4953" y="1253.9691"/></g><g><use xlink:href="#33cdb2e3ba" x="140.6253" y="1253.9691"/><use xlink:href="#33cdb2e3br" x="153.3303" y="1253.9691"/></g><g><use xlink:href="#33cdb2e3ba" x="159.7703" y="1253.9691"/><use xlink:href="#33cdb2e3aE" x="172.4753" y="1253.9691"/><use xlink:href="#33cdb2e3au" x="180.5253" y="1253.9691"/><use xlink:href="#33cdb2e3aL" x="187.1753" y="1253.9691"/><use xlink:href="#33cdb2e3ay" x="199.7753" y="1253.9691"/></g><g><use xlink:href="#33cdb2e3aD" x="209.9953" y="1253.9691"/><use xlink:href="#33cdb2e3aW" x="223.7503" y="1253.9691"/><use xlink:href="#33cdb2e3au" x="237.4003" y="1253.9691"/><use xlink:href="#33cdb2e3aU" x="244.0503" y="1253.9691"/><use xlink:href="#33cdb2e3aW" x="251.7503" y="1253.9691"/><use xlink:href="#33cdb2e3aJ" x="265.4003" y="1253.9691"/></g><g><use xlink:href="#33cdb2e3aD" x="268.2003" y="1253.9691"/><use xlink:href="#33cdb2e3bp" x="281.9553" y="1253.9691"/><use xlink:href="#33cdb2e3aJ" x="290.0053" y="1253.9691"/><use xlink:href="#33cdb2e3au" x="297.0053" y="1253.9691"/><use xlink:href="#33cdb2e3bs" x="303.6553" y="1253.9691"/><use xlink:href="#33cdb2e3aP" x="351.8153" y="1253.9691"/><use xlink:href="#33cdb2e3as" x="355.6303" y="1253.9691"/><use xlink:href="#33cdb2e3bd" x="366.3053" y="1253.9691"/></g><g><use xlink:href="#33cdb2e3aD" x="380.9003" y="1253.9691"/><use xlink:href="#33cdb2e3bt" x="394.6553" y="1253.9691"/><use xlink:href="#33cdb2e3bu" x="409.7053" y="1253.9691"/></g><g><use xlink:href="#33cdb2e3ao" x="31.5303" y="1295.9691"/><use xlink:href="#33cdb2e3bv" x="40.6303" y="1295.9691"/><use xlink:href="#33cdb2e3ar" x="60.4053" y="1295.9691"/><use xlink:href="#33cdb2e3aI" x="73.8803" y="1295.9691"/><use xlink:href="#33cdb2e3aU" x="81.9303" y="1295.9691"/><use xlink:href="#33cdb2e3bk" x="89.6303" y="1295.9691"/><use xlink:href="#33cdb2e3au" x="125.5403" y="1295.9691"/><use xlink:href="#33cdb2e3aS" x="132.1903" y="1295.9691"/></g><g><use xlink:href="#33cdb2e3aT" x="152.0703" y="1295.9691"/><use xlink:href="#33cdb2e3ay" x="164.4953" y="1295.9691"/><use xlink:href="#33cdb2e3au" x="179.6153" y="1295.9691"/><use xlink:href="#33cdb2e3aS" x="186.2653" y="1295.9691"/></g><g><use xlink:href="#33cdb2e3aT" x="206.1453" y="1295.9691"/><use xlink:href="#33cdb2e3aU" x="218.5703" y="1295.9691"/><use xlink:href="#33cdb2e3be" x="226.2703" y="1295.9691"/><use xlink:href="#33cdb2e3au" x="236.9803" y="1295.9691"/><use xlink:href="#33cdb2e3aC" x="243.6303" y="1295.9691"/><use xlink:href="#33cdb2e3au" x="261.1303" y="1295.9691"/><use xlink:href="#33cdb2e3aS" x="267.7803" y="1295.9691"/></g><g><use xlink:href="#33cdb2e3aT" x="287.6603" y="1295.9691"/><use xlink:href="#33cdb2e3aU" x="300.0853" y="1295.9691"/><use xlink:href="#33cdb2e3be" x="307.7853" y="1295.9691"/><use xlink:href="#33cdb2e3au" x="318.4953" y="1295.9691"/><use xlink:href="#33cdb2e3aF" x="325.1453" y="1295.9691"/><use xlink:href="#33cdb2e3aO" x="344.0453" y="1295.9691"/><use xlink:href="#33cdb2e3bw" x="352.9353" y="1295.9691"/><use xlink:href="#33cdb2e3aU" x="361.4753" y="1295.9691"/><use xlink:href="#33cdb2e3bw" x="369.1753" y="1295.9691"/><use xlink:href="#33cdb2e3au" x="377.7153" y="1295.9691"/><use xlink:href="#33cdb2e3aK" x="384.3653" y="1295.9691"/><use xlink:href="#33cdb2e3aJ" x="402.9503" y="1295.9691"/><use xlink:href="#33cdb2e3ay" x="409.9503" y="1295.9691"/></g><g><use xlink:href="#33cdb2e3ao" x="37.9703" y="1337.9691"/><use xlink:href="#33cdb2e3aX" x="47.0703" y="1337.9691"/></g><g><use xlink:href="#33cdb2e3aT" x="93.7253" y="1337.9691"/><use xlink:href="#33cdb2e3aU" x="106.1503" y="1337.9691"/><use xlink:href="#33cdb2e3aQ" x="113.8503" y="1337.9691"/></g><g><use xlink:href="#33cdb2e3ba" x="121.2003" y="1337.9691"/><use xlink:href="#33cdb2e3aV" x="133.9053" y="1337.9691"/><use xlink:href="#33cdb2e3aU" x="141.9553" y="1337.9691"/><use xlink:href="#33cdb2e3bd" x="149.6553" y="1337.9691"/><use xlink:href="#33cdb2e3au" x="168.1003" y="1337.9691"/><use xlink:href="#33cdb2e3bv" x="174.7503" y="1337.9691"/><use xlink:href="#33cdb2e3bx" x="194.5253" y="1337.9691"/><use xlink:href="#33cdb2e3aW" x="208.9103" y="1337.9691"/></g><g><use xlink:href="#33cdb2e3aN" x="219.0568" y="1337.9691"/><use xlink:href="#33cdb2e3aG" x="232.1818" y="1337.9691"/><use xlink:href="#33cdb2e3aH" x="241.0718" y="1337.9691"/><use xlink:href="#33cdb2e3at" x="251.7468" y="1337.9691"/><use xlink:href="#33cdb2e3au" x="259.7968" y="1337.9691"/><use xlink:href="#33cdb2e3aR" x="266.4468" y="1337.9691"/><use xlink:href="#33cdb2e3be" x="316.5668" y="1337.9691"/><use xlink:href="#33cdb2e3aJ" x="327.2768" y="1337.9691"/><use xlink:href="#33cdb2e3ay" x="334.2768" y="1337.9691"/><use xlink:href="#33cdb2e3au" x="349.3968" y="1337.9691"/><use xlink:href="#33cdb2e3bg" x="356.0468" y="1337.9691"/><use xlink:href="#33cdb2e3aA" x="371.2368" y="1337.9691"/><use xlink:href="#33cdb2e3bh" x="378.7968" y="1337.9691"/><use xlink:href="#33cdb2e3bi" x="389.5068" y="1337.9691"/><use xlink:href="#33cdb2e3as" x="406.3418" y="1337.9691"/><use xlink:href="#33cdb2e3at" x="417.0168" y="1337.9691"/></g><g><use xlink:href="#33cdb2e3au" x="37.4103" y="1379.9691"/></g><g><use xlink:href="#33cdb2e3bj" x="37.4103" y="1379.9691"/></g><g><use xlink:href="#33cdb2e3ba" x="45.7753" y="1379.9691"/><use xlink:href="#33cdb2e3aP" x="58.4803" y="1379.9691"/><use xlink:href="#33cdb2e3bt" x="62.2953" y="1379.9691"/><use xlink:href="#33cdb2e3aY" x="77.3453" y="1379.9691"/><use xlink:href="#33cdb2e3as" x="91.2053" y="1379.9691"/><use xlink:href="#33cdb2e3bd" x="101.8803" y="1379.9691"/><use xlink:href="#33cdb2e3aU" x="120.3253" y="1379.9691"/><use xlink:href="#33cdb2e3aB" x="128.0253" y="1379.9691"/></g><g><use xlink:href="#33cdb2e3au" x="140.7653" y="1379.9691"/><use xlink:href="#33cdb2e3aF" x="147.4153" y="1379.9691"/><use xlink:href="#33cdb2e3aO" x="166.3153" y="1379.9691"/><use xlink:href="#33cdb2e3by" x="175.2053" y="1379.9691"/><use xlink:href="#33cdb2e3bz" x="185.8803" y="1379.9691"/><use xlink:href="#33cdb2e3bA" x="206.2503" y="1379.9691"/><use xlink:href="#33cdb2e3aB" x="218.7103" y="1379.9691"/></g><g><use xlink:href="#33cdb2e3au" x="231.4503" y="1379.9691"/><use xlink:href="#33cdb2e3bf" x="238.1003" y="1379.9691"/><use xlink:href="#33cdb2e3bk" x="285.1753" y="1379.9691"/><use xlink:href="#33cdb2e3aU" x="321.0853" y="1379.9691"/><use xlink:href="#33cdb2e3bB" x="328.7853" y="1379.9691"/><use xlink:href="#33cdb2e3aW" x="339.4603" y="1379.9691"/><use xlink:href="#33cdb2e3bi" x="353.1103" y="1379.9691"/><use xlink:href="#33cdb2e3aH" x="369.9453" y="1379.9691"/><use xlink:href="#33cdb2e3aW" x="380.6203" y="1379.9691"/><use xlink:href="#33cdb2e3au" x="394.2703" y="1379.9691"/><use xlink:href="#33cdb2e3bo" x="400.9203" y="1379.9691"/><use xlink:href="#33cdb2e3bp" x="417.0203" y="1379.9691"/></g><g fill="#666"><use xlink:href="#33cdb2e3bC" x="40" y="73.2595"/></g><g fill="#666"><use xlink:href="#33cdb2e3bD" x="49.34" y="73.2595"/><use xlink:href="#33cdb2e3bE" x="58.42" y="73.2595"/><use xlink:href="#33cdb2e3bF" x="68.92" y="73.2595"/><use xlink:href="#33cdb2e3bG" x="77.42" y="73.2595"/><use xlink:href="#33cdb2e3bH" x="83.46" y="73.2595"/><use xlink:href="#33cdb2e3bI" x="94.06" y="73.2595"/></g><g fill="#666"><use xlink:href="#33cdb2e3bC" x="40" y="593.7795"/></g><g fill="#666"><use xlink:href="#33cdb2e3bD" x="49.34" y="593.7795"/><use xlink:href="#33cdb2e3bE" x="58.42" y="593.7795"/><use xlink:href="#33cdb2e3bF" x="68.92" y="593.7795"/><use xlink:href="#33cdb2e3bG" x="77.42" y="593.7795"/><use xlink:href="#33cdb2e3bH" x="83.46" y="593.7795"/><use xlink:href="#33cdb2e3bI" x="94.06" y="593.7795"/></g><g fill="#666"><use xlink:href="#33cdb2e3bC" x="40" y="1775.5595"/></g><g fill="#666"><use xlink:href="#33cdb2e3bD" x="49.34" y="1775.5595"/><use xlink:href="#33cdb2e3bE" x="58.42" y="1775.5595"/><use xlink:href="#33cdb2e3bF" x="68.92" y="1775.5595"/><use xlink:href="#33cdb2e3bG" x="77.42" y="1775.5595"/><use xlink:href="#33cdb2e3bH" x="83.46" y="1775.5595"/><use xlink:href="#33cdb2e3bI" x="94.06" y="1775.5595"/></g><g fill="#666"><use xlink:href="#33cdb2e3bJ" x="40" y="1489.0195"/><use xlink:href="#33cdb2e3bE" x="51.42" y="1489.0195"/><use xlink:href="#33cdb2e3bK" x="61.92" y="1489.0195"/></g><g fill="#666"><use xlink:href="#33cdb2e3bJ" x="72.7" y="1489.0195"/></g><g fill="#666"><use xlink:href="#33cdb2e3bF" x="40" y="980.7795"/></g><g fill="#666"><use xlink:href="#33cdb2e3bG" x="48.5" y="980.7795"/><use xlink:href="#33cdb2e3bI" x="54.54" y="980.7795"/><use xlink:href="#33cdb2e3bK" x="66.36" y="980.7795"/><use xlink:href="#33cdb2e3bL" x="77.14" y="980.7795"/><use xlink:href="#33cdb2e3bG" x="89.6" y="980.7795"/></g><g fill="#666"><use xlink:href="#33cdb2e3bM" x="40" y="1212.8195"/><use xlink:href="#33cdb2e3bH" x="54.36" y="1212.8195"/><use xlink:href="#33cdb2e3bN" x="64.96" y="1212.8195"/><use xlink:href="#33cdb2e3bH" x="73.62" y="1212.8195"/></g><g fill="#666"><use xlink:href="#33cdb2e3bO" x="83.02" y="1212.8195"/></g><g fill="#666"><use xlink:href="#33cdb2e3bC" x="40" y="360.1595"/></g><g fill="#666"><use xlink:href="#33cdb2e3bH" x="48.74" y="360.1595"/><use xlink:href="#33cdb2e3bF" x="59.34" y="360.1595"/><use xlink:href="#33cdb2e3bL" x="67.84" y="360.1595"/><use xlink:href="#33cdb2e3bP" x="80.3" y="360.1595"/></g><g fill="#666"><use xlink:href="#33cdb2e3bQ" x="89.66" y="360.1595"/></g></svg>