<?xml version='1.0' encoding='UTF-8'?>
<svg xmlns="http://www.w3.org/2000/svg" xmlns:xlink="http://www.w3.org/1999/xlink" width="600px" height="300px" viewBox="0 0 600 300" x="0px" y="0px" enable-background="new 0 0 600 300"><defs><symbol overflow="visible" id="e10d9dc0a"><path d="M7.2-15.42v1.8L19.7-3.3l.95-1.26-7.14-8.03h39.3v-3.85H13.5l7.14-8.04-.95-1.25zm0 0"/></symbol><symbol overflow="visible" id="e10d9dc0b"><path d="M14.1-35.16L3.77-22.69l1.27.97 8.03-7.14v39.3h3.84v-39.3l8.03 7.14 1.27-.97L15.9-35.16zm0 0"/></symbol><symbol overflow="visible" id="e10d9dc0c"><path d="M52.8-15.42L40.3-25.73l-.95 1.25 7.14 8.04H7.2v3.85h39.3l-7.14 8.03.95 1.26L52.8-13.62zm0 0"/></symbol><symbol overflow="visible" id="e10d9dc0d"><path d="M14.1 10.44h1.8L26.23-2.05 24.95-3l-8.03 7.14v-39.3h-3.84v39.3L5.05-3l-1.27.95zm0 0"/></symbol><symbol overflow="visible" id="e10d9dc0e"><path d="M52.8-13.63v-1.8L40.3-25.72l-.95 1.25 7.14 8.04h-33l7.14-8.04-.95-1.25L7.2-15.43v1.8L19.7-3.3l.95-1.26-7.14-8.03h33l-7.14 8.03.95 1.26zm0 0"/></symbol><symbol overflow="visible" id="e10d9dc0f"><path d="M15.9-35.16h-1.8L3.77-22.69l1.27.97 8.03-7.14v33L5.05-3l-1.27.95L14.1 10.44h1.82L26.2-2.05 24.96-3l-8.03 7.14v-33l8.03 7.14 1.27-.97zm0 0"/></symbol><symbol overflow="visible" id="e10d9dc0g"><path d="M3.83 0v-5.95H6.2v-.82H.45v.82h2.4V0zm0 0"/></symbol><symbol overflow="visible" id="e10d9dc0h"><path d="M5.75-2.23v-.43c0-1.6-.9-2.51-2.42-2.51S.87-4.16.87-2.48c0 1.71.91 2.62 2.5 2.62 1.43 0 2.07-.56 2.29-1.52l-.9-.09c-.18.61-.59.9-1.35.9-.94 0-1.52-.54-1.58-1.66zm-2.4-2.2c.93 0 1.43.5 1.48 1.55H1.84c.08-1.07.6-1.56 1.5-1.56zm0 0"/></symbol><symbol overflow="visible" id="e10d9dc0i"><path d="M1.83 0l1.42-2h.06l1.46 2H5.8L4-2.53l1.78-2.49H4.8L3.42-3.08h-.08l-1.4-1.94H.89l1.78 2.49L.84 0zm0 0"/></symbol><symbol overflow="visible" id="e10d9dc0j"><path d="M5.52-4.25v-.77H3.17v-1.56h-.81l-.14 1.56H.75v.77h1.47v2.4c0 1.3.48 1.94 1.84 1.94C4.6.1 5.14 0 5.55-.14L5.4-.91c-.32.13-.72.2-1.13.2-.8 0-1.1-.37-1.1-1.23v-2.31zm0 0"/></symbol><symbol overflow="visible" id="e10d9dc0k"><path d="M3.33-3.42c.47 0 .8-.27.8-.8 0-.51-.33-.8-.8-.8-.47 0-.8.29-.8.8 0 .53.33.8.8.8zm0 3.5c.47 0 .8-.27.8-.78 0-.53-.33-.82-.8-.82-.47 0-.8.29-.8.82 0 .51.33.78.8.78zm0 0"/></symbol><symbol overflow="visible" id="e10d9dc0m"><path d="M2.64-5.97L.7-3.45v.12l1.95 2.5h.92l-1.6-2.1v-.02h3.9v-.88h-3.9v-.03l1.6-2.1zm0 0"/></symbol><symbol overflow="visible" id="e10d9dc0n"><path d="M3.77 0v-6.45h.04l2.1 1.6v-.93L3.39-7.72h-.12L.77-5.78v.92l2.09-1.6h.03V0zm0 0"/></symbol><symbol overflow="visible" id="e10d9dc0o"><path d="M4.9-.83l1.93-2.5v-.12L4.89-5.97h-.92l1.6 2.11v.03H.8v.88h4.76v.03l-1.6 2.1zm0 0"/></symbol><symbol overflow="visible" id="e10d9dc0p"><path d="M2.88-6.77V-.3h-.04l-2.1-1.6v.93L3.24.95h.13l2.5-1.93v-.93L3.77-.3h-.03v-6.46zm0 0"/></symbol><symbol overflow="visible" id="e10d9dc0q"><path d="M3.03-.83l-1.39-2.1v-.02h3.8v.03l-1.4 2.1h.85l1.69-2.5v-.13L4.89-5.97h-.86l1.4 2.11v.03H1.65v-.03l1.4-2.1h-.85L.5-3.47v.13l1.69 2.5zm0 0"/></symbol><symbol overflow="visible" id="e10d9dc0r"><path d="M3.2 1.47L5.72-.47v-.94L3.6.2h-.03v-7.16h.03l2.1 1.6v-.94l-2.5-1.94h-.13L.56-6.31v.93l2.11-1.59h.03V.2h-.03l-2.1-1.6v.94l2.5 1.94zm0 0"/></symbol><symbol overflow="visible" id="e10d9dc0s"><path d="M5.95-6.77H1.1V0h.99v-2.92H5.3v-.77H2.08v-2.26h3.87zm0 0"/></symbol><symbol overflow="visible" id="e10d9dc0t"><path d="M2.83.14c.94 0 1.5-.39 1.81-.95h.08l.1.81h.76v-3.38c0-1.23-.69-1.8-2.13-1.8-1.43 0-2.03.65-2.18 1.6l.93.1c.11-.6.44-.93 1.22-.93.85 0 1.22.32 1.22 1.04v.34l-1.81.2C1.6-2.7 1.1-2.17 1.1-1.28c0 .92.64 1.42 1.72 1.42zm.25-.77c-.67 0-1.02-.28-1.02-.74 0-.44.28-.72 1-.82l1.58-.19v.41c0 .8-.6 1.34-1.56 1.34zm0 0"/></symbol><symbol overflow="visible" id="e10d9dc0u"><path d="M2.73.14c.9 0 1.43-.45 1.74-1.08h.06l.13.94h.8v-5.02h-.94v2.7c0 .98-.57 1.62-1.46 1.62-.75 0-1.1-.4-1.1-1.22v-3.1h-.93v3.32c0 1.17.55 1.84 1.7 1.84zm0 0"/></symbol><symbol overflow="visible" id="e10d9dc0v"><path d="M5.08-5.16c-.94 0-1.58.43-1.9 1.3h-.09l-.07-1.16H1.05v.77h1.1v3.48H.96V0h3.96v-.77H3.1v-1.46c0-1.36.6-2.05 1.83-2.05.4 0 .76.08 1.1.17l.15-.87c-.33-.11-.7-.18-1.11-.18zm0 0"/></symbol><symbol overflow="visible" id="e10d9dc0w"><path d="M6.17 0L3.98-6.77h-1.3L.5 0h.97l.44-1.47h2.78L5.16 0zM3.28-5.94h.08l1.1 3.74H2.15zm0 0"/></symbol><symbol overflow="visible" id="e10d9dc0x"><path d="M3.33.14c1.62 0 2.5-.95 2.5-2.66 0-1.68-.88-2.64-2.5-2.64-1.63 0-2.5.96-2.5 2.64 0 1.7.87 2.66 2.5 2.66zm0-.77c-1.06 0-1.52-.6-1.52-1.89 0-1.28.46-1.87 1.52-1.87 1.08 0 1.53.6 1.53 1.87 0 1.29-.45 1.9-1.53 1.9zm0 0"/></symbol><symbol overflow="visible" id="e10d9dc0y"><path d="M2.44 0l.87-3.31h.06L4.25 0H5.3l1.03-5.02h-.88l-.73 3.94h-.08L3.77-4.4h-.85l-.87 3.33h-.08l-.75-3.94H.34L1.36 0zm0 0"/></symbol><symbol overflow="visible" id="e10d9dc0z"><path d="M3.36.16c1.4 0 2.2-.6 2.2-1.57 0-.89-.54-1.22-1.47-1.39L3-3c-.67-.14-.86-.33-.86-.73 0-.5.4-.74 1.17-.74.83 0 1.19.27 1.27.8l.9-.05c-.12-1-.8-1.47-2.17-1.47-1.34 0-2.1.53-2.1 1.5 0 .81.45 1.22 1.52 1.44l1.04.2c.56.11.87.24.87.72 0 .52-.45.78-1.28.78-.95 0-1.36-.28-1.42-.87l-.9.06C1.07-.36 1.8.16 3.35.16zm0 0"/></symbol><symbol overflow="visible" id="e10d9dc0A"><path d="M1.45-2.95c0 2.56 1.08 4.37 3.67 4.84l.11-.67C3.28.86 2.43-.75 2.43-2.95s.85-3.82 2.8-4.16l-.1-.69c-2.6.49-3.68 2.3-3.68 4.85zm0 0"/></symbol><symbol overflow="visible" id="e10d9dc0B"><path d="M3.34.14c1.43 0 2.13-.66 2.25-1.78l-.89-.1c-.1.7-.5 1.08-1.34 1.08-1.03 0-1.52-.64-1.52-1.84 0-1.23.47-1.86 1.52-1.86.84 0 1.23.36 1.34 1.08l.9-.1c-.13-1.09-.82-1.78-2.26-1.78-1.56 0-2.46.97-2.46 2.66 0 1.66.9 2.64 2.46 2.64zm0 0"/></symbol><symbol overflow="visible" id="e10d9dc0C"><path d="M3.58-5.81c.42 0 .72-.22.72-.67 0-.44-.3-.68-.72-.68-.44 0-.72.24-.72.68 0 .45.28.67.72.67zm.5.8H1.52v.76h1.6v3.48h-1.8V0h4.46v-.77h-1.7zm0 0"/></symbol><symbol overflow="visible" id="e10d9dc0D"><path d="M3.9.14c1.48 0 2.18-.98 2.18-2.64 0-1.67-.7-2.66-2.17-2.66-.91 0-1.49.41-1.79 1h-.06v-2.98h-.95V0h.81l.11-.9h.06c.29.63.82 1.04 1.82 1.04zm-.32-.8c-1.08 0-1.55-.8-1.55-1.84 0-1.06.47-1.86 1.55-1.86 1.1 0 1.51.61 1.51 1.86S4.64-.66 3.58-.66zm0 0"/></symbol><symbol overflow="visible" id="e10d9dc0E"><path d="M3.92-7.14H1.36v.76h1.6v5.61H1.15V0H5.7v-.77H3.92zm0 0"/></symbol><symbol overflow="visible" id="e10d9dc0F"><path d="M3.9 0l2-5.02h-.96L3.4-.94h-.07L1.8-5.02H.77L2.78 0zm0 0"/></symbol><symbol overflow="visible" id="e10d9dc0G"><path d="M2.16 0v-2.69c0-.98.6-1.6 1.46-1.6.74 0 1.07.4 1.07 1.2V0h.95v-3.31c0-1.17-.56-1.85-1.67-1.85-.9 0-1.44.46-1.75 1.08h-.06v-3.06H1.2V0zm0 0"/></symbol><symbol overflow="visible" id="e10d9dc0H"><path d="M3.16 2.03c1.67 0 2.4-.86 2.4-2.51v-4.54h-.81l-.13.91h-.06c-.26-.58-.8-1.05-1.73-1.05-1.42 0-2.24 1-2.24 2.52 0 1.6.75 2.56 2.2 2.56.94 0 1.5-.5 1.77-1.03h.05v.72c0 1.17-.42 1.67-1.45 1.67-.93 0-1.3-.34-1.41-.89L.8.5c.12.96.87 1.54 2.36 1.54zM3.06-.8c-.98 0-1.48-.57-1.48-1.82 0-1.13.5-1.75 1.48-1.75 1.06 0 1.58.76 1.58 1.75 0 .95-.56 1.82-1.58 1.82zm0 0"/></symbol><symbol overflow="visible" id="e10d9dc0I"><path d="M3.42-.86h-.08L1.77-5.02H.8L2.73 0h.41c-.33.95-.72 1.27-1.45 1.27-.22 0-.49-.04-.69-.08l-.1.73c.2.06.58.11.87.11 1.2 0 1.7-.7 2.21-2.03l1.94-5.02H5zm0 0"/></symbol><symbol overflow="visible" id="e10d9dc0J"><path d="M2.06 1.9V-.84h.05c.28.58.8.97 1.77.97 1.5 0 2.2-.98 2.2-2.66 0-1.65-.7-2.64-2.19-2.64-.97 0-1.5.44-1.78 1.05h-.08l-.1-.9H1.1v6.9zm1.5-2.56c-1.06 0-1.53-.8-1.53-1.86 0-1.04.47-1.84 1.53-1.84 1.11 0 1.53.61 1.53 1.84 0 1.27-.42 1.86-1.53 1.86zm0 0"/></symbol><symbol overflow="visible" id="e10d9dc0K"><path d="M1.45-7.1c1.96.33 2.8 1.94 2.8 4.15 0 2.2-.84 3.8-2.8 4.17l.11.67c2.58-.47 3.67-2.28 3.67-4.84 0-2.55-1.09-4.36-3.67-4.85zm0 0"/></symbol></defs><g fill="#fff"><use xlink:href="#e10d9dc0a" x="165" y="141"/><use xlink:href="#e10d9dc0b" x="225" y="141"/><use xlink:href="#e10d9dc0c" x="255" y="141"/><use xlink:href="#e10d9dc0d" x="315" y="141"/><use xlink:href="#e10d9dc0e" x="345" y="141"/><use xlink:href="#e10d9dc0f" x="405" y="141"/><g><use xlink:href="#e10d9dc0g" x="259.5857" y="252"/><use xlink:href="#e10d9dc0h" x="266.2527" y="252"/><use xlink:href="#e10d9dc0i" x="272.9197" y="252"/><use xlink:href="#e10d9dc0j" x="279.5867" y="252"/><use xlink:href="#e10d9dc0k" x="286.2537" y="252"/><use xlink:href="#e10d9dc0l" x="292.9207" y="252"/><use xlink:href="#e10d9dc0m" x="299.5877" y="252"/><use xlink:href="#e10d9dc0n" x="306.2547" y="252"/><use xlink:href="#e10d9dc0o" x="312.9217" y="252"/></g><g><use xlink:href="#e10d9dc0p" x="320.4487" y="252"/><use xlink:href="#e10d9dc0q" x="327.0657" y="252"/><use xlink:href="#e10d9dc0r" x="334.1327" y="252"/></g><g><use xlink:href="#e10d9dc0s" x="133.3333" y="266"/><use xlink:href="#e10d9dc0h" x="140.0003" y="266"/><use xlink:href="#e10d9dc0t" x="146.6673" y="266"/><use xlink:href="#e10d9dc0j" x="153.3343" y="266"/><use xlink:href="#e10d9dc0u" x="160.0013" y="266"/><use xlink:href="#e10d9dc0v" x="166.6683" y="266"/><use xlink:href="#e10d9dc0h" x="173.3353" y="266"/><use xlink:href="#e10d9dc0k" x="180.0023" y="266"/><use xlink:href="#e10d9dc0l" x="186.6693" y="266"/><use xlink:href="#e10d9dc0w" x="193.3363" y="266"/><use xlink:href="#e10d9dc0v" x="200.0033" y="266"/><use xlink:href="#e10d9dc0v" x="206.6703" y="266"/><use xlink:href="#e10d9dc0x" x="213.3373" y="266"/><use xlink:href="#e10d9dc0y" x="220.0043" y="266"/><use xlink:href="#e10d9dc0z" x="226.6713" y="266"/><use xlink:href="#e10d9dc0l" x="233.3383" y="266"/><use xlink:href="#e10d9dc0A" x="240.0053" y="266"/><use xlink:href="#e10d9dc0t" x="246.6723" y="266"/><use xlink:href="#e10d9dc0B" x="253.3393" y="266"/><use xlink:href="#e10d9dc0B" x="260.0063" y="266"/><use xlink:href="#e10d9dc0h" x="266.6733" y="266"/><use xlink:href="#e10d9dc0z" x="273.3403" y="266"/><use xlink:href="#e10d9dc0z" x="280.0073" y="266"/><use xlink:href="#e10d9dc0C" x="286.6743" y="266"/><use xlink:href="#e10d9dc0D" x="293.3413" y="266"/><use xlink:href="#e10d9dc0E" x="300.0083" y="266"/><use xlink:href="#e10d9dc0h" x="306.6753" y="266"/><use xlink:href="#e10d9dc0l" x="313.3423" y="266"/><use xlink:href="#e10d9dc0F" x="320.0093" y="266"/><use xlink:href="#e10d9dc0C" x="326.6763" y="266"/><use xlink:href="#e10d9dc0t" x="333.3433" y="266"/><use xlink:href="#e10d9dc0l" x="340.0103" y="266"/><use xlink:href="#e10d9dc0j" x="346.6773" y="266"/><use xlink:href="#e10d9dc0G" x="353.3443" y="266"/><use xlink:href="#e10d9dc0h" x="360.0113" y="266"/><use xlink:href="#e10d9dc0l" x="366.6783" y="266"/><use xlink:href="#e10d9dc0H" x="373.3453" y="266"/><use xlink:href="#e10d9dc0E" x="380.0123" y="266"/><use xlink:href="#e10d9dc0I" x="386.6793" y="266"/><use xlink:href="#e10d9dc0J" x="393.3463" y="266"/><use xlink:href="#e10d9dc0G" x="400.0133" y="266"/><use xlink:href="#e10d9dc0l" x="406.6803" y="266"/><use xlink:href="#e10d9dc0J" x="413.3473" y="266"/><use xlink:href="#e10d9dc0t" x="420.0143" y="266"/><use xlink:href="#e10d9dc0E" x="426.6813" y="266"/><use xlink:href="#e10d9dc0h" x="433.3483" y="266"/><use xlink:href="#e10d9dc0j" x="440.0153" y="266"/><use xlink:href="#e10d9dc0j" x="446.6823" y="266"/><use xlink:href="#e10d9dc0h" x="453.3493" y="266"/><use xlink:href="#e10d9dc0K" x="460.0163" y="266"/></g></g></svg>