<?xml version='1.0' encoding='UTF-8'?>
<svg xmlns="http://www.w3.org/2000/svg" xmlns:xlink="http://www.w3.org/1999/xlink" width="600px" height="300px" viewBox="0 0 600 300" x="0px" y="0px" enable-background="new 0 0 600 300"><defs><symbol overflow="visible" id="33798ae8a"><path d="M14.52-7.73L19.27-12v-.36c-1.14-1.98-3.68-4.73-5.77-5.94h-.36l-4.73 4.38v.36a33.9 33.9 0 015.68 5.83zm0 0"/></symbol><symbol overflow="visible" id="33798ae8b"><path d="M4.8-34.02V2.94h3.25v-36.96zm0 0"/></symbol><symbol overflow="visible" id="33798ae8c"><path d="M10.31-27.6l-2.58 4.62c4.99 8.53 6.07 12.25 6.07 18.6 0 2.22-.11 3.6-.24 4.97h.17l2.54-1.5c.23-1.54.42-3.65.42-5.93 0-7.14-1.33-11.58-6.25-20.75zm0 0"/></symbol><symbol overflow="visible" id="33798ae8d"><path d="M4.92-27.6l-2.47 4.44c5.4 8.1 6.97 12.43 6.97 18.72C9.42-2.16 9.3-.78 9.2.6h.17l2.52-1.5c.24-1.54.42-3.65.42-5.93 0-4.25-.66-7.25-1.8-10.08l.06-.06a6.63 6.63 0 003.96 1.26c3.25 0 5.57-3.06 5.57-7.73 0-1.86-.53-3.68-1.18-3.9l-.68-.24c0 5.21-1.37 7.73-4.07 7.73-3 0-5.64-1.73-9.07-7.73zm0 0"/></symbol><symbol overflow="visible" id="33798ae8e"><path d="M5.1-27.6h-.18l-2.47 4.38c6.25 9.9 7.1 12.84 7.1 18.72 0 1.92-.13 3.55-.2 5.1h.13L12-.96c.23-1.63.42-4.63.42-7.1 0-2.87-.6-6.6-1.98-9.4l.06-.07c.84.72 1.8 1.2 2.88 1.2 1.5 0 2.4-.9 2.76-2.34h.13c.65 1.02 1.37 1.5 2.45 1.5 2.34 0 4.33-3.12 4.33-6.54 0-1.86-.55-3.36-1.2-3.66l-.5-.23c-.12 4.18-.94 6.36-2.63 6.36-2.1 0-1.5-3.43-2.64-6.36l-1.44.59c0 5.1-.72 6.36-2.4 6.36-1.87 0-4.44-2.28-7.15-6.95zm0 0"/></symbol><symbol overflow="visible" id="33798ae8f"><path d="M18.72-22.73l1.26-4.86c-4.2.23-8.53 1.9-11.28 4.5-2.1 1.96-3 5.09-3 6.53 0 2.7 3.53 4.98 8.46 6.25v.17C10.3-7.37 8.09-4.08 8.09-1.86c0 1.8.72 3.3 1.7 4.5 2.09 2.64 6.9 4.2 10.85 4.2 1.73 0 3.17-.3 4.5-.78l-1.08-4.5c-1.08.36-2.47.53-3.65.53-4.86 0-8.83-1.86-10.4-3.95 1.57-2.51 5.77-6 8.58-7.33l1.2-3.6-.1-.12c-4.82-.59-10.03-2.75-11.53-4.6 2.21-2.54 6.78-4.5 10.56-5.22zm0 0"/></symbol><symbol overflow="visible" id="33798ae8g"><path d="M24.13-11.64c0-6.95-5.47-14.52-9.43-14.52-5.28 0-10.32 9.24-10.32 15.47 0 3.42.78 5.11 1.43 6C7.27-2.7 10.08-1.3 13.38-1.3c3.78 0 7.07-1.5 8.93-4.1a11.07 11.07 0 001.82-6.23zM21.9-9.6c-1.33 1.54-4.2 2.87-8.29 2.87-3 0-5.93-1.26-7.03-2.83 1.1-6.3 4.57-11.1 7.46-11.1 3.23 0 6.76 4.45 7.86 11.06zm0 0"/></symbol><symbol overflow="visible" id="33798ae8h"><path d="M1.86-27.6a4.2 4.2 0 00-1.27 3c0 1.87 1.63 3.41 5.35 3.41 2.64 0 6.25-.6 8.15-1.12l.07.1c-.6 3.66-1.25 8.12-1.25 11.9 0 7.5 2.15 13.5 5.68 17.45h.2l2.09-5.28c-3.43-4.02-5.04-9.66-5.04-15.6 0-5.21.79-9.18 1.57-13.2l-.2-.12a38.32 38.32 0 01-9.29 1.08c-3.12 0-5.04-.6-6.06-1.61zm0 0"/></symbol><symbol overflow="visible" id="33798ae8i"><path d="M3.83 0v-5.95H6.2v-.82H.45v.82h2.4V0zm0 0"/></symbol><symbol overflow="visible" id="33798ae8j"><path d="M5.75-2.23v-.43c0-1.6-.9-2.51-2.42-2.51S.87-4.16.87-2.48c0 1.71.91 2.62 2.5 2.62 1.43 0 2.07-.56 2.29-1.52l-.9-.09c-.18.61-.59.9-1.35.9-.94 0-1.52-.54-1.58-1.66zm-2.4-2.2c.93 0 1.43.5 1.48 1.55H1.84c.08-1.07.6-1.56 1.5-1.56zm0 0"/></symbol><symbol overflow="visible" id="33798ae8k"><path d="M1.83 0l1.42-2h.06l1.46 2H5.8L4-2.53l1.78-2.49H4.8L3.42-3.08h-.08l-1.4-1.94H.89l1.78 2.49L.84 0zm0 0"/></symbol><symbol overflow="visible" id="33798ae8l"><path d="M5.52-4.25v-.77H3.17v-1.56h-.81l-.14 1.56H.75v.77h1.47v2.4c0 1.3.48 1.94 1.84 1.94C4.6.1 5.14 0 5.55-.14L5.4-.91c-.32.13-.72.2-1.13.2-.8 0-1.1-.37-1.1-1.23v-2.31zm0 0"/></symbol><symbol overflow="visible" id="33798ae8m"><path d="M3.33-3.42c.47 0 .8-.27.8-.8 0-.51-.33-.8-.8-.8-.47 0-.8.29-.8.8 0 .53.33.8.8.8zm0 3.5c.47 0 .8-.27.8-.78 0-.53-.33-.82-.8-.82-.47 0-.8.29-.8.82 0 .51.33.78.8.78zm0 0"/></symbol><symbol overflow="visible" id="33798ae8v"><path d="M5.95-6.77H1.1V0h.99v-2.92H5.3v-.77H2.08v-2.26h3.87zm0 0"/></symbol><symbol overflow="visible" id="33798ae8w"><path d="M2.83.14c.94 0 1.5-.39 1.81-.95h.08l.1.81h.76v-3.38c0-1.23-.69-1.8-2.13-1.8-1.43 0-2.03.65-2.18 1.6l.93.1c.11-.6.44-.93 1.22-.93.85 0 1.22.32 1.22 1.04v.34l-1.81.2C1.6-2.7 1.1-2.17 1.1-1.28c0 .92.64 1.42 1.72 1.42zm.25-.77c-.67 0-1.02-.28-1.02-.74 0-.44.28-.72 1-.82l1.58-.19v.41c0 .8-.6 1.34-1.56 1.34zm0 0"/></symbol><symbol overflow="visible" id="33798ae8x"><path d="M2.73.14c.9 0 1.43-.45 1.74-1.08h.06l.13.94h.8v-5.02h-.94v2.7c0 .98-.57 1.62-1.46 1.62-.75 0-1.1-.4-1.1-1.22v-3.1h-.93v3.32c0 1.17.55 1.84 1.7 1.84zm0 0"/></symbol><symbol overflow="visible" id="33798ae8y"><path d="M5.08-5.16c-.94 0-1.58.43-1.9 1.3h-.09l-.07-1.16H1.05v.77h1.1v3.48H.96V0h3.96v-.77H3.1v-1.46c0-1.36.6-2.05 1.83-2.05.4 0 .76.08 1.1.17l.15-.87c-.33-.11-.7-.18-1.11-.18zm0 0"/></symbol><symbol overflow="visible" id="33798ae8z"><path d="M3.9.14c1.48 0 2.18-.98 2.18-2.64 0-1.67-.7-2.66-2.17-2.66-.91 0-1.49.41-1.79 1h-.06v-2.98h-.95V0h.81l.11-.9h.06c.29.63.82 1.04 1.82 1.04zm-.32-.8c-1.08 0-1.55-.8-1.55-1.84 0-1.06.47-1.86 1.55-1.86 1.1 0 1.51.61 1.51 1.86S4.64-.66 3.58-.66zm0 0"/></symbol><symbol overflow="visible" id="33798ae8A"><path d="M3.92-7.14H1.36v.76h1.6v5.61H1.15V0H5.7v-.77H3.92zm0 0"/></symbol><symbol overflow="visible" id="33798ae8B"><path d="M2.16 0v-2.67c0-.99.59-1.63 1.46-1.63.74 0 1.07.38 1.07 1.22V0h.95v-3.31c0-1.2-.56-1.85-1.67-1.85-.92 0-1.49.46-1.77 1.08h-.06l-.12-.94H1.2V0zm0 0"/></symbol><symbol overflow="visible" id="33798ae8C"><path d="M3.16 2.03c1.67 0 2.4-.86 2.4-2.51v-4.54h-.81l-.13.91h-.06c-.26-.58-.8-1.05-1.73-1.05-1.42 0-2.24 1-2.24 2.52 0 1.6.75 2.56 2.2 2.56.94 0 1.5-.5 1.77-1.03h.05v.72c0 1.17-.42 1.67-1.45 1.67-.93 0-1.3-.34-1.41-.89L.8.5c.12.96.87 1.54 2.36 1.54zM3.06-.8c-.98 0-1.48-.57-1.48-1.82 0-1.13.5-1.75 1.48-1.75 1.06 0 1.58.76 1.58 1.75 0 .95-.56 1.82-1.58 1.82zm0 0"/></symbol><symbol overflow="visible" id="33798ae8D"><path d="M3.58-5.81c.42 0 .72-.22.72-.67 0-.44-.3-.68-.72-.68-.44 0-.72.24-.72.68 0 .45.28.67.72.67zm.5.8H1.52v.76h1.6v3.48h-1.8V0h4.46v-.77h-1.7zm0 0"/></symbol><symbol overflow="visible" id="33798ae8E"><path d="M6.17 0L3.98-6.77h-1.3L.5 0h.97l.44-1.47h2.78L5.16 0zM3.28-5.94h.08l1.1 3.74H2.15zm0 0"/></symbol><symbol overflow="visible" id="33798ae8F"><path d="M3.34.14c1.43 0 2.13-.66 2.25-1.78l-.89-.1c-.1.7-.5 1.08-1.34 1.08-1.03 0-1.52-.64-1.52-1.84 0-1.23.47-1.86 1.52-1.86.84 0 1.23.36 1.34 1.08l.9-.1c-.13-1.09-.82-1.78-2.26-1.78-1.56 0-2.46.97-2.46 2.66 0 1.66.9 2.64 2.46 2.64zm0 0"/></symbol><symbol overflow="visible" id="33798ae8G"><path d="M1.63 0v-2.9c0-.8.15-1.4.71-1.4.41 0 .55.3.55.88V0h.95v-2.9c0-.8.18-1.4.72-1.4.4 0 .57.3.57.88V0h.95v-3.63c0-.92-.28-1.53-1.11-1.53-.63 0-.95.41-1.1.9h-.06c-.1-.52-.44-.9-1.08-.9-.6 0-.93.41-1.06.9H1.6l-.23-.76H.67V0zm0 0"/></symbol><symbol overflow="visible" id="33798ae8H"><path d="M3.36.16c1.4 0 2.2-.6 2.2-1.57 0-.89-.54-1.22-1.47-1.39L3-3c-.67-.14-.86-.33-.86-.73 0-.5.4-.74 1.17-.74.83 0 1.19.27 1.27.8l.9-.05c-.12-1-.8-1.47-2.17-1.47-1.34 0-2.1.53-2.1 1.5 0 .81.45 1.22 1.52 1.44l1.04.2c.56.11.87.24.87.72 0 .52-.45.78-1.28.78-.95 0-1.36-.28-1.42-.87l-.9.06C1.07-.36 1.8.16 3.35.16zm0 0"/></symbol><symbol overflow="visible" id="33798ae8I"><path d="M1.45-2.95c0 2.56 1.08 4.37 3.67 4.84l.11-.67C3.28.86 2.43-.75 2.43-2.95s.85-3.82 2.8-4.16l-.1-.69c-2.6.49-3.68 2.3-3.68 4.85zm0 0"/></symbol><symbol overflow="visible" id="33798ae8J"><path d="M3.33.14c1.62 0 2.5-.95 2.5-2.66 0-1.68-.88-2.64-2.5-2.64-1.63 0-2.5.96-2.5 2.64 0 1.7.87 2.66 2.5 2.66zm0-.77c-1.06 0-1.52-.6-1.52-1.89 0-1.28.46-1.87 1.52-1.87 1.08 0 1.53.6 1.53 1.87 0 1.29-.45 1.9-1.53 1.9zm0 0"/></symbol><symbol overflow="visible" id="33798ae8K"><path d="M5.4-1.22c.43-.66.66-1.51.66-2.44l-.83-.09c0 .75-.14 1.4-.4 1.92l-1.7-1.83c.8-.42 1.39-.96 1.39-1.86 0-.87-.66-1.4-1.61-1.4-1.14 0-1.72.62-1.72 1.47 0 .72.47 1.3.83 1.68-.8.41-1.52.99-1.52 2.1C.5-.44 1.52.14 2.7.14c.9 0 1.64-.3 2.2-.78l.58.64h1.05zM2.86-6.25c.44 0 .82.23.82.73 0 .7-.47 1.11-1 1.41-.47-.53-.67-.92-.67-1.34 0-.47.3-.8.85-.8zM2.81-.62c-.83 0-1.42-.41-1.42-1.18 0-.76.5-1.18 1.05-1.5l1.94 2.1c-.4.37-.91.57-1.57.57zm0 0"/></symbol><symbol overflow="visible" id="33798ae8L"><path d="M3.34-1.52c-.51 0-.8.32-.8.82 0 .5.33.78.76.78-.1.4-.36.95-.7 1.39l.5.23A4.48 4.48 0 004.13-.64c0-.55-.3-.88-.78-.88zm0 0"/></symbol><symbol overflow="visible" id="33798ae8M"><path d="M.92-6.77V0h.99v-2.27h1.68c1.58 0 2.38-.65 2.38-2.2v-.14c0-1.51-.8-2.16-2.34-2.16zM5-4.47c0 1.05-.42 1.45-1.58 1.45H1.91v-2.96h1.51C4.58-5.98 5-5.66 5-4.61zm0 0"/></symbol><symbol overflow="visible" id="33798ae8N"><path d="M3.42-.86h-.08L1.77-5.02H.8L2.73 0h.41c-.33.95-.72 1.27-1.45 1.27-.22 0-.49-.04-.69-.08l-.1.73c.2.06.58.11.87.11 1.2 0 1.7-.7 2.21-2.03l1.94-5.02H5zm0 0"/></symbol><symbol overflow="visible" id="33798ae8O"><path d="M1.45-7.1c1.96.33 2.8 1.94 2.8 4.15 0 2.2-.84 3.8-2.8 4.17l.11.67c2.58-.47 3.67-2.28 3.67-4.84 0-2.55-1.09-4.36-3.67-4.85zm0 0"/></symbol><symbol overflow="visible" id="33798ae8o"><path d="M1.38-1.45l.68-.68L1.2-3l-.67.67zm0 0"/></symbol><symbol overflow="visible" id="33798ae8p"><path d="M1.14 0h.66c0-2.92-.1-3.38-.57-5.03L.52-5c.53 1.6.62 1.97.62 5zm0 0"/></symbol><symbol overflow="visible" id="33798ae8q"><path d="M1.14 0h.66c0-1.28-.02-2.08-.08-2.72.2.06.42.1.6.1 1 0 1.46-.66 1.46-1.77 0-.2-.01-.42-.05-.64l-.65.06c.03.25.04.45.04.63 0 .65-.21.96-.8.96-.52 0-.68-.09-.84-.75l-.25-.9L.52-5c.53 1.6.62 1.97.62 5zm0 0"/></symbol><symbol overflow="visible" id="33798ae8r"><path d="M1.14 0h.66c0-1.28-.02-2.08-.08-2.72.2.06.42.1.6.1.26 0 .48-.07.66-.2.24.12.63.2.82.2.84 0 1.22-.66 1.22-1.77 0-.19-.02-.42-.04-.64l-.6.06.01.47c0 .77-.14 1.13-.6 1.13-.15 0-.27-.02-.37-.05.1-.27.14-.58.14-.97 0-.2-.01-.42-.04-.64l-.66.06c.02.25.05.45.05.63 0 .65-.18.96-.6.96-.51 0-.67-.09-.83-.75l-.25-.9L.52-5c.53 1.6.62 1.97.62 5zm0 0"/></symbol><symbol overflow="visible" id="33798ae8s"><path d="M2.33.05c.31 0 .69-.03 1.1-.1L3.5-.8c-.5.08-.9.1-1.22.1-.86 0-1.08-.26-1.08-.59 0-.5.66-.87 1.78-1.22l.07-.76c-.4.19-.77.26-1.03.26-.49 0-.75-.18-.75-.4 0-.22.17-.66 1.15-.92l.06-.72C1.31-4.84.66-4.11.66-3.4c0 .36.2.7.6.89-.43.31-.74.78-.74 1.25 0 .83.59 1.3 1.8 1.3zm0 0"/></symbol><symbol overflow="visible" id="33798ae8t"><path d="M2.33-.22c1.2 0 1.76-.64 1.76-1.7 0-1.19-.67-2.74-1.8-2.74-1.09 0-1.77 1.5-1.77 2.7 0 1.1.6 1.74 1.8 1.74zm.01-.75C1.5-.97 1.17-1.34 1.17-2c0-.75.46-1.9 1.14-1.9.69 0 1.13 1.18 1.13 1.93 0 .7-.38 1-1.1 1zm0 0"/></symbol><symbol overflow="visible" id="33798ae8u"><path d="M2.84 0h.7c-.23-1-.29-1.83-.29-2.75 0-.67.03-1.4.08-2.28H.59l-.07.75h2.06l-.03 1.36c0 1 .08 1.84.3 2.92zm0 0"/></symbol></defs><use xlink:href="#33798ae8a" x="164.88" y="141" fill="#fff"/><use xlink:href="#33798ae8b" x="192.48" y="141" fill="#515151"/><use xlink:href="#33798ae8c" x="205.32" y="141" fill="#fff"/><use xlink:href="#33798ae8b" x="232.92" y="141" fill="#515151"/><use xlink:href="#33798ae8d" x="245.76" y="141" fill="#fff"/><use xlink:href="#33798ae8b" x="273.36" y="141" fill="#515151"/><use xlink:href="#33798ae8e" x="286.2" y="141" fill="#fff"/><use xlink:href="#33798ae8b" x="313.8" y="141" fill="#515151"/><use xlink:href="#33798ae8f" x="326.64" y="141" fill="#fff"/><use xlink:href="#33798ae8b" x="354.24" y="141" fill="#515151"/><use xlink:href="#33798ae8g" x="367.08" y="141" fill="#fff"/><use xlink:href="#33798ae8b" x="394.68" y="141" fill="#515151"/><use xlink:href="#33798ae8h" x="407.52" y="141" fill="#fff"/><g fill="#fff"><use xlink:href="#33798ae8i" x="267.1593" y="252"/><use xlink:href="#33798ae8j" x="273.8263" y="252"/><use xlink:href="#33798ae8k" x="280.4933" y="252"/><use xlink:href="#33798ae8l" x="287.1603" y="252"/><use xlink:href="#33798ae8m" x="293.8273" y="252"/><use xlink:href="#33798ae8n" x="300.4943" y="252"/></g><g fill="#fff"><use xlink:href="#33798ae8o" x="307.1593" y="252"/><use xlink:href="#33798ae8p" x="309.1813" y="252"/></g><use xlink:href="#33798ae8q" x="311.5033" y="252" fill="#fff"/><use xlink:href="#33798ae8r" x="315.7953" y="252" fill="#fff"/><use xlink:href="#33798ae8s" x="321.0773" y="252" fill="#fff"/><use xlink:href="#33798ae8t" x="324.8293" y="252" fill="#fff"/><use xlink:href="#33798ae8u" x="328.7813" y="252" fill="#fff"/><g fill="#fff"><use xlink:href="#33798ae8v" x="63.33333" y="266"/><use xlink:href="#33798ae8j" x="70.00033" y="266"/><use xlink:href="#33798ae8w" x="76.66733" y="266"/><use xlink:href="#33798ae8l" x="83.33433" y="266"/><use xlink:href="#33798ae8x" x="90.00133" y="266"/><use xlink:href="#33798ae8y" x="96.66833" y="266"/><use xlink:href="#33798ae8j" x="103.33533" y="266"/><use xlink:href="#33798ae8m" x="110.00233" y="266"/><use xlink:href="#33798ae8n" x="116.66933" y="266"/><use xlink:href="#33798ae8i" x="123.33633" y="266"/><use xlink:href="#33798ae8w" x="130.00333" y="266"/><use xlink:href="#33798ae8z" x="136.67033" y="266"/><use xlink:href="#33798ae8x" x="143.33733" y="266"/><use xlink:href="#33798ae8A" x="150.00433" y="266"/><use xlink:href="#33798ae8w" x="156.67133" y="266"/><use xlink:href="#33798ae8y" x="163.33833" y="266"/><use xlink:href="#33798ae8n" x="170.00533" y="266"/><use xlink:href="#33798ae8y" x="176.67233" y="266"/><use xlink:href="#33798ae8w" x="183.33933" y="266"/><use xlink:href="#33798ae8B" x="190.00633" y="266"/><use xlink:href="#33798ae8C" x="196.67333" y="266"/><use xlink:href="#33798ae8D" x="203.34033" y="266"/><use xlink:href="#33798ae8B" x="210.00733" y="266"/><use xlink:href="#33798ae8C" x="216.67433" y="266"/><use xlink:href="#33798ae8n" x="223.34133" y="266"/><use xlink:href="#33798ae8E" x="230.00833" y="266"/><use xlink:href="#33798ae8y" x="236.67533" y="266"/><use xlink:href="#33798ae8w" x="243.34233" y="266"/><use xlink:href="#33798ae8z" x="250.00933" y="266"/><use xlink:href="#33798ae8D" x="256.67633" y="266"/><use xlink:href="#33798ae8F" x="263.34333" y="266"/><use xlink:href="#33798ae8n" x="270.01033" y="266"/><use xlink:href="#33798ae8B" x="276.67733" y="266"/><use xlink:href="#33798ae8x" x="283.34433" y="266"/><use xlink:href="#33798ae8G" x="290.01133" y="266"/><use xlink:href="#33798ae8j" x="296.67833" y="266"/><use xlink:href="#33798ae8y" x="303.34533" y="266"/><use xlink:href="#33798ae8w" x="310.01233" y="266"/><use xlink:href="#33798ae8A" x="316.67933" y="266"/><use xlink:href="#33798ae8H" x="323.34633" y="266"/><use xlink:href="#33798ae8n" x="330.01333" y="266"/><use xlink:href="#33798ae8I" x="336.68033" y="266"/><use xlink:href="#33798ae8J" x="343.34733" y="266"/><use xlink:href="#33798ae8B" x="350.01433" y="266"/><use xlink:href="#33798ae8x" x="356.68133" y="266"/><use xlink:href="#33798ae8G" x="363.34833" y="266"/><use xlink:href="#33798ae8n" x="370.01533" y="266"/><use xlink:href="#33798ae8K" x="376.68233" y="266"/><use xlink:href="#33798ae8n" x="383.34933" y="266"/><use xlink:href="#33798ae8l" x="390.01633" y="266"/><use xlink:href="#33798ae8B" x="396.68333" y="266"/><use xlink:href="#33798ae8x" x="403.35033" y="266"/><use xlink:href="#33798ae8G" x="410.01733" y="266"/><use xlink:href="#33798ae8L" x="416.68433" y="266"/><use xlink:href="#33798ae8n" x="423.35133" y="266"/><use xlink:href="#33798ae8E" x="430.01833" y="266"/><use xlink:href="#33798ae8y" x="436.68533" y="266"/><use xlink:href="#33798ae8w" x="443.35233" y="266"/><use xlink:href="#33798ae8z" x="450.01933" y="266"/><use xlink:href="#33798ae8D" x="456.68633" y="266"/><use xlink:href="#33798ae8F" x="463.35333" y="266"/><use xlink:href="#33798ae8n" x="470.02033" y="266"/><use xlink:href="#33798ae8M" x="476.68733" y="266"/><use xlink:href="#33798ae8y" x="483.35433" y="266"/><use xlink:href="#33798ae8J" x="490.02133" y="266"/><use xlink:href="#33798ae8n" x="496.68833" y="266"/><use xlink:href="#33798ae8J" x="503.35533" y="266"/><use xlink:href="#33798ae8B" x="510.02233" y="266"/><use xlink:href="#33798ae8A" x="516.68933" y="266"/><use xlink:href="#33798ae8N" x="523.35633" y="266"/><use xlink:href="#33798ae8O" x="530.02333" y="266"/></g></svg>