<?xml version='1.0' encoding='UTF-8'?>
<svg xmlns="http://www.w3.org/2000/svg" xmlns:xlink="http://www.w3.org/1999/xlink" width="600px" height="300px" viewBox="0 0 600 300" x="0px" y="0px" enable-background="new 0 0 600 300"><defs><symbol overflow="visible" id="0ab9f6fba"><path d="M3.13-1.8L2.7 0h11.35l.36-1.8-4.2-.84V-20.1h5.45l.6-2.9H10.2v-1.24c0-2.9.24-4.57.72-5.83.72-.17 1.44-.24 2.52-.24 1.44 0 3.36.24 4.8.66l1.32-4.38h-.48c-9.06 0-13.2 2.58-13.38 11.04H1.2L.72-21.3l4.98 1.2v15.73c0 1.6-.72 2.21-2.58 2.57zm0 0"/></symbol><symbol overflow="visible" id="0ab9f6fbb"><path d="M7.8-32.81c-1.86 0-2.88.89-2.88 2.75 0 1.86.85 2.83 2.88 2.83 1.8 0 2.7-.97 2.7-2.83 0-1.8-.95-2.75-2.7-2.75zM2.94-1.8L2.52 0H13.5l.36-1.8-3.84-.84v-20.88l-8.1 1.02-.42 1.73 4.02.91v15.48c0 1.61-.72 2.22-2.58 2.58zm0 0"/></symbol><symbol overflow="visible" id="0ab9f6fbc"><path d="M2.94-1.8L2.52 0H13.5l.36-1.8-3.84-.84v-14.88c2.82-1.56 4.8-2.34 7.07-2.57 1.93.82 3 2.57 3 5.64v10.07c0 1.61-.71 2.22-2.51 2.58L17.09 0h10.99l.36-1.8-3.85-.84v-13.63c0-4.8-2.51-7.25-6.4-7.25-2.24 0-4.4.96-8.47 4.08l-1.08-4.08-6.72 1.02-.42 1.73 4.02.91v15.48c0 1.61-.72 2.22-2.58 2.58zm0 0"/></symbol><symbol overflow="visible" id="0ab9f6fbd"><path d="M18.95-.9l-.53-1.98c-.97.24-2.22.47-3.6.47-5.04 0-7.91-2.68-7.91-9 0-3.65.65-6.95 1.54-8.57.9-.36 2.47-.72 3.74-.72 1.6 0 2.75.36 3.53.97l.65 2.64h2.05l1.14-5.18a12.25 12.25 0 00-6.25-1.43c-6.4 0-11.22 5.76-11.22 13.5C2.1-3 6 .6 12.55.6c2.15 0 4.73-.6 6.4-1.5zm0 0"/></symbol><symbol overflow="visible" id="0ab9f6fbe"><path d="M2.58-20.64l2.47 3.42c2.51-2.22 4.8-3.66 6.53-4.2 2.04.84 3.3 2.87 3.3 6.65v.91C9-13.08 5.45-11.8 3.65-10.38A5.63 5.63 0 001.8-6.12c0 4.26 3.06 6.6 6.54 6.6 2.52 0 4.97-1.2 6.85-3.3.6 2.34 1.97 3.3 3.89 3.3 1.2 0 2.83-.9 3.6-1.92v-.78l-3.3-.9v-12.43c0-4.97-3.3-8.03-7.44-8.03-3.42 0-6.3.9-9.36 2.94zm12.3 9.42v2.45c0 1.63.06 3 .06 3.91a6.18 6.18 0 01-4.92 2.22c-2.52 0-3.72-1.5-3.72-4.08 0-1.33.25-2.47.65-3.3 1.4-.67 4.82-1.2 7.92-1.2zm0 0"/></symbol><symbol overflow="visible" id="0ab9f6fbf"><path d="M3.83 0v-5.95H6.2v-.82H.45v.82h2.4V0zm0 0"/></symbol><symbol overflow="visible" id="0ab9f6fbg"><path d="M5.75-2.23v-.43c0-1.6-.9-2.51-2.42-2.51S.87-4.16.87-2.48c0 1.71.91 2.62 2.5 2.62 1.43 0 2.07-.56 2.29-1.52l-.9-.09c-.18.61-.59.9-1.35.9-.94 0-1.52-.54-1.58-1.66zm-2.4-2.2c.93 0 1.43.5 1.48 1.55H1.84c.08-1.07.6-1.56 1.5-1.56zm0 0"/></symbol><symbol overflow="visible" id="0ab9f6fbh"><path d="M1.83 0l1.42-2h.06l1.46 2H5.8L4-2.53l1.78-2.49H4.8L3.42-3.08h-.08l-1.4-1.94H.89l1.78 2.49L.84 0zm0 0"/></symbol><symbol overflow="visible" id="0ab9f6fbi"><path d="M5.52-4.25v-.77H3.17v-1.56h-.81l-.14 1.56H.75v.77h1.47v2.4c0 1.3.48 1.94 1.84 1.94C4.6.1 5.14 0 5.55-.14L5.4-.91c-.32.13-.72.2-1.13.2-.8 0-1.1-.37-1.1-1.23v-2.31zm0 0"/></symbol><symbol overflow="visible" id="0ab9f6fbj"><path d="M3.33-3.42c.47 0 .8-.27.8-.8 0-.51-.33-.8-.8-.8-.47 0-.8.29-.8.8 0 .53.33.8.8.8zm0 3.5c.47 0 .8-.27.8-.78 0-.53-.33-.82-.8-.82-.47 0-.8.29-.8.82 0 .51.33.78.8.78zm0 0"/></symbol><symbol overflow="visible" id="0ab9f6fbl"><path d="M4.63-6.5c.45 0 .98.08 1.39.2l.2-.72a5.3 5.3 0 00-1.64-.26c-1.52 0-2.16.56-2.16 1.87v.4H.9v.76h1.53V0h.94v-4.25h2.53v-.77H3.36v-.3c0-.84.33-1.18 1.27-1.18zm0 0"/></symbol><symbol overflow="visible" id="0ab9f6fbm"><path d="M3.58-5.81c.42 0 .72-.22.72-.67 0-.44-.3-.68-.72-.68-.44 0-.72.24-.72.68 0 .45.28.67.72.67zm.5.8H1.52v.76h1.6v3.48h-1.8V0h4.46v-.77h-1.7zm0 0"/></symbol><symbol overflow="visible" id="0ab9f6fbn"><path d="M2.16 0v-2.67c0-.99.59-1.63 1.46-1.63.74 0 1.07.38 1.07 1.22V0h.95v-3.31c0-1.2-.56-1.85-1.67-1.85-.92 0-1.49.46-1.77 1.08h-.06l-.12-.94H1.2V0zm0 0"/></symbol><symbol overflow="visible" id="0ab9f6fbo"><path d="M3.34.14c1.43 0 2.13-.66 2.25-1.78l-.89-.1c-.1.7-.5 1.08-1.34 1.08-1.03 0-1.52-.64-1.52-1.84 0-1.23.47-1.86 1.52-1.86.84 0 1.23.36 1.34 1.08l.9-.1c-.13-1.09-.82-1.78-2.26-1.78-1.56 0-2.46.97-2.46 2.66 0 1.66.9 2.64 2.46 2.64zm0 0"/></symbol><symbol overflow="visible" id="0ab9f6fbp"><path d="M2.83.14c.94 0 1.5-.39 1.81-.95h.08l.1.81h.76v-3.38c0-1.23-.69-1.8-2.13-1.8-1.43 0-2.03.65-2.18 1.6l.93.1c.11-.6.44-.93 1.22-.93.85 0 1.22.32 1.22 1.04v.34l-1.81.2C1.6-2.7 1.1-2.17 1.1-1.28c0 .92.64 1.42 1.72 1.42zm.25-.77c-.67 0-1.02-.28-1.02-.74 0-.44.28-.72 1-.82l1.58-.19v.41c0 .8-.6 1.34-1.56 1.34zm0 0"/></symbol><symbol overflow="visible" id="0ab9f6fbq"><path d="M5.95-6.77H1.1V0h.99v-2.92H5.3v-.77H2.08v-2.26h3.87zm0 0"/></symbol><symbol overflow="visible" id="0ab9f6fbr"><path d="M2.73.14c.9 0 1.43-.45 1.74-1.08h.06l.13.94h.8v-5.02h-.94v2.7c0 .98-.57 1.62-1.46 1.62-.75 0-1.1-.4-1.1-1.22v-3.1h-.93v3.32c0 1.17.55 1.84 1.7 1.84zm0 0"/></symbol><symbol overflow="visible" id="0ab9f6fbs"><path d="M5.08-5.16c-.94 0-1.58.43-1.9 1.3h-.09l-.07-1.16H1.05v.77h1.1v3.48H.96V0h3.96v-.77H3.1v-1.46c0-1.36.6-2.05 1.83-2.05.4 0 .76.08 1.1.17l.15-.87c-.33-.11-.7-.18-1.11-.18zm0 0"/></symbol><symbol overflow="visible" id="0ab9f6fbt"><path d="M5.77-5.02H4.63L2.3-2.88h-.06v-4.26h-.94V0h.94v-2.31h.06L4.71 0h1.24L3.23-2.69zm0 0"/></symbol><symbol overflow="visible" id="0ab9f6fbu"><path d="M3.36.16c1.4 0 2.2-.6 2.2-1.57 0-.89-.54-1.22-1.47-1.39L3-3c-.67-.14-.86-.33-.86-.73 0-.5.4-.74 1.17-.74.83 0 1.19.27 1.27.8l.9-.05c-.12-1-.8-1.47-2.17-1.47-1.34 0-2.1.53-2.1 1.5 0 .81.45 1.22 1.52 1.44l1.04.2c.56.11.87.24.87.72 0 .52-.45.78-1.28.78-.95 0-1.36-.28-1.42-.87l-.9.06C1.07-.36 1.8.16 3.35.16zm0 0"/></symbol><symbol overflow="visible" id="0ab9f6fbv"><path d="M2.16 0v-2.69c0-.98.6-1.6 1.46-1.6.74 0 1.07.4 1.07 1.2V0h.95v-3.31c0-1.17-.56-1.85-1.67-1.85-.9 0-1.44.46-1.75 1.08h-.06v-3.06H1.2V0zm0 0"/></symbol><symbol overflow="visible" id="0ab9f6fbw"><path d="M2.58.95l2.39-8.67h-.9L1.7.95zm0 0"/></symbol><symbol overflow="visible" id="0ab9f6fbx"><path d="M3.42.14C5.1.14 5.9-.69 6.11-2.17l-.95-.1C4.96-1.19 4.5-.69 3.44-.69c-1.27 0-1.81-.94-1.81-2.69s.54-2.7 1.8-2.7c1.09 0 1.5.49 1.73 1.58l.93-.1c-.21-1.46-.95-2.3-2.62-2.3C1.53-6.9.62-5.6.62-3.38c0 2.2.91 3.51 2.8 3.51zm0 0"/></symbol><symbol overflow="visible" id="0ab9f6fby"><path d="M1.63 0v-2.9c0-.8.15-1.4.71-1.4.41 0 .55.3.55.88V0h.95v-2.9c0-.8.18-1.4.72-1.4.4 0 .57.3.57.88V0h.95v-3.63c0-.92-.28-1.53-1.11-1.53-.63 0-.95.41-1.1.9h-.06c-.1-.52-.44-.9-1.08-.9-.6 0-.93.41-1.06.9H1.6l-.23-.76H.67V0zm0 0"/></symbol><symbol overflow="visible" id="0ab9f6fbz"><path d="M1.45-2.95c0 2.56 1.08 4.37 3.67 4.84l.11-.67C3.28.86 2.43-.75 2.43-2.95s.85-3.82 2.8-4.16l-.1-.69c-2.6.49-3.68 2.3-3.68 4.85zm0 0"/></symbol><symbol overflow="visible" id="0ab9f6fbA"><path d="M3.92-7.14H1.36v.76h1.6v5.61H1.15V0H5.7v-.77H3.92zm0 0"/></symbol><symbol overflow="visible" id="0ab9f6fbB"><path d="M3.16 2.03c1.67 0 2.4-.86 2.4-2.51v-4.54h-.81l-.13.91h-.06c-.26-.58-.8-1.05-1.73-1.05-1.42 0-2.24 1-2.24 2.52 0 1.6.75 2.56 2.2 2.56.94 0 1.5-.5 1.77-1.03h.05v.72c0 1.17-.42 1.67-1.45 1.67-.93 0-1.3-.34-1.41-.89L.8.5c.12.96.87 1.54 2.36 1.54zM3.06-.8c-.98 0-1.48-.57-1.48-1.82 0-1.13.5-1.75 1.48-1.75 1.06 0 1.58.76 1.58 1.75 0 .95-.56 1.82-1.58 1.82zm0 0"/></symbol><symbol overflow="visible" id="0ab9f6fbC"><path d="M1.45-7.1c1.96.33 2.8 1.94 2.8 4.15 0 2.2-.84 3.8-2.8 4.17l.11.67c2.58-.47 3.67-2.28 3.67-4.84 0-2.55-1.09-4.36-3.67-4.85zm0 0"/></symbol></defs><use xlink:href="#0ab9f6fba" x="231.09" y="141" fill="#fff"/><use xlink:href="#0ab9f6fbb" x="250.89" y="141" fill="#fff"/><g fill="#515151"><use xlink:href="#0ab9f6fbc" x="265.95" y="141"/><use xlink:href="#0ab9f6fbd" x="295.47" y="141"/><use xlink:href="#0ab9f6fbe" x="315.81" y="141"/><use xlink:href="#0ab9f6fbc" x="339.39" y="141"/></g><g fill="#fff"><use xlink:href="#0ab9f6fbf" x="260" y="252"/><use xlink:href="#0ab9f6fbg" x="266.667" y="252"/><use xlink:href="#0ab9f6fbh" x="273.334" y="252"/><use xlink:href="#0ab9f6fbi" x="280.001" y="252"/><use xlink:href="#0ab9f6fbj" x="286.668" y="252"/><use xlink:href="#0ab9f6fbk" x="293.335" y="252"/><use xlink:href="#0ab9f6fbl" x="300.002" y="252"/><use xlink:href="#0ab9f6fbm" x="306.669" y="252"/><use xlink:href="#0ab9f6fbn" x="313.336" y="252"/><use xlink:href="#0ab9f6fbo" x="320.003" y="252"/><use xlink:href="#0ab9f6fbp" x="326.67" y="252"/><use xlink:href="#0ab9f6fbn" x="333.337" y="252"/></g><g fill="#fff"><use xlink:href="#0ab9f6fbq" x="150" y="266"/><use xlink:href="#0ab9f6fbg" x="156.667" y="266"/><use xlink:href="#0ab9f6fbp" x="163.334" y="266"/><use xlink:href="#0ab9f6fbi" x="170.001" y="266"/><use xlink:href="#0ab9f6fbr" x="176.668" y="266"/><use xlink:href="#0ab9f6fbs" x="183.335" y="266"/><use xlink:href="#0ab9f6fbg" x="190.002" y="266"/><use xlink:href="#0ab9f6fbj" x="196.669" y="266"/><use xlink:href="#0ab9f6fbk" x="203.336" y="266"/><use xlink:href="#0ab9f6fbf" x="210.003" y="266"/><use xlink:href="#0ab9f6fbr" x="216.67" y="266"/><use xlink:href="#0ab9f6fbs" x="223.337" y="266"/><use xlink:href="#0ab9f6fbt" x="230.004" y="266"/><use xlink:href="#0ab9f6fbm" x="236.671" y="266"/><use xlink:href="#0ab9f6fbu" x="243.338" y="266"/><use xlink:href="#0ab9f6fbv" x="250.005" y="266"/><use xlink:href="#0ab9f6fbw" x="256.672" y="266"/><use xlink:href="#0ab9f6fbx" x="263.339" y="266"/><use xlink:href="#0ab9f6fbs" x="270.006" y="266"/><use xlink:href="#0ab9f6fbm" x="276.673" y="266"/><use xlink:href="#0ab9f6fby" x="283.34" y="266"/><use xlink:href="#0ab9f6fbg" x="290.007" y="266"/><use xlink:href="#0ab9f6fbp" x="296.674" y="266"/><use xlink:href="#0ab9f6fbn" x="303.341" y="266"/><use xlink:href="#0ab9f6fbk" x="310.008" y="266"/><use xlink:href="#0ab9f6fbf" x="316.675" y="266"/><use xlink:href="#0ab9f6fbp" x="323.342" y="266"/><use xlink:href="#0ab9f6fbi" x="330.009" y="266"/><use xlink:href="#0ab9f6fbp" x="336.676" y="266"/><use xlink:href="#0ab9f6fbs" x="343.343" y="266"/><use xlink:href="#0ab9f6fbk" x="350.01" y="266"/><use xlink:href="#0ab9f6fbz" x="356.677" y="266"/><use xlink:href="#0ab9f6fbu" x="363.344" y="266"/><use xlink:href="#0ab9f6fbg" x="370.011" y="266"/><use xlink:href="#0ab9f6fbi" x="376.678" y="266"/><use xlink:href="#0ab9f6fbk" x="383.345" y="266"/><use xlink:href="#0ab9f6fbA" x="390.012" y="266"/><use xlink:href="#0ab9f6fbp" x="396.679" y="266"/><use xlink:href="#0ab9f6fbn" x="403.346" y="266"/><use xlink:href="#0ab9f6fbB" x="410.013" y="266"/><use xlink:href="#0ab9f6fbr" x="416.68" y="266"/><use xlink:href="#0ab9f6fbp" x="423.347" y="266"/><use xlink:href="#0ab9f6fbB" x="430.014" y="266"/><use xlink:href="#0ab9f6fbg" x="436.681" y="266"/><use xlink:href="#0ab9f6fbC" x="443.348" y="266"/></g></svg>