<?xml version='1.0' encoding='UTF-8'?>
<svg xmlns="http://www.w3.org/2000/svg" xmlns:xlink="http://www.w3.org/1999/xlink" width="600px" height="300px" viewBox="0 0 600 300" x="0px" y="0px" enable-background="new 0 0 600 300"><defs><symbol overflow="visible" id="226c9c58a"><path d="M7.02-16.31l-1.08.76c-.85.61-1.74 3.32-1.74 6.36 0 6.74 3.66 10.27 15.66 10.27 10.14 0 18.36-3 23.45-7.56 0 5.1 2.53 6.9 6.9 6.9.91 0 1.8-.9 1.8-2.4s-.88-2.33-1.8-2.33c-3.05 0-4.73-1.27-5.27-3.74l2.1-3.04v-.07l-1.45-.18C40.44-6.6 32.87-3.91 22.56-3.91 11.1-3.9 6.72-6.42 6.72-13.37c0-.61.06-2.11.3-2.94zm15.54 27.36l2.88-3.61c-1.14-.66-3-1.99-3.96-3.24l-2.93 3.6c.95 1.39 2.75 2.7 4.01 3.25zm0 0"/></symbol><symbol overflow="visible" id="226c9c58b"><path d="M8.16-20.45l-2.35 3c.07 2.45.67 6.53 1.33 9.17C5.45-5.58 3.48-4.31 0-4.31c-.95 0-1.63.83-1.63 2.33C-1.63-.36-.9.42 0 .42c4.2 0 6.84-2.15 8.4-5.83h.12c1.56 3.55 4.32 5.83 9.3 5.83V-4.3c-4.62 0-7.98-2.7-9.48-16.1zm2.21 31.6l2.9-3.59A15.2 15.2 0 019.3 4.31L6.36 7.92c.95 1.38 2.76 2.7 4.01 3.24zm0 0"/></symbol><symbol overflow="visible" id="226c9c58c"><path d="M8.4-19.86L5.29-14.7c1.31 1.75 2.45 4.98 2.94 8.47C6.06-4.98 3.66-4.31 0-4.31c-1.02 0-1.63.95-1.63 2.39C-1.63-.2-.9.42 0 .42c3.66 0 6.9-1.2 8.64-3.65 1.67-2.41 2.4-5.11 2.4-7.27 0-3.23-.9-6.78-2.63-9.36zm-.78 30.9l2.88-3.6c-1.14-.66-3-1.99-3.95-3.24L3.59 7.8c.97 1.39 2.77 2.7 4.04 3.25zm0 0"/></symbol><symbol overflow="visible" id="226c9c58e"><path d="M17.4-8.45l-2.17 3.53C16.31-3.6 17.52-1.14 17.7.12c-1.56 3.72-6.54 7.93-15.18 10.32l.84 1.2 7.69.95c6.1-3.23 9-9 9-13.5 0-1.37-.36-2.64-.78-3.59 4.43-.19 7.92-1.73 9.78-3.42l.76-3.24-.36-.06c-2.26 1.44-5.57 2.45-12.04 2.77zm0 0"/></symbol><symbol overflow="visible" id="226c9c58f"><path d="M12.23-4.31c-3.42-.25-4.8-1.69-6.1-6.85l-.36-.06-1.99 1.38C4.73-2.16 7.5.42 15.48.42 22.5.42 27.6-.59 31.44-2.4A9.02 9.02 0 0038.22.42c.9 0 1.8-.9 1.8-2.4s-.9-2.33-1.8-2.33c-1.8 0-2.88-.13-4.08-.49 1.5-2.04 2.52-4.2 2.52-5.47 0-4.6-3.3-8.51-6.96-8.51-5.57 0-12.78 6.84-17.47 14.47zm21.49-3c-3.06 1.9-8.34 3-17.52 3h-1.26c3.9-5.05 9.65-9.74 13.14-9.74 2.94 0 5.1 2.53 5.64 6.74zm0 0"/></symbol><symbol overflow="visible" id="226c9c58g"><path d="M6.3-22.98l-3.42 4.03C5.33-13.8 6.58-8.77 6.71-5.45 5.52-4.8 3-4.31 0-4.31c-1.02 0-1.63.95-1.63 2.39C-1.63-.2-.9.42 0 .42c3.13 0 5.94-.97 7.31-2.64C8.64-3.78 9.3-6.3 9.3-9.3c0-3.48-1.02-8.76-3-13.68zm1.33 34.03l2.87-3.61c-1.14-.66-3-1.99-3.95-3.24L3.59 7.8c.97 1.39 2.77 2.7 4.04 3.25zm0 0"/></symbol><symbol overflow="visible" id="226c9c58h"><path d="M18.78-11.77l-2.1.85c-1.5 4.62-2.95 6.36-5.04 6.36-2.64 0-4.2-1.38-5.52-6.6l-.35-.06-2.18 2.1C4.63-2.53 7.2.18 11.16.18c2.7 0 4.68-1.98 5.82-4.87.9 3 2.7 4.57 4.74 4.57 2.22 0 4.33-1.57 5.58-5.1 1.39 3.6 3.9 5.64 7.26 5.64.9 0 1.8-.9 1.8-2.4s-.9-2.33-1.8-2.33c-3.19 0-5.15-2.35-5.7-5.64l.48-2.53-2.53.96c-1.01 4.14-2.33 6.66-4.5 6.66-1.8 0-3.47-1.86-3.89-4.8zm0 0"/></symbol><symbol overflow="visible" id="226c9c58i"><path d="M5.88-3l-1.15.72C3.48-1.5 2.1 1.2 2.1 4.69c0 7.18 4.04 12 11.77 12 8.1 0 13.8-3.19 16.86-9.13.78-1.5.9-2.47.9-3.25 0-1.12-.6-2.75-3.84-3.47l-8.1-1.86v-.12c.41-.6 1.26-1.8 1.55-2.1a6.59 6.59 0 001.57-3.71c0-.97-.36-1.57-.78-1.57-.24 0-.43.07-.79.43-2.03 1.73-3.89 5.64-3.89 8.03 0 1.98.79 3.19 4.14 3.84 5.64 1.08 6.96 1.44 7.8 1.8v.06c-2.7 3.78-7.08 6.06-14.51 6.06-6.43 0-9.91-3-9.91-9.18C4.86.06 5.22-1.5 5.87-3zM17.4 25.14l2.75-3.66c-1.14-.54-3-1.86-4.02-3.06l-2.34 3.36a13.75 13.75 0 01-3.24-2.94L7.8 22.5a11.04 11.04 0 004.01 3.06l2.05-3c.95 1.02 2.45 2.1 3.55 2.58zm0 0"/></symbol><symbol overflow="visible" id="226c9c58j"><path d="M32.52-17.58l-2.16 4.56a13.16 13.16 0 013.3 8.04c-4.2 0-7.14-2.29-8.46-5.52l.43-2.28-2.11.6c-1.68 6.37-3.18 7.87-4.97 7.87-2.24 0-4.46-1.2-6.49-4.46-1.69-2.64-3.12-3.53-5.04-3.53-2.4 0-5.46 1.99-7.38 4.38-1.5 1.86-1.8 3-1.8 3.78 0 1.01.36 1.33 1.14 1.33.36 0 .72-.06 1.02-.42C2.45-6.2 4.92-7.98 6.72-7.98c1.56 0 2.05.67 3.66 3.3C12.71-.85 14.93.41 17.8.41c2.64 0 4.57-1.73 6-6.23 1.5 3.36 4.5 5.58 7.46 5.58 1.37 0 2.51-.85 3.78-3.36a11.06 11.06 0 001.14-5.22c0-2.47-1.46-6.38-3.67-8.77zm0 0"/></symbol><symbol overflow="visible" id="226c9c58k"><path d="M23.16-2.05c0-1.5-.85-2.26-1.8-2.26-2.7 0-3.9-.85-6.72-4.82C12.78-12 11.22-13.2 9-13.2c-3.06 0-6.66 1.98-9.36 5.28-1.5 1.86-1.8 3-1.8 3.78 0 1.01.36 1.33 1.14 1.33.36 0 .72-.06 1.02-.42C3.36-7.2 5.81-8.87 8.28-8.87c1.63 0 2.45 1.07 4.14 3.89 2.46 3.84 5.1 5.4 8.94 5.4.9 0 1.8-.9 1.8-2.47zM13.2 21.48l2.88-3.6c-1.14-.66-3-1.97-3.95-3.24l-2.94 3.6c.95 1.39 2.75 2.7 4.01 3.24zm0 0"/></symbol><symbol overflow="visible" id="226c9c58l"><path d="M7.31-7.44l-1.12.72C4.92-5.94 3.59-3 3.59.48c0 7.5 4.27 11.88 12.61 11.88 8.82 0 14.22-3.13 16.8-8.4.66-1.38.84-2.58.84-3.12 0-2.34-5.4-6.06-11.82-7.68A8.65 8.65 0 0020.4-3c4.73 1.02 8.87 3.36 10.9 5.58-2.22 2.87-7.01 4.8-13.9 4.8-6.79 0-11.05-3.36-11.05-9.3 0-2.46.3-4.02.95-5.52zM19.8 21.6l2.76-3.65c-1.14-.53-3-1.86-4.01-3.07l-2.35 3.36a13.82 13.82 0 01-3.25-2.93l-2.75 3.65a10.47 10.47 0 004.02 3.07l2.05-3c.95 1.03 2.45 2.1 3.53 2.57zm0 0"/></symbol><symbol overflow="visible" id="226c9c58m"><path d="M.95-28.56l2.9-3.6A15.2 15.2 0 01-.14-35.4l-2.93 3.61c.97 1.38 2.76 2.7 4.01 3.24zM6.85-9.2C5.93-7.44 3.9-6.42 1.8-6.42c-1.02 0-1.93-.17-2.88-.42-.48.9-.72 1.56-.72 2.46 0 .9 1.02 1.68 2.46 1.68 2.89 0 5.21-.96 6.9-3.24 1.2-1.62 1.63-3.6 1.63-6.6 0-7.55-3.97-13.26-7.88-13.26-3.3 0-6.4 4.44-6.4 8.1 0 3.97 2.87 6.9 6.59 6.9a7.1 7.1 0 004.86-2.4c.19.9.36 2.34.48 4.01zm-9.91-8.58c.6-2.03 2.04-3.53 3.9-3.53 1.97 0 4.32 1.99 4.86 5.28-.6.47-2.4.96-3.84.96-2.22 0-4.02-.9-4.92-2.7zm0 0"/></symbol><symbol overflow="visible" id="226c9c58n"><path d="M3.83 0v-5.95H6.2v-.82H.45v.82h2.4V0zm0 0"/></symbol><symbol overflow="visible" id="226c9c58o"><path d="M5.75-2.23v-.43c0-1.6-.9-2.51-2.42-2.51S.87-4.16.87-2.48c0 1.71.91 2.62 2.5 2.62 1.43 0 2.07-.56 2.29-1.52l-.9-.09c-.18.61-.59.9-1.35.9-.94 0-1.52-.54-1.58-1.66zm-2.4-2.2c.93 0 1.43.5 1.48 1.55H1.84c.08-1.07.6-1.56 1.5-1.56zm0 0"/></symbol><symbol overflow="visible" id="226c9c58p"><path d="M1.83 0l1.42-2h.06l1.46 2H5.8L4-2.53l1.78-2.49H4.8L3.42-3.08h-.08l-1.4-1.94H.89l1.78 2.49L.84 0zm0 0"/></symbol><symbol overflow="visible" id="226c9c58q"><path d="M5.52-4.25v-.77H3.17v-1.56h-.81l-.14 1.56H.75v.77h1.47v2.4c0 1.3.48 1.94 1.84 1.94C4.6.1 5.14 0 5.55-.14L5.4-.91c-.32.13-.72.2-1.13.2-.8 0-1.1-.37-1.1-1.23v-2.31zm0 0"/></symbol><symbol overflow="visible" id="226c9c58r"><path d="M3.33-3.42c.47 0 .8-.27.8-.8 0-.51-.33-.8-.8-.8-.47 0-.8.29-.8.8 0 .53.33.8.8.8zm0 3.5c.47 0 .8-.27.8-.78 0-.53-.33-.82-.8-.82-.47 0-.8.29-.8.82 0 .51.33.78.8.78zm0 0"/></symbol><symbol overflow="visible" id="226c9c58C"><path d="M5.95-6.77H1.1V0h.99v-2.92H5.3v-.77H2.08v-2.26h3.87zm0 0"/></symbol><symbol overflow="visible" id="226c9c58D"><path d="M2.83.14c.94 0 1.5-.39 1.81-.95h.08l.1.81h.76v-3.38c0-1.23-.69-1.8-2.13-1.8-1.43 0-2.03.65-2.18 1.6l.93.1c.11-.6.44-.93 1.22-.93.85 0 1.22.32 1.22 1.04v.34l-1.81.2C1.6-2.7 1.1-2.17 1.1-1.28c0 .92.64 1.42 1.72 1.42zm.25-.77c-.67 0-1.02-.28-1.02-.74 0-.44.28-.72 1-.82l1.58-.19v.41c0 .8-.6 1.34-1.56 1.34zm0 0"/></symbol><symbol overflow="visible" id="226c9c58E"><path d="M2.73.14c.9 0 1.43-.45 1.74-1.08h.06l.13.94h.8v-5.02h-.94v2.7c0 .98-.57 1.62-1.46 1.62-.75 0-1.1-.4-1.1-1.22v-3.1h-.93v3.32c0 1.17.55 1.84 1.7 1.84zm0 0"/></symbol><symbol overflow="visible" id="226c9c58F"><path d="M5.08-5.16c-.94 0-1.58.43-1.9 1.3h-.09l-.07-1.16H1.05v.77h1.1v3.48H.96V0h3.96v-.77H3.1v-1.46c0-1.36.6-2.05 1.83-2.05.4 0 .76.08 1.1.17l.15-.87c-.33-.11-.7-.18-1.11-.18zm0 0"/></symbol><symbol overflow="visible" id="226c9c58G"><path d="M3.42.14C5.1.14 5.9-.69 6.11-2.17l-.95-.1C4.96-1.19 4.5-.69 3.44-.69c-1.27 0-1.81-.94-1.81-2.69s.54-2.7 1.8-2.7c1.09 0 1.5.49 1.73 1.58l.93-.1c-.21-1.46-.95-2.3-2.62-2.3C1.53-6.9.62-5.6.62-3.38c0 2.2.91 3.51 2.8 3.51zm0 0"/></symbol><symbol overflow="visible" id="226c9c58H"><path d="M3.33.14c1.62 0 2.5-.95 2.5-2.66 0-1.68-.88-2.64-2.5-2.64-1.63 0-2.5.96-2.5 2.64 0 1.7.87 2.66 2.5 2.66zm0-.77c-1.06 0-1.52-.6-1.52-1.89 0-1.28.46-1.87 1.52-1.87 1.08 0 1.53.6 1.53 1.87 0 1.29-.45 1.9-1.53 1.9zm0 0"/></symbol><symbol overflow="visible" id="226c9c58I"><path d="M2.16 0v-2.67c0-.99.59-1.63 1.46-1.63.74 0 1.07.38 1.07 1.22V0h.95v-3.31c0-1.2-.56-1.85-1.67-1.85-.92 0-1.49.46-1.77 1.08h-.06l-.12-.94H1.2V0zm0 0"/></symbol><symbol overflow="visible" id="226c9c58J"><path d="M3.92-7.14H1.36v.76h1.6v5.61H1.15V0H5.7v-.77H3.92zm0 0"/></symbol><symbol overflow="visible" id="226c9c58K"><path d="M3.36.16c1.4 0 2.2-.6 2.2-1.57 0-.89-.54-1.22-1.47-1.39L3-3c-.67-.14-.86-.33-.86-.73 0-.5.4-.74 1.17-.74.83 0 1.19.27 1.27.8l.9-.05c-.12-1-.8-1.47-2.17-1.47-1.34 0-2.1.53-2.1 1.5 0 .81.45 1.22 1.52 1.44l1.04.2c.56.11.87.24.87.72 0 .52-.45.78-1.28.78-.95 0-1.36-.28-1.42-.87l-.9.06C1.07-.36 1.8.16 3.35.16zm0 0"/></symbol><symbol overflow="visible" id="226c9c58L"><path d="M1.45-2.95c0 2.56 1.08 4.37 3.67 4.84l.11-.67C3.28.86 2.43-.75 2.43-2.95s.85-3.82 2.8-4.16l-.1-.69c-2.6.49-3.68 2.3-3.68 4.85zm0 0"/></symbol><symbol overflow="visible" id="226c9c58M"><path d="M3.34.14c1.43 0 2.13-.66 2.25-1.78l-.89-.1c-.1.7-.5 1.08-1.34 1.08-1.03 0-1.52-.64-1.52-1.84 0-1.23.47-1.86 1.52-1.86.84 0 1.23.36 1.34 1.08l.9-.1c-.13-1.09-.82-1.78-2.26-1.78-1.56 0-2.46.97-2.46 2.66 0 1.66.9 2.64 2.46 2.64zm0 0"/></symbol><symbol overflow="visible" id="226c9c58N"><path d="M1.45-7.1c1.96.33 2.8 1.94 2.8 4.15 0 2.2-.84 3.8-2.8 4.17l.11.67c2.58-.47 3.67-2.28 3.67-4.84 0-2.55-1.09-4.36-3.67-4.85zm0 0"/></symbol><symbol overflow="visible" id="226c9c58t"><path d="M1.58 0h4.94v-.75h-.44c-.1 0-.1 0-.1-.1l-.12-1.84-.64.03.12 1.8c0 .11 0 .11-.09.11H1.72c-.61 0-.61 0-.61-.56v-1.31H.44v1.48C.44-.31.8 0 1.58 0zm1.9 1.73l.38-.5-.64-.5-.38.52zm0 0"/></symbol><symbol overflow="visible" id="226c9c58u"><path d="M0 0h2.66v-.75h-.44c-.06 0-.08 0-.1-.03l-.01-.06-.13-1.85-.64.03.13 1.8v.1l-.1.01H0c-.3 0-.38.13-.38.36 0 .27.08.39.38.39zm1.1 1.73l.37-.5-.64-.5-.4.52zm0 0"/></symbol><symbol overflow="visible" id="226c9c58v"><path d="M0 0h1c.8 0 1.08-.34 1.08-1.1v-.26L1.94-3l-.67.06.15 1.61.02.31c0 .27-.1.27-.52.27H0c-.3 0-.38.13-.38.36 0 .27.08.39.38.39zm.98 1.73l.38-.5-.64-.5-.38.52zm0 0"/></symbol><symbol overflow="visible" id="226c9c58w"><path d="M.19 1.77c1.3 0 1.8-.65 1.92-1.8.17.03.34.03.47.03h.17v-.75h-.5c-.1 0-.1 0-.1-.1 0-.54-.04-1.15-.1-1.84l-.67.06c.06.68.12 1.41.12 1.97 0 1.25-.33 1.7-1.5 1.7-.08 0-.14 0-.22-.02l.08.73.33.02zm0 0"/></symbol><symbol overflow="visible" id="226c9c58x"><path d="M0 0h6.08v-.75H5.5c.02-.1.02-.22.02-.36 0-1.2-.64-2.01-1.61-2.01-.66 0-1 .25-2.33 1.42l-.08-.96-.63.04.1 1.4c.03.47-.1.47-.55.47H0c-.3 0-.38.13-.38.36 0 .27.08.39.38.39zm1.45-.75C3.02-2.13 3.27-2.38 3.9-2.38c.64 0 1.03.47 1.03 1.24 0 .34-.06.39-.48.39zm0 0"/></symbol><symbol overflow="visible" id="226c9c58y"><path d="M0 0h2.42c.33 0 .56-.08.7-.25.15.17.38.25.7.25H5.7v-.75h-.43c-.1 0-.1 0-.1-.1-.04-.6-.1-1.2-.12-1.8l-.64.02.1 1.77c.02.11.02.11-.09.11h-.51c-.32 0-.43 0-.43-.36v-1.51h-.64v1.53c0 .32-.09.34-.42.34h-.64c-.1 0-.1 0-.08-.1l.14-1.77-.64-.04-.14 1.82c0 .09 0 .09-.1.09H0c-.3 0-.38.13-.38.36 0 .27.08.39.38.39zm0 0"/></symbol><symbol overflow="visible" id="226c9c58z"><path d="M2.7 1.9c1.16 0 2.14-.63 2.14-1.6 0-.1-.01-.2-.04-.3h.3v-.75H2.9L2.8 0h.48c.8 0 .95.17.95.36 0 .3-.46.78-1.53.78-1.26 0-1.6-.5-1.6-1.34 0-.38.07-.8.18-1.28l-.64-.08c-.12.51-.19 1-.19 1.45 0 1.2.6 2.02 2.25 2.02zm-.34 1.7l.34-.48.6.46.36-.47-.6-.47-.36.47-.6-.45-.35.46zm0 0"/></symbol><symbol overflow="visible" id="226c9c58A"><path d="M0 0h2.42c.33 0 .56-.08.7-.25.16.19.4.25.74.25h.28c.83 0 1.1-.38 1.1-1.08 0-.1 0-.19-.02-.28L5.1-2.69l-.67.06c.04.49.1.96.12 1.3.02.14.02.24.02.31 0 .27-.1.27-.52.27h-.15c-.32 0-.43 0-.43-.36v-1.51h-.64v1.53c0 .32-.09.34-.42.34h-.64c-.1 0-.1 0-.08-.1l.14-1.77-.64-.04-.14 1.82c0 .09 0 .09-.1.09H0c-.3 0-.38.13-.38.36 0 .27.08.39.38.39zm0 0"/></symbol><symbol overflow="visible" id="226c9c58B"><path d="M1.67-4.75l.38-.5-.64-.48-.4.5zM0 0h1.4c1.23 0 1.82-.08 1.82-1.81v-.33C3.22-3.36 2.7-4 1.9-4 1.03-4 .56-3.28.56-2.48c0 .82.44 1.21 1.5 1.21.22 0 .4-.01.55-.03-.05.55-.27.55-.84.55H0c-.3 0-.38.13-.38.36 0 .27.08.39.38.39zm2.06-1.95c-.67 0-.92-.16-.92-.58 0-.4.25-.74.69-.74.56 0 .8.38.8 1.2 0 .1 0 .1-.1.1-.1.02-.28.02-.47.02zm0 0"/></symbol></defs><g fill="#fff"><use xlink:href="#226c9c58a" x="85.89" y="141"/><use xlink:href="#226c9c58b" x="136.11" y="141"/><use xlink:href="#226c9c58c" x="153.93" y="141"/><use xlink:href="#226c9c58d" x="167.73" y="141"/><use xlink:href="#226c9c58e" x="176.13" y="141"/><use xlink:href="#226c9c58f" x="199.83" y="141"/><use xlink:href="#226c9c58g" x="238.05" y="141"/><use xlink:href="#226c9c58d" x="250.05" y="141"/><use xlink:href="#226c9c58e" x="258.45" y="141"/><use xlink:href="#226c9c58h" x="282.15" y="141"/><use xlink:href="#226c9c58g" x="316.71" y="141"/><use xlink:href="#226c9c58d" x="328.71" y="141"/><use xlink:href="#226c9c58i" x="340.11" y="141"/><use xlink:href="#226c9c58j" x="361.35" y="141"/><use xlink:href="#226c9c58d" x="399.03" y="141"/><use xlink:href="#226c9c58i" x="410.43" y="141"/><use xlink:href="#226c9c58k" x="431.67" y="141"/><use xlink:href="#226c9c58c" x="453.03" y="141"/><use xlink:href="#226c9c58d" x="466.83" y="141"/><use xlink:href="#226c9c58l" x="478.23" y="141"/><use xlink:href="#226c9c58m" x="501.33" y="141"/><g><use xlink:href="#226c9c58n" x="231.4019" y="252"/><use xlink:href="#226c9c58o" x="238.0689" y="252"/><use xlink:href="#226c9c58p" x="244.7359" y="252"/><use xlink:href="#226c9c58q" x="251.4029" y="252"/><use xlink:href="#226c9c58r" x="258.0699" y="252"/><use xlink:href="#226c9c58s" x="264.7369" y="252"/></g><g><use xlink:href="#226c9c58t" x="271.4019" y="252"/><use xlink:href="#226c9c58u" x="277.9209" y="252"/><use xlink:href="#226c9c58v" x="280.5699" y="252"/></g><g><use xlink:href="#226c9c58w" x="289.7685" y="252"/><use xlink:href="#226c9c58x" x="292.5245" y="252"/></g><g><use xlink:href="#226c9c58v" x="298.6005" y="252"/></g><g><use xlink:href="#226c9c58w" x="307.7944" y="252"/><use xlink:href="#226c9c58y" x="310.5504" y="252"/></g><g><use xlink:href="#226c9c58v" x="316.2564" y="252"/></g><g><use xlink:href="#226c9c58z" x="325.45" y="252"/><use xlink:href="#226c9c58A" x="330.546" y="252"/></g><g><use xlink:href="#226c9c58z" x="342.8907" y="252"/><use xlink:href="#226c9c58u" x="347.9867" y="252"/></g><g><use xlink:href="#226c9c58v" x="350.6427" y="252"/></g><g><use xlink:href="#226c9c58z" x="359.8352" y="252"/><use xlink:href="#226c9c58B" x="364.9312" y="252"/></g><g><use xlink:href="#226c9c58C" x="176.6667" y="266"/><use xlink:href="#226c9c58o" x="183.3337" y="266"/><use xlink:href="#226c9c58D" x="190.0007" y="266"/><use xlink:href="#226c9c58q" x="196.6677" y="266"/><use xlink:href="#226c9c58E" x="203.3347" y="266"/><use xlink:href="#226c9c58F" x="210.0017" y="266"/><use xlink:href="#226c9c58o" x="216.6687" y="266"/><use xlink:href="#226c9c58r" x="223.3357" y="266"/><use xlink:href="#226c9c58s" x="230.0027" y="266"/><use xlink:href="#226c9c58G" x="236.6697" y="266"/><use xlink:href="#226c9c58H" x="243.3367" y="266"/><use xlink:href="#226c9c58I" x="250.0037" y="266"/><use xlink:href="#226c9c58q" x="256.6707" y="266"/><use xlink:href="#226c9c58o" x="263.3377" y="266"/><use xlink:href="#226c9c58p" x="270.0047" y="266"/><use xlink:href="#226c9c58q" x="276.6717" y="266"/><use xlink:href="#226c9c58E" x="283.3387" y="266"/><use xlink:href="#226c9c58D" x="290.0057" y="266"/><use xlink:href="#226c9c58J" x="296.6727" y="266"/><use xlink:href="#226c9c58s" x="303.3397" y="266"/><use xlink:href="#226c9c58D" x="310.0067" y="266"/><use xlink:href="#226c9c58J" x="316.6737" y="266"/><use xlink:href="#226c9c58q" x="323.3407" y="266"/><use xlink:href="#226c9c58o" x="330.0077" y="266"/><use xlink:href="#226c9c58F" x="336.6747" y="266"/><use xlink:href="#226c9c58I" x="343.3417" y="266"/><use xlink:href="#226c9c58D" x="350.0087" y="266"/><use xlink:href="#226c9c58q" x="356.6757" y="266"/><use xlink:href="#226c9c58o" x="363.3427" y="266"/><use xlink:href="#226c9c58K" x="370.0097" y="266"/><use xlink:href="#226c9c58s" x="376.6767" y="266"/><use xlink:href="#226c9c58L" x="383.3437" y="266"/><use xlink:href="#226c9c58M" x="390.0107" y="266"/><use xlink:href="#226c9c58D" x="396.6777" y="266"/><use xlink:href="#226c9c58J" x="403.3447" y="266"/><use xlink:href="#226c9c58q" x="410.0117" y="266"/><use xlink:href="#226c9c58N" x="416.6787" y="266"/></g></g></svg>