<?xml version='1.0' encoding='UTF-8'?>
<svg xmlns="http://www.w3.org/2000/svg" xmlns:xlink="http://www.w3.org/1999/xlink" width="600px" height="300px" viewBox="0 0 600 300" x="0px" y="0px" enable-background="new 0 0 600 300"><defs><symbol overflow="visible" id="c11030cda"><path d="M14.52-11.1l4.75-4.26v-.36c-1.14-1.98-3.68-4.73-5.77-5.94h-.36l-4.73 4.38v.36a33.9 33.9 0 015.68 5.83zm0 0"/></symbol><symbol overflow="visible" id="c11030cdb"><path d="M4.8-34.02V2.94h3.25v-36.96zm0 0"/></symbol><symbol overflow="visible" id="c11030cdc"><path d="M9.36-34.02l-2.88 5.04c6.66 8.34 9.43 15.25 9.11 22.62-.1 3.36-.1 5.1-.3 7.02h.13L18.3-.95c.25-1.86.42-5.53.42-8.53 0-8.1-3.13-16.97-9.24-24.54zm0 0"/></symbol><symbol overflow="visible" id="c11030cdd"><path d="M8.05-34.02l-2.53 5.04c6.54 9.78 8.7 16.26 8.46 23.46-.06 2.52-.06 4.25-.25 6.18h.13l2.7-1.61c.24-1.86.42-5.53.42-8.53 0-4.2-1.39-9.66-3.67-14.16l.06-.06c1.08.84 2.7 1.43 4.99 1.43 4.02 0 6.84-4.01 6.84-7.73 0-1.63-.12-3.42-.9-3.78l-.53-.24c-.32 4.8-2.35 7.2-5.9 7.2-3.59 0-6.65-2.23-9.59-7.2zm0 0"/></symbol><symbol overflow="visible" id="c11030cde"><path d="M6.23-34.02h-.17l-2.51 5.04c6.04 9.78 7.9 16.26 7.9 23.46 0 2.33-.1 4.25-.23 6.18h.12l2.64-1.61c.24-1.86.43-5.53.43-8.53 0-4.2-1.33-9.47-3.43-13.97l.07-.07a7.19 7.19 0 004.01 1.25c1.74 0 2.7-1.07 3.3-2.45h.12A2.96 2.96 0 0021-23.45c2.58 0 4.8-2.96 4.8-6.55 0-1.63-.18-3.42-.9-3.78l-.48-.24c-.19 3.66-1.37 6.43-3.12 6.43-2.35 0-1.5-3-2.7-5.83l-1.44.55c0 4.5-1.38 6.06-3.18 6.06-2.04 0-5.7-2.64-7.75-7.2zm0 0"/></symbol><symbol overflow="visible" id="c11030cdf"><path d="M18.42-29.16l1.27-4.86c-4.2.24-8.53 1.93-11.28 4.5-2.11 1.97-3 5.1-3 6.54 0 2.7 3.53 4.98 8.45 6.25v.17C10.02-13.8 7.8-10.5 7.8-8.28c0 1.8.72 3.3 1.68 4.5 2.1 2.64 6.9 4.2 10.86 4.2 1.74 0 3.18-.3 4.5-.78l-1.07-4.5c-1.08.36-2.47.55-3.68.55-4.86 0-8.8-1.88-10.37-3.97 1.56-2.52 5.76-6 8.58-7.31l1.2-3.61-.13-.11c-4.8-.61-10.01-2.77-11.51-4.63 2.22-2.51 6.78-4.5 10.56-5.22zm0 0"/></symbol><symbol overflow="visible" id="c11030cdg"><path d="M24.13-15.23c0-6.97-5.47-14.54-9.43-14.54-5.28 0-10.32 9.25-10.32 15.49 0 3.42.78 5.1 1.43 6 1.46 1.98 4.27 3.36 7.57 3.36 3.78 0 7.07-1.5 8.93-4.08a11.07 11.07 0 001.82-6.23zM21.9-13.2c-1.33 1.56-4.2 2.89-8.29 2.89-3 0-5.93-1.27-7.03-2.83 1.1-6.3 4.57-11.1 7.46-11.1 3.23 0 6.76 4.44 7.86 11.04zm0 0"/></symbol><symbol overflow="visible" id="c11030cdh"><path d="M3.42-34.02c-.9.9-1.26 1.86-1.26 3 0 1.86 1.62 3.43 5.53 3.43 2.75 0 6.6-.61 8.58-1.14l.04.1c-.6 3.68-1.31 8.11-1.31 11.9 0 7.5 2.28 13.5 5.88 17.45h.18l2.22-5.28C19.68-8.58 18-14.22 18-20.16c0-5.21.78-9.18 1.63-13.2l-.25-.12a40.78 40.78 0 01-9.66 1.07c-3.24 0-5.28-.59-6.3-1.6zm0 0"/></symbol><symbol overflow="visible" id="c11030cdi"><path d="M3.83 0v-5.95H6.2v-.82H.45v.82h2.4V0zm0 0"/></symbol><symbol overflow="visible" id="c11030cdj"><path d="M5.75-2.23v-.43c0-1.6-.9-2.51-2.42-2.51S.87-4.16.87-2.48c0 1.71.91 2.62 2.5 2.62 1.43 0 2.07-.56 2.29-1.52l-.9-.09c-.18.61-.59.9-1.35.9-.94 0-1.52-.54-1.58-1.66zm-2.4-2.2c.93 0 1.43.5 1.48 1.55H1.84c.08-1.07.6-1.56 1.5-1.56zm0 0"/></symbol><symbol overflow="visible" id="c11030cdk"><path d="M1.83 0l1.42-2h.06l1.46 2H5.8L4-2.53l1.78-2.49H4.8L3.42-3.08h-.08l-1.4-1.94H.89l1.78 2.49L.84 0zm0 0"/></symbol><symbol overflow="visible" id="c11030cdl"><path d="M5.52-4.25v-.77H3.17v-1.56h-.81l-.14 1.56H.75v.77h1.47v2.4c0 1.3.48 1.94 1.84 1.94C4.6.1 5.14 0 5.55-.14L5.4-.91c-.32.13-.72.2-1.13.2-.8 0-1.1-.37-1.1-1.23v-2.31zm0 0"/></symbol><symbol overflow="visible" id="c11030cdm"><path d="M3.33-3.42c.47 0 .8-.27.8-.8 0-.51-.33-.8-.8-.8-.47 0-.8.29-.8.8 0 .53.33.8.8.8zm0 3.5c.47 0 .8-.27.8-.78 0-.53-.33-.82-.8-.82-.47 0-.8.29-.8.82 0 .51.33.78.8.78zm0 0"/></symbol><symbol overflow="visible" id="c11030cdv"><path d="M5.95-6.77H1.1V0h.99v-2.92H5.3v-.77H2.08v-2.26h3.87zm0 0"/></symbol><symbol overflow="visible" id="c11030cdw"><path d="M2.83.14c.94 0 1.5-.39 1.81-.95h.08l.1.81h.76v-3.38c0-1.23-.69-1.8-2.13-1.8-1.43 0-2.03.65-2.18 1.6l.93.1c.11-.6.44-.93 1.22-.93.85 0 1.22.32 1.22 1.04v.34l-1.81.2C1.6-2.7 1.1-2.17 1.1-1.28c0 .92.64 1.42 1.72 1.42zm.25-.77c-.67 0-1.02-.28-1.02-.74 0-.44.28-.72 1-.82l1.58-.19v.41c0 .8-.6 1.34-1.56 1.34zm0 0"/></symbol><symbol overflow="visible" id="c11030cdx"><path d="M2.73.14c.9 0 1.43-.45 1.74-1.08h.06l.13.94h.8v-5.02h-.94v2.7c0 .98-.57 1.62-1.46 1.62-.75 0-1.1-.4-1.1-1.22v-3.1h-.93v3.32c0 1.17.55 1.84 1.7 1.84zm0 0"/></symbol><symbol overflow="visible" id="c11030cdy"><path d="M5.08-5.16c-.94 0-1.58.43-1.9 1.3h-.09l-.07-1.16H1.05v.77h1.1v3.48H.96V0h3.96v-.77H3.1v-1.46c0-1.36.6-2.05 1.83-2.05.4 0 .76.08 1.1.17l.15-.87c-.33-.11-.7-.18-1.11-.18zm0 0"/></symbol><symbol overflow="visible" id="c11030cdz"><path d="M3.9.14c1.48 0 2.18-.98 2.18-2.64 0-1.67-.7-2.66-2.17-2.66-.91 0-1.49.41-1.79 1h-.06v-2.98h-.95V0h.81l.11-.9h.06c.29.63.82 1.04 1.82 1.04zm-.32-.8c-1.08 0-1.55-.8-1.55-1.84 0-1.06.47-1.86 1.55-1.86 1.1 0 1.51.61 1.51 1.86S4.64-.66 3.58-.66zm0 0"/></symbol><symbol overflow="visible" id="c11030cdA"><path d="M3.92-7.14H1.36v.76h1.6v5.61H1.15V0H5.7v-.77H3.92zm0 0"/></symbol><symbol overflow="visible" id="c11030cdB"><path d="M3.58-5.81c.42 0 .72-.22.72-.67 0-.44-.3-.68-.72-.68-.44 0-.72.24-.72.68 0 .45.28.67.72.67zm.5.8H1.52v.76h1.6v3.48h-1.8V0h4.46v-.77h-1.7zm0 0"/></symbol><symbol overflow="visible" id="c11030cdC"><path d="M2.16 0v-2.67c0-.99.59-1.63 1.46-1.63.74 0 1.07.38 1.07 1.22V0h.95v-3.31c0-1.2-.56-1.85-1.67-1.85-.92 0-1.49.46-1.77 1.08h-.06l-.12-.94H1.2V0zm0 0"/></symbol><symbol overflow="visible" id="c11030cdD"><path d="M3.16 2.03c1.67 0 2.4-.86 2.4-2.51v-4.54h-.81l-.13.91h-.06c-.26-.58-.8-1.05-1.73-1.05-1.42 0-2.24 1-2.24 2.52 0 1.6.75 2.56 2.2 2.56.94 0 1.5-.5 1.77-1.03h.05v.72c0 1.17-.42 1.67-1.45 1.67-.93 0-1.3-.34-1.41-.89L.8.5c.12.96.87 1.54 2.36 1.54zM3.06-.8c-.98 0-1.48-.57-1.48-1.82 0-1.13.5-1.75 1.48-1.75 1.06 0 1.58.76 1.58 1.75 0 .95-.56 1.82-1.58 1.82zm0 0"/></symbol><symbol overflow="visible" id="c11030cdE"><path d="M6.17 0L3.98-6.77h-1.3L.5 0h.97l.44-1.47h2.78L5.16 0zM3.28-5.94h.08l1.1 3.74H2.15zm0 0"/></symbol><symbol overflow="visible" id="c11030cdF"><path d="M3.34.14c1.43 0 2.13-.66 2.25-1.78l-.89-.1c-.1.7-.5 1.08-1.34 1.08-1.03 0-1.52-.64-1.52-1.84 0-1.23.47-1.86 1.52-1.86.84 0 1.23.36 1.34 1.08l.9-.1c-.13-1.09-.82-1.78-2.26-1.78-1.56 0-2.46.97-2.46 2.66 0 1.66.9 2.64 2.46 2.64zm0 0"/></symbol><symbol overflow="visible" id="c11030cdG"><path d="M1.63 0v-2.9c0-.8.15-1.4.71-1.4.41 0 .55.3.55.88V0h.95v-2.9c0-.8.18-1.4.72-1.4.4 0 .57.3.57.88V0h.95v-3.63c0-.92-.28-1.53-1.11-1.53-.63 0-.95.41-1.1.9h-.06c-.1-.52-.44-.9-1.08-.9-.6 0-.93.41-1.06.9H1.6l-.23-.76H.67V0zm0 0"/></symbol><symbol overflow="visible" id="c11030cdH"><path d="M3.36.16c1.4 0 2.2-.6 2.2-1.57 0-.89-.54-1.22-1.47-1.39L3-3c-.67-.14-.86-.33-.86-.73 0-.5.4-.74 1.17-.74.83 0 1.19.27 1.27.8l.9-.05c-.12-1-.8-1.47-2.17-1.47-1.34 0-2.1.53-2.1 1.5 0 .81.45 1.22 1.52 1.44l1.04.2c.56.11.87.24.87.72 0 .52-.45.78-1.28.78-.95 0-1.36-.28-1.42-.87l-.9.06C1.07-.36 1.8.16 3.35.16zm0 0"/></symbol><symbol overflow="visible" id="c11030cdI"><path d="M1.45-2.95c0 2.56 1.08 4.37 3.67 4.84l.11-.67C3.28.86 2.43-.75 2.43-2.95s.85-3.82 2.8-4.16l-.1-.69c-2.6.49-3.68 2.3-3.68 4.85zm0 0"/></symbol><symbol overflow="visible" id="c11030cdJ"><path d="M1.45-7.1c1.96.33 2.8 1.94 2.8 4.15 0 2.2-.84 3.8-2.8 4.17l.11.67c2.58-.47 3.67-2.28 3.67-4.84 0-2.55-1.09-4.36-3.67-4.85zm0 0"/></symbol><symbol overflow="visible" id="c11030cdo"><path d="M1.38-1.45l.68-.68L1.2-3l-.67.67zm0 0"/></symbol><symbol overflow="visible" id="c11030cdp"><path d="M1.14 0h.66c0-2.92-.1-3.38-.57-5.03L.52-5c.53 1.6.62 1.97.62 5zm0 0"/></symbol><symbol overflow="visible" id="c11030cdq"><path d="M1.14 0h.66c0-1.28-.02-2.08-.08-2.72.2.06.42.1.6.1 1 0 1.46-.66 1.46-1.77 0-.2-.01-.42-.05-.64l-.65.06c.03.25.04.45.04.63 0 .65-.21.96-.8.96-.52 0-.68-.09-.84-.75l-.25-.9L.52-5c.53 1.6.62 1.97.62 5zm0 0"/></symbol><symbol overflow="visible" id="c11030cdr"><path d="M1.14 0h.66c0-1.28-.02-2.08-.08-2.72.2.06.42.1.6.1.26 0 .48-.07.66-.2.24.12.63.2.82.2.84 0 1.22-.66 1.22-1.77 0-.19-.02-.42-.04-.64l-.6.06.01.47c0 .77-.14 1.13-.6 1.13-.15 0-.27-.02-.37-.05.1-.27.14-.58.14-.97 0-.2-.01-.42-.04-.64l-.66.06c.02.25.05.45.05.63 0 .65-.18.96-.6.96-.51 0-.67-.09-.83-.75l-.25-.9L.52-5c.53 1.6.62 1.97.62 5zm0 0"/></symbol><symbol overflow="visible" id="c11030cds"><path d="M2.33.05c.31 0 .69-.03 1.1-.1L3.5-.8c-.5.08-.9.1-1.22.1-.86 0-1.08-.26-1.08-.59 0-.5.66-.87 1.78-1.22l.07-.76c-.4.19-.77.26-1.03.26-.49 0-.75-.18-.75-.4 0-.22.17-.66 1.15-.92l.06-.72C1.31-4.84.66-4.11.66-3.4c0 .36.2.7.6.89-.43.31-.74.78-.74 1.25 0 .83.59 1.3 1.8 1.3zm0 0"/></symbol><symbol overflow="visible" id="c11030cdt"><path d="M2.33-.22c1.2 0 1.76-.64 1.76-1.7 0-1.19-.67-2.74-1.8-2.74-1.09 0-1.77 1.5-1.77 2.7 0 1.1.6 1.74 1.8 1.74zm.01-.75C1.5-.97 1.17-1.34 1.17-2c0-.75.46-1.9 1.14-1.9.69 0 1.13 1.18 1.13 1.93 0 .7-.38 1-1.1 1zm0 0"/></symbol><symbol overflow="visible" id="c11030cdu"><path d="M2.84 0h.7c-.23-1-.29-1.83-.29-2.75 0-.67.03-1.4.08-2.28H.59l-.07.75h2.06l-.03 1.36c0 1 .08 1.84.3 2.92zm0 0"/></symbol></defs><use xlink:href="#c11030cda" x="164.88" y="141" fill="#fff"/><use xlink:href="#c11030cdb" x="192.48" y="141" fill="#515151"/><use xlink:href="#c11030cdc" x="205.32" y="141" fill="#fff"/><use xlink:href="#c11030cdb" x="232.92" y="141" fill="#515151"/><use xlink:href="#c11030cdd" x="245.76" y="141" fill="#fff"/><use xlink:href="#c11030cdb" x="273.36" y="141" fill="#515151"/><use xlink:href="#c11030cde" x="286.2" y="141" fill="#fff"/><use xlink:href="#c11030cdb" x="313.8" y="141" fill="#515151"/><use xlink:href="#c11030cdf" x="326.64" y="141" fill="#fff"/><use xlink:href="#c11030cdb" x="354.24" y="141" fill="#515151"/><use xlink:href="#c11030cdg" x="367.08" y="141" fill="#fff"/><use xlink:href="#c11030cdb" x="394.68" y="141" fill="#515151"/><use xlink:href="#c11030cdh" x="407.52" y="141" fill="#fff"/><g fill="#fff"><use xlink:href="#c11030cdi" x="267.1593" y="252"/><use xlink:href="#c11030cdj" x="273.8263" y="252"/><use xlink:href="#c11030cdk" x="280.4933" y="252"/><use xlink:href="#c11030cdl" x="287.1603" y="252"/><use xlink:href="#c11030cdm" x="293.8273" y="252"/><use xlink:href="#c11030cdn" x="300.4943" y="252"/></g><g fill="#fff"><use xlink:href="#c11030cdo" x="307.1593" y="252"/><use xlink:href="#c11030cdp" x="309.1813" y="252"/></g><use xlink:href="#c11030cdq" x="311.5033" y="252" fill="#fff"/><use xlink:href="#c11030cdr" x="315.7953" y="252" fill="#fff"/><use xlink:href="#c11030cds" x="321.0773" y="252" fill="#fff"/><use xlink:href="#c11030cdt" x="324.8293" y="252" fill="#fff"/><use xlink:href="#c11030cdu" x="328.7813" y="252" fill="#fff"/><g fill="#fff"><use xlink:href="#c11030cdv" x="146.6667" y="266"/><use xlink:href="#c11030cdj" x="153.3337" y="266"/><use xlink:href="#c11030cdw" x="160.0007" y="266"/><use xlink:href="#c11030cdl" x="166.6677" y="266"/><use xlink:href="#c11030cdx" x="173.3347" y="266"/><use xlink:href="#c11030cdy" x="180.0017" y="266"/><use xlink:href="#c11030cdj" x="186.6687" y="266"/><use xlink:href="#c11030cdm" x="193.3357" y="266"/><use xlink:href="#c11030cdn" x="200.0027" y="266"/><use xlink:href="#c11030cdi" x="206.6697" y="266"/><use xlink:href="#c11030cdw" x="213.3367" y="266"/><use xlink:href="#c11030cdz" x="220.0037" y="266"/><use xlink:href="#c11030cdx" x="226.6707" y="266"/><use xlink:href="#c11030cdA" x="233.3377" y="266"/><use xlink:href="#c11030cdw" x="240.0047" y="266"/><use xlink:href="#c11030cdy" x="246.6717" y="266"/><use xlink:href="#c11030cdn" x="253.3387" y="266"/><use xlink:href="#c11030cdA" x="260.0057" y="266"/><use xlink:href="#c11030cdB" x="266.6727" y="266"/><use xlink:href="#c11030cdC" x="273.3397" y="266"/><use xlink:href="#c11030cdB" x="280.0067" y="266"/><use xlink:href="#c11030cdC" x="286.6737" y="266"/><use xlink:href="#c11030cdD" x="293.3407" y="266"/><use xlink:href="#c11030cdn" x="300.0077" y="266"/><use xlink:href="#c11030cdE" x="306.6747" y="266"/><use xlink:href="#c11030cdy" x="313.3417" y="266"/><use xlink:href="#c11030cdw" x="320.0087" y="266"/><use xlink:href="#c11030cdz" x="326.6757" y="266"/><use xlink:href="#c11030cdB" x="333.3427" y="266"/><use xlink:href="#c11030cdF" x="340.0097" y="266"/><use xlink:href="#c11030cdn" x="346.6767" y="266"/><use xlink:href="#c11030cdC" x="353.3437" y="266"/><use xlink:href="#c11030cdx" x="360.0107" y="266"/><use xlink:href="#c11030cdG" x="366.6777" y="266"/><use xlink:href="#c11030cdj" x="373.3447" y="266"/><use xlink:href="#c11030cdy" x="380.0117" y="266"/><use xlink:href="#c11030cdw" x="386.6787" y="266"/><use xlink:href="#c11030cdA" x="393.3457" y="266"/><use xlink:href="#c11030cdH" x="400.0127" y="266"/><use xlink:href="#c11030cdn" x="406.6797" y="266"/><use xlink:href="#c11030cdI" x="413.3467" y="266"/><use xlink:href="#c11030cdl" x="420.0137" y="266"/><use xlink:href="#c11030cdC" x="426.6807" y="266"/><use xlink:href="#c11030cdx" x="433.3477" y="266"/><use xlink:href="#c11030cdG" x="440.0147" y="266"/><use xlink:href="#c11030cdJ" x="446.6817" y="266"/></g></svg>