<?xml version='1.0' encoding='UTF-8'?>
<svg xmlns="http://www.w3.org/2000/svg" xmlns:xlink="http://www.w3.org/1999/xlink" width="300px" height="600px" viewBox="0 0 300 600" x="0px" y="0px" enable-background="new 0 0 300 600"><defs><symbol overflow="visible" id="73227445a"><path d="M7.27 19.86l.92.33c.67-1.27.72-2.14.72-3.9 0-1.82-.44-4.46-.99-7.21C7.2 5.5 6.66 2.58 6.27 0c.39-.83 1.48-2.2 2.42-3.19 1.92 5.61 4.4 7.92 7.2 7.92 2.53 0 4.9-2.8 5.9-6.32A6.4 6.4 0 0026.72.39c.83 0 1.64-.83 1.64-2.2 0-1.38-.8-2.14-1.64-2.14-2.2 0-3.53-.72-6.5-3.9-2.3-2.54-3.84-3.48-6.04-3.48C8.97-11.33 3.58-2.2 3.58 2.1c0 1.43.65 3.63 1.37 6.66 1.6 6.66 2.03 8.03 2.32 11.1zM20.3-2.7c-.61 1.7-2.1 3.3-4.13 3.3-1.98 0-3.8-1.33-5.89-5.67.94-1.16 2.42-2.14 3.75-2.14 1.81 0 3.56.98 6.27 4.51zm0 0"/></symbol><symbol overflow="visible" id="73227445b"><path d="M8.08-11.98L6.44-9.95l.33 2.42C5.07-4.9 2.8-3.95 0-3.95c-.98 0-1.66.76-1.66 2.14 0 1.48.72 2.2 1.66 2.2 3.58 0 6.1-1.98 7.7-5.34h.05C9.45-1.37 12.2.39 16.78.39c.81 0 1.64-.83 1.64-2.2 0-1.38-.83-2.14-1.64-2.14-4.69 0-7.44-2.49-8.64-8.03zm3.97 22l2.53-3.36a13.1 13.1 0 01-3.69-2.82l-2.14 3.1c-1-.61-2.27-1.77-2.97-2.7L3.25 7.58a9.74 9.74 0 003.69 2.8L8.8 7.64c.89.94 2.26 1.92 3.25 2.38zm0 0"/></symbol><symbol overflow="visible" id="73227445c"><path d="M26.45-9.02l.44-2.3-1.86.76c-.78 4.08-2.16 6.1-4.01 6.1-1.38 0-2.38-1.59-2.54-3.85l.33-1.92-1.7.78c-1.6 4.39-3.03 5.5-4.9 5.5-1.93 0-3.35-1.49-3.96-3.64l.55-1.64-1.6.37C5.4-5.39 3.14-3.96 0-3.96c-.83 0-1.48 1-1.48 2.15 0 1.37.76 2.2 1.48 2.2C2.42.4 4.63-.83 6.33-4.19 6.98-1.3 8.75.4 11.17.4c2.08 0 3.67-1.16 5.27-4.51.28 2.46 1.6 4.01 3.8 4.01 1.93 0 3.74-1.33 4.9-4.56.7 3.12 3.23 5.06 6.88 5.06.8 0 1.64-.83 1.64-2.2 0-1.38-.83-2.14-1.64-2.14-2.93 0-5.07-1.66-5.57-5.07zm0 0"/></symbol><symbol overflow="visible" id="73227445d"><path d="M4.84-23.16l2.64-3.3a14.16 14.16 0 01-3.64-2.96l-2.68 3.3a9.8 9.8 0 003.68 2.96zm.94 2.1l-3.14 3.68C4.9-12.66 6.04-8.03 6.16-5 5.06-4.4 2.75-3.95 0-3.95c-.94 0-1.48.87-1.48 2.18C-1.48-.17-.83.4 0 .4 2.86.4 5.44-.5 6.7-2.03c1.22-1.44 1.83-3.75 1.83-6.5 0-3.19-.94-8.03-2.75-12.53zm0 0"/></symbol><symbol overflow="visible" id="73227445e"><path d="M1.84 0v-4.48l-.06-.99h.1L4.46 0h1.28v-6.77h-.92v4.4l.06 1.03h-.1L2.21-6.77H.92V0zm0 0"/></symbol><symbol overflow="visible" id="73227445f"><path d="M2.83.14c.94 0 1.5-.39 1.81-.95h.08l.1.81h.76v-3.38c0-1.23-.69-1.8-2.13-1.8-1.43 0-2.03.65-2.18 1.6l.93.1c.11-.6.44-.93 1.22-.93.85 0 1.22.32 1.22 1.04v.34l-1.81.2C1.6-2.7 1.1-2.17 1.1-1.28c0 .92.64 1.42 1.72 1.42zm.25-.77c-.67 0-1.02-.28-1.02-.74 0-.44.28-.72 1-.82l1.58-.19v.41c0 .8-.6 1.34-1.56 1.34zm0 0"/></symbol><symbol overflow="visible" id="73227445g"><path d="M3.36.16c1.4 0 2.2-.6 2.2-1.57 0-.89-.54-1.22-1.47-1.39L3-3c-.67-.14-.86-.33-.86-.73 0-.5.4-.74 1.17-.74.83 0 1.19.27 1.27.8l.9-.05c-.12-1-.8-1.47-2.17-1.47-1.34 0-2.1.53-2.1 1.5 0 .81.45 1.22 1.52 1.44l1.04.2c.56.11.87.24.87.72 0 .52-.45.78-1.28.78-.95 0-1.36-.28-1.42-.87l-.9.06C1.07-.36 1.8.16 3.35.16zm0 0"/></symbol><symbol overflow="visible" id="73227445h"><path d="M3.58-5.81c.42 0 .72-.22.72-.67 0-.44-.3-.68-.72-.68-.44 0-.72.24-.72.68 0 .45.28.67.72.67zm.5.8H1.52v.76h1.6v3.48h-1.8V0h4.46v-.77h-1.7zm0 0"/></symbol><symbol overflow="visible" id="73227445i"><path d="M1.63 0v-2.9c0-.8.15-1.4.71-1.4.41 0 .55.3.55.88V0h.95v-2.9c0-.8.18-1.4.72-1.4.4 0 .57.3.57.88V0h.95v-3.63c0-.92-.28-1.53-1.11-1.53-.63 0-.95.41-1.1.9h-.06c-.1-.52-.44-.9-1.08-.9-.6 0-.93.41-1.06.9H1.6l-.23-.76H.67V0zm0 0"/></symbol><symbol overflow="visible" id="73227445k"><path d="M6.17 0L3.98-6.77h-1.3L.5 0h.97l.44-1.47h2.78L5.16 0zM3.28-5.94h.08l1.1 3.74H2.15zm0 0"/></symbol><symbol overflow="visible" id="73227445l"><path d="M5.08-5.16c-.94 0-1.58.43-1.9 1.3h-.09l-.07-1.16H1.05v.77h1.1v3.48H.96V0h3.96v-.77H3.1v-1.46c0-1.36.6-2.05 1.83-2.05.4 0 .76.08 1.1.17l.15-.87c-.33-.11-.7-.18-1.11-.18zm0 0"/></symbol><symbol overflow="visible" id="73227445m"><path d="M3.9.14c1.48 0 2.18-.98 2.18-2.64 0-1.67-.7-2.66-2.17-2.66-.91 0-1.49.41-1.79 1h-.06v-2.98h-.95V0h.81l.11-.9h.06c.29.63.82 1.04 1.82 1.04zm-.32-.8c-1.08 0-1.55-.8-1.55-1.84 0-1.06.47-1.86 1.55-1.86 1.1 0 1.51.61 1.51 1.86S4.64-.66 3.58-.66zm0 0"/></symbol><symbol overflow="visible" id="73227445n"><path d="M3.34.14c1.43 0 2.13-.66 2.25-1.78l-.89-.1c-.1.7-.5 1.08-1.34 1.08-1.03 0-1.52-.64-1.52-1.84 0-1.23.47-1.86 1.52-1.86.84 0 1.23.36 1.34 1.08l.9-.1c-.13-1.09-.82-1.78-2.26-1.78-1.56 0-2.46.97-2.46 2.66 0 1.66.9 2.64 2.46 2.64zm0 0"/></symbol><symbol overflow="visible" id="73227445o"><path d="M.92-6.77V0h.99v-2.27h1.68c1.58 0 2.38-.65 2.38-2.2v-.14c0-1.51-.8-2.16-2.34-2.16zM5-4.47c0 1.05-.42 1.45-1.58 1.45H1.91v-2.96h1.51C4.58-5.98 5-5.66 5-4.61zm0 0"/></symbol><symbol overflow="visible" id="73227445p"><path d="M3.33.14c1.62 0 2.5-.95 2.5-2.66 0-1.68-.88-2.64-2.5-2.64-1.63 0-2.5.96-2.5 2.64 0 1.7.87 2.66 2.5 2.66zm0-.77c-1.06 0-1.52-.6-1.52-1.89 0-1.28.46-1.87 1.52-1.87 1.08 0 1.53.6 1.53 1.87 0 1.29-.45 1.9-1.53 1.9zm0 0"/></symbol><symbol overflow="visible" id="73227445q"><path d="M4.06-2.77c1.25-.04 1.92-.7 1.92-1.96 0-1.36-.7-2.04-2.17-2.04H.92V0h.97v-2.73h1.08L4.95 0h1.1zM1.9-6h1.7c1.07 0 1.46.34 1.46 1.28 0 .9-.44 1.27-1.47 1.27H1.89zm0 0"/></symbol><symbol overflow="visible" id="73227445r"><path d="M5.75-2.23v-.43c0-1.6-.9-2.51-2.42-2.51S.87-4.16.87-2.48c0 1.71.91 2.62 2.5 2.62 1.43 0 2.07-.56 2.29-1.52l-.9-.09c-.18.61-.59.9-1.35.9-.94 0-1.52-.54-1.58-1.66zm-2.4-2.2c.93 0 1.43.5 1.48 1.55H1.84c.08-1.07.6-1.56 1.5-1.56zm0 0"/></symbol><symbol overflow="visible" id="73227445s"><path d="M3.16 2.03c1.67 0 2.4-.86 2.4-2.51v-4.54h-.81l-.13.91h-.06c-.26-.58-.8-1.05-1.73-1.05-1.42 0-2.24 1-2.24 2.52 0 1.6.75 2.56 2.2 2.56.94 0 1.5-.5 1.77-1.03h.05v.72c0 1.17-.42 1.67-1.45 1.67-.93 0-1.3-.34-1.41-.89L.8.5c.12.96.87 1.54 2.36 1.54zM3.06-.8c-.98 0-1.48-.57-1.48-1.82 0-1.13.5-1.75 1.48-1.75 1.06 0 1.58.76 1.58 1.75 0 .95-.56 1.82-1.58 1.82zm0 0"/></symbol><symbol overflow="visible" id="73227445t"><path d="M2.73.14c.9 0 1.43-.45 1.74-1.08h.06l.13.94h.8v-5.02h-.94v2.7c0 .98-.57 1.62-1.46 1.62-.75 0-1.1-.4-1.1-1.22v-3.1h-.93v3.32c0 1.17.55 1.84 1.7 1.84zm0 0"/></symbol><symbol overflow="visible" id="73227445u"><path d="M3.92-7.14H1.36v.76h1.6v5.61H1.15V0H5.7v-.77H3.92zm0 0"/></symbol><symbol overflow="visible" id="73227445z"><path d="M1.64 0v-3.17l-.16-2.5h.1L2.9-1.83h.82l1.35-3.84h.1l-.16 2.5V0h.95v-6.77h-1.3l-1.3 3.82h-.09L2-6.77H.69V0zm0 0"/></symbol><symbol overflow="visible" id="73227445A"><path d="M2.84.14C3.8.14 4.33-.26 4.6-.9h.07L4.8 0h.76v-7.14h-.95v2.95h-.08c-.28-.6-.86-.97-1.67-.97-1.48 0-2.27.99-2.27 2.64C.6-.84 1.36.14 2.84.14zm.22-.8c-.98 0-1.48-.59-1.48-1.84s.5-1.86 1.48-1.86c1.13 0 1.58.8 1.58 1.86S4.2-.66 3.06-.66zm0 0"/></symbol><symbol overflow="visible" id="73227445F"><path d="M3.42.14c1.61 0 2.56-.75 2.56-2 0-1.1-.67-1.6-1.95-1.86l-.97-.2c-.87-.17-1.23-.49-1.23-1.11 0-.7.54-1.11 1.5-1.11 1.06 0 1.51.34 1.69 1.23l.9-.09c-.17-1.28-.98-1.9-2.6-1.9C1.79-6.9.9-6.18.9-4.98c0 1.06.66 1.66 1.88 1.9l1.01.2c.85.17 1.25.4 1.25 1.09 0 .73-.6 1.16-1.6 1.16-1.07 0-1.66-.4-1.8-1.24l-.94.1C.83-.53 1.75.13 3.42.13zm0 0"/></symbol><symbol overflow="visible" id="73227445K"><path d="M4.66-3.45c.76-.14 1.15-.67 1.15-1.57 0-1.07-.64-1.75-2.18-1.75H.92V0h2.71C5.2 0 5.98-.64 5.98-1.77c0-1.03-.56-1.43-1.32-1.59zM3.56-6c.9 0 1.31.4 1.31 1.13 0 .71-.4 1.14-1.3 1.14h-1.7V-6zM1.87-.75v-2.27H3.6c.97 0 1.44.33 1.44 1.13 0 .8-.47 1.14-1.44 1.14zm0 0"/></symbol><symbol overflow="visible" id="73227445P"><path d="M5.92-6.77H1.1V0h4.83v-.8H2.06v-2.26h3.22v-.75H2.06v-2.16h3.86zm0 0"/></symbol><symbol overflow="visible" id="73227445Q"><path d="M1.83 0l1.42-2h.06l1.46 2H5.8L4-2.53l1.78-2.49H4.8L3.42-3.08h-.08l-1.4-1.94H.89l1.78 2.49L.84 0zm0 0"/></symbol><symbol overflow="visible" id="73227445R"><path d="M5.52-4.25v-.77H3.17v-1.56h-.81l-.14 1.56H.75v.77h1.47v2.4c0 1.3.48 1.94 1.84 1.94C4.6.1 5.14 0 5.55-.14L5.4-.91c-.32.13-.72.2-1.13.2-.8 0-1.1-.37-1.1-1.23v-2.31zm0 0"/></symbol><symbol overflow="visible" id="73227445v"><path d="M6.94 19.86l1.14.33c.67-1.27.83-2.25.83-4.02 0-1.76-.38-4.23-.94-6.98-.6-3.4-1.27-6.99-1.6-9.3.44-.94 1.44-2.2 2.32-3.19 1.87 5.55 4.4 8.03 7.26 8.03 2.58 0 4.96-2.86 5.94-6.43A6.63 6.63 0 0027 .4c.9 0 1.77-1 1.77-2.54 0-1.6-.88-2.6-1.77-2.6-2.19 0-3.52-.65-6.38-3.73-2.42-2.64-3.84-3.58-6.15-3.58-5.24 0-11.22 9.13-11.22 13.97 0 1.6.6 3.8 1.38 6.99 1.48 6.04 1.96 7.76 2.3 10.95zM20.4-2.92c-.66 1.48-2.1 2.86-4.02 2.86-1.98 0-3.8-1.2-5.83-5.27.99-1.15 2.31-2.04 3.69-2.04 1.81 0 3.8 1.1 6.16 4.45zm0 0"/></symbol><symbol overflow="visible" id="73227445w"><path d="M8.47-12.66l-1.81 2.2.28 2.43C5.28-5.61 2.97-4.73 0-4.73c-.94 0-1.66.89-1.66 2.53C-1.66-.44-.94.4 0 .4c3.69 0 6.33-2.06 7.92-5.46h.11C9.8-1.48 12.6.39 17.27.39c.82 0 1.65-1 1.65-2.53 0-1.6-.83-2.6-1.65-2.6-4.57 0-7.36-2.35-8.74-7.92zm3.9 23.05l2.7-3.52a14.7 14.7 0 01-3.85-3.03L8.9 7.1a14.14 14.14 0 01-3.13-2.9L3.08 7.7a9.81 9.81 0 003.86 3.02l2.03-2.9a11.9 11.9 0 003.4 2.57zm0 0"/></symbol><symbol overflow="visible" id="73227445x"><path d="M26.9-9.8l.43-2.18-2.08.8c-.72 3.98-2.1 5.96-3.97 5.96-1.42 0-2.42-1.48-2.58-3.8l.33-1.92-1.92.81c-1.55 4.24-3.08 5.4-5.02 5.4-1.96 0-3.3-1.49-3.78-3.58l.55-1.64-1.88.5C5.28-6.11 3.03-4.73 0-4.73c-.83 0-1.48 1.1-1.48 2.59C-1.48-.61-.72.39 0 .39 2.42.4 4.56-.83 6.22-4.06 6.88-1.31 8.64.39 11.06.39c2.19 0 3.85-1.27 5.44-4.62.4 2.53 1.81 4.12 4.06 4.12 1.99 0 3.75-1.33 4.9-4.56C26.2-1.55 28.6.39 32.29.39c.9 0 1.81-1 1.81-2.53 0-1.6-.92-2.6-1.8-2.6-2.87 0-4.96-1.74-5.4-5.06zm0 0"/></symbol><symbol overflow="visible" id="73227445y"><path d="M4.95-23.92l2.86-3.58a14.5 14.5 0 01-3.9-3.19L1.05-27.1a11.12 11.12 0 003.9 3.19zM6-22l-3.53 4.19C4.89-12.92 5.94-8.7 6.1-5.71 5-5.18 2.69-4.74 0-4.74c-.88 0-1.48.93-1.48 2.59C-1.48-.33-.77.39 0 .39 3.08.4 5.72-.66 7.05-2.47 8.19-4.02 8.8-6.33 8.8-9.23 8.8-12.6 7.97-17.11 6-22zm0 0"/></symbol><symbol overflow="visible" id="73227445B"><path d="M6.6 19.86l1.32.33c.77-1.27.99-2.38.99-4.13 0-1.7-.33-4.01-.83-6.76-.6-3.25-1.38-7.43-1.64-9.58.5-.99 1.42-2.08 2.25-3.08 1.81 5.45 4.45 8.1 7.31 8.1 2.6 0 5.02-2.93 6-6.5A7.2 7.2 0 0027.28.38c.94 0 1.88-1.16 1.88-2.92 0-1.77-.94-2.97-1.88-2.97-2.2 0-3.47-.66-6.22-3.58-2.53-2.69-3.9-3.69-6.33-3.69-5.28 0-11.8 9.08-11.8 14.58 0 1.7.59 3.86 1.41 7.27 1.33 5.39 1.93 7.42 2.25 10.78zm13.96-23a4.52 4.52 0 01-4 2.42c-1.98 0-3.68-1.05-5.78-4.89 1.05-1.16 2.25-1.92 3.69-1.92 1.75 0 3.95 1.26 6.1 4.39zm0 0"/></symbol><symbol overflow="visible" id="73227445C"><path d="M8.8-13.36L6.8-10.94l.35 2.36C5.44-6.38 3.14-5.5 0-5.5c-.94 0-1.66.98-1.66 2.92C-1.66-.55-.88.4 0 .4c3.84 0 6.55-2.1 8.19-5.56h.06C10.13-1.55 12.98.39 17.77.39c.82 0 1.65-1.16 1.65-2.92 0-1.77-.83-2.97-1.65-2.97-4.52 0-7.38-2.2-8.8-7.86zm3.9 24.14l2.93-3.62a17.44 17.44 0 01-4.08-3.32L9.08 7.27c-1.11-.72-2.49-2.1-3.25-3.14L2.93 7.8a10.64 10.64 0 004 3.25l2.15-3.03c.98 1.1 2.47 2.2 3.62 2.75zm0 0"/></symbol><symbol overflow="visible" id="73227445D"><path d="M27.33-10.5l.39-2.16-2.25.94C24.8-7.92 23.44-6 21.57-6c-1.5 0-2.5-1.42-2.65-3.73l.33-1.93-2.14.88c-1.48 4.01-3.19 5.28-5.13 5.28-2.03 0-3.3-1.48-3.62-3.47l.5-1.7-2.1.54C5.12-6.8 2.93-5.5 0-5.5c-.77 0-1.48 1.2-1.48 2.97C-1.48-.77-.72.39 0 .39 2.47.4 4.52-.83 6.1-4c.71 2.7 2.43 4.4 4.84 4.4 2.31 0 4.01-1.33 5.56-4.69.5 2.6 2.1 4.2 4.34 4.2 2.1 0 3.74-1.34 4.96-4.57.72 3.12 2.97 5.06 6.8 5.06.95 0 1.88-1.16 1.88-2.92 0-1.77-.93-2.97-1.87-2.97-2.86 0-4.94-1.81-5.28-5zm0 0"/></symbol><symbol overflow="visible" id="73227445E"><path d="M5.1-24.75l3.04-3.8c-1.2-.65-3.14-2.1-4.19-3.4L.87-28.11a11.7 11.7 0 004.24 3.36zm1.12 1.81l-3.9 4.74c2.52 5 3.5 8.86 3.68 11.72-1.1.59-3.36.98-6 .98-.88 0-1.48 1.05-1.48 2.97C-1.48-.5-.77.39 0 .39 3.36.4 6-.83 7.38-2.97c1.09-1.55 1.7-3.9 1.7-6.94 0-3.51-.72-7.68-2.86-13.03zm0 0"/></symbol><symbol overflow="visible" id="73227445G"><path d="M6.22 19.8l1.6.39a7.61 7.61 0 001.09-4.3c0-1.64-.27-3.69-.72-6.48-.55-3.08-1.42-7.97-1.64-9.85.54-1.04 1.37-2.03 2.14-3.03 1.76 5.35 4.51 8.2 7.42 8.2 2.6 0 5.06-2.96 6-6.6A7.82 7.82 0 0027.56.38c.99 0 2.08-1.33 2.08-3.31 0-2.03-1.05-3.46-2.08-3.46-2.15 0-3.42-.6-6.06-3.35-2.64-2.86-3.9-3.85-6.44-3.85-5.33 0-12.53 9.06-12.53 15.24 0 1.8.55 3.95 1.49 7.57 1.15 4.74 1.8 7.1 2.2 10.57zM20.73-3.4a4.83 4.83 0 01-3.95 1.96c-1.98 0-3.64-.92-5.72-4.5 1.1-1.1 2.14-1.76 3.67-1.76 1.7 0 4.2 1.37 6 4.3zm0 0"/></symbol><symbol overflow="visible" id="73227445H"><path d="M9.23-14.14l-2.18 2.6.33 2.41C5.67-7.2 3.36-6.37 0-6.37c-.88 0-1.66 1.09-1.66 3.34C-1.66-.72-.83.39 0 .39c4.02 0 6.77-2.16 8.47-5.72h.06C10.56-1.66 13.47.4 18.38.4c.8 0 1.64-1.33 1.64-3.31 0-2.03-.83-3.46-1.64-3.46-4.46 0-7.38-2.04-8.97-7.76zm3.8 25.36l3.14-3.85a17.43 17.43 0 01-4.19-3.53L9.23 7.42A13.66 13.66 0 015.9 4.06L2.7 7.92c1 1.42 2.87 2.9 4.19 3.52l2.35-3.25a12.98 12.98 0 003.8 3.03zm0 0"/></symbol><symbol overflow="visible" id="73227445I"><path d="M27.9-11.4l.32-1.96-2.49.98c-.59 3.63-1.96 5.5-3.84 5.5-1.6 0-2.58-1.3-2.7-3.68l.28-1.92-2.36.98c-1.38 3.8-3.25 5.13-5.23 5.13-2.15 0-3.24-1.49-3.46-3.43l.49-1.7-2.43.72C5-7.64 2.75-6.38 0-6.38c-.72 0-1.48 1.32-1.48 3.46C-1.48-.94-.77.39 0 .39 2.53.4 4.45-.88 6-3.9 6.7-1.27 8.42.4 10.83.4c2.42 0 4.19-1.44 5.73-4.8.6 2.64 2.36 4.3 4.61 4.3 2.2 0 3.75-1.37 4.95-4.56.72 3.19 2.86 5.06 6.82 5.06 1 0 2.04-1.33 2.04-3.31 0-2.03-1.04-3.46-2.04-3.46-2.75 0-4.83-1.93-5.05-5.01zm0 0"/></symbol><symbol overflow="visible" id="73227445J"><path d="M5.28-25.63l3.25-4.07a18.14 18.14 0 01-4.51-3.63L.77-29.27c1.04 1.55 3.14 2.97 4.51 3.64zm1.2 1.65L2.14-18.7c2.7 5.23 3.53 8.57 3.8 11.39-1.1.54-3.4.93-5.94.93-.83 0-1.48 1.1-1.48 3.35C-1.48-.66-.72.39 0 .39 3.63.4 6.27-.98 7.81-3.47c.99-1.64 1.6-4.01 1.6-7.25 0-3.69-.61-7.48-2.93-13.26zm0 0"/></symbol><symbol overflow="visible" id="73227445L"><path d="M5.9 19.8l1.74.39a7.56 7.56 0 001.27-4.4c0-1.6-.22-3.48-.66-6.27-.44-2.93-1.44-8.47-1.6-10.07.62-1.15 1.32-2.03 2.04-3.03 1.7 5.28 4.51 8.31 7.48 8.31 2.64 0 5.11-3.03 6.05-6.71a8.05 8.05 0 005.6 2.37c1.05 0 2.21-1.48 2.21-3.69 0-2.2-1.1-3.86-2.2-3.86-2.14 0-3.4-.59-5.9-3.18-2.79-2.97-3.95-3.96-6.59-3.96C10.02-14.3 2.2-5.28 2.2 1.48c0 1.99.49 4.13 1.49 7.93 1.04 4.06 1.75 6.8 2.2 10.39zM20.83-3.63A5.3 5.3 0 0117-2.08c-1.98 0-3.64-.83-5.67-4.13 1.15-1.1 2.03-1.64 3.62-1.64 1.72 0 4.4 1.49 5.9 4.24zm0 0"/></symbol><symbol overflow="visible" id="73227445M"><path d="M9.63-14.84l-2.36 2.8.26 2.35C5.9-7.97 3.52-7.16 0-7.16c-.83 0-1.66 1.22-1.66 3.75C-1.66-.83-.83.4 0 .4c4.13 0 6.98-2.2 8.69-5.83h.1C10.9-1.77 13.87.4 18.87.4c.83 0 1.66-1.48 1.66-3.69 0-2.2-.83-3.86-1.66-3.86-4.34 0-7.31-1.92-9.02-7.68zm3.73 26.45l3.36-3.97a20.09 20.09 0 01-4.4-3.8L9.4 7.6a15.28 15.28 0 01-3.52-3.57L2.53 8.03a11.5 11.5 0 004.35 3.74L9.4 8.42a13.21 13.21 0 003.95 3.19zm0 0"/></symbol><symbol overflow="visible" id="73227445N"><path d="M28.33-12.16l.33-1.87-2.7 1.05c-.55 3.46-1.93 5.34-3.79 5.34-1.65 0-2.64-1.27-2.75-3.64l.27-1.92-2.58 1.04c-1.33 3.58-3.36 5-5.34 5-2.2 0-3.24-1.53-3.3-3.34l.5-1.7-2.7.76C4.84-8.42 2.64-7.16 0-7.16c-.72 0-1.48 1.38-1.48 3.86C-1.48-1.1-.77.4 0 .4 2.53.4 4.4-.88 5.9-3.8 6.6-1.27 8.3.4 10.71.4c2.53 0 4.34-1.56 5.89-4.92.72 2.7 2.58 4.41 4.89 4.41 2.27 0 3.75-1.37 4.95-4.56.72 3.19 2.75 5.06 6.77 5.06 1.1 0 2.2-1.48 2.2-3.69 0-2.2-1.1-3.86-2.2-3.86-2.69 0-4.74-2.03-4.9-5zm0 0"/></symbol><symbol overflow="visible" id="73227445O"><path d="M5.4-26.45l3.46-4.35a19.08 19.08 0 01-4.8-3.86L.61-30.3c1.1 1.65 3.34 3.14 4.78 3.86zm1.3 1.48l-4.72 5.83c2.8 5.39 3.58 8.36 3.85 11.06-1.1.55-3.36.92-5.83.92-.77 0-1.48 1.16-1.48 3.75C-1.48-.83-.66.4 0 .4c3.84 0 6.55-1.55 8.14-4.34.94-1.72 1.55-4.08 1.55-7.49 0-3.86-.5-7.31-2.99-13.53zm0 0"/></symbol></defs><use xlink:href="#73227445a" x="106.7425" y="67.4672"/><use xlink:href="#73227445b" x="133.4725" y="67.4672"/><use xlink:href="#73227445c" x="150.2475" y="67.4672"/><use xlink:href="#73227445d" x="182.2575" y="67.4672"/><g fill-opacity=".33"><use xlink:href="#73227445e" x="66.66667" y="113.9344"/><use xlink:href="#73227445f" x="73.33367" y="113.9344"/><use xlink:href="#73227445g" x="80.00067" y="113.9344"/><use xlink:href="#73227445g" x="86.66767" y="113.9344"/><use xlink:href="#73227445h" x="93.33467" y="113.9344"/><use xlink:href="#73227445i" x="100.00167" y="113.9344"/><use xlink:href="#73227445j" x="106.66867" y="113.9344"/><use xlink:href="#73227445k" x="113.33567" y="113.9344"/><use xlink:href="#73227445l" x="120.00267" y="113.9344"/><use xlink:href="#73227445f" x="126.66967" y="113.9344"/><use xlink:href="#73227445m" x="133.33667" y="113.9344"/><use xlink:href="#73227445h" x="140.00367" y="113.9344"/><use xlink:href="#73227445n" x="146.67067" y="113.9344"/><use xlink:href="#73227445j" x="153.33767" y="113.9344"/><use xlink:href="#73227445o" x="160.00467" y="113.9344"/><use xlink:href="#73227445l" x="166.67167" y="113.9344"/><use xlink:href="#73227445p" x="173.33867" y="113.9344"/><use xlink:href="#73227445j" x="180.00567" y="113.9344"/><use xlink:href="#73227445q" x="186.67267" y="113.9344"/><use xlink:href="#73227445r" x="193.33967" y="113.9344"/><use xlink:href="#73227445s" x="200.00667" y="113.9344"/><use xlink:href="#73227445t" x="206.67367" y="113.9344"/><use xlink:href="#73227445u" x="213.34067" y="113.9344"/><use xlink:href="#73227445f" x="220.00767" y="113.9344"/><use xlink:href="#73227445l" x="226.67467" y="113.9344"/></g><use xlink:href="#73227445v" x="106.1375" y="185.7336"/><use xlink:href="#73227445w" x="133.1425" y="185.7336"/><use xlink:href="#73227445x" x="150.4125" y="185.7336"/><use xlink:href="#73227445y" x="182.6975" y="185.7336"/><g fill-opacity=".33"><use xlink:href="#73227445e" x="70" y="232.2008"/><use xlink:href="#73227445f" x="76.667" y="232.2008"/><use xlink:href="#73227445g" x="83.334" y="232.2008"/><use xlink:href="#73227445g" x="90.001" y="232.2008"/><use xlink:href="#73227445h" x="96.668" y="232.2008"/><use xlink:href="#73227445i" x="103.335" y="232.2008"/><use xlink:href="#73227445j" x="110.002" y="232.2008"/><use xlink:href="#73227445k" x="116.669" y="232.2008"/><use xlink:href="#73227445l" x="123.336" y="232.2008"/><use xlink:href="#73227445f" x="130.003" y="232.2008"/><use xlink:href="#73227445m" x="136.67" y="232.2008"/><use xlink:href="#73227445h" x="143.337" y="232.2008"/><use xlink:href="#73227445n" x="150.004" y="232.2008"/><use xlink:href="#73227445j" x="156.671" y="232.2008"/><use xlink:href="#73227445o" x="163.338" y="232.2008"/><use xlink:href="#73227445l" x="170.005" y="232.2008"/><use xlink:href="#73227445p" x="176.672" y="232.2008"/><use xlink:href="#73227445j" x="183.339" y="232.2008"/><use xlink:href="#73227445z" x="190.006" y="232.2008"/><use xlink:href="#73227445r" x="196.673" y="232.2008"/><use xlink:href="#73227445A" x="203.34" y="232.2008"/><use xlink:href="#73227445h" x="210.007" y="232.2008"/><use xlink:href="#73227445t" x="216.674" y="232.2008"/><use xlink:href="#73227445i" x="223.341" y="232.2008"/></g><g><use xlink:href="#73227445B" x="105.5325" y="304"/><use xlink:href="#73227445C" x="132.8125" y="304"/><use xlink:href="#73227445D" x="150.5775" y="304"/><use xlink:href="#73227445E" x="183.1925" y="304"/></g><g fill-opacity=".33"><use xlink:href="#73227445e" x="63.33333" y="350.4672"/><use xlink:href="#73227445f" x="70.00033" y="350.4672"/><use xlink:href="#73227445g" x="76.66733" y="350.4672"/><use xlink:href="#73227445g" x="83.33433" y="350.4672"/><use xlink:href="#73227445h" x="90.00133" y="350.4672"/><use xlink:href="#73227445i" x="96.66833" y="350.4672"/><use xlink:href="#73227445j" x="103.33533" y="350.4672"/><use xlink:href="#73227445k" x="110.00233" y="350.4672"/><use xlink:href="#73227445l" x="116.66933" y="350.4672"/><use xlink:href="#73227445f" x="123.33633" y="350.4672"/><use xlink:href="#73227445m" x="130.00333" y="350.4672"/><use xlink:href="#73227445h" x="136.67033" y="350.4672"/><use xlink:href="#73227445n" x="143.33733" y="350.4672"/><use xlink:href="#73227445j" x="150.00433" y="350.4672"/><use xlink:href="#73227445o" x="156.67133" y="350.4672"/><use xlink:href="#73227445l" x="163.33833" y="350.4672"/><use xlink:href="#73227445p" x="170.00533" y="350.4672"/><use xlink:href="#73227445j" x="176.67233" y="350.4672"/><use xlink:href="#73227445F" x="183.33933" y="350.4672"/><use xlink:href="#73227445r" x="190.00633" y="350.4672"/><use xlink:href="#73227445i" x="196.67333" y="350.4672"/><use xlink:href="#73227445h" x="203.34033" y="350.4672"/><use xlink:href="#73227445m" x="210.00733" y="350.4672"/><use xlink:href="#73227445p" x="216.67433" y="350.4672"/><use xlink:href="#73227445u" x="223.34133" y="350.4672"/><use xlink:href="#73227445A" x="230.00833" y="350.4672"/></g><g><use xlink:href="#73227445G" x="104.845" y="422.2664"/><use xlink:href="#73227445H" x="132.4" y="422.2664"/><use xlink:href="#73227445I" x="150.77" y="422.2664"/><use xlink:href="#73227445J" x="183.715" y="422.2664"/></g><g fill-opacity=".33"><use xlink:href="#73227445e" x="76.66667" y="468.7336"/><use xlink:href="#73227445f" x="83.33367" y="468.7336"/><use xlink:href="#73227445g" x="90.00067" y="468.7336"/><use xlink:href="#73227445g" x="96.66767" y="468.7336"/><use xlink:href="#73227445h" x="103.33467" y="468.7336"/><use xlink:href="#73227445i" x="110.00167" y="468.7336"/><use xlink:href="#73227445j" x="116.66867" y="468.7336"/><use xlink:href="#73227445k" x="123.33567" y="468.7336"/><use xlink:href="#73227445l" x="130.00267" y="468.7336"/><use xlink:href="#73227445f" x="136.66967" y="468.7336"/><use xlink:href="#73227445m" x="143.33667" y="468.7336"/><use xlink:href="#73227445h" x="150.00367" y="468.7336"/><use xlink:href="#73227445n" x="156.67067" y="468.7336"/><use xlink:href="#73227445j" x="163.33767" y="468.7336"/><use xlink:href="#73227445o" x="170.00467" y="468.7336"/><use xlink:href="#73227445l" x="176.67167" y="468.7336"/><use xlink:href="#73227445p" x="183.33867" y="468.7336"/><use xlink:href="#73227445j" x="190.00567" y="468.7336"/><use xlink:href="#73227445K" x="196.67267" y="468.7336"/><use xlink:href="#73227445p" x="203.33967" y="468.7336"/><use xlink:href="#73227445u" x="210.00667" y="468.7336"/><use xlink:href="#73227445A" x="216.67367" y="468.7336"/></g><g><use xlink:href="#73227445L" x="104.24" y="540.5328"/><use xlink:href="#73227445M" x="132.07" y="540.5328"/><use xlink:href="#73227445N" x="150.935" y="540.5328"/><use xlink:href="#73227445O" x="184.155" y="540.5328"/></g><g fill-opacity=".33"><use xlink:href="#73227445e" x="60" y="587"/><use xlink:href="#73227445f" x="66.667" y="587"/><use xlink:href="#73227445g" x="73.334" y="587"/><use xlink:href="#73227445g" x="80.001" y="587"/><use xlink:href="#73227445h" x="86.668" y="587"/><use xlink:href="#73227445i" x="93.335" y="587"/><use xlink:href="#73227445j" x="100.002" y="587"/><use xlink:href="#73227445k" x="106.669" y="587"/><use xlink:href="#73227445l" x="113.336" y="587"/><use xlink:href="#73227445f" x="120.003" y="587"/><use xlink:href="#73227445m" x="126.67" y="587"/><use xlink:href="#73227445h" x="133.337" y="587"/><use xlink:href="#73227445n" x="140.004" y="587"/><use xlink:href="#73227445j" x="146.671" y="587"/><use xlink:href="#73227445o" x="153.338" y="587"/><use xlink:href="#73227445l" x="160.005" y="587"/><use xlink:href="#73227445p" x="166.672" y="587"/><use xlink:href="#73227445j" x="173.339" y="587"/><use xlink:href="#73227445P" x="180.006" y="587"/><use xlink:href="#73227445Q" x="186.673" y="587"/><use xlink:href="#73227445R" x="193.34" y="587"/><use xlink:href="#73227445l" x="200.007" y="587"/><use xlink:href="#73227445f" x="206.674" y="587"/><use xlink:href="#73227445m" x="213.341" y="587"/><use xlink:href="#73227445p" x="220.008" y="587"/><use xlink:href="#73227445u" x="226.675" y="587"/><use xlink:href="#73227445A" x="233.342" y="587"/></g></svg>