<?xml version='1.0' encoding='UTF-8'?>
<svg xmlns="http://www.w3.org/2000/svg" xmlns:xlink="http://www.w3.org/1999/xlink" width="600px" height="300px" viewBox="0 0 600 300" x="0px" y="0px" enable-background="new 0 0 600 300"><defs><symbol overflow="visible" id="985fdb3aa"><path d="M10.02-11.81l4.39-4.27c-.72-1.62-3.43-4.5-5.6-5.76l-4.6 4.56a29.46 29.46 0 015.45 5.47zm0 0"/></symbol><symbol overflow="visible" id="985fdb3ab"><path d="M5.34-34.02L2.7-28.98c4.92 8.34 6.96 15.25 6.78 22.62C9.42-3 9.36-1.26 9.23.66h.13L12-.95c.23-1.86.42-5.53.42-8.53 0-8.1-2.51-16.97-6.97-24.54zm0 0"/></symbol><symbol overflow="visible" id="985fdb3ac"><path d="M5.22-34.02L2.7-28.98c6.07 9.78 8.1 16.26 7.92 23.46C10.5-3 10.5-1.27 10.38.66h.12l2.64-1.61c.23-1.86.42-5.53.42-8.53 0-4.2-1.26-9.66-3.36-14.16l.07-.06A7.52 7.52 0 0015-22.27c3.84 0 6.48-4.01 6.48-7.73 0-1.63-.18-3.42-.9-3.78l-.49-.24c-.3 4.8-2.21 7.2-5.51 7.2-3.42 0-6.3-2.23-9.17-7.2zm0 0"/></symbol><symbol overflow="visible" id="985fdb3ad"><path d="M5.4-34.02h-.18L2.7-28.98c6.07 9.78 7.92 16.26 7.92 23.46 0 2.33-.12 4.25-.24 6.18h.12l2.64-1.61c.23-1.86.42-5.53.42-8.53 0-4.2-1.33-9.47-3.42-13.97l.06-.07a7.22 7.22 0 004.02 1.25c1.69 0 2.64-1.07 3.23-2.45h.13a3 3 0 002.51 1.27c2.6 0 4.82-2.96 4.82-6.55 0-1.63-.2-3.42-.91-3.78l-.48-.24c-.18 3.66-1.38 6.43-3.11 6.43-2.35 0-1.5-3-2.7-5.83l-1.44.55c0 4.5-1.4 6.06-3.13 6.06-2.05 0-5.7-2.64-7.73-7.2zm0 0"/></symbol><symbol overflow="visible" id="985fdb3ae"><path d="M23.22-30.19l-1.92-3.83c-2.16 1.02-4.08 3.54-4.8 6.43h-.13c-1.6-4.5-4.18-6.43-7.07-6.43-2.28 0-3.96.83-5.16 2.88A10.6 10.6 0 002.7-26.1c0 2.64.96 4.54 3.24 9.17C8.22-12.2 9.06-9.2 9.06-6.36c0 2.7-.06 5.1-.25 7.02h.13l2.64-1.61c.23-1.86.42-4.33.42-5.53 0-4.57-.66-8.58-2.7-12.79-2.4-4.73-3.43-8.15-3.36-10.8.42-.16 1.56-.29 2.28-.29 2.15 0 4.5 1.73 6.78 8.81h1.38c1.92-5.03 3.84-7.25 6.78-8.57zm0 0"/></symbol><symbol overflow="visible" id="985fdb3af"><path d="M12.66-34.02L12-29.45c-6.06 7.73-9 14.03-9 19.6 0 5.22 3.3 9 6.78 9 1.8 0 3.13-1.13 4.08-3.35h.06c.96 1.98 2.81 3.36 4.67 3.36 3.25 0 6.55-4.02 6.55-9.6 0-6.97-4.27-16.56-12.23-23.58zm.84 6.72c6.42 6.43 9 12 9 16.68 0 3-1.5 5.1-3.48 5.1-2.22 0-3.54-1.39-4.25-7.26h-.13l-1.56.9c-.13.79-.17 2.33-.17 3.79-.85 1.73-1.75 2.57-3.2 2.57-2.21 0-4.07-1.8-4.07-5.21 0-4.2 2.1-8.83 7.86-16.57zm0 0"/></symbol><symbol overflow="visible" id="985fdb3ag"><path d="M2.45-34.02a4.25 4.25 0 00-1.25 3c0 1.86 1.61 3.43 5.35 3.43 2.64 0 6.23-.61 8.15-1.14l.07.1c-.61 3.68-1.27 8.11-1.27 11.9 0 7.5 2.16 13.5 5.7 17.45h.18l2.1-5.28c-3.42-4.02-5.04-9.66-5.04-15.6 0-5.21.78-9.18 1.56-13.2l-.19-.12c-1.9.54-5.58 1.07-9.3 1.07-3.1 0-5.03-.59-6.06-1.6zm0 0"/></symbol><symbol overflow="visible" id="985fdb3ah"><path d="M3.83 0v-5.95H6.2v-.82H.45v.82h2.4V0zm0 0"/></symbol><symbol overflow="visible" id="985fdb3ai"><path d="M5.75-2.23v-.43c0-1.6-.9-2.51-2.42-2.51S.87-4.16.87-2.48c0 1.71.91 2.62 2.5 2.62 1.43 0 2.07-.56 2.29-1.52l-.9-.09c-.18.61-.59.9-1.35.9-.94 0-1.52-.54-1.58-1.66zm-2.4-2.2c.93 0 1.43.5 1.48 1.55H1.84c.08-1.07.6-1.56 1.5-1.56zm0 0"/></symbol><symbol overflow="visible" id="985fdb3aj"><path d="M1.83 0l1.42-2h.06l1.46 2H5.8L4-2.53l1.78-2.49H4.8L3.42-3.08h-.08l-1.4-1.94H.89l1.78 2.49L.84 0zm0 0"/></symbol><symbol overflow="visible" id="985fdb3ak"><path d="M5.52-4.25v-.77H3.17v-1.56h-.81l-.14 1.56H.75v.77h1.47v2.4c0 1.3.48 1.94 1.84 1.94C4.6.1 5.14 0 5.55-.14L5.4-.91c-.32.13-.72.2-1.13.2-.8 0-1.1-.37-1.1-1.23v-2.31zm0 0"/></symbol><symbol overflow="visible" id="985fdb3al"><path d="M3.33-3.42c.47 0 .8-.27.8-.8 0-.51-.33-.8-.8-.8-.47 0-.8.29-.8.8 0 .53.33.8.8.8zm0 3.5c.47 0 .8-.27.8-.78 0-.53-.33-.82-.8-.82-.47 0-.8.29-.8.82 0 .51.33.78.8.78zm0 0"/></symbol><symbol overflow="visible" id="985fdb3au"><path d="M5.95-6.77H1.1V0h.99v-2.92H5.3v-.77H2.08v-2.26h3.87zm0 0"/></symbol><symbol overflow="visible" id="985fdb3av"><path d="M2.83.14c.94 0 1.5-.39 1.81-.95h.08l.1.81h.76v-3.38c0-1.23-.69-1.8-2.13-1.8-1.43 0-2.03.65-2.18 1.6l.93.1c.11-.6.44-.93 1.22-.93.85 0 1.22.32 1.22 1.04v.34l-1.81.2C1.6-2.7 1.1-2.17 1.1-1.28c0 .92.64 1.42 1.72 1.42zm.25-.77c-.67 0-1.02-.28-1.02-.74 0-.44.28-.72 1-.82l1.58-.19v.41c0 .8-.6 1.34-1.56 1.34zm0 0"/></symbol><symbol overflow="visible" id="985fdb3aw"><path d="M2.73.14c.9 0 1.43-.45 1.74-1.08h.06l.13.94h.8v-5.02h-.94v2.7c0 .98-.57 1.62-1.46 1.62-.75 0-1.1-.4-1.1-1.22v-3.1h-.93v3.32c0 1.17.55 1.84 1.7 1.84zm0 0"/></symbol><symbol overflow="visible" id="985fdb3ax"><path d="M5.08-5.16c-.94 0-1.58.43-1.9 1.3h-.09l-.07-1.16H1.05v.77h1.1v3.48H.96V0h3.96v-.77H3.1v-1.46c0-1.36.6-2.05 1.83-2.05.4 0 .76.08 1.1.17l.15-.87c-.33-.11-.7-.18-1.11-.18zm0 0"/></symbol><symbol overflow="visible" id="985fdb3ay"><path d="M2.08-6.77h-.99V0h4.79v-.81h-3.8zm0 0"/></symbol><symbol overflow="visible" id="985fdb3az"><path d="M3.58-5.81c.42 0 .72-.22.72-.67 0-.44-.3-.68-.72-.68-.44 0-.72.24-.72.68 0 .45.28.67.72.67zm.5.8H1.52v.76h1.6v3.48h-1.8V0h4.46v-.77h-1.7zm0 0"/></symbol><symbol overflow="visible" id="985fdb3aA"><path d="M2.16 0v-2.67c0-.99.59-1.63 1.46-1.63.74 0 1.07.38 1.07 1.22V0h.95v-3.31c0-1.2-.56-1.85-1.67-1.85-.92 0-1.49.46-1.77 1.08h-.06l-.12-.94H1.2V0zm0 0"/></symbol><symbol overflow="visible" id="985fdb3aB"><path d="M3.16 2.03c1.67 0 2.4-.86 2.4-2.51v-4.54h-.81l-.13.91h-.06c-.26-.58-.8-1.05-1.73-1.05-1.42 0-2.24 1-2.24 2.52 0 1.6.75 2.56 2.2 2.56.94 0 1.5-.5 1.77-1.03h.05v.72c0 1.17-.42 1.67-1.45 1.67-.93 0-1.3-.34-1.41-.89L.8.5c.12.96.87 1.54 2.36 1.54zM3.06-.8c-.98 0-1.48-.57-1.48-1.82 0-1.13.5-1.75 1.48-1.75 1.06 0 1.58.76 1.58 1.75 0 .95-.56 1.82-1.58 1.82zm0 0"/></symbol><symbol overflow="visible" id="985fdb3aC"><path d="M3.33.14c1.7 0 2.51-.86 2.51-2.69v-4.22h-.98v4.2c0 1.41-.47 1.9-1.53 1.9S1.8-1.16 1.8-2.57v-4.2H.8v4.22c0 1.83.81 2.7 2.52 2.7zm0 0"/></symbol><symbol overflow="visible" id="985fdb3aD"><path d="M2.84.14C3.8.14 4.33-.26 4.6-.9h.07L4.8 0h.76v-7.14h-.95v2.95h-.08c-.28-.6-.86-.97-1.67-.97-1.48 0-2.27.99-2.27 2.64C.6-.84 1.36.14 2.84.14zm.22-.8c-.98 0-1.48-.59-1.48-1.84s.5-1.86 1.48-1.86c1.13 0 1.58.8 1.58 1.86S4.2-.66 3.06-.66zm0 0"/></symbol><symbol overflow="visible" id="985fdb3aE"><path d="M1.63 0v-2.9c0-.8.15-1.4.71-1.4.41 0 .55.3.55.88V0h.95v-2.9c0-.8.18-1.4.72-1.4.4 0 .57.3.57.88V0h.95v-3.63c0-.92-.28-1.53-1.11-1.53-.63 0-.95.41-1.1.9h-.06c-.1-.52-.44-.9-1.08-.9-.6 0-.93.41-1.06.9H1.6l-.23-.76H.67V0zm0 0"/></symbol><symbol overflow="visible" id="985fdb3aF"><path d="M3.92-7.14H1.36v.76h1.6v5.61H1.15V0H5.7v-.77H3.92zm0 0"/></symbol><symbol overflow="visible" id="985fdb3aG"><path d="M3.36.16c1.4 0 2.2-.6 2.2-1.57 0-.89-.54-1.22-1.47-1.39L3-3c-.67-.14-.86-.33-.86-.73 0-.5.4-.74 1.17-.74.83 0 1.19.27 1.27.8l.9-.05c-.12-1-.8-1.47-2.17-1.47-1.34 0-2.1.53-2.1 1.5 0 .81.45 1.22 1.52 1.44l1.04.2c.56.11.87.24.87.72 0 .52-.45.78-1.28.78-.95 0-1.36-.28-1.42-.87l-.9.06C1.07-.36 1.8.16 3.35.16zm0 0"/></symbol><symbol overflow="visible" id="985fdb3aH"><path d="M1.45-2.95c0 2.56 1.08 4.37 3.67 4.84l.11-.67C3.28.86 2.43-.75 2.43-2.95s.85-3.82 2.8-4.16l-.1-.69c-2.6.49-3.68 2.3-3.68 4.85zm0 0"/></symbol><symbol overflow="visible" id="985fdb3aI"><path d="M1.45-7.1c1.96.33 2.8 1.94 2.8 4.15 0 2.2-.84 3.8-2.8 4.17l.11.67c2.58-.47 3.67-2.28 3.67-4.84 0-2.55-1.09-4.36-3.67-4.85zm0 0"/></symbol><symbol overflow="visible" id="985fdb3an"><path d="M1.38-1.45l.68-.68L1.2-3l-.67.67zm0 0"/></symbol><symbol overflow="visible" id="985fdb3ao"><path d="M1.14 0h.66c0-2.92-.1-3.38-.57-5.03L.52-5c.53 1.6.62 1.97.62 5zm0 0"/></symbol><symbol overflow="visible" id="985fdb3ap"><path d="M1.14 0h.66c0-1.28-.02-2.08-.08-2.72.2.06.42.1.6.1 1 0 1.46-.66 1.46-1.77 0-.2-.01-.42-.05-.64l-.65.06c.03.25.04.45.04.63 0 .65-.21.96-.8.96-.52 0-.68-.09-.84-.75l-.25-.9L.52-5c.53 1.6.62 1.97.62 5zm0 0"/></symbol><symbol overflow="visible" id="985fdb3aq"><path d="M1.14 0h.66c0-1.28-.02-2.08-.08-2.72.2.06.42.1.6.1.26 0 .48-.07.66-.2.24.12.63.2.82.2.84 0 1.22-.66 1.22-1.77 0-.19-.02-.42-.04-.64l-.6.06.01.47c0 .77-.14 1.13-.6 1.13-.15 0-.27-.02-.37-.05.1-.27.14-.58.14-.97 0-.2-.01-.42-.04-.64l-.66.06c.02.25.05.45.05.63 0 .65-.18.96-.6.96-.51 0-.67-.09-.83-.75l-.25-.9L.52-5c.53 1.6.62 1.97.62 5zm0 0"/></symbol><symbol overflow="visible" id="985fdb3ar"><path d="M1.14 0h.66c0-.92-.02-1.6-.03-2.16.21.04.45.05.71.05.66 0 1.43-.08 2.29-.25L4.84-3c-.53.13-1.32.19-1.56.2-.08 0-.08 0-.12-.06-.1-.14-.32-.48-.32-.86 0-.45.29-.64.7-.64.21 0 .48.06.74.16l.17-.64a2.7 2.7 0 00-.93-.2c-.77 0-1.32.46-1.32 1.35 0 .3.08.64.24.9-.24 0-.47 0-.66-.04-.06 0-.06 0-.08-.1a11.9 11.9 0 00-.47-2.1L.52-5c.53 1.6.62 1.97.62 5zm0 0"/></symbol><symbol overflow="visible" id="985fdb3as"><path d="M1.72 0c.25 0 .58-.03.81-.22.3.19.58.22.81.22.52 0 1.18-.27 1.18-1.4 0-1.16-.85-2.23-2.57-3.68l-.47.52.36.33C1-3.2.52-2.43.52-1.43.52-.35 1.08 0 1.72 0zm0-.75c-.36 0-.56-.19-.56-.69 0-.72.3-1.36 1.2-2.37 1.22 1.04 1.5 1.87 1.5 2.42 0 .45-.11.64-.5.64-.5 0-.5-.1-.5-.5v-.36H2.2v.36c0 .4 0 .5-.48.5zm0 0"/></symbol><symbol overflow="visible" id="985fdb3at"><path d="M.52 0h.87a5.44 5.44 0 012.95-2.6l.08-.8-1.19.52c-.28.15-.48.16-.71.04a.88.88 0 01-.47-.75c0-.5.34-.74.9-.74a3 3 0 01.77.11l.08-.69a3.1 3.1 0 00-.9-.14c-.88 0-1.54.49-1.54 1.49 0 .58.33 1.12.81 1.4C1.72-1.75 1.13-1 .52 0zm0 0"/></symbol></defs><g fill="#fff"><use xlink:href="#985fdb3aa" x="221.31" y="141"/><use xlink:href="#985fdb3ab" x="238.95" y="141"/><use xlink:href="#985fdb3ac" x="255.87" y="141"/><use xlink:href="#985fdb3ad" x="279.75" y="141"/><use xlink:href="#985fdb3ae" x="307.05" y="141"/><use xlink:href="#985fdb3af" x="327.57" y="141"/><use xlink:href="#985fdb3ag" x="353.91" y="141"/><use xlink:href="#985fdb3ah" x="265.3222" y="252"/><use xlink:href="#985fdb3ai" x="271.9892" y="252"/><use xlink:href="#985fdb3aj" x="278.6562" y="252"/><use xlink:href="#985fdb3ak" x="285.3232" y="252"/><use xlink:href="#985fdb3al" x="291.9902" y="252"/><use xlink:href="#985fdb3am" x="298.6572" y="252"/><g><use xlink:href="#985fdb3an" x="305.3222" y="252"/></g><g><use xlink:href="#985fdb3ao" x="307.9" y="252"/><use xlink:href="#985fdb3ap" x="310.219" y="252"/><use xlink:href="#985fdb3aq" x="314.518" y="252"/><use xlink:href="#985fdb3ar" x="320.057" y="252"/></g><g><use xlink:href="#985fdb3as" x="325.126" y="252"/></g><g><use xlink:href="#985fdb3at" x="329.745" y="252"/></g><g><use xlink:href="#985fdb3au" x="153.3333" y="266"/><use xlink:href="#985fdb3ai" x="160.0003" y="266"/><use xlink:href="#985fdb3av" x="166.6673" y="266"/><use xlink:href="#985fdb3ak" x="173.3343" y="266"/><use xlink:href="#985fdb3aw" x="180.0013" y="266"/><use xlink:href="#985fdb3ax" x="186.6683" y="266"/><use xlink:href="#985fdb3ai" x="193.3353" y="266"/><use xlink:href="#985fdb3al" x="200.0023" y="266"/><use xlink:href="#985fdb3am" x="206.6693" y="266"/><use xlink:href="#985fdb3ay" x="213.3363" y="266"/><use xlink:href="#985fdb3az" x="220.0033" y="266"/><use xlink:href="#985fdb3aA" x="226.6703" y="266"/><use xlink:href="#985fdb3az" x="233.3373" y="266"/><use xlink:href="#985fdb3aA" x="240.0043" y="266"/><use xlink:href="#985fdb3aB" x="246.6713" y="266"/><use xlink:href="#985fdb3am" x="253.3383" y="266"/><use xlink:href="#985fdb3aC" x="260.0053" y="266"/><use xlink:href="#985fdb3ax" x="266.6723" y="266"/><use xlink:href="#985fdb3aD" x="273.3393" y="266"/><use xlink:href="#985fdb3aw" x="280.0063" y="266"/><use xlink:href="#985fdb3am" x="286.6733" y="266"/><use xlink:href="#985fdb3aA" x="293.3403" y="266"/><use xlink:href="#985fdb3aw" x="300.0073" y="266"/><use xlink:href="#985fdb3aE" x="306.6743" y="266"/><use xlink:href="#985fdb3ai" x="313.3413" y="266"/><use xlink:href="#985fdb3ax" x="320.0083" y="266"/><use xlink:href="#985fdb3av" x="326.6753" y="266"/><use xlink:href="#985fdb3aF" x="333.3423" y="266"/><use xlink:href="#985fdb3aG" x="340.0093" y="266"/><use xlink:href="#985fdb3am" x="346.6763" y="266"/><use xlink:href="#985fdb3aH" x="353.3433" y="266"/><use xlink:href="#985fdb3aG" x="360.0103" y="266"/><use xlink:href="#985fdb3ai" x="366.6773" y="266"/><use xlink:href="#985fdb3ak" x="373.3443" y="266"/><use xlink:href="#985fdb3am" x="380.0113" y="266"/><use xlink:href="#985fdb3aF" x="386.6783" y="266"/><use xlink:href="#985fdb3av" x="393.3453" y="266"/><use xlink:href="#985fdb3aA" x="400.0123" y="266"/><use xlink:href="#985fdb3aB" x="406.6793" y="266"/><use xlink:href="#985fdb3aw" x="413.3463" y="266"/><use xlink:href="#985fdb3av" x="420.0133" y="266"/><use xlink:href="#985fdb3aB" x="426.6803" y="266"/><use xlink:href="#985fdb3ai" x="433.3473" y="266"/><use xlink:href="#985fdb3aI" x="440.0143" y="266"/></g></g></svg>