<?xml version='1.0' encoding='UTF-8'?>
<svg xmlns="http://www.w3.org/2000/svg" xmlns:xlink="http://www.w3.org/1999/xlink" width="600px" height="300px" viewBox="0 0 600 300" x="0px" y="0px" enable-background="new 0 0 600 300"><defs><symbol overflow="visible" id="f1d6598fa"><path d="M7.5-21.66l2.81-2.7A10.6 10.6 0 006.6-28.5l-3 3.13c1.33.82 3.07 2.51 3.72 3.71zm0 0"/></symbol><symbol overflow="visible" id="f1d6598fb"><path d="M8.77-24.72c0 5.03 1.18 7.5 3.89 9.72h.18l.96-3.78c-2.46-2.64-3.3-4.8-3.3-9.17 0-4.4-2.28-7.46-4.69-7.46-2.15 0-4.31 2.83-4.31 5.64 0 2.9 1.92 5.35 5.64 5.35a3.7 3.7 0 001.63-.3zm-.07-3.3c-.3.18-.9.3-1.68.3-1.97 0-3.36-.84-4.08-1.92.36-1.8 1.37-2.58 2.47-2.58 1.37 0 2.93 1.44 3.3 4.2zm0 0"/></symbol><symbol overflow="visible" id="f1d6598fc"><path d="M15.55-15l1.37-3.9c-3.19-3.24-5.28-8.46-6.12-15.18L8.52-35.4h-.24C8.05-28 5.7-23.09 1.5-18.9L3-15h.13C6.95-18.72 9-23.77 9.47-29.1h.24c.65 5.65 3.12 11.04 5.7 14.1zm0 0"/></symbol><symbol overflow="visible" id="f1d6598fd"><path d="M16.92-31.5l-1.37-3.9h-.13c-2.58 3.06-5.04 8.46-5.7 14.1h-.24C9-26.64 6.95-31.69 3.12-35.4H3l-1.5 3.9c4.2 4.2 6.55 9.13 6.78 16.5h.24l2.28-1.31c.84-6.74 2.93-11.96 6.12-15.19zm0 0"/></symbol><symbol overflow="visible" id="f1d6598fe"><path d="M1.5-35.45c-.6.53-.9 1.37-.9 2.1 0 1.43 1.09 2.63 3.77 2.63 1.44 0 3.49-.36 4.7-.72l.05.07c-.42 1.8-.78 4.07-.78 6.17 0 4.07 1.38 7.86 3.72 10.14h.24l1.32-3.85c-2.1-2.15-3.12-6.4-3.12-9.71 0-1.93.36-4.57.84-6.36l-.25-.18c-1.18.3-3.4.6-5.39.6-2.22 0-3.48-.36-4.2-.9zm0 0"/></symbol><symbol overflow="visible" id="f1d6598ff"><path d="M14.7-23.94c0-4.26-3.3-8.76-6.06-8.76-3.12 0-6.55 5.28-6.55 9.48 0 1.56.49 2.77 1.04 3.6.95 1.39 2.51 2.28 4.92 2.28 2.93 0 4.67-1.38 5.51-2.64a7.23 7.23 0 001.14-3.96zm-1.86.96a7.3 7.3 0 01-4.75 1.8c-2.03 0-3.65-.9-4.37-1.8.6-3.07 2.7-5.82 4.5-5.82 1.73 0 4.26 2.75 4.62 5.82zm0 0"/></symbol><symbol overflow="visible" id="f1d6598fg"><path d="M27.06-18.19l2.75-3.65c-1.12-.54-3-1.86-4.01-3.07l-2.35 3.36a13.42 13.42 0 01-3.23-2.93l-2.77 3.67a10.75 10.75 0 004.03 3.04l2.04-3c.96 1.04 2.46 2.11 3.54 2.58zm16.86-3.3L40.8-16.3c1.33 1.8 2.64 5.1 3.12 8.03-4.86 2.7-13.33 4.37-21.6 4.37-11.52 0-15.6-2.68-15.6-9.46 0-.61.19-2.11.36-3l-1.14.82c-.9.68-1.74 3.32-1.74 6.36 0 7.03 4.02 10.27 16.74 10.27 8.22 0 16.62-1.67 21.42-4.92 3.06-2.1 4.37-4.97 4.37-7.68 0-3.67-1.37-7.98-2.8-9.96zm0 0"/></symbol><symbol overflow="visible" id="f1d6598fi"><path d="M7.44-34.98l-.36 2.21c-4.02 4.2-5.52 8.54-5.52 11.65 0 3.84 2.16 5.57 3.96 5.57 1.03 0 1.92-.4 2.53-1.86h.04c.68 1.2 1.75 1.86 2.9 1.86 2.03 0 4.01-2.45 4.01-6.23 0-4.08-2.34-9.17-7.38-13.2zm.54 4.92c3.9 3.42 5.1 6.18 5.1 8.4 0 1.38-.53 2.46-1.86 2.46-1.2 0-1.86-.85-2.28-3.78H8.8l-1.31.54c-.13.3-.13 1.25-.13 1.99-.53.82-.78 1.25-1.8 1.25-1.2 0-2.15-.72-2.15-2.75 0-2.83 1.8-5.28 4.56-8.11zm0 0"/></symbol><symbol overflow="visible" id="f1d6598fj"><path d="M3.6-34.98L1.61-31.5c2.65 4.14 4.15 8.4 4.15 13.63 0 1.18-.07 1.96-.13 3.06h.24l1.8-1.46a26.57 26.57 0 00-.48-10.38h.17a4.77 4.77 0 003.49 1.38c1.2 0 2.28-.46 3.23-1.25l.68-3.12-.25-.13a6.55 6.55 0 01-4.38 1.5 6.97 6.97 0 01-3.6-.89c.73-1.56 2.33-2.76 3.96-2.76.95 0 1.8.3 2.4.84l.54-.36c-.85-2.58-2.16-3.9-3.49-3.9-1.73 0-3.23 1.32-4.07 4.14H5.7a14.22 14.22 0 00-1.86-3.78zm0 0"/></symbol><symbol overflow="visible" id="f1d6598fk"><path d="M3.72-35.45h-.24L1.5-31.98c2.64 4.14 4.14 8.34 4.14 13.62 0 1.2-.06 2.28-.12 3.36h.25l1.8-1.44c.16-1.2.29-2.7.29-4.08 0-3.67-.78-7.07-1.27-8.34l.2-.12c.77.78 1.5 1.07 2.33 1.07 1.02 0 1.61-.71 1.93-1.6h.17c.42.65.9 1.07 1.86 1.07 1.73 0 2.83-1.92 2.83-4.08 0-1.32-.36-2.53-.85-2.7l-.48-.19c-.13 2.6-.85 3.78-1.8 3.78-.65 0-1.08-.59-1.2-1.5-.13-.78-.3-1.5-.53-2.15l-1.03.55c0 2.09-.43 3.53-1.8 3.53-1.38 0-2.7-1.25-4.5-4.25zm0 0"/></symbol><symbol overflow="visible" id="f1d6598fl"><path d="M3.48-35.45L1.5-31.98c2.64 4.14 4.14 8.4 4.14 13.62 0 1.2-.06 2.34-.19 3.36h.25l1.8-1.44c.19-1.2.36-2.7.36-4.01 0-3.61-.49-6.74-1.2-8.18l.12-.1c.66.59 1.8 1.01 3.13 1.01 2.45 0 4.14-1.86 4.14-4.8 0-1.26-.43-2.64-.97-2.76l-.49-.13c-.23 2.6-.89 4.2-2.75 4.2-2.34 0-4.32-1.43-6.12-4.24zm0 0"/></symbol><symbol overflow="visible" id="f1d6598fm"><path d="M3.48-35.45L1.5-31.98a25.3 25.3 0 014.14 13.92c0 1.2-.06 1.98-.12 3.06h.25l1.8-1.44c.16-1.2.29-2.4.29-3.72 0-5.34-1.56-11.21-4.14-15.3zm0 0"/></symbol><symbol overflow="visible" id="f1d6598fn"><path d="M7.5-21.66l2.81-2.7A10.6 10.6 0 006.6-28.5l-3 3.13c1.33.82 3.07 2.51 3.72 3.71zm0 0"/></symbol><symbol overflow="visible" id="f1d6598fo"><path d="M3.83 0v-5.95H6.2v-.82H.45v.82h2.4V0zm0 0"/></symbol><symbol overflow="visible" id="f1d6598fp"><path d="M5.75-2.23v-.43c0-1.6-.9-2.51-2.42-2.51S.87-4.16.87-2.48c0 1.71.91 2.62 2.5 2.62 1.43 0 2.07-.56 2.29-1.52l-.9-.09c-.18.61-.59.9-1.35.9-.94 0-1.52-.54-1.58-1.66zm-2.4-2.2c.93 0 1.43.5 1.48 1.55H1.84c.08-1.07.6-1.56 1.5-1.56zm0 0"/></symbol><symbol overflow="visible" id="f1d6598fq"><path d="M1.83 0l1.42-2h.06l1.46 2H5.8L4-2.53l1.78-2.49H4.8L3.42-3.08h-.08l-1.4-1.94H.89l1.78 2.49L.84 0zm0 0"/></symbol><symbol overflow="visible" id="f1d6598fr"><path d="M5.52-4.25v-.77H3.17v-1.56h-.81l-.14 1.56H.75v.77h1.47v2.4c0 1.3.48 1.94 1.84 1.94C4.6.1 5.14 0 5.55-.14L5.4-.91c-.32.13-.72.2-1.13.2-.8 0-1.1-.37-1.1-1.23v-2.31zm0 0"/></symbol><symbol overflow="visible" id="f1d6598fs"><path d="M3.33-3.42c.47 0 .8-.27.8-.8 0-.51-.33-.8-.8-.8-.47 0-.8.29-.8.8 0 .53.33.8.8.8zm0 3.5c.47 0 .8-.27.8-.78 0-.53-.33-.82-.8-.82-.47 0-.8.29-.8.82 0 .51.33.78.8.78zm0 0"/></symbol><symbol overflow="visible" id="f1d6598fH"><path d="M5.95-6.77H1.1V0h.99v-2.92H5.3v-.77H2.08v-2.26h3.87zm0 0"/></symbol><symbol overflow="visible" id="f1d6598fI"><path d="M2.83.14c.94 0 1.5-.39 1.81-.95h.08l.1.81h.76v-3.38c0-1.23-.69-1.8-2.13-1.8-1.43 0-2.03.65-2.18 1.6l.93.1c.11-.6.44-.93 1.22-.93.85 0 1.22.32 1.22 1.04v.34l-1.81.2C1.6-2.7 1.1-2.17 1.1-1.28c0 .92.64 1.42 1.72 1.42zm.25-.77c-.67 0-1.02-.28-1.02-.74 0-.44.28-.72 1-.82l1.58-.19v.41c0 .8-.6 1.34-1.56 1.34zm0 0"/></symbol><symbol overflow="visible" id="f1d6598fJ"><path d="M2.73.14c.9 0 1.43-.45 1.74-1.08h.06l.13.94h.8v-5.02h-.94v2.7c0 .98-.57 1.62-1.46 1.62-.75 0-1.1-.4-1.1-1.22v-3.1h-.93v3.32c0 1.17.55 1.84 1.7 1.84zm0 0"/></symbol><symbol overflow="visible" id="f1d6598fK"><path d="M5.08-5.16c-.94 0-1.58.43-1.9 1.3h-.09l-.07-1.16H1.05v.77h1.1v3.48H.96V0h3.96v-.77H3.1v-1.46c0-1.36.6-2.05 1.83-2.05.4 0 .76.08 1.1.17l.15-.87c-.33-.11-.7-.18-1.11-.18zm0 0"/></symbol><symbol overflow="visible" id="f1d6598fL"><path d="M6.17 0L3.98-6.77h-1.3L.5 0h.97l.44-1.47h2.78L5.16 0zM3.28-5.94h.08l1.1 3.74H2.15zm0 0"/></symbol><symbol overflow="visible" id="f1d6598fM"><path d="M3.9.14c1.48 0 2.18-.98 2.18-2.64 0-1.67-.7-2.66-2.17-2.66-.91 0-1.49.41-1.79 1h-.06v-2.98h-.95V0h.81l.11-.9h.06c.29.63.82 1.04 1.82 1.04zm-.32-.8c-1.08 0-1.55-.8-1.55-1.84 0-1.06.47-1.86 1.55-1.86 1.1 0 1.51.61 1.51 1.86S4.64-.66 3.58-.66zm0 0"/></symbol><symbol overflow="visible" id="f1d6598fN"><path d="M3.58-5.81c.42 0 .72-.22.72-.67 0-.44-.3-.68-.72-.68-.44 0-.72.24-.72.68 0 .45.28.67.72.67zm.5.8H1.52v.76h1.6v3.48h-1.8V0h4.46v-.77h-1.7zm0 0"/></symbol><symbol overflow="visible" id="f1d6598fO"><path d="M3.34.14c1.43 0 2.13-.66 2.25-1.78l-.89-.1c-.1.7-.5 1.08-1.34 1.08-1.03 0-1.52-.64-1.52-1.84 0-1.23.47-1.86 1.52-1.86.84 0 1.23.36 1.34 1.08l.9-.1c-.13-1.09-.82-1.78-2.26-1.78-1.56 0-2.46.97-2.46 2.66 0 1.66.9 2.64 2.46 2.64zm0 0"/></symbol><symbol overflow="visible" id="f1d6598fP"><path d="M2.58.95l2.39-8.67h-.9L1.7.95zm0 0"/></symbol><symbol overflow="visible" id="f1d6598fQ"><path d="M.92-6.77V0h.99v-2.27h1.68c1.58 0 2.38-.65 2.38-2.2v-.14c0-1.51-.8-2.16-2.34-2.16zM5-4.47c0 1.05-.42 1.45-1.58 1.45H1.91v-2.96h1.51C4.58-5.98 5-5.66 5-4.61zm0 0"/></symbol><symbol overflow="visible" id="f1d6598fR"><path d="M3.36.16c1.4 0 2.2-.6 2.2-1.57 0-.89-.54-1.22-1.47-1.39L3-3c-.67-.14-.86-.33-.86-.73 0-.5.4-.74 1.17-.74.83 0 1.19.27 1.27.8l.9-.05c-.12-1-.8-1.47-2.17-1.47-1.34 0-2.1.53-2.1 1.5 0 .81.45 1.22 1.52 1.44l1.04.2c.56.11.87.24.87.72 0 .52-.45.78-1.28.78-.95 0-1.36-.28-1.42-.87l-.9.06C1.07-.36 1.8.16 3.35.16zm0 0"/></symbol><symbol overflow="visible" id="f1d6598fS"><path d="M2.16 0v-2.67c0-.99.59-1.63 1.46-1.63.74 0 1.07.38 1.07 1.22V0h.95v-3.31c0-1.2-.56-1.85-1.67-1.85-.92 0-1.49.46-1.77 1.08h-.06l-.12-.94H1.2V0zm0 0"/></symbol><symbol overflow="visible" id="f1d6598fT"><path d="M3.33.14c1.7 0 2.51-.86 2.51-2.69v-4.22h-.98v4.2c0 1.41-.47 1.9-1.53 1.9S1.8-1.16 1.8-2.57v-4.2H.8v4.22c0 1.83.81 2.7 2.52 2.7zm0 0"/></symbol><symbol overflow="visible" id="f1d6598fU"><path d="M2.84.14C3.8.14 4.33-.26 4.6-.9h.07L4.8 0h.76v-7.14h-.95v2.95h-.08c-.28-.6-.86-.97-1.67-.97-1.48 0-2.27.99-2.27 2.64C.6-.84 1.36.14 2.84.14zm.22-.8c-.98 0-1.48-.59-1.48-1.84s.5-1.86 1.48-1.86c1.13 0 1.58.8 1.58 1.86S4.2-.66 3.06-.66zm0 0"/></symbol><symbol overflow="visible" id="f1d6598fV"><path d="M2.06 1.9V-.84h.05c.28.58.8.97 1.77.97 1.5 0 2.2-.98 2.2-2.66 0-1.65-.7-2.64-2.19-2.64-.97 0-1.5.44-1.78 1.05h-.08l-.1-.9H1.1v6.9zm1.5-2.56c-1.06 0-1.53-.8-1.53-1.86 0-1.04.47-1.84 1.53-1.84 1.11 0 1.53.61 1.53 1.84 0 1.27-.42 1.86-1.53 1.86zm0 0"/></symbol><symbol overflow="visible" id="f1d6598fW"><path d="M3.33.14c1.62 0 2.5-.95 2.5-2.66 0-1.68-.88-2.64-2.5-2.64-1.63 0-2.5.96-2.5 2.64 0 1.7.87 2.66 2.5 2.66zm0-.77c-1.06 0-1.52-.6-1.52-1.89 0-1.28.46-1.87 1.52-1.87 1.08 0 1.53.6 1.53 1.87 0 1.29-.45 1.9-1.53 1.9zm0 0"/></symbol><symbol overflow="visible" id="f1d6598fX"><path d="M1.45-2.95c0 2.56 1.08 4.37 3.67 4.84l.11-.67C3.28.86 2.43-.75 2.43-2.95s.85-3.82 2.8-4.16l-.1-.69c-2.6.49-3.68 2.3-3.68 4.85zm0 0"/></symbol><symbol overflow="visible" id="f1d6598fY"><path d="M3.34-1.52c-.51 0-.8.32-.8.82 0 .5.33.78.76.78-.1.4-.36.95-.7 1.39l.5.23A4.48 4.48 0 004.13-.64c0-.55-.3-.88-.78-.88zm0 0"/></symbol><symbol overflow="visible" id="f1d6598fZ"><path d="M3.92-7.14H1.36v.76h1.6v5.61H1.15V0H5.7v-.77H3.92zm0 0"/></symbol><symbol overflow="visible" id="f1d6598faa"><path d="M3.42-.86h-.08L1.77-5.02H.8L2.73 0h.41c-.33.95-.72 1.27-1.45 1.27-.22 0-.49-.04-.69-.08l-.1.73c.2.06.58.11.87.11 1.2 0 1.7-.7 2.21-2.03l1.94-5.02H5zm0 0"/></symbol><symbol overflow="visible" id="f1d6598fab"><path d="M1.45-7.1c1.96.33 2.8 1.94 2.8 4.15 0 2.2-.84 3.8-2.8 4.17l.11.67c2.58-.47 3.67-2.28 3.67-4.84 0-2.55-1.09-4.36-3.67-4.85zm0 0"/></symbol><symbol overflow="visible" id="f1d6598fu"><path d="M1.38-1.45l.68-.68L1.2-3l-.67.67zm0 0"/></symbol><symbol overflow="visible" id="f1d6598fv"><path d="M2.95 0h.67a16.58 16.58 0 01-.28-3c0-1.4-.42-2.08-1.36-2.08-.76 0-1.46.74-1.46 1.8 0 .9.62 1.36 1.59 1.36.2 0 .42-.02.64-.05.03.69.1 1.3.2 1.97zm-.93-2.67c-.61 0-.86-.17-.86-.61 0-.67.34-1.05.8-1.05.73 0 .76.66.76 1.52 0 .1 0 .1-.1.1-.12.02-.37.04-.6.04zm0 0"/></symbol><symbol overflow="visible" id="f1d6598fw"><path d="M1.23 0c.4-.78.91-2.27 1.24-3.5C2.8-2.27 3.3-.83 3.7 0l.72-.08a19.94 19.94 0 01-1.6-4.95h-.68c-.2 1.22-.86 3.4-1.62 4.95zm0 0"/></symbol><symbol overflow="visible" id="f1d6598fx"><path d="M2.14 0h.67c.19-1.22.85-3.42 1.61-4.97l-.72-.06c-.4.81-.9 2.25-1.23 3.48a21.03 21.03 0 00-1.24-3.48l-.71.06A21.04 21.04 0 012.14 0zm0 0"/></symbol><symbol overflow="visible" id="f1d6598fy"><path d="M2.84 0h.7c-.23-1-.29-1.83-.29-2.75 0-.67.03-1.4.08-2.28H.59l-.07.75h2.06l-.03 1.36c0 1 .08 1.84.3 2.92zm0 0"/></symbol><symbol overflow="visible" id="f1d6598fz"><path d="M2.33-.22c1.2 0 1.76-.64 1.76-1.7 0-1.19-.67-2.74-1.8-2.74-1.09 0-1.77 1.5-1.77 2.7 0 1.1.6 1.74 1.8 1.74zm.01-.75C1.5-.97 1.17-1.34 1.17-2c0-.75.46-1.9 1.14-1.9.69 0 1.13 1.18 1.13 1.93 0 .7-.38 1-1.1 1zm0 0"/></symbol><symbol overflow="visible" id="f1d6598fA"><path d="M2.73-3.36l.35-.47.6.47.37-.48-.61-.46-.35.46-.6-.46-.35.47zM1.58 0H4.9c.8 0 1.07-.34 1.07-1.1v-.26L5.84-3l-.67.06.14 1.61.03.33c0 .23-.09.25-.51.25H1.72c-.61 0-.61 0-.61-.56v-1.31H.44v1.48C.44-.31.8 0 1.58 0zm0 0"/></symbol><symbol overflow="visible" id="f1d6598fB"><path d="M1.72 0c.25 0 .58-.03.81-.22.3.19.58.22.81.22.52 0 1.18-.27 1.18-1.4 0-1.16-.85-2.23-2.57-3.68l-.47.52.36.33C1-3.2.52-2.43.52-1.43.52-.35 1.08 0 1.72 0zm0-.75c-.36 0-.56-.19-.56-.69 0-.72.3-1.36 1.2-2.37 1.22 1.04 1.5 1.87 1.5 2.42 0 .45-.11.64-.5.64-.5 0-.5-.1-.5-.5v-.36H2.2v.36c0 .4 0 .5-.48.5zm0 0"/></symbol><symbol overflow="visible" id="f1d6598fC"><path d="M1.14 0h.66c0-.92-.02-1.6-.03-2.16.21.04.45.05.71.05.66 0 1.43-.08 2.29-.25L4.84-3c-.53.13-1.32.19-1.56.2-.08 0-.08 0-.12-.06-.1-.14-.32-.48-.32-.86 0-.45.29-.64.7-.64.21 0 .48.06.74.16l.17-.64a2.7 2.7 0 00-.93-.2c-.77 0-1.32.46-1.32 1.35 0 .3.08.64.24.9-.24 0-.47 0-.66-.04-.06 0-.06 0-.08-.1a11.9 11.9 0 00-.47-2.1L.52-5c.53 1.6.62 1.97.62 5zm0 0"/></symbol><symbol overflow="visible" id="f1d6598fD"><path d="M1.14 0h.66c0-1.28-.02-2.08-.08-2.72.2.06.42.1.6.1.26 0 .48-.07.66-.2.24.12.63.2.82.2.84 0 1.22-.66 1.22-1.77 0-.19-.02-.42-.04-.64l-.6.06.01.47c0 .77-.14 1.13-.6 1.13-.15 0-.27-.02-.37-.05.1-.27.14-.58.14-.97 0-.2-.01-.42-.04-.64l-.66.06c.02.25.05.45.05.63 0 .65-.18.96-.6.96-.51 0-.67-.09-.83-.75l-.25-.9L.52-5c.53 1.6.62 1.97.62 5zm0 0"/></symbol><symbol overflow="visible" id="f1d6598fE"><path d="M1.14 0h.66c0-1.28-.02-2.08-.08-2.72.2.06.42.1.6.1 1 0 1.46-.66 1.46-1.77 0-.2-.01-.42-.05-.64l-.65.06c.03.25.04.45.04.63 0 .65-.21.96-.8.96-.52 0-.68-.09-.84-.75l-.25-.9L.52-5c.53 1.6.62 1.97.62 5zm0 0"/></symbol><symbol overflow="visible" id="f1d6598fF"><path d="M1.14 0h.66c0-2.92-.1-3.38-.57-5.03L.52-5c.53 1.6.62 1.97.62 5zm0 0"/></symbol><symbol overflow="visible" id="f1d6598fG"><path d="M1.78-1.02c.69 0 1.27-.51 1.27-1.26 0-.74-.58-1.25-1.27-1.25-.69 0-1.26.51-1.26 1.25 0 .75.57 1.26 1.26 1.26zm0-.7c-.36 0-.62-.2-.62-.56 0-.36.26-.56.62-.56s.63.2.63.56c0 .36-.27.56-.63.56zm0 0"/></symbol></defs><use xlink:href="#f1d6598fa" x="152.61" y="141" fill="#fff"/><use xlink:href="#f1d6598fb" x="166.53" y="141" fill="#fff"/><use xlink:href="#f1d6598fc" x="181.83" y="141" fill="#fff"/><use xlink:href="#f1d6598fd" x="198.45" y="141" fill="#fff"/><use xlink:href="#f1d6598fe" x="216.87" y="141" fill="#fff"/><use xlink:href="#f1d6598ff" x="231.39" y="141" fill="#fff"/><g fill="#515151"><use xlink:href="#f1d6598fg" x="248.19" y="141"/><use xlink:href="#f1d6598fh" x="297.03" y="141"/></g><use xlink:href="#f1d6598fi" x="308.43" y="141" fill="#fff"/><use xlink:href="#f1d6598fj" x="324.99" y="141" fill="#fff"/><use xlink:href="#f1d6598fk" x="341.13" y="141" fill="#fff"/><use xlink:href="#f1d6598fl" x="358.53" y="141" fill="#fff"/><use xlink:href="#f1d6598fm" x="374.07" y="141" fill="#fff"/><use xlink:href="#f1d6598fn" x="384.63" y="141" fill="#fff"/><use xlink:href="#f1d6598fg" x="398.55" y="141" fill="#515151"/><g fill="#fff"><use xlink:href="#f1d6598fo" x="245.3444" y="252"/><use xlink:href="#f1d6598fp" x="252.0114" y="252"/><use xlink:href="#f1d6598fq" x="258.6784" y="252"/><use xlink:href="#f1d6598fr" x="265.3454" y="252"/><use xlink:href="#f1d6598fs" x="272.0124" y="252"/><use xlink:href="#f1d6598ft" x="278.6794" y="252"/></g><g fill="#fff"><use xlink:href="#f1d6598fu" x="285.3444" y="252"/><use xlink:href="#f1d6598fv" x="287.6254" y="252"/></g><use xlink:href="#f1d6598fw" x="291.7664" y="252" fill="#fff"/><use xlink:href="#f1d6598fx" x="296.0374" y="252" fill="#fff"/><use xlink:href="#f1d6598fy" x="300.9684" y="252" fill="#fff"/><use xlink:href="#f1d6598fz" x="305.0294" y="252" fill="#fff"/><use xlink:href="#f1d6598fA" x="309.6407" y="252" fill="#fff"/><g fill="#fff"><use xlink:href="#f1d6598fB" x="322.7407" y="252"/><use xlink:href="#f1d6598fC" x="327.3997" y="252"/></g><use xlink:href="#f1d6598fD" x="332.5087" y="252" fill="#fff"/><use xlink:href="#f1d6598fE" x="338.0477" y="252" fill="#fff"/><use xlink:href="#f1d6598fF" x="342.3467" y="252" fill="#fff"/><use xlink:href="#f1d6598fG" x="344.6657" y="252" fill="#fff"/><use xlink:href="#f1d6598fA" x="348.2222" y="252" fill="#fff"/><g fill="#fff"><use xlink:href="#f1d6598fH" x="93.33333" y="266"/><use xlink:href="#f1d6598fp" x="100.00033" y="266"/><use xlink:href="#f1d6598fI" x="106.66733" y="266"/><use xlink:href="#f1d6598fr" x="113.33433" y="266"/><use xlink:href="#f1d6598fJ" x="120.00133" y="266"/><use xlink:href="#f1d6598fK" x="126.66833" y="266"/><use xlink:href="#f1d6598fp" x="133.33533" y="266"/><use xlink:href="#f1d6598fs" x="140.00233" y="266"/><use xlink:href="#f1d6598ft" x="146.66933" y="266"/><use xlink:href="#f1d6598fL" x="153.33633" y="266"/><use xlink:href="#f1d6598fK" x="160.00333" y="266"/><use xlink:href="#f1d6598fI" x="166.67033" y="266"/><use xlink:href="#f1d6598fM" x="173.33733" y="266"/><use xlink:href="#f1d6598fN" x="180.00433" y="266"/><use xlink:href="#f1d6598fO" x="186.67133" y="266"/><use xlink:href="#f1d6598fP" x="193.33833" y="266"/><use xlink:href="#f1d6598fQ" x="200.00533" y="266"/><use xlink:href="#f1d6598fp" x="206.67233" y="266"/><use xlink:href="#f1d6598fK" x="213.33933" y="266"/><use xlink:href="#f1d6598fR" x="220.00633" y="266"/><use xlink:href="#f1d6598fN" x="226.67333" y="266"/><use xlink:href="#f1d6598fI" x="233.34033" y="266"/><use xlink:href="#f1d6598fS" x="240.00733" y="266"/><use xlink:href="#f1d6598fP" x="246.67433" y="266"/><use xlink:href="#f1d6598fT" x="253.34133" y="266"/><use xlink:href="#f1d6598fK" x="260.00833" y="266"/><use xlink:href="#f1d6598fU" x="266.67533" y="266"/><use xlink:href="#f1d6598fJ" x="273.34233" y="266"/><use xlink:href="#f1d6598ft" x="280.00933" y="266"/><use xlink:href="#f1d6598fR" x="286.67633" y="266"/><use xlink:href="#f1d6598fJ" x="293.34333" y="266"/><use xlink:href="#f1d6598fV" x="300.01033" y="266"/><use xlink:href="#f1d6598fp" x="306.67733" y="266"/><use xlink:href="#f1d6598fK" x="313.34433" y="266"/><use xlink:href="#f1d6598fN" x="320.01133" y="266"/><use xlink:href="#f1d6598fW" x="326.67833" y="266"/><use xlink:href="#f1d6598fK" x="333.34533" y="266"/><use xlink:href="#f1d6598fR" x="340.01233" y="266"/><use xlink:href="#f1d6598ft" x="346.67933" y="266"/><use xlink:href="#f1d6598fX" x="353.34633" y="266"/><use xlink:href="#f1d6598fR" x="360.01333" y="266"/><use xlink:href="#f1d6598fJ" x="366.68033" y="266"/><use xlink:href="#f1d6598fV" x="373.34733" y="266"/><use xlink:href="#f1d6598fR" x="380.01433" y="266"/><use xlink:href="#f1d6598fY" x="386.68133" y="266"/><use xlink:href="#f1d6598ft" x="393.34833" y="266"/><use xlink:href="#f1d6598fL" x="400.01533" y="266"/><use xlink:href="#f1d6598fK" x="406.68233" y="266"/><use xlink:href="#f1d6598fI" x="413.34933" y="266"/><use xlink:href="#f1d6598fM" x="420.01633" y="266"/><use xlink:href="#f1d6598fN" x="426.68333" y="266"/><use xlink:href="#f1d6598fO" x="433.35033" y="266"/><use xlink:href="#f1d6598ft" x="440.01733" y="266"/><use xlink:href="#f1d6598fQ" x="446.68433" y="266"/><use xlink:href="#f1d6598fK" x="453.35133" y="266"/><use xlink:href="#f1d6598fW" x="460.01833" y="266"/><use xlink:href="#f1d6598ft" x="466.68533" y="266"/><use xlink:href="#f1d6598fW" x="473.35233" y="266"/><use xlink:href="#f1d6598fS" x="480.01933" y="266"/><use xlink:href="#f1d6598fZ" x="486.68633" y="266"/><use xlink:href="#f1d6598faa" x="493.35333" y="266"/><use xlink:href="#f1d6598fab" x="500.02033" y="266"/></g></svg>