<?xml version='1.0' encoding='UTF-8'?>
<svg xmlns="http://www.w3.org/2000/svg" xmlns:xlink="http://www.w3.org/1999/xlink" width="600px" height="300px" viewBox="0 0 600 300" x="0px" y="0px" enable-background="new 0 0 600 300"><defs><symbol overflow="visible" id="2546e665a"><path d="M14.52-11.1l4.75-4.26v-.36c-1.14-1.98-3.68-4.73-5.77-5.94h-.36l-4.73 4.38v.36a33.9 33.9 0 015.68 5.83zm0 0"/></symbol><symbol overflow="visible" id="2546e665b"><path d="M4.8-34.02V2.94h3.25v-36.96zm0 0"/></symbol><symbol overflow="visible" id="2546e665c"><path d="M9.36-34.02l-2.88 5.04c6.66 8.34 9.43 15.25 9.11 22.62-.1 3.36-.1 5.1-.3 7.02h.13L18.3-.95c.25-1.86.42-5.53.42-8.53 0-8.1-3.13-16.97-9.24-24.54zm0 0"/></symbol><symbol overflow="visible" id="2546e665d"><path d="M8.05-34.02l-2.53 5.04c6.54 9.78 8.7 16.26 8.46 23.46-.06 2.52-.06 4.25-.25 6.18h.13l2.7-1.61c.24-1.86.42-5.53.42-8.53 0-4.2-1.39-9.66-3.67-14.16l.06-.06c1.08.84 2.7 1.43 4.99 1.43 4.02 0 6.84-4.01 6.84-7.73 0-1.63-.12-3.42-.9-3.78l-.53-.24c-.32 4.8-2.35 7.2-5.9 7.2-3.59 0-6.65-2.23-9.59-7.2zm0 0"/></symbol><symbol overflow="visible" id="2546e665e"><path d="M6.23-34.02h-.17l-2.51 5.04c6.04 9.78 7.9 16.26 7.9 23.46 0 2.33-.1 4.25-.23 6.18h.12l2.64-1.61c.24-1.86.43-5.53.43-8.53 0-4.2-1.33-9.47-3.43-13.97l.07-.07a7.19 7.19 0 004.01 1.25c1.74 0 2.7-1.07 3.3-2.45h.12A2.96 2.96 0 0021-23.45c2.58 0 4.8-2.96 4.8-6.55 0-1.63-.18-3.42-.9-3.78l-.48-.24c-.19 3.66-1.37 6.43-3.12 6.43-2.35 0-1.5-3-2.7-5.83l-1.44.55c0 4.5-1.38 6.06-3.18 6.06-2.04 0-5.7-2.64-7.75-7.2zm0 0"/></symbol><symbol overflow="visible" id="2546e665f"><path d="M25.98-30.19L24-34.02c-2.28 1.02-4.38 3.54-5.1 6.43h-.12c-1.73-4.5-4.5-6.43-7.62-6.43a6 6 0 00-5.4 2.88 9.23 9.23 0 00-1.5 5.05c0 2.64 1.08 4.54 3.47 9.17 2.47 4.73 3.25 7.73 3.25 10.56 0 2.7-.06 5.1-.25 7.02h.13l2.7-1.61c.24-1.86.42-4.33.42-5.53 0-4.57-.6-8.58-2.82-12.79-2.46-4.67-2.94-6.42-2.94-8.45 0-.6.12-1.5.36-2.05.48-.17 1.01-.3 1.8-.3 2.1 0 4.74 2.23 6.96 8.52h1.38c2.1-5.03 4.08-7.25 7.2-8.57zm0 0"/></symbol><symbol overflow="visible" id="2546e665g"><path d="M12.36-34.02l-.66 4.57c-6.06 7.73-9 14.03-9 19.6 0 5.22 3.3 9 6.78 9 1.8 0 3.11-1.13 4.14-3.35h.07c.95 1.98 2.81 3.36 4.67 3.36 3.23 0 6.55-4.02 6.55-9.6 0-6.97-4.27-16.56-12.32-23.58zm.9 6.72c6.43 6.43 9 12 9 16.68 0 3-1.5 5.1-3.48 5.1-2.22 0-3.55-1.39-4.26-7.26h-.11l-1.57.9c-.18.79-.18 2.33-.18 3.79-.9 1.73-1.8 2.57-3.24 2.57-2.22 0-4.08-1.8-4.08-5.21 0-4.2 2.1-8.83 7.93-16.57zm0 0"/></symbol><symbol overflow="visible" id="2546e665h"><path d="M3.42-34.02c-.9.9-1.26 1.86-1.26 3 0 1.86 1.62 3.43 5.53 3.43 2.75 0 6.6-.61 8.58-1.14l.04.1c-.6 3.68-1.31 8.11-1.31 11.9 0 7.5 2.28 13.5 5.88 17.45h.18l2.22-5.28C19.68-8.58 18-14.22 18-20.16c0-5.21.78-9.18 1.63-13.2l-.25-.12a40.78 40.78 0 01-9.66 1.07c-3.24 0-5.28-.59-6.3-1.6zm0 0"/></symbol><symbol overflow="visible" id="2546e665i"><path d="M3.83 0v-5.95H6.2v-.82H.45v.82h2.4V0zm0 0"/></symbol><symbol overflow="visible" id="2546e665j"><path d="M5.75-2.23v-.43c0-1.6-.9-2.51-2.42-2.51S.87-4.16.87-2.48c0 1.71.91 2.62 2.5 2.62 1.43 0 2.07-.56 2.29-1.52l-.9-.09c-.18.61-.59.9-1.35.9-.94 0-1.52-.54-1.58-1.66zm-2.4-2.2c.93 0 1.43.5 1.48 1.55H1.84c.08-1.07.6-1.56 1.5-1.56zm0 0"/></symbol><symbol overflow="visible" id="2546e665k"><path d="M1.83 0l1.42-2h.06l1.46 2H5.8L4-2.53l1.78-2.49H4.8L3.42-3.08h-.08l-1.4-1.94H.89l1.78 2.49L.84 0zm0 0"/></symbol><symbol overflow="visible" id="2546e665l"><path d="M5.52-4.25v-.77H3.17v-1.56h-.81l-.14 1.56H.75v.77h1.47v2.4c0 1.3.48 1.94 1.84 1.94C4.6.1 5.14 0 5.55-.14L5.4-.91c-.32.13-.72.2-1.13.2-.8 0-1.1-.37-1.1-1.23v-2.31zm0 0"/></symbol><symbol overflow="visible" id="2546e665m"><path d="M3.33-3.42c.47 0 .8-.27.8-.8 0-.51-.33-.8-.8-.8-.47 0-.8.29-.8.8 0 .53.33.8.8.8zm0 3.5c.47 0 .8-.27.8-.78 0-.53-.33-.82-.8-.82-.47 0-.8.29-.8.82 0 .51.33.78.8.78zm0 0"/></symbol><symbol overflow="visible" id="2546e665v"><path d="M5.95-6.77H1.1V0h.99v-2.92H5.3v-.77H2.08v-2.26h3.87zm0 0"/></symbol><symbol overflow="visible" id="2546e665w"><path d="M2.83.14c.94 0 1.5-.39 1.81-.95h.08l.1.81h.76v-3.38c0-1.23-.69-1.8-2.13-1.8-1.43 0-2.03.65-2.18 1.6l.93.1c.11-.6.44-.93 1.22-.93.85 0 1.22.32 1.22 1.04v.34l-1.81.2C1.6-2.7 1.1-2.17 1.1-1.28c0 .92.64 1.42 1.72 1.42zm.25-.77c-.67 0-1.02-.28-1.02-.74 0-.44.28-.72 1-.82l1.58-.19v.41c0 .8-.6 1.34-1.56 1.34zm0 0"/></symbol><symbol overflow="visible" id="2546e665x"><path d="M2.73.14c.9 0 1.43-.45 1.74-1.08h.06l.13.94h.8v-5.02h-.94v2.7c0 .98-.57 1.62-1.46 1.62-.75 0-1.1-.4-1.1-1.22v-3.1h-.93v3.32c0 1.17.55 1.84 1.7 1.84zm0 0"/></symbol><symbol overflow="visible" id="2546e665y"><path d="M5.08-5.16c-.94 0-1.58.43-1.9 1.3h-.09l-.07-1.16H1.05v.77h1.1v3.48H.96V0h3.96v-.77H3.1v-1.46c0-1.36.6-2.05 1.83-2.05.4 0 .76.08 1.1.17l.15-.87c-.33-.11-.7-.18-1.11-.18zm0 0"/></symbol><symbol overflow="visible" id="2546e665z"><path d="M3.9.14c1.48 0 2.18-.98 2.18-2.64 0-1.67-.7-2.66-2.17-2.66-.91 0-1.49.41-1.79 1h-.06v-2.98h-.95V0h.81l.11-.9h.06c.29.63.82 1.04 1.82 1.04zm-.32-.8c-1.08 0-1.55-.8-1.55-1.84 0-1.06.47-1.86 1.55-1.86 1.1 0 1.51.61 1.51 1.86S4.64-.66 3.58-.66zm0 0"/></symbol><symbol overflow="visible" id="2546e665A"><path d="M3.92-7.14H1.36v.76h1.6v5.61H1.15V0H5.7v-.77H3.92zm0 0"/></symbol><symbol overflow="visible" id="2546e665B"><path d="M3.58-5.81c.42 0 .72-.22.72-.67 0-.44-.3-.68-.72-.68-.44 0-.72.24-.72.68 0 .45.28.67.72.67zm.5.8H1.52v.76h1.6v3.48h-1.8V0h4.46v-.77h-1.7zm0 0"/></symbol><symbol overflow="visible" id="2546e665C"><path d="M2.16 0v-2.67c0-.99.59-1.63 1.46-1.63.74 0 1.07.38 1.07 1.22V0h.95v-3.31c0-1.2-.56-1.85-1.67-1.85-.92 0-1.49.46-1.77 1.08h-.06l-.12-.94H1.2V0zm0 0"/></symbol><symbol overflow="visible" id="2546e665D"><path d="M3.16 2.03c1.67 0 2.4-.86 2.4-2.51v-4.54h-.81l-.13.91h-.06c-.26-.58-.8-1.05-1.73-1.05-1.42 0-2.24 1-2.24 2.52 0 1.6.75 2.56 2.2 2.56.94 0 1.5-.5 1.77-1.03h.05v.72c0 1.17-.42 1.67-1.45 1.67-.93 0-1.3-.34-1.41-.89L.8.5c.12.96.87 1.54 2.36 1.54zM3.06-.8c-.98 0-1.48-.57-1.48-1.82 0-1.13.5-1.75 1.48-1.75 1.06 0 1.58.76 1.58 1.75 0 .95-.56 1.82-1.58 1.82zm0 0"/></symbol><symbol overflow="visible" id="2546e665E"><path d="M3.33.14c1.7 0 2.51-.86 2.51-2.69v-4.22h-.98v4.2c0 1.41-.47 1.9-1.53 1.9S1.8-1.16 1.8-2.57v-4.2H.8v4.22c0 1.83.81 2.7 2.52 2.7zm0 0"/></symbol><symbol overflow="visible" id="2546e665F"><path d="M2.84.14C3.8.14 4.33-.26 4.6-.9h.07L4.8 0h.76v-7.14h-.95v2.95h-.08c-.28-.6-.86-.97-1.67-.97-1.48 0-2.27.99-2.27 2.64C.6-.84 1.36.14 2.84.14zm.22-.8c-.98 0-1.48-.59-1.48-1.84s.5-1.86 1.48-1.86c1.13 0 1.58.8 1.58 1.86S4.2-.66 3.06-.66zm0 0"/></symbol><symbol overflow="visible" id="2546e665G"><path d="M1.63 0v-2.9c0-.8.15-1.4.71-1.4.41 0 .55.3.55.88V0h.95v-2.9c0-.8.18-1.4.72-1.4.4 0 .57.3.57.88V0h.95v-3.63c0-.92-.28-1.53-1.11-1.53-.63 0-.95.41-1.1.9h-.06c-.1-.52-.44-.9-1.08-.9-.6 0-.93.41-1.06.9H1.6l-.23-.76H.67V0zm0 0"/></symbol><symbol overflow="visible" id="2546e665H"><path d="M3.36.16c1.4 0 2.2-.6 2.2-1.57 0-.89-.54-1.22-1.47-1.39L3-3c-.67-.14-.86-.33-.86-.73 0-.5.4-.74 1.17-.74.83 0 1.19.27 1.27.8l.9-.05c-.12-1-.8-1.47-2.17-1.47-1.34 0-2.1.53-2.1 1.5 0 .81.45 1.22 1.52 1.44l1.04.2c.56.11.87.24.87.72 0 .52-.45.78-1.28.78-.95 0-1.36-.28-1.42-.87l-.9.06C1.07-.36 1.8.16 3.35.16zm0 0"/></symbol><symbol overflow="visible" id="2546e665I"><path d="M1.45-2.95c0 2.56 1.08 4.37 3.67 4.84l.11-.67C3.28.86 2.43-.75 2.43-2.95s.85-3.82 2.8-4.16l-.1-.69c-2.6.49-3.68 2.3-3.68 4.85zm0 0"/></symbol><symbol overflow="visible" id="2546e665J"><path d="M5.4-1.22c.43-.66.66-1.51.66-2.44l-.83-.09c0 .75-.14 1.4-.4 1.92l-1.7-1.83c.8-.42 1.39-.96 1.39-1.86 0-.87-.66-1.4-1.61-1.4-1.14 0-1.72.62-1.72 1.47 0 .72.47 1.3.83 1.68-.8.41-1.52.99-1.52 2.1C.5-.44 1.52.14 2.7.14c.9 0 1.64-.3 2.2-.78l.58.64h1.05zM2.86-6.25c.44 0 .82.23.82.73 0 .7-.47 1.11-1 1.41-.47-.53-.67-.92-.67-1.34 0-.47.3-.8.85-.8zM2.81-.62c-.83 0-1.42-.41-1.42-1.18 0-.76.5-1.18 1.05-1.5l1.94 2.1c-.4.37-.91.57-1.57.57zm0 0"/></symbol><symbol overflow="visible" id="2546e665K"><path d="M1.45-7.1c1.96.33 2.8 1.94 2.8 4.15 0 2.2-.84 3.8-2.8 4.17l.11.67c2.58-.47 3.67-2.28 3.67-4.84 0-2.55-1.09-4.36-3.67-4.85zm0 0"/></symbol><symbol overflow="visible" id="2546e665o"><path d="M1.38-1.45l.68-.68L1.2-3l-.67.67zm0 0"/></symbol><symbol overflow="visible" id="2546e665p"><path d="M1.14 0h.66c0-2.92-.1-3.38-.57-5.03L.52-5c.53 1.6.62 1.97.62 5zm0 0"/></symbol><symbol overflow="visible" id="2546e665q"><path d="M1.14 0h.66c0-1.28-.02-2.08-.08-2.72.2.06.42.1.6.1 1 0 1.46-.66 1.46-1.77 0-.2-.01-.42-.05-.64l-.65.06c.03.25.04.45.04.63 0 .65-.21.96-.8.96-.52 0-.68-.09-.84-.75l-.25-.9L.52-5c.53 1.6.62 1.97.62 5zm0 0"/></symbol><symbol overflow="visible" id="2546e665r"><path d="M1.14 0h.66c0-1.28-.02-2.08-.08-2.72.2.06.42.1.6.1.26 0 .48-.07.66-.2.24.12.63.2.82.2.84 0 1.22-.66 1.22-1.77 0-.19-.02-.42-.04-.64l-.6.06.01.47c0 .77-.14 1.13-.6 1.13-.15 0-.27-.02-.37-.05.1-.27.14-.58.14-.97 0-.2-.01-.42-.04-.64l-.66.06c.02.25.05.45.05.63 0 .65-.18.96-.6.96-.51 0-.67-.09-.83-.75l-.25-.9L.52-5c.53 1.6.62 1.97.62 5zm0 0"/></symbol><symbol overflow="visible" id="2546e665s"><path d="M1.14 0h.66c0-.92-.02-1.6-.03-2.16.21.04.45.05.71.05.66 0 1.43-.08 2.29-.25L4.84-3c-.53.13-1.32.19-1.56.2-.08 0-.08 0-.12-.06-.1-.14-.32-.48-.32-.86 0-.45.29-.64.7-.64.21 0 .48.06.74.16l.17-.64a2.7 2.7 0 00-.93-.2c-.77 0-1.32.46-1.32 1.35 0 .3.08.64.24.9-.24 0-.47 0-.66-.04-.06 0-.06 0-.08-.1a11.9 11.9 0 00-.47-2.1L.52-5c.53 1.6.62 1.97.62 5zm0 0"/></symbol><symbol overflow="visible" id="2546e665t"><path d="M1.72 0c.25 0 .58-.03.81-.22.3.19.58.22.81.22.52 0 1.18-.27 1.18-1.4 0-1.16-.85-2.23-2.57-3.68l-.47.52.36.33C1-3.2.52-2.43.52-1.43.52-.35 1.08 0 1.72 0zm0-.75c-.36 0-.56-.19-.56-.69 0-.72.3-1.36 1.2-2.37 1.22 1.04 1.5 1.87 1.5 2.42 0 .45-.11.64-.5.64-.5 0-.5-.1-.5-.5v-.36H2.2v.36c0 .4 0 .5-.48.5zm0 0"/></symbol><symbol overflow="visible" id="2546e665u"><path d="M.52 0h.87a5.44 5.44 0 012.95-2.6l.08-.8-1.19.52c-.28.15-.48.16-.71.04a.88.88 0 01-.47-.75c0-.5.34-.74.9-.74a3 3 0 01.77.11l.08-.69a3.1 3.1 0 00-.9-.14c-.88 0-1.54.49-1.54 1.49 0 .58.33 1.12.81 1.4C1.72-1.75 1.13-1 .52 0zm0 0"/></symbol></defs><use xlink:href="#2546e665a" x="164.88" y="141" fill="#fff"/><use xlink:href="#2546e665b" x="192.48" y="141" fill="#515151"/><use xlink:href="#2546e665c" x="205.32" y="141" fill="#fff"/><use xlink:href="#2546e665b" x="232.92" y="141" fill="#515151"/><use xlink:href="#2546e665d" x="245.76" y="141" fill="#fff"/><use xlink:href="#2546e665b" x="273.36" y="141" fill="#515151"/><use xlink:href="#2546e665e" x="286.2" y="141" fill="#fff"/><use xlink:href="#2546e665b" x="313.8" y="141" fill="#515151"/><use xlink:href="#2546e665f" x="326.64" y="141" fill="#fff"/><use xlink:href="#2546e665b" x="354.24" y="141" fill="#515151"/><use xlink:href="#2546e665g" x="367.08" y="141" fill="#fff"/><use xlink:href="#2546e665b" x="394.68" y="141" fill="#515151"/><use xlink:href="#2546e665h" x="407.52" y="141" fill="#fff"/><g fill="#fff"><use xlink:href="#2546e665i" x="265.3222" y="252"/><use xlink:href="#2546e665j" x="271.9892" y="252"/><use xlink:href="#2546e665k" x="278.6562" y="252"/><use xlink:href="#2546e665l" x="285.3232" y="252"/><use xlink:href="#2546e665m" x="291.9902" y="252"/><use xlink:href="#2546e665n" x="298.6572" y="252"/></g><use xlink:href="#2546e665o" x="305.3222" y="252" fill="#fff"/><g fill="#fff"><use xlink:href="#2546e665p" x="307.9" y="252"/><use xlink:href="#2546e665q" x="310.219" y="252"/><use xlink:href="#2546e665r" x="314.518" y="252"/><use xlink:href="#2546e665s" x="320.057" y="252"/></g><use xlink:href="#2546e665t" x="325.126" y="252" fill="#fff"/><use xlink:href="#2546e665u" x="329.745" y="252" fill="#fff"/><g fill="#fff"><use xlink:href="#2546e665v" x="103.33333" y="266"/><use xlink:href="#2546e665j" x="110.00033" y="266"/><use xlink:href="#2546e665w" x="116.66733" y="266"/><use xlink:href="#2546e665l" x="123.33433" y="266"/><use xlink:href="#2546e665x" x="130.00133" y="266"/><use xlink:href="#2546e665y" x="136.66833" y="266"/><use xlink:href="#2546e665j" x="143.33533" y="266"/><use xlink:href="#2546e665m" x="150.00233" y="266"/><use xlink:href="#2546e665n" x="156.66933" y="266"/><use xlink:href="#2546e665i" x="163.33633" y="266"/><use xlink:href="#2546e665w" x="170.00333" y="266"/><use xlink:href="#2546e665z" x="176.67033" y="266"/><use xlink:href="#2546e665x" x="183.33733" y="266"/><use xlink:href="#2546e665A" x="190.00433" y="266"/><use xlink:href="#2546e665w" x="196.67133" y="266"/><use xlink:href="#2546e665y" x="203.33833" y="266"/><use xlink:href="#2546e665n" x="210.00533" y="266"/><use xlink:href="#2546e665A" x="216.67233" y="266"/><use xlink:href="#2546e665B" x="223.33933" y="266"/><use xlink:href="#2546e665C" x="230.00633" y="266"/><use xlink:href="#2546e665B" x="236.67333" y="266"/><use xlink:href="#2546e665C" x="243.34033" y="266"/><use xlink:href="#2546e665D" x="250.00733" y="266"/><use xlink:href="#2546e665n" x="256.67433" y="266"/><use xlink:href="#2546e665E" x="263.34133" y="266"/><use xlink:href="#2546e665y" x="270.00833" y="266"/><use xlink:href="#2546e665F" x="276.67533" y="266"/><use xlink:href="#2546e665x" x="283.34233" y="266"/><use xlink:href="#2546e665n" x="290.00933" y="266"/><use xlink:href="#2546e665C" x="296.67633" y="266"/><use xlink:href="#2546e665x" x="303.34333" y="266"/><use xlink:href="#2546e665G" x="310.01033" y="266"/><use xlink:href="#2546e665j" x="316.67733" y="266"/><use xlink:href="#2546e665y" x="323.34433" y="266"/><use xlink:href="#2546e665w" x="330.01133" y="266"/><use xlink:href="#2546e665A" x="336.67833" y="266"/><use xlink:href="#2546e665H" x="343.34533" y="266"/><use xlink:href="#2546e665n" x="350.01233" y="266"/><use xlink:href="#2546e665I" x="356.67933" y="266"/><use xlink:href="#2546e665H" x="363.34633" y="266"/><use xlink:href="#2546e665j" x="370.01333" y="266"/><use xlink:href="#2546e665l" x="376.68033" y="266"/><use xlink:href="#2546e665n" x="383.34733" y="266"/><use xlink:href="#2546e665A" x="390.01433" y="266"/><use xlink:href="#2546e665w" x="396.68133" y="266"/><use xlink:href="#2546e665C" x="403.34833" y="266"/><use xlink:href="#2546e665D" x="410.01533" y="266"/><use xlink:href="#2546e665x" x="416.68233" y="266"/><use xlink:href="#2546e665w" x="423.34933" y="266"/><use xlink:href="#2546e665D" x="430.01633" y="266"/><use xlink:href="#2546e665j" x="436.68333" y="266"/><use xlink:href="#2546e665n" x="443.35033" y="266"/><use xlink:href="#2546e665J" x="450.01733" y="266"/><use xlink:href="#2546e665n" x="456.68433" y="266"/><use xlink:href="#2546e665l" x="463.35133" y="266"/><use xlink:href="#2546e665C" x="470.01833" y="266"/><use xlink:href="#2546e665x" x="476.68533" y="266"/><use xlink:href="#2546e665G" x="483.35233" y="266"/><use xlink:href="#2546e665K" x="490.01933" y="266"/></g></svg>