<?xml version='1.0' encoding='UTF-8'?>
<svg xmlns="http://www.w3.org/2000/svg" xmlns:xlink="http://www.w3.org/1999/xlink" width="600px" height="300px" viewBox="0 0 600 300" x="0px" y="0px" enable-background="new 0 0 600 300"><defs><symbol overflow="visible" id="604ffb88a"><path d="M14.52-7.73L19.27-12v-.36c-1.14-1.98-3.68-4.73-5.77-5.94h-.36l-4.73 4.38v.36a33.9 33.9 0 015.68 5.83zm0 0"/></symbol><symbol overflow="visible" id="604ffb88b"><path d="M4.8-34.02V2.94h3.25v-36.96zm0 0"/></symbol><symbol overflow="visible" id="604ffb88c"><path d="M10.31-27.6l-2.58 4.62c4.99 8.53 6.07 12.25 6.07 18.6 0 2.22-.11 3.6-.24 4.97h.17l2.54-1.5c.23-1.54.42-3.65.42-5.93 0-7.14-1.33-11.58-6.25-20.75zm0 0"/></symbol><symbol overflow="visible" id="604ffb88d"><path d="M4.92-27.6l-2.47 4.44c5.4 8.1 6.97 12.43 6.97 18.72C9.42-2.16 9.3-.78 9.2.6h.17l2.52-1.5c.24-1.54.42-3.65.42-5.93 0-4.25-.66-7.25-1.8-10.08l.06-.06a6.63 6.63 0 003.96 1.26c3.25 0 5.57-3.06 5.57-7.73 0-1.86-.53-3.68-1.18-3.9l-.68-.24c0 5.21-1.37 7.73-4.07 7.73-3 0-5.64-1.73-9.07-7.73zm0 0"/></symbol><symbol overflow="visible" id="604ffb88e"><path d="M5.1-27.6h-.18l-2.47 4.38c6.25 9.9 7.1 12.84 7.1 18.72 0 1.92-.13 3.55-.2 5.1h.13L12-.96c.23-1.63.42-4.63.42-7.1 0-2.87-.6-6.6-1.98-9.4l.06-.07c.84.72 1.8 1.2 2.88 1.2 1.5 0 2.4-.9 2.76-2.34h.13c.65 1.02 1.37 1.5 2.45 1.5 2.34 0 4.33-3.12 4.33-6.54 0-1.86-.55-3.36-1.2-3.66l-.5-.23c-.12 4.18-.94 6.36-2.63 6.36-2.1 0-1.5-3.43-2.64-6.36l-1.44.59c0 5.1-.72 6.36-2.4 6.36-1.87 0-4.44-2.28-7.15-6.95zm0 0"/></symbol><symbol overflow="visible" id="604ffb88f"><path d="M6.19-27.6l-2.64 5.04c5.1 8.34 7.01 15.18 7.01 22.62 0 3.36-.06 5.1-.25 7.02h.13l2.64-1.63c.23-1.86.42-5.51.42-8.51 0-4.31-.55-7.08-1.31-10.31l.1-.07A8.84 8.84 0 0018-11.45a7.4 7.4 0 005.22-1.99l.84-4.62-.12-.07a9.97 9.97 0 01-7.08 2.7 9.98 9.98 0 01-5.88-2.02c1.02-3.07 3.54-5.53 6.36-5.53 1.61 0 2.82.6 3.6 1.5l.97-.72c-1.14-3.49-3.32-5.4-5.41-5.4-2.64 0-5.16 2.52-6.48 7.2H9.9c-1.14-2.94-2.11-5.04-3.68-7.2zm0 0"/></symbol><symbol overflow="visible" id="604ffb88g"><path d="M12.66-34.02L12-29.45c-6.06 7.73-9 14.03-9 19.6 0 5.22 3.3 9 6.78 9 1.8 0 3.13-1.13 4.14-3.35h.06c.96 1.98 2.82 3.36 4.68 3.36 3.25 0 6.54-4.02 6.54-9.6 0-6.97-4.26-16.56-12.3-23.58zm.9 6.72c6.42 6.43 9 12 9 16.68 0 3-1.5 5.1-3.48 5.1-2.22 0-3.53-1.39-4.27-7.26h-.1l-1.57.9c-.19.79-.19 2.33-.19 3.79-.89 1.73-1.8 2.57-3.23 2.57-2.22 0-4.08-1.8-4.08-5.21 0-4.2 2.1-8.83 7.92-16.57zm0 0"/></symbol><symbol overflow="visible" id="604ffb88h"><path d="M4.08 6.95h.12L6.55 6c4.3-10.31 8.75-15.55 16.37-19.5l1.2-4.73-.18-.2c-2.64.91-6.36 3.24-8.35 4.8-4.54-.71-6.95-2.74-8.03-6.23 1.08-1.69 4.2-3.3 6.49-3.3 2.1 0 4.18.9 5.57 1.93l.96-.72c-1.74-3.43-4.27-5.64-6.85-5.64-4.5 0-8.51 5.64-8.51 9.46 0 3.55 2.94 6.68 6.9 7.99C8.7-5.81 5.88.13 4.09 6.96zm0 0"/></symbol><symbol overflow="visible" id="604ffb88i"><path d="M3.83 0v-5.95H6.2v-.82H.45v.82h2.4V0zm0 0"/></symbol><symbol overflow="visible" id="604ffb88j"><path d="M5.75-2.23v-.43c0-1.6-.9-2.51-2.42-2.51S.87-4.16.87-2.48c0 1.71.91 2.62 2.5 2.62 1.43 0 2.07-.56 2.29-1.52l-.9-.09c-.18.61-.59.9-1.35.9-.94 0-1.52-.54-1.58-1.66zm-2.4-2.2c.93 0 1.43.5 1.48 1.55H1.84c.08-1.07.6-1.56 1.5-1.56zm0 0"/></symbol><symbol overflow="visible" id="604ffb88k"><path d="M1.83 0l1.42-2h.06l1.46 2H5.8L4-2.53l1.78-2.49H4.8L3.42-3.08h-.08l-1.4-1.94H.89l1.78 2.49L.84 0zm0 0"/></symbol><symbol overflow="visible" id="604ffb88l"><path d="M5.52-4.25v-.77H3.17v-1.56h-.81l-.14 1.56H.75v.77h1.47v2.4c0 1.3.48 1.94 1.84 1.94C4.6.1 5.14 0 5.55-.14L5.4-.91c-.32.13-.72.2-1.13.2-.8 0-1.1-.37-1.1-1.23v-2.31zm0 0"/></symbol><symbol overflow="visible" id="604ffb88m"><path d="M3.33-3.42c.47 0 .8-.27.8-.8 0-.51-.33-.8-.8-.8-.47 0-.8.29-.8.8 0 .53.33.8.8.8zm0 3.5c.47 0 .8-.27.8-.78 0-.53-.33-.82-.8-.82-.47 0-.8.29-.8.82 0 .51.33.78.8.78zm0 0"/></symbol><symbol overflow="visible" id="604ffb88v"><path d="M5.95-6.77H1.1V0h.99v-2.92H5.3v-.77H2.08v-2.26h3.87zm0 0"/></symbol><symbol overflow="visible" id="604ffb88w"><path d="M2.83.14c.94 0 1.5-.39 1.81-.95h.08l.1.81h.76v-3.38c0-1.23-.69-1.8-2.13-1.8-1.43 0-2.03.65-2.18 1.6l.93.1c.11-.6.44-.93 1.22-.93.85 0 1.22.32 1.22 1.04v.34l-1.81.2C1.6-2.7 1.1-2.17 1.1-1.28c0 .92.64 1.42 1.72 1.42zm.25-.77c-.67 0-1.02-.28-1.02-.74 0-.44.28-.72 1-.82l1.58-.19v.41c0 .8-.6 1.34-1.56 1.34zm0 0"/></symbol><symbol overflow="visible" id="604ffb88x"><path d="M2.73.14c.9 0 1.43-.45 1.74-1.08h.06l.13.94h.8v-5.02h-.94v2.7c0 .98-.57 1.62-1.46 1.62-.75 0-1.1-.4-1.1-1.22v-3.1h-.93v3.32c0 1.17.55 1.84 1.7 1.84zm0 0"/></symbol><symbol overflow="visible" id="604ffb88y"><path d="M5.08-5.16c-.94 0-1.58.43-1.9 1.3h-.09l-.07-1.16H1.05v.77h1.1v3.48H.96V0h3.96v-.77H3.1v-1.46c0-1.36.6-2.05 1.83-2.05.4 0 .76.08 1.1.17l.15-.87c-.33-.11-.7-.18-1.11-.18zm0 0"/></symbol><symbol overflow="visible" id="604ffb88z"><path d="M3.9.14c1.48 0 2.18-.98 2.18-2.64 0-1.67-.7-2.66-2.17-2.66-.91 0-1.49.41-1.79 1h-.06v-2.98h-.95V0h.81l.11-.9h.06c.29.63.82 1.04 1.82 1.04zm-.32-.8c-1.08 0-1.55-.8-1.55-1.84 0-1.06.47-1.86 1.55-1.86 1.1 0 1.51.61 1.51 1.86S4.64-.66 3.58-.66zm0 0"/></symbol><symbol overflow="visible" id="604ffb88A"><path d="M3.92-7.14H1.36v.76h1.6v5.61H1.15V0H5.7v-.77H3.92zm0 0"/></symbol><symbol overflow="visible" id="604ffb88B"><path d="M2.16 0v-2.67c0-.99.59-1.63 1.46-1.63.74 0 1.07.38 1.07 1.22V0h.95v-3.31c0-1.2-.56-1.85-1.67-1.85-.92 0-1.49.46-1.77 1.08h-.06l-.12-.94H1.2V0zm0 0"/></symbol><symbol overflow="visible" id="604ffb88C"><path d="M3.16 2.03c1.67 0 2.4-.86 2.4-2.51v-4.54h-.81l-.13.91h-.06c-.26-.58-.8-1.05-1.73-1.05-1.42 0-2.24 1-2.24 2.52 0 1.6.75 2.56 2.2 2.56.94 0 1.5-.5 1.77-1.03h.05v.72c0 1.17-.42 1.67-1.45 1.67-.93 0-1.3-.34-1.41-.89L.8.5c.12.96.87 1.54 2.36 1.54zM3.06-.8c-.98 0-1.48-.57-1.48-1.82 0-1.13.5-1.75 1.48-1.75 1.06 0 1.58.76 1.58 1.75 0 .95-.56 1.82-1.58 1.82zm0 0"/></symbol><symbol overflow="visible" id="604ffb88D"><path d="M3.58-5.81c.42 0 .72-.22.72-.67 0-.44-.3-.68-.72-.68-.44 0-.72.24-.72.68 0 .45.28.67.72.67zm.5.8H1.52v.76h1.6v3.48h-1.8V0h4.46v-.77h-1.7zm0 0"/></symbol><symbol overflow="visible" id="604ffb88E"><path d="M.92-6.77V0h.99v-2.27h1.68c1.58 0 2.38-.65 2.38-2.2v-.14c0-1.51-.8-2.16-2.34-2.16zM5-4.47c0 1.05-.42 1.45-1.58 1.45H1.91v-2.96h1.51C4.58-5.98 5-5.66 5-4.61zm0 0"/></symbol><symbol overflow="visible" id="604ffb88F"><path d="M3.36.16c1.4 0 2.2-.6 2.2-1.57 0-.89-.54-1.22-1.47-1.39L3-3c-.67-.14-.86-.33-.86-.73 0-.5.4-.74 1.17-.74.83 0 1.19.27 1.27.8l.9-.05c-.12-1-.8-1.47-2.17-1.47-1.34 0-2.1.53-2.1 1.5 0 .81.45 1.22 1.52 1.44l1.04.2c.56.11.87.24.87.72 0 .52-.45.78-1.28.78-.95 0-1.36-.28-1.42-.87l-.9.06C1.07-.36 1.8.16 3.35.16zm0 0"/></symbol><symbol overflow="visible" id="604ffb88G"><path d="M1.63 0v-2.9c0-.8.15-1.4.71-1.4.41 0 .55.3.55.88V0h.95v-2.9c0-.8.18-1.4.72-1.4.4 0 .57.3.57.88V0h.95v-3.63c0-.92-.28-1.53-1.11-1.53-.63 0-.95.41-1.1.9h-.06c-.1-.52-.44-.9-1.08-.9-.6 0-.93.41-1.06.9H1.6l-.23-.76H.67V0zm0 0"/></symbol><symbol overflow="visible" id="604ffb88H"><path d="M1.45-2.95c0 2.56 1.08 4.37 3.67 4.84l.11-.67C3.28.86 2.43-.75 2.43-2.95s.85-3.82 2.8-4.16l-.1-.69c-2.6.49-3.68 2.3-3.68 4.85zm0 0"/></symbol><symbol overflow="visible" id="604ffb88I"><path d="M3.33.14c1.62 0 2.5-.95 2.5-2.66 0-1.68-.88-2.64-2.5-2.64-1.63 0-2.5.96-2.5 2.64 0 1.7.87 2.66 2.5 2.66zm0-.77c-1.06 0-1.52-.6-1.52-1.89 0-1.28.46-1.87 1.52-1.87 1.08 0 1.53.6 1.53 1.87 0 1.29-.45 1.9-1.53 1.9zm0 0"/></symbol><symbol overflow="visible" id="604ffb88J"><path d="M5.4-1.22c.43-.66.66-1.51.66-2.44l-.83-.09c0 .75-.14 1.4-.4 1.92l-1.7-1.83c.8-.42 1.39-.96 1.39-1.86 0-.87-.66-1.4-1.61-1.4-1.14 0-1.72.62-1.72 1.47 0 .72.47 1.3.83 1.68-.8.41-1.52.99-1.52 2.1C.5-.44 1.52.14 2.7.14c.9 0 1.64-.3 2.2-.78l.58.64h1.05zM2.86-6.25c.44 0 .82.23.82.73 0 .7-.47 1.11-1 1.41-.47-.53-.67-.92-.67-1.34 0-.47.3-.8.85-.8zM2.81-.62c-.83 0-1.42-.41-1.42-1.18 0-.76.5-1.18 1.05-1.5l1.94 2.1c-.4.37-.91.57-1.57.57zm0 0"/></symbol><symbol overflow="visible" id="604ffb88K"><path d="M3.34-1.52c-.51 0-.8.32-.8.82 0 .5.33.78.76.78-.1.4-.36.95-.7 1.39l.5.23A4.48 4.48 0 004.13-.64c0-.55-.3-.88-.78-.88zm0 0"/></symbol><symbol overflow="visible" id="604ffb88L"><path d="M6.17 0L3.98-6.77h-1.3L.5 0h.97l.44-1.47h2.78L5.16 0zM3.28-5.94h.08l1.1 3.74H2.15zm0 0"/></symbol><symbol overflow="visible" id="604ffb88M"><path d="M3.34.14c1.43 0 2.13-.66 2.25-1.78l-.89-.1c-.1.7-.5 1.08-1.34 1.08-1.03 0-1.52-.64-1.52-1.84 0-1.23.47-1.86 1.52-1.86.84 0 1.23.36 1.34 1.08l.9-.1c-.13-1.09-.82-1.78-2.26-1.78-1.56 0-2.46.97-2.46 2.66 0 1.66.9 2.64 2.46 2.64zm0 0"/></symbol><symbol overflow="visible" id="604ffb88N"><path d="M3.42-.86h-.08L1.77-5.02H.8L2.73 0h.41c-.33.95-.72 1.27-1.45 1.27-.22 0-.49-.04-.69-.08l-.1.73c.2.06.58.11.87.11 1.2 0 1.7-.7 2.21-2.03l1.94-5.02H5zm0 0"/></symbol><symbol overflow="visible" id="604ffb88O"><path d="M1.45-7.1c1.96.33 2.8 1.94 2.8 4.15 0 2.2-.84 3.8-2.8 4.17l.11.67c2.58-.47 3.67-2.28 3.67-4.84 0-2.55-1.09-4.36-3.67-4.85zm0 0"/></symbol><symbol overflow="visible" id="604ffb88o"><path d="M1.38-1.45l.68-.68L1.2-3l-.67.67zm0 0"/></symbol><symbol overflow="visible" id="604ffb88p"><path d="M1.14 0h.66c0-2.92-.1-3.38-.57-5.03L.52-5c.53 1.6.62 1.97.62 5zm0 0"/></symbol><symbol overflow="visible" id="604ffb88q"><path d="M1.14 0h.66c0-1.28-.02-2.08-.08-2.72.2.06.42.1.6.1 1 0 1.46-.66 1.46-1.77 0-.2-.01-.42-.05-.64l-.65.06c.03.25.04.45.04.63 0 .65-.21.96-.8.96-.52 0-.68-.09-.84-.75l-.25-.9L.52-5c.53 1.6.62 1.97.62 5zm0 0"/></symbol><symbol overflow="visible" id="604ffb88r"><path d="M1.14 0h.66c0-1.28-.02-2.08-.08-2.72.2.06.42.1.6.1.26 0 .48-.07.66-.2.24.12.63.2.82.2.84 0 1.22-.66 1.22-1.77 0-.19-.02-.42-.04-.64l-.6.06.01.47c0 .77-.14 1.13-.6 1.13-.15 0-.27-.02-.37-.05.1-.27.14-.58.14-.97 0-.2-.01-.42-.04-.64l-.66.06c.02.25.05.45.05.63 0 .65-.18.96-.6.96-.51 0-.67-.09-.83-.75l-.25-.9L.52-5c.53 1.6.62 1.97.62 5zm0 0"/></symbol><symbol overflow="visible" id="604ffb88s"><path d="M1.14 0h.66c0-.92-.02-1.6-.03-2.16.21.04.45.05.71.05.66 0 1.43-.08 2.29-.25L4.84-3c-.53.13-1.32.19-1.56.2-.08 0-.08 0-.12-.06-.1-.14-.32-.48-.32-.86 0-.45.29-.64.7-.64.21 0 .48.06.74.16l.17-.64a2.7 2.7 0 00-.93-.2c-.77 0-1.32.46-1.32 1.35 0 .3.08.64.24.9-.24 0-.47 0-.66-.04-.06 0-.06 0-.08-.1a11.9 11.9 0 00-.47-2.1L.52-5c.53 1.6.62 1.97.62 5zm0 0"/></symbol><symbol overflow="visible" id="604ffb88t"><path d="M1.72 0c.25 0 .58-.03.81-.22.3.19.58.22.81.22.52 0 1.18-.27 1.18-1.4 0-1.16-.85-2.23-2.57-3.68l-.47.52.36.33C1-3.2.52-2.43.52-1.43.52-.35 1.08 0 1.72 0zm0-.75c-.36 0-.56-.19-.56-.69 0-.72.3-1.36 1.2-2.37 1.22 1.04 1.5 1.87 1.5 2.42 0 .45-.11.64-.5.64-.5 0-.5-.1-.5-.5v-.36H2.2v.36c0 .4 0 .5-.48.5zm0 0"/></symbol><symbol overflow="visible" id="604ffb88u"><path d="M.52 0h.87a5.44 5.44 0 012.95-2.6l.08-.8-1.19.52c-.28.15-.48.16-.71.04a.88.88 0 01-.47-.75c0-.5.34-.74.9-.74a3 3 0 01.77.11l.08-.69a3.1 3.1 0 00-.9-.14c-.88 0-1.54.49-1.54 1.49 0 .58.33 1.12.81 1.4C1.72-1.75 1.13-1 .52 0zm0 0"/></symbol></defs><use xlink:href="#604ffb88a" x="164.88" y="141" fill="#fff"/><use xlink:href="#604ffb88b" x="192.48" y="141" fill="#515151"/><use xlink:href="#604ffb88c" x="205.32" y="141" fill="#fff"/><use xlink:href="#604ffb88b" x="232.92" y="141" fill="#515151"/><use xlink:href="#604ffb88d" x="245.76" y="141" fill="#fff"/><use xlink:href="#604ffb88b" x="273.36" y="141" fill="#515151"/><use xlink:href="#604ffb88e" x="286.2" y="141" fill="#fff"/><use xlink:href="#604ffb88b" x="313.8" y="141" fill="#515151"/><use xlink:href="#604ffb88f" x="326.64" y="141" fill="#fff"/><use xlink:href="#604ffb88b" x="354.24" y="141" fill="#515151"/><use xlink:href="#604ffb88g" x="367.08" y="141" fill="#fff"/><use xlink:href="#604ffb88b" x="394.68" y="141" fill="#515151"/><use xlink:href="#604ffb88h" x="407.52" y="141" fill="#fff"/><g fill="#fff"><use xlink:href="#604ffb88i" x="265.3222" y="252"/><use xlink:href="#604ffb88j" x="271.9892" y="252"/><use xlink:href="#604ffb88k" x="278.6562" y="252"/><use xlink:href="#604ffb88l" x="285.3232" y="252"/><use xlink:href="#604ffb88m" x="291.9902" y="252"/><use xlink:href="#604ffb88n" x="298.6572" y="252"/></g><use xlink:href="#604ffb88o" x="305.3222" y="252" fill="#fff"/><g fill="#fff"><use xlink:href="#604ffb88p" x="307.9" y="252"/><use xlink:href="#604ffb88q" x="310.219" y="252"/><use xlink:href="#604ffb88r" x="314.518" y="252"/><use xlink:href="#604ffb88s" x="320.057" y="252"/></g><use xlink:href="#604ffb88t" x="325.126" y="252" fill="#fff"/><use xlink:href="#604ffb88u" x="329.745" y="252" fill="#fff"/><g fill="#fff"><use xlink:href="#604ffb88v" x="60" y="266"/><use xlink:href="#604ffb88j" x="66.667" y="266"/><use xlink:href="#604ffb88w" x="73.334" y="266"/><use xlink:href="#604ffb88l" x="80.001" y="266"/><use xlink:href="#604ffb88x" x="86.668" y="266"/><use xlink:href="#604ffb88y" x="93.335" y="266"/><use xlink:href="#604ffb88j" x="100.002" y="266"/><use xlink:href="#604ffb88m" x="106.669" y="266"/><use xlink:href="#604ffb88n" x="113.336" y="266"/><use xlink:href="#604ffb88i" x="120.003" y="266"/><use xlink:href="#604ffb88w" x="126.67" y="266"/><use xlink:href="#604ffb88z" x="133.337" y="266"/><use xlink:href="#604ffb88x" x="140.004" y="266"/><use xlink:href="#604ffb88A" x="146.671" y="266"/><use xlink:href="#604ffb88w" x="153.338" y="266"/><use xlink:href="#604ffb88y" x="160.005" y="266"/><use xlink:href="#604ffb88n" x="166.672" y="266"/><use xlink:href="#604ffb88y" x="173.339" y="266"/><use xlink:href="#604ffb88w" x="180.006" y="266"/><use xlink:href="#604ffb88B" x="186.673" y="266"/><use xlink:href="#604ffb88C" x="193.34" y="266"/><use xlink:href="#604ffb88D" x="200.007" y="266"/><use xlink:href="#604ffb88B" x="206.674" y="266"/><use xlink:href="#604ffb88C" x="213.341" y="266"/><use xlink:href="#604ffb88n" x="220.008" y="266"/><use xlink:href="#604ffb88E" x="226.675" y="266"/><use xlink:href="#604ffb88j" x="233.342" y="266"/><use xlink:href="#604ffb88y" x="240.009" y="266"/><use xlink:href="#604ffb88F" x="246.676" y="266"/><use xlink:href="#604ffb88D" x="253.343" y="266"/><use xlink:href="#604ffb88w" x="260.01" y="266"/><use xlink:href="#604ffb88B" x="266.677" y="266"/><use xlink:href="#604ffb88n" x="273.344" y="266"/><use xlink:href="#604ffb88B" x="280.011" y="266"/><use xlink:href="#604ffb88x" x="286.678" y="266"/><use xlink:href="#604ffb88G" x="293.345" y="266"/><use xlink:href="#604ffb88j" x="300.012" y="266"/><use xlink:href="#604ffb88y" x="306.679" y="266"/><use xlink:href="#604ffb88w" x="313.346" y="266"/><use xlink:href="#604ffb88A" x="320.013" y="266"/><use xlink:href="#604ffb88F" x="326.68" y="266"/><use xlink:href="#604ffb88n" x="333.347" y="266"/><use xlink:href="#604ffb88H" x="340.014" y="266"/><use xlink:href="#604ffb88I" x="346.681" y="266"/><use xlink:href="#604ffb88B" x="353.348" y="266"/><use xlink:href="#604ffb88x" x="360.015" y="266"/><use xlink:href="#604ffb88G" x="366.682" y="266"/><use xlink:href="#604ffb88n" x="373.349" y="266"/><use xlink:href="#604ffb88J" x="380.016" y="266"/><use xlink:href="#604ffb88n" x="386.683" y="266"/><use xlink:href="#604ffb88l" x="393.35" y="266"/><use xlink:href="#604ffb88B" x="400.017" y="266"/><use xlink:href="#604ffb88x" x="406.684" y="266"/><use xlink:href="#604ffb88G" x="413.351" y="266"/><use xlink:href="#604ffb88K" x="420.018" y="266"/><use xlink:href="#604ffb88n" x="426.685" y="266"/><use xlink:href="#604ffb88L" x="433.352" y="266"/><use xlink:href="#604ffb88y" x="440.019" y="266"/><use xlink:href="#604ffb88w" x="446.686" y="266"/><use xlink:href="#604ffb88z" x="453.353" y="266"/><use xlink:href="#604ffb88D" x="460.02" y="266"/><use xlink:href="#604ffb88M" x="466.687" y="266"/><use xlink:href="#604ffb88n" x="473.354" y="266"/><use xlink:href="#604ffb88E" x="480.021" y="266"/><use xlink:href="#604ffb88y" x="486.688" y="266"/><use xlink:href="#604ffb88I" x="493.355" y="266"/><use xlink:href="#604ffb88n" x="500.022" y="266"/><use xlink:href="#604ffb88I" x="506.689" y="266"/><use xlink:href="#604ffb88B" x="513.356" y="266"/><use xlink:href="#604ffb88A" x="520.023" y="266"/><use xlink:href="#604ffb88N" x="526.69" y="266"/><use xlink:href="#604ffb88O" x="533.357" y="266"/></g></svg>