<?xml version='1.0' encoding='UTF-8'?>
<svg xmlns="http://www.w3.org/2000/svg" xmlns:xlink="http://www.w3.org/1999/xlink" width="600px" height="300px" viewBox="0 0 600 300" x="0px" y="0px" enable-background="new 0 0 600 300"><defs><symbol overflow="visible" id="3732ed72a"><path d="M12.06-25.31l-.48 2.75.23.25c4.2-5.17 11.96-9.9 20.17-11.35l.83-3.06c-8.33.95-17.22 6.24-20.75 11.4zM1.92-4.86L6.23-.3c3.91.36 10.7.6 20.18.6C39.55.3 58.08-1.7 63.95-4.02c2.9-1.14 3.61-2.53 3.61-5.28 0-4.43-4.8-7.26-12.97-7.26-9.59 0-17.03 1.68-29.93 1.68-4.93 0-8.58-.24-10.97-.96 3.47-4.68 9.95-8.88 17.15-10.57l1.02-4.8c-9.13 2-15.55 6.37-19.08 11-1.44 1.91-2.05 3.48-2.05 4.55 0 1.38 1.2 3.3 2.29 3.79 1.98.82 6.6 1.5 14.28 1.5 9.84 0 19.39-1.7 28.07-1.7 5.54 0 8.65 1.27 9.61 3.79-6.36 1.8-24.71 3.84-38.53 3.84-11.51 0-19.73-.42-24.3-.84zm0 0"/></symbol><symbol overflow="visible" id="3732ed72c"><path d="M1.92-4.86L6.23-.3c3.91.36 10.7.6 20.18.6C39.55.3 58.08-1.7 63.95-4.02c2.9-1.14 3.61-2.53 3.61-5.28 0-4.43-4.8-7.26-12.97-7.26-9.59 0-17.03 1.68-29.93 1.68-4.93 0-8.58-.24-10.97-.96 3.47-4.68 9.95-8.88 17.15-10.57l1.02-4.8c-9.13 2-15.55 6.37-19.08 11-1.44 1.91-2.05 3.48-2.05 4.55 0 1.38 1.2 3.3 2.29 3.79 1.98.82 6.6 1.5 14.28 1.5 9.84 0 19.39-1.7 28.07-1.7 5.54 0 8.65 1.27 9.61 3.79-6.36 1.8-24.71 3.84-38.53 3.84-11.51 0-19.73-.42-24.3-.84zm0 0"/></symbol><symbol overflow="visible" id="3732ed72d"><path d="M1.92-4.86L6.23-.3c3.91.36 10.7.6 20.18.6C39.55.3 58.08-1.7 63.95-4.02c2.9-1.14 3.61-2.53 3.61-5.28 0-4.43-4.8-7.26-12.97-7.26-9.59 0-17.03 1.68-29.93 1.68-4.93 0-8.58-.24-10.97-.96 3.47-4.68 9.95-8.88 17.15-10.57l1.02-4.8c-9.13 2-15.55 6.37-19.08 11-1.44 1.91-2.05 3.48-2.05 4.55 0 1.38 1.2 3.3 2.29 3.79 1.98.82 6.6 1.5 14.28 1.5 9.84 0 19.39-1.7 28.07-1.7 5.54 0 8.65 1.27 9.61 3.79-6.36 1.8-24.71 3.84-38.53 3.84-11.51 0-19.73-.42-24.3-.84zm0 0"/></symbol><symbol overflow="visible" id="3732ed72e"><path d="M3.83 0v-5.95H6.2v-.82H.45v.82h2.4V0zm0 0"/></symbol><symbol overflow="visible" id="3732ed72f"><path d="M5.75-2.23v-.43c0-1.6-.9-2.51-2.42-2.51S.87-4.16.87-2.48c0 1.71.91 2.62 2.5 2.62 1.43 0 2.07-.56 2.29-1.52l-.9-.09c-.18.61-.59.9-1.35.9-.94 0-1.52-.54-1.58-1.66zm-2.4-2.2c.93 0 1.43.5 1.48 1.55H1.84c.08-1.07.6-1.56 1.5-1.56zm0 0"/></symbol><symbol overflow="visible" id="3732ed72g"><path d="M1.83 0l1.42-2h.06l1.46 2H5.8L4-2.53l1.78-2.49H4.8L3.42-3.08h-.08l-1.4-1.94H.89l1.78 2.49L.84 0zm0 0"/></symbol><symbol overflow="visible" id="3732ed72h"><path d="M5.52-4.25v-.77H3.17v-1.56h-.81l-.14 1.56H.75v.77h1.47v2.4c0 1.3.48 1.94 1.84 1.94C4.6.1 5.14 0 5.55-.14L5.4-.91c-.32.13-.72.2-1.13.2-.8 0-1.1-.37-1.1-1.23v-2.31zm0 0"/></symbol><symbol overflow="visible" id="3732ed72i"><path d="M3.33-3.42c.47 0 .8-.27.8-.8 0-.51-.33-.8-.8-.8-.47 0-.8.29-.8.8 0 .53.33.8.8.8zm0 3.5c.47 0 .8-.27.8-.78 0-.53-.33-.82-.8-.82-.47 0-.8.29-.8.82 0 .51.33.78.8.78zm0 0"/></symbol><symbol overflow="visible" id="3732ed72n"><path d="M5.95-6.77H1.1V0h.99v-2.92H5.3v-.77H2.08v-2.26h3.87zm0 0"/></symbol><symbol overflow="visible" id="3732ed72o"><path d="M2.83.14c.94 0 1.5-.39 1.81-.95h.08l.1.81h.76v-3.38c0-1.23-.69-1.8-2.13-1.8-1.43 0-2.03.65-2.18 1.6l.93.1c.11-.6.44-.93 1.22-.93.85 0 1.22.32 1.22 1.04v.34l-1.81.2C1.6-2.7 1.1-2.17 1.1-1.28c0 .92.64 1.42 1.72 1.42zm.25-.77c-.67 0-1.02-.28-1.02-.74 0-.44.28-.72 1-.82l1.58-.19v.41c0 .8-.6 1.34-1.56 1.34zm0 0"/></symbol><symbol overflow="visible" id="3732ed72p"><path d="M2.73.14c.9 0 1.43-.45 1.74-1.08h.06l.13.94h.8v-5.02h-.94v2.7c0 .98-.57 1.62-1.46 1.62-.75 0-1.1-.4-1.1-1.22v-3.1h-.93v3.32c0 1.17.55 1.84 1.7 1.84zm0 0"/></symbol><symbol overflow="visible" id="3732ed72q"><path d="M5.08-5.16c-.94 0-1.58.43-1.9 1.3h-.09l-.07-1.16H1.05v.77h1.1v3.48H.96V0h3.96v-.77H3.1v-1.46c0-1.36.6-2.05 1.83-2.05.4 0 .76.08 1.1.17l.15-.87c-.33-.11-.7-.18-1.11-.18zm0 0"/></symbol><symbol overflow="visible" id="3732ed72r"><path d="M6.17 0L3.98-6.77h-1.3L.5 0h.97l.44-1.47h2.78L5.16 0zM3.28-5.94h.08l1.1 3.74H2.15zm0 0"/></symbol><symbol overflow="visible" id="3732ed72s"><path d="M3.92-7.14H1.36v.76h1.6v5.61H1.15V0H5.7v-.77H3.92zm0 0"/></symbol><symbol overflow="visible" id="3732ed72t"><path d="M2.16 0v-2.67c0-.99.59-1.63 1.46-1.63.74 0 1.07.38 1.07 1.22V0h.95v-3.31c0-1.2-.56-1.85-1.67-1.85-.92 0-1.49.46-1.77 1.08h-.06l-.12-.94H1.2V0zm0 0"/></symbol><symbol overflow="visible" id="3732ed72u"><path d="M3.58-5.81c.42 0 .72-.22.72-.67 0-.44-.3-.68-.72-.68-.44 0-.72.24-.72.68 0 .45.28.67.72.67zm.5.8H1.52v.76h1.6v3.48h-1.8V0h4.46v-.77h-1.7zm0 0"/></symbol><symbol overflow="visible" id="3732ed72v"><path d="M3.9 0l2-5.02h-.96L3.4-.94h-.07L1.8-5.02H.77L2.78 0zm0 0"/></symbol><symbol overflow="visible" id="3732ed72w"><path d="M4.63-6.5c.45 0 .98.08 1.39.2l.2-.72a5.3 5.3 0 00-1.64-.26c-1.52 0-2.16.56-2.16 1.87v.4H.9v.76h1.53V0h.94v-4.25h2.53v-.77H3.36v-.3c0-.84.33-1.18 1.27-1.18zm0 0"/></symbol><symbol overflow="visible" id="3732ed72x"><path d="M3.33.14c1.62 0 2.5-.95 2.5-2.66 0-1.68-.88-2.64-2.5-2.64-1.63 0-2.5.96-2.5 2.64 0 1.7.87 2.66 2.5 2.66zm0-.77c-1.06 0-1.52-.6-1.52-1.89 0-1.28.46-1.87 1.52-1.87 1.08 0 1.53.6 1.53 1.87 0 1.29-.45 1.9-1.53 1.9zm0 0"/></symbol><symbol overflow="visible" id="3732ed72y"><path d="M1.63 0v-2.9c0-.8.15-1.4.71-1.4.41 0 .55.3.55.88V0h.95v-2.9c0-.8.18-1.4.72-1.4.4 0 .57.3.57.88V0h.95v-3.63c0-.92-.28-1.53-1.11-1.53-.63 0-.95.41-1.1.9h-.06c-.1-.52-.44-.9-1.08-.9-.6 0-.93.41-1.06.9H1.6l-.23-.76H.67V0zm0 0"/></symbol><symbol overflow="visible" id="3732ed72z"><path d="M3.38-5.97c.1-.47.4-1 .64-1.34l-.58-.22c-.35.39-.96 1.39-.96 2.26 0 .6.32.93.86.93.55 0 .85-.32.85-.85 0-.51-.35-.78-.82-.78zm0 0"/></symbol><symbol overflow="visible" id="3732ed72A"><path d="M5.77-5.02H4.63L2.3-2.88h-.06v-4.26h-.94V0h.94v-2.31h.06L4.71 0h1.24L3.23-2.69zm0 0"/></symbol><symbol overflow="visible" id="3732ed72B"><path d="M3.33-7.53c-.52 0-.8.28-.8.8 0 .51.33.76.78.76h.03c-.1.47-.4 1.02-.65 1.38l.5.2c.34-.4.95-1.36.95-2.25 0-.6-.31-.9-.81-.9zm0 0"/></symbol><symbol overflow="visible" id="3732ed72C"><path d="M3.34-1.52c-.51 0-.8.32-.8.82 0 .5.33.78.76.78-.1.4-.36.95-.7 1.39l.5.23A4.48 4.48 0 004.13-.64c0-.55-.3-.88-.78-.88zm0 0"/></symbol><symbol overflow="visible" id="3732ed72D"><path d="M2.16 0v-2.69c0-.98.6-1.6 1.46-1.6.74 0 1.07.4 1.07 1.2V0h.95v-3.31c0-1.17-.56-1.85-1.67-1.85-.9 0-1.44.46-1.75 1.08h-.06v-3.06H1.2V0zm0 0"/></symbol><symbol overflow="visible" id="3732ed72E"><path d="M3.16 2.03c1.67 0 2.4-.86 2.4-2.51v-4.54h-.81l-.13.91h-.06c-.26-.58-.8-1.05-1.73-1.05-1.42 0-2.24 1-2.24 2.52 0 1.6.75 2.56 2.2 2.56.94 0 1.5-.5 1.77-1.03h.05v.72c0 1.17-.42 1.67-1.45 1.67-.93 0-1.3-.34-1.41-.89L.8.5c.12.96.87 1.54 2.36 1.54zM3.06-.8c-.98 0-1.48-.57-1.48-1.82 0-1.13.5-1.75 1.48-1.75 1.06 0 1.58.76 1.58 1.75 0 .95-.56 1.82-1.58 1.82zm0 0"/></symbol><symbol overflow="visible" id="3732ed72F"><path d="M1.45-2.95c0 2.56 1.08 4.37 3.67 4.84l.11-.67C3.28.86 2.43-.75 2.43-2.95s.85-3.82 2.8-4.16l-.1-.69c-2.6.49-3.68 2.3-3.68 4.85zm0 0"/></symbol><symbol overflow="visible" id="3732ed72G"><path d="M3.36.16c1.4 0 2.2-.6 2.2-1.57 0-.89-.54-1.22-1.47-1.39L3-3c-.67-.14-.86-.33-.86-.73 0-.5.4-.74 1.17-.74.83 0 1.19.27 1.27.8l.9-.05c-.12-1-.8-1.47-2.17-1.47-1.34 0-2.1.53-2.1 1.5 0 .81.45 1.22 1.52 1.44l1.04.2c.56.11.87.24.87.72 0 .52-.45.78-1.28.78-.95 0-1.36-.28-1.42-.87l-.9.06C1.07-.36 1.8.16 3.35.16zm0 0"/></symbol><symbol overflow="visible" id="3732ed72H"><path d="M3.33.14c1.65 0 2.6-1.1 2.6-3.52S4.99-6.9 3.34-6.9C1.67-6.9.72-5.8.72-3.37c0 2.4.95 3.51 2.6 3.51zm0-.84c-1.13 0-1.6-.85-1.6-2.67 0-1.86.47-2.7 1.6-2.7 1.12 0 1.6.84 1.6 2.7 0 1.82-.48 2.67-1.6 2.67zM3.3-2.64c.38 0 .56-.28.56-.72 0-.44-.18-.7-.56-.7-.39 0-.56.26-.56.7 0 .44.17.72.56.72zm0 0"/></symbol><symbol overflow="visible" id="3732ed72I"><path d="M5.67 0v-.86H2.14V-.9L3.6-2c1.05-.83 2-1.68 2-2.91 0-1.19-.73-1.99-2.26-1.99-1.66 0-2.3 1.02-2.44 2.33l1 .08c.1-.92.42-1.58 1.44-1.58.87 0 1.26.44 1.26 1.24 0 .9-.8 1.53-1.96 2.53L.83-.81V0zm0 0"/></symbol><symbol overflow="visible" id="3732ed72J"><path d="M3.9.14c1.48 0 2.18-.98 2.18-2.64 0-1.67-.7-2.66-2.17-2.66-.91 0-1.49.41-1.79 1h-.06v-2.98h-.95V0h.81l.11-.9h.06c.29.63.82 1.04 1.82 1.04zm-.32-.8c-1.08 0-1.55-.8-1.55-1.84 0-1.06.47-1.86 1.55-1.86 1.1 0 1.51.61 1.51 1.86S4.64-.66 3.58-.66zm0 0"/></symbol><symbol overflow="visible" id="3732ed72K"><path d="M3.34.14c1.43 0 2.13-.66 2.25-1.78l-.89-.1c-.1.7-.5 1.08-1.34 1.08-1.03 0-1.52-.64-1.52-1.84 0-1.23.47-1.86 1.52-1.86.84 0 1.23.36 1.34 1.08l.9-.1c-.13-1.09-.82-1.78-2.26-1.78-1.56 0-2.46.97-2.46 2.66 0 1.66.9 2.64 2.46 2.64zm0 0"/></symbol><symbol overflow="visible" id="3732ed72L"><path d="M.92-6.77V0h.99v-2.27h1.68c1.58 0 2.38-.65 2.38-2.2v-.14c0-1.51-.8-2.16-2.34-2.16zM5-4.47c0 1.05-.42 1.45-1.58 1.45H1.91v-2.96h1.51C4.58-5.98 5-5.66 5-4.61zm0 0"/></symbol><symbol overflow="visible" id="3732ed72M"><path d="M3.42-.86h-.08L1.77-5.02H.8L2.73 0h.41c-.33.95-.72 1.27-1.45 1.27-.22 0-.49-.04-.69-.08l-.1.73c.2.06.58.11.87.11 1.2 0 1.7-.7 2.21-2.03l1.94-5.02H5zm0 0"/></symbol><symbol overflow="visible" id="3732ed72N"><path d="M1.45-7.1c1.96.33 2.8 1.94 2.8 4.15 0 2.2-.84 3.8-2.8 4.17l.11.67c2.58-.47 3.67-2.28 3.67-4.84 0-2.55-1.09-4.36-3.67-4.85zm0 0"/></symbol><symbol overflow="visible" id="3732ed72k"><path d="M3.34-5.02l1.88-.89v-.53l-1.88.88zM1.58 0h3.28c.64 0 1.12-.28 1.12-.95 0-.66-.67-1.58-1.9-2.82l2.28-1.06v-.73L3.34-4.14v.69c1.3 1.18 1.97 1.97 1.97 2.5 0 .1-.04.2-.4.2H1.7c-.6 0-.6 0-.6-.56v-1.31H.44v1.48C.44-.31.8 0 1.58 0zm0 0"/></symbol><symbol overflow="visible" id="3732ed72l"><path d="M1.58 0h3.28c.64 0 1.12-.28 1.12-.95 0-.66-.67-1.58-1.9-2.82l2.28-1.06v-.73L3.34-4.14v.69c1.3 1.18 1.97 1.97 1.97 2.5 0 .1-.04.2-.4.2H1.7c-.6 0-.6 0-.6-.56v-1.31H.44v1.48C.44-.31.8 0 1.58 0zm0 0"/></symbol><symbol overflow="visible" id="3732ed72m"><path d="M1.58 0h3.17C5.8 0 5.98-.4 5.98-1.5v-4.06h-.67v4.23c0 .47 0 .58-.48.58H1.72c-.61 0-.61 0-.61-.56v-1.31H.44v1.48C.44-.31.8 0 1.58 0zm.98-1.88h.8c.33 0 .53-.2.53-.54 0-.2-.08-.4-.22-.53l-.22-.22.47-.36-.3-.33-.84.67.55.52c.06.06.1.12.1.17 0 .08-.06.1-.16.1h-.7zm0 0"/></symbol></defs><g fill="#fff"><use xlink:href="#3732ed72a" x="184.11" y="141"/><use xlink:href="#3732ed72b" x="253.77" y="141"/><use xlink:href="#3732ed72c" x="265.17" y="141"/><use xlink:href="#3732ed72b" x="334.83" y="141"/><use xlink:href="#3732ed72d" x="346.23" y="141"/><use xlink:href="#3732ed72e" x="263.6556" y="252"/><use xlink:href="#3732ed72f" x="270.3226" y="252"/><use xlink:href="#3732ed72g" x="276.9896" y="252"/><use xlink:href="#3732ed72h" x="283.6566" y="252"/><use xlink:href="#3732ed72i" x="290.3236" y="252"/><use xlink:href="#3732ed72j" x="296.9906" y="252"/><g><use xlink:href="#3732ed72k" x="303.6556" y="252"/></g><g><use xlink:href="#3732ed72l" x="316.7481" y="252"/></g><g><use xlink:href="#3732ed72m" x="329.8407" y="252"/></g><g><use xlink:href="#3732ed72n" x="53.33333" y="266"/><use xlink:href="#3732ed72f" x="60.00033" y="266"/><use xlink:href="#3732ed72o" x="66.66733" y="266"/><use xlink:href="#3732ed72h" x="73.33433" y="266"/><use xlink:href="#3732ed72p" x="80.00133" y="266"/><use xlink:href="#3732ed72q" x="86.66833" y="266"/><use xlink:href="#3732ed72f" x="93.33533" y="266"/><use xlink:href="#3732ed72i" x="100.00233" y="266"/><use xlink:href="#3732ed72j" x="106.66933" y="266"/><use xlink:href="#3732ed72r" x="113.33633" y="266"/><use xlink:href="#3732ed72s" x="120.00333" y="266"/><use xlink:href="#3732ed72h" x="126.67033" y="266"/><use xlink:href="#3732ed72f" x="133.33733" y="266"/><use xlink:href="#3732ed72q" x="140.00433" y="266"/><use xlink:href="#3732ed72t" x="146.67133" y="266"/><use xlink:href="#3732ed72o" x="153.33833" y="266"/><use xlink:href="#3732ed72h" x="160.00533" y="266"/><use xlink:href="#3732ed72u" x="166.67233" y="266"/><use xlink:href="#3732ed72v" x="173.33933" y="266"/><use xlink:href="#3732ed72f" x="180.00633" y="266"/><use xlink:href="#3732ed72j" x="186.67333" y="266"/><use xlink:href="#3732ed72w" x="193.34033" y="266"/><use xlink:href="#3732ed72x" x="200.00733" y="266"/><use xlink:href="#3732ed72q" x="206.67433" y="266"/><use xlink:href="#3732ed72y" x="213.34133" y="266"/><use xlink:href="#3732ed72j" x="220.00833" y="266"/><use xlink:href="#3732ed72x" x="226.67533" y="266"/><use xlink:href="#3732ed72w" x="233.34233" y="266"/><use xlink:href="#3732ed72j" x="240.00933" y="266"/><use xlink:href="#3732ed72z" x="246.67633" y="266"/><use xlink:href="#3732ed72A" x="253.34333" y="266"/><use xlink:href="#3732ed72o" x="260.01033" y="266"/><use xlink:href="#3732ed72w" x="266.67733" y="266"/><use xlink:href="#3732ed72B" x="273.34433" y="266"/><use xlink:href="#3732ed72C" x="280.01133" y="266"/><use xlink:href="#3732ed72j" x="286.67833" y="266"/><use xlink:href="#3732ed72z" x="293.34533" y="266"/><use xlink:href="#3732ed72A" x="300.01233" y="266"/><use xlink:href="#3732ed72f" x="306.67933" y="266"/><use xlink:href="#3732ed72D" x="313.34633" y="266"/><use xlink:href="#3732ed72f" x="320.01333" y="266"/><use xlink:href="#3732ed72D" x="326.68033" y="266"/><use xlink:href="#3732ed72B" x="333.34733" y="266"/><use xlink:href="#3732ed72C" x="340.01433" y="266"/><use xlink:href="#3732ed72j" x="346.68133" y="266"/><use xlink:href="#3732ed72z" x="353.34833" y="266"/><use xlink:href="#3732ed72E" x="360.01533" y="266"/><use xlink:href="#3732ed72o" x="366.68233" y="266"/><use xlink:href="#3732ed72w" x="373.34933" y="266"/><use xlink:href="#3732ed72B" x="380.01633" y="266"/><use xlink:href="#3732ed72j" x="386.68333" y="266"/><use xlink:href="#3732ed72F" x="393.35033" y="266"/><use xlink:href="#3732ed72G" x="400.01733" y="266"/><use xlink:href="#3732ed72G" x="406.68433" y="266"/><use xlink:href="#3732ed72H" x="413.35133" y="266"/><use xlink:href="#3732ed72I" x="420.01833" y="266"/><use xlink:href="#3732ed72C" x="426.68533" y="266"/><use xlink:href="#3732ed72j" x="433.35233" y="266"/><use xlink:href="#3732ed72r" x="440.01933" y="266"/><use xlink:href="#3732ed72q" x="446.68633" y="266"/><use xlink:href="#3732ed72o" x="453.35333" y="266"/><use xlink:href="#3732ed72J" x="460.02033" y="266"/><use xlink:href="#3732ed72u" x="466.68733" y="266"/><use xlink:href="#3732ed72K" x="473.35433" y="266"/><use xlink:href="#3732ed72j" x="480.02133" y="266"/><use xlink:href="#3732ed72L" x="486.68833" y="266"/><use xlink:href="#3732ed72q" x="493.35533" y="266"/><use xlink:href="#3732ed72x" x="500.02233" y="266"/><use xlink:href="#3732ed72j" x="506.68933" y="266"/><use xlink:href="#3732ed72x" x="513.35633" y="266"/><use xlink:href="#3732ed72t" x="520.02333" y="266"/><use xlink:href="#3732ed72s" x="526.69033" y="266"/><use xlink:href="#3732ed72M" x="533.35733" y="266"/><use xlink:href="#3732ed72N" x="540.02433" y="266"/></g></g></svg>