<?xml version='1.0' encoding='UTF-8'?>
<svg xmlns="http://www.w3.org/2000/svg" xmlns:xlink="http://www.w3.org/1999/xlink" width="600px" height="300px" viewBox="0 0 600 300" x="0px" y="0px" enable-background="new 0 0 600 300"><defs><symbol overflow="visible" id="f6d48a73a"><path d="M10.02-8.45l4.39-4.27c-.72-1.62-3.43-4.5-5.6-5.76l-4.6 4.56a29.46 29.46 0 015.45 5.47zm0 0"/></symbol><symbol overflow="visible" id="f6d48a73b"><path d="M5.05-27.6l-2.6 4.62c4.99 8.53 6.07 12.25 6.07 18.6 0 2.22-.11 3.6-.24 4.97h.17l2.53-1.5c.24-1.54.43-3.65.43-5.93 0-7.14-1.33-11.58-6.25-20.75zm0 0"/></symbol><symbol overflow="visible" id="f6d48a73c"><path d="M4.56-27.6L2.1-23.15c5.41 8.1 6.97 12.43 6.97 18.72 0 2.28-.12 3.66-.25 5.03H9l2.52-1.5c.25-1.54.42-3.65.42-5.93 0-4.25-.66-7.25-1.8-10.08l.06-.06a6.63 6.63 0 003.96 1.26c3.25 0 5.57-3.06 5.57-7.73 0-1.86-.53-3.68-1.18-3.9l-.68-.24c0 5.21-1.37 7.73-4.07 7.73-3 0-5.64-1.73-9.07-7.73zm0 0"/></symbol><symbol overflow="visible" id="f6d48a73d"><path d="M5.1-27.6h-.18l-2.47 4.38c6.25 9.9 7.1 12.84 7.1 18.72 0 1.92-.13 3.55-.2 5.1h.13L12-.96c.23-1.63.42-4.63.42-7.1 0-2.87-.6-6.6-1.98-9.4l.06-.07c.84.72 1.8 1.2 2.88 1.2 1.5 0 2.4-.9 2.76-2.34h.13c.65 1.02 1.37 1.5 2.45 1.5 2.34 0 4.33-3.12 4.33-6.54 0-1.86-.55-3.36-1.2-3.66l-.5-.23c-.12 4.18-.94 6.36-2.63 6.36-2.1 0-1.5-3.43-2.64-6.36l-1.44.59c0 5.1-.72 6.36-2.4 6.36-1.87 0-4.44-2.28-7.15-6.95zm0 0"/></symbol><symbol overflow="visible" id="f6d48a73e"><path d="M15.19-22.73l1.19-4.86c-3.96.23-8.1 1.9-10.61 4.5A10.85 10.85 0 003-16.56c0 2.7 3.23 4.98 7.92 6.25v.17C7.38-7.37 5.28-4.08 5.28-1.86c0 1.8.72 3.24 1.63 4.5 1.96 2.58 6.36 4.2 10.14 4.2 1.6 0 3-.3 4.25-.78l-1.08-4.5c-1.02.36-2.28.53-3.49.53C12.3 2.1 8.7.23 7.2-1.86c1.44-2.51 5.35-6 7.99-7.33l1.12-3.6-.1-.12c-4.44-.59-9.3-2.75-10.76-4.6 2.05-2.54 6.2-4.5 9.74-5.22zm0 0"/></symbol><symbol overflow="visible" id="f6d48a73f"><path d="M24.3-11.64c0-6.95-5.46-14.52-9.43-14.52-5.32 0-10.37 9.24-10.37 15.47 0 3.42.84 5.11 1.44 6C7.44-2.7 10.2-1.3 13.5-1.3c3.84 0 7.14-1.5 9-4.1 1.27-1.8 1.8-4.14 1.8-6.23zM22.08-9.6c-1.31 1.54-4.2 2.87-8.28 2.87-3.07 0-6-1.26-7.08-2.83 1.08-6.3 4.56-11.1 7.5-11.1 3.23 0 6.78 4.45 7.86 11.06zm0 0"/></symbol><symbol overflow="visible" id="f6d48a73g"><path d="M2.45-27.6a4.25 4.25 0 00-1.25 3c0 1.87 1.61 3.41 5.35 3.41 2.64 0 6.23-.6 8.15-1.12l.07.1c-.61 3.66-1.27 8.12-1.27 11.9 0 7.5 2.16 13.5 5.7 17.45h.18l2.1-5.28c-3.42-4.02-5.04-9.66-5.04-15.6 0-5.21.78-9.18 1.56-13.2l-.19-.12c-1.9.54-5.58 1.08-9.3 1.08-3.1 0-5.03-.6-6.06-1.61zm0 0"/></symbol><symbol overflow="visible" id="f6d48a73h"><path d="M3.83 0v-5.95H6.2v-.82H.45v.82h2.4V0zm0 0"/></symbol><symbol overflow="visible" id="f6d48a73i"><path d="M5.75-2.23v-.43c0-1.6-.9-2.51-2.42-2.51S.87-4.16.87-2.48c0 1.71.91 2.62 2.5 2.62 1.43 0 2.07-.56 2.29-1.52l-.9-.09c-.18.61-.59.9-1.35.9-.94 0-1.52-.54-1.58-1.66zm-2.4-2.2c.93 0 1.43.5 1.48 1.55H1.84c.08-1.07.6-1.56 1.5-1.56zm0 0"/></symbol><symbol overflow="visible" id="f6d48a73j"><path d="M1.83 0l1.42-2h.06l1.46 2H5.8L4-2.53l1.78-2.49H4.8L3.42-3.08h-.08l-1.4-1.94H.89l1.78 2.49L.84 0zm0 0"/></symbol><symbol overflow="visible" id="f6d48a73k"><path d="M5.52-4.25v-.77H3.17v-1.56h-.81l-.14 1.56H.75v.77h1.47v2.4c0 1.3.48 1.94 1.84 1.94C4.6.1 5.14 0 5.55-.14L5.4-.91c-.32.13-.72.2-1.13.2-.8 0-1.1-.37-1.1-1.23v-2.31zm0 0"/></symbol><symbol overflow="visible" id="f6d48a73l"><path d="M3.33-3.42c.47 0 .8-.27.8-.8 0-.51-.33-.8-.8-.8-.47 0-.8.29-.8.8 0 .53.33.8.8.8zm0 3.5c.47 0 .8-.27.8-.78 0-.53-.33-.82-.8-.82-.47 0-.8.29-.8.82 0 .51.33.78.8.78zm0 0"/></symbol><symbol overflow="visible" id="f6d48a73u"><path d="M5.95-6.77H1.1V0h.99v-2.92H5.3v-.77H2.08v-2.26h3.87zm0 0"/></symbol><symbol overflow="visible" id="f6d48a73v"><path d="M2.83.14c.94 0 1.5-.39 1.81-.95h.08l.1.81h.76v-3.38c0-1.23-.69-1.8-2.13-1.8-1.43 0-2.03.65-2.18 1.6l.93.1c.11-.6.44-.93 1.22-.93.85 0 1.22.32 1.22 1.04v.34l-1.81.2C1.6-2.7 1.1-2.17 1.1-1.28c0 .92.64 1.42 1.72 1.42zm.25-.77c-.67 0-1.02-.28-1.02-.74 0-.44.28-.72 1-.82l1.58-.19v.41c0 .8-.6 1.34-1.56 1.34zm0 0"/></symbol><symbol overflow="visible" id="f6d48a73w"><path d="M2.73.14c.9 0 1.43-.45 1.74-1.08h.06l.13.94h.8v-5.02h-.94v2.7c0 .98-.57 1.62-1.46 1.62-.75 0-1.1-.4-1.1-1.22v-3.1h-.93v3.32c0 1.17.55 1.84 1.7 1.84zm0 0"/></symbol><symbol overflow="visible" id="f6d48a73x"><path d="M5.08-5.16c-.94 0-1.58.43-1.9 1.3h-.09l-.07-1.16H1.05v.77h1.1v3.48H.96V0h3.96v-.77H3.1v-1.46c0-1.36.6-2.05 1.83-2.05.4 0 .76.08 1.1.17l.15-.87c-.33-.11-.7-.18-1.11-.18zm0 0"/></symbol><symbol overflow="visible" id="f6d48a73y"><path d="M4.06-2.77c1.25-.04 1.92-.7 1.92-1.96 0-1.36-.7-2.04-2.17-2.04H.92V0h.97v-2.73h1.08L4.95 0h1.1zM1.9-6h1.7c1.07 0 1.46.34 1.46 1.28 0 .9-.44 1.27-1.47 1.27H1.89zm0 0"/></symbol><symbol overflow="visible" id="f6d48a73z"><path d="M2.16 0v-2.67c0-.99.59-1.63 1.46-1.63.74 0 1.07.38 1.07 1.22V0h.95v-3.31c0-1.2-.56-1.85-1.67-1.85-.92 0-1.49.46-1.77 1.08h-.06l-.12-.94H1.2V0zm0 0"/></symbol><symbol overflow="visible" id="f6d48a73A"><path d="M3.16 2.03c1.67 0 2.4-.86 2.4-2.51v-4.54h-.81l-.13.91h-.06c-.26-.58-.8-1.05-1.73-1.05-1.42 0-2.24 1-2.24 2.52 0 1.6.75 2.56 2.2 2.56.94 0 1.5-.5 1.77-1.03h.05v.72c0 1.17-.42 1.67-1.45 1.67-.93 0-1.3-.34-1.41-.89L.8.5c.12.96.87 1.54 2.36 1.54zM3.06-.8c-.98 0-1.48-.57-1.48-1.82 0-1.13.5-1.75 1.48-1.75 1.06 0 1.58.76 1.58 1.75 0 .95-.56 1.82-1.58 1.82zm0 0"/></symbol><symbol overflow="visible" id="f6d48a73B"><path d="M3.58-5.81c.42 0 .72-.22.72-.67 0-.44-.3-.68-.72-.68-.44 0-.72.24-.72.68 0 .45.28.67.72.67zm.5.8H1.52v.76h1.6v3.48h-1.8V0h4.46v-.77h-1.7zm0 0"/></symbol><symbol overflow="visible" id="f6d48a73C"><path d="M6.17 0L3.98-6.77h-1.3L.5 0h.97l.44-1.47h2.78L5.16 0zM3.28-5.94h.08l1.1 3.74H2.15zm0 0"/></symbol><symbol overflow="visible" id="f6d48a73D"><path d="M3.9.14c1.48 0 2.18-.98 2.18-2.64 0-1.67-.7-2.66-2.17-2.66-.91 0-1.49.41-1.79 1h-.06v-2.98h-.95V0h.81l.11-.9h.06c.29.63.82 1.04 1.82 1.04zm-.32-.8c-1.08 0-1.55-.8-1.55-1.84 0-1.06.47-1.86 1.55-1.86 1.1 0 1.51.61 1.51 1.86S4.64-.66 3.58-.66zm0 0"/></symbol><symbol overflow="visible" id="f6d48a73E"><path d="M3.34.14c1.43 0 2.13-.66 2.25-1.78l-.89-.1c-.1.7-.5 1.08-1.34 1.08-1.03 0-1.52-.64-1.52-1.84 0-1.23.47-1.86 1.52-1.86.84 0 1.23.36 1.34 1.08l.9-.1c-.13-1.09-.82-1.78-2.26-1.78-1.56 0-2.46.97-2.46 2.66 0 1.66.9 2.64 2.46 2.64zm0 0"/></symbol><symbol overflow="visible" id="f6d48a73F"><path d="M1.63 0v-2.9c0-.8.15-1.4.71-1.4.41 0 .55.3.55.88V0h.95v-2.9c0-.8.18-1.4.72-1.4.4 0 .57.3.57.88V0h.95v-3.63c0-.92-.28-1.53-1.11-1.53-.63 0-.95.41-1.1.9h-.06c-.1-.52-.44-.9-1.08-.9-.6 0-.93.41-1.06.9H1.6l-.23-.76H.67V0zm0 0"/></symbol><symbol overflow="visible" id="f6d48a73G"><path d="M3.92-7.14H1.36v.76h1.6v5.61H1.15V0H5.7v-.77H3.92zm0 0"/></symbol><symbol overflow="visible" id="f6d48a73H"><path d="M3.36.16c1.4 0 2.2-.6 2.2-1.57 0-.89-.54-1.22-1.47-1.39L3-3c-.67-.14-.86-.33-.86-.73 0-.5.4-.74 1.17-.74.83 0 1.19.27 1.27.8l.9-.05c-.12-1-.8-1.47-2.17-1.47-1.34 0-2.1.53-2.1 1.5 0 .81.45 1.22 1.52 1.44l1.04.2c.56.11.87.24.87.72 0 .52-.45.78-1.28.78-.95 0-1.36-.28-1.42-.87l-.9.06C1.07-.36 1.8.16 3.35.16zm0 0"/></symbol><symbol overflow="visible" id="f6d48a73I"><path d="M1.45-2.95c0 2.56 1.08 4.37 3.67 4.84l.11-.67C3.28.86 2.43-.75 2.43-2.95s.85-3.82 2.8-4.16l-.1-.69c-2.6.49-3.68 2.3-3.68 4.85zm0 0"/></symbol><symbol overflow="visible" id="f6d48a73J"><path d="M3.33.14c1.62 0 2.5-.95 2.5-2.66 0-1.68-.88-2.64-2.5-2.64-1.63 0-2.5.96-2.5 2.64 0 1.7.87 2.66 2.5 2.66zm0-.77c-1.06 0-1.52-.6-1.52-1.89 0-1.28.46-1.87 1.52-1.87 1.08 0 1.53.6 1.53 1.87 0 1.29-.45 1.9-1.53 1.9zm0 0"/></symbol><symbol overflow="visible" id="f6d48a73K"><path d="M3.34-1.52c-.51 0-.8.32-.8.82 0 .5.33.78.76.78-.1.4-.36.95-.7 1.39l.5.23A4.48 4.48 0 004.13-.64c0-.55-.3-.88-.78-.88zm0 0"/></symbol><symbol overflow="visible" id="f6d48a73L"><path d="M.92-6.77V0h.99v-2.27h1.68c1.58 0 2.38-.65 2.38-2.2v-.14c0-1.51-.8-2.16-2.34-2.16zM5-4.47c0 1.05-.42 1.45-1.58 1.45H1.91v-2.96h1.51C4.58-5.98 5-5.66 5-4.61zm0 0"/></symbol><symbol overflow="visible" id="f6d48a73M"><path d="M3.42-.86h-.08L1.77-5.02H.8L2.73 0h.41c-.33.95-.72 1.27-1.45 1.27-.22 0-.49-.04-.69-.08l-.1.73c.2.06.58.11.87.11 1.2 0 1.7-.7 2.21-2.03l1.94-5.02H5zm0 0"/></symbol><symbol overflow="visible" id="f6d48a73N"><path d="M1.45-7.1c1.96.33 2.8 1.94 2.8 4.15 0 2.2-.84 3.8-2.8 4.17l.11.67c2.58-.47 3.67-2.28 3.67-4.84 0-2.55-1.09-4.36-3.67-4.85zm0 0"/></symbol><symbol overflow="visible" id="f6d48a73n"><path d="M1.38-1.45l.68-.68L1.2-3l-.67.67zm0 0"/></symbol><symbol overflow="visible" id="f6d48a73o"><path d="M1.14 0h.66c0-2.92-.1-3.38-.57-5.03L.52-5c.53 1.6.62 1.97.62 5zm0 0"/></symbol><symbol overflow="visible" id="f6d48a73p"><path d="M1.14 0h.66c0-1.28-.02-2.08-.08-2.72.2.06.42.1.6.1 1 0 1.46-.66 1.46-1.77 0-.2-.01-.42-.05-.64l-.65.06c.03.25.04.45.04.63 0 .65-.21.96-.8.96-.52 0-.68-.09-.84-.75l-.25-.9L.52-5c.53 1.6.62 1.97.62 5zm0 0"/></symbol><symbol overflow="visible" id="f6d48a73q"><path d="M1.14 0h.66c0-1.28-.02-2.08-.08-2.72.2.06.42.1.6.1.26 0 .48-.07.66-.2.24.12.63.2.82.2.84 0 1.22-.66 1.22-1.77 0-.19-.02-.42-.04-.64l-.6.06.01.47c0 .77-.14 1.13-.6 1.13-.15 0-.27-.02-.37-.05.1-.27.14-.58.14-.97 0-.2-.01-.42-.04-.64l-.66.06c.02.25.05.45.05.63 0 .65-.18.96-.6.96-.51 0-.67-.09-.83-.75l-.25-.9L.52-5c.53 1.6.62 1.97.62 5zm0 0"/></symbol><symbol overflow="visible" id="f6d48a73r"><path d="M2.33.05c.31 0 .69-.03 1.1-.1L3.5-.8c-.5.08-.9.1-1.22.1-.86 0-1.08-.26-1.08-.59 0-.5.66-.87 1.78-1.22l.07-.76c-.4.19-.77.26-1.03.26-.49 0-.75-.18-.75-.4 0-.22.17-.66 1.15-.92l.06-.72C1.31-4.84.66-4.11.66-3.4c0 .36.2.7.6.89-.43.31-.74.78-.74 1.25 0 .83.59 1.3 1.8 1.3zm0 0"/></symbol><symbol overflow="visible" id="f6d48a73s"><path d="M2.33-.22c1.2 0 1.76-.64 1.76-1.7 0-1.19-.67-2.74-1.8-2.74-1.09 0-1.77 1.5-1.77 2.7 0 1.1.6 1.74 1.8 1.74zm.01-.75C1.5-.97 1.17-1.34 1.17-2c0-.75.46-1.9 1.14-1.9.69 0 1.13 1.18 1.13 1.93 0 .7-.38 1-1.1 1zm0 0"/></symbol><symbol overflow="visible" id="f6d48a73t"><path d="M2.84 0h.7c-.23-1-.29-1.83-.29-2.75 0-.67.03-1.4.08-2.28H.59l-.07.75h2.06l-.03 1.36c0 1 .08 1.84.3 2.92zm0 0"/></symbol></defs><g fill="#fff"><use xlink:href="#f6d48a73a" x="224.04" y="141"/><use xlink:href="#f6d48a73b" x="242.88" y="141"/><use xlink:href="#f6d48a73c" x="258.3" y="141"/><use xlink:href="#f6d48a73d" x="280.14" y="141"/><use xlink:href="#f6d48a73e" x="305.28" y="141"/><use xlink:href="#f6d48a73f" x="325.38" y="141"/><use xlink:href="#f6d48a73g" x="352.08" y="141"/><use xlink:href="#f6d48a73h" x="267.1593" y="252"/><use xlink:href="#f6d48a73i" x="273.8263" y="252"/><use xlink:href="#f6d48a73j" x="280.4933" y="252"/><use xlink:href="#f6d48a73k" x="287.1603" y="252"/><use xlink:href="#f6d48a73l" x="293.8273" y="252"/><use xlink:href="#f6d48a73m" x="300.4943" y="252"/><use xlink:href="#f6d48a73n" x="307.1593" y="252"/><use xlink:href="#f6d48a73o" x="309.1813" y="252"/><g><use xlink:href="#f6d48a73p" x="311.5033" y="252"/></g><g><use xlink:href="#f6d48a73q" x="315.7953" y="252"/></g><g><use xlink:href="#f6d48a73r" x="321.0773" y="252"/></g><g><use xlink:href="#f6d48a73s" x="324.8293" y="252"/></g><g><use xlink:href="#f6d48a73t" x="328.7813" y="252"/></g><g><use xlink:href="#f6d48a73u" x="113.3333" y="266"/><use xlink:href="#f6d48a73i" x="120.0003" y="266"/><use xlink:href="#f6d48a73v" x="126.6673" y="266"/><use xlink:href="#f6d48a73k" x="133.3343" y="266"/><use xlink:href="#f6d48a73w" x="140.0013" y="266"/><use xlink:href="#f6d48a73x" x="146.6683" y="266"/><use xlink:href="#f6d48a73i" x="153.3353" y="266"/><use xlink:href="#f6d48a73l" x="160.0023" y="266"/><use xlink:href="#f6d48a73m" x="166.6693" y="266"/><use xlink:href="#f6d48a73y" x="173.3363" y="266"/><use xlink:href="#f6d48a73v" x="180.0033" y="266"/><use xlink:href="#f6d48a73z" x="186.6703" y="266"/><use xlink:href="#f6d48a73A" x="193.3373" y="266"/><use xlink:href="#f6d48a73B" x="200.0043" y="266"/><use xlink:href="#f6d48a73z" x="206.6713" y="266"/><use xlink:href="#f6d48a73A" x="213.3383" y="266"/><use xlink:href="#f6d48a73m" x="220.0053" y="266"/><use xlink:href="#f6d48a73C" x="226.6723" y="266"/><use xlink:href="#f6d48a73x" x="233.3393" y="266"/><use xlink:href="#f6d48a73v" x="240.0063" y="266"/><use xlink:href="#f6d48a73D" x="246.6733" y="266"/><use xlink:href="#f6d48a73B" x="253.3403" y="266"/><use xlink:href="#f6d48a73E" x="260.0073" y="266"/><use xlink:href="#f6d48a73m" x="266.6743" y="266"/><use xlink:href="#f6d48a73z" x="273.3413" y="266"/><use xlink:href="#f6d48a73w" x="280.0083" y="266"/><use xlink:href="#f6d48a73F" x="286.6753" y="266"/><use xlink:href="#f6d48a73i" x="293.3423" y="266"/><use xlink:href="#f6d48a73x" x="300.0093" y="266"/><use xlink:href="#f6d48a73v" x="306.6763" y="266"/><use xlink:href="#f6d48a73G" x="313.3433" y="266"/><use xlink:href="#f6d48a73H" x="320.0103" y="266"/><use xlink:href="#f6d48a73m" x="326.6773" y="266"/><use xlink:href="#f6d48a73I" x="333.3443" y="266"/><use xlink:href="#f6d48a73J" x="340.0113" y="266"/><use xlink:href="#f6d48a73z" x="346.6783" y="266"/><use xlink:href="#f6d48a73w" x="353.3453" y="266"/><use xlink:href="#f6d48a73F" x="360.0123" y="266"/><use xlink:href="#f6d48a73K" x="366.6793" y="266"/><use xlink:href="#f6d48a73m" x="373.3463" y="266"/><use xlink:href="#f6d48a73C" x="380.0133" y="266"/><use xlink:href="#f6d48a73x" x="386.6803" y="266"/><use xlink:href="#f6d48a73v" x="393.3473" y="266"/><use xlink:href="#f6d48a73D" x="400.0143" y="266"/><use xlink:href="#f6d48a73B" x="406.6813" y="266"/><use xlink:href="#f6d48a73E" x="413.3483" y="266"/><use xlink:href="#f6d48a73m" x="420.0153" y="266"/><use xlink:href="#f6d48a73L" x="426.6823" y="266"/><use xlink:href="#f6d48a73x" x="433.3493" y="266"/><use xlink:href="#f6d48a73J" x="440.0163" y="266"/><use xlink:href="#f6d48a73m" x="446.6833" y="266"/><use xlink:href="#f6d48a73J" x="453.3503" y="266"/><use xlink:href="#f6d48a73z" x="460.0173" y="266"/><use xlink:href="#f6d48a73G" x="466.6843" y="266"/><use xlink:href="#f6d48a73M" x="473.3513" y="266"/><use xlink:href="#f6d48a73N" x="480.0183" y="266"/></g></g></svg>