<?xml version='1.0' encoding='UTF-8'?>
<svg xmlns="http://www.w3.org/2000/svg" xmlns:xlink="http://www.w3.org/1999/xlink" width="600px" height="300px" viewBox="0 0 600 300" x="0px" y="0px" enable-background="new 0 0 600 300"><defs><symbol overflow="visible" id="686d3aefa"><path d="M3.47 0c1 0 1.83-.32 2.48-.97.65-.64.97-1.48.97-2.5 0-1-.32-1.83-.97-2.48a3.38 3.38 0 00-2.48-.97c-1.02 0-1.86.32-2.5.97A3.36 3.36 0 000-3.47C0-2.45.32-1.6.97-.97c.64.65 1.48.97 2.5.97zm6.92 0c1 0 1.84-.32 2.48-.97.65-.64.97-1.48.97-2.5 0-1-.32-1.83-.96-2.48a3.38 3.38 0 00-2.49-.97c-1.02 0-1.85.32-2.5.97a3.36 3.36 0 00-.97 2.48c0 1.02.32 1.86.97 2.5.65.65 1.48.97 2.5.97zm6.92 0c1.01 0 1.84-.32 2.49-.97.64-.64.97-1.48.97-2.5 0-1-.33-1.83-.97-2.48a3.38 3.38 0 00-2.49-.97c-1.02 0-1.85.32-2.5.97a3.36 3.36 0 00-.97 2.48c0 1.02.32 1.86.97 2.5.65.65 1.48.97 2.5.97zm6.92 0c1.01 0 1.84-.32 2.49-.97.64-.64.97-1.48.97-2.5 0-1-.33-1.83-.97-2.48a3.38 3.38 0 00-2.49-.97c-1.02 0-1.85.32-2.5.97a3.36 3.36 0 00-.96 2.48c0 1.02.32 1.86.96 2.5.65.65 1.48.97 2.5.97zm6.93 0c1 0 1.83-.32 2.48-.97.65-.64.97-1.48.97-2.5 0-1-.32-1.83-.97-2.48a3.38 3.38 0 00-2.48-.97c-1.03 0-1.86.32-2.5.97a3.36 3.36 0 00-.97 2.48c0 1.02.32 1.86.97 2.5.64.65 1.47.97 2.5.97zm6.92 0c1 0 1.83-.32 2.48-.97.65-.64.97-1.48.97-2.5 0-1-.32-1.83-.97-2.48a3.38 3.38 0 00-2.48-.97c-1.03 0-1.86.32-2.5.97a3.36 3.36 0 00-.97 2.48c0 1.02.32 1.86.97 2.5.64.65 1.47.97 2.5.97zM45 0c1 0 1.84-.32 2.48-.97.65-.64.97-1.48.97-2.5 0-1-.32-1.83-.97-2.48A3.38 3.38 0 0045-6.92c-1.02 0-1.86.32-2.5.97a3.36 3.36 0 00-.97 2.48c0 1.02.32 1.86.97 2.5.64.65 1.48.97 2.5.97zM3.47-6.92c1 0 1.83-.32 2.48-.97.65-.65.97-1.48.97-2.5 0-1-.32-1.84-.97-2.48a3.38 3.38 0 00-2.48-.97c-1.02 0-1.86.32-2.5.96A3.36 3.36 0 000-10.38c0 1.02.32 1.85.97 2.5.64.65 1.48.97 2.5.97zm6.92 0c1 0 1.84-.32 2.48-.97.65-.65.97-1.48.97-2.5 0-1-.32-1.84-.96-2.48a3.38 3.38 0 00-2.49-.97c-1.02 0-1.85.32-2.5.96a3.36 3.36 0 00-.97 2.49c0 1.02.32 1.85.97 2.5.65.65 1.48.97 2.5.97zm6.92 0c1.01 0 1.84-.32 2.49-.97.64-.65.97-1.48.97-2.5 0-1-.33-1.84-.97-2.48a3.38 3.38 0 00-2.49-.97c-1.02 0-1.85.32-2.5.96a3.36 3.36 0 00-.97 2.49c0 1.02.32 1.85.97 2.5.65.65 1.48.97 2.5.97zm6.92 0c1.01 0 1.84-.32 2.49-.97.64-.65.97-1.48.97-2.5 0-1-.33-1.84-.97-2.48a3.38 3.38 0 00-2.49-.97c-1.02 0-1.85.32-2.5.96a3.36 3.36 0 00-.96 2.49c0 1.02.32 1.85.96 2.5.65.65 1.48.97 2.5.97zm6.93 0c1 0 1.83-.32 2.48-.97.65-.65.97-1.48.97-2.5 0-1-.32-1.84-.97-2.48a3.38 3.38 0 00-2.48-.97c-1.03 0-1.86.32-2.5.96a3.36 3.36 0 00-.97 2.49c0 1.02.32 1.85.97 2.5.64.65 1.47.97 2.5.97zm6.92 0c1 0 1.83-.32 2.48-.97.65-.65.97-1.48.97-2.5 0-1-.32-1.84-.97-2.48a3.38 3.38 0 00-2.48-.97c-1.03 0-1.86.32-2.5.96a3.36 3.36 0 00-.97 2.49c0 1.02.32 1.85.97 2.5.64.65 1.47.97 2.5.97zm6.92 0c1 0 1.84-.32 2.48-.97.65-.65.97-1.48.97-2.5 0-1-.32-1.84-.97-2.48a3.38 3.38 0 00-2.48-.97c-1.02 0-1.86.32-2.5.96a3.36 3.36 0 00-.97 2.49c0 1.02.32 1.85.97 2.5.64.65 1.48.97 2.5.97zM3.47-13.84c1 0 1.83-.32 2.48-.97.65-.65.97-1.48.97-2.5 0-1.01-.32-1.84-.97-2.49a3.38 3.38 0 00-2.48-.97c-1.02 0-1.86.33-2.5.97A3.36 3.36 0 000-17.3c0 1.02.32 1.85.97 2.5.64.65 1.48.97 2.5.97zm6.92 0c1 0 1.84-.32 2.48-.97.65-.65.97-1.48.97-2.5 0-1.01-.32-1.84-.96-2.49a3.38 3.38 0 00-2.49-.97c-1.02 0-1.85.33-2.5.97a3.36 3.36 0 00-.97 2.49c0 1.02.32 1.85.97 2.5.65.65 1.48.97 2.5.97zm6.92 0c1.01 0 1.84-.32 2.49-.97.64-.65.97-1.48.97-2.5 0-1.01-.33-1.84-.97-2.49a3.38 3.38 0 00-2.49-.97c-1.02 0-1.85.33-2.5.97a3.36 3.36 0 00-.97 2.49c0 1.02.32 1.85.97 2.5.65.65 1.48.97 2.5.97zm6.92 0c1.01 0 1.84-.32 2.49-.97.64-.65.97-1.48.97-2.5 0-1.01-.33-1.84-.97-2.49a3.38 3.38 0 00-2.49-.97c-1.02 0-1.85.33-2.5.97a3.36 3.36 0 00-.96 2.49c0 1.02.32 1.85.96 2.5.65.65 1.48.97 2.5.97zm6.93 0c1 0 1.83-.32 2.48-.97.65-.65.97-1.48.97-2.5 0-1.01-.32-1.84-.97-2.49a3.38 3.38 0 00-2.48-.97c-1.03 0-1.86.33-2.5.97a3.36 3.36 0 00-.97 2.49c0 1.02.32 1.85.97 2.5.64.65 1.47.97 2.5.97zm6.92 0c1 0 1.83-.32 2.48-.97.65-.65.97-1.48.97-2.5 0-1.01-.32-1.84-.97-2.49a3.38 3.38 0 00-2.48-.97c-1.03 0-1.86.33-2.5.97a3.36 3.36 0 00-.97 2.49c0 1.02.32 1.85.97 2.5.64.65 1.47.97 2.5.97zm6.92 0c1 0 1.84-.32 2.48-.97.65-.65.97-1.48.97-2.5 0-1.01-.32-1.84-.97-2.49a3.38 3.38 0 00-2.48-.97c-1.02 0-1.86.33-2.5.97a3.36 3.36 0 00-.97 2.49c0 1.02.32 1.85.97 2.5.64.65 1.48.97 2.5.97zM3.47-20.77c1 0 1.83-.32 2.48-.96.65-.65.97-1.48.97-2.5 0-1.01-.32-1.84-.97-2.49a3.38 3.38 0 00-2.48-.97c-1.02 0-1.86.33-2.5.97A3.36 3.36 0 000-24.23c0 1.02.32 1.85.97 2.5.64.64 1.48.96 2.5.96zm6.92 0c1 0 1.84-.32 2.48-.96.65-.65.97-1.48.97-2.5 0-1.01-.32-1.84-.96-2.49a3.38 3.38 0 00-2.49-.97c-1.02 0-1.85.33-2.5.97a3.36 3.36 0 00-.97 2.49c0 1.02.32 1.85.97 2.5.65.64 1.48.96 2.5.96zm6.92 0c1.01 0 1.84-.32 2.49-.96.64-.65.97-1.48.97-2.5 0-1.01-.33-1.84-.97-2.49a3.38 3.38 0 00-2.49-.97c-1.02 0-1.85.33-2.5.97a3.36 3.36 0 00-.97 2.49c0 1.02.32 1.85.97 2.5.65.64 1.48.96 2.5.96zm6.92 0c1.01 0 1.84-.32 2.49-.96.64-.65.97-1.48.97-2.5 0-1.01-.33-1.84-.97-2.49a3.38 3.38 0 00-2.49-.97c-1.02 0-1.85.33-2.5.97a3.36 3.36 0 00-.96 2.49c0 1.02.32 1.85.96 2.5.65.64 1.48.96 2.5.96zm6.93 0c1 0 1.83-.32 2.48-.96.65-.65.97-1.48.97-2.5 0-1.01-.32-1.84-.97-2.49a3.38 3.38 0 00-2.48-.97c-1.03 0-1.86.33-2.5.97a3.36 3.36 0 00-.97 2.49c0 1.02.32 1.85.97 2.5.64.64 1.47.96 2.5.96zm6.92 0c1 0 1.83-.32 2.48-.96.65-.65.97-1.48.97-2.5 0-1.01-.32-1.84-.97-2.49a3.38 3.38 0 00-2.48-.97c-1.03 0-1.86.33-2.5.97a3.36 3.36 0 00-.97 2.49c0 1.02.32 1.85.97 2.5.64.64 1.47.96 2.5.96zm6.92 0c1 0 1.84-.32 2.48-.96.65-.65.97-1.48.97-2.5 0-1.01-.32-1.84-.97-2.49a3.38 3.38 0 00-2.48-.97c-1.02 0-1.86.33-2.5.97a3.36 3.36 0 00-.97 2.49c0 1.02.32 1.85.97 2.5.64.64 1.48.96 2.5.96zM3.47-27.69c1 0 1.83-.32 2.48-.97.65-.64.97-1.47.97-2.5 0-1-.32-1.83-.97-2.48a3.38 3.38 0 00-2.48-.97c-1.02 0-1.86.32-2.5.97A3.36 3.36 0 000-31.16c0 1.03.32 1.86.97 2.5.64.65 1.48.97 2.5.97zm6.92 0c1 0 1.84-.32 2.48-.97.65-.64.97-1.47.97-2.5 0-1-.32-1.83-.96-2.48a3.38 3.38 0 00-2.49-.97c-1.02 0-1.85.32-2.5.97a3.36 3.36 0 00-.97 2.48c0 1.03.32 1.86.97 2.5.65.65 1.48.97 2.5.97zm6.92 0c1.01 0 1.84-.32 2.49-.97.64-.64.97-1.47.97-2.5 0-1-.33-1.83-.97-2.48a3.38 3.38 0 00-2.49-.97c-1.02 0-1.85.32-2.5.97a3.36 3.36 0 00-.97 2.48c0 1.03.32 1.86.97 2.5.65.65 1.48.97 2.5.97zm6.92 0c1.01 0 1.84-.32 2.49-.97.64-.64.97-1.47.97-2.5 0-1-.33-1.83-.97-2.48a3.38 3.38 0 00-2.49-.97c-1.02 0-1.85.32-2.5.97a3.36 3.36 0 00-.96 2.48c0 1.03.32 1.86.96 2.5.65.65 1.48.97 2.5.97zm6.93 0c1 0 1.83-.32 2.48-.97.65-.64.97-1.47.97-2.5 0-1-.32-1.83-.97-2.48a3.38 3.38 0 00-2.48-.97c-1.03 0-1.86.32-2.5.97a3.36 3.36 0 00-.97 2.48c0 1.03.32 1.86.97 2.5.64.65 1.47.97 2.5.97zm6.92 0c1 0 1.83-.32 2.48-.97.65-.64.97-1.47.97-2.5 0-1-.32-1.83-.97-2.48a3.38 3.38 0 00-2.48-.97c-1.03 0-1.86.32-2.5.97a3.36 3.36 0 00-.97 2.48c0 1.03.32 1.86.97 2.5.64.65 1.47.97 2.5.97zm6.92 0c1 0 1.84-.32 2.48-.97.65-.64.97-1.47.97-2.5 0-1-.32-1.83-.97-2.48a3.38 3.38 0 00-2.48-.97c-1.02 0-1.86.32-2.5.97a3.36 3.36 0 00-.97 2.48c0 1.03.32 1.86.97 2.5.64.65 1.48.97 2.5.97zM3.47-34.6c1 0 1.83-.32 2.48-.97.65-.64.97-1.47.97-2.5 0-1-.32-1.83-.97-2.48a3.38 3.38 0 00-2.48-.97c-1.02 0-1.86.32-2.5.97A3.36 3.36 0 000-38.08c0 1.03.32 1.86.97 2.5.64.65 1.48.97 2.5.97zm6.92 0c1 0 1.84-.32 2.48-.97.65-.64.97-1.47.97-2.5 0-1-.32-1.83-.96-2.48a3.38 3.38 0 00-2.49-.97c-1.02 0-1.85.32-2.5.97a3.36 3.36 0 00-.97 2.48c0 1.03.32 1.86.97 2.5.65.65 1.48.97 2.5.97zm6.92 0c1.01 0 1.84-.32 2.49-.97.64-.64.97-1.47.97-2.5 0-1-.33-1.83-.97-2.48a3.38 3.38 0 00-2.49-.97c-1.02 0-1.85.32-2.5.97a3.36 3.36 0 00-.97 2.48c0 1.03.32 1.86.97 2.5.65.65 1.48.97 2.5.97zm6.92 0c1.01 0 1.84-.32 2.49-.97.64-.64.97-1.47.97-2.5 0-1-.33-1.83-.97-2.48a3.38 3.38 0 00-2.49-.97c-1.02 0-1.85.32-2.5.97a3.36 3.36 0 00-.96 2.48c0 1.03.32 1.86.96 2.5.65.65 1.48.97 2.5.97zm6.93 0c1 0 1.83-.32 2.48-.97.65-.64.97-1.47.97-2.5 0-1-.32-1.83-.97-2.48a3.38 3.38 0 00-2.48-.97c-1.03 0-1.86.32-2.5.97a3.36 3.36 0 00-.97 2.48c0 1.03.32 1.86.97 2.5.64.65 1.47.97 2.5.97zm6.92 0c1 0 1.83-.32 2.48-.97.65-.64.97-1.47.97-2.5 0-1-.32-1.83-.97-2.48a3.38 3.38 0 00-2.48-.97c-1.03 0-1.86.32-2.5.97a3.36 3.36 0 00-.97 2.48c0 1.03.32 1.86.97 2.5.64.65 1.47.97 2.5.97zm6.92 0c1 0 1.84-.32 2.48-.97.65-.64.97-1.47.97-2.5 0-1-.32-1.83-.97-2.48a3.38 3.38 0 00-2.48-.97c-1.02 0-1.86.32-2.5.97a3.36 3.36 0 00-.97 2.48c0 1.03.32 1.86.97 2.5.64.65 1.48.97 2.5.97zM3.47-41.53c1 0 1.83-.32 2.48-.97.65-.64.97-1.48.97-2.5 0-1-.32-1.84-.97-2.48a3.38 3.38 0 00-2.48-.97c-1.02 0-1.86.32-2.5.97A3.36 3.36 0 000-45c0 1.02.32 1.86.97 2.5.64.65 1.48.97 2.5.97zm6.92 0c1 0 1.84-.32 2.48-.97.65-.64.97-1.48.97-2.5 0-1-.32-1.84-.96-2.48a3.38 3.38 0 00-2.49-.97c-1.02 0-1.85.32-2.5.97A3.36 3.36 0 006.92-45c0 1.02.32 1.86.97 2.5.65.65 1.48.97 2.5.97zm6.92 0c1.01 0 1.84-.32 2.49-.97.64-.64.97-1.48.97-2.5 0-1-.33-1.84-.97-2.48a3.38 3.38 0 00-2.49-.97c-1.02 0-1.85.32-2.5.97a3.36 3.36 0 00-.97 2.48c0 1.02.32 1.86.97 2.5.65.65 1.48.97 2.5.97zm6.92 0c1.01 0 1.84-.32 2.49-.97.64-.64.97-1.48.97-2.5 0-1-.33-1.84-.97-2.48a3.38 3.38 0 00-2.49-.97c-1.02 0-1.85.32-2.5.97a3.36 3.36 0 00-.96 2.48c0 1.02.32 1.86.96 2.5.65.65 1.48.97 2.5.97zm6.93 0c1 0 1.83-.32 2.48-.97.65-.64.97-1.48.97-2.5 0-1-.32-1.84-.97-2.48a3.38 3.38 0 00-2.48-.97c-1.03 0-1.86.32-2.5.97a3.36 3.36 0 00-.97 2.48c0 1.02.32 1.86.97 2.5.64.65 1.47.97 2.5.97zm6.92 0c1 0 1.83-.32 2.48-.97.65-.64.97-1.48.97-2.5 0-1-.32-1.84-.97-2.48a3.38 3.38 0 00-2.48-.97c-1.03 0-1.86.32-2.5.97A3.36 3.36 0 0034.6-45c0 1.02.32 1.86.97 2.5.64.65 1.47.97 2.5.97zm6.92 0c1 0 1.84-.32 2.48-.97.65-.64.97-1.48.97-2.5 0-1-.32-1.84-.97-2.48a3.38 3.38 0 00-2.48-.97c-1.02 0-1.86.32-2.5.97a3.36 3.36 0 00-.97 2.48c0 1.02.32 1.86.97 2.5.64.65 1.48.97 2.5.97zm0 0"/></symbol><symbol overflow="visible" id="686d3aefb"><path d="M3.47-3.47zm0-41.53zm20.76 20.77zM45-3.47zM45-45zM10.4 0c1 0 1.83-.32 2.47-.97.65-.64.97-1.48.97-2.5 0-1-.32-1.83-.96-2.48a3.38 3.38 0 00-2.49-.97c-1.02 0-1.85.32-2.5.97a3.36 3.36 0 00-.97 2.48c0 1.02.32 1.86.97 2.5.65.65 1.48.97 2.5.97zm6.91 0c1.01 0 1.84-.32 2.49-.97.64-.64.97-1.48.97-2.5 0-1-.33-1.83-.97-2.48a3.38 3.38 0 00-2.49-.97c-1.02 0-1.85.32-2.5.97a3.36 3.36 0 00-.97 2.48c0 1.02.32 1.86.97 2.5.65.65 1.48.97 2.5.97zm6.92 0c1.01 0 1.84-.32 2.49-.97.64-.64.97-1.48.97-2.5 0-1-.33-1.83-.97-2.48a3.38 3.38 0 00-2.49-.97c-1.02 0-1.85.32-2.5.97a3.36 3.36 0 00-.96 2.48c0 1.02.32 1.86.96 2.5.65.65 1.48.97 2.5.97zm6.93 0c1 0 1.83-.32 2.48-.97.65-.64.97-1.48.97-2.5 0-1-.32-1.83-.97-2.48a3.38 3.38 0 00-2.48-.97c-1.03 0-1.86.32-2.5.97a3.36 3.36 0 00-.97 2.48c0 1.02.32 1.86.97 2.5.64.65 1.47.97 2.5.97zm6.92 0c1 0 1.83-.32 2.48-.97.65-.64.97-1.48.97-2.5 0-1-.32-1.83-.97-2.48a3.38 3.38 0 00-2.48-.97c-1.03 0-1.86.32-2.5.97a3.36 3.36 0 00-.97 2.48c0 1.02.32 1.86.97 2.5.64.65 1.47.97 2.5.97zM3.47-6.92c1 0 1.83-.32 2.48-.97.65-.65.97-1.48.97-2.5 0-1-.32-1.84-.97-2.48a3.38 3.38 0 00-2.48-.97c-1.02 0-1.86.32-2.5.96A3.36 3.36 0 000-10.38c0 1.02.32 1.85.97 2.5.64.65 1.48.97 2.5.97zm6.92 0c1 0 1.84-.32 2.48-.97.65-.65.97-1.48.97-2.5 0-1-.32-1.84-.96-2.48a3.38 3.38 0 00-2.49-.97c-1.02 0-1.85.32-2.5.96a3.36 3.36 0 00-.97 2.49c0 1.02.32 1.85.97 2.5.65.65 1.48.97 2.5.97zm6.92 0c1.01 0 1.84-.32 2.49-.97.64-.65.97-1.48.97-2.5 0-1-.33-1.84-.97-2.48a3.38 3.38 0 00-2.49-.97c-1.02 0-1.85.32-2.5.96a3.36 3.36 0 00-.97 2.49c0 1.02.32 1.85.97 2.5.65.65 1.48.97 2.5.97zm6.92 0c1.01 0 1.84-.32 2.49-.97.64-.65.97-1.48.97-2.5 0-1-.33-1.84-.97-2.48a3.38 3.38 0 00-2.49-.97c-1.02 0-1.85.32-2.5.96a3.36 3.36 0 00-.96 2.49c0 1.02.32 1.85.96 2.5.65.65 1.48.97 2.5.97zm6.93 0c1 0 1.83-.32 2.48-.97.65-.65.97-1.48.97-2.5 0-1-.32-1.84-.97-2.48a3.38 3.38 0 00-2.48-.97c-1.03 0-1.86.32-2.5.96a3.36 3.36 0 00-.97 2.49c0 1.02.32 1.85.97 2.5.64.65 1.47.97 2.5.97zm6.92 0c1 0 1.83-.32 2.48-.97.65-.65.97-1.48.97-2.5 0-1-.32-1.84-.97-2.48a3.38 3.38 0 00-2.48-.97c-1.03 0-1.86.32-2.5.96a3.36 3.36 0 00-.97 2.49c0 1.02.32 1.85.97 2.5.64.65 1.47.97 2.5.97zm6.92 0c1 0 1.84-.32 2.48-.97.65-.65.97-1.48.97-2.5 0-1-.32-1.84-.97-2.48a3.38 3.38 0 00-2.48-.97c-1.02 0-1.86.32-2.5.96a3.36 3.36 0 00-.97 2.49c0 1.02.32 1.85.97 2.5.64.65 1.48.97 2.5.97zM3.47-13.84c1 0 1.83-.32 2.48-.97.65-.65.97-1.48.97-2.5 0-1.01-.32-1.84-.97-2.49a3.38 3.38 0 00-2.48-.97c-1.02 0-1.86.33-2.5.97A3.36 3.36 0 000-17.3c0 1.02.32 1.85.97 2.5.64.65 1.48.97 2.5.97zm6.92 0c1 0 1.84-.32 2.48-.97.65-.65.97-1.48.97-2.5 0-1.01-.32-1.84-.96-2.49a3.38 3.38 0 00-2.49-.97c-1.02 0-1.85.33-2.5.97a3.36 3.36 0 00-.97 2.49c0 1.02.32 1.85.97 2.5.65.65 1.48.97 2.5.97zm6.92 0c1.01 0 1.84-.32 2.49-.97.64-.65.97-1.48.97-2.5 0-1.01-.33-1.84-.97-2.49a3.38 3.38 0 00-2.49-.97c-1.02 0-1.85.33-2.5.97a3.36 3.36 0 00-.97 2.49c0 1.02.32 1.85.97 2.5.65.65 1.48.97 2.5.97zm6.92 0c1.01 0 1.84-.32 2.49-.97.64-.65.97-1.48.97-2.5 0-1.01-.33-1.84-.97-2.49a3.38 3.38 0 00-2.49-.97c-1.02 0-1.85.33-2.5.97a3.36 3.36 0 00-.96 2.49c0 1.02.32 1.85.96 2.5.65.65 1.48.97 2.5.97zm6.93 0c1 0 1.83-.32 2.48-.97.65-.65.97-1.48.97-2.5 0-1.01-.32-1.84-.97-2.49a3.38 3.38 0 00-2.48-.97c-1.03 0-1.86.33-2.5.97a3.36 3.36 0 00-.97 2.49c0 1.02.32 1.85.97 2.5.64.65 1.47.97 2.5.97zm6.92 0c1 0 1.83-.32 2.48-.97.65-.65.97-1.48.97-2.5 0-1.01-.32-1.84-.97-2.49a3.38 3.38 0 00-2.48-.97c-1.03 0-1.86.33-2.5.97a3.36 3.36 0 00-.97 2.49c0 1.02.32 1.85.97 2.5.64.65 1.47.97 2.5.97zm6.92 0c1 0 1.84-.32 2.48-.97.65-.65.97-1.48.97-2.5 0-1.01-.32-1.84-.97-2.49a3.38 3.38 0 00-2.48-.97c-1.02 0-1.86.33-2.5.97a3.36 3.36 0 00-.97 2.49c0 1.02.32 1.85.97 2.5.64.65 1.48.97 2.5.97zM3.47-20.77c1 0 1.83-.32 2.48-.96.65-.65.97-1.48.97-2.5 0-1.01-.32-1.84-.97-2.49a3.38 3.38 0 00-2.48-.97c-1.02 0-1.86.33-2.5.97A3.36 3.36 0 000-24.23c0 1.02.32 1.85.97 2.5.64.64 1.48.96 2.5.96zm6.92 0c1 0 1.84-.32 2.48-.96.65-.65.97-1.48.97-2.5 0-1.01-.32-1.84-.96-2.49a3.38 3.38 0 00-2.49-.97c-1.02 0-1.85.33-2.5.97a3.36 3.36 0 00-.97 2.49c0 1.02.32 1.85.97 2.5.65.64 1.48.96 2.5.96zm6.92 0c1.01 0 1.84-.32 2.49-.96.64-.65.97-1.48.97-2.5 0-1.01-.33-1.84-.97-2.49a3.38 3.38 0 00-2.49-.97c-1.02 0-1.85.33-2.5.97a3.36 3.36 0 00-.97 2.49c0 1.02.32 1.85.97 2.5.65.64 1.48.96 2.5.96zm13.85 0c1 0 1.83-.32 2.48-.96.65-.65.97-1.48.97-2.5 0-1.01-.32-1.84-.97-2.49a3.38 3.38 0 00-2.48-.97c-1.03 0-1.86.33-2.5.97a3.36 3.36 0 00-.97 2.49c0 1.02.32 1.85.97 2.5.64.64 1.47.96 2.5.96zm6.92 0c1 0 1.83-.32 2.48-.96.65-.65.97-1.48.97-2.5 0-1.01-.32-1.84-.97-2.49a3.38 3.38 0 00-2.48-.97c-1.03 0-1.86.33-2.5.97a3.36 3.36 0 00-.97 2.49c0 1.02.32 1.85.97 2.5.64.64 1.47.96 2.5.96zm6.92 0c1 0 1.84-.32 2.48-.96.65-.65.97-1.48.97-2.5 0-1.01-.32-1.84-.97-2.49a3.38 3.38 0 00-2.48-.97c-1.02 0-1.86.33-2.5.97a3.36 3.36 0 00-.97 2.49c0 1.02.32 1.85.97 2.5.64.64 1.48.96 2.5.96zM3.47-27.69c1 0 1.83-.32 2.48-.97.65-.64.97-1.47.97-2.5 0-1-.32-1.83-.97-2.48a3.38 3.38 0 00-2.48-.97c-1.02 0-1.86.32-2.5.97A3.36 3.36 0 000-31.16c0 1.03.32 1.86.97 2.5.64.65 1.48.97 2.5.97zm6.92 0c1 0 1.84-.32 2.48-.97.65-.64.97-1.47.97-2.5 0-1-.32-1.83-.96-2.48a3.38 3.38 0 00-2.49-.97c-1.02 0-1.85.32-2.5.97a3.36 3.36 0 00-.97 2.48c0 1.03.32 1.86.97 2.5.65.65 1.48.97 2.5.97zm6.92 0c1.01 0 1.84-.32 2.49-.97.64-.64.97-1.47.97-2.5 0-1-.33-1.83-.97-2.48a3.38 3.38 0 00-2.49-.97c-1.02 0-1.85.32-2.5.97a3.36 3.36 0 00-.97 2.48c0 1.03.32 1.86.97 2.5.65.65 1.48.97 2.5.97zm6.92 0c1.01 0 1.84-.32 2.49-.97.64-.64.97-1.47.97-2.5 0-1-.33-1.83-.97-2.48a3.38 3.38 0 00-2.49-.97c-1.02 0-1.85.32-2.5.97a3.36 3.36 0 00-.96 2.48c0 1.03.32 1.86.96 2.5.65.65 1.48.97 2.5.97zm6.93 0c1 0 1.83-.32 2.48-.97.65-.64.97-1.47.97-2.5 0-1-.32-1.83-.97-2.48a3.38 3.38 0 00-2.48-.97c-1.03 0-1.86.32-2.5.97a3.36 3.36 0 00-.97 2.48c0 1.03.32 1.86.97 2.5.64.65 1.47.97 2.5.97zm6.92 0c1 0 1.83-.32 2.48-.97.65-.64.97-1.47.97-2.5 0-1-.32-1.83-.97-2.48a3.38 3.38 0 00-2.48-.97c-1.03 0-1.86.32-2.5.97a3.36 3.36 0 00-.97 2.48c0 1.03.32 1.86.97 2.5.64.65 1.47.97 2.5.97zm6.92 0c1 0 1.84-.32 2.48-.97.65-.64.97-1.47.97-2.5 0-1-.32-1.83-.97-2.48a3.38 3.38 0 00-2.48-.97c-1.02 0-1.86.32-2.5.97a3.36 3.36 0 00-.97 2.48c0 1.03.32 1.86.97 2.5.64.65 1.48.97 2.5.97zM3.47-34.6c1 0 1.83-.32 2.48-.97.65-.64.97-1.47.97-2.5 0-1-.32-1.83-.97-2.48a3.38 3.38 0 00-2.48-.97c-1.02 0-1.86.32-2.5.97A3.36 3.36 0 000-38.08c0 1.03.32 1.86.97 2.5.64.65 1.48.97 2.5.97zm6.92 0c1 0 1.84-.32 2.48-.97.65-.64.97-1.47.97-2.5 0-1-.32-1.83-.96-2.48a3.38 3.38 0 00-2.49-.97c-1.02 0-1.85.32-2.5.97a3.36 3.36 0 00-.97 2.48c0 1.03.32 1.86.97 2.5.65.65 1.48.97 2.5.97zm6.92 0c1.01 0 1.84-.32 2.49-.97.64-.64.97-1.47.97-2.5 0-1-.33-1.83-.97-2.48a3.38 3.38 0 00-2.49-.97c-1.02 0-1.85.32-2.5.97a3.36 3.36 0 00-.97 2.48c0 1.03.32 1.86.97 2.5.65.65 1.48.97 2.5.97zm6.92 0c1.01 0 1.84-.32 2.49-.97.64-.64.97-1.47.97-2.5 0-1-.33-1.83-.97-2.48a3.38 3.38 0 00-2.49-.97c-1.02 0-1.85.32-2.5.97a3.36 3.36 0 00-.96 2.48c0 1.03.32 1.86.96 2.5.65.65 1.48.97 2.5.97zm6.93 0c1 0 1.83-.32 2.48-.97.65-.64.97-1.47.97-2.5 0-1-.32-1.83-.97-2.48a3.38 3.38 0 00-2.48-.97c-1.03 0-1.86.32-2.5.97a3.36 3.36 0 00-.97 2.48c0 1.03.32 1.86.97 2.5.64.65 1.47.97 2.5.97zm6.92 0c1 0 1.83-.32 2.48-.97.65-.64.97-1.47.97-2.5 0-1-.32-1.83-.97-2.48a3.38 3.38 0 00-2.48-.97c-1.03 0-1.86.32-2.5.97a3.36 3.36 0 00-.97 2.48c0 1.03.32 1.86.97 2.5.64.65 1.47.97 2.5.97zm6.92 0c1 0 1.84-.32 2.48-.97.65-.64.97-1.47.97-2.5 0-1-.32-1.83-.97-2.48a3.38 3.38 0 00-2.48-.97c-1.02 0-1.86.32-2.5.97a3.36 3.36 0 00-.97 2.48c0 1.03.32 1.86.97 2.5.64.65 1.48.97 2.5.97zm-34.6-6.92c1 0 1.83-.32 2.47-.97.65-.64.97-1.48.97-2.5 0-1-.32-1.84-.96-2.48a3.38 3.38 0 00-2.49-.97c-1.02 0-1.85.32-2.5.97A3.36 3.36 0 006.92-45c0 1.02.32 1.86.97 2.5.65.65 1.48.97 2.5.97zm6.91 0c1.01 0 1.84-.32 2.49-.97.64-.64.97-1.48.97-2.5 0-1-.33-1.84-.97-2.48a3.38 3.38 0 00-2.49-.97c-1.02 0-1.85.32-2.5.97a3.36 3.36 0 00-.97 2.48c0 1.02.32 1.86.97 2.5.65.65 1.48.97 2.5.97zm6.92 0c1.01 0 1.84-.32 2.49-.97.64-.64.97-1.48.97-2.5 0-1-.33-1.84-.97-2.48a3.38 3.38 0 00-2.49-.97c-1.02 0-1.85.32-2.5.97a3.36 3.36 0 00-.96 2.48c0 1.02.32 1.86.96 2.5.65.65 1.48.97 2.5.97zm6.93 0c1 0 1.83-.32 2.48-.97.65-.64.97-1.48.97-2.5 0-1-.32-1.84-.97-2.48a3.38 3.38 0 00-2.48-.97c-1.03 0-1.86.32-2.5.97a3.36 3.36 0 00-.97 2.48c0 1.02.32 1.86.97 2.5.64.65 1.47.97 2.5.97zm6.92 0c1 0 1.83-.32 2.48-.97.65-.64.97-1.48.97-2.5 0-1-.32-1.84-.97-2.48a3.38 3.38 0 00-2.48-.97c-1.03 0-1.86.32-2.5.97A3.36 3.36 0 0034.6-45c0 1.02.32 1.86.97 2.5.64.65 1.47.97 2.5.97zm0 0"/></symbol><symbol overflow="visible" id="686d3aefc"><path d="M3.47-3.47zm0-6.92zm0-27.69zm0-6.92zm6.92 41.53zm0-41.53zM38.08-3.47zm0-41.53zM45-3.47zm0-6.92zm0-27.69zM45-45zM17.31 0c1.01 0 1.84-.32 2.49-.97.64-.64.97-1.48.97-2.5 0-1-.33-1.83-.97-2.48a3.38 3.38 0 00-2.49-.97c-1.02 0-1.85.32-2.5.97a3.36 3.36 0 00-.97 2.48c0 1.02.32 1.86.97 2.5.65.65 1.48.97 2.5.97zm6.92 0c1.01 0 1.84-.32 2.49-.97.64-.64.97-1.48.97-2.5 0-1-.33-1.83-.97-2.48a3.38 3.38 0 00-2.49-.97c-1.02 0-1.85.32-2.5.97a3.36 3.36 0 00-.96 2.48c0 1.02.32 1.86.96 2.5.65.65 1.48.97 2.5.97zm6.93 0c1 0 1.83-.32 2.48-.97.65-.64.97-1.48.97-2.5 0-1-.32-1.83-.97-2.48a3.38 3.38 0 00-2.48-.97c-1.03 0-1.86.32-2.5.97a3.36 3.36 0 00-.97 2.48c0 1.02.32 1.86.97 2.5.64.65 1.47.97 2.5.97zM10.39-6.92c1 0 1.84-.32 2.48-.97.65-.65.97-1.48.97-2.5 0-1-.32-1.84-.96-2.48a3.38 3.38 0 00-2.49-.97c-1.02 0-1.85.32-2.5.96a3.36 3.36 0 00-.97 2.49c0 1.02.32 1.85.97 2.5.65.65 1.48.97 2.5.97zm6.92 0c1.01 0 1.84-.32 2.49-.97.64-.65.97-1.48.97-2.5 0-1-.33-1.84-.97-2.48a3.38 3.38 0 00-2.49-.97c-1.02 0-1.85.32-2.5.96a3.36 3.36 0 00-.97 2.49c0 1.02.32 1.85.97 2.5.65.65 1.48.97 2.5.97zm6.92 0c1.01 0 1.84-.32 2.49-.97.64-.65.97-1.48.97-2.5 0-1-.33-1.84-.97-2.48a3.38 3.38 0 00-2.49-.97c-1.02 0-1.85.32-2.5.96a3.36 3.36 0 00-.96 2.49c0 1.02.32 1.85.96 2.5.65.65 1.48.97 2.5.97zm6.93 0c1 0 1.83-.32 2.48-.97.65-.65.97-1.48.97-2.5 0-1-.32-1.84-.97-2.48a3.38 3.38 0 00-2.48-.97c-1.03 0-1.86.32-2.5.96a3.36 3.36 0 00-.97 2.49c0 1.02.32 1.85.97 2.5.64.65 1.47.97 2.5.97zm6.92 0c1 0 1.83-.32 2.48-.97.65-.65.97-1.48.97-2.5 0-1-.32-1.84-.97-2.48a3.38 3.38 0 00-2.48-.97c-1.03 0-1.86.32-2.5.96a3.36 3.36 0 00-.97 2.49c0 1.02.32 1.85.97 2.5.64.65 1.47.97 2.5.97zM3.47-13.84c1 0 1.83-.32 2.48-.97.65-.65.97-1.48.97-2.5 0-1.01-.32-1.84-.97-2.49a3.38 3.38 0 00-2.48-.97c-1.02 0-1.86.33-2.5.97A3.36 3.36 0 000-17.3c0 1.02.32 1.85.97 2.5.64.65 1.48.97 2.5.97zm6.92 0c1 0 1.84-.32 2.48-.97.65-.65.97-1.48.97-2.5 0-1.01-.32-1.84-.96-2.49a3.38 3.38 0 00-2.49-.97c-1.02 0-1.85.33-2.5.97a3.36 3.36 0 00-.97 2.49c0 1.02.32 1.85.97 2.5.65.65 1.48.97 2.5.97zm6.92 0c1.01 0 1.84-.32 2.49-.97.64-.65.97-1.48.97-2.5 0-1.01-.33-1.84-.97-2.49a3.38 3.38 0 00-2.49-.97c-1.02 0-1.85.33-2.5.97a3.36 3.36 0 00-.97 2.49c0 1.02.32 1.85.97 2.5.65.65 1.48.97 2.5.97zm6.92 0c1.01 0 1.84-.32 2.49-.97.64-.65.97-1.48.97-2.5 0-1.01-.33-1.84-.97-2.49a3.38 3.38 0 00-2.49-.97c-1.02 0-1.85.33-2.5.97a3.36 3.36 0 00-.96 2.49c0 1.02.32 1.85.96 2.5.65.65 1.48.97 2.5.97zm6.93 0c1 0 1.83-.32 2.48-.97.65-.65.97-1.48.97-2.5 0-1.01-.32-1.84-.97-2.49a3.38 3.38 0 00-2.48-.97c-1.03 0-1.86.33-2.5.97a3.36 3.36 0 00-.97 2.49c0 1.02.32 1.85.97 2.5.64.65 1.47.97 2.5.97zm6.92 0c1 0 1.83-.32 2.48-.97.65-.65.97-1.48.97-2.5 0-1.01-.32-1.84-.97-2.49a3.38 3.38 0 00-2.48-.97c-1.03 0-1.86.33-2.5.97a3.36 3.36 0 00-.97 2.49c0 1.02.32 1.85.97 2.5.64.65 1.47.97 2.5.97zm6.92 0c1 0 1.84-.32 2.48-.97.65-.65.97-1.48.97-2.5 0-1.01-.32-1.84-.97-2.49a3.38 3.38 0 00-2.48-.97c-1.02 0-1.86.33-2.5.97a3.36 3.36 0 00-.97 2.49c0 1.02.32 1.85.97 2.5.64.65 1.48.97 2.5.97zM3.47-20.77c1 0 1.83-.32 2.48-.96.65-.65.97-1.48.97-2.5 0-1.01-.32-1.84-.97-2.49a3.38 3.38 0 00-2.48-.97c-1.02 0-1.86.33-2.5.97A3.36 3.36 0 000-24.23c0 1.02.32 1.85.97 2.5.64.64 1.48.96 2.5.96zm6.92 0c1 0 1.84-.32 2.48-.96.65-.65.97-1.48.97-2.5 0-1.01-.32-1.84-.96-2.49a3.38 3.38 0 00-2.49-.97c-1.02 0-1.85.33-2.5.97a3.36 3.36 0 00-.97 2.49c0 1.02.32 1.85.97 2.5.65.64 1.48.96 2.5.96zm6.92 0c1.01 0 1.84-.32 2.49-.96.64-.65.97-1.48.97-2.5 0-1.01-.33-1.84-.97-2.49a3.38 3.38 0 00-2.49-.97c-1.02 0-1.85.33-2.5.97a3.36 3.36 0 00-.97 2.49c0 1.02.32 1.85.97 2.5.65.64 1.48.96 2.5.96zm6.92 0c1.01 0 1.84-.32 2.49-.96.64-.65.97-1.48.97-2.5 0-1.01-.33-1.84-.97-2.49a3.38 3.38 0 00-2.49-.97c-1.02 0-1.85.33-2.5.97a3.36 3.36 0 00-.96 2.49c0 1.02.32 1.85.96 2.5.65.64 1.48.96 2.5.96zm6.93 0c1 0 1.83-.32 2.48-.96.65-.65.97-1.48.97-2.5 0-1.01-.32-1.84-.97-2.49a3.38 3.38 0 00-2.48-.97c-1.03 0-1.86.33-2.5.97a3.36 3.36 0 00-.97 2.49c0 1.02.32 1.85.97 2.5.64.64 1.47.96 2.5.96zm6.92 0c1 0 1.83-.32 2.48-.96.65-.65.97-1.48.97-2.5 0-1.01-.32-1.84-.97-2.49a3.38 3.38 0 00-2.48-.97c-1.03 0-1.86.33-2.5.97a3.36 3.36 0 00-.97 2.49c0 1.02.32 1.85.97 2.5.64.64 1.47.96 2.5.96zm6.92 0c1 0 1.84-.32 2.48-.96.65-.65.97-1.48.97-2.5 0-1.01-.32-1.84-.97-2.49a3.38 3.38 0 00-2.48-.97c-1.02 0-1.86.33-2.5.97a3.36 3.36 0 00-.97 2.49c0 1.02.32 1.85.97 2.5.64.64 1.48.96 2.5.96zM3.47-27.69c1 0 1.83-.32 2.48-.97.65-.64.97-1.47.97-2.5 0-1-.32-1.83-.97-2.48a3.38 3.38 0 00-2.48-.97c-1.02 0-1.86.32-2.5.97A3.36 3.36 0 000-31.16c0 1.03.32 1.86.97 2.5.64.65 1.48.97 2.5.97zm6.92 0c1 0 1.84-.32 2.48-.97.65-.64.97-1.47.97-2.5 0-1-.32-1.83-.96-2.48a3.38 3.38 0 00-2.49-.97c-1.02 0-1.85.32-2.5.97a3.36 3.36 0 00-.97 2.48c0 1.03.32 1.86.97 2.5.65.65 1.48.97 2.5.97zm6.92 0c1.01 0 1.84-.32 2.49-.97.64-.64.97-1.47.97-2.5 0-1-.33-1.83-.97-2.48a3.38 3.38 0 00-2.49-.97c-1.02 0-1.85.32-2.5.97a3.36 3.36 0 00-.97 2.48c0 1.03.32 1.86.97 2.5.65.65 1.48.97 2.5.97zm6.92 0c1.01 0 1.84-.32 2.49-.97.64-.64.97-1.47.97-2.5 0-1-.33-1.83-.97-2.48a3.38 3.38 0 00-2.49-.97c-1.02 0-1.85.32-2.5.97a3.36 3.36 0 00-.96 2.48c0 1.03.32 1.86.96 2.5.65.65 1.48.97 2.5.97zm6.93 0c1 0 1.83-.32 2.48-.97.65-.64.97-1.47.97-2.5 0-1-.32-1.83-.97-2.48a3.38 3.38 0 00-2.48-.97c-1.03 0-1.86.32-2.5.97a3.36 3.36 0 00-.97 2.48c0 1.03.32 1.86.97 2.5.64.65 1.47.97 2.5.97zm6.92 0c1 0 1.83-.32 2.48-.97.65-.64.97-1.47.97-2.5 0-1-.32-1.83-.97-2.48a3.38 3.38 0 00-2.48-.97c-1.03 0-1.86.32-2.5.97a3.36 3.36 0 00-.97 2.48c0 1.03.32 1.86.97 2.5.64.65 1.47.97 2.5.97zm6.92 0c1 0 1.84-.32 2.48-.97.65-.64.97-1.47.97-2.5 0-1-.32-1.83-.97-2.48a3.38 3.38 0 00-2.48-.97c-1.02 0-1.86.32-2.5.97a3.36 3.36 0 00-.97 2.48c0 1.03.32 1.86.97 2.5.64.65 1.48.97 2.5.97zM10.4-34.6c1 0 1.83-.32 2.47-.97.65-.64.97-1.47.97-2.5 0-1-.32-1.83-.96-2.48a3.38 3.38 0 00-2.49-.97c-1.02 0-1.85.32-2.5.97a3.36 3.36 0 00-.97 2.48c0 1.03.32 1.86.97 2.5.65.65 1.48.97 2.5.97zm6.91 0c1.01 0 1.84-.32 2.49-.97.64-.64.97-1.47.97-2.5 0-1-.33-1.83-.97-2.48a3.38 3.38 0 00-2.49-.97c-1.02 0-1.85.32-2.5.97a3.36 3.36 0 00-.97 2.48c0 1.03.32 1.86.97 2.5.65.65 1.48.97 2.5.97zm6.92 0c1.01 0 1.84-.32 2.49-.97.64-.64.97-1.47.97-2.5 0-1-.33-1.83-.97-2.48a3.38 3.38 0 00-2.49-.97c-1.02 0-1.85.32-2.5.97a3.36 3.36 0 00-.96 2.48c0 1.03.32 1.86.96 2.5.65.65 1.48.97 2.5.97zm6.93 0c1 0 1.83-.32 2.48-.97.65-.64.97-1.47.97-2.5 0-1-.32-1.83-.97-2.48a3.38 3.38 0 00-2.48-.97c-1.03 0-1.86.32-2.5.97a3.36 3.36 0 00-.97 2.48c0 1.03.32 1.86.97 2.5.64.65 1.47.97 2.5.97zm6.92 0c1 0 1.83-.32 2.48-.97.65-.64.97-1.47.97-2.5 0-1-.32-1.83-.97-2.48a3.38 3.38 0 00-2.48-.97c-1.03 0-1.86.32-2.5.97a3.36 3.36 0 00-.97 2.48c0 1.03.32 1.86.97 2.5.64.65 1.47.97 2.5.97zM17.3-41.53c1.01 0 1.84-.32 2.49-.97.64-.64.97-1.48.97-2.5 0-1-.33-1.84-.97-2.48a3.38 3.38 0 00-2.49-.97c-1.02 0-1.85.32-2.5.97a3.36 3.36 0 00-.97 2.48c0 1.02.32 1.86.97 2.5.65.65 1.48.97 2.5.97zm6.92 0c1.01 0 1.84-.32 2.49-.97.64-.64.97-1.48.97-2.5 0-1-.33-1.84-.97-2.48a3.38 3.38 0 00-2.49-.97c-1.02 0-1.85.32-2.5.97a3.36 3.36 0 00-.96 2.48c0 1.02.32 1.86.96 2.5.65.65 1.48.97 2.5.97zm6.93 0c1 0 1.83-.32 2.48-.97.65-.64.97-1.48.97-2.5 0-1-.32-1.84-.97-2.48a3.38 3.38 0 00-2.48-.97c-1.03 0-1.86.32-2.5.97a3.36 3.36 0 00-.97 2.48c0 1.02.32 1.86.97 2.5.64.65 1.47.97 2.5.97zm0 0"/></symbol><symbol overflow="visible" id="686d3aefd"><path d="M3.47-3.47zm0-6.92zm0-27.69zm0-6.92zm6.92 41.53zm0-41.53zm6.92 41.53zm0-41.53zM31.16-3.47zm0-41.53zm6.92 41.53zm0-41.53zM45-3.47zm0-6.92zm0-27.69zM45-45zM24.23 0c1.01 0 1.84-.32 2.49-.97.64-.64.97-1.48.97-2.5 0-1-.33-1.83-.97-2.48a3.38 3.38 0 00-2.49-.97c-1.02 0-1.85.32-2.5.97a3.36 3.36 0 00-.96 2.48c0 1.02.32 1.86.96 2.5.65.65 1.48.97 2.5.97zM10.4-6.92c1 0 1.84-.32 2.48-.97.65-.65.97-1.48.97-2.5 0-1-.32-1.84-.96-2.48a3.38 3.38 0 00-2.49-.97c-1.02 0-1.85.32-2.5.96a3.36 3.36 0 00-.97 2.49c0 1.02.32 1.85.97 2.5.65.65 1.48.97 2.5.97zm6.92 0c1.01 0 1.84-.32 2.49-.97.64-.65.97-1.48.97-2.5 0-1-.33-1.84-.97-2.48a3.38 3.38 0 00-2.49-.97c-1.02 0-1.85.32-2.5.96a3.36 3.36 0 00-.97 2.49c0 1.02.32 1.85.97 2.5.65.65 1.48.97 2.5.97zm6.92 0c1.01 0 1.84-.32 2.49-.97.64-.65.97-1.48.97-2.5 0-1-.33-1.84-.97-2.48a3.38 3.38 0 00-2.49-.97c-1.02 0-1.85.32-2.5.96a3.36 3.36 0 00-.96 2.49c0 1.02.32 1.85.96 2.5.65.65 1.48.97 2.5.97zm6.93 0c1 0 1.83-.32 2.48-.97.65-.65.97-1.48.97-2.5 0-1-.32-1.84-.97-2.48a3.38 3.38 0 00-2.48-.97c-1.03 0-1.86.32-2.5.96a3.36 3.36 0 00-.97 2.49c0 1.02.32 1.85.97 2.5.64.65 1.47.97 2.5.97zm6.92 0c1 0 1.83-.32 2.48-.97.65-.65.97-1.48.97-2.5 0-1-.32-1.84-.97-2.48a3.38 3.38 0 00-2.48-.97c-1.03 0-1.86.32-2.5.96a3.36 3.36 0 00-.97 2.49c0 1.02.32 1.85.97 2.5.64.65 1.47.97 2.5.97zM3.47-13.84c1 0 1.83-.32 2.48-.97.65-.65.97-1.48.97-2.5 0-1.01-.32-1.84-.97-2.49a3.38 3.38 0 00-2.48-.97c-1.02 0-1.86.33-2.5.97A3.36 3.36 0 000-17.3c0 1.02.32 1.85.97 2.5.64.65 1.48.97 2.5.97zm6.92 0c1 0 1.84-.32 2.48-.97.65-.65.97-1.48.97-2.5 0-1.01-.32-1.84-.96-2.49a3.38 3.38 0 00-2.49-.97c-1.02 0-1.85.33-2.5.97a3.36 3.36 0 00-.97 2.49c0 1.02.32 1.85.97 2.5.65.65 1.48.97 2.5.97zm6.92 0c1.01 0 1.84-.32 2.49-.97.64-.65.97-1.48.97-2.5 0-1.01-.33-1.84-.97-2.49a3.38 3.38 0 00-2.49-.97c-1.02 0-1.85.33-2.5.97a3.36 3.36 0 00-.97 2.49c0 1.02.32 1.85.97 2.5.65.65 1.48.97 2.5.97zm6.92 0c1.01 0 1.84-.32 2.49-.97.64-.65.97-1.48.97-2.5 0-1.01-.33-1.84-.97-2.49a3.38 3.38 0 00-2.49-.97c-1.02 0-1.85.33-2.5.97a3.36 3.36 0 00-.96 2.49c0 1.02.32 1.85.96 2.5.65.65 1.48.97 2.5.97zm6.93 0c1 0 1.83-.32 2.48-.97.65-.65.97-1.48.97-2.5 0-1.01-.32-1.84-.97-2.49a3.38 3.38 0 00-2.48-.97c-1.03 0-1.86.33-2.5.97a3.36 3.36 0 00-.97 2.49c0 1.02.32 1.85.97 2.5.64.65 1.47.97 2.5.97zm6.92 0c1 0 1.83-.32 2.48-.97.65-.65.97-1.48.97-2.5 0-1.01-.32-1.84-.97-2.49a3.38 3.38 0 00-2.48-.97c-1.03 0-1.86.33-2.5.97a3.36 3.36 0 00-.97 2.49c0 1.02.32 1.85.97 2.5.64.65 1.47.97 2.5.97zm6.92 0c1 0 1.84-.32 2.48-.97.65-.65.97-1.48.97-2.5 0-1.01-.32-1.84-.97-2.49a3.38 3.38 0 00-2.48-.97c-1.02 0-1.86.33-2.5.97a3.36 3.36 0 00-.97 2.49c0 1.02.32 1.85.97 2.5.64.65 1.48.97 2.5.97zM3.47-20.77c1 0 1.83-.32 2.48-.96.65-.65.97-1.48.97-2.5 0-1.01-.32-1.84-.97-2.49a3.38 3.38 0 00-2.48-.97c-1.02 0-1.86.33-2.5.97A3.36 3.36 0 000-24.23c0 1.02.32 1.85.97 2.5.64.64 1.48.96 2.5.96zm6.92 0c1 0 1.84-.32 2.48-.96.65-.65.97-1.48.97-2.5 0-1.01-.32-1.84-.96-2.49a3.38 3.38 0 00-2.49-.97c-1.02 0-1.85.33-2.5.97a3.36 3.36 0 00-.97 2.49c0 1.02.32 1.85.97 2.5.65.64 1.48.96 2.5.96zm6.92 0c1.01 0 1.84-.32 2.49-.96.64-.65.97-1.48.97-2.5 0-1.01-.33-1.84-.97-2.49a3.38 3.38 0 00-2.49-.97c-1.02 0-1.85.33-2.5.97a3.36 3.36 0 00-.97 2.49c0 1.02.32 1.85.97 2.5.65.64 1.48.96 2.5.96zm6.92 0c1.01 0 1.84-.32 2.49-.96.64-.65.97-1.48.97-2.5 0-1.01-.33-1.84-.97-2.49a3.38 3.38 0 00-2.49-.97c-1.02 0-1.85.33-2.5.97a3.36 3.36 0 00-.96 2.49c0 1.02.32 1.85.96 2.5.65.64 1.48.96 2.5.96zm6.93 0c1 0 1.83-.32 2.48-.96.65-.65.97-1.48.97-2.5 0-1.01-.32-1.84-.97-2.49a3.38 3.38 0 00-2.48-.97c-1.03 0-1.86.33-2.5.97a3.36 3.36 0 00-.97 2.49c0 1.02.32 1.85.97 2.5.64.64 1.47.96 2.5.96zm6.92 0c1 0 1.83-.32 2.48-.96.65-.65.97-1.48.97-2.5 0-1.01-.32-1.84-.97-2.49a3.38 3.38 0 00-2.48-.97c-1.03 0-1.86.33-2.5.97a3.36 3.36 0 00-.97 2.49c0 1.02.32 1.85.97 2.5.64.64 1.47.96 2.5.96zm6.92 0c1 0 1.84-.32 2.48-.96.65-.65.97-1.48.97-2.5 0-1.01-.32-1.84-.97-2.49a3.38 3.38 0 00-2.48-.97c-1.02 0-1.86.33-2.5.97a3.36 3.36 0 00-.97 2.49c0 1.02.32 1.85.97 2.5.64.64 1.48.96 2.5.96zM3.47-27.69c1 0 1.83-.32 2.48-.97.65-.64.97-1.47.97-2.5 0-1-.32-1.83-.97-2.48a3.38 3.38 0 00-2.48-.97c-1.02 0-1.86.32-2.5.97A3.36 3.36 0 000-31.16c0 1.03.32 1.86.97 2.5.64.65 1.48.97 2.5.97zm6.92 0c1 0 1.84-.32 2.48-.97.65-.64.97-1.47.97-2.5 0-1-.32-1.83-.96-2.48a3.38 3.38 0 00-2.49-.97c-1.02 0-1.85.32-2.5.97a3.36 3.36 0 00-.97 2.48c0 1.03.32 1.86.97 2.5.65.65 1.48.97 2.5.97zm6.92 0c1.01 0 1.84-.32 2.49-.97.64-.64.97-1.47.97-2.5 0-1-.33-1.83-.97-2.48a3.38 3.38 0 00-2.49-.97c-1.02 0-1.85.32-2.5.97a3.36 3.36 0 00-.97 2.48c0 1.03.32 1.86.97 2.5.65.65 1.48.97 2.5.97zm6.92 0c1.01 0 1.84-.32 2.49-.97.64-.64.97-1.47.97-2.5 0-1-.33-1.83-.97-2.48a3.38 3.38 0 00-2.49-.97c-1.02 0-1.85.32-2.5.97a3.36 3.36 0 00-.96 2.48c0 1.03.32 1.86.96 2.5.65.65 1.48.97 2.5.97zm6.93 0c1 0 1.83-.32 2.48-.97.65-.64.97-1.47.97-2.5 0-1-.32-1.83-.97-2.48a3.38 3.38 0 00-2.48-.97c-1.03 0-1.86.32-2.5.97a3.36 3.36 0 00-.97 2.48c0 1.03.32 1.86.97 2.5.64.65 1.47.97 2.5.97zm6.92 0c1 0 1.83-.32 2.48-.97.65-.64.97-1.47.97-2.5 0-1-.32-1.83-.97-2.48a3.38 3.38 0 00-2.48-.97c-1.03 0-1.86.32-2.5.97a3.36 3.36 0 00-.97 2.48c0 1.03.32 1.86.97 2.5.64.65 1.47.97 2.5.97zm6.92 0c1 0 1.84-.32 2.48-.97.65-.64.97-1.47.97-2.5 0-1-.32-1.83-.97-2.48a3.38 3.38 0 00-2.48-.97c-1.02 0-1.86.32-2.5.97a3.36 3.36 0 00-.97 2.48c0 1.03.32 1.86.97 2.5.64.65 1.48.97 2.5.97zM10.4-34.6c1 0 1.83-.32 2.47-.97.65-.64.97-1.47.97-2.5 0-1-.32-1.83-.96-2.48a3.38 3.38 0 00-2.49-.97c-1.02 0-1.85.32-2.5.97a3.36 3.36 0 00-.97 2.48c0 1.03.32 1.86.97 2.5.65.65 1.48.97 2.5.97zm6.91 0c1.01 0 1.84-.32 2.49-.97.64-.64.97-1.47.97-2.5 0-1-.33-1.83-.97-2.48a3.38 3.38 0 00-2.49-.97c-1.02 0-1.85.32-2.5.97a3.36 3.36 0 00-.97 2.48c0 1.03.32 1.86.97 2.5.65.65 1.48.97 2.5.97zm6.92 0c1.01 0 1.84-.32 2.49-.97.64-.64.97-1.47.97-2.5 0-1-.33-1.83-.97-2.48a3.38 3.38 0 00-2.49-.97c-1.02 0-1.85.32-2.5.97a3.36 3.36 0 00-.96 2.48c0 1.03.32 1.86.96 2.5.65.65 1.48.97 2.5.97zm6.93 0c1 0 1.83-.32 2.48-.97.65-.64.97-1.47.97-2.5 0-1-.32-1.83-.97-2.48a3.38 3.38 0 00-2.48-.97c-1.03 0-1.86.32-2.5.97a3.36 3.36 0 00-.97 2.48c0 1.03.32 1.86.97 2.5.64.65 1.47.97 2.5.97zm6.92 0c1 0 1.83-.32 2.48-.97.65-.64.97-1.47.97-2.5 0-1-.32-1.83-.97-2.48a3.38 3.38 0 00-2.48-.97c-1.03 0-1.86.32-2.5.97a3.36 3.36 0 00-.97 2.48c0 1.03.32 1.86.97 2.5.64.65 1.47.97 2.5.97zm-13.85-6.92c1.01 0 1.84-.32 2.49-.97.64-.64.97-1.48.97-2.5 0-1-.33-1.84-.97-2.48a3.38 3.38 0 00-2.49-.97c-1.02 0-1.85.32-2.5.97a3.36 3.36 0 00-.96 2.48c0 1.02.32 1.86.96 2.5.65.65 1.48.97 2.5.97zm0 0"/></symbol><symbol overflow="visible" id="686d3aefe"><path d="M3.47-3.47zm0-6.92zm0-6.92zm0-6.92zm0-6.93zm0-6.92zm0-6.92zm6.92 41.53zm0-41.53zm6.92 41.53zm0-41.53zM31.16-3.47zm0-41.53zm6.92 41.53zm0-41.53zM45-3.47zm0-6.92zm0-6.92zm0-6.92zm0-6.93zm0-6.92zM45-45zM24.23 0c1.01 0 1.84-.32 2.49-.97.64-.64.97-1.48.97-2.5 0-1-.33-1.83-.97-2.48a3.38 3.38 0 00-2.49-.97c-1.02 0-1.85.32-2.5.97a3.36 3.36 0 00-.96 2.48c0 1.02.32 1.86.96 2.5.65.65 1.48.97 2.5.97zM10.4-6.92c1 0 1.84-.32 2.48-.97.65-.65.97-1.48.97-2.5 0-1-.32-1.84-.96-2.48a3.38 3.38 0 00-2.49-.97c-1.02 0-1.85.32-2.5.96a3.36 3.36 0 00-.97 2.49c0 1.02.32 1.85.97 2.5.65.65 1.48.97 2.5.97zm6.92 0c1.01 0 1.84-.32 2.49-.97.64-.65.97-1.48.97-2.5 0-1-.33-1.84-.97-2.48a3.38 3.38 0 00-2.49-.97c-1.02 0-1.85.32-2.5.96a3.36 3.36 0 00-.97 2.49c0 1.02.32 1.85.97 2.5.65.65 1.48.97 2.5.97zm6.92 0c1.01 0 1.84-.32 2.49-.97.64-.65.97-1.48.97-2.5 0-1-.33-1.84-.97-2.48a3.38 3.38 0 00-2.49-.97c-1.02 0-1.85.32-2.5.96a3.36 3.36 0 00-.96 2.49c0 1.02.32 1.85.96 2.5.65.65 1.48.97 2.5.97zm6.93 0c1 0 1.83-.32 2.48-.97.65-.65.97-1.48.97-2.5 0-1-.32-1.84-.97-2.48a3.38 3.38 0 00-2.48-.97c-1.03 0-1.86.32-2.5.96a3.36 3.36 0 00-.97 2.49c0 1.02.32 1.85.97 2.5.64.65 1.47.97 2.5.97zm6.92 0c1 0 1.83-.32 2.48-.97.65-.65.97-1.48.97-2.5 0-1-.32-1.84-.97-2.48a3.38 3.38 0 00-2.48-.97c-1.03 0-1.86.32-2.5.96a3.36 3.36 0 00-.97 2.49c0 1.02.32 1.85.97 2.5.64.65 1.47.97 2.5.97zm-27.69-6.92c1 0 1.84-.32 2.48-.97.65-.65.97-1.48.97-2.5 0-1.01-.32-1.84-.96-2.49a3.38 3.38 0 00-2.49-.97c-1.02 0-1.85.33-2.5.97a3.36 3.36 0 00-.97 2.49c0 1.02.32 1.85.97 2.5.65.65 1.48.97 2.5.97zm6.92 0c1.01 0 1.84-.32 2.49-.97.64-.65.97-1.48.97-2.5 0-1.01-.33-1.84-.97-2.49a3.38 3.38 0 00-2.49-.97c-1.02 0-1.85.33-2.5.97a3.36 3.36 0 00-.97 2.49c0 1.02.32 1.85.97 2.5.65.65 1.48.97 2.5.97zm6.92 0c1.01 0 1.84-.32 2.49-.97.64-.65.97-1.48.97-2.5 0-1.01-.33-1.84-.97-2.49a3.38 3.38 0 00-2.49-.97c-1.02 0-1.85.33-2.5.97a3.36 3.36 0 00-.96 2.49c0 1.02.32 1.85.96 2.5.65.65 1.48.97 2.5.97zm6.93 0c1 0 1.83-.32 2.48-.97.65-.65.97-1.48.97-2.5 0-1.01-.32-1.84-.97-2.49a3.38 3.38 0 00-2.48-.97c-1.03 0-1.86.33-2.5.97a3.36 3.36 0 00-.97 2.49c0 1.02.32 1.85.97 2.5.64.65 1.47.97 2.5.97zm6.92 0c1 0 1.83-.32 2.48-.97.65-.65.97-1.48.97-2.5 0-1.01-.32-1.84-.97-2.49a3.38 3.38 0 00-2.48-.97c-1.03 0-1.86.33-2.5.97a3.36 3.36 0 00-.97 2.49c0 1.02.32 1.85.97 2.5.64.65 1.47.97 2.5.97zm-27.69-6.93c1 0 1.84-.32 2.48-.96.65-.65.97-1.48.97-2.5 0-1.01-.32-1.84-.96-2.49a3.38 3.38 0 00-2.49-.97c-1.02 0-1.85.33-2.5.97a3.36 3.36 0 00-.97 2.49c0 1.02.32 1.85.97 2.5.65.64 1.48.96 2.5.96zm6.92 0c1.01 0 1.84-.32 2.49-.96.64-.65.97-1.48.97-2.5 0-1.01-.33-1.84-.97-2.49a3.38 3.38 0 00-2.49-.97c-1.02 0-1.85.33-2.5.97a3.36 3.36 0 00-.97 2.49c0 1.02.32 1.85.97 2.5.65.64 1.48.96 2.5.96zm6.92 0c1.01 0 1.84-.32 2.49-.96.64-.65.97-1.48.97-2.5 0-1.01-.33-1.84-.97-2.49a3.38 3.38 0 00-2.49-.97c-1.02 0-1.85.33-2.5.97a3.36 3.36 0 00-.96 2.49c0 1.02.32 1.85.96 2.5.65.64 1.48.96 2.5.96zm6.93 0c1 0 1.83-.32 2.48-.96.65-.65.97-1.48.97-2.5 0-1.01-.32-1.84-.97-2.49a3.38 3.38 0 00-2.48-.97c-1.03 0-1.86.33-2.5.97a3.36 3.36 0 00-.97 2.49c0 1.02.32 1.85.97 2.5.64.64 1.47.96 2.5.96zm6.92 0c1 0 1.83-.32 2.48-.96.65-.65.97-1.48.97-2.5 0-1.01-.32-1.84-.97-2.49a3.38 3.38 0 00-2.48-.97c-1.03 0-1.86.33-2.5.97a3.36 3.36 0 00-.97 2.49c0 1.02.32 1.85.97 2.5.64.64 1.47.96 2.5.96zm-27.69-6.92c1 0 1.84-.32 2.48-.97.65-.64.97-1.47.97-2.5 0-1-.32-1.83-.96-2.48a3.38 3.38 0 00-2.49-.97c-1.02 0-1.85.32-2.5.97a3.36 3.36 0 00-.97 2.48c0 1.03.32 1.86.97 2.5.65.65 1.48.97 2.5.97zm6.92 0c1.01 0 1.84-.32 2.49-.97.64-.64.97-1.47.97-2.5 0-1-.33-1.83-.97-2.48a3.38 3.38 0 00-2.49-.97c-1.02 0-1.85.32-2.5.97a3.36 3.36 0 00-.97 2.48c0 1.03.32 1.86.97 2.5.65.65 1.48.97 2.5.97zm6.92 0c1.01 0 1.84-.32 2.49-.97.64-.64.97-1.47.97-2.5 0-1-.33-1.83-.97-2.48a3.38 3.38 0 00-2.49-.97c-1.02 0-1.85.32-2.5.97a3.36 3.36 0 00-.96 2.48c0 1.03.32 1.86.96 2.5.65.65 1.48.97 2.5.97zm6.93 0c1 0 1.83-.32 2.48-.97.65-.64.97-1.47.97-2.5 0-1-.32-1.83-.97-2.48a3.38 3.38 0 00-2.48-.97c-1.03 0-1.86.32-2.5.97a3.36 3.36 0 00-.97 2.48c0 1.03.32 1.86.97 2.5.64.65 1.47.97 2.5.97zm6.92 0c1 0 1.83-.32 2.48-.97.65-.64.97-1.47.97-2.5 0-1-.32-1.83-.97-2.48a3.38 3.38 0 00-2.48-.97c-1.03 0-1.86.32-2.5.97a3.36 3.36 0 00-.97 2.48c0 1.03.32 1.86.97 2.5.64.65 1.47.97 2.5.97zM10.39-34.6c1 0 1.84-.32 2.48-.97.65-.64.97-1.47.97-2.5 0-1-.32-1.83-.96-2.48a3.38 3.38 0 00-2.49-.97c-1.02 0-1.85.32-2.5.97a3.36 3.36 0 00-.97 2.48c0 1.03.32 1.86.97 2.5.65.65 1.48.97 2.5.97zm6.92 0c1.01 0 1.84-.32 2.49-.97.64-.64.97-1.47.97-2.5 0-1-.33-1.83-.97-2.48a3.38 3.38 0 00-2.49-.97c-1.02 0-1.85.32-2.5.97a3.36 3.36 0 00-.97 2.48c0 1.03.32 1.86.97 2.5.65.65 1.48.97 2.5.97zm6.92 0c1.01 0 1.84-.32 2.49-.97.64-.64.97-1.47.97-2.5 0-1-.33-1.83-.97-2.48a3.38 3.38 0 00-2.49-.97c-1.02 0-1.85.32-2.5.97a3.36 3.36 0 00-.96 2.48c0 1.03.32 1.86.96 2.5.65.65 1.48.97 2.5.97zm6.93 0c1 0 1.83-.32 2.48-.97.65-.64.97-1.47.97-2.5 0-1-.32-1.83-.97-2.48a3.38 3.38 0 00-2.48-.97c-1.03 0-1.86.32-2.5.97a3.36 3.36 0 00-.97 2.48c0 1.03.32 1.86.97 2.5.64.65 1.47.97 2.5.97zm6.92 0c1 0 1.83-.32 2.48-.97.65-.64.97-1.47.97-2.5 0-1-.32-1.83-.97-2.48a3.38 3.38 0 00-2.48-.97c-1.03 0-1.86.32-2.5.97a3.36 3.36 0 00-.97 2.48c0 1.03.32 1.86.97 2.5.64.65 1.47.97 2.5.97zm-13.85-6.92c1.01 0 1.84-.32 2.49-.97.64-.64.97-1.48.97-2.5 0-1-.33-1.84-.97-2.48a3.38 3.38 0 00-2.49-.97c-1.02 0-1.85.32-2.5.97a3.36 3.36 0 00-.96 2.48c0 1.02.32 1.86.96 2.5.65.65 1.48.97 2.5.97zm0 0"/></symbol><symbol overflow="visible" id="686d3aeff"><path d="M3.47-3.47zm0-6.92zm0-6.92zm0-6.92zm0-6.93zm0-6.92zm0-6.92zm6.92 41.53zm0-6.92zm0-27.69zm0-6.92zm6.92 41.53zm0-41.53zm6.92 41.53zm0-41.53zm6.93 41.53zm0-41.53zm6.92 41.53zm0-6.92zm0-27.69zm0-6.92zM45-3.47zm0-6.92zm0-6.92zm0-6.92zm0-6.93zm0-6.92zM45-45zM17.31-6.92c1.01 0 1.84-.32 2.49-.97.64-.65.97-1.48.97-2.5 0-1-.33-1.84-.97-2.48a3.38 3.38 0 00-2.49-.97c-1.02 0-1.85.32-2.5.96a3.36 3.36 0 00-.97 2.49c0 1.02.32 1.85.97 2.5.65.65 1.48.97 2.5.97zm6.92 0c1.01 0 1.84-.32 2.49-.97.64-.65.97-1.48.97-2.5 0-1-.33-1.84-.97-2.48a3.38 3.38 0 00-2.49-.97c-1.02 0-1.85.32-2.5.96a3.36 3.36 0 00-.96 2.49c0 1.02.32 1.85.96 2.5.65.65 1.48.97 2.5.97zm6.93 0c1 0 1.83-.32 2.48-.97.65-.65.97-1.48.97-2.5 0-1-.32-1.84-.97-2.48a3.38 3.38 0 00-2.48-.97c-1.03 0-1.86.32-2.5.96a3.36 3.36 0 00-.97 2.49c0 1.02.32 1.85.97 2.5.64.65 1.47.97 2.5.97zm-20.77-6.92c1 0 1.84-.32 2.48-.97.65-.65.97-1.48.97-2.5 0-1.01-.32-1.84-.96-2.49a3.38 3.38 0 00-2.49-.97c-1.02 0-1.85.33-2.5.97a3.36 3.36 0 00-.97 2.49c0 1.02.32 1.85.97 2.5.65.65 1.48.97 2.5.97zm6.92 0c1.01 0 1.84-.32 2.49-.97.64-.65.97-1.48.97-2.5 0-1.01-.33-1.84-.97-2.49a3.38 3.38 0 00-2.49-.97c-1.02 0-1.85.33-2.5.97a3.36 3.36 0 00-.97 2.49c0 1.02.32 1.85.97 2.5.65.65 1.48.97 2.5.97zm6.92 0c1.01 0 1.84-.32 2.49-.97.64-.65.97-1.48.97-2.5 0-1.01-.33-1.84-.97-2.49a3.38 3.38 0 00-2.49-.97c-1.02 0-1.85.33-2.5.97a3.36 3.36 0 00-.96 2.49c0 1.02.32 1.85.96 2.5.65.65 1.48.97 2.5.97zm6.93 0c1 0 1.83-.32 2.48-.97.65-.65.97-1.48.97-2.5 0-1.01-.32-1.84-.97-2.49a3.38 3.38 0 00-2.48-.97c-1.03 0-1.86.33-2.5.97a3.36 3.36 0 00-.97 2.49c0 1.02.32 1.85.97 2.5.64.65 1.47.97 2.5.97zm6.92 0c1 0 1.83-.32 2.48-.97.65-.65.97-1.48.97-2.5 0-1.01-.32-1.84-.97-2.49a3.38 3.38 0 00-2.48-.97c-1.03 0-1.86.33-2.5.97a3.36 3.36 0 00-.97 2.49c0 1.02.32 1.85.97 2.5.64.65 1.47.97 2.5.97zm-27.69-6.93c1 0 1.84-.32 2.48-.96.65-.65.97-1.48.97-2.5 0-1.01-.32-1.84-.96-2.49a3.38 3.38 0 00-2.49-.97c-1.02 0-1.85.33-2.5.97a3.36 3.36 0 00-.97 2.49c0 1.02.32 1.85.97 2.5.65.64 1.48.96 2.5.96zm6.92 0c1.01 0 1.84-.32 2.49-.96.64-.65.97-1.48.97-2.5 0-1.01-.33-1.84-.97-2.49a3.38 3.38 0 00-2.49-.97c-1.02 0-1.85.33-2.5.97a3.36 3.36 0 00-.97 2.49c0 1.02.32 1.85.97 2.5.65.64 1.48.96 2.5.96zm6.92 0c1.01 0 1.84-.32 2.49-.96.64-.65.97-1.48.97-2.5 0-1.01-.33-1.84-.97-2.49a3.38 3.38 0 00-2.49-.97c-1.02 0-1.85.33-2.5.97a3.36 3.36 0 00-.96 2.49c0 1.02.32 1.85.96 2.5.65.64 1.48.96 2.5.96zm6.93 0c1 0 1.83-.32 2.48-.96.65-.65.97-1.48.97-2.5 0-1.01-.32-1.84-.97-2.49a3.38 3.38 0 00-2.48-.97c-1.03 0-1.86.33-2.5.97a3.36 3.36 0 00-.97 2.49c0 1.02.32 1.85.97 2.5.64.64 1.47.96 2.5.96zm6.92 0c1 0 1.83-.32 2.48-.96.65-.65.97-1.48.97-2.5 0-1.01-.32-1.84-.97-2.49a3.38 3.38 0 00-2.48-.97c-1.03 0-1.86.33-2.5.97a3.36 3.36 0 00-.97 2.49c0 1.02.32 1.85.97 2.5.64.64 1.47.96 2.5.96zm-27.69-6.92c1 0 1.84-.32 2.48-.97.65-.64.97-1.47.97-2.5 0-1-.32-1.83-.96-2.48a3.38 3.38 0 00-2.49-.97c-1.02 0-1.85.32-2.5.97a3.36 3.36 0 00-.97 2.48c0 1.03.32 1.86.97 2.5.65.65 1.48.97 2.5.97zm6.92 0c1.01 0 1.84-.32 2.49-.97.64-.64.97-1.47.97-2.5 0-1-.33-1.83-.97-2.48a3.38 3.38 0 00-2.49-.97c-1.02 0-1.85.32-2.5.97a3.36 3.36 0 00-.97 2.48c0 1.03.32 1.86.97 2.5.65.65 1.48.97 2.5.97zm6.92 0c1.01 0 1.84-.32 2.49-.97.64-.64.97-1.47.97-2.5 0-1-.33-1.83-.97-2.48a3.38 3.38 0 00-2.49-.97c-1.02 0-1.85.32-2.5.97a3.36 3.36 0 00-.96 2.48c0 1.03.32 1.86.96 2.5.65.65 1.48.97 2.5.97zm6.93 0c1 0 1.83-.32 2.48-.97.65-.64.97-1.47.97-2.5 0-1-.32-1.83-.97-2.48a3.38 3.38 0 00-2.48-.97c-1.03 0-1.86.32-2.5.97a3.36 3.36 0 00-.97 2.48c0 1.03.32 1.86.97 2.5.64.65 1.47.97 2.5.97zm6.92 0c1 0 1.83-.32 2.48-.97.65-.64.97-1.47.97-2.5 0-1-.32-1.83-.97-2.48a3.38 3.38 0 00-2.48-.97c-1.03 0-1.86.32-2.5.97a3.36 3.36 0 00-.97 2.48c0 1.03.32 1.86.97 2.5.64.65 1.47.97 2.5.97zM17.3-34.6c1.01 0 1.84-.32 2.49-.97.64-.64.97-1.47.97-2.5 0-1-.33-1.83-.97-2.48a3.38 3.38 0 00-2.49-.97c-1.02 0-1.85.32-2.5.97a3.36 3.36 0 00-.97 2.48c0 1.03.32 1.86.97 2.5.65.65 1.48.97 2.5.97zm6.92 0c1.01 0 1.84-.32 2.49-.97.64-.64.97-1.47.97-2.5 0-1-.33-1.83-.97-2.48a3.38 3.38 0 00-2.49-.97c-1.02 0-1.85.32-2.5.97a3.36 3.36 0 00-.96 2.48c0 1.03.32 1.86.96 2.5.65.65 1.48.97 2.5.97zm6.93 0c1 0 1.83-.32 2.48-.97.65-.64.97-1.47.97-2.5 0-1-.32-1.83-.97-2.48a3.38 3.38 0 00-2.48-.97c-1.03 0-1.86.32-2.5.97a3.36 3.36 0 00-.97 2.48c0 1.03.32 1.86.97 2.5.64.65 1.47.97 2.5.97zm0 0"/></symbol><symbol overflow="visible" id="686d3aefg"><path d="M3.47-3.47zm0-6.92zm0-6.92zm0-6.92zm0-6.93zm0-6.92zm0-6.92zm6.92 41.53zm0-6.92zm0-27.69zm0-6.92zm6.92 41.53zm0-6.92zm0-27.69zm0-6.92zm6.92 41.53zm0-20.76zm0-20.77zm6.93 41.53zm0-6.92zm0-27.69zm0-6.92zm6.92 41.53zm0-6.92zm0-27.69zm0-6.92zM45-3.47zm0-6.92zm0-6.92zm0-6.92zm0-6.93zm0-6.92zM45-45zM24.23-6.92c1.01 0 1.84-.32 2.49-.97.64-.65.97-1.48.97-2.5 0-1-.33-1.84-.97-2.48a3.38 3.38 0 00-2.49-.97c-1.02 0-1.85.32-2.5.96a3.36 3.36 0 00-.96 2.49c0 1.02.32 1.85.96 2.5.65.65 1.48.97 2.5.97zM10.4-13.84c1 0 1.84-.32 2.48-.97.65-.65.97-1.48.97-2.5 0-1.01-.32-1.84-.96-2.49a3.38 3.38 0 00-2.49-.97c-1.02 0-1.85.33-2.5.97a3.36 3.36 0 00-.97 2.49c0 1.02.32 1.85.97 2.5.65.65 1.48.97 2.5.97zm6.92 0c1.01 0 1.84-.32 2.49-.97.64-.65.97-1.48.97-2.5 0-1.01-.33-1.84-.97-2.49a3.38 3.38 0 00-2.49-.97c-1.02 0-1.85.33-2.5.97a3.36 3.36 0 00-.97 2.49c0 1.02.32 1.85.97 2.5.65.65 1.48.97 2.5.97zm6.92 0c1.01 0 1.84-.32 2.49-.97.64-.65.97-1.48.97-2.5 0-1.01-.33-1.84-.97-2.49a3.38 3.38 0 00-2.49-.97c-1.02 0-1.85.33-2.5.97a3.36 3.36 0 00-.96 2.49c0 1.02.32 1.85.96 2.5.65.65 1.48.97 2.5.97zm6.93 0c1 0 1.83-.32 2.48-.97.65-.65.97-1.48.97-2.5 0-1.01-.32-1.84-.97-2.49a3.38 3.38 0 00-2.48-.97c-1.03 0-1.86.33-2.5.97a3.36 3.36 0 00-.97 2.49c0 1.02.32 1.85.97 2.5.64.65 1.47.97 2.5.97zm6.92 0c1 0 1.83-.32 2.48-.97.65-.65.97-1.48.97-2.5 0-1.01-.32-1.84-.97-2.49a3.38 3.38 0 00-2.48-.97c-1.03 0-1.86.33-2.5.97a3.36 3.36 0 00-.97 2.49c0 1.02.32 1.85.97 2.5.64.65 1.47.97 2.5.97zm-27.69-6.93c1 0 1.84-.32 2.48-.96.65-.65.97-1.48.97-2.5 0-1.01-.32-1.84-.96-2.49a3.38 3.38 0 00-2.49-.97c-1.02 0-1.85.33-2.5.97a3.36 3.36 0 00-.97 2.49c0 1.02.32 1.85.97 2.5.65.64 1.48.96 2.5.96zm6.92 0c1.01 0 1.84-.32 2.49-.96.64-.65.97-1.48.97-2.5 0-1.01-.33-1.84-.97-2.49a3.38 3.38 0 00-2.49-.97c-1.02 0-1.85.33-2.5.97a3.36 3.36 0 00-.97 2.49c0 1.02.32 1.85.97 2.5.65.64 1.48.96 2.5.96zm13.85 0c1 0 1.83-.32 2.48-.96.65-.65.97-1.48.97-2.5 0-1.01-.32-1.84-.97-2.49a3.38 3.38 0 00-2.48-.97c-1.03 0-1.86.33-2.5.97a3.36 3.36 0 00-.97 2.49c0 1.02.32 1.85.97 2.5.64.64 1.47.96 2.5.96zm6.92 0c1 0 1.83-.32 2.48-.96.65-.65.97-1.48.97-2.5 0-1.01-.32-1.84-.97-2.49a3.38 3.38 0 00-2.48-.97c-1.03 0-1.86.33-2.5.97a3.36 3.36 0 00-.97 2.49c0 1.02.32 1.85.97 2.5.64.64 1.47.96 2.5.96zm-27.69-6.92c1 0 1.84-.32 2.48-.97.65-.64.97-1.47.97-2.5 0-1-.32-1.83-.96-2.48a3.38 3.38 0 00-2.49-.97c-1.02 0-1.85.32-2.5.97a3.36 3.36 0 00-.97 2.48c0 1.03.32 1.86.97 2.5.65.65 1.48.97 2.5.97zm6.92 0c1.01 0 1.84-.32 2.49-.97.64-.64.97-1.47.97-2.5 0-1-.33-1.83-.97-2.48a3.38 3.38 0 00-2.49-.97c-1.02 0-1.85.32-2.5.97a3.36 3.36 0 00-.97 2.48c0 1.03.32 1.86.97 2.5.65.65 1.48.97 2.5.97zm6.92 0c1.01 0 1.84-.32 2.49-.97.64-.64.97-1.47.97-2.5 0-1-.33-1.83-.97-2.48a3.38 3.38 0 00-2.49-.97c-1.02 0-1.85.32-2.5.97a3.36 3.36 0 00-.96 2.48c0 1.03.32 1.86.96 2.5.65.65 1.48.97 2.5.97zm6.93 0c1 0 1.83-.32 2.48-.97.65-.64.97-1.47.97-2.5 0-1-.32-1.83-.97-2.48a3.38 3.38 0 00-2.48-.97c-1.03 0-1.86.32-2.5.97a3.36 3.36 0 00-.97 2.48c0 1.03.32 1.86.97 2.5.64.65 1.47.97 2.5.97zm6.92 0c1 0 1.83-.32 2.48-.97.65-.64.97-1.47.97-2.5 0-1-.32-1.83-.97-2.48a3.38 3.38 0 00-2.48-.97c-1.03 0-1.86.32-2.5.97a3.36 3.36 0 00-.97 2.48c0 1.03.32 1.86.97 2.5.64.65 1.47.97 2.5.97zM24.23-34.6c1.01 0 1.84-.32 2.49-.97.64-.64.97-1.47.97-2.5 0-1-.33-1.83-.97-2.48a3.38 3.38 0 00-2.49-.97c-1.02 0-1.85.32-2.5.97a3.36 3.36 0 00-.96 2.48c0 1.03.32 1.86.96 2.5.65.65 1.48.97 2.5.97zm0 0"/></symbol><symbol overflow="visible" id="686d3aefh"><path d="M3.47-3.47zm0-6.92zm0-6.92zm0-6.92zm0-6.93zm0-6.92zm0-6.92zm6.92 41.53zm0-6.92zm0-6.92zm0-6.92zm0-6.93zm0-6.92zm0-6.92zm6.92 41.53zm0-6.92zm0-27.69zm0-6.92zm6.92 41.53zm0-20.76zm0-20.77zm6.93 41.53zm0-6.92zm0-27.69zm0-6.92zm6.92 41.53zm0-6.92zm0-6.92zm0-6.92zm0-6.93zm0-6.92zm0-6.92zM45-3.47zm0-6.92zm0-6.92zm0-6.92zm0-6.93zm0-6.92zM45-45zM24.23-6.92c1.01 0 1.84-.32 2.49-.97.64-.65.97-1.48.97-2.5 0-1-.33-1.84-.97-2.48a3.38 3.38 0 00-2.49-.97c-1.02 0-1.85.32-2.5.96a3.36 3.36 0 00-.96 2.49c0 1.02.32 1.85.96 2.5.65.65 1.48.97 2.5.97zm-6.92-6.92c1.01 0 1.84-.32 2.49-.97.64-.65.97-1.48.97-2.5 0-1.01-.33-1.84-.97-2.49a3.38 3.38 0 00-2.49-.97c-1.02 0-1.85.33-2.5.97a3.36 3.36 0 00-.97 2.49c0 1.02.32 1.85.97 2.5.65.65 1.48.97 2.5.97zm6.92 0c1.01 0 1.84-.32 2.49-.97.64-.65.97-1.48.97-2.5 0-1.01-.33-1.84-.97-2.49a3.38 3.38 0 00-2.49-.97c-1.02 0-1.85.33-2.5.97a3.36 3.36 0 00-.96 2.49c0 1.02.32 1.85.96 2.5.65.65 1.48.97 2.5.97zm6.93 0c1 0 1.83-.32 2.48-.97.65-.65.97-1.48.97-2.5 0-1.01-.32-1.84-.97-2.49a3.38 3.38 0 00-2.48-.97c-1.03 0-1.86.33-2.5.97a3.36 3.36 0 00-.97 2.49c0 1.02.32 1.85.97 2.5.64.65 1.47.97 2.5.97zM17.3-20.77c1.01 0 1.84-.32 2.49-.96.64-.65.97-1.48.97-2.5 0-1.01-.33-1.84-.97-2.49a3.38 3.38 0 00-2.49-.97c-1.02 0-1.85.33-2.5.97a3.36 3.36 0 00-.97 2.49c0 1.02.32 1.85.97 2.5.65.64 1.48.96 2.5.96zm13.85 0c1 0 1.83-.32 2.48-.96.65-.65.97-1.48.97-2.5 0-1.01-.32-1.84-.97-2.49a3.38 3.38 0 00-2.48-.97c-1.03 0-1.86.33-2.5.97a3.36 3.36 0 00-.97 2.49c0 1.02.32 1.85.97 2.5.64.64 1.47.96 2.5.96zM17.3-27.69c1.01 0 1.84-.32 2.49-.97.64-.64.97-1.47.97-2.5 0-1-.33-1.83-.97-2.48a3.38 3.38 0 00-2.49-.97c-1.02 0-1.85.32-2.5.97a3.36 3.36 0 00-.97 2.48c0 1.03.32 1.86.97 2.5.65.65 1.48.97 2.5.97zm6.92 0c1.01 0 1.84-.32 2.49-.97.64-.64.97-1.47.97-2.5 0-1-.33-1.83-.97-2.48a3.38 3.38 0 00-2.49-.97c-1.02 0-1.85.32-2.5.97a3.36 3.36 0 00-.96 2.48c0 1.03.32 1.86.96 2.5.65.65 1.48.97 2.5.97zm6.93 0c1 0 1.83-.32 2.48-.97.65-.64.97-1.47.97-2.5 0-1-.32-1.83-.97-2.48a3.38 3.38 0 00-2.48-.97c-1.03 0-1.86.32-2.5.97a3.36 3.36 0 00-.97 2.48c0 1.03.32 1.86.97 2.5.64.65 1.47.97 2.5.97zm-6.93-6.92c1.01 0 1.84-.32 2.49-.97.64-.64.97-1.47.97-2.5 0-1-.33-1.83-.97-2.48a3.38 3.38 0 00-2.49-.97c-1.02 0-1.85.32-2.5.97a3.36 3.36 0 00-.96 2.48c0 1.03.32 1.86.96 2.5.65.65 1.48.97 2.5.97zm0 0"/></symbol><symbol overflow="visible" id="686d3aefi"><path d="M3.47-3.47zm0-6.92zm0-6.92zm0-6.92zm0-6.93zm0-6.92zm0-6.92zm6.92 41.53zm0-6.92zm0-6.92zm0-6.92zm0-6.93zm0-6.92zm0-6.92zm6.92 41.53zm0-6.92zm0-6.92zm0-13.85zm0-6.92zm0-6.92zm6.92 41.53zm0-6.92zm0-27.69zm0-6.92zm6.93 41.53zm0-6.92zm0-6.92zm0-13.85zm0-6.92zm0-6.92zm6.92 41.53zm0-6.92zm0-6.92zm0-6.92zm0-6.93zm0-6.92zm0-6.92zM45-3.47zm0-6.92zm0-6.92zm0-6.92zm0-6.93zm0-6.92zM45-45zM24.23-13.84c1.01 0 1.84-.32 2.49-.97.64-.65.97-1.48.97-2.5 0-1.01-.33-1.84-.97-2.49a3.38 3.38 0 00-2.49-.97c-1.02 0-1.85.33-2.5.97a3.36 3.36 0 00-.96 2.49c0 1.02.32 1.85.96 2.5.65.65 1.48.97 2.5.97zm-6.92-6.93c1.01 0 1.84-.32 2.49-.96.64-.65.97-1.48.97-2.5 0-1.01-.33-1.84-.97-2.49a3.38 3.38 0 00-2.49-.97c-1.02 0-1.85.33-2.5.97a3.36 3.36 0 00-.97 2.49c0 1.02.32 1.85.97 2.5.65.64 1.48.96 2.5.96zm6.92 0c1.01 0 1.84-.32 2.49-.96.64-.65.97-1.48.97-2.5 0-1.01-.33-1.84-.97-2.49a3.38 3.38 0 00-2.49-.97c-1.02 0-1.85.33-2.5.97a3.36 3.36 0 00-.96 2.49c0 1.02.32 1.85.96 2.5.65.64 1.48.96 2.5.96zm6.93 0c1 0 1.83-.32 2.48-.96.65-.65.97-1.48.97-2.5 0-1.01-.32-1.84-.97-2.49a3.38 3.38 0 00-2.48-.97c-1.03 0-1.86.33-2.5.97a3.36 3.36 0 00-.97 2.49c0 1.02.32 1.85.97 2.5.64.64 1.47.96 2.5.96zm-6.93-6.92c1.01 0 1.84-.32 2.49-.97.64-.64.97-1.47.97-2.5 0-1-.33-1.83-.97-2.48a3.38 3.38 0 00-2.49-.97c-1.02 0-1.85.32-2.5.97a3.36 3.36 0 00-.96 2.48c0 1.03.32 1.86.96 2.5.65.65 1.48.97 2.5.97zm0 0"/></symbol><symbol overflow="visible" id="686d3aefj"><path d="M.47 2.3zm0-.92zm0-.93zm0-.92zm0-.92zm0-.92zm0-.92zm0-.93zm0-.92zm0-.92zm0-.94zm0-.92zm0-.92zM1.39 2.3zm0-.92zm0-.93zm0-.92zm0-.92zm0-.92zm0-.92zm0-.93zm0-.92zm0-1.86zm0-.92zm0-.92zM2.31 2.3zm0-.92zm0-.93zm0-.92zm0-.92zm0-.92zm0-.92zm0-.93zm0-.92zm0-1.86zm0-.92zm0-.92zM3.23 2.3zm0-.92zm0-.93zm0-7.39zm0-.92zm0-.92zM4.16 2.3zm0-.92zm0-.93zm0-.92zm0-.92zm0-.92zm0-.92zm0-.93zm0-.92zm0-1.86zm0-.92zm0-.92zM5.08 2.3zm0-.92zm0-.93zm0-.92zm0-.92zm0-.92zm0-.92zm0-.93zm0-.92zm0-1.86zm0-.92zm0-.92zM6 2.3zm0-.92zm0-.93zm0-.92zm0-.92zm0-.92zm0-.92zm0-.93zm0-.92zM6-6zm0-.94zm0-.92zm0-.92zM3.69 0v-.45-.47H2.77V0H3.69zm0-.92v-.45-.47H2.77V-.92H3.69zm0-.92v-.46-.47H2.77V-1.84H3.69zm0-.93v-.45-.47H2.77V-2.77H3.69zm0-.92v-.45-.47H2.77V-3.69H3.69zm0-.92v-.45-.47H2.77V-4.61H3.69zm-1.85-.92v-.45-.47H.92V-5.53H1.84zm.93 0v-.45-.47H1.85V-5.53H2.76zm.92 0v-.45-.47H2.77V-5.53H3.69zm.92 0v-.45-.47H3.69V-5.53H4.6zm.92 0v-.45-.47H4.61V-5.53H5.53zm0 0"/></symbol><symbol overflow="visible" id="686d3aefk"><path d="M.47 2.3zm0-.92zm0-.93zm0-.92zm0-.92zm0-.92zm0-.92zm0-.93zm0-.92zm0-.92zm0-.94zm0-.92zm0-.92zM1.39 2.3zm0-.92zm0-.93zm0-.92zm0-3.69zm0-.92zm0-.92zm0-.94zm0-.92zm0-.92zM2.31 2.3zm0-.92zm0-.93zm0-1.84zm0-1.84zm0-1.85zm0-.92zm0-.94zm0-.92zm0-.92zM3.23 2.3zm0-.92zm0-.93zm0-1.84zm0-1.84zm0-1.85zm0-.92zm0-.94zm0-.92zm0-.92zM4.16 2.3zm0-.92zm0-.93zm0-1.84zm0-1.84zm0-1.85zm0-.92zm0-.94zm0-.92zm0-.92zM5.08 2.3zm0-.92zm0-.93zm0-1.84zm0-2.77zm0-.92zm0-.92zm0-.94zm0-.92zm0-.92zM6 2.3zm0-.92zm0-.93zm0-.92zm0-.92zm0-.92zm0-.92zm0-.93zm0-.92zM6-6zm0-.94zm0-.92zm0-.92zM2.77 0v-.45-.47H1.85V0H2.76zm.92 0v-.45-.47H2.77V0H3.69zm.92 0v-.45-.47H3.69V0H4.6zm.92 0v-.45-.47H4.61V0H5.53zM1.84-.92v-.45-.47H.92V-.92H1.84zm0-.92v-.46-.47H.92V-1.84H1.84zm.93 0v-.46-.47H1.85V-1.84H2.76zm.92 0v-.46-.47H2.77V-1.84H3.69zm.92 0v-.46-.47H3.69V-1.84H4.6zm.92 0v-.46-.47H4.61V-1.84H5.53zm-3.69-.93v-.45-.47H.92V-2.77H1.84zm3.7 0v-.45-.47H4.6V-2.77H5.53zm-2.77-.92v-.45-.47H1.85V-3.69H2.76zm.92 0v-.45-.47H2.77V-3.69H3.69zm.92 0v-.45-.47H3.69V-3.69H4.6zm0 0"/></symbol><symbol overflow="visible" id="686d3aefl"><path d="M.47 2.3zm0-.92zm0-.93zm0-.92zm0-.92zm0-.92zm0-.92zm0-.93zm0-.92zm0-.92zm0-.94zm0-.92zm0-.92zM1.39 2.3zm0-.92zm0-.93zm0-1.84zm0-.92zm0-.92zm0-1.85zm0-.92zm0-.94zm0-.92zm0-.92zM2.31 2.3zm0-.92zm0-.93zm0-.92zm0-1.84zm0-1.85zm0-.92zm0-.92zm0-.94zm0-.92zm0-.92zM3.23 2.3zm0-.92zm0-.93zm0-.92zm0-.92zm0-1.84zm0-.93zm0-.92zm0-.92zm0-.94zm0-.92zm0-.92zM4.16 2.3zm0-.92zm0-.93zm0-.92zm0-1.84zm0-1.85zm0-.92zm0-.92zm0-.94zm0-.92zm0-.92zM5.08 2.3zm0-.92zm0-.93zm0-1.84zm0-.92zm0-.92zm0-1.85zm0-.92zm0-.94zm0-.92zm0-.92zM6 2.3zm0-.92zm0-.93zm0-.92zm0-.92zm0-.92zm0-.92zm0-.93zm0-.92zM6-6zm0-.94zm0-.92zm0-.92zM1.84 0v-.45-.47H.92V0H1.84zm3.7 0v-.45-.47H4.6V0H5.53zM2.76-.92v-.45-.47H1.85V-.92H2.76zm1.84 0v-.45-.47H3.69V-.92H4.6zm-.92-.92v-.46-.47H2.77V-1.84H3.69zm-.92-.93v-.45-.47H1.85V-2.77H2.76zm1.84 0v-.45-.47H3.69V-2.77H4.6zm-2.77-.92v-.45-.47H.92V-3.69H1.84zm3.7 0v-.45-.47H4.6V-3.69H5.53zm0 0"/></symbol><symbol overflow="visible" id="686d3aefm"><path d="M.47 2.3zm0-.92zm0-.93zm0-.92zm0-.92zm0-.92zm0-.92zm0-.93zm0-.92zm0-.92zm0-.94zm0-.92zm0-.92zM1.39 2.3zm0-.92zm0-.93zm0-.92zm0-.92zm0-.92zm0-.92zm0-1.85zm0-.92zm0-.94zm0-.92zm0-.92zM2.31 2.3zm0-.92zm0-.93zm0-.92zm0-6.47zm0-.92zm0-.92zM3.23 2.3zm0-.92zm0-.93zm0-1.84zm0-.92zm0-.92zm0-1.85zm0-.92zm0-.94zm0-.92zm0-.92zM4.16 2.3zm0-.92zm0-.93zm0-1.84zm0-.92zm0-.92zm0-1.85zm0-.92zm0-.94zm0-.92zm0-.92zM5.08 2.3zm0-.92zm0-.93zm0-.92zm0-1.84zm0-.92zm0-1.85zm0-.92zm0-.94zm0-.92zm0-.92zM6 2.3zm0-.92zm0-.93zm0-.92zm0-.92zm0-.92zm0-.92zm0-.93zm0-.92zM6-6zm0-.94zm0-.92zm0-.92zM3.69 0v-.45-.47H2.77V0H3.69zm.92 0v-.45-.47H3.69V0H4.6zM2.77-.92v-.45-.47H1.85V-.92H2.76zm2.76 0v-.45-.47H4.61V-.92H5.53zm-2.76-.92v-.46-.47H1.85V-1.84H2.76zm0-.93v-.45-.47H1.85V-2.77H2.76zm-.93-.92v-.45-.47H.92V-3.69H1.84zm.93 0v-.45-.47H1.85V-3.69H2.76zm.92 0v-.45-.47H2.77V-3.69H3.69zm.92 0v-.45-.47H3.69V-3.69H4.6zm.92 0v-.45-.47H4.61V-3.69H5.53zM2.77-4.6v-.45-.47H1.85V-4.61H2.76zm0-.92v-.45-.47H1.85V-5.53H2.76zm0 0"/></symbol><symbol overflow="visible" id="686d3aefn"><path d="M.47 2.3zm0-.92zm0-.93zm0-.92zm0-.92zm0-.92zm0-.92zm0-.93zm0-.92zm0-.92zm0-.94zm0-.92zm0-.92zM1.39 2.3zm0-.92zm0-.93zm0-.92zm0-.92zm0-.92zm0-.92zm0-.93zm0-.92zm0-.92zm0-.94zm0-.92zm0-.92zM2.31 2.3zm0-.92zm0-.93zm0-.92zm0-.92zm0-.92zm0-.92zm0-.93zm0-.92zm0-.92zm0-.94zm0-.92zm0-.92zM3.23 2.3zm0-.92zm0-.93zm0-2.76zm0-2.77zm0-.92zm0-.94zm0-.92zm0-.92zM4.16 2.3zm0-.92zm0-.93zm0-.92zm0-.92zm0-.92zm0-.92zm0-.93zm0-.92zm0-.92zm0-.94zm0-.92zm0-.92zM5.08 2.3zm0-.92zm0-.93zm0-.92zm0-.92zm0-.92zm0-.92zm0-.93zm0-.92zm0-.92zm0-.94zm0-.92zm0-.92zM6 2.3zm0-.92zm0-.93zm0-.92zm0-.92zm0-.92zm0-.92zm0-.93zm0-.92zM6-6zm0-.94zm0-.92zm0-.92zM3.69 0v-.45-.47H2.77V0H3.69zm0-.92v-.45-.47H2.77V-.92H3.69zm0-1.85v-.45-.47H2.77V-2.77H3.69zm0-.92v-.45-.47H2.77V-3.69H3.69zm0 0"/></symbol><symbol overflow="visible" id="686d3aefo"><path d="M.47 2.3zm0-.92zm0-.93zm0-.92zm0-.92zm0-.92zm0-.92zm0-.93zm0-.92zm0-.92zm0-.94zm0-.92zm0-.92zM1.39 2.3zm0-.92zm0-.93zm0-.92zm0-.92zm0-.92zm0-.92zm0-.93zm0-.92zm0-.92zm0-.94zm0-.92zm0-.92zM2.31 2.3zm0-.92zm0-.93zm0-.92zm0-.92zm0-.92zm0-.92zm0-.93zm0-.92zm0-.92zm0-.94zm0-.92zm0-.92zM3.23 2.3zm0-.92zm0-.93zm0-.92zm0-.92zm0-.92zm0-.92zm0-.93zm0-.92zm0-.92zm0-.94zm0-.92zm0-.92zM4.16 2.3zm0-.92zm0-.93zm0-.92zm0-.92zm0-.92zm0-.92zm0-.93zm0-.92zm0-.92zm0-.94zm0-.92zm0-.92zM5.08 2.3zm0-.92zm0-.93zm0-.92zm0-.92zm0-.92zm0-.92zm0-.93zm0-.92zm0-.92zm0-.94zm0-.92zm0-.92zM6 2.3zm0-.92zm0-.93zm0-.92zm0-.92zm0-.92zm0-.92zm0-.93zm0-.92zM6-6zm0-.94zm0-.92zm0-.92zm0 0"/></symbol><symbol overflow="visible" id="686d3aefp"><path d="M.47 2.3zm0-.92zm0-.93zm0-.92zm0-.92zm0-.92zm0-.92zm0-.93zm0-.92zm0-.92zm0-.94zm0-.92zm0-.92zM1.39 2.3zm0-.92zm0-.93zm0-.92zM1.4-6zm0-.94zm0-.92zm0-.92zM2.31 2.3zm0-.92zm0-.93zm0-1.84zm0-.92zm0-.92zm0-.93zm0-.92zm0-1.86zm0-.92zm0-.92zM3.23 2.3zm0-.92zm0-.93zm0-1.84zm0-.92zm0-.92zm0-.93zm0-.92zm0-1.86zm0-.92zm0-.92zM4.16 2.3zm0-.92zm0-.93zm0-1.84zm0-.92zm0-.92zm0-.93zm0-.92zm0-1.86zm0-.92zm0-.92zM5.08 2.3zm0-.92zm0-.93zm0-.92zm0-5.53zm0-.94zm0-.92zm0-.92zM6 2.3zm0-.92zm0-.93zm0-.92zm0-.92zm0-.92zm0-.92zm0-.93zm0-.92zM6-6zm0-.94zm0-.92zm0-.92zM2.77 0v-.45-.47H1.85V0H2.76zm.92 0v-.45-.47H2.77V0H3.69zm.92 0v-.45-.47H3.69V0H4.6zM1.84-.92v-.45-.47H.92V-.92H1.84zm3.7 0v-.45-.47H4.6V-.92H5.53zm-3.7-.92v-.46-.47H.92V-1.84H1.84zm3.7 0v-.46-.47H4.6V-1.84H5.53zm-3.7-.93v-.45-.47H.92V-2.77H1.84zm3.7 0v-.45-.47H4.6V-2.77H5.53zm-3.7-.92v-.45-.47H.92V-3.69H1.84zm3.7 0v-.45-.47H4.6V-3.69H5.53zm-3.7-.92v-.45-.47H.92V-4.61H1.84zm3.7 0v-.45-.47H4.6V-4.61H5.53zm-2.77-.92v-.45-.47H1.85V-5.53H2.76zm.92 0v-.45-.47H2.77V-5.53H3.69zm.92 0v-.45-.47H3.69V-5.53H4.6zm0 0"/></symbol><symbol overflow="visible" id="686d3aefq"><path d="M.47 2.3zm0-.92zm0-.93zm0-.92zm0-.92zm0-.92zm0-.92zm0-.93zm0-.92zm0-.92zm0-.94zm0-.92zm0-.92zM1.39 2.3zm0-.92zm0-.93zm0-1.84zm0-.92zm0-.92zm0-.93zM1.4-6zm0-.94zm0-.92zm0-.92zM2.31 2.3zm0-.92zm0-.93zm0-1.84zm0-.92zm0-.92zm0-.93zm0-1.84zm0-.94zm0-.92zm0-.92zM3.23 2.3zm0-.92zm0-.93zm0-7.39zm0-.92zm0-.92zM4.16 2.3zm0-.92zm0-.93zm0-1.84zm0-.92zm0-.92zm0-.93zm0-.92zm0-.92zm0-.94zm0-.92zm0-.92zM5.08 2.3zm0-.92zm0-.93zm0-1.84zm0-.92zm0-.92zm0-.93zm0-.92zm0-.92zm0-.94zm0-.92zm0-.92zM6 2.3zm0-.92zm0-.93zm0-.92zm0-.92zm0-.92zm0-.92zm0-.93zm0-.92zM6-6zm0-.94zm0-.92zm0-.92zM1.84 0v-.45-.47H.92V0H1.84zm.93 0v-.45-.47H1.85V0H2.76zm.92 0v-.45-.47H2.77V0H3.69zm.92 0v-.45-.47H3.69V0H4.6zm.92 0v-.45-.47H4.61V0H5.53zM3.7-.92v-.45-.47H2.77V-.92H3.69zm0-.92v-.46-.47H2.77V-1.84H3.69zm0-.93v-.45-.47H2.77V-2.77H3.69zm0-.92v-.45-.47H2.77V-3.69H3.69zM1.84-4.6v-.45-.47H.92V-4.61H1.84zm.93 0v-.45-.47H1.85V-4.61H2.76zm.92 0v-.45-.47H2.77V-4.61H3.69zm0-.92v-.45-.47H2.77V-5.53H3.69zm0 0"/></symbol><symbol overflow="visible" id="686d3aefr"><path d="M.47 2.3zm0-.92zm0-.93zm0-.92zm0-.92zm0-.92zm0-.92zm0-.93zm0-.92zm0-.92zm0-.94zm0-.92zm0-.92zM1.39 2.3zm0-.92zm0-.93zm0-1.84zm0-.92zm0-.92zM1.4-6zm0-.94zm0-.92zm0-.92zM2.31 2.3zm0-.92zm0-.93zm0-2.76zm0-.92zm0-.93zm0-.92zm0-1.86zm0-.92zm0-.92zM3.23 2.3zm0-.92zm0-.93zm0-1.84zm0-1.84zm0-.93zm0-.92zm0-1.86zm0-.92zm0-.92zM4.16 2.3zm0-.92zm0-.93zm0-1.84zm0-.92zm0-1.85zm0-.92zm0-1.86zm0-.92zm0-.92zM5.08 2.3zm0-.92zm0-.93zm0-1.84zm0-.92zm0-.92zm0-2.77zm0-.94zm0-.92zm0-.92zM6 2.3zm0-.92zm0-.93zm0-.92zm0-.92zm0-.92zm0-.92zm0-.93zm0-.92zM6-6zm0-.94zm0-.92zm0-.92zM1.84 0v-.45-.47H.92V0H1.84zm.93 0v-.45-.47H1.85V0H2.76zm.92 0v-.45-.47H2.77V0H3.69zm.92 0v-.45-.47H3.69V0H4.6zm.92 0v-.45-.47H4.61V0H5.53zM2.77-.92v-.45-.47H1.85V-.92H2.76zm.92-.92v-.46-.47H2.77V-1.84H3.69zm.92-.93v-.45-.47H3.69V-2.77H4.6zm-2.77-.92v-.45-.47H.92V-3.69H1.84zm3.7 0v-.45-.47H4.6V-3.69H5.53zm-3.7-.92v-.45-.47H.92V-4.61H1.84zm3.7 0v-.45-.47H4.6V-4.61H5.53zm-2.77-.92v-.45-.47H1.85V-5.53H2.76zm.92 0v-.45-.47H2.77V-5.53H3.69zm.92 0v-.45-.47H3.69V-5.53H4.6zm0 0"/></symbol><symbol overflow="visible" id="686d3aefs"><path d="M.47 2.3zm0-.92zm0-.93zm0-.92zm0-.92zm0-.92zm0-.92zm0-.93zm0-.92zm0-.92zm0-.94zm0-.92zm0-.92zM1.39 2.3zm0-.92zm0-.93zm0-.92zm0-1.84zm0-.92zm0-.93zM1.4-6zm0-.94zm0-.92zm0-.92zM2.31 2.3zm0-.92zm0-.93zm0-1.84zm0-.92zm0-1.85zm0-.92zm0-1.86zm0-.92zm0-.92zM3.23 2.3zm0-.92zm0-.93zm0-1.84zm0-.92zm0-1.85zm0-.92zm0-1.86zm0-.92zm0-.92zM4.16 2.3zm0-.92zm0-.93zm0-1.84zm0-.92zm0-1.85zm0-.92zm0-1.86zm0-.92zm0-.92zM5.08 2.3zm0-.92zm0-.93zm0-.92zm0-2.76zm0-2.77zm0-.94zm0-.92zm0-.92zM6 2.3zm0-.92zm0-.93zm0-.92zm0-.92zm0-.92zm0-.92zm0-.93zm0-.92zM6-6zm0-.94zm0-.92zm0-.92zM2.77 0v-.45-.47H1.85V0H2.76zm.92 0v-.45-.47H2.77V0H3.69zm.92 0v-.45-.47H3.69V0H4.6zM1.84-.92v-.45-.47H.92V-.92H1.84zm3.7 0v-.45-.47H4.6V-.92H5.53zm0-.92v-.46-.47H4.6V-1.84H5.53zm-2.77-.93v-.45-.47H1.85V-2.77H2.76zm.92 0v-.45-.47H2.77V-2.77H3.69zm.92 0v-.45-.47H3.69V-2.77H4.6zm.92-.92v-.45-.47H4.61V-3.69H5.53zM1.84-4.6v-.45-.47H.92V-4.61H1.84zm3.7 0v-.45-.47H4.6V-4.61H5.53zm-2.77-.92v-.45-.47H1.85V-5.53H2.76zm.92 0v-.45-.47H2.77V-5.53H3.69zm.92 0v-.45-.47H3.69V-5.53H4.6zm0 0"/></symbol><symbol overflow="visible" id="686d3aeft"><path d="M.47 2.3zm0-.92zm0-.93zm0-.92zm0-.92zm0-.92zm0-.92zm0-.93zm0-.92zm0-.92zm0-.94zm0-.92zm0-.92zM1.39 2.3zm0-.92zm0-.93zm0-.92zm0-2.76zm0-.93zm0-.92zm0-.92zm0-.94zm0-.92zm0-.92zM2.31 2.3zm0-.92zm0-.93zm0-.92zm0-1.84zm0-2.77zm0-.92zm0-.94zm0-.92zm0-.92zM3.23 2.3zm0-.92zm0-.93zm0-.92zm0-1.84zm0-.92zm0-.93zm0-2.78zm0-.92zm0-.92zM4.16 2.3zm0-.92zm0-.93zm0-3.68zm0-.93zm0-.92zm0-.92zm0-.94zm0-.92zm0-.92zM5.08 2.3zm0-.92zm0-.93zm0-.92zm0-1.84zm0-.92zm0-.93zm0-.92zm0-.92zm0-.94zm0-.92zm0-.92zM6 2.3zm0-.92zm0-.93zm0-.92zm0-.92zm0-.92zm0-.92zm0-.93zm0-.92zM6-6zm0-.94zm0-.92zm0-.92zM4.6 0v-.45-.47H3.7V0H4.6zM1.85-.92v-.45-.47H.92V-.92H1.84zm.93 0v-.45-.47H1.85V-.92H2.76zm.92 0v-.45-.47H2.77V-.92H3.69zm.92 0v-.45-.47H3.69V-.92H4.6zm.92 0v-.45-.47H4.61V-.92H5.53zm-3.69-.92v-.46-.47H.92V-1.84H1.84zm2.77 0v-.46-.47H3.69V-1.84H4.6zm-1.84-.93v-.45-.47H1.85V-2.77H2.76zm0-.92v-.45-.47H1.85V-3.69H2.76zm.92-.92v-.45-.47H2.77V-4.61H3.69zm0-.92v-.45-.47H2.77V-5.53H3.69zm0 0"/></symbol><symbol overflow="visible" id="686d3aefu"><path d="M.47 2.3zm0-.92zm0-.93zm0-.92zm0-.92zm0-.92zm0-.92zm0-.93zm0-.92zm0-.92zm0-.94zm0-.92zm0-.92zM1.39 2.3zm0-.92zm0-.93zm0-.92zm0-1.84zm0-4.63zm0-.92zm0-.92zM2.31 2.3zm0-.92zm0-.93zm0-1.84zm0-.92zm0-1.85zm0-.92zm0-1.86zm0-.92zm0-.92zM3.23 2.3zm0-.92zm0-.93zm0-1.84zm0-.92zm0-1.85zm0-.92zm0-1.86zm0-.92zm0-.92zM4.16 2.3zm0-.92zm0-.93zm0-1.84zm0-.92zm0-1.85zm0-.92zm0-1.86zm0-.92zm0-.92zM5.08 2.3zm0-.92zm0-.93zm0-.92zm0-2.76zm0-.93zm0-.92zm0-1.86zm0-.92zm0-.92zM6 2.3zm0-.92zm0-.93zm0-.92zm0-.92zm0-.92zm0-.92zm0-.93zm0-.92zM6-6zm0-.94zm0-.92zm0-.92zM2.77 0v-.45-.47H1.85V0H2.76zm.92 0v-.45-.47H2.77V0H3.69zm.92 0v-.45-.47H3.69V0H4.6zM1.84-.92v-.45-.47H.92V-.92H1.84zm3.7 0v-.45-.47H4.6V-.92H5.53zm0-.92v-.46-.47H4.6V-1.84H5.53zm-3.7-.93v-.45-.47H.92V-2.77H1.84zm.93 0v-.45-.47H1.85V-2.77H2.76zm.92 0v-.45-.47H2.77V-2.77H3.69zm.92 0v-.45-.47H3.69V-2.77H4.6zm-2.77-.92v-.45-.47H.92V-3.69H1.84zm0-.92v-.45-.47H.92V-4.61H1.84zm0-.92v-.45-.47H.92V-5.53H1.84zm.93 0v-.45-.47H1.85V-5.53H2.76zm.92 0v-.45-.47H2.77V-5.53H3.69zm.92 0v-.45-.47H3.69V-5.53H4.6zm.92 0v-.45-.47H4.61V-5.53H5.53zm0 0"/></symbol><symbol overflow="visible" id="686d3aefv"><path d="M.47 2.3zm0-.92zm0-.93zm0-.92zm0-.92zm0-.92zm0-.92zm0-.93zm0-.92zm0-.92zm0-.94zm0-.92zm0-.92zM1.39 2.3zm0-.92zm0-.93zm0-.92zM1.4-6zm0-.94zm0-.92zm0-.92zM2.31 2.3zm0-.92zm0-.93zm0-1.84zm0-.92zm0-1.85zm0-.92zm0-1.86zm0-.92zm0-.92zM3.23 2.3zm0-.92zm0-.93zm0-1.84zm0-.92zm0-1.85zm0-.92zm0-1.86zm0-.92zm0-.92zM4.16 2.3zm0-.92zm0-.93zm0-1.84zm0-.92zm0-1.85zm0-.92zm0-1.86zm0-.92zm0-.92zM5.08 2.3zm0-.92zm0-.93zm0-.92zm0-2.76zm0-.93zm0-1.84zm0-.94zm0-.92zm0-.92zM6 2.3zm0-.92zm0-.93zm0-.92zm0-.92zm0-.92zm0-.92zm0-.93zm0-.92zM6-6zm0-.94zm0-.92zm0-.92zM2.77 0v-.45-.47H1.85V0H2.76zm.92 0v-.45-.47H2.77V0H3.69zm.92 0v-.45-.47H3.69V0H4.6zM1.84-.92v-.45-.47H.92V-.92H1.84zm3.7 0v-.45-.47H4.6V-.92H5.53zm-3.7-.92v-.46-.47H.92V-1.84H1.84zm3.7 0v-.46-.47H4.6V-1.84H5.53zm-3.7-.93v-.45-.47H.92V-2.77H1.84zm.93 0v-.45-.47H1.85V-2.77H2.76zm.92 0v-.45-.47H2.77V-2.77H3.69zm.92 0v-.45-.47H3.69V-2.77H4.6zm-2.77-.92v-.45-.47H.92V-3.69H1.84zm0-.92v-.45-.47H.92V-4.61H1.84zm3.7 0v-.45-.47H4.6V-4.61H5.53zm-2.77-.92v-.45-.47H1.85V-5.53H2.76zm.92 0v-.45-.47H2.77V-5.53H3.69zm.92 0v-.45-.47H3.69V-5.53H4.6zm0 0"/></symbol><symbol overflow="visible" id="686d3aefw"><path d="M.47 2.3zm0-.92zm0-.93zm0-.92zm0-.92zm0-.92zm0-.92zm0-.93zm0-.92zm0-.92zm0-.94zm0-.92zm0-.92zM1.39 2.3zm0-.92zm0-.93zm0-.92zm0-.92zm0-.92zm0-.92zm0-3.7zm0-.93zm0-.92zM2.31 2.3zm0-.92zm0-.93zm0-.92zm0-.92zm0-.92zm0-.92zm0-.93zm0-.92zm0-1.86zm0-.92zm0-.92zM3.23 2.3zm0-.92zm0-.93zm0-2.76zm0-.92zm0-.93zm0-.92zm0-1.86zm0-.92zm0-.92zM4.16 2.3zm0-.92zm0-.93zm0-.92zm0-.92zm0-2.77zm0-.92zm0-1.86zm0-.92zm0-.92zM5.08 2.3zm0-.92zm0-.93zm0-.92zm0-.92zm0-.92zm0-.92zm0-3.7zm0-.93zm0-.92zM6 2.3zm0-.92zm0-.93zm0-.92zm0-.92zm0-.92zm0-.92zm0-.93zm0-.92zM6-6zm0-.94zm0-.92zm0-.92zM3.69 0v-.45-.47H2.77V0H3.69zm0-.92v-.45-.47H2.77V-.92H3.69zm.92-.92v-.46-.47H3.69V-1.84H4.6zm0-.93v-.45-.47H3.69V-2.77H4.6zm-2.77-.92v-.45-.47H.92V-3.69H1.84zm3.7 0v-.45-.47H4.6V-3.69H5.53zm-3.7-.92v-.45-.47H.92V-4.61H1.84zm3.7 0v-.45-.47H4.6V-4.61H5.53zm-3.7-.92v-.45-.47H.92V-5.53H1.84zm.93 0v-.45-.47H1.85V-5.53H2.76zm.92 0v-.45-.47H2.77V-5.53H3.69zm.92 0v-.45-.47H3.69V-5.53H4.6zm.92 0v-.45-.47H4.61V-5.53H5.53zm0 0"/></symbol><symbol overflow="visible" id="686d3aefx"><path d="M.47 2.3zm0-.92zm0-.93zm0-.92zm0-.92zm0-.92zm0-.92zm0-.93zm0-.92zm0-.92zm0-.94zm0-.92zm0-.92zM1.39 2.3zm0-.92zm0-.93zm0-.92zm0-2.76zM1.4-6zm0-.94zm0-.92zm0-.92zM2.31 2.3zm0-.92zm0-.93zm0-1.84zm0-.92zm0-1.85zm0-.92zm0-1.86zm0-.92zm0-.92zM3.23 2.3zm0-.92zm0-.93zm0-1.84zm0-.92zm0-1.85zm0-.92zm0-1.86zm0-.92zm0-.92zM4.16 2.3zm0-.92zm0-.93zm0-1.84zm0-.92zm0-1.85zm0-.92zm0-1.86zm0-.92zm0-.92zM5.08 2.3zm0-.92zm0-.93zm0-.92zm0-2.76zm0-2.77zm0-.94zm0-.92zm0-.92zM6 2.3zm0-.92zm0-.93zm0-.92zm0-.92zm0-.92zm0-.92zm0-.93zm0-.92zM6-6zm0-.94zm0-.92zm0-.92zM2.77 0v-.45-.47H1.85V0H2.76zm.92 0v-.45-.47H2.77V0H3.69zm.92 0v-.45-.47H3.69V0H4.6zM1.84-.92v-.45-.47H.92V-.92H1.84zm3.7 0v-.45-.47H4.6V-.92H5.53zm-3.7-.92v-.46-.47H.92V-1.84H1.84zm3.7 0v-.46-.47H4.6V-1.84H5.53zm-2.77-.93v-.45-.47H1.85V-2.77H2.76zm.92 0v-.45-.47H2.77V-2.77H3.69zm.92 0v-.45-.47H3.69V-2.77H4.6zm-2.77-.92v-.45-.47H.92V-3.69H1.84zm3.7 0v-.45-.47H4.6V-3.69H5.53zm-3.7-.92v-.45-.47H.92V-4.61H1.84zm3.7 0v-.45-.47H4.6V-4.61H5.53zm-2.77-.92v-.45-.47H1.85V-5.53H2.76zm.92 0v-.45-.47H2.77V-5.53H3.69zm.92 0v-.45-.47H3.69V-5.53H4.6zm0 0"/></symbol><symbol overflow="visible" id="686d3aefy"><path d="M.47 2.3zm0-.92zm0-.93zm0-.92zm0-.92zm0-.92zm0-.92zm0-.93zm0-.92zm0-.92zm0-.94zm0-.92zm0-.92zM1.39 2.3zm0-.92zm0-.93zm0-7.39zm0-.92zm0-.92zM2.31 2.3zm0-.92zm0-.93zm0-.92zm0-.92zm0-.92zm0-1.85zm0-.92zm0-1.86zm0-.92zm0-.92zM3.23 2.3zm0-.92zm0-.93zm0-.92zm0-.92zm0-.92zm0-1.85zm0-.92zm0-1.86zm0-.92zm0-.92zM4.16 2.3zm0-.92zm0-.93zm0-.92zm0-.92zm0-.92zm0-1.85zm0-.92zm0-1.86zm0-.92zm0-.92zM5.08 2.3zm0-.92zm0-.93zm0-.92zm0-.92zm0-.92zm0-.92zm0-.93zm0-.92zm0-1.86zm0-.92zm0-.92zM6 2.3zm0-.92zm0-.93zm0-.92zm0-.92zm0-.92zm0-.92zm0-.93zm0-.92zM6-6zm0-.94zm0-.92zm0-.92zM1.84 0v-.45-.47H.92V0H1.84zm0-.92v-.45-.47H.92V-.92H1.84zm0-.92v-.46-.47H.92V-1.84H1.84zm0-.93v-.45-.47H.92V-2.77H1.84zm.93 0v-.45-.47H1.85V-2.77H2.76zm.92 0v-.45-.47H2.77V-2.77H3.69zm.92 0v-.45-.47H3.69V-2.77H4.6zm-2.77-.92v-.45-.47H.92V-3.69H1.84zm0-.92v-.45-.47H.92V-4.61H1.84zm0-.92v-.45-.47H.92V-5.53H1.84zm.93 0v-.45-.47H1.85V-5.53H2.76zm.92 0v-.45-.47H2.77V-5.53H3.69zm.92 0v-.45-.47H3.69V-5.53H4.6zm.92 0v-.45-.47H4.61V-5.53H5.53zm0 0"/></symbol><symbol overflow="visible" id="686d3aefz"><path d="M.47 2.3zm0-.92zm0-.93zm0-.92zm0-.92zm0-.92zm0-.92zm0-.93zm0-.92zm0-.92zm0-.94zm0-.92zm0-.92zM1.39 2.3zm0-.92zm0-.93zm0-.92zm0-1.84zm0-.92zm0-.93zm0-.92zm0-.92zm0-.94zm0-.92zm0-.92zM2.31 2.3zm0-.92zm0-.93zm0-1.84zm0-1.84zm0-1.85zm0-.92zm0-.94zm0-.92zm0-.92zM3.23 2.3zm0-.92zm0-.93zm0-1.84zm0-1.84zm0-1.85zm0-.92zm0-.94zm0-.92zm0-.92zM4.16 2.3zm0-.92zm0-.93zm0-1.84zm0-1.84zm0-1.85zm0-.92zm0-.94zm0-.92zm0-.92zM5.08 2.3zm0-.92zm0-.93zm0-.92zm0-3.69zm0-.92zm0-.92zm0-.94zm0-.92zm0-.92zM6 2.3zm0-.92zm0-.93zm0-.92zm0-.92zm0-.92zm0-.92zm0-.93zm0-.92zM6-6zm0-.94zm0-.92zm0-.92zM2.77 0v-.45-.47H1.85V0H2.76zm.92 0v-.45-.47H2.77V0H3.69zm.92 0v-.45-.47H3.69V0H4.6zM1.84-.92v-.45-.47H.92V-.92H1.84zm3.7 0v-.45-.47H4.6V-.92H5.53zm-2.77-.92v-.46-.47H1.85V-1.84H2.76zm.92 0v-.46-.47H2.77V-1.84H3.69zm.92 0v-.46-.47H3.69V-1.84H4.6zm.92 0v-.46-.47H4.61V-1.84H5.53zm0-.93v-.45-.47H4.61V-2.77H5.53zm-2.76-.92v-.45-.47H1.85V-3.69H2.76zm.92 0v-.45-.47H2.77V-3.69H3.69zm.92 0v-.45-.47H3.69V-3.69H4.6zm0 0"/></symbol><symbol overflow="visible" id="686d3aefA"><path d="M.47 2.3zm0-.92zm0-.93zm0-.92zm0-.92zm0-.92zm0-.92zm0-.93zm0-.92zm0-.92zm0-.94zm0-.92zm0-.92zM1.39 2.3zm0-.92zm0-.93zm0-.92zm0-4.6zm0-.93zm0-.94zm0-.92zm0-.92zM2.31 2.3zm0-.92zm0-.93zm0-1.84zm0-.92zm0-.92zm0-.93zm0-.92zm0-.92zm0-.94zm0-.92zm0-.92zM3.23 2.3zm0-.92zm0-.93zm0-1.84zm0-.92zm0-.92zm0-.93zm0-.92zm0-.92zm0-.94zm0-.92zm0-.92zM4.16 2.3zm0-.92zm0-.93zm0-1.84zm0-.92zm0-.92zm0-.93zm0-.92zm0-.92zm0-.94zm0-.92zm0-.92zM5.08 2.3zm0-.92zm0-.93zm0-.92zm0-4.6zm0-.93zm0-.94zm0-.92zm0-.92zM6 2.3zm0-.92zm0-.93zm0-.92zm0-.92zm0-.92zm0-.92zm0-.93zm0-.92zM6-6zm0-.94zm0-.92zm0-.92zM2.77 0v-.45-.47H1.85V0H2.76zm.92 0v-.45-.47H2.77V0H3.69zm.92 0v-.45-.47H3.69V0H4.6zM1.84-.92v-.45-.47H.92V-.92H1.84zm3.7 0v-.45-.47H4.6V-.92H5.53zm-3.7-.92v-.46-.47H.92V-1.84H1.84zm3.7 0v-.46-.47H4.6V-1.84H5.53zm-3.7-.93v-.45-.47H.92V-2.77H1.84zm3.7 0v-.45-.47H4.6V-2.77H5.53zm-3.7-.92v-.45-.47H.92V-3.69H1.84zm3.7 0v-.45-.47H4.6V-3.69H5.53zm0 0"/></symbol><symbol overflow="visible" id="686d3aefB"><path d="M.47 2.3zm0-.92zm0-.93zm0-.92zm0-.92zm0-.92zm0-.92zm0-.93zm0-.92zm0-.92zm0-.94zm0-.92zm0-.92zM1.39 2.3zm0-.92zm0-.93zm0-1.84zm0-.92zm0-.92zm0-1.85zm0-.92zm0-.94zm0-.92zm0-.92zM2.31 2.3zm0-.92zm0-.93zm0-5.53zm0-.92zm0-.94zm0-.92zm0-.92zM3.23 2.3zm0-.92zm0-.93zm0-1.84zm0-.92zm0-1.85zm0-.92zm0-.92zm0-.94zm0-.92zm0-.92zM4.16 2.3zm0-.92zm0-.93zm0-.92zm0-.92zm0-.92zm0-.92zm0-1.85zm0-.92zm0-.94zm0-.92zm0-.92zM5.08 2.3zm0-.92zm0-.93zm0-.92zm0-.92zm0-.92zm0-2.77zm0-.92zm0-.94zm0-.92zm0-.92zM6 2.3zm0-.92zm0-.93zm0-.92zm0-.92zm0-.92zm0-.92zm0-.93zm0-.92zM6-6zm0-.94zm0-.92zm0-.92zM1.84 0v-.45-.47H.92V0H1.84zm.93 0v-.45-.47H1.85V0H2.76zm.92 0v-.45-.47H2.77V0H3.69zm-.92-.92v-.45-.47H1.85V-.92H2.76zm0-.92v-.46-.47H1.85V-1.84H2.76zm0-.93v-.45-.47H1.85V-2.77H2.76zm.92 0v-.45-.47H2.77V-2.77H3.69zm1.84 0v-.45-.47H4.61V-2.77H5.53zm-3.69-.92v-.45-.47H.92V-3.69H1.84zm.93 0v-.45-.47H1.85V-3.69H2.76zm1.84 0v-.45-.47H3.69V-3.69H4.6zm.92 0v-.45-.47H4.61V-3.69H5.53zm0 0"/></symbol><symbol overflow="visible" id="686d3aefC"><path d="M.47 2.3zm0-.92zm0-.93zm0-.92zm0-.92zm0-.92zm0-.92zm0-.93zm0-.92zm0-.92zm0-.94zm0-.92zm0-.92zM1.39 2.3zm0-.92zm0-.93zm0-7.39zm0-.92zm0-.92zM2.31 2.3zm0-.92zm0-.93zm0-1.84zm0-.92zm0-1.85zm0-.92zm0-1.86zm0-.92zm0-.92zM3.23 2.3zm0-.92zm0-.93zm0-1.84zm0-.92zm0-1.85zm0-.92zm0-1.86zm0-.92zm0-.92zM4.16 2.3zm0-.92zm0-.93zm0-1.84zm0-.92zm0-1.85zm0-.92zm0-1.86zm0-.92zm0-.92zM5.08 2.3zm0-.92zm0-.93zm0-1.84zm0-.92zm0-.92zm0-.93zm0-.92zm0-1.86zm0-.92zm0-.92zM6 2.3zm0-.92zm0-.93zm0-.92zm0-.92zm0-.92zm0-.92zm0-.93zm0-.92zM6-6zm0-.94zm0-.92zm0-.92zM1.84 0v-.45-.47H.92V0H1.84zm.93 0v-.45-.47H1.85V0H2.76zm.92 0v-.45-.47H2.77V0H3.69zm.92 0v-.45-.47H3.69V0H4.6zm.92 0v-.45-.47H4.61V0H5.53zM1.84-.92v-.45-.47H.92V-.92H1.84zm0-.92v-.46-.47H.92V-1.84H1.84zm0-.93v-.45-.47H.92V-2.77H1.84zm.93 0v-.45-.47H1.85V-2.77H2.76zm.92 0v-.45-.47H2.77V-2.77H3.69zm.92 0v-.45-.47H3.69V-2.77H4.6zm-2.77-.92v-.45-.47H.92V-3.69H1.84zm0-.92v-.45-.47H.92V-4.61H1.84zm0-.92v-.45-.47H.92V-5.53H1.84zm.93 0v-.45-.47H1.85V-5.53H2.76zm.92 0v-.45-.47H2.77V-5.53H3.69zm.92 0v-.45-.47H3.69V-5.53H4.6zm.92 0v-.45-.47H4.61V-5.53H5.53zm0 0"/></symbol><symbol overflow="visible" id="686d3aefD"><path d="M.47 2.3zm0-.92zm0-.93zm0-.92zm0-.92zm0-.92zm0-.92zm0-.93zm0-.92zm0-.92zm0-.94zm0-.92zm0-.92zM1.39 2.3zm0-.92zm0-.93zm0-1.84zm0-.92zm0-.92zm0-.93zm0-.92zm0-1.86zm0-.92zm0-.92zM2.31 2.3zm0-.92zm0-.93zm0-1.84zm0-.92zm0-.92zm0-.93zm0-.92zm0-1.86zm0-.92zm0-.92zM3.23 2.3zm0-.92zm0-.93zm0-7.39zm0-.92zm0-.92zM4.16 2.3zm0-.92zm0-.93zm0-1.84zm0-.92zm0-.92zm0-.93zm0-.92zm0-.92zm0-.94zm0-.92zm0-.92zM5.08 2.3zm0-.92zm0-.93zm0-1.84zm0-.92zm0-.92zm0-.93zm0-.92zm0-.92zm0-.94zm0-.92zm0-.92zM6 2.3zm0-.92zm0-.93zm0-.92zm0-.92zm0-.92zm0-.92zm0-.93zm0-.92zM6-6zm0-.94zm0-.92zm0-.92zM1.84 0v-.45-.47H.92V0H1.84zm.93 0v-.45-.47H1.85V0H2.76zm.92 0v-.45-.47H2.77V0H3.69zm.92 0v-.45-.47H3.69V0H4.6zm.92 0v-.45-.47H4.61V0H5.53zM3.7-.92v-.45-.47H2.77V-.92H3.69zm0-.92v-.46-.47H2.77V-1.84H3.69zm0-.93v-.45-.47H2.77V-2.77H3.69zm0-.92v-.45-.47H2.77V-3.69H3.69zm0-.92v-.45-.47H2.77V-4.61H3.69zm-1.85-.92v-.45-.47H.92V-5.53H1.84zm.93 0v-.45-.47H1.85V-5.53H2.76zm.92 0v-.45-.47H2.77V-5.53H3.69zm0 0"/></symbol><symbol overflow="visible" id="686d3aefE"><path d="M.47 2.3zm0-.92zm0-.93zm0-.92zm0-.92zm0-.92zm0-.92zm0-.93zm0-.92zm0-.92zm0-.94zm0-.92zm0-.92zM1.39 2.3zm0-.92zm0-.93zm0-4.6zm0-.93zm0-.92zm0-.94zm0-.92zm0-.92zM2.31 2.3zm0-.92zm0-.93zm0-.92zm0-.92zm0-.92zm0-.92zm0-1.85zm0-.92zm0-.94zm0-.92zm0-.92zM3.23 2.3zm0-.92zm0-.93zm0-.92zm0-.92zm0-2.77zm0-.92zm0-.92zm0-.94zm0-.92zm0-.92zM4.16 2.3zm0-.92zm0-.93zm0-.92zm0-.92zm0-.92zm0-.92zm0-1.85zm0-.92zm0-.94zm0-.92zm0-.92zM5.08 2.3zm0-.92zm0-.93zm0-4.6zm0-.93zm0-.92zm0-.94zm0-.92zm0-.92zM6 2.3zm0-.92zm0-.93zm0-.92zm0-.92zm0-.92zm0-.92zm0-.93zm0-.92zM6-6zm0-.94zm0-.92zm0-.92zM1.84 0v-.45-.47H.92V0H1.84zm3.7 0v-.45-.47H4.6V0H5.53zm-3.7-.92v-.45-.47H.92V-.92H1.84zm3.7 0v-.45-.47H4.6V-.92H5.53zm-3.7-.92v-.46-.47H.92V-1.84H1.84zm1.85 0v-.46-.47H2.77V-1.84H3.69zm1.84 0v-.46-.47H4.61V-1.84H5.53zm-3.69-.93v-.45-.47H.92V-2.77H1.84zm1.85 0v-.45-.47H2.77V-2.77H3.69zm1.84 0v-.45-.47H4.61V-2.77H5.53zm-2.76-.92v-.45-.47H1.85V-3.69H2.76zm1.84 0v-.45-.47H3.69V-3.69H4.6zm0 0"/></symbol><symbol overflow="visible" id="686d3aefF"><path d="M.47 2.3zm0-.92zm0-.93zm0-.92zm0-.92zm0-.92zm0-.92zm0-.93zm0-.92zm0-.92zm0-.94zm0-.92zm0-.92zM1.39 2.3zm0-.92zm0-.93zm0-4.6zm0-.93zm0-.92zm0-.94zm0-.92zm0-.92zM2.31 2.3zm0-.92zm0-.93zm0-.92zm0-.92zm0-.92zm0-.92zm0-1.85zm0-.92zm0-.94zm0-.92zm0-.92zM3.23 2.3zm0-.92zm0-.93zm0-.92zm0-.92zm0-.92zm0-.92zm0-1.85zm0-.92zm0-.94zm0-.92zm0-.92zM4.16 2.3zm0-.92zm0-.93zm0-.92zm0-.92zm0-.92zm0-.92zm0-1.85zm0-.92zm0-.94zm0-.92zm0-.92zM5.08 2.3zm0-.92zm0-.93zm0-4.6zm0-.93zm0-.92zm0-.94zm0-.92zm0-.92zM6 2.3zm0-.92zm0-.93zm0-.92zm0-.92zm0-.92zm0-.92zm0-.93zm0-.92zM6-6zm0-.94zm0-.92zm0-.92zM1.84 0v-.45-.47H.92V0H1.84zm3.7 0v-.45-.47H4.6V0H5.53zm-3.7-.92v-.45-.47H.92V-.92H1.84zm3.7 0v-.45-.47H4.6V-.92H5.53zm-3.7-.92v-.46-.47H.92V-1.84H1.84zm3.7 0v-.46-.47H4.6V-1.84H5.53zm-3.7-.93v-.45-.47H.92V-2.77H1.84zm3.7 0v-.45-.47H4.6V-2.77H5.53zm-2.77-.92v-.45-.47H1.85V-3.69H2.76zm.92 0v-.45-.47H2.77V-3.69H3.69zm.92 0v-.45-.47H3.69V-3.69H4.6zm0 0"/></symbol><symbol overflow="visible" id="686d3aefG"><path d="M.47 2.3zm0-.92zm0-.93zm0-.92zm0-.92zm0-.92zm0-.92zm0-.93zm0-.92zm0-.92zm0-.94zm0-.92zm0-.92zM1.39 2.3zm0-.92zm0-.93zm0-1.84zm0-.92zm0-1.85zm0-.92zm0-.92zm0-.94zm0-.92zm0-.92zM2.31 2.3zm0-.92zm0-.93zm0-1.84zm0-1.84zm0-1.85zm0-.92zm0-.94zm0-.92zm0-.92zM3.23 2.3zm0-.92zm0-.93zm0-1.84zm0-1.84zm0-1.85zm0-.92zm0-.94zm0-.92zm0-.92zM4.16 2.3zm0-.92zm0-.93zm0-1.84zm0-1.84zm0-1.85zm0-.92zm0-.94zm0-.92zm0-.92zM5.08 2.3zm0-.92zm0-.93zm0-.92zm0-2.76zm0-1.85zm0-.92zm0-.94zm0-.92zm0-.92zM6 2.3zm0-.92zm0-.93zm0-.92zm0-.92zm0-.92zm0-.92zm0-.93zm0-.92zM6-6zm0-.94zm0-.92zm0-.92zM1.84 0v-.45-.47H.92V0H1.84zm.93 0v-.45-.47H1.85V0H2.76zm.92 0v-.45-.47H2.77V0H3.69zm.92 0v-.45-.47H3.69V0H4.6zm.92-.92v-.45-.47H4.61V-.92H5.53zm-2.76-.92v-.46-.47H1.85V-1.84H2.76zm.92 0v-.46-.47H2.77V-1.84H3.69zm.92 0v-.46-.47H3.69V-1.84H4.6zm.92 0v-.46-.47H4.61V-1.84H5.53zm-3.69-.93v-.45-.47H.92V-2.77H1.84zm.93-.92v-.45-.47H1.85V-3.69H2.76zm.92 0v-.45-.47H2.77V-3.69H3.69zm.92 0v-.45-.47H3.69V-3.69H4.6zm.92 0v-.45-.47H4.61V-3.69H5.53zm0 0"/></symbol><symbol overflow="visible" id="686d3aefH"><path d="M.47 2.3zm0-.92zm0-.93zm0-.92zm0-.92zm0-.92zm0-.92zm0-.93zm0-.92zm0-.92zm0-.94zm0-.92zm0-.92zM1.39 2.3zm0-.92zm0-.93zm0-.92zm0-.92zm0-.92zm0-.92zm0-1.85zm0-.92zm0-.94zm0-.92zm0-.92zM2.31 2.3zm0-.92zm0-.93zm0-6.45zm0-.94zm0-.92zm0-.92zM3.23 2.3zm0-.92zm0-.93zm0-.92zm0-.92zm0-.92zm0-.92zm0-1.85zm0-1.86zm0-.92zm0-.92zM4.16 2.3zm0-.92zm0-.93zm0-.92zm0-.92zm0-.92zm0-.92zm0-1.85zm0-1.86zm0-.92zm0-.92zM5.08 2.3zm0-.92zm0-.93zm0-.92zm0-.92zm0-.92zm0-.92zm0-1.85zm0-1.86zm0-.92zm0-.92zM6 2.3zm0-.92zm0-.93zm0-.92zm0-.92zm0-.92zm0-.92zm0-.93zm0-.92zM6-6zm0-.94zm0-.92zm0-.92zM2.77 0v-.45-.47H1.85V0H2.76zm0-.92v-.45-.47H1.85V-.92H2.76zm0-.92v-.46-.47H1.85V-1.84H2.76zm0-.93v-.45-.47H1.85V-2.77H2.76zm-.93-.92v-.45-.47H.92V-3.69H1.84zm.93 0v-.45-.47H1.85V-3.69H2.76zm.92 0v-.45-.47H2.77V-3.69H3.69zm.92 0v-.45-.47H3.69V-3.69H4.6zm.92 0v-.45-.47H4.61V-3.69H5.53zM2.77-4.6v-.45-.47H1.85V-4.61H2.76zm.92-.92v-.45-.47H2.77V-5.53H3.69zm.92 0v-.45-.47H3.69V-5.53H4.6zm.92 0v-.45-.47H4.61V-5.53H5.53zm0 0"/></symbol><symbol overflow="visible" id="686d3aefI"><path d="M.47 2.3zm0-.92zm0-.93zm0-.92zm0-.92zm0-.92zm0-.92zm0-.93zm0-.92zm0-.92zm0-.94zm0-.92zm0-.92zM1.39 2.3zm0-.92zm0-.93zm0-.92zm0-3.69zm0-.92zm0-.92zm0-.94zm0-.92zm0-.92zM2.31 2.3zm0-.92zm0-.93zm0-1.84zm0-.92zm0-.92zm0-1.85zm0-.92zm0-.94zm0-.92zm0-.92zM3.23 2.3zm0-.92zm0-.93zm0-1.84zm0-.92zm0-.92zm0-1.85zm0-.92zm0-.94zm0-.92zm0-.92zM4.16 2.3zm0-.92zm0-.93zm0-1.84zm0-.92zm0-.92zm0-1.85zm0-.92zm0-.94zm0-.92zm0-.92zM5.08 2.3zm0-.92zm0-.93zm0-.92zm0-3.69zm0-.92zm0-.92zm0-.94zm0-.92zm0-.92zM6 2.3zm0-.92zm0-.93zm0-.92zm0-.92zm0-.92zm0-.92zm0-.93zm0-.92zM6-6zm0-.94zm0-.92zm0-.92zM2.77 0v-.45-.47H1.85V0H2.76zm.92 0v-.45-.47H2.77V0H3.69zm.92 0v-.45-.47H3.69V0H4.6zM1.84-.92v-.45-.47H.92V-.92H1.84zm3.7 0v-.45-.47H4.6V-.92H5.53zm-3.7-.92v-.46-.47H.92V-1.84H1.84zm3.7 0v-.46-.47H4.6V-1.84H5.53zm-3.7-.93v-.45-.47H.92V-2.77H1.84zm3.7 0v-.45-.47H4.6V-2.77H5.53zm-2.77-.92v-.45-.47H1.85V-3.69H2.76zm.92 0v-.45-.47H2.77V-3.69H3.69zm.92 0v-.45-.47H3.69V-3.69H4.6zm0 0"/></symbol><symbol overflow="visible" id="686d3aefJ"><path d="M.47 2.3zm0-.92zm0-.93zm0-.92zm0-.92zm0-.92zm0-.92zm0-.93zm0-.92zm0-.92zm0-.94zm0-.92zm0-.92zM1.39 2.3zm0-.92zm0-.93zm0-7.39zm0-.92zm0-.92zM2.31 2.3zm0-.92zm0-.93zm0-.92zm0-.92zm0-.92zm0-1.85zm0-.92zm0-.92zm0-.94zm0-.92zm0-.92zM3.23 2.3zm0-.92zm0-.93zm0-.92zm0-.92zm0-.92zm0-.92zm0-1.85zm0-.92zm0-.94zm0-.92zm0-.92zM4.16 2.3zm0-.92zm0-.93zm0-.92zm0-.92zm0-.92zm0-.92zm0-1.85zm0-.92zm0-.94zm0-.92zm0-.92zM5.08 2.3zm0-.92zm0-.93zm0-4.6zm0-.93zm0-.92zm0-.94zm0-.92zm0-.92zM6 2.3zm0-.92zm0-.93zm0-.92zm0-.92zm0-.92zm0-.92zm0-.93zm0-.92zM6-6zm0-.94zm0-.92zm0-.92zM1.84 0v-.45-.47H.92V0H1.84zm3.7 0v-.45-.47H4.6V0H5.53zm-3.7-.92v-.45-.47H.92V-.92H1.84zm3.7 0v-.45-.47H4.6V-.92H5.53zm-3.7-.92v-.46-.47H.92V-1.84H1.84zm3.7 0v-.46-.47H4.6V-1.84H5.53zm-3.7-.93v-.45-.47H.92V-2.77H1.84zm.93 0v-.45-.47H1.85V-2.77H2.76zm2.76 0v-.45-.47H4.61V-2.77H5.53zm-3.69-.92v-.45-.47H.92V-3.69H1.84zm1.85 0v-.45-.47H2.77V-3.69H3.69zm.92 0v-.45-.47H3.69V-3.69H4.6zM1.84-4.6v-.45-.47H.92V-4.61H1.84zm0-.92v-.45-.47H.92V-5.53H1.84zm0 0"/></symbol><symbol overflow="visible" id="686d3aefK"><path d="M.47 2.3zm0-.92zm0-.93zm0-.92zm0-.92zm0-.92zm0-.92zm0-.93zm0-.92zm0-.92zm0-.94zm0-.92zm0-.92zM1.39 2.3zm0-.92zm0-.93zm0-.92zm0-3.69zm0-.92zm0-.92zm0-.94zm0-.92zm0-.92zM2.31 2.3zm0-.92zm0-.93zm0-1.84zm0-.92zm0-.92zm0-1.85zm0-.92zm0-.94zm0-.92zm0-.92zM3.23 2.3zm0-.92zm0-.93zm0-1.84zm0-.92zm0-.92zm0-1.85zm0-.92zm0-.94zm0-.92zm0-.92zM4.16 2.3zm0-.92zm0-.93zm0-1.84zm0-.92zm0-.92zm0-1.85zm0-.92zm0-.94zm0-.92zm0-.92zM5.08 2.3zm0-.92zm0-.93zm0-.92zm0-6.47zm0-.92zm0-.92zM6 2.3zm0-.92zm0-.93zm0-.92zm0-.92zm0-.92zm0-.92zm0-.93zm0-.92zM6-6zm0-.94zm0-.92zm0-.92zM2.77 0v-.45-.47H1.85V0H2.76zm.92 0v-.45-.47H2.77V0H3.69zm.92 0v-.45-.47H3.69V0H4.6zM1.84-.92v-.45-.47H.92V-.92H1.84zm3.7 0v-.45-.47H4.6V-.92H5.53zm-3.7-.92v-.46-.47H.92V-1.84H1.84zm3.7 0v-.46-.47H4.6V-1.84H5.53zm-3.7-.93v-.45-.47H.92V-2.77H1.84zm3.7 0v-.45-.47H4.6V-2.77H5.53zm-2.77-.92v-.45-.47H1.85V-3.69H2.76zm.92 0v-.45-.47H2.77V-3.69H3.69zm.92 0v-.45-.47H3.69V-3.69H4.6zm.92 0v-.45-.47H4.61V-3.69H5.53zm0-.92v-.45-.47H4.61V-4.61H5.53zm0-.92v-.45-.47H4.61V-5.53H5.53zm0 0"/></symbol><symbol overflow="visible" id="686d3aefL"><path d="M.47 2.3zm0-.92zm0-.93zm0-.92zm0-.92zm0-.92zm0-.92zm0-.93zm0-.92zm0-.92zm0-.94zm0-.92zm0-.92zM1.39 2.3zm0-.92zm0-.93zm0-1.84zm0-.92zm0-.92zm0-1.85zm0-.92zm0-.94zm0-.92zm0-.92zM2.31 2.3zm0-.92zm0-.93zm0-1.84zm0-.92zm0-.92zm0-1.85zm0-.92zm0-.94zm0-.92zm0-.92zM3.23 2.3zm0-.92zm0-.93zm0-5.53zm0-2.78zm0-.92zM4.16 2.3zm0-.92zm0-.93zm0-1.84zm0-.92zm0-.92zm0-.93zm0-.92zm0-.92zm0-.94zm0-.92zm0-.92zM5.08 2.3zm0-.92zm0-.93zm0-1.84zm0-.92zm0-.92zm0-.93zm0-.92zm0-.92zm0-.94zm0-.92zm0-.92zM6 2.3zm0-.92zm0-.93zm0-.92zm0-.92zm0-.92zm0-.92zm0-.93zm0-.92zM6-6zm0-.94zm0-.92zm0-.92zM1.84 0v-.45-.47H.92V0H1.84zm.93 0v-.45-.47H1.85V0H2.76zm.92 0v-.45-.47H2.77V0H3.69zm.92 0v-.45-.47H3.69V0H4.6zm.92 0v-.45-.47H4.61V0H5.53zM3.7-.92v-.45-.47H2.77V-.92H3.69zm0-.92v-.46-.47H2.77V-1.84H3.69zm0-.93v-.45-.47H2.77V-2.77H3.69zm-1.85-.92v-.45-.47H.92V-3.69H1.84zm.93 0v-.45-.47H1.85V-3.69H2.76zm.92 0v-.45-.47H2.77V-3.69H3.69zm0-1.84v-.45-.47H2.77V-5.53H3.69zm0-.94v-.45-.47H2.77V-6.47H3.69zm0 0"/></symbol><symbol overflow="visible" id="686d3aefM"><path d="M.47 2.3zm0-.92zm0-.93zm0-.92zm0-.92zm0-.92zm0-.92zm0-.93zm0-.92zm0-.92zm0-.94zm0-.92zm0-.92zM1.39 2.3zm0-.92zm0-.93zm0-.92zm0-3.69zm0-.92zm0-.92zm0-.94zm0-.92zm0-.92zM2.31 2.3zm0-1.85zm0-1.84zm0-.92zm0-.92zm0-1.85zm0-.92zm0-.94zm0-.92zm0-.92zM3.23 2.3zm0-1.85zm0-1.84zm0-.92zm0-.92zm0-1.85zm0-.92zm0-.94zm0-.92zm0-.92zM4.16 2.3zm0-1.85zm0-1.84zm0-.92zm0-.92zm0-1.85zm0-.92zm0-.94zm0-.92zm0-.92zM5.08 2.3zm0-.92zm0-5.54zm0-.92zm0-.92zm0-.94zm0-.92zm0-.92zM6 2.3zm0-.92zm0-.93zm0-.92zm0-.92zm0-.92zm0-.92zm0-.93zm0-.92zM6-6zm0-.94zm0-.92zm0-.92zM2.77 1.84v-.47-.45H1.85V1.84H2.76zm.92 0v-.47-.45H2.77V1.84H3.69zm.92 0v-.47-.45H3.69V1.84H4.6zm.92-.92V.45 0H4.61V.92H5.53zM2.77 0v-.45-.47H1.85V0H2.76zm.92 0v-.45-.47H2.77V0H3.69zm.92 0v-.45-.47H3.69V0H4.6zm.92 0v-.45-.47H4.61V0H5.53zM1.84-.92v-.45-.47H.92V-.92H1.84zm3.7 0v-.45-.47H4.6V-.92H5.53zm-3.7-.92v-.46-.47H.92V-1.84H1.84zm3.7 0v-.46-.47H4.6V-1.84H5.53zm-3.7-.93v-.45-.47H.92V-2.77H1.84zm3.7 0v-.45-.47H4.6V-2.77H5.53zm-2.77-.92v-.45-.47H1.85V-3.69H2.76zm.92 0v-.45-.47H2.77V-3.69H3.69zm.92 0v-.45-.47H3.69V-3.69H4.6zm0 0"/></symbol><symbol overflow="visible" id="686d3aefN"><path d="M.47 2.3zm0-.92zm0-.93zm0-.92zm0-.92zm0-.92zm0-.92zm0-.93zm0-.92zm0-.92zm0-.94zm0-.92zm0-.92zM1.39 2.3zm0-.92zm0-.93zm0-.92zm0-.92zm0-.92zm0-.92zm0-.93zm0-.92zm0-.92zm0-.94zm0-.92zm0-.92zM2.31 2.3zm0-.92zm0-.93zm0-.92zm0-.92zm0-.92zm0-.92zm0-.93zm0-.92zm0-.92zm0-.94zm0-.92zm0-.92zM3.23 2.3zm0-.92zm0-7.38zm0-.94zm0-.92zm0-.92zM4.16 2.3zm0-1.85zm0-.92zm0-.92zm0-.92zm0-.92zm0-.93zm0-.92zm0-1.86zm0-.92zm0-.92zM5.08 2.3zm0-.92zm0-.93zm0-.92zm0-.92zm0-.92zm0-.92zm0-.93zm0-.92zm0-.92zm0-.94zm0-.92zm0-.92zM6 2.3zm0-.92zm0-.93zm0-.92zm0-.92zm0-.92zm0-.92zm0-.93zm0-.92zM6-6zm0-.94zm0-.92zm0-.92zM4.6 1.84v-.47-.45H3.7V1.84H4.6zM3.7.92V.45 0H2.77V.92H3.69zm0-.92v-.45-.47H2.77V0H3.69zm0-.92v-.45-.47H2.77V-.92H3.69zm0-.92v-.46-.47H2.77V-1.84H3.69zm0-.93v-.45-.47H2.77V-2.77H3.69zm0-.92v-.45-.47H2.77V-3.69H3.69zm0-.92v-.45-.47H2.77V-4.61H3.69zm.92-.92v-.45-.47H3.69V-5.53H4.6zm0 0"/></symbol><symbol overflow="visible" id="686d3aefO"><path d="M.47 2.3zm0-.92zm0-.93zm0-.92zm0-.92zm0-.92zm0-.92zm0-.93zm0-.92zm0-.92zm0-.94zm0-.92zm0-.92zM1.39 2.3zm0-.92zm0-.93zm0-.92zm0-.92zm0-.92zm0-.92zm0-.93zm0-.92zm0-.92zm0-.94zm0-.92zm0-.92zM2.31 2.3zm0-1.85zm0-.92zm0-.92zm0-.92zm0-.92zm0-.93zm0-.92zm0-1.86zm0-.92zm0-.92zM3.23 2.3zm0-.92zm0-7.38zm0-.94zm0-.92zm0-.92zM4.16 2.3zm0-.92zm0-.93zm0-.92zm0-.92zm0-.92zm0-.92zm0-.93zm0-.92zm0-.92zm0-.94zm0-.92zm0-.92zM5.08 2.3zm0-.92zm0-.93zm0-.92zm0-.92zm0-.92zm0-.92zm0-.93zm0-.92zm0-.92zm0-.94zm0-.92zm0-.92zM6 2.3zm0-.92zm0-.93zm0-.92zm0-.92zm0-.92zm0-.92zm0-.93zm0-.92zM6-6zm0-.94zm0-.92zm0-.92zM2.77 1.84v-.47-.45H1.85V1.84H2.76zm.92-.92V.45 0H2.77V.92H3.69zm0-.92v-.45-.47H2.77V0H3.69zm0-.92v-.45-.47H2.77V-.92H3.69zm0-.92v-.46-.47H2.77V-1.84H3.69zm0-.93v-.45-.47H2.77V-2.77H3.69zm0-.92v-.45-.47H2.77V-3.69H3.69zm0-.92v-.45-.47H2.77V-4.61H3.69zm-.92-.92v-.45-.47H1.85V-5.53H2.76zm0 0"/></symbol></defs><g fill="#ff81bf"><use xlink:href="#686d3aefa" x="81.92308" y="152"/><use xlink:href="#686d3aefb" x="130.3846" y="152"/><use xlink:href="#686d3aefc" x="178.8462" y="152"/><use xlink:href="#686d3aefd" x="227.3077" y="152"/><use xlink:href="#686d3aefe" x="275.7692" y="152"/><use xlink:href="#686d3aeff" x="324.2308" y="152"/><use xlink:href="#686d3aefg" x="372.6923" y="152"/><use xlink:href="#686d3aefh" x="421.1538" y="152"/><use xlink:href="#686d3aefi" x="469.6154" y="152"/><use xlink:href="#686d3aefj" x="251.5385" y="249"/><use xlink:href="#686d3aefk" x="258.0005" y="249"/><use xlink:href="#686d3aefl" x="264.4625" y="249"/><use xlink:href="#686d3aefm" x="270.9245" y="249"/><use xlink:href="#686d3aefn" x="277.3865" y="249"/><use xlink:href="#686d3aefo" x="283.8485" y="249"/><use xlink:href="#686d3aefp" x="290.3105" y="249"/><use xlink:href="#686d3aefq" x="296.7725" y="249"/><use xlink:href="#686d3aefr" x="303.2345" y="249"/><use xlink:href="#686d3aefs" x="309.6965" y="249"/><use xlink:href="#686d3aeft" x="316.1585" y="249"/><use xlink:href="#686d3aefu" x="322.6205" y="249"/><use xlink:href="#686d3aefv" x="329.0825" y="249"/><use xlink:href="#686d3aefw" x="335.5445" y="249"/><use xlink:href="#686d3aefx" x="342.0065" y="249"/><g><use xlink:href="#686d3aefo" x="348.4615" y="249"/></g><g><use xlink:href="#686d3aefy" x="183.6923" y="265"/><use xlink:href="#686d3aefk" x="190.1543" y="265"/><use xlink:href="#686d3aefz" x="196.6163" y="265"/><use xlink:href="#686d3aefm" x="203.0783" y="265"/><use xlink:href="#686d3aefA" x="209.5403" y="265"/><use xlink:href="#686d3aefB" x="216.0023" y="265"/><use xlink:href="#686d3aefk" x="222.4643" y="265"/><use xlink:href="#686d3aefn" x="228.9263" y="265"/><use xlink:href="#686d3aefo" x="235.3883" y="265"/><use xlink:href="#686d3aefC" x="241.8503" y="265"/><use xlink:href="#686d3aefD" x="248.3123" y="265"/><use xlink:href="#686d3aefk" x="254.7743" y="265"/><use xlink:href="#686d3aefE" x="261.2363" y="265"/><use xlink:href="#686d3aefk" x="267.6983" y="265"/><use xlink:href="#686d3aefF" x="274.1603" y="265"/><use xlink:href="#686d3aefm" x="280.6223" y="265"/><use xlink:href="#686d3aefG" x="287.0843" y="265"/><use xlink:href="#686d3aefo" x="293.5463" y="265"/><use xlink:href="#686d3aefH" x="300.0083" y="265"/><use xlink:href="#686d3aefI" x="306.4703" y="265"/><use xlink:href="#686d3aefB" x="312.9323" y="265"/><use xlink:href="#686d3aefo" x="319.3943" y="265"/><use xlink:href="#686d3aefG" x="325.8563" y="265"/><use xlink:href="#686d3aefJ" x="332.3183" y="265"/><use xlink:href="#686d3aefz" x="338.7803" y="265"/><use xlink:href="#686d3aefK" x="345.2423" y="265"/><use xlink:href="#686d3aefL" x="351.7043" y="265"/><use xlink:href="#686d3aefF" x="358.1663" y="265"/><use xlink:href="#686d3aefM" x="364.6283" y="265"/><use xlink:href="#686d3aefo" x="371.0903" y="265"/><use xlink:href="#686d3aefN" x="377.5523" y="265"/><use xlink:href="#686d3aefG" x="384.0143" y="265"/><use xlink:href="#686d3aefG" x="390.4763" y="265"/><use xlink:href="#686d3aefp" x="396.9383" y="265"/><use xlink:href="#686d3aefq" x="403.4003" y="265"/><use xlink:href="#686d3aefO" x="409.8623" y="265"/></g></g></svg>