<?xml version='1.0' encoding='UTF-8'?>
<svg xmlns="http://www.w3.org/2000/svg" xmlns:xlink="http://www.w3.org/1999/xlink" width="600px" height="300px" viewBox="0 0 600 300" x="0px" y="0px" enable-background="new 0 0 600 300"><defs><symbol overflow="visible" id="04281c1aa"><path d="M3.47 17.3zm0-6.93zm0-6.92zm0-6.92zm0-6.92zm0-6.92zm0-6.92zm0-6.93zm0-6.92zm0-6.92zm0-6.94zm0-6.92zm0-6.92zm6.92 83.08zm0-6.93zm0-6.92zm0-13.84zm0-6.92zm0-6.92zm0-6.93zm0-13.84zm0-6.94zm0-6.92zm0-6.92zm6.92 83.08zm0-6.93zm0-6.92zm0-13.84zm0-6.92zm0-6.92zm0-6.93zm0-13.84zm0-6.94zm0-6.92zm0-6.92zm6.92 83.08zm0-6.93zm0-6.92zm0-55.39zm0-6.92zm0-6.92zm6.93 83.08zm0-6.93zm0-6.92zm0-13.84zm0-6.92zm0-6.92zm0-6.93zm0-6.92zm0-6.92zm0-6.94zm0-6.92zm0-6.92zm6.92 83.08zm0-6.93zm0-6.92zm0-13.84zm0-6.92zm0-6.92zm0-6.93zm0-6.92zm0-6.92zm0-6.94zm0-6.92zm0-6.92zM45 17.3zm0-6.93zm0-6.92zm0-6.92zm0-6.92zm0-6.92zm0-6.92zm0-6.93zm0-6.92zM45-45zm0-6.94zm0-6.92zm0-6.92zM10.4 0c1 0 1.83-.32 2.47-.97.65-.64.97-1.48.97-2.5 0-1-.32-1.83-.96-2.48a3.38 3.38 0 00-2.49-.97c-1.02 0-1.85.32-2.5.97a3.36 3.36 0 00-.97 2.48c0 1.02.32 1.86.97 2.5.65.65 1.48.97 2.5.97zm6.91 0c1.01 0 1.84-.32 2.49-.97.64-.64.97-1.48.97-2.5 0-1-.33-1.83-.97-2.48a3.38 3.38 0 00-2.49-.97c-1.02 0-1.85.32-2.5.97a3.36 3.36 0 00-.97 2.48c0 1.02.32 1.86.97 2.5.65.65 1.48.97 2.5.97zm6.92 0c1.01 0 1.84-.32 2.49-.97.64-.64.97-1.48.97-2.5 0-1-.33-1.83-.97-2.48a3.38 3.38 0 00-2.49-.97c-1.02 0-1.85.32-2.5.97a3.36 3.36 0 00-.96 2.48c0 1.02.32 1.86.96 2.5.65.65 1.48.97 2.5.97zm6.93 0c1 0 1.83-.32 2.48-.97.65-.64.97-1.48.97-2.5 0-1-.32-1.83-.97-2.48a3.38 3.38 0 00-2.48-.97c-1.03 0-1.86.32-2.5.97a3.36 3.36 0 00-.97 2.48c0 1.02.32 1.86.97 2.5.64.65 1.47.97 2.5.97zm6.92 0c1 0 1.83-.32 2.48-.97.65-.64.97-1.48.97-2.5 0-1-.32-1.83-.97-2.48a3.38 3.38 0 00-2.48-.97c-1.03 0-1.86.32-2.5.97a3.36 3.36 0 00-.97 2.48c0 1.02.32 1.86.97 2.5.64.65 1.47.97 2.5.97zM24.23-6.92c1.01 0 1.84-.32 2.49-.97.64-.65.97-1.48.97-2.5 0-1-.33-1.84-.97-2.48a3.38 3.38 0 00-2.49-.97c-1.02 0-1.85.32-2.5.96a3.36 3.36 0 00-.96 2.49c0 1.02.32 1.85.96 2.5.65.65 1.48.97 2.5.97zm0-6.92c1.01 0 1.84-.32 2.49-.97.64-.65.97-1.48.97-2.5 0-1.01-.33-1.84-.97-2.49a3.38 3.38 0 00-2.49-.97c-1.02 0-1.85.33-2.5.97a3.36 3.36 0 00-.96 2.49c0 1.02.32 1.85.96 2.5.65.65 1.48.97 2.5.97zm0-6.93c1.01 0 1.84-.32 2.49-.96.64-.65.97-1.48.97-2.5 0-1.01-.33-1.84-.97-2.49a3.38 3.38 0 00-2.49-.97c-1.02 0-1.85.33-2.5.97a3.36 3.36 0 00-.96 2.49c0 1.02.32 1.85.96 2.5.65.64 1.48.96 2.5.96zm0-6.92c1.01 0 1.84-.32 2.49-.97.64-.64.97-1.47.97-2.5 0-1-.33-1.83-.97-2.48a3.38 3.38 0 00-2.49-.97c-1.02 0-1.85.32-2.5.97a3.36 3.36 0 00-.96 2.48c0 1.03.32 1.86.96 2.5.65.65 1.48.97 2.5.97zM10.4-34.6c1 0 1.84-.32 2.48-.97.65-.64.97-1.47.97-2.5 0-1-.32-1.83-.96-2.48a3.38 3.38 0 00-2.49-.97c-1.02 0-1.85.32-2.5.97a3.36 3.36 0 00-.97 2.48c0 1.03.32 1.86.97 2.5.65.65 1.48.97 2.5.97zm6.92 0c1.01 0 1.84-.32 2.49-.97.64-.64.97-1.47.97-2.5 0-1-.33-1.83-.97-2.48a3.38 3.38 0 00-2.49-.97c-1.02 0-1.85.32-2.5.97a3.36 3.36 0 00-.97 2.48c0 1.03.32 1.86.97 2.5.65.65 1.48.97 2.5.97zm6.92 0c1.01 0 1.84-.32 2.49-.97.64-.64.97-1.47.97-2.5 0-1-.33-1.83-.97-2.48a3.38 3.38 0 00-2.49-.97c-1.02 0-1.85.32-2.5.97a3.36 3.36 0 00-.96 2.48c0 1.03.32 1.86.96 2.5.65.65 1.48.97 2.5.97zm0-6.92c1.01 0 1.84-.32 2.49-.97.64-.64.97-1.48.97-2.5 0-1-.33-1.84-.97-2.48a3.38 3.38 0 00-2.49-.97c-1.02 0-1.85.32-2.5.97a3.36 3.36 0 00-.96 2.48c0 1.02.32 1.86.96 2.5.65.65 1.48.97 2.5.97zm0 0"/></symbol><symbol overflow="visible" id="04281c1ab"><path d="M3.47 17.3zm0-6.93zm0-6.92zm0-6.92zm0-6.92zm0-6.92zm0-6.92zm0-6.93zm0-6.92zm0-6.92zm0-6.94zm0-6.92zm0-6.92zm6.92 83.08zm0-6.93zm0-6.92zm0-6.92zm0-20.76zm0-20.77zm0-6.94zm0-6.92zm0-6.92zm6.92 83.08zm0-6.93zm0-6.92zm0-13.84zm0-6.92zm0-13.85zm0-6.92zm0-13.86zm0-6.92zm0-6.92zm6.92 83.08zm0-6.93zm0-6.92zm0-13.84zm0-6.92zm0-13.85zm0-6.92zm0-13.86zm0-6.92zm0-6.92zm6.93 83.08zm0-6.93zm0-6.92zm0-13.84zm0-6.92zm0-13.85zm0-6.92zm0-13.86zm0-6.92zm0-6.92zm6.92 83.08zm0-6.93zm0-6.92zm0-6.92zm0-20.76zm0-20.77zm0-6.94zm0-6.92zm0-6.92zM45 17.3zm0-6.93zm0-6.92zm0-6.92zm0-6.92zm0-6.92zm0-6.92zm0-6.93zm0-6.92zM45-45zm0-6.94zm0-6.92zm0-6.92zM17.31 0c1.01 0 1.84-.32 2.49-.97.64-.64.97-1.48.97-2.5 0-1-.33-1.83-.97-2.48a3.38 3.38 0 00-2.49-.97c-1.02 0-1.85.32-2.5.97a3.36 3.36 0 00-.97 2.48c0 1.02.32 1.86.97 2.5.65.65 1.48.97 2.5.97zm6.92 0c1.01 0 1.84-.32 2.49-.97.64-.64.97-1.48.97-2.5 0-1-.33-1.83-.97-2.48a3.38 3.38 0 00-2.49-.97c-1.02 0-1.85.32-2.5.97a3.36 3.36 0 00-.96 2.48c0 1.02.32 1.86.96 2.5.65.65 1.48.97 2.5.97zm6.93 0c1 0 1.83-.32 2.48-.97.65-.64.97-1.48.97-2.5 0-1-.32-1.83-.97-2.48a3.38 3.38 0 00-2.48-.97c-1.03 0-1.86.32-2.5.97a3.36 3.36 0 00-.97 2.48c0 1.02.32 1.86.97 2.5.64.65 1.47.97 2.5.97zM10.39-6.92c1 0 1.84-.32 2.48-.97.65-.65.97-1.48.97-2.5 0-1-.32-1.84-.96-2.48a3.38 3.38 0 00-2.49-.97c-1.02 0-1.85.32-2.5.96a3.36 3.36 0 00-.97 2.49c0 1.02.32 1.85.97 2.5.65.65 1.48.97 2.5.97zm27.69 0c1 0 1.83-.32 2.48-.97.65-.65.97-1.48.97-2.5 0-1-.32-1.84-.97-2.48a3.38 3.38 0 00-2.48-.97c-1.03 0-1.86.32-2.5.96a3.36 3.36 0 00-.97 2.49c0 1.02.32 1.85.97 2.5.64.65 1.47.97 2.5.97zm-27.69-6.92c1 0 1.84-.32 2.48-.97.65-.65.97-1.48.97-2.5 0-1.01-.32-1.84-.96-2.49a3.38 3.38 0 00-2.49-.97c-1.02 0-1.85.33-2.5.97a3.36 3.36 0 00-.97 2.49c0 1.02.32 1.85.97 2.5.65.65 1.48.97 2.5.97zm27.69 0c1 0 1.83-.32 2.48-.97.65-.65.97-1.48.97-2.5 0-1.01-.32-1.84-.97-2.49a3.38 3.38 0 00-2.48-.97c-1.03 0-1.86.33-2.5.97a3.36 3.36 0 00-.97 2.49c0 1.02.32 1.85.97 2.5.64.65 1.47.97 2.5.97zM17.3-20.77c1.01 0 1.84-.32 2.49-.96.64-.65.97-1.48.97-2.5 0-1.01-.33-1.84-.97-2.49a3.38 3.38 0 00-2.49-.97c-1.02 0-1.85.33-2.5.97a3.36 3.36 0 00-.97 2.49c0 1.02.32 1.85.97 2.5.65.64 1.48.96 2.5.96zm6.92 0c1.01 0 1.84-.32 2.49-.96.64-.65.97-1.48.97-2.5 0-1.01-.33-1.84-.97-2.49a3.38 3.38 0 00-2.49-.97c-1.02 0-1.85.33-2.5.97a3.36 3.36 0 00-.96 2.49c0 1.02.32 1.85.96 2.5.65.64 1.48.96 2.5.96zm6.93 0c1 0 1.83-.32 2.48-.96.65-.65.97-1.48.97-2.5 0-1.01-.32-1.84-.97-2.49a3.38 3.38 0 00-2.48-.97c-1.03 0-1.86.33-2.5.97a3.36 3.36 0 00-.97 2.49c0 1.02.32 1.85.97 2.5.64.64 1.47.96 2.5.96zm-20.77-6.92c1 0 1.84-.32 2.48-.97.65-.64.97-1.47.97-2.5 0-1-.32-1.83-.96-2.48a3.38 3.38 0 00-2.49-.97c-1.02 0-1.85.32-2.5.97a3.36 3.36 0 00-.97 2.48c0 1.03.32 1.86.97 2.5.65.65 1.48.97 2.5.97zm27.69 0c1 0 1.83-.32 2.48-.97.65-.64.97-1.47.97-2.5 0-1-.32-1.83-.97-2.48a3.38 3.38 0 00-2.48-.97c-1.03 0-1.86.32-2.5.97a3.36 3.36 0 00-.97 2.48c0 1.03.32 1.86.97 2.5.64.65 1.47.97 2.5.97zM10.39-34.6c1 0 1.84-.32 2.48-.97.65-.64.97-1.47.97-2.5 0-1-.32-1.83-.96-2.48a3.38 3.38 0 00-2.49-.97c-1.02 0-1.85.32-2.5.97a3.36 3.36 0 00-.97 2.48c0 1.03.32 1.86.97 2.5.65.65 1.48.97 2.5.97zm27.69 0c1 0 1.83-.32 2.48-.97.65-.64.97-1.47.97-2.5 0-1-.32-1.83-.97-2.48a3.38 3.38 0 00-2.48-.97c-1.03 0-1.86.32-2.5.97a3.36 3.36 0 00-.97 2.48c0 1.03.32 1.86.97 2.5.64.65 1.47.97 2.5.97zM17.3-41.53c1.01 0 1.84-.32 2.49-.97.64-.64.97-1.48.97-2.5 0-1-.33-1.84-.97-2.48a3.38 3.38 0 00-2.49-.97c-1.02 0-1.85.32-2.5.97a3.36 3.36 0 00-.97 2.48c0 1.02.32 1.86.97 2.5.65.65 1.48.97 2.5.97zm6.92 0c1.01 0 1.84-.32 2.49-.97.64-.64.97-1.48.97-2.5 0-1-.33-1.84-.97-2.48a3.38 3.38 0 00-2.49-.97c-1.02 0-1.85.32-2.5.97a3.36 3.36 0 00-.96 2.48c0 1.02.32 1.86.96 2.5.65.65 1.48.97 2.5.97zm6.93 0c1 0 1.83-.32 2.48-.97.65-.64.97-1.48.97-2.5 0-1-.32-1.84-.97-2.48a3.38 3.38 0 00-2.48-.97c-1.03 0-1.86.32-2.5.97a3.36 3.36 0 00-.97 2.48c0 1.02.32 1.86.97 2.5.64.65 1.47.97 2.5.97zm0 0"/></symbol><symbol overflow="visible" id="04281c1ac"><path d="M3.47 17.3zm0-6.93zm0-6.92zm0-6.92zm0-6.92zm0-6.92zm0-6.92zm0-6.93zm0-6.92zm0-6.92zm0-6.94zm0-6.92zm0-6.92zm6.92 83.08zm0-6.93zm0-6.92zm0-6.92zm0-6.92zm0-6.92zm0-13.85zm0-6.92zm0-6.92zm0-6.94zm0-6.92zm0-6.92zm6.92 83.08zm0-6.93zm0-6.92zm0-6.92zm0-6.92zm0-13.84zm0-13.85zm0-13.86zm0-6.92zm0-6.92zm6.92 83.08zm0-6.93zm0-6.92zm0-6.92zm0-6.92zm0-13.84zm0-13.85zm0-13.86zm0-6.92zm0-6.92zm6.93 83.08zm0-6.93zm0-6.92zm0-6.92zm0-6.92zm0-6.92zm0-27.69zm0-6.94zm0-6.92zm0-6.92zm6.92 83.08zm0-6.93zm0-6.92zm0-6.92zm0-6.92zm0-6.92zm0-6.92zm0-6.93zm0-6.92zm0-6.92zm0-6.94zm0-6.92zm0-6.92zM45 17.3zm0-6.93zm0-6.92zm0-6.92zm0-6.92zm0-6.92zm0-6.92zm0-6.93zm0-6.92zM45-45zm0-6.94zm0-6.92zm0-6.92zM17.31-13.84c1.01 0 1.84-.32 2.49-.97.64-.65.97-1.48.97-2.5 0-1.01-.33-1.84-.97-2.49a3.38 3.38 0 00-2.49-.97c-1.02 0-1.85.33-2.5.97a3.36 3.36 0 00-.97 2.49c0 1.02.32 1.85.97 2.5.65.65 1.48.97 2.5.97zm6.92 0c1.01 0 1.84-.32 2.49-.97.64-.65.97-1.48.97-2.5 0-1.01-.33-1.84-.97-2.49a3.38 3.38 0 00-2.49-.97c-1.02 0-1.85.33-2.5.97a3.36 3.36 0 00-.96 2.49c0 1.02.32 1.85.96 2.5.65.65 1.48.97 2.5.97zM10.4-20.77c1 0 1.84-.32 2.48-.96.65-.65.97-1.48.97-2.5 0-1.01-.32-1.84-.96-2.49a3.38 3.38 0 00-2.49-.97c-1.02 0-1.85.33-2.5.97a3.36 3.36 0 00-.97 2.49c0 1.02.32 1.85.97 2.5.65.64 1.48.96 2.5.96zm20.77 0c1 0 1.83-.32 2.48-.96.65-.65.97-1.48.97-2.5 0-1.01-.32-1.84-.97-2.49a3.38 3.38 0 00-2.48-.97c-1.03 0-1.86.33-2.5.97a3.36 3.36 0 00-.97 2.49c0 1.02.32 1.85.97 2.5.64.64 1.47.96 2.5.96zM17.3-27.69c1.01 0 1.84-.32 2.49-.97.64-.64.97-1.47.97-2.5 0-1-.33-1.83-.97-2.48a3.38 3.38 0 00-2.49-.97c-1.02 0-1.85.32-2.5.97a3.36 3.36 0 00-.97 2.48c0 1.03.32 1.86.97 2.5.65.65 1.48.97 2.5.97zm6.92 0c1.01 0 1.84-.32 2.49-.97.64-.64.97-1.47.97-2.5 0-1-.33-1.83-.97-2.48a3.38 3.38 0 00-2.49-.97c-1.02 0-1.85.32-2.5.97a3.36 3.36 0 00-.96 2.48c0 1.03.32 1.86.96 2.5.65.65 1.48.97 2.5.97zm6.93 0c1 0 1.83-.32 2.48-.97.65-.64.97-1.47.97-2.5 0-1-.32-1.83-.97-2.48a3.38 3.38 0 00-2.48-.97c-1.03 0-1.86.32-2.5.97a3.36 3.36 0 00-.97 2.48c0 1.03.32 1.86.97 2.5.64.65 1.47.97 2.5.97zm0-6.92c1 0 1.83-.32 2.48-.97.65-.64.97-1.47.97-2.5 0-1-.32-1.83-.97-2.48a3.38 3.38 0 00-2.48-.97c-1.03 0-1.86.32-2.5.97a3.36 3.36 0 00-.97 2.48c0 1.03.32 1.86.97 2.5.64.65 1.47.97 2.5.97zM17.3-41.53c1.01 0 1.84-.32 2.49-.97.64-.64.97-1.48.97-2.5 0-1-.33-1.84-.97-2.48a3.38 3.38 0 00-2.49-.97c-1.02 0-1.85.32-2.5.97a3.36 3.36 0 00-.97 2.48c0 1.02.32 1.86.97 2.5.65.65 1.48.97 2.5.97zm6.92 0c1.01 0 1.84-.32 2.49-.97.64-.64.97-1.48.97-2.5 0-1-.33-1.84-.97-2.48a3.38 3.38 0 00-2.49-.97c-1.02 0-1.85.32-2.5.97a3.36 3.36 0 00-.96 2.48c0 1.02.32 1.86.96 2.5.65.65 1.48.97 2.5.97zm0 0"/></symbol><symbol overflow="visible" id="04281c1ag"><path d="M3.47 17.3zm0-6.93zm0-6.92zm0-6.92zm0-6.92zm0-6.92zm0-6.92zm0-6.93zm0-6.92zm0-6.92zm0-6.94zm0-6.92zm0-6.92zm6.92 83.08zm0-6.93zm0-6.92zm0-6.92zm0-6.92zm0-6.92zm0-27.69zm0-6.94zm0-6.92zm0-6.92zm6.92 83.08zm0-6.93zm0-6.92zm0-6.92zm0-6.92zm0-13.84zm0-6.93zm0-6.92zm0-13.86zm0-6.92zm0-6.92zm6.92 83.08zm0-6.93zm0-6.92zm0-6.92zm0-6.92zm0-13.84zm0-6.93zm0-6.92zm0-13.86zm0-6.92zm0-6.92zm6.93 83.08zm0-6.93zm0-6.92zm0-6.92zm0-6.92zm0-6.92zm0-27.69zm0-6.94zm0-6.92zm0-6.92zm6.92 83.08zm0-6.93zm0-6.92zm0-6.92zm0-6.92zm0-6.92zm0-6.92zm0-6.93zm0-6.92zm0-6.92zm0-6.94zm0-6.92zm0-6.92zM45 17.3zm0-6.93zm0-6.92zm0-6.92zm0-6.92zm0-6.92zm0-6.92zm0-6.93zm0-6.92zM45-45zm0-6.94zm0-6.92zm0-6.92zM17.31-13.84c1.01 0 1.84-.32 2.49-.97.64-.65.97-1.48.97-2.5 0-1.01-.33-1.84-.97-2.49a3.38 3.38 0 00-2.49-.97c-1.02 0-1.85.33-2.5.97a3.36 3.36 0 00-.97 2.49c0 1.02.32 1.85.97 2.5.65.65 1.48.97 2.5.97zm6.92 0c1.01 0 1.84-.32 2.49-.97.64-.65.97-1.48.97-2.5 0-1.01-.33-1.84-.97-2.49a3.38 3.38 0 00-2.49-.97c-1.02 0-1.85.33-2.5.97a3.36 3.36 0 00-.96 2.49c0 1.02.32 1.85.96 2.5.65.65 1.48.97 2.5.97zM10.4-20.77c1 0 1.84-.32 2.48-.96.65-.65.97-1.48.97-2.5 0-1.01-.32-1.84-.96-2.49a3.38 3.38 0 00-2.49-.97c-1.02 0-1.85.33-2.5.97a3.36 3.36 0 00-.97 2.49c0 1.02.32 1.85.97 2.5.65.64 1.48.96 2.5.96zm20.77 0c1 0 1.83-.32 2.48-.96.65-.65.97-1.48.97-2.5 0-1.01-.32-1.84-.97-2.49a3.38 3.38 0 00-2.48-.97c-1.03 0-1.86.33-2.5.97a3.36 3.36 0 00-.97 2.49c0 1.02.32 1.85.97 2.5.64.64 1.47.96 2.5.96zm-20.77-6.92c1 0 1.84-.32 2.48-.97.65-.64.97-1.47.97-2.5 0-1-.32-1.83-.96-2.48a3.38 3.38 0 00-2.49-.97c-1.02 0-1.85.32-2.5.97a3.36 3.36 0 00-.97 2.48c0 1.03.32 1.86.97 2.5.65.65 1.48.97 2.5.97zm20.77 0c1 0 1.83-.32 2.48-.97.65-.64.97-1.47.97-2.5 0-1-.32-1.83-.97-2.48a3.38 3.38 0 00-2.48-.97c-1.03 0-1.86.32-2.5.97a3.36 3.36 0 00-.97 2.48c0 1.03.32 1.86.97 2.5.64.65 1.47.97 2.5.97zM10.39-34.6c1 0 1.84-.32 2.48-.97.65-.64.97-1.47.97-2.5 0-1-.32-1.83-.96-2.48a3.38 3.38 0 00-2.49-.97c-1.02 0-1.85.32-2.5.97a3.36 3.36 0 00-.97 2.48c0 1.03.32 1.86.97 2.5.65.65 1.48.97 2.5.97zm20.77 0c1 0 1.83-.32 2.48-.97.65-.64.97-1.47.97-2.5 0-1-.32-1.83-.97-2.48a3.38 3.38 0 00-2.48-.97c-1.03 0-1.86.32-2.5.97a3.36 3.36 0 00-.97 2.48c0 1.03.32 1.86.97 2.5.64.65 1.47.97 2.5.97zM17.3-41.53c1.01 0 1.84-.32 2.49-.97.64-.64.97-1.48.97-2.5 0-1-.33-1.84-.97-2.48a3.38 3.38 0 00-2.49-.97c-1.02 0-1.85.32-2.5.97a3.36 3.36 0 00-.97 2.48c0 1.02.32 1.86.97 2.5.65.65 1.48.97 2.5.97zm6.92 0c1.01 0 1.84-.32 2.49-.97.64-.64.97-1.48.97-2.5 0-1-.33-1.84-.97-2.48a3.38 3.38 0 00-2.49-.97c-1.02 0-1.85.32-2.5.97a3.36 3.36 0 00-.96 2.48c0 1.02.32 1.86.96 2.5.65.65 1.48.97 2.5.97zm0 0"/></symbol><symbol overflow="visible" id="04281c1ad"><path d="M3.47 17.3zm0-6.93zm0-6.92zm0-6.92zm0-6.92zm0-6.92zm0-6.92zm0-6.93zm0-6.92zm0-6.92zm0-6.94zm0-6.92zm0-6.92zm6.92 83.08zm0-6.93zm0-6.92zm0-6.92zm0-6.92zm0-6.92zm0-6.92zm0-6.93zm0-6.92zm0-6.92zm0-6.94zm0-6.92zm0-6.92zm6.92 83.08zm0-6.93zm0-6.92zm0-6.92zm0-6.92zm0-6.92zm0-6.92zm0-6.93zm0-6.92zm0-6.92zm0-6.94zm0-6.92zm0-6.92zm6.92 83.08zm0-6.93zm0-6.92zm0-6.92zm0-6.92zm0-6.92zm0-6.92zm0-6.93zm0-6.92zm0-6.92zm0-6.94zm0-6.92zm0-6.92zm6.93 83.08zm0-6.93zm0-6.92zm0-6.92zm0-6.92zm0-6.92zm0-6.92zm0-6.93zm0-6.92zm0-6.92zm0-6.94zm0-6.92zm0-6.92zm6.92 83.08zm0-6.93zm0-6.92zm0-6.92zm0-6.92zm0-6.92zm0-6.92zm0-6.93zm0-6.92zm0-6.92zm0-6.94zm0-6.92zm0-6.92zM45 17.3zm0-6.93zm0-6.92zm0-6.92zm0-6.92zm0-6.92zm0-6.92zm0-6.93zm0-6.92zM45-45zm0-6.94zm0-6.92zm0-6.92zm0 0"/></symbol><symbol overflow="visible" id="04281c1ae"><path d="M3.47 17.3zm0-6.93zm0-6.92zm0-6.92zm0-6.92zm0-6.92zm0-6.92zm0-6.93zm0-6.92zm0-6.92zm0-6.94zm0-6.92zm0-6.92zm6.92 83.08zm0-6.93zm0-6.92zm0-13.84zm0-6.92zm0-6.92zm0-20.77zm0-6.94zm0-6.92zm0-6.92zm6.92 83.08zm0-6.93zm0-6.92zm0-20.76zm0-6.92zm0-6.93zm0-6.92zm0-13.86zm0-6.92zm0-6.92zm6.92 83.08zm0-6.93zm0-6.92zm0-13.84zm0-13.84zm0-6.93zm0-6.92zm0-13.86zm0-6.92zm0-6.92zm6.93 83.08zm0-6.93zm0-6.92zm0-13.84zm0-6.92zm0-13.85zm0-6.92zm0-13.86zm0-6.92zm0-6.92zm6.92 83.08zm0-6.93zm0-6.92zm0-13.84zm0-6.92zm0-6.92zm0-20.77zm0-6.94zm0-6.92zm0-6.92zM45 17.3zm0-6.93zm0-6.92zm0-6.92zm0-6.92zm0-6.92zm0-6.92zm0-6.93zm0-6.92zM45-45zm0-6.94zm0-6.92zm0-6.92zM10.4 0c1 0 1.83-.32 2.47-.97.65-.64.97-1.48.97-2.5 0-1-.32-1.83-.96-2.48a3.38 3.38 0 00-2.49-.97c-1.02 0-1.85.32-2.5.97a3.36 3.36 0 00-.97 2.48c0 1.02.32 1.86.97 2.5.65.65 1.48.97 2.5.97zm6.91 0c1.01 0 1.84-.32 2.49-.97.64-.64.97-1.48.97-2.5 0-1-.33-1.83-.97-2.48a3.38 3.38 0 00-2.49-.97c-1.02 0-1.85.32-2.5.97a3.36 3.36 0 00-.97 2.48c0 1.02.32 1.86.97 2.5.65.65 1.48.97 2.5.97zm6.92 0c1.01 0 1.84-.32 2.49-.97.64-.64.97-1.48.97-2.5 0-1-.33-1.83-.97-2.48a3.38 3.38 0 00-2.49-.97c-1.02 0-1.85.32-2.5.97a3.36 3.36 0 00-.96 2.48c0 1.02.32 1.86.96 2.5.65.65 1.48.97 2.5.97zm6.93 0c1 0 1.83-.32 2.48-.97.65-.64.97-1.48.97-2.5 0-1-.32-1.83-.97-2.48a3.38 3.38 0 00-2.48-.97c-1.03 0-1.86.32-2.5.97a3.36 3.36 0 00-.97 2.48c0 1.02.32 1.86.97 2.5.64.65 1.47.97 2.5.97zm6.92 0c1 0 1.83-.32 2.48-.97.65-.64.97-1.48.97-2.5 0-1-.32-1.83-.97-2.48a3.38 3.38 0 00-2.48-.97c-1.03 0-1.86.32-2.5.97a3.36 3.36 0 00-.97 2.48c0 1.02.32 1.86.97 2.5.64.65 1.47.97 2.5.97zM17.3-6.92c1.01 0 1.84-.32 2.49-.97.64-.65.97-1.48.97-2.5 0-1-.33-1.84-.97-2.48a3.38 3.38 0 00-2.49-.97c-1.02 0-1.85.32-2.5.96a3.36 3.36 0 00-.97 2.49c0 1.02.32 1.85.97 2.5.65.65 1.48.97 2.5.97zm6.92-6.92c1.01 0 1.84-.32 2.49-.97.64-.65.97-1.48.97-2.5 0-1.01-.33-1.84-.97-2.49a3.38 3.38 0 00-2.49-.97c-1.02 0-1.85.33-2.5.97a3.36 3.36 0 00-.96 2.49c0 1.02.32 1.85.96 2.5.65.65 1.48.97 2.5.97zm6.93-6.93c1 0 1.83-.32 2.48-.96.65-.65.97-1.48.97-2.5 0-1.01-.32-1.84-.97-2.49a3.38 3.38 0 00-2.48-.97c-1.03 0-1.86.33-2.5.97a3.36 3.36 0 00-.97 2.49c0 1.02.32 1.85.97 2.5.64.64 1.47.96 2.5.96zm-20.77-6.92c1 0 1.84-.32 2.48-.97.65-.64.97-1.47.97-2.5 0-1-.32-1.83-.96-2.48a3.38 3.38 0 00-2.49-.97c-1.02 0-1.85.32-2.5.97a3.36 3.36 0 00-.97 2.48c0 1.03.32 1.86.97 2.5.65.65 1.48.97 2.5.97zm27.69 0c1 0 1.83-.32 2.48-.97.65-.64.97-1.47.97-2.5 0-1-.32-1.83-.97-2.48a3.38 3.38 0 00-2.48-.97c-1.03 0-1.86.32-2.5.97a3.36 3.36 0 00-.97 2.48c0 1.03.32 1.86.97 2.5.64.65 1.47.97 2.5.97zM10.39-34.6c1 0 1.84-.32 2.48-.97.65-.64.97-1.47.97-2.5 0-1-.32-1.83-.96-2.48a3.38 3.38 0 00-2.49-.97c-1.02 0-1.85.32-2.5.97a3.36 3.36 0 00-.97 2.48c0 1.03.32 1.86.97 2.5.65.65 1.48.97 2.5.97zm27.69 0c1 0 1.83-.32 2.48-.97.65-.64.97-1.47.97-2.5 0-1-.32-1.83-.97-2.48a3.38 3.38 0 00-2.48-.97c-1.03 0-1.86.32-2.5.97a3.36 3.36 0 00-.97 2.48c0 1.03.32 1.86.97 2.5.64.65 1.47.97 2.5.97zM17.3-41.53c1.01 0 1.84-.32 2.49-.97.64-.64.97-1.48.97-2.5 0-1-.33-1.84-.97-2.48a3.38 3.38 0 00-2.49-.97c-1.02 0-1.85.32-2.5.97a3.36 3.36 0 00-.97 2.48c0 1.02.32 1.86.97 2.5.65.65 1.48.97 2.5.97zm6.92 0c1.01 0 1.84-.32 2.49-.97.64-.64.97-1.48.97-2.5 0-1-.33-1.84-.97-2.48a3.38 3.38 0 00-2.49-.97c-1.02 0-1.85.32-2.5.97a3.36 3.36 0 00-.96 2.48c0 1.02.32 1.86.96 2.5.65.65 1.48.97 2.5.97zm6.93 0c1 0 1.83-.32 2.48-.97.65-.64.97-1.48.97-2.5 0-1-.32-1.84-.97-2.48a3.38 3.38 0 00-2.48-.97c-1.03 0-1.86.32-2.5.97a3.36 3.36 0 00-.97 2.48c0 1.02.32 1.86.97 2.5.64.65 1.47.97 2.5.97zm0 0"/></symbol><symbol overflow="visible" id="04281c1af"><path d="M3.47 17.3zm0-6.93zm0-6.92zm0-6.92zm0-6.92zm0-6.92zm0-6.92zm0-6.93zm0-6.92zm0-6.92zm0-6.94zm0-6.92zm0-6.92zm6.92 83.08zm0-6.93zm0-6.92zm0-6.92zm0-20.76zm0-6.93zm0-6.92zm0-6.92zm0-6.94zm0-6.92zm0-6.92zm6.92 83.08zm0-6.93zm0-6.92zm0-6.92zm0-13.84zm0-20.77zm0-6.92zm0-6.94zm0-6.92zm0-6.92zm6.92 83.08zm0-6.93zm0-6.92zm0-6.92zm0-13.84zm0-6.92zm0-6.93zm0-20.78zm0-6.92zm0-6.92zm6.93 83.08zm0-6.93zm0-6.92zm0-27.68zm0-6.93zm0-6.92zm0-6.92zm0-6.94zm0-6.92zm0-6.92zm6.92 83.08zm0-6.93zm0-6.92zm0-6.92zm0-13.84zm0-6.92zm0-6.93zm0-6.92zm0-6.92zm0-6.94zm0-6.92zm0-6.92zM45 17.3zm0-6.93zm0-6.92zm0-6.92zm0-6.92zm0-6.92zm0-6.92zm0-6.93zm0-6.92zM45-45zm0-6.94zm0-6.92zm0-6.92zM31.16 0c1 0 1.83-.32 2.48-.97.65-.64.97-1.48.97-2.5 0-1-.32-1.83-.97-2.48a3.38 3.38 0 00-2.48-.97c-1.03 0-1.86.32-2.5.97a3.36 3.36 0 00-.97 2.48c0 1.02.32 1.86.97 2.5.64.65 1.47.97 2.5.97zM10.39-6.92c1 0 1.84-.32 2.48-.97.65-.65.97-1.48.97-2.5 0-1-.32-1.84-.96-2.48a3.38 3.38 0 00-2.49-.97c-1.02 0-1.85.32-2.5.96a3.36 3.36 0 00-.97 2.49c0 1.02.32 1.85.97 2.5.65.65 1.48.97 2.5.97zm6.92 0c1.01 0 1.84-.32 2.49-.97.64-.65.97-1.48.97-2.5 0-1-.33-1.84-.97-2.48a3.38 3.38 0 00-2.49-.97c-1.02 0-1.85.32-2.5.96a3.36 3.36 0 00-.97 2.49c0 1.02.32 1.85.97 2.5.65.65 1.48.97 2.5.97zm6.92 0c1.01 0 1.84-.32 2.49-.97.64-.65.97-1.48.97-2.5 0-1-.33-1.84-.97-2.48a3.38 3.38 0 00-2.49-.97c-1.02 0-1.85.32-2.5.96a3.36 3.36 0 00-.96 2.49c0 1.02.32 1.85.96 2.5.65.65 1.48.97 2.5.97zm6.93 0c1 0 1.83-.32 2.48-.97.65-.65.97-1.48.97-2.5 0-1-.32-1.84-.97-2.48a3.38 3.38 0 00-2.48-.97c-1.03 0-1.86.32-2.5.96a3.36 3.36 0 00-.97 2.49c0 1.02.32 1.85.97 2.5.64.65 1.47.97 2.5.97zm6.92 0c1 0 1.83-.32 2.48-.97.65-.65.97-1.48.97-2.5 0-1-.32-1.84-.97-2.48a3.38 3.38 0 00-2.48-.97c-1.03 0-1.86.32-2.5.96a3.36 3.36 0 00-.97 2.49c0 1.02.32 1.85.97 2.5.64.65 1.47.97 2.5.97zm-27.69-6.92c1 0 1.84-.32 2.48-.97.65-.65.97-1.48.97-2.5 0-1.01-.32-1.84-.96-2.49a3.38 3.38 0 00-2.49-.97c-1.02 0-1.85.33-2.5.97a3.36 3.36 0 00-.97 2.49c0 1.02.32 1.85.97 2.5.65.65 1.48.97 2.5.97zm20.77 0c1 0 1.83-.32 2.48-.97.65-.65.97-1.48.97-2.5 0-1.01-.32-1.84-.97-2.49a3.38 3.38 0 00-2.48-.97c-1.03 0-1.86.33-2.5.97a3.36 3.36 0 00-.97 2.49c0 1.02.32 1.85.97 2.5.64.65 1.47.97 2.5.97zM17.3-20.77c1.01 0 1.84-.32 2.49-.96.64-.65.97-1.48.97-2.5 0-1.01-.33-1.84-.97-2.49a3.38 3.38 0 00-2.49-.97c-1.02 0-1.85.33-2.5.97a3.36 3.36 0 00-.97 2.49c0 1.02.32 1.85.97 2.5.65.64 1.48.96 2.5.96zm0-6.92c1.01 0 1.84-.32 2.49-.97.64-.64.97-1.47.97-2.5 0-1-.33-1.83-.97-2.48a3.38 3.38 0 00-2.49-.97c-1.02 0-1.85.32-2.5.97a3.36 3.36 0 00-.97 2.48c0 1.03.32 1.86.97 2.5.65.65 1.48.97 2.5.97zm6.92-6.92c1.01 0 1.84-.32 2.49-.97.64-.64.97-1.47.97-2.5 0-1-.33-1.83-.97-2.48a3.38 3.38 0 00-2.49-.97c-1.02 0-1.85.32-2.5.97a3.36 3.36 0 00-.96 2.48c0 1.03.32 1.86.96 2.5.65.65 1.48.97 2.5.97zm0-6.92c1.01 0 1.84-.32 2.49-.97.64-.64.97-1.48.97-2.5 0-1-.33-1.84-.97-2.48a3.38 3.38 0 00-2.49-.97c-1.02 0-1.85.32-2.5.97a3.36 3.36 0 00-.96 2.48c0 1.02.32 1.86.96 2.5.65.65 1.48.97 2.5.97zm0 0"/></symbol><symbol overflow="visible" id="04281c1ah"><path d="M.47 2.3zm0-.92zm0-.93zm0-.92zm0-.92zm0-.92zm0-.92zm0-.93zm0-.92zm0-.92zm0-.94zm0-.92zm0-.92zM1.39 2.3zm0-.92zm0-.93zm0-.92zm0-.92zm0-.92zm0-.92zm0-.93zm0-.92zm0-1.86zm0-.92zm0-.92zM2.31 2.3zm0-.92zm0-.93zm0-.92zm0-.92zm0-.92zm0-.92zm0-.93zm0-.92zm0-1.86zm0-.92zm0-.92zM3.23 2.3zm0-.92zm0-.93zm0-7.39zm0-.92zm0-.92zM4.16 2.3zm0-.92zm0-.93zm0-.92zm0-.92zm0-.92zm0-.92zm0-.93zm0-.92zm0-1.86zm0-.92zm0-.92zM5.08 2.3zm0-.92zm0-.93zm0-.92zm0-.92zm0-.92zm0-.92zm0-.93zm0-.92zm0-1.86zm0-.92zm0-.92zM6 2.3zm0-.92zm0-.93zm0-.92zm0-.92zm0-.92zm0-.92zm0-.93zm0-.92zM6-6zm0-.94zm0-.92zm0-.92zM3.69 0v-.45-.47H2.77V0H3.69zm0-.92v-.45-.47H2.77V-.92H3.69zm0-.92v-.46-.47H2.77V-1.84H3.69zm0-.93v-.45-.47H2.77V-2.77H3.69zm0-.92v-.45-.47H2.77V-3.69H3.69zm0-.92v-.45-.47H2.77V-4.61H3.69zm-1.85-.92v-.45-.47H.92V-5.53H1.84zm.93 0v-.45-.47H1.85V-5.53H2.76zm.92 0v-.45-.47H2.77V-5.53H3.69zm.92 0v-.45-.47H3.69V-5.53H4.6zm.92 0v-.45-.47H4.61V-5.53H5.53zm0 0"/></symbol><symbol overflow="visible" id="04281c1ai"><path d="M.47 2.3zm0-.92zm0-.93zm0-.92zm0-.92zm0-.92zm0-.92zm0-.93zm0-.92zm0-.92zm0-.94zm0-.92zm0-.92zM1.39 2.3zm0-.92zm0-.93zm0-.92zm0-3.69zm0-.92zm0-.92zm0-.94zm0-.92zm0-.92zM2.31 2.3zm0-.92zm0-.93zm0-1.84zm0-1.84zm0-1.85zm0-.92zm0-.94zm0-.92zm0-.92zM3.23 2.3zm0-.92zm0-.93zm0-1.84zm0-1.84zm0-1.85zm0-.92zm0-.94zm0-.92zm0-.92zM4.16 2.3zm0-.92zm0-.93zm0-1.84zm0-1.84zm0-1.85zm0-.92zm0-.94zm0-.92zm0-.92zM5.08 2.3zm0-.92zm0-.93zm0-1.84zm0-2.77zm0-.92zm0-.92zm0-.94zm0-.92zm0-.92zM6 2.3zm0-.92zm0-.93zm0-.92zm0-.92zm0-.92zm0-.92zm0-.93zm0-.92zM6-6zm0-.94zm0-.92zm0-.92zM2.77 0v-.45-.47H1.85V0H2.76zm.92 0v-.45-.47H2.77V0H3.69zm.92 0v-.45-.47H3.69V0H4.6zm.92 0v-.45-.47H4.61V0H5.53zM1.84-.92v-.45-.47H.92V-.92H1.84zm0-.92v-.46-.47H.92V-1.84H1.84zm.93 0v-.46-.47H1.85V-1.84H2.76zm.92 0v-.46-.47H2.77V-1.84H3.69zm.92 0v-.46-.47H3.69V-1.84H4.6zm.92 0v-.46-.47H4.61V-1.84H5.53zm-3.69-.93v-.45-.47H.92V-2.77H1.84zm3.7 0v-.45-.47H4.6V-2.77H5.53zm-2.77-.92v-.45-.47H1.85V-3.69H2.76zm.92 0v-.45-.47H2.77V-3.69H3.69zm.92 0v-.45-.47H3.69V-3.69H4.6zm0 0"/></symbol><symbol overflow="visible" id="04281c1aj"><path d="M.47 2.3zm0-.92zm0-.93zm0-.92zm0-.92zm0-.92zm0-.92zm0-.93zm0-.92zm0-.92zm0-.94zm0-.92zm0-.92zM1.39 2.3zm0-.92zm0-.93zm0-1.84zm0-.92zm0-.92zm0-1.85zm0-.92zm0-.94zm0-.92zm0-.92zM2.31 2.3zm0-.92zm0-.93zm0-.92zm0-1.84zm0-1.85zm0-.92zm0-.92zm0-.94zm0-.92zm0-.92zM3.23 2.3zm0-.92zm0-.93zm0-.92zm0-.92zm0-1.84zm0-.93zm0-.92zm0-.92zm0-.94zm0-.92zm0-.92zM4.16 2.3zm0-.92zm0-.93zm0-.92zm0-1.84zm0-1.85zm0-.92zm0-.92zm0-.94zm0-.92zm0-.92zM5.08 2.3zm0-.92zm0-.93zm0-1.84zm0-.92zm0-.92zm0-1.85zm0-.92zm0-.94zm0-.92zm0-.92zM6 2.3zm0-.92zm0-.93zm0-.92zm0-.92zm0-.92zm0-.92zm0-.93zm0-.92zM6-6zm0-.94zm0-.92zm0-.92zM1.84 0v-.45-.47H.92V0H1.84zm3.7 0v-.45-.47H4.6V0H5.53zM2.76-.92v-.45-.47H1.85V-.92H2.76zm1.84 0v-.45-.47H3.69V-.92H4.6zm-.92-.92v-.46-.47H2.77V-1.84H3.69zm-.92-.93v-.45-.47H1.85V-2.77H2.76zm1.84 0v-.45-.47H3.69V-2.77H4.6zm-2.77-.92v-.45-.47H.92V-3.69H1.84zm3.7 0v-.45-.47H4.6V-3.69H5.53zm0 0"/></symbol><symbol overflow="visible" id="04281c1ak"><path d="M.47 2.3zm0-.92zm0-.93zm0-.92zm0-.92zm0-.92zm0-.92zm0-.93zm0-.92zm0-.92zm0-.94zm0-.92zm0-.92zM1.39 2.3zm0-.92zm0-.93zm0-.92zm0-.92zm0-.92zm0-.92zm0-1.85zm0-.92zm0-.94zm0-.92zm0-.92zM2.31 2.3zm0-.92zm0-.93zm0-.92zm0-6.47zm0-.92zm0-.92zM3.23 2.3zm0-.92zm0-.93zm0-1.84zm0-.92zm0-.92zm0-1.85zm0-.92zm0-.94zm0-.92zm0-.92zM4.16 2.3zm0-.92zm0-.93zm0-1.84zm0-.92zm0-.92zm0-1.85zm0-.92zm0-.94zm0-.92zm0-.92zM5.08 2.3zm0-.92zm0-.93zm0-.92zm0-1.84zm0-.92zm0-1.85zm0-.92zm0-.94zm0-.92zm0-.92zM6 2.3zm0-.92zm0-.93zm0-.92zm0-.92zm0-.92zm0-.92zm0-.93zm0-.92zM6-6zm0-.94zm0-.92zm0-.92zM3.69 0v-.45-.47H2.77V0H3.69zm.92 0v-.45-.47H3.69V0H4.6zM2.77-.92v-.45-.47H1.85V-.92H2.76zm2.76 0v-.45-.47H4.61V-.92H5.53zm-2.76-.92v-.46-.47H1.85V-1.84H2.76zm0-.93v-.45-.47H1.85V-2.77H2.76zm-.93-.92v-.45-.47H.92V-3.69H1.84zm.93 0v-.45-.47H1.85V-3.69H2.76zm.92 0v-.45-.47H2.77V-3.69H3.69zm.92 0v-.45-.47H3.69V-3.69H4.6zm.92 0v-.45-.47H4.61V-3.69H5.53zM2.77-4.6v-.45-.47H1.85V-4.61H2.76zm0-.92v-.45-.47H1.85V-5.53H2.76zm0 0"/></symbol><symbol overflow="visible" id="04281c1al"><path d="M.47 2.3zm0-.92zm0-.93zm0-.92zm0-.92zm0-.92zm0-.92zm0-.93zm0-.92zm0-.92zm0-.94zm0-.92zm0-.92zM1.39 2.3zm0-.92zm0-.93zm0-.92zm0-.92zm0-.92zm0-.92zm0-.93zm0-.92zm0-.92zm0-.94zm0-.92zm0-.92zM2.31 2.3zm0-.92zm0-.93zm0-.92zm0-.92zm0-.92zm0-.92zm0-.93zm0-.92zm0-.92zm0-.94zm0-.92zm0-.92zM3.23 2.3zm0-.92zm0-.93zm0-2.76zm0-2.77zm0-.92zm0-.94zm0-.92zm0-.92zM4.16 2.3zm0-.92zm0-.93zm0-.92zm0-.92zm0-.92zm0-.92zm0-.93zm0-.92zm0-.92zm0-.94zm0-.92zm0-.92zM5.08 2.3zm0-.92zm0-.93zm0-.92zm0-.92zm0-.92zm0-.92zm0-.93zm0-.92zm0-.92zm0-.94zm0-.92zm0-.92zM6 2.3zm0-.92zm0-.93zm0-.92zm0-.92zm0-.92zm0-.92zm0-.93zm0-.92zM6-6zm0-.94zm0-.92zm0-.92zM3.69 0v-.45-.47H2.77V0H3.69zm0-.92v-.45-.47H2.77V-.92H3.69zm0-1.85v-.45-.47H2.77V-2.77H3.69zm0-.92v-.45-.47H2.77V-3.69H3.69zm0 0"/></symbol><symbol overflow="visible" id="04281c1am"><path d="M.47 2.3zm0-.92zm0-.93zm0-.92zm0-.92zm0-.92zm0-.92zm0-.93zm0-.92zm0-.92zm0-.94zm0-.92zm0-.92zM1.39 2.3zm0-.92zm0-.93zm0-.92zm0-.92zm0-.92zm0-.92zm0-.93zm0-.92zm0-.92zm0-.94zm0-.92zm0-.92zM2.31 2.3zm0-.92zm0-.93zm0-.92zm0-.92zm0-.92zm0-.92zm0-.93zm0-.92zm0-.92zm0-.94zm0-.92zm0-.92zM3.23 2.3zm0-.92zm0-.93zm0-.92zm0-.92zm0-.92zm0-.92zm0-.93zm0-.92zm0-.92zm0-.94zm0-.92zm0-.92zM4.16 2.3zm0-.92zm0-.93zm0-.92zm0-.92zm0-.92zm0-.92zm0-.93zm0-.92zm0-.92zm0-.94zm0-.92zm0-.92zM5.08 2.3zm0-.92zm0-.93zm0-.92zm0-.92zm0-.92zm0-.92zm0-.93zm0-.92zm0-.92zm0-.94zm0-.92zm0-.92zM6 2.3zm0-.92zm0-.93zm0-.92zm0-.92zm0-.92zm0-.92zm0-.93zm0-.92zM6-6zm0-.94zm0-.92zm0-.92zm0 0"/></symbol><symbol overflow="visible" id="04281c1an"><path d="M.47 2.3zm0-.92zm0-.93zm0-.92zm0-.92zm0-.92zm0-.92zm0-.93zm0-.92zm0-.92zm0-.94zm0-.92zm0-.92zM1.39 2.3zm0-.92zm0-.93zm0-1.84zm0-.92zm0-.92zm0-.93zM1.4-6zm0-.94zm0-.92zm0-.92zM2.31 2.3zm0-.92zm0-.93zm0-1.84zm0-.92zm0-.92zm0-.93zm0-1.84zm0-.94zm0-.92zm0-.92zM3.23 2.3zm0-.92zm0-.93zm0-7.39zm0-.92zm0-.92zM4.16 2.3zm0-.92zm0-.93zm0-1.84zm0-.92zm0-.92zm0-.93zm0-.92zm0-.92zm0-.94zm0-.92zm0-.92zM5.08 2.3zm0-.92zm0-.93zm0-1.84zm0-.92zm0-.92zm0-.93zm0-.92zm0-.92zm0-.94zm0-.92zm0-.92zM6 2.3zm0-.92zm0-.93zm0-.92zm0-.92zm0-.92zm0-.92zm0-.93zm0-.92zM6-6zm0-.94zm0-.92zm0-.92zM1.84 0v-.45-.47H.92V0H1.84zm.93 0v-.45-.47H1.85V0H2.76zm.92 0v-.45-.47H2.77V0H3.69zm.92 0v-.45-.47H3.69V0H4.6zm.92 0v-.45-.47H4.61V0H5.53zM3.7-.92v-.45-.47H2.77V-.92H3.69zm0-.92v-.46-.47H2.77V-1.84H3.69zm0-.93v-.45-.47H2.77V-2.77H3.69zm0-.92v-.45-.47H2.77V-3.69H3.69zM1.84-4.6v-.45-.47H.92V-4.61H1.84zm.93 0v-.45-.47H1.85V-4.61H2.76zm.92 0v-.45-.47H2.77V-4.61H3.69zm0-.92v-.45-.47H2.77V-5.53H3.69zm0 0"/></symbol><symbol overflow="visible" id="04281c1ao"><path d="M.47 2.3zm0-.92zm0-.93zm0-.92zm0-.92zm0-.92zm0-.92zm0-.93zm0-.92zm0-.92zm0-.94zm0-.92zm0-.92zM1.39 2.3zm0-.92zm0-.93zm0-.92zm0-2.76zM1.4-6zm0-.94zm0-.92zm0-.92zM2.31 2.3zm0-.92zm0-.93zm0-1.84zm0-.92zm0-1.85zm0-.92zm0-1.86zm0-.92zm0-.92zM3.23 2.3zm0-.92zm0-.93zm0-1.84zm0-.92zm0-1.85zm0-.92zm0-1.86zm0-.92zm0-.92zM4.16 2.3zm0-.92zm0-.93zm0-1.84zm0-.92zm0-1.85zm0-.92zm0-1.86zm0-.92zm0-.92zM5.08 2.3zm0-.92zm0-.93zm0-.92zm0-2.76zm0-2.77zm0-.94zm0-.92zm0-.92zM6 2.3zm0-.92zm0-.93zm0-.92zm0-.92zm0-.92zm0-.92zm0-.93zm0-.92zM6-6zm0-.94zm0-.92zm0-.92zM2.77 0v-.45-.47H1.85V0H2.76zm.92 0v-.45-.47H2.77V0H3.69zm.92 0v-.45-.47H3.69V0H4.6zM1.84-.92v-.45-.47H.92V-.92H1.84zm3.7 0v-.45-.47H4.6V-.92H5.53zm-3.7-.92v-.46-.47H.92V-1.84H1.84zm3.7 0v-.46-.47H4.6V-1.84H5.53zm-2.77-.93v-.45-.47H1.85V-2.77H2.76zm.92 0v-.45-.47H2.77V-2.77H3.69zm.92 0v-.45-.47H3.69V-2.77H4.6zm-2.77-.92v-.45-.47H.92V-3.69H1.84zm3.7 0v-.45-.47H4.6V-3.69H5.53zm-3.7-.92v-.45-.47H.92V-4.61H1.84zm3.7 0v-.45-.47H4.6V-4.61H5.53zm-2.77-.92v-.45-.47H1.85V-5.53H2.76zm.92 0v-.45-.47H2.77V-5.53H3.69zm.92 0v-.45-.47H3.69V-5.53H4.6zm0 0"/></symbol><symbol overflow="visible" id="04281c1ap"><path d="M.47 2.3zm0-.92zm0-.93zm0-.92zm0-.92zm0-.92zm0-.92zm0-.93zm0-.92zm0-.92zm0-.94zm0-.92zm0-.92zM1.39 2.3zm0-.92zm0-.93zm0-.92zm0-1.84zm0-.92zm0-.93zm0-.92zm0-.92zm0-.94zm0-.92zm0-.92zM2.31 2.3zm0-.92zm0-.93zm0-1.84zm0-1.84zm0-1.85zm0-.92zm0-.94zm0-.92zm0-.92zM3.23 2.3zm0-.92zm0-.93zm0-1.84zm0-1.84zm0-1.85zm0-.92zm0-.94zm0-.92zm0-.92zM4.16 2.3zm0-.92zm0-.93zm0-1.84zm0-1.84zm0-1.85zm0-.92zm0-.94zm0-.92zm0-.92zM5.08 2.3zm0-.92zm0-.93zm0-.92zm0-3.69zm0-.92zm0-.92zm0-.94zm0-.92zm0-.92zM6 2.3zm0-.92zm0-.93zm0-.92zm0-.92zm0-.92zm0-.92zm0-.93zm0-.92zM6-6zm0-.94zm0-.92zm0-.92zM2.77 0v-.45-.47H1.85V0H2.76zm.92 0v-.45-.47H2.77V0H3.69zm.92 0v-.45-.47H3.69V0H4.6zM1.84-.92v-.45-.47H.92V-.92H1.84zm3.7 0v-.45-.47H4.6V-.92H5.53zm-2.77-.92v-.46-.47H1.85V-1.84H2.76zm.92 0v-.46-.47H2.77V-1.84H3.69zm.92 0v-.46-.47H3.69V-1.84H4.6zm.92 0v-.46-.47H4.61V-1.84H5.53zm0-.93v-.45-.47H4.61V-2.77H5.53zm-2.76-.92v-.45-.47H1.85V-3.69H2.76zm.92 0v-.45-.47H2.77V-3.69H3.69zm.92 0v-.45-.47H3.69V-3.69H4.6zm0 0"/></symbol><symbol overflow="visible" id="04281c1aq"><path d="M.47 2.3zm0-.92zm0-.93zm0-.92zm0-.92zm0-.92zm0-.92zm0-.93zm0-.92zm0-.92zm0-.94zm0-.92zm0-.92zM1.39 2.3zm0-.92zm0-.93zm0-1.84zm0-.92zm0-.92zM1.4-6zm0-.94zm0-.92zm0-.92zM2.31 2.3zm0-.92zm0-.93zm0-2.76zm0-.92zm0-.93zm0-.92zm0-1.86zm0-.92zm0-.92zM3.23 2.3zm0-.92zm0-.93zm0-1.84zm0-1.84zm0-.93zm0-.92zm0-1.86zm0-.92zm0-.92zM4.16 2.3zm0-.92zm0-.93zm0-1.84zm0-.92zm0-1.85zm0-.92zm0-1.86zm0-.92zm0-.92zM5.08 2.3zm0-.92zm0-.93zm0-1.84zm0-.92zm0-.92zm0-2.77zm0-.94zm0-.92zm0-.92zM6 2.3zm0-.92zm0-.93zm0-.92zm0-.92zm0-.92zm0-.92zm0-.93zm0-.92zM6-6zm0-.94zm0-.92zm0-.92zM1.84 0v-.45-.47H.92V0H1.84zm.93 0v-.45-.47H1.85V0H2.76zm.92 0v-.45-.47H2.77V0H3.69zm.92 0v-.45-.47H3.69V0H4.6zm.92 0v-.45-.47H4.61V0H5.53zM2.77-.92v-.45-.47H1.85V-.92H2.76zm.92-.92v-.46-.47H2.77V-1.84H3.69zm.92-.93v-.45-.47H3.69V-2.77H4.6zm-2.77-.92v-.45-.47H.92V-3.69H1.84zm3.7 0v-.45-.47H4.6V-3.69H5.53zm-3.7-.92v-.45-.47H.92V-4.61H1.84zm3.7 0v-.45-.47H4.6V-4.61H5.53zm-2.77-.92v-.45-.47H1.85V-5.53H2.76zm.92 0v-.45-.47H2.77V-5.53H3.69zm.92 0v-.45-.47H3.69V-5.53H4.6zm0 0"/></symbol><symbol overflow="visible" id="04281c1ar"><path d="M.47 2.3zm0-.92zm0-.93zm0-.92zm0-.92zm0-.92zm0-.92zm0-.93zm0-.92zm0-.92zm0-.94zm0-.92zm0-.92zM1.39 2.3zm0-.92zm0-.93zm0-.92zm0-2.76zm0-.93zm0-.92zm0-.92zm0-.94zm0-.92zm0-.92zM2.31 2.3zm0-.92zm0-.93zm0-.92zm0-1.84zm0-2.77zm0-.92zm0-.94zm0-.92zm0-.92zM3.23 2.3zm0-.92zm0-.93zm0-.92zm0-1.84zm0-.92zm0-.93zm0-2.78zm0-.92zm0-.92zM4.16 2.3zm0-.92zm0-.93zm0-3.68zm0-.93zm0-.92zm0-.92zm0-.94zm0-.92zm0-.92zM5.08 2.3zm0-.92zm0-.93zm0-.92zm0-1.84zm0-.92zm0-.93zm0-.92zm0-.92zm0-.94zm0-.92zm0-.92zM6 2.3zm0-.92zm0-.93zm0-.92zm0-.92zm0-.92zm0-.92zm0-.93zm0-.92zM6-6zm0-.94zm0-.92zm0-.92zM4.6 0v-.45-.47H3.7V0H4.6zM1.85-.92v-.45-.47H.92V-.92H1.84zm.93 0v-.45-.47H1.85V-.92H2.76zm.92 0v-.45-.47H2.77V-.92H3.69zm.92 0v-.45-.47H3.69V-.92H4.6zm.92 0v-.45-.47H4.61V-.92H5.53zm-3.69-.92v-.46-.47H.92V-1.84H1.84zm2.77 0v-.46-.47H3.69V-1.84H4.6zm-1.84-.93v-.45-.47H1.85V-2.77H2.76zm0-.92v-.45-.47H1.85V-3.69H2.76zm.92-.92v-.45-.47H2.77V-4.61H3.69zm0-.92v-.45-.47H2.77V-5.53H3.69zm0 0"/></symbol><symbol overflow="visible" id="04281c1as"><path d="M.47 2.3zm0-.92zm0-.93zm0-.92zm0-.92zm0-.92zm0-.92zm0-.93zm0-.92zm0-.92zm0-.94zm0-.92zm0-.92zM1.39 2.3zm0-.92zm0-.93zm0-.92zm0-3.69zm0-.92zm0-.92zm0-.94zm0-.92zm0-.92zM2.31 2.3zm0-.92zm0-.93zm0-1.84zm0-.92zm0-.92zm0-1.85zm0-.92zm0-.94zm0-.92zm0-.92zM3.23 2.3zm0-.92zm0-.93zm0-1.84zm0-.92zm0-.92zm0-1.85zm0-.92zm0-.94zm0-.92zm0-.92zM4.16 2.3zm0-.92zm0-.93zm0-1.84zm0-.92zm0-.92zm0-1.85zm0-.92zm0-.94zm0-.92zm0-.92zM5.08 2.3zm0-.92zm0-.93zm0-.92zm0-3.69zm0-.92zm0-.92zm0-.94zm0-.92zm0-.92zM6 2.3zm0-.92zm0-.93zm0-.92zm0-.92zm0-.92zm0-.92zm0-.93zm0-.92zM6-6zm0-.94zm0-.92zm0-.92zM2.77 0v-.45-.47H1.85V0H2.76zm.92 0v-.45-.47H2.77V0H3.69zm.92 0v-.45-.47H3.69V0H4.6zM1.84-.92v-.45-.47H.92V-.92H1.84zm3.7 0v-.45-.47H4.6V-.92H5.53zm-3.7-.92v-.46-.47H.92V-1.84H1.84zm3.7 0v-.46-.47H4.6V-1.84H5.53zm-3.7-.93v-.45-.47H.92V-2.77H1.84zm3.7 0v-.45-.47H4.6V-2.77H5.53zm-2.77-.92v-.45-.47H1.85V-3.69H2.76zm.92 0v-.45-.47H2.77V-3.69H3.69zm.92 0v-.45-.47H3.69V-3.69H4.6zm0 0"/></symbol><symbol overflow="visible" id="04281c1at"><path d="M.47 2.3zm0-.92zm0-.93zm0-.92zm0-.92zm0-.92zm0-.92zm0-.93zm0-.92zm0-.92zm0-.94zm0-.92zm0-.92zM1.39 2.3zm0-.92zm0-.93zm0-7.39zm0-.92zm0-.92zM2.31 2.3zm0-.92zm0-.93zm0-.92zm0-.92zm0-.92zm0-1.85zm0-.92zm0-1.86zm0-.92zm0-.92zM3.23 2.3zm0-.92zm0-.93zm0-.92zm0-.92zm0-.92zm0-1.85zm0-.92zm0-1.86zm0-.92zm0-.92zM4.16 2.3zm0-.92zm0-.93zm0-.92zm0-.92zm0-.92zm0-1.85zm0-.92zm0-1.86zm0-.92zm0-.92zM5.08 2.3zm0-.92zm0-.93zm0-.92zm0-.92zm0-.92zm0-.92zm0-.93zm0-.92zm0-1.86zm0-.92zm0-.92zM6 2.3zm0-.92zm0-.93zm0-.92zm0-.92zm0-.92zm0-.92zm0-.93zm0-.92zM6-6zm0-.94zm0-.92zm0-.92zM1.84 0v-.45-.47H.92V0H1.84zm0-.92v-.45-.47H.92V-.92H1.84zm0-.92v-.46-.47H.92V-1.84H1.84zm0-.93v-.45-.47H.92V-2.77H1.84zm.93 0v-.45-.47H1.85V-2.77H2.76zm.92 0v-.45-.47H2.77V-2.77H3.69zm.92 0v-.45-.47H3.69V-2.77H4.6zm-2.77-.92v-.45-.47H.92V-3.69H1.84zm0-.92v-.45-.47H.92V-4.61H1.84zm0-.92v-.45-.47H.92V-5.53H1.84zm.93 0v-.45-.47H1.85V-5.53H2.76zm.92 0v-.45-.47H2.77V-5.53H3.69zm.92 0v-.45-.47H3.69V-5.53H4.6zm.92 0v-.45-.47H4.61V-5.53H5.53zm0 0"/></symbol><symbol overflow="visible" id="04281c1au"><path d="M.47 2.3zm0-.92zm0-.93zm0-.92zm0-.92zm0-.92zm0-.92zm0-.93zm0-.92zm0-.92zm0-.94zm0-.92zm0-.92zM1.39 2.3zm0-.92zm0-.93zm0-.92zm0-4.6zm0-.93zm0-.94zm0-.92zm0-.92zM2.31 2.3zm0-.92zm0-.93zm0-1.84zm0-.92zm0-.92zm0-.93zm0-.92zm0-.92zm0-.94zm0-.92zm0-.92zM3.23 2.3zm0-.92zm0-.93zm0-1.84zm0-.92zm0-.92zm0-.93zm0-.92zm0-.92zm0-.94zm0-.92zm0-.92zM4.16 2.3zm0-.92zm0-.93zm0-1.84zm0-.92zm0-.92zm0-.93zm0-.92zm0-.92zm0-.94zm0-.92zm0-.92zM5.08 2.3zm0-.92zm0-.93zm0-.92zm0-4.6zm0-.93zm0-.94zm0-.92zm0-.92zM6 2.3zm0-.92zm0-.93zm0-.92zm0-.92zm0-.92zm0-.92zm0-.93zm0-.92zM6-6zm0-.94zm0-.92zm0-.92zM2.77 0v-.45-.47H1.85V0H2.76zm.92 0v-.45-.47H2.77V0H3.69zm.92 0v-.45-.47H3.69V0H4.6zM1.84-.92v-.45-.47H.92V-.92H1.84zm3.7 0v-.45-.47H4.6V-.92H5.53zm-3.7-.92v-.46-.47H.92V-1.84H1.84zm3.7 0v-.46-.47H4.6V-1.84H5.53zm-3.7-.93v-.45-.47H.92V-2.77H1.84zm3.7 0v-.45-.47H4.6V-2.77H5.53zm-3.7-.92v-.45-.47H.92V-3.69H1.84zm3.7 0v-.45-.47H4.6V-3.69H5.53zm0 0"/></symbol><symbol overflow="visible" id="04281c1av"><path d="M.47 2.3zm0-.92zm0-.93zm0-.92zm0-.92zm0-.92zm0-.92zm0-.93zm0-.92zm0-.92zm0-.94zm0-.92zm0-.92zM1.39 2.3zm0-.92zm0-.93zm0-1.84zm0-.92zm0-.92zm0-1.85zm0-.92zm0-.94zm0-.92zm0-.92zM2.31 2.3zm0-.92zm0-.93zm0-5.53zm0-.92zm0-.94zm0-.92zm0-.92zM3.23 2.3zm0-.92zm0-.93zm0-1.84zm0-.92zm0-1.85zm0-.92zm0-.92zm0-.94zm0-.92zm0-.92zM4.16 2.3zm0-.92zm0-.93zm0-.92zm0-.92zm0-.92zm0-.92zm0-1.85zm0-.92zm0-.94zm0-.92zm0-.92zM5.08 2.3zm0-.92zm0-.93zm0-.92zm0-.92zm0-.92zm0-2.77zm0-.92zm0-.94zm0-.92zm0-.92zM6 2.3zm0-.92zm0-.93zm0-.92zm0-.92zm0-.92zm0-.92zm0-.93zm0-.92zM6-6zm0-.94zm0-.92zm0-.92zM1.84 0v-.45-.47H.92V0H1.84zm.93 0v-.45-.47H1.85V0H2.76zm.92 0v-.45-.47H2.77V0H3.69zm-.92-.92v-.45-.47H1.85V-.92H2.76zm0-.92v-.46-.47H1.85V-1.84H2.76zm0-.93v-.45-.47H1.85V-2.77H2.76zm.92 0v-.45-.47H2.77V-2.77H3.69zm1.84 0v-.45-.47H4.61V-2.77H5.53zm-3.69-.92v-.45-.47H.92V-3.69H1.84zm.93 0v-.45-.47H1.85V-3.69H2.76zm1.84 0v-.45-.47H3.69V-3.69H4.6zm.92 0v-.45-.47H4.61V-3.69H5.53zm0 0"/></symbol><symbol overflow="visible" id="04281c1aw"><path d="M.47 2.3zm0-.92zm0-.93zm0-.92zm0-.92zm0-.92zm0-.92zm0-.93zm0-.92zm0-.92zm0-.94zm0-.92zm0-.92zM1.39 2.3zm0-.92zm0-.93zm0-.92zM1.4-6zm0-.94zm0-.92zm0-.92zM2.31 2.3zm0-.92zm0-.93zm0-1.84zm0-.92zm0-.92zm0-.93zm0-.92zm0-1.86zm0-.92zm0-.92zM3.23 2.3zm0-.92zm0-.93zm0-1.84zm0-.92zm0-.92zm0-.93zm0-.92zm0-1.86zm0-.92zm0-.92zM4.16 2.3zm0-.92zm0-.93zm0-1.84zm0-.92zm0-.92zm0-.93zm0-.92zm0-1.86zm0-.92zm0-.92zM5.08 2.3zm0-.92zm0-.93zm0-.92zm0-5.53zm0-.94zm0-.92zm0-.92zM6 2.3zm0-.92zm0-.93zm0-.92zm0-.92zm0-.92zm0-.92zm0-.93zm0-.92zM6-6zm0-.94zm0-.92zm0-.92zM2.77 0v-.45-.47H1.85V0H2.76zm.92 0v-.45-.47H2.77V0H3.69zm.92 0v-.45-.47H3.69V0H4.6zM1.84-.92v-.45-.47H.92V-.92H1.84zm3.7 0v-.45-.47H4.6V-.92H5.53zm-3.7-.92v-.46-.47H.92V-1.84H1.84zm3.7 0v-.46-.47H4.6V-1.84H5.53zm-3.7-.93v-.45-.47H.92V-2.77H1.84zm3.7 0v-.45-.47H4.6V-2.77H5.53zm-3.7-.92v-.45-.47H.92V-3.69H1.84zm3.7 0v-.45-.47H4.6V-3.69H5.53zm-3.7-.92v-.45-.47H.92V-4.61H1.84zm3.7 0v-.45-.47H4.6V-4.61H5.53zm-2.77-.92v-.45-.47H1.85V-5.53H2.76zm.92 0v-.45-.47H2.77V-5.53H3.69zm.92 0v-.45-.47H3.69V-5.53H4.6zm0 0"/></symbol><symbol overflow="visible" id="04281c1ax"><path d="M.47 2.3zm0-.92zm0-.93zm0-.92zm0-.92zm0-.92zm0-.92zm0-.93zm0-.92zm0-.92zm0-.94zm0-.92zm0-.92zM1.39 2.3zm0-.92zm0-.93zm0-.92zm0-3.69zm0-.92zm0-.92zm0-.94zm0-.92zm0-.92zM2.31 2.3zm0-.92zm0-.93zm0-1.84zm0-.92zm0-.92zm0-1.85zm0-.92zm0-.94zm0-.92zm0-.92zM3.23 2.3zm0-.92zm0-.93zm0-1.84zm0-.92zm0-.92zm0-1.85zm0-.92zm0-.94zm0-.92zm0-.92zM4.16 2.3zm0-.92zm0-.93zm0-1.84zm0-.92zm0-.92zm0-1.85zm0-.92zm0-.94zm0-.92zm0-.92zM5.08 2.3zm0-.92zm0-.93zm0-.92zm0-6.47zm0-.92zm0-.92zM6 2.3zm0-.92zm0-.93zm0-.92zm0-.92zm0-.92zm0-.92zm0-.93zm0-.92zM6-6zm0-.94zm0-.92zm0-.92zM2.77 0v-.45-.47H1.85V0H2.76zm.92 0v-.45-.47H2.77V0H3.69zm.92 0v-.45-.47H3.69V0H4.6zM1.84-.92v-.45-.47H.92V-.92H1.84zm3.7 0v-.45-.47H4.6V-.92H5.53zm-3.7-.92v-.46-.47H.92V-1.84H1.84zm3.7 0v-.46-.47H4.6V-1.84H5.53zm-3.7-.93v-.45-.47H.92V-2.77H1.84zm3.7 0v-.45-.47H4.6V-2.77H5.53zm-2.77-.92v-.45-.47H1.85V-3.69H2.76zm.92 0v-.45-.47H2.77V-3.69H3.69zm.92 0v-.45-.47H3.69V-3.69H4.6zm.92 0v-.45-.47H4.61V-3.69H5.53zm0-.92v-.45-.47H4.61V-4.61H5.53zm0-.92v-.45-.47H4.61V-5.53H5.53zm0 0"/></symbol><symbol overflow="visible" id="04281c1ay"><path d="M.47 2.3zm0-.92zm0-.93zm0-.92zm0-.92zm0-.92zm0-.92zm0-.93zm0-.92zm0-.92zm0-.94zm0-.92zm0-.92zM1.39 2.3zm0-.92zm0-.93zm0-1.84zm0-.92zm0-.92zm0-1.85zm0-.92zm0-.94zm0-.92zm0-.92zM2.31 2.3zm0-.92zm0-.93zm0-1.84zm0-.92zm0-.92zm0-1.85zm0-.92zm0-.94zm0-.92zm0-.92zM3.23 2.3zm0-.92zm0-.93zm0-5.53zm0-2.78zm0-.92zM4.16 2.3zm0-.92zm0-.93zm0-1.84zm0-.92zm0-.92zm0-.93zm0-.92zm0-.92zm0-.94zm0-.92zm0-.92zM5.08 2.3zm0-.92zm0-.93zm0-1.84zm0-.92zm0-.92zm0-.93zm0-.92zm0-.92zm0-.94zm0-.92zm0-.92zM6 2.3zm0-.92zm0-.93zm0-.92zm0-.92zm0-.92zm0-.92zm0-.93zm0-.92zM6-6zm0-.94zm0-.92zm0-.92zM1.84 0v-.45-.47H.92V0H1.84zm.93 0v-.45-.47H1.85V0H2.76zm.92 0v-.45-.47H2.77V0H3.69zm.92 0v-.45-.47H3.69V0H4.6zm.92 0v-.45-.47H4.61V0H5.53zM3.7-.92v-.45-.47H2.77V-.92H3.69zm0-.92v-.46-.47H2.77V-1.84H3.69zm0-.93v-.45-.47H2.77V-2.77H3.69zm-1.85-.92v-.45-.47H.92V-3.69H1.84zm.93 0v-.45-.47H1.85V-3.69H2.76zm.92 0v-.45-.47H2.77V-3.69H3.69zm0-1.84v-.45-.47H2.77V-5.53H3.69zm0-.94v-.45-.47H2.77V-6.47H3.69zm0 0"/></symbol><symbol overflow="visible" id="04281c1az"><path d="M.47 2.3zm0-.92zm0-.93zm0-.92zm0-.92zm0-.92zm0-.92zm0-.93zm0-.92zm0-.92zm0-.94zm0-.92zm0-.92zM1.39 2.3zm0-.92zm0-.93zm0-4.6zm0-.93zm0-.92zm0-.94zm0-.92zm0-.92zM2.31 2.3zm0-.92zm0-.93zm0-.92zm0-.92zm0-.92zm0-.92zm0-1.85zm0-.92zm0-.94zm0-.92zm0-.92zM3.23 2.3zm0-.92zm0-.93zm0-.92zm0-.92zm0-.92zm0-.92zm0-1.85zm0-.92zm0-.94zm0-.92zm0-.92zM4.16 2.3zm0-.92zm0-.93zm0-.92zm0-.92zm0-.92zm0-.92zm0-1.85zm0-.92zm0-.94zm0-.92zm0-.92zM5.08 2.3zm0-.92zm0-.93zm0-4.6zm0-.93zm0-.92zm0-.94zm0-.92zm0-.92zM6 2.3zm0-.92zm0-.93zm0-.92zm0-.92zm0-.92zm0-.92zm0-.93zm0-.92zM6-6zm0-.94zm0-.92zm0-.92zM1.84 0v-.45-.47H.92V0H1.84zm3.7 0v-.45-.47H4.6V0H5.53zm-3.7-.92v-.45-.47H.92V-.92H1.84zm3.7 0v-.45-.47H4.6V-.92H5.53zm-3.7-.92v-.46-.47H.92V-1.84H1.84zm3.7 0v-.46-.47H4.6V-1.84H5.53zm-3.7-.93v-.45-.47H.92V-2.77H1.84zm3.7 0v-.45-.47H4.6V-2.77H5.53zm-2.77-.92v-.45-.47H1.85V-3.69H2.76zm.92 0v-.45-.47H2.77V-3.69H3.69zm.92 0v-.45-.47H3.69V-3.69H4.6zm0 0"/></symbol><symbol overflow="visible" id="04281c1aA"><path d="M.47 2.3zm0-.92zm0-.93zm0-.92zm0-.92zm0-.92zm0-.92zm0-.93zm0-.92zm0-.92zm0-.94zm0-.92zm0-.92zM1.39 2.3zm0-.92zm0-.93zm0-1.84zm0-.92zm0-.92zm0-.93zm0-.92zm0-1.86zm0-.92zm0-.92zM2.31 2.3zm0-.92zm0-.93zm0-1.84zm0-.92zm0-.92zm0-.93zm0-.92zm0-1.86zm0-.92zm0-.92zM3.23 2.3zm0-.92zm0-.93zm0-7.39zm0-.92zm0-.92zM4.16 2.3zm0-.92zm0-.93zm0-1.84zm0-.92zm0-.92zm0-.93zm0-.92zm0-.92zm0-.94zm0-.92zm0-.92zM5.08 2.3zm0-.92zm0-.93zm0-1.84zm0-.92zm0-.92zm0-.93zm0-.92zm0-.92zm0-.94zm0-.92zm0-.92zM6 2.3zm0-.92zm0-.93zm0-.92zm0-.92zm0-.92zm0-.92zm0-.93zm0-.92zM6-6zm0-.94zm0-.92zm0-.92zM1.84 0v-.45-.47H.92V0H1.84zm.93 0v-.45-.47H1.85V0H2.76zm.92 0v-.45-.47H2.77V0H3.69zm.92 0v-.45-.47H3.69V0H4.6zm.92 0v-.45-.47H4.61V0H5.53zM3.7-.92v-.45-.47H2.77V-.92H3.69zm0-.92v-.46-.47H2.77V-1.84H3.69zm0-.93v-.45-.47H2.77V-2.77H3.69zm0-.92v-.45-.47H2.77V-3.69H3.69zm0-.92v-.45-.47H2.77V-4.61H3.69zm-1.85-.92v-.45-.47H.92V-5.53H1.84zm.93 0v-.45-.47H1.85V-5.53H2.76zm.92 0v-.45-.47H2.77V-5.53H3.69zm0 0"/></symbol><symbol overflow="visible" id="04281c1aB"><path d="M.47 2.3zm0-.92zm0-.93zm0-.92zm0-.92zm0-.92zm0-.92zm0-.93zm0-.92zm0-.92zm0-.94zm0-.92zm0-.92zM1.39 2.3zm0-.92zm0-.93zm0-1.84zm0-.92zm0-1.85zm0-.92zm0-.92zm0-.94zm0-.92zm0-.92zM2.31 2.3zm0-.92zm0-.93zm0-1.84zm0-1.84zm0-1.85zm0-.92zm0-.94zm0-.92zm0-.92zM3.23 2.3zm0-.92zm0-.93zm0-1.84zm0-1.84zm0-1.85zm0-.92zm0-.94zm0-.92zm0-.92zM4.16 2.3zm0-.92zm0-.93zm0-1.84zm0-1.84zm0-1.85zm0-.92zm0-.94zm0-.92zm0-.92zM5.08 2.3zm0-.92zm0-.93zm0-.92zm0-2.76zm0-1.85zm0-.92zm0-.94zm0-.92zm0-.92zM6 2.3zm0-.92zm0-.93zm0-.92zm0-.92zm0-.92zm0-.92zm0-.93zm0-.92zM6-6zm0-.94zm0-.92zm0-.92zM1.84 0v-.45-.47H.92V0H1.84zm.93 0v-.45-.47H1.85V0H2.76zm.92 0v-.45-.47H2.77V0H3.69zm.92 0v-.45-.47H3.69V0H4.6zm.92-.92v-.45-.47H4.61V-.92H5.53zm-2.76-.92v-.46-.47H1.85V-1.84H2.76zm.92 0v-.46-.47H2.77V-1.84H3.69zm.92 0v-.46-.47H3.69V-1.84H4.6zm.92 0v-.46-.47H4.61V-1.84H5.53zm-3.69-.93v-.45-.47H.92V-2.77H1.84zm.93-.92v-.45-.47H1.85V-3.69H2.76zm.92 0v-.45-.47H2.77V-3.69H3.69zm.92 0v-.45-.47H3.69V-3.69H4.6zm.92 0v-.45-.47H4.61V-3.69H5.53zm0 0"/></symbol><symbol overflow="visible" id="04281c1aC"><path d="M.47 2.3zm0-.92zm0-.93zm0-.92zm0-.92zm0-.92zm0-.92zm0-.93zm0-.92zm0-.92zm0-.94zm0-.92zm0-.92zM1.39 2.3zm0-.92zm0-.93zm0-.92zm0-.92zm0-.92zm0-.92zm0-.93zm0-.92zm0-.92zm0-.94zm0-.92zm0-.92zM2.31 2.3zm0-.92zm0-.93zm0-.92zm0-.92zm0-.92zm0-.92zm0-.93zm0-.92zm0-.92zm0-.94zm0-.92zm0-.92zM3.23 2.3zm0-.92zm0-7.38zm0-.94zm0-.92zm0-.92zM4.16 2.3zm0-1.85zm0-.92zm0-.92zm0-.92zm0-.92zm0-.93zm0-.92zm0-1.86zm0-.92zm0-.92zM5.08 2.3zm0-.92zm0-.93zm0-.92zm0-.92zm0-.92zm0-.92zm0-.93zm0-.92zm0-.92zm0-.94zm0-.92zm0-.92zM6 2.3zm0-.92zm0-.93zm0-.92zm0-.92zm0-.92zm0-.92zm0-.93zm0-.92zM6-6zm0-.94zm0-.92zm0-.92zM4.6 1.84v-.47-.45H3.7V1.84H4.6zM3.7.92V.45 0H2.77V.92H3.69zm0-.92v-.45-.47H2.77V0H3.69zm0-.92v-.45-.47H2.77V-.92H3.69zm0-.92v-.46-.47H2.77V-1.84H3.69zm0-.93v-.45-.47H2.77V-2.77H3.69zm0-.92v-.45-.47H2.77V-3.69H3.69zm0-.92v-.45-.47H2.77V-4.61H3.69zm.92-.92v-.45-.47H3.69V-5.53H4.6zm0 0"/></symbol><symbol overflow="visible" id="04281c1aD"><path d="M.47 2.3zm0-.92zm0-.93zm0-.92zm0-.92zm0-.92zm0-.92zm0-.93zm0-.92zm0-.92zm0-.94zm0-.92zm0-.92zM1.39 2.3zm0-.92zm0-.93zm0-.92zm0-.92zm0-.92zm0-.92zm0-.93zm0-.92zm0-.92zm0-.94zm0-.92zm0-.92zM2.31 2.3zm0-1.85zm0-.92zm0-.92zm0-.92zm0-.92zm0-.93zm0-.92zm0-1.86zm0-.92zm0-.92zM3.23 2.3zm0-.92zm0-7.38zm0-.94zm0-.92zm0-.92zM4.16 2.3zm0-.92zm0-.93zm0-.92zm0-.92zm0-.92zm0-.92zm0-.93zm0-.92zm0-.92zm0-.94zm0-.92zm0-.92zM5.08 2.3zm0-.92zm0-.93zm0-.92zm0-.92zm0-.92zm0-.92zm0-.93zm0-.92zm0-.92zm0-.94zm0-.92zm0-.92zM6 2.3zm0-.92zm0-.93zm0-.92zm0-.92zm0-.92zm0-.92zm0-.93zm0-.92zM6-6zm0-.94zm0-.92zm0-.92zM2.77 1.84v-.47-.45H1.85V1.84H2.76zm.92-.92V.45 0H2.77V.92H3.69zm0-.92v-.45-.47H2.77V0H3.69zm0-.92v-.45-.47H2.77V-.92H3.69zm0-.92v-.46-.47H2.77V-1.84H3.69zm0-.93v-.45-.47H2.77V-2.77H3.69zm0-.92v-.45-.47H2.77V-3.69H3.69zm0-.92v-.45-.47H2.77V-4.61H3.69zm-.92-.92v-.45-.47H1.85V-5.53H2.76zm0 0"/></symbol></defs><g fill="#ff81bf"><g fill-opacity=".3"><use xlink:href="#04281c1aa" x="130.3846" y="152"/><use xlink:href="#04281c1ab" x="178.8496" y="152"/></g><use xlink:href="#04281c1ac" x="227.3077" y="152"/><g fill-opacity=".3"><use xlink:href="#04281c1ad" x="275.7692" y="152"/><use xlink:href="#04281c1ae" x="324.2342" y="152"/><use xlink:href="#04281c1af" x="372.6992" y="152"/></g><use xlink:href="#04281c1ag" x="421.1538" y="152"/><use xlink:href="#04281c1ah" x="258" y="249"/><use xlink:href="#04281c1ai" x="264.462" y="249"/><use xlink:href="#04281c1aj" x="270.924" y="249"/><use xlink:href="#04281c1ak" x="277.386" y="249"/><use xlink:href="#04281c1al" x="283.848" y="249"/><use xlink:href="#04281c1am" x="290.31" y="249"/><use xlink:href="#04281c1an" x="296.772" y="249"/><use xlink:href="#04281c1ao" x="303.234" y="249"/><use xlink:href="#04281c1ap" x="309.696" y="249"/><use xlink:href="#04281c1am" x="316.158" y="249"/><use xlink:href="#04281c1aq" x="322.62" y="249"/><use xlink:href="#04281c1ar" x="329.082" y="249"/><use xlink:href="#04281c1as" x="335.544" y="249"/><g><use xlink:href="#04281c1am" x="342" y="249"/></g><g><use xlink:href="#04281c1at" x="222.4615" y="265"/><use xlink:href="#04281c1ai" x="228.9235" y="265"/><use xlink:href="#04281c1ap" x="235.3855" y="265"/><use xlink:href="#04281c1ak" x="241.8475" y="265"/><use xlink:href="#04281c1au" x="248.3095" y="265"/><use xlink:href="#04281c1av" x="254.7715" y="265"/><use xlink:href="#04281c1ai" x="261.2335" y="265"/><use xlink:href="#04281c1al" x="267.6955" y="265"/><use xlink:href="#04281c1am" x="274.1575" y="265"/><use xlink:href="#04281c1aw" x="280.6195" y="265"/><use xlink:href="#04281c1av" x="287.0815" y="265"/><use xlink:href="#04281c1ax" x="293.5435" y="265"/><use xlink:href="#04281c1ay" x="300.0055" y="265"/><use xlink:href="#04281c1az" x="306.4675" y="265"/><use xlink:href="#04281c1ap" x="312.9295" y="265"/><use xlink:href="#04281c1aA" x="319.3915" y="265"/><use xlink:href="#04281c1aB" x="325.8535" y="265"/><use xlink:href="#04281c1am" x="332.3155" y="265"/><use xlink:href="#04281c1aC" x="338.7775" y="265"/><use xlink:href="#04281c1as" x="345.2395" y="265"/><use xlink:href="#04281c1av" x="351.7015" y="265"/><use xlink:href="#04281c1ax" x="358.1635" y="265"/><use xlink:href="#04281c1az" x="364.6255" y="265"/><use xlink:href="#04281c1aD" x="371.0875" y="265"/></g></g></svg>