<?xml version='1.0' encoding='UTF-8'?>
<svg xmlns="http://www.w3.org/2000/svg" xmlns:xlink="http://www.w3.org/1999/xlink" width="600px" height="300px" viewBox="0 0 600 300" x="0px" y="0px" enable-background="new 0 0 600 300"><defs><symbol overflow="visible" id="984e851fa"><path d="M3.47 17.3zm0-6.93zm0-6.92zm0-6.92zm0-6.92zm0-6.92zm0-6.92zm0-6.93zm0-6.92zm0-6.92zm0-6.94zm0-6.92zm0-6.92zm6.92 83.08zm0-6.93zm0-6.92zm0-6.92zm0-34.6zm0-6.93zm0-6.94zm0-6.92zm0-6.92zm6.92 83.08zm0-6.93zm0-6.92zm0-6.92zm0-6.92zm0-6.92zm0-13.85zm0-20.78zm0-6.92zm0-6.92zm6.92 83.08zm0-6.93zm0-6.92zm0-55.39zm0-6.92zm0-6.92zm6.93 83.08zm0-6.93zm0-6.92zm0-6.92zm0-6.92zm0-34.61zm0-6.94zm0-6.92zm0-6.92zm6.92 83.08zm0-6.93zm0-6.92zm0-48.45zm0-6.94zm0-6.92zm0-6.92zM45 17.3zm0-6.93zm0-6.92zm0-6.92zm0-6.92zm0-6.92zm0-20.77zM45-45zm0-6.94zm0-6.92zm0-6.92zM24.23 0c1.01 0 1.84-.32 2.49-.97.64-.64.97-1.48.97-2.5 0-1-.33-1.83-.97-2.48a3.38 3.38 0 00-2.49-.97c-1.02 0-1.85.32-2.5.97a3.36 3.36 0 00-.96 2.48c0 1.02.32 1.86.96 2.5.65.65 1.48.97 2.5.97zm13.85 0c1 0 1.83-.32 2.48-.97.65-.64.97-1.48.97-2.5 0-1-.32-1.83-.97-2.48a3.38 3.38 0 00-2.48-.97c-1.03 0-1.86.32-2.5.97a3.36 3.36 0 00-.97 2.48c0 1.02.32 1.86.97 2.5.64.65 1.47.97 2.5.97zM10.39-6.92c1 0 1.84-.32 2.48-.97.65-.65.97-1.48.97-2.5 0-1-.32-1.84-.96-2.48a3.38 3.38 0 00-2.49-.97c-1.02 0-1.85.32-2.5.96a3.36 3.36 0 00-.97 2.49c0 1.02.32 1.85.97 2.5.65.65 1.48.97 2.5.97zm13.84 0c1.01 0 1.84-.32 2.49-.97.64-.65.97-1.48.97-2.5 0-1-.33-1.84-.97-2.48a3.38 3.38 0 00-2.49-.97c-1.02 0-1.85.32-2.5.96a3.36 3.36 0 00-.96 2.49c0 1.02.32 1.85.96 2.5.65.65 1.48.97 2.5.97zm13.85 0c1 0 1.83-.32 2.48-.97.65-.65.97-1.48.97-2.5 0-1-.32-1.84-.97-2.48a3.38 3.38 0 00-2.48-.97c-1.03 0-1.86.32-2.5.96a3.36 3.36 0 00-.97 2.49c0 1.02.32 1.85.97 2.5.64.65 1.47.97 2.5.97zm-27.69-6.92c1 0 1.84-.32 2.48-.97.65-.65.97-1.48.97-2.5 0-1.01-.32-1.84-.96-2.49a3.38 3.38 0 00-2.49-.97c-1.02 0-1.85.33-2.5.97a3.36 3.36 0 00-.97 2.49c0 1.02.32 1.85.97 2.5.65.65 1.48.97 2.5.97zm13.84 0c1.01 0 1.84-.32 2.49-.97.64-.65.97-1.48.97-2.5 0-1.01-.33-1.84-.97-2.49a3.38 3.38 0 00-2.49-.97c-1.02 0-1.85.33-2.5.97a3.36 3.36 0 00-.96 2.49c0 1.02.32 1.85.96 2.5.65.65 1.48.97 2.5.97zm6.93 0c1 0 1.83-.32 2.48-.97.65-.65.97-1.48.97-2.5 0-1.01-.32-1.84-.97-2.49a3.38 3.38 0 00-2.48-.97c-1.03 0-1.86.33-2.5.97a3.36 3.36 0 00-.97 2.49c0 1.02.32 1.85.97 2.5.64.65 1.47.97 2.5.97zm6.92 0c1 0 1.83-.32 2.48-.97.65-.65.97-1.48.97-2.5 0-1.01-.32-1.84-.97-2.49a3.38 3.38 0 00-2.48-.97c-1.03 0-1.86.33-2.5.97a3.36 3.36 0 00-.97 2.49c0 1.02.32 1.85.97 2.5.64.65 1.47.97 2.5.97zm-27.69-6.93c1 0 1.84-.32 2.48-.96.65-.65.97-1.48.97-2.5 0-1.01-.32-1.84-.96-2.49a3.38 3.38 0 00-2.49-.97c-1.02 0-1.85.33-2.5.97a3.36 3.36 0 00-.97 2.49c0 1.02.32 1.85.97 2.5.65.64 1.48.96 2.5.96zm6.92 0c1.01 0 1.84-.32 2.49-.96.64-.65.97-1.48.97-2.5 0-1.01-.33-1.84-.97-2.49a3.38 3.38 0 00-2.49-.97c-1.02 0-1.85.33-2.5.97a3.36 3.36 0 00-.97 2.49c0 1.02.32 1.85.97 2.5.65.64 1.48.96 2.5.96zm6.92 0c1.01 0 1.84-.32 2.49-.96.64-.65.97-1.48.97-2.5 0-1.01-.33-1.84-.97-2.49a3.38 3.38 0 00-2.49-.97c-1.02 0-1.85.33-2.5.97a3.36 3.36 0 00-.96 2.49c0 1.02.32 1.85.96 2.5.65.64 1.48.96 2.5.96zm6.93 0c1 0 1.83-.32 2.48-.96.65-.65.97-1.48.97-2.5 0-1.01-.32-1.84-.97-2.49a3.38 3.38 0 00-2.48-.97c-1.03 0-1.86.33-2.5.97a3.36 3.36 0 00-.97 2.49c0 1.02.32 1.85.97 2.5.64.64 1.47.96 2.5.96zm6.92 0c1 0 1.83-.32 2.48-.96.65-.65.97-1.48.97-2.5 0-1.01-.32-1.84-.97-2.49a3.38 3.38 0 00-2.48-.97c-1.03 0-1.86.33-2.5.97a3.36 3.36 0 00-.97 2.49c0 1.02.32 1.85.97 2.5.64.64 1.47.96 2.5.96zm6.92 0c1 0 1.84-.32 2.48-.96.65-.65.97-1.48.97-2.5 0-1.01-.32-1.84-.97-2.49a3.38 3.38 0 00-2.48-.97c-1.02 0-1.86.33-2.5.97a3.36 3.36 0 00-.97 2.49c0 1.02.32 1.85.97 2.5.64.64 1.48.96 2.5.96zm-34.6-6.92c1 0 1.83-.32 2.47-.97.65-.64.97-1.47.97-2.5 0-1-.32-1.83-.96-2.48a3.38 3.38 0 00-2.49-.97c-1.02 0-1.85.32-2.5.97a3.36 3.36 0 00-.97 2.48c0 1.03.32 1.86.97 2.5.65.65 1.48.97 2.5.97zm13.83 0c1.01 0 1.84-.32 2.49-.97.64-.64.97-1.47.97-2.5 0-1-.33-1.83-.97-2.48a3.38 3.38 0 00-2.49-.97c-1.02 0-1.85.32-2.5.97a3.36 3.36 0 00-.96 2.48c0 1.03.32 1.86.96 2.5.65.65 1.48.97 2.5.97zm6.93 0c1 0 1.83-.32 2.48-.97.65-.64.97-1.47.97-2.5 0-1-.32-1.83-.97-2.48a3.38 3.38 0 00-2.48-.97c-1.03 0-1.86.32-2.5.97a3.36 3.36 0 00-.97 2.48c0 1.03.32 1.86.97 2.5.64.65 1.47.97 2.5.97zm6.92 0c1 0 1.83-.32 2.48-.97.65-.64.97-1.47.97-2.5 0-1-.32-1.83-.97-2.48a3.38 3.38 0 00-2.48-.97c-1.03 0-1.86.32-2.5.97a3.36 3.36 0 00-.97 2.48c0 1.03.32 1.86.97 2.5.64.65 1.47.97 2.5.97zm6.92 0c1 0 1.84-.32 2.48-.97.65-.64.97-1.47.97-2.5 0-1-.32-1.83-.97-2.48a3.38 3.38 0 00-2.48-.97c-1.02 0-1.86.32-2.5.97a3.36 3.36 0 00-.97 2.48c0 1.03.32 1.86.97 2.5.64.65 1.48.97 2.5.97zM17.31-34.6c1.01 0 1.84-.32 2.49-.97.64-.64.97-1.47.97-2.5 0-1-.33-1.83-.97-2.48a3.38 3.38 0 00-2.49-.97c-1.02 0-1.85.32-2.5.97a3.36 3.36 0 00-.97 2.48c0 1.03.32 1.86.97 2.5.65.65 1.48.97 2.5.97zm6.92 0c1.01 0 1.84-.32 2.49-.97.64-.64.97-1.47.97-2.5 0-1-.33-1.83-.97-2.48a3.38 3.38 0 00-2.49-.97c-1.02 0-1.85.32-2.5.97a3.36 3.36 0 00-.96 2.48c0 1.03.32 1.86.96 2.5.65.65 1.48.97 2.5.97zm6.93 0c1 0 1.83-.32 2.48-.97.65-.64.97-1.47.97-2.5 0-1-.32-1.83-.97-2.48a3.38 3.38 0 00-2.48-.97c-1.03 0-1.86.32-2.5.97a3.36 3.36 0 00-.97 2.48c0 1.03.32 1.86.97 2.5.64.65 1.47.97 2.5.97zm6.92 0c1 0 1.83-.32 2.48-.97.65-.64.97-1.47.97-2.5 0-1-.32-1.83-.97-2.48a3.38 3.38 0 00-2.48-.97c-1.03 0-1.86.32-2.5.97a3.36 3.36 0 00-.97 2.48c0 1.03.32 1.86.97 2.5.64.65 1.47.97 2.5.97zM17.3-41.53c1.01 0 1.84-.32 2.49-.97.64-.64.97-1.48.97-2.5 0-1-.33-1.84-.97-2.48a3.38 3.38 0 00-2.49-.97c-1.02 0-1.85.32-2.5.97a3.36 3.36 0 00-.97 2.48c0 1.02.32 1.86.97 2.5.65.65 1.48.97 2.5.97zm6.92 0c1.01 0 1.84-.32 2.49-.97.64-.64.97-1.48.97-2.5 0-1-.33-1.84-.97-2.48a3.38 3.38 0 00-2.49-.97c-1.02 0-1.85.32-2.5.97a3.36 3.36 0 00-.96 2.48c0 1.02.32 1.86.96 2.5.65.65 1.48.97 2.5.97zm0 0"/></symbol><symbol overflow="visible" id="984e851fc"><path d="M3.47 17.3zm0-6.93zm0-6.92zm0-6.92zm0-6.92zm0-6.92zm0-20.77zm0-6.92zm0-6.94zm0-6.92zm0-6.92zm6.92 83.08zm0-6.93zm0-6.92zm0-48.45zm0-6.94zm0-6.92zm0-6.92zm6.92 83.08zm0-6.93zm0-6.92zm0-6.92zm0-6.92zm0-34.61zm0-6.94zm0-6.92zm0-6.92zm6.92 83.08zm0-6.93zm0-6.92zm0-55.39zm0-6.92zm0-6.92zm6.93 83.08zm0-6.93zm0-6.92zm0-6.92zm0-6.92zm0-6.92zm0-13.85zm0-20.78zm0-6.92zm0-6.92zm6.92 83.08zm0-6.93zm0-6.92zm0-6.92zm0-34.6zm0-6.93zm0-6.94zm0-6.92zm0-6.92zM45 17.3zm0-6.93zm0-6.92zm0-6.92zm0-6.92zm0-6.92zm0-6.92zm0-6.93zm0-6.92zM45-45zm0-6.94zm0-6.92zm0-6.92zM10.4 0c1 0 1.83-.32 2.47-.97.65-.64.97-1.48.97-2.5 0-1-.32-1.83-.96-2.48a3.38 3.38 0 00-2.49-.97c-1.02 0-1.85.32-2.5.97a3.36 3.36 0 00-.97 2.48c0 1.02.32 1.86.97 2.5.65.65 1.48.97 2.5.97zm13.83 0c1.01 0 1.84-.32 2.49-.97.64-.64.97-1.48.97-2.5 0-1-.33-1.83-.97-2.48a3.38 3.38 0 00-2.49-.97c-1.02 0-1.85.32-2.5.97a3.36 3.36 0 00-.96 2.48c0 1.02.32 1.86.96 2.5.65.65 1.48.97 2.5.97zM10.4-6.92c1 0 1.84-.32 2.48-.97.65-.65.97-1.48.97-2.5 0-1-.32-1.84-.96-2.48a3.38 3.38 0 00-2.49-.97c-1.02 0-1.85.32-2.5.96a3.36 3.36 0 00-.97 2.49c0 1.02.32 1.85.97 2.5.65.65 1.48.97 2.5.97zm13.84 0c1.01 0 1.84-.32 2.49-.97.64-.65.97-1.48.97-2.5 0-1-.33-1.84-.97-2.48a3.38 3.38 0 00-2.49-.97c-1.02 0-1.85.32-2.5.96a3.36 3.36 0 00-.96 2.49c0 1.02.32 1.85.96 2.5.65.65 1.48.97 2.5.97zm13.85 0c1 0 1.83-.32 2.48-.97.65-.65.97-1.48.97-2.5 0-1-.32-1.84-.97-2.48a3.38 3.38 0 00-2.48-.97c-1.03 0-1.86.32-2.5.96a3.36 3.36 0 00-.97 2.49c0 1.02.32 1.85.97 2.5.64.65 1.47.97 2.5.97zm-27.69-6.92c1 0 1.84-.32 2.48-.97.65-.65.97-1.48.97-2.5 0-1.01-.32-1.84-.96-2.49a3.38 3.38 0 00-2.49-.97c-1.02 0-1.85.33-2.5.97a3.36 3.36 0 00-.97 2.49c0 1.02.32 1.85.97 2.5.65.65 1.48.97 2.5.97zm6.92 0c1.01 0 1.84-.32 2.49-.97.64-.65.97-1.48.97-2.5 0-1.01-.33-1.84-.97-2.49a3.38 3.38 0 00-2.49-.97c-1.02 0-1.85.33-2.5.97a3.36 3.36 0 00-.97 2.49c0 1.02.32 1.85.97 2.5.65.65 1.48.97 2.5.97zm6.92 0c1.01 0 1.84-.32 2.49-.97.64-.65.97-1.48.97-2.5 0-1.01-.33-1.84-.97-2.49a3.38 3.38 0 00-2.49-.97c-1.02 0-1.85.33-2.5.97a3.36 3.36 0 00-.96 2.49c0 1.02.32 1.85.96 2.5.65.65 1.48.97 2.5.97zm13.85 0c1 0 1.83-.32 2.48-.97.65-.65.97-1.48.97-2.5 0-1.01-.32-1.84-.97-2.49a3.38 3.38 0 00-2.48-.97c-1.03 0-1.86.33-2.5.97a3.36 3.36 0 00-.97 2.49c0 1.02.32 1.85.97 2.5.64.65 1.47.97 2.5.97zM3.47-20.77c1 0 1.83-.32 2.48-.96.65-.65.97-1.48.97-2.5 0-1.01-.32-1.84-.97-2.49a3.38 3.38 0 00-2.48-.97c-1.02 0-1.86.33-2.5.97A3.36 3.36 0 000-24.23c0 1.02.32 1.85.97 2.5.64.64 1.48.96 2.5.96zm6.92 0c1 0 1.84-.32 2.48-.96.65-.65.97-1.48.97-2.5 0-1.01-.32-1.84-.96-2.49a3.38 3.38 0 00-2.49-.97c-1.02 0-1.85.33-2.5.97a3.36 3.36 0 00-.97 2.49c0 1.02.32 1.85.97 2.5.65.64 1.48.96 2.5.96zm6.92 0c1.01 0 1.84-.32 2.49-.96.64-.65.97-1.48.97-2.5 0-1.01-.33-1.84-.97-2.49a3.38 3.38 0 00-2.49-.97c-1.02 0-1.85.33-2.5.97a3.36 3.36 0 00-.97 2.49c0 1.02.32 1.85.97 2.5.65.64 1.48.96 2.5.96zm6.92 0c1.01 0 1.84-.32 2.49-.96.64-.65.97-1.48.97-2.5 0-1.01-.33-1.84-.97-2.49a3.38 3.38 0 00-2.49-.97c-1.02 0-1.85.33-2.5.97a3.36 3.36 0 00-.96 2.49c0 1.02.32 1.85.96 2.5.65.64 1.48.96 2.5.96zm6.93 0c1 0 1.83-.32 2.48-.96.65-.65.97-1.48.97-2.5 0-1.01-.32-1.84-.97-2.49a3.38 3.38 0 00-2.48-.97c-1.03 0-1.86.33-2.5.97a3.36 3.36 0 00-.97 2.49c0 1.02.32 1.85.97 2.5.64.64 1.47.96 2.5.96zm6.92 0c1 0 1.83-.32 2.48-.96.65-.65.97-1.48.97-2.5 0-1.01-.32-1.84-.97-2.49a3.38 3.38 0 00-2.48-.97c-1.03 0-1.86.33-2.5.97a3.36 3.36 0 00-.97 2.49c0 1.02.32 1.85.97 2.5.64.64 1.47.96 2.5.96zM3.47-27.69c1 0 1.83-.32 2.48-.97.65-.64.97-1.47.97-2.5 0-1-.32-1.83-.97-2.48a3.38 3.38 0 00-2.48-.97c-1.02 0-1.86.32-2.5.97A3.36 3.36 0 000-31.16c0 1.03.32 1.86.97 2.5.64.65 1.48.97 2.5.97zm6.92 0c1 0 1.84-.32 2.48-.97.65-.64.97-1.47.97-2.5 0-1-.32-1.83-.96-2.48a3.38 3.38 0 00-2.49-.97c-1.02 0-1.85.32-2.5.97a3.36 3.36 0 00-.97 2.48c0 1.03.32 1.86.97 2.5.65.65 1.48.97 2.5.97zm6.92 0c1.01 0 1.84-.32 2.49-.97.64-.64.97-1.47.97-2.5 0-1-.33-1.83-.97-2.48a3.38 3.38 0 00-2.49-.97c-1.02 0-1.85.32-2.5.97a3.36 3.36 0 00-.97 2.48c0 1.03.32 1.86.97 2.5.65.65 1.48.97 2.5.97zm6.92 0c1.01 0 1.84-.32 2.49-.97.64-.64.97-1.47.97-2.5 0-1-.33-1.83-.97-2.48a3.38 3.38 0 00-2.49-.97c-1.02 0-1.85.32-2.5.97a3.36 3.36 0 00-.96 2.48c0 1.03.32 1.86.96 2.5.65.65 1.48.97 2.5.97zm13.85 0c1 0 1.83-.32 2.48-.97.65-.64.97-1.47.97-2.5 0-1-.32-1.83-.97-2.48a3.38 3.38 0 00-2.48-.97c-1.03 0-1.86.32-2.5.97a3.36 3.36 0 00-.97 2.48c0 1.03.32 1.86.97 2.5.64.65 1.47.97 2.5.97zM10.39-34.6c1 0 1.84-.32 2.48-.97.65-.64.97-1.47.97-2.5 0-1-.32-1.83-.96-2.48a3.38 3.38 0 00-2.49-.97c-1.02 0-1.85.32-2.5.97a3.36 3.36 0 00-.97 2.48c0 1.03.32 1.86.97 2.5.65.65 1.48.97 2.5.97zm6.92 0c1.01 0 1.84-.32 2.49-.97.64-.64.97-1.47.97-2.5 0-1-.33-1.83-.97-2.48a3.38 3.38 0 00-2.49-.97c-1.02 0-1.85.32-2.5.97a3.36 3.36 0 00-.97 2.48c0 1.03.32 1.86.97 2.5.65.65 1.48.97 2.5.97zm6.92 0c1.01 0 1.84-.32 2.49-.97.64-.64.97-1.47.97-2.5 0-1-.33-1.83-.97-2.48a3.38 3.38 0 00-2.49-.97c-1.02 0-1.85.32-2.5.97a3.36 3.36 0 00-.96 2.48c0 1.03.32 1.86.96 2.5.65.65 1.48.97 2.5.97zm6.93 0c1 0 1.83-.32 2.48-.97.65-.64.97-1.47.97-2.5 0-1-.32-1.83-.97-2.48a3.38 3.38 0 00-2.48-.97c-1.03 0-1.86.32-2.5.97a3.36 3.36 0 00-.97 2.48c0 1.03.32 1.86.97 2.5.64.65 1.47.97 2.5.97zm-6.93-6.92c1.01 0 1.84-.32 2.49-.97.64-.64.97-1.48.97-2.5 0-1-.33-1.84-.97-2.48a3.38 3.38 0 00-2.49-.97c-1.02 0-1.85.32-2.5.97a3.36 3.36 0 00-.96 2.48c0 1.02.32 1.86.96 2.5.65.65 1.48.97 2.5.97zm6.93 0c1 0 1.83-.32 2.48-.97.65-.64.97-1.48.97-2.5 0-1-.32-1.84-.97-2.48a3.38 3.38 0 00-2.48-.97c-1.03 0-1.86.32-2.5.97a3.36 3.36 0 00-.97 2.48c0 1.02.32 1.86.97 2.5.64.65 1.47.97 2.5.97zm0 0"/></symbol><symbol overflow="visible" id="984e851fb"><path d="M3.47 17.3zm0-6.93zm0-6.92zm0-6.92zm0-6.92zm0-6.92zm0-6.92zm0-6.93zm0-6.92zm0-6.92zm0-6.94zm0-6.92zm0-6.92zm6.92 83.08zm0-6.93zm0-6.92zm0-6.92zm0-6.92zm0-6.92zm0-6.92zm0-6.93zm0-6.92zm0-6.92zm0-6.94zm0-6.92zm0-6.92zm6.92 83.08zm0-6.93zm0-6.92zm0-6.92zm0-6.92zm0-6.92zm0-6.92zm0-6.93zm0-6.92zm0-6.92zm0-6.94zm0-6.92zm0-6.92zm6.92 83.08zm0-6.93zm0-6.92zm0-6.92zm0-6.92zm0-6.92zm0-6.92zm0-6.93zm0-6.92zm0-6.92zm0-6.94zm0-6.92zm0-6.92zm6.93 83.08zm0-6.93zm0-6.92zm0-6.92zm0-6.92zm0-6.92zm0-6.92zm0-6.93zm0-6.92zm0-6.92zm0-6.94zm0-6.92zm0-6.92zm6.92 83.08zm0-6.93zm0-6.92zm0-6.92zm0-6.92zm0-6.92zm0-6.92zm0-6.93zm0-6.92zm0-6.92zm0-6.94zm0-6.92zm0-6.92zM45 17.3zm0-6.93zm0-6.92zm0-6.92zm0-6.92zm0-6.92zm0-6.92zm0-6.93zm0-6.92zM45-45zm0-6.94zm0-6.92zm0-6.92zm0 0"/></symbol><symbol overflow="visible" id="984e851fd"><path d="M.47 2.3zm0-.92zm0-.93zm0-.92zm0-.92zm0-.92zm0-.92zm0-.93zm0-.92zm0-.92zm0-.94zm0-.92zm0-.92zM1.39 2.3zm0-.92zm0-.93zm0-.92zm0-.92zm0-.92zm0-.92zm0-.93zm0-.92zm0-1.86zm0-.92zm0-.92zM2.31 2.3zm0-.92zm0-.93zm0-.92zm0-.92zm0-.92zm0-.92zm0-.93zm0-.92zm0-1.86zm0-.92zm0-.92zM3.23 2.3zm0-.92zm0-.93zm0-7.39zm0-.92zm0-.92zM4.16 2.3zm0-.92zm0-.93zm0-.92zm0-.92zm0-.92zm0-.92zm0-.93zm0-.92zm0-1.86zm0-.92zm0-.92zM5.08 2.3zm0-.92zm0-.93zm0-.92zm0-.92zm0-.92zm0-.92zm0-.93zm0-.92zm0-1.86zm0-.92zm0-.92zM6 2.3zm0-.92zm0-.93zm0-.92zm0-.92zm0-.92zm0-.92zm0-.93zm0-.92zM6-6zm0-.94zm0-.92zm0-.92zM3.69 0v-.45-.47H2.77V0H3.69zm0-.92v-.45-.47H2.77V-.92H3.69zm0-.92v-.46-.47H2.77V-1.84H3.69zm0-.93v-.45-.47H2.77V-2.77H3.69zm0-.92v-.45-.47H2.77V-3.69H3.69zm0-.92v-.45-.47H2.77V-4.61H3.69zm-1.85-.92v-.45-.47H.92V-5.53H1.84zm.93 0v-.45-.47H1.85V-5.53H2.76zm.92 0v-.45-.47H2.77V-5.53H3.69zm.92 0v-.45-.47H3.69V-5.53H4.6zm.92 0v-.45-.47H4.61V-5.53H5.53zm0 0"/></symbol><symbol overflow="visible" id="984e851fe"><path d="M.47 2.3zm0-.92zm0-.93zm0-.92zm0-.92zm0-.92zm0-.92zm0-.93zm0-.92zm0-.92zm0-.94zm0-.92zm0-.92zM1.39 2.3zm0-.92zm0-.93zm0-.92zm0-3.69zm0-.92zm0-.92zm0-.94zm0-.92zm0-.92zM2.31 2.3zm0-.92zm0-.93zm0-1.84zm0-1.84zm0-1.85zm0-.92zm0-.94zm0-.92zm0-.92zM3.23 2.3zm0-.92zm0-.93zm0-1.84zm0-1.84zm0-1.85zm0-.92zm0-.94zm0-.92zm0-.92zM4.16 2.3zm0-.92zm0-.93zm0-1.84zm0-1.84zm0-1.85zm0-.92zm0-.94zm0-.92zm0-.92zM5.08 2.3zm0-.92zm0-.93zm0-1.84zm0-2.77zm0-.92zm0-.92zm0-.94zm0-.92zm0-.92zM6 2.3zm0-.92zm0-.93zm0-.92zm0-.92zm0-.92zm0-.92zm0-.93zm0-.92zM6-6zm0-.94zm0-.92zm0-.92zM2.77 0v-.45-.47H1.85V0H2.76zm.92 0v-.45-.47H2.77V0H3.69zm.92 0v-.45-.47H3.69V0H4.6zm.92 0v-.45-.47H4.61V0H5.53zM1.84-.92v-.45-.47H.92V-.92H1.84zm0-.92v-.46-.47H.92V-1.84H1.84zm.93 0v-.46-.47H1.85V-1.84H2.76zm.92 0v-.46-.47H2.77V-1.84H3.69zm.92 0v-.46-.47H3.69V-1.84H4.6zm.92 0v-.46-.47H4.61V-1.84H5.53zm-3.69-.93v-.45-.47H.92V-2.77H1.84zm3.7 0v-.45-.47H4.6V-2.77H5.53zm-2.77-.92v-.45-.47H1.85V-3.69H2.76zm.92 0v-.45-.47H2.77V-3.69H3.69zm.92 0v-.45-.47H3.69V-3.69H4.6zm0 0"/></symbol><symbol overflow="visible" id="984e851ff"><path d="M.47 2.3zm0-.92zm0-.93zm0-.92zm0-.92zm0-.92zm0-.92zm0-.93zm0-.92zm0-.92zm0-.94zm0-.92zm0-.92zM1.39 2.3zm0-.92zm0-.93zm0-1.84zm0-.92zm0-.92zm0-1.85zm0-.92zm0-.94zm0-.92zm0-.92zM2.31 2.3zm0-.92zm0-.93zm0-.92zm0-1.84zm0-1.85zm0-.92zm0-.92zm0-.94zm0-.92zm0-.92zM3.23 2.3zm0-.92zm0-.93zm0-.92zm0-.92zm0-1.84zm0-.93zm0-.92zm0-.92zm0-.94zm0-.92zm0-.92zM4.16 2.3zm0-.92zm0-.93zm0-.92zm0-1.84zm0-1.85zm0-.92zm0-.92zm0-.94zm0-.92zm0-.92zM5.08 2.3zm0-.92zm0-.93zm0-1.84zm0-.92zm0-.92zm0-1.85zm0-.92zm0-.94zm0-.92zm0-.92zM6 2.3zm0-.92zm0-.93zm0-.92zm0-.92zm0-.92zm0-.92zm0-.93zm0-.92zM6-6zm0-.94zm0-.92zm0-.92zM1.84 0v-.45-.47H.92V0H1.84zm3.7 0v-.45-.47H4.6V0H5.53zM2.76-.92v-.45-.47H1.85V-.92H2.76zm1.84 0v-.45-.47H3.69V-.92H4.6zm-.92-.92v-.46-.47H2.77V-1.84H3.69zm-.92-.93v-.45-.47H1.85V-2.77H2.76zm1.84 0v-.45-.47H3.69V-2.77H4.6zm-2.77-.92v-.45-.47H.92V-3.69H1.84zm3.7 0v-.45-.47H4.6V-3.69H5.53zm0 0"/></symbol><symbol overflow="visible" id="984e851fg"><path d="M.47 2.3zm0-.92zm0-.93zm0-.92zm0-.92zm0-.92zm0-.92zm0-.93zm0-.92zm0-.92zm0-.94zm0-.92zm0-.92zM1.39 2.3zm0-.92zm0-.93zm0-.92zm0-.92zm0-.92zm0-.92zm0-1.85zm0-.92zm0-.94zm0-.92zm0-.92zM2.31 2.3zm0-.92zm0-.93zm0-.92zm0-6.47zm0-.92zm0-.92zM3.23 2.3zm0-.92zm0-.93zm0-1.84zm0-.92zm0-.92zm0-1.85zm0-.92zm0-.94zm0-.92zm0-.92zM4.16 2.3zm0-.92zm0-.93zm0-1.84zm0-.92zm0-.92zm0-1.85zm0-.92zm0-.94zm0-.92zm0-.92zM5.08 2.3zm0-.92zm0-.93zm0-.92zm0-1.84zm0-.92zm0-1.85zm0-.92zm0-.94zm0-.92zm0-.92zM6 2.3zm0-.92zm0-.93zm0-.92zm0-.92zm0-.92zm0-.92zm0-.93zm0-.92zM6-6zm0-.94zm0-.92zm0-.92zM3.69 0v-.45-.47H2.77V0H3.69zm.92 0v-.45-.47H3.69V0H4.6zM2.77-.92v-.45-.47H1.85V-.92H2.76zm2.76 0v-.45-.47H4.61V-.92H5.53zm-2.76-.92v-.46-.47H1.85V-1.84H2.76zm0-.93v-.45-.47H1.85V-2.77H2.76zm-.93-.92v-.45-.47H.92V-3.69H1.84zm.93 0v-.45-.47H1.85V-3.69H2.76zm.92 0v-.45-.47H2.77V-3.69H3.69zm.92 0v-.45-.47H3.69V-3.69H4.6zm.92 0v-.45-.47H4.61V-3.69H5.53zM2.77-4.6v-.45-.47H1.85V-4.61H2.76zm0-.92v-.45-.47H1.85V-5.53H2.76zm0 0"/></symbol><symbol overflow="visible" id="984e851fh"><path d="M.47 2.3zm0-.92zm0-.93zm0-.92zm0-.92zm0-.92zm0-.92zm0-.93zm0-.92zm0-.92zm0-.94zm0-.92zm0-.92zM1.39 2.3zm0-.92zm0-.93zm0-.92zm0-.92zm0-.92zm0-.92zm0-.93zm0-.92zm0-.92zm0-.94zm0-.92zm0-.92zM2.31 2.3zm0-.92zm0-.93zm0-.92zm0-.92zm0-.92zm0-.92zm0-.93zm0-.92zm0-.92zm0-.94zm0-.92zm0-.92zM3.23 2.3zm0-.92zm0-.93zm0-2.76zm0-2.77zm0-.92zm0-.94zm0-.92zm0-.92zM4.16 2.3zm0-.92zm0-.93zm0-.92zm0-.92zm0-.92zm0-.92zm0-.93zm0-.92zm0-.92zm0-.94zm0-.92zm0-.92zM5.08 2.3zm0-.92zm0-.93zm0-.92zm0-.92zm0-.92zm0-.92zm0-.93zm0-.92zm0-.92zm0-.94zm0-.92zm0-.92zM6 2.3zm0-.92zm0-.93zm0-.92zm0-.92zm0-.92zm0-.92zm0-.93zm0-.92zM6-6zm0-.94zm0-.92zm0-.92zM3.69 0v-.45-.47H2.77V0H3.69zm0-.92v-.45-.47H2.77V-.92H3.69zm0-1.85v-.45-.47H2.77V-2.77H3.69zm0-.92v-.45-.47H2.77V-3.69H3.69zm0 0"/></symbol><symbol overflow="visible" id="984e851fi"><path d="M.47 2.3zm0-.92zm0-.93zm0-.92zm0-.92zm0-.92zm0-.92zm0-.93zm0-.92zm0-.92zm0-.94zm0-.92zm0-.92zM1.39 2.3zm0-.92zm0-.93zm0-.92zm0-.92zm0-.92zm0-.92zm0-.93zm0-.92zm0-.92zm0-.94zm0-.92zm0-.92zM2.31 2.3zm0-.92zm0-.93zm0-.92zm0-.92zm0-.92zm0-.92zm0-.93zm0-.92zm0-.92zm0-.94zm0-.92zm0-.92zM3.23 2.3zm0-.92zm0-.93zm0-.92zm0-.92zm0-.92zm0-.92zm0-.93zm0-.92zm0-.92zm0-.94zm0-.92zm0-.92zM4.16 2.3zm0-.92zm0-.93zm0-.92zm0-.92zm0-.92zm0-.92zm0-.93zm0-.92zm0-.92zm0-.94zm0-.92zm0-.92zM5.08 2.3zm0-.92zm0-.93zm0-.92zm0-.92zm0-.92zm0-.92zm0-.93zm0-.92zm0-.92zm0-.94zm0-.92zm0-.92zM6 2.3zm0-.92zm0-.93zm0-.92zm0-.92zm0-.92zm0-.92zm0-.93zm0-.92zM6-6zm0-.94zm0-.92zm0-.92zm0 0"/></symbol><symbol overflow="visible" id="984e851fj"><path d="M.47 2.3zm0-.92zm0-.93zm0-.92zm0-.92zm0-.92zm0-.92zm0-.93zm0-.92zm0-.92zm0-.94zm0-.92zm0-.92zM1.39 2.3zm0-.92zm0-.93zm0-1.84zm0-.92zm0-.92zm0-.93zm0-.92zm0-1.86zm0-.92zm0-.92zM2.31 2.3zm0-.92zm0-.93zm0-1.84zm0-.92zm0-.92zm0-.93zm0-.92zm0-1.86zm0-.92zm0-.92zM3.23 2.3zm0-.92zm0-.93zm0-7.39zm0-.92zm0-.92zM4.16 2.3zm0-.92zm0-.93zm0-1.84zm0-.92zm0-.92zm0-.93zm0-.92zm0-.92zm0-.94zm0-.92zm0-.92zM5.08 2.3zm0-.92zm0-.93zm0-1.84zm0-.92zm0-.92zm0-.93zm0-.92zm0-.92zm0-.94zm0-.92zm0-.92zM6 2.3zm0-.92zm0-.93zm0-.92zm0-.92zm0-.92zm0-.92zm0-.93zm0-.92zM6-6zm0-.94zm0-.92zm0-.92zM1.84 0v-.45-.47H.92V0H1.84zm.93 0v-.45-.47H1.85V0H2.76zm.92 0v-.45-.47H2.77V0H3.69zm.92 0v-.45-.47H3.69V0H4.6zm.92 0v-.45-.47H4.61V0H5.53zM3.7-.92v-.45-.47H2.77V-.92H3.69zm0-.92v-.46-.47H2.77V-1.84H3.69zm0-.93v-.45-.47H2.77V-2.77H3.69zm0-.92v-.45-.47H2.77V-3.69H3.69zm0-.92v-.45-.47H2.77V-4.61H3.69zm-1.85-.92v-.45-.47H.92V-5.53H1.84zm.93 0v-.45-.47H1.85V-5.53H2.76zm.92 0v-.45-.47H2.77V-5.53H3.69zm0 0"/></symbol><symbol overflow="visible" id="984e851fk"><path d="M.47 2.3zm0-.92zm0-.93zm0-.92zm0-.92zm0-.92zm0-.92zm0-.93zm0-.92zm0-.92zm0-.94zm0-.92zm0-.92zM1.39 2.3zm0-6.46zm0-.92zm0-.92zm0-.94zm0-.92zm0-.92zM2.31 2.3zm0-.92zm0-.93zm0-1.84zm0-.92zm0-.92zm0-1.85zm0-.92zm0-.94zm0-.92zm0-.92zM3.23 2.3zm0-.92zm0-.93zm0-1.84zm0-.92zm0-.92zm0-1.85zm0-.92zm0-.94zm0-.92zm0-.92zM4.16 2.3zm0-.92zm0-.93zm0-1.84zm0-.92zm0-.92zm0-1.85zm0-.92zm0-.94zm0-.92zm0-.92zM5.08 2.3zm0-.92zm0-.93zm0-.92zm0-3.69zm0-.92zm0-.92zm0-.94zm0-.92zm0-.92zM6 2.3zm0-.92zm0-.93zm0-.92zm0-.92zm0-.92zm0-.92zm0-.93zm0-.92zM6-6zm0-.94zm0-.92zm0-.92zM1.84 1.84v-.47-.45H.92V1.84H1.84zm0-.92V.45 0H.92V.92H1.84zm0-.92v-.45-.47H.92V0H1.84zm.93 0v-.45-.47H1.85V0H2.76zm.92 0v-.45-.47H2.77V0H3.69zm.92 0v-.45-.47H3.69V0H4.6zM1.84-.92v-.45-.47H.92V-.92H1.84zm3.7 0v-.45-.47H4.6V-.92H5.53zm-3.7-.92v-.46-.47H.92V-1.84H1.84zm3.7 0v-.46-.47H4.6V-1.84H5.53zm-3.7-.93v-.45-.47H.92V-2.77H1.84zm3.7 0v-.45-.47H4.6V-2.77H5.53zm-2.77-.92v-.45-.47H1.85V-3.69H2.76zm.92 0v-.45-.47H2.77V-3.69H3.69zm.92 0v-.45-.47H3.69V-3.69H4.6zm0 0"/></symbol><symbol overflow="visible" id="984e851fl"><path d="M.47 2.3zm0-.92zm0-.93zm0-.92zm0-.92zm0-.92zm0-.92zm0-.93zm0-.92zm0-.92zm0-.94zm0-.92zm0-.92zM1.39 2.3zm0-.92zm0-.93zm0-7.39zm0-.92zm0-.92zM2.31 2.3zm0-.92zm0-.93zm0-.92zm0-.92zm0-.92zm0-1.85zm0-.92zm0-.92zm0-.94zm0-.92zm0-.92zM3.23 2.3zm0-.92zm0-.93zm0-.92zm0-.92zm0-.92zm0-.92zm0-1.85zm0-.92zm0-.94zm0-.92zm0-.92zM4.16 2.3zm0-.92zm0-.93zm0-.92zm0-.92zm0-.92zm0-.92zm0-1.85zm0-.92zm0-.94zm0-.92zm0-.92zM5.08 2.3zm0-.92zm0-.93zm0-4.6zm0-.93zm0-.92zm0-.94zm0-.92zm0-.92zM6 2.3zm0-.92zm0-.93zm0-.92zm0-.92zm0-.92zm0-.92zm0-.93zm0-.92zM6-6zm0-.94zm0-.92zm0-.92zM1.84 0v-.45-.47H.92V0H1.84zm3.7 0v-.45-.47H4.6V0H5.53zm-3.7-.92v-.45-.47H.92V-.92H1.84zm3.7 0v-.45-.47H4.6V-.92H5.53zm-3.7-.92v-.46-.47H.92V-1.84H1.84zm3.7 0v-.46-.47H4.6V-1.84H5.53zm-3.7-.93v-.45-.47H.92V-2.77H1.84zm.93 0v-.45-.47H1.85V-2.77H2.76zm2.76 0v-.45-.47H4.61V-2.77H5.53zm-3.69-.92v-.45-.47H.92V-3.69H1.84zm1.85 0v-.45-.47H2.77V-3.69H3.69zm.92 0v-.45-.47H3.69V-3.69H4.6zM1.84-4.6v-.45-.47H.92V-4.61H1.84zm0-.92v-.45-.47H.92V-5.53H1.84zm0 0"/></symbol><symbol overflow="visible" id="984e851fm"><path d="M.47 2.3zm0-.92zm0-.93zm0-.92zm0-.92zm0-.92zm0-.92zm0-.93zm0-.92zm0-.92zm0-.94zm0-.92zm0-.92zM1.39 2.3zm0-.92zm0-.93zm0-.92zm0-1.84zm0-.92zm0-.93zm0-.92zm0-.92zm0-.94zm0-.92zm0-.92zM2.31 2.3zm0-.92zm0-.93zm0-1.84zm0-1.84zm0-1.85zm0-.92zm0-.94zm0-.92zm0-.92zM3.23 2.3zm0-.92zm0-.93zm0-1.84zm0-1.84zm0-1.85zm0-.92zm0-.94zm0-.92zm0-.92zM4.16 2.3zm0-.92zm0-.93zm0-1.84zm0-1.84zm0-1.85zm0-.92zm0-.94zm0-.92zm0-.92zM5.08 2.3zm0-.92zm0-.93zm0-.92zm0-3.69zm0-.92zm0-.92zm0-.94zm0-.92zm0-.92zM6 2.3zm0-.92zm0-.93zm0-.92zm0-.92zm0-.92zm0-.92zm0-.93zm0-.92zM6-6zm0-.94zm0-.92zm0-.92zM2.77 0v-.45-.47H1.85V0H2.76zm.92 0v-.45-.47H2.77V0H3.69zm.92 0v-.45-.47H3.69V0H4.6zM1.84-.92v-.45-.47H.92V-.92H1.84zm3.7 0v-.45-.47H4.6V-.92H5.53zm-2.77-.92v-.46-.47H1.85V-1.84H2.76zm.92 0v-.46-.47H2.77V-1.84H3.69zm.92 0v-.46-.47H3.69V-1.84H4.6zm.92 0v-.46-.47H4.61V-1.84H5.53zm0-.93v-.45-.47H4.61V-2.77H5.53zm-2.76-.92v-.45-.47H1.85V-3.69H2.76zm.92 0v-.45-.47H2.77V-3.69H3.69zm.92 0v-.45-.47H3.69V-3.69H4.6zm0 0"/></symbol><symbol overflow="visible" id="984e851fn"><path d="M.47 2.3zm0-.92zm0-.93zm0-.92zm0-.92zm0-.92zm0-.92zm0-.93zm0-.92zm0-.92zm0-.94zm0-.92zm0-.92zM1.39 2.3zm0-.92zm0-.93zm0-4.6zm0-.93zm0-.92zm0-.94zm0-.92zm0-.92zM2.31 2.3zm0-.92zm0-.93zm0-.92zm0-.92zm0-.92zm0-.92zm0-1.85zm0-.92zm0-.94zm0-.92zm0-.92zM3.23 2.3zm0-.92zm0-.93zm0-.92zm0-.92zm0-.92zm0-.92zm0-1.85zm0-.92zm0-.94zm0-.92zm0-.92zM4.16 2.3zm0-.92zm0-.93zm0-.92zm0-.92zm0-.92zm0-.92zm0-1.85zm0-.92zm0-.94zm0-.92zm0-.92zM5.08 2.3zm0-.92zm0-.93zm0-4.6zm0-.93zm0-.92zm0-.94zm0-.92zm0-.92zM6 2.3zm0-.92zm0-.93zm0-.92zm0-.92zm0-.92zm0-.92zm0-.93zm0-.92zM6-6zm0-.94zm0-.92zm0-.92zM1.84 0v-.45-.47H.92V0H1.84zm3.7 0v-.45-.47H4.6V0H5.53zm-3.7-.92v-.45-.47H.92V-.92H1.84zm3.7 0v-.45-.47H4.6V-.92H5.53zm-3.7-.92v-.46-.47H.92V-1.84H1.84zm3.7 0v-.46-.47H4.6V-1.84H5.53zm-3.7-.93v-.45-.47H.92V-2.77H1.84zm3.7 0v-.45-.47H4.6V-2.77H5.53zm-2.77-.92v-.45-.47H1.85V-3.69H2.76zm.92 0v-.45-.47H2.77V-3.69H3.69zm.92 0v-.45-.47H3.69V-3.69H4.6zm0 0"/></symbol><symbol overflow="visible" id="984e851fo"><path d="M.47 2.3zm0-.92zm0-.93zm0-.92zm0-.92zm0-.92zm0-.92zm0-.93zm0-.92zm0-.92zm0-.94zm0-.92zm0-.92zM1.39 2.3zm0-.92zm0-.93zm0-1.84zm0-.92zm0-.92zm0-1.85zm0-.92zm0-.94zm0-.92zm0-.92zM2.31 2.3zm0-.92zm0-.93zm0-5.53zm0-.92zm0-.94zm0-.92zm0-.92zM3.23 2.3zm0-.92zm0-.93zm0-1.84zm0-.92zm0-1.85zm0-.92zm0-.92zm0-.94zm0-.92zm0-.92zM4.16 2.3zm0-.92zm0-.93zm0-.92zm0-.92zm0-.92zm0-.92zm0-1.85zm0-.92zm0-.94zm0-.92zm0-.92zM5.08 2.3zm0-.92zm0-.93zm0-.92zm0-.92zm0-.92zm0-2.77zm0-.92zm0-.94zm0-.92zm0-.92zM6 2.3zm0-.92zm0-.93zm0-.92zm0-.92zm0-.92zm0-.92zm0-.93zm0-.92zM6-6zm0-.94zm0-.92zm0-.92zM1.84 0v-.45-.47H.92V0H1.84zm.93 0v-.45-.47H1.85V0H2.76zm.92 0v-.45-.47H2.77V0H3.69zm-.92-.92v-.45-.47H1.85V-.92H2.76zm0-.92v-.46-.47H1.85V-1.84H2.76zm0-.93v-.45-.47H1.85V-2.77H2.76zm.92 0v-.45-.47H2.77V-2.77H3.69zm1.84 0v-.45-.47H4.61V-2.77H5.53zm-3.69-.92v-.45-.47H.92V-3.69H1.84zm.93 0v-.45-.47H1.85V-3.69H2.76zm1.84 0v-.45-.47H3.69V-3.69H4.6zm.92 0v-.45-.47H4.61V-3.69H5.53zm0 0"/></symbol><symbol overflow="visible" id="984e851fp"><path d="M.47 2.3zm0-.92zm0-.93zm0-.92zm0-.92zm0-.92zm0-.92zm0-.93zm0-.92zm0-.92zm0-.94zm0-.92zm0-.92zM1.39 2.3zm0-.92zm0-.93zm0-1.84zm0-.92zm0-.92zm0-1.85zm0-.92zm0-.94zm0-.92zm0-.92zM2.31 2.3zm0-.92zm0-.93zm0-1.84zm0-.92zm0-.92zm0-1.85zm0-.92zm0-.94zm0-.92zm0-.92zM3.23 2.3zm0-.92zm0-.93zm0-5.53zm0-2.78zm0-.92zM4.16 2.3zm0-.92zm0-.93zm0-1.84zm0-.92zm0-.92zm0-.93zm0-.92zm0-.92zm0-.94zm0-.92zm0-.92zM5.08 2.3zm0-.92zm0-.93zm0-1.84zm0-.92zm0-.92zm0-.93zm0-.92zm0-.92zm0-.94zm0-.92zm0-.92zM6 2.3zm0-.92zm0-.93zm0-.92zm0-.92zm0-.92zm0-.92zm0-.93zm0-.92zM6-6zm0-.94zm0-.92zm0-.92zM1.84 0v-.45-.47H.92V0H1.84zm.93 0v-.45-.47H1.85V0H2.76zm.92 0v-.45-.47H2.77V0H3.69zm.92 0v-.45-.47H3.69V0H4.6zm.92 0v-.45-.47H4.61V0H5.53zM3.7-.92v-.45-.47H2.77V-.92H3.69zm0-.92v-.46-.47H2.77V-1.84H3.69zm0-.93v-.45-.47H2.77V-2.77H3.69zm-1.85-.92v-.45-.47H.92V-3.69H1.84zm.93 0v-.45-.47H1.85V-3.69H2.76zm.92 0v-.45-.47H2.77V-3.69H3.69zm0-1.84v-.45-.47H2.77V-5.53H3.69zm0-.94v-.45-.47H2.77V-6.47H3.69zm0 0"/></symbol><symbol overflow="visible" id="984e851fq"><path d="M.47 2.3zm0-.92zm0-.93zm0-.92zm0-.92zm0-.92zm0-.92zm0-.93zm0-.92zm0-.92zm0-.94zm0-.92zm0-.92zM1.39 2.3zm0-.92zm0-.93zm0-.92zm0-3.69zm0-.92zm0-.92zm0-.94zm0-.92zm0-.92zM2.31 2.3zm0-1.85zm0-1.84zm0-.92zm0-.92zm0-1.85zm0-.92zm0-.94zm0-.92zm0-.92zM3.23 2.3zm0-1.85zm0-1.84zm0-.92zm0-.92zm0-1.85zm0-.92zm0-.94zm0-.92zm0-.92zM4.16 2.3zm0-1.85zm0-1.84zm0-.92zm0-.92zm0-1.85zm0-.92zm0-.94zm0-.92zm0-.92zM5.08 2.3zm0-.92zm0-5.54zm0-.92zm0-.92zm0-.94zm0-.92zm0-.92zM6 2.3zm0-.92zm0-.93zm0-.92zm0-.92zm0-.92zm0-.92zm0-.93zm0-.92zM6-6zm0-.94zm0-.92zm0-.92zM2.77 1.84v-.47-.45H1.85V1.84H2.76zm.92 0v-.47-.45H2.77V1.84H3.69zm.92 0v-.47-.45H3.69V1.84H4.6zm.92-.92V.45 0H4.61V.92H5.53zM2.77 0v-.45-.47H1.85V0H2.76zm.92 0v-.45-.47H2.77V0H3.69zm.92 0v-.45-.47H3.69V0H4.6zm.92 0v-.45-.47H4.61V0H5.53zM1.84-.92v-.45-.47H.92V-.92H1.84zm3.7 0v-.45-.47H4.6V-.92H5.53zm-3.7-.92v-.46-.47H.92V-1.84H1.84zm3.7 0v-.46-.47H4.6V-1.84H5.53zm-3.7-.93v-.45-.47H.92V-2.77H1.84zm3.7 0v-.45-.47H4.6V-2.77H5.53zm-2.77-.92v-.45-.47H1.85V-3.69H2.76zm.92 0v-.45-.47H2.77V-3.69H3.69zm.92 0v-.45-.47H3.69V-3.69H4.6zm0 0"/></symbol><symbol overflow="visible" id="984e851fr"><path d="M.47 2.3zm0-.92zm0-.93zm0-.92zm0-.92zm0-.92zm0-.92zm0-.93zm0-.92zm0-.92zm0-.94zm0-.92zm0-.92zM1.39 2.3zm0-.92zm0-.93zm0-7.39zm0-.92zm0-.92zM2.31 2.3zm0-.92zm0-.93zm0-.92zm0-.92zm0-.92zm0-1.85zm0-.92zm0-1.86zm0-.92zm0-.92zM3.23 2.3zm0-.92zm0-.93zm0-.92zm0-.92zm0-.92zm0-1.85zm0-.92zm0-1.86zm0-.92zm0-.92zM4.16 2.3zm0-.92zm0-.93zm0-.92zm0-.92zm0-.92zm0-1.85zm0-.92zm0-1.86zm0-.92zm0-.92zM5.08 2.3zm0-.92zm0-.93zm0-.92zm0-.92zm0-.92zm0-.92zm0-.93zm0-.92zm0-1.86zm0-.92zm0-.92zM6 2.3zm0-.92zm0-.93zm0-.92zm0-.92zm0-.92zm0-.92zm0-.93zm0-.92zM6-6zm0-.94zm0-.92zm0-.92zM1.84 0v-.45-.47H.92V0H1.84zm0-.92v-.45-.47H.92V-.92H1.84zm0-.92v-.46-.47H.92V-1.84H1.84zm0-.93v-.45-.47H.92V-2.77H1.84zm.93 0v-.45-.47H1.85V-2.77H2.76zm.92 0v-.45-.47H2.77V-2.77H3.69zm.92 0v-.45-.47H3.69V-2.77H4.6zm-2.77-.92v-.45-.47H.92V-3.69H1.84zm0-.92v-.45-.47H.92V-4.61H1.84zm0-.92v-.45-.47H.92V-5.53H1.84zm.93 0v-.45-.47H1.85V-5.53H2.76zm.92 0v-.45-.47H2.77V-5.53H3.69zm.92 0v-.45-.47H3.69V-5.53H4.6zm.92 0v-.45-.47H4.61V-5.53H5.53zm0 0"/></symbol><symbol overflow="visible" id="984e851fs"><path d="M.47 2.3zm0-.92zm0-.93zm0-.92zm0-.92zm0-.92zm0-.92zm0-.93zm0-.92zm0-.92zm0-.94zm0-.92zm0-.92zM1.39 2.3zm0-.92zm0-.93zm0-.92zm0-4.6zm0-.93zm0-.94zm0-.92zm0-.92zM2.31 2.3zm0-.92zm0-.93zm0-1.84zm0-.92zm0-.92zm0-.93zm0-.92zm0-.92zm0-.94zm0-.92zm0-.92zM3.23 2.3zm0-.92zm0-.93zm0-1.84zm0-.92zm0-.92zm0-.93zm0-.92zm0-.92zm0-.94zm0-.92zm0-.92zM4.16 2.3zm0-.92zm0-.93zm0-1.84zm0-.92zm0-.92zm0-.93zm0-.92zm0-.92zm0-.94zm0-.92zm0-.92zM5.08 2.3zm0-.92zm0-.93zm0-.92zm0-4.6zm0-.93zm0-.94zm0-.92zm0-.92zM6 2.3zm0-.92zm0-.93zm0-.92zm0-.92zm0-.92zm0-.92zm0-.93zm0-.92zM6-6zm0-.94zm0-.92zm0-.92zM2.77 0v-.45-.47H1.85V0H2.76zm.92 0v-.45-.47H2.77V0H3.69zm.92 0v-.45-.47H3.69V0H4.6zM1.84-.92v-.45-.47H.92V-.92H1.84zm3.7 0v-.45-.47H4.6V-.92H5.53zm-3.7-.92v-.46-.47H.92V-1.84H1.84zm3.7 0v-.46-.47H4.6V-1.84H5.53zm-3.7-.93v-.45-.47H.92V-2.77H1.84zm3.7 0v-.45-.47H4.6V-2.77H5.53zm-3.7-.92v-.45-.47H.92V-3.69H1.84zm3.7 0v-.45-.47H4.6V-3.69H5.53zm0 0"/></symbol><symbol overflow="visible" id="984e851ft"><path d="M.47 2.3zm0-.92zm0-.93zm0-.92zm0-.92zm0-.92zm0-.92zm0-.93zm0-.92zm0-.92zm0-.94zm0-.92zm0-.92zM1.39 2.3zm0-.92zm0-.93zm0-7.39zm0-.92zm0-.92zM2.31 2.3zm0-.92zm0-.93zm0-1.84zm0-.92zm0-.92zm0-.93zm0-.92zm0-1.86zm0-.92zm0-.92zM3.23 2.3zm0-.92zm0-.93zm0-1.84zm0-.92zm0-.92zm0-.93zm0-.92zm0-1.86zm0-.92zm0-.92zM4.16 2.3zm0-.92zm0-.93zm0-1.84zm0-.92zm0-.92zm0-.93zm0-.92zm0-1.86zm0-.92zm0-.92zM5.08 2.3zm0-.92zm0-.93zm0-.92zm0-5.53zm0-.94zm0-.92zm0-.92zM6 2.3zm0-.92zm0-.93zm0-.92zm0-.92zm0-.92zm0-.92zm0-.93zm0-.92zM6-6zm0-.94zm0-.92zm0-.92zM1.84 0v-.45-.47H.92V0H1.84zm.93 0v-.45-.47H1.85V0H2.76zm.92 0v-.45-.47H2.77V0H3.69zm.92 0v-.45-.47H3.69V0H4.6zM1.84-.92v-.45-.47H.92V-.92H1.84zm3.7 0v-.45-.47H4.6V-.92H5.53zm-3.7-.92v-.46-.47H.92V-1.84H1.84zm3.7 0v-.46-.47H4.6V-1.84H5.53zm-3.7-.93v-.45-.47H.92V-2.77H1.84zm3.7 0v-.45-.47H4.6V-2.77H5.53zm-3.7-.92v-.45-.47H.92V-3.69H1.84zm3.7 0v-.45-.47H4.6V-3.69H5.53zm-3.7-.92v-.45-.47H.92V-4.61H1.84zm3.7 0v-.45-.47H4.6V-4.61H5.53zm-3.7-.92v-.45-.47H.92V-5.53H1.84zm.93 0v-.45-.47H1.85V-5.53H2.76zm.92 0v-.45-.47H2.77V-5.53H3.69zm.92 0v-.45-.47H3.69V-5.53H4.6zm0 0"/></symbol><symbol overflow="visible" id="984e851fu"><path d="M.47 2.3zm0-.92zm0-.93zm0-.92zm0-.92zm0-.92zm0-.92zm0-.93zm0-.92zm0-.92zm0-.94zm0-.92zm0-.92zM1.39 2.3zm0-.92zm0-.93zm0-1.84zm0-.92zm0-1.85zm0-.92zm0-.92zm0-.94zm0-.92zm0-.92zM2.31 2.3zm0-.92zm0-.93zm0-1.84zm0-1.84zm0-1.85zm0-.92zm0-.94zm0-.92zm0-.92zM3.23 2.3zm0-.92zm0-.93zm0-1.84zm0-1.84zm0-1.85zm0-.92zm0-.94zm0-.92zm0-.92zM4.16 2.3zm0-.92zm0-.93zm0-1.84zm0-1.84zm0-1.85zm0-.92zm0-.94zm0-.92zm0-.92zM5.08 2.3zm0-.92zm0-.93zm0-.92zm0-2.76zm0-1.85zm0-.92zm0-.94zm0-.92zm0-.92zM6 2.3zm0-.92zm0-.93zm0-.92zm0-.92zm0-.92zm0-.92zm0-.93zm0-.92zM6-6zm0-.94zm0-.92zm0-.92zM1.84 0v-.45-.47H.92V0H1.84zm.93 0v-.45-.47H1.85V0H2.76zm.92 0v-.45-.47H2.77V0H3.69zm.92 0v-.45-.47H3.69V0H4.6zm.92-.92v-.45-.47H4.61V-.92H5.53zm-2.76-.92v-.46-.47H1.85V-1.84H2.76zm.92 0v-.46-.47H2.77V-1.84H3.69zm.92 0v-.46-.47H3.69V-1.84H4.6zm.92 0v-.46-.47H4.61V-1.84H5.53zm-3.69-.93v-.45-.47H.92V-2.77H1.84zm.93-.92v-.45-.47H1.85V-3.69H2.76zm.92 0v-.45-.47H2.77V-3.69H3.69zm.92 0v-.45-.47H3.69V-3.69H4.6zm.92 0v-.45-.47H4.61V-3.69H5.53zm0 0"/></symbol><symbol overflow="visible" id="984e851fv"><path d="M.47 2.3zm0-.92zm0-.93zm0-.92zm0-.92zm0-.92zm0-.92zm0-.93zm0-.92zm0-.92zm0-.94zm0-.92zm0-.92zM1.39 2.3zm0-.92zm0-.93zm0-.92zm0-3.69zm0-.92zm0-.92zm0-.94zm0-.92zm0-.92zM2.31 2.3zm0-.92zm0-.93zm0-1.84zm0-.92zm0-.92zm0-1.85zm0-.92zm0-.94zm0-.92zm0-.92zM3.23 2.3zm0-.92zm0-.93zm0-1.84zm0-.92zm0-.92zm0-1.85zm0-.92zm0-.94zm0-.92zm0-.92zM4.16 2.3zm0-.92zm0-.93zm0-1.84zm0-.92zm0-.92zm0-1.85zm0-.92zm0-.94zm0-.92zm0-.92zM5.08 2.3zm0-.92zm0-.93zm0-1.84zm0-.92zm0-.92zm0-1.85zm0-.92zm0-.94zm0-.92zm0-.92zM6 2.3zm0-.92zm0-.93zm0-.92zm0-.92zm0-.92zm0-.92zm0-.93zm0-.92zM6-6zm0-.94zm0-.92zm0-.92zM2.77 0v-.45-.47H1.85V0H2.76zm.92 0v-.45-.47H2.77V0H3.69zm.92 0v-.45-.47H3.69V0H4.6zm.92 0v-.45-.47H4.61V0H5.53zM1.84-.92v-.45-.47H.92V-.92H1.84zm0-.92v-.46-.47H.92V-1.84H1.84zm0-.93v-.45-.47H.92V-2.77H1.84zm.93-.92v-.45-.47H1.85V-3.69H2.76zm.92 0v-.45-.47H2.77V-3.69H3.69zm.92 0v-.45-.47H3.69V-3.69H4.6zm.92 0v-.45-.47H4.61V-3.69H5.53zm0 0"/></symbol><symbol overflow="visible" id="984e851fw"><path d="M.47 2.3zm0-.92zm0-.93zm0-.92zm0-.92zm0-.92zm0-.92zm0-.93zm0-.92zm0-.92zm0-.94zm0-.92zm0-.92zM1.39 2.3zm0-.92zm0-.93zm0-.92zm0-3.69zm0-.92zm0-.92zm0-.94zm0-.92zm0-.92zM2.31 2.3zm0-.92zm0-.93zm0-1.84zm0-.92zm0-.92zm0-1.85zm0-.92zm0-.94zm0-.92zm0-.92zM3.23 2.3zm0-.92zm0-.93zm0-1.84zm0-.92zm0-.92zm0-1.85zm0-.92zm0-.94zm0-.92zm0-.92zM4.16 2.3zm0-.92zm0-.93zm0-1.84zm0-.92zm0-.92zm0-1.85zm0-.92zm0-.94zm0-.92zm0-.92zM5.08 2.3zm0-.92zm0-.93zm0-.92zm0-3.69zm0-.92zm0-.92zm0-.94zm0-.92zm0-.92zM6 2.3zm0-.92zm0-.93zm0-.92zm0-.92zm0-.92zm0-.92zm0-.93zm0-.92zM6-6zm0-.94zm0-.92zm0-.92zM2.77 0v-.45-.47H1.85V0H2.76zm.92 0v-.45-.47H2.77V0H3.69zm.92 0v-.45-.47H3.69V0H4.6zM1.84-.92v-.45-.47H.92V-.92H1.84zm3.7 0v-.45-.47H4.6V-.92H5.53zm-3.7-.92v-.46-.47H.92V-1.84H1.84zm3.7 0v-.46-.47H4.6V-1.84H5.53zm-3.7-.93v-.45-.47H.92V-2.77H1.84zm3.7 0v-.45-.47H4.6V-2.77H5.53zm-2.77-.92v-.45-.47H1.85V-3.69H2.76zm.92 0v-.45-.47H2.77V-3.69H3.69zm.92 0v-.45-.47H3.69V-3.69H4.6zm0 0"/></symbol><symbol overflow="visible" id="984e851fx"><path d="M.47 2.3zm0-.92zm0-.93zm0-.92zm0-.92zm0-.92zm0-.92zm0-.93zm0-.92zm0-.92zm0-.94zm0-.92zm0-.92zM1.39 2.3zm0-1.85zm0-.92zm0-.92zm0-.92zm0-2.77zm0-.92zm0-.94zm0-.92zm0-.92zM2.31 2.3zm0-1.85zm0-.92zm0-2.76zm0-.93zm0-.92zm0-.92zm0-.94zm0-.92zm0-.92zM3.23 2.3zm0-.92zm0-2.77zm0-.92zm0-.92zm0-.93zm0-.92zm0-.92zm0-.94zm0-.92zm0-.92zM4.16 2.3zm0-.92zm0-.93zm0-.92zm0-2.76zm0-.93zm0-.92zm0-.92zm0-.94zm0-.92zm0-.92zM5.08 2.3zm0-.92zm0-.93zm0-.92zm0-.92zm0-.92zm0-2.77zm0-.92zm0-.94zm0-.92zm0-.92zM6 2.3zm0-.92zm0-.93zm0-.92zm0-.92zm0-.92zm0-.92zm0-.93zm0-.92zM6-6zm0-.94zm0-.92zm0-.92zM1.84 1.84v-.47-.45H.92V1.84H1.84zm.93 0v-.47-.45H1.85V1.84H2.76zm.92-.92V.45 0H2.77V.92H3.69zm0-.92v-.45-.47H2.77V0H3.69zm-.92-.92v-.45-.47H1.85V-.92H2.76zm1.84 0v-.45-.47H3.69V-.92H4.6zm-1.84-.92v-.46-.47H1.85V-1.84H2.76zm1.84 0v-.46-.47H3.69V-1.84H4.6zm-2.77-.93v-.45-.47H.92V-2.77H1.84zm3.7 0v-.45-.47H4.6V-2.77H5.53zm-3.7-.92v-.45-.47H.92V-3.69H1.84zm3.7 0v-.45-.47H4.6V-3.69H5.53zm0 0"/></symbol><symbol overflow="visible" id="984e851fy"><path d="M.47 2.3zm0-.92zm0-.93zm0-.92zm0-.92zm0-.92zm0-.92zm0-.93zm0-.92zm0-.92zm0-.94zm0-.92zm0-.92zM1.39 2.3zm0-.92zm0-.93zm0-.92zm0-.92zm0-.92zm0-.92zm0-.93zm0-.92zm0-.92zm0-.94zm0-.92zm0-.92zM2.31 2.3zm0-.92zm0-.93zm0-.92zm0-.92zm0-.92zm0-.92zm0-.93zm0-.92zm0-.92zm0-.94zm0-.92zm0-.92zM3.23 2.3zm0-.92zm0-7.38zm0-.94zm0-.92zm0-.92zM4.16 2.3zm0-1.85zm0-.92zm0-.92zm0-.92zm0-.92zm0-.93zm0-.92zm0-1.86zm0-.92zm0-.92zM5.08 2.3zm0-.92zm0-.93zm0-.92zm0-.92zm0-.92zm0-.92zm0-.93zm0-.92zm0-.92zm0-.94zm0-.92zm0-.92zM6 2.3zm0-.92zm0-.93zm0-.92zm0-.92zm0-.92zm0-.92zm0-.93zm0-.92zM6-6zm0-.94zm0-.92zm0-.92zM4.6 1.84v-.47-.45H3.7V1.84H4.6zM3.7.92V.45 0H2.77V.92H3.69zm0-.92v-.45-.47H2.77V0H3.69zm0-.92v-.45-.47H2.77V-.92H3.69zm0-.92v-.46-.47H2.77V-1.84H3.69zm0-.93v-.45-.47H2.77V-2.77H3.69zm0-.92v-.45-.47H2.77V-3.69H3.69zm0-.92v-.45-.47H2.77V-4.61H3.69zm.92-.92v-.45-.47H3.69V-5.53H4.6zm0 0"/></symbol><symbol overflow="visible" id="984e851fz"><path d="M.47 2.3zm0-.92zm0-.93zm0-.92zm0-.92zm0-.92zm0-.92zm0-.93zm0-.92zm0-.92zm0-.94zm0-.92zm0-.92zM1.39 2.3zm0-.92zm0-.93zm0-.92zm0-3.69zm0-.92zm0-.92zm0-.94zm0-.92zm0-.92zM2.31 2.3zm0-.92zm0-.93zm0-1.84zm0-.92zm0-.92zm0-1.85zm0-.92zm0-.94zm0-.92zm0-.92zM3.23 2.3zm0-.92zm0-.93zm0-1.84zm0-.92zm0-.92zm0-1.85zm0-.92zm0-.94zm0-.92zm0-.92zM4.16 2.3zm0-.92zm0-.93zm0-1.84zm0-.92zm0-.92zm0-1.85zm0-.92zm0-.94zm0-.92zm0-.92zM5.08 2.3zm0-.92zm0-.93zm0-.92zm0-6.47zm0-.92zm0-.92zM6 2.3zm0-.92zm0-.93zm0-.92zm0-.92zm0-.92zm0-.92zm0-.93zm0-.92zM6-6zm0-.94zm0-.92zm0-.92zM2.77 0v-.45-.47H1.85V0H2.76zm.92 0v-.45-.47H2.77V0H3.69zm.92 0v-.45-.47H3.69V0H4.6zM1.84-.92v-.45-.47H.92V-.92H1.84zm3.7 0v-.45-.47H4.6V-.92H5.53zm-3.7-.92v-.46-.47H.92V-1.84H1.84zm3.7 0v-.46-.47H4.6V-1.84H5.53zm-3.7-.93v-.45-.47H.92V-2.77H1.84zm3.7 0v-.45-.47H4.6V-2.77H5.53zm-2.77-.92v-.45-.47H1.85V-3.69H2.76zm.92 0v-.45-.47H2.77V-3.69H3.69zm.92 0v-.45-.47H3.69V-3.69H4.6zm.92 0v-.45-.47H4.61V-3.69H5.53zm0-.92v-.45-.47H4.61V-4.61H5.53zm0-.92v-.45-.47H4.61V-5.53H5.53zm0 0"/></symbol><symbol overflow="visible" id="984e851fA"><path d="M.47 2.3zm0-.92zm0-.93zm0-.92zm0-.92zm0-.92zm0-.92zm0-.93zm0-.92zm0-.92zm0-.94zm0-.92zm0-.92zM1.39 2.3zm0-.92zm0-.93zm0-.92zm0-.92zm0-.92zm0-.92zm0-.93zm0-.92zm0-.92zm0-.94zm0-.92zm0-.92zM2.31 2.3zm0-1.85zm0-.92zm0-.92zm0-.92zm0-.92zm0-.93zm0-.92zm0-1.86zm0-.92zm0-.92zM3.23 2.3zm0-.92zm0-7.38zm0-.94zm0-.92zm0-.92zM4.16 2.3zm0-.92zm0-.93zm0-.92zm0-.92zm0-.92zm0-.92zm0-.93zm0-.92zm0-.92zm0-.94zm0-.92zm0-.92zM5.08 2.3zm0-.92zm0-.93zm0-.92zm0-.92zm0-.92zm0-.92zm0-.93zm0-.92zm0-.92zm0-.94zm0-.92zm0-.92zM6 2.3zm0-.92zm0-.93zm0-.92zm0-.92zm0-.92zm0-.92zm0-.93zm0-.92zM6-6zm0-.94zm0-.92zm0-.92zM2.77 1.84v-.47-.45H1.85V1.84H2.76zm.92-.92V.45 0H2.77V.92H3.69zm0-.92v-.45-.47H2.77V0H3.69zm0-.92v-.45-.47H2.77V-.92H3.69zm0-.92v-.46-.47H2.77V-1.84H3.69zm0-.93v-.45-.47H2.77V-2.77H3.69zm0-.92v-.45-.47H2.77V-3.69H3.69zm0-.92v-.45-.47H2.77V-4.61H3.69zm-.92-.92v-.45-.47H1.85V-5.53H2.76zm0 0"/></symbol></defs><g fill="#ff81bf"><use xlink:href="#984e851fa" x="227.3077" y="152"/><use xlink:href="#984e851fb" x="275.7692" y="152"/><use xlink:href="#984e851fc" x="324.2308" y="152"/><use xlink:href="#984e851fd" x="203.0769" y="249"/><use xlink:href="#984e851fe" x="209.5389" y="249"/><use xlink:href="#984e851ff" x="216.0009" y="249"/><use xlink:href="#984e851fg" x="222.4629" y="249"/><use xlink:href="#984e851fh" x="228.9249" y="249"/><use xlink:href="#984e851fi" x="235.3869" y="249"/><use xlink:href="#984e851fh" x="241.8489" y="249"/><use xlink:href="#984e851fe" x="248.3109" y="249"/><use xlink:href="#984e851fj" x="254.7729" y="249"/><use xlink:href="#984e851fe" x="261.2349" y="249"/><use xlink:href="#984e851fk" x="267.6969" y="249"/><use xlink:href="#984e851fl" x="274.1589" y="249"/><use xlink:href="#984e851fm" x="280.6209" y="249"/><use xlink:href="#984e851fn" x="287.0829" y="249"/><use xlink:href="#984e851fg" x="293.5449" y="249"/><use xlink:href="#984e851fi" x="300.0069" y="249"/><use xlink:href="#984e851fh" x="306.4689" y="249"/><use xlink:href="#984e851fo" x="312.9309" y="249"/><use xlink:href="#984e851fp" x="319.3929" y="249"/><use xlink:href="#984e851fq" x="325.8549" y="249"/><use xlink:href="#984e851fl" x="332.3169" y="249"/><use xlink:href="#984e851fg" x="338.7789" y="249"/><use xlink:href="#984e851fe" x="345.2409" y="249"/><use xlink:href="#984e851fj" x="351.7029" y="249"/><use xlink:href="#984e851fe" x="358.1649" y="249"/><use xlink:href="#984e851fk" x="364.6269" y="249"/><use xlink:href="#984e851fl" x="371.0889" y="249"/><use xlink:href="#984e851fm" x="377.5509" y="249"/><use xlink:href="#984e851fn" x="384.0129" y="249"/><use xlink:href="#984e851fg" x="390.4749" y="249"/><g><use xlink:href="#984e851fi" x="396.9231" y="249"/></g><g><use xlink:href="#984e851fr" x="174" y="265"/><use xlink:href="#984e851fe" x="180.462" y="265"/><use xlink:href="#984e851fm" x="186.924" y="265"/><use xlink:href="#984e851fg" x="193.386" y="265"/><use xlink:href="#984e851fs" x="199.848" y="265"/><use xlink:href="#984e851fo" x="206.31" y="265"/><use xlink:href="#984e851fe" x="212.772" y="265"/><use xlink:href="#984e851fh" x="219.234" y="265"/><use xlink:href="#984e851fi" x="225.696" y="265"/><use xlink:href="#984e851ft" x="232.158" y="265"/><use xlink:href="#984e851fp" x="238.62" y="265"/><use xlink:href="#984e851fu" x="245.082" y="265"/><use xlink:href="#984e851fv" x="251.544" y="265"/><use xlink:href="#984e851fo" x="258.006" y="265"/><use xlink:href="#984e851fe" x="264.468" y="265"/><use xlink:href="#984e851fg" x="270.93" y="265"/><use xlink:href="#984e851fp" x="277.392" y="265"/><use xlink:href="#984e851fw" x="283.854" y="265"/><use xlink:href="#984e851fn" x="290.316" y="265"/><use xlink:href="#984e851fm" x="296.778" y="265"/><use xlink:href="#984e851fo" x="303.24" y="265"/><use xlink:href="#984e851fx" x="309.702" y="265"/><use xlink:href="#984e851fi" x="316.164" y="265"/><use xlink:href="#984e851fj" x="322.626" y="265"/><use xlink:href="#984e851fp" x="329.088" y="265"/><use xlink:href="#984e851fq" x="335.55" y="265"/><use xlink:href="#984e851fm" x="342.012" y="265"/><use xlink:href="#984e851fg" x="348.474" y="265"/><use xlink:href="#984e851fs" x="354.936" y="265"/><use xlink:href="#984e851fo" x="361.398" y="265"/><use xlink:href="#984e851fe" x="367.86" y="265"/><use xlink:href="#984e851fu" x="374.322" y="265"/><use xlink:href="#984e851fi" x="380.784" y="265"/><use xlink:href="#984e851fy" x="387.246" y="265"/><use xlink:href="#984e851fz" x="393.708" y="265"/><use xlink:href="#984e851fj" x="400.17" y="265"/><use xlink:href="#984e851fp" x="406.632" y="265"/><use xlink:href="#984e851fq" x="413.094" y="265"/><use xlink:href="#984e851fA" x="419.556" y="265"/></g></g></svg>