<?xml version='1.0' encoding='UTF-8'?>
<svg xmlns="http://www.w3.org/2000/svg" xmlns:xlink="http://www.w3.org/1999/xlink" width="600px" height="300px" viewBox="0 0 600 300" x="0px" y="0px" enable-background="new 0 0 600 300"><defs><symbol overflow="visible" id="f5becf87a"><path d="M3.47 17.3zm0-6.93zm0-6.92zm0-6.92zm0-6.92zm0-6.92zm0-6.92zm0-6.93zm0-6.92zm0-6.92zm0-6.94zm0-6.92zm0-6.92zm6.92 83.08zm0-6.93zm0-6.92zm0-6.92zm0-6.92zm0-6.92zm0-13.85zm0-6.92zm0-6.92zm0-6.94zm0-6.92zm0-6.92zm6.92 83.08zm0-6.93zm0-6.92zm0-6.92zm0-6.92zm0-13.84zm0-13.85zm0-6.92zm0-6.94zm0-6.92zm0-6.92zm6.92 83.08zm0-6.93zm0-6.92zm0-6.92zm0-13.84zm0-13.85zm0-13.84zm0-6.94zm0-6.92zm0-6.92zm6.93 83.08zm0-6.93zm0-6.92zm0-6.92zm0-6.92zm0-13.84zm0-13.85zm0-6.92zm0-6.94zm0-6.92zm0-6.92zm6.92 83.08zm0-6.93zm0-6.92zm0-6.92zm0-13.84zm0-6.92zm0-6.93zm0-13.84zm0-6.94zm0-6.92zm0-6.92zM45 17.3zm0-6.93zm0-6.92zm0-6.92zm0-6.92zm0-6.92zm0-6.92zm0-6.93zm0-6.92zM45-45zm0-6.94zm0-6.92zm0-6.92zM24.23-6.92c1.01 0 1.84-.32 2.49-.97.64-.65.97-1.48.97-2.5 0-1-.33-1.84-.97-2.48a3.38 3.38 0 00-2.49-.97c-1.02 0-1.85.32-2.5.96a3.36 3.36 0 00-.96 2.49c0 1.02.32 1.85.96 2.5.65.65 1.48.97 2.5.97zm13.85 0c1 0 1.83-.32 2.48-.97.65-.65.97-1.48.97-2.5 0-1-.32-1.84-.97-2.48a3.38 3.38 0 00-2.48-.97c-1.03 0-1.86.32-2.5.96a3.36 3.36 0 00-.97 2.49c0 1.02.32 1.85.97 2.5.64.65 1.47.97 2.5.97zM17.3-13.84c1.01 0 1.84-.32 2.49-.97.64-.65.97-1.48.97-2.5 0-1.01-.33-1.84-.97-2.49a3.38 3.38 0 00-2.49-.97c-1.02 0-1.85.33-2.5.97a3.36 3.36 0 00-.97 2.49c0 1.02.32 1.85.97 2.5.65.65 1.48.97 2.5.97zm13.85 0c1 0 1.83-.32 2.48-.97.65-.65.97-1.48.97-2.5 0-1.01-.32-1.84-.97-2.49a3.38 3.38 0 00-2.48-.97c-1.03 0-1.86.33-2.5.97a3.36 3.36 0 00-.97 2.49c0 1.02.32 1.85.97 2.5.64.65 1.47.97 2.5.97zm-20.77-6.93c1 0 1.84-.32 2.48-.96.65-.65.97-1.48.97-2.5 0-1.01-.32-1.84-.96-2.49a3.38 3.38 0 00-2.49-.97c-1.02 0-1.85.33-2.5.97a3.36 3.36 0 00-.97 2.49c0 1.02.32 1.85.97 2.5.65.64 1.48.96 2.5.96zm13.84 0c1.01 0 1.84-.32 2.49-.96.64-.65.97-1.48.97-2.5 0-1.01-.33-1.84-.97-2.49a3.38 3.38 0 00-2.49-.97c-1.02 0-1.85.33-2.5.97a3.36 3.36 0 00-.96 2.49c0 1.02.32 1.85.96 2.5.65.64 1.48.96 2.5.96zm-6.92-6.92c1.01 0 1.84-.32 2.49-.97.64-.64.97-1.47.97-2.5 0-1-.33-1.83-.97-2.48a3.38 3.38 0 00-2.49-.97c-1.02 0-1.85.32-2.5.97a3.36 3.36 0 00-.97 2.48c0 1.03.32 1.86.97 2.5.65.65 1.48.97 2.5.97zm13.85 0c1 0 1.83-.32 2.48-.97.65-.64.97-1.47.97-2.5 0-1-.32-1.83-.97-2.48a3.38 3.38 0 00-2.48-.97c-1.03 0-1.86.32-2.5.97a3.36 3.36 0 00-.97 2.48c0 1.03.32 1.86.97 2.5.64.65 1.47.97 2.5.97zm-6.93-6.92c1.01 0 1.84-.32 2.49-.97.64-.64.97-1.47.97-2.5 0-1-.33-1.83-.97-2.48a3.38 3.38 0 00-2.49-.97c-1.02 0-1.85.32-2.5.97a3.36 3.36 0 00-.96 2.48c0 1.03.32 1.86.96 2.5.65.65 1.48.97 2.5.97zm13.85 0c1 0 1.83-.32 2.48-.97.65-.64.97-1.47.97-2.5 0-1-.32-1.83-.97-2.48a3.38 3.38 0 00-2.48-.97c-1.03 0-1.86.32-2.5.97a3.36 3.36 0 00-.97 2.48c0 1.03.32 1.86.97 2.5.64.65 1.47.97 2.5.97zm0 0"/></symbol><symbol overflow="visible" id="f5becf87b"><path d="M3.47 17.3zm0-6.93zm0-6.92zm0-6.92zm0-6.92zm0-6.92zm0-6.92zm0-6.93zm0-6.92zm0-6.92zm0-6.94zm0-6.92zm0-6.92zm6.92 83.08zm0-6.93zm0-6.92zm0-6.92zm0-20.76zm0-6.93zm0-6.92zm0-6.92zm0-6.94zm0-6.92zm0-6.92zm6.92 83.08zm0-6.93zm0-6.92zm0-13.84zm0-6.92zm0-13.85zm0-6.92zm0-6.92zm0-6.94zm0-6.92zm0-6.92zm6.92 83.08zm0-6.93zm0-6.92zm0-13.84zm0-6.92zm0-6.92zm0-13.85zm0-13.86zm0-6.92zm0-6.92zm6.93 83.08zm0-6.93zm0-6.92zm0-13.84zm0-6.92zm0-6.92zm0-6.93zm0-6.92zm0-6.92zm0-6.94zm0-6.92zm0-6.92zm6.92 83.08zm0-6.93zm0-6.92zm0-6.92zm0-20.76zm0-6.93zm0-6.92zm0-6.92zm0-6.94zm0-6.92zm0-6.92zM45 17.3zm0-6.93zm0-6.92zm0-6.92zm0-6.92zm0-6.92zm0-6.92zm0-6.93zm0-6.92zM45-45zm0-6.94zm0-6.92zm0-6.92zM17.31 0c1.01 0 1.84-.32 2.49-.97.64-.64.97-1.48.97-2.5 0-1-.33-1.83-.97-2.48a3.38 3.38 0 00-2.49-.97c-1.02 0-1.85.32-2.5.97a3.36 3.36 0 00-.97 2.48c0 1.02.32 1.86.97 2.5.65.65 1.48.97 2.5.97zm6.92 0c1.01 0 1.84-.32 2.49-.97.64-.64.97-1.48.97-2.5 0-1-.33-1.83-.97-2.48a3.38 3.38 0 00-2.49-.97c-1.02 0-1.85.32-2.5.97a3.36 3.36 0 00-.96 2.48c0 1.02.32 1.86.96 2.5.65.65 1.48.97 2.5.97zm6.93 0c1 0 1.83-.32 2.48-.97.65-.64.97-1.48.97-2.5 0-1-.32-1.83-.97-2.48a3.38 3.38 0 00-2.48-.97c-1.03 0-1.86.32-2.5.97a3.36 3.36 0 00-.97 2.48c0 1.02.32 1.86.97 2.5.64.65 1.47.97 2.5.97zM10.39-6.92c1 0 1.84-.32 2.48-.97.65-.65.97-1.48.97-2.5 0-1-.32-1.84-.96-2.48a3.38 3.38 0 00-2.49-.97c-1.02 0-1.85.32-2.5.96a3.36 3.36 0 00-.97 2.49c0 1.02.32 1.85.97 2.5.65.65 1.48.97 2.5.97zm27.69 0c1 0 1.83-.32 2.48-.97.65-.65.97-1.48.97-2.5 0-1-.32-1.84-.97-2.48a3.38 3.38 0 00-2.48-.97c-1.03 0-1.86.32-2.5.96a3.36 3.36 0 00-.97 2.49c0 1.02.32 1.85.97 2.5.64.65 1.47.97 2.5.97zm-27.69-6.92c1 0 1.84-.32 2.48-.97.65-.65.97-1.48.97-2.5 0-1.01-.32-1.84-.96-2.49a3.38 3.38 0 00-2.49-.97c-1.02 0-1.85.33-2.5.97a3.36 3.36 0 00-.97 2.49c0 1.02.32 1.85.97 2.5.65.65 1.48.97 2.5.97zm27.69 0c1 0 1.83-.32 2.48-.97.65-.65.97-1.48.97-2.5 0-1.01-.32-1.84-.97-2.49a3.38 3.38 0 00-2.48-.97c-1.03 0-1.86.33-2.5.97a3.36 3.36 0 00-.97 2.49c0 1.02.32 1.85.97 2.5.64.65 1.47.97 2.5.97zM17.3-20.77c1.01 0 1.84-.32 2.49-.96.64-.65.97-1.48.97-2.5 0-1.01-.33-1.84-.97-2.49a3.38 3.38 0 00-2.49-.97c-1.02 0-1.85.33-2.5.97a3.36 3.36 0 00-.97 2.49c0 1.02.32 1.85.97 2.5.65.64 1.48.96 2.5.96zm6.92-6.92c1.01 0 1.84-.32 2.49-.97.64-.64.97-1.47.97-2.5 0-1-.33-1.83-.97-2.48a3.38 3.38 0 00-2.49-.97c-1.02 0-1.85.32-2.5.97a3.36 3.36 0 00-.96 2.48c0 1.03.32 1.86.96 2.5.65.65 1.48.97 2.5.97zm0-13.84c1.01 0 1.84-.32 2.49-.97.64-.64.97-1.48.97-2.5 0-1-.33-1.84-.97-2.48a3.38 3.38 0 00-2.49-.97c-1.02 0-1.85.32-2.5.97a3.36 3.36 0 00-.96 2.48c0 1.02.32 1.86.96 2.5.65.65 1.48.97 2.5.97zm0 0"/></symbol><symbol overflow="visible" id="f5becf87g"><path d="M3.47 17.3zm0-6.93zm0-6.92zm0-6.92zm0-6.92zm0-6.92zm0-6.92zm0-6.93zm0-6.92zm0-6.92zm0-6.94zm0-6.92zm0-6.92zm6.92 83.08zm0-6.93zm0-6.92zm0-6.92zm0-13.84zm0-6.92zm0-6.93zm0-13.84zm0-6.94zm0-6.92zm0-6.92zm6.92 83.08zm0-6.93zm0-6.92zm0-6.92zm0-6.92zm0-13.84zm0-13.85zm0-6.92zm0-6.94zm0-6.92zm0-6.92zm6.92 83.08zm0-6.93zm0-6.92zm0-6.92zm0-13.84zm0-13.85zm0-13.84zm0-6.94zm0-6.92zm0-6.92zm6.93 83.08zm0-6.93zm0-6.92zm0-6.92zm0-6.92zm0-13.84zm0-13.85zm0-6.92zm0-6.94zm0-6.92zm0-6.92zm6.92 83.08zm0-6.93zm0-6.92zm0-6.92zm0-6.92zm0-6.92zm0-13.85zm0-6.92zm0-6.92zm0-6.94zm0-6.92zm0-6.92zM45 17.3zm0-6.93zm0-6.92zm0-6.92zm0-6.92zm0-6.92zm0-6.92zm0-6.93zm0-6.92zM45-45zm0-6.94zm0-6.92zm0-6.92zM10.4-6.92c1 0 1.83-.32 2.47-.97.65-.65.97-1.48.97-2.5 0-1-.32-1.84-.96-2.48a3.38 3.38 0 00-2.49-.97c-1.02 0-1.85.32-2.5.96a3.36 3.36 0 00-.97 2.49c0 1.02.32 1.85.97 2.5.65.65 1.48.97 2.5.97zm13.83 0c1.01 0 1.84-.32 2.49-.97.64-.65.97-1.48.97-2.5 0-1-.33-1.84-.97-2.48a3.38 3.38 0 00-2.49-.97c-1.02 0-1.85.32-2.5.96a3.36 3.36 0 00-.96 2.49c0 1.02.32 1.85.96 2.5.65.65 1.48.97 2.5.97zm-6.92-6.92c1.01 0 1.84-.32 2.49-.97.64-.65.97-1.48.97-2.5 0-1.01-.33-1.84-.97-2.49a3.38 3.38 0 00-2.49-.97c-1.02 0-1.85.33-2.5.97a3.36 3.36 0 00-.97 2.49c0 1.02.32 1.85.97 2.5.65.65 1.48.97 2.5.97zm13.85 0c1 0 1.83-.32 2.48-.97.65-.65.97-1.48.97-2.5 0-1.01-.32-1.84-.97-2.49a3.38 3.38 0 00-2.48-.97c-1.03 0-1.86.33-2.5.97a3.36 3.36 0 00-.97 2.49c0 1.02.32 1.85.97 2.5.64.65 1.47.97 2.5.97zm-6.93-6.93c1.01 0 1.84-.32 2.49-.96.64-.65.97-1.48.97-2.5 0-1.01-.33-1.84-.97-2.49a3.38 3.38 0 00-2.49-.97c-1.02 0-1.85.33-2.5.97a3.36 3.36 0 00-.96 2.49c0 1.02.32 1.85.96 2.5.65.64 1.48.96 2.5.96zm13.85 0c1 0 1.83-.32 2.48-.96.65-.65.97-1.48.97-2.5 0-1.01-.32-1.84-.97-2.49a3.38 3.38 0 00-2.48-.97c-1.03 0-1.86.33-2.5.97a3.36 3.36 0 00-.97 2.49c0 1.02.32 1.85.97 2.5.64.64 1.47.96 2.5.96zM17.3-27.69c1.01 0 1.84-.32 2.49-.97.64-.64.97-1.47.97-2.5 0-1-.33-1.83-.97-2.48a3.38 3.38 0 00-2.49-.97c-1.02 0-1.85.32-2.5.97a3.36 3.36 0 00-.97 2.48c0 1.03.32 1.86.97 2.5.65.65 1.48.97 2.5.97zm13.85 0c1 0 1.83-.32 2.48-.97.65-.64.97-1.47.97-2.5 0-1-.32-1.83-.97-2.48a3.38 3.38 0 00-2.48-.97c-1.03 0-1.86.32-2.5.97a3.36 3.36 0 00-.97 2.48c0 1.03.32 1.86.97 2.5.64.65 1.47.97 2.5.97zM10.39-34.6c1 0 1.84-.32 2.48-.97.65-.64.97-1.47.97-2.5 0-1-.32-1.83-.96-2.48a3.38 3.38 0 00-2.49-.97c-1.02 0-1.85.32-2.5.97a3.36 3.36 0 00-.97 2.48c0 1.03.32 1.86.97 2.5.65.65 1.48.97 2.5.97zm13.84 0c1.01 0 1.84-.32 2.49-.97.64-.64.97-1.47.97-2.5 0-1-.33-1.83-.97-2.48a3.38 3.38 0 00-2.49-.97c-1.02 0-1.85.32-2.5.97a3.36 3.36 0 00-.96 2.48c0 1.03.32 1.86.96 2.5.65.65 1.48.97 2.5.97zm0 0"/></symbol><symbol overflow="visible" id="f5becf87c"><path d="M3.47 17.3zm0-6.93zm0-6.92zm0-6.92zm0-6.92zm0-6.92zm0-6.92zm0-6.93zm0-6.92zm0-6.92zm0-6.94zm0-6.92zm0-6.92zm6.92 83.08zm0-6.93zm0-6.92zm0-6.92zm0-41.53zm0-6.94zm0-6.92zm0-6.92zm6.92 83.08zm0-6.93zm0-6.92zm0-13.84zm0-6.92zm0-6.92zm0-6.93zm0-6.92zm0-13.86zm0-6.92zm0-6.92zm6.92 83.08zm0-6.93zm0-34.6zm0-6.93zm0-6.92zm0-13.86zm0-6.92zm0-6.92zm6.93 83.08zm0-6.93zm0-6.92zm0-13.84zm0-6.92zm0-6.92zm0-6.93zm0-6.92zm0-13.86zm0-6.92zm0-6.92zm6.92 83.08zm0-6.93zm0-6.92zm0-6.92zm0-41.53zm0-6.94zm0-6.92zm0-6.92zM45 17.3zm0-6.93zm0-6.92zm0-6.92zm0-6.92zm0-6.92zm0-6.92zm0-6.93zm0-6.92zM45-45zm0-6.94zm0-6.92zm0-6.92zM24.23 6.92c1.01 0 1.84-.32 2.49-.97a3.4 3.4 0 00.97-2.5c0-1-.33-1.84-.97-2.48A3.36 3.36 0 0024.23 0c-1.02 0-1.85.32-2.5.97a3.35 3.35 0 00-.96 2.48c0 1.02.32 1.85.96 2.5.65.65 1.48.97 2.5.97zM17.31 0c1.01 0 1.84-.32 2.49-.97.64-.64.97-1.48.97-2.5 0-1-.33-1.83-.97-2.48a3.38 3.38 0 00-2.49-.97c-1.02 0-1.85.32-2.5.97a3.36 3.36 0 00-.97 2.48c0 1.02.32 1.86.97 2.5.65.65 1.48.97 2.5.97zm6.92 0c1.01 0 1.84-.32 2.49-.97.64-.64.97-1.48.97-2.5 0-1-.33-1.83-.97-2.48a3.38 3.38 0 00-2.49-.97c-1.02 0-1.85.32-2.5.97a3.36 3.36 0 00-.96 2.48c0 1.02.32 1.86.96 2.5.65.65 1.48.97 2.5.97zm6.93 0c1 0 1.83-.32 2.48-.97.65-.64.97-1.48.97-2.5 0-1-.32-1.83-.97-2.48a3.38 3.38 0 00-2.48-.97c-1.03 0-1.86.32-2.5.97a3.36 3.36 0 00-.97 2.48c0 1.02.32 1.86.97 2.5.64.65 1.47.97 2.5.97zM10.39-6.92c1 0 1.84-.32 2.48-.97.65-.65.97-1.48.97-2.5 0-1-.32-1.84-.96-2.48a3.38 3.38 0 00-2.49-.97c-1.02 0-1.85.32-2.5.96a3.36 3.36 0 00-.97 2.49c0 1.02.32 1.85.97 2.5.65.65 1.48.97 2.5.97zm13.84 0c1.01 0 1.84-.32 2.49-.97.64-.65.97-1.48.97-2.5 0-1-.33-1.84-.97-2.48a3.38 3.38 0 00-2.49-.97c-1.02 0-1.85.32-2.5.96a3.36 3.36 0 00-.96 2.49c0 1.02.32 1.85.96 2.5.65.65 1.48.97 2.5.97zm13.85 0c1 0 1.83-.32 2.48-.97.65-.65.97-1.48.97-2.5 0-1-.32-1.84-.97-2.48a3.38 3.38 0 00-2.48-.97c-1.03 0-1.86.32-2.5.96a3.36 3.36 0 00-.97 2.49c0 1.02.32 1.85.97 2.5.64.65 1.47.97 2.5.97zm-27.69-6.92c1 0 1.84-.32 2.48-.97.65-.65.97-1.48.97-2.5 0-1.01-.32-1.84-.96-2.49a3.38 3.38 0 00-2.49-.97c-1.02 0-1.85.33-2.5.97a3.36 3.36 0 00-.97 2.49c0 1.02.32 1.85.97 2.5.65.65 1.48.97 2.5.97zm13.84 0c1.01 0 1.84-.32 2.49-.97.64-.65.97-1.48.97-2.5 0-1.01-.33-1.84-.97-2.49a3.38 3.38 0 00-2.49-.97c-1.02 0-1.85.33-2.5.97a3.36 3.36 0 00-.96 2.49c0 1.02.32 1.85.96 2.5.65.65 1.48.97 2.5.97zm13.85 0c1 0 1.83-.32 2.48-.97.65-.65.97-1.48.97-2.5 0-1.01-.32-1.84-.97-2.49a3.38 3.38 0 00-2.48-.97c-1.03 0-1.86.33-2.5.97a3.36 3.36 0 00-.97 2.49c0 1.02.32 1.85.97 2.5.64.65 1.47.97 2.5.97zm-27.69-6.93c1 0 1.84-.32 2.48-.96.65-.65.97-1.48.97-2.5 0-1.01-.32-1.84-.96-2.49a3.38 3.38 0 00-2.49-.97c-1.02 0-1.85.33-2.5.97a3.36 3.36 0 00-.97 2.49c0 1.02.32 1.85.97 2.5.65.64 1.48.96 2.5.96zm27.69 0c1 0 1.83-.32 2.48-.96.65-.65.97-1.48.97-2.5 0-1.01-.32-1.84-.97-2.49a3.38 3.38 0 00-2.48-.97c-1.03 0-1.86.33-2.5.97a3.36 3.36 0 00-.97 2.49c0 1.02.32 1.85.97 2.5.64.64 1.47.96 2.5.96zm-27.69-6.92c1 0 1.84-.32 2.48-.97.65-.64.97-1.47.97-2.5 0-1-.32-1.83-.96-2.48a3.38 3.38 0 00-2.49-.97c-1.02 0-1.85.32-2.5.97a3.36 3.36 0 00-.97 2.48c0 1.03.32 1.86.97 2.5.65.65 1.48.97 2.5.97zm27.69 0c1 0 1.83-.32 2.48-.97.65-.64.97-1.47.97-2.5 0-1-.32-1.83-.97-2.48a3.38 3.38 0 00-2.48-.97c-1.03 0-1.86.32-2.5.97a3.36 3.36 0 00-.97 2.48c0 1.03.32 1.86.97 2.5.64.65 1.47.97 2.5.97zM10.39-34.6c1 0 1.84-.32 2.48-.97.65-.64.97-1.47.97-2.5 0-1-.32-1.83-.96-2.48a3.38 3.38 0 00-2.49-.97c-1.02 0-1.85.32-2.5.97a3.36 3.36 0 00-.97 2.48c0 1.03.32 1.86.97 2.5.65.65 1.48.97 2.5.97zm27.69 0c1 0 1.83-.32 2.48-.97.65-.64.97-1.47.97-2.5 0-1-.32-1.83-.97-2.48a3.38 3.38 0 00-2.48-.97c-1.03 0-1.86.32-2.5.97a3.36 3.36 0 00-.97 2.48c0 1.03.32 1.86.97 2.5.64.65 1.47.97 2.5.97zM17.3-41.53c1.01 0 1.84-.32 2.49-.97.64-.64.97-1.48.97-2.5 0-1-.33-1.84-.97-2.48a3.38 3.38 0 00-2.49-.97c-1.02 0-1.85.32-2.5.97a3.36 3.36 0 00-.97 2.48c0 1.02.32 1.86.97 2.5.65.65 1.48.97 2.5.97zm6.92 0c1.01 0 1.84-.32 2.49-.97.64-.64.97-1.48.97-2.5 0-1-.33-1.84-.97-2.48a3.38 3.38 0 00-2.49-.97c-1.02 0-1.85.32-2.5.97a3.36 3.36 0 00-.96 2.48c0 1.02.32 1.86.96 2.5.65.65 1.48.97 2.5.97zm6.93 0c1 0 1.83-.32 2.48-.97.65-.64.97-1.48.97-2.5 0-1-.32-1.84-.97-2.48a3.38 3.38 0 00-2.48-.97c-1.03 0-1.86.32-2.5.97a3.36 3.36 0 00-.97 2.48c0 1.02.32 1.86.97 2.5.64.65 1.47.97 2.5.97zm0 0"/></symbol><symbol overflow="visible" id="f5becf87d"><path d="M3.47 17.3zm0-6.93zm0-6.92zm0-6.92zm0-6.92zm0-6.92zm0-6.92zm0-6.93zm0-6.92zm0-6.92zm0-6.94zm0-6.92zm0-6.92zm6.92 83.08zm0-6.93zm0-6.92zm0-6.92zm0-48.47zm0-6.92zm0-6.92zm6.92 83.08zm0-6.93zm0-6.92zm0-13.84zm0-6.92zm0-6.92zm0-6.93zm0-6.92zm0-6.92zm0-6.94zm0-6.92zm0-6.92zm6.92 83.08zm0-6.93zm0-6.92zm0-13.84zm0-6.92zm0-6.92zm0-6.93zm0-6.92zm0-6.92zm0-6.94zm0-6.92zm0-6.92zm6.93 83.08zm0-6.93zm0-6.92zm0-13.84zm0-6.92zm0-6.92zm0-6.93zm0-6.92zm0-6.92zm0-6.94zm0-6.92zm0-6.92zm6.92 83.08zm0-6.93zm0-6.92zm0-6.92zm0-48.47zm0-6.92zm0-6.92zM45 17.3zm0-6.93zm0-6.92zm0-6.92zm0-6.92zm0-6.92zm0-6.92zm0-6.93zm0-6.92zM45-45zm0-6.94zm0-6.92zm0-6.92zM17.31 0c1.01 0 1.84-.32 2.49-.97.64-.64.97-1.48.97-2.5 0-1-.33-1.83-.97-2.48a3.38 3.38 0 00-2.49-.97c-1.02 0-1.85.32-2.5.97a3.36 3.36 0 00-.97 2.48c0 1.02.32 1.86.97 2.5.65.65 1.48.97 2.5.97zm6.92 0c1.01 0 1.84-.32 2.49-.97.64-.64.97-1.48.97-2.5 0-1-.33-1.83-.97-2.48a3.38 3.38 0 00-2.49-.97c-1.02 0-1.85.32-2.5.97a3.36 3.36 0 00-.96 2.48c0 1.02.32 1.86.96 2.5.65.65 1.48.97 2.5.97zm6.93 0c1 0 1.83-.32 2.48-.97.65-.64.97-1.48.97-2.5 0-1-.32-1.83-.97-2.48a3.38 3.38 0 00-2.48-.97c-1.03 0-1.86.32-2.5.97a3.36 3.36 0 00-.97 2.48c0 1.02.32 1.86.97 2.5.64.65 1.47.97 2.5.97zM10.39-6.92c1 0 1.84-.32 2.48-.97.65-.65.97-1.48.97-2.5 0-1-.32-1.84-.96-2.48a3.38 3.38 0 00-2.49-.97c-1.02 0-1.85.32-2.5.96a3.36 3.36 0 00-.97 2.49c0 1.02.32 1.85.97 2.5.65.65 1.48.97 2.5.97zm27.69 0c1 0 1.83-.32 2.48-.97.65-.65.97-1.48.97-2.5 0-1-.32-1.84-.97-2.48a3.38 3.38 0 00-2.48-.97c-1.03 0-1.86.32-2.5.96a3.36 3.36 0 00-.97 2.49c0 1.02.32 1.85.97 2.5.64.65 1.47.97 2.5.97zm-27.69-6.92c1 0 1.84-.32 2.48-.97.65-.65.97-1.48.97-2.5 0-1.01-.32-1.84-.96-2.49a3.38 3.38 0 00-2.49-.97c-1.02 0-1.85.33-2.5.97a3.36 3.36 0 00-.97 2.49c0 1.02.32 1.85.97 2.5.65.65 1.48.97 2.5.97zm27.69 0c1 0 1.83-.32 2.48-.97.65-.65.97-1.48.97-2.5 0-1.01-.32-1.84-.97-2.49a3.38 3.38 0 00-2.48-.97c-1.03 0-1.86.33-2.5.97a3.36 3.36 0 00-.97 2.49c0 1.02.32 1.85.97 2.5.64.65 1.47.97 2.5.97zm-27.69-6.93c1 0 1.84-.32 2.48-.96.65-.65.97-1.48.97-2.5 0-1.01-.32-1.84-.96-2.49a3.38 3.38 0 00-2.49-.97c-1.02 0-1.85.33-2.5.97a3.36 3.36 0 00-.97 2.49c0 1.02.32 1.85.97 2.5.65.64 1.48.96 2.5.96zm27.69 0c1 0 1.83-.32 2.48-.96.65-.65.97-1.48.97-2.5 0-1.01-.32-1.84-.97-2.49a3.38 3.38 0 00-2.48-.97c-1.03 0-1.86.33-2.5.97a3.36 3.36 0 00-.97 2.49c0 1.02.32 1.85.97 2.5.64.64 1.47.96 2.5.96zm-27.69-6.92c1 0 1.84-.32 2.48-.97.65-.64.97-1.47.97-2.5 0-1-.32-1.83-.96-2.48a3.38 3.38 0 00-2.49-.97c-1.02 0-1.85.32-2.5.97a3.36 3.36 0 00-.97 2.48c0 1.03.32 1.86.97 2.5.65.65 1.48.97 2.5.97zm27.69 0c1 0 1.83-.32 2.48-.97.65-.64.97-1.47.97-2.5 0-1-.32-1.83-.97-2.48a3.38 3.38 0 00-2.48-.97c-1.03 0-1.86.32-2.5.97a3.36 3.36 0 00-.97 2.48c0 1.03.32 1.86.97 2.5.64.65 1.47.97 2.5.97zM10.39-34.6c1 0 1.84-.32 2.48-.97.65-.64.97-1.47.97-2.5 0-1-.32-1.83-.96-2.48a3.38 3.38 0 00-2.49-.97c-1.02 0-1.85.32-2.5.97a3.36 3.36 0 00-.97 2.48c0 1.03.32 1.86.97 2.5.65.65 1.48.97 2.5.97zm27.69 0c1 0 1.83-.32 2.48-.97.65-.64.97-1.47.97-2.5 0-1-.32-1.83-.97-2.48a3.38 3.38 0 00-2.48-.97c-1.03 0-1.86.32-2.5.97a3.36 3.36 0 00-.97 2.48c0 1.03.32 1.86.97 2.5.64.65 1.47.97 2.5.97zm-27.69-6.92c1 0 1.84-.32 2.48-.97.65-.64.97-1.48.97-2.5 0-1-.32-1.84-.96-2.48a3.38 3.38 0 00-2.49-.97c-1.02 0-1.85.32-2.5.97A3.36 3.36 0 006.92-45c0 1.02.32 1.86.97 2.5.65.65 1.48.97 2.5.97zm27.69 0c1 0 1.83-.32 2.48-.97.65-.64.97-1.48.97-2.5 0-1-.32-1.84-.97-2.48a3.38 3.38 0 00-2.48-.97c-1.03 0-1.86.32-2.5.97A3.36 3.36 0 0034.6-45c0 1.02.32 1.86.97 2.5.64.65 1.47.97 2.5.97zm0 0"/></symbol><symbol overflow="visible" id="f5becf87e"><path d="M3.47 17.3zm0-6.93zm0-6.92zm0-6.92zm0-6.92zm0-6.92zm0-6.92zm0-6.93zm0-6.92zm0-6.92zm0-6.94zm0-6.92zm0-6.92zm6.92 83.08zm0-6.93zm0-6.92zm0-55.39zm0-6.92zm0-6.92zm6.92 83.08zm0-6.93zm0-6.92zm0-13.84zm0-6.92zm0-13.85zm0-6.92zm0-13.86zm0-6.92zm0-6.92zm6.92 83.08zm0-6.93zm0-6.92zm0-13.84zm0-6.92zm0-13.85zm0-6.92zm0-13.86zm0-13.84zm6.93 83.08zm0-6.93zm0-6.92zm0-13.84zm0-6.92zm0-13.85zm0-6.92zm0-13.86zm0-6.92zm6.92 76.16zm0-6.93zm0-6.92zm0-13.84zm0-6.92zm0-6.92zm0-6.93zm0-6.92zm0-13.86zm0-6.92zm0-6.92zM45 17.3zm0-6.93zm0-6.92zm0-6.92zm0-6.92zm0-6.92zm0-6.92zm0-6.93zm0-6.92zM45-45zm0-6.94zm0-6.92zm0-6.92zM10.4 0c1 0 1.83-.32 2.47-.97.65-.64.97-1.48.97-2.5 0-1-.32-1.83-.96-2.48a3.38 3.38 0 00-2.49-.97c-1.02 0-1.85.32-2.5.97a3.36 3.36 0 00-.97 2.48c0 1.02.32 1.86.97 2.5.65.65 1.48.97 2.5.97zm6.91 0c1.01 0 1.84-.32 2.49-.97.64-.64.97-1.48.97-2.5 0-1-.33-1.83-.97-2.48a3.38 3.38 0 00-2.49-.97c-1.02 0-1.85.32-2.5.97a3.36 3.36 0 00-.97 2.48c0 1.02.32 1.86.97 2.5.65.65 1.48.97 2.5.97zm6.92 0c1.01 0 1.84-.32 2.49-.97.64-.64.97-1.48.97-2.5 0-1-.33-1.83-.97-2.48a3.38 3.38 0 00-2.49-.97c-1.02 0-1.85.32-2.5.97a3.36 3.36 0 00-.96 2.48c0 1.02.32 1.86.96 2.5.65.65 1.48.97 2.5.97zm6.93 0c1 0 1.83-.32 2.48-.97.65-.64.97-1.48.97-2.5 0-1-.32-1.83-.97-2.48a3.38 3.38 0 00-2.48-.97c-1.03 0-1.86.32-2.5.97a3.36 3.36 0 00-.97 2.48c0 1.02.32 1.86.97 2.5.64.65 1.47.97 2.5.97zm6.92 0c1 0 1.83-.32 2.48-.97.65-.64.97-1.48.97-2.5 0-1-.32-1.83-.97-2.48a3.38 3.38 0 00-2.48-.97c-1.03 0-1.86.32-2.5.97a3.36 3.36 0 00-.97 2.48c0 1.02.32 1.86.97 2.5.64.65 1.47.97 2.5.97zM10.39-6.92c1 0 1.84-.32 2.48-.97.65-.65.97-1.48.97-2.5 0-1-.32-1.84-.96-2.48a3.38 3.38 0 00-2.49-.97c-1.02 0-1.85.32-2.5.96a3.36 3.36 0 00-.97 2.49c0 1.02.32 1.85.97 2.5.65.65 1.48.97 2.5.97zm0-6.92c1 0 1.84-.32 2.48-.97.65-.65.97-1.48.97-2.5 0-1.01-.32-1.84-.96-2.49a3.38 3.38 0 00-2.49-.97c-1.02 0-1.85.33-2.5.97a3.36 3.36 0 00-.97 2.49c0 1.02.32 1.85.97 2.5.65.65 1.48.97 2.5.97zm0-6.93c1 0 1.84-.32 2.48-.96.65-.65.97-1.48.97-2.5 0-1.01-.32-1.84-.96-2.49a3.38 3.38 0 00-2.49-.97c-1.02 0-1.85.33-2.5.97a3.36 3.36 0 00-.97 2.49c0 1.02.32 1.85.97 2.5.65.64 1.48.96 2.5.96zm6.92 0c1.01 0 1.84-.32 2.49-.96.64-.65.97-1.48.97-2.5 0-1.01-.33-1.84-.97-2.49a3.38 3.38 0 00-2.49-.97c-1.02 0-1.85.33-2.5.97a3.36 3.36 0 00-.97 2.49c0 1.02.32 1.85.97 2.5.65.64 1.48.96 2.5.96zm6.92 0c1.01 0 1.84-.32 2.49-.96.64-.65.97-1.48.97-2.5 0-1.01-.33-1.84-.97-2.49a3.38 3.38 0 00-2.49-.97c-1.02 0-1.85.33-2.5.97a3.36 3.36 0 00-.96 2.49c0 1.02.32 1.85.96 2.5.65.64 1.48.96 2.5.96zm6.93 0c1 0 1.83-.32 2.48-.96.65-.65.97-1.48.97-2.5 0-1.01-.32-1.84-.97-2.49a3.38 3.38 0 00-2.48-.97c-1.03 0-1.86.33-2.5.97a3.36 3.36 0 00-.97 2.49c0 1.02.32 1.85.97 2.5.64.64 1.47.96 2.5.96zm-20.77-6.92c1 0 1.84-.32 2.48-.97.65-.64.97-1.47.97-2.5 0-1-.32-1.83-.96-2.48a3.38 3.38 0 00-2.49-.97c-1.02 0-1.85.32-2.5.97a3.36 3.36 0 00-.97 2.48c0 1.03.32 1.86.97 2.5.65.65 1.48.97 2.5.97zm0-6.92c1 0 1.84-.32 2.48-.97.65-.64.97-1.47.97-2.5 0-1-.32-1.83-.96-2.48a3.38 3.38 0 00-2.49-.97c-1.02 0-1.85.32-2.5.97a3.36 3.36 0 00-.97 2.48c0 1.03.32 1.86.97 2.5.65.65 1.48.97 2.5.97zm0-6.92c1 0 1.84-.32 2.48-.97.65-.64.97-1.48.97-2.5 0-1-.32-1.84-.96-2.48a3.38 3.38 0 00-2.49-.97c-1.02 0-1.85.32-2.5.97A3.36 3.36 0 006.92-45c0 1.02.32 1.86.97 2.5.65.65 1.48.97 2.5.97zm6.92 0c1.01 0 1.84-.32 2.49-.97.64-.64.97-1.48.97-2.5 0-1-.33-1.84-.97-2.48a3.38 3.38 0 00-2.49-.97c-1.02 0-1.85.32-2.5.97a3.36 3.36 0 00-.97 2.48c0 1.02.32 1.86.97 2.5.65.65 1.48.97 2.5.97zm6.92 0c1.01 0 1.84-.32 2.49-.97.64-.64.97-1.48.97-2.5 0-1-.33-1.84-.97-2.48a3.38 3.38 0 00-2.49-.97c-1.02 0-1.85.32-2.5.97a3.36 3.36 0 00-.96 2.48c0 1.02.32 1.86.96 2.5.65.65 1.48.97 2.5.97zm6.93 0c1 0 1.83-.32 2.48-.97.65-.64.97-1.48.97-2.5 0-1-.32-1.84-.97-2.48a3.38 3.38 0 00-2.48-.97c-1.03 0-1.86.32-2.5.97a3.36 3.36 0 00-.97 2.48c0 1.02.32 1.86.97 2.5.64.65 1.47.97 2.5.97zm6.92 0c1 0 1.83-.32 2.48-.97.65-.64.97-1.48.97-2.5 0-1-.32-1.84-.97-2.48a3.38 3.38 0 00-2.48-.97c-1.03 0-1.86.32-2.5.97A3.36 3.36 0 0034.6-45c0 1.02.32 1.86.97 2.5.64.65 1.47.97 2.5.97zM24.23-55.4c1.01 0 1.84-.32 2.49-.97.64-.64.97-1.48.97-2.5 0-1-.33-1.84-.97-2.48a3.38 3.38 0 00-2.49-.97c-1.02 0-1.85.32-2.5.97a3.36 3.36 0 00-.96 2.48c0 1.02.32 1.86.96 2.5.65.65 1.48.97 2.5.97zm6.93-6.92c1 0 1.83-.32 2.48-.97.65-.65.97-1.48.97-2.5 0-1-.32-1.84-.97-2.49a3.38 3.38 0 00-2.48-.96c-1.03 0-1.86.32-2.5.96a3.36 3.36 0 00-.97 2.49c0 1.02.32 1.85.97 2.5.64.65 1.47.97 2.5.97zm0 0"/></symbol><symbol overflow="visible" id="f5becf87f"><path d="M3.47 17.3zm0-6.93zm0-6.92zm0-6.92zm0-6.92zm0-6.92zm0-6.92zm0-6.93zm0-6.92zm0-6.92zm0-6.94zm0-6.92zm0-6.92zm6.92 83.08zm0-6.93zm0-6.92zm0-6.92zm0-6.92zm0-6.92zm0-6.92zm0-20.77zm0-6.94zm0-6.92zm0-6.92zm6.92 83.08zm0-6.93zm0-6.92zm0-6.92zm0-6.92zm0-6.92zm0-6.92zm0-6.93zm0-6.92zm0-13.86zm0-6.92zm0-6.92zm6.92 83.08zm0-6.93zm0-6.92zm0-13.84zm0-13.84zm0-6.93zm0-6.92zm0-13.86zm0-6.92zm0-6.92zm6.93 83.08zm0-6.93zm0-6.92zm0-6.92zm0-6.92zm0-6.92zm0-13.85zm0-6.92zm0-13.86zm0-6.92zm0-6.92zm6.92 83.08zm0-6.93zm0-6.92zm0-6.92zm0-6.92zm0-6.92zm0-6.92zm0-20.77zm0-6.94zm0-6.92zm0-6.92zM45 17.3zm0-6.93zm0-6.92zm0-6.92zm0-6.92zm0-6.92zm0-6.92zm0-6.93zm0-6.92zM45-45zm0-6.94zm0-6.92zm0-6.92zM24.23 0c1.01 0 1.84-.32 2.49-.97.64-.64.97-1.48.97-2.5 0-1-.33-1.83-.97-2.48a3.38 3.38 0 00-2.49-.97c-1.02 0-1.85.32-2.5.97a3.36 3.36 0 00-.96 2.48c0 1.02.32 1.86.96 2.5.65.65 1.48.97 2.5.97zm0-13.84c1.01 0 1.84-.32 2.49-.97.64-.65.97-1.48.97-2.5 0-1.01-.33-1.84-.97-2.49a3.38 3.38 0 00-2.49-.97c-1.02 0-1.85.33-2.5.97a3.36 3.36 0 00-.96 2.49c0 1.02.32 1.85.96 2.5.65.65 1.48.97 2.5.97zm6.93-6.93c1 0 1.83-.32 2.48-.96.65-.65.97-1.48.97-2.5 0-1.01-.32-1.84-.97-2.49a3.38 3.38 0 00-2.48-.97c-1.03 0-1.86.33-2.5.97a3.36 3.36 0 00-.97 2.49c0 1.02.32 1.85.97 2.5.64.64 1.47.96 2.5.96zm-20.77-6.92c1 0 1.84-.32 2.48-.97.65-.64.97-1.47.97-2.5 0-1-.32-1.83-.96-2.48a3.38 3.38 0 00-2.49-.97c-1.02 0-1.85.32-2.5.97a3.36 3.36 0 00-.97 2.48c0 1.03.32 1.86.97 2.5.65.65 1.48.97 2.5.97zm27.69 0c1 0 1.83-.32 2.48-.97.65-.64.97-1.47.97-2.5 0-1-.32-1.83-.97-2.48a3.38 3.38 0 00-2.48-.97c-1.03 0-1.86.32-2.5.97a3.36 3.36 0 00-.97 2.48c0 1.03.32 1.86.97 2.5.64.65 1.47.97 2.5.97zM10.39-34.6c1 0 1.84-.32 2.48-.97.65-.64.97-1.47.97-2.5 0-1-.32-1.83-.96-2.48a3.38 3.38 0 00-2.49-.97c-1.02 0-1.85.32-2.5.97a3.36 3.36 0 00-.97 2.48c0 1.03.32 1.86.97 2.5.65.65 1.48.97 2.5.97zm27.69 0c1 0 1.83-.32 2.48-.97.65-.64.97-1.47.97-2.5 0-1-.32-1.83-.97-2.48a3.38 3.38 0 00-2.48-.97c-1.03 0-1.86.32-2.5.97a3.36 3.36 0 00-.97 2.48c0 1.03.32 1.86.97 2.5.64.65 1.47.97 2.5.97zM17.3-41.53c1.01 0 1.84-.32 2.49-.97.64-.64.97-1.48.97-2.5 0-1-.33-1.84-.97-2.48a3.38 3.38 0 00-2.49-.97c-1.02 0-1.85.32-2.5.97a3.36 3.36 0 00-.97 2.48c0 1.02.32 1.86.97 2.5.65.65 1.48.97 2.5.97zm6.92 0c1.01 0 1.84-.32 2.49-.97.64-.64.97-1.48.97-2.5 0-1-.33-1.84-.97-2.48a3.38 3.38 0 00-2.49-.97c-1.02 0-1.85.32-2.5.97a3.36 3.36 0 00-.96 2.48c0 1.02.32 1.86.96 2.5.65.65 1.48.97 2.5.97zm6.93 0c1 0 1.83-.32 2.48-.97.65-.64.97-1.48.97-2.5 0-1-.32-1.84-.97-2.48a3.38 3.38 0 00-2.48-.97c-1.03 0-1.86.32-2.5.97a3.36 3.36 0 00-.97 2.48c0 1.02.32 1.86.97 2.5.64.65 1.47.97 2.5.97zm0 0"/></symbol><symbol overflow="visible" id="f5becf87h"><path d="M.47 2.3zm0-.92zm0-.93zm0-.92zm0-.92zm0-.92zm0-.92zm0-.93zm0-.92zm0-.92zm0-.94zm0-.92zm0-.92zM1.39 2.3zm0-.92zm0-.93zm0-.92zm0-.92zm0-.92zm0-.92zm0-.93zm0-.92zm0-1.86zm0-.92zm0-.92zM2.31 2.3zm0-.92zm0-.93zm0-.92zm0-.92zm0-.92zm0-.92zm0-.93zm0-.92zm0-1.86zm0-.92zm0-.92zM3.23 2.3zm0-.92zm0-.93zm0-7.39zm0-.92zm0-.92zM4.16 2.3zm0-.92zm0-.93zm0-.92zm0-.92zm0-.92zm0-.92zm0-.93zm0-.92zm0-1.86zm0-.92zm0-.92zM5.08 2.3zm0-.92zm0-.93zm0-.92zm0-.92zm0-.92zm0-.92zm0-.93zm0-.92zm0-1.86zm0-.92zm0-.92zM6 2.3zm0-.92zm0-.93zm0-.92zm0-.92zm0-.92zm0-.92zm0-.93zm0-.92zM6-6zm0-.94zm0-.92zm0-.92zM3.69 0v-.45-.47H2.77V0H3.69zm0-.92v-.45-.47H2.77V-.92H3.69zm0-.92v-.46-.47H2.77V-1.84H3.69zm0-.93v-.45-.47H2.77V-2.77H3.69zm0-.92v-.45-.47H2.77V-3.69H3.69zm0-.92v-.45-.47H2.77V-4.61H3.69zm-1.85-.92v-.45-.47H.92V-5.53H1.84zm.93 0v-.45-.47H1.85V-5.53H2.76zm.92 0v-.45-.47H2.77V-5.53H3.69zm.92 0v-.45-.47H3.69V-5.53H4.6zm.92 0v-.45-.47H4.61V-5.53H5.53zm0 0"/></symbol><symbol overflow="visible" id="f5becf87i"><path d="M.47 2.3zm0-.92zm0-.93zm0-.92zm0-.92zm0-.92zm0-.92zm0-.93zm0-.92zm0-.92zm0-.94zm0-.92zm0-.92zM1.39 2.3zm0-.92zm0-.93zm0-.92zm0-3.69zm0-.92zm0-.92zm0-.94zm0-.92zm0-.92zM2.31 2.3zm0-.92zm0-.93zm0-1.84zm0-1.84zm0-1.85zm0-.92zm0-.94zm0-.92zm0-.92zM3.23 2.3zm0-.92zm0-.93zm0-1.84zm0-1.84zm0-1.85zm0-.92zm0-.94zm0-.92zm0-.92zM4.16 2.3zm0-.92zm0-.93zm0-1.84zm0-1.84zm0-1.85zm0-.92zm0-.94zm0-.92zm0-.92zM5.08 2.3zm0-.92zm0-.93zm0-1.84zm0-2.77zm0-.92zm0-.92zm0-.94zm0-.92zm0-.92zM6 2.3zm0-.92zm0-.93zm0-.92zm0-.92zm0-.92zm0-.92zm0-.93zm0-.92zM6-6zm0-.94zm0-.92zm0-.92zM2.77 0v-.45-.47H1.85V0H2.76zm.92 0v-.45-.47H2.77V0H3.69zm.92 0v-.45-.47H3.69V0H4.6zm.92 0v-.45-.47H4.61V0H5.53zM1.84-.92v-.45-.47H.92V-.92H1.84zm0-.92v-.46-.47H.92V-1.84H1.84zm.93 0v-.46-.47H1.85V-1.84H2.76zm.92 0v-.46-.47H2.77V-1.84H3.69zm.92 0v-.46-.47H3.69V-1.84H4.6zm.92 0v-.46-.47H4.61V-1.84H5.53zm-3.69-.93v-.45-.47H.92V-2.77H1.84zm3.7 0v-.45-.47H4.6V-2.77H5.53zm-2.77-.92v-.45-.47H1.85V-3.69H2.76zm.92 0v-.45-.47H2.77V-3.69H3.69zm.92 0v-.45-.47H3.69V-3.69H4.6zm0 0"/></symbol><symbol overflow="visible" id="f5becf87j"><path d="M.47 2.3zm0-.92zm0-.93zm0-.92zm0-.92zm0-.92zm0-.92zm0-.93zm0-.92zm0-.92zm0-.94zm0-.92zm0-.92zM1.39 2.3zm0-.92zm0-.93zm0-1.84zm0-.92zm0-.92zm0-1.85zm0-.92zm0-.94zm0-.92zm0-.92zM2.31 2.3zm0-.92zm0-.93zm0-.92zm0-1.84zm0-1.85zm0-.92zm0-.92zm0-.94zm0-.92zm0-.92zM3.23 2.3zm0-.92zm0-.93zm0-.92zm0-.92zm0-1.84zm0-.93zm0-.92zm0-.92zm0-.94zm0-.92zm0-.92zM4.16 2.3zm0-.92zm0-.93zm0-.92zm0-1.84zm0-1.85zm0-.92zm0-.92zm0-.94zm0-.92zm0-.92zM5.08 2.3zm0-.92zm0-.93zm0-1.84zm0-.92zm0-.92zm0-1.85zm0-.92zm0-.94zm0-.92zm0-.92zM6 2.3zm0-.92zm0-.93zm0-.92zm0-.92zm0-.92zm0-.92zm0-.93zm0-.92zM6-6zm0-.94zm0-.92zm0-.92zM1.84 0v-.45-.47H.92V0H1.84zm3.7 0v-.45-.47H4.6V0H5.53zM2.76-.92v-.45-.47H1.85V-.92H2.76zm1.84 0v-.45-.47H3.69V-.92H4.6zm-.92-.92v-.46-.47H2.77V-1.84H3.69zm-.92-.93v-.45-.47H1.85V-2.77H2.76zm1.84 0v-.45-.47H3.69V-2.77H4.6zm-2.77-.92v-.45-.47H.92V-3.69H1.84zm3.7 0v-.45-.47H4.6V-3.69H5.53zm0 0"/></symbol><symbol overflow="visible" id="f5becf87k"><path d="M.47 2.3zm0-.92zm0-.93zm0-.92zm0-.92zm0-.92zm0-.92zm0-.93zm0-.92zm0-.92zm0-.94zm0-.92zm0-.92zM1.39 2.3zm0-.92zm0-.93zm0-.92zm0-.92zm0-.92zm0-.92zm0-1.85zm0-.92zm0-.94zm0-.92zm0-.92zM2.31 2.3zm0-.92zm0-.93zm0-.92zm0-6.47zm0-.92zm0-.92zM3.23 2.3zm0-.92zm0-.93zm0-1.84zm0-.92zm0-.92zm0-1.85zm0-.92zm0-.94zm0-.92zm0-.92zM4.16 2.3zm0-.92zm0-.93zm0-1.84zm0-.92zm0-.92zm0-1.85zm0-.92zm0-.94zm0-.92zm0-.92zM5.08 2.3zm0-.92zm0-.93zm0-.92zm0-1.84zm0-.92zm0-1.85zm0-.92zm0-.94zm0-.92zm0-.92zM6 2.3zm0-.92zm0-.93zm0-.92zm0-.92zm0-.92zm0-.92zm0-.93zm0-.92zM6-6zm0-.94zm0-.92zm0-.92zM3.69 0v-.45-.47H2.77V0H3.69zm.92 0v-.45-.47H3.69V0H4.6zM2.77-.92v-.45-.47H1.85V-.92H2.76zm2.76 0v-.45-.47H4.61V-.92H5.53zm-2.76-.92v-.46-.47H1.85V-1.84H2.76zm0-.93v-.45-.47H1.85V-2.77H2.76zm-.93-.92v-.45-.47H.92V-3.69H1.84zm.93 0v-.45-.47H1.85V-3.69H2.76zm.92 0v-.45-.47H2.77V-3.69H3.69zm.92 0v-.45-.47H3.69V-3.69H4.6zm.92 0v-.45-.47H4.61V-3.69H5.53zM2.77-4.6v-.45-.47H1.85V-4.61H2.76zm0-.92v-.45-.47H1.85V-5.53H2.76zm0 0"/></symbol><symbol overflow="visible" id="f5becf87l"><path d="M.47 2.3zm0-.92zm0-.93zm0-.92zm0-.92zm0-.92zm0-.92zm0-.93zm0-.92zm0-.92zm0-.94zm0-.92zm0-.92zM1.39 2.3zm0-.92zm0-.93zm0-.92zm0-.92zm0-.92zm0-.92zm0-.93zm0-.92zm0-.92zm0-.94zm0-.92zm0-.92zM2.31 2.3zm0-.92zm0-.93zm0-.92zm0-.92zm0-.92zm0-.92zm0-.93zm0-.92zm0-.92zm0-.94zm0-.92zm0-.92zM3.23 2.3zm0-.92zm0-.93zm0-2.76zm0-2.77zm0-.92zm0-.94zm0-.92zm0-.92zM4.16 2.3zm0-.92zm0-.93zm0-.92zm0-.92zm0-.92zm0-.92zm0-.93zm0-.92zm0-.92zm0-.94zm0-.92zm0-.92zM5.08 2.3zm0-.92zm0-.93zm0-.92zm0-.92zm0-.92zm0-.92zm0-.93zm0-.92zm0-.92zm0-.94zm0-.92zm0-.92zM6 2.3zm0-.92zm0-.93zm0-.92zm0-.92zm0-.92zm0-.92zm0-.93zm0-.92zM6-6zm0-.94zm0-.92zm0-.92zM3.69 0v-.45-.47H2.77V0H3.69zm0-.92v-.45-.47H2.77V-.92H3.69zm0-1.85v-.45-.47H2.77V-2.77H3.69zm0-.92v-.45-.47H2.77V-3.69H3.69zm0 0"/></symbol><symbol overflow="visible" id="f5becf87m"><path d="M.47 2.3zm0-.92zm0-.93zm0-.92zm0-.92zm0-.92zm0-.92zm0-.93zm0-.92zm0-.92zm0-.94zm0-.92zm0-.92zM1.39 2.3zm0-.92zm0-.93zm0-.92zm0-.92zm0-.92zm0-.92zm0-.93zm0-.92zm0-.92zm0-.94zm0-.92zm0-.92zM2.31 2.3zm0-.92zm0-.93zm0-.92zm0-.92zm0-.92zm0-.92zm0-.93zm0-.92zm0-.92zm0-.94zm0-.92zm0-.92zM3.23 2.3zm0-.92zm0-.93zm0-.92zm0-.92zm0-.92zm0-.92zm0-.93zm0-.92zm0-.92zm0-.94zm0-.92zm0-.92zM4.16 2.3zm0-.92zm0-.93zm0-.92zm0-.92zm0-.92zm0-.92zm0-.93zm0-.92zm0-.92zm0-.94zm0-.92zm0-.92zM5.08 2.3zm0-.92zm0-.93zm0-.92zm0-.92zm0-.92zm0-.92zm0-.93zm0-.92zm0-.92zm0-.94zm0-.92zm0-.92zM6 2.3zm0-.92zm0-.93zm0-.92zm0-.92zm0-.92zm0-.92zm0-.93zm0-.92zM6-6zm0-.94zm0-.92zm0-.92zm0 0"/></symbol><symbol overflow="visible" id="f5becf87n"><path d="M.47 2.3zm0-.92zm0-.93zm0-.92zm0-.92zm0-.92zm0-.92zm0-.93zm0-.92zm0-.92zm0-.94zm0-.92zm0-.92zM1.39 2.3zm0-.92zm0-.93zm0-.92zm0-.92zm0-1.84zm0-.93zm0-.92zm0-.92zm0-.94zm0-.92zm0-.92zM2.31 2.3zm0-.92zm0-.93zm0-.92zm0-1.84zm0-1.85zm0-.92zm0-.92zm0-.94zm0-.92zm0-.92zM3.23 2.3zm0-.92zm0-.93zm0-1.84zm0-1.84zm0-1.85zm0-.92zm0-.94zm0-.92zm0-.92zM4.16 2.3zm0-.92zm0-.93zm0-.92zm0-1.84zm0-1.85zm0-.92zm0-.92zm0-.94zm0-.92zm0-.92zM5.08 2.3zm0-.92zm0-.93zm0-1.84zm0-.92zm0-.92zm0-1.85zm0-.92zm0-.94zm0-.92zm0-.92zM6 2.3zm0-.92zm0-.93zm0-.92zm0-.92zm0-.92zm0-.92zm0-.93zm0-.92zM6-6zm0-.94zm0-.92zm0-.92zM3.69 0v-.45-.47H2.77V0H3.69zm1.84 0v-.45-.47H4.61V0H5.53zM2.77-.92v-.45-.47H1.85V-.92H2.76zm1.84 0v-.45-.47H3.69V-.92H4.6zm-2.77-.92v-.46-.47H.92V-1.84H1.84zm1.85 0v-.46-.47H2.77V-1.84H3.69zm-.92-.93v-.45-.47H1.85V-2.77H2.76zm1.84 0v-.45-.47H3.69V-2.77H4.6zm-.92-.92v-.45-.47H2.77V-3.69H3.69zm1.84 0v-.45-.47H4.61V-3.69H5.53zm0 0"/></symbol><symbol overflow="visible" id="f5becf87o"><path d="M.47 2.3zm0-.92zm0-.93zm0-.92zm0-.92zm0-.92zm0-.92zm0-.93zm0-.92zm0-.92zm0-.94zm0-.92zm0-.92zM1.39 2.3zm0-.92zm0-2.77zm0-.92zm0-.92zm0-.93zm0-.92zm0-.92zm0-.94zm0-.92zm0-.92zM2.31 2.3zm0-1.85zm0-.92zm0-1.84zm0-.92zm0-.93zm0-.92zm0-.92zm0-.94zm0-.92zm0-.92zM3.23 2.3zm0-1.85zm0-.92zm0-.92zm0-1.84zm0-1.85zm0-.92zm0-.94zm0-.92zm0-.92zM4.16 2.3zm0-1.85zm0-.92zm0-.92zm0-.92zm0-.92zm0-.93zm0-.92zm0-.92zm0-.94zm0-.92zm0-.92zM5.08 2.3zm0-.92zm0-2.77zm0-.92zm0-.92zm0-.93zm0-.92zm0-.92zm0-.94zm0-.92zm0-.92zM6 2.3zm0-.92zm0-.93zm0-.92zm0-.92zm0-.92zm0-.92zm0-.93zm0-.92zM6-6zm0-.94zm0-.92zm0-.92zM2.77 1.84v-.47-.45H1.85V1.84H2.76zm.92 0v-.47-.45H2.77V1.84H3.69zm.92 0v-.47-.45H3.69V1.84H4.6zM1.84.92V.45 0H.92V.92H1.84zm3.7 0V.45 0H4.6V.92H5.53zM1.83 0v-.45-.47H.92V0H1.84zm3.7 0v-.45-.47H4.6V0H5.53zM2.76-.92v-.45-.47H1.85V-.92H2.76zm.92-.92v-.46-.47H2.77V-1.84H3.69zm0-1.85v-.45-.47H2.77V-3.69H3.69zm0 0"/></symbol><symbol overflow="visible" id="f5becf87p"><path d="M.47 2.3zm0-.92zm0-.93zm0-.92zm0-.92zm0-.92zm0-.92zm0-.93zm0-.92zm0-.92zm0-.94zm0-.92zm0-.92zM1.39 2.3zm0-.92zm0-.93zm0-.92zM1.4-6zm0-.94zm0-.92zm0-.92zM2.31 2.3zm0-.92zm0-.93zm0-1.84zm0-.92zm0-.92zm0-.93zm0-.92zm0-1.86zm0-.92zm0-.92zM3.23 2.3zm0-.92zm0-4.61zm0-.93zm0-.92zm0-1.86zm0-.92zm0-.92zM4.16 2.3zm0-.92zm0-.93zm0-1.84zm0-.92zm0-.92zm0-.93zm0-.92zm0-1.86zm0-.92zm0-.92zM5.08 2.3zm0-.92zm0-.93zm0-.92zm0-5.53zm0-.94zm0-.92zm0-.92zM6 2.3zm0-.92zm0-.93zm0-.92zm0-.92zm0-.92zm0-.92zm0-.93zm0-.92zM6-6zm0-.94zm0-.92zm0-.92zM3.69.92V.45 0H2.77V.92H3.69zM2.77 0v-.45-.47H1.85V0H2.76zm.92 0v-.45-.47H2.77V0H3.69zm.92 0v-.45-.47H3.69V0H4.6zM1.84-.92v-.45-.47H.92V-.92H1.84zm1.85 0v-.45-.47H2.77V-.92H3.69zm1.84 0v-.45-.47H4.61V-.92H5.53zm-3.69-.92v-.46-.47H.92V-1.84H1.84zm1.85 0v-.46-.47H2.77V-1.84H3.69zm1.84 0v-.46-.47H4.61V-1.84H5.53zm-3.69-.93v-.45-.47H.92V-2.77H1.84zm3.7 0v-.45-.47H4.6V-2.77H5.53zm-3.7-.92v-.45-.47H.92V-3.69H1.84zm3.7 0v-.45-.47H4.6V-3.69H5.53zm-3.7-.92v-.45-.47H.92V-4.61H1.84zm3.7 0v-.45-.47H4.6V-4.61H5.53zm-2.77-.92v-.45-.47H1.85V-5.53H2.76zm.92 0v-.45-.47H2.77V-5.53H3.69zm.92 0v-.45-.47H3.69V-5.53H4.6zm0 0"/></symbol><symbol overflow="visible" id="f5becf87q"><path d="M.47 2.3zm0-.92zm0-.93zm0-.92zm0-.92zm0-.92zm0-.92zm0-.93zm0-.92zm0-.92zm0-.94zm0-.92zm0-.92zM1.39 2.3zm0-.92zm0-.93zm0-.92zm0-6.47zm0-.92zm0-.92zM2.31 2.3zm0-.92zm0-.93zm0-1.84zm0-.92zm0-.92zm0-.93zm0-.92zm0-.92zm0-.94zm0-.92zm0-.92zM3.23 2.3zm0-.92zm0-.93zm0-1.84zm0-.92zm0-.92zm0-.93zm0-.92zm0-.92zm0-.94zm0-.92zm0-.92zM4.16 2.3zm0-.92zm0-.93zm0-1.84zm0-.92zm0-.92zm0-.93zm0-.92zm0-.92zm0-.94zm0-.92zm0-.92zM5.08 2.3zm0-.92zm0-.93zm0-.92zm0-6.47zm0-.92zm0-.92zM6 2.3zm0-.92zm0-.93zm0-.92zm0-.92zm0-.92zm0-.92zm0-.93zm0-.92zM6-6zm0-.94zm0-.92zm0-.92zM2.77 0v-.45-.47H1.85V0H2.76zm.92 0v-.45-.47H2.77V0H3.69zm.92 0v-.45-.47H3.69V0H4.6zM1.84-.92v-.45-.47H.92V-.92H1.84zm3.7 0v-.45-.47H4.6V-.92H5.53zm-3.7-.92v-.46-.47H.92V-1.84H1.84zm3.7 0v-.46-.47H4.6V-1.84H5.53zm-3.7-.93v-.45-.47H.92V-2.77H1.84zm3.7 0v-.45-.47H4.6V-2.77H5.53zm-3.7-.92v-.45-.47H.92V-3.69H1.84zm3.7 0v-.45-.47H4.6V-3.69H5.53zm-3.7-.92v-.45-.47H.92V-4.61H1.84zm3.7 0v-.45-.47H4.6V-4.61H5.53zm-3.7-.92v-.45-.47H.92V-5.53H1.84zm3.7 0v-.45-.47H4.6V-5.53H5.53zm0 0"/></symbol><symbol overflow="visible" id="f5becf87r"><path d="M.47 2.3zm0-.92zm0-.93zm0-.92zm0-.92zm0-.92zm0-.92zm0-.93zm0-.92zm0-.92zm0-.94zm0-.92zm0-.92zM1.39 2.3zm0-.92zm0-.93zm0-7.39zm0-.92zm0-.92zM2.31 2.3zm0-.92zm0-.93zm0-1.84zm0-.92zm0-1.85zm0-.92zm0-1.86zm0-.92zm0-.92zM3.23 2.3zm0-.92zm0-.93zm0-1.84zm0-.92zm0-1.85zm0-.92zm0-1.86zm0-1.84zM4.16 2.3zm0-.92zm0-.93zm0-1.84zm0-.92zm0-1.85zm0-.92zm0-1.86zm0-.92zM5.08 2.3zm0-.92zm0-.93zm0-1.84zm0-.92zm0-.92zm0-.93zm0-.92zm0-1.86zm0-.92zm0-.92zM6 2.3zm0-.92zm0-.93zm0-.92zm0-.92zm0-.92zm0-.92zm0-.93zm0-.92zM6-6zm0-.94zm0-.92zm0-.92zM1.84 0v-.45-.47H.92V0H1.84zm.93 0v-.45-.47H1.85V0H2.76zm.92 0v-.45-.47H2.77V0H3.69zm.92 0v-.45-.47H3.69V0H4.6zm.92 0v-.45-.47H4.61V0H5.53zM1.84-.92v-.45-.47H.92V-.92H1.84zm0-.92v-.46-.47H.92V-1.84H1.84zm0-.93v-.45-.47H.92V-2.77H1.84zm.93 0v-.45-.47H1.85V-2.77H2.76zm.92 0v-.45-.47H2.77V-2.77H3.69zm.92 0v-.45-.47H3.69V-2.77H4.6zm-2.77-.92v-.45-.47H.92V-3.69H1.84zm0-.92v-.45-.47H.92V-4.61H1.84zm0-.92v-.45-.47H.92V-5.53H1.84zm.93 0v-.45-.47H1.85V-5.53H2.76zm.92 0v-.45-.47H2.77V-5.53H3.69zm.92 0v-.45-.47H3.69V-5.53H4.6zm.92 0v-.45-.47H4.61V-5.53H5.53zM3.7-7.4v-.45-.47H2.77V-7.4H3.69zm.92-.92v-.46-.46H3.69v.92H4.6zm0 0"/></symbol><symbol overflow="visible" id="f5becf87s"><path d="M.47 2.3zm0-.92zm0-.93zm0-.92zm0-.92zm0-.92zm0-.92zm0-.93zm0-.92zm0-.92zm0-.94zm0-.92zm0-.92zM1.39 2.3zm0-.92zm0-.93zm0-.92zm0-.92zm0-.92zm0-.92zM1.4-6zm0-.94zm0-.92zm0-.92zM2.31 2.3zm0-.92zm0-.93zm0-.92zm0-.92zm0-.92zm0-.92zm0-.93zm0-.92zm0-1.86zm0-.92zm0-.92zM3.23 2.3zm0-.92zm0-.93zm0-1.84zm0-1.84zm0-.93zm0-.92zm0-1.86zm0-.92zm0-.92zM4.16 2.3zm0-.92zm0-.93zm0-.92zm0-.92zm0-.92zm0-1.85zm0-.92zm0-1.86zm0-.92zm0-.92zM5.08 2.3zm0-.92zm0-.93zm0-.92zm0-.92zm0-.92zm0-.92zm0-2.77zm0-.94zm0-.92zm0-.92zM6 2.3zm0-.92zm0-.93zm0-.92zm0-.92zm0-.92zm0-.92zm0-.93zm0-.92zM6-6zm0-.94zm0-.92zm0-.92zM3.69 0v-.45-.47H2.77V0H3.69zm0-1.84v-.46-.47H2.77V-1.84H3.69zm.92-.93v-.45-.47H3.69V-2.77H4.6zm-2.77-.92v-.45-.47H.92V-3.69H1.84zm3.7 0v-.45-.47H4.6V-3.69H5.53zm-3.7-.92v-.45-.47H.92V-4.61H1.84zm3.7 0v-.45-.47H4.6V-4.61H5.53zm-2.77-.92v-.45-.47H1.85V-5.53H2.76zm.92 0v-.45-.47H2.77V-5.53H3.69zm.92 0v-.45-.47H3.69V-5.53H4.6zm0 0"/></symbol><symbol overflow="visible" id="f5becf87t"><path d="M.47 2.3zm0-.92zm0-.93zm0-.92zm0-.92zm0-.92zm0-.92zm0-.93zm0-.92zm0-.92zm0-.94zm0-.92zm0-.92zM1.39 2.3zm0-.92zm0-.93zm0-1.84zm0-.92zm0-.92zm0-1.85zm0-.92zm0-.94zm0-.92zm0-.92zM2.31 2.3zm0-.92zm0-.93zm0-.92zm0-1.84zm0-1.85zm0-.92zm0-.92zm0-.94zm0-.92zm0-.92zM3.23 2.3zm0-.92zm0-.93zm0-1.84zm0-1.84zm0-1.85zm0-.92zm0-.94zm0-.92zm0-.92zM4.16 2.3zm0-.92zm0-.93zm0-.92zm0-1.84zm0-1.85zm0-.92zm0-.92zm0-.94zm0-.92zm0-.92zM5.08 2.3zm0-.92zm0-.93zm0-.92zm0-.92zm0-1.84zm0-.93zm0-.92zm0-.92zm0-.94zm0-.92zm0-.92zM6 2.3zm0-.92zm0-.93zm0-.92zm0-.92zm0-.92zm0-.92zm0-.93zm0-.92zM6-6zm0-.94zm0-.92zm0-.92zM1.84 0v-.45-.47H.92V0H1.84zM3.7 0v-.45-.47H2.77V0H3.69zm-.92-.92v-.45-.47H1.85V-.92H2.76zm1.84 0v-.45-.47H3.69V-.92H4.6zm-.92-.92v-.46-.47H2.77V-1.84H3.69zm1.84 0v-.46-.47H4.61V-1.84H5.53zm-2.76-.93v-.45-.47H1.85V-2.77H2.76zm1.84 0v-.45-.47H3.69V-2.77H4.6zm-2.77-.92v-.45-.47H.92V-3.69H1.84zm1.85 0v-.45-.47H2.77V-3.69H3.69zm0 0"/></symbol><symbol overflow="visible" id="f5becf87u"><path d="M.47 2.3zm0-.92zm0-.93zm0-.92zm0-.92zm0-.92zm0-.92zm0-.93zm0-.92zm0-.92zm0-.94zm0-.92zm0-.92zM1.39 2.3zm0-.92zm0-.93zm0-7.39zm0-.92zm0-.92zM2.31 2.3zm0-.92zm0-.93zm0-.92zm0-.92zm0-.92zm0-1.85zm0-.92zm0-1.86zm0-.92zm0-.92zM3.23 2.3zm0-.92zm0-.93zm0-.92zm0-.92zm0-.92zm0-1.85zm0-.92zm0-1.86zm0-.92zm0-.92zM4.16 2.3zm0-.92zm0-.93zm0-.92zm0-.92zm0-.92zm0-1.85zm0-.92zm0-1.86zm0-.92zm0-.92zM5.08 2.3zm0-.92zm0-.93zm0-.92zm0-.92zm0-.92zm0-.92zm0-.93zm0-.92zm0-1.86zm0-.92zm0-.92zM6 2.3zm0-.92zm0-.93zm0-.92zm0-.92zm0-.92zm0-.92zm0-.93zm0-.92zM6-6zm0-.94zm0-.92zm0-.92zM1.84 0v-.45-.47H.92V0H1.84zm0-.92v-.45-.47H.92V-.92H1.84zm0-.92v-.46-.47H.92V-1.84H1.84zm0-.93v-.45-.47H.92V-2.77H1.84zm.93 0v-.45-.47H1.85V-2.77H2.76zm.92 0v-.45-.47H2.77V-2.77H3.69zm.92 0v-.45-.47H3.69V-2.77H4.6zm-2.77-.92v-.45-.47H.92V-3.69H1.84zm0-.92v-.45-.47H.92V-4.61H1.84zm0-.92v-.45-.47H.92V-5.53H1.84zm.93 0v-.45-.47H1.85V-5.53H2.76zm.92 0v-.45-.47H2.77V-5.53H3.69zm.92 0v-.45-.47H3.69V-5.53H4.6zm.92 0v-.45-.47H4.61V-5.53H5.53zm0 0"/></symbol><symbol overflow="visible" id="f5becf87v"><path d="M.47 2.3zm0-.92zm0-.93zm0-.92zm0-.92zm0-.92zm0-.92zm0-.93zm0-.92zm0-.92zm0-.94zm0-.92zm0-.92zM1.39 2.3zm0-.92zm0-.93zm0-.92zm0-1.84zm0-.92zm0-.93zm0-.92zm0-.92zm0-.94zm0-.92zm0-.92zM2.31 2.3zm0-.92zm0-.93zm0-1.84zm0-1.84zm0-1.85zm0-.92zm0-.94zm0-.92zm0-.92zM3.23 2.3zm0-.92zm0-.93zm0-1.84zm0-1.84zm0-1.85zm0-.92zm0-.94zm0-.92zm0-.92zM4.16 2.3zm0-.92zm0-.93zm0-1.84zm0-1.84zm0-1.85zm0-.92zm0-.94zm0-.92zm0-.92zM5.08 2.3zm0-.92zm0-.93zm0-.92zm0-3.69zm0-.92zm0-.92zm0-.94zm0-.92zm0-.92zM6 2.3zm0-.92zm0-.93zm0-.92zm0-.92zm0-.92zm0-.92zm0-.93zm0-.92zM6-6zm0-.94zm0-.92zm0-.92zM2.77 0v-.45-.47H1.85V0H2.76zm.92 0v-.45-.47H2.77V0H3.69zm.92 0v-.45-.47H3.69V0H4.6zM1.84-.92v-.45-.47H.92V-.92H1.84zm3.7 0v-.45-.47H4.6V-.92H5.53zm-2.77-.92v-.46-.47H1.85V-1.84H2.76zm.92 0v-.46-.47H2.77V-1.84H3.69zm.92 0v-.46-.47H3.69V-1.84H4.6zm.92 0v-.46-.47H4.61V-1.84H5.53zm0-.93v-.45-.47H4.61V-2.77H5.53zm-2.76-.92v-.45-.47H1.85V-3.69H2.76zm.92 0v-.45-.47H2.77V-3.69H3.69zm.92 0v-.45-.47H3.69V-3.69H4.6zm0 0"/></symbol><symbol overflow="visible" id="f5becf87w"><path d="M.47 2.3zm0-.92zm0-.93zm0-.92zm0-.92zm0-.92zm0-.92zm0-.93zm0-.92zm0-.92zm0-.94zm0-.92zm0-.92zM1.39 2.3zm0-.92zm0-.93zm0-.92zm0-4.6zm0-.93zm0-.94zm0-.92zm0-.92zM2.31 2.3zm0-.92zm0-.93zm0-1.84zm0-.92zm0-.92zm0-.93zm0-.92zm0-.92zm0-.94zm0-.92zm0-.92zM3.23 2.3zm0-.92zm0-.93zm0-1.84zm0-.92zm0-.92zm0-.93zm0-.92zm0-.92zm0-.94zm0-.92zm0-.92zM4.16 2.3zm0-.92zm0-.93zm0-1.84zm0-.92zm0-.92zm0-.93zm0-.92zm0-.92zm0-.94zm0-.92zm0-.92zM5.08 2.3zm0-.92zm0-.93zm0-.92zm0-4.6zm0-.93zm0-.94zm0-.92zm0-.92zM6 2.3zm0-.92zm0-.93zm0-.92zm0-.92zm0-.92zm0-.92zm0-.93zm0-.92zM6-6zm0-.94zm0-.92zm0-.92zM2.77 0v-.45-.47H1.85V0H2.76zm.92 0v-.45-.47H2.77V0H3.69zm.92 0v-.45-.47H3.69V0H4.6zM1.84-.92v-.45-.47H.92V-.92H1.84zm3.7 0v-.45-.47H4.6V-.92H5.53zm-3.7-.92v-.46-.47H.92V-1.84H1.84zm3.7 0v-.46-.47H4.6V-1.84H5.53zm-3.7-.93v-.45-.47H.92V-2.77H1.84zm3.7 0v-.45-.47H4.6V-2.77H5.53zm-3.7-.92v-.45-.47H.92V-3.69H1.84zm3.7 0v-.45-.47H4.6V-3.69H5.53zm0 0"/></symbol><symbol overflow="visible" id="f5becf87x"><path d="M.47 2.3zm0-.92zm0-.93zm0-.92zm0-.92zm0-.92zm0-.92zm0-.93zm0-.92zm0-.92zm0-.94zm0-.92zm0-.92zM1.39 2.3zm0-.92zm0-.93zm0-1.84zm0-.92zm0-.92zm0-1.85zm0-.92zm0-.94zm0-.92zm0-.92zM2.31 2.3zm0-.92zm0-.93zm0-5.53zm0-.92zm0-.94zm0-.92zm0-.92zM3.23 2.3zm0-.92zm0-.93zm0-1.84zm0-.92zm0-1.85zm0-.92zm0-.92zm0-.94zm0-.92zm0-.92zM4.16 2.3zm0-.92zm0-.93zm0-.92zm0-.92zm0-.92zm0-.92zm0-1.85zm0-.92zm0-.94zm0-.92zm0-.92zM5.08 2.3zm0-.92zm0-.93zm0-.92zm0-.92zm0-.92zm0-2.77zm0-.92zm0-.94zm0-.92zm0-.92zM6 2.3zm0-.92zm0-.93zm0-.92zm0-.92zm0-.92zm0-.92zm0-.93zm0-.92zM6-6zm0-.94zm0-.92zm0-.92zM1.84 0v-.45-.47H.92V0H1.84zm.93 0v-.45-.47H1.85V0H2.76zm.92 0v-.45-.47H2.77V0H3.69zm-.92-.92v-.45-.47H1.85V-.92H2.76zm0-.92v-.46-.47H1.85V-1.84H2.76zm0-.93v-.45-.47H1.85V-2.77H2.76zm.92 0v-.45-.47H2.77V-2.77H3.69zm1.84 0v-.45-.47H4.61V-2.77H5.53zm-3.69-.92v-.45-.47H.92V-3.69H1.84zm.93 0v-.45-.47H1.85V-3.69H2.76zm1.84 0v-.45-.47H3.69V-3.69H4.6zm.92 0v-.45-.47H4.61V-3.69H5.53zm0 0"/></symbol><symbol overflow="visible" id="f5becf87y"><path d="M.47 2.3zm0-.92zm0-.93zm0-.92zm0-.92zm0-.92zm0-.92zm0-.93zm0-.92zm0-.92zm0-.94zm0-.92zm0-.92zM1.39 2.3zm0-.92zm0-.93zm0-.92zM1.4-6zm0-.94zm0-.92zm0-.92zM2.31 2.3zm0-.92zm0-.93zm0-1.84zm0-.92zm0-.92zm0-.93zm0-.92zm0-1.86zm0-.92zm0-.92zM3.23 2.3zm0-.92zm0-.93zm0-1.84zm0-.92zm0-.92zm0-.93zm0-.92zm0-1.86zm0-.92zm0-.92zM4.16 2.3zm0-.92zm0-.93zm0-1.84zm0-.92zm0-.92zm0-.93zm0-.92zm0-1.86zm0-.92zm0-.92zM5.08 2.3zm0-.92zm0-.93zm0-.92zm0-1.84zm0-.92zm0-.93zm0-1.84zm0-.94zm0-.92zm0-.92zM6 2.3zm0-.92zm0-.93zm0-.92zm0-.92zm0-.92zm0-.92zm0-.93zm0-.92zM6-6zm0-.94zm0-.92zm0-.92zM2.77 0v-.45-.47H1.85V0H2.76zm.92 0v-.45-.47H2.77V0H3.69zm.92 0v-.45-.47H3.69V0H4.6zM1.84-.92v-.45-.47H.92V-.92H1.84zm3.7 0v-.45-.47H4.6V-.92H5.53zm-3.7-.92v-.46-.47H.92V-1.84H1.84zm0-.93v-.45-.47H.92V-2.77H1.84zm0-.92v-.45-.47H.92V-3.69H1.84zm0-.92v-.45-.47H.92V-4.61H1.84zm3.7 0v-.45-.47H4.6V-4.61H5.53zm-2.77-.92v-.45-.47H1.85V-5.53H2.76zm.92 0v-.45-.47H2.77V-5.53H3.69zm.92 0v-.45-.47H3.69V-5.53H4.6zm0 0"/></symbol><symbol overflow="visible" id="f5becf87z"><path d="M.47 2.3zm0-.92zm0-.93zm0-.92zm0-.92zm0-.92zm0-.92zm0-.93zm0-.92zm0-.92zm0-.94zm0-.92zm0-.92zM1.39 2.3zm0-.92zm0-.93zm0-1.84zm0-.92zm0-1.85zm0-.92zm0-.92zm0-.94zm0-.92zm0-.92zM2.31 2.3zm0-.92zm0-.93zm0-1.84zm0-1.84zm0-1.85zm0-.92zm0-.94zm0-.92zm0-.92zM3.23 2.3zm0-.92zm0-.93zm0-1.84zm0-1.84zm0-1.85zm0-.92zm0-.94zm0-.92zm0-.92zM4.16 2.3zm0-.92zm0-.93zm0-1.84zm0-1.84zm0-1.85zm0-.92zm0-.94zm0-.92zm0-.92zM5.08 2.3zm0-.92zm0-.93zm0-.92zm0-2.76zm0-1.85zm0-.92zm0-.94zm0-.92zm0-.92zM6 2.3zm0-.92zm0-.93zm0-.92zm0-.92zm0-.92zm0-.92zm0-.93zm0-.92zM6-6zm0-.94zm0-.92zm0-.92zM1.84 0v-.45-.47H.92V0H1.84zm.93 0v-.45-.47H1.85V0H2.76zm.92 0v-.45-.47H2.77V0H3.69zm.92 0v-.45-.47H3.69V0H4.6zm.92-.92v-.45-.47H4.61V-.92H5.53zm-2.76-.92v-.46-.47H1.85V-1.84H2.76zm.92 0v-.46-.47H2.77V-1.84H3.69zm.92 0v-.46-.47H3.69V-1.84H4.6zm.92 0v-.46-.47H4.61V-1.84H5.53zm-3.69-.93v-.45-.47H.92V-2.77H1.84zm.93-.92v-.45-.47H1.85V-3.69H2.76zm.92 0v-.45-.47H2.77V-3.69H3.69zm.92 0v-.45-.47H3.69V-3.69H4.6zm.92 0v-.45-.47H4.61V-3.69H5.53zm0 0"/></symbol><symbol overflow="visible" id="f5becf87A"><path d="M.47 2.3zm0-.92zm0-.93zm0-.92zm0-.92zm0-.92zm0-.92zm0-.93zm0-.92zm0-.92zm0-.94zm0-.92zm0-.92zM1.39 2.3zm0-.92zm0-.93zm0-.92zm0-.92zm0-.92zm0-.92zm0-.93zm0-.92zm0-.92zm0-.94zm0-.92zm0-.92zM2.31 2.3zm0-.92zm0-.93zm0-.92zm0-.92zm0-1.84zm0-.93zm0-.92zm0-.92zm0-.94zm0-.92zm0-.92zM3.23 2.3zm0-.92zm0-.93zm0-.92zm0-.92zm0-1.84zm0-.93zm0-.92zm0-.92zm0-.94zm0-.92zm0-.92zM4.16 2.3zm0-.92zm0-.93zm0-.92zm0-.92zm0-1.84zm0-.93zm0-.92zm0-.92zm0-.94zm0-.92zm0-.92zM5.08 2.3zm0-.92zm0-.93zm0-.92zm0-.92zm0-.92zm0-.92zm0-.93zm0-.92zm0-.92zm0-.94zm0-.92zm0-.92zM6 2.3zm0-.92zm0-.93zm0-.92zm0-.92zm0-.92zm0-.92zm0-.93zm0-.92zM6-6zm0-.94zm0-.92zm0-.92zM2.77-1.84v-.46-.47H1.85V-1.84H2.76zm.92 0v-.46-.47H2.77V-1.84H3.69zm.92 0v-.46-.47H3.69V-1.84H4.6zm0 0"/></symbol><symbol overflow="visible" id="f5becf87B"><path d="M.47 2.3zm0-.92zm0-.93zm0-.92zm0-.92zm0-.92zm0-.92zm0-.93zm0-.92zm0-.92zm0-.94zm0-.92zm0-.92zM1.39 2.3zm0-.92zm0-.93zm0-4.6zm0-.93zm0-.92zm0-.94zm0-.92zm0-.92zM2.31 2.3zm0-.92zm0-.93zm0-.92zm0-.92zm0-.92zm0-.92zm0-1.85zm0-.92zm0-.94zm0-.92zm0-.92zM3.23 2.3zm0-.92zm0-.93zm0-.92zm0-.92zm0-.92zm0-.92zm0-1.85zm0-.92zm0-.94zm0-.92zm0-.92zM4.16 2.3zm0-.92zm0-.93zm0-.92zm0-.92zm0-.92zm0-.92zm0-1.85zm0-.92zm0-.94zm0-.92zm0-.92zM5.08 2.3zm0-.92zm0-.93zm0-4.6zm0-.93zm0-.92zm0-.94zm0-.92zm0-.92zM6 2.3zm0-.92zm0-.93zm0-.92zm0-.92zm0-.92zm0-.92zm0-.93zm0-.92zM6-6zm0-.94zm0-.92zm0-.92zM1.84 0v-.45-.47H.92V0H1.84zm3.7 0v-.45-.47H4.6V0H5.53zm-3.7-.92v-.45-.47H.92V-.92H1.84zm3.7 0v-.45-.47H4.6V-.92H5.53zm-3.7-.92v-.46-.47H.92V-1.84H1.84zm3.7 0v-.46-.47H4.6V-1.84H5.53zm-3.7-.93v-.45-.47H.92V-2.77H1.84zm3.7 0v-.45-.47H4.6V-2.77H5.53zm-2.77-.92v-.45-.47H1.85V-3.69H2.76zm.92 0v-.45-.47H2.77V-3.69H3.69zm.92 0v-.45-.47H3.69V-3.69H4.6zm0 0"/></symbol><symbol overflow="visible" id="f5becf87C"><path d="M.47 2.3zm0-.92zm0-.93zm0-.92zm0-.92zm0-.92zm0-.92zm0-.93zm0-.92zm0-.92zm0-.94zm0-.92zm0-.92zM1.39 2.3zm0-.92zm0-.93zm0-1.84zm0-.92zm0-.92zm0-1.85zm0-.92zm0-.94zm0-.92zm0-.92zM2.31 2.3zm0-.92zm0-.93zm0-1.84zm0-.92zm0-.92zm0-1.85zm0-.92zm0-.94zm0-.92zm0-.92zM3.23 2.3zm0-.92zm0-.93zm0-5.53zm0-2.78zm0-.92zM4.16 2.3zm0-.92zm0-.93zm0-1.84zm0-.92zm0-.92zm0-.93zm0-.92zm0-.92zm0-.94zm0-.92zm0-.92zM5.08 2.3zm0-.92zm0-.93zm0-1.84zm0-.92zm0-.92zm0-.93zm0-.92zm0-.92zm0-.94zm0-.92zm0-.92zM6 2.3zm0-.92zm0-.93zm0-.92zm0-.92zm0-.92zm0-.92zm0-.93zm0-.92zM6-6zm0-.94zm0-.92zm0-.92zM1.84 0v-.45-.47H.92V0H1.84zm.93 0v-.45-.47H1.85V0H2.76zm.92 0v-.45-.47H2.77V0H3.69zm.92 0v-.45-.47H3.69V0H4.6zm.92 0v-.45-.47H4.61V0H5.53zM3.7-.92v-.45-.47H2.77V-.92H3.69zm0-.92v-.46-.47H2.77V-1.84H3.69zm0-.93v-.45-.47H2.77V-2.77H3.69zm-1.85-.92v-.45-.47H.92V-3.69H1.84zm.93 0v-.45-.47H1.85V-3.69H2.76zm.92 0v-.45-.47H2.77V-3.69H3.69zm0-1.84v-.45-.47H2.77V-5.53H3.69zm0-.94v-.45-.47H2.77V-6.47H3.69zm0 0"/></symbol><symbol overflow="visible" id="f5becf87D"><path d="M.47 2.3zm0-.92zm0-.93zm0-.92zm0-.92zm0-.92zm0-.92zm0-.93zm0-.92zm0-.92zm0-.94zm0-.92zm0-.92zM1.39 2.3zm0-.92zm0-.93zm0-.92zm0-.92zm0-.92zm0-2.77zm0-.92zm0-.94zm0-.92zm0-.92zM2.31 2.3zm0-.92zm0-.93zm0-.92zm0-2.76zm0-.93zm0-.92zm0-.92zm0-.94zm0-.92zm0-.92zM3.23 2.3zm0-.92zm0-.93zm0-1.84zm0-.92zm0-.92zm0-.93zm0-.92zm0-.92zm0-.94zm0-.92zm0-.92zM4.16 2.3zm0-.92zm0-.93zm0-.92zm0-2.76zm0-.93zm0-.92zm0-.92zm0-.94zm0-.92zm0-.92zM5.08 2.3zm0-.92zm0-.93zm0-.92zm0-.92zm0-.92zm0-2.77zm0-.92zm0-.94zm0-.92zm0-.92zM6 2.3zm0-.92zm0-.93zm0-.92zm0-.92zm0-.92zm0-.92zm0-.93zm0-.92zM6-6zm0-.94zm0-.92zm0-.92zM3.69 0v-.45-.47H2.77V0H3.69zm-.92-.92v-.45-.47H1.85V-.92H2.76zm1.84 0v-.45-.47H3.69V-.92H4.6zm-1.84-.92v-.46-.47H1.85V-1.84H2.76zm1.84 0v-.46-.47H3.69V-1.84H4.6zm-2.77-.93v-.45-.47H.92V-2.77H1.84zm3.7 0v-.45-.47H4.6V-2.77H5.53zm-3.7-.92v-.45-.47H.92V-3.69H1.84zm3.7 0v-.45-.47H4.6V-3.69H5.53zm0 0"/></symbol><symbol overflow="visible" id="f5becf87E"><path d="M.47 2.3zm0-.92zm0-.93zm0-.92zm0-.92zm0-.92zm0-.92zm0-.93zm0-.92zm0-.92zm0-.94zm0-.92zm0-.92zM1.39 2.3zm0-.92zm0-.93zm0-.92zm0-.92zm0-.92zm0-.92zm0-1.85zm0-.92zm0-.94zm0-.92zm0-.92zM2.31 2.3zm0-.92zm0-.93zm0-6.45zm0-.94zm0-.92zm0-.92zM3.23 2.3zm0-.92zm0-.93zm0-.92zm0-.92zm0-.92zm0-.92zm0-1.85zm0-1.86zm0-.92zm0-.92zM4.16 2.3zm0-.92zm0-.93zm0-.92zm0-.92zm0-.92zm0-.92zm0-1.85zm0-1.86zm0-.92zm0-.92zM5.08 2.3zm0-.92zm0-.93zm0-.92zm0-.92zm0-.92zm0-.92zm0-1.85zm0-1.86zm0-.92zm0-.92zM6 2.3zm0-.92zm0-.93zm0-.92zm0-.92zm0-.92zm0-.92zm0-.93zm0-.92zM6-6zm0-.94zm0-.92zm0-.92zM2.77 0v-.45-.47H1.85V0H2.76zm0-.92v-.45-.47H1.85V-.92H2.76zm0-.92v-.46-.47H1.85V-1.84H2.76zm0-.93v-.45-.47H1.85V-2.77H2.76zm-.93-.92v-.45-.47H.92V-3.69H1.84zm.93 0v-.45-.47H1.85V-3.69H2.76zm.92 0v-.45-.47H2.77V-3.69H3.69zm.92 0v-.45-.47H3.69V-3.69H4.6zm.92 0v-.45-.47H4.61V-3.69H5.53zM2.77-4.6v-.45-.47H1.85V-4.61H2.76zm.92-.92v-.45-.47H2.77V-5.53H3.69zm.92 0v-.45-.47H3.69V-5.53H4.6zm.92 0v-.45-.47H4.61V-5.53H5.53zm0 0"/></symbol><symbol overflow="visible" id="f5becf87F"><path d="M.47 2.3zm0-.92zm0-.93zm0-.92zm0-.92zm0-.92zm0-.92zm0-.93zm0-.92zm0-.92zm0-.94zm0-.92zm0-.92zM1.39 2.3zm0-.92zm0-.93zm0-.92zm0-3.69zm0-.92zm0-.92zm0-.94zm0-.92zm0-.92zM2.31 2.3zm0-.92zm0-.93zm0-1.84zm0-.92zm0-.92zm0-1.85zm0-.92zm0-.94zm0-.92zm0-.92zM3.23 2.3zm0-.92zm0-.93zm0-1.84zm0-.92zm0-.92zm0-1.85zm0-.92zm0-.94zm0-.92zm0-.92zM4.16 2.3zm0-.92zm0-.93zm0-1.84zm0-.92zm0-.92zm0-1.85zm0-.92zm0-.94zm0-.92zm0-.92zM5.08 2.3zm0-.92zm0-.93zm0-.92zm0-3.69zm0-.92zm0-.92zm0-.94zm0-.92zm0-.92zM6 2.3zm0-.92zm0-.93zm0-.92zm0-.92zm0-.92zm0-.92zm0-.93zm0-.92zM6-6zm0-.94zm0-.92zm0-.92zM2.77 0v-.45-.47H1.85V0H2.76zm.92 0v-.45-.47H2.77V0H3.69zm.92 0v-.45-.47H3.69V0H4.6zM1.84-.92v-.45-.47H.92V-.92H1.84zm3.7 0v-.45-.47H4.6V-.92H5.53zm-3.7-.92v-.46-.47H.92V-1.84H1.84zm3.7 0v-.46-.47H4.6V-1.84H5.53zm-3.7-.93v-.45-.47H.92V-2.77H1.84zm3.7 0v-.45-.47H4.6V-2.77H5.53zm-2.77-.92v-.45-.47H1.85V-3.69H2.76zm.92 0v-.45-.47H2.77V-3.69H3.69zm.92 0v-.45-.47H3.69V-3.69H4.6zm0 0"/></symbol><symbol overflow="visible" id="f5becf87G"><path d="M.47 2.3zm0-.92zm0-.93zm0-.92zm0-.92zm0-.92zm0-.92zm0-.93zm0-.92zm0-.92zm0-.94zm0-.92zm0-.92zM1.39 2.3zm0-.92zm0-.93zm0-4.6zm0-.93zm0-.92zm0-.94zm0-.92zm0-.92zM2.31 2.3zm0-.92zm0-.93zm0-.92zm0-.92zm0-.92zm0-.92zm0-1.85zm0-.92zm0-.94zm0-.92zm0-.92zM3.23 2.3zm0-.92zm0-.93zm0-.92zm0-.92zm0-2.77zm0-.92zm0-.92zm0-.94zm0-.92zm0-.92zM4.16 2.3zm0-.92zm0-.93zm0-.92zm0-.92zm0-.92zm0-.92zm0-1.85zm0-.92zm0-.94zm0-.92zm0-.92zM5.08 2.3zm0-.92zm0-.93zm0-4.6zm0-.93zm0-.92zm0-.94zm0-.92zm0-.92zM6 2.3zm0-.92zm0-.93zm0-.92zm0-.92zm0-.92zm0-.92zm0-.93zm0-.92zM6-6zm0-.94zm0-.92zm0-.92zM1.84 0v-.45-.47H.92V0H1.84zm3.7 0v-.45-.47H4.6V0H5.53zm-3.7-.92v-.45-.47H.92V-.92H1.84zm3.7 0v-.45-.47H4.6V-.92H5.53zm-3.7-.92v-.46-.47H.92V-1.84H1.84zm1.85 0v-.46-.47H2.77V-1.84H3.69zm1.84 0v-.46-.47H4.61V-1.84H5.53zm-3.69-.93v-.45-.47H.92V-2.77H1.84zm1.85 0v-.45-.47H2.77V-2.77H3.69zm1.84 0v-.45-.47H4.61V-2.77H5.53zm-2.76-.92v-.45-.47H1.85V-3.69H2.76zm1.84 0v-.45-.47H3.69V-3.69H4.6zm0 0"/></symbol><symbol overflow="visible" id="f5becf87H"><path d="M.47 2.3zm0-.92zm0-.93zm0-.92zm0-.92zm0-.92zm0-.92zm0-.93zm0-.92zm0-.92zm0-.94zm0-.92zm0-.92zM1.39 2.3zm0-.92zm0-.93zm0-.92zm0-.92zm0-.92zm0-.92zm0-.93zm0-.92zm0-.92zm0-.94zm0-.92zm0-.92zM2.31 2.3zm0-.92zm0-.93zm0-.92zm0-.92zm0-.92zm0-.92zm0-.93zm0-.92zm0-.92zm0-.94zm0-.92zm0-.92zM3.23 2.3zm0-.92zm0-7.38zm0-.94zm0-.92zm0-.92zM4.16 2.3zm0-1.85zm0-.92zm0-.92zm0-.92zm0-.92zm0-.93zm0-.92zm0-1.86zm0-.92zm0-.92zM5.08 2.3zm0-.92zm0-.93zm0-.92zm0-.92zm0-.92zm0-.92zm0-.93zm0-.92zm0-.92zm0-.94zm0-.92zm0-.92zM6 2.3zm0-.92zm0-.93zm0-.92zm0-.92zm0-.92zm0-.92zm0-.93zm0-.92zM6-6zm0-.94zm0-.92zm0-.92zM4.6 1.84v-.47-.45H3.7V1.84H4.6zM3.7.92V.45 0H2.77V.92H3.69zm0-.92v-.45-.47H2.77V0H3.69zm0-.92v-.45-.47H2.77V-.92H3.69zm0-.92v-.46-.47H2.77V-1.84H3.69zm0-.93v-.45-.47H2.77V-2.77H3.69zm0-.92v-.45-.47H2.77V-3.69H3.69zm0-.92v-.45-.47H2.77V-4.61H3.69zm.92-.92v-.45-.47H3.69V-5.53H4.6zm0 0"/></symbol><symbol overflow="visible" id="f5becf87I"><path d="M.47 2.3zm0-.92zm0-.93zm0-.92zm0-.92zm0-.92zm0-.92zm0-.93zm0-.92zm0-.92zm0-.94zm0-.92zm0-.92zM1.39 2.3zm0-.92zm0-.93zm0-.92zm0-3.69zm0-.92zm0-.92zm0-.94zm0-.92zm0-.92zM2.31 2.3zm0-.92zm0-.93zm0-1.84zm0-.92zm0-.92zm0-1.85zm0-.92zm0-.94zm0-.92zm0-.92zM3.23 2.3zm0-.92zm0-.93zm0-1.84zm0-.92zm0-.92zm0-1.85zm0-.92zm0-.94zm0-.92zm0-.92zM4.16 2.3zm0-.92zm0-.93zm0-1.84zm0-.92zm0-.92zm0-1.85zm0-.92zm0-.94zm0-.92zm0-.92zM5.08 2.3zm0-.92zm0-.93zm0-1.84zm0-.92zm0-.92zm0-1.85zm0-.92zm0-.94zm0-.92zm0-.92zM6 2.3zm0-.92zm0-.93zm0-.92zm0-.92zm0-.92zm0-.92zm0-.93zm0-.92zM6-6zm0-.94zm0-.92zm0-.92zM2.77 0v-.45-.47H1.85V0H2.76zm.92 0v-.45-.47H2.77V0H3.69zm.92 0v-.45-.47H3.69V0H4.6zm.92 0v-.45-.47H4.61V0H5.53zM1.84-.92v-.45-.47H.92V-.92H1.84zm0-.92v-.46-.47H.92V-1.84H1.84zm0-.93v-.45-.47H.92V-2.77H1.84zm.93-.92v-.45-.47H1.85V-3.69H2.76zm.92 0v-.45-.47H2.77V-3.69H3.69zm.92 0v-.45-.47H3.69V-3.69H4.6zm.92 0v-.45-.47H4.61V-3.69H5.53zm0 0"/></symbol><symbol overflow="visible" id="f5becf87J"><path d="M.47 2.3zm0-.92zm0-.93zm0-.92zm0-.92zm0-.92zm0-.92zm0-.93zm0-.92zm0-.92zm0-.94zm0-.92zm0-.92zM1.39 2.3zm0-.92zm0-.93zm0-.92zm0-.92zm0-.92zm0-.92zm0-.93zm0-.92zm0-.92zm0-.94zm0-.92zm0-.92zM2.31 2.3zm0-1.85zm0-.92zm0-.92zm0-.92zm0-.92zm0-.93zm0-.92zm0-1.86zm0-.92zm0-.92zM3.23 2.3zm0-.92zm0-7.38zm0-.94zm0-.92zm0-.92zM4.16 2.3zm0-.92zm0-.93zm0-.92zm0-.92zm0-.92zm0-.92zm0-.93zm0-.92zm0-.92zm0-.94zm0-.92zm0-.92zM5.08 2.3zm0-.92zm0-.93zm0-.92zm0-.92zm0-.92zm0-.92zm0-.93zm0-.92zm0-.92zm0-.94zm0-.92zm0-.92zM6 2.3zm0-.92zm0-.93zm0-.92zm0-.92zm0-.92zm0-.92zm0-.93zm0-.92zM6-6zm0-.94zm0-.92zm0-.92zM2.77 1.84v-.47-.45H1.85V1.84H2.76zm.92-.92V.45 0H2.77V.92H3.69zm0-.92v-.45-.47H2.77V0H3.69zm0-.92v-.45-.47H2.77V-.92H3.69zm0-.92v-.46-.47H2.77V-1.84H3.69zm0-.93v-.45-.47H2.77V-2.77H3.69zm0-.92v-.45-.47H2.77V-3.69H3.69zm0-.92v-.45-.47H2.77V-4.61H3.69zm-.92-.92v-.45-.47H1.85V-5.53H2.76zm0 0"/></symbol></defs><g fill="#ff81bf"><use xlink:href="#f5becf87a" x="130.3846" y="152"/><use xlink:href="#f5becf87b" x="178.8462" y="152"/><g fill-opacity=".3"><use xlink:href="#f5becf87c" x="227.3077" y="152"/><use xlink:href="#f5becf87d" x="275.7727" y="152"/><use xlink:href="#f5becf87e" x="324.2377" y="152"/></g><use xlink:href="#f5becf87f" x="372.6923" y="152"/><use xlink:href="#f5becf87g" x="421.1538" y="152"/><use xlink:href="#f5becf87h" x="258" y="249"/><use xlink:href="#f5becf87i" x="264.462" y="249"/><use xlink:href="#f5becf87j" x="270.924" y="249"/><use xlink:href="#f5becf87k" x="277.386" y="249"/><use xlink:href="#f5becf87l" x="283.848" y="249"/><use xlink:href="#f5becf87m" x="290.31" y="249"/><use xlink:href="#f5becf87n" x="296.772" y="249"/><use xlink:href="#f5becf87o" x="303.234" y="249"/><use xlink:href="#f5becf87p" x="309.696" y="249"/><use xlink:href="#f5becf87q" x="316.158" y="249"/><use xlink:href="#f5becf87r" x="322.62" y="249"/><use xlink:href="#f5becf87s" x="329.082" y="249"/><use xlink:href="#f5becf87t" x="335.544" y="249"/><g><use xlink:href="#f5becf87m" x="342" y="249"/></g><g><use xlink:href="#f5becf87u" x="183.6923" y="265"/><use xlink:href="#f5becf87i" x="190.1543" y="265"/><use xlink:href="#f5becf87v" x="196.6163" y="265"/><use xlink:href="#f5becf87k" x="203.0783" y="265"/><use xlink:href="#f5becf87w" x="209.5403" y="265"/><use xlink:href="#f5becf87x" x="216.0023" y="265"/><use xlink:href="#f5becf87i" x="222.4643" y="265"/><use xlink:href="#f5becf87l" x="228.9263" y="265"/><use xlink:href="#f5becf87m" x="235.3883" y="265"/><use xlink:href="#f5becf87y" x="241.8503" y="265"/><use xlink:href="#f5becf87v" x="248.3123" y="265"/><use xlink:href="#f5becf87z" x="254.7743" y="265"/><use xlink:href="#f5becf87i" x="261.2363" y="265"/><use xlink:href="#f5becf87A" x="267.6983" y="265"/><use xlink:href="#f5becf87z" x="274.1603" y="265"/><use xlink:href="#f5becf87i" x="280.6223" y="265"/><use xlink:href="#f5becf87B" x="287.0843" y="265"/><use xlink:href="#f5becf87z" x="293.5463" y="265"/><use xlink:href="#f5becf87C" x="300.0083" y="265"/><use xlink:href="#f5becf87k" x="306.4703" y="265"/><use xlink:href="#f5becf87C" x="312.9323" y="265"/><use xlink:href="#f5becf87D" x="319.3943" y="265"/><use xlink:href="#f5becf87i" x="325.8563" y="265"/><use xlink:href="#f5becf87m" x="332.3183" y="265"/><use xlink:href="#f5becf87E" x="338.7803" y="265"/><use xlink:href="#f5becf87F" x="345.2423" y="265"/><use xlink:href="#f5becf87x" x="351.7043" y="265"/><use xlink:href="#f5becf87G" x="358.1663" y="265"/><use xlink:href="#f5becf87z" x="364.6283" y="265"/><use xlink:href="#f5becf87m" x="371.0903" y="265"/><use xlink:href="#f5becf87H" x="377.5523" y="265"/><use xlink:href="#f5becf87I" x="384.0143" y="265"/><use xlink:href="#f5becf87v" x="390.4763" y="265"/><use xlink:href="#f5becf87z" x="396.9383" y="265"/><use xlink:href="#f5becf87i" x="403.4003" y="265"/><use xlink:href="#f5becf87J" x="409.8623" y="265"/></g></g></svg>