<?xml version='1.0' encoding='UTF-8'?>
<svg xmlns="http://www.w3.org/2000/svg" xmlns:xlink="http://www.w3.org/1999/xlink" width="600px" height="300px" viewBox="0 0 600 300" x="0px" y="0px" enable-background="new 0 0 600 300"><defs><symbol overflow="visible" id="fb9ce3f6a"><path d="M3.47 17.3zm0-6.93zm0-6.92zm0-6.92zm0-6.92zm0-6.92zm0-6.92zm0-6.93zm0-6.92zm0-6.92zm0-6.94zm0-6.92zm0-6.92zm6.92 83.08zm0-6.93zm0-6.92zm0-48.45zm0-6.94zm0-6.92zm0-6.92zm6.92 83.08zm0-6.93zm0-6.92zm0-6.92zm0-6.92zm0-13.84zm0-6.93zm0-6.92zm0-13.86zm0-6.92zm0-6.92zm6.92 83.08zm0-6.93zm0-6.92zm0-6.92zm0-6.92zm0-13.84zm0-6.93zm0-6.92zm0-13.86zm0-6.92zm0-6.92zm6.93 83.08zm0-6.93zm0-6.92zm0-6.92zm0-6.92zm0-13.84zm0-6.93zm0-6.92zm0-13.86zm0-6.92zm0-6.92zm6.92 83.08zm0-6.93zm0-6.92zm0-48.45zm0-6.94zm0-6.92zm0-6.92zM45 17.3zm0-6.93zm0-6.92zm0-6.92zm0-6.92zm0-6.92zm0-6.92zm0-6.93zm0-6.92zM45-45zm0-6.94zm0-6.92zm0-6.92zM10.4 0c1 0 1.83-.32 2.47-.97.65-.64.97-1.48.97-2.5 0-1-.32-1.83-.96-2.48a3.38 3.38 0 00-2.49-.97c-1.02 0-1.85.32-2.5.97a3.36 3.36 0 00-.97 2.48c0 1.02.32 1.86.97 2.5.65.65 1.48.97 2.5.97zm27.68 0c1 0 1.83-.32 2.48-.97.65-.64.97-1.48.97-2.5 0-1-.32-1.83-.97-2.48a3.38 3.38 0 00-2.48-.97c-1.03 0-1.86.32-2.5.97a3.36 3.36 0 00-.97 2.48c0 1.02.32 1.86.97 2.5.64.65 1.47.97 2.5.97zM10.39-6.92c1 0 1.84-.32 2.48-.97.65-.65.97-1.48.97-2.5 0-1-.32-1.84-.96-2.48a3.38 3.38 0 00-2.49-.97c-1.02 0-1.85.32-2.5.96a3.36 3.36 0 00-.97 2.49c0 1.02.32 1.85.97 2.5.65.65 1.48.97 2.5.97zm27.69 0c1 0 1.83-.32 2.48-.97.65-.65.97-1.48.97-2.5 0-1-.32-1.84-.97-2.48a3.38 3.38 0 00-2.48-.97c-1.03 0-1.86.32-2.5.96a3.36 3.36 0 00-.97 2.49c0 1.02.32 1.85.97 2.5.64.65 1.47.97 2.5.97zm-27.69-6.92c1 0 1.84-.32 2.48-.97.65-.65.97-1.48.97-2.5 0-1.01-.32-1.84-.96-2.49a3.38 3.38 0 00-2.49-.97c-1.02 0-1.85.33-2.5.97a3.36 3.36 0 00-.97 2.49c0 1.02.32 1.85.97 2.5.65.65 1.48.97 2.5.97zm6.92 0c1.01 0 1.84-.32 2.49-.97.64-.65.97-1.48.97-2.5 0-1.01-.33-1.84-.97-2.49a3.38 3.38 0 00-2.49-.97c-1.02 0-1.85.33-2.5.97a3.36 3.36 0 00-.97 2.49c0 1.02.32 1.85.97 2.5.65.65 1.48.97 2.5.97zm6.92 0c1.01 0 1.84-.32 2.49-.97.64-.65.97-1.48.97-2.5 0-1.01-.33-1.84-.97-2.49a3.38 3.38 0 00-2.49-.97c-1.02 0-1.85.33-2.5.97a3.36 3.36 0 00-.96 2.49c0 1.02.32 1.85.96 2.5.65.65 1.48.97 2.5.97zm6.93 0c1 0 1.83-.32 2.48-.97.65-.65.97-1.48.97-2.5 0-1.01-.32-1.84-.97-2.49a3.38 3.38 0 00-2.48-.97c-1.03 0-1.86.33-2.5.97a3.36 3.36 0 00-.97 2.49c0 1.02.32 1.85.97 2.5.64.65 1.47.97 2.5.97zm6.92 0c1 0 1.83-.32 2.48-.97.65-.65.97-1.48.97-2.5 0-1.01-.32-1.84-.97-2.49a3.38 3.38 0 00-2.48-.97c-1.03 0-1.86.33-2.5.97a3.36 3.36 0 00-.97 2.49c0 1.02.32 1.85.97 2.5.64.65 1.47.97 2.5.97zm-27.69-6.93c1 0 1.84-.32 2.48-.96.65-.65.97-1.48.97-2.5 0-1.01-.32-1.84-.96-2.49a3.38 3.38 0 00-2.49-.97c-1.02 0-1.85.33-2.5.97a3.36 3.36 0 00-.97 2.49c0 1.02.32 1.85.97 2.5.65.64 1.48.96 2.5.96zm27.69 0c1 0 1.83-.32 2.48-.96.65-.65.97-1.48.97-2.5 0-1.01-.32-1.84-.97-2.49a3.38 3.38 0 00-2.48-.97c-1.03 0-1.86.33-2.5.97a3.36 3.36 0 00-.97 2.49c0 1.02.32 1.85.97 2.5.64.64 1.47.96 2.5.96zm-27.69-6.92c1 0 1.84-.32 2.48-.97.65-.64.97-1.47.97-2.5 0-1-.32-1.83-.96-2.48a3.38 3.38 0 00-2.49-.97c-1.02 0-1.85.32-2.5.97a3.36 3.36 0 00-.97 2.48c0 1.03.32 1.86.97 2.5.65.65 1.48.97 2.5.97zm27.69 0c1 0 1.83-.32 2.48-.97.65-.64.97-1.47.97-2.5 0-1-.32-1.83-.97-2.48a3.38 3.38 0 00-2.48-.97c-1.03 0-1.86.32-2.5.97a3.36 3.36 0 00-.97 2.48c0 1.03.32 1.86.97 2.5.64.65 1.47.97 2.5.97zM10.39-34.6c1 0 1.84-.32 2.48-.97.65-.64.97-1.47.97-2.5 0-1-.32-1.83-.96-2.48a3.38 3.38 0 00-2.49-.97c-1.02 0-1.85.32-2.5.97a3.36 3.36 0 00-.97 2.48c0 1.03.32 1.86.97 2.5.65.65 1.48.97 2.5.97zm27.69 0c1 0 1.83-.32 2.48-.97.65-.64.97-1.47.97-2.5 0-1-.32-1.83-.97-2.48a3.38 3.38 0 00-2.48-.97c-1.03 0-1.86.32-2.5.97a3.36 3.36 0 00-.97 2.48c0 1.03.32 1.86.97 2.5.64.65 1.47.97 2.5.97zM17.3-41.53c1.01 0 1.84-.32 2.49-.97.64-.64.97-1.48.97-2.5 0-1-.33-1.84-.97-2.48a3.38 3.38 0 00-2.49-.97c-1.02 0-1.85.32-2.5.97a3.36 3.36 0 00-.97 2.48c0 1.02.32 1.86.97 2.5.65.65 1.48.97 2.5.97zm6.92 0c1.01 0 1.84-.32 2.49-.97.64-.64.97-1.48.97-2.5 0-1-.33-1.84-.97-2.48a3.38 3.38 0 00-2.49-.97c-1.02 0-1.85.32-2.5.97a3.36 3.36 0 00-.96 2.48c0 1.02.32 1.86.96 2.5.65.65 1.48.97 2.5.97zm6.93 0c1 0 1.83-.32 2.48-.97.65-.64.97-1.48.97-2.5 0-1-.32-1.84-.97-2.48a3.38 3.38 0 00-2.48-.97c-1.03 0-1.86.32-2.5.97a3.36 3.36 0 00-.97 2.48c0 1.02.32 1.86.97 2.5.64.65 1.47.97 2.5.97zm0 0"/></symbol><symbol overflow="visible" id="fb9ce3f6b"><path d="M3.47 17.3zm0-6.93zm0-6.92zm0-6.92zm0-6.92zm0-6.92zm0-6.92zm0-6.93zm0-6.92zm0-6.92zm0-6.94zm0-6.92zm0-6.92zm6.92 83.08zm0-6.93zm0-6.92zm0-6.92zm0-6.92zm0-6.92zm0-6.92zm0-6.93zm0-6.92zm0-6.92zm0-6.94zm0-6.92zm0-6.92zm6.92 83.08zm0-6.93zm0-6.92zm0-6.92zm0-6.92zm0-6.92zm0-13.85zm0-6.92zm0-13.86zm0-6.92zm0-6.92zm6.92 83.08zm0-6.93zm0-6.92zm0-6.92zm0-6.92zm0-6.92zm0-41.55zm0-6.92zm6.93 83.08zm0-6.93zm0-6.92zm0-6.92zm0-6.92zm0-6.92zm0-13.85zm0-6.92zm0-6.92zm0-6.94zm0-6.92zm0-6.92zm6.92 83.08zm0-6.93zm0-6.92zm0-6.92zm0-6.92zm0-6.92zm0-6.92zm0-6.93zm0-6.92zm0-6.92zm0-6.94zm0-6.92zm0-6.92zM45 17.3zm0-6.93zm0-6.92zm0-6.92zm0-6.92zm0-6.92zm0-6.92zm0-6.93zm0-6.92zM45-45zm0-6.94zm0-6.92zm0-6.92zM17.31-20.77c1.01 0 1.84-.32 2.49-.96.64-.65.97-1.48.97-2.5 0-1.01-.33-1.84-.97-2.49a3.38 3.38 0 00-2.49-.97c-1.02 0-1.85.33-2.5.97a3.36 3.36 0 00-.97 2.49c0 1.02.32 1.85.97 2.5.65.64 1.48.96 2.5.96zm6.92 0c1.01 0 1.84-.32 2.49-.96.64-.65.97-1.48.97-2.5 0-1.01-.33-1.84-.97-2.49a3.38 3.38 0 00-2.49-.97c-1.02 0-1.85.33-2.5.97a3.36 3.36 0 00-.96 2.49c0 1.02.32 1.85.96 2.5.65.64 1.48.96 2.5.96zm6.93 0c1 0 1.83-.32 2.48-.96.65-.65.97-1.48.97-2.5 0-1.01-.32-1.84-.97-2.49a3.38 3.38 0 00-2.48-.97c-1.03 0-1.86.33-2.5.97a3.36 3.36 0 00-.97 2.49c0 1.02.32 1.85.97 2.5.64.64 1.47.96 2.5.96zm-6.93-6.92c1.01 0 1.84-.32 2.49-.97.64-.64.97-1.47.97-2.5 0-1-.33-1.83-.97-2.48a3.38 3.38 0 00-2.49-.97c-1.02 0-1.85.32-2.5.97a3.36 3.36 0 00-.96 2.48c0 1.03.32 1.86.96 2.5.65.65 1.48.97 2.5.97zm0-6.92c1.01 0 1.84-.32 2.49-.97.64-.64.97-1.47.97-2.5 0-1-.33-1.83-.97-2.48a3.38 3.38 0 00-2.49-.97c-1.02 0-1.85.32-2.5.97a3.36 3.36 0 00-.96 2.48c0 1.03.32 1.86.96 2.5.65.65 1.48.97 2.5.97zm-6.92-6.92c1.01 0 1.84-.32 2.49-.97.64-.64.97-1.48.97-2.5 0-1-.33-1.84-.97-2.48a3.38 3.38 0 00-2.49-.97c-1.02 0-1.85.32-2.5.97a3.36 3.36 0 00-.97 2.48c0 1.02.32 1.86.97 2.5.65.65 1.48.97 2.5.97zm6.92 0c1.01 0 1.84-.32 2.49-.97.64-.64.97-1.48.97-2.5 0-1-.33-1.84-.97-2.48a3.38 3.38 0 00-2.49-.97c-1.02 0-1.85.32-2.5.97a3.36 3.36 0 00-.96 2.48c0 1.02.32 1.86.96 2.5.65.65 1.48.97 2.5.97zm0-6.94c1.01 0 1.84-.32 2.49-.97.64-.64.97-1.47.97-2.5 0-1-.33-1.83-.97-2.48a3.38 3.38 0 00-2.49-.97c-1.02 0-1.85.32-2.5.97a3.36 3.36 0 00-.96 2.48c0 1.03.32 1.86.96 2.5.65.65 1.48.97 2.5.97zm0 0"/></symbol><symbol overflow="visible" id="fb9ce3f6d"><path d="M3.47 17.3zm0-6.93zm0-6.92zm0-6.92zm0-6.92zm0-6.92zm0-6.92zm0-6.93zm0-6.92zm0-6.92zm0-6.94zm0-6.92zm0-6.92zm6.92 83.08zm0-6.93zm0-6.92zm0-6.92zm0-6.92zm0-6.92zm0-6.92zm0-6.93zm0-6.92zm0-6.92zm0-6.94zm0-6.92zm0-6.92zm6.92 83.08zm0-6.93zm0-6.92zm0-6.92zm0-6.92zm0-6.92zm0-20.77zm0-6.92zm0-13.86zm0-6.92zm6.92 83.08zm0-6.93zm0-6.92zm0-6.92zm0-6.92zm0-6.92zm0-13.85zm0-13.84zm0-13.86zm0-6.92zm6.93 83.08zm0-6.93zm0-6.92zm0-6.92zm0-6.92zm0-6.92zm0-13.85zm0-6.92zm0-13.86zm0-6.92zm0-6.92zm6.92 83.08zm0-6.93zm0-6.92zm0-6.92zm0-6.92zm0-6.92zm0-6.92zm0-6.93zm0-6.92zm0-6.92zm0-6.94zm0-6.92zm0-6.92zM45 17.3zm0-6.93zm0-6.92zm0-6.92zm0-6.92zm0-6.92zm0-6.92zm0-6.93zm0-6.92zM45-45zm0-6.94zm0-6.92zm0-6.92zM17.31-20.77c1.01 0 1.84-.32 2.49-.96.64-.65.97-1.48.97-2.5 0-1.01-.33-1.84-.97-2.49a3.38 3.38 0 00-2.49-.97c-1.02 0-1.85.33-2.5.97a3.36 3.36 0 00-.97 2.49c0 1.02.32 1.85.97 2.5.65.64 1.48.96 2.5.96zm6.92 0c1.01 0 1.84-.32 2.49-.96.64-.65.97-1.48.97-2.5 0-1.01-.33-1.84-.97-2.49a3.38 3.38 0 00-2.49-.97c-1.02 0-1.85.33-2.5.97a3.36 3.36 0 00-.96 2.49c0 1.02.32 1.85.96 2.5.65.64 1.48.96 2.5.96zm6.93 0c1 0 1.83-.32 2.48-.96.65-.65.97-1.48.97-2.5 0-1.01-.32-1.84-.97-2.49a3.38 3.38 0 00-2.48-.97c-1.03 0-1.86.33-2.5.97a3.36 3.36 0 00-.97 2.49c0 1.02.32 1.85.97 2.5.64.64 1.47.96 2.5.96zM17.3-27.69c1.01 0 1.84-.32 2.49-.97.64-.64.97-1.47.97-2.5 0-1-.33-1.83-.97-2.48a3.38 3.38 0 00-2.49-.97c-1.02 0-1.85.32-2.5.97a3.36 3.36 0 00-.97 2.48c0 1.03.32 1.86.97 2.5.65.65 1.48.97 2.5.97zm6.92-6.92c1.01 0 1.84-.32 2.49-.97.64-.64.97-1.47.97-2.5 0-1-.33-1.83-.97-2.48a3.38 3.38 0 00-2.49-.97c-1.02 0-1.85.32-2.5.97a3.36 3.36 0 00-.96 2.48c0 1.03.32 1.86.96 2.5.65.65 1.48.97 2.5.97zm6.93-6.92c1 0 1.83-.32 2.48-.97.65-.64.97-1.48.97-2.5 0-1-.32-1.84-.97-2.48a3.38 3.38 0 00-2.48-.97c-1.03 0-1.86.32-2.5.97a3.36 3.36 0 00-.97 2.48c0 1.02.32 1.86.97 2.5.64.65 1.47.97 2.5.97zM17.3-48.47c1.01 0 1.84-.32 2.49-.97.64-.64.97-1.47.97-2.5 0-1-.33-1.83-.97-2.48a3.38 3.38 0 00-2.49-.97c-1.02 0-1.85.32-2.5.97a3.36 3.36 0 00-.97 2.48c0 1.03.32 1.86.97 2.5.65.65 1.48.97 2.5.97zm6.92 0c1.01 0 1.84-.32 2.49-.97.64-.64.97-1.47.97-2.5 0-1-.33-1.83-.97-2.48a3.38 3.38 0 00-2.49-.97c-1.02 0-1.85.32-2.5.97a3.36 3.36 0 00-.96 2.48c0 1.03.32 1.86.96 2.5.65.65 1.48.97 2.5.97zm0 0"/></symbol><symbol overflow="visible" id="fb9ce3f6f"><path d="M3.47 17.3zm0-6.93zm0-6.92zm0-6.92zm0-6.92zm0-6.92zm0-6.92zm0-6.93zm0-6.92zm0-6.92zm0-6.94zm0-6.92zm0-6.92zm6.92 83.08zm0-6.93zm0-6.92zm0-6.92zm0-6.92zm0-6.92zm0-6.92zm0-6.93zm0-6.92zm0-6.92zm0-6.94zm0-6.92zm0-6.92zm6.92 83.08zm0-6.93zm0-6.92zm0-6.92zm0-6.92zm0-6.92zm0-13.85zm0-13.84zm0-13.86zm0-6.92zm6.92 83.08zm0-6.93zm0-6.92zm0-6.92zm0-6.92zm0-6.92zm0-13.85zm0-13.84zm0-13.86zm0-6.92zm6.93 83.08zm0-6.93zm0-6.92zm0-6.92zm0-6.92zm0-6.92zm0-6.92zm0-13.85zm0-13.86zm0-6.92zm0-6.92zm6.92 83.08zm0-6.93zm0-6.92zm0-6.92zm0-6.92zm0-6.92zm0-6.92zm0-6.93zm0-6.92zm0-6.92zm0-6.94zm0-6.92zm0-6.92zM45 17.3zm0-6.93zm0-6.92zm0-6.92zm0-6.92zm0-6.92zm0-6.92zm0-6.93zm0-6.92zM45-45zm0-6.94zm0-6.92zm0-6.92zM17.31-20.77c1.01 0 1.84-.32 2.49-.96.64-.65.97-1.48.97-2.5 0-1.01-.33-1.84-.97-2.49a3.38 3.38 0 00-2.49-.97c-1.02 0-1.85.33-2.5.97a3.36 3.36 0 00-.97 2.49c0 1.02.32 1.85.97 2.5.65.64 1.48.96 2.5.96zm6.92 0c1.01 0 1.84-.32 2.49-.96.64-.65.97-1.48.97-2.5 0-1.01-.33-1.84-.97-2.49a3.38 3.38 0 00-2.49-.97c-1.02 0-1.85.33-2.5.97a3.36 3.36 0 00-.96 2.49c0 1.02.32 1.85.96 2.5.65.64 1.48.96 2.5.96zm6.93-6.92c1 0 1.83-.32 2.48-.97.65-.64.97-1.47.97-2.5 0-1-.32-1.83-.97-2.48a3.38 3.38 0 00-2.48-.97c-1.03 0-1.86.32-2.5.97a3.36 3.36 0 00-.97 2.48c0 1.03.32 1.86.97 2.5.64.65 1.47.97 2.5.97zM17.3-34.6c1.01 0 1.84-.32 2.49-.97.64-.64.97-1.47.97-2.5 0-1-.33-1.83-.97-2.48a3.38 3.38 0 00-2.49-.97c-1.02 0-1.85.32-2.5.97a3.36 3.36 0 00-.97 2.48c0 1.03.32 1.86.97 2.5.65.65 1.48.97 2.5.97zm6.92 0c1.01 0 1.84-.32 2.49-.97.64-.64.97-1.47.97-2.5 0-1-.33-1.83-.97-2.48a3.38 3.38 0 00-2.49-.97c-1.02 0-1.85.32-2.5.97a3.36 3.36 0 00-.96 2.48c0 1.03.32 1.86.96 2.5.65.65 1.48.97 2.5.97zm6.93-6.92c1 0 1.83-.32 2.48-.97.65-.64.97-1.48.97-2.5 0-1-.32-1.84-.97-2.48a3.38 3.38 0 00-2.48-.97c-1.03 0-1.86.32-2.5.97a3.36 3.36 0 00-.97 2.48c0 1.02.32 1.86.97 2.5.64.65 1.47.97 2.5.97zM17.3-48.47c1.01 0 1.84-.32 2.49-.97.64-.64.97-1.47.97-2.5 0-1-.33-1.83-.97-2.48a3.38 3.38 0 00-2.49-.97c-1.02 0-1.85.32-2.5.97a3.36 3.36 0 00-.97 2.48c0 1.03.32 1.86.97 2.5.65.65 1.48.97 2.5.97zm6.92 0c1.01 0 1.84-.32 2.49-.97.64-.64.97-1.47.97-2.5 0-1-.33-1.83-.97-2.48a3.38 3.38 0 00-2.49-.97c-1.02 0-1.85.32-2.5.97a3.36 3.36 0 00-.96 2.48c0 1.03.32 1.86.96 2.5.65.65 1.48.97 2.5.97zm0 0"/></symbol><symbol overflow="visible" id="fb9ce3f6c"><path d="M3.47 17.3zm0-6.93zm0-6.92zm0-6.92zm0-6.92zm0-6.92zm0-6.92zm0-6.93zm0-6.92zm0-6.92zm0-6.94zm0-6.92zm0-6.92zm6.92 83.08zm0-6.93zm0-6.92zm0-55.39zm0-6.92zm0-6.92zm6.92 83.08zm0-6.93zm0-6.92zm0-13.84zm0-6.92zm0-13.85zm0-6.92zm0-13.86zm0-6.92zm0-6.92zm6.92 83.08zm0-6.93zm0-6.92zm0-13.84zm0-6.92zm0-13.85zm0-6.92zm0-13.86zm0-6.92zm0-6.92zm6.93 83.08zm0-6.93zm0-6.92zm0-13.84zm0-6.92zm0-13.85zm0-6.92zm0-13.86zm0-6.92zm0-6.92zm6.92 83.08zm0-6.93zm0-6.92zm0-6.92zm0-20.76zm0-20.77zm0-6.94zm0-6.92zm0-6.92zM45 17.3zm0-6.93zm0-6.92zm0-6.92zm0-6.92zm0-6.92zm0-6.92zm0-6.93zm0-6.92zM45-45zm0-6.94zm0-6.92zm0-6.92zM10.4 0c1 0 1.83-.32 2.47-.97.65-.64.97-1.48.97-2.5 0-1-.32-1.83-.96-2.48a3.38 3.38 0 00-2.49-.97c-1.02 0-1.85.32-2.5.97a3.36 3.36 0 00-.97 2.48c0 1.02.32 1.86.97 2.5.65.65 1.48.97 2.5.97zm6.91 0c1.01 0 1.84-.32 2.49-.97.64-.64.97-1.48.97-2.5 0-1-.33-1.83-.97-2.48a3.38 3.38 0 00-2.49-.97c-1.02 0-1.85.32-2.5.97a3.36 3.36 0 00-.97 2.48c0 1.02.32 1.86.97 2.5.65.65 1.48.97 2.5.97zm6.92 0c1.01 0 1.84-.32 2.49-.97.64-.64.97-1.48.97-2.5 0-1-.33-1.83-.97-2.48a3.38 3.38 0 00-2.49-.97c-1.02 0-1.85.32-2.5.97a3.36 3.36 0 00-.96 2.48c0 1.02.32 1.86.96 2.5.65.65 1.48.97 2.5.97zm6.93 0c1 0 1.83-.32 2.48-.97.65-.64.97-1.48.97-2.5 0-1-.32-1.83-.97-2.48a3.38 3.38 0 00-2.48-.97c-1.03 0-1.86.32-2.5.97a3.36 3.36 0 00-.97 2.48c0 1.02.32 1.86.97 2.5.64.65 1.47.97 2.5.97zM10.39-6.92c1 0 1.84-.32 2.48-.97.65-.65.97-1.48.97-2.5 0-1-.32-1.84-.96-2.48a3.38 3.38 0 00-2.49-.97c-1.02 0-1.85.32-2.5.96a3.36 3.36 0 00-.97 2.49c0 1.02.32 1.85.97 2.5.65.65 1.48.97 2.5.97zm27.69 0c1 0 1.83-.32 2.48-.97.65-.65.97-1.48.97-2.5 0-1-.32-1.84-.97-2.48a3.38 3.38 0 00-2.48-.97c-1.03 0-1.86.32-2.5.96a3.36 3.36 0 00-.97 2.49c0 1.02.32 1.85.97 2.5.64.65 1.47.97 2.5.97zm-27.69-6.92c1 0 1.84-.32 2.48-.97.65-.65.97-1.48.97-2.5 0-1.01-.32-1.84-.96-2.49a3.38 3.38 0 00-2.49-.97c-1.02 0-1.85.33-2.5.97a3.36 3.36 0 00-.97 2.49c0 1.02.32 1.85.97 2.5.65.65 1.48.97 2.5.97zm27.69 0c1 0 1.83-.32 2.48-.97.65-.65.97-1.48.97-2.5 0-1.01-.32-1.84-.97-2.49a3.38 3.38 0 00-2.48-.97c-1.03 0-1.86.33-2.5.97a3.36 3.36 0 00-.97 2.49c0 1.02.32 1.85.97 2.5.64.65 1.47.97 2.5.97zm-27.69-6.93c1 0 1.84-.32 2.48-.96.65-.65.97-1.48.97-2.5 0-1.01-.32-1.84-.96-2.49a3.38 3.38 0 00-2.49-.97c-1.02 0-1.85.33-2.5.97a3.36 3.36 0 00-.97 2.49c0 1.02.32 1.85.97 2.5.65.64 1.48.96 2.5.96zm6.92 0c1.01 0 1.84-.32 2.49-.96.64-.65.97-1.48.97-2.5 0-1.01-.33-1.84-.97-2.49a3.38 3.38 0 00-2.49-.97c-1.02 0-1.85.33-2.5.97a3.36 3.36 0 00-.97 2.49c0 1.02.32 1.85.97 2.5.65.64 1.48.96 2.5.96zm6.92 0c1.01 0 1.84-.32 2.49-.96.64-.65.97-1.48.97-2.5 0-1.01-.33-1.84-.97-2.49a3.38 3.38 0 00-2.49-.97c-1.02 0-1.85.33-2.5.97a3.36 3.36 0 00-.96 2.49c0 1.02.32 1.85.96 2.5.65.64 1.48.96 2.5.96zm6.93 0c1 0 1.83-.32 2.48-.96.65-.65.97-1.48.97-2.5 0-1.01-.32-1.84-.97-2.49a3.38 3.38 0 00-2.48-.97c-1.03 0-1.86.33-2.5.97a3.36 3.36 0 00-.97 2.49c0 1.02.32 1.85.97 2.5.64.64 1.47.96 2.5.96zm-20.77-6.92c1 0 1.84-.32 2.48-.97.65-.64.97-1.47.97-2.5 0-1-.32-1.83-.96-2.48a3.38 3.38 0 00-2.49-.97c-1.02 0-1.85.32-2.5.97a3.36 3.36 0 00-.97 2.48c0 1.03.32 1.86.97 2.5.65.65 1.48.97 2.5.97zm27.69 0c1 0 1.83-.32 2.48-.97.65-.64.97-1.47.97-2.5 0-1-.32-1.83-.97-2.48a3.38 3.38 0 00-2.48-.97c-1.03 0-1.86.32-2.5.97a3.36 3.36 0 00-.97 2.48c0 1.03.32 1.86.97 2.5.64.65 1.47.97 2.5.97zM10.39-34.6c1 0 1.84-.32 2.48-.97.65-.64.97-1.47.97-2.5 0-1-.32-1.83-.96-2.48a3.38 3.38 0 00-2.49-.97c-1.02 0-1.85.32-2.5.97a3.36 3.36 0 00-.97 2.48c0 1.03.32 1.86.97 2.5.65.65 1.48.97 2.5.97zm27.69 0c1 0 1.83-.32 2.48-.97.65-.64.97-1.47.97-2.5 0-1-.32-1.83-.97-2.48a3.38 3.38 0 00-2.48-.97c-1.03 0-1.86.32-2.5.97a3.36 3.36 0 00-.97 2.48c0 1.03.32 1.86.97 2.5.64.65 1.47.97 2.5.97zm-27.69-6.92c1 0 1.84-.32 2.48-.97.65-.64.97-1.48.97-2.5 0-1-.32-1.84-.96-2.48a3.38 3.38 0 00-2.49-.97c-1.02 0-1.85.32-2.5.97A3.36 3.36 0 006.92-45c0 1.02.32 1.86.97 2.5.65.65 1.48.97 2.5.97zm6.92 0c1.01 0 1.84-.32 2.49-.97.64-.64.97-1.48.97-2.5 0-1-.33-1.84-.97-2.48a3.38 3.38 0 00-2.49-.97c-1.02 0-1.85.32-2.5.97a3.36 3.36 0 00-.97 2.48c0 1.02.32 1.86.97 2.5.65.65 1.48.97 2.5.97zm6.92 0c1.01 0 1.84-.32 2.49-.97.64-.64.97-1.48.97-2.5 0-1-.33-1.84-.97-2.48a3.38 3.38 0 00-2.49-.97c-1.02 0-1.85.32-2.5.97a3.36 3.36 0 00-.96 2.48c0 1.02.32 1.86.96 2.5.65.65 1.48.97 2.5.97zm6.93 0c1 0 1.83-.32 2.48-.97.65-.64.97-1.48.97-2.5 0-1-.32-1.84-.97-2.48a3.38 3.38 0 00-2.48-.97c-1.03 0-1.86.32-2.5.97a3.36 3.36 0 00-.97 2.48c0 1.02.32 1.86.97 2.5.64.65 1.47.97 2.5.97zm0 0"/></symbol><symbol overflow="visible" id="fb9ce3f6e"><path d="M3.47 17.3zm0-6.93zm0-6.92zm0-6.92zm0-6.92zm0-6.92zm0-6.92zm0-6.93zm0-6.92zm0-6.92zm0-6.94zm0-6.92zm0-6.92zm6.92 83.08zm0-6.93zm0-6.92zm0-6.92zm0-41.53zm0-6.94zm0-6.92zm0-6.92zm6.92 83.08zm0-6.93zm0-6.92zm0-13.84zm0-6.92zm0-6.92zm0-6.93zm0-6.92zm0-13.86zm0-6.92zm0-6.92zm6.92 83.08zm0-6.93zm0-6.92zm0-13.84zm0-6.92zm0-6.92zm0-6.93zm0-6.92zm0-13.86zm0-6.92zm0-6.92zm6.93 83.08zm0-6.93zm0-6.92zm0-13.84zm0-6.92zm0-6.92zm0-6.93zm0-6.92zm0-13.86zm0-6.92zm0-6.92zm6.92 83.08zm0-6.93zm0-6.92zm0-6.92zm0-13.84zm0-6.92zm0-6.93zm0-13.84zm0-6.94zm0-6.92zm0-6.92zM45 17.3zm0-6.93zm0-6.92zm0-6.92zm0-6.92zm0-6.92zm0-6.92zm0-6.93zm0-6.92zM45-45zm0-6.94zm0-6.92zm0-6.92zM17.31 0c1.01 0 1.84-.32 2.49-.97.64-.64.97-1.48.97-2.5 0-1-.33-1.83-.97-2.48a3.38 3.38 0 00-2.49-.97c-1.02 0-1.85.32-2.5.97a3.36 3.36 0 00-.97 2.48c0 1.02.32 1.86.97 2.5.65.65 1.48.97 2.5.97zm6.92 0c1.01 0 1.84-.32 2.49-.97.64-.64.97-1.48.97-2.5 0-1-.33-1.83-.97-2.48a3.38 3.38 0 00-2.49-.97c-1.02 0-1.85.32-2.5.97a3.36 3.36 0 00-.96 2.48c0 1.02.32 1.86.96 2.5.65.65 1.48.97 2.5.97zm6.93 0c1 0 1.83-.32 2.48-.97.65-.64.97-1.48.97-2.5 0-1-.32-1.83-.97-2.48a3.38 3.38 0 00-2.48-.97c-1.03 0-1.86.32-2.5.97a3.36 3.36 0 00-.97 2.48c0 1.02.32 1.86.97 2.5.64.65 1.47.97 2.5.97zM10.39-6.92c1 0 1.84-.32 2.48-.97.65-.65.97-1.48.97-2.5 0-1-.32-1.84-.96-2.48a3.38 3.38 0 00-2.49-.97c-1.02 0-1.85.32-2.5.96a3.36 3.36 0 00-.97 2.49c0 1.02.32 1.85.97 2.5.65.65 1.48.97 2.5.97zm27.69 0c1 0 1.83-.32 2.48-.97.65-.65.97-1.48.97-2.5 0-1-.32-1.84-.97-2.48a3.38 3.38 0 00-2.48-.97c-1.03 0-1.86.32-2.5.96a3.36 3.36 0 00-.97 2.49c0 1.02.32 1.85.97 2.5.64.65 1.47.97 2.5.97zm-27.69-6.92c1 0 1.84-.32 2.48-.97.65-.65.97-1.48.97-2.5 0-1.01-.32-1.84-.96-2.49a3.38 3.38 0 00-2.49-.97c-1.02 0-1.85.33-2.5.97a3.36 3.36 0 00-.97 2.49c0 1.02.32 1.85.97 2.5.65.65 1.48.97 2.5.97zm0-6.93c1 0 1.84-.32 2.48-.96.65-.65.97-1.48.97-2.5 0-1.01-.32-1.84-.96-2.49a3.38 3.38 0 00-2.49-.97c-1.02 0-1.85.33-2.5.97a3.36 3.36 0 00-.97 2.49c0 1.02.32 1.85.97 2.5.65.64 1.48.96 2.5.96zm0-6.92c1 0 1.84-.32 2.48-.97.65-.64.97-1.47.97-2.5 0-1-.32-1.83-.96-2.48a3.38 3.38 0 00-2.49-.97c-1.02 0-1.85.32-2.5.97a3.36 3.36 0 00-.97 2.48c0 1.03.32 1.86.97 2.5.65.65 1.48.97 2.5.97zm0-6.92c1 0 1.84-.32 2.48-.97.65-.64.97-1.47.97-2.5 0-1-.32-1.83-.96-2.48a3.38 3.38 0 00-2.49-.97c-1.02 0-1.85.32-2.5.97a3.36 3.36 0 00-.97 2.48c0 1.03.32 1.86.97 2.5.65.65 1.48.97 2.5.97zm27.69 0c1 0 1.83-.32 2.48-.97.65-.64.97-1.47.97-2.5 0-1-.32-1.83-.97-2.48a3.38 3.38 0 00-2.48-.97c-1.03 0-1.86.32-2.5.97a3.36 3.36 0 00-.97 2.48c0 1.03.32 1.86.97 2.5.64.65 1.47.97 2.5.97zM17.3-41.53c1.01 0 1.84-.32 2.49-.97.64-.64.97-1.48.97-2.5 0-1-.33-1.84-.97-2.48a3.38 3.38 0 00-2.49-.97c-1.02 0-1.85.32-2.5.97a3.36 3.36 0 00-.97 2.48c0 1.02.32 1.86.97 2.5.65.65 1.48.97 2.5.97zm6.92 0c1.01 0 1.84-.32 2.49-.97.64-.64.97-1.48.97-2.5 0-1-.33-1.84-.97-2.48a3.38 3.38 0 00-2.49-.97c-1.02 0-1.85.32-2.5.97a3.36 3.36 0 00-.96 2.48c0 1.02.32 1.86.96 2.5.65.65 1.48.97 2.5.97zm6.93 0c1 0 1.83-.32 2.48-.97.65-.64.97-1.48.97-2.5 0-1-.32-1.84-.97-2.48a3.38 3.38 0 00-2.48-.97c-1.03 0-1.86.32-2.5.97a3.36 3.36 0 00-.97 2.48c0 1.02.32 1.86.97 2.5.64.65 1.47.97 2.5.97zm0 0"/></symbol><symbol overflow="visible" id="fb9ce3f6g"><path d="M.47 2.3zm0-.92zm0-.93zm0-.92zm0-.92zm0-.92zm0-.92zm0-.93zm0-.92zm0-.92zm0-.94zm0-.92zm0-.92zM1.39 2.3zm0-.92zm0-.93zm0-.92zm0-.92zm0-.92zm0-.92zm0-.93zm0-.92zm0-1.86zm0-.92zm0-.92zM2.31 2.3zm0-.92zm0-.93zm0-.92zm0-.92zm0-.92zm0-.92zm0-.93zm0-.92zm0-1.86zm0-.92zm0-.92zM3.23 2.3zm0-.92zm0-.93zm0-7.39zm0-.92zm0-.92zM4.16 2.3zm0-.92zm0-.93zm0-.92zm0-.92zm0-.92zm0-.92zm0-.93zm0-.92zm0-1.86zm0-.92zm0-.92zM5.08 2.3zm0-.92zm0-.93zm0-.92zm0-.92zm0-.92zm0-.92zm0-.93zm0-.92zm0-1.86zm0-.92zm0-.92zM6 2.3zm0-.92zm0-.93zm0-.92zm0-.92zm0-.92zm0-.92zm0-.93zm0-.92zM6-6zm0-.94zm0-.92zm0-.92zM3.69 0v-.45-.47H2.77V0H3.69zm0-.92v-.45-.47H2.77V-.92H3.69zm0-.92v-.46-.47H2.77V-1.84H3.69zm0-.93v-.45-.47H2.77V-2.77H3.69zm0-.92v-.45-.47H2.77V-3.69H3.69zm0-.92v-.45-.47H2.77V-4.61H3.69zm-1.85-.92v-.45-.47H.92V-5.53H1.84zm.93 0v-.45-.47H1.85V-5.53H2.76zm.92 0v-.45-.47H2.77V-5.53H3.69zm.92 0v-.45-.47H3.69V-5.53H4.6zm.92 0v-.45-.47H4.61V-5.53H5.53zm0 0"/></symbol><symbol overflow="visible" id="fb9ce3f6h"><path d="M.47 2.3zm0-.92zm0-.93zm0-.92zm0-.92zm0-.92zm0-.92zm0-.93zm0-.92zm0-.92zm0-.94zm0-.92zm0-.92zM1.39 2.3zm0-.92zm0-.93zm0-.92zm0-3.69zm0-.92zm0-.92zm0-.94zm0-.92zm0-.92zM2.31 2.3zm0-.92zm0-.93zm0-1.84zm0-1.84zm0-1.85zm0-.92zm0-.94zm0-.92zm0-.92zM3.23 2.3zm0-.92zm0-.93zm0-1.84zm0-1.84zm0-1.85zm0-.92zm0-.94zm0-.92zm0-.92zM4.16 2.3zm0-.92zm0-.93zm0-1.84zm0-1.84zm0-1.85zm0-.92zm0-.94zm0-.92zm0-.92zM5.08 2.3zm0-.92zm0-.93zm0-1.84zm0-2.77zm0-.92zm0-.92zm0-.94zm0-.92zm0-.92zM6 2.3zm0-.92zm0-.93zm0-.92zm0-.92zm0-.92zm0-.92zm0-.93zm0-.92zM6-6zm0-.94zm0-.92zm0-.92zM2.77 0v-.45-.47H1.85V0H2.76zm.92 0v-.45-.47H2.77V0H3.69zm.92 0v-.45-.47H3.69V0H4.6zm.92 0v-.45-.47H4.61V0H5.53zM1.84-.92v-.45-.47H.92V-.92H1.84zm0-.92v-.46-.47H.92V-1.84H1.84zm.93 0v-.46-.47H1.85V-1.84H2.76zm.92 0v-.46-.47H2.77V-1.84H3.69zm.92 0v-.46-.47H3.69V-1.84H4.6zm.92 0v-.46-.47H4.61V-1.84H5.53zm-3.69-.93v-.45-.47H.92V-2.77H1.84zm3.7 0v-.45-.47H4.6V-2.77H5.53zm-2.77-.92v-.45-.47H1.85V-3.69H2.76zm.92 0v-.45-.47H2.77V-3.69H3.69zm.92 0v-.45-.47H3.69V-3.69H4.6zm0 0"/></symbol><symbol overflow="visible" id="fb9ce3f6i"><path d="M.47 2.3zm0-.92zm0-.93zm0-.92zm0-.92zm0-.92zm0-.92zm0-.93zm0-.92zm0-.92zm0-.94zm0-.92zm0-.92zM1.39 2.3zm0-.92zm0-.93zm0-1.84zm0-.92zm0-.92zm0-1.85zm0-.92zm0-.94zm0-.92zm0-.92zM2.31 2.3zm0-.92zm0-.93zm0-.92zm0-1.84zm0-1.85zm0-.92zm0-.92zm0-.94zm0-.92zm0-.92zM3.23 2.3zm0-.92zm0-.93zm0-.92zm0-.92zm0-1.84zm0-.93zm0-.92zm0-.92zm0-.94zm0-.92zm0-.92zM4.16 2.3zm0-.92zm0-.93zm0-.92zm0-1.84zm0-1.85zm0-.92zm0-.92zm0-.94zm0-.92zm0-.92zM5.08 2.3zm0-.92zm0-.93zm0-1.84zm0-.92zm0-.92zm0-1.85zm0-.92zm0-.94zm0-.92zm0-.92zM6 2.3zm0-.92zm0-.93zm0-.92zm0-.92zm0-.92zm0-.92zm0-.93zm0-.92zM6-6zm0-.94zm0-.92zm0-.92zM1.84 0v-.45-.47H.92V0H1.84zm3.7 0v-.45-.47H4.6V0H5.53zM2.76-.92v-.45-.47H1.85V-.92H2.76zm1.84 0v-.45-.47H3.69V-.92H4.6zm-.92-.92v-.46-.47H2.77V-1.84H3.69zm-.92-.93v-.45-.47H1.85V-2.77H2.76zm1.84 0v-.45-.47H3.69V-2.77H4.6zm-2.77-.92v-.45-.47H.92V-3.69H1.84zm3.7 0v-.45-.47H4.6V-3.69H5.53zm0 0"/></symbol><symbol overflow="visible" id="fb9ce3f6j"><path d="M.47 2.3zm0-.92zm0-.93zm0-.92zm0-.92zm0-.92zm0-.92zm0-.93zm0-.92zm0-.92zm0-.94zm0-.92zm0-.92zM1.39 2.3zm0-.92zm0-.93zm0-.92zm0-.92zm0-.92zm0-.92zm0-1.85zm0-.92zm0-.94zm0-.92zm0-.92zM2.31 2.3zm0-.92zm0-.93zm0-.92zm0-6.47zm0-.92zm0-.92zM3.23 2.3zm0-.92zm0-.93zm0-1.84zm0-.92zm0-.92zm0-1.85zm0-.92zm0-.94zm0-.92zm0-.92zM4.16 2.3zm0-.92zm0-.93zm0-1.84zm0-.92zm0-.92zm0-1.85zm0-.92zm0-.94zm0-.92zm0-.92zM5.08 2.3zm0-.92zm0-.93zm0-.92zm0-1.84zm0-.92zm0-1.85zm0-.92zm0-.94zm0-.92zm0-.92zM6 2.3zm0-.92zm0-.93zm0-.92zm0-.92zm0-.92zm0-.92zm0-.93zm0-.92zM6-6zm0-.94zm0-.92zm0-.92zM3.69 0v-.45-.47H2.77V0H3.69zm.92 0v-.45-.47H3.69V0H4.6zM2.77-.92v-.45-.47H1.85V-.92H2.76zm2.76 0v-.45-.47H4.61V-.92H5.53zm-2.76-.92v-.46-.47H1.85V-1.84H2.76zm0-.93v-.45-.47H1.85V-2.77H2.76zm-.93-.92v-.45-.47H.92V-3.69H1.84zm.93 0v-.45-.47H1.85V-3.69H2.76zm.92 0v-.45-.47H2.77V-3.69H3.69zm.92 0v-.45-.47H3.69V-3.69H4.6zm.92 0v-.45-.47H4.61V-3.69H5.53zM2.77-4.6v-.45-.47H1.85V-4.61H2.76zm0-.92v-.45-.47H1.85V-5.53H2.76zm0 0"/></symbol><symbol overflow="visible" id="fb9ce3f6k"><path d="M.47 2.3zm0-.92zm0-.93zm0-.92zm0-.92zm0-.92zm0-.92zm0-.93zm0-.92zm0-.92zm0-.94zm0-.92zm0-.92zM1.39 2.3zm0-.92zm0-.93zm0-.92zm0-.92zm0-.92zm0-.92zm0-.93zm0-.92zm0-.92zm0-.94zm0-.92zm0-.92zM2.31 2.3zm0-.92zm0-.93zm0-.92zm0-.92zm0-.92zm0-.92zm0-.93zm0-.92zm0-.92zm0-.94zm0-.92zm0-.92zM3.23 2.3zm0-.92zm0-.93zm0-2.76zm0-2.77zm0-.92zm0-.94zm0-.92zm0-.92zM4.16 2.3zm0-.92zm0-.93zm0-.92zm0-.92zm0-.92zm0-.92zm0-.93zm0-.92zm0-.92zm0-.94zm0-.92zm0-.92zM5.08 2.3zm0-.92zm0-.93zm0-.92zm0-.92zm0-.92zm0-.92zm0-.93zm0-.92zm0-.92zm0-.94zm0-.92zm0-.92zM6 2.3zm0-.92zm0-.93zm0-.92zm0-.92zm0-.92zm0-.92zm0-.93zm0-.92zM6-6zm0-.94zm0-.92zm0-.92zM3.69 0v-.45-.47H2.77V0H3.69zm0-.92v-.45-.47H2.77V-.92H3.69zm0-1.85v-.45-.47H2.77V-2.77H3.69zm0-.92v-.45-.47H2.77V-3.69H3.69zm0 0"/></symbol><symbol overflow="visible" id="fb9ce3f6l"><path d="M.47 2.3zm0-.92zm0-.93zm0-.92zm0-.92zm0-.92zm0-.92zm0-.93zm0-.92zm0-.92zm0-.94zm0-.92zm0-.92zM1.39 2.3zm0-.92zm0-.93zm0-.92zm0-.92zm0-.92zm0-.92zm0-.93zm0-.92zm0-.92zm0-.94zm0-.92zm0-.92zM2.31 2.3zm0-.92zm0-.93zm0-.92zm0-.92zm0-.92zm0-.92zm0-.93zm0-.92zm0-.92zm0-.94zm0-.92zm0-.92zM3.23 2.3zm0-.92zm0-.93zm0-.92zm0-.92zm0-.92zm0-.92zm0-.93zm0-.92zm0-.92zm0-.94zm0-.92zm0-.92zM4.16 2.3zm0-.92zm0-.93zm0-.92zm0-.92zm0-.92zm0-.92zm0-.93zm0-.92zm0-.92zm0-.94zm0-.92zm0-.92zM5.08 2.3zm0-.92zm0-.93zm0-.92zm0-.92zm0-.92zm0-.92zm0-.93zm0-.92zm0-.92zm0-.94zm0-.92zm0-.92zM6 2.3zm0-.92zm0-.93zm0-.92zm0-.92zm0-.92zm0-.92zm0-.93zm0-.92zM6-6zm0-.94zm0-.92zm0-.92zm0 0"/></symbol><symbol overflow="visible" id="fb9ce3f6m"><path d="M.47 2.3zm0-.92zm0-.93zm0-.92zm0-.92zm0-.92zm0-.92zm0-.93zm0-.92zm0-.92zm0-.94zm0-.92zm0-.92zM1.39 2.3zm0-.92zm0-.93zM1.4-6zm0-.94zm0-.92zm0-.92zM2.31 2.3zm0-.92zm0-.93zm0-.92zm0-.92zm0-1.84zm0-.93zm0-.92zm0-1.86zm0-.92zm0-.92zM3.23 2.3zm0-.92zm0-.93zm0-.92zm0-.92zm0-1.84zm0-.93zm0-.92zm0-1.86zm0-.92zm0-.92zM4.16 2.3zm0-.92zm0-.93zm0-.92zm0-.92zm0-1.84zm0-.93zm0-.92zm0-1.86zm0-.92zm0-.92zM5.08 2.3zm0-.92zm0-.93zm0-6.45zm0-.94zm0-.92zm0-.92zM6 2.3zm0-.92zm0-.93zm0-.92zm0-.92zm0-.92zm0-.92zm0-.93zm0-.92zM6-6zm0-.94zm0-.92zm0-.92zM1.84 0v-.45-.47H.92V0H1.84zm3.7 0v-.45-.47H4.6V0H5.53zm-3.7-.92v-.45-.47H.92V-.92H1.84zm3.7 0v-.45-.47H4.6V-.92H5.53zm-3.7-.92v-.46-.47H.92V-1.84H1.84zm.93 0v-.46-.47H1.85V-1.84H2.76zm.92 0v-.46-.47H2.77V-1.84H3.69zm.92 0v-.46-.47H3.69V-1.84H4.6zm.92 0v-.46-.47H4.61V-1.84H5.53zm-3.69-.93v-.45-.47H.92V-2.77H1.84zm3.7 0v-.45-.47H4.6V-2.77H5.53zm-3.7-.92v-.45-.47H.92V-3.69H1.84zm3.7 0v-.45-.47H4.6V-3.69H5.53zm-3.7-.92v-.45-.47H.92V-4.61H1.84zm3.7 0v-.45-.47H4.6V-4.61H5.53zm-2.77-.92v-.45-.47H1.85V-5.53H2.76zm.92 0v-.45-.47H2.77V-5.53H3.69zm.92 0v-.45-.47H3.69V-5.53H4.6zm0 0"/></symbol><symbol overflow="visible" id="fb9ce3f6n"><path d="M.47 2.3zm0-.92zm0-.93zm0-.92zm0-.92zm0-.92zm0-.92zm0-.93zm0-.92zm0-.92zm0-.94zm0-.92zm0-.92zM1.39 2.3zm0-.92zm0-.93zm0-1.84zm0-.92zm0-.92zm0-.93zM1.4-6zm0-.94zm0-.92zm0-.92zM2.31 2.3zm0-.92zm0-.93zm0-1.84zm0-.92zm0-.92zm0-.93zm0-1.84zm0-.94zm0-.92zm0-.92zM3.23 2.3zm0-.92zm0-.93zm0-7.39zm0-.92zm0-.92zM4.16 2.3zm0-.92zm0-.93zm0-1.84zm0-.92zm0-.92zm0-.93zm0-.92zm0-.92zm0-.94zm0-.92zm0-.92zM5.08 2.3zm0-.92zm0-.93zm0-1.84zm0-.92zm0-.92zm0-.93zm0-.92zm0-.92zm0-.94zm0-.92zm0-.92zM6 2.3zm0-.92zm0-.93zm0-.92zm0-.92zm0-.92zm0-.92zm0-.93zm0-.92zM6-6zm0-.94zm0-.92zm0-.92zM1.84 0v-.45-.47H.92V0H1.84zm.93 0v-.45-.47H1.85V0H2.76zm.92 0v-.45-.47H2.77V0H3.69zm.92 0v-.45-.47H3.69V0H4.6zm.92 0v-.45-.47H4.61V0H5.53zM3.7-.92v-.45-.47H2.77V-.92H3.69zm0-.92v-.46-.47H2.77V-1.84H3.69zm0-.93v-.45-.47H2.77V-2.77H3.69zm0-.92v-.45-.47H2.77V-3.69H3.69zM1.84-4.6v-.45-.47H.92V-4.61H1.84zm.93 0v-.45-.47H1.85V-4.61H2.76zm.92 0v-.45-.47H2.77V-4.61H3.69zm0-.92v-.45-.47H2.77V-5.53H3.69zm0 0"/></symbol><symbol overflow="visible" id="fb9ce3f6o"><path d="M.47 2.3zm0-.92zm0-.93zm0-.92zm0-.92zm0-.92zm0-.92zm0-.93zm0-.92zm0-.92zm0-.94zm0-.92zm0-.92zM1.39 2.3zm0-.92zm0-.93zm0-7.39zm0-.92zm0-.92zM2.31 2.3zm0-.92zm0-.93zm0-1.84zm0-.92zm0-1.85zm0-.92zm0-1.86zm0-.92zm0-.92zM3.23 2.3zm0-.92zm0-.93zm0-1.84zm0-.92zm0-1.85zm0-.92zm0-1.86zm0-.92zm0-.92zM4.16 2.3zm0-.92zm0-.93zm0-1.84zm0-.92zm0-1.85zm0-.92zm0-1.86zm0-.92zm0-.92zM5.08 2.3zm0-.92zm0-.93zm0-.92zm0-2.76zm0-2.77zm0-.94zm0-.92zm0-.92zM6 2.3zm0-.92zm0-.93zm0-.92zm0-.92zm0-.92zm0-.92zm0-.93zm0-.92zM6-6zm0-.94zm0-.92zm0-.92zM1.84 0v-.45-.47H.92V0H1.84zm.93 0v-.45-.47H1.85V0H2.76zm.92 0v-.45-.47H2.77V0H3.69zm.92 0v-.45-.47H3.69V0H4.6zM1.84-.92v-.45-.47H.92V-.92H1.84zm3.7 0v-.45-.47H4.6V-.92H5.53zm-3.7-.92v-.46-.47H.92V-1.84H1.84zm3.7 0v-.46-.47H4.6V-1.84H5.53zm-3.7-.93v-.45-.47H.92V-2.77H1.84zm.93 0v-.45-.47H1.85V-2.77H2.76zm.92 0v-.45-.47H2.77V-2.77H3.69zm.92 0v-.45-.47H3.69V-2.77H4.6zm-2.77-.92v-.45-.47H.92V-3.69H1.84zm3.7 0v-.45-.47H4.6V-3.69H5.53zm-3.7-.92v-.45-.47H.92V-4.61H1.84zm3.7 0v-.45-.47H4.6V-4.61H5.53zm-3.7-.92v-.45-.47H.92V-5.53H1.84zm.93 0v-.45-.47H1.85V-5.53H2.76zm.92 0v-.45-.47H2.77V-5.53H3.69zm.92 0v-.45-.47H3.69V-5.53H4.6zm0 0"/></symbol><symbol overflow="visible" id="fb9ce3f6p"><path d="M.47 2.3zm0-.92zm0-.93zm0-.92zm0-.92zm0-.92zm0-.92zm0-.93zm0-.92zm0-.92zm0-.94zm0-.92zm0-.92zM1.39 2.3zm0-.92zm0-.93zm0-1.84zm0-.92zm0-.92zM1.4-6zm0-.94zm0-.92zm0-.92zM2.31 2.3zm0-.92zm0-.93zm0-2.76zm0-.92zm0-.93zm0-.92zm0-1.86zm0-.92zm0-.92zM3.23 2.3zm0-.92zm0-.93zm0-1.84zm0-1.84zm0-.93zm0-.92zm0-1.86zm0-.92zm0-.92zM4.16 2.3zm0-.92zm0-.93zm0-1.84zm0-.92zm0-1.85zm0-.92zm0-1.86zm0-.92zm0-.92zM5.08 2.3zm0-.92zm0-.93zm0-1.84zm0-.92zm0-.92zm0-2.77zm0-.94zm0-.92zm0-.92zM6 2.3zm0-.92zm0-.93zm0-.92zm0-.92zm0-.92zm0-.92zm0-.93zm0-.92zM6-6zm0-.94zm0-.92zm0-.92zM1.84 0v-.45-.47H.92V0H1.84zm.93 0v-.45-.47H1.85V0H2.76zm.92 0v-.45-.47H2.77V0H3.69zm.92 0v-.45-.47H3.69V0H4.6zm.92 0v-.45-.47H4.61V0H5.53zM2.77-.92v-.45-.47H1.85V-.92H2.76zm.92-.92v-.46-.47H2.77V-1.84H3.69zm.92-.93v-.45-.47H3.69V-2.77H4.6zm-2.77-.92v-.45-.47H.92V-3.69H1.84zm3.7 0v-.45-.47H4.6V-3.69H5.53zm-3.7-.92v-.45-.47H.92V-4.61H1.84zm3.7 0v-.45-.47H4.6V-4.61H5.53zm-2.77-.92v-.45-.47H1.85V-5.53H2.76zm.92 0v-.45-.47H2.77V-5.53H3.69zm.92 0v-.45-.47H3.69V-5.53H4.6zm0 0"/></symbol><symbol overflow="visible" id="fb9ce3f6q"><path d="M.47 2.3zm0-.92zm0-.93zm0-.92zm0-.92zm0-.92zm0-.92zm0-.93zm0-.92zm0-.92zm0-.94zm0-.92zm0-.92zM1.39 2.3zm0-.92zm0-.93zm0-.92zM1.4-6zm0-.94zm0-.92zm0-.92zM2.31 2.3zm0-.92zm0-.93zm0-1.84zm0-.92zm0-.92zm0-.93zm0-.92zm0-1.86zm0-.92zm0-.92zM3.23 2.3zm0-.92zm0-.93zm0-1.84zm0-.92zm0-.92zm0-.93zm0-.92zm0-1.86zm0-.92zm0-.92zM4.16 2.3zm0-.92zm0-.93zm0-1.84zm0-.92zm0-.92zm0-.93zm0-.92zm0-1.86zm0-.92zm0-.92zM5.08 2.3zm0-.92zm0-.93zm0-.92zm0-1.84zm0-.92zm0-.93zm0-1.84zm0-.94zm0-.92zm0-.92zM6 2.3zm0-.92zm0-.93zm0-.92zm0-.92zm0-.92zm0-.92zm0-.93zm0-.92zM6-6zm0-.94zm0-.92zm0-.92zM2.77 0v-.45-.47H1.85V0H2.76zm.92 0v-.45-.47H2.77V0H3.69zm.92 0v-.45-.47H3.69V0H4.6zM1.84-.92v-.45-.47H.92V-.92H1.84zm3.7 0v-.45-.47H4.6V-.92H5.53zm-3.7-.92v-.46-.47H.92V-1.84H1.84zm0-.93v-.45-.47H.92V-2.77H1.84zm0-.92v-.45-.47H.92V-3.69H1.84zm0-.92v-.45-.47H.92V-4.61H1.84zm3.7 0v-.45-.47H4.6V-4.61H5.53zm-2.77-.92v-.45-.47H1.85V-5.53H2.76zm.92 0v-.45-.47H2.77V-5.53H3.69zm.92 0v-.45-.47H3.69V-5.53H4.6zm0 0"/></symbol><symbol overflow="visible" id="fb9ce3f6r"><path d="M.47 2.3zm0-.92zm0-.93zm0-.92zm0-.92zm0-.92zm0-.92zm0-.93zm0-.92zm0-.92zm0-.94zm0-.92zm0-.92zM1.39 2.3zm0-.92zm0-.93zm0-.92zm0-1.84zm0-.92zm0-.93zM1.4-6zm0-.94zm0-.92zm0-.92zM2.31 2.3zm0-.92zm0-.93zm0-1.84zm0-.92zm0-1.85zm0-.92zm0-1.86zm0-.92zm0-.92zM3.23 2.3zm0-.92zm0-.93zm0-1.84zm0-.92zm0-1.85zm0-.92zm0-1.86zm0-.92zm0-.92zM4.16 2.3zm0-.92zm0-.93zm0-1.84zm0-.92zm0-1.85zm0-.92zm0-1.86zm0-.92zm0-.92zM5.08 2.3zm0-.92zm0-.93zm0-.92zm0-2.76zm0-2.77zm0-.94zm0-.92zm0-.92zM6 2.3zm0-.92zm0-.93zm0-.92zm0-.92zm0-.92zm0-.92zm0-.93zm0-.92zM6-6zm0-.94zm0-.92zm0-.92zM2.77 0v-.45-.47H1.85V0H2.76zm.92 0v-.45-.47H2.77V0H3.69zm.92 0v-.45-.47H3.69V0H4.6zM1.84-.92v-.45-.47H.92V-.92H1.84zm3.7 0v-.45-.47H4.6V-.92H5.53zm0-.92v-.46-.47H4.6V-1.84H5.53zm-2.77-.93v-.45-.47H1.85V-2.77H2.76zm.92 0v-.45-.47H2.77V-2.77H3.69zm.92 0v-.45-.47H3.69V-2.77H4.6zm.92-.92v-.45-.47H4.61V-3.69H5.53zM1.84-4.6v-.45-.47H.92V-4.61H1.84zm3.7 0v-.45-.47H4.6V-4.61H5.53zm-2.77-.92v-.45-.47H1.85V-5.53H2.76zm.92 0v-.45-.47H2.77V-5.53H3.69zm.92 0v-.45-.47H3.69V-5.53H4.6zm0 0"/></symbol><symbol overflow="visible" id="fb9ce3f6s"><path d="M.47 2.3zm0-.92zm0-.93zm0-.92zm0-.92zm0-.92zm0-.92zm0-.93zm0-.92zm0-.92zm0-.94zm0-.92zm0-.92zM1.39 2.3zm0-.92zm0-.93zm0-7.39zm0-.92zm0-.92zM2.31 2.3zm0-.92zm0-.93zm0-.92zm0-.92zm0-.92zm0-1.85zm0-.92zm0-1.86zm0-.92zm0-.92zM3.23 2.3zm0-.92zm0-.93zm0-.92zm0-.92zm0-.92zm0-1.85zm0-.92zm0-1.86zm0-.92zm0-.92zM4.16 2.3zm0-.92zm0-.93zm0-.92zm0-.92zm0-.92zm0-1.85zm0-.92zm0-1.86zm0-.92zm0-.92zM5.08 2.3zm0-.92zm0-.93zm0-.92zm0-.92zm0-.92zm0-.92zm0-.93zm0-.92zm0-1.86zm0-.92zm0-.92zM6 2.3zm0-.92zm0-.93zm0-.92zm0-.92zm0-.92zm0-.92zm0-.93zm0-.92zM6-6zm0-.94zm0-.92zm0-.92zM1.84 0v-.45-.47H.92V0H1.84zm0-.92v-.45-.47H.92V-.92H1.84zm0-.92v-.46-.47H.92V-1.84H1.84zm0-.93v-.45-.47H.92V-2.77H1.84zm.93 0v-.45-.47H1.85V-2.77H2.76zm.92 0v-.45-.47H2.77V-2.77H3.69zm.92 0v-.45-.47H3.69V-2.77H4.6zm-2.77-.92v-.45-.47H.92V-3.69H1.84zm0-.92v-.45-.47H.92V-4.61H1.84zm0-.92v-.45-.47H.92V-5.53H1.84zm.93 0v-.45-.47H1.85V-5.53H2.76zm.92 0v-.45-.47H2.77V-5.53H3.69zm.92 0v-.45-.47H3.69V-5.53H4.6zm.92 0v-.45-.47H4.61V-5.53H5.53zm0 0"/></symbol><symbol overflow="visible" id="fb9ce3f6t"><path d="M.47 2.3zm0-.92zm0-.93zm0-.92zm0-.92zm0-.92zm0-.92zm0-.93zm0-.92zm0-.92zm0-.94zm0-.92zm0-.92zM1.39 2.3zm0-.92zm0-.93zm0-.92zm0-1.84zm0-.92zm0-.93zm0-.92zm0-.92zm0-.94zm0-.92zm0-.92zM2.31 2.3zm0-.92zm0-.93zm0-1.84zm0-1.84zm0-1.85zm0-.92zm0-.94zm0-.92zm0-.92zM3.23 2.3zm0-.92zm0-.93zm0-1.84zm0-1.84zm0-1.85zm0-.92zm0-.94zm0-.92zm0-.92zM4.16 2.3zm0-.92zm0-.93zm0-1.84zm0-1.84zm0-1.85zm0-.92zm0-.94zm0-.92zm0-.92zM5.08 2.3zm0-.92zm0-.93zm0-.92zm0-3.69zm0-.92zm0-.92zm0-.94zm0-.92zm0-.92zM6 2.3zm0-.92zm0-.93zm0-.92zm0-.92zm0-.92zm0-.92zm0-.93zm0-.92zM6-6zm0-.94zm0-.92zm0-.92zM2.77 0v-.45-.47H1.85V0H2.76zm.92 0v-.45-.47H2.77V0H3.69zm.92 0v-.45-.47H3.69V0H4.6zM1.84-.92v-.45-.47H.92V-.92H1.84zm3.7 0v-.45-.47H4.6V-.92H5.53zm-2.77-.92v-.46-.47H1.85V-1.84H2.76zm.92 0v-.46-.47H2.77V-1.84H3.69zm.92 0v-.46-.47H3.69V-1.84H4.6zm.92 0v-.46-.47H4.61V-1.84H5.53zm0-.93v-.45-.47H4.61V-2.77H5.53zm-2.76-.92v-.45-.47H1.85V-3.69H2.76zm.92 0v-.45-.47H2.77V-3.69H3.69zm.92 0v-.45-.47H3.69V-3.69H4.6zm0 0"/></symbol><symbol overflow="visible" id="fb9ce3f6u"><path d="M.47 2.3zm0-.92zm0-.93zm0-.92zm0-.92zm0-.92zm0-.92zm0-.93zm0-.92zm0-.92zm0-.94zm0-.92zm0-.92zM1.39 2.3zm0-.92zm0-.93zm0-.92zm0-4.6zm0-.93zm0-.94zm0-.92zm0-.92zM2.31 2.3zm0-.92zm0-.93zm0-1.84zm0-.92zm0-.92zm0-.93zm0-.92zm0-.92zm0-.94zm0-.92zm0-.92zM3.23 2.3zm0-.92zm0-.93zm0-1.84zm0-.92zm0-.92zm0-.93zm0-.92zm0-.92zm0-.94zm0-.92zm0-.92zM4.16 2.3zm0-.92zm0-.93zm0-1.84zm0-.92zm0-.92zm0-.93zm0-.92zm0-.92zm0-.94zm0-.92zm0-.92zM5.08 2.3zm0-.92zm0-.93zm0-.92zm0-4.6zm0-.93zm0-.94zm0-.92zm0-.92zM6 2.3zm0-.92zm0-.93zm0-.92zm0-.92zm0-.92zm0-.92zm0-.93zm0-.92zM6-6zm0-.94zm0-.92zm0-.92zM2.77 0v-.45-.47H1.85V0H2.76zm.92 0v-.45-.47H2.77V0H3.69zm.92 0v-.45-.47H3.69V0H4.6zM1.84-.92v-.45-.47H.92V-.92H1.84zm3.7 0v-.45-.47H4.6V-.92H5.53zm-3.7-.92v-.46-.47H.92V-1.84H1.84zm3.7 0v-.46-.47H4.6V-1.84H5.53zm-3.7-.93v-.45-.47H.92V-2.77H1.84zm3.7 0v-.45-.47H4.6V-2.77H5.53zm-3.7-.92v-.45-.47H.92V-3.69H1.84zm3.7 0v-.45-.47H4.6V-3.69H5.53zm0 0"/></symbol><symbol overflow="visible" id="fb9ce3f6v"><path d="M.47 2.3zm0-.92zm0-.93zm0-.92zm0-.92zm0-.92zm0-.92zm0-.93zm0-.92zm0-.92zm0-.94zm0-.92zm0-.92zM1.39 2.3zm0-.92zm0-.93zm0-1.84zm0-.92zm0-.92zm0-1.85zm0-.92zm0-.94zm0-.92zm0-.92zM2.31 2.3zm0-.92zm0-.93zm0-5.53zm0-.92zm0-.94zm0-.92zm0-.92zM3.23 2.3zm0-.92zm0-.93zm0-1.84zm0-.92zm0-1.85zm0-.92zm0-.92zm0-.94zm0-.92zm0-.92zM4.16 2.3zm0-.92zm0-.93zm0-.92zm0-.92zm0-.92zm0-.92zm0-1.85zm0-.92zm0-.94zm0-.92zm0-.92zM5.08 2.3zm0-.92zm0-.93zm0-.92zm0-.92zm0-.92zm0-2.77zm0-.92zm0-.94zm0-.92zm0-.92zM6 2.3zm0-.92zm0-.93zm0-.92zm0-.92zm0-.92zm0-.92zm0-.93zm0-.92zM6-6zm0-.94zm0-.92zm0-.92zM1.84 0v-.45-.47H.92V0H1.84zm.93 0v-.45-.47H1.85V0H2.76zm.92 0v-.45-.47H2.77V0H3.69zm-.92-.92v-.45-.47H1.85V-.92H2.76zm0-.92v-.46-.47H1.85V-1.84H2.76zm0-.93v-.45-.47H1.85V-2.77H2.76zm.92 0v-.45-.47H2.77V-2.77H3.69zm1.84 0v-.45-.47H4.61V-2.77H5.53zm-3.69-.92v-.45-.47H.92V-3.69H1.84zm.93 0v-.45-.47H1.85V-3.69H2.76zm1.84 0v-.45-.47H3.69V-3.69H4.6zm.92 0v-.45-.47H4.61V-3.69H5.53zm0 0"/></symbol><symbol overflow="visible" id="fb9ce3f6w"><path d="M.47 2.3zm0-.92zm0-.93zm0-.92zm0-.92zm0-.92zm0-.92zm0-.93zm0-.92zm0-.92zm0-.94zm0-.92zm0-.92zM1.39 2.3zm0-.92zm0-.93zm0-.92zm0-1.84zm0-.92zM1.4-6zm0-.94zm0-.92zm0-.92zM2.31 2.3zm0-.92zm0-.93zm0-1.84zm0-.92zm0-1.85zm0-.92zm0-1.86zm0-.92zm0-.92zM3.23 2.3zm0-.92zm0-.93zm0-1.84zm0-.92zm0-1.85zm0-.92zm0-1.86zm0-.92zm0-.92zM4.16 2.3zm0-.92zm0-.93zm0-1.84zm0-.92zm0-1.85zm0-.92zm0-1.86zm0-.92zm0-.92zM5.08 2.3zm0-.92zm0-.93zm0-.92zm0-2.76zm0-.93zm0-1.84zm0-.94zm0-.92zm0-.92zM6 2.3zm0-.92zm0-.93zm0-.92zm0-.92zm0-.92zm0-.92zm0-.93zm0-.92zM6-6zm0-.94zm0-.92zm0-.92zM2.77 0v-.45-.47H1.85V0H2.76zm.92 0v-.45-.47H2.77V0H3.69zm.92 0v-.45-.47H3.69V0H4.6zM1.84-.92v-.45-.47H.92V-.92H1.84zm3.7 0v-.45-.47H4.6V-.92H5.53zm0-.92v-.46-.47H4.6V-1.84H5.53zm-2.77-.93v-.45-.47H1.85V-2.77H2.76zm.92 0v-.45-.47H2.77V-2.77H3.69zm.92 0v-.45-.47H3.69V-2.77H4.6zm-2.77-.92v-.45-.47H.92V-3.69H1.84zm0-.92v-.45-.47H.92V-4.61H1.84zm3.7 0v-.45-.47H4.6V-4.61H5.53zm-2.77-.92v-.45-.47H1.85V-5.53H2.76zm.92 0v-.45-.47H2.77V-5.53H3.69zm.92 0v-.45-.47H3.69V-5.53H4.6zm0 0"/></symbol><symbol overflow="visible" id="fb9ce3f6x"><path d="M.47 2.3zm0-.92zm0-.93zm0-.92zm0-.92zm0-.92zm0-.92zm0-.93zm0-.92zm0-.92zm0-.94zm0-.92zm0-.92zM1.39 2.3zm0-6.46zm0-.92zm0-.92zm0-.94zm0-.92zm0-.92zM2.31 2.3zm0-.92zm0-.93zm0-1.84zm0-.92zm0-.92zm0-1.85zm0-.92zm0-.94zm0-.92zm0-.92zM3.23 2.3zm0-.92zm0-.93zm0-1.84zm0-.92zm0-.92zm0-1.85zm0-.92zm0-.94zm0-.92zm0-.92zM4.16 2.3zm0-.92zm0-.93zm0-1.84zm0-.92zm0-.92zm0-1.85zm0-.92zm0-.94zm0-.92zm0-.92zM5.08 2.3zm0-.92zm0-.93zm0-.92zm0-3.69zm0-.92zm0-.92zm0-.94zm0-.92zm0-.92zM6 2.3zm0-.92zm0-.93zm0-.92zm0-.92zm0-.92zm0-.92zm0-.93zm0-.92zM6-6zm0-.94zm0-.92zm0-.92zM1.84 1.84v-.47-.45H.92V1.84H1.84zm0-.92V.45 0H.92V.92H1.84zm0-.92v-.45-.47H.92V0H1.84zm.93 0v-.45-.47H1.85V0H2.76zm.92 0v-.45-.47H2.77V0H3.69zm.92 0v-.45-.47H3.69V0H4.6zM1.84-.92v-.45-.47H.92V-.92H1.84zm3.7 0v-.45-.47H4.6V-.92H5.53zm-3.7-.92v-.46-.47H.92V-1.84H1.84zm3.7 0v-.46-.47H4.6V-1.84H5.53zm-3.7-.93v-.45-.47H.92V-2.77H1.84zm3.7 0v-.45-.47H4.6V-2.77H5.53zm-2.77-.92v-.45-.47H1.85V-3.69H2.76zm.92 0v-.45-.47H2.77V-3.69H3.69zm.92 0v-.45-.47H3.69V-3.69H4.6zm0 0"/></symbol><symbol overflow="visible" id="fb9ce3f6y"><path d="M.47 2.3zm0-.92zm0-.93zm0-.92zm0-.92zm0-.92zm0-.92zm0-.93zm0-.92zm0-.92zm0-.94zm0-.92zm0-.92zM1.39 2.3zm0-.92zm0-.93zm0-1.84zm0-.92zm0-1.85zm0-.92zm0-.92zm0-.94zm0-.92zm0-.92zM2.31 2.3zm0-.92zm0-.93zm0-1.84zm0-1.84zm0-1.85zm0-.92zm0-.94zm0-.92zm0-.92zM3.23 2.3zm0-.92zm0-.93zm0-1.84zm0-1.84zm0-1.85zm0-.92zm0-.94zm0-.92zm0-.92zM4.16 2.3zm0-.92zm0-.93zm0-1.84zm0-1.84zm0-1.85zm0-.92zm0-.94zm0-.92zm0-.92zM5.08 2.3zm0-.92zm0-.93zm0-.92zm0-2.76zm0-1.85zm0-.92zm0-.94zm0-.92zm0-.92zM6 2.3zm0-.92zm0-.93zm0-.92zm0-.92zm0-.92zm0-.92zm0-.93zm0-.92zM6-6zm0-.94zm0-.92zm0-.92zM1.84 0v-.45-.47H.92V0H1.84zm.93 0v-.45-.47H1.85V0H2.76zm.92 0v-.45-.47H2.77V0H3.69zm.92 0v-.45-.47H3.69V0H4.6zm.92-.92v-.45-.47H4.61V-.92H5.53zm-2.76-.92v-.46-.47H1.85V-1.84H2.76zm.92 0v-.46-.47H2.77V-1.84H3.69zm.92 0v-.46-.47H3.69V-1.84H4.6zm.92 0v-.46-.47H4.61V-1.84H5.53zm-3.69-.93v-.45-.47H.92V-2.77H1.84zm.93-.92v-.45-.47H1.85V-3.69H2.76zm.92 0v-.45-.47H2.77V-3.69H3.69zm.92 0v-.45-.47H3.69V-3.69H4.6zm.92 0v-.45-.47H4.61V-3.69H5.53zm0 0"/></symbol><symbol overflow="visible" id="fb9ce3f6z"><path d="M.47 2.3zm0-.92zm0-.93zm0-.92zm0-.92zm0-.92zm0-.92zm0-.93zm0-.92zm0-.92zm0-.94zm0-.92zm0-.92zM1.39 2.3zm0-.92zm0-.93zm0-.92zm0-3.69zm0-.92zm0-.92zm0-.94zm0-.92zm0-.92zM2.31 2.3zm0-.92zm0-.93zm0-1.84zm0-.92zm0-.92zm0-1.85zm0-.92zm0-.94zm0-.92zm0-.92zM3.23 2.3zm0-.92zm0-.93zm0-1.84zm0-.92zm0-.92zm0-1.85zm0-.92zm0-.94zm0-.92zm0-.92zM4.16 2.3zm0-.92zm0-.93zm0-1.84zm0-.92zm0-.92zm0-1.85zm0-.92zm0-.94zm0-.92zm0-.92zM5.08 2.3zm0-.92zm0-.93zm0-1.84zm0-.92zm0-.92zm0-1.85zm0-.92zm0-.94zm0-.92zm0-.92zM6 2.3zm0-.92zm0-.93zm0-.92zm0-.92zm0-.92zm0-.92zm0-.93zm0-.92zM6-6zm0-.94zm0-.92zm0-.92zM2.77 0v-.45-.47H1.85V0H2.76zm.92 0v-.45-.47H2.77V0H3.69zm.92 0v-.45-.47H3.69V0H4.6zm.92 0v-.45-.47H4.61V0H5.53zM1.84-.92v-.45-.47H.92V-.92H1.84zm0-.92v-.46-.47H.92V-1.84H1.84zm0-.93v-.45-.47H.92V-2.77H1.84zm.93-.92v-.45-.47H1.85V-3.69H2.76zm.92 0v-.45-.47H2.77V-3.69H3.69zm.92 0v-.45-.47H3.69V-3.69H4.6zm.92 0v-.45-.47H4.61V-3.69H5.53zm0 0"/></symbol><symbol overflow="visible" id="fb9ce3f6A"><path d="M.47 2.3zm0-.92zm0-.93zm0-.92zm0-.92zm0-.92zm0-.92zm0-.93zm0-.92zm0-.92zm0-.94zm0-.92zm0-.92zM1.39 2.3zm0-.92zm0-.93zm0-1.84zm0-.92zm0-.92zm0-1.85zm0-.92zm0-.94zm0-.92zm0-.92zM2.31 2.3zm0-.92zm0-.93zm0-1.84zm0-.92zm0-.92zm0-1.85zm0-.92zm0-.94zm0-.92zm0-.92zM3.23 2.3zm0-.92zm0-.93zm0-5.53zm0-2.78zm0-.92zM4.16 2.3zm0-.92zm0-.93zm0-1.84zm0-.92zm0-.92zm0-.93zm0-.92zm0-.92zm0-.94zm0-.92zm0-.92zM5.08 2.3zm0-.92zm0-.93zm0-1.84zm0-.92zm0-.92zm0-.93zm0-.92zm0-.92zm0-.94zm0-.92zm0-.92zM6 2.3zm0-.92zm0-.93zm0-.92zm0-.92zm0-.92zm0-.92zm0-.93zm0-.92zM6-6zm0-.94zm0-.92zm0-.92zM1.84 0v-.45-.47H.92V0H1.84zm.93 0v-.45-.47H1.85V0H2.76zm.92 0v-.45-.47H2.77V0H3.69zm.92 0v-.45-.47H3.69V0H4.6zm.92 0v-.45-.47H4.61V0H5.53zM3.7-.92v-.45-.47H2.77V-.92H3.69zm0-.92v-.46-.47H2.77V-1.84H3.69zm0-.93v-.45-.47H2.77V-2.77H3.69zm-1.85-.92v-.45-.47H.92V-3.69H1.84zm.93 0v-.45-.47H1.85V-3.69H2.76zm.92 0v-.45-.47H2.77V-3.69H3.69zm0-1.84v-.45-.47H2.77V-5.53H3.69zm0-.94v-.45-.47H2.77V-6.47H3.69zm0 0"/></symbol><symbol overflow="visible" id="fb9ce3f6B"><path d="M.47 2.3zm0-.92zm0-.93zm0-.92zm0-.92zm0-.92zm0-.92zm0-.93zm0-.92zm0-.92zm0-.94zm0-.92zm0-.92zM1.39 2.3zm0-.92zm0-.93zm0-.92zm0-.92zm0-.92zm0-.92zm0-.93zm0-.92zm0-.92zm0-.94zm0-.92zm0-.92zM2.31 2.3zm0-.92zm0-.93zm0-.92zm0-.92zm0-.92zm0-.92zm0-.93zm0-.92zm0-.92zm0-.94zm0-.92zm0-.92zM3.23 2.3zm0-.92zm0-7.38zm0-.94zm0-.92zm0-.92zM4.16 2.3zm0-1.85zm0-.92zm0-.92zm0-.92zm0-.92zm0-.93zm0-.92zm0-1.86zm0-.92zm0-.92zM5.08 2.3zm0-.92zm0-.93zm0-.92zm0-.92zm0-.92zm0-.92zm0-.93zm0-.92zm0-.92zm0-.94zm0-.92zm0-.92zM6 2.3zm0-.92zm0-.93zm0-.92zm0-.92zm0-.92zm0-.92zm0-.93zm0-.92zM6-6zm0-.94zm0-.92zm0-.92zM4.6 1.84v-.47-.45H3.7V1.84H4.6zM3.7.92V.45 0H2.77V.92H3.69zm0-.92v-.45-.47H2.77V0H3.69zm0-.92v-.45-.47H2.77V-.92H3.69zm0-.92v-.46-.47H2.77V-1.84H3.69zm0-.93v-.45-.47H2.77V-2.77H3.69zm0-.92v-.45-.47H2.77V-3.69H3.69zm0-.92v-.45-.47H2.77V-4.61H3.69zm.92-.92v-.45-.47H3.69V-5.53H4.6zm0 0"/></symbol><symbol overflow="visible" id="fb9ce3f6C"><path d="M.47 2.3zm0-.92zm0-.93zm0-.92zm0-.92zm0-.92zm0-.92zm0-.93zm0-.92zm0-.92zm0-.94zm0-.92zm0-.92zM1.39 2.3zm0-.92zm0-.93zm0-.92zm0-.92zm0-.92zm0-.92zm0-.93zm0-.92zm0-.92zm0-.94zm0-.92zm0-.92zM2.31 2.3zm0-1.85zm0-.92zm0-.92zm0-.92zm0-.92zm0-.93zm0-.92zm0-1.86zm0-.92zm0-.92zM3.23 2.3zm0-.92zm0-7.38zm0-.94zm0-.92zm0-.92zM4.16 2.3zm0-.92zm0-.93zm0-.92zm0-.92zm0-.92zm0-.92zm0-.93zm0-.92zm0-.92zm0-.94zm0-.92zm0-.92zM5.08 2.3zm0-.92zm0-.93zm0-.92zm0-.92zm0-.92zm0-.92zm0-.93zm0-.92zm0-.92zm0-.94zm0-.92zm0-.92zM6 2.3zm0-.92zm0-.93zm0-.92zm0-.92zm0-.92zm0-.92zm0-.93zm0-.92zM6-6zm0-.94zm0-.92zm0-.92zM2.77 1.84v-.47-.45H1.85V1.84H2.76zm.92-.92V.45 0H2.77V.92H3.69zm0-.92v-.45-.47H2.77V0H3.69zm0-.92v-.45-.47H2.77V-.92H3.69zm0-.92v-.46-.47H2.77V-1.84H3.69zm0-.93v-.45-.47H2.77V-2.77H3.69zm0-.92v-.45-.47H2.77V-3.69H3.69zm0-.92v-.45-.47H2.77V-4.61H3.69zm-.92-.92v-.45-.47H1.85V-5.53H2.76zm0 0"/></symbol></defs><g fill="#ff81bf"><use xlink:href="#fb9ce3f6a" x="154.6154" y="152" fill-opacity=".3"/><use xlink:href="#fb9ce3f6b" x="203.0769" y="152"/><use xlink:href="#fb9ce3f6c" x="251.5385" y="152" fill-opacity=".3"/><use xlink:href="#fb9ce3f6d" x="300" y="152"/><use xlink:href="#fb9ce3f6e" x="348.4615" y="152" fill-opacity=".3"/><use xlink:href="#fb9ce3f6f" x="396.9231" y="152"/><use xlink:href="#fb9ce3f6g" x="261.2308" y="249"/><use xlink:href="#fb9ce3f6h" x="267.6928" y="249"/><use xlink:href="#fb9ce3f6i" x="274.1548" y="249"/><use xlink:href="#fb9ce3f6j" x="280.6168" y="249"/><use xlink:href="#fb9ce3f6k" x="287.0788" y="249"/><use xlink:href="#fb9ce3f6l" x="293.5408" y="249"/><use xlink:href="#fb9ce3f6m" x="300.0028" y="249"/><use xlink:href="#fb9ce3f6n" x="306.4648" y="249"/><use xlink:href="#fb9ce3f6o" x="312.9268" y="249"/><use xlink:href="#fb9ce3f6p" x="319.3888" y="249"/><use xlink:href="#fb9ce3f6q" x="325.8508" y="249"/><use xlink:href="#fb9ce3f6r" x="332.3128" y="249"/><g><use xlink:href="#fb9ce3f6l" x="338.7692" y="249"/></g><g><use xlink:href="#fb9ce3f6s" x="212.7692" y="265"/><use xlink:href="#fb9ce3f6h" x="219.2312" y="265"/><use xlink:href="#fb9ce3f6t" x="225.6932" y="265"/><use xlink:href="#fb9ce3f6j" x="232.1552" y="265"/><use xlink:href="#fb9ce3f6u" x="238.6172" y="265"/><use xlink:href="#fb9ce3f6v" x="245.0792" y="265"/><use xlink:href="#fb9ce3f6h" x="251.5412" y="265"/><use xlink:href="#fb9ce3f6k" x="258.0032" y="265"/><use xlink:href="#fb9ce3f6l" x="264.4652" y="265"/><use xlink:href="#fb9ce3f6w" x="270.9272" y="265"/><use xlink:href="#fb9ce3f6u" x="277.3892" y="265"/><use xlink:href="#fb9ce3f6x" x="283.8512" y="265"/><use xlink:href="#fb9ce3f6h" x="290.3132" y="265"/><use xlink:href="#fb9ce3f6v" x="296.7752" y="265"/><use xlink:href="#fb9ce3f6y" x="303.2372" y="265"/><use xlink:href="#fb9ce3f6z" x="309.6992" y="265"/><use xlink:href="#fb9ce3f6v" x="316.1612" y="265"/><use xlink:href="#fb9ce3f6A" x="322.6232" y="265"/><use xlink:href="#fb9ce3f6x" x="329.0852" y="265"/><use xlink:href="#fb9ce3f6j" x="335.5472" y="265"/><use xlink:href="#fb9ce3f6l" x="342.0092" y="265"/><use xlink:href="#fb9ce3f6B" x="348.4712" y="265"/><use xlink:href="#fb9ce3f6y" x="354.9332" y="265"/><use xlink:href="#fb9ce3f6u" x="361.3952" y="265"/><use xlink:href="#fb9ce3f6x" x="367.8572" y="265"/><use xlink:href="#fb9ce3f6y" x="374.3192" y="265"/><use xlink:href="#fb9ce3f6C" x="380.7812" y="265"/></g></g></svg>