<?xml version='1.0' encoding='UTF-8'?>
<svg xmlns="http://www.w3.org/2000/svg" xmlns:xlink="http://www.w3.org/1999/xlink" width="600px" height="300px" viewBox="0 0 600 300" x="0px" y="0px" enable-background="new 0 0 600 300"><defs><symbol overflow="visible" id="ace2a2e1a"><path d="M13.84-2.72a3.1 3.1 0 003.2 3.13 3.2 3.2 0 003.2-3.13v-33.84h8.8A2.89 2.89 0 0032-39.44c0-1.69-1.28-2.87-2.95-2.87H4.95a2.81 2.81 0 00-2.87 2.87c0 1.6 1.28 2.88 2.87 2.88h8.9zm0 0"/></symbol><symbol overflow="visible" id="ace2a2e1b"><path d="M21.92-43.05C9.36-43.05 4.64-32.56 4.64-21.2 4.64-9.44 9.44.72 21.92.72 34.48.72 39.28-9.44 39.28-21.2c0-11.36-4.72-21.85-17.36-21.85zm0 37.92c-8.15 0-10.87-7.51-10.87-16.07 0-7.93 2.3-16.08 10.87-16.08 8.56 0 10.88 8.16 10.88 16.08 0 8.56-2.72 16.07-10.88 16.07zm0 0"/></symbol><symbol overflow="visible" id="ace2a2e1c"><path d="M30.56-2.08A3.22 3.22 0 0033.7.41c1.75 0 3.19-1.13 3.19-2.97 0-.4-.16-1.28-.4-2L26.23-36.87c-.95-3.54-2.3-5.85-6.3-5.85s-5.37 2.31-6.34 5.84L3.36-4.55c-.23.8-.4 1.6-.4 2C2.95-.64 4.3.4 6.07.4 7.59.4 8.8-.56 9.2-2.08l2.49-8.08h16.39zm-10.8-34.64h.32l6.48 21.52H13.2zm0 0"/></symbol><symbol overflow="visible" id="ace2a2e1d"><path d="M6.48-3.13A3.2 3.2 0 009.68 0H28c1.6 0 2.88-1.28 2.88-2.88A2.89 2.89 0 0028-5.83H12.95V-39.6a3.2 3.2 0 00-3.26-3.13 3.14 3.14 0 00-3.2 3.13zm0 0"/></symbol><symbol overflow="visible" id="ace2a2e1e"><path d="M10.48-26.56c2.64 0 4.8-2.08 4.8-4.72a4.8 4.8 0 00-4.8-4.8 4.8 4.8 0 00-4.71 4.8 4.72 4.72 0 004.71 4.72zM5.77-4.8a4.72 4.72 0 004.71 4.72A4.76 4.76 0 105.76-4.8zm0 0"/></symbol><symbol overflow="visible" id="ace2a2e1g"><path d="M18.4.72c8.48 0 14.16-5.28 14.16-12.24 0-5.43-3.51-8.56-7.6-10.8 3.68-2.55 6.09-6 6.09-10.16 0-5.93-4.64-10.4-12.33-10.4C10.8-42.88 6-38.16 6-32.08c0 4.56 2.56 7.44 6.23 9.6-4.54 2.8-7.51 6.4-7.51 11.36C4.72-4.24 10.23.71 18.4.71zm-6.09-32.88c0-3.12 2.49-5.43 6.17-5.43 3.68 0 6.4 2.3 6.4 5.9 0 2.97-1.93 5.2-4.72 7.05-4-1.77-7.85-3.6-7.85-7.52zm6.25 27.6c-4.64 0-7.6-2.88-7.6-7.13 0-3.75 2.32-6.23 5.91-8.54 5.93 2.71 9.29 4.54 9.29 8.8 0 4-2.88 6.87-7.6 6.87zm0 0"/></symbol><symbol overflow="visible" id="ace2a2e1h"><path d="M13.36-36.48H26.8a2.95 2.95 0 002.97-2.96c0-1.6-1.36-2.87-2.97-2.87H10.72c-1.67 0-2.8 1.19-3.03 2.87l-2 14.4c-.17.73-.33 1.76-.33 2.32 0 1.77 1.36 3.2 3.28 3.2.48 0 1.2-.25 1.6-.32 1.92-.57 4.4-1.11 6.32-1.11 5.28 0 8.96 2.95 8.96 8.07 0 4.96-3.93 8.08-8.96 8.08-2.97 0-5.51-.89-8.56-2.33a3.23 3.23 0 00-1.2-.23 2.64 2.64 0 00-2.64 2.72c0 1.28.8 2.16 1.53 2.64C9.05-.08 13.69.72 17.05.72 25.12.72 32-4.41 32-12.95c0-8.1-5.77-13.2-14.72-13.2-1.84 0-4 .23-5.6.8zm0 0"/></symbol><symbol overflow="visible" id="ace2a2e1i"><path d="M3.77-2.95A2.95 2.95 0 006.72 0h20.8a2.9 2.9 0 002.96-2.95 2.9 2.9 0 00-2.96-2.9H20.8v-34.07a2.7 2.7 0 00-2.72-2.8h-1.03c-1.05 0-1.85.24-2.97.72l-8.4 4.16a2.8 2.8 0 00-1.52 2.48 2.68 2.68 0 002.64 2.72c.4 0 .8-.08 1.04-.23L14.41-36v30.16H6.7a2.94 2.94 0 00-2.94 2.89zm0 0"/></symbol><symbol overflow="visible" id="ace2a2e1j"><path d="M11.44-22.56c.64-8.57 5.51-13.13 16.08-14.72 1.84-.31 2.64-1.44 2.64-2.88 0-1.6-1.04-2.89-3.11-2.89-1.13 0-2 .25-3.77.49C9.92-40.16 4.72-29.92 4.72-19.2 4.72-5.28 10.88.72 20.16.72c8.8 0 13.76-6.72 13.76-14.16 0-8.4-6.08-12.72-12.97-12.72-3.75 0-7.36 1.6-9.51 3.6zm-.08 5.04a12.93 12.93 0 018.33-3.68c4.47 0 7.83 2.89 7.83 8.15 0 4.64-2.96 8.25-7.6 8.25-6 0-8.56-4.72-8.56-12.72zm0 0"/></symbol><symbol overflow="visible" id="ace2a2e1k"><path d="M3.83 0v-5.95H6.2v-.82H.45v.82h2.4V0zm0 0"/></symbol><symbol overflow="visible" id="ace2a2e1l"><path d="M5.75-2.23v-.43c0-1.6-.9-2.51-2.42-2.51S.87-4.16.87-2.48c0 1.71.91 2.62 2.5 2.62 1.43 0 2.07-.56 2.29-1.52l-.9-.09c-.18.61-.59.9-1.35.9-.94 0-1.52-.54-1.58-1.66zm-2.4-2.2c.93 0 1.43.5 1.48 1.55H1.84c.08-1.07.6-1.56 1.5-1.56zm0 0"/></symbol><symbol overflow="visible" id="ace2a2e1m"><path d="M1.83 0l1.42-2h.06l1.46 2H5.8L4-2.53l1.78-2.49H4.8L3.42-3.08h-.08l-1.4-1.94H.89l1.78 2.49L.84 0zm0 0"/></symbol><symbol overflow="visible" id="ace2a2e1n"><path d="M5.52-4.25v-.77H3.17v-1.56h-.81l-.14 1.56H.75v.77h1.47v2.4c0 1.3.48 1.94 1.84 1.94C4.6.1 5.14 0 5.55-.14L5.4-.91c-.32.13-.72.2-1.13.2-.8 0-1.1-.37-1.1-1.23v-2.31zm0 0"/></symbol><symbol overflow="visible" id="ace2a2e1o"><path d="M3.33-3.42c.47 0 .8-.27.8-.8 0-.51-.33-.8-.8-.8-.47 0-.8.29-.8.8 0 .53.33.8.8.8zm0 3.5c.47 0 .8-.27.8-.78 0-.53-.33-.82-.8-.82-.47 0-.8.29-.8.82 0 .51.33.78.8.78zm0 0"/></symbol><symbol overflow="visible" id="ace2a2e1q"><path d="M3.33.14c1.62 0 2.5-.95 2.5-2.66 0-1.68-.88-2.64-2.5-2.64-1.63 0-2.5.96-2.5 2.64 0 1.7.87 2.66 2.5 2.66zm0-.77c-1.06 0-1.52-.6-1.52-1.89 0-1.28.46-1.87 1.52-1.87 1.08 0 1.53.6 1.53 1.87 0 1.29-.45 1.9-1.53 1.9zm0 0"/></symbol><symbol overflow="visible" id="ace2a2e1r"><path d="M2.83.14c.94 0 1.5-.39 1.81-.95h.08l.1.81h.76v-3.38c0-1.23-.69-1.8-2.13-1.8-1.43 0-2.03.65-2.18 1.6l.93.1c.11-.6.44-.93 1.22-.93.85 0 1.22.32 1.22 1.04v.34l-1.81.2C1.6-2.7 1.1-2.17 1.1-1.28c0 .92.64 1.42 1.72 1.42zm.25-.77c-.67 0-1.02-.28-1.02-.74 0-.44.28-.72 1-.82l1.58-.19v.41c0 .8-.6 1.34-1.56 1.34zm0 0"/></symbol><symbol overflow="visible" id="ace2a2e1s"><path d="M3.92-7.14H1.36v.76h1.6v5.61H1.15V0H5.7v-.77H3.92zm0 0"/></symbol><symbol overflow="visible" id="ace2a2e1t"><path d="M3.33.16c1.69 0 2.69-.74 2.69-1.94 0-1.05-.8-1.58-1.43-1.72v-.05c.5-.14 1.2-.58 1.2-1.56 0-1.12-.95-1.81-2.46-1.81-1.52 0-2.46.69-2.46 1.81 0 .97.68 1.4 1.18 1.56v.05c-.6.14-1.4.64-1.4 1.72 0 1.2 1 1.94 2.68 1.94zm0-4.04c-.97 0-1.49-.43-1.49-1.12 0-.78.52-1.1 1.49-1.1.95 0 1.48.32 1.48 1.1 0 .69-.53 1.13-1.48 1.13zm0 3.24c-1.1 0-1.7-.42-1.7-1.25 0-.78.6-1.2 1.7-1.2s1.7.42 1.7 1.2c0 .83-.6 1.25-1.7 1.25zm0 0"/></symbol><symbol overflow="visible" id="ace2a2e1u"><path d="M3.42.14c1.55 0 2.44-.84 2.44-2.33 0-1.45-.83-2.22-2.14-2.22-.75 0-1.28.27-1.67.72H2l.31-2.22h3.11v-.86H1.53l-.45 3.93h.81c.3-.36.9-.79 1.58-.79.92 0 1.44.43 1.44 1.47 0 .99-.54 1.5-1.49 1.5-.83 0-1.28-.32-1.5-1.01l-.95.1C1.07-.46 2 .13 3.42.13zm0 0"/></symbol><symbol overflow="visible" id="ace2a2e1v"><path d="M4.22-6.77h-.86l-2.03.7v.87c.64-.17 1.26-.38 1.89-.55v4.9H1.03V0h4.9v-.86H4.21zm0 0"/></symbol><symbol overflow="visible" id="ace2a2e1w"><path d="M3.42.14c1.58 0 2.49-.86 2.49-2.3 0-1.42-.86-2.17-2.22-2.17-1.03 0-1.58.5-1.9 1.02h-.04c.03-1.63.4-2.77 1.73-2.77.91 0 1.24.44 1.36.96l.97-.11c-.23-.96-.86-1.68-2.33-1.68C1.84-6.9.86-5.86.86-3.1.86-.9 1.78.14 3.42.14zm.02-.78c-.9 0-1.47-.55-1.47-1.47 0-.9.7-1.47 1.53-1.47.92 0 1.47.52 1.47 1.47 0 .97-.6 1.47-1.53 1.47zm0 0"/></symbol><symbol overflow="visible" id="ace2a2e1x"><path d="M5.95-6.77H1.1V0h.99v-2.92H5.3v-.77H2.08v-2.26h3.87zm0 0"/></symbol><symbol overflow="visible" id="ace2a2e1y"><path d="M2.73.14c.9 0 1.43-.45 1.74-1.08h.06l.13.94h.8v-5.02h-.94v2.7c0 .98-.57 1.62-1.46 1.62-.75 0-1.1-.4-1.1-1.22v-3.1h-.93v3.32c0 1.17.55 1.84 1.7 1.84zm0 0"/></symbol><symbol overflow="visible" id="ace2a2e1z"><path d="M5.08-5.16c-.94 0-1.58.43-1.9 1.3h-.09l-.07-1.16H1.05v.77h1.1v3.48H.96V0h3.96v-.77H3.1v-1.46c0-1.36.6-2.05 1.83-2.05.4 0 .76.08 1.1.17l.15-.87c-.33-.11-.7-.18-1.11-.18zm0 0"/></symbol><symbol overflow="visible" id="ace2a2e1A"><path d="M3.42.14c1.61 0 2.56-.75 2.56-2 0-1.1-.67-1.6-1.95-1.86l-.97-.2c-.87-.17-1.23-.49-1.23-1.11 0-.7.54-1.11 1.5-1.11 1.06 0 1.51.34 1.69 1.23l.9-.09c-.17-1.28-.98-1.9-2.6-1.9C1.79-6.9.9-6.18.9-4.98c0 1.06.66 1.66 1.88 1.9l1.01.2c.85.17 1.25.4 1.25 1.09 0 .73-.6 1.16-1.6 1.16-1.07 0-1.66-.4-1.8-1.24l-.94.1C.83-.53 1.75.13 3.42.13zm0 0"/></symbol><symbol overflow="visible" id="ace2a2e1B"><path d="M1.63 0v-2.9c0-.8.15-1.4.71-1.4.41 0 .55.3.55.88V0h.95v-2.9c0-.8.18-1.4.72-1.4.4 0 .57.3.57.88V0h.95v-3.63c0-.92-.28-1.53-1.11-1.53-.63 0-.95.41-1.1.9h-.06c-.1-.52-.44-.9-1.08-.9-.6 0-.93.41-1.06.9H1.6l-.23-.76H.67V0zm0 0"/></symbol><symbol overflow="visible" id="ace2a2e1C"><path d="M5.33-2.2v-.75h-4v.75zm0 0"/></symbol><symbol overflow="visible" id="ace2a2e1D"><path d="M3.34.14c1.43 0 2.13-.66 2.25-1.78l-.89-.1c-.1.7-.5 1.08-1.34 1.08-1.03 0-1.52-.64-1.52-1.84 0-1.23.47-1.86 1.52-1.86.84 0 1.23.36 1.34 1.08l.9-.1c-.13-1.09-.82-1.78-2.26-1.78-1.56 0-2.46.97-2.46 2.66 0 1.66.9 2.64 2.46 2.64zm0 0"/></symbol><symbol overflow="visible" id="ace2a2e1E"><path d="M2.06 1.9V-.84h.05c.28.58.8.97 1.77.97 1.5 0 2.2-.98 2.2-2.66 0-1.65-.7-2.64-2.19-2.64-.97 0-1.5.44-1.78 1.05h-.08l-.1-.9H1.1v6.9zm1.5-2.56c-1.06 0-1.53-.8-1.53-1.86 0-1.04.47-1.84 1.53-1.84 1.11 0 1.53.61 1.53 1.84 0 1.27-.42 1.86-1.53 1.86zm0 0"/></symbol><symbol overflow="visible" id="ace2a2e1F"><path d="M2.16 0v-2.67c0-.99.59-1.63 1.46-1.63.74 0 1.07.38 1.07 1.22V0h.95v-3.31c0-1.2-.56-1.85-1.67-1.85-.92 0-1.49.46-1.77 1.08h-.06l-.12-.94H1.2V0zm0 0"/></symbol><symbol overflow="visible" id="ace2a2e1G"><path d="M3.36.16c1.4 0 2.2-.6 2.2-1.57 0-.89-.54-1.22-1.47-1.39L3-3c-.67-.14-.86-.33-.86-.73 0-.5.4-.74 1.17-.74.83 0 1.19.27 1.27.8l.9-.05c-.12-1-.8-1.47-2.17-1.47-1.34 0-2.1.53-2.1 1.5 0 .81.45 1.22 1.52 1.44l1.04.2c.56.11.87.24.87.72 0 .52-.45.78-1.28.78-.95 0-1.36-.28-1.42-.87l-.9.06C1.07-.36 1.8.16 3.35.16zm0 0"/></symbol><symbol overflow="visible" id="ace2a2e1H"><path d="M1.45-2.95c0 2.56 1.08 4.37 3.67 4.84l.11-.67C3.28.86 2.43-.75 2.43-2.95s.85-3.82 2.8-4.16l-.1-.69c-2.6.49-3.68 2.3-3.68 4.85zm0 0"/></symbol><symbol overflow="visible" id="ace2a2e1I"><path d="M5.67 0v-.86H2.14V-.9L3.6-2c1.05-.83 2-1.68 2-2.91 0-1.19-.73-1.99-2.26-1.99-1.66 0-2.3 1.02-2.44 2.33l1 .08c.1-.92.42-1.58 1.44-1.58.87 0 1.26.44 1.26 1.24 0 .9-.8 1.53-1.96 2.53L.83-.81V0zm0 0"/></symbol><symbol overflow="visible" id="ace2a2e1J"><path d="M1.45-7.1c1.96.33 2.8 1.94 2.8 4.15 0 2.2-.84 3.8-2.8 4.17l.11.67c2.58-.47 3.67-2.28 3.67-4.84 0-2.55-1.09-4.36-3.67-4.85zm0 0"/></symbol></defs><use xlink:href="#ace2a2e1a" x="118.92" y="164" fill="#515151"/><use xlink:href="#ace2a2e1b" x="151.4" y="164" fill="#515151"/><use xlink:href="#ace2a2e1a" x="193.72" y="164" fill="#515151"/><use xlink:href="#ace2a2e1c" x="224.52" y="164" fill="#515151"/><use xlink:href="#ace2a2e1d" x="264.36" y="164" fill="#515151"/><g fill="#515151"><use xlink:href="#ace2a2e1e" x="297.24" y="164"/><use xlink:href="#ace2a2e1f" x="318.36" y="164"/></g><use xlink:href="#ace2a2e1g" x="337.72" y="164" fill="#fff"/><use xlink:href="#ace2a2e1h" x="374.84" y="164" fill="#fff"/><use xlink:href="#ace2a2e1i" x="410.92" y="164" fill="#fff"/><use xlink:href="#ace2a2e1j" x="443.32" y="164" fill="#fff"/><g fill="#fff"><use xlink:href="#ace2a2e1k" x="243.3333" y="252"/><use xlink:href="#ace2a2e1l" x="250.0003" y="252"/><use xlink:href="#ace2a2e1m" x="256.6673" y="252"/><use xlink:href="#ace2a2e1n" x="263.3343" y="252"/><use xlink:href="#ace2a2e1o" x="270.0013" y="252"/><use xlink:href="#ace2a2e1p" x="276.6683" y="252"/><use xlink:href="#ace2a2e1k" x="283.3353" y="252"/><use xlink:href="#ace2a2e1q" x="290.0023" y="252"/><use xlink:href="#ace2a2e1n" x="296.6693" y="252"/><use xlink:href="#ace2a2e1r" x="303.3363" y="252"/><use xlink:href="#ace2a2e1s" x="310.0033" y="252"/><use xlink:href="#ace2a2e1o" x="316.6703" y="252"/><use xlink:href="#ace2a2e1p" x="323.3373" y="252"/><use xlink:href="#ace2a2e1t" x="330.0043" y="252"/><use xlink:href="#ace2a2e1u" x="336.6713" y="252"/><use xlink:href="#ace2a2e1v" x="343.3383" y="252"/><use xlink:href="#ace2a2e1w" x="350.0053" y="252"/></g><g fill="#fff"><use xlink:href="#ace2a2e1x" x="186.6667" y="266"/><use xlink:href="#ace2a2e1l" x="193.3337" y="266"/><use xlink:href="#ace2a2e1r" x="200.0007" y="266"/><use xlink:href="#ace2a2e1n" x="206.6677" y="266"/><use xlink:href="#ace2a2e1y" x="213.3347" y="266"/><use xlink:href="#ace2a2e1z" x="220.0017" y="266"/><use xlink:href="#ace2a2e1l" x="226.6687" y="266"/><use xlink:href="#ace2a2e1o" x="233.3357" y="266"/><use xlink:href="#ace2a2e1p" x="240.0027" y="266"/><use xlink:href="#ace2a2e1A" x="246.6697" y="266"/><use xlink:href="#ace2a2e1B" x="253.3367" y="266"/><use xlink:href="#ace2a2e1r" x="260.0037" y="266"/><use xlink:href="#ace2a2e1s" x="266.6707" y="266"/><use xlink:href="#ace2a2e1s" x="273.3377" y="266"/><use xlink:href="#ace2a2e1C" x="280.0047" y="266"/><use xlink:href="#ace2a2e1D" x="286.6717" y="266"/><use xlink:href="#ace2a2e1r" x="293.3387" y="266"/><use xlink:href="#ace2a2e1E" x="300.0057" y="266"/><use xlink:href="#ace2a2e1p" x="306.6727" y="266"/><use xlink:href="#ace2a2e1F" x="313.3397" y="266"/><use xlink:href="#ace2a2e1y" x="320.0067" y="266"/><use xlink:href="#ace2a2e1B" x="326.6737" y="266"/><use xlink:href="#ace2a2e1l" x="333.3407" y="266"/><use xlink:href="#ace2a2e1z" x="340.0077" y="266"/><use xlink:href="#ace2a2e1r" x="346.6747" y="266"/><use xlink:href="#ace2a2e1s" x="353.3417" y="266"/><use xlink:href="#ace2a2e1G" x="360.0087" y="266"/><use xlink:href="#ace2a2e1p" x="366.6757" y="266"/><use xlink:href="#ace2a2e1H" x="373.3427" y="266"/><use xlink:href="#ace2a2e1D" x="380.0097" y="266"/><use xlink:href="#ace2a2e1I" x="386.6767" y="266"/><use xlink:href="#ace2a2e1G" x="393.3437" y="266"/><use xlink:href="#ace2a2e1D" x="400.0107" y="266"/><use xlink:href="#ace2a2e1J" x="406.6777" y="266"/></g></svg>