<?xml version='1.0' encoding='UTF-8'?>
<svg xmlns="http://www.w3.org/2000/svg" xmlns:xlink="http://www.w3.org/1999/xlink" width="600px" height="300px" viewBox="0 0 600 300" x="0px" y="0px" enable-background="new 0 0 600 300"><defs><symbol overflow="visible" id="3e7a5e06a"><path d="M11.2-17.77h22.16c1.52 0 2.64-.71 2.64-3.59 0-11.52-4.88-18.08-15.2-18.08-10.57 0-16.32 7.52-16.32 20C4.48-7.36 10.16.8 22.16.8c2.8 0 7.43-.64 10.4-2.08 1.28-.72 2.49-1.44 2.49-2.88 0-1.28-.97-2.56-2.74-2.56-1.26 0-2.47.56-3.9.95-1.93.57-4 1.05-6.25 1.05-7.85 0-10.96-5.69-10.96-13.05zm0-4.64c.4-6.23 3.36-11.51 9.6-11.51 6.64 0 8.8 4.8 8.97 11.51zm0 0"/></symbol><symbol overflow="visible" id="3e7a5e06b"><path d="M6.64-2.95C6.64-1.05 8.08.4 10 .4a3.29 3.29 0 003.36-3.36V-29.7c2.87-2.39 6.48-4.23 9.44-4.23 5.43 0 7.76 2.97 7.76 9.05v21.92C30.56-1.05 32 .4 33.92.4a3.29 3.29 0 003.36-3.36v-21.93c0-10.89-5.36-14.56-13.2-14.56-3.52 0-8 1.92-11.52 5.13l-.64-2.49c-.33-1.28-1.28-2.25-3.04-2.25-2 0-3.04 1.46-3.04 3.2 0 1.2.8 3.37.8 6.9zm0 0"/></symbol><symbol overflow="visible" id="3e7a5e06c"><path d="M27.52-37.77a17.23 17.23 0 00-7.75-1.67C10.16-39.44 4.95-34 4.95-26.4c0 3.85 1.36 6.82 3.61 8.97-2.15 1.92-3.04 4.16-3.04 6.32 0 3.35 1.92 7.28 9.12 8.24l8.95 1.2c4.72.55 7.13 2.88 7.13 6 0 3.52-3.03 6.55-10.24 6.55-4.48 0-9.12-1.35-11.6-2.87L8.4 3.6A3.2 3.2 0 005.2.86c-1.93 0-2.98 1.61-2.8 3.44l.39 4.17c.15 1.52.8 3.04 2.48 4.24 2.88 2 9.84 3.51 15.28 3.51 10.49 0 17.03-4.71 17.03-11.92 0-5.67-4-10.08-12.72-11.1l-8.3-1.13c-3.05-.31-4.8-1.36-4.8-3.77 0-.95.3-2 1.43-3.1 1.93.95 4.24 1.35 6.57 1.35 9.59 0 14.87-5.76 14.87-12.97 0-2.87-.87-5.28-2.33-7.36L38.23-38c.65-.4 1.29-1.2 1.29-2.31 0-1.38-1.04-3.05-2.96-3.05-.8 0-1.28.31-1.69.64zm-7.75 3.85c5.1 0 8.07 3.2 8.07 7.36 0 4.25-2.96 7.6-8.07 7.6-5.05 0-8-3.35-8-7.6 0-4.16 2.95-7.36 8-7.36zm0 0"/></symbol><symbol overflow="visible" id="3e7a5e06d"><path d="M3.13-2.8C3.13-1.28 4.3 0 5.92 0h20.71c1.6 0 2.8-1.28 2.8-2.8 0-1.6-1.2-2.89-2.8-2.89H19.7v-30.08c0-1.59-1.28-2.87-2.9-2.87H6.17a2.8 2.8 0 00-2.8 2.87c0 1.54 1.2 2.72 2.8 2.72h6.8v27.36H5.91a2.8 2.8 0 00-2.8 2.9zm11.43-42.25a4.68 4.68 0 004.72-4.72 4.68 4.68 0 00-4.72-4.71 4.68 4.68 0 00-4.72 4.71 4.68 4.68 0 004.72 4.72zm0 0"/></symbol><symbol overflow="visible" id="3e7a5e06e"><path d="M3.13-2.88A2.8 2.8 0 005.92 0H28c1.6 0 2.8-1.28 2.8-2.8 0-1.6-1.2-2.89-2.8-2.89h-9.05v-23.1c2.49-1.85 8.33-4.5 12.18-4.73l.95 7.04c.23 1.36 1.2 2.56 2.97 2.56 1.6 0 2.95-1.28 2.8-3.2l-.8-9.6c-.17-1.69-1.61-2.72-3.46-2.72-5.67 0-11.36 2.31-15.9 5.28l-.57-2.48c-.25-1.13-1.12-2-2.32-2H6.16a2.8 2.8 0 00-2.8 2.87c0 1.54 1.2 2.72 2.8 2.72h6.07v27.36h-6.3c-1.62 0-2.8 1.28-2.8 2.82zm0 0"/></symbol><symbol overflow="visible" id="3e7a5e06f"><path d="M3.83 0v-5.95H6.2v-.82H.45v.82h2.4V0zm0 0"/></symbol><symbol overflow="visible" id="3e7a5e06g"><path d="M5.75-2.23v-.43c0-1.6-.9-2.51-2.42-2.51S.87-4.16.87-2.48c0 1.71.91 2.62 2.5 2.62 1.43 0 2.07-.56 2.29-1.52l-.9-.09c-.18.61-.59.9-1.35.9-.94 0-1.52-.54-1.58-1.66zm-2.4-2.2c.93 0 1.43.5 1.48 1.55H1.84c.08-1.07.6-1.56 1.5-1.56zm0 0"/></symbol><symbol overflow="visible" id="3e7a5e06h"><path d="M1.83 0l1.42-2h.06l1.46 2H5.8L4-2.53l1.78-2.49H4.8L3.42-3.08h-.08l-1.4-1.94H.89l1.78 2.49L.84 0zm0 0"/></symbol><symbol overflow="visible" id="3e7a5e06i"><path d="M5.52-4.25v-.77H3.17v-1.56h-.81l-.14 1.56H.75v.77h1.47v2.4c0 1.3.48 1.94 1.84 1.94C4.6.1 5.14 0 5.55-.14L5.4-.91c-.32.13-.72.2-1.13.2-.8 0-1.1-.37-1.1-1.23v-2.31zm0 0"/></symbol><symbol overflow="visible" id="3e7a5e06j"><path d="M3.33-3.42c.47 0 .8-.27.8-.8 0-.51-.33-.8-.8-.8-.47 0-.8.29-.8.8 0 .53.33.8.8.8zm0 3.5c.47 0 .8-.27.8-.78 0-.53-.33-.82-.8-.82-.47 0-.8.29-.8.82 0 .51.33.78.8.78zm0 0"/></symbol><symbol overflow="visible" id="3e7a5e06l"><path d="M2.16 0v-2.67c0-.99.59-1.63 1.46-1.63.74 0 1.07.38 1.07 1.22V0h.95v-3.31c0-1.2-.56-1.85-1.67-1.85-.92 0-1.49.46-1.77 1.08h-.06l-.12-.94H1.2V0zm0 0"/></symbol><symbol overflow="visible" id="3e7a5e06m"><path d="M3.16 2.03c1.67 0 2.4-.86 2.4-2.51v-4.54h-.81l-.13.91h-.06c-.26-.58-.8-1.05-1.73-1.05-1.42 0-2.24 1-2.24 2.52 0 1.6.75 2.56 2.2 2.56.94 0 1.5-.5 1.77-1.03h.05v.72c0 1.17-.42 1.67-1.45 1.67-.93 0-1.3-.34-1.41-.89L.8.5c.12.96.87 1.54 2.36 1.54zM3.06-.8c-.98 0-1.48-.57-1.48-1.82 0-1.13.5-1.75 1.48-1.75 1.06 0 1.58.76 1.58 1.75 0 .95-.56 1.82-1.58 1.82zm0 0"/></symbol><symbol overflow="visible" id="3e7a5e06n"><path d="M3.58-5.81c.42 0 .72-.22.72-.67 0-.44-.3-.68-.72-.68-.44 0-.72.24-.72.68 0 .45.28.67.72.67zm.5.8H1.52v.76h1.6v3.48h-1.8V0h4.46v-.77h-1.7zm0 0"/></symbol><symbol overflow="visible" id="3e7a5e06o"><path d="M5.08-5.16c-.94 0-1.58.43-1.9 1.3h-.09l-.07-1.16H1.05v.77h1.1v3.48H.96V0h3.96v-.77H3.1v-1.46c0-1.36.6-2.05 1.83-2.05.4 0 .76.08 1.1.17l.15-.87c-.33-.11-.7-.18-1.11-.18zm0 0"/></symbol><symbol overflow="visible" id="3e7a5e06p"><path d="M5.95-6.77H1.1V0h.99v-2.92H5.3v-.77H2.08v-2.26h3.87zm0 0"/></symbol><symbol overflow="visible" id="3e7a5e06q"><path d="M2.83.14c.94 0 1.5-.39 1.81-.95h.08l.1.81h.76v-3.38c0-1.23-.69-1.8-2.13-1.8-1.43 0-2.03.65-2.18 1.6l.93.1c.11-.6.44-.93 1.22-.93.85 0 1.22.32 1.22 1.04v.34l-1.81.2C1.6-2.7 1.1-2.17 1.1-1.28c0 .92.64 1.42 1.72 1.42zm.25-.77c-.67 0-1.02-.28-1.02-.74 0-.44.28-.72 1-.82l1.58-.19v.41c0 .8-.6 1.34-1.56 1.34zm0 0"/></symbol><symbol overflow="visible" id="3e7a5e06r"><path d="M2.73.14c.9 0 1.43-.45 1.74-1.08h.06l.13.94h.8v-5.02h-.94v2.7c0 .98-.57 1.62-1.46 1.62-.75 0-1.1-.4-1.1-1.22v-3.1h-.93v3.32c0 1.17.55 1.84 1.7 1.84zm0 0"/></symbol><symbol overflow="visible" id="3e7a5e06s"><path d="M6.17 0L3.98-6.77h-1.3L.5 0h.97l.44-1.47h2.78L5.16 0zM3.28-5.94h.08l1.1 3.74H2.15zm0 0"/></symbol><symbol overflow="visible" id="3e7a5e06t"><path d="M3.92-7.14H1.36v.76h1.6v5.61H1.15V0H5.7v-.77H3.92zm0 0"/></symbol><symbol overflow="visible" id="3e7a5e06u"><path d="M3.9 0l2-5.02h-.96L3.4-.94h-.07L1.8-5.02H.77L2.78 0zm0 0"/></symbol><symbol overflow="visible" id="3e7a5e06v"><path d="M4.63-6.5c.45 0 .98.08 1.39.2l.2-.72a5.3 5.3 0 00-1.64-.26c-1.52 0-2.16.56-2.16 1.87v.4H.9v.76h1.53V0h.94v-4.25h2.53v-.77H3.36v-.3c0-.84.33-1.18 1.27-1.18zm0 0"/></symbol><symbol overflow="visible" id="3e7a5e06w"><path d="M3.33.14c1.62 0 2.5-.95 2.5-2.66 0-1.68-.88-2.64-2.5-2.64-1.63 0-2.5.96-2.5 2.64 0 1.7.87 2.66 2.5 2.66zm0-.77c-1.06 0-1.52-.6-1.52-1.89 0-1.28.46-1.87 1.52-1.87 1.08 0 1.53.6 1.53 1.87 0 1.29-.45 1.9-1.53 1.9zm0 0"/></symbol><symbol overflow="visible" id="3e7a5e06x"><path d="M1.63 0v-2.9c0-.8.15-1.4.71-1.4.41 0 .55.3.55.88V0h.95v-2.9c0-.8.18-1.4.72-1.4.4 0 .57.3.57.88V0h.95v-3.63c0-.92-.28-1.53-1.11-1.53-.63 0-.95.41-1.1.9h-.06c-.1-.52-.44-.9-1.08-.9-.6 0-.93.41-1.06.9H1.6l-.23-.76H.67V0zm0 0"/></symbol><symbol overflow="visible" id="3e7a5e06y"><path d="M3.38-5.9c.12-.5.42-1.04.67-1.41l-.63-.22a4.28 4.28 0 00-1.01 2.39c0 .66.3 1 .9 1 .6 0 .9-.33.9-.9 0-.57-.32-.83-.83-.85zm0 0"/></symbol><symbol overflow="visible" id="3e7a5e06z"><path d="M3.3-7.53c-.55 0-.85.3-.85.84 0 .55.36.8.83.8h.03a5.1 5.1 0 01-.69 1.47l.52.23a4.29 4.29 0 001.02-2.4c0-.63-.33-.94-.86-.94zm0 0"/></symbol><symbol overflow="visible" id="3e7a5e06A"><path d="M1.45-2.95c0 2.56 1.08 4.37 3.67 4.84l.11-.67C3.28.86 2.43-.75 2.43-2.95s.85-3.82 2.8-4.16l-.1-.69c-2.6.49-3.68 2.3-3.68 4.85zm0 0"/></symbol><symbol overflow="visible" id="3e7a5e06B"><path d="M3.36.16c1.4 0 2.2-.6 2.2-1.57 0-.89-.54-1.22-1.47-1.39L3-3c-.67-.14-.86-.33-.86-.73 0-.5.4-.74 1.17-.74.83 0 1.19.27 1.27.8l.9-.05c-.12-1-.8-1.47-2.17-1.47-1.34 0-2.1.53-2.1 1.5 0 .81.45 1.22 1.52 1.44l1.04.2c.56.11.87.24.87.72 0 .52-.45.78-1.28.78-.95 0-1.36-.28-1.42-.87l-.9.06C1.07-.36 1.8.16 3.35.16zm0 0"/></symbol><symbol overflow="visible" id="3e7a5e06C"><path d="M3.33.14c1.65 0 2.6-1.1 2.6-3.52S4.99-6.9 3.34-6.9C1.67-6.9.72-5.8.72-3.37c0 2.4.95 3.51 2.6 3.51zm0-.84c-1.13 0-1.6-.85-1.6-2.67 0-1.86.47-2.7 1.6-2.7 1.12 0 1.6.84 1.6 2.7 0 1.82-.48 2.67-1.6 2.67zM3.3-2.64c.38 0 .56-.28.56-.72 0-.44-.18-.7-.56-.7-.39 0-.56.26-.56.7 0 .44.17.72.56.72zm0 0"/></symbol><symbol overflow="visible" id="3e7a5e06D"><path d="M3.25.14c1.58 0 2.53-.69 2.53-1.95 0-1.19-.92-1.56-1.6-1.61v-.05A1.6 1.6 0 005.6-5.12c0-1.13-.87-1.79-2.3-1.79-1.62 0-2.32.82-2.45 1.88l.97.06c.13-.69.52-1.1 1.47-1.1.86 0 1.35.32 1.35 1.05 0 .86-.6 1.2-1.66 1.2h-.49v.79h.54c1.12 0 1.78.25 1.78 1.14 0 .78-.46 1.22-1.55 1.22-1.06 0-1.48-.4-1.63-1.1l-.98.07C.75-.56 1.56.14 3.25.14zm0 0"/></symbol><symbol overflow="visible" id="3e7a5e06E"><path d="M1.45-7.1c1.96.33 2.8 1.94 2.8 4.15 0 2.2-.84 3.8-2.8 4.17l.11.67c2.58-.47 3.67-2.28 3.67-4.84 0-2.55-1.09-4.36-3.67-4.85zm0 0"/></symbol></defs><g fill="#515151"><use xlink:href="#3e7a5e06a" x="82" y="164"/><use xlink:href="#3e7a5e06b" x="122.24" y="164"/></g><use xlink:href="#3e7a5e06c" x="165.6" y="164" fill="#fff"/><g fill="#515151"><use xlink:href="#3e7a5e06d" x="207.28" y="164"/><use xlink:href="#3e7a5e06b" x="238.08" y="164"/><use xlink:href="#3e7a5e06a" x="281.44" y="164"/><use xlink:href="#3e7a5e06a" x="321.68" y="164"/><use xlink:href="#3e7a5e06e" x="361.92" y="164"/><use xlink:href="#3e7a5e06d" x="402.16" y="164"/><use xlink:href="#3e7a5e06b" x="432.96" y="164"/></g><use xlink:href="#3e7a5e06c" x="476.32" y="164" fill="#fff"/><g fill="#fff"><use xlink:href="#3e7a5e06f" x="243.3333" y="252"/><use xlink:href="#3e7a5e06g" x="250.0003" y="252"/><use xlink:href="#3e7a5e06h" x="256.6673" y="252"/><use xlink:href="#3e7a5e06i" x="263.3343" y="252"/><use xlink:href="#3e7a5e06j" x="270.0013" y="252"/><use xlink:href="#3e7a5e06k" x="276.6683" y="252"/><use xlink:href="#3e7a5e06g" x="283.3353" y="252"/><use xlink:href="#3e7a5e06l" x="290.0023" y="252"/><use xlink:href="#3e7a5e06m" x="296.6693" y="252"/><use xlink:href="#3e7a5e06n" x="303.3363" y="252"/><use xlink:href="#3e7a5e06l" x="310.0033" y="252"/><use xlink:href="#3e7a5e06g" x="316.6703" y="252"/><use xlink:href="#3e7a5e06g" x="323.3373" y="252"/><use xlink:href="#3e7a5e06o" x="330.0043" y="252"/><use xlink:href="#3e7a5e06n" x="336.6713" y="252"/><use xlink:href="#3e7a5e06l" x="343.3383" y="252"/><use xlink:href="#3e7a5e06m" x="350.0053" y="252"/></g><g fill="#fff"><use xlink:href="#3e7a5e06p" x="170" y="266"/><use xlink:href="#3e7a5e06g" x="176.667" y="266"/><use xlink:href="#3e7a5e06q" x="183.334" y="266"/><use xlink:href="#3e7a5e06i" x="190.001" y="266"/><use xlink:href="#3e7a5e06r" x="196.668" y="266"/><use xlink:href="#3e7a5e06o" x="203.335" y="266"/><use xlink:href="#3e7a5e06g" x="210.002" y="266"/><use xlink:href="#3e7a5e06j" x="216.669" y="266"/><use xlink:href="#3e7a5e06k" x="223.336" y="266"/><use xlink:href="#3e7a5e06s" x="230.003" y="266"/><use xlink:href="#3e7a5e06t" x="236.67" y="266"/><use xlink:href="#3e7a5e06i" x="243.337" y="266"/><use xlink:href="#3e7a5e06g" x="250.004" y="266"/><use xlink:href="#3e7a5e06o" x="256.671" y="266"/><use xlink:href="#3e7a5e06l" x="263.338" y="266"/><use xlink:href="#3e7a5e06q" x="270.005" y="266"/><use xlink:href="#3e7a5e06i" x="276.672" y="266"/><use xlink:href="#3e7a5e06n" x="283.339" y="266"/><use xlink:href="#3e7a5e06u" x="290.006" y="266"/><use xlink:href="#3e7a5e06g" x="296.673" y="266"/><use xlink:href="#3e7a5e06k" x="303.34" y="266"/><use xlink:href="#3e7a5e06v" x="310.007" y="266"/><use xlink:href="#3e7a5e06w" x="316.674" y="266"/><use xlink:href="#3e7a5e06o" x="323.341" y="266"/><use xlink:href="#3e7a5e06x" x="330.008" y="266"/><use xlink:href="#3e7a5e06k" x="336.675" y="266"/><use xlink:href="#3e7a5e06w" x="343.342" y="266"/><use xlink:href="#3e7a5e06v" x="350.009" y="266"/><use xlink:href="#3e7a5e06k" x="356.676" y="266"/><use xlink:href="#3e7a5e06y" x="363.343" y="266"/><use xlink:href="#3e7a5e06m" x="370.01" y="266"/><use xlink:href="#3e7a5e06z" x="376.677" y="266"/><use xlink:href="#3e7a5e06k" x="383.344" y="266"/><use xlink:href="#3e7a5e06A" x="390.011" y="266"/><use xlink:href="#3e7a5e06B" x="396.678" y="266"/><use xlink:href="#3e7a5e06B" x="403.345" y="266"/><use xlink:href="#3e7a5e06C" x="410.012" y="266"/><use xlink:href="#3e7a5e06D" x="416.679" y="266"/><use xlink:href="#3e7a5e06E" x="423.346" y="266"/></g></svg>