<?xml version='1.0' encoding='UTF-8'?>
<svg xmlns="http://www.w3.org/2000/svg" xmlns:xlink="http://www.w3.org/1999/xlink" width="1440px" height="480px" viewBox="0 0 1440 480" y="0px" x="0px" enable-background="new 0 0 1440 480"><defs><symbol overflow="visible" id="3b16bf55a"><path d="M30.89-4.281c0 3.062 2.438 5.5 5.5 5.5 3.36 0 5.813-2.438 5.813-5.5v-185.922h91.125V-4.281c0 3.062 2.438 5.5 5.5 5.5 3.36 0 5.813-2.438 5.813-5.5v-190.5c0-3.063-2.453-5.5-5.813-5.5H36.391a5.468 5.468 0 0 0-5.5 5.5zm0 0"/></symbol><symbol overflow="visible" id="3b16bf55b"><path d="M62.688-6.734c0 4.593 3.671 7.953 7.953 7.953 4.578 0 8.25-3.36 8.25-7.953v-180.407h47.39c3.985 0 7.047-3.359 7.047-7.343 0-3.657-3.062-7.032-7.047-7.032H15.297c-3.985 0-7.047 3.375-7.047 7.032 0 3.984 3.063 7.343 7.047 7.343h47.39zm0 0"/></symbol><symbol overflow="visible" id="3b16bf55c"><path d="M117.719-174.297l1.531 14.375c1.531 9.781 7.656 15.906 16.516 15.906 8.875 0 17.125-5.515 16.203-19.578L150.14-185c-.922-13.453-7.032-21.094-22.625-21.094H39.453c-13.469 0-24.156 9.469-24.156 22.016 0 7.344 3.36 12.234 7.031 17.422l41.578 63.906-45.25 63.297c-3.672 4.594-7.031 10.094-7.031 17.75C11.625-9.172 22.328 0 35.781 0h94.781c15.594 0 21.72-7.344 22.641-21.094l1.828-21.406c.922-13.766-7.344-19.578-16.203-19.578-8.875 0-14.984 6.125-16.203 16.203L121.094-31.5H55.047l41.578-58.094c2.75-3.969 5.203-7.953 5.203-13.156 0-5.5-2.453-9.781-4.89-13.453l-38.844-58.094zm0 0"/></symbol><symbol overflow="visible" id="3b16bf55d"><path d="M23.547-17.734C23.547-7.641 31.5 0 41.28 0h93.266c8.562 0 15.594-7.031 15.594-15.906 0-8.563-7.032-15.594-15.594-15.594H59.328v-59.016h58.39c8.876 0 15.907-7.328 15.907-15.89 0-8.563-7.031-15.594-15.906-15.594h-58.39v-52.297h74.905c8.563 0 15.907-7.344 15.907-15.906 0-8.563-7.344-15.89-15.907-15.89H41.281c-9.781 0-17.734 7.952-17.734 17.734zm0 0"/></symbol><symbol overflow="visible" id="3b16bf55e"><path d="M74.922 0c12.844 0 23.547-10.39 23.547-22.938 0-8.859-5.516-17.734-10.094-25.062-13.453-19.266-30.281-30.578-30.281-72.484 0-34.547 24.468-54.11 50.156-54.11s50.453 19.563 50.453 54.11c0 41.906-17.125 53.218-30.281 72.484-4.578 7.328-10.39 16.203-10.39 25.063C118.031-10.392 129.046 0 141.577 0h43.11c9.796 0 18.046-8.25 18.046-18.047 0-9.781-8.25-18.031-18.047-18.031h-26.906c24.469-25.39 41.281-51.063 41.281-83.484 0-51.063-33.015-90.813-90.812-90.813s-90.516 39.75-90.516 90.813c0 32.421 16.813 58.093 40.97 83.484H32.108c-10.093 0-18.047 8.25-18.047 18.031C14.063-8.25 22.328 0 32.11 0zm0 0"/></symbol><symbol overflow="visible" id="3b16bf55f"><path d="M20.797-20.484C20.797-8.25 30.89 2.14 43.422 2.14c12.844 0 22.937-10.391 22.937-22.625V-116.5h1.22l62.984 104.578c5.203 8.86 14.078 14.063 24.78 14.063 15.595 0 24.766-11.016 24.766-22.625V-187.75c0-12.531-10.406-22.625-22.625-22.625-12.234 0-22.64 10.39-22.64 22.625v99.078h-1.219l-63.594-107.64c-5.203-8.86-13.765-14.063-24.469-14.063-14.984 0-24.765 10.39-24.765 22.625zm0 0"/></symbol></defs><path d="M0 480h1439.875V0H0zm0 0" fill="#6188e8"/><use xlink:href="#3b16bf55a" x="63.4893" y="345.0127" fill="#1b1b1b"/><use xlink:href="#3b16bf55b" x="248.18193" y="345.0127" fill="#1b1b1b"/><path d="M425.535 152.676c0-7.34 5.504-12.844 12.844-12.844s12.844 5.504 12.844 12.844v76.75h77.972v-76.75c0-7.34 5.504-12.844 12.844-12.844s12.844 5.504 12.844 12.844v181.023c0 7.34-5.504 12.844-12.844 12.844s-12.844-5.504-12.844-12.844v-81.644h-77.972v81.644c0 7.34-5.504 12.844-12.844 12.844s-12.844-5.504-12.844-12.844zm0 0" fill="#1b1b1b"/><use xlink:href="#3b16bf55c" x="590.6582" y="345.0127" fill="#1b1b1b"/><use xlink:href="#3b16bf55d" x="768.623615" y="345.0127" fill="#1b1b1b"/><use xlink:href="#3b16bf55e" x="940.7461" y="345.0127" fill="#1b1b1b"/><use xlink:href="#3b16bf55f" x="1166.719367" y="345.0127" fill="#1b1b1b"/><path d="M60.316 83.121l3.977-3.39-5.211.425.867-5.156-3.719 3.676-2.648-4.508-.484 5.21-4.93-1.753 2.977 4.305-4.899 1.824 5.043 1.383-2.578 4.55 4.75-2.187.95 5.145 2.234-4.73 4.035 3.331-1.328-5.058 5.23-.043zm0 0M374.441 381.863l-1.343 2.586 1.57 2.453 2.91-.129 1.344-2.586-1.57-2.457zm0 0M403.254 401.078l-1.895.652-.379 1.97 1.512 1.308 1.895-.653.379-1.968zm0 0M154.336 47.238l1.3 3.563 3.919.71 2.61-2.843-1.306-3.563-3.914-.714zm0 0M179.73 427.906l5.149 2.52 4.883-2.95-.258-5.472-5.145-2.527-4.89 2.953zm0 0M550.027 365.3l.953 2.755 2.86.55 1.906-2.199-.95-2.754-2.862-.55zm0 0M624.91 58.008l.656 1.894 1.965.38 1.313-1.512-.657-1.895-1.964-.379zm0 0M473.129 76.234l-1.895.657-.379 1.968 1.516 1.309 1.89-.652.38-1.97zm0 0M125.84 362.797l-1.34 2.586 1.566 2.453 2.91-.133 1.344-2.582-1.57-2.457zm0 0M778.172 114.082l1.988 1.695-2.605-.215.433 2.583-1.86-1.84-1.323 2.254-.242-2.606-2.465.875 1.488-2.148-2.45-.914 2.524-.692-1.293-2.273 2.38 1.094.472-2.575 1.117 2.364 2.02-1.664-.665 2.53 2.614.02zm0 0M1119.785 92.758l-1.34-2.586 1.567-2.453 2.91.129 1.344 2.586-1.57 2.453zm0 0M1148.598 73.543l-1.895-.652-.375-1.97 1.512-1.308 1.894.653.38 1.968zm0 0M899.68 427.383l1.304-3.563 3.914-.71 2.61 2.843-1.305 3.563-3.914.71zm0 0M925.078 46.715l5.145-2.52 4.886 2.946-.261 5.476-5.145 2.524-4.887-2.95zm0 0M1385.629 101.957l4.371-1.855 4.152 2.168-.222 4.027-4.371 1.86-4.153-2.173zm0 0M1295.371 142.766l.953-2.754 2.86-.555 1.91 2.203-.953 2.754-2.864.55zm0 0M1370.258 416.61l.652-1.895 1.965-.375 1.313 1.512-.657 1.894-1.965.379zm0 0M1218.473 398.383l-1.895-.653-.375-1.968 1.512-1.309 1.894.652.38 1.97zm0 0M665.25 442.27l2.793-2.383-3.66.3.61-3.62-2.61 2.581-1.863-3.164-.34 3.657-3.461-1.23 2.093 3.019-3.44 1.285 3.542.969-1.812 3.195 3.336-1.535.664 3.613 1.57-3.32 2.832 2.336-.93-3.551 3.672-.031zm0 0" fill="#fff"/></svg>