<?xml version='1.0' encoding='UTF-8'?>
<svg xmlns="http://www.w3.org/2000/svg" xmlns:xlink="http://www.w3.org/1999/xlink" width="600px" height="300px" viewBox="0 0 600 300" x="0px" y="0px" enable-background="new 0 0 600 300"><defs><symbol overflow="visible" id="d3f06a73a"><path d="M10.23-9.2a2.7 2.7 0 002.72-2.8v-23.92l25.53 25.44c.47.56 1.2.89 1.83.89 1.61 0 2.81-1.36 2.81-2.82 0-.71-.24-1.36-.8-2L16.94-39.77H40.8c1.6 0 2.8-1.1 2.8-2.71 0-1.6-1.37-2.8-2.8-2.8H10.95c-2.3 0-3.43 1.51-3.43 3.51v29.7c0 1.59 1.2 2.87 2.71 2.87zm0 0"/></symbol><symbol overflow="visible" id="d3f06a73c"><path d="M10.8-9.6c.64 0 1.36-.32 1.84-.88l25.52-25.44V-12c0 1.52 1.12 2.8 2.72 2.8 1.53 0 2.71-1.28 2.71-2.88v-29.69c0-2.07-1.18-3.51-3.43-3.51H10.3c-1.44 0-2.8 1.2-2.8 2.8 0 1.6 1.2 2.71 2.8 2.71h23.85L8.8-14.4c-.64.64-.8 1.29-.8 2 0 1.46 1.2 2.82 2.8 2.82zm0 0"/></symbol><symbol overflow="visible" id="d3f06a73d"><path d="M10.31-9.13h29.85c2.32 0 3.43-1.43 3.43-3.51v-29.67c0-1.61-1.18-2.9-2.72-2.9a2.77 2.77 0 00-2.71 2.8v23.93L12.64-43.92c-.48-.56-1.2-.8-1.84-.8a2.77 2.77 0 00-2 4.72l25.36 25.36H10.3c-1.6.08-2.8 1.2-2.8 2.72 0 1.6 1.37 2.8 2.8 2.8zm0 0"/></symbol><symbol overflow="visible" id="d3f06a73e"><path d="M10.95-9.13H40.8c1.43 0 2.8-1.18 2.8-2.8 0-1.5-1.2-2.63-2.8-2.71H16.95L42.31-40a2.5 2.5 0 00.81-2c0-1.44-1.2-2.72-2.8-2.72a2.4 2.4 0 00-1.84.8L12.95-18.48v-23.93c0-1.43-1.1-2.8-2.72-2.8-1.51 0-2.71 1.29-2.71 2.9v29.67c0 2.16 1.2 3.52 3.43 3.52zm0 0"/></symbol><symbol overflow="visible" id="d3f06a73f"><path d="M6-12.23c0 1.92 2.08 2.07 3.36 2.07H34.8c1.28 0 3.36-.15 3.36-2.07 0-.64-.32-1.29-.8-2.18L24.4-39.12c-.82-1.44-1.36-2-2.33-2-.95 0-1.6.56-2.31 2l-11.54 22C7.36-15.45 6-13.29 6-12.23zm0 0"/></symbol><symbol overflow="visible" id="d3f06a73g"><path d="M6-7.36c0 1.92 2.08 2.08 3.36 2.08H30.3c1.28 0 3.38-.16 3.38-2.08 0-.64-.4-1.28-.81-2.16l-10.72-22.4c-.72-1.52-1.36-2-2.32-2-.96 0-1.6.48-2.32 2L6.8-9.52C6.4-8.64 6-8 6-7.36zm0 0"/></symbol><symbol overflow="visible" id="d3f06a73h"><path d="M8.08-10.64c.64 0 1.28-.31 2.15-.8L34.95-24.4c1.46-.8 2-1.36 2-2.3 0-.98-.54-1.52-2-2.34L10.23-42c-.87-.48-1.51-.8-2.15-.8C6.16-42.8 6-40.72 6-39.44V-14c0 1.28.16 3.36 2.08 3.36zm0 0"/></symbol><symbol overflow="visible" id="d3f06a73i"><path d="M8.08-7.13c.64 0 1.28-.39 2.15-.8l22.41-10.71c1.52-.72 2-1.36 2-2.31 0-.97-.48-1.61-2-2.33L10.24-34c-.88-.4-1.52-.8-2.16-.8C6.16-34.8 6-32.72 6-31.44v20.96c0 1.28.16 3.36 2.08 3.36zm0 0"/></symbol><symbol overflow="visible" id="d3f06a73j"><path d="M3.83 0v-5.95H6.2v-.82H.45v.82h2.4V0zm0 0"/></symbol><symbol overflow="visible" id="d3f06a73k"><path d="M5.75-2.23v-.43c0-1.6-.9-2.51-2.42-2.51S.87-4.16.87-2.48c0 1.71.91 2.62 2.5 2.62 1.43 0 2.07-.56 2.29-1.52l-.9-.09c-.18.61-.59.9-1.35.9-.94 0-1.52-.54-1.58-1.66zm-2.4-2.2c.93 0 1.43.5 1.48 1.55H1.84c.08-1.07.6-1.56 1.5-1.56zm0 0"/></symbol><symbol overflow="visible" id="d3f06a73l"><path d="M1.83 0l1.42-2h.06l1.46 2H5.8L4-2.53l1.78-2.49H4.8L3.42-3.08h-.08l-1.4-1.94H.89l1.78 2.49L.84 0zm0 0"/></symbol><symbol overflow="visible" id="d3f06a73m"><path d="M5.52-4.25v-.77H3.17v-1.56h-.81l-.14 1.56H.75v.77h1.47v2.4c0 1.3.48 1.94 1.84 1.94C4.6.1 5.14 0 5.55-.14L5.4-.91c-.32.13-.72.2-1.13.2-.8 0-1.1-.37-1.1-1.23v-2.31zm0 0"/></symbol><symbol overflow="visible" id="d3f06a73n"><path d="M3.33-3.42c.47 0 .8-.27.8-.8 0-.51-.33-.8-.8-.8-.47 0-.8.29-.8.8 0 .53.33.8.8.8zm0 3.5c.47 0 .8-.27.8-.78 0-.53-.33-.82-.8-.82-.47 0-.8.29-.8.82 0 .51.33.78.8.78zm0 0"/></symbol><symbol overflow="visible" id="d3f06a73o"><path d="M5.86-1.48L2.46-4.9l.02-.03 2.61-.35-.65-.65-3.14.4-.08.08-.4 3.16.63.65.36-2.62.03-.02L5.25-.86zm0 0"/></symbol><symbol overflow="visible" id="d3f06a73p"><path d="M4.83-4.27l.03.02.36 2.63.64-.66-.4-3.16-.08-.08-3.15-.4-.65.65 2.6.35.02.03L.81-1.5l.61.63zm0 0"/></symbol><symbol overflow="visible" id="d3f06a73q"><path d="M.92-5.08l3.4 3.4v.02l-2.63.36.67.66 3.14-.4.08-.1.4-3.14-.64-.66-.37 2.61-.02.02-3.4-3.4zm0 0"/></symbol><symbol overflow="visible" id="d3f06a73s"><path d="M1.98-2.31l-.01-.02-.38-2.6-.64.65.4 3.14.09.1 3.14.4.65-.66-2.6-.36-.02-.03L6-5.08l-.63-.62zm0 0"/></symbol><symbol overflow="visible" id="d3f06a73t"><path d="M5.58-.66L3.4-4.7h-.13L1.1-.66l.07.11h4.36zm0 0"/></symbol><symbol overflow="visible" id="d3f06a73v"><path d="M1.36-.4l4.06-2.16v-.11L1.36-4.86l-.11.05v4.36zm0 0"/></symbol><symbol overflow="visible" id="d3f06a73x"><path d="M5.95-6.77H1.1V0h.99v-2.92H5.3v-.77H2.08v-2.26h3.87zm0 0"/></symbol><symbol overflow="visible" id="d3f06a73y"><path d="M2.83.14c.94 0 1.5-.39 1.81-.95h.08l.1.81h.76v-3.38c0-1.23-.69-1.8-2.13-1.8-1.43 0-2.03.65-2.18 1.6l.93.1c.11-.6.44-.93 1.22-.93.85 0 1.22.32 1.22 1.04v.34l-1.81.2C1.6-2.7 1.1-2.17 1.1-1.28c0 .92.64 1.42 1.72 1.42zm.25-.77c-.67 0-1.02-.28-1.02-.74 0-.44.28-.72 1-.82l1.58-.19v.41c0 .8-.6 1.34-1.56 1.34zm0 0"/></symbol><symbol overflow="visible" id="d3f06a73z"><path d="M2.73.14c.9 0 1.43-.45 1.74-1.08h.06l.13.94h.8v-5.02h-.94v2.7c0 .98-.57 1.62-1.46 1.62-.75 0-1.1-.4-1.1-1.22v-3.1h-.93v3.32c0 1.17.55 1.84 1.7 1.84zm0 0"/></symbol><symbol overflow="visible" id="d3f06a73A"><path d="M5.08-5.16c-.94 0-1.58.43-1.9 1.3h-.09l-.07-1.16H1.05v.77h1.1v3.48H.96V0h3.96v-.77H3.1v-1.46c0-1.36.6-2.05 1.83-2.05.4 0 .76.08 1.1.17l.15-.87c-.33-.11-.7-.18-1.11-.18zm0 0"/></symbol><symbol overflow="visible" id="d3f06a73B"><path d="M6.17 0L3.98-6.77h-1.3L.5 0h.97l.44-1.47h2.78L5.16 0zM3.28-5.94h.08l1.1 3.74H2.15zm0 0"/></symbol><symbol overflow="visible" id="d3f06a73C"><path d="M3.33.14c1.62 0 2.5-.95 2.5-2.66 0-1.68-.88-2.64-2.5-2.64-1.63 0-2.5.96-2.5 2.64 0 1.7.87 2.66 2.5 2.66zm0-.77c-1.06 0-1.52-.6-1.52-1.89 0-1.28.46-1.87 1.52-1.87 1.08 0 1.53.6 1.53 1.87 0 1.29-.45 1.9-1.53 1.9zm0 0"/></symbol><symbol overflow="visible" id="d3f06a73D"><path d="M2.44 0l.87-3.31h.06L4.25 0H5.3l1.03-5.02h-.88l-.73 3.94h-.08L3.77-4.4h-.85l-.87 3.33h-.08l-.75-3.94H.34L1.36 0zm0 0"/></symbol><symbol overflow="visible" id="d3f06a73E"><path d="M3.36.16c1.4 0 2.2-.6 2.2-1.57 0-.89-.54-1.22-1.47-1.39L3-3c-.67-.14-.86-.33-.86-.73 0-.5.4-.74 1.17-.74.83 0 1.19.27 1.27.8l.9-.05c-.12-1-.8-1.47-2.17-1.47-1.34 0-2.1.53-2.1 1.5 0 .81.45 1.22 1.52 1.44l1.04.2c.56.11.87.24.87.72 0 .52-.45.78-1.28.78-.95 0-1.36-.28-1.42-.87l-.9.06C1.07-.36 1.8.16 3.35.16zm0 0"/></symbol><symbol overflow="visible" id="d3f06a73F"><path d="M5.4-1.22c.43-.66.66-1.51.66-2.44l-.83-.09c0 .75-.14 1.4-.4 1.92l-1.7-1.83c.8-.42 1.39-.96 1.39-1.86 0-.87-.66-1.4-1.61-1.4-1.14 0-1.72.62-1.72 1.47 0 .72.47 1.3.83 1.68-.8.41-1.52.99-1.52 2.1C.5-.44 1.52.14 2.7.14c.9 0 1.64-.3 2.2-.78l.58.64h1.05zM2.86-6.25c.44 0 .82.23.82.73 0 .7-.47 1.11-1 1.41-.47-.53-.67-.92-.67-1.34 0-.47.3-.8.85-.8zM2.81-.62c-.83 0-1.42-.41-1.42-1.18 0-.76.5-1.18 1.05-1.5l1.94 2.1c-.4.37-.91.57-1.57.57zm0 0"/></symbol><symbol overflow="visible" id="d3f06a73G"><path d="M3.58-5.81c.42 0 .72-.22.72-.67 0-.44-.3-.68-.72-.68-.44 0-.72.24-.72.68 0 .45.28.67.72.67zm.5.8H1.52v.76h1.6v3.48h-1.8V0h4.46v-.77h-1.7zm0 0"/></symbol><symbol overflow="visible" id="d3f06a73H"><path d="M2.16 0v-2.67c0-.99.59-1.63 1.46-1.63.74 0 1.07.38 1.07 1.22V0h.95v-3.31c0-1.2-.56-1.85-1.67-1.85-.92 0-1.49.46-1.77 1.08h-.06l-.12-.94H1.2V0zm0 0"/></symbol><symbol overflow="visible" id="d3f06a73I"><path d="M3.16 2.03c1.67 0 2.4-.86 2.4-2.51v-4.54h-.81l-.13.91h-.06c-.26-.58-.8-1.05-1.73-1.05-1.42 0-2.24 1-2.24 2.52 0 1.6.75 2.56 2.2 2.56.94 0 1.5-.5 1.77-1.03h.05v.72c0 1.17-.42 1.67-1.45 1.67-.93 0-1.3-.34-1.41-.89L.8.5c.12.96.87 1.54 2.36 1.54zM3.06-.8c-.98 0-1.48-.57-1.48-1.82 0-1.13.5-1.75 1.48-1.75 1.06 0 1.58.76 1.58 1.75 0 .95-.56 1.82-1.58 1.82zm0 0"/></symbol><symbol overflow="visible" id="d3f06a73J"><path d="M3.92-7.14H1.36v.76h1.6v5.61H1.15V0H5.7v-.77H3.92zm0 0"/></symbol><symbol overflow="visible" id="d3f06a73K"><path d="M1.45-2.95c0 2.56 1.08 4.37 3.67 4.84l.11-.67C3.28.86 2.43-.75 2.43-2.95s.85-3.82 2.8-4.16l-.1-.69c-2.6.49-3.68 2.3-3.68 4.85zm0 0"/></symbol><symbol overflow="visible" id="d3f06a73L"><path d="M3.34.14c1.43 0 2.13-.66 2.25-1.78l-.89-.1c-.1.7-.5 1.08-1.34 1.08-1.03 0-1.52-.64-1.52-1.84 0-1.23.47-1.86 1.52-1.86.84 0 1.23.36 1.34 1.08l.9-.1c-.13-1.09-.82-1.78-2.26-1.78-1.56 0-2.46.97-2.46 2.66 0 1.66.9 2.64 2.46 2.64zm0 0"/></symbol><symbol overflow="visible" id="d3f06a73M"><path d="M3.9.14c1.48 0 2.18-.98 2.18-2.64 0-1.67-.7-2.66-2.17-2.66-.91 0-1.49.41-1.79 1h-.06v-2.98h-.95V0h.81l.11-.9h.06c.29.63.82 1.04 1.82 1.04zm-.32-.8c-1.08 0-1.55-.8-1.55-1.84 0-1.06.47-1.86 1.55-1.86 1.1 0 1.51.61 1.51 1.86S4.64-.66 3.58-.66zm0 0"/></symbol><symbol overflow="visible" id="d3f06a73N"><path d="M3.9 0l2-5.02h-.96L3.4-.94h-.07L1.8-5.02H.77L2.78 0zm0 0"/></symbol><symbol overflow="visible" id="d3f06a73O"><path d="M2.16 0v-2.69c0-.98.6-1.6 1.46-1.6.74 0 1.07.4 1.07 1.2V0h.95v-3.31c0-1.17-.56-1.85-1.67-1.85-.9 0-1.44.46-1.75 1.08h-.06v-3.06H1.2V0zm0 0"/></symbol><symbol overflow="visible" id="d3f06a73P"><path d="M3.42-.86h-.08L1.77-5.02H.8L2.73 0h.41c-.33.95-.72 1.27-1.45 1.27-.22 0-.49-.04-.69-.08l-.1.73c.2.06.58.11.87.11 1.2 0 1.7-.7 2.21-2.03l1.94-5.02H5zm0 0"/></symbol><symbol overflow="visible" id="d3f06a73Q"><path d="M2.06 1.9V-.84h.05c.28.58.8.97 1.77.97 1.5 0 2.2-.98 2.2-2.66 0-1.65-.7-2.64-2.19-2.64-.97 0-1.5.44-1.78 1.05h-.08l-.1-.9H1.1v6.9zm1.5-2.56c-1.06 0-1.53-.8-1.53-1.86 0-1.04.47-1.84 1.53-1.84 1.11 0 1.53.61 1.53 1.84 0 1.27-.42 1.86-1.53 1.86zm0 0"/></symbol><symbol overflow="visible" id="d3f06a73R"><path d="M1.45-7.1c1.96.33 2.8 1.94 2.8 4.15 0 2.2-.84 3.8-2.8 4.17l.11.67c2.58-.47 3.67-2.28 3.67-4.84 0-2.55-1.09-4.36-3.67-4.85zm0 0"/></symbol><symbol overflow="visible" id="d3f06a73u"><path d="M5.84 0H.48l2.7-5.36zm0 0"/></symbol><symbol overflow="visible" id="d3f06a73w"><path d="M1.75-.19v-5.78l2.9 2.9zm0 0"/></symbol></defs><g fill="#fff"><use xlink:href="#d3f06a73a" x="46.12" y="164"/><use xlink:href="#d3f06a73b" x="97.32" y="164"/><use xlink:href="#d3f06a73c" x="116.68" y="164"/><use xlink:href="#d3f06a73b" x="167.88" y="164"/><use xlink:href="#d3f06a73d" x="187.24" y="164"/><use xlink:href="#d3f06a73b" x="238.44" y="164"/><use xlink:href="#d3f06a73e" x="257.8" y="164"/><use xlink:href="#d3f06a73b" x="309" y="164"/><use xlink:href="#d3f06a73f" x="328.36" y="164"/><use xlink:href="#d3f06a73b" x="372.52" y="164"/><use xlink:href="#d3f06a73g" x="391.88" y="164"/><use xlink:href="#d3f06a73b" x="431.56" y="164"/><use xlink:href="#d3f06a73h" x="450.92" y="164"/><use xlink:href="#d3f06a73b" x="493.88" y="164"/><use xlink:href="#d3f06a73i" x="513.24" y="164"/><g><use xlink:href="#d3f06a73j" x="230.6299" y="252"/></g><g><use xlink:href="#d3f06a73k" x="237.2969" y="252"/></g><g><use xlink:href="#d3f06a73l" x="243.9639" y="252"/></g><g><use xlink:href="#d3f06a73m" x="250.6309" y="252"/></g><g><use xlink:href="#d3f06a73n" x="257.2979" y="252"/></g><g><use xlink:href="#d3f06a73o" x="270.6319" y="252"/></g><g><use xlink:href="#d3f06a73p" x="283.9659" y="252"/></g><g><use xlink:href="#d3f06a73q" x="297.2999" y="252"/><use xlink:href="#d3f06a73r" x="304.1899" y="252"/></g><g><use xlink:href="#d3f06a73s" x="310.8569" y="252"/><use xlink:href="#d3f06a73r" x="317.7469" y="252"/></g><g><use xlink:href="#d3f06a73t" x="324.4139" y="252"/></g><g><use xlink:href="#d3f06a73u" x="337.7442" y="252"/></g><g><use xlink:href="#d3f06a73r" x="344.0674" y="252"/><use xlink:href="#d3f06a73v" x="350.7344" y="252"/><use xlink:href="#d3f06a73r" x="357.4014" y="252"/></g><g><use xlink:href="#d3f06a73w" x="364.0674" y="252"/></g><g><use xlink:href="#d3f06a73x" x="93.33333" y="266"/><use xlink:href="#d3f06a73k" x="100.00033" y="266"/><use xlink:href="#d3f06a73y" x="106.66733" y="266"/><use xlink:href="#d3f06a73m" x="113.33433" y="266"/><use xlink:href="#d3f06a73z" x="120.00133" y="266"/><use xlink:href="#d3f06a73A" x="126.66833" y="266"/><use xlink:href="#d3f06a73k" x="133.33533" y="266"/><use xlink:href="#d3f06a73n" x="140.00233" y="266"/><use xlink:href="#d3f06a73r" x="146.66933" y="266"/><use xlink:href="#d3f06a73B" x="153.33633" y="266"/><use xlink:href="#d3f06a73A" x="160.00333" y="266"/><use xlink:href="#d3f06a73A" x="166.67033" y="266"/><use xlink:href="#d3f06a73C" x="173.33733" y="266"/><use xlink:href="#d3f06a73D" x="180.00433" y="266"/><use xlink:href="#d3f06a73E" x="186.67133" y="266"/><use xlink:href="#d3f06a73r" x="193.33833" y="266"/><use xlink:href="#d3f06a73F" x="200.00533" y="266"/><use xlink:href="#d3f06a73r" x="206.67233" y="266"/><use xlink:href="#d3f06a73m" x="213.33933" y="266"/><use xlink:href="#d3f06a73A" x="220.00633" y="266"/><use xlink:href="#d3f06a73G" x="226.67333" y="266"/><use xlink:href="#d3f06a73y" x="233.34033" y="266"/><use xlink:href="#d3f06a73H" x="240.00733" y="266"/><use xlink:href="#d3f06a73I" x="246.67433" y="266"/><use xlink:href="#d3f06a73J" x="253.34133" y="266"/><use xlink:href="#d3f06a73k" x="260.00833" y="266"/><use xlink:href="#d3f06a73E" x="266.67533" y="266"/><use xlink:href="#d3f06a73r" x="273.34233" y="266"/><use xlink:href="#d3f06a73K" x="280.00933" y="266"/><use xlink:href="#d3f06a73y" x="286.67633" y="266"/><use xlink:href="#d3f06a73L" x="293.34333" y="266"/><use xlink:href="#d3f06a73L" x="300.01033" y="266"/><use xlink:href="#d3f06a73k" x="306.67733" y="266"/><use xlink:href="#d3f06a73E" x="313.34433" y="266"/><use xlink:href="#d3f06a73E" x="320.01133" y="266"/><use xlink:href="#d3f06a73G" x="326.67833" y="266"/><use xlink:href="#d3f06a73M" x="333.34533" y="266"/><use xlink:href="#d3f06a73J" x="340.01233" y="266"/><use xlink:href="#d3f06a73k" x="346.67933" y="266"/><use xlink:href="#d3f06a73r" x="353.34633" y="266"/><use xlink:href="#d3f06a73N" x="360.01333" y="266"/><use xlink:href="#d3f06a73G" x="366.68033" y="266"/><use xlink:href="#d3f06a73y" x="373.34733" y="266"/><use xlink:href="#d3f06a73r" x="380.01433" y="266"/><use xlink:href="#d3f06a73m" x="386.68133" y="266"/><use xlink:href="#d3f06a73O" x="393.34833" y="266"/><use xlink:href="#d3f06a73k" x="400.01533" y="266"/><use xlink:href="#d3f06a73r" x="406.68233" y="266"/><use xlink:href="#d3f06a73I" x="413.34933" y="266"/><use xlink:href="#d3f06a73J" x="420.01633" y="266"/><use xlink:href="#d3f06a73P" x="426.68333" y="266"/><use xlink:href="#d3f06a73Q" x="433.35033" y="266"/><use xlink:href="#d3f06a73O" x="440.01733" y="266"/><use xlink:href="#d3f06a73r" x="446.68433" y="266"/><use xlink:href="#d3f06a73Q" x="453.35133" y="266"/><use xlink:href="#d3f06a73y" x="460.01833" y="266"/><use xlink:href="#d3f06a73J" x="466.68533" y="266"/><use xlink:href="#d3f06a73k" x="473.35233" y="266"/><use xlink:href="#d3f06a73m" x="480.01933" y="266"/><use xlink:href="#d3f06a73m" x="486.68633" y="266"/><use xlink:href="#d3f06a73k" x="493.35333" y="266"/><use xlink:href="#d3f06a73R" x="500.02033" y="266"/></g></g></svg>