<?xml version='1.0' encoding='UTF-8'?>
<svg xmlns="http://www.w3.org/2000/svg" xmlns:xlink="http://www.w3.org/1999/xlink" width="600px" height="300px" viewBox="0 0 600 300" x="0px" y="0px" enable-background="new 0 0 600 300"><defs><symbol overflow="visible" id="342aad62a"><path d="M27.13-8.95C23.84-6 20-4.8 17.27-4.8c-4.56 0-7.2-2.33-7.2-6.25 0-4 2.87-6.15 8.48-6.15h8.57zm0-13.05H18.3c-9.26 0-14.8 4.16-14.8 11.36C3.52-3.7 8.42.8 15.93.8 21.05.8 25.28-1.6 28-4.16l.56 2.32A2.93 2.93 0 0031.6.4c2 0 3.05-1.36 3.05-2.97 0-1.44-.8-2.96-.8-7.52v-15.76c0-6.88-3.36-13.6-14.64-13.6-3.04 0-7.68.64-10.56 2.08-1.52.8-2.33 1.6-2.33 2.8 0 1.36.97 2.72 2.82 2.72 1.03 0 2.3-.57 3.67-.96a18.88 18.88 0 015.84-1.12c6.48 0 8.48 3.6 8.48 8.08zm0 0"/></symbol><symbol overflow="visible" id="342aad62b"><path d="M27.84-32.64l.64 4.4c.24 1.93 1.44 3.04 3.11 3.04 1.85 0 3.2-1.52 2.82-3.93l-.82-5.51c-.39-3.05-.87-7.44-.87-10.48 0-4.57 2.48-6.96 6.87-6.96 4.41 0 6.82 2.49 6.82 6.95v6.49H42a2.85 2.85 0 00-2.8 2.87c0 1.54 1.2 2.72 2.8 2.72h4.4v20.9C46.4-4.88 50.24.8 58.24.8c1.7 0 5.05-.49 7.13-1.85 1.12-.8 1.69-1.51 1.69-2.8a2.69 2.69 0 00-2.74-2.63c-1.44 0-2.54 1.6-5.44 1.6-3.18 0-5.74-1.68-5.74-7.2v-20.97h9.74a2.76 2.76 0 002.82-2.72c0-1.59-1.28-2.87-2.81-2.87h-9.76v-6.08c0-9.05-5.53-12.56-13.28-12.56-7.28 0-12.56 3.76-12.56 11.51 0 1.93.31 4.33.95 7.2a24.38 24.38 0 00-6.39-.87c-11.2 0-17.43 7.44-17.43 20.08C4.4-7.44 10.3.8 21.84.8c2.47 0 7.2-.57 10.24-2.08 1.36-.72 2.48-1.44 2.48-2.95 0-1.29-.87-2.64-2.72-2.64-1.04 0-2.32.56-3.68.95a20.11 20.11 0 01-6.32 1.12c-7.28 0-10.64-6-10.64-14.56 0-8.87 3.28-14.56 10.64-14.56 1.85 0 4.24.4 6 1.28zm0 0"/></symbol><symbol overflow="visible" id="342aad62c"><path d="M3.13-2.8C3.13-1.28 4.3 0 5.92 0h20.71c1.6 0 2.8-1.28 2.8-2.8 0-1.6-1.2-2.89-2.8-2.89H19.7v-30.08c0-1.59-1.28-2.87-2.9-2.87H6.17a2.8 2.8 0 00-2.8 2.87c0 1.54 1.2 2.72 2.8 2.72h6.8v27.36H5.91a2.8 2.8 0 00-2.8 2.9zm11.43-42.25a4.68 4.68 0 004.72-4.72 4.68 4.68 0 00-4.72-4.71 4.68 4.68 0 00-4.72 4.71 4.68 4.68 0 004.72 4.72zm0 0"/></symbol><symbol overflow="visible" id="342aad62d"><path d="M13.52-4.48C14.23-2.23 15.77.4 19.77.4s5.59-2.64 6.3-4.9l9.7-29.28c.15-.54.39-1.43.39-1.92 0-1.9-1.44-3.36-3.28-3.36-1.52 0-2.88.97-3.2 2.33L19.93-6h-.23L9.92-36.72a3.38 3.38 0 00-3.2-2.33 3.29 3.29 0 00-3.36 3.36c0 .49.23 1.38.4 1.92zm0 0"/></symbol><symbol overflow="visible" id="342aad62e"><path d="M24.4-45.77c0 1.85.4 4.72 1.52 7.61a30.95 30.95 0 00-8.15-1.28c-6.57 0-13.2 3.6-13.2 11.03 0 7.77 7.66 10.1 12.79 11.61 4.87 1.52 8.4 2.8 8.4 6.49 0 3.36-2.71 5.75-7.68 5.75-2.49 0-5.2-.57-7.44-1.36-1.52-.49-2.72-1.03-3.84-1.03C4.88-6.95 4-5.6 4-4.15c0 1.1.64 2.07 2.48 2.87C9.52.08 14.88.8 18.16.8c7.92 0 14.32-4.08 14.32-11.28C32.48-17.92 26-20.16 20-22c-4.64-1.44-8.72-2.8-8.72-6.72 0-2.97 2.16-5.44 6.95-5.44 2.33 0 4.64.57 6.9 1.44 1.35.56 2.71 1.13 3.82 1.13a2.5 2.5 0 002.64-2.57c0-1.92-1.75-5.68-1.75-10.97 0-4.56 2.96-6.95 7.2-6.95s7.2 2.49 7.2 6.95v6.49h-4.47a2.85 2.85 0 00-2.82 2.87 2.76 2.76 0 002.82 2.72h4.46v20.9C44.23-4.88 48.08.8 56 .8c1.69 0 5.13-.49 7.2-1.85 1.03-.8 1.6-1.51 1.6-2.8a2.63 2.63 0 00-2.72-2.63c-1.44 0-2.56 1.6-5.36 1.6-3.28 0-5.77-1.68-5.77-7.2v-20.97h9.7c1.58 0 2.79-1.18 2.79-2.72 0-1.59-1.28-2.87-2.8-2.87h-9.69v-6.08c0-9.05-6.08-12.56-13.67-12.56-7.12 0-12.87 3.76-12.87 11.51zm0 0"/></symbol><symbol overflow="visible" id="342aad62f"><path d="M3.83 0v-5.95H6.2v-.82H.45v.82h2.4V0zm0 0"/></symbol><symbol overflow="visible" id="342aad62g"><path d="M5.75-2.23v-.43c0-1.6-.9-2.51-2.42-2.51S.87-4.16.87-2.48c0 1.71.91 2.62 2.5 2.62 1.43 0 2.07-.56 2.29-1.52l-.9-.09c-.18.61-.59.9-1.35.9-.94 0-1.52-.54-1.58-1.66zm-2.4-2.2c.93 0 1.43.5 1.48 1.55H1.84c.08-1.07.6-1.56 1.5-1.56zm0 0"/></symbol><symbol overflow="visible" id="342aad62h"><path d="M1.83 0l1.42-2h.06l1.46 2H5.8L4-2.53l1.78-2.49H4.8L3.42-3.08h-.08l-1.4-1.94H.89l1.78 2.49L.84 0zm0 0"/></symbol><symbol overflow="visible" id="342aad62i"><path d="M5.52-4.25v-.77H3.17v-1.56h-.81l-.14 1.56H.75v.77h1.47v2.4c0 1.3.48 1.94 1.84 1.94C4.6.1 5.14 0 5.55-.14L5.4-.91c-.32.13-.72.2-1.13.2-.8 0-1.1-.37-1.1-1.23v-2.31zm0 0"/></symbol><symbol overflow="visible" id="342aad62j"><path d="M3.33-3.42c.47 0 .8-.27.8-.8 0-.51-.33-.8-.8-.8-.47 0-.8.29-.8.8 0 .53.33.8.8.8zm0 3.5c.47 0 .8-.27.8-.78 0-.53-.33-.82-.8-.82-.47 0-.8.29-.8.82 0 .51.33.78.8.78zm0 0"/></symbol><symbol overflow="visible" id="342aad62l"><path d="M2.83.14c.94 0 1.5-.39 1.81-.95h.08l.1.81h.76v-3.38c0-1.23-.69-1.8-2.13-1.8-1.43 0-2.03.65-2.18 1.6l.93.1c.11-.6.44-.93 1.22-.93.85 0 1.22.32 1.22 1.04v.34l-1.81.2C1.6-2.7 1.1-2.17 1.1-1.28c0 .92.64 1.42 1.72 1.42zm.25-.77c-.67 0-1.02-.28-1.02-.74 0-.44.28-.72 1-.82l1.58-.19v.41c0 .8-.6 1.34-1.56 1.34zm0 0"/></symbol><symbol overflow="visible" id="342aad62m"><path d="M3.34.14c1.43 0 2.13-.66 2.25-1.78l-.89-.1c-.1.7-.5 1.08-1.34 1.08-1.03 0-1.52-.64-1.52-1.84 0-1.23.47-1.86 1.52-1.86.84 0 1.23.36 1.34 1.08l.9-.1c-.13-1.09-.82-1.78-2.26-1.78-1.56 0-2.46.97-2.46 2.66 0 1.66.9 2.64 2.46 2.64zm0 0"/></symbol><symbol overflow="visible" id="342aad62n"><path d="M3.58-5.81c.42 0 .72-.22.72-.67 0-.44-.3-.68-.72-.68-.44 0-.72.24-.72.68 0 .45.28.67.72.67zm.5.8H1.52v.76h1.6v3.48h-1.8V0h4.46v-.77h-1.7zm0 0"/></symbol><symbol overflow="visible" id="342aad62o"><path d="M3.9 0l2-5.02h-.96L3.4-.94h-.07L1.8-5.02H.77L2.78 0zm0 0"/></symbol><symbol overflow="visible" id="342aad62p"><path d="M3.36.16c1.4 0 2.2-.6 2.2-1.57 0-.89-.54-1.22-1.47-1.39L3-3c-.67-.14-.86-.33-.86-.73 0-.5.4-.74 1.17-.74.83 0 1.19.27 1.27.8l.9-.05c-.12-1-.8-1.47-2.17-1.47-1.34 0-2.1.53-2.1 1.5 0 .81.45 1.22 1.52 1.44l1.04.2c.56.11.87.24.87.72 0 .52-.45.78-1.28.78-.95 0-1.36-.28-1.42-.87l-.9.06C1.07-.36 1.8.16 3.35.16zm0 0"/></symbol><symbol overflow="visible" id="342aad62q"><path d="M5.95-6.77H1.1V0h.99v-2.92H5.3v-.77H2.08v-2.26h3.87zm0 0"/></symbol><symbol overflow="visible" id="342aad62r"><path d="M2.73.14c.9 0 1.43-.45 1.74-1.08h.06l.13.94h.8v-5.02h-.94v2.7c0 .98-.57 1.62-1.46 1.62-.75 0-1.1-.4-1.1-1.22v-3.1h-.93v3.32c0 1.17.55 1.84 1.7 1.84zm0 0"/></symbol><symbol overflow="visible" id="342aad62s"><path d="M5.08-5.16c-.94 0-1.58.43-1.9 1.3h-.09l-.07-1.16H1.05v.77h1.1v3.48H.96V0h3.96v-.77H3.1v-1.46c0-1.36.6-2.05 1.83-2.05.4 0 .76.08 1.1.17l.15-.87c-.33-.11-.7-.18-1.11-.18zm0 0"/></symbol><symbol overflow="visible" id="342aad62t"><path d="M.92-6.77V0h2.11c2.03 0 3.03-1.03 3.03-3.36 0-2.39-1.01-3.4-2.93-3.4zM1.91-.8v-5.17h1.18c1.29 0 1.96.63 1.96 2.61 0 1.94-.67 2.56-1.96 2.56zm0 0"/></symbol><symbol overflow="visible" id="342aad62u"><path d="M3.33.14c1.62 0 2.5-.95 2.5-2.66 0-1.68-.88-2.64-2.5-2.64-1.63 0-2.5.96-2.5 2.64 0 1.7.87 2.66 2.5 2.66zm0-.77c-1.06 0-1.52-.6-1.52-1.89 0-1.28.46-1.87 1.52-1.87 1.08 0 1.53.6 1.53 1.87 0 1.29-.45 1.9-1.53 1.9zm0 0"/></symbol><symbol overflow="visible" id="342aad62v"><path d="M2.16 0v-2.67c0-.99.59-1.63 1.46-1.63.74 0 1.07.38 1.07 1.22V0h.95v-3.31c0-1.2-.56-1.85-1.67-1.85-.92 0-1.49.46-1.77 1.08h-.06l-.12-.94H1.2V0zm0 0"/></symbol><symbol overflow="visible" id="342aad62w"><path d="M3.42-.86h-.08L1.77-5.02H.8L2.73 0h.41c-.33.95-.72 1.27-1.45 1.27-.22 0-.49-.04-.69-.08l-.1.73c.2.06.58.11.87.11 1.2 0 1.7-.7 2.21-2.03l1.94-5.02H5zm0 0"/></symbol><symbol overflow="visible" id="342aad62x"><path d="M3.92-7.14H1.36v.76h1.6v5.61H1.15V0H5.7v-.77H3.92zm0 0"/></symbol><symbol overflow="visible" id="342aad62y"><path d="M3.16 2.03c1.67 0 2.4-.86 2.4-2.51v-4.54h-.81l-.13.91h-.06c-.26-.58-.8-1.05-1.73-1.05-1.42 0-2.24 1-2.24 2.52 0 1.6.75 2.56 2.2 2.56.94 0 1.5-.5 1.77-1.03h.05v.72c0 1.17-.42 1.67-1.45 1.67-.93 0-1.3-.34-1.41-.89L.8.5c.12.96.87 1.54 2.36 1.54zM3.06-.8c-.98 0-1.48-.57-1.48-1.82 0-1.13.5-1.75 1.48-1.75 1.06 0 1.58.76 1.58 1.75 0 .95-.56 1.82-1.58 1.82zm0 0"/></symbol><symbol overflow="visible" id="342aad62z"><path d="M1.45-2.95c0 2.56 1.08 4.37 3.67 4.84l.11-.67C3.28.86 2.43-.75 2.43-2.95s.85-3.82 2.8-4.16l-.1-.69c-2.6.49-3.68 2.3-3.68 4.85zm0 0"/></symbol><symbol overflow="visible" id="342aad62A"><path d="M2.84.14C3.8.14 4.33-.26 4.6-.9h.07L4.8 0h.76v-7.14h-.95v2.95h-.08c-.28-.6-.86-.97-1.67-.97-1.48 0-2.27.99-2.27 2.64C.6-.84 1.36.14 2.84.14zm.22-.8c-.98 0-1.48-.59-1.48-1.84s.5-1.86 1.48-1.86c1.13 0 1.58.8 1.58 1.86S4.2-.66 3.06-.66zm0 0"/></symbol><symbol overflow="visible" id="342aad62B"><path d="M1.45-7.1c1.96.33 2.8 1.94 2.8 4.15 0 2.2-.84 3.8-2.8 4.17l.11.67c2.58-.47 3.67-2.28 3.67-4.84 0-2.55-1.09-4.36-3.67-4.85zm0 0"/></symbol></defs><use xlink:href="#342aad62a" x="162.36" y="164" fill="#515151"/><use xlink:href="#342aad62b" x="202.6" y="164" fill="#fff"/><use xlink:href="#342aad62c" x="271.56" y="164" fill="#515151"/><g fill="#515151"><use xlink:href="#342aad62d" x="300.52" y="164"/><use xlink:href="#342aad62c" x="340.12" y="164"/></g><use xlink:href="#342aad62e" x="370.92" y="164" fill="#fff"/><g fill="#fff"><use xlink:href="#342aad62f" x="253.3333" y="252"/><use xlink:href="#342aad62g" x="260.0003" y="252"/><use xlink:href="#342aad62h" x="266.6673" y="252"/><use xlink:href="#342aad62i" x="273.3343" y="252"/><use xlink:href="#342aad62j" x="280.0013" y="252"/><use xlink:href="#342aad62k" x="286.6683" y="252"/><use xlink:href="#342aad62l" x="293.3353" y="252"/><use xlink:href="#342aad62m" x="300.0023" y="252"/><use xlink:href="#342aad62i" x="306.6693" y="252"/><use xlink:href="#342aad62n" x="313.3363" y="252"/><use xlink:href="#342aad62o" x="320.0033" y="252"/><use xlink:href="#342aad62n" x="326.6703" y="252"/><use xlink:href="#342aad62p" x="333.3373" y="252"/><use xlink:href="#342aad62i" x="340.0043" y="252"/></g><g fill="#fff"><use xlink:href="#342aad62q" x="170" y="266"/><use xlink:href="#342aad62g" x="176.667" y="266"/><use xlink:href="#342aad62l" x="183.334" y="266"/><use xlink:href="#342aad62i" x="190.001" y="266"/><use xlink:href="#342aad62r" x="196.668" y="266"/><use xlink:href="#342aad62s" x="203.335" y="266"/><use xlink:href="#342aad62g" x="210.002" y="266"/><use xlink:href="#342aad62j" x="216.669" y="266"/><use xlink:href="#342aad62k" x="223.336" y="266"/><use xlink:href="#342aad62t" x="230.003" y="266"/><use xlink:href="#342aad62n" x="236.67" y="266"/><use xlink:href="#342aad62p" x="243.337" y="266"/><use xlink:href="#342aad62m" x="250.004" y="266"/><use xlink:href="#342aad62s" x="256.671" y="266"/><use xlink:href="#342aad62g" x="263.338" y="266"/><use xlink:href="#342aad62i" x="270.005" y="266"/><use xlink:href="#342aad62n" x="276.672" y="266"/><use xlink:href="#342aad62u" x="283.339" y="266"/><use xlink:href="#342aad62v" x="290.006" y="266"/><use xlink:href="#342aad62l" x="296.673" y="266"/><use xlink:href="#342aad62s" x="303.34" y="266"/><use xlink:href="#342aad62w" x="310.007" y="266"/><use xlink:href="#342aad62k" x="316.674" y="266"/><use xlink:href="#342aad62x" x="323.341" y="266"/><use xlink:href="#342aad62n" x="330.008" y="266"/><use xlink:href="#342aad62y" x="336.675" y="266"/><use xlink:href="#342aad62l" x="343.342" y="266"/><use xlink:href="#342aad62i" x="350.009" y="266"/><use xlink:href="#342aad62r" x="356.676" y="266"/><use xlink:href="#342aad62s" x="363.343" y="266"/><use xlink:href="#342aad62g" x="370.01" y="266"/><use xlink:href="#342aad62p" x="376.677" y="266"/><use xlink:href="#342aad62k" x="383.344" y="266"/><use xlink:href="#342aad62z" x="390.011" y="266"/><use xlink:href="#342aad62A" x="396.678" y="266"/><use xlink:href="#342aad62x" x="403.345" y="266"/><use xlink:href="#342aad62n" x="410.012" y="266"/><use xlink:href="#342aad62y" x="416.679" y="266"/><use xlink:href="#342aad62B" x="423.346" y="266"/></g></svg>