<?xml version='1.0' encoding='UTF-8'?>
<svg xmlns="http://www.w3.org/2000/svg" xmlns:xlink="http://www.w3.org/1999/xlink" width="600px" height="300px" viewBox="0 0 600 300" x="0px" y="0px" enable-background="new 0 0 600 300"><defs><symbol overflow="visible" id="bc42ec29a"><path d="M37.28-11.05c1.6 2.4 4.16 4 7.52 4 6.08 0 10.8-5.1 10.8-15.18 0-14.49-9.68-24-25.12-24-13.92 0-25.92 7.92-25.92 25.28 0 17.67 12.4 25.1 25.75 25.1 3.28 0 8.74-.63 11.2-1.84 1.2-.54 1.7-1.26 1.7-2.23 0-1.52-1.05-2.49-2.41-2.49-.96 0-2 .49-3.36.9a28.8 28.8 0 01-7.13.87C19.77-.64 9.7-6 9.7-21.04c0-15.2 10.08-20.32 20.8-20.32 11.82 0 20.23 6.4 20.23 19.36 0 7.13-2.64 10.31-5.84 10.31-2.65 0-4.08-2-4.08-5.1V-28c0-2.72-1.52-3.92-3.03-4.72-2.25-1.05-5.93-1.6-7.77-1.6-7.52 0-12.08 5.52-12.08 13.84 0 7.36 3.67 13.53 11.03 13.53a9.9 9.9 0 008.33-4.1zM35.6-28.23v8.46c0 6.25-3.43 8.18-6.23 8.18-3.6 0-6.23-2.97-6.23-8.9 0-5.92 2.56-9.35 6.95-9.35 2.23 0 4.48.89 5.51 1.6zm0 0"/></symbol><symbol overflow="visible" id="bc42ec29b"><path d="M32-11.2c0-6.49-5.13-9.93-10.95-12.32-6.18-2.48-9.93-4.17-9.93-8.48 0-3.69 2.72-5.52 7.2-5.52 2 0 4.09.4 5.91 1.11l.57 3.77c.15 1.36 1.2 2.33 2.8 2.33 1.6 0 3.04-.97 2.88-2.97l-.32-4a4.57 4.57 0 00-2.57-3.77c-2.39-1.26-6.15-2-9.43-2-7.93 0-13.11 4-13.11 11.28 0 7.13 5.26 10.08 11.67 12.82 4.48 1.9 9.05 4.07 9.05 8.23 0 3.28-2.9 5.85-7.77 5.85-2 0-5.2-.33-7.36-1.36l-.48-3.85C10-11.44 8.87-12.4 7.28-12.4c-1.6 0-3.05.97-2.87 3.05l.3 3.92a4.42 4.42 0 002.57 3.92C9.6-.08 14.16.64 17.77.64 26.3.64 32-4 32-11.2zm0 0"/></symbol><symbol overflow="visible" id="bc42ec29c"><path d="M6.48-2.72A3.14 3.14 0 009.68.41c1.76 0 3.27-1.46 3.27-3.13v-11.76h6.82c8.54 0 14.87-5.36 14.87-13.68 0-8.89-6.33-14.15-14.87-14.15H9.69a3.14 3.14 0 00-3.2 3.1zm6.47-17.12v-16.72h6.57c5.2 0 8.64 3.12 8.64 8.4 0 5.2-3.44 8.32-8.64 8.32zm0 0"/></symbol><symbol overflow="visible" id="bc42ec29d"><path d="M30.56-2.08A3.22 3.22 0 0033.7.41c1.75 0 3.19-1.13 3.19-2.97 0-.4-.16-1.28-.4-2L26.23-36.87c-.95-3.54-2.3-5.85-6.3-5.85s-5.37 2.31-6.34 5.84L3.36-4.55c-.23.8-.4 1.6-.4 2C2.95-.64 4.3.4 6.07.4 7.59.4 8.8-.56 9.2-2.08l2.49-8.08h16.39zm-10.8-34.64h.32l6.48 21.52H13.2zm0 0"/></symbol><symbol overflow="visible" id="bc42ec29e"><path d="M28.4-35.92l.55 3.92a2.97 2.97 0 002.97 2.56c1.6 0 2.95-1.2 2.8-3.28l-.31-4.33a4.44 4.44 0 00-2.49-3.6c-2.33-1.27-6.48-2.4-10.15-2.4-12.33 0-17.13 9.7-17.13 21.77 0 12.8 5.28 22 17.2 22 3.68 0 7.44-.95 10.24-2.56 1.28-.64 2.72-1.75 2.72-3.29 0-1.59-1.2-2.8-2.88-2.8-1.12 0-2.08.73-3.76 1.45a13.27 13.27 0 01-5.93 1.43c-8.07 0-11.18-6.8-11.18-16.3 0-8.34 2.3-15.93 10.8-15.93 2.23 0 5.02.56 6.56 1.36zm0 0"/></symbol><symbol overflow="visible" id="bc42ec29f"><path d="M6.48-3.13A3.2 3.2 0 009.68 0H29.2c1.6 0 2.88-1.28 2.88-2.88a2.89 2.89 0 00-2.88-2.96H12.95V-19.2h13.7c1.5 0 2.7-1.2 2.7-2.64a2.7 2.7 0 00-2.7-2.72h-13.7v-12h16.1c1.6 0 2.87-1.28 2.87-2.88a2.81 2.81 0 00-2.87-2.87H9.69a3.14 3.14 0 00-3.2 3.1zm0 0"/></symbol><symbol overflow="visible" id="bc42ec29g"><path d="M16.88 8.64c.48.4 1.43 1.2 2.48 1.2 1.44 0 2.72-1.12 2.72-2.56 0-.87-.49-1.69-1.13-2.23C14.31.08 10.41-9.77 10.41-21.2c0-11.36 3.9-21.28 10.54-26.16.64-.56 1.13-1.28 1.13-2.16a2.74 2.74 0 00-2.72-2.71c-1.05 0-2 .8-2.48 1.18C9.36-45.52 4.71-33.77 4.71-21.2c0 12.72 4.64 24.4 12.16 29.84zm0 0"/></symbol><symbol overflow="visible" id="bc42ec29h"><path d="M11.05-35.77a12.58 12.58 0 016.3-1.75c4.42 0 7.6 2.65 7.6 7.2 0 4.24-3.26 8.24-7.67 12.55L6.08-7.05c-1.2 1.13-2 2.25-2 3.53 0 2 1.44 3.52 3.28 3.52h22.08c1.6 0 2.97-1.36 2.97-3.05 0-1.6-1.36-2.87-2.97-2.87H12.72l9.05-8.4c4.71-4.4 9.59-9.45 9.59-16.24 0-7.85-5.28-12.49-13.36-12.49-3.2 0-6.88.9-9.52 2.17-1.92.96-2.96 2.16-3.28 4.8l-.4 3.85c-.32 2.3 1.04 3.28 2.72 3.28 1.53 0 2.64-.97 2.89-2.64zm0 0"/></symbol><symbol overflow="visible" id="bc42ec29i"><path d="M20.08-43.05c-8.72 0-15.2 7.28-15.2 21.85C4.88-6.56 11.36.72 20.07.72c8.8 0 15.2-7.28 15.2-21.92 0-14.57-6.4-21.85-15.2-21.85zm0 38.25c-5.13 0-8.8-4.64-8.8-16.4 0-11.75 3.67-16.32 8.8-16.32 5.2 0 8.72 4.57 8.72 16.32 0 11.76-3.52 16.4-8.72 16.4zm0 0"/></symbol><symbol overflow="visible" id="bc42ec29j"><path d="M3.77-2.95A2.95 2.95 0 006.72 0h20.8a2.9 2.9 0 002.96-2.95 2.9 2.9 0 00-2.96-2.9H20.8v-34.07a2.7 2.7 0 00-2.72-2.8h-1.03c-1.05 0-1.85.24-2.97.72l-8.4 4.16a2.8 2.8 0 00-1.52 2.48 2.68 2.68 0 002.64 2.72c.4 0 .8-.08 1.04-.23L14.41-36v30.16H6.7a2.94 2.94 0 00-2.94 2.89zm0 0"/></symbol><symbol overflow="visible" id="bc42ec29k"><path d="M13.36-36.48H26.8a2.95 2.95 0 002.97-2.96c0-1.6-1.36-2.87-2.97-2.87H10.72c-1.67 0-2.8 1.19-3.03 2.87l-2 14.4c-.17.73-.33 1.76-.33 2.32 0 1.77 1.36 3.2 3.28 3.2.48 0 1.2-.25 1.6-.32 1.92-.57 4.4-1.11 6.32-1.11 5.28 0 8.96 2.95 8.96 8.07 0 4.96-3.93 8.08-8.96 8.08-2.97 0-5.51-.89-8.56-2.33a3.23 3.23 0 00-1.2-.23 2.64 2.64 0 00-2.64 2.72c0 1.28.8 2.16 1.53 2.64C9.05-.08 13.69.72 17.05.72 25.12.72 32-4.41 32-12.95c0-8.1-5.77-13.2-14.72-13.2-1.84 0-4 .23-5.6.8zm0 0"/></symbol><symbol overflow="visible" id="bc42ec29l"><path d="M4 5.05a3.03 3.03 0 00-1.13 2.23c0 1.44 1.29 2.56 2.72 2.56 1.05 0 1.93-.8 2.49-1.2C15.59 3.2 20.23-8.48 20.23-21.2c0-12.57-4.64-24.32-12.15-29.85-.56-.39-1.44-1.18-2.49-1.18a2.74 2.74 0 00-2.71 2.71c0 .88.48 1.6 1.12 2.16 6.64 4.88 10.56 14.8 10.56 26.16C14.56-9.77 10.64.08 4 5.05zm0 0"/></symbol><symbol overflow="visible" id="bc42ec29m"><path d="M7.13-14.23c0 2 1.59 3.03 3.03 3.03a3.03 3.03 0 003.12-3.03l.4-24.9c.09-2.15-1.52-3.59-3.52-3.59s-3.52 1.44-3.52 3.67zM10.15.3c2.32 0 4-1.67 4-3.83 0-2.25-1.68-4-4-4a3.9 3.9 0 00-3.93 4A3.8 3.8 0 0010.16.31zm0 0"/></symbol><symbol overflow="visible" id="bc42ec29n"><path d="M3.83 0v-5.95H6.2v-.82H.45v.82h2.4V0zm0 0"/></symbol><symbol overflow="visible" id="bc42ec29o"><path d="M5.75-2.23v-.43c0-1.6-.9-2.51-2.42-2.51S.87-4.16.87-2.48c0 1.71.91 2.62 2.5 2.62 1.43 0 2.07-.56 2.29-1.52l-.9-.09c-.18.61-.59.9-1.35.9-.94 0-1.52-.54-1.58-1.66zm-2.4-2.2c.93 0 1.43.5 1.48 1.55H1.84c.08-1.07.6-1.56 1.5-1.56zm0 0"/></symbol><symbol overflow="visible" id="bc42ec29p"><path d="M1.83 0l1.42-2h.06l1.46 2H5.8L4-2.53l1.78-2.49H4.8L3.42-3.08h-.08l-1.4-1.94H.89l1.78 2.49L.84 0zm0 0"/></symbol><symbol overflow="visible" id="bc42ec29q"><path d="M5.52-4.25v-.77H3.17v-1.56h-.81l-.14 1.56H.75v.77h1.47v2.4c0 1.3.48 1.94 1.84 1.94C4.6.1 5.14 0 5.55-.14L5.4-.91c-.32.13-.72.2-1.13.2-.8 0-1.1-.37-1.1-1.23v-2.31zm0 0"/></symbol><symbol overflow="visible" id="bc42ec29r"><path d="M3.33-3.42c.47 0 .8-.27.8-.8 0-.51-.33-.8-.8-.8-.47 0-.8.29-.8.8 0 .53.33.8.8.8zm0 3.5c.47 0 .8-.27.8-.78 0-.53-.33-.82-.8-.82-.47 0-.8.29-.8.82 0 .51.33.78.8.78zm0 0"/></symbol><symbol overflow="visible" id="bc42ec29t"><path d="M5.42-3.63c-.15-.43-.51-.75-1.19-.75-.98 0-1.54.66-1.54 1.83 0 1.13.6 1.85 1.72 1.85 1.07 0 1.75-.61 1.75-1.93v-.65c0-2.06-.72-3.13-2.66-3.13C1.47-6.4.64-5.08.64-3.14v.94c0 2.06.92 3.26 3.22 3.26.6 0 1.22-.12 1.58-.28L5.3.25C4.94.41 4.42.5 3.86.5 1.96.5 1.3-.44 1.3-2.2v-.94c0-1.53.51-2.69 2.2-2.69 1.56 0 2.05.86 2.05 2.2zm-.98 2.35c-.69 0-1.02-.42-1.02-1.27 0-.86.33-1.23.99-1.23.7 0 1.01.44 1.01 1.22 0 .9-.36 1.28-.98 1.28zm0 0"/></symbol><symbol overflow="visible" id="bc42ec29u"><path d="M3.42.14c1.61 0 2.56-.75 2.56-2 0-1.1-.67-1.6-1.95-1.86l-.97-.2c-.87-.17-1.23-.49-1.23-1.11 0-.7.54-1.11 1.5-1.11 1.06 0 1.51.34 1.69 1.23l.9-.09c-.17-1.28-.98-1.9-2.6-1.9C1.79-6.9.9-6.18.9-4.98c0 1.06.66 1.66 1.88 1.9l1.01.2c.85.17 1.25.4 1.25 1.09 0 .73-.6 1.16-1.6 1.16-1.07 0-1.66-.4-1.8-1.24l-.94.1C.83-.53 1.75.13 3.42.13zm0 0"/></symbol><symbol overflow="visible" id="bc42ec29v"><path d="M2.06 1.9V-.84h.05c.28.58.8.97 1.77.97 1.5 0 2.2-.98 2.2-2.66 0-1.65-.7-2.64-2.19-2.64-.97 0-1.5.44-1.78 1.05h-.08l-.1-.9H1.1v6.9zm1.5-2.56c-1.06 0-1.53-.8-1.53-1.86 0-1.04.47-1.84 1.53-1.84 1.11 0 1.53.61 1.53 1.84 0 1.27-.42 1.86-1.53 1.86zm0 0"/></symbol><symbol overflow="visible" id="bc42ec29w"><path d="M2.83.14c.94 0 1.5-.39 1.81-.95h.08l.1.81h.76v-3.38c0-1.23-.69-1.8-2.13-1.8-1.43 0-2.03.65-2.18 1.6l.93.1c.11-.6.44-.93 1.22-.93.85 0 1.22.32 1.22 1.04v.34l-1.81.2C1.6-2.7 1.1-2.17 1.1-1.28c0 .92.64 1.42 1.72 1.42zm.25-.77c-.67 0-1.02-.28-1.02-.74 0-.44.28-.72 1-.82l1.58-.19v.41c0 .8-.6 1.34-1.56 1.34zm0 0"/></symbol><symbol overflow="visible" id="bc42ec29x"><path d="M3.34.14c1.43 0 2.13-.66 2.25-1.78l-.89-.1c-.1.7-.5 1.08-1.34 1.08-1.03 0-1.52-.64-1.52-1.84 0-1.23.47-1.86 1.52-1.86.84 0 1.23.36 1.34 1.08l.9-.1c-.13-1.09-.82-1.78-2.26-1.78-1.56 0-2.46.97-2.46 2.66 0 1.66.9 2.64 2.46 2.64zm0 0"/></symbol><symbol overflow="visible" id="bc42ec29y"><path d="M1.45-2.95c0 2.56 1.08 4.37 3.67 4.84l.11-.67C3.28.86 2.43-.75 2.43-2.95s.85-3.82 2.8-4.16l-.1-.69c-2.6.49-3.68 2.3-3.68 4.85zm0 0"/></symbol><symbol overflow="visible" id="bc42ec29z"><path d="M5.67 0v-.86H2.14V-.9L3.6-2c1.05-.83 2-1.68 2-2.91 0-1.19-.73-1.99-2.26-1.99-1.66 0-2.3 1.02-2.44 2.33l1 .08c.1-.92.42-1.58 1.44-1.58.87 0 1.26.44 1.26 1.24 0 .9-.8 1.53-1.96 2.53L.83-.81V0zm0 0"/></symbol><symbol overflow="visible" id="bc42ec29A"><path d="M3.33.14c1.65 0 2.6-1.1 2.6-3.52S4.99-6.9 3.34-6.9C1.67-6.9.72-5.8.72-3.37c0 2.4.95 3.51 2.6 3.51zm0-.84c-1.13 0-1.6-.85-1.6-2.67 0-1.86.47-2.7 1.6-2.7 1.12 0 1.6.84 1.6 2.7 0 1.82-.48 2.67-1.6 2.67zM3.3-2.64c.38 0 .56-.28.56-.72 0-.44-.18-.7-.56-.7-.39 0-.56.26-.56.7 0 .44.17.72.56.72zm0 0"/></symbol><symbol overflow="visible" id="bc42ec29B"><path d="M4.22-6.77h-.86l-2.03.7v.87c.64-.17 1.26-.38 1.89-.55v4.9H1.03V0h4.9v-.86H4.21zm0 0"/></symbol><symbol overflow="visible" id="bc42ec29C"><path d="M3.42.14c1.55 0 2.44-.84 2.44-2.33 0-1.45-.83-2.22-2.14-2.22-.75 0-1.28.27-1.67.72H2l.31-2.22h3.11v-.86H1.53l-.45 3.93h.81c.3-.36.9-.79 1.58-.79.92 0 1.44.43 1.44 1.47 0 .99-.54 1.5-1.49 1.5-.83 0-1.28-.32-1.5-1.01l-.95.1C1.07-.46 2 .13 3.42.13zm0 0"/></symbol><symbol overflow="visible" id="bc42ec29D"><path d="M1.45-7.1c1.96.33 2.8 1.94 2.8 4.15 0 2.2-.84 3.8-2.8 4.17l.11.67c2.58-.47 3.67-2.28 3.67-4.84 0-2.55-1.09-4.36-3.67-4.85zm0 0"/></symbol><symbol overflow="visible" id="bc42ec29E"><path d="M3.72-1.77l.1-2.56v-2.81h-.96v2.81l.08 2.56zM3.32.08c.37 0 .6-.2.6-.58 0-.38-.23-.58-.6-.58-.35 0-.57.2-.57.58 0 .38.22.58.58.58zm0 0"/></symbol><symbol overflow="visible" id="bc42ec29F"><path d="M5.95-6.77H1.1V0h.99v-2.92H5.3v-.77H2.08v-2.26h3.87zm0 0"/></symbol><symbol overflow="visible" id="bc42ec29G"><path d="M2.73.14c.9 0 1.43-.45 1.74-1.08h.06l.13.94h.8v-5.02h-.94v2.7c0 .98-.57 1.62-1.46 1.62-.75 0-1.1-.4-1.1-1.22v-3.1h-.93v3.32c0 1.17.55 1.84 1.7 1.84zm0 0"/></symbol><symbol overflow="visible" id="bc42ec29H"><path d="M5.08-5.16c-.94 0-1.58.43-1.9 1.3h-.09l-.07-1.16H1.05v.77h1.1v3.48H.96V0h3.96v-.77H3.1v-1.46c0-1.36.6-2.05 1.83-2.05.4 0 .76.08 1.1.17l.15-.87c-.33-.11-.7-.18-1.11-.18zm0 0"/></symbol><symbol overflow="visible" id="bc42ec29I"><path d="M1.63 0v-2.9c0-.8.15-1.4.71-1.4.41 0 .55.3.55.88V0h.95v-2.9c0-.8.18-1.4.72-1.4.4 0 .57.3.57.88V0h.95v-3.63c0-.92-.28-1.53-1.11-1.53-.63 0-.95.41-1.1.9h-.06c-.1-.52-.44-.9-1.08-.9-.6 0-.93.41-1.06.9H1.6l-.23-.76H.67V0zm0 0"/></symbol><symbol overflow="visible" id="bc42ec29J"><path d="M3.92-7.14H1.36v.76h1.6v5.61H1.15V0H5.7v-.77H3.92zm0 0"/></symbol><symbol overflow="visible" id="bc42ec29K"><path d="M3.58-5.81c.42 0 .72-.22.72-.67 0-.44-.3-.68-.72-.68-.44 0-.72.24-.72.68 0 .45.28.67.72.67zm.5.8H1.52v.76h1.6v3.48h-1.8V0h4.46v-.77h-1.7zm0 0"/></symbol><symbol overflow="visible" id="bc42ec29L"><path d="M3.36.16c1.4 0 2.2-.6 2.2-1.57 0-.89-.54-1.22-1.47-1.39L3-3c-.67-.14-.86-.33-.86-.73 0-.5.4-.74 1.17-.74.83 0 1.19.27 1.27.8l.9-.05c-.12-1-.8-1.47-2.17-1.47-1.34 0-2.1.53-2.1 1.5 0 .81.45 1.22 1.52 1.44l1.04.2c.56.11.87.24.87.72 0 .52-.45.78-1.28.78-.95 0-1.36-.28-1.42-.87l-.9.06C1.07-.36 1.8.16 3.35.16zm0 0"/></symbol><symbol overflow="visible" id="bc42ec29M"><path d="M5.4-1.22c.43-.66.66-1.51.66-2.44l-.83-.09c0 .75-.14 1.4-.4 1.92l-1.7-1.83c.8-.42 1.39-.96 1.39-1.86 0-.87-.66-1.4-1.61-1.4-1.14 0-1.72.62-1.72 1.47 0 .72.47 1.3.83 1.68-.8.41-1.52.99-1.52 2.1C.5-.44 1.52.14 2.7.14c.9 0 1.64-.3 2.2-.78l.58.64h1.05zM2.86-6.25c.44 0 .82.23.82.73 0 .7-.47 1.11-1 1.41-.47-.53-.67-.92-.67-1.34 0-.47.3-.8.85-.8zM2.81-.62c-.83 0-1.42-.41-1.42-1.18 0-.76.5-1.18 1.05-1.5l1.94 2.1c-.4.37-.91.57-1.57.57zm0 0"/></symbol></defs><g fill="#fff"><use xlink:href="#bc42ec29a" x="61.2" y="164"/><use xlink:href="#bc42ec29b" x="120.4" y="164"/><use xlink:href="#bc42ec29c" x="156.56" y="164"/><use xlink:href="#bc42ec29d" x="192" y="164"/><use xlink:href="#bc42ec29e" x="231.04" y="164"/><use xlink:href="#bc42ec29f" x="269.36" y="164"/><use xlink:href="#bc42ec29g" x="324.88" y="164"/><use xlink:href="#bc42ec29h" x="349.2" y="164"/><use xlink:href="#bc42ec29i" x="385.68" y="164"/><use xlink:href="#bc42ec29j" x="425.84" y="164"/><use xlink:href="#bc42ec29k" x="458.24" y="164"/><use xlink:href="#bc42ec29l" x="493.44" y="164"/><use xlink:href="#bc42ec29m" x="518.4" y="164"/><use xlink:href="#bc42ec29n" x="233.3333" y="252"/><use xlink:href="#bc42ec29o" x="240.0003" y="252"/><use xlink:href="#bc42ec29p" x="246.6673" y="252"/><use xlink:href="#bc42ec29q" x="253.3343" y="252"/><use xlink:href="#bc42ec29r" x="260.0013" y="252"/><use xlink:href="#bc42ec29s" x="266.6683" y="252"/><use xlink:href="#bc42ec29t" x="273.3353" y="252"/><use xlink:href="#bc42ec29u" x="280.0023" y="252"/><use xlink:href="#bc42ec29v" x="286.6693" y="252"/><use xlink:href="#bc42ec29w" x="293.3363" y="252"/><use xlink:href="#bc42ec29x" x="300.0033" y="252"/><use xlink:href="#bc42ec29o" x="306.6703" y="252"/><use xlink:href="#bc42ec29s" x="313.3373" y="252"/><use xlink:href="#bc42ec29y" x="320.0043" y="252"/><use xlink:href="#bc42ec29z" x="326.6713" y="252"/><use xlink:href="#bc42ec29A" x="333.3383" y="252"/><use xlink:href="#bc42ec29B" x="340.0053" y="252"/><use xlink:href="#bc42ec29C" x="346.6723" y="252"/><use xlink:href="#bc42ec29D" x="353.3393" y="252"/><use xlink:href="#bc42ec29E" x="360.0063" y="252"/><g><use xlink:href="#bc42ec29F" x="176.6667" y="266"/><use xlink:href="#bc42ec29o" x="183.3337" y="266"/><use xlink:href="#bc42ec29w" x="190.0007" y="266"/><use xlink:href="#bc42ec29q" x="196.6677" y="266"/><use xlink:href="#bc42ec29G" x="203.3347" y="266"/><use xlink:href="#bc42ec29H" x="210.0017" y="266"/><use xlink:href="#bc42ec29o" x="216.6687" y="266"/><use xlink:href="#bc42ec29r" x="223.3357" y="266"/><use xlink:href="#bc42ec29s" x="230.0027" y="266"/><use xlink:href="#bc42ec29u" x="236.6697" y="266"/><use xlink:href="#bc42ec29I" x="243.3367" y="266"/><use xlink:href="#bc42ec29w" x="250.0037" y="266"/><use xlink:href="#bc42ec29J" x="256.6707" y="266"/><use xlink:href="#bc42ec29J" x="263.3377" y="266"/><use xlink:href="#bc42ec29s" x="270.0047" y="266"/><use xlink:href="#bc42ec29x" x="276.6717" y="266"/><use xlink:href="#bc42ec29w" x="283.3387" y="266"/><use xlink:href="#bc42ec29v" x="290.0057" y="266"/><use xlink:href="#bc42ec29K" x="296.6727" y="266"/><use xlink:href="#bc42ec29q" x="303.3397" y="266"/><use xlink:href="#bc42ec29w" x="310.0067" y="266"/><use xlink:href="#bc42ec29J" x="316.6737" y="266"/><use xlink:href="#bc42ec29L" x="323.3407" y="266"/><use xlink:href="#bc42ec29s" x="330.0077" y="266"/><use xlink:href="#bc42ec29y" x="336.6747" y="266"/><use xlink:href="#bc42ec29L" x="343.3417" y="266"/><use xlink:href="#bc42ec29I" x="350.0087" y="266"/><use xlink:href="#bc42ec29x" x="356.6757" y="266"/><use xlink:href="#bc42ec29v" x="363.3427" y="266"/><use xlink:href="#bc42ec29s" x="370.0097" y="266"/><use xlink:href="#bc42ec29M" x="376.6767" y="266"/><use xlink:href="#bc42ec29s" x="383.3437" y="266"/><use xlink:href="#bc42ec29x" x="390.0107" y="266"/><use xlink:href="#bc42ec29z" x="396.6777" y="266"/><use xlink:href="#bc42ec29L" x="403.3447" y="266"/><use xlink:href="#bc42ec29x" x="410.0117" y="266"/><use xlink:href="#bc42ec29D" x="416.6787" y="266"/></g></g></svg>