<?xml version='1.0' encoding='UTF-8'?>
<svg xmlns="http://www.w3.org/2000/svg" xmlns:xlink="http://www.w3.org/1999/xlink" width="600px" height="300px" viewBox="0 0 600 300" x="0px" y="0px" enable-background="new 0 0 600 300"><defs><symbol overflow="visible" id="687c052aa"><path d="M11.36-44.08a15.41 15.41 0 018-2.33c5.6 0 9.52 3.7 9.52 9.7 0 5.35-3.68 10.23-8.96 15.59L6.16-7.78C4.72-6.48 3.92-5.28 3.92-3.84 3.92-1.7 5.44 0 7.52 0h25.84c1.6 0 2.95-1.36 2.95-3.05A2.9 2.9 0 0033.36-6H12.88L24.4-16.8c5.82-5.51 11.18-12 11.18-19.92 0-10-6.54-15.6-16.23-15.6-3.28 0-7.77.8-10.95 2.8-1.7 1.04-2.97 2.24-3.13 4.8l-.4 4.64c-.16 2.64 1.35 3.67 2.96 3.67 1.68 0 2.88-1.18 3.04-2.95zm0 0"/></symbol><symbol overflow="visible" id="687c052ab"><path d="M14.56-45.6h16.16c1.6 0 2.97-1.35 2.97-3.04 0-1.6-1.28-2.95-2.97-2.95H11.59c-1.59 0-2.8 1.18-2.95 2.64L6.08-30.48c-.16.71-.31 2.07-.31 2.71 0 2 1.36 3.46 3.36 3.46.46 0 1.18-.17 1.82-.33C13.44-25.36 16-26 18.23-26c6.9 0 11.13 3.69 11.13 10.16 0 6.96-5.36 10.71-10.88 10.71-3.68 0-6.4-1.03-8.8-2.15-.96-.4-1.84-1.03-2.88-1.03a2.97 2.97 0 00-2.96 3.03c0 1.6 1.2 2.48 2.4 3.12C9.68-.3 14.86.8 18.71.8 28 .8 36.08-5.6 36.08-15.84c0-9.68-6.4-16-17.13-16-2 0-4.39.25-6.39.96zm0 0"/></symbol><symbol overflow="visible" id="687c052ad"><path d="M15.69-48.72l-5.05 7.03c-.48.74-.64.97-.64 1.69s.64 1.52 1.84 1.52c3.75 0 5.68 2.25 5.68 4.8s-2 4.63-5.36 4.63c-1.6 0-3.04-.15-4.96-1.1a3.34 3.34 0 00-1.43-.5c-1.13 0-1.93.88-1.93 2 0 1.06.57 1.7 1.2 2a15.6 15.6 0 007.2 1.7c6.17 0 10.07-3.7 10.07-8.74 0-3.83-2.62-7.03-7.1-7.67l5.35-7.52c.4-.48.64-1.2.64-1.84 0-1.44-1.2-2.33-2.64-2.33H7.28c-1.36 0-2.23 1.13-2.4 2.4l-.4 3.85c-.17 1.44.88 2.32 1.93 2.32.95 0 1.82-.57 2-1.75l.39-2.49zm30.72-1.12c.3-.4.54-1.03.54-1.44 0-1.03-.87-2-1.83-2-.96 0-1.43.4-1.84.97L13.05-2.56c-.18.33-.57.97-.57 1.44 0 1.04.88 1.92 1.93 1.92a1.9 1.9 0 001.75-.96zm2.07 39.76h-7.43l6.08-13.51c.23-.64.64-1.46.64-2 0-1.2-.97-2.18-2.33-2.18-.88 0-1.6.57-2 1.46l-7.03 15.9a5.52 5.52 0 00-.57 2.1c0 1.36 1.03 2.39 2.4 2.39h10.24v3.69A2.26 2.26 0 0050.8.07c1.28 0 2.33-.95 2.33-2.3v-3.7h1.59c1.2 0 2.08-.87 2.08-2.07 0-1.2-.88-2.08-2.08-2.08h-1.6v-6a2.32 2.32 0 10-4.64 0zm0 0"/></symbol><symbol overflow="visible" id="687c052ae"><path d="M11.44-29.44h-4.4c-1.2 0-2.17.96-2.17 2.16 0 1.12.97 2.08 2.18 2.08h12.64a2.12 2.12 0 000-4.24H16v-21.51c0-1.13-.88-2.1-2.08-2.1h-.56c-.8 0-1.28.17-2.16.57L6-49.68a2.23 2.23 0 00-1.28 1.91 2 2 0 002.08 2c.25 0 .64 0 .97-.23l3.67-2zm0 0"/></symbol><symbol overflow="visible" id="687c052af"><path d="M5.05-30.08c-.74.64-1.28 1.44-1.28 2.49 0 1.28 1.03 2.39 2.3 2.39h14c1.21 0 2.16-.96 2.16-2.08 0-1.13-.95-2.08-2.15-2.08H9.68L16-35.05c3.28-2.87 5.77-6 5.77-10 0-5.18-3.93-8.23-8.97-8.23-1.68 0-4.08.56-5.75 1.44-1.36.72-2.25 1.43-2.4 2.97l-.34 2.64c-.15 1.51.9 2.39 1.92 2.39.97 0 1.85-.57 2.08-1.75l.4-2.57a8.77 8.77 0 014.09-1.12c2.64 0 4.4 1.44 4.4 4.23 0 2.82-1.68 4.9-4.15 7.2zm0 0"/></symbol><symbol overflow="visible" id="687c052ag"><path d="M20.08-49.84c.33-.4.56-1.03.56-1.44 0-1.03-.87-2-1.84-2-.96 0-1.44.4-1.85.97L-13.28-2.56c-.16.33-.56.97-.56 1.44 0 1.04.89 1.92 1.92 1.92.72 0 1.28-.24 1.76-.96zm0 0"/></symbol><symbol overflow="visible" id="687c052ah"><path d="M17.44-23.36L8.48-3.84c-.32.64-.56 1.2-.56 1.68C7.92-.8 9.05.08 10.32.08c1.04 0 1.84-.72 2.24-1.52l9.92-22.48a4.2 4.2 0 00.32-1.36c0-1.44-1.2-2.49-2.57-2.49H6.48c-1.28 0-2.25 1.13-2.4 2.41l-.24 3.6c-.15 1.45.8 2.32 1.93 2.32.95 0 1.82-.56 2.07-1.76l.24-2.16zm0 0"/></symbol><symbol overflow="visible" id="687c052ai"><path d="M12.88-28c-5.6 0-9.44 4-9.44 8.95 0 5.93 4.4 8.82 8.8 8.82 1.35 0 4-.49 5.92-2.33-.64 5.28-4.4 8.25-10.47 8.8-1.13.07-1.92.88-1.92 2S6.57.3 7.92.3c.56 0 1.2-.08 1.85-.15C19.2-1.36 22.8-8 22.8-15.28c0-8.24-4-12.72-9.93-12.72zm5.35 11.6a7.95 7.95 0 01-5.36 2.48C10.16-13.92 8-15.77 8-19.2a4.88 4.88 0 014.88-5.03c3.84 0 5.35 3.92 5.35 7.82zm0 0"/></symbol><symbol overflow="visible" id="687c052aj"><path d="M9.84-48.72h8.88c1.2 0 2.16-.97 2.16-2.16 0-1.2-.96-2.17-2.16-2.17H8.08c-1.2 0-2 .97-2.16 2.17l-1.36 9.76c-.25 1.53.8 2.56 2.24 2.56.48 0 1.12-.16 1.6-.31 1.2-.41 2.55-.65 4-.65 3.2 0 5.6 1.83 5.6 5.29a5.23 5.23 0 01-5.44 5.18c-1.92 0-3.28-.3-5.04-1.1-.4-.26-.88-.5-1.52-.5-1.05 0-1.92.88-1.92 2 0 1.06.64 1.7 1.28 2a15.7 15.7 0 007.28 1.7c6 0 10.16-4 10.16-9.28 0-5.36-3.85-8.97-10.08-8.97-1.13 0-2.49.25-3.77.56zm0 0"/></symbol><symbol overflow="visible" id="687c052ak"><path d="M3.83 0v-5.95H6.2v-.82H.45v.82h2.4V0zm0 0"/></symbol><symbol overflow="visible" id="687c052al"><path d="M5.75-2.23v-.43c0-1.6-.9-2.51-2.42-2.51S.87-4.16.87-2.48c0 1.71.91 2.62 2.5 2.62 1.43 0 2.07-.56 2.29-1.52l-.9-.09c-.18.61-.59.9-1.35.9-.94 0-1.52-.54-1.58-1.66zm-2.4-2.2c.93 0 1.43.5 1.48 1.55H1.84c.08-1.07.6-1.56 1.5-1.56zm0 0"/></symbol><symbol overflow="visible" id="687c052am"><path d="M1.83 0l1.42-2h.06l1.46 2H5.8L4-2.53l1.78-2.49H4.8L3.42-3.08h-.08l-1.4-1.94H.89l1.78 2.49L.84 0zm0 0"/></symbol><symbol overflow="visible" id="687c052an"><path d="M5.52-4.25v-.77H3.17v-1.56h-.81l-.14 1.56H.75v.77h1.47v2.4c0 1.3.48 1.94 1.84 1.94C4.6.1 5.14 0 5.55-.14L5.4-.91c-.32.13-.72.2-1.13.2-.8 0-1.1-.37-1.1-1.23v-2.31zm0 0"/></symbol><symbol overflow="visible" id="687c052ao"><path d="M3.33-3.42c.47 0 .8-.27.8-.8 0-.51-.33-.8-.8-.8-.47 0-.8.29-.8.8 0 .53.33.8.8.8zm0 3.5c.47 0 .8-.27.8-.78 0-.53-.33-.82-.8-.82-.47 0-.8.29-.8.82 0 .51.33.78.8.78zm0 0"/></symbol><symbol overflow="visible" id="687c052aq"><path d="M5.67 0v-.86H2.14V-.9L3.6-2c1.05-.83 2-1.68 2-2.91 0-1.19-.73-1.99-2.26-1.99-1.66 0-2.3 1.02-2.44 2.33l1 .08c.1-.92.42-1.58 1.44-1.58.87 0 1.26.44 1.26 1.24 0 .9-.8 1.53-1.96 2.53L.83-.81V0zm0 0"/></symbol><symbol overflow="visible" id="687c052ar"><path d="M3.42.14c1.55 0 2.44-.84 2.44-2.33 0-1.45-.83-2.22-2.14-2.22-.75 0-1.28.27-1.67.72H2l.31-2.22h3.11v-.86H1.53l-.45 3.93h.81c.3-.36.9-.79 1.58-.79.92 0 1.44.43 1.44 1.47 0 .99-.54 1.5-1.49 1.5-.83 0-1.28-.32-1.5-1.01l-.95.1C1.07-.46 2 .13 3.42.13zm0 0"/></symbol><symbol overflow="visible" id="687c052as"><path d="M3.25.14c1.58 0 2.53-.69 2.53-1.95 0-1.19-.92-1.56-1.6-1.61v-.05A1.6 1.6 0 005.6-5.12c0-1.13-.87-1.79-2.3-1.79-1.62 0-2.32.82-2.45 1.88l.97.06c.13-.69.52-1.1 1.47-1.1.86 0 1.35.32 1.35 1.05 0 .86-.6 1.2-1.66 1.2h-.49v.79h.54c1.12 0 1.78.25 1.78 1.14 0 .78-.46 1.22-1.55 1.22-1.06 0-1.48-.4-1.63-1.1l-.98.07C.75-.56 1.56.14 3.25.14zm0 0"/></symbol><symbol overflow="visible" id="687c052at"><path d="M2.58.95l2.39-8.67h-.9L1.7.95zm0 0"/></symbol><symbol overflow="visible" id="687c052au"><path d="M5.1 0v-1.47H6v-.81h-.9v-4.49H3.8L.48-2.23v.76h3.66V0zM1.5-2.33l2.6-3.53h.04v3.58H1.5zm0 0"/></symbol><symbol overflow="visible" id="687c052av"><path d="M4.22-6.77h-.86l-2.03.7v.87c.64-.17 1.26-.38 1.89-.55v4.9H1.03V0h4.9v-.86H4.21zm0 0"/></symbol><symbol overflow="visible" id="687c052aw"><path d="M.92-4.42h.88v-1.49h3.1v.05L2.27 0H3.3l2.64-6v-.77H.92zm0 0"/></symbol><symbol overflow="visible" id="687c052ax"><path d="M3.25-6.9C1.67-6.9.77-6.04.77-4.6c0 1.41.85 2.18 2.21 2.18 1.04 0 1.58-.52 1.88-1.03h.06c0 1.54-.39 2.78-1.73 2.78-.9 0-1.24-.44-1.36-.97l-.97.1c.22.96.86 1.68 2.33 1.68C4.83.14 5.8-.9 5.8-3.64c0-2.22-.92-3.27-2.56-3.27zm-.02.8c.91 0 1.46.52 1.46 1.44 0 .91-.69 1.47-1.53 1.47-.91 0-1.46-.51-1.46-1.47S2.3-6.1 3.23-6.1zm0 0"/></symbol><symbol overflow="visible" id="687c052ay"><path d="M5.95-6.77H1.1V0h.99v-2.92H5.3v-.77H2.08v-2.26h3.87zm0 0"/></symbol><symbol overflow="visible" id="687c052az"><path d="M2.83.14c.94 0 1.5-.39 1.81-.95h.08l.1.81h.76v-3.38c0-1.23-.69-1.8-2.13-1.8-1.43 0-2.03.65-2.18 1.6l.93.1c.11-.6.44-.93 1.22-.93.85 0 1.22.32 1.22 1.04v.34l-1.81.2C1.6-2.7 1.1-2.17 1.1-1.28c0 .92.64 1.42 1.72 1.42zm.25-.77c-.67 0-1.02-.28-1.02-.74 0-.44.28-.72 1-.82l1.58-.19v.41c0 .8-.6 1.34-1.56 1.34zm0 0"/></symbol><symbol overflow="visible" id="687c052aA"><path d="M2.73.14c.9 0 1.43-.45 1.74-1.08h.06l.13.94h.8v-5.02h-.94v2.7c0 .98-.57 1.62-1.46 1.62-.75 0-1.1-.4-1.1-1.22v-3.1h-.93v3.32c0 1.17.55 1.84 1.7 1.84zm0 0"/></symbol><symbol overflow="visible" id="687c052aB"><path d="M5.08-5.16c-.94 0-1.58.43-1.9 1.3h-.09l-.07-1.16H1.05v.77h1.1v3.48H.96V0h3.96v-.77H3.1v-1.46c0-1.36.6-2.05 1.83-2.05.4 0 .76.08 1.1.17l.15-.87c-.33-.11-.7-.18-1.11-.18zm0 0"/></symbol><symbol overflow="visible" id="687c052aC"><path d="M3.34.14c1.43 0 2.13-.66 2.25-1.78l-.89-.1c-.1.7-.5 1.08-1.34 1.08-1.03 0-1.52-.64-1.52-1.84 0-1.23.47-1.86 1.52-1.86.84 0 1.23.36 1.34 1.08l.9-.1c-.13-1.09-.82-1.78-2.26-1.78-1.56 0-2.46.97-2.46 2.66 0 1.66.9 2.64 2.46 2.64zm0 0"/></symbol><symbol overflow="visible" id="687c052aD"><path d="M3.58-5.81c.42 0 .72-.22.72-.67 0-.44-.3-.68-.72-.68-.44 0-.72.24-.72.68 0 .45.28.67.72.67zm.5.8H1.52v.76h1.6v3.48h-1.8V0h4.46v-.77h-1.7zm0 0"/></symbol><symbol overflow="visible" id="687c052aE"><path d="M3.33.14c1.62 0 2.5-.95 2.5-2.66 0-1.68-.88-2.64-2.5-2.64-1.63 0-2.5.96-2.5 2.64 0 1.7.87 2.66 2.5 2.66zm0-.77c-1.06 0-1.52-.6-1.52-1.89 0-1.28.46-1.87 1.52-1.87 1.08 0 1.53.6 1.53 1.87 0 1.29-.45 1.9-1.53 1.9zm0 0"/></symbol><symbol overflow="visible" id="687c052aF"><path d="M2.16 0v-2.67c0-.99.59-1.63 1.46-1.63.74 0 1.07.38 1.07 1.22V0h.95v-3.31c0-1.2-.56-1.85-1.67-1.85-.92 0-1.49.46-1.77 1.08h-.06l-.12-.94H1.2V0zm0 0"/></symbol><symbol overflow="visible" id="687c052aG"><path d="M3.36.16c1.4 0 2.2-.6 2.2-1.57 0-.89-.54-1.22-1.47-1.39L3-3c-.67-.14-.86-.33-.86-.73 0-.5.4-.74 1.17-.74.83 0 1.19.27 1.27.8l.9-.05c-.12-1-.8-1.47-2.17-1.47-1.34 0-2.1.53-2.1 1.5 0 .81.45 1.22 1.52 1.44l1.04.2c.56.11.87.24.87.72 0 .52-.45.78-1.28.78-.95 0-1.36-.28-1.42-.87l-.9.06C1.07-.36 1.8.16 3.35.16zm0 0"/></symbol><symbol overflow="visible" id="687c052aH"><path d="M1.45-2.95c0 2.56 1.08 4.37 3.67 4.84l.11-.67C3.28.86 2.43-.75 2.43-2.95s.85-3.82 2.8-4.16l-.1-.69c-2.6.49-3.68 2.3-3.68 4.85zm0 0"/></symbol><symbol overflow="visible" id="687c052aI"><path d="M4.63-6.5c.45 0 .98.08 1.39.2l.2-.72a5.3 5.3 0 00-1.64-.26c-1.52 0-2.16.56-2.16 1.87v.4H.9v.76h1.53V0h.94v-4.25h2.53v-.77H3.36v-.3c0-.84.33-1.18 1.27-1.18zm0 0"/></symbol><symbol overflow="visible" id="687c052aJ"><path d="M1.45-7.1c1.96.33 2.8 1.94 2.8 4.15 0 2.2-.84 3.8-2.8 4.17l.11.67c2.58-.47 3.67-2.28 3.67-4.84 0-2.55-1.09-4.36-3.67-4.85zm0 0"/></symbol></defs><g fill="#515151"><use xlink:href="#687c052aa" x="115.2" y="164"/><use xlink:href="#687c052ab" x="155.76" y="164"/><use xlink:href="#687c052ac" x="195.84" y="164"/></g><use xlink:href="#687c052ad" x="215.2" y="164" fill="#fff"/><use xlink:href="#687c052ae" x="293.92" y="164" fill="#fff"/><use xlink:href="#687c052af" x="320.24" y="164" fill="#fff"/><use xlink:href="#687c052ag" x="346.56" y="164" fill="#fff"/><use xlink:href="#687c052ah" x="353.36" y="164" fill="#fff"/><use xlink:href="#687c052ai" x="379.68" y="164" fill="#fff"/><use xlink:href="#687c052aj" x="425.36" y="164" fill="#fff"/><use xlink:href="#687c052ag" x="451.68" y="164" fill="#fff"/><use xlink:href="#687c052ai" x="458.48" y="164" fill="#fff"/><g fill="#fff"><use xlink:href="#687c052ak" x="226.6667" y="252"/><use xlink:href="#687c052al" x="233.3337" y="252"/><use xlink:href="#687c052am" x="240.0007" y="252"/><use xlink:href="#687c052an" x="246.6677" y="252"/><use xlink:href="#687c052ao" x="253.3347" y="252"/><use xlink:href="#687c052ap" x="260.0017" y="252"/><use xlink:href="#687c052aq" x="266.6687" y="252"/><use xlink:href="#687c052ar" x="273.3357" y="252"/><use xlink:href="#687c052ap" x="280.0027" y="252"/><use xlink:href="#687c052as" x="286.6697" y="252"/><use xlink:href="#687c052at" x="293.3367" y="252"/><use xlink:href="#687c052au" x="300.0037" y="252"/><use xlink:href="#687c052ap" x="306.6707" y="252"/><use xlink:href="#687c052av" x="313.3377" y="252"/><use xlink:href="#687c052aq" x="320.0047" y="252"/><use xlink:href="#687c052at" x="326.6717" y="252"/><use xlink:href="#687c052aw" x="333.3387" y="252"/><use xlink:href="#687c052ax" x="340.0057" y="252"/><use xlink:href="#687c052ap" x="346.6727" y="252"/><use xlink:href="#687c052ar" x="353.3397" y="252"/><use xlink:href="#687c052at" x="360.0067" y="252"/><use xlink:href="#687c052ax" x="366.6737" y="252"/></g><g fill="#fff"><use xlink:href="#687c052ay" x="216.6667" y="266"/><use xlink:href="#687c052al" x="223.3337" y="266"/><use xlink:href="#687c052az" x="230.0007" y="266"/><use xlink:href="#687c052an" x="236.6677" y="266"/><use xlink:href="#687c052aA" x="243.3347" y="266"/><use xlink:href="#687c052aB" x="250.0017" y="266"/><use xlink:href="#687c052al" x="256.6687" y="266"/><use xlink:href="#687c052ao" x="263.3357" y="266"/><use xlink:href="#687c052ap" x="270.0027" y="266"/><use xlink:href="#687c052ay" x="276.6697" y="266"/><use xlink:href="#687c052aB" x="283.3367" y="266"/><use xlink:href="#687c052az" x="290.0037" y="266"/><use xlink:href="#687c052aC" x="296.6707" y="266"/><use xlink:href="#687c052an" x="303.3377" y="266"/><use xlink:href="#687c052aD" x="310.0047" y="266"/><use xlink:href="#687c052aE" x="316.6717" y="266"/><use xlink:href="#687c052aF" x="323.3387" y="266"/><use xlink:href="#687c052aG" x="330.0057" y="266"/><use xlink:href="#687c052ap" x="336.6727" y="266"/><use xlink:href="#687c052aH" x="343.3397" y="266"/><use xlink:href="#687c052aI" x="350.0067" y="266"/><use xlink:href="#687c052aB" x="356.6737" y="266"/><use xlink:href="#687c052az" x="363.3407" y="266"/><use xlink:href="#687c052aC" x="370.0077" y="266"/><use xlink:href="#687c052aJ" x="376.6747" y="266"/></g></svg>