<?xml version='1.0' encoding='UTF-8'?>
<svg xmlns="http://www.w3.org/2000/svg" xmlns:xlink="http://www.w3.org/1999/xlink" width="600px" height="300px" viewBox="0 0 600 300" x="0px" y="0px" enable-background="new 0 0 600 300"><defs><symbol overflow="visible" id="589ccf96a"><path d="M34.95-45.84l.57 4.4c.25 2 1.6 3.03 3.2 3.03 1.76 0 3.12-1.1 2.97-3.82l-.4-3.46c-.24-3.1-1.77-4.87-4.41-6.08-2.8-1.35-7.04-2.3-11.11-2.3-15.05 0-20.97 12.38-20.97 27.5C4.8-10.71 11.2.8 26 .8c4.31 0 10.23-1.28 13.52-3.44 1.43-.88 2.17-1.92 2.17-3.13a2.78 2.78 0 00-2.9-2.87c-1.1 0-2.3.72-3.43 1.2a20 20 0 01-8.95 2.16c-11.05 0-14.9-8.8-14.9-21.13 0-11.82 3.44-21.67 14.49-21.67 3.05 0 6.56.88 8.95 2.24zm0 0"/></symbol><symbol overflow="visible" id="589ccf96b"><path d="M6.95-3.36A3.29 3.29 0 0010.31 0h24.17a3.02 3.02 0 003.04-2.95A3.04 3.04 0 0034.48-6h-20.8v-18.72h16.96a2.95 2.95 0 000-5.92H13.7v-16.64H34.4a3 3 0 000-6H10.3a3.29 3.29 0 00-3.36 3.36zm0 0"/></symbol><symbol overflow="visible" id="589ccf96c"><path d="M6.95-3.36A3.29 3.29 0 0010.31 0h22.81a3.02 3.02 0 003.04-2.95A3.04 3.04 0 0033.13-6H13.68v-44.31a3.3 3.3 0 00-3.38-3.38 3.3 3.3 0 00-3.36 3.38zm0 0"/></symbol><symbol overflow="visible" id="589ccf96d"><path d="M-6.95-33.44a4.56 4.56 0 10-.01 9.13 4.56 4.56 0 000-9.13zm0 0"/></symbol><symbol overflow="visible" id="589ccf96e"><path d="M3.05-4.56a5.6 5.6 0 00-.33 1.68A3.32 3.32 0 006.08.42C7.59.4 8.88-.5 9.28-2l3.2-10.8h20.96L36.64-2a3.26 3.26 0 003.2 2.4 3.32 3.32 0 003.36-3.27c0-.41-.08-.9-.33-1.7L29.37-48.47c-1.05-3.75-2.64-5.2-6.31-5.2-3.53 0-5.36 1.52-6.4 5.2zm19.75-43.2h.4l8.64 29.45H14.08zm0 0"/></symbol><symbol overflow="visible" id="589ccf96g"><path d="M28.4-28.31c.24 1.9 1.44 3.03 3.12 3.03 1.84 0 3.2-1.52 2.89-3.92l-.33-3.44c-.24-2-.72-3.13-2.49-4.23-2.64-1.7-6.64-2.57-9.75-2.57-11.2 0-17.43 7.44-17.43 20.08C4.4-7.44 10.3.8 21.84.8c2.47 0 7.2-.64 10.24-2.08 1.36-.64 2.48-1.44 2.48-2.95 0-1.29-.87-2.64-2.64-2.64-1.05 0-2.4.56-3.76.95a20.11 20.11 0 01-6.32 1.12c-7.28 0-10.64-6-10.64-14.56 0-8.87 3.28-14.56 10.64-14.56 2 0 4.24.56 6 1.6zm0 0"/></symbol><symbol overflow="visible" id="589ccf96h"><path d="M11.2-17.77h22.16c1.52 0 2.64-.71 2.64-3.59 0-11.52-4.88-18.08-15.2-18.08-10.57 0-16.32 7.52-16.32 20C4.48-7.36 10.16.8 22.16.8c2.8 0 7.43-.64 10.4-2.08 1.28-.72 2.49-1.44 2.49-2.88 0-1.28-.97-2.56-2.74-2.56-1.26 0-2.47.56-3.9.95-1.93.57-4 1.05-6.25 1.05-7.85 0-10.96-5.69-10.96-13.05zm0-4.64c.4-6.23 3.36-11.51 9.6-11.51 6.64 0 8.8 4.8 8.97 11.51zm0 0"/></symbol><symbol overflow="visible" id="589ccf96i"><path d="M1.36-2.8c0 1.52 1.2 2.8 2.72 2.8H24.8c1.6 0 2.8-1.28 2.8-2.8a2.8 2.8 0 00-2.8-2.89h-6.96V-54a2.92 2.92 0 00-2.89-2.88H4.31A2.8 2.8 0 001.51-54c0 1.52 1.2 2.8 2.8 2.8h6.82V-5.7H4.08c-1.52 0-2.72 1.28-2.72 2.9zm0 0"/></symbol><symbol overflow="visible" id="589ccf96j"><path d="M2.23-33.52a4.72 4.72 0 00-4.71 4.65 4.79 4.79 0 004.71 4.71 4.76 4.76 0 004.64-4.71 4.7 4.7 0 00-4.64-4.65zm0 0"/></symbol><symbol overflow="visible" id="589ccf96k"><path d="M27.13-8.95C23.84-6 20-4.8 17.27-4.8c-4.56 0-7.2-2.33-7.2-6.25 0-4 2.87-6.15 8.48-6.15h8.57zm0-13.05H18.3c-9.26 0-14.8 4.16-14.8 11.36C3.52-3.7 8.42.8 15.93.8 21.05.8 25.28-1.6 28-4.16l.56 2.32A2.93 2.93 0 0031.6.4c2 0 3.05-1.36 3.05-2.97 0-1.44-.8-2.96-.8-7.52v-15.76c0-6.88-3.36-13.6-14.64-13.6-3.04 0-7.68.64-10.56 2.08-1.52.8-2.33 1.6-2.33 2.8 0 1.36.97 2.72 2.82 2.72 1.03 0 2.3-.57 3.67-.96a18.88 18.88 0 015.84-1.12c6.48 0 8.48 3.6 8.48 8.08zm0 0"/></symbol><symbol overflow="visible" id="589ccf96l"><path d="M3.83 0v-5.95H6.2v-.82H.45v.82h2.4V0zm0 0"/></symbol><symbol overflow="visible" id="589ccf96m"><path d="M5.75-2.23v-.43c0-1.6-.9-2.51-2.42-2.51S.87-4.16.87-2.48c0 1.71.91 2.62 2.5 2.62 1.43 0 2.07-.56 2.29-1.52l-.9-.09c-.18.61-.59.9-1.35.9-.94 0-1.52-.54-1.58-1.66zm-2.4-2.2c.93 0 1.43.5 1.48 1.55H1.84c.08-1.07.6-1.56 1.5-1.56zm0 0"/></symbol><symbol overflow="visible" id="589ccf96n"><path d="M1.83 0l1.42-2h.06l1.46 2H5.8L4-2.53l1.78-2.49H4.8L3.42-3.08h-.08l-1.4-1.94H.89l1.78 2.49L.84 0zm0 0"/></symbol><symbol overflow="visible" id="589ccf96o"><path d="M5.52-4.25v-.77H3.17v-1.56h-.81l-.14 1.56H.75v.77h1.47v2.4c0 1.3.48 1.94 1.84 1.94C4.6.1 5.14 0 5.55-.14L5.4-.91c-.32.13-.72.2-1.13.2-.8 0-1.1-.37-1.1-1.23v-2.31zm0 0"/></symbol><symbol overflow="visible" id="589ccf96p"><path d="M3.33-3.42c.47 0 .8-.27.8-.8 0-.51-.33-.8-.8-.8-.47 0-.8.29-.8.8 0 .53.33.8.8.8zm0 3.5c.47 0 .8-.27.8-.78 0-.53-.33-.82-.8-.82-.47 0-.8.29-.8.82 0 .51.33.78.8.78zm0 0"/></symbol><symbol overflow="visible" id="589ccf96r"><path d="M3.42.14C5.1.14 5.9-.69 6.11-2.17l-.95-.1C4.96-1.19 4.5-.69 3.44-.69c-1.27 0-1.81-.94-1.81-2.69s.54-2.7 1.8-2.7c1.09 0 1.5.49 1.73 1.58l.93-.1c-.21-1.46-.95-2.3-2.62-2.3C1.53-6.9.62-5.6.62-3.38c0 2.2.91 3.51 2.8 3.51zm0 0"/></symbol><symbol overflow="visible" id="589ccf96s"><path d="M5.92-6.77H1.1V0h4.83v-.8H2.06v-2.26h3.22v-.75H2.06v-2.16h3.86zm0 0"/></symbol><symbol overflow="visible" id="589ccf96t"><path d="M2.08-6.77h-.99V0h4.79v-.81h-3.8zm0 0"/></symbol><symbol overflow="visible" id="589ccf96u"><path d="M3.33-1.98c.51 0 .83-.27.83-.8 0-.56-.32-.83-.83-.83-.52 0-.81.27-.81.83 0 .53.3.8.8.8zm0 0"/></symbol><symbol overflow="visible" id="589ccf96v"><path d="M6.17 0L3.98-6.77h-1.3L.5 0h.97l.44-1.47h2.78L5.16 0zM3.28-5.94h.08l1.1 3.74H2.15zm0 0"/></symbol><symbol overflow="visible" id="589ccf96w"><path d="M3.34.14c1.43 0 2.13-.66 2.25-1.78l-.89-.1c-.1.7-.5 1.08-1.34 1.08-1.03 0-1.52-.64-1.52-1.84 0-1.23.47-1.86 1.52-1.86.84 0 1.23.36 1.34 1.08l.9-.1c-.13-1.09-.82-1.78-2.26-1.78-1.56 0-2.46.97-2.46 2.66 0 1.66.9 2.64 2.46 2.64zm0 0"/></symbol><symbol overflow="visible" id="589ccf96x"><path d="M3.92-7.14H1.36v.76h1.6v5.61H1.15V0H5.7v-.77H3.92zm0 0"/></symbol><symbol overflow="visible" id="589ccf96y"><path d="M2.83.14c.94 0 1.5-.39 1.81-.95h.08l.1.81h.76v-3.38c0-1.23-.69-1.8-2.13-1.8-1.43 0-2.03.65-2.18 1.6l.93.1c.11-.6.44-.93 1.22-.93.85 0 1.22.32 1.22 1.04v.34l-1.81.2C1.6-2.7 1.1-2.17 1.1-1.28c0 .92.64 1.42 1.72 1.42zm.25-.77c-.67 0-1.02-.28-1.02-.74 0-.44.28-.72 1-.82l1.58-.19v.41c0 .8-.6 1.34-1.56 1.34zm0 0"/></symbol><symbol overflow="visible" id="589ccf96z"><path d="M5.95-6.77H1.1V0h.99v-2.92H5.3v-.77H2.08v-2.26h3.87zm0 0"/></symbol><symbol overflow="visible" id="589ccf96A"><path d="M2.73.14c.9 0 1.43-.45 1.74-1.08h.06l.13.94h.8v-5.02h-.94v2.7c0 .98-.57 1.62-1.46 1.62-.75 0-1.1-.4-1.1-1.22v-3.1h-.93v3.32c0 1.17.55 1.84 1.7 1.84zm0 0"/></symbol><symbol overflow="visible" id="589ccf96B"><path d="M5.08-5.16c-.94 0-1.58.43-1.9 1.3h-.09l-.07-1.16H1.05v.77h1.1v3.48H.96V0h3.96v-.77H3.1v-1.46c0-1.36.6-2.05 1.83-2.05.4 0 .76.08 1.1.17l.15-.87c-.33-.11-.7-.18-1.11-.18zm0 0"/></symbol><symbol overflow="visible" id="589ccf96C"><path d="M2.16 0v-2.67c0-.99.59-1.63 1.46-1.63.74 0 1.07.38 1.07 1.22V0h.95v-3.31c0-1.2-.56-1.85-1.67-1.85-.92 0-1.49.46-1.77 1.08h-.06l-.12-.94H1.2V0zm0 0"/></symbol><symbol overflow="visible" id="589ccf96D"><path d="M1.45-2.95c0 2.56 1.08 4.37 3.67 4.84l.11-.67C3.28.86 2.43-.75 2.43-2.95s.85-3.82 2.8-4.16l-.1-.69c-2.6.49-3.68 2.3-3.68 4.85zm0 0"/></symbol><symbol overflow="visible" id="589ccf96E"><path d="M3.36.16c1.4 0 2.2-.6 2.2-1.57 0-.89-.54-1.22-1.47-1.39L3-3c-.67-.14-.86-.33-.86-.73 0-.5.4-.74 1.17-.74.83 0 1.19.27 1.27.8l.9-.05c-.12-1-.8-1.47-2.17-1.47-1.34 0-2.1.53-2.1 1.5 0 .81.45 1.22 1.52 1.44l1.04.2c.56.11.87.24.87.72 0 .52-.45.78-1.28.78-.95 0-1.36-.28-1.42-.87l-.9.06C1.07-.36 1.8.16 3.35.16zm0 0"/></symbol><symbol overflow="visible" id="589ccf96F"><path d="M3.16 2.03c1.67 0 2.4-.86 2.4-2.51v-4.54h-.81l-.13.91h-.06c-.26-.58-.8-1.05-1.73-1.05-1.42 0-2.24 1-2.24 2.52 0 1.6.75 2.56 2.2 2.56.94 0 1.5-.5 1.77-1.03h.05v.72c0 1.17-.42 1.67-1.45 1.67-.93 0-1.3-.34-1.41-.89L.8.5c.12.96.87 1.54 2.36 1.54zM3.06-.8c-.98 0-1.48-.57-1.48-1.82 0-1.13.5-1.75 1.48-1.75 1.06 0 1.58.76 1.58 1.75 0 .95-.56 1.82-1.58 1.82zm0 0"/></symbol><symbol overflow="visible" id="589ccf96G"><path d="M1.45-7.1c1.96.33 2.8 1.94 2.8 4.15 0 2.2-.84 3.8-2.8 4.17l.11.67c2.58-.47 3.67-2.28 3.67-4.84 0-2.55-1.09-4.36-3.67-4.85zm0 0"/></symbol></defs><g fill="#515151"><use xlink:href="#589ccf96a" x="95.08" y="164"/><use xlink:href="#589ccf96b" x="140.04" y="164"/></g><use xlink:href="#589ccf96c" x="181.4" y="164" fill="#fff"/><use xlink:href="#589ccf96d" x="219.24" y="164" fill="#fff"/><use xlink:href="#589ccf96c" x="221.56" y="164" fill="#fff"/><use xlink:href="#589ccf96e" x="259.4" y="164" fill="#515151"/><g fill="#515151"><use xlink:href="#589ccf96f" x="303.72" y="164"/><use xlink:href="#589ccf96g" x="323.08" y="164"/></g><use xlink:href="#589ccf96h" x="361.08" y="164" fill="#515151"/><use xlink:href="#589ccf96i" x="401.32" y="164" fill="#fff"/><use xlink:href="#589ccf96j" x="430.28" y="164" fill="#fff"/><use xlink:href="#589ccf96i" x="435.72" y="164" fill="#fff"/><use xlink:href="#589ccf96k" x="464.68" y="164" fill="#515151"/><g fill="#fff"><use xlink:href="#589ccf96l" x="236.6667" y="252"/><use xlink:href="#589ccf96m" x="243.3337" y="252"/><use xlink:href="#589ccf96n" x="250.0007" y="252"/><use xlink:href="#589ccf96o" x="256.6677" y="252"/><use xlink:href="#589ccf96p" x="263.3347" y="252"/><use xlink:href="#589ccf96q" x="270.0017" y="252"/><use xlink:href="#589ccf96r" x="276.6687" y="252"/><use xlink:href="#589ccf96s" x="283.3357" y="252"/><use xlink:href="#589ccf96t" x="290.0027" y="252"/><use xlink:href="#589ccf96u" x="296.6697" y="252"/><use xlink:href="#589ccf96t" x="303.3367" y="252"/><use xlink:href="#589ccf96v" x="310.0037" y="252"/><use xlink:href="#589ccf96q" x="316.6707" y="252"/><use xlink:href="#589ccf96w" x="323.3377" y="252"/><use xlink:href="#589ccf96m" x="330.0047" y="252"/><use xlink:href="#589ccf96x" x="336.6717" y="252"/><use xlink:href="#589ccf96u" x="343.3387" y="252"/><use xlink:href="#589ccf96x" x="350.0057" y="252"/><use xlink:href="#589ccf96y" x="356.6727" y="252"/></g><g fill="#fff"><use xlink:href="#589ccf96z" x="196.6667" y="266"/><use xlink:href="#589ccf96m" x="203.3337" y="266"/><use xlink:href="#589ccf96y" x="210.0007" y="266"/><use xlink:href="#589ccf96o" x="216.6677" y="266"/><use xlink:href="#589ccf96A" x="223.3347" y="266"/><use xlink:href="#589ccf96B" x="230.0017" y="266"/><use xlink:href="#589ccf96m" x="236.6687" y="266"/><use xlink:href="#589ccf96p" x="243.3357" y="266"/><use xlink:href="#589ccf96q" x="250.0027" y="266"/><use xlink:href="#589ccf96r" x="256.6697" y="266"/><use xlink:href="#589ccf96y" x="263.3367" y="266"/><use xlink:href="#589ccf96o" x="270.0037" y="266"/><use xlink:href="#589ccf96y" x="276.6707" y="266"/><use xlink:href="#589ccf96x" x="283.3377" y="266"/><use xlink:href="#589ccf96y" x="290.0047" y="266"/><use xlink:href="#589ccf96C" x="296.6717" y="266"/><use xlink:href="#589ccf96q" x="303.3387" y="266"/><use xlink:href="#589ccf96D" x="310.0057" y="266"/><use xlink:href="#589ccf96E" x="316.6727" y="266"/><use xlink:href="#589ccf96m" x="323.3397" y="266"/><use xlink:href="#589ccf96o" x="330.0067" y="266"/><use xlink:href="#589ccf96q" x="336.6737" y="266"/><use xlink:href="#589ccf96x" x="343.3407" y="266"/><use xlink:href="#589ccf96y" x="350.0077" y="266"/><use xlink:href="#589ccf96C" x="356.6747" y="266"/><use xlink:href="#589ccf96F" x="363.3417" y="266"/><use xlink:href="#589ccf96A" x="370.0087" y="266"/><use xlink:href="#589ccf96y" x="376.6757" y="266"/><use xlink:href="#589ccf96F" x="383.3427" y="266"/><use xlink:href="#589ccf96m" x="390.0097" y="266"/><use xlink:href="#589ccf96G" x="396.6767" y="266"/></g></svg>