<?xml version='1.0' encoding='UTF-8'?>
<svg xmlns="http://www.w3.org/2000/svg" xmlns:xlink="http://www.w3.org/1999/xlink" width="600px" height="300px" viewBox="0 0 600 300" x="0px" y="0px" enable-background="new 0 0 600 300"><defs><symbol overflow="visible" id="e5dd9a9fa"><path d="M6.95-3.36A3.29 3.29 0 0010.31 0h22.81a3.02 3.02 0 003.04-2.95A3.04 3.04 0 0033.13-6H13.68v-44.31a3.3 3.3 0 00-3.38-3.38 3.3 3.3 0 00-3.36 3.38zm0 0"/></symbol><symbol overflow="visible" id="e5dd9a9fb"><path d="M4.4-19.28C4.4-7.84 10.49.8 21.53.8c11.12 0 17.12-8.64 17.12-20.08 0-11.6-6.16-20.16-17.12-20.16-10.88 0-17.11 8.56-17.11 20.16zM21.53-4.8c-6.57 0-10.4-6-10.4-14.48 0-8.72 3.83-14.64 10.4-14.64 6.56 0 10.4 5.92 10.4 14.64 0 8.48-3.84 14.48-10.4 14.48zm0 0"/></symbol><symbol overflow="visible" id="e5dd9a9fc"><path d="M11.44-5.69H6.4a2.8 2.8 0 00-2.82 2.9C3.6-1.3 4.8 0 6.41 0h21.43c1.6 0 2.8-1.28 2.8-2.8 0-1.6-1.2-2.89-2.8-2.89h-9.68v-37.1c0-6.65 2.56-8.8 6.4-8.8 2 0 3.44.47 4.96 1.36.8.3 1.53.54 2.25.54a2.62 2.62 0 002.71-2.62c0-1.05-.56-1.92-1.53-2.56-2.08-1.44-5.75-2.41-8.87-2.41-8.88 0-12.64 6.4-12.64 14.64v4H5.69c-1.61 0-2.82 1.2-2.82 2.8 0 1.6 1.2 2.8 2.82 2.8h5.75zm0 0"/></symbol><symbol overflow="visible" id="e5dd9a9fd"><path d="M10.08-33.05v20.9C10.08-4.88 14 .8 21.68.8c1.76 0 5.04-.4 7.37-1.85 1.1-.8 1.6-1.67 1.6-2.72 0-1.67-1.21-2.71-2.65-2.71-1.52 0-2.56 1.6-5.52 1.6-3.2 0-5.68-1.68-5.68-7.2v-20.97h9.68c1.6 0 2.8-1.18 2.8-2.72a2.8 2.8 0 00-2.8-2.87H16.8v-8.72a3.28 3.28 0 00-3.36-3.36 3.28 3.28 0 00-3.36 3.36v8.72h-5.6a2.8 2.8 0 00-2.8 2.87 2.7 2.7 0 002.8 2.72zm0 0"/></symbol><symbol overflow="visible" id="e5dd9a9ff"><path d="M12-36.8a3 3 0 00-3.05-2.25c-2.07 0-3.03 1.46-3.03 3.13 0 1.36.72 3.44.72 6.97v41.83A3.32 3.32 0 0010 16.23c2 0 3.36-1.43 3.36-3.36V-1.28c2.23.87 5.05 2 8.64 2 11.52 0 17.2-8.08 17.2-20.08 0-11.77-4.97-20.08-15.04-20.08-4 0-7.93 1.75-11.6 5.03zm1.36 7.11c3.69-3.18 7.28-4.23 9.6-4.23 6.63 0 9.52 6 9.52 14.8 0 8.4-3.04 14.32-10.8 14.32-3.2 0-6.32-1.04-8.32-2.08zm0 0"/></symbol><symbol overflow="visible" id="e5dd9a9fg"><path d="M27.13-8.95C23.84-6 20-4.8 17.27-4.8c-4.56 0-7.2-2.33-7.2-6.25 0-4 2.87-6.15 8.48-6.15h8.57zm0-13.05H18.3c-9.26 0-14.8 4.16-14.8 11.36C3.52-3.7 8.42.8 15.93.8 21.05.8 25.28-1.6 28-4.16l.56 2.32A2.93 2.93 0 0031.6.4c2 0 3.05-1.36 3.05-2.97 0-1.44-.8-2.96-.8-7.52v-15.76c0-6.88-3.36-13.6-14.64-13.6-3.04 0-7.68.64-10.56 2.08-1.52.8-2.33 1.6-2.33 2.8 0 1.36.97 2.72 2.82 2.72 1.03 0 2.3-.57 3.67-.96a18.88 18.88 0 015.84-1.12c6.48 0 8.48 3.6 8.48 8.08zm0 0"/></symbol><symbol overflow="visible" id="e5dd9a9fh"><path d="M3.13-2.88A2.8 2.8 0 005.92 0H28c1.6 0 2.8-1.28 2.8-2.8 0-1.6-1.2-2.89-2.8-2.89h-9.05v-23.1c2.49-1.85 8.33-4.5 12.18-4.73l.95 7.04c.23 1.36 1.2 2.56 2.97 2.56 1.6 0 2.95-1.28 2.8-3.2l-.8-9.6c-.17-1.69-1.61-2.72-3.46-2.72-5.67 0-11.36 2.31-15.9 5.28l-.57-2.48c-.25-1.13-1.12-2-2.32-2H6.16a2.8 2.8 0 00-2.8 2.87c0 1.54 1.2 2.72 2.8 2.72h6.07v27.36h-6.3c-1.62 0-2.8 1.28-2.8 2.82zm0 0"/></symbol><symbol overflow="visible" id="e5dd9a9fi"><path d="M30.23-37.36c-2-.87-5.03-2.08-8.39-2.08-11.84 0-17.43 8.16-17.43 20.08C4.4-6.56 10.3.8 19.5.8c3.77 0 7.93-1.85 11.54-5.03l.64 2.39C32-.56 32.95.4 34.72.4c2 0 2.97-1.46 2.97-3.13 0-1.28-.74-3.44-.74-6.87v-44.33a3.28 3.28 0 00-3.36-3.36 3.29 3.29 0 00-3.36 3.36zm0 28.4c-3.59 3.2-7.28 4.16-9.51 4.16-6.72 0-9.52-5.92-9.52-14.56 0-8.56 2.96-14.56 10.72-14.56 3.2 0 6.4 1.12 8.31 2.08zm0 0"/></symbol><symbol overflow="visible" id="e5dd9a9fj"><path d="M3.13-2.8C3.13-1.28 4.3 0 5.92 0h20.71c1.6 0 2.8-1.28 2.8-2.8 0-1.6-1.2-2.89-2.8-2.89H19.7v-30.08c0-1.59-1.28-2.87-2.9-2.87H6.17a2.8 2.8 0 00-2.8 2.87c0 1.54 1.2 2.72 2.8 2.72h6.8v27.36H5.91a2.8 2.8 0 00-2.8 2.9zm11.43-42.25a4.68 4.68 0 004.72-4.72 4.68 4.68 0 00-4.72-4.71 4.68 4.68 0 00-4.72 4.71 4.68 4.68 0 004.72 4.72zm0 0"/></symbol><symbol overflow="visible" id="e5dd9a9fk"><path d="M11.2-17.77h22.16c1.52 0 2.64-.71 2.64-3.59 0-11.52-4.88-18.08-15.2-18.08-10.57 0-16.32 7.52-16.32 20C4.48-7.36 10.16.8 22.16.8c2.8 0 7.43-.64 10.4-2.08 1.28-.72 2.49-1.44 2.49-2.88 0-1.28-.97-2.56-2.74-2.56-1.26 0-2.47.56-3.9.95-1.93.57-4 1.05-6.25 1.05-7.85 0-10.96-5.69-10.96-13.05zm0-4.64c.4-6.23 3.36-11.51 9.6-11.51 6.64 0 8.8 4.8 8.97 11.51zm0 0"/></symbol><symbol overflow="visible" id="e5dd9a9fl"><path d="M3.83 0v-5.95H6.2v-.82H.45v.82h2.4V0zm0 0"/></symbol><symbol overflow="visible" id="e5dd9a9fm"><path d="M5.75-2.23v-.43c0-1.6-.9-2.51-2.42-2.51S.87-4.16.87-2.48c0 1.71.91 2.62 2.5 2.62 1.43 0 2.07-.56 2.29-1.52l-.9-.09c-.18.61-.59.9-1.35.9-.94 0-1.52-.54-1.58-1.66zm-2.4-2.2c.93 0 1.43.5 1.48 1.55H1.84c.08-1.07.6-1.56 1.5-1.56zm0 0"/></symbol><symbol overflow="visible" id="e5dd9a9fn"><path d="M1.83 0l1.42-2h.06l1.46 2H5.8L4-2.53l1.78-2.49H4.8L3.42-3.08h-.08l-1.4-1.94H.89l1.78 2.49L.84 0zm0 0"/></symbol><symbol overflow="visible" id="e5dd9a9fo"><path d="M5.52-4.25v-.77H3.17v-1.56h-.81l-.14 1.56H.75v.77h1.47v2.4c0 1.3.48 1.94 1.84 1.94C4.6.1 5.14 0 5.55-.14L5.4-.91c-.32.13-.72.2-1.13.2-.8 0-1.1-.37-1.1-1.23v-2.31zm0 0"/></symbol><symbol overflow="visible" id="e5dd9a9fp"><path d="M3.33-3.42c.47 0 .8-.27.8-.8 0-.51-.33-.8-.8-.8-.47 0-.8.29-.8.8 0 .53.33.8.8.8zm0 3.5c.47 0 .8-.27.8-.78 0-.53-.33-.82-.8-.82-.47 0-.8.29-.8.82 0 .51.33.78.8.78zm0 0"/></symbol><symbol overflow="visible" id="e5dd9a9fr"><path d="M2.08-6.77h-.99V0h4.79v-.81h-3.8zm0 0"/></symbol><symbol overflow="visible" id="e5dd9a9fs"><path d="M3.33.14c1.62 0 2.5-.95 2.5-2.66 0-1.68-.88-2.64-2.5-2.64-1.63 0-2.5.96-2.5 2.64 0 1.7.87 2.66 2.5 2.66zm0-.77c-1.06 0-1.52-.6-1.52-1.89 0-1.28.46-1.87 1.52-1.87 1.08 0 1.53.6 1.53 1.87 0 1.29-.45 1.9-1.53 1.9zm0 0"/></symbol><symbol overflow="visible" id="e5dd9a9ft"><path d="M3.36.16c1.4 0 2.2-.6 2.2-1.57 0-.89-.54-1.22-1.47-1.39L3-3c-.67-.14-.86-.33-.86-.73 0-.5.4-.74 1.17-.74.83 0 1.19.27 1.27.8l.9-.05c-.12-1-.8-1.47-2.17-1.47-1.34 0-2.1.53-2.1 1.5 0 .81.45 1.22 1.52 1.44l1.04.2c.56.11.87.24.87.72 0 .52-.45.78-1.28.78-.95 0-1.36-.28-1.42-.87l-.9.06C1.07-.36 1.8.16 3.35.16zm0 0"/></symbol><symbol overflow="visible" id="e5dd9a9fu"><path d="M2.06 1.9V-.84h.05c.28.58.8.97 1.77.97 1.5 0 2.2-.98 2.2-2.66 0-1.65-.7-2.64-2.19-2.64-.97 0-1.5.44-1.78 1.05h-.08l-.1-.9H1.1v6.9zm1.5-2.56c-1.06 0-1.53-.8-1.53-1.86 0-1.04.47-1.84 1.53-1.84 1.11 0 1.53.61 1.53 1.84 0 1.27-.42 1.86-1.53 1.86zm0 0"/></symbol><symbol overflow="visible" id="e5dd9a9fv"><path d="M2.83.14c.94 0 1.5-.39 1.81-.95h.08l.1.81h.76v-3.38c0-1.23-.69-1.8-2.13-1.8-1.43 0-2.03.65-2.18 1.6l.93.1c.11-.6.44-.93 1.22-.93.85 0 1.22.32 1.22 1.04v.34l-1.81.2C1.6-2.7 1.1-2.17 1.1-1.28c0 .92.64 1.42 1.72 1.42zm.25-.77c-.67 0-1.02-.28-1.02-.74 0-.44.28-.72 1-.82l1.58-.19v.41c0 .8-.6 1.34-1.56 1.34zm0 0"/></symbol><symbol overflow="visible" id="e5dd9a9fw"><path d="M5.08-5.16c-.94 0-1.58.43-1.9 1.3h-.09l-.07-1.16H1.05v.77h1.1v3.48H.96V0h3.96v-.77H3.1v-1.46c0-1.36.6-2.05 1.83-2.05.4 0 .76.08 1.1.17l.15-.87c-.33-.11-.7-.18-1.11-.18zm0 0"/></symbol><symbol overflow="visible" id="e5dd9a9fx"><path d="M2.84.14C3.8.14 4.33-.26 4.6-.9h.07L4.8 0h.76v-7.14h-.95v2.95h-.08c-.28-.6-.86-.97-1.67-.97-1.48 0-2.27.99-2.27 2.64C.6-.84 1.36.14 2.84.14zm.22-.8c-.98 0-1.48-.59-1.48-1.84s.5-1.86 1.48-1.86c1.13 0 1.58.8 1.58 1.86S4.2-.66 3.06-.66zm0 0"/></symbol><symbol overflow="visible" id="e5dd9a9fy"><path d="M3.58-5.81c.42 0 .72-.22.72-.67 0-.44-.3-.68-.72-.68-.44 0-.72.24-.72.68 0 .45.28.67.72.67zm.5.8H1.52v.76h1.6v3.48h-1.8V0h4.46v-.77h-1.7zm0 0"/></symbol><symbol overflow="visible" id="e5dd9a9fz"><path d="M5.95-6.77H1.1V0h.99v-2.92H5.3v-.77H2.08v-2.26h3.87zm0 0"/></symbol><symbol overflow="visible" id="e5dd9a9fA"><path d="M2.73.14c.9 0 1.43-.45 1.74-1.08h.06l.13.94h.8v-5.02h-.94v2.7c0 .98-.57 1.62-1.46 1.62-.75 0-1.1-.4-1.1-1.22v-3.1h-.93v3.32c0 1.17.55 1.84 1.7 1.84zm0 0"/></symbol><symbol overflow="visible" id="e5dd9a9fB"><path d="M1.9 0v-3.03h2.87V0h.98v-6.77h-.98v2.91H1.9v-2.9H.92V0zm0 0"/></symbol><symbol overflow="visible" id="e5dd9a9fC"><path d="M3.34.14c1.43 0 2.13-.66 2.25-1.78l-.89-.1c-.1.7-.5 1.08-1.34 1.08-1.03 0-1.52-.64-1.52-1.84 0-1.23.47-1.86 1.52-1.86.84 0 1.23.36 1.34 1.08l.9-.1c-.13-1.09-.82-1.78-2.26-1.78-1.56 0-2.46.97-2.46 2.66 0 1.66.9 2.64 2.46 2.64zm0 0"/></symbol><symbol overflow="visible" id="e5dd9a9fD"><path d="M3.92-7.14H1.36v.76h1.6v5.61H1.15V0H5.7v-.77H3.92zm0 0"/></symbol><symbol overflow="visible" id="e5dd9a9fE"><path d="M4.63-6.5c.45 0 .98.08 1.39.2l.2-.72a5.3 5.3 0 00-1.64-.26c-1.52 0-2.16.56-2.16 1.87v.4H.9v.76h1.53V0h.94v-4.25h2.53v-.77H3.36v-.3c0-.84.33-1.18 1.27-1.18zm0 0"/></symbol><symbol overflow="visible" id="e5dd9a9fF"><path d="M1.63 0v-2.9c0-.8.15-1.4.71-1.4.41 0 .55.3.55.88V0h.95v-2.9c0-.8.18-1.4.72-1.4.4 0 .57.3.57.88V0h.95v-3.63c0-.92-.28-1.53-1.11-1.53-.63 0-.95.41-1.1.9h-.06c-.1-.52-.44-.9-1.08-.9-.6 0-.93.41-1.06.9H1.6l-.23-.76H.67V0zm0 0"/></symbol><symbol overflow="visible" id="e5dd9a9fG"><path d="M1.45-2.95c0 2.56 1.08 4.37 3.67 4.84l.11-.67C3.28.86 2.43-.75 2.43-2.95s.85-3.82 2.8-4.16l-.1-.69c-2.6.49-3.68 2.3-3.68 4.85zm0 0"/></symbol><symbol overflow="visible" id="e5dd9a9fH"><path d="M2.16 0v-2.69c0-.98.6-1.6 1.46-1.6.74 0 1.07.4 1.07 1.2V0h.95v-3.31c0-1.17-.56-1.85-1.67-1.85-.9 0-1.44.46-1.75 1.08h-.06v-3.06H1.2V0zm0 0"/></symbol><symbol overflow="visible" id="e5dd9a9fI"><path d="M1.45-7.1c1.96.33 2.8 1.94 2.8 4.15 0 2.2-.84 3.8-2.8 4.17l.11.67c2.58-.47 3.67-2.28 3.67-4.84 0-2.55-1.09-4.36-3.67-4.85zm0 0"/></symbol></defs><g fill="#515151"><use xlink:href="#e5dd9a9fa" x="62.8" y="164"/><use xlink:href="#e5dd9a9fb" x="99.44" y="164"/></g><use xlink:href="#e5dd9a9fc" x="142.48" y="164" fill="#fff"/><g fill="#515151"><use xlink:href="#e5dd9a9fd" x="174.72" y="164"/><use xlink:href="#e5dd9a9fe" x="207.28" y="164"/><use xlink:href="#e5dd9a9ff" x="226.64" y="164"/><use xlink:href="#e5dd9a9fg" x="270.24" y="164"/><use xlink:href="#e5dd9a9fh" x="310.48" y="164"/></g><g fill="#515151"><use xlink:href="#e5dd9a9fg" x="350" y="164"/><use xlink:href="#e5dd9a9fi" x="390.24" y="164"/><use xlink:href="#e5dd9a9fj" x="433.92" y="164"/></g><use xlink:href="#e5dd9a9fc" x="464.72" y="164" fill="#fff"/><use xlink:href="#e5dd9a9fk" x="496.96" y="164" fill="#515151"/><g fill="#fff"><use xlink:href="#e5dd9a9fl" x="236.6667" y="252"/><use xlink:href="#e5dd9a9fm" x="243.3337" y="252"/><use xlink:href="#e5dd9a9fn" x="250.0007" y="252"/><use xlink:href="#e5dd9a9fo" x="256.6677" y="252"/><use xlink:href="#e5dd9a9fp" x="263.3347" y="252"/><use xlink:href="#e5dd9a9fq" x="270.0017" y="252"/><use xlink:href="#e5dd9a9fr" x="276.6687" y="252"/><use xlink:href="#e5dd9a9fs" x="283.3357" y="252"/><use xlink:href="#e5dd9a9ft" x="290.0027" y="252"/><use xlink:href="#e5dd9a9fo" x="296.6697" y="252"/><use xlink:href="#e5dd9a9fq" x="303.3367" y="252"/><use xlink:href="#e5dd9a9fu" x="310.0037" y="252"/><use xlink:href="#e5dd9a9fv" x="316.6707" y="252"/><use xlink:href="#e5dd9a9fw" x="323.3377" y="252"/><use xlink:href="#e5dd9a9fv" x="330.0047" y="252"/><use xlink:href="#e5dd9a9fx" x="336.6717" y="252"/><use xlink:href="#e5dd9a9fy" x="343.3387" y="252"/><use xlink:href="#e5dd9a9ft" x="350.0057" y="252"/><use xlink:href="#e5dd9a9fm" x="356.6727" y="252"/></g><g fill="#fff"><use xlink:href="#e5dd9a9fz" x="193.3333" y="266"/><use xlink:href="#e5dd9a9fm" x="200.0003" y="266"/><use xlink:href="#e5dd9a9fv" x="206.6673" y="266"/><use xlink:href="#e5dd9a9fo" x="213.3343" y="266"/><use xlink:href="#e5dd9a9fA" x="220.0013" y="266"/><use xlink:href="#e5dd9a9fw" x="226.6683" y="266"/><use xlink:href="#e5dd9a9fm" x="233.3353" y="266"/><use xlink:href="#e5dd9a9fp" x="240.0023" y="266"/><use xlink:href="#e5dd9a9fq" x="246.6693" y="266"/><use xlink:href="#e5dd9a9fB" x="253.3363" y="266"/><use xlink:href="#e5dd9a9fy" x="260.0033" y="266"/><use xlink:href="#e5dd9a9ft" x="266.6703" y="266"/><use xlink:href="#e5dd9a9fo" x="273.3373" y="266"/><use xlink:href="#e5dd9a9fs" x="280.0043" y="266"/><use xlink:href="#e5dd9a9fw" x="286.6713" y="266"/><use xlink:href="#e5dd9a9fy" x="293.3383" y="266"/><use xlink:href="#e5dd9a9fC" x="300.0053" y="266"/><use xlink:href="#e5dd9a9fv" x="306.6723" y="266"/><use xlink:href="#e5dd9a9fD" x="313.3393" y="266"/><use xlink:href="#e5dd9a9fq" x="320.0063" y="266"/><use xlink:href="#e5dd9a9fE" x="326.6733" y="266"/><use xlink:href="#e5dd9a9fs" x="333.3403" y="266"/><use xlink:href="#e5dd9a9fw" x="340.0073" y="266"/><use xlink:href="#e5dd9a9fF" x="346.6743" y="266"/><use xlink:href="#e5dd9a9ft" x="353.3413" y="266"/><use xlink:href="#e5dd9a9fq" x="360.0083" y="266"/><use xlink:href="#e5dd9a9fG" x="366.6753" y="266"/><use xlink:href="#e5dd9a9fH" x="373.3423" y="266"/><use xlink:href="#e5dd9a9fy" x="380.0093" y="266"/><use xlink:href="#e5dd9a9ft" x="386.6763" y="266"/><use xlink:href="#e5dd9a9fo" x="393.3433" y="266"/><use xlink:href="#e5dd9a9fI" x="400.0103" y="266"/></g></svg>