<?xml version='1.0' encoding='UTF-8'?>
<svg xmlns="http://www.w3.org/2000/svg" xmlns:xlink="http://www.w3.org/1999/xlink" width="600px" height="300px" viewBox="0 0 600 300" x="0px" y="0px" enable-background="new 0 0 600 300"><defs><symbol overflow="visible" id="790c680da"><path d="M6.95-2.95C6.95-1.05 8.48.4 10.31.4a3.35 3.35 0 003.38-3.36V-39.2h.23l9.92 19.28A4.56 4.56 0 0028-17.2c1.92 0 3.28-1.11 4.08-2.72L42-39.2h.23v36.25A3.42 3.42 0 0045.7.4a3.34 3.34 0 003.36-3.36v-47.2c0-1.93-1.61-3.54-3.53-3.54-1.68 0-3.04.74-3.83 2.25L28.08-24.72h-.16L14.23-51.44a3.9 3.9 0 00-3.75-2.25c-2 0-3.53 1.61-3.53 3.53zm0 0"/></symbol><symbol overflow="visible" id="790c680db"><path d="M3.05-2.95A3 3 0 006 0h20.31a3 3 0 002.97-2.95A3.03 3.03 0 0026.31-6h-6.8v-41.28h6.8c1.61 0 2.97-1.36 2.97-3.03a3 3 0 00-2.97-2.97H6a3 3 0 000 6h6.8V-6H6a3.02 3.02 0 00-2.95 3.05zm8.87-54.57c.56 0 1.13-.17 1.6-.4l11.76-5.85c1.28-.54 2-1.67 2-2.87 0-1.67-1.36-3.44-3.2-3.44-.64 0-1.28.31-2 .64l-11.44 6.96a2.57 2.57 0 00-1.44 2.25 2.7 2.7 0 002.72 2.71zm0 0"/></symbol><symbol overflow="visible" id="790c680dc"><path d="M22.88-47.28v33.05c0 5.82-3.36 9.1-9.04 9.1-2.4 0-5.04-.95-7.04-1.92a4.61 4.61 0 00-1.92-.47c-1.6 0-2.65 1.44-2.65 2.96 0 1.04.49 2.15 1.54 2.8A20.44 20.44 0 0013.84.8C24.16.8 29.7-5.05 29.7-15.36v-34.56a3.3 3.3 0 00-3.38-3.36H10.23a3.07 3.07 0 00-3.03 2.97 3.03 3.03 0 003.03 3.03zM12.8-57.52c.56 0 1.12-.17 1.6-.4l11.76-5.85c1.28-.54 2-1.67 2-2.87 0-1.67-1.36-3.44-3.2-3.44-.65 0-1.27.31-2 .64l-11.44 6.96a2.57 2.57 0 00-1.44 2.25 2.7 2.7 0 002.72 2.71zm0 0"/></symbol><symbol overflow="visible" id="790c680dd"><path d="M6.95-2.95A3.4 3.4 0 0010.31.4a3.35 3.35 0 003.38-3.36V-39.2h.23L35.36-1.52c.72 1.2 2 1.93 3.52 1.93 2.24 0 3.68-1.61 3.68-3.36v-47.36a3.34 3.34 0 00-3.36-3.38 3.44 3.44 0 00-3.36 3.38v36.72h-.15L14.08-51.77a4.02 4.02 0 00-3.52-1.92c-2.08 0-3.6 1.53-3.6 3.38zm0 0"/></symbol><symbol overflow="visible" id="790c680df"><path d="M6.64-2.95C6.64-1.05 8.08.4 10 .4a3.29 3.29 0 003.36-3.36V-29.7c2.56-2.39 5.84-4.23 8.48-4.23 5.11 0 6.96 3.44 6.96 9.05v21.92C28.8-1.05 30.3.4 32.16.4a3.29 3.29 0 003.36-3.36v-20.97c0-1.85-.08-4.16-.47-5.85 3.1-2.64 6.3-4.15 8.87-4.15 4.95 0 7.03 3.44 7.03 9.05v21.92c0 1.9 1.53 3.36 3.36 3.36a3.35 3.35 0 003.38-3.36v-22.57c0-9.76-5.28-13.92-12.81-13.92-3.83 0-8.24 2.08-11.52 5.2-2.56-3.92-6.31-5.2-10.31-5.2-3.28 0-7.2 1.92-10.49 5.13l-.64-2.49c-.33-1.28-1.28-2.25-3.04-2.25-2 0-3.04 1.46-3.04 3.2 0 1.2.8 3.37.8 6.9zm0 0"/></symbol><symbol overflow="visible" id="790c680dg"><path d="M3.13-2.8C3.13-1.28 4.3 0 5.92 0h20.71c1.6 0 2.8-1.28 2.8-2.8 0-1.6-1.2-2.89-2.8-2.89H19.7v-30.08c0-1.59-1.28-2.87-2.9-2.87H6.17a2.8 2.8 0 00-2.8 2.87c0 1.54 1.2 2.72 2.8 2.72h6.8v27.36H5.91a2.8 2.8 0 00-2.8 2.9zm8.46-40.64c.72 0 1.46-.25 2.41-1.04L22.48-52c.8-.8 1.44-1.52 1.44-2.56 0-1.52-1.2-3.13-3.2-3.13-.8 0-1.6.4-2.31 1.13l-8.25 8.4c-.88.8-1.04 1.6-1.04 2.24 0 1.28 1.11 2.48 2.47 2.48zm0 0"/></symbol><symbol overflow="visible" id="790c680dh"><path d="M11.28-33.05v32.4c0 6.73-2.8 10.57-10.48 11.06-1.6.07-2.96 1.18-2.96 2.87A2.95 2.95 0 00.8 16.23C10.72 16.08 18 10.56 18-.57v-35.2c0-1.59-1.28-2.87-2.88-2.87H4.09a2.85 2.85 0 00-2.8 2.87 2.76 2.76 0 002.8 2.72zM10-43.44c.72 0 1.44-.25 2.4-1.04L20.88-52c.82-.8 1.44-1.52 1.44-2.56a3.13 3.13 0 00-3.18-3.13c-.82 0-1.61.4-2.33 1.13l-8.24 8.4c-.87.8-1.04 1.6-1.04 2.24A2.55 2.55 0 0010-43.44zm0 0"/></symbol><symbol overflow="visible" id="790c680di"><path d="M6.64-2.95C6.64-1.05 8.08.4 10 .4a3.29 3.29 0 003.36-3.36V-29.7c2.87-2.39 6.48-4.23 9.44-4.23 5.43 0 7.76 2.97 7.76 9.05v21.92C30.56-1.05 32 .4 33.92.4a3.29 3.29 0 003.36-3.36v-21.93c0-10.89-5.36-14.56-13.2-14.56-3.52 0-8 1.92-11.52 5.13l-.64-2.49c-.33-1.28-1.28-2.25-3.04-2.25-2 0-3.04 1.46-3.04 3.2 0 1.2.8 3.37.8 6.9zm0 0"/></symbol><symbol overflow="visible" id="790c680dj"><path d="M3.83 0v-5.95H6.2v-.82H.45v.82h2.4V0zm0 0"/></symbol><symbol overflow="visible" id="790c680dk"><path d="M5.75-2.23v-.43c0-1.6-.9-2.51-2.42-2.51S.87-4.16.87-2.48c0 1.71.91 2.62 2.5 2.62 1.43 0 2.07-.56 2.29-1.52l-.9-.09c-.18.61-.59.9-1.35.9-.94 0-1.52-.54-1.58-1.66zm-2.4-2.2c.93 0 1.43.5 1.48 1.55H1.84c.08-1.07.6-1.56 1.5-1.56zm0 0"/></symbol><symbol overflow="visible" id="790c680dl"><path d="M1.83 0l1.42-2h.06l1.46 2H5.8L4-2.53l1.78-2.49H4.8L3.42-3.08h-.08l-1.4-1.94H.89l1.78 2.49L.84 0zm0 0"/></symbol><symbol overflow="visible" id="790c680dm"><path d="M5.52-4.25v-.77H3.17v-1.56h-.81l-.14 1.56H.75v.77h1.47v2.4c0 1.3.48 1.94 1.84 1.94C4.6.1 5.14 0 5.55-.14L5.4-.91c-.32.13-.72.2-1.13.2-.8 0-1.1-.37-1.1-1.23v-2.31zm0 0"/></symbol><symbol overflow="visible" id="790c680dn"><path d="M3.33-3.42c.47 0 .8-.27.8-.8 0-.51-.33-.8-.8-.8-.47 0-.8.29-.8.8 0 .53.33.8.8.8zm0 3.5c.47 0 .8-.27.8-.78 0-.53-.33-.82-.8-.82-.47 0-.8.29-.8.82 0 .51.33.78.8.78zm0 0"/></symbol><symbol overflow="visible" id="790c680dp"><path d="M1.64 0v-3.17l-.16-2.5h.1L2.9-1.83h.82l1.35-3.84h.1l-.16 2.5V0h.95v-6.77h-1.3l-1.3 3.82h-.09L2-6.77H.69V0zm0 0"/></symbol><symbol overflow="visible" id="790c680dq"><path d="M3.7-7.31l1.32-1.82h-.97L2.95-7.3zm.13 1.34h1.73v-.8H1.1v.8h1.75v5.19H1.1V0h4.47v-.78H3.83zm0 0"/></symbol><symbol overflow="visible" id="790c680dr"><path d="M5.56-6.77h-3.8v.83h2.82v3.44c0 1.23-.28 1.81-1.36 1.81-.94 0-1.24-.48-1.33-1.3l-.03-.15-.92.1.01.18c.13 1.25.78 2 2.28 2 1.7 0 2.33-.86 2.33-2.64zm0 0"/></symbol><symbol overflow="visible" id="790c680ds"><path d="M1.84 0v-4.48l-.06-.99h.1L4.46 0h1.28v-6.77h-.92v4.4l.06 1.03h-.1L2.21-6.77H.92V0zm0 0"/></symbol><symbol overflow="visible" id="790c680dt"><path d="M1.63 0v-2.9c0-.8.15-1.4.71-1.4.41 0 .55.3.55.88V0h.95v-2.9c0-.8.18-1.4.72-1.4.4 0 .57.3.57.88V0h.95v-3.63c0-.92-.28-1.53-1.11-1.53-.63 0-.95.41-1.1.9h-.06c-.1-.52-.44-.9-1.08-.9-.6 0-.93.41-1.06.9H1.6l-.23-.76H.67V0zm0 0"/></symbol><symbol overflow="visible" id="790c680du"><path d="M4.17-7.8l-1.1 2.08h.76L5.14-7.8zm-.1 2.78H1.53v.77h1.6v3.48h-1.8V0h4.46v-.77h-1.7zm0 0"/></symbol><symbol overflow="visible" id="790c680dv"><path d="M4.14-7.16c-.44 0-.72.24-.72.68 0 .45.28.67.72.67.42 0 .72-.22.72-.67 0-.44-.3-.68-.72-.68zm-2.8 2.14v.77h2.33v4.16c0 .95-.36 1.28-1.28 1.28-.4 0-.89-.08-1.23-.22l-.22.78c.42.17 1.1.28 1.6.28 1.55 0 2.08-.67 2.08-2.1v-4.95zm0 0"/></symbol><symbol overflow="visible" id="790c680dw"><path d="M2.16 0v-2.67c0-.99.59-1.63 1.46-1.63.74 0 1.07.38 1.07 1.22V0h.95v-3.31c0-1.2-.56-1.85-1.67-1.85-.92 0-1.49.46-1.77 1.08h-.06l-.12-.94H1.2V0zm0 0"/></symbol><symbol overflow="visible" id="790c680dx"><path d="M5.95-6.77H1.1V0h.99v-2.92H5.3v-.77H2.08v-2.26h3.87zm0 0"/></symbol><symbol overflow="visible" id="790c680dy"><path d="M2.83.14c.94 0 1.5-.39 1.81-.95h.08l.1.81h.76v-3.38c0-1.23-.69-1.8-2.13-1.8-1.43 0-2.03.65-2.18 1.6l.93.1c.11-.6.44-.93 1.22-.93.85 0 1.22.32 1.22 1.04v.34l-1.81.2C1.6-2.7 1.1-2.17 1.1-1.28c0 .92.64 1.42 1.72 1.42zm.25-.77c-.67 0-1.02-.28-1.02-.74 0-.44.28-.72 1-.82l1.58-.19v.41c0 .8-.6 1.34-1.56 1.34zm0 0"/></symbol><symbol overflow="visible" id="790c680dz"><path d="M2.73.14c.9 0 1.43-.45 1.74-1.08h.06l.13.94h.8v-5.02h-.94v2.7c0 .98-.57 1.62-1.46 1.62-.75 0-1.1-.4-1.1-1.22v-3.1h-.93v3.32c0 1.17.55 1.84 1.7 1.84zm0 0"/></symbol><symbol overflow="visible" id="790c680dA"><path d="M5.08-5.16c-.94 0-1.58.43-1.9 1.3h-.09l-.07-1.16H1.05v.77h1.1v3.48H.96V0h3.96v-.77H3.1v-1.46c0-1.36.6-2.05 1.83-2.05.4 0 .76.08 1.1.17l.15-.87c-.33-.11-.7-.18-1.11-.18zm0 0"/></symbol><symbol overflow="visible" id="790c680dB"><path d="M.92-6.77V0h2.11c2.03 0 3.03-1.03 3.03-3.36 0-2.39-1.01-3.4-2.93-3.4zM1.91-.8v-5.17h1.18c1.29 0 1.96.63 1.96 2.61 0 1.94-.67 2.56-1.96 2.56zm0 0"/></symbol><symbol overflow="visible" id="790c680dC"><path d="M3.34.14c1.43 0 2.13-.66 2.25-1.78l-.89-.1c-.1.7-.5 1.08-1.34 1.08-1.03 0-1.52-.64-1.52-1.84 0-1.23.47-1.86 1.52-1.86.84 0 1.23.36 1.34 1.08l.9-.1c-.13-1.09-.82-1.78-2.26-1.78-1.56 0-2.46.97-2.46 2.66 0 1.66.9 2.64 2.46 2.64zm0 0"/></symbol><symbol overflow="visible" id="790c680dD"><path d="M2.16 0v-2.69c0-.98.6-1.6 1.46-1.6.74 0 1.07.4 1.07 1.2V0h.95v-3.31c0-1.17-.56-1.85-1.67-1.85-.9 0-1.44.46-1.75 1.08h-.06v-3.06H1.2V0zm0 0"/></symbol><symbol overflow="visible" id="790c680dE"><path d="M3.38-5.9c.12-.5.42-1.04.67-1.41l-.63-.22a4.28 4.28 0 00-1.01 2.39c0 .66.3 1 .9 1 .6 0 .9-.33.9-.9 0-.57-.32-.83-.83-.85zm0 0"/></symbol><symbol overflow="visible" id="790c680dF"><path d="M3.58-5.81c.42 0 .72-.22.72-.67 0-.44-.3-.68-.72-.68-.44 0-.72.24-.72.68 0 .45.28.67.72.67zm.5.8H1.52v.76h1.6v3.48h-1.8V0h4.46v-.77h-1.7zm0 0"/></symbol><symbol overflow="visible" id="790c680dG"><path d="M3.3-7.53c-.55 0-.85.3-.85.84 0 .55.36.8.83.8h.03a5.1 5.1 0 01-.69 1.47l.52.23a4.29 4.29 0 001.02-2.4c0-.63-.33-.94-.86-.94zm0 0"/></symbol><symbol overflow="visible" id="790c680dH"><path d="M2.44 0l.87-3.31h.06L4.25 0H5.3l1.03-5.02h-.88l-.73 3.94h-.08L3.77-4.4h-.85l-.87 3.33h-.08l-.75-3.94H.34L1.36 0zm0 0"/></symbol><symbol overflow="visible" id="790c680dI"><path d="M1.45-2.95c0 2.56 1.08 4.37 3.67 4.84l.11-.67C3.28.86 2.43-.75 2.43-2.95s.85-3.82 2.8-4.16l-.1-.69c-2.6.49-3.68 2.3-3.68 4.85zm0 0"/></symbol><symbol overflow="visible" id="790c680dJ"><path d="M3.36.16c1.4 0 2.2-.6 2.2-1.57 0-.89-.54-1.22-1.47-1.39L3-3c-.67-.14-.86-.33-.86-.73 0-.5.4-.74 1.17-.74.83 0 1.19.27 1.27.8l.9-.05c-.12-1-.8-1.47-2.17-1.47-1.34 0-2.1.53-2.1 1.5 0 .81.45 1.22 1.52 1.44l1.04.2c.56.11.87.24.87.72 0 .52-.45.78-1.28.78-.95 0-1.36-.28-1.42-.87l-.9.06C1.07-.36 1.8.16 3.35.16zm0 0"/></symbol><symbol overflow="visible" id="790c680dK"><path d="M3.92-7.14H1.36v.76h1.6v5.61H1.15V0H5.7v-.77H3.92zm0 0"/></symbol><symbol overflow="visible" id="790c680dL"><path d="M3.16 2.03c1.67 0 2.4-.86 2.4-2.51v-4.54h-.81l-.13.91h-.06c-.26-.58-.8-1.05-1.73-1.05-1.42 0-2.24 1-2.24 2.52 0 1.6.75 2.56 2.2 2.56.94 0 1.5-.5 1.77-1.03h.05v.72c0 1.17-.42 1.67-1.45 1.67-.93 0-1.3-.34-1.41-.89L.8.5c.12.96.87 1.54 2.36 1.54zM3.06-.8c-.98 0-1.48-.57-1.48-1.82 0-1.13.5-1.75 1.48-1.75 1.06 0 1.58.76 1.58 1.75 0 .95-.56 1.82-1.58 1.82zm0 0"/></symbol><symbol overflow="visible" id="790c680dM"><path d="M1.45-7.1c1.96.33 2.8 1.94 2.8 4.15 0 2.2-.84 3.8-2.8 4.17l.11.67c2.58-.47 3.67-2.28 3.67-4.84 0-2.55-1.09-4.36-3.67-4.85zm0 0"/></symbol></defs><use xlink:href="#790c680da" x="122.52" y="164" fill="#515151"/><use xlink:href="#790c680db" x="178.52" y="164" fill="#fff"/><use xlink:href="#790c680dc" x="210.84" y="164" fill="#fff"/><g fill="#515151"><use xlink:href="#790c680dd" x="247.24" y="164"/><use xlink:href="#790c680de" x="296.76" y="164"/><use xlink:href="#790c680df" x="316.12" y="164"/></g><use xlink:href="#790c680dg" x="379.96" y="164" fill="#fff"/><use xlink:href="#790c680dh" x="409.56" y="164" fill="#fff"/><use xlink:href="#790c680di" x="434.12" y="164" fill="#515151"/><g fill="#fff"><use xlink:href="#790c680dj" x="250" y="252"/><use xlink:href="#790c680dk" x="256.667" y="252"/><use xlink:href="#790c680dl" x="263.334" y="252"/><use xlink:href="#790c680dm" x="270.001" y="252"/><use xlink:href="#790c680dn" x="276.668" y="252"/><use xlink:href="#790c680do" x="283.335" y="252"/><use xlink:href="#790c680dp" x="290.002" y="252"/><use xlink:href="#790c680dq" x="296.669" y="252"/><use xlink:href="#790c680dr" x="303.336" y="252"/><use xlink:href="#790c680ds" x="310.003" y="252"/><use xlink:href="#790c680do" x="316.67" y="252"/><use xlink:href="#790c680dt" x="323.337" y="252"/><use xlink:href="#790c680du" x="330.004" y="252"/><use xlink:href="#790c680dv" x="336.671" y="252"/><use xlink:href="#790c680dw" x="343.338" y="252"/></g><g fill="#fff"><use xlink:href="#790c680dx" x="150" y="266"/><use xlink:href="#790c680dk" x="156.667" y="266"/><use xlink:href="#790c680dy" x="163.334" y="266"/><use xlink:href="#790c680dm" x="170.001" y="266"/><use xlink:href="#790c680dz" x="176.668" y="266"/><use xlink:href="#790c680dA" x="183.335" y="266"/><use xlink:href="#790c680dk" x="190.002" y="266"/><use xlink:href="#790c680dn" x="196.669" y="266"/><use xlink:href="#790c680do" x="203.336" y="266"/><use xlink:href="#790c680dB" x="210.003" y="266"/><use xlink:href="#790c680dz" x="216.67" y="266"/><use xlink:href="#790c680dm" x="223.337" y="266"/><use xlink:href="#790c680dC" x="230.004" y="266"/><use xlink:href="#790c680dD" x="236.671" y="266"/><use xlink:href="#790c680do" x="243.338" y="266"/><use xlink:href="#790c680dE" x="250.005" y="266"/><use xlink:href="#790c680dF" x="256.672" y="266"/><use xlink:href="#790c680dv" x="263.339" y="266"/><use xlink:href="#790c680dG" x="270.006" y="266"/><use xlink:href="#790c680do" x="276.673" y="266"/><use xlink:href="#790c680dH" x="283.34" y="266"/><use xlink:href="#790c680dF" x="290.007" y="266"/><use xlink:href="#790c680dm" x="296.674" y="266"/><use xlink:href="#790c680dD" x="303.341" y="266"/><use xlink:href="#790c680do" x="310.008" y="266"/><use xlink:href="#790c680dy" x="316.675" y="266"/><use xlink:href="#790c680dC" x="323.342" y="266"/><use xlink:href="#790c680dz" x="330.009" y="266"/><use xlink:href="#790c680dm" x="336.676" y="266"/><use xlink:href="#790c680dk" x="343.343" y="266"/><use xlink:href="#790c680do" x="350.01" y="266"/><use xlink:href="#790c680dI" x="356.677" y="266"/><use xlink:href="#790c680dJ" x="363.344" y="266"/><use xlink:href="#790c680dk" x="370.011" y="266"/><use xlink:href="#790c680dm" x="376.678" y="266"/><use xlink:href="#790c680do" x="383.345" y="266"/><use xlink:href="#790c680dK" x="390.012" y="266"/><use xlink:href="#790c680dy" x="396.679" y="266"/><use xlink:href="#790c680dw" x="403.346" y="266"/><use xlink:href="#790c680dL" x="410.013" y="266"/><use xlink:href="#790c680dz" x="416.68" y="266"/><use xlink:href="#790c680dy" x="423.347" y="266"/><use xlink:href="#790c680dL" x="430.014" y="266"/><use xlink:href="#790c680dk" x="436.681" y="266"/><use xlink:href="#790c680dM" x="443.348" y="266"/></g></svg>