<?xml version='1.0' encoding='UTF-8'?>
<svg xmlns="http://www.w3.org/2000/svg" xmlns:xlink="http://www.w3.org/1999/xlink" width="310px" height="280px" viewBox="0 0 310 280" x="0px" y="0px" enable-background="new 0 0 310 280"><defs><symbol overflow="visible" id="8a37a031a"><path d="M22.69-29.44l.37 2.4c.32 2.15 1.72 3.16 3.4 3.16 1.77 0 3.29-1.07 3.07-3.87l-.1-1.84c-.21-3.08-1.68-4.86-4.16-5.94a19.46 19.46 0 00-7.77-1.56c-10.6 0-14.9 8.9-14.9 18.95C2.6-7.72 7.22.55 17.76.55c3.07 0 7.78-.77 10.15-2.4 1.24-.85 1.67-1.93 1.67-2.9 0-1.73-1.07-3.14-3.03-3.14-1.12 0-2.15.55-3.28.98-1.25.49-2.92.97-4.87.97-6.54 0-8.7-5.12-8.7-12.04 0-6.8 2.12-12.64 8.06-12.64 1.67 0 3.67.43 4.92 1.18zm0 0"/></symbol><symbol overflow="visible" id="8a37a031b"><path d="M.55-2.97A2.88 2.88 0 003.45 0H18.1C19.7 0 21-1.3 21-2.97a2.9 2.9 0 00-2.9-2.92h-3.74v-30.34c0-1.63-1.3-2.97-2.9-2.97h-7.9a2.95 2.95 0 00-2.92 2.97c0 1.67 1.3 2.92 2.92 2.92h3.67V-5.9H3.45C1.78-5.9.55-4.6.55-2.97zm0 0"/></symbol><symbol overflow="visible" id="8a37a031c"><path d="M2.38-13.23C2.38-5.56 6.8.55 14.95.55c8.11 0 12.53-6.11 12.53-13.78 0-7.72-4.53-13.82-12.53-13.82-8.04 0-12.57 6.1-12.57 13.82zM14.95-5.3c-3.18 0-5.39-2.86-5.39-7.93 0-5.13 2.2-7.99 5.4-7.99 3.13 0 5.4 2.86 5.4 7.99 0 5.07-2.27 7.93-5.4 7.93zm0 0"/></symbol><symbol overflow="visible" id="8a37a031d"><path d="M3.83-3.19c0 2 1.58 3.56 3.56 3.56 2 0 3.58-1.56 3.58-3.56V-19.1c1.34-1.19 3.28-2.1 4.8-2.1 2.48 0 4.1.85 4.1 4.41v13.61c0 2 1.46 3.56 3.57 3.56 2 0 3.56-1.56 3.56-3.56v-13.6c0-7.24-3.63-10.26-9.67-10.26-2.05 0-5.06 1.02-7.45 3.46l-.27-1.08c-.42-1.3-1.34-2.17-3.23-2.17-2.22 0-3.2 1.57-3.2 3.4 0 1.3.65 2.6.65 5.46zm0 0"/></symbol><symbol overflow="visible" id="8a37a031e"><path d="M9.6-10.97h13.35c1.57 0 2.7-.48 2.7-3.83 0-6.68-2.92-12.25-11.18-12.25-7.99 0-12.03 5.35-12.03 13.66C2.44-5.2 6.42.55 15.17.55c2.49 0 6-.5 8-1.58 1.08-.6 1.9-1.4 1.9-2.69 0-1.3-.88-2.55-2.82-2.55-1.19 0-2.33.44-3.63.66-1.01.27-2.2.42-3.39.42-4.37 0-5.62-2.6-5.62-5.78zm0-4.58c.23-3.78 1.96-5.67 4.87-5.67 3.51 0 4.6 2.42 4.64 5.67zm0 0"/></symbol><symbol overflow="visible" id="8a37a031f"><path d="M4.1.17c2 0 2.96-1 3.23-2.78l-1.14-.1c-.22 1.29-.8 1.9-2.07 1.9-1.51 0-2.17-1.13-2.17-3.24 0-2.1.66-3.25 2.17-3.25 1.29 0 1.8.58 2.07 1.9l1.12-.12c-.26-1.76-1.14-2.76-3.15-2.76C1.84-8.28.75-6.7.75-4.05.75-1.4 1.85.17 4.11.17zm0 0"/></symbol><symbol overflow="visible" id="8a37a031g"><path d="M4.7-8.58H1.64v.92h1.92v6.74h-2.2V0h5.47v-.92H4.7zm0 0"/></symbol><symbol overflow="visible" id="8a37a031h"><path d="M4 .17c1.95 0 3-1.14 3-3.19 0-2.03-1.05-3.17-3-3.17S1-5.05 1-3.02C1-.97 2.05.18 4 .18zm0-.92c-1.28 0-1.83-.72-1.83-2.27 0-1.53.55-2.25 1.83-2.25s1.83.72 1.83 2.25C5.83-1.47 5.28-.75 4-.75zm0 0"/></symbol><symbol overflow="visible" id="8a37a031i"><path d="M2.6 0v-3.22c0-1.17.71-1.94 1.76-1.94.87 0 1.26.46 1.26 1.47V0h1.15v-3.97c0-1.45-.7-2.22-2-2.22-1.11 0-1.79.55-2.13 1.3h-.08l-.14-1.13h-.97V0zm0 0"/></symbol><symbol overflow="visible" id="8a37a031j"><path d="M6.9-2.69v-.5C6.9-5.13 5.82-6.2 4-6.2 2.17-6.2 1.06-5 1.06-2.98c0 2.06 1.08 3.15 3 3.15C5.75.17 6.52-.5 6.8-1.64l-1.08-.13c-.24.75-.7 1.07-1.64 1.07-1.11 0-1.81-.64-1.88-1.99zM4-5.33c1.14 0 1.75.61 1.8 1.88H2.22c.1-1.28.7-1.88 1.78-1.88zm0 0"/></symbol><symbol overflow="visible" id="8a37a031l"><path d="M4.88-3.33c1.5-.04 2.3-.84 2.3-2.36 0-1.62-.84-2.42-2.6-2.42H1.1V0h1.17v-3.28h1.28L5.94 0h1.33zM2.27-7.2h2.03c1.27 0 1.75.42 1.75 1.53 0 1.1-.53 1.53-1.76 1.53H2.28zm0 0"/></symbol><symbol overflow="visible" id="8a37a031m"><path d="M3.28.17c1.08 0 1.7-.53 2.08-1.3h.08L5.58 0h.97v-6.02H5.4v3.24c0 1.17-.66 1.94-1.74 1.94-.9 0-1.3-.47-1.3-1.47v-3.7H1.24v3.96c0 1.4.68 2.22 2.05 2.22zm0 0"/></symbol><symbol overflow="visible" id="8a37a031n"><path d="M3.42.17c1.13 0 1.77-.5 2.1-1.26h.07L5.75 0h.92v-8.58H5.53v3.56h-.08c-.34-.75-1.04-1.17-2.01-1.17C1.64-6.19.72-5 .72-3.02c0 2 .92 3.2 2.7 3.2zm.27-.95c-1.2 0-1.8-.74-1.8-2.22 0-1.52.6-2.23 1.78-2.23 1.35 0 1.9.95 1.9 2.23 0 1.27-.55 2.22-1.88 2.22zm0 0"/></symbol><symbol overflow="visible" id="8a37a031o"><path d="M1.1-8.1V0h1.18v-2.72h2.03c1.9 0 2.86-.8 2.86-2.64v-.17c0-1.81-.97-2.58-2.83-2.58zM6-5.37C6-4.1 5.48-3.6 4.1-3.6H2.29v-3.58h1.83c1.37 0 1.89.4 1.89 1.66zm0 0"/></symbol><symbol overflow="visible" id="8a37a031p"><path d="M7.1-8.1H1.32V0h5.8v-.95H2.47v-2.72h3.87v-.9H2.47v-2.59H7.1zm0 0"/></symbol></defs><use xlink:href="#8a37a031a" x="84.611" y="145"/><use xlink:href="#8a37a031b" x="116.039" y="145"/><use xlink:href="#8a37a031c" x="137.207" y="145"/><use xlink:href="#8a37a031d" x="167.015" y="145"/><use xlink:href="#8a37a031e" x="197.471" y="145"/><g fill-opacity=".33"><use xlink:href="#8a37a031f" x="91" y="230"/><use xlink:href="#8a37a031g" x="99.0004" y="230"/><use xlink:href="#8a37a031h" x="107.0008" y="230"/><use xlink:href="#8a37a031i" x="115.0012" y="230"/><use xlink:href="#8a37a031j" x="123.0016" y="230"/><use xlink:href="#8a37a031k" x="131.002" y="230"/><use xlink:href="#8a37a031l" x="139.0024" y="230"/><use xlink:href="#8a37a031h" x="147.0028" y="230"/><use xlink:href="#8a37a031m" x="155.0032" y="230"/><use xlink:href="#8a37a031i" x="163.0036" y="230"/><use xlink:href="#8a37a031n" x="171.004" y="230"/><use xlink:href="#8a37a031j" x="179.0044" y="230"/><use xlink:href="#8a37a031n" x="187.0048" y="230"/><use xlink:href="#8a37a031k" x="195.0052" y="230"/><use xlink:href="#8a37a031o" x="203.0056" y="230"/><use xlink:href="#8a37a031p" x="211.006" y="230"/></g></svg>