<?xml version='1.0' encoding='UTF-8'?>
<svg xmlns="http://www.w3.org/2000/svg" xmlns:xlink="http://www.w3.org/1999/xlink" width="200px" height="800px" viewBox="0 0 200 800" x="0px" y="0px" enable-background="new 0 0 200 800"><defs><symbol overflow="visible" id="a4d0159aa"><path d="M5.52-12.64h1.76c3.64 0 4.67 1.64 5.88 4.05L17.3-.23c.13.28.4.39.64.39.46 0 .77-.32.77-.72 0-.2-.08-.36-.16-.52L14.6-8.92c-1-1.92-1.95-3.72-4.1-4.36 2.38-.85 3.59-3 4.15-4.4l2.92-7.4c.03-.15.16-.48.16-.6 0-.4-.31-.68-.77-.68a.7.7 0 00-.64.4l-3.15 8.09c-.93 2.3-2.29 3.95-5.88 3.95H5.52v-11.72c0-.4-.32-.72-.75-.72a.7.7 0 00-.72.72V-.56c0 .4.3.72.72.72.43 0 .75-.32.75-.72zm0 0"/></symbol><symbol overflow="visible" id="a4d0159ab"><path d="M14.31-17.69V-.56c0 .4.33.72.74.72.43 0 .75-.32.75-.72v-17.72c0-.4-.32-.72-.75-.72h-8.1a.74.74 0 00-.72.72l-.18 4.23C5.69-6.69 4.77-3.48 1.44-1.28c-.36.23-.64.44-.64.84 0 .4.28.67.72.67.2 0 .43-.07.68-.23 4-2.8 4.88-6.6 5.28-14l.2-3.69zm0 0"/></symbol><symbol overflow="visible" id="a4d0159ac"><path d="M2.64-9.52c0 5.8 2.8 9.93 7.84 9.93s7.88-4.13 7.88-9.93c0-5.84-2.92-9.89-7.88-9.89s-7.84 4.05-7.84 9.9zm7.84 8.64c-4.17 0-6.36-3.84-6.36-8.64 0-4.84 2.2-8.6 6.36-8.6 4.2 0 6.4 3.76 6.4 8.6 0 4.8-2.2 8.64-6.4 8.64zm0 0"/></symbol><symbol overflow="visible" id="a4d0159ad"><path d="M3.72-.56c0 .4.33.72.72.72.43 0 .76-.32.76-.72v-8.85h10.52v8.85c0 .4.33.72.72.72.4 0 .76-.32.76-.72v-17.88c0-.4-.36-.72-.76-.72s-.72.32-.72.72v7.75H5.2v-7.75c0-.4-.33-.72-.76-.72-.4 0-.72.32-.72.72zm0 0"/></symbol><symbol overflow="visible" id="a4d0159ae"><path d="M3.42.14C5.1.14 5.9-.69 6.11-2.17l-.95-.1C4.96-1.19 4.5-.69 3.44-.69c-1.27 0-1.81-.94-1.81-2.69s.54-2.7 1.8-2.7c1.09 0 1.5.49 1.73 1.58l.93-.1c-.21-1.46-.95-2.3-2.62-2.3C1.53-6.9.62-5.6.62-3.38c0 2.2.91 3.51 2.8 3.51zm0 0"/></symbol><symbol overflow="visible" id="a4d0159af"><path d="M3.92-7.14H1.36v.76h1.6v5.61H1.15V0H5.7v-.77H3.92zm0 0"/></symbol><symbol overflow="visible" id="a4d0159ag"><path d="M3.33.14c1.62 0 2.5-.95 2.5-2.66 0-1.68-.88-2.64-2.5-2.64-1.63 0-2.5.96-2.5 2.64 0 1.7.87 2.66 2.5 2.66zm0-.77c-1.06 0-1.52-.6-1.52-1.89 0-1.28.46-1.87 1.52-1.87 1.08 0 1.53.6 1.53 1.87 0 1.29-.45 1.9-1.53 1.9zm0 0"/></symbol><symbol overflow="visible" id="a4d0159ah"><path d="M2.16 0v-2.67c0-.99.59-1.63 1.46-1.63.74 0 1.07.38 1.07 1.22V0h.95v-3.31c0-1.2-.56-1.85-1.67-1.85-.92 0-1.49.46-1.77 1.08h-.06l-.12-.94H1.2V0zm0 0"/></symbol><symbol overflow="visible" id="a4d0159ai"><path d="M5.75-2.23v-.43c0-1.6-.9-2.51-2.42-2.51S.87-4.16.87-2.48c0 1.71.91 2.62 2.5 2.62 1.43 0 2.07-.56 2.29-1.52l-.9-.09c-.18.61-.59.9-1.35.9-.94 0-1.52-.54-1.58-1.66zm-2.4-2.2c.93 0 1.43.5 1.48 1.55H1.84c.08-1.07.6-1.56 1.5-1.56zm0 0"/></symbol><symbol overflow="visible" id="a4d0159ak"><path d="M4.06-2.77c1.25-.04 1.92-.7 1.92-1.96 0-1.36-.7-2.04-2.17-2.04H.92V0h.97v-2.73h1.08L4.95 0h1.1zM1.9-6h1.7c1.07 0 1.46.34 1.46 1.28 0 .9-.44 1.27-1.47 1.27H1.89zm0 0"/></symbol><symbol overflow="visible" id="a4d0159al"><path d="M2.73.14c.9 0 1.43-.45 1.74-1.08h.06l.13.94h.8v-5.02h-.94v2.7c0 .98-.57 1.62-1.46 1.62-.75 0-1.1-.4-1.1-1.22v-3.1h-.93v3.32c0 1.17.55 1.84 1.7 1.84zm0 0"/></symbol><symbol overflow="visible" id="a4d0159am"><path d="M2.84.14C3.8.14 4.33-.26 4.6-.9h.07L4.8 0h.76v-7.14h-.95v2.95h-.08c-.28-.6-.86-.97-1.67-.97-1.48 0-2.27.99-2.27 2.64C.6-.84 1.36.14 2.84.14zm.22-.8c-.98 0-1.48-.59-1.48-1.84s.5-1.86 1.48-1.86c1.13 0 1.58.8 1.58 1.86S4.2-.66 3.06-.66zm0 0"/></symbol><symbol overflow="visible" id="a4d0159an"><path d="M.92-6.77V0h.99v-2.27h1.68c1.58 0 2.38-.65 2.38-2.2v-.14c0-1.51-.8-2.16-2.34-2.16zM5-4.47c0 1.05-.42 1.45-1.58 1.45H1.91v-2.96h1.51C4.58-5.98 5-5.66 5-4.61zm0 0"/></symbol><symbol overflow="visible" id="a4d0159ao"><path d="M5.92-6.77H1.1V0h4.83v-.8H2.06v-2.26h3.22v-.75H2.06v-2.16h3.86zm0 0"/></symbol><symbol overflow="visible" id="a4d0159ap"><path d="M3.83 0v-5.95H6.2v-.82H.45v.82h2.4V0zm0 0"/></symbol><symbol overflow="visible" id="a4d0159aq"><path d="M2.16 0v-2.69c0-.98.6-1.6 1.46-1.6.74 0 1.07.4 1.07 1.2V0h.95v-3.31c0-1.17-.56-1.85-1.67-1.85-.9 0-1.44.46-1.75 1.08h-.06v-3.06H1.2V0zm0 0"/></symbol><symbol overflow="visible" id="a4d0159ar"><path d="M3.58-5.81c.42 0 .72-.22.72-.67 0-.44-.3-.68-.72-.68-.44 0-.72.24-.72.68 0 .45.28.67.72.67zm.5.8H1.52v.76h1.6v3.48h-1.8V0h4.46v-.77h-1.7zm0 0"/></symbol><symbol overflow="visible" id="a4d0159aw"><path d="M1.83 0l1.42-2h.06l1.46 2H5.8L4-2.53l1.78-2.49H4.8L3.42-3.08h-.08l-1.4-1.94H.89l1.78 2.49L.84 0zm0 0"/></symbol><symbol overflow="visible" id="a4d0159ax"><path d="M5.52-4.25v-.77H3.17v-1.56h-.81l-.14 1.56H.75v.77h1.47v2.4c0 1.3.48 1.94 1.84 1.94C4.6.1 5.14 0 5.55-.14L5.4-.91c-.32.13-.72.2-1.13.2-.8 0-1.1-.37-1.1-1.23v-2.31zm0 0"/></symbol><symbol overflow="visible" id="a4d0159ay"><path d="M5.08-5.16c-.94 0-1.58.43-1.9 1.3h-.09l-.07-1.16H1.05v.77h1.1v3.48H.96V0h3.96v-.77H3.1v-1.46c0-1.36.6-2.05 1.83-2.05.4 0 .76.08 1.1.17l.15-.87c-.33-.11-.7-.18-1.11-.18zm0 0"/></symbol><symbol overflow="visible" id="a4d0159az"><path d="M2.83.14c.94 0 1.5-.39 1.81-.95h.08l.1.81h.76v-3.38c0-1.23-.69-1.8-2.13-1.8-1.43 0-2.03.65-2.18 1.6l.93.1c.11-.6.44-.93 1.22-.93.85 0 1.22.32 1.22 1.04v.34l-1.81.2C1.6-2.7 1.1-2.17 1.1-1.28c0 .92.64 1.42 1.72 1.42zm.25-.77c-.67 0-1.02-.28-1.02-.74 0-.44.28-.72 1-.82l1.58-.19v.41c0 .8-.6 1.34-1.56 1.34zm0 0"/></symbol><symbol overflow="visible" id="a4d0159aA"><path d="M3.16 2.03c1.67 0 2.4-.86 2.4-2.51v-4.54h-.81l-.13.91h-.06c-.26-.58-.8-1.05-1.73-1.05-1.42 0-2.24 1-2.24 2.52 0 1.6.75 2.56 2.2 2.56.94 0 1.5-.5 1.77-1.03h.05v.72c0 1.17-.42 1.67-1.45 1.67-.93 0-1.3-.34-1.41-.89L.8.5c.12.96.87 1.54 2.36 1.54zM3.06-.8c-.98 0-1.48-.57-1.48-1.82 0-1.13.5-1.75 1.48-1.75 1.06 0 1.58.76 1.58 1.75 0 .95-.56 1.82-1.58 1.82zm0 0"/></symbol><symbol overflow="visible" id="a4d0159aF"><path d="M2.08-6.77h-.99V0h4.79v-.81h-3.8zm0 0"/></symbol><symbol overflow="visible" id="a4d0159aO"><path d="M1.64 0v-3.17l-.16-2.5h.1L2.9-1.83h.82l1.35-3.84h.1l-.16 2.5V0h.95v-6.77h-1.3l-1.3 3.82h-.09L2-6.77H.69V0zm0 0"/></symbol><symbol overflow="visible" id="a4d0159aP"><path d="M1.63 0v-2.9c0-.8.15-1.4.71-1.4.41 0 .55.3.55.88V0h.95v-2.9c0-.8.18-1.4.72-1.4.4 0 .57.3.57.88V0h.95v-3.63c0-.92-.28-1.53-1.11-1.53-.63 0-.95.41-1.1.9h-.06c-.1-.52-.44-.9-1.08-.9-.6 0-.93.41-1.06.9H1.6l-.23-.76H.67V0zm0 0"/></symbol><symbol overflow="visible" id="a4d0159aU"><path d="M3.42.14c1.61 0 2.56-.75 2.56-2 0-1.1-.67-1.6-1.95-1.86l-.97-.2c-.87-.17-1.23-.49-1.23-1.11 0-.7.54-1.11 1.5-1.11 1.06 0 1.51.34 1.69 1.23l.9-.09c-.17-1.28-.98-1.9-2.6-1.9C1.79-6.9.9-6.18.9-4.98c0 1.06.66 1.66 1.88 1.9l1.01.2c.85.17 1.25.4 1.25 1.09 0 .73-.6 1.16-1.6 1.16-1.07 0-1.66-.4-1.8-1.24l-.94.1C.83-.53 1.75.13 3.42.13zm0 0"/></symbol><symbol overflow="visible" id="a4d0159aV"><path d="M3.9.14c1.48 0 2.18-.98 2.18-2.64 0-1.67-.7-2.66-2.17-2.66-.91 0-1.49.41-1.79 1h-.06v-2.98h-.95V0h.81l.11-.9h.06c.29.63.82 1.04 1.82 1.04zm-.32-.8c-1.08 0-1.55-.8-1.55-1.84 0-1.06.47-1.86 1.55-1.86 1.1 0 1.51.61 1.51 1.86S4.64-.66 3.58-.66zm0 0"/></symbol><symbol overflow="visible" id="a4d0159aaa"><path d="M4.66-3.45c.76-.14 1.15-.67 1.15-1.57 0-1.07-.64-1.75-2.18-1.75H.92V0h2.71C5.2 0 5.98-.64 5.98-1.77c0-1.03-.56-1.43-1.32-1.59zM3.56-6c.9 0 1.31.4 1.31 1.13 0 .71-.4 1.14-1.3 1.14h-1.7V-6zM1.87-.75v-2.27H3.6c.97 0 1.44.33 1.44 1.13 0 .8-.47 1.14-1.44 1.14zm0 0"/></symbol><symbol overflow="visible" id="a4d0159as"><path d="M5.92-12.4H7.7c3.31 0 4.31 1.48 5.43 3.71L17.29-.4c.16.36.52.57.92.57.57 0 1.03-.44 1.03-1 0-.24-.1-.47-.23-.68l-3.69-7.36c-1-1.89-2.08-3.89-4.23-4.43 2.36-.77 3.56-2.97 4.2-4.49l2.77-7c.07-.2.23-.56.23-.72 0-.6-.48-1-1.05-1-.36 0-.75.2-.92.57l-3.18 8.03c-.9 2.2-2.2 3.72-5.44 3.72H5.92v-11.28a1 1 0 00-1.04-1.04c-.57 0-1.04.44-1.04 1.04v24.6c0 .6.47 1.04 1.04 1.04A1 1 0 005.92-.87zm0 0"/></symbol><symbol overflow="visible" id="a4d0159at"><path d="M14.28-17.31V-.88c0 .6.49 1.04 1.03 1.04a1 1 0 001.05-1.03v-17.2c0-.57-.44-1.05-1.05-1.05H7.12c-.56 0-1.04.48-1.04 1.04l-.24 4.31c-.4 6.93-1.2 9.9-4.32 11.97-.44.32-.72.64-.72 1.08 0 .52.43.95 1 .95.32 0 .68-.1 1-.35 3.8-2.72 4.68-6.65 5.08-13.6l.2-3.6zm0 0"/></symbol><symbol overflow="visible" id="a4d0159au"><path d="M2.48-9.56C2.48-3.8 5.36.4 10.56.4c5.24 0 8.08-4.2 8.08-9.97 0-5.85-2.92-9.96-8.08-9.96-5.12 0-8.08 4.11-8.08 9.96zm8.08 8.2c-3.87 0-6-3.6-6-8.2 0-4.67 2.13-8.2 6-8.2 3.92 0 6 3.53 6 8.2 0 4.6-2.08 8.2-6 8.2zm0 0"/></symbol><symbol overflow="visible" id="a4d0159av"><path d="M3.56-.88A1 1 0 004.6.17c.57 0 1.05-.44 1.05-1.03V-9.2h9.84v8.32A1 1 0 0016.52.17c.56 0 1.04-.44 1.04-1.03v-17.36c0-.61-.48-1.05-1.04-1.05a1 1 0 00-1.04 1.05v7.28H5.64v-7.28c0-.61-.48-1.05-1.05-1.05a1 1 0 00-1.03 1.05zm0 0"/></symbol><symbol overflow="visible" id="a4d0159aB"><path d="M6.4-12.2h1.72c2.93 0 3.93 1.32 4.96 3.4L17.2-.52c.2.4.72.72 1.2.72.76 0 1.37-.56 1.37-1.36 0-.28-.18-.6-.29-.84l-3.43-6.8c-.93-1.84-2.18-3.97-4.2-4.56 2.23-.8 3.38-2.95 4.1-4.6l2.64-6.48c.13-.33.25-.68.25-.97 0-.75-.6-1.28-1.36-1.28-.48 0-1 .28-1.17.74l-3.26 8c-.85 2.1-2.05 3.43-4.97 3.43H6.4v-10.8c0-.76-.61-1.37-1.36-1.37-.82 0-1.36.61-1.36 1.38v24.15C3.69-.4 4.23.2 5.05.2 5.8.2 6.4-.4 6.4-1.16zm0 0"/></symbol><symbol overflow="visible" id="a4d0159aC"><path d="M14.28-16.92v15.76c0 .75.56 1.36 1.36 1.36C16.41.2 17-.4 17-1.16v-16.68c0-.8-.6-1.36-1.36-1.36h-8.4c-.72 0-1.32.56-1.37 1.36l-.28 4.36c-.36 6.53-1.07 9.12-4 11.17-.51.36-.8.75-.8 1.26C.8-.3 1.37.23 2.13.23c.44 0 .93-.18 1.32-.51C7-2.88 7.92-6.88 8.3-13.44l.2-3.48zm0 0"/></symbol><symbol overflow="visible" id="a4d0159aD"><path d="M2.36-9.6c0 5.76 2.95 10 8.33 10C16.05.4 19-3.83 19-9.6c0-5.8-3.05-10-8.31-10-5.28 0-8.33 4.2-8.33 10zm8.33 7.72c-3.61 0-5.61-3.28-5.61-7.71 0-4.54 2-7.77 5.6-7.77 3.55 0 5.6 3.23 5.6 7.77 0 4.43-2.05 7.71-5.6 7.71zm0 0"/></symbol><symbol overflow="visible" id="a4d0159aE"><path d="M3.36-1.16C3.36-.4 3.96.2 4.72.2c.76 0 1.36-.6 1.36-1.36v-7.8h9.12v7.8a1.36 1.36 0 002.72 0v-16.89a1.36 1.36 0 00-2.72 0v6.82H6.08v-6.82c0-.75-.6-1.36-1.36-1.36-.77 0-1.36.61-1.36 1.36zm0 0"/></symbol><symbol overflow="visible" id="a4d0159aG"><path d="M6.84-11.95h1.72c2.56 0 3.52 1.15 4.49 3.07l4.1 8.2c.26.48.85.88 1.5.88.91 0 1.66-.68 1.66-1.64 0-.36-.18-.76-.36-1.04L16.8-8.77c-.93-1.75-2.24-4.07-4.28-4.64 2.17-.75 3.36-2.9 4.12-4.67l2.48-6.05c.16-.39.32-.8.32-1.1 0-.97-.75-1.61-1.67-1.61-.61 0-1.25.36-1.46.89L13-18c-.8 2-1.95 3.16-4.48 3.16H6.84v-10.32c0-.96-.71-1.68-1.68-1.68-.96 0-1.68.71-1.68 1.68v23.68C3.48-.52 4.2.2 5.16.2s1.68-.72 1.68-1.68zm0 0"/></symbol><symbol overflow="visible" id="a4d0159aH"><path d="M14.23-16.52v15.04c0 .96.72 1.68 1.7 1.68.95 0 1.66-.72 1.66-1.68v-16.16c0-.95-.71-1.67-1.67-1.67H7.41a1.7 1.7 0 00-1.7 1.67l-.3 4.44C5-7.13 4.4-4.8 1.69-2.88c-.61.44-.9.96-.9 1.52 0 .88.73 1.6 1.65 1.6C3 .23 3.59 0 4.08-.42c3.36-2.51 4.28-6.64 4.69-12.75l.18-3.36zm0 0"/></symbol><symbol overflow="visible" id="a4d0159aI"><path d="M2.2-9.64C2.2-3.92 5.23.4 10.77.4 16.3.4 19.3-3.92 19.3-9.64c0-5.8-3.08-10.08-8.54-10.08-5.46 0-8.57 4.28-8.57 10.08zm8.57 7.23c-3.29 0-5.2-3-5.2-7.23 0-4.36 1.91-7.31 5.2-7.31 3.28 0 5.18 2.95 5.18 7.3 0 4.24-1.9 7.24-5.18 7.24zm0 0"/></symbol><symbol overflow="visible" id="a4d0159aJ"><path d="M3.2-1.48C3.2-.52 3.92.2 4.87.2c.93 0 1.7-.72 1.7-1.68v-7.29h8.38v7.29c0 .96.74 1.68 1.7 1.68.91 0 1.66-.72 1.66-1.68v-16.36c0-.96-.75-1.68-1.67-1.68-.95 0-1.69.72-1.69 1.68v6.32H6.56v-6.32c0-.96-.76-1.68-1.68-1.68-.96 0-1.68.72-1.68 1.68zm0 0"/></symbol><symbol overflow="visible" id="a4d0159aK"><path d="M7.31-11.72h1.64c2.2 0 3.13.95 4 2.72l4.18 8.16c.28.56 1 1.07 1.71 1.07 1.11 0 2.04-.8 2.04-1.95 0-.4-.29-.92-.44-1.23L17.52-8.7c-.88-1.72-2.29-4.15-4.24-4.75 2.08-.8 3.2-2.97 4.03-4.8l2.33-5.56c.2-.43.36-.92.36-1.32 0-1.16-.84-1.93-1.95-1.93-.74 0-1.49.49-1.77 1.1L12.95-18c-.8 1.84-1.87 2.84-4 2.84H7.31v-9.89a2 2 0 00-2.03-2c-1.12 0-2 .9-2 2v23.28c0 1.13.88 2 2 2 1.16 0 2.03-.87 2.03-2zm0 0"/></symbol><symbol overflow="visible" id="a4d0159aL"><path d="M14.2-16.08v14.31c0 1.13.85 2 2 2 1.11 0 2-.87 2-2v-15.67c0-1.12-.89-2-2-2H7.52c-1.11 0-1.88.88-2 2l-.36 4.57c-.4 5.64-.88 7.59-3.44 9.43-.6.49-.95 1.13-.95 1.72 0 1.13.87 2 2 2a3.2 3.2 0 002-.84C7.84-3 8.8-7.16 9.16-12.84l.25-3.24zm0 0"/></symbol><symbol overflow="visible" id="a4d0159aM"><path d="M2.05-9.72C2.05-4 5.15.41 10.87.41 16.57.4 19.7-4 19.7-9.72c0-5.76-3.2-10.12-8.82-10.12-5.64 0-8.82 4.36-8.82 10.12zm8.82 6.85c-2.95 0-4.8-2.72-4.8-6.85 0-4.12 1.85-6.8 4.8-6.8 2.97 0 4.82 2.68 4.82 6.8 0 4.13-1.85 6.85-4.81 6.85zm0 0"/></symbol><symbol overflow="visible" id="a4d0159aN"><path d="M3-1.77c0 1.13.88 2 2 2 1.16 0 2-.87 2-2v-6.75h7.69v6.75c0 1.13.83 2 2 2 1.15 0 2-.87 2-2v-15.92c0-1.1-.85-2-2-2-1.17 0-2 .9-2 2v5.92H7v-5.92c0-1.1-.84-2-2-2-1.13 0-2 .9-2 2zm0 0"/></symbol><symbol overflow="visible" id="a4d0159aQ"><path d="M7.77-11.48H9.4c1.82 0 2.71.8 3.51 2.4L17.08-1a2.36 2.36 0 002 1.23c1.28 0 2.36-.92 2.36-2.23 0-.48-.32-1.08-.52-1.44l-2.64-5.2c-.87-1.67-2.33-4.23-4.28-4.88 2-.71 3.13-2.92 4-4.84l2.16-5.12c.25-.52.43-1.04.43-1.47 0-1.36-1-2.25-2.28-2.25-.83 0-1.72.56-2.03 1.25l-3.36 7.9c-.76 1.74-1.8 2.57-3.51 2.57H7.77v-9.4c0-1.32-1-2.32-2.36-2.32a2.3 2.3 0 00-2.33 2.32v22.8A2.3 2.3 0 005.4.23c1.36 0 2.36-1 2.36-2.3zm0 0"/></symbol><symbol overflow="visible" id="a4d0159aR"><path d="M14.16-15.69v13.61c0 1.31 1 2.31 2.32 2.31 1.32 0 2.32-1 2.32-2.3v-15.16c0-1.29-1-2.33-2.32-2.33h-8.8c-1.32 0-2.2 1.04-2.32 2.33l-.4 4.64C4.51-7.41 4.15-5.72 1.8-4A2.68 2.68 0 00.77-2.05 2.32 2.32 0 003.07.28c.85 0 1.7-.4 2.34-.97C8.28-3.05 9.23-7.3 9.59-12.56l.25-3.13zm0 0"/></symbol><symbol overflow="visible" id="a4d0159aS"><path d="M1.88-9.77c0 5.7 3.2 10.18 9.07 10.18C16.85.4 20-4.08 20-9.77c0-5.75-3.23-10.18-9.05-10.18-5.8 0-9.07 4.43-9.07 10.18zm9.07 6.36c-2.64 0-4.39-2.43-4.39-6.36 0-3.95 1.75-6.36 4.4-6.36 2.68 0 4.4 2.41 4.4 6.36 0 3.93-1.72 6.36-4.4 6.36zm0 0"/></symbol><symbol overflow="visible" id="a4d0159aT"><path d="M2.84-2.08c0 1.31 1 2.31 2.32 2.31 1.32 0 2.32-1 2.32-2.3v-6.24h6.96v6.23c0 1.31.97 2.31 2.33 2.31 1.3 0 2.3-1 2.3-2.3v-15.41c0-1.32-1-2.32-2.3-2.32-1.36 0-2.33 1-2.33 2.32v5.43H7.48v-5.43c0-1.32-1-2.32-2.32-2.32-1.32 0-2.32 1-2.32 2.32zm0 0"/></symbol><symbol overflow="visible" id="a4d0159aW"><path d="M8.23-11.28h1.61c1.44 0 2.32.64 3.04 2.08L17-1.13c.36.7 1.31 1.41 2.28 1.41 1.49 0 2.67-1.05 2.67-2.6 0-.52-.36-1.2-.54-1.6L19-8.56c-.8-1.6-2.31-4.24-4.23-5 1.87-.8 3-2.92 3.92-4.96l2.03-4.6c.28-.65.44-1.16.44-1.72 0-1.52-1.11-2.52-2.6-2.52-.97 0-1.97.64-2.28 1.4l-3.44 7.88c-.71 1.64-1.64 2.28-3.04 2.28H8.23v-8.92a2.62 2.62 0 00-2.67-2.64 2.59 2.59 0 00-2.64 2.64v22.36A2.59 2.59 0 005.56.28a2.62 2.62 0 002.67-2.64zm0 0"/></symbol><symbol overflow="visible" id="a4d0159aX"><path d="M14.16-15.28v12.92A2.56 2.56 0 0016.8.28a2.6 2.6 0 002.64-2.64V-17a2.59 2.59 0 00-2.64-2.64h-9c-1.49 0-2.49 1.12-2.64 2.64l-.44 4.69c-.4 4.8-.67 6.1-2.84 7.8C1.13-3.93.76-3.09.76-2.37A2.6 2.6 0 003.4.28c.95 0 1.9-.48 2.64-1.12 2.64-2.24 3.64-6.6 4-11.44l.23-3zm0 0"/></symbol><symbol overflow="visible" id="a4d0159aY"><path d="M1.77-9.8C1.77-4.12 5.05.4 11.07.4c6 0 9.29-4.53 9.29-10.2 0-5.72-3.36-10.25-9.28-10.25-5.96 0-9.31 4.53-9.31 10.25zm9.3 5.88c-2.35 0-4-2.13-4-5.88 0-3.8 1.65-5.92 4-5.92 2.34 0 4 2.13 4 5.92 0 3.75-1.66 5.88-4 5.88zm0 0"/></symbol><symbol overflow="visible" id="a4d0159aZ"><path d="M2.64-2.36A2.6 2.6 0 005.28.28a2.59 2.59 0 002.64-2.64v-5.72h6.24v5.72A2.59 2.59 0 0016.8.28a2.59 2.59 0 002.64-2.64v-14.92a2.59 2.59 0 00-2.64-2.64 2.59 2.59 0 00-2.64 2.64v4.97H7.92v-4.97a2.59 2.59 0 00-2.64-2.64 2.6 2.6 0 00-2.64 2.64zm0 0"/></symbol><symbol overflow="visible" id="a4d0159aab"><path d="M8.69-11.05h1.6c1.07 0 1.91.49 2.55 1.77l4.11 8c.4.76 1.46 1.56 2.57 1.56 1.64 0 3-1.16 3-2.87 0-.61-.4-1.36-.64-1.82l-2.11-4.1c-.82-1.57-2.36-4.29-4.33-5.08 1.8-.82 2.97-2.93 3.92-5.05l1.87-4.16c.33-.72.54-1.28.54-1.89 0-1.72-1.29-2.83-2.93-2.83-1.07 0-2.2.72-2.56 1.57l-3.48 7.82c-.68 1.54-1.57 2-2.57 2H8.7v-8.43a2.91 2.91 0 00-3-2.96 2.9 2.9 0 00-2.97 2.96V-2.7A2.91 2.91 0 005.69.28c1.72 0 3-1.28 3-2.97zm0 0"/></symbol><symbol overflow="visible" id="a4d0159aac"><path d="M14.13-14.88v12.2A2.88 2.88 0 0017.07.27a2.91 2.91 0 002.97-2.97v-14.1a2.91 2.91 0 00-2.97-2.98H7.95c-1.67 0-2.8 1.29-2.95 2.97l-.48 4.75c-.44 4.36-.6 5.4-2.57 6.97a3.19 3.19 0 00-1.18 2.4A2.95 2.95 0 003.72.27C4.8.28 5.87-.23 6.69-.95 9.12-3.12 10.12-7.6 10.49-12l.23-2.88zm0 0"/></symbol><symbol overflow="visible" id="a4d0159aad"><path d="M1.6-9.84C1.6-4.2 4.94.4 11.15.4c6.2 0 9.53-4.61 9.53-10.25 0-5.72-3.4-10.32-9.53-10.32-6.11 0-9.57 4.6-9.57 10.32zm9.56 5.4c-2.04 0-3.6-1.84-3.6-5.4 0-3.64 1.57-5.47 3.6-5.47 2.04 0 3.6 1.83 3.6 5.47 0 3.56-1.56 5.4-3.6 5.4zm0 0"/></symbol><symbol overflow="visible" id="a4d0159aae"><path d="M2.48-2.69A2.9 2.9 0 005.44.28 2.91 2.91 0 008.4-2.69v-5.19h5.51v5.2A2.88 2.88 0 0016.88.27a2.91 2.91 0 002.96-2.97v-14.39a2.91 2.91 0 00-2.96-2.97 2.88 2.88 0 00-2.96 2.97v4.49H8.41v-4.49a2.91 2.91 0 00-2.97-2.97 2.9 2.9 0 00-2.96 2.97zm0 0"/></symbol></defs><use xlink:href="#a4d0159aa" x="59.12" y="64.79225"/><use xlink:href="#a4d0159ab" x="79.52" y="64.79225"/><use xlink:href="#a4d0159ac" x="99.04" y="64.79225"/><use xlink:href="#a4d0159ad" x="120" y="64.79225"/><g fill-opacity=".33"><use xlink:href="#a4d0159ae" x="30" y="94.5845"/><use xlink:href="#a4d0159af" x="36.667" y="94.5845"/><use xlink:href="#a4d0159ag" x="43.334" y="94.5845"/><use xlink:href="#a4d0159ah" x="50.001" y="94.5845"/><use xlink:href="#a4d0159ai" x="56.668" y="94.5845"/><use xlink:href="#a4d0159aj" x="63.335" y="94.5845"/><use xlink:href="#a4d0159ak" x="70.002" y="94.5845"/><use xlink:href="#a4d0159ag" x="76.669" y="94.5845"/><use xlink:href="#a4d0159al" x="83.336" y="94.5845"/><use xlink:href="#a4d0159ah" x="90.003" y="94.5845"/><use xlink:href="#a4d0159am" x="96.67" y="94.5845"/><use xlink:href="#a4d0159ai" x="103.337" y="94.5845"/><use xlink:href="#a4d0159am" x="110.004" y="94.5845"/><use xlink:href="#a4d0159aj" x="116.671" y="94.5845"/><use xlink:href="#a4d0159an" x="123.338" y="94.5845"/><use xlink:href="#a4d0159ao" x="130.005" y="94.5845"/><use xlink:href="#a4d0159aj" x="136.672" y="94.5845"/><use xlink:href="#a4d0159ap" x="143.339" y="94.5845"/><use xlink:href="#a4d0159aq" x="150.006" y="94.5845"/><use xlink:href="#a4d0159ar" x="156.673" y="94.5845"/><use xlink:href="#a4d0159ah" x="163.34" y="94.5845"/></g><use xlink:href="#a4d0159as" x="58.5" y="163.70875"/><use xlink:href="#a4d0159at" x="79.34" y="163.70875"/><use xlink:href="#a4d0159au" x="99.26" y="163.70875"/><use xlink:href="#a4d0159av" x="120.42" y="163.70875"/><g fill-opacity=".33"><use xlink:href="#a4d0159ae" x="10" y="193.501"/><use xlink:href="#a4d0159af" x="16.667" y="193.501"/><use xlink:href="#a4d0159ag" x="23.334" y="193.501"/><use xlink:href="#a4d0159ah" x="30.001" y="193.501"/><use xlink:href="#a4d0159ai" x="36.668" y="193.501"/><use xlink:href="#a4d0159aj" x="43.335" y="193.501"/><use xlink:href="#a4d0159ak" x="50.002" y="193.501"/><use xlink:href="#a4d0159ag" x="56.669" y="193.501"/><use xlink:href="#a4d0159al" x="63.336" y="193.501"/><use xlink:href="#a4d0159ah" x="70.003" y="193.501"/><use xlink:href="#a4d0159am" x="76.67" y="193.501"/><use xlink:href="#a4d0159ai" x="83.337" y="193.501"/><use xlink:href="#a4d0159am" x="90.004" y="193.501"/><use xlink:href="#a4d0159aj" x="96.671" y="193.501"/><use xlink:href="#a4d0159an" x="103.338" y="193.501"/><use xlink:href="#a4d0159ao" x="110.005" y="193.501"/><use xlink:href="#a4d0159aj" x="116.672" y="193.501"/><use xlink:href="#a4d0159ao" x="123.339" y="193.501"/><use xlink:href="#a4d0159aw" x="130.006" y="193.501"/><use xlink:href="#a4d0159ax" x="136.673" y="193.501"/><use xlink:href="#a4d0159ay" x="143.34" y="193.501"/><use xlink:href="#a4d0159az" x="150.007" y="193.501"/><use xlink:href="#a4d0159af" x="156.674" y="193.501"/><use xlink:href="#a4d0159ar" x="163.341" y="193.501"/><use xlink:href="#a4d0159aA" x="170.008" y="193.501"/><use xlink:href="#a4d0159aq" x="176.675" y="193.501"/><use xlink:href="#a4d0159ax" x="183.342" y="193.501"/></g><use xlink:href="#a4d0159aB" x="57.82" y="262.62525"/><use xlink:href="#a4d0159aC" x="79.18" y="262.62525"/><use xlink:href="#a4d0159aD" x="99.54" y="262.62525"/><use xlink:href="#a4d0159aE" x="120.86" y="262.62525"/><g fill-opacity=".33"><use xlink:href="#a4d0159ae" x="26.66667" y="292.4175"/><use xlink:href="#a4d0159af" x="33.33367" y="292.4175"/><use xlink:href="#a4d0159ag" x="40.00067" y="292.4175"/><use xlink:href="#a4d0159ah" x="46.66767" y="292.4175"/><use xlink:href="#a4d0159ai" x="53.33467" y="292.4175"/><use xlink:href="#a4d0159aj" x="60.00167" y="292.4175"/><use xlink:href="#a4d0159ak" x="66.66867" y="292.4175"/><use xlink:href="#a4d0159ag" x="73.33567" y="292.4175"/><use xlink:href="#a4d0159al" x="80.00267" y="292.4175"/><use xlink:href="#a4d0159ah" x="86.66967" y="292.4175"/><use xlink:href="#a4d0159am" x="93.33667" y="292.4175"/><use xlink:href="#a4d0159ai" x="100.00367" y="292.4175"/><use xlink:href="#a4d0159am" x="106.67067" y="292.4175"/><use xlink:href="#a4d0159aj" x="113.33767" y="292.4175"/><use xlink:href="#a4d0159an" x="120.00467" y="292.4175"/><use xlink:href="#a4d0159ao" x="126.67167" y="292.4175"/><use xlink:href="#a4d0159aj" x="133.33867" y="292.4175"/><use xlink:href="#a4d0159aF" x="140.00567" y="292.4175"/><use xlink:href="#a4d0159ar" x="146.67267" y="292.4175"/><use xlink:href="#a4d0159aA" x="153.33967" y="292.4175"/><use xlink:href="#a4d0159aq" x="160.00667" y="292.4175"/><use xlink:href="#a4d0159ax" x="166.67367" y="292.4175"/></g><use xlink:href="#a4d0159aG" x="57.16" y="361.54175"/><use xlink:href="#a4d0159aH" x="79" y="361.54175"/><use xlink:href="#a4d0159aI" x="99.8" y="361.54175"/><use xlink:href="#a4d0159aJ" x="121.32" y="361.54175"/><g fill-opacity=".33"><use xlink:href="#a4d0159ae" x="20" y="391.334"/><use xlink:href="#a4d0159af" x="26.667" y="391.334"/><use xlink:href="#a4d0159ag" x="33.334" y="391.334"/><use xlink:href="#a4d0159ah" x="40.001" y="391.334"/><use xlink:href="#a4d0159ai" x="46.668" y="391.334"/><use xlink:href="#a4d0159aj" x="53.335" y="391.334"/><use xlink:href="#a4d0159ak" x="60.002" y="391.334"/><use xlink:href="#a4d0159ag" x="66.669" y="391.334"/><use xlink:href="#a4d0159al" x="73.336" y="391.334"/><use xlink:href="#a4d0159ah" x="80.003" y="391.334"/><use xlink:href="#a4d0159am" x="86.67" y="391.334"/><use xlink:href="#a4d0159ai" x="93.337" y="391.334"/><use xlink:href="#a4d0159am" x="100.004" y="391.334"/><use xlink:href="#a4d0159aj" x="106.671" y="391.334"/><use xlink:href="#a4d0159an" x="113.338" y="391.334"/><use xlink:href="#a4d0159ao" x="120.005" y="391.334"/><use xlink:href="#a4d0159aj" x="126.672" y="391.334"/><use xlink:href="#a4d0159ak" x="133.339" y="391.334"/><use xlink:href="#a4d0159ai" x="140.006" y="391.334"/><use xlink:href="#a4d0159aA" x="146.673" y="391.334"/><use xlink:href="#a4d0159al" x="153.34" y="391.334"/><use xlink:href="#a4d0159af" x="160.007" y="391.334"/><use xlink:href="#a4d0159az" x="166.674" y="391.334"/><use xlink:href="#a4d0159ay" x="173.341" y="391.334"/></g><g><use xlink:href="#a4d0159aK" x="56.5" y="460.45825"/><use xlink:href="#a4d0159aL" x="78.82" y="460.45825"/><use xlink:href="#a4d0159aM" x="100.06" y="460.45825"/><use xlink:href="#a4d0159aN" x="121.78" y="460.45825"/></g><g fill-opacity=".33"><use xlink:href="#a4d0159ae" x="23.33333" y="490.2505"/><use xlink:href="#a4d0159af" x="30.00033" y="490.2505"/><use xlink:href="#a4d0159ag" x="36.66733" y="490.2505"/><use xlink:href="#a4d0159ah" x="43.33433" y="490.2505"/><use xlink:href="#a4d0159ai" x="50.00133" y="490.2505"/><use xlink:href="#a4d0159aj" x="56.66833" y="490.2505"/><use xlink:href="#a4d0159ak" x="63.33533" y="490.2505"/><use xlink:href="#a4d0159ag" x="70.00233" y="490.2505"/><use xlink:href="#a4d0159al" x="76.66933" y="490.2505"/><use xlink:href="#a4d0159ah" x="83.33633" y="490.2505"/><use xlink:href="#a4d0159am" x="90.00333" y="490.2505"/><use xlink:href="#a4d0159ai" x="96.67033" y="490.2505"/><use xlink:href="#a4d0159am" x="103.33733" y="490.2505"/><use xlink:href="#a4d0159aj" x="110.00433" y="490.2505"/><use xlink:href="#a4d0159an" x="116.67133" y="490.2505"/><use xlink:href="#a4d0159ao" x="123.33833" y="490.2505"/><use xlink:href="#a4d0159aj" x="130.00533" y="490.2505"/><use xlink:href="#a4d0159aO" x="136.67233" y="490.2505"/><use xlink:href="#a4d0159ai" x="143.33933" y="490.2505"/><use xlink:href="#a4d0159am" x="150.00633" y="490.2505"/><use xlink:href="#a4d0159ar" x="156.67333" y="490.2505"/><use xlink:href="#a4d0159al" x="163.34033" y="490.2505"/><use xlink:href="#a4d0159aP" x="170.00733" y="490.2505"/></g><g><use xlink:href="#a4d0159aQ" x="55.84" y="559.37475"/><use xlink:href="#a4d0159aR" x="78.64" y="559.37475"/><use xlink:href="#a4d0159aS" x="100.32" y="559.37475"/><use xlink:href="#a4d0159aT" x="122.24" y="559.37475"/></g><g fill-opacity=".33"><use xlink:href="#a4d0159ae" x="16.666667" y="589.167"/><use xlink:href="#a4d0159af" x="23.333667" y="589.167"/><use xlink:href="#a4d0159ag" x="30.000667" y="589.167"/><use xlink:href="#a4d0159ah" x="36.667667" y="589.167"/><use xlink:href="#a4d0159ai" x="43.334667" y="589.167"/><use xlink:href="#a4d0159aj" x="50.001667" y="589.167"/><use xlink:href="#a4d0159ak" x="56.668667" y="589.167"/><use xlink:href="#a4d0159ag" x="63.335667" y="589.167"/><use xlink:href="#a4d0159al" x="70.002667" y="589.167"/><use xlink:href="#a4d0159ah" x="76.669667" y="589.167"/><use xlink:href="#a4d0159am" x="83.336667" y="589.167"/><use xlink:href="#a4d0159ai" x="90.003667" y="589.167"/><use xlink:href="#a4d0159am" x="96.670667" y="589.167"/><use xlink:href="#a4d0159aj" x="103.337667" y="589.167"/><use xlink:href="#a4d0159an" x="110.004667" y="589.167"/><use xlink:href="#a4d0159ao" x="116.671667" y="589.167"/><use xlink:href="#a4d0159aj" x="123.338667" y="589.167"/><use xlink:href="#a4d0159aU" x="130.005667" y="589.167"/><use xlink:href="#a4d0159ai" x="136.672667" y="589.167"/><use xlink:href="#a4d0159aP" x="143.339667" y="589.167"/><use xlink:href="#a4d0159ar" x="150.006667" y="589.167"/><use xlink:href="#a4d0159aV" x="156.673667" y="589.167"/><use xlink:href="#a4d0159ag" x="163.340667" y="589.167"/><use xlink:href="#a4d0159af" x="170.007667" y="589.167"/><use xlink:href="#a4d0159am" x="176.674667" y="589.167"/></g><g><use xlink:href="#a4d0159aW" x="55.16" y="658.29125"/><use xlink:href="#a4d0159aX" x="78.48" y="658.29125"/><use xlink:href="#a4d0159aY" x="100.6" y="658.29125"/><use xlink:href="#a4d0159aZ" x="122.68" y="658.29125"/></g><g fill-opacity=".33"><use xlink:href="#a4d0159ae" x="30" y="688.0835"/><use xlink:href="#a4d0159af" x="36.667" y="688.0835"/><use xlink:href="#a4d0159ag" x="43.334" y="688.0835"/><use xlink:href="#a4d0159ah" x="50.001" y="688.0835"/><use xlink:href="#a4d0159ai" x="56.668" y="688.0835"/><use xlink:href="#a4d0159aj" x="63.335" y="688.0835"/><use xlink:href="#a4d0159ak" x="70.002" y="688.0835"/><use xlink:href="#a4d0159ag" x="76.669" y="688.0835"/><use xlink:href="#a4d0159al" x="83.336" y="688.0835"/><use xlink:href="#a4d0159ah" x="90.003" y="688.0835"/><use xlink:href="#a4d0159am" x="96.67" y="688.0835"/><use xlink:href="#a4d0159ai" x="103.337" y="688.0835"/><use xlink:href="#a4d0159am" x="110.004" y="688.0835"/><use xlink:href="#a4d0159aj" x="116.671" y="688.0835"/><use xlink:href="#a4d0159an" x="123.338" y="688.0835"/><use xlink:href="#a4d0159ao" x="130.005" y="688.0835"/><use xlink:href="#a4d0159aj" x="136.672" y="688.0835"/><use xlink:href="#a4d0159aaa" x="143.339" y="688.0835"/><use xlink:href="#a4d0159ag" x="150.006" y="688.0835"/><use xlink:href="#a4d0159af" x="156.673" y="688.0835"/><use xlink:href="#a4d0159am" x="163.34" y="688.0835"/></g><g><use xlink:href="#a4d0159aab" x="54.5" y="757.20775"/><use xlink:href="#a4d0159aac" x="78.3" y="757.20775"/><use xlink:href="#a4d0159aad" x="100.86" y="757.20775"/><use xlink:href="#a4d0159aae" x="123.14" y="757.20775"/></g><g fill-opacity=".33"><use xlink:href="#a4d0159ae" x="13.333333" y="787"/><use xlink:href="#a4d0159af" x="20.000333" y="787"/><use xlink:href="#a4d0159ag" x="26.667333" y="787"/><use xlink:href="#a4d0159ah" x="33.334333" y="787"/><use xlink:href="#a4d0159ai" x="40.001333" y="787"/><use xlink:href="#a4d0159aj" x="46.668333" y="787"/><use xlink:href="#a4d0159ak" x="53.335333" y="787"/><use xlink:href="#a4d0159ag" x="60.002333" y="787"/><use xlink:href="#a4d0159al" x="66.669333" y="787"/><use xlink:href="#a4d0159ah" x="73.336333" y="787"/><use xlink:href="#a4d0159am" x="80.003333" y="787"/><use xlink:href="#a4d0159ai" x="86.670333" y="787"/><use xlink:href="#a4d0159am" x="93.337333" y="787"/><use xlink:href="#a4d0159aj" x="100.004333" y="787"/><use xlink:href="#a4d0159an" x="106.671333" y="787"/><use xlink:href="#a4d0159ao" x="113.338333" y="787"/><use xlink:href="#a4d0159aj" x="120.005333" y="787"/><use xlink:href="#a4d0159ao" x="126.672333" y="787"/><use xlink:href="#a4d0159aw" x="133.339333" y="787"/><use xlink:href="#a4d0159ax" x="140.006333" y="787"/><use xlink:href="#a4d0159ay" x="146.673333" y="787"/><use xlink:href="#a4d0159az" x="153.340333" y="787"/><use xlink:href="#a4d0159aV" x="160.007333" y="787"/><use xlink:href="#a4d0159ag" x="166.674333" y="787"/><use xlink:href="#a4d0159af" x="173.341333" y="787"/><use xlink:href="#a4d0159am" x="180.008333" y="787"/></g></svg>