<?xml version='1.0' encoding='UTF-8'?>
<svg xmlns="http://www.w3.org/2000/svg" xmlns:xlink="http://www.w3.org/1999/xlink" width="200px" height="800px" viewBox="0 0 200 800" x="0px" y="0px" enable-background="new 0 0 200 800"><defs><symbol overflow="visible" id="e0a0bdb3a"><path d="M18.13-23.95l.3 2.6c.05.4.29.66.7.66.39 0 .75-.26.67-.95l-.24-2.16c-.08-.76-.56-1.25-1.36-1.64a12.9 12.9 0 00-5.4-1.15c-7.2 0-9.93 5.82-9.93 13.51C2.88-5 5.85.41 12.8.41c2.04 0 4.48-.77 6.07-1.7.49-.23.93-.48.93-.91 0-.36-.24-.64-.64-.64-.32 0-.8.36-1 .48-1.2.67-2.96 1.48-5.36 1.48-6.24 0-8.44-5-8.44-12.2 0-6.84 1.87-12.23 8.44-12.23 1.84 0 3.92.47 5.32 1.36zm0 0"/></symbol><symbol overflow="visible" id="e0a0bdb3b"><path d="M.92-.64c0 .36.28.64.64.64h9.92c.36 0 .64-.28.64-.64 0-.4-.28-.67-.64-.67H7.23v-25.82c0-.39-.3-.71-.71-.71H1.69a.62.62 0 00-.64.64c0 .36.26.64.64.64h4.08v25.25h-4.2c-.37 0-.65.26-.65.67zm0 0"/></symbol><symbol overflow="visible" id="e0a0bdb3c"><path d="M2.64-9.52c0 5.8 2.8 9.93 7.84 9.93s7.88-4.13 7.88-9.93c0-5.84-2.92-9.89-7.88-9.89s-7.84 4.05-7.84 9.9zm7.84 8.64c-4.17 0-6.36-3.84-6.36-8.64 0-4.84 2.2-8.6 6.36-8.6 4.2 0 6.4 3.76 6.4 8.6 0 4.8-2.2 8.64-6.4 8.64zm0 0"/></symbol><symbol overflow="visible" id="e0a0bdb3d"><path d="M3.8-.56c0 .4.33.72.72.72.43 0 .76-.32.76-.72v-14.92c1.84-1.47 4-2.64 5.84-2.64 3.6 0 4.72 2.2 4.72 5.68V-.56c0 .4.32.72.72.72.4 0 .75-.32.75-.72v-11.88c0-5.51-2.72-6.97-6.08-6.97-2 0-4.23 1.13-6 2.54l-.36-1.65c-.07-.36-.35-.64-.71-.64a.63.63 0 00-.64.64c0 .29.28 1.47.28 2.88zm0 0"/></symbol><symbol overflow="visible" id="e0a0bdb3e"><path d="M4.16-9.64H16.3c.4 0 .77-.36.77-.72 0-6.64-2.72-9.05-7.03-9.05-4.64 0-7.36 3.57-7.36 9.85C2.69-3.52 5.4.4 10.88.4c1 0 3.07-.28 4.53-.93.54-.25 1.07-.4 1.07-.92a.68.68 0 00-.68-.69c-.36 0-.68.25-1.2.44a9.8 9.8 0 01-3.72.77c-4.65 0-6.72-3.72-6.72-8.72zm0-1.23c.15-3.44 1.92-7.26 5.89-7.26 4.1 0 5.39 2.93 5.54 7.25zm0 0"/></symbol><symbol overflow="visible" id="e0a0bdb3f"><path d="M3.42.14C5.1.14 5.9-.69 6.11-2.17l-.95-.1C4.96-1.19 4.5-.69 3.44-.69c-1.27 0-1.81-.94-1.81-2.69s.54-2.7 1.8-2.7c1.09 0 1.5.49 1.73 1.58l.93-.1c-.21-1.46-.95-2.3-2.62-2.3C1.53-6.9.62-5.6.62-3.38c0 2.2.91 3.51 2.8 3.51zm0 0"/></symbol><symbol overflow="visible" id="e0a0bdb3g"><path d="M3.92-7.14H1.36v.76h1.6v5.61H1.15V0H5.7v-.77H3.92zm0 0"/></symbol><symbol overflow="visible" id="e0a0bdb3h"><path d="M3.33.14c1.62 0 2.5-.95 2.5-2.66 0-1.68-.88-2.64-2.5-2.64-1.63 0-2.5.96-2.5 2.64 0 1.7.87 2.66 2.5 2.66zm0-.77c-1.06 0-1.52-.6-1.52-1.89 0-1.28.46-1.87 1.52-1.87 1.08 0 1.53.6 1.53 1.87 0 1.29-.45 1.9-1.53 1.9zm0 0"/></symbol><symbol overflow="visible" id="e0a0bdb3i"><path d="M2.16 0v-2.67c0-.99.59-1.63 1.46-1.63.74 0 1.07.38 1.07 1.22V0h.95v-3.31c0-1.2-.56-1.85-1.67-1.85-.92 0-1.49.46-1.77 1.08h-.06l-.12-.94H1.2V0zm0 0"/></symbol><symbol overflow="visible" id="e0a0bdb3j"><path d="M5.75-2.23v-.43c0-1.6-.9-2.51-2.42-2.51S.87-4.16.87-2.48c0 1.71.91 2.62 2.5 2.62 1.43 0 2.07-.56 2.29-1.52l-.9-.09c-.18.61-.59.9-1.35.9-.94 0-1.52-.54-1.58-1.66zm-2.4-2.2c.93 0 1.43.5 1.48 1.55H1.84c.08-1.07.6-1.56 1.5-1.56zm0 0"/></symbol><symbol overflow="visible" id="e0a0bdb3l"><path d="M4.06-2.77c1.25-.04 1.92-.7 1.92-1.96 0-1.36-.7-2.04-2.17-2.04H.92V0h.97v-2.73h1.08L4.95 0h1.1zM1.9-6h1.7c1.07 0 1.46.34 1.46 1.28 0 .9-.44 1.27-1.47 1.27H1.89zm0 0"/></symbol><symbol overflow="visible" id="e0a0bdb3m"><path d="M2.73.14c.9 0 1.43-.45 1.74-1.08h.06l.13.94h.8v-5.02h-.94v2.7c0 .98-.57 1.62-1.46 1.62-.75 0-1.1-.4-1.1-1.22v-3.1h-.93v3.32c0 1.17.55 1.84 1.7 1.84zm0 0"/></symbol><symbol overflow="visible" id="e0a0bdb3n"><path d="M2.84.14C3.8.14 4.33-.26 4.6-.9h.07L4.8 0h.76v-7.14h-.95v2.95h-.08c-.28-.6-.86-.97-1.67-.97-1.48 0-2.27.99-2.27 2.64C.6-.84 1.36.14 2.84.14zm.22-.8c-.98 0-1.48-.59-1.48-1.84s.5-1.86 1.48-1.86c1.13 0 1.58.8 1.58 1.86S4.2-.66 3.06-.66zm0 0"/></symbol><symbol overflow="visible" id="e0a0bdb3o"><path d="M.92-6.77V0h.99v-2.27h1.68c1.58 0 2.38-.65 2.38-2.2v-.14c0-1.51-.8-2.16-2.34-2.16zM5-4.47c0 1.05-.42 1.45-1.58 1.45H1.91v-2.96h1.51C4.58-5.98 5-5.66 5-4.61zm0 0"/></symbol><symbol overflow="visible" id="e0a0bdb3p"><path d="M5.92-6.77H1.1V0h4.83v-.8H2.06v-2.26h3.22v-.75H2.06v-2.16h3.86zm0 0"/></symbol><symbol overflow="visible" id="e0a0bdb3q"><path d="M3.83 0v-5.95H6.2v-.82H.45v.82h2.4V0zm0 0"/></symbol><symbol overflow="visible" id="e0a0bdb3r"><path d="M2.16 0v-2.69c0-.98.6-1.6 1.46-1.6.74 0 1.07.4 1.07 1.2V0h.95v-3.31c0-1.17-.56-1.85-1.67-1.85-.9 0-1.44.46-1.75 1.08h-.06v-3.06H1.2V0zm0 0"/></symbol><symbol overflow="visible" id="e0a0bdb3s"><path d="M3.58-5.81c.42 0 .72-.22.72-.67 0-.44-.3-.68-.72-.68-.44 0-.72.24-.72.68 0 .45.28.67.72.67zm.5.8H1.52v.76h1.6v3.48h-1.8V0h4.46v-.77h-1.7zm0 0"/></symbol><symbol overflow="visible" id="e0a0bdb3y"><path d="M1.83 0l1.42-2h.06l1.46 2H5.8L4-2.53l1.78-2.49H4.8L3.42-3.08h-.08l-1.4-1.94H.89l1.78 2.49L.84 0zm0 0"/></symbol><symbol overflow="visible" id="e0a0bdb3z"><path d="M5.52-4.25v-.77H3.17v-1.56h-.81l-.14 1.56H.75v.77h1.47v2.4c0 1.3.48 1.94 1.84 1.94C4.6.1 5.14 0 5.55-.14L5.4-.91c-.32.13-.72.2-1.13.2-.8 0-1.1-.37-1.1-1.23v-2.31zm0 0"/></symbol><symbol overflow="visible" id="e0a0bdb3A"><path d="M5.08-5.16c-.94 0-1.58.43-1.9 1.3h-.09l-.07-1.16H1.05v.77h1.1v3.48H.96V0h3.96v-.77H3.1v-1.46c0-1.36.6-2.05 1.83-2.05.4 0 .76.08 1.1.17l.15-.87c-.33-.11-.7-.18-1.11-.18zm0 0"/></symbol><symbol overflow="visible" id="e0a0bdb3B"><path d="M2.83.14c.94 0 1.5-.39 1.81-.95h.08l.1.81h.76v-3.38c0-1.23-.69-1.8-2.13-1.8-1.43 0-2.03.65-2.18 1.6l.93.1c.11-.6.44-.93 1.22-.93.85 0 1.22.32 1.22 1.04v.34l-1.81.2C1.6-2.7 1.1-2.17 1.1-1.28c0 .92.64 1.42 1.72 1.42zm.25-.77c-.67 0-1.02-.28-1.02-.74 0-.44.28-.72 1-.82l1.58-.19v.41c0 .8-.6 1.34-1.56 1.34zm0 0"/></symbol><symbol overflow="visible" id="e0a0bdb3C"><path d="M3.16 2.03c1.67 0 2.4-.86 2.4-2.51v-4.54h-.81l-.13.91h-.06c-.26-.58-.8-1.05-1.73-1.05-1.42 0-2.24 1-2.24 2.52 0 1.6.75 2.56 2.2 2.56.94 0 1.5-.5 1.77-1.03h.05v.72c0 1.17-.42 1.67-1.45 1.67-.93 0-1.3-.34-1.41-.89L.8.5c.12.96.87 1.54 2.36 1.54zM3.06-.8c-.98 0-1.48-.57-1.48-1.82 0-1.13.5-1.75 1.48-1.75 1.06 0 1.58.76 1.58 1.75 0 .95-.56 1.82-1.58 1.82zm0 0"/></symbol><symbol overflow="visible" id="e0a0bdb3I"><path d="M2.08-6.77h-.99V0h4.79v-.81h-3.8zm0 0"/></symbol><symbol overflow="visible" id="e0a0bdb3T"><path d="M1.64 0v-3.17l-.16-2.5h.1L2.9-1.83h.82l1.35-3.84h.1l-.16 2.5V0h.95v-6.77h-1.3l-1.3 3.82h-.09L2-6.77H.69V0zm0 0"/></symbol><symbol overflow="visible" id="e0a0bdb3U"><path d="M1.63 0v-2.9c0-.8.15-1.4.71-1.4.41 0 .55.3.55.88V0h.95v-2.9c0-.8.18-1.4.72-1.4.4 0 .57.3.57.88V0h.95v-3.63c0-.92-.28-1.53-1.11-1.53-.63 0-.95.41-1.1.9h-.06c-.1-.52-.44-.9-1.08-.9-.6 0-.93.41-1.06.9H1.6l-.23-.76H.67V0zm0 0"/></symbol><symbol overflow="visible" id="e0a0bdb3aa"><path d="M3.42.14c1.61 0 2.56-.75 2.56-2 0-1.1-.67-1.6-1.95-1.86l-.97-.2c-.87-.17-1.23-.49-1.23-1.11 0-.7.54-1.11 1.5-1.11 1.06 0 1.51.34 1.69 1.23l.9-.09c-.17-1.28-.98-1.9-2.6-1.9C1.79-6.9.9-6.18.9-4.98c0 1.06.66 1.66 1.88 1.9l1.01.2c.85.17 1.25.4 1.25 1.09 0 .73-.6 1.16-1.6 1.16-1.07 0-1.66-.4-1.8-1.24l-.94.1C.83-.53 1.75.13 3.42.13zm0 0"/></symbol><symbol overflow="visible" id="e0a0bdb3ab"><path d="M3.9.14c1.48 0 2.18-.98 2.18-2.64 0-1.67-.7-2.66-2.17-2.66-.91 0-1.49.41-1.79 1h-.06v-2.98h-.95V0h.81l.11-.9h.06c.29.63.82 1.04 1.82 1.04zm-.32-.8c-1.08 0-1.55-.8-1.55-1.84 0-1.06.47-1.86 1.55-1.86 1.1 0 1.51.61 1.51 1.86S4.64-.66 3.58-.66zm0 0"/></symbol><symbol overflow="visible" id="e0a0bdb3ah"><path d="M4.66-3.45c.76-.14 1.15-.67 1.15-1.57 0-1.07-.64-1.75-2.18-1.75H.92V0h2.71C5.2 0 5.98-.64 5.98-1.77c0-1.03-.56-1.43-1.32-1.59zM3.56-6c.9 0 1.31.4 1.31 1.13 0 .71-.4 1.14-1.3 1.14h-1.7V-6zM1.87-.75v-2.27H3.6c.97 0 1.44.33 1.44 1.13 0 .8-.47 1.14-1.44 1.14zm0 0"/></symbol><symbol overflow="visible" id="e0a0bdb3t"><path d="M17.92-23.64l.28 2.48c.08.6.49.96 1 .96.57 0 1-.4.93-1.28l-.25-2c-.08-1.04-.65-1.64-1.6-2.11a13.44 13.44 0 00-5.44-1.18c-7.32 0-10.12 5.97-10.12 13.61C2.72-5.12 5.77.41 12.87.41c2.08 0 4.7-.72 6.29-1.7.56-.3.96-.63.96-1.15a.87.87 0 00-.89-.87c-.39 0-.92.36-1.23.51a10.28 10.28 0 01-5.08 1.36c-6 0-8.12-4.8-8.12-11.69 0-6.51 1.84-11.8 8.07-11.8 1.72 0 3.7.5 5.05 1.29zm0 0"/></symbol><symbol overflow="visible" id="e0a0bdb3u"><path d="M.84-.88c0 .47.4.88.88.88h10.05c.51 0 .87-.4.87-.88 0-.53-.36-.92-.87-.92h-4v-25.28c0-.51-.41-.97-.97-.97H1.84c-.53 0-.89.4-.89.93 0 .48.36.89.9.89h3.84V-1.8H1.72c-.49 0-.88.4-.88.93zm0 0"/></symbol><symbol overflow="visible" id="e0a0bdb3v"><path d="M2.48-9.56C2.48-3.8 5.36.4 10.56.4c5.24 0 8.08-4.2 8.08-9.97 0-5.85-2.92-9.96-8.08-9.96-5.12 0-8.08 4.11-8.08 9.96zm8.08 8.2c-3.87 0-6-3.6-6-8.2 0-4.67 2.13-8.2 6-8.2 3.92 0 6 3.53 6 8.2 0 4.6-2.08 8.2-6 8.2zm0 0"/></symbol><symbol overflow="visible" id="e0a0bdb3w"><path d="M3.64-.88A1 1 0 004.7.17 1 1 0 005.72-.87v-14.41c1.72-1.4 3.76-2.49 5.48-2.49 3.32 0 4.44 2 4.44 5.33V-.88c0 .6.48 1.04 1.05 1.04a1 1 0 001.03-1.03v-11.57c0-5.48-2.67-7.08-6.2-7.08-1.96 0-4.2 1.08-5.96 2.57l-.36-1.53a.93.93 0 00-.97-.8c-.54 0-.92.44-.92.97 0 .39.33 1.54.33 3.03zm0 0"/></symbol><symbol overflow="visible" id="e0a0bdb3x"><path d="M4.6-9.4h11.84c.51 0 .92-.37.92-1.08 0-6.32-2.64-9.04-7.2-9.04-4.85 0-7.64 3.64-7.64 9.93 0 6.03 2.76 10 8.43 10 1.13 0 3.28-.28 4.74-.97.54-.28 1.1-.52 1.1-1.08a.85.85 0 00-.87-.88c-.44 0-.87.29-1.44.47-1.07.36-2.25.7-3.53.7-4.39 0-6.36-3.5-6.36-8.06zm0-1.6c.2-3.31 1.84-6.77 5.56-6.77 3.84 0 5.07 2.77 5.2 6.77zm0 0"/></symbol><symbol overflow="visible" id="e0a0bdb3D"><path d="M17.69-23.28l.31 2.36c.08.76.6 1.2 1.28 1.2.72 0 1.28-.44 1.2-1.56l-.2-1.88c-.12-1.28-.76-2.04-1.92-2.56a12.94 12.94 0 00-5.52-1.16c-7.4 0-10.28 6.08-10.28 13.68C2.56-5.23 5.7.4 12.92.4c2.13 0 4.92-.68 6.56-1.71.6-.38 1-.81 1-1.33 0-.64-.4-1.16-1.17-1.16-.47 0-1.03.36-1.47.57a10.39 10.39 0 01-4.76 1.18c-5.8 0-7.8-4.6-7.8-11.1 0-6.26 1.77-11.33 7.64-11.33 1.64 0 3.52.43 4.77 1.2zm0 0"/></symbol><symbol overflow="visible" id="e0a0bdb3E"><path d="M.77-1.16C.77-.52 1.23 0 1.87 0h10.2a1.15 1.15 0 100-2.31H8.37v-24.74c0-.64-.56-1.18-1.2-1.18H2a1.15 1.15 0 100 2.3h3.64V-2.3H1.88c-.65 0-1.11.51-1.11 1.15zm0 0"/></symbol><symbol overflow="visible" id="e0a0bdb3F"><path d="M2.36-9.6c0 5.76 2.95 10 8.33 10C16.05.4 19-3.83 19-9.6c0-5.8-3.05-10-8.31-10-5.28 0-8.33 4.2-8.33 10zm8.33 7.72c-3.61 0-5.61-3.28-5.61-7.71 0-4.54 2-7.77 5.6-7.77 3.55 0 5.6 3.23 5.6 7.77 0 4.43-2.05 7.71-5.6 7.71zm0 0"/></symbol><symbol overflow="visible" id="e0a0bdb3G"><path d="M3.48-1.16a1.36 1.36 0 002.72 0v-13.89c1.57-1.3 3.52-2.3 5.11-2.3 3 0 4.17 1.7 4.17 4.91v11.28c0 .75.57 1.36 1.36 1.36.75 0 1.36-.6 1.36-1.36v-11.28c0-5.48-2.72-7.15-6.43-7.15-1.85 0-4.08 1-5.85 2.51l-.33-1.36c-.15-.56-.54-.97-1.23-.97-.8 0-1.24.57-1.24 1.29 0 .48.36 1.6.36 3.25zm0 0"/></symbol><symbol overflow="visible" id="e0a0bdb3H"><path d="M5.13-9.13h11.43c.64 0 1.13-.35 1.13-1.43 0-6.08-2.53-9.03-7.4-9.03-5.09 0-7.88 3.67-7.88 9.9C2.4-3.64 5.2.41 11 .41c1.28 0 3.52-.33 5-1 .6-.33 1.16-.61 1.16-1.29 0-.53-.4-1.04-1.11-1.04-.57 0-1.05.23-1.74.44-1 .35-2.1.6-3.31.6-4.16 0-5.88-3.12-5.88-7.25zm0-1.95c.15-3.23 1.75-6.28 5.15-6.28 3.6 0 4.72 2.6 4.85 6.28zm0 0"/></symbol><symbol overflow="visible" id="e0a0bdb3J"><path d="M17.48-22.92l.29 2.2c.1 1 .8 1.52 1.59 1.52.87 0 1.56-.57 1.48-1.93l-.2-1.71c-.12-1.57-.87-2.44-2.2-3.04a13.43 13.43 0 00-5.57-1.17c-7.51 0-10.46 6.2-10.46 13.77C2.4-5.36 5.59.4 13 .4c2.16 0 5.13-.64 6.77-1.72.71-.46 1.07-.97 1.07-1.56 0-.77-.53-1.44-1.43-1.44-.57 0-1.18.36-1.72.6a10.04 10.04 0 01-4.49 1.07c-5.51 0-7.43-4.4-7.43-10.56 0-5.93 1.71-10.85 7.23-10.85 1.52 0 3.28.46 4.48 1.13zm0 0"/></symbol><symbol overflow="visible" id="e0a0bdb3K"><path d="M.69-1.4c0 .76.6 1.4 1.36 1.4H12.4c.8 0 1.39-.64 1.39-1.4 0-.8-.6-1.44-1.4-1.44H8.93V-27c0-.77-.64-1.44-1.44-1.44H2.16c-.8 0-1.4.64-1.4 1.44 0 .77.6 1.4 1.4 1.4h3.4v22.76H2.05c-.77 0-1.36.64-1.36 1.43zm0 0"/></symbol><symbol overflow="visible" id="e0a0bdb3L"><path d="M2.2-9.64C2.2-3.92 5.23.4 10.77.4 16.3.4 19.3-3.92 19.3-9.64c0-5.8-3.08-10.08-8.54-10.08-5.46 0-8.57 4.28-8.57 10.08zm8.57 7.23c-3.29 0-5.2-3-5.2-7.23 0-4.36 1.91-7.31 5.2-7.31 3.28 0 5.18 2.95 5.18 7.3 0 4.24-1.9 7.24-5.18 7.24zm0 0"/></symbol><symbol overflow="visible" id="e0a0bdb3M"><path d="M3.31-1.48C3.31-.52 4.05.2 5 .2s1.69-.72 1.69-1.68v-13.36c1.43-1.2 3.23-2.11 4.72-2.11 2.71 0 3.87 1.47 3.87 4.51v10.96c0 .96.72 1.68 1.67 1.68.97 0 1.7-.72 1.7-1.68v-10.96c0-5.44-2.7-7.28-6.6-7.28-1.77 0-4 .95-5.77 2.56l-.33-1.25c-.15-.64-.64-1.1-1.51-1.1-1 0-1.52.71-1.52 1.59 0 .6.4 1.69.4 3.44zm0 0"/></symbol><symbol overflow="visible" id="e0a0bdb3N"><path d="M5.6-8.88h11.09c.75 0 1.31-.35 1.31-1.8 0-5.76-2.44-9.04-7.6-9.04-5.28 0-8.17 3.77-8.17 10C2.23-3.69 5.08.41 11.08.41c1.4 0 3.72-.33 5.2-1.05.64-.36 1.24-.72 1.24-1.44 0-.64-.47-1.28-1.36-1.28-.64 0-1.24.28-1.96.48-.97.29-2 .52-3.12.52-3.92 0-5.49-2.84-5.49-6.52zm0-2.32c.2-3.11 1.68-5.75 4.8-5.75 3.32 0 4.4 2.39 4.47 5.75zm0 0"/></symbol><symbol overflow="visible" id="e0a0bdb3O"><path d="M17.23-22.52l.29 2.04c.2 1.2.96 1.8 1.92 1.8 1 0 1.87-.63 1.72-2.24l-.11-1.64c-.13-1.75-1-2.8-2.49-3.49a14.38 14.38 0 00-5.64-1.15c-7.64 0-10.69 6.36-10.69 13.89C2.23-5.48 5.52.4 13.05.4c2.18 0 5.3-.64 7.03-1.72.76-.53 1.12-1.13 1.12-1.77 0-.97-.6-1.76-1.68-1.76-.68 0-1.36.4-1.96.64-1.04.48-2.43 1-4.2 1-5.31 0-7.13-4.2-7.13-10.03 0-5.64 1.7-10.33 6.82-10.33 1.43 0 3.1.36 4.18 1.04zm0 0"/></symbol><symbol overflow="visible" id="e0a0bdb3P"><path d="M.56-1.69C.56-.72 1.28 0 2.23 0h10.54c.92 0 1.64-.72 1.64-1.69 0-.9-.72-1.62-1.64-1.62H9.48v-23.61c0-.95-.71-1.72-1.68-1.72H2.3c-.9 0-1.62.77-1.62 1.69 0 .95.72 1.64 1.62 1.64h3.17v22H2.23C1.28-3.31.56-2.6.56-1.7zm0 0"/></symbol><symbol overflow="visible" id="e0a0bdb3Q"><path d="M2.05-9.72C2.05-4 5.15.41 10.87.41 16.57.4 19.7-4 19.7-9.72c0-5.76-3.2-10.12-8.82-10.12-5.64 0-8.82 4.36-8.82 10.12zm8.82 6.85c-2.95 0-4.8-2.72-4.8-6.85 0-4.12 1.85-6.8 4.8-6.8 2.97 0 4.82 2.68 4.82 6.8 0 4.13-1.85 6.85-4.81 6.85zm0 0"/></symbol><symbol overflow="visible" id="e0a0bdb3R"><path d="M3.16-1.77c0 1.13.89 2 2 2 1.12 0 2-.87 2-2v-12.82c1.28-1.1 2.96-1.93 4.32-1.93 2.44 0 3.6 1.16 3.6 4.08v10.67c0 1.13.84 2 2 2 1.12 0 2-.87 2-2v-10.67c0-5.4-2.67-7.4-6.77-7.4-1.72 0-3.95.89-5.72 2.56l-.23-1.08c-.24-.77-.77-1.28-1.84-1.28-1.2 0-1.75.87-1.75 1.87 0 .77.39 1.82.39 3.64zm0 0"/></symbol><symbol overflow="visible" id="e0a0bdb3S"><path d="M6.13-8.64h10.64c.92 0 1.59-.36 1.59-2.13 0-5.51-2.36-9.07-7.88-9.07C5-19.84 2.08-16 2.08-9.8 2.08-3.72 4.95.4 11.12.4c1.57 0 4-.32 5.44-1.09.72-.36 1.28-.83 1.28-1.62 0-.77-.48-1.49-1.6-1.49-.68 0-1.36.32-2.16.49-.88.26-1.88.47-2.92.47-3.72 0-5.04-2.57-5.04-5.8zm0-2.67c.15-3 1.59-5.2 4.35-5.2 3.11 0 4.08 2.15 4.16 5.2zm0 0"/></symbol><symbol overflow="visible" id="e0a0bdb3V"><path d="M17.05-22.16l.23 1.88c.24 1.44 1.16 2.12 2.24 2.12 1.17 0 2.17-.76 2-2.6l-.11-1.47c-.13-2.05-1.13-3.2-2.77-3.97-1.4-.6-3.52-1.16-5.69-1.16-7.75 0-10.87 6.48-10.87 13.95C2.08-5.59 5.44.41 13.12.41c2.24 0 5.52-.61 7.24-1.72.87-.61 1.2-1.28 1.2-2 0-1.1-.72-2.05-1.97-2.05-.75 0-1.46.4-2.18.67-1 .46-2.33.9-3.93.9-5.04 0-6.76-4-6.76-9.5 0-5.3 1.64-9.84 6.4-9.84 1.32 0 2.88.36 3.93.97zm0 0"/></symbol><symbol overflow="visible" id="e0a0bdb3W"><path d="M.48-1.92A1.9 1.9 0 002.41 0h10.67c1.08 0 1.87-.84 1.87-1.92s-.8-1.92-1.87-1.92h-3.03v-23.04c0-1.07-.82-1.96-1.93-1.96H2.49c-1.07 0-1.89.89-1.89 1.96C.6-25.8 1.41-25 2.5-25H5.4v21.16h-3A1.9 1.9 0 00.48-1.92zm0 0"/></symbol><symbol overflow="visible" id="e0a0bdb3X"><path d="M1.88-9.77c0 5.7 3.2 10.18 9.07 10.18C16.85.4 20-4.08 20-9.77c0-5.75-3.23-10.18-9.05-10.18-5.8 0-9.07 4.43-9.07 10.18zm9.07 6.36c-2.64 0-4.39-2.43-4.39-6.36 0-3.95 1.75-6.36 4.4-6.36 2.68 0 4.4 2.41 4.4 6.36 0 3.93-1.72 6.36-4.4 6.36zm0 0"/></symbol><symbol overflow="visible" id="e0a0bdb3Y"><path d="M3-2.08C3-.77 4 .23 5.31.23c1.33 0 2.33-1 2.33-2.3v-12.34c1.16-.95 2.67-1.71 3.92-1.71 2.16 0 3.31.92 3.31 3.68v10.36c0 1.31 1 2.31 2.33 2.31 1.32 0 2.32-1 2.32-2.3v-10.37c0-5.36-2.64-7.51-6.93-7.51-1.64 0-3.87.82-5.64 2.6l-.23-.96c-.24-.85-.84-1.46-2.13-1.46-1.39 0-2.03 1.05-2.03 2.2 0 .88.44 1.88.44 3.85zm0 0"/></symbol><symbol overflow="visible" id="e0a0bdb3Z"><path d="M6.6-8.4h10.28c1.04 0 1.8-.37 1.8-2.47 0-5.2-2.27-9.08-8.09-9.08-5.67 0-8.67 3.9-8.67 10.1C1.92-3.76 4.84.42 11.2.42c1.68 0 4.2-.33 5.64-1.13.75-.4 1.36-.97 1.36-1.8 0-.89-.56-1.71-1.84-1.71-.77 0-1.56.36-2.4.51-.84.2-1.76.4-2.73.4-3.46 0-4.64-2.27-4.64-5.09zm0-3.04c.2-2.87 1.53-4.69 4-4.69 2.84 0 3.76 1.97 3.8 4.7zm0 0"/></symbol><symbol overflow="visible" id="e0a0bdb3ac"><path d="M16.8-21.8l.28 1.75c.23 1.61 1.28 2.36 2.51 2.36 1.33 0 2.46-.8 2.29-2.87l-.08-1.36a4.7 4.7 0 00-3.08-4.4 14.35 14.35 0 00-5.77-1.16c-7.82 0-11.03 6.6-11.03 14.04C1.92-5.72 5.36.41 13.16.41c2.28 0 5.76-.57 7.53-1.77.9-.64 1.23-1.44 1.23-2.16 0-1.28-.8-2.32-2.23-2.32-.85 0-1.61.4-2.46.71-.92.36-2.15.72-3.59.72-4.84 0-6.44-3.8-6.44-8.9 0-5.05 1.57-9.38 5.96-9.38a7.6 7.6 0 013.64.9zm0 0"/></symbol><symbol overflow="visible" id="e0a0bdb3ad"><path d="M.4-2.2C.4-.95 1.32 0 2.57 0h10.85c1.18 0 2.15-.95 2.15-2.2 0-1.2-.97-2.16-2.15-2.16h-2.77v-22.48c0-1.2-.95-2.2-2.16-2.2H2.64c-1.2 0-2.16 1-2.16 2.2 0 1.25.96 2.15 2.16 2.15h2.72v20.33h-2.8C1.31-4.36.41-3.4.41-2.2zm0 0"/></symbol><symbol overflow="visible" id="e0a0bdb3ae"><path d="M1.77-9.8C1.77-4.12 5.05.4 11.07.4c6 0 9.29-4.53 9.29-10.2 0-5.72-3.36-10.25-9.28-10.25-5.96 0-9.31 4.53-9.31 10.25zm9.3 5.88c-2.35 0-4-2.13-4-5.88 0-3.8 1.65-5.92 4-5.92 2.34 0 4 2.13 4 5.92 0 3.75-1.66 5.88-4 5.88zm0 0"/></symbol><symbol overflow="visible" id="e0a0bdb3af"><path d="M2.84-2.36A2.6 2.6 0 005.48.28a2.62 2.62 0 002.64-2.64v-11.8c1-.89 2.44-1.56 3.57-1.56 1.83 0 3.03.64 3.03 3.28v10.08A2.56 2.56 0 0017.36.28 2.6 2.6 0 0020-2.36v-10.08c0-5.36-2.69-7.6-7.16-7.6-1.53 0-3.76.76-5.53 2.56l-.18-.8c-.33-.95-1-1.6-2.41-1.6-1.64 0-2.36 1.16-2.36 2.52 0 .95.48 1.92.48 4.05zm0 0"/></symbol><symbol overflow="visible" id="e0a0bdb3ag"><path d="M7.13-8.13H17c1.16 0 2-.35 2-2.82 0-4.97-2.16-9.1-8.28-9.1-5.92 0-8.92 3.97-8.92 10.13C1.8-3.84 4.77.4 11.23.4c1.85 0 4.46-.36 5.93-1.18.8-.43 1.4-1.03 1.4-2 0-.95-.64-1.87-2.08-1.87-.89 0-1.71.33-2.68.48a9.9 9.9 0 01-2.52.32c-3.23 0-4.15-1.93-4.15-4.29zm0-3.39c.15-2.8 1.43-4.2 3.59-4.2 2.6 0 3.4 1.8 3.44 4.2zm0 0"/></symbol><symbol overflow="visible" id="e0a0bdb3ai"><path d="M16.6-21.44l.24 1.6c.29 1.84 1.47 2.68 2.85 2.68 1.47 0 2.72-.92 2.54-3.25l-.07-1.18a5.21 5.21 0 00-3.36-4.9 15.27 15.27 0 00-5.8-1.15c-7.95 0-11.23 6.72-11.23 14.12C1.77-5.84 5.28.41 13.23.41c2.33 0 5.97-.53 7.72-1.77a2.77 2.77 0 001.33-2.4c0-1.4-.92-2.6-2.51-2.6-.93 0-1.72.4-2.7.77-.87.3-2.02.59-3.3.59-4.57 0-6.08-3.6-6.08-8.36 0-4.72 1.51-8.87 5.54-8.87a7.6 7.6 0 013.36.8zm0 0"/></symbol><symbol overflow="visible" id="e0a0bdb3aj"><path d="M.31-2.44A2.4 2.4 0 002.71 0h11a2.4 2.4 0 002.41-2.44 2.4 2.4 0 00-2.4-2.44H11.2V-26.8a2.41 2.41 0 00-2.4-2.43h-6a2.4 2.4 0 00-2.4 2.46c0 1.36 1.04 2.41 2.4 2.41h2.48v19.48H2.72a2.4 2.4 0 00-2.4 2.44zm0 0"/></symbol><symbol overflow="visible" id="e0a0bdb3ak"><path d="M1.6-9.84C1.6-4.2 4.94.4 11.15.4c6.2 0 9.53-4.61 9.53-10.25 0-5.72-3.4-10.32-9.53-10.32-6.11 0-9.57 4.6-9.57 10.32zm9.56 5.4c-2.04 0-3.6-1.84-3.6-5.4 0-3.64 1.57-5.47 3.6-5.47 2.04 0 3.6 1.83 3.6 5.47 0 3.56-1.56 5.4-3.6 5.4zm0 0"/></symbol><symbol overflow="visible" id="e0a0bdb3al"><path d="M2.69-2.69A2.9 2.9 0 005.64.28 2.9 2.9 0 008.6-2.69v-11.26a5.45 5.45 0 013.18-1.36c1.54 0 2.75.39 2.75 2.87v9.75A2.9 2.9 0 0017.48.28a2.9 2.9 0 002.96-2.97v-9.75c0-5.33-2.64-7.72-7.32-7.72-1.43 0-3.68.72-5.43 2.6l-.2-.67C7.15-19.28 6.4-20 4.78-20c-1.84 0-2.63 1.31-2.63 2.84 0 1.08.53 2 .53 4.24zm0 0"/></symbol><symbol overflow="visible" id="e0a0bdb3am"><path d="M7.6-7.88h9.53c1.28 0 2.18-.35 2.18-3.2 0-4.64-2.08-9.08-8.47-9.08-6.12 0-9.2 4.04-9.2 10.2 0 6.09 3 10.37 9.67 10.37 1.97 0 4.64-.36 6.13-1.2.84-.5 1.48-1.16 1.48-2.16 0-1.1-.72-2.13-2.33-2.13-.95 0-1.9.36-2.9.52-.74.12-1.53.25-2.33.25-3 0-3.77-1.64-3.77-3.57zm0-3.76c.2-2.67 1.35-3.67 3.24-3.67 2.32 0 3.08 1.6 3.08 3.67zm0 0"/></symbol></defs><use xlink:href="#e0a0bdb3a" x="52.16" y="64.79225"/><use xlink:href="#e0a0bdb3b" x="73.88" y="64.79225"/><use xlink:href="#e0a0bdb3c" x="86.52" y="64.79225"/><use xlink:href="#e0a0bdb3d" x="107.48" y="64.79225"/><use xlink:href="#e0a0bdb3e" x="128.32" y="64.79225"/><g fill-opacity=".33"><use xlink:href="#e0a0bdb3f" x="30" y="94.5845"/><use xlink:href="#e0a0bdb3g" x="36.667" y="94.5845"/><use xlink:href="#e0a0bdb3h" x="43.334" y="94.5845"/><use xlink:href="#e0a0bdb3i" x="50.001" y="94.5845"/><use xlink:href="#e0a0bdb3j" x="56.668" y="94.5845"/><use xlink:href="#e0a0bdb3k" x="63.335" y="94.5845"/><use xlink:href="#e0a0bdb3l" x="70.002" y="94.5845"/><use xlink:href="#e0a0bdb3h" x="76.669" y="94.5845"/><use xlink:href="#e0a0bdb3m" x="83.336" y="94.5845"/><use xlink:href="#e0a0bdb3i" x="90.003" y="94.5845"/><use xlink:href="#e0a0bdb3n" x="96.67" y="94.5845"/><use xlink:href="#e0a0bdb3j" x="103.337" y="94.5845"/><use xlink:href="#e0a0bdb3n" x="110.004" y="94.5845"/><use xlink:href="#e0a0bdb3k" x="116.671" y="94.5845"/><use xlink:href="#e0a0bdb3o" x="123.338" y="94.5845"/><use xlink:href="#e0a0bdb3p" x="130.005" y="94.5845"/><use xlink:href="#e0a0bdb3k" x="136.672" y="94.5845"/><use xlink:href="#e0a0bdb3q" x="143.339" y="94.5845"/><use xlink:href="#e0a0bdb3r" x="150.006" y="94.5845"/><use xlink:href="#e0a0bdb3s" x="156.673" y="94.5845"/><use xlink:href="#e0a0bdb3i" x="163.34" y="94.5845"/></g><use xlink:href="#e0a0bdb3t" x="51.46" y="163.70875"/><use xlink:href="#e0a0bdb3u" x="73.42" y="163.70875"/><use xlink:href="#e0a0bdb3v" x="86.54" y="163.70875"/><use xlink:href="#e0a0bdb3w" x="107.7" y="163.70875"/><use xlink:href="#e0a0bdb3x" x="128.82" y="163.70875"/><g fill-opacity=".33"><use xlink:href="#e0a0bdb3f" x="10" y="193.501"/><use xlink:href="#e0a0bdb3g" x="16.667" y="193.501"/><use xlink:href="#e0a0bdb3h" x="23.334" y="193.501"/><use xlink:href="#e0a0bdb3i" x="30.001" y="193.501"/><use xlink:href="#e0a0bdb3j" x="36.668" y="193.501"/><use xlink:href="#e0a0bdb3k" x="43.335" y="193.501"/><use xlink:href="#e0a0bdb3l" x="50.002" y="193.501"/><use xlink:href="#e0a0bdb3h" x="56.669" y="193.501"/><use xlink:href="#e0a0bdb3m" x="63.336" y="193.501"/><use xlink:href="#e0a0bdb3i" x="70.003" y="193.501"/><use xlink:href="#e0a0bdb3n" x="76.67" y="193.501"/><use xlink:href="#e0a0bdb3j" x="83.337" y="193.501"/><use xlink:href="#e0a0bdb3n" x="90.004" y="193.501"/><use xlink:href="#e0a0bdb3k" x="96.671" y="193.501"/><use xlink:href="#e0a0bdb3o" x="103.338" y="193.501"/><use xlink:href="#e0a0bdb3p" x="110.005" y="193.501"/><use xlink:href="#e0a0bdb3k" x="116.672" y="193.501"/><use xlink:href="#e0a0bdb3p" x="123.339" y="193.501"/><use xlink:href="#e0a0bdb3y" x="130.006" y="193.501"/><use xlink:href="#e0a0bdb3z" x="136.673" y="193.501"/><use xlink:href="#e0a0bdb3A" x="143.34" y="193.501"/><use xlink:href="#e0a0bdb3B" x="150.007" y="193.501"/><use xlink:href="#e0a0bdb3g" x="156.674" y="193.501"/><use xlink:href="#e0a0bdb3s" x="163.341" y="193.501"/><use xlink:href="#e0a0bdb3C" x="170.008" y="193.501"/><use xlink:href="#e0a0bdb3r" x="176.675" y="193.501"/><use xlink:href="#e0a0bdb3z" x="183.342" y="193.501"/></g><use xlink:href="#e0a0bdb3D" x="50.74" y="262.62525"/><use xlink:href="#e0a0bdb3E" x="72.98" y="262.62525"/><use xlink:href="#e0a0bdb3F" x="86.62" y="262.62525"/><use xlink:href="#e0a0bdb3G" x="107.94" y="262.62525"/><use xlink:href="#e0a0bdb3H" x="129.34" y="262.62525"/><g fill-opacity=".33"><use xlink:href="#e0a0bdb3f" x="26.66667" y="292.4175"/><use xlink:href="#e0a0bdb3g" x="33.33367" y="292.4175"/><use xlink:href="#e0a0bdb3h" x="40.00067" y="292.4175"/><use xlink:href="#e0a0bdb3i" x="46.66767" y="292.4175"/><use xlink:href="#e0a0bdb3j" x="53.33467" y="292.4175"/><use xlink:href="#e0a0bdb3k" x="60.00167" y="292.4175"/><use xlink:href="#e0a0bdb3l" x="66.66867" y="292.4175"/><use xlink:href="#e0a0bdb3h" x="73.33567" y="292.4175"/><use xlink:href="#e0a0bdb3m" x="80.00267" y="292.4175"/><use xlink:href="#e0a0bdb3i" x="86.66967" y="292.4175"/><use xlink:href="#e0a0bdb3n" x="93.33667" y="292.4175"/><use xlink:href="#e0a0bdb3j" x="100.00367" y="292.4175"/><use xlink:href="#e0a0bdb3n" x="106.67067" y="292.4175"/><use xlink:href="#e0a0bdb3k" x="113.33767" y="292.4175"/><use xlink:href="#e0a0bdb3o" x="120.00467" y="292.4175"/><use xlink:href="#e0a0bdb3p" x="126.67167" y="292.4175"/><use xlink:href="#e0a0bdb3k" x="133.33867" y="292.4175"/><use xlink:href="#e0a0bdb3I" x="140.00567" y="292.4175"/><use xlink:href="#e0a0bdb3s" x="146.67267" y="292.4175"/><use xlink:href="#e0a0bdb3C" x="153.33967" y="292.4175"/><use xlink:href="#e0a0bdb3r" x="160.00667" y="292.4175"/><use xlink:href="#e0a0bdb3z" x="166.67367" y="292.4175"/></g><use xlink:href="#e0a0bdb3J" x="50.02" y="361.54175"/><use xlink:href="#e0a0bdb3K" x="72.5" y="361.54175"/><use xlink:href="#e0a0bdb3L" x="86.66" y="361.54175"/><use xlink:href="#e0a0bdb3M" x="108.18" y="361.54175"/><use xlink:href="#e0a0bdb3N" x="129.86" y="361.54175"/><g fill-opacity=".33"><use xlink:href="#e0a0bdb3f" x="20" y="391.334"/><use xlink:href="#e0a0bdb3g" x="26.667" y="391.334"/><use xlink:href="#e0a0bdb3h" x="33.334" y="391.334"/><use xlink:href="#e0a0bdb3i" x="40.001" y="391.334"/><use xlink:href="#e0a0bdb3j" x="46.668" y="391.334"/><use xlink:href="#e0a0bdb3k" x="53.335" y="391.334"/><use xlink:href="#e0a0bdb3l" x="60.002" y="391.334"/><use xlink:href="#e0a0bdb3h" x="66.669" y="391.334"/><use xlink:href="#e0a0bdb3m" x="73.336" y="391.334"/><use xlink:href="#e0a0bdb3i" x="80.003" y="391.334"/><use xlink:href="#e0a0bdb3n" x="86.67" y="391.334"/><use xlink:href="#e0a0bdb3j" x="93.337" y="391.334"/><use xlink:href="#e0a0bdb3n" x="100.004" y="391.334"/><use xlink:href="#e0a0bdb3k" x="106.671" y="391.334"/><use xlink:href="#e0a0bdb3o" x="113.338" y="391.334"/><use xlink:href="#e0a0bdb3p" x="120.005" y="391.334"/><use xlink:href="#e0a0bdb3k" x="126.672" y="391.334"/><use xlink:href="#e0a0bdb3l" x="133.339" y="391.334"/><use xlink:href="#e0a0bdb3j" x="140.006" y="391.334"/><use xlink:href="#e0a0bdb3C" x="146.673" y="391.334"/><use xlink:href="#e0a0bdb3m" x="153.34" y="391.334"/><use xlink:href="#e0a0bdb3g" x="160.007" y="391.334"/><use xlink:href="#e0a0bdb3B" x="166.674" y="391.334"/><use xlink:href="#e0a0bdb3A" x="173.341" y="391.334"/></g><g><use xlink:href="#e0a0bdb3O" x="49.3" y="460.45825"/><use xlink:href="#e0a0bdb3P" x="72.06" y="460.45825"/></g><g><use xlink:href="#e0a0bdb3Q" x="86.7" y="460.45825"/><use xlink:href="#e0a0bdb3R" x="108.42" y="460.45825"/><use xlink:href="#e0a0bdb3S" x="130.42" y="460.45825"/></g><g fill-opacity=".33"><use xlink:href="#e0a0bdb3f" x="23.33333" y="490.2505"/><use xlink:href="#e0a0bdb3g" x="30.00033" y="490.2505"/><use xlink:href="#e0a0bdb3h" x="36.66733" y="490.2505"/><use xlink:href="#e0a0bdb3i" x="43.33433" y="490.2505"/><use xlink:href="#e0a0bdb3j" x="50.00133" y="490.2505"/><use xlink:href="#e0a0bdb3k" x="56.66833" y="490.2505"/><use xlink:href="#e0a0bdb3l" x="63.33533" y="490.2505"/><use xlink:href="#e0a0bdb3h" x="70.00233" y="490.2505"/><use xlink:href="#e0a0bdb3m" x="76.66933" y="490.2505"/><use xlink:href="#e0a0bdb3i" x="83.33633" y="490.2505"/><use xlink:href="#e0a0bdb3n" x="90.00333" y="490.2505"/><use xlink:href="#e0a0bdb3j" x="96.67033" y="490.2505"/><use xlink:href="#e0a0bdb3n" x="103.33733" y="490.2505"/><use xlink:href="#e0a0bdb3k" x="110.00433" y="490.2505"/><use xlink:href="#e0a0bdb3o" x="116.67133" y="490.2505"/><use xlink:href="#e0a0bdb3p" x="123.33833" y="490.2505"/><use xlink:href="#e0a0bdb3k" x="130.00533" y="490.2505"/><use xlink:href="#e0a0bdb3T" x="136.67233" y="490.2505"/><use xlink:href="#e0a0bdb3j" x="143.33933" y="490.2505"/><use xlink:href="#e0a0bdb3n" x="150.00633" y="490.2505"/><use xlink:href="#e0a0bdb3s" x="156.67333" y="490.2505"/><use xlink:href="#e0a0bdb3m" x="163.34033" y="490.2505"/><use xlink:href="#e0a0bdb3U" x="170.00733" y="490.2505"/></g><g><use xlink:href="#e0a0bdb3V" x="48.58" y="559.37475"/><use xlink:href="#e0a0bdb3W" x="71.58" y="559.37475"/></g><g><use xlink:href="#e0a0bdb3X" x="86.74" y="559.37475"/><use xlink:href="#e0a0bdb3Y" x="108.66" y="559.37475"/><use xlink:href="#e0a0bdb3Z" x="130.94" y="559.37475"/></g><g fill-opacity=".33"><use xlink:href="#e0a0bdb3f" x="16.666667" y="589.167"/><use xlink:href="#e0a0bdb3g" x="23.333667" y="589.167"/><use xlink:href="#e0a0bdb3h" x="30.000667" y="589.167"/><use xlink:href="#e0a0bdb3i" x="36.667667" y="589.167"/><use xlink:href="#e0a0bdb3j" x="43.334667" y="589.167"/><use xlink:href="#e0a0bdb3k" x="50.001667" y="589.167"/><use xlink:href="#e0a0bdb3l" x="56.668667" y="589.167"/><use xlink:href="#e0a0bdb3h" x="63.335667" y="589.167"/><use xlink:href="#e0a0bdb3m" x="70.002667" y="589.167"/><use xlink:href="#e0a0bdb3i" x="76.669667" y="589.167"/><use xlink:href="#e0a0bdb3n" x="83.336667" y="589.167"/><use xlink:href="#e0a0bdb3j" x="90.003667" y="589.167"/><use xlink:href="#e0a0bdb3n" x="96.670667" y="589.167"/><use xlink:href="#e0a0bdb3k" x="103.337667" y="589.167"/><use xlink:href="#e0a0bdb3o" x="110.004667" y="589.167"/><use xlink:href="#e0a0bdb3p" x="116.671667" y="589.167"/><use xlink:href="#e0a0bdb3k" x="123.338667" y="589.167"/><use xlink:href="#e0a0bdb3aa" x="130.005667" y="589.167"/><use xlink:href="#e0a0bdb3j" x="136.672667" y="589.167"/><use xlink:href="#e0a0bdb3U" x="143.339667" y="589.167"/><use xlink:href="#e0a0bdb3s" x="150.006667" y="589.167"/><use xlink:href="#e0a0bdb3ab" x="156.673667" y="589.167"/><use xlink:href="#e0a0bdb3h" x="163.340667" y="589.167"/><use xlink:href="#e0a0bdb3g" x="170.007667" y="589.167"/><use xlink:href="#e0a0bdb3n" x="176.674667" y="589.167"/></g><g><use xlink:href="#e0a0bdb3ac" x="47.86" y="658.29125"/><use xlink:href="#e0a0bdb3ad" x="71.14" y="658.29125"/></g><g><use xlink:href="#e0a0bdb3ae" x="86.82" y="658.29125"/><use xlink:href="#e0a0bdb3af" x="108.9" y="658.29125"/><use xlink:href="#e0a0bdb3ag" x="131.46" y="658.29125"/></g><g fill-opacity=".33"><use xlink:href="#e0a0bdb3f" x="30" y="688.0835"/><use xlink:href="#e0a0bdb3g" x="36.667" y="688.0835"/><use xlink:href="#e0a0bdb3h" x="43.334" y="688.0835"/><use xlink:href="#e0a0bdb3i" x="50.001" y="688.0835"/><use xlink:href="#e0a0bdb3j" x="56.668" y="688.0835"/><use xlink:href="#e0a0bdb3k" x="63.335" y="688.0835"/><use xlink:href="#e0a0bdb3l" x="70.002" y="688.0835"/><use xlink:href="#e0a0bdb3h" x="76.669" y="688.0835"/><use xlink:href="#e0a0bdb3m" x="83.336" y="688.0835"/><use xlink:href="#e0a0bdb3i" x="90.003" y="688.0835"/><use xlink:href="#e0a0bdb3n" x="96.67" y="688.0835"/><use xlink:href="#e0a0bdb3j" x="103.337" y="688.0835"/><use xlink:href="#e0a0bdb3n" x="110.004" y="688.0835"/><use xlink:href="#e0a0bdb3k" x="116.671" y="688.0835"/><use xlink:href="#e0a0bdb3o" x="123.338" y="688.0835"/><use xlink:href="#e0a0bdb3p" x="130.005" y="688.0835"/><use xlink:href="#e0a0bdb3k" x="136.672" y="688.0835"/><use xlink:href="#e0a0bdb3ah" x="143.339" y="688.0835"/><use xlink:href="#e0a0bdb3h" x="150.006" y="688.0835"/><use xlink:href="#e0a0bdb3g" x="156.673" y="688.0835"/><use xlink:href="#e0a0bdb3n" x="163.34" y="688.0835"/></g><g><use xlink:href="#e0a0bdb3ai" x="47.14" y="757.20775"/><use xlink:href="#e0a0bdb3aj" x="70.66" y="757.20775"/></g><g><use xlink:href="#e0a0bdb3ak" x="86.86" y="757.20775"/><use xlink:href="#e0a0bdb3al" x="109.14" y="757.20775"/><use xlink:href="#e0a0bdb3am" x="131.98" y="757.20775"/></g><g fill-opacity=".33"><use xlink:href="#e0a0bdb3f" x="13.333333" y="787"/><use xlink:href="#e0a0bdb3g" x="20.000333" y="787"/><use xlink:href="#e0a0bdb3h" x="26.667333" y="787"/><use xlink:href="#e0a0bdb3i" x="33.334333" y="787"/><use xlink:href="#e0a0bdb3j" x="40.001333" y="787"/><use xlink:href="#e0a0bdb3k" x="46.668333" y="787"/><use xlink:href="#e0a0bdb3l" x="53.335333" y="787"/><use xlink:href="#e0a0bdb3h" x="60.002333" y="787"/><use xlink:href="#e0a0bdb3m" x="66.669333" y="787"/><use xlink:href="#e0a0bdb3i" x="73.336333" y="787"/><use xlink:href="#e0a0bdb3n" x="80.003333" y="787"/><use xlink:href="#e0a0bdb3j" x="86.670333" y="787"/><use xlink:href="#e0a0bdb3n" x="93.337333" y="787"/><use xlink:href="#e0a0bdb3k" x="100.004333" y="787"/><use xlink:href="#e0a0bdb3o" x="106.671333" y="787"/><use xlink:href="#e0a0bdb3p" x="113.338333" y="787"/><use xlink:href="#e0a0bdb3k" x="120.005333" y="787"/><use xlink:href="#e0a0bdb3p" x="126.672333" y="787"/><use xlink:href="#e0a0bdb3y" x="133.339333" y="787"/><use xlink:href="#e0a0bdb3z" x="140.006333" y="787"/><use xlink:href="#e0a0bdb3A" x="146.673333" y="787"/><use xlink:href="#e0a0bdb3B" x="153.340333" y="787"/><use xlink:href="#e0a0bdb3ab" x="160.007333" y="787"/><use xlink:href="#e0a0bdb3h" x="166.674333" y="787"/><use xlink:href="#e0a0bdb3g" x="173.341333" y="787"/><use xlink:href="#e0a0bdb3n" x="180.008333" y="787"/></g></svg>