<?xml version='1.0' encoding='UTF-8'?>
<svg xmlns="http://www.w3.org/2000/svg" xmlns:xlink="http://www.w3.org/1999/xlink" width="200px" height="800px" viewBox="0 0 200 800" x="0px" y="0px" enable-background="new 0 0 200 800"><defs><symbol overflow="visible" id="1f3d22cea"><path d="M4.05-.56c0 .4.3.72.72.72.43 0 .75-.32.75-.72v-12.08h4.84L17.44-.16c.12.2.33.32.6.32.44 0 .76-.32.76-.72 0-.2-.16-.49-.24-.6l-7.04-12.32 6.71-11.57c.08-.15.25-.47.25-.67 0-.4-.32-.64-.76-.64-.28 0-.49.13-.6.31l-6.96 12.13H5.52v-11.72c0-.4-.32-.72-.75-.72a.7.7 0 00-.72.72zm0 0"/></symbol><symbol overflow="visible" id="1f3d22ceb"><path d="M16.52.16c.4 0 .76-.32.76-.72 0-.2-.08-.56-.2-.85l-8-21.87c-1.13-3.08-2.52-5.8-5.4-5.8-.32 0-.63.24-.63.6s.3.68.64.68c2 0 3.03 1.88 4.19 5.03l1.28 3.57C5.44-12.84 2.69-3.84 2.3-.64c-.03.52.33.8.64.8.46 0 .77-.29.82-.72.35-3.96 3.3-12.13 6-16.96l6.07 17.2a.7.7 0 00.68.48zm0 0"/></symbol><symbol overflow="visible" id="1f3d22cec"><path d="M14.64-4.08C15.8-.72 18 .41 20.36.41c2.6 0 6.23-2.18 6.23-10.29 0-3.6-1.07-6.6-2.36-8.68-.28-.44-.46-.6-.82-.6-.41 0-.7.36-.7.72 0 .75 2.41 2.75 2.41 8.57 0 6.56-2.56 9-4.8 9-2.63 0-4.91-2.82-4.91-7.29v-6.25a.75.75 0 00-.77-.75.74.74 0 00-.72.75v6.25c0 4.47-2.28 7.29-4.97 7.29-2.23 0-4.75-2.44-4.75-9 0-5.82 2.4-7.82 2.4-8.57a.74.74 0 00-.72-.72c-.36 0-.52.16-.8.6a16.37 16.37 0 00-2.36 8.68C2.72-1.77 6.32.41 8.92.41c2.36 0 4.56-1.13 5.72-4.49zm-1.33-18.76c-.08.2-.1.32-.1.43 0 .36.27.61.63.61.4 0 .57-.25.75-.68l2.25-4.68c.16-.32.24-.6.24-.84 0-.52-.49-.84-.85-.84-.39 0-.71.32-.82.68zm0 0"/></symbol><symbol overflow="visible" id="1f3d22ced"><path d="M2.6-19.16c-.4 0-.73.32-.73.72 0 .16.25.88.41 1.36L8.23-.77c.2.57.41.93 1.08.93.46 0 .74-.08.97-.44 3.13-5 6.56-14.85 6.56-18.24 0-.53-.43-.64-.68-.64-.44 0-.72.29-.75.72-.46 4.85-3.64 13.16-5.97 17.16L3.3-18.68c-.08-.27-.36-.48-.72-.48zm0 0"/></symbol><symbol overflow="visible" id="1f3d22cee"><path d="M18.36-9.52c0-5.84-2.92-9.89-7.88-9.89s-7.84 4.05-7.84 9.9c0 5.8 2.8 9.92 7.84 9.92s7.88-4.13 7.88-9.93zm-14.23 0c0-4.84 2.18-8.6 6.35-8.6 4.2 0 6.4 3.76 6.4 8.6 0 4.8-2.2 8.64-6.4 8.64-4.17 0-6.36-3.84-6.36-8.64zm0 0"/></symbol><symbol overflow="visible" id="1f3d22cef"><path d="M9.52 6.52c0 .32.28.64.71.64 1.25 0 4.46-1.32 4.46-4.32C14.69-1.69 4-1.23 4-11.05c0-3.72 1.95-7.07 6.31-7.07 1.38 0 2.56.35 3.69.8.52.2.84.45 1.2.45.44 0 .68-.36.68-.7 0-.5-.52-.66-1.08-.91a12.95 12.95 0 00-4.49-.93c-4.8 0-7.8 3.72-7.8 8.36 0 10.4 10.7 10.77 10.7 13.93 0 1.84-1.62 2.6-2.98 2.96-.36.08-.71.24-.71.68zm0 0"/></symbol><symbol overflow="visible" id="1f3d22ceg"><path d="M3.42.14C5.1.14 5.9-.69 6.11-2.17l-.95-.1C4.96-1.19 4.5-.69 3.44-.69c-1.27 0-1.81-.94-1.81-2.69s.54-2.7 1.8-2.7c1.09 0 1.5.49 1.73 1.58l.93-.1c-.21-1.46-.95-2.3-2.62-2.3C1.53-6.9.62-5.6.62-3.38c0 2.2.91 3.51 2.8 3.51zm0 0"/></symbol><symbol overflow="visible" id="1f3d22ceh"><path d="M3.92-7.14H1.36v.76h1.6v5.61H1.15V0H5.7v-.77H3.92zm0 0"/></symbol><symbol overflow="visible" id="1f3d22cei"><path d="M3.33.14c1.62 0 2.5-.95 2.5-2.66 0-1.68-.88-2.64-2.5-2.64-1.63 0-2.5.96-2.5 2.64 0 1.7.87 2.66 2.5 2.66zm0-.77c-1.06 0-1.52-.6-1.52-1.89 0-1.28.46-1.87 1.52-1.87 1.08 0 1.53.6 1.53 1.87 0 1.29-.45 1.9-1.53 1.9zm0 0"/></symbol><symbol overflow="visible" id="1f3d22cej"><path d="M2.16 0v-2.67c0-.99.59-1.63 1.46-1.63.74 0 1.07.38 1.07 1.22V0h.95v-3.31c0-1.2-.56-1.85-1.67-1.85-.92 0-1.49.46-1.77 1.08h-.06l-.12-.94H1.2V0zm0 0"/></symbol><symbol overflow="visible" id="1f3d22cek"><path d="M5.75-2.23v-.43c0-1.6-.9-2.51-2.42-2.51S.87-4.16.87-2.48c0 1.71.91 2.62 2.5 2.62 1.43 0 2.07-.56 2.29-1.52l-.9-.09c-.18.61-.59.9-1.35.9-.94 0-1.52-.54-1.58-1.66zm-2.4-2.2c.93 0 1.43.5 1.48 1.55H1.84c.08-1.07.6-1.56 1.5-1.56zm0 0"/></symbol><symbol overflow="visible" id="1f3d22cem"><path d="M4.06-2.77c1.25-.04 1.92-.7 1.92-1.96 0-1.36-.7-2.04-2.17-2.04H.92V0h.97v-2.73h1.08L4.95 0h1.1zM1.9-6h1.7c1.07 0 1.46.34 1.46 1.28 0 .9-.44 1.27-1.47 1.27H1.89zm0 0"/></symbol><symbol overflow="visible" id="1f3d22cen"><path d="M2.73.14c.9 0 1.43-.45 1.74-1.08h.06l.13.94h.8v-5.02h-.94v2.7c0 .98-.57 1.62-1.46 1.62-.75 0-1.1-.4-1.1-1.22v-3.1h-.93v3.32c0 1.17.55 1.84 1.7 1.84zm0 0"/></symbol><symbol overflow="visible" id="1f3d22ceo"><path d="M2.84.14C3.8.14 4.33-.26 4.6-.9h.07L4.8 0h.76v-7.14h-.95v2.95h-.08c-.28-.6-.86-.97-1.67-.97-1.48 0-2.27.99-2.27 2.64C.6-.84 1.36.14 2.84.14zm.22-.8c-.98 0-1.48-.59-1.48-1.84s.5-1.86 1.48-1.86c1.13 0 1.58.8 1.58 1.86S4.2-.66 3.06-.66zm0 0"/></symbol><symbol overflow="visible" id="1f3d22cep"><path d="M.92-6.77V0h.99v-2.27h1.68c1.58 0 2.38-.65 2.38-2.2v-.14c0-1.51-.8-2.16-2.34-2.16zM5-4.47c0 1.05-.42 1.45-1.58 1.45H1.91v-2.96h1.51C4.58-5.98 5-5.66 5-4.61zm0 0"/></symbol><symbol overflow="visible" id="1f3d22ceq"><path d="M5.92-6.77H1.1V0h4.83v-.8H2.06v-2.26h3.22v-.75H2.06v-2.16h3.86zm0 0"/></symbol><symbol overflow="visible" id="1f3d22cer"><path d="M3.83 0v-5.95H6.2v-.82H.45v.82h2.4V0zm0 0"/></symbol><symbol overflow="visible" id="1f3d22ces"><path d="M2.16 0v-2.69c0-.98.6-1.6 1.46-1.6.74 0 1.07.4 1.07 1.2V0h.95v-3.31c0-1.17-.56-1.85-1.67-1.85-.9 0-1.44.46-1.75 1.08h-.06v-3.06H1.2V0zm0 0"/></symbol><symbol overflow="visible" id="1f3d22cet"><path d="M3.58-5.81c.42 0 .72-.22.72-.67 0-.44-.3-.68-.72-.68-.44 0-.72.24-.72.68 0 .45.28.67.72.67zm.5.8H1.52v.76h1.6v3.48h-1.8V0h4.46v-.77h-1.7zm0 0"/></symbol><symbol overflow="visible" id="1f3d22ceA"><path d="M1.83 0l1.42-2h.06l1.46 2H5.8L4-2.53l1.78-2.49H4.8L3.42-3.08h-.08l-1.4-1.94H.89l1.78 2.49L.84 0zm0 0"/></symbol><symbol overflow="visible" id="1f3d22ceB"><path d="M5.52-4.25v-.77H3.17v-1.56h-.81l-.14 1.56H.75v.77h1.47v2.4c0 1.3.48 1.94 1.84 1.94C4.6.1 5.14 0 5.55-.14L5.4-.91c-.32.13-.72.2-1.13.2-.8 0-1.1-.37-1.1-1.23v-2.31zm0 0"/></symbol><symbol overflow="visible" id="1f3d22ceC"><path d="M5.08-5.16c-.94 0-1.58.43-1.9 1.3h-.09l-.07-1.16H1.05v.77h1.1v3.48H.96V0h3.96v-.77H3.1v-1.46c0-1.36.6-2.05 1.83-2.05.4 0 .76.08 1.1.17l.15-.87c-.33-.11-.7-.18-1.11-.18zm0 0"/></symbol><symbol overflow="visible" id="1f3d22ceD"><path d="M2.83.14c.94 0 1.5-.39 1.81-.95h.08l.1.81h.76v-3.38c0-1.23-.69-1.8-2.13-1.8-1.43 0-2.03.65-2.18 1.6l.93.1c.11-.6.44-.93 1.22-.93.85 0 1.22.32 1.22 1.04v.34l-1.81.2C1.6-2.7 1.1-2.17 1.1-1.28c0 .92.64 1.42 1.72 1.42zm.25-.77c-.67 0-1.02-.28-1.02-.74 0-.44.28-.72 1-.82l1.58-.19v.41c0 .8-.6 1.34-1.56 1.34zm0 0"/></symbol><symbol overflow="visible" id="1f3d22ceE"><path d="M3.16 2.03c1.67 0 2.4-.86 2.4-2.51v-4.54h-.81l-.13.91h-.06c-.26-.58-.8-1.05-1.73-1.05-1.42 0-2.24 1-2.24 2.52 0 1.6.75 2.56 2.2 2.56.94 0 1.5-.5 1.77-1.03h.05v.72c0 1.17-.42 1.67-1.45 1.67-.93 0-1.3-.34-1.41-.89L.8.5c.12.96.87 1.54 2.36 1.54zM3.06-.8c-.98 0-1.48-.57-1.48-1.82 0-1.13.5-1.75 1.48-1.75 1.06 0 1.58.76 1.58 1.75 0 .95-.56 1.82-1.58 1.82zm0 0"/></symbol><symbol overflow="visible" id="1f3d22ceL"><path d="M2.08-6.77h-.99V0h4.79v-.81h-3.8zm0 0"/></symbol><symbol overflow="visible" id="1f3d22ceY"><path d="M1.64 0v-3.17l-.16-2.5h.1L2.9-1.83h.82l1.35-3.84h.1l-.16 2.5V0h.95v-6.77h-1.3l-1.3 3.82h-.09L2-6.77H.69V0zm0 0"/></symbol><symbol overflow="visible" id="1f3d22ceZ"><path d="M1.63 0v-2.9c0-.8.15-1.4.71-1.4.41 0 .55.3.55.88V0h.95v-2.9c0-.8.18-1.4.72-1.4.4 0 .57.3.57.88V0h.95v-3.63c0-.92-.28-1.53-1.11-1.53-.63 0-.95.41-1.1.9h-.06c-.1-.52-.44-.9-1.08-.9-.6 0-.93.41-1.06.9H1.6l-.23-.76H.67V0zm0 0"/></symbol><symbol overflow="visible" id="1f3d22ceag"><path d="M3.42.14c1.61 0 2.56-.75 2.56-2 0-1.1-.67-1.6-1.95-1.86l-.97-.2c-.87-.17-1.23-.49-1.23-1.11 0-.7.54-1.11 1.5-1.11 1.06 0 1.51.34 1.69 1.23l.9-.09c-.17-1.28-.98-1.9-2.6-1.9C1.79-6.9.9-6.18.9-4.98c0 1.06.66 1.66 1.88 1.9l1.01.2c.85.17 1.25.4 1.25 1.09 0 .73-.6 1.16-1.6 1.16-1.07 0-1.66-.4-1.8-1.24l-.94.1C.83-.53 1.75.13 3.42.13zm0 0"/></symbol><symbol overflow="visible" id="1f3d22ceah"><path d="M3.9.14c1.48 0 2.18-.98 2.18-2.64 0-1.67-.7-2.66-2.17-2.66-.91 0-1.49.41-1.79 1h-.06v-2.98h-.95V0h.81l.11-.9h.06c.29.63.82 1.04 1.82 1.04zm-.32-.8c-1.08 0-1.55-.8-1.55-1.84 0-1.06.47-1.86 1.55-1.86 1.1 0 1.51.61 1.51 1.86S4.64-.66 3.58-.66zm0 0"/></symbol><symbol overflow="visible" id="1f3d22ceao"><path d="M4.66-3.45c.76-.14 1.15-.67 1.15-1.57 0-1.07-.64-1.75-2.18-1.75H.92V0h2.71C5.2 0 5.98-.64 5.98-1.77c0-1.03-.56-1.43-1.32-1.59zM3.56-6c.9 0 1.31.4 1.31 1.13 0 .71-.4 1.14-1.3 1.14h-1.7V-6zM1.87-.75v-2.27H3.6c.97 0 1.44.33 1.44 1.13 0 .8-.47 1.14-1.44 1.14zm0 0"/></symbol><symbol overflow="visible" id="1f3d22ceu"><path d="M3.84-.88c0 .6.47 1.04 1.04 1.04A1 1 0 005.92-.87v-11.54h4.56L17.36-.3c.16.26.48.47.87.47.61 0 1.05-.44 1.05-1 0-.24-.16-.6-.28-.75l-6.84-11.9 6.48-11.28c.13-.15.28-.54.28-.8 0-.59-.48-.95-1.05-.95-.39 0-.71.2-.87.47L10.31-14.2H5.92v-11.28a1 1 0 00-1.04-1.04c-.57 0-1.04.44-1.04 1.04zm0 0"/></symbol><symbol overflow="visible" id="1f3d22cev"><path d="M16.56.16A1 1 0 0017.6-.87c0-.18-.07-.57-.18-.85L9.7-23.2c-1.15-3.28-2.79-6.03-5.84-6.03-.51 0-.95.36-.95.87 0 .52.44.92.96.95 1.8 0 2.96 1.72 4 4.72l1.2 3.38C5.2-13.08 2.48-4.05 2.16-.92A.98.98 0 003.12.16c.6 0 1-.36 1.08-1 .4-3.96 3.16-11.57 5.64-16.04L15.6-.52c.13.4.54.68.97.68zm0 0"/></symbol><symbol overflow="visible" id="1f3d22cew"><path d="M14.77-3.84C16.05-.6 18.3.4 20.57.4c2.59 0 6.38-2.2 6.38-10.25 0-3.47-.95-6.57-2.3-8.75-.34-.49-.6-.7-1.09-.7a.99.99 0 00-.97 1c0 .88 2.29 2.93 2.29 8.5 0 6.07-2.32 8.43-4.44 8.43-2.49 0-4.64-2.6-4.64-6.8v-6c0-.6-.49-1.07-1.03-1.07s-1.05.46-1.05 1.07v6c0 4.2-2.13 6.8-4.6 6.8C7-1.36 4.64-3.72 4.64-9.8c0-5.56 2.31-7.6 2.31-8.48 0-.52-.43-1-1-1-.47 0-.75.2-1.03.69a16.15 16.15 0 00-2.36 8.75C2.56-1.8 6.36.4 9 .4c2.23 0 4.52-1 5.77-4.25zM13.28-23.2c-.08.25-.12.4-.12.51 0 .53.4.85.89.85.43 0 .72-.29.9-.8l2.25-4.72c.16-.33.24-.6.24-.84 0-.64-.6-1.08-1.13-1.08-.51 0-.95.4-1.08.87zm0 0"/></symbol><symbol overflow="visible" id="1f3d22cex"><path d="M2.84-19.28a1 1 0 00-1.04 1.05c0 .18.25.87.36 1.3L7.8-1.2c.25.72.56 1.36 1.68 1.36.6 0 1.04-.11 1.36-.57C14-5.23 17.24-15 17.24-18.3a.94.94 0 00-.96-.97c-.6 0-1 .36-1.08 1.05-.48 4.71-3.28 12.43-5.6 16.43L3.83-18.56a1.04 1.04 0 00-1-.72zm0 0"/></symbol><symbol overflow="visible" id="1f3d22cey"><path d="M18.64-9.56c0-5.85-2.92-9.96-8.08-9.96-5.12 0-8.08 4.11-8.08 9.96C2.48-3.8 5.36.4 10.56.4c5.24 0 8.08-4.2 8.08-9.97zm-14.08 0c0-4.67 2.13-8.2 6-8.2 3.92 0 6 3.53 6 8.2 0 4.6-2.08 8.2-6 8.2-3.87 0-6-3.6-6-8.2zm0 0"/></symbol><symbol overflow="visible" id="1f3d22cez"><path d="M9.31 6.44c0 .48.4.87 1 .87 1.49 0 4.77-1.62 4.77-4.8 0-4.8-10.64-4.3-10.64-13.63 0-3.52 1.87-6.65 6-6.65 1.33 0 2.48.36 3.56.77.69.28.95.48 1.36.48.56 0 .87-.4.87-.89 0-.64-.59-.87-1.18-1.15a13.74 13.74 0 00-4.64-.96c-4.85 0-8.05 3.6-8.05 8.44C2.36-.88 13-.52 13 2.6c0 1.82-1.64 2.57-2.92 2.97-.4.13-.77.36-.77.88zm0 0"/></symbol><symbol overflow="visible" id="1f3d22ceF"><path d="M3.69-1.16C3.69-.4 4.23.2 5.05.2 5.8.2 6.4-.4 6.4-1.16V-12.2h4.18L17.31-.48a1.35 1.35 0 002.53-.67c0-.29-.25-.7-.36-.9l-6.64-11.51 6.24-10.88c.12-.2.33-.64.33-.97 0-.75-.61-1.28-1.36-1.28-.53 0-.97.28-1.18.69l-6.43 11.48H6.4v-10.8c0-.76-.61-1.37-1.36-1.37-.82 0-1.36.61-1.36 1.38zm0 0"/></symbol><symbol overflow="visible" id="1f3d22ceG"><path d="M16.64.2C17.41.2 18-.4 18-1.16c0-.25-.13-.64-.2-.92l-7.4-21.05c-1.2-3.51-3.09-6.3-6.35-6.3-.64 0-1.25.5-1.25 1.2 0 .71.56 1.18 1.25 1.23 1.67.05 2.87 1.6 3.87 4.4L9-19.43c-4.05 6.08-6.72 15.2-6.95 18.2C2-.4 2.59.2 3.3.2 4.05.2 4.6-.28 4.7-1.16c.43-3.96 3.03-10.92 5.26-15.07L15.31-.77c.2.57.74.97 1.33.97zm0 0"/></symbol><symbol overflow="visible" id="1f3d22ceH"><path d="M14.92-3.6c1.36 3.08 3.67 4 5.85 4 2.59 0 6.59-2.27 6.59-10.2 0-3.36-.8-6.51-2.28-8.8-.36-.52-.72-.8-1.31-.8-.72 0-1.29.6-1.29 1.27 0 .97 2.16 3.08 2.16 8.44 0 5.49-2.08 7.77-4.12 7.77-2.24 0-4.24-2.31-4.24-6.24v-5.71c0-.85-.64-1.44-1.36-1.44-.76 0-1.36.6-1.36 1.44v5.71c0 3.93-2.04 6.24-4.28 6.24-2.05 0-4.12-2.28-4.12-7.77 0-5.36 2.15-7.47 2.15-8.44 0-.67-.54-1.28-1.26-1.28-.61 0-.97.29-1.33.82-1.49 2.28-2.28 5.43-2.28 8.8 0 7.91 4 10.2 6.6 10.2 2.16 0 4.48-.93 5.88-4zm-1.69-19.92c-.07.24-.15.44-.15.6 0 .64.56 1.05 1.12 1.05.57 0 .93-.36 1.16-.93l2.2-4.76c.16-.32.24-.6.24-.85 0-.8-.72-1.3-1.4-1.3-.63 0-1.17.48-1.35 1.02zm0 0"/></symbol><symbol overflow="visible" id="1f3d22ceI"><path d="M3.08-19.4c-.77 0-1.36.6-1.36 1.35 0 .2.2.9.36 1.33l5.23 15C7.6-.8 8.13.2 9.7.2c.75 0 1.36-.25 1.72-.72 3.18-4.68 6.28-14.36 6.28-17.6 0-.83-.69-1.29-1.28-1.29-.72 0-1.29.46-1.41 1.33-.44 4.64-2.95 11.85-5.28 15.8l-5.36-16.2a1.34 1.34 0 00-1.28-.93zm0 0"/></symbol><symbol overflow="visible" id="1f3d22ceJ"><path d="M19-9.6c0-5.8-3.05-10-8.31-10-5.28 0-8.33 4.2-8.33 10 0 5.76 2.95 10 8.33 10C16.05.4 19-3.83 19-9.6zm-13.92 0c0-4.53 2-7.76 5.6-7.76 3.55 0 5.6 3.23 5.6 7.77 0 4.43-2.05 7.71-5.6 7.71-3.6 0-5.6-3.28-5.6-7.71zm0 0"/></symbol><symbol overflow="visible" id="1f3d22ceK"><path d="M9.08 6.31c0 .64.51 1.17 1.28 1.17 1.72 0 5.2-2 5.2-5.28 0-5.15-10.6-4.64-10.6-13.43 0-3.29 1.76-6.13 5.63-6.13 1.29 0 2.41.36 3.46.77.75.28 1.07.51 1.47.51.71 0 1.17-.56 1.17-1.12 0-.75-.69-1.11-1.38-1.44a12.92 12.92 0 00-4.83-.95c-4.89 0-8.25 3.46-8.25 8.43 0 10 10.61 10.4 10.61 13.52 0 1.72-1.71 2.52-2.92 2.92-.44.2-.84.49-.84 1.03zm0 0"/></symbol><symbol overflow="visible" id="1f3d22ceM"><path d="M3.48-1.48C3.48-.52 4.2.2 5.16.2s1.68-.72 1.68-1.68v-10.47h3.88l6.51 11.3c.25.45.82.85 1.46.85.9 0 1.67-.68 1.67-1.64 0-.36-.23-.84-.4-1.08l-6.44-11.04 6-10.56c.17-.24.36-.75.36-1.11 0-.97-.75-1.61-1.68-1.61-.64 0-1.2.36-1.43.84l-6.18 11.16H6.84v-10.32c0-.96-.71-1.68-1.68-1.68-.96 0-1.68.71-1.68 1.68zm0 0"/></symbol><symbol overflow="visible" id="1f3d22ceN"><path d="M16.69.2c.95 0 1.67-.72 1.67-1.68 0-.24-.13-.68-.2-.96l-7.08-20.6c-1.24-3.73-3.36-6.55-6.85-6.55-.82 0-1.54.64-1.54 1.46 0 .9.67 1.49 1.54 1.57 1.49.04 2.82 1.4 3.7 4.04l1 2.96C4.76-13.6 2.07-4.48 1.87-1.52 1.83-.52 2.58.2 3.48.2c.88 0 1.57-.56 1.68-1.64.48-3.97 2.89-10.36 4.89-14.12l5.03 14.6c.23.68.87 1.16 1.6 1.16zm0 0"/></symbol><symbol overflow="visible" id="1f3d22ceO"><path d="M15.05-3.36a6.31 6.31 0 005.9 3.77c2.61 0 6.82-2.33 6.82-10.18 0-3.23-.7-6.46-2.25-8.87-.4-.56-.88-.88-1.6-.88-.87 0-1.56.72-1.56 1.57 0 1.07 2.05 3.26 2.05 8.36 0 4.95-1.85 7.15-3.77 7.15-2.05 0-3.92-2.08-3.92-5.72v-5.48c0-1-.77-1.77-1.67-1.77-.93 0-1.7.77-1.7 1.77v5.48c0 3.64-1.87 5.72-3.91 5.72-1.92 0-3.8-2.2-3.8-7.15 0-5.1 2.08-7.29 2.08-8.36a1.6 1.6 0 00-1.6-1.57c-.71 0-1.2.32-1.56.88-1.6 2.4-2.28 5.64-2.28 8.87C2.28-1.92 6.48.41 9.13.41c2.03 0 4.43-.82 5.92-3.77zM13.2-23.88c-.07.29-.15.52-.15.68 0 .8.67 1.28 1.36 1.28.59 0 1.07-.4 1.3-1.03l2.21-4.82c.16-.3.24-.59.24-.82 0-.93-.85-1.61-1.68-1.61-.76 0-1.4.56-1.6 1.28zm0 0"/></symbol><symbol overflow="visible" id="1f3d22ceP"><path d="M3.31-19.52c-.95 0-1.67.72-1.67 1.68 0 .25.2.89.31 1.28L6.85-2.2c.3 1.12 1 2.4 3 2.4.95 0 1.71-.28 2.15-.84 3.23-4.52 6.13-14.13 6.13-17.28 0-1-.82-1.6-1.61-1.6-.88 0-1.57.52-1.72 1.64A45.59 45.59 0 019.87-2.8L4.92-18.36a1.67 1.67 0 00-1.6-1.16zm0 0"/></symbol><symbol overflow="visible" id="1f3d22ceQ"><path d="M19.31-9.64c0-5.8-3.08-10.08-8.54-10.08-5.46 0-8.57 4.28-8.57 10.08C2.2-3.92 5.23.4 10.77.4 16.3.4 19.3-3.92 19.3-9.64zm-13.75 0c0-4.36 1.92-7.31 5.2-7.31 3.29 0 5.2 2.95 5.2 7.3 0 4.24-1.91 7.24-5.2 7.24-3.28 0-5.2-3-5.2-7.23zm0 0"/></symbol><symbol overflow="visible" id="1f3d22ceR"><path d="M8.88 6.23c0 .82.64 1.41 1.56 1.41 1.97 0 5.56-2.33 5.56-5.8C16-3.59 5.44-3.05 5.44-11.3c0-3.1 1.68-5.64 5.28-5.64a9.7 9.7 0 013.33.72c.9.36 1.18.54 1.64.54.87 0 1.39-.62 1.39-1.36 0-.87-.77-1.3-1.52-1.67-1.72-.8-4.08-1-5-1-4.92 0-8.48 3.36-8.48 8.52C2.08-1.4 12.64-1 12.64 2.08c0 1.64-1.77 2.48-2.87 2.92-.49.23-.9.6-.9 1.23zm0 0"/></symbol><symbol overflow="visible" id="1f3d22ceS"><path d="M3.28-1.77c0 1.13.88 2 2 2 1.16 0 2.03-.87 2.03-2v-9.95h3.57L17.16-.8c.32.52.96 1.03 1.71 1.03 1.13 0 2.05-.8 2.05-1.95 0-.4-.28-.97-.48-1.28L14.2-13.64l5.72-10.13c.2-.36.4-.87.4-1.3a1.9 1.9 0 00-1.96-1.98c-.72 0-1.44.53-1.72 1.05l-5.92 10.84h-3.4v-9.89a2 2 0 00-2.04-2c-1.12 0-2 .9-2 2zm0 0"/></symbol><symbol overflow="visible" id="1f3d22ceT"><path d="M16.77.23a2 2 0 001.95-2c0-.28-.08-.75-.2-1.07L11.8-22.92c-1.32-4-3.64-6.88-7.4-6.88-1 0-1.84.85-1.84 1.85s.8 1.72 1.85 1.82c1.3.08 2.71 1.2 3.54 3.72l.9 2.77C4.55-13.92 1.87-4.7 1.71-1.8c0 1.16.87 2.03 1.97 2.03.95 0 1.8-.64 2-1.95.43-4 2.67-9.76 4.47-13.15l4.68 13.71c.24.8 1 1.4 1.93 1.4zm0 0"/></symbol><symbol overflow="visible" id="1f3d22ceU"><path d="M15.16-3.16a6.56 6.56 0 006 3.57C23.8.4 28.2-2 28.2-9.7c0-3.1-.6-6.47-2.25-8.95-.39-.64-1-1.05-1.82-1.05-1.05 0-1.9.9-1.9 1.92 0 1.13 1.97 3.41 1.97 8.25 0 4.44-1.64 6.57-3.43 6.57-1.85 0-3.61-1.85-3.61-5.17v-5.29c0-1.15-.88-2.1-2-2.1-1.11 0-2 .95-2 2.1v5.29c0 3.32-1.75 5.17-3.6 5.17-1.8 0-3.4-2.13-3.4-6.57 0-4.84 1.92-7.12 1.92-8.25 0-1.03-.8-1.92-1.85-1.92-.82 0-1.43.4-1.87 1.05-1.64 2.48-2.2 5.84-2.2 8.95 0 7.69 4.4 10.1 7 10.1 1.96 0 4.43-.72 6-3.57zm-2.04-21.07c-.07.28-.17.59-.17.8 0 .87.85 1.5 1.64 1.5.64 0 1.2-.48 1.54-1.15l2.18-4.84c.13-.31.2-.6.2-.88 0-1.04-1-1.84-1.95-1.84-.92 0-1.6.64-1.84 1.48zm0 0"/></symbol><symbol overflow="visible" id="1f3d22ceV"><path d="M3.52-19.69a2 2 0 00-1.96 2c0 .28.16.92.28 1.33L6.31-2.69C6.77-1.36 7.56.23 10.05.23c1.15 0 2-.39 2.54-1.03 3.25-4.28 5.97-13.84 5.97-16.89 0-1.15-.92-2-1.97-2-.95 0-1.8.69-1.95 1.97a43.52 43.52 0 01-4.6 14.36l-4.6-14.92c-.2-.8-1-1.4-1.92-1.4zm0 0"/></symbol><symbol overflow="visible" id="1f3d22ceW"><path d="M19.69-9.72c0-5.76-3.2-10.12-8.82-10.12-5.64 0-8.82 4.36-8.82 10.12C2.05-4 5.15.41 10.87.41 16.57.4 19.7-4 19.7-9.72zm-13.61 0c0-4.12 1.84-6.8 4.8-6.8s4.8 2.68 4.8 6.8c0 4.13-1.84 6.85-4.8 6.85s-4.8-2.72-4.8-6.85zm0 0"/></symbol><symbol overflow="visible" id="1f3d22ceX"><path d="M8.69 6.16c0 .96.75 1.68 1.8 1.68 2.23 0 5.95-2.68 5.95-6.36 0-5.71-10.52-5.17-10.52-12.92 0-2.8 1.56-5.08 4.92-5.08 1.24 0 2.24.29 3.24.68 1.04.36 1.33.56 1.8.56 1 0 1.64-.77 1.64-1.56 0-1-.88-1.6-1.72-2-1.8-.85-4.24-1-5.16-1-4.92 0-8.69 3.25-8.69 8.56 0 9.64 10.53 10 10.53 13.12 0 1.57-1.8 2.4-2.89 2.88-.51.28-.9.72-.9 1.44zm0 0"/></symbol><symbol overflow="visible" id="1f3d22ceaa"><path d="M3.08-2.08A2.3 2.3 0 005.4.23c1.36 0 2.36-1 2.36-2.3v-9.41H11L17.08-.95c.36.6 1.12 1.18 2 1.18 1.33 0 2.36-.92 2.36-2.23 0-.48-.28-1.13-.52-1.48l-6.05-10.2 5.49-9.76c.23-.4.44-1 .44-1.48 0-1.36-1-2.28-2.28-2.28-.83 0-1.68.6-2 1.2l-5.64 10.52H7.77v-9.4c0-1.32-1-2.32-2.36-2.32a2.3 2.3 0 00-2.33 2.32zm0 0"/></symbol><symbol overflow="visible" id="1f3d22ceab"><path d="M16.8.23a2.28 2.28 0 002.28-2.3c0-.29-.08-.8-.2-1.13l-6.4-19.64c-1.36-4.2-3.92-7.11-7.89-7.11-1.18 0-2.15.95-2.15 2.1 0 1.16.92 2 2.15 2.16 1.13.1 2.64 1 3.36 3.38l.82 2.54c-4.41 5.61-7.08 14.85-7.2 17.7A2.28 2.28 0 003.83.22C4.95.23 5.92-.48 6.16-2c.48-4 2.53-9.2 4.07-12.2L14.6-1.36a2.3 2.3 0 002.2 1.6zm0 0"/></symbol><symbol overflow="visible" id="1f3d22ceac"><path d="M15.28-2.92A6.86 6.86 0 0021.36.4c2.64 0 7.23-2.46 7.23-10.05 0-3-.46-6.44-2.18-9.05a2.47 2.47 0 00-2.13-1.1c-1.2 0-2.16 1-2.16 2.2 0 1.23 1.83 3.59 1.83 8.15 0 3.92-1.39 5.96-3.07 5.96-1.65 0-3.29-1.6-3.29-4.64v-5.04c0-1.32-1-2.43-2.3-2.43a2.4 2.4 0 00-2.34 2.43v5.04c0 3.04-1.6 4.64-3.23 4.64-1.67 0-3.08-2.04-3.08-5.96 0-4.56 1.84-6.92 1.84-8.15 0-1.2-.96-2.2-2.17-2.2-.95 0-1.67.43-2.1 1.1C2.43-16.08 2-12.64 2-9.64 2-2.04 6.6.4 9.23.4c1.85 0 4.41-.61 6.05-3.33zm-2.2-21.67c-.08.3-.16.67-.16.87 0 1.03.96 1.77 1.88 1.77.68 0 1.36-.53 1.68-1.28l2.2-4.9c.12-.3.2-.59.2-.87 0-1.16-1.11-2.13-2.24-2.13-1.05 0-1.84.72-2.08 1.72zm0 0"/></symbol><symbol overflow="visible" id="1f3d22cead"><path d="M3.77-19.8a2.28 2.28 0 00-2.29 2.32c0 .32.16.92.24 1.28L5.84-3.16C6.31-1.64 7.28.24 10.2.24c1.36 0 2.36-.44 3-1.16 3.28-4.13 5.8-13.6 5.8-16.56a2.3 2.3 0 00-2.28-2.32c-1.13 0-2.08.75-2.28 2.28-.56 4.29-2.08 9.8-4.24 13.6L6-18.16c-.23-.96-1.2-1.64-2.23-1.64zm0 0"/></symbol><symbol overflow="visible" id="1f3d22ceae"><path d="M20-9.77c0-5.75-3.23-10.18-9.05-10.18-5.8 0-9.07 4.43-9.07 10.18 0 5.7 3.2 10.18 9.07 10.18C16.85.4 20-4.08 20-9.77zm-13.44 0c0-3.95 1.75-6.36 4.4-6.36 2.68 0 4.4 2.41 4.4 6.36 0 3.93-1.72 6.36-4.4 6.36-2.65 0-4.4-2.43-4.4-6.36zm0 0"/></symbol><symbol overflow="visible" id="1f3d22ceaf"><path d="M8.48 6.08C8.48 7.2 9.36 8 10.56 8c2.49 0 6.31-3 6.31-6.88 0-6-10.46-5.4-10.46-12.64 0-2.6 1.46-4.6 4.54-4.6 1.2 0 2.18.28 3.13.64 1.2.43 1.44.6 1.97.6 1.15 0 1.87-.84 1.87-1.8 0-1.12-.97-1.8-1.87-2.24a14.49 14.49 0 00-5.33-1.03c-4.95 0-8.92 3.1-8.92 8.64 0 9.44 10.48 9.8 10.48 12.87 0 1.49-1.84 2.36-2.84 2.88a1.8 1.8 0 00-.96 1.64zm0 0"/></symbol><symbol overflow="visible" id="1f3d22ceai"><path d="M2.92-2.36A2.59 2.59 0 005.56.28a2.62 2.62 0 002.67-2.64v-8.92h2.9l5.92 10.15c.39.7 1.26 1.41 2.26 1.41C20.77.28 22-.77 22-2.32c0-.52-.36-1.2-.6-1.6l-5.84-9.8 5.24-9.4a3.6 3.6 0 00.48-1.65c0-1.51-1.12-2.59-2.6-2.59a2.7 2.7 0 00-2.27 1.4L11-15.8H8.23v-8.92a2.62 2.62 0 00-2.67-2.64 2.59 2.59 0 00-2.64 2.64zm0 0"/></symbol><symbol overflow="visible" id="1f3d22ceaj"><path d="M16.88.28c1.43 0 2.6-1.2 2.6-2.64 0-.36-.12-.87-.2-1.2l-6.12-19.2c-1.4-4.44-4.2-7.4-8.4-7.4a2.47 2.47 0 00-2.45 2.44c0 1.36 1.05 2.28 2.46 2.44 1 .12 2.54.87 3.23 3.05l.69 2.3C4.13-14.42 1.49-5.15 1.44-2.4A2.62 2.62 0 004.04.3c1.24 0 2.37-.85 2.6-2.6.52-4 2.4-8.56 3.72-11.25L14.3-1.6A2.74 2.74 0 0016.87.28zm0 0"/></symbol><symbol overflow="visible" id="1f3d22ceak"><path d="M15.44-2.69a7.2 7.2 0 006.12 3.1C24.2.4 29-2.13 29-9.6c0-2.9-.31-6.41-2.16-9.1a2.76 2.76 0 00-2.36-1.23A2.5 2.5 0 0022-17.44c0 1.32 1.72 3.75 1.72 8.13 0 3.31-1.16 5.26-2.77 5.26-1.39 0-2.87-1.3-2.87-4.08v-4.74c0-1.57-1.16-2.82-2.64-2.82-1.52 0-2.64 1.25-2.64 2.81v4.76c0 2.76-1.52 4.07-2.93 4.07C8.29-4.05 7.17-6 7.17-9.3c0-4.38 1.68-6.81 1.68-8.13a2.46 2.46 0 00-2.43-2.48c-1.1 0-1.9.51-2.41 1.23-1.8 2.69-2.13 6.2-2.13 9.1 0 7.46 4.82 10 7.41 10 1.77 0 4.36-.53 6.16-3.1zm-2.4-22.23c-.09.33-.2.72-.2.97 0 1.15 1.11 1.95 2.11 1.95.82 0 1.57-.6 1.93-1.4l2.17-4.91c.1-.33.18-.61.18-.9 0-1.3-1.23-2.35-2.51-2.35-1.16 0-2.03.8-2.36 1.87zm0 0"/></symbol><symbol overflow="visible" id="1f3d22ceal"><path d="M4-19.92c-1.44 0-2.6 1.2-2.6 2.64 0 .33.12.92.24 1.28L5.36-3.69C5.87-1.95 7.05.28 10.4.28c1.51 0 2.67-.56 3.36-1.33 3.3-3.95 5.67-13.36 5.67-16.23a2.6 2.6 0 00-2.6-2.64c-1.25 0-2.36.84-2.6 2.56-.52 4.16-1.8 9.23-3.88 12.95L6.52-18.08A2.6 2.6 0 004-19.92zm0 0"/></symbol><symbol overflow="visible" id="1f3d22ceam"><path d="M20.36-9.8c0-5.72-3.36-10.25-9.28-10.25-5.96 0-9.31 4.53-9.31 10.25C1.77-4.12 5.05.4 11.07.4c6 0 9.29-4.53 9.29-10.2zm-13.28 0c0-3.8 1.64-5.92 4-5.92 2.33 0 4 2.13 4 5.92 0 3.75-1.67 5.88-4 5.88-2.36 0-4-2.13-4-5.88zm0 0"/></symbol><symbol overflow="visible" id="1f3d22cean"><path d="M8.23 5.95c0 1.28 1 2.2 2.36 2.2 2.72 0 6.77-3.35 6.77-7.35 0-6.36-10.44-5.72-10.44-12.44 0-2.36 1.36-4.08 4.2-4.08a7.9 7.9 0 013 .64c1.29.44 1.57.64 2.08.64 1.32 0 2.16-1 2.16-2.04 0-1.24-1.05-2.04-2.05-2.52-2-.95-4.62-1.05-5.51-1.05-5 0-9.11 3-9.11 8.64 0 9.25 10.44 9.64 10.44 12.72 0 1.4-1.93 2.33-2.85 2.85-.6.4-1.05.96-1.05 1.8zm0 0"/></symbol><symbol overflow="visible" id="1f3d22ceap"><path d="M2.72-2.69A2.91 2.91 0 005.69.28c1.72 0 3-1.28 3-2.97v-8.36h2.54l5.72 9.77A3.2 3.2 0 0019.52.28c1.64 0 3-1.16 3-2.87 0-.61-.36-1.36-.64-1.82l-5.65-9.36 5-9.03c.29-.48.54-1.2.54-1.8a2.84 2.84 0 00-2.93-2.92c-1.07 0-2.15.75-2.56 1.57l-5.12 9.82H8.69v-8.43a2.91 2.91 0 00-3-2.96 2.9 2.9 0 00-2.97 2.96zm0 0"/></symbol><symbol overflow="visible" id="1f3d22ceaq"><path d="M16.92.28a2.93 2.93 0 002.92-2.97c0-.36-.12-.9-.2-1.23l-5.8-18.77c-1.43-4.62-4.48-7.62-8.89-7.62A2.75 2.75 0 002.2-27.6c0 1.51 1.16 2.54 2.75 2.75.82.12 2.49.68 3.05 2.68l.6 2.11C3.91-14.72 1.27-5.4 1.27-2.69A2.93 2.93 0 004.2.28c1.4 0 2.64-.92 2.92-2.87.57-4 2.24-8 3.32-10.29L14.08-1.8A3.01 3.01 0 0016.92.28zm0 0"/></symbol><symbol overflow="visible" id="1f3d22cear"><path d="M15.56-2.44a7.6 7.6 0 006.2 2.85c2.65 0 7.65-2.57 7.65-9.97 0-2.75-.2-6.36-2.13-9.16a3.1 3.1 0 00-2.64-1.33 2.78 2.78 0 00-2.77 2.77c0 1.44 1.61 3.97 1.61 8.05 0 2.8-.92 4.67-2.4 4.67-1.2 0-2.56-1.08-2.56-3.57v-4.51c0-1.72-1.29-3.13-2.96-3.13-1.69 0-2.97 1.41-2.97 3.13v4.52c0 2.48-1.36 3.56-2.54 3.56-1.49 0-2.4-1.88-2.4-4.67 0-4.08 1.58-6.61 1.58-8.05a2.77 2.77 0 00-2.75-2.77 3.1 3.1 0 00-2.64 1.33c-1.92 2.8-2.12 6.4-2.12 9.16 0 7.4 5 9.97 7.64 9.97a7.6 7.6 0 006.2-2.85zM13-25.28c-.08.36-.2.8-.2 1.05 0 1.3 1.25 2.18 2.36 2.18.84 0 1.71-.64 2.07-1.51l2.18-4.96c.1-.32.18-.6.18-.89 0-1.43-1.36-2.64-2.8-2.64-1.27 0-2.27.9-2.59 2.13zm0 0"/></symbol><symbol overflow="visible" id="1f3d22ceas"><path d="M4.23-20.05a2.93 2.93 0 00-2.92 2.97c0 .36.13.92.2 1.24L4.89-4.16C5.44-2.23 6.76.28 10.55.28c1.72 0 3.03-.6 3.8-1.44 3.36-3.8 5.52-13.12 5.52-15.92a2.93 2.93 0 00-2.93-2.97c-1.39 0-2.64.93-2.9 2.9-.57 4-1.57 8.56-3.49 12.15L7.08-17.95a2.94 2.94 0 00-2.85-2.1zm0 0"/></symbol><symbol overflow="visible" id="1f3d22ceat"><path d="M20.69-9.84c0-5.72-3.4-10.32-9.53-10.32-6.11 0-9.57 4.6-9.57 10.32C1.6-4.2 4.95.4 11.16.4c6.2 0 9.53-4.61 9.53-10.25zm-13.13 0c0-3.64 1.57-5.47 3.6-5.47 2.04 0 3.6 1.83 3.6 5.47 0 3.56-1.56 5.4-3.6 5.4s-3.6-1.84-3.6-5.4zm0 0"/></symbol><symbol overflow="visible" id="1f3d22ceau"><path d="M8.05 5.88c0 1.43 1.1 2.43 2.64 2.43 2.95 0 7.1-3.67 7.1-7.87 0-6.64-10.38-5.96-10.38-12.16 0-2.15 1.28-3.6 3.82-3.6 1.13 0 2 .27 2.9.6 1.43.52 1.67.67 2.23.67 1.48 0 2.4-1.07 2.4-2.26 0-1.38-1.12-2.25-2.2-2.77-2.08-1-4.84-1.08-5.68-1.08-5.04 0-9.36 2.88-9.36 8.72 0 9.03 10.4 9.44 10.4 12.49 0 1.3-1.97 2.26-2.8 2.83a2.31 2.31 0 00-1.07 2zm0 0"/></symbol></defs><use xlink:href="#1f3d22cea" x="36.96" y="64.79225"/><use xlink:href="#1f3d22ceb" x="57.56" y="64.79225"/><use xlink:href="#1f3d22cec" x="76.52" y="64.79225"/><use xlink:href="#1f3d22ced" x="105.8" y="64.79225"/><use xlink:href="#1f3d22cee" x="124.76" y="64.79225"/><use xlink:href="#1f3d22cef" x="145.72" y="64.79225"/><g fill-opacity=".33"><use xlink:href="#1f3d22ceg" x="30" y="94.5845"/><use xlink:href="#1f3d22ceh" x="36.667" y="94.5845"/><use xlink:href="#1f3d22cei" x="43.334" y="94.5845"/><use xlink:href="#1f3d22cej" x="50.001" y="94.5845"/><use xlink:href="#1f3d22cek" x="56.668" y="94.5845"/><use xlink:href="#1f3d22cel" x="63.335" y="94.5845"/><use xlink:href="#1f3d22cem" x="70.002" y="94.5845"/><use xlink:href="#1f3d22cei" x="76.669" y="94.5845"/><use xlink:href="#1f3d22cen" x="83.336" y="94.5845"/><use xlink:href="#1f3d22cej" x="90.003" y="94.5845"/><use xlink:href="#1f3d22ceo" x="96.67" y="94.5845"/><use xlink:href="#1f3d22cek" x="103.337" y="94.5845"/><use xlink:href="#1f3d22ceo" x="110.004" y="94.5845"/><use xlink:href="#1f3d22cel" x="116.671" y="94.5845"/><use xlink:href="#1f3d22cep" x="123.338" y="94.5845"/><use xlink:href="#1f3d22ceq" x="130.005" y="94.5845"/><use xlink:href="#1f3d22cel" x="136.672" y="94.5845"/><use xlink:href="#1f3d22cer" x="143.339" y="94.5845"/><use xlink:href="#1f3d22ces" x="150.006" y="94.5845"/><use xlink:href="#1f3d22cet" x="156.673" y="94.5845"/><use xlink:href="#1f3d22cej" x="163.34" y="94.5845"/></g><use xlink:href="#1f3d22ceu" x="36.08" y="163.70875"/><use xlink:href="#1f3d22cev" x="57.08" y="163.70875"/><use xlink:href="#1f3d22cew" x="76.32" y="163.70875"/><use xlink:href="#1f3d22cex" x="105.88" y="163.70875"/><use xlink:href="#1f3d22cey" x="125.12" y="163.70875"/><use xlink:href="#1f3d22cez" x="146.28" y="163.70875"/><g fill-opacity=".33"><use xlink:href="#1f3d22ceg" x="10" y="193.501"/><use xlink:href="#1f3d22ceh" x="16.667" y="193.501"/><use xlink:href="#1f3d22cei" x="23.334" y="193.501"/><use xlink:href="#1f3d22cej" x="30.001" y="193.501"/><use xlink:href="#1f3d22cek" x="36.668" y="193.501"/><use xlink:href="#1f3d22cel" x="43.335" y="193.501"/><use xlink:href="#1f3d22cem" x="50.002" y="193.501"/><use xlink:href="#1f3d22cei" x="56.669" y="193.501"/><use xlink:href="#1f3d22cen" x="63.336" y="193.501"/><use xlink:href="#1f3d22cej" x="70.003" y="193.501"/><use xlink:href="#1f3d22ceo" x="76.67" y="193.501"/><use xlink:href="#1f3d22cek" x="83.337" y="193.501"/><use xlink:href="#1f3d22ceo" x="90.004" y="193.501"/><use xlink:href="#1f3d22cel" x="96.671" y="193.501"/><use xlink:href="#1f3d22cep" x="103.338" y="193.501"/><use xlink:href="#1f3d22ceq" x="110.005" y="193.501"/><use xlink:href="#1f3d22cel" x="116.672" y="193.501"/><use xlink:href="#1f3d22ceq" x="123.339" y="193.501"/><use xlink:href="#1f3d22ceA" x="130.006" y="193.501"/><use xlink:href="#1f3d22ceB" x="136.673" y="193.501"/><use xlink:href="#1f3d22ceC" x="143.34" y="193.501"/><use xlink:href="#1f3d22ceD" x="150.007" y="193.501"/><use xlink:href="#1f3d22ceh" x="156.674" y="193.501"/><use xlink:href="#1f3d22cet" x="163.341" y="193.501"/><use xlink:href="#1f3d22ceE" x="170.008" y="193.501"/><use xlink:href="#1f3d22ces" x="176.675" y="193.501"/><use xlink:href="#1f3d22ceB" x="183.342" y="193.501"/></g><use xlink:href="#1f3d22ceF" x="35.18" y="262.62525"/><use xlink:href="#1f3d22ceG" x="56.62" y="262.62525"/><use xlink:href="#1f3d22ceH" x="76.14" y="262.62525"/><use xlink:href="#1f3d22ceI" x="105.94" y="262.62525"/><use xlink:href="#1f3d22ceJ" x="125.54" y="262.62525"/><use xlink:href="#1f3d22ceK" x="146.86" y="262.62525"/><g fill-opacity=".33"><use xlink:href="#1f3d22ceg" x="26.66667" y="292.4175"/><use xlink:href="#1f3d22ceh" x="33.33367" y="292.4175"/><use xlink:href="#1f3d22cei" x="40.00067" y="292.4175"/><use xlink:href="#1f3d22cej" x="46.66767" y="292.4175"/><use xlink:href="#1f3d22cek" x="53.33467" y="292.4175"/><use xlink:href="#1f3d22cel" x="60.00167" y="292.4175"/><use xlink:href="#1f3d22cem" x="66.66867" y="292.4175"/><use xlink:href="#1f3d22cei" x="73.33567" y="292.4175"/><use xlink:href="#1f3d22cen" x="80.00267" y="292.4175"/><use xlink:href="#1f3d22cej" x="86.66967" y="292.4175"/><use xlink:href="#1f3d22ceo" x="93.33667" y="292.4175"/><use xlink:href="#1f3d22cek" x="100.00367" y="292.4175"/><use xlink:href="#1f3d22ceo" x="106.67067" y="292.4175"/><use xlink:href="#1f3d22cel" x="113.33767" y="292.4175"/><use xlink:href="#1f3d22cep" x="120.00467" y="292.4175"/><use xlink:href="#1f3d22ceq" x="126.67167" y="292.4175"/><use xlink:href="#1f3d22cel" x="133.33867" y="292.4175"/><use xlink:href="#1f3d22ceL" x="140.00567" y="292.4175"/><use xlink:href="#1f3d22cet" x="146.67267" y="292.4175"/><use xlink:href="#1f3d22ceE" x="153.33967" y="292.4175"/><use xlink:href="#1f3d22ces" x="160.00667" y="292.4175"/><use xlink:href="#1f3d22ceB" x="166.67367" y="292.4175"/></g><g><use xlink:href="#1f3d22ceM" x="34.24" y="361.54175"/><use xlink:href="#1f3d22ceN" x="56.12" y="361.54175"/><use xlink:href="#1f3d22ceO" x="75.92" y="361.54175"/><use xlink:href="#1f3d22ceP" x="106" y="361.54175"/><use xlink:href="#1f3d22ceQ" x="125.92" y="361.54175"/><use xlink:href="#1f3d22ceR" x="147.44" y="361.54175"/></g><g fill-opacity=".33"><use xlink:href="#1f3d22ceg" x="20" y="391.334"/><use xlink:href="#1f3d22ceh" x="26.667" y="391.334"/><use xlink:href="#1f3d22cei" x="33.334" y="391.334"/><use xlink:href="#1f3d22cej" x="40.001" y="391.334"/><use xlink:href="#1f3d22cek" x="46.668" y="391.334"/><use xlink:href="#1f3d22cel" x="53.335" y="391.334"/><use xlink:href="#1f3d22cem" x="60.002" y="391.334"/><use xlink:href="#1f3d22cei" x="66.669" y="391.334"/><use xlink:href="#1f3d22cen" x="73.336" y="391.334"/><use xlink:href="#1f3d22cej" x="80.003" y="391.334"/><use xlink:href="#1f3d22ceo" x="86.67" y="391.334"/><use xlink:href="#1f3d22cek" x="93.337" y="391.334"/><use xlink:href="#1f3d22ceo" x="100.004" y="391.334"/><use xlink:href="#1f3d22cel" x="106.671" y="391.334"/><use xlink:href="#1f3d22cep" x="113.338" y="391.334"/><use xlink:href="#1f3d22ceq" x="120.005" y="391.334"/><use xlink:href="#1f3d22cel" x="126.672" y="391.334"/><use xlink:href="#1f3d22cem" x="133.339" y="391.334"/><use xlink:href="#1f3d22cek" x="140.006" y="391.334"/><use xlink:href="#1f3d22ceE" x="146.673" y="391.334"/><use xlink:href="#1f3d22cen" x="153.34" y="391.334"/><use xlink:href="#1f3d22ceh" x="160.007" y="391.334"/><use xlink:href="#1f3d22ceD" x="166.674" y="391.334"/><use xlink:href="#1f3d22ceC" x="173.341" y="391.334"/></g><g><use xlink:href="#1f3d22ceS" x="33.34" y="460.45825"/><use xlink:href="#1f3d22ceT" x="55.62" y="460.45825"/><use xlink:href="#1f3d22ceU" x="75.7" y="460.45825"/><use xlink:href="#1f3d22ceV" x="106.02" y="460.45825"/><use xlink:href="#1f3d22ceW" x="126.3" y="460.45825"/><use xlink:href="#1f3d22ceX" x="148.02" y="460.45825"/></g><g fill-opacity=".33"><use xlink:href="#1f3d22ceg" x="23.33333" y="490.2505"/><use xlink:href="#1f3d22ceh" x="30.00033" y="490.2505"/><use xlink:href="#1f3d22cei" x="36.66733" y="490.2505"/><use xlink:href="#1f3d22cej" x="43.33433" y="490.2505"/><use xlink:href="#1f3d22cek" x="50.00133" y="490.2505"/><use xlink:href="#1f3d22cel" x="56.66833" y="490.2505"/><use xlink:href="#1f3d22cem" x="63.33533" y="490.2505"/><use xlink:href="#1f3d22cei" x="70.00233" y="490.2505"/><use xlink:href="#1f3d22cen" x="76.66933" y="490.2505"/><use xlink:href="#1f3d22cej" x="83.33633" y="490.2505"/><use xlink:href="#1f3d22ceo" x="90.00333" y="490.2505"/><use xlink:href="#1f3d22cek" x="96.67033" y="490.2505"/><use xlink:href="#1f3d22ceo" x="103.33733" y="490.2505"/><use xlink:href="#1f3d22cel" x="110.00433" y="490.2505"/><use xlink:href="#1f3d22cep" x="116.67133" y="490.2505"/><use xlink:href="#1f3d22ceq" x="123.33833" y="490.2505"/><use xlink:href="#1f3d22cel" x="130.00533" y="490.2505"/><use xlink:href="#1f3d22ceY" x="136.67233" y="490.2505"/><use xlink:href="#1f3d22cek" x="143.33933" y="490.2505"/><use xlink:href="#1f3d22ceo" x="150.00633" y="490.2505"/><use xlink:href="#1f3d22cet" x="156.67333" y="490.2505"/><use xlink:href="#1f3d22cen" x="163.34033" y="490.2505"/><use xlink:href="#1f3d22ceZ" x="170.00733" y="490.2505"/></g><g><use xlink:href="#1f3d22ceaa" x="32.4" y="559.37475"/><use xlink:href="#1f3d22ceab" x="55.12" y="559.37475"/><use xlink:href="#1f3d22ceac" x="75.48" y="559.37475"/><use xlink:href="#1f3d22cead" x="106.08" y="559.37475"/><use xlink:href="#1f3d22ceae" x="126.68" y="559.37475"/><use xlink:href="#1f3d22ceaf" x="148.6" y="559.37475"/></g><g fill-opacity=".33"><use xlink:href="#1f3d22ceg" x="16.666667" y="589.167"/><use xlink:href="#1f3d22ceh" x="23.333667" y="589.167"/><use xlink:href="#1f3d22cei" x="30.000667" y="589.167"/><use xlink:href="#1f3d22cej" x="36.667667" y="589.167"/><use xlink:href="#1f3d22cek" x="43.334667" y="589.167"/><use xlink:href="#1f3d22cel" x="50.001667" y="589.167"/><use xlink:href="#1f3d22cem" x="56.668667" y="589.167"/><use xlink:href="#1f3d22cei" x="63.335667" y="589.167"/><use xlink:href="#1f3d22cen" x="70.002667" y="589.167"/><use xlink:href="#1f3d22cej" x="76.669667" y="589.167"/><use xlink:href="#1f3d22ceo" x="83.336667" y="589.167"/><use xlink:href="#1f3d22cek" x="90.003667" y="589.167"/><use xlink:href="#1f3d22ceo" x="96.670667" y="589.167"/><use xlink:href="#1f3d22cel" x="103.337667" y="589.167"/><use xlink:href="#1f3d22cep" x="110.004667" y="589.167"/><use xlink:href="#1f3d22ceq" x="116.671667" y="589.167"/><use xlink:href="#1f3d22cel" x="123.338667" y="589.167"/><use xlink:href="#1f3d22ceag" x="130.005667" y="589.167"/><use xlink:href="#1f3d22cek" x="136.672667" y="589.167"/><use xlink:href="#1f3d22ceZ" x="143.339667" y="589.167"/><use xlink:href="#1f3d22cet" x="150.006667" y="589.167"/><use xlink:href="#1f3d22ceah" x="156.673667" y="589.167"/><use xlink:href="#1f3d22cei" x="163.340667" y="589.167"/><use xlink:href="#1f3d22ceh" x="170.007667" y="589.167"/><use xlink:href="#1f3d22ceo" x="176.674667" y="589.167"/></g><g><use xlink:href="#1f3d22ceai" x="31.5" y="658.29125"/><use xlink:href="#1f3d22ceaj" x="54.66" y="658.29125"/><use xlink:href="#1f3d22ceak" x="75.3" y="658.29125"/><use xlink:href="#1f3d22ceal" x="106.14" y="658.29125"/><use xlink:href="#1f3d22ceam" x="127.1" y="658.29125"/><use xlink:href="#1f3d22cean" x="149.18" y="658.29125"/></g><g fill-opacity=".33"><use xlink:href="#1f3d22ceg" x="30" y="688.0835"/><use xlink:href="#1f3d22ceh" x="36.667" y="688.0835"/><use xlink:href="#1f3d22cei" x="43.334" y="688.0835"/><use xlink:href="#1f3d22cej" x="50.001" y="688.0835"/><use xlink:href="#1f3d22cek" x="56.668" y="688.0835"/><use xlink:href="#1f3d22cel" x="63.335" y="688.0835"/><use xlink:href="#1f3d22cem" x="70.002" y="688.0835"/><use xlink:href="#1f3d22cei" x="76.669" y="688.0835"/><use xlink:href="#1f3d22cen" x="83.336" y="688.0835"/><use xlink:href="#1f3d22cej" x="90.003" y="688.0835"/><use xlink:href="#1f3d22ceo" x="96.67" y="688.0835"/><use xlink:href="#1f3d22cek" x="103.337" y="688.0835"/><use xlink:href="#1f3d22ceo" x="110.004" y="688.0835"/><use xlink:href="#1f3d22cel" x="116.671" y="688.0835"/><use xlink:href="#1f3d22cep" x="123.338" y="688.0835"/><use xlink:href="#1f3d22ceq" x="130.005" y="688.0835"/><use xlink:href="#1f3d22cel" x="136.672" y="688.0835"/><use xlink:href="#1f3d22ceao" x="143.339" y="688.0835"/><use xlink:href="#1f3d22cei" x="150.006" y="688.0835"/><use xlink:href="#1f3d22ceh" x="156.673" y="688.0835"/><use xlink:href="#1f3d22ceo" x="163.34" y="688.0835"/></g><g><use xlink:href="#1f3d22ceap" x="30.56" y="757.20775"/><use xlink:href="#1f3d22ceaq" x="54.16" y="757.20775"/><use xlink:href="#1f3d22cear" x="75.08" y="757.20775"/><use xlink:href="#1f3d22ceas" x="106.2" y="757.20775"/><use xlink:href="#1f3d22ceat" x="127.48" y="757.20775"/><use xlink:href="#1f3d22ceau" x="149.76" y="757.20775"/></g><g fill-opacity=".33"><use xlink:href="#1f3d22ceg" x="13.333333" y="787"/><use xlink:href="#1f3d22ceh" x="20.000333" y="787"/><use xlink:href="#1f3d22cei" x="26.667333" y="787"/><use xlink:href="#1f3d22cej" x="33.334333" y="787"/><use xlink:href="#1f3d22cek" x="40.001333" y="787"/><use xlink:href="#1f3d22cel" x="46.668333" y="787"/><use xlink:href="#1f3d22cem" x="53.335333" y="787"/><use xlink:href="#1f3d22cei" x="60.002333" y="787"/><use xlink:href="#1f3d22cen" x="66.669333" y="787"/><use xlink:href="#1f3d22cej" x="73.336333" y="787"/><use xlink:href="#1f3d22ceo" x="80.003333" y="787"/><use xlink:href="#1f3d22cek" x="86.670333" y="787"/><use xlink:href="#1f3d22ceo" x="93.337333" y="787"/><use xlink:href="#1f3d22cel" x="100.004333" y="787"/><use xlink:href="#1f3d22cep" x="106.671333" y="787"/><use xlink:href="#1f3d22ceq" x="113.338333" y="787"/><use xlink:href="#1f3d22cel" x="120.005333" y="787"/><use xlink:href="#1f3d22ceq" x="126.672333" y="787"/><use xlink:href="#1f3d22ceA" x="133.339333" y="787"/><use xlink:href="#1f3d22ceB" x="140.006333" y="787"/><use xlink:href="#1f3d22ceC" x="146.673333" y="787"/><use xlink:href="#1f3d22ceD" x="153.340333" y="787"/><use xlink:href="#1f3d22ceah" x="160.007333" y="787"/><use xlink:href="#1f3d22cei" x="166.674333" y="787"/><use xlink:href="#1f3d22ceh" x="173.341333" y="787"/><use xlink:href="#1f3d22ceo" x="180.008333" y="787"/></g></svg>