<?xml version='1.0' encoding='UTF-8'?>
<svg xmlns="http://www.w3.org/2000/svg" xmlns:xlink="http://www.w3.org/1999/xlink" width="600px" height="300px" viewBox="0 0 600 300" x="0px" y="0px" enable-background="new 0 0 600 300"><defs><symbol overflow="visible" id="59a853caa"><path d="M13.44-53.92a3.28 3.28 0 00-3.36-3.36 3.32 3.32 0 00-3.36 3.36V-9.6C6.72-6.16 6-4 6-2.72 6-1.05 7.05.41 9.05.41c1.75 0 2.64-.97 3.03-2.33l.56-2.31C16.24-.95 20.8.8 24.16.8c9.2 0 15.12-7.36 15.12-20.16 0-11.92-5.6-20-17.44-20-3.36 0-6.4 1.13-8.4 2zm0 22.08c2-.96 5.12-2.08 8.33-2.08 7.75 0 10.71 6 10.71 14.56 0 8.64-2.8 14.56-9.53 14.56-2.23 0-5.82-.97-9.51-4.15zm0 0"/></symbol><symbol overflow="visible" id="59a853cab"><path d="M27.13-8.95C23.84-6 20-4.8 17.27-4.8c-4.56 0-7.2-2.33-7.2-6.25 0-4 2.87-6.15 8.48-6.15h8.57zm0-13.05H18.3c-9.26 0-14.8 4.16-14.8 11.36C3.52-3.7 8.42.8 15.93.8 21.05.8 25.28-1.6 28-4.16l.56 2.32A2.93 2.93 0 0031.6.4c2 0 3.05-1.36 3.05-2.97 0-1.44-.8-2.96-.8-7.52v-15.76c0-6.88-3.36-13.6-14.64-13.6-3.04 0-7.68.64-10.56 2.08-1.52.8-2.33 1.6-2.33 2.8 0 1.36.97 2.72 2.82 2.72 1.03 0 2.3-.57 3.67-.96a18.88 18.88 0 015.84-1.12c6.48 0 8.48 3.6 8.48 8.08zm0 0"/></symbol><symbol overflow="visible" id="59a853cac"><path d="M11.44-5.69H6.4a2.8 2.8 0 00-2.82 2.9C3.6-1.3 4.8 0 6.41 0H24c1.6 0 2.8-1.28 2.8-2.8 0-1.6-1.2-2.89-2.8-2.89h-5.84v-27.36h21.28v27.36H34.4c-1.53 0-2.72 1.28-2.72 2.9C31.69-1.3 32.87 0 34.4 0h16.95c1.6 0 2.8-1.28 2.8-2.8 0-1.6-1.2-2.89-2.8-2.89h-5.2v-27.36h11.36a2.7 2.7 0 002.71-2.8c0-1.59-1.18-2.8-2.71-2.8H46.16v-1.27c0-8.49 3.12-12.49 9.84-12.49 3.69 0 9.28 1.28 11.52 2.72v44h-5.29a2.8 2.8 0 00-2.8 2.9c0 1.5 1.21 2.79 2.8 2.79H81.2C82.8 0 84-1.28 84-2.8c0-1.6-1.2-2.89-2.8-2.89h-6.97v-42.47c0-3.28-1.43-5.36-3.75-6.64-4-2.08-9.53-3.2-14.48-3.2-11.84 0-16.56 7.2-16.56 18v1.36H18.16v-1.92c0-6.64 2.56-8.72 6.4-8.72 2 0 3.44.48 4.96 1.36.8.33 1.53.56 2.25.56A2.63 2.63 0 0034.48-50c0-1.05-.56-1.92-1.53-2.56-2.08-1.52-5.75-2.4-8.87-2.4-8.88 0-12.64 6.32-12.64 14.55v1.77H5.69c-1.61 0-2.82 1.2-2.82 2.8 0 1.6 1.2 2.8 2.82 2.8h5.75zm0 0"/></symbol><symbol overflow="visible" id="59a853cad"><path d="M11.2-17.77h22.16c1.52 0 2.64-.71 2.64-3.59 0-11.52-4.88-18.08-15.2-18.08-10.57 0-16.32 7.52-16.32 20C4.48-7.36 10.16.8 22.16.8c2.8 0 7.43-.64 10.4-2.08 1.28-.72 2.49-1.44 2.49-2.88 0-1.28-.97-2.56-2.74-2.56-1.26 0-2.47.56-3.9.95-1.93.57-4 1.05-6.25 1.05-7.85 0-10.96-5.69-10.96-13.05zm0-4.64c.4-6.23 3.36-11.51 9.6-11.51 6.64 0 8.8 4.8 8.97 11.51zm0 0"/></symbol><symbol overflow="visible" id="59a853cae"><path d="M30.23-37.36c-2-.87-5.03-2.08-8.39-2.08-11.84 0-17.43 8.16-17.43 20.08C4.4-6.56 10.3.8 19.5.8c3.77 0 7.93-1.85 11.54-5.03l.64 2.39C32-.56 32.95.4 34.72.4c2 0 2.97-1.46 2.97-3.13 0-1.28-.74-3.44-.74-6.87v-44.33a3.28 3.28 0 00-3.36-3.36 3.29 3.29 0 00-3.36 3.36zm0 28.4c-3.59 3.2-7.28 4.16-9.51 4.16-6.72 0-9.52-5.92-9.52-14.56 0-8.56 2.96-14.56 10.72-14.56 3.2 0 6.4 1.12 8.31 2.08zm0 0"/></symbol><symbol overflow="visible" id="59a853cag"><path d="M4.4-19.28C4.4-7.84 10.49.8 21.53.8c11.12 0 17.12-8.64 17.12-20.08 0-11.6-6.16-20.16-17.12-20.16-10.88 0-17.11 8.56-17.11 20.16zM21.53-4.8c-6.57 0-10.4-6-10.4-14.48 0-8.72 3.83-14.64 10.4-14.64 6.56 0 10.4 5.92 10.4 14.64 0 8.48-3.84 14.48-10.4 14.48zm0 0"/></symbol><symbol overflow="visible" id="59a853cah"><path d="M11.44-5.69H6.4a2.8 2.8 0 00-2.82 2.9C3.6-1.3 4.8 0 6.41 0H24c1.6 0 2.8-1.28 2.8-2.8 0-1.6-1.2-2.89-2.8-2.89h-5.84v-27.36h21.28v27.36H34.4c-1.53 0-2.72 1.28-2.72 2.9C31.69-1.3 32.87 0 34.4 0h17.67c1.6 0 2.8-1.28 2.8-2.8a2.8 2.8 0 00-2.8-2.89h-5.92v-27.36h21.36v27.36h-5.44a2.8 2.8 0 00-2.8 2.9c0 1.5 1.28 2.79 2.8 2.79H81.2C82.72 0 84-1.28 84-2.8c0-1.6-1.2-2.89-2.8-2.89h-6.97v-30.08c0-1.59-1.28-2.87-2.87-2.87h-25.2v-1.77c0-8.8 4.15-12 11.28-12 2.72 0 6.33.64 8.72 2l.64 3.85c.33 1.92 1.36 2.87 3.12 2.87 1.85 0 3.13-1.36 2.8-3.75l-.4-3.28c-.32-2.16-1.04-3.28-2.88-4.4-2.88-1.68-8.31-2.88-12-2.88-12.31 0-18 6.8-18 17.6v1.76H18.16v-1.92c0-6.64 2.56-8.72 6.4-8.72 2 0 3.44.48 4.96 1.36.8.33 1.53.56 2.25.56 1.67 0 2.71-1.2 2.71-2.64 0-.95-.56-1.92-1.53-2.56-2.08-1.52-5.75-2.4-8.87-2.4-8.88 0-12.64 6.32-12.64 14.55v1.77H5.69c-1.61 0-2.82 1.2-2.82 2.8 0 1.6 1.2 2.8 2.82 2.8h5.75zm0 0"/></symbol><symbol overflow="visible" id="59a853cai"><path d="M28.4-28.31c.24 1.9 1.44 3.03 3.12 3.03 1.84 0 3.2-1.52 2.89-3.92l-.33-3.44c-.24-2-.72-3.13-2.49-4.23-2.64-1.7-6.64-2.57-9.75-2.57-11.2 0-17.43 7.44-17.43 20.08C4.4-7.44 10.3.8 21.84.8c2.47 0 7.2-.64 10.24-2.08 1.36-.64 2.48-1.44 2.48-2.95 0-1.29-.87-2.64-2.64-2.64-1.05 0-2.4.56-3.76.95a20.11 20.11 0 01-6.32 1.12c-7.28 0-10.64-6-10.64-14.56 0-8.87 3.28-14.56 10.64-14.56 2 0 4.24.56 6 1.6zm0 0"/></symbol><symbol overflow="visible" id="59a853caj"><path d="M3.83 0v-5.95H6.2v-.82H.45v.82h2.4V0zm0 0"/></symbol><symbol overflow="visible" id="59a853cak"><path d="M5.75-2.23v-.43c0-1.6-.9-2.51-2.42-2.51S.87-4.16.87-2.48c0 1.71.91 2.62 2.5 2.62 1.43 0 2.07-.56 2.29-1.52l-.9-.09c-.18.61-.59.9-1.35.9-.94 0-1.52-.54-1.58-1.66zm-2.4-2.2c.93 0 1.43.5 1.48 1.55H1.84c.08-1.07.6-1.56 1.5-1.56zm0 0"/></symbol><symbol overflow="visible" id="59a853cal"><path d="M1.83 0l1.42-2h.06l1.46 2H5.8L4-2.53l1.78-2.49H4.8L3.42-3.08h-.08l-1.4-1.94H.89l1.78 2.49L.84 0zm0 0"/></symbol><symbol overflow="visible" id="59a853cam"><path d="M5.52-4.25v-.77H3.17v-1.56h-.81l-.14 1.56H.75v.77h1.47v2.4c0 1.3.48 1.94 1.84 1.94C4.6.1 5.14 0 5.55-.14L5.4-.91c-.32.13-.72.2-1.13.2-.8 0-1.1-.37-1.1-1.23v-2.31zm0 0"/></symbol><symbol overflow="visible" id="59a853can"><path d="M3.33-3.42c.47 0 .8-.27.8-.8 0-.51-.33-.8-.8-.8-.47 0-.8.29-.8.8 0 .53.33.8.8.8zm0 3.5c.47 0 .8-.27.8-.78 0-.53-.33-.82-.8-.82-.47 0-.8.29-.8.82 0 .51.33.78.8.78zm0 0"/></symbol><symbol overflow="visible" id="59a853cap"><path d="M3.9.14c1.48 0 2.18-.98 2.18-2.64 0-1.67-.7-2.66-2.17-2.66-.91 0-1.49.41-1.79 1h-.06v-2.98h-.95V0h.81l.11-.9h.06c.29.63.82 1.04 1.82 1.04zm-.32-.8c-1.08 0-1.55-.8-1.55-1.84 0-1.06.47-1.86 1.55-1.86 1.1 0 1.51.61 1.51 1.86S4.64-.66 3.58-.66zm0 0"/></symbol><symbol overflow="visible" id="59a853caq"><path d="M2.83.14c.94 0 1.5-.39 1.81-.95h.08l.1.81h.76v-3.38c0-1.23-.69-1.8-2.13-1.8-1.43 0-2.03.65-2.18 1.6l.93.1c.11-.6.44-.93 1.22-.93.85 0 1.22.32 1.22 1.04v.34l-1.81.2C1.6-2.7 1.1-2.17 1.1-1.28c0 .92.64 1.42 1.72 1.42zm.25-.77c-.67 0-1.02-.28-1.02-.74 0-.44.28-.72 1-.82l1.58-.19v.41c0 .8-.6 1.34-1.56 1.34zm0 0"/></symbol><symbol overflow="visible" id="59a853car"><path d="M4.63-6.5c.45 0 .98.08 1.39.2l.2-.72a5.3 5.3 0 00-1.64-.26c-1.52 0-2.16.56-2.16 1.87v.4H.9v.76h1.53V0h.94v-4.25h2.53v-.77H3.36v-.3c0-.84.33-1.18 1.27-1.18zm0 0"/></symbol><symbol overflow="visible" id="59a853cas"><path d="M3.92-7.14H1.36v.76h1.6v5.61H1.15V0H5.7v-.77H3.92zm0 0"/></symbol><symbol overflow="visible" id="59a853cat"><path d="M2.84.14C3.8.14 4.33-.26 4.6-.9h.07L4.8 0h.76v-7.14h-.95v2.95h-.08c-.28-.6-.86-.97-1.67-.97-1.48 0-2.27.99-2.27 2.64C.6-.84 1.36.14 2.84.14zm.22-.8c-.98 0-1.48-.59-1.48-1.84s.5-1.86 1.48-1.86c1.13 0 1.58.8 1.58 1.86S4.2-.66 3.06-.66zm0 0"/></symbol><symbol overflow="visible" id="59a853cau"><path d="M3.33.14c1.62 0 2.5-.95 2.5-2.66 0-1.68-.88-2.64-2.5-2.64-1.63 0-2.5.96-2.5 2.64 0 1.7.87 2.66 2.5 2.66zm0-.77c-1.06 0-1.52-.6-1.52-1.89 0-1.28.46-1.87 1.52-1.87 1.08 0 1.53.6 1.53 1.87 0 1.29-.45 1.9-1.53 1.9zm0 0"/></symbol><symbol overflow="visible" id="59a853cav"><path d="M3.58-5.81c.42 0 .72-.22.72-.67 0-.44-.3-.68-.72-.68-.44 0-.72.24-.72.68 0 .45.28.67.72.67zm.5.8H1.52v.76h1.6v3.48h-1.8V0h4.46v-.77h-1.7zm0 0"/></symbol><symbol overflow="visible" id="59a853caw"><path d="M3.34.14c1.43 0 2.13-.66 2.25-1.78l-.89-.1c-.1.7-.5 1.08-1.34 1.08-1.03 0-1.52-.64-1.52-1.84 0-1.23.47-1.86 1.52-1.86.84 0 1.23.36 1.34 1.08l.9-.1c-.13-1.09-.82-1.78-2.26-1.78-1.56 0-2.46.97-2.46 2.66 0 1.66.9 2.64 2.46 2.64zm0 0"/></symbol><symbol overflow="visible" id="59a853cax"><path d="M5.95-6.77H1.1V0h.99v-2.92H5.3v-.77H2.08v-2.26h3.87zm0 0"/></symbol><symbol overflow="visible" id="59a853cay"><path d="M2.73.14c.9 0 1.43-.45 1.74-1.08h.06l.13.94h.8v-5.02h-.94v2.7c0 .98-.57 1.62-1.46 1.62-.75 0-1.1-.4-1.1-1.22v-3.1h-.93v3.32c0 1.17.55 1.84 1.7 1.84zm0 0"/></symbol><symbol overflow="visible" id="59a853caz"><path d="M5.08-5.16c-.94 0-1.58.43-1.9 1.3h-.09l-.07-1.16H1.05v.77h1.1v3.48H.96V0h3.96v-.77H3.1v-1.46c0-1.36.6-2.05 1.83-2.05.4 0 .76.08 1.1.17l.15-.87c-.33-.11-.7-.18-1.11-.18zm0 0"/></symbol><symbol overflow="visible" id="59a853caA"><path d="M3.42.14c1.61 0 2.56-.75 2.56-2 0-1.1-.67-1.6-1.95-1.86l-.97-.2c-.87-.17-1.23-.49-1.23-1.11 0-.7.54-1.11 1.5-1.11 1.06 0 1.51.34 1.69 1.23l.9-.09c-.17-1.28-.98-1.9-2.6-1.9C1.79-6.9.9-6.18.9-4.98c0 1.06.66 1.66 1.88 1.9l1.01.2c.85.17 1.25.4 1.25 1.09 0 .73-.6 1.16-1.6 1.16-1.07 0-1.66-.4-1.8-1.24l-.94.1C.83-.53 1.75.13 3.42.13zm0 0"/></symbol><symbol overflow="visible" id="59a853caB"><path d="M2.16 0v-2.67c0-.99.59-1.63 1.46-1.63.74 0 1.07.38 1.07 1.22V0h.95v-3.31c0-1.2-.56-1.85-1.67-1.85-.92 0-1.49.46-1.77 1.08h-.06l-.12-.94H1.2V0zm0 0"/></symbol><symbol overflow="visible" id="59a853caC"><path d="M3.16 2.03c1.67 0 2.4-.86 2.4-2.51v-4.54h-.81l-.13.91h-.06c-.26-.58-.8-1.05-1.73-1.05-1.42 0-2.24 1-2.24 2.52 0 1.6.75 2.56 2.2 2.56.94 0 1.5-.5 1.77-1.03h.05v.72c0 1.17-.42 1.67-1.45 1.67-.93 0-1.3-.34-1.41-.89L.8.5c.12.96.87 1.54 2.36 1.54zM3.06-.8c-.98 0-1.48-.57-1.48-1.82 0-1.13.5-1.75 1.48-1.75 1.06 0 1.58.76 1.58 1.75 0 .95-.56 1.82-1.58 1.82zm0 0"/></symbol><symbol overflow="visible" id="59a853caD"><path d="M3.36.16c1.4 0 2.2-.6 2.2-1.57 0-.89-.54-1.22-1.47-1.39L3-3c-.67-.14-.86-.33-.86-.73 0-.5.4-.74 1.17-.74.83 0 1.19.27 1.27.8l.9-.05c-.12-1-.8-1.47-2.17-1.47-1.34 0-2.1.53-2.1 1.5 0 .81.45 1.22 1.52 1.44l1.04.2c.56.11.87.24.87.72 0 .52-.45.78-1.28.78-.95 0-1.36-.28-1.42-.87l-.9.06C1.07-.36 1.8.16 3.35.16zm0 0"/></symbol><symbol overflow="visible" id="59a853caE"><path d="M1.45-2.95c0 2.56 1.08 4.37 3.67 4.84l.11-.67C3.28.86 2.43-.75 2.43-2.95s.85-3.82 2.8-4.16l-.1-.69c-2.6.49-3.68 2.3-3.68 4.85zm0 0"/></symbol><symbol overflow="visible" id="59a853caF"><path d="M1.45-7.1c1.96.33 2.8 1.94 2.8 4.15 0 2.2-.84 3.8-2.8 4.17l.11.67c2.58-.47 3.67-2.28 3.67-4.84 0-2.55-1.09-4.36-3.67-4.85zm0 0"/></symbol></defs><g fill="#515151"><use xlink:href="#59a853caa" x="61.24" y="164"/><use xlink:href="#59a853cab" x="104.92" y="164"/></g><use xlink:href="#59a853cac" x="145.16" y="164" fill="#fff"/><g fill="#515151"><use xlink:href="#59a853cad" x="229.88" y="164"/><use xlink:href="#59a853cae" x="270.12" y="164"/><use xlink:href="#59a853caf" x="313.8" y="164"/><use xlink:href="#59a853cag" x="333.16" y="164"/></g><use xlink:href="#59a853cah" x="375.8" y="164" fill="#fff"/><g fill="#515151"><use xlink:href="#59a853cai" x="460.52" y="164"/><use xlink:href="#59a853cad" x="498.52" y="164"/></g><g fill="#fff"><use xlink:href="#59a853caj" x="233.3333" y="252"/><use xlink:href="#59a853cak" x="240.0003" y="252"/><use xlink:href="#59a853cal" x="246.6673" y="252"/><use xlink:href="#59a853cam" x="253.3343" y="252"/><use xlink:href="#59a853can" x="260.0013" y="252"/><use xlink:href="#59a853cao" x="266.6683" y="252"/><use xlink:href="#59a853cap" x="273.3353" y="252"/><use xlink:href="#59a853caq" x="280.0023" y="252"/><use xlink:href="#59a853car" x="286.6693" y="252"/><use xlink:href="#59a853car" x="293.3363" y="252"/><use xlink:href="#59a853cas" x="300.0033" y="252"/><use xlink:href="#59a853cak" x="306.6703" y="252"/><use xlink:href="#59a853cat" x="313.3373" y="252"/><use xlink:href="#59a853cao" x="320.0043" y="252"/><use xlink:href="#59a853cau" x="326.6713" y="252"/><use xlink:href="#59a853car" x="333.3383" y="252"/><use xlink:href="#59a853car" x="340.0053" y="252"/><use xlink:href="#59a853cav" x="346.6723" y="252"/><use xlink:href="#59a853caw" x="353.3393" y="252"/><use xlink:href="#59a853cak" x="360.0063" y="252"/></g><g fill="#fff"><use xlink:href="#59a853cax" x="186.6667" y="266"/><use xlink:href="#59a853cak" x="193.3337" y="266"/><use xlink:href="#59a853caq" x="200.0007" y="266"/><use xlink:href="#59a853cam" x="206.6677" y="266"/><use xlink:href="#59a853cay" x="213.3347" y="266"/><use xlink:href="#59a853caz" x="220.0017" y="266"/><use xlink:href="#59a853cak" x="226.6687" y="266"/><use xlink:href="#59a853can" x="233.3357" y="266"/><use xlink:href="#59a853cao" x="240.0027" y="266"/><use xlink:href="#59a853caA" x="246.6697" y="266"/><use xlink:href="#59a853cam" x="253.3367" y="266"/><use xlink:href="#59a853caq" x="260.0037" y="266"/><use xlink:href="#59a853caB" x="266.6707" y="266"/><use xlink:href="#59a853cat" x="273.3377" y="266"/><use xlink:href="#59a853caq" x="280.0047" y="266"/><use xlink:href="#59a853caz" x="286.6717" y="266"/><use xlink:href="#59a853cat" x="293.3387" y="266"/><use xlink:href="#59a853cao" x="300.0057" y="266"/><use xlink:href="#59a853cas" x="306.6727" y="266"/><use xlink:href="#59a853cav" x="313.3397" y="266"/><use xlink:href="#59a853caC" x="320.0067" y="266"/><use xlink:href="#59a853caq" x="326.6737" y="266"/><use xlink:href="#59a853cam" x="333.3407" y="266"/><use xlink:href="#59a853cay" x="340.0077" y="266"/><use xlink:href="#59a853caz" x="346.6747" y="266"/><use xlink:href="#59a853cak" x="353.3417" y="266"/><use xlink:href="#59a853caD" x="360.0087" y="266"/><use xlink:href="#59a853cao" x="366.6757" y="266"/><use xlink:href="#59a853caE" x="373.3427" y="266"/><use xlink:href="#59a853cas" x="380.0097" y="266"/><use xlink:href="#59a853cav" x="386.6767" y="266"/><use xlink:href="#59a853caC" x="393.3437" y="266"/><use xlink:href="#59a853caq" x="400.0107" y="266"/><use xlink:href="#59a853caF" x="406.6777" y="266"/></g></svg>