<?xml version='1.0' encoding='UTF-8'?>
<svg xmlns="http://www.w3.org/2000/svg" xmlns:xlink="http://www.w3.org/1999/xlink" width="600px" height="300px" viewBox="0 0 600 300" x="0px" y="0px" enable-background="new 0 0 600 300"><defs><symbol overflow="visible" id="954fcf8da"><path d="M16-2.95C16-1.05 17.52.4 19.36.4a3.35 3.35 0 003.44-3.36v-44.33h11.28c1.6 0 2.97-1.36 2.97-3.03a3 3 0 00-2.97-2.97H4.72a3 3 0 000 6H16zm0 0"/></symbol><symbol overflow="visible" id="954fcf8db"><path d="M4.4-19.28C4.4-7.84 10.49.8 21.53.8c11.12 0 17.12-8.64 17.12-20.08 0-11.6-6.16-20.16-17.12-20.16-10.88 0-17.11 8.56-17.11 20.16zM21.53-4.8c-6.57 0-10.4-6-10.4-14.48 0-8.72 3.83-14.64 10.4-14.64 6.56 0 10.4 5.92 10.4 14.64 0 8.48-3.84 14.48-10.4 14.48zm0 0"/></symbol><symbol overflow="visible" id="954fcf8dc"><path d="M10.08-33.05v20.9C10.08-4.88 14 .8 21.68.8c1.76 0 5.04-.4 7.37-1.85 1.1-.8 1.6-1.67 1.6-2.72 0-1.67-1.21-2.71-2.65-2.71-1.52 0-2.56 1.6-5.52 1.6-3.2 0-5.68-1.68-5.68-7.2v-20.97h9.68c1.6 0 2.8-1.18 2.8-2.72a2.8 2.8 0 00-2.8-2.87H16.8v-8.72a3.28 3.28 0 00-3.36-3.36 3.28 3.28 0 00-3.36 3.36v8.72h-5.6a2.8 2.8 0 00-2.8 2.87 2.7 2.7 0 002.8 2.72zm0 0"/></symbol><symbol overflow="visible" id="954fcf8dd"><path d="M27.13-8.95C23.84-6 20-4.8 17.27-4.8c-4.56 0-7.2-2.33-7.2-6.25 0-4 2.87-6.15 8.48-6.15h8.57zm0-13.05H18.3c-9.26 0-14.8 4.16-14.8 11.36C3.52-3.7 8.42.8 15.93.8 21.05.8 25.28-1.6 28-4.16l.56 2.32A2.93 2.93 0 0031.6.4c2 0 3.05-1.36 3.05-2.97 0-1.44-.8-2.96-.8-7.52v-15.76c0-6.88-3.36-13.6-14.64-13.6-3.04 0-7.68.64-10.56 2.08-1.52.8-2.33 1.6-2.33 2.8 0 1.36.97 2.72 2.82 2.72 1.03 0 2.3-.57 3.67-.96a18.88 18.88 0 015.84-1.12c6.48 0 8.48 3.6 8.48 8.08zm0 0"/></symbol><symbol overflow="visible" id="954fcf8de"><path d="M1.36-2.8c0 1.52 1.2 2.8 2.72 2.8H24.8c1.6 0 2.8-1.28 2.8-2.8a2.8 2.8 0 00-2.8-2.89h-6.96V-54a2.92 2.92 0 00-2.89-2.88H4.31A2.8 2.8 0 001.51-54c0 1.52 1.2 2.8 2.8 2.8h6.82V-5.7H4.08c-1.52 0-2.72 1.28-2.72 2.9zm0 0"/></symbol><symbol overflow="visible" id="954fcf8df"><path d="M10.48-26.56c2.64 0 4.8-2.08 4.8-4.72a4.8 4.8 0 00-4.8-4.8 4.8 4.8 0 00-4.71 4.8 4.72 4.72 0 004.71 4.72zM5.77-4.8a4.72 4.72 0 004.71 4.72A4.76 4.76 0 105.76-4.8zm0 0"/></symbol><symbol overflow="visible" id="954fcf8dh"><path d="M22.16.8c9.12 0 16.8-5.28 16.8-14.49 0-6.23-4.24-10.08-10.4-13.44 4.8-3.1 8.4-7.67 8.4-13.1 0-6.72-5.27-12.18-14.48-12.18-9.28 0-14.8 5.53-14.8 13.05 0 5.6 3.12 9.28 8 12.16-5.76 3.43-9.76 7.84-9.76 14 0 8.25 6.8 14 16.24 14zM14.4-39.7c0-4.23 3.28-7.03 7.82-7.03 4.64 0 8.08 2.88 8.08 7.36 0 4.08-2.87 7.6-6.39 9.84-5.05-2.64-9.51-5.53-9.51-10.17zm7.9 34.9c-5.1 0-9.75-3.29-9.75-8.9 0-4.72 3.36-8.08 7.85-10.95 6.54 3.36 11.67 6.08 11.67 11.28 0 5.52-4.8 8.56-9.77 8.56zm0 0"/></symbol><symbol overflow="visible" id="954fcf8di"><path d="M7.13 9.69a3 3 0 002.95 2.95c1.6 0 2.87-1.36 2.87-2.95V-61.7c0-1.6-1.26-2.95-2.87-2.95a3 3 0 00-2.96 2.95zm0 0"/></symbol><symbol overflow="visible" id="954fcf8dj"><path d="M16.88-45.6h16.17c1.6 0 2.95-1.35 2.95-3.04 0-1.6-1.28-2.95-2.95-2.95H13.92c-1.6 0-2.8 1.18-2.97 2.64L8.41-30.48c-.18.71-.33 2.07-.33 2.71 0 2 1.36 3.46 3.36 3.46.48 0 1.2-.17 1.84-.33 2.49-.72 5.03-1.36 7.28-1.36 6.88 0 11.13 3.69 11.13 10.16 0 6.96-5.38 10.71-10.9 10.71-3.66 0-6.38-1.03-8.79-2.15-.95-.4-1.84-1.03-2.88-1.03a2.97 2.97 0 00-2.96 3.03c0 1.6 1.2 2.48 2.4 3.12C12-.3 17.2.8 21.05.8 30.3.8 38.4-5.6 38.4-15.84c0-9.68-6.41-16-17.13-16-2 0-4.4.25-6.4.96zm0 0"/></symbol><symbol overflow="visible" id="954fcf8dk"><path d="M8.16-2.95A3 3 0 0011.12 0h24.65a3.02 3.02 0 003.03-2.95A3.04 3.04 0 0035.77-6h-8.33v-42.8a3.26 3.26 0 00-3.36-3.28h-.88a7.8 7.8 0 00-3.28.8l-9.6 4.72a2.9 2.9 0 00-1.76 2.64c0 1.6 1.28 2.97 2.96 2.97.4 0 .89-.17 1.2-.25l8-3.85V-6h-9.6a3.03 3.03 0 00-2.96 3.05zm0 0"/></symbol><symbol overflow="visible" id="954fcf8dl"><path d="M13.2-28.08c.96-9.44 5.75-16.97 18.96-18.08 1.76-.25 3.12-1.2 3.12-3.12 0-1.84-1.44-3.03-3.2-3.03-1.36 0-2.88.15-4.31.39C11.44-49.2 6.3-36.23 6.3-23.2 6.31-8.8 12 .8 23.84.8c9.6 0 15.75-7.67 15.75-16.72 0-10.64-6.3-16.49-14.87-16.49a18.5 18.5 0 00-11.52 4.33zm-.15 5.52c3.18-2.96 7.26-4.32 10.23-4.32 6.08 0 9.6 3.93 9.6 10.72 0 6.24-3.68 11.04-9.04 11.04-7.68 0-10.8-6.88-10.8-17.44zm0 0"/></symbol><symbol overflow="visible" id="954fcf8dm"><path d="M3.83 0v-5.95H6.2v-.82H.45v.82h2.4V0zm0 0"/></symbol><symbol overflow="visible" id="954fcf8dn"><path d="M5.75-2.23v-.43c0-1.6-.9-2.51-2.42-2.51S.87-4.16.87-2.48c0 1.71.91 2.62 2.5 2.62 1.43 0 2.07-.56 2.29-1.52l-.9-.09c-.18.61-.59.9-1.35.9-.94 0-1.52-.54-1.58-1.66zm-2.4-2.2c.93 0 1.43.5 1.48 1.55H1.84c.08-1.07.6-1.56 1.5-1.56zm0 0"/></symbol><symbol overflow="visible" id="954fcf8do"><path d="M1.83 0l1.42-2h.06l1.46 2H5.8L4-2.53l1.78-2.49H4.8L3.42-3.08h-.08l-1.4-1.94H.89l1.78 2.49L.84 0zm0 0"/></symbol><symbol overflow="visible" id="954fcf8dp"><path d="M5.52-4.25v-.77H3.17v-1.56h-.81l-.14 1.56H.75v.77h1.47v2.4c0 1.3.48 1.94 1.84 1.94C4.6.1 5.14 0 5.55-.14L5.4-.91c-.32.13-.72.2-1.13.2-.8 0-1.1-.37-1.1-1.23v-2.31zm0 0"/></symbol><symbol overflow="visible" id="954fcf8dq"><path d="M3.33-3.42c.47 0 .8-.27.8-.8 0-.51-.33-.8-.8-.8-.47 0-.8.29-.8.8 0 .53.33.8.8.8zm0 3.5c.47 0 .8-.27.8-.78 0-.53-.33-.82-.8-.82-.47 0-.8.29-.8.82 0 .51.33.78.8.78zm0 0"/></symbol><symbol overflow="visible" id="954fcf8ds"><path d="M3.33.14c1.62 0 2.5-.95 2.5-2.66 0-1.68-.88-2.64-2.5-2.64-1.63 0-2.5.96-2.5 2.64 0 1.7.87 2.66 2.5 2.66zm0-.77c-1.06 0-1.52-.6-1.52-1.89 0-1.28.46-1.87 1.52-1.87 1.08 0 1.53.6 1.53 1.87 0 1.29-.45 1.9-1.53 1.9zm0 0"/></symbol><symbol overflow="visible" id="954fcf8dt"><path d="M2.83.14c.94 0 1.5-.39 1.81-.95h.08l.1.81h.76v-3.38c0-1.23-.69-1.8-2.13-1.8-1.43 0-2.03.65-2.18 1.6l.93.1c.11-.6.44-.93 1.22-.93.85 0 1.22.32 1.22 1.04v.34l-1.81.2C1.6-2.7 1.1-2.17 1.1-1.28c0 .92.64 1.42 1.72 1.42zm.25-.77c-.67 0-1.02-.28-1.02-.74 0-.44.28-.72 1-.82l1.58-.19v.41c0 .8-.6 1.34-1.56 1.34zm0 0"/></symbol><symbol overflow="visible" id="954fcf8du"><path d="M3.92-7.14H1.36v.76h1.6v5.61H1.15V0H5.7v-.77H3.92zm0 0"/></symbol><symbol overflow="visible" id="954fcf8dv"><path d="M3.33.16c1.69 0 2.69-.74 2.69-1.94 0-1.05-.8-1.58-1.43-1.72v-.05c.5-.14 1.2-.58 1.2-1.56 0-1.12-.95-1.81-2.46-1.81-1.52 0-2.46.69-2.46 1.81 0 .97.68 1.4 1.18 1.56v.05c-.6.14-1.4.64-1.4 1.72 0 1.2 1 1.94 2.68 1.94zm0-4.04c-.97 0-1.49-.43-1.49-1.12 0-.78.52-1.1 1.49-1.1.95 0 1.48.32 1.48 1.1 0 .69-.53 1.13-1.48 1.13zm0 3.24c-1.1 0-1.7-.42-1.7-1.25 0-.78.6-1.2 1.7-1.2s1.7.42 1.7 1.2c0 .83-.6 1.25-1.7 1.25zm0 0"/></symbol><symbol overflow="visible" id="954fcf8dw"><path d="M3.42.14c1.55 0 2.44-.84 2.44-2.33 0-1.45-.83-2.22-2.14-2.22-.75 0-1.28.27-1.67.72H2l.31-2.22h3.11v-.86H1.53l-.45 3.93h.81c.3-.36.9-.79 1.58-.79.92 0 1.44.43 1.44 1.47 0 .99-.54 1.5-1.49 1.5-.83 0-1.28-.32-1.5-1.01l-.95.1C1.07-.46 2 .13 3.42.13zm0 0"/></symbol><symbol overflow="visible" id="954fcf8dx"><path d="M4.22-6.77h-.86l-2.03.7v.87c.64-.17 1.26-.38 1.89-.55v4.9H1.03V0h4.9v-.86H4.21zm0 0"/></symbol><symbol overflow="visible" id="954fcf8dy"><path d="M3.42.14c1.58 0 2.49-.86 2.49-2.3 0-1.42-.86-2.17-2.22-2.17-1.03 0-1.58.5-1.9 1.02h-.04c.03-1.63.4-2.77 1.73-2.77.91 0 1.24.44 1.36.96l.97-.11c-.23-.96-.86-1.68-2.33-1.68C1.84-6.9.86-5.86.86-3.1.86-.9 1.78.14 3.42.14zm.02-.78c-.9 0-1.47-.55-1.47-1.47 0-.9.7-1.47 1.53-1.47.92 0 1.47.52 1.47 1.47 0 .97-.6 1.47-1.53 1.47zm0 0"/></symbol><symbol overflow="visible" id="954fcf8dz"><path d="M5.95-6.77H1.1V0h.99v-2.92H5.3v-.77H2.08v-2.26h3.87zm0 0"/></symbol><symbol overflow="visible" id="954fcf8dA"><path d="M2.73.14c.9 0 1.43-.45 1.74-1.08h.06l.13.94h.8v-5.02h-.94v2.7c0 .98-.57 1.62-1.46 1.62-.75 0-1.1-.4-1.1-1.22v-3.1h-.93v3.32c0 1.17.55 1.84 1.7 1.84zm0 0"/></symbol><symbol overflow="visible" id="954fcf8dB"><path d="M5.08-5.16c-.94 0-1.58.43-1.9 1.3h-.09l-.07-1.16H1.05v.77h1.1v3.48H.96V0h3.96v-.77H3.1v-1.46c0-1.36.6-2.05 1.83-2.05.4 0 .76.08 1.1.17l.15-.87c-.33-.11-.7-.18-1.11-.18zm0 0"/></symbol><symbol overflow="visible" id="954fcf8dC"><path d="M3.9.14c1.48 0 2.18-.98 2.18-2.64 0-1.67-.7-2.66-2.17-2.66-.91 0-1.49.41-1.79 1h-.06v-2.98h-.95V0h.81l.11-.9h.06c.29.63.82 1.04 1.82 1.04zm-.32-.8c-1.08 0-1.55-.8-1.55-1.84 0-1.06.47-1.86 1.55-1.86 1.1 0 1.51.61 1.51 1.86S4.64-.66 3.58-.66zm0 0"/></symbol><symbol overflow="visible" id="954fcf8dD"><path d="M3.58-5.81c.42 0 .72-.22.72-.67 0-.44-.3-.68-.72-.68-.44 0-.72.24-.72.68 0 .45.28.67.72.67zm.5.8H1.52v.76h1.6v3.48h-1.8V0h4.46v-.77h-1.7zm0 0"/></symbol><symbol overflow="visible" id="954fcf8dE"><path d="M2.16 0v-2.67c0-.99.59-1.63 1.46-1.63.74 0 1.07.38 1.07 1.22V0h.95v-3.31c0-1.2-.56-1.85-1.67-1.85-.92 0-1.49.46-1.77 1.08h-.06l-.12-.94H1.2V0zm0 0"/></symbol><symbol overflow="visible" id="954fcf8dF"><path d="M3.16 2.03c1.67 0 2.4-.86 2.4-2.51v-4.54h-.81l-.13.91h-.06c-.26-.58-.8-1.05-1.73-1.05-1.42 0-2.24 1-2.24 2.52 0 1.6.75 2.56 2.2 2.56.94 0 1.5-.5 1.77-1.03h.05v.72c0 1.17-.42 1.67-1.45 1.67-.93 0-1.3-.34-1.41-.89L.8.5c.12.96.87 1.54 2.36 1.54zM3.06-.8c-.98 0-1.48-.57-1.48-1.82 0-1.13.5-1.75 1.48-1.75 1.06 0 1.58.76 1.58 1.75 0 .95-.56 1.82-1.58 1.82zm0 0"/></symbol><symbol overflow="visible" id="954fcf8dG"><path d="M1.63 0v-2.9c0-.8.15-1.4.71-1.4.41 0 .55.3.55.88V0h.95v-2.9c0-.8.18-1.4.72-1.4.4 0 .57.3.57.88V0h.95v-3.63c0-.92-.28-1.53-1.11-1.53-.63 0-.95.41-1.1.9h-.06c-.1-.52-.44-.9-1.08-.9-.6 0-.93.41-1.06.9H1.6l-.23-.76H.67V0zm0 0"/></symbol><symbol overflow="visible" id="954fcf8dH"><path d="M3.36.16c1.4 0 2.2-.6 2.2-1.57 0-.89-.54-1.22-1.47-1.39L3-3c-.67-.14-.86-.33-.86-.73 0-.5.4-.74 1.17-.74.83 0 1.19.27 1.27.8l.9-.05c-.12-1-.8-1.47-2.17-1.47-1.34 0-2.1.53-2.1 1.5 0 .81.45 1.22 1.52 1.44l1.04.2c.56.11.87.24.87.72 0 .52-.45.78-1.28.78-.95 0-1.36-.28-1.42-.87l-.9.06C1.07-.36 1.8.16 3.35.16zm0 0"/></symbol><symbol overflow="visible" id="954fcf8dI"><path d="M1.45-2.95c0 2.56 1.08 4.37 3.67 4.84l.11-.67C3.28.86 2.43-.75 2.43-2.95s.85-3.82 2.8-4.16l-.1-.69c-2.6.49-3.68 2.3-3.68 4.85zm0 0"/></symbol><symbol overflow="visible" id="954fcf8dJ"><path d="M1.45-7.1c1.96.33 2.8 1.94 2.8 4.15 0 2.2-.84 3.8-2.8 4.17l.11.67c2.58-.47 3.67-2.28 3.67-4.84 0-2.55-1.09-4.36-3.67-4.85zm0 0"/></symbol></defs><use xlink:href="#954fcf8da" x="71.04" y="164" fill="#515151"/><use xlink:href="#954fcf8db" x="105.04" y="164" fill="#515151"/><g fill="#515151"><use xlink:href="#954fcf8dc" x="147.28" y="164"/><use xlink:href="#954fcf8dd" x="179.84" y="164"/><use xlink:href="#954fcf8de" x="220.08" y="164"/><use xlink:href="#954fcf8df" x="249.04" y="164"/><use xlink:href="#954fcf8dg" x="270.16" y="164"/></g><use xlink:href="#954fcf8dh" x="289.52" y="164" fill="#fff"/><use xlink:href="#954fcf8di" x="334.32" y="164" fill="#515151"/><use xlink:href="#954fcf8dj" x="354.4" y="164" fill="#fff"/><use xlink:href="#954fcf8di" x="399.2" y="164" fill="#515151"/><use xlink:href="#954fcf8dk" x="419.28" y="164" fill="#fff"/><use xlink:href="#954fcf8di" x="464.08" y="164" fill="#515151"/><use xlink:href="#954fcf8dl" x="484.16" y="164" fill="#fff"/><g fill="#fff"><use xlink:href="#954fcf8dm" x="243.3333" y="252"/><use xlink:href="#954fcf8dn" x="250.0003" y="252"/><use xlink:href="#954fcf8do" x="256.6673" y="252"/><use xlink:href="#954fcf8dp" x="263.3343" y="252"/><use xlink:href="#954fcf8dq" x="270.0013" y="252"/><use xlink:href="#954fcf8dr" x="276.6683" y="252"/><use xlink:href="#954fcf8dm" x="283.3353" y="252"/><use xlink:href="#954fcf8ds" x="290.0023" y="252"/><use xlink:href="#954fcf8dp" x="296.6693" y="252"/><use xlink:href="#954fcf8dt" x="303.3363" y="252"/><use xlink:href="#954fcf8du" x="310.0033" y="252"/><use xlink:href="#954fcf8dq" x="316.6703" y="252"/><use xlink:href="#954fcf8dr" x="323.3373" y="252"/><use xlink:href="#954fcf8dv" x="330.0043" y="252"/><use xlink:href="#954fcf8dw" x="336.6713" y="252"/><use xlink:href="#954fcf8dx" x="343.3383" y="252"/><use xlink:href="#954fcf8dy" x="350.0053" y="252"/></g><g fill="#fff"><use xlink:href="#954fcf8dz" x="170" y="266"/><use xlink:href="#954fcf8dn" x="176.667" y="266"/><use xlink:href="#954fcf8dt" x="183.334" y="266"/><use xlink:href="#954fcf8dp" x="190.001" y="266"/><use xlink:href="#954fcf8dA" x="196.668" y="266"/><use xlink:href="#954fcf8dB" x="203.335" y="266"/><use xlink:href="#954fcf8dn" x="210.002" y="266"/><use xlink:href="#954fcf8dq" x="216.669" y="266"/><use xlink:href="#954fcf8dr" x="223.336" y="266"/><use xlink:href="#954fcf8dm" x="230.003" y="266"/><use xlink:href="#954fcf8dt" x="236.67" y="266"/><use xlink:href="#954fcf8dC" x="243.337" y="266"/><use xlink:href="#954fcf8dA" x="250.004" y="266"/><use xlink:href="#954fcf8du" x="256.671" y="266"/><use xlink:href="#954fcf8dt" x="263.338" y="266"/><use xlink:href="#954fcf8dB" x="270.005" y="266"/><use xlink:href="#954fcf8dr" x="276.672" y="266"/><use xlink:href="#954fcf8du" x="283.339" y="266"/><use xlink:href="#954fcf8dD" x="290.006" y="266"/><use xlink:href="#954fcf8dE" x="296.673" y="266"/><use xlink:href="#954fcf8dD" x="303.34" y="266"/><use xlink:href="#954fcf8dE" x="310.007" y="266"/><use xlink:href="#954fcf8dF" x="316.674" y="266"/><use xlink:href="#954fcf8dr" x="323.341" y="266"/><use xlink:href="#954fcf8dE" x="330.008" y="266"/><use xlink:href="#954fcf8dA" x="336.675" y="266"/><use xlink:href="#954fcf8dG" x="343.342" y="266"/><use xlink:href="#954fcf8dn" x="350.009" y="266"/><use xlink:href="#954fcf8dB" x="356.676" y="266"/><use xlink:href="#954fcf8dt" x="363.343" y="266"/><use xlink:href="#954fcf8du" x="370.01" y="266"/><use xlink:href="#954fcf8dH" x="376.677" y="266"/><use xlink:href="#954fcf8dr" x="383.344" y="266"/><use xlink:href="#954fcf8dI" x="390.011" y="266"/><use xlink:href="#954fcf8dp" x="396.678" y="266"/><use xlink:href="#954fcf8dE" x="403.345" y="266"/><use xlink:href="#954fcf8dA" x="410.012" y="266"/><use xlink:href="#954fcf8dG" x="416.679" y="266"/><use xlink:href="#954fcf8dJ" x="423.346" y="266"/></g></svg>