<?xml version='1.0' encoding='UTF-8'?>
<svg xmlns="http://www.w3.org/2000/svg" xmlns:xlink="http://www.w3.org/1999/xlink" width="600px" height="300px" viewBox="0 0 600 300" x="0px" y="0px" enable-background="new 0 0 600 300"><defs><symbol overflow="visible" id="057ea327a"><path d="M4.31-18.56C4.31-7.92 10.48.8 21.44.8 32.4.8 38.56-7.84 38.56-18.56c0-11.28-6.87-16.24-13.69-19.67-6.3-3.2-11.82-4.65-11.82-8.49 0-3.05 3.43-3.6 7.43-3.69 4.24-.07 10.96-.3 14-1.82 1.29-.57 2.08-1.54 2.08-2.9 0-1.82-1.44-3.03-3.12-3.03-.88 0-2.08.47-2.88.72-3.12 1.03-6 1.13-10.08 1.28-8.25.08-14.17 2.57-14.17 8.8 0 4.95 3.53 7.84 9.13 10.95C8-32.95 4.3-26.8 4.3-18.56zM21.44-4.8c-6.72 0-10.4-6.15-10.4-13.76 0-7.52 3.6-12.24 10-14.88 7.68 4.08 10.8 7.28 10.8 14.64 0 7.93-3.76 14-10.4 14zm0 0"/></symbol><symbol overflow="visible" id="057ea327b"><path d="M13.13-33.05h12.71l.57 5.05c.23 1.92 1.36 3.13 3.03 3.13 1.68 0 3.28-1.05 3.12-3.7l-.48-6.3c-.16-2.49-1.36-3.77-4.16-3.77H9.77a3.28 3.28 0 00-3.36 3.36v32.33C6.4-1.05 7.84.4 9.77.4a3.34 3.34 0 003.36-3.36zm0 0"/></symbol><symbol overflow="visible" id="057ea327c"><path d="M8.4 0h27.76v9.77c0 1.67 1.12 2.95 3.04 2.95 1.67 0 2.88-1.28 2.96-2.95l.48-12.08a3.29 3.29 0 00-3.36-3.38H36.8v-29.6a3.28 3.28 0 00-3.36-3.35H17.2c-1.84 0-3.12 1.44-3.36 3.36l-.64 9.12c-.64 9.52-3.04 16.72-5.76 20.47H5.36A3.34 3.34 0 002-2.3V9.77a2.9 2.9 0 002.95 2.95c1.92 0 2.97-1.28 3.05-2.95zm6.08-5.69c2.72-5.03 4.57-12.08 5.11-19.9l.57-7.46h9.92v27.36zm0 0"/></symbol><symbol overflow="visible" id="057ea327d"><path d="M6.4-2.95C6.4-1.05 7.85.4 9.78.4a3.34 3.34 0 003.36-3.36v-30.1h16.8v30.1c0 1.9 1.43 3.36 3.35 3.36a3.33 3.33 0 003.36-3.36v-32.33a3.32 3.32 0 00-3.36-3.36H9.77a3.28 3.28 0 00-3.36 3.36zm0 0"/></symbol><symbol overflow="visible" id="057ea327e"><path d="M13.6-32.64v29.69c0 1.9 1.53 3.36 3.35 3.36a3.29 3.29 0 003.36-3.36v-29.7h8.82a3.04 3.04 0 003.03-3.04c0-1.6-1.36-2.95-3.03-2.95H4.8a3 3 0 000 6zm0 0"/></symbol><symbol overflow="visible" id="057ea327f"><path d="M6.4-3.36A3.28 3.28 0 009.78 0h40.39a3.28 3.28 0 003.36-3.36v-32.33c0-1.9-1.44-3.36-3.36-3.36a3.29 3.29 0 00-3.36 3.36v30H33.28v-30c0-1.9-1.44-3.36-3.36-3.36a3.33 3.33 0 00-3.36 3.36v30H13.13v-30c0-1.9-1.54-3.36-3.36-3.36a3.29 3.29 0 00-3.36 3.36zm0 0"/></symbol><symbol overflow="visible" id="057ea327g"><path d="M3.83 0v-5.95H6.2v-.82H.45v.82h2.4V0zm0 0"/></symbol><symbol overflow="visible" id="057ea327h"><path d="M5.75-2.23v-.43c0-1.6-.9-2.51-2.42-2.51S.87-4.16.87-2.48c0 1.71.91 2.62 2.5 2.62 1.43 0 2.07-.56 2.29-1.52l-.9-.09c-.18.61-.59.9-1.35.9-.94 0-1.52-.54-1.58-1.66zm-2.4-2.2c.93 0 1.43.5 1.48 1.55H1.84c.08-1.07.6-1.56 1.5-1.56zm0 0"/></symbol><symbol overflow="visible" id="057ea327i"><path d="M1.83 0l1.42-2h.06l1.46 2H5.8L4-2.53l1.78-2.49H4.8L3.42-3.08h-.08l-1.4-1.94H.89l1.78 2.49L.84 0zm0 0"/></symbol><symbol overflow="visible" id="057ea327j"><path d="M5.52-4.25v-.77H3.17v-1.56h-.81l-.14 1.56H.75v.77h1.47v2.4c0 1.3.48 1.94 1.84 1.94C4.6.1 5.14 0 5.55-.14L5.4-.91c-.32.13-.72.2-1.13.2-.8 0-1.1-.37-1.1-1.23v-2.31zm0 0"/></symbol><symbol overflow="visible" id="057ea327k"><path d="M3.33-3.42c.47 0 .8-.27.8-.8 0-.51-.33-.8-.8-.8-.47 0-.8.29-.8.8 0 .53.33.8.8.8zm0 3.5c.47 0 .8-.27.8-.78 0-.53-.33-.82-.8-.82-.47 0-.8.29-.8.82 0 .51.33.78.8.78zm0 0"/></symbol><symbol overflow="visible" id="057ea327m"><path d="M3.4.14c1.55 0 2.46-.95 2.46-2.62 0-1.65-.83-2.47-2.17-2.47-.96 0-1.63.48-1.9 1.15h-.07c.12-1.56.42-2.14 1.92-2.37.88-.14 1.38-.19 1.86-.25l-.08-.86c-.6.05-1.22.14-1.92.25C1.45-6.7.92-5.7.92-3.03.92-.78 1.87.14 3.4.14zm0-.75c-1 0-1.5-.72-1.5-1.92 0-1.05.6-1.72 1.57-1.72.94 0 1.4.58 1.4 1.78C4.88-1.22 4.4-.6 3.4-.6zm0 0"/></symbol><symbol overflow="visible" id="057ea327n"><path d="M1.44-5.02V0h.95v-4.25h3.22v-.77zm0 0"/></symbol><symbol overflow="visible" id="057ea327o"><path d="M5.36-5.02H1.7a36.7 36.7 0 01-.12 2.44c-.06.9-.27 1.52-.55 1.81h-.6v2.1h.87V0h3.92v1.33h.87v-2.1h-.73zM1.92-.77c.25-.39.4-1.04.46-1.75.04-.46.07-1.12.1-1.75h1.97v3.5zm0 0"/></symbol><symbol overflow="visible" id="057ea327p"><path d="M1.1-5.02V0h.96v-4.22h2.55V0h.95v-5.02zm0 0"/></symbol><symbol overflow="visible" id="057ea327q"><path d="M.95-5.02v.77h1.9V0h.96v-4.25h1.9v-.77zm0 0"/></symbol><symbol overflow="visible" id="057ea327r"><path d="M5.2-.73H3.75v-4.29h-.83v4.29H1.47v-4.29H.64V0h5.4v-5.02H5.2zm0 0"/></symbol><symbol overflow="visible" id="057ea327s"><path d="M5.95-6.77H1.1V0h.99v-2.92H5.3v-.77H2.08v-2.26h3.87zm0 0"/></symbol><symbol overflow="visible" id="057ea327t"><path d="M2.83.14c.94 0 1.5-.39 1.81-.95h.08l.1.81h.76v-3.38c0-1.23-.69-1.8-2.13-1.8-1.43 0-2.03.65-2.18 1.6l.93.1c.11-.6.44-.93 1.22-.93.85 0 1.22.32 1.22 1.04v.34l-1.81.2C1.6-2.7 1.1-2.17 1.1-1.28c0 .92.64 1.42 1.72 1.42zm.25-.77c-.67 0-1.02-.28-1.02-.74 0-.44.28-.72 1-.82l1.58-.19v.41c0 .8-.6 1.34-1.56 1.34zm0 0"/></symbol><symbol overflow="visible" id="057ea327u"><path d="M2.73.14c.9 0 1.43-.45 1.74-1.08h.06l.13.94h.8v-5.02h-.94v2.7c0 .98-.57 1.62-1.46 1.62-.75 0-1.1-.4-1.1-1.22v-3.1h-.93v3.32c0 1.17.55 1.84 1.7 1.84zm0 0"/></symbol><symbol overflow="visible" id="057ea327v"><path d="M5.08-5.16c-.94 0-1.58.43-1.9 1.3h-.09l-.07-1.16H1.05v.77h1.1v3.48H.96V0h3.96v-.77H3.1v-1.46c0-1.36.6-2.05 1.83-2.05.4 0 .76.08 1.1.17l.15-.87c-.33-.11-.7-.18-1.11-.18zm0 0"/></symbol><symbol overflow="visible" id="057ea327w"><path d="M3.42.14c1.61 0 2.56-.75 2.56-2 0-1.1-.67-1.6-1.95-1.86l-.97-.2c-.87-.17-1.23-.49-1.23-1.11 0-.7.54-1.11 1.5-1.11 1.06 0 1.51.34 1.69 1.23l.9-.09c-.17-1.28-.98-1.9-2.6-1.9C1.79-6.9.9-6.18.9-4.98c0 1.06.66 1.66 1.88 1.9l1.01.2c.85.17 1.25.4 1.25 1.09 0 .73-.6 1.16-1.6 1.16-1.07 0-1.66-.4-1.8-1.24l-.94.1C.83-.53 1.75.13 3.42.13zm0 0"/></symbol><symbol overflow="visible" id="057ea327x"><path d="M3.9.14c1.48 0 2.18-.98 2.18-2.64 0-1.67-.7-2.66-2.17-2.66-.91 0-1.49.41-1.79 1h-.06v-2.98h-.95V0h.81l.11-.9h.06c.29.63.82 1.04 1.82 1.04zm-.32-.8c-1.08 0-1.55-.8-1.55-1.84 0-1.06.47-1.86 1.55-1.86 1.1 0 1.51.61 1.51 1.86S4.64-.66 3.58-.66zm0 0"/></symbol><symbol overflow="visible" id="057ea327y"><path d="M3.58-5.81c.42 0 .72-.22.72-.67 0-.44-.3-.68-.72-.68-.44 0-.72.24-.72.68 0 .45.28.67.72.67zm.5.8H1.52v.76h1.6v3.48h-1.8V0h4.46v-.77h-1.7zm0 0"/></symbol><symbol overflow="visible" id="057ea327z"><path d="M2.16 0v-2.67c0-.99.59-1.63 1.46-1.63.74 0 1.07.38 1.07 1.22V0h.95v-3.31c0-1.2-.56-1.85-1.67-1.85-.92 0-1.49.46-1.77 1.08h-.06l-.12-.94H1.2V0zm0 0"/></symbol><symbol overflow="visible" id="057ea327A"><path d="M2.58.95l2.39-8.67h-.9L1.7.95zm0 0"/></symbol><symbol overflow="visible" id="057ea327B"><path d="M1.64 0v-3.17l-.16-2.5h.1L2.9-1.83h.82l1.35-3.84h.1l-.16 2.5V0h.95v-6.77h-1.3l-1.3 3.82h-.09L2-6.77H.69V0zm0 0"/></symbol><symbol overflow="visible" id="057ea327C"><path d="M3.34.14c1.43 0 2.13-.66 2.25-1.78l-.89-.1c-.1.7-.5 1.08-1.34 1.08-1.03 0-1.52-.64-1.52-1.84 0-1.23.47-1.86 1.52-1.86.84 0 1.23.36 1.34 1.08l.9-.1c-.13-1.09-.82-1.78-2.26-1.78-1.56 0-2.46.97-2.46 2.66 0 1.66.9 2.64 2.46 2.64zm0 0"/></symbol><symbol overflow="visible" id="057ea327D"><path d="M2.84.14C3.8.14 4.33-.26 4.6-.9h.07L4.8 0h.76v-7.14h-.95v2.95h-.08c-.28-.6-.86-.97-1.67-.97-1.48 0-2.27.99-2.27 2.64C.6-.84 1.36.14 2.84.14zm.22-.8c-.98 0-1.48-.59-1.48-1.84s.5-1.86 1.48-1.86c1.13 0 1.58.8 1.58 1.86S4.2-.66 3.06-.66zm0 0"/></symbol><symbol overflow="visible" id="057ea327E"><path d="M3.33.14c1.62 0 2.5-.95 2.5-2.66 0-1.68-.88-2.64-2.5-2.64-1.63 0-2.5.96-2.5 2.64 0 1.7.87 2.66 2.5 2.66zm0-.77c-1.06 0-1.52-.6-1.52-1.89 0-1.28.46-1.87 1.52-1.87 1.08 0 1.53.6 1.53 1.87 0 1.29-.45 1.9-1.53 1.9zm0 0"/></symbol><symbol overflow="visible" id="057ea327F"><path d="M4.63-6.5c.45 0 .98.08 1.39.2l.2-.72a5.3 5.3 0 00-1.64-.26c-1.52 0-2.16.56-2.16 1.87v.4H.9v.76h1.53V0h.94v-4.25h2.53v-.77H3.36v-.3c0-.84.33-1.18 1.27-1.18zm0 0"/></symbol><symbol overflow="visible" id="057ea327G"><path d="M1.63 0v-2.9c0-.8.15-1.4.71-1.4.41 0 .55.3.55.88V0h.95v-2.9c0-.8.18-1.4.72-1.4.4 0 .57.3.57.88V0h.95v-3.63c0-.92-.28-1.53-1.11-1.53-.63 0-.95.41-1.1.9h-.06c-.1-.52-.44-.9-1.08-.9-.6 0-.93.41-1.06.9H1.6l-.23-.76H.67V0zm0 0"/></symbol><symbol overflow="visible" id="057ea327H"><path d="M3.36.16c1.4 0 2.2-.6 2.2-1.57 0-.89-.54-1.22-1.47-1.39L3-3c-.67-.14-.86-.33-.86-.73 0-.5.4-.74 1.17-.74.83 0 1.19.27 1.27.8l.9-.05c-.12-1-.8-1.47-2.17-1.47-1.34 0-2.1.53-2.1 1.5 0 .81.45 1.22 1.52 1.44l1.04.2c.56.11.87.24.87.72 0 .52-.45.78-1.28.78-.95 0-1.36-.28-1.42-.87l-.9.06C1.07-.36 1.8.16 3.35.16zm0 0"/></symbol><symbol overflow="visible" id="057ea327I"><path d="M1.45-2.95c0 2.56 1.08 4.37 3.67 4.84l.11-.67C3.28.86 2.43-.75 2.43-2.95s.85-3.82 2.8-4.16l-.1-.69c-2.6.49-3.68 2.3-3.68 4.85zm0 0"/></symbol><symbol overflow="visible" id="057ea327J"><path d="M3.92-7.14H1.36v.76h1.6v5.61H1.15V0H5.7v-.77H3.92zm0 0"/></symbol><symbol overflow="visible" id="057ea327K"><path d="M3.16 2.03c1.67 0 2.4-.86 2.4-2.51v-4.54h-.81l-.13.91h-.06c-.26-.58-.8-1.05-1.73-1.05-1.42 0-2.24 1-2.24 2.52 0 1.6.75 2.56 2.2 2.56.94 0 1.5-.5 1.77-1.03h.05v.72c0 1.17-.42 1.67-1.45 1.67-.93 0-1.3-.34-1.41-.89L.8.5c.12.96.87 1.54 2.36 1.54zM3.06-.8c-.98 0-1.48-.57-1.48-1.82 0-1.13.5-1.75 1.48-1.75 1.06 0 1.58.76 1.58 1.75 0 .95-.56 1.82-1.58 1.82zm0 0"/></symbol><symbol overflow="visible" id="057ea327L"><path d="M3.33.14c1.65 0 2.6-1.1 2.6-3.52S4.99-6.9 3.34-6.9C1.67-6.9.72-5.8.72-3.37c0 2.4.95 3.51 2.6 3.51zm0-.84c-1.13 0-1.6-.85-1.6-2.67 0-1.86.47-2.7 1.6-2.7 1.12 0 1.6.84 1.6 2.7 0 1.82-.48 2.67-1.6 2.67zM3.3-2.64c.38 0 .56-.28.56-.72 0-.44-.18-.7-.56-.7-.39 0-.56.26-.56.7 0 .44.17.72.56.72zm0 0"/></symbol><symbol overflow="visible" id="057ea327M"><path d="M.92-4.42h.88v-1.49h3.1v.05L2.27 0H3.3l2.64-6v-.77H.92zm0 0"/></symbol><symbol overflow="visible" id="057ea327N"><path d="M1.45-7.1c1.96.33 2.8 1.94 2.8 4.15 0 2.2-.84 3.8-2.8 4.17l.11.67c2.58-.47 3.67-2.28 3.67-4.84 0-2.55-1.09-4.36-3.67-4.85zm0 0"/></symbol></defs><use xlink:href="#057ea327a" x="169.76" y="164" fill="#fff"/><g fill="#515151"><use xlink:href="#057ea327b" x="212.56" y="164"/><use xlink:href="#057ea327c" x="247.76" y="164"/><use xlink:href="#057ea327d" x="293.28" y="164"/><use xlink:href="#057ea327e" x="336.32" y="164"/><use xlink:href="#057ea327f" x="370.32" y="164"/></g><g fill="#fff"><use xlink:href="#057ea327g" x="260" y="252"/><use xlink:href="#057ea327h" x="266.667" y="252"/><use xlink:href="#057ea327i" x="273.334" y="252"/><use xlink:href="#057ea327j" x="280.001" y="252"/><use xlink:href="#057ea327k" x="286.668" y="252"/><use xlink:href="#057ea327l" x="293.335" y="252"/><use xlink:href="#057ea327m" x="300.002" y="252"/><use xlink:href="#057ea327n" x="306.669" y="252"/><use xlink:href="#057ea327o" x="313.336" y="252"/><use xlink:href="#057ea327p" x="320.003" y="252"/><use xlink:href="#057ea327q" x="326.67" y="252"/><use xlink:href="#057ea327r" x="333.337" y="252"/></g><g fill="#fff"><use xlink:href="#057ea327s" x="113.3333" y="266"/><use xlink:href="#057ea327h" x="120.0003" y="266"/><use xlink:href="#057ea327t" x="126.6673" y="266"/><use xlink:href="#057ea327j" x="133.3343" y="266"/><use xlink:href="#057ea327u" x="140.0013" y="266"/><use xlink:href="#057ea327v" x="146.6683" y="266"/><use xlink:href="#057ea327h" x="153.3353" y="266"/><use xlink:href="#057ea327k" x="160.0023" y="266"/><use xlink:href="#057ea327l" x="166.6693" y="266"/><use xlink:href="#057ea327w" x="173.3363" y="266"/><use xlink:href="#057ea327h" x="180.0033" y="266"/><use xlink:href="#057ea327v" x="186.6703" y="266"/><use xlink:href="#057ea327x" x="193.3373" y="266"/><use xlink:href="#057ea327y" x="200.0043" y="266"/><use xlink:href="#057ea327t" x="206.6713" y="266"/><use xlink:href="#057ea327z" x="213.3383" y="266"/><use xlink:href="#057ea327A" x="220.0053" y="266"/><use xlink:href="#057ea327B" x="226.6723" y="266"/><use xlink:href="#057ea327t" x="233.3393" y="266"/><use xlink:href="#057ea327C" x="240.0063" y="266"/><use xlink:href="#057ea327h" x="246.6733" y="266"/><use xlink:href="#057ea327D" x="253.3403" y="266"/><use xlink:href="#057ea327E" x="260.0073" y="266"/><use xlink:href="#057ea327z" x="266.6743" y="266"/><use xlink:href="#057ea327y" x="273.3413" y="266"/><use xlink:href="#057ea327t" x="280.0083" y="266"/><use xlink:href="#057ea327z" x="286.6753" y="266"/><use xlink:href="#057ea327l" x="293.3423" y="266"/><use xlink:href="#057ea327F" x="300.0093" y="266"/><use xlink:href="#057ea327E" x="306.6763" y="266"/><use xlink:href="#057ea327v" x="313.3433" y="266"/><use xlink:href="#057ea327G" x="320.0103" y="266"/><use xlink:href="#057ea327H" x="326.6773" y="266"/><use xlink:href="#057ea327l" x="333.3443" y="266"/><use xlink:href="#057ea327I" x="340.0113" y="266"/><use xlink:href="#057ea327H" x="346.6783" y="266"/><use xlink:href="#057ea327h" x="353.3453" y="266"/><use xlink:href="#057ea327j" x="360.0123" y="266"/><use xlink:href="#057ea327l" x="366.6793" y="266"/><use xlink:href="#057ea327J" x="373.3463" y="266"/><use xlink:href="#057ea327t" x="380.0133" y="266"/><use xlink:href="#057ea327z" x="386.6803" y="266"/><use xlink:href="#057ea327K" x="393.3473" y="266"/><use xlink:href="#057ea327u" x="400.0143" y="266"/><use xlink:href="#057ea327t" x="406.6813" y="266"/><use xlink:href="#057ea327K" x="413.3483" y="266"/><use xlink:href="#057ea327h" x="420.0153" y="266"/><use xlink:href="#057ea327l" x="426.6823" y="266"/><use xlink:href="#057ea327E" x="433.3493" y="266"/><use xlink:href="#057ea327v" x="440.0163" y="266"/><use xlink:href="#057ea327l" x="446.6833" y="266"/><use xlink:href="#057ea327H" x="453.3503" y="266"/><use xlink:href="#057ea327H" x="460.0173" y="266"/><use xlink:href="#057ea327L" x="466.6843" y="266"/><use xlink:href="#057ea327M" x="473.3513" y="266"/><use xlink:href="#057ea327N" x="480.0183" y="266"/></g></svg>