<?xml version='1.0' encoding='UTF-8'?>
<svg xmlns="http://www.w3.org/2000/svg" xmlns:xlink="http://www.w3.org/1999/xlink" width="600px" height="300px" viewBox="0 0 600 300" x="0px" y="0px" enable-background="new 0 0 600 300"><defs><symbol overflow="visible" id="0de43c93a"><path d="M16-2.95C16-1.05 17.52.4 19.36.4a3.35 3.35 0 003.44-3.36v-44.33h11.28c1.6 0 2.97-1.36 2.97-3.03a3 3 0 00-2.97-2.97H4.72a3 3 0 000 6H16zm-.64 20.8c0 1.74 1.28 2.23 2.08 2.23.87 0 1.76-.49 2.15-1.03 1.61-2 3.29-5.2 3.29-11.2 0-3.37-2.08-4.16-3.36-4.16-1.68 0-2.96 1.19-2.96 3.1 0 1.93 1.13 2.57 1.13 4.65 0 3.28-2.33 4.64-2.33 6.4zm0 0"/></symbol><symbol overflow="visible" id="0de43c93b"><path d="M3.05-4.56a5.6 5.6 0 00-.33 1.68A3.32 3.32 0 006.08.42C7.59.4 8.88-.5 9.28-2l3.2-10.8h20.96L36.64-2a3.26 3.26 0 003.2 2.4 3.32 3.32 0 003.36-3.27c0-.41-.08-.9-.33-1.7L29.37-48.47c-1.05-3.75-2.64-5.2-6.31-5.2-3.53 0-5.36 1.52-6.4 5.2zm19.75-43.2h.4l8.64 29.45H14.08zm0 0"/></symbol><symbol overflow="visible" id="0de43c93c"><path d="M13.69-21.05h7.26c1.2 0 2.33-.07 3.53-.23l10.4 19.92c.56.88 1.68 1.77 2.96 1.77 1.93 0 3.36-1.28 3.36-3.2 0-.8-.4-1.7-.72-2.26l-9.68-18c5.2-2.39 8.89-7.18 8.89-13.82 0-9.85-7.61-16.41-16.97-16.41h-12.4a3.38 3.38 0 00-3.37 3.36v46.97A3.4 3.4 0 0010.31.4a3.35 3.35 0 003.38-3.36zm0-26.23h8.8c5.92 0 10.46 4 10.46 10.4s-4.54 10.4-10.47 10.4h-8.8zm0 0"/></symbol><symbol overflow="visible" id="0de43c93d"><path d="M3.05-4.56a5.6 5.6 0 00-.33 1.68A3.32 3.32 0 006.08.42C7.59.4 8.88-.5 9.28-2l3.2-10.8h20.96L36.64-2a3.26 3.26 0 003.2 2.4 3.32 3.32 0 003.36-3.27c0-.41-.08-.9-.33-1.7L29.37-48.47c-1.05-3.75-2.64-5.2-6.31-5.2-3.53 0-5.36 1.52-6.4 5.2zm19.75-43.2h.4l8.64 29.45H14.08zm10.72-16.16c.4-1.03.71-2.16.71-3.03 0-1.77-1.03-2.49-2.3-2.49-1.62 0-2.09 1.03-2.57 2.24-.88 2.4-1.92 4.89-6.31 4.89-4.4 0-5.53-2.4-6.33-4.9-.4-1.02-.88-2.23-2.64-2.23-1.2 0-2.24.72-2.24 2.4 0 .96.32 2.17.72 3.12 1.67 4 5.36 6.48 10.4 6.48 5.2 0 8.96-2.64 10.56-6.48zm0 0"/></symbol><symbol overflow="visible" id="0de43c93e"><path d="M10.08-33.05v20.9C10.08-4.88 14 .8 21.68.8c1.76 0 5.04-.4 7.37-1.85 1.1-.8 1.6-1.67 1.6-2.72 0-1.67-1.21-2.71-2.65-2.71-1.52 0-2.56 1.6-5.52 1.6-3.2 0-5.68-1.68-5.68-7.2v-20.97h9.68c1.6 0 2.8-1.18 2.8-2.72a2.8 2.8 0 00-2.8-2.87H16.8v-8.72a3.28 3.28 0 00-3.36-3.36 3.28 3.28 0 00-3.36 3.36v8.72h-5.6a2.8 2.8 0 00-2.8 2.87 2.7 2.7 0 002.8 2.72zM16 17.35a2.08 2.08 0 002.08 2.24c.87 0 1.76-.46 2.15-1.03 1.61-2 3.29-5.12 3.29-10.87 0-3.38-2.08-4.17-3.36-4.17-1.68 0-2.96 1.2-2.96 3.12 0 1.92 1.11 2.56 1.11 4.64 0 3.2-2.31 4.4-2.31 6.08zm0 0"/></symbol><symbol overflow="visible" id="0de43c93f"><path d="M27.13-8.95C23.84-6 20-4.8 17.27-4.8c-4.56 0-7.2-2.33-7.2-6.25 0-4 2.87-6.15 8.48-6.15h8.57zm0-13.05H18.3c-9.26 0-14.8 4.16-14.8 11.36C3.52-3.7 8.42.8 15.93.8 21.05.8 25.28-1.6 28-4.16l.56 2.32A2.93 2.93 0 0031.6.4c2 0 3.05-1.36 3.05-2.97 0-1.44-.8-2.96-.8-7.52v-15.76c0-6.88-3.36-13.6-14.64-13.6-3.04 0-7.68.64-10.56 2.08-1.52.8-2.33 1.6-2.33 2.8 0 1.36.97 2.72 2.82 2.72 1.03 0 2.3-.57 3.67-.96a18.88 18.88 0 015.84-1.12c6.48 0 8.48 3.6 8.48 8.08zm0 0"/></symbol><symbol overflow="visible" id="0de43c93g"><path d="M3.13-2.88A2.8 2.8 0 005.92 0H28c1.6 0 2.8-1.28 2.8-2.8 0-1.6-1.2-2.89-2.8-2.89h-9.05v-23.1c2.49-1.85 8.33-4.5 12.18-4.73l.95 7.04c.23 1.36 1.2 2.56 2.97 2.56 1.6 0 2.95-1.28 2.8-3.2l-.8-9.6c-.17-1.69-1.61-2.72-3.46-2.72-5.67 0-11.36 2.31-15.9 5.28l-.57-2.48c-.25-1.13-1.12-2-2.32-2H6.16a2.8 2.8 0 00-2.8 2.87c0 1.54 1.2 2.72 2.8 2.72h6.07v27.36h-6.3c-1.62 0-2.8 1.28-2.8 2.82zm0 0"/></symbol><symbol overflow="visible" id="0de43c93h"><path d="M27.13-8.95C23.84-6 20-4.8 17.27-4.8c-4.56 0-7.2-2.33-7.2-6.25 0-4 2.87-6.15 8.48-6.15h8.57zm0-13.05H18.3c-9.26 0-14.8 4.16-14.8 11.36C3.52-3.7 8.42.8 15.93.8 21.05.8 25.28-1.6 28-4.16l.56 2.32A2.93 2.93 0 0031.6.4c2 0 3.05-1.36 3.05-2.97 0-1.44-.8-2.96-.8-7.52v-15.76c0-6.88-3.36-13.6-14.64-13.6-3.04 0-7.68.64-10.56 2.08-1.52.8-2.33 1.6-2.33 2.8 0 1.36.97 2.72 2.82 2.72 1.03 0 2.3-.57 3.67-.96a18.88 18.88 0 015.84-1.12c6.48 0 8.48 3.6 8.48 8.08zm1.75-28.8c.48-1.12.89-2.72.89-3.76 0-1.36-.97-2.4-2.18-2.4-1.36 0-2.23.96-2.46 2.32-.65 2.64-2.08 5.84-5.93 5.84-3.51 0-5.12-2.56-5.92-5.84-.23-1.36-1.12-2.31-2.48-2.31-1.28 0-2.16 1.03-2.16 2.39 0 1.12.4 2.56.88 3.76 1.6 4 4.8 6.72 9.68 6.72 4.96 0 8.08-2.72 9.68-6.72zm0 0"/></symbol><symbol overflow="visible" id="0de43c93i"><path d="M3.83 0v-5.95H6.2v-.82H.45v.82h2.4V0zm0 0"/></symbol><symbol overflow="visible" id="0de43c93j"><path d="M5.75-2.23v-.43c0-1.6-.9-2.51-2.42-2.51S.87-4.16.87-2.48c0 1.71.91 2.62 2.5 2.62 1.43 0 2.07-.56 2.29-1.52l-.9-.09c-.18.61-.59.9-1.35.9-.94 0-1.52-.54-1.58-1.66zm-2.4-2.2c.93 0 1.43.5 1.48 1.55H1.84c.08-1.07.6-1.56 1.5-1.56zm0 0"/></symbol><symbol overflow="visible" id="0de43c93k"><path d="M1.83 0l1.42-2h.06l1.46 2H5.8L4-2.53l1.78-2.49H4.8L3.42-3.08h-.08l-1.4-1.94H.89l1.78 2.49L.84 0zm0 0"/></symbol><symbol overflow="visible" id="0de43c93l"><path d="M5.52-4.25v-.77H3.17v-1.56h-.81l-.14 1.56H.75v.77h1.47v2.4c0 1.3.48 1.94 1.84 1.94C4.6.1 5.14 0 5.55-.14L5.4-.91c-.32.13-.72.2-1.13.2-.8 0-1.1-.37-1.1-1.23v-2.31zm0 0"/></symbol><symbol overflow="visible" id="0de43c93m"><path d="M3.33-3.42c.47 0 .8-.27.8-.8 0-.51-.33-.8-.8-.8-.47 0-.8.29-.8.8 0 .53.33.8.8.8zm0 3.5c.47 0 .8-.27.8-.78 0-.53-.33-.82-.8-.82-.47 0-.8.29-.8.82 0 .51.33.78.8.78zm0 0"/></symbol><symbol overflow="visible" id="0de43c93o"><path d="M3.83-5.95H6.2v-.82H.45v.82h2.4V0h.17l-.13.64c.52.05.81.17.81.5 0 .36-.22.42-.48.42-.14 0-.36-.03-.52-.08l-.08.5c.2.07.5.15.79.15.56 0 1.06-.2 1.06-.91 0-.52-.44-.77-.95-.86L3.58 0h.25zm0 0"/></symbol><symbol overflow="visible" id="0de43c93p"><path d="M6.17 0L3.98-6.77h-1.3L.5 0h.97l.44-1.47h2.78L5.16 0zM3.28-5.94h.08l1.1 3.74H2.15zm0 0"/></symbol><symbol overflow="visible" id="0de43c93q"><path d="M4.06-2.77c1.25-.04 1.92-.7 1.92-1.96 0-1.36-.7-2.04-2.17-2.04H.92V0h.97v-2.73h1.08L4.95 0h1.1zM1.9-6h1.7c1.07 0 1.46.34 1.46 1.28 0 .9-.44 1.27-1.47 1.27H1.89zm0 0"/></symbol><symbol overflow="visible" id="0de43c93r"><path d="M3.34-7.36c1.08 0 1.74-.51 1.79-1.72h-.7c-.07.75-.34 1.13-1.09 1.13S2.33-8.3 2.27-9.08h-.7c.04 1.2.66 1.72 1.77 1.72zM6.17 0L3.98-6.77h-1.3L.5 0h.97l.44-1.47h2.78L5.16 0zM3.28-5.94h.08l1.1 3.74H2.15zm0 0"/></symbol><symbol overflow="visible" id="0de43c93s"><path d="M3.69.08l.37.01C4.6.1 5.14 0 5.55-.14L5.4-.91c-.32.13-.72.2-1.13.2-.8 0-1.1-.37-1.1-1.23v-2.31h2.34v-.77H3.17v-1.56h-.81l-.14 1.56H.75v.77h1.47v2.4c0 .96.25 1.55.94 1.82l-.14.67c.51.05.82.17.82.5 0 .36-.23.42-.5.42-.14 0-.36-.03-.5-.08l-.09.5c.2.07.5.15.78.15.56 0 1.08-.2 1.08-.91 0-.52-.44-.77-.97-.86zm0 0"/></symbol><symbol overflow="visible" id="0de43c93t"><path d="M2.83.14c.94 0 1.5-.39 1.81-.95h.08l.1.81h.76v-3.38c0-1.23-.69-1.8-2.13-1.8-1.43 0-2.03.65-2.18 1.6l.93.1c.11-.6.44-.93 1.22-.93.85 0 1.22.32 1.22 1.04v.34l-1.81.2C1.6-2.7 1.1-2.17 1.1-1.28c0 .92.64 1.42 1.72 1.42zm.25-.77c-.67 0-1.02-.28-1.02-.74 0-.44.28-.72 1-.82l1.58-.19v.41c0 .8-.6 1.34-1.56 1.34zm0 0"/></symbol><symbol overflow="visible" id="0de43c93u"><path d="M5.08-5.16c-.94 0-1.58.43-1.9 1.3h-.09l-.07-1.16H1.05v.77h1.1v3.48H.96V0h3.96v-.77H3.1v-1.46c0-1.36.6-2.05 1.83-2.05.4 0 .76.08 1.1.17l.15-.87c-.33-.11-.7-.18-1.11-.18zm0 0"/></symbol><symbol overflow="visible" id="0de43c93v"><path d="M3.53-5.67c1.05 0 1.64-.56 1.69-1.85h-.69c-.05.77-.26 1.22-1 1.22-.72 0-.95-.45-1-1.22h-.7c.04 1.29.62 1.85 1.7 1.85zM2.83.14c.94 0 1.5-.39 1.81-.95h.08l.1.81h.76v-3.38c0-1.23-.69-1.8-2.13-1.8-1.43 0-2.03.65-2.18 1.6l.93.1c.11-.6.44-.93 1.22-.93.85 0 1.22.32 1.22 1.04v.34l-1.81.2C1.6-2.7 1.1-2.17 1.1-1.28c0 .92.64 1.42 1.72 1.42zm.25-.77c-.67 0-1.02-.28-1.02-.74 0-.44.28-.72 1-.82l1.58-.19v.41c0 .8-.6 1.34-1.56 1.34zm0 0"/></symbol><symbol overflow="visible" id="0de43c93w"><path d="M5.95-6.77H1.1V0h.99v-2.92H5.3v-.77H2.08v-2.26h3.87zm0 0"/></symbol><symbol overflow="visible" id="0de43c93x"><path d="M2.73.14c.9 0 1.43-.45 1.74-1.08h.06l.13.94h.8v-5.02h-.94v2.7c0 .98-.57 1.62-1.46 1.62-.75 0-1.1-.4-1.1-1.22v-3.1h-.93v3.32c0 1.17.55 1.84 1.7 1.84zm0 0"/></symbol><symbol overflow="visible" id="0de43c93y"><path d="M3.33.14c1.62 0 2.5-.95 2.5-2.66 0-1.68-.88-2.64-2.5-2.64-1.63 0-2.5.96-2.5 2.64 0 1.7.87 2.66 2.5 2.66zm0-.77c-1.06 0-1.52-.6-1.52-1.89 0-1.28.46-1.87 1.52-1.87 1.08 0 1.53.6 1.53 1.87 0 1.29-.45 1.9-1.53 1.9zm0 0"/></symbol><symbol overflow="visible" id="0de43c93z"><path d="M1.63 0v-2.9c0-.8.15-1.4.71-1.4.41 0 .55.3.55.88V0h.95v-2.9c0-.8.18-1.4.72-1.4.4 0 .57.3.57.88V0h.95v-3.63c0-.92-.28-1.53-1.11-1.53-.63 0-.95.41-1.1.9h-.06c-.1-.52-.44-.9-1.08-.9-.6 0-.93.41-1.06.9H1.6l-.23-.76H.67V0zm0 0"/></symbol><symbol overflow="visible" id="0de43c93A"><path d="M2.16 0v-2.67c0-.99.59-1.63 1.46-1.63.74 0 1.07.38 1.07 1.22V0h.95v-3.31c0-1.2-.56-1.85-1.67-1.85-.92 0-1.49.46-1.77 1.08h-.06l-.12-.94H1.2V0zm0 0"/></symbol><symbol overflow="visible" id="0de43c93B"><path d="M3.58-5.81c.42 0 .72-.22.72-.67 0-.44-.3-.68-.72-.68-.44 0-.72.24-.72.68 0 .45.28.67.72.67zm.5.8H1.52v.76h1.6v3.48h-1.8V0h4.46v-.77h-1.7zm0 0"/></symbol><symbol overflow="visible" id="0de43c93C"><path d="M1.45-2.95c0 2.56 1.08 4.37 3.67 4.84l.11-.67C3.28.86 2.43-.75 2.43-2.95s.85-3.82 2.8-4.16l-.1-.69c-2.6.49-3.68 2.3-3.68 4.85zm0 0"/></symbol><symbol overflow="visible" id="0de43c93D"><path d="M3.36.16c1.4 0 2.2-.6 2.2-1.57 0-.89-.54-1.22-1.47-1.39L3-3c-.67-.14-.86-.33-.86-.73 0-.5.4-.74 1.17-.74.83 0 1.19.27 1.27.8l.9-.05c-.12-1-.8-1.47-2.17-1.47-1.34 0-2.1.53-2.1 1.5 0 .81.45 1.22 1.52 1.44l1.04.2c.56.11.87.24.87.72 0 .52-.45.78-1.28.78-.95 0-1.36-.28-1.42-.87l-.9.06C1.07-.36 1.8.16 3.35.16zm0 0"/></symbol><symbol overflow="visible" id="0de43c93E"><path d="M3.92-7.14H1.36v.76h1.6v5.61H1.15V0H5.7v-.77H3.92zm0 0"/></symbol><symbol overflow="visible" id="0de43c93F"><path d="M3.16 2.03c1.67 0 2.4-.86 2.4-2.51v-4.54h-.81l-.13.91h-.06c-.26-.58-.8-1.05-1.73-1.05-1.42 0-2.24 1-2.24 2.52 0 1.6.75 2.56 2.2 2.56.94 0 1.5-.5 1.77-1.03h.05v.72c0 1.17-.42 1.67-1.45 1.67-.93 0-1.3-.34-1.41-.89L.8.5c.12.96.87 1.54 2.36 1.54zM3.06-.8c-.98 0-1.48-.57-1.48-1.82 0-1.13.5-1.75 1.48-1.75 1.06 0 1.58.76 1.58 1.75 0 .95-.56 1.82-1.58 1.82zm0 0"/></symbol><symbol overflow="visible" id="0de43c93G"><path d="M1.45-7.1c1.96.33 2.8 1.94 2.8 4.15 0 2.2-.84 3.8-2.8 4.17l.11.67c2.58-.47 3.67-2.28 3.67-4.84 0-2.55-1.09-4.36-3.67-4.85zm0 0"/></symbol></defs><use xlink:href="#0de43c93a" x="129.96" y="164" fill="#fff"/><g fill="#515151"><use xlink:href="#0de43c93b" x="164.44" y="164"/><use xlink:href="#0de43c93c" x="210.44" y="164"/><use xlink:href="#0de43c93d" x="255.4" y="164"/></g><use xlink:href="#0de43c93e" x="317.48" y="164" fill="#fff"/><g fill="#515151"><use xlink:href="#0de43c93f" x="350.04" y="164"/><use xlink:href="#0de43c93g" x="390.28" y="164"/></g><use xlink:href="#0de43c93h" x="429.8" y="164" fill="#515151"/><g fill="#fff"><use xlink:href="#0de43c93i" x="250" y="252"/><use xlink:href="#0de43c93j" x="256.667" y="252"/><use xlink:href="#0de43c93k" x="263.334" y="252"/><use xlink:href="#0de43c93l" x="270.001" y="252"/><use xlink:href="#0de43c93m" x="276.668" y="252"/><use xlink:href="#0de43c93n" x="283.335" y="252"/><use xlink:href="#0de43c93o" x="290.002" y="252"/><use xlink:href="#0de43c93p" x="296.669" y="252"/><use xlink:href="#0de43c93q" x="303.336" y="252"/><use xlink:href="#0de43c93r" x="310.003" y="252"/><use xlink:href="#0de43c93n" x="316.67" y="252"/><use xlink:href="#0de43c93s" x="323.337" y="252"/><use xlink:href="#0de43c93t" x="330.004" y="252"/><use xlink:href="#0de43c93u" x="336.671" y="252"/><use xlink:href="#0de43c93v" x="343.338" y="252"/></g><g fill="#fff"><use xlink:href="#0de43c93w" x="193.3333" y="266"/><use xlink:href="#0de43c93j" x="200.0003" y="266"/><use xlink:href="#0de43c93t" x="206.6673" y="266"/><use xlink:href="#0de43c93l" x="213.3343" y="266"/><use xlink:href="#0de43c93x" x="220.0013" y="266"/><use xlink:href="#0de43c93u" x="226.6683" y="266"/><use xlink:href="#0de43c93j" x="233.3353" y="266"/><use xlink:href="#0de43c93m" x="240.0023" y="266"/><use xlink:href="#0de43c93n" x="246.6693" y="266"/><use xlink:href="#0de43c93q" x="253.3363" y="266"/><use xlink:href="#0de43c93y" x="260.0033" y="266"/><use xlink:href="#0de43c93z" x="266.6703" y="266"/><use xlink:href="#0de43c93t" x="273.3373" y="266"/><use xlink:href="#0de43c93A" x="280.0043" y="266"/><use xlink:href="#0de43c93B" x="286.6713" y="266"/><use xlink:href="#0de43c93t" x="293.3383" y="266"/><use xlink:href="#0de43c93A" x="300.0053" y="266"/><use xlink:href="#0de43c93n" x="306.6723" y="266"/><use xlink:href="#0de43c93C" x="313.3393" y="266"/><use xlink:href="#0de43c93D" x="320.0063" y="266"/><use xlink:href="#0de43c93j" x="326.6733" y="266"/><use xlink:href="#0de43c93l" x="333.3403" y="266"/><use xlink:href="#0de43c93n" x="340.0073" y="266"/><use xlink:href="#0de43c93E" x="346.6743" y="266"/><use xlink:href="#0de43c93t" x="353.3413" y="266"/><use xlink:href="#0de43c93A" x="360.0083" y="266"/><use xlink:href="#0de43c93F" x="366.6753" y="266"/><use xlink:href="#0de43c93x" x="373.3423" y="266"/><use xlink:href="#0de43c93t" x="380.0093" y="266"/><use xlink:href="#0de43c93F" x="386.6763" y="266"/><use xlink:href="#0de43c93j" x="393.3433" y="266"/><use xlink:href="#0de43c93G" x="400.0103" y="266"/></g></svg>