<?xml version='1.0' encoding='UTF-8'?>
<svg xmlns="http://www.w3.org/2000/svg" xmlns:xlink="http://www.w3.org/1999/xlink" width="600px" height="300px" viewBox="0 0 600 300" x="0px" y="0px" enable-background="new 0 0 600 300"><defs><symbol overflow="visible" id="26d84756a"><path d="M42.08-23.28h-8c-8.4 0-13.03 3.84-13.03 10 0 6.8 5.51 10.64 12.07 10.64 4.65 0 8.47-1.92 10.96-5.2a9.62 9.62 0 008.72 5.12c7.43 0 12.64-6.87 12.64-18.72 0-18.25-11.75-29.6-29.92-29.6-16.8 0-31.11 9.76-31.11 31.12 0 21.84 14.95 30.97 30.71 30.97 4.8 0 11.44-1.13 14.24-2.49 1.2-.4 1.92-1.2 1.92-2.4 0-1.6-1.36-2.72-2.8-2.72-.96 0-2.48.8-4.8 1.36a42.7 42.7 0 01-8.8 1.04c-12.16 0-24.8-6.96-24.8-26 0-18.8 12.56-25.68 25.51-25.68 14.18 0 24.18 8.32 24.18 24.72 0 8.4-2.65 12.96-6.9 12.96-3.1 0-4.8-2.71-4.8-6.56V-24.8c0-6-3.2-12.25-12.3-12.25-2.57 0-7.61.57-10.49 2.57a2.85 2.85 0 00-1.36 2.32 2.5 2.5 0 002.49 2.57c.87 0 1.9-.57 2.95-.97 2-.72 3.92-1.2 5.6-1.2 5.52 0 7.12 2.89 7.12 6.64zm0 4.56v5.13A8.5 8.5 0 0133.77-8c-3.93 0-6.57-2.08-6.57-5.36 0-3.12 2.32-5.36 6.96-5.36zm0 0"/></symbol><symbol overflow="visible" id="26d84756b"><path d="M30.23-37.36c-2-.87-5.03-2.08-8.39-2.08-11.84 0-17.43 8.16-17.43 20.08C4.4-6.56 10.3.8 19.5.8c3.77 0 7.93-1.85 11.54-5.03l.64 2.39C32-.56 32.95.4 34.72.4c2 0 2.97-1.46 2.97-3.13 0-1.28-.74-3.44-.74-6.87v-44.33a3.28 3.28 0 00-3.36-3.36 3.29 3.29 0 00-3.36 3.36zm0 28.4c-3.59 3.2-7.28 4.16-9.51 4.16-6.72 0-9.52-5.92-9.52-14.56 0-8.56 2.96-14.56 10.72-14.56 3.2 0 6.4 1.12 8.31 2.08zm0 0"/></symbol><symbol overflow="visible" id="26d84756c"><path d="M4.4-19.28C4.4-7.84 10.49.8 21.53.8c11.12 0 17.12-8.64 17.12-20.08 0-11.6-6.16-20.16-17.12-20.16-10.88 0-17.11 8.56-17.11 20.16zM21.53-4.8c-6.57 0-10.4-6-10.4-14.48 0-8.72 3.83-14.64 10.4-14.64 6.56 0 10.4 5.92 10.4 14.64 0 8.48-3.84 14.48-10.4 14.48zm0 0"/></symbol><symbol overflow="visible" id="26d84756d"><path d="M6.64-2.95C6.64-1.05 8.08.4 10 .4a3.29 3.29 0 003.36-3.36V-29.7c2.56-2.39 5.84-4.23 8.48-4.23 5.11 0 6.96 3.44 6.96 9.05v21.92C28.8-1.05 30.3.4 32.16.4a3.29 3.29 0 003.36-3.36v-20.97c0-1.85-.08-4.16-.47-5.85 3.1-2.64 6.3-4.15 8.87-4.15 4.95 0 7.03 3.44 7.03 9.05v21.92c0 1.9 1.53 3.36 3.36 3.36a3.35 3.35 0 003.38-3.36v-22.57c0-9.76-5.28-13.92-12.81-13.92-3.83 0-8.24 2.08-11.52 5.2-2.56-3.92-6.31-5.2-10.31-5.2-3.28 0-7.2 1.92-10.49 5.13l-.64-2.49c-.33-1.28-1.28-2.25-3.04-2.25-2 0-3.04 1.46-3.04 3.2 0 1.2.8 3.37.8 6.9zm0 0"/></symbol><symbol overflow="visible" id="26d84756e"><path d="M27.44-17.2v8.25C24.3-6.08 20.3-4.8 17.77-4.8c-4.72 0-7.36-2.33-7.36-6.15 0-4.1 2.95-6.25 8.46-6.25zm0-4.8h-8.8c-9.2 0-14.8 4.16-14.8 11.28C3.84-3.69 8.8.8 16.16.8c5.28 0 9.53-2.4 12.15-4.96l.57 2.32C29.43-.48 30.23.4 32 .4c2.08 0 2.95-1.46 2.95-3.13 0-1.36-.8-2.8-.8-7.36v-15.76c0-6.96-3.35-13.6-14.8-13.6-3.2 0-7.5.64-10.07 2.16-1.69 1.05-2.23 1.84-2.48 4.08l-.32 2.64c-.25 2.08 1.11 3.51 2.96 3.51 1.69 0 2.87-1.03 3.04-2.39l.4-3.12a15.44 15.44 0 016.17-1.36c6.39 0 8.39 3.6 8.39 8.08zm0 0"/></symbol><symbol overflow="visible" id="26d84756f"><path d="M3.13-2.8C3.13-1.28 4.3 0 5.92 0h20.71c1.6 0 2.8-1.28 2.8-2.8 0-1.6-1.2-2.89-2.8-2.89H19.7v-30.08c0-1.59-1.28-2.87-2.9-2.87H6.17a2.8 2.8 0 00-2.8 2.87c0 1.54 1.2 2.72 2.8 2.72h6.8v27.36H5.91a2.8 2.8 0 00-2.8 2.9zm11.43-42.25a4.68 4.68 0 004.72-4.72 4.68 4.68 0 00-4.72-4.71 4.68 4.68 0 00-4.72 4.71 4.68 4.68 0 004.72 4.72zm0 0"/></symbol><symbol overflow="visible" id="26d84756g"><path d="M6.64-2.95C6.64-1.05 8.08.4 10 .4a3.29 3.29 0 003.36-3.36V-29.7c2.87-2.39 6.48-4.23 9.44-4.23 5.43 0 7.76 2.97 7.76 9.05v21.92C30.56-1.05 32 .4 33.92.4a3.29 3.29 0 003.36-3.36v-21.93c0-10.89-5.36-14.56-13.2-14.56-3.52 0-8 1.92-11.52 5.13l-.64-2.49c-.33-1.28-1.28-2.25-3.04-2.25-2 0-3.04 1.46-3.04 3.2 0 1.2.8 3.37.8 6.9zm0 0"/></symbol><symbol overflow="visible" id="26d84756h"><path d="M4.56-4.4A4.68 4.68 0 009.28.3c2.64 0 4.8-2.08 4.8-4.72a4.74 4.74 0 00-4.8-4.71 4.68 4.68 0 00-4.72 4.71zm0 0"/></symbol><symbol overflow="visible" id="26d84756i"><path d="M28.4-28.31c.24 1.9 1.44 3.03 3.12 3.03 1.84 0 3.2-1.52 2.89-3.92l-.33-3.44c-.24-2-.72-3.13-2.49-4.23-2.64-1.7-6.64-2.57-9.75-2.57-11.2 0-17.43 7.44-17.43 20.08C4.4-7.44 10.3.8 21.84.8c2.47 0 7.2-.64 10.24-2.08 1.36-.64 2.48-1.44 2.48-2.95 0-1.29-.87-2.64-2.64-2.64-1.05 0-2.4.56-3.76.95a20.11 20.11 0 01-6.32 1.12c-7.28 0-10.64-6-10.64-14.56 0-8.87 3.28-14.56 10.64-14.56 2 0 4.24.56 6 1.6zm0 0"/></symbol><symbol overflow="visible" id="26d84756j"><path d="M3.83 0v-5.95H6.2v-.82H.45v.82h2.4V0zm0 0"/></symbol><symbol overflow="visible" id="26d84756k"><path d="M5.75-2.23v-.43c0-1.6-.9-2.51-2.42-2.51S.87-4.16.87-2.48c0 1.71.91 2.62 2.5 2.62 1.43 0 2.07-.56 2.29-1.52l-.9-.09c-.18.61-.59.9-1.35.9-.94 0-1.52-.54-1.58-1.66zm-2.4-2.2c.93 0 1.43.5 1.48 1.55H1.84c.08-1.07.6-1.56 1.5-1.56zm0 0"/></symbol><symbol overflow="visible" id="26d84756l"><path d="M1.83 0l1.42-2h.06l1.46 2H5.8L4-2.53l1.78-2.49H4.8L3.42-3.08h-.08l-1.4-1.94H.89l1.78 2.49L.84 0zm0 0"/></symbol><symbol overflow="visible" id="26d84756m"><path d="M5.52-4.25v-.77H3.17v-1.56h-.81l-.14 1.56H.75v.77h1.47v2.4c0 1.3.48 1.94 1.84 1.94C4.6.1 5.14 0 5.55-.14L5.4-.91c-.32.13-.72.2-1.13.2-.8 0-1.1-.37-1.1-1.23v-2.31zm0 0"/></symbol><symbol overflow="visible" id="26d84756n"><path d="M3.33-3.42c.47 0 .8-.27.8-.8 0-.51-.33-.8-.8-.8-.47 0-.8.29-.8.8 0 .53.33.8.8.8zm0 3.5c.47 0 .8-.27.8-.78 0-.53-.33-.82-.8-.82-.47 0-.8.29-.8.82 0 .51.33.78.8.78zm0 0"/></symbol><symbol overflow="visible" id="26d84756p"><path d="M5.42-3.63c-.15-.43-.51-.75-1.19-.75-.98 0-1.54.66-1.54 1.83 0 1.13.6 1.85 1.72 1.85 1.07 0 1.75-.61 1.75-1.93v-.65c0-2.06-.72-3.13-2.66-3.13C1.47-6.4.64-5.08.64-3.14v.94c0 2.06.92 3.26 3.22 3.26.6 0 1.22-.12 1.58-.28L5.3.25C4.94.41 4.42.5 3.86.5 1.96.5 1.3-.44 1.3-2.2v-.94c0-1.53.51-2.69 2.2-2.69 1.56 0 2.05.86 2.05 2.2zm-.98 2.35c-.69 0-1.02-.42-1.02-1.27 0-.86.33-1.23.99-1.23.7 0 1.01.44 1.01 1.22 0 .9-.36 1.28-.98 1.28zm0 0"/></symbol><symbol overflow="visible" id="26d84756q"><path d="M2.84.14C3.8.14 4.33-.26 4.6-.9h.07L4.8 0h.76v-7.14h-.95v2.95h-.08c-.28-.6-.86-.97-1.67-.97-1.48 0-2.27.99-2.27 2.64C.6-.84 1.36.14 2.84.14zm.22-.8c-.98 0-1.48-.59-1.48-1.84s.5-1.86 1.48-1.86c1.13 0 1.58.8 1.58 1.86S4.2-.66 3.06-.66zm0 0"/></symbol><symbol overflow="visible" id="26d84756r"><path d="M3.33.14c1.62 0 2.5-.95 2.5-2.66 0-1.68-.88-2.64-2.5-2.64-1.63 0-2.5.96-2.5 2.64 0 1.7.87 2.66 2.5 2.66zm0-.77c-1.06 0-1.52-.6-1.52-1.89 0-1.28.46-1.87 1.52-1.87 1.08 0 1.53.6 1.53 1.87 0 1.29-.45 1.9-1.53 1.9zm0 0"/></symbol><symbol overflow="visible" id="26d84756s"><path d="M1.63 0v-2.9c0-.8.15-1.4.71-1.4.41 0 .55.3.55.88V0h.95v-2.9c0-.8.18-1.4.72-1.4.4 0 .57.3.57.88V0h.95v-3.63c0-.92-.28-1.53-1.11-1.53-.63 0-.95.41-1.1.9h-.06c-.1-.52-.44-.9-1.08-.9-.6 0-.93.41-1.06.9H1.6l-.23-.76H.67V0zm0 0"/></symbol><symbol overflow="visible" id="26d84756t"><path d="M2.83.14c.94 0 1.5-.39 1.81-.95h.08l.1.81h.76v-3.38c0-1.23-.69-1.8-2.13-1.8-1.43 0-2.03.65-2.18 1.6l.93.1c.11-.6.44-.93 1.22-.93.85 0 1.22.32 1.22 1.04v.34l-1.81.2C1.6-2.7 1.1-2.17 1.1-1.28c0 .92.64 1.42 1.72 1.42zm.25-.77c-.67 0-1.02-.28-1.02-.74 0-.44.28-.72 1-.82l1.58-.19v.41c0 .8-.6 1.34-1.56 1.34zm0 0"/></symbol><symbol overflow="visible" id="26d84756u"><path d="M3.58-5.81c.42 0 .72-.22.72-.67 0-.44-.3-.68-.72-.68-.44 0-.72.24-.72.68 0 .45.28.67.72.67zm.5.8H1.52v.76h1.6v3.48h-1.8V0h4.46v-.77h-1.7zm0 0"/></symbol><symbol overflow="visible" id="26d84756v"><path d="M2.16 0v-2.67c0-.99.59-1.63 1.46-1.63.74 0 1.07.38 1.07 1.22V0h.95v-3.31c0-1.2-.56-1.85-1.67-1.85-.92 0-1.49.46-1.77 1.08h-.06l-.12-.94H1.2V0zm0 0"/></symbol><symbol overflow="visible" id="26d84756w"><path d="M3.33.08c.51 0 .83-.27.83-.81 0-.57-.32-.82-.83-.82-.52 0-.81.25-.81.82 0 .54.3.8.8.8zm0 0"/></symbol><symbol overflow="visible" id="26d84756x"><path d="M3.34.14c1.43 0 2.13-.66 2.25-1.78l-.89-.1c-.1.7-.5 1.08-1.34 1.08-1.03 0-1.52-.64-1.52-1.84 0-1.23.47-1.86 1.52-1.86.84 0 1.23.36 1.34 1.08l.9-.1c-.13-1.09-.82-1.78-2.26-1.78-1.56 0-2.46.97-2.46 2.66 0 1.66.9 2.64 2.46 2.64zm0 0"/></symbol><symbol overflow="visible" id="26d84756y"><path d="M5.95-6.77H1.1V0h.99v-2.92H5.3v-.77H2.08v-2.26h3.87zm0 0"/></symbol><symbol overflow="visible" id="26d84756z"><path d="M2.73.14c.9 0 1.43-.45 1.74-1.08h.06l.13.94h.8v-5.02h-.94v2.7c0 .98-.57 1.62-1.46 1.62-.75 0-1.1-.4-1.1-1.22v-3.1h-.93v3.32c0 1.17.55 1.84 1.7 1.84zm0 0"/></symbol><symbol overflow="visible" id="26d84756A"><path d="M5.08-5.16c-.94 0-1.58.43-1.9 1.3h-.09l-.07-1.16H1.05v.77h1.1v3.48H.96V0h3.96v-.77H3.1v-1.46c0-1.36.6-2.05 1.83-2.05.4 0 .76.08 1.1.17l.15-.87c-.33-.11-.7-.18-1.11-.18zm0 0"/></symbol><symbol overflow="visible" id="26d84756B"><path d="M6.17 0L3.98-6.77h-1.3L.5 0h.97l.44-1.47h2.78L5.16 0zM3.28-5.94h.08l1.1 3.74H2.15zm0 0"/></symbol><symbol overflow="visible" id="26d84756C"><path d="M3.92-7.14H1.36v.76h1.6v5.61H1.15V0H5.7v-.77H3.92zm0 0"/></symbol><symbol overflow="visible" id="26d84756D"><path d="M3.9 0l2-5.02h-.96L3.4-.94h-.07L1.8-5.02H.77L2.78 0zm0 0"/></symbol><symbol overflow="visible" id="26d84756E"><path d="M4.63-6.5c.45 0 .98.08 1.39.2l.2-.72a5.3 5.3 0 00-1.64-.26c-1.52 0-2.16.56-2.16 1.87v.4H.9v.76h1.53V0h.94v-4.25h2.53v-.77H3.36v-.3c0-.84.33-1.18 1.27-1.18zm0 0"/></symbol><symbol overflow="visible" id="26d84756F"><path d="M3.38-5.9c.12-.5.42-1.04.67-1.41l-.63-.22a4.28 4.28 0 00-1.01 2.39c0 .66.3 1 .9 1 .6 0 .9-.33.9-.9 0-.57-.32-.83-.83-.85zm0 0"/></symbol><symbol overflow="visible" id="26d84756G"><path d="M3.3-7.53c-.55 0-.85.3-.85.84 0 .55.36.8.83.8h.03a5.1 5.1 0 01-.69 1.47l.52.23a4.29 4.29 0 001.02-2.4c0-.63-.33-.94-.86-.94zm0 0"/></symbol><symbol overflow="visible" id="26d84756H"><path d="M1.45-2.95c0 2.56 1.08 4.37 3.67 4.84l.11-.67C3.28.86 2.43-.75 2.43-2.95s.85-3.82 2.8-4.16l-.1-.69c-2.6.49-3.68 2.3-3.68 4.85zm0 0"/></symbol><symbol overflow="visible" id="26d84756I"><path d="M3.36.16c1.4 0 2.2-.6 2.2-1.57 0-.89-.54-1.22-1.47-1.39L3-3c-.67-.14-.86-.33-.86-.73 0-.5.4-.74 1.17-.74.83 0 1.19.27 1.27.8l.9-.05c-.12-1-.8-1.47-2.17-1.47-1.34 0-2.1.53-2.1 1.5 0 .81.45 1.22 1.52 1.44l1.04.2c.56.11.87.24.87.72 0 .52-.45.78-1.28.78-.95 0-1.36-.28-1.42-.87l-.9.06C1.07-.36 1.8.16 3.35.16zm0 0"/></symbol><symbol overflow="visible" id="26d84756J"><path d="M3.33.14c1.65 0 2.6-1.1 2.6-3.52S4.99-6.9 3.34-6.9C1.67-6.9.72-5.8.72-3.37c0 2.4.95 3.51 2.6 3.51zm0-.84c-1.13 0-1.6-.85-1.6-2.67 0-1.86.47-2.7 1.6-2.7 1.12 0 1.6.84 1.6 2.7 0 1.82-.48 2.67-1.6 2.67zM3.3-2.64c.38 0 .56-.28.56-.72 0-.44-.18-.7-.56-.7-.39 0-.56.26-.56.7 0 .44.17.72.56.72zm0 0"/></symbol><symbol overflow="visible" id="26d84756K"><path d="M5.67 0v-.86H2.14V-.9L3.6-2c1.05-.83 2-1.68 2-2.91 0-1.19-.73-1.99-2.26-1.99-1.66 0-2.3 1.02-2.44 2.33l1 .08c.1-.92.42-1.58 1.44-1.58.87 0 1.26.44 1.26 1.24 0 .9-.8 1.53-1.96 2.53L.83-.81V0zm0 0"/></symbol><symbol overflow="visible" id="26d84756L"><path d="M1.45-7.1c1.96.33 2.8 1.94 2.8 4.15 0 2.2-.84 3.8-2.8 4.17l.11.67c2.58-.47 3.67-2.28 3.67-4.84 0-2.55-1.09-4.36-3.67-4.85zm0 0"/></symbol></defs><use xlink:href="#26d84756a" x="50.52" y="164" fill="#fff"/><g fill="#515151"><use xlink:href="#26d84756b" x="120.68" y="164"/><use xlink:href="#26d84756c" x="164.36" y="164"/><use xlink:href="#26d84756d" x="207.4" y="164"/></g><use xlink:href="#26d84756e" x="271.24" y="164" fill="#fff"/><g fill="#515151"><use xlink:href="#26d84756f" x="311.8" y="164"/><use xlink:href="#26d84756g" x="342.6" y="164"/><use xlink:href="#26d84756h" x="385.96" y="164"/><use xlink:href="#26d84756i" x="404.6" y="164"/></g><g fill="#515151"><use xlink:href="#26d84756c" x="442.6" y="164"/><use xlink:href="#26d84756d" x="485.64" y="164"/></g><g fill="#fff"><use xlink:href="#26d84756j" x="243.3333" y="252"/><use xlink:href="#26d84756k" x="250.0003" y="252"/><use xlink:href="#26d84756l" x="256.6673" y="252"/><use xlink:href="#26d84756m" x="263.3343" y="252"/><use xlink:href="#26d84756n" x="270.0013" y="252"/><use xlink:href="#26d84756o" x="276.6683" y="252"/><use xlink:href="#26d84756p" x="283.3353" y="252"/><use xlink:href="#26d84756q" x="290.0023" y="252"/><use xlink:href="#26d84756r" x="296.6693" y="252"/><use xlink:href="#26d84756s" x="303.3363" y="252"/><use xlink:href="#26d84756t" x="310.0033" y="252"/><use xlink:href="#26d84756u" x="316.6703" y="252"/><use xlink:href="#26d84756v" x="323.3373" y="252"/><use xlink:href="#26d84756w" x="330.0043" y="252"/><use xlink:href="#26d84756x" x="336.6713" y="252"/><use xlink:href="#26d84756r" x="343.3383" y="252"/><use xlink:href="#26d84756s" x="350.0053" y="252"/></g><g fill="#fff"><use xlink:href="#26d84756y" x="170" y="266"/><use xlink:href="#26d84756k" x="176.667" y="266"/><use xlink:href="#26d84756t" x="183.334" y="266"/><use xlink:href="#26d84756m" x="190.001" y="266"/><use xlink:href="#26d84756z" x="196.668" y="266"/><use xlink:href="#26d84756A" x="203.335" y="266"/><use xlink:href="#26d84756k" x="210.002" y="266"/><use xlink:href="#26d84756n" x="216.669" y="266"/><use xlink:href="#26d84756o" x="223.336" y="266"/><use xlink:href="#26d84756B" x="230.003" y="266"/><use xlink:href="#26d84756C" x="236.67" y="266"/><use xlink:href="#26d84756m" x="243.337" y="266"/><use xlink:href="#26d84756k" x="250.004" y="266"/><use xlink:href="#26d84756A" x="256.671" y="266"/><use xlink:href="#26d84756v" x="263.338" y="266"/><use xlink:href="#26d84756t" x="270.005" y="266"/><use xlink:href="#26d84756m" x="276.672" y="266"/><use xlink:href="#26d84756u" x="283.339" y="266"/><use xlink:href="#26d84756D" x="290.006" y="266"/><use xlink:href="#26d84756k" x="296.673" y="266"/><use xlink:href="#26d84756o" x="303.34" y="266"/><use xlink:href="#26d84756E" x="310.007" y="266"/><use xlink:href="#26d84756r" x="316.674" y="266"/><use xlink:href="#26d84756A" x="323.341" y="266"/><use xlink:href="#26d84756s" x="330.008" y="266"/><use xlink:href="#26d84756o" x="336.675" y="266"/><use xlink:href="#26d84756r" x="343.342" y="266"/><use xlink:href="#26d84756E" x="350.009" y="266"/><use xlink:href="#26d84756o" x="356.676" y="266"/><use xlink:href="#26d84756F" x="363.343" y="266"/><use xlink:href="#26d84756t" x="370.01" y="266"/><use xlink:href="#26d84756G" x="376.677" y="266"/><use xlink:href="#26d84756o" x="383.344" y="266"/><use xlink:href="#26d84756H" x="390.011" y="266"/><use xlink:href="#26d84756I" x="396.678" y="266"/><use xlink:href="#26d84756I" x="403.345" y="266"/><use xlink:href="#26d84756J" x="410.012" y="266"/><use xlink:href="#26d84756K" x="416.679" y="266"/><use xlink:href="#26d84756L" x="423.346" y="266"/></g></svg>