<?xml version='1.0' encoding='UTF-8'?>
<svg xmlns="http://www.w3.org/2000/svg" xmlns:xlink="http://www.w3.org/1999/xlink" width="600px" height="300px" viewBox="0 0 600 300" x="0px" y="0px" enable-background="new 0 0 600 300"><defs><symbol overflow="visible" id="673016f2a"><path d="M11.05-33.05h15.1L5.7-7.05A4.97 4.97 0 004.3-3.69C4.31-1.29 6.41 0 8.56 0h22.8c1.6 0 2.8-1.28 2.8-2.8 0-1.6-1.2-2.89-2.8-2.89h-18.4l19.6-25.67a5.44 5.44 0 001.28-3.36c0-2.23-1.84-3.92-4.32-3.92H8.64c-2.23 0-3.36 1.52-3.52 3.6l-.48 5.6c-.16 1.92.88 3.36 2.88 3.36 1.43 0 2.8-.87 3.12-2.64zm0 0"/></symbol><symbol overflow="visible" id="673016f2b"><path d="M27.13-8.95C23.84-6 20-4.8 17.27-4.8c-4.56 0-7.2-2.33-7.2-6.25 0-4 2.87-6.15 8.48-6.15h8.57zm0-13.05H18.3c-9.26 0-14.8 4.16-14.8 11.36C3.52-3.7 8.42.8 15.93.8 21.05.8 25.28-1.6 28-4.16l.56 2.32A2.93 2.93 0 0031.6.4c2 0 3.05-1.36 3.05-2.97 0-1.44-.8-2.96-.8-7.52v-15.76c0-6.88-3.36-13.6-14.64-13.6-3.04 0-7.68.64-10.56 2.08-1.52.8-2.33 1.6-2.33 2.8 0 1.36.97 2.72 2.82 2.72 1.03 0 2.3-.57 3.67-.96a18.88 18.88 0 015.84-1.12c6.48 0 8.48 3.6 8.48 8.08zm0 0"/></symbol><symbol overflow="visible" id="673016f2c"><path d="M18.23-34.16c2.33 0 4.64.57 6.9 1.44 1.35.56 2.39 1.13 3.51 1.13a2.5 2.5 0 002.64-2.57c0-1.36-1.05-2.32-2.56-3.04-2.64-1.36-7.77-2.24-10.95-2.24-6.57 0-13.2 3.6-13.2 11.03 0 7.77 7.66 10.1 12.79 11.61 4.87 1.52 8.4 2.8 8.4 6.49 0 3.36-2.71 5.75-7.68 5.75-2.49 0-5.2-.57-7.44-1.36-1.52-.49-2.72-1.03-3.84-1.03C4.88-6.95 4-5.6 4-4.15c0 1.1.64 2.07 2.48 2.87C9.52.08 14.88.8 18.16.8c7.92 0 14.32-4.08 14.32-11.28C32.48-17.92 26-20.16 20-22c-4.64-1.44-8.72-2.8-8.72-6.72 0-2.97 2.16-5.44 6.95-5.44zm0 0"/></symbol><symbol overflow="visible" id="673016f2d"><path d="M11.05-33.05h15.1L5.7-7.05A4.97 4.97 0 004.3-3.69C4.31-1.29 6.41 0 8.56 0h22.8c1.6 0 2.8-1.28 2.8-2.8 0-1.6-1.2-2.89-2.8-2.89h-18.4l19.6-25.67a5.44 5.44 0 001.28-3.36c0-2.23-1.84-3.92-4.32-3.92H8.64c-2.23 0-3.36 1.52-3.52 3.6l-.48 5.6c-.16 1.92.88 3.36 2.88 3.36 1.43 0 2.8-.87 3.12-2.64zM20-48.95L13.36-56a2.85 2.85 0 00-2.16-.95c-1.2 0-2.32.87-2.32 2.39 0 .87.48 1.69.96 2.15l6 6.41c1.11 1.2 2.4 2.08 4.16 2.08 1.77 0 3.13-.88 4.16-2.08l6-6.4c.48-.48.96-1.29.96-2.16 0-1.52-1.12-2.4-2.32-2.4-.88 0-1.52.32-2.16.96zm0 0"/></symbol><symbol overflow="visible" id="673016f2e"><path d="M11.2-17.77h22.16c1.52 0 2.64-.71 2.64-3.59 0-11.52-4.88-18.08-15.2-18.08-10.57 0-16.32 7.52-16.32 20C4.48-7.36 10.16.8 22.16.8c2.8 0 7.43-.64 10.4-2.08 1.28-.72 2.49-1.44 2.49-2.88 0-1.28-.97-2.56-2.74-2.56-1.26 0-2.47.56-3.9.95-1.93.57-4 1.05-6.25 1.05-7.85 0-10.96-5.69-10.96-13.05zm0-4.64c.4-6.23 3.36-11.51 9.6-11.51 6.64 0 8.8 4.8 8.97 11.51zm0 0"/></symbol><symbol overflow="visible" id="673016f2f"><path d="M6.64-2.95C6.64-1.05 8.08.4 10 .4a3.29 3.29 0 003.36-3.36V-29.7c2.87-2.39 6.48-4.23 9.44-4.23 5.43 0 7.76 2.97 7.76 9.05v21.92C30.56-1.05 32 .4 33.92.4a3.29 3.29 0 003.36-3.36v-21.93c0-10.89-5.36-14.56-13.2-14.56-3.52 0-8 1.92-11.52 5.13l-.64-2.49c-.33-1.28-1.28-2.25-3.04-2.25-2 0-3.04 1.46-3.04 3.2 0 1.2.8 3.37.8 6.9zm0 0"/></symbol><symbol overflow="visible" id="673016f2g"><path d="M4.4-19.28C4.4-7.84 10.49.8 21.53.8c11.12 0 17.12-8.64 17.12-20.08 0-11.6-6.16-20.16-17.12-20.16-10.88 0-17.11 8.56-17.11 20.16zM21.53-4.8c-6.57 0-10.4-6-10.4-14.48 0-8.72 3.83-14.64 10.4-14.64 6.56 0 10.4 5.92 10.4 14.64 0 8.48-3.84 14.48-10.4 14.48zm0 0"/></symbol><symbol overflow="visible" id="673016f2h"><path d="M3.83 0v-5.95H6.2v-.82H.45v.82h2.4V0zm0 0"/></symbol><symbol overflow="visible" id="673016f2i"><path d="M5.75-2.23v-.43c0-1.6-.9-2.51-2.42-2.51S.87-4.16.87-2.48c0 1.71.91 2.62 2.5 2.62 1.43 0 2.07-.56 2.29-1.52l-.9-.09c-.18.61-.59.9-1.35.9-.94 0-1.52-.54-1.58-1.66zm-2.4-2.2c.93 0 1.43.5 1.48 1.55H1.84c.08-1.07.6-1.56 1.5-1.56zm0 0"/></symbol><symbol overflow="visible" id="673016f2j"><path d="M1.83 0l1.42-2h.06l1.46 2H5.8L4-2.53l1.78-2.49H4.8L3.42-3.08h-.08l-1.4-1.94H.89l1.78 2.49L.84 0zm0 0"/></symbol><symbol overflow="visible" id="673016f2k"><path d="M5.52-4.25v-.77H3.17v-1.56h-.81l-.14 1.56H.75v.77h1.47v2.4c0 1.3.48 1.94 1.84 1.94C4.6.1 5.14 0 5.55-.14L5.4-.91c-.32.13-.72.2-1.13.2-.8 0-1.1-.37-1.1-1.23v-2.31zm0 0"/></symbol><symbol overflow="visible" id="673016f2l"><path d="M3.33-3.42c.47 0 .8-.27.8-.8 0-.51-.33-.8-.8-.8-.47 0-.8.29-.8.8 0 .53.33.8.8.8zm0 3.5c.47 0 .8-.27.8-.78 0-.53-.33-.82-.8-.82-.47 0-.8.29-.8.82 0 .51.33.78.8.78zm0 0"/></symbol><symbol overflow="visible" id="673016f2n"><path d="M5.55 0v-.75H2.3v-.06l3.2-3.49v-.72H1.2v.75H4.3v.07L1.11-.72V0zm0 0"/></symbol><symbol overflow="visible" id="673016f2o"><path d="M2.83.14c.94 0 1.5-.39 1.81-.95h.08l.1.81h.76v-3.38c0-1.23-.69-1.8-2.13-1.8-1.43 0-2.03.65-2.18 1.6l.93.1c.11-.6.44-.93 1.22-.93.85 0 1.22.32 1.22 1.04v.34l-1.81.2C1.6-2.7 1.1-2.17 1.1-1.28c0 .92.64 1.42 1.72 1.42zm.25-.77c-.67 0-1.02-.28-1.02-.74 0-.44.28-.72 1-.82l1.58-.19v.41c0 .8-.6 1.34-1.56 1.34zm0 0"/></symbol><symbol overflow="visible" id="673016f2p"><path d="M3.36.16c1.4 0 2.2-.6 2.2-1.57 0-.89-.54-1.22-1.47-1.39L3-3c-.67-.14-.86-.33-.86-.73 0-.5.4-.74 1.17-.74.83 0 1.19.27 1.27.8l.9-.05c-.12-1-.8-1.47-2.17-1.47-1.34 0-2.1.53-2.1 1.5 0 .81.45 1.22 1.52 1.44l1.04.2c.56.11.87.24.87.72 0 .52-.45.78-1.28.78-.95 0-1.36-.28-1.42-.87l-.9.06C1.07-.36 1.8.16 3.35.16zm0 0"/></symbol><symbol overflow="visible" id="673016f2q"><path d="M3.84-5.72l1.5-1.95h-.8L3.46-6.34h-.08L2.3-7.67h-.82l1.5 1.95zM5.54 0v-.75H2.32v-.06l3.2-3.49v-.72H1.2v.75H4.3v.07L1.11-.72V0zm0 0"/></symbol><symbol overflow="visible" id="673016f2r"><path d="M2.16 0v-2.67c0-.99.59-1.63 1.46-1.63.74 0 1.07.38 1.07 1.22V0h.95v-3.31c0-1.2-.56-1.85-1.67-1.85-.92 0-1.49.46-1.77 1.08h-.06l-.12-.94H1.2V0zm0 0"/></symbol><symbol overflow="visible" id="673016f2s"><path d="M3.33.14c1.62 0 2.5-.95 2.5-2.66 0-1.68-.88-2.64-2.5-2.64-1.63 0-2.5.96-2.5 2.64 0 1.7.87 2.66 2.5 2.66zm0-.77c-1.06 0-1.52-.6-1.52-1.89 0-1.28.46-1.87 1.52-1.87 1.08 0 1.53.6 1.53 1.87 0 1.29-.45 1.9-1.53 1.9zm0 0"/></symbol><symbol overflow="visible" id="673016f2t"><path d="M5.95-6.77H1.1V0h.99v-2.92H5.3v-.77H2.08v-2.26h3.87zm0 0"/></symbol><symbol overflow="visible" id="673016f2u"><path d="M2.73.14c.9 0 1.43-.45 1.74-1.08h.06l.13.94h.8v-5.02h-.94v2.7c0 .98-.57 1.62-1.46 1.62-.75 0-1.1-.4-1.1-1.22v-3.1h-.93v3.32c0 1.17.55 1.84 1.7 1.84zm0 0"/></symbol><symbol overflow="visible" id="673016f2v"><path d="M5.08-5.16c-.94 0-1.58.43-1.9 1.3h-.09l-.07-1.16H1.05v.77h1.1v3.48H.96V0h3.96v-.77H3.1v-1.46c0-1.36.6-2.05 1.83-2.05.4 0 .76.08 1.1.17l.15-.87c-.33-.11-.7-.18-1.11-.18zm0 0"/></symbol><symbol overflow="visible" id="673016f2w"><path d="M6.17 0L3.98-6.77h-1.3L.5 0h.97l.44-1.47h2.78L5.16 0zM3.28-5.94h.08l1.1 3.74H2.15zm0 0"/></symbol><symbol overflow="visible" id="673016f2x"><path d="M3.92-7.14H1.36v.76h1.6v5.61H1.15V0H5.7v-.77H3.92zm0 0"/></symbol><symbol overflow="visible" id="673016f2y"><path d="M3.58-5.81c.42 0 .72-.22.72-.67 0-.44-.3-.68-.72-.68-.44 0-.72.24-.72.68 0 .45.28.67.72.67zm.5.8H1.52v.76h1.6v3.48h-1.8V0h4.46v-.77h-1.7zm0 0"/></symbol><symbol overflow="visible" id="673016f2z"><path d="M3.9 0l2-5.02h-.96L3.4-.94h-.07L1.8-5.02H.77L2.78 0zm0 0"/></symbol><symbol overflow="visible" id="673016f2A"><path d="M4.63-6.5c.45 0 .98.08 1.39.2l.2-.72a5.3 5.3 0 00-1.64-.26c-1.52 0-2.16.56-2.16 1.87v.4H.9v.76h1.53V0h.94v-4.25h2.53v-.77H3.36v-.3c0-.84.33-1.18 1.27-1.18zm0 0"/></symbol><symbol overflow="visible" id="673016f2B"><path d="M1.63 0v-2.9c0-.8.15-1.4.71-1.4.41 0 .55.3.55.88V0h.95v-2.9c0-.8.18-1.4.72-1.4.4 0 .57.3.57.88V0h.95v-3.63c0-.92-.28-1.53-1.11-1.53-.63 0-.95.41-1.1.9h-.06c-.1-.52-.44-.9-1.08-.9-.6 0-.93.41-1.06.9H1.6l-.23-.76H.67V0zm0 0"/></symbol><symbol overflow="visible" id="673016f2C"><path d="M3.38-5.9c.12-.5.42-1.04.67-1.41l-.63-.22a4.28 4.28 0 00-1.01 2.39c0 .66.3 1 .9 1 .6 0 .9-.33.9-.9 0-.57-.32-.83-.83-.85zm0 0"/></symbol><symbol overflow="visible" id="673016f2D"><path d="M3.3-7.53c-.55 0-.85.3-.85.84 0 .55.36.8.83.8h.03a5.1 5.1 0 01-.69 1.47l.52.23a4.29 4.29 0 001.02-2.4c0-.63-.33-.94-.86-.94zm0 0"/></symbol><symbol overflow="visible" id="673016f2E"><path d="M1.45-2.95c0 2.56 1.08 4.37 3.67 4.84l.11-.67C3.28.86 2.43-.75 2.43-2.95s.85-3.82 2.8-4.16l-.1-.69c-2.6.49-3.68 2.3-3.68 4.85zm0 0"/></symbol><symbol overflow="visible" id="673016f2F"><path d="M3.33.14c1.65 0 2.6-1.1 2.6-3.52S4.99-6.9 3.34-6.9C1.67-6.9.72-5.8.72-3.37c0 2.4.95 3.51 2.6 3.51zm0-.84c-1.13 0-1.6-.85-1.6-2.67 0-1.86.47-2.7 1.6-2.7 1.12 0 1.6.84 1.6 2.7 0 1.82-.48 2.67-1.6 2.67zM3.3-2.64c.38 0 .56-.28.56-.72 0-.44-.18-.7-.56-.7-.39 0-.56.26-.56.7 0 .44.17.72.56.72zm0 0"/></symbol><symbol overflow="visible" id="673016f2G"><path d="M3.42.14c1.55 0 2.44-.84 2.44-2.33 0-1.45-.83-2.22-2.14-2.22-.75 0-1.28.27-1.67.72H2l.31-2.22h3.11v-.86H1.53l-.45 3.93h.81c.3-.36.9-.79 1.58-.79.92 0 1.44.43 1.44 1.47 0 .99-.54 1.5-1.49 1.5-.83 0-1.28-.32-1.5-1.01l-.95.1C1.07-.46 2 .13 3.42.13zm0 0"/></symbol><symbol overflow="visible" id="673016f2H"><path d="M1.45-7.1c1.96.33 2.8 1.94 2.8 4.15 0 2.2-.84 3.8-2.8 4.17l.11.67c2.58-.47 3.67-2.28 3.67-4.84 0-2.55-1.09-4.36-3.67-4.85zm0 0"/></symbol></defs><use xlink:href="#673016f2a" x="140.68" y="164" fill="#fff"/><g fill="#515151"><use xlink:href="#673016f2b" x="178.6" y="164"/><use xlink:href="#673016f2c" x="218.84" y="164"/><use xlink:href="#673016f2b" x="255.24" y="164"/></g><use xlink:href="#673016f2d" x="295.48" y="164" fill="#fff"/><g fill="#515151"><use xlink:href="#673016f2e" x="332.68" y="164"/><use xlink:href="#673016f2f" x="372.92" y="164"/><use xlink:href="#673016f2g" x="416.28" y="164"/></g><g fill="#fff"><use xlink:href="#673016f2h" x="253.3333" y="252"/><use xlink:href="#673016f2i" x="260.0003" y="252"/><use xlink:href="#673016f2j" x="266.6673" y="252"/><use xlink:href="#673016f2k" x="273.3343" y="252"/><use xlink:href="#673016f2l" x="280.0013" y="252"/><use xlink:href="#673016f2m" x="286.6683" y="252"/><use xlink:href="#673016f2n" x="293.3353" y="252"/><use xlink:href="#673016f2o" x="300.0023" y="252"/><use xlink:href="#673016f2p" x="306.6693" y="252"/><use xlink:href="#673016f2o" x="313.3363" y="252"/><use xlink:href="#673016f2q" x="320.0033" y="252"/><use xlink:href="#673016f2i" x="326.6703" y="252"/><use xlink:href="#673016f2r" x="333.3373" y="252"/><use xlink:href="#673016f2s" x="340.0043" y="252"/></g><g fill="#fff"><use xlink:href="#673016f2t" x="170" y="266"/><use xlink:href="#673016f2i" x="176.667" y="266"/><use xlink:href="#673016f2o" x="183.334" y="266"/><use xlink:href="#673016f2k" x="190.001" y="266"/><use xlink:href="#673016f2u" x="196.668" y="266"/><use xlink:href="#673016f2v" x="203.335" y="266"/><use xlink:href="#673016f2i" x="210.002" y="266"/><use xlink:href="#673016f2l" x="216.669" y="266"/><use xlink:href="#673016f2m" x="223.336" y="266"/><use xlink:href="#673016f2w" x="230.003" y="266"/><use xlink:href="#673016f2x" x="236.67" y="266"/><use xlink:href="#673016f2k" x="243.337" y="266"/><use xlink:href="#673016f2i" x="250.004" y="266"/><use xlink:href="#673016f2v" x="256.671" y="266"/><use xlink:href="#673016f2r" x="263.338" y="266"/><use xlink:href="#673016f2o" x="270.005" y="266"/><use xlink:href="#673016f2k" x="276.672" y="266"/><use xlink:href="#673016f2y" x="283.339" y="266"/><use xlink:href="#673016f2z" x="290.006" y="266"/><use xlink:href="#673016f2i" x="296.673" y="266"/><use xlink:href="#673016f2m" x="303.34" y="266"/><use xlink:href="#673016f2A" x="310.007" y="266"/><use xlink:href="#673016f2s" x="316.674" y="266"/><use xlink:href="#673016f2v" x="323.341" y="266"/><use xlink:href="#673016f2B" x="330.008" y="266"/><use xlink:href="#673016f2m" x="336.675" y="266"/><use xlink:href="#673016f2s" x="343.342" y="266"/><use xlink:href="#673016f2A" x="350.009" y="266"/><use xlink:href="#673016f2m" x="356.676" y="266"/><use xlink:href="#673016f2C" x="363.343" y="266"/><use xlink:href="#673016f2n" x="370.01" y="266"/><use xlink:href="#673016f2D" x="376.677" y="266"/><use xlink:href="#673016f2m" x="383.344" y="266"/><use xlink:href="#673016f2E" x="390.011" y="266"/><use xlink:href="#673016f2p" x="396.678" y="266"/><use xlink:href="#673016f2p" x="403.345" y="266"/><use xlink:href="#673016f2F" x="410.012" y="266"/><use xlink:href="#673016f2G" x="416.679" y="266"/><use xlink:href="#673016f2H" x="423.346" y="266"/></g></svg>