<?xml version='1.0' encoding='UTF-8'?>
<svg xmlns="http://www.w3.org/2000/svg" xmlns:xlink="http://www.w3.org/1999/xlink" width="450px" height="260px" viewBox="0 0 450 260" y="0px" x="0px" enable-background="new 0 0 450 260"><defs><symbol overflow="visible" id="27a8487ea"><path d="M1.172-7.063c0 4.11 2.187 7.297 6.5 7.297 1.562 0 3.047-.359 4.25-1l-.563-1.609c-1.046.469-2.203.766-3.39.766-3.485 0-4.625-2.75-4.625-5.61 0-1.781.437-3.578 1.578-4.765.734-.735 1.703-1.157 2.953-1.157 1.188 0 2.203.313 3.219.86l.781-1.594c-.969-.625-2.344-1.11-3.984-1.11-4.61 0-6.72 3.922-6.72 7.922zm0 0"/></symbol><symbol overflow="visible" id="27a8487eb"><path d="M1.61-10.313v7.032c0 2.297.984 3.594 3.187 3.594 1.297 0 2.422-.532 3.406-1.516L8.516.109l1.687-.218c-.156-2.36-.187-3.188-.187-4.079v-6.156H7.984v7.656c-.906.797-1.796 1.235-2.687 1.235-1.156 0-1.64-.766-1.64-2.578v-6.328zm0 0"/></symbol><symbol overflow="visible" id="27a8487ec"><path d="M1.297-7.484c.016 1.625 1.281 2.312 2.75 2.89 1.297.5 2.516.89 2.516 1.86 0 .828-.86 1.28-2.016 1.28-1 0-1.922-.327-2.828-.921L.875-1.031A6.111 6.111 0 0 0 4.641.234c2.421 0 4.03-1.265 4.03-3.187 0-1.828-1.483-2.485-3.155-3.078C4.312-6.484 3.39-6.86 3.39-7.72c0-.687.609-1.172 1.687-1.172.844 0 1.625.282 2.375.766l.89-1.313c-.843-.656-1.874-1.14-3.218-1.14-2.094 0-3.875 1.156-3.828 3.094zm0 0"/></symbol><symbol overflow="visible" id="27a8487ed"><path d="M2.625-13.422l-.469 3.078H.72v1.703h1.547v5.516c0 2.594.859 3.36 2.53 3.36.829 0 1.907-.172 2.845-.5l-.407-1.516a7.521 7.521 0 0 1-1.64.218c-1.016 0-1.297-.437-1.297-2.109V-8.64h3.156v-1.703H4.297v-3.078zm0 0"/></symbol><symbol overflow="visible" id="27a8487ee"><path d="M1.094-4.953c0 3.078 1.75 5.266 4.531 5.266 3.234 0 4.875-2.797 4.875-5.688 0-3.031-1.719-5.266-4.516-5.266-3.218 0-4.89 2.86-4.89 5.688zm7.312-.11c0 1.297-.328 2.329-.875 2.954a2.336 2.336 0 0 1-1.672.671c-1.765 0-2.671-1.546-2.671-3.796 0-1.407.359-2.422.906-3.016.328-.36.875-.656 1.672-.656 1.734 0 2.64 1.578 2.64 3.844zm0 0"/></symbol><symbol overflow="visible" id="27a8487ef"><path d="M1.547-10.297c.172 2.328.187 3.297.187 4.11V0h2.032v-7.672c.828-.703 1.78-1.234 2.718-1.234 1.125 0 1.485.781 1.485 2.75V0h2.015v-6.938c0-.25 0-.5-.015-.734.828-.703 1.781-1.234 2.719-1.234 1.124 0 1.484.781 1.484 2.75V0h2.015v-6.938c0-2.437-.859-3.703-2.921-3.703-1.454 0-2.532.594-3.579 1.672-.406-1.11-1.265-1.672-2.64-1.672-1.39 0-2.453.547-3.484 1.579l-.313-1.454zm0 0"/></symbol><symbol overflow="visible" id="27a8487eg"><path d="M1.688-10.313V0h2.03v-10.36zm-.282-3.218c0 .75.5 1.219 1.282 1.219.828 0 1.359-.563 1.359-1.376 0-.718-.484-1.234-1.25-1.234-.813 0-1.39.578-1.39 1.39zm0 0"/></symbol><symbol overflow="visible" id="27a8487eh"><path d="M1.281-10.344l.063 1.656h5.36L.921-1.516 1.14 0h8.015l-.062-1.656H3.406l5.813-7.14-.25-1.548zm0 0"/></symbol><symbol overflow="visible" id="27a8487ei"><path d="M1.313-8.906l.75 1.265c1.062-.734 2.187-1.187 3.171-1.187 1.235 0 1.72.687 1.72 2.734V-6c-2.329.188-3.735.516-4.626 1.078C1.453-4.375.875-3.469.875-2.359.875-.766 1.906.234 3.609.234c1.25 0 2.47-.546 3.516-1.484L7.453.125l1.703-.234C9-2.36 8.953-3.281 8.953-4.063v-2.625c0-2.734-1.031-3.89-3.297-3.89-1.718 0-3.187.672-4.343 1.672zm2.75 7.547c-.782 0-1.204-.438-1.204-1.266 0-.61.266-.984.61-1.219.469-.297 1.39-.531 3.484-.703v1.89c-1.016.829-2.047 1.298-2.89 1.298zm0 0"/></symbol><symbol overflow="visible" id="27a8487ej"><path d="M1.516-10.297c.171 2.281.218 3.281.218 4.11V0h2.032v-7.703c.89-.719 1.89-1.203 2.875-1.203 1.28 0 1.609.86 1.609 2.61V0h2.047v-7.063c0-2.28-.86-3.578-3.125-3.578-1.438 0-2.578.516-3.625 1.532l-.313-1.407zm0 0"/></symbol><symbol overflow="visible" id="27a8487ek"><path d="M2.36-12.469v2.125H.796v1.703h1.562L2.375 0h2.031v-8.64h2.532v-1.704H4.405v-2.422c0-1.359.485-2.187 1.672-2.187.719 0 1.375.281 1.86.562l.78-1.359c-.734-.547-1.609-.984-2.78-.984-2.438 0-3.579 1.859-3.579 4.265zm0 0"/></symbol><symbol overflow="visible" id="27a8487el"><path d="M1.984-14.734V0h1.891v-9.813l-.094-2.218h.047l.985 2.094L10.688 0h2.359v-14.734h-1.89v9.562l.077 2.547h-.015L10.14-4.891l-5.813-9.843zm0 0"/></symbol><symbol overflow="visible" id="27a8487en"><path d="M1.516-10.297c.171 2.328.218 3.281.218 4.11V0h2.032v-6.844c.703-1.125 1.578-1.578 2.578-1.578.406 0 .765.047 1.187.156l.36-1.921a2.703 2.703 0 0 0-1.438-.391c-1.172 0-2.094.719-2.828 1.969l-.39-1.907zm0 0"/></symbol><symbol overflow="visible" id="27a8487eo"><path d="M1.984-14.625V-.094c1.407.203 2.86.328 4 .328 3.938 0 5.891-1.796 5.891-4.484 0-1.969-1.094-3.203-2.969-3.625 1.485-.734 2.14-2.047 2.14-3.484 0-2.391-1.937-3.594-5.265-3.594-1.203 0-2.547.14-3.797.328zm3.891 6.11c-.5 0-1.078-.016-1.828-.016v-4.516a11.61 11.61 0 0 1 1.734-.125c1.969 0 3.11.61 3.11 2.235 0 .812-.282 1.593-1.016 2-.469.265-1.031.421-2 .421zm.219 6.953c-.61 0-1.297-.016-2.047-.094v-5.14h1.89c2.641 0 3.782.905 3.782 2.53 0 .829-.328 1.579-1.047 2.11-.531.375-1.281.594-2.578.594zm0 0"/></symbol><symbol overflow="visible" id="27a8487ep"><path d="M17.563-14.734L14.233-2.328h-.093l-.485-2.781-2.156-9.625H8.797L5.875-2.328h-.094L5.22-5.11l-2.516-9.625H.641c.062.5.28 1.218.484 1.953L4.531.047l2.547-.094 2.969-12.312h.094l.375 2.234L12.78.047l2.547-.094 3.703-12.64c.219-.797.5-1.547.594-2.047zm0 0"/></symbol><symbol overflow="visible" id="27a8487eq"><path d="M1.656-16.484v14.547c0 1.406.703 2.171 2 2.171.594 0 1.25-.125 1.89-.359L5.11-1.672c-.312.11-.578.156-.796.156-.438 0-.61-.265-.61-.921v-14.079zm0 0"/></symbol><symbol overflow="visible" id="27a8487er"><path d="M5.516-1.453C4-1.453 3.187-2.97 3.187-5.22c0-1.234.266-2.375.954-3.047.39-.421.968-.64 1.796-.64a4.2 4.2 0 0 1 2.157.562v5.61c-.86.796-1.719 1.28-2.578 1.28zM1.094-4.797C1.125-1.875 2.844.313 5.14.313c1.234 0 2.25-.594 3.171-1.547L8.626.109l1.688-.218c-.157-2.141-.172-3.016-.172-3.782v-12.625l-2.047.032v6.547c-.688-.454-1.344-.704-2.219-.704-3.11 0-4.797 2.97-4.781 5.844zm0 0"/></symbol><symbol overflow="visible" id="27a8487es"><path d="M1.39-10.828c0 2.594 2.079 3.437 4.11 4.234 1.766.625 3.297 1.188 3.297 2.766 0 1.656-1.61 2.265-3.235 2.265-1.406 0-2.75-.39-3.937-1.062L.859-1.031C1.953-.281 3.734.312 5.563.312c2.906 0 5.375-1.406 5.375-4.312 0-2.688-2.22-3.5-4.407-4.344C4.891-8.954 3.5-9.53 3.5-11c0-1.719 1.688-2.172 3.125-2.172 1.203 0 2.39.281 3.25.61l.625-1.579c-1.063-.562-2.453-.906-3.828-.906-2.672 0-5.281 1.281-5.281 4.219zm0 0"/></symbol><symbol overflow="visible" id="27a8487et"><path d="M1.094-4.906c0 3.343 1.937 5.14 4.578 5.14a8.92 8.92 0 0 0 3.812-.843L8.97-2.047c-.953.36-2.078.5-2.938.5-1.625 0-2.703-.922-2.843-3.094h6.359c.11-.53.172-1.171.172-1.734 0-2.422-1.25-4.25-3.828-4.25-2.97 0-4.797 2.531-4.797 5.719zm4.64-4.047c1.329 0 1.97.906 1.97 2.203 0 .219 0 .453-.032.672H3.219c.219-1.781 1.047-2.875 2.515-2.875zm0 0"/></symbol><symbol overflow="visible" id="27a8487eu"><path d="M8.14-10.344L5.454-2.156h-.078a17.6 17.6 0 0 0-.578-2.094l-2.031-6.094H.703c0 .36.094.688.203 1.031L4.25.017l2.203-.032 3.469-9.296c.11-.329.219-.657.219-1.032zm0 0"/></symbol><symbol overflow="visible" id="27a8487ev"><path d="M1.125-4.89c0 3.202 1.75 5.124 4.64 5.124.985 0 2.157-.25 3.25-.765l-.453-1.516c-.921.328-1.812.5-2.53.5-1.813 0-2.845-1.11-2.845-3.578 0-1.5.376-2.64 1.079-3.219.39-.297.875-.5 1.515-.5.813 0 1.563.328 2.407.969l.937-1.234c-.828-.97-1.844-1.47-3.203-1.47-2.906 0-4.797 2.313-4.797 5.688zm0 0"/></symbol></defs><path fill="#212121" d="M0 0h450v260H0z"/><use xlink:href="#27a8487ea" x="108.2699" y="175" fill="#fff"/><use xlink:href="#27a8487eb" x="120.8759" y="175" fill="#fff"/><use xlink:href="#27a8487ec" x="132.7339" y="175" fill="#fff"/><use xlink:href="#27a8487ed" x="142.5019" y="175" fill="#fff"/><use xlink:href="#27a8487ee" x="150.8399" y="175" fill="#fff"/><use xlink:href="#27a8487ef" x="162.5439" y="175" fill="#fff"/><use xlink:href="#27a8487eg" x="180.4739" y="175" fill="#fff"/><use xlink:href="#27a8487eh" x="185.9959" y="175" fill="#fff"/><use xlink:href="#27a8487ei" x="196.3579" y="175" fill="#fff"/><use xlink:href="#27a8487ed" x="207.0719" y="175" fill="#fff"/><use xlink:href="#27a8487eg" x="215.4099" y="175" fill="#fff"/><use xlink:href="#27a8487ee" x="220.9319" y="175" fill="#fff"/><use xlink:href="#27a8487ej" x="232.6359" y="175" fill="#fff"/><use xlink:href="#27a8487ee" x="249.4659" y="175" fill="#fff"/><use xlink:href="#27a8487ek" x="261.0379" y="175" fill="#fff"/><use xlink:href="#27a8487el" x="273.0719" y="175" fill="#fff"/><use xlink:href="#27a8487ei" x="288.1419" y="175" fill="#fff"/><use xlink:href="#27a8487ec" x="298.8559" y="175" fill="#fff"/><use xlink:href="#27a8487ec" x="308.6239" y="175" fill="#fff"/><use xlink:href="#27a8487eg" x="318.3919" y="175" fill="#fff"/><g fill="#fff"><use xlink:href="#27a8487ef" x="323.9139" y="175"/><use xlink:href="#27a8487em" x="341.7339" y="175"/></g><g fill="#fff"><use xlink:href="#27a8487ek" x="122.1079" y="203.006"/><use xlink:href="#27a8487ee" x="129.4999" y="203.006"/></g><use xlink:href="#27a8487en" x="141.2039" y="203.006" fill="#fff"/><use xlink:href="#27a8487em" x="149.1019" y="203.006" fill="#fff"/><use xlink:href="#27a8487eo" x="153.9199" y="203.006" fill="#fff"/><use xlink:href="#27a8487eo" x="166.9879" y="203.006" fill="#fff"/><use xlink:href="#27a8487ea" x="180.0559" y="203.006" fill="#fff"/><g fill="#fff"><use xlink:href="#27a8487em" x="192.8819" y="203.006"/><use xlink:href="#27a8487ep" x="197.4359" y="203.006"/></g><use xlink:href="#27a8487ee" x="216.6859" y="203.006" fill="#fff"/><use xlink:href="#27a8487en" x="228.3899" y="203.006" fill="#fff"/><use xlink:href="#27a8487eq" x="236.7499" y="203.006" fill="#fff"/><use xlink:href="#27a8487er" x="242.7559" y="203.006" fill="#fff"/><use xlink:href="#27a8487em" x="254.7239" y="203.006" fill="#fff"/><use xlink:href="#27a8487es" x="259.5419" y="203.006" fill="#fff"/><use xlink:href="#27a8487et" x="271.5759" y="203.006" fill="#fff"/><use xlink:href="#27a8487en" x="282.5099" y="203.006" fill="#fff"/><use xlink:href="#27a8487eu" x="290.8699" y="203.006" fill="#fff"/><use xlink:href="#27a8487eg" x="301.7599" y="203.006" fill="#fff"/><use xlink:href="#27a8487ev" x="307.2819" y="203.006" fill="#fff"/><use xlink:href="#27a8487et" x="317.0719" y="203.006" fill="#fff"/><path d="M259.336 62.469h52.637v49.527h-52.637zm33.156 6.883c-.215-.028-.46-.07-.707-.11l-.277-.047c-.399-.043-.817-.093-1.219-.136a38.32 38.32 0 0 0-.84-.059 27.28 27.28 0 0 0-1.46-.05l-.563.015c-.399.008-.785.027-1.153.05l-.652.044a16.41 16.41 0 0 0-.93.109l-.246.027-.293.047-.343.055-.461.07-.606.125a20.967 20.967 0 0 0-3.472 1.043c-.551.2-1.094.442-1.582.688-.422.191-.82.398-1.215.64-.364.219-.739.434-1.078.66l-.582.407-.493.36c-.332.26-.648.519-.957.784-.27.246-.554.5-.804.762l-.649.672c-.215.234-.422.48-.62.726-.228.258-.43.54-.645.836l-.434.649-.3.441a18.689 18.689 0 0 0-1.411 2.875 17.267 17.267 0 0 0-1.043 4.125c-.066.461-.133.934-.144 1.414-.016.364-.036.735-.036 1.114 0 .273 0 .562.028.835.011.274.02.575.062.852l.024.2c.05.331.093.655.156.98l.082.394c.055.262.113.531.187.79.102.347.192.679.301 1.011.149.39.278.793.45 1.168.242.605.53 1.184.82 1.738.18.324.36.64.543.93.164.25.308.473.465.7.207.308.421.581.62.859.231.289.462.558.696.82.273.316.547.613.816.879l.153.152c.242.227.472.45.754.684l.617.52.633.48c.257.191.543.37.832.574.32.203.648.394 1.011.598a20.76 20.76 0 0 0 2.301 1.105c.324.121.645.238.98.352.333.125.672.226 1.032.332.598.175 1.242.328 1.902.457.543.101 1.113.195 1.688.257.582.067 1.172.118 1.789.16.297.012.61.02.894.02l.446.016c1.097 0 2.14-.047 3.09-.13l.171-.026c.39-.016.75-.067 1.094-.094a43.26 43.26 0 0 0 1.563-.239c.308-.054.601-.109.906-.18.445-.089.887-.206 1.293-.312.297-.078.586-.175.887-.246.324-.11.656-.215.968-.328l.285-.098c.16-.054.36-.132.606-.222.316-.125.695-.266 1.133-.453.254-.125.543-.246.824-.371.25-.122.543-.258.8-.38l.344-.175V95.55l-.226.14-.488.282c-.454.28-.895.539-1.34.785-.496.262-.965.52-1.438.734-.84.39-1.644.723-2.422 1.012-1.472.52-2.828.84-4.011 1.07l-.422.07c-.332.051-.645.09-.946.118-.48.058-.906.07-1.296.097-.262.016-.5.016-.723.016-.477 0-.98-.016-1.469-.05-.594-.04-1.203-.09-1.793-.212-.98-.16-1.96-.41-2.922-.75l-.422-.168-.273-.12-.477-.2c-.316-.16-.668-.336-.98-.516l-.469-.28-.484-.313-.586-.43-.524-.438-.218-.187-.117-.11-.051-.062-.09-.074c-.309-.3-.594-.61-.852-.922l-.386-.504-.352-.508-.305-.472-.378-.72-.266-.609a8.108 8.108 0 0 1-.383-.996c-.07-.257-.148-.52-.21-.746-.188-.71-.259-1.363-.317-1.91l-.04-.574c-.019-.281-.019-.527-.019-.695v-.43c.024-.39.05-.879.149-1.442.035-.335.097-.69.195-1.082.062-.246.137-.5.223-.78l.242-.72.203-.511.328-.672.289-.531c.227-.395.477-.77.758-1.145l.324-.402.465-.524.238-.261a14.066 14.066 0 0 1 4.059-2.82l.68-.274.695-.25c.25-.098.5-.168.758-.238l.703-.176.71-.149c.262-.054.536-.097.786-.125.273-.027.515-.058.773-.086.492-.035.985-.058 1.461-.058h.457c.348.008.696.023 1.04.043l.667.047c.43.039.832.097 1.23.152.337.05.684.117 1.005.176.472.094.921.203 1.312.3.274.075.5.145.719.22.32.085.621.171.82.257.38.125.582.203.582.203.332.117.66.242.977.371.433.176.84.364 1.234.543.324.14.645.297.93.434l.68.348c.37.187.675.359.94.492l.696.398v-6.64s-.426-.172-1.144-.446c-.32-.117-.68-.265-1.098-.402-.246-.086-.492-.176-.766-.27l-.64-.222c-.254-.063-.52-.172-.778-.246l-.613-.172-.176-.059-.605-.172c-.246-.062-.484-.117-.73-.191l-.481-.11c-.262-.05-.516-.109-.777-.175-.286-.059-.567-.102-.856-.16M218.883 89.781v9.75h6.32l.344-.023c.207 0 .492-.024.871-.055a10.49 10.49 0 0 0 2.465-.476c.797-.27 1.566-.672 2.148-1.266l.578-.703c.493-.79.606-1.563.641-2.024l.012-.308v-.239c-.012-.187-.024-.546-.133-.94a3.643 3.643 0 0 0-.734-1.481l-.235-.282-.57-.492a6.05 6.05 0 0 0-1.168-.664c-.582-.246-1.219-.41-1.91-.558-.36-.07-.742-.114-1.117-.157-.235-.023-.48-.043-.743-.058l-.664-.024zm0 0M218.883 74.984v9.23h3.05s.215 0 .485-.01l.68-.024c.64-.059 1.5-.137 2.382-.387l.504-.16c.68-.238 1.352-.606 1.856-1.102a3.99 3.99 0 0 0 .844-1.273 4.715 4.715 0 0 0 .312-1.383c.047-.332.031-.527.031-.527l-.007-.387c-.024-.406-.09-1.055-.418-1.695a3.325 3.325 0 0 0-.66-.875 3.77 3.77 0 0 0-1.196-.79c-.86-.386-1.848-.538-2.687-.593-.356-.024-.668-.024-.961-.024zm0 0" fill="#fff"/><path d="M198.68 62.469h52.648V112H198.68zm13.82 6.945v35.684h13.43s6.547.168 10.16-3.45c2.937-2.933 2.722-6.347 2.722-6.347s.215-3.547-2.5-6.274c-2.335-2.32-5.289-2.933-5.289-2.933s1.34-.645 2.368-1.668c.476-.489 2.187-2.031 2.187-5.797 0-3.781-2.508-5.957-2.508-5.957s-2.773-3.258-8.996-3.258zm0 0M158.219 89.781v9.75h6.332l.332-.023c.215 0 .504-.024.883-.055a10.49 10.49 0 0 0 2.464-.476c.778-.27 1.567-.672 2.149-1.266l.566-.703c.493-.79.618-1.563.653-2.024l.007-.308v-.239c0-.187-.027-.546-.132-.94a3.669 3.669 0 0 0-.727-1.481l-.25-.282-.566-.492a6.169 6.169 0 0 0-1.168-.664c-.575-.246-1.211-.41-1.91-.558-.356-.07-.735-.114-1.118-.157-.246-.023-.48-.043-.734-.058l-.664-.024zm0 0M158.219 74.984v9.23h3.058s.215 0 .493-.01l.68-.024c.628-.059 1.495-.137 2.374-.387l.508-.16c.676-.238 1.324-.606 1.836-1.102.41-.398.672-.844.86-1.273.214-.524.288-1.031.316-1.383.031-.332.031-.527.031-.527l-.008-.387c-.023-.406-.11-1.055-.422-1.695a3.483 3.483 0 0 0-.656-.875 4.072 4.072 0 0 0-1.2-.79c-.866-.386-1.85-.538-2.679-.593-.37-.024-.691-.024-.972-.024zm0 0" fill="#fff"/><path d="M138.027 62.469h52.633V112h-52.633zm13.801 6.945v35.684h13.43s6.566.168 10.172-3.45c2.953-2.933 2.738-6.347 2.738-6.347s.215-3.547-2.523-6.274c-2.32-2.32-5.282-2.933-5.282-2.933s1.344-.645 2.367-1.668c.493-.489 2.192-2.031 2.192-5.797 0-3.781-2.512-5.957-2.512-5.957s-2.765-3.258-8.992-3.258zm0 0" fill="#fff"/></svg>