<?xml version='1.0' encoding='UTF-8'?>
<svg xmlns="http://www.w3.org/2000/svg" xmlns:xlink="http://www.w3.org/1999/xlink" width="2880px" height="1100px" viewBox="0 0 2880 1100" y="0px" x="0px" enable-background="new 0 0 2880 1100"><defs><symbol overflow="visible" id="9ddf09d9a"><path d="M146.063-235.906l-31.97 38.031 10.47 28.11c-47.391 21.5-76.61 44.64-86.532 57.874-7.172 9.375-12.125 24.25-12.125 36.375 0 25.907 31.969 55.125 62.828 55.125 18.204 0 29.766-6.062 45.75-25.359l13.235-14.875c11.015 44.64 37.484 64.484 81.578 64.484 9.375 0 18.734-11.578 18.734-29.218 0-17.641-9.36-29.766-18.734-29.766-29.766 0-41.344-11.016-50.156-58.969-12.125-65.047-20.407-94.25-33.078-121.812zm-12.125 102.515c3.859 16.532 7.171 36.375 9.375 53.47-7.172 4.405-18.75 9.374-33.079 9.374-25.906 0-44.093-12.687-52.359-28.11C70-109.14 97.563-122.358 133.938-133.39zm60.625-161.5C183-301.5 164.25-315.28 154.327-327.953l-25.344 34.172c-11.03-7.172-24.812-20.953-32.53-31.422L67.25-288.266c9.36 13.782 27.547 27 40.234 32.516l22.047-30.313c9.375 11.016 24.25 22.047 35.828 27.563zm0 0"/></symbol><symbol overflow="visible" id="9ddf09d9b"><path d="M80.469-368.188c.562 4.954 1.11 11.016 1.11 15.422 0 15.438-4.407 24.266-12.673 24.266-7.172 0-12.687-8.828-12.687-30.875L44.64-350c-.547 2.75-2.203 12.672-2.203 23.703-3.297 6.61-9.36 13.219-14.876 13.219-6.625 0-10.468-5.516-10.468-21.5 0-3.297.547-8.266 1.093-12.125l-12.125 9.922c-4.406 9.375-7.171 21.5-7.171 31.969 0 20.406 8.828 32.53 19.297 32.53 11.03 0 22.046-11.577 29.218-36.937 3.297 9.922 11.016 15.985 20.39 15.985 15.985 0 30.86-16.532 30.86-43.547 0-10.469-2.203-19.844-4.406-25.344zm-95.906 18.735c34.171-17.094 80.484-35.281 113.546-45.203l13.782-29.203C68.906-411.734 22.594-393-4.406-377.016c-2.203 3.86-10.469 19.844-11.032 27.563zm0 0"/></symbol><symbol overflow="visible" id="9ddf09d9c"><path d="M68.344-109.688l3.312 23.704C54.562-63.938 31.422-55.125 0-55.125c-8.813 0-14.875 9.922-14.875 29.219 0 20.39 6.61 29.765 14.875 29.765 38.578 0 65.594-20.953 82.125-55.672h.547c18.75 36.376 47.406 55.672 95.36 55.672 9.921 0 19.296-11.578 19.296-29.218 0-17.641-9.375-29.766-19.297-29.766-45.187 0-73.86-22.047-88.187-78.813h-1.656zM156.53 71.656c-11.562-6.61-30.312-20.39-40.234-33.078L90.953 72.75c-11.031-7.156-24.812-20.938-32.531-31.406L29.219 78.266c9.36 13.78 27.547 27.015 40.234 32.515L91.5 80.47c9.375 11.031 24.25 22.047 35.828 27.562zm0 0"/></symbol><symbol overflow="visible" id="9ddf09d9d"><path d="M-2.203 206.14c34.172-17.077 80.469-35.265 113.547-45.187l13.219-29.219c-42.438 12.125-88.735 30.86-115.75 46.844-2.204 3.86-10.47 19.844-11.016 27.563zm0 0"/></symbol><symbol overflow="visible" id="9ddf09d9e"><path d="M89.297-67.797C73.859-60.078 38.578-55.125 0-55.125c-8.813 0-14.875 12.125-14.875 30.328C-14.875-5.516-7.172 3.86 0 3.86c44.64 0 83.781-13.234 116.297-39.687C144.969-9.922 180.234 3.859 230.953 3.859c9.36 0 19.281-11.578 19.281-29.218 0-17.641-9.922-29.766-19.28-29.766-49.063 0-72.22-5.5-87.095-12.125 23.703-22.594 34.72-44.64 34.72-62.281 0-16.531-21.485-27.563-50.157-27.563-25.906 0-49.61 4.969-74.406 12.688l-11.578 39.125c19.296 7.172 40.234 21.5 46.859 37.484zm0 0"/></symbol><symbol overflow="visible" id="9ddf09d9f"><path d="M68.344-109.688l3.312 23.704C54.562-63.938 31.422-55.125 0-55.125c-8.813 0-14.875 9.922-14.875 29.219 0 20.39 6.61 29.765 14.875 29.765 38.578 0 65.594-20.953 82.125-55.672h.547c18.75 36.376 47.406 55.672 95.36 55.672 9.921 0 19.296-11.578 19.296-29.218 0-17.641-9.375-29.766-19.297-29.766-45.187 0-73.86-22.047-88.187-78.813h-1.656zM127.875 72.75c-12.125-6.61-31.422-20.938-41.89-34.172L55.124 76.61c9.922 14.891 29.203 28.11 42.438 34.172zm0 0"/></symbol><symbol overflow="visible" id="9ddf09d9g"><path d="M18.188-314.734c.546 7.171 2.75 16.546 6.062 22.046 1.11 26.47 2.766 43.547 6.61 71.657 3.312 28.11 5.515 57.875 5.515 100.328 0 17.625-.547 41.89-1.656 54.016l-5.5 11.562H0c-8.813 0-14.875 11.578-14.875 29.219C-14.875-7.172-7.719 3.859 0 3.859h62.828c86 0 130.094-11.03 157.094-31.968 16.531 21.5 37.484 31.968 65.594 31.968 9.375 0 19.296-11.578 19.296-29.218 0-17.641-9.921-29.766-19.296-29.766-11.579 0-25.907-.547-37.485-4.953 11.578-17.64 18.188-35.828 18.188-45.75 0-45.203-32.516-84.875-68.89-84.875-46.298 0-92.61 43.531-131.735 108.578h-1.656c4.406-17.094 8.812-55.125 8.812-78.828 0-28.656-1.094-64.484-1.094-95.344l30.313-18.187c-16.531-13.235-35.828-45.204-41.344-67.797zM66.14-55.125c31.421-39.125 82.125-76.61 116.859-76.61 27 0 47.39 20.954 54.016 51.266-22.61 14.875-72.203 25.344-127.875 25.344zm0 0"/></symbol><symbol overflow="visible" id="9ddf09d9h"><path d="M27.563-314.734c.546 6.625 2.75 16.546 5.515 22.609 1.094 36.375 5.5 77.156 10.469 124.563 2.75 32.515 6.61 71.656 7.719 104.734-9.922 4.953-29.22 7.703-51.266 7.703-8.813 0-14.875 10.484-14.875 29.766C-14.875-7.72-8.265 3.859 0 3.859c33.625 0 57.875-10.468 72.75-35.28C84.328-50.157 88.734-74.97 88.734-94.25c0-18.188-2.203-44.656-3.843-74.969-1.657-30.86-2.766-60.625-2.766-87.078l30.313-18.187c-16.532-13.235-35.266-44.657-41.329-67.797zm0 0"/></symbol><symbol overflow="visible" id="9ddf09d9i"><path d="M-4.953-350c34.172-17.094 80.469-35.281 113.531-45.203l13.781-29.219c-42.984 12.14-89.28 30.875-116.296 46.86C3.858-373.704-4.408-357.72-4.954-350zm0 0"/></symbol><symbol overflow="visible" id="9ddf09d9j"><path d="M82.125-332.922l-.547-.547-46.86 38.031c0 29.766 3.86 81.032 8.282 126.782 3.844 44.094 6.61 100.86 6.61 180.234h13.218c9.922-12.125 18.203-28.11 22.063-39.14 2.75-9.922 4.406-22.594 4.406-51.813 0-30.313-1.656-62.828-3.86-104.172-1.656-43.547-3.312-90.39-3.312-133.39zm0 0"/></symbol><symbol overflow="visible" id="9ddf09d9l"><path d="M63.39 0c12.672-4.406 39.688-8.813 68.344-8.813 28.657 0 73.86 5.5 94.797 11.016l27.016-62.281c-23.703-63.938-77.172-106.375-117.406-106.375-30.86 0-61.172 40.234-61.172 78.812 0 15.985 2.203 23.704 5.5 36.938-29.766 10.469-52.36 36.375-52.36 69.437 0 16.547 5.516 38.032 13.782 70.563 13.78 55.672 19.297 76.062 23.156 109.687l12.672 3.297c7.719-12.672 10.469-23.703 10.469-40.781 0-17.094-3.86-41.344-8.813-67.797C73.859 61.187 67.25 31.422 63.391 0zm41.891-57.328c-2.765-6.61-3.86-14.875-3.86-20.39 0-18.735 11.579-35.829 28.11-35.829 24.797 0 62.281 25.36 83.781 57.875l-.546 1.656c-12.688-2.75-44.11-7.172-61.735-7.172-16.547 0-31.422.563-45.75 3.86zm0 0"/></symbol><symbol overflow="visible" id="9ddf09d9m"><path d="M1.656 84.89l9.375 14.329 87.625 16.531C149.922 82.672 174.172 41.89 183 3.86h23.703c9.906 0 19.281-11.579 19.281-29.22 0-17.64-9.375-29.765-19.28-29.765H185.75c-5.516-63.938-36.922-105.828-71.11-104.719-30.859.547-63.374 40.781-63.374 81.578 0 43.547 38.03 79.375 99.765 82.125C139.453 30.312 93.703 63.937 1.656 84.891zM73.86-78.811c3.86-16.547 19.297-29.22 35.282-29.22 23.14 0 41.328 19.844 49.593 52.907-7.156 1.11-17.078 1.656-24.797 1.656-29.765 0-52.906-11.578-60.078-25.343zm0 0"/></symbol><symbol overflow="visible" id="9ddf09d9n"><path d="M-15.984-326.297l13.78 8.266c3.86 2.75 10.47 5.515 16.532 5.515 16.531 0 37.484-11.03 50.156-23.156 5.516 1.656 11.579 2.75 20.954 2.75l11.578-24.797c-6.625 0-12.688 0-17.641-.547 4.953-8.828 6.61-14.343 6.61-22.609 0-20.938-17.079-43.547-39.141-43.547-13.219 0-27 11.578-27 31.969 0 15.984 7.718 32.531 20.937 44.656-11.562 7.719-31.968 15.985-56.765 21.5zm88.187-52.375c-2.75 6.063-7.156 12.125-12.672 17.094-11.031-3.86-19.843-12.672-19.843-21.5 0-6.063 3.859-9.922 9.921-9.922 8.266 0 17.641 6.063 22.594 14.328zm0 0"/></symbol><symbol overflow="visible" id="9ddf09d9o"><path d="M47.406-82.125c-10.484 20.39-26.468 27-47.406 27-9.922 0-18.188 11.578-18.188 29.766C-18.188-7.172-11.03 3.859 0 3.859c24.797 0 43.547-17.64 53.469-54.015C61.734-15.438 86.53 3.859 124.016 3.859c8.828 0 18.734-11.578 18.734-29.218 0-17.641-9.36-29.766-18.734-29.766-25.907 0-39.125-11.016-39.125-78.266 0-72.203-1.657-158.187-7.172-208.89L35.28-305.36C41.891-259.61 46.844-183 47.406-82.125zm0 0"/></symbol><symbol overflow="visible" id="9ddf09d9p"><path d="M53.469-424.422c-19.297 0-37.485 23.156-37.485 55.125 0 26.453 13.235 41.344 35.282 41.344 21.484 0 38.03-22.047 38.03-50.156 0-25.36-15.984-46.313-35.827-46.313zm18.187 53.469c-3.86 7.172-12.672 12.687-20.39 12.687-10.485 0-17.094-6.062-17.094-16.546 0-11.016 6.062-19.844 15.437-19.844s17.641 8.281 22.047 23.703zm0 0"/></symbol></defs><path fill="#b9001a" d="M0 0h2880v1100H0z"/><path d="M-132.25 706.117h3165.996" fill="none" stroke-linecap="round" stroke-linejoin="round" stroke="#fff" stroke-dasharray="0,2.001"/><path d="M3034.746 706.117" fill="none" stroke-linecap="round" stroke-linejoin="round" stroke="#fff"/><path d="M-132.25 543.02h3165.996" fill="none" stroke-linecap="round" stroke-linejoin="round" stroke="#fff" stroke-dasharray="0,2.001"/><path d="M3034.746 543.02" fill="none" stroke-linecap="round" stroke-linejoin="round" stroke="#fff"/><path d="M-132.25 363.395h3165.996" fill="none" stroke-linecap="round" stroke-linejoin="round" stroke="#fff" stroke-dasharray="0,2.001"/><path d="M3034.746 363.395" fill="none" stroke-linecap="round" stroke-linejoin="round" stroke="#fff"/><path d="M-132.25 646.031h3165.996" fill="none" stroke-linecap="round" stroke-linejoin="round" stroke="#fff" stroke-dasharray="0,2.001"/><path d="M3034.746 646.031" fill="none" stroke-linecap="round" stroke-linejoin="round" stroke="#fff"/><path d="M-132.25 322.887h3165.996" fill="none" stroke-linecap="round" stroke-linejoin="round" stroke="#fff" stroke-dasharray="0,2.001"/><path d="M3034.746 322.887" fill="none" stroke-linecap="round" stroke-linejoin="round" stroke="#fff"/><path d="M-148.746 816.645H3017.25" fill="none" stroke-linecap="round" stroke-linejoin="round" stroke="#fff" stroke-dasharray="0,2.001"/><path d="M3018.25 816.645" fill="none" stroke-linecap="round" stroke-linejoin="round" stroke="#fff"/><use xlink:href="#9ddf09d9a" x="88.0352" y="700.9335" fill="#fff"/><use xlink:href="#9ddf09d9b" x="341.580898" y="804.556524"/><use xlink:href="#9ddf09d9c" x="316.777515" y="700.9335" fill="#fff"/><use xlink:href="#9ddf09d9d" x="538.354407" y="632.035213"/><g fill="#fff"><use xlink:href="#9ddf09d9e" x="494.810689" y="700.9335"/><use xlink:href="#9ddf09d9c" x="725.757749" y="700.9335"/></g><use xlink:href="#9ddf09d9d" x="933.003798" y="715.81553"/><use xlink:href="#9ddf09d9f" x="903.790924" y="700.9335" fill="#fff"/><use xlink:href="#9ddf09d9b" x="1070.800373" y="618.255555"/><g fill="#fff"><use xlink:href="#9ddf09d9g" x="1081.824099" y="700.9335"/><use xlink:href="#9ddf09d9h" x="1367.338602" y="700.9335"/></g><use xlink:href="#9ddf09d9i" x="1500.725687" y="719.122648"/><use xlink:href="#9ddf09d9j" x="1499.072128" y="700.9335" fill="#fff"/><g fill="#fff"><use xlink:href="#9ddf09d9k" x="1613.167692" y="700.9335"/><use xlink:href="#9ddf09d9l" x="1710.176481" y="700.9335"/><use xlink:href="#9ddf09d9m" x="1970.887601" y="700.9335"/></g><use xlink:href="#9ddf09d9n" x="2186.401444" y="648.570802"/><use xlink:href="#9ddf09d9o" x="2177.582463" y="700.9335" fill="#fff"/><use xlink:href="#9ddf09d9n" x="2360.576315" y="799.044661"/><use xlink:href="#9ddf09d9e" x="2301.599381" y="700.9335" fill="#fff"/><use xlink:href="#9ddf09d9p" x="2530.341695" y="649.121988"/><use xlink:href="#9ddf09d9h" x="2532.54644" y="700.9335" fill="#fff"/><use xlink:href="#9ddf09d9i" x="2665.933525" y="719.122648"/><use xlink:href="#9ddf09d9j" x="2664.279966" y="700.9335" fill="#fff"/></svg>