<?xml version='1.0' encoding='UTF-8'?>
<svg xmlns="http://www.w3.org/2000/svg" xmlns:xlink="http://www.w3.org/1999/xlink" width="600px" height="300px" viewBox="0 0 600 300" x="0px" y="0px" enable-background="new 0 0 600 300"><defs><symbol overflow="visible" id="bb689768a"><path d="M26.56-41.52a65.69 65.69 0 00-3.6 22.65h-.16a34.94 34.94 0 01-.49-5.7c0-2 .17-4.07.4-6.15-10.55.08-16.15 8.56-16.15 17.13 0 8.64 5.67 17.18 17.85 17.18 13.51 0 20.15-5.03 20.15-16.46 0-1.2-.08-2.57-.25-3.93-4.95-.56-7.51-1.76-10.31-3.92v-.16A23.55 23.55 0 0045.2-18c7.44 0 11.2-4 11.2-9.28 0-2-.56-4.16-1.6-6.4a19.59 19.59 0 01-7.52 1.52 19.9 19.9 0 01-11.84-4.07l.08-.25A20.72 20.72 0 0046-33.44c10.56 0 18.64-7.84 18.64-16.72 0-2.8-.72-5.6-2.48-8.4-3.68 2.08-7.85 2.87-12.08 2.87-9.6 0-19.77-3.75-26.95-3.75-13.54 0-21.54 6.24-21.54 15.52 0 7.2 4.82 12.23 12.49 12.23 2.56 0 6.64-.8 9.2-2 .49-2.54 1.2-5.1 1.92-7.03-2.15-1.76-5.76-3.12-8.97-3.51v-.18c3.46.1 7.61 1.53 10.33 2.9zM23.28-14a23 23 0 003.28 10.16h-.15c-1.93-1.44-3.54-4.47-3.54-7.93 0-.71.08-1.43.25-2.23zm0 0"/></symbol><symbol overflow="visible" id="bb689768c"><path d="M30.48 1.52C42 1.52 46.41-18.23 46.41-23.2c0-2.08-.82-3.03-2.1-3.28-1.67 3.84-3.44 8.4-6.15 11.84 2.64-6.72 3.68-14.56 3.68-17.77 0-5.59-2.4-8.72-7.84-8.72-13.6 0-17.28 19.77-18.4 32.49h-.16c.56-12.4 2.97-22.64 7.84-28.64a12.95 12.95 0 00-9.51-3.84C5.28-41.13.8-34 .8-18.32.8-5.04 5.28 1.53 12.3 1.53c5.46 0 7.77-3.75 8.56-6.32a23.36 23.36 0 01-1.03-6.56c0-5.2.96-13.36 5.75-21.69l.25.1c-2.71 5.75-4.96 14.3-4.96 21.26 0 7.13 3.04 13.2 9.6 13.2zm0 0"/></symbol><symbol overflow="visible" id="bb689768d"><path d="M17.05 1.52c19.1 0 23.6-16.24 23.6-23.75 0-2.57-.73-4.25-2-4.25-2.34 6.17-6.96 12.4-14.73 12.4-5.69 0-7.51-3.28-7.51-7.51 0-5.36 3.03-12.25 5.28-15.77h.15c-2.25 4-4.64 10.4-4.64 15.28 0 3.92 1.6 6.88 6 6.88 5.6 0 13.03-5.75 13.03-14.64 0-7.29-5.28-11.29-13.28-11.29C8.8-41.13-.4-30.16-.4-15.93-.4-4.55 4.72 1.53 17.05 1.53zm0 0"/></symbol><symbol overflow="visible" id="bb689768e"><path d="M29.13 1.52c11.51 0 16.8-19.52 16.8-24.72 0-2-.73-3.03-2-3.28-1.77 3.84-3.7 8.4-6.57 11.84 0-9.84 1.52-17.67 4.4-23.05-2.07-2-5.6-3.44-8.96-3.44-2.72 0-4.8.72-6.72 1.93 2.23 1.36 4.64 3.92 6.4 6.15l-.17.17c-6-5.84-11.19-8.24-15.6-8.24C5.85-41.13 0-26.95 0-14.64 0-6 2.88 1.52 8.16 1.52c7.68 0 13.2-15.83 17.6-32.65h.16c-1.51 7.44-3.36 15.54-6.08 22 .88 5.29 3.2 10.65 9.29 10.65zm-12.49-17.6c2.31-10.56 4.72-16.87 6.64-17.69-1.76 5.77-4 12.9-6.48 17.7zm0 0"/></symbol><symbol overflow="visible" id="bb689768b"><path d="M25.77-26.48s-3.85 9.04-6.57 11.84c0-9.92 1.52-17.67 4.32-23.05 0 0-3.36-3.44-8.72-3.44C4.72-41.13 0-29.13 0-18 0-7.84 3.92 1.52 11.36 1.52c10.08 0 16.4-18.57 16.4-25.04 0-2.8-2-2.96-2-2.96zM10-54.72c0 3.77 2.08 10 7.05 10 4.3 0 9.03-6.23 9.03-10.56 0-3.52-4.24-5.36-7.36-5.36-6.56 0-8.72 2.16-8.72 5.92zm0 0"/></symbol><symbol overflow="visible" id="bb689768f"><path d="M3.83 0v-5.95H6.2v-.82H.45v.82h2.4V0zm0 0"/></symbol><symbol overflow="visible" id="bb689768g"><path d="M5.75-2.23v-.43c0-1.6-.9-2.51-2.42-2.51S.87-4.16.87-2.48c0 1.71.91 2.62 2.5 2.62 1.43 0 2.07-.56 2.29-1.52l-.9-.09c-.18.61-.59.9-1.35.9-.94 0-1.52-.54-1.58-1.66zm-2.4-2.2c.93 0 1.43.5 1.48 1.55H1.84c.08-1.07.6-1.56 1.5-1.56zm0 0"/></symbol><symbol overflow="visible" id="bb689768h"><path d="M1.83 0l1.42-2h.06l1.46 2H5.8L4-2.53l1.78-2.49H4.8L3.42-3.08h-.08l-1.4-1.94H.89l1.78 2.49L.84 0zm0 0"/></symbol><symbol overflow="visible" id="bb689768i"><path d="M5.52-4.25v-.77H3.17v-1.56h-.81l-.14 1.56H.75v.77h1.47v2.4c0 1.3.48 1.94 1.84 1.94C4.6.1 5.14 0 5.55-.14L5.4-.91c-.32.13-.72.2-1.13.2-.8 0-1.1-.37-1.1-1.23v-2.31zm0 0"/></symbol><symbol overflow="visible" id="bb689768j"><path d="M3.33-3.42c.47 0 .8-.27.8-.8 0-.51-.33-.8-.8-.8-.47 0-.8.29-.8.8 0 .53.33.8.8.8zm0 3.5c.47 0 .8-.27.8-.78 0-.53-.33-.82-.8-.82-.47 0-.8.29-.8.82 0 .51.33.78.8.78zm0 0"/></symbol><symbol overflow="visible" id="bb689768l"><path d="M5.95-6.77H1.1V0h.99v-2.92H5.3v-.77H2.08v-2.26h3.87zm0 0"/></symbol><symbol overflow="visible" id="bb689768m"><path d="M3.58-5.81c.42 0 .72-.22.72-.67 0-.44-.3-.68-.72-.68-.44 0-.72.24-.72.68 0 .45.28.67.72.67zm.5.8H1.52v.76h1.6v3.48h-1.8V0h4.46v-.77h-1.7zm0 0"/></symbol><symbol overflow="visible" id="bb689768n"><path d="M2.16 0v-2.67c0-.99.59-1.63 1.46-1.63.74 0 1.07.38 1.07 1.22V0h.95v-3.31c0-1.2-.56-1.85-1.67-1.85-.92 0-1.49.46-1.77 1.08h-.06l-.12-.94H1.2V0zm0 0"/></symbol><symbol overflow="visible" id="bb689768o"><path d="M3.34.14c1.43 0 2.13-.66 2.25-1.78l-.89-.1c-.1.7-.5 1.08-1.34 1.08-1.03 0-1.52-.64-1.52-1.84 0-1.23.47-1.86 1.52-1.86.84 0 1.23.36 1.34 1.08l.9-.1c-.13-1.09-.82-1.78-2.26-1.78-1.56 0-2.46.97-2.46 2.66 0 1.66.9 2.64 2.46 2.64zm0 0"/></symbol><symbol overflow="visible" id="bb689768p"><path d="M2.83.14c.94 0 1.5-.39 1.81-.95h.08l.1.81h.76v-3.38c0-1.23-.69-1.8-2.13-1.8-1.43 0-2.03.65-2.18 1.6l.93.1c.11-.6.44-.93 1.22-.93.85 0 1.22.32 1.22 1.04v.34l-1.81.2C1.6-2.7 1.1-2.17 1.1-1.28c0 .92.64 1.42 1.72 1.42zm.25-.77c-.67 0-1.02-.28-1.02-.74 0-.44.28-.72 1-.82l1.58-.19v.41c0 .8-.6 1.34-1.56 1.34zm0 0"/></symbol><symbol overflow="visible" id="bb689768q"><path d="M2.73.14c.9 0 1.43-.45 1.74-1.08h.06l.13.94h.8v-5.02h-.94v2.7c0 .98-.57 1.62-1.46 1.62-.75 0-1.1-.4-1.1-1.22v-3.1h-.93v3.32c0 1.17.55 1.84 1.7 1.84zm0 0"/></symbol><symbol overflow="visible" id="bb689768r"><path d="M5.08-5.16c-.94 0-1.58.43-1.9 1.3h-.09l-.07-1.16H1.05v.77h1.1v3.48H.96V0h3.96v-.77H3.1v-1.46c0-1.36.6-2.05 1.83-2.05.4 0 .76.08 1.1.17l.15-.87c-.33-.11-.7-.18-1.11-.18zm0 0"/></symbol><symbol overflow="visible" id="bb689768s"><path d="M5.77-5.02H4.63L2.3-2.88h-.06v-4.26h-.94V0h.94v-2.31h.06L4.71 0h1.24L3.23-2.69zm0 0"/></symbol><symbol overflow="visible" id="bb689768t"><path d="M3.36.16c1.4 0 2.2-.6 2.2-1.57 0-.89-.54-1.22-1.47-1.39L3-3c-.67-.14-.86-.33-.86-.73 0-.5.4-.74 1.17-.74.83 0 1.19.27 1.27.8l.9-.05c-.12-1-.8-1.47-2.17-1.47-1.34 0-2.1.53-2.1 1.5 0 .81.45 1.22 1.52 1.44l1.04.2c.56.11.87.24.87.72 0 .52-.45.78-1.28.78-.95 0-1.36-.28-1.42-.87l-.9.06C1.07-.36 1.8.16 3.35.16zm0 0"/></symbol><symbol overflow="visible" id="bb689768u"><path d="M2.16 0v-2.69c0-.98.6-1.6 1.46-1.6.74 0 1.07.4 1.07 1.2V0h.95v-3.31c0-1.17-.56-1.85-1.67-1.85-.9 0-1.44.46-1.75 1.08h-.06v-3.06H1.2V0zm0 0"/></symbol><symbol overflow="visible" id="bb689768v"><path d="M2.58.95l2.39-8.67h-.9L1.7.95zm0 0"/></symbol><symbol overflow="visible" id="bb689768w"><path d="M3.42.14C5.1.14 5.9-.69 6.11-2.17l-.95-.1C4.96-1.19 4.5-.69 3.44-.69c-1.27 0-1.81-.94-1.81-2.69s.54-2.7 1.8-2.7c1.09 0 1.5.49 1.73 1.58l.93-.1c-.21-1.46-.95-2.3-2.62-2.3C1.53-6.9.62-5.6.62-3.38c0 2.2.91 3.51 2.8 3.51zm0 0"/></symbol><symbol overflow="visible" id="bb689768x"><path d="M1.63 0v-2.9c0-.8.15-1.4.71-1.4.41 0 .55.3.55.88V0h.95v-2.9c0-.8.18-1.4.72-1.4.4 0 .57.3.57.88V0h.95v-3.63c0-.92-.28-1.53-1.11-1.53-.63 0-.95.41-1.1.9h-.06c-.1-.52-.44-.9-1.08-.9-.6 0-.93.41-1.06.9H1.6l-.23-.76H.67V0zm0 0"/></symbol><symbol overflow="visible" id="bb689768y"><path d="M1.45-2.95c0 2.56 1.08 4.37 3.67 4.84l.11-.67C3.28.86 2.43-.75 2.43-2.95s.85-3.82 2.8-4.16l-.1-.69c-2.6.49-3.68 2.3-3.68 4.85zm0 0"/></symbol><symbol overflow="visible" id="bb689768z"><path d="M3.92-7.14H1.36v.76h1.6v5.61H1.15V0H5.7v-.77H3.92zm0 0"/></symbol><symbol overflow="visible" id="bb689768A"><path d="M3.16 2.03c1.67 0 2.4-.86 2.4-2.51v-4.54h-.81l-.13.91h-.06c-.26-.58-.8-1.05-1.73-1.05-1.42 0-2.24 1-2.24 2.52 0 1.6.75 2.56 2.2 2.56.94 0 1.5-.5 1.77-1.03h.05v.72c0 1.17-.42 1.67-1.45 1.67-.93 0-1.3-.34-1.41-.89L.8.5c.12.96.87 1.54 2.36 1.54zM3.06-.8c-.98 0-1.48-.57-1.48-1.82 0-1.13.5-1.75 1.48-1.75 1.06 0 1.58.76 1.58 1.75 0 .95-.56 1.82-1.58 1.82zm0 0"/></symbol><symbol overflow="visible" id="bb689768B"><path d="M1.45-7.1c1.96.33 2.8 1.94 2.8 4.15 0 2.2-.84 3.8-2.8 4.17l.11.67c2.58-.47 3.67-2.28 3.67-4.84 0-2.55-1.09-4.36-3.67-4.85zm0 0"/></symbol></defs><use xlink:href="#bb689768a" x="180.72" y="159" fill="#fff"/><use xlink:href="#bb689768b" x="236.08" y="159" fill="#fff"/><g fill="#515151"><use xlink:href="#bb689768c" x="257.84" y="159"/><use xlink:href="#bb689768d" x="300.24" y="159"/></g><g fill="#515151"><use xlink:href="#bb689768e" x="336.96" y="159"/><use xlink:href="#bb689768c" x="376.88" y="159"/></g><g fill="#fff"><use xlink:href="#bb689768f" x="260" y="252"/><use xlink:href="#bb689768g" x="266.667" y="252"/><use xlink:href="#bb689768h" x="273.334" y="252"/><use xlink:href="#bb689768i" x="280.001" y="252"/><use xlink:href="#bb689768j" x="286.668" y="252"/><use xlink:href="#bb689768k" x="293.335" y="252"/><use xlink:href="#bb689768l" x="300.002" y="252"/><use xlink:href="#bb689768m" x="306.669" y="252"/><use xlink:href="#bb689768n" x="313.336" y="252"/><use xlink:href="#bb689768o" x="320.003" y="252"/><use xlink:href="#bb689768p" x="326.67" y="252"/><use xlink:href="#bb689768n" x="333.337" y="252"/></g><g fill="#fff"><use xlink:href="#bb689768l" x="150" y="266"/><use xlink:href="#bb689768g" x="156.667" y="266"/><use xlink:href="#bb689768p" x="163.334" y="266"/><use xlink:href="#bb689768i" x="170.001" y="266"/><use xlink:href="#bb689768q" x="176.668" y="266"/><use xlink:href="#bb689768r" x="183.335" y="266"/><use xlink:href="#bb689768g" x="190.002" y="266"/><use xlink:href="#bb689768j" x="196.669" y="266"/><use xlink:href="#bb689768k" x="203.336" y="266"/><use xlink:href="#bb689768f" x="210.003" y="266"/><use xlink:href="#bb689768q" x="216.67" y="266"/><use xlink:href="#bb689768r" x="223.337" y="266"/><use xlink:href="#bb689768s" x="230.004" y="266"/><use xlink:href="#bb689768m" x="236.671" y="266"/><use xlink:href="#bb689768t" x="243.338" y="266"/><use xlink:href="#bb689768u" x="250.005" y="266"/><use xlink:href="#bb689768v" x="256.672" y="266"/><use xlink:href="#bb689768w" x="263.339" y="266"/><use xlink:href="#bb689768r" x="270.006" y="266"/><use xlink:href="#bb689768m" x="276.673" y="266"/><use xlink:href="#bb689768x" x="283.34" y="266"/><use xlink:href="#bb689768g" x="290.007" y="266"/><use xlink:href="#bb689768p" x="296.674" y="266"/><use xlink:href="#bb689768n" x="303.341" y="266"/><use xlink:href="#bb689768k" x="310.008" y="266"/><use xlink:href="#bb689768f" x="316.675" y="266"/><use xlink:href="#bb689768p" x="323.342" y="266"/><use xlink:href="#bb689768i" x="330.009" y="266"/><use xlink:href="#bb689768p" x="336.676" y="266"/><use xlink:href="#bb689768r" x="343.343" y="266"/><use xlink:href="#bb689768k" x="350.01" y="266"/><use xlink:href="#bb689768y" x="356.677" y="266"/><use xlink:href="#bb689768t" x="363.344" y="266"/><use xlink:href="#bb689768g" x="370.011" y="266"/><use xlink:href="#bb689768i" x="376.678" y="266"/><use xlink:href="#bb689768k" x="383.345" y="266"/><use xlink:href="#bb689768z" x="390.012" y="266"/><use xlink:href="#bb689768p" x="396.679" y="266"/><use xlink:href="#bb689768n" x="403.346" y="266"/><use xlink:href="#bb689768A" x="410.013" y="266"/><use xlink:href="#bb689768q" x="416.68" y="266"/><use xlink:href="#bb689768p" x="423.347" y="266"/><use xlink:href="#bb689768A" x="430.014" y="266"/><use xlink:href="#bb689768g" x="436.681" y="266"/><use xlink:href="#bb689768B" x="443.348" y="266"/></g></svg>