<?xml version='1.0' encoding='UTF-8'?>
<svg xmlns="http://www.w3.org/2000/svg" xmlns:xlink="http://www.w3.org/1999/xlink" width="600px" height="300px" viewBox="0 0 600 300" x="0px" y="0px" enable-background="new 0 0 600 300"><defs><symbol overflow="visible" id="84f07e53a"><path d="M39.77-4.64a20.21 20.21 0 01-.97-6.56c0-5.11.97-13.52 5.76-21.85l.24.1c-2.72 5.75-4.96 14.3-4.96 21.26 0 7.28 3.11 13.2 9.6 13.2 11.51 0 15.92-19.59 15.92-24.71 0-2.08-.8-3.03-2.08-3.28 0 0-3.6 8.96-6.16 11.84 2.65-6.72 3.68-14.56 3.68-17.77 0-5.59-2.4-8.72-7.85-8.72-14.15 0-17.43 21.7-18.39 32.49h-.15c0-4.8 1.1-20.48 7.82-28.64 0 0-2.64-3.84-8.23-3.84-13.6 0-17.28 19.76-18.4 32.48h-.16c.56-12.4 2.97-22.48 7.84-28.64a12.95 12.95 0 00-9.51-3.84C5.28-41.13.8-34 .8-18.32.8-5.04 5.28 1.53 12.3 1.53c5.46 0 7.61-3.6 8.49-6.16a24.74 24.74 0 01-.96-6.72c0-5.2.96-13.36 5.75-21.69l.25.1c-2.71 5.75-4.96 14.23-4.96 21.26 0 7.13 3.04 13.2 10.4 13.2 5.44 0 7.6-3.59 8.49-6.15zm0 0"/></symbol><symbol overflow="visible" id="84f07e53b"><path d="M11.44 1.52c4.64 0 9.69-5.75 12.56-14.32h.16c-.57 2.64-1.85 6.96-3.68 9.85 1.68 3.43 4.88 4.47 7.6 4.47 11.36 0 16.56-19.83 16.56-24.72 0-2-.72-3.03-2-3.28-1.77 3.84-3.69 8.4-6.56 11.84 0-9.84 1.6-17.92 4.4-23.05-2.07-2-5.6-3.44-9.2-3.44-12.16 0-14.16 14.9-14.16 28.26l-.8 1.03c0-8.64.8-20.32 5.45-26.64a13.57 13.57 0 00-8.25-2.65C3.59-41.13 0-30.95 0-18.48c0 12.32 3.52 20 11.44 20zm0 0"/></symbol><symbol overflow="visible" id="84f07e53f"><path d="M29.13 1.52c11.51 0 16.8-19.52 16.8-24.72 0-2-.73-3.03-2-3.28-1.77 3.84-3.7 8.4-6.57 11.84 0-9.84 1.52-17.67 4.4-23.05-2.07-2-5.6-3.44-8.96-3.44-2.72 0-4.8.72-6.72 1.93 2.23 1.36 4.64 3.92 6.4 6.15l-.17.17c-6-5.84-11.19-8.24-15.6-8.24C5.85-41.13 0-26.95 0-14.64 0-6 2.88 1.52 8.16 1.52c7.68 0 13.2-15.83 17.6-32.65h.16c-1.51 7.44-3.36 15.54-6.08 22 .88 5.29 3.2 10.65 9.29 10.65zm-12.49-17.6c2.31-10.56 4.72-16.87 6.64-17.69-1.76 5.77-4 12.9-6.48 17.7zm0 0"/></symbol><symbol overflow="visible" id="84f07e53c"><path d="M12.23-27.6L8-17.76a19.94 19.94 0 00-1.84 7.93C6.16-2.31 12 1.52 17.84 1.52c11.75 0 17.68-18.57 17.68-25.04 0-1.6-.72-2.71-2-2.96-2.24 4.8-3.29 7.53-6.57 11.84h-.15c3.04-5.67 4.48-11.52 4.48-16.64 0-6.31-3.28-9.84-8-9.84-1.84 0-3.92.56-6.08 1.68-1.28 3.13-2.8 5.13-4.4 7.52h-.16c2.16-3.85 3.67-8.72 4.56-13.52a8.35 8.35 0 00-5.6-1.92c-6.72 0-10.4 6-10.4 12.72 0 1.92.32 3.84.88 5.77 0 6-3.2 11.51-8.49 15.59.64 3.12 4.18 5.84 6.49 5.84C4.48-14.24 8.8-21.69 12-27.69zm0 0"/></symbol><symbol overflow="visible" id="84f07e53e"><path d="M34.08-14.64c.72-2.88.72-5.6.72-7.92 0-8.57-4.8-14.8-15.52-16.88a45.7 45.7 0 01-4.8 8h-.17c2.25-4.33 4.1-8.4 4.1-11.36 0-2.64-2.1-4.48-5.93-4.48-6.96 0-11.28 5.2-11.28 12.4 0 1.83.24 3.93.88 6 0 6-3.2 11.52-8.49 15.6.97 3.51 4.18 5.84 6.49 5.84A495.93 495.93 0 008.4-21.12s.3-.16.87 1.28c1.6-.88 3.36-1.29 5.13-1.29 4.07 0 8.07 2.18 10.23 5.93l-.23.07a10.65 10.65 0 00-9.29-4.95c-6.56 0-10.56 5.44-10.56 10.8 0 5.44 4 10.8 13.75 10.8 17.77 0 23.05-18.57 23.05-25.04 0-1.6-.72-2.71-2-2.96-1.05 2.4-2.23 4.8-3.6 7.43a17.13 17.13 0 01-1.53 4.4zm0 0"/></symbol><symbol overflow="visible" id="84f07e53g"><path d="M10.48-7.52c3.93-2.32 7.75-2.89 13.44-2.89 4.24-6.95 10.16-17.28 14.31-26.07a19.84 19.84 0 00-12.87-4.57c-2.95 0-5.84.64-8.16 1.61-1.28 3.13-2.72 5.13-4.32 7.52h-.24c2.16-3.85 3.67-8.72 4.56-13.52a8.35 8.35 0 00-5.6-1.92c-6.72 0-10.4 6-10.4 12.72 0 1.92.32 3.84.88 5.77 0 6-3.2 11.51-8.49 15.59.64 3.12 4.18 5.84 6.49 5.84 5.04-7.84 10-16.4 13.28-22.8h.16L.56-4.07c1.92 1.92 5.6 2.8 8.96 2.8 2.17 0 4.17-.4 5.36-.95a46.75 46.75 0 013.6 11.67h-.17L14.64-.87C10.16-.88 2.87 2.94 2.87 8.8c0 5.43 6.41 7.68 15.77 7.68 11.13 0 16-6.17 16-12.4 0-6.64-5.44-13.36-14.48-13.36-3.04 0-6.4.64-9.68 1.92l-.07-.16zm0 0"/></symbol><symbol overflow="visible" id="84f07e53h"><path d="M3.83 0v-5.95H6.2v-.82H.45v.82h2.4V0zm0 0"/></symbol><symbol overflow="visible" id="84f07e53i"><path d="M5.75-2.23v-.43c0-1.6-.9-2.51-2.42-2.51S.87-4.16.87-2.48c0 1.71.91 2.62 2.5 2.62 1.43 0 2.07-.56 2.29-1.52l-.9-.09c-.18.61-.59.9-1.35.9-.94 0-1.52-.54-1.58-1.66zm-2.4-2.2c.93 0 1.43.5 1.48 1.55H1.84c.08-1.07.6-1.56 1.5-1.56zm0 0"/></symbol><symbol overflow="visible" id="84f07e53j"><path d="M1.83 0l1.42-2h.06l1.46 2H5.8L4-2.53l1.78-2.49H4.8L3.42-3.08h-.08l-1.4-1.94H.89l1.78 2.49L.84 0zm0 0"/></symbol><symbol overflow="visible" id="84f07e53k"><path d="M5.52-4.25v-.77H3.17v-1.56h-.81l-.14 1.56H.75v.77h1.47v2.4c0 1.3.48 1.94 1.84 1.94C4.6.1 5.14 0 5.55-.14L5.4-.91c-.32.13-.72.2-1.13.2-.8 0-1.1-.37-1.1-1.23v-2.31zm0 0"/></symbol><symbol overflow="visible" id="84f07e53l"><path d="M3.33-3.42c.47 0 .8-.27.8-.8 0-.51-.33-.8-.8-.8-.47 0-.8.29-.8.8 0 .53.33.8.8.8zm0 3.5c.47 0 .8-.27.8-.78 0-.53-.33-.82-.8-.82-.47 0-.8.29-.8.82 0 .51.33.78.8.78zm0 0"/></symbol><symbol overflow="visible" id="84f07e53n"><path d="M1.63 0v-2.9c0-.8.15-1.4.71-1.4.41 0 .55.3.55.88V0h.95v-2.9c0-.8.18-1.4.72-1.4.4 0 .57.3.57.88V0h.95v-3.63c0-.92-.28-1.53-1.11-1.53-.63 0-.95.41-1.1.9h-.06c-.1-.52-.44-.9-1.08-.9-.6 0-.93.41-1.06.9H1.6l-.23-.76H.67V0zm0 0"/></symbol><symbol overflow="visible" id="84f07e53o"><path d="M2.73.14c.9 0 1.43-.45 1.74-1.08h.06l.13.94h.8v-5.02h-.94v2.7c0 .98-.57 1.62-1.46 1.62-.75 0-1.1-.4-1.1-1.22v-3.1h-.93v3.32c0 1.17.55 1.84 1.7 1.84zm0 0"/></symbol><symbol overflow="visible" id="84f07e53p"><path d="M5.08-5.16c-.94 0-1.58.43-1.9 1.3h-.09l-.07-1.16H1.05v.77h1.1v3.48H.96V0h3.96v-.77H3.1v-1.46c0-1.36.6-2.05 1.83-2.05.4 0 .76.08 1.1.17l.15-.87c-.33-.11-.7-.18-1.11-.18zm0 0"/></symbol><symbol overflow="visible" id="84f07e53q"><path d="M3.36.16c1.4 0 2.2-.6 2.2-1.57 0-.89-.54-1.22-1.47-1.39L3-3c-.67-.14-.86-.33-.86-.73 0-.5.4-.74 1.17-.74.83 0 1.19.27 1.27.8l.9-.05c-.12-1-.8-1.47-2.17-1.47-1.34 0-2.1.53-2.1 1.5 0 .81.45 1.22 1.52 1.44l1.04.2c.56.11.87.24.87.72 0 .52-.45.78-1.28.78-.95 0-1.36-.28-1.42-.87l-.9.06C1.07-.36 1.8.16 3.35.16zm0 0"/></symbol><symbol overflow="visible" id="84f07e53r"><path d="M2.83.14c.94 0 1.5-.39 1.81-.95h.08l.1.81h.76v-3.38c0-1.23-.69-1.8-2.13-1.8-1.43 0-2.03.65-2.18 1.6l.93.1c.11-.6.44-.93 1.22-.93.85 0 1.22.32 1.22 1.04v.34l-1.81.2C1.6-2.7 1.1-2.17 1.1-1.28c0 .92.64 1.42 1.72 1.42zm.25-.77c-.67 0-1.02-.28-1.02-.74 0-.44.28-.72 1-.82l1.58-.19v.41c0 .8-.6 1.34-1.56 1.34zm0 0"/></symbol><symbol overflow="visible" id="84f07e53s"><path d="M5.55 0v-.75H2.3v-.06l3.2-3.49v-.72H1.2v.75H4.3v.07L1.11-.72V0zm0 0"/></symbol><symbol overflow="visible" id="84f07e53t"><path d="M5.95-6.77H1.1V0h.99v-2.92H5.3v-.77H2.08v-2.26h3.87zm0 0"/></symbol><symbol overflow="visible" id="84f07e53u"><path d="M6.17 0L3.98-6.77h-1.3L.5 0h.97l.44-1.47h2.78L5.16 0zM3.28-5.94h.08l1.1 3.74H2.15zm0 0"/></symbol><symbol overflow="visible" id="84f07e53v"><path d="M3.92-7.14H1.36v.76h1.6v5.61H1.15V0H5.7v-.77H3.92zm0 0"/></symbol><symbol overflow="visible" id="84f07e53w"><path d="M2.16 0v-2.67c0-.99.59-1.63 1.46-1.63.74 0 1.07.38 1.07 1.22V0h.95v-3.31c0-1.2-.56-1.85-1.67-1.85-.92 0-1.49.46-1.77 1.08h-.06l-.12-.94H1.2V0zm0 0"/></symbol><symbol overflow="visible" id="84f07e53x"><path d="M3.58-5.81c.42 0 .72-.22.72-.67 0-.44-.3-.68-.72-.68-.44 0-.72.24-.72.68 0 .45.28.67.72.67zm.5.8H1.52v.76h1.6v3.48h-1.8V0h4.46v-.77h-1.7zm0 0"/></symbol><symbol overflow="visible" id="84f07e53y"><path d="M3.9 0l2-5.02h-.96L3.4-.94h-.07L1.8-5.02H.77L2.78 0zm0 0"/></symbol><symbol overflow="visible" id="84f07e53z"><path d="M4.63-6.5c.45 0 .98.08 1.39.2l.2-.72a5.3 5.3 0 00-1.64-.26c-1.52 0-2.16.56-2.16 1.87v.4H.9v.76h1.53V0h.94v-4.25h2.53v-.77H3.36v-.3c0-.84.33-1.18 1.27-1.18zm0 0"/></symbol><symbol overflow="visible" id="84f07e53A"><path d="M3.33.14c1.62 0 2.5-.95 2.5-2.66 0-1.68-.88-2.64-2.5-2.64-1.63 0-2.5.96-2.5 2.64 0 1.7.87 2.66 2.5 2.66zm0-.77c-1.06 0-1.52-.6-1.52-1.89 0-1.28.46-1.87 1.52-1.87 1.08 0 1.53.6 1.53 1.87 0 1.29-.45 1.9-1.53 1.9zm0 0"/></symbol><symbol overflow="visible" id="84f07e53B"><path d="M3.38-5.9c.12-.5.42-1.04.67-1.41l-.63-.22a4.28 4.28 0 00-1.01 2.39c0 .66.3 1 .9 1 .6 0 .9-.33.9-.9 0-.57-.32-.83-.83-.85zm0 0"/></symbol><symbol overflow="visible" id="84f07e53C"><path d="M3.3-7.53c-.55 0-.85.3-.85.84 0 .55.36.8.83.8h.03a5.1 5.1 0 01-.69 1.47l.52.23a4.29 4.29 0 001.02-2.4c0-.63-.33-.94-.86-.94zm0 0"/></symbol><symbol overflow="visible" id="84f07e53D"><path d="M3.34-1.56c-.54 0-.82.31-.82.86 0 .5.3.78.76.78-.08.4-.34.95-.65 1.39l.53.25c.57-.67 1-1.67 1-2.36 0-.6-.3-.92-.82-.92zm0 0"/></symbol><symbol overflow="visible" id="84f07e53E"><path d="M1.45-2.95c0 2.56 1.08 4.37 3.67 4.84l.11-.67C3.28.86 2.43-.75 2.43-2.95s.85-3.82 2.8-4.16l-.1-.69c-2.6.49-3.68 2.3-3.68 4.85zm0 0"/></symbol><symbol overflow="visible" id="84f07e53F"><path d="M3.33.14c1.65 0 2.6-1.1 2.6-3.52S4.99-6.9 3.34-6.9C1.67-6.9.72-5.8.72-3.37c0 2.4.95 3.51 2.6 3.51zm0-.84c-1.13 0-1.6-.85-1.6-2.67 0-1.86.47-2.7 1.6-2.7 1.12 0 1.6.84 1.6 2.7 0 1.82-.48 2.67-1.6 2.67zM3.3-2.64c.38 0 .56-.28.56-.72 0-.44-.18-.7-.56-.7-.39 0-.56.26-.56.7 0 .44.17.72.56.72zm0 0"/></symbol><symbol overflow="visible" id="84f07e53G"><path d="M5.67 0v-.86H2.14V-.9L3.6-2c1.05-.83 2-1.68 2-2.91 0-1.19-.73-1.99-2.26-1.99-1.66 0-2.3 1.02-2.44 2.33l1 .08c.1-.92.42-1.58 1.44-1.58.87 0 1.26.44 1.26 1.24 0 .9-.8 1.53-1.96 2.53L.83-.81V0zm0 0"/></symbol><symbol overflow="visible" id="84f07e53H"><path d="M1.45-7.1c1.96.33 2.8 1.94 2.8 4.15 0 2.2-.84 3.8-2.8 4.17l.11.67c2.58-.47 3.67-2.28 3.67-4.84 0-2.55-1.09-4.36-3.67-4.85zm0 0"/></symbol></defs><g fill="#515151"><use xlink:href="#84f07e53a" x="76.64" y="159"/><use xlink:href="#84f07e53b" x="138" y="159"/></g><use xlink:href="#84f07e53c" x="177.76" y="159" fill="#fff"/><g fill="#515151"><use xlink:href="#84f07e53d" x="212.08" y="159"/><use xlink:href="#84f07e53a" x="228.08" y="159"/><use xlink:href="#84f07e53b" x="289.44" y="159"/></g><use xlink:href="#84f07e53e" x="328.96" y="159" fill="#fff"/><g fill="#515151"><use xlink:href="#84f07e53d" x="369.92" y="159"/><use xlink:href="#84f07e53a" x="385.92" y="159"/><use xlink:href="#84f07e53f" x="447.28" y="159"/></g><use xlink:href="#84f07e53g" x="488.32" y="159" fill="#fff"/><g fill="#fff"><use xlink:href="#84f07e53h" x="243.3333" y="252"/><use xlink:href="#84f07e53i" x="250.0003" y="252"/><use xlink:href="#84f07e53j" x="256.6673" y="252"/><use xlink:href="#84f07e53k" x="263.3343" y="252"/><use xlink:href="#84f07e53l" x="270.0013" y="252"/><use xlink:href="#84f07e53m" x="276.6683" y="252"/><use xlink:href="#84f07e53n" x="283.3353" y="252"/><use xlink:href="#84f07e53o" x="290.0023" y="252"/><use xlink:href="#84f07e53p" x="296.6693" y="252"/><use xlink:href="#84f07e53m" x="303.3363" y="252"/><use xlink:href="#84f07e53n" x="310.0033" y="252"/><use xlink:href="#84f07e53o" x="316.6703" y="252"/><use xlink:href="#84f07e53q" x="323.3373" y="252"/><use xlink:href="#84f07e53m" x="330.0043" y="252"/><use xlink:href="#84f07e53n" x="336.6713" y="252"/><use xlink:href="#84f07e53r" x="343.3383" y="252"/><use xlink:href="#84f07e53s" x="350.0053" y="252"/></g><g fill="#fff"><use xlink:href="#84f07e53t" x="133.3333" y="266"/><use xlink:href="#84f07e53i" x="140.0003" y="266"/><use xlink:href="#84f07e53r" x="146.6673" y="266"/><use xlink:href="#84f07e53k" x="153.3343" y="266"/><use xlink:href="#84f07e53o" x="160.0013" y="266"/><use xlink:href="#84f07e53p" x="166.6683" y="266"/><use xlink:href="#84f07e53i" x="173.3353" y="266"/><use xlink:href="#84f07e53l" x="180.0023" y="266"/><use xlink:href="#84f07e53m" x="186.6693" y="266"/><use xlink:href="#84f07e53u" x="193.3363" y="266"/><use xlink:href="#84f07e53v" x="200.0033" y="266"/><use xlink:href="#84f07e53k" x="206.6703" y="266"/><use xlink:href="#84f07e53i" x="213.3373" y="266"/><use xlink:href="#84f07e53p" x="220.0043" y="266"/><use xlink:href="#84f07e53w" x="226.6713" y="266"/><use xlink:href="#84f07e53r" x="233.3383" y="266"/><use xlink:href="#84f07e53k" x="240.0053" y="266"/><use xlink:href="#84f07e53x" x="246.6723" y="266"/><use xlink:href="#84f07e53y" x="253.3393" y="266"/><use xlink:href="#84f07e53i" x="260.0063" y="266"/><use xlink:href="#84f07e53m" x="266.6733" y="266"/><use xlink:href="#84f07e53z" x="273.3403" y="266"/><use xlink:href="#84f07e53A" x="280.0073" y="266"/><use xlink:href="#84f07e53p" x="286.6743" y="266"/><use xlink:href="#84f07e53n" x="293.3413" y="266"/><use xlink:href="#84f07e53q" x="300.0083" y="266"/><use xlink:href="#84f07e53m" x="306.6753" y="266"/><use xlink:href="#84f07e53A" x="313.3423" y="266"/><use xlink:href="#84f07e53z" x="320.0093" y="266"/><use xlink:href="#84f07e53m" x="326.6763" y="266"/><use xlink:href="#84f07e53B" x="333.3433" y="266"/><use xlink:href="#84f07e53p" x="340.0103" y="266"/><use xlink:href="#84f07e53C" x="346.6773" y="266"/><use xlink:href="#84f07e53D" x="353.3443" y="266"/><use xlink:href="#84f07e53m" x="360.0113" y="266"/><use xlink:href="#84f07e53B" x="366.6783" y="266"/><use xlink:href="#84f07e53q" x="373.3453" y="266"/><use xlink:href="#84f07e53C" x="380.0123" y="266"/><use xlink:href="#84f07e53D" x="386.6793" y="266"/><use xlink:href="#84f07e53m" x="393.3463" y="266"/><use xlink:href="#84f07e53B" x="400.0133" y="266"/><use xlink:href="#84f07e53s" x="406.6803" y="266"/><use xlink:href="#84f07e53C" x="413.3473" y="266"/><use xlink:href="#84f07e53m" x="420.0143" y="266"/><use xlink:href="#84f07e53E" x="426.6813" y="266"/><use xlink:href="#84f07e53q" x="433.3483" y="266"/><use xlink:href="#84f07e53q" x="440.0153" y="266"/><use xlink:href="#84f07e53F" x="446.6823" y="266"/><use xlink:href="#84f07e53G" x="453.3493" y="266"/><use xlink:href="#84f07e53H" x="460.0163" y="266"/></g></svg>