<?xml version='1.0' encoding='UTF-8'?>
<svg xmlns="http://www.w3.org/2000/svg" xmlns:xlink="http://www.w3.org/1999/xlink" width="600px" height="300px" viewBox="0 0 600 300" x="0px" y="0px" enable-background="new 0 0 600 300"><defs><symbol overflow="visible" id="37f869bda"><path d="M60.48-57.84c-12.56 0-18.25 16.4-19.35 25.2h-.9c1.05-6.08 1.85-13.77 1.85-18.8 0-3.36-.24-6.33-.64-8.97-5.44 1.53-10.72 2.72-17.28 2.72-4.96 0-9.93-.62-14.64-2.31-.08.64-.08 1.28-.08 1.92 0 9.6 5.51 16.31 16.4 16.31.96 0 2-.07 3.04-.15l.07.15c-2.15.97-4.54 1.13-6.95 1.13-1.05 0-2.08-.08-3.13-.31.41 2.47.57 7.1.57 10.72C8.08-29.2.8-22.08.8-11.05.8-1.85 6.56 3.6 14.4 3.6c10.96 0 17.68-7.51 21.52-17.67l6 .88c1.13 8 6.24 14.72 13.2 14.72 11.44 0 16.08-16.32 16.08-24.88 0-1.69-.64-2.87-2-3.12a36.4 36.4 0 01-6.25 10.4v-2.08c0-11.76 3.36-27.2 8.64-36.4 0 0-4.64-3.28-11.1-3.28zm-52 49.76a.98.98 0 01-.96-.97c0-1.26 3.68-5.03 8.56-4.95-1.28 2.56-5.6 5.92-7.6 5.92zm0 0"/></symbol><symbol overflow="visible" id="37f869bdb"><path d="M5.69-49.2c0 1.6 1.18 2.97 2.8 2.97.46-1.36 1.43-2.57 2.23-3.7h.08a19.24 19.24 0 00-1.85 8.57c0 6.23 2.1 12.72 6.82 12.72 4.54 0 7.03-3.52 7.03-3.52a23.5 23.5 0 01-.72-5.76c0-6.31 2.15-12.24 2.15-16.56 0-3.83-4.46-5.36-7.51-5.36C14.8-56 11.77-51.52 5.69-49.2zm0 0"/></symbol><symbol overflow="visible" id="37f869bdc"><path d="M9.6-30c.09-1.13.32-1.77.8-2.72 2.55 2.08 6.72 3.77 11.29 3.77 6.31 0 9.9-5.2 9.9-9.46 0-2.87-1.75-5.28-5.18-5.28a5.9 5.9 0 00-2.25.56c0 4.08-6.96 2.26-12.4 7.7h-.07c2.62-4.73 19.03-9.37 19.03-17.13 0-5.44-6.08-7.03-10.64-7.03-9.13 0-12.31 3.59-12.31 6.8 0 2.87 2.8 4.48 5.75 4.48 4.25 0 6-2.49 6-5.2 0-1.2-.32-2.18-1.2-3.2h.16a4.62 4.62 0 011.68 3.66c0 6.33-14.72 12.33-14.72 19.05 0 3.13 2.87 4 4.15 4zm0 0"/></symbol><symbol overflow="visible" id="37f869bdd"><path d="M18.8-53.13c0 3.44-2.32 5.44-5.6 5.44a8.4 8.4 0 01-2.32-.31 6.56 6.56 0 00-.8 2.95c0 2.64 2.4 4.1 5.04 4.1 2.16 0 4.4-1.13 4.96-3.7h.08c-.64 2.8-2.64 4.42-5.04 4.42-1.6 0-3.35-.57-4.64-1.77-3.28 1.13-5.04 3.28-5.04 5.77 0 3.59 3.76 7.43 10.8 7.43 8.64 0 14-5.04 14-11.43 0-3.85-3.04-6.25-5.6-7.2-2.08.38-5.12.71-7.12.71v-.08c7.2-.8 11.36-2.15 11.36-6.64 0-4.87-5.83-6.15-10-6.15-8.4 0-11.44 3.43-11.44 6.54 0 2.82 2.64 4.57 5.43 4.57 4.08 0 5.54-2.47 5.54-5.2 0-1.2-.25-2.09-1.13-3.12h.16c.87.88 1.36 2 1.36 3.67zm0 0"/></symbol><symbol overflow="visible" id="37f869bde"><path d="M3.83 0v-5.95H6.2v-.82H.45v.82h2.4V0zm0 0"/></symbol><symbol overflow="visible" id="37f869bdf"><path d="M5.75-2.23v-.43c0-1.6-.9-2.51-2.42-2.51S.87-4.16.87-2.48c0 1.71.91 2.62 2.5 2.62 1.43 0 2.07-.56 2.29-1.52l-.9-.09c-.18.61-.59.9-1.35.9-.94 0-1.52-.54-1.58-1.66zm-2.4-2.2c.93 0 1.43.5 1.48 1.55H1.84c.08-1.07.6-1.56 1.5-1.56zm0 0"/></symbol><symbol overflow="visible" id="37f869bdg"><path d="M1.83 0l1.42-2h.06l1.46 2H5.8L4-2.53l1.78-2.49H4.8L3.42-3.08h-.08l-1.4-1.94H.89l1.78 2.49L.84 0zm0 0"/></symbol><symbol overflow="visible" id="37f869bdh"><path d="M5.52-4.25v-.77H3.17v-1.56h-.81l-.14 1.56H.75v.77h1.47v2.4c0 1.3.48 1.94 1.84 1.94C4.6.1 5.14 0 5.55-.14L5.4-.91c-.32.13-.72.2-1.13.2-.8 0-1.1-.37-1.1-1.23v-2.31zm0 0"/></symbol><symbol overflow="visible" id="37f869bdi"><path d="M3.33-3.42c.47 0 .8-.27.8-.8 0-.51-.33-.8-.8-.8-.47 0-.8.29-.8.8 0 .53.33.8.8.8zm0 3.5c.47 0 .8-.27.8-.78 0-.53-.33-.82-.8-.82-.47 0-.8.29-.8.82 0 .51.33.78.8.78zm0 0"/></symbol><symbol overflow="visible" id="37f869bdk"><path d="M1.9 0v-3.03h2.87V0h.98v-6.77h-.98v2.91H1.9v-2.9H.92V0zm0 0"/></symbol><symbol overflow="visible" id="37f869bdl"><path d="M4.22-6.77h-.86l-2.03.7v.87c.64-.17 1.26-.38 1.89-.55v4.9H1.03V0h4.9v-.86H4.21zm0 0"/></symbol><symbol overflow="visible" id="37f869bdm"><path d="M5.67 0v-.86H2.14V-.9L3.6-2c1.05-.83 2-1.68 2-2.91 0-1.19-.73-1.99-2.26-1.99-1.66 0-2.3 1.02-2.44 2.33l1 .08c.1-.92.42-1.58 1.44-1.58.87 0 1.26.44 1.26 1.24 0 .9-.8 1.53-1.96 2.53L.83-.81V0zm0 0"/></symbol><symbol overflow="visible" id="37f869bdn"><path d="M3.25.14c1.58 0 2.53-.69 2.53-1.95 0-1.19-.92-1.56-1.6-1.61v-.05A1.6 1.6 0 005.6-5.12c0-1.13-.87-1.79-2.3-1.79-1.62 0-2.32.82-2.45 1.88l.97.06c.13-.69.52-1.1 1.47-1.1.86 0 1.35.32 1.35 1.05 0 .86-.6 1.2-1.66 1.2h-.49v.79h.54c1.12 0 1.78.25 1.78 1.14 0 .78-.46 1.22-1.55 1.22-1.06 0-1.48-.4-1.63-1.1l-.98.07C.75-.56 1.56.14 3.25.14zm0 0"/></symbol><symbol overflow="visible" id="37f869bdo"><path d="M5.95-6.77H1.1V0h.99v-2.92H5.3v-.77H2.08v-2.26h3.87zm0 0"/></symbol><symbol overflow="visible" id="37f869bdp"><path d="M2.83.14c.94 0 1.5-.39 1.81-.95h.08l.1.81h.76v-3.38c0-1.23-.69-1.8-2.13-1.8-1.43 0-2.03.65-2.18 1.6l.93.1c.11-.6.44-.93 1.22-.93.85 0 1.22.32 1.22 1.04v.34l-1.81.2C1.6-2.7 1.1-2.17 1.1-1.28c0 .92.64 1.42 1.72 1.42zm.25-.77c-.67 0-1.02-.28-1.02-.74 0-.44.28-.72 1-.82l1.58-.19v.41c0 .8-.6 1.34-1.56 1.34zm0 0"/></symbol><symbol overflow="visible" id="37f869bdq"><path d="M2.73.14c.9 0 1.43-.45 1.74-1.08h.06l.13.94h.8v-5.02h-.94v2.7c0 .98-.57 1.62-1.46 1.62-.75 0-1.1-.4-1.1-1.22v-3.1h-.93v3.32c0 1.17.55 1.84 1.7 1.84zm0 0"/></symbol><symbol overflow="visible" id="37f869bdr"><path d="M5.08-5.16c-.94 0-1.58.43-1.9 1.3h-.09l-.07-1.16H1.05v.77h1.1v3.48H.96V0h3.96v-.77H3.1v-1.46c0-1.36.6-2.05 1.83-2.05.4 0 .76.08 1.1.17l.15-.87c-.33-.11-.7-.18-1.11-.18zm0 0"/></symbol><symbol overflow="visible" id="37f869bds"><path d="M4.66-3.45c.76-.14 1.15-.67 1.15-1.57 0-1.07-.64-1.75-2.18-1.75H.92V0h2.71C5.2 0 5.98-.64 5.98-1.77c0-1.03-.56-1.43-1.32-1.59zM3.56-6c.9 0 1.31.4 1.31 1.13 0 .71-.4 1.14-1.3 1.14h-1.7V-6zM1.87-.75v-2.27H3.6c.97 0 1.44.33 1.44 1.13 0 .8-.47 1.14-1.44 1.14zm0 0"/></symbol><symbol overflow="visible" id="37f869bdt"><path d="M3.36.16c1.4 0 2.2-.6 2.2-1.57 0-.89-.54-1.22-1.47-1.39L3-3c-.67-.14-.86-.33-.86-.73 0-.5.4-.74 1.17-.74.83 0 1.19.27 1.27.8l.9-.05c-.12-1-.8-1.47-2.17-1.47-1.34 0-2.1.53-2.1 1.5 0 .81.45 1.22 1.52 1.44l1.04.2c.56.11.87.24.87.72 0 .52-.45.78-1.28.78-.95 0-1.36-.28-1.42-.87l-.9.06C1.07-.36 1.8.16 3.35.16zm0 0"/></symbol><symbol overflow="visible" id="37f869bdu"><path d="M3.58-5.81c.42 0 .72-.22.72-.67 0-.44-.3-.68-.72-.68-.44 0-.72.24-.72.68 0 .45.28.67.72.67zm.5.8H1.52v.76h1.6v3.48h-1.8V0h4.46v-.77h-1.7zm0 0"/></symbol><symbol overflow="visible" id="37f869bdv"><path d="M3.34.14c1.43 0 2.13-.66 2.25-1.78l-.89-.1c-.1.7-.5 1.08-1.34 1.08-1.03 0-1.52-.64-1.52-1.84 0-1.23.47-1.86 1.52-1.86.84 0 1.23.36 1.34 1.08l.9-.1c-.13-1.09-.82-1.78-2.26-1.78-1.56 0-2.46.97-2.46 2.66 0 1.66.9 2.64 2.46 2.64zm0 0"/></symbol><symbol overflow="visible" id="37f869bdw"><path d="M2.06 1.9V-.84h.05c.28.58.8.97 1.77.97 1.5 0 2.2-.98 2.2-2.66 0-1.65-.7-2.64-2.19-2.64-.97 0-1.5.44-1.78 1.05h-.08l-.1-.9H1.1v6.9zm1.5-2.56c-1.06 0-1.53-.8-1.53-1.86 0-1.04.47-1.84 1.53-1.84 1.11 0 1.53.61 1.53 1.84 0 1.27-.42 1.86-1.53 1.86zm0 0"/></symbol><symbol overflow="visible" id="37f869bdx"><path d="M3.33.14c1.62 0 2.5-.95 2.5-2.66 0-1.68-.88-2.64-2.5-2.64-1.63 0-2.5.96-2.5 2.64 0 1.7.87 2.66 2.5 2.66zm0-.77c-1.06 0-1.52-.6-1.52-1.89 0-1.28.46-1.87 1.52-1.87 1.08 0 1.53.6 1.53 1.87 0 1.29-.45 1.9-1.53 1.9zm0 0"/></symbol><symbol overflow="visible" id="37f869bdy"><path d="M1.45-2.95c0 2.56 1.08 4.37 3.67 4.84l.11-.67C3.28.86 2.43-.75 2.43-2.95s.85-3.82 2.8-4.16l-.1-.69c-2.6.49-3.68 2.3-3.68 4.85zm0 0"/></symbol><symbol overflow="visible" id="37f869bdz"><path d="M1.45-7.1c1.96.33 2.8 1.94 2.8 4.15 0 2.2-.84 3.8-2.8 4.17l.11.67c2.58-.47 3.67-2.28 3.67-4.84 0-2.55-1.09-4.36-3.67-4.85zm0 0"/></symbol></defs><use xlink:href="#37f869bda" x="215.2" y="159" fill="#515151"/><use xlink:href="#37f869bdb" x="283.2" y="159" fill="#fff"/><use xlink:href="#37f869bdc" x="312.96" y="159" fill="#fff"/><use xlink:href="#37f869bdd" x="349.44" y="159" fill="#fff"/><g fill="#fff"><use xlink:href="#37f869bde" x="266.6667" y="252"/><use xlink:href="#37f869bdf" x="273.3337" y="252"/><use xlink:href="#37f869bdg" x="280.0007" y="252"/><use xlink:href="#37f869bdh" x="286.6677" y="252"/><use xlink:href="#37f869bdi" x="293.3347" y="252"/><use xlink:href="#37f869bdj" x="300.0017" y="252"/><use xlink:href="#37f869bdk" x="306.6687" y="252"/><use xlink:href="#37f869bdl" x="313.3357" y="252"/><use xlink:href="#37f869bdm" x="320.0027" y="252"/><use xlink:href="#37f869bdn" x="326.6697" y="252"/></g><g fill="#fff"><use xlink:href="#37f869bdo" x="196.6667" y="266"/><use xlink:href="#37f869bdf" x="203.3337" y="266"/><use xlink:href="#37f869bdp" x="210.0007" y="266"/><use xlink:href="#37f869bdh" x="216.6677" y="266"/><use xlink:href="#37f869bdq" x="223.3347" y="266"/><use xlink:href="#37f869bdr" x="230.0017" y="266"/><use xlink:href="#37f869bdf" x="236.6687" y="266"/><use xlink:href="#37f869bdi" x="243.3357" y="266"/><use xlink:href="#37f869bdj" x="250.0027" y="266"/><use xlink:href="#37f869bds" x="256.6697" y="266"/><use xlink:href="#37f869bdp" x="263.3367" y="266"/><use xlink:href="#37f869bdt" x="270.0037" y="266"/><use xlink:href="#37f869bdu" x="276.6707" y="266"/><use xlink:href="#37f869bdv" x="283.3377" y="266"/><use xlink:href="#37f869bdj" x="290.0047" y="266"/><use xlink:href="#37f869bdt" x="296.6717" y="266"/><use xlink:href="#37f869bdq" x="303.3387" y="266"/><use xlink:href="#37f869bdw" x="310.0057" y="266"/><use xlink:href="#37f869bdf" x="316.6727" y="266"/><use xlink:href="#37f869bdr" x="323.3397" y="266"/><use xlink:href="#37f869bdu" x="330.0067" y="266"/><use xlink:href="#37f869bdx" x="336.6737" y="266"/><use xlink:href="#37f869bdr" x="343.3407" y="266"/><use xlink:href="#37f869bdt" x="350.0077" y="266"/><use xlink:href="#37f869bdj" x="356.6747" y="266"/><use xlink:href="#37f869bdy" x="363.3417" y="266"/><use xlink:href="#37f869bdt" x="370.0087" y="266"/><use xlink:href="#37f869bdq" x="376.6757" y="266"/><use xlink:href="#37f869bdw" x="383.3427" y="266"/><use xlink:href="#37f869bdt" x="390.0097" y="266"/><use xlink:href="#37f869bdz" x="396.6767" y="266"/></g></svg>