<?xml version='1.0' encoding='UTF-8'?>
<svg xmlns="http://www.w3.org/2000/svg" xmlns:xlink="http://www.w3.org/1999/xlink" width="600px" height="300px" viewBox="0 0 600 300" x="0px" y="0px" enable-background="new 0 0 600 300"><defs><symbol overflow="visible" id="322c2f2ba"><path d="M15.36-30.23L2.4-4.08c1.9 1.92 5.59 2.8 8.95 2.8 2.16 0 4.16-.4 5.36-.95a46.73 46.73 0 013.6 11.67h-.16L16.48-.87C12-.88 4.72 2.94 4.72 8.8c0 5.43 6.4 7.68 15.76 7.68 11.11 0 16-6.17 16-12.4 0-6.64-5.43-13.36-14.48-13.36-3.05 0-6.4.64-9.69 1.92l-.08-.16c3.36-2 6.64-2.96 11.05-2.96.72 0 1.6 0 2.4.07C29.93-17.36 35.85-27.69 40-36.48a19.87 19.87 0 00-12.88-4.57c-2.96 0-5.84.64-8.17 1.61a33.71 33.71 0 01-4.3 7.52h-.24c2.07-3.67 3.59-8.16 4.54-13.52 0 0-1.82-1.92-5.51-1.92-7.67 0-10.31 8.4-10.31 15.77 0 5.67 1.59 10.8 3.59 10.8 2.87 0 6.08-4.8 8.4-9.44zm0 0"/></symbol><symbol overflow="visible" id="322c2f2bc"><path d="M34.08-14.64c.72-2.88.72-5.6.72-7.92 0-8.57-4.8-14.8-15.52-16.88a45.7 45.7 0 01-4.8 8h-.17c2.25-4.33 4.1-8.4 4.1-11.36 0-2.64-2.1-4.48-5.93-4.48-6.96 0-11.28 5.2-11.28 12.4 0 1.83.24 3.93.88 6 0 6-3.2 11.52-8.49 15.6.97 3.51 4.18 5.84 6.49 5.84A495.93 495.93 0 008.4-21.12s.3-.16.87 1.28c1.6-.88 3.36-1.29 5.13-1.29 4.07 0 8.07 2.18 10.23 5.93l-.23.07a10.65 10.65 0 00-9.29-4.95c-6.56 0-10.56 5.44-10.56 10.8 0 5.44 4 10.8 13.75 10.8 17.77 0 23.05-18.57 23.05-25.04 0-1.6-.72-2.71-2-2.96-1.05 2.4-2.23 4.8-3.6 7.43a17.13 17.13 0 01-1.53 4.4zm0 0"/></symbol><symbol overflow="visible" id="322c2f2bd"><path d="M15.36-30.23L2.4-4.08c1.9 1.92 5.59 2.8 8.95 2.8 2.16 0 4.16-.4 5.36-.95a46.73 46.73 0 013.6 11.67h-.16L16.48-.87C12-.88 4.72 2.94 4.72 8.8c0 5.43 6.4 7.68 15.76 7.68 11.11 0 16-6.17 16-12.4 0-6.64-5.43-13.36-14.48-13.36-3.05 0-6.4.64-9.69 1.92l-.08-.16c3.36-2 6.64-2.96 11.05-2.96.72 0 1.6 0 2.4.07C29.93-17.36 35.85-27.69 40-36.48a19.87 19.87 0 00-12.88-4.57c-2.96 0-5.84.64-8.17 1.61a33.71 33.71 0 01-4.3 7.52h-.24c2.07-3.67 3.59-8.16 4.54-13.52 0 0-1.82-1.92-5.51-1.92-7.67 0-10.31 8.4-10.31 15.77 0 5.67 1.59 10.8 3.59 10.8 2.87 0 6.08-4.8 8.4-9.44zm25.52-26.08c0-3.85-2.65-5.92-6.16-5.92-4.4 0-9.36 3.43-13.36 9.18l-.23-.15a20.46 20.46 0 015.59-7.2 12.4 12.4 0 00-6-1.83c-4.31 0-7.36 2.87-7.36 6.39 4.87 3.36 8.08 7.68 11.05 12.25.39.54.87.8 1.82.8.72 0 1.2-.26 1.61-.65 3.93-4.4 7.29-8.97 13.04-12.87zm0 0"/></symbol><symbol overflow="visible" id="322c2f2bb"><path d="M29.13 1.52c11.51 0 16.8-19.52 16.8-24.72 0-2-.73-3.03-2-3.28-1.77 3.84-3.7 8.4-6.57 11.84 0-9.84 1.52-17.67 4.4-23.05-2.07-2-5.6-3.44-8.96-3.44-2.72 0-4.8.72-6.72 1.93 2.23 1.36 4.64 3.92 6.4 6.15l-.17.17c-6-5.84-11.19-8.24-15.6-8.24C5.85-41.13 0-26.95 0-14.64 0-6 2.88 1.52 8.16 1.52c7.68 0 13.2-15.83 17.6-32.65h.16c-1.51 7.44-3.36 15.54-6.08 22 .88 5.29 3.2 10.65 9.29 10.65zm-12.49-17.6c2.31-10.56 4.72-16.87 6.64-17.69-1.76 5.77-4 12.9-6.48 17.7zm0 0"/></symbol><symbol overflow="visible" id="322c2f2be"><path d="M40.64-22.23c0-2.57-.72-4.25-2-4.25-3.28 8.96-9.2 12.71-16.33 12.71A22.71 22.71 0 017.7-19.52l.08-.07a21.73 21.73 0 0013.28 4.71c8.07 0 15.18-6.07 15.18-14.96 0-7.29-5.28-11.29-13.28-11.29C8.8-41.13-.4-30.16-.4-15.84-.4-4.56 4.72 1.52 17.05 1.52c19.18 0 23.6-16.16 23.6-23.75zm-18.8-15.13c-2.48 5.05-3.43 10.72-4.07 18 0 0-.64 0-1.13-.23.72-6.72 2.08-13.29 5.05-17.77zm0 0"/></symbol><symbol overflow="visible" id="322c2f2bf"><path d="M30.48 1.52C42 1.52 46.41-18.23 46.41-23.2c0-2.08-.82-3.03-2.1-3.28-1.67 3.84-3.44 8.4-6.15 11.84 2.64-6.72 3.68-14.56 3.68-17.77 0-5.59-2.4-8.72-7.84-8.72-13.6 0-17.28 19.77-18.4 32.49h-.16c.56-12.4 2.97-22.64 7.84-28.64a12.95 12.95 0 00-9.51-3.84C5.28-41.13.8-34 .8-18.32.8-5.04 5.28 1.53 12.3 1.53c5.46 0 7.77-3.75 8.56-6.32a23.36 23.36 0 01-1.03-6.56c0-5.2.96-13.36 5.75-21.69l.25.1c-2.71 5.75-4.96 14.3-4.96 21.26 0 7.13 3.04 13.2 9.6 13.2zm0 0"/></symbol><symbol overflow="visible" id="322c2f2bg"><path d="M17.13 1.52c4.56 0 8.87-1.44 11.43-4.32 11.2-.64 14.8-11.6 14.8-20.4 0-2.08-.88-3.03-2.23-3.36-1.61 7.36-6.33 12.33-9.77 12.33-2.23 0-3.92-2-3.92-6.72l.15-.18c0 3.61 1.46 5.93 3.93 5.93 3.76 0 6.07-6 6.07-12.16 0-6.72-2.72-13.77-9.03-13.77-3.12 0-6.4 2-8.4 5.77l-.16-.08a10.25 10.25 0 012.48-4.4 11.6 11.6 0 00-4-.64C9.05-40.48-.4-30-.4-15.92-.4-4.56 4.72 1.52 17.13 1.52zm0-30.96a26.35 26.35 0 00-1.36 8.4c0 3.12.64 6.09 1.67 8.63l-.24.18a12.74 12.74 0 01-2.56-8c0-3.13.88-6.41 2.31-9.36zm0 0"/></symbol><symbol overflow="visible" id="322c2f2bh"><path d="M3.83 0v-5.95H6.2v-.82H.45v.82h2.4V0zm0 0"/></symbol><symbol overflow="visible" id="322c2f2bi"><path d="M5.75-2.23v-.43c0-1.6-.9-2.51-2.42-2.51S.87-4.16.87-2.48c0 1.71.91 2.62 2.5 2.62 1.43 0 2.07-.56 2.29-1.52l-.9-.09c-.18.61-.59.9-1.35.9-.94 0-1.52-.54-1.58-1.66zm-2.4-2.2c.93 0 1.43.5 1.48 1.55H1.84c.08-1.07.6-1.56 1.5-1.56zm0 0"/></symbol><symbol overflow="visible" id="322c2f2bj"><path d="M1.83 0l1.42-2h.06l1.46 2H5.8L4-2.53l1.78-2.49H4.8L3.42-3.08h-.08l-1.4-1.94H.89l1.78 2.49L.84 0zm0 0"/></symbol><symbol overflow="visible" id="322c2f2bk"><path d="M5.52-4.25v-.77H3.17v-1.56h-.81l-.14 1.56H.75v.77h1.47v2.4c0 1.3.48 1.94 1.84 1.94C4.6.1 5.14 0 5.55-.14L5.4-.91c-.32.13-.72.2-1.13.2-.8 0-1.1-.37-1.1-1.23v-2.31zm0 0"/></symbol><symbol overflow="visible" id="322c2f2bl"><path d="M3.33-3.42c.47 0 .8-.27.8-.8 0-.51-.33-.8-.8-.8-.47 0-.8.29-.8.8 0 .53.33.8.8.8zm0 3.5c.47 0 .8-.27.8-.78 0-.53-.33-.82-.8-.82-.47 0-.8.29-.8.82 0 .51.33.78.8.78zm0 0"/></symbol><symbol overflow="visible" id="322c2f2bn"><path d="M5.55 0v-.75H2.3v-.06l3.2-3.49v-.72H1.2v.75H4.3v.07L1.11-.72V0zm0 0"/></symbol><symbol overflow="visible" id="322c2f2bo"><path d="M2.83.14c.94 0 1.5-.39 1.81-.95h.08l.1.81h.76v-3.38c0-1.23-.69-1.8-2.13-1.8-1.43 0-2.03.65-2.18 1.6l.93.1c.11-.6.44-.93 1.22-.93.85 0 1.22.32 1.22 1.04v.34l-1.81.2C1.6-2.7 1.1-2.17 1.1-1.28c0 .92.64 1.42 1.72 1.42zm.25-.77c-.67 0-1.02-.28-1.02-.74 0-.44.28-.72 1-.82l1.58-.19v.41c0 .8-.6 1.34-1.56 1.34zm0 0"/></symbol><symbol overflow="visible" id="322c2f2bp"><path d="M3.36.16c1.4 0 2.2-.6 2.2-1.57 0-.89-.54-1.22-1.47-1.39L3-3c-.67-.14-.86-.33-.86-.73 0-.5.4-.74 1.17-.74.83 0 1.19.27 1.27.8l.9-.05c-.12-1-.8-1.47-2.17-1.47-1.34 0-2.1.53-2.1 1.5 0 .81.45 1.22 1.52 1.44l1.04.2c.56.11.87.24.87.72 0 .52-.45.78-1.28.78-.95 0-1.36-.28-1.42-.87l-.9.06C1.07-.36 1.8.16 3.35.16zm0 0"/></symbol><symbol overflow="visible" id="322c2f2bq"><path d="M3.84-5.72l1.5-1.95h-.8L3.46-6.34h-.08L2.3-7.67h-.82l1.5 1.95zM5.54 0v-.75H2.32v-.06l3.2-3.49v-.72H1.2v.75H4.3v.07L1.11-.72V0zm0 0"/></symbol><symbol overflow="visible" id="322c2f2br"><path d="M2.16 0v-2.67c0-.99.59-1.63 1.46-1.63.74 0 1.07.38 1.07 1.22V0h.95v-3.31c0-1.2-.56-1.85-1.67-1.85-.92 0-1.49.46-1.77 1.08h-.06l-.12-.94H1.2V0zm0 0"/></symbol><symbol overflow="visible" id="322c2f2bs"><path d="M3.33.14c1.62 0 2.5-.95 2.5-2.66 0-1.68-.88-2.64-2.5-2.64-1.63 0-2.5.96-2.5 2.64 0 1.7.87 2.66 2.5 2.66zm0-.77c-1.06 0-1.52-.6-1.52-1.89 0-1.28.46-1.87 1.52-1.87 1.08 0 1.53.6 1.53 1.87 0 1.29-.45 1.9-1.53 1.9zm0 0"/></symbol><symbol overflow="visible" id="322c2f2bt"><path d="M5.95-6.77H1.1V0h.99v-2.92H5.3v-.77H2.08v-2.26h3.87zm0 0"/></symbol><symbol overflow="visible" id="322c2f2bu"><path d="M2.73.14c.9 0 1.43-.45 1.74-1.08h.06l.13.94h.8v-5.02h-.94v2.7c0 .98-.57 1.62-1.46 1.62-.75 0-1.1-.4-1.1-1.22v-3.1h-.93v3.32c0 1.17.55 1.84 1.7 1.84zm0 0"/></symbol><symbol overflow="visible" id="322c2f2bv"><path d="M5.08-5.16c-.94 0-1.58.43-1.9 1.3h-.09l-.07-1.16H1.05v.77h1.1v3.48H.96V0h3.96v-.77H3.1v-1.46c0-1.36.6-2.05 1.83-2.05.4 0 .76.08 1.1.17l.15-.87c-.33-.11-.7-.18-1.11-.18zm0 0"/></symbol><symbol overflow="visible" id="322c2f2bw"><path d="M.92-6.77V0h2.11c2.03 0 3.03-1.03 3.03-3.36 0-2.39-1.01-3.4-2.93-3.4zM1.91-.8v-5.17h1.18c1.29 0 1.96.63 1.96 2.61 0 1.94-.67 2.56-1.96 2.56zm0 0"/></symbol><symbol overflow="visible" id="322c2f2bx"><path d="M3.34.14c1.43 0 2.13-.66 2.25-1.78l-.89-.1c-.1.7-.5 1.08-1.34 1.08-1.03 0-1.52-.64-1.52-1.84 0-1.23.47-1.86 1.52-1.86.84 0 1.23.36 1.34 1.08l.9-.1c-.13-1.09-.82-1.78-2.26-1.78-1.56 0-2.46.97-2.46 2.66 0 1.66.9 2.64 2.46 2.64zm0 0"/></symbol><symbol overflow="visible" id="322c2f2by"><path d="M2.84.14C3.8.14 4.33-.26 4.6-.9h.07L4.8 0h.76v-7.14h-.95v2.95h-.08c-.28-.6-.86-.97-1.67-.97-1.48 0-2.27.99-2.27 2.64C.6-.84 1.36.14 2.84.14zm.22-.8c-.98 0-1.48-.59-1.48-1.84s.5-1.86 1.48-1.86c1.13 0 1.58.8 1.58 1.86S4.2-.66 3.06-.66zm0 0"/></symbol><symbol overflow="visible" id="322c2f2bz"><path d="M3.58-5.81c.42 0 .72-.22.72-.67 0-.44-.3-.68-.72-.68-.44 0-.72.24-.72.68 0 .45.28.67.72.67zm.5.8H1.52v.76h1.6v3.48h-1.8V0h4.46v-.77h-1.7zm0 0"/></symbol><symbol overflow="visible" id="322c2f2bA"><path d="M3.16 2.03c1.67 0 2.4-.86 2.4-2.51v-4.54h-.81l-.13.91h-.06c-.26-.58-.8-1.05-1.73-1.05-1.42 0-2.24 1-2.24 2.52 0 1.6.75 2.56 2.2 2.56.94 0 1.5-.5 1.77-1.03h.05v.72c0 1.17-.42 1.67-1.45 1.67-.93 0-1.3-.34-1.41-.89L.8.5c.12.96.87 1.54 2.36 1.54zM3.06-.8c-.98 0-1.48-.57-1.48-1.82 0-1.13.5-1.75 1.48-1.75 1.06 0 1.58.76 1.58 1.75 0 .95-.56 1.82-1.58 1.82zm0 0"/></symbol><symbol overflow="visible" id="322c2f2bB"><path d="M3.92-7.14H1.36v.76h1.6v5.61H1.15V0H5.7v-.77H3.92zm0 0"/></symbol><symbol overflow="visible" id="322c2f2bC"><path d="M4.63-6.5c.45 0 .98.08 1.39.2l.2-.72a5.3 5.3 0 00-1.64-.26c-1.52 0-2.16.56-2.16 1.87v.4H.9v.76h1.53V0h.94v-4.25h2.53v-.77H3.36v-.3c0-.84.33-1.18 1.27-1.18zm0 0"/></symbol><symbol overflow="visible" id="322c2f2bD"><path d="M3.38-5.9c.12-.5.42-1.04.67-1.41l-.63-.22a4.28 4.28 0 00-1.01 2.39c0 .66.3 1 .9 1 .6 0 .9-.33.9-.9 0-.57-.32-.83-.83-.85zm0 0"/></symbol><symbol overflow="visible" id="322c2f2bE"><path d="M3.3-7.53c-.55 0-.85.3-.85.84 0 .55.36.8.83.8h.03a5.1 5.1 0 01-.69 1.47l.52.23a4.29 4.29 0 001.02-2.4c0-.63-.33-.94-.86-.94zm0 0"/></symbol><symbol overflow="visible" id="322c2f2bF"><path d="M1.45-2.95c0 2.56 1.08 4.37 3.67 4.84l.11-.67C3.28.86 2.43-.75 2.43-2.95s.85-3.82 2.8-4.16l-.1-.69c-2.6.49-3.68 2.3-3.68 4.85zm0 0"/></symbol><symbol overflow="visible" id="322c2f2bG"><path d="M3.33.14c1.65 0 2.6-1.1 2.6-3.52S4.99-6.9 3.34-6.9C1.67-6.9.72-5.8.72-3.37c0 2.4.95 3.51 2.6 3.51zm0-.84c-1.13 0-1.6-.85-1.6-2.67 0-1.86.47-2.7 1.6-2.7 1.12 0 1.6.84 1.6 2.7 0 1.82-.48 2.67-1.6 2.67zM3.3-2.64c.38 0 .56-.28.56-.72 0-.44-.18-.7-.56-.7-.39 0-.56.26-.56.7 0 .44.17.72.56.72zm0 0"/></symbol><symbol overflow="visible" id="322c2f2bH"><path d="M4.22-6.77h-.86l-2.03.7v.87c.64-.17 1.26-.38 1.89-.55v4.9H1.03V0h4.9v-.86H4.21zm0 0"/></symbol><symbol overflow="visible" id="322c2f2bI"><path d="M1.45-7.1c1.96.33 2.8 1.94 2.8 4.15 0 2.2-.84 3.8-2.8 4.17l.11.67c2.58-.47 3.67-2.28 3.67-4.84 0-2.55-1.09-4.36-3.67-4.85zm0 0"/></symbol></defs><use xlink:href="#322c2f2ba" x="145.96" y="159" fill="#fff"/><use xlink:href="#322c2f2bb" x="181.96" y="159" fill="#515151"/><use xlink:href="#322c2f2bc" x="222.76" y="159" fill="#515151"/><use xlink:href="#322c2f2bb" x="259.72" y="159" fill="#515151"/><use xlink:href="#322c2f2bd" x="299.64" y="159" fill="#fff"/><g fill="#515151"><use xlink:href="#322c2f2be" x="335.64" y="159"/><use xlink:href="#322c2f2bf" x="372.68" y="159"/><use xlink:href="#322c2f2bg" x="415.08" y="159"/></g><g fill="#fff"><use xlink:href="#322c2f2bh" x="253.3333" y="252"/><use xlink:href="#322c2f2bi" x="260.0003" y="252"/><use xlink:href="#322c2f2bj" x="266.6673" y="252"/><use xlink:href="#322c2f2bk" x="273.3343" y="252"/><use xlink:href="#322c2f2bl" x="280.0013" y="252"/><use xlink:href="#322c2f2bm" x="286.6683" y="252"/><use xlink:href="#322c2f2bn" x="293.3353" y="252"/><use xlink:href="#322c2f2bo" x="300.0023" y="252"/><use xlink:href="#322c2f2bp" x="306.6693" y="252"/><use xlink:href="#322c2f2bo" x="313.3363" y="252"/><use xlink:href="#322c2f2bq" x="320.0033" y="252"/><use xlink:href="#322c2f2bi" x="326.6703" y="252"/><use xlink:href="#322c2f2br" x="333.3373" y="252"/><use xlink:href="#322c2f2bs" x="340.0043" y="252"/></g><g fill="#fff"><use xlink:href="#322c2f2bt" x="156.6667" y="266"/><use xlink:href="#322c2f2bi" x="163.3337" y="266"/><use xlink:href="#322c2f2bo" x="170.0007" y="266"/><use xlink:href="#322c2f2bk" x="176.6677" y="266"/><use xlink:href="#322c2f2bu" x="183.3347" y="266"/><use xlink:href="#322c2f2bv" x="190.0017" y="266"/><use xlink:href="#322c2f2bi" x="196.6687" y="266"/><use xlink:href="#322c2f2bl" x="203.3357" y="266"/><use xlink:href="#322c2f2bm" x="210.0027" y="266"/><use xlink:href="#322c2f2bw" x="216.6697" y="266"/><use xlink:href="#322c2f2bi" x="223.3367" y="266"/><use xlink:href="#322c2f2bp" x="230.0037" y="266"/><use xlink:href="#322c2f2bx" x="236.6707" y="266"/><use xlink:href="#322c2f2bi" x="243.3377" y="266"/><use xlink:href="#322c2f2br" x="250.0047" y="266"/><use xlink:href="#322c2f2by" x="256.6717" y="266"/><use xlink:href="#322c2f2bz" x="263.3387" y="266"/><use xlink:href="#322c2f2br" x="270.0057" y="266"/><use xlink:href="#322c2f2bA" x="276.6727" y="266"/><use xlink:href="#322c2f2bm" x="283.3397" y="266"/><use xlink:href="#322c2f2bo" x="290.0067" y="266"/><use xlink:href="#322c2f2bB" x="296.6737" y="266"/><use xlink:href="#322c2f2bk" x="303.3407" y="266"/><use xlink:href="#322c2f2bi" x="310.0077" y="266"/><use xlink:href="#322c2f2bv" x="316.6747" y="266"/><use xlink:href="#322c2f2br" x="323.3417" y="266"/><use xlink:href="#322c2f2bo" x="330.0087" y="266"/><use xlink:href="#322c2f2bk" x="336.6757" y="266"/><use xlink:href="#322c2f2bi" x="343.3427" y="266"/><use xlink:href="#322c2f2bm" x="350.0097" y="266"/><use xlink:href="#322c2f2bs" x="356.6767" y="266"/><use xlink:href="#322c2f2bC" x="363.3437" y="266"/><use xlink:href="#322c2f2bm" x="370.0107" y="266"/><use xlink:href="#322c2f2bD" x="376.6777" y="266"/><use xlink:href="#322c2f2bn" x="383.3447" y="266"/><use xlink:href="#322c2f2bE" x="390.0117" y="266"/><use xlink:href="#322c2f2bm" x="396.6787" y="266"/><use xlink:href="#322c2f2bF" x="403.3457" y="266"/><use xlink:href="#322c2f2bp" x="410.0127" y="266"/><use xlink:href="#322c2f2bp" x="416.6797" y="266"/><use xlink:href="#322c2f2bG" x="423.3467" y="266"/><use xlink:href="#322c2f2bH" x="430.0137" y="266"/><use xlink:href="#322c2f2bI" x="436.6807" y="266"/></g></svg>