<?xml version='1.0' encoding='UTF-8'?>
<svg xmlns="http://www.w3.org/2000/svg" xmlns:xlink="http://www.w3.org/1999/xlink" width="600px" height="300px" viewBox="0 0 600 300" x="0px" y="0px" enable-background="new 0 0 600 300"><defs><symbol overflow="visible" id="9f67d966a"><path d="M29.13 1.52c11.51 0 16.8-19.52 16.8-24.72 0-2-.73-3.03-2-3.28-1.77 3.84-3.7 8.4-6.57 11.84 0-9.84 1.52-17.67 4.4-23.05-2.07-2-5.6-3.44-8.96-3.44-2.72 0-4.8.72-6.72 1.93 2.23 1.36 4.64 3.92 6.4 6.15l-.17.17c-6-5.84-11.19-8.24-15.6-8.24C5.85-41.13 0-26.95 0-14.64 0-6 2.88 1.52 8.16 1.52c7.68 0 13.2-15.83 17.6-32.65h.16c-1.51 7.44-3.36 15.54-6.08 22 .88 5.29 3.2 10.65 9.29 10.65zm-12.49-17.6c2.31-10.56 4.72-16.87 6.64-17.69-1.76 5.77-4 12.9-6.48 17.7zm0 0"/></symbol><symbol overflow="visible" id="9f67d966b"><path d="M20.88-36.23c-1.29 2.39-2.24 5.1-3.29 7.67-2.71 7.04-4.54 14.33-9.03 14.33-2.72 0-5.28-2.9-5.28-5.77C.56-20-2.8-14.56-2.8-9.6c0 7.68 4.32 11.12 8.96 11.12 5.12 0 10.71-4.24 11.12-11.83a75.3 75.3 0 01-.23-5.61c0-4.08.47-7.28 1.18-10.16l.25.08c-.64 2.56-.8 4.95-.8 7.36 0 10.4 3.84 20.16 12 20.16 10.09 0 16.4-18.57 16.4-25.04 0-2.8-2-2.96-2-2.96s-3.85 9.04-6.56 11.84a23.57 23.57 0 01-.88-6.56c0-6 1.67-12.64 3.67-16.49-2.08-2.15-7.36-3.44-12.95-3.44-8.95 0-18.88 3.29-18.88 12.08 0 3.77 2.24 6.64 5.11 7.28 2.49-4.95 4.64-10.3 7.05-14.46zm0 0"/></symbol><symbol overflow="visible" id="9f67d966c"><path d="M11.44 1.52c4.64 0 9.69-5.75 12.56-14.32h.16c-.57 2.64-1.85 6.96-3.68 9.85 1.68 3.43 4.88 4.47 7.6 4.47 11.36 0 16.56-19.83 16.56-24.72 0-2-.72-3.03-2-3.28-1.77 3.84-3.69 8.4-6.56 11.84 0-9.84 1.6-17.92 4.4-23.05-2.07-2-5.6-3.44-9.2-3.44-12.16 0-14.16 14.9-14.16 28.26l-.8 1.03c0-8.64.8-20.32 5.45-26.64a13.57 13.57 0 00-8.25-2.65C3.59-41.13 0-30.95 0-18.48c0 12.32 3.52 20 11.44 20zm0 0"/></symbol><symbol overflow="visible" id="9f67d966d"><path d="M6.31 17.05c1.46-.4 3.46-.49 7.13-.49h34.4c10.4 0 14.47-3.51 14.47-7.92 0-2-.87-3.92-2.47-5.44-2.4.49-5.92.8-8 .88L10.16 6c-5.04.23-7.2 3.52-7.2 6.23 0 2.49.73 4.08 3.35 4.82zm59.92-43.53s-4 9.04-6.71 11.84c0-9.92 1.53-17.67 4.32-23.05 0 0-3.2-3.44-8.56-3.44-12.48 0-14.72 12.65-15.28 28.49l-.48.64c-.08-1.44-.08-2.8-.08-4.16 0-10 1.76-16.8 4.25-21.53 0 0-3.2-3.44-8.56-3.44-12.26 0-15.29 15.13-15.29 28.49l-.48.64c-.08-1.52-.16-2.88-.16-4.31 0-9.05 1.93-16.74 4.32-21.38 0 0-3.36-3.44-8.72-3.44C4.72-41.13 0-29.13 0-18 0-7.84 3.92 1.52 11.36 1.52c7.12 0 12.56-8.88 15.2-18.24h.16c-.56 3.92-1.52 8.08-3.84 11.92 1.92 3.92 4.89 6.32 8.64 6.32 8 0 13.53-11.44 15.2-18.32h.16c-.4 4-1.68 8.24-3.83 12.08 1.9 3.6 5.03 6.24 8.8 6.24 10.07 0 16.38-18.57 16.38-25.04 0-2.8-2-2.96-2-2.96zm0 0"/></symbol><symbol overflow="visible" id="9f67d966e"><path d="M8.23-44.64c1.46-.4 3.46-.48 7.13-.48h34.4c10.4 0 14.47-3.52 14.47-7.93 0-2-.87-3.9-2.46-5.43-2.41.48-5.93.8-8 .89l-41.7 1.9c-5.02.25-7.2 3.53-7.2 6.25 0 2.49.72 4.08 3.36 4.8zm58 18.16s-4 9.04-6.71 11.84c0-9.92 1.53-17.67 4.32-23.05 0 0-3.2-3.44-8.56-3.44-12.48 0-14.72 12.65-15.28 28.49l-.48.64c-.08-1.44-.08-2.8-.08-4.16 0-10 1.76-16.8 4.25-21.53 0 0-3.2-3.44-8.56-3.44-12.26 0-15.29 15.13-15.29 28.49l-.48.64c-.08-1.52-.16-2.88-.16-4.31 0-9.05 1.93-16.74 4.32-21.38 0 0-3.36-3.44-8.72-3.44C4.72-41.13 0-29.13 0-18 0-7.84 3.92 1.52 11.36 1.52c7.12 0 12.56-8.88 15.2-18.24h.16c-.56 3.92-1.52 8.08-3.84 11.92 1.92 3.92 4.89 6.32 8.64 6.32 8 0 13.53-11.44 15.2-18.32h.16c-.4 4-1.68 8.24-3.83 12.08 1.9 3.6 5.03 6.24 8.8 6.24 10.07 0 16.38-18.57 16.38-25.04 0-2.8-2-2.96-2-2.96zm0 0"/></symbol><symbol overflow="visible" id="9f67d966f"><path d="M3.83 0v-5.95H6.2v-.82H.45v.82h2.4V0zm0 0"/></symbol><symbol overflow="visible" id="9f67d966g"><path d="M5.75-2.23v-.43c0-1.6-.9-2.51-2.42-2.51S.87-4.16.87-2.48c0 1.71.91 2.62 2.5 2.62 1.43 0 2.07-.56 2.29-1.52l-.9-.09c-.18.61-.59.9-1.35.9-.94 0-1.52-.54-1.58-1.66zm-2.4-2.2c.93 0 1.43.5 1.48 1.55H1.84c.08-1.07.6-1.56 1.5-1.56zm0 0"/></symbol><symbol overflow="visible" id="9f67d966h"><path d="M1.83 0l1.42-2h.06l1.46 2H5.8L4-2.53l1.78-2.49H4.8L3.42-3.08h-.08l-1.4-1.94H.89l1.78 2.49L.84 0zm0 0"/></symbol><symbol overflow="visible" id="9f67d966i"><path d="M5.52-4.25v-.77H3.17v-1.56h-.81l-.14 1.56H.75v.77h1.47v2.4c0 1.3.48 1.94 1.84 1.94C4.6.1 5.14 0 5.55-.14L5.4-.91c-.32.13-.72.2-1.13.2-.8 0-1.1-.37-1.1-1.23v-2.31zm0 0"/></symbol><symbol overflow="visible" id="9f67d966j"><path d="M3.33-3.42c.47 0 .8-.27.8-.8 0-.51-.33-.8-.8-.8-.47 0-.8.29-.8.8 0 .53.33.8.8.8zm0 3.5c.47 0 .8-.27.8-.78 0-.53-.33-.82-.8-.82-.47 0-.8.29-.8.82 0 .51.33.78.8.78zm0 0"/></symbol><symbol overflow="visible" id="9f67d966l"><path d="M2.83.14c.94 0 1.5-.39 1.81-.95h.08l.1.81h.76v-3.38c0-1.23-.69-1.8-2.13-1.8-1.43 0-2.03.65-2.18 1.6l.93.1c.11-.6.44-.93 1.22-.93.85 0 1.22.32 1.22 1.04v.34l-1.81.2C1.6-2.7 1.1-2.17 1.1-1.28c0 .92.64 1.42 1.72 1.42zm.25-.77c-.67 0-1.02-.28-1.02-.74 0-.44.28-.72 1-.82l1.58-.19v.41c0 .8-.6 1.34-1.56 1.34zm0 0"/></symbol><symbol overflow="visible" id="9f67d966m"><path d="M1.58-5.02c-.03.94-.11 2.35-.17 3.08-.08.86-.24 1.19-.74 1.19-.12 0-.23-.02-.31-.03L.3.02c.14.03.36.06.55.06 1.06 0 1.3-.64 1.39-1.9.05-.54.1-1.63.14-2.43h2.06V0h.96v-5.02zm0 0"/></symbol><symbol overflow="visible" id="9f67d966n"><path d="M2.03 0L4.6-3.72h.08V0h.92v-5.02h-.96L2.06-1.27H2v-3.75h-.92V0zm0 0"/></symbol><symbol overflow="visible" id="9f67d966o"><path d="M5.2-.73H3.75v-4.29h-.83v4.29H1.47v-4.29H.64V0h5.4v-5.02H5.2zm0 0"/></symbol><symbol overflow="visible" id="9f67d966p"><path d="M.95-5.02v.77h1.9V0h.96v-4.25h1.9v-.77zm0 0"/></symbol><symbol overflow="visible" id="9f67d966q"><path d="M5.95-6.77H1.1V0h.99v-2.92H5.3v-.77H2.08v-2.26h3.87zm0 0"/></symbol><symbol overflow="visible" id="9f67d966r"><path d="M2.83.14c.94 0 1.5-.39 1.81-.95h.08l.1.81h.76v-3.38c0-1.23-.69-1.8-2.13-1.8-1.43 0-2.03.65-2.18 1.6l.93.1c.11-.6.44-.93 1.22-.93.85 0 1.22.32 1.22 1.04v.34l-1.81.2C1.6-2.7 1.1-2.17 1.1-1.28c0 .92.64 1.42 1.72 1.42zm.25-.77c-.67 0-1.02-.28-1.02-.74 0-.44.28-.72 1-.82l1.58-.19v.41c0 .8-.6 1.34-1.56 1.34zm0 0"/></symbol><symbol overflow="visible" id="9f67d966s"><path d="M2.73.14c.9 0 1.43-.45 1.74-1.08h.06l.13.94h.8v-5.02h-.94v2.7c0 .98-.57 1.62-1.46 1.62-.75 0-1.1-.4-1.1-1.22v-3.1h-.93v3.32c0 1.17.55 1.84 1.7 1.84zm0 0"/></symbol><symbol overflow="visible" id="9f67d966t"><path d="M5.08-5.16c-.94 0-1.58.43-1.9 1.3h-.09l-.07-1.16H1.05v.77h1.1v3.48H.96V0h3.96v-.77H3.1v-1.46c0-1.36.6-2.05 1.83-2.05.4 0 .76.08 1.1.17l.15-.87c-.33-.11-.7-.18-1.11-.18zm0 0"/></symbol><symbol overflow="visible" id="9f67d966u"><path d="M3.42.14c1.61 0 2.56-.75 2.56-2 0-1.1-.67-1.6-1.95-1.86l-.97-.2c-.87-.17-1.23-.49-1.23-1.11 0-.7.54-1.11 1.5-1.11 1.06 0 1.51.34 1.69 1.23l.9-.09c-.17-1.28-.98-1.9-2.6-1.9C1.79-6.9.9-6.18.9-4.98c0 1.06.66 1.66 1.88 1.9l1.01.2c.85.17 1.25.4 1.25 1.09 0 .73-.6 1.16-1.6 1.16-1.07 0-1.66-.4-1.8-1.24l-.94.1C.83-.53 1.75.13 3.42.13zm0 0"/></symbol><symbol overflow="visible" id="9f67d966v"><path d="M3.9.14c1.48 0 2.18-.98 2.18-2.64 0-1.67-.7-2.66-2.17-2.66-.91 0-1.49.41-1.79 1h-.06v-2.98h-.95V0h.81l.11-.9h.06c.29.63.82 1.04 1.82 1.04zm-.32-.8c-1.08 0-1.55-.8-1.55-1.84 0-1.06.47-1.86 1.55-1.86 1.1 0 1.51.61 1.51 1.86S4.64-.66 3.58-.66zm0 0"/></symbol><symbol overflow="visible" id="9f67d966w"><path d="M3.58-5.81c.42 0 .72-.22.72-.67 0-.44-.3-.68-.72-.68-.44 0-.72.24-.72.68 0 .45.28.67.72.67zm.5.8H1.52v.76h1.6v3.48h-1.8V0h4.46v-.77h-1.7zm0 0"/></symbol><symbol overflow="visible" id="9f67d966x"><path d="M2.16 0v-2.67c0-.99.59-1.63 1.46-1.63.74 0 1.07.38 1.07 1.22V0h.95v-3.31c0-1.2-.56-1.85-1.67-1.85-.92 0-1.49.46-1.77 1.08h-.06l-.12-.94H1.2V0zm0 0"/></symbol><symbol overflow="visible" id="9f67d966y"><path d="M2.58.95l2.39-8.67h-.9L1.7.95zm0 0"/></symbol><symbol overflow="visible" id="9f67d966z"><path d="M1.64 0v-3.17l-.16-2.5h.1L2.9-1.83h.82l1.35-3.84h.1l-.16 2.5V0h.95v-6.77h-1.3l-1.3 3.82h-.09L2-6.77H.69V0zm0 0"/></symbol><symbol overflow="visible" id="9f67d966A"><path d="M3.34.14c1.43 0 2.13-.66 2.25-1.78l-.89-.1c-.1.7-.5 1.08-1.34 1.08-1.03 0-1.52-.64-1.52-1.84 0-1.23.47-1.86 1.52-1.86.84 0 1.23.36 1.34 1.08l.9-.1c-.13-1.09-.82-1.78-2.26-1.78-1.56 0-2.46.97-2.46 2.66 0 1.66.9 2.64 2.46 2.64zm0 0"/></symbol><symbol overflow="visible" id="9f67d966B"><path d="M2.84.14C3.8.14 4.33-.26 4.6-.9h.07L4.8 0h.76v-7.14h-.95v2.95h-.08c-.28-.6-.86-.97-1.67-.97-1.48 0-2.27.99-2.27 2.64C.6-.84 1.36.14 2.84.14zm.22-.8c-.98 0-1.48-.59-1.48-1.84s.5-1.86 1.48-1.86c1.13 0 1.58.8 1.58 1.86S4.2-.66 3.06-.66zm0 0"/></symbol><symbol overflow="visible" id="9f67d966C"><path d="M3.33.14c1.62 0 2.5-.95 2.5-2.66 0-1.68-.88-2.64-2.5-2.64-1.63 0-2.5.96-2.5 2.64 0 1.7.87 2.66 2.5 2.66zm0-.77c-1.06 0-1.52-.6-1.52-1.89 0-1.28.46-1.87 1.52-1.87 1.08 0 1.53.6 1.53 1.87 0 1.29-.45 1.9-1.53 1.9zm0 0"/></symbol><symbol overflow="visible" id="9f67d966D"><path d="M2.44 0l.87-3.31h.06L4.25 0H5.3l1.03-5.02h-.88l-.73 3.94h-.08L3.77-4.4h-.85l-.87 3.33h-.08l-.75-3.94H.34L1.36 0zm0 0"/></symbol><symbol overflow="visible" id="9f67d966E"><path d="M2.16 0v-2.69c0-.98.6-1.6 1.46-1.6.74 0 1.07.4 1.07 1.2V0h.95v-3.31c0-1.17-.56-1.85-1.67-1.85-.9 0-1.44.46-1.75 1.08h-.06v-3.06H1.2V0zm0 0"/></symbol><symbol overflow="visible" id="9f67d966F"><path d="M3.92-7.14H1.36v.76h1.6v5.61H1.15V0H5.7v-.77H3.92zm0 0"/></symbol><symbol overflow="visible" id="9f67d966G"><path d="M3.9 0l2-5.02h-.96L3.4-.94h-.07L1.8-5.02H.77L2.78 0zm0 0"/></symbol><symbol overflow="visible" id="9f67d966H"><path d="M3.38-5.9c.12-.5.42-1.04.67-1.41l-.63-.22a4.28 4.28 0 00-1.01 2.39c0 .66.3 1 .9 1 .6 0 .9-.33.9-.9 0-.57-.32-.83-.83-.85zm0 0"/></symbol><symbol overflow="visible" id="9f67d966I"><path d="M3.36.16c1.4 0 2.2-.6 2.2-1.57 0-.89-.54-1.22-1.47-1.39L3-3c-.67-.14-.86-.33-.86-.73 0-.5.4-.74 1.17-.74.83 0 1.19.27 1.27.8l.9-.05c-.12-1-.8-1.47-2.17-1.47-1.34 0-2.1.53-2.1 1.5 0 .81.45 1.22 1.52 1.44l1.04.2c.56.11.87.24.87.72 0 .52-.45.78-1.28.78-.95 0-1.36-.28-1.42-.87l-.9.06C1.07-.36 1.8.16 3.35.16zm0 0"/></symbol><symbol overflow="visible" id="9f67d966J"><path d="M3.3-7.53c-.55 0-.85.3-.85.84 0 .55.36.8.83.8h.03a5.1 5.1 0 01-.69 1.47l.52.23a4.29 4.29 0 001.02-2.4c0-.63-.33-.94-.86-.94zm0 0"/></symbol><symbol overflow="visible" id="9f67d966K"><path d="M1.45-2.95c0 2.56 1.08 4.37 3.67 4.84l.11-.67C3.28.86 2.43-.75 2.43-2.95s.85-3.82 2.8-4.16l-.1-.69c-2.6.49-3.68 2.3-3.68 4.85zm0 0"/></symbol><symbol overflow="visible" id="9f67d966L"><path d="M3.16 2.03c1.67 0 2.4-.86 2.4-2.51v-4.54h-.81l-.13.91h-.06c-.26-.58-.8-1.05-1.73-1.05-1.42 0-2.24 1-2.24 2.52 0 1.6.75 2.56 2.2 2.56.94 0 1.5-.5 1.77-1.03h.05v.72c0 1.17-.42 1.67-1.45 1.67-.93 0-1.3-.34-1.41-.89L.8.5c.12.96.87 1.54 2.36 1.54zM3.06-.8c-.98 0-1.48-.57-1.48-1.82 0-1.13.5-1.75 1.48-1.75 1.06 0 1.58.76 1.58 1.75 0 .95-.56 1.82-1.58 1.82zm0 0"/></symbol><symbol overflow="visible" id="9f67d966M"><path d="M3.33.14c1.65 0 2.6-1.1 2.6-3.52S4.99-6.9 3.34-6.9C1.67-6.9.72-5.8.72-3.37c0 2.4.95 3.51 2.6 3.51zm0-.84c-1.13 0-1.6-.85-1.6-2.67 0-1.86.47-2.7 1.6-2.7 1.12 0 1.6.84 1.6 2.7 0 1.82-.48 2.67-1.6 2.67zM3.3-2.64c.38 0 .56-.28.56-.72 0-.44-.18-.7-.56-.7-.39 0-.56.26-.56.7 0 .44.17.72.56.72zm0 0"/></symbol><symbol overflow="visible" id="9f67d966N"><path d="M3.33.16c1.69 0 2.69-.74 2.69-1.94 0-1.05-.8-1.58-1.43-1.72v-.05c.5-.14 1.2-.58 1.2-1.56 0-1.12-.95-1.81-2.46-1.81-1.52 0-2.46.69-2.46 1.81 0 .97.68 1.4 1.18 1.56v.05c-.6.14-1.4.64-1.4 1.72 0 1.2 1 1.94 2.68 1.94zm0-4.04c-.97 0-1.49-.43-1.49-1.12 0-.78.52-1.1 1.49-1.1.95 0 1.48.32 1.48 1.1 0 .69-.53 1.13-1.48 1.13zm0 3.24c-1.1 0-1.7-.42-1.7-1.25 0-.78.6-1.2 1.7-1.2s1.7.42 1.7 1.2c0 .83-.6 1.25-1.7 1.25zm0 0"/></symbol><symbol overflow="visible" id="9f67d966O"><path d="M1.45-7.1c1.96.33 2.8 1.94 2.8 4.15 0 2.2-.84 3.8-2.8 4.17l.11.67c2.58-.47 3.67-2.28 3.67-4.84 0-2.55-1.09-4.36-3.67-4.85zm0 0"/></symbol></defs><g fill="#515151"><use xlink:href="#9f67d966a" x="158.88" y="159"/><use xlink:href="#9f67d966b" x="198.8" y="159"/><use xlink:href="#9f67d966c" x="238.88" y="159"/></g><use xlink:href="#9f67d966d" x="277.52" y="159" fill="#fff"/><use xlink:href="#9f67d966e" x="339.76" y="159" fill="#fff"/><use xlink:href="#9f67d966a" x="401.2" y="159" fill="#515151"/><g fill="#fff"><use xlink:href="#9f67d966f" x="260" y="252"/><use xlink:href="#9f67d966g" x="266.667" y="252"/><use xlink:href="#9f67d966h" x="273.334" y="252"/><use xlink:href="#9f67d966i" x="280.001" y="252"/><use xlink:href="#9f67d966j" x="286.668" y="252"/><use xlink:href="#9f67d966k" x="293.335" y="252"/><use xlink:href="#9f67d966l" x="300.002" y="252"/><use xlink:href="#9f67d966m" x="306.669" y="252"/><use xlink:href="#9f67d966n" x="313.336" y="252"/><use xlink:href="#9f67d966o" x="320.003" y="252"/><use xlink:href="#9f67d966p" x="326.67" y="252"/><use xlink:href="#9f67d966l" x="333.337" y="252"/></g><g fill="#fff"><use xlink:href="#9f67d966q" x="56.66667" y="266"/><use xlink:href="#9f67d966g" x="63.33367" y="266"/><use xlink:href="#9f67d966r" x="70.00067" y="266"/><use xlink:href="#9f67d966i" x="76.66767" y="266"/><use xlink:href="#9f67d966s" x="83.33467" y="266"/><use xlink:href="#9f67d966t" x="90.00167" y="266"/><use xlink:href="#9f67d966g" x="96.66867" y="266"/><use xlink:href="#9f67d966j" x="103.33567" y="266"/><use xlink:href="#9f67d966k" x="110.00267" y="266"/><use xlink:href="#9f67d966u" x="116.66967" y="266"/><use xlink:href="#9f67d966g" x="123.33667" y="266"/><use xlink:href="#9f67d966t" x="130.00367" y="266"/><use xlink:href="#9f67d966v" x="136.67067" y="266"/><use xlink:href="#9f67d966w" x="143.33767" y="266"/><use xlink:href="#9f67d966r" x="150.00467" y="266"/><use xlink:href="#9f67d966x" x="156.67167" y="266"/><use xlink:href="#9f67d966y" x="163.33867" y="266"/><use xlink:href="#9f67d966z" x="170.00567" y="266"/><use xlink:href="#9f67d966r" x="176.67267" y="266"/><use xlink:href="#9f67d966A" x="183.33967" y="266"/><use xlink:href="#9f67d966g" x="190.00667" y="266"/><use xlink:href="#9f67d966B" x="196.67367" y="266"/><use xlink:href="#9f67d966C" x="203.34067" y="266"/><use xlink:href="#9f67d966x" x="210.00767" y="266"/><use xlink:href="#9f67d966w" x="216.67467" y="266"/><use xlink:href="#9f67d966r" x="223.34167" y="266"/><use xlink:href="#9f67d966x" x="230.00867" y="266"/><use xlink:href="#9f67d966k" x="236.67567" y="266"/><use xlink:href="#9f67d966D" x="243.34267" y="266"/><use xlink:href="#9f67d966w" x="250.00967" y="266"/><use xlink:href="#9f67d966i" x="256.67667" y="266"/><use xlink:href="#9f67d966E" x="263.34367" y="266"/><use xlink:href="#9f67d966k" x="270.01067" y="266"/><use xlink:href="#9f67d966r" x="276.67767" y="266"/><use xlink:href="#9f67d966F" x="283.34467" y="266"/><use xlink:href="#9f67d966i" x="290.01167" y="266"/><use xlink:href="#9f67d966g" x="296.67867" y="266"/><use xlink:href="#9f67d966t" x="303.34567" y="266"/><use xlink:href="#9f67d966x" x="310.01267" y="266"/><use xlink:href="#9f67d966r" x="316.67967" y="266"/><use xlink:href="#9f67d966i" x="323.34667" y="266"/><use xlink:href="#9f67d966w" x="330.01367" y="266"/><use xlink:href="#9f67d966G" x="336.68067" y="266"/><use xlink:href="#9f67d966g" x="343.34767" y="266"/><use xlink:href="#9f67d966k" x="350.01467" y="266"/><use xlink:href="#9f67d966H" x="356.68167" y="266"/><use xlink:href="#9f67d966I" x="363.34867" y="266"/><use xlink:href="#9f67d966E" x="370.01567" y="266"/><use xlink:href="#9f67d966r" x="376.68267" y="266"/><use xlink:href="#9f67d966J" x="383.34967" y="266"/><use xlink:href="#9f67d966k" x="390.01667" y="266"/><use xlink:href="#9f67d966K" x="396.68367" y="266"/><use xlink:href="#9f67d966I" x="403.35067" y="266"/><use xlink:href="#9f67d966g" x="410.01767" y="266"/><use xlink:href="#9f67d966i" x="416.68467" y="266"/><use xlink:href="#9f67d966k" x="423.35167" y="266"/><use xlink:href="#9f67d966F" x="430.01867" y="266"/><use xlink:href="#9f67d966r" x="436.68567" y="266"/><use xlink:href="#9f67d966x" x="443.35267" y="266"/><use xlink:href="#9f67d966L" x="450.01967" y="266"/><use xlink:href="#9f67d966s" x="456.68667" y="266"/><use xlink:href="#9f67d966r" x="463.35367" y="266"/><use xlink:href="#9f67d966L" x="470.02067" y="266"/><use xlink:href="#9f67d966g" x="476.68767" y="266"/><use xlink:href="#9f67d966k" x="483.35467" y="266"/><use xlink:href="#9f67d966C" x="490.02167" y="266"/><use xlink:href="#9f67d966t" x="496.68867" y="266"/><use xlink:href="#9f67d966k" x="503.35567" y="266"/><use xlink:href="#9f67d966I" x="510.02267" y="266"/><use xlink:href="#9f67d966I" x="516.68967" y="266"/><use xlink:href="#9f67d966M" x="523.35667" y="266"/><use xlink:href="#9f67d966N" x="530.02367" y="266"/><use xlink:href="#9f67d966O" x="536.69067" y="266"/></g></svg>