<?xml version="1.0" encoding="UTF-8"?><svg enable-background="new 0 0 1000 2040" height="2040px" viewBox="0 0 1000 2040" width="1000px" x="0px" xml:space="preserve" xmlns="http://www.w3.org/2000/svg" xmlns:xlink="http://www.w3.org/1999/xlink" y="0px"><defs><symbol overflow="visible"><path d="M112.938 0v-158.516H0V0zM95.31-147.25L56.594-89.422l-38.47-57.828zm6.61 125.938l-38.47-58.063 38.47-57.578zm-83.797 9.796l38.47-57.578 38.718 57.578zm-6.61-125.437l38.22 57.578-38.22 58.063zm0 0"/></symbol><symbol id="40151b02a" overflow="visible"><path d="M86.97-31.11c3.436-17.64 9.56-33.078 17.155-47.046h.484c-.485 17.89-6.86 31.844-17.64 47.047zM47.28-135.97C39.938-115.64 37-86.97 37-61.733c0 29.39 8.078 66.39 38.453 66.39 4.656 0 14.22-2.453 17.406-6.125-13.485-9.796-24.75-28.17-33.08-46.06h.736c12.5 24.75 33.078 50.718 59.53 50.718 35.532 0 60.266-46.797 60.266-79.14 0-21.798-13.218-28.907-28.906-28.907-19.594 0-43.11 11.032-49.97 18.126l-.75-.735c3.19-3.92 8.58-8.577 13.736-11.514-16.672 0-33.813-7.344-40.672-17.64l.234-.735c8.094 10.547 25.735 14.954 39.204 14.954 37 0 58.312-20.094 58.312-49.25 0-8.813-2.203-18.625-6.125-27.688-13.97 6.625-26.453 8.828-37.97 8.828-24.264 0-45.327-9.797-72.28-9.797-24.25 0-52.672 15.672-52.672 49 0 22.282 12.735 36.985 30.375 41.89 3.672-19.108 7.594-32.827 13.97-46.546zm0 0"/></symbol><symbol id="40151b02b" overflow="visible"><path d="M124.453-68.11c0-7.843-2.203-12.984-6.125-12.984-10.03 27.438-28.172 38.953-49.97 38.953-15.186 0-32.342-6.376-44.842-17.64l.25-.25C36.5-49.985 51.453-45.563 64.438-45.563c24.75 0 46.546-18.626 46.546-45.83 0-22.296-16.17-34.546-40.67-34.546-43.36 0-71.533 33.58-71.533 77.422 0 34.547 15.673 53.172 53.407 53.172 58.797 0 72.266-49.484 72.266-72.765zM66.89-114.42c-7.593 15.438-10.546 32.844-12.5 55.125 0 0-1.953 0-3.437-.734 2.22-20.58 6.375-40.657 15.438-54.392zm0 0"/></symbol><symbol id="40151b02c" overflow="visible"><path d="M58.313-114.422c3.42 3.922 6.374 12.016 6.374 20.094 0 10.78-5.156 21.312-21.328 21.312-1.704 0-3.422 0-5.14-.234-1.47 3.188-2.454 6.125-2.454 9.797 0 10.53 7.36 15.672 15.687 15.672 7.594 0 15.922-4.657 19.36-14.69h.484C67.625-49.983 57.813-45.077 47.28-45.077c-14.702 0-29.64-9.313-33.81-21.313l-1.954-.985C4.906-67.375 0-56.595 0-44.828 0-9.062 26.453 4.656 58.797 4.656c29.89 0 59.53-16.422 59.53-48.75 0-14.703-9.796-25.234-20.577-29.156-8.563 1.47-22.297 1.953-30.86 2.203v-.25C97.017-74.97 114.907-81.344 114.907-98c0-22.297-25.234-27.938-42.875-27.938-37.233 0-51.702 16.172-51.702 30.14 0 12.25 11.03 20.095 23.53 20.095 13.22 0 18.86-10.53 18.86-21.563 0-6.125-1.718-12.5-4.906-17.156zm0 0"/></symbol><symbol id="40151b02d" overflow="visible"><path d="M123.97-115.39c-6.376-6.126-17.157-10.547-28.173-10.547-37.234 0-43.36 45.578-43.36 86.5l-2.453 3.17c0-26.452 2.453-62.217 16.657-81.577-5.874-4.656-14.953-8.094-25.234-8.094C11.03-125.938 0-94.81 0-56.594 0-18.86 10.78 4.656 35.03 4.656c14.22 0 29.657-17.64 38.47-43.86h.484c-1.703 8.095-4.89 21.563-14.453 33.33 1.72 10.046 4.907 22.046 8.33 34.78h-.485c-3.922-8.328-8.078-18.86-11.03-30.86C50.952 3.923 42.624 8.58 32.827 8.58c-1.22 0-2.203 0-3.422-.25-6.375 5.64-9.312 12-9.312 18.625 0 16.656 19.593 23.516 48.265 23.516 40.67 0 48.75-13.236 48.75-34.548 0-12.485-6.61-41.156-6.61-71.53 0-20.58 2.938-42.142 13.47-59.783zm0 0"/></symbol><symbol id="40151b02e" overflow="visible"><path d="M81.828-26.953c5.14 18.625 15.438 31.61 31.11 31.61 30.874 0 50.234-56.844 50.234-76.688 0-8.58-6.125-9.064-6.125-9.064s-11.766 27.688-20.094 36.266c0-30.39 4.656-54.156 13.234-70.563 0 0-10.296-10.547-26.703-10.547-34.062 0-44.343 40.187-53.17 72.53h-.486c2.453-14.952 5.14-27.687 8.813-40.187-3.92-13.97-17.64-28.172-31.11-28.172-18.124 0-29.405 11.266-35.764 27.438C17.89-86 24.016-75.703 28.172-66.156c0 10.547-3.422 19.11-10.28 19.11-5.158 0-9.08-5.392-9.08-14.204-8.328 0-14.937 18.625-14.937 31.36 0 18.86 7.11 34.546 27.188 34.546 11.515 0 22.296-10.53 25.25-25.234-3.438-14.453-5.64-23.28-9.813-33.328l.5-.235s16.406 32.093 24.734 68.843L95.547-72.03h.5zm0 0"/></symbol><symbol id="40151b02f" overflow="visible"><path d="M35.03 4.656c14.22 0 29.657-17.64 38.47-43.86h.484C72.28-31.108 68.36-17.89 62.72-9.06 67.86 1.467 77.67 4.655 86 4.655c34.78 0 50.703-60.765 50.703-75.703 0-6.125-2.203-9.312-6.125-10.047-5.39 11.766-11.266 25.72-20.078 36.266 0-30.14 4.89-54.89 13.47-70.563-6.376-6.126-17.157-10.547-28.173-10.547-37.234 0-43.36 45.578-43.36 86.5l-2.453 3.17c0-26.452 2.453-62.217 16.657-81.577-5.874-4.656-14.953-8.094-25.234-8.094C11.03-125.938 0-94.81 0-56.594 0-18.86 10.78 4.656 35.03 4.656zm0 0"/></symbol><symbol overflow="visible"><path d="M61.313 0v-86.047H-.142V0zm-9.704-79.938l-20.89 31.39-20.876-31.39zm3.718 68.36L34.453-43.094l20.875-31.25h-.14v62.766zM9.844-6.25L30.72-37.375 51.61-6.25zm-3.72-68.094l20.735 31.25L6.124-11.578h.125v-62.766zm0 0"/></symbol><symbol id="40151b02g" overflow="visible"><path d="M42.688-69.03c-3.72 10.25-5.985 23.405-5.985 35.78 0 6.922 1.203 18.36 4.125 25.406h-.125c-3.734-7.453-5.453-19.547-5.72-27.937-12.64 1.468-19.295 11.17-19.295 20.75 0 10.514 8.25 21.155 26.343 21.155 29.517 0 30.33-15.03 30.33-33.25 0-7.984.124-16.36 2.656-24.344-9.047-1.06-18.75-5.718-22.75-11.702l.14-.266c4.25 5.454 13.953 8.907 21.282 8.907 20.078 0 31.64-11.97 31.64-27.798 0-4.78-1.062-9.97-3.312-15.03C94.703-93.767 87.78-92.563 81-92.563c-15.297 0-29.797-6.25-45.625-6.25-23.938 0-34.172 14.093-34.172 27.53C1.203-56.265 11.97-47.608 25-47.608c4 0 6.922-.14 11.172-1.86 1.203-7.327 2.39-12.108 4.39-18.093-3.593-3.062-9.312-5.187-14.89-5.86v-.264c5.72 0 12.5 2.406 17.015 4.656zm0 0"/></symbol><symbol id="40151b02h" overflow="visible"><path d="M27.938 2.53c26.453 0 34.578-24.343 34.578-47.218 0-13.703-5.188-23.67-14.907-23.67-6.376 0-11.172 4.25-14.36 9.577.797-2.94 2.39-5.986 3.984-7.314-1.984-.937-4.515-1.203-6.64-1.203-17.422 0-31.39 20.875-31.39 40.172C-.797-8.375 6.92 2.53 27.936 2.53zm.39-52c-1.47 6.25-2.125 11.173-2.125 14.75 0 5.33 1.328 8.657 3.453 10.642-.125 1.594-.656 3.47-2 3.47-2.125 0-3.578-4.658-3.578-10.908 0-5.593 1.188-12.375 4.25-17.953zm0 0"/></symbol><symbol id="40151b02i" overflow="visible"><path d="M34.578-60.25c-2.125 3.984-3.72 8.516-5.453 12.766-4.516 11.703-7.453 23.812-14.89 23.812-4.532 0-8.782-4.797-8.782-9.578-4.516 0-10.234 9.047-10.234 17.297C-4.78-3.188 2.53 2.53 10.233 2.53c8.516 0 17.828-7.046 18.5-19.686-.265-3.453-.406-6.516-.406-9.313 0-6.78.797-12.093 2-16.75h.266c-1.063 4.25-1.328 8.236-1.328 12.236 0 17.28 6.515 33.515 20.078 33.515 16.75 0 27.265-30.858 27.265-41.64 0-4.64-3.33-4.906-3.33-4.906S66.767-29 62.376-24.344c-.922-3.187-1.47-6.906-1.47-10.906 0-9.97 2.798-21.016 6.126-27.39-3.452-3.594-12.233-5.72-21.546-5.72-14.89 0-31.515 5.454-31.515 20.08 0 6.25 3.858 11.046 8.64 12.233 4.124-8.375 7.718-17.28 11.703-24.203zm0 0"/></symbol><symbol id="40151b02j" overflow="visible"><path d="M28.328 2.53c31.78 0 39.234-27 39.234-39.5 0-4.264-1.203-7.046-3.453-7.046-3.86 10.235-11.438 20.61-24.344 20.61-9.438 0-12.5-5.453-12.5-12.5 0-8.922 5.047-20.36 8.78-26.203h.126c-3.72 6.64-7.703 17.282-7.703 25.407 0 6.516 2.78 11.437 10.093 11.437 9.312 0 21.687-9.578 21.687-24.343 0-12.11-8.78-18.75-22.078-18.75-23.547 0-38.97 18.22-38.97 41.89 0 18.892 8.642 29 29.126 29zm0 0"/></symbol><symbol id="40151b02k" overflow="visible"><path/></symbol><symbol id="40151b02l" overflow="visible"><path d="M36.047-48.938c2.25-5.86 3.86-13.843 3.86-20.093-1.876-1.454-4.657-3.064-8.782-3.86v-.266c4.25.265 8.25 2 10.64 2.937C39.11-40.562 28.86-26.062 5.188-23.67c0 10.766 6.39 26.203 24.61 26.203 23.14 0 37.375-20.218 37.375-62.374l3.72.797c-1.595 7.438-2.533 15.563-2.533 23.406 0 20.078 6.39 38.17 23.937 38.17 19.03 0 26.734-27.14 26.734-41.374 0-2.78-1.06-4.78-3.452-5.172-2.53 6.375-6.516 13.032-10.25 17.157v-3.328c0-8.375.938-21.156 3.203-29.125 8.11-4.92 12.5-13.312 12.5-23.015 0-4.78-1.06-9.97-3.327-15.03-7.312 3.592-14.234 4.796-21.016 4.796-15.296 0-44.156-6.25-59.984-6.25-23.937 0-34.172 14.093-34.172 27.53 0 15.016 10.767 23.673 23.798 23.673 3.594 0 6.125-.14 9.72-1.328zm0 0"/></symbol><symbol id="40151b02m" overflow="visible"><path d="M48.406 2.53c19.157 0 27.938-32.452 27.938-41.093 0-3.328-1.203-5.062-3.453-5.453-2.937 6.375-6.124 13.953-10.906 19.672h.125c0-16.36 2.53-29.39 7.312-38.297-3.453-3.33-9.313-5.72-14.89-5.72-4.516 0-8.11 1.188-11.313 3.188 3.733 2.266 7.718 6.516 10.64 10.25l-.266.266C43.75-64.376 35.11-68.36 27.797-68.36 9.703-68.36-.14-44.827-.14-24.343-.14-9.97 4.78 2.53 13.562 2.53c12.765 0 21.953-26.343 29.265-54.264h.125c-2.516 12.36-5.578 25.797-10.11 36.578C34.314-6.39 38.298 2.53 48.407 2.53zm-20.75-29.264C31.516-44.28 35.516-54.797 38.563-56c-2.922 9.453-6.64 21.28-10.766 29.266zm0 0"/></symbol><symbol id="40151b02n" overflow="visible"><path d="M27.938-42.297s1.187-11.97 5.578-19.812c-4.25-3.453-8.782-5.062-13.032-5.062-10.64 0-19.812 9.844-19.812 23.016 0 5.187 1.72 10.375 5.578 14.5C5.187-21.14 2.922-11.844-1.47-3.188c4.267 3.72 9.58 5.72 14.642 5.72 6.11 0 12.094-2.798 16.484-7.985-2-5.313-2.265-13.703-2.265-19.953h.14C28.33-12.376 32.188 2.53 45.485 2.53c16.766 0 27.266-30.858 27.266-41.64 0-4.64-3.328-4.906-3.328-4.906S62.906-29 58.516-24.47c0-16.358 2.53-29.264 7.187-38.17 0 0-5.594-5.72-14.5-5.72-16.36 0-21.672 17.813-23.14 26.063zm0 0"/></symbol><symbol id="40151b02o" overflow="visible"><path d="M67.563-36.97c0-4.264-1.204-7.046-3.454-7.046-5.454 14.89-15.172 21.14-27 21.14-8.25 0-17.563-3.452-24.344-9.577h.14c6.78 5.328 15.031 7.72 22.078 7.72 13.422 0 25.266-10.11 25.266-24.876 0-12.11-8.78-18.75-22.078-18.75-23.547 0-38.97 18.22-38.97 42.032 0 18.75 8.642 28.86 29.126 28.86 31.922 0 39.234-26.876 39.234-39.5zm-31.39-25.14c-4.126 8.376-5.72 17.83-6.782 29.922h.14s-1.06 0-1.874-.265c1.203-11.297 3.47-22.203 8.39-29.656zm0 0"/></symbol><symbol id="40151b02p" overflow="visible"><path d="M66.094-7.72c-.922-2.514-1.594-6.514-1.594-10.905 0-8.5 1.594-22.47 9.578-36.172h.266c-4.516 9.578-8.25 23.813-8.25 35.375 0 12.11 5.328 21.953 16.094 21.953 19.156 0 26.468-32.593 26.468-41.093 0-3.468-1.328-5.062-3.453-5.453 0 0-6.125 14.89-10.375 19.672h.14c4.376-11.172 6.11-24.203 6.11-29.515 0-9.312-3.984-14.5-13.03-14.5-23.548 0-29.126 36.047-30.72 54h-.14c0-7.984 1.86-34.046 13.03-47.624 0 0-4.39-6.375-13.687-6.375-22.608 0-28.874 32.844-30.733 54h-.125c.922-20.624 4.922-37.374 13.03-47.624-3.452-3.578-8.78-6.375-15.827-6.375-14.094 0-21.672 11.83-21.672 37.907C1.203-8.375 8.78 2.53 20.483 2.53c9.048 0 12.626-5.983 14.095-10.25-1.062-3.858-1.594-7.436-1.594-11.17 0-8.64 1.594-22.204 9.578-35.907h.266c-4.53 9.578-8.25 23.672-8.25 35.375C34.578-7.578 39.766 2.53 52 2.53c9.047 0 12.64-5.983 14.094-10.25zm0 0"/></symbol><symbol id="40151b02q" overflow="visible"><path d="M38.172 2.53c13.03 0 27.266-11.842 27.922-35.514h.14v3.062c0 7.578-1.468 13.297-4.125 20.078C64.905-3.188 70.093 2.53 77.53 2.53c16.767 0 27.267-30.858 27.267-41.64 0-4.64-3.313-4.906-3.313-4.906S94.97-29 90.578-24.47c0-16.358 2.516-29.264 7.172-38.17 0 0-5.578-5.72-14.484-5.72-10.64 0-17.83 8.11-21.547 18.626C59.452-53.47 56.124-56 51.733-56 40.03-56 28.86-34.312 23.672-13.97h-.266c1.203-7.577 5.453-21.14 14.235-48.14-3.187-3.593-7.187-6.25-13.296-6.25C7.578-68.36-.14-50.812-.14-33.11c0 17.813 7.86 35.64 21.953 35.64 2.796 0 4.515-.67 5.578-1.327-5.046-2.937-10.36-7.328-14.218-12.11l.125-.124C19.953-4.39 30.594 2.53 38.172 2.53zm.937-36.718h.124c-2.53 10.782-7.718 23.016-10.906 24.344 3.188-9.578 5.86-15.953 10.78-24.343zm0 0"/></symbol><symbol overflow="visible"><path d="M70.53 0v-98.984H-.155V0zM59.36-91.953l-24.016 36.11-24.016-36.11zm4.28 78.64L39.626-49.578 63.64-85.53h-.14v72.218zM11.33-7.186L35.344-43 59.36-7.187zM7.03-85.53L30.907-49.58 7.03-13.312h.157v-72.22zm0 0"/></symbol><symbol id="40151b02r" overflow="visible"><path d="M86.14-13.47c2.297-22.483 11.172-64.108 17.14-82h.142c0 22.19-7.797 58.298-17.125 82zM50.188-41c14.08 1.063 21.563 7.64 25.704 17.438l-.156.156c-5.36-9.797-15.453-14.688-24.937-14.688-11.016 0-21.11 6.578-21.11 20.047 0 13.922 15.14 24.016 30.907 24.016 5.812 0 12.687-1.532 17.593-4.75-11.015-5.814-21.42-15.595-28.61-25.236l.142-.156C65.937-5.656 84.92 1.984 98.374 1.984c29.688 0 47.89-40.234 47.89-65.78 0-40.25-28.156-46.204-59.515-46.204-39.938 0-85.375 17.594-85.375 47.734 0 15.594 11.78 26.766 25.703 26.766 7.344 0 14.53-3.36 18.36-9.64-1.532-3.204-2.14-7.032-2.14-11.157 0-13.312 7.046-30.14 18.968-39.64h-.14C56.452-85.828 51.405-63.344 50.03-41zm0 0"/></symbol><symbol id="40151b02s" overflow="visible"><path d="M7.188 17.14C4.75 11.33 2.452 4.28.766-1.843-3.672.313-8.563 4.594-8.563 12.39c0 14.39 17.282 19.126 33.344 19.126 7.048 0 14.392-.922 18.36-3.063L37.798 4.75C27.234 2.453 18.203-6.266 13.313-12.547l.296-.156C20.812-5.516 31.36 2.907 43 2.907c19.734 0 33.953-25.39 33.953-49.11 0-14.688-6.266-32.438-17.734-32.438-15 0-25.407 30.296-33.83 62.578h-.296c3.968-20.813 10.562-41.47 19.422-55.844-3.813-3.985-9.938-6.735-17.282-6.735C11.016-78.64.766-65.173.766-35.03c0 18.358 2.75 37.936 6.734 52.17zm35.656-62.124C37.172-19.89 33.5-13.312 30.297-11.172c4.28-13 7.953-25.39 12.39-33.812zm0 0"/></symbol><symbol id="40151b02t" overflow="visible"><path d="M55.688 2.906c22.03 0 32.14-37.328 32.14-47.28 0-3.813-1.39-5.813-3.984-6.267-3.36 7.343-7.03 16.062-12.547 22.64h.156c0-18.813 2.906-33.813 8.406-44.063-3.97-3.828-10.704-6.578-17.126-6.578-5.203 0-9.343 1.374-13.015 3.67 4.296 2.595 8.874 7.5 12.25 11.782l-.314.297C50.344-74.048 40.39-78.64 31.984-78.64 11.172-78.64-.156-51.563-.156-28c0 16.53 5.672 30.906 15.765 30.906 14.687 0 25.234-30.297 33.656-62.422h.156C46.516-45.28 43-29.828 37.797-17.438 39.47-7.344 44.063 2.907 55.687 2.907zM31.828-30.75c4.438-20.203 9.016-32.28 12.547-33.656C41-53.546 36.72-39.936 31.985-30.75zm0 0"/></symbol><symbol id="40151b02u" overflow="visible"><path d="M50.953-16.828C54.156-5.203 60.733 2.906 70.53 2.906c19.282 0 31.36-35.5 31.36-47.89 0-5.36-3.812-5.657-3.812-5.657S90.578-33.36 85.53-28c0-18.97 2.907-33.813 8.267-44.063 0 0-6.438-6.578-16.688-6.578-21.266 0-27.844 25.093-33.344 45.28h-.157c1.53-9.328 3.203-17.28 5.5-25.093-2.438-8.72-11.016-17.594-19.422-17.594-11.33 0-18.516 7.047-22.5 17.14 3.828 5.204 7.656 11.626 10.25 17.594 0 6.58-1.985 11.938-6.266 11.938-3.22 0-5.656-3.36-5.656-8.875-5.204 0-9.5 11.625-9.5 19.578 0 11.78 4.593 21.578 17.14 21.578 7.188 0 13.922-6.578 15.766-15.765-2.14-9.015-3.53-14.53-6.125-20.796l.312-.157s10.093 20.047 15.296 43h.157l21.11-54.17h.155zm0 0"/></symbol><symbol id="40151b02v" overflow="visible"><path d="M27.547-29.984c3.515-.922 7.797-1.078 16.36-1.078h7.343c22.953 0 31.984-7.64 31.984-17.438 0-4.28-1.984-8.563-5.515-11.938-5.345 1.08-13 1.844-17.595 1.985l-22.953 1.078c-12.39.61-18.047 8.72-18.047 15.61 0 5.968 2.14 9.937 8.422 11.78zm0 0"/></symbol><symbol id="40151b02w" overflow="visible"><path d="M32.125-48.656s1.375-13.766 6.438-22.797c-4.907-3.97-10.11-5.813-15-5.813-12.235 0-22.797 11.33-22.797 26.47 0 5.968 1.984 11.937 6.421 16.67C5.97-24.327 3.36-13.608-1.688-3.67 3.22.608 9.329 2.906 15.142 2.906c7.046 0 13.92-3.219 18.983-9.172-2.297-6.125-2.61-15.765-2.61-22.953h.157c.922 14.986 5.36 32.126 20.656 32.126 19.28 0 31.36-35.5 31.36-47.89 0-5.36-3.83-5.657-3.83-5.657S72.376-33.36 67.313-28c0-18.97 2.922-33.813 8.266-44.063 0 0-6.422-6.578-16.672-6.578-18.812 0-24.937 20.5-26.625 29.984zm0 0"/></symbol><symbol id="40151b02x" overflow="visible"><path d="M37.172-44.828c4.75 9.172 9.03 22.797 12.406 33.812-3.53-1.53-8.11-13.625-12.547-33.812zm45.453 1.687c0-12.094-2.14-35.047-16.375-48.047h.313c3.36 2.75 8.406 6.734 13 16.984 5.046-5.656 7.03-11.172 7.03-16.22 0-4.89-1.984-9.327-4.734-12.858-4.75 2.14-9.954 2.608-15.297 2.608-6.438 0-13.016-.766-19.438-.766-10.094 0-16.672 7.032-16.672 16.063 0 1.688.297 3.672.766 5.516 12.39 15.907 19.733 41.61 23.56 63.797h-.31C50.187-28.922 40.39-78.64 20.812-78.64c-10.72 0-17.907 15.906-17.907 32.437 0 23.406 14.235 49.11 34.125 49.11 11.626 0 21.876-7.345 29.376-15.61l.156.156c-4.296 5.813-9.64 10.86-15.453 14.53h.14s1.53.923 5.516.923c16.984 0 25.86-22.03 25.86-46.047zm0 0"/></symbol><symbol id="40151b02y" overflow="visible"><path d="M34.578 2.906c25.547 0 40.234-26.625 40.234-49.11 0-17.14-8.718-32.437-31.203-32.437-20.813 0-29.235 15.296-29.235 26.015 0 4.28 1.39 7.797 3.672 9.625l.765-.453c2.297-4.734 7.97-7.953 13.172-7.953 2.907 0 5.5 1.062 7.344 3.515l-13.172-.922c-2.593 3.984-3.672 7.5-3.672 10.25 0 5.203 3.063 9.187 6.89 9.187 3.517 0 7.954-3.516 10.095-8.875h.31c-2.905 7.953-9.03 11.625-15.296 11.625-7.343 0-15-5.047-17.593-14.22-4.14 0-7.046 5.814-7.046 13.157 0 12.844 8.875 30.594 34.734 30.594zm0 0"/></symbol><symbol id="40151b02z" overflow="visible"><path d="M21.875 2.906c8.875 0 18.516-11.015 24.03-27.39h.142c-1.063 5.047-3.516 13.312-7.03 18.968C42.233.922 48.5 2.906 53.702 2.906c21.72 0 31.672-37.937 31.672-47.28 0-3.813-1.375-5.813-3.984-6.267C78.03-43.298 74.36-34.58 68.845-28H69c0-18.813 3.063-34.266 8.422-44.063-3.984-3.828-10.72-6.578-17.594-6.578-23.266 0-27.234 28.453-27.234 54.156l-1.532 1.843h.157c0-16.532 1.514-38.86 10.39-50.954-3.672-2.906-9.33-5.047-15.75-5.047C6.89-78.64-.157-59.22-.157-35.345c0 23.563 6.89 38.25 22.03 38.25zm14.078-121.328c-8.266 0-13.156 7.344-13.156 15.14 0 8.58 5.97 17.594 19.437 17.594 15.594 0 25.844-13 25.844-22.328 0-5.046-3.047-9.03-10.25-9.03-4.125 0-7.953 1.374-7.953 1.374s-2.14 15.297-5.5 15.297c-1.234 0-1.688-2.14-1.688-3.97 0-3.514 1.22-8.42 2.594-10.858 0 0-2.436-3.22-9.327-3.22zm0 0"/></symbol><symbol id="40151b02A" overflow="visible"><path d="M32.594 2.906c36.562 0 45.125-31.062 45.125-45.437 0-4.907-1.376-8.11-3.97-8.11-4.438 11.78-13.156 23.718-28 23.718-10.86 0-14.39-6.28-14.39-14.39 0-10.25 5.812-23.407 10.11-30.14h.14c-4.282 7.655-8.876 19.89-8.876 29.218 0 7.5 3.22 13.172 11.64 13.172 10.704 0 24.938-11.032 24.938-28 0-13.922-10.093-21.58-25.406-21.58-27.078 0-44.828 20.954-44.828 48.19C-.922-8.72 9.03 2.905 32.594 2.905zm0 0"/></symbol><symbol overflow="visible"><path d="M46.656 0v-65.344H-.204V0zm-7.468-60.703L23.328-36.97 7.468-60.702zM42.016-8.78l-15.86-23.94 15.86-23.733h-.203V-8.78zM7.47-4.75l15.858-23.53 15.86 23.53zM4.64-56.453L20.407-32.72 4.64-8.78h.204v-47.673zm0 0"/></symbol><symbol id="40151b02B" overflow="visible"><path d="M33.64-50.797c-6.374 8.78-20.11 18.28-20.812 19.594h.094s-1 .906-1 2.015c0 4.954 9.687 6.063 17.97 18.985 4.25 0 9-3.53 9.905-8.688-2.22-2.72-4.953-5.25-7.78-7.58l.295-.186c6.266 4.937 11.22 8.28 15.657 15.437 4.952 0 10-4.53 10-10.296 0-3.437-1.814-7.375-6.454-11 5.86-4.656 8.172-9.093 8.172-12.53 0-4.048-3.33-6.767-7.97-6.767-5.36 7.376-12.437 12.83-19.702 18.58l-.203-.298c3.437-3.236 6.468-6.157 9.796-10.5 0-4.048-3.33-6.767-7.97-6.767zm0 0"/></symbol><symbol id="40151b02C" overflow="visible"><path d="M31.516-57.266c0 10.203-8.188 15.25-18.688 12.516-1.422 2.53-2.22 5.156-2.22 7.172 0 6.375 6.158 10 12.22 10 5.25 0 10.703-2.828 12.125-9.078h-.11C33.33-29.796 28.58-25.86 22.72-25.86c-3.532 0-7.673-1.312-10.907-4.343C3.843-27.47-.204-22.22-.204-16.156c0 8.78 8.89 18.078 25.75 18.078 20.61 0 33.344-12.22 33.344-27.875 0-9.188-7.17-15.156-13.343-17.375-5.047.812-12.016 1.61-16.86 1.72v-.205c17.063-2.015 27.266-5.36 27.266-16.156 0-11.827-14.234-15.046-23.937-15.046-20.203 0-27.672 8.375-27.672 16.047 0 6.673 6.562 11.017 13.328 11.017 9.5 0 13.234-6.063 13.234-12.734 0-2.83-.812-5.047-2.828-7.563h.203c2.126 2.11 3.236 4.844 3.236 8.984zm0 0"/></symbol><symbol id="40151b02D" overflow="visible"><path d="M21.203-32.125s.922-9.078 4.25-15.047C22.22-49.797 18.78-51 15.547-51 7.47-51 .407-43.53.407-33.53c0 3.936 1.405 7.874 4.234 11.014-.796 6.453-2.42 13.532-5.75 20.094C2.126.406 6.157 1.922 10 1.922c4.64 0 9.188-2.125 12.625-6.063-1.516-4.048-1.72-10.407-1.72-15.157h-.093c.594 9.906 3.625 21.22 13.735 21.22 12.72 0 20.797-23.44 20.797-31.61 0-3.547-2.625-3.75-2.625-3.75s-4.954 11.42-8.173 14.75c0-12.313 1.812-22.11 5.344-28.89 0 0-4.234-4.33-11-4.33-12.42 0-16.562 13.532-17.687 19.782zm0 0"/></symbol><symbol id="40151b02E" overflow="visible"><path d="M36.766 1.922c14.547 0 21.312-24.64 21.312-31.22 0-2.515-1.016-3.827-2.828-4.14-2.22 4.86-4.547 10.61-8.188 14.954h.204c0-12.422 1.828-22.313 5.453-29.094-2.626-2.516-7.064-4.328-11.314-4.328-3.437 0-6.156.906-8.578 2.422 2.828 1.718 5.86 4.937 8.078 7.765l-.203.204c-7.47-7.375-14.047-10.39-19.594-10.39C7.374-51.906-.204-34.03-.204-18.484c0 10.906 3.844 20.406 10.5 20.406 9.703 0 16.765-20 22.328-41.203h-.11c-1.906 9.39-4.234 19.593-7.67 27.764 1.108 6.672 4.25 13.438 11.92 13.438zM21.11-20.298c2.92-13.343 5.86-21.31 8.078-22.218-2.22 7.172-4.954 16.157-8.08 22.22zm0 0"/></symbol><symbol id="40151b02F" overflow="visible"><path d="M14.438 1.922c5.86 0 12.328-7.28 15.968-18.078h-.11c-.702 3.328-2.218 8.78-4.64 12.515C27.78.61 32.016 1.92 35.453 1.92c14.344 0 21-25.047 21-31.22 0-2.515-1-3.827-2.828-4.14-2.22 4.86-4.53 10.61-8.172 14.954h.203c0-12.422 1.922-22.625 5.453-29.094-2.626-2.516-7.08-4.328-11.626-4.328-15.343 0-18.078 18.78-18.078 35.75l-.906 1.203h.203c0-10.906.906-25.656 6.766-33.625-2.423-1.922-6.157-3.328-10.407-3.328-12.516 0-17.266 12.812-17.266 28.578 0 15.547 4.64 25.25 14.64 25.25zm9.296-80.094c-5.453 0-8.78 4.844-8.78 10 0 5.656 4.03 11.61 12.92 11.61 10.298 0 17.173-8.58 17.173-14.75 0-3.33-2.125-5.954-6.875-5.954-2.72 0-5.25.907-5.25.907s-1.406 10.11-3.625 10.11c-.813 0-1.016-1.422-1.016-2.625 0-2.328.704-5.563 1.61-7.172 0 0-1.61-2.125-6.156-2.125zm0 0"/></symbol><symbol id="40151b02G" overflow="visible"><path/></symbol><symbol id="40151b02H" overflow="visible"><path d="M21.516 1.922c24.14 0 29.89-20.5 29.89-30 0-3.235-1-5.36-2.828-5.36C45.656-25.655 40-17.78 30.203-17.78c-7.172 0-9.39-4.142-9.39-9.486 0-6.765 3.734-15.453 6.562-19.906h.094c-2.83 5.063-5.954 13.14-5.954 19.297 0 4.953 2.218 8.688 7.78 8.688 7.063 0 16.563-7.282 16.563-18.485 0-9.187-6.766-14.234-16.876-14.234-17.875 0-29.687 13.828-29.687 31.812 0 14.344 6.656 22.016 22.22 22.016zm0 0"/></symbol><symbol id="40151b02I" overflow="visible"><path d="M30.906-29.594c-2.922 13.328-5.75 21.313-8.078 22.328 2.22-7.28 4.953-16.265 8.078-22.328zM23.438-66.97C7.78-66.97.813-46.97.813-28.483c0 15.86 6.062 30.406 17.265 30.406 2.625 0 4.047-.813 4.047-.813-3.844-2.22-7.688-5.75-10.61-9.39l.094-.11C16.67-3.33 23.843 1.92 31.11 1.92c13.124 0 22.515-16.97 22.515-32.422 0-10.906-4.734-21.406-11.813-21.406-10.203 0-17.468 21.703-22.42 41.297 5.358-29.187 12.92-37.968 16.56-40.5.61-1.718.704-3.328.704-4.843 0-6.063-3.828-11.016-13.218-11.016zm0 0"/></symbol><symbol id="40151b02J" overflow="visible"><path d="M21.203 1.922c20.11 0 26.375-18.485 26.375-35.86 0-10.406-4.047-17.968-11.422-17.968-4.843 0-8.484 3.218-10.906 7.156l.094.11c.61-2.22 1.718-4.547 2.937-5.563-1.514-.703-3.436-.906-5.046-.906C10-51.11-.703-35.25-.703-20.61c0 14.25 5.953 22.532 21.906 22.532zm.203-39.5c-1.11 4.75-1.61 8.484-1.61 11.22 0 4.03 1.11 6.56 2.626 8.077-.094 1.218-.406 2.624-1.406 2.624-1.625 0-2.64-3.53-2.64-8.281 0-4.235.81-9.39 3.14-13.64zm0 0"/></symbol><symbol id="40151b02K" overflow="visible"><path d="M51.406-28.078c0-3.235-1-5.36-2.828-5.36-4.14 11.313-11.406 16.063-20.406 16.063-6.25 0-13.328-2.625-18.47-7.266h.095c5.156 4.03 11.406 5.86 16.765 5.86 10.204 0 19.297-7.69 19.297-18.892 0-9.187-6.766-14.234-16.876-14.234C11.11-51.906-.703-38.078-.703-20c0 14.25 6.656 21.922 22.22 21.922 24.233 0 29.89-20.406 29.89-30zm-24.03-19.094c-3.142 6.375-4.345 13.53-5.157 22.734h.202s-.813 0-1.313-.203c.906-8.594 2.53-16.876 6.265-22.532zm0 0"/></symbol><symbol id="40151b02L" overflow="visible"><path d="M31.406-13.64c5.657-8.282 8.39-16.25 8.39-22.626 0-9.593-5.765-15.64-17.577-15.64-10.407 0-19.595 6.86-19.595 17.765 0 4.453-7.47 15.156-11.406 18.28.796 3.532 5.655 6.97 8.577 6.97 7.172-11.516 14.437-28.172 26.47-36.157l.092.11C15.86-35.453 7.983-24.142 7.983-12.626c0 8.484 4.735 14.547 14.735 14.547 16.17 0 22.42-24.75 22.42-31.22 0-2.515-1-3.827-2.828-4.14-2.92 6.672-6.25 14.454-11 19.797zm0 0"/></symbol><symbol id="40151b02M" overflow="visible"><path d="M4.844 11.313C3.234 7.47 1.72 2.828.61-1.313c-3.032 1.516-6.36 4.344-6.36 9.5 0 9.485 11.5 12.626 22.11 12.626 4.656 0 9.5-.61 12.218-2.032l-3.53-15.655C17.983 1.61 12.015-4.14 8.78-8.28l.204-.11c4.75 4.75 11.72 10.312 19.39 10.312 13.032 0 22.532-16.766 22.532-32.422 0-9.703-4.25-21.406-11.812-21.406-9.907 0-16.875 19.984-22.422 41.297 2.625-13.734 6.86-27.36 12.72-36.86-2.533-2.624-6.564-4.436-11.408-4.436C7.266-51.906.406-43.03.406-23.126c0 12.11 1.813 25.048 4.438 34.44zm23.328-41C24.437-13.125 22.125-8.782 20.094-7.47c2.828-8.483 5.156-16.67 8.078-22.218zm0 0"/></symbol><symbol id="40151b02N" overflow="visible"><path d="M39.89-60.594c-1.406-5.062-7.062-8.797-12.42-8.797-14.845 0-18.58 22.937-18.58 35.046 0 12.125 3.438 26.672 17.376 26.672 2.218 0 4.547-.516 6.968-1.922-1.11-4.437-1.625-9.187-1.625-14.047 0-12.626 3.234-24.64 8.28-36.954zm-5.953 68.78c0-5.764-5.156-13.233-11.015-13.233-6.063 0-9.485 7.578-9.485 12.313 0 6.062 6.157 7.78 10.907 7.78 4.547 0 9.593-1.92 9.593-6.858zm0 .002"/></symbol><symbol id="40151b02O" overflow="visible"><path d="M36.97-10.61c6.358-8.78 20.093-18.28 20.796-19.593 0 0 .922-.906.922-2.016 0-4.952-9.704-6.06-17.985-18.983-4.14 0-8.984 3.53-9.89 8.78 2.218 2.626 4.937 5.157 7.765 7.47l-.297.312c-6.264-5.047-11.218-8.39-15.655-15.563-4.844 0-10 4.547-10 10.312 0 3.42 1.813 7.374 6.47 11-5.86 4.656-8.19 9.093-8.19 12.53 0 4.032 3.44 6.766 7.986 6.766 5.344-7.375 12.422-12.828 19.688-18.484l.203.203c-3.436 3.234-6.468 6.156-9.796 10.61 0 3.937 3.438 6.656 7.985 6.656zm0 0"/></symbol><symbol overflow="visible"><path d="M198.234 0v-278.203H0V0zm-30.968-258.438L99.328-156.952 31.812-258.437zm11.61 221.032l-67.5-101.906 67.5-101.063zM31.81-20.203L99.33-121.266l67.938 101.063zm-11.61-220.172l67.095 101.063L20.203-37.406zm0 0"/></symbol><symbol id="40151b02P" overflow="visible"><path d="M165.984-29.234c9.89 15.906 28.375 37.406 58.047 37.406 60.626 0 85.564-87.72 85.564-134.156 0-8.61-3.438-15.063-10.75-16.344-8.156 20.64-21.063 42.14-33.53 55.89-.002-85.124 20.202-154.796 46.436-206.828 0 0-24.516-17.625-59.766-17.625-66.656 0-109.218 90.734-109.218 195.218 0 9.89.422 20.22 1.28 30.53l-5.155 8.595c-2.156-17.187-3.437-34.39-3.437-52.016 0-61.5 13.328-122.562 37.844-172 0 0-13.344 1.282-21.938 1.282-42.14 0-100.626-11.173-141.048-38.704C6.016-324.22 4.298-311.75 4.298-301c0 45.578 32.25 74.39 86 80.844v.86s-4.734.42-11.61.42c-14.187 0-29.234-2.14-43-7.31-9.03 28.39-19.343 76.545-19.343 121.702 0 58.468 17.203 112.656 77.828 112.656 52.89 0 98.89-77.406 132.016-207.266l1.28.86c-11.17 51.172-30.53 113.093-61.484 169zm0 0"/></symbol><symbol id="40151b02Q" overflow="visible"><path d="M20.203 48.156C13.328 31.813 6.875 12.046 2.156-5.156-9.89.86-23.656 12.906-23.656 34.828c0 40.422 48.172 53.75 93.312 53.75 19.78 0 40.422-2.578 51.61-8.594l-15.063-67.078c-29.656-6.03-55.03-30.53-68.797-48.172l.86-.86c20.64 20.642 49.89 44.298 82.562 44.298 55.47 0 95.47-71.375 95.47-138.03 0-41.283-17.642-91.158-49.892-91.158-42.14 0-70.953 85.14-94.594 175.86h-1.296c11.187-58.47 29.67-116.53 54.61-156.938-10.75-11.187-27.94-18.922-48.58-18.922-45.593 0-73.968 37.828-73.968 122.547 0 51.595 7.735 106.642 18.922 146.204zm100.625-174.578c-15.906 70.516-26.234 89.016-35.687 95.03 12.047-36.546 22.36-71.374 34.83-95.03zm0 0"/></symbol><symbol id="40151b02R" overflow="visible"><path d="M61.484 8.172c24.953 0 52.032-30.97 67.516-76.97h.86c-3.016 14.19-9.89 37.407-19.782 52.892 9.03 18.484 26.234 24.078 40.86 24.078 61.046 0 89-106.64 89-132.875 0-10.75-3.875-16.344-10.75-17.625-9.454 20.64-19.782 45.14-35.25 63.64 0-52.89 8.593-96.328 23.64-123.843-11.172-10.75-30.094-18.486-49.453-18.486-65.36 0-76.11 79.97-76.11 151.782L87.72-63.64c0-46.438 4.296-109.22 29.233-143.188-10.312-8.172-26.22-14.188-44.28-14.188C19.342-221.016 0-166.406 0-99.328c0 66.22 18.922 107.5 61.484 107.5zm0 0"/></symbol><symbol id="40151b02S" overflow="visible"><path d="M91.594 8.172c102.765 0 126.844-87.297 126.844-127.72 0-13.75-3.875-22.78-10.75-22.78-12.47 33.11-37.407 66.64-79.125 66.64-30.516 0-40.407-17.624-40.407-40.406 0-28.812 16.328-65.797 28.375-84.72h.86c-12.046 21.5-24.937 55.908-24.937 82.126 0 21.08 8.594 36.985 32.25 36.985 30.094 0 70.094-30.953 70.094-78.688 0-39.126-28.39-60.626-71.39-60.626-76.11 0-125.563 58.907-125.563 135.453 0 61.047 27.53 93.735 93.75 93.735zm0 0"/></symbol><symbol overflow="visible"><path d="M45.734 0v-64.047H-.203V0zm-7.328-59.5l-15.53 23.266L7.327-59.5zm2.782 50.89L25.64-32.077l15.547-23.266h-.203V-8.61zM7.328-4.655L22.875-27.72l15.53 23.064zm-2.78-50.688L20-32.078 4.547-8.608h.203v-46.736zm0 0"/></symbol><symbol id="40151b02T" overflow="visible"><path d="M58.016-71.578c-15.344 0-25.344 20.89-25.344 44.953 0 2.266.094 4.64.297 7.125l-1.095 1.875h.203c-.5-3.953-.797-7.922-.797-11.97 0-14.17 3.08-28.218 8.72-39.608h-.11s-3.062.297-5.046.297c-9.703 0-23.157-2.578-32.563-9C1.19-74.64.798-71.78.798-69.296c0 10.484 7.625 17.124 19.797 18.61v.202h.203s-1.094.093-2.688.093c-3.266 0-6.72-.5-10.094-1.688-2.079 6.53-4.454 17.625-4.454 28.016 0 13.468 4.157 25.937 18.125 25.937 9.797 0 16.922-10.89 21.172-20.484h.11c-1.392 4.547-2.58 8.704-4.657 12.172 2.28 3.672 6.437 8.313 13.265 8.313 10.297 0 15.938-10.89 20.203-20.484h.095c-.797 3.563-1.875 7.516-3.563 10.782 2.766 4.656 7.33 9.703 14.157 9.703 13.952 0 19.796-20.188 19.796-30.875 0-1.984-.89-3.47-2.766-3.766-1.89 4.75-4.75 9.703-7.438 12.672 0-19.406 4.563-35.437 10.594-47.422 0 0-5.64-4.062-13.75-4.062-15.344 0-25.344 20.89-25.344 44.953 0 2.266.094 4.64.297 7.125l-1.094 1.875h.203c-.5-3.953-.798-7.922-.798-11.97 0-13.968 2.875-27.436 8.422-38.624-3.578-2.077-8.125-3.358-12.578-3.358zm0 0"/></symbol><symbol id="40151b02U" overflow="visible"><path d="M20.797 1.875c19.687 0 25.828-18.11 25.828-35.14 0-10.204-3.953-17.626-11.188-17.626-4.75 0-8.312 3.17-10.687 7.03l.094.094c.593-2.172 1.687-4.453 2.875-5.437-1.486-.688-3.36-.89-4.954-.89-12.97 0-23.453 15.546-23.453 29.89 0 13.97 5.828 22.078 21.484 22.078zm.187-38.703c-1.078 4.656-1.578 8.312-1.578 10.984 0 3.97 1.094 6.438 2.578 7.922-.11 1.188-.406 2.578-1.39 2.578-1.578 0-2.578-3.47-2.578-8.125 0-4.155.797-9.202 3.078-13.358zm0 0"/></symbol><symbol id="40151b02V" overflow="visible"><path d="M20-9.5c.797-13.563 4.844-29.797 10.89-39.5-3.468-2.375-7.624-3.563-11.484-3.563-12.875 0-18.61 12.08-18.61 26.235 0 14.156 5.845 28.203 17.313 28.203 3.968 0 8.124-3.563 10.593-6.422 1.688 3.75 5.453 6.422 10.11 6.422 12.67 0 20.687-21.578 20.687-30.984 0-2.078-1.094-3.468-2.766-3.656-2.78 6.532-6.547 15.938-11.484 15.938-2.28 0-4.86-2.97-4.86-7.828-5.734 5.547-8.015 9.515-11.78 15.547h-.094c6.14-12.078 10.984-21.984 24.047-26.828.5-1.484.703-2.874.703-4.25 0-5.843-4.36-10.703-10.89-10.703-15.845 0-20.204 25.343-22.47 41.39zm0 0"/></symbol><symbol id="40151b02W" overflow="visible"><path d="M25.734-44.844c-1.578 2.97-2.86 6.328-4.156 9.5-3.36 8.72-5.437 17.72-10.984 17.72-3.36 0-6.438-3.564-6.438-7.126-3.468 0-7.812 6.734-7.812 12.875 0 9.5 5.53 13.75 11.28 13.75 6.33 0 13.36-5.234 13.86-14.64-.203-2.58-.297-4.86-.297-6.938 0-5.047.594-9 1.485-12.47-.797 3.173-.985 6.142-.985 9.11 0 12.86 4.938 24.938 15.047 24.938 12.47 0 20.39-22.97 20.39-30.984 0-3.468-2.577-3.656-2.577-3.656s-4.844 11.188-8.11 14.547c-.593-2.28-1-5.046-1-8.014 0-7.422 1.985-15.64 4.454-20.39-2.562-2.673-9.11-4.267-16.03-4.267-11.094 0-23.563 4.062-23.563 14.953 0 4.656 2.97 8.218 6.53 9.11 3.08-6.235 5.75-12.876 8.72-18.017zm0 0"/></symbol><symbol id="40151b02X" overflow="visible"><path d="M36.03 1.875c14.267 0 20.892-24.156 20.892-30.578 0-2.485-.984-3.766-2.766-4.063-2.187 4.75-4.453 10.39-8.015 14.657h.188c0-12.187 1.78-21.89 5.344-28.515-2.563-2.484-6.922-4.266-11.078-4.266-3.375 0-6.047.89-8.422 2.374 2.78 1.688 5.75 4.86 7.922 7.625l-.203.203c-7.312-7.235-13.75-10.204-19.203-10.204-13.453 0-20.89 17.53-20.89 32.78 0 10.688 3.765 19.985 10.297 19.985 9.515 0 16.437-19.594 21.89-40.39h-.11C30-29.298 27.72-19.313 24.36-11.282c1.078 6.53 4.156 13.155 11.67 13.155zm-15.343-21.78c2.875-13.064 5.75-20.876 7.922-21.767-2.172 7.016-4.844 15.828-7.922 21.766zm0 0"/></symbol><symbol id="40151b02Y" overflow="visible"><path d="M28.906 11.688c-1.578-3.376-3.36-7.922-4.547-12.782-5.64 0-14.86 4.75-14.86 12.078 0 6.64 8.125 9.407 19.703 9.407C45.64 20.39 49 14.845 49 6.438c0-6.234-2.672-12.78-2.672-30.593 0-9.11 1.89-16.328 5.344-22.47-2.563-2.483-6.922-4.265-11.078-4.265-3.375 0-6.047.89-8.422 2.374 2.78 1.688 5.75 4.86 7.922 7.625l-.203.203c-7.312-7.235-13.75-10.204-19.203-10.204-13.453 0-20.89 17.53-20.89 32.78C-.203-7.42 3.47 1.876 10.094 1.876c9.515 0 16.437-19.594 21.89-40.39h-.11C30-29.298 27.72-19.313 24.36-11.282c0 6.53 4.64 22.968 4.64 22.968zm-8.218-31.594c2.875-13.063 5.75-20.875 7.92-21.766-2.17 7.016-4.842 15.828-7.92 21.766zm0 0"/></symbol><symbol id="40151b02Z" overflow="visible"><path/></symbol><symbol id="40151b02aa" overflow="visible"><path d="M60.188 6.14c11.593 0 17.42-7.124 17.42-14.953 0-3.86-1.483-7.515-3.655-9.406-3.766 1.298-6.828 1.892-9.61 1.892-1.374 0-2.765-.11-4.046-.406 9-7.813 15.734-17.032 15.734-26.032 0-8.515-6.14-14.36-13.468-14.36-2.67 0-5.437.688-7.92 2.376C54.343-39.297 35.14-10 18.81-7.422l-.5-.5C31.876-9.61 52.767-38.22 52.767-56.032c0-9.11-5.438-15.546-16.532-15.546-11.687 0-22.078 7.125-22.078 23.86 0 7.624 2.172 14.656 6.828 23.17l-.093.095c-2.578-3.063-4.86-6.735-6.828-11.985-7.92 4.657-12.28 12.782-12.28 20.11C1.78-7.234 8.42.984 20.2.984 25.25.984 31.283-.5 37.517-2.97c4.453 4.36 13.562 9.11 22.672 9.11zm0 0"/></symbol><symbol id="40151b02ab" overflow="visible"><path d="M2.172-77.813C1.187-74.64.797-71.78.797-69.296c0 10.484 7.625 17.125 19.797 18.61v.203h.203s-1.094.093-2.688.093c-3.266 0-6.72-.5-10.094-1.688-2.282 6.937-4.454 18.61-4.454 27.422 0 20 8.126 26.53 15.938 26.53 6.734 0 11.984-4.75 14.656-10.093h-.203C35.64-3.36 39.5 1.876 46.233 1.876c13.36 0 23.173-12.375 23.173-24.344 0-2.577-1-5.046-2.875-5.046-2.077 3.157-4.858 6.235-8.124 6.235-4.953 0-7.625-6.236-7.625-14.454h-.186c-4.75 5.843-9.407 13.156-12.672 19.703h-.11c9.11-19.22 16.235-31 30.797-37.032.593-1.688.89-3.47.89-5.157 0-6.92-4.953-13.358-13.86-13.358C36.33-71.578 31.58-40 29.204-14.75h.094C30.094-30.297 30.984-50.89 40-69.203c-1.39.094-3.172.297-5.156.297-9.703 0-23.157-2.578-32.563-9zm0 0"/></symbol><symbol id="40151b02ac" overflow="visible"><path d="M20.797-31.484s.89-8.907 4.156-14.75C21.78-48.812 18.406-50 15.25-50 7.328-50 .39-42.672.39-32.875.39-29 1.78-25.14 4.548-22.078c-.78 6.344-2.375 13.265-5.64 19.703C2.076.39 6.03 1.875 9.796 1.875c4.562 0 9.015-2.078 12.375-5.938C20.687-8.015 20.5-14.25 20.5-18.905h-.11c.594 9.703 3.563 20.78 13.47 20.78 12.468 0 20.39-22.968 20.39-30.983 0-3.468-2.578-3.656-2.578-3.656s-4.844 11.188-8.016 14.453c0-12.078 1.782-21.687 5.25-28.312 0 0-4.156-4.266-10.797-4.266-12.172 0-16.235 13.265-17.313 19.406zm0 0"/></symbol><symbol id="40151b02ad" overflow="visible"><path d="M20.688-19.906c2.875-13.063 5.75-20.875 7.92-21.766-2.17 7.016-4.842 15.828-7.92 21.766zm3.265 9.515c.703 7.718 2.188 15.437 3.86 21.484-1.58-3.766-3.063-8.328-4.157-12.375-2.968 1.483-6.234 4.25-6.234 9.296 0 9.312 11.28 12.375 21.687 12.375 4.546 0 9.296-.593 11.968-1.984L47.625 3.063c-6.938-1.485-12.78-7.126-15.938-11.188l.188-.094C36.53-3.56 43.36 1.876 50.89 1.876c12.766 0 22.08-16.422 22.08-31.766 0-9.516-4.157-21-11.595-21-9.703 0-16.53 19.61-21.97 40.5 2.564-13.47 6.736-26.83 12.564-36.14.5-3.86 4.655-15.44 4.655-15.44-4.156-1.983-8.406-3.67-12.375-3.67-5.938 0-11.484 3.67-15.438 15.25 5.14 2.28 8.22 5.734 11.282 9.5l-.203.203c-7.312-7.235-13.75-10.204-19.203-10.204-13.453 0-20.89 17.53-20.89 32.78 0 10.688 3.765 19.985 10.297 19.985 9.515 0 16.437-19.594 21.89-40.39h-.11c-1.874 9.218-4.546 20.11-7.92 28.124zm26.735-18.72c-3.657 16.235-5.938 20.5-7.83 21.782 2.69-8.313 4.955-16.328 7.83-21.78zm0 0"/></symbol><symbol id="40151b02ae" overflow="visible"><path d="M50.39-27.516c0-3.172-.984-5.25-2.765-5.25-4.063 11.078-11.188 15.735-20 15.735-6.14 0-13.078-2.58-18.125-7.126h.11c5.046 3.953 11.187 5.75 16.42 5.75 10 0 18.923-7.532 18.923-18.516 0-9.016-6.64-13.97-16.547-13.97C10.89-50.89-.687-37.327-.687-19.608c0 13.97 6.53 21.485 21.78 21.485 23.75 0 29.298-19.984 29.298-29.39zM26.83-46.234C23.766-40 22.578-32.97 21.78-23.954h.204s-.797 0-1.297-.202c.89-8.422 2.485-16.532 6.14-22.078zm0 0"/></symbol><symbol id="40151b02af" overflow="visible"><path d="M49.297-5.734c-.688-1.89-1.188-4.86-1.188-8.125 0-6.343 1.093-16.734 7.03-26.92h.094c-3.36 7.124-6.125 17.718-6.125 26.327 0 9.015 4.046 16.328 12.078 16.328 14.25 0 19.796-24.25 19.796-30.578 0-2.578-1.093-3.766-2.67-4.063 0 0-4.564 11.078-7.72 14.657h.187c3.267-8.328 4.564-18.03 4.564-21.984 0-6.937-3.078-10.797-9.813-10.797-17.514 0-21.764 26.828-22.968 40.203h.11c0-5.938 1.28-25.344 9.594-35.454 0 0-3.266-4.75-10.188-4.75-16.828 0-21.578 24.453-22.97 40.203h.095c.703-15.344 3.563-27.83 9.61-35.454-2.58-2.672-6.532-4.75-11.782-4.75C6.53-50.89.798-42.08.798-22.673.797-6.234 6.53 1.875 15.25 1.875c6.734 0 9.5-4.453 10.594-7.61-.797-2.874-1.188-5.546-1.188-8.328 0-6.437 1.078-16.53 7.032-26.718h.093c-3.374 7.124-6.14 17.608-6.14 26.327 0 8.812 3.954 16.328 13.063 16.328 6.734 0 9.516-4.453 10.594-7.61zm0 0"/></symbol><symbol id="40151b02ag" overflow="visible"><path d="M28.406 1.875c9.703 0 20.407-8.813 20.89-26.422h-.093v2.266c0 5.655-1.094 9.905-3.062 14.952 2.08 4.953 6.032 9.203 11.58 9.203 12.468 0 20.39-22.97 20.39-30.984 0-3.468-2.58-3.656-2.58-3.656s-4.843 11.188-8.014 14.453c0-12.078 1.78-21.687 5.25-28.312 0 0-4.157-4.266-10.797-4.266-7.923 0-13.36 6.046-16.032 13.765-1.688-2.672-4.157-4.547-7.422-4.547-8.72 0-17.125 16.125-21 31.28.89-5.64 4.062-15.75 10.593-35.842-2.47-2.672-5.438-4.657-10-4.657C5.64-50.89-.204-37.813-.204-24.657c0 13.265 5.937 26.53 16.437 26.53 2.078 0 3.375-.483 4.157-.983-3.765-2.17-7.718-5.437-10.593-9.015l.11-.094c4.937 4.954 12.86 10.095 18.5 10.095zm.703-27.313c-1.89 8.016-5.64 17.125-7.922 18.11 2.375-7.125 4.25-11.875 7.92-18.11zm0 0"/></symbol><symbol overflow="visible"><path d="M154.438 0v-216.75H0V0zm-24.125-201.328L77.39-122.28 24.798-201.33zm9.046 172.187l-52.594-79.407 52.593-78.72zM24.796-15.75L77.39-94.47l52.922 78.72zM15.75-187.266L68-108.546 15.75-29.142zm0 0"/></symbol><symbol id="40151b02ah" overflow="visible"><path d="M105.188-189.938c0 33.83-27.797 50.58-62.313 41.532-4.688 8.375-7.03 17.094-7.03 23.78 0 21.11 19.764 33.173 39.858 33.173 17.422 0 35.188-9.375 39.875-30.156h.672c-5.03 22.782-21.438 35.844-40.875 35.844-11.72 0-25.453-4.343-36.188-14.406C12.735-91.125 0-73.702 0-53.594 0-24.454 28.813 6.36 84.75 6.36c68.344 0 110.22-40.532 110.22-92.454 0-30.484-23.454-50.25-43.892-57.625-16.75 2.69-39.86 5.36-56.266 5.704v-.672c56.938-6.703 90.438-17.75 90.438-53.61 0-39.186-46.89-49.905-79.063-49.905-67 0-91.11 27.797-91.11 53.266 0 22.11 21.11 36.515 43.548 36.515 31.484 0 43.547-20.11 43.547-42.22 0-9.374-2.344-16.75-9.047-25.124h1.016c7.032 7.047 11.047 16.078 11.047 29.828zm0 0"/></symbol><symbol id="40151b02ai" overflow="visible"><path d="M170.188-93.125c0-10.72-3.016-17.766-8.375-17.766-13.75 37.53-38.532 53.265-68.344 53.265-20.782 0-44.22-8.703-61.314-24.11l.344-.343c17.422 13.734 37.844 19.766 55.61 19.766 33.828 0 63.64-25.454 63.64-62.64 0-30.486-22.11-47.236-55.61-47.236-59.296 0-97.812 45.89-97.812 105.86 0 47.234 21.438 72.687 73.03 72.687 80.392 0 98.83-67.672 98.83-99.485zm-78.735-63.313c-10.39 21.094-14.406 44.875-17.078 75.375 0 0-2.688 0-4.688-1.015 3-28.14 8.704-55.61 21.094-74.36zm0 0"/></symbol><symbol id="40151b02aj" overflow="visible"><path d="M69.688-67.328c9.703-44.234 19.75-70.688 27.796-74.047-7.375 24.125-16.75 53.938-27.14 74.047zm12.046 32.156c2.344 26.125 7.375 52.25 13.08 72.36l-1.017.328c-5.36-12.72-10.375-28.14-14.063-41.532-9.39 4.688-20.11 14.063-20.11 31.157 0 31.485 37.532 41.876 72.704 41.876 15.406 0 31.484-2.016 40.203-6.704l-11.733-52.265c-23.11-4.688-42.875-23.78-53.594-37.516l.672-.67c16.078 16.078 38.86 34.5 64.313 34.5 43.218 0 74.375-55.61 74.375-107.532 0-32.156-13.735-71.016-38.86-71.016-32.828 0-55.28 66.33-73.703 137.016h-1c8.703-45.562 23.11-90.78 42.547-122.28 1.672-13.064 16.078-52.25 16.078-52.25-14.078-6.704-28.484-12.407-41.875-12.407-20.11 0-38.188 12.407-51.594 51.594 16.75 7.703 27.47 19.438 37.86 32.157l-.672.673c-25.125-24.454-46.906-34.5-65.328-34.5C24.453-172.188 0-112.892 0-61.313c0 36.187 12.063 67.67 34.172 67.67 32.156 0 55.266-66.327 73.703-136.67h.672c-6.375 31.156-15.422 68-26.813 95.14zm90.454-63.312c-12.39 54.937-20.438 69.343-27.797 74.03 9.376-28.483 17.423-55.608 27.126-74.03zm0 0"/></symbol><symbol id="40151b02ak" overflow="visible"><path d="M47.906 6.36c19.422 0 40.532-24.11 52.594-59.954h.672c-2.344 11.047-7.703 29.14-15.406 41.203 7.03 14.406 20.42 18.75 31.812 18.75 47.578 0 69.36-83.08 69.36-103.516 0-8.375-3.016-12.72-8.375-13.735-7.375 16.078-15.422 35.187-27.485 49.578 0-41.204 6.703-75.032 18.438-96.47-8.72-8.374-23.453-14.405-38.532-14.405-50.922 0-59.297 62.312-59.297 118.25l-3.343 4.36c0-36.19 3.344-85.095 22.78-111.564C83.08-167.5 70.69-172.19 56.61-172.19 15.077-172.188 0-129.64 0-77.39 0-25.798 14.734 6.36 47.906 6.36zm0 0"/></symbol><symbol id="40151b02al" overflow="visible"><path d="M15.75 37.516C10.39 24.796 5.36 9.376 1.672-4.016-7.703.672-18.422 10.047-18.422 27.14c0 31.485 37.516 41.876 72.688 41.876 15.422 0 31.5-2.016 40.203-6.704L82.75 10.047C59.625 5.36 39.86-13.733 29.14-27.47l.672-.67c16.08 16.078 38.86 34.5 64.33 34.5 43.202 0 74.358-55.61 74.358-107.532 0-32.156-13.734-71.016-38.86-71.016-32.827 0-55.265 66.33-73.702 137.016h-1c8.718-45.562 23.124-90.78 42.546-122.28-8.375-8.704-21.78-14.736-37.86-14.736-35.5 0-57.608 29.485-57.608 95.47 0 40.202 6.03 83.077 14.734 113.906zm78.39-136C81.735-43.547 73.704-29.14 66.33-24.454c9.375-28.483 17.422-55.608 27.14-74.03zm0 0"/></symbol></defs><g><use x="35.527" xlink:href="#40151b02a" y="255.246"/><use x="219.522" xlink:href="#40151b02b" y="255.246"/><use x="329.282" xlink:href="#40151b02c" y="255.246"/><use x="451.292" xlink:href="#40151b02d" y="255.246"/><use x="572.788" xlink:href="#40151b02e" y="255.246"/><use x="718.808" xlink:href="#40151b02f" y="255.246"/><use x="837.143" xlink:href="#40151b02b" y="255.246"/><use x="31.684" xlink:href="#40151b02g" y="1930.081"/><use x="109.09" xlink:href="#40151b02h" y="1930.081"/><use x="164.95" xlink:href="#40151b02i" y="1930.081"/><use x="231.583" xlink:href="#40151b02h" y="1930.081"/><use x="296.088" xlink:href="#40151b02j" y="1930.081"/><use x="362.987" xlink:href="#40151b02k" y="1930.081"/><use x="389.587" xlink:href="#40151b02l" y="1930.081"/><use x="500.642" xlink:href="#40151b02i" y="1930.081"/><use x="565.932" xlink:href="#40151b02m" y="1930.081"/><use x="634.959" xlink:href="#40151b02n" y="1930.081"/><use x="697.735" xlink:href="#40151b02o" y="1930.081"/><use x="759.314" xlink:href="#40151b02p" y="1930.081"/><use x="861.325" xlink:href="#40151b02q" y="1930.081"/><use x="962.804" xlink:href="#40151b02k" y="1930.081"/><use x="22.975" xlink:href="#40151b02r" y="1148.671"/><use x="170.008" xlink:href="#40151b02s" y="1148.671"/><use x="248.497" xlink:href="#40151b02t" y="1148.671"/><use x="327.889" xlink:href="#40151b02u" y="1148.671"/><use x="418.312" xlink:href="#40151b02v" y="1148.671"/><use x="508.428" xlink:href="#40151b02w" y="1148.671"/><use x="580.644" xlink:href="#40151b02v" y="1148.671"/><use x="670.761" xlink:href="#40151b02x" y="1148.671"/><use x="744.966" xlink:href="#40151b02y" y="1148.671"/><use x="822.078" xlink:href="#40151b02z" y="1148.671"/><use x="895.977" xlink:href="#40151b02A" y="1148.671"/><use x="23.964" xlink:href="#40151b02B" y="1328.23"/><use x="87.089" xlink:href="#40151b02C" y="1328.23"/><use x="146.376" xlink:href="#40151b02D" y="1328.23"/><use x="193.038" xlink:href="#40151b02E" y="1328.23"/><use x="243.437" xlink:href="#40151b02F" y="1328.23"/><use x="297.26" xlink:href="#40151b02G" y="1328.23"/><use x="317.46" xlink:href="#40151b02H" y="1328.23"/><use x="364.223" xlink:href="#40151b02I" y="1328.23"/><use x="419.268" xlink:href="#40151b02J" y="1328.23"/><use x="468.253" xlink:href="#40151b02K" y="1328.23"/><use x="513.501" xlink:href="#40151b02L" y="1328.23"/><use x="554.002" xlink:href="#40151b02J" y="1328.23"/><use x="602.482" xlink:href="#40151b02G" y="1328.23"/><use x="622.682" xlink:href="#40151b02I" y="1328.23"/><use x="677.222" xlink:href="#40151b02M" y="1328.23"/><use x="729.035" xlink:href="#40151b02E" y="1328.23"/><use x="780.434" xlink:href="#40151b02L" y="1328.23"/><use x="819.925" xlink:href="#40151b02E" y="1328.23"/><use x="872.344" xlink:href="#40151b02N" y="1328.23"/><use x="905.573" xlink:href="#40151b02O" y="1328.23"/><use x="33.437" xlink:href="#40151b02P" y="880.327"/><use x="312.937" xlink:href="#40151b02Q" y="880.327"/><use x="535.677" xlink:href="#40151b02R" y="880.327"/><use x="743.367" xlink:href="#40151b02S" y="880.327"/><path d="M20 349.066h960M20 521.086h960M20 999.508h960M20 1215.508h960M20 1386.934h960M20 1781.414h960" fill="none" stroke="rgb(86.665344%,86.665344%,86.665344%)"/><use x="33.952" xlink:href="#40151b02T" y="464.597"/><use x="129.19" xlink:href="#40151b02U" y="464.597"/><use x="176.709" xlink:href="#40151b02V" y="464.597"/><use x="229.179" xlink:href="#40151b02U" y="464.597"/><use x="270.76" xlink:href="#40151b02W" y="464.597"/><use x="319.368" xlink:href="#40151b02X" y="464.597"/><use x="367.779" xlink:href="#40151b02Y" y="464.597"/><use x="416.488" xlink:href="#40151b02Z" y="464.597"/><use x="436.288" xlink:href="#40151b02aa" y="464.597"/><use x="515.784" xlink:href="#40151b02Z" y="464.597"/><use x="535.585" xlink:href="#40151b02ab" y="464.597"/><use x="599.538" xlink:href="#40151b02U" y="464.597"/><use x="647.058" xlink:href="#40151b02ac" y="464.597"/><use x="692.787" xlink:href="#40151b02ad" y="464.597"/><use x="767.136" xlink:href="#40151b02ae" y="464.597"/><use x="812.973" xlink:href="#40151b02af" y="464.597"/><use x="888.906" xlink:href="#40151b02ag" y="464.597"/><use x="32.88" xlink:href="#40151b02ah" y="1673.089"/><use x="232.875" xlink:href="#40151b02ai" y="1673.089"/><use x="386.305" xlink:href="#40151b02aj" y="1673.089"/><use x="637.89" xlink:href="#40151b02ak" y="1673.089"/><use x="799.695" xlink:href="#40151b02al" y="1673.089"/></g></svg>