<?xml version='1.0' encoding='UTF-8'?>
<svg xmlns="http://www.w3.org/2000/svg" xmlns:xlink="http://www.w3.org/1999/xlink" width="600px" height="300px" viewBox="0 0 600 300" x="0px" y="0px" enable-background="new 0 0 600 300"><defs><symbol overflow="visible" id="32750ae0a"><path d="M12.72-16.72c-2.72 0-5.85-2.08-7.36-4.48C2.48-19.6.72-15.28.72-10.88.72-4.8 4 1.53 11.84 1.53c8 0 16-8.47 16.8-18-1.12-2.57-4-7.52-5.05-9.2l.1-.09c6.54 8.25 11.67 16.33 15.9 27.29 9.05-1.11 14-7.29 14-17.44 0-3.85-.72-7.44-2.3-11.44 0-7.36.94-20.87 11.43-21.2.16-.64.16-1.28.16-1.85 0-4.07-2.8-7.43-8.08-7.43-5.85 0-9.67 5.28-9.67 12.64 0 1.6.07 2.4.39 4.33a59.71 59.71 0 013.6 8.23l-.17.08c-4.08-8.16-14.64-25.36-25.83-25.36-7.6 0-13.43 7.69-16.71 14.15 4.95 3.85 10.95 10.25 14.8 15.05 0 8.8-3.93 12-8.5 12zm66.4-34.23c-.48-2.17-2.07-3.13-4-3.13-4.89 0-12.32 5.44-12.32 16.88 0 7.92 5.2 13.04 12.33 13.04 7.43 0 14-6.8 14-19.43 0-4.25-1.93-9.2-5.85-9.2-1.2 0-2.64.56-4.16 1.84zm-1.68 2.64s-.49 1.75-.49 2.8c0 .23 0 .38.1.56.3 1.26.39 2.72.39 4.23 0 3.2-.56 6.8-1.28 9.44a30.9 30.9 0 01-1.11-8c0-3.28.72-6.16 2.3-9.13zm0 0"/></symbol><symbol overflow="visible" id="32750ae0b"><path d="M16.8-44c4.25 5.44 8.72 8.4 16.15 8.4 10.49 0 15.28-5.45 15.28-11.68 0-3.28-1.28-6.8-3.82-9.92a78.36 78.36 0 01-17.85 2.25c-7.6 0-12.33-1.36-15.2-1.36-1.84 0-3.44 1.75-3.44 4 0 2.62.31 7.1.31 12 0 4.15-.23 8.87-1.03 12.8 1.6 1.82 3.75 3.82 6.8 4.3a25.93 25.93 0 019.44-2.15c1.84 0 3.28.4 3.28 1.44 0 1.76-3.28 2.64-7.03 2.64-3.77 0-8-.88-9.92-2.64C3.13-21.77 0-17.36 0-12.8 0-5.84 7.36 1.52 20.72 1.52 37.52 1.52 46.64-10 46.64-20c0-7.77-5.44-14.72-17.12-14.72-.88 0-1.83.08-2.8.16-3.2-1.6-7.67-5.13-10.08-9.28zm0 0"/></symbol><symbol overflow="visible" id="32750ae0c"><path d="M7.28-.48c.24-2.08.64-3.36 1.52-5.2 4.64 4 12.15 7.2 20.56 7.2 11.28 0 17.69-9.2 17.69-18.24 0-5.6-2.97-10.23-9.36-10.23-1.28 0-2.56.39-3.92 1.1 0 7.85-12.65 4.26-22.49 14.8h-.15c4.8-9.03 34.56-18.15 34.56-33.1 0-10.5-11.28-13.7-19.28-13.7-16.57 0-22.57 6.98-22.57 13.2 0 5.52 5.2 9.06 10.72 9.06 7.85 0 10.88-5.05 10.88-10.49 0-2.23-.64-4.08-2.24-6.15h.24a9.1 9.1 0 013.04 7.1C26.48-32.87 0-21.27 0-8.16A7.44 7.44 0 007.28-.48zm0 0"/></symbol><symbol overflow="visible" id="32750ae0e"><path d="M.8-37.52c0 3.04 2.56 5.93 5.68 5.93.8-2.64 2.4-5.13 3.83-7.29h.17c-2.25 4.32-3.43 10.32-3.43 16.32 0 11.92 3.75 24.08 12.72 24.08 5.92 0 9.51-2.72 11.67-6.47a62.1 62.1 0 01-2.08-16.18c0-13.75 4.08-24.71 4.08-29.03 0-6-5.85-7.68-11.6-7.68C18.16-50.48 12.31-41.92.8-37.52zm0 0"/></symbol><symbol overflow="visible" id="32750ae0f"><path d="M47.05-47.2c0-6.96-8.97-10.64-18.4-10.64-10.73 0-22.17 4.72-22.17 15.12 0 11.44 10.16 15.6 11.11 26.24h-.15c-1.2-4.8-3.67-7.75-6.24-10.4C4.48-23.77.8-18.3.8-12.55.8-3.7 12.3 1.59 23.92 1.59c11.85 0 23.85-5.51 23.85-18.3 0-11.77-9.77-15.7-14.25-26.34l.17-.08c1.03 2.18 2.47 4.41 6.87 8.33 2.88-2.8 6.49-7.6 6.49-12.4zM32.4-46.16c-.18-.97-.25-2-.25-2.97 0-2.3.56-4.23 1.2-4.23.87 0 1.36 1.05 1.36 2.4 0 1.76-.88 4.09-2.31 4.8zM17.5-13.2s.57 1.6.57 3.6c0 1.76-.64 4.24-1.44 4.24-.95 0-1.44-1.12-1.44-2.48 0-1.85.8-4.24 2.32-5.36zm0 0"/></symbol><symbol overflow="visible" id="32750ae0g"><path d="M24.64-24.31c7.84 0 11.44-13.28 11.44-16.82 0-1.59-.8-2.23-1.36-2.23a30.79 30.79 0 01-4.4 8.08c0-6.08.88-11.67 2.88-15.67a9.05 9.05 0 00-6.08-2.33c-1.68 0-3.35.33-4.96 1.12 1.76 1.36 2.96 2.8 4.25 4.24l-.25.23c-4-3.9-8.24-5.6-11.2-5.6-7.52 0-11.37 10.16-11.37 18.5 0 5.66 1.85 10.48 5.61 10.48 5.68 0 9.52-10.82 12.57-22.17H22c-.95 4.8-1.92 10.56-4.16 15.6.64 3.6 3.6 6.57 6.8 6.57zm-9.12-12c1.04-7.46 2.71-10.97 4.48-11.92 0 0-2.64 8.8-4.31 11.92zm0 0"/></symbol><symbol overflow="visible" id="32750ae0h"><path d="M6.4-19.44c11.91-3.28 25.04-13.84 25.04-27.6 0-7.52-6-11.44-12.64-11.44-1.93 0-3.93.32-5.85 1.04.64 1.52.9 3.28.9 5.13 0 10.23-3.29 24.47-13.44 30.47 0 8.07 11.36 10.96 24.07 10.96 4.4 0 8.64-.4 13.29-1.68v.15c-3.61 1.54-8.08 2.64-14.97 2.64C24.16-4 27.84 1.6 34.56 1.6c7.2 0 10.49-5.03 10.49-5.03-.4-2.08-.74-4.64-.74-6.87 0-1.13.1-2.17.25-2.97 6.16 0 8.96-7.28 8.96-12 0-2.64-.96-5.2-3.11-6.72 0 0-.64 1.44-4.25 2.31 1.04-3.83 1.92-7.36 1.92-10.23 0-4.95-2.64-8.08-11.6-8.16C34-40.56 30.64-34.3 25.84-30.64c.4 2.48-1.53 4.72-3.76 4.72-.24 0-.56 0-.8-.08-3.36 2.88-9.51 5.69-14.8 6.88zm0 0"/></symbol><symbol overflow="visible" id="32750ae0i"><path d="M19.52-50.95c-.47-2.17-2.08-3.13-4-3.13-4.88 0-12.32 5.44-12.32 16.88 0 7.92 5.2 13.04 12.32 13.04 7.43 0 14-6.8 14-19.43 0-4.25-1.93-9.2-5.83-9.2-1.2 0-2.64.56-4.17 1.84zm-1.68 2.64s-.48 1.75-.48 2.8c0 .23 0 .38.08.56.33 1.26.4 2.72.4 4.23 0 3.2-.56 6.8-1.28 9.44-.8-3.03-1.12-5.6-1.12-8 0-3.28.72-6.16 2.33-9.13zm0 0"/></symbol><symbol overflow="visible" id="32750ae0j"><path d="M3.83 0v-5.95H6.2v-.82H.45v.82h2.4V0zm0 0"/></symbol><symbol overflow="visible" id="32750ae0k"><path d="M5.75-2.23v-.43c0-1.6-.9-2.51-2.42-2.51S.87-4.16.87-2.48c0 1.71.91 2.62 2.5 2.62 1.43 0 2.07-.56 2.29-1.52l-.9-.09c-.18.61-.59.9-1.35.9-.94 0-1.52-.54-1.58-1.66zm-2.4-2.2c.93 0 1.43.5 1.48 1.55H1.84c.08-1.07.6-1.56 1.5-1.56zm0 0"/></symbol><symbol overflow="visible" id="32750ae0l"><path d="M1.83 0l1.42-2h.06l1.46 2H5.8L4-2.53l1.78-2.49H4.8L3.42-3.08h-.08l-1.4-1.94H.89l1.78 2.49L.84 0zm0 0"/></symbol><symbol overflow="visible" id="32750ae0m"><path d="M5.52-4.25v-.77H3.17v-1.56h-.81l-.14 1.56H.75v.77h1.47v2.4c0 1.3.48 1.94 1.84 1.94C4.6.1 5.14 0 5.55-.14L5.4-.91c-.32.13-.72.2-1.13.2-.8 0-1.1-.37-1.1-1.23v-2.31zm0 0"/></symbol><symbol overflow="visible" id="32750ae0n"><path d="M3.33-3.42c.47 0 .8-.27.8-.8 0-.51-.33-.8-.8-.8-.47 0-.8.29-.8.8 0 .53.33.8.8.8zm0 3.5c.47 0 .8-.27.8-.78 0-.53-.33-.82-.8-.82-.47 0-.8.29-.8.82 0 .51.33.78.8.78zm0 0"/></symbol><symbol overflow="visible" id="32750ae0p"><path d="M1.84 0v-4.48l-.06-.99h.1L4.46 0h1.28v-6.77h-.92v4.4l.06 1.03h-.1L2.21-6.77H.92V0zm0 0"/></symbol><symbol overflow="visible" id="32750ae0q"><path d="M3.33.14c1.62 0 2.5-.95 2.5-2.66 0-1.68-.88-2.64-2.5-2.64-1.63 0-2.5.96-2.5 2.64 0 1.7.87 2.66 2.5 2.66zm0-.77c-1.06 0-1.52-.6-1.52-1.89 0-1.28.46-1.87 1.52-1.87 1.08 0 1.53.6 1.53 1.87 0 1.29-.45 1.9-1.53 1.9zm0 0"/></symbol><symbol overflow="visible" id="32750ae0r"><path d="M3.42.14c1.55 0 2.44-.84 2.44-2.33 0-1.45-.83-2.22-2.14-2.22-.75 0-1.28.27-1.67.72H2l.31-2.22h3.11v-.86H1.53l-.45 3.93h.81c.3-.36.9-.79 1.58-.79.92 0 1.44.43 1.44 1.47 0 .99-.54 1.5-1.49 1.5-.83 0-1.28-.32-1.5-1.01l-.95.1C1.07-.46 2 .13 3.42.13zm0 0"/></symbol><symbol overflow="visible" id="32750ae0s"><path d="M5.67 0v-.86H2.14V-.9L3.6-2c1.05-.83 2-1.68 2-2.91 0-1.19-.73-1.99-2.26-1.99-1.66 0-2.3 1.02-2.44 2.33l1 .08c.1-.92.42-1.58 1.44-1.58.87 0 1.26.44 1.26 1.24 0 .9-.8 1.53-1.96 2.53L.83-.81V0zm0 0"/></symbol><symbol overflow="visible" id="32750ae0t"><path d="M4.22-6.77h-.86l-2.03.7v.87c.64-.17 1.26-.38 1.89-.55v4.9H1.03V0h4.9v-.86H4.21zm0 0"/></symbol><symbol overflow="visible" id="32750ae0u"><path d="M3.33.16c1.69 0 2.69-.74 2.69-1.94 0-1.05-.8-1.58-1.43-1.72v-.05c.5-.14 1.2-.58 1.2-1.56 0-1.12-.95-1.81-2.46-1.81-1.52 0-2.46.69-2.46 1.81 0 .97.68 1.4 1.18 1.56v.05c-.6.14-1.4.64-1.4 1.72 0 1.2 1 1.94 2.68 1.94zm0-4.04c-.97 0-1.49-.43-1.49-1.12 0-.78.52-1.1 1.49-1.1.95 0 1.48.32 1.48 1.1 0 .69-.53 1.13-1.48 1.13zm0 3.24c-1.1 0-1.7-.42-1.7-1.25 0-.78.6-1.2 1.7-1.2s1.7.42 1.7 1.2c0 .83-.6 1.25-1.7 1.25zm0 0"/></symbol><symbol overflow="visible" id="32750ae0v"><path d="M2.83.14c.94 0 1.5-.39 1.81-.95h.08l.1.81h.76v-3.38c0-1.23-.69-1.8-2.13-1.8-1.43 0-2.03.65-2.18 1.6l.93.1c.11-.6.44-.93 1.22-.93.85 0 1.22.32 1.22 1.04v.34l-1.81.2C1.6-2.7 1.1-2.17 1.1-1.28c0 .92.64 1.42 1.72 1.42zm.25-.77c-.67 0-1.02-.28-1.02-.74 0-.44.28-.72 1-.82l1.58-.19v.41c0 .8-.6 1.34-1.56 1.34zm0 0"/></symbol><symbol overflow="visible" id="32750ae0w"><path d="M5.1 0v-1.47H6v-.81h-.9v-4.49H3.8L.48-2.23v.76h3.66V0zM1.5-2.33l2.6-3.53h.04v3.58H1.5zm0 0"/></symbol><symbol overflow="visible" id="32750ae0x"><path d="M5.95-6.77H1.1V0h.99v-2.92H5.3v-.77H2.08v-2.26h3.87zm0 0"/></symbol><symbol overflow="visible" id="32750ae0y"><path d="M2.73.14c.9 0 1.43-.45 1.74-1.08h.06l.13.94h.8v-5.02h-.94v2.7c0 .98-.57 1.62-1.46 1.62-.75 0-1.1-.4-1.1-1.22v-3.1h-.93v3.32c0 1.17.55 1.84 1.7 1.84zm0 0"/></symbol><symbol overflow="visible" id="32750ae0z"><path d="M5.08-5.16c-.94 0-1.58.43-1.9 1.3h-.09l-.07-1.16H1.05v.77h1.1v3.48H.96V0h3.96v-.77H3.1v-1.46c0-1.36.6-2.05 1.83-2.05.4 0 .76.08 1.1.17l.15-.87c-.33-.11-.7-.18-1.11-.18zm0 0"/></symbol><symbol overflow="visible" id="32750ae0A"><path d="M3.33.14c1.9 0 2.76-1.27 2.76-3.52 0-2.26-.86-3.53-2.76-3.53S.58-5.64.58-3.37c0 2.25.86 3.51 2.75 3.51zM3.3-.67c-1.25 0-1.73-.95-1.73-2.7 0-1.77.5-2.72 1.75-2.72s1.75.95 1.75 2.71c0 1.75-.5 2.7-1.77 2.7zm0 0"/></symbol><symbol overflow="visible" id="32750ae0B"><path d="M2.84.14C3.8.14 4.33-.26 4.6-.9h.07L4.8 0h.76v-7.14h-.95v2.95h-.08c-.28-.6-.86-.97-1.67-.97-1.48 0-2.27.99-2.27 2.64C.6-.84 1.36.14 2.84.14zm.22-.8c-.98 0-1.48-.59-1.48-1.84s.5-1.86 1.48-1.86c1.13 0 1.58.8 1.58 1.86S4.2-.66 3.06-.66zm0 0"/></symbol><symbol overflow="visible" id="32750ae0C"><path d="M3.58-5.81c.42 0 .72-.22.72-.67 0-.44-.3-.68-.72-.68-.44 0-.72.24-.72.68 0 .45.28.67.72.67zm.5.8H1.52v.76h1.6v3.48h-1.8V0h4.46v-.77h-1.7zm0 0"/></symbol><symbol overflow="visible" id="32750ae0D"><path d="M2.16 0v-2.67c0-.99.59-1.63 1.46-1.63.74 0 1.07.38 1.07 1.22V0h.95v-3.31c0-1.2-.56-1.85-1.67-1.85-.92 0-1.49.46-1.77 1.08h-.06l-.12-.94H1.2V0zm0 0"/></symbol><symbol overflow="visible" id="32750ae0E"><path d="M3.92-7.14H1.36v.76h1.6v5.61H1.15V0H5.7v-.77H3.92zm0 0"/></symbol><symbol overflow="visible" id="32750ae0F"><path d="M3.36.16c1.4 0 2.2-.6 2.2-1.57 0-.89-.54-1.22-1.47-1.39L3-3c-.67-.14-.86-.33-.86-.73 0-.5.4-.74 1.17-.74.83 0 1.19.27 1.27.8l.9-.05c-.12-1-.8-1.47-2.17-1.47-1.34 0-2.1.53-2.1 1.5 0 .81.45 1.22 1.52 1.44l1.04.2c.56.11.87.24.87.72 0 .52-.45.78-1.28.78-.95 0-1.36-.28-1.42-.87l-.9.06C1.07-.36 1.8.16 3.35.16zm0 0"/></symbol><symbol overflow="visible" id="32750ae0G"><path d="M1.45-2.95c0 2.56 1.08 4.37 3.67 4.84l.11-.67C3.28.86 2.43-.75 2.43-2.95s.85-3.82 2.8-4.16l-.1-.69c-2.6.49-3.68 2.3-3.68 4.85zm0 0"/></symbol><symbol overflow="visible" id="32750ae0H"><path d="M1.45-7.1c1.96.33 2.8 1.94 2.8 4.15 0 2.2-.84 3.8-2.8 4.17l.11.67c2.58-.47 3.67-2.28 3.67-4.84 0-2.55-1.09-4.36-3.67-4.85zm0 0"/></symbol></defs><use xlink:href="#32750ae0a" x="64.72" y="159" fill="#fff"/><g fill="#515151"><use xlink:href="#32750ae0b" x="151.44" y="159"/><use xlink:href="#32750ae0c" x="200.08" y="159"/><use xlink:href="#32750ae0d" x="247.92" y="159"/><use xlink:href="#32750ae0e" x="263.92" y="159"/><use xlink:href="#32750ae0f" x="298.16" y="159"/></g><use xlink:href="#32750ae0g" x="346.72" y="159" fill="#fff"/><g fill="#515151"><use xlink:href="#32750ae0d" x="386.4" y="159"/><use xlink:href="#32750ae0c" x="402.4" y="159"/><use xlink:href="#32750ae0h" x="450.24" y="159"/></g><use xlink:href="#32750ae0i" x="502.96" y="159" fill="#fff"/><g fill="#fff"><use xlink:href="#32750ae0j" x="240" y="252"/><use xlink:href="#32750ae0k" x="246.667" y="252"/><use xlink:href="#32750ae0l" x="253.334" y="252"/><use xlink:href="#32750ae0m" x="260.001" y="252"/><use xlink:href="#32750ae0n" x="266.668" y="252"/><use xlink:href="#32750ae0o" x="273.335" y="252"/><use xlink:href="#32750ae0p" x="280.002" y="252"/><use xlink:href="#32750ae0q" x="286.669" y="252"/><use xlink:href="#32750ae0r" x="293.336" y="252"/><use xlink:href="#32750ae0s" x="300.003" y="252"/><use xlink:href="#32750ae0o" x="306.67" y="252"/><use xlink:href="#32750ae0t" x="313.337" y="252"/><use xlink:href="#32750ae0u" x="320.004" y="252"/><use xlink:href="#32750ae0v" x="326.671" y="252"/><use xlink:href="#32750ae0o" x="333.338" y="252"/><use xlink:href="#32750ae0s" x="340.005" y="252"/><use xlink:href="#32750ae0w" x="346.672" y="252"/><use xlink:href="#32750ae0q" x="353.339" y="252"/></g><g fill="#fff"><use xlink:href="#32750ae0x" x="220" y="266"/><use xlink:href="#32750ae0k" x="226.667" y="266"/><use xlink:href="#32750ae0v" x="233.334" y="266"/><use xlink:href="#32750ae0m" x="240.001" y="266"/><use xlink:href="#32750ae0y" x="246.668" y="266"/><use xlink:href="#32750ae0z" x="253.335" y="266"/><use xlink:href="#32750ae0k" x="260.002" y="266"/><use xlink:href="#32750ae0n" x="266.669" y="266"/><use xlink:href="#32750ae0o" x="273.336" y="266"/><use xlink:href="#32750ae0A" x="280.003" y="266"/><use xlink:href="#32750ae0z" x="286.67" y="266"/><use xlink:href="#32750ae0B" x="293.337" y="266"/><use xlink:href="#32750ae0C" x="300.004" y="266"/><use xlink:href="#32750ae0D" x="306.671" y="266"/><use xlink:href="#32750ae0v" x="313.338" y="266"/><use xlink:href="#32750ae0E" x="320.005" y="266"/><use xlink:href="#32750ae0F" x="326.672" y="266"/><use xlink:href="#32750ae0o" x="333.339" y="266"/><use xlink:href="#32750ae0G" x="340.006" y="266"/><use xlink:href="#32750ae0q" x="346.673" y="266"/><use xlink:href="#32750ae0z" x="353.34" y="266"/><use xlink:href="#32750ae0B" x="360.007" y="266"/><use xlink:href="#32750ae0D" x="366.674" y="266"/><use xlink:href="#32750ae0H" x="373.341" y="266"/></g></svg>