<?xml version='1.0' encoding='UTF-8'?>
<svg xmlns="http://www.w3.org/2000/svg" xmlns:xlink="http://www.w3.org/1999/xlink" width="600px" height="300px" viewBox="0 0 600 300" x="0px" y="0px" enable-background="new 0 0 600 300"><defs><symbol overflow="visible" id="fd4d6211a"><path d="M25.77-41.52A65.66 65.66 0 0022.16-20c0 4.16.71 11.05 2.48 15.28h-.16c-2.25-4.48-3.28-11.76-3.43-16.8-7.61.88-11.53 6.72-11.53 12.47C9.52-2.72 14.4 3.7 25.28 3.7c17.77 0 18.24-9.05 18.24-20 0-4.82.07-9.85 1.6-14.74-5.43-.54-11.28-3.36-13.68-7.03l.08-.23c2.64 3.44 8.4 5.51 12.8 5.51 12.09 0 19.04-7.2 19.04-16.72 0-2.89-.64-6-2-9.04a27.66 27.66 0 01-12.64 2.87c-9.2 0-17.92-3.75-27.44-3.75C6.88-59.44.8-50.95.8-42.88c0 9.04 6.4 14.24 14.25 14.24 2.39 0 4.15-.08 6.72-1.13a66.2 66.2 0 012.64-10.95c-2.18-1.76-5.61-3.05-8.97-3.51v-.18c3.44.1 7.51 1.53 10.33 2.9zm-8.41 64.88c0 1.92.72 3.2 3.12 3.2 6.47 0 13.83-7.6 13.83-15.2 0-3.92-2.95-5.84-7.26-5.84-4.64 0-7.53 2.17-7.53 7.36 1.84 2 2.56 3.76 2.56 5.2 0 2.87-2.64 4.64-4.72 5.28zm0 0"/></symbol><symbol overflow="visible" id="fd4d6211c"><path d="M12.23-27.6L8-17.76a19.94 19.94 0 00-1.84 7.93C6.16-2.31 12 1.52 17.84 1.52c11.75 0 17.68-18.57 17.68-25.04 0-1.6-.72-2.71-2-2.96-2.24 4.8-3.29 7.53-6.57 11.84h-.15c3.04-5.67 4.48-11.52 4.48-16.64 0-6.31-3.28-9.84-8-9.84-1.84 0-3.92.56-6.08 1.68-1.28 3.13-2.8 5.13-4.4 7.52h-.16c2.16-3.85 3.67-8.72 4.56-13.52a8.35 8.35 0 00-5.6-1.92c-6.72 0-10.4 6-10.4 12.72 0 1.92.32 3.84.88 5.77 0 6-3.2 11.51-8.49 15.59.64 3.12 4.18 5.84 6.49 5.84C4.48-14.24 8.8-21.69 12-27.69zm0 0"/></symbol><symbol overflow="visible" id="fd4d6211d"><path d="M29.13 1.52c11.51 0 16.8-19.52 16.8-24.72 0-2-.73-3.03-2-3.28-1.77 3.84-3.7 8.4-6.57 11.84 0-9.84 1.52-17.67 4.4-23.05-2.07-2-5.6-3.44-8.96-3.44-2.72 0-4.8.72-6.72 1.93 2.23 1.36 4.64 3.92 6.4 6.15l-.17.17c-6-5.84-11.19-8.24-15.6-8.24C5.85-41.13 0-26.95 0-14.64 0-6 2.88 1.52 8.16 1.52c7.68 0 13.2-15.83 17.6-32.65h.16c-1.51 7.44-3.36 15.54-6.08 22 .88 5.29 3.2 10.65 9.29 10.65zm-12.49-17.6c2.31-10.56 4.72-16.87 6.64-17.69-1.76 5.77-4 12.9-6.48 17.7zm6-45.84c-4.33 0-6.8 3.84-6.8 7.92 0 4.48 3.04 9.2 10.08 9.2 8.16 0 13.52-6.8 13.52-11.68 0-2.65-1.6-4.72-5.36-4.72-2.16 0-4.16.72-4.16.72s-1.12 8-2.87 8c-.64 0-.9-1.11-.9-2.08 0-1.85.65-4.4 1.37-5.67 0 0-1.29-1.7-4.88-1.7zm0 0"/></symbol><symbol overflow="visible" id="fd4d6211e"><path d="M17.13-32.48c-5.13.56-9.77.89-14.49 1.04a76.6 76.6 0 00-.95 11.67c0 11.13 2.72 21.29 13.6 21.29 12.79 0 17.2-21.11 17.2-24.72 0-2-.72-3.03-2-3.28-2.08 4.71-5.29 11.68-7.36 11.68-1.2 0-1.85-1.84-1.85-4.4 0-4.32.72-8.96 2-13.44 7.77 0 10.08-2.8 10.08-6.31 0-1.36-.56-2.74-1.28-3.77L26-42.4c.64-1.9 1.6-4.3 2.23-5.59-2.54-2.16-5.92-3.05-9.51-3.05-6.4 0-10.95 2.97-13.84 10.17-5.68 0-8.08 2.65-8.08 4.88s1.68 3.36 4.97 3.36h15.36zM4.22 21.59c0 1.93.72 3.2 3.13 3.2 6.48 0 13.84-7.59 13.84-15.2 0-3.9-2.97-5.82-7.28-5.82-4.64 0-7.51 2.15-7.51 7.36 1.82 2 2.54 3.74 2.54 5.18 0 2.9-2.64 4.64-4.72 5.28zm0 0"/></symbol><symbol overflow="visible" id="fd4d6211b"><path d="M29.13 1.52c11.51 0 16.8-19.52 16.8-24.72 0-2-.73-3.03-2-3.28-1.77 3.84-3.7 8.4-6.57 11.84 0-9.84 1.52-17.67 4.4-23.05-2.07-2-5.6-3.44-8.96-3.44-2.72 0-4.8.72-6.72 1.93 2.23 1.36 4.64 3.92 6.4 6.15l-.17.17c-6-5.84-11.19-8.24-15.6-8.24C5.85-41.13 0-26.95 0-14.64 0-6 2.88 1.52 8.16 1.52c7.68 0 13.2-15.83 17.6-32.65h.16c-1.51 7.44-3.36 15.54-6.08 22 .88 5.29 3.2 10.65 9.29 10.65zm-12.49-17.6c2.31-10.56 4.72-16.87 6.64-17.69-1.76 5.77-4 12.9-6.48 17.7zm0 0"/></symbol><symbol overflow="visible" id="fd4d6211f"><path d="M3.83 0v-5.95H6.2v-.82H.45v.82h2.4V0zm0 0"/></symbol><symbol overflow="visible" id="fd4d6211g"><path d="M5.75-2.23v-.43c0-1.6-.9-2.51-2.42-2.51S.87-4.16.87-2.48c0 1.71.91 2.62 2.5 2.62 1.43 0 2.07-.56 2.29-1.52l-.9-.09c-.18.61-.59.9-1.35.9-.94 0-1.52-.54-1.58-1.66zm-2.4-2.2c.93 0 1.43.5 1.48 1.55H1.84c.08-1.07.6-1.56 1.5-1.56zm0 0"/></symbol><symbol overflow="visible" id="fd4d6211h"><path d="M1.83 0l1.42-2h.06l1.46 2H5.8L4-2.53l1.78-2.49H4.8L3.42-3.08h-.08l-1.4-1.94H.89l1.78 2.49L.84 0zm0 0"/></symbol><symbol overflow="visible" id="fd4d6211i"><path d="M5.52-4.25v-.77H3.17v-1.56h-.81l-.14 1.56H.75v.77h1.47v2.4c0 1.3.48 1.94 1.84 1.94C4.6.1 5.14 0 5.55-.14L5.4-.91c-.32.13-.72.2-1.13.2-.8 0-1.1-.37-1.1-1.23v-2.31zm0 0"/></symbol><symbol overflow="visible" id="fd4d6211j"><path d="M3.33-3.42c.47 0 .8-.27.8-.8 0-.51-.33-.8-.8-.8-.47 0-.8.29-.8.8 0 .53.33.8.8.8zm0 3.5c.47 0 .8-.27.8-.78 0-.53-.33-.82-.8-.82-.47 0-.8.29-.8.82 0 .51.33.78.8.78zm0 0"/></symbol><symbol overflow="visible" id="fd4d6211l"><path d="M3.83-5.95H6.2v-.82H.45v.82h2.4V0h.17l-.13.64c.52.05.81.17.81.5 0 .36-.22.42-.48.42-.14 0-.36-.03-.52-.08l-.08.5c.2.07.5.15.79.15.56 0 1.06-.2 1.06-.91 0-.52-.44-.77-.95-.86L3.58 0h.25zm0 0"/></symbol><symbol overflow="visible" id="fd4d6211m"><path d="M2.83.14c.94 0 1.5-.39 1.81-.95h.08l.1.81h.76v-3.38c0-1.23-.69-1.8-2.13-1.8-1.43 0-2.03.65-2.18 1.6l.93.1c.11-.6.44-.93 1.22-.93.85 0 1.22.32 1.22 1.04v.34l-1.81.2C1.6-2.7 1.1-2.17 1.1-1.28c0 .92.64 1.42 1.72 1.42zm.25-.77c-.67 0-1.02-.28-1.02-.74 0-.44.28-.72 1-.82l1.58-.19v.41c0 .8-.6 1.34-1.56 1.34zm0 0"/></symbol><symbol overflow="visible" id="fd4d6211n"><path d="M5.08-5.16c-.94 0-1.58.43-1.9 1.3h-.09l-.07-1.16H1.05v.77h1.1v3.48H.96V0h3.96v-.77H3.1v-1.46c0-1.36.6-2.05 1.83-2.05.4 0 .76.08 1.1.17l.15-.87c-.33-.11-.7-.18-1.11-.18zm0 0"/></symbol><symbol overflow="visible" id="fd4d6211o"><path d="M3.53-5.67c1.05 0 1.64-.56 1.69-1.85h-.69c-.05.77-.26 1.22-1 1.22-.72 0-.95-.45-1-1.22h-.7c.04 1.29.62 1.85 1.7 1.85zM2.83.14c.94 0 1.5-.39 1.81-.95h.08l.1.81h.76v-3.38c0-1.23-.69-1.8-2.13-1.8-1.43 0-2.03.65-2.18 1.6l.93.1c.11-.6.44-.93 1.22-.93.85 0 1.22.32 1.22 1.04v.34l-1.81.2C1.6-2.7 1.1-2.17 1.1-1.28c0 .92.64 1.42 1.72 1.42zm.25-.77c-.67 0-1.02-.28-1.02-.74 0-.44.28-.72 1-.82l1.58-.19v.41c0 .8-.6 1.34-1.56 1.34zm0 0"/></symbol><symbol overflow="visible" id="fd4d6211p"><path d="M3.69.08l.37.01C4.6.1 5.14 0 5.55-.14L5.4-.91c-.32.13-.72.2-1.13.2-.8 0-1.1-.37-1.1-1.23v-2.31h2.34v-.77H3.17v-1.56h-.81l-.14 1.56H.75v.77h1.47v2.4c0 .96.25 1.55.94 1.82l-.14.67c.51.05.82.17.82.5 0 .36-.23.42-.5.42-.14 0-.36-.03-.5-.08l-.09.5c.2.07.5.15.78.15.56 0 1.08-.2 1.08-.91 0-.52-.44-.77-.97-.86zm0 0"/></symbol><symbol overflow="visible" id="fd4d6211q"><path d="M5.95-6.77H1.1V0h.99v-2.92H5.3v-.77H2.08v-2.26h3.87zm0 0"/></symbol><symbol overflow="visible" id="fd4d6211r"><path d="M2.73.14c.9 0 1.43-.45 1.74-1.08h.06l.13.94h.8v-5.02h-.94v2.7c0 .98-.57 1.62-1.46 1.62-.75 0-1.1-.4-1.1-1.22v-3.1h-.93v3.32c0 1.17.55 1.84 1.7 1.84zm0 0"/></symbol><symbol overflow="visible" id="fd4d6211s"><path d="M4.06-2.77c1.25-.04 1.92-.7 1.92-1.96 0-1.36-.7-2.04-2.17-2.04H.92V0h.97v-2.73h1.08L4.95 0h1.1zM1.9-6h1.7c1.07 0 1.46.34 1.46 1.28 0 .9-.44 1.27-1.47 1.27H1.89zm0 0"/></symbol><symbol overflow="visible" id="fd4d6211t"><path d="M3.33.14c1.62 0 2.5-.95 2.5-2.66 0-1.68-.88-2.64-2.5-2.64-1.63 0-2.5.96-2.5 2.64 0 1.7.87 2.66 2.5 2.66zm0-.77c-1.06 0-1.52-.6-1.52-1.89 0-1.28.46-1.87 1.52-1.87 1.08 0 1.53.6 1.53 1.87 0 1.29-.45 1.9-1.53 1.9zm0 0"/></symbol><symbol overflow="visible" id="fd4d6211u"><path d="M1.63 0v-2.9c0-.8.15-1.4.71-1.4.41 0 .55.3.55.88V0h.95v-2.9c0-.8.18-1.4.72-1.4.4 0 .57.3.57.88V0h.95v-3.63c0-.92-.28-1.53-1.11-1.53-.63 0-.95.41-1.1.9h-.06c-.1-.52-.44-.9-1.08-.9-.6 0-.93.41-1.06.9H1.6l-.23-.76H.67V0zm0 0"/></symbol><symbol overflow="visible" id="fd4d6211v"><path d="M2.16 0v-2.67c0-.99.59-1.63 1.46-1.63.74 0 1.07.38 1.07 1.22V0h.95v-3.31c0-1.2-.56-1.85-1.67-1.85-.92 0-1.49.46-1.77 1.08h-.06l-.12-.94H1.2V0zm0 0"/></symbol><symbol overflow="visible" id="fd4d6211w"><path d="M3.58-5.81c.42 0 .72-.22.72-.67 0-.44-.3-.68-.72-.68-.44 0-.72.24-.72.68 0 .45.28.67.72.67zm.5.8H1.52v.76h1.6v3.48h-1.8V0h4.46v-.77h-1.7zm0 0"/></symbol><symbol overflow="visible" id="fd4d6211x"><path d="M1.45-2.95c0 2.56 1.08 4.37 3.67 4.84l.11-.67C3.28.86 2.43-.75 2.43-2.95s.85-3.82 2.8-4.16l-.1-.69c-2.6.49-3.68 2.3-3.68 4.85zm0 0"/></symbol><symbol overflow="visible" id="fd4d6211y"><path d="M3.36.16c1.4 0 2.2-.6 2.2-1.57 0-.89-.54-1.22-1.47-1.39L3-3c-.67-.14-.86-.33-.86-.73 0-.5.4-.74 1.17-.74.83 0 1.19.27 1.27.8l.9-.05c-.12-1-.8-1.47-2.17-1.47-1.34 0-2.1.53-2.1 1.5 0 .81.45 1.22 1.52 1.44l1.04.2c.56.11.87.24.87.72 0 .52-.45.78-1.28.78-.95 0-1.36-.28-1.42-.87l-.9.06C1.07-.36 1.8.16 3.35.16zm0 0"/></symbol><symbol overflow="visible" id="fd4d6211z"><path d="M3.92-7.14H1.36v.76h1.6v5.61H1.15V0H5.7v-.77H3.92zm0 0"/></symbol><symbol overflow="visible" id="fd4d6211A"><path d="M3.16 2.03c1.67 0 2.4-.86 2.4-2.51v-4.54h-.81l-.13.91h-.06c-.26-.58-.8-1.05-1.73-1.05-1.42 0-2.24 1-2.24 2.52 0 1.6.75 2.56 2.2 2.56.94 0 1.5-.5 1.77-1.03h.05v.72c0 1.17-.42 1.67-1.45 1.67-.93 0-1.3-.34-1.41-.89L.8.5c.12.96.87 1.54 2.36 1.54zM3.06-.8c-.98 0-1.48-.57-1.48-1.82 0-1.13.5-1.75 1.48-1.75 1.06 0 1.58.76 1.58 1.75 0 .95-.56 1.82-1.58 1.82zm0 0"/></symbol><symbol overflow="visible" id="fd4d6211B"><path d="M1.45-7.1c1.96.33 2.8 1.94 2.8 4.15 0 2.2-.84 3.8-2.8 4.17l.11.67c2.58-.47 3.67-2.28 3.67-4.84 0-2.55-1.09-4.36-3.67-4.85zm0 0"/></symbol></defs><use xlink:href="#fd4d6211a" x="140.36" y="159" fill="#fff"/><use xlink:href="#fd4d6211b" x="189.32" y="159" fill="#515151"/><use xlink:href="#fd4d6211c" x="230.36" y="159" fill="#515151"/><use xlink:href="#fd4d6211d" x="261.48" y="159" fill="#515151"/><use xlink:href="#fd4d6211e" x="322.2" y="159" fill="#fff"/><use xlink:href="#fd4d6211b" x="347.56" y="159" fill="#515151"/><use xlink:href="#fd4d6211c" x="388.6" y="159" fill="#515151"/><use xlink:href="#fd4d6211d" x="419.72" y="159" fill="#515151"/><g fill="#fff"><use xlink:href="#fd4d6211f" x="250" y="252"/><use xlink:href="#fd4d6211g" x="256.667" y="252"/><use xlink:href="#fd4d6211h" x="263.334" y="252"/><use xlink:href="#fd4d6211i" x="270.001" y="252"/><use xlink:href="#fd4d6211j" x="276.668" y="252"/><use xlink:href="#fd4d6211k" x="283.335" y="252"/><use xlink:href="#fd4d6211l" x="290.002" y="252"/><use xlink:href="#fd4d6211m" x="296.669" y="252"/><use xlink:href="#fd4d6211n" x="303.336" y="252"/><use xlink:href="#fd4d6211o" x="310.003" y="252"/><use xlink:href="#fd4d6211k" x="316.67" y="252"/><use xlink:href="#fd4d6211p" x="323.337" y="252"/><use xlink:href="#fd4d6211m" x="330.004" y="252"/><use xlink:href="#fd4d6211n" x="336.671" y="252"/><use xlink:href="#fd4d6211o" x="343.338" y="252"/></g><g fill="#fff"><use xlink:href="#fd4d6211q" x="193.3333" y="266"/><use xlink:href="#fd4d6211g" x="200.0003" y="266"/><use xlink:href="#fd4d6211m" x="206.6673" y="266"/><use xlink:href="#fd4d6211i" x="213.3343" y="266"/><use xlink:href="#fd4d6211r" x="220.0013" y="266"/><use xlink:href="#fd4d6211n" x="226.6683" y="266"/><use xlink:href="#fd4d6211g" x="233.3353" y="266"/><use xlink:href="#fd4d6211j" x="240.0023" y="266"/><use xlink:href="#fd4d6211k" x="246.6693" y="266"/><use xlink:href="#fd4d6211s" x="253.3363" y="266"/><use xlink:href="#fd4d6211t" x="260.0033" y="266"/><use xlink:href="#fd4d6211u" x="266.6703" y="266"/><use xlink:href="#fd4d6211m" x="273.3373" y="266"/><use xlink:href="#fd4d6211v" x="280.0043" y="266"/><use xlink:href="#fd4d6211w" x="286.6713" y="266"/><use xlink:href="#fd4d6211m" x="293.3383" y="266"/><use xlink:href="#fd4d6211v" x="300.0053" y="266"/><use xlink:href="#fd4d6211k" x="306.6723" y="266"/><use xlink:href="#fd4d6211x" x="313.3393" y="266"/><use xlink:href="#fd4d6211y" x="320.0063" y="266"/><use xlink:href="#fd4d6211g" x="326.6733" y="266"/><use xlink:href="#fd4d6211i" x="333.3403" y="266"/><use xlink:href="#fd4d6211k" x="340.0073" y="266"/><use xlink:href="#fd4d6211z" x="346.6743" y="266"/><use xlink:href="#fd4d6211m" x="353.3413" y="266"/><use xlink:href="#fd4d6211v" x="360.0083" y="266"/><use xlink:href="#fd4d6211A" x="366.6753" y="266"/><use xlink:href="#fd4d6211r" x="373.3423" y="266"/><use xlink:href="#fd4d6211m" x="380.0093" y="266"/><use xlink:href="#fd4d6211A" x="386.6763" y="266"/><use xlink:href="#fd4d6211g" x="393.3433" y="266"/><use xlink:href="#fd4d6211B" x="400.0103" y="266"/></g></svg>