<?xml version="1.0" encoding="UTF-8"?><svg enable-background="new 0 0 1000 2000" height="2000px" viewBox="0 0 1000 2000" width="1000px" x="0px" xml:space="preserve" xmlns="http://www.w3.org/2000/svg" xmlns:xlink="http://www.w3.org/1999/xlink" y="0px"><defs><symbol overflow="visible"><path d="M49.438 0v-69.234H-.22V0zm-7.922-64.313L24.72-39.156 7.92-64.313zm3 55L27.72-34.672l16.796-25.14h-.22v50.5zM7.922-5.03L24.72-29.954 41.515-5.03zm-3-54.782l16.687 25.14L4.92-9.312h.22v-50.5zm0 0"/></symbol><symbol id="000e7b99a" overflow="visible"><path d="M37.125 7.28c-2.03-8.25-3.64-16.905-3.64-26.75 0-9.202 1.39-18.624 5.14-27.608-2.672-2.25-5.984-3.422-10.063-3.422-16.796 0-20.53 24.078-20.53 37.125 0 9.953 2.67 27.813 16.687 27.813 4.28 0 10.06-2.032 12.405-7.157zm4.72-75.124c0-5.984-7.392-7.594-11.892-7.594-6.312 0-9.844 2.782-9.844 8.672 0 5.782 3.53 12.407 9.53 12.407 6.422 0 12.204-8.343 12.204-13.484zm0 0"/></symbol><symbol id="000e7b99b" overflow="visible"><path d="M21.61 2.03c27.718 0 53.296-40.233 53.296-63.983 0-11.016-5.25-15.406-11.562-15.406-8.782 0-20.11 8.454-23.22 20h.22s.11 2.25.11 5.89c0 9.845-1.72 29.97-19.048 44.83l-.218-.313c2.89-3.22 6.953-8.03 9.312-13.703 1.703-23 5.984-36.375 14.766-50.813h-.75c-13.172 0-30.282-5.358-41.407-14.343C1.72-82.5.86-78.75.86-75.22c0 11.017 8.656 17.97 20 21.298v.203c-4.172-.42-8.876-1.81-13.047-3.843C3.75-46.766 1.718-37.233 1.718-25.14c0 11.124 2.874 27.17 19.89 27.17zm0 0"/></symbol><symbol id="000e7b99c" overflow="visible"><path d="M23.64-81.11c-6.734 0-10.484 2.782-10.484 8.14 0 4.814 3.22 13.157 9.313 13.157 6.202 0 12.514-8.453 12.514-13.906 0-5.03-5.453-7.39-11.343-7.39zM34.454-35.42S29.22-23.328 25.78-19.797c0-13.047 1.94-23.437 5.673-30.594 0 0-4.484-4.61-11.656-4.61C6.312-55-.22-38.953-.22-24.078c0 13.594 5.47 26.11 15.408 26.11 13.484 0 22.046-24.83 22.046-33.485 0-3.75-2.78-3.97-2.78-3.97zm0 0"/></symbol><symbol id="000e7b99d" overflow="visible"><path d="M30.703-11.344c5.563 5.78 11.14 8.235 16.063 8.235 10.797 0 18.828-12.078 18.828-26.64 0-3.53-1.828-5.344-3.75-5.672-1.282 6.75-4.813 12.203-8.235 12.203-5.454 0-7.172-7.593-7.172-14.014 0-2.89.42-5.563.968-7.282h-.11c-.437 1.5-.64 3.422-.64 5.563 0 6 2.032 13.266 6.094 13.266 3.313 0 7.172-8.016 7.172-15.61C59.922-48.36 56.61-55 47.078-55c-13.375 0-23.11 12.625-23.11 26.86 0 3.42.532 6.843 1.72 10.265h.093c-1.5-3.53-2.343-7.813-2.343-12.078 0-7.39 2.454-14.766 7.704-19.906C29.313-52.64 25.47-55 20.11-55 6.64-55 .86-44.72.86-32.844.86-16.797 11.233 2.03 25.89 2.03c5.672 0 10.704-1.702 13.594-4.92-3.53-2.032-6.64-5.14-8.875-8.454zm0 0"/></symbol><symbol id="000e7b99e" overflow="visible"><path d="M38.953 2.03c15.406 0 22.578-26.108 22.578-33.06 0-2.673-1.077-4.064-3-4.392-2.358 5.14-4.81 11.234-8.67 15.844h.218c0-13.156 1.922-23.656 5.78-30.813C53.08-53.08 48.36-55 43.876-55c-3.64 0-6.53.97-9.094 2.563 2.986 1.828 6.204 5.25 8.548 8.25l-.203.203C35.203-51.78 28.25-55 22.36-55 7.812-55-.22-36.062-.22-19.578c0 11.547 4.08 21.61 11.126 21.61 10.281 0 17.766-21.188 23.657-43.657h-.11c-2.03 9.953-4.5 20.766-8.125 29.422C27.5-5.14 30.813 2.03 38.953 2.03zM22.36-21.5c3.11-14.125 6.203-22.578 8.562-23.547-2.36 7.594-5.235 17.125-8.563 23.547zm0 0"/></symbol><symbol id="000e7b99f" overflow="visible"><path/></symbol><symbol id="000e7b99g" overflow="visible"><path d="M35.313-35.422c-1.83 4.61-5.36 11.984-8.454 15.625-.22-1.922-.33-4.28-.33-6.625 0-13.28 3.423-29.328 8.454-40.344-4.28-2.25-8.562-4.17-13.797-4.17-14.343 0-20.328 23-20.328 43.124C.86-11.985 5.452 2.03 16.796 2.03c12.953 0 21.515-24.718 21.515-32.843 0-3.42-1.61-4.61-3-4.61zm0 0"/></symbol><symbol id="000e7b99h" overflow="visible"><path d="M14.438-31.453c5.36 4.812 12.42 8.344 18.953 10.375C38.407-3 54.03 32.844 84.313 32.844c13.704 0 24.407-13.375 24.407-26.313 0-2.78-1.08-5.468-3.11-5.468-3.532 5.47-8.985 7.39-14.876 7.39-15.515 0-34.765-19.468-40.015-26.218-4.814 0-9.626-.53-12.626-1.812v-.328c2.78.437 5.672.75 8.672.75 18.078 0 29.312-20.75 29.312-37.453 0-11.874-5.344-20.75-14.875-20.75-11.984 0-21.297 16.266-26.422 29.11h.095c1.5-9.844 4.28-18.844 8.25-26.547 0 0-3.328.328-5.47.328-10.483 0-25.03-2.78-35.186-9.733-1.19 3.53-1.61 6.625-1.61 9.297 0 11.344 8.234 18.515 21.39 20.125v.31h.22s-1.173.11-2.892.11c-3.53 0-7.265-.64-10.906-1.92-2.47 7.483-4.813 20.108-4.813 29.64 0 21.61 8.874 28.67 17.328 28.67 5.234 0 10.812-4.39 13.906-8.67-1.172-4.266-2.032-8.344-2.25-12.72-4.485-2.046-14.125-6.64-18.5-11.89l.203-.094zm32-21.625c-1.813 10.172-8.235 25.156-13.047 25.156 4.063-9.53 8.547-17.656 13.047-25.156zm0 0"/></symbol><symbol id="000e7b99i" overflow="visible"><path d="M54.47-29.75c0-3.422-1.08-5.672-3-5.672-4.392 11.984-12.095 17.016-21.61 17.016-6.64 0-14.126-2.782-19.594-7.703h.11c5.468 4.282 12.093 6.204 17.765 6.204 10.813 0 20.438-8.125 20.438-20C48.578-49.64 41.406-55 30.703-55 11.766-55-.75-40.344-.75-21.187-.75-6.095 6.313 2.03 22.797 2.03c25.672 0 31.672-21.608 31.672-31.78zM29-49.97c-3.313 6.736-4.61 14.345-5.453 24.08h.203s-.86 0-1.39-.22c.968-9.093 2.67-17.874 6.64-23.86zm0 0"/></symbol><symbol id="000e7b99j" overflow="visible"><path d="M22.89 2.03C29 2.03 34.78.11 38.204-3.75c14.97-.844 19.89-15.516 19.89-27.28 0-2.782-1.28-4.064-3.312-4.5-2.14 9.843-8.233 16.483-12.843 16.483-2.984 0-5.124-2.672-5.124-8.984l-.11.108c0 4.485 2.14 7.594 5.453 7.594 5.032 0 8.235-8.03 8.235-16.266C50.39-45.578 46.657-55 38.204-55c-4.172 0-8.672 2.672-11.344 7.703.75-2.562 1.703-4.484 3.203-5.875-1.813-.75-3.422-.97-5.344-.97-12.626 0-25.47 14.017-25.47 32.845C-.75-6.094 6.313 2.03 22.89 2.03zm-.203-41.405c-1.28 3.844-1.828 7.703-1.828 11.234 0 4.17.86 8.124 2.25 11.656l-.11.11c-2.453-3.204-3.313-6.845-3.313-10.704 0-4.172 1.172-8.547 3-12.297zm0 0"/></symbol><symbol id="000e7b99k" overflow="visible"><path d="M15.297 2.03c6.203 0 13.062-7.702 16.906-19.155h-.11c-.75 3.53-2.343 9.313-4.92 13.266 2.25 4.5 6.75 5.89 10.39 5.89 15.187 0 22.25-26.53 22.25-33.06 0-2.673-1.063-4.064-3-4.392-2.344 5.14-4.813 11.234-8.657 15.844h.203c0-13.156 2.03-23.97 5.78-30.813C51.36-53.08 46.657-55 41.845-55c-16.266 0-19.157 19.906-19.157 37.875l-.968 1.28h.218c0-11.546.953-27.17 7.17-35.624C26.532-53.5 22.58-55 18.08-55 4.813-55-.22-41.406-.22-24.72c0 16.486 4.923 26.75 15.517 26.75zm0 0"/></symbol><symbol id="000e7b99l" overflow="visible"><path d="M22.797 2.03c25.562 0 31.672-21.718 31.672-31.78 0-3.422-1.08-5.672-3-5.672-3.11 8.25-9.095 16.594-19.47 16.594-7.61 0-9.953-4.39-9.953-10.063 0-7.172 3.953-16.376 6.953-21.08h.11c-3 5.345-6.313 13.907-6.313 20.44 0 5.25 2.344 9.202 8.234 9.202 7.486 0 17.548-7.703 17.548-19.578C48.578-49.64 41.406-55 30.703-55 11.766-55-.75-40.344-.75-21.297-.75-6.094 6.313 2.03 22.797 2.03zm0 0"/></symbol><symbol id="000e7b99m" overflow="visible"><path d="M22.89 2.03C29 2.03 34.78.11 38.204-3.75c14.97-.844 19.89-15.516 19.89-27.28 0-2.782-1.28-4.064-3.312-4.5-2.14 9.843-8.233 16.483-12.843 16.483-2.984 0-5.124-2.672-5.124-8.984l-.11.108c0 4.485 2.14 7.594 5.453 7.594 5.032 0 8.235-8.03 8.235-16.266C50.39-45.578 46.657-55 38.204-55c-4.172 0-8.672 2.672-11.344 7.703.75-2.562 1.703-4.484 3.203-5.875-1.813-.75-3.422-.97-5.344-.97-12.626 0-25.47 14.017-25.47 32.845C-.75-6.094 6.313 2.03 22.89 2.03zm-.203-41.405c-1.28 3.844-1.828 7.703-1.828 11.234 0 4.17.86 8.124 2.25 11.656l-.11.11c-2.453-3.204-3.313-6.845-3.313-10.704 0-4.172 1.172-8.547 3-12.297zm5.985-18.72c9.844 0 18.625-8.89 18.625-16.374 0-4.608-3.422-8.67-11.672-9.843 0 0-6.734 13.157-15.078 18.297 0 4.704 3.844 7.922 8.125 7.922zm0 0"/></symbol><symbol id="000e7b99n" overflow="visible"><path d="M40.766 2.03c15.406 0 21.406-26.42 21.406-33.06 0-2.782-1.188-4.064-3.11-4.392-2.25 5.14-4.5 11.234-8.124 15.844h.203c3.532-8.985 4.922-19.485 4.922-23.75C56.063-50.828 52.75-55 45.47-55c-18.19 0-23.314 26.438-24.814 43.438h.11C21.5-28.142 24.61-41.844 31.14-49.86 28.36-52.75 24.08-55 18.407-55 7.063-55 .86-45.47.86-24.5.86-6.734 7.06 2.03 16.483 2.03 23.75 2.03 26.97-3 28.03-6.42c-.858-2.89-1.39-5.89-1.39-8.765 0-6.97 1.172-17.876 7.594-28.89h.11c-3.64 7.702-6.625 19.14-6.625 28.452C27.72-6.095 32 2.03 40.765 2.03zm0 0"/></symbol><symbol id="000e7b99o" overflow="visible"><path d="M42.266-64.203c-1.5-5.344-7.485-9.313-13.157-9.313-15.735 0-19.688 24.297-19.688 37.14 0 12.83 3.625 28.25 18.39 28.25 2.36 0 4.83-.546 7.39-2.046-1.17-4.703-1.718-9.734-1.718-14.86 0-13.374 3.438-26.11 8.782-39.17zM35.953 8.672c0-6.11-5.453-14.016-11.672-14.016-6.405 0-10.046 8.016-10.046 13.047 0 6.422 6.532 8.235 11.547 8.235 4.83 0 10.173-2.032 10.173-7.266zm0 0"/></symbol><symbol overflow="visible"><path d="M113.86 0v-159.813H0V0zM96.077-148.453L57.062-90.156l-38.78-58.297zm6.672 126.97L63.97-80.032l38.78-58.048zM18.28-11.61l38.782-58.046L96.078-11.61zm-6.67-126.468L50.14-80.03 11.61-21.485zm0 0"/></symbol><symbol id="000e7b99p" overflow="visible"><path d="M80.28-111.39c3.454-22.735 10.126-43.485 19.267-61.266-3.22.25-7.656.75-12.61.75-24.203 0-57.796-6.422-81.015-22.235-2.47 7.906-3.453 15.062-3.453 21.234 0 26.187 18.53 42.734 49.405 46.437v.5s-2.72.25-6.672.25c-8.156 0-16.797-1.233-24.703-4.202C14.812-112.625 9.39-83.484 9.39-61.5c0 49.89 20 66.188 39.516 66.188 12.11 0 24.953-10.125 31.86-20-1.97-7.407-3.954-16.547-4.938-23.72-16.797-5.42-35.312-16.796-47.422-28.406l.25-.234c16.547 13.828 47.907 28.64 74.594 28.64 43.72 0 71.375-52.36 71.375-91.874 0-24.953-11.11-47.672-34.078-47.672-23.72 0-41.5 24.453-60.03 67.187zm26.673-11.126c-2.72 12.594-7.906 28.907-14.578 41-4.938 9.14-12.594 20.016-18.28 21.25 10.624-23.968 22.233-46.437 32.358-62.25.25-.484.25.25.5 0zm0 0"/></symbol><symbol id="000e7b99q" overflow="visible"><path d="M82-81.75c-4.188 10.61-12.594 27.656-20.25 36.547-.5-4.938-.734-10.375-.734-15.813 0-30.625 7.89-67.672 19.5-93.36-9.625-4.936-19.5-9.39-31.61-9.39-33.093 0-46.437 53.11-46.437 99.547 0 36.564 10.124 68.907 36.31 68.907 29.892 0 49.392-57.046 49.392-75.828 0-7.907-3.453-10.61-6.172-10.61zm0 0"/></symbol><symbol id="000e7b99r" overflow="visible"><path d="M89.906 4.688c35.563 0 51.875-60.266 51.875-76.313 0-6.188-2.218-9.39-6.17-10.125-5.438 11.844-11.376 25.922-20.266 36.547 0-30.375 4.703-54.578 13.594-71.14-6.422-6.173-17.297-10.61-27.672-10.61-8.39 0-14.813 2.22-20.75 5.922 6.92 4.202 14.328 12.108 19.765 19.014l-.5.5c-18.514-18.03-34.577-25.437-48.155-25.437C18.03-126.953 0-83.233 0-45.203 0-18.53 8.89 4.687 25.188 4.687c23.718 0 40.765-48.906 54.343-100.765h.5c-4.702 22.97-10.374 47.906-18.78 67.922C63.97-11.86 71.14 4.687 89.906 4.687zm-38.53-54.33c7.155-32.608 14.577-52.124 20.5-54.592-5.44 17.78-12.345 39.765-20 54.593zm0 0"/></symbol><symbol id="000e7b99s" overflow="visible"><path d="M124.984-116.344c-6.42-6.172-17.296-10.61-28.406-10.61-37.547 0-43.72 45.938-43.72 87.188l-2.467 3.203c0-26.67 2.47-62.734 16.797-82.25-5.937-4.687-15.078-8.14-25.437-8.14-30.64 0-41.75 31.36-41.75 69.89 0 38.047 10.875 61.75 35.328 61.75 14.313 0 29.875-17.78 38.766-44.203h.5c-1.735 8.14-4.938 21.735-14.578 33.594 1.734 10.125 4.953 22.22 8.406 35.063h-.5c-3.953-8.39-8.14-19.015-11.11-31.11C51.376 3.954 42.984 8.64 33.094 8.64c-1.235 0-2.22 0-3.453-.25-6.42 5.688-9.39 12.11-9.39 18.782 0 16.797 19.766 23.703 48.656 23.703 41.016 0 49.156-13.328 49.156-34.813 0-12.61-6.67-41.5-6.67-72.124 0-20.75 2.967-42.485 13.592-60.282zm0 0"/></symbol><symbol id="000e7b99t" overflow="visible"><path d="M52.86-100.28c-15.813 1.733-30.14 2.718-44.704 3.202-1.484 10.375-2.97 21.5-2.97 36.062C5.19-26.672 13.58 4.687 47.173 4.687c39.53 0 53.11-65.203 53.11-76.312 0-6.188-2.22-9.39-6.173-10.125-6.422 14.563-16.297 36.063-22.72 36.063-3.718 0-5.687-5.688-5.687-13.594 0-13.345 2.22-27.657 6.172-41.5 23.97 0 31.125-8.642 31.125-19.5 0-4.204-1.734-8.407-3.953-11.61l-18.766.984c1.97-5.938 4.94-13.344 6.907-17.297-7.906-6.672-18.28-9.39-29.39-9.39-19.766 0-33.844 9.14-42.734 31.374-17.532 0-24.938 8.157-24.938 15.064 0 6.922 5.188 10.375 15.313 10.375h47.42zm0 0"/></symbol><symbol id="000e7b99u" overflow="visible"><path d="M54.594-187.22c-15.563 0-23.72 6.423-23.72 18.767 0 11.11 6.923 30.375 21 30.375 14.33 0 28.642-19.516 28.642-32.11 0-11.61-12.344-17.03-25.922-17.03zM79.53-81.75S67.673-53.844 59.28-45.203c0-30.625 4.69-54.578 13.345-71.14 0 0-10.375-10.61-26.938-10.61C14.578-126.953 0-89.906 0-55.578 0-24.203 12.11 4.688 35.078 4.688c31.125 0 50.625-57.297 50.625-77.313 0-8.64-6.172-9.125-6.172-9.125zm0 0"/></symbol><symbol id="000e7b99v" overflow="visible"><path d="M122.766-14.328c-1.735-4.688-2.97-12.094-2.97-20.25 0-15.813 2.97-41.75 17.782-67.438l.734.25C129.923-83.984 123-57.546 123-36.062c0 22.484 9.64 40.75 29.64 40.75 35.58 0 49.157-60.516 49.157-76.313 0-6.422-2.47-9.39-6.422-10.125 0 0-11.11 27.656-19.016 36.547 8.156-20.75 11.36-44.953 11.36-54.828 0-17.298-7.407-26.923-24.204-26.923-43.72 0-53.844 66.937-56.813 100.28h-.5c0-14.827 3.47-63.233 24.22-88.436 0 0-8.157-11.843-25.454-11.843-41.986 0-53.345 61-56.798 100.28h-.5c1.734-38.296 9.14-69.405 24.203-88.436-6.422-6.656-16.297-11.843-29.39-11.843-26.188 0-40.016 21.984-40.016 70.39 0 41 13.827 61.25 35.56 61.25 16.798 0 23.47-11.11 26.19-19.015-1.97-7.156-2.97-13.828-2.97-20.75 0-16.047 2.97-41.25 17.797-66.938l.734.25c-8.39 17.782-15.31 43.97-15.31 65.704 0 21.984 9.39 40.75 32.108 40.75 16.797 0 23.47-11.11 26.188-19.016zm0 0"/></symbol><symbol id="000e7b99w" overflow="visible"><path d="M125.47-68.672c0-7.89-2.22-13.078-6.173-13.078-10.125 27.656-28.406 39.266-50.39 39.266-15.313 0-32.594-6.422-45.188-17.782l.233-.25C36.797-50.39 51.875-45.938 64.97-45.938c24.936 0 46.92-18.78 46.92-46.187 0-22.484-16.296-34.828-41-34.828-43.718 0-72.124 33.828-72.124 78.047 0 34.828 15.812 53.593 53.843 53.593 59.28 0 72.86-49.89 72.86-73.36zm-58.032-46.672C59.78-99.78 56.812-82.25 54.828-59.78c0 0-1.97 0-3.453-.736 2.22-20.75 6.422-41 15.563-54.828zm0 0"/></symbol><symbol overflow="visible"><path d="M65.922 0v-92.516H-.14V0zM55.484-85.938L33.03-52.188 10.58-85.938zm4 73.5L37.03-46.328l22.454-33.61h-.14v67.5zm-48.906 5.72L33.03-40.19l22.454 33.47zm-4-73.22l22.313 33.61L6.58-12.438h.14v-67.5zm0 0"/></symbol><symbol id="000e7b99x" overflow="visible"><path d="M118.547-28.75c-1.86-7.86-2.72-16.156-2.72-24.453 0-15.156 3-30.172 8.58-42.328h.14c-2.14 6.296-3.563 13.31-4.422 20.593 6.28-4.422 10.578-11.86 10.578-18.58 0-7.014-4.72-12.874-17.016-12.874-8.015 0-14.296 2.86-19.312 7.718-10.72-4.72-23.734-7.437-36.172-7.437-23.03 0-43.906 9.58-43.906 34.188 0 14.578 10.156 28.313 28.61 28.313 11.577 0 23.156-8.156 23.156-18.17-6.14 0-10.72-5.142-10.72-11 0-7.876 7.298-17.017 32.173-17.017-4.14 7.14-7.297 15.86-9.72 25.594-10.437 20.156-30.61 40.03-46.765 40.03-6.296 0-14.436-3.28-15.014-10.718C7-34.89 1.28-25.454 1.28-15.438c0 11 7.157 22.734 24.173 22.734 16.875 0 27.75-9.297 36.75-22.172.72-6.14 2.297-12.156 4.156-17.016h.14c-1.297 4.156-2 8.718-2 12.734 0 7 2.422 12.578 7.14 12.578 5.72 0 9.438-6.578 10.297-12.297h-.14C84.797-7.86 91.953 2.72 104.53 2.72c20.314 0 28.75-29.173 28.75-44.47 0-3.016-1.155-5.156-3.718-5.578-2.718 6.86-7.015 14.016-11.015 18.578zM70.5-37.328c3-5.28 5.14-10.86 6.438-18.016h.14c-.578 3.72-1.14 7.875-1.14 10.875 0 2.423.28 4.72.86 7.58-.86.14-2.017.28-3.017.28-1.42 0-2.42-.14-3.28-.718zm0 0"/></symbol><symbol id="000e7b99y" overflow="visible"><path d="M20.453 2.72c8.297 0 17.297-10.298 22.453-25.595h.14c-1 4.72-3.296 12.438-6.577 17.734 3 6 8.858 7.86 13.718 7.86 20.312 0 29.61-35.47 29.61-44.19 0-3.577-1.298-5.436-3.72-5.858-3.14 6.86-6.578 15.016-11.734 21.156h.156c0-17.594 2.86-32.03 7.86-41.187-3.72-3.562-10.016-6.14-16.454-6.14-21.734 0-25.453 26.594-25.453 50.625l-1.422 1.72h.142c0-15.454 1.437-36.33 9.72-47.626-3.423-2.72-8.72-4.72-14.72-4.72C6.437-73.5-.14-55.344-.14-33.03c0 22.014 6.437 35.75 20.593 35.75zm0 0"/></symbol><symbol id="000e7b99z" overflow="visible"><path d="M41.61 16.875c-2.282-4.86-4.86-11.438-6.58-18.453-8 0-21.155 6.875-21.155 17.453 0 9.578 11.578 13.578 28.313 13.578 23.734 0 28.453-8 28.453-20.156 0-9.016-3.86-18.453-3.86-44.188 0-13.157 2.86-23.594 7.86-32.47-3.718-3.562-10-6.14-16.015-6.14-4.86 0-8.72 1.28-12.156 3.438 4.014 2.42 8.296 7 11.452 11l-.297.296C47.047-69.22 37.75-73.5 29.89-73.5 10.438-73.5-.14-48.187-.14-26.172-.14-10.72 5 2.718 14.593 2.718c13.719 0 23.593-28.312 31.453-58.343h.14c-2.718 13.297-6 27.734-10.86 39.328 0 9.438 6.58 33.172 6.58 33.172zM29.75-28.75c4.14-18.875 8.438-30.172 11.72-31.453-3.142 10.156-7.157 22.875-11.58 31.453zm0 0"/></symbol><symbol id="000e7b99A" overflow="visible"><path d="M72.64-39.75c0-4.578-1.28-7.578-3.718-7.578-5.86 16.016-16.297 22.734-29.03 22.734-8.86 0-18.876-3.718-26.158-10.297h.14c7.282 5.718 16.157 8.296 23.735 8.296 14.437 0 27.17-10.875 27.17-26.75 0-13.015-9.436-20.156-23.733-20.156C15.734-73.5-.86-53.906-.86-28.312c0 20.156 9.297 31.03 31.313 31.03C64.78 2.72 72.64-26.17 72.64-39.75zM38.89-66.78c-4.42 9.014-6.14 19.155-7.28 32.17h.14s-1.14 0-2-.28c1.28-12.157 3.72-23.876 9-31.89zm0 0"/></symbol><symbol id="000e7b99B" overflow="visible"><path d="M54.484 2.72c20.594 0 28.453-35.33 28.453-44.19 0-3.718-1.42-5.436-3.86-5.858-3 6.86-6.14 15.016-11.014 21.156h.156c4.718-12.015 6.56-26.015 6.56-31.75 0-10-4.28-15.578-14-15.578-24.31 0-31.03 35.313-33.046 58.063h-.14c1-22.172 5.297-40.47 14.015-51.204-3.72-3.86-9.438-6.86-17.016-6.86C9.437-73.5 1.28-60.78 1.28-32.75 1.28-9.016 9.44 2.72 22.017 2.72 31.75 2.72 35.89-4 37.328-8.58c-1.156-3.86-1.86-7.86-1.86-11.735 0-9.28 1.72-23.875 10.298-38.61h.28c-4.858 10.298-8.858 25.61-8.858 38.048 0 12.72 5.562 23.594 17.296 23.594zm0 0"/></symbol><symbol id="000e7b99C" overflow="visible"><path d="M60.922-26.172c1.28-5.14 1.28-10 1.28-14.156 0-15.297-8.577-26.453-27.89-30.172-2 4.297-5.14 9.875-8.578 14.297h-.14c4-7.72 7.297-15.016 7.297-20.297 0-4.72-3.718-8.016-10.578-8.016C9.86-84.516 2-75.22 2-62.344c0 3.282.438 7 1.578 10.72 0 10.733-5.72 20.593-15.156 28.03C-9.858-17.454-4-13.297.142-13.297c5.155-8.156 11.155-18.015 14.874-24.453 0 0 .421-.28 1.421 2.422 3.016-1.703 6.157-2.422 9.297-2.422 7.297 0 14.313 3.86 18.172 10.72h-.297c-4.14-6.142-9.86-8.86-16.58-8.86-11.733 0-19.014 9.718-19.014 19.296 0 9.735 7.28 19.313 24.734 19.313 31.75 0 41.188-33.173 41.188-44.767 0-2.86-1.297-4.86-3.72-5.28-1.86 4.28-4.015 8.577-6.437 13.436-.577 2.578-1.436 5.296-2.718 7.718zm0 0"/></symbol><symbol id="000e7b99D" overflow="visible"><path d="M30.453 2.72c34.188 0 42.188-29.032 42.188-42.47 0-4.578-1.28-7.578-3.718-7.578-4.14 11-12.297 22.156-26.172 22.156-10.14 0-13.438-5.86-13.438-13.437 0-9.578 5.438-21.874 9.438-28.17h.14c-4 7.155-8.28 18.593-8.28 27.31 0 7 3 12.298 10.86 12.298 10.014 0 23.31-10.297 23.31-26.172 0-13.015-9.436-20.156-23.733-20.156C15.734-73.5-.86-53.906-.86-28.453-.86-8.156 8.438 2.72 30.454 2.72zm0 0"/></symbol><symbol id="000e7b99E" overflow="visible"><path d="M54.484 2.72c20.594 0 28.453-35.032 28.453-44.19 0-3.718-1.42-5.436-3.718-5.858 0 0-6.58 16.016-11.157 21.156h.156c4.718-12.015 6.56-26.015 6.56-31.75 0-10-4.28-15.578-14-15.578-24.31 0-31.03 35.313-33.046 58.063h-.14c1-22.172 5.297-40.47 14.015-51.204l10.156-22.594c-5.14-3.422-10.578-5.58-17.016-5.58-22.594 0-33.47 29.033-33.47 55.205 0 21.876 7.736 42.33 25.032 42.33 6.157 0 10.438-2.58 12.875-5.86-2.578-5.297-3.718-10.157-3.718-16.876 0-9.578 1.718-24.312 10.296-38.906h.28c-4.858 10.297-8.858 25.61-8.858 38.047 0 13.156 6.14 23.594 17.296 23.594zm0 0"/></symbol><symbol id="000e7b99F" overflow="visible"><path d="M71.078-8.297c-1.016-2.72-1.72-7-1.72-11.72 0-9.155 1.72-24.17 10.298-38.905h.28c-4.858 10.297-8.858 25.61-8.858 38.047 0 13.016 5.72 23.594 17.297 23.594 20.594 0 28.453-35.032 28.453-44.19 0-3.718-1.422-5.436-3.72-5.858 0 0-6.577 16.016-11.155 21.156h.156c4.718-12.015 6.578-26.015 6.578-31.75 0-10-4.297-15.578-14.016-15.578-25.313 0-31.328 38.75-33.03 58.063h-.158c0-8.594 2-36.61 14.016-51.204 0 0-4.72-6.86-14.72-6.86-24.31 0-31.03 35.313-33.046 58.063h-.14c1-22.172 5.297-40.188 14.015-51.204-3.72-3.86-9.438-6.86-17.016-6.86C9.437-73.5 1.28-60.78 1.28-32.75 1.28-9.016 9.44 2.72 22.017 2.72c9.734 0 13.593-6.44 15.172-11.017-1.157-4.14-1.72-8-1.72-12.015 0-9.282 1.72-23.875 10.298-38.61h.28C41.19-48.625 37.19-33.47 37.19-20.875c0 12.72 5.562 23.594 18.718 23.594 9.735 0 13.594-6.44 15.172-11.017zm0 0"/></symbol><symbol id="000e7b99G" overflow="visible"><path d="M52.047 2.72c20.594 0 30.03-34.892 30.03-44.19 0-3.577-1.28-5.436-3.718-5.858-3.14 6.86-6.58 15.016-11.72 21.156h.14c0-17.594 2.72-31.594 7.86-41.187-3.718-3.562-10-6.14-16.015-6.14-4.86 0-8.72 1.28-12.156 3.438 4.014 2.42 8.296 7 11.452 11l-.297.296C47.047-69.22 37.75-73.5 29.89-73.5 10.438-73.5-.14-48.187-.14-26.172c0 15.453 5.28 28.89 14.734 28.89 13.719 0 23.593-28.312 31.453-58.343h.14c-2.718 13.297-6 27.734-10.86 39.328C36.892-6.86 41.188 2.72 52.048 2.72zM29.75-28.75c4.14-18.875 8.438-30.172 11.72-31.453-3.142 10.156-7.157 22.875-11.58 31.453zm0 0"/></symbol><symbol overflow="visible"><path d="M35.813 0v-50.14H-.157V0zM30-46.578l-12.094 18.22L5.813-46.58zM32.313-6.75L20.155-25.11l12.157-18.218h-.235V-6.75zm-26.5 3.11l12.093-18.063L30-3.64zM3.482-43.33l12.095 18.22L3.484-6.75h.235v-36.578zm0 0"/></symbol><symbol id="000e7b99H" overflow="visible"><path d="M64.328-15.578c-1.016-4.266-1.47-8.75-1.47-13.25 0-8.22 1.626-16.36 4.642-22.938h-.078c-1.156 3.407-1.938 7.203-2.484 11.313 3.656-2.563 5.968-6.594 5.968-10.234 0-3.797-2.625-6.97-9.297-6.97-4.344 0-7.83 1.548-10.454 4.188-5.812-2.56-12.875-4.03-19.61-4.03-12.483 0-23.874 5.188-23.874 18.516 0 7.906 5.578 15.343 15.578 15.343 6.28 0 12.625-4.422 12.625-9.844-3.406 0-5.813-2.782-5.813-5.97 0-4.25 3.875-9.218 17.297-9.218-2.25 3.875-3.954 8.61-5.36 14.03-5.578 10.767-16.422 21.548-25.188 21.548-3.406 0-7.75-1.78-8.062-5.812-4.953 0-8.125 5.11-8.125 10.53 0 5.97 3.953 12.33 13.172 12.33 9.14 0 15.11-5.032 20-12.017.375-3.328 1.234-6.578 2.234-9.218h-.077c-.687 2.25-1.078 4.718-1.078 6.89 0 3.796 1.39 6.828 3.953 6.828 3.094 0 5.188-3.563 5.656-6.672h-.234C45.875-4.266 49.828 1.47 56.656 1.47c11 0 15.657-15.814 15.657-24.095 0-1.625-.704-2.797-2.172-3.03-1.468 3.718-3.796 7.593-5.812 9.92zM38.28-20.234c1.626-2.86 2.798-5.89 3.486-9.766h-.078c-.297 2.016-.61 4.266-.61 5.89 0 1.33.156 2.563.47 4.11-.392.078-1.017.156-1.564.156-.765 0-1.234-.078-1.703-.39zm0 0"/></symbol><symbol id="000e7b99I" overflow="visible"><path d="M29.53 1.47c11.157 0 15.5-19.142 15.5-23.94 0-2.014-.858-2.952-2.25-3.186-1.624 3.718-3.327 8.14-5.968 11.468h.235c2.562-6.5 3.562-14.093 3.562-17.203 0-5.422-2.407-8.438-7.672-8.438-13.172 0-16.89 19.14-17.985 31.453h.078c.548-12 2.876-21.922 7.595-27.734-2.016-2.093-5.188-3.718-9.297-3.718-8.22 0-12.703 6.89-12.703 22.078C.625-4.875 5.11 1.47 11.938 1.47c5.265 0 7.593-3.642 8.374-6.126-.625-2.094-1.015-4.25-1.015-6.344 0-5.047.937-12.953 5.578-20.938-2.625 5.594-4.797 13.875-4.797 20.625 0 6.89 3.094 12.782 9.453 12.782zm0 0"/></symbol><symbol id="000e7b99J" overflow="visible"><path d="M16.578-31.47c-4.953.548-9.453.86-14.172 1.095-.47 3.172-.937 6.656-.937 11.234 0 10.765 2.796 20.61 13.327 20.61 12.406 0 16.75-20.454 16.75-23.94 0-1.936-.78-2.952-2.172-3.186-2.016 4.578-4.97 11.312-6.984 11.312-1.156 0-1.703-1.78-1.703-4.25 0-4.187.704-8.687 1.938-13.03 7.438 0 9.766-2.704 9.766-6.126 0-1.313-.53-2.625-1.234-3.64l-5.89.312c.625-1.86 1.547-4.188 2.172-5.422-2.485-2.094-5.813-2.938-9.297-2.938-6.203 0-10.78 2.86-13.562 9.83-5.36 0-7.828 2.56-7.828 4.733 0 2.172 1.78 3.25 4.953 3.25h14.735v.234zm0 0"/></symbol><symbol id="000e7b99K" overflow="visible"><path d="M17.125-58.75c-4.875 0-7.594 2.016-7.594 5.89 0 3.485 2.33 9.532 6.75 9.532 4.486 0 9.064-6.11 9.064-10.063 0-3.657-3.953-5.36-8.22-5.36zm7.906 33.094s-3.952 8.765-6.358 11.234c0-9.375 1.484-16.89 4.187-22.078 0 0-3.33-3.328-8.516-3.328-9.766 0-14.5 11.625-14.5 22.39C-.156-7.594 3.797 1.47 11 1.47c9.766 0 15.97-17.97 15.97-24.25 0-2.72-1.94-2.876-1.94-2.876zm0 0"/></symbol><symbol id="000e7b99L" overflow="visible"><path d="M13.953-15.188c1.78-.468 3.953-.546 8.297-.546h3.72c11.624 0 16.264-3.875 16.264-8.829 0-2.17-1-4.343-2.78-6.046-2.798.547-6.673.922-9 1l-11.626.547c-6.265.313-9.22 4.422-9.22 7.907 0 3.015 1.158 5.03 4.345 5.968zm0 0"/></symbol><symbol id="000e7b99M" overflow="visible"><path d="M22.25-25.89c0 7.218-3.734 10.234-8.063 10.234-3.187 0-6.437-1.547-8.92-4.266C2.25-18.437.31-14.422.31-10.234.313-4.5 3.797 1.47 12.095 1.47 21 1.47 27.28-4.03 28.75-12.485c-.688-2.016-1.547-4.797-2.406-6.97 4.03 7.204 6.984 13.407 10.468 20.845h.235c3.875-12.78 8.14-24.562 12.78-35.562h-.077c-2.172 6.422-4.328 12.47-6.188 19.14 0 6.813 4.72 16.5 13.094 16.5 11.078 0 15.657-15.812 15.657-24.093 0-1.625-.704-2.797-2.172-3.03-1.468 3.718-3.796 7.593-5.812 9.843v-.08c0-13.405 2.406-25.264 7.906-35.952-2.875-1.86-7.062-3.187-9.92-3.187-14.267 0-19.845 23.03-23.642 35.81h.078c1.234-6.827 2.72-12.25 4.656-18.374-2.172-6.343-8.453-17.515-16.828-17.515-6.656 0-12.937 7.14-16.734 13.64 4.578 4.97 8.53 9.845 12.406 15.58zm0 0"/></symbol><symbol id="000e7b99N" overflow="visible"><path d="M39.297-36.5c-2.016-1.938-5.5-3.328-9-3.328-11.78 0-13.86 14.406-13.86 27.422l-.78.937h.234c0-8.374.766-19.686 5.266-25.81-1.86-1.47-4.797-2.548-8.062-2.548-9.61 0-13.25 9.828-13.25 21.922C-.156-5.97 3.406 1.47 11.078 1.47c4.5 0 9.453-5.58 12.25-13.876h-.078c-.547 2.562-1.547 6.828-4.578 10.625.547 3.093 1.562 6.89 2.64 10.92h.08c-1.236-2.624-2.564-5.968-3.486-9.92-1.937 2.014-4.422 3.5-7.515 3.5-.39 0-.703 0-1.25-.08-2.015 1.782-2.937 3.797-2.937 5.89 0 5.267 6.36 7.44 15.422 7.44 12.86 0 15.5-4.19 15.5-10.94 0-3.952-2.094-13.014-2.094-22.624 0-6.515.923-13.328 4.267-18.906zm0 0"/></symbol><symbol id="000e7b99O" overflow="visible"><path d="M29.53 1.47c11.157 0 15.5-18.986 15.5-23.94 0-2.014-.858-2.952-2.093-3.186h.08s-3.72 8.687-6.205 11.468h.235c2.562-6.5 3.562-14.093 3.562-17.203 0-5.422-2.407-8.438-7.672-8.438-13.172 0-16.89 19.14-17.985 31.453h.078c.548-12 2.876-21.922 7.673-27.813l5.422-12.17c-2.78-1.86-5.813-3.017-9.297-3.017C6.594-51.375.625-35.655.625-21.47c0 11.86 4.25 22.94 13.64 22.94 3.33 0 5.735-1.392 7.047-3.173-1.39-2.875-2.015-5.5-2.015-9.14 0-5.204.937-13.188 5.578-21.095-2.625 5.594-4.797 13.875-4.797 20.625 0 7.126 3.406 12.782 9.453 12.782zm0 0"/></symbol><symbol id="000e7b99P" overflow="visible"><path/></symbol><symbol id="000e7b99Q" overflow="visible"><path d="M25.266-34.953c1.078-7.125 3.172-13.64 6.047-19.22 0 0-2.485.236-4.032.236-7.593 0-18.06-2.016-25.577-7.063C.937-58.437.625-56.187.625-54.25c0 8.22 5.97 13.406 15.5 14.563v.156h.234s-.938.077-2.172.077c-2.563 0-5.282-.375-7.907-1.313-1.78 5.422-3.483 14.578-3.483 21.47 0 15.655 6.422 20.765 12.547 20.765 3.797 0 7.906-3.173 10.078-6.282-.86-3.094-1.47-6.032-1.625-9.22C20.53-15.5 13.64-18.827 10.47-22.624v.078c4.952 4.11 11.546 6.813 16.89 8.125.765 8.53 3.406 15.89 13.093 15.89 9.922 0 17.672-9.687 17.672-19.062 0-2.015-.78-3.953-2.328-3.953-1.39 2.25-3.64 4.89-6.28 4.89-.767 0-1.94-.312-2.705-1.17-2.874 2.327-6.984 4.186-11.468 4.186h-1.47v-.235C46.97-13.875 55.11-28.905 55.11-41c0-8.594-3.876-15.03-10.782-15.03-8.672 0-15.422 11.78-19.14 21.077zm8.375-3.484c-1.328 7.36-5.968 18.203-9.453 18.203 2.938-6.89 6.266-12.782 9.532-18.203zm0 0"/></symbol><symbol id="000e7b99R" overflow="visible"><path d="M38.594-4.5c-.547-1.47-.922-3.797-.922-6.344 0-4.97.922-13.11 5.578-21.093-2.64 5.593-4.813 13.875-4.813 20.625 0 7.046 3.188 12.78 9.454 12.78 11.172 0 15.5-18.984 15.5-23.937 0-2.014-.843-2.952-2.093-3.186h.078s-3.72 8.687-6.188 11.468h.22c2.562-6.5 3.577-14.093 3.577-17.203 0-5.422-2.406-8.438-7.672-8.438-13.718 0-17.062 21-17.984 31.453h.078c0-4.64 1.078-19.828 7.594-27.734 0 0-2.64-3.718-8.063-3.718-13.17 0-16.89 19.14-17.984 31.453h.078c.548-12 2.876-21.766 7.595-27.734-2.016-2.093-5.188-3.718-9.297-3.718-8.22 0-12.703 6.89-12.703 22.078C.625-4.875 5.11 1.47 11.938 1.47c5.265 0 7.437-3.486 8.296-5.97-.625-2.25-.937-4.328-.937-6.5 0-5.047.937-12.953 5.578-20.938-2.625 5.594-4.797 13.797-4.797 20.625 0 6.89 3.094 12.782 10.22 12.782 5.28 0 7.452-3.486 8.296-5.97zm0 0"/></symbol><symbol id="000e7b99S" overflow="visible"><path d="M46.656-15.344c0-13.562-12.172-23.25-25.656-32.78 7.906 4.718 14.422 8.75 21.47 16.5 4.577-2.47 8.296-6.657 8.296-10.923 0-8.828-10-13.484-20.235-13.484-10.686 0-21.78 5.108-21.78 15.655 0 12.938 13.797 24.72 25.656 35.188v.078c-7.203-4.812-16.03-12.484-21.922-20.86-6.906 0-11.86 5.814-11.86 12.095C.625-4.812 9.455 1.47 24.25 1.47c14.422 0 22.406-5.5 22.406-16.814zm0 0"/></symbol><symbol id="000e7b99T" overflow="visible"><path d="M16.578 1.47C21 1.47 25.266.077 27.75-2.72c10.766-.608 14.328-11.233 14.328-19.75 0-2.014-.922-2.952-2.39-3.264-1.563 7.14-5.97 11.937-9.313 11.937-2.172 0-3.72-1.937-3.72-6.515l-.077.078c0 3.265 1.547 5.515 3.953 5.515 3.642 0 5.97-5.81 5.97-11.78 0-6.516-2.703-13.328-8.828-13.328-3.03 0-6.36 1.937-8.22 5.578.548-1.86 1.314-3.266 2.33-4.266-1.33-.547-2.485-.703-3.876-.703C8.75-39.22-.547-29.062-.547-15.42c0 11 5.125 16.89 17.125 16.89zm-.14-29.986c-.938 2.782-1.33 5.578-1.33 8.14 0 3.017.626 5.876 1.626 8.44l-.078-.002c-1.703-2.25-2.39-4.874-2.39-7.67 0-3.017.843-6.204 2.171-8.83zm0 0"/></symbol><symbol id="000e7b99U" overflow="visible"><path d="M16.5 1.47c18.53 0 22.953-15.736 22.953-23.017 0-2.484-.78-4.11-2.172-4.11-2.25 5.97-6.593 12.016-14.108 12.016-5.5 0-7.203-3.172-7.203-7.282 0-5.203 2.936-11.86 5.108-15.265H21c-2.172 3.874-4.5 10.062-4.5 14.796 0 3.796 1.72 6.67 5.97 6.67 5.436 0 12.718-5.592 12.718-14.186 0-7.047-5.188-10.922-12.938-10.922-13.72 0-22.797 10.61-22.797 24.406 0 11 5.125 16.89 17.047 16.89zm0 0"/></symbol><symbol id="000e7b99V" overflow="visible"><path d="M14.266 1.47c2.937 0 6.187-2.782 8.046-4.954 1.33 2.86 4.266 4.953 7.907 4.953 9.92 0 16.202-16.892 16.202-24.25 0-1.626-.86-2.72-2.172-2.876-2.172 5.125-5.578 12.484-7.75 12.484-1.156 0-2.563-2.015-3.563-3.484C29.688-12.563 26.5-9.61 26.5-9.61l-.156-.156c7.828-9.453 11.703-17.437 11.703-22.86 0-5.343-3.953-7.202-9.375-7.202-.766 0-1.47 0-2.547.22-3.734 9.92-9.47 23.717-13.64 34.108l15.64-42.86c-2.78-1.86-5.813-3.015-9.297-3.015C6.594-51.375.625-35.655.625-21.47c0 11.86 4.25 22.94 13.64 22.94zm0 0"/></symbol><symbol id="000e7b99W" overflow="visible"><path d="M39.453-21.547c0-2.484-.78-4.11-2.172-4.11-3.186 8.688-8.764 12.33-15.655 12.33-4.813 0-10.156-2.017-14.11-5.58v.08c3.876 3.015 8.766 4.405 12.86 4.405 7.828 0 14.813-5.89 14.813-14.484 0-7.047-5.188-10.922-12.938-10.922-13.72 0-22.797 10.61-22.797 24.484C-.547-4.422 4.578 1.47 16.5 1.47c18.61 0 22.953-15.658 22.953-23.017zM21-36.187c-2.406 4.874-3.328 10.374-3.953 17.437h.234s-.624 0-1.077-.156c.688-6.594 2.016-12.953 4.875-17.282zm0 0"/></symbol><symbol id="000e7b99X" overflow="visible"><path d="M11.703-26.734l-4.11 9.53c-1.155 2.642-1.78 5.267-1.78 7.673 0 7.28 5.812 11 11.468 11 11.392 0 17.204-17.97 17.204-24.25 0-1.548-.765-2.642-2.172-2.876-2.17 4.656-3.17 7.28-6.343 11.468h.077c2.937-5.5 4.328-11.156 4.328-16.11 0-6.124-3.25-9.53-7.828-9.53-1.78 0-3.953.53-6.047 1.703-1.234 2.938-2.703 4.875-4.25 7.203h.078c2.094-3.72 3.563-8.453 4.406-13.015-1.078-1.094-3.093-1.938-5.5-1.938C4.734-45.875 1-40.062 1-33.562c0 1.86.313 3.718.86 5.578 0 5.812-3.094 11.172-8.22 15.203.626 2.936 4.188 5.577 6.516 5.577C4.422-13.797 8.61-21 11.703-26.733zm0 0"/></symbol><symbol overflow="visible"><path d="M100.953 0v-141.688H0V0zM85.187-131.625L50.594-79.937l-34.39-51.688zM91.11-19.047L56.72-70.953l34.39-51.47zm-74.907 8.75l34.39-51.47 34.594 51.47zm-5.906-112.125l34.156 51.47-34.156 51.905zm0 0"/></symbol><symbol id="000e7b99Y" overflow="visible"><path d="M114.75-147.172c0 8.328-4.156 23-11.594 31.766h-.437c0-11.39 5.03-25.625 11.593-31.766zM81.906.438C64.172-15.11 43.36-26.72 23-32.626l.438-.875C72.483-23.22 124.39 26.28 150.89 72.703c19.923 0 35.923-15.328 35.923-42.484 0-31.314-51.907-64.61-83.22-72.486 0 0 .657-10.078.657-18.39 28.25-8.547 45.766-28.485 45.766-54.75 0-23.656-14.89-45.78-47.532-45.78-37.437 0-51.89 26.28-56.062 47.092 5.703 3.72 17.75 7.22 29.797 7.875v.44c-1.11 0-2.423.218-3.736.218-13.578 0-30.218-4.376-41.17-12.485-11.61 4.39-16.86 14.89-16.86 27.156 0 20.156 12.92 28.906 28.468 30.453 11.39 1.093 24.312 3.718 32.422 8.75v.437c-9.203-3.72-19.72-6.344-32.422-6.344-24.75 0-40.734 11.172-40.734 33.063 0 19.06 23.656 36.577 48.187 36.577 13.36 0 24.078-5.03 31.53-11.61zm0 0"/></symbol><symbol id="000e7b99Z" overflow="visible"><path d="M48.406-166c-13.797 0-21.03 5.688-21.03 16.64 0 9.86 6.124 26.938 18.608 26.938 12.703 0 25.407-17.297 25.407-28.47C71.39-161.187 60.438-166 48.407-166zm22.11 93.516S60-47.734 52.562-40.078c0-27.156 4.157-48.39 11.83-63.078 0 0-9.204-9.406-23.876-9.406C12.922-112.563 0-79.72 0-49.282 0-21.468 10.734 4.157 31.094 4.157 58.687 4.156 76-46.64 76-64.39c0-7.657-5.484-8.094-5.484-8.094zm0 0"/></symbol><symbol id="000e7b99aa" overflow="visible"><path d="M108.844-12.703c-1.53-4.156-2.625-10.735-2.625-17.953 0-14.016 2.624-37.016 15.764-59.797l.657.22c-7.453 15.78-13.578 39.202-13.578 58.264 0 19.923 8.547 36.126 26.282 36.126 31.53 0 43.578-53.656 43.578-67.672 0-5.687-2.188-8.312-5.688-8.968 0 0-9.86 24.515-16.875 32.406 7.234-18.39 10.077-39.86 10.077-48.61 0-15.343-6.562-23.874-21.453-23.874-38.765 0-47.75 59.343-50.375 88.906h-.438c0-13.14 3.062-56.063 21.453-78.39 0 0-7.22-10.516-22.547-10.516-37.234 0-47.312 54.093-50.375 88.906h-.437c1.53-33.938 8.11-61.532 21.468-78.39-5.703-5.923-14.453-10.516-26.062-10.516-23.22 0-35.484 19.484-35.484 62.406 0 36.36 12.265 54.312 31.53 54.312 14.907 0 20.813-9.843 23.22-16.86-1.75-6.343-2.626-12.265-2.626-18.39 0-14.234 2.626-36.578 15.766-59.36l.656.22C63.297-74.454 57.156-51.25 57.156-31.97c0 19.486 8.328 36.126 28.47 36.126 14.89 0 20.81-9.843 23.218-16.86zm0 0"/></symbol><symbol id="000e7b99ab" overflow="visible"><path d="M46.86 4.156C59.343 4.156 71.17.22 78.187-7.672c30.656-1.75 40.515-31.75 40.515-55.844 0-5.687-2.422-8.312-6.14-9.187-4.376 20.14-17.297 33.72-26.72 33.72-6.124 0-10.734-5.47-10.734-18.392l.453-.438c0 9.844 3.937 16.204 10.718 16.204 10.298 0 16.657-16.42 16.657-33.28 0-18.407-7.453-37.672-24.75-37.672-8.546 0-17.53 5.468-23 15.765l-.437-.22c1.53-5.03 3.72-8.983 6.78-12.046-3.718-1.312-7-1.75-10.936-1.75-25.844 0-51.688 28.688-51.688 67.235 0 31.094 14.016 47.734 47.953 47.734zm0-84.75c-2.626 7.89-3.72 15.766-3.72 23 0 8.532 1.75 16.64 4.594 23.657l-.656.437c-5.03-6.578-7-14.016-7-21.906 0-8.547 2.406-17.516 6.344-25.625zm0 0"/></symbol><symbol id="000e7b99ac" overflow="visible"><path d="M83.438 4.156c31.53 0 43.578-54.093 43.578-67.672 0-5.687-2.188-8.312-5.688-8.968-4.594 10.5-9.422 22.984-16.86 32.406 7.22-18.39 10.063-39.86 10.063-48.61 0-15.343-6.56-23.874-21.452-23.874-37.234 0-47.312 54.093-50.375 88.906h-.437c1.53-33.938 8.11-61.97 21.468-78.39-5.703-5.923-14.453-10.516-26.062-10.516-23.22 0-35.484 19.484-35.484 62.406 0 36.36 12.265 54.312 31.53 54.312 14.907 0 21.25-10.28 23.438-17.297-1.75-5.907-2.843-12.047-2.843-17.954 0-14.234 2.624-36.578 15.765-59.36l.656.22C63.297-74.454 57.156-51.03 57.156-31.97c0 19.486 8.328 36.126 26.282 36.126zm0 0"/></symbol><symbol id="000e7b99ad" overflow="visible"><path d="M79.72 4.156c31.53 0 45.983-53.437 45.983-67.672 0-5.468-1.97-8.312-5.47-8.968-4.827 10.5-10.077 22.984-17.967 32.406 0-26.938 4.17-48.39 12.046-63.078-5.687-5.47-15.328-9.406-24.515-9.406-7.453 0-13.14 1.968-18.406 5.25 6.14 3.718 12.704 10.734 17.516 16.86l-.437.436C72.046-106 57.812-112.562 45.765-112.562 15.984-112.563 0-73.797 0-40.08 0-16.422 7.89 4.156 22.344 4.156c21.015 0 36.125-43.36 48.172-89.344h.437c-4.156 20.36-9.187 42.485-16.64 60.22C56.718-10.517 63.078 4.155 79.72 4.155zM45.546-44.016c6.36-28.906 12.922-46.218 18.187-48.406-4.828 15.766-10.953 35.266-17.75 48.406zm0 0"/></symbol><symbol id="000e7b99ae" overflow="visible"><path d="M54.313-24.97C58.906-7.89 67.016 4.157 81.906 4.157c26.5 0 43.797-50.578 43.797-67.234 0-7-3.062-9.406-5.47-9.406-3.717 9.406-11.17 24.515-17.967 32.406-.438-4.375-.657-9.203-.657-14.016 0-27.156 7.015-60 17.312-82.78 0 0-10.734-8.33-24.53-8.33-17.517 0-30.658 12.704-37.673 31.548 11.608 3.72 22.343 12.922 29.78 20.797l-.438.438c-11.61-10.734-25.843-20.14-40.515-20.14C16.203-112.563 0-73.797 0-40.08 0-16.422 7.672 4.156 22.563 4.156c20.14 0 35.906-43.36 47.953-89.344h.437c-4.156 20.36-8.094 39.86-16.64 60.22zm-8.766-19.046c6.36-28.906 12.922-46.218 18.187-48.406-4.828 15.766-10.953 35.266-17.75 48.406zm0 0"/></symbol><symbol id="000e7b99af" overflow="visible"><path/></symbol><symbol overflow="visible"><path d="M147.516 0v-207.047H0V0zm-23.032-192.313l-50.562 75.516-50.234-75.516zm8.64 164.47l-50.25-75.844 50.25-75.188zM23.69-15.048l50.234-75.187 50.562 75.187zm-8.64-163.828l49.905 75.188-49.906 75.843zm0 0"/></symbol><symbol id="000e7b99ag" overflow="visible"><path d="M24.953-166.406c0 36.484 25.61 62.72 52.813 62.72 10.234 0 20.796-3.517 30.078-11.83C98.234-119.36 96-123.844 96-132.796c0-11.204 7.047-21.438 23.36-21.438 14.718 0 32 9.922 48.64 29.11-20.156 48.64-57.28 70.718-94.078 70.718-18.234 0-41.922-9.282-43.516-30.39-25.922 0-42.25 26.874-42.25 56 0 31.67 20.485 65.92 69.766 65.92 67.203 0 114.875-70.405 131.844-130.56 15.03 25.592 28.468 58.874 38.39 99.514v-.312c15.36-58.563 37.125-105.922 60.156-146.89h.64c-12.468 29.436-20.468 49.608-28.155 70.718 0 36.172 21.437 76.484 56 76.484 45.765 0 64.328-65.28 64.328-99.516 0-6.718-2.563-11.515-8-12.484-6.078 15.36-15.688 31.36-24.97 41.61v-1.282c0-55.36 9.923-104.328 32.642-148.484-11.844-7.688-28.797-13.125-40.64-13.125-56.313 0-89.923 99.516-106.563 154.562l-.313-.954 7.36-39.687c-29.765-94.407-70.077-129.923-133.437-129.923-55.36 0-82.25 39.687-82.25 76.797zm0 0"/></symbol><symbol id="000e7b99ah" overflow="visible"><path d="M116.484 6.078c46.08 0 67.204-78.078 67.204-98.875 0-8-2.89-12.156-8-13.125-7.047 15.36-14.735 33.61-26.25 47.36 0-39.36 6.078-70.72 17.61-92.157-8.33-8-22.407-13.764-35.845-13.764-10.89 0-19.203 2.89-26.89 7.687 8.968 5.438 18.562 15.672 25.61 24.64l-.642.64c-24-23.358-44.796-32.967-62.405-32.967C23.36-164.484 0-107.844 0-58.562 0-24 11.516 6.078 32.64 6.078c30.72 0 52.797-63.36 70.407-130.562h.64c-6.093 29.765-13.453 62.078-24.328 88C82.874-15.36 92.155 6.078 116.483 6.078zm-49.92-70.39c9.28-42.25 18.874-67.532 26.56-70.735-7.046 23.047-16 51.53-25.92 70.734zm0 0"/></symbol><symbol id="000e7b99ai" overflow="visible"><path d="M48.953-110.406L32-71.046c-4.797 10.89-7.36 21.765-7.36 31.687C24.64-9.28 48 6.08 71.36 6.08c47.046 0 70.718-74.234 70.718-100.156 0-6.406-2.875-10.875-8-11.844-8.953 19.203-13.125 30.078-26.234 47.36h-.64c12.155-22.72 17.92-46.08 17.92-66.563 0-25.28-13.124-39.36-32-39.36-7.358 0-15.686 2.25-24.327 6.72-5.11 12.484-11.203 20.484-17.594 30.077h-.64c8.64-15.36 14.718-34.874 18.234-54.078-4.484-4.156-12.484-7.672-22.39-7.672-26.89 0-41.61 24-41.61 50.875 0 7.688 1.28 15.36 3.516 23.047 0 24-12.797 46.08-33.907 62.39 2.547 12.485 16.64 23.36 25.907 23.36C17.922-56.953 35.203-86.72 48-110.72zm0 0"/></symbol><symbol id="000e7b99aj" overflow="visible"><path d="M103.047-105.922s-15.36 36.156-26.25 47.36c0-39.672 6.078-70.72 17.28-92.157 0 0-13.436-13.764-34.874-13.764C18.875-164.484 0-116.484 0-72 0-31.36 15.688 6.078 45.438 6.078c40.328 0 65.61-74.234 65.61-100.156 0-11.203-8-11.844-8-11.844zm-43.844-67.844c29.438 0 55.36-26.547 55.36-48.953 0-13.764-9.922-25.92-34.563-29.436 0 0-19.844 39.36-44.484 54.39 0 14.407 10.89 24 23.687 24zm0 0"/></symbol><symbol overflow="visible"><path d="M128.625 0v-180.516H0V0zM108.53-167.672l-44.077 65.844-43.812-65.844zm7.532 143.406L72.267-90.39l43.796-65.58zM20.642-13.11L64.45-78.67l44.08 65.563zm-7.533-142.86l43.53 65.58-43.53 66.124zm0 0"/></symbol><symbol id="000e7b99ak" overflow="visible"><path d="M110.766-128.89s-3.08-5.86-3.08-14.516c0-18.97 5.314-45.485 11.455-45.485 1.672 0 1.954 2.796 1.954 5.593 0 11.438-5.03 35.422-10.328 54.406zm151.5 153.156c-49.672 0-123.875-44.907-156.25-67.516l.562-.547s30.688 18.125 47.984 25.656c21.485-21.485 38.5-64.72 38.5-103.782 0-38.5-19.25-84.266-75.328-84.266-55.796 0-80.343 41.58-80.343 77.297 0 33.468 20.922 65.843 56.626 65.843 25.67 0 44.375-16.75 52.453-36.28l.843.56c-9.204 23.158-29.297 39.626-53.016 39.626l-3.063 8.36C75.89-63.61 58.03-70.03 42.406-70.03c-22.047 0-39.61 12.56-39.61 36.827 0 27.625 30.407 48.266 61.376 48.266 6.97 0 14.78-1.39 22.875-4.735-11.438-15.344-23.72-27.062-37.39-39.062l.562-.563C96.812 1.953 150.374 92.625 235.47 92.625c45.202 0 89.014-29.297 89.014-80.063 0-4.468-1.687-7.265-4.75-8.093-17.015 13.67-37.11 19.796-57.468 19.796zm0 0"/></symbol><symbol id="000e7b99al" overflow="visible"><path d="M39.89 5.297c16.188 0 33.766-20.078 43.813-49.938h.563c-1.954 9.203-6.422 24.28-12.844 34.312 5.86 12 17.016 15.625 26.5 15.625 39.625 0 57.766-69.188 57.766-86.203 0-6.985-2.516-10.61-6.985-11.438-6.14 13.39-12.828 29.297-22.875 41.28 0-34.31 5.578-62.483 15.344-80.342-7.25-6.985-19.53-12-32.078-12-42.406 0-49.39 51.89-49.39 98.484l-2.782 3.625c0-30.125 2.78-70.86 18.97-92.906-6.704-5.297-17.017-9.203-28.736-9.203C12.563-143.406 0-107.97 0-64.453c0 42.97 12.28 69.75 39.89 69.75zm0 0"/></symbol><symbol id="000e7b99am" overflow="visible"><path d="M61.656-211.484c-17.578 0-26.78 7.25-26.78 21.203 0 12.56 7.812 34.31 23.718 34.31 16.172 0 32.36-22.03 32.36-36.264 0-13.11-13.954-19.25-29.298-19.25zm28.188 119.14s-13.39 31.516-22.89 41.28c0-34.592 5.312-61.655 15.077-80.342 0 0-11.718-12-30.42-12C16.47-143.406 0-101.562 0-62.78 0-27.345 13.672 5.296 39.625 5.296c35.14 0 57.188-64.72 57.188-87.328 0-9.767-6.97-10.314-6.97-10.314zm0 0"/></symbol><symbol id="000e7b99an" overflow="visible"><path d="M169.36-92.344c-4.75 11.985-14.235 31.25-22.89 41.28-.548-5.295-.83-11.155-.83-17.295 0-12.546 1.11-26.218 2.782-36.828 15.078-23.156 24-46.312 24-59.703 0-20.64-14.234-29.58-33.766-29.58-39.047 0-58.86 63.064-58.86 118.58 0 3.343 0 6.703.282 9.765-3.36 5.86-6.984 11.156-10.328 15.063-.563-5.58-.844-11.72-.844-17.844 0-34.61 8.938-76.453 22.047-105.47-10.875-5.577-22.047-10.608-35.72-10.608-37.374 0-52.436 60-52.436 112.437 0 41.297 11.437 77.844 41 77.844 17.03 0 31.25-16.453 41.016-35.703 5.86 22.593 17.015 35.703 34.328 35.703 35.985 0 57.188-64.438 57.188-85.656 0-8.92-3.906-11.984-6.97-11.984zm0 0"/></symbol><symbol id="000e7b99ao" overflow="visible"><path d="M101.563 5.297c40.17 0 58.578-68.078 58.578-86.203 0-6.985-2.5-10.61-6.968-11.438-6.14 13.39-12.828 29.297-22.875 41.28 0-34.31 5.297-61.655 15.344-80.342-7.25-6.985-19.53-12-31.25-12-9.484 0-16.734 2.515-23.437 6.703 7.813 4.734 16.188 13.672 22.328 21.47l-.56.56c-20.923-20.358-39.064-28.733-54.407-28.733C20.358-143.406 0-94.016 0-51.062c0 30.14 10.047 56.36 28.453 56.36 26.78 0 46.047-55.236 61.39-113.83h.548c-5.296 25.954-11.718 54.126-21.203 76.72 3.08 18.42 11.172 37.11 32.376 37.11zM58.03-56.078c8.095-36.828 16.47-58.875 23.157-61.656-6.14 20.078-13.953 44.92-22.593 61.656zm0 0"/></symbol></defs><g><path d="M20 356.152h960M20 523.09h960M20 916.543h960M20 1129.066h960M20 1531.41h960M20 1676.72h960" fill="none" stroke="rgb(86.665344%,86.665344%,86.665344%)"/><use x="28.271" xlink:href="#000e7b99a" y="469.557"/><use x="72.141" xlink:href="#000e7b99b" y="469.557"/><use x="142.654" xlink:href="#000e7b99c" y="469.557"/><use x="171.758" xlink:href="#000e7b99d" y="469.557"/><use x="231.357" xlink:href="#000e7b99e" y="469.557"/><use x="291.17" xlink:href="#000e7b99f" y="469.557"/><use x="312.57" xlink:href="#000e7b99g" y="469.557"/><use x="341.139" xlink:href="#000e7b99e" y="469.557"/><use x="400.941" xlink:href="#000e7b99f" y="469.557"/><use x="422.341" xlink:href="#000e7b99h" y="469.557"/><use x="495.101" xlink:href="#000e7b99i" y="469.557"/><use x="544.642" xlink:href="#000e7b99d" y="469.557"/><use x="604.241" xlink:href="#000e7b99j" y="469.557"/><use x="656.35" xlink:href="#000e7b99g" y="469.557"/><use x="684.919" xlink:href="#000e7b99k" y="469.557"/><use x="736.6" xlink:href="#000e7b99l" y="469.557"/><use x="786.141" xlink:href="#000e7b99c" y="469.557"/><use x="815.245" xlink:href="#000e7b99m" y="469.557"/><use x="867.354" xlink:href="#000e7b99n" y="469.557"/><use x="924.064" xlink:href="#000e7b99o" y="469.557"/><use x="30.355" xlink:href="#000e7b99p" y="261.786"/><use x="201.279" xlink:href="#000e7b99q" y="261.786"/><use x="267.228" xlink:href="#000e7b99r" y="261.786"/><use x="391.716" xlink:href="#000e7b99s" y="261.786"/><use x="510.523" xlink:href="#000e7b99t" y="261.786"/><use x="588.822" xlink:href="#000e7b99u" y="261.786"/><use x="656.006" xlink:href="#000e7b99v" y="261.786"/><use x="845.455" xlink:href="#000e7b99w" y="261.786"/><use x="30.967" xlink:href="#000e7b99x" y="1063.059"/><use x="153.518" xlink:href="#000e7b99y" y="1063.059"/><use x="222.587" xlink:href="#000e7b99z" y="1063.059"/><use x="292.943" xlink:href="#000e7b99A" y="1063.059"/><use x="359.152" xlink:href="#000e7b99B" y="1063.059"/><use x="433.798" xlink:href="#000e7b99C" y="1063.059"/><use x="499.864" xlink:href="#000e7b99D" y="1063.059"/><use x="566.073" xlink:href="#000e7b99E" y="1063.059"/><use x="641.863" xlink:href="#000e7b99F" y="1063.059"/><use x="751.544" xlink:href="#000e7b99G" y="1063.059"/><use x="823.602" xlink:href="#000e7b99y" y="1063.059"/><use x="894.244" xlink:href="#000e7b99C" y="1063.059"/><use x="31.19" xlink:href="#000e7b99H" y="1628.44"/><use x="97.607" xlink:href="#000e7b99I" y="1628.44"/><use x="138.295" xlink:href="#000e7b99J" y="1628.44"/><use x="162.862" xlink:href="#000e7b99K" y="1628.44"/><use x="183.942" xlink:href="#000e7b99L" y="1628.44"/><use x="229.59" xlink:href="#000e7b99M" y="1628.44"/><use x="296.395" xlink:href="#000e7b99N" y="1628.44"/><use x="333.672" xlink:href="#000e7b99J" y="1628.44"/><use x="358.24" xlink:href="#000e7b99O" y="1628.44"/><use x="402.415" xlink:href="#000e7b99P" y="1628.44"/><use x="417.915" xlink:href="#000e7b99Q" y="1628.44"/><use x="471.7" xlink:href="#000e7b99O" y="1628.44"/><use x="512.775" xlink:href="#000e7b99N" y="1628.44"/><use x="550.052" xlink:href="#000e7b99J" y="1628.44"/><use x="574.62" xlink:href="#000e7b99O" y="1628.44"/><use x="615.695" xlink:href="#000e7b99R" y="1628.44"/><use x="678.237" xlink:href="#000e7b99P" y="1628.44"/><use x="693.737" xlink:href="#000e7b99S" y="1628.44"/><use x="740.935" xlink:href="#000e7b99O" y="1628.44"/><use x="782.01" xlink:href="#000e7b99T" y="1628.44"/><use x="819.752" xlink:href="#000e7b99U" y="1628.44"/><use x="855.635" xlink:href="#000e7b99V" y="1628.44"/><use x="893.455" xlink:href="#000e7b99W" y="1628.44"/><use x="928.252" xlink:href="#000e7b99X" y="1628.44"/><use x="29.189" xlink:href="#000e7b99Y" y="1890.455"/><use x="172.196" xlink:href="#000e7b99Z" y="1890.455"/><use x="231.764" xlink:href="#000e7b99aa" y="1890.455"/><use x="399.737" xlink:href="#000e7b99ab" y="1890.455"/><use x="506.39" xlink:href="#000e7b99ac" y="1890.455"/><use x="622.46" xlink:href="#000e7b99ad" y="1890.455"/><use x="731.741" xlink:href="#000e7b99ae" y="1890.455"/><use x="839.927" xlink:href="#000e7b99ad" y="1890.455"/><use x="962.348" xlink:href="#000e7b99af" y="1890.455"/><use x="40.891" xlink:href="#000e7b99ag" y="1438.902"/><use x="399.611" xlink:href="#000e7b99ah" y="1438.902"/><use x="563.77" xlink:href="#000e7b99ai" y="1438.902"/><use x="693.051" xlink:href="#000e7b99aj" y="1438.902"/><use x="780.091" xlink:href="#000e7b99ah" y="1438.902"/><use x="26.081" xlink:href="#000e7b99ak" y="794.762"/><use x="218.312" xlink:href="#000e7b99al" y="794.762"/><use x="354.464" xlink:href="#000e7b99am" y="794.762"/><use x="433.115" xlink:href="#000e7b99an" y="794.762"/><use x="587.122" xlink:href="#000e7b99ao" y="794.762"/><use x="727.739" xlink:href="#000e7b99am" y="794.762"/><use x="803.626" xlink:href="#000e7b99ao" y="794.762"/></g></svg>