<?xml version='1.0' encoding='UTF-8'?>
<svg xmlns="http://www.w3.org/2000/svg" xmlns:xlink="http://www.w3.org/1999/xlink" width="600px" height="300px" viewBox="0 0 600 300" x="0px" y="0px" enable-background="new 0 0 600 300"><defs><symbol overflow="visible" id="d32f8ad9a"><path d="M1.2-55.77v.72c0 2.33 1.03 5.13 3.67 5.13 2.08 0 3.36-.24 5.93-.24-.32 5.36-.49 14.32-.49 20.47v7.2c0 5.7-.23 11.36-.23 18.8C10.08-2 12.23-.4 13.77-.4h.87c2.64 0 6-2.95 6-5.1 0-6.08-.16-10.97-.16-19.85v-6.95c0-6.1 0-11.92.24-16.81 1.76.24 3.76.48 5.6.48 3.37 0 6.16-2.88 6.16-4.8v-.64c0-2.15-2.4-3.69-5.35-4-5.61-.56-18.72-1.44-22.65-1.44-1.76 0-3.28.72-3.28 3.75zm0 0"/></symbol><symbol overflow="visible" id="d32f8ad9b"><path d="M3.05-27.84C3.05-9.36 8.4 1.2 20.08 1.2c11.51 0 16.97-12.72 16.97-31.51 0-17.69-5.46-28.82-17.85-28.82C8-59.13 3.05-45.52 3.05-27.84zm10.39 2.25c0-15.54 1.76-24.1 6.64-24.1 4 0 6.64 3.85 6.64 15.2 0 16.97-1.77 26-7.36 26-3.44 0-5.92-4.15-5.92-17.1zm0 0"/></symbol><symbol overflow="visible" id="d32f8ad9c"><path d="M11.6-3.44c0 1.75 1.68 4 3.12 4h.72c2.64 0 6.56-1.92 6.72-3.84.4-6.08.56-12.72.56-21.6v-5.92c0-6.4-.24-13.2-.56-18.56 1.84-.16 3.76-.48 6-.48 2.25 0 6.25-2.57 6.25-4.96v-.72c0-1.35-2.33-3.76-5.36-3.76-5.61 0-20.4.23-24.33.64-1.92.33-3.52 1.6-3.52 3.28v.8c0 2.33 1.68 5.51 4.32 5.51 2.07 0 3.76-.39 6.56-.39.15 4.96.48 12.88.48 18.8v4.4c0 9.93-.97 16.55-.97 22.8zm0 0"/></symbol><symbol overflow="visible" id="d32f8ad9d"><path d="M26.31-54.88c-.31-1.68-1.18-3.6-3.36-3.6-2 0-5.03.25-5.82 2.48-2 5.6-6.65 20.88-8.18 25.77C7.44-25.36.23-6.16.23-4.16c0 1.68 2.33 5.85 4.25 5.85h.64c1.52 0 3.75-1.77 4.16-2.74.31-.72 1.36-4.47 2.72-9.18h2.16c3.92 0 10.89-1.54 13.76-1.61 1.03 4.8 2 9.04 2.64 11.36C30.88.64 31.6.87 33.13.87c1.51 0 6.95-1.75 6.95-3.75s-1.03-6.8-4.24-18.4c-2.48-9.03-7.36-24.88-9.53-33.6zm-5.6 15.36l.24.08c1.28 5.52 3.2 12.64 4.97 19.36-2.4.49-5.6.88-10.08.88h-1.2c2.16-7.28 4.56-15.2 6.08-20.32zm0 0"/></symbol><symbol overflow="visible" id="d32f8ad9e"><path d="M4.08-4.4C4.08-1.45 5.77.47 7.84.47c2.8 0 4.4-.17 6-.17 2.72 0 6.57.25 11.04.25 2.64 0 6.48-3.2 6.48-5.92v-.72c0-1.44-3.13-2.87-5.05-2.97-3.9-.15-7.9.57-12 .57.1-4.64.25-15.44.25-22.24v-3.36c0-8.64.64-16.33.64-21.84 0-1.92-1.36-3.6-3.2-3.6h-.8c-2.48 0-5.76 1.93-5.92 4a371.8 371.8 0 00-.87 24.16v9.13c0 5.67-.33 10.39-.33 17.82zm0 0"/></symbol><symbol overflow="visible" id="d32f8ad9f"><path d="M3.2-48.64c0 3.69 2 6.08 4.4 6.08 3.68 0 5.92-3.6 5.92-6.49 0-2.64-1.75-4.64-3.68-4.64-2.96 0-6.64 2.4-6.64 5.05zm-.48 36.08c0 3.69 2.87 6.08 5.28 6.08 3.69 0 5.69-3.6 5.69-6.47 0-3.61-3.38-5.05-5.77-5.05-2.97 0-5.2 2.8-5.2 5.44zm0 0"/></symbol><symbol overflow="visible" id="d32f8ad9g"><path d="M4.31-42.72c0 5.67 1.92 10.4 6.74 13.84-4.9 3.11-8.1 7.93-8.1 14.88C2.95-4.23 10.41.95 19.77.95c8.39 0 14.64-7.51 14.64-20 0-5.26-3.2-9.1-8.57-12.39 5.29-3.92 7.75-8.48 7.75-13.51 0-8.97-6.72-14.57-15.36-14.57-8.15 0-13.92 7.6-13.92 16.8zm9.61.24c0-5.11 2.4-7.93 4.8-7.93 2.64 0 5.2 1.77 5.2 6.33 0 3.92-1.92 7.2-4.48 9.2-4.57-2.4-5.52-3.92-5.52-7.6zm-1.2 27.68c0-2.56.23-7.51 4.4-10.72 5.93 3.11 7.93 5.36 7.93 8.4 0 5.6-3.13 8.71-5.85 8.71-3.2 0-6.48-2-6.48-6.39zm0 0"/></symbol><symbol overflow="visible" id="d32f8ad9h"><path d="M30.48-56.08c0-1.84-1.53-3.76-6.56-3.76-1.44 0-4.08.15-6.8.15-2.96 0-4.71-.23-5.76-.23-2.48 0-4.72 2.8-5.2 5.84-.4 2.31-.72 9.52-.72 13.36 0 3.28-.24 6.8-.24 8.49 0 3.59 1.28 5.43 4 5.43 1.68 0 2.49-.4 4.64-1.04.57-.16 2.16-.72 3.2-.72 2.65 0 4 2.48 4 7.2 0 11.67-2.16 13.44-5.04 13.44-2.23 0-6.16-4.08-8.64-4.08-1.92 0-4.4 3.05-4.4 5.44 0 .72.17 1.36.73 1.92 3.19 3.05 8.8 5.76 15.03 5.76 5.6 0 12.8-6.25 12.8-21.6 0-13.93-6.88-16.72-11.68-16.72-2.15 0-3.92.89-4.89.97-.15-1.36-.15-2.49-.15-4.18 0-3.67.25-8.64.8-9.9 1.2-.4 1.76-.56 3.6-.56 1.52 0 2.96.46 6.16.46s5.12-2.3 5.12-5.67zm0 0"/></symbol><symbol overflow="visible" id="d32f8ad9i"><path d="M12.72-3.05c0 1.61 2.23 3.53 4.15 3.53h.82c1.51 0 5.6-3.35 5.6-4.96 0-6.08-.24-11.68-.24-20.57v-9.67c0-8.64.64-15.51.64-21.05 0-1.92-1.77-3.75-3.61-3.75h-.88c-2.72 0-5.6 2.24-7.36 4.47a108.56 108.56 0 01-8.07 6.1c-1.61 1.03-2.49 2.54-2.49 3.6v.94c0 1.2 2 4.57 3.2 4.57h.96c.64 0 2.72-.8 4.15-1.93 1.05-.8 2.41-2 3.29-2.71l.24.07c-.17 4.1-.24 8.72-.24 12.41v9.92c0 5.67-.16 11.6-.16 19.03zm0 0"/></symbol><symbol overflow="visible" id="d32f8ad9j"><path d="M24.4-50c2.32 0 3.37 1.92 4.65 1.92 1.75 0 6.15-2.97 6.15-4.48 0-2.72-3.36-6.88-10.89-6.88-10.54 0-21.26 13.6-21.26 36.08C3.05-6.88 9.69.72 20.56.72c7.03 0 15.52-6.49 15.52-18.95 0-10.72-5.6-18.25-16.31-18.25-1.85 0-3.46.25-4.9.8 2-9.27 5.85-14.32 9.54-14.32zM13.45-21.05c0-1.82.08-3.6.15-5.26a7.14 7.14 0 014.9-1.61c4 0 7.2 2.4 7.2 9.76 0 7.04-2.49 9.36-6.33 9.36s-5.92-3.6-5.92-12.25zm0 0"/></symbol><symbol overflow="visible" id="d32f8ad9k"><path d="M3.83 0v-5.95H6.2v-.82H.45v.82h2.4V0zm0 0"/></symbol><symbol overflow="visible" id="d32f8ad9l"><path d="M5.75-2.23v-.43c0-1.6-.9-2.51-2.42-2.51S.87-4.16.87-2.48c0 1.71.91 2.62 2.5 2.62 1.43 0 2.07-.56 2.29-1.52l-.9-.09c-.18.61-.59.9-1.35.9-.94 0-1.52-.54-1.58-1.66zm-2.4-2.2c.93 0 1.43.5 1.48 1.55H1.84c.08-1.07.6-1.56 1.5-1.56zm0 0"/></symbol><symbol overflow="visible" id="d32f8ad9m"><path d="M1.83 0l1.42-2h.06l1.46 2H5.8L4-2.53l1.78-2.49H4.8L3.42-3.08h-.08l-1.4-1.94H.89l1.78 2.49L.84 0zm0 0"/></symbol><symbol overflow="visible" id="d32f8ad9n"><path d="M5.52-4.25v-.77H3.17v-1.56h-.81l-.14 1.56H.75v.77h1.47v2.4c0 1.3.48 1.94 1.84 1.94C4.6.1 5.14 0 5.55-.14L5.4-.91c-.32.13-.72.2-1.13.2-.8 0-1.1-.37-1.1-1.23v-2.31zm0 0"/></symbol><symbol overflow="visible" id="d32f8ad9o"><path d="M3.33-3.42c.47 0 .8-.27.8-.8 0-.51-.33-.8-.8-.8-.47 0-.8.29-.8.8 0 .53.33.8.8.8zm0 3.5c.47 0 .8-.27.8-.78 0-.53-.33-.82-.8-.82-.47 0-.8.29-.8.82 0 .51.33.78.8.78zm0 0"/></symbol><symbol overflow="visible" id="d32f8ad9q"><path d="M3.33.14c1.62 0 2.5-.95 2.5-2.66 0-1.68-.88-2.64-2.5-2.64-1.63 0-2.5.96-2.5 2.64 0 1.7.87 2.66 2.5 2.66zm0-.77c-1.06 0-1.52-.6-1.52-1.89 0-1.28.46-1.87 1.52-1.87 1.08 0 1.53.6 1.53 1.87 0 1.29-.45 1.9-1.53 1.9zm0 0"/></symbol><symbol overflow="visible" id="d32f8ad9r"><path d="M2.83.14c.94 0 1.5-.39 1.81-.95h.08l.1.81h.76v-3.38c0-1.23-.69-1.8-2.13-1.8-1.43 0-2.03.65-2.18 1.6l.93.1c.11-.6.44-.93 1.22-.93.85 0 1.22.32 1.22 1.04v.34l-1.81.2C1.6-2.7 1.1-2.17 1.1-1.28c0 .92.64 1.42 1.72 1.42zm.25-.77c-.67 0-1.02-.28-1.02-.74 0-.44.28-.72 1-.82l1.58-.19v.41c0 .8-.6 1.34-1.56 1.34zm0 0"/></symbol><symbol overflow="visible" id="d32f8ad9s"><path d="M3.92-7.14H1.36v.76h1.6v5.61H1.15V0H5.7v-.77H3.92zm0 0"/></symbol><symbol overflow="visible" id="d32f8ad9t"><path d="M3.33.16c1.69 0 2.69-.74 2.69-1.94 0-1.05-.8-1.58-1.43-1.72v-.05c.5-.14 1.2-.58 1.2-1.56 0-1.12-.95-1.81-2.46-1.81-1.52 0-2.46.69-2.46 1.81 0 .97.68 1.4 1.18 1.56v.05c-.6.14-1.4.64-1.4 1.72 0 1.2 1 1.94 2.68 1.94zm0-4.04c-.97 0-1.49-.43-1.49-1.12 0-.78.52-1.1 1.49-1.1.95 0 1.48.32 1.48 1.1 0 .69-.53 1.13-1.48 1.13zm0 3.24c-1.1 0-1.7-.42-1.7-1.25 0-.78.6-1.2 1.7-1.2s1.7.42 1.7 1.2c0 .83-.6 1.25-1.7 1.25zm0 0"/></symbol><symbol overflow="visible" id="d32f8ad9u"><path d="M3.42.14c1.55 0 2.44-.84 2.44-2.33 0-1.45-.83-2.22-2.14-2.22-.75 0-1.28.27-1.67.72H2l.31-2.22h3.11v-.86H1.53l-.45 3.93h.81c.3-.36.9-.79 1.58-.79.92 0 1.44.43 1.44 1.47 0 .99-.54 1.5-1.49 1.5-.83 0-1.28-.32-1.5-1.01l-.95.1C1.07-.46 2 .13 3.42.13zm0 0"/></symbol><symbol overflow="visible" id="d32f8ad9v"><path d="M4.22-6.77h-.86l-2.03.7v.87c.64-.17 1.26-.38 1.89-.55v4.9H1.03V0h4.9v-.86H4.21zm0 0"/></symbol><symbol overflow="visible" id="d32f8ad9w"><path d="M3.42.14c1.58 0 2.49-.86 2.49-2.3 0-1.42-.86-2.17-2.22-2.17-1.03 0-1.58.5-1.9 1.02h-.04c.03-1.63.4-2.77 1.73-2.77.91 0 1.24.44 1.36.96l.97-.11c-.23-.96-.86-1.68-2.33-1.68C1.84-6.9.86-5.86.86-3.1.86-.9 1.78.14 3.42.14zm.02-.78c-.9 0-1.47-.55-1.47-1.47 0-.9.7-1.47 1.53-1.47.92 0 1.47.52 1.47 1.47 0 .97-.6 1.47-1.53 1.47zm0 0"/></symbol><symbol overflow="visible" id="d32f8ad9x"><path d="M5.95-6.77H1.1V0h.99v-2.92H5.3v-.77H2.08v-2.26h3.87zm0 0"/></symbol><symbol overflow="visible" id="d32f8ad9y"><path d="M2.73.14c.9 0 1.43-.45 1.74-1.08h.06l.13.94h.8v-5.02h-.94v2.7c0 .98-.57 1.62-1.46 1.62-.75 0-1.1-.4-1.1-1.22v-3.1h-.93v3.32c0 1.17.55 1.84 1.7 1.84zm0 0"/></symbol><symbol overflow="visible" id="d32f8ad9z"><path d="M5.08-5.16c-.94 0-1.58.43-1.9 1.3h-.09l-.07-1.16H1.05v.77h1.1v3.48H.96V0h3.96v-.77H3.1v-1.46c0-1.36.6-2.05 1.83-2.05.4 0 .76.08 1.1.17l.15-.87c-.33-.11-.7-.18-1.11-.18zm0 0"/></symbol><symbol overflow="visible" id="d32f8ad9A"><path d="M2.08-6.77h-.99V0h4.79v-.81h-3.8zm0 0"/></symbol><symbol overflow="visible" id="d32f8ad9B"><path d="M3.58-5.81c.42 0 .72-.22.72-.67 0-.44-.3-.68-.72-.68-.44 0-.72.24-.72.68 0 .45.28.67.72.67zm.5.8H1.52v.76h1.6v3.48h-1.8V0h4.46v-.77h-1.7zm0 0"/></symbol><symbol overflow="visible" id="d32f8ad9C"><path d="M2.16 0v-2.67c0-.99.59-1.63 1.46-1.63.74 0 1.07.38 1.07 1.22V0h.95v-3.31c0-1.2-.56-1.85-1.67-1.85-.92 0-1.49.46-1.77 1.08h-.06l-.12-.94H1.2V0zm0 0"/></symbol><symbol overflow="visible" id="d32f8ad9D"><path d="M3.16 2.03c1.67 0 2.4-.86 2.4-2.51v-4.54h-.81l-.13.91h-.06c-.26-.58-.8-1.05-1.73-1.05-1.42 0-2.24 1-2.24 2.52 0 1.6.75 2.56 2.2 2.56.94 0 1.5-.5 1.77-1.03h.05v.72c0 1.17-.42 1.67-1.45 1.67-.93 0-1.3-.34-1.41-.89L.8.5c.12.96.87 1.54 2.36 1.54zM3.06-.8c-.98 0-1.48-.57-1.48-1.82 0-1.13.5-1.75 1.48-1.75 1.06 0 1.58.76 1.58 1.75 0 .95-.56 1.82-1.58 1.82zm0 0"/></symbol><symbol overflow="visible" id="d32f8ad9E"><path d="M1.63 0v-2.9c0-.8.15-1.4.71-1.4.41 0 .55.3.55.88V0h.95v-2.9c0-.8.18-1.4.72-1.4.4 0 .57.3.57.88V0h.95v-3.63c0-.92-.28-1.53-1.11-1.53-.63 0-.95.41-1.1.9h-.06c-.1-.52-.44-.9-1.08-.9-.6 0-.93.41-1.06.9H1.6l-.23-.76H.67V0zm0 0"/></symbol><symbol overflow="visible" id="d32f8ad9F"><path d="M3.36.16c1.4 0 2.2-.6 2.2-1.57 0-.89-.54-1.22-1.47-1.39L3-3c-.67-.14-.86-.33-.86-.73 0-.5.4-.74 1.17-.74.83 0 1.19.27 1.27.8l.9-.05c-.12-1-.8-1.47-2.17-1.47-1.34 0-2.1.53-2.1 1.5 0 .81.45 1.22 1.52 1.44l1.04.2c.56.11.87.24.87.72 0 .52-.45.78-1.28.78-.95 0-1.36-.28-1.42-.87l-.9.06C1.07-.36 1.8.16 3.35.16zm0 0"/></symbol><symbol overflow="visible" id="d32f8ad9G"><path d="M1.45-2.95c0 2.56 1.08 4.37 3.67 4.84l.11-.67C3.28.86 2.43-.75 2.43-2.95s.85-3.82 2.8-4.16l-.1-.69c-2.6.49-3.68 2.3-3.68 4.85zm0 0"/></symbol><symbol overflow="visible" id="d32f8ad9H"><path d="M2.84.14C3.8.14 4.33-.26 4.6-.9h.07L4.8 0h.76v-7.14h-.95v2.95h-.08c-.28-.6-.86-.97-1.67-.97-1.48 0-2.27.99-2.27 2.64C.6-.84 1.36.14 2.84.14zm.22-.8c-.98 0-1.48-.59-1.48-1.84s.5-1.86 1.48-1.86c1.13 0 1.58.8 1.58 1.86S4.2-.66 3.06-.66zm0 0"/></symbol><symbol overflow="visible" id="d32f8ad9I"><path d="M4.63-6.5c.45 0 .98.08 1.39.2l.2-.72a5.3 5.3 0 00-1.64-.26c-1.52 0-2.16.56-2.16 1.87v.4H.9v.76h1.53V0h.94v-4.25h2.53v-.77H3.36v-.3c0-.84.33-1.18 1.27-1.18zm0 0"/></symbol><symbol overflow="visible" id="d32f8ad9J"><path d="M1.45-7.1c1.96.33 2.8 1.94 2.8 4.15 0 2.2-.84 3.8-2.8 4.17l.11.67c2.58-.47 3.67-2.28 3.67-4.84 0-2.55-1.09-4.36-3.67-4.85zm0 0"/></symbol></defs><use xlink:href="#d32f8ad9a" x="127.28" y="164" fill="#515151"/><use xlink:href="#d32f8ad9b" x="158.64" y="164" fill="#515151"/><use xlink:href="#d32f8ad9c" x="197.52" y="164" fill="#515151"/><use xlink:href="#d32f8ad9d" x="228.32" y="164" fill="#515151"/><use xlink:href="#d32f8ad9e" x="268.8" y="164" fill="#515151"/><use xlink:href="#d32f8ad9f" x="301.84" y="164" fill="#515151"/><g fill="#fff"><use xlink:href="#d32f8ad9g" x="334.24" y="164"/><use xlink:href="#d32f8ad9h" x="371.6" y="164"/><use xlink:href="#d32f8ad9i" x="406.16" y="164"/></g><use xlink:href="#d32f8ad9j" x="433.6" y="164" fill="#fff"/><g fill="#fff"><use xlink:href="#d32f8ad9k" x="243.3333" y="252"/><use xlink:href="#d32f8ad9l" x="250.0003" y="252"/><use xlink:href="#d32f8ad9m" x="256.6673" y="252"/><use xlink:href="#d32f8ad9n" x="263.3343" y="252"/><use xlink:href="#d32f8ad9o" x="270.0013" y="252"/><use xlink:href="#d32f8ad9p" x="276.6683" y="252"/><use xlink:href="#d32f8ad9k" x="283.3353" y="252"/><use xlink:href="#d32f8ad9q" x="290.0023" y="252"/><use xlink:href="#d32f8ad9n" x="296.6693" y="252"/><use xlink:href="#d32f8ad9r" x="303.3363" y="252"/><use xlink:href="#d32f8ad9s" x="310.0033" y="252"/><use xlink:href="#d32f8ad9o" x="316.6703" y="252"/><use xlink:href="#d32f8ad9p" x="323.3373" y="252"/><use xlink:href="#d32f8ad9t" x="330.0043" y="252"/><use xlink:href="#d32f8ad9u" x="336.6713" y="252"/><use xlink:href="#d32f8ad9v" x="343.3383" y="252"/><use xlink:href="#d32f8ad9w" x="350.0053" y="252"/></g><g fill="#fff"><use xlink:href="#d32f8ad9x" x="186.6667" y="266"/><use xlink:href="#d32f8ad9l" x="193.3337" y="266"/><use xlink:href="#d32f8ad9r" x="200.0007" y="266"/><use xlink:href="#d32f8ad9n" x="206.6677" y="266"/><use xlink:href="#d32f8ad9y" x="213.3347" y="266"/><use xlink:href="#d32f8ad9z" x="220.0017" y="266"/><use xlink:href="#d32f8ad9l" x="226.6687" y="266"/><use xlink:href="#d32f8ad9o" x="233.3357" y="266"/><use xlink:href="#d32f8ad9p" x="240.0027" y="266"/><use xlink:href="#d32f8ad9A" x="246.6697" y="266"/><use xlink:href="#d32f8ad9B" x="253.3367" y="266"/><use xlink:href="#d32f8ad9C" x="260.0037" y="266"/><use xlink:href="#d32f8ad9B" x="266.6707" y="266"/><use xlink:href="#d32f8ad9C" x="273.3377" y="266"/><use xlink:href="#d32f8ad9D" x="280.0047" y="266"/><use xlink:href="#d32f8ad9p" x="286.6717" y="266"/><use xlink:href="#d32f8ad9C" x="293.3387" y="266"/><use xlink:href="#d32f8ad9y" x="300.0057" y="266"/><use xlink:href="#d32f8ad9E" x="306.6727" y="266"/><use xlink:href="#d32f8ad9l" x="313.3397" y="266"/><use xlink:href="#d32f8ad9z" x="320.0067" y="266"/><use xlink:href="#d32f8ad9r" x="326.6737" y="266"/><use xlink:href="#d32f8ad9s" x="333.3407" y="266"/><use xlink:href="#d32f8ad9F" x="340.0077" y="266"/><use xlink:href="#d32f8ad9p" x="346.6747" y="266"/><use xlink:href="#d32f8ad9G" x="353.3417" y="266"/><use xlink:href="#d32f8ad9H" x="360.0087" y="266"/><use xlink:href="#d32f8ad9l" x="366.6757" y="266"/><use xlink:href="#d32f8ad9I" x="373.3427" y="266"/><use xlink:href="#d32f8ad9r" x="380.0097" y="266"/><use xlink:href="#d32f8ad9y" x="386.6767" y="266"/><use xlink:href="#d32f8ad9s" x="393.3437" y="266"/><use xlink:href="#d32f8ad9n" x="400.0107" y="266"/><use xlink:href="#d32f8ad9J" x="406.6777" y="266"/></g></svg>