<?xml version='1.0' encoding='UTF-8'?>
<svg xmlns="http://www.w3.org/2000/svg" xmlns:xlink="http://www.w3.org/1999/xlink" width="600px" height="300px" viewBox="0 0 600 300" x="0px" y="0px" enable-background="new 0 0 600 300"><defs><symbol overflow="visible" id="7a88605da"><path d="M41.05-46.48c0 8.32 4.39 13.2 11.1 13.2 6.73 0 11.05-5.2 11.05-14.16 0-8-5.28-12.56-11.04-12.56-6.8 0-11.11 4.48-11.11 13.52zM3.52-3.92C3.52-2 5.92.88 7.44.88h.87C9.6.88 13.77-2 13.84-4.08c.16-3.2.24-6.48.24-10.23 0-2.74-.08-5.69-.16-9.05l-.4-11.52.25-.17c3.59 11.77 7.18 21.92 11.18 30.9.9 2 3.53 4.8 4.9 4.8h.87c2 0 4.64-3.21 4.8-5.45.4-5.36.4-11.43.4-20.32v-8.08c0-9.85.16-14.08.16-22 0-1.6-2.56-4.16-5.03-4.16h-.97c-1.92 0-3.28 2.64-3.6 5.05-.4 2.72-.56 5.44-.56 10.31 0 3.13.08 4.8.4 8.08l.8 11.69-.25.15A3492.52 3492.52 0 0115.13-54c-1.6-4.08-2.89-4.8-4.8-4.8h-1.2c-.71 0-5.28 2-5.28 3.6 0 3.43.57 7.92.57 16.8v7.92c0 10.17-.9 16.17-.9 26.56zm44.96-43.36c0-4 1.75-5.92 3.68-5.92 2.4 0 3.6 2.08 3.6 6.48s-1.2 6.64-3.68 6.64c-2.24 0-3.6-2.48-3.6-7.2zm-7.53 22.23v.97c0 2 2.1 4.49 3.2 4.49 4.5 0 8.5-.72 13.62-1.2 3.28-.34 6.3-3.77 6.3-5.13v-.49c0-1.75-2.55-3.28-5.12-3.28-3.43 0-10.72.57-14.64.97-1.83.24-3.36 2.31-3.36 3.67zm0 0"/></symbol><symbol overflow="visible" id="7a88605db"><path d="M30.48-56.08c0-1.84-1.53-3.76-6.56-3.76-1.44 0-4.08.15-6.8.15-2.96 0-4.71-.23-5.76-.23-2.48 0-4.72 2.8-5.2 5.84-.4 2.31-.72 9.52-.72 13.36 0 3.28-.24 6.8-.24 8.49 0 3.59 1.28 5.43 4 5.43 1.68 0 2.49-.4 4.64-1.04.57-.16 2.16-.72 3.2-.72 2.65 0 4 2.48 4 7.2 0 11.67-2.16 13.44-5.04 13.44-2.23 0-6.16-4.08-8.64-4.08-1.92 0-4.4 3.05-4.4 5.44 0 .72.17 1.36.73 1.92 3.19 3.05 8.8 5.76 15.03 5.76 5.6 0 12.8-6.25 12.8-21.6 0-13.93-6.88-16.72-11.68-16.72-2.15 0-3.92.89-4.89.97-.15-1.36-.15-2.49-.15-4.18 0-3.67.25-8.64.8-9.9 1.2-.4 1.76-.56 3.6-.56 1.52 0 2.96.46 6.16.46s5.12-2.3 5.12-5.67zm0 0"/></symbol><symbol overflow="visible" id="7a88605dc"><path d="M8.08-42.56h.33c.8 0 2.87-1.6 3.59-3.2 1.13-2.65 2.8-4 4.95-4 3.13 0 5.53 2.32 5.53 6.88 0 5.36-1.84 10.24-6.48 15.6C8.8-18.95 3.36-8.95 3.36-5.12 3.36-2.42 6.08.95 8.64.95c7.6 0 12.88-.23 19.2-.95 2.8-.4 6.08-4.31 6.08-6v-.4c0-1.04-2.23-3.2-4.72-3.2-3.84 0-8.48 1.68-12.4 1.68-.8 0-1.93-.08-2.64-.31l-.08-.25c1.28-3.68 4.08-8.47 8.87-13.75 6.33-6.97 9.85-12.49 9.85-20.18 0-10.23-6.64-16.72-16.08-16.72-3.77 0-8.31 2.26-10.64 6.49-1.2 2.23-2.16 4.33-2.16 6.64 0 1.2 3.03 3.44 4.16 3.44zm0 0"/></symbol><symbol overflow="visible" id="7a88605dd"><path d="M12.72-3.05c0 1.61 2.23 3.53 4.15 3.53h.82c1.51 0 5.6-3.35 5.6-4.96 0-6.08-.24-11.68-.24-20.57v-9.67c0-8.64.64-15.51.64-21.05 0-1.92-1.77-3.75-3.61-3.75h-.88c-2.72 0-5.6 2.24-7.36 4.47a108.56 108.56 0 01-8.07 6.1c-1.61 1.03-2.49 2.54-2.49 3.6v.94c0 1.2 2 4.57 3.2 4.57h.96c.64 0 2.72-.8 4.15-1.93 1.05-.8 2.41-2 3.29-2.71l.24.07c-.17 4.1-.24 8.72-.24 12.41v9.92c0 5.67-.16 11.6-.16 19.03zm0 0"/></symbol><symbol overflow="visible" id="7a88605de"><path d="M4.31-41.92c0 5.69 2.4 9.28 7.38 12.56-5.38 2.64-8.56 6.16-8.56 13.6C3.13-6 10.22-.17 20.8-.17c7.68 0 14.07-7.76 14.07-16.64 0-5.51-1.82-10.89-8.3-14.97 5.35-3.67 7.66-7.28 7.66-12.3 0-8.24-6.15-14.34-14.8-14.34-9.12 0-15.12 6.82-15.12 16.49zm9.61-1.03c0-4.17 2.31-6.33 5.67-6.33 2.64 0 4.97 1.92 4.97 5.76 0 4.16-1.6 6.32-4.15 8.65-4.64-2.33-6.49-4.41-6.49-8.08zm-1.04 26.3c0-2.7.71-6.7 4.71-9.43 7.05 4 7.93 6.49 7.93 9.6 0 3.2-2.57 6.96-6 6.96a6.89 6.89 0 01-6.64-7.12zm0 0"/></symbol><symbol overflow="visible" id="7a88605df"><path d="M20.16-33.44h.64c.89 0 2.89-1.69 2.89-2.97 0-2.54-.1-2.87-.1-6.72v-.56c0-2.72-.23-7.36-.46-8.95C22.55-56 21.36-60 13.84-60c-5.04 0-6.96 1.05-7.6 1.44-1.2.8-2.24 2.87-1.68 4.33.72 1.82 2.24 1.82 4.24 1.51 2-.4 3.43-.48 4.48-.48 2.31 0 3.13.97 3.36 3.43-2.23.18-7.2.33-10 2.18a8 8 0 00-3.44 6.87c0 3.2 2.4 7.44 6.88 7.44 3.12 0 5.6-1.2 7.2-2.49-.08.57 1.77 2.33 2.88 2.33zm-10.4-7.44c0-1.28.88-1.76 2.4-2.32.71-.24 2.89-.57 4.8-.8V-41.68c-1.37 1.04-3.44 2.48-5.27 2.48-1.13 0-1.92-.8-1.92-1.67zm0 0"/></symbol><symbol overflow="visible" id="7a88605dg"><path d="M7.13-47.69c.71 0 1.35-.47 3.1-1.1 1.77-.65 3.2-1.05 4.33-1.05a6.1 6.1 0 016.31 6.4c0 5.36-1.18 9.2-4.39 14.72-6.48 11.2-14 20.88-14 24.4v.4C2.48-2.48 4.95 0 6.16 0h.48C8.08 0 10-1.05 11.28-2.08 12.95-2.08 20 0 24.16 0c1.84 0 4.4-.95 6.07-2.16 1.05-.8 2.25-2.96 2.25-4.32v-.47c0-1.36-2.32-3.53-3.84-3.53-1.05 0-4.08 1.28-6.23 1.28a26.7 26.7 0 01-7.93-1.6l-.07-.25c3.36-4.23 7.82-10.8 10-14.3 4.87-7.93 6.8-12.34 6.8-18.73 0-8.8-7.85-15.12-16.34-15.12-2.39 0-4.87.33-8.8 2.25-1.66.8-2.95 1.75-2.95 3.18 0 2.33 2.65 6.08 4 6.08zm0 0"/></symbol><symbol overflow="visible" id="7a88605dh"><path d="M21.6-4.31C21.6-2.23 23.51.4 24.86.4h.9c2.95 0 6.39-3.29 6.39-4.97 0-4.57-.16-6.49-.24-10.88 1.03-.08 1.85-.15 2.8-.15 2.16 0 5.76-3.05 5.76-5.05v-.56c0-1.85-2.25-3.52-3.84-3.52-1.84 0-3.69.08-4.72.08v-6.64c0-8.64.31-18.88.31-24.4 0-2.16-2.23-3.68-6.07-3.76-1.11-.08-2.08.08-2.4.56-5.53 7.36-13.28 21.04-17.35 27.93C4-27.2 2.23-22.48 2.23-20.65c0 3.7 2.33 5.37 5.7 5.37.71 0 3.91-.4 4.95-.4 2.96 0 5.53.4 8.89.4-.08 3.36-.18 4.97-.18 10.97zM12-23.92c2.08-4.4 6.16-11.77 10.56-18.4-.15 5.76-.25 11.84-.25 15.76v2.64c-2 .15-4.15.23-6 .23-.95 0-3.26-.08-4.31-.23zm0 0"/></symbol><symbol overflow="visible" id="7a88605di"><path d="M3.2-47.13c0 9.54 4.16 13.93 10.88 13.93 6.72 0 11.28-4.72 11.28-12.8 0-9.36-5.28-14-11.05-14-6.8 0-11.1 4.56-11.1 12.88zm7.6-.8c0-3.27 1.68-5.27 3.51-5.27 2.33 0 3.46 2.15 3.46 7.92C17.77-41.77 16.4-40 14-40c-2.16 0-3.2-2-3.2-7.92zm0 0"/></symbol><symbol overflow="visible" id="7a88605dj"><path d="M3.83 0v-5.95H6.2v-.82H.45v.82h2.4V0zm0 0"/></symbol><symbol overflow="visible" id="7a88605dk"><path d="M5.75-2.23v-.43c0-1.6-.9-2.51-2.42-2.51S.87-4.16.87-2.48c0 1.71.91 2.62 2.5 2.62 1.43 0 2.07-.56 2.29-1.52l-.9-.09c-.18.61-.59.9-1.35.9-.94 0-1.52-.54-1.58-1.66zm-2.4-2.2c.93 0 1.43.5 1.48 1.55H1.84c.08-1.07.6-1.56 1.5-1.56zm0 0"/></symbol><symbol overflow="visible" id="7a88605dl"><path d="M1.83 0l1.42-2h.06l1.46 2H5.8L4-2.53l1.78-2.49H4.8L3.42-3.08h-.08l-1.4-1.94H.89l1.78 2.49L.84 0zm0 0"/></symbol><symbol overflow="visible" id="7a88605dm"><path d="M5.52-4.25v-.77H3.17v-1.56h-.81l-.14 1.56H.75v.77h1.47v2.4c0 1.3.48 1.94 1.84 1.94C4.6.1 5.14 0 5.55-.14L5.4-.91c-.32.13-.72.2-1.13.2-.8 0-1.1-.37-1.1-1.23v-2.31zm0 0"/></symbol><symbol overflow="visible" id="7a88605dn"><path d="M3.33-3.42c.47 0 .8-.27.8-.8 0-.51-.33-.8-.8-.8-.47 0-.8.29-.8.8 0 .53.33.8.8.8zm0 3.5c.47 0 .8-.27.8-.78 0-.53-.33-.82-.8-.82-.47 0-.8.29-.8.82 0 .51.33.78.8.78zm0 0"/></symbol><symbol overflow="visible" id="7a88605dp"><path d="M1.84 0v-4.48l-.06-.99h.1L4.46 0h1.28v-6.77h-.92v4.4l.06 1.03h-.1L2.21-6.77H.92V0zm0 0"/></symbol><symbol overflow="visible" id="7a88605dq"><path d="M3.33.14c1.62 0 2.5-.95 2.5-2.66 0-1.68-.88-2.64-2.5-2.64-1.63 0-2.5.96-2.5 2.64 0 1.7.87 2.66 2.5 2.66zm0-.77c-1.06 0-1.52-.6-1.52-1.89 0-1.28.46-1.87 1.52-1.87 1.08 0 1.53.6 1.53 1.87 0 1.29-.45 1.9-1.53 1.9zm0 0"/></symbol><symbol overflow="visible" id="7a88605dr"><path d="M3.42.14c1.55 0 2.44-.84 2.44-2.33 0-1.45-.83-2.22-2.14-2.22-.75 0-1.28.27-1.67.72H2l.31-2.22h3.11v-.86H1.53l-.45 3.93h.81c.3-.36.9-.79 1.58-.79.92 0 1.44.43 1.44 1.47 0 .99-.54 1.5-1.49 1.5-.83 0-1.28-.32-1.5-1.01l-.95.1C1.07-.46 2 .13 3.42.13zm0 0"/></symbol><symbol overflow="visible" id="7a88605ds"><path d="M5.67 0v-.86H2.14V-.9L3.6-2c1.05-.83 2-1.68 2-2.91 0-1.19-.73-1.99-2.26-1.99-1.66 0-2.3 1.02-2.44 2.33l1 .08c.1-.92.42-1.58 1.44-1.58.87 0 1.26.44 1.26 1.24 0 .9-.8 1.53-1.96 2.53L.83-.81V0zm0 0"/></symbol><symbol overflow="visible" id="7a88605dt"><path d="M4.22-6.77h-.86l-2.03.7v.87c.64-.17 1.26-.38 1.89-.55v4.9H1.03V0h4.9v-.86H4.21zm0 0"/></symbol><symbol overflow="visible" id="7a88605du"><path d="M3.33.16c1.69 0 2.69-.74 2.69-1.94 0-1.05-.8-1.58-1.43-1.72v-.05c.5-.14 1.2-.58 1.2-1.56 0-1.12-.95-1.81-2.46-1.81-1.52 0-2.46.69-2.46 1.81 0 .97.68 1.4 1.18 1.56v.05c-.6.14-1.4.64-1.4 1.72 0 1.2 1 1.94 2.68 1.94zm0-4.04c-.97 0-1.49-.43-1.49-1.12 0-.78.52-1.1 1.49-1.1.95 0 1.48.32 1.48 1.1 0 .69-.53 1.13-1.48 1.13zm0 3.24c-1.1 0-1.7-.42-1.7-1.25 0-.78.6-1.2 1.7-1.2s1.7.42 1.7 1.2c0 .83-.6 1.25-1.7 1.25zm0 0"/></symbol><symbol overflow="visible" id="7a88605dv"><path d="M2.83.14c.94 0 1.5-.39 1.81-.95h.08l.1.81h.76v-3.38c0-1.23-.69-1.8-2.13-1.8-1.43 0-2.03.65-2.18 1.6l.93.1c.11-.6.44-.93 1.22-.93.85 0 1.22.32 1.22 1.04v.34l-1.81.2C1.6-2.7 1.1-2.17 1.1-1.28c0 .92.64 1.42 1.72 1.42zm.25-.77c-.67 0-1.02-.28-1.02-.74 0-.44.28-.72 1-.82l1.58-.19v.41c0 .8-.6 1.34-1.56 1.34zm0 0"/></symbol><symbol overflow="visible" id="7a88605dw"><path d="M5.1 0v-1.47H6v-.81h-.9v-4.49H3.8L.48-2.23v.76h3.66V0zM1.5-2.33l2.6-3.53h.04v3.58H1.5zm0 0"/></symbol><symbol overflow="visible" id="7a88605dx"><path d="M5.95-6.77H1.1V0h.99v-2.92H5.3v-.77H2.08v-2.26h3.87zm0 0"/></symbol><symbol overflow="visible" id="7a88605dy"><path d="M2.73.14c.9 0 1.43-.45 1.74-1.08h.06l.13.94h.8v-5.02h-.94v2.7c0 .98-.57 1.62-1.46 1.62-.75 0-1.1-.4-1.1-1.22v-3.1h-.93v3.32c0 1.17.55 1.84 1.7 1.84zm0 0"/></symbol><symbol overflow="visible" id="7a88605dz"><path d="M5.08-5.16c-.94 0-1.58.43-1.9 1.3h-.09l-.07-1.16H1.05v.77h1.1v3.48H.96V0h3.96v-.77H3.1v-1.46c0-1.36.6-2.05 1.83-2.05.4 0 .76.08 1.1.17l.15-.87c-.33-.11-.7-.18-1.11-.18zm0 0"/></symbol><symbol overflow="visible" id="7a88605dA"><path d="M3.33.14c1.9 0 2.76-1.27 2.76-3.52 0-2.26-.86-3.53-2.76-3.53S.58-5.64.58-3.37c0 2.25.86 3.51 2.75 3.51zM3.3-.67c-1.25 0-1.73-.95-1.73-2.7 0-1.77.5-2.72 1.75-2.72s1.75.95 1.75 2.71c0 1.75-.5 2.7-1.77 2.7zm0 0"/></symbol><symbol overflow="visible" id="7a88605dB"><path d="M2.84.14C3.8.14 4.33-.26 4.6-.9h.07L4.8 0h.76v-7.14h-.95v2.95h-.08c-.28-.6-.86-.97-1.67-.97-1.48 0-2.27.99-2.27 2.64C.6-.84 1.36.14 2.84.14zm.22-.8c-.98 0-1.48-.59-1.48-1.84s.5-1.86 1.48-1.86c1.13 0 1.58.8 1.58 1.86S4.2-.66 3.06-.66zm0 0"/></symbol><symbol overflow="visible" id="7a88605dC"><path d="M3.58-5.81c.42 0 .72-.22.72-.67 0-.44-.3-.68-.72-.68-.44 0-.72.24-.72.68 0 .45.28.67.72.67zm.5.8H1.52v.76h1.6v3.48h-1.8V0h4.46v-.77h-1.7zm0 0"/></symbol><symbol overflow="visible" id="7a88605dD"><path d="M2.16 0v-2.67c0-.99.59-1.63 1.46-1.63.74 0 1.07.38 1.07 1.22V0h.95v-3.31c0-1.2-.56-1.85-1.67-1.85-.92 0-1.49.46-1.77 1.08h-.06l-.12-.94H1.2V0zm0 0"/></symbol><symbol overflow="visible" id="7a88605dE"><path d="M3.92-7.14H1.36v.76h1.6v5.61H1.15V0H5.7v-.77H3.92zm0 0"/></symbol><symbol overflow="visible" id="7a88605dF"><path d="M3.36.16c1.4 0 2.2-.6 2.2-1.57 0-.89-.54-1.22-1.47-1.39L3-3c-.67-.14-.86-.33-.86-.73 0-.5.4-.74 1.17-.74.83 0 1.19.27 1.27.8l.9-.05c-.12-1-.8-1.47-2.17-1.47-1.34 0-2.1.53-2.1 1.5 0 .81.45 1.22 1.52 1.44l1.04.2c.56.11.87.24.87.72 0 .52-.45.78-1.28.78-.95 0-1.36-.28-1.42-.87l-.9.06C1.07-.36 1.8.16 3.35.16zm0 0"/></symbol><symbol overflow="visible" id="7a88605dG"><path d="M1.45-2.95c0 2.56 1.08 4.37 3.67 4.84l.11-.67C3.28.86 2.43-.75 2.43-2.95s.85-3.82 2.8-4.16l-.1-.69c-2.6.49-3.68 2.3-3.68 4.85zm0 0"/></symbol><symbol overflow="visible" id="7a88605dH"><path d="M1.45-7.1c1.96.33 2.8 1.94 2.8 4.15 0 2.2-.84 3.8-2.8 4.17l.11.67c2.58-.47 3.67-2.28 3.67-4.84 0-2.55-1.09-4.36-3.67-4.85zm0 0"/></symbol></defs><use xlink:href="#7a88605da" x="114.88" y="164" fill="#fff"/><use xlink:href="#7a88605db" x="182.16" y="164" fill="#515151"/><use xlink:href="#7a88605dc" x="216.72" y="164" fill="#515151"/><use xlink:href="#7a88605dd" x="269.52" y="164" fill="#515151"/><use xlink:href="#7a88605de" x="296.96" y="164" fill="#515151"/><use xlink:href="#7a88605df" x="334.96" y="164" fill="#fff"/><use xlink:href="#7a88605dg" x="378.64" y="164" fill="#515151"/><use xlink:href="#7a88605dh" x="413.84" y="164" fill="#515151"/><use xlink:href="#7a88605di" x="456.56" y="164" fill="#fff"/><g fill="#fff"><use xlink:href="#7a88605dj" x="240" y="252"/><use xlink:href="#7a88605dk" x="246.667" y="252"/><use xlink:href="#7a88605dl" x="253.334" y="252"/><use xlink:href="#7a88605dm" x="260.001" y="252"/><use xlink:href="#7a88605dn" x="266.668" y="252"/><use xlink:href="#7a88605do" x="273.335" y="252"/><use xlink:href="#7a88605dp" x="280.002" y="252"/><use xlink:href="#7a88605dq" x="286.669" y="252"/><use xlink:href="#7a88605dr" x="293.336" y="252"/><use xlink:href="#7a88605ds" x="300.003" y="252"/><use xlink:href="#7a88605do" x="306.67" y="252"/><use xlink:href="#7a88605dt" x="313.337" y="252"/><use xlink:href="#7a88605du" x="320.004" y="252"/><use xlink:href="#7a88605dv" x="326.671" y="252"/><use xlink:href="#7a88605do" x="333.338" y="252"/><use xlink:href="#7a88605ds" x="340.005" y="252"/><use xlink:href="#7a88605dw" x="346.672" y="252"/><use xlink:href="#7a88605dq" x="353.339" y="252"/></g><g fill="#fff"><use xlink:href="#7a88605dx" x="220" y="266"/><use xlink:href="#7a88605dk" x="226.667" y="266"/><use xlink:href="#7a88605dv" x="233.334" y="266"/><use xlink:href="#7a88605dm" x="240.001" y="266"/><use xlink:href="#7a88605dy" x="246.668" y="266"/><use xlink:href="#7a88605dz" x="253.335" y="266"/><use xlink:href="#7a88605dk" x="260.002" y="266"/><use xlink:href="#7a88605dn" x="266.669" y="266"/><use xlink:href="#7a88605do" x="273.336" y="266"/><use xlink:href="#7a88605dA" x="280.003" y="266"/><use xlink:href="#7a88605dz" x="286.67" y="266"/><use xlink:href="#7a88605dB" x="293.337" y="266"/><use xlink:href="#7a88605dC" x="300.004" y="266"/><use xlink:href="#7a88605dD" x="306.671" y="266"/><use xlink:href="#7a88605dv" x="313.338" y="266"/><use xlink:href="#7a88605dE" x="320.005" y="266"/><use xlink:href="#7a88605dF" x="326.672" y="266"/><use xlink:href="#7a88605do" x="333.339" y="266"/><use xlink:href="#7a88605dG" x="340.006" y="266"/><use xlink:href="#7a88605dq" x="346.673" y="266"/><use xlink:href="#7a88605dz" x="353.34" y="266"/><use xlink:href="#7a88605dB" x="360.007" y="266"/><use xlink:href="#7a88605dD" x="366.674" y="266"/><use xlink:href="#7a88605dH" x="373.341" y="266"/></g></svg>