<?xml version='1.0' encoding='UTF-8'?>
<svg xmlns="http://www.w3.org/2000/svg" xmlns:xlink="http://www.w3.org/1999/xlink" width="600px" height="300px" viewBox="0 0 600 300" x="0px" y="0px" enable-background="new 0 0 600 300"><defs><symbol overflow="visible" id="b136f0a0a"><path d="M4-7.92C4-4 6.23-1.6 10.16-.8 13.28-.16 17.69.23 21.52.23c9.6 0 14.32-8.87 14.32-17.75 0-7.28-5.12-11.76-9.68-14.4 3.84-2.49 6.96-7.36 6.96-12.64 0-9.44-7.84-14.08-15.84-14.08-3.12 0-5.05.48-7.28 1.77-3.05 1.74-3.92 3.74-4.31 7.51a184.27 184.27 0 00-1.28 21.2v1.68C4.4-17.92 4-14.16 4-7.92zm18.95-35.03c0 4.64-3.18 10.3-8.39 10.23v-2.56c0-5.67.24-9.36.72-14 .8-.31 1.85-.49 2.95-.49 2.82 0 4.72 2.25 4.72 6.82zm-8.39 19.43v-1.53c1.03-.39 2.49-.64 3.67-.87 4.08.48 7.46 4.56 7.46 9.2 0 5.28-2.49 8-5.69 8a21.2 21.2 0 01-5.6-.72 627 627 0 00.16-14.08zm0 0"/></symbol><symbol overflow="visible" id="b136f0a0b"><path d="M3.05-27.84C3.05-9.36 8.4 1.2 20.08 1.2c11.51 0 16.97-12.72 16.97-31.51 0-17.69-5.46-28.82-17.85-28.82C8-59.13 3.05-45.52 3.05-27.84zm10.39 2.25c0-15.54 1.76-24.1 6.64-24.1 4 0 6.64 3.85 6.64 15.2 0 16.97-1.77 26-7.36 26-3.44 0-5.92-4.15-5.92-17.1zm0 0"/></symbol><symbol overflow="visible" id="b136f0a0c"><path d="M3.05-29.44C3.05-10.4 8.72.48 20.4.48 31.92.48 38-9.84 38-28.64c0-17.67-5.92-29.77-18.31-29.77-10 0-16.64 11.53-16.64 28.97zm10.39 1.75c0-15.51 2.56-21.26 7.44-21.26 4.25 0 6.8 4.8 6.8 16.15 0 16.96-2.16 23.6-7.76 23.6-3.44 0-6.48-4.64-6.48-18.49zm0 0"/></symbol><symbol overflow="visible" id="b136f0a0d"><path d="M3.77-4.8C3.77-2.64 6.64.72 7.84.72h1.04c2.4 0 5.04-2.88 5.28-4.16.32-4.15.4-10.8.4-17.43.64-1.05 1.28-2 1.75-2.65a88.6 88.6 0 014 8c2.4 5.2 4.33 8.64 6 12.08C27.44-1.2 28.48.31 29.77.31c1.67 0 5.75-2.15 5.75-4.95 0-2.16-2.96-8.56-5.93-14.64-2.23-4.56-4.54-8.56-6.23-11.6 1.44-2.4 3.44-5.53 5.36-8.8 3.92-6.63 6.56-11.76 6.56-13.37 0-1.26-2.08-5.26-4-5.26h-.56c-1.36 0-3.36.87-4 2.15-1.92 3.85-4 7.93-6.16 12a219.58 219.58 0 01-6 10.72 449 449 0 00-.48-22.25c-.16-1.1-1.28-2.87-3.03-2.87h-.74C8.08-58.56 4-55.92 4-54.23c0 6.07.4 11.35.4 20.23v4.31c0 10.17-.63 20.1-.63 24.9zm0 0"/></symbol><symbol overflow="visible" id="b136f0a0e"><path d="M22.88-31.13c2.89-4.64 6.48-10.46 8.89-14.15 2.39-3.67 5.28-8.08 5.28-9.67 0-1.7-1.61-4.57-3.46-4.57h-1.03c-1.04 0-3.36.57-5.04 3.11-3.83 5.93-10.16 17.36-12.96 22.72 0-7.75.64-16.31.64-23.19 0-1.2-1.51-2.89-3.04-2.89h-.8c-2.31 0-5.92 1.7-6.23 4.25-.65 6.08-.72 12.8-.72 21.68v4.32c0 10.16-.49 20-.49 24.8 0 2.4 1.6 5.44 3.36 5.44h.95c2.49 0 6.08-2.95 6.08-4.88 0-5.2.25-13.92.25-22.07 1.67 2.95 3.2 6.39 5.52 10.87 2.64 5.2 5.05 10.23 6.97 13.84.47.96 2.64 1.83 3.9 1.83 1.53 0 5.36-2.39 5.36-4.47 0-1.36-4.15-8.96-6.54-13.6-2.41-4.65-5.2-9.83-6.9-13.36zm0 0"/></symbol><symbol overflow="visible" id="b136f0a0f"><path d="M4.95-3.92C5.12-1.05 6.23-.16 7.92-.16H9.2c2.72 0 10.96.32 15.44.32 2.08 0 5.13-2.8 5.13-4.72v-1.2c0-1.04-2.33-3.52-4.97-3.52-2.49 0-3.36.33-5.6.33-1.51 0-2.32-.1-4.07-.33-.41-4.49-.57-9.28-.57-15.36.8-.08 1.44-.08 2.16-.08.97 0 3.76.24 5.6.24 2.32 0 5.37-2.96 5.37-4.72v-1.03c0-1.54-2.17-2.97-3.92-3.2-2.82-.34-6.08-.16-9.2-.34 0-5.59.15-11.18.3-15.82.82-.1 1.54-.18 2.57-.18 1.84 0 4.25.49 6.56.49 1.69 0 4.48-2.64 4.48-4.31v-1.05c0-1.67-2.07-3.44-4.89-3.67-4.71-.4-8-.56-12.8-.56H9.06c-2.1 0-3.61 2.46-3.77 4.07-.23 2.32-.87 14.64-.87 23.11v4.49c0 5.68.15 15.84.54 23.28zm0 0"/></symbol><symbol overflow="visible" id="b136f0a0g"><path d="M4.23-4.4C4.23-1.53 6.72.3 8.41.3h2.3c2.73 0 12.34 0 16.8-.39 2-.23 4.26-3.04 4.26-4.8v-.71c0-1.46-2.41-2.64-4.41-2.82-2.16-.15-5.05-.15-8.56-.15-1.52 0-2.8-.08-4.57-.16.25-5.12.33-11.36.33-17.84.8-.08 3.52-.08 4.24-.08 2.25 0 3.04 0 4.89-.16 2.54-.25 5.51-2.32 5.51-3.92v-1.05c0-1.67-2.4-3.43-3.92-3.43-2.08 0-4.33.25-5.84.25-1.13 0-3.92 0-4.88-.17v-1.04c0-6.48-.15-10.07-.15-13.92.64-.23 3.18-.48 4.46-.48 2.9 0 4.72-.16 7.05-.31 1.92-.18 4.4-2.41 4.4-4.41v-.56c0-1.52-2.48-3.75-4.4-3.68-3.84.08-10.72.16-14.72.65-3.12.39-7.36 2.15-7.36 4.07 0 5.28.57 14.96.57 23.44v9.13c0 5.67-.18 10.39-.18 17.82zm0 0"/></symbol><symbol overflow="visible" id="b136f0a0h"><path d="M3.92-4c0 2.16 1.44 4.56 3.6 4.56h1.12c2.16 0 5.52-3.92 5.6-5.28.17-3.12.24-6.8.32-12 10.88-1.69 22.16-9.05 22.16-23.69 0-11.36-6.95-18.23-17.84-18.23-3.11 0-6.4.48-8.72 1.05-3.44.8-4.16 3.82-4.47 6.47C4.95-45.05 4.4-33.7 4.4-24.8v1.68c0 10.17-.49 12.89-.49 19.12zm10.64-30.16c0-5.68.56-10.25.72-14.89.8-.3 2-.47 3.13-.47 5.67 0 8 3.2 8 8.72 0 9.28-4.25 13.44-11.85 15.28zm0 0"/></symbol><symbol overflow="visible" id="b136f0a0i"><path d="M14.48-3.52c0-3.84 0-10.4.08-16.8 2.4 5.12 7.13 12.09 11.75 18.48 1.2 1.68 2.49 2.8 4.1 2.8h.87c1.6 0 4.88-3.2 4.88-4.65 0-1.51-2.4-5.19-4.4-8.08-3.92-5.59-6.56-9.03-8.64-13.1 8.8-3.85 12.4-9.77 12.4-16.72 0-10.41-7.29-17.77-15.29-17.77-1.67 0-3.1.4-5.82.4-2.41 0-4.49-.09-5.36-.09-3.46 0-5.2 2.64-5.2 5.28 0 1.77.3 2.97.56 4.08V-24c0 10.16-.33 15.92-.33 22.16 0 2.15 2.64 3.36 2.64 3.36h1.12c2.32 0 6.64-2.65 6.64-5.04zm.08-30.64c0-5.68-.25-11.12-.56-15.76 1.44-.16 3.2-.31 4.31-.31 4 0 6.9 3.51 6.9 7.51 0 4.8-.9 7.67-5.85 10.31-1.6.9-3.52 1.85-4.8 3.13zm0 0"/></symbol><symbol overflow="visible" id="b136f0a0j"><path d="M3.83 0v-5.95H6.2v-.82H.45v.82h2.4V0zm0 0"/></symbol><symbol overflow="visible" id="b136f0a0k"><path d="M5.75-2.23v-.43c0-1.6-.9-2.51-2.42-2.51S.87-4.16.87-2.48c0 1.71.91 2.62 2.5 2.62 1.43 0 2.07-.56 2.29-1.52l-.9-.09c-.18.61-.59.9-1.35.9-.94 0-1.52-.54-1.58-1.66zm-2.4-2.2c.93 0 1.43.5 1.48 1.55H1.84c.08-1.07.6-1.56 1.5-1.56zm0 0"/></symbol><symbol overflow="visible" id="b136f0a0l"><path d="M1.83 0l1.42-2h.06l1.46 2H5.8L4-2.53l1.78-2.49H4.8L3.42-3.08h-.08l-1.4-1.94H.89l1.78 2.49L.84 0zm0 0"/></symbol><symbol overflow="visible" id="b136f0a0m"><path d="M5.52-4.25v-.77H3.17v-1.56h-.81l-.14 1.56H.75v.77h1.47v2.4c0 1.3.48 1.94 1.84 1.94C4.6.1 5.14 0 5.55-.14L5.4-.91c-.32.13-.72.2-1.13.2-.8 0-1.1-.37-1.1-1.23v-2.31zm0 0"/></symbol><symbol overflow="visible" id="b136f0a0n"><path d="M3.33-3.42c.47 0 .8-.27.8-.8 0-.51-.33-.8-.8-.8-.47 0-.8.29-.8.8 0 .53.33.8.8.8zm0 3.5c.47 0 .8-.27.8-.78 0-.53-.33-.82-.8-.82-.47 0-.8.29-.8.82 0 .51.33.78.8.78zm0 0"/></symbol><symbol overflow="visible" id="b136f0a0p"><path d="M3.9.14c1.48 0 2.18-.98 2.18-2.64 0-1.67-.7-2.66-2.17-2.66-.91 0-1.49.41-1.79 1h-.06v-2.98h-.95V0h.81l.11-.9h.06c.29.63.82 1.04 1.82 1.04zm-.32-.8c-1.08 0-1.55-.8-1.55-1.84 0-1.06.47-1.86 1.55-1.86 1.1 0 1.51.61 1.51 1.86S4.64-.66 3.58-.66zm0 0"/></symbol><symbol overflow="visible" id="b136f0a0q"><path d="M3.33.14c1.62 0 2.5-.95 2.5-2.66 0-1.68-.88-2.64-2.5-2.64-1.63 0-2.5.96-2.5 2.64 0 1.7.87 2.66 2.5 2.66zm0-.77c-1.06 0-1.52-.6-1.52-1.89 0-1.28.46-1.87 1.52-1.87 1.08 0 1.53.6 1.53 1.87 0 1.29-.45 1.9-1.53 1.9zm0 0"/></symbol><symbol overflow="visible" id="b136f0a0r"><path d="M5.77-5.02H4.63L2.3-2.88h-.06v-4.26h-.94V0h.94v-2.31h.06L4.71 0h1.24L3.23-2.69zm0 0"/></symbol><symbol overflow="visible" id="b136f0a0s"><path d="M2.06 1.9V-.84h.05c.28.58.8.97 1.77.97 1.5 0 2.2-.98 2.2-2.66 0-1.65-.7-2.64-2.19-2.64-.97 0-1.5.44-1.78 1.05h-.08l-.1-.9H1.1v6.9zm1.5-2.56c-1.06 0-1.53-.8-1.53-1.86 0-1.04.47-1.84 1.53-1.84 1.11 0 1.53.61 1.53 1.84 0 1.27-.42 1.86-1.53 1.86zm0 0"/></symbol><symbol overflow="visible" id="b136f0a0t"><path d="M5.08-5.16c-.94 0-1.58.43-1.9 1.3h-.09l-.07-1.16H1.05v.77h1.1v3.48H.96V0h3.96v-.77H3.1v-1.46c0-1.36.6-2.05 1.83-2.05.4 0 .76.08 1.1.17l.15-.87c-.33-.11-.7-.18-1.11-.18zm0 0"/></symbol><symbol overflow="visible" id="b136f0a0u"><path d="M5.95-6.77H1.1V0h.99v-2.92H5.3v-.77H2.08v-2.26h3.87zm0 0"/></symbol><symbol overflow="visible" id="b136f0a0v"><path d="M2.83.14c.94 0 1.5-.39 1.81-.95h.08l.1.81h.76v-3.38c0-1.23-.69-1.8-2.13-1.8-1.43 0-2.03.65-2.18 1.6l.93.1c.11-.6.44-.93 1.22-.93.85 0 1.22.32 1.22 1.04v.34l-1.81.2C1.6-2.7 1.1-2.17 1.1-1.28c0 .92.64 1.42 1.72 1.42zm.25-.77c-.67 0-1.02-.28-1.02-.74 0-.44.28-.72 1-.82l1.58-.19v.41c0 .8-.6 1.34-1.56 1.34zm0 0"/></symbol><symbol overflow="visible" id="b136f0a0w"><path d="M2.73.14c.9 0 1.43-.45 1.74-1.08h.06l.13.94h.8v-5.02h-.94v2.7c0 .98-.57 1.62-1.46 1.62-.75 0-1.1-.4-1.1-1.22v-3.1h-.93v3.32c0 1.17.55 1.84 1.7 1.84zm0 0"/></symbol><symbol overflow="visible" id="b136f0a0x"><path d="M4.06-2.77c1.25-.04 1.92-.7 1.92-1.96 0-1.36-.7-2.04-2.17-2.04H.92V0h.97v-2.73h1.08L4.95 0h1.1zM1.9-6h1.7c1.07 0 1.46.34 1.46 1.28 0 .9-.44 1.27-1.47 1.27H1.89zm0 0"/></symbol><symbol overflow="visible" id="b136f0a0y"><path d="M2.16 0v-2.67c0-.99.59-1.63 1.46-1.63.74 0 1.07.38 1.07 1.22V0h.95v-3.31c0-1.2-.56-1.85-1.67-1.85-.92 0-1.49.46-1.77 1.08h-.06l-.12-.94H1.2V0zm0 0"/></symbol><symbol overflow="visible" id="b136f0a0z"><path d="M2.84.14C3.8.14 4.33-.26 4.6-.9h.07L4.8 0h.76v-7.14h-.95v2.95h-.08c-.28-.6-.86-.97-1.67-.97-1.48 0-2.27.99-2.27 2.64C.6-.84 1.36.14 2.84.14zm.22-.8c-.98 0-1.48-.59-1.48-1.84s.5-1.86 1.48-1.86c1.13 0 1.58.8 1.58 1.86S4.2-.66 3.06-.66zm0 0"/></symbol><symbol overflow="visible" id="b136f0a0A"><path d="M1.63 0v-2.9c0-.8.15-1.4.71-1.4.41 0 .55.3.55.88V0h.95v-2.9c0-.8.18-1.4.72-1.4.4 0 .57.3.57.88V0h.95v-3.63c0-.92-.28-1.53-1.11-1.53-.63 0-.95.41-1.1.9h-.06c-.1-.52-.44-.9-1.08-.9-.6 0-.93.41-1.06.9H1.6l-.23-.76H.67V0zm0 0"/></symbol><symbol overflow="visible" id="b136f0a0B"><path d="M3.58-5.81c.42 0 .72-.22.72-.67 0-.44-.3-.68-.72-.68-.44 0-.72.24-.72.68 0 .45.28.67.72.67zm.5.8H1.52v.76h1.6v3.48h-1.8V0h4.46v-.77h-1.7zm0 0"/></symbol><symbol overflow="visible" id="b136f0a0C"><path d="M3.36.16c1.4 0 2.2-.6 2.2-1.57 0-.89-.54-1.22-1.47-1.39L3-3c-.67-.14-.86-.33-.86-.73 0-.5.4-.74 1.17-.74.83 0 1.19.27 1.27.8l.9-.05c-.12-1-.8-1.47-2.17-1.47-1.34 0-2.1.53-2.1 1.5 0 .81.45 1.22 1.52 1.44l1.04.2c.56.11.87.24.87.72 0 .52-.45.78-1.28.78-.95 0-1.36-.28-1.42-.87l-.9.06C1.07-.36 1.8.16 3.35.16zm0 0"/></symbol><symbol overflow="visible" id="b136f0a0D"><path d="M3.92-7.14H1.36v.76h1.6v5.61H1.15V0H5.7v-.77H3.92zm0 0"/></symbol><symbol overflow="visible" id="b136f0a0E"><path d="M3.9 0l2-5.02h-.96L3.4-.94h-.07L1.8-5.02H.77L2.78 0zm0 0"/></symbol><symbol overflow="visible" id="b136f0a0F"><path d="M1.45-2.95c0 2.56 1.08 4.37 3.67 4.84l.11-.67C3.28.86 2.43-.75 2.43-2.95s.85-3.82 2.8-4.16l-.1-.69c-2.6.49-3.68 2.3-3.68 4.85zm0 0"/></symbol><symbol overflow="visible" id="b136f0a0G"><path d="M2.44 0l.87-3.31h.06L4.25 0H5.3l1.03-5.02h-.88l-.73 3.94h-.08L3.77-4.4h-.85l-.87 3.33h-.08l-.75-3.94H.34L1.36 0zm0 0"/></symbol><symbol overflow="visible" id="b136f0a0H"><path d="M3.42-.86h-.08L1.77-5.02H.8L2.73 0h.41c-.33.95-.72 1.27-1.45 1.27-.22 0-.49-.04-.69-.08l-.1.73c.2.06.58.11.87.11 1.2 0 1.7-.7 2.21-2.03l1.94-5.02H5zm0 0"/></symbol><symbol overflow="visible" id="b136f0a0I"><path d="M1.45-7.1c1.96.33 2.8 1.94 2.8 4.15 0 2.2-.84 3.8-2.8 4.17l.11.67c2.58-.47 3.67-2.28 3.67-4.84 0-2.55-1.09-4.36-3.67-4.85zm0 0"/></symbol></defs><use xlink:href="#b136f0a0a" x="116.8" y="164" fill="#515151"/><use xlink:href="#b136f0a0b" x="154.8" y="164" fill="#fff"/><use xlink:href="#b136f0a0c" x="194.88" y="164" fill="#fff"/><use xlink:href="#b136f0a0d" x="235.92" y="164" fill="#fff"/><use xlink:href="#b136f0a0e" x="272.08" y="164" fill="#fff"/><use xlink:href="#b136f0a0f" x="309.36" y="164" fill="#fff"/><use xlink:href="#b136f0a0g" x="340.72" y="164" fill="#fff"/><use xlink:href="#b136f0a0h" x="374.08" y="164" fill="#515151"/><use xlink:href="#b136f0a0g" x="412.56" y="164" fill="#515151"/><use xlink:href="#b136f0a0i" x="445.92" y="164" fill="#515151"/><g fill="#fff"><use xlink:href="#b136f0a0j" x="246.6667" y="252"/><use xlink:href="#b136f0a0k" x="253.3337" y="252"/><use xlink:href="#b136f0a0l" x="260.0007" y="252"/><use xlink:href="#b136f0a0m" x="266.6677" y="252"/><use xlink:href="#b136f0a0n" x="273.3347" y="252"/><use xlink:href="#b136f0a0o" x="280.0017" y="252"/><use xlink:href="#b136f0a0p" x="286.6687" y="252"/><use xlink:href="#b136f0a0q" x="293.3357" y="252"/><use xlink:href="#b136f0a0q" x="300.0027" y="252"/><use xlink:href="#b136f0a0r" x="306.6697" y="252"/><use xlink:href="#b136f0a0r" x="313.3367" y="252"/><use xlink:href="#b136f0a0k" x="320.0037" y="252"/><use xlink:href="#b136f0a0k" x="326.6707" y="252"/><use xlink:href="#b136f0a0s" x="333.3377" y="252"/><use xlink:href="#b136f0a0k" x="340.0047" y="252"/><use xlink:href="#b136f0a0t" x="346.6717" y="252"/></g><g fill="#fff"><use xlink:href="#b136f0a0u" x="143.3333" y="266"/><use xlink:href="#b136f0a0k" x="150.0003" y="266"/><use xlink:href="#b136f0a0v" x="156.6673" y="266"/><use xlink:href="#b136f0a0m" x="163.3343" y="266"/><use xlink:href="#b136f0a0w" x="170.0013" y="266"/><use xlink:href="#b136f0a0t" x="176.6683" y="266"/><use xlink:href="#b136f0a0k" x="183.3353" y="266"/><use xlink:href="#b136f0a0n" x="190.0023" y="266"/><use xlink:href="#b136f0a0o" x="196.6693" y="266"/><use xlink:href="#b136f0a0x" x="203.3363" y="266"/><use xlink:href="#b136f0a0v" x="210.0033" y="266"/><use xlink:href="#b136f0a0y" x="216.6703" y="266"/><use xlink:href="#b136f0a0z" x="223.3373" y="266"/><use xlink:href="#b136f0a0q" x="230.0043" y="266"/><use xlink:href="#b136f0a0A" x="236.6713" y="266"/><use xlink:href="#b136f0a0B" x="243.3383" y="266"/><use xlink:href="#b136f0a0C" x="250.0053" y="266"/><use xlink:href="#b136f0a0k" x="256.6723" y="266"/><use xlink:href="#b136f0a0z" x="263.3393" y="266"/><use xlink:href="#b136f0a0o" x="270.0063" y="266"/><use xlink:href="#b136f0a0D" x="276.6733" y="266"/><use xlink:href="#b136f0a0k" x="283.3403" y="266"/><use xlink:href="#b136f0a0m" x="290.0073" y="266"/><use xlink:href="#b136f0a0m" x="296.6743" y="266"/><use xlink:href="#b136f0a0k" x="303.3413" y="266"/><use xlink:href="#b136f0a0t" x="310.0083" y="266"/><use xlink:href="#b136f0a0o" x="316.6753" y="266"/><use xlink:href="#b136f0a0E" x="323.3423" y="266"/><use xlink:href="#b136f0a0v" x="330.0093" y="266"/><use xlink:href="#b136f0a0t" x="336.6763" y="266"/><use xlink:href="#b136f0a0B" x="343.3433" y="266"/><use xlink:href="#b136f0a0v" x="350.0103" y="266"/><use xlink:href="#b136f0a0y" x="356.6773" y="266"/><use xlink:href="#b136f0a0m" x="363.3443" y="266"/><use xlink:href="#b136f0a0C" x="370.0113" y="266"/><use xlink:href="#b136f0a0o" x="376.6783" y="266"/><use xlink:href="#b136f0a0F" x="383.3453" y="266"/><use xlink:href="#b136f0a0v" x="390.0123" y="266"/><use xlink:href="#b136f0a0D" x="396.6793" y="266"/><use xlink:href="#b136f0a0G" x="403.3463" y="266"/><use xlink:href="#b136f0a0v" x="410.0133" y="266"/><use xlink:href="#b136f0a0H" x="416.6803" y="266"/><use xlink:href="#b136f0a0C" x="423.3473" y="266"/><use xlink:href="#b136f0a0o" x="430.0143" y="266"/><use xlink:href="#b136f0a0q" x="436.6813" y="266"/><use xlink:href="#b136f0a0y" x="443.3483" y="266"/><use xlink:href="#b136f0a0I" x="450.0153" y="266"/></g></svg>