<?xml version='1.0' encoding='UTF-8'?>
<svg xmlns="http://www.w3.org/2000/svg" xmlns:xlink="http://www.w3.org/1999/xlink" width="600px" height="300px" viewBox="0 0 600 300" x="0px" y="0px" enable-background="new 0 0 600 300"><defs><symbol overflow="visible" id="5fa9e681a"><path d="M25.77-2.88c0 1.2 3.1 3.83 4.3 3.83h.65c2 0 5.6-3.03 5.6-4.23 0-6.08-.24-13.44-.24-22.31v-4.33c0-8.64.33-19.2.33-24.72 0-2.23-2.41-3.77-6.57-3.77-2.07 0-2.64.41-3.04 3.13-.24 1.84-.72 12.08-.8 20.33-2.48.54-5.69 1.1-9.84 1.1h-1.6v-1.43c0-7.92.72-12.8.72-19.67 0-2.49-1.36-3.92-5.36-3.92-3.44 0-4.4 1.18-4.72 3.82-.72 6.1-.8 12.49-.8 21.36v5.61c0 10.16-.48 18.4-.48 23.2 0 2.4 2.72 5.52 4.24 5.52h.48c2.4 0 5.67-4 5.67-6.16 0-4.89.17-11.84.25-19.2H16c3.13 0 7.05-.8 9.92-1.69v5.05c0 5.67-.15 11.05-.15 18.48zm0 0"/></symbol><symbol overflow="visible" id="5fa9e681b"><path d="M17.44-63.36c1.43 0 12-6.56 12-8.87 0-2.33-2-5.13-4.72-5.13-2.72 0-10.49 9.36-10.49 10.72 0 1.05 1.77 3.28 3.2 3.28zm8.87 8.48c-.31-1.68-1.18-3.6-3.36-3.6-2 0-5.03.25-5.82 2.48-2 5.6-6.65 20.88-8.18 25.77C7.44-25.36.23-6.16.23-4.16c0 1.68 2.33 5.85 4.25 5.85h.64c1.52 0 3.75-1.77 4.16-2.74.31-.72 1.36-4.47 2.72-9.18h2.16c3.92 0 10.89-1.54 13.76-1.61 1.03 4.8 2 9.04 2.64 11.36C30.88.64 31.6.87 33.13.87c1.51 0 6.95-1.75 6.95-3.75s-1.03-6.8-4.24-18.4c-2.48-9.03-7.36-24.88-9.53-33.6zm-5.6 15.36l.24.08c1.28 5.52 3.2 12.64 4.97 19.36-2.4.49-5.6.88-10.08.88h-1.2c2.16-7.28 4.56-15.2 6.08-20.32zm0 0"/></symbol><symbol overflow="visible" id="5fa9e681c"><path d="M4.88-3.28C4.95-1.84 6.16-.23 7.44-.23h.97c2.71 0 6.8-2.41 6.8-4.72 0-5.28-.09-9.28-.9-17.77L13.12-36.4l.24-.15A5751.3 5751.3 0 0029.92-3.52c.4.96.8 1.75 1.28 2.24.08 1.28.16 2.33.16 3.2-.8 3.2-3.2 5.36-5.36 5.36-3.13 0-5.69-2.16-7.52-2.16-1.68 0-3.04 4-3.04 6.16 0 2 2.87 2.88 5.76 3.77 3.2.95 5.2 1.36 6.8 1.36 2.8 0 4.4-1.54 6.95-3.93 2.74-2.48 5.28-6.56 5.28-9.76 0-6.08-.15-11.85-.15-20.72v-14.56c0-9.85-.08-14.88-.64-22.8-.16-1.84-1.13-3.36-2.72-3.36h-1.03c-1.92 0-5.85 2.31-5.85 4.72 0 4.48.24 13.44.64 21.92l.4 9.85-.24.15c-3.12-7.05-6.16-12.8-8.72-18-1.84-3.69-5.05-9.28-6.4-12.15-1.29-3.61-2.47-5.93-4.4-5.93h-.8c-2.16 0-4.96 1.75-5.2 4.08-.56 4.24-.71 10.64-.71 19.52v7.92c0 10.16.07 14.95.46 23.36zm0 0"/></symbol><symbol overflow="visible" id="5fa9e681d"><path d="M3.05-26.31C3.05-9.6 9.59.56 21.28.56c9.13 0 14.08-5.04 14.24-10 .07-3.04.17-4.64.17-7.6 0-3.68.23-6.55.23-9.12 0-3.12-1.92-4.32-4.72-4.32-1.68 0-3.6-.32-6.97-.32-3.18 0-5.1 3.44-5.1 6.08 0 2.4.64 3.03 2.39 3.36 1.28.23 3.6.31 4.32.4-.15 3.76-.32 6.55-.48 8.16-.16 1.44-.88 3.68-4.56 3.68-3.44 0-7.36-4.08-7.36-17.11 0-17.13 5.84-23.85 10.72-23.85 2.89 0 4.89 1.85 7.43 1.85 1.77 0 4-3.61 4-5.93s-4.3-5.36-11.51-5.36c-11.2 0-21.03 13.11-21.03 33.2zm0 0"/></symbol><symbol overflow="visible" id="5fa9e681e"><path d="M4.95-12.56C5.6-4.87 10.8.16 20.56.16c8 0 15.03-5.6 15.03-14.47 0-6.1-.54-9.92-.54-18.81v-1.11c0-7.93-.1-13.05-.33-19.93-.08-2.25-1.28-4.48-3.6-4.48H30c-2.95 0-5.36 2.4-5.36 4.56 0 6.08.23 12.56.23 21.44v3.92c0 4.56.33 7.36.33 12.56 0 4.57-1.12 6.64-4.72 6.64-3.36 0-4.89-1.92-5.28-5.43a139 139 0 01-.64-14.74v-4.72c0-8.64.31-15.18.31-20.72 0-2.23-1.43-3.92-3.1-3.92h-.97c-1.85 0-5.11 2.4-5.52 4.4-.33 2.24-.87 11.21-.87 19.7v2.08c0 10.15.15 15.51.54 20.3zm0 0"/></symbol><symbol overflow="visible" id="5fa9e681f"><path d="M3.83 0v-5.95H6.2v-.82H.45v.82h2.4V0zm0 0"/></symbol><symbol overflow="visible" id="5fa9e681g"><path d="M5.75-2.23v-.43c0-1.6-.9-2.51-2.42-2.51S.87-4.16.87-2.48c0 1.71.91 2.62 2.5 2.62 1.43 0 2.07-.56 2.29-1.52l-.9-.09c-.18.61-.59.9-1.35.9-.94 0-1.52-.54-1.58-1.66zm-2.4-2.2c.93 0 1.43.5 1.48 1.55H1.84c.08-1.07.6-1.56 1.5-1.56zm0 0"/></symbol><symbol overflow="visible" id="5fa9e681h"><path d="M1.83 0l1.42-2h.06l1.46 2H5.8L4-2.53l1.78-2.49H4.8L3.42-3.08h-.08l-1.4-1.94H.89l1.78 2.49L.84 0zm0 0"/></symbol><symbol overflow="visible" id="5fa9e681i"><path d="M5.52-4.25v-.77H3.17v-1.56h-.81l-.14 1.56H.75v.77h1.47v2.4c0 1.3.48 1.94 1.84 1.94C4.6.1 5.14 0 5.55-.14L5.4-.91c-.32.13-.72.2-1.13.2-.8 0-1.1-.37-1.1-1.23v-2.31zm0 0"/></symbol><symbol overflow="visible" id="5fa9e681j"><path d="M3.33-3.42c.47 0 .8-.27.8-.8 0-.51-.33-.8-.8-.8-.47 0-.8.29-.8.8 0 .53.33.8.8.8zm0 3.5c.47 0 .8-.27.8-.78 0-.53-.33-.82-.8-.82-.47 0-.8.29-.8.82 0 .51.33.78.8.78zm0 0"/></symbol><symbol overflow="visible" id="5fa9e681l"><path d="M2.16 0v-2.69c0-.98.6-1.6 1.46-1.6.74 0 1.07.4 1.07 1.2V0h.95v-3.31c0-1.17-.56-1.85-1.67-1.85-.9 0-1.44.46-1.75 1.08h-.06v-3.06H1.2V0zm0 0"/></symbol><symbol overflow="visible" id="5fa9e681m"><path d="M3.78-5.72L5.1-7.8h-.96L3.01-5.72zM2.83.14c.94 0 1.5-.39 1.81-.95h.08l.1.81h.76v-3.38c0-1.23-.69-1.8-2.13-1.8-1.43 0-2.03.65-2.18 1.6l.93.1c.11-.6.44-.93 1.22-.93.85 0 1.22.32 1.22 1.04v.34l-1.81.2C1.6-2.7 1.1-2.17 1.1-1.28c0 .92.64 1.42 1.72 1.42zm.25-.77c-.67 0-1.02-.28-1.02-.74 0-.44.28-.72 1-.82l1.58-.19v.41c0 .8-.6 1.34-1.56 1.34zm0 0"/></symbol><symbol overflow="visible" id="5fa9e681n"><path d="M4.1 1.73c1.09 0 1.54-.65 1.54-1.89V-3.3c0-1.17-.55-1.85-1.67-1.85-.9 0-1.49.43-1.77 1.08h-.06l-.12-.94H1.2V0h.96v-2.69c0-.95.59-1.6 1.45-1.6.75 0 1.08.37 1.08 1.2v2.93C4.69.6 4.5.97 3.9.97c-.14 0-.35-.02-.49-.05l-.1.72c.24.05.52.1.79.1zm0 0"/></symbol><symbol overflow="visible" id="5fa9e681o"><path d="M3.16 2.03c1.67 0 2.4-.86 2.4-2.51v-4.54h-.81l-.13.91h-.06c-.26-.58-.8-1.05-1.73-1.05-1.42 0-2.24 1-2.24 2.52 0 1.6.75 2.56 2.2 2.56.94 0 1.5-.5 1.77-1.03h.05v.72c0 1.17-.42 1.67-1.45 1.67-.93 0-1.3-.34-1.41-.89L.8.5c.12.96.87 1.54 2.36 1.54zM3.06-.8c-.98 0-1.48-.57-1.48-1.82 0-1.13.5-1.75 1.48-1.75 1.06 0 1.58.76 1.58 1.75 0 .95-.56 1.82-1.58 1.82zm0 0"/></symbol><symbol overflow="visible" id="5fa9e681p"><path d="M2.73.14c.9 0 1.43-.45 1.74-1.08h.06l.13.94h.8v-5.02h-.94v2.7c0 .98-.57 1.62-1.46 1.62-.75 0-1.1-.4-1.1-1.22v-3.1h-.93v3.32c0 1.17.55 1.84 1.7 1.84zm0 0"/></symbol><symbol overflow="visible" id="5fa9e681q"><path d="M5.95-6.77H1.1V0h.99v-2.92H5.3v-.77H2.08v-2.26h3.87zm0 0"/></symbol><symbol overflow="visible" id="5fa9e681r"><path d="M2.83.14c.94 0 1.5-.39 1.81-.95h.08l.1.81h.76v-3.38c0-1.23-.69-1.8-2.13-1.8-1.43 0-2.03.65-2.18 1.6l.93.1c.11-.6.44-.93 1.22-.93.85 0 1.22.32 1.22 1.04v.34l-1.81.2C1.6-2.7 1.1-2.17 1.1-1.28c0 .92.64 1.42 1.72 1.42zm.25-.77c-.67 0-1.02-.28-1.02-.74 0-.44.28-.72 1-.82l1.58-.19v.41c0 .8-.6 1.34-1.56 1.34zm0 0"/></symbol><symbol overflow="visible" id="5fa9e681s"><path d="M5.08-5.16c-.94 0-1.58.43-1.9 1.3h-.09l-.07-1.16H1.05v.77h1.1v3.48H.96V0h3.96v-.77H3.1v-1.46c0-1.36.6-2.05 1.83-2.05.4 0 .76.08 1.1.17l.15-.87c-.33-.11-.7-.18-1.11-.18zm0 0"/></symbol><symbol overflow="visible" id="5fa9e681t"><path d="M6.17 0L3.98-6.77h-1.3L.5 0h.97l.44-1.47h2.78L5.16 0zM3.28-5.94h.08l1.1 3.74H2.15zm0 0"/></symbol><symbol overflow="visible" id="5fa9e681u"><path d="M3.92-7.14H1.36v.76h1.6v5.61H1.15V0H5.7v-.77H3.92zm0 0"/></symbol><symbol overflow="visible" id="5fa9e681v"><path d="M2.16 0v-2.67c0-.99.59-1.63 1.46-1.63.74 0 1.07.38 1.07 1.22V0h.95v-3.31c0-1.2-.56-1.85-1.67-1.85-.92 0-1.49.46-1.77 1.08h-.06l-.12-.94H1.2V0zm0 0"/></symbol><symbol overflow="visible" id="5fa9e681w"><path d="M3.58-5.81c.42 0 .72-.22.72-.67 0-.44-.3-.68-.72-.68-.44 0-.72.24-.72.68 0 .45.28.67.72.67zm.5.8H1.52v.76h1.6v3.48h-1.8V0h4.46v-.77h-1.7zm0 0"/></symbol><symbol overflow="visible" id="5fa9e681x"><path d="M3.9 0l2-5.02h-.96L3.4-.94h-.07L1.8-5.02H.77L2.78 0zm0 0"/></symbol><symbol overflow="visible" id="5fa9e681y"><path d="M4.63-6.5c.45 0 .98.08 1.39.2l.2-.72a5.3 5.3 0 00-1.64-.26c-1.52 0-2.16.56-2.16 1.87v.4H.9v.76h1.53V0h.94v-4.25h2.53v-.77H3.36v-.3c0-.84.33-1.18 1.27-1.18zm0 0"/></symbol><symbol overflow="visible" id="5fa9e681z"><path d="M3.33.14c1.62 0 2.5-.95 2.5-2.66 0-1.68-.88-2.64-2.5-2.64-1.63 0-2.5.96-2.5 2.64 0 1.7.87 2.66 2.5 2.66zm0-.77c-1.06 0-1.52-.6-1.52-1.89 0-1.28.46-1.87 1.52-1.87 1.08 0 1.53.6 1.53 1.87 0 1.29-.45 1.9-1.53 1.9zm0 0"/></symbol><symbol overflow="visible" id="5fa9e681A"><path d="M1.63 0v-2.9c0-.8.15-1.4.71-1.4.41 0 .55.3.55.88V0h.95v-2.9c0-.8.18-1.4.72-1.4.4 0 .57.3.57.88V0h.95v-3.63c0-.92-.28-1.53-1.11-1.53-.63 0-.95.41-1.1.9h-.06c-.1-.52-.44-.9-1.08-.9-.6 0-.93.41-1.06.9H1.6l-.23-.76H.67V0zm0 0"/></symbol><symbol overflow="visible" id="5fa9e681B"><path d="M3.38-5.9c.12-.5.42-1.04.67-1.41l-.63-.22a4.28 4.28 0 00-1.01 2.39c0 .66.3 1 .9 1 .6 0 .9-.33.9-.9 0-.57-.32-.83-.83-.85zm0 0"/></symbol><symbol overflow="visible" id="5fa9e681C"><path d="M5.92-6.77H1.1V0h4.83v-.8H2.06v-2.26h3.22v-.75H2.06v-2.16h3.86zm0 0"/></symbol><symbol overflow="visible" id="5fa9e681D"><path d="M3.3-7.53c-.55 0-.85.3-.85.84 0 .55.36.8.83.8h.03a5.1 5.1 0 01-.69 1.47l.52.23a4.29 4.29 0 001.02-2.4c0-.63-.33-.94-.86-.94zm0 0"/></symbol><symbol overflow="visible" id="5fa9e681E"><path d="M1.45-2.95c0 2.56 1.08 4.37 3.67 4.84l.11-.67C3.28.86 2.43-.75 2.43-2.95s.85-3.82 2.8-4.16l-.1-.69c-2.6.49-3.68 2.3-3.68 4.85zm0 0"/></symbol><symbol overflow="visible" id="5fa9e681F"><path d="M3.36.16c1.4 0 2.2-.6 2.2-1.57 0-.89-.54-1.22-1.47-1.39L3-3c-.67-.14-.86-.33-.86-.73 0-.5.4-.74 1.17-.74.83 0 1.19.27 1.27.8l.9-.05c-.12-1-.8-1.47-2.17-1.47-1.34 0-2.1.53-2.1 1.5 0 .81.45 1.22 1.52 1.44l1.04.2c.56.11.87.24.87.72 0 .52-.45.78-1.28.78-.95 0-1.36-.28-1.42-.87l-.9.06C1.07-.36 1.8.16 3.35.16zm0 0"/></symbol><symbol overflow="visible" id="5fa9e681G"><path d="M3.33.14c1.65 0 2.6-1.1 2.6-3.52S4.99-6.9 3.34-6.9C1.67-6.9.72-5.8.72-3.37c0 2.4.95 3.51 2.6 3.51zm0-.84c-1.13 0-1.6-.85-1.6-2.67 0-1.86.47-2.7 1.6-2.7 1.12 0 1.6.84 1.6 2.7 0 1.82-.48 2.67-1.6 2.67zM3.3-2.64c.38 0 .56-.28.56-.72 0-.44-.18-.7-.56-.7-.39 0-.56.26-.56.7 0 .44.17.72.56.72zm0 0"/></symbol><symbol overflow="visible" id="5fa9e681H"><path d="M4.22-6.77h-.86l-2.03.7v.87c.64-.17 1.26-.38 1.89-.55v4.9H1.03V0h4.9v-.86H4.21zm0 0"/></symbol><symbol overflow="visible" id="5fa9e681I"><path d="M1.45-7.1c1.96.33 2.8 1.94 2.8 4.15 0 2.2-.84 3.8-2.8 4.17l.11.67c2.58-.47 3.67-2.28 3.67-4.84 0-2.55-1.09-4.36-3.67-4.85zm0 0"/></symbol></defs><use xlink:href="#5fa9e681a" x="197.64" y="164" fill="#515151"/><use xlink:href="#5fa9e681b" x="238.12" y="164" fill="#515151"/><use xlink:href="#5fa9e681c" x="278.6" y="164" fill="#fff"/><use xlink:href="#5fa9e681d" x="323.08" y="164" fill="#515151"/><use xlink:href="#5fa9e681e" x="362.76" y="164" fill="#515151"/><g fill="#fff"><use xlink:href="#5fa9e681f" x="263.3333" y="252"/><use xlink:href="#5fa9e681g" x="270.0003" y="252"/><use xlink:href="#5fa9e681h" x="276.6673" y="252"/><use xlink:href="#5fa9e681i" x="283.3343" y="252"/><use xlink:href="#5fa9e681j" x="290.0013" y="252"/><use xlink:href="#5fa9e681k" x="296.6683" y="252"/><use xlink:href="#5fa9e681l" x="303.3353" y="252"/><use xlink:href="#5fa9e681m" x="310.0023" y="252"/><use xlink:href="#5fa9e681n" x="316.6693" y="252"/><use xlink:href="#5fa9e681o" x="323.3363" y="252"/><use xlink:href="#5fa9e681p" x="330.0033" y="252"/></g><g fill="#fff"><use xlink:href="#5fa9e681q" x="163.3333" y="266"/><use xlink:href="#5fa9e681g" x="170.0003" y="266"/><use xlink:href="#5fa9e681r" x="176.6673" y="266"/><use xlink:href="#5fa9e681i" x="183.3343" y="266"/><use xlink:href="#5fa9e681p" x="190.0013" y="266"/><use xlink:href="#5fa9e681s" x="196.6683" y="266"/><use xlink:href="#5fa9e681g" x="203.3353" y="266"/><use xlink:href="#5fa9e681j" x="210.0023" y="266"/><use xlink:href="#5fa9e681k" x="216.6693" y="266"/><use xlink:href="#5fa9e681t" x="223.3363" y="266"/><use xlink:href="#5fa9e681u" x="230.0033" y="266"/><use xlink:href="#5fa9e681i" x="236.6703" y="266"/><use xlink:href="#5fa9e681g" x="243.3373" y="266"/><use xlink:href="#5fa9e681s" x="250.0043" y="266"/><use xlink:href="#5fa9e681v" x="256.6713" y="266"/><use xlink:href="#5fa9e681r" x="263.3383" y="266"/><use xlink:href="#5fa9e681i" x="270.0053" y="266"/><use xlink:href="#5fa9e681w" x="276.6723" y="266"/><use xlink:href="#5fa9e681x" x="283.3393" y="266"/><use xlink:href="#5fa9e681g" x="290.0063" y="266"/><use xlink:href="#5fa9e681k" x="296.6733" y="266"/><use xlink:href="#5fa9e681y" x="303.3403" y="266"/><use xlink:href="#5fa9e681z" x="310.0073" y="266"/><use xlink:href="#5fa9e681s" x="316.6743" y="266"/><use xlink:href="#5fa9e681A" x="323.3413" y="266"/><use xlink:href="#5fa9e681k" x="330.0083" y="266"/><use xlink:href="#5fa9e681z" x="336.6753" y="266"/><use xlink:href="#5fa9e681y" x="343.3423" y="266"/><use xlink:href="#5fa9e681k" x="350.0093" y="266"/><use xlink:href="#5fa9e681B" x="356.6763" y="266"/><use xlink:href="#5fa9e681C" x="363.3433" y="266"/><use xlink:href="#5fa9e681v" x="370.0103" y="266"/><use xlink:href="#5fa9e681o" x="376.6773" y="266"/><use xlink:href="#5fa9e681D" x="383.3443" y="266"/><use xlink:href="#5fa9e681k" x="390.0113" y="266"/><use xlink:href="#5fa9e681E" x="396.6783" y="266"/><use xlink:href="#5fa9e681F" x="403.3453" y="266"/><use xlink:href="#5fa9e681F" x="410.0123" y="266"/><use xlink:href="#5fa9e681G" x="416.6793" y="266"/><use xlink:href="#5fa9e681H" x="423.3463" y="266"/><use xlink:href="#5fa9e681I" x="430.0133" y="266"/></g></svg>