<?xml version='1.0' encoding='UTF-8'?>
<svg xmlns="http://www.w3.org/2000/svg" xmlns:xlink="http://www.w3.org/1999/xlink" width="600px" height="300px" viewBox="0 0 600 300" x="0px" y="0px" enable-background="new 0 0 600 300"><defs><symbol overflow="visible" id="fe74b750a"><path d="M8.31-44.31c.74 0 1.53-.81 3.28-2.9 1.36-1.66 3.13-3.35 4.57-3.35 3.6 0 5.68 2.25 5.68 6.8 0 5.35-.96 9.45-5.43 15.12C7.77-17.7 1.59-7.84 1.59-4.31 1.6-1.6 3.2 0 5.77 0c3.75 0 4.95-1.36 6.64-1.36 1.67 0 8.8 1.28 12.95 1.28 3.52 0 7.77-1.2 7.77-4.64 0-3.44-1.13-4.97-5.36-4.97-4.25 0-4.97.4-7.13.4s-4.95-.23-6.56-.63l-.08-.24c2.31-4.25 7.6-10.71 9.6-13.12 5.92-7.13 8.56-12.49 8.56-20.4 0-8.8-6.64-16.24-15.11-16.24-3.77 0-7.05 1.44-10.18 4.72-1.67 1.84-3.75 4.25-3.75 6.56 0 2.33 3.83 4.33 5.2 4.33zm0 0"/></symbol><symbol overflow="visible" id="fe74b750b"><path d="M30.48-56.08c0-1.84-1.53-3.76-6.56-3.76-1.44 0-4.08.15-6.8.15-2.96 0-4.71-.23-5.76-.23-2.48 0-4.72 2.8-5.2 5.84-.4 2.31-.72 9.52-.72 13.36 0 3.28-.24 6.8-.24 8.49 0 3.59 1.28 5.43 4 5.43 1.68 0 2.49-.4 4.64-1.04.57-.16 2.16-.72 3.2-.72 2.65 0 4 2.48 4 7.2 0 11.67-2.16 13.44-5.04 13.44-2.23 0-6.16-4.08-8.64-4.08-1.92 0-4.4 3.05-4.4 5.44 0 .72.17 1.36.73 1.92 3.19 3.05 8.8 5.76 15.03 5.76 5.6 0 12.8-6.25 12.8-21.6 0-13.93-6.88-16.72-11.68-16.72-2.15 0-3.92.89-4.89.97-.15-1.36-.15-2.49-.15-4.18 0-3.67.25-8.64.8-9.9 1.2-.4 1.76-.56 3.6-.56 1.52 0 2.96.46 6.16.46s5.12-2.3 5.12-5.67zm0 0"/></symbol><symbol overflow="visible" id="fe74b750c"><path d="M33.92-58.88c-2.97 4.16-9.44 16.72-14.56 26.65C15.05-23.84 2.4-.16 2.4 1.69c0 1.83 1.43 2.8 2.39 2.8 1.04 0 4.33-.33 5.84-3.37 2.23-4.48 10.48-20.89 15.84-30.64 5.04-9.2 15.04-26.71 15.04-29.04 0-1.75-.8-2.31-1.93-2.31-1.28 0-4.64.46-5.67 2zm-22.4 25.83c2.17 0 2.64-1.03 2.71-2.3.18-2.88.18-5.06.18-9.3v-4.48c0-4.07.23-7.28.23-9.92 0-1.03-1.84-1.75-3.84-1.75-1.28 0-2.4 1.6-3.93 2.57-1.1.71-2.87 1.51-4.39 2.07-.71.24-1.35.8-1.35 1.6 0 1.12 1.18 4.15 2.39 4.15 1.04 0 2.89-.39 4-.87l.25.16c-.08 1.92-.25 4.24-.25 6v1.35c0 2.65-.32 5.61-.32 8.65 0 1.2 2.8 2.07 4.32 2.07zM31.2-20.4c.32 0 .8-.23 1.75-.54.97-.33 1.61-.49 2.25-.49 1.28 0 2.49.96 2.49 2.88 0 2-.74 3.84-3.28 6.25-5.05 4.72-5.77 8-5.77 9.67 0 1.28 1.05 2.4 2.23 2.64 1.77.31 3.2.4 4.82.4 1.6 0 6.23.24 8.23.24 1.6 0 2.24-.64 2.24-2.23 0-1.85-1.28-4.25-3.28-4.25-1.44 0-3.44.4-4.47.4a5.4 5.4 0 01-2-.25l-.1-.23a22.05 22.05 0 014.17-4.64c2.8-2.49 4.16-4.88 4.16-8.64 0-4.32-3.6-8.64-8.33-8.64-1.83 0-3.19.32-4.95 1.12-1.2.56-2.31 1.44-2.31 2.08 0 1.12 1.51 4.23 2.15 4.23zm0 0"/></symbol><symbol overflow="visible" id="fe74b750d"><path d="M33.92-58.88c-2.97 4.16-9.44 16.72-14.56 26.65C15.05-23.84 2.4-.16 2.4 1.69c0 1.83 1.43 2.8 2.39 2.8 1.04 0 4.33-.33 5.84-3.37 2.23-4.48 10.48-20.89 15.84-30.64 5.04-9.2 15.04-26.71 15.04-29.04 0-1.75-.8-2.31-1.93-2.31-1.28 0-4.64.46-5.67 2zM10.64-32.64c2.16 0 4.16-1.05 4.16-2.31 0-2.9-.4-5.46-.4-9.7v-4.48c0-4.07.24-7.28.24-9.92 0-1.03-1.12-1.75-3.12-1.75-1.29 0-2.8 1.28-4.32 2.24-1.12.72-3.76 2.15-4.72 2.8-.71.48-1.35 1.2-1.35 2 0 1.12 1.67 4.17 2.87 4.17 1.05 0 2.16-.9 3.52-1.7l.25.16c-.08 1.93-.25 4.26-.25 6v3.2c0 2.65.07 4.65.25 7.7.07 1.18 1.36 1.59 2.87 1.59zm14.08 19.69c-1.13 1.82-2.16 4.15-2.16 5.03 0 1.76 2.16 4.33 3.75 4.33.33 0 2.9.07 3.46.07 1.28 0 2.71-.07 4.23-.07v3.43c0 1.03 1.2 2.24 1.84 2.24h.47c1.38 0 4.64-1.52 4.64-2.31 0-1.54-.08-2.41-.08-3.54h1.44c1.05 0 2.81-3.18 2.81-4.15v-.31c0-.9-1.35-1.85-2.17-1.85H40.8v-3.12c0-4.08.15-9.03.15-11.85.57-2.07-5.36-3.1-6.39-1.9a141.54 141.54 0 00-9.84 14zm5.12 3.43c.88-1.84 3.11-5.36 5.04-8.56-.16 2.72-.4 5.77-.47 8.49h-3.05c-.48 0-1.05.15-1.52.07zm0 0"/></symbol><symbol overflow="visible" id="fe74b750e"><path d="M35.05-58.88c-2.97 4.16-9.46 16.72-14.57 26.65C16.16-23.84 3.52-.16 3.52 1.69c0 1.83 1.43 2.8 2.4 2.8 1.03 0 4.31-.33 5.85-3.37C14-3.36 22.23-19.77 27.59-29.52c5.05-9.2 15.05-26.71 15.05-29.04 0-1.75-.8-2.31-1.92-2.31-1.28 0-4.64.46-5.67 2zM5.2-53.52c.88 0 2.49-1.53 3.67-1.53 1.2 0 2.33.82 2.33 2.1 0 1.67-1.12 3.03-3.28 4-1.44.64-2.72 1.51-2.72 2.47 0 1.68 1.03 2.8 2.64 2.89 2.24.15 3.75 1.18 3.75 2.8 0 2-1.43 2.95-3.1 2.95-1.62 0-3.05-1.68-3.7-1.68-1.1 0-2.79 2.47-2.79 3.36C2-34.56 4.72-32 9.77-32c5.18 0 8.8-4.23 8.8-8.08 0-3.6-2.09-5.76-5.05-6.64v-.33c2.8-1.51 4.64-3.83 4.64-6.87 0-3.77-2.4-6.88-8.8-6.88-2.48 0-6.64 2-6.64 3.44 0 1.05 1.6 3.84 2.48 3.84zm20.64 40c-1.12 1.83-2.15 4.16-2.15 5.04 0 1.76 2.15 4.32 3.75 4.32.33 0 2.87.08 3.43.08 1.29 0 2.72-.08 4.25-.08v3.44c0 1.03 1.2 2.24 1.83 2.24h.49c1.36 0 4.64-1.52 4.64-2.32 0-1.51-.08-2.4-.08-3.51h1.44c1.04 0 2.8-3.2 2.8-4.17v-.32c0-.89-1.37-1.84-2.16-1.84h-2.16v-3.13c0-4.07.16-9.03.16-11.82.56-2.1-5.36-3.13-6.4-1.93a138.97 138.97 0 00-9.84 14zm5.11 3.44c.9-1.84 3.13-5.36 5.05-8.56-.16 2.72-.4 5.77-.48 8.48h-3.04c-.48 0-1.04.16-1.53.08zm0 0"/></symbol><symbol overflow="visible" id="fe74b750f"><path d="M3.83 0v-5.95H6.2v-.82H.45v.82h2.4V0zm0 0"/></symbol><symbol overflow="visible" id="fe74b750g"><path d="M5.75-2.23v-.43c0-1.6-.9-2.51-2.42-2.51S.87-4.16.87-2.48c0 1.71.91 2.62 2.5 2.62 1.43 0 2.07-.56 2.29-1.52l-.9-.09c-.18.61-.59.9-1.35.9-.94 0-1.52-.54-1.58-1.66zm-2.4-2.2c.93 0 1.43.5 1.48 1.55H1.84c.08-1.07.6-1.56 1.5-1.56zm0 0"/></symbol><symbol overflow="visible" id="fe74b750h"><path d="M1.83 0l1.42-2h.06l1.46 2H5.8L4-2.53l1.78-2.49H4.8L3.42-3.08h-.08l-1.4-1.94H.89l1.78 2.49L.84 0zm0 0"/></symbol><symbol overflow="visible" id="fe74b750i"><path d="M5.52-4.25v-.77H3.17v-1.56h-.81l-.14 1.56H.75v.77h1.47v2.4c0 1.3.48 1.94 1.84 1.94C4.6.1 5.14 0 5.55-.14L5.4-.91c-.32.13-.72.2-1.13.2-.8 0-1.1-.37-1.1-1.23v-2.31zm0 0"/></symbol><symbol overflow="visible" id="fe74b750j"><path d="M3.33-3.42c.47 0 .8-.27.8-.8 0-.51-.33-.8-.8-.8-.47 0-.8.29-.8.8 0 .53.33.8.8.8zm0 3.5c.47 0 .8-.27.8-.78 0-.53-.33-.82-.8-.82-.47 0-.8.29-.8.82 0 .51.33.78.8.78zm0 0"/></symbol><symbol overflow="visible" id="fe74b750l"><path d="M5.67 0v-.86H2.14V-.9L3.6-2c1.05-.83 2-1.68 2-2.91 0-1.19-.73-1.99-2.26-1.99-1.66 0-2.3 1.02-2.44 2.33l1 .08c.1-.92.42-1.58 1.44-1.58.87 0 1.26.44 1.26 1.24 0 .9-.8 1.53-1.96 2.53L.83-.81V0zm0 0"/></symbol><symbol overflow="visible" id="fe74b750m"><path d="M3.42.14c1.55 0 2.44-.84 2.44-2.33 0-1.45-.83-2.22-2.14-2.22-.75 0-1.28.27-1.67.72H2l.31-2.22h3.11v-.86H1.53l-.45 3.93h.81c.3-.36.9-.79 1.58-.79.92 0 1.44.43 1.44 1.47 0 .99-.54 1.5-1.49 1.5-.83 0-1.28-.32-1.5-1.01l-.95.1C1.07-.46 2 .13 3.42.13zm0 0"/></symbol><symbol overflow="visible" id="fe74b750n"><path d="M4.22-6.77h-.86l-2.03.7v.87c.64-.17 1.26-.38 1.89-.55v4.9H1.03V0h4.9v-.86H4.21zm0 0"/></symbol><symbol overflow="visible" id="fe74b750o"><path d="M2.58.95l2.39-8.67h-.9L1.7.95zm0 0"/></symbol><symbol overflow="visible" id="fe74b750p"><path d="M5.1 0v-1.47H6v-.81h-.9v-4.49H3.8L.48-2.23v.76h3.66V0zM1.5-2.33l2.6-3.53h.04v3.58H1.5zm0 0"/></symbol><symbol overflow="visible" id="fe74b750q"><path d="M3.25.14c1.58 0 2.53-.69 2.53-1.95 0-1.19-.92-1.56-1.6-1.61v-.05A1.6 1.6 0 005.6-5.12c0-1.13-.87-1.79-2.3-1.79-1.62 0-2.32.82-2.45 1.88l.97.06c.13-.69.52-1.1 1.47-1.1.86 0 1.35.32 1.35 1.05 0 .86-.6 1.2-1.66 1.2h-.49v.79h.54c1.12 0 1.78.25 1.78 1.14 0 .78-.46 1.22-1.55 1.22-1.06 0-1.48-.4-1.63-1.1l-.98.07C.75-.56 1.56.14 3.25.14zm0 0"/></symbol><symbol overflow="visible" id="fe74b750r"><path d="M5.95-6.77H1.1V0h.99v-2.92H5.3v-.77H2.08v-2.26h3.87zm0 0"/></symbol><symbol overflow="visible" id="fe74b750s"><path d="M2.83.14c.94 0 1.5-.39 1.81-.95h.08l.1.81h.76v-3.38c0-1.23-.69-1.8-2.13-1.8-1.43 0-2.03.65-2.18 1.6l.93.1c.11-.6.44-.93 1.22-.93.85 0 1.22.32 1.22 1.04v.34l-1.81.2C1.6-2.7 1.1-2.17 1.1-1.28c0 .92.64 1.42 1.72 1.42zm.25-.77c-.67 0-1.02-.28-1.02-.74 0-.44.28-.72 1-.82l1.58-.19v.41c0 .8-.6 1.34-1.56 1.34zm0 0"/></symbol><symbol overflow="visible" id="fe74b750t"><path d="M2.73.14c.9 0 1.43-.45 1.74-1.08h.06l.13.94h.8v-5.02h-.94v2.7c0 .98-.57 1.62-1.46 1.62-.75 0-1.1-.4-1.1-1.22v-3.1h-.93v3.32c0 1.17.55 1.84 1.7 1.84zm0 0"/></symbol><symbol overflow="visible" id="fe74b750u"><path d="M5.08-5.16c-.94 0-1.58.43-1.9 1.3h-.09l-.07-1.16H1.05v.77h1.1v3.48H.96V0h3.96v-.77H3.1v-1.46c0-1.36.6-2.05 1.83-2.05.4 0 .76.08 1.1.17l.15-.87c-.33-.11-.7-.18-1.11-.18zm0 0"/></symbol><symbol overflow="visible" id="fe74b750v"><path d="M4.66-3.45c.76-.14 1.15-.67 1.15-1.57 0-1.07-.64-1.75-2.18-1.75H.92V0h2.71C5.2 0 5.98-.64 5.98-1.77c0-1.03-.56-1.43-1.32-1.59zM3.56-6c.9 0 1.31.4 1.31 1.13 0 .71-.4 1.14-1.3 1.14h-1.7V-6zM1.87-.75v-2.27H3.6c.97 0 1.44.33 1.44 1.13 0 .8-.47 1.14-1.44 1.14zm0 0"/></symbol><symbol overflow="visible" id="fe74b750w"><path d="M3.36.16c1.4 0 2.2-.6 2.2-1.57 0-.89-.54-1.22-1.47-1.39L3-3c-.67-.14-.86-.33-.86-.73 0-.5.4-.74 1.17-.74.83 0 1.19.27 1.27.8l.9-.05c-.12-1-.8-1.47-2.17-1.47-1.34 0-2.1.53-2.1 1.5 0 .81.45 1.22 1.52 1.44l1.04.2c.56.11.87.24.87.72 0 .52-.45.78-1.28.78-.95 0-1.36-.28-1.42-.87l-.9.06C1.07-.36 1.8.16 3.35.16zm0 0"/></symbol><symbol overflow="visible" id="fe74b750x"><path d="M3.58-5.81c.42 0 .72-.22.72-.67 0-.44-.3-.68-.72-.68-.44 0-.72.24-.72.68 0 .45.28.67.72.67zm.5.8H1.52v.76h1.6v3.48h-1.8V0h4.46v-.77h-1.7zm0 0"/></symbol><symbol overflow="visible" id="fe74b750y"><path d="M3.34.14c1.43 0 2.13-.66 2.25-1.78l-.89-.1c-.1.7-.5 1.08-1.34 1.08-1.03 0-1.52-.64-1.52-1.84 0-1.23.47-1.86 1.52-1.86.84 0 1.23.36 1.34 1.08l.9-.1c-.13-1.09-.82-1.78-2.26-1.78-1.56 0-2.46.97-2.46 2.66 0 1.66.9 2.64 2.46 2.64zm0 0"/></symbol><symbol overflow="visible" id="fe74b750z"><path d="M4.63-6.5c.45 0 .98.08 1.39.2l.2-.72a5.3 5.3 0 00-1.64-.26c-1.52 0-2.16.56-2.16 1.87v.4H.9v.76h1.53V0h.94v-4.25h2.53v-.77H3.36v-.3c0-.84.33-1.18 1.27-1.18zm0 0"/></symbol><symbol overflow="visible" id="fe74b750A"><path d="M3.33.14c1.62 0 2.5-.95 2.5-2.66 0-1.68-.88-2.64-2.5-2.64-1.63 0-2.5.96-2.5 2.64 0 1.7.87 2.66 2.5 2.66zm0-.77c-1.06 0-1.52-.6-1.52-1.89 0-1.28.46-1.87 1.52-1.87 1.08 0 1.53.6 1.53 1.87 0 1.29-.45 1.9-1.53 1.9zm0 0"/></symbol><symbol overflow="visible" id="fe74b750B"><path d="M2.16 0v-2.67c0-.99.59-1.63 1.46-1.63.74 0 1.07.38 1.07 1.22V0h.95v-3.31c0-1.2-.56-1.85-1.67-1.85-.92 0-1.49.46-1.77 1.08h-.06l-.12-.94H1.2V0zm0 0"/></symbol><symbol overflow="visible" id="fe74b750C"><path d="M1.45-2.95c0 2.56 1.08 4.37 3.67 4.84l.11-.67C3.28.86 2.43-.75 2.43-2.95s.85-3.82 2.8-4.16l-.1-.69c-2.6.49-3.68 2.3-3.68 4.85zm0 0"/></symbol><symbol overflow="visible" id="fe74b750D"><path d="M1.45-7.1c1.96.33 2.8 1.94 2.8 4.15 0 2.2-.84 3.8-2.8 4.17l.11.67c2.58-.47 3.67-2.28 3.67-4.84 0-2.55-1.09-4.36-3.67-4.85zm0 0"/></symbol></defs><g fill="#515151"><use xlink:href="#fe74b750a" x="167.2" y="164"/><use xlink:href="#fe74b750b" x="203.12" y="164"/></g><use xlink:href="#fe74b750c" x="253.68" y="164" fill="#fff"/><use xlink:href="#fe74b750d" x="318.32" y="164" fill="#fff"/><use xlink:href="#fe74b750e" x="382.96" y="164" fill="#fff"/><g fill="#fff"><use xlink:href="#fe74b750f" x="233.3333" y="252"/><use xlink:href="#fe74b750g" x="240.0003" y="252"/><use xlink:href="#fe74b750h" x="246.6673" y="252"/><use xlink:href="#fe74b750i" x="253.3343" y="252"/><use xlink:href="#fe74b750j" x="260.0013" y="252"/><use xlink:href="#fe74b750k" x="266.6683" y="252"/><use xlink:href="#fe74b750l" x="273.3353" y="252"/><use xlink:href="#fe74b750m" x="280.0023" y="252"/><use xlink:href="#fe74b750k" x="286.6693" y="252"/><use xlink:href="#fe74b750n" x="293.3363" y="252"/><use xlink:href="#fe74b750o" x="300.0033" y="252"/><use xlink:href="#fe74b750l" x="306.6703" y="252"/><use xlink:href="#fe74b750k" x="313.3373" y="252"/><use xlink:href="#fe74b750n" x="320.0043" y="252"/><use xlink:href="#fe74b750o" x="326.6713" y="252"/><use xlink:href="#fe74b750p" x="333.3383" y="252"/><use xlink:href="#fe74b750k" x="340.0053" y="252"/><use xlink:href="#fe74b750q" x="346.6723" y="252"/><use xlink:href="#fe74b750o" x="353.3393" y="252"/><use xlink:href="#fe74b750p" x="360.0063" y="252"/></g><g fill="#fff"><use xlink:href="#fe74b750r" x="196.6667" y="266"/><use xlink:href="#fe74b750g" x="203.3337" y="266"/><use xlink:href="#fe74b750s" x="210.0007" y="266"/><use xlink:href="#fe74b750i" x="216.6677" y="266"/><use xlink:href="#fe74b750t" x="223.3347" y="266"/><use xlink:href="#fe74b750u" x="230.0017" y="266"/><use xlink:href="#fe74b750g" x="236.6687" y="266"/><use xlink:href="#fe74b750j" x="243.3357" y="266"/><use xlink:href="#fe74b750k" x="250.0027" y="266"/><use xlink:href="#fe74b750v" x="256.6697" y="266"/><use xlink:href="#fe74b750s" x="263.3367" y="266"/><use xlink:href="#fe74b750w" x="270.0037" y="266"/><use xlink:href="#fe74b750x" x="276.6707" y="266"/><use xlink:href="#fe74b750y" x="283.3377" y="266"/><use xlink:href="#fe74b750k" x="290.0047" y="266"/><use xlink:href="#fe74b750z" x="296.6717" y="266"/><use xlink:href="#fe74b750u" x="303.3387" y="266"/><use xlink:href="#fe74b750s" x="310.0057" y="266"/><use xlink:href="#fe74b750y" x="316.6727" y="266"/><use xlink:href="#fe74b750i" x="323.3397" y="266"/><use xlink:href="#fe74b750x" x="330.0067" y="266"/><use xlink:href="#fe74b750A" x="336.6737" y="266"/><use xlink:href="#fe74b750B" x="343.3407" y="266"/><use xlink:href="#fe74b750w" x="350.0077" y="266"/><use xlink:href="#fe74b750k" x="356.6747" y="266"/><use xlink:href="#fe74b750C" x="363.3417" y="266"/><use xlink:href="#fe74b750z" x="370.0087" y="266"/><use xlink:href="#fe74b750u" x="376.6757" y="266"/><use xlink:href="#fe74b750s" x="383.3427" y="266"/><use xlink:href="#fe74b750y" x="390.0097" y="266"/><use xlink:href="#fe74b750D" x="396.6767" y="266"/></g></svg>