<?xml version='1.0' encoding='UTF-8'?>
<svg xmlns="http://www.w3.org/2000/svg" xmlns:xlink="http://www.w3.org/1999/xlink" width="600px" height="300px" viewBox="0 0 600 300" x="0px" y="0px" enable-background="new 0 0 600 300"><defs><symbol overflow="visible" id="6adf2844a"><path d="M2.64-29.2c0 1.36.31 2.8 1.13 3.43 5.51 4.49 13.28 12.57 16.15 13.54 2.95.95 4.64-3.2 4.64-4.33 0-.88-1.76-2.64-4.08-4.4-2.4-1.84-4.64-3.45-6.32-4.8 6.25-.16 15.12-.4 22.96-.4 8.08 0 15.44-.4 19.68-.4 2.8 0 4.97-2.96 4.97-4.64v-.4c0-1.52-2.41-3.52-4.25-3.68-2-.16-9.44.08-17.83.23-10.1.17-18.25.64-24.9.97 2.34-2.4 4.8-4.8 6.65-6.64 1.36-1.36 2-3.44 1.68-4.87-.25-.72-1.6-2.18-4.17-2.18-.72 0-2.3.97-3.36 2C11.84-42 6.41-35.12 4.16-32.72c-.72.8-1.52 2-1.52 3.52zm0 0"/></symbol><symbol overflow="visible" id="6adf2844b"><path d="M21.77.8c1.75 0 2.87-.8 3.92-1.68 2.87-2.64 7.03-6.25 9.75-8.71 1.76-1.54 3.04-3.46 3.04-4.25 0-1.44-2.4-4.88-4-4.88-.56 0-1.43.24-2.25 1.03a201.25 201.25 0 01-7.51 7.53c-.08-2.32-.24-4.96-.24-7.36 0-2.17-.17-7.6-.17-9.36 0-8.96 1.28-23.84 1.28-25.53 0-1.82-.95-7.28-2.71-7.28h-.47c-1.13 0-5.13 3.61-5.7 7.92A225.83 225.83 0 0015.29-30c0 4.48.64 10.4.8 13.77.08 1.67.15 3.82.23 5.82-2.08-2.15-4.23-4.64-6.72-6.95-1.03-1.12-1.67-1.44-3.18-1.44-.49 0-1.85.08-2.57.72a5.45 5.45 0 00-1.28 3.2c.08 1.29 1.03 2.24 2.4 3.76C7.35-8.56 14.4-2.8 16.8-.56 18.4.88 19.77.8 21.77.8zm0 0"/></symbol><symbol overflow="visible" id="6adf2844c"><path d="M19.2 1.36h.57c1.36 0 5.36-2.72 5.36-4.56 0-1.67-.57-7.92-.65-12.8-.07-2.31-.4-8.08-.4-10 0-6.08.08-14.88.15-20.4 2 1.92 3.77 4 5.46 5.2 1.18.97 3.36 2.64 4.15 2.64.57 0 1.93-.08 3.03-.72.97-.56 1.36-.95 1.36-1.44a11.67 11.67 0 00-3.28-6.64c-1.75-1.77-8.23-8.56-10.64-10a7.97 7.97 0 00-4.87-1.28c-1.92 0-3.92 2.23-4.88 3.12-3.2 2.8-6.48 6.16-9.44 8.65-1.68 1.43-2.4 2.07-2.4 3.03 0 .72.15 2 .8 2.72.89 1.04 2.64 2.8 3.84 2.8.48 0 2.4-1.76 4.8-4.16 1.53-1.6 2.8-2.88 3.92-3.93-.49 4.97-.88 12.1-.88 17.28 0 4.72.24 10.9.4 14.41.24 4.49.56 11.85.8 13.28.24 1.28 2 2.8 2.8 2.8zm0 0"/></symbol><symbol overflow="visible" id="6adf2844d"><path d="M1.6-30.8v.57c0 1.92 2.17 4.64 3.45 4.71 1.43.08 8.15.24 12.64.24 4.31 0 13.6.08 19.18.08 4 0 9.2-.08 13.36-.24-2.07 2-4.39 4.16-7.18 6.96-1.2 1.2-1.28 1.53-1.28 3.12 0 .48.3 1.77.95 2.72.4.56 1.69 1.28 2.48 1.28 1.28 0 3.11-.87 4.49-2.4 2.54-2.72 9.67-9.6 11.75-12.32.8-1.12 1.04-1.84 1.04-3.76 0-1.93-.48-3.36-1.35-4.24-2.9-3.05-8.72-8.15-12.18-11.05-1.9-1.67-2.95-2.15-3.83-2.15-1.53 0-4.17 3.28-4.17 4.87 0 .57 0 1.13.82 1.85 2.71 2.4 5.92 4.8 8.54 6.87-4.8-.08-11.03-.08-13.36-.08-2.54 0-14.87-.39-18-.39-4.87 0-11.1.16-12.8.32-1.84.15-4.56 1.76-4.56 3.04zm0 0"/></symbol><symbol overflow="visible" id="6adf2844e"><path d="M3.83 0v-5.95H6.2v-.82H.45v.82h2.4V0zm0 0"/></symbol><symbol overflow="visible" id="6adf2844f"><path d="M5.75-2.23v-.43c0-1.6-.9-2.51-2.42-2.51S.87-4.16.87-2.48c0 1.71.91 2.62 2.5 2.62 1.43 0 2.07-.56 2.29-1.52l-.9-.09c-.18.61-.59.9-1.35.9-.94 0-1.52-.54-1.58-1.66zm-2.4-2.2c.93 0 1.43.5 1.48 1.55H1.84c.08-1.07.6-1.56 1.5-1.56zm0 0"/></symbol><symbol overflow="visible" id="6adf2844g"><path d="M1.83 0l1.42-2h.06l1.46 2H5.8L4-2.53l1.78-2.49H4.8L3.42-3.08h-.08l-1.4-1.94H.89l1.78 2.49L.84 0zm0 0"/></symbol><symbol overflow="visible" id="6adf2844h"><path d="M5.52-4.25v-.77H3.17v-1.56h-.81l-.14 1.56H.75v.77h1.47v2.4c0 1.3.48 1.94 1.84 1.94C4.6.1 5.14 0 5.55-.14L5.4-.91c-.32.13-.72.2-1.13.2-.8 0-1.1-.37-1.1-1.23v-2.31zm0 0"/></symbol><symbol overflow="visible" id="6adf2844i"><path d="M3.33-3.42c.47 0 .8-.27.8-.8 0-.51-.33-.8-.8-.8-.47 0-.8.29-.8.8 0 .53.33.8.8.8zm0 3.5c.47 0 .8-.27.8-.78 0-.53-.33-.82-.8-.82-.47 0-.8.29-.8.82 0 .51.33.78.8.78zm0 0"/></symbol><symbol overflow="visible" id="6adf2844k"><path d="M5.95-6.77H1.1V0h.99v-2.92H5.3v-.77H2.08v-2.26h3.87zm0 0"/></symbol><symbol overflow="visible" id="6adf2844l"><path d="M2.83.14c.94 0 1.5-.39 1.81-.95h.08l.1.81h.76v-3.38c0-1.23-.69-1.8-2.13-1.8-1.43 0-2.03.65-2.18 1.6l.93.1c.11-.6.44-.93 1.22-.93.85 0 1.22.32 1.22 1.04v.34l-1.81.2C1.6-2.7 1.1-2.17 1.1-1.28c0 .92.64 1.42 1.72 1.42zm.25-.77c-.67 0-1.02-.28-1.02-.74 0-.44.28-.72 1-.82l1.58-.19v.41c0 .8-.6 1.34-1.56 1.34zm0 0"/></symbol><symbol overflow="visible" id="6adf2844m"><path d="M2.73.14c.9 0 1.43-.45 1.74-1.08h.06l.13.94h.8v-5.02h-.94v2.7c0 .98-.57 1.62-1.46 1.62-.75 0-1.1-.4-1.1-1.22v-3.1h-.93v3.32c0 1.17.55 1.84 1.7 1.84zm0 0"/></symbol><symbol overflow="visible" id="6adf2844n"><path d="M5.08-5.16c-.94 0-1.58.43-1.9 1.3h-.09l-.07-1.16H1.05v.77h1.1v3.48H.96V0h3.96v-.77H3.1v-1.46c0-1.36.6-2.05 1.83-2.05.4 0 .76.08 1.1.17l.15-.87c-.33-.11-.7-.18-1.11-.18zm0 0"/></symbol><symbol overflow="visible" id="6adf2844o"><path d="M3.42.14C5.1.14 5.9-.69 6.11-2.17l-.95-.1C4.96-1.19 4.5-.69 3.44-.69c-1.27 0-1.81-.94-1.81-2.69s.54-2.7 1.8-2.7c1.09 0 1.5.49 1.73 1.58l.93-.1c-.21-1.46-.95-2.3-2.62-2.3C1.53-6.9.62-5.6.62-3.38c0 2.2.91 3.51 2.8 3.51zm0 0"/></symbol><symbol overflow="visible" id="6adf2844p"><path d="M3.33.14c1.62 0 2.5-.95 2.5-2.66 0-1.68-.88-2.64-2.5-2.64-1.63 0-2.5.96-2.5 2.64 0 1.7.87 2.66 2.5 2.66zm0-.77c-1.06 0-1.52-.6-1.52-1.89 0-1.28.46-1.87 1.52-1.87 1.08 0 1.53.6 1.53 1.87 0 1.29-.45 1.9-1.53 1.9zm0 0"/></symbol><symbol overflow="visible" id="6adf2844q"><path d="M1.63 0v-2.9c0-.8.15-1.4.71-1.4.41 0 .55.3.55.88V0h.95v-2.9c0-.8.18-1.4.72-1.4.4 0 .57.3.57.88V0h.95v-3.63c0-.92-.28-1.53-1.11-1.53-.63 0-.95.41-1.1.9h-.06c-.1-.52-.44-.9-1.08-.9-.6 0-.93.41-1.06.9H1.6l-.23-.76H.67V0zm0 0"/></symbol><symbol overflow="visible" id="6adf2844r"><path d="M3.9.14c1.48 0 2.18-.98 2.18-2.64 0-1.67-.7-2.66-2.17-2.66-.91 0-1.49.41-1.79 1h-.06v-2.98h-.95V0h.81l.11-.9h.06c.29.63.82 1.04 1.82 1.04zm-.32-.8c-1.08 0-1.55-.8-1.55-1.84 0-1.06.47-1.86 1.55-1.86 1.1 0 1.51.61 1.51 1.86S4.64-.66 3.58-.66zm0 0"/></symbol><symbol overflow="visible" id="6adf2844s"><path d="M3.58-5.81c.42 0 .72-.22.72-.67 0-.44-.3-.68-.72-.68-.44 0-.72.24-.72.68 0 .45.28.67.72.67zm.5.8H1.52v.76h1.6v3.48h-1.8V0h4.46v-.77h-1.7zm0 0"/></symbol><symbol overflow="visible" id="6adf2844t"><path d="M2.16 0v-2.67c0-.99.59-1.63 1.46-1.63.74 0 1.07.38 1.07 1.22V0h.95v-3.31c0-1.2-.56-1.85-1.67-1.85-.92 0-1.49.46-1.77 1.08h-.06l-.12-.94H1.2V0zm0 0"/></symbol><symbol overflow="visible" id="6adf2844u"><path d="M3.16 2.03c1.67 0 2.4-.86 2.4-2.51v-4.54h-.81l-.13.91h-.06c-.26-.58-.8-1.05-1.73-1.05-1.42 0-2.24 1-2.24 2.52 0 1.6.75 2.56 2.2 2.56.94 0 1.5-.5 1.77-1.03h.05v.72c0 1.17-.42 1.67-1.45 1.67-.93 0-1.3-.34-1.41-.89L.8.5c.12.96.87 1.54 2.36 1.54zM3.06-.8c-.98 0-1.48-.57-1.48-1.82 0-1.13.5-1.75 1.48-1.75 1.06 0 1.58.76 1.58 1.75 0 .95-.56 1.82-1.58 1.82zm0 0"/></symbol><symbol overflow="visible" id="6adf2844v"><path d="M2.44 0l.87-3.31h.06L4.25 0H5.3l1.03-5.02h-.88l-.73 3.94h-.08L3.77-4.4h-.85l-.87 3.33h-.08l-.75-3.94H.34L1.36 0zm0 0"/></symbol><symbol overflow="visible" id="6adf2844w"><path d="M3.36.16c1.4 0 2.2-.6 2.2-1.57 0-.89-.54-1.22-1.47-1.39L3-3c-.67-.14-.86-.33-.86-.73 0-.5.4-.74 1.17-.74.83 0 1.19.27 1.27.8l.9-.05c-.12-1-.8-1.47-2.17-1.47-1.34 0-2.1.53-2.1 1.5 0 .81.45 1.22 1.52 1.44l1.04.2c.56.11.87.24.87.72 0 .52-.45.78-1.28.78-.95 0-1.36-.28-1.42-.87l-.9.06C1.07-.36 1.8.16 3.35.16zm0 0"/></symbol><symbol overflow="visible" id="6adf2844x"><path d="M1.45-2.95c0 2.56 1.08 4.37 3.67 4.84l.11-.67C3.28.86 2.43-.75 2.43-2.95s.85-3.82 2.8-4.16l-.1-.69c-2.6.49-3.68 2.3-3.68 4.85zm0 0"/></symbol><symbol overflow="visible" id="6adf2844y"><path d="M3.33.14c1.65 0 2.6-1.1 2.6-3.52S4.99-6.9 3.34-6.9C1.67-6.9.72-5.8.72-3.37c0 2.4.95 3.51 2.6 3.51zm0-.84c-1.13 0-1.6-.85-1.6-2.67 0-1.86.47-2.7 1.6-2.7 1.12 0 1.6.84 1.6 2.7 0 1.82-.48 2.67-1.6 2.67zM3.3-2.64c.38 0 .56-.28.56-.72 0-.44-.18-.7-.56-.7-.39 0-.56.26-.56.7 0 .44.17.72.56.72zm0 0"/></symbol><symbol overflow="visible" id="6adf2844z"><path d="M3.42.14c1.58 0 2.49-.86 2.49-2.3 0-1.42-.86-2.17-2.22-2.17-1.03 0-1.58.5-1.9 1.02h-.04c.03-1.63.4-2.77 1.73-2.77.91 0 1.24.44 1.36.96l.97-.11c-.23-.96-.86-1.68-2.33-1.68C1.84-6.9.86-5.86.86-3.1.86-.9 1.78.14 3.42.14zm.02-.78c-.9 0-1.47-.55-1.47-1.47 0-.9.7-1.47 1.53-1.47.92 0 1.47.52 1.47 1.47 0 .97-.6 1.47-1.53 1.47zm0 0"/></symbol><symbol overflow="visible" id="6adf2844A"><path d="M1.45-7.1c1.96.33 2.8 1.94 2.8 4.15 0 2.2-.84 3.8-2.8 4.17l.11.67c2.58-.47 3.67-2.28 3.67-4.84 0-2.55-1.09-4.36-3.67-4.85zm0 0"/></symbol></defs><g fill="#fff"><use xlink:href="#6adf2844a" x="171.28" y="164"/><use xlink:href="#6adf2844b" x="252" y="164"/><use xlink:href="#6adf2844c" x="308" y="164"/><use xlink:href="#6adf2844d" x="364" y="164"/><use xlink:href="#6adf2844e" x="283.3333" y="252"/><use xlink:href="#6adf2844f" x="290.0003" y="252"/><use xlink:href="#6adf2844g" x="296.6673" y="252"/><use xlink:href="#6adf2844h" x="303.3343" y="252"/><use xlink:href="#6adf2844i" x="310.0013" y="252"/><use xlink:href="#6adf2844j" x="316.6683" y="252"/><g><use xlink:href="#6adf2844k" x="193.3333" y="266"/><use xlink:href="#6adf2844f" x="200.0003" y="266"/><use xlink:href="#6adf2844l" x="206.6673" y="266"/><use xlink:href="#6adf2844h" x="213.3343" y="266"/><use xlink:href="#6adf2844m" x="220.0013" y="266"/><use xlink:href="#6adf2844n" x="226.6683" y="266"/><use xlink:href="#6adf2844f" x="233.3353" y="266"/><use xlink:href="#6adf2844i" x="240.0023" y="266"/><use xlink:href="#6adf2844j" x="246.6693" y="266"/><use xlink:href="#6adf2844o" x="253.3363" y="266"/><use xlink:href="#6adf2844p" x="260.0033" y="266"/><use xlink:href="#6adf2844q" x="266.6703" y="266"/><use xlink:href="#6adf2844r" x="273.3373" y="266"/><use xlink:href="#6adf2844s" x="280.0043" y="266"/><use xlink:href="#6adf2844t" x="286.6713" y="266"/><use xlink:href="#6adf2844s" x="293.3383" y="266"/><use xlink:href="#6adf2844t" x="300.0053" y="266"/><use xlink:href="#6adf2844u" x="306.6723" y="266"/><use xlink:href="#6adf2844j" x="313.3393" y="266"/><use xlink:href="#6adf2844l" x="320.0063" y="266"/><use xlink:href="#6adf2844n" x="326.6733" y="266"/><use xlink:href="#6adf2844n" x="333.3403" y="266"/><use xlink:href="#6adf2844p" x="340.0073" y="266"/><use xlink:href="#6adf2844v" x="346.6743" y="266"/><use xlink:href="#6adf2844w" x="353.3413" y="266"/><use xlink:href="#6adf2844j" x="360.0083" y="266"/><use xlink:href="#6adf2844x" x="366.6753" y="266"/><use xlink:href="#6adf2844w" x="373.3423" y="266"/><use xlink:href="#6adf2844w" x="380.0093" y="266"/><use xlink:href="#6adf2844y" x="386.6763" y="266"/><use xlink:href="#6adf2844z" x="393.3433" y="266"/><use xlink:href="#6adf2844A" x="400.0103" y="266"/></g></g></svg>