<?xml version='1.0' encoding='UTF-8'?>
<svg xmlns="http://www.w3.org/2000/svg" xmlns:xlink="http://www.w3.org/1999/xlink" width="600px" height="300px" viewBox="0 0 600 300" x="0px" y="0px" enable-background="new 0 0 600 300"><defs><symbol overflow="visible" id="226b5394a"><path d="M16.31 1.6c.74 0 6.4-1.83 9.85-4.24 3.04-2.16 4.64-5.13 4.64-8.64 0-4.95-2.8-8.49-8.88-11.2l-3.6-1.6c-5.04-2.23-7.45-4.08-7.45-6.8 0-2.71 2.65-4.64 6.08-4.71l8.9 4.47c.23.07 1.1.07 1.35 0l2.8-7.2a29.98 29.98 0 00-12.48-2.88c-.72 0-5.29 1.43-8.72 3.84-2.96 2.16-4.57 5.05-4.57 8.64 0 4.95 2.82 8.49 8.9 11.13L16.71-16c5.05 2.23 7.44 4.08 7.44 6.8 0 2.8-2.72 4.89-6.24 4.89-3.6 0-7.92-2.17-11.76-5.28L3.28-2.5A22.86 22.86 0 0016.31 1.6zm0 0"/></symbol><symbol overflow="visible" id="226b5394b"><path d="M18.31 1.05c3.46 0 6.74-.97 10.49-2.97l-1.6-4.96a18.2 18.2 0 01-6.72 1.52c-3.6 0-4.71-1.51-4.96-6.33-.08-2.08-.08-5.1-.08-9.67V-34l12.56.72 1.2-6.56-13.76.25c.08-3.61.25-7.77.4-10.72l-5.76.47C9.77-47.6 9.12-43.6 8.3-39.6L2-38.64V-34h6.4v14.4c0 2.8-.09 6.96-.17 10.65-.15 7.36 4.33 10 10.08 10zm0 0"/></symbol><symbol overflow="visible" id="226b5394c"><path d="M6.16 0h8.25c-.33-4.48-.57-11.77-.57-18.64 0-4 .08-7.67.16-10.72 2-2.33 4-4 6-5.12l7.05 3.35c.23.08 1.1.08 1.36 0l2.87-7.18a14.78 14.78 0 00-8.16-2.49c-1.43 0-2.96.24-3.92.64a69.7 69.7 0 00-6.07 6.08c-.41-4.08-1.29-6.33-1.29-6.33l-6.56 1.7c-.08.23-.08 2.63 0 2.87.8 1.68 1.44 6.25 1.44 16.25 0 6.07-.24 14.95-.56 19.59zm0 0"/></symbol><symbol overflow="visible" id="226b5394d"><path d="M13.84 1.13c1.52 0 3.2-.25 4.24-.57a69.66 69.66 0 008.4-4.97c.32 1.85.88 3.77 1.52 5.2l5.92-1.1c.16-.25.64-1.2.72-1.53-1.36-3.11-2-8.47-2-15.2 0-5.84.48-10 .48-13.44 0-6.96-5.43-10.57-13.35-10.57-4.72 0-10.41 1.28-15.36 3.46l2.54 6.54c5.2-2.95 8.33-4.07 11.28-4.07 4.9 0 7.61 2.96 7.61 7.92v4.07l-14.48 2.08c-5.6 2-8.56 6.1-8.56 11.46 0 6.54 4.4 10.71 11.04 10.71zm-3.76-12c0-3.13 1.69-5.13 4.8-5.85l10.89-2.4v10.17c-3.13 2.54-6.57 4-9.7 4-3.76 0-6-2.33-6-5.92zm0 0"/></symbol><symbol overflow="visible" id="226b5394e"><path d="M30.23 1.2c.72 0 5.61-1.2 9.05-3.6a10.7 10.7 0 004.64-8.88c0-11.85-15.76-12.95-15.76-21.67 0-6.4 8.89-6.9 8.89-16.25 0-8.08-5.77-13.44-14.4-13.44-.73 0-7.93 2.4-10.42 4.23-4 2.97-5.82 6.97-5.82 12.57 0 2.4.15 4.15.15 8.72v17.53C6.56-13.52 6.31-4.64 6 0h8.23c-.3-4.48-.54-11.84-.54-18.4v-28.48c0-5.92 2.87-9.43 7.83-9.43 5.04 0 8.56 3.44 8.56 8.62 0 7.38-8.56 7.69-8.56 16.74 0 12.3 15.76 14.15 15.76 21.67 0 2.8-1.92 4.87-5.44 4.87-3.36 0-8.07-1.75-11.76-4.46l-.4 7.92A28.8 28.8 0 0030.24 1.2zm0 0"/></symbol><symbol overflow="visible" id="226b5394f"><path d="M21.77 1.52c5.43 0 10.54-1.44 16.15-4.57l-2-5.1C32.08-6.16 28-5.13 24-5.13c-8.16 0-13.05-5.29-13.36-14.47l22.48.23 4.72-2.48c1.2-12.08-4.25-19.29-14.72-19.29-.71 0-7.76 2.18-12.07 5.36-5.13 3.85-7.61 10.57-7.61 17.54 0 11.82 7.36 19.75 18.33 19.75zm-.08-36.4c5.51 0 8.8 3.76 9.03 10.32l-19.92.8c.89-6.96 4.8-11.11 10.89-11.11zm0 0"/></symbol><symbol overflow="visible" id="226b5394g"><path d="M20.31 1.6c.9 0 9.13-2.4 13.05-5.2 3.77-2.63 5.69-6.71 5.69-12 0-6.88-3.36-11.53-10.74-14.8L20.23-34C14.31-36.64 12-39.28 12-43.44c0-5.2 3.44-8.25 9.36-8.25h.48l11.36 5.46c.32.07 1.52.07 1.85 0L37.92-54c-4.56-2.48-10-4-15.28-4-.87 0-8.08 1.92-12 4.72-3.77 2.72-5.69 6.8-5.69 11.92 0 6.88 3.61 11.52 11.13 14.88l8.08 3.6c5.6 2.47 7.84 5.11 7.84 9.36 0 5.36-3.6 8.47-9.6 8.47-5.52 0-10.63-2.3-15.68-6.64L3.69-3.84c4 3.2 10.47 5.43 16.62 5.43zm0 0"/></symbol><symbol overflow="visible" id="226b5394h"><path d="M19.13 0h8.8c-.5-5.44-.8-15.92-.8-26.31v-3.85c0-7.12.15-14.4.39-20.07 6.17.15 12.17.64 14.8 1.18.32.1 2.4-.08 2.73-.23l.8-7.44c-3.7.16-12.5.31-20.9.31h-2.72c-8.39 0-17.18-.15-20.87-.3l-.31 7.35c.3.16 2.39.31 2.72.23 2.95-.56 9.43-1.03 15.75-1.1.25 5.59.4 12.87.4 20.15v3.85c0 10.15-.33 20.71-.8 26.23zm0 0"/></symbol><symbol overflow="visible" id="226b5394i"><path d="M7.52 0h8.8c-.4-4.4-.63-12.16-.8-20.48 3.28.25 6.07.48 8.25.48C31.13-11.52 37.59-3.6 40.3.23L48.87 0c.08-.31.08-2.8 0-3.13C45.28-6.55 38.48-14 31.36-22.23a38.72 38.72 0 005.44-2.82c5.43-3.51 8.25-8.72 8.25-15.18 0-10.33-7.28-17.2-18.17-17.2-.8 0-14.08 1.02-19.36 1.02.48 5.46.8 15.93.8 26.33v3.85C8.31-16.08 8-5.52 7.51 0zm8-30.16c0-7.36.17-14.89.4-20.56 3.28-.23 6.56-.4 8.31-.4 8 0 12.72 4.64 12.72 12.4 0 7.77-4.8 12.31-12.95 12.31-2 0-5.28-.15-8.48-.39zm0 0"/></symbol><symbol overflow="visible" id="226b5394j"><path d="M1.13 0H9.2c.49-1.84 2.16-6.8 4.57-14 3.59-.16 8.39-.23 16.8-.23 3.27 0 5.35 0 7.66.15C40.8-6.88 42.48-1.84 43.05 0h8.39c.08-.31.08-2.88 0-3.13C47.28-12 38.8-33.36 30-56.55l-7.2.33C13.92-33.36 5.36-12 1.12-3.13c-.07.25-.07 2.82 0 3.13zm20.46-20.31c-2.3 0-4.07 0-5.67-.1 2.72-7.75 6-17.36 9.85-28 3.92 10.64 7.36 20.18 10.15 27.93-3.28.07-7.69.17-14.33.17zm0 0"/></symbol><symbol overflow="visible" id="226b5394k"><path d="M6.64 0h8.8c-.49-5.44-.8-15.92-.8-26.31v-12.64c0-8.1 5.2-12.9 14.08-12.9 3.69 0 7.92.8 11.76 2.33-6.64 5.04-9.68 10.24-9.68 16.24 0 13.76 16.25 14.8 16.25 22.8 0 3.43-2.97 5.43-7.92 5.43-4.97 0-11.05-1.9-14.9-4.72l-.39 8.57c2.88 1.28 8.88 2.4 13.68 2.4.71 0 7.6-1.36 11.43-3.84 3.36-2.16 5.13-5.44 5.13-9.6 0-12.8-16.24-13.53-16.24-22.56 0-4.48 3.85-9.28 12.24-15.36-.08-.48-.95-3.68-1.2-4.15-6.57-2.74-13.68-4.33-19.11-4.33-.72 0-8.9 1.84-13.77 4.64-5.77 3.28-8.72 8.48-8.72 15.28 0 2.4.16 4.08.16 8.64v3.85c0 10.15-.32 20.71-.8 26.23zm0 0"/></symbol><symbol overflow="visible" id="226b5394l"><path d="M7.52 0h12.71c5.93 0 14.72.08 22.18.23l.95-7.28c-.23-.08-2.4-.3-2.72-.23-2.87.64-10 1.05-16.56 1.05-2.72 0-5.6-.08-8.16-.18-.23-5.43-.4-12.46-.4-19.51 7.84.08 14.71.4 18 .72l.8-7.6a252 252 0 01-18.8.72c0-6.4.17-12.8.4-17.92 2.16-.08 4.49-.16 6.72-.16 5.84 0 12.16.47 15.13 1.11.3.1 2.39-.08 2.71-.23l.96-7.44c-3.67.16-12.08.31-19.13.31-5.03 0-9.1-.07-14.8-.15.49 5.6.8 16.08.8 26.48v3.85C8.31-16.08 8-5.52 7.51 0zm0 0"/></symbol><symbol overflow="visible" id="226b5394m"><path d="M3.83 0v-5.95H6.2v-.82H.45v.82h2.4V0zm0 0"/></symbol><symbol overflow="visible" id="226b5394n"><path d="M5.75-2.23v-.43c0-1.6-.9-2.51-2.42-2.51S.87-4.16.87-2.48c0 1.71.91 2.62 2.5 2.62 1.43 0 2.07-.56 2.29-1.52l-.9-.09c-.18.61-.59.9-1.35.9-.94 0-1.52-.54-1.58-1.66zm-2.4-2.2c.93 0 1.43.5 1.48 1.55H1.84c.08-1.07.6-1.56 1.5-1.56zm0 0"/></symbol><symbol overflow="visible" id="226b5394o"><path d="M1.83 0l1.42-2h.06l1.46 2H5.8L4-2.53l1.78-2.49H4.8L3.42-3.08h-.08l-1.4-1.94H.89l1.78 2.49L.84 0zm0 0"/></symbol><symbol overflow="visible" id="226b5394p"><path d="M5.52-4.25v-.77H3.17v-1.56h-.81l-.14 1.56H.75v.77h1.47v2.4c0 1.3.48 1.94 1.84 1.94C4.6.1 5.14 0 5.55-.14L5.4-.91c-.32.13-.72.2-1.13.2-.8 0-1.1-.37-1.1-1.23v-2.31zm0 0"/></symbol><symbol overflow="visible" id="226b5394q"><path d="M3.33-3.42c.47 0 .8-.27.8-.8 0-.51-.33-.8-.8-.8-.47 0-.8.29-.8.8 0 .53.33.8.8.8zm0 3.5c.47 0 .8-.27.8-.78 0-.53-.33-.82-.8-.82-.47 0-.8.29-.8.82 0 .51.33.78.8.78zm0 0"/></symbol><symbol overflow="visible" id="226b5394s"><path d="M3.36.16c1.4 0 2.2-.6 2.2-1.57 0-.89-.54-1.22-1.47-1.39L3-3c-.67-.14-.86-.33-.86-.73 0-.5.4-.74 1.17-.74.83 0 1.19.27 1.27.8l.9-.05c-.12-1-.8-1.47-2.17-1.47-1.34 0-2.1.53-2.1 1.5 0 .81.45 1.22 1.52 1.44l1.04.2c.56.11.87.24.87.72 0 .52-.45.78-1.28.78-.95 0-1.36-.28-1.42-.87l-.9.06C1.07-.36 1.8.16 3.35.16zm0 0"/></symbol><symbol overflow="visible" id="226b5394t"><path d="M5.08-5.16c-.94 0-1.58.43-1.9 1.3h-.09l-.07-1.16H1.05v.77h1.1v3.48H.96V0h3.96v-.77H3.1v-1.46c0-1.36.6-2.05 1.83-2.05.4 0 .76.08 1.1.17l.15-.87c-.33-.11-.7-.18-1.11-.18zm0 0"/></symbol><symbol overflow="visible" id="226b5394u"><path d="M2.83.14c.94 0 1.5-.39 1.81-.95h.08l.1.81h.76v-3.38c0-1.23-.69-1.8-2.13-1.8-1.43 0-2.03.65-2.18 1.6l.93.1c.11-.6.44-.93 1.22-.93.85 0 1.22.32 1.22 1.04v.34l-1.81.2C1.6-2.7 1.1-2.17 1.1-1.28c0 .92.64 1.42 1.72 1.42zm.25-.77c-.67 0-1.02-.28-1.02-.74 0-.44.28-.72 1-.82l1.58-.19v.41c0 .8-.6 1.34-1.56 1.34zm0 0"/></symbol><symbol overflow="visible" id="226b5394v"><path d="M3.77.14c1.3 0 2.14-.6 2.14-2 0-1.33-.97-1.86-1.8-1.89v-.05c.64-.12 1.3-.62 1.3-1.67 0-1.1-.83-1.81-2.13-1.81-1.5 0-2.26.83-2.26 2.53V0h.95v-4.8c0-1.23.37-1.73 1.31-1.73.77 0 1.24.44 1.24 1.14 0 .87-.58 1.31-1.38 1.31h-.17v.75h.22c1.06 0 1.8.36 1.8 1.4 0 1-.54 1.32-1.41 1.32a3.6 3.6 0 01-.86-.1l-.1.7c.38.09.74.15 1.15.15zm0 0"/></symbol><symbol overflow="visible" id="226b5394w"><path d="M3.42.14c1.61 0 2.56-.75 2.56-2 0-1.1-.67-1.6-1.95-1.86l-.97-.2c-.87-.17-1.23-.49-1.23-1.11 0-.7.54-1.11 1.5-1.11 1.06 0 1.51.34 1.69 1.23l.9-.09c-.17-1.28-.98-1.9-2.6-1.9C1.79-6.9.9-6.18.9-4.98c0 1.06.66 1.66 1.88 1.9l1.01.2c.85.17 1.25.4 1.25 1.09 0 .73-.6 1.16-1.6 1.16-1.07 0-1.66-.4-1.8-1.24l-.94.1C.83-.53 1.75.13 3.42.13zm0 0"/></symbol><symbol overflow="visible" id="226b5394x"><path d="M4.06-2.77c1.25-.04 1.92-.7 1.92-1.96 0-1.36-.7-2.04-2.17-2.04H.92V0h.97v-2.73h1.08L4.95 0h1.1zM1.9-6h1.7c1.07 0 1.46.34 1.46 1.28 0 .9-.44 1.27-1.47 1.27H1.89zm0 0"/></symbol><symbol overflow="visible" id="226b5394y"><path d="M6.17 0L3.98-6.77h-1.3L.5 0h.97l.44-1.47h2.78L5.16 0zM3.28-5.94h.08l1.1 3.74H2.15zm0 0"/></symbol><symbol overflow="visible" id="226b5394z"><path d="M3.9.14c1.41 0 2.16-.67 2.16-1.95 0-1.27-.84-1.77-2.06-1.85l1.69-2.2v-.58c-.7-.31-1.6-.47-2.32-.47C1.78-6.9.9-6.17.9-4.2V0h.92v-4.22c0-1.4.5-1.9 1.53-1.9.43 0 .96.06 1.36.23v.03l-1.62 2.2v.57c1.44 0 2.06.34 2.06 1.26 0 .86-.56 1.2-1.39 1.2-.38 0-.81-.06-1.1-.14l-.1.74c.36.1.9.17 1.36.17zm0 0"/></symbol><symbol overflow="visible" id="226b5394A"><path d="M5.92-6.77H1.1V0h4.83v-.8H2.06v-2.26h3.22v-.75H2.06v-2.16h3.86zm0 0"/></symbol><symbol overflow="visible" id="226b5394B"><path d="M5.95-6.77H1.1V0h.99v-2.92H5.3v-.77H2.08v-2.26h3.87zm0 0"/></symbol><symbol overflow="visible" id="226b5394C"><path d="M2.73.14c.9 0 1.43-.45 1.74-1.08h.06l.13.94h.8v-5.02h-.94v2.7c0 .98-.57 1.62-1.46 1.62-.75 0-1.1-.4-1.1-1.22v-3.1h-.93v3.32c0 1.17.55 1.84 1.7 1.84zm0 0"/></symbol><symbol overflow="visible" id="226b5394D"><path d="M3.42-.86h-.08L1.77-5.02H.8L2.73 0h.41c-.33.95-.72 1.27-1.45 1.27-.22 0-.49-.04-.69-.08l-.1.73c.2.06.58.11.87.11 1.2 0 1.7-.7 2.21-2.03l1.94-5.02H5zm0 0"/></symbol><symbol overflow="visible" id="226b5394E"><path d="M3.92-7.14H1.36v.76h1.6v5.61H1.15V0H5.7v-.77H3.92zm0 0"/></symbol><symbol overflow="visible" id="226b5394F"><path d="M3.58-5.81c.42 0 .72-.22.72-.67 0-.44-.3-.68-.72-.68-.44 0-.72.24-.72.68 0 .45.28.67.72.67zm.5.8H1.52v.76h1.6v3.48h-1.8V0h4.46v-.77h-1.7zm0 0"/></symbol><symbol overflow="visible" id="226b5394G"><path d="M3.34.14c1.43 0 2.13-.66 2.25-1.78l-.89-.1c-.1.7-.5 1.08-1.34 1.08-1.03 0-1.52-.64-1.52-1.84 0-1.23.47-1.86 1.52-1.86.84 0 1.23.36 1.34 1.08l.9-.1c-.13-1.09-.82-1.78-2.26-1.78-1.56 0-2.46.97-2.46 2.66 0 1.66.9 2.64 2.46 2.64zm0 0"/></symbol><symbol overflow="visible" id="226b5394H"><path d="M4.22-6.77h-.86l-2.03.7v.87c.64-.17 1.26-.38 1.89-.55v4.9H1.03V0h4.9v-.86H4.21zm0 0"/></symbol><symbol overflow="visible" id="226b5394I"><path d="M3.42.14c1.55 0 2.44-.84 2.44-2.33 0-1.45-.83-2.22-2.14-2.22-.75 0-1.28.27-1.67.72H2l.31-2.22h3.11v-.86H1.53l-.45 3.93h.81c.3-.36.9-.79 1.58-.79.92 0 1.44.43 1.44 1.47 0 .99-.54 1.5-1.49 1.5-.83 0-1.28-.32-1.5-1.01l-.95.1C1.07-.46 2 .13 3.42.13zm0 0"/></symbol><symbol overflow="visible" id="226b5394J"><path d="M1.45-2.95c0 2.56 1.08 4.37 3.67 4.84l.11-.67C3.28.86 2.43-.75 2.43-2.95s.85-3.82 2.8-4.16l-.1-.69c-2.6.49-3.68 2.3-3.68 4.85zm0 0"/></symbol><symbol overflow="visible" id="226b5394K"><path d="M1.45-7.1c1.96.33 2.8 1.94 2.8 4.15 0 2.2-.84 3.8-2.8 4.17l.11.67c2.58-.47 3.67-2.28 3.67-4.84 0-2.55-1.09-4.36-3.67-4.85zm0 0"/></symbol></defs><use xlink:href="#226b5394a" x="188.76" y="126" fill="#515151"/><g fill="#515151"><use xlink:href="#226b5394b" x="222.6" y="126"/><use xlink:href="#226b5394c" x="253.64" y="126"/></g><g fill="#515151"><use xlink:href="#226b5394d" x="284.6" y="126"/><use xlink:href="#226b5394e" x="323.64" y="126"/><use xlink:href="#226b5394f" x="369.56" y="126"/></g><use xlink:href="#226b5394g" x="152.36" y="206" fill="#515151"/><g fill="#515151"><use xlink:href="#226b5394h" x="194.92" y="206"/><use xlink:href="#226b5394i" x="241.4" y="206"/><use xlink:href="#226b5394j" x="292.36" y="206"/></g><use xlink:href="#226b5394k" x="345.08" y="206" fill="#fff"/><use xlink:href="#226b5394l" x="401.64" y="206" fill="#515151"/><g fill="#fff"><use xlink:href="#226b5394m" x="236.6667" y="252"/><use xlink:href="#226b5394n" x="243.3337" y="252"/><use xlink:href="#226b5394o" x="250.0007" y="252"/><use xlink:href="#226b5394p" x="256.6677" y="252"/><use xlink:href="#226b5394q" x="263.3347" y="252"/><use xlink:href="#226b5394r" x="270.0017" y="252"/><use xlink:href="#226b5394s" x="276.6687" y="252"/><use xlink:href="#226b5394p" x="283.3357" y="252"/><use xlink:href="#226b5394t" x="290.0027" y="252"/><use xlink:href="#226b5394u" x="296.6697" y="252"/><use xlink:href="#226b5394v" x="303.3367" y="252"/><use xlink:href="#226b5394n" x="310.0037" y="252"/><use xlink:href="#226b5394r" x="316.6707" y="252"/><use xlink:href="#226b5394w" x="323.3377" y="252"/><use xlink:href="#226b5394m" x="330.0047" y="252"/><use xlink:href="#226b5394x" x="336.6717" y="252"/><use xlink:href="#226b5394y" x="343.3387" y="252"/><use xlink:href="#226b5394z" x="350.0057" y="252"/><use xlink:href="#226b5394A" x="356.6727" y="252"/><use xlink:href="#226b5394r" x="363.3397" y="252"/></g><g fill="#fff"><use xlink:href="#226b5394B" x="193.3333" y="266"/><use xlink:href="#226b5394n" x="200.0003" y="266"/><use xlink:href="#226b5394u" x="206.6673" y="266"/><use xlink:href="#226b5394p" x="213.3343" y="266"/><use xlink:href="#226b5394C" x="220.0013" y="266"/><use xlink:href="#226b5394t" x="226.6683" y="266"/><use xlink:href="#226b5394n" x="233.3353" y="266"/><use xlink:href="#226b5394q" x="240.0023" y="266"/><use xlink:href="#226b5394r" x="246.6693" y="266"/><use xlink:href="#226b5394w" x="253.3363" y="266"/><use xlink:href="#226b5394p" x="260.0033" y="266"/><use xlink:href="#226b5394D" x="266.6703" y="266"/><use xlink:href="#226b5394E" x="273.3373" y="266"/><use xlink:href="#226b5394F" x="280.0043" y="266"/><use xlink:href="#226b5394s" x="286.6713" y="266"/><use xlink:href="#226b5394p" x="293.3383" y="266"/><use xlink:href="#226b5394F" x="300.0053" y="266"/><use xlink:href="#226b5394G" x="306.6723" y="266"/><use xlink:href="#226b5394r" x="313.3393" y="266"/><use xlink:href="#226b5394s" x="320.0063" y="266"/><use xlink:href="#226b5394n" x="326.6733" y="266"/><use xlink:href="#226b5394p" x="333.3403" y="266"/><use xlink:href="#226b5394r" x="340.0073" y="266"/><use xlink:href="#226b5394H" x="346.6743" y="266"/><use xlink:href="#226b5394I" x="353.3413" y="266"/><use xlink:href="#226b5394r" x="360.0083" y="266"/><use xlink:href="#226b5394J" x="366.6753" y="266"/><use xlink:href="#226b5394s" x="373.3423" y="266"/><use xlink:href="#226b5394s" x="380.0093" y="266"/><use xlink:href="#226b5394H" x="386.6763" y="266"/><use xlink:href="#226b5394I" x="393.3433" y="266"/><use xlink:href="#226b5394K" x="400.0103" y="266"/></g></svg>