<?xml version='1.0' encoding='UTF-8'?>
<svg xmlns="http://www.w3.org/2000/svg" xmlns:xlink="http://www.w3.org/1999/xlink" width="600px" height="300px" viewBox="0 0 600 300" x="0px" y="0px" enable-background="new 0 0 600 300"><defs><symbol overflow="visible" id="11a49552a"><path d="M16.31 1.6c.74 0 6.4-1.83 9.85-4.24 3.04-2.16 4.64-5.13 4.64-8.64 0-4.95-2.8-8.49-8.88-11.2l-3.6-1.6c-5.04-2.23-7.45-4.08-7.45-6.8 0-2.71 2.65-4.64 6.08-4.71l8.9 4.47c.23.07 1.1.07 1.35 0l2.8-7.2a29.98 29.98 0 00-12.48-2.88c-.72 0-5.29 1.43-8.72 3.84-2.96 2.16-4.57 5.05-4.57 8.64 0 4.95 2.82 8.49 8.9 11.13L16.71-16c5.05 2.23 7.44 4.08 7.44 6.8 0 2.8-2.72 4.89-6.24 4.89-3.6 0-7.92-2.17-11.76-5.28L3.28-2.5A22.86 22.86 0 0016.31 1.6zm0 0"/></symbol><symbol overflow="visible" id="11a49552b"><path d="M10.08-47.2c.4 0 2.15-.32 3.6-1.44.96-.8 1.52-2 1.52-3.6 0-2.8-2-4.71-4.97-4.71-.39 0-2.15.3-3.59 1.43-.95.8-1.51 2-1.51 3.6 0 2.8 2 4.72 4.95 4.72zM6.3 0h8.25C14.23-4.48 14-11.77 14-18.64c0-7.77.23-16.56.64-21.52l-9.05.96c-.07.25-.07 2.64 0 2.89.82 1.67 1.29 7.75 1.29 16.72 0 6.07-.24 14.95-.57 19.59zm0 0"/></symbol><symbol overflow="visible" id="11a49552c"><path d="M19.92 1.36a14 14 0 004.24-.64A70.36 70.36 0 0032-3.84l.08 4.56c.15 8.15-4.4 13.6-11.28 13.6-.57 0-1.03 0-1.44-.09l-8.8-3.75a3.97 3.97 0 00-1.36 0l-2.64 7.29c3.28 1.75 8.64 2.87 13.03 2.87.72 0 7.77-2.16 12.1-5.36A18.99 18.99 0 0039.12-.64c-.17-5.44-.32-11.6-.32-15.67V-20c0-6.48.15-15.52.64-18.72L36.3-40.4 34-38.64a28.29 28.29 0 00-10.8-2.48c-.72 0-7.76 2.17-12.07 5.35C6-31.92 3.51-25.28 3.51-18.07c0 11.76 6.56 19.43 16.4 19.43zm-8.97-21.67c0-9.05 4.33-14.4 11.2-14.4 2.65 0 6.08.79 9.37 2.23.17 3.6.25 7.6.25 11.35v12.25c-3.29 2.57-6.57 3.83-9.7 3.83-6.63 0-11.12-6-11.12-15.26zm0 0"/></symbol><symbol overflow="visible" id="11a49552d"><path d="M6.16 0h8.25c-.33-4.48-.57-11.77-.57-18.64 0-4.72.08-8.88.24-12.31 3.28-2.49 6.64-3.77 10.08-3.77 6.64 0 7.76 4.88 7.76 15.6v.07c0 5.05-.23 14.57-.56 19.05h8.23c-.3-4.56-.54-12.8-.54-17.28 0-4.49.23-8.95.23-13.2 0-6.64-4.8-10.57-12.87-10.57-1.77 0-3.54.25-4.82.57a65.8 65.8 0 00-8.54 5.12c-.49-3.2-1.2-5.05-1.2-5.05l-6.57 1.7c-.08.23-.08 2.63 0 2.87.8 1.68 1.44 6.25 1.44 16.25 0 6.07-.24 14.95-.56 19.59zm0 0"/></symbol><symbol overflow="visible" id="11a49552e"><path d="M13.84 1.13c1.52 0 3.2-.25 4.24-.57a69.66 69.66 0 008.4-4.97c.32 1.85.88 3.77 1.52 5.2l5.92-1.1c.16-.25.64-1.2.72-1.53-1.36-3.11-2-8.47-2-15.2 0-5.84.48-10 .48-13.44 0-6.96-5.43-10.57-13.35-10.57-4.72 0-10.41 1.28-15.36 3.46l2.54 6.54c5.2-2.95 8.33-4.07 11.28-4.07 4.9 0 7.61 2.96 7.61 7.92v4.07l-14.48 2.08c-5.6 2-8.56 6.1-8.56 11.46 0 6.54 4.4 10.71 11.04 10.71zm-3.76-12c0-3.13 1.69-5.13 4.8-5.85l10.89-2.4v10.17c-3.13 2.54-6.57 4-9.7 4-3.76 0-6-2.33-6-5.92zm0 0"/></symbol><symbol overflow="visible" id="11a49552f"><path d="M21.77 1.52c5.43 0 10.54-1.44 16.15-4.57l-2-5.1C32.08-6.16 28-5.13 24-5.13c-8.16 0-13.05-5.29-13.36-14.47l22.48.23 4.72-2.48c1.2-12.08-4.25-19.29-14.72-19.29-.71 0-7.76 2.18-12.07 5.36-5.13 3.85-7.61 10.57-7.61 17.54 0 11.82 7.36 19.75 18.33 19.75zm-.08-36.4c5.51 0 8.8 3.76 9.03 10.32l-19.92.8c.89-6.96 4.8-11.11 10.89-11.11zm0 0"/></symbol><symbol overflow="visible" id="11a49552g"><path d="M3.83 0v-5.95H6.2v-.82H.45v.82h2.4V0zm0 0"/></symbol><symbol overflow="visible" id="11a49552h"><path d="M5.75-2.23v-.43c0-1.6-.9-2.51-2.42-2.51S.87-4.16.87-2.48c0 1.71.91 2.62 2.5 2.62 1.43 0 2.07-.56 2.29-1.52l-.9-.09c-.18.61-.59.9-1.35.9-.94 0-1.52-.54-1.58-1.66zm-2.4-2.2c.93 0 1.43.5 1.48 1.55H1.84c.08-1.07.6-1.56 1.5-1.56zm0 0"/></symbol><symbol overflow="visible" id="11a49552i"><path d="M1.83 0l1.42-2h.06l1.46 2H5.8L4-2.53l1.78-2.49H4.8L3.42-3.08h-.08l-1.4-1.94H.89l1.78 2.49L.84 0zm0 0"/></symbol><symbol overflow="visible" id="11a49552j"><path d="M5.52-4.25v-.77H3.17v-1.56h-.81l-.14 1.56H.75v.77h1.47v2.4c0 1.3.48 1.94 1.84 1.94C4.6.1 5.14 0 5.55-.14L5.4-.91c-.32.13-.72.2-1.13.2-.8 0-1.1-.37-1.1-1.23v-2.31zm0 0"/></symbol><symbol overflow="visible" id="11a49552k"><path d="M3.33-3.42c.47 0 .8-.27.8-.8 0-.51-.33-.8-.8-.8-.47 0-.8.29-.8.8 0 .53.33.8.8.8zm0 3.5c.47 0 .8-.27.8-.78 0-.53-.33-.82-.8-.82-.47 0-.8.29-.8.82 0 .51.33.78.8.78zm0 0"/></symbol><symbol overflow="visible" id="11a49552m"><path d="M3.36.16c1.4 0 2.2-.6 2.2-1.57 0-.89-.54-1.22-1.47-1.39L3-3c-.67-.14-.86-.33-.86-.73 0-.5.4-.74 1.17-.74.83 0 1.19.27 1.27.8l.9-.05c-.12-1-.8-1.47-2.17-1.47-1.34 0-2.1.53-2.1 1.5 0 .81.45 1.22 1.52 1.44l1.04.2c.56.11.87.24.87.72 0 .52-.45.78-1.28.78-.95 0-1.36-.28-1.42-.87l-.9.06C1.07-.36 1.8.16 3.35.16zm0 0"/></symbol><symbol overflow="visible" id="11a49552n"><path d="M3.58-5.81c.42 0 .72-.22.72-.67 0-.44-.3-.68-.72-.68-.44 0-.72.24-.72.68 0 .45.28.67.72.67zm.5.8H1.52v.76h1.6v3.48h-1.8V0h4.46v-.77h-1.7zm0 0"/></symbol><symbol overflow="visible" id="11a49552o"><path d="M3.16 2.03c1.67 0 2.4-.86 2.4-2.51v-4.54h-.81l-.13.91h-.06c-.26-.58-.8-1.05-1.73-1.05-1.42 0-2.24 1-2.24 2.52 0 1.6.75 2.56 2.2 2.56.94 0 1.5-.5 1.77-1.03h.05v.72c0 1.17-.42 1.67-1.45 1.67-.93 0-1.3-.34-1.41-.89L.8.5c.12.96.87 1.54 2.36 1.54zM3.06-.8c-.98 0-1.48-.57-1.48-1.82 0-1.13.5-1.75 1.48-1.75 1.06 0 1.58.76 1.58 1.75 0 .95-.56 1.82-1.58 1.82zm0 0"/></symbol><symbol overflow="visible" id="11a49552p"><path d="M2.16 0v-2.67c0-.99.59-1.63 1.46-1.63.74 0 1.07.38 1.07 1.22V0h.95v-3.31c0-1.2-.56-1.85-1.67-1.85-.92 0-1.49.46-1.77 1.08h-.06l-.12-.94H1.2V0zm0 0"/></symbol><symbol overflow="visible" id="11a49552q"><path d="M2.83.14c.94 0 1.5-.39 1.81-.95h.08l.1.81h.76v-3.38c0-1.23-.69-1.8-2.13-1.8-1.43 0-2.03.65-2.18 1.6l.93.1c.11-.6.44-.93 1.22-.93.85 0 1.22.32 1.22 1.04v.34l-1.81.2C1.6-2.7 1.1-2.17 1.1-1.28c0 .92.64 1.42 1.72 1.42zm.25-.77c-.67 0-1.02-.28-1.02-.74 0-.44.28-.72 1-.82l1.58-.19v.41c0 .8-.6 1.34-1.56 1.34zm0 0"/></symbol><symbol overflow="visible" id="11a49552r"><path d="M5.95-6.77H1.1V0h.99v-2.92H5.3v-.77H2.08v-2.26h3.87zm0 0"/></symbol><symbol overflow="visible" id="11a49552s"><path d="M2.73.14c.9 0 1.43-.45 1.74-1.08h.06l.13.94h.8v-5.02h-.94v2.7c0 .98-.57 1.62-1.46 1.62-.75 0-1.1-.4-1.1-1.22v-3.1h-.93v3.32c0 1.17.55 1.84 1.7 1.84zm0 0"/></symbol><symbol overflow="visible" id="11a49552t"><path d="M5.08-5.16c-.94 0-1.58.43-1.9 1.3h-.09l-.07-1.16H1.05v.77h1.1v3.48H.96V0h3.96v-.77H3.1v-1.46c0-1.36.6-2.05 1.83-2.05.4 0 .76.08 1.1.17l.15-.87c-.33-.11-.7-.18-1.11-.18zm0 0"/></symbol><symbol overflow="visible" id="11a49552u"><path d="M6.17 0L3.98-6.77h-1.3L.5 0h.97l.44-1.47h2.78L5.16 0zM3.28-5.94h.08l1.1 3.74H2.15zm0 0"/></symbol><symbol overflow="visible" id="11a49552v"><path d="M3.92-7.14H1.36v.76h1.6v5.61H1.15V0H5.7v-.77H3.92zm0 0"/></symbol><symbol overflow="visible" id="11a49552w"><path d="M3.9 0l2-5.02h-.96L3.4-.94h-.07L1.8-5.02H.77L2.78 0zm0 0"/></symbol><symbol overflow="visible" id="11a49552x"><path d="M4.63-6.5c.45 0 .98.08 1.39.2l.2-.72a5.3 5.3 0 00-1.64-.26c-1.52 0-2.16.56-2.16 1.87v.4H.9v.76h1.53V0h.94v-4.25h2.53v-.77H3.36v-.3c0-.84.33-1.18 1.27-1.18zm0 0"/></symbol><symbol overflow="visible" id="11a49552y"><path d="M3.33.14c1.62 0 2.5-.95 2.5-2.66 0-1.68-.88-2.64-2.5-2.64-1.63 0-2.5.96-2.5 2.64 0 1.7.87 2.66 2.5 2.66zm0-.77c-1.06 0-1.52-.6-1.52-1.89 0-1.28.46-1.87 1.52-1.87 1.08 0 1.53.6 1.53 1.87 0 1.29-.45 1.9-1.53 1.9zm0 0"/></symbol><symbol overflow="visible" id="11a49552z"><path d="M1.63 0v-2.9c0-.8.15-1.4.71-1.4.41 0 .55.3.55.88V0h.95v-2.9c0-.8.18-1.4.72-1.4.4 0 .57.3.57.88V0h.95v-3.63c0-.92-.28-1.53-1.11-1.53-.63 0-.95.41-1.1.9h-.06c-.1-.52-.44-.9-1.08-.9-.6 0-.93.41-1.06.9H1.6l-.23-.76H.67V0zm0 0"/></symbol><symbol overflow="visible" id="11a49552A"><path d="M3.38-5.9c.12-.5.42-1.04.67-1.41l-.63-.22a4.28 4.28 0 00-1.01 2.39c0 .66.3 1 .9 1 .6 0 .9-.33.9-.9 0-.57-.32-.83-.83-.85zm0 0"/></symbol><symbol overflow="visible" id="11a49552B"><path d="M3.3-7.53c-.55 0-.85.3-.85.84 0 .55.36.8.83.8h.03a5.1 5.1 0 01-.69 1.47l.52.23a4.29 4.29 0 001.02-2.4c0-.63-.33-.94-.86-.94zm0 0"/></symbol><symbol overflow="visible" id="11a49552C"><path d="M1.45-2.95c0 2.56 1.08 4.37 3.67 4.84l.11-.67C3.28.86 2.43-.75 2.43-2.95s.85-3.82 2.8-4.16l-.1-.69c-2.6.49-3.68 2.3-3.68 4.85zm0 0"/></symbol><symbol overflow="visible" id="11a49552D"><path d="M3.33.14c1.65 0 2.6-1.1 2.6-3.52S4.99-6.9 3.34-6.9C1.67-6.9.72-5.8.72-3.37c0 2.4.95 3.51 2.6 3.51zm0-.84c-1.13 0-1.6-.85-1.6-2.67 0-1.86.47-2.7 1.6-2.7 1.12 0 1.6.84 1.6 2.7 0 1.82-.48 2.67-1.6 2.67zM3.3-2.64c.38 0 .56-.28.56-.72 0-.44-.18-.7-.56-.7-.39 0-.56.26-.56.7 0 .44.17.72.56.72zm0 0"/></symbol><symbol overflow="visible" id="11a49552E"><path d="M4.22-6.77h-.86l-2.03.7v.87c.64-.17 1.26-.38 1.89-.55v4.9H1.03V0h4.9v-.86H4.21zm0 0"/></symbol><symbol overflow="visible" id="11a49552F"><path d="M1.45-7.1c1.96.33 2.8 1.94 2.8 4.15 0 2.2-.84 3.8-2.8 4.17l.11.67c2.58-.47 3.67-2.28 3.67-4.84 0-2.55-1.09-4.36-3.67-4.85zm0 0"/></symbol></defs><g fill="#515151"><use xlink:href="#11a49552a" x="164.24" y="166"/><use xlink:href="#11a49552b" x="198.48" y="166"/></g><use xlink:href="#11a49552c" x="219.28" y="166" fill="#fff"/><g fill="#515151"><use xlink:href="#11a49552d" x="264.56" y="166"/><use xlink:href="#11a49552e" x="309.76" y="166"/></g><use xlink:href="#11a49552c" x="348.8" y="166" fill="#fff"/><use xlink:href="#11a49552f" x="394.08" y="166" fill="#515151"/><g fill="#fff"><use xlink:href="#11a49552g" x="256.6667" y="252"/><use xlink:href="#11a49552h" x="263.3337" y="252"/><use xlink:href="#11a49552i" x="270.0007" y="252"/><use xlink:href="#11a49552j" x="276.6677" y="252"/><use xlink:href="#11a49552k" x="283.3347" y="252"/><use xlink:href="#11a49552l" x="290.0017" y="252"/><use xlink:href="#11a49552m" x="296.6687" y="252"/><use xlink:href="#11a49552n" x="303.3357" y="252"/><use xlink:href="#11a49552o" x="310.0027" y="252"/><use xlink:href="#11a49552p" x="316.6697" y="252"/><use xlink:href="#11a49552q" x="323.3367" y="252"/><use xlink:href="#11a49552o" x="330.0037" y="252"/><use xlink:href="#11a49552h" x="336.6707" y="252"/></g><g fill="#fff"><use xlink:href="#11a49552r" x="170" y="266"/><use xlink:href="#11a49552h" x="176.667" y="266"/><use xlink:href="#11a49552q" x="183.334" y="266"/><use xlink:href="#11a49552j" x="190.001" y="266"/><use xlink:href="#11a49552s" x="196.668" y="266"/><use xlink:href="#11a49552t" x="203.335" y="266"/><use xlink:href="#11a49552h" x="210.002" y="266"/><use xlink:href="#11a49552k" x="216.669" y="266"/><use xlink:href="#11a49552l" x="223.336" y="266"/><use xlink:href="#11a49552u" x="230.003" y="266"/><use xlink:href="#11a49552v" x="236.67" y="266"/><use xlink:href="#11a49552j" x="243.337" y="266"/><use xlink:href="#11a49552h" x="250.004" y="266"/><use xlink:href="#11a49552t" x="256.671" y="266"/><use xlink:href="#11a49552p" x="263.338" y="266"/><use xlink:href="#11a49552q" x="270.005" y="266"/><use xlink:href="#11a49552j" x="276.672" y="266"/><use xlink:href="#11a49552n" x="283.339" y="266"/><use xlink:href="#11a49552w" x="290.006" y="266"/><use xlink:href="#11a49552h" x="296.673" y="266"/><use xlink:href="#11a49552l" x="303.34" y="266"/><use xlink:href="#11a49552x" x="310.007" y="266"/><use xlink:href="#11a49552y" x="316.674" y="266"/><use xlink:href="#11a49552t" x="323.341" y="266"/><use xlink:href="#11a49552z" x="330.008" y="266"/><use xlink:href="#11a49552l" x="336.675" y="266"/><use xlink:href="#11a49552y" x="343.342" y="266"/><use xlink:href="#11a49552x" x="350.009" y="266"/><use xlink:href="#11a49552l" x="356.676" y="266"/><use xlink:href="#11a49552A" x="363.343" y="266"/><use xlink:href="#11a49552o" x="370.01" y="266"/><use xlink:href="#11a49552B" x="376.677" y="266"/><use xlink:href="#11a49552l" x="383.344" y="266"/><use xlink:href="#11a49552C" x="390.011" y="266"/><use xlink:href="#11a49552m" x="396.678" y="266"/><use xlink:href="#11a49552m" x="403.345" y="266"/><use xlink:href="#11a49552D" x="410.012" y="266"/><use xlink:href="#11a49552E" x="416.679" y="266"/><use xlink:href="#11a49552F" x="423.346" y="266"/></g></svg>