<?xml version='1.0' encoding='UTF-8'?>
<svg xmlns="http://www.w3.org/2000/svg" xmlns:xlink="http://www.w3.org/1999/xlink" width="600px" height="300px" viewBox="0 0 600 300" x="0px" y="0px" enable-background="new 0 0 600 300"><defs><symbol overflow="visible" id="cd5000b0a"><path d="M19.13 0h8.8c-.5-5.44-.8-15.92-.8-26.31v-3.85c0-7.12.15-14.4.39-20.07 6.17.15 12.17.64 14.8 1.18.32.1 2.4-.08 2.73-.23l.8-7.44c-3.7.16-12.5.31-20.9.31h-2.72c-8.39 0-17.18-.15-20.87-.3l-.31 7.35c.3.16 2.39.31 2.72.23 2.95-.56 9.43-1.03 15.75-1.1.25 5.59.4 12.87.4 20.15v3.85c0 10.15-.33 20.71-.8 26.23zm1.67 24.4c6.48-5.45 9.36-10.71 6.48-17.92l-7.76 3.29c2.64 4.07 2.07 8.07-1.11 12.07zm0 0"/></symbol><symbol overflow="visible" id="cd5000b0b"><path d="M1.13 0H9.2c.49-1.84 2.16-6.8 4.57-14 3.59-.16 8.39-.23 16.8-.23 3.27 0 5.35 0 7.66.15C40.8-6.88 42.48-1.84 43.05 0h8.39c.08-.31.08-2.88 0-3.13C47.28-12 38.8-33.36 30-56.55l-7.2.33C13.92-33.36 5.36-12 1.12-3.13c-.07.25-.07 2.82 0 3.13zm20.46-20.31c-2.3 0-4.07 0-5.67-.1 2.72-7.75 6-17.36 9.85-28 3.92 10.64 7.36 20.18 10.15 27.93-3.28.07-7.69.17-14.33.17zm0 0"/></symbol><symbol overflow="visible" id="cd5000b0c"><path d="M7.52 0h8.8c-.4-4.4-.63-12.16-.8-20.48 3.28.25 6.07.48 8.25.48C31.13-11.52 37.59-3.6 40.3.23L48.87 0c.08-.31.08-2.8 0-3.13C45.28-6.55 38.48-14 31.36-22.23a38.72 38.72 0 005.44-2.82c5.43-3.51 8.25-8.72 8.25-15.18 0-10.33-7.28-17.2-18.17-17.2-.8 0-14.08 1.02-19.36 1.02.48 5.46.8 15.93.8 26.33v3.85C8.31-16.08 8-5.52 7.51 0zm8-30.16c0-7.36.17-14.89.4-20.56 3.28-.23 6.56-.4 8.31-.4 8 0 12.72 4.64 12.72 12.4 0 7.77-4.8 12.31-12.95 12.31-2 0-5.28-.15-8.48-.39zm0 0"/></symbol><symbol overflow="visible" id="cd5000b0d"><path d="M25.84-62.95c6.16 0 10.72-3.2 13.36-9.36l-3.36-2.56c-2.15 4.07-5.43 6.23-9.6 6.23-4.08 0-7.04-2.16-8.65-6.23l-4.46 2.56c2.23 6.15 6.56 9.36 12.71 9.36zM1.13 0H9.2c.49-1.84 2.16-6.8 4.57-14 3.59-.16 8.39-.23 16.8-.23 3.27 0 5.35 0 7.66.15C40.8-6.88 42.48-1.84 43.05 0h8.39c.08-.31.08-2.88 0-3.13C47.28-12 38.8-33.36 30-56.55l-7.2.33C13.92-33.36 5.36-12 1.12-3.13c-.07.25-.07 2.82 0 3.13zm20.46-20.31c-2.3 0-4.07 0-5.67-.1 2.72-7.75 6-17.36 9.85-28 3.92 10.64 7.36 20.18 10.15 27.93-3.28.07-7.69.17-14.33.17zm0 0"/></symbol><symbol overflow="visible" id="cd5000b0e"><path d="M18.31 1.05c3.46 0 6.74-.97 10.49-2.97l-1.6-4.96a18.2 18.2 0 01-6.72 1.52c-3.6 0-4.71-1.51-4.96-6.33-.08-2.08-.08-5.1-.08-9.67V-34l12.56.72 1.2-6.56-13.76.25c.08-3.61.25-7.77.4-10.72l-5.76.47C9.77-47.6 9.12-43.6 8.3-39.6L2-38.64V-34h6.4v14.4c0 2.8-.09 6.96-.17 10.65-.15 7.36 4.33 10 10.08 10zM13.92 24.4c6.49-5.46 9.36-10.72 6.49-17.93l-7.77 3.29c2.64 4.07 2.08 8.07-1.12 12.07zm0 0"/></symbol><symbol overflow="visible" id="cd5000b0f"><path d="M13.84 1.13c1.52 0 3.2-.25 4.24-.57a69.66 69.66 0 008.4-4.97c.32 1.85.88 3.77 1.52 5.2l5.92-1.1c.16-.25.64-1.2.72-1.53-1.36-3.11-2-8.47-2-15.2 0-5.84.48-10 .48-13.44 0-6.96-5.43-10.57-13.35-10.57-4.72 0-10.41 1.28-15.36 3.46l2.54 6.54c5.2-2.95 8.33-4.07 11.28-4.07 4.9 0 7.61 2.96 7.61 7.92v4.07l-14.48 2.08c-5.6 2-8.56 6.1-8.56 11.46 0 6.54 4.4 10.71 11.04 10.71zm-3.76-12c0-3.13 1.69-5.13 4.8-5.85l10.89-2.4v10.17c-3.13 2.54-6.57 4-9.7 4-3.76 0-6-2.33-6-5.92zm0 0"/></symbol><symbol overflow="visible" id="cd5000b0g"><path d="M6.16 0h8.25c-.33-4.48-.57-11.77-.57-18.64 0-4 .08-7.67.16-10.72 2-2.33 4-4 6-5.12l7.05 3.35c.23.08 1.1.08 1.36 0l2.87-7.18a14.78 14.78 0 00-8.16-2.49c-1.43 0-2.96.24-3.92.64a69.7 69.7 0 00-6.07 6.08c-.41-4.08-1.29-6.33-1.29-6.33l-6.56 1.7c-.08.23-.08 2.63 0 2.87.8 1.68 1.44 6.25 1.44 16.25 0 6.07-.24 14.95-.56 19.59zm0 0"/></symbol><symbol overflow="visible" id="cd5000b0h"><path d="M18.16-46.48c7.04 0 11.68-4.08 13.43-11.83l-3.82-1.38c-1.77 4.97-4.9 7.53-9.2 7.53-4.41 0-7.21-2.56-8.16-7.53l-4.9.97c1.13 8.08 5.44 12.24 12.65 12.24zm-4.32 47.6c1.52 0 3.2-.25 4.24-.56a69.66 69.66 0 008.4-4.97c.32 1.85.88 3.77 1.52 5.2l5.92-1.1c.16-.25.64-1.2.72-1.53-1.36-3.11-2-8.47-2-15.2 0-5.84.48-10 .48-13.44 0-6.96-5.43-10.57-13.35-10.57-4.72 0-10.41 1.28-15.36 3.46l2.54 6.54c5.2-2.95 8.33-4.07 11.28-4.07 4.9 0 7.61 2.96 7.61 7.92v4.07l-14.48 2.08c-5.6 2-8.56 6.1-8.56 11.46 0 6.54 4.4 10.71 11.04 10.71zm-3.76-12c0-3.12 1.69-5.12 4.8-5.84l10.89-2.4v10.17c-3.13 2.54-6.57 4-9.7 4-3.76 0-6-2.33-6-5.92zm0 0"/></symbol><symbol overflow="visible" id="cd5000b0i"><path d="M3.83 0v-5.95H6.2v-.82H.45v.82h2.4V0zm0 0"/></symbol><symbol overflow="visible" id="cd5000b0j"><path d="M5.75-2.23v-.43c0-1.6-.9-2.51-2.42-2.51S.87-4.16.87-2.48c0 1.71.91 2.62 2.5 2.62 1.43 0 2.07-.56 2.29-1.52l-.9-.09c-.18.61-.59.9-1.35.9-.94 0-1.52-.54-1.58-1.66zm-2.4-2.2c.93 0 1.43.5 1.48 1.55H1.84c.08-1.07.6-1.56 1.5-1.56zm0 0"/></symbol><symbol overflow="visible" id="cd5000b0k"><path d="M1.83 0l1.42-2h.06l1.46 2H5.8L4-2.53l1.78-2.49H4.8L3.42-3.08h-.08l-1.4-1.94H.89l1.78 2.49L.84 0zm0 0"/></symbol><symbol overflow="visible" id="cd5000b0l"><path d="M5.52-4.25v-.77H3.17v-1.56h-.81l-.14 1.56H.75v.77h1.47v2.4c0 1.3.48 1.94 1.84 1.94C4.6.1 5.14 0 5.55-.14L5.4-.91c-.32.13-.72.2-1.13.2-.8 0-1.1-.37-1.1-1.23v-2.31zm0 0"/></symbol><symbol overflow="visible" id="cd5000b0m"><path d="M3.33-3.42c.47 0 .8-.27.8-.8 0-.51-.33-.8-.8-.8-.47 0-.8.29-.8.8 0 .53.33.8.8.8zm0 3.5c.47 0 .8-.27.8-.78 0-.53-.33-.82-.8-.82-.47 0-.8.29-.8.82 0 .51.33.78.8.78zm0 0"/></symbol><symbol overflow="visible" id="cd5000b0o"><path d="M3.83-5.95H6.2v-.82H.45v.82h2.4V0h.17l-.13.64c.52.05.81.17.81.5 0 .36-.22.42-.48.42-.14 0-.36-.03-.52-.08l-.08.5c.2.07.5.15.79.15.56 0 1.06-.2 1.06-.91 0-.52-.44-.77-.95-.86L3.58 0h.25zm0 0"/></symbol><symbol overflow="visible" id="cd5000b0p"><path d="M6.17 0L3.98-6.77h-1.3L.5 0h.97l.44-1.47h2.78L5.16 0zM3.28-5.94h.08l1.1 3.74H2.15zm0 0"/></symbol><symbol overflow="visible" id="cd5000b0q"><path d="M4.06-2.77c1.25-.04 1.92-.7 1.92-1.96 0-1.36-.7-2.04-2.17-2.04H.92V0h.97v-2.73h1.08L4.95 0h1.1zM1.9-6h1.7c1.07 0 1.46.34 1.46 1.28 0 .9-.44 1.27-1.47 1.27H1.89zm0 0"/></symbol><symbol overflow="visible" id="cd5000b0r"><path d="M3.34-7.36c1.08 0 1.74-.51 1.79-1.72h-.7c-.07.75-.34 1.13-1.09 1.13S2.33-8.3 2.27-9.08h-.7c.04 1.2.66 1.72 1.77 1.72zM6.17 0L3.98-6.77h-1.3L.5 0h.97l.44-1.47h2.78L5.16 0zM3.28-5.94h.08l1.1 3.74H2.15zm0 0"/></symbol><symbol overflow="visible" id="cd5000b0s"><path d="M3.69.08l.37.01C4.6.1 5.14 0 5.55-.14L5.4-.91c-.32.13-.72.2-1.13.2-.8 0-1.1-.37-1.1-1.23v-2.31h2.34v-.77H3.17v-1.56h-.81l-.14 1.56H.75v.77h1.47v2.4c0 .96.25 1.55.94 1.82l-.14.67c.51.05.82.17.82.5 0 .36-.23.42-.5.42-.14 0-.36-.03-.5-.08l-.09.5c.2.07.5.15.78.15.56 0 1.08-.2 1.08-.91 0-.52-.44-.77-.97-.86zm0 0"/></symbol><symbol overflow="visible" id="cd5000b0t"><path d="M2.83.14c.94 0 1.5-.39 1.81-.95h.08l.1.81h.76v-3.38c0-1.23-.69-1.8-2.13-1.8-1.43 0-2.03.65-2.18 1.6l.93.1c.11-.6.44-.93 1.22-.93.85 0 1.22.32 1.22 1.04v.34l-1.81.2C1.6-2.7 1.1-2.17 1.1-1.28c0 .92.64 1.42 1.72 1.42zm.25-.77c-.67 0-1.02-.28-1.02-.74 0-.44.28-.72 1-.82l1.58-.19v.41c0 .8-.6 1.34-1.56 1.34zm0 0"/></symbol><symbol overflow="visible" id="cd5000b0u"><path d="M5.08-5.16c-.94 0-1.58.43-1.9 1.3h-.09l-.07-1.16H1.05v.77h1.1v3.48H.96V0h3.96v-.77H3.1v-1.46c0-1.36.6-2.05 1.83-2.05.4 0 .76.08 1.1.17l.15-.87c-.33-.11-.7-.18-1.11-.18zm0 0"/></symbol><symbol overflow="visible" id="cd5000b0v"><path d="M3.53-5.67c1.05 0 1.64-.56 1.69-1.85h-.69c-.05.77-.26 1.22-1 1.22-.72 0-.95-.45-1-1.22h-.7c.04 1.29.62 1.85 1.7 1.85zM2.83.14c.94 0 1.5-.39 1.81-.95h.08l.1.81h.76v-3.38c0-1.23-.69-1.8-2.13-1.8-1.43 0-2.03.65-2.18 1.6l.93.1c.11-.6.44-.93 1.22-.93.85 0 1.22.32 1.22 1.04v.34l-1.81.2C1.6-2.7 1.1-2.17 1.1-1.28c0 .92.64 1.42 1.72 1.42zm.25-.77c-.67 0-1.02-.28-1.02-.74 0-.44.28-.72 1-.82l1.58-.19v.41c0 .8-.6 1.34-1.56 1.34zm0 0"/></symbol><symbol overflow="visible" id="cd5000b0w"><path d="M5.95-6.77H1.1V0h.99v-2.92H5.3v-.77H2.08v-2.26h3.87zm0 0"/></symbol><symbol overflow="visible" id="cd5000b0x"><path d="M2.73.14c.9 0 1.43-.45 1.74-1.08h.06l.13.94h.8v-5.02h-.94v2.7c0 .98-.57 1.62-1.46 1.62-.75 0-1.1-.4-1.1-1.22v-3.1h-.93v3.32c0 1.17.55 1.84 1.7 1.84zm0 0"/></symbol><symbol overflow="visible" id="cd5000b0y"><path d="M3.33.14c1.62 0 2.5-.95 2.5-2.66 0-1.68-.88-2.64-2.5-2.64-1.63 0-2.5.96-2.5 2.64 0 1.7.87 2.66 2.5 2.66zm0-.77c-1.06 0-1.52-.6-1.52-1.89 0-1.28.46-1.87 1.52-1.87 1.08 0 1.53.6 1.53 1.87 0 1.29-.45 1.9-1.53 1.9zm0 0"/></symbol><symbol overflow="visible" id="cd5000b0z"><path d="M1.63 0v-2.9c0-.8.15-1.4.71-1.4.41 0 .55.3.55.88V0h.95v-2.9c0-.8.18-1.4.72-1.4.4 0 .57.3.57.88V0h.95v-3.63c0-.92-.28-1.53-1.11-1.53-.63 0-.95.41-1.1.9h-.06c-.1-.52-.44-.9-1.08-.9-.6 0-.93.41-1.06.9H1.6l-.23-.76H.67V0zm0 0"/></symbol><symbol overflow="visible" id="cd5000b0A"><path d="M2.16 0v-2.67c0-.99.59-1.63 1.46-1.63.74 0 1.07.38 1.07 1.22V0h.95v-3.31c0-1.2-.56-1.85-1.67-1.85-.92 0-1.49.46-1.77 1.08h-.06l-.12-.94H1.2V0zm0 0"/></symbol><symbol overflow="visible" id="cd5000b0B"><path d="M3.58-5.81c.42 0 .72-.22.72-.67 0-.44-.3-.68-.72-.68-.44 0-.72.24-.72.68 0 .45.28.67.72.67zm.5.8H1.52v.76h1.6v3.48h-1.8V0h4.46v-.77h-1.7zm0 0"/></symbol><symbol overflow="visible" id="cd5000b0C"><path d="M1.45-2.95c0 2.56 1.08 4.37 3.67 4.84l.11-.67C3.28.86 2.43-.75 2.43-2.95s.85-3.82 2.8-4.16l-.1-.69c-2.6.49-3.68 2.3-3.68 4.85zm0 0"/></symbol><symbol overflow="visible" id="cd5000b0D"><path d="M3.36.16c1.4 0 2.2-.6 2.2-1.57 0-.89-.54-1.22-1.47-1.39L3-3c-.67-.14-.86-.33-.86-.73 0-.5.4-.74 1.17-.74.83 0 1.19.27 1.27.8l.9-.05c-.12-1-.8-1.47-2.17-1.47-1.34 0-2.1.53-2.1 1.5 0 .81.45 1.22 1.52 1.44l1.04.2c.56.11.87.24.87.72 0 .52-.45.78-1.28.78-.95 0-1.36-.28-1.42-.87l-.9.06C1.07-.36 1.8.16 3.35.16zm0 0"/></symbol><symbol overflow="visible" id="cd5000b0E"><path d="M3.92-7.14H1.36v.76h1.6v5.61H1.15V0H5.7v-.77H3.92zm0 0"/></symbol><symbol overflow="visible" id="cd5000b0F"><path d="M3.16 2.03c1.67 0 2.4-.86 2.4-2.51v-4.54h-.81l-.13.91h-.06c-.26-.58-.8-1.05-1.73-1.05-1.42 0-2.24 1-2.24 2.52 0 1.6.75 2.56 2.2 2.56.94 0 1.5-.5 1.77-1.03h.05v.72c0 1.17-.42 1.67-1.45 1.67-.93 0-1.3-.34-1.41-.89L.8.5c.12.96.87 1.54 2.36 1.54zM3.06-.8c-.98 0-1.48-.57-1.48-1.82 0-1.13.5-1.75 1.48-1.75 1.06 0 1.58.76 1.58 1.75 0 .95-.56 1.82-1.58 1.82zm0 0"/></symbol><symbol overflow="visible" id="cd5000b0G"><path d="M1.45-7.1c1.96.33 2.8 1.94 2.8 4.15 0 2.2-.84 3.8-2.8 4.17l.11.67c2.58-.47 3.67-2.28 3.67-4.84 0-2.55-1.09-4.36-3.67-4.85zm0 0"/></symbol></defs><use xlink:href="#cd5000b0a" x="121.52" y="166" fill="#fff"/><g fill="#515151"><use xlink:href="#cd5000b0b" x="163.44" y="166"/><use xlink:href="#cd5000b0c" x="216.16" y="166"/><use xlink:href="#cd5000b0d" x="267.12" y="166"/></g><use xlink:href="#cd5000b0e" x="338.4" y="166" fill="#fff"/><g fill="#515151"><use xlink:href="#cd5000b0f" x="369.44" y="166"/><use xlink:href="#cd5000b0g" x="408.48" y="166"/></g><use xlink:href="#cd5000b0h" x="439.44" y="166" fill="#515151"/><g fill="#fff"><use xlink:href="#cd5000b0i" x="250" y="252"/><use xlink:href="#cd5000b0j" x="256.667" y="252"/><use xlink:href="#cd5000b0k" x="263.334" y="252"/><use xlink:href="#cd5000b0l" x="270.001" y="252"/><use xlink:href="#cd5000b0m" x="276.668" y="252"/><use xlink:href="#cd5000b0n" x="283.335" y="252"/><use xlink:href="#cd5000b0o" x="290.002" y="252"/><use xlink:href="#cd5000b0p" x="296.669" y="252"/><use xlink:href="#cd5000b0q" x="303.336" y="252"/><use xlink:href="#cd5000b0r" x="310.003" y="252"/><use xlink:href="#cd5000b0n" x="316.67" y="252"/><use xlink:href="#cd5000b0s" x="323.337" y="252"/><use xlink:href="#cd5000b0t" x="330.004" y="252"/><use xlink:href="#cd5000b0u" x="336.671" y="252"/><use xlink:href="#cd5000b0v" x="343.338" y="252"/></g><g fill="#fff"><use xlink:href="#cd5000b0w" x="193.3333" y="266"/><use xlink:href="#cd5000b0j" x="200.0003" y="266"/><use xlink:href="#cd5000b0t" x="206.6673" y="266"/><use xlink:href="#cd5000b0l" x="213.3343" y="266"/><use xlink:href="#cd5000b0x" x="220.0013" y="266"/><use xlink:href="#cd5000b0u" x="226.6683" y="266"/><use xlink:href="#cd5000b0j" x="233.3353" y="266"/><use xlink:href="#cd5000b0m" x="240.0023" y="266"/><use xlink:href="#cd5000b0n" x="246.6693" y="266"/><use xlink:href="#cd5000b0q" x="253.3363" y="266"/><use xlink:href="#cd5000b0y" x="260.0033" y="266"/><use xlink:href="#cd5000b0z" x="266.6703" y="266"/><use xlink:href="#cd5000b0t" x="273.3373" y="266"/><use xlink:href="#cd5000b0A" x="280.0043" y="266"/><use xlink:href="#cd5000b0B" x="286.6713" y="266"/><use xlink:href="#cd5000b0t" x="293.3383" y="266"/><use xlink:href="#cd5000b0A" x="300.0053" y="266"/><use xlink:href="#cd5000b0n" x="306.6723" y="266"/><use xlink:href="#cd5000b0C" x="313.3393" y="266"/><use xlink:href="#cd5000b0D" x="320.0063" y="266"/><use xlink:href="#cd5000b0j" x="326.6733" y="266"/><use xlink:href="#cd5000b0l" x="333.3403" y="266"/><use xlink:href="#cd5000b0n" x="340.0073" y="266"/><use xlink:href="#cd5000b0E" x="346.6743" y="266"/><use xlink:href="#cd5000b0t" x="353.3413" y="266"/><use xlink:href="#cd5000b0A" x="360.0083" y="266"/><use xlink:href="#cd5000b0F" x="366.6753" y="266"/><use xlink:href="#cd5000b0x" x="373.3423" y="266"/><use xlink:href="#cd5000b0t" x="380.0093" y="266"/><use xlink:href="#cd5000b0F" x="386.6763" y="266"/><use xlink:href="#cd5000b0j" x="393.3433" y="266"/><use xlink:href="#cd5000b0G" x="400.0103" y="266"/></g></svg>