<?xml version='1.0' encoding='UTF-8'?>
<svg xmlns="http://www.w3.org/2000/svg" xmlns:xlink="http://www.w3.org/1999/xlink" width="600px" height="300px" viewBox="0 0 600 300" x="0px" y="0px" enable-background="new 0 0 600 300"><defs><symbol overflow="visible" id="197e95a1a"><path d="M30.31 1.52c6.33 0 12-1.75 18.74-5.52l-2.17-5.6c-5.04 2.72-9.93 4-14.8 4-12.72 0-20.24-8.48-20.24-22.96 0-14.24 7.29-22.64 18.47-22.64.74 0 1.38 0 2 .08l10.81 4.89c.32.07 1.52.07 1.83 0l2.82-7.54C42.8-56.3 36.3-58 31.44-58c-.96 0-10.16 2.4-15.85 6.16C8.23-46.95 3.84-37.52 3.84-26.48c0 16.8 10.16 28 26.47 28zm0 0"/></symbol><symbol overflow="visible" id="197e95a1b"><path d="M7.52 0h12.71c5.93 0 14.72.08 22.18.23l.95-7.28c-.23-.08-2.4-.3-2.72-.23-2.87.64-10 1.05-16.56 1.05-2.72 0-5.6-.08-8.16-.18-.23-5.43-.4-12.46-.4-19.51 7.84.08 14.71.4 18 .72l.8-7.6a252 252 0 01-18.8.72c0-6.4.17-12.8.4-17.92 2.16-.08 4.49-.16 6.72-.16 5.84 0 12.16.47 15.13 1.11.3.1 2.39-.08 2.71-.23l.96-7.44c-3.67.16-12.08.31-19.13.31-5.03 0-9.1-.07-14.8-.15.49 5.6.8 16.08.8 26.48v3.85C8.31-16.08 8-5.52 7.51 0zm0 0"/></symbol><symbol overflow="visible" id="197e95a1c"><path d="M7.52 0h11.53c6 0 13.51.08 20.95.23l1.05-7.67c-.25-.08-2.4-.33-2.74-.25-3.44.74-8.47 1.2-15.44 1.2-2.07 0-4.64-.07-6.95-.15-.23-5.52-.4-12.64-.4-19.67v-3.85c0-10.15.32-20.71.8-26.25h-8.8c.48 5.46.8 15.93.8 26.33v3.85C8.31-16.08 8-5.52 7.51 0zm0 0"/></symbol><symbol overflow="visible" id="197e95a1d"><path d="M-5.6-25.69c3.12 0 5.12-2.23 5.12-5.51 0-2.96-1.93-5.03-4.8-5.03-3.13 0-5.13 2.23-5.13 5.51 0 2.95 2 5.03 4.82 5.03zm0 0"/></symbol><symbol overflow="visible" id="197e95a1e"><path d="M1.13 0H9.2c.49-1.84 2.16-6.8 4.57-14 3.59-.16 8.39-.23 16.8-.23 3.27 0 5.35 0 7.66.15C40.8-6.88 42.48-1.84 43.05 0h8.39c.08-.31.08-2.88 0-3.13C47.28-12 38.8-33.36 30-56.55l-7.2.33C13.92-33.36 5.36-12 1.12-3.13c-.07.25-.07 2.82 0 3.13zm20.46-20.31c-2.3 0-4.07 0-5.67-.1 2.72-7.75 6-17.36 9.85-28 3.92 10.64 7.36 20.18 10.15 27.93-3.28.07-7.69.17-14.33.17zm0 0"/></symbol><symbol overflow="visible" id="197e95a1g"><path d="M20.8 1.52c4.48 0 9.04-1.36 14.64-4.4l-2-5.12C29.59-6.08 26-5.12 23.04-5.12c-7.76 0-12.32-5.68-12.32-15.36 0-8.47 3.84-13.75 10.15-14.24l9.29 3.77c.25.07 1.12.07 1.36 0l2.8-7.28c-3.6-1.77-8.09-2.9-11.2-2.9-.71 0-7.76 2.18-12.07 5.36-5.13 3.85-7.61 10.49-7.61 17.61C3.44-6.3 10.4 1.52 20.8 1.52zm0 0"/></symbol><symbol overflow="visible" id="197e95a1h"><path d="M21.77 1.52c5.43 0 10.54-1.44 16.15-4.57l-2-5.1C32.08-6.16 28-5.13 24-5.13c-8.16 0-13.05-5.29-13.36-14.47l22.48.23 4.72-2.48c1.2-12.08-4.25-19.29-14.72-19.29-.71 0-7.76 2.18-12.07 5.36-5.13 3.85-7.61 10.57-7.61 17.54 0 11.82 7.36 19.75 18.33 19.75zm-.08-36.4c5.51 0 8.8 3.76 9.03 10.32l-19.92.8c.89-6.96 4.8-11.11 10.89-11.11zm0 0"/></symbol><symbol overflow="visible" id="197e95a1i"><path d="M6.16 0h8.25c-.33-4.48-.57-11.77-.57-18.64V-38c0-9.6.16-16.4.64-23.69l-9.12 1.05c-.08.23-.08 2.64 0 2.87.72 1.7 1.36 7.05 1.36 18.65v19.53c0 6.07-.24 14.95-.56 19.59zm0 0"/></symbol><symbol overflow="visible" id="197e95a1j"><path d="M4.64-25.2c3.13 0 5.13-2.24 5.13-5.52 0-2.97-1.93-5.05-4.82-5.05-3.1 0-5.1 2.25-5.1 5.54 0 2.95 2 5.03 4.8 5.03zm0 0"/></symbol><symbol overflow="visible" id="197e95a1k"><path d="M13.84 1.13c1.52 0 3.2-.25 4.24-.57a69.66 69.66 0 008.4-4.97c.32 1.85.88 3.77 1.52 5.2l5.92-1.1c.16-.25.64-1.2.72-1.53-1.36-3.11-2-8.47-2-15.2 0-5.84.48-10 .48-13.44 0-6.96-5.43-10.57-13.35-10.57-4.72 0-10.41 1.28-15.36 3.46l2.54 6.54c5.2-2.95 8.33-4.07 11.28-4.07 4.9 0 7.61 2.96 7.61 7.92v4.07l-14.48 2.08c-5.6 2-8.56 6.1-8.56 11.46 0 6.54 4.4 10.71 11.04 10.71zm-3.76-12c0-3.13 1.69-5.13 4.8-5.85l10.89-2.4v10.17c-3.13 2.54-6.57 4-9.7 4-3.76 0-6-2.33-6-5.92zm0 0"/></symbol><symbol overflow="visible" id="197e95a1l"><path d="M3.83 0v-5.95H6.2v-.82H.45v.82h2.4V0zm0 0"/></symbol><symbol overflow="visible" id="197e95a1m"><path d="M5.75-2.23v-.43c0-1.6-.9-2.51-2.42-2.51S.87-4.16.87-2.48c0 1.71.91 2.62 2.5 2.62 1.43 0 2.07-.56 2.29-1.52l-.9-.09c-.18.61-.59.9-1.35.9-.94 0-1.52-.54-1.58-1.66zm-2.4-2.2c.93 0 1.43.5 1.48 1.55H1.84c.08-1.07.6-1.56 1.5-1.56zm0 0"/></symbol><symbol overflow="visible" id="197e95a1n"><path d="M1.83 0l1.42-2h.06l1.46 2H5.8L4-2.53l1.78-2.49H4.8L3.42-3.08h-.08l-1.4-1.94H.89l1.78 2.49L.84 0zm0 0"/></symbol><symbol overflow="visible" id="197e95a1o"><path d="M5.52-4.25v-.77H3.17v-1.56h-.81l-.14 1.56H.75v.77h1.47v2.4c0 1.3.48 1.94 1.84 1.94C4.6.1 5.14 0 5.55-.14L5.4-.91c-.32.13-.72.2-1.13.2-.8 0-1.1-.37-1.1-1.23v-2.31zm0 0"/></symbol><symbol overflow="visible" id="197e95a1p"><path d="M3.33-3.42c.47 0 .8-.27.8-.8 0-.51-.33-.8-.8-.8-.47 0-.8.29-.8.8 0 .53.33.8.8.8zm0 3.5c.47 0 .8-.27.8-.78 0-.53-.33-.82-.8-.82-.47 0-.8.29-.8.82 0 .51.33.78.8.78zm0 0"/></symbol><symbol overflow="visible" id="197e95a1r"><path d="M3.42.14C5.1.14 5.9-.69 6.11-2.17l-.95-.1C4.96-1.19 4.5-.69 3.44-.69c-1.27 0-1.81-.94-1.81-2.69s.54-2.7 1.8-2.7c1.09 0 1.5.49 1.73 1.58l.93-.1c-.21-1.46-.95-2.3-2.62-2.3C1.53-6.9.62-5.6.62-3.38c0 2.2.91 3.51 2.8 3.51zm0 0"/></symbol><symbol overflow="visible" id="197e95a1s"><path d="M5.92-6.77H1.1V0h4.83v-.8H2.06v-2.26h3.22v-.75H2.06v-2.16h3.86zm0 0"/></symbol><symbol overflow="visible" id="197e95a1t"><path d="M2.08-6.77h-.99V0h4.79v-.81h-3.8zm0 0"/></symbol><symbol overflow="visible" id="197e95a1u"><path d="M3.33-1.98c.51 0 .83-.27.83-.8 0-.56-.32-.83-.83-.83-.52 0-.81.27-.81.83 0 .53.3.8.8.8zm0 0"/></symbol><symbol overflow="visible" id="197e95a1v"><path d="M6.17 0L3.98-6.77h-1.3L.5 0h.97l.44-1.47h2.78L5.16 0zM3.28-5.94h.08l1.1 3.74H2.15zm0 0"/></symbol><symbol overflow="visible" id="197e95a1w"><path d="M3.34.14c1.43 0 2.13-.66 2.25-1.78l-.89-.1c-.1.7-.5 1.08-1.34 1.08-1.03 0-1.52-.64-1.52-1.84 0-1.23.47-1.86 1.52-1.86.84 0 1.23.36 1.34 1.08l.9-.1c-.13-1.09-.82-1.78-2.26-1.78-1.56 0-2.46.97-2.46 2.66 0 1.66.9 2.64 2.46 2.64zm0 0"/></symbol><symbol overflow="visible" id="197e95a1x"><path d="M3.92-7.14H1.36v.76h1.6v5.61H1.15V0H5.7v-.77H3.92zm0 0"/></symbol><symbol overflow="visible" id="197e95a1y"><path d="M2.83.14c.94 0 1.5-.39 1.81-.95h.08l.1.81h.76v-3.38c0-1.23-.69-1.8-2.13-1.8-1.43 0-2.03.65-2.18 1.6l.93.1c.11-.6.44-.93 1.22-.93.85 0 1.22.32 1.22 1.04v.34l-1.81.2C1.6-2.7 1.1-2.17 1.1-1.28c0 .92.64 1.42 1.72 1.42zm.25-.77c-.67 0-1.02-.28-1.02-.74 0-.44.28-.72 1-.82l1.58-.19v.41c0 .8-.6 1.34-1.56 1.34zm0 0"/></symbol><symbol overflow="visible" id="197e95a1z"><path d="M5.95-6.77H1.1V0h.99v-2.92H5.3v-.77H2.08v-2.26h3.87zm0 0"/></symbol><symbol overflow="visible" id="197e95a1A"><path d="M2.73.14c.9 0 1.43-.45 1.74-1.08h.06l.13.94h.8v-5.02h-.94v2.7c0 .98-.57 1.62-1.46 1.62-.75 0-1.1-.4-1.1-1.22v-3.1h-.93v3.32c0 1.17.55 1.84 1.7 1.84zm0 0"/></symbol><symbol overflow="visible" id="197e95a1B"><path d="M5.08-5.16c-.94 0-1.58.43-1.9 1.3h-.09l-.07-1.16H1.05v.77h1.1v3.48H.96V0h3.96v-.77H3.1v-1.46c0-1.36.6-2.05 1.83-2.05.4 0 .76.08 1.1.17l.15-.87c-.33-.11-.7-.18-1.11-.18zm0 0"/></symbol><symbol overflow="visible" id="197e95a1C"><path d="M2.16 0v-2.67c0-.99.59-1.63 1.46-1.63.74 0 1.07.38 1.07 1.22V0h.95v-3.31c0-1.2-.56-1.85-1.67-1.85-.92 0-1.49.46-1.77 1.08h-.06l-.12-.94H1.2V0zm0 0"/></symbol><symbol overflow="visible" id="197e95a1D"><path d="M1.45-2.95c0 2.56 1.08 4.37 3.67 4.84l.11-.67C3.28.86 2.43-.75 2.43-2.95s.85-3.82 2.8-4.16l-.1-.69c-2.6.49-3.68 2.3-3.68 4.85zm0 0"/></symbol><symbol overflow="visible" id="197e95a1E"><path d="M3.36.16c1.4 0 2.2-.6 2.2-1.57 0-.89-.54-1.22-1.47-1.39L3-3c-.67-.14-.86-.33-.86-.73 0-.5.4-.74 1.17-.74.83 0 1.19.27 1.27.8l.9-.05c-.12-1-.8-1.47-2.17-1.47-1.34 0-2.1.53-2.1 1.5 0 .81.45 1.22 1.52 1.44l1.04.2c.56.11.87.24.87.72 0 .52-.45.78-1.28.78-.95 0-1.36-.28-1.42-.87l-.9.06C1.07-.36 1.8.16 3.35.16zm0 0"/></symbol><symbol overflow="visible" id="197e95a1F"><path d="M3.16 2.03c1.67 0 2.4-.86 2.4-2.51v-4.54h-.81l-.13.91h-.06c-.26-.58-.8-1.05-1.73-1.05-1.42 0-2.24 1-2.24 2.52 0 1.6.75 2.56 2.2 2.56.94 0 1.5-.5 1.77-1.03h.05v.72c0 1.17-.42 1.67-1.45 1.67-.93 0-1.3-.34-1.41-.89L.8.5c.12.96.87 1.54 2.36 1.54zM3.06-.8c-.98 0-1.48-.57-1.48-1.82 0-1.13.5-1.75 1.48-1.75 1.06 0 1.58.76 1.58 1.75 0 .95-.56 1.82-1.58 1.82zm0 0"/></symbol><symbol overflow="visible" id="197e95a1G"><path d="M1.45-7.1c1.96.33 2.8 1.94 2.8 4.15 0 2.2-.84 3.8-2.8 4.17l.11.67c2.58-.47 3.67-2.28 3.67-4.84 0-2.55-1.09-4.36-3.67-4.85zm0 0"/></symbol></defs><g fill="#515151"><use xlink:href="#197e95a1a" x="87.48" y="166"/><use xlink:href="#197e95a1b" x="138.36" y="166"/></g><use xlink:href="#197e95a1c" x="184.36" y="166" fill="#fff"/><use xlink:href="#197e95a1d" x="226.44" y="166" fill="#fff"/><use xlink:href="#197e95a1c" x="231.24" y="166" fill="#fff"/><use xlink:href="#197e95a1e" x="273.32" y="166" fill="#515151"/><g fill="#515151"><use xlink:href="#197e95a1f" x="324.28" y="166"/><use xlink:href="#197e95a1g" x="344.6" y="166"/></g><use xlink:href="#197e95a1h" x="381.16" y="166" fill="#515151"/><use xlink:href="#197e95a1i" x="422.84" y="166" fill="#fff"/><use xlink:href="#197e95a1j" x="443.4" y="166" fill="#fff"/><use xlink:href="#197e95a1i" x="452.92" y="166" fill="#fff"/><use xlink:href="#197e95a1k" x="473.48" y="166" fill="#515151"/><g fill="#fff"><use xlink:href="#197e95a1l" x="236.6667" y="252"/><use xlink:href="#197e95a1m" x="243.3337" y="252"/><use xlink:href="#197e95a1n" x="250.0007" y="252"/><use xlink:href="#197e95a1o" x="256.6677" y="252"/><use xlink:href="#197e95a1p" x="263.3347" y="252"/><use xlink:href="#197e95a1q" x="270.0017" y="252"/><use xlink:href="#197e95a1r" x="276.6687" y="252"/><use xlink:href="#197e95a1s" x="283.3357" y="252"/><use xlink:href="#197e95a1t" x="290.0027" y="252"/><use xlink:href="#197e95a1u" x="296.6697" y="252"/><use xlink:href="#197e95a1t" x="303.3367" y="252"/><use xlink:href="#197e95a1v" x="310.0037" y="252"/><use xlink:href="#197e95a1q" x="316.6707" y="252"/><use xlink:href="#197e95a1w" x="323.3377" y="252"/><use xlink:href="#197e95a1m" x="330.0047" y="252"/><use xlink:href="#197e95a1x" x="336.6717" y="252"/><use xlink:href="#197e95a1u" x="343.3387" y="252"/><use xlink:href="#197e95a1x" x="350.0057" y="252"/><use xlink:href="#197e95a1y" x="356.6727" y="252"/></g><g fill="#fff"><use xlink:href="#197e95a1z" x="196.6667" y="266"/><use xlink:href="#197e95a1m" x="203.3337" y="266"/><use xlink:href="#197e95a1y" x="210.0007" y="266"/><use xlink:href="#197e95a1o" x="216.6677" y="266"/><use xlink:href="#197e95a1A" x="223.3347" y="266"/><use xlink:href="#197e95a1B" x="230.0017" y="266"/><use xlink:href="#197e95a1m" x="236.6687" y="266"/><use xlink:href="#197e95a1p" x="243.3357" y="266"/><use xlink:href="#197e95a1q" x="250.0027" y="266"/><use xlink:href="#197e95a1r" x="256.6697" y="266"/><use xlink:href="#197e95a1y" x="263.3367" y="266"/><use xlink:href="#197e95a1o" x="270.0037" y="266"/><use xlink:href="#197e95a1y" x="276.6707" y="266"/><use xlink:href="#197e95a1x" x="283.3377" y="266"/><use xlink:href="#197e95a1y" x="290.0047" y="266"/><use xlink:href="#197e95a1C" x="296.6717" y="266"/><use xlink:href="#197e95a1q" x="303.3387" y="266"/><use xlink:href="#197e95a1D" x="310.0057" y="266"/><use xlink:href="#197e95a1E" x="316.6727" y="266"/><use xlink:href="#197e95a1m" x="323.3397" y="266"/><use xlink:href="#197e95a1o" x="330.0067" y="266"/><use xlink:href="#197e95a1q" x="336.6737" y="266"/><use xlink:href="#197e95a1x" x="343.3407" y="266"/><use xlink:href="#197e95a1y" x="350.0077" y="266"/><use xlink:href="#197e95a1C" x="356.6747" y="266"/><use xlink:href="#197e95a1F" x="363.3417" y="266"/><use xlink:href="#197e95a1A" x="370.0087" y="266"/><use xlink:href="#197e95a1y" x="376.6757" y="266"/><use xlink:href="#197e95a1F" x="383.3427" y="266"/><use xlink:href="#197e95a1m" x="390.0097" y="266"/><use xlink:href="#197e95a1G" x="396.6767" y="266"/></g></svg>