<?xml version='1.0' encoding='UTF-8'?>
<svg xmlns="http://www.w3.org/2000/svg" xmlns:xlink="http://www.w3.org/1999/xlink" width="600px" height="300px" viewBox="0 0 600 300" x="0px" y="0px" enable-background="new 0 0 600 300"><defs><symbol overflow="visible" id="e15b6e82a"><path d="M16.64 0h8.48a281.2 281.2 0 01-.71-21.52v-3.12c0-5.52.15-11.2.3-15.77 5.13.18 10 .57 12.16.97.33.08 2.41-.08 2.65-.15l.71-6.72c-3.18.08-10.64.23-17.92.23H19.7c-7.2 0-14.82-.15-18-.23l-.25 6.62c.33.17 2.33.33 2.64.25 2.48-.48 7.69-.87 12.97-.97.23 4.49.3 10.18.3 15.85v3.12c0 8.32-.23 16.96-.7 21.44zm0 0"/></symbol><symbol overflow="visible" id="e15b6e82b"><path d="M27.36 1.28c.8 0 8.72-2 14-5.36 6.56-4.15 9.92-10.72 9.92-19.28 0-14.4-9.51-24-23.69-24-.8 0-8.71 2-14 5.36-6.54 4.16-9.9 10.72-9.9 19.36 0 14.33 9.44 23.92 23.67 23.92zm.95-6.16c-9.9 0-16.54-7.68-16.54-19.2 0-10.72 5.82-17.12 14.87-17.12 9.92 0 16.56 7.68 16.56 19.2 0 10.72-5.84 17.13-14.89 17.13zm0 0"/></symbol><symbol overflow="visible" id="e15b6e82c"><path d="M1.52 0h7.6c.4-1.6 1.76-5.69 3.83-11.69 3.05-.08 6.97-.15 13.7-.15 2.7 0 4.48 0 6.4.15A273 273 0 0137.2 0h7.92c.08-.23.08-2.95 0-3.2-3.76-8-10.96-25.2-18.17-43.03l-7.03.3C12.64-28.4 5.36-11.2 1.52-3.2c-.08.25-.08 2.97 0 3.2zm17.92-17.44c-1.75 0-3.13 0-4.4-.08 2.16-6.07 4.8-13.43 7.76-21.6 3.12 8.17 5.84 15.53 8.15 21.6-2.87.08-6.47.08-11.51.08zm0 0"/></symbol><symbol overflow="visible" id="e15b6e82d"><path d="M6.88 0h10.48c5.2 0 11.84.08 18.4.16l.88-6.88c-.16-.08-2.33-.33-2.56-.23-3.13.64-7.6 1.03-13.44 1.03-1.69 0-3.77 0-5.69-.08-.23-4.48-.3-10-.3-15.52v-3.12c0-8.31.22-16.95.7-21.44H6.89c.4 4.49.71 13.03.71 21.52v3.12c0 8.32-.3 16.96-.71 21.44zm0 0"/></symbol><symbol overflow="visible" id="e15b6e82e"><path d="M10.4-26.23c3.2 0 5.29-2.25 5.29-5.54 0-2.95-2-5.03-4.97-5.03-3.28 0-5.36 2.24-5.36 5.52 0 2.97 2 5.05 5.05 5.05zM10.32.23c3.2 0 5.28-2.23 5.28-5.51 0-2.95-2-5.03-4.95-5.03-3.28 0-5.36 2.23-5.36 5.51 0 2.96 2 5.03 5.03 5.03zm0 0"/></symbol><symbol overflow="visible" id="e15b6e82g"><path d="M21.6 1.36c.96 0 8.24-1.84 12.56-4.56 3.68-2.32 5.92-5.44 5.92-9.28 0-4.88-3.6-8.64-10.95-11.93 1.18-.54 2.3-1.28 3.28-1.9 3.36-2.4 5.18-5.46 5.18-9.53 0-6.96-6.39-11.52-15.59-11.52-1.05 0-6.88 1.6-10.8 4.23-3.43 2.33-5.43 5.36-5.43 9.05 0 4.31 2.71 7.77 8.07 10.72a28.29 28.29 0 00-4.96 2.8c-3.36 2.4-5.2 5.43-5.2 9.43 0 7.54 7.37 12.49 17.91 12.49zm-.32-29.05c-5.92-2.47-8.33-4.54-8.33-7.83 0-3.76 2.97-6 8.1-6 5.67 0 9.51 2.88 9.51 7.11 0 2.97-1.76 5.61-5.6 8.25zM11.12-12.16c0-3.28 2.16-6.25 7.11-9.2l6.08 2.48c5.92 2.4 8.25 4.57 8.25 7.83 0 4.18-3.69 6.64-10 6.64-6.87 0-11.43-3.1-11.43-7.75zm0 0"/></symbol><symbol overflow="visible" id="e15b6e82h"><path d="M17.44 1.28c.87 0 6.33-1.69 10.56-4.4 4.95-3.11 7.52-7.52 7.52-12.96 0-8.33-6.24-13.36-16.72-13.36-.57 0-3.85.88-7.2 2 .17-4.33.4-9.04.63-13.04 7.93 0 13.85.17 20.41.56l.88-6.31c-.32-.08-2.32-.25-2.57-.25-2.39.4-6.54.56-13.82.56-4.33 0-8 0-11.54-.24.18 5.28.25 13.68.18 21.03.3 1.13 1.1 2.57 1.82 3.54 3.61-1.29 6.64-1.93 9.61-1.93 6.72 0 10.72 3.29 10.72 9.04C27.92-8.8 24-4.95 18-4.95c-3.44 0-7.6-1.28-12-3.7L3.36-1.76c3.92 2 8.8 3.05 14.08 3.05zm0 0"/></symbol><symbol overflow="visible" id="e15b6e82i"><path d="M11.84 0h8.24c-.49-4.48-.72-12.95-.72-21.44v-3.2c0-8.31.23-16.8.72-21.28a23.2 23.2 0 00-2.4-1.28C12.8-44.8 6.24-41.92 1.2-40.16L2.48-36l10.08-2.4v17.04c0 8.23-.33 16.88-.72 21.36zm0 0"/></symbol><symbol overflow="visible" id="e15b6e82j"><path d="M21.52 1.36c.56 0 6.64-1.52 10.89-4.4a14.67 14.67 0 006.64-12.65c0-8.39-6.1-14.15-15.13-14.15-1.69 0-3.05.25-4 .56a68.23 68.23 0 00-8.48 4.56c.48-10.8 5.04-16.23 13.51-16.23 2.74 0 5.77.64 8.4 1.9l2.5-6.39a31.1 31.1 0 00-10-1.76c-.65 0-6.8 1.2-11.37 4C7.6-39.05 4-31.36 4-20.95c0 14 6.48 22.3 17.52 22.3zm.07-25.44c6.1 0 10.18 3.92 10.18 9.85 0 5.75-3.7 9.59-9.13 9.59-6.56 0-10.64-5.67-11.2-15.52 3.69-2.64 6.8-3.92 10.15-3.92zm0 0"/></symbol><symbol overflow="visible" id="e15b6e82k"><path d="M3.83 0v-5.95H6.2v-.82H.45v.82h2.4V0zm0 0"/></symbol><symbol overflow="visible" id="e15b6e82l"><path d="M5.75-2.23v-.43c0-1.6-.9-2.51-2.42-2.51S.87-4.16.87-2.48c0 1.71.91 2.62 2.5 2.62 1.43 0 2.07-.56 2.29-1.52l-.9-.09c-.18.61-.59.9-1.35.9-.94 0-1.52-.54-1.58-1.66zm-2.4-2.2c.93 0 1.43.5 1.48 1.55H1.84c.08-1.07.6-1.56 1.5-1.56zm0 0"/></symbol><symbol overflow="visible" id="e15b6e82m"><path d="M1.83 0l1.42-2h.06l1.46 2H5.8L4-2.53l1.78-2.49H4.8L3.42-3.08h-.08l-1.4-1.94H.89l1.78 2.49L.84 0zm0 0"/></symbol><symbol overflow="visible" id="e15b6e82n"><path d="M5.52-4.25v-.77H3.17v-1.56h-.81l-.14 1.56H.75v.77h1.47v2.4c0 1.3.48 1.94 1.84 1.94C4.6.1 5.14 0 5.55-.14L5.4-.91c-.32.13-.72.2-1.13.2-.8 0-1.1-.37-1.1-1.23v-2.31zm0 0"/></symbol><symbol overflow="visible" id="e15b6e82o"><path d="M3.33-3.42c.47 0 .8-.27.8-.8 0-.51-.33-.8-.8-.8-.47 0-.8.29-.8.8 0 .53.33.8.8.8zm0 3.5c.47 0 .8-.27.8-.78 0-.53-.33-.82-.8-.82-.47 0-.8.29-.8.82 0 .51.33.78.8.78zm0 0"/></symbol><symbol overflow="visible" id="e15b6e82q"><path d="M3.33.14c1.62 0 2.5-.95 2.5-2.66 0-1.68-.88-2.64-2.5-2.64-1.63 0-2.5.96-2.5 2.64 0 1.7.87 2.66 2.5 2.66zm0-.77c-1.06 0-1.52-.6-1.52-1.89 0-1.28.46-1.87 1.52-1.87 1.08 0 1.53.6 1.53 1.87 0 1.29-.45 1.9-1.53 1.9zm0 0"/></symbol><symbol overflow="visible" id="e15b6e82r"><path d="M2.83.14c.94 0 1.5-.39 1.81-.95h.08l.1.81h.76v-3.38c0-1.23-.69-1.8-2.13-1.8-1.43 0-2.03.65-2.18 1.6l.93.1c.11-.6.44-.93 1.22-.93.85 0 1.22.32 1.22 1.04v.34l-1.81.2C1.6-2.7 1.1-2.17 1.1-1.28c0 .92.64 1.42 1.72 1.42zm.25-.77c-.67 0-1.02-.28-1.02-.74 0-.44.28-.72 1-.82l1.58-.19v.41c0 .8-.6 1.34-1.56 1.34zm0 0"/></symbol><symbol overflow="visible" id="e15b6e82s"><path d="M3.92-7.14H1.36v.76h1.6v5.61H1.15V0H5.7v-.77H3.92zm0 0"/></symbol><symbol overflow="visible" id="e15b6e82t"><path d="M3.33.16c1.69 0 2.69-.74 2.69-1.94 0-1.05-.8-1.58-1.43-1.72v-.05c.5-.14 1.2-.58 1.2-1.56 0-1.12-.95-1.81-2.46-1.81-1.52 0-2.46.69-2.46 1.81 0 .97.68 1.4 1.18 1.56v.05c-.6.14-1.4.64-1.4 1.72 0 1.2 1 1.94 2.68 1.94zm0-4.04c-.97 0-1.49-.43-1.49-1.12 0-.78.52-1.1 1.49-1.1.95 0 1.48.32 1.48 1.1 0 .69-.53 1.13-1.48 1.13zm0 3.24c-1.1 0-1.7-.42-1.7-1.25 0-.78.6-1.2 1.7-1.2s1.7.42 1.7 1.2c0 .83-.6 1.25-1.7 1.25zm0 0"/></symbol><symbol overflow="visible" id="e15b6e82u"><path d="M3.42.14c1.55 0 2.44-.84 2.44-2.33 0-1.45-.83-2.22-2.14-2.22-.75 0-1.28.27-1.67.72H2l.31-2.22h3.11v-.86H1.53l-.45 3.93h.81c.3-.36.9-.79 1.58-.79.92 0 1.44.43 1.44 1.47 0 .99-.54 1.5-1.49 1.5-.83 0-1.28-.32-1.5-1.01l-.95.1C1.07-.46 2 .13 3.42.13zm0 0"/></symbol><symbol overflow="visible" id="e15b6e82v"><path d="M4.22-6.77h-.86l-2.03.7v.87c.64-.17 1.26-.38 1.89-.55v4.9H1.03V0h4.9v-.86H4.21zm0 0"/></symbol><symbol overflow="visible" id="e15b6e82w"><path d="M3.42.14c1.58 0 2.49-.86 2.49-2.3 0-1.42-.86-2.17-2.22-2.17-1.03 0-1.58.5-1.9 1.02h-.04c.03-1.63.4-2.77 1.73-2.77.91 0 1.24.44 1.36.96l.97-.11c-.23-.96-.86-1.68-2.33-1.68C1.84-6.9.86-5.86.86-3.1.86-.9 1.78.14 3.42.14zm.02-.78c-.9 0-1.47-.55-1.47-1.47 0-.9.7-1.47 1.53-1.47.92 0 1.47.52 1.47 1.47 0 .97-.6 1.47-1.53 1.47zm0 0"/></symbol><symbol overflow="visible" id="e15b6e82x"><path d="M5.95-6.77H1.1V0h.99v-2.92H5.3v-.77H2.08v-2.26h3.87zm0 0"/></symbol><symbol overflow="visible" id="e15b6e82y"><path d="M2.73.14c.9 0 1.43-.45 1.74-1.08h.06l.13.94h.8v-5.02h-.94v2.7c0 .98-.57 1.62-1.46 1.62-.75 0-1.1-.4-1.1-1.22v-3.1h-.93v3.32c0 1.17.55 1.84 1.7 1.84zm0 0"/></symbol><symbol overflow="visible" id="e15b6e82z"><path d="M5.08-5.16c-.94 0-1.58.43-1.9 1.3h-.09l-.07-1.16H1.05v.77h1.1v3.48H.96V0h3.96v-.77H3.1v-1.46c0-1.36.6-2.05 1.83-2.05.4 0 .76.08 1.1.17l.15-.87c-.33-.11-.7-.18-1.11-.18zm0 0"/></symbol><symbol overflow="visible" id="e15b6e82A"><path d="M3.42.14c1.61 0 2.56-.75 2.56-2 0-1.1-.67-1.6-1.95-1.86l-.97-.2c-.87-.17-1.23-.49-1.23-1.11 0-.7.54-1.11 1.5-1.11 1.06 0 1.51.34 1.69 1.23l.9-.09c-.17-1.28-.98-1.9-2.6-1.9C1.79-6.9.9-6.18.9-4.98c0 1.06.66 1.66 1.88 1.9l1.01.2c.85.17 1.25.4 1.25 1.09 0 .73-.6 1.16-1.6 1.16-1.07 0-1.66-.4-1.8-1.24l-.94.1C.83-.53 1.75.13 3.42.13zm0 0"/></symbol><symbol overflow="visible" id="e15b6e82B"><path d="M1.63 0v-2.9c0-.8.15-1.4.71-1.4.41 0 .55.3.55.88V0h.95v-2.9c0-.8.18-1.4.72-1.4.4 0 .57.3.57.88V0h.95v-3.63c0-.92-.28-1.53-1.11-1.53-.63 0-.95.41-1.1.9h-.06c-.1-.52-.44-.9-1.08-.9-.6 0-.93.41-1.06.9H1.6l-.23-.76H.67V0zm0 0"/></symbol><symbol overflow="visible" id="e15b6e82C"><path d="M5.33-2.2v-.75h-4v.75zm0 0"/></symbol><symbol overflow="visible" id="e15b6e82D"><path d="M3.34.14c1.43 0 2.13-.66 2.25-1.78l-.89-.1c-.1.7-.5 1.08-1.34 1.08-1.03 0-1.52-.64-1.52-1.84 0-1.23.47-1.86 1.52-1.86.84 0 1.23.36 1.34 1.08l.9-.1c-.13-1.09-.82-1.78-2.26-1.78-1.56 0-2.46.97-2.46 2.66 0 1.66.9 2.64 2.46 2.64zm0 0"/></symbol><symbol overflow="visible" id="e15b6e82E"><path d="M2.06 1.9V-.84h.05c.28.58.8.97 1.77.97 1.5 0 2.2-.98 2.2-2.66 0-1.65-.7-2.64-2.19-2.64-.97 0-1.5.44-1.78 1.05h-.08l-.1-.9H1.1v6.9zm1.5-2.56c-1.06 0-1.53-.8-1.53-1.86 0-1.04.47-1.84 1.53-1.84 1.11 0 1.53.61 1.53 1.84 0 1.27-.42 1.86-1.53 1.86zm0 0"/></symbol><symbol overflow="visible" id="e15b6e82F"><path d="M2.16 0v-2.67c0-.99.59-1.63 1.46-1.63.74 0 1.07.38 1.07 1.22V0h.95v-3.31c0-1.2-.56-1.85-1.67-1.85-.92 0-1.49.46-1.77 1.08h-.06l-.12-.94H1.2V0zm0 0"/></symbol><symbol overflow="visible" id="e15b6e82G"><path d="M3.36.16c1.4 0 2.2-.6 2.2-1.57 0-.89-.54-1.22-1.47-1.39L3-3c-.67-.14-.86-.33-.86-.73 0-.5.4-.74 1.17-.74.83 0 1.19.27 1.27.8l.9-.05c-.12-1-.8-1.47-2.17-1.47-1.34 0-2.1.53-2.1 1.5 0 .81.45 1.22 1.52 1.44l1.04.2c.56.11.87.24.87.72 0 .52-.45.78-1.28.78-.95 0-1.36-.28-1.42-.87l-.9.06C1.07-.36 1.8.16 3.35.16zm0 0"/></symbol><symbol overflow="visible" id="e15b6e82H"><path d="M1.45-2.95c0 2.56 1.08 4.37 3.67 4.84l.11-.67C3.28.86 2.43-.75 2.43-2.95s.85-3.82 2.8-4.16l-.1-.69c-2.6.49-3.68 2.3-3.68 4.85zm0 0"/></symbol><symbol overflow="visible" id="e15b6e82I"><path d="M5.67 0v-.86H2.14V-.9L3.6-2c1.05-.83 2-1.68 2-2.91 0-1.19-.73-1.99-2.26-1.99-1.66 0-2.3 1.02-2.44 2.33l1 .08c.1-.92.42-1.58 1.44-1.58.87 0 1.26.44 1.26 1.24 0 .9-.8 1.53-1.96 2.53L.83-.81V0zm0 0"/></symbol><symbol overflow="visible" id="e15b6e82J"><path d="M1.45-7.1c1.96.33 2.8 1.94 2.8 4.15 0 2.2-.84 3.8-2.8 4.17l.11.67c2.58-.47 3.67-2.28 3.67-4.84 0-2.55-1.09-4.36-3.67-4.85zm0 0"/></symbol></defs><use xlink:href="#e15b6e82a" x="96.16" y="166" fill="#515151"/><use xlink:href="#e15b6e82b" x="135.44" y="166" fill="#515151"/><use xlink:href="#e15b6e82a" x="188.96" y="166" fill="#515151"/><use xlink:href="#e15b6e82c" x="226.16" y="166" fill="#515151"/><use xlink:href="#e15b6e82d" x="272.96" y="166" fill="#515151"/><g fill="#515151"><use xlink:href="#e15b6e82e" x="311.12" y="166"/><use xlink:href="#e15b6e82f" x="332.08" y="166"/></g><use xlink:href="#e15b6e82g" x="352.4" y="166" fill="#fff"/><use xlink:href="#e15b6e82h" x="396" y="166" fill="#fff"/><use xlink:href="#e15b6e82i" x="434.8" y="166" fill="#fff"/><use xlink:href="#e15b6e82j" x="461.76" y="166" fill="#fff"/><g fill="#fff"><use xlink:href="#e15b6e82k" x="243.3333" y="252"/><use xlink:href="#e15b6e82l" x="250.0003" y="252"/><use xlink:href="#e15b6e82m" x="256.6673" y="252"/><use xlink:href="#e15b6e82n" x="263.3343" y="252"/><use xlink:href="#e15b6e82o" x="270.0013" y="252"/><use xlink:href="#e15b6e82p" x="276.6683" y="252"/><use xlink:href="#e15b6e82k" x="283.3353" y="252"/><use xlink:href="#e15b6e82q" x="290.0023" y="252"/><use xlink:href="#e15b6e82n" x="296.6693" y="252"/><use xlink:href="#e15b6e82r" x="303.3363" y="252"/><use xlink:href="#e15b6e82s" x="310.0033" y="252"/><use xlink:href="#e15b6e82o" x="316.6703" y="252"/><use xlink:href="#e15b6e82p" x="323.3373" y="252"/><use xlink:href="#e15b6e82t" x="330.0043" y="252"/><use xlink:href="#e15b6e82u" x="336.6713" y="252"/><use xlink:href="#e15b6e82v" x="343.3383" y="252"/><use xlink:href="#e15b6e82w" x="350.0053" y="252"/></g><g fill="#fff"><use xlink:href="#e15b6e82x" x="186.6667" y="266"/><use xlink:href="#e15b6e82l" x="193.3337" y="266"/><use xlink:href="#e15b6e82r" x="200.0007" y="266"/><use xlink:href="#e15b6e82n" x="206.6677" y="266"/><use xlink:href="#e15b6e82y" x="213.3347" y="266"/><use xlink:href="#e15b6e82z" x="220.0017" y="266"/><use xlink:href="#e15b6e82l" x="226.6687" y="266"/><use xlink:href="#e15b6e82o" x="233.3357" y="266"/><use xlink:href="#e15b6e82p" x="240.0027" y="266"/><use xlink:href="#e15b6e82A" x="246.6697" y="266"/><use xlink:href="#e15b6e82B" x="253.3367" y="266"/><use xlink:href="#e15b6e82r" x="260.0037" y="266"/><use xlink:href="#e15b6e82s" x="266.6707" y="266"/><use xlink:href="#e15b6e82s" x="273.3377" y="266"/><use xlink:href="#e15b6e82C" x="280.0047" y="266"/><use xlink:href="#e15b6e82D" x="286.6717" y="266"/><use xlink:href="#e15b6e82r" x="293.3387" y="266"/><use xlink:href="#e15b6e82E" x="300.0057" y="266"/><use xlink:href="#e15b6e82p" x="306.6727" y="266"/><use xlink:href="#e15b6e82F" x="313.3397" y="266"/><use xlink:href="#e15b6e82y" x="320.0067" y="266"/><use xlink:href="#e15b6e82B" x="326.6737" y="266"/><use xlink:href="#e15b6e82l" x="333.3407" y="266"/><use xlink:href="#e15b6e82z" x="340.0077" y="266"/><use xlink:href="#e15b6e82r" x="346.6747" y="266"/><use xlink:href="#e15b6e82s" x="353.3417" y="266"/><use xlink:href="#e15b6e82G" x="360.0087" y="266"/><use xlink:href="#e15b6e82p" x="366.6757" y="266"/><use xlink:href="#e15b6e82H" x="373.3427" y="266"/><use xlink:href="#e15b6e82D" x="380.0097" y="266"/><use xlink:href="#e15b6e82I" x="386.6767" y="266"/><use xlink:href="#e15b6e82G" x="393.3437" y="266"/><use xlink:href="#e15b6e82D" x="400.0107" y="266"/><use xlink:href="#e15b6e82J" x="406.6777" y="266"/></g></svg>