<?xml version='1.0' encoding='UTF-8'?>
<svg xmlns="http://www.w3.org/2000/svg" xmlns:xlink="http://www.w3.org/1999/xlink" width="450px" height="600px" viewBox="0 0 450 600" x="0px" y="0px" enable-background="new 0 0 450 600"><defs><symbol overflow="visible" id="e35a5f1ea"><path d="M18.14.95c.53 0 7.69-1.1 13.11-5.08-.19-.92-.34-3.07-.34-6.04 0-2.69.1-5.33.25-6.53a129.38 129.38 0 01-12.05-.1l-.25 4.22a96.8 96.8 0 017.64-.23c.05.76.05 1.62.05 2.54 0 1.86-.1 3.7-.25 5.08a16.05 16.05 0 01-7.68 1.92c-7.25 0-11.56-5.14-11.56-13.82 0-8.6 4.27-13.63 10.85-13.63.62 0 1.34.05 1.96.14l7.16 3.22c.19.05.9.05 1.1 0l1.68-4.52A27.39 27.39 0 0018.4-34.8c-.53 0-5.77 1.49-9.03 3.7-4.42 3.02-7.06 8.63-7.06 15.2C2.3-5.85 8.4.96 18.14.96zm0 0"/></symbol><symbol overflow="visible" id="e35a5f1eb"><path d="M6.05-28.31c.23 0 1.3-.2 2.15-.88.58-.47.93-1.2.93-2.15 0-1.7-1.2-2.83-2.99-2.83-.23 0-1.3.19-2.16.86-.57.48-.9 1.2-.9 2.15 0 1.7 1.19 2.85 2.97 2.85zM3.8 0h4.93c-.18-2.69-.32-7.06-.32-11.19 0-4.65.14-9.94.37-12.9l-5.42.57c-.05.14-.05 1.58 0 1.72.48 1.02.77 4.66.77 10.03C4.13-8.1 3.98-2.78 3.8 0zm0 0"/></symbol><symbol overflow="visible" id="e35a5f1ec"><path d="M10.98.63c2.08 0 4.05-.58 6.3-1.79l-.97-2.96c-1.39.57-2.78.9-4.03.9-2.15 0-2.83-.9-2.97-3.8-.04-1.23-.04-3.06-.04-5.8v-7.59l7.53.44.72-3.94-8.25.14c.04-2.15.14-4.65.23-6.42l-3.45.28c-.2 1.35-.58 3.75-1.07 6.14l-3.78.58v2.78h3.85v8.64c0 1.7-.07 4.2-.11 6.4-.1 4.42 2.6 6 6.04 6zm0 0"/></symbol><symbol overflow="visible" id="e35a5f1ed"><path d="M8.3.67a9.8 9.8 0 002.54-.33c1.6-.78 3.52-1.92 5.05-2.98.19 1.1.53 2.25.9 3.12l3.57-.67c.1-.15.37-.72.42-.92-.81-1.86-1.2-5.08-1.2-9.1 0-3.52.3-6 .3-8.07 0-4.19-3.27-6.34-8.02-6.34-2.83 0-6.25.76-9.22 2.06l1.53 3.93c3.13-1.78 5-2.45 6.77-2.45 2.94 0 4.56 1.78 4.56 4.77v2.43l-8.69 1.26C3.45-11.43 1.7-8.97 1.7-5.78 1.69-1.83 4.3.67 8.29.67zm-2.25-7.2c0-1.88 1.01-3.06 2.87-3.5l6.53-1.44v6.1c-1.87 1.53-3.93 2.4-5.8 2.4-2.26 0-3.6-1.4-3.6-3.56zm0 0"/></symbol><symbol overflow="visible" id="e35a5f1ee"><path d="M3.7 0h4.94a178.73 178.73 0 01-.19-18.58 9.99 9.99 0 016.05-2.25c3.98 0 4.66 2.92 4.66 9.36v.05c0 3.01-.14 8.73-.35 11.42h4.96c-.2-2.73-.35-7.69-.35-10.38 0-2.68.14-5.37.14-7.9 0-3.99-2.87-6.34-7.72-6.34-1.06 0-2.1.14-2.89.34-1.62.81-3.6 1.97-5.12 3.06-.3-1.92-.72-3.01-.72-3.01l-3.94 1c-.04.14-.04 1.59 0 1.73.47 1 .86 3.73.86 9.73C4.03-8.1 3.9-2.78 3.7 0zm0 0"/></symbol><symbol overflow="visible" id="e35a5f1ef"><path d="M3.55-2.73h1.67C5.09-1.45 4.58-.64 3.36-.64c-1.25 0-1.78-1.03-1.78-2.73 0-1.77.53-2.72 1.81-2.72.9 0 1.47.45 1.69 1.43l.95-.09C5.8-6 5.11-6.91 3.41-6.91 1.44-6.9.58-5.59.58-3.37.58-1.2 1.4.13 3.14.13c1.3 0 1.78-.73 2-1.36h.1L5.33 0h.75v-3.42H3.55zm0 0"/></symbol><symbol overflow="visible" id="e35a5f1eg"><path d="M3.58-5.81c.42 0 .72-.22.72-.67 0-.44-.3-.68-.72-.68-.44 0-.72.24-.72.68 0 .45.28.67.72.67zm.5.8H1.52v.76h1.6v3.48h-1.8V0h4.46v-.77h-1.7zm0 0"/></symbol><symbol overflow="visible" id="e35a5f1eh"><path d="M5.52-4.25v-.77H3.17v-1.56h-.81l-.14 1.56H.75v.77h1.47v2.4c0 1.3.48 1.94 1.84 1.94C4.6.1 5.14 0 5.55-.14L5.4-.91c-.32.13-.72.2-1.13.2-.8 0-1.1-.37-1.1-1.23v-2.31zm0 0"/></symbol><symbol overflow="visible" id="e35a5f1ei"><path d="M2.83.14c.94 0 1.5-.39 1.81-.95h.08l.1.81h.76v-3.38c0-1.23-.69-1.8-2.13-1.8-1.43 0-2.03.65-2.18 1.6l.93.1c.11-.6.44-.93 1.22-.93.85 0 1.22.32 1.22 1.04v.34l-1.81.2C1.6-2.7 1.1-2.17 1.1-1.28c0 .92.64 1.42 1.72 1.42zm.25-.77c-.67 0-1.02-.28-1.02-.74 0-.44.28-.72 1-.82l1.58-.19v.41c0 .8-.6 1.34-1.56 1.34zm0 0"/></symbol><symbol overflow="visible" id="e35a5f1ej"><path d="M2.16 0v-2.67c0-.99.59-1.63 1.46-1.63.74 0 1.07.38 1.07 1.22V0h.95v-3.31c0-1.2-.56-1.85-1.67-1.85-.92 0-1.49.46-1.77 1.08h-.06l-.12-.94H1.2V0zm0 0"/></symbol><symbol overflow="visible" id="e35a5f1el"><path d="M2.08-6.77h-.99V0h4.79v-.81h-3.8zm0 0"/></symbol><symbol overflow="visible" id="e35a5f1em"><path d="M4.06-2.77c1.25-.04 1.92-.7 1.92-1.96 0-1.36-.7-2.04-2.17-2.04H.92V0h.97v-2.73h1.08L4.95 0h1.1zM1.9-6h1.7c1.07 0 1.46.34 1.46 1.28 0 .9-.44 1.27-1.47 1.27H1.89zm0 0"/></symbol><symbol overflow="visible" id="e35a5f1en"><path d="M5.75-2.23v-.43c0-1.6-.9-2.51-2.42-2.51S.87-4.16.87-2.48c0 1.71.91 2.62 2.5 2.62 1.43 0 2.07-.56 2.29-1.52l-.9-.09c-.18.61-.59.9-1.35.9-.94 0-1.52-.54-1.58-1.66zm-2.4-2.2c.93 0 1.43.5 1.48 1.55H1.84c.08-1.07.6-1.56 1.5-1.56zm0 0"/></symbol><symbol overflow="visible" id="e35a5f1eo"><path d="M3.16 2.03c1.67 0 2.4-.86 2.4-2.51v-4.54h-.81l-.13.91h-.06c-.26-.58-.8-1.05-1.73-1.05-1.42 0-2.24 1-2.24 2.52 0 1.6.75 2.56 2.2 2.56.94 0 1.5-.5 1.77-1.03h.05v.72c0 1.17-.42 1.67-1.45 1.67-.93 0-1.3-.34-1.41-.89L.8.5c.12.96.87 1.54 2.36 1.54zM3.06-.8c-.98 0-1.48-.57-1.48-1.82 0-1.13.5-1.75 1.48-1.75 1.06 0 1.58.76 1.58 1.75 0 .95-.56 1.82-1.58 1.82zm0 0"/></symbol><symbol overflow="visible" id="e35a5f1ep"><path d="M2.73.14c.9 0 1.43-.45 1.74-1.08h.06l.13.94h.8v-5.02h-.94v2.7c0 .98-.57 1.62-1.46 1.62-.75 0-1.1-.4-1.1-1.22v-3.1h-.93v3.32c0 1.17.55 1.84 1.7 1.84zm0 0"/></symbol><symbol overflow="visible" id="e35a5f1eq"><path d="M3.92-7.14H1.36v.76h1.6v5.61H1.15V0H5.7v-.77H3.92zm0 0"/></symbol><symbol overflow="visible" id="e35a5f1er"><path d="M5.08-5.16c-.94 0-1.58.43-1.9 1.3h-.09l-.07-1.16H1.05v.77h1.1v3.48H.96V0h3.96v-.77H3.1v-1.46c0-1.36.6-2.05 1.83-2.05.4 0 .76.08 1.1.17l.15-.87c-.33-.11-.7-.18-1.11-.18zm0 0"/></symbol><symbol overflow="visible" id="e35a5f1ex"><path d="M3.83-5.97h1.73v-.8H1.1v.8h1.75v5.19H1.1V0h4.47v-.78H3.83zm0 0"/></symbol><symbol overflow="visible" id="e35a5f1ey"><path d="M3.34.14c1.43 0 2.13-.66 2.25-1.78l-.89-.1c-.1.7-.5 1.08-1.34 1.08-1.03 0-1.52-.64-1.52-1.84 0-1.23.47-1.86 1.52-1.86.84 0 1.23.36 1.34 1.08l.9-.1c-.13-1.09-.82-1.78-2.26-1.78-1.56 0-2.46.97-2.46 2.66 0 1.66.9 2.64 2.46 2.64zm0 0"/></symbol><symbol overflow="visible" id="e35a5f1eE"><path d="M1.64 0v-3.17l-.16-2.5h.1L2.9-1.83h.82l1.35-3.84h.1l-.16 2.5V0h.95v-6.77h-1.3l-1.3 3.82h-.09L2-6.77H.69V0zm0 0"/></symbol><symbol overflow="visible" id="e35a5f1eF"><path d="M2.84.14C3.8.14 4.33-.26 4.6-.9h.07L4.8 0h.76v-7.14h-.95v2.95h-.08c-.28-.6-.86-.97-1.67-.97-1.48 0-2.27.99-2.27 2.64C.6-.84 1.36.14 2.84.14zm.22-.8c-.98 0-1.48-.59-1.48-1.84s.5-1.86 1.48-1.86c1.13 0 1.58.8 1.58 1.86S4.2-.66 3.06-.66zm0 0"/></symbol><symbol overflow="visible" id="e35a5f1eG"><path d="M1.63 0v-2.9c0-.8.15-1.4.71-1.4.41 0 .55.3.55.88V0h.95v-2.9c0-.8.18-1.4.72-1.4.4 0 .57.3.57.88V0h.95v-3.63c0-.92-.28-1.53-1.11-1.53-.63 0-.95.41-1.1.9h-.06c-.1-.52-.44-.9-1.08-.9-.6 0-.93.41-1.06.9H1.6l-.23-.76H.67V0zm0 0"/></symbol><symbol overflow="visible" id="e35a5f1eR"><path d="M3.42.14c1.61 0 2.56-.75 2.56-2 0-1.1-.67-1.6-1.95-1.86l-.97-.2c-.87-.17-1.23-.49-1.23-1.11 0-.7.54-1.11 1.5-1.11 1.06 0 1.51.34 1.69 1.23l.9-.09c-.17-1.28-.98-1.9-2.6-1.9C1.79-6.9.9-6.18.9-4.98c0 1.06.66 1.66 1.88 1.9l1.01.2c.85.17 1.25.4 1.25 1.09 0 .73-.6 1.16-1.6 1.16-1.07 0-1.66-.4-1.8-1.24l-.94.1C.83-.53 1.75.13 3.42.13zm0 0"/></symbol><symbol overflow="visible" id="e35a5f1eS"><path d="M3.9.14c1.48 0 2.18-.98 2.18-2.64 0-1.67-.7-2.66-2.17-2.66-.91 0-1.49.41-1.79 1h-.06v-2.98h-.95V0h.81l.11-.9h.06c.29.63.82 1.04 1.82 1.04zm-.32-.8c-1.08 0-1.55-.8-1.55-1.84 0-1.06.47-1.86 1.55-1.86 1.1 0 1.51.61 1.51 1.86S4.64-.66 3.58-.66zm0 0"/></symbol><symbol overflow="visible" id="e35a5f1eT"><path d="M3.33.14c1.62 0 2.5-.95 2.5-2.66 0-1.68-.88-2.64-2.5-2.64-1.63 0-2.5.96-2.5 2.64 0 1.7.87 2.66 2.5 2.66zm0-.77c-1.06 0-1.52-.6-1.52-1.89 0-1.28.46-1.87 1.52-1.87 1.08 0 1.53.6 1.53 1.87 0 1.29-.45 1.9-1.53 1.9zm0 0"/></symbol><symbol overflow="visible" id="e35a5f1eae"><path d="M4.66-3.45c.76-.14 1.15-.67 1.15-1.57 0-1.07-.64-1.75-2.18-1.75H.92V0h2.71C5.2 0 5.98-.64 5.98-1.77c0-1.03-.56-1.43-1.32-1.59zM3.56-6c.9 0 1.31.4 1.31 1.13 0 .71-.4 1.14-1.3 1.14h-1.7V-6zM1.87-.75v-2.27H3.6c.97 0 1.44.33 1.44 1.13 0 .8-.47 1.14-1.44 1.14zm0 0"/></symbol><symbol overflow="visible" id="e35a5f1eap"><path d="M5.92-6.77H1.1V0h4.83v-.8H2.06v-2.26h3.22v-.75H2.06v-2.16h3.86zm0 0"/></symbol><symbol overflow="visible" id="e35a5f1eaq"><path d="M1.83 0l1.42-2h.06l1.46 2H5.8L4-2.53l1.78-2.49H4.8L3.42-3.08h-.08l-1.4-1.94H.89l1.78 2.49L.84 0zm0 0"/></symbol><symbol overflow="visible" id="e35a5f1es"><path d="M14.64.9c.48 0 6.9-1.04 12.44-5.03.1-1.15.47-3.6.9-6.04.54-2.9 1.11-5.33 1.44-6.53a84.88 84.88 0 01-10.94-.05 10.68 10.68 0 00-1.06 4.17c1.97-.14 4.66-.23 6.97-.28l-.44 2.6c-.39 1.85-.76 3.68-1.15 5.07a15.6 15.6 0 01-7.25 1.97c-5.13 0-8.2-3.5-8.2-9.4 0-7.16 3.7-18.15 12.67-18.15.28 0 .53 0 .8.05l6.73 3.31h.97c1-1.06 2.01-2.82 2.5-4.42-2.55-1.76-6.63-2.92-10.14-2.92-.43 0-5.57 1.4-8.97 3.64-5.43 3.61-9.08 11.19-9.08 18.83C2.83-3.98 7.2.9 14.64.9zm0 0"/></symbol><symbol overflow="visible" id="e35a5f1et"><path d="M9.6-28.38c.24 0 1.15-.14 2.06-.8a3.07 3.07 0 001.25-2.6c0-1.49-.91-2.34-2.54-2.34-.24 0-1.15.14-2.07.8a3.1 3.1 0 00-1.24 2.6c0 1.49.9 2.34 2.53 2.34zM2.63.29C4.17.28 5.95.1 7.16-.23l.53-1.65c-1.2-.95-1.3-3.4.04-9.4a233.87 233.87 0 013.16-12.77c-1.77 0-3.83.24-5.37.58l-.38 1.63c.63 1.15.28 3.21-1.2 9.84C2.06-3.64 1.83-1.62 2.64.28zm0 0"/></symbol><symbol overflow="visible" id="e35a5f1eu"><path d="M7.88.58c2.01 0 4.07-.63 6.48-2.02a9.53 9.53 0 00-.88-2.78A9.47 9.47 0 019.5-3.17c-1.44 0-2.06-.58-2.06-2.11 0-1.44.48-3.64.97-6l1.86-9.13 6.71.4c.68-1.07 1.3-2.6 1.5-3.85l-7.59.14c.53-2.16 1.11-4.55 1.55-6.28a12.6 12.6 0 00-3.27.28 80.77 80.77 0 01-2.26 6.06l-3.36.52-.58 2.69h3.37L4.61-12c-.58 2.78-1.64 6.63-1.64 8.5C2.97-.95 4.8.58 7.87.58zm0 0"/></symbol><symbol overflow="visible" id="e35a5f1ev"><path d="M7.83.86C8.64.86 9.3.72 9.98.44a71.33 71.33 0 006.2-5c-.24 2.01-.24 3.65.29 4.84 1.34 0 2.92-.19 4.03-.51l.53-1.65c-1.2-.95-1.3-3.4.05-9.4a149.3 149.3 0 012.97-11.66l-1.35-1.2c-.62.33-1.43.86-2.1 1.39-1.79-1.16-3.76-1.88-5.24-1.88-.44 0-4.84 1.35-7.4 3.22-3.7 2.7-6.38 8.5-6.38 13.79C1.58-2.2 3.94.86 7.83.86zM5.9-8.3c0-4.6 2.54-12.57 8.45-12.57 1.23 0 2.92.51 4.6 1.34L17.27-12l-.86 4.03c-3.03 2.99-5.86 5.1-7.5 5.1-2.06 0-3.01-2.11-3.01-5.43zm0 0"/></symbol><symbol overflow="visible" id="e35a5f1ew"><path d="M1.34.19c1.63 0 3.46-.14 4.7-.33.35-2.94 1.12-7.4 1.93-11.14l.9-4.36c3.13-3.13 5.96-5.23 7.79-5.23 1.25 0 2.01 1 2.01 2.73 0 1.25-.39 3.31-.95 5.86l-.11.42C16.13-5.28 15.4-1.78 16.38.28c1.53 0 3.3-.19 4.5-.51l.53-1.65c-1.2-.95-1.25-3.89 0-9.4.53-2.3 1.78-6.24 1.78-8.45 0-2.93-2.16-4.85-5.38-4.85-.87 0-1.78.14-2.36.4a69.18 69.18 0 00-6.32 5.12c.23-2.16.14-3.88-.2-5.13-1.3.19-2.84.63-3.84 1l-.34 1.64c.67 1.14.48 4.18-.63 9.55C2.98-6.4 2.06-2.55 1.35.19zm0 0"/></symbol><symbol overflow="visible" id="e35a5f1ez"><path d="M18.28.95c.53 0 7.88-1.1 13.45-4.84a41 41 0 01-.34-6.33c0-2.8.1-5.62.23-6.92a153.54 153.54 0 01-12.56-.1l-.25 4.7c1.3-.09 4.13-.18 7.3-.23.05.77.05 1.58.05 2.46 0 1.72-.05 3.45-.2 4.89-2.15.95-4.6 1.53-7 1.53-6.82 0-10.9-4.94-10.9-13.25C8.06-25.3 12-30.1 18.14-30.1c.53 0 1.11.04 1.64.09l7.14 3.36c.2.05 1.3.05 1.5 0l1.92-5.19a27.67 27.67 0 00-11.86-2.97c-.53 0-5.86 1.49-9.17 3.7-4.51 3.02-7.2 8.68-7.2 15.26C2.1-5.77 8.4.96 18.28.96zm0 0"/></symbol><symbol overflow="visible" id="e35a5f1eA"><path d="M6.28-28.22c.3 0 1.6-.3 2.5-1.01a2.92 2.92 0 001.06-2.4c0-1.87-1.39-3.17-3.45-3.17-.3 0-1.6.28-2.5 1a2.93 2.93 0 00-1.06 2.4c0 1.88 1.39 3.18 3.45 3.18zM3.5 0h6.05c-.2-2.69-.33-7.06-.33-11.19 0-4.98.14-10.17.37-13.15l-6.56.68a14.1 14.1 0 000 2.3c.52.9.81 4.42.81 9.6C3.84-8.12 3.7-2.79 3.5 0zm0 0"/></symbol><symbol overflow="visible" id="e35a5f1eB"><path d="M11.23.67c2.2 0 4.32-.62 6.72-1.92l-1.1-3.5c-1.3.53-2.65.86-3.79.86-2.01 0-2.75-.86-2.84-3.55-.05-1.25-.05-3.17-.05-5.58v-7l7.25.4.77-4.52-8.02.14c.05-2.2.14-4.7.25-6.48l-4.37.34c-.2 1.39-.63 3.73-1.16 6.14l-3.73.53v3.4h3.68v8.16c0 1.6-.04 4.04-.09 6.2-.1 4.6 2.64 6.38 6.48 6.38zm0 0"/></symbol><symbol overflow="visible" id="e35a5f1eC"><path d="M8.16.67c.96 0 2.01-.14 2.64-.33 1.6-.82 3.5-2.03 5-3.07.23 1.15.62 2.34 1.04 3.21l4.24-.71c.1-.2.47-.93.51-1.11-.8-1.88-1.18-5-1.18-8.88 0-3.51.28-6.1.28-8.17 0-4.22-3.4-6.47-8.55-6.47-2.97 0-6.58.77-9.69 2.11l1.72 4.52c3.13-1.79 5.05-2.41 6.77-2.41 2.8 0 4.33 1.62 4.33 4.47v2.15l-8.6 1.25c-3.36 1.16-5.14 3.6-5.14 6.91C1.53-1.87 4.17.67 8.16.67zM6.72-6.9c0-1.73.97-2.89 2.69-3.26l5.8-1.3v5.86c-1.63 1.3-3.5 2.06-5.13 2.06-2.11 0-3.36-1.3-3.36-3.36zm0 0"/></symbol><symbol overflow="visible" id="e35a5f1eD"><path d="M3.45 0H9.5c-.19-2.69-.33-7.06-.33-11.19 0-2.83.05-5.33.1-7.34a8.73 8.73 0 015.32-1.92c3.6 0 4.22 2.54 4.22 8.36v.67c0 3.01-.14 8.73-.33 11.42h6.05a193.3 193.3 0 01-.34-10.38c0-2.57.2-5.51.2-8.01 0-4.08-2.98-6.47-7.92-6.47-1.06 0-2.11.14-2.9.33-1.57.81-3.59 2.06-5.12 3.12-.34-1.92-.87-3.12-.87-3.12l-4.7 1.2c-.05.14-.05 2.16 0 2.3.53.97.92 3.66.92 9.26C3.8-8.1 3.64-2.78 3.45 0zm0 0"/></symbol><symbol overflow="visible" id="e35a5f1eH"><path d="M14.73.9c.49 0 6.97-1.04 12.72-4.8.1-1.24.49-3.68.97-6.32a70.01 70.01 0 011.53-6.92 85.2 85.2 0 01-11.42-.05 13.25 13.25 0 00-1.16 4.66c1.74-.14 4.27-.24 6.68-.28a105.92 105.92 0 01-1.48 7.4c-2.16.99-4.52 1.57-6.63 1.57-4.8 0-7.74-3.36-7.74-9.07 0-6.87 3.57-17.23 11.86-17.23h.58l6.67 3.4h1.35a15.09 15.09 0 002.78-5.04c-2.69-1.81-6.9-2.97-10.47-2.97-.42 0-5.66 1.4-9.11 3.64-5.52 3.61-9.22 11.19-9.22 18.83C2.64-3.98 7.11.9 14.74.9zm0 0"/></symbol><symbol overflow="visible" id="e35a5f1eI"><path d="M9.75-28.27c.28 0 1.4-.2 2.4-.96a3.38 3.38 0 001.43-2.88c0-1.64-1.05-2.6-2.92-2.6-.29 0-1.4.2-2.41.91a3.57 3.57 0 00-1.44 2.9c0 1.67 1.07 2.63 2.94 2.63zM2.35.28C4.18.28 6.29.1 7.79-.23L8.5-2.5c-1.2-.95-1.3-3.36-.1-8.78a251.1 251.1 0 013.26-13c-2.11 0-4.6.28-6.43.67l-.53 2.2c.67 1.2.35 3.07-1.06 9.41C1.78-3.64 1.54-1.62 2.36.28zm0 0"/></symbol><symbol overflow="visible" id="e35a5f1eJ"><path d="M8.02.63c2.2 0 4.37-.63 7.01-2.11a12.9 12.9 0 00-1.01-3.32c-1.3.63-2.64.96-3.75.96-1.35 0-1.97-.54-1.97-2.02 0-1.3.43-3.36.87-5.42l1.77-8.78 6.53.37a13.5 13.5 0 001.69-4.4l-7.4.14a175.1 175.1 0 011.49-6.33c-1.25-.11-2.88.05-4.08.33a75.33 75.33 0 01-2.31 6l-3.36.57-.67 3.27H6L4.37-12C3.8-9.22 2.79-5.6 2.79-3.7 2.78-.95 4.7.63 8.02.63zm0 0"/></symbol><symbol overflow="visible" id="e35a5f1eK"><path d="M7.69.86a5.9 5.9 0 002.3-.42 86.47 86.47 0 006.09-5c-.19 2.06-.1 3.75.48 4.84 1.35 0 3.22-.19 4.61-.51l.72-2.27c-1.2-.95-1.3-3.36-.1-8.78 1.3-5.61 2.21-9.27 3.02-11.77l-1.53-1.34c-.72.34-1.64.92-2.4 1.45-1.82-1.2-3.74-1.92-5.29-1.92-.42 0-4.89 1.3-7.62 3.22-3.84 2.62-6.53 8.39-6.53 13.86C1.44-2.36 3.8.86 7.69.86zM6.8-8.5c0-4.36 2.36-12.05 7.83-12.05 1.11 0 2.55.4 3.98 1.11L16.98-12l-.8 3.84c-2.74 2.7-5.29 4.57-6.77 4.57-1.79 0-2.6-1.93-2.6-4.91zm0 0"/></symbol><symbol overflow="visible" id="e35a5f1eL"><path d="M1.1.19c1.98 0 4.18-.14 5.71-.33.35-2.94 1.11-7.4 1.92-11.14l.91-4.42c2.84-2.83 5.44-4.7 7.02-4.7 1.1 0 1.78.92 1.78 2.45 0 1.1-.35 2.98-.88 5.28l-.14.72C15.9-5.28 15.17-1.83 16.12.28 18 .28 20.12.1 21.6-.23l.72-2.27c-1.18-.95-1.28-3.78-.14-8.78.58-2.45 1.83-6.33 1.83-8.55 0-3.01-2.2-4.98-5.56-4.98-.88 0-1.83.14-2.4.37a65.38 65.38 0 00-6.29 5.14c.14-2.2 0-3.98-.34-5.14-1.58.2-3.36.67-4.61 1.16l-.42 2.2c.67 1.2.51 4.03-.49 9.08C2.73-6.4 1.83-2.55 1.11.19zm0 0"/></symbol><symbol overflow="visible" id="e35a5f1eM"><path d="M18.44.95c.58 0 8.06-1.1 13.81-4.54-.19-1.2-.33-3.57-.33-6.72 0-2.85.1-5.96.24-7.35a141.84 141.84 0 01-13.14-.1l-.25 5.32c1.3-.1 3.8-.19 6.96-.23v2.25c0 1.64-.04 3.22-.15 4.6a17.6 17.6 0 01-6.24 1.21c-6.32 0-10.12-4.7-10.12-12.62 0-7.68 3.55-12.14 9.17-12.14.42 0 .86 0 1.34.04l7.1 3.45c.2.05 1.78.05 1.97 0l2.1-5.9a27.95 27.95 0 00-12.27-3.02c-.58 0-5.96 1.49-9.36 3.7-4.61 3.02-7.35 8.73-7.35 15.35C1.92-5.65 8.45.95 18.44.95zm0 0"/></symbol><symbol overflow="visible" id="e35a5f1eN"><path d="M6.53-28.13c.33 0 1.92-.34 2.88-1.1a3.45 3.45 0 001.25-2.74c0-2.06-1.58-3.5-3.99-3.5a6.4 6.4 0 00-2.87 1.1 3.38 3.38 0 00-1.2 2.74c0 2.07 1.57 3.5 3.93 3.5zM3.22 0h7.25c-.2-2.69-.35-7.06-.35-11.19 0-5.37.1-10.45.4-13.44l-7.88.77c-.05.14-.05 2.9 0 3.03.58.81.9 4.08.9 9.06 0 3.66-.13 8.99-.32 11.77zm0 0"/></symbol><symbol overflow="visible" id="e35a5f1eO"><path d="M11.47.67c2.4 0 4.65-.62 7.2-2.01l-1.2-4.13c-1.2.53-2.5.81-3.6.81-1.82 0-2.54-.8-2.64-3.3-.04-1.26-.04-3.23-.04-5.29v-6.38l6.9.38.82-5.14-7.72.1c.04-2.21.14-4.7.23-6.52l-5.37.42a71.2 71.2 0 01-1.25 6.1l-3.7.52v4.14h3.5v7.54c0 1.48-.04 3.89-.08 5.95C4.42-1.2 7.3.67 11.47.67zm0 0"/></symbol><symbol overflow="visible" id="e35a5f1eP"><path d="M8.06.67c.9 0 2.06-.14 2.69-.33a57.38 57.38 0 004.95-3.17c.28 1.2.77 2.44 1.24 3.36l4.95-.87c.14-.2.58-1.1.63-1.28-.82-1.83-1.2-4.86-1.2-8.6 0-3.51.27-6.2.27-8.26 0-4.32-3.54-6.68-9.1-6.68-3.22 0-7.02.82-10.24 2.22l1.92 5.08c3.08-1.67 5.05-2.34 6.77-2.34 2.6 0 4.03 1.48 4.03 4.12v1.92l-8.49 1.2C3.18-11.8 1.34-9.35 1.34-6 1.34-1.92 3.98.67 8.06.67zM7.48-7.3c0-1.67.88-2.68 2.46-3.08l4.94-1.14v5.61a7.51 7.51 0 01-4.36 1.7c-1.88 0-3.04-1.21-3.04-3.09zm0 0"/></symbol><symbol overflow="visible" id="e35a5f1eQ"><path d="M3.13 0h7.3c-.21-2.69-.35-7.06-.35-11.19 0-2.87.04-5.28.14-7.34a8 8 0 014.51-1.49c3.08 0 3.75 2.11 3.75 7.25v1.35c0 3.01-.14 8.73-.34 11.42h7.3a193.2 193.2 0 01-.33-10.38c0-2.48.14-5.65.14-8.1 0-4.18-2.98-6.68-8.02-6.68-1.1 0-2.15.14-2.93.35a46.6 46.6 0 00-5.08 3.26c-.49-2.01-1.06-3.26-1.06-3.26L2.5-23.47c-.05.14-.05 2.88 0 3.02.58.82.95 3.51.95 8.68 0 3.66-.14 8.99-.33 11.77zm0 0"/></symbol><symbol overflow="visible" id="e35a5f1eU"><path d="M14.88.9c.48 0 7.06-1.04 13.1-4.5.1-1.34.49-3.84 1-6.71.54-2.99 1.2-5.9 1.6-7.3-1.4.05-3.45.1-5.42.1-2.36 0-5.1-.05-6.54-.2-.71 1.4-1.2 3.5-1.25 5.27a89.3 89.3 0 016.24-.28l-.38 2.3c-.34 1.64-.67 3.22-1.01 4.6a15.18 15.18 0 01-5.75 1.26C12-4.56 9.3-7.83 9.3-13.25c0-6.48 3.36-16.17 10.85-16.17l.25.05 6.56 3.5h1.83c1.3-1.54 2.64-3.9 3.22-5.86a22.35 22.35 0 00-10.94-3.02c-.44 0-5.81 1.4-9.31 3.64-5.63 3.66-9.41 11.19-9.41 18.77C2.36-3.98 7.02.9 14.88.9zm0 0"/></symbol><symbol overflow="visible" id="e35a5f1eV"><path d="M9.9-28.17c.32 0 1.7-.3 2.87-1.06a3.87 3.87 0 001.59-3.27c0-1.88-1.2-2.92-3.31-2.92-.35 0-1.74.23-2.9 1.05a3.83 3.83 0 00-1.57 3.21c0 1.93 1.15 2.99 3.31 2.99zM1.96.34c2.16 0 4.8-.25 6.58-.62l.95-2.94c-1.2-.95-1.3-3.31-.23-8.06 1.3-5.66 2.5-10.52 3.3-13.3-2.45 0-5.5.35-7.73.77l-.71 2.93c.76 1.3.48 2.93-.86 8.88C1.39-3.64 1.16-1.62 1.97.34zm0 0"/></symbol><symbol overflow="visible" id="e35a5f1eW"><path d="M8.2.67c2.4 0 4.75-.67 7.64-2.25-.2-1.39-.62-2.89-1.15-3.98a8.03 8.03 0 01-3.46.95c-1.3 0-1.82-.58-1.82-1.97 0-1.15.34-2.97.71-4.7l1.7-8.35 6.27.33c.82-1.39 1.6-3.36 1.88-5.04l-7.2.1c.48-2.21 1.06-4.7 1.53-6.43-1.63-.1-3.7.05-5.13.39-.48 1.34-1.39 3.64-2.45 6.05l-3.27.51-.86 4.03h3.02L4.08-12C3.5-9.22 2.55-5.95 2.55-3.98 2.55-1.02 4.56.67 8.2.67zm0 0"/></symbol><symbol overflow="visible" id="e35a5f1eX"><path d="M7.53.86c.88 0 1.78-.14 2.4-.42a77.91 77.91 0 006-5c-.09 2.1.1 3.8.73 4.9 1.39 0 3.59-.25 5.37-.62l.95-2.94c-1.18-.95-1.34-3.31-.28-8.06 1.3-5.66 2.32-9.6 3.03-11.9l-1.68-1.5c-.9.34-1.93.96-2.83 1.54-1.78-1.25-3.8-2.02-5.28-2.02-.44 0-4.96 1.2-7.97 3.18C3.94-19.34 1.2-13.62 1.2-8.02 1.2-2.5 3.6.86 7.53.86zm.4-9.6c0-4.03 2.1-11.42 7.1-11.42.86 0 2.02.29 3.25.86L16.66-12l-.77 3.6c-2.36 2.3-4.6 3.88-5.86 3.88-1.48 0-2.1-1.62-2.1-4.21zm0 0"/></symbol><symbol overflow="visible" id="e35a5f1eY"><path d="M.77.23c2.4 0 5.09-.18 6.96-.42.33-2.89 1.14-7.34 1.91-11.1l.97-4.5c2.45-2.4 4.7-4 6.05-4 .9 0 1.48.77 1.48 2.07 0 .97-.28 2.6-.77 4.56l-.23 1.11C15.6-5.28 14.87-1.87 15.84.35c2.25 0 4.8-.26 6.63-.63l.95-2.94c-1.2-.95-1.3-3.69-.28-8.06.58-2.6 1.81-6.49 1.81-8.69 0-3.17-2.25-5.14-5.7-5.14-.97 0-1.97.16-2.55.4a77.53 77.53 0 00-6.18 5.13c.04-2.26-.14-4.08-.54-5.19-1.92.24-3.98.82-5.51 1.35l-.63 2.97c.72 1.2.68 3.84-.3 8.45A236.4 236.4 0 01.78.23zm0 0"/></symbol><symbol overflow="visible" id="e35a5f1eZ"><path d="M18.63.95c.57 0 8.3-1.04 14.25-4.26a58.77 58.77 0 01-.33-7.11c0-2.92.1-6.28.23-7.81-1.72.04-4.22.09-5.86.09-2.87 0-6.23-.1-7.97-.2l-.23 6c1.3-.1 3.5-.2 6.48-.24a61.8 61.8 0 01-.1 6.3c-1.73.56-3.55.86-5.32.86-5.76 0-9.22-4.42-9.22-11.9 0-7.07 3.06-11.24 8.11-11.24.35 0 .67 0 .95.04l7.07 3.57c.18.04 2.3.04 2.5 0l2.39-6.74c-3.55-1.9-8.4-3.1-12.81-3.1-.58 0-6.1 1.43-9.55 3.68-4.7 3.08-7.53 8.84-7.53 15.47C1.69-5.56 8.45.96 18.62.96zm0 0"/></symbol><symbol overflow="visible" id="e35a5f1eaa"><path d="M6.86-28.03c.39 0 2.26-.44 3.31-1.25a3.8 3.8 0 001.4-3.08c0-2.3-1.82-3.87-4.55-3.87a6.8 6.8 0 00-3.32 1.25 3.6 3.6 0 00-1.45 3.01c0 2.36 1.83 3.94 4.6 3.94zM2.83 0h8.64c-.19-2.69-.33-7.06-.33-11.19 0-5.8.14-10.75.38-13.72l-9.32.86c-.04.14-.04 3.64 0 3.8.58.67.97 3.73.97 8.48 0 3.66-.14 8.99-.34 11.77zm0 0"/></symbol><symbol overflow="visible" id="e35a5f1eab"><path d="M11.77.72c2.59 0 5.03-.67 7.76-2.16l-1.39-4.84c-1.05.47-2.3.72-3.27.72-1.62 0-2.39-.72-2.48-2.99-.05-1.25-.05-3.3-.05-4.98v-5.63l6.52.35.92-5.9-7.44.09c.05-2.2.14-4.75.24-6.58l-6.49.48c-.28 1.4-.8 3.75-1.43 6.1l-3.64.53v4.89h3.35v6.92c0 1.39-.06 3.64-.1 5.7-.14 5.19 2.84 7.3 7.5 7.3zm0 0"/></symbol><symbol overflow="visible" id="e35a5f1eac"><path d="M7.88.67c.95 0 2.15-.14 2.78-.33a42.28 42.28 0 004.89-3.26c.39 1.23.92 2.53 1.43 3.45l5.86-.97c.1-.18.63-1.3.68-1.48-.77-1.88-1.2-4.75-1.2-8.3 0-3.47.34-6.34.34-8.4 0-4.36-3.7-6.86-9.8-6.86-3.4 0-7.44.86-10.9 2.3l2.21 5.85c3.08-1.69 5.1-2.36 6.77-2.36 2.4 0 3.7 1.35 3.7 3.8v1.53l-8.36 1.2C3.03-12 1.16-9.55 1.16-6.14 1.16-2.02 3.8.67 7.87.67zm.53-8.5c0-1.48.76-2.44 2.15-2.73l3.99-.96v5.33a6.74 6.74 0 01-3.5 1.2c-1.64 0-2.64-1.1-2.64-2.84zm0 0"/></symbol><symbol overflow="visible" id="e35a5f1ead"><path d="M2.78 0h8.74c-.2-2.69-.33-7.06-.33-11.19 0-2.87.04-5.23.1-7.3a6.9 6.9 0 013.59-1c2.54 0 3.17 1.58 3.17 5.96v2.1c0 3.02-.14 8.74-.33 11.43h8.73c-.2-2.73-.34-7.69-.34-10.38 0-2.39.19-5.84.19-8.24 0-4.32-3.07-6.86-8.25-6.86-1.11 0-2.16.14-2.93.32-1.59.93-3.6 2.27-5.09 3.41-.62-2.1-1.25-3.4-1.25-3.4l-6.67 1.54c-.05.14-.05 3.69 0 3.83.62.67 1.02 3.36 1.02 8.01 0 3.66-.16 8.99-.35 11.77zm0 0"/></symbol><symbol overflow="visible" id="e35a5f1eaf"><path d="M15.03.9c.47 0 7.1-1 13.49-4.21.09-1.4.46-3.99 1.04-7.11.58-2.97 1.3-6.28 1.69-7.77-1.3.05-3.75.1-5.95.1-2.4 0-5.24-.05-6.63-.2a17.95 17.95 0 00-1.34 5.9c1.1-.1 3.31-.19 5.81-.23-.16.8-.25 1.57-.39 2.1a344.4 344.4 0 01-.86 4.29c-1.73.51-3.4.86-4.9.86-4.08 0-6.47-3.08-6.47-8.2 0-6.12 3.1-15 9.68-15.04l6.44 3.6h2.3a21.12 21.12 0 003.7-6.61 23.62 23.62 0 00-11.47-3.13c-.44 0-5.9 1.4-9.45 3.64-5.81 3.66-9.66 11.23-9.66 18.77C2.06-4.04 6.91.9 15.03.9zm0 0"/></symbol><symbol overflow="visible" id="e35a5f1eag"><path d="M10.08-28.08c.39 0 2.01-.34 3.31-1.2a4.33 4.33 0 001.83-3.64c0-2.13-1.35-3.27-3.8-3.27-.37 0-2.01.28-3.31 1.2a4.3 4.3 0 00-1.88 3.6c0 2.1 1.4 3.31 3.85 3.31zM1.58.34C4.12.34 7.25.1 9.4-.28l1.2-3.75c-1.2-.95-1.3-3.27-.44-7.25 1.3-5.77 2.5-10.52 3.4-13.58-2.87 0-6.5.33-9.15.81l-.87 3.75c.83 1.4.58 2.74-.67 8.3C1.01-3.64.77-1.62 1.57.34zm0 0"/></symbol><symbol overflow="visible" id="e35a5f1eah"><path d="M8.4.72c2.65 0 5.13-.67 8.35-2.4a18.64 18.64 0 00-1.34-4.66 7.5 7.5 0 01-3.18.87c-1.14 0-1.67-.58-1.67-1.87 0-.96.28-2.6.58-3.94l1.63-7.88 6 .3a20.47 20.47 0 002.1-5.81l-7 .1c.49-2.21 1.1-4.8 1.54-6.54-2.02-.1-4.47.1-6.2.48-.52 1.35-1.48 3.66-2.59 6.05l-3.26.53-.95 4.8h2.82L3.75-12C3.17-9.22 2.3-6.28 2.3-4.27 2.3-1.02 4.47.72 8.4.72zm0 0"/></symbol><symbol overflow="visible" id="e35a5f1eai"><path d="M7.4.86C8.24.86 9.3.67 9.93.44a84.3 84.3 0 005.9-5.05c-.04 2.2.24 3.94.91 4.95 1.48 0 4.03-.25 6.14-.62l1.25-3.75c-1.2-.95-1.34-3.27-.42-7.25 1.3-5.77 2.3-9.94 3.01-12.1l-1.92-1.64c-1 .4-2.2 1.02-3.22 1.7-1.8-1.35-3.78-2.16-5.32-2.16-.43 0-4.99 1.09-8.25 3.17-4.27 2.62-7 8.25-7 14.1C1.02-2.68 3.36.87 7.39.87zm1.68-9.83c0-3.7 1.9-10.76 6.33-10.76.67 0 1.53.2 2.5.57L16.3-12l-.72 3.31c-2.01 1.92-3.87 3.17-4.89 3.17-1.15 0-1.62-1.3-1.62-3.45zm0 0"/></symbol><symbol overflow="visible" id="e35a5f1eaj"><path d="M.44.23c2.83 0 6.04-.14 8.3-.42.34-2.89 1.15-7.34 1.92-11.1l.95-4.55c2.08-1.97 3.98-3.27 5.05-3.27.71 0 1.15.58 1.15 1.64 0 .81-.25 2.2-.62 3.78l-.35 1.55c-1.53 6.86-2.3 10.17-1.3 12.48 2.65 0 5.68-.25 7.88-.62l1.2-3.75c-1.2-.95-1.3-3.6-.48-7.25.63-2.78 1.88-6.58 1.88-8.78 0-3.36-2.3-5.38-5.91-5.38-1 0-2.11.14-2.69.38a69.78 69.78 0 00-6.05 5.18c-.09-2.34-.32-4.21-.76-5.23-2.31.3-4.7.92-6.53 1.55l-.77 3.73c.77 1.25.77 3.66-.1 7.83C2.07-6.4 1.17-2.55.45.23zm0 0"/></symbol><symbol overflow="visible" id="e35a5f1eak"><path d="M18.81.95c.58 0 8.55-1.04 14.74-3.92a58.43 58.43 0 01-.33-7.55c0-3.01.1-6.67.23-8.3a184.28 184.28 0 01-14.55-.1l-.23 6.69c1.25-.11 3.27-.2 6.05-.25v1.87c0 1.3 0 2.55-.05 3.75-1.53.38-2.97.58-4.42.58-5.22 0-8.34-4.14-8.34-11.14 0-6.49 2.64-10.28 7.04-10.28h.68l6.92 3.7c.18.05 2.87.05 3.06 0l2.69-7.63c-3.6-1.96-8.53-3.17-13.4-3.17-.56 0-6.18 1.44-9.73 3.7-4.86 3.07-7.73 8.88-7.73 15.55C1.44-5.47 8.5.95 18.8.95zm0 0"/></symbol><symbol overflow="visible" id="e35a5f1eal"><path d="M7.16-27.94a8.6 8.6 0 003.78-1.39 4.2 4.2 0 001.6-3.4c0-2.6-2.07-4.33-5.2-4.33-.48 0-2.64.48-3.8 1.39a4.2 4.2 0 00-1.57 3.42c0 2.6 2.06 4.31 5.19 4.31zM2.46 0h10.12c-.19-2.69-.35-7.06-.35-11.19 0-6.23.11-11.08.4-14.06l-10.85.97c-.05.14-.05 4.5 0 4.66.63.51 1 3.35 1 7.85 0 3.66-.14 8.99-.33 11.77zm0 0"/></symbol><symbol overflow="visible" id="e35a5f1eam"><path d="M12.05.77c2.82 0 5.42-.72 8.4-2.3l-1.6-5.58c-.9.4-2.1.63-2.96.63-1.44 0-2.2-.68-2.31-2.7-.05-1.24-.05-3.35-.05-4.65v-4.84l6.16.28 1-6.63-7.16.07c.05-2.22.16-4.77.25-6.63l-7.69.56a86.2 86.2 0 01-1.57 6.07l-3.57.47v5.76h3.13v6.24c0 1.25-.05 3.45-.1 5.42C3.84-1.53 6.95.77 12.05.77zm0 0"/></symbol><symbol overflow="visible" id="e35a5f1ean"><path d="M7.73.67c.96 0 2.25-.14 2.88-.33a67.43 67.43 0 004.8-3.3c.43 1.23 1.1 2.57 1.68 3.54l6.72-1.11c.14-.19.77-1.53.82-1.72-.77-1.83-1.2-4.6-1.2-7.97 0-3.47.34-6.48.34-8.55 0-4.42-3.9-7.06-10.52-7.06-3.66 0-7.92.92-11.52 2.4l2.44 6.59c3.03-1.64 5.14-2.27 6.77-2.27 2.22 0 3.36 1.16 3.36 3.36v1.16l-8.2 1.2C2.82-12.23.94-9.8.94-6.3.95-2.05 3.6.68 7.73.68zM9.31-8.3c0-1.34.67-2.22 1.88-2.5l3.01-.72v4.94c-.8.49-1.76.77-2.6.77-1.43 0-2.29-.96-2.29-2.49zm0 0"/></symbol><symbol overflow="visible" id="e35a5f1eao"><path d="M2.45 0h10.22c-.19-2.69-.33-7.06-.33-11.19 0-2.87 0-5.12.1-7.2a5.8 5.8 0 012.6-.56c1.94 0 2.57 1.04 2.57 4.6v2.93c0 3.01-.14 8.73-.33 11.42H27.5a193.2 193.2 0 01-.33-10.38c0-2.24.19-6.04.19-8.39 0-4.42-3.13-7.06-8.45-7.06a12 12 0 00-2.93.35c-1.57.95-3.59 2.34-5.04 3.5-.77-2.11-1.49-3.55-1.49-3.55L1.7-23.77c-.06.16-.06 4.52 0 4.66.72.58 1.1 3.22 1.1 7.34 0 3.66-.15 8.99-.34 11.77zm0 0"/></symbol><symbol overflow="visible" id="e35a5f1ear"><path d="M15.17.9c.47 0 7.2-1 13.92-3.87.1-1.55.47-4.14 1.1-7.55a149.9 149.9 0 011.78-8.25c-1.2.05-4.08.1-6.49.1-2.43 0-5.46-.1-6.71-.19-.82 1.77-1.4 4.4-1.49 6.58.81-.11 2.88-.2 5.38-.25-.14.76-.24 1.44-.35 1.92-.23 1.3-.51 2.55-.76 3.8-1.44.37-2.83.58-4.03.58-3.64 0-5.8-2.9-5.8-7.74 0-5.6 2.83-13.48 8.3-13.78l6.23 3.7h2.9a26.6 26.6 0 004.12-7.53 26.1 26.1 0 00-11.96-3.17c-.48 0-6.1 1.4-9.7 3.64-5.9 3.7-9.83 11.23-9.83 18.72C1.78-4.03 6.77.9 15.18.9zm0 0"/></symbol><symbol overflow="visible" id="e35a5f1eas"><path d="M10.27-27.98c.43 0 2.36-.4 3.8-1.35a4.83 4.83 0 002.05-4.03c0-2.36-1.53-3.66-4.3-3.66-.4 0-2.37.4-3.8 1.35a4.86 4.86 0 00-2.07 4.05c0 2.34 1.53 3.64 4.32 3.64zM1.2.39c2.88 0 6.53-.3 9.07-.73l1.5-4.55c-1.2-.97-1.35-3.17-.63-6.4 1.3-5.8 2.48-10.55 3.5-13.91-3.31 0-7.58.39-10.66.97L2.92-19.7c.92 1.46.67 2.55-.47 7.69C.58-3.64.4-1.62 1.2.4zm0 0"/></symbol><symbol overflow="visible" id="e35a5f1eat"><path d="M8.6.77c2.87 0 5.56-.68 9.06-2.55a22.03 22.03 0 00-1.54-5.38c-1 .54-2.06.77-2.82.77-1.07 0-1.53-.52-1.53-1.72 0-.81.23-2.2.42-3.17l1.54-7.4 5.7.24a23.78 23.78 0 002.37-6.51l-6.83.04c.53-2.26 1.1-4.86 1.6-6.62-2.41-.1-5.34.14-7.35.58-.58 1.34-1.6 3.64-2.69 6.04l-3.22.47-1.15 5.67H4.8L3.4-12c-.57 2.78-1.38 5.38-1.38 7.44 0 3.5 2.3 5.33 6.57 5.33zm0 0"/></symbol><symbol overflow="visible" id="e35a5f1eau"><path d="M7.2.86c.9 0 2.11-.19 2.7-.42a87.33 87.33 0 005.8-5.05c.05 2.31.43 4.03 1.14 5 1.55 0 4.47-.3 7.02-.73l1.48-4.55c-1.2-.97-1.34-3.17-.62-6.4 1.3-5.8 2.4-10.26 3.08-12.23l-2.18-1.82c-1.14.43-2.43 1.1-3.59 1.82-1.87-1.43-3.89-2.3-5.37-2.3-.44 0-5.1 1-8.64 3.12C3.55-20.06.77-14.5.77-8.45c0 5.57 2.4 9.3 6.43 9.3zm3.11-10.13c0-3.3 1.64-10.03 5.49-10.03.47 0 1.04.1 1.67.35L15.94-12l-.67 3.08c-1.64 1.48-3.08 2.39-3.85 2.39-.81 0-1.1-1-1.1-2.74zm0 0"/></symbol><symbol overflow="visible" id="e35a5f1eav"><path d="M.1.28C3.35.28 7.15.1 9.8-.23c.32-2.85 1.14-7.3 1.92-11.05l.95-4.66c1.69-1.53 3.22-2.5 3.99-2.5.53 0 .8.44.8 1.2 0 .68-.18 1.79-.48 3.04l-.42 1.92c-1.6 7-2.36 10.26-1.34 12.67 3.06 0 6.62-.3 9.17-.73l1.48-4.55c-1.2-.97-1.34-3.47-.67-6.4.68-2.96 1.93-6.71 1.93-8.91 0-3.52-2.36-5.58-6.16-5.58a9 9 0 00-2.78.39 81.44 81.44 0 00-5.96 5.19c-.18-2.4-.51-4.33-1-5.28a40.67 40.67 0 00-7.53 1.76l-.97 4.56c.82 1.3.91 3.46.15 7.16C1.73-6.4.8-2.55.08.28zm0 0"/></symbol></defs><use xlink:href="#e35a5f1ea" x="56.31075" y="78.4672"/><use xlink:href="#e35a5f1eb" x="89.95875" y="78.4672"/><use xlink:href="#e35a5f1ec" x="102.43875" y="78.4672"/><use xlink:href="#e35a5f1ed" x="121.06275" y="78.4672"/><use xlink:href="#e35a5f1ee" x="144.48675" y="78.4672"/><g fill-opacity=".33"><use xlink:href="#e35a5f1ef" x="50.62542" y="113.9344"/><use xlink:href="#e35a5f1eg" x="57.29242" y="113.9344"/><use xlink:href="#e35a5f1eh" x="63.95942" y="113.9344"/><use xlink:href="#e35a5f1ei" x="70.62642" y="113.9344"/><use xlink:href="#e35a5f1ej" x="77.29342" y="113.9344"/><use xlink:href="#e35a5f1ek" x="83.96042" y="113.9344"/><use xlink:href="#e35a5f1el" x="90.62742" y="113.9344"/><use xlink:href="#e35a5f1ei" x="97.29442" y="113.9344"/><use xlink:href="#e35a5f1eh" x="103.96142" y="113.9344"/><use xlink:href="#e35a5f1eg" x="110.62842" y="113.9344"/><use xlink:href="#e35a5f1ej" x="117.29542" y="113.9344"/><use xlink:href="#e35a5f1ek" x="123.96242" y="113.9344"/><use xlink:href="#e35a5f1em" x="130.62942" y="113.9344"/><use xlink:href="#e35a5f1en" x="137.29642" y="113.9344"/><use xlink:href="#e35a5f1eo" x="143.96342" y="113.9344"/><use xlink:href="#e35a5f1ep" x="150.63042" y="113.9344"/><use xlink:href="#e35a5f1eq" x="157.29742" y="113.9344"/><use xlink:href="#e35a5f1ei" x="163.96442" y="113.9344"/><use xlink:href="#e35a5f1er" x="170.63142" y="113.9344"/></g><use xlink:href="#e35a5f1es" x="280.64925" y="78.4672"/><use xlink:href="#e35a5f1et" x="311.56125" y="78.4672"/><use xlink:href="#e35a5f1eu" x="323.60925" y="78.4672"/><use xlink:href="#e35a5f1ev" x="340.64925" y="78.4672"/><use xlink:href="#e35a5f1ew" x="365.94525" y="78.4672"/><g fill-opacity=".33"><use xlink:href="#e35a5f1ef" x="276.04125" y="113.9344"/><use xlink:href="#e35a5f1eg" x="282.70825" y="113.9344"/><use xlink:href="#e35a5f1eh" x="289.37525" y="113.9344"/><use xlink:href="#e35a5f1ei" x="296.04225" y="113.9344"/><use xlink:href="#e35a5f1ej" x="302.70925" y="113.9344"/><use xlink:href="#e35a5f1ek" x="309.37625" y="113.9344"/><use xlink:href="#e35a5f1el" x="316.04325" y="113.9344"/><use xlink:href="#e35a5f1ei" x="322.71025" y="113.9344"/><use xlink:href="#e35a5f1eh" x="329.37725" y="113.9344"/><use xlink:href="#e35a5f1eg" x="336.04425" y="113.9344"/><use xlink:href="#e35a5f1ej" x="342.71125" y="113.9344"/><use xlink:href="#e35a5f1ek" x="349.37825" y="113.9344"/><use xlink:href="#e35a5f1ex" x="356.04525" y="113.9344"/><use xlink:href="#e35a5f1eh" x="362.71225" y="113.9344"/><use xlink:href="#e35a5f1ei" x="369.37925" y="113.9344"/><use xlink:href="#e35a5f1eq" x="376.04625" y="113.9344"/><use xlink:href="#e35a5f1eg" x="382.71325" y="113.9344"/><use xlink:href="#e35a5f1ey" x="389.38025" y="113.9344"/></g><use xlink:href="#e35a5f1ez" x="55.08675" y="196.7336"/><use xlink:href="#e35a5f1eA" x="89.07075" y="196.7336"/><use xlink:href="#e35a5f1eB" x="102.03075" y="196.7336"/><use xlink:href="#e35a5f1eC" x="121.23075" y="196.7336"/><use xlink:href="#e35a5f1eD" x="145.23075" y="196.7336"/><g fill-opacity=".33"><use xlink:href="#e35a5f1ef" x="53.95875" y="232.2008"/><use xlink:href="#e35a5f1eg" x="60.62575" y="232.2008"/><use xlink:href="#e35a5f1eh" x="67.29275" y="232.2008"/><use xlink:href="#e35a5f1ei" x="73.95975" y="232.2008"/><use xlink:href="#e35a5f1ej" x="80.62675" y="232.2008"/><use xlink:href="#e35a5f1ek" x="87.29375" y="232.2008"/><use xlink:href="#e35a5f1el" x="93.96075" y="232.2008"/><use xlink:href="#e35a5f1ei" x="100.62775" y="232.2008"/><use xlink:href="#e35a5f1eh" x="107.29475" y="232.2008"/><use xlink:href="#e35a5f1eg" x="113.96175" y="232.2008"/><use xlink:href="#e35a5f1ej" x="120.62875" y="232.2008"/><use xlink:href="#e35a5f1ek" x="127.29575" y="232.2008"/><use xlink:href="#e35a5f1eE" x="133.96275" y="232.2008"/><use xlink:href="#e35a5f1en" x="140.62975" y="232.2008"/><use xlink:href="#e35a5f1eF" x="147.29675" y="232.2008"/><use xlink:href="#e35a5f1eg" x="153.96375" y="232.2008"/><use xlink:href="#e35a5f1ep" x="160.63075" y="232.2008"/><use xlink:href="#e35a5f1eG" x="167.29775" y="232.2008"/></g><use xlink:href="#e35a5f1eH" x="279.44925" y="196.7336"/><use xlink:href="#e35a5f1eI" x="310.69725" y="196.7336"/><use xlink:href="#e35a5f1eJ" x="323.17725" y="196.7336"/><use xlink:href="#e35a5f1eK" x="340.74525" y="196.7336"/><use xlink:href="#e35a5f1eL" x="366.56925" y="196.7336"/><g fill-opacity=".33"><use xlink:href="#e35a5f1ef" x="252.70792" y="232.2008"/><use xlink:href="#e35a5f1eg" x="259.37492" y="232.2008"/><use xlink:href="#e35a5f1eh" x="266.04192" y="232.2008"/><use xlink:href="#e35a5f1ei" x="272.70892" y="232.2008"/><use xlink:href="#e35a5f1ej" x="279.37592" y="232.2008"/><use xlink:href="#e35a5f1ek" x="286.04292" y="232.2008"/><use xlink:href="#e35a5f1el" x="292.70992" y="232.2008"/><use xlink:href="#e35a5f1ei" x="299.37692" y="232.2008"/><use xlink:href="#e35a5f1eh" x="306.04392" y="232.2008"/><use xlink:href="#e35a5f1eg" x="312.71092" y="232.2008"/><use xlink:href="#e35a5f1ej" x="319.37792" y="232.2008"/><use xlink:href="#e35a5f1ek" x="326.04492" y="232.2008"/><use xlink:href="#e35a5f1eE" x="332.71192" y="232.2008"/><use xlink:href="#e35a5f1en" x="339.37892" y="232.2008"/><use xlink:href="#e35a5f1eF" x="346.04592" y="232.2008"/><use xlink:href="#e35a5f1eg" x="352.71292" y="232.2008"/><use xlink:href="#e35a5f1ep" x="359.37992" y="232.2008"/><use xlink:href="#e35a5f1eG" x="366.04692" y="232.2008"/><use xlink:href="#e35a5f1ek" x="372.71392" y="232.2008"/><use xlink:href="#e35a5f1ex" x="379.38092" y="232.2008"/><use xlink:href="#e35a5f1eh" x="386.04792" y="232.2008"/><use xlink:href="#e35a5f1ei" x="392.71492" y="232.2008"/><use xlink:href="#e35a5f1eq" x="399.38192" y="232.2008"/><use xlink:href="#e35a5f1eg" x="406.04892" y="232.2008"/><use xlink:href="#e35a5f1ey" x="412.71592" y="232.2008"/></g><use xlink:href="#e35a5f1eM" x="53.69475" y="315"/><use xlink:href="#e35a5f1eN" x="88.11075" y="315"/><use xlink:href="#e35a5f1eO" x="101.59875" y="315"/><use xlink:href="#e35a5f1eP" x="121.42275" y="315"/><use xlink:href="#e35a5f1eQ" x="146.04675" y="315"/><g fill-opacity=".33"><use xlink:href="#e35a5f1ef" x="47.29208" y="350.4672"/><use xlink:href="#e35a5f1eg" x="53.95908" y="350.4672"/><use xlink:href="#e35a5f1eh" x="60.62608" y="350.4672"/><use xlink:href="#e35a5f1ei" x="67.29308" y="350.4672"/><use xlink:href="#e35a5f1ej" x="73.96008" y="350.4672"/><use xlink:href="#e35a5f1ek" x="80.62708" y="350.4672"/><use xlink:href="#e35a5f1el" x="87.29408" y="350.4672"/><use xlink:href="#e35a5f1ei" x="93.96108" y="350.4672"/><use xlink:href="#e35a5f1eh" x="100.62808" y="350.4672"/><use xlink:href="#e35a5f1eg" x="107.29508" y="350.4672"/><use xlink:href="#e35a5f1ej" x="113.96208" y="350.4672"/><use xlink:href="#e35a5f1ek" x="120.62908" y="350.4672"/><use xlink:href="#e35a5f1eR" x="127.29608" y="350.4672"/><use xlink:href="#e35a5f1en" x="133.96308" y="350.4672"/><use xlink:href="#e35a5f1eG" x="140.63008" y="350.4672"/><use xlink:href="#e35a5f1eg" x="147.29708" y="350.4672"/><use xlink:href="#e35a5f1eS" x="153.96408" y="350.4672"/><use xlink:href="#e35a5f1eT" x="160.63108" y="350.4672"/><use xlink:href="#e35a5f1eq" x="167.29808" y="350.4672"/><use xlink:href="#e35a5f1eF" x="173.96508" y="350.4672"/></g><g><use xlink:href="#e35a5f1eU" x="277.96125" y="315"/><use xlink:href="#e35a5f1eV" x="309.59325" y="315"/></g><g><use xlink:href="#e35a5f1eW" x="322.60125" y="315"/></g><g><use xlink:href="#e35a5f1eX" x="340.79325" y="315"/><use xlink:href="#e35a5f1eY" x="367.28925" y="315"/></g><g fill-opacity=".33"><use xlink:href="#e35a5f1ef" x="246.04125" y="350.4672"/><use xlink:href="#e35a5f1eg" x="252.70825" y="350.4672"/><use xlink:href="#e35a5f1eh" x="259.37525" y="350.4672"/><use xlink:href="#e35a5f1ei" x="266.04225" y="350.4672"/><use xlink:href="#e35a5f1ej" x="272.70925" y="350.4672"/><use xlink:href="#e35a5f1ek" x="279.37625" y="350.4672"/><use xlink:href="#e35a5f1el" x="286.04325" y="350.4672"/><use xlink:href="#e35a5f1ei" x="292.71025" y="350.4672"/><use xlink:href="#e35a5f1eh" x="299.37725" y="350.4672"/><use xlink:href="#e35a5f1eg" x="306.04425" y="350.4672"/><use xlink:href="#e35a5f1ej" x="312.71125" y="350.4672"/><use xlink:href="#e35a5f1ek" x="319.37825" y="350.4672"/><use xlink:href="#e35a5f1eR" x="326.04525" y="350.4672"/><use xlink:href="#e35a5f1en" x="332.71225" y="350.4672"/><use xlink:href="#e35a5f1eG" x="339.37925" y="350.4672"/><use xlink:href="#e35a5f1eg" x="346.04625" y="350.4672"/><use xlink:href="#e35a5f1eS" x="352.71325" y="350.4672"/><use xlink:href="#e35a5f1eT" x="359.38025" y="350.4672"/><use xlink:href="#e35a5f1eq" x="366.04725" y="350.4672"/><use xlink:href="#e35a5f1eF" x="372.71425" y="350.4672"/><use xlink:href="#e35a5f1ek" x="379.38125" y="350.4672"/><use xlink:href="#e35a5f1ex" x="386.04825" y="350.4672"/><use xlink:href="#e35a5f1eh" x="392.71525" y="350.4672"/><use xlink:href="#e35a5f1ei" x="399.38225" y="350.4672"/><use xlink:href="#e35a5f1eq" x="406.04925" y="350.4672"/><use xlink:href="#e35a5f1eg" x="412.71625" y="350.4672"/><use xlink:href="#e35a5f1ey" x="419.38325" y="350.4672"/></g><g><use xlink:href="#e35a5f1eZ" x="52.11075" y="433.2664"/><use xlink:href="#e35a5f1eaa" x="86.95875" y="433.2664"/><use xlink:href="#e35a5f1eab" x="101.07075" y="433.2664"/><use xlink:href="#e35a5f1eac" x="121.61475" y="433.2664"/><use xlink:href="#e35a5f1ead" x="146.95875" y="433.2664"/></g><g fill-opacity=".33"><use xlink:href="#e35a5f1ef" x="60.62542" y="468.7336"/><use xlink:href="#e35a5f1eg" x="67.29242" y="468.7336"/><use xlink:href="#e35a5f1eh" x="73.95942" y="468.7336"/><use xlink:href="#e35a5f1ei" x="80.62642" y="468.7336"/><use xlink:href="#e35a5f1ej" x="87.29342" y="468.7336"/><use xlink:href="#e35a5f1ek" x="93.96042" y="468.7336"/><use xlink:href="#e35a5f1el" x="100.62742" y="468.7336"/><use xlink:href="#e35a5f1ei" x="107.29442" y="468.7336"/><use xlink:href="#e35a5f1eh" x="113.96142" y="468.7336"/><use xlink:href="#e35a5f1eg" x="120.62842" y="468.7336"/><use xlink:href="#e35a5f1ej" x="127.29542" y="468.7336"/><use xlink:href="#e35a5f1ek" x="133.96242" y="468.7336"/><use xlink:href="#e35a5f1eae" x="140.62942" y="468.7336"/><use xlink:href="#e35a5f1eT" x="147.29642" y="468.7336"/><use xlink:href="#e35a5f1eq" x="153.96342" y="468.7336"/><use xlink:href="#e35a5f1eF" x="160.63042" y="468.7336"/></g><g><use xlink:href="#e35a5f1eaf" x="276.35325" y="433.2664"/><use xlink:href="#e35a5f1eag" x="308.41725" y="433.2664"/></g><g><use xlink:href="#e35a5f1eah" x="322.00125" y="433.2664"/></g><g><use xlink:href="#e35a5f1eai" x="340.91325" y="433.2664"/><use xlink:href="#e35a5f1eaj" x="368.12925" y="433.2664"/></g><g fill-opacity=".33"><use xlink:href="#e35a5f1ef" x="259.37458" y="468.7336"/><use xlink:href="#e35a5f1eg" x="266.04158" y="468.7336"/><use xlink:href="#e35a5f1eh" x="272.70858" y="468.7336"/><use xlink:href="#e35a5f1ei" x="279.37558" y="468.7336"/><use xlink:href="#e35a5f1ej" x="286.04258" y="468.7336"/><use xlink:href="#e35a5f1ek" x="292.70958" y="468.7336"/><use xlink:href="#e35a5f1el" x="299.37658" y="468.7336"/><use xlink:href="#e35a5f1ei" x="306.04358" y="468.7336"/><use xlink:href="#e35a5f1eh" x="312.71058" y="468.7336"/><use xlink:href="#e35a5f1eg" x="319.37758" y="468.7336"/><use xlink:href="#e35a5f1ej" x="326.04458" y="468.7336"/><use xlink:href="#e35a5f1ek" x="332.71158" y="468.7336"/><use xlink:href="#e35a5f1eae" x="339.37858" y="468.7336"/><use xlink:href="#e35a5f1eT" x="346.04558" y="468.7336"/><use xlink:href="#e35a5f1eq" x="352.71258" y="468.7336"/><use xlink:href="#e35a5f1eF" x="359.37958" y="468.7336"/><use xlink:href="#e35a5f1ek" x="366.04658" y="468.7336"/><use xlink:href="#e35a5f1ex" x="372.71358" y="468.7336"/><use xlink:href="#e35a5f1eh" x="379.38058" y="468.7336"/><use xlink:href="#e35a5f1ei" x="386.04758" y="468.7336"/><use xlink:href="#e35a5f1eq" x="392.71458" y="468.7336"/><use xlink:href="#e35a5f1eg" x="399.38158" y="468.7336"/><use xlink:href="#e35a5f1ey" x="406.04858" y="468.7336"/></g><g><use xlink:href="#e35a5f1eak" x="50.47875" y="551.5328"/><use xlink:href="#e35a5f1eal" x="85.80675" y="551.5328"/><use xlink:href="#e35a5f1eam" x="100.54275" y="551.5328"/><use xlink:href="#e35a5f1ean" x="121.85475" y="551.5328"/><use xlink:href="#e35a5f1eao" x="147.91875" y="551.5328"/></g><g fill-opacity=".33"><use xlink:href="#e35a5f1ef" x="43.95875" y="587"/><use xlink:href="#e35a5f1eg" x="50.62575" y="587"/><use xlink:href="#e35a5f1eh" x="57.29275" y="587"/><use xlink:href="#e35a5f1ei" x="63.95975" y="587"/><use xlink:href="#e35a5f1ej" x="70.62675" y="587"/><use xlink:href="#e35a5f1ek" x="77.29375" y="587"/><use xlink:href="#e35a5f1el" x="83.96075" y="587"/><use xlink:href="#e35a5f1ei" x="90.62775" y="587"/><use xlink:href="#e35a5f1eh" x="97.29475" y="587"/><use xlink:href="#e35a5f1eg" x="103.96175" y="587"/><use xlink:href="#e35a5f1ej" x="110.62875" y="587"/><use xlink:href="#e35a5f1ek" x="117.29575" y="587"/><use xlink:href="#e35a5f1eap" x="123.96275" y="587"/><use xlink:href="#e35a5f1eaq" x="130.62975" y="587"/><use xlink:href="#e35a5f1eh" x="137.29675" y="587"/><use xlink:href="#e35a5f1er" x="143.96375" y="587"/><use xlink:href="#e35a5f1ei" x="150.63075" y="587"/><use xlink:href="#e35a5f1eS" x="157.29775" y="587"/><use xlink:href="#e35a5f1eT" x="163.96475" y="587"/><use xlink:href="#e35a5f1eq" x="170.63175" y="587"/><use xlink:href="#e35a5f1eF" x="177.29875" y="587"/></g><g><use xlink:href="#e35a5f1ear" x="274.69725" y="551.5328"/><use xlink:href="#e35a5f1eas" x="307.19325" y="551.5328"/></g><g><use xlink:href="#e35a5f1eat" x="321.40125" y="551.5328"/></g><g><use xlink:href="#e35a5f1eau" x="340.98525" y="551.5328"/><use xlink:href="#e35a5f1eav" x="368.96925" y="551.5328"/></g><g fill-opacity=".33"><use xlink:href="#e35a5f1ef" x="242.70792" y="587"/><use xlink:href="#e35a5f1eg" x="249.37492" y="587"/><use xlink:href="#e35a5f1eh" x="256.04192" y="587"/><use xlink:href="#e35a5f1ei" x="262.70892" y="587"/><use xlink:href="#e35a5f1ej" x="269.37592" y="587"/><use xlink:href="#e35a5f1ek" x="276.04292" y="587"/><use xlink:href="#e35a5f1el" x="282.70992" y="587"/><use xlink:href="#e35a5f1ei" x="289.37692" y="587"/><use xlink:href="#e35a5f1eh" x="296.04392" y="587"/><use xlink:href="#e35a5f1eg" x="302.71092" y="587"/><use xlink:href="#e35a5f1ej" x="309.37792" y="587"/><use xlink:href="#e35a5f1ek" x="316.04492" y="587"/><use xlink:href="#e35a5f1eap" x="322.71192" y="587"/><use xlink:href="#e35a5f1eaq" x="329.37892" y="587"/><use xlink:href="#e35a5f1eh" x="336.04592" y="587"/><use xlink:href="#e35a5f1er" x="342.71292" y="587"/><use xlink:href="#e35a5f1ei" x="349.37992" y="587"/><use xlink:href="#e35a5f1eS" x="356.04692" y="587"/><use xlink:href="#e35a5f1eT" x="362.71392" y="587"/><use xlink:href="#e35a5f1eq" x="369.38092" y="587"/><use xlink:href="#e35a5f1eF" x="376.04792" y="587"/><use xlink:href="#e35a5f1ek" x="382.71492" y="587"/><use xlink:href="#e35a5f1ex" x="389.38192" y="587"/><use xlink:href="#e35a5f1eh" x="396.04892" y="587"/><use xlink:href="#e35a5f1ei" x="402.71592" y="587"/><use xlink:href="#e35a5f1eq" x="409.38292" y="587"/><use xlink:href="#e35a5f1eg" x="416.04992" y="587"/><use xlink:href="#e35a5f1ey" x="422.71692" y="587"/></g></svg>