<?xml version='1.0' encoding='UTF-8'?>
<svg xmlns="http://www.w3.org/2000/svg" xmlns:xlink="http://www.w3.org/1999/xlink" width="600px" height="300px" viewBox="0 0 600 300" x="0px" y="0px" enable-background="new 0 0 600 300"><defs><symbol overflow="visible" id="e8aa3bbda"><path d="M5.69 0h8.08c-.18-5.44.3-17.05.95-26.31l1.44-20.17C20.23-35.77 26.87-18.41 33.76.16l7.37-.32c6.95-18.32 13.59-35.68 17.67-46.48l1.43 20.4c.65 9.2 1.13 20.8.97 26.24h8.88c-.8-5.52-1.92-17.2-2.56-26.31l-.32-4.57c-.64-9.2-1.2-20-1.12-25.53H54.95c-1.18 4.1-7.75 23.05-16.87 48.1-9.36-25.05-16.24-44-17.36-48.1H9.69C9.77-50.95 9.2-40 8.56-30.8l-.33 4.57A440.94 440.94 0 015.7 0zm0 0"/></symbol><symbol overflow="visible" id="e8aa3bbdb"><path d="M5.92-62.08c7.13-2.72 14.24-5.36 18.56-6.64.16-.4.16-1.6 0-2l-4.07-5.51A436.57 436.57 0 013.84-66.08zM7.52 0h8.8c-.48-5.44-.8-15.92-.8-26.31v-3.85c0-10.15.32-20.71.8-26.25h-8.8c.48 5.46.8 15.93.8 26.33v3.85C8.31-16.08 8-5.52 7.51 0zm0 0"/></symbol><symbol overflow="visible" id="e8aa3bbdc"><path d="M17.84-62.08c7.11-2.72 14.24-5.36 18.57-6.64.15-.4.15-1.6 0-2l-4.1-5.51a422.85 422.85 0 01-16.54 10.15zM11.92.56c.8 0 5.85-2 9.2-4.33 4.16-2.87 6.32-7.92 6.32-14.64v-11.75c0-10.15.33-20.71.8-26.25h-8.8c.48 5.46.8 15.93.8 26.33V-16c0 5.92-2.8 9.92-7.44 10.23L4.95-9.84a7.16 7.16 0 00-1.83 0L.33-2.31C3.35-.56 8 .56 11.91.56zm0 0"/></symbol><symbol overflow="visible" id="e8aa3bbdd"><path d="M7.52 0h8.07c-.46-5.44-.8-15.92-.8-26.31v-20.25C31.2-18.41 40.17-3.12 41.53 0h10.17c-.49-5.44-.81-15.92-.81-26.31v-3.85c0-10.15.32-20.71.8-26.25H43.6c.49 5.46.82 15.93.82 26.33v20.49C29.13-36 19.84-51.77 17.84-56.41H7.52c.48 5.46.8 15.93.8 26.33v3.85C8.31-16.08 8-5.52 7.51 0zm0 0"/></symbol><symbol overflow="visible" id="e8aa3bbdf"><path d="M6.16 0h8.25c-.33-4.48-.57-11.77-.57-18.64 0-4.72.08-8.88.24-12.31 3.2-2.49 6.56-3.77 9.84-3.77 6.49 0 7.6 4.88 7.6 15.6v.07c0 5.05-.24 14.57-.57 19.05h8.25c-.33-4.56-.56-12.8-.56-17.36 0-4.4.23-8.87.23-13.12v-.47c3.2-2.49 6.57-3.77 9.7-3.77 6.48 0 7.59 4.88 7.59 15.6v.07c0 5.05-.24 14.57-.57 19.05h8.25a306.3 306.3 0 01-.56-17.28c0-4.49.24-9.2.24-13.2 0-6.64-4.8-10.57-12.88-10.57-1.77 0-2.95.25-4.23.57-2.72 1.35-6 3.35-8.64 5.12-1.77-3.69-5.85-5.69-11.54-5.69-2 0-3.36.25-4.64.57a65.8 65.8 0 00-8.54 5.12c-.49-3.2-1.2-5.05-1.2-5.05l-6.57 1.7c-.08.23-.08 2.63 0 2.87.8 1.68 1.44 6.25 1.44 16.25 0 6.07-.24 14.95-.56 19.59zm0 0"/></symbol><symbol overflow="visible" id="e8aa3bbdg"><path d="M7.13-45.05c5.51-5.26 11.03-10.47 13.92-12.87.15-.4.15-1.6 0-2l-6.97-2.56a406.42 406.42 0 01-10.4 14.56zM6.3 0h8.25C14.23-4.48 14-11.77 14-18.64c0-7.77.23-16.56.64-21.52l-9.05.96c-.07.25-.07 2.64 0 2.89.82 1.67 1.29 7.75 1.29 16.72 0 6.07-.24 14.95-.57 19.59zm0 0"/></symbol><symbol overflow="visible" id="e8aa3bbdh"><path d="M6.95-45.05C12.48-50.3 18-55.52 20.88-57.92c.17-.4.17-1.6 0-2l-6.96-2.56a390.98 390.98 0 01-10.4 14.56zm-4.8 66.4C10.24 15.13 14 8.32 14-.14v-18.5c0-7.76.23-16.55.64-21.5l-8.95.95c-.1.25-.1 2.64 0 2.89.8 1.67 1.26 7.75 1.26 16.72v11.82c0 4.49-.15 10.57-.3 15.29l-8.8 6.96c-.26.16-.65.96-.65 1.2zm0 0"/></symbol><symbol overflow="visible" id="e8aa3bbdi"><path d="M6.16 0h8.25c-.33-4.48-.57-11.77-.57-18.64 0-4.72.08-8.88.24-12.31 3.28-2.49 6.64-3.77 10.08-3.77 6.64 0 7.76 4.88 7.76 15.6v.07c0 5.05-.23 14.57-.56 19.05h8.23c-.3-4.56-.54-12.8-.54-17.28 0-4.49.23-8.95.23-13.2 0-6.64-4.8-10.57-12.87-10.57-1.77 0-3.54.25-4.82.57a65.8 65.8 0 00-8.54 5.12c-.49-3.2-1.2-5.05-1.2-5.05l-6.57 1.7c-.08.23-.08 2.63 0 2.87.8 1.68 1.44 6.25 1.44 16.25 0 6.07-.24 14.95-.56 19.59zm0 0"/></symbol><symbol overflow="visible" id="e8aa3bbdj"><path d="M3.83 0v-5.95H6.2v-.82H.45v.82h2.4V0zm0 0"/></symbol><symbol overflow="visible" id="e8aa3bbdk"><path d="M5.75-2.23v-.43c0-1.6-.9-2.51-2.42-2.51S.87-4.16.87-2.48c0 1.71.91 2.62 2.5 2.62 1.43 0 2.07-.56 2.29-1.52l-.9-.09c-.18.61-.59.9-1.35.9-.94 0-1.52-.54-1.58-1.66zm-2.4-2.2c.93 0 1.43.5 1.48 1.55H1.84c.08-1.07.6-1.56 1.5-1.56zm0 0"/></symbol><symbol overflow="visible" id="e8aa3bbdl"><path d="M1.83 0l1.42-2h.06l1.46 2H5.8L4-2.53l1.78-2.49H4.8L3.42-3.08h-.08l-1.4-1.94H.89l1.78 2.49L.84 0zm0 0"/></symbol><symbol overflow="visible" id="e8aa3bbdm"><path d="M5.52-4.25v-.77H3.17v-1.56h-.81l-.14 1.56H.75v.77h1.47v2.4c0 1.3.48 1.94 1.84 1.94C4.6.1 5.14 0 5.55-.14L5.4-.91c-.32.13-.72.2-1.13.2-.8 0-1.1-.37-1.1-1.23v-2.31zm0 0"/></symbol><symbol overflow="visible" id="e8aa3bbdn"><path d="M3.33-3.42c.47 0 .8-.27.8-.8 0-.51-.33-.8-.8-.8-.47 0-.8.29-.8.8 0 .53.33.8.8.8zm0 3.5c.47 0 .8-.27.8-.78 0-.53-.33-.82-.8-.82-.47 0-.8.29-.8.82 0 .51.33.78.8.78zm0 0"/></symbol><symbol overflow="visible" id="e8aa3bbdp"><path d="M1.64 0v-3.17l-.16-2.5h.1L2.9-1.83h.82l1.35-3.84h.1l-.16 2.5V0h.95v-6.77h-1.3l-1.3 3.82h-.09L2-6.77H.69V0zm0 0"/></symbol><symbol overflow="visible" id="e8aa3bbdq"><path d="M3.7-7.31l1.32-1.82h-.97L2.95-7.3zm.13 1.34h1.73v-.8H1.1v.8h1.75v5.19H1.1V0h4.47v-.78H3.83zm0 0"/></symbol><symbol overflow="visible" id="e8aa3bbdr"><path d="M5.56-6.77h-3.8v.83h2.82v3.44c0 1.23-.28 1.81-1.36 1.81-.94 0-1.24-.48-1.33-1.3l-.03-.15-.92.1.01.18c.13 1.25.78 2 2.28 2 1.7 0 2.33-.86 2.33-2.64zm0 0"/></symbol><symbol overflow="visible" id="e8aa3bbds"><path d="M1.84 0v-4.48l-.06-.99h.1L4.46 0h1.28v-6.77h-.92v4.4l.06 1.03h-.1L2.21-6.77H.92V0zm0 0"/></symbol><symbol overflow="visible" id="e8aa3bbdt"><path d="M1.63 0v-2.9c0-.8.15-1.4.71-1.4.41 0 .55.3.55.88V0h.95v-2.9c0-.8.18-1.4.72-1.4.4 0 .57.3.57.88V0h.95v-3.63c0-.92-.28-1.53-1.11-1.53-.63 0-.95.41-1.1.9h-.06c-.1-.52-.44-.9-1.08-.9-.6 0-.93.41-1.06.9H1.6l-.23-.76H.67V0zm0 0"/></symbol><symbol overflow="visible" id="e8aa3bbdu"><path d="M4.17-7.8l-1.1 2.08h.76L5.14-7.8zm-.1 2.78H1.53v.77h1.6v3.48h-1.8V0h4.46v-.77h-1.7zm0 0"/></symbol><symbol overflow="visible" id="e8aa3bbdv"><path d="M4.14-7.16c-.44 0-.72.24-.72.68 0 .45.28.67.72.67.42 0 .72-.22.72-.67 0-.44-.3-.68-.72-.68zm-2.8 2.14v.77h2.33v4.16c0 .95-.36 1.28-1.28 1.28-.4 0-.89-.08-1.23-.22l-.22.78c.42.17 1.1.28 1.6.28 1.55 0 2.08-.67 2.08-2.1v-4.95zm0 0"/></symbol><symbol overflow="visible" id="e8aa3bbdw"><path d="M2.16 0v-2.67c0-.99.59-1.63 1.46-1.63.74 0 1.07.38 1.07 1.22V0h.95v-3.31c0-1.2-.56-1.85-1.67-1.85-.92 0-1.49.46-1.77 1.08h-.06l-.12-.94H1.2V0zm0 0"/></symbol><symbol overflow="visible" id="e8aa3bbdx"><path d="M5.95-6.77H1.1V0h.99v-2.92H5.3v-.77H2.08v-2.26h3.87zm0 0"/></symbol><symbol overflow="visible" id="e8aa3bbdy"><path d="M2.83.14c.94 0 1.5-.39 1.81-.95h.08l.1.81h.76v-3.38c0-1.23-.69-1.8-2.13-1.8-1.43 0-2.03.65-2.18 1.6l.93.1c.11-.6.44-.93 1.22-.93.85 0 1.22.32 1.22 1.04v.34l-1.81.2C1.6-2.7 1.1-2.17 1.1-1.28c0 .92.64 1.42 1.72 1.42zm.25-.77c-.67 0-1.02-.28-1.02-.74 0-.44.28-.72 1-.82l1.58-.19v.41c0 .8-.6 1.34-1.56 1.34zm0 0"/></symbol><symbol overflow="visible" id="e8aa3bbdz"><path d="M2.73.14c.9 0 1.43-.45 1.74-1.08h.06l.13.94h.8v-5.02h-.94v2.7c0 .98-.57 1.62-1.46 1.62-.75 0-1.1-.4-1.1-1.22v-3.1h-.93v3.32c0 1.17.55 1.84 1.7 1.84zm0 0"/></symbol><symbol overflow="visible" id="e8aa3bbdA"><path d="M5.08-5.16c-.94 0-1.58.43-1.9 1.3h-.09l-.07-1.16H1.05v.77h1.1v3.48H.96V0h3.96v-.77H3.1v-1.46c0-1.36.6-2.05 1.83-2.05.4 0 .76.08 1.1.17l.15-.87c-.33-.11-.7-.18-1.11-.18zm0 0"/></symbol><symbol overflow="visible" id="e8aa3bbdB"><path d="M.92-6.77V0h2.11c2.03 0 3.03-1.03 3.03-3.36 0-2.39-1.01-3.4-2.93-3.4zM1.91-.8v-5.17h1.18c1.29 0 1.96.63 1.96 2.61 0 1.94-.67 2.56-1.96 2.56zm0 0"/></symbol><symbol overflow="visible" id="e8aa3bbdC"><path d="M3.34.14c1.43 0 2.13-.66 2.25-1.78l-.89-.1c-.1.7-.5 1.08-1.34 1.08-1.03 0-1.52-.64-1.52-1.84 0-1.23.47-1.86 1.52-1.86.84 0 1.23.36 1.34 1.08l.9-.1c-.13-1.09-.82-1.78-2.26-1.78-1.56 0-2.46.97-2.46 2.66 0 1.66.9 2.64 2.46 2.64zm0 0"/></symbol><symbol overflow="visible" id="e8aa3bbdD"><path d="M2.16 0v-2.69c0-.98.6-1.6 1.46-1.6.74 0 1.07.4 1.07 1.2V0h.95v-3.31c0-1.17-.56-1.85-1.67-1.85-.9 0-1.44.46-1.75 1.08h-.06v-3.06H1.2V0zm0 0"/></symbol><symbol overflow="visible" id="e8aa3bbdE"><path d="M3.38-5.9c.12-.5.42-1.04.67-1.41l-.63-.22a4.28 4.28 0 00-1.01 2.39c0 .66.3 1 .9 1 .6 0 .9-.33.9-.9 0-.57-.32-.83-.83-.85zm0 0"/></symbol><symbol overflow="visible" id="e8aa3bbdF"><path d="M3.58-5.81c.42 0 .72-.22.72-.67 0-.44-.3-.68-.72-.68-.44 0-.72.24-.72.68 0 .45.28.67.72.67zm.5.8H1.52v.76h1.6v3.48h-1.8V0h4.46v-.77h-1.7zm0 0"/></symbol><symbol overflow="visible" id="e8aa3bbdG"><path d="M3.3-7.53c-.55 0-.85.3-.85.84 0 .55.36.8.83.8h.03a5.1 5.1 0 01-.69 1.47l.52.23a4.29 4.29 0 001.02-2.4c0-.63-.33-.94-.86-.94zm0 0"/></symbol><symbol overflow="visible" id="e8aa3bbdH"><path d="M2.44 0l.87-3.31h.06L4.25 0H5.3l1.03-5.02h-.88l-.73 3.94h-.08L3.77-4.4h-.85l-.87 3.33h-.08l-.75-3.94H.34L1.36 0zm0 0"/></symbol><symbol overflow="visible" id="e8aa3bbdI"><path d="M1.45-2.95c0 2.56 1.08 4.37 3.67 4.84l.11-.67C3.28.86 2.43-.75 2.43-2.95s.85-3.82 2.8-4.16l-.1-.69c-2.6.49-3.68 2.3-3.68 4.85zm0 0"/></symbol><symbol overflow="visible" id="e8aa3bbdJ"><path d="M3.36.16c1.4 0 2.2-.6 2.2-1.57 0-.89-.54-1.22-1.47-1.39L3-3c-.67-.14-.86-.33-.86-.73 0-.5.4-.74 1.17-.74.83 0 1.19.27 1.27.8l.9-.05c-.12-1-.8-1.47-2.17-1.47-1.34 0-2.1.53-2.1 1.5 0 .81.45 1.22 1.52 1.44l1.04.2c.56.11.87.24.87.72 0 .52-.45.78-1.28.78-.95 0-1.36-.28-1.42-.87l-.9.06C1.07-.36 1.8.16 3.35.16zm0 0"/></symbol><symbol overflow="visible" id="e8aa3bbdK"><path d="M3.92-7.14H1.36v.76h1.6v5.61H1.15V0H5.7v-.77H3.92zm0 0"/></symbol><symbol overflow="visible" id="e8aa3bbdL"><path d="M3.16 2.03c1.67 0 2.4-.86 2.4-2.51v-4.54h-.81l-.13.91h-.06c-.26-.58-.8-1.05-1.73-1.05-1.42 0-2.24 1-2.24 2.52 0 1.6.75 2.56 2.2 2.56.94 0 1.5-.5 1.77-1.03h.05v.72c0 1.17-.42 1.67-1.45 1.67-.93 0-1.3-.34-1.41-.89L.8.5c.12.96.87 1.54 2.36 1.54zM3.06-.8c-.98 0-1.48-.57-1.48-1.82 0-1.13.5-1.75 1.48-1.75 1.06 0 1.58.76 1.58 1.75 0 .95-.56 1.82-1.58 1.82zm0 0"/></symbol><symbol overflow="visible" id="e8aa3bbdM"><path d="M1.45-7.1c1.96.33 2.8 1.94 2.8 4.15 0 2.2-.84 3.8-2.8 4.17l.11.67c2.58-.47 3.67-2.28 3.67-4.84 0-2.55-1.09-4.36-3.67-4.85zm0 0"/></symbol></defs><use xlink:href="#e8aa3bbda" x="114.88" y="166" fill="#515151"/><use xlink:href="#e8aa3bbdb" x="190.64" y="166" fill="#fff"/><use xlink:href="#e8aa3bbdc" x="214.48" y="166" fill="#fff"/><g fill="#515151"><use xlink:href="#e8aa3bbdd" x="249.44" y="166"/><use xlink:href="#e8aa3bbde" x="308.64" y="166"/><use xlink:href="#e8aa3bbdf" x="328.96" y="166"/></g><use xlink:href="#e8aa3bbdg" x="398.4" y="166" fill="#fff"/><use xlink:href="#e8aa3bbdh" x="419.2" y="166" fill="#fff"/><use xlink:href="#e8aa3bbdi" x="439.92" y="166" fill="#515151"/><g fill="#fff"><use xlink:href="#e8aa3bbdj" x="250" y="252"/><use xlink:href="#e8aa3bbdk" x="256.667" y="252"/><use xlink:href="#e8aa3bbdl" x="263.334" y="252"/><use xlink:href="#e8aa3bbdm" x="270.001" y="252"/><use xlink:href="#e8aa3bbdn" x="276.668" y="252"/><use xlink:href="#e8aa3bbdo" x="283.335" y="252"/><use xlink:href="#e8aa3bbdp" x="290.002" y="252"/><use xlink:href="#e8aa3bbdq" x="296.669" y="252"/><use xlink:href="#e8aa3bbdr" x="303.336" y="252"/><use xlink:href="#e8aa3bbds" x="310.003" y="252"/><use xlink:href="#e8aa3bbdo" x="316.67" y="252"/><use xlink:href="#e8aa3bbdt" x="323.337" y="252"/><use xlink:href="#e8aa3bbdu" x="330.004" y="252"/><use xlink:href="#e8aa3bbdv" x="336.671" y="252"/><use xlink:href="#e8aa3bbdw" x="343.338" y="252"/></g><g fill="#fff"><use xlink:href="#e8aa3bbdx" x="150" y="266"/><use xlink:href="#e8aa3bbdk" x="156.667" y="266"/><use xlink:href="#e8aa3bbdy" x="163.334" y="266"/><use xlink:href="#e8aa3bbdm" x="170.001" y="266"/><use xlink:href="#e8aa3bbdz" x="176.668" y="266"/><use xlink:href="#e8aa3bbdA" x="183.335" y="266"/><use xlink:href="#e8aa3bbdk" x="190.002" y="266"/><use xlink:href="#e8aa3bbdn" x="196.669" y="266"/><use xlink:href="#e8aa3bbdo" x="203.336" y="266"/><use xlink:href="#e8aa3bbdB" x="210.003" y="266"/><use xlink:href="#e8aa3bbdz" x="216.67" y="266"/><use xlink:href="#e8aa3bbdm" x="223.337" y="266"/><use xlink:href="#e8aa3bbdC" x="230.004" y="266"/><use xlink:href="#e8aa3bbdD" x="236.671" y="266"/><use xlink:href="#e8aa3bbdo" x="243.338" y="266"/><use xlink:href="#e8aa3bbdE" x="250.005" y="266"/><use xlink:href="#e8aa3bbdF" x="256.672" y="266"/><use xlink:href="#e8aa3bbdv" x="263.339" y="266"/><use xlink:href="#e8aa3bbdG" x="270.006" y="266"/><use xlink:href="#e8aa3bbdo" x="276.673" y="266"/><use xlink:href="#e8aa3bbdH" x="283.34" y="266"/><use xlink:href="#e8aa3bbdF" x="290.007" y="266"/><use xlink:href="#e8aa3bbdm" x="296.674" y="266"/><use xlink:href="#e8aa3bbdD" x="303.341" y="266"/><use xlink:href="#e8aa3bbdo" x="310.008" y="266"/><use xlink:href="#e8aa3bbdy" x="316.675" y="266"/><use xlink:href="#e8aa3bbdC" x="323.342" y="266"/><use xlink:href="#e8aa3bbdz" x="330.009" y="266"/><use xlink:href="#e8aa3bbdm" x="336.676" y="266"/><use xlink:href="#e8aa3bbdk" x="343.343" y="266"/><use xlink:href="#e8aa3bbdo" x="350.01" y="266"/><use xlink:href="#e8aa3bbdI" x="356.677" y="266"/><use xlink:href="#e8aa3bbdJ" x="363.344" y="266"/><use xlink:href="#e8aa3bbdk" x="370.011" y="266"/><use xlink:href="#e8aa3bbdm" x="376.678" y="266"/><use xlink:href="#e8aa3bbdo" x="383.345" y="266"/><use xlink:href="#e8aa3bbdK" x="390.012" y="266"/><use xlink:href="#e8aa3bbdy" x="396.679" y="266"/><use xlink:href="#e8aa3bbdw" x="403.346" y="266"/><use xlink:href="#e8aa3bbdL" x="410.013" y="266"/><use xlink:href="#e8aa3bbdz" x="416.68" y="266"/><use xlink:href="#e8aa3bbdy" x="423.347" y="266"/><use xlink:href="#e8aa3bbdL" x="430.014" y="266"/><use xlink:href="#e8aa3bbdk" x="436.681" y="266"/><use xlink:href="#e8aa3bbdM" x="443.348" y="266"/></g></svg>