<?xml version='1.0' encoding='UTF-8'?>
<svg xmlns="http://www.w3.org/2000/svg" xmlns:xlink="http://www.w3.org/1999/xlink" width="600px" height="300px" viewBox="0 0 600 300" x="0px" y="0px" enable-background="new 0 0 600 300"><defs><symbol overflow="visible" id="985b4c53a"><path d="M19.13 0h8.8c-.5-5.44-.8-15.92-.8-26.31v-3.85c0-7.12.15-14.4.39-20.07 6.17.15 12.17.64 14.8 1.18.32.1 2.4-.08 2.73-.23l.8-7.44c-3.7.16-12.5.31-20.9.31h-2.72c-8.39 0-17.18-.15-20.87-.3l-.31 7.35c.3.16 2.39.31 2.72.23 2.95-.56 9.43-1.03 15.75-1.1.25 5.59.4 12.87.4 20.15v3.85c0 10.15-.33 20.71-.8 26.23zm0 0"/></symbol><symbol overflow="visible" id="985b4c53b"><path d="M31.2 1.6c.88 0 10-2.48 16.16-6.55 7.6-5.05 11.52-13.13 11.52-23.61C58.88-46.23 47.91-58 31.52-58c-.88 0-10 2.48-16.16 6.56C7.76-46.4 3.84-38.3 3.84-27.77 3.84-10.16 14.8 1.6 31.2 1.6zm1.11-6.8c-12.08 0-20.15-9.68-20.15-24.24 0-13.68 7.2-21.76 18.25-21.76 12.07 0 20.15 9.68 20.15 24.25 0 13.67-7.2 21.75-18.25 21.75zm0 0"/></symbol><symbol overflow="visible" id="985b4c53c"><path d="M1.13 0H9.2c.49-1.84 2.16-6.8 4.57-14 3.59-.16 8.39-.23 16.8-.23 3.27 0 5.35 0 7.66.15C40.8-6.88 42.48-1.84 43.05 0h8.39c.08-.31.08-2.88 0-3.13C47.28-12 38.8-33.36 30-56.55l-7.2.33C13.92-33.36 5.36-12 1.12-3.13c-.07.25-.07 2.82 0 3.13zm20.46-20.31c-2.3 0-4.07 0-5.67-.1 2.72-7.75 6-17.36 9.85-28 3.92 10.64 7.36 20.18 10.15 27.93-3.28.07-7.69.17-14.33.17zm0 0"/></symbol><symbol overflow="visible" id="985b4c53d"><path d="M7.52 0h11.53c6 0 13.51.08 20.95.23l1.05-7.67c-.25-.08-2.4-.33-2.74-.25-3.44.74-8.47 1.2-15.44 1.2-2.07 0-4.64-.07-6.95-.15-.23-5.52-.4-12.64-.4-19.67v-3.85c0-10.15.32-20.71.8-26.25h-8.8c.48 5.46.8 15.93.8 26.33v3.85C8.31-16.08 8-5.52 7.51 0zm0 0"/></symbol><symbol overflow="visible" id="985b4c53e"><path d="M10.4-26.23c3.2 0 5.29-2.25 5.29-5.54 0-2.95-2-5.03-4.97-5.03-3.28 0-5.36 2.24-5.36 5.52 0 2.97 2 5.05 5.05 5.05zM10.32.23c3.2 0 5.28-2.23 5.28-5.51 0-2.95-2-5.03-4.95-5.03-3.28 0-5.36 2.23-5.36 5.51 0 2.96 2 5.03 5.03 5.03zm0 0"/></symbol><symbol overflow="visible" id="985b4c53g"><path d="M24.4 1.69c1.12 0 9.52-2.33 14.4-5.61 4.15-2.8 6.72-6.56 6.72-11.13 0-5.9-4.16-10.54-12.65-14.64A42.1 42.1 0 0036.48-32c3.83-2.88 6.24-6.64 6.24-11.84C42.72-52.41 35.36-58 24.8-58c-1.11 0-7.85 2.08-12.24 5.2-3.92 2.72-6.25 6.32-6.25 10.72 0 5.36 3.13 9.6 9.53 13.2a39.12 39.12 0 00-5.76 3.52c-3.85 2.88-6.24 6.64-6.24 11.84 0 9.11 8.4 15.2 20.57 15.2zm-.56-35.38c-7.2-3.19-10.07-6-10.07-10.15 0-4.72 3.67-7.6 9.92-7.6 6.95 0 11.6 3.67 11.6 9.2 0 3.76-2.16 7.12-7.06 10.47zM11.52-14.72c0-4.23 2.89-8.08 9.2-11.84l7.05 3.04c7.1 3.11 10 6 10 10.24 0 5.36-4.57 8.56-12.25 8.56-8.4 0-14-4.08-14-10zm0 0"/></symbol><symbol overflow="visible" id="985b4c53h"><path d="M19.6 1.52c1.04 0 7.2-2.16 11.84-5.29 5.68-3.82 8.64-9.18 8.64-15.82 0-10.18-7.13-16.25-19.13-16.25-.72 0-4.8 1.04-8.8 2.4.16-5.6.41-11.84.72-16.87 9.05 0 15.77.15 24 .72l.9-6.97c-.33-.16-2.33-.31-2.65-.24-2.8.4-7.43.57-15.84.57-4.87 0-9.12 0-13.36-.25.24 6.25.31 16.48.24 25.53a16.4 16.4 0 001.92 3.9c4.23-1.6 7.76-2.47 11.28-2.47 8.16 0 13.05 4.4 13.05 11.83 0 7.46-4.82 12.49-12 12.49-4.1 0-8.97-1.6-14.1-4.64L3.36-2.08c4.48 2.4 10.08 3.6 16.23 3.6zm0 0"/></symbol><symbol overflow="visible" id="985b4c53i"><path d="M13.52 0h8.64c-.57-5.44-.8-15.92-.8-26.23v-3.93c0-10.15.23-20.71.8-26.15-.4-.33-2-1.28-2.47-1.46-5.53 2.9-13.05 6.41-18.74 8.49l1.36 4.23 12.1-3.03v21.92C14.4-16.08 14-5.52 13.5 0zm0 0"/></symbol><symbol overflow="visible" id="985b4c53j"><path d="M24.23 1.69c.64 0 7.54-2 12.33-5.46 5.03-3.59 7.67-8.87 7.67-15.43 0-10.32-7.03-17.28-17.43-17.28-1.93 0-3.52.25-4.64.64-2.88 1.36-7.11 3.68-10.4 5.76.55-13.76 6.08-20.97 16.32-20.97 3.12 0 6.72.82 9.69 2.33l2.71-6.97a32.4 32.4 0 00-11.2-2.15c-.72 0-7.76 1.53-12.97 4.89-8 5.1-12.15 14.47-12.15 27.26 0 17.2 7.43 27.38 20.07 27.38zm.25-31.77c7.29 0 12.24 5.03 12.24 12.64 0 7.44-4.49 12.49-11.28 12.49-8 0-12.88-7.28-13.6-19.85 4.57-3.6 8.47-5.28 12.64-5.28zm0 0"/></symbol><symbol overflow="visible" id="985b4c53k"><path d="M3.83 0v-5.95H6.2v-.82H.45v.82h2.4V0zm0 0"/></symbol><symbol overflow="visible" id="985b4c53l"><path d="M5.75-2.23v-.43c0-1.6-.9-2.51-2.42-2.51S.87-4.16.87-2.48c0 1.71.91 2.62 2.5 2.62 1.43 0 2.07-.56 2.29-1.52l-.9-.09c-.18.61-.59.9-1.35.9-.94 0-1.52-.54-1.58-1.66zm-2.4-2.2c.93 0 1.43.5 1.48 1.55H1.84c.08-1.07.6-1.56 1.5-1.56zm0 0"/></symbol><symbol overflow="visible" id="985b4c53m"><path d="M1.83 0l1.42-2h.06l1.46 2H5.8L4-2.53l1.78-2.49H4.8L3.42-3.08h-.08l-1.4-1.94H.89l1.78 2.49L.84 0zm0 0"/></symbol><symbol overflow="visible" id="985b4c53n"><path d="M5.52-4.25v-.77H3.17v-1.56h-.81l-.14 1.56H.75v.77h1.47v2.4c0 1.3.48 1.94 1.84 1.94C4.6.1 5.14 0 5.55-.14L5.4-.91c-.32.13-.72.2-1.13.2-.8 0-1.1-.37-1.1-1.23v-2.31zm0 0"/></symbol><symbol overflow="visible" id="985b4c53o"><path d="M3.33-3.42c.47 0 .8-.27.8-.8 0-.51-.33-.8-.8-.8-.47 0-.8.29-.8.8 0 .53.33.8.8.8zm0 3.5c.47 0 .8-.27.8-.78 0-.53-.33-.82-.8-.82-.47 0-.8.29-.8.82 0 .51.33.78.8.78zm0 0"/></symbol><symbol overflow="visible" id="985b4c53q"><path d="M3.33.14c1.9 0 2.76-1.27 2.76-3.52 0-2.26-.86-3.53-2.76-3.53S.58-5.64.58-3.37c0 2.25.86 3.51 2.75 3.51zM3.3-.67c-1.25 0-1.73-.95-1.73-2.7 0-1.77.5-2.72 1.75-2.72s1.75.95 1.75 2.71c0 1.75-.5 2.7-1.77 2.7zm0 0"/></symbol><symbol overflow="visible" id="985b4c53r"><path d="M6.17 0L3.98-6.77h-1.3L.5 0h.97l.44-1.47h2.78L5.16 0zM3.28-5.94h.08l1.1 3.74H2.15zm0 0"/></symbol><symbol overflow="visible" id="985b4c53s"><path d="M2.08-6.77h-.99V0h4.79v-.81h-3.8zm0 0"/></symbol><symbol overflow="visible" id="985b4c53t"><path d="M3.33.16c1.69 0 2.69-.74 2.69-1.94 0-1.05-.8-1.58-1.43-1.72v-.05c.5-.14 1.2-.58 1.2-1.56 0-1.12-.95-1.81-2.46-1.81-1.52 0-2.46.69-2.46 1.81 0 .97.68 1.4 1.18 1.56v.05c-.6.14-1.4.64-1.4 1.72 0 1.2 1 1.94 2.68 1.94zm0-4.04c-.97 0-1.49-.43-1.49-1.12 0-.78.52-1.1 1.49-1.1.95 0 1.48.32 1.48 1.1 0 .69-.53 1.13-1.48 1.13zm0 3.24c-1.1 0-1.7-.42-1.7-1.25 0-.78.6-1.2 1.7-1.2s1.7.42 1.7 1.2c0 .83-.6 1.25-1.7 1.25zm0 0"/></symbol><symbol overflow="visible" id="985b4c53u"><path d="M3.42.14c1.55 0 2.44-.84 2.44-2.33 0-1.45-.83-2.22-2.14-2.22-.75 0-1.28.27-1.67.72H2l.31-2.22h3.11v-.86H1.53l-.45 3.93h.81c.3-.36.9-.79 1.58-.79.92 0 1.44.43 1.44 1.47 0 .99-.54 1.5-1.49 1.5-.83 0-1.28-.32-1.5-1.01l-.95.1C1.07-.46 2 .13 3.42.13zm0 0"/></symbol><symbol overflow="visible" id="985b4c53v"><path d="M4.22-6.77h-.86l-2.03.7v.87c.64-.17 1.26-.38 1.89-.55v4.9H1.03V0h4.9v-.86H4.21zm0 0"/></symbol><symbol overflow="visible" id="985b4c53w"><path d="M3.42.14c1.58 0 2.49-.86 2.49-2.3 0-1.42-.86-2.17-2.22-2.17-1.03 0-1.58.5-1.9 1.02h-.04c.03-1.63.4-2.77 1.73-2.77.91 0 1.24.44 1.36.96l.97-.11c-.23-.96-.86-1.68-2.33-1.68C1.84-6.9.86-5.86.86-3.1.86-.9 1.78.14 3.42.14zm.02-.78c-.9 0-1.47-.55-1.47-1.47 0-.9.7-1.47 1.53-1.47.92 0 1.47.52 1.47 1.47 0 .97-.6 1.47-1.53 1.47zm0 0"/></symbol><symbol overflow="visible" id="985b4c53x"><path d="M5.95-6.77H1.1V0h.99v-2.92H5.3v-.77H2.08v-2.26h3.87zm0 0"/></symbol><symbol overflow="visible" id="985b4c53y"><path d="M2.83.14c.94 0 1.5-.39 1.81-.95h.08l.1.81h.76v-3.38c0-1.23-.69-1.8-2.13-1.8-1.43 0-2.03.65-2.18 1.6l.93.1c.11-.6.44-.93 1.22-.93.85 0 1.22.32 1.22 1.04v.34l-1.81.2C1.6-2.7 1.1-2.17 1.1-1.28c0 .92.64 1.42 1.72 1.42zm.25-.77c-.67 0-1.02-.28-1.02-.74 0-.44.28-.72 1-.82l1.58-.19v.41c0 .8-.6 1.34-1.56 1.34zm0 0"/></symbol><symbol overflow="visible" id="985b4c53z"><path d="M2.73.14c.9 0 1.43-.45 1.74-1.08h.06l.13.94h.8v-5.02h-.94v2.7c0 .98-.57 1.62-1.46 1.62-.75 0-1.1-.4-1.1-1.22v-3.1h-.93v3.32c0 1.17.55 1.84 1.7 1.84zm0 0"/></symbol><symbol overflow="visible" id="985b4c53A"><path d="M5.08-5.16c-.94 0-1.58.43-1.9 1.3h-.09l-.07-1.16H1.05v.77h1.1v3.48H.96V0h3.96v-.77H3.1v-1.46c0-1.36.6-2.05 1.83-2.05.4 0 .76.08 1.1.17l.15-.87c-.33-.11-.7-.18-1.11-.18zm0 0"/></symbol><symbol overflow="visible" id="985b4c53B"><path d="M3.92-7.14H1.36v.76h1.6v5.61H1.15V0H5.7v-.77H3.92zm0 0"/></symbol><symbol overflow="visible" id="985b4c53C"><path d="M5.33-2.2v-.75h-4v.75zm0 0"/></symbol><symbol overflow="visible" id="985b4c53D"><path d="M3.34.14c1.43 0 2.13-.66 2.25-1.78l-.89-.1c-.1.7-.5 1.08-1.34 1.08-1.03 0-1.52-.64-1.52-1.84 0-1.23.47-1.86 1.52-1.86.84 0 1.23.36 1.34 1.08l.9-.1c-.13-1.09-.82-1.78-2.26-1.78-1.56 0-2.46.97-2.46 2.66 0 1.66.9 2.64 2.46 2.64zm0 0"/></symbol><symbol overflow="visible" id="985b4c53E"><path d="M2.06 1.9V-.84h.05c.28.58.8.97 1.77.97 1.5 0 2.2-.98 2.2-2.66 0-1.65-.7-2.64-2.19-2.64-.97 0-1.5.44-1.78 1.05h-.08l-.1-.9H1.1v6.9zm1.5-2.56c-1.06 0-1.53-.8-1.53-1.86 0-1.04.47-1.84 1.53-1.84 1.11 0 1.53.61 1.53 1.84 0 1.27-.42 1.86-1.53 1.86zm0 0"/></symbol><symbol overflow="visible" id="985b4c53F"><path d="M2.16 0v-2.67c0-.99.59-1.63 1.46-1.63.74 0 1.07.38 1.07 1.22V0h.95v-3.31c0-1.2-.56-1.85-1.67-1.85-.92 0-1.49.46-1.77 1.08h-.06l-.12-.94H1.2V0zm0 0"/></symbol><symbol overflow="visible" id="985b4c53G"><path d="M1.63 0v-2.9c0-.8.15-1.4.71-1.4.41 0 .55.3.55.88V0h.95v-2.9c0-.8.18-1.4.72-1.4.4 0 .57.3.57.88V0h.95v-3.63c0-.92-.28-1.53-1.11-1.53-.63 0-.95.41-1.1.9h-.06c-.1-.52-.44-.9-1.08-.9-.6 0-.93.41-1.06.9H1.6l-.23-.76H.67V0zm0 0"/></symbol><symbol overflow="visible" id="985b4c53H"><path d="M3.36.16c1.4 0 2.2-.6 2.2-1.57 0-.89-.54-1.22-1.47-1.39L3-3c-.67-.14-.86-.33-.86-.73 0-.5.4-.74 1.17-.74.83 0 1.19.27 1.27.8l.9-.05c-.12-1-.8-1.47-2.17-1.47-1.34 0-2.1.53-2.1 1.5 0 .81.45 1.22 1.52 1.44l1.04.2c.56.11.87.24.87.72 0 .52-.45.78-1.28.78-.95 0-1.36-.28-1.42-.87l-.9.06C1.07-.36 1.8.16 3.35.16zm0 0"/></symbol><symbol overflow="visible" id="985b4c53I"><path d="M1.45-2.95c0 2.56 1.08 4.37 3.67 4.84l.11-.67C3.28.86 2.43-.75 2.43-2.95s.85-3.82 2.8-4.16l-.1-.69c-2.6.49-3.68 2.3-3.68 4.85zm0 0"/></symbol><symbol overflow="visible" id="985b4c53J"><path d="M1.45-7.1c1.96.33 2.8 1.94 2.8 4.15 0 2.2-.84 3.8-2.8 4.17l.11.67c2.58-.47 3.67-2.28 3.67-4.84 0-2.55-1.09-4.36-3.67-4.85zm0 0"/></symbol></defs><use xlink:href="#985b4c53a" x="73.92" y="166" fill="#515151"/><use xlink:href="#985b4c53b" x="117.76" y="166" fill="#515151"/><use xlink:href="#985b4c53a" x="178.64" y="166" fill="#515151"/><g fill="#515151"><use xlink:href="#985b4c53c" x="220.56" y="166"/><use xlink:href="#985b4c53d" x="273.28" y="166"/><use xlink:href="#985b4c53e" x="315.36" y="166"/><use xlink:href="#985b4c53f" x="336.32" y="166"/></g><use xlink:href="#985b4c53g" x="356.64" y="166" fill="#fff"/><use xlink:href="#985b4c53h" x="405.84" y="166" fill="#fff"/><use xlink:href="#985b4c53i" x="449.28" y="166" fill="#fff"/><use xlink:href="#985b4c53j" x="478.88" y="166" fill="#fff"/><g fill="#fff"><use xlink:href="#985b4c53k" x="243.3333" y="252"/><use xlink:href="#985b4c53l" x="250.0003" y="252"/><use xlink:href="#985b4c53m" x="256.6673" y="252"/><use xlink:href="#985b4c53n" x="263.3343" y="252"/><use xlink:href="#985b4c53o" x="270.0013" y="252"/><use xlink:href="#985b4c53p" x="276.6683" y="252"/><use xlink:href="#985b4c53k" x="283.3353" y="252"/><use xlink:href="#985b4c53q" x="290.0023" y="252"/><use xlink:href="#985b4c53k" x="296.6693" y="252"/><use xlink:href="#985b4c53r" x="303.3363" y="252"/><use xlink:href="#985b4c53s" x="310.0033" y="252"/><use xlink:href="#985b4c53o" x="316.6703" y="252"/><use xlink:href="#985b4c53p" x="323.3373" y="252"/><use xlink:href="#985b4c53t" x="330.0043" y="252"/><use xlink:href="#985b4c53u" x="336.6713" y="252"/><use xlink:href="#985b4c53v" x="343.3383" y="252"/><use xlink:href="#985b4c53w" x="350.0053" y="252"/></g><g fill="#fff"><use xlink:href="#985b4c53x" x="193.3333" y="266"/><use xlink:href="#985b4c53l" x="200.0003" y="266"/><use xlink:href="#985b4c53y" x="206.6673" y="266"/><use xlink:href="#985b4c53n" x="213.3343" y="266"/><use xlink:href="#985b4c53z" x="220.0013" y="266"/><use xlink:href="#985b4c53A" x="226.6683" y="266"/><use xlink:href="#985b4c53l" x="233.3353" y="266"/><use xlink:href="#985b4c53o" x="240.0023" y="266"/><use xlink:href="#985b4c53p" x="246.6693" y="266"/><use xlink:href="#985b4c53r" x="253.3363" y="266"/><use xlink:href="#985b4c53B" x="260.0033" y="266"/><use xlink:href="#985b4c53B" x="266.6703" y="266"/><use xlink:href="#985b4c53C" x="273.3373" y="266"/><use xlink:href="#985b4c53D" x="280.0043" y="266"/><use xlink:href="#985b4c53y" x="286.6713" y="266"/><use xlink:href="#985b4c53E" x="293.3383" y="266"/><use xlink:href="#985b4c53p" x="300.0053" y="266"/><use xlink:href="#985b4c53F" x="306.6723" y="266"/><use xlink:href="#985b4c53z" x="313.3393" y="266"/><use xlink:href="#985b4c53G" x="320.0063" y="266"/><use xlink:href="#985b4c53l" x="326.6733" y="266"/><use xlink:href="#985b4c53A" x="333.3403" y="266"/><use xlink:href="#985b4c53y" x="340.0073" y="266"/><use xlink:href="#985b4c53B" x="346.6743" y="266"/><use xlink:href="#985b4c53H" x="353.3413" y="266"/><use xlink:href="#985b4c53p" x="360.0083" y="266"/><use xlink:href="#985b4c53I" x="366.6753" y="266"/><use xlink:href="#985b4c53D" x="373.3423" y="266"/><use xlink:href="#985b4c53y" x="380.0093" y="266"/><use xlink:href="#985b4c53H" x="386.6763" y="266"/><use xlink:href="#985b4c53l" x="393.3433" y="266"/><use xlink:href="#985b4c53J" x="400.0103" y="266"/></g></svg>