<?xml version='1.0' encoding='UTF-8'?>
<svg xmlns="http://www.w3.org/2000/svg" xmlns:xlink="http://www.w3.org/1999/xlink" width="600px" height="300px" viewBox="0 0 600 300" x="0px" y="0px" enable-background="new 0 0 600 300"><defs><symbol overflow="visible" id="d4aaf7f4a"><path d="M29.69-6.64c1.1 0 2.39-.16 3.26-.49 2-.95 4.57-2.23 6.49-3.43.4 4.25 3.36 7.12 8.72 7.12 9.6 0 16-8.72 16-21.68 0-16.24-10.16-25.75-27.44-25.75-19.84 0-33.13 12.71-33.13 31.74C3.6-2.23 14 7.7 31.52 7.7c4.71 0 9.43-.74 14.64-2.4L44.8 1.11a40.05 40.05 0 01-11.85 1.75C18 2.88 9.12-5.59 9.12-19.84c0-15.75 10.72-26.24 26.8-26.24 14.24 0 22.64 8.31 22.64 22.31 0 9.29-3.69 15.54-9.2 15.54-2.72 0-4.23-1.61-4-4.33l.95-9.67C46.95-27.6 47.6-32 48-33.43c-3.69-2.41-8.56-4-12.16-4-.48 0-6.07 1.43-9.76 3.84-5.13 3.36-7.44 9.18-7.44 15.67 0 6.8 4.64 11.28 11.05 11.28zm-4.1-13.28c0-6.64 2.64-12.24 9.05-12.24 1.77 0 4.08.47 6.23 1.36-.23 2.57-.56 5.44-.8 7.75l-.95 8.74c-2.4 1.44-4.71 2.23-6.8 2.23-4.09 0-6.73-2.87-6.73-7.84zm0 0"/></symbol><symbol overflow="visible" id="d4aaf7f4b"><path d="M26.48 1.28C32 1.28 36.95-.23 42.8-3.36l-2-5.2a27.37 27.37 0 01-12.57 3.2c-10.54 0-16.8-6.64-16.8-18.08 0-11.12 5.93-17.76 15.13-17.76.49 0 .96 0 1.44.08l9.2 4c.32.07 1.6.07 1.92 0l2.57-6.8a33.91 33.91 0 00-14.17-3.44c-.8 0-8.64 1.92-13.6 5.05C7.44-38.23 3.7-30.64 3.7-21.6c0 13.75 8.8 22.87 22.8 22.87zm0 0"/></symbol><symbol overflow="visible" id="d4aaf7f4c"><path d="M23.13 1.05c1.92 0 3.75-.18 4.95-.49a99.44 99.44 0 009.84-5.69c.31 2.18.64 4.18.8 5.13h6.48c-.4-4.48-.64-13.05-.64-21.52v-3.12c0-8.31.24-16.95.64-21.44h-8.4c.4 4.49.64 13.03.64 21.52v14.64C32.88-6.72 28.72-5.2 24.4-5.2 17.28-5.2 14-8.72 14-16.56v-8.08c0-8.31.23-16.95.64-21.44h-8.4c.4 4.49.71 13.03.71 21.52v3.12c0 3.2-.23 5.52-.23 9.03C6.72-4 12.8 1.05 23.12 1.05zm0 0"/></symbol><symbol overflow="visible" id="d4aaf7f4d"><path d="M6.88 0h8.4c-.33-3.6-.56-9.77-.72-16.4 2.88.24 5.28.4 7.13.4 6.15 6.64 11.6 12.88 14 16.16L43.77 0c.07-.23.07-2.88 0-3.2-3.2-2.96-8.97-8.64-14.9-14.96 1.44-.56 2.9-1.2 4.18-2 4.87-2.96 7.36-7.2 7.36-12.56 0-8.56-6.49-14.23-16.25-14.23-.72 0-12.32.87-16.96.87h-.33c.41 4.49.72 13.03.72 21.52v3.12c0 8.32-.3 16.96-.71 21.44zm7.68-24.64c0-6 .16-11.77.4-16.16a82.7 82.7 0 016.88-.33c6.8 0 10.8 3.61 10.8 9.7 0 6.07-4.08 9.66-11.05 9.66-1.59 0-4.3-.07-7.03-.3zm0 0"/></symbol><symbol overflow="visible" id="d4aaf7f4e"><path d="M6.88 0h11.6c5.2 0 12.96.08 19.44.16l.88-6.57c-.16-.07-2.32-.23-2.57-.23-2.64.56-8.8.87-14.39.87-2.32 0-4.71-.07-6.89-.15-.23-4.24-.3-9.52-.3-14.88 6.79.08 12.7.32 15.5.57l.73-6.82c-2.65.25-8.88.49-16.24.57 0-4.88.16-9.75.31-13.68 1.85-.07 3.77-.15 5.61-.15 5.03 0 10.49.39 13.13.87.23.08 2.31-.08 2.54-.25l.9-6.62c-3.29.08-10.65.23-16.97.23-4.47 0-8.24-.08-13.29-.15.41 4.64.72 13.18.72 21.67v3.12c0 8.32-.3 16.96-.71 21.44zm0 0"/></symbol><symbol overflow="visible" id="d4aaf7f4f"><path d="M6.88 0h7.6a281.2 281.2 0 01-.71-21.52v-15.43C27.69-15.12 35.52-2.65 36.72 0h9.6c-.4-4.48-.73-13.05-.73-21.52v-3.12c0-8.31.33-16.95.72-21.44h-7.6c.41 4.49.65 13.03.65 21.52v15.68C26.3-29.52 18.3-42.3 16.56-46.08H6.88c.4 4.49.71 13.03.71 21.52v3.12c0 8.32-.3 16.96-.71 21.44zm0 0"/></symbol><symbol overflow="visible" id="d4aaf7f4g"><path d="M18.08 0h8.4c-.32-3.52-.56-9.6-.64-15.84 6.4-10.88 13.44-22.32 16.8-27.04.08-.24.08-2.96 0-3.2H34.8c-1.03 2.8-5.67 12.49-11.85 24.56-6.54-12.07-11.43-21.76-12.54-24.56H2.23a21.9 21.9 0 000 3.2c3.2 4.65 9.93 15.76 16.49 27.04C18.64-9.6 18.4-3.52 18.08 0zm0 0"/></symbol><symbol overflow="visible" id="d4aaf7f4h"><path d="M19.36 12l3.84-3.28c-7.51-7.6-12.56-20.49-12.56-32.49 0-11.67 4.64-23.1 12.56-31.1l-3.68-3.2C9.59-49.7 3.77-36.58 3.77-22.73 3.77-9.05 9.59 3.92 19.36 12zm0 0"/></symbol><symbol overflow="visible" id="d4aaf7f4i"><path d="M17.44 1.28c.87 0 6.33-1.69 10.56-4.4 4.95-3.11 7.52-7.52 7.52-12.96 0-8.33-6.24-13.36-16.72-13.36-.57 0-3.85.88-7.2 2 .17-4.33.4-9.04.63-13.04 7.93 0 13.85.17 20.41.56l.88-6.31c-.32-.08-2.32-.25-2.57-.25-2.39.4-6.54.56-13.82.56-4.33 0-8 0-11.54-.24.18 5.28.25 13.68.18 21.03.3 1.13 1.1 2.57 1.82 3.54 3.61-1.29 6.64-1.93 9.61-1.93 6.72 0 10.72 3.29 10.72 9.04C27.92-8.8 24-4.95 18-4.95c-3.44 0-7.6-1.28-12-3.7L3.36-1.76c3.92 2 8.8 3.05 14.08 3.05zm0 0"/></symbol><symbol overflow="visible" id="d4aaf7f4j"><path d="M4.31 0h9.77c9.6 0 17.2.16 19.84.16l.88-6.4a9.41 9.41 0 00-2.64-.24c-2.88.64-9.93.96-18.08.96h-1.85c15.2-12 21.36-20.4 21.36-29.28 0-7.92-4.95-12.48-13.67-12.48-5.05 0-11.05 1.6-15.84 4.16l2.48 6.4c4.96-3.28 8.4-4.56 11.75-4.56 4.97 0 7.69 2.8 7.69 7.69 0 7.82-6.72 16.15-23.36 28.72A18.4 18.4 0 004.31 0zm0 0"/></symbol><symbol overflow="visible" id="d4aaf7f4k"><path d="M2.72-15.6c2 0 4.15-.09 6.33-.09C11.12-5.2 18.72 1.28 29.28 1.28c5.28 0 10-1.51 15.44-4.64L42.8-8.3a24.37 24.37 0 01-11.75 3.19c-7.13 0-12.1-3.75-14.1-10.57 7.2-.08 14.57 0 20.9.1l.3-4.49c-6.71.08-14.46.08-22 .08a44 44 0 01-.15-3.28c0-.88 0-1.67.08-2.49 7.69-.07 15.6 0 22.4.08l.32-4.47c-6.72.08-14.57.08-22.08.08C18.4-37.2 22.88-41.2 29.44-41.2c.64 0 1.2 0 1.76.08l8.4 3.6c.24.08 1.52.08 1.84 0l2.25-6.32a31.3 31.3 0 00-13.38-3.44c-.72 0-7.67 2-12.23 5.05-4 2.64-6.88 6.95-8.4 12.07h-6l-.32 4.47c1.77 0 3.52-.08 5.36-.08a36.11 36.11 0 00-.24 4.18v1.51H3.05zm0 0"/></symbol><symbol overflow="visible" id="d4aaf7f4l"><path d="M5.52 12c9.92-8.4 15.76-21.52 15.76-35.36 0-13.69-5.84-26.64-15.6-34.72L1.85-54.8C9.36-47.2 14.41-34.3 14.41-22.3c0 11.67-4.64 23.1-12.57 31.1zm0 0"/></symbol><symbol overflow="visible" id="d4aaf7f4m"><path d="M8.16-14l5.6-.31c.55-14.9 1.29-27.53 1.76-31.77H6.4C6.8-41.92 7.5-29.13 8.16-14zM10.8 1.28c3.04 0 5.04-2 5.04-4.97 0-2.62-1.92-4.47-4.71-4.47-3.05 0-5.05 1.93-5.05 4.88C6.08-.56 8 1.28 10.8 1.28zm0 0"/></symbol><symbol overflow="visible" id="d4aaf7f4n"><path d="M3.83 0v-5.95H6.2v-.82H.45v.82h2.4V0zm0 0"/></symbol><symbol overflow="visible" id="d4aaf7f4o"><path d="M5.75-2.23v-.43c0-1.6-.9-2.51-2.42-2.51S.87-4.16.87-2.48c0 1.71.91 2.62 2.5 2.62 1.43 0 2.07-.56 2.29-1.52l-.9-.09c-.18.61-.59.9-1.35.9-.94 0-1.52-.54-1.58-1.66zm-2.4-2.2c.93 0 1.43.5 1.48 1.55H1.84c.08-1.07.6-1.56 1.5-1.56zm0 0"/></symbol><symbol overflow="visible" id="d4aaf7f4p"><path d="M1.83 0l1.42-2h.06l1.46 2H5.8L4-2.53l1.78-2.49H4.8L3.42-3.08h-.08l-1.4-1.94H.89l1.78 2.49L.84 0zm0 0"/></symbol><symbol overflow="visible" id="d4aaf7f4q"><path d="M5.52-4.25v-.77H3.17v-1.56h-.81l-.14 1.56H.75v.77h1.47v2.4c0 1.3.48 1.94 1.84 1.94C4.6.1 5.14 0 5.55-.14L5.4-.91c-.32.13-.72.2-1.13.2-.8 0-1.1-.37-1.1-1.23v-2.31zm0 0"/></symbol><symbol overflow="visible" id="d4aaf7f4r"><path d="M3.33-3.42c.47 0 .8-.27.8-.8 0-.51-.33-.8-.8-.8-.47 0-.8.29-.8.8 0 .53.33.8.8.8zm0 3.5c.47 0 .8-.27.8-.78 0-.53-.33-.82-.8-.82-.47 0-.8.29-.8.82 0 .51.33.78.8.78zm0 0"/></symbol><symbol overflow="visible" id="d4aaf7f4t"><path d="M5.42-3.63c-.15-.43-.51-.75-1.19-.75-.98 0-1.54.66-1.54 1.83 0 1.13.6 1.85 1.72 1.85 1.07 0 1.75-.61 1.75-1.93v-.65c0-2.06-.72-3.13-2.66-3.13C1.47-6.4.64-5.08.64-3.14v.94c0 2.06.92 3.26 3.22 3.26.6 0 1.22-.12 1.58-.28L5.3.25C4.94.41 4.42.5 3.86.5 1.96.5 1.3-.44 1.3-2.2v-.94c0-1.53.51-2.69 2.2-2.69 1.56 0 2.05.86 2.05 2.2zm-.98 2.35c-.69 0-1.02-.42-1.02-1.27 0-.86.33-1.23.99-1.23.7 0 1.01.44 1.01 1.22 0 .9-.36 1.28-.98 1.28zm0 0"/></symbol><symbol overflow="visible" id="d4aaf7f4u"><path d="M3.34.14c1.43 0 2.13-.66 2.25-1.78l-.89-.1c-.1.7-.5 1.08-1.34 1.08-1.03 0-1.52-.64-1.52-1.84 0-1.23.47-1.86 1.52-1.86.84 0 1.23.36 1.34 1.08l.9-.1c-.13-1.09-.82-1.78-2.26-1.78-1.56 0-2.46.97-2.46 2.66 0 1.66.9 2.64 2.46 2.64zm0 0"/></symbol><symbol overflow="visible" id="d4aaf7f4v"><path d="M2.73.14c.9 0 1.43-.45 1.74-1.08h.06l.13.94h.8v-5.02h-.94v2.7c0 .98-.57 1.62-1.46 1.62-.75 0-1.1-.4-1.1-1.22v-3.1h-.93v3.32c0 1.17.55 1.84 1.7 1.84zm0 0"/></symbol><symbol overflow="visible" id="d4aaf7f4w"><path d="M5.08-5.16c-.94 0-1.58.43-1.9 1.3h-.09l-.07-1.16H1.05v.77h1.1v3.48H.96V0h3.96v-.77H3.1v-1.46c0-1.36.6-2.05 1.83-2.05.4 0 .76.08 1.1.17l.15-.87c-.33-.11-.7-.18-1.11-.18zm0 0"/></symbol><symbol overflow="visible" id="d4aaf7f4x"><path d="M2.16 0v-2.67c0-.99.59-1.63 1.46-1.63.74 0 1.07.38 1.07 1.22V0h.95v-3.31c0-1.2-.56-1.85-1.67-1.85-.92 0-1.49.46-1.77 1.08h-.06l-.12-.94H1.2V0zm0 0"/></symbol><symbol overflow="visible" id="d4aaf7f4y"><path d="M3.42-.86h-.08L1.77-5.02H.8L2.73 0h.41c-.33.95-.72 1.27-1.45 1.27-.22 0-.49-.04-.69-.08l-.1.73c.2.06.58.11.87.11 1.2 0 1.7-.7 2.21-2.03l1.94-5.02H5zm0 0"/></symbol><symbol overflow="visible" id="d4aaf7f4z"><path d="M1.45-2.95c0 2.56 1.08 4.37 3.67 4.84l.11-.67C3.28.86 2.43-.75 2.43-2.95s.85-3.82 2.8-4.16l-.1-.69c-2.6.49-3.68 2.3-3.68 4.85zm0 0"/></symbol><symbol overflow="visible" id="d4aaf7f4A"><path d="M3.42.14c1.55 0 2.44-.84 2.44-2.33 0-1.45-.83-2.22-2.14-2.22-.75 0-1.28.27-1.67.72H2l.31-2.22h3.11v-.86H1.53l-.45 3.93h.81c.3-.36.9-.79 1.58-.79.92 0 1.44.43 1.44 1.47 0 .99-.54 1.5-1.49 1.5-.83 0-1.28-.32-1.5-1.01l-.95.1C1.07-.46 2 .13 3.42.13zm0 0"/></symbol><symbol overflow="visible" id="d4aaf7f4B"><path d="M5.67 0v-.86H2.14V-.9L3.6-2c1.05-.83 2-1.68 2-2.91 0-1.19-.73-1.99-2.26-1.99-1.66 0-2.3 1.02-2.44 2.33l1 .08c.1-.92.42-1.58 1.44-1.58.87 0 1.26.44 1.26 1.24 0 .9-.8 1.53-1.96 2.53L.83-.81V0zm0 0"/></symbol><symbol overflow="visible" id="d4aaf7f4C"><path d="M3.73.14c1.5 0 2.47-.75 2.68-2.19l-.93-.1c-.21 1.07-.78 1.5-1.75 1.5-1.07 0-1.6-.6-1.8-1.66h2.2v-.66H1.85v-.87h2.26v-.64H1.94c.2-1.05.75-1.63 1.8-1.63.95 0 1.51.42 1.74 1.49l.93-.1C6.2-6.12 5.2-6.9 3.73-6.9c-1.54 0-2.46.88-2.76 2.43H.16v.64h.73c-.02.26-.02.54 0 .87H.16v.66h.8C1.24-.77 2.17.14 3.74.14zm0 0"/></symbol><symbol overflow="visible" id="d4aaf7f4D"><path d="M1.45-7.1c1.96.33 2.8 1.94 2.8 4.15 0 2.2-.84 3.8-2.8 4.17l.11.67c2.58-.47 3.67-2.28 3.67-4.84 0-2.55-1.09-4.36-3.67-4.85zm0 0"/></symbol><symbol overflow="visible" id="d4aaf7f4E"><path d="M3.72-1.77l.1-2.56v-2.81h-.96v2.81l.08 2.56zM3.32.08c.37 0 .6-.2.6-.58 0-.38-.23-.58-.6-.58-.35 0-.57.2-.57.58 0 .38.22.58.58.58zm0 0"/></symbol><symbol overflow="visible" id="d4aaf7f4F"><path d="M5.95-6.77H1.1V0h.99v-2.92H5.3v-.77H2.08v-2.26h3.87zm0 0"/></symbol><symbol overflow="visible" id="d4aaf7f4G"><path d="M2.83.14c.94 0 1.5-.39 1.81-.95h.08l.1.81h.76v-3.38c0-1.23-.69-1.8-2.13-1.8-1.43 0-2.03.65-2.18 1.6l.93.1c.11-.6.44-.93 1.22-.93.85 0 1.22.32 1.22 1.04v.34l-1.81.2C1.6-2.7 1.1-2.17 1.1-1.28c0 .92.64 1.42 1.72 1.42zm.25-.77c-.67 0-1.02-.28-1.02-.74 0-.44.28-.72 1-.82l1.58-.19v.41c0 .8-.6 1.34-1.56 1.34zm0 0"/></symbol><symbol overflow="visible" id="d4aaf7f4H"><path d="M3.42.14c1.61 0 2.56-.75 2.56-2 0-1.1-.67-1.6-1.95-1.86l-.97-.2c-.87-.17-1.23-.49-1.23-1.11 0-.7.54-1.11 1.5-1.11 1.06 0 1.51.34 1.69 1.23l.9-.09c-.17-1.28-.98-1.9-2.6-1.9C1.79-6.9.9-6.18.9-4.98c0 1.06.66 1.66 1.88 1.9l1.01.2c.85.17 1.25.4 1.25 1.09 0 .73-.6 1.16-1.6 1.16-1.07 0-1.66-.4-1.8-1.24l-.94.1C.83-.53 1.75.13 3.42.13zm0 0"/></symbol><symbol overflow="visible" id="d4aaf7f4I"><path d="M1.63 0v-2.9c0-.8.15-1.4.71-1.4.41 0 .55.3.55.88V0h.95v-2.9c0-.8.18-1.4.72-1.4.4 0 .57.3.57.88V0h.95v-3.63c0-.92-.28-1.53-1.11-1.53-.63 0-.95.41-1.1.9h-.06c-.1-.52-.44-.9-1.08-.9-.6 0-.93.41-1.06.9H1.6l-.23-.76H.67V0zm0 0"/></symbol><symbol overflow="visible" id="d4aaf7f4J"><path d="M3.92-7.14H1.36v.76h1.6v5.61H1.15V0H5.7v-.77H3.92zm0 0"/></symbol><symbol overflow="visible" id="d4aaf7f4K"><path d="M2.06 1.9V-.84h.05c.28.58.8.97 1.77.97 1.5 0 2.2-.98 2.2-2.66 0-1.65-.7-2.64-2.19-2.64-.97 0-1.5.44-1.78 1.05h-.08l-.1-.9H1.1v6.9zm1.5-2.56c-1.06 0-1.53-.8-1.53-1.86 0-1.04.47-1.84 1.53-1.84 1.11 0 1.53.61 1.53 1.84 0 1.27-.42 1.86-1.53 1.86zm0 0"/></symbol><symbol overflow="visible" id="d4aaf7f4L"><path d="M3.58-5.81c.42 0 .72-.22.72-.67 0-.44-.3-.68-.72-.68-.44 0-.72.24-.72.68 0 .45.28.67.72.67zm.5.8H1.52v.76h1.6v3.48h-1.8V0h4.46v-.77h-1.7zm0 0"/></symbol><symbol overflow="visible" id="d4aaf7f4M"><path d="M3.36.16c1.4 0 2.2-.6 2.2-1.57 0-.89-.54-1.22-1.47-1.39L3-3c-.67-.14-.86-.33-.86-.73 0-.5.4-.74 1.17-.74.83 0 1.19.27 1.27.8l.9-.05c-.12-1-.8-1.47-2.17-1.47-1.34 0-2.1.53-2.1 1.5 0 .81.45 1.22 1.52 1.44l1.04.2c.56.11.87.24.87.72 0 .52-.45.78-1.28.78-.95 0-1.36-.28-1.42-.87l-.9.06C1.07-.36 1.8.16 3.35.16zm0 0"/></symbol><symbol overflow="visible" id="d4aaf7f4N"><path d="M5.4-1.22c.43-.66.66-1.51.66-2.44l-.83-.09c0 .75-.14 1.4-.4 1.92l-1.7-1.83c.8-.42 1.39-.96 1.39-1.86 0-.87-.66-1.4-1.61-1.4-1.14 0-1.72.62-1.72 1.47 0 .72.47 1.3.83 1.68-.8.41-1.52.99-1.52 2.1C.5-.44 1.52.14 2.7.14c.9 0 1.64-.3 2.2-.78l.58.64h1.05zM2.86-6.25c.44 0 .82.23.82.73 0 .7-.47 1.11-1 1.41-.47-.53-.67-.92-.67-1.34 0-.47.3-.8.85-.8zM2.81-.62c-.83 0-1.42-.41-1.42-1.18 0-.76.5-1.18 1.05-1.5l1.94 2.1c-.4.37-.91.57-1.57.57zm0 0"/></symbol></defs><g fill="#fff"><use xlink:href="#d4aaf7f4a" x="80.4" y="126"/><use xlink:href="#d4aaf7f4b" x="148.48" y="126"/><use xlink:href="#d4aaf7f4c" x="193.28" y="126"/><use xlink:href="#d4aaf7f4d" x="245.44" y="126"/><use xlink:href="#d4aaf7f4d" x="291.6" y="126"/><use xlink:href="#d4aaf7f4e" x="337.76" y="126"/><use xlink:href="#d4aaf7f4f" x="379.28" y="126"/><use xlink:href="#d4aaf7f4b" x="432.4" y="126"/><use xlink:href="#d4aaf7f4g" x="477.2" y="126"/><use xlink:href="#d4aaf7f4h" x="201.56" y="206"/><use xlink:href="#d4aaf7f4i" x="226.6" y="206"/><use xlink:href="#d4aaf7f4j" x="265.4" y="206"/><use xlink:href="#d4aaf7f4k" x="303.8" y="206"/><use xlink:href="#d4aaf7f4l" x="351.48" y="206"/><use xlink:href="#d4aaf7f4m" x="376.52" y="206"/><use xlink:href="#d4aaf7f4n" x="226.6667" y="252"/><use xlink:href="#d4aaf7f4o" x="233.3337" y="252"/><use xlink:href="#d4aaf7f4p" x="240.0007" y="252"/><use xlink:href="#d4aaf7f4q" x="246.6677" y="252"/><use xlink:href="#d4aaf7f4r" x="253.3347" y="252"/><use xlink:href="#d4aaf7f4s" x="260.0017" y="252"/><use xlink:href="#d4aaf7f4t" x="266.6687" y="252"/><use xlink:href="#d4aaf7f4u" x="273.3357" y="252"/><use xlink:href="#d4aaf7f4v" x="280.0027" y="252"/><use xlink:href="#d4aaf7f4w" x="286.6697" y="252"/><use xlink:href="#d4aaf7f4w" x="293.3367" y="252"/><use xlink:href="#d4aaf7f4o" x="300.0037" y="252"/><use xlink:href="#d4aaf7f4x" x="306.6707" y="252"/><use xlink:href="#d4aaf7f4u" x="313.3377" y="252"/><use xlink:href="#d4aaf7f4y" x="320.0047" y="252"/><use xlink:href="#d4aaf7f4s" x="326.6717" y="252"/><use xlink:href="#d4aaf7f4z" x="333.3387" y="252"/><use xlink:href="#d4aaf7f4A" x="340.0057" y="252"/><use xlink:href="#d4aaf7f4B" x="346.6727" y="252"/><use xlink:href="#d4aaf7f4C" x="353.3397" y="252"/><use xlink:href="#d4aaf7f4D" x="360.0067" y="252"/><use xlink:href="#d4aaf7f4E" x="366.6737" y="252"/><g><use xlink:href="#d4aaf7f4F" x="176.6667" y="266"/><use xlink:href="#d4aaf7f4o" x="183.3337" y="266"/><use xlink:href="#d4aaf7f4G" x="190.0007" y="266"/><use xlink:href="#d4aaf7f4q" x="196.6677" y="266"/><use xlink:href="#d4aaf7f4v" x="203.3347" y="266"/><use xlink:href="#d4aaf7f4w" x="210.0017" y="266"/><use xlink:href="#d4aaf7f4o" x="216.6687" y="266"/><use xlink:href="#d4aaf7f4r" x="223.3357" y="266"/><use xlink:href="#d4aaf7f4s" x="230.0027" y="266"/><use xlink:href="#d4aaf7f4H" x="236.6697" y="266"/><use xlink:href="#d4aaf7f4I" x="243.3367" y="266"/><use xlink:href="#d4aaf7f4G" x="250.0037" y="266"/><use xlink:href="#d4aaf7f4J" x="256.6707" y="266"/><use xlink:href="#d4aaf7f4J" x="263.3377" y="266"/><use xlink:href="#d4aaf7f4s" x="270.0047" y="266"/><use xlink:href="#d4aaf7f4u" x="276.6717" y="266"/><use xlink:href="#d4aaf7f4G" x="283.3387" y="266"/><use xlink:href="#d4aaf7f4K" x="290.0057" y="266"/><use xlink:href="#d4aaf7f4L" x="296.6727" y="266"/><use xlink:href="#d4aaf7f4q" x="303.3397" y="266"/><use xlink:href="#d4aaf7f4G" x="310.0067" y="266"/><use xlink:href="#d4aaf7f4J" x="316.6737" y="266"/><use xlink:href="#d4aaf7f4M" x="323.3407" y="266"/><use xlink:href="#d4aaf7f4s" x="330.0077" y="266"/><use xlink:href="#d4aaf7f4z" x="336.6747" y="266"/><use xlink:href="#d4aaf7f4M" x="343.3417" y="266"/><use xlink:href="#d4aaf7f4I" x="350.0087" y="266"/><use xlink:href="#d4aaf7f4u" x="356.6757" y="266"/><use xlink:href="#d4aaf7f4K" x="363.3427" y="266"/><use xlink:href="#d4aaf7f4s" x="370.0097" y="266"/><use xlink:href="#d4aaf7f4N" x="376.6767" y="266"/><use xlink:href="#d4aaf7f4s" x="383.3437" y="266"/><use xlink:href="#d4aaf7f4u" x="390.0107" y="266"/><use xlink:href="#d4aaf7f4B" x="396.6777" y="266"/><use xlink:href="#d4aaf7f4M" x="403.3447" y="266"/><use xlink:href="#d4aaf7f4u" x="410.0117" y="266"/><use xlink:href="#d4aaf7f4D" x="416.6787" y="266"/></g></g></svg>