<?xml version='1.0' encoding='UTF-8'?>
<svg xmlns="http://www.w3.org/2000/svg" xmlns:xlink="http://www.w3.org/1999/xlink" width="600px" height="300px" viewBox="0 0 600 300" x="0px" y="0px" enable-background="new 0 0 600 300"><defs><symbol overflow="visible" id="1a80a46ba"><path d="M4.56 0h10.4C25.27 0 33.58.16 36.4.23l.87-6.8a9.79 9.79 0 00-2.64-.23c-3.05.64-10.87 1.11-19.77 1.11h-2.56c16.81-14.23 23.61-24.15 23.61-34.54 0-9.05-5.2-14.25-14.48-14.25-5.36 0-11.85 1.76-17.03 4.8l2.64 6.73c5.36-3.85 9.18-5.36 12.87-5.36 5.52 0 8.49 3.36 8.49 9.26 0 9.28-7.29 19.05-25.54 34.1.25 1.6.97 3.6 1.7 4.95zm0 0"/></symbol><symbol overflow="visible" id="1a80a46bb"><path d="M18.72 1.44c.97 0 6.8-2 11.2-4.96 5.28-3.6 8-8.71 8-14.96 0-9.6-6.64-15.29-17.84-15.29-.64 0-4.4.97-8.08 2.25.16-5.2.4-10.96.72-15.76 8.48 0 14.8.16 22.23.64l.82-6.64a9.56 9.56 0 00-2.57-.24c-2.56.4-6.97.57-14.8.57-4.56 0-8.48 0-12.4-.25.23 5.92.31 15.51.23 24.08a16.64 16.64 0 001.85 3.76c3.92-1.52 7.2-2.33 10.4-2.33 7.52 0 12 4.1 12 11.05 0 6.95-4.4 11.6-11.04 11.6-3.75 0-8.32-1.44-13.03-4.32L3.59-2C7.77.31 13.05 1.44 18.72 1.44zm0 0"/></symbol><symbol overflow="visible" id="1a80a46bd"><path d="M23.44 1.77a1253.18 1253.18 0 0137.04-53.93l-4.89-3.43A1248.18 1248.18 0 0118.56-1.7zM13.2-22.48c.72 0 5.03-1.04 8.32-2.96 3.43-2 5.12-4.87 5.12-8.08 0-3.6-2.16-6-6.33-7.04 3.05-1.75 4.74-4.16 4.74-6.96 0-4.4-3.77-7.04-9.93-7.04-3.76 0-7.84.87-11.12 2.33l2 4.95c2.88-1.67 5.28-2.49 7.52-2.49 3.12 0 4.96 1.36 4.96 3.7 0 3.02-3.04 4.95-7.76 4.95h-.64l.33 4.32c1.03-.25 2.23-.4 3.28-.4 4 0 6.39 1.76 6.39 4.72 0 3.04-2.56 4.96-6.4 4.96-2.55 0-5.45-.89-8.32-2.56L3.28-24.8c2.56 1.44 6.08 2.32 9.92 2.32zm36 15.92c2.72-.08 7.11-.16 13.2-.16h1.44C63.77-4 63.6-1.59 63.44 0h6.72c-.16-1.6-.24-3.92-.32-6.64 1.52 0 3.03.08 4.4.08l.56-4.49c-1.44.1-3.2.1-5.03.1v-5.28c0-5.54.15-11.2.39-14.08a42.05 42.05 0 00-6.57-.17c-6.8 8-13.36 15.76-16.47 19.43.4 1.53 1.2 3.2 2.08 4.49zm14.72-7.6v3.29H53.36A287.9 287.9 0 0164-24.48zm0 0"/></symbol><symbol overflow="visible" id="1a80a46be"><path d="M8.88-23.36h6.89a156.9 156.9 0 01-.49-14.16v-2.17c0-5.44.16-10.87.49-13.83a8.86 8.86 0 00-1.93-1.04A174.49 174.49 0 011.7-49.7l1.1 3.53 6.57-1.36v10c0 5.44-.16 11.2-.48 14.16zm0 0"/></symbol><symbol overflow="visible" id="1a80a46bf"><path d="M4.16-23.36h7.28c6.64 0 12 .08 13.92.16l.64-5.03c-.23-.08-1.92-.25-2.23-.18-2 .41-6.72.64-12.33.64h-.64c10.25-7.51 14.4-12.8 14.4-18.39 0-5.36-3.68-8.4-10.07-8.4-3.61 0-7.85.97-11.44 2.64l2 4.97c3.36-2 5.67-2.82 7.9-2.82 3.29 0 5.05 1.7 5.05 4.57 0 4.89-4.64 10.25-15.92 17.92.23 1.12.8 2.72 1.44 3.92zm0 0"/></symbol><symbol overflow="visible" id="1a80a46bg"><path d="M-8.48 1.77a1253.18 1253.18 0 0137.04-53.93l-4.87-3.43A1262 1262 0 01-13.36-1.7zm0 0"/></symbol><symbol overflow="visible" id="1a80a46bh"><path d="M6.56 0h7.03c.64-8.48 5.36-19.05 11.85-26.48a15.71 15.71 0 00-1.52-4c-.72.07-4.64.07-8.8.07-6.07 0-10.4-.07-12.71-.15l-.25 5.04c.25.08 1.92.24 2.25.24 2-.49 6.46-.72 13.82-.72h.49c-6 7.36-10.64 17.2-12.16 26zm0 0"/></symbol><symbol overflow="visible" id="1a80a46bi"><path d="M12.56.72c.49 0 4.96-.88 8.24-2.8 4.97-2.8 7.51-7.76 7.51-14.56 0-9.28-4.72-14.72-12.72-14.72-.39 0-4.87.88-8 2.88-3.1 2-4.71 4.8-4.71 8.32 0 5.6 4.4 9.36 10.8 9.36a8.9 8.9 0 002.88-.32c1.52-.65 3.6-1.76 5.36-2.8-.4 6.48-3.36 9.69-8.87 9.69-1.93 0-4.1-.49-5.93-1.36l-2 5.03C7.29.24 10 .72 12.57.72zM9.12-21.12c0-3.36 2.24-5.52 5.68-5.52 4.25 0 6.8 3.36 7.12 9.36-2.15 1.44-4.08 2.16-6.23 2.16-3.92 0-6.56-2.32-6.56-6zm0 0"/></symbol><symbol overflow="visible" id="1a80a46bj"><path d="M13.2-22.48c.57 0 4.72-1.04 7.93-2.96 3.51-2.08 5.35-5.04 5.35-8.56 0-5.6-4.56-8.95-12.17-8.95-.39 0-2.39.54-4.47 1.26.08-2.47.24-5.19.4-7.6 5.45 0 10 .09 14.07.34l.64-4.97a9.6 9.6 0 00-2.15-.16c-1.68.24-4.8.4-10.08.4-3.13 0-5.77-.09-8.08-.16.16 3.6.24 9.28.16 14.15.33.9.89 2 1.51 2.74 2.4-.82 4.57-1.28 6.57-1.28 4.4 0 6.96 1.92 6.96 5.28 0 3.26-2.56 5.43-6.4 5.43-2.4 0-5.28-.8-8.31-2.32l-2.08 5.28c2.8 1.28 6.39 2.08 10.15 2.08zm0 0"/></symbol><symbol overflow="visible" id="1a80a46bk"><path d="M3.83 0v-5.95H6.2v-.82H.45v.82h2.4V0zm0 0"/></symbol><symbol overflow="visible" id="1a80a46bl"><path d="M5.75-2.23v-.43c0-1.6-.9-2.51-2.42-2.51S.87-4.16.87-2.48c0 1.71.91 2.62 2.5 2.62 1.43 0 2.07-.56 2.29-1.52l-.9-.09c-.18.61-.59.9-1.35.9-.94 0-1.52-.54-1.58-1.66zm-2.4-2.2c.93 0 1.43.5 1.48 1.55H1.84c.08-1.07.6-1.56 1.5-1.56zm0 0"/></symbol><symbol overflow="visible" id="1a80a46bm"><path d="M1.83 0l1.42-2h.06l1.46 2H5.8L4-2.53l1.78-2.49H4.8L3.42-3.08h-.08l-1.4-1.94H.89l1.78 2.49L.84 0zm0 0"/></symbol><symbol overflow="visible" id="1a80a46bn"><path d="M5.52-4.25v-.77H3.17v-1.56h-.81l-.14 1.56H.75v.77h1.47v2.4c0 1.3.48 1.94 1.84 1.94C4.6.1 5.14 0 5.55-.14L5.4-.91c-.32.13-.72.2-1.13.2-.8 0-1.1-.37-1.1-1.23v-2.31zm0 0"/></symbol><symbol overflow="visible" id="1a80a46bo"><path d="M3.33-3.42c.47 0 .8-.27.8-.8 0-.51-.33-.8-.8-.8-.47 0-.8.29-.8.8 0 .53.33.8.8.8zm0 3.5c.47 0 .8-.27.8-.78 0-.53-.33-.82-.8-.82-.47 0-.8.29-.8.82 0 .51.33.78.8.78zm0 0"/></symbol><symbol overflow="visible" id="1a80a46bq"><path d="M5.67 0v-.86H2.14V-.9L3.6-2c1.05-.83 2-1.68 2-2.91 0-1.19-.73-1.99-2.26-1.99-1.66 0-2.3 1.02-2.44 2.33l1 .08c.1-.92.42-1.58 1.44-1.58.87 0 1.26.44 1.26 1.24 0 .9-.8 1.53-1.96 2.53L.83-.81V0zm0 0"/></symbol><symbol overflow="visible" id="1a80a46br"><path d="M3.42.14c1.55 0 2.44-.84 2.44-2.33 0-1.45-.83-2.22-2.14-2.22-.75 0-1.28.27-1.67.72H2l.31-2.22h3.11v-.86H1.53l-.45 3.93h.81c.3-.36.9-.79 1.58-.79.92 0 1.44.43 1.44 1.47 0 .99-.54 1.5-1.49 1.5-.83 0-1.28-.32-1.5-1.01l-.95.1C1.07-.46 2 .13 3.42.13zm0 0"/></symbol><symbol overflow="visible" id="1a80a46bs"><path d="M3.25.14c1.58 0 2.53-.69 2.53-1.95 0-1.19-.92-1.56-1.6-1.61v-.05A1.6 1.6 0 005.6-5.12c0-1.13-.87-1.79-2.3-1.79-1.62 0-2.32.82-2.45 1.88l.97.06c.13-.69.52-1.1 1.47-1.1.86 0 1.35.32 1.35 1.05 0 .86-.6 1.2-1.66 1.2h-.49v.79h.54c1.12 0 1.78.25 1.78 1.14 0 .78-.46 1.22-1.55 1.22-1.06 0-1.48-.4-1.63-1.1l-.98.07C.75-.56 1.56.14 3.25.14zm0 0"/></symbol><symbol overflow="visible" id="1a80a46bt"><path d="M2.58.95l2.39-8.67h-.9L1.7.95zm0 0"/></symbol><symbol overflow="visible" id="1a80a46bu"><path d="M5.1 0v-1.47H6v-.81h-.9v-4.49H3.8L.48-2.23v.76h3.66V0zM1.5-2.33l2.6-3.53h.04v3.58H1.5zm0 0"/></symbol><symbol overflow="visible" id="1a80a46bv"><path d="M4.22-6.77h-.86l-2.03.7v.87c.64-.17 1.26-.38 1.89-.55v4.9H1.03V0h4.9v-.86H4.21zm0 0"/></symbol><symbol overflow="visible" id="1a80a46bw"><path d="M.92-4.42h.88v-1.49h3.1v.05L2.27 0H3.3l2.64-6v-.77H.92zm0 0"/></symbol><symbol overflow="visible" id="1a80a46bx"><path d="M3.25-6.9C1.67-6.9.77-6.04.77-4.6c0 1.41.85 2.18 2.21 2.18 1.04 0 1.58-.52 1.88-1.03h.06c0 1.54-.39 2.78-1.73 2.78-.9 0-1.24-.44-1.36-.97l-.97.1c.22.96.86 1.68 2.33 1.68C4.83.14 5.8-.9 5.8-3.64c0-2.22-.92-3.27-2.56-3.27zm-.02.8c.91 0 1.46.52 1.46 1.44 0 .91-.69 1.47-1.53 1.47-.91 0-1.46-.51-1.46-1.47S2.3-6.1 3.23-6.1zm0 0"/></symbol><symbol overflow="visible" id="1a80a46by"><path d="M5.95-6.77H1.1V0h.99v-2.92H5.3v-.77H2.08v-2.26h3.87zm0 0"/></symbol><symbol overflow="visible" id="1a80a46bz"><path d="M2.83.14c.94 0 1.5-.39 1.81-.95h.08l.1.81h.76v-3.38c0-1.23-.69-1.8-2.13-1.8-1.43 0-2.03.65-2.18 1.6l.93.1c.11-.6.44-.93 1.22-.93.85 0 1.22.32 1.22 1.04v.34l-1.81.2C1.6-2.7 1.1-2.17 1.1-1.28c0 .92.64 1.42 1.72 1.42zm.25-.77c-.67 0-1.02-.28-1.02-.74 0-.44.28-.72 1-.82l1.58-.19v.41c0 .8-.6 1.34-1.56 1.34zm0 0"/></symbol><symbol overflow="visible" id="1a80a46bA"><path d="M2.73.14c.9 0 1.43-.45 1.74-1.08h.06l.13.94h.8v-5.02h-.94v2.7c0 .98-.57 1.62-1.46 1.62-.75 0-1.1-.4-1.1-1.22v-3.1h-.93v3.32c0 1.17.55 1.84 1.7 1.84zm0 0"/></symbol><symbol overflow="visible" id="1a80a46bB"><path d="M5.08-5.16c-.94 0-1.58.43-1.9 1.3h-.09l-.07-1.16H1.05v.77h1.1v3.48H.96V0h3.96v-.77H3.1v-1.46c0-1.36.6-2.05 1.83-2.05.4 0 .76.08 1.1.17l.15-.87c-.33-.11-.7-.18-1.11-.18zm0 0"/></symbol><symbol overflow="visible" id="1a80a46bC"><path d="M3.34.14c1.43 0 2.13-.66 2.25-1.78l-.89-.1c-.1.7-.5 1.08-1.34 1.08-1.03 0-1.52-.64-1.52-1.84 0-1.23.47-1.86 1.52-1.86.84 0 1.23.36 1.34 1.08l.9-.1c-.13-1.09-.82-1.78-2.26-1.78-1.56 0-2.46.97-2.46 2.66 0 1.66.9 2.64 2.46 2.64zm0 0"/></symbol><symbol overflow="visible" id="1a80a46bD"><path d="M3.58-5.81c.42 0 .72-.22.72-.67 0-.44-.3-.68-.72-.68-.44 0-.72.24-.72.68 0 .45.28.67.72.67zm.5.8H1.52v.76h1.6v3.48h-1.8V0h4.46v-.77h-1.7zm0 0"/></symbol><symbol overflow="visible" id="1a80a46bE"><path d="M3.33.14c1.62 0 2.5-.95 2.5-2.66 0-1.68-.88-2.64-2.5-2.64-1.63 0-2.5.96-2.5 2.64 0 1.7.87 2.66 2.5 2.66zm0-.77c-1.06 0-1.52-.6-1.52-1.89 0-1.28.46-1.87 1.52-1.87 1.08 0 1.53.6 1.53 1.87 0 1.29-.45 1.9-1.53 1.9zm0 0"/></symbol><symbol overflow="visible" id="1a80a46bF"><path d="M2.16 0v-2.67c0-.99.59-1.63 1.46-1.63.74 0 1.07.38 1.07 1.22V0h.95v-3.31c0-1.2-.56-1.85-1.67-1.85-.92 0-1.49.46-1.77 1.08h-.06l-.12-.94H1.2V0zm0 0"/></symbol><symbol overflow="visible" id="1a80a46bG"><path d="M3.36.16c1.4 0 2.2-.6 2.2-1.57 0-.89-.54-1.22-1.47-1.39L3-3c-.67-.14-.86-.33-.86-.73 0-.5.4-.74 1.17-.74.83 0 1.19.27 1.27.8l.9-.05c-.12-1-.8-1.47-2.17-1.47-1.34 0-2.1.53-2.1 1.5 0 .81.45 1.22 1.52 1.44l1.04.2c.56.11.87.24.87.72 0 .52-.45.78-1.28.78-.95 0-1.36-.28-1.42-.87l-.9.06C1.07-.36 1.8.16 3.35.16zm0 0"/></symbol><symbol overflow="visible" id="1a80a46bH"><path d="M1.45-2.95c0 2.56 1.08 4.37 3.67 4.84l.11-.67C3.28.86 2.43-.75 2.43-2.95s.85-3.82 2.8-4.16l-.1-.69c-2.6.49-3.68 2.3-3.68 4.85zm0 0"/></symbol><symbol overflow="visible" id="1a80a46bI"><path d="M4.63-6.5c.45 0 .98.08 1.39.2l.2-.72a5.3 5.3 0 00-1.64-.26c-1.52 0-2.16.56-2.16 1.87v.4H.9v.76h1.53V0h.94v-4.25h2.53v-.77H3.36v-.3c0-.84.33-1.18 1.27-1.18zm0 0"/></symbol><symbol overflow="visible" id="1a80a46bJ"><path d="M1.45-7.1c1.96.33 2.8 1.94 2.8 4.15 0 2.2-.84 3.8-2.8 4.17l.11.67c2.58-.47 3.67-2.28 3.67-4.84 0-2.55-1.09-4.36-3.67-4.85zm0 0"/></symbol></defs><g fill="#515151"><use xlink:href="#1a80a46ba" x="88.64" y="166"/><use xlink:href="#1a80a46bb" x="129.76" y="166"/><use xlink:href="#1a80a46bc" x="171.36" y="166"/></g><use xlink:href="#1a80a46bd" x="191.68" y="166" fill="#fff"/><use xlink:href="#1a80a46be" x="289.52" y="166" fill="#fff"/><use xlink:href="#1a80a46bf" x="310.88" y="166" fill="#fff"/><use xlink:href="#1a80a46bg" x="340.32" y="166" fill="#fff"/><use xlink:href="#1a80a46bh" x="355.52" y="166" fill="#fff"/><use xlink:href="#1a80a46bi" x="382.56" y="166" fill="#fff"/><use xlink:href="#1a80a46bj" x="434.72" y="166" fill="#fff"/><use xlink:href="#1a80a46bg" x="464.32" y="166" fill="#fff"/><use xlink:href="#1a80a46bi" x="479.52" y="166" fill="#fff"/><g fill="#fff"><use xlink:href="#1a80a46bk" x="226.6667" y="252"/><use xlink:href="#1a80a46bl" x="233.3337" y="252"/><use xlink:href="#1a80a46bm" x="240.0007" y="252"/><use xlink:href="#1a80a46bn" x="246.6677" y="252"/><use xlink:href="#1a80a46bo" x="253.3347" y="252"/><use xlink:href="#1a80a46bp" x="260.0017" y="252"/><use xlink:href="#1a80a46bq" x="266.6687" y="252"/><use xlink:href="#1a80a46br" x="273.3357" y="252"/><use xlink:href="#1a80a46bp" x="280.0027" y="252"/><use xlink:href="#1a80a46bs" x="286.6697" y="252"/><use xlink:href="#1a80a46bt" x="293.3367" y="252"/><use xlink:href="#1a80a46bu" x="300.0037" y="252"/><use xlink:href="#1a80a46bp" x="306.6707" y="252"/><use xlink:href="#1a80a46bv" x="313.3377" y="252"/><use xlink:href="#1a80a46bq" x="320.0047" y="252"/><use xlink:href="#1a80a46bt" x="326.6717" y="252"/><use xlink:href="#1a80a46bw" x="333.3387" y="252"/><use xlink:href="#1a80a46bx" x="340.0057" y="252"/><use xlink:href="#1a80a46bp" x="346.6727" y="252"/><use xlink:href="#1a80a46br" x="353.3397" y="252"/><use xlink:href="#1a80a46bt" x="360.0067" y="252"/><use xlink:href="#1a80a46bx" x="366.6737" y="252"/></g><g fill="#fff"><use xlink:href="#1a80a46by" x="216.6667" y="266"/><use xlink:href="#1a80a46bl" x="223.3337" y="266"/><use xlink:href="#1a80a46bz" x="230.0007" y="266"/><use xlink:href="#1a80a46bn" x="236.6677" y="266"/><use xlink:href="#1a80a46bA" x="243.3347" y="266"/><use xlink:href="#1a80a46bB" x="250.0017" y="266"/><use xlink:href="#1a80a46bl" x="256.6687" y="266"/><use xlink:href="#1a80a46bo" x="263.3357" y="266"/><use xlink:href="#1a80a46bp" x="270.0027" y="266"/><use xlink:href="#1a80a46by" x="276.6697" y="266"/><use xlink:href="#1a80a46bB" x="283.3367" y="266"/><use xlink:href="#1a80a46bz" x="290.0037" y="266"/><use xlink:href="#1a80a46bC" x="296.6707" y="266"/><use xlink:href="#1a80a46bn" x="303.3377" y="266"/><use xlink:href="#1a80a46bD" x="310.0047" y="266"/><use xlink:href="#1a80a46bE" x="316.6717" y="266"/><use xlink:href="#1a80a46bF" x="323.3387" y="266"/><use xlink:href="#1a80a46bG" x="330.0057" y="266"/><use xlink:href="#1a80a46bp" x="336.6727" y="266"/><use xlink:href="#1a80a46bH" x="343.3397" y="266"/><use xlink:href="#1a80a46bI" x="350.0067" y="266"/><use xlink:href="#1a80a46bB" x="356.6737" y="266"/><use xlink:href="#1a80a46bz" x="363.3407" y="266"/><use xlink:href="#1a80a46bC" x="370.0077" y="266"/><use xlink:href="#1a80a46bJ" x="376.6747" y="266"/></g></svg>