<?xml version='1.0' encoding='UTF-8'?>
<svg xmlns="http://www.w3.org/2000/svg" xmlns:xlink="http://www.w3.org/1999/xlink" width="600px" height="300px" viewBox="0 0 600 300" x="0px" y="0px" enable-background="new 0 0 600 300"><defs><symbol overflow="visible" id="13af3e37a"><path d="M1.13 0H9.2c.49-1.84 2.16-6.8 4.57-14 3.59-.16 8.39-.23 16.8-.23 3.27 0 5.35 0 7.66.15C40.8-6.88 42.48-1.84 43.05 0h8.39c.08-.31.08-2.88 0-3.13C47.28-12 38.8-33.36 30-56.55l-7.2.33C13.92-33.36 5.36-12 1.12-3.13c-.07.25-.07 2.82 0 3.13zm20.46-20.31c-2.3 0-4.07 0-5.67-.1 2.72-7.75 6-17.36 9.85-28 3.92 10.64 7.36 20.18 10.15 27.93-3.28.07-7.69.17-14.33.17zm0 0"/></symbol><symbol overflow="visible" id="13af3e37b"><path d="M9.6-30.48h7.28c-.32-3.29-.47-9.52-.47-15.75v-2.41c0-6 .15-12.08.46-15.44-.23-.15-1.75-.97-2.07-1.12-4 1.92-9.03 3.92-13.2 5.36l1.12 3.76 7.44-1.6v11.52c0 6-.24 12.4-.57 15.68zm0 0"/></symbol><symbol overflow="visible" id="13af3e37c"><path d="M7.52 0c3.28 0 15.04 1.05 18.4 1.05.72 0 8.88-2.17 13.85-5.2 4.8-2.97 7.35-7.37 7.35-12.8 0-7.46-4.71-12.64-12.07-13.85 5.67-2.32 8.72-6.4 8.72-11.84 0-8.88-7.93-14.8-19.85-14.8-.87 0-8.87 1.03-16.33 1.03h-.07c.48 5.46.8 15.93.8 26.33v3.85C8.31-16.08 8-5.52 7.51 0zM22.8-51.13c8.32 0 13.2 3.7 13.2 10 0 5.77-4.08 9.2-10.88 9.2h-9.76c0-6.79.16-13.59.48-18.87 2.47-.15 5.11-.33 6.96-.33zm2.15 24.9c9.05 0 14.4 3.92 14.4 10.54 0 6.49-5.04 10.33-13.58 10.33-2.18 0-6.25-.23-10-.56-.25-5.52-.41-12.8-.41-20.16 2.72-.08 6.4-.15 9.6-.15zm0 0"/></symbol><symbol overflow="visible" id="13af3e37d"><path d="M4.16-30.48h7.92c7.28 0 13.12.07 15.28.17l.72-5.38c-.24-.15-2.08-.23-2.4-.23-2.16.48-7.45.72-13.6.72h-.88c11.36-8.4 15.93-14.4 15.93-20.64 0-5.93-3.93-9.36-10.97-9.36-3.93 0-8.57 1.12-12.47 2.97l2.15 5.35C9.6-59.12 12.16-60 14.64-60c3.67 0 5.6 1.84 5.6 5.2 0 5.44-5.11 11.44-17.6 20.16.23 1.2.8 2.87 1.52 4.16zm0 0"/></symbol><symbol overflow="visible" id="13af3e37e"><path d="M30.31 1.52c6.33 0 12-1.75 18.74-5.52l-2.17-5.6c-5.04 2.72-9.93 4-14.8 4-12.72 0-20.24-8.48-20.24-22.96 0-14.24 7.29-22.64 18.47-22.64.74 0 1.38 0 2 .08l10.81 4.89c.32.07 1.52.07 1.83 0l2.82-7.54C42.8-56.3 36.3-58 31.44-58c-.96 0-10.16 2.4-15.85 6.16C8.23-46.95 3.84-37.52 3.84-26.48c0 16.8 10.16 28 26.47 28zm0 0"/></symbol><symbol overflow="visible" id="13af3e37f"><path d="M13.52-29.52c.71 0 5.43-1.2 8.96-3.28 3.75-2.15 5.68-5.36 5.68-8.89 0-4.08-2.4-6.72-7.04-7.83 3.36-2 5.2-4.64 5.2-7.84 0-4.87-4-7.77-10.8-7.77-4 0-8.47.9-12.08 2.57l2.08 5.28c3.2-1.92 5.92-2.72 8.4-2.72 3.52 0 5.52 1.6 5.52 4.23 0 3.46-3.44 5.61-8.57 5.61h-.8l.34 4.64c1.1-.32 2.54-.4 3.67-.4 4.48 0 7.12 2 7.12 5.36 0 3.44-2.8 5.69-7.2 5.69-2.8 0-6-.97-9.13-2.9l-2.23 5.7c2.88 1.66 6.64 2.55 10.88 2.55zm0 0"/></symbol><symbol overflow="visible" id="13af3e37g"><path d="M3.83 0v-5.95H6.2v-.82H.45v.82h2.4V0zm0 0"/></symbol><symbol overflow="visible" id="13af3e37h"><path d="M5.75-2.23v-.43c0-1.6-.9-2.51-2.42-2.51S.87-4.16.87-2.48c0 1.71.91 2.62 2.5 2.62 1.43 0 2.07-.56 2.29-1.52l-.9-.09c-.18.61-.59.9-1.35.9-.94 0-1.52-.54-1.58-1.66zm-2.4-2.2c.93 0 1.43.5 1.48 1.55H1.84c.08-1.07.6-1.56 1.5-1.56zm0 0"/></symbol><symbol overflow="visible" id="13af3e37i"><path d="M1.83 0l1.42-2h.06l1.46 2H5.8L4-2.53l1.78-2.49H4.8L3.42-3.08h-.08l-1.4-1.94H.89l1.78 2.49L.84 0zm0 0"/></symbol><symbol overflow="visible" id="13af3e37j"><path d="M5.52-4.25v-.77H3.17v-1.56h-.81l-.14 1.56H.75v.77h1.47v2.4c0 1.3.48 1.94 1.84 1.94C4.6.1 5.14 0 5.55-.14L5.4-.91c-.32.13-.72.2-1.13.2-.8 0-1.1-.37-1.1-1.23v-2.31zm0 0"/></symbol><symbol overflow="visible" id="13af3e37k"><path d="M3.33-3.42c.47 0 .8-.27.8-.8 0-.51-.33-.8-.8-.8-.47 0-.8.29-.8.8 0 .53.33.8.8.8zm0 3.5c.47 0 .8-.27.8-.78 0-.53-.33-.82-.8-.82-.47 0-.8.29-.8.82 0 .51.33.78.8.78zm0 0"/></symbol><symbol overflow="visible" id="13af3e37m"><path d="M6.17 0L3.98-6.77h-1.3L.5 0h.97l.44-1.47h2.78L5.16 0zM3.28-5.94h.08l1.1 3.74H2.15zm0 0"/></symbol><symbol overflow="visible" id="13af3e37n"><path d="M4.22-6.77h-.86l-2.03.7v.87c.64-.17 1.26-.38 1.89-.55v4.9H1.03V0h4.9v-.86H4.21zm0 0"/></symbol><symbol overflow="visible" id="13af3e37o"><path d="M4.66-3.45c.76-.14 1.15-.67 1.15-1.57 0-1.07-.64-1.75-2.18-1.75H.92V0h2.71C5.2 0 5.98-.64 5.98-1.77c0-1.03-.56-1.43-1.32-1.59zM3.56-6c.9 0 1.31.4 1.31 1.13 0 .71-.4 1.14-1.3 1.14h-1.7V-6zM1.87-.75v-2.27H3.6c.97 0 1.44.33 1.44 1.13 0 .8-.47 1.14-1.44 1.14zm0 0"/></symbol><symbol overflow="visible" id="13af3e37p"><path d="M5.67 0v-.86H2.14V-.9L3.6-2c1.05-.83 2-1.68 2-2.91 0-1.19-.73-1.99-2.26-1.99-1.66 0-2.3 1.02-2.44 2.33l1 .08c.1-.92.42-1.58 1.44-1.58.87 0 1.26.44 1.26 1.24 0 .9-.8 1.53-1.96 2.53L.83-.81V0zm0 0"/></symbol><symbol overflow="visible" id="13af3e37q"><path d="M3.42.14C5.1.14 5.9-.69 6.11-2.17l-.95-.1C4.96-1.19 4.5-.69 3.44-.69c-1.27 0-1.81-.94-1.81-2.69s.54-2.7 1.8-2.7c1.09 0 1.5.49 1.73 1.58l.93-.1c-.21-1.46-.95-2.3-2.62-2.3C1.53-6.9.62-5.6.62-3.38c0 2.2.91 3.51 2.8 3.51zm0 0"/></symbol><symbol overflow="visible" id="13af3e37r"><path d="M3.25.14c1.58 0 2.53-.69 2.53-1.95 0-1.19-.92-1.56-1.6-1.61v-.05A1.6 1.6 0 005.6-5.12c0-1.13-.87-1.79-2.3-1.79-1.62 0-2.32.82-2.45 1.88l.97.06c.13-.69.52-1.1 1.47-1.1.86 0 1.35.32 1.35 1.05 0 .86-.6 1.2-1.66 1.2h-.49v.79h.54c1.12 0 1.78.25 1.78 1.14 0 .78-.46 1.22-1.55 1.22-1.06 0-1.48-.4-1.63-1.1l-.98.07C.75-.56 1.56.14 3.25.14zm0 0"/></symbol><symbol overflow="visible" id="13af3e37s"><path d="M5.95-6.77H1.1V0h.99v-2.92H5.3v-.77H2.08v-2.26h3.87zm0 0"/></symbol><symbol overflow="visible" id="13af3e37t"><path d="M2.83.14c.94 0 1.5-.39 1.81-.95h.08l.1.81h.76v-3.38c0-1.23-.69-1.8-2.13-1.8-1.43 0-2.03.65-2.18 1.6l.93.1c.11-.6.44-.93 1.22-.93.85 0 1.22.32 1.22 1.04v.34l-1.81.2C1.6-2.7 1.1-2.17 1.1-1.28c0 .92.64 1.42 1.72 1.42zm.25-.77c-.67 0-1.02-.28-1.02-.74 0-.44.28-.72 1-.82l1.58-.19v.41c0 .8-.6 1.34-1.56 1.34zm0 0"/></symbol><symbol overflow="visible" id="13af3e37u"><path d="M2.73.14c.9 0 1.43-.45 1.74-1.08h.06l.13.94h.8v-5.02h-.94v2.7c0 .98-.57 1.62-1.46 1.62-.75 0-1.1-.4-1.1-1.22v-3.1h-.93v3.32c0 1.17.55 1.84 1.7 1.84zm0 0"/></symbol><symbol overflow="visible" id="13af3e37v"><path d="M5.08-5.16c-.94 0-1.58.43-1.9 1.3h-.09l-.07-1.16H1.05v.77h1.1v3.48H.96V0h3.96v-.77H3.1v-1.46c0-1.36.6-2.05 1.83-2.05.4 0 .76.08 1.1.17l.15-.87c-.33-.11-.7-.18-1.11-.18zm0 0"/></symbol><symbol overflow="visible" id="13af3e37w"><path d="M3.42.14c1.61 0 2.56-.75 2.56-2 0-1.1-.67-1.6-1.95-1.86l-.97-.2c-.87-.17-1.23-.49-1.23-1.11 0-.7.54-1.11 1.5-1.11 1.06 0 1.51.34 1.69 1.23l.9-.09c-.17-1.28-.98-1.9-2.6-1.9C1.79-6.9.9-6.18.9-4.98c0 1.06.66 1.66 1.88 1.9l1.01.2c.85.17 1.25.4 1.25 1.09 0 .73-.6 1.16-1.6 1.16-1.07 0-1.66-.4-1.8-1.24l-.94.1C.83-.53 1.75.13 3.42.13zm0 0"/></symbol><symbol overflow="visible" id="13af3e37x"><path d="M2.06 1.9V-.84h.05c.28.58.8.97 1.77.97 1.5 0 2.2-.98 2.2-2.66 0-1.65-.7-2.64-2.19-2.64-.97 0-1.5.44-1.78 1.05h-.08l-.1-.9H1.1v6.9zm1.5-2.56c-1.06 0-1.53-.8-1.53-1.86 0-1.04.47-1.84 1.53-1.84 1.11 0 1.53.61 1.53 1.84 0 1.27-.42 1.86-1.53 1.86zm0 0"/></symbol><symbol overflow="visible" id="13af3e37y"><path d="M3.36.16c1.4 0 2.2-.6 2.2-1.57 0-.89-.54-1.22-1.47-1.39L3-3c-.67-.14-.86-.33-.86-.73 0-.5.4-.74 1.17-.74.83 0 1.19.27 1.27.8l.9-.05c-.12-1-.8-1.47-2.17-1.47-1.34 0-2.1.53-2.1 1.5 0 .81.45 1.22 1.52 1.44l1.04.2c.56.11.87.24.87.72 0 .52-.45.78-1.28.78-.95 0-1.36-.28-1.42-.87l-.9.06C1.07-.36 1.8.16 3.35.16zm0 0"/></symbol><symbol overflow="visible" id="13af3e37z"><path d="M3.34.14c1.43 0 2.13-.66 2.25-1.78l-.89-.1c-.1.7-.5 1.08-1.34 1.08-1.03 0-1.52-.64-1.52-1.84 0-1.23.47-1.86 1.52-1.86.84 0 1.23.36 1.34 1.08l.9-.1c-.13-1.09-.82-1.78-2.26-1.78-1.56 0-2.46.97-2.46 2.66 0 1.66.9 2.64 2.46 2.64zm0 0"/></symbol><symbol overflow="visible" id="13af3e37A"><path d="M3.58-5.81c.42 0 .72-.22.72-.67 0-.44-.3-.68-.72-.68-.44 0-.72.24-.72.68 0 .45.28.67.72.67zm.5.8H1.52v.76h1.6v3.48h-1.8V0h4.46v-.77h-1.7zm0 0"/></symbol><symbol overflow="visible" id="13af3e37B"><path d="M1.45-2.95c0 2.56 1.08 4.37 3.67 4.84l.11-.67C3.28.86 2.43-.75 2.43-2.95s.85-3.82 2.8-4.16l-.1-.69c-2.6.49-3.68 2.3-3.68 4.85zm0 0"/></symbol><symbol overflow="visible" id="13af3e37C"><path d="M1.45-7.1c1.96.33 2.8 1.94 2.8 4.15 0 2.2-.84 3.8-2.8 4.17l.11.67c2.58-.47 3.67-2.28 3.67-4.84 0-2.55-1.09-4.36-3.67-4.85zm0 0"/></symbol></defs><use xlink:href="#13af3e37a" x="180.08" y="166" fill="#515151"/><use xlink:href="#13af3e37b" x="232.8" y="166" fill="#fff"/><use xlink:href="#13af3e37c" x="255.44" y="166" fill="#515151"/><use xlink:href="#13af3e37d" x="306.08" y="166" fill="#fff"/><use xlink:href="#13af3e37e" x="337.52" y="166" fill="#515151"/><use xlink:href="#13af3e37f" x="388.4" y="166" fill="#fff"/><g fill="#fff"><use xlink:href="#13af3e37g" x="260" y="252"/><use xlink:href="#13af3e37h" x="266.667" y="252"/><use xlink:href="#13af3e37i" x="273.334" y="252"/><use xlink:href="#13af3e37j" x="280.001" y="252"/><use xlink:href="#13af3e37k" x="286.668" y="252"/><use xlink:href="#13af3e37l" x="293.335" y="252"/><use xlink:href="#13af3e37m" x="300.002" y="252"/><use xlink:href="#13af3e37n" x="306.669" y="252"/><use xlink:href="#13af3e37o" x="313.336" y="252"/><use xlink:href="#13af3e37p" x="320.003" y="252"/><use xlink:href="#13af3e37q" x="326.67" y="252"/><use xlink:href="#13af3e37r" x="333.337" y="252"/></g><g fill="#fff"><use xlink:href="#13af3e37s" x="210" y="266"/><use xlink:href="#13af3e37h" x="216.667" y="266"/><use xlink:href="#13af3e37t" x="223.334" y="266"/><use xlink:href="#13af3e37j" x="230.001" y="266"/><use xlink:href="#13af3e37u" x="236.668" y="266"/><use xlink:href="#13af3e37v" x="243.335" y="266"/><use xlink:href="#13af3e37h" x="250.002" y="266"/><use xlink:href="#13af3e37k" x="256.669" y="266"/><use xlink:href="#13af3e37l" x="263.336" y="266"/><use xlink:href="#13af3e37w" x="270.003" y="266"/><use xlink:href="#13af3e37u" x="276.67" y="266"/><use xlink:href="#13af3e37x" x="283.337" y="266"/><use xlink:href="#13af3e37h" x="290.004" y="266"/><use xlink:href="#13af3e37v" x="296.671" y="266"/><use xlink:href="#13af3e37y" x="303.338" y="266"/><use xlink:href="#13af3e37z" x="310.005" y="266"/><use xlink:href="#13af3e37v" x="316.672" y="266"/><use xlink:href="#13af3e37A" x="323.339" y="266"/><use xlink:href="#13af3e37x" x="330.006" y="266"/><use xlink:href="#13af3e37j" x="336.673" y="266"/><use xlink:href="#13af3e37l" x="343.34" y="266"/><use xlink:href="#13af3e37B" x="350.007" y="266"/><use xlink:href="#13af3e37y" x="356.674" y="266"/><use xlink:href="#13af3e37u" x="363.341" y="266"/><use xlink:href="#13af3e37x" x="370.008" y="266"/><use xlink:href="#13af3e37y" x="376.675" y="266"/><use xlink:href="#13af3e37C" x="383.342" y="266"/></g></svg>