<?xml version='1.0' encoding='UTF-8'?>
<svg xmlns="http://www.w3.org/2000/svg" width="1440px" height="480px" viewBox="0 0 1440 480" y="0px" x="0px" enable-background="new 0 0 1440 480"><defs><clipPath id="a"><path d="M282 123.57h75V190h-75zm0 0"/></clipPath><clipPath id="b"><path d="M408 315h61v81.117h-61zm0 0"/></clipPath><clipPath id="c"><path d="M125.75 135h1206.64v193H125.75zm0 0"/></clipPath></defs><path fill="#1b1b1b" d="M0 0h1440v480H0z"/><g clip-path="url(#a)"><path d="M316.813 189.879c-20.09 0-34.336-12.508-34.336-31.149 0-10.382 4.671-18.406 10.976-23.835 4.442-3.774 10.047-6.844 14.485-9.204 3.503-1.18 8.64-2.12 14.011-2.12 20.09 0 34.34 12.503 34.34 31.144 0 9.441-3.742 17.465-10.98 23.836-3.27 2.832-9.344 6.605-14.48 9.203-3.505 1.18-8.645 2.125-14.017 2.125m3.27-21.95c7.473 0 11.914-4.011 11.914-10.617 0-7.078-5.14-11.796-13.316-11.796-7.473 0-11.91 4.011-11.91 10.617 0 7.078 5.136 11.797 13.312 11.797" fill="#fff"/></g><g clip-path="url(#b)"><path d="M415.613 396.117l-6.773-18.644c17.285-4.246 24.293-8.965 24.293-16.282 0-3.773-1.871-5.898-4.906-5.898-2.102 0-4.438.707-6.54 1.887-3.269-2.832-6.773-7.317-9.109-10.852l10.453-26.094c5.73-9.601 20.57-1.093 21.281 3.926l-7.445 12.02c2.57-.473 5.14-.707 7.477-.707 14.48 0 24.289 8.023 24.289 19.82 0 16.988-21.254 33.27-53.02 40.824" fill="#fff"/></g><path d="M766.676 386.91c-21.489 0-34.102-10.613-34.102-28.785 0-14.629 8.41-25.957 26.16-34.688l9.176-5.003c3.762-1.149 18.988-2.786 23.293 5.003-17.754 7.786-25.926 15.81-25.926 25.485 0 7.785 5.371 12.508 14.711 12.508 5.14 0 10.746-1.418 15.883-4.012l6.777 18.64c-12.382 7.551-23.824 10.852-35.972 10.852M835.578 185.156l-14.95-9.91c7.942-13.922 16.587-26.902 21.493-32.09 3.27-2.125 7.703-3.304 12.61-3.304 16.585 0 28.734 14.863 39.707 14.863 5.609 0 9.578-4.008 15.652-15.336l16.117 9.437c-7.945 13.922-16.586 26.903-21.492 32.094-3.27 2.125-7.703 3.3-12.375 3.3-16.82 0-29.899-14.862-39.711-14.862-4.906 0-9.344 4.011-17.05 15.808M1157.906 186.34c-25.691 0-41.11-15.813-44.843-46.016l24.058-3.539c2.57 13.45 10.043 20.528 21.957 20.528 11.91 0 20.785-7.317 25.692-21.473l20.32 5.898c-5.84 29.258-21.953 44.602-47.184 44.602M1259.043 386.676c-14.246 0-23.59-8.024-23.59-20.055 0-6.61 2.57-12.039 7.242-15.578 5.14-4.246 14.95-6.606 17.285-6.606 14.25 0 23.59 8.024 23.59 20.06 0 6.366-2.57 12.269-7.238 15.808-5.14 4.25-14.95 6.37-17.289 6.37" fill="#fff"/><g clip-path="url(#c)"><path d="M185.777 280.723c-2.566 0-6.304-.235-10.507-.473.23 17.7.933 33.273 1.867 43.188H125.75c1.402-16.286 2.336-47.434 2.336-77.403v-11.324c0-30.676-.934-61.59-2.336-77.637h11.914c14.715 0 53.488-3.066 55.824-3.066 38.305 0 63.996 23.597 63.996 58.758 0 21.707-10.043 39.406-29.195 51.441-18.453 11.563-40.176 16.516-42.512 16.516m23.828-63.477c0-18.64-9.113-29.73-24.527-29.73-2.57 0-6.074.234-10.043.707-.234 12.035-.234 27.37-.234 46.25v12.98c3.972.234 7.242.234 9.11.234 16.116 0 25.694-11.324 25.694-30.44m85.485 109.491c-20.086 0-32.934-13.449-32.934-34.215 0-17.226 9.11-29.261 24.992-34.925l39.942-5.899v-5.664c0-10.855-5.606-16.515-16.352-16.515-7.941 0-18.218 3.066-32.933 11.09l-11.91-32.329c17.515-7.316 38.304-11.797 56.054-11.797 32.235 0 51.156 12.977 51.156 34.688 0 10.144-1.636 25.012-1.636 42 0 16.52 2.101 30.203 5.84 39.172-.235.945-3.27 7.55-3.973 8.496l-32.7 5.426c-2.804-4.72-6.07-11.325-8.175-17.461-7.008 5.43-16.117 11.8-23.356 16.28-3.035.946-9.343 1.653-14.015 1.653m31.531-35.633v-24.304l-14.715 3.539c-5.836 1.418-9.11 5.664-9.11 12.273 0 7.551 4.208 12.27 11.216 12.27 3.968 0 8.64-1.418 12.61-3.778m114.452 36.106c-24.758 0-39.941-11.328-39.242-38.465.234-9.672.469-20.527.469-26.664v-30.676h-15.184V203.09l17.285-2.36c3.27-11.328 6.305-22.89 7.707-29.734l37.375-2.832c-.468 9.203-.937 21.711-1.168 32.566l34.801-.234-4.906 32.563-29.895-1.418v23.836c0 6.37 0 16.753.23 22.886.47 9.914 4.208 13.215 11.216 13.215 4.203 0 10.043-1.18 14.48-3.066l7.707 27.37c-14.48 7.79-27.094 11.329-40.875 11.329m127.531-3.774c.934-13.218 1.633-41.296 1.633-56.164V252.88c0-17.461-3.035-22.652-12.61-22.652-4.671 0-9.108.945-13.081 3.066v35.398c0 20.055.7 41.528 1.637 54.747H496.43c.933-13.692 1.636-39.883 1.636-57.817v-54.035c0-23.363-1.87-37.992-5.14-43.184-.23-.707-.23-22.183 0-22.89l53.488-5.192c-1.168 15.34-2.8 51.207-3.27 71.028 6.075-4.72 13.313-9.676 19.153-13.215 3.738-.942 8.879-1.649 14.25-1.649 25.926 0 41.11 12.977 41.11 34.688 0 11.562-.934 30.203-.934 41.293 0 13.215.699 37.52 1.632 50.973zm77.782 0c.933-13.69 1.633-39.882 1.633-57.816v-34.215h-14.715v-28.55l14.48-1.891c0-6.606-.23-12.035-.23-18.88 0-16.75 7.707-27.132 22.422-35.394 13.546-7.55 27.328-11.562 29.898-11.562 11.91 0 26.16 2.598 35.5 6.371l-12.379 33.98c-.7.235-12.379.235-13.078 0l-12.613-7.316c-2.805 4.012-3.973 10.621-3.973 20.059v12.507l35.973-.234-4.907 32.563-30.363-1.418v37.05c0 20.055.7 41.528 1.633 54.747zm95.531 0c.934-13.69 1.633-39.882 1.633-57.816 0-22.18-1.867-36.101-4.903-38.7-.234-.706-.234-22.179 0-22.886l52.786-4.722c-1.403 14.632-1.868 38.464-1.868 69.14 0 20.293.7 41.766 1.633 54.985zm22.89-137.34c-15.183 0-25.226-8.492-25.226-21.234 0-7.078 2.805-12.98 7.707-16.754 5.606-4.484 16.117-6.843 18.453-6.843 15.18 0 25.227 8.496 25.227 21.238 0 6.84-2.805 12.976-7.711 16.754-5.606 4.484-16.113 6.84-18.45 6.84m120.989 137.34c.933-13.22 1.637-41.297 1.637-56.165V252.88c0-17.461-3.036-22.652-12.614-22.652-4.672 0-8.875.945-12.613 2.832-.469 10.144-.469 21.238-.469 35.394 0 20.293.703 41.766 1.637 54.985h-49.754c.938-13.692 1.637-39.883 1.637-57.817 0-20.293-1.867-33.273-5.371-36.101-.235-.708-.235-22.184 0-22.891l37.84-8.73s3.503 7.078 7.238 17.46c7.008-5.66 16.816-12.504 24.527-17.226 3.738-.942 8.875-1.649 14.246-1.649 25.926 0 41.11 12.977 41.11 34.688 0 11.562-.934 30.203-.934 41.293 0 13.215.7 37.52 1.633 50.973zm114.687 4.48c-29.43 0-49.05-23.36-49.05-60.172 0-25.012 9.109-44.836 26.859-55.926 17.285-10.855 38.539-15.574 40.875-15.574 3.504 0 7.242.707 11.21 1.887-.698-15.574-2.8-25.719-5.37-29.73-.23-.708-.23-22.184 0-22.891l53.488-5.192c-1.398 18.88-1.867 42.711-1.867 69.848v58.523c0 19.82 2.101 34.684 5.84 43.653 0 .945-3.27 7.55-3.973 8.496l-33.168 5.426c-2.8-4.246-5.84-10.852-7.937-17.227-7.243 5.664-16.586 12.274-24.293 16.992-3.27 1.18-7.477 1.887-12.614 1.887m29.895-36.813v-59.933c-3.5-1.418-7.004-2.36-10.508-2.36-12.848 0-19.387 10.618-19.387 31.145 0 20.766 7.243 33.98 19.621 33.98 3.27 0 6.774-.94 10.274-2.832m128.234 36.813c-38.074 0-63.535-24.305-63.535-62.059 0-23.125 9.344-42.71 26.863-54.273 15.418-10.149 39.008-15.34 40.875-15.34 37.137 0 56.758 22.652 53.254 61.117l-13.547 9.91-59.562-.707c.937 16.516 12.383 26.192 31.3 26.192 10.278 0 21.489-2.36 31.532-7.313l10.043 27.371c-17.75 9.91-37.371 15.102-57.223 15.102m-16.117-76.453l28.262-1.418c0-14.867-4.672-22.418-13.313-22.418-8.875 0-14.25 7.789-14.949 23.836m92.027 71.972c.934-13.69 1.637-39.882 1.637-57.816 0-20.293-1.87-33.273-5.375-36.101-.23-.708-.23-22.184 0-22.891l37.84-8.73s4.203 8.496 8.645 21.472c4.671-6.844 10.742-14.629 16.117-20.293 3.035-1.18 7.937-1.887 12.61-1.887 10.276 0 19.386 3.067 26.394 8.73l-13.079 35.161c-.703.234-12.378.234-13.082 0l-15.648-9.203c-2.805 1.887-5.375 4.246-7.707 6.605-.234 8.73-.234 18.172-.234 29.97 0 20.292.699 41.765 1.636 54.983zm0 0" fill="#ffb33c"/></g></svg>