<?xml version='1.0' encoding='UTF-8'?>
<svg xmlns="http://www.w3.org/2000/svg" xmlns:xlink="http://www.w3.org/1999/xlink" width="600px" height="300px" viewBox="0 0 600 300" x="0px" y="0px" enable-background="new 0 0 600 300"><defs><symbol overflow="visible" id="dd9bfaa0a"><path d="M8.08 0h8.15c-.3-4.48-.54-11.84-.54-18.4V-34l12.72.72 1.18-6.56-13.9.25v-9.36c0-4.1 1.6-6.74 4.47-7.53l7.92 3.2c.23.08 1.12.08 1.36 0l2.72-7.03a26 26 0 00-9.85-2.33c-.62 0-6.47 2.4-8.8 4.08-3.35 2.4-5.03 6.4-5.03 10.64 0 2.97.08 5.2.16 8.33l-6.23.95V-34h6.23v14.4c0 6.08-.23 14.96-.56 19.6zm0 0"/></symbol><symbol overflow="visible" id="dd9bfaa0b"><path d="M10.08-47.2c.4 0 2.15-.32 3.6-1.44.96-.8 1.52-2 1.52-3.6 0-2.8-2-4.71-4.97-4.71-.39 0-2.15.3-3.59 1.43-.95.8-1.51 2-1.51 3.6 0 2.8 2 4.72 4.95 4.72zM6.3 0h8.25C14.23-4.48 14-11.77 14-18.64c0-7.77.23-16.56.64-21.52l-9.05.96c-.07.25-.07 2.64 0 2.89.82 1.67 1.29 7.75 1.29 16.72 0 6.07-.24 14.95-.57 19.59zm0 0"/></symbol><symbol overflow="visible" id="dd9bfaa0c"><path d="M6 0h8.23c-.23-3.2-.39-7.92-.46-12.8l5.92-5.6A172.88 172.88 0 0132.64.22L41.36 0c.08-.31.08-2.64 0-2.95-3.44-3.36-9.77-11.2-16.31-20.49 7.43-7.04 12.64-11.6 15.1-13.2.08-.31.08-2.64 0-2.95H32a209.07 209.07 0 01-18.31 19.82V-38c0-9.6.15-16.4.62-23.69l-9.1 1.05c-.08.23-.08 2.64 0 2.87.71 1.7 1.35 7.05 1.35 18.65v19.53C6.56-13.52 6.31-4.64 6 0zm0 0"/></symbol><symbol overflow="visible" id="dd9bfaa0d"><path d="M13.84 1.13c1.52 0 3.2-.25 4.24-.57a69.66 69.66 0 008.4-4.97c.32 1.85.88 3.77 1.52 5.2l5.92-1.1c.16-.25.64-1.2.72-1.53-1.36-3.11-2-8.47-2-15.2 0-5.84.48-10 .48-13.44 0-6.96-5.43-10.57-13.35-10.57-4.72 0-10.41 1.28-15.36 3.46l2.54 6.54c5.2-2.95 8.33-4.07 11.28-4.07 4.9 0 7.61 2.96 7.61 7.92v4.07l-14.48 2.08c-5.6 2-8.56 6.1-8.56 11.46 0 6.54 4.4 10.71 11.04 10.71zm-3.76-12c0-3.13 1.69-5.13 4.8-5.85l10.89-2.4v10.17c-3.13 2.54-6.57 4-9.7 4-3.76 0-6-2.33-6-5.92zm0 0"/></symbol><symbol overflow="visible" id="dd9bfaa0e"><path d="M3.83 0v-5.95H6.2v-.82H.45v.82h2.4V0zm0 0"/></symbol><symbol overflow="visible" id="dd9bfaa0f"><path d="M5.75-2.23v-.43c0-1.6-.9-2.51-2.42-2.51S.87-4.16.87-2.48c0 1.71.91 2.62 2.5 2.62 1.43 0 2.07-.56 2.29-1.52l-.9-.09c-.18.61-.59.9-1.35.9-.94 0-1.52-.54-1.58-1.66zm-2.4-2.2c.93 0 1.43.5 1.48 1.55H1.84c.08-1.07.6-1.56 1.5-1.56zm0 0"/></symbol><symbol overflow="visible" id="dd9bfaa0g"><path d="M1.83 0l1.42-2h.06l1.46 2H5.8L4-2.53l1.78-2.49H4.8L3.42-3.08h-.08l-1.4-1.94H.89l1.78 2.49L.84 0zm0 0"/></symbol><symbol overflow="visible" id="dd9bfaa0h"><path d="M5.52-4.25v-.77H3.17v-1.56h-.81l-.14 1.56H.75v.77h1.47v2.4c0 1.3.48 1.94 1.84 1.94C4.6.1 5.14 0 5.55-.14L5.4-.91c-.32.13-.72.2-1.13.2-.8 0-1.1-.37-1.1-1.23v-2.31zm0 0"/></symbol><symbol overflow="visible" id="dd9bfaa0i"><path d="M3.33-3.42c.47 0 .8-.27.8-.8 0-.51-.33-.8-.8-.8-.47 0-.8.29-.8.8 0 .53.33.8.8.8zm0 3.5c.47 0 .8-.27.8-.78 0-.53-.33-.82-.8-.82-.47 0-.8.29-.8.82 0 .51.33.78.8.78zm0 0"/></symbol><symbol overflow="visible" id="dd9bfaa0k"><path d="M4.63-6.5c.45 0 .98.08 1.39.2l.2-.72a5.3 5.3 0 00-1.64-.26c-1.52 0-2.16.56-2.16 1.87v.4H.9v.76h1.53V0h.94v-4.25h2.53v-.77H3.36v-.3c0-.84.33-1.18 1.27-1.18zm0 0"/></symbol><symbol overflow="visible" id="dd9bfaa0l"><path d="M3.58-5.81c.42 0 .72-.22.72-.67 0-.44-.3-.68-.72-.68-.44 0-.72.24-.72.68 0 .45.28.67.72.67zm.5.8H1.52v.76h1.6v3.48h-1.8V0h4.46v-.77h-1.7zm0 0"/></symbol><symbol overflow="visible" id="dd9bfaa0m"><path d="M5.77-5.02H4.63L2.3-2.88h-.06v-4.26h-.94V0h.94v-2.31h.06L4.71 0h1.24L3.23-2.69zm0 0"/></symbol><symbol overflow="visible" id="dd9bfaa0n"><path d="M2.83.14c.94 0 1.5-.39 1.81-.95h.08l.1.81h.76v-3.38c0-1.23-.69-1.8-2.13-1.8-1.43 0-2.03.65-2.18 1.6l.93.1c.11-.6.44-.93 1.22-.93.85 0 1.22.32 1.22 1.04v.34l-1.81.2C1.6-2.7 1.1-2.17 1.1-1.28c0 .92.64 1.42 1.72 1.42zm.25-.77c-.67 0-1.02-.28-1.02-.74 0-.44.28-.72 1-.82l1.58-.19v.41c0 .8-.6 1.34-1.56 1.34zm0 0"/></symbol><symbol overflow="visible" id="dd9bfaa0o"><path d="M5.95-6.77H1.1V0h.99v-2.92H5.3v-.77H2.08v-2.26h3.87zm0 0"/></symbol><symbol overflow="visible" id="dd9bfaa0p"><path d="M2.73.14c.9 0 1.43-.45 1.74-1.08h.06l.13.94h.8v-5.02h-.94v2.7c0 .98-.57 1.62-1.46 1.62-.75 0-1.1-.4-1.1-1.22v-3.1h-.93v3.32c0 1.17.55 1.84 1.7 1.84zm0 0"/></symbol><symbol overflow="visible" id="dd9bfaa0q"><path d="M5.08-5.16c-.94 0-1.58.43-1.9 1.3h-.09l-.07-1.16H1.05v.77h1.1v3.48H.96V0h3.96v-.77H3.1v-1.46c0-1.36.6-2.05 1.83-2.05.4 0 .76.08 1.1.17l.15-.87c-.33-.11-.7-.18-1.11-.18zm0 0"/></symbol><symbol overflow="visible" id="dd9bfaa0r"><path d="M3.42.14C5.1.14 5.9-.69 6.11-2.17l-.95-.1C4.96-1.19 4.5-.69 3.44-.69c-1.27 0-1.81-.94-1.81-2.69s.54-2.7 1.8-2.7c1.09 0 1.5.49 1.73 1.58l.93-.1c-.21-1.46-.95-2.3-2.62-2.3C1.53-6.9.62-5.6.62-3.38c0 2.2.91 3.51 2.8 3.51zm0 0"/></symbol><symbol overflow="visible" id="dd9bfaa0s"><path d="M3.33.14c1.62 0 2.5-.95 2.5-2.66 0-1.68-.88-2.64-2.5-2.64-1.63 0-2.5.96-2.5 2.64 0 1.7.87 2.66 2.5 2.66zm0-.77c-1.06 0-1.52-.6-1.52-1.89 0-1.28.46-1.87 1.52-1.87 1.08 0 1.53.6 1.53 1.87 0 1.29-.45 1.9-1.53 1.9zm0 0"/></symbol><symbol overflow="visible" id="dd9bfaa0t"><path d="M2.16 0v-2.67c0-.99.59-1.63 1.46-1.63.74 0 1.07.38 1.07 1.22V0h.95v-3.31c0-1.2-.56-1.85-1.67-1.85-.92 0-1.49.46-1.77 1.08h-.06l-.12-.94H1.2V0zm0 0"/></symbol><symbol overflow="visible" id="dd9bfaa0u"><path d="M3.92-7.14H1.36v.76h1.6v5.61H1.15V0H5.7v-.77H3.92zm0 0"/></symbol><symbol overflow="visible" id="dd9bfaa0v"><path d="M3.34.14c1.43 0 2.13-.66 2.25-1.78l-.89-.1c-.1.7-.5 1.08-1.34 1.08-1.03 0-1.52-.64-1.52-1.84 0-1.23.47-1.86 1.52-1.86.84 0 1.23.36 1.34 1.08l.9-.1c-.13-1.09-.82-1.78-2.26-1.78-1.56 0-2.46.97-2.46 2.66 0 1.66.9 2.64 2.46 2.64zm0 0"/></symbol><symbol overflow="visible" id="dd9bfaa0w"><path d="M3.36.16c1.4 0 2.2-.6 2.2-1.57 0-.89-.54-1.22-1.47-1.39L3-3c-.67-.14-.86-.33-.86-.73 0-.5.4-.74 1.17-.74.83 0 1.19.27 1.27.8l.9-.05c-.12-1-.8-1.47-2.17-1.47-1.34 0-2.1.53-2.1 1.5 0 .81.45 1.22 1.52 1.44l1.04.2c.56.11.87.24.87.72 0 .52-.45.78-1.28.78-.95 0-1.36-.28-1.42-.87l-.9.06C1.07-.36 1.8.16 3.35.16zm0 0"/></symbol><symbol overflow="visible" id="dd9bfaa0x"><path d="M5.33-2.2v-.75h-4v.75zm0 0"/></symbol><symbol overflow="visible" id="dd9bfaa0y"><path d="M1.63 0v-2.9c0-.8.15-1.4.71-1.4.41 0 .55.3.55.88V0h.95v-2.9c0-.8.18-1.4.72-1.4.4 0 .57.3.57.88V0h.95v-3.63c0-.92-.28-1.53-1.11-1.53-.63 0-.95.41-1.1.9h-.06c-.1-.52-.44-.9-1.08-.9-.6 0-.93.41-1.06.9H1.6l-.23-.76H.67V0zm0 0"/></symbol><symbol overflow="visible" id="dd9bfaa0z"><path d="M3.38-5.9c.12-.5.42-1.04.67-1.41l-.63-.22a4.28 4.28 0 00-1.01 2.39c0 .66.3 1 .9 1 .6 0 .9-.33.9-.9 0-.57-.32-.83-.83-.85zm0 0"/></symbol><symbol overflow="visible" id="dd9bfaa0A"><path d="M3.3-7.53c-.55 0-.85.3-.85.84 0 .55.36.8.83.8h.03a5.1 5.1 0 01-.69 1.47l.52.23a4.29 4.29 0 001.02-2.4c0-.63-.33-.94-.86-.94zm0 0"/></symbol><symbol overflow="visible" id="dd9bfaa0B"><path d="M1.45-2.95c0 2.56 1.08 4.37 3.67 4.84l.11-.67C3.28.86 2.43-.75 2.43-2.95s.85-3.82 2.8-4.16l-.1-.69c-2.6.49-3.68 2.3-3.68 4.85zm0 0"/></symbol><symbol overflow="visible" id="dd9bfaa0C"><path d="M1.45-7.1c1.96.33 2.8 1.94 2.8 4.15 0 2.2-.84 3.8-2.8 4.17l.11.67c2.58-.47 3.67-2.28 3.67-4.84 0-2.55-1.09-4.36-3.67-4.85zm0 0"/></symbol></defs><use xlink:href="#dd9bfaa0a" x="218.68" y="166" fill="#fff"/><use xlink:href="#dd9bfaa0b" x="248.84" y="166" fill="#515151"/><use xlink:href="#dd9bfaa0a" x="269.64" y="166" fill="#fff"/><g fill="#515151"><use xlink:href="#dd9bfaa0c" x="299.72" y="166"/><use xlink:href="#dd9bfaa0d" x="342.28" y="166"/></g><g fill="#fff"><use xlink:href="#dd9bfaa0e" x="263.3333" y="252"/><use xlink:href="#dd9bfaa0f" x="270.0003" y="252"/><use xlink:href="#dd9bfaa0g" x="276.6673" y="252"/><use xlink:href="#dd9bfaa0h" x="283.3343" y="252"/><use xlink:href="#dd9bfaa0i" x="290.0013" y="252"/><use xlink:href="#dd9bfaa0j" x="296.6683" y="252"/><use xlink:href="#dd9bfaa0k" x="303.3353" y="252"/><use xlink:href="#dd9bfaa0l" x="310.0023" y="252"/><use xlink:href="#dd9bfaa0k" x="316.6693" y="252"/><use xlink:href="#dd9bfaa0m" x="323.3363" y="252"/><use xlink:href="#dd9bfaa0n" x="330.0033" y="252"/></g><g fill="#fff"><use xlink:href="#dd9bfaa0o" x="123.3333" y="266"/><use xlink:href="#dd9bfaa0f" x="130.0003" y="266"/><use xlink:href="#dd9bfaa0n" x="136.6673" y="266"/><use xlink:href="#dd9bfaa0h" x="143.3343" y="266"/><use xlink:href="#dd9bfaa0p" x="150.0013" y="266"/><use xlink:href="#dd9bfaa0q" x="156.6683" y="266"/><use xlink:href="#dd9bfaa0f" x="163.3353" y="266"/><use xlink:href="#dd9bfaa0i" x="170.0023" y="266"/><use xlink:href="#dd9bfaa0j" x="176.6693" y="266"/><use xlink:href="#dd9bfaa0r" x="183.3363" y="266"/><use xlink:href="#dd9bfaa0s" x="190.0033" y="266"/><use xlink:href="#dd9bfaa0t" x="196.6703" y="266"/><use xlink:href="#dd9bfaa0h" x="203.3373" y="266"/><use xlink:href="#dd9bfaa0f" x="210.0043" y="266"/><use xlink:href="#dd9bfaa0g" x="216.6713" y="266"/><use xlink:href="#dd9bfaa0h" x="223.3383" y="266"/><use xlink:href="#dd9bfaa0p" x="230.0053" y="266"/><use xlink:href="#dd9bfaa0n" x="236.6723" y="266"/><use xlink:href="#dd9bfaa0u" x="243.3393" y="266"/><use xlink:href="#dd9bfaa0j" x="250.0063" y="266"/><use xlink:href="#dd9bfaa0v" x="256.6733" y="266"/><use xlink:href="#dd9bfaa0s" x="263.3403" y="266"/><use xlink:href="#dd9bfaa0u" x="270.0073" y="266"/><use xlink:href="#dd9bfaa0u" x="276.6743" y="266"/><use xlink:href="#dd9bfaa0l" x="283.3413" y="266"/><use xlink:href="#dd9bfaa0w" x="290.0083" y="266"/><use xlink:href="#dd9bfaa0l" x="296.6753" y="266"/><use xlink:href="#dd9bfaa0s" x="303.3423" y="266"/><use xlink:href="#dd9bfaa0t" x="310.0093" y="266"/><use xlink:href="#dd9bfaa0x" x="316.6763" y="266"/><use xlink:href="#dd9bfaa0k" x="323.3433" y="266"/><use xlink:href="#dd9bfaa0q" x="330.0103" y="266"/><use xlink:href="#dd9bfaa0f" x="336.6773" y="266"/><use xlink:href="#dd9bfaa0f" x="343.3443" y="266"/><use xlink:href="#dd9bfaa0j" x="350.0113" y="266"/><use xlink:href="#dd9bfaa0k" x="356.6783" y="266"/><use xlink:href="#dd9bfaa0s" x="363.3453" y="266"/><use xlink:href="#dd9bfaa0q" x="370.0123" y="266"/><use xlink:href="#dd9bfaa0y" x="376.6793" y="266"/><use xlink:href="#dd9bfaa0j" x="383.3463" y="266"/><use xlink:href="#dd9bfaa0s" x="390.0133" y="266"/><use xlink:href="#dd9bfaa0k" x="396.6803" y="266"/><use xlink:href="#dd9bfaa0j" x="403.3473" y="266"/><use xlink:href="#dd9bfaa0z" x="410.0143" y="266"/><use xlink:href="#dd9bfaa0k" x="416.6813" y="266"/><use xlink:href="#dd9bfaa0A" x="423.3483" y="266"/><use xlink:href="#dd9bfaa0j" x="430.0153" y="266"/><use xlink:href="#dd9bfaa0B" x="436.6823" y="266"/><use xlink:href="#dd9bfaa0v" x="443.3493" y="266"/><use xlink:href="#dd9bfaa0n" x="450.0163" y="266"/><use xlink:href="#dd9bfaa0u" x="456.6833" y="266"/><use xlink:href="#dd9bfaa0h" x="463.3503" y="266"/><use xlink:href="#dd9bfaa0C" x="470.0173" y="266"/></g></svg>