<?xml version='1.0' encoding='UTF-8'?>
<svg xmlns="http://www.w3.org/2000/svg" xmlns:xlink="http://www.w3.org/1999/xlink" width="600px" height="300px" viewBox="0 0 600 300" x="0px" y="0px" enable-background="new 0 0 600 300"><defs><symbol overflow="visible" id="4dcb3049a"><path d="M21.92 1.52c.72 0 7.77-2.16 12.08-5.36 5.13-3.85 7.6-10.47 7.6-17.75 0-11.7-6.55-19.54-16.32-19.54-1.36 0-3.12.26-4.23.65-2.4 1.2-5.36 2.89-7.77 4.56.08-6.08.49-19.28.88-25.77l-9.11 1.05c-.1.23-.1 2.64 0 2.87.72 1.7 1.36 7.05 1.36 18.65v19.53c0 6.07-.25 14.95-.49 18.39a57 57 0 0016 2.72zm-8.48-20v-12.4c3.28-2.56 6.56-3.84 9.69-3.84 6.64 0 11.03 6.16 11.03 15.44 0 9.05-4.24 14.4-11.52 14.4-2.4 0-5.69-.56-8.95-1.43-.17-3.77-.25-8.1-.25-12.17zm0 0"/></symbol><symbol overflow="visible" id="4dcb3049b"><path d="M18.64 1.28c1.84 0 3.52-.23 4.64-.56 2.72-1.36 6-3.28 8.56-5.03.32 1.75.88 3.67 1.52 5.1l6-1.1c.23-.33.64-1.2.72-1.53-1.36-3.11-2-8.47-2-16.8 0-7.77.23-16.56.64-21.52l-8.95.96c-.08.25-.08 2.64 0 2.89.8 1.67 1.28 7.75 1.28 16.72v10.54c-3.36 2.64-6.9 4.1-10.4 4.1-5.3 0-7.3-3.13-7.3-10v-3.7c0-7.76.24-16.55.65-21.5l-8.95.95c-.1.25-.1 2.64 0 2.89.8 1.67 1.26 7.75 1.26 16.72 0 3.43-.15 6.3-.15 9.67 0 7.04 4.64 11.2 12.48 11.2zm0 0"/></symbol><symbol overflow="visible" id="4dcb3049c"><path d="M18.31 1.05c3.46 0 6.74-.97 10.49-2.97l-1.6-4.96a18.2 18.2 0 01-6.72 1.52c-3.6 0-4.71-1.51-4.96-6.33-.08-2.08-.08-5.1-.08-9.67V-34h20.8v14.4c0 2.8-.08 6.96-.16 10.65-.16 7.36 4.33 10 10.08 10 3.43 0 6.72-.97 10.48-2.97l-1.6-4.96a18.2 18.2 0 01-6.73 1.52c-3.6 0-4.72-1.51-4.95-6.33-.08-2.08-.08-5.1-.08-9.67V-34l12.56.72 1.2-6.56-13.76.25c.08-3.61.24-7.77.4-10.72l-5.76.47c-.33 2.25-.97 6.25-1.76 10.25H15.44c.08-3.61.25-7.77.4-10.72l-5.76.47C9.77-47.6 9.12-43.6 8.3-39.6L2-38.64V-34h6.4v14.4c0 2.8-.09 6.96-.17 10.65-.15 7.36 4.33 10 10.08 10zm0 0"/></symbol><symbol overflow="visible" id="4dcb3049d"><path d="M21.84 1.6c.72 0 7.93-2.16 12.16-5.29 4.72-3.51 7.2-9.36 7.2-16.62 0-12.57-7.36-20.9-18.4-20.9-.72 0-7.93 2.16-12.16 5.29-4.72 3.51-7.2 9.36-7.2 16.64 0 12.56 7.36 20.87 18.4 20.87zm1.36-6.32c-7.36 0-12.25-6.56-12.25-16.23 0-8.74 3.93-13.93 10.49-13.93 7.36 0 12.25 6.47 12.25 16.24 0 8.72-4 13.92-10.49 13.92zm0 0"/></symbol><symbol overflow="visible" id="4dcb3049e"><path d="M6.16 0h8.25c-.33-4.48-.57-11.77-.57-18.64 0-4.72.08-8.88.24-12.31 3.28-2.49 6.64-3.77 10.08-3.77 6.64 0 7.76 4.88 7.76 15.6v.07c0 5.05-.23 14.57-.56 19.05h8.23c-.3-4.56-.54-12.8-.54-17.28 0-4.49.23-8.95.23-13.2 0-6.64-4.8-10.57-12.87-10.57-1.77 0-3.54.25-4.82.57a65.8 65.8 0 00-8.54 5.12c-.49-3.2-1.2-5.05-1.2-5.05l-6.57 1.7c-.08.23-.08 2.63 0 2.87.8 1.68 1.44 6.25 1.44 16.25 0 6.07-.24 14.95-.56 19.59zm0 0"/></symbol><symbol overflow="visible" id="4dcb3049f"><path d="M3.83 0v-5.95H6.2v-.82H.45v.82h2.4V0zm0 0"/></symbol><symbol overflow="visible" id="4dcb3049g"><path d="M5.75-2.23v-.43c0-1.6-.9-2.51-2.42-2.51S.87-4.16.87-2.48c0 1.71.91 2.62 2.5 2.62 1.43 0 2.07-.56 2.29-1.52l-.9-.09c-.18.61-.59.9-1.35.9-.94 0-1.52-.54-1.58-1.66zm-2.4-2.2c.93 0 1.43.5 1.48 1.55H1.84c.08-1.07.6-1.56 1.5-1.56zm0 0"/></symbol><symbol overflow="visible" id="4dcb3049h"><path d="M1.83 0l1.42-2h.06l1.46 2H5.8L4-2.53l1.78-2.49H4.8L3.42-3.08h-.08l-1.4-1.94H.89l1.78 2.49L.84 0zm0 0"/></symbol><symbol overflow="visible" id="4dcb3049i"><path d="M5.52-4.25v-.77H3.17v-1.56h-.81l-.14 1.56H.75v.77h1.47v2.4c0 1.3.48 1.94 1.84 1.94C4.6.1 5.14 0 5.55-.14L5.4-.91c-.32.13-.72.2-1.13.2-.8 0-1.1-.37-1.1-1.23v-2.31zm0 0"/></symbol><symbol overflow="visible" id="4dcb3049j"><path d="M3.33-3.42c.47 0 .8-.27.8-.8 0-.51-.33-.8-.8-.8-.47 0-.8.29-.8.8 0 .53.33.8.8.8zm0 3.5c.47 0 .8-.27.8-.78 0-.53-.33-.82-.8-.82-.47 0-.8.29-.8.82 0 .51.33.78.8.78zm0 0"/></symbol><symbol overflow="visible" id="4dcb3049l"><path d="M3.9.14c1.48 0 2.18-.98 2.18-2.64 0-1.67-.7-2.66-2.17-2.66-.91 0-1.49.41-1.79 1h-.06v-2.98h-.95V0h.81l.11-.9h.06c.29.63.82 1.04 1.82 1.04zm-.32-.8c-1.08 0-1.55-.8-1.55-1.84 0-1.06.47-1.86 1.55-1.86 1.1 0 1.51.61 1.51 1.86S4.64-.66 3.58-.66zm0 0"/></symbol><symbol overflow="visible" id="4dcb3049m"><path d="M2.73.14c.9 0 1.43-.45 1.74-1.08h.06l.13.94h.8v-5.02h-.94v2.7c0 .98-.57 1.62-1.46 1.62-.75 0-1.1-.4-1.1-1.22v-3.1h-.93v3.32c0 1.17.55 1.84 1.7 1.84zm0 0"/></symbol><symbol overflow="visible" id="4dcb3049n"><path d="M3.33.14c1.62 0 2.5-.95 2.5-2.66 0-1.68-.88-2.64-2.5-2.64-1.63 0-2.5.96-2.5 2.64 0 1.7.87 2.66 2.5 2.66zm0-.77c-1.06 0-1.52-.6-1.52-1.89 0-1.28.46-1.87 1.52-1.87 1.08 0 1.53.6 1.53 1.87 0 1.29-.45 1.9-1.53 1.9zm0 0"/></symbol><symbol overflow="visible" id="4dcb3049o"><path d="M2.16 0v-2.67c0-.99.59-1.63 1.46-1.63.74 0 1.07.38 1.07 1.22V0h.95v-3.31c0-1.2-.56-1.85-1.67-1.85-.92 0-1.49.46-1.77 1.08h-.06l-.12-.94H1.2V0zm0 0"/></symbol><symbol overflow="visible" id="4dcb3049p"><path d="M5.95-6.77H1.1V0h.99v-2.92H5.3v-.77H2.08v-2.26h3.87zm0 0"/></symbol><symbol overflow="visible" id="4dcb3049q"><path d="M2.83.14c.94 0 1.5-.39 1.81-.95h.08l.1.81h.76v-3.38c0-1.23-.69-1.8-2.13-1.8-1.43 0-2.03.65-2.18 1.6l.93.1c.11-.6.44-.93 1.22-.93.85 0 1.22.32 1.22 1.04v.34l-1.81.2C1.6-2.7 1.1-2.17 1.1-1.28c0 .92.64 1.42 1.72 1.42zm.25-.77c-.67 0-1.02-.28-1.02-.74 0-.44.28-.72 1-.82l1.58-.19v.41c0 .8-.6 1.34-1.56 1.34zm0 0"/></symbol><symbol overflow="visible" id="4dcb3049r"><path d="M5.08-5.16c-.94 0-1.58.43-1.9 1.3h-.09l-.07-1.16H1.05v.77h1.1v3.48H.96V0h3.96v-.77H3.1v-1.46c0-1.36.6-2.05 1.83-2.05.4 0 .76.08 1.1.17l.15-.87c-.33-.11-.7-.18-1.11-.18zm0 0"/></symbol><symbol overflow="visible" id="4dcb3049s"><path d="M.92-6.77V0h2.11c2.03 0 3.03-1.03 3.03-3.36 0-2.39-1.01-3.4-2.93-3.4zM1.91-.8v-5.17h1.18c1.29 0 1.96.63 1.96 2.61 0 1.94-.67 2.56-1.96 2.56zm0 0"/></symbol><symbol overflow="visible" id="4dcb3049t"><path d="M3.58-5.81c.42 0 .72-.22.72-.67 0-.44-.3-.68-.72-.68-.44 0-.72.24-.72.68 0 .45.28.67.72.67zm.5.8H1.52v.76h1.6v3.48h-1.8V0h4.46v-.77h-1.7zm0 0"/></symbol><symbol overflow="visible" id="4dcb3049u"><path d="M3.36.16c1.4 0 2.2-.6 2.2-1.57 0-.89-.54-1.22-1.47-1.39L3-3c-.67-.14-.86-.33-.86-.73 0-.5.4-.74 1.17-.74.83 0 1.19.27 1.27.8l.9-.05c-.12-1-.8-1.47-2.17-1.47-1.34 0-2.1.53-2.1 1.5 0 .81.45 1.22 1.52 1.44l1.04.2c.56.11.87.24.87.72 0 .52-.45.78-1.28.78-.95 0-1.36-.28-1.42-.87l-.9.06C1.07-.36 1.8.16 3.35.16zm0 0"/></symbol><symbol overflow="visible" id="4dcb3049v"><path d="M3.34.14c1.43 0 2.13-.66 2.25-1.78l-.89-.1c-.1.7-.5 1.08-1.34 1.08-1.03 0-1.52-.64-1.52-1.84 0-1.23.47-1.86 1.52-1.86.84 0 1.23.36 1.34 1.08l.9-.1c-.13-1.09-.82-1.78-2.26-1.78-1.56 0-2.46.97-2.46 2.66 0 1.66.9 2.64 2.46 2.64zm0 0"/></symbol><symbol overflow="visible" id="4dcb3049w"><path d="M3.42-.86h-.08L1.77-5.02H.8L2.73 0h.41c-.33.95-.72 1.27-1.45 1.27-.22 0-.49-.04-.69-.08l-.1.73c.2.06.58.11.87.11 1.2 0 1.7-.7 2.21-2.03l1.94-5.02H5zm0 0"/></symbol><symbol overflow="visible" id="4dcb3049x"><path d="M3.92-7.14H1.36v.76h1.6v5.61H1.15V0H5.7v-.77H3.92zm0 0"/></symbol><symbol overflow="visible" id="4dcb3049y"><path d="M3.16 2.03c1.67 0 2.4-.86 2.4-2.51v-4.54h-.81l-.13.91h-.06c-.26-.58-.8-1.05-1.73-1.05-1.42 0-2.24 1-2.24 2.52 0 1.6.75 2.56 2.2 2.56.94 0 1.5-.5 1.77-1.03h.05v.72c0 1.17-.42 1.67-1.45 1.67-.93 0-1.3-.34-1.41-.89L.8.5c.12.96.87 1.54 2.36 1.54zM3.06-.8c-.98 0-1.48-.57-1.48-1.82 0-1.13.5-1.75 1.48-1.75 1.06 0 1.58.76 1.58 1.75 0 .95-.56 1.82-1.58 1.82zm0 0"/></symbol><symbol overflow="visible" id="4dcb3049z"><path d="M1.45-2.95c0 2.56 1.08 4.37 3.67 4.84l.11-.67C3.28.86 2.43-.75 2.43-2.95s.85-3.82 2.8-4.16l-.1-.69c-2.6.49-3.68 2.3-3.68 4.85zm0 0"/></symbol><symbol overflow="visible" id="4dcb3049A"><path d="M2.84.14C3.8.14 4.33-.26 4.6-.9h.07L4.8 0h.76v-7.14h-.95v2.95h-.08c-.28-.6-.86-.97-1.67-.97-1.48 0-2.27.99-2.27 2.64C.6-.84 1.36.14 2.84.14zm.22-.8c-.98 0-1.48-.59-1.48-1.84s.5-1.86 1.48-1.86c1.13 0 1.58.8 1.58 1.86S4.2-.66 3.06-.66zm0 0"/></symbol><symbol overflow="visible" id="4dcb3049B"><path d="M1.45-7.1c1.96.33 2.8 1.94 2.8 4.15 0 2.2-.84 3.8-2.8 4.17l.11.67c2.58-.47 3.67-2.28 3.67-4.84 0-2.55-1.09-4.36-3.67-4.85zm0 0"/></symbol></defs><g fill="#515151"><use xlink:href="#4dcb3049a" x="180.88" y="166"/><use xlink:href="#4dcb3049b" x="226" y="166"/></g><use xlink:href="#4dcb3049c" x="270.88" y="166" fill="#fff"/><g fill="#515151"><use xlink:href="#4dcb3049d" x="329.28" y="166"/><use xlink:href="#4dcb3049e" x="373.92" y="166"/></g><g fill="#fff"><use xlink:href="#4dcb3049f" x="260" y="252"/><use xlink:href="#4dcb3049g" x="266.667" y="252"/><use xlink:href="#4dcb3049h" x="273.334" y="252"/><use xlink:href="#4dcb3049i" x="280.001" y="252"/><use xlink:href="#4dcb3049j" x="286.668" y="252"/><use xlink:href="#4dcb3049k" x="293.335" y="252"/><use xlink:href="#4dcb3049l" x="300.002" y="252"/><use xlink:href="#4dcb3049m" x="306.669" y="252"/><use xlink:href="#4dcb3049i" x="313.336" y="252"/><use xlink:href="#4dcb3049i" x="320.003" y="252"/><use xlink:href="#4dcb3049n" x="326.67" y="252"/><use xlink:href="#4dcb3049o" x="333.337" y="252"/></g><g fill="#fff"><use xlink:href="#4dcb3049p" x="170" y="266"/><use xlink:href="#4dcb3049g" x="176.667" y="266"/><use xlink:href="#4dcb3049q" x="183.334" y="266"/><use xlink:href="#4dcb3049i" x="190.001" y="266"/><use xlink:href="#4dcb3049m" x="196.668" y="266"/><use xlink:href="#4dcb3049r" x="203.335" y="266"/><use xlink:href="#4dcb3049g" x="210.002" y="266"/><use xlink:href="#4dcb3049j" x="216.669" y="266"/><use xlink:href="#4dcb3049k" x="223.336" y="266"/><use xlink:href="#4dcb3049s" x="230.003" y="266"/><use xlink:href="#4dcb3049t" x="236.67" y="266"/><use xlink:href="#4dcb3049u" x="243.337" y="266"/><use xlink:href="#4dcb3049v" x="250.004" y="266"/><use xlink:href="#4dcb3049r" x="256.671" y="266"/><use xlink:href="#4dcb3049g" x="263.338" y="266"/><use xlink:href="#4dcb3049i" x="270.005" y="266"/><use xlink:href="#4dcb3049t" x="276.672" y="266"/><use xlink:href="#4dcb3049n" x="283.339" y="266"/><use xlink:href="#4dcb3049o" x="290.006" y="266"/><use xlink:href="#4dcb3049q" x="296.673" y="266"/><use xlink:href="#4dcb3049r" x="303.34" y="266"/><use xlink:href="#4dcb3049w" x="310.007" y="266"/><use xlink:href="#4dcb3049k" x="316.674" y="266"/><use xlink:href="#4dcb3049x" x="323.341" y="266"/><use xlink:href="#4dcb3049t" x="330.008" y="266"/><use xlink:href="#4dcb3049y" x="336.675" y="266"/><use xlink:href="#4dcb3049q" x="343.342" y="266"/><use xlink:href="#4dcb3049i" x="350.009" y="266"/><use xlink:href="#4dcb3049m" x="356.676" y="266"/><use xlink:href="#4dcb3049r" x="363.343" y="266"/><use xlink:href="#4dcb3049g" x="370.01" y="266"/><use xlink:href="#4dcb3049u" x="376.677" y="266"/><use xlink:href="#4dcb3049k" x="383.344" y="266"/><use xlink:href="#4dcb3049z" x="390.011" y="266"/><use xlink:href="#4dcb3049A" x="396.678" y="266"/><use xlink:href="#4dcb3049x" x="403.345" y="266"/><use xlink:href="#4dcb3049t" x="410.012" y="266"/><use xlink:href="#4dcb3049y" x="416.679" y="266"/><use xlink:href="#4dcb3049B" x="423.346" y="266"/></g></svg>