<?xml version='1.0' encoding='UTF-8'?>
<svg xmlns="http://www.w3.org/2000/svg" xmlns:xlink="http://www.w3.org/1999/xlink" width="600px" height="300px" viewBox="0 0 600 300" x="0px" y="0px" enable-background="new 0 0 600 300"><defs><symbol overflow="visible" id="de0ba598a"><path d="M19.13 0h8.8c-.5-5.44-.8-15.92-.8-26.31v-3.85c0-7.12.15-14.4.39-20.07 6.17.15 12.17.64 14.8 1.18.32.1 2.4-.08 2.73-.23l.8-7.44c-3.7.16-12.5.31-20.9.31h-2.72c-8.39 0-17.18-.15-20.87-.3l-.31 7.35c.3.16 2.39.31 2.72.23 2.95-.56 9.43-1.03 15.75-1.1.25 5.59.4 12.87.4 20.15v3.85c0 10.15-.33 20.71-.8 26.23zm0 0"/></symbol><symbol overflow="visible" id="de0ba598b"><path d="M21.84 1.6c.72 0 7.93-2.16 12.16-5.29 4.72-3.51 7.2-9.36 7.2-16.62 0-12.57-7.36-20.9-18.4-20.9-.72 0-7.93 2.16-12.16 5.29-4.72 3.51-7.2 9.36-7.2 16.64 0 12.56 7.36 20.87 18.4 20.87zm1.36-6.32c-7.36 0-12.25-6.56-12.25-16.23 0-8.74 3.93-13.93 10.49-13.93 7.36 0 12.25 6.47 12.25 16.24 0 8.72-4 13.92-10.49 13.92zm0 0"/></symbol><symbol overflow="visible" id="de0ba598c"><path d="M18.31 1.05c3.46 0 6.74-.97 10.49-2.97l-1.6-4.96a18.2 18.2 0 01-6.72 1.52c-3.6 0-4.71-1.51-4.96-6.33-.08-2.08-.08-5.1-.08-9.67V-34l12.56.72 1.2-6.56-13.76.25c.08-3.61.25-7.77.4-10.72l-5.76.47C9.77-47.6 9.12-43.6 8.3-39.6L2-38.64V-34h6.4v14.4c0 2.8-.09 6.96-.17 10.65-.15 7.36 4.33 10 10.08 10zm0 0"/></symbol><symbol overflow="visible" id="de0ba598d"><path d="M13.84 1.13c1.52 0 3.2-.25 4.24-.57a69.66 69.66 0 008.4-4.97c.32 1.85.88 3.77 1.52 5.2l5.92-1.1c.16-.25.64-1.2.72-1.53-1.36-3.11-2-8.47-2-15.2 0-5.84.48-10 .48-13.44 0-6.96-5.43-10.57-13.35-10.57-4.72 0-10.41 1.28-15.36 3.46l2.54 6.54c5.2-2.95 8.33-4.07 11.28-4.07 4.9 0 7.61 2.96 7.61 7.92v4.07l-14.48 2.08c-5.6 2-8.56 6.1-8.56 11.46 0 6.54 4.4 10.71 11.04 10.71zm-3.76-12c0-3.13 1.69-5.13 4.8-5.85l10.89-2.4v10.17c-3.13 2.54-6.57 4-9.7 4-3.76 0-6-2.33-6-5.92zm0 0"/></symbol><symbol overflow="visible" id="de0ba598e"><path d="M6.16 0h8.25c-.33-4.48-.57-11.77-.57-18.64V-38c0-9.6.16-16.4.64-23.69l-9.12 1.05c-.08.23-.08 2.64 0 2.87.72 1.7 1.36 7.05 1.36 18.65v19.53c0 6.07-.24 14.95-.56 19.59zm0 0"/></symbol><symbol overflow="visible" id="de0ba598f"><path d="M10.4-26.23c3.2 0 5.29-2.25 5.29-5.54 0-2.95-2-5.03-4.97-5.03-3.28 0-5.36 2.24-5.36 5.52 0 2.97 2 5.05 5.05 5.05zM10.32.23c3.2 0 5.28-2.23 5.28-5.51 0-2.95-2-5.03-4.95-5.03-3.28 0-5.36 2.23-5.36 5.51 0 2.96 2 5.03 5.03 5.03zm0 0"/></symbol><symbol overflow="visible" id="de0ba598h"><path d="M23.6 1.6c1.04 0 8.8-2.24 13.35-5.29 3.92-2.62 6.25-6.23 6.25-10.39 0-5.6-3.84-10.08-11.68-13.92a22.07 22.07 0 003.2-2.16c3.84-2.96 5.84-6.48 5.84-11.2 0-8.08-6.8-13.28-16.56-13.28-.95 0-7.28 1.84-11.36 4.8-3.6 2.56-5.77 6-5.77 10.07 0 5.05 2.97 9.13 8.97 12.49a36.4 36.4 0 00-5.53 3.44c-3.75 2.96-5.75 6.4-5.75 11.12C4.56-4.16 12.41 1.6 23.6 1.6zm-.48-33.37c-6.71-2.95-9.43-5.67-9.43-9.67 0-4.4 3.44-7.12 9.26-7.12 6.49 0 10.82 3.44 10.82 8.72 0 3.53-2.08 6.72-6.49 9.92zM11.78-13.84c0-4.08 2.64-7.6 8.54-11.2l6.4 2.88C33.29-19.2 36-16.48 36-12.48c0 5.04-4.16 8.07-11.36 8.07-7.77 0-12.87-3.82-12.87-9.43zm0 0"/></symbol><symbol overflow="visible" id="de0ba598i"><path d="M6.95 23.2h7.28c-.39-5.43-.64-15.92-.64-26.32v-34.96c0-10.15.25-20.72.64-26.33H6.95c.4 5.46.64 15.93.64 26.33v35.03c0 10.18-.23 20.74-.64 26.25zm0 0"/></symbol><symbol overflow="visible" id="de0ba598j"><path d="M8.8 10.08C30.56 7.28 42-.32 42-12.16c0-8.89-6.56-13.6-19.2-13.6-.72 0-4.96 1.04-9.03 2.4.07-5.44.3-11.28.54-16.08 9.46 0 16.64.16 24.64.64l.74-6.33c0-.23-2.25-.39-2.56-.3-2.82.38-7.36.48-15.85.48-4.8 0-9.12.08-13.51-.25.23 5.6.3 15.12.23 24.15.31.97.95 2.4 1.84 3.61 4.08-1.43 7.75-2.33 11.52-2.33 8.8 0 13.44 3.13 13.44 9.13 0 7.84-7.85 12.23-25.11 14l-3.13.33zm0 0"/></symbol><symbol overflow="visible" id="de0ba598k"><path d="M9.2.23C12.4.08 19.6 0 26.72 0c3.76 0 8.8.08 13.84.23l.8-6c-2.56.18-6.56.25-11.36.25-.16-4.4-.31-10-.31-15.53v-3.03c0-8.15.23-16.4.62-20.8A14.3 14.3 0 0028-46.23 154.83 154.83 0 019.36-39.2l1.28 4.25 12.4-2.49v16.49c0 5.36-.16 11.03-.4 15.43A224 224 0 019.6-5.77zm0 0"/></symbol><symbol overflow="visible" id="de0ba598l"><path d="M24.48 1.6c.57 0 7.11-1.83 11.68-5.12 4.89-3.43 7.36-8.56 7.36-14.56 0-9.76-6.65-16.4-16.65-16.4-1.75 0-3.28.25-4.39.64-2.56 1.2-6.4 3.2-9.36 5.04 1.83-9.6 8.32-15.6 20.16-18.89l3.44-.95-2.16-6.23c-19.2 5.51-29.2 17.1-29.2 34 0 14.15 7.12 22.46 19.12 22.46zM12.56-22.73v-.56c4.24-3.44 8-5.13 12.24-5.13 6.97 0 11.51 4.9 11.51 12.1 0 7.03-4.23 11.67-10.62 11.67-8.25 0-13.13-6.72-13.13-18.08zm0 0"/></symbol><symbol overflow="visible" id="de0ba598m"><path d="M3.83 0v-5.95H6.2v-.82H.45v.82h2.4V0zm0 0"/></symbol><symbol overflow="visible" id="de0ba598n"><path d="M5.75-2.23v-.43c0-1.6-.9-2.51-2.42-2.51S.87-4.16.87-2.48c0 1.71.91 2.62 2.5 2.62 1.43 0 2.07-.56 2.29-1.52l-.9-.09c-.18.61-.59.9-1.35.9-.94 0-1.52-.54-1.58-1.66zm-2.4-2.2c.93 0 1.43.5 1.48 1.55H1.84c.08-1.07.6-1.56 1.5-1.56zm0 0"/></symbol><symbol overflow="visible" id="de0ba598o"><path d="M1.83 0l1.42-2h.06l1.46 2H5.8L4-2.53l1.78-2.49H4.8L3.42-3.08h-.08l-1.4-1.94H.89l1.78 2.49L.84 0zm0 0"/></symbol><symbol overflow="visible" id="de0ba598p"><path d="M5.52-4.25v-.77H3.17v-1.56h-.81l-.14 1.56H.75v.77h1.47v2.4c0 1.3.48 1.94 1.84 1.94C4.6.1 5.14 0 5.55-.14L5.4-.91c-.32.13-.72.2-1.13.2-.8 0-1.1-.37-1.1-1.23v-2.31zm0 0"/></symbol><symbol overflow="visible" id="de0ba598q"><path d="M3.33-3.42c.47 0 .8-.27.8-.8 0-.51-.33-.8-.8-.8-.47 0-.8.29-.8.8 0 .53.33.8.8.8zm0 3.5c.47 0 .8-.27.8-.78 0-.53-.33-.82-.8-.82-.47 0-.8.29-.8.82 0 .51.33.78.8.78zm0 0"/></symbol><symbol overflow="visible" id="de0ba598s"><path d="M3.33.14c1.62 0 2.5-.95 2.5-2.66 0-1.68-.88-2.64-2.5-2.64-1.63 0-2.5.96-2.5 2.64 0 1.7.87 2.66 2.5 2.66zm0-.77c-1.06 0-1.52-.6-1.52-1.89 0-1.28.46-1.87 1.52-1.87 1.08 0 1.53.6 1.53 1.87 0 1.29-.45 1.9-1.53 1.9zm0 0"/></symbol><symbol overflow="visible" id="de0ba598t"><path d="M2.83.14c.94 0 1.5-.39 1.81-.95h.08l.1.81h.76v-3.38c0-1.23-.69-1.8-2.13-1.8-1.43 0-2.03.65-2.18 1.6l.93.1c.11-.6.44-.93 1.22-.93.85 0 1.22.32 1.22 1.04v.34l-1.81.2C1.6-2.7 1.1-2.17 1.1-1.28c0 .92.64 1.42 1.72 1.42zm.25-.77c-.67 0-1.02-.28-1.02-.74 0-.44.28-.72 1-.82l1.58-.19v.41c0 .8-.6 1.34-1.56 1.34zm0 0"/></symbol><symbol overflow="visible" id="de0ba598u"><path d="M3.92-7.14H1.36v.76h1.6v5.61H1.15V0H5.7v-.77H3.92zm0 0"/></symbol><symbol overflow="visible" id="de0ba598v"><path d="M3.33.16c1.69 0 2.69-.74 2.69-1.94 0-1.05-.8-1.58-1.43-1.72v-.05c.5-.14 1.2-.58 1.2-1.56 0-1.12-.95-1.81-2.46-1.81-1.52 0-2.46.69-2.46 1.81 0 .97.68 1.4 1.18 1.56v.05c-.6.14-1.4.64-1.4 1.72 0 1.2 1 1.94 2.68 1.94zm0-4.04c-.97 0-1.49-.43-1.49-1.12 0-.78.52-1.1 1.49-1.1.95 0 1.48.32 1.48 1.1 0 .69-.53 1.13-1.48 1.13zm0 3.24c-1.1 0-1.7-.42-1.7-1.25 0-.78.6-1.2 1.7-1.2s1.7.42 1.7 1.2c0 .83-.6 1.25-1.7 1.25zm0 0"/></symbol><symbol overflow="visible" id="de0ba598w"><path d="M3.42.14c1.55 0 2.44-.84 2.44-2.33 0-1.45-.83-2.22-2.14-2.22-.75 0-1.28.27-1.67.72H2l.31-2.22h3.11v-.86H1.53l-.45 3.93h.81c.3-.36.9-.79 1.58-.79.92 0 1.44.43 1.44 1.47 0 .99-.54 1.5-1.49 1.5-.83 0-1.28-.32-1.5-1.01l-.95.1C1.07-.46 2 .13 3.42.13zm0 0"/></symbol><symbol overflow="visible" id="de0ba598x"><path d="M4.22-6.77h-.86l-2.03.7v.87c.64-.17 1.26-.38 1.89-.55v4.9H1.03V0h4.9v-.86H4.21zm0 0"/></symbol><symbol overflow="visible" id="de0ba598y"><path d="M3.42.14c1.58 0 2.49-.86 2.49-2.3 0-1.42-.86-2.17-2.22-2.17-1.03 0-1.58.5-1.9 1.02h-.04c.03-1.63.4-2.77 1.73-2.77.91 0 1.24.44 1.36.96l.97-.11c-.23-.96-.86-1.68-2.33-1.68C1.84-6.9.86-5.86.86-3.1.86-.9 1.78.14 3.42.14zm.02-.78c-.9 0-1.47-.55-1.47-1.47 0-.9.7-1.47 1.53-1.47.92 0 1.47.52 1.47 1.47 0 .97-.6 1.47-1.53 1.47zm0 0"/></symbol><symbol overflow="visible" id="de0ba598z"><path d="M5.95-6.77H1.1V0h.99v-2.92H5.3v-.77H2.08v-2.26h3.87zm0 0"/></symbol><symbol overflow="visible" id="de0ba598A"><path d="M2.73.14c.9 0 1.43-.45 1.74-1.08h.06l.13.94h.8v-5.02h-.94v2.7c0 .98-.57 1.62-1.46 1.62-.75 0-1.1-.4-1.1-1.22v-3.1h-.93v3.32c0 1.17.55 1.84 1.7 1.84zm0 0"/></symbol><symbol overflow="visible" id="de0ba598B"><path d="M5.08-5.16c-.94 0-1.58.43-1.9 1.3h-.09l-.07-1.16H1.05v.77h1.1v3.48H.96V0h3.96v-.77H3.1v-1.46c0-1.36.6-2.05 1.83-2.05.4 0 .76.08 1.1.17l.15-.87c-.33-.11-.7-.18-1.11-.18zm0 0"/></symbol><symbol overflow="visible" id="de0ba598C"><path d="M3.9.14c1.48 0 2.18-.98 2.18-2.64 0-1.67-.7-2.66-2.17-2.66-.91 0-1.49.41-1.79 1h-.06v-2.98h-.95V0h.81l.11-.9h.06c.29.63.82 1.04 1.82 1.04zm-.32-.8c-1.08 0-1.55-.8-1.55-1.84 0-1.06.47-1.86 1.55-1.86 1.1 0 1.51.61 1.51 1.86S4.64-.66 3.58-.66zm0 0"/></symbol><symbol overflow="visible" id="de0ba598D"><path d="M2.16 0v-2.67c0-.99.59-1.63 1.46-1.63.74 0 1.07.38 1.07 1.22V0h.95v-3.31c0-1.2-.56-1.85-1.67-1.85-.92 0-1.49.46-1.77 1.08h-.06l-.12-.94H1.2V0zm0 0"/></symbol><symbol overflow="visible" id="de0ba598E"><path d="M3.16 2.03c1.67 0 2.4-.86 2.4-2.51v-4.54h-.81l-.13.91h-.06c-.26-.58-.8-1.05-1.73-1.05-1.42 0-2.24 1-2.24 2.52 0 1.6.75 2.56 2.2 2.56.94 0 1.5-.5 1.77-1.03h.05v.72c0 1.17-.42 1.67-1.45 1.67-.93 0-1.3-.34-1.41-.89L.8.5c.12.96.87 1.54 2.36 1.54zM3.06-.8c-.98 0-1.48-.57-1.48-1.82 0-1.13.5-1.75 1.48-1.75 1.06 0 1.58.76 1.58 1.75 0 .95-.56 1.82-1.58 1.82zm0 0"/></symbol><symbol overflow="visible" id="de0ba598F"><path d="M3.58-5.81c.42 0 .72-.22.72-.67 0-.44-.3-.68-.72-.68-.44 0-.72.24-.72.68 0 .45.28.67.72.67zm.5.8H1.52v.76h1.6v3.48h-1.8V0h4.46v-.77h-1.7zm0 0"/></symbol><symbol overflow="visible" id="de0ba598G"><path d="M1.63 0v-2.9c0-.8.15-1.4.71-1.4.41 0 .55.3.55.88V0h.95v-2.9c0-.8.18-1.4.72-1.4.4 0 .57.3.57.88V0h.95v-3.63c0-.92-.28-1.53-1.11-1.53-.63 0-.95.41-1.1.9h-.06c-.1-.52-.44-.9-1.08-.9-.6 0-.93.41-1.06.9H1.6l-.23-.76H.67V0zm0 0"/></symbol><symbol overflow="visible" id="de0ba598H"><path d="M3.36.16c1.4 0 2.2-.6 2.2-1.57 0-.89-.54-1.22-1.47-1.39L3-3c-.67-.14-.86-.33-.86-.73 0-.5.4-.74 1.17-.74.83 0 1.19.27 1.27.8l.9-.05c-.12-1-.8-1.47-2.17-1.47-1.34 0-2.1.53-2.1 1.5 0 .81.45 1.22 1.52 1.44l1.04.2c.56.11.87.24.87.72 0 .52-.45.78-1.28.78-.95 0-1.36-.28-1.42-.87l-.9.06C1.07-.36 1.8.16 3.35.16zm0 0"/></symbol><symbol overflow="visible" id="de0ba598I"><path d="M1.45-2.95c0 2.56 1.08 4.37 3.67 4.84l.11-.67C3.28.86 2.43-.75 2.43-2.95s.85-3.82 2.8-4.16l-.1-.69c-2.6.49-3.68 2.3-3.68 4.85zm0 0"/></symbol><symbol overflow="visible" id="de0ba598J"><path d="M5.4-1.22c.43-.66.66-1.51.66-2.44l-.83-.09c0 .75-.14 1.4-.4 1.92l-1.7-1.83c.8-.42 1.39-.96 1.39-1.86 0-.87-.66-1.4-1.61-1.4-1.14 0-1.72.62-1.72 1.47 0 .72.47 1.3.83 1.68-.8.41-1.52.99-1.52 2.1C.5-.44 1.52.14 2.7.14c.9 0 1.64-.3 2.2-.78l.58.64h1.05zM2.86-6.25c.44 0 .82.23.82.73 0 .7-.47 1.11-1 1.41-.47-.53-.67-.92-.67-1.34 0-.47.3-.8.85-.8zM2.81-.62c-.83 0-1.42-.41-1.42-1.18 0-.76.5-1.18 1.05-1.5l1.94 2.1c-.4.37-.91.57-1.57.57zm0 0"/></symbol><symbol overflow="visible" id="de0ba598K"><path d="M1.45-7.1c1.96.33 2.8 1.94 2.8 4.15 0 2.2-.84 3.8-2.8 4.17l.11.67c2.58-.47 3.67-2.28 3.67-4.84 0-2.55-1.09-4.36-3.67-4.85zm0 0"/></symbol></defs><use xlink:href="#de0ba598a" x="64.64" y="166" fill="#515151"/><use xlink:href="#de0ba598b" x="105.04" y="166" fill="#515151"/><g fill="#515151"><use xlink:href="#de0ba598c" x="149.12" y="166"/><use xlink:href="#de0ba598d" x="180.16" y="166"/><use xlink:href="#de0ba598e" x="219.2" y="166"/><use xlink:href="#de0ba598f" x="239.76" y="166"/><use xlink:href="#de0ba598g" x="260.72" y="166"/></g><use xlink:href="#de0ba598h" x="281.04" y="166" fill="#fff"/><use xlink:href="#de0ba598i" x="328.72" y="166" fill="#515151"/><use xlink:href="#de0ba598j" x="349.92" y="166" fill="#fff"/><use xlink:href="#de0ba598i" x="397.6" y="166" fill="#515151"/><use xlink:href="#de0ba598k" x="418.8" y="166" fill="#fff"/><use xlink:href="#de0ba598i" x="466.48" y="166" fill="#515151"/><use xlink:href="#de0ba598l" x="487.68" y="166" fill="#fff"/><g fill="#fff"><use xlink:href="#de0ba598m" x="243.3333" y="252"/><use xlink:href="#de0ba598n" x="250.0003" y="252"/><use xlink:href="#de0ba598o" x="256.6673" y="252"/><use xlink:href="#de0ba598p" x="263.3343" y="252"/><use xlink:href="#de0ba598q" x="270.0013" y="252"/><use xlink:href="#de0ba598r" x="276.6683" y="252"/><use xlink:href="#de0ba598m" x="283.3353" y="252"/><use xlink:href="#de0ba598s" x="290.0023" y="252"/><use xlink:href="#de0ba598p" x="296.6693" y="252"/><use xlink:href="#de0ba598t" x="303.3363" y="252"/><use xlink:href="#de0ba598u" x="310.0033" y="252"/><use xlink:href="#de0ba598q" x="316.6703" y="252"/><use xlink:href="#de0ba598r" x="323.3373" y="252"/><use xlink:href="#de0ba598v" x="330.0043" y="252"/><use xlink:href="#de0ba598w" x="336.6713" y="252"/><use xlink:href="#de0ba598x" x="343.3383" y="252"/><use xlink:href="#de0ba598y" x="350.0053" y="252"/></g><g fill="#fff"><use xlink:href="#de0ba598z" x="143.3333" y="266"/><use xlink:href="#de0ba598n" x="150.0003" y="266"/><use xlink:href="#de0ba598t" x="156.6673" y="266"/><use xlink:href="#de0ba598p" x="163.3343" y="266"/><use xlink:href="#de0ba598A" x="170.0013" y="266"/><use xlink:href="#de0ba598B" x="176.6683" y="266"/><use xlink:href="#de0ba598n" x="183.3353" y="266"/><use xlink:href="#de0ba598q" x="190.0023" y="266"/><use xlink:href="#de0ba598r" x="196.6693" y="266"/><use xlink:href="#de0ba598m" x="203.3363" y="266"/><use xlink:href="#de0ba598t" x="210.0033" y="266"/><use xlink:href="#de0ba598C" x="216.6703" y="266"/><use xlink:href="#de0ba598A" x="223.3373" y="266"/><use xlink:href="#de0ba598u" x="230.0043" y="266"/><use xlink:href="#de0ba598t" x="236.6713" y="266"/><use xlink:href="#de0ba598B" x="243.3383" y="266"/><use xlink:href="#de0ba598r" x="250.0053" y="266"/><use xlink:href="#de0ba598B" x="256.6723" y="266"/><use xlink:href="#de0ba598t" x="263.3393" y="266"/><use xlink:href="#de0ba598D" x="270.0063" y="266"/><use xlink:href="#de0ba598E" x="276.6733" y="266"/><use xlink:href="#de0ba598F" x="283.3403" y="266"/><use xlink:href="#de0ba598D" x="290.0073" y="266"/><use xlink:href="#de0ba598E" x="296.6743" y="266"/><use xlink:href="#de0ba598r" x="303.3413" y="266"/><use xlink:href="#de0ba598D" x="310.0083" y="266"/><use xlink:href="#de0ba598A" x="316.6753" y="266"/><use xlink:href="#de0ba598G" x="323.3423" y="266"/><use xlink:href="#de0ba598n" x="330.0093" y="266"/><use xlink:href="#de0ba598B" x="336.6763" y="266"/><use xlink:href="#de0ba598t" x="343.3433" y="266"/><use xlink:href="#de0ba598u" x="350.0103" y="266"/><use xlink:href="#de0ba598H" x="356.6773" y="266"/><use xlink:href="#de0ba598r" x="363.3443" y="266"/><use xlink:href="#de0ba598I" x="370.0113" y="266"/><use xlink:href="#de0ba598s" x="376.6783" y="266"/><use xlink:href="#de0ba598D" x="383.3453" y="266"/><use xlink:href="#de0ba598A" x="390.0123" y="266"/><use xlink:href="#de0ba598G" x="396.6793" y="266"/><use xlink:href="#de0ba598r" x="403.3463" y="266"/><use xlink:href="#de0ba598J" x="410.0133" y="266"/><use xlink:href="#de0ba598r" x="416.6803" y="266"/><use xlink:href="#de0ba598p" x="423.3473" y="266"/><use xlink:href="#de0ba598D" x="430.0143" y="266"/><use xlink:href="#de0ba598A" x="436.6813" y="266"/><use xlink:href="#de0ba598G" x="443.3483" y="266"/><use xlink:href="#de0ba598K" x="450.0153" y="266"/></g></svg>