<?xml version='1.0' encoding='UTF-8'?>
<svg xmlns="http://www.w3.org/2000/svg" xmlns:xlink="http://www.w3.org/1999/xlink" width="310px" height="280px" viewBox="0 0 310 280" x="0px" y="0px" enable-background="new 0 0 310 280"><defs><symbol overflow="visible" id="4da14ca6a"><path d="M25.9 1.36c.76 0 11.16-1.56 19.05-6.88-.28-1.48-.48-4.68-.48-8.96 0-3.94.14-7.96.34-9.8A194.97 194.97 0 0127-24.41l-.34 6.66c1.82-.14 5.84-.27 10.32-.34.08 1.09.08 2.25.08 3.46 0 2.46-.08 4.91-.28 6.94a24.74 24.74 0 01-9.92 2.17c-9.66 0-15.44-7-15.44-18.76 0-11.56 5.58-18.36 14.28-18.36.75 0 1.57.08 2.32.14l10.12 4.77c.28.06 1.84.06 2.11 0l2.72-7.35a38.66 38.66 0 00-16.78-4.22c-.75 0-8.3 2.11-13 5.24-6.4 4.28-10.2 12.31-10.2 21.62 0 14.28 8.92 23.8 22.92 23.8zm0 0"/></symbol><symbol overflow="visible" id="4da14ca6b"><path d="M8.9-39.98c.41 0 2.26-.41 3.54-1.43.95-.75 1.5-1.9 1.5-3.4 0-2.66-1.97-4.49-4.9-4.49-.4 0-2.24.4-3.52 1.42-.96.76-1.5 1.91-1.5 3.41 0 2.66 1.96 4.49 4.89 4.49zM4.98 0h8.56c-.26-3.81-.47-10-.47-15.84 0-7.08.2-14.43.53-18.63l-9.3.94c-.07.22-.07 3.06 0 3.26.74 1.3 1.15 6.27 1.15 13.61 0 5.18-.2 12.72-.47 16.66zm0 0"/></symbol><symbol overflow="visible" id="4da14ca6c"><path d="M15.9.95c3.15 0 6.13-.89 9.54-2.72l-1.57-4.96a14.91 14.91 0 01-5.37 1.21c-2.86 0-3.88-1.21-4.02-5.03-.06-1.76-.06-4.48-.06-7.87v-9.94l10.27.55 1.08-6.4-11.35.21c.06-3.13.2-6.66.33-9.19l-6.19.49c-.26 1.97-.87 5.3-1.62 8.7l-5.32.75v4.83h5.25v11.56c0 2.23-.07 5.7-.14 8.77C6.6-1.56 10.47.95 15.91.95zm0 0"/></symbol><symbol overflow="visible" id="4da14ca6d"><path d="M11.56.95c1.36 0 2.86-.2 3.74-.48a62.79 62.79 0 007.07-4.34 19.8 19.8 0 001.5 4.56l5.99-1.03c.12-.27.67-1.28.73-1.57-1.15-2.65-1.68-7.06-1.68-12.57 0-4.97.4-8.64.4-11.57 0-5.98-4.83-9.17-12.1-9.17a36.5 36.5 0 00-13.74 2.99l2.45 6.39c4.42-2.52 7.14-3.4 9.58-3.4 3.95 0 6.13 2.32 6.13 6.32v3.06L9.45-18.09C4.7-16.45 2.17-13 2.17-8.3c0 5.63 3.75 9.24 9.4 9.24zM9.52-9.8c0-2.43 1.36-4.07 3.8-4.62l8.24-1.83v8.3c-2.31 1.83-4.97 2.92-7.28 2.92-3 0-4.76-1.84-4.76-4.77zm0 0"/></symbol><symbol overflow="visible" id="4da14ca6e"><path d="M4.9 0h8.57c-.28-3.81-.49-10-.49-15.84 0-4.02.08-7.55.14-10.41a12.48 12.48 0 017.55-2.72c5.1 0 5.99 3.61 5.99 11.83v.95c0 4.28-.2 12.38-.47 16.19h8.56c-.28-3.88-.48-10.88-.48-14.69 0-3.67.28-7.83.28-11.36 0-5.78-4.22-9.17-11.22-9.17-1.5 0-3 .2-4.08.47a72.4 72.4 0 00-7.28 4.42c-.49-2.72-1.22-4.42-1.22-4.42l-6.67 1.7c-.06.2-.06 3.07 0 3.27.75 1.36 1.3 5.17 1.3 13.12 0 5.18-.2 12.72-.49 16.66zm0 0"/></symbol><symbol overflow="visible" id="4da14ca6f"><path d="M4.25-3.28h2.02C6.1-1.75 5.48-.77 4.03-.77 2.53-.77 1.9-2 1.9-4.05c0-2.12.64-3.26 2.19-3.26 1.08 0 1.75.54 2 1.73l1.15-.1c-.28-1.52-1.1-2.6-3.15-2.6-2.36 0-3.4 1.58-3.4 4.23 0 2.6 1 4.22 3.09 4.22 1.56 0 2.14-.89 2.4-1.64h.11L6.42 0h.9v-4.1H4.24zm0 0"/></symbol><symbol overflow="visible" id="4da14ca6g"><path d="M4.3-6.97c.5 0 .86-.28.86-.81S4.8-8.6 4.3-8.6c-.53 0-.86.28-.86.8 0 .54.33.82.86.82zm.6.95H1.82v.91h1.92v4.19H1.56V0h5.38v-.92H4.89zm0 0"/></symbol><symbol overflow="visible" id="4da14ca6h"><path d="M6.63-5.1v-.92H3.8v-1.87h-.98l-.17 1.87H.9v.91h1.75v2.88c0 1.57.57 2.35 2.21 2.35.65 0 1.29-.12 1.79-.3l-.18-.9a3.9 3.9 0 01-1.34.22c-.97 0-1.33-.44-1.33-1.47V-5.1zm0 0"/></symbol><symbol overflow="visible" id="4da14ca6i"><path d="M3.4.17C4.51.17 5.2-.3 5.57-.97h.08l.12.97h.9v-4.05c0-1.48-.82-2.15-2.54-2.15-1.73 0-2.44.75-2.6 1.9l1.1.11c.13-.7.52-1.1 1.47-1.1 1.01 0 1.47.37 1.47 1.23v.42l-2.17.23c-1.49.18-2.08.82-2.08 1.86 0 1.13.76 1.72 2.06 1.72zm.29-.92c-.81 0-1.2-.33-1.2-.9 0-.52.32-.87 1.2-.96l1.89-.23v.48c0 .95-.75 1.61-1.9 1.61zm0 0"/></symbol><symbol overflow="visible" id="4da14ca6j"><path d="M2.6 0v-3.22c0-1.17.71-1.94 1.76-1.94.87 0 1.26.46 1.26 1.47V0h1.15v-3.97c0-1.45-.7-2.22-2-2.22-1.11 0-1.79.55-2.13 1.3h-.08l-.14-1.13h-.97V0zm0 0"/></symbol><symbol overflow="visible" id="4da14ca6l"><path d="M2.48-8.1H1.31V0h5.74v-.98H2.48zm0 0"/></symbol></defs><use xlink:href="#4da14ca6a" x="71.598" y="145"/><use xlink:href="#4da14ca6b" x="119.742" y="145"/><use xlink:href="#4da14ca6c" x="138.102" y="145"/><use xlink:href="#4da14ca6d" x="165.302" y="145"/><use xlink:href="#4da14ca6e" x="199.302" y="145"/><g fill-opacity=".33"><use xlink:href="#4da14ca6f" x="111" y="230"/><use xlink:href="#4da14ca6g" x="119.0004" y="230"/><use xlink:href="#4da14ca6h" x="127.0008" y="230"/><use xlink:href="#4da14ca6i" x="135.0012" y="230"/><use xlink:href="#4da14ca6j" x="143.0016" y="230"/><use xlink:href="#4da14ca6k" x="151.002" y="230"/><use xlink:href="#4da14ca6l" x="159.0024" y="230"/><use xlink:href="#4da14ca6i" x="167.0028" y="230"/><use xlink:href="#4da14ca6h" x="175.0032" y="230"/><use xlink:href="#4da14ca6g" x="183.0036" y="230"/><use xlink:href="#4da14ca6j" x="191.004" y="230"/></g></svg>