<?xml version='1.0' encoding='UTF-8'?>
<svg xmlns="http://www.w3.org/2000/svg" xmlns:xlink="http://www.w3.org/1999/xlink" width="600px" height="300px" viewBox="0 0 600 300" x="0px" y="0px" enable-background="new 0 0 600 300"><defs><symbol overflow="visible" id="888ab12ea"><path d="M47.36-3.84l3.12-9.85-3.12-1.51-4.64 7.36c-2.24 3.6-5.36 5.6-10.88 5.6-10.32 0-18.56-6.63-18.56-25.2 0-16.8 5.77-24.08 15.67-24.08 5.7 0 10.4 1.36 13.05 2.8l2.56 7.6c.4 1.12.96 2.24 2.4 2.24.73 0 1.2-.24 1.84-.56v-13.12a45.08 45.08 0 00-16.16-2.88 29.03 29.03 0 00-29.36 29.2C3.28-9.91 13.92 1.2 29.68 1.2c6 0 13.2-2.25 17.68-5.04zm0 0"/></symbol><symbol overflow="visible" id="888ab12eb"><path d="M3.6 0h40l3.6-14.23a3.58 3.58 0 00-2.25-.97c-1.18 0-2 .64-2.64 1.84l-5.1 9.52-18.65.8v-22.32H33.7l1.44 6.4h1.03c1.43 0 2-.73 2-1.84v-14.32h-2.72l-2.49 6.24H18.56V-51.2l18.96.97 2.56 8.3c.33 1.05.97 1.62 2 1.62a2.7 2.7 0 001.76-.74v-13.18H3.52v2.71L9.77-50v45.77L3.59-2.72zm0 0"/></symbol><symbol overflow="visible" id="888ab12ec"><path d="M9.77-50v45.77L3.52-2.72V0h39.6l3.83-15.77a3.05 3.05 0 00-2.3-1.1c-1.06 0-1.93.64-2.57 2.07L37.05-3.77l-18.4.82V-50.8h5.58v-1.6c0-1.29-.8-1.83-1.92-1.83H3.44v2.71zm32.07 19.36a4.38 4.38 0 00-4.48-4.48 4.4 4.4 0 00-4.56 4.48 4.42 4.42 0 004.56 4.56 4.4 4.4 0 004.48-4.56zm0 0"/></symbol><symbol overflow="visible" id="888ab12ed"><path d="M9.77-50v45.77L3.52-2.72V0h39.6l3.83-15.77a3.05 3.05 0 00-2.3-1.1c-1.06 0-1.93.64-2.57 2.07L37.05-3.77l-18.4.82V-50.8h5.58v-1.6c0-1.29-.8-1.83-1.92-1.83H3.44v2.71zm0 0"/></symbol><symbol overflow="visible" id="888ab12ee"><path d="M34.31 0h17.53c1.28 0 1.93-.64 1.93-1.92v-1.85h-4.25L30.8-55.05c-3.68 0-6.32 1.13-7.85 5.13L6-4.23.64-2.72V0h14.48c1.29 0 1.93-.64 1.93-1.92v-1.85h-6.1l5.53-16.46h18l6 16-6.17 1.51zm-9.36-45.52l8.4 22.24H17.53zm0 0"/></symbol><symbol overflow="visible" id="888ab12eg"><path d="M27.2-28.31h1.36c3.2 0 5.28-1.85 5.28-4.9 0-4.48-5.12-7.35-11.53-7.35-11.43 0-19.1 10-19.1 21.76 0 12.24 7.92 20 17.66 20 5.61 0 9.61-2.25 12-4.64.97-.97 1.2-1.76 1.2-2.33 0-.8-.63-1.43-1.2-2-3.82 2.49-5.82 3.2-8.64 3.2-7.51 0-13.28-7.2-13.28-17.35 0-10.4 5.13-14.56 9.93-14.56.8 0 2 .25 2.48.4zm0 0"/></symbol><symbol overflow="visible" id="888ab12eh"><path d="M10.95-22.72h25.36v-2.08a33 33 0 00-.31-5.43c-1.13-6.49-6.08-10.33-13.28-10.33-11.67 0-19.52 10-19.52 21.76 0 11.75 7.28 20 17.52 20 8.8 0 13.28-4.56 14-5.36.48-.56.8-1.04.8-1.68 0-.64-.4-1.2-.88-1.68-4 2.47-6.72 3.04-9.52 3.04-7.84 0-14.17-7.04-14.17-18.24zm16.97-2.97H11.05c.3-5.43 3.03-10.95 8.95-10.95a6.91 6.91 0 015.92 3.12c1.44 2.08 2 4.96 2 7.83zm0 0"/></symbol><symbol overflow="visible" id="888ab12ei"><path d="M2.31 0h18.17c1.29 0 1.93-.64 1.93-1.92v-1.85h-5.85v-56.95L4.72-60c-1.67.08-2.24 1.13-2.24 2.64v.95l6.08.64v51.54L2.31-2.72zM32.8-28.08c0-2.8-1.85-4.64-4.64-4.64-2.8 0-4.64 1.84-4.64 4.64s1.84 4.64 4.64 4.64 4.64-1.84 4.64-4.64zm0 0"/></symbol><symbol overflow="visible" id="888ab12ej"><path d="M2.31 0h18.17c1.29 0 1.93-.64 1.93-1.92v-1.85h-5.85v-56.95L4.72-60c-1.67.08-2.24 1.13-2.24 2.64v.95l6.08.64v51.54L2.31-2.72zm0 0"/></symbol><symbol overflow="visible" id="888ab12ek"><path d="M27.2.48l9.2-.96c1.04-.08 2.96-.4 2.96-2.4 0-.4-.08-1.12-.16-1.53h-6.08v-24.23c0-4.64-.64-7.84-3.2-10-1.6-1.36-3.92-2.23-7.84-2.23-3.03 0-7.52.8-11.52 2.95-2.87 1.6-5.84 3.92-5.84 6.64 0 2.16 1.69 3.6 5.44 3.6h2l.8-8.32c1.35-.31 2.96-.64 4.56-.64 4.4 0 7.6 2.64 7.6 7.69v5.9L5.6-16.48c-.64.96-2.54 3.92-2.54 7.76 0 5.6 3.67 9.92 9.9 9.92 4.97 0 10.1-3.28 12.57-9.04zm-2.07-20v2.24c0 1.44-.18 4.33-.97 6.56-.96 2.64-3.36 6.95-7.6 6.95-3.28 0-5.76-2.54-5.76-6 0-2.8 1.28-6.23 6.64-7.67zm0 0"/></symbol><symbol overflow="visible" id="888ab12el"><path d="M3.83 0v-5.95H6.2v-.82H.45v.82h2.4V0zm0 0"/></symbol><symbol overflow="visible" id="888ab12em"><path d="M5.75-2.23v-.43c0-1.6-.9-2.51-2.42-2.51S.87-4.16.87-2.48c0 1.71.91 2.62 2.5 2.62 1.43 0 2.07-.56 2.29-1.52l-.9-.09c-.18.61-.59.9-1.35.9-.94 0-1.52-.54-1.58-1.66zm-2.4-2.2c.93 0 1.43.5 1.48 1.55H1.84c.08-1.07.6-1.56 1.5-1.56zm0 0"/></symbol><symbol overflow="visible" id="888ab12en"><path d="M1.83 0l1.42-2h.06l1.46 2H5.8L4-2.53l1.78-2.49H4.8L3.42-3.08h-.08l-1.4-1.94H.89l1.78 2.49L.84 0zm0 0"/></symbol><symbol overflow="visible" id="888ab12eo"><path d="M5.52-4.25v-.77H3.17v-1.56h-.81l-.14 1.56H.75v.77h1.47v2.4c0 1.3.48 1.94 1.84 1.94C4.6.1 5.14 0 5.55-.14L5.4-.91c-.32.13-.72.2-1.13.2-.8 0-1.1-.37-1.1-1.23v-2.31zm0 0"/></symbol><symbol overflow="visible" id="888ab12ep"><path d="M3.33-3.42c.47 0 .8-.27.8-.8 0-.51-.33-.8-.8-.8-.47 0-.8.29-.8.8 0 .53.33.8.8.8zm0 3.5c.47 0 .8-.27.8-.78 0-.53-.33-.82-.8-.82-.47 0-.8.29-.8.82 0 .51.33.78.8.78zm0 0"/></symbol><symbol overflow="visible" id="888ab12er"><path d="M3.42.14C5.1.14 5.9-.69 6.11-2.17l-.95-.1C4.96-1.19 4.5-.69 3.44-.69c-1.27 0-1.81-.94-1.81-2.69s.54-2.7 1.8-2.7c1.09 0 1.5.49 1.73 1.58l.93-.1c-.21-1.46-.95-2.3-2.62-2.3C1.53-6.9.62-5.6.62-3.38c0 2.2.91 3.51 2.8 3.51zm0 0"/></symbol><symbol overflow="visible" id="888ab12es"><path d="M5.92-6.77H1.1V0h4.83v-.8H2.06v-2.26h3.22v-.75H2.06v-2.16h3.86zm0 0"/></symbol><symbol overflow="visible" id="888ab12et"><path d="M2.08-6.77h-.99V0h4.79v-.81h-3.8zm0 0"/></symbol><symbol overflow="visible" id="888ab12eu"><path d="M3.33-1.98c.51 0 .83-.27.83-.8 0-.56-.32-.83-.83-.83-.52 0-.81.27-.81.83 0 .53.3.8.8.8zm0 0"/></symbol><symbol overflow="visible" id="888ab12ev"><path d="M6.17 0L3.98-6.77h-1.3L.5 0h.97l.44-1.47h2.78L5.16 0zM3.28-5.94h.08l1.1 3.74H2.15zm0 0"/></symbol><symbol overflow="visible" id="888ab12ew"><path d="M3.34.14c1.43 0 2.13-.66 2.25-1.78l-.89-.1c-.1.7-.5 1.08-1.34 1.08-1.03 0-1.52-.64-1.52-1.84 0-1.23.47-1.86 1.52-1.86.84 0 1.23.36 1.34 1.08l.9-.1c-.13-1.09-.82-1.78-2.26-1.78-1.56 0-2.46.97-2.46 2.66 0 1.66.9 2.64 2.46 2.64zm0 0"/></symbol><symbol overflow="visible" id="888ab12ex"><path d="M3.92-7.14H1.36v.76h1.6v5.61H1.15V0H5.7v-.77H3.92zm0 0"/></symbol><symbol overflow="visible" id="888ab12ey"><path d="M2.83.14c.94 0 1.5-.39 1.81-.95h.08l.1.81h.76v-3.38c0-1.23-.69-1.8-2.13-1.8-1.43 0-2.03.65-2.18 1.6l.93.1c.11-.6.44-.93 1.22-.93.85 0 1.22.32 1.22 1.04v.34l-1.81.2C1.6-2.7 1.1-2.17 1.1-1.28c0 .92.64 1.42 1.72 1.42zm.25-.77c-.67 0-1.02-.28-1.02-.74 0-.44.28-.72 1-.82l1.58-.19v.41c0 .8-.6 1.34-1.56 1.34zm0 0"/></symbol><symbol overflow="visible" id="888ab12ez"><path d="M5.95-6.77H1.1V0h.99v-2.92H5.3v-.77H2.08v-2.26h3.87zm0 0"/></symbol><symbol overflow="visible" id="888ab12eA"><path d="M2.73.14c.9 0 1.43-.45 1.74-1.08h.06l.13.94h.8v-5.02h-.94v2.7c0 .98-.57 1.62-1.46 1.62-.75 0-1.1-.4-1.1-1.22v-3.1h-.93v3.32c0 1.17.55 1.84 1.7 1.84zm0 0"/></symbol><symbol overflow="visible" id="888ab12eB"><path d="M5.08-5.16c-.94 0-1.58.43-1.9 1.3h-.09l-.07-1.16H1.05v.77h1.1v3.48H.96V0h3.96v-.77H3.1v-1.46c0-1.36.6-2.05 1.83-2.05.4 0 .76.08 1.1.17l.15-.87c-.33-.11-.7-.18-1.11-.18zm0 0"/></symbol><symbol overflow="visible" id="888ab12eC"><path d="M2.16 0v-2.67c0-.99.59-1.63 1.46-1.63.74 0 1.07.38 1.07 1.22V0h.95v-3.31c0-1.2-.56-1.85-1.67-1.85-.92 0-1.49.46-1.77 1.08h-.06l-.12-.94H1.2V0zm0 0"/></symbol><symbol overflow="visible" id="888ab12eD"><path d="M1.45-2.95c0 2.56 1.08 4.37 3.67 4.84l.11-.67C3.28.86 2.43-.75 2.43-2.95s.85-3.82 2.8-4.16l-.1-.69c-2.6.49-3.68 2.3-3.68 4.85zm0 0"/></symbol><symbol overflow="visible" id="888ab12eE"><path d="M3.36.16c1.4 0 2.2-.6 2.2-1.57 0-.89-.54-1.22-1.47-1.39L3-3c-.67-.14-.86-.33-.86-.73 0-.5.4-.74 1.17-.74.83 0 1.19.27 1.27.8l.9-.05c-.12-1-.8-1.47-2.17-1.47-1.34 0-2.1.53-2.1 1.5 0 .81.45 1.22 1.52 1.44l1.04.2c.56.11.87.24.87.72 0 .52-.45.78-1.28.78-.95 0-1.36-.28-1.42-.87l-.9.06C1.07-.36 1.8.16 3.35.16zm0 0"/></symbol><symbol overflow="visible" id="888ab12eF"><path d="M3.16 2.03c1.67 0 2.4-.86 2.4-2.51v-4.54h-.81l-.13.91h-.06c-.26-.58-.8-1.05-1.73-1.05-1.42 0-2.24 1-2.24 2.52 0 1.6.75 2.56 2.2 2.56.94 0 1.5-.5 1.77-1.03h.05v.72c0 1.17-.42 1.67-1.45 1.67-.93 0-1.3-.34-1.41-.89L.8.5c.12.96.87 1.54 2.36 1.54zM3.06-.8c-.98 0-1.48-.57-1.48-1.82 0-1.13.5-1.75 1.48-1.75 1.06 0 1.58.76 1.58 1.75 0 .95-.56 1.82-1.58 1.82zm0 0"/></symbol><symbol overflow="visible" id="888ab12eG"><path d="M1.45-7.1c1.96.33 2.8 1.94 2.8 4.15 0 2.2-.84 3.8-2.8 4.17l.11.67c2.58-.47 3.67-2.28 3.67-4.84 0-2.55-1.09-4.36-3.67-4.85zm0 0"/></symbol></defs><g fill="#515151"><use xlink:href="#888ab12ea" x="79.08" y="154"/><use xlink:href="#888ab12eb" x="131.16" y="154"/></g><use xlink:href="#888ab12ec" x="180.52" y="154" fill="#fff"/><use xlink:href="#888ab12ed" x="228.44" y="154" fill="#fff"/><g fill="#515151"><use xlink:href="#888ab12ee" x="275.16" y="154"/><use xlink:href="#888ab12ef" x="329.56" y="154"/></g><use xlink:href="#888ab12eg" x="347.56" y="154" fill="#515151"/><use xlink:href="#888ab12eh" x="383.24" y="154" fill="#515151"/><use xlink:href="#888ab12ei" x="423.08" y="154" fill="#fff"/><use xlink:href="#888ab12ej" x="454.36" y="154" fill="#fff"/><use xlink:href="#888ab12ek" x="479.48" y="154" fill="#515151"/><g fill="#fff"><use xlink:href="#888ab12el" x="236.6667" y="252"/><use xlink:href="#888ab12em" x="243.3337" y="252"/><use xlink:href="#888ab12en" x="250.0007" y="252"/><use xlink:href="#888ab12eo" x="256.6677" y="252"/><use xlink:href="#888ab12ep" x="263.3347" y="252"/><use xlink:href="#888ab12eq" x="270.0017" y="252"/><use xlink:href="#888ab12er" x="276.6687" y="252"/><use xlink:href="#888ab12es" x="283.3357" y="252"/><use xlink:href="#888ab12et" x="290.0027" y="252"/><use xlink:href="#888ab12eu" x="296.6697" y="252"/><use xlink:href="#888ab12et" x="303.3367" y="252"/><use xlink:href="#888ab12ev" x="310.0037" y="252"/><use xlink:href="#888ab12eq" x="316.6707" y="252"/><use xlink:href="#888ab12ew" x="323.3377" y="252"/><use xlink:href="#888ab12em" x="330.0047" y="252"/><use xlink:href="#888ab12ex" x="336.6717" y="252"/><use xlink:href="#888ab12eu" x="343.3387" y="252"/><use xlink:href="#888ab12ex" x="350.0057" y="252"/><use xlink:href="#888ab12ey" x="356.6727" y="252"/></g><g fill="#fff"><use xlink:href="#888ab12ez" x="196.6667" y="266"/><use xlink:href="#888ab12em" x="203.3337" y="266"/><use xlink:href="#888ab12ey" x="210.0007" y="266"/><use xlink:href="#888ab12eo" x="216.6677" y="266"/><use xlink:href="#888ab12eA" x="223.3347" y="266"/><use xlink:href="#888ab12eB" x="230.0017" y="266"/><use xlink:href="#888ab12em" x="236.6687" y="266"/><use xlink:href="#888ab12ep" x="243.3357" y="266"/><use xlink:href="#888ab12eq" x="250.0027" y="266"/><use xlink:href="#888ab12er" x="256.6697" y="266"/><use xlink:href="#888ab12ey" x="263.3367" y="266"/><use xlink:href="#888ab12eo" x="270.0037" y="266"/><use xlink:href="#888ab12ey" x="276.6707" y="266"/><use xlink:href="#888ab12ex" x="283.3377" y="266"/><use xlink:href="#888ab12ey" x="290.0047" y="266"/><use xlink:href="#888ab12eC" x="296.6717" y="266"/><use xlink:href="#888ab12eq" x="303.3387" y="266"/><use xlink:href="#888ab12eD" x="310.0057" y="266"/><use xlink:href="#888ab12eE" x="316.6727" y="266"/><use xlink:href="#888ab12em" x="323.3397" y="266"/><use xlink:href="#888ab12eo" x="330.0067" y="266"/><use xlink:href="#888ab12eq" x="336.6737" y="266"/><use xlink:href="#888ab12ex" x="343.3407" y="266"/><use xlink:href="#888ab12ey" x="350.0077" y="266"/><use xlink:href="#888ab12eC" x="356.6747" y="266"/><use xlink:href="#888ab12eF" x="363.3417" y="266"/><use xlink:href="#888ab12eA" x="370.0087" y="266"/><use xlink:href="#888ab12ey" x="376.6757" y="266"/><use xlink:href="#888ab12eF" x="383.3427" y="266"/><use xlink:href="#888ab12em" x="390.0097" y="266"/><use xlink:href="#888ab12eG" x="396.6767" y="266"/></g></svg>