<?xml version='1.0' encoding='UTF-8'?>
<svg xmlns="http://www.w3.org/2000/svg" xmlns:xlink="http://www.w3.org/1999/xlink" width="600px" height="300px" viewBox="0 0 600 300" x="0px" y="0px" enable-background="new 0 0 600 300"><defs><symbol overflow="visible" id="c5a18437a"><path d="M69.77-8.16c-4.08 2.08-7.36 3.36-8.64 3.68 6.23-18.16 8.07-22.72 8.07-28 0-5.29-2.97-7.93-7.36-7.93-6.4 0-12.8 7.05-18.32 16.41 4.64-23.77 5.92-29.36 5.92-33.05 0-2.23-1.44-3.26-3.13-3.26-.54 0-2.72.08-6.54.87-4 .8-5.54 1.52-5.54 2.8 0 .33.18.8.33 1.05h7.6c-5.52 26.39-6 28.54-6 28.54C33.28-14.23 22.23-4.8 17.13-4.8c-5.29 0-6.57-5.76-6.57-9.36 0-9.84 6.08-21.92 12-21.92 2.16 0 2.88 1.85 4.24 7.28 2.97 0 6.07-2.25 6.07-5.36 0-2.97-2.23-6-6.87-6-3.84 0-8.64 1.85-12.64 5.03C7.05-30.07 2.23-21.43 2.23-12.3 2.23-5.36 5.52.56 13.2.56c6.49 0 13.93-4.56 21.03-16-1.28 6.49-2.07 10.24-2.07 12.56 0 2 .72 3.6 3.43 3.6 1.36 0 3.28-.49 3.93-.72l2.07-12.95c2.25-9.53 11.93-21.85 16.33-21.85 2 0 2.72 1.6 2.72 4.16 0 7.44-6.72 22.72-6.72 27.6 0 2.88 1.44 4.24 3.6 4.24 2 0 4.8-1.2 7.28-2.72 2.97-1.76 5.68-3.84 5.68-5.2 0-.64-.32-1.12-.71-1.44zm0 0"/></symbol><symbol overflow="visible" id="c5a18437b"><path d="M29.52-10.48c-5.44 4.07-8.47 5.43-12.16 5.43-4.72 0-6.95-4.54-6.95-9.43 0-.72.07-1.6.15-2.16 0 0 5.03-.8 9.44-1.92 8.31-2.16 14.56-6.24 14.56-13.52 0-4.8-3.51-8.08-8.64-8.08-12.8 0-23.69 14.64-23.69 28.88C2.23-5.05 5.7.95 13.84.95c6 0 10.96-2.8 13.6-5.18 2.08-1.85 3.43-3.77 3.43-4.82 0-.54-.39-1.36-1.35-1.43zm-18.57-8.96c.64-6.15 4.57-16.64 11.05-16.64 2.56 0 4.64 2.16 4.64 6.31 0 3.29-1.92 6.25-5.69 7.7-4.07 1.5-7.9 2.23-10 2.63zm0 0"/></symbol><symbol overflow="visible" id="c5a18437c"><path d="M68.56-8c-3.44 1.69-5.51 2.8-6.87 2.8-2.74 0-5.77-6.4-7.2-15.44C61.28-26.41 64-31.12 64-34.8c0-3.04-2.16-5.2-5.05-5.2-2.3 0-4.08.88-5.26 1.69.95 3.1 1.1 4.15 1.1 5.9 0 6.82-6.07 12.1-13.35 16.72 3.44-18.72 7.36-35.83 7.36-41.36 0-2.23-1.44-3.26-3.11-3.26-.56 0-2.74.08-6.56.87-4 .8-5.54 1.52-5.54 2.8 0 .33.18.8.33 1.05h7.6l-5.68 27.03c-1.36 6.48-3.04 13.68-4.15 18.64-6.17 3.28-11.05 4.87-14.17 4.87-5.52 0-6.96-5.51-6.96-9.1 0-9.85 6.08-21.93 12-21.93 2.16 0 2.88 1.85 4.24 7.28 2.97 0 6.07-2.25 6.07-5.36 0-2.97-2.23-6-6.87-6-3.84 0-8.64 1.85-12.64 5.03C7.05-30.07 2.23-21.43 2.23-12.3 2.23-5.36 5.52.56 12.8.56c5.36 0 11.12-2.56 18-6.15-.08.64-.08 1.18-.08 1.51 0 2.56 1.36 4.64 4.64 4.64 1.44 0 2.87-.33 3.52-.56a266 266 0 011.76-10.95c2.8-1.77 5.36-3.36 7.67-4.97.81 10.15 3.92 16.8 8.97 16.8 2.24 0 4.56-.96 7.13-2.57 2.72-1.67 4.87-3.51 4.87-4.95A1.8 1.8 0 0068.56-8zm0 0"/></symbol><symbol overflow="visible" id="c5a18437d"><path d="M3.83 0v-5.95H6.2v-.82H.45v.82h2.4V0zm0 0"/></symbol><symbol overflow="visible" id="c5a18437e"><path d="M5.75-2.23v-.43c0-1.6-.9-2.51-2.42-2.51S.87-4.16.87-2.48c0 1.71.91 2.62 2.5 2.62 1.43 0 2.07-.56 2.29-1.52l-.9-.09c-.18.61-.59.9-1.35.9-.94 0-1.52-.54-1.58-1.66zm-2.4-2.2c.93 0 1.43.5 1.48 1.55H1.84c.08-1.07.6-1.56 1.5-1.56zm0 0"/></symbol><symbol overflow="visible" id="c5a18437f"><path d="M1.83 0l1.42-2h.06l1.46 2H5.8L4-2.53l1.78-2.49H4.8L3.42-3.08h-.08l-1.4-1.94H.89l1.78 2.49L.84 0zm0 0"/></symbol><symbol overflow="visible" id="c5a18437g"><path d="M5.52-4.25v-.77H3.17v-1.56h-.81l-.14 1.56H.75v.77h1.47v2.4c0 1.3.48 1.94 1.84 1.94C4.6.1 5.14 0 5.55-.14L5.4-.91c-.32.13-.72.2-1.13.2-.8 0-1.1-.37-1.1-1.23v-2.31zm0 0"/></symbol><symbol overflow="visible" id="c5a18437h"><path d="M3.33-3.42c.47 0 .8-.27.8-.8 0-.51-.33-.8-.8-.8-.47 0-.8.29-.8.8 0 .53.33.8.8.8zm0 3.5c.47 0 .8-.27.8-.78 0-.53-.33-.82-.8-.82-.47 0-.8.29-.8.82 0 .51.33.78.8.78zm0 0"/></symbol><symbol overflow="visible" id="c5a18437j"><path d="M3.34.14c1.43 0 2.13-.66 2.25-1.78l-.89-.1c-.1.7-.5 1.08-1.34 1.08-1.03 0-1.52-.64-1.52-1.84 0-1.23.47-1.86 1.52-1.86.84 0 1.23.36 1.34 1.08l.9-.1c-.13-1.09-.82-1.78-2.26-1.78-1.56 0-2.46.97-2.46 2.66 0 1.66.9 2.64 2.46 2.64zm0 0"/></symbol><symbol overflow="visible" id="c5a18437k"><path d="M2.16 0v-2.69c0-.98.6-1.6 1.46-1.6.74 0 1.07.4 1.07 1.2V0h.95v-3.31c0-1.17-.56-1.85-1.67-1.85-.9 0-1.44.46-1.75 1.08h-.06v-3.06H1.2V0zm0 0"/></symbol><symbol overflow="visible" id="c5a18437l"><path d="M5.77-5.02H4.63L2.3-2.88h-.06v-4.26h-.94V0h.94v-2.31h.06L4.71 0h1.24L3.23-2.69zm0 0"/></symbol><symbol overflow="visible" id="c5a18437m"><path d="M5.95-6.77H1.1V0h.99v-2.92H5.3v-.77H2.08v-2.26h3.87zm0 0"/></symbol><symbol overflow="visible" id="c5a18437n"><path d="M2.83.14c.94 0 1.5-.39 1.81-.95h.08l.1.81h.76v-3.38c0-1.23-.69-1.8-2.13-1.8-1.43 0-2.03.65-2.18 1.6l.93.1c.11-.6.44-.93 1.22-.93.85 0 1.22.32 1.22 1.04v.34l-1.81.2C1.6-2.7 1.1-2.17 1.1-1.28c0 .92.64 1.42 1.72 1.42zm.25-.77c-.67 0-1.02-.28-1.02-.74 0-.44.28-.72 1-.82l1.58-.19v.41c0 .8-.6 1.34-1.56 1.34zm0 0"/></symbol><symbol overflow="visible" id="c5a18437o"><path d="M2.73.14c.9 0 1.43-.45 1.74-1.08h.06l.13.94h.8v-5.02h-.94v2.7c0 .98-.57 1.62-1.46 1.62-.75 0-1.1-.4-1.1-1.22v-3.1h-.93v3.32c0 1.17.55 1.84 1.7 1.84zm0 0"/></symbol><symbol overflow="visible" id="c5a18437p"><path d="M5.08-5.16c-.94 0-1.58.43-1.9 1.3h-.09l-.07-1.16H1.05v.77h1.1v3.48H.96V0h3.96v-.77H3.1v-1.46c0-1.36.6-2.05 1.83-2.05.4 0 .76.08 1.1.17l.15-.87c-.33-.11-.7-.18-1.11-.18zm0 0"/></symbol><symbol overflow="visible" id="c5a18437q"><path d="M.92-6.77V0h2.11c2.03 0 3.03-1.03 3.03-3.36 0-2.39-1.01-3.4-2.93-3.4zM1.91-.8v-5.17h1.18c1.29 0 1.96.63 1.96 2.61 0 1.94-.67 2.56-1.96 2.56zm0 0"/></symbol><symbol overflow="visible" id="c5a18437r"><path d="M3.58-5.81c.42 0 .72-.22.72-.67 0-.44-.3-.68-.72-.68-.44 0-.72.24-.72.68 0 .45.28.67.72.67zm.5.8H1.52v.76h1.6v3.48h-1.8V0h4.46v-.77h-1.7zm0 0"/></symbol><symbol overflow="visible" id="c5a18437s"><path d="M3.36.16c1.4 0 2.2-.6 2.2-1.57 0-.89-.54-1.22-1.47-1.39L3-3c-.67-.14-.86-.33-.86-.73 0-.5.4-.74 1.17-.74.83 0 1.19.27 1.27.8l.9-.05c-.12-1-.8-1.47-2.17-1.47-1.34 0-2.1.53-2.1 1.5 0 .81.45 1.22 1.52 1.44l1.04.2c.56.11.87.24.87.72 0 .52-.45.78-1.28.78-.95 0-1.36-.28-1.42-.87l-.9.06C1.07-.36 1.8.16 3.35.16zm0 0"/></symbol><symbol overflow="visible" id="c5a18437t"><path d="M3.33.14c1.62 0 2.5-.95 2.5-2.66 0-1.68-.88-2.64-2.5-2.64-1.63 0-2.5.96-2.5 2.64 0 1.7.87 2.66 2.5 2.66zm0-.77c-1.06 0-1.52-.6-1.52-1.89 0-1.28.46-1.87 1.52-1.87 1.08 0 1.53.6 1.53 1.87 0 1.29-.45 1.9-1.53 1.9zm0 0"/></symbol><symbol overflow="visible" id="c5a18437u"><path d="M2.16 0v-2.67c0-.99.59-1.63 1.46-1.63.74 0 1.07.38 1.07 1.22V0h.95v-3.31c0-1.2-.56-1.85-1.67-1.85-.92 0-1.49.46-1.77 1.08h-.06l-.12-.94H1.2V0zm0 0"/></symbol><symbol overflow="visible" id="c5a18437v"><path d="M3.42-.86h-.08L1.77-5.02H.8L2.73 0h.41c-.33.95-.72 1.27-1.45 1.27-.22 0-.49-.04-.69-.08l-.1.73c.2.06.58.11.87.11 1.2 0 1.7-.7 2.21-2.03l1.94-5.02H5zm0 0"/></symbol><symbol overflow="visible" id="c5a18437w"><path d="M3.92-7.14H1.36v.76h1.6v5.61H1.15V0H5.7v-.77H3.92zm0 0"/></symbol><symbol overflow="visible" id="c5a18437x"><path d="M3.16 2.03c1.67 0 2.4-.86 2.4-2.51v-4.54h-.81l-.13.91h-.06c-.26-.58-.8-1.05-1.73-1.05-1.42 0-2.24 1-2.24 2.52 0 1.6.75 2.56 2.2 2.56.94 0 1.5-.5 1.77-1.03h.05v.72c0 1.17-.42 1.67-1.45 1.67-.93 0-1.3-.34-1.41-.89L.8.5c.12.96.87 1.54 2.36 1.54zM3.06-.8c-.98 0-1.48-.57-1.48-1.82 0-1.13.5-1.75 1.48-1.75 1.06 0 1.58.76 1.58 1.75 0 .95-.56 1.82-1.58 1.82zm0 0"/></symbol><symbol overflow="visible" id="c5a18437y"><path d="M3.34-1.56c-.54 0-.82.31-.82.86 0 .5.3.78.76.78-.08.4-.34.95-.65 1.39l.53.25c.57-.67 1-1.67 1-2.36 0-.6-.3-.92-.82-.92zm0 0"/></symbol><symbol overflow="visible" id="c5a18437z"><path d="M1.45-2.95c0 2.56 1.08 4.37 3.67 4.84l.11-.67C3.28.86 2.43-.75 2.43-2.95s.85-3.82 2.8-4.16l-.1-.69c-2.6.49-3.68 2.3-3.68 4.85zm0 0"/></symbol><symbol overflow="visible" id="c5a18437A"><path d="M2.84.14C3.8.14 4.33-.26 4.6-.9h.07L4.8 0h.76v-7.14h-.95v2.95h-.08c-.28-.6-.86-.97-1.67-.97-1.48 0-2.27.99-2.27 2.64C.6-.84 1.36.14 2.84.14zm.22-.8c-.98 0-1.48-.59-1.48-1.84s.5-1.86 1.48-1.86c1.13 0 1.58.8 1.58 1.86S4.2-.66 3.06-.66zm0 0"/></symbol><symbol overflow="visible" id="c5a18437B"><path d="M1.45-7.1c1.96.33 2.8 1.94 2.8 4.15 0 2.2-.84 3.8-2.8 4.17l.11.67c2.58-.47 3.67-2.28 3.67-4.84 0-2.55-1.09-4.36-3.67-4.85zm0 0"/></symbol></defs><use xlink:href="#c5a18437a" x="210.6" y="154" fill="#fff"/><use xlink:href="#c5a18437b" x="284.92" y="154" fill="#515151"/><use xlink:href="#c5a18437c" x="320.28" y="154" fill="#fff"/><g fill="#fff"><use xlink:href="#c5a18437d" x="263.3333" y="252"/><use xlink:href="#c5a18437e" x="270.0003" y="252"/><use xlink:href="#c5a18437f" x="276.6673" y="252"/><use xlink:href="#c5a18437g" x="283.3343" y="252"/><use xlink:href="#c5a18437h" x="290.0013" y="252"/><use xlink:href="#c5a18437i" x="296.6683" y="252"/><use xlink:href="#c5a18437j" x="303.3353" y="252"/><use xlink:href="#c5a18437k" x="310.0023" y="252"/><use xlink:href="#c5a18437e" x="316.6693" y="252"/><use xlink:href="#c5a18437j" x="323.3363" y="252"/><use xlink:href="#c5a18437l" x="330.0033" y="252"/></g><g fill="#fff"><use xlink:href="#c5a18437m" x="126.6667" y="266"/><use xlink:href="#c5a18437e" x="133.3337" y="266"/><use xlink:href="#c5a18437n" x="140.0007" y="266"/><use xlink:href="#c5a18437g" x="146.6677" y="266"/><use xlink:href="#c5a18437o" x="153.3347" y="266"/><use xlink:href="#c5a18437p" x="160.0017" y="266"/><use xlink:href="#c5a18437e" x="166.6687" y="266"/><use xlink:href="#c5a18437h" x="173.3357" y="266"/><use xlink:href="#c5a18437i" x="180.0027" y="266"/><use xlink:href="#c5a18437q" x="186.6697" y="266"/><use xlink:href="#c5a18437r" x="193.3367" y="266"/><use xlink:href="#c5a18437s" x="200.0037" y="266"/><use xlink:href="#c5a18437j" x="206.6707" y="266"/><use xlink:href="#c5a18437p" x="213.3377" y="266"/><use xlink:href="#c5a18437e" x="220.0047" y="266"/><use xlink:href="#c5a18437g" x="226.6717" y="266"/><use xlink:href="#c5a18437r" x="233.3387" y="266"/><use xlink:href="#c5a18437t" x="240.0057" y="266"/><use xlink:href="#c5a18437u" x="246.6727" y="266"/><use xlink:href="#c5a18437n" x="253.3397" y="266"/><use xlink:href="#c5a18437p" x="260.0067" y="266"/><use xlink:href="#c5a18437v" x="266.6737" y="266"/><use xlink:href="#c5a18437i" x="273.3407" y="266"/><use xlink:href="#c5a18437w" x="280.0077" y="266"/><use xlink:href="#c5a18437r" x="286.6747" y="266"/><use xlink:href="#c5a18437x" x="293.3417" y="266"/><use xlink:href="#c5a18437n" x="300.0087" y="266"/><use xlink:href="#c5a18437g" x="306.6757" y="266"/><use xlink:href="#c5a18437o" x="313.3427" y="266"/><use xlink:href="#c5a18437p" x="320.0097" y="266"/><use xlink:href="#c5a18437e" x="326.6767" y="266"/><use xlink:href="#c5a18437s" x="333.3437" y="266"/><use xlink:href="#c5a18437y" x="340.0107" y="266"/><use xlink:href="#c5a18437i" x="346.6777" y="266"/><use xlink:href="#c5a18437r" x="353.3447" y="266"/><use xlink:href="#c5a18437g" x="360.0117" y="266"/><use xlink:href="#c5a18437n" x="366.6787" y="266"/><use xlink:href="#c5a18437w" x="373.3457" y="266"/><use xlink:href="#c5a18437r" x="380.0127" y="266"/><use xlink:href="#c5a18437j" x="386.6797" y="266"/><use xlink:href="#c5a18437i" x="393.3467" y="266"/><use xlink:href="#c5a18437t" x="400.0137" y="266"/><use xlink:href="#c5a18437u" x="406.6807" y="266"/><use xlink:href="#c5a18437w" x="413.3477" y="266"/><use xlink:href="#c5a18437v" x="420.0147" y="266"/><use xlink:href="#c5a18437i" x="426.6817" y="266"/><use xlink:href="#c5a18437z" x="433.3487" y="266"/><use xlink:href="#c5a18437A" x="440.0157" y="266"/><use xlink:href="#c5a18437w" x="446.6827" y="266"/><use xlink:href="#c5a18437r" x="453.3497" y="266"/><use xlink:href="#c5a18437x" x="460.0167" y="266"/><use xlink:href="#c5a18437B" x="466.6837" y="266"/></g></svg>