<?xml version='1.0' encoding='UTF-8'?>
<svg xmlns="http://www.w3.org/2000/svg" xmlns:xlink="http://www.w3.org/1999/xlink" width="600px" height="300px" viewBox="0 0 600 300" x="0px" y="0px" enable-background="new 0 0 600 300"><defs><symbol overflow="visible" id="0c44adaaa"><path d="M7.2-55.77V0l2.96.56 3.04-1.92C17.28.56 20.56 1.2 22.88 1.2c12.71 0 20.89-11.12 20.89-23.84 0-8.48-4.72-18.23-15.61-18.23-5.6 0-10.88 3.59-12.96 8.15v-28L3.36-60c-1.67.08-2.23 1.13-2.23 2.64v.95zm8 50.25v-15.04c0-4.88.88-8.8 2.8-11.6 1.84-2.64 4.23-4.32 7.28-4.32 5.6 0 9.84 6.32 9.84 16.71 0 9.36-3.6 16.72-11.12 16.72-4.48 0-7.05-1.6-8.8-2.47zm0 0"/></symbol><symbol overflow="visible" id="0c44adaab"><path d="M27.2.48l9.2-.96c1.04-.08 2.96-.4 2.96-2.4 0-.4-.08-1.12-.16-1.53h-6.08v-24.23c0-4.64-.64-7.84-3.2-10-1.6-1.36-3.92-2.23-7.84-2.23-3.03 0-7.52.8-11.52 2.95-2.87 1.6-5.84 3.92-5.84 6.64 0 2.16 1.69 3.6 5.44 3.6h2l.8-8.32c1.35-.31 2.96-.64 4.56-.64 4.4 0 7.6 2.64 7.6 7.69v5.9L5.6-16.48c-.64.96-2.54 3.92-2.54 7.76 0 5.6 3.67 9.92 9.9 9.92 4.97 0 10.1-3.28 12.57-9.04zm-2.07-20v2.24c0 1.44-.18 4.33-.97 6.56-.96 2.64-3.36 6.95-7.6 6.95-3.28 0-5.76-2.54-5.76-6 0-2.8 1.28-6.23 6.64-7.67zm0 0"/></symbol><symbol overflow="visible" id="0c44adaac"><path d="M55.84 0h18c1.11 0 1.93-.56 1.93-1.84v-1.6h-5.7v-57.28l-6.55 1.77a29.68 29.68 0 00-8.96-1.7c-4.72 0-10.33 1.13-14.8 6.09a17.07 17.07 0 00-10.8-4.16c-3.76 0-10.4.72-15.37 6-2.8 3.13-4.46 7.2-4.87 12.16L2.4-39.05v3.77h6.54v31.05L2.72-2.72V0h18.4c1.29 0 1.93-.64 1.93-1.92v-1.85h-6.1v-31.51h18.33v31.05l-6.23 1.51V0h19.51c1.28 0 1.92-.64 1.92-1.92v-1.85h-7.2v-31.51h7.6c2.4 0 2.89-1.6 2.89-3.44v-.72H43.05c0-4.48-.1-9.04 1.26-12.4 1.28-3.28 4-5.52 7.77-5.52 6.33 0 9.84 5.84 10 10.64v42.49l-6.24 1.51zM35.28-39.44H16.72c.08-7.44 1.12-11.36 2.8-13.36 2.64-2.8 6-2.97 7.76-2.97 3.52 0 6.24 1.77 8.08 3.46zm0 0"/></symbol><symbol overflow="visible" id="0c44adaad"><path d="M10.95-22.72h25.36v-2.08a33 33 0 00-.31-5.43c-1.13-6.49-6.08-10.33-13.28-10.33-11.67 0-19.52 10-19.52 21.76 0 11.75 7.28 20 17.52 20 8.8 0 13.28-4.56 14-5.36.48-.56.8-1.04.8-1.68 0-.64-.4-1.2-.88-1.68-4 2.47-6.72 3.04-9.52 3.04-7.84 0-14.17-7.04-14.17-18.24zm16.97-2.97H11.05c.3-5.43 3.03-10.95 8.95-10.95a6.91 6.91 0 015.92 3.12c1.44 2.08 2 4.96 2 7.83zm0 0"/></symbol><symbol overflow="visible" id="0c44adaae"><path d="M31.84-55.77v16.57c-3.2-1.2-5.76-1.67-7.68-1.67-12.72 0-20.88 11.1-20.88 23.82C3.28-8.56 8 1.2 18.88 1.2c5.76 0 11.2-3.76 13.68-9.36L33.92.48l9.2-.96c1.68-.16 2.96-.65 2.96-2.4 0-.32-.08-.96-.16-1.53h-6.08v-56.3L28-60c-1.69.08-2.23 1.13-2.23 2.64v.95zm0 21.61v15.03c0 4.9-.89 8.82-2.8 11.61C27.2-4.88 24.8-3.2 21.78-3.2c-5.61 0-9.85-6.32-9.85-16.72 0-9.36 3.6-16.72 11.13-16.72 3.82 0 6.72 1.44 8.8 2.48zm0 0"/></symbol><symbol overflow="visible" id="0c44adaag"><path d="M21.6 1.44c11.52 0 19.76-9.28 19.76-21.52 0-11.84-6.16-20.87-18.56-20.87-11.44 0-19.6 9.26-19.6 21.36C3.2-7.52 9.52 1.44 21.6 1.44zm1.2-3.75c-8.16 0-11.11-9.38-11.11-18 0-10.74 3.03-16.9 9.9-16.9 8.33 0 11.29 9.29 11.29 18 0 10.26-3.04 16.9-10.08 16.9zm0 0"/></symbol><symbol overflow="visible" id="0c44adaah"><path d="M75.6-3.77h-6.65V-40l-9.1.56H43.11c0-8 .8-11.28 2.4-13.44 2.4-3.28 6.32-4.48 12.07-4.48l3.85 9.05h2.4c4.57 0 6-2.25 6-4.49 0-3.28-4.4-7.84-14.8-7.84-2.24 0-10 .64-15.27 6.08a17.07 17.07 0 00-10.82-4.16c-3.75 0-10.39.72-15.36 6-2.8 3.13-4.46 7.2-4.87 12.16L2.4-39.05v3.77h6.54v31.05L2.72-2.72V0h18.4c1.29 0 1.93-.64 1.93-1.92v-1.85h-6.1v-31.51h18.4v31.05l-6.23 1.51V0h18.4c1.28 0 1.92-.64 1.92-1.92v-1.85h-6.08v-31.51h17.77v31.05l-7.05 1.51V0h19.6c1.27 0 1.91-.64 1.91-1.92zM16.71-39.44c0-8.15 1.05-11.28 2.8-13.36 2.64-2.8 6-2.97 7.76-2.97 3.52 0 6.24 1.77 8.08 3.46v12.87zm0 0"/></symbol><symbol overflow="visible" id="0c44adaai"><path d="M27.2-28.31h1.36c3.2 0 5.28-1.85 5.28-4.9 0-4.48-5.12-7.35-11.53-7.35-11.43 0-19.1 10-19.1 21.76 0 12.24 7.92 20 17.66 20 5.61 0 9.61-2.25 12-4.64.97-.97 1.2-1.76 1.2-2.33 0-.8-.63-1.43-1.2-2-3.82 2.49-5.82 3.2-8.64 3.2-7.51 0-13.28-7.2-13.28-17.35 0-10.4 5.13-14.56 9.93-14.56.8 0 2 .25 2.48.4zm0 0"/></symbol><symbol overflow="visible" id="0c44adaaj"><path d="M3.83 0v-5.95H6.2v-.82H.45v.82h2.4V0zm0 0"/></symbol><symbol overflow="visible" id="0c44adaak"><path d="M5.75-2.23v-.43c0-1.6-.9-2.51-2.42-2.51S.87-4.16.87-2.48c0 1.71.91 2.62 2.5 2.62 1.43 0 2.07-.56 2.29-1.52l-.9-.09c-.18.61-.59.9-1.35.9-.94 0-1.52-.54-1.58-1.66zm-2.4-2.2c.93 0 1.43.5 1.48 1.55H1.84c.08-1.07.6-1.56 1.5-1.56zm0 0"/></symbol><symbol overflow="visible" id="0c44adaal"><path d="M1.83 0l1.42-2h.06l1.46 2H5.8L4-2.53l1.78-2.49H4.8L3.42-3.08h-.08l-1.4-1.94H.89l1.78 2.49L.84 0zm0 0"/></symbol><symbol overflow="visible" id="0c44adaam"><path d="M5.52-4.25v-.77H3.17v-1.56h-.81l-.14 1.56H.75v.77h1.47v2.4c0 1.3.48 1.94 1.84 1.94C4.6.1 5.14 0 5.55-.14L5.4-.91c-.32.13-.72.2-1.13.2-.8 0-1.1-.37-1.1-1.23v-2.31zm0 0"/></symbol><symbol overflow="visible" id="0c44adaan"><path d="M3.33-3.42c.47 0 .8-.27.8-.8 0-.51-.33-.8-.8-.8-.47 0-.8.29-.8.8 0 .53.33.8.8.8zm0 3.5c.47 0 .8-.27.8-.78 0-.53-.33-.82-.8-.82-.47 0-.8.29-.8.82 0 .51.33.78.8.78zm0 0"/></symbol><symbol overflow="visible" id="0c44adaap"><path d="M3.9.14c1.48 0 2.18-.98 2.18-2.64 0-1.67-.7-2.66-2.17-2.66-.91 0-1.49.41-1.79 1h-.06v-2.98h-.95V0h.81l.11-.9h.06c.29.63.82 1.04 1.82 1.04zm-.32-.8c-1.08 0-1.55-.8-1.55-1.84 0-1.06.47-1.86 1.55-1.86 1.1 0 1.51.61 1.51 1.86S4.64-.66 3.58-.66zm0 0"/></symbol><symbol overflow="visible" id="0c44adaaq"><path d="M2.83.14c.94 0 1.5-.39 1.81-.95h.08l.1.81h.76v-3.38c0-1.23-.69-1.8-2.13-1.8-1.43 0-2.03.65-2.18 1.6l.93.1c.11-.6.44-.93 1.22-.93.85 0 1.22.32 1.22 1.04v.34l-1.81.2C1.6-2.7 1.1-2.17 1.1-1.28c0 .92.64 1.42 1.72 1.42zm.25-.77c-.67 0-1.02-.28-1.02-.74 0-.44.28-.72 1-.82l1.58-.19v.41c0 .8-.6 1.34-1.56 1.34zm0 0"/></symbol><symbol overflow="visible" id="0c44adaar"><path d="M4.63-6.5c.45 0 .98.08 1.39.2l.2-.72a5.3 5.3 0 00-1.64-.26c-1.52 0-2.16.56-2.16 1.87v.4H.9v.76h1.53V0h.94v-4.25h2.53v-.77H3.36v-.3c0-.84.33-1.18 1.27-1.18zm0 0"/></symbol><symbol overflow="visible" id="0c44adaas"><path d="M3.92-7.14H1.36v.76h1.6v5.61H1.15V0H5.7v-.77H3.92zm0 0"/></symbol><symbol overflow="visible" id="0c44adaat"><path d="M2.84.14C3.8.14 4.33-.26 4.6-.9h.07L4.8 0h.76v-7.14h-.95v2.95h-.08c-.28-.6-.86-.97-1.67-.97-1.48 0-2.27.99-2.27 2.64C.6-.84 1.36.14 2.84.14zm.22-.8c-.98 0-1.48-.59-1.48-1.84s.5-1.86 1.48-1.86c1.13 0 1.58.8 1.58 1.86S4.2-.66 3.06-.66zm0 0"/></symbol><symbol overflow="visible" id="0c44adaau"><path d="M3.33.14c1.62 0 2.5-.95 2.5-2.66 0-1.68-.88-2.64-2.5-2.64-1.63 0-2.5.96-2.5 2.64 0 1.7.87 2.66 2.5 2.66zm0-.77c-1.06 0-1.52-.6-1.52-1.89 0-1.28.46-1.87 1.52-1.87 1.08 0 1.53.6 1.53 1.87 0 1.29-.45 1.9-1.53 1.9zm0 0"/></symbol><symbol overflow="visible" id="0c44adaav"><path d="M3.58-5.81c.42 0 .72-.22.72-.67 0-.44-.3-.68-.72-.68-.44 0-.72.24-.72.68 0 .45.28.67.72.67zm.5.8H1.52v.76h1.6v3.48h-1.8V0h4.46v-.77h-1.7zm0 0"/></symbol><symbol overflow="visible" id="0c44adaaw"><path d="M3.34.14c1.43 0 2.13-.66 2.25-1.78l-.89-.1c-.1.7-.5 1.08-1.34 1.08-1.03 0-1.52-.64-1.52-1.84 0-1.23.47-1.86 1.52-1.86.84 0 1.23.36 1.34 1.08l.9-.1c-.13-1.09-.82-1.78-2.26-1.78-1.56 0-2.46.97-2.46 2.66 0 1.66.9 2.64 2.46 2.64zm0 0"/></symbol><symbol overflow="visible" id="0c44adaax"><path d="M5.95-6.77H1.1V0h.99v-2.92H5.3v-.77H2.08v-2.26h3.87zm0 0"/></symbol><symbol overflow="visible" id="0c44adaay"><path d="M2.73.14c.9 0 1.43-.45 1.74-1.08h.06l.13.94h.8v-5.02h-.94v2.7c0 .98-.57 1.62-1.46 1.62-.75 0-1.1-.4-1.1-1.22v-3.1h-.93v3.32c0 1.17.55 1.84 1.7 1.84zm0 0"/></symbol><symbol overflow="visible" id="0c44adaaz"><path d="M5.08-5.16c-.94 0-1.58.43-1.9 1.3h-.09l-.07-1.16H1.05v.77h1.1v3.48H.96V0h3.96v-.77H3.1v-1.46c0-1.36.6-2.05 1.83-2.05.4 0 .76.08 1.1.17l.15-.87c-.33-.11-.7-.18-1.11-.18zm0 0"/></symbol><symbol overflow="visible" id="0c44adaaA"><path d="M3.42.14c1.61 0 2.56-.75 2.56-2 0-1.1-.67-1.6-1.95-1.86l-.97-.2c-.87-.17-1.23-.49-1.23-1.11 0-.7.54-1.11 1.5-1.11 1.06 0 1.51.34 1.69 1.23l.9-.09c-.17-1.28-.98-1.9-2.6-1.9C1.79-6.9.9-6.18.9-4.98c0 1.06.66 1.66 1.88 1.9l1.01.2c.85.17 1.25.4 1.25 1.09 0 .73-.6 1.16-1.6 1.16-1.07 0-1.66-.4-1.8-1.24l-.94.1C.83-.53 1.75.13 3.42.13zm0 0"/></symbol><symbol overflow="visible" id="0c44adaaB"><path d="M2.16 0v-2.67c0-.99.59-1.63 1.46-1.63.74 0 1.07.38 1.07 1.22V0h.95v-3.31c0-1.2-.56-1.85-1.67-1.85-.92 0-1.49.46-1.77 1.08h-.06l-.12-.94H1.2V0zm0 0"/></symbol><symbol overflow="visible" id="0c44adaaC"><path d="M3.16 2.03c1.67 0 2.4-.86 2.4-2.51v-4.54h-.81l-.13.91h-.06c-.26-.58-.8-1.05-1.73-1.05-1.42 0-2.24 1-2.24 2.52 0 1.6.75 2.56 2.2 2.56.94 0 1.5-.5 1.77-1.03h.05v.72c0 1.17-.42 1.67-1.45 1.67-.93 0-1.3-.34-1.41-.89L.8.5c.12.96.87 1.54 2.36 1.54zM3.06-.8c-.98 0-1.48-.57-1.48-1.82 0-1.13.5-1.75 1.48-1.75 1.06 0 1.58.76 1.58 1.75 0 .95-.56 1.82-1.58 1.82zm0 0"/></symbol><symbol overflow="visible" id="0c44adaaD"><path d="M3.36.16c1.4 0 2.2-.6 2.2-1.57 0-.89-.54-1.22-1.47-1.39L3-3c-.67-.14-.86-.33-.86-.73 0-.5.4-.74 1.17-.74.83 0 1.19.27 1.27.8l.9-.05c-.12-1-.8-1.47-2.17-1.47-1.34 0-2.1.53-2.1 1.5 0 .81.45 1.22 1.52 1.44l1.04.2c.56.11.87.24.87.72 0 .52-.45.78-1.28.78-.95 0-1.36-.28-1.42-.87l-.9.06C1.07-.36 1.8.16 3.35.16zm0 0"/></symbol><symbol overflow="visible" id="0c44adaaE"><path d="M1.45-2.95c0 2.56 1.08 4.37 3.67 4.84l.11-.67C3.28.86 2.43-.75 2.43-2.95s.85-3.82 2.8-4.16l-.1-.69c-2.6.49-3.68 2.3-3.68 4.85zm0 0"/></symbol><symbol overflow="visible" id="0c44adaaF"><path d="M1.45-7.1c1.96.33 2.8 1.94 2.8 4.15 0 2.2-.84 3.8-2.8 4.17l.11.67c2.58-.47 3.67-2.28 3.67-4.84 0-2.55-1.09-4.36-3.67-4.85zm0 0"/></symbol></defs><g fill="#515151"><use xlink:href="#0c44adaaa" x="64.6" y="154"/><use xlink:href="#0c44adaab" x="111.56" y="154"/></g><use xlink:href="#0c44adaac" x="153" y="154" fill="#fff"/><g fill="#515151"><use xlink:href="#0c44adaad" x="232.04" y="154"/><use xlink:href="#0c44adaae" x="271.88" y="154"/><use xlink:href="#0c44adaaf" x="319.8" y="154"/></g><use xlink:href="#0c44adaag" x="337.8" y="154" fill="#515151"/><use xlink:href="#0c44adaah" x="382.36" y="154" fill="#fff"/><g fill="#515151"><use xlink:href="#0c44adaai" x="459.88" y="154"/><use xlink:href="#0c44adaad" x="495.56" y="154"/></g><g fill="#fff"><use xlink:href="#0c44adaaj" x="233.3333" y="252"/><use xlink:href="#0c44adaak" x="240.0003" y="252"/><use xlink:href="#0c44adaal" x="246.6673" y="252"/><use xlink:href="#0c44adaam" x="253.3343" y="252"/><use xlink:href="#0c44adaan" x="260.0013" y="252"/><use xlink:href="#0c44adaao" x="266.6683" y="252"/><use xlink:href="#0c44adaap" x="273.3353" y="252"/><use xlink:href="#0c44adaaq" x="280.0023" y="252"/><use xlink:href="#0c44adaar" x="286.6693" y="252"/><use xlink:href="#0c44adaar" x="293.3363" y="252"/><use xlink:href="#0c44adaas" x="300.0033" y="252"/><use xlink:href="#0c44adaak" x="306.6703" y="252"/><use xlink:href="#0c44adaat" x="313.3373" y="252"/><use xlink:href="#0c44adaao" x="320.0043" y="252"/><use xlink:href="#0c44adaau" x="326.6713" y="252"/><use xlink:href="#0c44adaar" x="333.3383" y="252"/><use xlink:href="#0c44adaar" x="340.0053" y="252"/><use xlink:href="#0c44adaav" x="346.6723" y="252"/><use xlink:href="#0c44adaaw" x="353.3393" y="252"/><use xlink:href="#0c44adaak" x="360.0063" y="252"/></g><g fill="#fff"><use xlink:href="#0c44adaax" x="186.6667" y="266"/><use xlink:href="#0c44adaak" x="193.3337" y="266"/><use xlink:href="#0c44adaaq" x="200.0007" y="266"/><use xlink:href="#0c44adaam" x="206.6677" y="266"/><use xlink:href="#0c44adaay" x="213.3347" y="266"/><use xlink:href="#0c44adaaz" x="220.0017" y="266"/><use xlink:href="#0c44adaak" x="226.6687" y="266"/><use xlink:href="#0c44adaan" x="233.3357" y="266"/><use xlink:href="#0c44adaao" x="240.0027" y="266"/><use xlink:href="#0c44adaaA" x="246.6697" y="266"/><use xlink:href="#0c44adaam" x="253.3367" y="266"/><use xlink:href="#0c44adaaq" x="260.0037" y="266"/><use xlink:href="#0c44adaaB" x="266.6707" y="266"/><use xlink:href="#0c44adaat" x="273.3377" y="266"/><use xlink:href="#0c44adaaq" x="280.0047" y="266"/><use xlink:href="#0c44adaaz" x="286.6717" y="266"/><use xlink:href="#0c44adaat" x="293.3387" y="266"/><use xlink:href="#0c44adaao" x="300.0057" y="266"/><use xlink:href="#0c44adaas" x="306.6727" y="266"/><use xlink:href="#0c44adaav" x="313.3397" y="266"/><use xlink:href="#0c44adaaC" x="320.0067" y="266"/><use xlink:href="#0c44adaaq" x="326.6737" y="266"/><use xlink:href="#0c44adaam" x="333.3407" y="266"/><use xlink:href="#0c44adaay" x="340.0077" y="266"/><use xlink:href="#0c44adaaz" x="346.6747" y="266"/><use xlink:href="#0c44adaak" x="353.3417" y="266"/><use xlink:href="#0c44adaaD" x="360.0087" y="266"/><use xlink:href="#0c44adaao" x="366.6757" y="266"/><use xlink:href="#0c44adaaE" x="373.3427" y="266"/><use xlink:href="#0c44adaas" x="380.0097" y="266"/><use xlink:href="#0c44adaav" x="386.6767" y="266"/><use xlink:href="#0c44adaaC" x="393.3437" y="266"/><use xlink:href="#0c44adaaq" x="400.0107" y="266"/><use xlink:href="#0c44adaaF" x="406.6777" y="266"/></g></svg>