<?xml version='1.0' encoding='UTF-8'?>
<svg xmlns="http://www.w3.org/2000/svg" xmlns:xlink="http://www.w3.org/1999/xlink" width="600px" height="300px" viewBox="0 0 600 300" x="0px" y="0px" enable-background="new 0 0 600 300"><defs><symbol overflow="visible" id="d0a69349a"><path d="M43.77-2.4l2.71-.08c12.4-.32 18.08-9.44 18.08-19.75 0-13.77-9.84-25.05-28.97-25.05C18.23-47.28 4-36.48 4-20 4-3.6 16.8 7.2 34.23 7.2c5.7 0 11.05-1.28 15.46-3.51.62-.33 1.03-.64 1.03-1.2 0-.49-.31-.97-.56-1.37a37.5 37.5 0 01-15.28 3.36C20.55 4.48 9.68-6.56 9.68-20c0-13.52 10.88-24.56 25.2-24.56 15.2 0 24.07 9.6 24.07 23.51 0 6.97-2.54 15.61-11.03 15.61h-.97v-22.4c0-3.93-.54-6.64-2.87-8.47-1.44-1.2-2.88-1.92-6.4-1.92-2.73 0-6.73.71-10.32 2.54-2.64 1.38-5.28 3.28-5.28 5.61 0 1.85 1.51 3.03 4.87 3.03h1.85l.72-7.03c1.2-.23 2.64-.56 4.07-.56 3.93 0 6.82 2.23 6.82 6.56v5.03l-17.28 5.53a11.5 11.5 0 00-2.33 6.64c0 4.72 3.68 8.4 8.72 8.4 4.4 0 9.04-2.8 11.28-7.68zM40.4-19.85V-18c0 1.13-.1 3.52-.82 5.44-.87 2.15-3.03 5.69-6.87 5.69a4.9 4.9 0 01-5.03-4.97c0-2.32 1.1-5.2 5.83-6.32zm0 0"/></symbol><symbol overflow="visible" id="d0a69349b"><path d="M3.05-13.52v12.08C5.35-.3 12.48.96 17.28.96c10.08 0 15.77-5.52 15.77-12.55 0-6.97-4.49-9.36-12.1-14.9-6.87-4.95-8.3-7.2-8.3-10.46 0-2.74 2.07-5.28 6.47-5.28 2.4 0 6 .8 7.6 1.67l.48 6.25c.08 1.44.96 1.83 1.85 1.83.47 0 1.18-.24 1.6-.4l1.58-11.04A64.4 64.4 0 0020-45.28c-8.72 0-15.69 4.08-15.69 11.44 0 7.2 6.25 10.64 12.4 14.97 6.57 4.56 8.73 6.8 8.73 10.56 0 3.6-2.64 5.75-7.85 5.75-1.9 0-6.8-.4-8.23-.88L6.64-13.52zm0 0"/></symbol><symbol overflow="visible" id="d0a69349c"><path d="M9.6 0h21.76c1.28 0 1.92-.64 1.92-1.92v-1.85h-7.2v-37.67l12.23.96 1.53 6.89c.24 1.18.88 1.51 1.6 1.51.56 0 1.28-.33 1.76-.64v-11.6H1.7L.4-31.51H4l2.48-8.96 10.64-.96v37.2L9.6-2.71zm0 0"/></symbol><symbol overflow="visible" id="d0a69349d"><path d="M12.08 0H31.2c1.28 0 1.93-.64 1.93-1.92v-1.85h-5.77v-12.71L40.3-40.56h5.85v-1.85c0-1.28-.64-1.9-1.93-1.9H29.36v2.72l5.6 1.51-8.8 18.95-11.6-19.43h5.6v-1.85c0-1.28-.64-1.9-1.93-1.9H.16v2.72l5.6 1.51 12.72 23.36v12.49l-6.4 1.51zm0 0"/></symbol><symbol overflow="visible" id="d0a69349e"><path d="M3.69 0h34l2.8-13.84a3.53 3.53 0 00-2.08-.88c-.9 0-1.53.64-2.1 1.6l-5.44 9.35-12.23.72v-37.51h5.84v-1.85c0-1.28-.64-1.9-1.92-1.9H3.7v2.72l5.9 1.51v35.92L3.7-2.72zm0 0"/></symbol><symbol overflow="visible" id="d0a69349f"><path d="M3.28 0h19.6c1.28 0 1.92-.64 1.92-1.92v-1.85h-6.4v-36.8h6.08v-1.84c0-1.28-.64-1.9-1.92-1.9H3.28v2.72l6.31 1.51v35.85L3.3-2.72zm0 0"/></symbol><symbol overflow="visible" id="d0a69349g"><path d="M33.92 0h19.2c1.29 0 1.93-.64 1.93-1.92v-1.85h-5.77v-36.8h5.77v-1.84c0-1.28-.64-1.9-1.92-1.9h-19.2v2.72l6.3 1.51v15.77H18.72v-16.25h5.76v-1.85c0-1.28-.64-1.9-1.92-1.9H3.7v2.72l5.9 1.51v35.92L3.7-2.72V0h18.87c1.28 0 1.92-.64 1.92-1.92v-1.85h-5.76v-17.28h21.51v16.82l-6.3 1.51zm0 0"/></symbol><symbol overflow="visible" id="d0a69349h"><path d="M30.72 11.84v-.8C18.56 3.93 16.56-10.22 16.56-22.71c0-12.33 2.16-24.16 14.16-31.2v-.8c0-1.05-.64-1.51-1.67-1.51-3.2 0-7.93 3.35-11.13 6.8C12-43.2 8-34.57 8-21.44c0 13.12 4 21.74 9.92 28 3.2 3.43 7.92 6.79 11.13 6.79 1.03 0 1.67-.48 1.67-1.52zm0 0"/></symbol><symbol overflow="visible" id="d0a69349i"><path d="M1.2 0h24.57c1.28 0 1.92-.64 1.92-1.92v-1.85h-8.9v-41.1h-2.48L3.92-38.8c-1.76.8-2.48 1.36-2.48 2.24 0 .4.25.97.72 1.6L11.05-36v31.77L1.2-2.72zm0 0"/></symbol><symbol overflow="visible" id="d0a69349j"><path d="M30.64-17.92c-1.84 8.4-7.28 15.2-18.56 15.2-2.16 0-3.85-.23-6.8-1.2a4.76 4.76 0 00-.64 2.15C4.64.23 8 1.2 13.2 1.2c15.68 0 26.4-11.12 26.4-26.72 0-12-6.8-19.6-17.76-19.6-10.48 0-18.25 6.24-18.25 15.43 0 8.57 6.9 13.92 16.18 13.92 3.1 0 7.43-.71 10.87-2.15zm.48-3.44c-2.4.88-5.43 1.6-8.89 1.6-6 0-11.1-4.65-11.1-12.08 0-6 3.43-10.16 9.03-10.16 6.32 0 11.2 5.84 11.2 16.64 0 1.36-.08 2.64-.23 4zm0 0"/></symbol><symbol overflow="visible" id="d0a69349k"><path d="M30.16-23.84c4.8-2 8.8-6 8.8-11.04 0-6.4-5.76-10.56-14.32-10.56-7.77 0-16.72 4.16-16.72 11.85 0 3.51 2.08 6.87 7.44 10C8.64-21.2 4-16.5 4-10.95c0 7.43 7.05 12.3 17.52 12.3 10.07 0 18.96-5.27 18.96-13.5 0-4.97-3.43-8.26-10.32-11.7zm-3.44-1.68c-7.44-3.36-12.16-6.32-12.16-10.56 0-4.23 4.24-6.4 8-6.4 5.85 0 9.67 4.25 9.67 8.64 0 3.68-1.82 6.15-5.51 8.32zm-7.36 3.93C30-16.95 33.28-13.36 33.28-9.52c0 4-3.76 7.29-9.36 7.29-5.84 0-12.8-4.08-12.8-10.49 0-4.23 2.96-7.76 8.24-8.87zm0 0"/></symbol><symbol overflow="visible" id="d0a69349l"><path d="M30.48-38.23L6.88 0a6.65 6.65 0 003.68 1.28c2.56 0 4.16-1.36 6.16-5.05L34.95-36.8c2.4-4.33 2.74-5.36 2.74-7.92H3.92L3.6-32.48h3.13l.87-5.75zm0 0"/></symbol><symbol overflow="visible" id="d0a69349m"><path d="M-1.77 11.05v.8c0 1.03.65 1.5 1.7 1.5 3.2 0 7.91-3.35 11.12-6.79 5.9-6.25 9.9-14.87 9.9-29.28 0-11.84-4-20.48-9.9-26.72-3.2-3.44-7.93-6.8-11.13-6.8-1.04 0-1.69.47-1.69 1.52v.8c12 7.05 14.18 18.87 14.18 33.12 0 10.57-2 24.72-14.18 31.85zm0 0"/></symbol><symbol overflow="visible" id="d0a69349n"><path d="M12.8-14.31h3.12l3.77-32.81c-2.4-.88-3.92-1.29-5.38-1.29-2.8 0-4.95 1.61-4.95 4.64 0 2.18.72 7.77 3.44 29.46zm6.97 10.8c0-2.8-2.49-5.29-5.36-5.29a5.38 5.38 0 00-5.29 5.28 5.31 5.31 0 0010.65 0zm0 0"/></symbol><symbol overflow="visible" id="d0a69349o"><path d="M3.83 0v-5.95H6.2v-.82H.45v.82h2.4V0zm0 0"/></symbol><symbol overflow="visible" id="d0a69349p"><path d="M5.75-2.23v-.43c0-1.6-.9-2.51-2.42-2.51S.87-4.16.87-2.48c0 1.71.91 2.62 2.5 2.62 1.43 0 2.07-.56 2.29-1.52l-.9-.09c-.18.61-.59.9-1.35.9-.94 0-1.52-.54-1.58-1.66zm-2.4-2.2c.93 0 1.43.5 1.48 1.55H1.84c.08-1.07.6-1.56 1.5-1.56zm0 0"/></symbol><symbol overflow="visible" id="d0a69349q"><path d="M1.83 0l1.42-2h.06l1.46 2H5.8L4-2.53l1.78-2.49H4.8L3.42-3.08h-.08l-1.4-1.94H.89l1.78 2.49L.84 0zm0 0"/></symbol><symbol overflow="visible" id="d0a69349r"><path d="M5.52-4.25v-.77H3.17v-1.56h-.81l-.14 1.56H.75v.77h1.47v2.4c0 1.3.48 1.94 1.84 1.94C4.6.1 5.14 0 5.55-.14L5.4-.91c-.32.13-.72.2-1.13.2-.8 0-1.1-.37-1.1-1.23v-2.31zm0 0"/></symbol><symbol overflow="visible" id="d0a69349s"><path d="M3.33-3.42c.47 0 .8-.27.8-.8 0-.51-.33-.8-.8-.8-.47 0-.8.29-.8.8 0 .53.33.8.8.8zm0 3.5c.47 0 .8-.27.8-.78 0-.53-.33-.82-.8-.82-.47 0-.8.29-.8.82 0 .51.33.78.8.78zm0 0"/></symbol><symbol overflow="visible" id="d0a69349u"><path d="M5.42-3.63c-.15-.43-.51-.75-1.19-.75-.98 0-1.54.66-1.54 1.83 0 1.13.6 1.85 1.72 1.85 1.07 0 1.75-.61 1.75-1.93v-.65c0-2.06-.72-3.13-2.66-3.13C1.47-6.4.64-5.08.64-3.14v.94c0 2.06.92 3.26 3.22 3.26.6 0 1.22-.12 1.58-.28L5.3.25C4.94.41 4.42.5 3.86.5 1.96.5 1.3-.44 1.3-2.2v-.94c0-1.53.51-2.69 2.2-2.69 1.56 0 2.05.86 2.05 2.2zm-.98 2.35c-.69 0-1.02-.42-1.02-1.27 0-.86.33-1.23.99-1.23.7 0 1.01.44 1.01 1.22 0 .9-.36 1.28-.98 1.28zm0 0"/></symbol><symbol overflow="visible" id="d0a69349v"><path d="M3.42.14c1.61 0 2.56-.75 2.56-2 0-1.1-.67-1.6-1.95-1.86l-.97-.2c-.87-.17-1.23-.49-1.23-1.11 0-.7.54-1.11 1.5-1.11 1.06 0 1.51.34 1.69 1.23l.9-.09c-.17-1.28-.98-1.9-2.6-1.9C1.79-6.9.9-6.18.9-4.98c0 1.06.66 1.66 1.88 1.9l1.01.2c.85.17 1.25.4 1.25 1.09 0 .73-.6 1.16-1.6 1.16-1.07 0-1.66-.4-1.8-1.24l-.94.1C.83-.53 1.75.13 3.42.13zm0 0"/></symbol><symbol overflow="visible" id="d0a69349w"><path d="M3.42-.86h-.08L1.77-5.02H.8L2.73 0h.41c-.33.95-.72 1.27-1.45 1.27-.22 0-.49-.04-.69-.08l-.1.73c.2.06.58.11.87.11 1.2 0 1.7-.7 2.21-2.03l1.94-5.02H5zm0 0"/></symbol><symbol overflow="visible" id="d0a69349x"><path d="M3.92-7.14H1.36v.76h1.6v5.61H1.15V0H5.7v-.77H3.92zm0 0"/></symbol><symbol overflow="visible" id="d0a69349y"><path d="M3.58-5.81c.42 0 .72-.22.72-.67 0-.44-.3-.68-.72-.68-.44 0-.72.24-.72.68 0 .45.28.67.72.67zm.5.8H1.52v.76h1.6v3.48h-1.8V0h4.46v-.77h-1.7zm0 0"/></symbol><symbol overflow="visible" id="d0a69349z"><path d="M3.36.16c1.4 0 2.2-.6 2.2-1.57 0-.89-.54-1.22-1.47-1.39L3-3c-.67-.14-.86-.33-.86-.73 0-.5.4-.74 1.17-.74.83 0 1.19.27 1.27.8l.9-.05c-.12-1-.8-1.47-2.17-1.47-1.34 0-2.1.53-2.1 1.5 0 .81.45 1.22 1.52 1.44l1.04.2c.56.11.87.24.87.72 0 .52-.45.78-1.28.78-.95 0-1.36-.28-1.42-.87l-.9.06C1.07-.36 1.8.16 3.35.16zm0 0"/></symbol><symbol overflow="visible" id="d0a69349A"><path d="M2.16 0v-2.69c0-.98.6-1.6 1.46-1.6.74 0 1.07.4 1.07 1.2V0h.95v-3.31c0-1.17-.56-1.85-1.67-1.85-.9 0-1.44.46-1.75 1.08h-.06v-3.06H1.2V0zm0 0"/></symbol><symbol overflow="visible" id="d0a69349B"><path d="M1.45-2.95c0 2.56 1.08 4.37 3.67 4.84l.11-.67C3.28.86 2.43-.75 2.43-2.95s.85-3.82 2.8-4.16l-.1-.69c-2.6.49-3.68 2.3-3.68 4.85zm0 0"/></symbol><symbol overflow="visible" id="d0a69349C"><path d="M4.22-6.77h-.86l-2.03.7v.87c.64-.17 1.26-.38 1.89-.55v4.9H1.03V0h4.9v-.86H4.21zm0 0"/></symbol><symbol overflow="visible" id="d0a69349D"><path d="M3.25-6.9C1.67-6.9.77-6.04.77-4.6c0 1.41.85 2.18 2.21 2.18 1.04 0 1.58-.52 1.88-1.03h.06c0 1.54-.39 2.78-1.73 2.78-.9 0-1.24-.44-1.36-.97l-.97.1c.22.96.86 1.68 2.33 1.68C4.83.14 5.8-.9 5.8-3.64c0-2.22-.92-3.27-2.56-3.27zm-.02.8c.91 0 1.46.52 1.46 1.44 0 .91-.69 1.47-1.53 1.47-.91 0-1.46-.51-1.46-1.47S2.3-6.1 3.23-6.1zm0 0"/></symbol><symbol overflow="visible" id="d0a69349E"><path d="M3.33.16c1.69 0 2.69-.74 2.69-1.94 0-1.05-.8-1.58-1.43-1.72v-.05c.5-.14 1.2-.58 1.2-1.56 0-1.12-.95-1.81-2.46-1.81-1.52 0-2.46.69-2.46 1.81 0 .97.68 1.4 1.18 1.56v.05c-.6.14-1.4.64-1.4 1.72 0 1.2 1 1.94 2.68 1.94zm0-4.04c-.97 0-1.49-.43-1.49-1.12 0-.78.52-1.1 1.49-1.1.95 0 1.48.32 1.48 1.1 0 .69-.53 1.13-1.48 1.13zm0 3.24c-1.1 0-1.7-.42-1.7-1.25 0-.78.6-1.2 1.7-1.2s1.7.42 1.7 1.2c0 .83-.6 1.25-1.7 1.25zm0 0"/></symbol><symbol overflow="visible" id="d0a69349F"><path d="M.92-4.42h.88v-1.49h3.1v.05L2.27 0H3.3l2.64-6v-.77H.92zm0 0"/></symbol><symbol overflow="visible" id="d0a69349G"><path d="M1.45-7.1c1.96.33 2.8 1.94 2.8 4.15 0 2.2-.84 3.8-2.8 4.17l.11.67c2.58-.47 3.67-2.28 3.67-4.84 0-2.55-1.09-4.36-3.67-4.85zm0 0"/></symbol><symbol overflow="visible" id="d0a69349H"><path d="M3.72-1.77l.1-2.56v-2.81h-.96v2.81l.08 2.56zM3.32.08c.37 0 .6-.2.6-.58 0-.38-.23-.58-.6-.58-.35 0-.57.2-.57.58 0 .38.22.58.58.58zm0 0"/></symbol><symbol overflow="visible" id="d0a69349I"><path d="M5.95-6.77H1.1V0h.99v-2.92H5.3v-.77H2.08v-2.26h3.87zm0 0"/></symbol><symbol overflow="visible" id="d0a69349J"><path d="M2.83.14c.94 0 1.5-.39 1.81-.95h.08l.1.81h.76v-3.38c0-1.23-.69-1.8-2.13-1.8-1.43 0-2.03.65-2.18 1.6l.93.1c.11-.6.44-.93 1.22-.93.85 0 1.22.32 1.22 1.04v.34l-1.81.2C1.6-2.7 1.1-2.17 1.1-1.28c0 .92.64 1.42 1.72 1.42zm.25-.77c-.67 0-1.02-.28-1.02-.74 0-.44.28-.72 1-.82l1.58-.19v.41c0 .8-.6 1.34-1.56 1.34zm0 0"/></symbol><symbol overflow="visible" id="d0a69349K"><path d="M2.73.14c.9 0 1.43-.45 1.74-1.08h.06l.13.94h.8v-5.02h-.94v2.7c0 .98-.57 1.62-1.46 1.62-.75 0-1.1-.4-1.1-1.22v-3.1h-.93v3.32c0 1.17.55 1.84 1.7 1.84zm0 0"/></symbol><symbol overflow="visible" id="d0a69349L"><path d="M5.08-5.16c-.94 0-1.58.43-1.9 1.3h-.09l-.07-1.16H1.05v.77h1.1v3.48H.96V0h3.96v-.77H3.1v-1.46c0-1.36.6-2.05 1.83-2.05.4 0 .76.08 1.1.17l.15-.87c-.33-.11-.7-.18-1.11-.18zm0 0"/></symbol><symbol overflow="visible" id="d0a69349M"><path d="M1.63 0v-2.9c0-.8.15-1.4.71-1.4.41 0 .55.3.55.88V0h.95v-2.9c0-.8.18-1.4.72-1.4.4 0 .57.3.57.88V0h.95v-3.63c0-.92-.28-1.53-1.11-1.53-.63 0-.95.41-1.1.9h-.06c-.1-.52-.44-.9-1.08-.9-.6 0-.93.41-1.06.9H1.6l-.23-.76H.67V0zm0 0"/></symbol><symbol overflow="visible" id="d0a69349N"><path d="M3.34.14c1.43 0 2.13-.66 2.25-1.78l-.89-.1c-.1.7-.5 1.08-1.34 1.08-1.03 0-1.52-.64-1.52-1.84 0-1.23.47-1.86 1.52-1.86.84 0 1.23.36 1.34 1.08l.9-.1c-.13-1.09-.82-1.78-2.26-1.78-1.56 0-2.46.97-2.46 2.66 0 1.66.9 2.64 2.46 2.64zm0 0"/></symbol><symbol overflow="visible" id="d0a69349O"><path d="M2.06 1.9V-.84h.05c.28.58.8.97 1.77.97 1.5 0 2.2-.98 2.2-2.66 0-1.65-.7-2.64-2.19-2.64-.97 0-1.5.44-1.78 1.05h-.08l-.1-.9H1.1v6.9zm1.5-2.56c-1.06 0-1.53-.8-1.53-1.86 0-1.04.47-1.84 1.53-1.84 1.11 0 1.53.61 1.53 1.84 0 1.27-.42 1.86-1.53 1.86zm0 0"/></symbol><symbol overflow="visible" id="d0a69349P"><path d="M5.4-1.22c.43-.66.66-1.51.66-2.44l-.83-.09c0 .75-.14 1.4-.4 1.92l-1.7-1.83c.8-.42 1.39-.96 1.39-1.86 0-.87-.66-1.4-1.61-1.4-1.14 0-1.72.62-1.72 1.47 0 .72.47 1.3.83 1.68-.8.41-1.52.99-1.52 2.1C.5-.44 1.52.14 2.7.14c.9 0 1.64-.3 2.2-.78l.58.64h1.05zM2.86-6.25c.44 0 .82.23.82.73 0 .7-.47 1.11-1 1.41-.47-.53-.67-.92-.67-1.34 0-.47.3-.8.85-.8zM2.81-.62c-.83 0-1.42-.41-1.42-1.18 0-.76.5-1.18 1.05-1.5l1.94 2.1c-.4.37-.91.57-1.57.57zm0 0"/></symbol><symbol overflow="visible" id="d0a69349Q"><path d="M5.67 0v-.86H2.14V-.9L3.6-2c1.05-.83 2-1.68 2-2.91 0-1.19-.73-1.99-2.26-1.99-1.66 0-2.3 1.02-2.44 2.33l1 .08c.1-.92.42-1.58 1.44-1.58.87 0 1.26.44 1.26 1.24 0 .9-.8 1.53-1.96 2.53L.83-.81V0zm0 0"/></symbol></defs><g fill="#fff"><use xlink:href="#d0a69349a" x="120.48" y="114"/><use xlink:href="#d0a69349b" x="189.04" y="114"/><use xlink:href="#d0a69349c" x="224.56" y="114"/><use xlink:href="#d0a69349d" x="270.56" y="114"/><use xlink:href="#d0a69349e" x="316.88" y="114"/><use xlink:href="#d0a69349f" x="356.56" y="114"/><use xlink:href="#d0a69349b" x="385.12" y="114"/><use xlink:href="#d0a69349g" x="420.64" y="114"/><use xlink:href="#d0a69349h" x="181.68" y="194"/><use xlink:href="#d0a69349i" x="211.04" y="194"/><use xlink:href="#d0a69349j" x="239.12" y="194"/><use xlink:href="#d0a69349k" x="282.32" y="194"/><use xlink:href="#d0a69349l" x="323.6" y="194"/><use xlink:href="#d0a69349m" x="361.68" y="194"/><use xlink:href="#d0a69349n" x="390.24" y="194"/><use xlink:href="#d0a69349o" x="226.6667" y="252"/><use xlink:href="#d0a69349p" x="233.3337" y="252"/><use xlink:href="#d0a69349q" x="240.0007" y="252"/><use xlink:href="#d0a69349r" x="246.6677" y="252"/><use xlink:href="#d0a69349s" x="253.3347" y="252"/><use xlink:href="#d0a69349t" x="260.0017" y="252"/><use xlink:href="#d0a69349u" x="266.6687" y="252"/><use xlink:href="#d0a69349v" x="273.3357" y="252"/><use xlink:href="#d0a69349r" x="280.0027" y="252"/><use xlink:href="#d0a69349w" x="286.6697" y="252"/><use xlink:href="#d0a69349x" x="293.3367" y="252"/><use xlink:href="#d0a69349y" x="300.0037" y="252"/><use xlink:href="#d0a69349z" x="306.6707" y="252"/><use xlink:href="#d0a69349A" x="313.3377" y="252"/><use xlink:href="#d0a69349t" x="320.0047" y="252"/><use xlink:href="#d0a69349B" x="326.6717" y="252"/><use xlink:href="#d0a69349C" x="333.3387" y="252"/><use xlink:href="#d0a69349D" x="340.0057" y="252"/><use xlink:href="#d0a69349E" x="346.6727" y="252"/><use xlink:href="#d0a69349F" x="353.3397" y="252"/><use xlink:href="#d0a69349G" x="360.0067" y="252"/><use xlink:href="#d0a69349H" x="366.6737" y="252"/><g><use xlink:href="#d0a69349I" x="176.6667" y="266"/><use xlink:href="#d0a69349p" x="183.3337" y="266"/><use xlink:href="#d0a69349J" x="190.0007" y="266"/><use xlink:href="#d0a69349r" x="196.6677" y="266"/><use xlink:href="#d0a69349K" x="203.3347" y="266"/><use xlink:href="#d0a69349L" x="210.0017" y="266"/><use xlink:href="#d0a69349p" x="216.6687" y="266"/><use xlink:href="#d0a69349s" x="223.3357" y="266"/><use xlink:href="#d0a69349t" x="230.0027" y="266"/><use xlink:href="#d0a69349v" x="236.6697" y="266"/><use xlink:href="#d0a69349M" x="243.3367" y="266"/><use xlink:href="#d0a69349J" x="250.0037" y="266"/><use xlink:href="#d0a69349x" x="256.6707" y="266"/><use xlink:href="#d0a69349x" x="263.3377" y="266"/><use xlink:href="#d0a69349t" x="270.0047" y="266"/><use xlink:href="#d0a69349N" x="276.6717" y="266"/><use xlink:href="#d0a69349J" x="283.3387" y="266"/><use xlink:href="#d0a69349O" x="290.0057" y="266"/><use xlink:href="#d0a69349y" x="296.6727" y="266"/><use xlink:href="#d0a69349r" x="303.3397" y="266"/><use xlink:href="#d0a69349J" x="310.0067" y="266"/><use xlink:href="#d0a69349x" x="316.6737" y="266"/><use xlink:href="#d0a69349z" x="323.3407" y="266"/><use xlink:href="#d0a69349t" x="330.0077" y="266"/><use xlink:href="#d0a69349B" x="336.6747" y="266"/><use xlink:href="#d0a69349z" x="343.3417" y="266"/><use xlink:href="#d0a69349M" x="350.0087" y="266"/><use xlink:href="#d0a69349N" x="356.6757" y="266"/><use xlink:href="#d0a69349O" x="363.3427" y="266"/><use xlink:href="#d0a69349t" x="370.0097" y="266"/><use xlink:href="#d0a69349P" x="376.6767" y="266"/><use xlink:href="#d0a69349t" x="383.3437" y="266"/><use xlink:href="#d0a69349N" x="390.0107" y="266"/><use xlink:href="#d0a69349Q" x="396.6777" y="266"/><use xlink:href="#d0a69349z" x="403.3447" y="266"/><use xlink:href="#d0a69349N" x="410.0117" y="266"/><use xlink:href="#d0a69349G" x="416.6787" y="266"/></g></g></svg>