<?xml version='1.0' encoding='UTF-8'?>
<svg xmlns="http://www.w3.org/2000/svg" xmlns:xlink="http://www.w3.org/1999/xlink" width="600px" height="300px" viewBox="0 0 600 300" x="0px" y="0px" enable-background="new 0 0 600 300"><defs><symbol overflow="visible" id="905390b9a"><path d="M3.6 0H32.3c1.28 0 1.92-.64 1.92-1.92v-1.85H22.88v-49.67H20.4L5.05-45.2c-.9.48-1.05.89-1.05 1.28 0 .56.4 1.05.88 1.84l10.25-1.76v39.6L3.59-2.71zm0 0"/></symbol><symbol overflow="visible" id="905390b9b"><path d="M30.16-28.56c5.28-2.16 9.53-7.13 9.53-12.72 0-8.16-6.4-13.13-15.46-13.13-8.15 0-17.51 5.05-17.51 14.18 0 4.15 2.33 8.15 8.08 11.92-6.64 2.95-11.2 8.47-11.2 15.03 0 8.8 7.04 14.64 17.52 14.64 10.47 0 19.93-6.24 19.93-15.84 0-5.6-3.7-9.93-10.9-14.08zm-2.64-1.36C18.8-34.41 13.36-38 13.36-43.52c0-5.35 4.64-8.25 8.8-8.25 6.32 0 10.8 5.54 10.8 11.93 0 3.36-1.52 7.2-5.44 9.92zm-9.75 3.28c12.87 6.33 15.92 11.2 15.92 16 0 5.28-4.33 8.64-9.77 8.64-6.23 0-13.2-5.2-13.2-14.08 0-4.97 2.15-8.97 7.05-10.56zm0 0"/></symbol><symbol overflow="visible" id="905390b9c"><path d="M9.6-57.13a8.27 8.27 0 012.88-.64c3.29 0 5.83 2.97 5.83 7.46v.95L3.84-43.44a10.3 10.3 0 00-2.15 6c0 4.24 2.62 7.36 6.87 7.36 4.8 0 8.31-2.64 10.16-7.76l1.44 7.28 6.64-1.03c.8-.18 2.07-.25 2.07-1.77 0-.33-.07-1.05-.15-1.44h-3.2V-50c0-4.16-.57-7.05-2.88-8.95-1.44-1.2-3.44-2-6.72-2-2.4 0-6.08.87-9.04 2.8C4.3-56.57 2.8-54.8 2.8-53.14c0 1.29.64 2.41 3.68 2.41h2.4zm8.71 10.97v.72c0 4.49-1.9 10.88-6.47 10.88-1.76 0-3.43-1.6-3.43-4.4 0-2.09.87-3.91 4.07-5.04 2-.8 5.83-2.16 5.83-2.16zm0 0"/></symbol><symbol overflow="visible" id="905390b9e"><path d="M2 0h35.69v-15.92a2.6 2.6 0 00-1.28-.4c-1.2 0-1.7.8-2 1.91l-1.85 7.46L9.12-5.44C27.29-23.52 36-30.8 36-40.8c0-8.4-6.48-13.43-14.72-13.43-10.64 0-18.23 6.54-18.23 11.82 0 3.13 2 4 5.03 4h2.64v-10C11.84-49.05 14.4-50 16.8-50c6.56 0 10.64 4.72 10.64 11.44 0 5.28-1.85 10.8-9.2 18.64L4-5.6C2.08-3.6 2-2.31 2 0zm0 0"/></symbol><symbol overflow="visible" id="905390b9f"><path d="M27.05-12.88v8.65l-9.53 1.51V0h22.17c1.1 0 1.9-.56 1.9-1.84v-1.6h-7.28v-9.44h3.92c3.36 0 4.25-2.48 4.25-4.07v-.4h-8.17V-54h-1.75c-3.6 0-5.69 2.31-7.36 4.88l-24 33.2c0 2.56 1.85 3.04 4.96 3.04zm0-33.92v29.44H7.28zm0 0"/></symbol><symbol overflow="visible" id="905390b9g"><path d="M32.31-45.84c0-8.57-4.87-15.2-14.54-15.2-9.05 0-15.54 6.88-15.54 15.6 0 8.8 5.05 15.36 14.49 15.36 9.05 0 15.6-6.87 15.6-15.76zm-14.62 12c-5.92 0-8.25-6.4-8.25-12.32 0-7.28 2.4-11.28 7.2-11.28 6 0 8.31 6.31 8.31 12.31 0 6.9-2.39 11.29-7.26 11.29zm0 0"/></symbol><symbol overflow="visible" id="905390b9h"><path d="M3.83 0v-5.95H6.2v-.82H.45v.82h2.4V0zm0 0"/></symbol><symbol overflow="visible" id="905390b9i"><path d="M5.75-2.23v-.43c0-1.6-.9-2.51-2.42-2.51S.87-4.16.87-2.48c0 1.71.91 2.62 2.5 2.62 1.43 0 2.07-.56 2.29-1.52l-.9-.09c-.18.61-.59.9-1.35.9-.94 0-1.52-.54-1.58-1.66zm-2.4-2.2c.93 0 1.43.5 1.48 1.55H1.84c.08-1.07.6-1.56 1.5-1.56zm0 0"/></symbol><symbol overflow="visible" id="905390b9j"><path d="M1.83 0l1.42-2h.06l1.46 2H5.8L4-2.53l1.78-2.49H4.8L3.42-3.08h-.08l-1.4-1.94H.89l1.78 2.49L.84 0zm0 0"/></symbol><symbol overflow="visible" id="905390b9k"><path d="M5.52-4.25v-.77H3.17v-1.56h-.81l-.14 1.56H.75v.77h1.47v2.4c0 1.3.48 1.94 1.84 1.94C4.6.1 5.14 0 5.55-.14L5.4-.91c-.32.13-.72.2-1.13.2-.8 0-1.1-.37-1.1-1.23v-2.31zm0 0"/></symbol><symbol overflow="visible" id="905390b9l"><path d="M3.33-3.42c.47 0 .8-.27.8-.8 0-.51-.33-.8-.8-.8-.47 0-.8.29-.8.8 0 .53.33.8.8.8zm0 3.5c.47 0 .8-.27.8-.78 0-.53-.33-.82-.8-.82-.47 0-.8.29-.8.82 0 .51.33.78.8.78zm0 0"/></symbol><symbol overflow="visible" id="905390b9n"><path d="M4.22-6.77h-.86l-2.03.7v.87c.64-.17 1.26-.38 1.89-.55v4.9H1.03V0h4.9v-.86H4.21zm0 0"/></symbol><symbol overflow="visible" id="905390b9o"><path d="M3.33.16c1.69 0 2.69-.74 2.69-1.94 0-1.05-.8-1.58-1.43-1.72v-.05c.5-.14 1.2-.58 1.2-1.56 0-1.12-.95-1.81-2.46-1.81-1.52 0-2.46.69-2.46 1.81 0 .97.68 1.4 1.18 1.56v.05c-.6.14-1.4.64-1.4 1.72 0 1.2 1 1.94 2.68 1.94zm0-4.04c-.97 0-1.49-.43-1.49-1.12 0-.78.52-1.1 1.49-1.1.95 0 1.48.32 1.48 1.1 0 .69-.53 1.13-1.48 1.13zm0 3.24c-1.1 0-1.7-.42-1.7-1.25 0-.78.6-1.2 1.7-1.2s1.7.42 1.7 1.2c0 .83-.6 1.25-1.7 1.25zm0 0"/></symbol><symbol overflow="visible" id="905390b9p"><path d="M2.83.14c.94 0 1.5-.39 1.81-.95h.08l.1.81h.76v-3.38c0-1.23-.69-1.8-2.13-1.8-1.43 0-2.03.65-2.18 1.6l.93.1c.11-.6.44-.93 1.22-.93.85 0 1.22.32 1.22 1.04v.34l-1.81.2C1.6-2.7 1.1-2.17 1.1-1.28c0 .92.64 1.42 1.72 1.42zm.25-.77c-.67 0-1.02-.28-1.02-.74 0-.44.28-.72 1-.82l1.58-.19v.41c0 .8-.6 1.34-1.56 1.34zm0 0"/></symbol><symbol overflow="visible" id="905390b9q"><path d="M5.67 0v-.86H2.14V-.9L3.6-2c1.05-.83 2-1.68 2-2.91 0-1.19-.73-1.99-2.26-1.99-1.66 0-2.3 1.02-2.44 2.33l1 .08c.1-.92.42-1.58 1.44-1.58.87 0 1.26.44 1.26 1.24 0 .9-.8 1.53-1.96 2.53L.83-.81V0zm0 0"/></symbol><symbol overflow="visible" id="905390b9r"><path d="M5.1 0v-1.47H6v-.81h-.9v-4.49H3.8L.48-2.23v.76h3.66V0zM1.5-2.33l2.6-3.53h.04v3.58H1.5zm0 0"/></symbol><symbol overflow="visible" id="905390b9s"><path d="M3.33.14c1.62 0 2.5-.95 2.5-2.66 0-1.68-.88-2.64-2.5-2.64-1.63 0-2.5.96-2.5 2.64 0 1.7.87 2.66 2.5 2.66zm0-.77c-1.06 0-1.52-.6-1.52-1.89 0-1.28.46-1.87 1.52-1.87 1.08 0 1.53.6 1.53 1.87 0 1.29-.45 1.9-1.53 1.9zm0 0"/></symbol><symbol overflow="visible" id="905390b9t"><path d="M5.95-6.77H1.1V0h.99v-2.92H5.3v-.77H2.08v-2.26h3.87zm0 0"/></symbol><symbol overflow="visible" id="905390b9u"><path d="M2.73.14c.9 0 1.43-.45 1.74-1.08h.06l.13.94h.8v-5.02h-.94v2.7c0 .98-.57 1.62-1.46 1.62-.75 0-1.1-.4-1.1-1.22v-3.1h-.93v3.32c0 1.17.55 1.84 1.7 1.84zm0 0"/></symbol><symbol overflow="visible" id="905390b9v"><path d="M5.08-5.16c-.94 0-1.58.43-1.9 1.3h-.09l-.07-1.16H1.05v.77h1.1v3.48H.96V0h3.96v-.77H3.1v-1.46c0-1.36.6-2.05 1.83-2.05.4 0 .76.08 1.1.17l.15-.87c-.33-.11-.7-.18-1.11-.18zm0 0"/></symbol><symbol overflow="visible" id="905390b9w"><path d="M3.33.14c1.9 0 2.76-1.27 2.76-3.52 0-2.26-.86-3.53-2.76-3.53S.58-5.64.58-3.37c0 2.25.86 3.51 2.75 3.51zM3.3-.67c-1.25 0-1.73-.95-1.73-2.7 0-1.77.5-2.72 1.75-2.72s1.75.95 1.75 2.71c0 1.75-.5 2.7-1.77 2.7zm0 0"/></symbol><symbol overflow="visible" id="905390b9x"><path d="M2.84.14C3.8.14 4.33-.26 4.6-.9h.07L4.8 0h.76v-7.14h-.95v2.95h-.08c-.28-.6-.86-.97-1.67-.97-1.48 0-2.27.99-2.27 2.64C.6-.84 1.36.14 2.84.14zm.22-.8c-.98 0-1.48-.59-1.48-1.84s.5-1.86 1.48-1.86c1.13 0 1.58.8 1.58 1.86S4.2-.66 3.06-.66zm0 0"/></symbol><symbol overflow="visible" id="905390b9y"><path d="M3.58-5.81c.42 0 .72-.22.72-.67 0-.44-.3-.68-.72-.68-.44 0-.72.24-.72.68 0 .45.28.67.72.67zm.5.8H1.52v.76h1.6v3.48h-1.8V0h4.46v-.77h-1.7zm0 0"/></symbol><symbol overflow="visible" id="905390b9z"><path d="M2.16 0v-2.67c0-.99.59-1.63 1.46-1.63.74 0 1.07.38 1.07 1.22V0h.95v-3.31c0-1.2-.56-1.85-1.67-1.85-.92 0-1.49.46-1.77 1.08h-.06l-.12-.94H1.2V0zm0 0"/></symbol><symbol overflow="visible" id="905390b9A"><path d="M3.92-7.14H1.36v.76h1.6v5.61H1.15V0H5.7v-.77H3.92zm0 0"/></symbol><symbol overflow="visible" id="905390b9B"><path d="M3.36.16c1.4 0 2.2-.6 2.2-1.57 0-.89-.54-1.22-1.47-1.39L3-3c-.67-.14-.86-.33-.86-.73 0-.5.4-.74 1.17-.74.83 0 1.19.27 1.27.8l.9-.05c-.12-1-.8-1.47-2.17-1.47-1.34 0-2.1.53-2.1 1.5 0 .81.45 1.22 1.52 1.44l1.04.2c.56.11.87.24.87.72 0 .52-.45.78-1.28.78-.95 0-1.36-.28-1.42-.87l-.9.06C1.07-.36 1.8.16 3.35.16zm0 0"/></symbol><symbol overflow="visible" id="905390b9C"><path d="M1.45-2.95c0 2.56 1.08 4.37 3.67 4.84l.11-.67C3.28.86 2.43-.75 2.43-2.95s.85-3.82 2.8-4.16l-.1-.69c-2.6.49-3.68 2.3-3.68 4.85zm0 0"/></symbol><symbol overflow="visible" id="905390b9D"><path d="M1.45-7.1c1.96.33 2.8 1.94 2.8 4.15 0 2.2-.84 3.8-2.8 4.17l.11.67c2.58-.47 3.67-2.28 3.67-4.84 0-2.55-1.09-4.36-3.67-4.85zm0 0"/></symbol></defs><g fill="#515151"><use xlink:href="#905390b9a" x="174.52" y="154"/><use xlink:href="#905390b9b" x="210.36" y="154"/></g><use xlink:href="#905390b9c" x="255" y="154" fill="#fff"/><g fill="#515151"><use xlink:href="#905390b9d" x="284.68" y="154"/><use xlink:href="#905390b9e" x="303.08" y="154"/><use xlink:href="#905390b9f" x="345.16" y="154"/></g><use xlink:href="#905390b9g" x="391.24" y="154" fill="#fff"/><g fill="#fff"><use xlink:href="#905390b9h" x="256.6667" y="252"/><use xlink:href="#905390b9i" x="263.3337" y="252"/><use xlink:href="#905390b9j" x="270.0007" y="252"/><use xlink:href="#905390b9k" x="276.6677" y="252"/><use xlink:href="#905390b9l" x="283.3347" y="252"/><use xlink:href="#905390b9m" x="290.0017" y="252"/><use xlink:href="#905390b9n" x="296.6687" y="252"/><use xlink:href="#905390b9o" x="303.3357" y="252"/><use xlink:href="#905390b9p" x="310.0027" y="252"/><use xlink:href="#905390b9m" x="316.6697" y="252"/><use xlink:href="#905390b9q" x="323.3367" y="252"/><use xlink:href="#905390b9r" x="330.0037" y="252"/><use xlink:href="#905390b9s" x="336.6707" y="252"/></g><g fill="#fff"><use xlink:href="#905390b9t" x="220" y="266"/><use xlink:href="#905390b9i" x="226.667" y="266"/><use xlink:href="#905390b9p" x="233.334" y="266"/><use xlink:href="#905390b9k" x="240.001" y="266"/><use xlink:href="#905390b9u" x="246.668" y="266"/><use xlink:href="#905390b9v" x="253.335" y="266"/><use xlink:href="#905390b9i" x="260.002" y="266"/><use xlink:href="#905390b9l" x="266.669" y="266"/><use xlink:href="#905390b9m" x="273.336" y="266"/><use xlink:href="#905390b9w" x="280.003" y="266"/><use xlink:href="#905390b9v" x="286.67" y="266"/><use xlink:href="#905390b9x" x="293.337" y="266"/><use xlink:href="#905390b9y" x="300.004" y="266"/><use xlink:href="#905390b9z" x="306.671" y="266"/><use xlink:href="#905390b9p" x="313.338" y="266"/><use xlink:href="#905390b9A" x="320.005" y="266"/><use xlink:href="#905390b9B" x="326.672" y="266"/><use xlink:href="#905390b9m" x="333.339" y="266"/><use xlink:href="#905390b9C" x="340.006" y="266"/><use xlink:href="#905390b9s" x="346.673" y="266"/><use xlink:href="#905390b9v" x="353.34" y="266"/><use xlink:href="#905390b9x" x="360.007" y="266"/><use xlink:href="#905390b9z" x="366.674" y="266"/><use xlink:href="#905390b9D" x="373.341" y="266"/></g></svg>