<?xml version='1.0' encoding='UTF-8'?>
<svg xmlns="http://www.w3.org/2000/svg" xmlns:xlink="http://www.w3.org/1999/xlink" width="600px" height="300px" viewBox="0 0 600 300" x="0px" y="0px" enable-background="new 0 0 600 300"><defs><symbol overflow="visible" id="9cd8e203a"><path d="M10.8 0h22.48c1.28 0 1.92-.64 1.92-1.92v-1.85h-7.6V-51.2l14.17 1.12 1.67 7.85c.33 1.59 1.04 2.23 2.25 2.23.54 0 1.36-.23 1.83-.64v-13.6H.87L-.23-40h3.82l2.97-10.08L18.8-51.2v46.97l-8 1.51zm0 0"/></symbol><symbol overflow="visible" id="9cd8e203b"><path d="M21.6 1.44c11.52 0 19.76-9.28 19.76-21.52 0-11.84-6.16-20.87-18.56-20.87-11.44 0-19.6 9.26-19.6 21.36C3.2-7.52 9.52 1.44 21.6 1.44zm1.2-3.75c-8.16 0-11.11-9.38-11.11-18 0-10.74 3.03-16.9 9.9-16.9 8.33 0 11.29 9.29 11.29 18 0 10.26-3.04 16.9-10.08 16.9zm0 0"/></symbol><symbol overflow="visible" id="9cd8e203c"><path d="M7.2-35.28v23.92c0 3.28.32 5.67 1.11 7.52 2 4.48 6.17 5.04 9.13 5.04 3.36 0 6.56-1.28 8.72-2.8 1.68-1.12 2.71-2.4 2.71-3.27 0-.57-.3-1.05-.87-1.54-2.23 1.46-4.31 2.57-7.28 2.57-2.49 0-5.52-1.04-5.52-8.24v-23.2h10.24c1.51 0 2.15-.72 2.15-2.4v-1.76H14.8v-7.76c0-1.75-.79-2.96-2.56-2.96-.54 0-1.36.16-2 .4l-3.03 9.2-6.15 1.51v3.77zm0 0"/></symbol><symbol overflow="visible" id="9cd8e203d"><path d="M27.2.48l9.2-.96c1.04-.08 2.96-.4 2.96-2.4 0-.4-.08-1.12-.16-1.53h-6.08v-24.23c0-4.64-.64-7.84-3.2-10-1.6-1.36-3.92-2.23-7.84-2.23-3.03 0-7.52.8-11.52 2.95-2.87 1.6-5.84 3.92-5.84 6.64 0 2.16 1.69 3.6 5.44 3.6h2l.8-8.32c1.35-.31 2.96-.64 4.56-.64 4.4 0 7.6 2.64 7.6 7.69v5.9L5.6-16.48c-.64.96-2.54 3.92-2.54 7.76 0 5.6 3.67 9.92 9.9 9.92 4.97 0 10.1-3.28 12.57-9.04zm-2.07-20v2.24c0 1.44-.18 4.33-.97 6.56-.96 2.64-3.36 6.95-7.6 6.95-3.28 0-5.76-2.54-5.76-6 0-2.8 1.28-6.23 6.64-7.67zm0 0"/></symbol><symbol overflow="visible" id="9cd8e203e"><path d="M2.31 0h18.17c1.29 0 1.93-.64 1.93-1.92v-1.85h-5.85v-56.95L4.72-60c-1.67.08-2.24 1.13-2.24 2.64v.95l6.08.64v51.54L2.31-2.72zm0 0"/></symbol><symbol overflow="visible" id="9cd8e203f"><path d="M16.8-32.64A5.49 5.49 0 0011.36-38 5.42 5.42 0 006-32.64c0 2.87 2.4 5.28 5.36 5.28 2.95 0 5.44-2.4 5.44-5.28zm0 26.4c0-2.88-2.49-5.35-5.44-5.35A5.4 5.4 0 006-6.23C6-3.36 8.4-.95 11.36-.95c2.95 0 5.44-2.4 5.44-5.28zm0 0"/></symbol><symbol overflow="visible" id="9cd8e203g"><path d="M30.56-28.56c5.28-2.16 9.52-7.13 9.52-12.72 0-8.16-6.4-13.13-15.44-13.13-8.16 0-17.52 5.05-17.52 14.18 0 4.15 2.32 8.15 8.08 11.92C8.56-25.36 4-19.84 4-13.28c0 8.8 7.05 14.64 17.52 14.64 10.48 0 19.92-6.24 19.92-15.84 0-5.6-3.67-9.93-10.88-14.08zm-2.64-1.36C19.2-34.41 13.77-38 13.77-43.52c0-5.35 4.64-8.25 8.8-8.25 6.3 0 10.79 5.54 10.79 11.93 0 3.36-1.52 7.2-5.44 9.92zm-9.76 3.28c12.96 6.48 15.92 11.2 15.92 16C34.08-5.36 29.77-2 24.3-2c-6.23 0-13.18-5.2-13.18-14.08 0-4.97 2.15-8.97 7.03-10.56zm0 0"/></symbol><symbol overflow="visible" id="9cd8e203h"><path d="M8 18.64h4.88v-79.77H8zm0 0"/></symbol><symbol overflow="visible" id="9cd8e203i"><path d="M13.52-2.72v-8.97a5.4 5.4 0 00-3.11-.95c-2.9 0-4.97 1.77-4.97 4.64 0 5.36 4.72 9.52 13.84 9.52 11.6 0 20.95-8.8 20.95-19.75 0-7.85-5.43-15.54-15.51-15.54-4 0-7.36.82-11.84 2.97v-16h18.4c2.56 0 6.24-.33 6.24-6.64H10L7.69-25.69h2.15c1.68 0 2.57-.8 3.6-1.43a13.58 13.58 0 017.51-2.24c7.61 0 11.28 7.36 11.28 13.67 0 9.92-6.07 14.49-12.07 14.49-3.68 0-5.36-1.03-6.64-1.52zm0 0"/></symbol><symbol overflow="visible" id="9cd8e203j"><path d="M8.4 0h28.73c1.28 0 1.92-.64 1.92-1.92v-1.85H27.69v-49.67H25.2L8-43.92c-.88.48-1.05.87-1.05 1.28 0 .56.4 1.05.9 1.84l12.07-3.04v39.6L8.41-2.71zm0 0"/></symbol><symbol overflow="visible" id="9cd8e203k"><path d="M37.28-49.13c.56-.46.8-.95.8-1.51 0-1.67-2.08-3.28-8.16-3.28C16.48-53.92 4-39.7 4-21.36 4-8.3 10.72 1.04 22.64 1.04c10.72 0 19.13-7.84 19.13-18.73 0-10.54-7.77-16.62-16.65-16.62a18.7 18.7 0 00-12.71 4.62C13.5-42.64 22.23-50.4 30-50.4c1.92 0 3.77.18 7.28 1.28zM24.08-1.69c-7.36 0-11.85-8.54-11.85-17.36 0-7.26 4.08-11.43 9.93-11.43 6.4 0 12 6.4 12 15.76 0 8.49-4.4 13.03-10.08 13.03zm0 0"/></symbol><symbol overflow="visible" id="9cd8e203l"><path d="M3.83 0v-5.95H6.2v-.82H.45v.82h2.4V0zm0 0"/></symbol><symbol overflow="visible" id="9cd8e203m"><path d="M5.75-2.23v-.43c0-1.6-.9-2.51-2.42-2.51S.87-4.16.87-2.48c0 1.71.91 2.62 2.5 2.62 1.43 0 2.07-.56 2.29-1.52l-.9-.09c-.18.61-.59.9-1.35.9-.94 0-1.52-.54-1.58-1.66zm-2.4-2.2c.93 0 1.43.5 1.48 1.55H1.84c.08-1.07.6-1.56 1.5-1.56zm0 0"/></symbol><symbol overflow="visible" id="9cd8e203n"><path d="M1.83 0l1.42-2h.06l1.46 2H5.8L4-2.53l1.78-2.49H4.8L3.42-3.08h-.08l-1.4-1.94H.89l1.78 2.49L.84 0zm0 0"/></symbol><symbol overflow="visible" id="9cd8e203o"><path d="M5.52-4.25v-.77H3.17v-1.56h-.81l-.14 1.56H.75v.77h1.47v2.4c0 1.3.48 1.94 1.84 1.94C4.6.1 5.14 0 5.55-.14L5.4-.91c-.32.13-.72.2-1.13.2-.8 0-1.1-.37-1.1-1.23v-2.31zm0 0"/></symbol><symbol overflow="visible" id="9cd8e203p"><path d="M3.33-3.42c.47 0 .8-.27.8-.8 0-.51-.33-.8-.8-.8-.47 0-.8.29-.8.8 0 .53.33.8.8.8zm0 3.5c.47 0 .8-.27.8-.78 0-.53-.33-.82-.8-.82-.47 0-.8.29-.8.82 0 .51.33.78.8.78zm0 0"/></symbol><symbol overflow="visible" id="9cd8e203r"><path d="M3.33.14c1.62 0 2.5-.95 2.5-2.66 0-1.68-.88-2.64-2.5-2.64-1.63 0-2.5.96-2.5 2.64 0 1.7.87 2.66 2.5 2.66zm0-.77c-1.06 0-1.52-.6-1.52-1.89 0-1.28.46-1.87 1.52-1.87 1.08 0 1.53.6 1.53 1.87 0 1.29-.45 1.9-1.53 1.9zm0 0"/></symbol><symbol overflow="visible" id="9cd8e203s"><path d="M2.83.14c.94 0 1.5-.39 1.81-.95h.08l.1.81h.76v-3.38c0-1.23-.69-1.8-2.13-1.8-1.43 0-2.03.65-2.18 1.6l.93.1c.11-.6.44-.93 1.22-.93.85 0 1.22.32 1.22 1.04v.34l-1.81.2C1.6-2.7 1.1-2.17 1.1-1.28c0 .92.64 1.42 1.72 1.42zm.25-.77c-.67 0-1.02-.28-1.02-.74 0-.44.28-.72 1-.82l1.58-.19v.41c0 .8-.6 1.34-1.56 1.34zm0 0"/></symbol><symbol overflow="visible" id="9cd8e203t"><path d="M3.92-7.14H1.36v.76h1.6v5.61H1.15V0H5.7v-.77H3.92zm0 0"/></symbol><symbol overflow="visible" id="9cd8e203u"><path d="M3.33.16c1.69 0 2.69-.74 2.69-1.94 0-1.05-.8-1.58-1.43-1.72v-.05c.5-.14 1.2-.58 1.2-1.56 0-1.12-.95-1.81-2.46-1.81-1.52 0-2.46.69-2.46 1.81 0 .97.68 1.4 1.18 1.56v.05c-.6.14-1.4.64-1.4 1.72 0 1.2 1 1.94 2.68 1.94zm0-4.04c-.97 0-1.49-.43-1.49-1.12 0-.78.52-1.1 1.49-1.1.95 0 1.48.32 1.48 1.1 0 .69-.53 1.13-1.48 1.13zm0 3.24c-1.1 0-1.7-.42-1.7-1.25 0-.78.6-1.2 1.7-1.2s1.7.42 1.7 1.2c0 .83-.6 1.25-1.7 1.25zm0 0"/></symbol><symbol overflow="visible" id="9cd8e203v"><path d="M3.42.14c1.55 0 2.44-.84 2.44-2.33 0-1.45-.83-2.22-2.14-2.22-.75 0-1.28.27-1.67.72H2l.31-2.22h3.11v-.86H1.53l-.45 3.93h.81c.3-.36.9-.79 1.58-.79.92 0 1.44.43 1.44 1.47 0 .99-.54 1.5-1.49 1.5-.83 0-1.28-.32-1.5-1.01l-.95.1C1.07-.46 2 .13 3.42.13zm0 0"/></symbol><symbol overflow="visible" id="9cd8e203w"><path d="M4.22-6.77h-.86l-2.03.7v.87c.64-.17 1.26-.38 1.89-.55v4.9H1.03V0h4.9v-.86H4.21zm0 0"/></symbol><symbol overflow="visible" id="9cd8e203x"><path d="M3.42.14c1.58 0 2.49-.86 2.49-2.3 0-1.42-.86-2.17-2.22-2.17-1.03 0-1.58.5-1.9 1.02h-.04c.03-1.63.4-2.77 1.73-2.77.91 0 1.24.44 1.36.96l.97-.11c-.23-.96-.86-1.68-2.33-1.68C1.84-6.9.86-5.86.86-3.1.86-.9 1.78.14 3.42.14zm.02-.78c-.9 0-1.47-.55-1.47-1.47 0-.9.7-1.47 1.53-1.47.92 0 1.47.52 1.47 1.47 0 .97-.6 1.47-1.53 1.47zm0 0"/></symbol><symbol overflow="visible" id="9cd8e203y"><path d="M5.95-6.77H1.1V0h.99v-2.92H5.3v-.77H2.08v-2.26h3.87zm0 0"/></symbol><symbol overflow="visible" id="9cd8e203z"><path d="M2.73.14c.9 0 1.43-.45 1.74-1.08h.06l.13.94h.8v-5.02h-.94v2.7c0 .98-.57 1.62-1.46 1.62-.75 0-1.1-.4-1.1-1.22v-3.1h-.93v3.32c0 1.17.55 1.84 1.7 1.84zm0 0"/></symbol><symbol overflow="visible" id="9cd8e203A"><path d="M5.08-5.16c-.94 0-1.58.43-1.9 1.3h-.09l-.07-1.16H1.05v.77h1.1v3.48H.96V0h3.96v-.77H3.1v-1.46c0-1.36.6-2.05 1.83-2.05.4 0 .76.08 1.1.17l.15-.87c-.33-.11-.7-.18-1.11-.18zm0 0"/></symbol><symbol overflow="visible" id="9cd8e203B"><path d="M3.9.14c1.48 0 2.18-.98 2.18-2.64 0-1.67-.7-2.66-2.17-2.66-.91 0-1.49.41-1.79 1h-.06v-2.98h-.95V0h.81l.11-.9h.06c.29.63.82 1.04 1.82 1.04zm-.32-.8c-1.08 0-1.55-.8-1.55-1.84 0-1.06.47-1.86 1.55-1.86 1.1 0 1.51.61 1.51 1.86S4.64-.66 3.58-.66zm0 0"/></symbol><symbol overflow="visible" id="9cd8e203C"><path d="M3.58-5.81c.42 0 .72-.22.72-.67 0-.44-.3-.68-.72-.68-.44 0-.72.24-.72.68 0 .45.28.67.72.67zm.5.8H1.52v.76h1.6v3.48h-1.8V0h4.46v-.77h-1.7zm0 0"/></symbol><symbol overflow="visible" id="9cd8e203D"><path d="M2.16 0v-2.67c0-.99.59-1.63 1.46-1.63.74 0 1.07.38 1.07 1.22V0h.95v-3.31c0-1.2-.56-1.85-1.67-1.85-.92 0-1.49.46-1.77 1.08h-.06l-.12-.94H1.2V0zm0 0"/></symbol><symbol overflow="visible" id="9cd8e203E"><path d="M3.16 2.03c1.67 0 2.4-.86 2.4-2.51v-4.54h-.81l-.13.91h-.06c-.26-.58-.8-1.05-1.73-1.05-1.42 0-2.24 1-2.24 2.52 0 1.6.75 2.56 2.2 2.56.94 0 1.5-.5 1.77-1.03h.05v.72c0 1.17-.42 1.67-1.45 1.67-.93 0-1.3-.34-1.41-.89L.8.5c.12.96.87 1.54 2.36 1.54zM3.06-.8c-.98 0-1.48-.57-1.48-1.82 0-1.13.5-1.75 1.48-1.75 1.06 0 1.58.76 1.58 1.75 0 .95-.56 1.82-1.58 1.82zm0 0"/></symbol><symbol overflow="visible" id="9cd8e203F"><path d="M1.63 0v-2.9c0-.8.15-1.4.71-1.4.41 0 .55.3.55.88V0h.95v-2.9c0-.8.18-1.4.72-1.4.4 0 .57.3.57.88V0h.95v-3.63c0-.92-.28-1.53-1.11-1.53-.63 0-.95.41-1.1.9h-.06c-.1-.52-.44-.9-1.08-.9-.6 0-.93.41-1.06.9H1.6l-.23-.76H.67V0zm0 0"/></symbol><symbol overflow="visible" id="9cd8e203G"><path d="M3.36.16c1.4 0 2.2-.6 2.2-1.57 0-.89-.54-1.22-1.47-1.39L3-3c-.67-.14-.86-.33-.86-.73 0-.5.4-.74 1.17-.74.83 0 1.19.27 1.27.8l.9-.05c-.12-1-.8-1.47-2.17-1.47-1.34 0-2.1.53-2.1 1.5 0 .81.45 1.22 1.52 1.44l1.04.2c.56.11.87.24.87.72 0 .52-.45.78-1.28.78-.95 0-1.36-.28-1.42-.87l-.9.06C1.07-.36 1.8.16 3.35.16zm0 0"/></symbol><symbol overflow="visible" id="9cd8e203H"><path d="M1.45-2.95c0 2.56 1.08 4.37 3.67 4.84l.11-.67C3.28.86 2.43-.75 2.43-2.95s.85-3.82 2.8-4.16l-.1-.69c-2.6.49-3.68 2.3-3.68 4.85zm0 0"/></symbol><symbol overflow="visible" id="9cd8e203I"><path d="M1.45-7.1c1.96.33 2.8 1.94 2.8 4.15 0 2.2-.84 3.8-2.8 4.17l.11.67c2.58-.47 3.67-2.28 3.67-4.84 0-2.55-1.09-4.36-3.67-4.85zm0 0"/></symbol></defs><use xlink:href="#9cd8e203a" x="69.2" y="154" fill="#515151"/><g fill="#515151"><use xlink:href="#9cd8e203b" x="114" y="154"/><use xlink:href="#9cd8e203c" x="158.56" y="154"/><use xlink:href="#9cd8e203d" x="187.6" y="154"/><use xlink:href="#9cd8e203e" x="229.04" y="154"/><use xlink:href="#9cd8e203f" x="254.16" y="154"/></g><use xlink:href="#9cd8e203g" x="292.16" y="154" fill="#fff"/><use xlink:href="#9cd8e203h" x="336.16" y="154" fill="#515151"/><use xlink:href="#9cd8e203i" x="357.04" y="154" fill="#fff"/><use xlink:href="#9cd8e203h" x="401.04" y="154" fill="#515151"/><use xlink:href="#9cd8e203j" x="421.92" y="154" fill="#fff"/><use xlink:href="#9cd8e203h" x="465.92" y="154" fill="#515151"/><use xlink:href="#9cd8e203k" x="486.8" y="154" fill="#fff"/><g fill="#fff"><use xlink:href="#9cd8e203l" x="243.3333" y="252"/><use xlink:href="#9cd8e203m" x="250.0003" y="252"/><use xlink:href="#9cd8e203n" x="256.6673" y="252"/><use xlink:href="#9cd8e203o" x="263.3343" y="252"/><use xlink:href="#9cd8e203p" x="270.0013" y="252"/><use xlink:href="#9cd8e203q" x="276.6683" y="252"/><use xlink:href="#9cd8e203l" x="283.3353" y="252"/><use xlink:href="#9cd8e203r" x="290.0023" y="252"/><use xlink:href="#9cd8e203o" x="296.6693" y="252"/><use xlink:href="#9cd8e203s" x="303.3363" y="252"/><use xlink:href="#9cd8e203t" x="310.0033" y="252"/><use xlink:href="#9cd8e203p" x="316.6703" y="252"/><use xlink:href="#9cd8e203q" x="323.3373" y="252"/><use xlink:href="#9cd8e203u" x="330.0043" y="252"/><use xlink:href="#9cd8e203v" x="336.6713" y="252"/><use xlink:href="#9cd8e203w" x="343.3383" y="252"/><use xlink:href="#9cd8e203x" x="350.0053" y="252"/></g><g fill="#fff"><use xlink:href="#9cd8e203y" x="170" y="266"/><use xlink:href="#9cd8e203m" x="176.667" y="266"/><use xlink:href="#9cd8e203s" x="183.334" y="266"/><use xlink:href="#9cd8e203o" x="190.001" y="266"/><use xlink:href="#9cd8e203z" x="196.668" y="266"/><use xlink:href="#9cd8e203A" x="203.335" y="266"/><use xlink:href="#9cd8e203m" x="210.002" y="266"/><use xlink:href="#9cd8e203p" x="216.669" y="266"/><use xlink:href="#9cd8e203q" x="223.336" y="266"/><use xlink:href="#9cd8e203l" x="230.003" y="266"/><use xlink:href="#9cd8e203s" x="236.67" y="266"/><use xlink:href="#9cd8e203B" x="243.337" y="266"/><use xlink:href="#9cd8e203z" x="250.004" y="266"/><use xlink:href="#9cd8e203t" x="256.671" y="266"/><use xlink:href="#9cd8e203s" x="263.338" y="266"/><use xlink:href="#9cd8e203A" x="270.005" y="266"/><use xlink:href="#9cd8e203q" x="276.672" y="266"/><use xlink:href="#9cd8e203t" x="283.339" y="266"/><use xlink:href="#9cd8e203C" x="290.006" y="266"/><use xlink:href="#9cd8e203D" x="296.673" y="266"/><use xlink:href="#9cd8e203C" x="303.34" y="266"/><use xlink:href="#9cd8e203D" x="310.007" y="266"/><use xlink:href="#9cd8e203E" x="316.674" y="266"/><use xlink:href="#9cd8e203q" x="323.341" y="266"/><use xlink:href="#9cd8e203D" x="330.008" y="266"/><use xlink:href="#9cd8e203z" x="336.675" y="266"/><use xlink:href="#9cd8e203F" x="343.342" y="266"/><use xlink:href="#9cd8e203m" x="350.009" y="266"/><use xlink:href="#9cd8e203A" x="356.676" y="266"/><use xlink:href="#9cd8e203s" x="363.343" y="266"/><use xlink:href="#9cd8e203t" x="370.01" y="266"/><use xlink:href="#9cd8e203G" x="376.677" y="266"/><use xlink:href="#9cd8e203q" x="383.344" y="266"/><use xlink:href="#9cd8e203H" x="390.011" y="266"/><use xlink:href="#9cd8e203o" x="396.678" y="266"/><use xlink:href="#9cd8e203D" x="403.345" y="266"/><use xlink:href="#9cd8e203z" x="410.012" y="266"/><use xlink:href="#9cd8e203F" x="416.679" y="266"/><use xlink:href="#9cd8e203I" x="423.346" y="266"/></g></svg>