<?xml version='1.0' encoding='UTF-8'?>
<svg xmlns="http://www.w3.org/2000/svg" xmlns:xlink="http://www.w3.org/1999/xlink" width="600px" height="300px" viewBox="0 0 600 300" x="0px" y="0px" enable-background="new 0 0 600 300"><defs><symbol overflow="visible" id="c36935e5a"><path d="M9.6 0h21.76c1.28 0 1.92-.64 1.92-1.92v-1.85h-7.2v-37.67l12.23.96 1.53 6.89c.24 1.18.88 1.51 1.6 1.51.56 0 1.28-.33 1.76-.64v-11.6H1.7L.4-31.51H4l2.48-8.96 10.64-.96v37.2L9.6-2.71zm0 0"/></symbol><symbol overflow="visible" id="c36935e5b"><path d="M52.56-22.8c0-14.32-11.36-22.48-23.76-22.48-12.57 0-25.6 10.72-25.6 23.92C3.2-7.44 14.56 1.12 26.64 1.12c12.8 0 25.92-10.32 25.92-23.92zM29.28-2.56c-10.23 0-15.51-6.72-15.51-20.57 0-12.8 4.23-18.46 12.64-18.46C37.2-41.6 42-34 42-22 42-8.64 38.23-2.56 29.28-2.56zm0 0"/></symbol><symbol overflow="visible" id="c36935e5c"><path d="M29.6-44.48a12.68 12.68 0 00-3.29-.47c-2.8 0-5.1 1.6-6.62 5.36L5.59-4.23 0-2.72V0h15.77c1.28 0 1.92-.64 1.92-1.92v-1.85H11.2l3.75-11.28h15.46l3.9 10.82-6.23 1.51V0h18.97c1.26 0 1.9-.64 1.9-1.92v-1.85h-5.03zm-7.29 7.04l6.97 19.36H15.92zm0 0"/></symbol><symbol overflow="visible" id="c36935e5d"><path d="M3.69 0h34l2.8-13.84a3.53 3.53 0 00-2.08-.88c-.9 0-1.53.64-2.1 1.6l-5.44 9.35-12.23.72v-37.51h5.84v-1.85c0-1.28-.64-1.9-1.92-1.9H3.7v2.72l5.9 1.51v35.92L3.7-2.72zm0 0"/></symbol><symbol overflow="visible" id="c36935e5e"><path d="M16.8-32.64A5.49 5.49 0 0011.36-38 5.42 5.42 0 006-32.64c0 2.87 2.4 5.28 5.36 5.28 2.95 0 5.44-2.4 5.44-5.28zm0 26.4c0-2.88-2.49-5.35-5.44-5.35A5.4 5.4 0 006-6.23C6-3.36 8.4-.95 11.36-.95c2.95 0 5.44-2.4 5.44-5.28zm0 0"/></symbol><symbol overflow="visible" id="c36935e5g"><path d="M30.16-23.84c4.8-2 8.8-6 8.8-11.04 0-6.4-5.76-10.56-14.32-10.56-7.77 0-16.72 4.16-16.72 11.85 0 3.51 2.08 6.87 7.44 10C8.64-21.2 4-16.5 4-10.95c0 7.43 7.05 12.3 17.52 12.3 10.07 0 18.96-5.27 18.96-13.5 0-4.97-3.43-8.26-10.32-11.7zm-3.44-1.68c-7.44-3.36-12.16-6.32-12.16-10.56 0-4.23 4.24-6.4 8-6.4 5.85 0 9.67 4.25 9.67 8.64 0 3.68-1.82 6.15-5.51 8.32zm-7.36 3.93C30-16.95 33.28-13.36 33.28-9.52c0 4-3.76 7.29-9.36 7.29-5.84 0-12.8-4.08-12.8-10.49 0-4.23 2.96-7.76 8.24-8.87zm0 0"/></symbol><symbol overflow="visible" id="c36935e5h"><path d="M12.08-3.36v-6.56c-.64-.4-1.92-.8-3.13-.8C5.92-10.72 4-8.87 4-6.32 4-2 8.95 1.2 18.08 1.2 29.59 1.2 38-5.84 38-15.2c0-6.88-5.13-13.11-14.56-13.11-4.16 0-7.52.87-12 2.72v-13.46h18.4c2.57 0 6.24-.3 6.24-5.6H8.16L6.23-20.55h2.18c1.67 0 2.54-.64 3.59-1.2a15.37 15.37 0 017.52-1.83C26.56-23.6 30-17.84 30-12.95c0 7.82-5.69 10.87-11.28 10.87-3.44 0-5.52-.8-6.64-1.28zm0 0"/></symbol><symbol overflow="visible" id="c36935e5i"><path d="M1.2 0h24.57c1.28 0 1.92-.64 1.92-1.92v-1.85h-8.9v-41.1h-2.48L3.92-38.8c-1.76.8-2.48 1.36-2.48 2.24 0 .4.25.97.72 1.6L11.05-36v31.77L1.2-2.72zm0 0"/></symbol><symbol overflow="visible" id="c36935e5j"><path d="M36.08-40.31c.56-.64.8-1.28.8-1.85 0-1.6-2.08-2.97-7.83-2.97-13.36 0-25.46 11.93-25.46 26.9C3.6-6.8 10.31 1.05 22.23 1.05c10.25 0 18.33-6.57 18.33-15.77 0-8.8-7.36-14.08-15.84-14.08-4.72 0-8.8 1.2-12.72 4 1.05-10.4 9.36-16.56 17.36-16.56 1.92 0 4 .23 6.72 1.05zM23.52-2.08c-7.2 0-11.68-6.23-11.68-12.64 0-6.4 4.08-9.92 9.6-9.92 6.33 0 11.51 5.05 11.51 12.48 0 6.32-4.08 10.08-9.43 10.08zm0 0"/></symbol><symbol overflow="visible" id="c36935e5k"><path d="M3.83 0v-5.95H6.2v-.82H.45v.82h2.4V0zm0 0"/></symbol><symbol overflow="visible" id="c36935e5l"><path d="M5.75-2.23v-.43c0-1.6-.9-2.51-2.42-2.51S.87-4.16.87-2.48c0 1.71.91 2.62 2.5 2.62 1.43 0 2.07-.56 2.29-1.52l-.9-.09c-.18.61-.59.9-1.35.9-.94 0-1.52-.54-1.58-1.66zm-2.4-2.2c.93 0 1.43.5 1.48 1.55H1.84c.08-1.07.6-1.56 1.5-1.56zm0 0"/></symbol><symbol overflow="visible" id="c36935e5m"><path d="M1.83 0l1.42-2h.06l1.46 2H5.8L4-2.53l1.78-2.49H4.8L3.42-3.08h-.08l-1.4-1.94H.89l1.78 2.49L.84 0zm0 0"/></symbol><symbol overflow="visible" id="c36935e5n"><path d="M5.52-4.25v-.77H3.17v-1.56h-.81l-.14 1.56H.75v.77h1.47v2.4c0 1.3.48 1.94 1.84 1.94C4.6.1 5.14 0 5.55-.14L5.4-.91c-.32.13-.72.2-1.13.2-.8 0-1.1-.37-1.1-1.23v-2.31zm0 0"/></symbol><symbol overflow="visible" id="c36935e5o"><path d="M3.33-3.42c.47 0 .8-.27.8-.8 0-.51-.33-.8-.8-.8-.47 0-.8.29-.8.8 0 .53.33.8.8.8zm0 3.5c.47 0 .8-.27.8-.78 0-.53-.33-.82-.8-.82-.47 0-.8.29-.8.82 0 .51.33.78.8.78zm0 0"/></symbol><symbol overflow="visible" id="c36935e5q"><path d="M3.33.14c1.62 0 2.5-.95 2.5-2.66 0-1.68-.88-2.64-2.5-2.64-1.63 0-2.5.96-2.5 2.64 0 1.7.87 2.66 2.5 2.66zm0-.77c-1.06 0-1.52-.6-1.52-1.89 0-1.28.46-1.87 1.52-1.87 1.08 0 1.53.6 1.53 1.87 0 1.29-.45 1.9-1.53 1.9zm0 0"/></symbol><symbol overflow="visible" id="c36935e5r"><path d="M2.83.14c.94 0 1.5-.39 1.81-.95h.08l.1.81h.76v-3.38c0-1.23-.69-1.8-2.13-1.8-1.43 0-2.03.65-2.18 1.6l.93.1c.11-.6.44-.93 1.22-.93.85 0 1.22.32 1.22 1.04v.34l-1.81.2C1.6-2.7 1.1-2.17 1.1-1.28c0 .92.64 1.42 1.72 1.42zm.25-.77c-.67 0-1.02-.28-1.02-.74 0-.44.28-.72 1-.82l1.58-.19v.41c0 .8-.6 1.34-1.56 1.34zm0 0"/></symbol><symbol overflow="visible" id="c36935e5s"><path d="M3.92-7.14H1.36v.76h1.6v5.61H1.15V0H5.7v-.77H3.92zm0 0"/></symbol><symbol overflow="visible" id="c36935e5t"><path d="M3.33.16c1.69 0 2.69-.74 2.69-1.94 0-1.05-.8-1.58-1.43-1.72v-.05c.5-.14 1.2-.58 1.2-1.56 0-1.12-.95-1.81-2.46-1.81-1.52 0-2.46.69-2.46 1.81 0 .97.68 1.4 1.18 1.56v.05c-.6.14-1.4.64-1.4 1.72 0 1.2 1 1.94 2.68 1.94zm0-4.04c-.97 0-1.49-.43-1.49-1.12 0-.78.52-1.1 1.49-1.1.95 0 1.48.32 1.48 1.1 0 .69-.53 1.13-1.48 1.13zm0 3.24c-1.1 0-1.7-.42-1.7-1.25 0-.78.6-1.2 1.7-1.2s1.7.42 1.7 1.2c0 .83-.6 1.25-1.7 1.25zm0 0"/></symbol><symbol overflow="visible" id="c36935e5u"><path d="M3.42.14c1.55 0 2.44-.84 2.44-2.33 0-1.45-.83-2.22-2.14-2.22-.75 0-1.28.27-1.67.72H2l.31-2.22h3.11v-.86H1.53l-.45 3.93h.81c.3-.36.9-.79 1.58-.79.92 0 1.44.43 1.44 1.47 0 .99-.54 1.5-1.49 1.5-.83 0-1.28-.32-1.5-1.01l-.95.1C1.07-.46 2 .13 3.42.13zm0 0"/></symbol><symbol overflow="visible" id="c36935e5v"><path d="M4.22-6.77h-.86l-2.03.7v.87c.64-.17 1.26-.38 1.89-.55v4.9H1.03V0h4.9v-.86H4.21zm0 0"/></symbol><symbol overflow="visible" id="c36935e5w"><path d="M3.42.14c1.58 0 2.49-.86 2.49-2.3 0-1.42-.86-2.17-2.22-2.17-1.03 0-1.58.5-1.9 1.02h-.04c.03-1.63.4-2.77 1.73-2.77.91 0 1.24.44 1.36.96l.97-.11c-.23-.96-.86-1.68-2.33-1.68C1.84-6.9.86-5.86.86-3.1.86-.9 1.78.14 3.42.14zm.02-.78c-.9 0-1.47-.55-1.47-1.47 0-.9.7-1.47 1.53-1.47.92 0 1.47.52 1.47 1.47 0 .97-.6 1.47-1.53 1.47zm0 0"/></symbol><symbol overflow="visible" id="c36935e5x"><path d="M5.95-6.77H1.1V0h.99v-2.92H5.3v-.77H2.08v-2.26h3.87zm0 0"/></symbol><symbol overflow="visible" id="c36935e5y"><path d="M2.73.14c.9 0 1.43-.45 1.74-1.08h.06l.13.94h.8v-5.02h-.94v2.7c0 .98-.57 1.62-1.46 1.62-.75 0-1.1-.4-1.1-1.22v-3.1h-.93v3.32c0 1.17.55 1.84 1.7 1.84zm0 0"/></symbol><symbol overflow="visible" id="c36935e5z"><path d="M5.08-5.16c-.94 0-1.58.43-1.9 1.3h-.09l-.07-1.16H1.05v.77h1.1v3.48H.96V0h3.96v-.77H3.1v-1.46c0-1.36.6-2.05 1.83-2.05.4 0 .76.08 1.1.17l.15-.87c-.33-.11-.7-.18-1.11-.18zm0 0"/></symbol><symbol overflow="visible" id="c36935e5A"><path d="M3.42.14c1.61 0 2.56-.75 2.56-2 0-1.1-.67-1.6-1.95-1.86l-.97-.2c-.87-.17-1.23-.49-1.23-1.11 0-.7.54-1.11 1.5-1.11 1.06 0 1.51.34 1.69 1.23l.9-.09c-.17-1.28-.98-1.9-2.6-1.9C1.79-6.9.9-6.18.9-4.98c0 1.06.66 1.66 1.88 1.9l1.01.2c.85.17 1.25.4 1.25 1.09 0 .73-.6 1.16-1.6 1.16-1.07 0-1.66-.4-1.8-1.24l-.94.1C.83-.53 1.75.13 3.42.13zm0 0"/></symbol><symbol overflow="visible" id="c36935e5B"><path d="M1.63 0v-2.9c0-.8.15-1.4.71-1.4.41 0 .55.3.55.88V0h.95v-2.9c0-.8.18-1.4.72-1.4.4 0 .57.3.57.88V0h.95v-3.63c0-.92-.28-1.53-1.11-1.53-.63 0-.95.41-1.1.9h-.06c-.1-.52-.44-.9-1.08-.9-.6 0-.93.41-1.06.9H1.6l-.23-.76H.67V0zm0 0"/></symbol><symbol overflow="visible" id="c36935e5C"><path d="M5.33-2.2v-.75h-4v.75zm0 0"/></symbol><symbol overflow="visible" id="c36935e5D"><path d="M3.34.14c1.43 0 2.13-.66 2.25-1.78l-.89-.1c-.1.7-.5 1.08-1.34 1.08-1.03 0-1.52-.64-1.52-1.84 0-1.23.47-1.86 1.52-1.86.84 0 1.23.36 1.34 1.08l.9-.1c-.13-1.09-.82-1.78-2.26-1.78-1.56 0-2.46.97-2.46 2.66 0 1.66.9 2.64 2.46 2.64zm0 0"/></symbol><symbol overflow="visible" id="c36935e5E"><path d="M2.06 1.9V-.84h.05c.28.58.8.97 1.77.97 1.5 0 2.2-.98 2.2-2.66 0-1.65-.7-2.64-2.19-2.64-.97 0-1.5.44-1.78 1.05h-.08l-.1-.9H1.1v6.9zm1.5-2.56c-1.06 0-1.53-.8-1.53-1.86 0-1.04.47-1.84 1.53-1.84 1.11 0 1.53.61 1.53 1.84 0 1.27-.42 1.86-1.53 1.86zm0 0"/></symbol><symbol overflow="visible" id="c36935e5F"><path d="M2.16 0v-2.67c0-.99.59-1.63 1.46-1.63.74 0 1.07.38 1.07 1.22V0h.95v-3.31c0-1.2-.56-1.85-1.67-1.85-.92 0-1.49.46-1.77 1.08h-.06l-.12-.94H1.2V0zm0 0"/></symbol><symbol overflow="visible" id="c36935e5G"><path d="M3.36.16c1.4 0 2.2-.6 2.2-1.57 0-.89-.54-1.22-1.47-1.39L3-3c-.67-.14-.86-.33-.86-.73 0-.5.4-.74 1.17-.74.83 0 1.19.27 1.27.8l.9-.05c-.12-1-.8-1.47-2.17-1.47-1.34 0-2.1.53-2.1 1.5 0 .81.45 1.22 1.52 1.44l1.04.2c.56.11.87.24.87.72 0 .52-.45.78-1.28.78-.95 0-1.36-.28-1.42-.87l-.9.06C1.07-.36 1.8.16 3.35.16zm0 0"/></symbol><symbol overflow="visible" id="c36935e5H"><path d="M1.45-2.95c0 2.56 1.08 4.37 3.67 4.84l.11-.67C3.28.86 2.43-.75 2.43-2.95s.85-3.82 2.8-4.16l-.1-.69c-2.6.49-3.68 2.3-3.68 4.85zm0 0"/></symbol><symbol overflow="visible" id="c36935e5I"><path d="M5.67 0v-.86H2.14V-.9L3.6-2c1.05-.83 2-1.68 2-2.91 0-1.19-.73-1.99-2.26-1.99-1.66 0-2.3 1.02-2.44 2.33l1 .08c.1-.92.42-1.58 1.44-1.58.87 0 1.26.44 1.26 1.24 0 .9-.8 1.53-1.96 2.53L.83-.81V0zm0 0"/></symbol><symbol overflow="visible" id="c36935e5J"><path d="M1.45-7.1c1.96.33 2.8 1.94 2.8 4.15 0 2.2-.84 3.8-2.8 4.17l.11.67c2.58-.47 3.67-2.28 3.67-4.84 0-2.55-1.09-4.36-3.67-4.85zm0 0"/></symbol></defs><use xlink:href="#c36935e5a" x="89.84" y="154" fill="#515151"/><use xlink:href="#c36935e5b" x="131.04" y="154" fill="#515151"/><use xlink:href="#c36935e5a" x="186" y="154" fill="#515151"/><use xlink:href="#c36935e5c" x="223.6" y="154" fill="#515151"/><use xlink:href="#c36935e5d" x="273.76" y="154" fill="#515151"/><g fill="#515151"><use xlink:href="#c36935e5e" x="314.64" y="154"/><use xlink:href="#c36935e5f" x="334.24" y="154"/></g><use xlink:href="#c36935e5g" x="352.64" y="154" fill="#fff"/><use xlink:href="#c36935e5h" x="397.12" y="154" fill="#fff"/><use xlink:href="#c36935e5i" x="438.32" y="154" fill="#fff"/><use xlink:href="#c36935e5j" x="466.4" y="154" fill="#fff"/><g fill="#fff"><use xlink:href="#c36935e5k" x="243.3333" y="252"/><use xlink:href="#c36935e5l" x="250.0003" y="252"/><use xlink:href="#c36935e5m" x="256.6673" y="252"/><use xlink:href="#c36935e5n" x="263.3343" y="252"/><use xlink:href="#c36935e5o" x="270.0013" y="252"/><use xlink:href="#c36935e5p" x="276.6683" y="252"/><use xlink:href="#c36935e5k" x="283.3353" y="252"/><use xlink:href="#c36935e5q" x="290.0023" y="252"/><use xlink:href="#c36935e5n" x="296.6693" y="252"/><use xlink:href="#c36935e5r" x="303.3363" y="252"/><use xlink:href="#c36935e5s" x="310.0033" y="252"/><use xlink:href="#c36935e5o" x="316.6703" y="252"/><use xlink:href="#c36935e5p" x="323.3373" y="252"/><use xlink:href="#c36935e5t" x="330.0043" y="252"/><use xlink:href="#c36935e5u" x="336.6713" y="252"/><use xlink:href="#c36935e5v" x="343.3383" y="252"/><use xlink:href="#c36935e5w" x="350.0053" y="252"/></g><g fill="#fff"><use xlink:href="#c36935e5x" x="186.6667" y="266"/><use xlink:href="#c36935e5l" x="193.3337" y="266"/><use xlink:href="#c36935e5r" x="200.0007" y="266"/><use xlink:href="#c36935e5n" x="206.6677" y="266"/><use xlink:href="#c36935e5y" x="213.3347" y="266"/><use xlink:href="#c36935e5z" x="220.0017" y="266"/><use xlink:href="#c36935e5l" x="226.6687" y="266"/><use xlink:href="#c36935e5o" x="233.3357" y="266"/><use xlink:href="#c36935e5p" x="240.0027" y="266"/><use xlink:href="#c36935e5A" x="246.6697" y="266"/><use xlink:href="#c36935e5B" x="253.3367" y="266"/><use xlink:href="#c36935e5r" x="260.0037" y="266"/><use xlink:href="#c36935e5s" x="266.6707" y="266"/><use xlink:href="#c36935e5s" x="273.3377" y="266"/><use xlink:href="#c36935e5C" x="280.0047" y="266"/><use xlink:href="#c36935e5D" x="286.6717" y="266"/><use xlink:href="#c36935e5r" x="293.3387" y="266"/><use xlink:href="#c36935e5E" x="300.0057" y="266"/><use xlink:href="#c36935e5p" x="306.6727" y="266"/><use xlink:href="#c36935e5F" x="313.3397" y="266"/><use xlink:href="#c36935e5y" x="320.0067" y="266"/><use xlink:href="#c36935e5B" x="326.6737" y="266"/><use xlink:href="#c36935e5l" x="333.3407" y="266"/><use xlink:href="#c36935e5z" x="340.0077" y="266"/><use xlink:href="#c36935e5r" x="346.6747" y="266"/><use xlink:href="#c36935e5s" x="353.3417" y="266"/><use xlink:href="#c36935e5G" x="360.0087" y="266"/><use xlink:href="#c36935e5p" x="366.6757" y="266"/><use xlink:href="#c36935e5H" x="373.3427" y="266"/><use xlink:href="#c36935e5D" x="380.0097" y="266"/><use xlink:href="#c36935e5I" x="386.6767" y="266"/><use xlink:href="#c36935e5G" x="393.3437" y="266"/><use xlink:href="#c36935e5D" x="400.0107" y="266"/><use xlink:href="#c36935e5J" x="406.6777" y="266"/></g></svg>