<?xml version='1.0' encoding='UTF-8'?>
<svg xmlns="http://www.w3.org/2000/svg" xmlns:xlink="http://www.w3.org/1999/xlink" width="310px" height="280px" viewBox="0 0 310 280" x="0px" y="0px" enable-background="new 0 0 310 280"><defs><symbol overflow="visible" id="19a67f17a"><path d="M2.34 0h30.47l2.47-11.1a2.52 2.52 0 00-1.62-.67c-.9 0-1.57.43-2.22 1.57l-3.85 6.9-12.71.6v-15.96h10.07l1.1 4.8h.89c1.33 0 1.8-.78 1.8-1.62v-10.93h-2.29l-2.03 4.57h-9.55v-16.08l13.04.65 1.9 6.07c.25.84.74 1.39 1.63 1.39.6 0 1.2-.25 1.56-.55v-10.33H2.28v2.47l4.27 1.14v33.49l-4.2 1.14zm0 0"/></symbol><symbol overflow="visible" id="19a67f17b"><path d="M2.52-10.08V-.9c1.75.79 6.25 1.93 9.6 1.93 7.57 0 12.36-4.02 12.36-9.3 0-4.63-3.12-7.02-8.04-9.66-4.02-2.15-6.9-3.72-6.9-6.36 0-2.4 1.98-3.12 3.9-3.12 1.8 0 4.26.72 5.22 1.33l1.03 3.78c.23.89.76 1.31 1.73 1.31.49 0 1.14-.23 1.56-.42v-7.8c-1.39-.48-5.4-1.5-8.53-1.5-6.1 0-11.64 3-11.64 8.88 0 4.75 3.38 7.26 8.11 9.71 5.58 2.9 6.72 4.7 6.72 6.26 0 2.15-1.98 3.59-4.92 3.59-1.74 0-3.95-.66-5.22-1.5l-1.92-6.3zm0 0"/></symbol><symbol overflow="visible" id="19a67f17c"><path d="M5.81-41.45V-3.6L1.7-2.45V0h13.97c1.32 0 1.68-.66 1.68-1.69v-1.44h-3.71v-3.35c0-3.72.78-4.97 2.51-6.83l.36-.31L25.73.65l8.05-1.02c.9-.12 1.99-.42 1.99-1.98v-1.38h-3.61L21.72-18.78l7.73-7.67h2.6c1.18 0 1.6-.78 1.6-1.75v-1.57h-15.1v2.54l4.8 1.07L13.5-14.7c.06-2.52.13-5.22.13-7.99v-22.86l-9.97.49c-1.32.06-1.93.78-1.93 2.15v.91zm0 0"/></symbol><symbol overflow="visible" id="19a67f17d"><path d="M16.31 1.08c8.96 0 15.42-6.85 15.42-16.38 0-8.76-4.8-15.6-14.28-15.6-9.1 0-15.36 7.02-15.36 16.32 0 8.81 4.86 15.66 14.22 15.66zm.97-3.49c-5.1 0-7.08-6.3-7.08-13.07 0-6.9 1.68-11.94 6.3-11.94 5.22 0 7.14 6.42 7.14 12.9 0 7.02-1.69 12.11-6.36 12.11zm0 0"/></symbol><symbol overflow="visible" id="19a67f17e"><path d="M1.92 0H18c1.27 0 1.73-.78 1.73-1.8v-1.39h-5.87V-13.2c0-4.2.23-6.24.9-8.16.66-2.05 2.16-4.14 3.6-4.98l2.77 5.1h1.3c2.65 0 4.7-1.62 4.7-4.45 0-2.33-1.75-5.22-5.7-5.22-3.3 0-6.62 2.7-8.35 6.68l-.9-6.07-8.4.6c-1.26.12-1.8.72-1.8 1.8v1.62h4.08V-3.6L1.92-2.45zm0 0"/></symbol><symbol overflow="visible" id="19a67f17f"><path d="M4.98-26.28v16.92c0 3.17.36 5.16 1.2 6.66C7.74.42 10.87.9 13.03.9c2.82 0 5.76-1.2 7.5-2.52 1.14-.79 1.8-1.68 1.8-2.4 0-.42-.24-.84-.66-1.32-1.74.78-3.3 1.39-4.97 1.39-1.99 0-3.9-.85-3.9-5.24v-17.1h6.77c1.38 0 1.92-.52 1.92-2.09v-1.39h-9v-5.45c0-1.86-.84-2.87-2.7-2.87-.55 0-1.2.04-1.8.17L5.22-30.6.95-29.45v3.17zm0 0"/></symbol><symbol overflow="visible" id="19a67f17g"><path d="M9.72-16.08h18.55v-1.98c0-2.46-.13-4.08-.61-5.52-1.08-4.37-4.74-7.14-10.25-7.14-9.2 0-15.32 7.74-15.32 16.56C2.1-5.34 7.63.91 16.08.91c6.06 0 9.6-2.96 10.37-3.61.74-.6 1.14-1.2 1.14-1.99 0-.53-.3-1.01-.59-1.43-3.3 1.56-5.28 1.85-6.95 1.85-5.64 0-10.14-4.25-10.33-11.8zm10.92-2.87H9.78c.13-3.68 1.74-7.99 5.7-7.99 1.68 0 3.07.85 3.96 2.35.9 1.43 1.2 3.4 1.2 5.64zm0 0"/></symbol><symbol overflow="visible" id="19a67f17h"><path d="M7.1-8.1H1.32V0h5.8v-.95H2.47v-2.72h3.87v-.9H2.47v-2.59H7.1zm0 0"/></symbol><symbol overflow="visible" id="19a67f17i"><path d="M4.02.19c1.7 0 2.65-.72 2.65-1.88 0-1.06-.65-1.45-1.76-1.67L3.6-3.6c-.81-.16-1.03-.37-1.03-.87 0-.6.45-.88 1.4-.88 1 0 1.43.31 1.52.95l1.1-.06c-.16-1.2-.97-1.75-2.63-1.75-1.61 0-2.5.63-2.5 1.8 0 .97.53 1.47 1.81 1.72l1.25.23c.67.14 1.03.3 1.03.88 0 .62-.53.93-1.53.93-1.16 0-1.62-.32-1.7-1.04l-1.1.07C1.3-.43 2.17.2 4.02.2zm0 0"/></symbol><symbol overflow="visible" id="19a67f17j"><path d="M6.92-6.02H5.55L2.78-3.45H2.7v-5.13H1.56V0H2.7v-2.78h.08L5.64 0h1.5L3.88-3.22zm0 0"/></symbol><symbol overflow="visible" id="19a67f17k"><path d="M4 .17c1.95 0 3-1.14 3-3.19 0-2.03-1.05-3.17-3-3.17S1-5.05 1-3.02C1-.97 2.05.18 4 .18zm0-.92c-1.28 0-1.83-.72-1.83-2.27 0-1.53.55-2.25 1.83-2.25s1.83.72 1.83 2.25C5.83-1.47 5.28-.75 4-.75zm0 0"/></symbol><symbol overflow="visible" id="19a67f17l"><path d="M6.1-6.19c-1.12 0-1.9.52-2.3 1.57h-.08l-.11-1.4H1.27v.91h1.32v4.19H1.14V0H5.9v-.92H3.73v-1.75c0-1.64.7-2.46 2.2-2.46.48 0 .91.08 1.32.2l.17-1.05c-.39-.13-.83-.2-1.33-.2zm0 0"/></symbol><symbol overflow="visible" id="19a67f17m"><path d="M6.63-5.1v-.92H3.8v-1.87h-.98l-.17 1.87H.9v.91h1.75v2.88c0 1.57.57 2.35 2.21 2.35.65 0 1.29-.12 1.79-.3l-.18-.9a3.9 3.9 0 01-1.34.22c-.97 0-1.33-.44-1.33-1.47V-5.1zm0 0"/></symbol><symbol overflow="visible" id="19a67f17n"><path d="M6.9-2.69v-.5C6.9-5.13 5.82-6.2 4-6.2 2.17-6.2 1.06-5 1.06-2.98c0 2.06 1.08 3.15 3 3.15C5.75.17 6.52-.5 6.8-1.64l-1.08-.13c-.24.75-.7 1.07-1.64 1.07-1.11 0-1.81-.64-1.88-1.99zM4-5.33c1.14 0 1.75.61 1.8 1.88H2.22c.1-1.28.7-1.88 1.78-1.88zm0 0"/></symbol><symbol overflow="visible" id="19a67f17p"><path d="M2.48-8.1H1.31V0h5.74v-.98H2.48zm0 0"/></symbol><symbol overflow="visible" id="19a67f17q"><path d="M3.4.17C4.51.17 5.2-.3 5.57-.97h.08l.12.97h.9v-4.05c0-1.48-.82-2.15-2.54-2.15-1.73 0-2.44.75-2.6 1.9l1.1.11c.13-.7.52-1.1 1.47-1.1 1.01 0 1.47.37 1.47 1.23v.42l-2.17.23c-1.49.18-2.08.82-2.08 1.86 0 1.13.76 1.72 2.06 1.72zm.29-.92c-.81 0-1.2-.33-1.2-.9 0-.52.32-.87 1.2-.96l1.89-.23v.48c0 .95-.75 1.61-1.9 1.61zm0 0"/></symbol><symbol overflow="visible" id="19a67f17r"><path d="M4.3-6.97c.5 0 .86-.28.86-.81S4.8-8.6 4.3-8.6c-.53 0-.86.28-.86.8 0 .54.33.82.86.82zm.6.95H1.82v.91h1.92v4.19H1.56V0h5.38v-.92H4.89zm0 0"/></symbol><symbol overflow="visible" id="19a67f17s"><path d="M2.6 0v-3.22c0-1.17.71-1.94 1.76-1.94.87 0 1.26.46 1.26 1.47V0h1.15v-3.97c0-1.45-.7-2.22-2-2.22-1.11 0-1.79.55-2.13 1.3h-.08l-.14-1.13h-.97V0zm0 0"/></symbol></defs><use xlink:href="#19a67f17a" x="49.1" y="145"/><use xlink:href="#19a67f17b" x="85.88" y="145"/><use xlink:href="#19a67f17c" x="112.04" y="145"/><use xlink:href="#19a67f17d" x="146.54" y="145"/><use xlink:href="#19a67f17e" x="180.38" y="145"/><use xlink:href="#19a67f17f" x="208.88" y="145"/><g><use xlink:href="#19a67f17g" x="230.3" y="145"/></g><g fill-opacity=".33"><use xlink:href="#19a67f17h" x="103" y="230"/><use xlink:href="#19a67f17i" x="111.0004" y="230"/><use xlink:href="#19a67f17j" x="119.0008" y="230"/><use xlink:href="#19a67f17k" x="127.0012" y="230"/><use xlink:href="#19a67f17l" x="135.0016" y="230"/><use xlink:href="#19a67f17m" x="143.002" y="230"/><use xlink:href="#19a67f17n" x="151.0024" y="230"/><use xlink:href="#19a67f17o" x="159.0028" y="230"/><use xlink:href="#19a67f17p" x="167.0032" y="230"/><use xlink:href="#19a67f17q" x="175.0036" y="230"/><use xlink:href="#19a67f17m" x="183.004" y="230"/><use xlink:href="#19a67f17r" x="191.0044" y="230"/><use xlink:href="#19a67f17s" x="199.0048" y="230"/></g></svg>