<?xml version='1.0' encoding='UTF-8'?>
<svg xmlns="http://www.w3.org/2000/svg" xmlns:xlink="http://www.w3.org/1999/xlink" width="600px" height="300px" viewBox="0 0 600 300" x="0px" y="0px" enable-background="new 0 0 600 300"><defs><symbol overflow="visible" id="f20edb0ba"><path d="M10.8 0h22.48c1.28 0 1.92-.64 1.92-1.92v-1.85h-7.6V-51.2l14.17 1.12 1.67 7.85c.33 1.59 1.04 2.23 2.25 2.23.54 0 1.36-.23 1.83-.64v-13.6H.87L-.23-40h3.82l2.97-10.08L18.8-51.2v46.97l-8 1.51zm0 0"/></symbol><symbol overflow="visible" id="f20edb0bb"><path d="M21.6 1.44c11.52 0 19.76-9.28 19.76-21.52 0-11.84-6.16-20.87-18.56-20.87-11.44 0-19.6 9.26-19.6 21.36C3.2-7.52 9.52 1.44 21.6 1.44zm1.2-3.75c-8.16 0-11.11-9.38-11.11-18 0-10.74 3.03-16.9 9.9-16.9 8.33 0 11.29 9.29 11.29 18 0 10.26-3.04 16.9-10.08 16.9zm0 0"/></symbol><symbol overflow="visible" id="f20edb0bc"><path d="M7.2-35.28v23.92c0 3.28.32 5.67 1.11 7.52 2 4.48 6.17 5.04 9.13 5.04 3.36 0 6.56-1.28 8.72-2.8 1.68-1.12 2.71-2.4 2.71-3.27 0-.57-.3-1.05-.87-1.54-2.23 1.46-4.31 2.57-7.28 2.57-2.49 0-5.52-1.04-5.52-8.24v-23.2h10.24c1.51 0 2.15-.72 2.15-2.4v-1.76H14.8v-7.76c0-1.75-.79-2.96-2.56-2.96-.54 0-1.36.16-2 .4l-3.03 9.2-6.15 1.51v3.77zm0 0"/></symbol><symbol overflow="visible" id="f20edb0bd"><path d="M27.2.48l9.2-.96c1.04-.08 2.96-.4 2.96-2.4 0-.4-.08-1.12-.16-1.53h-6.08v-24.23c0-4.64-.64-7.84-3.2-10-1.6-1.36-3.92-2.23-7.84-2.23-3.03 0-7.52.8-11.52 2.95-2.87 1.6-5.84 3.92-5.84 6.64 0 2.16 1.69 3.6 5.44 3.6h2l.8-8.32c1.35-.31 2.96-.64 4.56-.64 4.4 0 7.6 2.64 7.6 7.69v5.9L5.6-16.48c-.64.96-2.54 3.92-2.54 7.76 0 5.6 3.67 9.92 9.9 9.92 4.97 0 10.1-3.28 12.57-9.04zm-2.07-20v2.24c0 1.44-.18 4.33-.97 6.56-.96 2.64-3.36 6.95-7.6 6.95-3.28 0-5.76-2.54-5.76-6 0-2.8 1.28-6.23 6.64-7.67zm0 0"/></symbol><symbol overflow="visible" id="f20edb0be"><path d="M2.31 0h18.17c1.29 0 1.93-.64 1.93-1.92v-1.85h-5.85v-56.95L4.72-60c-1.67.08-2.24 1.13-2.24 2.64v.95l6.08.64v51.54L2.31-2.72zm0 0"/></symbol><symbol overflow="visible" id="f20edb0bf"><path d="M16.8-32.64A5.49 5.49 0 0011.36-38 5.42 5.42 0 006-32.64c0 2.87 2.4 5.28 5.36 5.28 2.95 0 5.44-2.4 5.44-5.28zm0 26.4c0-2.88-2.49-5.35-5.44-5.35A5.4 5.4 0 006-6.23C6-3.36 8.4-.95 11.36-.95c2.95 0 5.44-2.4 5.44-5.28zm0 0"/></symbol><symbol overflow="visible" id="f20edb0bg"><path d="M30.16-28.56c5.28-2.16 9.53-7.13 9.53-12.72 0-8.16-6.4-13.13-15.46-13.13-8.15 0-17.51 5.05-17.51 14.18 0 4.15 2.33 8.15 8.08 11.92-6.64 2.95-11.2 8.47-11.2 15.03 0 8.8 7.04 14.64 17.52 14.64 10.47 0 19.93-6.24 19.93-15.84 0-5.6-3.7-9.93-10.9-14.08zm-2.64-1.36C18.8-34.41 13.36-38 13.36-43.52c0-5.35 4.64-8.25 8.8-8.25 6.32 0 10.8 5.54 10.8 11.93 0 3.36-1.52 7.2-5.44 9.92zm-9.75 3.28c12.87 6.33 15.92 11.2 15.92 16 0 5.28-4.33 8.64-9.77 8.64-6.23 0-13.2-5.2-13.2-14.08 0-4.97 2.15-8.97 7.05-10.56zm0 0"/></symbol><symbol overflow="visible" id="f20edb0bh"><path d="M12.88-2.72v-8.97a5.4 5.4 0 00-3.11-.95c-2.9 0-4.97 1.77-4.97 5.05 0 5.51 4.72 9.1 13.84 9.1 12.48 0 21.05-8.8 21.05-19.74 0-7.85-4.81-15.54-16.1-15.54-3.43 0-6.87.82-11.36 2.97v-16h18.41c2.56 0 6.23-.33 6.23-6.64H9.36L7.05-25.69H9.2c1.68 0 2.16-.54 3.2-1.18 2.8-1.7 4.96-2.41 7.29-2.41 7.75 0 12.23 7.51 12.23 13.76 0 10-5.6 13.93-12.15 13.93-3.7 0-5.61-.64-6.9-1.13zm0 0"/></symbol><symbol overflow="visible" id="f20edb0bi"><path d="M3.6 0H32.3c1.28 0 1.92-.64 1.92-1.92v-1.85H22.88v-49.67H20.4L5.05-45.2c-.9.48-1.05.89-1.05 1.28 0 .56.4 1.05.88 1.84l10.25-1.76v39.6L3.59-2.71zm0 0"/></symbol><symbol overflow="visible" id="f20edb0bj"><path d="M36.31-49.13c.33-.71.64-1.67.64-2.07 0-2.16-2.95-2.88-6.64-2.88-16.47 0-26.72 13.6-26.72 31.92C3.6-8.3 10.5 1.28 22.31 1.28c9.92 0 19.05-8.08 19.05-18.97 0-11.03-7.77-16.54-16.64-16.54-5.67 0-9.67 2.07-12.4 4.07 1.91-13.68 9.52-19.53 17.91-19.53 1.29 0 3.77.25 6.08.56zM24.48-2c-8.17 0-12.32-8.8-12.32-16.23 0-8.97 5.28-12 9.6-12 7.29 0 12 6.15 12 15.36C33.77-4.88 28.8-2 24.49-2zm0 0"/></symbol><symbol overflow="visible" id="f20edb0bk"><path d="M3.83 0v-5.95H6.2v-.82H.45v.82h2.4V0zm0 0"/></symbol><symbol overflow="visible" id="f20edb0bl"><path d="M5.75-2.23v-.43c0-1.6-.9-2.51-2.42-2.51S.87-4.16.87-2.48c0 1.71.91 2.62 2.5 2.62 1.43 0 2.07-.56 2.29-1.52l-.9-.09c-.18.61-.59.9-1.35.9-.94 0-1.52-.54-1.58-1.66zm-2.4-2.2c.93 0 1.43.5 1.48 1.55H1.84c.08-1.07.6-1.56 1.5-1.56zm0 0"/></symbol><symbol overflow="visible" id="f20edb0bm"><path d="M1.83 0l1.42-2h.06l1.46 2H5.8L4-2.53l1.78-2.49H4.8L3.42-3.08h-.08l-1.4-1.94H.89l1.78 2.49L.84 0zm0 0"/></symbol><symbol overflow="visible" id="f20edb0bn"><path d="M5.52-4.25v-.77H3.17v-1.56h-.81l-.14 1.56H.75v.77h1.47v2.4c0 1.3.48 1.94 1.84 1.94C4.6.1 5.14 0 5.55-.14L5.4-.91c-.32.13-.72.2-1.13.2-.8 0-1.1-.37-1.1-1.23v-2.31zm0 0"/></symbol><symbol overflow="visible" id="f20edb0bo"><path d="M3.33-3.42c.47 0 .8-.27.8-.8 0-.51-.33-.8-.8-.8-.47 0-.8.29-.8.8 0 .53.33.8.8.8zm0 3.5c.47 0 .8-.27.8-.78 0-.53-.33-.82-.8-.82-.47 0-.8.29-.8.82 0 .51.33.78.8.78zm0 0"/></symbol><symbol overflow="visible" id="f20edb0bq"><path d="M3.33.14c1.62 0 2.5-.95 2.5-2.66 0-1.68-.88-2.64-2.5-2.64-1.63 0-2.5.96-2.5 2.64 0 1.7.87 2.66 2.5 2.66zm0-.77c-1.06 0-1.52-.6-1.52-1.89 0-1.28.46-1.87 1.52-1.87 1.08 0 1.53.6 1.53 1.87 0 1.29-.45 1.9-1.53 1.9zm0 0"/></symbol><symbol overflow="visible" id="f20edb0br"><path d="M2.83.14c.94 0 1.5-.39 1.81-.95h.08l.1.81h.76v-3.38c0-1.23-.69-1.8-2.13-1.8-1.43 0-2.03.65-2.18 1.6l.93.1c.11-.6.44-.93 1.22-.93.85 0 1.22.32 1.22 1.04v.34l-1.81.2C1.6-2.7 1.1-2.17 1.1-1.28c0 .92.64 1.42 1.72 1.42zm.25-.77c-.67 0-1.02-.28-1.02-.74 0-.44.28-.72 1-.82l1.58-.19v.41c0 .8-.6 1.34-1.56 1.34zm0 0"/></symbol><symbol overflow="visible" id="f20edb0bs"><path d="M3.92-7.14H1.36v.76h1.6v5.61H1.15V0H5.7v-.77H3.92zm0 0"/></symbol><symbol overflow="visible" id="f20edb0bt"><path d="M3.33.16c1.69 0 2.69-.74 2.69-1.94 0-1.05-.8-1.58-1.43-1.72v-.05c.5-.14 1.2-.58 1.2-1.56 0-1.12-.95-1.81-2.46-1.81-1.52 0-2.46.69-2.46 1.81 0 .97.68 1.4 1.18 1.56v.05c-.6.14-1.4.64-1.4 1.72 0 1.2 1 1.94 2.68 1.94zm0-4.04c-.97 0-1.49-.43-1.49-1.12 0-.78.52-1.1 1.49-1.1.95 0 1.48.32 1.48 1.1 0 .69-.53 1.13-1.48 1.13zm0 3.24c-1.1 0-1.7-.42-1.7-1.25 0-.78.6-1.2 1.7-1.2s1.7.42 1.7 1.2c0 .83-.6 1.25-1.7 1.25zm0 0"/></symbol><symbol overflow="visible" id="f20edb0bu"><path d="M3.42.14c1.55 0 2.44-.84 2.44-2.33 0-1.45-.83-2.22-2.14-2.22-.75 0-1.28.27-1.67.72H2l.31-2.22h3.11v-.86H1.53l-.45 3.93h.81c.3-.36.9-.79 1.58-.79.92 0 1.44.43 1.44 1.47 0 .99-.54 1.5-1.49 1.5-.83 0-1.28-.32-1.5-1.01l-.95.1C1.07-.46 2 .13 3.42.13zm0 0"/></symbol><symbol overflow="visible" id="f20edb0bv"><path d="M4.22-6.77h-.86l-2.03.7v.87c.64-.17 1.26-.38 1.89-.55v4.9H1.03V0h4.9v-.86H4.21zm0 0"/></symbol><symbol overflow="visible" id="f20edb0bw"><path d="M3.42.14c1.58 0 2.49-.86 2.49-2.3 0-1.42-.86-2.17-2.22-2.17-1.03 0-1.58.5-1.9 1.02h-.04c.03-1.63.4-2.77 1.73-2.77.91 0 1.24.44 1.36.96l.97-.11c-.23-.96-.86-1.68-2.33-1.68C1.84-6.9.86-5.86.86-3.1.86-.9 1.78.14 3.42.14zm.02-.78c-.9 0-1.47-.55-1.47-1.47 0-.9.7-1.47 1.53-1.47.92 0 1.47.52 1.47 1.47 0 .97-.6 1.47-1.53 1.47zm0 0"/></symbol><symbol overflow="visible" id="f20edb0bx"><path d="M5.95-6.77H1.1V0h.99v-2.92H5.3v-.77H2.08v-2.26h3.87zm0 0"/></symbol><symbol overflow="visible" id="f20edb0by"><path d="M2.73.14c.9 0 1.43-.45 1.74-1.08h.06l.13.94h.8v-5.02h-.94v2.7c0 .98-.57 1.62-1.46 1.62-.75 0-1.1-.4-1.1-1.22v-3.1h-.93v3.32c0 1.17.55 1.84 1.7 1.84zm0 0"/></symbol><symbol overflow="visible" id="f20edb0bz"><path d="M5.08-5.16c-.94 0-1.58.43-1.9 1.3h-.09l-.07-1.16H1.05v.77h1.1v3.48H.96V0h3.96v-.77H3.1v-1.46c0-1.36.6-2.05 1.83-2.05.4 0 .76.08 1.1.17l.15-.87c-.33-.11-.7-.18-1.11-.18zm0 0"/></symbol><symbol overflow="visible" id="f20edb0bA"><path d="M2.08-6.77h-.99V0h4.79v-.81h-3.8zm0 0"/></symbol><symbol overflow="visible" id="f20edb0bB"><path d="M3.58-5.81c.42 0 .72-.22.72-.67 0-.44-.3-.68-.72-.68-.44 0-.72.24-.72.68 0 .45.28.67.72.67zm.5.8H1.52v.76h1.6v3.48h-1.8V0h4.46v-.77h-1.7zm0 0"/></symbol><symbol overflow="visible" id="f20edb0bC"><path d="M2.16 0v-2.67c0-.99.59-1.63 1.46-1.63.74 0 1.07.38 1.07 1.22V0h.95v-3.31c0-1.2-.56-1.85-1.67-1.85-.92 0-1.49.46-1.77 1.08h-.06l-.12-.94H1.2V0zm0 0"/></symbol><symbol overflow="visible" id="f20edb0bD"><path d="M3.16 2.03c1.67 0 2.4-.86 2.4-2.51v-4.54h-.81l-.13.91h-.06c-.26-.58-.8-1.05-1.73-1.05-1.42 0-2.24 1-2.24 2.52 0 1.6.75 2.56 2.2 2.56.94 0 1.5-.5 1.77-1.03h.05v.72c0 1.17-.42 1.67-1.45 1.67-.93 0-1.3-.34-1.41-.89L.8.5c.12.96.87 1.54 2.36 1.54zM3.06-.8c-.98 0-1.48-.57-1.48-1.82 0-1.13.5-1.75 1.48-1.75 1.06 0 1.58.76 1.58 1.75 0 .95-.56 1.82-1.58 1.82zm0 0"/></symbol><symbol overflow="visible" id="f20edb0bE"><path d="M1.63 0v-2.9c0-.8.15-1.4.71-1.4.41 0 .55.3.55.88V0h.95v-2.9c0-.8.18-1.4.72-1.4.4 0 .57.3.57.88V0h.95v-3.63c0-.92-.28-1.53-1.11-1.53-.63 0-.95.41-1.1.9h-.06c-.1-.52-.44-.9-1.08-.9-.6 0-.93.41-1.06.9H1.6l-.23-.76H.67V0zm0 0"/></symbol><symbol overflow="visible" id="f20edb0bF"><path d="M3.36.16c1.4 0 2.2-.6 2.2-1.57 0-.89-.54-1.22-1.47-1.39L3-3c-.67-.14-.86-.33-.86-.73 0-.5.4-.74 1.17-.74.83 0 1.19.27 1.27.8l.9-.05c-.12-1-.8-1.47-2.17-1.47-1.34 0-2.1.53-2.1 1.5 0 .81.45 1.22 1.52 1.44l1.04.2c.56.11.87.24.87.72 0 .52-.45.78-1.28.78-.95 0-1.36-.28-1.42-.87l-.9.06C1.07-.36 1.8.16 3.35.16zm0 0"/></symbol><symbol overflow="visible" id="f20edb0bG"><path d="M1.45-2.95c0 2.56 1.08 4.37 3.67 4.84l.11-.67C3.28.86 2.43-.75 2.43-2.95s.85-3.82 2.8-4.16l-.1-.69c-2.6.49-3.68 2.3-3.68 4.85zm0 0"/></symbol><symbol overflow="visible" id="f20edb0bH"><path d="M2.84.14C3.8.14 4.33-.26 4.6-.9h.07L4.8 0h.76v-7.14h-.95v2.95h-.08c-.28-.6-.86-.97-1.67-.97-1.48 0-2.27.99-2.27 2.64C.6-.84 1.36.14 2.84.14zm.22-.8c-.98 0-1.48-.59-1.48-1.84s.5-1.86 1.48-1.86c1.13 0 1.58.8 1.58 1.86S4.2-.66 3.06-.66zm0 0"/></symbol><symbol overflow="visible" id="f20edb0bI"><path d="M4.63-6.5c.45 0 .98.08 1.39.2l.2-.72a5.3 5.3 0 00-1.64-.26c-1.52 0-2.16.56-2.16 1.87v.4H.9v.76h1.53V0h.94v-4.25h2.53v-.77H3.36v-.3c0-.84.33-1.18 1.27-1.18zm0 0"/></symbol><symbol overflow="visible" id="f20edb0bJ"><path d="M1.45-7.1c1.96.33 2.8 1.94 2.8 4.15 0 2.2-.84 3.8-2.8 4.17l.11.67c2.58-.47 3.67-2.28 3.67-4.84 0-2.55-1.09-4.36-3.67-4.85zm0 0"/></symbol></defs><use xlink:href="#f20edb0ba" x="104.56" y="154" fill="#515151"/><g fill="#515151"><use xlink:href="#f20edb0bb" x="149.36" y="154"/><use xlink:href="#f20edb0bc" x="193.92" y="154"/><use xlink:href="#f20edb0bd" x="222.96" y="154"/><use xlink:href="#f20edb0be" x="264.4" y="154"/><use xlink:href="#f20edb0bf" x="289.52" y="154"/></g><g fill="#fff"><use xlink:href="#f20edb0bg" x="327.52" y="154"/><use xlink:href="#f20edb0bh" x="372.16" y="154"/><use xlink:href="#f20edb0bi" x="415.44" y="154"/><use xlink:href="#f20edb0bj" x="451.28" y="154"/></g><g fill="#fff"><use xlink:href="#f20edb0bk" x="243.3333" y="252"/><use xlink:href="#f20edb0bl" x="250.0003" y="252"/><use xlink:href="#f20edb0bm" x="256.6673" y="252"/><use xlink:href="#f20edb0bn" x="263.3343" y="252"/><use xlink:href="#f20edb0bo" x="270.0013" y="252"/><use xlink:href="#f20edb0bp" x="276.6683" y="252"/><use xlink:href="#f20edb0bk" x="283.3353" y="252"/><use xlink:href="#f20edb0bq" x="290.0023" y="252"/><use xlink:href="#f20edb0bn" x="296.6693" y="252"/><use xlink:href="#f20edb0br" x="303.3363" y="252"/><use xlink:href="#f20edb0bs" x="310.0033" y="252"/><use xlink:href="#f20edb0bo" x="316.6703" y="252"/><use xlink:href="#f20edb0bp" x="323.3373" y="252"/><use xlink:href="#f20edb0bt" x="330.0043" y="252"/><use xlink:href="#f20edb0bu" x="336.6713" y="252"/><use xlink:href="#f20edb0bv" x="343.3383" y="252"/><use xlink:href="#f20edb0bw" x="350.0053" y="252"/></g><g fill="#fff"><use xlink:href="#f20edb0bx" x="186.6667" y="266"/><use xlink:href="#f20edb0bl" x="193.3337" y="266"/><use xlink:href="#f20edb0br" x="200.0007" y="266"/><use xlink:href="#f20edb0bn" x="206.6677" y="266"/><use xlink:href="#f20edb0by" x="213.3347" y="266"/><use xlink:href="#f20edb0bz" x="220.0017" y="266"/><use xlink:href="#f20edb0bl" x="226.6687" y="266"/><use xlink:href="#f20edb0bo" x="233.3357" y="266"/><use xlink:href="#f20edb0bp" x="240.0027" y="266"/><use xlink:href="#f20edb0bA" x="246.6697" y="266"/><use xlink:href="#f20edb0bB" x="253.3367" y="266"/><use xlink:href="#f20edb0bC" x="260.0037" y="266"/><use xlink:href="#f20edb0bB" x="266.6707" y="266"/><use xlink:href="#f20edb0bC" x="273.3377" y="266"/><use xlink:href="#f20edb0bD" x="280.0047" y="266"/><use xlink:href="#f20edb0bp" x="286.6717" y="266"/><use xlink:href="#f20edb0bC" x="293.3387" y="266"/><use xlink:href="#f20edb0by" x="300.0057" y="266"/><use xlink:href="#f20edb0bE" x="306.6727" y="266"/><use xlink:href="#f20edb0bl" x="313.3397" y="266"/><use xlink:href="#f20edb0bz" x="320.0067" y="266"/><use xlink:href="#f20edb0br" x="326.6737" y="266"/><use xlink:href="#f20edb0bs" x="333.3407" y="266"/><use xlink:href="#f20edb0bF" x="340.0077" y="266"/><use xlink:href="#f20edb0bp" x="346.6747" y="266"/><use xlink:href="#f20edb0bG" x="353.3417" y="266"/><use xlink:href="#f20edb0bH" x="360.0087" y="266"/><use xlink:href="#f20edb0bl" x="366.6757" y="266"/><use xlink:href="#f20edb0bI" x="373.3427" y="266"/><use xlink:href="#f20edb0br" x="380.0097" y="266"/><use xlink:href="#f20edb0by" x="386.6767" y="266"/><use xlink:href="#f20edb0bs" x="393.3437" y="266"/><use xlink:href="#f20edb0bn" x="400.0107" y="266"/><use xlink:href="#f20edb0bJ" x="406.6777" y="266"/></g></svg>