<?xml version='1.0' encoding='UTF-8'?>
<svg xmlns="http://www.w3.org/2000/svg" xmlns:xlink="http://www.w3.org/1999/xlink" width="600px" height="300px" viewBox="0 0 600 300" x="0px" y="0px" enable-background="new 0 0 600 300"><defs><symbol overflow="visible" id="0cf686b8a"><path d="M37.05 0h20.39c1.28 0 1.92-.64 1.92-1.92v-1.85h-6.31v-46.71h6.23v-1.83c0-1.28-.64-1.92-1.92-1.92H37.05v2.71L44.23-50v20.72H18.56v-21.2h6.8v-1.83c0-1.28-.64-1.92-1.92-1.92h-20v2.71L9.77-50v45.77L3.52-2.72V0h19.84c1.28 0 1.92-.64 1.92-1.92v-1.85h-6.72v-22.3h25.67v21.84l-7.18 1.51zm0 0"/></symbol><symbol overflow="visible" id="0cf686b8b"><path d="M4.08 4.8h25.44V-6.23c-.47-.18-.64-.25-.96-.25-.64 0-.97.56-1.2 1.2L25.92-.72 10.32.8l6.73-4.72c9.18-6.56 11.36-10 11.36-14.31 0-4.57-3.46-8.41-10.41-8.41-7.44 0-13.44 4.8-13.44 8.48 0 2.16 1.52 3.29 3.92 3.29h2.16v-7.54c.95-.39 2.31-.71 3.84-.71 4.4 0 6.96 2.56 6.96 6.32 0 2.72-.88 5.6-5.85 9.68C12.08-4.48 8.64-1.84 5.13.8a2.85 2.85 0 00-1.29 2.48c0 .31.08.95.24 1.52zm0 0"/></symbol><symbol overflow="visible" id="0cf686b8c"><path d="M4.4-16.08v14.56c2.72 1.36 10.32 2.88 16 2.88 11.83 0 19.68-7.05 19.68-15.6 0-7.84-5.52-12.32-15.03-17.6-9.28-5.04-11.85-8.47-11.85-12.8 0-4.8 3.68-7.44 9.36-7.44 2.8 0 6.4.95 8.24 2.08l2.4 8.08c.4 1.2.72 2 2 2 .49 0 1.11-.24 1.85-.64v-12.96c-3.36-.71-8.82-1.6-12.82-1.6-11.82 0-19.67 5.12-19.67 14.07 0 8 6.72 12.64 15.03 17.53 8 4.64 12.49 7.75 12.49 13.04C32.08-5.77 27.77-2 19.84-2c-2.32 0-6.56-.48-8.32-1.05L8.4-16.08zm0 0"/></symbol><symbol overflow="visible" id="0cf686b8d"><path d="M29.13 1.13C44.16 1.13 58-11.37 58-27.77c0-17.28-11.69-27.1-26.31-27.1C16.49-54.88 3.2-41.92 3.2-26 3.2-9.28 14.95 1.13 29.13 1.13zm3.1-3.61c-12.07 0-18.95-8.96-18.95-25.68 0-15.43 5.67-23.12 15.6-23.12 12.71 0 19.04 10 19.04 24.48 0 16.16-5.12 24.32-15.69 24.32zm0 0"/></symbol><symbol overflow="visible" id="0cf686b8e"><path d="M11.92 4.8H28c1.2 0 1.84-.64 1.84-1.85V1.2h-5.43v-4.8h2.87c2.56 0 2.88-2.71 2.88-3.76H24.4v-20.08h-2c-2.49 0-4 1.36-5.29 2.88L2.16-6.31C2.23-4.56 3.52-3.6 6.23-3.6h12.25V.8l-6.56 1.43zm6.56-26.64v14.48H7.36zm0 0"/></symbol><symbol overflow="visible" id="0cf686b8f"><path d="M3.83 0v-5.95H6.2v-.82H.45v.82h2.4V0zm0 0"/></symbol><symbol overflow="visible" id="0cf686b8g"><path d="M5.75-2.23v-.43c0-1.6-.9-2.51-2.42-2.51S.87-4.16.87-2.48c0 1.71.91 2.62 2.5 2.62 1.43 0 2.07-.56 2.29-1.52l-.9-.09c-.18.61-.59.9-1.35.9-.94 0-1.52-.54-1.58-1.66zm-2.4-2.2c.93 0 1.43.5 1.48 1.55H1.84c.08-1.07.6-1.56 1.5-1.56zm0 0"/></symbol><symbol overflow="visible" id="0cf686b8h"><path d="M1.83 0l1.42-2h.06l1.46 2H5.8L4-2.53l1.78-2.49H4.8L3.42-3.08h-.08l-1.4-1.94H.89l1.78 2.49L.84 0zm0 0"/></symbol><symbol overflow="visible" id="0cf686b8i"><path d="M5.52-4.25v-.77H3.17v-1.56h-.81l-.14 1.56H.75v.77h1.47v2.4c0 1.3.48 1.94 1.84 1.94C4.6.1 5.14 0 5.55-.14L5.4-.91c-.32.13-.72.2-1.13.2-.8 0-1.1-.37-1.1-1.23v-2.31zm0 0"/></symbol><symbol overflow="visible" id="0cf686b8j"><path d="M3.33-3.42c.47 0 .8-.27.8-.8 0-.51-.33-.8-.8-.8-.47 0-.8.29-.8.8 0 .53.33.8.8.8zm0 3.5c.47 0 .8-.27.8-.78 0-.53-.33-.82-.8-.82-.47 0-.8.29-.8.82 0 .51.33.78.8.78zm0 0"/></symbol><symbol overflow="visible" id="0cf686b8l"><path d="M1.9 0v-3.03h2.87V0h.98v-6.77h-.98v2.91H1.9v-2.9H.92V0zm0 0"/></symbol><symbol overflow="visible" id="0cf686b8m"><path d="M5.67 0v-.86H2.14V-.9L3.6-2c1.05-.83 2-1.68 2-2.91 0-1.19-.73-1.99-2.26-1.99-1.66 0-2.3 1.02-2.44 2.33l1 .08c.1-.92.42-1.58 1.44-1.58.87 0 1.26.44 1.26 1.24 0 .9-.8 1.53-1.96 2.53L.83-.81V0zm0 0"/></symbol><symbol overflow="visible" id="0cf686b8n"><path d="M3.42.14c1.61 0 2.56-.75 2.56-2 0-1.1-.67-1.6-1.95-1.86l-.97-.2c-.87-.17-1.23-.49-1.23-1.11 0-.7.54-1.11 1.5-1.11 1.06 0 1.51.34 1.69 1.23l.9-.09c-.17-1.28-.98-1.9-2.6-1.9C1.79-6.9.9-6.18.9-4.98c0 1.06.66 1.66 1.88 1.9l1.01.2c.85.17 1.25.4 1.25 1.09 0 .73-.6 1.16-1.6 1.16-1.07 0-1.66-.4-1.8-1.24l-.94.1C.83-.53 1.75.13 3.42.13zm0 0"/></symbol><symbol overflow="visible" id="0cf686b8o"><path d="M3.33.14c1.9 0 2.76-1.27 2.76-3.52 0-2.26-.86-3.53-2.76-3.53S.58-5.64.58-3.37c0 2.25.86 3.51 2.75 3.51zM3.3-.67c-1.25 0-1.73-.95-1.73-2.7 0-1.77.5-2.72 1.75-2.72s1.75.95 1.75 2.71c0 1.75-.5 2.7-1.77 2.7zm0 0"/></symbol><symbol overflow="visible" id="0cf686b8p"><path d="M5.1 0v-1.47H6v-.81h-.9v-4.49H3.8L.48-2.23v.76h3.66V0zM1.5-2.33l2.6-3.53h.04v3.58H1.5zm0 0"/></symbol><symbol overflow="visible" id="0cf686b8q"><path d="M5.95-6.77H1.1V0h.99v-2.92H5.3v-.77H2.08v-2.26h3.87zm0 0"/></symbol><symbol overflow="visible" id="0cf686b8r"><path d="M2.83.14c.94 0 1.5-.39 1.81-.95h.08l.1.81h.76v-3.38c0-1.23-.69-1.8-2.13-1.8-1.43 0-2.03.65-2.18 1.6l.93.1c.11-.6.44-.93 1.22-.93.85 0 1.22.32 1.22 1.04v.34l-1.81.2C1.6-2.7 1.1-2.17 1.1-1.28c0 .92.64 1.42 1.72 1.42zm.25-.77c-.67 0-1.02-.28-1.02-.74 0-.44.28-.72 1-.82l1.58-.19v.41c0 .8-.6 1.34-1.56 1.34zm0 0"/></symbol><symbol overflow="visible" id="0cf686b8s"><path d="M2.73.14c.9 0 1.43-.45 1.74-1.08h.06l.13.94h.8v-5.02h-.94v2.7c0 .98-.57 1.62-1.46 1.62-.75 0-1.1-.4-1.1-1.22v-3.1h-.93v3.32c0 1.17.55 1.84 1.7 1.84zm0 0"/></symbol><symbol overflow="visible" id="0cf686b8t"><path d="M5.08-5.16c-.94 0-1.58.43-1.9 1.3h-.09l-.07-1.16H1.05v.77h1.1v3.48H.96V0h3.96v-.77H3.1v-1.46c0-1.36.6-2.05 1.83-2.05.4 0 .76.08 1.1.17l.15-.87c-.33-.11-.7-.18-1.11-.18zm0 0"/></symbol><symbol overflow="visible" id="0cf686b8u"><path d="M3.34.14c1.43 0 2.13-.66 2.25-1.78l-.89-.1c-.1.7-.5 1.08-1.34 1.08-1.03 0-1.52-.64-1.52-1.84 0-1.23.47-1.86 1.52-1.86.84 0 1.23.36 1.34 1.08l.9-.1c-.13-1.09-.82-1.78-2.26-1.78-1.56 0-2.46.97-2.46 2.66 0 1.66.9 2.64 2.46 2.64zm0 0"/></symbol><symbol overflow="visible" id="0cf686b8v"><path d="M3.58-5.81c.42 0 .72-.22.72-.67 0-.44-.3-.68-.72-.68-.44 0-.72.24-.72.68 0 .45.28.67.72.67zm.5.8H1.52v.76h1.6v3.48h-1.8V0h4.46v-.77h-1.7zm0 0"/></symbol><symbol overflow="visible" id="0cf686b8w"><path d="M2.16 0v-2.67c0-.99.59-1.63 1.46-1.63.74 0 1.07.38 1.07 1.22V0h.95v-3.31c0-1.2-.56-1.85-1.67-1.85-.92 0-1.49.46-1.77 1.08h-.06l-.12-.94H1.2V0zm0 0"/></symbol><symbol overflow="visible" id="0cf686b8x"><path d="M4.63-6.5c.45 0 .98.08 1.39.2l.2-.72a5.3 5.3 0 00-1.64-.26c-1.52 0-2.16.56-2.16 1.87v.4H.9v.76h1.53V0h.94v-4.25h2.53v-.77H3.36v-.3c0-.84.33-1.18 1.27-1.18zm0 0"/></symbol><symbol overflow="visible" id="0cf686b8y"><path d="M3.33.14c1.62 0 2.5-.95 2.5-2.66 0-1.68-.88-2.64-2.5-2.64-1.63 0-2.5.96-2.5 2.64 0 1.7.87 2.66 2.5 2.66zm0-.77c-1.06 0-1.52-.6-1.52-1.89 0-1.28.46-1.87 1.52-1.87 1.08 0 1.53.6 1.53 1.87 0 1.29-.45 1.9-1.53 1.9zm0 0"/></symbol><symbol overflow="visible" id="0cf686b8z"><path d="M3.36.16c1.4 0 2.2-.6 2.2-1.57 0-.89-.54-1.22-1.47-1.39L3-3c-.67-.14-.86-.33-.86-.73 0-.5.4-.74 1.17-.74.83 0 1.19.27 1.27.8l.9-.05c-.12-1-.8-1.47-2.17-1.47-1.34 0-2.1.53-2.1 1.5 0 .81.45 1.22 1.52 1.44l1.04.2c.56.11.87.24.87.72 0 .52-.45.78-1.28.78-.95 0-1.36-.28-1.42-.87l-.9.06C1.07-.36 1.8.16 3.35.16zm0 0"/></symbol><symbol overflow="visible" id="0cf686b8A"><path d="M1.45-2.95c0 2.56 1.08 4.37 3.67 4.84l.11-.67C3.28.86 2.43-.75 2.43-2.95s.85-3.82 2.8-4.16l-.1-.69c-2.6.49-3.68 2.3-3.68 4.85zm0 0"/></symbol><symbol overflow="visible" id="0cf686b8B"><path d="M1.45-7.1c1.96.33 2.8 1.94 2.8 4.15 0 2.2-.84 3.8-2.8 4.17l.11.67c2.58-.47 3.67-2.28 3.67-4.84 0-2.55-1.09-4.36-3.67-4.85zm0 0"/></symbol></defs><use xlink:href="#0cf686b8a" x="182.2" y="154" fill="#515151"/><use xlink:href="#0cf686b8b" x="245" y="154" fill="#fff"/><g fill="#515151"><use xlink:href="#0cf686b8c" x="279.4" y="154"/><use xlink:href="#0cf686b8d" x="322.28" y="154"/></g><use xlink:href="#0cf686b8e" x="383.48" y="154" fill="#fff"/><g fill="#fff"><use xlink:href="#0cf686b8f" x="263.3333" y="252"/><use xlink:href="#0cf686b8g" x="270.0003" y="252"/><use xlink:href="#0cf686b8h" x="276.6673" y="252"/><use xlink:href="#0cf686b8i" x="283.3343" y="252"/><use xlink:href="#0cf686b8j" x="290.0013" y="252"/><use xlink:href="#0cf686b8k" x="296.6683" y="252"/><use xlink:href="#0cf686b8l" x="303.3353" y="252"/><use xlink:href="#0cf686b8m" x="310.0023" y="252"/><use xlink:href="#0cf686b8n" x="316.6693" y="252"/><use xlink:href="#0cf686b8o" x="323.3363" y="252"/><use xlink:href="#0cf686b8p" x="330.0033" y="252"/></g><g fill="#fff"><use xlink:href="#0cf686b8q" x="180" y="266"/><use xlink:href="#0cf686b8g" x="186.667" y="266"/><use xlink:href="#0cf686b8r" x="193.334" y="266"/><use xlink:href="#0cf686b8i" x="200.001" y="266"/><use xlink:href="#0cf686b8s" x="206.668" y="266"/><use xlink:href="#0cf686b8t" x="213.335" y="266"/><use xlink:href="#0cf686b8g" x="220.002" y="266"/><use xlink:href="#0cf686b8j" x="226.669" y="266"/><use xlink:href="#0cf686b8k" x="233.336" y="266"/><use xlink:href="#0cf686b8n" x="240.003" y="266"/><use xlink:href="#0cf686b8u" x="246.67" y="266"/><use xlink:href="#0cf686b8v" x="253.337" y="266"/><use xlink:href="#0cf686b8g" x="260.004" y="266"/><use xlink:href="#0cf686b8w" x="266.671" y="266"/><use xlink:href="#0cf686b8i" x="273.338" y="266"/><use xlink:href="#0cf686b8v" x="280.005" y="266"/><use xlink:href="#0cf686b8x" x="286.672" y="266"/><use xlink:href="#0cf686b8v" x="293.339" y="266"/><use xlink:href="#0cf686b8u" x="300.006" y="266"/><use xlink:href="#0cf686b8k" x="306.673" y="266"/><use xlink:href="#0cf686b8v" x="313.34" y="266"/><use xlink:href="#0cf686b8w" x="320.007" y="266"/><use xlink:href="#0cf686b8x" x="326.674" y="266"/><use xlink:href="#0cf686b8g" x="333.341" y="266"/><use xlink:href="#0cf686b8t" x="340.008" y="266"/><use xlink:href="#0cf686b8v" x="346.675" y="266"/><use xlink:href="#0cf686b8y" x="353.342" y="266"/><use xlink:href="#0cf686b8t" x="360.009" y="266"/><use xlink:href="#0cf686b8z" x="366.676" y="266"/><use xlink:href="#0cf686b8k" x="373.343" y="266"/><use xlink:href="#0cf686b8A" x="380.01" y="266"/><use xlink:href="#0cf686b8z" x="386.677" y="266"/><use xlink:href="#0cf686b8v" x="393.344" y="266"/><use xlink:href="#0cf686b8w" x="400.011" y="266"/><use xlink:href="#0cf686b8x" x="406.678" y="266"/><use xlink:href="#0cf686b8B" x="413.345" y="266"/></g></svg>