<?xml version='1.0' encoding='UTF-8'?>
<svg xmlns="http://www.w3.org/2000/svg" xmlns:xlink="http://www.w3.org/1999/xlink" width="600px" height="300px" viewBox="0 0 600 300" x="0px" y="0px" enable-background="new 0 0 600 300"><defs><symbol overflow="visible" id="a3df9d4ba"><path d="M2.72 0h21.92c1.28 0 1.92-.64 1.92-1.92v-1.85h-9.6v-31.51h8.24c1.52 0 2.16-.72 2.16-2.4v-1.76H16.72c0-7.51 0-12.64 1.28-14.97 1.05-1.9 3.2-2.95 6-2.95l4.64 6.72c3.52 0 5.36-1.77 5.36-4.16 0-2.64-2.8-5.84-9.28-5.84-4.8 0-9.77 1.52-13.03 6.23-2.4 3.46-2.97 8.57-2.97 13.85L2.4-39.05v3.77h6.54v31.05L2.72-2.72zm0 0"/></symbol><symbol overflow="visible" id="a3df9d4bb"><path d="M16.95-53.52a5.1 5.1 0 00-5.03-4.96 5.12 5.12 0 00-5.04 4.96 5.1 5.1 0 005.04 4.96 5.1 5.1 0 005.03-4.96zM1.92 0h19.6c1.28 0 1.92-.64 1.92-1.92v-1.85H16.8V-40l-13.03.95c-1.29.1-1.7.82-1.7 1.77v2h6.88v31.05L1.92-2.72zm0 0"/></symbol><symbol overflow="visible" id="a3df9d4bc"><path d="M28.8 0h18.15c1.28 0 1.92-.64 1.92-1.92v-1.85h-5.82v-21.59c0-5.84-1.05-9.05-3.2-11.6-2-2.32-5.29-3.91-9.44-3.91a14.97 14.97 0 00-13.46 8.46l-.64-7.82-11.36.95c-1.6.16-2.08.97-2.08 2v2h6.08v31.05L2.72-2.72V0h18.16c1.28 0 1.92-.64 1.92-1.92v-1.85h-5.85v-14.46c0-5.61.33-10.08 2.97-13.85 2-2.8 4.49-4.4 7.13-4.4 3.67 0 6.23 2.71 7.26 6.48.56 2 .74 5.6.74 7.6v18.17L28.8-2.72zm0 0"/></symbol><symbol overflow="visible" id="a3df9d4bd"><path d="M27.2-28.31h1.36c3.2 0 5.28-1.85 5.28-4.9 0-4.48-5.12-7.35-11.53-7.35-11.43 0-19.1 10-19.1 21.76 0 12.24 7.92 20 17.66 20 5.61 0 9.61-2.25 12-4.64.97-.97 1.2-1.76 1.2-2.33 0-.8-.63-1.43-1.2-2-3.82 2.49-5.82 3.2-8.64 3.2-7.51 0-13.28-7.2-13.28-17.35 0-10.4 5.13-14.56 9.93-14.56.8 0 2 .25 2.48.4zm0 0"/></symbol><symbol overflow="visible" id="a3df9d4be"><path d="M27.2.48l9.2-.96c1.04-.08 2.96-.4 2.96-2.4 0-.4-.08-1.12-.16-1.53h-6.08v-24.23c0-4.64-.64-7.84-3.2-10-1.6-1.36-3.92-2.23-7.84-2.23-3.03 0-7.52.8-11.52 2.95-2.87 1.6-5.84 3.92-5.84 6.64 0 2.16 1.69 3.6 5.44 3.6h2l.8-8.32c1.35-.31 2.96-.64 4.56-.64 4.4 0 7.6 2.64 7.6 7.69v5.9L5.6-16.48c-.64.96-2.54 3.92-2.54 7.76 0 5.6 3.67 9.92 9.9 9.92 4.97 0 10.1-3.28 12.57-9.04zm-2.07-20v2.24c0 1.44-.18 4.33-.97 6.56-.96 2.64-3.36 6.95-7.6 6.95-3.28 0-5.76-2.54-5.76-6 0-2.8 1.28-6.23 6.64-7.67zm0 0"/></symbol><symbol overflow="visible" id="a3df9d4bg"><path d="M3.69 0h21.26c1.28 0 1.93-.64 1.93-1.92v-1.85h-8.24v-16.07h12.64l1.28 5.28h.8c1.28 0 1.77-.56 1.77-1.52V-28.4H32.8l-2.08 5.13H18.64v-18l16.08.8 2 6.8c.33 1.2 1.05 1.45 1.6 1.45.4 0 1.04-.25 1.45-.49v-11.6H3.69v2.73l5.9 1.51v35.92L3.7-2.72zm0 0"/></symbol><symbol overflow="visible" id="a3df9d4bh"><path d="M19.05-55.92A5.1 5.1 0 0014-60.87a5.1 5.1 0 00-5.05 4.95A5.12 5.12 0 0014-50.95a5.12 5.12 0 005.05-4.97zM3.28 0h19.6c1.28 0 1.92-.64 1.92-1.92v-1.85h-6.4v-36.8h6.08v-1.84c0-1.28-.64-1.9-1.92-1.9H3.28v2.72l6.31 1.51v35.85L3.3-2.72zm0 0"/></symbol><symbol overflow="visible" id="a3df9d4bi"><path d="M52.95-44.31h-14.8v2.72l6.41 1.51v30.95L18.41-44.3H3.12v2.72l7.04 1.51L9.12-4.16l-6 1.44V0h14.96C19.36 0 20-.64 20-1.92v-1.85h-6.16l-.25-4.46v-27.61c2.18 2.72 4.25 5.43 6.41 8.15L39.52-2.64C41.59 0 43.84.23 47.52.23h1.2v-36.15l.33-4.64h5.83v-1.85c0-1.28-.65-1.9-1.93-1.9zm0 0"/></symbol><symbol overflow="visible" id="a3df9d4bj"><path d="M42-3.13l2.64-8.15-2.8-1.2-4 6.07C36.16-3.77 33.44-2 28-2c-8 0-14.64-4.95-14.64-20.31 0-14 5.12-19.46 12.95-19.46 4.82 0 9.2.97 10.9 2.08l2.23 6.49c.33 1.04.97 1.76 2.08 1.76A3.6 3.6 0 0043.2-32v-10.88a39.86 39.86 0 00-13.76-2.4C15.04-45.28 3.2-35.2 3.2-21.36c0 13.84 9.6 22.48 23.75 22.48A32.2 32.2 0 0042-3.13zm0 0"/></symbol><symbol overflow="visible" id="a3df9d4bk"><path d="M29.6-44.48a12.68 12.68 0 00-3.29-.47c-2.8 0-5.1 1.6-6.62 5.36L5.59-4.23 0-2.72V0h15.77c1.28 0 1.92-.64 1.92-1.92v-1.85H11.2l3.75-11.28h15.46l3.9 10.82-6.23 1.51V0h18.97c1.26 0 1.9-.64 1.9-1.92v-1.85h-5.03zm-7.29 7.04l6.97 19.36H15.92zm0 0"/></symbol><symbol overflow="visible" id="a3df9d4bl"><path d="M3.83 0v-5.95H6.2v-.82H.45v.82h2.4V0zm0 0"/></symbol><symbol overflow="visible" id="a3df9d4bm"><path d="M5.75-2.23v-.43c0-1.6-.9-2.51-2.42-2.51S.87-4.16.87-2.48c0 1.71.91 2.62 2.5 2.62 1.43 0 2.07-.56 2.29-1.52l-.9-.09c-.18.61-.59.9-1.35.9-.94 0-1.52-.54-1.58-1.66zm-2.4-2.2c.93 0 1.43.5 1.48 1.55H1.84c.08-1.07.6-1.56 1.5-1.56zm0 0"/></symbol><symbol overflow="visible" id="a3df9d4bn"><path d="M1.83 0l1.42-2h.06l1.46 2H5.8L4-2.53l1.78-2.49H4.8L3.42-3.08h-.08l-1.4-1.94H.89l1.78 2.49L.84 0zm0 0"/></symbol><symbol overflow="visible" id="a3df9d4bo"><path d="M5.52-4.25v-.77H3.17v-1.56h-.81l-.14 1.56H.75v.77h1.47v2.4c0 1.3.48 1.94 1.84 1.94C4.6.1 5.14 0 5.55-.14L5.4-.91c-.32.13-.72.2-1.13.2-.8 0-1.1-.37-1.1-1.23v-2.31zm0 0"/></symbol><symbol overflow="visible" id="a3df9d4bp"><path d="M3.33-3.42c.47 0 .8-.27.8-.8 0-.51-.33-.8-.8-.8-.47 0-.8.29-.8.8 0 .53.33.8.8.8zm0 3.5c.47 0 .8-.27.8-.78 0-.53-.33-.82-.8-.82-.47 0-.8.29-.8.82 0 .51.33.78.8.78zm0 0"/></symbol><symbol overflow="visible" id="a3df9d4br"><path d="M4.63-6.5c.45 0 .98.08 1.39.2l.2-.72a5.3 5.3 0 00-1.64-.26c-1.52 0-2.16.56-2.16 1.87v.4H.9v.76h1.53V0h.94v-4.25h2.53v-.77H3.36v-.3c0-.84.33-1.18 1.27-1.18zm0 0"/></symbol><symbol overflow="visible" id="a3df9d4bs"><path d="M3.58-5.81c.42 0 .72-.22.72-.67 0-.44-.3-.68-.72-.68-.44 0-.72.24-.72.68 0 .45.28.67.72.67zm.5.8H1.52v.76h1.6v3.48h-1.8V0h4.46v-.77h-1.7zm0 0"/></symbol><symbol overflow="visible" id="a3df9d4bt"><path d="M2.16 0v-2.67c0-.99.59-1.63 1.46-1.63.74 0 1.07.38 1.07 1.22V0h.95v-3.31c0-1.2-.56-1.85-1.67-1.85-.92 0-1.49.46-1.77 1.08h-.06l-.12-.94H1.2V0zm0 0"/></symbol><symbol overflow="visible" id="a3df9d4bu"><path d="M3.34.14c1.43 0 2.13-.66 2.25-1.78l-.89-.1c-.1.7-.5 1.08-1.34 1.08-1.03 0-1.52-.64-1.52-1.84 0-1.23.47-1.86 1.52-1.86.84 0 1.23.36 1.34 1.08l.9-.1c-.13-1.09-.82-1.78-2.26-1.78-1.56 0-2.46.97-2.46 2.66 0 1.66.9 2.64 2.46 2.64zm0 0"/></symbol><symbol overflow="visible" id="a3df9d4bv"><path d="M2.83.14c.94 0 1.5-.39 1.81-.95h.08l.1.81h.76v-3.38c0-1.23-.69-1.8-2.13-1.8-1.43 0-2.03.65-2.18 1.6l.93.1c.11-.6.44-.93 1.22-.93.85 0 1.22.32 1.22 1.04v.34l-1.81.2C1.6-2.7 1.1-2.17 1.1-1.28c0 .92.64 1.42 1.72 1.42zm.25-.77c-.67 0-1.02-.28-1.02-.74 0-.44.28-.72 1-.82l1.58-.19v.41c0 .8-.6 1.34-1.56 1.34zm0 0"/></symbol><symbol overflow="visible" id="a3df9d4bw"><path d="M5.95-6.77H1.1V0h.99v-2.92H5.3v-.77H2.08v-2.26h3.87zm0 0"/></symbol><symbol overflow="visible" id="a3df9d4bx"><path d="M2.73.14c.9 0 1.43-.45 1.74-1.08h.06l.13.94h.8v-5.02h-.94v2.7c0 .98-.57 1.62-1.46 1.62-.75 0-1.1-.4-1.1-1.22v-3.1h-.93v3.32c0 1.17.55 1.84 1.7 1.84zm0 0"/></symbol><symbol overflow="visible" id="a3df9d4by"><path d="M5.08-5.16c-.94 0-1.58.43-1.9 1.3h-.09l-.07-1.16H1.05v.77h1.1v3.48H.96V0h3.96v-.77H3.1v-1.46c0-1.36.6-2.05 1.83-2.05.4 0 .76.08 1.1.17l.15-.87c-.33-.11-.7-.18-1.11-.18zm0 0"/></symbol><symbol overflow="visible" id="a3df9d4bz"><path d="M5.77-5.02H4.63L2.3-2.88h-.06v-4.26h-.94V0h.94v-2.31h.06L4.71 0h1.24L3.23-2.69zm0 0"/></symbol><symbol overflow="visible" id="a3df9d4bA"><path d="M3.36.16c1.4 0 2.2-.6 2.2-1.57 0-.89-.54-1.22-1.47-1.39L3-3c-.67-.14-.86-.33-.86-.73 0-.5.4-.74 1.17-.74.83 0 1.19.27 1.27.8l.9-.05c-.12-1-.8-1.47-2.17-1.47-1.34 0-2.1.53-2.1 1.5 0 .81.45 1.22 1.52 1.44l1.04.2c.56.11.87.24.87.72 0 .52-.45.78-1.28.78-.95 0-1.36-.28-1.42-.87l-.9.06C1.07-.36 1.8.16 3.35.16zm0 0"/></symbol><symbol overflow="visible" id="a3df9d4bB"><path d="M2.16 0v-2.69c0-.98.6-1.6 1.46-1.6.74 0 1.07.4 1.07 1.2V0h.95v-3.31c0-1.17-.56-1.85-1.67-1.85-.9 0-1.44.46-1.75 1.08h-.06v-3.06H1.2V0zm0 0"/></symbol><symbol overflow="visible" id="a3df9d4bC"><path d="M2.58.95l2.39-8.67h-.9L1.7.95zm0 0"/></symbol><symbol overflow="visible" id="a3df9d4bD"><path d="M3.42.14C5.1.14 5.9-.69 6.11-2.17l-.95-.1C4.96-1.19 4.5-.69 3.44-.69c-1.27 0-1.81-.94-1.81-2.69s.54-2.7 1.8-2.7c1.09 0 1.5.49 1.73 1.58l.93-.1c-.21-1.46-.95-2.3-2.62-2.3C1.53-6.9.62-5.6.62-3.38c0 2.2.91 3.51 2.8 3.51zm0 0"/></symbol><symbol overflow="visible" id="a3df9d4bE"><path d="M1.63 0v-2.9c0-.8.15-1.4.71-1.4.41 0 .55.3.55.88V0h.95v-2.9c0-.8.18-1.4.72-1.4.4 0 .57.3.57.88V0h.95v-3.63c0-.92-.28-1.53-1.11-1.53-.63 0-.95.41-1.1.9h-.06c-.1-.52-.44-.9-1.08-.9-.6 0-.93.41-1.06.9H1.6l-.23-.76H.67V0zm0 0"/></symbol><symbol overflow="visible" id="a3df9d4bF"><path d="M1.45-2.95c0 2.56 1.08 4.37 3.67 4.84l.11-.67C3.28.86 2.43-.75 2.43-2.95s.85-3.82 2.8-4.16l-.1-.69c-2.6.49-3.68 2.3-3.68 4.85zm0 0"/></symbol><symbol overflow="visible" id="a3df9d4bG"><path d="M3.92-7.14H1.36v.76h1.6v5.61H1.15V0H5.7v-.77H3.92zm0 0"/></symbol><symbol overflow="visible" id="a3df9d4bH"><path d="M3.16 2.03c1.67 0 2.4-.86 2.4-2.51v-4.54h-.81l-.13.91h-.06c-.26-.58-.8-1.05-1.73-1.05-1.42 0-2.24 1-2.24 2.52 0 1.6.75 2.56 2.2 2.56.94 0 1.5-.5 1.77-1.03h.05v.72c0 1.17-.42 1.67-1.45 1.67-.93 0-1.3-.34-1.41-.89L.8.5c.12.96.87 1.54 2.36 1.54zM3.06-.8c-.98 0-1.48-.57-1.48-1.82 0-1.13.5-1.75 1.48-1.75 1.06 0 1.58.76 1.58 1.75 0 .95-.56 1.82-1.58 1.82zm0 0"/></symbol><symbol overflow="visible" id="a3df9d4bI"><path d="M1.45-7.1c1.96.33 2.8 1.94 2.8 4.15 0 2.2-.84 3.8-2.8 4.17l.11.67c2.58-.47 3.67-2.28 3.67-4.84 0-2.55-1.09-4.36-3.67-4.85zm0 0"/></symbol></defs><use xlink:href="#a3df9d4ba" x="33.4" y="154" fill="#fff"/><use xlink:href="#a3df9d4bb" x="63.16" y="154" fill="#fff"/><use xlink:href="#a3df9d4bc" x="88.52" y="154" fill="#515151"/><use xlink:href="#a3df9d4bd" x="139.32" y="154" fill="#515151"/><g fill="#515151"><use xlink:href="#a3df9d4be" x="176.6" y="154"/><use xlink:href="#a3df9d4bc" x="218.04" y="154"/><use xlink:href="#a3df9d4bf" x="269.64" y="154"/></g><use xlink:href="#a3df9d4bg" x="288.04" y="154" fill="#fff"/><use xlink:href="#a3df9d4bh" x="329.8" y="154" fill="#fff"/><use xlink:href="#a3df9d4bi" x="358.36" y="154" fill="#515151"/><use xlink:href="#a3df9d4bj" x="412.68" y="154" fill="#515151"/><use xlink:href="#a3df9d4bk" x="459.32" y="154" fill="#515151"/><use xlink:href="#a3df9d4bi" x="509.48" y="154" fill="#515151"/><g fill="#fff"><use xlink:href="#a3df9d4bl" x="236.6667" y="252"/><use xlink:href="#a3df9d4bm" x="243.3337" y="252"/><use xlink:href="#a3df9d4bn" x="250.0007" y="252"/><use xlink:href="#a3df9d4bo" x="256.6677" y="252"/><use xlink:href="#a3df9d4bp" x="263.3347" y="252"/><use xlink:href="#a3df9d4bq" x="270.0017" y="252"/><use xlink:href="#a3df9d4br" x="276.6687" y="252"/><use xlink:href="#a3df9d4bs" x="283.3357" y="252"/><use xlink:href="#a3df9d4bt" x="290.0027" y="252"/><use xlink:href="#a3df9d4bu" x="296.6697" y="252"/><use xlink:href="#a3df9d4bv" x="303.3367" y="252"/><use xlink:href="#a3df9d4bt" x="310.0037" y="252"/><use xlink:href="#a3df9d4bq" x="316.6707" y="252"/><use xlink:href="#a3df9d4br" x="323.3377" y="252"/><use xlink:href="#a3df9d4bs" x="330.0047" y="252"/><use xlink:href="#a3df9d4bt" x="336.6717" y="252"/><use xlink:href="#a3df9d4bu" x="343.3387" y="252"/><use xlink:href="#a3df9d4bv" x="350.0057" y="252"/><use xlink:href="#a3df9d4bt" x="356.6727" y="252"/></g><g fill="#fff"><use xlink:href="#a3df9d4bw" x="150" y="266"/><use xlink:href="#a3df9d4bm" x="156.667" y="266"/><use xlink:href="#a3df9d4bv" x="163.334" y="266"/><use xlink:href="#a3df9d4bo" x="170.001" y="266"/><use xlink:href="#a3df9d4bx" x="176.668" y="266"/><use xlink:href="#a3df9d4by" x="183.335" y="266"/><use xlink:href="#a3df9d4bm" x="190.002" y="266"/><use xlink:href="#a3df9d4bp" x="196.669" y="266"/><use xlink:href="#a3df9d4bq" x="203.336" y="266"/><use xlink:href="#a3df9d4bl" x="210.003" y="266"/><use xlink:href="#a3df9d4bx" x="216.67" y="266"/><use xlink:href="#a3df9d4by" x="223.337" y="266"/><use xlink:href="#a3df9d4bz" x="230.004" y="266"/><use xlink:href="#a3df9d4bs" x="236.671" y="266"/><use xlink:href="#a3df9d4bA" x="243.338" y="266"/><use xlink:href="#a3df9d4bB" x="250.005" y="266"/><use xlink:href="#a3df9d4bC" x="256.672" y="266"/><use xlink:href="#a3df9d4bD" x="263.339" y="266"/><use xlink:href="#a3df9d4by" x="270.006" y="266"/><use xlink:href="#a3df9d4bs" x="276.673" y="266"/><use xlink:href="#a3df9d4bE" x="283.34" y="266"/><use xlink:href="#a3df9d4bm" x="290.007" y="266"/><use xlink:href="#a3df9d4bv" x="296.674" y="266"/><use xlink:href="#a3df9d4bt" x="303.341" y="266"/><use xlink:href="#a3df9d4bq" x="310.008" y="266"/><use xlink:href="#a3df9d4bl" x="316.675" y="266"/><use xlink:href="#a3df9d4bv" x="323.342" y="266"/><use xlink:href="#a3df9d4bo" x="330.009" y="266"/><use xlink:href="#a3df9d4bv" x="336.676" y="266"/><use xlink:href="#a3df9d4by" x="343.343" y="266"/><use xlink:href="#a3df9d4bq" x="350.01" y="266"/><use xlink:href="#a3df9d4bF" x="356.677" y="266"/><use xlink:href="#a3df9d4bA" x="363.344" y="266"/><use xlink:href="#a3df9d4bm" x="370.011" y="266"/><use xlink:href="#a3df9d4bo" x="376.678" y="266"/><use xlink:href="#a3df9d4bq" x="383.345" y="266"/><use xlink:href="#a3df9d4bG" x="390.012" y="266"/><use xlink:href="#a3df9d4bv" x="396.679" y="266"/><use xlink:href="#a3df9d4bt" x="403.346" y="266"/><use xlink:href="#a3df9d4bH" x="410.013" y="266"/><use xlink:href="#a3df9d4bx" x="416.68" y="266"/><use xlink:href="#a3df9d4bv" x="423.347" y="266"/><use xlink:href="#a3df9d4bH" x="430.014" y="266"/><use xlink:href="#a3df9d4bm" x="436.681" y="266"/><use xlink:href="#a3df9d4bI" x="443.348" y="266"/></g></svg>