<?xml version='1.0' encoding='UTF-8'?>
<svg xmlns="http://www.w3.org/2000/svg" xmlns:xlink="http://www.w3.org/1999/xlink" width="600px" height="300px" viewBox="0 0 600 300" x="0px" y="0px" enable-background="new 0 0 600 300"><defs><symbol overflow="visible" id="2e338b66a"><path d="M2 0h35.69v-15.92a2.6 2.6 0 00-1.28-.4c-1.2 0-1.7.8-2 1.91l-1.85 7.46L9.12-5.44C27.29-23.52 36-30.8 36-40.8c0-8.4-6.48-13.43-14.72-13.43-10.64 0-18.23 6.54-18.23 11.82 0 3.13 2 4 5.03 4h2.64v-10C11.84-49.05 14.4-50 16.8-50c6.56 0 10.64 4.72 10.64 11.44 0 5.28-1.85 10.8-9.2 18.64L4-5.6C2.08-3.6 2-2.31 2 0zm0 0"/></symbol><symbol overflow="visible" id="2e338b66b"><path d="M12.88-2.72v-8.97a5.4 5.4 0 00-3.11-.95c-2.9 0-4.97 1.77-4.97 5.05 0 5.51 4.72 9.1 13.84 9.1 12.48 0 21.05-8.8 21.05-19.74 0-7.85-4.81-15.54-16.1-15.54-3.43 0-6.87.82-11.36 2.97v-16h18.41c2.56 0 6.23-.33 6.23-6.64H9.36L7.05-25.69H9.2c1.68 0 2.16-.54 3.2-1.18 2.8-1.7 4.96-2.41 7.29-2.41 7.75 0 12.23 7.51 12.23 13.76 0 10-5.6 13.93-12.15 13.93-3.7 0-5.61-.64-6.9-1.13zm0 0"/></symbol><symbol overflow="visible" id="2e338b66d"><path d="M20 4.4h4.48l39.68-62.63h-4.24zm-8.56-40.48h2.25c5.03 0 7.67 2.8 7.67 6.16 0 3.76-2.95 5.12-6.72 5.12-3.12 0-5.2-1.12-5.2-1.12l-.72-5.6H8.4c-3.85.08-5.46 1.83-5.46 4 0 3.68 4.57 5.75 10.74 5.75 8.31 0 14.23-4.23 14.23-9.82 0-3.7-3.05-6.33-7.69-7.05 3.2-1.77 5.61-4.56 5.61-8.23 0-3.44-3.12-6.97-9.6-6.97-6.08 0-12.8 4-12.8 7.53 0 1.67.87 2.87 3.28 2.87h2.87v-6.15c.97-.41 2.1-.64 3.46-.64 3.9 0 6.54 1.92 6.54 5.43 0 3.2-1.59 5.85-5.36 5.85h-1.28c-1.36 0-1.82.64-1.82 1.67 0 .4.15.87.3 1.2zM64.24-.8H80.3c1.2 0 1.85-.64 1.85-1.84v-1.77h-5.44v-4.8h2.87c2.57 0 2.9-2.71 2.9-3.74h-5.77v-20.1h-2c-2.49 0-4 1.36-5.28 2.9L54.48-11.93c.08 1.76 1.36 2.72 4.08 2.72H70.8v4.4l-6.57 1.44zm6.56-26.64v14.49H59.69zm0 0"/></symbol><symbol overflow="visible" id="2e338b66e"><path d="M5.69-22.4h19.03c1.2 0 1.84-.65 1.84-1.83V-26h-6.72v-27.28h-3.2L6.72-47.6c-.64.3-1.03.87-1.03 1.51 0 .4.15.88.54 1.44l6.82-1.2v19.6l-7.36 1.2zm0 0"/></symbol><symbol overflow="visible" id="2e338b66f"><path d="M2.64-22.4h25.44v-11.04c-.49-.15-.64-.25-.95-.25-.65 0-.97.56-1.2 1.2l-1.45 4.57-15.6 1.51L14-29.92c10.48-7.44 12.95-10.95 12.95-15.52 0-4.56-3.43-8.4-10.39-8.4-7.43 0-13.43 4.8-13.43 8.48 0 2.16 1.51 3.28 3.92 3.28H9.2v-7.51c.96-.41 2.32-.72 3.85-.72 4.39 0 6.95 2.54 6.95 6.31 0 2.72-.88 5.6-5.84 9.69-3.52 2.62-6.96 5.26-10.47 7.9a2.86 2.86 0 00-1.28 2.49c0 .48.07.97.23 1.51zm0 0"/></symbol><symbol overflow="visible" id="2e338b66g"><path d="M-10.4 4.4h4.48l39.69-62.63h-4.25zm0 0"/></symbol><symbol overflow="visible" id="2e338b66h"><path d="M22-26.56L5.2-1.6C6.16-.64 7.44.23 8.72.23c1.84 0 2.97-1.28 4.48-4.3l12.72-22c1.67-2.88 1.85-3.77 1.85-5.62H2.95V-22H5.6l.64-4.56zm0 0"/></symbol><symbol overflow="visible" id="2e338b66i"><path d="M2.64-4.08c-.23.64-.4 1.13-.4 1.6C2.23-.72 4.71.23 8.4.23c12.3 0 20.07-9.36 20.07-19.51 0-8.16-5.36-13.52-13.68-13.52-7.93 0-13.2 4.96-13.2 11.28 0 5.93 4.71 9.93 12 9.93 1.92 0 4.88-.49 7.53-1.2C19.68-7.3 15.84-3.2 8.4-3.2c-1.85 0-4.33-.4-5.77-.88zM21.7-16c-1.53.48-3.2.95-5.69.95-4.95 0-8.48-3.51-8.48-7.9 0-4.25 2.64-6.9 6.25-6.9 4.46 0 8.07 3.54 8.07 11.13 0 .95-.07 1.84-.15 2.72zm0 0"/></symbol><symbol overflow="visible" id="2e338b66j"><path d="M10.72-25.6v-4.09a6.67 6.67 0 00-3.03-.87c-2.49 0-3.53 1.6-3.53 3.36 0 2.56 2.89 5.36 9.84 5.36 7.84 0 14.23-4.4 14.23-11.11 0-4.25-3.1-8.64-10-8.64-2.95 0-5.75.54-7.59 1.43v-8.25h12c1.84 0 4.64-1.03 4.64-4.87h-20L5.6-36.23h2.1c1.26 0 1.67-.33 2.95-.9a9.22 9.22 0 014.31-1.18c4.49 0 6.82 3.9 6.82 7.36 0 4.8-3.46 6.15-6.49 6.15-3.05 0-4.56-.8-4.56-.8zm0 0"/></symbol><symbol overflow="visible" id="2e338b66k"><path d="M3.83 0v-5.95H6.2v-.82H.45v.82h2.4V0zm0 0"/></symbol><symbol overflow="visible" id="2e338b66l"><path d="M5.75-2.23v-.43c0-1.6-.9-2.51-2.42-2.51S.87-4.16.87-2.48c0 1.71.91 2.62 2.5 2.62 1.43 0 2.07-.56 2.29-1.52l-.9-.09c-.18.61-.59.9-1.35.9-.94 0-1.52-.54-1.58-1.66zm-2.4-2.2c.93 0 1.43.5 1.48 1.55H1.84c.08-1.07.6-1.56 1.5-1.56zm0 0"/></symbol><symbol overflow="visible" id="2e338b66m"><path d="M1.83 0l1.42-2h.06l1.46 2H5.8L4-2.53l1.78-2.49H4.8L3.42-3.08h-.08l-1.4-1.94H.89l1.78 2.49L.84 0zm0 0"/></symbol><symbol overflow="visible" id="2e338b66n"><path d="M5.52-4.25v-.77H3.17v-1.56h-.81l-.14 1.56H.75v.77h1.47v2.4c0 1.3.48 1.94 1.84 1.94C4.6.1 5.14 0 5.55-.14L5.4-.91c-.32.13-.72.2-1.13.2-.8 0-1.1-.37-1.1-1.23v-2.31zm0 0"/></symbol><symbol overflow="visible" id="2e338b66o"><path d="M3.33-3.42c.47 0 .8-.27.8-.8 0-.51-.33-.8-.8-.8-.47 0-.8.29-.8.8 0 .53.33.8.8.8zm0 3.5c.47 0 .8-.27.8-.78 0-.53-.33-.82-.8-.82-.47 0-.8.29-.8.82 0 .51.33.78.8.78zm0 0"/></symbol><symbol overflow="visible" id="2e338b66q"><path d="M5.67 0v-.86H2.14V-.9L3.6-2c1.05-.83 2-1.68 2-2.91 0-1.19-.73-1.99-2.26-1.99-1.66 0-2.3 1.02-2.44 2.33l1 .08c.1-.92.42-1.58 1.44-1.58.87 0 1.26.44 1.26 1.24 0 .9-.8 1.53-1.96 2.53L.83-.81V0zm0 0"/></symbol><symbol overflow="visible" id="2e338b66r"><path d="M3.42.14c1.55 0 2.44-.84 2.44-2.33 0-1.45-.83-2.22-2.14-2.22-.75 0-1.28.27-1.67.72H2l.31-2.22h3.11v-.86H1.53l-.45 3.93h.81c.3-.36.9-.79 1.58-.79.92 0 1.44.43 1.44 1.47 0 .99-.54 1.5-1.49 1.5-.83 0-1.28-.32-1.5-1.01l-.95.1C1.07-.46 2 .13 3.42.13zm0 0"/></symbol><symbol overflow="visible" id="2e338b66s"><path d="M3.25.14c1.58 0 2.53-.69 2.53-1.95 0-1.19-.92-1.56-1.6-1.61v-.05A1.6 1.6 0 005.6-5.12c0-1.13-.87-1.79-2.3-1.79-1.62 0-2.32.82-2.45 1.88l.97.06c.13-.69.52-1.1 1.47-1.1.86 0 1.35.32 1.35 1.05 0 .86-.6 1.2-1.66 1.2h-.49v.79h.54c1.12 0 1.78.25 1.78 1.14 0 .78-.46 1.22-1.55 1.22-1.06 0-1.48-.4-1.63-1.1l-.98.07C.75-.56 1.56.14 3.25.14zm0 0"/></symbol><symbol overflow="visible" id="2e338b66t"><path d="M2.58.95l2.39-8.67h-.9L1.7.95zm0 0"/></symbol><symbol overflow="visible" id="2e338b66u"><path d="M5.1 0v-1.47H6v-.81h-.9v-4.49H3.8L.48-2.23v.76h3.66V0zM1.5-2.33l2.6-3.53h.04v3.58H1.5zm0 0"/></symbol><symbol overflow="visible" id="2e338b66v"><path d="M4.22-6.77h-.86l-2.03.7v.87c.64-.17 1.26-.38 1.89-.55v4.9H1.03V0h4.9v-.86H4.21zm0 0"/></symbol><symbol overflow="visible" id="2e338b66w"><path d="M.92-4.42h.88v-1.49h3.1v.05L2.27 0H3.3l2.64-6v-.77H.92zm0 0"/></symbol><symbol overflow="visible" id="2e338b66x"><path d="M3.25-6.9C1.67-6.9.77-6.04.77-4.6c0 1.41.85 2.18 2.21 2.18 1.04 0 1.58-.52 1.88-1.03h.06c0 1.54-.39 2.78-1.73 2.78-.9 0-1.24-.44-1.36-.97l-.97.1c.22.96.86 1.68 2.33 1.68C4.83.14 5.8-.9 5.8-3.64c0-2.22-.92-3.27-2.56-3.27zm-.02.8c.91 0 1.46.52 1.46 1.44 0 .91-.69 1.47-1.53 1.47-.91 0-1.46-.51-1.46-1.47S2.3-6.1 3.23-6.1zm0 0"/></symbol><symbol overflow="visible" id="2e338b66y"><path d="M5.95-6.77H1.1V0h.99v-2.92H5.3v-.77H2.08v-2.26h3.87zm0 0"/></symbol><symbol overflow="visible" id="2e338b66z"><path d="M2.83.14c.94 0 1.5-.39 1.81-.95h.08l.1.81h.76v-3.38c0-1.23-.69-1.8-2.13-1.8-1.43 0-2.03.65-2.18 1.6l.93.1c.11-.6.44-.93 1.22-.93.85 0 1.22.32 1.22 1.04v.34l-1.81.2C1.6-2.7 1.1-2.17 1.1-1.28c0 .92.64 1.42 1.72 1.42zm.25-.77c-.67 0-1.02-.28-1.02-.74 0-.44.28-.72 1-.82l1.58-.19v.41c0 .8-.6 1.34-1.56 1.34zm0 0"/></symbol><symbol overflow="visible" id="2e338b66A"><path d="M2.73.14c.9 0 1.43-.45 1.74-1.08h.06l.13.94h.8v-5.02h-.94v2.7c0 .98-.57 1.62-1.46 1.62-.75 0-1.1-.4-1.1-1.22v-3.1h-.93v3.32c0 1.17.55 1.84 1.7 1.84zm0 0"/></symbol><symbol overflow="visible" id="2e338b66B"><path d="M5.08-5.16c-.94 0-1.58.43-1.9 1.3h-.09l-.07-1.16H1.05v.77h1.1v3.48H.96V0h3.96v-.77H3.1v-1.46c0-1.36.6-2.05 1.83-2.05.4 0 .76.08 1.1.17l.15-.87c-.33-.11-.7-.18-1.11-.18zm0 0"/></symbol><symbol overflow="visible" id="2e338b66C"><path d="M3.34.14c1.43 0 2.13-.66 2.25-1.78l-.89-.1c-.1.7-.5 1.08-1.34 1.08-1.03 0-1.52-.64-1.52-1.84 0-1.23.47-1.86 1.52-1.86.84 0 1.23.36 1.34 1.08l.9-.1c-.13-1.09-.82-1.78-2.26-1.78-1.56 0-2.46.97-2.46 2.66 0 1.66.9 2.64 2.46 2.64zm0 0"/></symbol><symbol overflow="visible" id="2e338b66D"><path d="M3.58-5.81c.42 0 .72-.22.72-.67 0-.44-.3-.68-.72-.68-.44 0-.72.24-.72.68 0 .45.28.67.72.67zm.5.8H1.52v.76h1.6v3.48h-1.8V0h4.46v-.77h-1.7zm0 0"/></symbol><symbol overflow="visible" id="2e338b66E"><path d="M3.33.14c1.62 0 2.5-.95 2.5-2.66 0-1.68-.88-2.64-2.5-2.64-1.63 0-2.5.96-2.5 2.64 0 1.7.87 2.66 2.5 2.66zm0-.77c-1.06 0-1.52-.6-1.52-1.89 0-1.28.46-1.87 1.52-1.87 1.08 0 1.53.6 1.53 1.87 0 1.29-.45 1.9-1.53 1.9zm0 0"/></symbol><symbol overflow="visible" id="2e338b66F"><path d="M2.16 0v-2.67c0-.99.59-1.63 1.46-1.63.74 0 1.07.38 1.07 1.22V0h.95v-3.31c0-1.2-.56-1.85-1.67-1.85-.92 0-1.49.46-1.77 1.08h-.06l-.12-.94H1.2V0zm0 0"/></symbol><symbol overflow="visible" id="2e338b66G"><path d="M3.36.16c1.4 0 2.2-.6 2.2-1.57 0-.89-.54-1.22-1.47-1.39L3-3c-.67-.14-.86-.33-.86-.73 0-.5.4-.74 1.17-.74.83 0 1.19.27 1.27.8l.9-.05c-.12-1-.8-1.47-2.17-1.47-1.34 0-2.1.53-2.1 1.5 0 .81.45 1.22 1.52 1.44l1.04.2c.56.11.87.24.87.72 0 .52-.45.78-1.28.78-.95 0-1.36-.28-1.42-.87l-.9.06C1.07-.36 1.8.16 3.35.16zm0 0"/></symbol><symbol overflow="visible" id="2e338b66H"><path d="M1.45-2.95c0 2.56 1.08 4.37 3.67 4.84l.11-.67C3.28.86 2.43-.75 2.43-2.95s.85-3.82 2.8-4.16l-.1-.69c-2.6.49-3.68 2.3-3.68 4.85zm0 0"/></symbol><symbol overflow="visible" id="2e338b66I"><path d="M4.63-6.5c.45 0 .98.08 1.39.2l.2-.72a5.3 5.3 0 00-1.64-.26c-1.52 0-2.16.56-2.16 1.87v.4H.9v.76h1.53V0h.94v-4.25h2.53v-.77H3.36v-.3c0-.84.33-1.18 1.27-1.18zm0 0"/></symbol><symbol overflow="visible" id="2e338b66J"><path d="M1.45-7.1c1.96.33 2.8 1.94 2.8 4.15 0 2.2-.84 3.8-2.8 4.17l.11.67c2.58-.47 3.67-2.28 3.67-4.84 0-2.55-1.09-4.36-3.67-4.85zm0 0"/></symbol></defs><g fill="#515151"><use xlink:href="#2e338b66a" x="73.08" y="154"/><use xlink:href="#2e338b66b" x="115.16" y="154"/><use xlink:href="#2e338b66c" x="158.44" y="154"/></g><use xlink:href="#2e338b66d" x="176.84" y="154" fill="#fff"/><use xlink:href="#2e338b66e" x="279.4" y="154" fill="#fff"/><use xlink:href="#2e338b66f" x="309.8" y="154" fill="#fff"/><use xlink:href="#2e338b66g" x="340.2" y="154" fill="#fff"/><use xlink:href="#2e338b66h" x="363.56" y="154" fill="#fff"/><use xlink:href="#2e338b66i" x="393.96" y="154" fill="#fff"/><use xlink:href="#2e338b66j" x="442.76" y="154" fill="#fff"/><use xlink:href="#2e338b66g" x="473.16" y="154" fill="#fff"/><use xlink:href="#2e338b66i" x="496.52" y="154" fill="#fff"/><g fill="#fff"><use xlink:href="#2e338b66k" x="226.6667" y="252"/><use xlink:href="#2e338b66l" x="233.3337" y="252"/><use xlink:href="#2e338b66m" x="240.0007" y="252"/><use xlink:href="#2e338b66n" x="246.6677" y="252"/><use xlink:href="#2e338b66o" x="253.3347" y="252"/><use xlink:href="#2e338b66p" x="260.0017" y="252"/><use xlink:href="#2e338b66q" x="266.6687" y="252"/><use xlink:href="#2e338b66r" x="273.3357" y="252"/><use xlink:href="#2e338b66p" x="280.0027" y="252"/><use xlink:href="#2e338b66s" x="286.6697" y="252"/><use xlink:href="#2e338b66t" x="293.3367" y="252"/><use xlink:href="#2e338b66u" x="300.0037" y="252"/><use xlink:href="#2e338b66p" x="306.6707" y="252"/><use xlink:href="#2e338b66v" x="313.3377" y="252"/><use xlink:href="#2e338b66q" x="320.0047" y="252"/><use xlink:href="#2e338b66t" x="326.6717" y="252"/><use xlink:href="#2e338b66w" x="333.3387" y="252"/><use xlink:href="#2e338b66x" x="340.0057" y="252"/><use xlink:href="#2e338b66p" x="346.6727" y="252"/><use xlink:href="#2e338b66r" x="353.3397" y="252"/><use xlink:href="#2e338b66t" x="360.0067" y="252"/><use xlink:href="#2e338b66x" x="366.6737" y="252"/></g><g fill="#fff"><use xlink:href="#2e338b66y" x="216.6667" y="266"/><use xlink:href="#2e338b66l" x="223.3337" y="266"/><use xlink:href="#2e338b66z" x="230.0007" y="266"/><use xlink:href="#2e338b66n" x="236.6677" y="266"/><use xlink:href="#2e338b66A" x="243.3347" y="266"/><use xlink:href="#2e338b66B" x="250.0017" y="266"/><use xlink:href="#2e338b66l" x="256.6687" y="266"/><use xlink:href="#2e338b66o" x="263.3357" y="266"/><use xlink:href="#2e338b66p" x="270.0027" y="266"/><use xlink:href="#2e338b66y" x="276.6697" y="266"/><use xlink:href="#2e338b66B" x="283.3367" y="266"/><use xlink:href="#2e338b66z" x="290.0037" y="266"/><use xlink:href="#2e338b66C" x="296.6707" y="266"/><use xlink:href="#2e338b66n" x="303.3377" y="266"/><use xlink:href="#2e338b66D" x="310.0047" y="266"/><use xlink:href="#2e338b66E" x="316.6717" y="266"/><use xlink:href="#2e338b66F" x="323.3387" y="266"/><use xlink:href="#2e338b66G" x="330.0057" y="266"/><use xlink:href="#2e338b66p" x="336.6727" y="266"/><use xlink:href="#2e338b66H" x="343.3397" y="266"/><use xlink:href="#2e338b66I" x="350.0067" y="266"/><use xlink:href="#2e338b66B" x="356.6737" y="266"/><use xlink:href="#2e338b66z" x="363.3407" y="266"/><use xlink:href="#2e338b66C" x="370.0077" y="266"/><use xlink:href="#2e338b66J" x="376.6747" y="266"/></g></svg>