<?xml version='1.0' encoding='UTF-8'?>
<svg xmlns="http://www.w3.org/2000/svg" xmlns:xlink="http://www.w3.org/1999/xlink" width="600px" height="300px" viewBox="0 0 600 300" x="0px" y="0px" enable-background="new 0 0 600 300"><defs><symbol overflow="visible" id="6ed75667a"><path d="M3.2 0h19.44a6 6 0 00.72-2.8l-7.2-1.28V-24.4H44v19.05L37.69-2.8c0 .96.23 2.08.72 2.8h19.43a6.2 6.2 0 00.72-2.8l-7.2-1.28v-43.76l6.33-2.57c0-.95-.25-2.07-.74-2.8H37.52c-.47.9-.72 1.93-.72 2.8l7.2 1.28v20.26H16.16v-18.97l6.32-2.57c0-.95-.25-2.07-.71-2.8H2.3c-.47.9-.72 1.93-.72 2.8l7.2 1.28v43.77L2.5-2.8c0 .96.23 2.08.71 2.8zm0 0"/></symbol><symbol overflow="visible" id="6ed75667c"><path d="M22.88.95c10.56 0 18.56-6.23 18.56-15.6 0-6-3.28-10.07-13.28-14.87-10.72-5.2-14.4-8.25-14.4-12.4 0-1.85.8-4.4 2.4-6.16a14.55 14.55 0 015.92-1.12c3.2 0 7.44.72 10.72 2l2.25 9.36c1.03 0 2.23-.08 3.1-.32L39.2-52.8a64.92 64.92 0 00-13.51-1.76c-11.28 0-18.9 6.64-18.9 15.2 0 6.31 4.08 10 14.9 15.28 9.67 4.72 12.8 7.77 12.8 12.4 0 1.84-.49 4.24-1.62 6-2.23 1.2-4.95 1.6-7.59 1.6-4.64 0-9.12-1.36-13.92-4.48v-10.4c-.88-.24-2.08-.32-3.13-.32L4.56-4C11.76-.56 17.7.95 22.88.95zm0 0"/></symbol><symbol overflow="visible" id="6ed75667d"><path d="M28.31.95c16 0 26.74-13.9 26.74-30 0-17.26-12.4-25.51-24.74-25.51-16 0-26.72 13.92-26.72 30C3.6-7.28 16 .95 28.31.95zm-16.95-28.8c0-9.35 4-15.92 8.72-21.1a35.8 35.8 0 015.51-.49c12.41 0 21.7 9.2 21.7 23.6 0 9.53-4.16 16.25-8.73 21.2a35.8 35.8 0 01-5.51.48c-12.4 0-21.7-9.28-21.7-23.68zm0 0"/></symbol><symbol overflow="visible" id="6ed75667b"><path d="M11.44-24.08c-5.6 0-9.03 3.92-9.52 8.56 1.52.8 4.08.64 5.44.32-.24-2.32.16-4.64.48-5.85a7 7 0 011.85-.3c1.9 0 3.67 1.35 3.67 3.66 0 3.2-3.2 6.4-8.48 12.33L1.77-1.84c0 1.36.87 1.84.87 1.84H19.6c.33-1.2.33-3.13 0-3.77L6.88-2.64 8.8-4.48C14-9.6 19.36-13.2 19.36-17.84c0-3.75-3.52-6.24-7.92-6.24zm0 0"/></symbol><symbol overflow="visible" id="6ed75667e"><path d="M18.16-.16v-4.4h3.6a7.74 7.74 0 000-3.28l-3.6.15v-15.26l-1.75-1.13C10.3-22.8 3.05-13.36 1.77-6.16a7.8 7.8 0 001.28 1.6h10.47v4.4c1.53.32 3.12.32 4.64 0zM13.52-19.2v11.76l-7.2.32c.88-4.32 4.09-9.6 7.2-12.08zm0 0"/></symbol><symbol overflow="visible" id="6ed75667f"><path d="M3.83 0v-5.95H6.2v-.82H.45v.82h2.4V0zm0 0"/></symbol><symbol overflow="visible" id="6ed75667g"><path d="M5.75-2.23v-.43c0-1.6-.9-2.51-2.42-2.51S.87-4.16.87-2.48c0 1.71.91 2.62 2.5 2.62 1.43 0 2.07-.56 2.29-1.52l-.9-.09c-.18.61-.59.9-1.35.9-.94 0-1.52-.54-1.58-1.66zm-2.4-2.2c.93 0 1.43.5 1.48 1.55H1.84c.08-1.07.6-1.56 1.5-1.56zm0 0"/></symbol><symbol overflow="visible" id="6ed75667h"><path d="M1.83 0l1.42-2h.06l1.46 2H5.8L4-2.53l1.78-2.49H4.8L3.42-3.08h-.08l-1.4-1.94H.89l1.78 2.49L.84 0zm0 0"/></symbol><symbol overflow="visible" id="6ed75667i"><path d="M5.52-4.25v-.77H3.17v-1.56h-.81l-.14 1.56H.75v.77h1.47v2.4c0 1.3.48 1.94 1.84 1.94C4.6.1 5.14 0 5.55-.14L5.4-.91c-.32.13-.72.2-1.13.2-.8 0-1.1-.37-1.1-1.23v-2.31zm0 0"/></symbol><symbol overflow="visible" id="6ed75667j"><path d="M3.33-3.42c.47 0 .8-.27.8-.8 0-.51-.33-.8-.8-.8-.47 0-.8.29-.8.8 0 .53.33.8.8.8zm0 3.5c.47 0 .8-.27.8-.78 0-.53-.33-.82-.8-.82-.47 0-.8.29-.8.82 0 .51.33.78.8.78zm0 0"/></symbol><symbol overflow="visible" id="6ed75667l"><path d="M1.9 0v-3.03h2.87V0h.98v-6.77h-.98v2.91H1.9v-2.9H.92V0zm0 0"/></symbol><symbol overflow="visible" id="6ed75667m"><path d="M5.67 0v-.86H2.14V-.9L3.6-2c1.05-.83 2-1.68 2-2.91 0-1.19-.73-1.99-2.26-1.99-1.66 0-2.3 1.02-2.44 2.33l1 .08c.1-.92.42-1.58 1.44-1.58.87 0 1.26.44 1.26 1.24 0 .9-.8 1.53-1.96 2.53L.83-.81V0zm0 0"/></symbol><symbol overflow="visible" id="6ed75667n"><path d="M3.42.14c1.61 0 2.56-.75 2.56-2 0-1.1-.67-1.6-1.95-1.86l-.97-.2c-.87-.17-1.23-.49-1.23-1.11 0-.7.54-1.11 1.5-1.11 1.06 0 1.51.34 1.69 1.23l.9-.09c-.17-1.28-.98-1.9-2.6-1.9C1.79-6.9.9-6.18.9-4.98c0 1.06.66 1.66 1.88 1.9l1.01.2c.85.17 1.25.4 1.25 1.09 0 .73-.6 1.16-1.6 1.16-1.07 0-1.66-.4-1.8-1.24l-.94.1C.83-.53 1.75.13 3.42.13zm0 0"/></symbol><symbol overflow="visible" id="6ed75667o"><path d="M3.33.14c1.9 0 2.76-1.27 2.76-3.52 0-2.26-.86-3.53-2.76-3.53S.58-5.64.58-3.37c0 2.25.86 3.51 2.75 3.51zM3.3-.67c-1.25 0-1.73-.95-1.73-2.7 0-1.77.5-2.72 1.75-2.72s1.75.95 1.75 2.71c0 1.75-.5 2.7-1.77 2.7zm0 0"/></symbol><symbol overflow="visible" id="6ed75667p"><path d="M5.1 0v-1.47H6v-.81h-.9v-4.49H3.8L.48-2.23v.76h3.66V0zM1.5-2.33l2.6-3.53h.04v3.58H1.5zm0 0"/></symbol><symbol overflow="visible" id="6ed75667q"><path d="M5.95-6.77H1.1V0h.99v-2.92H5.3v-.77H2.08v-2.26h3.87zm0 0"/></symbol><symbol overflow="visible" id="6ed75667r"><path d="M2.83.14c.94 0 1.5-.39 1.81-.95h.08l.1.81h.76v-3.38c0-1.23-.69-1.8-2.13-1.8-1.43 0-2.03.65-2.18 1.6l.93.1c.11-.6.44-.93 1.22-.93.85 0 1.22.32 1.22 1.04v.34l-1.81.2C1.6-2.7 1.1-2.17 1.1-1.28c0 .92.64 1.42 1.72 1.42zm.25-.77c-.67 0-1.02-.28-1.02-.74 0-.44.28-.72 1-.82l1.58-.19v.41c0 .8-.6 1.34-1.56 1.34zm0 0"/></symbol><symbol overflow="visible" id="6ed75667s"><path d="M2.73.14c.9 0 1.43-.45 1.74-1.08h.06l.13.94h.8v-5.02h-.94v2.7c0 .98-.57 1.62-1.46 1.62-.75 0-1.1-.4-1.1-1.22v-3.1h-.93v3.32c0 1.17.55 1.84 1.7 1.84zm0 0"/></symbol><symbol overflow="visible" id="6ed75667t"><path d="M5.08-5.16c-.94 0-1.58.43-1.9 1.3h-.09l-.07-1.16H1.05v.77h1.1v3.48H.96V0h3.96v-.77H3.1v-1.46c0-1.36.6-2.05 1.83-2.05.4 0 .76.08 1.1.17l.15-.87c-.33-.11-.7-.18-1.11-.18zm0 0"/></symbol><symbol overflow="visible" id="6ed75667u"><path d="M3.34.14c1.43 0 2.13-.66 2.25-1.78l-.89-.1c-.1.7-.5 1.08-1.34 1.08-1.03 0-1.52-.64-1.52-1.84 0-1.23.47-1.86 1.52-1.86.84 0 1.23.36 1.34 1.08l.9-.1c-.13-1.09-.82-1.78-2.26-1.78-1.56 0-2.46.97-2.46 2.66 0 1.66.9 2.64 2.46 2.64zm0 0"/></symbol><symbol overflow="visible" id="6ed75667v"><path d="M3.58-5.81c.42 0 .72-.22.72-.67 0-.44-.3-.68-.72-.68-.44 0-.72.24-.72.68 0 .45.28.67.72.67zm.5.8H1.52v.76h1.6v3.48h-1.8V0h4.46v-.77h-1.7zm0 0"/></symbol><symbol overflow="visible" id="6ed75667w"><path d="M2.16 0v-2.67c0-.99.59-1.63 1.46-1.63.74 0 1.07.38 1.07 1.22V0h.95v-3.31c0-1.2-.56-1.85-1.67-1.85-.92 0-1.49.46-1.77 1.08h-.06l-.12-.94H1.2V0zm0 0"/></symbol><symbol overflow="visible" id="6ed75667x"><path d="M4.63-6.5c.45 0 .98.08 1.39.2l.2-.72a5.3 5.3 0 00-1.64-.26c-1.52 0-2.16.56-2.16 1.87v.4H.9v.76h1.53V0h.94v-4.25h2.53v-.77H3.36v-.3c0-.84.33-1.18 1.27-1.18zm0 0"/></symbol><symbol overflow="visible" id="6ed75667y"><path d="M3.33.14c1.62 0 2.5-.95 2.5-2.66 0-1.68-.88-2.64-2.5-2.64-1.63 0-2.5.96-2.5 2.64 0 1.7.87 2.66 2.5 2.66zm0-.77c-1.06 0-1.52-.6-1.52-1.89 0-1.28.46-1.87 1.52-1.87 1.08 0 1.53.6 1.53 1.87 0 1.29-.45 1.9-1.53 1.9zm0 0"/></symbol><symbol overflow="visible" id="6ed75667z"><path d="M3.36.16c1.4 0 2.2-.6 2.2-1.57 0-.89-.54-1.22-1.47-1.39L3-3c-.67-.14-.86-.33-.86-.73 0-.5.4-.74 1.17-.74.83 0 1.19.27 1.27.8l.9-.05c-.12-1-.8-1.47-2.17-1.47-1.34 0-2.1.53-2.1 1.5 0 .81.45 1.22 1.52 1.44l1.04.2c.56.11.87.24.87.72 0 .52-.45.78-1.28.78-.95 0-1.36-.28-1.42-.87l-.9.06C1.07-.36 1.8.16 3.35.16zm0 0"/></symbol><symbol overflow="visible" id="6ed75667A"><path d="M1.45-2.95c0 2.56 1.08 4.37 3.67 4.84l.11-.67C3.28.86 2.43-.75 2.43-2.95s.85-3.82 2.8-4.16l-.1-.69c-2.6.49-3.68 2.3-3.68 4.85zm0 0"/></symbol><symbol overflow="visible" id="6ed75667B"><path d="M1.45-7.1c1.96.33 2.8 1.94 2.8 4.15 0 2.2-.84 3.8-2.8 4.17l.11.67c2.58-.47 3.67-2.28 3.67-4.84 0-2.55-1.09-4.36-3.67-4.85zm0 0"/></symbol></defs><use xlink:href="#6ed75667a" x="197" y="148" fill="#515151"/><use xlink:href="#6ed75667b" x="257.16" y="148" fill="#fff"/><g fill="#515151"><use xlink:href="#6ed75667c" x="278.6" y="148"/><use xlink:href="#6ed75667d" x="323.64" y="148"/></g><use xlink:href="#6ed75667e" x="379.48" y="148" fill="#fff"/><g fill="#fff"><use xlink:href="#6ed75667f" x="263.3333" y="252"/><use xlink:href="#6ed75667g" x="270.0003" y="252"/><use xlink:href="#6ed75667h" x="276.6673" y="252"/><use xlink:href="#6ed75667i" x="283.3343" y="252"/><use xlink:href="#6ed75667j" x="290.0013" y="252"/><use xlink:href="#6ed75667k" x="296.6683" y="252"/><use xlink:href="#6ed75667l" x="303.3353" y="252"/><use xlink:href="#6ed75667m" x="310.0023" y="252"/><use xlink:href="#6ed75667n" x="316.6693" y="252"/><use xlink:href="#6ed75667o" x="323.3363" y="252"/><use xlink:href="#6ed75667p" x="330.0033" y="252"/></g><g fill="#fff"><use xlink:href="#6ed75667q" x="180" y="266"/><use xlink:href="#6ed75667g" x="186.667" y="266"/><use xlink:href="#6ed75667r" x="193.334" y="266"/><use xlink:href="#6ed75667i" x="200.001" y="266"/><use xlink:href="#6ed75667s" x="206.668" y="266"/><use xlink:href="#6ed75667t" x="213.335" y="266"/><use xlink:href="#6ed75667g" x="220.002" y="266"/><use xlink:href="#6ed75667j" x="226.669" y="266"/><use xlink:href="#6ed75667k" x="233.336" y="266"/><use xlink:href="#6ed75667n" x="240.003" y="266"/><use xlink:href="#6ed75667u" x="246.67" y="266"/><use xlink:href="#6ed75667v" x="253.337" y="266"/><use xlink:href="#6ed75667g" x="260.004" y="266"/><use xlink:href="#6ed75667w" x="266.671" y="266"/><use xlink:href="#6ed75667i" x="273.338" y="266"/><use xlink:href="#6ed75667v" x="280.005" y="266"/><use xlink:href="#6ed75667x" x="286.672" y="266"/><use xlink:href="#6ed75667v" x="293.339" y="266"/><use xlink:href="#6ed75667u" x="300.006" y="266"/><use xlink:href="#6ed75667k" x="306.673" y="266"/><use xlink:href="#6ed75667v" x="313.34" y="266"/><use xlink:href="#6ed75667w" x="320.007" y="266"/><use xlink:href="#6ed75667x" x="326.674" y="266"/><use xlink:href="#6ed75667g" x="333.341" y="266"/><use xlink:href="#6ed75667t" x="340.008" y="266"/><use xlink:href="#6ed75667v" x="346.675" y="266"/><use xlink:href="#6ed75667y" x="353.342" y="266"/><use xlink:href="#6ed75667t" x="360.009" y="266"/><use xlink:href="#6ed75667z" x="366.676" y="266"/><use xlink:href="#6ed75667k" x="373.343" y="266"/><use xlink:href="#6ed75667A" x="380.01" y="266"/><use xlink:href="#6ed75667z" x="386.677" y="266"/><use xlink:href="#6ed75667v" x="393.344" y="266"/><use xlink:href="#6ed75667w" x="400.011" y="266"/><use xlink:href="#6ed75667x" x="406.678" y="266"/><use xlink:href="#6ed75667B" x="413.345" y="266"/></g></svg>