<?xml version='1.0' encoding='UTF-8'?>
<svg xmlns="http://www.w3.org/2000/svg" xmlns:xlink="http://www.w3.org/1999/xlink" width="310px" height="280px" viewBox="0 0 310 280" x="0px" y="0px" enable-background="new 0 0 310 280"><defs><symbol overflow="visible" id="33c22cd7a"><path d="M1.17 0H16.2c.51-1.05.72-2.28.72-3.31l-6.2-.99 3.34-9.6h16.17l3.64 9.48-5.72 1.1c0 1.3.2 2.35.6 3.32h17.54c.52-1.05.72-2.28.72-3.31l-4.3-.85-15.2-40.62c-2.6.51-5.14 1.23-7.6 2.47L5.13-5.14.58-3.31c0 1.3.2 2.34.6 3.31zm20.74-36.66h.26c.52 3.05 1.63 6.05 3.56 11.11l2.8 7.22h-13zm0 0"/></symbol><symbol overflow="visible" id="33c22cd7b"><path d="M6.44-5.2l-3.9 2.08c0 1.3.26 2.15.65 3.12h15.98a9 9 0 00.66-3.38l-5.99-.84v-16.45c2.54-1.24 7.02-2.02 10.35-2.02 0-2.86-.14-5.26-.6-7.47-4.48 0-8 2.72-10.4 6.9l-.25-.15 1.23-5a11.17 11.17 0 00-5-1.03c-3.06 0-5.8.7-8.06 1.75a6 6 0 00.7 2.99l4.81.39a51.55 51.55 0 00-.18 4.75zm0 0"/></symbol><symbol overflow="visible" id="33c22cd7c"><path d="M17.03.84c5.06 0 9.1-1.62 12.03-3.96a8.67 8.67 0 00-1.31-3.11c-3.1 1.23-5 1.68-7.4 1.68-6.57 0-10.2-3.76-10.41-10.86h18.2c.53-1.42.78-2.8.78-4.28 0-6.5-4.87-10.47-11.23-10.47-8.66 0-15.49 7.41-15.49 16.77C2.2-4.5 8 .84 17.03.84zm-1.69-26.57c3.58 0 5.91 2.14 6.36 6.42l-11.56.53c.27-2.4.97-4.42 1.9-6.44 1.09-.33 2.26-.51 3.3-.51zm0 0"/></symbol><symbol overflow="visible" id="33c22cd7d"><path d="M2.8 0h14.95c.45-1.05.64-2.34.64-3.38l-4.87-.71v-33.28c0-4.49.71-7.74.92-8.79a12.86 12.86 0 00-5.53-1.03c-2.93 0-5.79.72-8.13 1.75 0 1.05.19 2.08.72 3l4.81.38a44.8 44.8 0 00-.2 4.69V-5.2h-.06l-3.9 2.08c0 1.3.26 2.15.65 3.12zm29.7.84c1.44 0 2.92-.32 3.97-.84.25-.84.45-2.28.45-3.31-2.73-.85-5.78-3.13-9.56-8.13l-4.61-6.17 8.52-7.03L35.3-26c0-1.05-.2-2.08-.72-3.13H21.13a7.9 7.9 0 00-.66 3.13l3.9 1.56-8.7 9.42 6.3 8.79C25.48-1.3 28.59.84 32.5.84zm0 0"/></symbol><symbol overflow="visible" id="33c22cd7e"><path d="M7.4 0L4.79-8.1H3.23L.6 0h1.18l.51-1.77h3.35L6.19 0zM3.95-7.13h.1l1.32 4.47h-2.8zm0 0"/></symbol><symbol overflow="visible" id="33c22cd7f"><path d="M6.1-6.19c-1.12 0-1.9.52-2.3 1.57h-.08l-.11-1.4H1.27v.91h1.32v4.19H1.14V0H5.9v-.92H3.73v-1.75c0-1.64.7-2.46 2.2-2.46.48 0 .91.08 1.32.2l.17-1.05c-.39-.13-.83-.2-1.33-.2zm0 0"/></symbol><symbol overflow="visible" id="33c22cd7g"><path d="M6.9-2.69v-.5C6.9-5.13 5.82-6.2 4-6.2 2.17-6.2 1.06-5 1.06-2.98c0 2.06 1.08 3.15 3 3.15C5.75.17 6.52-.5 6.8-1.64l-1.08-.13c-.24.75-.7 1.07-1.64 1.07-1.11 0-1.81-.64-1.88-1.99zM4-5.33c1.14 0 1.75.61 1.8 1.88H2.22c.1-1.28.7-1.88 1.78-1.88zm0 0"/></symbol><symbol overflow="visible" id="33c22cd7h"><path d="M6.92-6.02H5.55L2.78-3.45H2.7v-5.13H1.56V0H2.7v-2.78h.08L5.64 0h1.5L3.88-3.22zm0 0"/></symbol><symbol overflow="visible" id="33c22cd7j"><path d="M2.48-8.1H1.31V0h5.74v-.98H2.48zm0 0"/></symbol><symbol overflow="visible" id="33c22cd7k"><path d="M3.4.17C4.51.17 5.2-.3 5.57-.97h.08l.12.97h.9v-4.05c0-1.48-.82-2.15-2.54-2.15-1.73 0-2.44.75-2.6 1.9l1.1.11c.13-.7.52-1.1 1.47-1.1 1.01 0 1.47.37 1.47 1.23v.42l-2.17.23c-1.49.18-2.08.82-2.08 1.86 0 1.13.76 1.72 2.06 1.72zm.29-.92c-.81 0-1.2-.33-1.2-.9 0-.52.32-.87 1.2-.96l1.89-.23v.48c0 .95-.75 1.61-1.9 1.61zm0 0"/></symbol><symbol overflow="visible" id="33c22cd7l"><path d="M6.63-5.1v-.92H3.8v-1.87h-.98l-.17 1.87H.9v.91h1.75v2.88c0 1.57.57 2.35 2.21 2.35.65 0 1.29-.12 1.79-.3l-.18-.9a3.9 3.9 0 01-1.34.22c-.97 0-1.33-.44-1.33-1.47V-5.1zm0 0"/></symbol><symbol overflow="visible" id="33c22cd7m"><path d="M4.3-6.97c.5 0 .86-.28.86-.81S4.8-8.6 4.3-8.6c-.53 0-.86.28-.86.8 0 .54.33.82.86.82zm.6.95H1.82v.91h1.92v4.19H1.56V0h5.38v-.92H4.89zm0 0"/></symbol><symbol overflow="visible" id="33c22cd7n"><path d="M2.6 0v-3.22c0-1.17.71-1.94 1.76-1.94.87 0 1.26.46 1.26 1.47V0h1.15v-3.97c0-1.45-.7-2.22-2-2.22-1.11 0-1.79.55-2.13 1.3h-.08l-.14-1.13h-.97V0zm0 0"/></symbol></defs><use xlink:href="#33c22cd7a" x="84.41" y="145"/><use xlink:href="#33c22cd7b" x="131.86" y="145"/><use xlink:href="#33c22cd7c" x="156.82" y="145"/><use xlink:href="#33c22cd7d" x="188.345" y="145"/><g fill-opacity=".33"><use xlink:href="#33c22cd7e" x="115" y="230"/><use xlink:href="#33c22cd7f" x="123.0004" y="230"/><use xlink:href="#33c22cd7g" x="131.0008" y="230"/><use xlink:href="#33c22cd7h" x="139.0012" y="230"/><use xlink:href="#33c22cd7i" x="147.0016" y="230"/><use xlink:href="#33c22cd7j" x="155.002" y="230"/><use xlink:href="#33c22cd7k" x="163.0024" y="230"/><use xlink:href="#33c22cd7l" x="171.0028" y="230"/><use xlink:href="#33c22cd7m" x="179.0032" y="230"/><use xlink:href="#33c22cd7n" x="187.0036" y="230"/></g></svg>