<?xml version='1.0' encoding='UTF-8'?>
<svg xmlns="http://www.w3.org/2000/svg" xmlns:xlink="http://www.w3.org/1999/xlink" width="600px" height="300px" viewBox="0 0 600 300" x="0px" y="0px" enable-background="new 0 0 600 300"><defs><symbol overflow="visible" id="dcf54fbda"><path d="M19.6-43.36c1.12 0 5.12-3.12 5.12-5.2 0-2.16-4-5.13-5.13-5.13-1.1 0-5.28 2.97-5.28 5.13 0 2.08 4.1 5.2 5.28 5.2zM15.35.95c4.23 0 9.77-1.67 14.56-4.08 0-2.46-1.2-5.43-2.56-7.35-3.77 3.2-7.77 6.17-12 7.43-3.92-1.83-6.48-5.67-6.48-9.26C8.88-21.05 24-28 24-30.23c0-3.61-.31-6.33-.88-9.05l-6 .48v9.85c-5.28 4.3-15.92 9.51-15.92 17.9 0 6.82 6.8 12 14.16 12zm0 0"/></symbol><symbol overflow="visible" id="dcf54fbdb"><path d="M28.31.95c.57 0 1.13 0 1.69-.07 8.4 3.28 21.44 16.07 31.52 16.07 5.12 0 8.71-3.36 10.96-7.6L71.44 7.6c-1.85 1.36-3.36 1.93-6.08 1.93C55.44 9.52 46.23 2 37.44-.72c10.8-4.08 17.6-15.51 17.6-28.33 0-17.26-12.4-25.51-24.73-25.51-16 0-26.72 13.92-26.72 30C3.6-7.28 16 .95 28.31.95zm-16.95-28.8c0-9.35 4-15.92 8.72-21.1a35.8 35.8 0 015.51-.49c12.41 0 21.7 9.2 21.7 23.6 0 9.53-4.16 16.25-8.73 21.2a35.8 35.8 0 01-5.51.48c-12.4 0-21.7-9.28-21.7-23.68zm0 0"/></symbol><symbol overflow="visible" id="dcf54fbdc"><path d="M30.88-3.52c-9.68 0-13.93-5.28-13.93-17.43v-26.9l6.33-2.87c0-.97-.23-1.76-.72-2.48H3.13c-.49.89-.72 1.76-.72 2.64l7.18 1.36v28.25C9.6-6.08 16.16.95 30.16.95c13.12 0 19.2-6.87 19.6-21.9l.72-26.9 6.24-2.87c0-.97-.24-1.76-.72-2.48H38.31c-.47.89-.72 1.76-.72 2.64l6.64 1.44.72 28.17c.33 12-4.08 17.43-14.08 17.43zm0 0"/></symbol><symbol overflow="visible" id="dcf54fbdd"><path d="M35.2-63.92l-3.28-5.67c-5.05 3.75-11.2 6.87-16.15 9.59.3 1.2.87 2.23 1.36 3.13a89.4 89.4 0 0018.07-7.05zm.08 34.87L16.08-28v-20.72h18.87l2.49 10.49c1.04 0 2.25-.08 3.12-.33L41.6-53.2H2.23c-.46.89-.71 1.92-.71 2.8l7.2 1.27v43.77L2.4-2.8c0 .96.23 2.08.71 2.8H41.2c.64-4.72 1.36-9.52 2-14.23-.89-.25-2.08-.33-3.12-.33L35.77-4.48h-19.7v-18.96h19.21c.4-1.76.49-3.68 0-5.6zm0 0"/></symbol><symbol overflow="visible" id="dcf54fbde"><path d="M16.56-54.56c-4.25 0-9.76 1.69-14.56 4.08 0 2.48 1.2 5.43 2.56 7.35 3.75-3.18 7.75-6.15 12-7.43 3.92 1.84 6.49 5.69 6.49 9.28 0 8.72-15.13 15.69-15.13 17.92 0 3.6.31 6.31.88 9.05l6-.49v-9.84c5.28-4.31 15.92-9.52 15.92-17.92 0-6.8-6.8-12-14.16-12zm-4.25 44.33c-1.1 0-5.1 3.1-5.1 5.18 0 2.17 4 5.13 5.1 5.13 1.13 0 5.28-2.96 5.28-5.13 0-2.08-4.07-5.18-5.28-5.18zm0 0"/></symbol><symbol overflow="visible" id="dcf54fbdf"><path d="M3.83 0v-5.95H6.2v-.82H.45v.82h2.4V0zm0 0"/></symbol><symbol overflow="visible" id="dcf54fbdg"><path d="M5.75-2.23v-.43c0-1.6-.9-2.51-2.42-2.51S.87-4.16.87-2.48c0 1.71.91 2.62 2.5 2.62 1.43 0 2.07-.56 2.29-1.52l-.9-.09c-.18.61-.59.9-1.35.9-.94 0-1.52-.54-1.58-1.66zm-2.4-2.2c.93 0 1.43.5 1.48 1.55H1.84c.08-1.07.6-1.56 1.5-1.56zm0 0"/></symbol><symbol overflow="visible" id="dcf54fbdh"><path d="M1.83 0l1.42-2h.06l1.46 2H5.8L4-2.53l1.78-2.49H4.8L3.42-3.08h-.08l-1.4-1.94H.89l1.78 2.49L.84 0zm0 0"/></symbol><symbol overflow="visible" id="dcf54fbdi"><path d="M5.52-4.25v-.77H3.17v-1.56h-.81l-.14 1.56H.75v.77h1.47v2.4c0 1.3.48 1.94 1.84 1.94C4.6.1 5.14 0 5.55-.14L5.4-.91c-.32.13-.72.2-1.13.2-.8 0-1.1-.37-1.1-1.23v-2.31zm0 0"/></symbol><symbol overflow="visible" id="dcf54fbdj"><path d="M3.33-3.42c.47 0 .8-.27.8-.8 0-.51-.33-.8-.8-.8-.47 0-.8.29-.8.8 0 .53.33.8.8.8zm0 3.5c.47 0 .8-.27.8-.78 0-.53-.33-.82-.8-.82-.47 0-.8.29-.8.82 0 .51.33.78.8.78zm0 0"/></symbol><symbol overflow="visible" id="dcf54fbdl"><path d="M4.06-5.14c-.34 0-.6.2-.6.58 0 .37.26.58.6.58.36 0 .6-.2.6-.58 0-.38-.24-.58-.6-.58zm-.4 1.84v.52c0 .67-.47 1-.94 1.36-.49.37-1 .78-1 1.7 0 1.13.76 1.8 2.19 1.8 1.53 0 2.26-.66 2.45-2l-.92-.1C5.28.9 4.92 1.33 3.9 1.33c-.82 0-1.25-.4-1.25-1.08 0-.6.42-.94.87-1.28.47-.4.99-.8.99-1.66v-.6zm0 0"/></symbol><symbol overflow="visible" id="dcf54fbdm"><path d="M6.1-3.38c0-2.26-.87-3.53-2.77-3.53S.58-5.64.58-3.37c0 2.25.86 3.51 2.75 3.51.39 0 .73-.05 1.03-.16l.56.99h1.03l-.8-1.44c.65-.6.94-1.58.94-2.9zM3.3-.67c-1.25 0-1.73-.94-1.73-2.7 0-1.76.5-2.71 1.75-2.71s1.75.95 1.75 2.71c0 .94-.14 1.65-.47 2.11l-.5-.89H3.08l.8 1.41c-.18.06-.35.08-.57.08zm0 0"/></symbol><symbol overflow="visible" id="dcf54fbdn"><path d="M3.33.14c1.7 0 2.51-.86 2.51-2.69v-4.22h-.98v4.2c0 1.41-.47 1.9-1.53 1.9S1.8-1.16 1.8-2.57v-4.2H.8v4.22c0 1.83.81 2.7 2.52 2.7zm0 0"/></symbol><symbol overflow="visible" id="dcf54fbdo"><path d="M3.86-7.31l1.31-1.82H4.2L3.1-7.3zm2.06.54H1.1V0h4.83v-.8H2.06v-2.26h3.22v-.75H2.06v-2.16h3.86zm0 0"/></symbol><symbol overflow="visible" id="dcf54fbdp"><path d="M3.7-1.77v-.51c0-.67.47-1 .9-1.33.54-.4 1.06-.81 1.06-1.72 0-1.14-.77-1.81-2.2-1.81-1.52 0-2.26.66-2.44 2l.92.1c.15-.91.51-1.35 1.51-1.35.83 0 1.25.39 1.25 1.08 0 .6-.4.92-.84 1.26-.48.4-1 .8-1 1.67v.61zM3.3.08c.34 0 .6-.2.6-.58 0-.38-.26-.58-.6-.58-.35 0-.58.2-.58.58 0 .38.23.58.58.58zm0 0"/></symbol><symbol overflow="visible" id="dcf54fbdq"><path d="M5.95-6.77H1.1V0h.99v-2.92H5.3v-.77H2.08v-2.26h3.87zm0 0"/></symbol><symbol overflow="visible" id="dcf54fbdr"><path d="M2.83.14c.94 0 1.5-.39 1.81-.95h.08l.1.81h.76v-3.38c0-1.23-.69-1.8-2.13-1.8-1.43 0-2.03.65-2.18 1.6l.93.1c.11-.6.44-.93 1.22-.93.85 0 1.22.32 1.22 1.04v.34l-1.81.2C1.6-2.7 1.1-2.17 1.1-1.28c0 .92.64 1.42 1.72 1.42zm.25-.77c-.67 0-1.02-.28-1.02-.74 0-.44.28-.72 1-.82l1.58-.19v.41c0 .8-.6 1.34-1.56 1.34zm0 0"/></symbol><symbol overflow="visible" id="dcf54fbds"><path d="M2.73.14c.9 0 1.43-.45 1.74-1.08h.06l.13.94h.8v-5.02h-.94v2.7c0 .98-.57 1.62-1.46 1.62-.75 0-1.1-.4-1.1-1.22v-3.1h-.93v3.32c0 1.17.55 1.84 1.7 1.84zm0 0"/></symbol><symbol overflow="visible" id="dcf54fbdt"><path d="M5.08-5.16c-.94 0-1.58.43-1.9 1.3h-.09l-.07-1.16H1.05v.77h1.1v3.48H.96V0h3.96v-.77H3.1v-1.46c0-1.36.6-2.05 1.83-2.05.4 0 .76.08 1.1.17l.15-.87c-.33-.11-.7-.18-1.11-.18zm0 0"/></symbol><symbol overflow="visible" id="dcf54fbdu"><path d="M3.42.14C5.1.14 5.9-.69 6.11-2.17l-.95-.1C4.96-1.19 4.5-.69 3.44-.69c-1.27 0-1.81-.94-1.81-2.69s.54-2.7 1.8-2.7c1.09 0 1.5.49 1.73 1.58l.93-.1c-.21-1.46-.95-2.3-2.62-2.3C1.53-6.9.62-5.6.62-3.38c0 2.2.91 3.51 2.8 3.51zm0 0"/></symbol><symbol overflow="visible" id="dcf54fbdv"><path d="M3.36.16c1.4 0 2.2-.6 2.2-1.57 0-.89-.54-1.22-1.47-1.39L3-3c-.67-.14-.86-.33-.86-.73 0-.5.4-.74 1.17-.74.83 0 1.19.27 1.27.8l.9-.05c-.12-1-.8-1.47-2.17-1.47-1.34 0-2.1.53-2.1 1.5 0 .81.45 1.22 1.52 1.44l1.04.2c.56.11.87.24.87.72 0 .52-.45.78-1.28.78-.95 0-1.36-.28-1.42-.87l-.9.06C1.07-.36 1.8.16 3.35.16zm0 0"/></symbol><symbol overflow="visible" id="dcf54fbdw"><path d="M5.33-2.2v-.75h-4v.75zm0 0"/></symbol><symbol overflow="visible" id="dcf54fbdx"><path d="M2.16 0v-2.67c0-.99.59-1.63 1.46-1.63.74 0 1.07.38 1.07 1.22V0h.95v-3.31c0-1.2-.56-1.85-1.67-1.85-.92 0-1.49.46-1.77 1.08h-.06l-.12-.94H1.2V0zm0 0"/></symbol><symbol overflow="visible" id="dcf54fbdy"><path d="M3.58-5.81c.42 0 .72-.22.72-.67 0-.44-.3-.68-.72-.68-.44 0-.72.24-.72.68 0 .45.28.67.72.67zm.5.8H1.52v.76h1.6v3.48h-1.8V0h4.46v-.77h-1.7zm0 0"/></symbol><symbol overflow="visible" id="dcf54fbdz"><path d="M3.9 0l2-5.02h-.96L3.4-.94h-.07L1.8-5.02H.77L2.78 0zm0 0"/></symbol><symbol overflow="visible" id="dcf54fbdA"><path d="M4.63-6.5c.45 0 .98.08 1.39.2l.2-.72a5.3 5.3 0 00-1.64-.26c-1.52 0-2.16.56-2.16 1.87v.4H.9v.76h1.53V0h.94v-4.25h2.53v-.77H3.36v-.3c0-.84.33-1.18 1.27-1.18zm0 0"/></symbol><symbol overflow="visible" id="dcf54fbdB"><path d="M3.33.14c1.62 0 2.5-.95 2.5-2.66 0-1.68-.88-2.64-2.5-2.64-1.63 0-2.5.96-2.5 2.64 0 1.7.87 2.66 2.5 2.66zm0-.77c-1.06 0-1.52-.6-1.52-1.89 0-1.28.46-1.87 1.52-1.87 1.08 0 1.53.6 1.53 1.87 0 1.29-.45 1.9-1.53 1.9zm0 0"/></symbol><symbol overflow="visible" id="dcf54fbdC"><path d="M1.63 0v-2.9c0-.8.15-1.4.71-1.4.41 0 .55.3.55.88V0h.95v-2.9c0-.8.18-1.4.72-1.4.4 0 .57.3.57.88V0h.95v-3.63c0-.92-.28-1.53-1.11-1.53-.63 0-.95.41-1.1.9h-.06c-.1-.52-.44-.9-1.08-.9-.6 0-.93.41-1.06.9H1.6l-.23-.76H.67V0zm0 0"/></symbol><symbol overflow="visible" id="dcf54fbdD"><path d="M1.45-2.95c0 2.56 1.08 4.37 3.67 4.84l.11-.67C3.28.86 2.43-.75 2.43-2.95s.85-3.82 2.8-4.16l-.1-.69c-2.6.49-3.68 2.3-3.68 4.85zm0 0"/></symbol><symbol overflow="visible" id="dcf54fbdE"><path d="M3.34.14c1.43 0 2.13-.66 2.25-1.78l-.89-.1c-.1.7-.5 1.08-1.34 1.08-1.03 0-1.52-.64-1.52-1.84 0-1.23.47-1.86 1.52-1.86.84 0 1.23.36 1.34 1.08l.9-.1c-.13-1.09-.82-1.78-2.26-1.78-1.56 0-2.46.97-2.46 2.66 0 1.66.9 2.64 2.46 2.64zm0 0"/></symbol><symbol overflow="visible" id="dcf54fbdF"><path d="M1.45-7.1c1.96.33 2.8 1.94 2.8 4.15 0 2.2-.84 3.8-2.8 4.17l.11.67c2.58-.47 3.67-2.28 3.67-4.84 0-2.55-1.09-4.36-3.67-4.85zm0 0"/></symbol></defs><use xlink:href="#dcf54fbda" x="186.6" y="148" fill="#fff"/><g fill="#515151"><use xlink:href="#dcf54fbdb" x="218.52" y="148"/><use xlink:href="#dcf54fbdc" x="277.16" y="148"/><use xlink:href="#dcf54fbdd" x="335.88" y="148"/></g><use xlink:href="#dcf54fbde" x="381.48" y="148" fill="#fff"/><g fill="#fff"><use xlink:href="#dcf54fbdf" x="263.3333" y="252"/><use xlink:href="#dcf54fbdg" x="270.0003" y="252"/><use xlink:href="#dcf54fbdh" x="276.6673" y="252"/><use xlink:href="#dcf54fbdi" x="283.3343" y="252"/><use xlink:href="#dcf54fbdj" x="290.0013" y="252"/><use xlink:href="#dcf54fbdk" x="296.6683" y="252"/><use xlink:href="#dcf54fbdl" x="303.3353" y="252"/><use xlink:href="#dcf54fbdm" x="310.0023" y="252"/><use xlink:href="#dcf54fbdn" x="316.6693" y="252"/><use xlink:href="#dcf54fbdo" x="323.3363" y="252"/><use xlink:href="#dcf54fbdp" x="330.0033" y="252"/></g><g fill="#fff"><use xlink:href="#dcf54fbdq" x="180" y="266"/><use xlink:href="#dcf54fbdg" x="186.667" y="266"/><use xlink:href="#dcf54fbdr" x="193.334" y="266"/><use xlink:href="#dcf54fbdi" x="200.001" y="266"/><use xlink:href="#dcf54fbds" x="206.668" y="266"/><use xlink:href="#dcf54fbdt" x="213.335" y="266"/><use xlink:href="#dcf54fbdg" x="220.002" y="266"/><use xlink:href="#dcf54fbdj" x="226.669" y="266"/><use xlink:href="#dcf54fbdk" x="233.336" y="266"/><use xlink:href="#dcf54fbdu" x="240.003" y="266"/><use xlink:href="#dcf54fbdr" x="246.67" y="266"/><use xlink:href="#dcf54fbdv" x="253.337" y="266"/><use xlink:href="#dcf54fbdg" x="260.004" y="266"/><use xlink:href="#dcf54fbdw" x="266.671" y="266"/><use xlink:href="#dcf54fbdv" x="273.338" y="266"/><use xlink:href="#dcf54fbdg" x="280.005" y="266"/><use xlink:href="#dcf54fbdx" x="286.672" y="266"/><use xlink:href="#dcf54fbdv" x="293.339" y="266"/><use xlink:href="#dcf54fbdy" x="300.006" y="266"/><use xlink:href="#dcf54fbdi" x="306.673" y="266"/><use xlink:href="#dcf54fbdy" x="313.34" y="266"/><use xlink:href="#dcf54fbdz" x="320.007" y="266"/><use xlink:href="#dcf54fbdg" x="326.674" y="266"/><use xlink:href="#dcf54fbdk" x="333.341" y="266"/><use xlink:href="#dcf54fbdA" x="340.008" y="266"/><use xlink:href="#dcf54fbdB" x="346.675" y="266"/><use xlink:href="#dcf54fbdt" x="353.342" y="266"/><use xlink:href="#dcf54fbdC" x="360.009" y="266"/><use xlink:href="#dcf54fbdv" x="366.676" y="266"/><use xlink:href="#dcf54fbdk" x="373.343" y="266"/><use xlink:href="#dcf54fbdD" x="380.01" y="266"/><use xlink:href="#dcf54fbdE" x="386.677" y="266"/><use xlink:href="#dcf54fbdr" x="393.344" y="266"/><use xlink:href="#dcf54fbdv" x="400.011" y="266"/><use xlink:href="#dcf54fbdg" x="406.678" y="266"/><use xlink:href="#dcf54fbdF" x="413.345" y="266"/></g></svg>