<?xml version='1.0' encoding='UTF-8'?>
<svg xmlns="http://www.w3.org/2000/svg" xmlns:xlink="http://www.w3.org/1999/xlink" width="600px" height="300px" viewBox="0 0 600 300" x="0px" y="0px" enable-background="new 0 0 600 300"><defs><symbol overflow="visible" id="e6726ee1a"><path d="M20.8-5.36L14.48-2.8c0 .96.24 2.08.72 2.8h19.44a6 6 0 00.72-2.8l-7.2-1.28v-44.87H41.2l2.57 10.72h3.1l1.05-14.97H1.05l1.03 14.97H5.2l2.57-10.72H20.8zm7.84 9.67h-6.16c0 5.85-.25 10.74-.71 16.49 1.18.48 2.46.72 3.67.72 1.36-5.11 2.72-11.04 3.2-17.2zm0 0"/></symbol><symbol overflow="visible" id="e6726ee1d"><path d="M29.05-58.08c5.43 0 10-3.51 12.3-10.23a8.72 8.72 0 00-2.87-.97c-2.32 4.48-5.28 6.08-9.43 6.08-4.18 0-7.13-1.6-9.46-6.08-1.28.23-2.39.64-2.87.97 2.33 6.72 6.87 10.23 12.33 10.23zM1.52 0h18.64a6 6 0 00.71-2.8l-8.3-1.51L17.2-17.7h21.36l5.2 13.2-8.17 1.7c0 .95.25 2.07.72 2.79h20.25a6 6 0 00.72-2.8L51.84-4.3 32.56-54.56a29.42 29.42 0 00-7.44 2.64L6.8-5.2l-6 2.4c0 .96.25 2.08.72 2.8zm25.92-47.2h.33c.64 3.68 2.23 7.84 4.71 14.15l4.32 10.9H18.72zm0 0"/></symbol><symbol overflow="visible" id="e6726ee1e"><path d="M26.23-36l-12.64.48v-10.56H9.44L6.08-35.2l-5.67.72v3.28H6.8v19.68C6.8-3.2 9.84.95 16.23.95c3.36 0 7.13-1.26 12-4.15-.23-.88-.54-1.75-.8-2.64-3.02.64-5.12 1.04-7.74 1.04-4.17 0-6.1-2.48-6.1-7.84V-31.2h12.64c.25-1.93.25-2.96 0-4.8zM20.08 4.64H14.3c0 5.84-.23 10.72-1.1 16.48l3.66.72c1.36-5.12 2.72-11.04 3.2-17.2zm0 0"/></symbol><symbol overflow="visible" id="e6726ee1h"><path d="M18.56-41.28c5.52 0 9.6-4.72 10.8-12.56a7.72 7.72 0 00-3.05-.47c-1.6 5.51-4 7.9-7.75 7.9-3.76 0-6.15-2.39-7.76-7.9-1.28 0-2.4.15-3.03.47 1.18 7.84 5.28 12.56 10.8 12.56zM13.28.95c4.88 0 9.13-2.47 12-6.3h.16L25.12 0A20.5 20.5 0 0038-1.6c.31-.88.48-1.76.48-2.63l-7.04-.41v-18.23c0-9.7-4.32-14.08-10.4-14.08-4.4 0-10.48 1.36-15.76 3.67 0 1.84.95 4.33 2.56 6.56a37.48 37.48 0 0112.64-5.69c2.96 1.13 4.16 5.05 4.16 10.64v3.29l-5.52.48C8.23-17.12 3.7-13.77 3.7-7.92c0 5.36 3.75 8.87 9.6 8.87zm2.24-5.36c-3.52 0-5.04-1.75-5.04-5.18 0-.97.08-2 .32-2.97 2.32-1.13 6.15-1.75 10.97-1.75h2.87v5.36a11.86 11.86 0 01-9.12 4.54zm0 0"/></symbol><symbol overflow="visible" id="e6726ee1b"><path d="M1.52 0h18.64a6 6 0 00.71-2.8l-8.3-1.51L17.2-17.7h21.36l5.2 13.2-8.17 1.7c0 .95.25 2.07.72 2.79h20.25a6 6 0 00.72-2.8L51.84-4.3 32.56-54.56a29.42 29.42 0 00-7.44 2.64L6.8-5.2l-6 2.4c0 .96.25 2.08.72 2.8zm25.92-47.2h.33c.64 3.68 2.23 7.84 4.71 14.15l4.32 10.9H18.72zm0 0"/></symbol><symbol overflow="visible" id="e6726ee1c"><path d="M3.2 0h21.03a6 6 0 00.72-2.8l-8.8-1.36v-18h7.93L35.44-7.28C39.69-1.77 43.69.95 48 .95A9.9 9.9 0 0052.4 0c.16-.72.32-1.77.32-2.48-3.6-.8-7.52-4.16-12.64-10.88l-8.24-10.8c6.96-4.07 10.8-9.28 10.8-15.68 0-8.4-6.87-13.75-21.69-13.75-4 0-10.07.39-18.64.39-.47.89-.72 1.92-.72 2.8l7.2 1.27v43.77L2.5-2.8c0 .96.23 2.08.71 2.8zm18.4-49.2c9.2 0 14.24 4.89 14.24 11.51 0 4.25-2.07 8.25-6.25 11.05-5.75-.08-9.59-.31-13.43-.64V-49.2zm0 0"/></symbol><symbol overflow="visible" id="e6726ee1f"><path d="M13.28.95c4.88 0 9.13-2.47 12-6.3h.16L25.12 0A20.5 20.5 0 0038-1.6c.31-.88.48-1.76.48-2.63l-7.04-.41v-18.23c0-9.7-4.32-14.08-10.4-14.08-4.4 0-10.48 1.36-15.76 3.67 0 1.84.95 4.33 2.56 6.56a37.48 37.48 0 0112.64-5.69c2.96 1.13 4.16 5.05 4.16 10.64v3.29l-5.52.48C8.23-17.12 3.7-13.77 3.7-7.92c0 5.36 3.75 8.87 9.6 8.87zm2.24-5.36c-3.52 0-5.04-1.75-5.04-5.18 0-.97.08-2 .32-2.97 2.32-1.13 6.15-1.75 10.97-1.75h2.87v5.36a11.86 11.86 0 01-9.12 4.54zm0 0"/></symbol><symbol overflow="visible" id="e6726ee1g"><path d="M8.8-5.36L3.28-2.48c0 .96.24 1.76.72 2.48h19.05c.47-.88.72-2.08.72-2.95l-8.18-1.28V-26c2.9-2.08 8.72-3.28 12.72-3.28 0-2.8-.15-5.36-.54-7.67-4.72 0-9.29 2.87-12.9 7.9l-.07-.07 1.51-5.75A11.5 11.5 0 0010.88-36c-3.44 0-6.47.8-9.29 2 0 .95.25 1.77.72 2.48l6.74.47c-.18 1.36-.25 2.9-.25 5.13zm0 0"/></symbol><symbol overflow="visible" id="e6726ee1i"><path d="M3.83 0v-5.95H6.2v-.82H.45v.82h2.4V0zm0 0"/></symbol><symbol overflow="visible" id="e6726ee1j"><path d="M5.75-2.23v-.43c0-1.6-.9-2.51-2.42-2.51S.87-4.16.87-2.48c0 1.71.91 2.62 2.5 2.62 1.43 0 2.07-.56 2.29-1.52l-.9-.09c-.18.61-.59.9-1.35.9-.94 0-1.52-.54-1.58-1.66zm-2.4-2.2c.93 0 1.43.5 1.48 1.55H1.84c.08-1.07.6-1.56 1.5-1.56zm0 0"/></symbol><symbol overflow="visible" id="e6726ee1k"><path d="M1.83 0l1.42-2h.06l1.46 2H5.8L4-2.53l1.78-2.49H4.8L3.42-3.08h-.08l-1.4-1.94H.89l1.78 2.49L.84 0zm0 0"/></symbol><symbol overflow="visible" id="e6726ee1l"><path d="M5.52-4.25v-.77H3.17v-1.56h-.81l-.14 1.56H.75v.77h1.47v2.4c0 1.3.48 1.94 1.84 1.94C4.6.1 5.14 0 5.55-.14L5.4-.91c-.32.13-.72.2-1.13.2-.8 0-1.1-.37-1.1-1.23v-2.31zm0 0"/></symbol><symbol overflow="visible" id="e6726ee1m"><path d="M3.33-3.42c.47 0 .8-.27.8-.8 0-.51-.33-.8-.8-.8-.47 0-.8.29-.8.8 0 .53.33.8.8.8zm0 3.5c.47 0 .8-.27.8-.78 0-.53-.33-.82-.8-.82-.47 0-.8.29-.8.82 0 .51.33.78.8.78zm0 0"/></symbol><symbol overflow="visible" id="e6726ee1o"><path d="M3.83-5.95H6.2v-.82H.45v.82h2.4V0h.17l-.13.64c.52.05.81.17.81.5 0 .36-.22.42-.48.42-.14 0-.36-.03-.52-.08l-.08.5c.2.07.5.15.79.15.56 0 1.06-.2 1.06-.91 0-.52-.44-.77-.95-.86L3.58 0h.25zm0 0"/></symbol><symbol overflow="visible" id="e6726ee1p"><path d="M6.17 0L3.98-6.77h-1.3L.5 0h.97l.44-1.47h2.78L5.16 0zM3.28-5.94h.08l1.1 3.74H2.15zm0 0"/></symbol><symbol overflow="visible" id="e6726ee1q"><path d="M4.06-2.77c1.25-.04 1.92-.7 1.92-1.96 0-1.36-.7-2.04-2.17-2.04H.92V0h.97v-2.73h1.08L4.95 0h1.1zM1.9-6h1.7c1.07 0 1.46.34 1.46 1.28 0 .9-.44 1.27-1.47 1.27H1.89zm0 0"/></symbol><symbol overflow="visible" id="e6726ee1r"><path d="M3.34-7.36c1.08 0 1.74-.51 1.79-1.72h-.7c-.07.75-.34 1.13-1.09 1.13S2.33-8.3 2.27-9.08h-.7c.04 1.2.66 1.72 1.77 1.72zM6.17 0L3.98-6.77h-1.3L.5 0h.97l.44-1.47h2.78L5.16 0zM3.28-5.94h.08l1.1 3.74H2.15zm0 0"/></symbol><symbol overflow="visible" id="e6726ee1s"><path d="M3.69.08l.37.01C4.6.1 5.14 0 5.55-.14L5.4-.91c-.32.13-.72.2-1.13.2-.8 0-1.1-.37-1.1-1.23v-2.31h2.34v-.77H3.17v-1.56h-.81l-.14 1.56H.75v.77h1.47v2.4c0 .96.25 1.55.94 1.82l-.14.67c.51.05.82.17.82.5 0 .36-.23.42-.5.42-.14 0-.36-.03-.5-.08l-.09.5c.2.07.5.15.78.15.56 0 1.08-.2 1.08-.91 0-.52-.44-.77-.97-.86zm0 0"/></symbol><symbol overflow="visible" id="e6726ee1t"><path d="M2.83.14c.94 0 1.5-.39 1.81-.95h.08l.1.81h.76v-3.38c0-1.23-.69-1.8-2.13-1.8-1.43 0-2.03.65-2.18 1.6l.93.1c.11-.6.44-.93 1.22-.93.85 0 1.22.32 1.22 1.04v.34l-1.81.2C1.6-2.7 1.1-2.17 1.1-1.28c0 .92.64 1.42 1.72 1.42zm.25-.77c-.67 0-1.02-.28-1.02-.74 0-.44.28-.72 1-.82l1.58-.19v.41c0 .8-.6 1.34-1.56 1.34zm0 0"/></symbol><symbol overflow="visible" id="e6726ee1u"><path d="M5.08-5.16c-.94 0-1.58.43-1.9 1.3h-.09l-.07-1.16H1.05v.77h1.1v3.48H.96V0h3.96v-.77H3.1v-1.46c0-1.36.6-2.05 1.83-2.05.4 0 .76.08 1.1.17l.15-.87c-.33-.11-.7-.18-1.11-.18zm0 0"/></symbol><symbol overflow="visible" id="e6726ee1v"><path d="M3.53-5.67c1.05 0 1.64-.56 1.69-1.85h-.69c-.05.77-.26 1.22-1 1.22-.72 0-.95-.45-1-1.22h-.7c.04 1.29.62 1.85 1.7 1.85zM2.83.14c.94 0 1.5-.39 1.81-.95h.08l.1.81h.76v-3.38c0-1.23-.69-1.8-2.13-1.8-1.43 0-2.03.65-2.18 1.6l.93.1c.11-.6.44-.93 1.22-.93.85 0 1.22.32 1.22 1.04v.34l-1.81.2C1.6-2.7 1.1-2.17 1.1-1.28c0 .92.64 1.42 1.72 1.42zm.25-.77c-.67 0-1.02-.28-1.02-.74 0-.44.28-.72 1-.82l1.58-.19v.41c0 .8-.6 1.34-1.56 1.34zm0 0"/></symbol><symbol overflow="visible" id="e6726ee1w"><path d="M5.95-6.77H1.1V0h.99v-2.92H5.3v-.77H2.08v-2.26h3.87zm0 0"/></symbol><symbol overflow="visible" id="e6726ee1x"><path d="M2.73.14c.9 0 1.43-.45 1.74-1.08h.06l.13.94h.8v-5.02h-.94v2.7c0 .98-.57 1.62-1.46 1.62-.75 0-1.1-.4-1.1-1.22v-3.1h-.93v3.32c0 1.17.55 1.84 1.7 1.84zm0 0"/></symbol><symbol overflow="visible" id="e6726ee1y"><path d="M3.33.14c1.62 0 2.5-.95 2.5-2.66 0-1.68-.88-2.64-2.5-2.64-1.63 0-2.5.96-2.5 2.64 0 1.7.87 2.66 2.5 2.66zm0-.77c-1.06 0-1.52-.6-1.52-1.89 0-1.28.46-1.87 1.52-1.87 1.08 0 1.53.6 1.53 1.87 0 1.29-.45 1.9-1.53 1.9zm0 0"/></symbol><symbol overflow="visible" id="e6726ee1z"><path d="M1.63 0v-2.9c0-.8.15-1.4.71-1.4.41 0 .55.3.55.88V0h.95v-2.9c0-.8.18-1.4.72-1.4.4 0 .57.3.57.88V0h.95v-3.63c0-.92-.28-1.53-1.11-1.53-.63 0-.95.41-1.1.9h-.06c-.1-.52-.44-.9-1.08-.9-.6 0-.93.41-1.06.9H1.6l-.23-.76H.67V0zm0 0"/></symbol><symbol overflow="visible" id="e6726ee1A"><path d="M2.16 0v-2.67c0-.99.59-1.63 1.46-1.63.74 0 1.07.38 1.07 1.22V0h.95v-3.31c0-1.2-.56-1.85-1.67-1.85-.92 0-1.49.46-1.77 1.08h-.06l-.12-.94H1.2V0zm0 0"/></symbol><symbol overflow="visible" id="e6726ee1B"><path d="M3.58-5.81c.42 0 .72-.22.72-.67 0-.44-.3-.68-.72-.68-.44 0-.72.24-.72.68 0 .45.28.67.72.67zm.5.8H1.52v.76h1.6v3.48h-1.8V0h4.46v-.77h-1.7zm0 0"/></symbol><symbol overflow="visible" id="e6726ee1C"><path d="M1.45-2.95c0 2.56 1.08 4.37 3.67 4.84l.11-.67C3.28.86 2.43-.75 2.43-2.95s.85-3.82 2.8-4.16l-.1-.69c-2.6.49-3.68 2.3-3.68 4.85zm0 0"/></symbol><symbol overflow="visible" id="e6726ee1D"><path d="M3.36.16c1.4 0 2.2-.6 2.2-1.57 0-.89-.54-1.22-1.47-1.39L3-3c-.67-.14-.86-.33-.86-.73 0-.5.4-.74 1.17-.74.83 0 1.19.27 1.27.8l.9-.05c-.12-1-.8-1.47-2.17-1.47-1.34 0-2.1.53-2.1 1.5 0 .81.45 1.22 1.52 1.44l1.04.2c.56.11.87.24.87.72 0 .52-.45.78-1.28.78-.95 0-1.36-.28-1.42-.87l-.9.06C1.07-.36 1.8.16 3.35.16zm0 0"/></symbol><symbol overflow="visible" id="e6726ee1E"><path d="M3.92-7.14H1.36v.76h1.6v5.61H1.15V0H5.7v-.77H3.92zm0 0"/></symbol><symbol overflow="visible" id="e6726ee1F"><path d="M3.16 2.03c1.67 0 2.4-.86 2.4-2.51v-4.54h-.81l-.13.91h-.06c-.26-.58-.8-1.05-1.73-1.05-1.42 0-2.24 1-2.24 2.52 0 1.6.75 2.56 2.2 2.56.94 0 1.5-.5 1.77-1.03h.05v.72c0 1.17-.42 1.67-1.45 1.67-.93 0-1.3-.34-1.41-.89L.8.5c.12.96.87 1.54 2.36 1.54zM3.06-.8c-.98 0-1.48-.57-1.48-1.82 0-1.13.5-1.75 1.48-1.75 1.06 0 1.58.76 1.58 1.75 0 .95-.56 1.82-1.58 1.82zm0 0"/></symbol><symbol overflow="visible" id="e6726ee1G"><path d="M1.45-7.1c1.96.33 2.8 1.94 2.8 4.15 0 2.2-.84 3.8-2.8 4.17l.11.67c2.58-.47 3.67-2.28 3.67-4.84 0-2.55-1.09-4.36-3.67-4.85zm0 0"/></symbol></defs><use xlink:href="#e6726ee1a" x="115.52" y="148" fill="#fff"/><g fill="#515151"><use xlink:href="#e6726ee1b" x="158.08" y="148"/><use xlink:href="#e6726ee1c" x="216.16" y="148"/></g><use xlink:href="#e6726ee1d" x="268.48" y="148" fill="#515151"/><use xlink:href="#e6726ee1e" x="345.76" y="148" fill="#fff"/><g fill="#515151"><use xlink:href="#e6726ee1f" x="376" y="148"/><use xlink:href="#e6726ee1g" x="415.44" y="148"/></g><use xlink:href="#e6726ee1h" x="445.04" y="148" fill="#515151"/><g fill="#fff"><use xlink:href="#e6726ee1i" x="250" y="252"/><use xlink:href="#e6726ee1j" x="256.667" y="252"/><use xlink:href="#e6726ee1k" x="263.334" y="252"/><use xlink:href="#e6726ee1l" x="270.001" y="252"/><use xlink:href="#e6726ee1m" x="276.668" y="252"/><use xlink:href="#e6726ee1n" x="283.335" y="252"/><use xlink:href="#e6726ee1o" x="290.002" y="252"/><use xlink:href="#e6726ee1p" x="296.669" y="252"/><use xlink:href="#e6726ee1q" x="303.336" y="252"/><use xlink:href="#e6726ee1r" x="310.003" y="252"/><use xlink:href="#e6726ee1n" x="316.67" y="252"/><use xlink:href="#e6726ee1s" x="323.337" y="252"/><use xlink:href="#e6726ee1t" x="330.004" y="252"/><use xlink:href="#e6726ee1u" x="336.671" y="252"/><use xlink:href="#e6726ee1v" x="343.338" y="252"/></g><g fill="#fff"><use xlink:href="#e6726ee1w" x="193.3333" y="266"/><use xlink:href="#e6726ee1j" x="200.0003" y="266"/><use xlink:href="#e6726ee1t" x="206.6673" y="266"/><use xlink:href="#e6726ee1l" x="213.3343" y="266"/><use xlink:href="#e6726ee1x" x="220.0013" y="266"/><use xlink:href="#e6726ee1u" x="226.6683" y="266"/><use xlink:href="#e6726ee1j" x="233.3353" y="266"/><use xlink:href="#e6726ee1m" x="240.0023" y="266"/><use xlink:href="#e6726ee1n" x="246.6693" y="266"/><use xlink:href="#e6726ee1q" x="253.3363" y="266"/><use xlink:href="#e6726ee1y" x="260.0033" y="266"/><use xlink:href="#e6726ee1z" x="266.6703" y="266"/><use xlink:href="#e6726ee1t" x="273.3373" y="266"/><use xlink:href="#e6726ee1A" x="280.0043" y="266"/><use xlink:href="#e6726ee1B" x="286.6713" y="266"/><use xlink:href="#e6726ee1t" x="293.3383" y="266"/><use xlink:href="#e6726ee1A" x="300.0053" y="266"/><use xlink:href="#e6726ee1n" x="306.6723" y="266"/><use xlink:href="#e6726ee1C" x="313.3393" y="266"/><use xlink:href="#e6726ee1D" x="320.0063" y="266"/><use xlink:href="#e6726ee1j" x="326.6733" y="266"/><use xlink:href="#e6726ee1l" x="333.3403" y="266"/><use xlink:href="#e6726ee1n" x="340.0073" y="266"/><use xlink:href="#e6726ee1E" x="346.6743" y="266"/><use xlink:href="#e6726ee1t" x="353.3413" y="266"/><use xlink:href="#e6726ee1A" x="360.0083" y="266"/><use xlink:href="#e6726ee1F" x="366.6753" y="266"/><use xlink:href="#e6726ee1x" x="373.3423" y="266"/><use xlink:href="#e6726ee1t" x="380.0093" y="266"/><use xlink:href="#e6726ee1F" x="386.6763" y="266"/><use xlink:href="#e6726ee1j" x="393.3433" y="266"/><use xlink:href="#e6726ee1G" x="400.0103" y="266"/></g></svg>