<?xml version='1.0' encoding='UTF-8'?>
<svg xmlns="http://www.w3.org/2000/svg" xmlns:xlink="http://www.w3.org/1999/xlink" width="600px" height="300px" viewBox="0 0 600 300" x="0px" y="0px" enable-background="new 0 0 600 300"><defs><symbol overflow="visible" id="de302341a"><path d="M13.28.95c4.88 0 9.13-2.47 12-6.3h.16L25.12 0A20.5 20.5 0 0038-1.6c.31-.88.48-1.76.48-2.63l-7.04-.41v-18.23c0-9.7-4.32-14.08-10.4-14.08-4.4 0-10.48 1.36-15.76 3.67 0 1.84.95 4.33 2.56 6.56a37.48 37.48 0 0112.64-5.69c2.96 1.13 4.16 5.05 4.16 10.64v3.29l-5.52.48C8.23-17.12 3.7-13.77 3.7-7.92c0 5.36 3.75 8.87 9.6 8.87zm2.24-5.36c-3.52 0-5.04-1.75-5.04-5.18 0-.97.08-2 .32-2.97 2.32-1.13 6.15-1.75 10.97-1.75h2.87v5.36a11.86 11.86 0 01-9.12 4.54zm0 0"/></symbol><symbol overflow="visible" id="de302341c"><path d="M5.84-50.56c0 2.15 4 5.12 5.11 5.12 1.13 0 5.28-2.97 5.28-5.12 0-2.08-4.07-5.2-5.28-5.2-1.1 0-5.1 3.12-5.1 5.2zM3.84 0H21.7c.47-.88.72-2.08.72-2.95l-6.9-1.2v-21.77c0-5.52 1.05-9.13 1.05-9.13a13 13 0 00-5.43-.95c-3.54 0-6.72.8-9.54 2 0 .95.25 1.77.72 2.48l6.64.47a45.2 45.2 0 00-.23 5.13v20.56l-5.6 2.88c0 .96.24 1.76.72 2.48zm0 0"/></symbol><symbol overflow="visible" id="de302341d"><path d="M24.08-.64l12.56-30.48 4.48-1.83c0-.9-.24-1.77-.71-2.64H27.44a4.25 4.25 0 00-.72 2.47l4.56 2-9.12 24.71-10.57-25.1 6.64-1.13c0-.88-.23-2.08-.71-2.95H-.31a4.26 4.26 0 00-.74 2.47l5.36 2.32L17.7 1.36c1.75-.24 5.1-1.2 6.39-2zm0 0"/></symbol><symbol overflow="visible" id="de302341b"><path d="M37.6-56.95c-8.88 0-15.76 5.51-15.76 12.3 0 2.57.96 5.6 2.8 7.7h-1.36c-12.16 0-20.08 9.03-20.08 20.54C3.2-5.59 10.16.95 21.05.95a22 22 0 0013.43-4.39 5.5 5.5 0 00-1.2-2.72c-4.33 1.68-6.64 2.24-9.44 2.24-8.8 0-13.36-5.6-13.36-15.2 0-5.2 1.36-8.8 3.04-11.93 1.43-.47 3.04-.8 5.12-.8 4.72 0 9.36 1.7 12.08 4.08 1.44-2.39 2.56-4.95 2.56-7.59-3.76-2.23-6.16-5.12-6.16-9.92 0-1.44.24-2.88.8-4.24a14.49 14.49 0 018.16-2.64c5.28 0 9.05 3.2 9.05 8.08 0 3.92-2.49 7.28-7.36 9.6v3.28h4.8v19.68C42.56-3.2 45.58.95 52 .95c3.84 0 7.2-1.51 12-5.1-.31-.8-.72-1.7-1.05-2.5-3.18 1.3-5.51 1.85-7.51 1.85-4.16 0-6.08-2.48-6.08-7.84V-31.2H62a24.6 24.6 0 000-4.8l-15.92.64c3.51-2.33 6-6.16 6-10.23 0-6.41-6.08-11.36-14.49-11.36zm0 0"/></symbol><symbol overflow="visible" id="de302341e"><path d="M33.44-56.95c-8.88 0-15.75 5.51-15.75 12.3 0 2.65 1.03 5.7 2.87 7.77-.8-.07-1.51-.07-2.08-.07-8.25 0-13.84 4.8-13.84 10.95 0 4.64 3.13 7.84 9.92 10.64 6.88 2.8 9.75 4.95 9.75 7.44 0 .8-.31 2.08-.87 3.2a12.57 12.57 0 01-5.6 1.36 18.7 18.7 0 01-8.71-2.48v-7.52c-.82-.23-2-.33-3.05-.33L3.2-2.4A27.39 27.39 0 0015.77.95c8.07 0 13.67-5.26 13.67-11.43 0-4.4-2.88-7.75-9.92-10.64-7.04-2.88-9.75-4.96-9.75-7.36 0-.88.3-1.93.95-2.88a11.76 11.76 0 015.12-1.12c2.24 0 4.96.56 7.52 1.6l1.6 7.75c1.04 0 2.16-.07 3.04-.3l.56-11.77c-4.25-2.88-5.6-6-5.6-9.92 0-1.83.32-3.2.8-4.4a14.45 14.45 0 018.16-2.64c5.28 0 9.03 3.2 9.03 8.08 0 3.92-2.47 7.28-7.36 9.6v3.28h4.82v19.68C38.4-3.2 41.44.95 47.84.95c3.85 0 7.2-1.51 12-5.1-.32-.8-.72-1.7-1.04-2.5-3.2 1.3-5.52 1.85-7.52 1.85-4.16 0-6.08-2.48-6.08-7.84V-31.2h12.64c.24-1.93.24-2.96 0-4.8l-15.92.64c3.52-2.33 6-6.16 6-10.23 0-6.41-6.08-11.36-14.48-11.36zm0 0"/></symbol><symbol overflow="visible" id="de302341f"><path d="M3.83 0v-5.95H6.2v-.82H.45v.82h2.4V0zm0 0"/></symbol><symbol overflow="visible" id="de302341g"><path d="M5.75-2.23v-.43c0-1.6-.9-2.51-2.42-2.51S.87-4.16.87-2.48c0 1.71.91 2.62 2.5 2.62 1.43 0 2.07-.56 2.29-1.52l-.9-.09c-.18.61-.59.9-1.35.9-.94 0-1.52-.54-1.58-1.66zm-2.4-2.2c.93 0 1.43.5 1.48 1.55H1.84c.08-1.07.6-1.56 1.5-1.56zm0 0"/></symbol><symbol overflow="visible" id="de302341h"><path d="M1.83 0l1.42-2h.06l1.46 2H5.8L4-2.53l1.78-2.49H4.8L3.42-3.08h-.08l-1.4-1.94H.89l1.78 2.49L.84 0zm0 0"/></symbol><symbol overflow="visible" id="de302341i"><path d="M5.52-4.25v-.77H3.17v-1.56h-.81l-.14 1.56H.75v.77h1.47v2.4c0 1.3.48 1.94 1.84 1.94C4.6.1 5.14 0 5.55-.14L5.4-.91c-.32.13-.72.2-1.13.2-.8 0-1.1-.37-1.1-1.23v-2.31zm0 0"/></symbol><symbol overflow="visible" id="de302341j"><path d="M3.33-3.42c.47 0 .8-.27.8-.8 0-.51-.33-.8-.8-.8-.47 0-.8.29-.8.8 0 .53.33.8.8.8zm0 3.5c.47 0 .8-.27.8-.78 0-.53-.33-.82-.8-.82-.47 0-.8.29-.8.82 0 .51.33.78.8.78zm0 0"/></symbol><symbol overflow="visible" id="de302341l"><path d="M2.83.14c.94 0 1.5-.39 1.81-.95h.08l.1.81h.76v-3.38c0-1.23-.69-1.8-2.13-1.8-1.43 0-2.03.65-2.18 1.6l.93.1c.11-.6.44-.93 1.22-.93.85 0 1.22.32 1.22 1.04v.34l-1.81.2C1.6-2.7 1.1-2.17 1.1-1.28c0 .92.64 1.42 1.72 1.42zm.25-.77c-.67 0-1.02-.28-1.02-.74 0-.44.28-.72 1-.82l1.58-.19v.41c0 .8-.6 1.34-1.56 1.34zm0 0"/></symbol><symbol overflow="visible" id="de302341m"><path d="M3.34.14c1.43 0 2.13-.66 2.25-1.78l-.89-.1c-.1.7-.5 1.08-1.34 1.08-1.03 0-1.52-.64-1.52-1.84 0-1.23.47-1.86 1.52-1.86.84 0 1.23.36 1.34 1.08l.9-.1c-.13-1.09-.82-1.78-2.26-1.78-1.56 0-2.46.97-2.46 2.66 0 1.66.9 2.64 2.46 2.64zm0 0"/></symbol><symbol overflow="visible" id="de302341n"><path d="M3.58-5.81c.42 0 .72-.22.72-.67 0-.44-.3-.68-.72-.68-.44 0-.72.24-.72.68 0 .45.28.67.72.67zm.5.8H1.52v.76h1.6v3.48h-1.8V0h4.46v-.77h-1.7zm0 0"/></symbol><symbol overflow="visible" id="de302341o"><path d="M3.9 0l2-5.02h-.96L3.4-.94h-.07L1.8-5.02H.77L2.78 0zm0 0"/></symbol><symbol overflow="visible" id="de302341p"><path d="M3.36.16c1.4 0 2.2-.6 2.2-1.57 0-.89-.54-1.22-1.47-1.39L3-3c-.67-.14-.86-.33-.86-.73 0-.5.4-.74 1.17-.74.83 0 1.19.27 1.27.8l.9-.05c-.12-1-.8-1.47-2.17-1.47-1.34 0-2.1.53-2.1 1.5 0 .81.45 1.22 1.52 1.44l1.04.2c.56.11.87.24.87.72 0 .52-.45.78-1.28.78-.95 0-1.36-.28-1.42-.87l-.9.06C1.07-.36 1.8.16 3.35.16zm0 0"/></symbol><symbol overflow="visible" id="de302341q"><path d="M5.95-6.77H1.1V0h.99v-2.92H5.3v-.77H2.08v-2.26h3.87zm0 0"/></symbol><symbol overflow="visible" id="de302341r"><path d="M2.73.14c.9 0 1.43-.45 1.74-1.08h.06l.13.94h.8v-5.02h-.94v2.7c0 .98-.57 1.62-1.46 1.62-.75 0-1.1-.4-1.1-1.22v-3.1h-.93v3.32c0 1.17.55 1.84 1.7 1.84zm0 0"/></symbol><symbol overflow="visible" id="de302341s"><path d="M5.08-5.16c-.94 0-1.58.43-1.9 1.3h-.09l-.07-1.16H1.05v.77h1.1v3.48H.96V0h3.96v-.77H3.1v-1.46c0-1.36.6-2.05 1.83-2.05.4 0 .76.08 1.1.17l.15-.87c-.33-.11-.7-.18-1.11-.18zm0 0"/></symbol><symbol overflow="visible" id="de302341t"><path d="M.92-6.77V0h2.11c2.03 0 3.03-1.03 3.03-3.36 0-2.39-1.01-3.4-2.93-3.4zM1.91-.8v-5.17h1.18c1.29 0 1.96.63 1.96 2.61 0 1.94-.67 2.56-1.96 2.56zm0 0"/></symbol><symbol overflow="visible" id="de302341u"><path d="M3.33.14c1.62 0 2.5-.95 2.5-2.66 0-1.68-.88-2.64-2.5-2.64-1.63 0-2.5.96-2.5 2.64 0 1.7.87 2.66 2.5 2.66zm0-.77c-1.06 0-1.52-.6-1.52-1.89 0-1.28.46-1.87 1.52-1.87 1.08 0 1.53.6 1.53 1.87 0 1.29-.45 1.9-1.53 1.9zm0 0"/></symbol><symbol overflow="visible" id="de302341v"><path d="M2.16 0v-2.67c0-.99.59-1.63 1.46-1.63.74 0 1.07.38 1.07 1.22V0h.95v-3.31c0-1.2-.56-1.85-1.67-1.85-.92 0-1.49.46-1.77 1.08h-.06l-.12-.94H1.2V0zm0 0"/></symbol><symbol overflow="visible" id="de302341w"><path d="M3.42-.86h-.08L1.77-5.02H.8L2.73 0h.41c-.33.95-.72 1.27-1.45 1.27-.22 0-.49-.04-.69-.08l-.1.73c.2.06.58.11.87.11 1.2 0 1.7-.7 2.21-2.03l1.94-5.02H5zm0 0"/></symbol><symbol overflow="visible" id="de302341x"><path d="M3.92-7.14H1.36v.76h1.6v5.61H1.15V0H5.7v-.77H3.92zm0 0"/></symbol><symbol overflow="visible" id="de302341y"><path d="M3.16 2.03c1.67 0 2.4-.86 2.4-2.51v-4.54h-.81l-.13.91h-.06c-.26-.58-.8-1.05-1.73-1.05-1.42 0-2.24 1-2.24 2.52 0 1.6.75 2.56 2.2 2.56.94 0 1.5-.5 1.77-1.03h.05v.72c0 1.17-.42 1.67-1.45 1.67-.93 0-1.3-.34-1.41-.89L.8.5c.12.96.87 1.54 2.36 1.54zM3.06-.8c-.98 0-1.48-.57-1.48-1.82 0-1.13.5-1.75 1.48-1.75 1.06 0 1.58.76 1.58 1.75 0 .95-.56 1.82-1.58 1.82zm0 0"/></symbol><symbol overflow="visible" id="de302341z"><path d="M1.45-2.95c0 2.56 1.08 4.37 3.67 4.84l.11-.67C3.28.86 2.43-.75 2.43-2.95s.85-3.82 2.8-4.16l-.1-.69c-2.6.49-3.68 2.3-3.68 4.85zm0 0"/></symbol><symbol overflow="visible" id="de302341A"><path d="M2.84.14C3.8.14 4.33-.26 4.6-.9h.07L4.8 0h.76v-7.14h-.95v2.95h-.08c-.28-.6-.86-.97-1.67-.97-1.48 0-2.27.99-2.27 2.64C.6-.84 1.36.14 2.84.14zm.22-.8c-.98 0-1.48-.59-1.48-1.84s.5-1.86 1.48-1.86c1.13 0 1.58.8 1.58 1.86S4.2-.66 3.06-.66zm0 0"/></symbol><symbol overflow="visible" id="de302341B"><path d="M1.45-7.1c1.96.33 2.8 1.94 2.8 4.15 0 2.2-.84 3.8-2.8 4.17l.11.67c2.58-.47 3.67-2.28 3.67-4.84 0-2.55-1.09-4.36-3.67-4.85zm0 0"/></symbol></defs><use xlink:href="#de302341a" x="173.12" y="148" fill="#515151"/><use xlink:href="#de302341b" x="212.56" y="148" fill="#fff"/><use xlink:href="#de302341c" x="278.56" y="148" fill="#515151"/><g fill="#515151"><use xlink:href="#de302341d" x="300.96" y="148"/><use xlink:href="#de302341c" x="341.04" y="148"/></g><use xlink:href="#de302341e" x="365.04" y="148" fill="#fff"/><g fill="#fff"><use xlink:href="#de302341f" x="253.3333" y="252"/><use xlink:href="#de302341g" x="260.0003" y="252"/><use xlink:href="#de302341h" x="266.6673" y="252"/><use xlink:href="#de302341i" x="273.3343" y="252"/><use xlink:href="#de302341j" x="280.0013" y="252"/><use xlink:href="#de302341k" x="286.6683" y="252"/><use xlink:href="#de302341l" x="293.3353" y="252"/><use xlink:href="#de302341m" x="300.0023" y="252"/><use xlink:href="#de302341i" x="306.6693" y="252"/><use xlink:href="#de302341n" x="313.3363" y="252"/><use xlink:href="#de302341o" x="320.0033" y="252"/><use xlink:href="#de302341n" x="326.6703" y="252"/><use xlink:href="#de302341p" x="333.3373" y="252"/><use xlink:href="#de302341i" x="340.0043" y="252"/></g><g fill="#fff"><use xlink:href="#de302341q" x="170" y="266"/><use xlink:href="#de302341g" x="176.667" y="266"/><use xlink:href="#de302341l" x="183.334" y="266"/><use xlink:href="#de302341i" x="190.001" y="266"/><use xlink:href="#de302341r" x="196.668" y="266"/><use xlink:href="#de302341s" x="203.335" y="266"/><use xlink:href="#de302341g" x="210.002" y="266"/><use xlink:href="#de302341j" x="216.669" y="266"/><use xlink:href="#de302341k" x="223.336" y="266"/><use xlink:href="#de302341t" x="230.003" y="266"/><use xlink:href="#de302341n" x="236.67" y="266"/><use xlink:href="#de302341p" x="243.337" y="266"/><use xlink:href="#de302341m" x="250.004" y="266"/><use xlink:href="#de302341s" x="256.671" y="266"/><use xlink:href="#de302341g" x="263.338" y="266"/><use xlink:href="#de302341i" x="270.005" y="266"/><use xlink:href="#de302341n" x="276.672" y="266"/><use xlink:href="#de302341u" x="283.339" y="266"/><use xlink:href="#de302341v" x="290.006" y="266"/><use xlink:href="#de302341l" x="296.673" y="266"/><use xlink:href="#de302341s" x="303.34" y="266"/><use xlink:href="#de302341w" x="310.007" y="266"/><use xlink:href="#de302341k" x="316.674" y="266"/><use xlink:href="#de302341x" x="323.341" y="266"/><use xlink:href="#de302341n" x="330.008" y="266"/><use xlink:href="#de302341y" x="336.675" y="266"/><use xlink:href="#de302341l" x="343.342" y="266"/><use xlink:href="#de302341i" x="350.009" y="266"/><use xlink:href="#de302341r" x="356.676" y="266"/><use xlink:href="#de302341s" x="363.343" y="266"/><use xlink:href="#de302341g" x="370.01" y="266"/><use xlink:href="#de302341p" x="376.677" y="266"/><use xlink:href="#de302341k" x="383.344" y="266"/><use xlink:href="#de302341z" x="390.011" y="266"/><use xlink:href="#de302341A" x="396.678" y="266"/><use xlink:href="#de302341x" x="403.345" y="266"/><use xlink:href="#de302341n" x="410.012" y="266"/><use xlink:href="#de302341y" x="416.679" y="266"/><use xlink:href="#de302341B" x="423.346" y="266"/></g></svg>