<?xml version='1.0' encoding='UTF-8'?>
<svg xmlns="http://www.w3.org/2000/svg" xmlns:xlink="http://www.w3.org/1999/xlink" width="600px" height="300px" viewBox="0 0 600 300" x="0px" y="0px" enable-background="new 0 0 600 300"><defs><symbol overflow="visible" id="4c84a188a"><path d="M2.95 0h28.49s.97-2.72 0-5.77L8.08-3.84l6.48-5.52C20.96-14.8 30.72-22 30.72-31.28c0-7.67-6.8-11.2-13.13-11.2-8.07 0-13.59 5.76-14.46 14.07 1.82 1.13 3.75 1.61 6.95.82-.72-4.33-.08-7.77.48-9.7 1.2-.48 2.64-.87 4.4-.87 4.32 0 8.16 2.32 8.16 7.03 0 5.85-5.92 11.93-12.8 19.13L1.58-2.95C1.6-.95 2.95 0 2.95 0zm0 0"/></symbol><symbol overflow="visible" id="4c84a188b"><path d="M30.8-42.16L9.6-40.23l-1.52 2.39-2.8 18.25c0 .87.64 2.71 1.84 3.67a21.88 21.88 0 017.44-1.36c7.75 0 12.16 4.87 12.16 12 0 6.72-3.92 11.51-9.44 13.2-3.44-.87-7.92-3.36-11.6-6.64C3.69 2.23 2 3.92.8 6.16c3.92 3.12 9.04 5.28 14.4 5.28 10.8 0 18.57-8.8 18.57-18.72 0-8.88-6.25-14.64-16.65-14.64-2.71 0-5.04.4-6.71.97l1.9-14.4h18.17c.8-2.42.8-4.42.32-6.8zm0 0"/></symbol><symbol overflow="visible" id="4c84a188g"><path d="M-21.13-4.16l3.29 2.57 41.53-49.46-3.28-2.54zm0 0"/></symbol><symbol overflow="visible" id="4c84a188d"><path d="M10.48-29.84c6.64 0 10.4-4.72 10.4-8.8 0-3.92-3.52-5.77-7.36-5.77-.96 0-1.68.1-2.32.33 3.36-2.15 7.68-6.4 8.32-8.33l-.96-1.51H4.96a8.7 8.7 0 00.17 4.08l9.43-.96c-1.92 2.64-6.56 5.52-9.2 7.2 0 .96.48 1.83 1.05 2.4 1.03-.4 2.46-.57 3.51-.57 3.6 0 5.28 1.85 5.28 4.41 0 2.16-1.2 4.23-3.2 5.2-2.72-.89-5.13-2.8-6.23-3.68-2.41 1.12-3.2 3.28-3.2 3.28 1.43 1.36 4.38 2.72 7.91 2.72zM2.88-4.16l3.28 2.57 41.53-49.46-3.28-2.54zm42.07 4v-4.4h3.61a7.74 7.74 0 000-3.28l-3.6.15v-15.26l-1.76-1.13C37.12-22.8 29.84-13.36 28.56-6.16a7.8 7.8 0 001.28 1.6h10.47v4.4c1.53.32 3.13.32 4.64 0zM40.31-19.2v11.76l-7.19.32c.88-4.32 4.08-9.6 7.2-12.08zm0 0"/></symbol><symbol overflow="visible" id="4c84a188e"><path d="M13.6-55.05c-3.76.4-7.52 2-8.88 2.64.08 1.2.64 2.18 1.28 2.97a27.64 27.64 0 014-1.69v20.41a15 15 0 005.28 0V-54zm0 0"/></symbol><symbol overflow="visible" id="4c84a188f"><path d="M10.95-54.4c-5.6 0-9.03 3.92-9.51 8.56 1.51.8 4.08.64 5.44.32-.24-2.32.17-4.64.48-5.84a7 7 0 011.84-.33A3.57 3.57 0 0112.88-48c0 3.2-3.2 6.4-8.47 12.31l-3.13 3.53c0 1.36.88 1.85.88 1.85h16.96c.32-1.2.32-3.13 0-3.77L6.41-32.95l1.9-1.85c5.2-5.12 10.56-8.72 10.56-13.36 0-3.76-3.51-6.25-7.92-6.25zm0 0"/></symbol><symbol overflow="visible" id="4c84a188h"><path d="M10.64 1.13l9.52-22.65-1.2-1.6H4.55c-.33 1.6-.4 3.12.16 4.71l10.97-1.03L5.36-.95a7.57 7.57 0 005.28 2.08zm0 0"/></symbol><symbol overflow="visible" id="4c84a188i"><path d="M9.28.95c7.85 0 12.08-7.26 12.08-14.47 0-6.17-3.05-10.56-9.05-10.56-5.67 0-9.6 4-9.6 8.72 0 4.48 3.6 7.05 8.09 7.05a9.3 9.3 0 004.97-1.38c-.57 3.77-2.25 6.9-4.41 8.1-2.23-.64-4.56-2.25-5.77-3.05C3.77-3.6 2.56-1.2 2.56-1.2S5.05.95 9.28.95zm-1.2-17.82c0-2 .64-3.44 1.44-4.57 4.25.49 6.4 3.6 6.4 8.96v.56c-.8.4-1.84.72-2.97.72-2.8 0-4.87-2-4.87-5.68zm0 0"/></symbol><symbol overflow="visible" id="4c84a188j"><path d="M18.88-55.28L6.8-54.16l-.96 1.44-1.12 8.88A3.18 3.18 0 005.77-42s1.67-.56 3.67-.56c3.84 0 5.92 2 5.92 4.97 0 2.07-.95 4.07-3.6 5.18-2.56-.8-4.8-2.72-5.92-3.51-2.32 1.12-3.2 3.28-3.2 3.28 1.44 1.36 4.4 2.8 8 2.8 6.64 0 10.31-4.8 10.31-9.04 0-4-3.26-6.56-8.64-6.56-1.51 0-2.72.24-3.6.4l.65-6.16h9.52a8.57 8.57 0 000-4.08zm0 0"/></symbol><symbol overflow="visible" id="4c84a188k"><path d="M3.83 0v-5.95H6.2v-.82H.45v.82h2.4V0zm0 0"/></symbol><symbol overflow="visible" id="4c84a188l"><path d="M5.75-2.23v-.43c0-1.6-.9-2.51-2.42-2.51S.87-4.16.87-2.48c0 1.71.91 2.62 2.5 2.62 1.43 0 2.07-.56 2.29-1.52l-.9-.09c-.18.61-.59.9-1.35.9-.94 0-1.52-.54-1.58-1.66zm-2.4-2.2c.93 0 1.43.5 1.48 1.55H1.84c.08-1.07.6-1.56 1.5-1.56zm0 0"/></symbol><symbol overflow="visible" id="4c84a188m"><path d="M1.83 0l1.42-2h.06l1.46 2H5.8L4-2.53l1.78-2.49H4.8L3.42-3.08h-.08l-1.4-1.94H.89l1.78 2.49L.84 0zm0 0"/></symbol><symbol overflow="visible" id="4c84a188n"><path d="M5.52-4.25v-.77H3.17v-1.56h-.81l-.14 1.56H.75v.77h1.47v2.4c0 1.3.48 1.94 1.84 1.94C4.6.1 5.14 0 5.55-.14L5.4-.91c-.32.13-.72.2-1.13.2-.8 0-1.1-.37-1.1-1.23v-2.31zm0 0"/></symbol><symbol overflow="visible" id="4c84a188o"><path d="M3.33-3.42c.47 0 .8-.27.8-.8 0-.51-.33-.8-.8-.8-.47 0-.8.29-.8.8 0 .53.33.8.8.8zm0 3.5c.47 0 .8-.27.8-.78 0-.53-.33-.82-.8-.82-.47 0-.8.29-.8.82 0 .51.33.78.8.78zm0 0"/></symbol><symbol overflow="visible" id="4c84a188q"><path d="M5.67 0v-.86H2.14V-.9L3.6-2c1.05-.83 2-1.68 2-2.91 0-1.19-.73-1.99-2.26-1.99-1.66 0-2.3 1.02-2.44 2.33l1 .08c.1-.92.42-1.58 1.44-1.58.87 0 1.26.44 1.26 1.24 0 .9-.8 1.53-1.96 2.53L.83-.81V0zm0 0"/></symbol><symbol overflow="visible" id="4c84a188r"><path d="M3.42.14c1.55 0 2.44-.84 2.44-2.33 0-1.45-.83-2.22-2.14-2.22-.75 0-1.28.27-1.67.72H2l.31-2.22h3.11v-.86H1.53l-.45 3.93h.81c.3-.36.9-.79 1.58-.79.92 0 1.44.43 1.44 1.47 0 .99-.54 1.5-1.49 1.5-.83 0-1.28-.32-1.5-1.01l-.95.1C1.07-.46 2 .13 3.42.13zm0 0"/></symbol><symbol overflow="visible" id="4c84a188s"><path d="M3.25.14c1.58 0 2.53-.69 2.53-1.95 0-1.19-.92-1.56-1.6-1.61v-.05A1.6 1.6 0 005.6-5.12c0-1.13-.87-1.79-2.3-1.79-1.62 0-2.32.82-2.45 1.88l.97.06c.13-.69.52-1.1 1.47-1.1.86 0 1.35.32 1.35 1.05 0 .86-.6 1.2-1.66 1.2h-.49v.79h.54c1.12 0 1.78.25 1.78 1.14 0 .78-.46 1.22-1.55 1.22-1.06 0-1.48-.4-1.63-1.1l-.98.07C.75-.56 1.56.14 3.25.14zm0 0"/></symbol><symbol overflow="visible" id="4c84a188t"><path d="M2.58.95l2.39-8.67h-.9L1.7.95zm0 0"/></symbol><symbol overflow="visible" id="4c84a188u"><path d="M5.1 0v-1.47H6v-.81h-.9v-4.49H3.8L.48-2.23v.76h3.66V0zM1.5-2.33l2.6-3.53h.04v3.58H1.5zm0 0"/></symbol><symbol overflow="visible" id="4c84a188v"><path d="M4.22-6.77h-.86l-2.03.7v.87c.64-.17 1.26-.38 1.89-.55v4.9H1.03V0h4.9v-.86H4.21zm0 0"/></symbol><symbol overflow="visible" id="4c84a188w"><path d="M.92-4.42h.88v-1.49h3.1v.05L2.27 0H3.3l2.64-6v-.77H.92zm0 0"/></symbol><symbol overflow="visible" id="4c84a188x"><path d="M3.25-6.9C1.67-6.9.77-6.04.77-4.6c0 1.41.85 2.18 2.21 2.18 1.04 0 1.58-.52 1.88-1.03h.06c0 1.54-.39 2.78-1.73 2.78-.9 0-1.24-.44-1.36-.97l-.97.1c.22.96.86 1.68 2.33 1.68C4.83.14 5.8-.9 5.8-3.64c0-2.22-.92-3.27-2.56-3.27zm-.02.8c.91 0 1.46.52 1.46 1.44 0 .91-.69 1.47-1.53 1.47-.91 0-1.46-.51-1.46-1.47S2.3-6.1 3.23-6.1zm0 0"/></symbol><symbol overflow="visible" id="4c84a188y"><path d="M5.95-6.77H1.1V0h.99v-2.92H5.3v-.77H2.08v-2.26h3.87zm0 0"/></symbol><symbol overflow="visible" id="4c84a188z"><path d="M2.83.14c.94 0 1.5-.39 1.81-.95h.08l.1.81h.76v-3.38c0-1.23-.69-1.8-2.13-1.8-1.43 0-2.03.65-2.18 1.6l.93.1c.11-.6.44-.93 1.22-.93.85 0 1.22.32 1.22 1.04v.34l-1.81.2C1.6-2.7 1.1-2.17 1.1-1.28c0 .92.64 1.42 1.72 1.42zm.25-.77c-.67 0-1.02-.28-1.02-.74 0-.44.28-.72 1-.82l1.58-.19v.41c0 .8-.6 1.34-1.56 1.34zm0 0"/></symbol><symbol overflow="visible" id="4c84a188A"><path d="M2.73.14c.9 0 1.43-.45 1.74-1.08h.06l.13.94h.8v-5.02h-.94v2.7c0 .98-.57 1.62-1.46 1.62-.75 0-1.1-.4-1.1-1.22v-3.1h-.93v3.32c0 1.17.55 1.84 1.7 1.84zm0 0"/></symbol><symbol overflow="visible" id="4c84a188B"><path d="M5.08-5.16c-.94 0-1.58.43-1.9 1.3h-.09l-.07-1.16H1.05v.77h1.1v3.48H.96V0h3.96v-.77H3.1v-1.46c0-1.36.6-2.05 1.83-2.05.4 0 .76.08 1.1.17l.15-.87c-.33-.11-.7-.18-1.11-.18zm0 0"/></symbol><symbol overflow="visible" id="4c84a188C"><path d="M3.34.14c1.43 0 2.13-.66 2.25-1.78l-.89-.1c-.1.7-.5 1.08-1.34 1.08-1.03 0-1.52-.64-1.52-1.84 0-1.23.47-1.86 1.52-1.86.84 0 1.23.36 1.34 1.08l.9-.1c-.13-1.09-.82-1.78-2.26-1.78-1.56 0-2.46.97-2.46 2.66 0 1.66.9 2.64 2.46 2.64zm0 0"/></symbol><symbol overflow="visible" id="4c84a188D"><path d="M3.58-5.81c.42 0 .72-.22.72-.67 0-.44-.3-.68-.72-.68-.44 0-.72.24-.72.68 0 .45.28.67.72.67zm.5.8H1.52v.76h1.6v3.48h-1.8V0h4.46v-.77h-1.7zm0 0"/></symbol><symbol overflow="visible" id="4c84a188E"><path d="M3.33.14c1.62 0 2.5-.95 2.5-2.66 0-1.68-.88-2.64-2.5-2.64-1.63 0-2.5.96-2.5 2.64 0 1.7.87 2.66 2.5 2.66zm0-.77c-1.06 0-1.52-.6-1.52-1.89 0-1.28.46-1.87 1.52-1.87 1.08 0 1.53.6 1.53 1.87 0 1.29-.45 1.9-1.53 1.9zm0 0"/></symbol><symbol overflow="visible" id="4c84a188F"><path d="M2.16 0v-2.67c0-.99.59-1.63 1.46-1.63.74 0 1.07.38 1.07 1.22V0h.95v-3.31c0-1.2-.56-1.85-1.67-1.85-.92 0-1.49.46-1.77 1.08h-.06l-.12-.94H1.2V0zm0 0"/></symbol><symbol overflow="visible" id="4c84a188G"><path d="M3.36.16c1.4 0 2.2-.6 2.2-1.57 0-.89-.54-1.22-1.47-1.39L3-3c-.67-.14-.86-.33-.86-.73 0-.5.4-.74 1.17-.74.83 0 1.19.27 1.27.8l.9-.05c-.12-1-.8-1.47-2.17-1.47-1.34 0-2.1.53-2.1 1.5 0 .81.45 1.22 1.52 1.44l1.04.2c.56.11.87.24.87.72 0 .52-.45.78-1.28.78-.95 0-1.36-.28-1.42-.87l-.9.06C1.07-.36 1.8.16 3.35.16zm0 0"/></symbol><symbol overflow="visible" id="4c84a188H"><path d="M1.45-2.95c0 2.56 1.08 4.37 3.67 4.84l.11-.67C3.28.86 2.43-.75 2.43-2.95s.85-3.82 2.8-4.16l-.1-.69c-2.6.49-3.68 2.3-3.68 4.85zm0 0"/></symbol><symbol overflow="visible" id="4c84a188I"><path d="M4.63-6.5c.45 0 .98.08 1.39.2l.2-.72a5.3 5.3 0 00-1.64-.26c-1.52 0-2.16.56-2.16 1.87v.4H.9v.76h1.53V0h.94v-4.25h2.53v-.77H3.36v-.3c0-.84.33-1.18 1.27-1.18zm0 0"/></symbol><symbol overflow="visible" id="4c84a188J"><path d="M1.45-7.1c1.96.33 2.8 1.94 2.8 4.15 0 2.2-.84 3.8-2.8 4.17l.11.67c2.58-.47 3.67-2.28 3.67-4.84 0-2.55-1.09-4.36-3.67-4.85zm0 0"/></symbol></defs><g fill="#515151"><use xlink:href="#4c84a188a" x="134.72" y="148"/><use xlink:href="#4c84a188b" x="168.64" y="148"/><use xlink:href="#4c84a188c" x="205.6" y="148"/></g><use xlink:href="#4c84a188d" x="225.6" y="148" fill="#fff"/><use xlink:href="#4c84a188e" x="296.16" y="148" fill="#fff"/><use xlink:href="#4c84a188f" x="320.16" y="148" fill="#fff"/><use xlink:href="#4c84a188g" x="344.16" y="148" fill="#fff"/><use xlink:href="#4c84a188h" x="346.72" y="148" fill="#fff"/><use xlink:href="#4c84a188i" x="370.72" y="148" fill="#fff"/><use xlink:href="#4c84a188j" x="414.72" y="148" fill="#fff"/><use xlink:href="#4c84a188g" x="438.72" y="148" fill="#fff"/><use xlink:href="#4c84a188i" x="441.28" y="148" fill="#fff"/><g fill="#fff"><use xlink:href="#4c84a188k" x="226.6667" y="252"/><use xlink:href="#4c84a188l" x="233.3337" y="252"/><use xlink:href="#4c84a188m" x="240.0007" y="252"/><use xlink:href="#4c84a188n" x="246.6677" y="252"/><use xlink:href="#4c84a188o" x="253.3347" y="252"/><use xlink:href="#4c84a188p" x="260.0017" y="252"/><use xlink:href="#4c84a188q" x="266.6687" y="252"/><use xlink:href="#4c84a188r" x="273.3357" y="252"/><use xlink:href="#4c84a188p" x="280.0027" y="252"/><use xlink:href="#4c84a188s" x="286.6697" y="252"/><use xlink:href="#4c84a188t" x="293.3367" y="252"/><use xlink:href="#4c84a188u" x="300.0037" y="252"/><use xlink:href="#4c84a188p" x="306.6707" y="252"/><use xlink:href="#4c84a188v" x="313.3377" y="252"/><use xlink:href="#4c84a188q" x="320.0047" y="252"/><use xlink:href="#4c84a188t" x="326.6717" y="252"/><use xlink:href="#4c84a188w" x="333.3387" y="252"/><use xlink:href="#4c84a188x" x="340.0057" y="252"/><use xlink:href="#4c84a188p" x="346.6727" y="252"/><use xlink:href="#4c84a188r" x="353.3397" y="252"/><use xlink:href="#4c84a188t" x="360.0067" y="252"/><use xlink:href="#4c84a188x" x="366.6737" y="252"/></g><g fill="#fff"><use xlink:href="#4c84a188y" x="216.6667" y="266"/><use xlink:href="#4c84a188l" x="223.3337" y="266"/><use xlink:href="#4c84a188z" x="230.0007" y="266"/><use xlink:href="#4c84a188n" x="236.6677" y="266"/><use xlink:href="#4c84a188A" x="243.3347" y="266"/><use xlink:href="#4c84a188B" x="250.0017" y="266"/><use xlink:href="#4c84a188l" x="256.6687" y="266"/><use xlink:href="#4c84a188o" x="263.3357" y="266"/><use xlink:href="#4c84a188p" x="270.0027" y="266"/><use xlink:href="#4c84a188y" x="276.6697" y="266"/><use xlink:href="#4c84a188B" x="283.3367" y="266"/><use xlink:href="#4c84a188z" x="290.0037" y="266"/><use xlink:href="#4c84a188C" x="296.6707" y="266"/><use xlink:href="#4c84a188n" x="303.3377" y="266"/><use xlink:href="#4c84a188D" x="310.0047" y="266"/><use xlink:href="#4c84a188E" x="316.6717" y="266"/><use xlink:href="#4c84a188F" x="323.3387" y="266"/><use xlink:href="#4c84a188G" x="330.0057" y="266"/><use xlink:href="#4c84a188p" x="336.6727" y="266"/><use xlink:href="#4c84a188H" x="343.3397" y="266"/><use xlink:href="#4c84a188I" x="350.0067" y="266"/><use xlink:href="#4c84a188B" x="356.6737" y="266"/><use xlink:href="#4c84a188z" x="363.3407" y="266"/><use xlink:href="#4c84a188C" x="370.0077" y="266"/><use xlink:href="#4c84a188J" x="376.6747" y="266"/></g></svg>