<?xml version='1.0' encoding='UTF-8'?>
<svg xmlns="http://www.w3.org/2000/svg" xmlns:xlink="http://www.w3.org/1999/xlink" width="500px" height="480px" viewBox="0 0 500 480" x="0px" y="0px" enable-background="new 0 0 500 480"><defs><symbol overflow="visible" id="99c31b4ca"><path d="M.95 0H12.6c.32-.55.46-1.2.46-1.75l-5.2-.95 2.9-8.35h13.34l3.25 8.25-5.09 1.05c0 .6.16 1.3.45 1.75h12.64c.32-.55.46-1.2.46-1.75l-3.4-.95-12.06-31.4c-1.59.35-3.09.85-4.64 1.65L4.25-3.25.5-1.75c0 .6.16 1.3.45 1.75zm16.2-29.5h.2c.4 2.3 1.4 4.9 2.95 8.84l2.7 6.82H11.7zm0 0"/></symbol><symbol overflow="visible" id="99c31b4cb"><path d="M5.5-3.34l-3.45 1.8c0 .59.15 1.09.45 1.54h11.9c.3-.55.44-1.3.44-1.84l-5.09-.82v-13.59c1.8-1.3 5.45-2.05 7.95-2.05 0-1.75-.1-3.36-.36-4.8-2.93 0-5.8 1.8-8.04 4.94l-.05-.04.95-3.6c-.86-.4-1.75-.7-3.4-.7-2.14 0-4.05.5-5.8 1.25 0 .6.16 1.1.45 1.55l4.2.3c-.1.85-.15 1.8-.15 3.2zm0 0"/></symbol><symbol overflow="visible" id="99c31b4cc"><path d="M13.1.6c3.56 0 6.15-1.1 8.45-2.76 0-.39-.4-1.34-.75-1.68-2.7 1.04-4.14 1.39-5.9 1.39-5.45 0-8.35-3.5-8.35-9.35v-.25h14.1c.4-1.15.6-2.3.6-3.4 0-4.75-3.55-7.64-7.95-7.64C7.16-23.1 2-17.45 2-10.34 2-3.5 6.3.59 13.1.59zm-1.6-20.85c3.2 0 4.95 2 5.3 5.4l-10.1.44c.3-2.18 1-3.84 1.9-5.43.95-.25 2-.41 2.9-.41zm0 0"/></symbol><symbol overflow="visible" id="99c31b4cd"><path d="M2.16 0H13.3c.3-.55.45-1.3.45-1.84l-4.3-.75V-30c0-3.45.64-5.7.64-5.7-.84-.4-1.93-.6-3.5-.6-2.04 0-4.09.5-5.84 1.25 0 .6.16 1.1.45 1.55l4.14.3c-.09.9-.14 1.8-.14 3.2v26.66h-.04L1.7-1.54c0 .59.14 1.09.46 1.54zM24.8.6c.95 0 2-.2 2.75-.6.1-.45.2-1.3.2-1.75-2.25-.5-5.05-2.45-8.3-6.6l-3.7-4.74 7.1-6.25 3.2-1.25c0-.57-.14-1.11-.46-1.66h-9.8c-.29.45-.45 1.05-.45 1.66l2.96 1.3-6.85 7.7 5.46 7.04C19.66-1 22.16.6 24.8.6zm0 0"/></symbol><symbol overflow="visible" id="99c31b4cf"><path d="M4.06-2.77c1.25-.04 1.92-.7 1.92-1.96 0-1.36-.7-2.04-2.17-2.04H.92V0h.97v-2.73h1.08L4.95 0h1.1zM1.9-6h1.7c1.07 0 1.46.34 1.46 1.28 0 .9-.44 1.27-1.47 1.27H1.89zm0 0"/></symbol><symbol overflow="visible" id="99c31b4cg"><path d="M5.75-2.23v-.43c0-1.6-.9-2.51-2.42-2.51S.87-4.16.87-2.48c0 1.71.91 2.62 2.5 2.62 1.43 0 2.07-.56 2.29-1.52l-.9-.09c-.18.61-.59.9-1.35.9-.94 0-1.52-.54-1.58-1.66zm-2.4-2.2c.93 0 1.43.5 1.48 1.55H1.84c.08-1.07.6-1.56 1.5-1.56zm0 0"/></symbol><symbol overflow="visible" id="99c31b4ch"><path d="M3.16 2.03c1.67 0 2.4-.86 2.4-2.51v-4.54h-.81l-.13.91h-.06c-.26-.58-.8-1.05-1.73-1.05-1.42 0-2.24 1-2.24 2.52 0 1.6.75 2.56 2.2 2.56.94 0 1.5-.5 1.77-1.03h.05v.72c0 1.17-.42 1.67-1.45 1.67-.93 0-1.3-.34-1.41-.89L.8.5c.12.96.87 1.54 2.36 1.54zM3.06-.8c-.98 0-1.48-.57-1.48-1.82 0-1.13.5-1.75 1.48-1.75 1.06 0 1.58.76 1.58 1.75 0 .95-.56 1.82-1.58 1.82zm0 0"/></symbol><symbol overflow="visible" id="99c31b4ci"><path d="M2.73.14c.9 0 1.43-.45 1.74-1.08h.06l.13.94h.8v-5.02h-.94v2.7c0 .98-.57 1.62-1.46 1.62-.75 0-1.1-.4-1.1-1.22v-3.1h-.93v3.32c0 1.17.55 1.84 1.7 1.84zm0 0"/></symbol><symbol overflow="visible" id="99c31b4cj"><path d="M3.92-7.14H1.36v.76h1.6v5.61H1.15V0H5.7v-.77H3.92zm0 0"/></symbol><symbol overflow="visible" id="99c31b4ck"><path d="M2.83.14c.94 0 1.5-.39 1.81-.95h.08l.1.81h.76v-3.38c0-1.23-.69-1.8-2.13-1.8-1.43 0-2.03.65-2.18 1.6l.93.1c.11-.6.44-.93 1.22-.93.85 0 1.22.32 1.22 1.04v.34l-1.81.2C1.6-2.7 1.1-2.17 1.1-1.28c0 .92.64 1.42 1.72 1.42zm.25-.77c-.67 0-1.02-.28-1.02-.74 0-.44.28-.72 1-.82l1.58-.19v.41c0 .8-.6 1.34-1.56 1.34zm0 0"/></symbol><symbol overflow="visible" id="99c31b4cl"><path d="M5.08-5.16c-.94 0-1.58.43-1.9 1.3h-.09l-.07-1.16H1.05v.77h1.1v3.48H.96V0h3.96v-.77H3.1v-1.46c0-1.36.6-2.05 1.83-2.05.4 0 .76.08 1.1.17l.15-.87c-.33-.11-.7-.18-1.11-.18zm0 0"/></symbol><symbol overflow="visible" id="99c31b4cq"><path d="M3.83-5.97h1.73v-.8H1.1v.8h1.75v5.19H1.1V0h4.47v-.78H3.83zm0 0"/></symbol><symbol overflow="visible" id="99c31b4cr"><path d="M5.52-4.25v-.77H3.17v-1.56h-.81l-.14 1.56H.75v.77h1.47v2.4c0 1.3.48 1.94 1.84 1.94C4.6.1 5.14 0 5.55-.14L5.4-.91c-.32.13-.72.2-1.13.2-.8 0-1.1-.37-1.1-1.23v-2.31zm0 0"/></symbol><symbol overflow="visible" id="99c31b4cs"><path d="M3.58-5.81c.42 0 .72-.22.72-.67 0-.44-.3-.68-.72-.68-.44 0-.72.24-.72.68 0 .45.28.67.72.67zm.5.8H1.52v.76h1.6v3.48h-1.8V0h4.46v-.77h-1.7zm0 0"/></symbol><symbol overflow="visible" id="99c31b4ct"><path d="M3.34.14c1.43 0 2.13-.66 2.25-1.78l-.89-.1c-.1.7-.5 1.08-1.34 1.08-1.03 0-1.52-.64-1.52-1.84 0-1.23.47-1.86 1.52-1.86.84 0 1.23.36 1.34 1.08l.9-.1c-.13-1.09-.82-1.78-2.26-1.78-1.56 0-2.46.97-2.46 2.66 0 1.66.9 2.64 2.46 2.64zm0 0"/></symbol><symbol overflow="visible" id="99c31b4cy"><path d="M3.42.14c1.61 0 2.56-.75 2.56-2 0-1.1-.67-1.6-1.95-1.86l-.97-.2c-.87-.17-1.23-.49-1.23-1.11 0-.7.54-1.11 1.5-1.11 1.06 0 1.51.34 1.69 1.23l.9-.09c-.17-1.28-.98-1.9-2.6-1.9C1.79-6.9.9-6.18.9-4.98c0 1.06.66 1.66 1.88 1.9l1.01.2c.85.17 1.25.4 1.25 1.09 0 .73-.6 1.16-1.6 1.16-1.07 0-1.66-.4-1.8-1.24l-.94.1C.83-.53 1.75.13 3.42.13zm0 0"/></symbol><symbol overflow="visible" id="99c31b4cz"><path d="M1.63 0v-2.9c0-.8.15-1.4.71-1.4.41 0 .55.3.55.88V0h.95v-2.9c0-.8.18-1.4.72-1.4.4 0 .57.3.57.88V0h.95v-3.63c0-.92-.28-1.53-1.11-1.53-.63 0-.95.41-1.1.9h-.06c-.1-.52-.44-.9-1.08-.9-.6 0-.93.41-1.06.9H1.6l-.23-.76H.67V0zm0 0"/></symbol><symbol overflow="visible" id="99c31b4cA"><path d="M3.9.14c1.48 0 2.18-.98 2.18-2.64 0-1.67-.7-2.66-2.17-2.66-.91 0-1.49.41-1.79 1h-.06v-2.98h-.95V0h.81l.11-.9h.06c.29.63.82 1.04 1.82 1.04zm-.32-.8c-1.08 0-1.55-.8-1.55-1.84 0-1.06.47-1.86 1.55-1.86 1.1 0 1.51.61 1.51 1.86S4.64-.66 3.58-.66zm0 0"/></symbol><symbol overflow="visible" id="99c31b4cB"><path d="M3.33.14c1.62 0 2.5-.95 2.5-2.66 0-1.68-.88-2.64-2.5-2.64-1.63 0-2.5.96-2.5 2.64 0 1.7.87 2.66 2.5 2.66zm0-.77c-1.06 0-1.52-.6-1.52-1.89 0-1.28.46-1.87 1.52-1.87 1.08 0 1.53.6 1.53 1.87 0 1.29-.45 1.9-1.53 1.9zm0 0"/></symbol><symbol overflow="visible" id="99c31b4cC"><path d="M2.84.14C3.8.14 4.33-.26 4.6-.9h.07L4.8 0h.76v-7.14h-.95v2.95h-.08c-.28-.6-.86-.97-1.67-.97-1.48 0-2.27.99-2.27 2.64C.6-.84 1.36.14 2.84.14zm.22-.8c-.98 0-1.48-.59-1.48-1.84s.5-1.86 1.48-1.86c1.13 0 1.58.8 1.58 1.86S4.2-.66 3.06-.66zm0 0"/></symbol><symbol overflow="visible" id="99c31b4cL"><path d="M4.66-3.45c.76-.14 1.15-.67 1.15-1.57 0-1.07-.64-1.75-2.18-1.75H.92V0h2.71C5.2 0 5.98-.64 5.98-1.77c0-1.03-.56-1.43-1.32-1.59zM3.56-6c.9 0 1.31.4 1.31 1.13 0 .71-.4 1.14-1.3 1.14h-1.7V-6zM1.87-.75v-2.27H3.6c.97 0 1.44.33 1.44 1.13 0 .8-.47 1.14-1.44 1.14zm0 0"/></symbol><symbol overflow="visible" id="99c31b4cU"><path d="M5.92-6.77H1.1V0h4.83v-.8H2.06v-2.26h3.22v-.75H2.06v-2.16h3.86zm0 0"/></symbol><symbol overflow="visible" id="99c31b4cV"><path d="M1.83 0l1.42-2h.06l1.46 2H5.8L4-2.53l1.78-2.49H4.8L3.42-3.08h-.08l-1.4-1.94H.89l1.78 2.49L.84 0zm0 0"/></symbol><symbol overflow="visible" id="99c31b4cm"><path d="M3.16-12.84c1.14.25 2.43.54 4.3.8L2.5-1.17C3.5-.09 4.7.3 5.8.41l5-12.16c1.7.16 3.75.2 6.25.2H22L24.1-3c.5 1.95 1.5 3.75 3.56 3.75C30 .75 32.09-1.5 33-2.8c0-.6-.2-1.25-.5-1.7-1.55.95-3 1.5-4.16 1.84l-7.59-31.8c-1.4.26-3.16 1-3.8 1.46L8.7-14.8c-1.95-.3-3.6-.7-5.9-1.25l-.3.3c.05 1.34.3 2 .66 2.9zM17-14.34c-2.05 0-3.7-.07-5.1-.16l5.94-14.4h.2c.3 2.3.41 2.95 2.12 9.8l1.14 4.76zm0 0"/></symbol><symbol overflow="visible" id="99c31b4cn"><path d="M3.8.05c.45.15 1.3.2 1.7.2C6.55.25 7.45-.15 8-.7c.8-3.7 1.34-8.5 1.6-11.75a33.8 33.8 0 015.15-7.35c.75.75 1.55 1.7 2.1 2.4h.4c1-1.1 1.84-2.35 2.4-3.44-1.2-2.16-2.7-3.41-3.6-3.41-1.5 0-3.7 3.55-6.85 9.2l-.2-.1c.4-1.1.9-2.5.9-4.3 0-1.7-.45-3.3-1.9-4.05-2.34 0-6.8 2.55-7.75 3.55.1.45.5 1.1.95 1.4l2.05-.75c.66-.25 1.7-.54 2.8-.86C6-16.7 5.85-13.3 5.5-9.84 4.5-6.8 3.84-3.04 3.8.05zm0 0"/></symbol><symbol overflow="visible" id="99c31b4co"><path d="M1.25-7.34c0 5.39 3 8.09 5.7 8.09 2.3 0 6.4-2 10.14-5.75-.3-.55-.8-1.1-1.25-1.5A22.78 22.78 0 017.8-2.45c-1.4-1.1-2.35-3.4-2.35-6.85v-.65c6-.64 12.5-2.8 12.5-7.75 0-3.2-2.65-6.55-6-6.55-5.75 0-10.7 10-10.7 16.9zm8.2-14.07c3.7.16 4.9 2.32 5.1 5.61-2 1.4-5.14 2.55-8.8 3.1.55-3.25 1.8-6.5 3.7-8.7zm0 0"/></symbol><symbol overflow="visible" id="99c31b4cp"><path d="M9.45-9.95C10.65-4 14.05.75 17.6.75c2.32 0 5.11-2.05 6-3.34 0-.61-.18-1.25-.5-1.7-1.54.88-3.04 1.5-4.64 2-2-1.05-3.8-3.91-5.2-8.16 4.25-2.35 7.3-5.96 7.3-9.3 0-2.55-1.8-4.5-2.96-4.5-1.5 0-6.5 3.34-10.3 8.8l-.2-.1c1.57-4 2.61-9.95 2.61-13.7 0-4.2-1.36-6.84-2.95-7.8-2.34 0-6.8 2.55-7.75 3.55.1.45.5 1.1.95 1.4L2-32.83c.7-.25 1.8-.61 2.95-.91.5 1.84.7 4.05.7 6.2 0 4-.6 9.85-1.45 15.46C2.7-8.75 1.75-3.91 1.66.05c.43.15 1.3.2 1.68.2 1.07 0 1.96-.4 2.5-.95A93.9 93.9 0 007.5-12.75c2.2-3.3 5.9-6 8.55-7.5.36.55.54 1.25.54 2 0 2.45-2 4.95-5.34 6.66l-1.75.89zm0 0"/></symbol><symbol overflow="visible" id="99c31b4cu"><path d="M.9 0h11.55A6 6 0 0013-2.55L8.25-3.3l2.55-7.4h12.45l2.8 7.3-4.4.85c0 1 .15 1.8.44 2.55h13.5c.41-.8.57-1.75.57-2.55l-3.32-.65-11.68-31.25c-2 .4-3.96.95-5.86 1.9L3.95-3.95l-3.5 1.4c0 1 .14 1.8.46 2.55zm15.94-28.2h.2c.41 2.36 1.26 4.65 2.76 8.54l2.15 5.57h-10zm0 0"/></symbol><symbol overflow="visible" id="99c31b4cv"><path d="M4.95-4l-3 1.6c0 1 .2 1.65.5 2.4h12.3c.34-.8.5-1.8.5-2.6l-4.6-.65v-12.66c1.94-.93 5.4-1.54 7.94-1.54 0-2.2-.09-4.05-.43-5.75-3.46 0-6.16 2.1-8 5.3l-.2-.1.95-3.84a8.5 8.5 0 00-3.86-.82c-2.35 0-4.46.57-6.2 1.36 0 .8.15 1.6.56 2.3l3.68.3c-.09 1.04-.14 2.2-.14 3.65zm0 0"/></symbol><symbol overflow="visible" id="99c31b4cw"><path d="M13.1.66c3.9 0 7-1.25 9.24-3.07-.09-.64-.54-1.8-1-2.39-2.39.96-3.84 1.3-5.68 1.3-5.07 0-7.86-2.9-8-8.34h14c.39-1.11.59-2.16.59-3.32 0-5-3.75-8.04-8.66-8.04-6.64 0-11.89 5.7-11.89 12.9C1.7-3.45 6.16.66 13.1.66zM11.8-19.8c2.75 0 4.54 1.64 4.9 4.96l-8.9.39c.2-1.85.75-3.4 1.45-4.96.84-.25 1.75-.39 2.55-.39zm0 0"/></symbol><symbol overflow="visible" id="99c31b4cx"><path d="M2.16 0h11.5c.34-.8.5-1.8.5-2.6l-3.75-.56v-25.59c0-3.45.54-5.95.68-6.75-1-.5-2.43-.8-4.25-.8-2.25 0-4.43.55-6.25 1.35 0 .8.16 1.6.57 2.3l3.68.3a39.1 39.1 0 00-.14 3.6V-4h-.04l-3 1.6c0 1 .18 1.65.5 2.4zM25 .66c1.1 0 2.25-.25 3.05-.66.2-.66.36-1.75.36-2.55-2.11-.65-4.46-2.4-7.36-6.25l-3.55-4.75 6.55-5.4 3.1-1.05c0-.8-.15-1.6-.56-2.4H16.25c-.3.74-.5 1.45-.5 2.4l3 1.2-6.7 7.25L16.9-4.8C19.59-1 22 .66 25 .66zm0 0"/></symbol><symbol overflow="visible" id="99c31b4cD"><path d="M2.75-11.75c1.16.25 2.4.5 3.9.75L2.2-1.6A8.16 8.16 0 006.66.46l4.43-11.04c1.61.09 3.41.14 5.57.14h5.43l1.75 7.15C24.45-.95 25.7.75 28 .75c2.7 0 5.05-2.2 6.16-3.66-.07-1-.32-1.93-.75-2.68-1.46.84-2.82 1.39-3.96 1.68L22.1-34.45c-1.93.2-4.14 1.1-5.34 1.86L8.35-14.7c-1.9-.25-3.7-.7-5.94-1.25l-.32.3c0 1.7.25 2.7.66 3.9zm13.84-2.5c-1.54 0-2.8 0-3.93-.05l5.25-13.04h.18c.32 2.34.7 3.8 2.25 9.89l.82 3.2zm0 0"/></symbol><symbol overflow="visible" id="99c31b4cE"><path d="M3.25-.05c.7.2 1.66.3 2.34.3 1.32 0 2.46-.4 3.32-1.16.8-3.75 1.3-8.39 1.54-11.75 1.4-2.54 2.9-4.54 4.2-5.84 1.05.8 2.1 1.84 2.85 2.75h.45a31.95 31.95 0 002.25-5.84c-1.15-1.75-2.54-2.82-3.7-2.82-1.6 0-4.05 4.16-6.8 9.2l-.2-.09c.45-1.15.95-2.5.95-4.2 0-1.75-.5-3.4-2.04-4.2-2.46 0-6.75 2.3-8.16 3.5.05.8.45 1.7 1 2.25l1.8-.6c.6-.2 1.45-.45 2.45-.65-.05 3.1-.2 6.4-.55 9.7a30.1 30.1 0 00-1.7 9.45zm0 0"/></symbol><symbol overflow="visible" id="99c31b4cF"><path d="M1.1-7.7c0 6 3.56 8.45 6.45 8.45 2.86 0 7.04-2.16 10.65-5.66-.3-.8-.9-1.5-1.45-2.04-2.5 1.8-5.4 3.15-7.9 3.8C7.58-4.26 6.8-6.3 6.7-9.5c6.46-1 12.14-3.3 12.14-8 0-3.45-3.04-6.9-6.64-6.9-5.9 0-11.1 9.5-11.1 16.7zm8.65-13.2c3 .4 4.4 2.4 4.66 5.56a20.25 20.25 0 01-7.5 2.68c.34-2.93 1.3-6.09 2.84-8.25zm0 0"/></symbol><symbol overflow="visible" id="99c31b4cG"><path d="M10.16-9.75C11.4-4.05 14.66.75 18 .75c2.16 0 5.25-2.1 6.34-3.7 0-.8-.25-1.6-.68-2.3-1.46.75-2.91 1.34-4.36 1.8-1.75-1.35-3.25-3.85-4.46-7.46 4-2.3 6.86-5.54 6.86-8.68 0-2.57-1.86-4.82-3.6-4.82-1.4 0-6.3 3.07-10.05 8.96l-.25-.14c1.7-4.11 2.9-9.5 2.9-13.5 0-4.32-1.45-7-3.2-8-2.6 0-7 2.3-8.45 3.54.1.85.54 1.75 1.04 2.25l1.75-.65c.75-.25 1.91-.55 3.07-.8.25 1.6.34 3.5.34 5.5 0 4-.45 9.55-1.2 15-1.64 3.4-2.6 8.16-2.7 12.2.7.2 1.65.3 2.35.3C5 .25 6.2-.15 7-.91c.75-3.64 1.3-8.43 1.55-11.84a22.6 22.6 0 017.45-6.6c.25.44.4 1.05.4 1.76 0 2.43-1.85 4.68-4.65 6.25l-1.55.84zm0 0"/></symbol><symbol overflow="visible" id="99c31b4cH"><path d="M.84 0H12.3c.5-1.1.65-2.4.65-3.5L8.8-4.05l2.1-6.3h11.3l2.25 6.2-3.54.65c0 1.45.18 2.34.5 3.5h14.5c.43-1.1.59-2.4.59-3.5l-3.2-.45L22.1-34.8c-2.5.35-4.9 1-7.35 2.14L3.59-4.75.34-3.5c0 1.45.2 2.34.5 3.5zm15.61-26.66h.2c.44 2.41 1.1 4.32 2.55 8.25l1.5 4h-8.4zm0 0"/></symbol><symbol overflow="visible" id="99c31b4cI"><path d="M4.25-4.8l-2.4 1.4c0 1.4.2 2.24.5 3.4h12.8c.5-1.1.65-2.45.65-3.55l-4.05-.4v-11.6c2.1-.54 5.3-.9 7.95-.9 0-2.7-.1-4.9-.54-6.9-4 0-6.66 2.4-8.11 5.7l-.3-.1 1-4.2c-1.1-.5-2.5-.85-4.4-.85-2.55 0-4.9.6-6.65 1.46 0 1.04.1 2.14.6 3.18l3.15.32c-.1 1.25-.2 2.59-.2 4.14zm0 0"/></symbol><symbol overflow="visible" id="99c31b4cJ"><path d="M13.1.7c4.24 0 8.06-1.45 10.24-3.4-.25-1-.75-2.35-1.3-3.2-2.09.74-3.54 1.2-5.54 1.2-4.4 0-7.05-2.2-7.45-6.9h13.8c.35-1.06.56-2.06.56-3.2 0-5.3-4-8.54-9.41-8.54-7.25 0-12.6 5.75-12.6 13.04C1.4-3.4 6 .7 13.1.7zm-.9-19.95c2.14 0 4 1.2 4.35 4.4l-7.46.35c.16-1.45.46-2.95.96-4.4.7-.2 1.4-.35 2.15-.35zm0 0"/></symbol><symbol overflow="visible" id="99c31b4cK"><path d="M2.1 0H14c.5-1.1.66-2.45.66-3.55l-3.11-.36v-23.3c0-3.5.45-6.29.7-8.09-1.16-.6-3-1-5.1-1a16 16 0 00-6.7 1.46c0 1.09.1 2.18.64 3.18l3.16.32c-.16 1.25-.2 2.59-.2 4.14v22.4l-2.4 1.4c0 1.4.15 2.24.44 3.4zm23.1.7c1.35 0 2.55-.25 3.46-.7.3-.9.54-2.25.54-3.5-2-.8-3.8-2.34-6.25-5.8l-3.36-4.75 5.75-4.25 3.07-.95c0-1.1-.16-2.2-.61-3.3H16.75c-.3 1.1-.45 1.85-.45 3.3l2.95 1.05-6.5 6.75 4.2 6.36c2.6 4.04 4.9 5.8 8.25 5.8zm0 0"/></symbol><symbol overflow="visible" id="99c31b4cM"><path d="M2.2-10.4c1.14.24 2.25.45 3.4.65L1.9-2.09C3.35-.8 5.9.3 7.67.45L11.5-9.2c1.4.04 2.9.1 4.6.1h6.1l1.35 5.5c.75 2.8 2.3 4.35 4.9 4.35C31.6.75 34.2-1.41 35.5-3a8.28 8.28 0 00-1.05-3.84c-1.3.64-2.54 1.14-3.65 1.43L23.7-34.5a17.29 17.29 0 00-7.2 2.45l-8.55 17.5c-1.9-.3-3.8-.7-6.1-1.25l-.3.3c.04 2.1.3 3.55.65 5.1zm13.85-3.7c-.9 0-1.75 0-2.6-.06l4.5-11.3h.25c.25 2.41 1.05 4.8 2.4 10l.35 1.37zm0 0"/></symbol><symbol overflow="visible" id="99c31b4cN"><path d="M2.6-.2a11 11 0 003.1.45c1.6 0 3.1-.45 4.3-1.4.7-3.76 1.16-8.1 1.4-11.65 1.05-1.7 2.05-3.1 3.05-4.1 1.4.85 2.75 2 3.85 3.1h.54a42.9 42.9 0 002.07-8.75c-1.16-1.25-2.41-2-3.86-2-1.64 0-4.5 4.96-6.75 9.2l-.2-.15c.56-1.2 1-2.45 1-4.05 0-1.8-.55-3.54-2.15-4.4-2.6 0-6.7 2-8.7 3.5.05 1.15.4 2.3 1.1 3.25l1.5-.5c.5-.14 1.2-.3 1.95-.46 0 2.75-.14 5.75-.46 8.86C3.25-6.5 2.66-3.4 2.6-.2zm0 0"/></symbol><symbol overflow="visible" id="99c31b4cO"><path d="M.95-8.05C.95-1.4 5.1.75 8.3.75c3.45 0 7.8-2.34 11.25-5.5a9.2 9.2 0 00-1.7-2.75 25.13 25.13 0 01-7.7 3.5c-1-.95-1.65-2.6-1.85-5.1 6.7-1.24 11.6-3.74 11.6-8.15 0-3.75-3.45-7.3-7.4-7.3C6.4-24.55.95-15.7.95-8.05zM10.1-20.2c2.36.65 3.86 2.5 4.07 5.4-1.46.96-3.57 1.7-5.86 2.2.2-2.56.8-5.56 1.8-7.6zm0 0"/></symbol><symbol overflow="visible" id="99c31b4cP"><path d="M11-9.55C12.25-4.09 15.4.75 18.45.75c2.05 0 5.46-2.1 6.85-4.05a6.7 6.7 0 00-1-3.1c-1.3.65-2.55 1.15-3.85 1.56-1.45-1.5-2.7-3.66-3.6-6.61 3.65-2.2 6.2-5.05 6.2-8 0-2.55-1.9-5.1-4.35-5.1-1.3 0-6.15 2.7-9.8 9.1l-.3-.2c1.9-4.2 3.3-9 3.3-13.26 0-4.43-1.56-7.25-3.5-8.25-2.85 0-7.24 2.07-9.24 3.57.04 1.3.54 2.5 1.09 3.25l1.45-.5c.75-.25 1.8-.5 2.96-.7.09 1.34.14 2.95.14 4.59 0 4-.3 9.2-.96 14.4A28.7 28.7 0 001.04-.2C2 .1 3.1.25 4.1.25c1.61 0 3.16-.45 4.36-1.4.64-3.7 1.14-8.05 1.4-11.6 1.85-2.7 4.15-4.5 6.06-5.55.14.4.25.9.25 1.5 0 2.46-1.66 4.35-3.82 5.7l-1.3.8zm0 0"/></symbol><symbol overflow="visible" id="99c31b4cQ"><path d="M.75 0h11.34c.61-1.45.75-3.16.75-4.55l-3.5-.4L11-9.91h10.05l1.7 4.86-2.66.5c0 1.96.2 3 .5 4.55H36.2c.6-1.45.75-3.16.75-4.55l-3.15-.3-10.64-30.4c-3.07.4-6 1.16-8.96 2.45L3.2-5.6.25-4.54c0 1.96.2 3 .5 4.55zm15.3-24.95h.2c.45 2.5.9 4 2.25 7.9l.84 2.35h-6.68zm0 0"/></symbol><symbol overflow="visible" id="99c31b4cR"><path d="M3.5-5.66L1.75-4.55c0 1.96.2 3 .5 4.55h13.34c.61-1.45.75-3.16.75-4.55L13-4.85V-15.3h7.95c0-3.3-.1-5.86-.7-8.2-4.5 0-7.25 2.66-8.4 6.05l-.15-.05.96-4.55c-1.25-.54-2.91-.95-5-.95-2.75 0-5.36.7-7.16 1.55 0 1.4.05 2.86.7 4.2l2.55.3c-.16 1.5-.25 3.1-.25 4.75zm0 0"/></symbol><symbol overflow="visible" id="99c31b4cS"><path d="M13.1.75c4.7 0 9.2-1.66 11.35-3.8-.4-1.36-1-2.9-1.65-4.1-1.7.6-3.2 1.06-5.3 1.06-3.75 0-6.2-1.41-6.84-5.2H24.2c.3-1 .5-1.91.5-3.12 0-5.64-4.25-9.09-10.3-9.09C6.5-23.5 1-17.7 1-10.25 1-3.3 5.8.75 13.1.75zm-.5-19.4c1.56 0 3.4.74 3.8 3.8l-5.85.3c.04-1.04.15-2.4.4-3.8a4.5 4.5 0 011.64-.3zm0 0"/></symbol><symbol overflow="visible" id="99c31b4cT"><path d="M2.1 0h12.35c.6-1.45.75-3.16.75-4.55l-2.36-.2V-25.5c0-3.5.32-6.7.7-9.55-1.29-.7-3.63-1.25-6.09-1.25-2.75 0-5.36.7-7.15 1.55 0 1.4.04 2.84.7 4.2l2.55.3c-.1 1.45-.2 3.05-.2 4.75v19.84L1.58-4.55c0 1.96.2 3 .5 4.55zm23.35.75c1.55 0 2.9-.3 3.85-.75.45-1.16.75-2.84.75-4.55-1.8-1-3-2.3-5-5.36l-3.1-4.68 4.64-2.96 3.25-.9c0-1.4-.14-2.85-.75-4.3H17.34c-.3 1.55-.5 2.34-.5 4.3l2.96.95-6.25 6.16 3.4 5.89c2.55 4.4 4.75 6.2 8.5 6.2zm0 0"/></symbol><symbol overflow="visible" id="99c31b4cW"><path d="M1.66-8.95c.93.2 1.84.4 2.75.54L1.5-2.7C3.25-1.2 6.6.3 8.8.5L12-7.7c1.1.04 2.25.04 3.55.04h6.75L23.25-4C24.09-.66 26 .75 28.95.75c3.6 0 6.5-2.05 8.05-3.9-.05-2-.55-3.7-1.4-5.15-1.1.5-2.26.9-3.35 1.25l-6.8-27.45a20 20 0 00-9.2 3L7.5-14.45c-1.9-.25-3.9-.64-6.2-1.2l-.3.3c0 2.55.25 4.5.66 6.4zm13.84-5h-1.1l3.65-9.4h.25c.25 2.3 1.3 5.5 2.36 9.4zm0 0"/></symbol><symbol overflow="visible" id="99c31b4cX"><path d="M1.9-.34c1.26.39 2.55.59 3.9.59 1.95 0 3.86-.45 5.45-1.66.55-3.8 1-7.64 1.25-11.5.55-.84 1.05-1.54 1.55-2.14 1.9.9 3.6 2.05 5.1 3.46h.65c1.3-5.07 1.86-9.11 1.86-11.96a6.8 6.8 0 00-4-1.2c-1.82 0-5.11 6.05-6.66 9.2l-.25-.15a7.96 7.96 0 001.1-3.96c0-1.8-.6-3.64-2.35-4.59-2.75 0-6.66 1.7-9.25 3.5 0 1.55.34 3.05 1.2 4.4l1.14-.35c.41-.1.91-.25 1.46-.35 0 2.35-.1 5.05-.4 7.85A21.76 21.76 0 001.92-.34zm0 0"/></symbol><symbol overflow="visible" id="99c31b4cY"><path d="M.75-8.5C.75-1.1 5.59.75 9.09.75c4.16 0 8.66-2.6 11.91-5.34-.4-1.41-1.16-2.5-1.95-3.5a28.16 28.16 0 01-7.46 3.14c-.75-.8-1.25-2-1.5-3.75 6.82-1.5 11-4.14 11-8.3 0-4.05-3.93-7.75-8.25-7.75C6.5-24.75.75-16.55.75-8.5zm9.8-10.75c1.86.84 3.2 2.5 3.4 5-1.1.7-2.5 1.25-4.04 1.66.04-2 .25-4.66.64-6.66zm0 0"/></symbol><symbol overflow="visible" id="99c31b4cZ"><path d="M11.95-9.3C13.25-4.16 16.2.75 19 .75c1.84 0 5.66-2.16 7.3-4.5a8.23 8.23 0 00-1.3-3.9c-1.05.45-2.1.9-3.16 1.2a16.2 16.2 0 01-2.8-5.6c3.26-2.1 5.5-4.5 5.5-7.2 0-2.55-1.95-5.5-5.2-5.5-1.14 0-6 2.4-9.59 9.2l-.25-.15c2.1-4.35 3.7-8.46 3.7-13 0-4.55-1.6-7.46-3.8-8.5-3.15 0-7.56 1.7-10.15 3.5 0 1.86.55 3.36 1.2 4.4l1.1-.36c.7-.25 1.65-.43 2.7-.54a140.65 140.65 0 01-.66 17.36A27.18 27.18 0 00.66-.34C1.9.05 3.2.25 4.55.25 6.5.25 8.4-.2 10-1.41c.55-3.75 1-7.54 1.25-11.34 1.5-2.2 3.1-3.55 4.5-4.34.1.3.16.68.16 1.14 0 2.45-1.46 4.04-2.91 5.15l-1 .75zm0 0"/></symbol></defs><use xlink:href="#99c31b4ca" x="73.33375" y="67.7505"/><use xlink:href="#99c31b4cb" x="109.63375" y="67.7505"/><use xlink:href="#99c31b4cc" x="128.13375" y="67.7505"/><use xlink:href="#99c31b4cd" x="151.68375" y="67.7505"/><g fill-opacity=".33"><use xlink:href="#99c31b4ce" x="99.79208" y="113.501"/><use xlink:href="#99c31b4cf" x="106.45908" y="113.501"/><use xlink:href="#99c31b4cg" x="113.12608" y="113.501"/><use xlink:href="#99c31b4ch" x="119.79308" y="113.501"/><use xlink:href="#99c31b4ci" x="126.46008" y="113.501"/><use xlink:href="#99c31b4cj" x="133.12708" y="113.501"/><use xlink:href="#99c31b4ck" x="139.79408" y="113.501"/><use xlink:href="#99c31b4cl" x="146.46108" y="113.501"/></g><use xlink:href="#99c31b4cm" x="325.94125" y="67.7505"/><use xlink:href="#99c31b4cn" x="359.19125" y="67.7505"/><use xlink:href="#99c31b4co" x="377.59125" y="67.7505"/><use xlink:href="#99c31b4cp" x="397.54125" y="67.7505"/><g fill-opacity=".33"><use xlink:href="#99c31b4ce" x="350.20792" y="113.501"/><use xlink:href="#99c31b4cq" x="356.87492" y="113.501"/><use xlink:href="#99c31b4cr" x="363.54192" y="113.501"/><use xlink:href="#99c31b4ck" x="370.20892" y="113.501"/><use xlink:href="#99c31b4cj" x="376.87592" y="113.501"/><use xlink:href="#99c31b4cs" x="383.54292" y="113.501"/><use xlink:href="#99c31b4ct" x="390.20992" y="113.501"/></g><use xlink:href="#99c31b4cu" x="72.15875" y="185.5835"/><use xlink:href="#99c31b4cv" x="108.65875" y="185.5835"/><use xlink:href="#99c31b4cw" x="127.85875" y="185.5835"/><use xlink:href="#99c31b4cx" x="152.10875" y="185.5835"/><g fill-opacity=".33"><use xlink:href="#99c31b4ce" x="96.45875" y="231.334"/><use xlink:href="#99c31b4cy" x="103.12575" y="231.334"/><use xlink:href="#99c31b4cg" x="109.79275" y="231.334"/><use xlink:href="#99c31b4cz" x="116.45975" y="231.334"/><use xlink:href="#99c31b4cs" x="123.12675" y="231.334"/><use xlink:href="#99c31b4cA" x="129.79375" y="231.334"/><use xlink:href="#99c31b4cB" x="136.46075" y="231.334"/><use xlink:href="#99c31b4cj" x="143.12775" y="231.334"/><use xlink:href="#99c31b4cC" x="149.79475" y="231.334"/></g><use xlink:href="#99c31b4cD" x="324.36625" y="185.5835"/><use xlink:href="#99c31b4cE" x="358.51625" y="185.5835"/><use xlink:href="#99c31b4cF" x="377.71625" y="185.5835"/><use xlink:href="#99c31b4cG" x="398.36625" y="185.5835"/><g fill-opacity=".33"><use xlink:href="#99c31b4ce" x="320.20792" y="231.334"/><use xlink:href="#99c31b4cy" x="326.87492" y="231.334"/><use xlink:href="#99c31b4cg" x="333.54192" y="231.334"/><use xlink:href="#99c31b4cz" x="340.20892" y="231.334"/><use xlink:href="#99c31b4cs" x="346.87592" y="231.334"/><use xlink:href="#99c31b4cA" x="353.54292" y="231.334"/><use xlink:href="#99c31b4cB" x="360.20992" y="231.334"/><use xlink:href="#99c31b4cj" x="366.87692" y="231.334"/><use xlink:href="#99c31b4cC" x="373.54392" y="231.334"/><use xlink:href="#99c31b4ce" x="380.21092" y="231.334"/><use xlink:href="#99c31b4cq" x="386.87792" y="231.334"/><use xlink:href="#99c31b4cr" x="393.54492" y="231.334"/><use xlink:href="#99c31b4ck" x="400.21192" y="231.334"/><use xlink:href="#99c31b4cj" x="406.87892" y="231.334"/><use xlink:href="#99c31b4cs" x="413.54592" y="231.334"/><use xlink:href="#99c31b4ct" x="420.21292" y="231.334"/></g><g><use xlink:href="#99c31b4cH" x="70.78375" y="303.4165"/><use xlink:href="#99c31b4cI" x="107.48375" y="303.4165"/></g><g><use xlink:href="#99c31b4cJ" x="127.53375" y="303.4165"/><use xlink:href="#99c31b4cK" x="152.58375" y="303.4165"/></g><g fill-opacity=".33"><use xlink:href="#99c31b4ce" x="109.79208" y="349.167"/><use xlink:href="#99c31b4cL" x="116.45908" y="349.167"/><use xlink:href="#99c31b4cB" x="123.12608" y="349.167"/><use xlink:href="#99c31b4cj" x="129.79308" y="349.167"/><use xlink:href="#99c31b4cC" x="136.46008" y="349.167"/></g><g><use xlink:href="#99c31b4cM" x="322.49125" y="303.4165"/><use xlink:href="#99c31b4cN" x="357.74125" y="303.4165"/><use xlink:href="#99c31b4cO" x="377.84125" y="303.4165"/><use xlink:href="#99c31b4cP" x="399.29125" y="303.4165"/></g><g fill-opacity=".33"><use xlink:href="#99c31b4ce" x="333.54125" y="349.167"/><use xlink:href="#99c31b4cL" x="340.20825" y="349.167"/><use xlink:href="#99c31b4cB" x="346.87525" y="349.167"/><use xlink:href="#99c31b4cj" x="353.54225" y="349.167"/><use xlink:href="#99c31b4cC" x="360.20925" y="349.167"/><use xlink:href="#99c31b4ce" x="366.87625" y="349.167"/><use xlink:href="#99c31b4cq" x="373.54325" y="349.167"/><use xlink:href="#99c31b4cr" x="380.21025" y="349.167"/><use xlink:href="#99c31b4ck" x="386.87725" y="349.167"/><use xlink:href="#99c31b4cj" x="393.54425" y="349.167"/><use xlink:href="#99c31b4cs" x="400.21125" y="349.167"/><use xlink:href="#99c31b4ct" x="406.87825" y="349.167"/></g><g><use xlink:href="#99c31b4cQ" x="69.25875" y="421.2495"/><use xlink:href="#99c31b4cR" x="106.20875" y="421.2495"/></g><g><use xlink:href="#99c31b4cS" x="127.15875" y="421.2495"/><use xlink:href="#99c31b4cT" x="153.10875" y="421.2495"/></g><g fill-opacity=".33"><use xlink:href="#99c31b4ce" x="93.12542" y="467"/><use xlink:href="#99c31b4cU" x="99.79242" y="467"/><use xlink:href="#99c31b4cV" x="106.45942" y="467"/><use xlink:href="#99c31b4cr" x="113.12642" y="467"/><use xlink:href="#99c31b4cl" x="119.79342" y="467"/><use xlink:href="#99c31b4ck" x="126.46042" y="467"/><use xlink:href="#99c31b4cA" x="133.12742" y="467"/><use xlink:href="#99c31b4cB" x="139.79442" y="467"/><use xlink:href="#99c31b4cj" x="146.46142" y="467"/><use xlink:href="#99c31b4cC" x="153.12842" y="467"/></g><g><use xlink:href="#99c31b4cW" x="320.39125" y="421.2495"/><use xlink:href="#99c31b4cX" x="356.89125" y="421.2495"/><use xlink:href="#99c31b4cY" x="378.04125" y="421.2495"/><use xlink:href="#99c31b4cZ" x="400.39125" y="421.2495"/></g><g fill-opacity=".33"><use xlink:href="#99c31b4ce" x="316.87458" y="467"/><use xlink:href="#99c31b4cU" x="323.54158" y="467"/><use xlink:href="#99c31b4cV" x="330.20858" y="467"/><use xlink:href="#99c31b4cr" x="336.87558" y="467"/><use xlink:href="#99c31b4cl" x="343.54258" y="467"/><use xlink:href="#99c31b4ck" x="350.20958" y="467"/><use xlink:href="#99c31b4cA" x="356.87658" y="467"/><use xlink:href="#99c31b4cB" x="363.54358" y="467"/><use xlink:href="#99c31b4cj" x="370.21058" y="467"/><use xlink:href="#99c31b4cC" x="376.87758" y="467"/><use xlink:href="#99c31b4ce" x="383.54458" y="467"/><use xlink:href="#99c31b4cq" x="390.21158" y="467"/><use xlink:href="#99c31b4cr" x="396.87858" y="467"/><use xlink:href="#99c31b4ck" x="403.54558" y="467"/><use xlink:href="#99c31b4cj" x="410.21258" y="467"/><use xlink:href="#99c31b4cs" x="416.87958" y="467"/><use xlink:href="#99c31b4ct" x="423.54658" y="467"/></g></svg>