<?xml version='1.0' encoding='UTF-8'?>
<svg xmlns="http://www.w3.org/2000/svg" xmlns:xlink="http://www.w3.org/1999/xlink" width="3240px" height="1080px" viewBox="0 0 3240 1080" x="0px" y="0px" enable-background="new 0 0 3240 1080"><defs><symbol overflow="visible" id="96ccdfbec"><path d="M403.328-578.578c45.25 0 76.672-23.797 76.672-70.469s-31.422-70.484-76.672-70.484c-47.61 0-79.047 23.812-79.047 70.484s31.438 70.469 79.047 70.469zm-216.656 0c46.656 0 77.61-23.797 77.61-70.469s-30.954-70.484-77.61-70.484c-47.14 0-77.625 23.812-77.625 70.484s30.484 70.469 77.625 70.469zm24.75 591.906c80 0 134.297-32.375 160-85.703h5.719L389.53 0h124.75v-334.766c0-128.093-77.14-187.609-224.75-187.609-161.437 0-218.578 61.422-236.203 167.14l140.484 12.86c8.563-47.625 30.954-72.86 91.907-72.86 60.953 0 86.656 24.766 86.656 79.516v24.297l-165.703 20c-125.719 15.235-175.25 65.703-175.25 154.75 0 93.813 61.906 150 180 150zm46.672-101.422c-55.719 0-79.047-22.375-79.047-59.531 0-35.234 20-52.375 71.906-59.516l121.422-16.672v35.72c0 57.14-40 100-114.281 100zm0 0"/></symbol><symbol overflow="visible" id="96ccdfbed"><path d="M26.719 1.672c10.187 0 17.031-4.047 20.25-10.89h.656L48.985 0h12.859v-42.203C61.844-57.797 52.625-65 35.234-65 16.547-65 9.531-57.562 7.5-44.766l14.578 1.313c1.203-6.375 4.297-10.063 12.86-10.063 8.578 0 12.265 3.578 12.265 11.485v3.406L26.61-36.078C11.125-34.172 4.766-28.156 4.766-16.781c0 11.422 7.5 18.453 21.953 18.453zm4.406-11.078c-7.844 0-11.063-3.328-11.063-8.516 0-4.937 2.797-7.5 9.875-8.453l17.266-2.438v4.938c0 8.156-5.656 14.469-16.078 14.469zm0 0"/></symbol><symbol overflow="visible" id="96ccdfbee"><path d="M31.422 1.781c10.36 0 16.547-4.75 20.36-12.797h.656L54.172 0H67.14v-63.031H54.17l-1.733 10h-.657c-3.203-7.328-9.703-11.797-19.875-11.797-17.031 0-26.781 12.39-26.781 33.281 0 20.89 9.75 33.328 26.297 33.328zm5-12.25c-10.89 0-16-6.906-16-21.078 0-14.11 5.11-21.015 16-21.015 10.844 0 15.906 7.921 15.906 21.015 0 13.219-5.062 21.078-15.906 21.078zm0 0"/></symbol><symbol overflow="visible" id="96ccdfbef"><path d="M45.781 1.781c16.547 0 26.297-12.437 26.297-33.328 0-20.89-9.75-33.281-26.781-33.281-10 0-16.313 4.469-19.578 11.797h-.657v-36.25h-15V0h12.97l1.671-11.016h.656C29.22-2.969 35.422 1.781 45.781 1.781zm-5-12.25c-10.906 0-15.953-7.86-15.953-21.078 0-13.094 5.047-21.015 15.953-21.015 10.828 0 16 6.906 16 21.015 0 14.172-5.172 21.078-16 21.078zm0 0"/></symbol><symbol overflow="visible" id="96ccdfbeg"><path d="M35.781 1.781c18.688 0 27.188-7.968 28.985-22.797l-14.594-1.312c-1.188 7.797-5.047 11.86-14.094 11.86-10.719 0-15.61-7.5-15.61-20.954 0-13.75 4.829-21.14 15.548-21.14 8.859 0 12.968 4.343 14.047 12.14l14.703-1.297C63.03-56.25 53.984-64.829 35.78-64.829c-19.468 0-30.656 12.329-30.656 33.407 0 21.063 11.188 33.203 30.656 33.203zm0 0"/></symbol><symbol overflow="visible" id="96ccdfbeh"><path d="M31.484 1.781c10.235 0 16.485-4.75 20.297-12.797h.657L54.172 0H67.14v-89.281H52.078v36.25h-.594c-3.265-7.438-9.703-11.797-19.64-11.797-16.907 0-26.719 12.39-26.719 33.281 0 20.89 9.75 33.328 26.36 33.328zm4.703-12.25c-10.53 0-15.765-6.906-15.765-21.078 0-14.11 5.234-21.015 15.765-21.015 11.188 0 16.141 7.796 16.141 21.015 0 13.219-4.953 21.078-16.14 21.078zm0 0"/></symbol><symbol overflow="visible" id="96ccdfbei"><path d="M65.719-27.078v-7.266C65.719-53.75 54.703-65 35.89-65 16.969-65 5.125-53.094 5.125-31.422c0 20.64 10.703 33.203 31.422 33.203 17.328 0 25.36-7.14 28.281-18.625L50.36-18.219c-1.78 5.125-5.718 8.344-13.687 8.344-9.89 0-15.25-5.594-16.25-17.203zm-29.766-26.5c9.828 0 14.516 5.484 15.125 16.25H20.531c1.14-11.125 6.25-16.25 15.422-16.25zm0 0"/></symbol><symbol overflow="visible" id="96ccdfbej"><path d="M39.531-78.578c2.547 0 4.938.25 6.422.61l1.484-11.86c-2.437-.64-6.843-1.25-11.124-1.25-14.172 0-22.032 6.375-22.032 22.266v5.78H3.22v12.079H14.28V0h15.063v-50.953h16.015v-12.078H29.344v-4.172c0-8.219 2.86-11.375 10.187-11.375zm0 0"/></symbol><symbol overflow="visible" id="96ccdfbek"><path d="M36.906 25c21.375 0 30.235-11.313 30.235-31.188V-63.03H54.17l-1.733 11h-.657c-2.734-6.594-8.156-12.797-19.875-12.797-17.375 0-26.781 12.984-26.781 31.797 0 18.75 8.984 31.312 26.484 31.312 11.61 0 16.907-6.312 19.766-11.5h.703V-5c0 11.844-4.156 18.094-15.172 18.094-9.703 0-12.86-3.985-14.281-9.703L7.375 4.875C8.875 17.438 17.797 25 36.906 25zm-.531-38.094c-10.594 0-15.906-6.844-15.906-19.875 0-12.265 5.312-19.765 15.906-19.765 10.766 0 15.953 8.093 15.953 19.765 0 11.485-5.187 19.875-15.953 19.875zm0 0"/></symbol><symbol overflow="visible" id="96ccdfbel"><path d="M10.063 0h15v-34.281c0-10.36 6.656-17.266 15.953-17.266 8.093 0 11.78 4.578 11.78 14.516V0h15v-42.14c0-14.704-7.015-22.688-20.89-22.688-11.187 0-17.14 5.36-21.187 13.11h-.657v-37.563h-15zm0 0"/></symbol><symbol overflow="visible" id="96ccdfbem"><path d="M17.625-72.734c5.594 0 9.406-2.86 9.406-8.75 0-5.844-3.812-8.579-9.406-8.579-5.719 0-9.406 2.735-9.406 8.579 0 5.89 3.687 8.75 9.406 8.75zM10.062 0h15v-63.031h-15zm0 0"/></symbol><symbol overflow="visible" id="96ccdfben"><path d="M18.328-72.734c5.594 0 9.344-2.86 9.344-8.75 0-5.844-3.75-8.579-9.344-8.579-5.703 0-9.453 2.735-9.453 8.579 0 5.89 3.75 8.75 9.453 8.75zM6.016 25c14.453 0 19.937-7.625 19.937-23.453v-64.578h-15V1.016c0 9.156-2.375 12.015-8.75 12.015-1.61 0-3.156-.172-4.531-.406l-1.125 11.063c2.14.718 5.89 1.312 9.469 1.312zm0 0"/></symbol><symbol overflow="visible" id="96ccdfbeo"><path d="M66.313-63.031h-16.97L25.72-37.328h-.657v-51.953h-15V0h15v-28.031h.657L49.937 0h17.688l-29-33.75zm0 0"/></symbol><symbol overflow="visible" id="96ccdfbep"><path d="M10.063 0h15v-89.281h-15zm0 0"/></symbol><symbol overflow="visible" id="96ccdfbeq"><path d="M10.063 0h15v-34.219c0-10.484 6.656-17.328 15.53-17.328 7.563 0 11.126 4.766 11.126 13.984V0H66.78v-34.219c0-10.484 6.61-17.328 15.485-17.328 7.562 0 11.125 4.766 11.125 13.984V0h15.062v-42.14c0-14.344-6.734-22.688-20.484-22.688-11.422 0-17.438 6.14-21.594 14h-.656c-2.203-8.703-8.39-14-19.406-14-10.297 0-16.735 5.25-20.891 13.11h-.656L23.03-63.032H10.063zm0 0"/></symbol><symbol overflow="visible" id="96ccdfber"><path d="M10.063 0h15v-34.219c0-10.484 6.656-17.328 16.062-17.328 8.047 0 11.672 4.766 11.672 13.984V0h15v-42.14c0-14.344-6.719-22.688-20.953-22.688-10.828 0-17.266 5.25-21.422 13.11h-.656L23.03-63.032H10.063zm0 0"/></symbol><symbol overflow="visible" id="96ccdfbes"><path d="M36.719 1.781c20.484 0 31.672-11.953 31.672-33.39 0-21.313-11.188-33.22-31.672-33.22-20.469 0-31.594 11.907-31.594 33.22 0 21.437 11.125 33.39 31.594 33.39zm0-12.14c-11.297 0-16.297-7.204-16.297-21.25 0-13.985 5-21.125 16.297-21.125 11.312 0 16.375 7.14 16.375 21.125 0 14.047-5.063 21.25-16.375 21.25zm0 0"/></symbol><symbol overflow="visible" id="96ccdfbet"><path d="M10.063 23.219h15V-10h.656c3.265 7.328 9.578 11.781 19.578 11.781 17.031 0 26.781-12.375 26.781-33.265 0-20.891-9.75-33.344-26.297-33.344-10.36 0-16.562 4.766-20.422 12.797h-.656l-1.672-11H10.063zM40.78-10.47c-10.906 0-15.953-7.922-15.953-21.015 0-13.282 5.047-21.078 15.953-21.078 10.828 0 16 6.906 16 21.078 0 14.109-5.172 21.015-16 21.015zm0 0"/></symbol><symbol overflow="visible" id="96ccdfbeu"><path d="M52.078 23.219h15.063v-86.25H54.17l-1.733 11h-.657c-3.812-8.032-10-12.797-20.36-12.797-16.546 0-26.296 12.453-26.296 33.344 0 20.89 9.75 33.265 26.781 33.265 10 0 16.313-4.453 19.578-11.781h.594zM36.422-10.47c-10.89 0-16-6.906-16-21.015 0-14.172 5.11-21.078 16-21.078 10.844 0 15.906 7.796 15.906 21.078 0 13.093-5.062 21.015-15.906 21.015zm0 0"/></symbol><symbol overflow="visible" id="96ccdfbev"><path d="M10.063 0h15v-33.328c0-10.781 7.203-17.453 16.718-17.453 2.328 0 4.235.312 5.844.656l1.484-13.984c-1.734-.36-3.984-.72-6.437-.72-8.563 0-13.984 4.36-17.203 13.407h-.64l-1.798-11.61H10.063zm0 0"/></symbol><symbol overflow="visible" id="96ccdfbew"><path d="M32.438 1.906c17.03 0 27.03-7.375 27.03-20.718 0-10.594-6.546-15.11-20.421-18.094l-8.453-1.782c-6.485-1.437-9.407-3.156-9.407-7.687 0-4.938 3.579-7.5 10.891-7.5 7.797 0 11.25 2.797 11.906 9.047l14.594-1.188C57.5-58.984 49.047-65.125 32.031-65.125c-16.5 0-25.484 7.031-25.484 20.125 0 10.719 7.203 15.781 20.062 18.578l8.094 1.719c7.203 1.547 10.125 3.031 10.125 7.86 0 5-4.594 7.671-12.156 7.671-8.86 0-13.031-2.969-14.094-9.64L3.984-17.625C5.125-4.641 13.625 1.906 32.437 1.906zm0 0"/></symbol><symbol overflow="visible" id="96ccdfbex"><path d="M28.156-50.953h18.032v-12.078H28.155v-19.11H15.828l-2.61 19.11H1.485v12.078H13.22v32.437c0 13.453 6.484 20.125 20.703 20.125 4.656 0 9.703-.89 12.75-1.78l-1.5-11.735c-2.078.484-4.516 1.015-7.203 1.015-6.782 0-9.813-2.625-9.813-10.296zm0 0"/></symbol><symbol overflow="visible" id="96ccdfbey"><path d="M29.281 1.781c10.25 0 16.735-5.234 20.89-13.094h.657L52.562 0h12.97v-63.031h-15v34.156c0 10.484-6.657 17.453-15.532 17.453-7.5 0-11.125-4.765-11.125-14.047V-63.03h-15v42.078C8.875-6.61 15.594 1.78 29.281 1.78zm0 0"/></symbol><symbol overflow="visible" id="96ccdfbez"><path d="M23.453 0h18.922l22.984-63.031H49.938l-16.126 48.75h-.593l-16.547-48.75H.297zm0 0"/></symbol><symbol overflow="visible" id="96ccdfbeA"><path d="M20.297 0H39.64l12.922-47.203h.359L65.719 0H85l18.984-63.031H89.47l-12.86 49.515h-.718L62.734-63.03H44.406L31.375-13.516h-.656L17.672-63.03H1.375zm0 0"/></symbol><symbol overflow="visible" id="96ccdfbeB"><path d="M2.203 0h15.531l13.688-22.5h.656L47.031 0h16.782L42.968-31.484l20.718-31.547H48.22l-14.047 22.14h-.547L19.219-63.03H2.437l20.485 30.953zm0 0"/></symbol><symbol overflow="visible" id="96ccdfbeC"><path d="M49.938-63.031L34.406-13.453h-.656L16.672-63.031H.297L23.75 0h6.313c-4.172 9.469-8.22 12.328-15.235 12.328-2.39 0-5.906-.36-8.453-.906L4.828 23.516C7.797 24.344 12.078 25 16.313 25c15.296 0 21.609-9.11 27.14-25L65.36-63.031zm0 0"/></symbol><symbol overflow="visible" id="96ccdfbeD"><path d="M4.766 0h50.359v-12.031H23.156v-.531l32.5-38.985V-63.03H6.546v11.953h30.72v.61l-32.5 38.921zm0 0"/></symbol><symbol overflow="visible" id="96ccdfbeE"><path d="M41.313 1.781c21.656 0 33.812-14.047 33.812-44.047 0-30.062-12.156-44.047-33.813-44.047-21.734 0-33.75 13.985-33.75 44.047 0 30 12.016 44.047 33.75 44.047zm0-12.797c-13.032 0-18.032-9.765-18.032-31.25 0-21.547 5-31.25 18.032-31.25 12.968 0 18.093 9.704 18.093 31.25 0 21.485-5.125 31.25-18.093 31.25zm0 0"/></symbol><symbol overflow="visible" id="96ccdfbeF"><path d="M23.453 0h15v-84.531h-13.39l-21.61 8.578v13.156c6.672-2.266 13.328-4.578 20-6.844zm0 0"/></symbol><symbol overflow="visible" id="96ccdfbeG"><path d="M4.531 0h62.14v-13.031H24.579v-.656l16.438-12.094c13.625-9.938 25-19.875 25-35.407 0-15.234-9.641-25.124-29.641-25.124-21.672 0-29.766 12.921-31.438 29.468l14.938 1.188c1.203-10.719 4.89-18.219 16.375-18.219 9.875 0 14.406 4.766 14.406 13.516 0 10.484-9.11 17.562-22.375 28.75L4.531-12.33zm0 0"/></symbol><symbol overflow="visible" id="96ccdfbeH"><path d="M37.031 1.781c21.125 0 33.14-8.453 33.14-24.343 0-14.641-11.062-19.47-20.171-20.172v-.657c9.047-.953 17.969-8.03 17.86-20.53-.126-14.532-10.954-22.392-30.36-22.392-21.25 0-29.938 10.126-31.672 24.047l14.766 1.188c1.484-8.203 5.953-12.906 16.781-12.906 9.953 0 15.422 3.625 15.422 12.14 0 9.578-6.844 13.266-19.344 13.266h-6.078v11.734h6.5c13.39 0 21.063 2.625 21.063 12.672 0 9-5.594 13.64-17.907 13.64-12.265-.062-17.093-4.343-18.75-12.796L3.516-22.141C4.875-7.203 15.172 1.781 37.03 1.781zm0 0"/></symbol><symbol overflow="visible" id="96ccdfbeI"><path d="M47.031 0h14.813v-17.438h10.89v-12.265h-10.89v-54.828H41.25L1.078-29.11v11.672h45.953zM16.61-29.703v-.656l29.766-41.422h.656v42.078zm0 0"/></symbol><symbol overflow="visible" id="96ccdfbeJ"><path d="M38.453 1.781c20 0 31.781-10.234 31.781-29.281 0-18.688-10.359-28.094-26.906-28.094-10.047 0-16.422 3.75-20.89 8.922h-.657l3.344-24.75h39.406v-13.11h-51.14L7.797-35h12.797c3.75-4.531 10.484-9.281 18.625-9.281 10.422 0 16.375 4.875 16.375 16.906 0 11.484-6.188 17.203-17.266 17.203-9.812 0-15-3.875-17.375-11.734l-14.64 1.375C7.5-6.016 19.405 1.78 38.453 1.78zm0 0"/></symbol><symbol overflow="visible" id="96ccdfbeK"><path d="M41.078 1.781c20.594 0 32.25-11 32.25-29.047 0-17.734-10.766-27.015-27.86-27.015-12.671 0-19.28 5.703-23.265 12.078h-.656c.234-18.875 4.281-31.906 20.172-31.906 10.61 0 14.234 5.125 15.656 11.015l14.703-1.734c-2.61-12.438-11.187-21.484-30.36-21.484-22.015 0-34.156 13.687-34.156 47.093 0 27.735 11.782 41 33.516 41zm.234-11.844c-10.656 0-16.968-6.187-16.968-16.609 0-10.297 7.922-16.719 17.625-16.719 10.656 0 16.953 5.953 16.953 16.72 0 10.952-6.781 16.608-17.61 16.608zm0 0"/></symbol><symbol overflow="visible" id="96ccdfbeL"><path d="M9.406 0H26.25l34.406-72.625v-11.906H1.546v13.11h43.032v.64zm0 0"/></symbol><symbol overflow="visible" id="96ccdfbeM"><path d="M41.125 1.906c22.328 0 34.953-9.047 34.953-24.172 0-13.093-9.703-19.703-18.453-21.547v-.593c7.25-1.844 15.469-7.14 15.469-19.407 0-13.921-11.719-22.609-31.969-22.609-20.172 0-31.906 8.625-31.906 22.61 0 12.14 8.156 17.437 15.36 19.406v.593C16.25-41.968 6.25-35.718 6.25-22.265 6.25-7.14 18.875 1.906 41.125 1.906zm0-51.187c-10.703 0-16.906-4.594-16.906-12.625 0-8.985 6.203-12.625 16.906-12.625 10.719 0 16.969 3.703 16.969 12.625 0 8.031-6.25 12.625-16.969 12.625zm0 39.281c-12.375 0-19.578-4.64-19.578-14.047 0-9.234 7.203-13.812 19.578-13.812 12.328 0 19.656 4.578 19.656 13.812C60.781-14.64 53.453-10 41.125-10zm0 0"/></symbol><symbol overflow="visible" id="96ccdfbeN"><path d="M38.688-86.313c-20.594 0-32.266 11.016-32.266 29.047 0 17.735 10.781 27.032 27.86 27.032 12.687 0 19.296-5.72 23.343-12.094h.656c0 18.156-4.36 31.906-20.187 31.906-10.657 0-14.282-5.11-15.719-11L7.672-19.703C10.297-7.266 18.875 1.78 38.094 1.78c21.968 0 34.172-13.687 34.172-47.078 0-27.734-11.844-41.016-33.579-41.016zm-.235 11.844c10.656 0 16.969 6.188 16.969 16.61 0 10.297-7.86 16.734-17.563 16.734-10.718 0-16.968-5.953-16.968-16.734 0-10.953 6.734-16.61 17.562-16.61zm0 0"/></symbol><symbol overflow="visible" id="96ccdfbeO"><path d="M0-22.281v-4.235l-27.047 10.172v5.219L0-.844v-4.14l-5.86-2.141v-13.063zM-9.063-8.266l-14.671-5.328v-.203l14.672-5.25zm0 0"/></symbol><symbol overflow="visible" id="96ccdfbeP"><path d="M.578-10.438c0-3.156-1.375-5.187-4.047-6.546v-.203L0-17.672v-3.25h-28.578v3.813h11.656v.187c-2.39 1.11-3.765 3.172-3.765 6.375 0 5.438 3.921 8.64 10.625 8.64 6.703 0 10.64-3.155 10.64-8.53zm-3.25-.953c0 3.657-2.437 5.594-7.39 5.594-4.954 0-7.391-1.937-7.391-5.594 0-3.968 2.828-5.796 7.39-5.796 4.579 0 7.391 1.828 7.391 5.796zm0 0"/></symbol><symbol overflow="visible" id="96ccdfbeQ"><path d="M.531-8.64c0-3.329-1.297-5.532-3.547-6.563v-.188L0-15.766v-3.25h-13.64c-4.829 0-7.079 2.828-7.079 8.047 0 5.485 2.313 7.688 6.282 8.297l.296-3.734c-2.171-.375-3.5-1.485-3.5-4.532 0-3.046 1.297-4.374 4.188-4.374h1.187l.844 6.546c.61 4.875 2.438 6.97 6.125 6.97 3.578 0 5.828-2.313 5.828-6.845zm-3.047-.954c0 2.813-1.218 3.922-3.046 3.922-1.75 0-2.704-1-3.047-3.469l-.875-6.171h1.718c2.97 0 5.25 2.015 5.25 5.718zm0 0"/></symbol><symbol overflow="visible" id="96ccdfbeR"><path d="M7.422-3.5v-3.813H-3.203V-7.5C-.797-8.61.578-10.703.578-13.797c0-5.562-3.937-8.719-10.64-8.719-6.704 0-10.626 3.157-10.626 8.532 0 3.171 1.375 5.187 4.047 6.562v.188l-3.468.484v3.25zm-10.094-9.422c0 3.813-2.86 5.688-7.39 5.688-4.563 0-7.391-1.875-7.391-5.688 0-3.797 2.437-5.703 7.39-5.703 4.954 0 7.391 1.906 7.391 5.703zm0 0"/></symbol><symbol overflow="visible" id="96ccdfbeS"><path d="M-16.875-8.344v-6.172h-3.234v6.172h-6.172v3.047l6.172.766v4h3.234v-4h11.016C-1.641-4.531.5-6.547.5-10.86c0-1.375-.266-2.813-.531-3.735l-3.125.39c.14.673.344 1.517.344 2.47 0 2.28-.876 3.39-3.516 3.39zm0 0"/></symbol><symbol overflow="visible" id="96ccdfbeT"><path d="M-8.875-20.422h-2.14c-6.172 0-9.704 3.39-9.704 9.11 0 5.718 3.735 9.406 10.703 9.406 6.547 0 10.594-3.282 10.594-9.672 0-5.14-2.297-7.625-5.766-8.5l-.375 3.765c1.75.61 2.891 1.985 2.891 4.766 0 3.516-2.047 5.406-6.203 5.719zm-8.719 9.11c0-3.47 1.969-5.141 5.86-5.329v10.782c-4-.391-5.86-2.22-5.86-5.454zm0 0"/></symbol><symbol overflow="visible" id="96ccdfbeU"><path d="M0-3.5v-3.813h-11.047c-3.734 0-6.015-2.437-6.015-5.562 0-.797.109-1.406.218-1.906l-3.61-.375a9.045 9.045 0 0 0-.233 2.015c0 2.672 1.265 4.563 4.046 5.72v.187l-3.468.484v3.25zm0 0"/></symbol><symbol overflow="visible" id="96ccdfbeW"><path d="M0-8.844v-4h-23.625v-8.61h-3.422V-.186h3.422v-8.657zm0 0"/></symbol><symbol overflow="visible" id="96ccdfbeX"><path d="M0-.844v-4.031l-7.422-4.797v-.187L0-15.203V-19.5l-9.984 7.047-10.125-7.016v4.047l7.265 4.953v.14l-7.265 5.11v4.297l9.78-6.89zm0 0"/></symbol><symbol overflow="visible" id="96ccdfbeY"><path d="M5.86-17.969h55.734v-3.515H5.859zm0 0"/></symbol><symbol overflow="visible" id="96ccdfbeZ"><path d="M43.125-48.406v-3.657H8.656V0h34.469v-3.672H12.687v-21.187h25.594v-3.516H12.688v-20.031zm0 0"/></symbol><symbol overflow="visible" id="96ccdfbeaa"><path d="M2.563 0h4.484l11.578-16.281h.297L30.656 0h4.688L21.406-19.219l13.578-19.14H30.5L19.36-22.437h-.297L7.624-38.36H2.937l13.641 18.78zm0 0"/></symbol><symbol overflow="visible" id="96ccdfbeab"><path d="M14.234-34.766h13.047v-3.593H14.234v-12.235h-2.937l-1.11 12.235h-8.5v3.593h8.5v24.063c0 7.406 3.235 11.437 11.079 11.437 2.203 0 4.328-.375 6.234-1.03l-.594-3.438c-1.453.437-3.297.796-5.265.796-4.782 0-7.407-1.906-7.407-7.765zm0 0"/></symbol><symbol overflow="visible" id="96ccdfbeac"><path d="M7.484 0h4.032v-20.969c0-8.515 4.984-14.593 11.734-14.593 1.469 0 2.781.218 3.516.437l.515-3.813c-1.031-.296-2.5-.515-4.031-.515-5.938 0-9.75 3.734-11.516 8.062h-.296l-.797-6.968H7.484zm0 0"/></symbol><symbol overflow="visible" id="96ccdfbead"><path d="M17.156 1.094c6.75 0 11.375-3.14 13.797-7.688h.281L31.828 0h3.156v-26.25c0-9.172-4.843-13.203-14.672-13.203C11-39.453 6.454-34.687 5.5-27.86l4.031.437c.875-5.5 3.969-8.515 10.781-8.515 7.188 0 10.704 2.796 10.704 9.828v3.515l-13.782 1.766C8.062-19.656 4.11-16.36 4.11-9.531 4.11-2.5 8.953 1.094 17.156 1.094zm.157-3.516c-6.172 0-9.172-2.484-9.172-7.265 0-4.25 2.5-6.954 9.015-7.844l13.86-1.907v4.485c0 7.469-5.782 12.531-13.703 12.531zm0 0"/></symbol><symbol overflow="visible" id="96ccdfbeae"><path d="M7.484 0h4.032v-55H7.484zm0 0"/></symbol><symbol overflow="visible" id="96ccdfbeaf"><path d="M9.531-45.313c1.766 0 3.078-1.03 3.078-3.156 0-2.125-1.312-3.156-3.078-3.156-1.828 0-3.078 1.031-3.078 3.156s1.25 3.157 3.078 3.157zM7.484 0h4.032v-38.36H7.484zm0 0"/></symbol><symbol overflow="visible" id="96ccdfbeag"><path d="M22.219 15.688c11.14 0 16.422-6.235 16.422-18.547v-35.5H35.5l-.813 6.968h-.296c-1.985-3.734-5.938-8.062-13.125-8.062-10.782 0-16.86 7.484-16.86 19.437 0 12.61 5.5 20.094 16.86 20.094 7.047 0 11.14-4.266 13.047-8.515h.296V-3c0 10.625-3.656 15.031-12.39 15.031-7.703 0-11.14-3.015-11.875-8l-4.11.438c.954 7.125 6.016 11.218 15.985 11.218zM21.187-3.595c-8.28 0-12.609-5.86-12.609-16.422 0-10.047 4.328-15.625 12.61-15.625 8.953 0 13.64 7.11 13.64 15.625 0 8.063-4.906 16.422-13.64 16.422zm0 0"/></symbol><symbol overflow="visible" id="96ccdfbeah"><path d="M7.484 0h4.032v-20.828c0-8.875 5.859-14.735 13.265-14.735 6.453 0 9.61 3.376 9.61 10.704V0h4.03v-25.516c0-9.093-4.765-13.937-12.905-13.937-6.516 0-11.141 3.453-13.703 8.062h-.297V-55H7.484zm0 0"/></symbol><symbol overflow="visible" id="96ccdfbeaj"><path d="M5.281 0h4.032l9.171-52.063h-4.03zm0 0"/></symbol><symbol overflow="visible" id="96ccdfbeak"><path d="M16.797-34.766h13.265l.594-3.593H17.453l2.125-12.235h-2.937l-3.297 12.235H5.063l-.594 3.593h8.218L8.5-10.703C7.266-3.516 9.969.734 18.188.734c2.718 0 4.328-.375 6.015-1.03v-3.438c-1.547.437-3.234.796-5.578.796-5.125 0-7.11-1.906-6.078-7.765zm0 0"/></symbol><symbol overflow="visible" id="96ccdfbeal"><path d="M14.89 1.094c7.11 0 12.016-3.813 14.079-7.688h.14L28.453 0h3.156l4.172-23.906c1.766-10.266-2.343-15.547-12.687-15.547-9.672 0-14 4.25-16.422 11.297l3.969.656c1.968-5.578 4.906-8.438 12.093-8.438 7.032 0 9.61 2.86 9.61 8.079 0 1.093-.297 3.437-.735 5.422L17.234-20.97C7.766-20.016 2.5-16.5 2.5-8.953 2.5-2.5 7.11 1.094 14.89 1.094zm.36-3.438c-5.64 0-8.719-2.344-8.719-6.75 0-5.578 3.657-7.844 10.625-8.578l13.86-1.469-.875 4.907c-1.172 6.468-7.703 11.89-14.891 11.89zm0 0"/></symbol><symbol overflow="visible" id="96ccdfbeam"><path d="M4.11 0h4.03l9.672-55h-4.03zm0 0"/></symbol><symbol overflow="visible" id="96ccdfbean"><path d="M14-45.313c1.984 0 3.594-1.468 3.594-3.75 0-1.53-.953-2.562-2.703-2.562-1.907 0-3.532 1.469-3.532 3.734 0 1.625 1.032 2.578 2.641 2.578zM4.11 0h4.03l6.75-38.36h-4.03zm0 0"/></symbol><symbol overflow="visible" id="96ccdfbeao"><path d="M19 1.094c9.234 0 14.953-4.61 16.938-12.39l-3.813-.657c-2.203 6.234-5.578 9.312-12.766 9.312-9.75 0-12.609-7.187-10.78-16.937 2.062-10.781 7.108-16.14 15.405-16.14 6.672 0 10.328 2.937 10.703 9.312l3.891-.219c-.437-7.922-5.5-12.828-14.234-12.828-10.344 0-17.532 6.812-19.875 19.875C2.344-7.625 7.406 1.094 19 1.094zm0 0"/></symbol><symbol overflow="visible" id="96ccdfbeap"><path d="M13.64-4.656v-47.407H8.39V0h30.985v-4.656zm0 0"/></symbol><symbol overflow="visible" id="96ccdfbeaq"><path d="M9.828-45.25c2.125 0 3.703-1.172 3.703-3.656 0-2.5-1.578-3.64-3.703-3.64-2.203 0-3.703 1.14-3.703 3.64 0 2.484 1.5 3.656 3.703 3.656zM7.218 0h5.141v-38.469H7.22zm0 0"/></symbol><symbol overflow="visible" id="96ccdfbear"><path d="M22.328 15.578c11.547 0 16.875-6.406 16.875-18.547v-35.5h-4.187l-.875 6.86h-.297c-1.907-3.813-5.64-7.953-12.828-7.953-10.86 0-16.875 7.624-16.875 19.5C4.14-7.767 9.64-.188 21.016-.188c7.109 0 10.843-4.22 12.687-8.094h.36v5.234c0 9.75-3.454 14.156-11.735 14.156-7.328 0-10.406-2.937-11.187-7.484l-5.235.516c.953 7.187 6.016 11.437 16.422 11.437zm-.844-20.234c-7.953 0-12.062-5.469-12.062-15.407 0-9.453 4.11-14.875 12.062-14.875 8.438 0 12.766 6.594 12.766 14.876 0 7.859-4.484 15.406-12.766 15.406zm0 0"/></symbol><symbol overflow="visible" id="96ccdfbeas"><path d="M7.219 0h5.14v-21.016c0-8.28 5.454-13.78 12.5-13.78 6.125 0 9.094 3.296 9.094 10.483V0h5.14v-25.703c0-9.094-4.734-13.86-12.906-13.86-6.578 0-10.937 3.297-13.5 7.954h-.328V-55H7.22zm0 0"/></symbol><symbol overflow="visible" id="96ccdfbeat"><path d="M14.844-33.984H27.5v-4.485H14.844v-12.125h-3.922L9.719-38.469h-8.25v4.485h8.25v23.093C9.719-3.266 13.156.813 21.156.813c2.344 0 4.688-.407 6.532-1.032l-.625-4.297c-1.438.375-3.188.735-5.094.735-4.657 0-7.125-1.828-7.125-7.406zm0 0"/></symbol><symbol overflow="visible" id="96ccdfbeav"><path d="M4.984 0h5.25l9.204-52.063h-5.25zm0 0"/></symbol><symbol overflow="visible" id="96ccdfbeaw"><path d="M17.313-33.984H30.14l.765-4.485H18.11l2.094-12.125h-3.89l-3.407 12.125H4.875l-.766 4.485h7.985L8.14-11.187c-1.329 7.624 1.687 12 9.937 12 2.672 0 4.547-.407 6.313-1.032l.109-4.328c-1.516.406-3.422.766-5.61.766-4.78 0-6.609-1.797-5.624-7.406zm0 0"/></symbol><symbol overflow="visible" id="96ccdfbeax"><path d="M14.781 1.063c6.89 0 11.547-3.563 13.485-7.407h.218L27.937 0h4.188l4.14-23.656c1.797-10.328-2.203-15.938-13.015-15.938-9.938 0-14.344 4.14-16.656 11.438l5.031.765c1.766-5.312 4.656-7.875 11.031-7.875 6.782 0 9.14 2.594 9.14 7.516 0 1.203-.296 3.219-.702 5.125l-13.969 1.39C7.594-20.28 2.312-16.827 2.312-9.171c0 6.39 4.547 10.235 12.47 10.235zm.797-4.25c-5.203 0-8.062-2.172-8.062-6.313 0-5.094 3.453-7.11 9.75-7.766l13.125-1.39-.797 4.312c-1.14 6.281-7.188 11.156-14.016 11.156zm0 0"/></symbol><symbol overflow="visible" id="96ccdfbeay"><path d="M3.844 0h5.14l9.672-55h-5.125zm0 0"/></symbol><symbol overflow="visible" id="96ccdfbeaz"><path d="M14.266-45.25c2.484 0 4.328-1.64 4.328-4.281 0-1.844-1.172-3.016-3.235-3.016-2.421 0-4.218 1.656-4.218 4.25 0 1.906 1.218 3.047 3.125 3.047zM3.844 0h5.14l6.782-38.469H10.64zm0 0"/></symbol><symbol overflow="visible" id="96ccdfbeaA"><path d="M19.172 1.094c9.469 0 15.265-4.547 17.281-12.61L31.5-12.25c-2.063 5.875-5.14 8.766-11.922 8.766-9.172 0-11.844-6.782-10.156-16.063 1.906-10.265 6.64-15.469 14.515-15.469 6.391 0 9.61 2.938 10.016 8.875l5.031-.297c-.484-7.953-5.437-13.125-14.593-13.125-10.641 0-17.828 6.97-20.141 19.797C2.094-7.594 7.297 1.094 19.172 1.094zm0 0"/></symbol><symbol overflow="visible" id="96ccdfbeaB"><path d="M47.453 0L30.656-22.188c11.14-.109 16.532-5.421 16.532-14.703 0-9.937-5.641-15.172-17.485-15.172H8.11V0h6.485v-21.89h8.984L39.938 0zm-32.86-27.172v-19.39h13.938c8.875 0 12.39 2.53 12.39 9.671 0 7-3.562 9.72-12.577 9.72zm0 0"/></symbol><symbol overflow="visible" id="96ccdfbeaC"><path d="M38.938-17.344v-3.515c0-12.11-6.485-18.891-17.266-18.891-10.75 0-17.75 7.188-17.75 20.578 0 12.828 6.531 20.266 18.265 20.266 9.782 0 14.407-4.5 16.063-10.89l-6.172-.579C30.844-6.781 28.125-4.25 22.11-4.25c-7.218 0-11.328-4.328-11.812-13.094zM21.672-34.547c7.031 0 10.781 4.11 11.11 12.406H10.374c.703-8.468 4.625-12.406 11.297-12.406zm0 0"/></symbol><symbol overflow="visible" id="96ccdfbeaD"><path d="M22.406 15.516c11.985 0 17.297-6.641 17.297-18.625v-35.5H34.5l-.875 6.78h-.375c-1.828-3.89-5.266-7.874-12.531-7.874-10.922 0-16.797 7.844-16.797 19.578 0 11.984 5.5 19.719 16.797 19.719 7.265 0 10.625-4.219 12.39-7.735h.375v5.032c0 8.937-3.156 13.265-11.078 13.265-6.968 0-9.61-2.781-10.453-6.969l-6.344.657c.875 7.265 6.016 11.672 16.797 11.672zm-.625-21.203c-7.593 0-11.484-5.094-11.484-14.438 0-8.875 3.89-14.156 11.484-14.156 7.922 0 11.875 6.156 11.875 14.156 0 7.688-4.031 14.438-11.875 14.438zm0 0"/></symbol><symbol overflow="visible" id="96ccdfbeaE"><path d="M18.844 1.094c6.265 0 10.375-3.297 12.953-7.875h.328L33.031 0h5.219v-38.61h-6.234v21.126c0 7.765-5.063 12.968-11.407 12.968-5.39 0-8.109-3.296-8.109-10.046V-38.61H6.266v25.89c0 8.938 4.515 13.813 12.578 13.813zm0 0"/></symbol><symbol overflow="visible" id="96ccdfbeaF"><path d="M7 0h6.234v-55H7zm0 0"/></symbol><symbol overflow="visible" id="96ccdfbeaG"><path d="M16.828 1.063c6.485 0 10.86-2.72 12.985-7.11h.359L30.844 0h5.203v-26.25c0-9.281-5.203-13.5-15.188-13.5-10.156 0-14.515 4.594-15.609 11.922l6.156.547c.766-4.625 3.219-7.328 9.39-7.328 6.298 0 9.204 2.593 9.204 8.656v2.672l-13.016 1.687C7.656-20.422 3.672-16.984 3.672-9.969c0 6.922 4.578 11.031 13.156 11.031zm1.25-5.094c-5.64 0-8.062-2.39-8.062-6.344 0-3.672 2.078-5.797 7.437-6.531L30-18.656v3.703c0 6.297-4.516 10.922-11.922 10.922zm0 0"/></symbol><symbol overflow="visible" id="96ccdfbeaH"><path d="M7 0h6.234v-21.156c0-7.625 4.766-12.61 11.032-12.61 1.515 0 2.75.22 3.64.438l.657-5.906a17.347 17.347 0 0 0-3.954-.47c-5.39 0-9.093 2.86-11.156 7.876h-.36l-.89-6.781H7zm0 0"/></symbol><symbol overflow="visible" id="96ccdfbeaJ"><path d="M4.688 0h6.5l9.203-52.063h-6.5zm0 0"/></symbol><symbol overflow="visible" id="96ccdfbeaK"><path d="M17.813-33.25h12.406l.906-5.36h-12.36l2.094-11.984h-4.906L12.47-38.609H4.656l-.922 5.359h7.782l-3.75 21.547C6.375-3.625 9.687.875 17.937.875c2.672 0 4.829-.469 6.594-1.016l.25-5.218c-1.422.406-3.625.78-5.61.78-4.39 0-6.077-1.734-5.171-7.124zm0 0"/></symbol><symbol overflow="visible" id="96ccdfbeaL"><path d="M14.703 1.063c6.672 0 11.031-3.329 12.906-7.11h.297L27.422 0h5.219l4.14-23.438c1.797-10.328-2.125-16.312-13.39-16.312-10.157 0-14.625 4-16.86 11.594l6.047.843c1.531-5.03 4.438-7.296 10.016-7.296 6.484 0 8.687 2.312 8.687 6.922 0 1.359-.297 3.015-.703 4.843l-13.531 1.328c-9.61.953-14.89 4.313-14.89 12.125 0 6.313 4.484 10.454 12.546 10.454zM15.953-4C11.11-4 8.47-6.016 8.47-9.938c0-4.578 3.234-6.374 8.875-6.968l12.39-1.25-.656 3.672C27.938-8.36 22.406-4 15.953-4zm0 0"/></symbol><symbol overflow="visible" id="96ccdfbeaM"><path d="M3.563 0h6.234l9.75-55h-6.235zm0 0"/></symbol><symbol overflow="visible" id="96ccdfbeaN"><path d="M14.563-45.172c3 0 4.984-1.875 4.984-4.812 0-2.188-1.39-3.516-3.672-3.516-2.938 0-4.953 1.875-4.953 4.844 0 2.125 1.36 3.484 3.64 3.484zM3.563 0h6.234l6.844-38.61h-6.235zm0 0"/></symbol><symbol overflow="visible" id="96ccdfbeaO"><path d="M19.328 1.094c9.75 0 15.547-4.469 17.625-12.828l-6.11-.813c-1.843 5.5-4.702 8.25-11.046 8.25-8.578 0-11.11-6.406-9.5-15.172 1.765-9.828 6.125-14.812 13.64-14.812 6.094 0 8.875 2.86 9.282 8.36l6.203-.298c-.563-8.031-5.36-13.484-15.031-13.484-10.938 0-18.125 7.11-20.36 19.797-2.156 12.39 3.125 21 15.297 21zm0 0"/></symbol><symbol overflow="visible" id="96ccdfbeaP"><path d="M7.844 0h6.968v-43.86h.516L32.266 0h7.703l16.937-43.86h.516V0h7.547v-52.063H52.875L36.735-9.172h-.36l-16.36-42.89H7.845zm0 0"/></symbol><symbol overflow="visible" id="96ccdfbeaQ"><path d="M39.313-17.094v-4.093c0-11.891-6.532-18.704-17.532-18.704s-18.11 7.188-18.11 20.61c0 12.61 6.298 20.375 18.626 20.375 9.89 0 14.656-4.39 16.344-11.063l-7.25-.734c-1.172 3.375-3.813 5.562-9.172 5.562-6.75 0-10.407-3.953-11-11.953zM21.78-33.875c6.672 0 9.907 3.813 10.266 11.281h-20.75c.734-7.687 4.25-11.281 10.484-11.281zm0 0"/></symbol><symbol overflow="visible" id="96ccdfbeaR"><path d="M20.094 1.094c6.093 0 9.968-2.64 12.61-7.766h.374L34.031 0h6.235v-55h-7.344v22.438h-.36c-2.124-4.626-6.093-7.25-12.25-7.25-10.484 0-16.64 7.546-16.64 20.453 0 12.906 6.078 20.453 16.422 20.453zm1.828-6.235c-7.031 0-10.781-4.687-10.781-14.218 0-9.532 3.75-14.235 10.78-14.235 7.626 0 11.157 5.438 11.157 14.235S29.547-5.141 21.922-5.141zm0 0"/></symbol><symbol overflow="visible" id="96ccdfbeaS"><path d="M10.406-45.094c2.86 0 4.922-1.468 4.922-4.703 0-3.219-2.062-4.61-4.922-4.61-2.922 0-4.906 1.391-4.906 4.61 0 3.234 1.984 4.703 4.906 4.703zM6.75 0h7.328v-38.719H6.75zm0 0"/></symbol><symbol overflow="visible" id="96ccdfbeaT"><path d="M18.625 1.094c6.156 0 10.188-3.14 12.766-7.766h.359L32.703 0h6.234v-38.719H31.61v21.266c0 7.187-4.547 12.031-10.64 12.031-5.063 0-7.625-3.234-7.625-9.61v-23.687H6.016v26.11c0 8.796 4.39 13.703 12.609 13.703zm0 0"/></symbol><symbol overflow="visible" id="96ccdfbeaU"><path d="M6.75 0h7.328v-21.266c0-7.187 4.547-11.953 10.64-11.953 5.048 0 7.626 3.219 7.626 9.532V0h7.328v-21.266c0-7.187 4.547-11.953 10.64-11.953 5.047 0 7.626 3.219 7.626 9.532V0h7.328v-26.11c0-8.796-4.407-13.703-12.61-13.703-6.89 0-10.703 3.876-13.281 8.5h-.36c-1.39-5.359-5.359-8.5-11.953-8.5-6.156 0-10.203 3.141-12.765 7.766h-.36l-.953-6.672H6.75zm0 0"/></symbol><symbol overflow="visible" id="96ccdfbeaW"><path d="M4.406 0h7.688l9.25-52.063H13.64zm0 0"/></symbol><symbol overflow="visible" id="96ccdfbeaX"><path d="M18.328-32.484h11.953l1.11-6.235H19.438l2.046-11.875h-5.859l-3.594 11.875H4.47l-1.094 6.235h7.547L7.406-12.172C5.938-3.672 9.531.953 17.813.953c2.64 0 5.062-.515 6.906-1.031l.36-6.078c-1.392.36-3.813.734-5.642.734-4.03 0-5.578-1.625-4.703-6.75zm0 0"/></symbol><symbol overflow="visible" id="96ccdfbeaY"><path d="M14.594 1.031c6.453 0 10.562-3.078 12.312-6.828h.375L26.906 0h6.235l4.109-23.172c1.844-10.422-1.984-16.719-13.703-16.719C13.125-39.89 8.578-36 6.453-28.156l7.11.953c1.328-4.766 4.187-6.75 8.953-6.75 6.234 0 8.218 2.047 8.218 6.375 0 1.469-.297 2.797-.672 4.547l-13.125 1.25c-9.671.953-14.953 4.25-14.953 12.172 0 6.234 4.391 10.64 12.61 10.64zm1.687-5.875c-4.406 0-6.828-1.828-6.828-5.5 0-4.11 3.016-5.64 8-6.156l11.656-1.172-.578 3.078c-1.11 5.938-6.172 9.75-12.25 9.75zm0 0"/></symbol><symbol overflow="visible" id="96ccdfbeaZ"><path d="M3.297 0h7.344l9.75-55h-7.344zm0 0"/></symbol><symbol overflow="visible" id="96ccdfbeba"><path d="M14.813-45.094c3.515 0 5.718-2.062 5.718-5.36 0-2.5-1.61-3.952-4.172-3.952-3.453 0-5.656 2.047-5.656 5.343 0 2.422 1.547 3.97 4.11 3.97zM3.296 0h7.344l6.89-38.719h-7.343zm0 0"/></symbol><symbol overflow="visible" id="96ccdfbebb"><path d="M19.5 1.094c9.984 0 15.844-4.39 17.969-13.047l-7.25-.875c-1.688 5.125-4.266 7.687-10.203 7.687-7.985 0-10.328-6-8.875-14.296 1.625-9.313 5.656-14.157 12.765-14.157 5.797 0 8.14 2.86 8.578 7.922l7.328-.36c-.578-8.062-5.265-13.78-15.39-13.78-11.219 0-18.406 7.25-20.61 19.718C1.61-7.484 7.047 1.094 19.5 1.094zm0 0"/></symbol><symbol overflow="visible" id="96ccdfbebc"><path d="M25 1.094c13.281 0 20.61-6.047 20.61-15.719 0-8.688-4.797-13.094-15.844-15.031l-6.735-1.188c-6.562-1.093-9.093-3.297-9.093-7.656 0-4.656 3.812-7.078 10.406-7.078 7.703 0 10.672 2.234 11.734 8.36l9.281-.735c-1.14-10.297-7.562-15.219-20.968-15.219-12.766 0-19.922 5.61-19.922 15.328 0 8.438 5.14 13.203 15.484 15.14l6.953 1.25c6.64 1.25 9.282 2.938 9.282 7.376 0 4.547-4.032 7.594-10.922 7.594-8.36 0-11.813-2.688-12.953-8.407l-9.344.813C3.813-3.953 10.672 1.094 25 1.094zm0 0"/></symbol><symbol overflow="visible" id="96ccdfbebd"><path d="M40.484-16.688v-4.468c0-11.953-6.78-18.89-18.375-18.89-11.656 0-18.953 7.343-18.953 20.687 0 12.718 6.594 20.453 19.36 20.453 10.672 0 15.625-4.39 17.422-11.469l-8.922-.844c-1.094 3.156-3.516 5.125-8.422 5.125-6.094 0-9.39-3.437-10.016-10.593zM22.141-33c6.062 0 8.953 3.375 9.312 10.016H12.656C13.344-29.844 16.5-33 22.141-33zm0 0"/></symbol><symbol overflow="visible" id="96ccdfbebe"><path d="M6.203 0h9.235v-21.078c0-6.453 4.109-10.672 9.562-10.672 4.656 0 6.86 2.938 6.86 8.61V0h9.28v-21.078c0-6.453 4.063-10.672 9.532-10.672 4.656 0 6.86 2.938 6.86 8.61V0h9.28v-25.953c0-8.844-4.156-13.985-12.624-13.985-7.032 0-10.735 3.782-13.297 8.626h-.407c-1.359-5.36-5.172-8.625-11.953-8.625-6.343 0-10.312 3.234-12.875 8.078h-.406l-1.063-6.97H6.204zm0 0"/></symbol><symbol overflow="visible" id="96ccdfbebf"><path d="M10.86-44.813c3.437 0 5.78-1.75 5.78-5.39 0-3.594-2.343-5.281-5.78-5.281-3.532 0-5.797 1.687-5.797 5.28 0 3.642 2.265 5.392 5.796 5.392zM6.202 0h9.235v-38.828H6.203zm0 0"/></symbol><symbol overflow="visible" id="96ccdfbebg"><path d="M28.203 1.094c10.188 0 16.203-7.657 16.203-20.532 0-12.859-6.015-20.5-16.5-20.5-6.156 0-10.047 2.75-12.062 7.266h-.406V-55H6.203V0h7.984l1.032-6.781h.406C18-1.828 21.813 1.094 28.203 1.094zM25.11-6.453c-6.703 0-9.812-4.844-9.812-12.985 0-8.062 3.11-12.937 9.812-12.937 6.688 0 9.875 4.25 9.875 12.938 0 8.734-3.187 12.984-9.875 12.984zm0 0"/></symbol><symbol overflow="visible" id="96ccdfbebh"><path d="M22.625 1.094c12.61 0 19.5-7.36 19.5-20.563 0-13.125-6.89-20.468-19.5-20.468S3.156-32.594 3.156-19.47c0 13.203 6.86 20.563 19.469 20.563zm0-7.469c-6.969 0-10.047-4.438-10.047-13.094 0-8.625 3.078-13.015 10.047-13.015 6.969 0 10.078 4.39 10.078 13.015 0 8.657-3.11 13.094-10.078 13.094zm0 0"/></symbol><symbol overflow="visible" id="96ccdfbebi"><path d="M6.203 0h9.235v-55H6.203zm0 0"/></symbol><symbol overflow="visible" id="96ccdfbebj"><path d="M19.39 1.094c6.313 0 10.157-2.922 12.516-7.875h.39L33.36 0h8v-55h-9.28v22.328h-.36c-2.016-4.578-5.985-7.266-12.11-7.266-10.406 0-16.453 7.641-16.453 20.5 0 12.875 6.016 20.532 16.235 20.532zm2.907-7.547c-6.5 0-9.719-4.25-9.719-12.985 0-8.687 3.219-12.937 9.719-12.937 6.89 0 9.937 4.797 9.937 12.938 0 8.14-3.047 12.984-9.937 12.984zm0 0"/></symbol><symbol overflow="visible" id="96ccdfbebS"><path d="M5.5-15.469h59.219v-7.453H5.5zm0 0"/></symbol><symbol overflow="visible" id="96ccdfbebl"><path d="M3.781 0H13.5l9.234-52.063h-9.718zm0 0"/></symbol><symbol overflow="visible" id="96ccdfbebm"><path d="M19.438-31.39h11.14l1.328-7.438H20.72l2.047-11.766h-7.547l-3.703 11.766h-7.11l-1.36 7.437h7.142l-3.22 18.563C5.392-3.703 8.907.984 17.86.984c2.86 0 5.578-.546 7.516-1.093l.36-7.266c-1.313.328-3.438.672-5.094.672-3.782 0-5.282-1.547-4.47-6.344zm0 0"/></symbol><symbol overflow="visible" id="96ccdfbebn"><path d="M14.297 1.031c6.86 0 10.484-3.156 12.281-6.718h.406L26.797 0h7.86l3.984-22.703c1.984-11.063-2.266-17.344-14.594-17.344-11.36 0-15.938 4-18.25 12.14l8.906 1.141c1.172-4.328 3.594-6.203 8.172-6.203 5.61 0 7.406 1.875 7.406 5.719 0 1.297-.281 2.469-.578 3.969l-13.015 1.203C6.671-21.125 1.5-17.594 1.5-9.797c0 6.5 4.516 10.828 12.797 10.828zm2.828-6.828c-4.11 0-6.234-1.687-6.234-4.953 0-3.594 2.64-4.906 7.187-5.39l10.563-1.094-.516 2.64c-1.031 5.531-5.422 8.797-11 8.797zm0 0"/></symbol><symbol overflow="visible" id="96ccdfbebo"><path d="M2.75 0h9.234l9.766-55h-9.281zm0 0"/></symbol><symbol overflow="visible" id="96ccdfbebp"><path d="M15.14-44.813c4.032 0 6.672-2.296 6.672-6.124 0-2.86-1.906-4.547-4.953-4.547-3.984 0-6.625 2.28-6.625 6.125 0 2.75 1.829 4.547 4.907 4.547zM2.75 0h9.234l6.907-38.828H9.64zm0 0"/></symbol><symbol overflow="visible" id="96ccdfbebq"><path d="M19.766 1.094c10.968 0 16.797-4.766 18.922-13.703l-8.922-1.141c-1.563 4.797-3.813 7.297-9.344 7.297-7.188 0-9.203-5.5-7.875-13.016 1.5-8.547 5.015-12.906 11.469-12.906 5.39 0 7.437 2.672 7.78 7.484l8.938-.484c-.406-8.438-5.125-14.563-16.062-14.563-11.578 0-19.14 7.079-21.375 19.626C1.03-7.329 6.78 1.093 19.766 1.093zm0 0"/></symbol><symbol overflow="visible" id="96ccdfbebr"><path d="M41.14-25.953v-.453c5.86-1.532 8.688-5.313 8.688-12.39 0-8.095-5.094-13.267-17.562-13.267H6.594V0h26.265c12.61 0 18.25-5.172 18.25-13.64 0-7.626-3.437-11.032-9.968-12.313zm-10.484-17.39c5.39 0 7.844 1.687 7.844 6.609 0 4.468-2.453 6.672-7.844 6.672H18v-13.282zm.735 34.609H18V-22h13.39c5.641 0 8.422 1.875 8.422 6.64 0 5.016-2.78 6.626-8.421 6.626zm0 0"/></symbol><symbol overflow="visible" id="96ccdfbebs"><path d="M22.922 1.094c13.265 0 20.344-7.438 20.344-20.594 0-13.14-7.078-20.578-20.344-20.578-13.203 0-20.313 7.437-20.313 20.578 0 13.156 7.11 20.594 20.313 20.594zm0-8.688C16.609-7.594 14-11.547 14-19.5c0-7.969 2.61-11.89 8.922-11.89 6.375 0 8.984 3.921 8.984 11.89 0 7.953-2.61 11.906-8.984 11.906zm0 0"/></symbol><symbol overflow="visible" id="96ccdfbebt"><path d="M5.61 0h11.218v-55H5.61zm0 0"/></symbol><symbol overflow="visible" id="96ccdfbebu"><path d="M18.734 1.094c6.5 0 10.266-3.219 12.391-7.985h.438L32.703 0h9.75v-55H31.281v22.188h-.437C28.969-37.36 25-40.078 18.922-40.078c-10.375 0-16.313 7.734-16.313 20.531 0 12.875 5.938 20.64 16.125 20.64zm3.891-8.86C16.719-7.766 14-11.625 14-19.5c0-7.86 2.719-11.703 8.625-11.703 6.188 0 8.797 4.25 8.797 11.703 0 7.516-2.61 11.734-8.797 11.734zm0 0"/></symbol><symbol overflow="visible" id="96ccdfbebw"><path d="M3.156 0h11.766l9.203-52.063H12.359zm0 0"/></symbol><symbol overflow="visible" id="96ccdfbebx"><path d="M20.5-30.281h10.375l1.578-8.703H22.031l2.016-11.61h-9.235l-3.843 11.61H4.297L2.75-30.281h6.703L6.531-13.5C4.844-3.781 8.281 1.031 17.938 1.031c3.03 0 6.046-.593 8.062-1.218l.36-8.391c-1.25.297-3 .547-4.5.547-3.532 0-5-1.422-4.22-5.906zm0 0"/></symbol><symbol overflow="visible" id="96ccdfbeby"><path d="M14.047.984c7.219 0 10.406-3.187 12.203-6.562h.438V0h9.468l3.922-22.188c2.047-11.796-2.61-18.03-15.516-18.03-12.312 0-16.968 4.109-19.39 12.53l10.672 1.329c1.062-3.813 3-5.61 7.406-5.61 5.016 0 6.563 1.688 6.563 5.016 0 1.172-.22 2.172-.485 3.406l-12.86 1.188C6.048-21.406.985-17.703.985-9.97.984-3.234 5.641.984 14.047.984zm3.922-7.765c-3.813 0-5.61-1.5-5.61-4.328 0-3.079 2.235-4.25 6.344-4.688l9.422-1-.406 2.203c-.922 5.172-4.688 7.813-9.75 7.813zm0 0"/></symbol><symbol overflow="visible" id="96ccdfbebz"><path d="M2.156 0h11.235l9.703-55H11.875zm0 0"/></symbol><symbol overflow="visible" id="96ccdfbebA"><path d="M15.438-44.547c4.624 0 7.703-2.531 7.703-6.89 0-3.157-2.235-5.11-5.766-5.11-4.547 0-7.625 2.531-7.625 6.906 0 3.11 2.125 5.094 5.688 5.094zM2.155 0h11.235l6.89-38.984H9.063zm0 0"/></symbol><symbol overflow="visible" id="96ccdfbebB"><path d="M20.016 1.094c11.922 0 17.718-5.125 19.843-14.36l-10.53-1.406c-1.423 4.485-3.407 6.906-8.5 6.906-6.423 0-8.063-5-6.86-11.734 1.328-7.781 4.328-11.703 10.156-11.703 4.984 0 6.719 2.531 6.969 7.047l10.593-.563c-.296-8.797-5.015-15.36-16.796-15.36-11.907 0-19.875 6.938-22.11 19.548C.406-7.156 6.562 1.094 20.016 1.094zm0 0"/></symbol><symbol overflow="visible" id="96ccdfbebC"><path d="M46.75-40.813v-11.25H5.86V0h40.89v-11.25H19.766v-9.797h21.922v-9.969H19.765v-9.797zm0 0"/></symbol><symbol overflow="visible" id="96ccdfbebD"><path d="M.844 0h13.422l6.703-12.938h.515L28.344 0h14.89L31.97-19.766l11.11-19.359H29.624l-6.594 12.906h-.437l-6.75-12.906H.984l11.11 19.656zm0 0"/></symbol><symbol overflow="visible" id="96ccdfbebE"><path d="M20.094-28.938h9.453v-10.187h-9.453v-11.469H8.844L6.859-39.125H.703v10.188H6.86v17.234c0 8.656 4.172 12.765 14.047 12.765 3.297 0 7.219-.625 9.266-1.312l-1.313-9.766c-1.14.22-2.422.407-3.672.407-3.734 0-5.093-1.313-5.093-5.391zm0 0"/></symbol><symbol overflow="visible" id="96ccdfbebF"><path d="M4.953 0h13.531v-18.953c0-5.469 3.844-8.844 9.375-8.844 1.22 0 2.36.11 3.453.328l1.329-12.234a17.026 17.026 0 0 0-4.188-.516c-5.64 0-8.25 3.328-9.719 9.313h-.468l-1.407-8.219H4.953zm0 0"/></symbol><symbol overflow="visible" id="96ccdfbebG"><path d="M16.094 1.031c5.984 0 10.125-2.5 12.11-6.5h.468L29.812 0H41.36v-25.484c0-10.188-6.203-14.922-18.375-14.922-13.562 0-18.03 4.875-19.468 13.265L16.5-25.844c.594-3.343 2.047-4.953 6.047-4.953 4.031 0 5.656 1.578 5.656 4.985v1.656l-12.844 1.5C5.5-21.563 1.83-17.422 1.83-10.703 1.828-3.297 6.75 1.03 16.093 1.03zm4.625-8.953c-3.625 0-5.25-1.39-5.25-3.844 0-2.312 1.36-3.296 4.875-3.78l7.86-1.095v2.453c0 3.594-2.61 6.266-7.485 6.266zm0 0"/></symbol><symbol overflow="visible" id="96ccdfbebH"><path d="M30.953 1.094c9.89 0 15.828-7.875 15.828-20.672 0-12.875-5.937-20.64-15.906-20.64-6.61 0-10.266 2.968-11.922 7.25h-.469V-55H4.954V0h11.905l1.25-7h.485c1.797 4.5 5.422 8.094 12.36 8.094zM25.625-9.344c-5.234 0-7.297-3.531-7.297-10.234 0-6.64 2.063-10.188 7.297-10.188 5.328 0 7.406 3.36 7.406 10.188 0 6.89-2.078 10.234-7.406 10.234zm0 0"/></symbol><symbol overflow="visible" id="96ccdfbebI"><path d="M23.313 1.094c13.984 0 21.343-7.516 21.343-20.64 0-13.126-7.36-20.673-21.343-20.673-14 0-21.329 7.547-21.329 20.672s7.329 20.64 21.328 20.64zm0-10.156c-5.61 0-7.625-3.407-7.625-10.485 0-7.11 2.015-10.484 7.624-10.484 5.579 0 7.594 3.375 7.594 10.484 0 7.078-2.015 10.485-7.593 10.485zm0 0"/></symbol><symbol overflow="visible" id="96ccdfbebJ"><path d="M4.953 0h13.531v-55H4.954zm0 0"/></symbol><symbol overflow="visible" id="96ccdfbebK"><path d="M17.89 1.094C24.673 1.094 28.376-2.5 30.173-7h.484l1.25 7h11.907v-55H30.28v22.031h-.468c-1.72-4.5-5.688-7.25-11.735-7.25-10.265 0-16.094 7.844-16.094 20.563 0 12.875 5.86 20.75 15.907 20.75zm5.172-10.438c-5.25 0-7.375-3.344-7.375-10.234 0-6.828 2.126-10.188 7.376-10.188 5.312 0 7.375 3.516 7.375 10.188 0 6.703-2.063 10.234-7.375 10.234zm0 0"/></symbol><symbol overflow="visible" id="96ccdfbebM"><path d="M2.422 0h14.187l9.172-52.063H11.625zm0 0"/></symbol><symbol overflow="visible" id="96ccdfbebN"><path d="M21.813-28.938h9.421l1.844-10.187H23.61l1.985-11.469h-11.25l-4 11.469H4.188L2.343-28.937h6.234l-2.562 14.64C4.187-3.844 7.546 1.063 18 1.063c3.297 0 6.64-.625 8.797-1.313l.375-9.797c-1.172.25-2.563.438-3.86.438-3.25 0-4.687-1.313-3.953-5.391zm0 0"/></symbol><symbol overflow="visible" id="96ccdfbebO"><path d="M13.672.953c7.703 0 10.344-3.219 12.172-6.422h.484L26.578 0h11.328l3.86-21.594c2.203-12.61-2.938-18.812-16.61-18.812C11.734-40.406 7-36.188 4.36-27.391l12.875 1.547c.844-3.265 2.266-4.953 6.453-4.953 4.297 0 5.579 1.5 5.579 4.25 0 .953-.188 1.766-.375 2.672l-12.72 1.14C5.36-21.78.407-17.812.407-10.155c0 7 4.797 11.11 13.266 11.11zM19-7.922c-3.453 0-4.922-1.36-4.922-3.672 0-2.453 1.766-3.36 5.36-3.765l8.093-.922-.281 1.687c-.844 4.688-3.813 6.672-8.25 6.672zm0 0"/></symbol><symbol overflow="visible" id="96ccdfbebP"><path d="M1.5 0h13.531l9.688-55H11.187zm0 0"/></symbol><symbol overflow="visible" id="96ccdfbebQ"><path d="M15.844-44.188c5.234 0 8.875-2.859 8.875-7.843 0-3.563-2.64-5.828-6.75-5.828-5.172 0-8.766 2.859-8.766 7.843 0 3.563 2.5 5.828 6.64 5.828zM1.5 0h13.531l6.89-39.125H8.392zm0 0"/></symbol><symbol overflow="visible" id="96ccdfbebR"><path d="M20.344 1.094c13.062 0 18.812-5.563 20.937-15.172l-12.468-1.688c-1.313 4.063-2.922 6.422-7.516 6.422-5.453 0-6.672-4.406-5.64-10.203 1.14-6.86 3.562-10.219 8.577-10.219 4.516 0 5.907 2.297 6.016 6.516l12.547-.656c-.078-9.235-4.89-16.313-17.61-16.313-12.312 0-20.75 6.703-22.984 19.39-2.5 13.86 4.063 21.923 18.14 21.923zm0 0"/></symbol><clipPath id="a"><path d="M0 0h1080v1080H0zm0 0"/></clipPath><linearGradient id="b" gradientUnits="userSpaceOnUse" x1="-0.0574265" y1="0" x2="1.010642" y2="0" gradientTransform="scale(1429.7485) rotate(43.9 -.045 .065)"><stop offset="0" stop-color="#ff6d00"/><stop offset="0.03125" stop-color="#ff6d00"/><stop offset="0.046875" stop-color="#ff6d00"/><stop offset="0.0546875" stop-color="#ff6d00"/><stop offset="0.0585937" stop-color="#ff6c01"/><stop offset="0.0625" stop-color="#ff6c01"/><stop offset="0.0664062" stop-color="#ff6c02"/><stop offset="0.0703125" stop-color="#ff6b02"/><stop offset="0.0742187" stop-color="#ff6b03"/><stop offset="0.078125" stop-color="#ff6a04"/><stop offset="0.0820312" stop-color="#ff6a04"/><stop offset="0.0859375" stop-color="#ff6905"/><stop offset="0.0898437" stop-color="#ff6905"/><stop offset="0.09375" stop-color="#ff6806"/><stop offset="0.0976562" stop-color="#ff6806"/><stop offset="0.101562" stop-color="#ff6707"/><stop offset="0.105469" stop-color="#ff6708"/><stop offset="0.109375" stop-color="#ff6608"/><stop offset="0.113281" stop-color="#ff6609"/><stop offset="0.117188" stop-color="#ff6609"/><stop offset="0.121094" stop-color="#ff650a"/><stop offset="0.125" stop-color="#ff650a"/><stop offset="0.128906" stop-color="#ff640b"/><stop offset="0.132812" stop-color="#ff640c"/><stop offset="0.136719" stop-color="#ff630c"/><stop offset="0.140625" stop-color="#ff630d"/><stop offset="0.144531" stop-color="#ff620d"/><stop offset="0.148437" stop-color="#ff620e"/><stop offset="0.152344" stop-color="#ff610e"/><stop offset="0.15625" stop-color="#ff610f"/><stop offset="0.160156" stop-color="#ff6010"/><stop offset="0.164062" stop-color="#ff6010"/><stop offset="0.167969" stop-color="#ff6011"/><stop offset="0.171875" stop-color="#ff5f11"/><stop offset="0.175781" stop-color="#ff5f12"/><stop offset="0.179687" stop-color="#ff5e12"/><stop offset="0.183594" stop-color="#ff5e13"/><stop offset="0.1875" stop-color="#ff5d14"/><stop offset="0.191406" stop-color="#ff5d14"/><stop offset="0.195312" stop-color="#ff5c15"/><stop offset="0.199219" stop-color="#ff5c15"/><stop offset="0.203125" stop-color="#ff5b16"/><stop offset="0.207031" stop-color="#ff5b16"/><stop offset="0.210937" stop-color="#ff5a17"/><stop offset="0.214844" stop-color="#ff5a17"/><stop offset="0.21875" stop-color="#ff5a18"/><stop offset="0.222656" stop-color="#ff5919"/><stop offset="0.226562" stop-color="#ff5919"/><stop offset="0.230469" stop-color="#ff581a"/><stop offset="0.234375" stop-color="#ff581a"/><stop offset="0.238281" stop-color="#ff571b"/><stop offset="0.242187" stop-color="#ff571b"/><stop offset="0.246094" stop-color="#ff561c"/><stop offset="0.25" stop-color="#ff561d"/><stop offset="0.253906" stop-color="#ff551d"/><stop offset="0.257812" stop-color="#ff551e"/><stop offset="0.261719" stop-color="#ff551e"/><stop offset="0.265625" stop-color="#ff541f"/><stop offset="0.269531" stop-color="#ff541f"/><stop offset="0.273438" stop-color="#ff5320"/><stop offset="0.277344" stop-color="#ff5321"/><stop offset="0.28125" stop-color="#ff5221"/><stop offset="0.285156" stop-color="#ff5222"/><stop offset="0.289062" stop-color="#ff5122"/><stop offset="0.292969" stop-color="#ff5123"/><stop offset="0.296875" stop-color="#ff5023"/><stop offset="0.300781" stop-color="#ff5024"/><stop offset="0.304687" stop-color="#ff4f25"/><stop offset="0.308594" stop-color="#ff4f25"/><stop offset="0.3125" stop-color="#ff4f26"/><stop offset="0.316406" stop-color="#ff4e26"/><stop offset="0.320312" stop-color="#ff4e27"/><stop offset="0.324219" stop-color="#ff4d27"/><stop offset="0.328125" stop-color="#ff4d28"/><stop offset="0.332031" stop-color="#ff4c29"/><stop offset="0.335937" stop-color="#ff4c29"/><stop offset="0.339844" stop-color="#ff4b2a"/><stop offset="0.34375" stop-color="#ff4b2a"/><stop offset="0.347656" stop-color="#ff4a2b"/><stop offset="0.351562" stop-color="#ff4a2b"/><stop offset="0.355469" stop-color="#ff492c"/><stop offset="0.359375" stop-color="#ff492d"/><stop offset="0.363281" stop-color="#ff492d"/><stop offset="0.367187" stop-color="#ff482e"/><stop offset="0.371094" stop-color="#ff482e"/><stop offset="0.375" stop-color="#ff472f"/><stop offset="0.378906" stop-color="#ff472f"/><stop offset="0.382812" stop-color="#ff4630"/><stop offset="0.386719" stop-color="#ff4631"/><stop offset="0.390625" stop-color="#ff4531"/><stop offset="0.394531" stop-color="#ff4532"/><stop offset="0.398438" stop-color="#ff4432"/><stop offset="0.402344" stop-color="#f43"/><stop offset="0.40625" stop-color="#ff4333"/><stop offset="0.410156" stop-color="#ff4334"/><stop offset="0.414062" stop-color="#ff4335"/><stop offset="0.417969" stop-color="#ff4235"/><stop offset="0.421875" stop-color="#ff4236"/><stop offset="0.425781" stop-color="#ff4136"/><stop offset="0.429687" stop-color="#ff4137"/><stop offset="0.433594" stop-color="#ff4037"/><stop offset="0.4375" stop-color="#ff4038"/><stop offset="0.441406" stop-color="#ff3f39"/><stop offset="0.445312" stop-color="#ff3f39"/><stop offset="0.449219" stop-color="#ff3e3a"/><stop offset="0.453125" stop-color="#ff3e3a"/><stop offset="0.457031" stop-color="#ff3d3b"/><stop offset="0.460937" stop-color="#ff3d3b"/><stop offset="0.464844" stop-color="#ff3d3c"/><stop offset="0.46875" stop-color="#ff3c3d"/><stop offset="0.472656" stop-color="#ff3c3d"/><stop offset="0.476562" stop-color="#ff3b3e"/><stop offset="0.480469" stop-color="#ff3b3e"/><stop offset="0.484375" stop-color="#ff3a3f"/><stop offset="0.488281" stop-color="#ff3a3f"/><stop offset="0.492187" stop-color="#ff3940"/><stop offset="0.496094" stop-color="#ff3941"/><stop offset="0.5" stop-color="#ff3841"/><stop offset="0.503906" stop-color="#ff3842"/><stop offset="0.507812" stop-color="#ff3842"/><stop offset="0.511719" stop-color="#ff3743"/><stop offset="0.515625" stop-color="#ff3743"/><stop offset="0.519531" stop-color="#ff3644"/><stop offset="0.523438" stop-color="#ff3645"/><stop offset="0.527344" stop-color="#ff3545"/><stop offset="0.53125" stop-color="#ff3546"/><stop offset="0.535156" stop-color="#ff3446"/><stop offset="0.539062" stop-color="#ff3447"/><stop offset="0.542969" stop-color="#ff3347"/><stop offset="0.546875" stop-color="#ff3348"/><stop offset="0.550781" stop-color="#ff3249"/><stop offset="0.554688" stop-color="#ff3249"/><stop offset="0.558594" stop-color="#ff324a"/><stop offset="0.5625" stop-color="#ff314a"/><stop offset="0.566406" stop-color="#ff314b"/><stop offset="0.570312" stop-color="#ff304b"/><stop offset="0.574219" stop-color="#ff304c"/><stop offset="0.578125" stop-color="#ff2f4c"/><stop offset="0.582031" stop-color="#ff2f4d"/><stop offset="0.585937" stop-color="#ff2e4e"/><stop offset="0.589844" stop-color="#ff2e4e"/><stop offset="0.59375" stop-color="#ff2d4f"/><stop offset="0.597656" stop-color="#ff2d4f"/><stop offset="0.601562" stop-color="#ff2c50"/><stop offset="0.605469" stop-color="#ff2c50"/><stop offset="0.609375" stop-color="#ff2c51"/><stop offset="0.613281" stop-color="#ff2b52"/><stop offset="0.617187" stop-color="#ff2b52"/><stop offset="0.621094" stop-color="#ff2a53"/><stop offset="0.625" stop-color="#ff2a53"/><stop offset="0.628906" stop-color="#ff2954"/><stop offset="0.632812" stop-color="#ff2954"/><stop offset="0.636719" stop-color="#ff2855"/><stop offset="0.640625" stop-color="#ff2856"/><stop offset="0.644531" stop-color="#ff2756"/><stop offset="0.648438" stop-color="#ff2757"/><stop offset="0.652344" stop-color="#ff2657"/><stop offset="0.65625" stop-color="#ff2658"/><stop offset="0.660156" stop-color="#ff2658"/><stop offset="0.664062" stop-color="#ff2559"/><stop offset="0.667969" stop-color="#ff255a"/><stop offset="0.671875" stop-color="#ff245a"/><stop offset="0.675781" stop-color="#ff245b"/><stop offset="0.679688" stop-color="#ff235b"/><stop offset="0.683594" stop-color="#ff235c"/><stop offset="0.6875" stop-color="#ff225c"/><stop offset="0.691406" stop-color="#ff225d"/><stop offset="0.695312" stop-color="#ff215e"/><stop offset="0.699219" stop-color="#ff215e"/><stop offset="0.703125" stop-color="#ff215f"/><stop offset="0.707031" stop-color="#ff205f"/><stop offset="0.710937" stop-color="#ff2060"/><stop offset="0.714844" stop-color="#ff1f60"/><stop offset="0.71875" stop-color="#ff1f61"/><stop offset="0.722656" stop-color="#ff1e62"/><stop offset="0.726562" stop-color="#ff1e62"/><stop offset="0.730469" stop-color="#ff1d63"/><stop offset="0.734375" stop-color="#ff1d63"/><stop offset="0.738281" stop-color="#ff1c64"/><stop offset="0.742187" stop-color="#ff1c64"/><stop offset="0.746094" stop-color="#ff1b65"/><stop offset="0.75" stop-color="#ff1b66"/><stop offset="0.753906" stop-color="#ff1b66"/><stop offset="0.757812" stop-color="#ff1a67"/><stop offset="0.761719" stop-color="#ff1a67"/><stop offset="0.765625" stop-color="#ff1968"/><stop offset="0.769531" stop-color="#ff1968"/><stop offset="0.773437" stop-color="#ff1869"/><stop offset="0.777344" stop-color="#ff186a"/><stop offset="0.78125" stop-color="#ff176a"/><stop offset="0.785156" stop-color="#ff176b"/><stop offset="0.789062" stop-color="#ff166b"/><stop offset="0.792969" stop-color="#ff166c"/><stop offset="0.796875" stop-color="#ff156c"/><stop offset="0.800781" stop-color="#ff156d"/><stop offset="0.804687" stop-color="#ff156e"/><stop offset="0.808594" stop-color="#ff146e"/><stop offset="0.8125" stop-color="#ff146f"/><stop offset="0.816406" stop-color="#ff136f"/><stop offset="0.820312" stop-color="#ff1370"/><stop offset="0.824219" stop-color="#ff1270"/><stop offset="0.828125" stop-color="#ff1271"/><stop offset="0.832031" stop-color="#ff1172"/><stop offset="0.835937" stop-color="#ff1172"/><stop offset="0.839844" stop-color="#ff1073"/><stop offset="0.84375" stop-color="#ff1073"/><stop offset="0.847656" stop-color="#ff0f74"/><stop offset="0.851562" stop-color="#ff0f74"/><stop offset="0.855469" stop-color="#ff0f75"/><stop offset="0.859375" stop-color="#ff0e76"/><stop offset="0.863281" stop-color="#ff0e76"/><stop offset="0.867187" stop-color="#ff0d77"/><stop offset="0.871094" stop-color="#ff0d77"/><stop offset="0.875" stop-color="#ff0c78"/><stop offset="0.878906" stop-color="#ff0c78"/><stop offset="0.882812" stop-color="#ff0b79"/><stop offset="0.886719" stop-color="#ff0b7a"/><stop offset="0.890625" stop-color="#ff0a7a"/><stop offset="0.894531" stop-color="#ff0a7b"/><stop offset="0.898438" stop-color="#ff0a7b"/><stop offset="0.902344" stop-color="#ff097c"/><stop offset="0.90625" stop-color="#ff097c"/><stop offset="0.910156" stop-color="#ff087d"/><stop offset="0.914062" stop-color="#ff087e"/><stop offset="0.917969" stop-color="#ff077e"/><stop offset="0.921875" stop-color="#ff077f"/><stop offset="0.925781" stop-color="#ff067f"/><stop offset="0.929688" stop-color="#ff0680"/><stop offset="0.933594" stop-color="#ff0580"/><stop offset="0.9375" stop-color="#ff0581"/><stop offset="0.941406" stop-color="#ff0481"/><stop offset="0.945312" stop-color="#ff0482"/><stop offset="0.949219" stop-color="#ff0483"/><stop offset="0.953125" stop-color="#ff0383"/><stop offset="0.957031" stop-color="#ff0384"/><stop offset="0.960937" stop-color="#ff0284"/><stop offset="0.964844" stop-color="#ff0285"/><stop offset="0.96875" stop-color="#ff0185"/><stop offset="0.972656" stop-color="#ff0186"/><stop offset="0.976562" stop-color="#ff0087"/><stop offset="0.984375" stop-color="#ff0087"/><stop offset="1" stop-color="#ff0087"/></linearGradient></defs><path d="M2160 1080h1080V0H2160zm0 0"/><g clip-path="url(#a)"><path d="M519.27-539.602L-539.602 560.73 560.73 1619.602 1619.602 519.27zm0 0" fill="url(#b)"/></g><use xlink:href="#96ccdfbec" x="246.1893" y="849.5093" fill="#fff"/><g fill="#fff"><use xlink:href="#96ccdfbed" x="2360.7771" y="245.5706"/><use xlink:href="#96ccdfbee" x="2431.4021" y="245.5706"/><use xlink:href="#96ccdfbef" x="2508.6521" y="245.5706"/><use xlink:href="#96ccdfbeg" x="2585.9021" y="245.5706"/><use xlink:href="#96ccdfbeh" x="2655.2771" y="245.5706"/><use xlink:href="#96ccdfbei" x="2732.5271" y="245.5706"/></g><use xlink:href="#96ccdfbej" x="2803.4271" y="245.5706" fill="#fff"/><g fill="#fff"><use xlink:href="#96ccdfbek" x="2850.2771" y="245.5706"/><use xlink:href="#96ccdfbel" x="2927.5271" y="245.5706"/><use xlink:href="#96ccdfbem" x="3004.1521" y="245.5706"/></g><g fill="#fff"><use xlink:href="#96ccdfben" x="2394.4021" y="465.5706"/><use xlink:href="#96ccdfbeo" x="2430.4021" y="465.5706"/><use xlink:href="#96ccdfbep" x="2497.9021" y="465.5706"/><use xlink:href="#96ccdfbeq" x="2533.0271" y="465.5706"/><use xlink:href="#96ccdfber" x="2650.4021" y="465.5706"/><use xlink:href="#96ccdfbes" x="2727.0271" y="465.5706"/><use xlink:href="#96ccdfbet" x="2800.5271" y="465.5706"/><use xlink:href="#96ccdfbeu" x="2877.7771" y="465.5706"/><use xlink:href="#96ccdfbev" x="2955.0271" y="465.5706"/></g><g fill="#fff"><use xlink:href="#96ccdfbew" x="2423.0271" y="685.5706"/><use xlink:href="#96ccdfbex" x="2487.4021" y="685.5706"/><use xlink:href="#96ccdfbey" x="2537.6521" y="685.5706"/><use xlink:href="#96ccdfbez" x="2613.2771" y="685.5706"/></g><g fill="#fff"><use xlink:href="#96ccdfbeA" x="2679.4521" y="685.5706"/><use xlink:href="#96ccdfbeB" x="2784.8271" y="685.5706"/><use xlink:href="#96ccdfbeC" x="2850.9521" y="685.5706"/><use xlink:href="#96ccdfbeD" x="2916.5771" y="685.5706"/></g><g fill="#fff"><use xlink:href="#96ccdfbeE" x="2330.9021" y="905.5706"/><use xlink:href="#96ccdfbeF" x="2413.5271" y="905.5706"/><use xlink:href="#96ccdfbeG" x="2466.4021" y="905.5706"/><use xlink:href="#96ccdfbeH" x="2539.5271" y="905.5706"/><use xlink:href="#96ccdfbeI" x="2615.9021" y="905.5706"/><use xlink:href="#96ccdfbeJ" x="2692.0271" y="905.5706"/><use xlink:href="#96ccdfbeK" x="2766.7771" y="905.5706"/><use xlink:href="#96ccdfbeL" x="2846.5271" y="905.5706"/><use xlink:href="#96ccdfbeM" x="2908.6521" y="905.5706"/></g><use xlink:href="#96ccdfbeN" x="2989.2521" y="905.5706" fill="#fff"/><path d="M1080 1080h1080V0H1080zm0 0"/><g fill="#fff"><use xlink:href="#96ccdfbeO" x="1212.3804" y="980"/><use xlink:href="#96ccdfbeP" x="1212.3804" y="952.64"/><use xlink:href="#96ccdfbeQ" x="1212.3804" y="928.24"/><use xlink:href="#96ccdfbeR" x="1212.3804" y="906.12"/><use xlink:href="#96ccdfbeS" x="1212.3804" y="881.72"/></g><g fill="#fff"><use xlink:href="#96ccdfbeT" x="1212.3804" y="866.136"/><use xlink:href="#96ccdfbeU" x="1212.3804" y="843.816"/><use xlink:href="#96ccdfbeV" x="1212.3804" y="828.176"/><use xlink:href="#96ccdfbeW" x="1212.3804" y="817.896"/></g><use xlink:href="#96ccdfbeT" x="1212.3804" y="798.324" fill="#fff"/><g fill="#fff"><use xlink:href="#96ccdfbeX" x="1212.3804" y="776.192"/><use xlink:href="#96ccdfbeS" x="1212.3804" y="755.832"/></g><use xlink:href="#96ccdfbeY" x="1450" y="146.3322" fill="#fff"/><g fill="#fff"><use xlink:href="#96ccdfbeZ" x="1450" y="249.3582"/><use xlink:href="#96ccdfbeaa" x="1497.663" y="249.3582"/><use xlink:href="#96ccdfbeab" x="1535.547" y="249.3582"/><use xlink:href="#96ccdfbeac" x="1565.962" y="249.3582"/><use xlink:href="#96ccdfbead" x="1594.683" y="249.3582"/><use xlink:href="#96ccdfbeae" x="1636.417" y="249.3582"/><use xlink:href="#96ccdfbeaf" x="1655.436" y="249.3582"/><use xlink:href="#96ccdfbeag" x="1674.455" y="249.3582"/><use xlink:href="#96ccdfbeah" x="1720.578" y="249.3582"/><use xlink:href="#96ccdfbeab" x="1765.777" y="249.3582"/><use xlink:href="#96ccdfbeai" x="1796.192" y="249.3582"/></g><g fill="#fff"><use xlink:href="#96ccdfbeaj" x="1816.751" y="249.3582"/><use xlink:href="#96ccdfbeak" x="1838.08" y="249.3582"/><use xlink:href="#96ccdfbeal" x="1868.495" y="249.3582"/><use xlink:href="#96ccdfbeam" x="1910.229" y="249.3582"/><use xlink:href="#96ccdfbean" x="1929.248" y="249.3582"/><use xlink:href="#96ccdfbeao" x="1948.267" y="249.3582"/></g><g fill="#fff"><use xlink:href="#96ccdfbeap" x="1450" y="352.3842"/><use xlink:href="#96ccdfbeaq" x="1490.579" y="352.3842"/><use xlink:href="#96ccdfbear" x="1510.214" y="352.3842"/><use xlink:href="#96ccdfbeas" x="1556.645" y="352.3842"/><use xlink:href="#96ccdfbeat" x="1602.229" y="352.3842"/><use xlink:href="#96ccdfbeau" x="1632.644" y="352.3842"/></g><g fill="#fff"><use xlink:href="#96ccdfbeav" x="1652.895" y="352.3842"/><use xlink:href="#96ccdfbeaw" x="1674.917" y="352.3842"/><use xlink:href="#96ccdfbeax" x="1705.332" y="352.3842"/><use xlink:href="#96ccdfbeay" x="1747.374" y="352.3842"/><use xlink:href="#96ccdfbeaz" x="1767.009" y="352.3842"/><use xlink:href="#96ccdfbeaA" x="1786.644" y="352.3842"/></g><use xlink:href="#96ccdfbeaB" x="1450" y="455.4102" fill="#fff"/><g fill="#fff"><use xlink:href="#96ccdfbeaC" x="1500.5274" y="455.4102"/><use xlink:href="#96ccdfbeaD" x="1543.3394" y="455.4102"/><use xlink:href="#96ccdfbeaE" x="1590.0784" y="455.4102"/><use xlink:href="#96ccdfbeaF" x="1635.2774" y="455.4102"/><use xlink:href="#96ccdfbeaG" x="1655.4514" y="455.4102"/><use xlink:href="#96ccdfbeaH" x="1697.8014" y="455.4102"/><use xlink:href="#96ccdfbeaI" x="1727.4464" y="455.4102"/></g><g fill="#fff"><use xlink:href="#96ccdfbeaJ" x="1747.4664" y="455.4102"/><use xlink:href="#96ccdfbeaK" x="1770.1814" y="455.4102"/><use xlink:href="#96ccdfbeaL" x="1800.5194" y="455.4102"/><use xlink:href="#96ccdfbeaM" x="1842.8694" y="455.4102"/><use xlink:href="#96ccdfbeaN" x="1863.0434" y="455.4102"/><use xlink:href="#96ccdfbeaO" x="1883.2174" y="455.4102"/></g><g fill="#fff"><use xlink:href="#96ccdfbeaP" x="1450" y="558.4362"/><use xlink:href="#96ccdfbeaQ" x="1522.842" y="558.4362"/><use xlink:href="#96ccdfbeaR" x="1565.808" y="558.4362"/><use xlink:href="#96ccdfbeaS" x="1612.778" y="558.4362"/><use xlink:href="#96ccdfbeaT" x="1633.568" y="558.4362"/><use xlink:href="#96ccdfbeaU" x="1679.229" y="558.4362"/></g><use xlink:href="#96ccdfbeaV" x="1750.5926" y="558.4362" fill="#fff"/><g fill="#fff"><use xlink:href="#96ccdfbeaW" x="1770.3816" y="558.4362"/><use xlink:href="#96ccdfbeaX" x="1793.7896" y="558.4362"/><use xlink:href="#96ccdfbeaY" x="1824.0506" y="558.4362"/><use xlink:href="#96ccdfbeaZ" x="1866.6316" y="558.4362"/><use xlink:href="#96ccdfbeba" x="1887.4216" y="558.4362"/><use xlink:href="#96ccdfbebb" x="1908.2116" y="558.4362"/></g><g fill="#fff"><use xlink:href="#96ccdfbebc" x="1450" y="661.4622"/><use xlink:href="#96ccdfbebd" x="1499.588" y="661.4622"/><use xlink:href="#96ccdfbebe" x="1543.324" y="661.4622"/><use xlink:href="#96ccdfbebf" x="1615.627" y="661.4622"/><use xlink:href="#96ccdfbebg" x="1637.264" y="661.4622"/><use xlink:href="#96ccdfbebh" x="1684.85" y="661.4622"/></g><g fill="#fff"><use xlink:href="#96ccdfbebi" x="1730.0182" y="661.4622"/><use xlink:href="#96ccdfbebj" x="1751.6552" y="661.4622"/><use xlink:href="#96ccdfbebk" x="1799.2412" y="661.4622"/></g><g fill="#fff"><use xlink:href="#96ccdfbebl" x="1818.83" y="661.4622"/><use xlink:href="#96ccdfbebm" x="1843.008" y="661.4622"/><use xlink:href="#96ccdfbebn" x="1873.962" y="661.4622"/><use xlink:href="#96ccdfbebo" x="1917.467" y="661.4622"/><use xlink:href="#96ccdfbebp" x="1939.104" y="661.4622"/><use xlink:href="#96ccdfbebq" x="1960.741" y="661.4622"/></g><g fill="#fff"><use xlink:href="#96ccdfbebr" x="1450" y="764.4882"/><use xlink:href="#96ccdfbebs" x="1504.67" y="764.4882"/><use xlink:href="#96ccdfbebt" x="1550.562" y="764.4882"/><use xlink:href="#96ccdfbebu" x="1572.969" y="764.4882"/><use xlink:href="#96ccdfbebv" x="1621.094" y="764.4882"/></g><g fill="#fff"><use xlink:href="#96ccdfbebw" x="1640.575" y="764.4882"/><use xlink:href="#96ccdfbebx" x="1665.523" y="764.4882"/><use xlink:href="#96ccdfbeby" x="1697.093" y="764.4882"/><use xlink:href="#96ccdfbebz" x="1741.599" y="764.4882"/><use xlink:href="#96ccdfbebA" x="1764.006" y="764.4882"/><use xlink:href="#96ccdfbebB" x="1786.413" y="764.4882"/></g><g fill="#fff"><use xlink:href="#96ccdfbebC" x="1450" y="867.5142"/><use xlink:href="#96ccdfbebD" x="1500.512" y="867.5142"/><use xlink:href="#96ccdfbebE" x="1544.556" y="867.5142"/><use xlink:href="#96ccdfbebF" x="1576.896" y="867.5142"/><use xlink:href="#96ccdfbebG" x="1610.391" y="867.5142"/><use xlink:href="#96ccdfbebH" x="1655.975" y="867.5142"/><use xlink:href="#96ccdfbebI" x="1704.716" y="867.5142"/><use xlink:href="#96ccdfbebJ" x="1751.378" y="867.5142"/><use xlink:href="#96ccdfbebK" x="1774.786" y="867.5142"/><use xlink:href="#96ccdfbebL" x="1823.527" y="867.5142"/></g><g fill="#fff"><use xlink:href="#96ccdfbebM" x="1842.777" y="867.5142"/><use xlink:href="#96ccdfbebN" x="1868.726" y="867.5142"/><use xlink:href="#96ccdfbebO" x="1901.066" y="867.5142"/><use xlink:href="#96ccdfbebP" x="1946.65" y="867.5142"/><use xlink:href="#96ccdfbebQ" x="1970.058" y="867.5142"/><use xlink:href="#96ccdfbebR" x="1993.466" y="867.5142"/></g><use xlink:href="#96ccdfbebS" x="1450" y="970.5402" fill="#fff"/></svg>