<?xml version='1.0' encoding='UTF-8'?>
<svg xmlns="http://www.w3.org/2000/svg" xmlns:xlink="http://www.w3.org/1999/xlink" width="3240px" height="1080px" viewBox="0 0 3240 1080" x="0px" y="0px" enable-background="new 0 0 3240 1080"><defs><symbol overflow="visible" id="465e888ca"><path d="M202.453-198.125h-57.625l-66.281 81.344h-2.5v-81.344H22.328V0h53.719v-83.719h2.5L141.89 0h62.375l-79.813-104.922zm0 0"/></symbol><symbol overflow="visible" id="465e888cb"><path d="M138.969-76.188v-1.671c14.234-3.344 25.531-13.11 25.531-31.532 0-28.046-16.328-39.484-56.234-39.484H18.828V0h88.188c42.28 0 62.093-11.719 62.093-41.578 0-19.953-12.562-30.563-30.14-34.61zM94.875-118.03c15.484 0 20.094 3.625 20.094 13.25 0 9.765-4.61 14.656-20.516 14.656h-26.5v-27.906zm3.484 87.203H67.953v-29.313h30.125c15.64 0 21.078 4.328 21.078 14.375s-5.172 14.938-20.797 14.938zm0 0"/></symbol><symbol overflow="visible" id="465e888cc"><path d="M61.25 3.906c22.75 0 38.516-9.484 46.047-24.687h1.812L113.438 0h43.937v-96.969c0-38.781-23.578-56.781-69.89-56.781-51.626 0-68.657 18.547-74.094 50.5l49.39 4.89c2.235-12.703 7.813-18.843 23.032-18.843 15.343 0 21.484 6 21.484 18.984v6.266L58.453-86.22C20.922-82.047 6.97-66.28 6.97-40.734c0 28.172 18.703 44.64 54.281 44.64zM78.828-30.14c-13.812 0-19.953-5.297-19.953-14.64 0-8.797 5.172-12.563 18.563-14.375l29.859-4.188V-54c0 13.672-9.906 23.86-28.469 23.86zm0 0"/></symbol><symbol overflow="visible" id="465e888cd"><path d="M167.156-39.906v-108.969H40.046c-.702 20.516-1.405 42.703-3.358 62.094-2.22 22.047-7.954 38.094-14.782 46.875H1.672v78.969h47.016V0h94.046v39.063h46.875v-78.97zm-100.75 1.125c6.14-11.86 10.047-27.078 11.453-43.39.688-7.829 1.532-18.282 2.094-29.173h39.484v72.563zm0 0"/></symbol><symbol overflow="visible" id="465e888ce"><path d="M18.828 54.422h51.484v-77.86h1.829C78.406-7.108 92.359 4.188 117.484 4.188c37.938 0 60.547-29.578 60.547-78.546 0-48.704-22.61-78.704-60.265-78.704-26.375 0-40.188 13.672-47.032 30.844h-1.812l-4.734-26.656h-45.36zm78.703-90c-19.953 0-27.765-13.39-27.765-38.781 0-25.547 7.812-38.938 27.765-38.938 20.235 0 28.172 12.844 28.172 38.938 0 26.078-7.937 38.78-28.172 38.78zm0 0"/></symbol><symbol overflow="visible" id="465e888cf"><path d="M18.828 0h51.766l52.328-85.11h1.812V0h49.11v-148.875h-51.766L69.766-61.531h-1.813v-87.344H18.828zm0 0"/></symbol><symbol overflow="visible" id="465e888cg"><path d="M-20.781-166.313H16.75l30.406-52.328h-49.25zm0 0"/></symbol><symbol overflow="visible" id="465e888ch"><path d="M116.781-148.875L88.171-45.062H86.36L55.531-148.875H-.703L52.453 0h22.61c-7.25 13.813-15.626 17.578-30.688 17.578-6.422 0-16.047-1.11-22.188-2.375L17.157 54c8.937 2.5 22.187 4.594 33.765 4.594 38.797 0 55.531-20.5 68.234-58.594l49.39-148.875zm0 0"/></symbol><symbol overflow="visible" id="465e888ci"><path d="M18.828 0h42.14v-101.156h1.813L100.031 0h39.906l37.25-101.156h1.829V0h46.875v-148.875h-69.344l-33.203 93.344h-1.406l-33.766-93.344H18.828zm0 0"/></symbol><symbol overflow="visible" id="465e888cj"><path d="M26.719 0h11.093v-152.656h.25L109.689 0h9.687l71.61-152.656h.265V0h11.875v-178.078h-12.266L115.11-16.266h-.25L38.72-178.078h-12zm0 0"/></symbol><symbol overflow="visible" id="465e888ck"><path d="M92.266 3.875c47.625 0 78.718-32.656 78.718-92.922s-31.093-92.906-78.718-92.906c-47.61 0-78.844 32.64-78.844 92.906 0 60.266 31.234 92.922 78.844 92.922zm0-10.719c-41.032 0-66.72-28.125-66.72-82.203 0-54.062 25.688-82.203 66.72-82.203 40.906 0 66.593 28.14 66.593 82.203 0 54.078-25.687 82.203-66.593 82.203zm0 0"/></symbol><symbol overflow="visible" id="465e888cl"><path d="M157.703-10.578v-167.5H47.11c-.906 42.312-2.203 71.75-4.656 98.844C39.875-52.141 34.578-28 23.234-10.578H1.672v52.39h11.484V0h158.485v41.813h11.484v-52.391zm-122.344 0c9.547-15.36 15.36-38.969 17.672-64.406 2.594-24.375 4.14-56.766 5.172-92.516h87.484v156.922zm0 0"/></symbol><symbol overflow="visible" id="465e888cm"><path d="M139.625-167.5v-10.578H26.719V0h112.906v-10.578H38.719v-74.594h85.031V-95.5H38.719v-72zm0 0"/></symbol><symbol overflow="visible" id="465e888cn"><path d="M91.36-178.078H26.718V0h12v-71.75h52.515c39.875 0 59.75-19.484 59.75-53.563 0-34.062-19.875-52.765-59.625-52.765zm-1.282 95.875h-51.36v-85.438h51.485c33.031 0 48.906 13.813 48.906 42.328 0 28.391-15.875 43.11-49.03 43.11zm0 0"/></symbol><symbol overflow="visible" id="465e888co"><path d="M26.719 0h12v-85.297h107.75V0h12.125v-178.078h-12.125v82.203H38.719v-82.203h-12zm0 0"/></symbol><symbol overflow="visible" id="465e888cp"><path d="M26.719 0h11.61L147.5-158.469h.266V0h12v-178.078H148.28L38.97-19.484h-.25v-158.594h-12zm0 0"/></symbol><symbol overflow="visible" id="465e888cq"><path d="M82.984 3.875c42.97 0 66.188-19.234 66.188-52.781 0-24.907-17.281-38.719-38.969-42.078v-.25c19.234-4.266 34.078-17.172 33.938-43.485-.125-29.047-20.516-47.234-61.672-47.234-40.781 0-55.235 19.875-66.86 52.516h12c10.453-27.22 22.328-42.454 54.86-42.454 33.937 0 49.937 14.453 49.937 37.938 0 24.14-15.234 38.078-45.562 38.078H57.172v10.188h30.062c32.266 0 50.079 12 50.079 36.14 0 26.969-18.079 43.484-54.329 43.219-38.328-.25-49.953-15.735-60.265-41.156h-12C20.906-16.125 36.516 3.875 82.984 3.875zm0 0"/></symbol><symbol overflow="visible" id="465e888cr"><path d="M64.531-74.375L58.36-39.344c-6.078 3.157-14.156 5.032-22.062 5.032-11.36 0-18.438-3.407-15.813-18.22l3.922-21.843h-9.328L11.11-51.812C7.86-33.47 18.86-26.189 35.406-26.189c7.703 0 15.453-1.78 21.422-4.718L51.328 0h9.281l13.203-74.375zm0 0"/></symbol><symbol overflow="visible" id="465e888cs"><path d="M52.016-55.156H5.766l-1.422 7.75h18.75L14.672 0h8.906L32-47.406h18.594zm0 0"/></symbol><symbol overflow="visible" id="465e888ct"><path d="M27.766 1.578c16.703 0 26.875-10.062 30.015-28.344 3.078-17.812-4.61-29.968-22.11-29.968-16.608 0-26.718 10.172-29.905 28.187-3.204 17.813 4.453 30.125 22 30.125zm.672-7.703c-12.47 0-16.016-9.172-13.72-21.688 2.516-14.046 8.532-21.156 20.266-21.156 12.532 0 16.25 8.89 13.891 21.469-2.734 14.14-8.64 21.375-20.438 21.375zm0 0"/></symbol><symbol overflow="visible" id="465e888cv"><path d="M61.5-55.156H14.875L5.078 0h8.906l8.375-47.14h28.813L42.797 0h8.906zm0 0"/></symbol><symbol overflow="visible" id="465e888cw"><path d="M1.578 20.578h8.89l5.407-30.484h.469C18.016-4.5 22 1.578 33.422 1.578c14.453 0 24.36-10.172 27.5-28.187 3.094-17.594-4.188-30.125-20.281-30.125-9.578 0-14.97 4.718-18.282 10.375h-.515l.468-8.797h-7.437zm30.89-26.703c-11.671 0-16.077-8.797-13.921-21.578 2.14-12.688 7.906-21.266 19.687-21.266 12.625 0 16.078 8.953 13.782 21.672-2.563 13.89-8.641 21.172-19.547 21.172zm0 0"/></symbol><symbol overflow="visible" id="465e888cx"><path d="M5.078 0h9.219l36.406-41.484h.469L43.844 0h8.687l9.797-55.156H53.11L16.703-13.625h-.469l7.344-41.531h-8.703zm0 0"/></symbol><symbol overflow="visible" id="465e888cy"><path d="M25.188 1.578c16.296 0 25.156-7.281 25.156-18.61 0-6.905-4.516-9.937-9.172-10.827l.047-.485c5.765-.781 12.265-5.39 12.265-14.968 0-8.282-5.922-13.422-20.062-13.422-15.563 0-21.422 6.078-25.14 16.25l8.952 1.093c2.938-7.125 6.344-10 15.297-10C41.953-49.39 45-46.625 45-41.953c0 6.86-5.344 10.266-14.094 10.266h-8.125l-1.25 7.171h8.11c8.328 0 12 2.157 12 7.438 0 6.765-5.453 11.312-15.61 11.312-10.468 0-13.672-3.093-14.25-10.843l-8.687.468C3.297-4.03 9.063 1.58 25.187 1.58zm0 0"/></symbol><symbol overflow="visible" id="465e888cz"><path d="M80.25-55.156L71.812-7.813h-23.78l8.437-47.343h-8.907L39.126-7.813H15.344l8.437-47.343h-8.906L5.078 0H79.36l9.797-55.156zm0 0"/></symbol><symbol overflow="visible" id="465e888cA"><path d="M60.5-55.156H20.687c-2.093 10.11-5.921 26.765-7.859 34.672-2.36 9.53-5.015 13.312-10.578 13.312-1.313 0-2.781-.219-3.672-.422L-2.782.203c1 .266 3.72.688 5.657.688C13.469.89 17.5-5.234 20.75-18.703c1.406-6.078 4.438-18.906 6.594-28.703h22.89L41.86 0h8.891zm0 0"/></symbol><symbol overflow="visible" id="465e888cB"><path d="M47.406-55.156l-4.61 25.984c-4.5 1.985-9.952 3.188-14.765 3.188-9.953 0-13.515-2.61-11.531-13.985l2.719-15.187h-8.907l-3.03 17.078C4.765-23.781 12-18.281 25.515-18.281c6.125 0 11.625-1.469 15.922-3.36L37.656 0h8.907l9.75-55.156zm0 0"/></symbol><symbol overflow="visible" id="465e888cC"><path d="M30.016 1.578c16.812 0 27.03-10.062 30.172-28.031 2.984-17.235-4.297-28.813-21.11-28.813-10.578 0-16.922 5.407-21.11 12.313h-.53c5.656-19.125 10.062-24.36 28.03-26.656 8.063-1.11 13.829-1.579 19.063-2l-.469-8.532c-5.343.47-12.515 1.094-20.75 2.36-23.78 3.61-29.328 16.344-34.25 44-3.609 20.422 1.25 35.36 20.954 35.36zm.843-7.703c-12.53 0-15.937-9.172-13.78-21.375 2.452-13.984 9.796-20.64 21-20.64 11.843 0 15.452 8.906 13.155 21C48.562-13.36 42.578-6.126 30.86-6.126zm0 0"/></symbol><symbol overflow="visible" id="465e888cD"><path d="M48.766-55.156L24.469-8.22h-.532L14.61-55.156h-9L17.08 0h3.452c-6.125 10.797-9.687 14.25-16.5 14.25-2.25 0-4.61-.469-6.437-1l-1.516 7.547c2.031.672 5.235 1.36 8.266 1.36 12.625 0 16.812-7.97 24.468-22.157l29.75-55.156zm0 0"/></symbol><symbol overflow="visible" id="465e888cE"><path d="M50.594-7.813l8.328-47.343H20.484c-1.89 9.531-3.875 20.328-5.875 27.968-2.671 10.11-6.484 16.235-10 19.375h-7.015l-3.938 22.485h8.282L4.563 0h44.734l-2.625 14.672H55l3.922-22.485zm-36.407 0c3.829-4.28 6.235-10.359 8.391-18.843 1.36-5.453 3.031-13.422 4.563-20.953h21.734L41.859-7.812zm0 0"/></symbol><symbol overflow="visible" id="465e888cF"><path d="M55.156-24.781c.688-3.719 1.157-7.953 1.157-11.094 0-12.844-7.657-20.906-21.376-20.906-15.14 0-25.921 9.797-29.124 28.031C2.671-10.89 10.108 1.578 27.922 1.578c14.406 0 20.797-6.031 24.406-15.453l-8.594-.953c-2.672 5.453-6.859 8.75-15.187 8.75-12.25 0-15.453-8.688-14.453-18.703zM34.36-49.344c11.266 0 14.563 6.86 13.25 17.703H15.406c3.031-11.89 9.063-17.703 18.953-17.703zm0 0"/></symbol><symbol overflow="visible" id="465e888cG"><path d="M21 1.516c9.531 0 15.766-4.766 18.438-10.157h.421L39.187 0h7.438l5.906-33.469C55.11-48.25 49.5-56.78 33.421-56.78c-14.515 0-20.905 5.703-24.093 16.547l8.64 1.203c2.204-7.172 6.345-10.422 14.298-10.422 9.265 0 12.422 3.312 12.422 9.906 0 1.938-.422 4.297-1 6.906L24.358-30.75C10.641-29.39 3.094-24.562 3.094-13.406c0 9 6.39 14.922 17.906 14.922zm1.781-7.22c-6.906 0-10.687-2.89-10.687-8.483 0-6.563 4.61-9.126 12.687-9.954l17.703-1.78-.953 5.233C39.921-11.938 32-5.703 22.781-5.703zm0 0"/></symbol><symbol overflow="visible" id="465e888cH"><path d="M45-27.5l.094-.531c6.297-1.36 11.578-5.86 11.578-14.39 0-8.235-5.344-12.735-17.125-12.735H14.875L5.078 0h26.828c13.719 0 22.157-5.39 22.157-16.969 0-5.453-3.094-9.062-9.063-10.531zm-7.031-20.422c7.281 0 10.328 1.828 10.328 6.703 0 6.594-4.344 9.844-13.36 9.844h-15.5l2.922-16.547zM31.64-7.172h-16.5l3.093-17.297h16.391c7.797 0 10.89 2.422 10.89 7.282 0 7.39-5.437 10.015-13.874 10.015zm0 0"/></symbol><symbol overflow="visible" id="465e888cI"><path d="M19.86-18.172h8.484l.89-5.25c1.203-7.531 7.125-11.312 13.141-15.39 7.234-4.876 14.563-10 14.563-22.782 0-11.375-8.797-16.984-20.844-16.984-17.922 0-24.735 7.281-29.657 22.375l8.813 1.156c3.453-10.531 7.844-15.984 19.531-15.984 8.75 0 13.469 3.61 13.469 10.265 0 8.438-5.14 12.203-10.953 16.078-6.766 4.407-14.516 9.016-16.5 20.907zM21.64.891c4.438 0 7.282-2.625 7.282-7.125 0-3.141-2.266-4.766-5.094-4.766-4.5 0-7.281 2.563-7.281 7.078 0 3.14 2.203 4.813 5.094 4.813zm0 0"/></symbol><symbol overflow="visible" id="465e888cL"><path d="M752.375-506.188H604.281L451.906-273.813h-.953v-430.953H308.578v430.953h-.953L155.719-506.188H7.14l163.328 232.86L-2.375 0h159.516l150.484-250.953h.953V0h142.375v-250.953h.953L602.375 0h159.531L590-274.766zm0 0"/></symbol><clipPath id="J"><path d="M2160 1h1080v1079H2160zm0 0"/></clipPath><linearGradient id="K" gradientUnits="userSpaceOnUse" x1="-0.0572728" y1="0" x2="1.006688" y2="0" gradientTransform="rotate(44.1 1015.24 2759.236) scale(1434.70145)"><stop offset="0" stop-color="#ff6d00"/><stop offset="0.03125" stop-color="#ff6d00"/><stop offset="0.046875" stop-color="#ff6d00"/><stop offset="0.0546875" stop-color="#ff6d00"/><stop offset="0.0585938" stop-color="#ff6c01"/><stop offset="0.0625" stop-color="#ff6c01"/><stop offset="0.0664062" stop-color="#ff6c02"/><stop offset="0.0703125" stop-color="#ff6b02"/><stop offset="0.0742188" stop-color="#ff6b03"/><stop offset="0.078125" stop-color="#ff6a04"/><stop offset="0.0820312" stop-color="#ff6a04"/><stop offset="0.0859375" stop-color="#ff6905"/><stop offset="0.0898438" stop-color="#ff6905"/><stop offset="0.09375" stop-color="#ff6806"/><stop offset="0.0976562" stop-color="#ff6806"/><stop offset="0.101562" stop-color="#ff6707"/><stop offset="0.105469" stop-color="#ff6708"/><stop offset="0.109375" stop-color="#ff6608"/><stop offset="0.113281" stop-color="#ff6609"/><stop offset="0.117188" stop-color="#ff6609"/><stop offset="0.121094" stop-color="#ff650a"/><stop offset="0.125" stop-color="#ff650a"/><stop offset="0.128906" stop-color="#ff640b"/><stop offset="0.132812" stop-color="#ff640b"/><stop offset="0.136719" stop-color="#ff630c"/><stop offset="0.140625" stop-color="#ff630d"/><stop offset="0.144531" stop-color="#ff620d"/><stop offset="0.148438" stop-color="#ff620e"/><stop offset="0.152344" stop-color="#ff610e"/><stop offset="0.15625" stop-color="#ff610f"/><stop offset="0.160156" stop-color="#ff610f"/><stop offset="0.164062" stop-color="#ff6010"/><stop offset="0.167969" stop-color="#ff6011"/><stop offset="0.171875" stop-color="#ff5f11"/><stop offset="0.175781" stop-color="#ff5f12"/><stop offset="0.179688" stop-color="#ff5e12"/><stop offset="0.183594" stop-color="#ff5e13"/><stop offset="0.1875" stop-color="#ff5d13"/><stop offset="0.191406" stop-color="#ff5d14"/><stop offset="0.195313" stop-color="#ff5c15"/><stop offset="0.199219" stop-color="#ff5c15"/><stop offset="0.203125" stop-color="#ff5b16"/><stop offset="0.207031" stop-color="#ff5b16"/><stop offset="0.210938" stop-color="#ff5b17"/><stop offset="0.214844" stop-color="#ff5a17"/><stop offset="0.21875" stop-color="#ff5a18"/><stop offset="0.222656" stop-color="#ff5919"/><stop offset="0.226563" stop-color="#ff5919"/><stop offset="0.230469" stop-color="#ff581a"/><stop offset="0.234375" stop-color="#ff581a"/><stop offset="0.238281" stop-color="#ff571b"/><stop offset="0.242188" stop-color="#ff571b"/><stop offset="0.246094" stop-color="#ff561c"/><stop offset="0.25" stop-color="#ff561d"/><stop offset="0.253906" stop-color="#ff561d"/><stop offset="0.257812" stop-color="#ff551e"/><stop offset="0.261719" stop-color="#ff551e"/><stop offset="0.265625" stop-color="#ff541f"/><stop offset="0.269531" stop-color="#ff541f"/><stop offset="0.273438" stop-color="#ff5320"/><stop offset="0.277344" stop-color="#ff5320"/><stop offset="0.28125" stop-color="#ff5221"/><stop offset="0.285156" stop-color="#ff5222"/><stop offset="0.289062" stop-color="#ff5122"/><stop offset="0.292969" stop-color="#ff5123"/><stop offset="0.296875" stop-color="#ff5023"/><stop offset="0.300781" stop-color="#ff5024"/><stop offset="0.304688" stop-color="#ff5024"/><stop offset="0.308594" stop-color="#ff4f25"/><stop offset="0.3125" stop-color="#ff4f26"/><stop offset="0.316406" stop-color="#ff4e26"/><stop offset="0.320313" stop-color="#ff4e27"/><stop offset="0.324219" stop-color="#ff4d27"/><stop offset="0.328125" stop-color="#ff4d28"/><stop offset="0.332031" stop-color="#ff4c28"/><stop offset="0.335938" stop-color="#ff4c29"/><stop offset="0.339844" stop-color="#ff4b2a"/><stop offset="0.34375" stop-color="#ff4b2a"/><stop offset="0.347656" stop-color="#ff4b2b"/><stop offset="0.351562" stop-color="#ff4a2b"/><stop offset="0.355469" stop-color="#ff4a2c"/><stop offset="0.359375" stop-color="#ff492c"/><stop offset="0.363281" stop-color="#ff492d"/><stop offset="0.367188" stop-color="#ff482e"/><stop offset="0.371094" stop-color="#ff482e"/><stop offset="0.375" stop-color="#ff472f"/><stop offset="0.378906" stop-color="#ff472f"/><stop offset="0.382813" stop-color="#ff4630"/><stop offset="0.386719" stop-color="#ff4630"/><stop offset="0.390625" stop-color="#ff4531"/><stop offset="0.394531" stop-color="#ff4532"/><stop offset="0.398438" stop-color="#ff4532"/><stop offset="0.402344" stop-color="#f43"/><stop offset="0.40625" stop-color="#f43"/><stop offset="0.410156" stop-color="#ff4334"/><stop offset="0.414062" stop-color="#ff4334"/><stop offset="0.417969" stop-color="#ff4235"/><stop offset="0.421875" stop-color="#ff4235"/><stop offset="0.425781" stop-color="#ff4136"/><stop offset="0.429688" stop-color="#ff4137"/><stop offset="0.433594" stop-color="#ff4037"/><stop offset="0.4375" stop-color="#ff4038"/><stop offset="0.441406" stop-color="#ff4038"/><stop offset="0.445312" stop-color="#ff3f39"/><stop offset="0.449219" stop-color="#ff3f39"/><stop offset="0.453125" stop-color="#ff3e3a"/><stop offset="0.457031" stop-color="#ff3e3b"/><stop offset="0.460938" stop-color="#ff3d3b"/><stop offset="0.464844" stop-color="#ff3d3c"/><stop offset="0.46875" stop-color="#ff3c3c"/><stop offset="0.472656" stop-color="#ff3c3d"/><stop offset="0.476562" stop-color="#ff3b3d"/><stop offset="0.480469" stop-color="#ff3b3e"/><stop offset="0.484375" stop-color="#ff3a3f"/><stop offset="0.488281" stop-color="#ff3a3f"/><stop offset="0.492188" stop-color="#ff3a40"/><stop offset="0.496094" stop-color="#ff3940"/><stop offset="0.5" stop-color="#ff3941"/><stop offset="0.503906" stop-color="#ff3841"/><stop offset="0.507812" stop-color="#ff3842"/><stop offset="0.511719" stop-color="#ff3743"/><stop offset="0.515625" stop-color="#ff3743"/><stop offset="0.519531" stop-color="#ff3644"/><stop offset="0.523437" stop-color="#ff3644"/><stop offset="0.527344" stop-color="#ff3545"/><stop offset="0.53125" stop-color="#ff3545"/><stop offset="0.535156" stop-color="#ff3546"/><stop offset="0.539062" stop-color="#ff3447"/><stop offset="0.542969" stop-color="#ff3447"/><stop offset="0.546875" stop-color="#ff3348"/><stop offset="0.550781" stop-color="#ff3348"/><stop offset="0.554688" stop-color="#ff3249"/><stop offset="0.558594" stop-color="#ff3249"/><stop offset="0.5625" stop-color="#ff314a"/><stop offset="0.566406" stop-color="#ff314a"/><stop offset="0.570312" stop-color="#ff304b"/><stop offset="0.574219" stop-color="#ff304c"/><stop offset="0.578125" stop-color="#ff2f4c"/><stop offset="0.582031" stop-color="#ff2f4d"/><stop offset="0.585938" stop-color="#ff2f4d"/><stop offset="0.589844" stop-color="#ff2e4e"/><stop offset="0.59375" stop-color="#ff2e4e"/><stop offset="0.597656" stop-color="#ff2d4f"/><stop offset="0.601562" stop-color="#ff2d50"/><stop offset="0.605469" stop-color="#ff2c50"/><stop offset="0.609375" stop-color="#ff2c51"/><stop offset="0.613281" stop-color="#ff2b51"/><stop offset="0.617188" stop-color="#ff2b52"/><stop offset="0.621094" stop-color="#ff2a52"/><stop offset="0.625" stop-color="#ff2a53"/><stop offset="0.628906" stop-color="#ff2a54"/><stop offset="0.632813" stop-color="#ff2954"/><stop offset="0.636719" stop-color="#ff2955"/><stop offset="0.640625" stop-color="#ff2855"/><stop offset="0.644531" stop-color="#ff2856"/><stop offset="0.648438" stop-color="#ff2756"/><stop offset="0.652344" stop-color="#ff2757"/><stop offset="0.65625" stop-color="#ff2658"/><stop offset="0.660156" stop-color="#ff2658"/><stop offset="0.664063" stop-color="#ff2559"/><stop offset="0.667969" stop-color="#ff2559"/><stop offset="0.671875" stop-color="#ff245a"/><stop offset="0.675781" stop-color="#ff245a"/><stop offset="0.679688" stop-color="#ff245b"/><stop offset="0.683594" stop-color="#ff235c"/><stop offset="0.6875" stop-color="#ff235c"/><stop offset="0.691406" stop-color="#ff225d"/><stop offset="0.695313" stop-color="#ff225d"/><stop offset="0.699219" stop-color="#ff215e"/><stop offset="0.703125" stop-color="#ff215e"/><stop offset="0.707031" stop-color="#ff205f"/><stop offset="0.710938" stop-color="#ff205f"/><stop offset="0.714844" stop-color="#ff1f60"/><stop offset="0.71875" stop-color="#ff1f61"/><stop offset="0.722656" stop-color="#ff1f61"/><stop offset="0.726562" stop-color="#ff1e62"/><stop offset="0.730469" stop-color="#ff1e62"/><stop offset="0.734375" stop-color="#ff1d63"/><stop offset="0.738281" stop-color="#ff1d63"/><stop offset="0.742188" stop-color="#ff1c64"/><stop offset="0.746094" stop-color="#ff1c65"/><stop offset="0.75" stop-color="#ff1b65"/><stop offset="0.753906" stop-color="#ff1b66"/><stop offset="0.757813" stop-color="#ff1a66"/><stop offset="0.761719" stop-color="#ff1a67"/><stop offset="0.765625" stop-color="#ff1967"/><stop offset="0.769531" stop-color="#ff1968"/><stop offset="0.773438" stop-color="#ff1969"/><stop offset="0.777344" stop-color="#ff1869"/><stop offset="0.78125" stop-color="#ff186a"/><stop offset="0.785156" stop-color="#ff176a"/><stop offset="0.789063" stop-color="#ff176b"/><stop offset="0.792969" stop-color="#ff166b"/><stop offset="0.796875" stop-color="#ff166c"/><stop offset="0.800781" stop-color="#ff156d"/><stop offset="0.804688" stop-color="#ff156d"/><stop offset="0.808594" stop-color="#ff146e"/><stop offset="0.8125" stop-color="#ff146e"/><stop offset="0.816406" stop-color="#ff146f"/><stop offset="0.820312" stop-color="#ff136f"/><stop offset="0.824219" stop-color="#ff1370"/><stop offset="0.828125" stop-color="#ff1271"/><stop offset="0.832031" stop-color="#ff1271"/><stop offset="0.835938" stop-color="#ff1172"/><stop offset="0.839844" stop-color="#ff1172"/><stop offset="0.84375" stop-color="#ff1073"/><stop offset="0.847656" stop-color="#ff1073"/><stop offset="0.851562" stop-color="#ff0f74"/><stop offset="0.855469" stop-color="#ff0f74"/><stop offset="0.859375" stop-color="#ff0e75"/><stop offset="0.863281" stop-color="#ff0e76"/><stop offset="0.867188" stop-color="#ff0e76"/><stop offset="0.871094" stop-color="#ff0d77"/><stop offset="0.875" stop-color="#ff0d77"/><stop offset="0.878906" stop-color="#ff0c78"/><stop offset="0.882812" stop-color="#ff0c78"/><stop offset="0.886719" stop-color="#ff0b79"/><stop offset="0.890625" stop-color="#ff0b7a"/><stop offset="0.894531" stop-color="#ff0a7a"/><stop offset="0.898438" stop-color="#ff0a7b"/><stop offset="0.902344" stop-color="#ff097b"/><stop offset="0.90625" stop-color="#ff097c"/><stop offset="0.910156" stop-color="#ff097c"/><stop offset="0.914063" stop-color="#ff087d"/><stop offset="0.917969" stop-color="#ff087e"/><stop offset="0.921875" stop-color="#ff077e"/><stop offset="0.925781" stop-color="#ff077f"/><stop offset="0.929688" stop-color="#ff067f"/><stop offset="0.933594" stop-color="#ff0680"/><stop offset="0.9375" stop-color="#ff0580"/><stop offset="0.941406" stop-color="#ff0581"/><stop offset="0.945312" stop-color="#ff0482"/><stop offset="0.949219" stop-color="#ff0482"/><stop offset="0.953125" stop-color="#ff0383"/><stop offset="0.957031" stop-color="#ff0383"/><stop offset="0.960937" stop-color="#ff0384"/><stop offset="0.964844" stop-color="#ff0284"/><stop offset="0.96875" stop-color="#ff0285"/><stop offset="0.972656" stop-color="#ff0186"/><stop offset="0.976563" stop-color="#ff0186"/><stop offset="0.984375" stop-color="#ff0087"/><stop offset="1" stop-color="#ff0087"/></linearGradient></defs><path d="M0 1080h2160V0H0zm0 0"/><g fill="#fff"><use xlink:href="#465e888ca" x="119.7017" y="323.4094"/><use xlink:href="#465e888cb" x="325.3877" y="323.4094"/></g><g fill="#fff"><use xlink:href="#465e888cc" x="503.3852" y="323.4094"/><use xlink:href="#465e888cd" x="676.8412" y="323.4094"/><use xlink:href="#465e888ce" x="870.8072" y="323.4094"/><use xlink:href="#465e888cf" x="1056.2762" y="323.4094"/></g><use xlink:href="#465e888cg" x="1153.1127" y="323.4094" fill="#fff"/><g fill="#fff"><use xlink:href="#465e888cb" x="1248.9823" y="323.4094"/><use xlink:href="#465e888cf" x="1427.1263" y="323.4094"/><use xlink:href="#465e888ch" x="1619.9203" y="323.4094"/><use xlink:href="#465e888ci" x="1787.5163" y="323.4094"/></g><g fill="#fff"><use xlink:href="#465e888cj" x="117.9521" y="912.0745"/><use xlink:href="#465e888ck" x="377.2991" y="912.0745"/></g><g fill="#fff"><use xlink:href="#465e888cl" x="587.6764" y="912.0745"/><use xlink:href="#465e888cm" x="807.1864" y="912.0745"/><use xlink:href="#465e888cn" x="988.7564" y="912.0745"/><use xlink:href="#465e888co" x="1176.2884" y="912.0745"/><use xlink:href="#465e888cp" x="1391.1914" y="912.0745"/><use xlink:href="#465e888cq" x="1607.1784" y="912.0745"/><use xlink:href="#465e888cj" x="1804.1954" y="912.0745"/></g><g fill="#fff"><use xlink:href="#465e888cr" x="133.0946" y="574.2861"/><use xlink:href="#465e888cs" x="210.2046" y="574.2861"/><use xlink:href="#465e888ct" x="258.2746" y="574.2861"/><use xlink:href="#465e888cu" x="321.8546" y="574.2861"/><use xlink:href="#465e888cv" x="350.4546" y="574.2861"/><use xlink:href="#465e888cw" x="417.0046" y="574.2861"/><use xlink:href="#465e888ct" x="483.7746" y="574.2861"/><use xlink:href="#465e888cx" x="547.3546" y="574.2861"/><use xlink:href="#465e888cy" x="614.7846" y="574.2861"/><use xlink:href="#465e888ct" x="673.3046" y="574.2861"/></g><g fill="#fff"><use xlink:href="#465e888cz" x="736.7856" y="574.2861"/><use xlink:href="#465e888cA" x="831.0556" y="574.2861"/><use xlink:href="#465e888ct" x="896.7256" y="574.2861"/><use xlink:href="#465e888cu" x="960.3056" y="574.2861"/><use xlink:href="#465e888cx" x="988.9056" y="574.2861"/><use xlink:href="#465e888cu" x="1056.3356" y="574.2861"/><use xlink:href="#465e888cB" x="1084.9356" y="574.2861"/><use xlink:href="#465e888cs" x="1146.4256" y="574.2861"/><use xlink:href="#465e888ct" x="1194.4956" y="574.2861"/><use xlink:href="#465e888cu" x="1258.0756" y="574.2861"/><use xlink:href="#465e888cC" x="1286.6756" y="574.2861"/><use xlink:href="#465e888cD" x="1352.1256" y="574.2861"/><use xlink:href="#465e888cE" x="1406.4656" y="574.2861"/><use xlink:href="#465e888cF" x="1472.6856" y="574.2861"/><use xlink:href="#465e888cs" x="1533.8456" y="574.2861"/><use xlink:href="#465e888cu" x="1581.9156" y="574.2861"/><use xlink:href="#465e888cy" x="1610.5156" y="574.2861"/><use xlink:href="#465e888cG" x="1669.0356" y="574.2861"/></g><g fill="#fff"><use xlink:href="#465e888cH" x="1729.4806" y="574.2861"/><use xlink:href="#465e888cs" x="1791.7406" y="574.2861"/><use xlink:href="#465e888cw" x="1839.8106" y="574.2861"/><use xlink:href="#465e888cG" x="1906.5806" y="574.2861"/></g><use xlink:href="#465e888cI" x="1964.4626" y="574.2861" fill="#fff"/><g clip-path="url(#J)"><path d="M2683.04-538.734L1620.765 557.446 2716.96 1619.733l1062.273-1096.18zm0 0" fill="url(#K)"/></g><use xlink:href="#465e888cL" x="2315.2393" y="856.3834" fill="#fff"/></svg>