<?xml version='1.0' encoding='UTF-8'?>
<svg xmlns="http://www.w3.org/2000/svg" xmlns:xlink="http://www.w3.org/1999/xlink" width="3240px" height="1080px" viewBox="0 0 3240 1080" x="0px" y="0px" enable-background="new 0 0 3240 1080"><defs><symbol overflow="visible" id="531d943ea"><path d="M20.14 0h72.516v-136.969h.406L151.875 0h52.375l58.813-136.969h.406V0h84.594v-277.969h-90.641l-71.297 166.781h-.406l-74.938-166.78h-90.64zm0 0"/></symbol><symbol overflow="visible" id="531d943eb"><path d="M118.844 6.047C181.688 6.047 226-22.97 226-98.703v-116.828h-84.594v123.687c0 24.156-6.453 33.422-22.562 33.422-16.11 0-22.969-9.266-22.969-33.422V-215.53H11.281v116.828C11.281-22.97 56 6.047 118.844 6.047zm0 0"/></symbol><symbol overflow="visible" id="531d943ec"><path d="M119.25 6.047c72.11 0 109.578-39.484 109.578-95.484 0-19.735-8.469-43.11-20.547-55.188v-.406h44.313v-70.5H131.328c-84.187 0-125.687 41.906-125.687 114.015C5.64-35.453 47.14 6.047 119.25 6.047zm0-62.453c-20.14 0-27.797-13.282-27.797-49.14 0-33.438 7.656-47.532 27.797-47.532 20.14 0 27.797 14.094 27.797 47.531 0 35.86-7.656 49.14-27.797 49.14zm0 0"/></symbol><symbol overflow="visible" id="531d943ed"><path d="M194.578-145.031v-70.5H-2.016v70.5h54.391v80.172c0 48.343 23.36 70.906 76.14 70.906 21.75 0 36.657-3.234 47.938-7.25v-59.625c-3.219.797-12.094 2.406-20.547 2.406-15.312 0-21.75-6.844-21.75-23.36v-63.25zm0 0"/></symbol><symbol overflow="visible" id="531d943ee"><path d="M85.406 6.047c19.344 0 32.625-2.828 43.906-6.86v-59.609c-3.218.797-9.265 2-14.093 2-14.11 0-19.344-6.844-19.344-23.36v-133.75H11.281V-68.89c0 48.344 21.344 74.938 74.125 74.938zm0 0"/></symbol><symbol overflow="visible" id="531d943ef"><path d="M240.11-215.531H155.5l-56 98.703h-.39v-98.703H14.5V0h84.61v-104.344h.39L151.469 0h92.656l-64.047-119.656zm0 0"/></symbol><symbol overflow="visible" id="531d943eg"><path d="M87.422-239.703h56.39l45.532-70.5H112.39zM119.25 6.047c72.11 0 113.594-41.5 113.594-113.61 0-72.109-41.485-114.015-113.594-114.015-72.11 0-113.61 41.906-113.61 114.016 0 72.109 41.5 113.609 113.61 113.609zm0-62.453c-20.14 0-27.797-13.282-27.797-51.157 0-37.468 7.656-51.562 27.797-51.562 20.14 0 27.797 14.094 27.797 51.563 0 37.874-7.656 51.156-27.797 51.156zm0 0"/></symbol><symbol overflow="visible" id="531d943eh"><path d="M194.578 74.531c12.094-21.36 21.36-42.297 21.36-66.469 0-48.343-31.829-61.64-62.86-72.515-30.203-10.875-59.61-20.14-59.61-57.203 0-20.156 5.235-35.453 25.376-35.453 18.125 0 22.969 10.875 27.797 32.218H226c-7.25-62.03-36.25-96.687-111.188-96.687-69.687 0-107.156 45.125-107.156 105.156 0 75.734 47.125 93.86 83.39 107.563 22.563 8.453 41.095 15.703 41.095 33.843 0 14.907-7.657 29.797-18.125 49.547zm0 0"/></symbol><symbol overflow="visible" id="531d943ei"><path d="M230.781-211.984l5.813-30.766h-173L20.859 0h172.657l5.468-30.766H61.891l13.328-76.593H190.78l5.125-29.407H80.344l13.344-75.218zm0 0"/></symbol><symbol overflow="visible" id="531d943ej"><path d="M53 0h43.422l98.812-180.531h-37.28L80.686-33.171h-1.703l-26.328-147.36H17.781zm0 0"/></symbol><symbol overflow="visible" id="531d943ek"><path d="M89.578 5.125c56.078 0 90.266-34.875 97.781-83.766 7.188-47.187-6.828-73.843-51.968-93.671-26.672-11.625-38.97-21.204-38.97-34.547 0-17.094 13.329-28.032 37.266-28.032 22.22 0 30.766 7.532 32.485 26.672l33.156-1.703c-2.39-29.75-15.047-51.64-62.219-51.64-45.828 0-73.859 22.578-73.859 53.687 0 22.906 14.703 35.219 31.453 43.766l-.672 1.703c-40.36 6.844-70.781 29.062-79.328 76.937C5.813-34.875 31.11 5.125 89.578 5.125zm2.39-29.063c-37.952 0-48.202-26.671-42.734-62.218 5.813-36.922 27.36-59.5 60.516-59.5 35.906 0 50.61 22.906 44.11 61.203-6.157 35.562-24.97 60.516-61.891 60.516zm0 0"/></symbol><symbol overflow="visible" id="531d943el"><path d="M67.703 4.438c9.219 0 18.453-2.735 23.25-4.782l-1.719-26.328c-4.093 1.031-9.906 2.063-15.718 2.063-13 0-18.47-6.844-15.735-22.922l23.938-133H47.53l-23.25 130.61C18.125-15.048 33.5 4.436 67.703 4.436zm0 0"/></symbol><symbol overflow="visible" id="531d943em"><path d="M83.078 5.125c33.516 0 52.656-16.406 62.578-36.922h1.703C146-12.312 156.594 4.437 182.234 4.437c10.266 0 19.485-2.046 24.282-4.093l-1.032-26.672c-4.109 1.031-8.547 1.719-12.656 1.719-12.64 0-15.375-8.22-12.984-22.235l23.594-133.687h-29.063l-10.938 32.14h-1.718c-4.781-17.437-17.094-37.265-54.016-37.265-46.5 0-79.672 33.172-89.922 92.312C7.516-34.188 33.171 5.125 83.078 5.125zM94.36-23.938c-38.625 0-49.562-27-42.39-65.984 8.203-43.766 25.297-66.672 61.203-66.672 34.531 0 47.86 26.672 41.375 66.328-6.844 41.032-23.938 66.329-60.188 66.329zm0 0"/></symbol><symbol overflow="visible" id="531d943en"><path d="M50.938-206.172h28.39l41.36-61.203H82.733zM67.703 4.438c9.219 0 18.453-2.735 23.25-4.782l-1.719-26.328c-4.093 1.031-9.906 2.063-15.718 2.063-13 0-18.47-6.844-15.735-22.922l23.938-133H47.53l-23.25 130.61C18.125-15.048 33.5 4.436 67.703 4.436zm0 0"/></symbol><symbol overflow="visible" id="531d943eo"><path d="M160.016-149.75l5.468-30.781H16.062l-5.468 30.781h56.078L49.578-50.266c-6.156 34.532 7.86 54.703 42.047 54.703 11.281 0 24.625-2.734 30.094-4.437l-1.703-27.016c-4.797 1.032-13.344 2.407-19.157 2.407-14.359 0-22.562-5.485-19.484-22.922L99.5-149.75zm0 0"/></symbol><symbol overflow="visible" id="531d943ep"><path d="M126.156 66.672h34.203l31.11-173.688c8.547-47.859-8.203-78.64-51.281-78.64-35.22 0-51.97 17.094-64.282 36.25h-1.719l1.72-31.125H47.53L15.391 0h34.187L67.36-100.86c5.813-33.843 33.157-54.015 60.516-54.015 27 0 34.875 17.094 29.406 47.516zm0 0"/></symbol><symbol overflow="visible" id="531d943eq"><path d="M3.766 66.672h33.156l13.687-77.61C58.47-.688 70.437 5.125 88.891 5.125c32.484 0 45.812-18.125 55.046-33.844h1.72c0 20.172 9.562 33.844 33.843 33.844 9.234 0 18.125-2.047 23.938-4.094l-1.032-26.328c-4.437 1.016-7.515 1.36-10.594 1.36-11.968 0-17.78-5.125-14.015-25.985l23.25-130.61h-34.203l-17.766 99.845c-5.812 33.156-26.672 55.39-55.734 55.39-24.281 0-36.594-13.344-30.781-46.844l19.156-108.39H47.53zm0 0"/></symbol><symbol overflow="visible" id="531d943et"><path d="M318.578 176.188h142.844V10C630.953-8.578 735.234-104.281 735.234-291.906v-214.281h-140v214.28c0 108.579-42.859 167.626-136.187 184.282v-540H320.953l.953 540c-93.812-16.188-137.14-75.703-137.14-184.281v-214.281H44.28v214.28C44.281-104.28 149.531-8.577 318.578 10zm0 0"/></symbol><clipPath id="r"><path d="M2160 0h1080v1080H2160zm0 0"/></clipPath><linearGradient id="s" gradientUnits="userSpaceOnUse" x1="-0.0572728" y1="0" x2="1.007173" y2="0" gradientTransform="rotate(44.1 1016.474 2758.736) scale(1434.70145)"><stop offset="0" stop-color="#ff6d00"/><stop offset="0.03125" stop-color="#ff6d00"/><stop offset="0.046875" stop-color="#ff6d00"/><stop offset="0.0546875" stop-color="#ff6d00"/><stop offset="0.0585938" stop-color="#ff6c01"/><stop offset="0.0625" stop-color="#ff6c01"/><stop offset="0.0664062" stop-color="#ff6c02"/><stop offset="0.0703125" stop-color="#ff6b02"/><stop offset="0.0742188" stop-color="#ff6b03"/><stop offset="0.078125" stop-color="#ff6a04"/><stop offset="0.0820312" stop-color="#ff6a04"/><stop offset="0.0859375" stop-color="#ff6905"/><stop offset="0.0898438" stop-color="#ff6905"/><stop offset="0.09375" stop-color="#ff6806"/><stop offset="0.0976562" stop-color="#ff6806"/><stop offset="0.101562" stop-color="#ff6707"/><stop offset="0.105469" stop-color="#ff6708"/><stop offset="0.109375" stop-color="#ff6608"/><stop offset="0.113281" stop-color="#ff6609"/><stop offset="0.117188" stop-color="#ff6609"/><stop offset="0.121094" stop-color="#ff650a"/><stop offset="0.125" stop-color="#ff650a"/><stop offset="0.128906" stop-color="#ff640b"/><stop offset="0.132812" stop-color="#ff640b"/><stop offset="0.136719" stop-color="#ff630c"/><stop offset="0.140625" stop-color="#ff630d"/><stop offset="0.144531" stop-color="#ff620d"/><stop offset="0.148438" stop-color="#ff620e"/><stop offset="0.152344" stop-color="#ff610e"/><stop offset="0.15625" stop-color="#ff610f"/><stop offset="0.160156" stop-color="#ff610f"/><stop offset="0.164062" stop-color="#ff6010"/><stop offset="0.167969" stop-color="#ff6011"/><stop offset="0.171875" stop-color="#ff5f11"/><stop offset="0.175781" stop-color="#ff5f12"/><stop offset="0.179688" stop-color="#ff5e12"/><stop offset="0.183594" stop-color="#ff5e13"/><stop offset="0.1875" stop-color="#ff5d13"/><stop offset="0.191406" stop-color="#ff5d14"/><stop offset="0.195312" stop-color="#ff5c15"/><stop offset="0.199219" stop-color="#ff5c15"/><stop offset="0.203125" stop-color="#ff5b16"/><stop offset="0.207031" stop-color="#ff5b16"/><stop offset="0.210938" stop-color="#ff5b17"/><stop offset="0.214844" stop-color="#ff5a17"/><stop offset="0.21875" stop-color="#ff5a18"/><stop offset="0.222656" stop-color="#ff5919"/><stop offset="0.226562" stop-color="#ff5919"/><stop offset="0.230469" stop-color="#ff581a"/><stop offset="0.234375" stop-color="#ff581a"/><stop offset="0.238281" stop-color="#ff571b"/><stop offset="0.242188" stop-color="#ff571b"/><stop offset="0.246094" stop-color="#ff561c"/><stop offset="0.25" stop-color="#ff561d"/><stop offset="0.253906" stop-color="#ff561d"/><stop offset="0.257812" stop-color="#ff551e"/><stop offset="0.261719" stop-color="#ff551e"/><stop offset="0.265625" stop-color="#ff541f"/><stop offset="0.269531" stop-color="#ff541f"/><stop offset="0.273438" stop-color="#ff5320"/><stop offset="0.277344" stop-color="#ff5320"/><stop offset="0.28125" stop-color="#ff5221"/><stop offset="0.285156" stop-color="#ff5222"/><stop offset="0.289062" stop-color="#ff5122"/><stop offset="0.292969" stop-color="#ff5123"/><stop offset="0.296875" stop-color="#ff5023"/><stop offset="0.300781" stop-color="#ff5024"/><stop offset="0.304688" stop-color="#ff5024"/><stop offset="0.308594" stop-color="#ff4f25"/><stop offset="0.3125" stop-color="#ff4f26"/><stop offset="0.316406" stop-color="#ff4e26"/><stop offset="0.320312" stop-color="#ff4e27"/><stop offset="0.324219" stop-color="#ff4d27"/><stop offset="0.328125" stop-color="#ff4d28"/><stop offset="0.332031" stop-color="#ff4c28"/><stop offset="0.335937" stop-color="#ff4c29"/><stop offset="0.339844" stop-color="#ff4b2a"/><stop offset="0.34375" stop-color="#ff4b2a"/><stop offset="0.347656" stop-color="#ff4b2b"/><stop offset="0.351562" stop-color="#ff4a2b"/><stop offset="0.355469" stop-color="#ff4a2c"/><stop offset="0.359375" stop-color="#ff492c"/><stop offset="0.363281" stop-color="#ff492d"/><stop offset="0.367188" stop-color="#ff482e"/><stop offset="0.371094" stop-color="#ff482e"/><stop offset="0.375" stop-color="#ff472f"/><stop offset="0.378906" stop-color="#ff472f"/><stop offset="0.382812" stop-color="#ff4630"/><stop offset="0.386719" stop-color="#ff4630"/><stop offset="0.390625" stop-color="#ff4531"/><stop offset="0.394531" stop-color="#ff4532"/><stop offset="0.398438" stop-color="#ff4532"/><stop offset="0.402344" stop-color="#f43"/><stop offset="0.40625" stop-color="#f43"/><stop offset="0.410156" stop-color="#ff4334"/><stop offset="0.414063" stop-color="#ff4334"/><stop offset="0.417969" stop-color="#ff4235"/><stop offset="0.421875" stop-color="#ff4236"/><stop offset="0.425781" stop-color="#ff4136"/><stop offset="0.429688" stop-color="#ff4137"/><stop offset="0.433594" stop-color="#ff4037"/><stop offset="0.4375" stop-color="#ff4038"/><stop offset="0.441406" stop-color="#ff3f38"/><stop offset="0.445312" stop-color="#ff3f39"/><stop offset="0.449219" stop-color="#ff3f39"/><stop offset="0.453125" stop-color="#ff3e3a"/><stop offset="0.457031" stop-color="#ff3e3b"/><stop offset="0.460937" stop-color="#ff3d3b"/><stop offset="0.464844" stop-color="#ff3d3c"/><stop offset="0.46875" stop-color="#ff3c3c"/><stop offset="0.472656" stop-color="#ff3c3d"/><stop offset="0.476562" stop-color="#ff3b3d"/><stop offset="0.480469" stop-color="#ff3b3e"/><stop offset="0.484375" stop-color="#ff3a3f"/><stop offset="0.488281" stop-color="#ff3a3f"/><stop offset="0.492188" stop-color="#ff3a40"/><stop offset="0.496094" stop-color="#ff3940"/><stop offset="0.5" stop-color="#ff3941"/><stop offset="0.503906" stop-color="#ff3841"/><stop offset="0.507812" stop-color="#ff3842"/><stop offset="0.511719" stop-color="#ff3743"/><stop offset="0.515625" stop-color="#ff3743"/><stop offset="0.519531" stop-color="#ff3644"/><stop offset="0.523438" stop-color="#ff3644"/><stop offset="0.527344" stop-color="#ff3545"/><stop offset="0.53125" stop-color="#ff3545"/><stop offset="0.535156" stop-color="#ff3446"/><stop offset="0.539062" stop-color="#ff3447"/><stop offset="0.542969" stop-color="#ff3447"/><stop offset="0.546875" stop-color="#ff3348"/><stop offset="0.550781" stop-color="#ff3348"/><stop offset="0.554688" stop-color="#ff3249"/><stop offset="0.558594" stop-color="#ff3249"/><stop offset="0.5625" stop-color="#ff314a"/><stop offset="0.566406" stop-color="#ff314b"/><stop offset="0.570312" stop-color="#ff304b"/><stop offset="0.574219" stop-color="#ff304c"/><stop offset="0.578125" stop-color="#ff2f4c"/><stop offset="0.582031" stop-color="#ff2f4d"/><stop offset="0.585938" stop-color="#ff2f4d"/><stop offset="0.589844" stop-color="#ff2e4e"/><stop offset="0.59375" stop-color="#ff2e4f"/><stop offset="0.597656" stop-color="#ff2d4f"/><stop offset="0.601562" stop-color="#ff2d50"/><stop offset="0.605469" stop-color="#ff2c50"/><stop offset="0.609375" stop-color="#ff2c51"/><stop offset="0.613281" stop-color="#ff2b51"/><stop offset="0.617187" stop-color="#ff2b52"/><stop offset="0.621094" stop-color="#ff2a52"/><stop offset="0.625" stop-color="#ff2a53"/><stop offset="0.628906" stop-color="#ff2954"/><stop offset="0.632813" stop-color="#ff2954"/><stop offset="0.636719" stop-color="#ff2955"/><stop offset="0.640625" stop-color="#ff2855"/><stop offset="0.644531" stop-color="#ff2856"/><stop offset="0.648438" stop-color="#ff2756"/><stop offset="0.652344" stop-color="#ff2757"/><stop offset="0.65625" stop-color="#ff2658"/><stop offset="0.660156" stop-color="#ff2658"/><stop offset="0.664062" stop-color="#ff2559"/><stop offset="0.667969" stop-color="#ff2559"/><stop offset="0.671875" stop-color="#ff245a"/><stop offset="0.675781" stop-color="#ff245a"/><stop offset="0.679688" stop-color="#ff245b"/><stop offset="0.683594" stop-color="#ff235c"/><stop offset="0.6875" stop-color="#ff235c"/><stop offset="0.691406" stop-color="#ff225d"/><stop offset="0.695312" stop-color="#ff225d"/><stop offset="0.699219" stop-color="#ff215e"/><stop offset="0.703125" stop-color="#ff215e"/><stop offset="0.707031" stop-color="#ff205f"/><stop offset="0.710938" stop-color="#ff2060"/><stop offset="0.714844" stop-color="#ff1f60"/><stop offset="0.71875" stop-color="#ff1f61"/><stop offset="0.722656" stop-color="#ff1e61"/><stop offset="0.726562" stop-color="#ff1e62"/><stop offset="0.730469" stop-color="#ff1e62"/><stop offset="0.734375" stop-color="#ff1d63"/><stop offset="0.738281" stop-color="#ff1d64"/><stop offset="0.742188" stop-color="#ff1c64"/><stop offset="0.746094" stop-color="#ff1c65"/><stop offset="0.75" stop-color="#ff1b65"/><stop offset="0.753906" stop-color="#ff1b66"/><stop offset="0.757812" stop-color="#ff1a66"/><stop offset="0.761719" stop-color="#ff1a67"/><stop offset="0.765625" stop-color="#ff1967"/><stop offset="0.769531" stop-color="#ff1968"/><stop offset="0.773438" stop-color="#ff1969"/><stop offset="0.777344" stop-color="#ff1869"/><stop offset="0.78125" stop-color="#ff186a"/><stop offset="0.785156" stop-color="#ff176a"/><stop offset="0.789062" stop-color="#ff176b"/><stop offset="0.792969" stop-color="#ff166b"/><stop offset="0.796875" stop-color="#ff166c"/><stop offset="0.800781" stop-color="#ff156d"/><stop offset="0.804688" stop-color="#ff156d"/><stop offset="0.808594" stop-color="#ff146e"/><stop offset="0.8125" stop-color="#ff146e"/><stop offset="0.816406" stop-color="#ff136f"/><stop offset="0.820312" stop-color="#ff136f"/><stop offset="0.824219" stop-color="#ff1370"/><stop offset="0.828125" stop-color="#ff1271"/><stop offset="0.832031" stop-color="#ff1271"/><stop offset="0.835938" stop-color="#ff1172"/><stop offset="0.839844" stop-color="#ff1172"/><stop offset="0.84375" stop-color="#ff1073"/><stop offset="0.847656" stop-color="#ff1073"/><stop offset="0.851562" stop-color="#ff0f74"/><stop offset="0.855469" stop-color="#ff0f75"/><stop offset="0.859375" stop-color="#ff0e75"/><stop offset="0.863281" stop-color="#ff0e76"/><stop offset="0.867187" stop-color="#ff0e76"/><stop offset="0.871094" stop-color="#ff0d77"/><stop offset="0.875" stop-color="#ff0d77"/><stop offset="0.878906" stop-color="#ff0c78"/><stop offset="0.882813" stop-color="#ff0c79"/><stop offset="0.886719" stop-color="#ff0b79"/><stop offset="0.890625" stop-color="#ff0b7a"/><stop offset="0.894531" stop-color="#ff0a7a"/><stop offset="0.898438" stop-color="#ff0a7b"/><stop offset="0.902344" stop-color="#ff097b"/><stop offset="0.90625" stop-color="#ff097c"/><stop offset="0.910156" stop-color="#ff087d"/><stop offset="0.914062" stop-color="#ff087d"/><stop offset="0.917969" stop-color="#ff087e"/><stop offset="0.921875" stop-color="#ff077e"/><stop offset="0.925781" stop-color="#ff077f"/><stop offset="0.929688" stop-color="#ff067f"/><stop offset="0.933594" stop-color="#ff0680"/><stop offset="0.9375" stop-color="#ff0580"/><stop offset="0.941406" stop-color="#ff0581"/><stop offset="0.945312" stop-color="#ff0482"/><stop offset="0.949219" stop-color="#ff0482"/><stop offset="0.953125" stop-color="#ff0383"/><stop offset="0.957031" stop-color="#ff0383"/><stop offset="0.960938" stop-color="#ff0384"/><stop offset="0.964844" stop-color="#ff0284"/><stop offset="0.96875" stop-color="#ff0285"/><stop offset="0.972656" stop-color="#ff0186"/><stop offset="0.976562" stop-color="#ff0186"/><stop offset="0.984375" stop-color="#ff0087"/><stop offset="1" stop-color="#ff0087"/></linearGradient></defs><path d="M0 1080h2160V0H0zm0 0"/><g fill="#fff"><use xlink:href="#531d943ea" x="117.602" y="889.4224"/><use xlink:href="#531d943eb" x="485.612" y="889.4224"/><use xlink:href="#531d943ec" x="722.915" y="889.4224"/></g><g fill="#fff"><use xlink:href="#531d943ed" x="982.3832" y="889.4224"/><use xlink:href="#531d943ee" x="1184.1542" y="889.4224"/><use xlink:href="#531d943ef" x="1316.5532" y="889.4224"/></g><use xlink:href="#531d943eg" x="1554.2792" y="889.4224" fill="#fff"/><use xlink:href="#531d943eh" x="1799.9999" y="889.4224" fill="#fff"/><use xlink:href="#531d943ei" x="114.5619" y="396.8972" fill="#fff"/><use xlink:href="#531d943ej" x="339.5472" y="396.8972" fill="#fff"/><g fill="#fff"><use xlink:href="#531d943ek" x="518.6882" y="396.8972"/><use xlink:href="#531d943el" x="723.3182" y="396.8972"/></g><g fill="#fff"><use xlink:href="#531d943em" x="838.5213" y="396.8972"/><use xlink:href="#531d943en" x="1074.7433" y="396.8972"/></g><g fill="#fff"><use xlink:href="#531d943eo" x="1191.6696" y="396.8972"/><use xlink:href="#531d943ep" x="1356.4506" y="396.8972"/><use xlink:href="#531d943eq" x="1572.9276" y="396.8972"/></g><use xlink:href="#531d943em" x="1800.9644" y="396.8972" fill="#fff"/><g clip-path="url(#r)"><path d="M2683.04-539.734L1620.265 556.96 2716.96 1619.734 3779.734 523.04zm0 0" fill="url(#s)"/></g><use xlink:href="#531d943et" x="2305.0005" y="805.9862" fill="#fff"/></svg>