<svg height="857" viewBox="0 0 1640 857" width="1640" xmlns="http://www.w3.org/2000/svg" xmlns:xlink="http://www.w3.org/1999/xlink"><defs><symbol overflow="visible"><path d="M1 5v-22h9.703V5zm2-2h5.703v-18H3zm0 0"/></symbol><symbol id="b" overflow="visible"><path d="M5.547.188c-.762 0-1.524-.126-2.28-.376-.75-.257-1.435-.617-2.048-1.078l.514-2.36c.614.45 1.24.81 1.875 1.08.632.273 1.312.405 2.03.405.626 0 1.087-.188 1.39-.563.302-.383.454-.883.454-1.5 0-.676-.18-1.176-.53-1.5-.356-.332-1.013-.723-1.97-1.172-1.293-.594-2.21-1.238-2.75-1.938-.543-.707-.812-1.624-.812-2.75 0-1.35.39-2.453 1.172-3.296.79-.85 1.898-1.28 3.328-1.28.726 0 1.43.132 2.11.39.687.25 1.288.59 1.812 1.016l-.39 2.234c-.587-.426-1.15-.742-1.688-.953-.543-.22-1.07-.328-1.579-.328-.554 0-.976.163-1.265.483-.293.324-.438.797-.438 1.422 0 .617.176 1.078.532 1.39.363.313 1.02.696 1.968 1.14C8.274-8.686 9.19-8 9.734-7.28c.54.71.813 1.604.813 2.686 0 1.46-.45 2.62-1.344 3.485C8.305-.24 7.086.19 5.547.19zm0 0"/></symbol><symbol id="c" overflow="visible"><path d="M1.78 0v-2.234h2.86v-11.532H1.78V-16h5.923v13.766h2.703V0zm0 0"/></symbol><symbol id="d" overflow="visible"><path d="M5-1.813c.29 0 .566-.078.828-.234.27-.164.52-.414.75-.75v-2.14H4.906c-.355 0-.605.11-.75.328-.148.22-.218.637-.218 1.25 0 .493.082.872.25 1.14.164.275.437.408.812.408zM4.156.204c-.875 0-1.59-.316-2.14-.953-.555-.645-.83-1.484-.83-2.516.002-1.07.29-1.906.877-2.5.593-.593 1.378-.89 2.36-.89h2.155v-1.766c0-.562-.11-.96-.328-1.203-.21-.25-.53-.375-.97-.375-.428 0-.74.137-.936.406-.2.274-.356.774-.47 1.5l-2.452-.5c.207-1.258.63-2.176 1.266-2.75.632-.57 1.54-.86 2.718-.86 1.313 0 2.317.282 3.016.845.707.563 1.062 1.493 1.062 2.782v5.172c0 .594.11.97.329 1.125.226.147.554.167.984.06v2.204c-.856.196-1.54.16-2.047-.11-.512-.28-.867-.788-1.063-1.53h-.453c-.293.53-.714.976-1.265 1.328-.544.35-1.15.53-1.814.53zM3.984-14l1.563-4H9.36l-3.407 4zm0 0"/></symbol><symbol id="e" overflow="visible"><path d="M7.875 0H3.812L1.235-12h2.89l1.798 9.22L7.702-12h2.736zm0 0"/></symbol><symbol id="f" overflow="visible"><path d="M5-1.813c.29 0 .566-.078.828-.234.27-.164.52-.414.75-.75v-2.14H4.906c-.355 0-.605.11-.75.328-.148.22-.218.637-.218 1.25 0 .493.082.872.25 1.14.164.275.437.408.812.408zM4.156.204c-.875 0-1.59-.316-2.14-.953-.555-.645-.83-1.484-.83-2.516.002-1.07.29-1.906.877-2.5.593-.593 1.378-.89 2.36-.89h2.155v-1.766c0-.562-.11-.96-.328-1.203-.21-.25-.53-.375-.97-.375-.428 0-.74.137-.936.406-.2.274-.356.774-.47 1.5l-2.452-.5c.207-1.258.63-2.176 1.266-2.75.632-.57 1.54-.86 2.718-.86 1.313 0 2.317.282 3.016.845.707.563 1.062 1.493 1.062 2.782v5.172c0 .594.11.97.329 1.125.226.147.554.167.984.06v2.204c-.856.196-1.54.16-2.047-.11-.512-.28-.867-.788-1.063-1.53h-.453c-.293.53-.714.976-1.265 1.328-.544.35-1.15.53-1.814.53zm0 0"/></symbol><symbol id="n" overflow="visible"><path d="M1.313 0v-16h4.562c1.406 0 2.504.516 3.297 1.547.8 1.03 1.203 2.418 1.203 4.156v4.672c0 1.71-.406 3.074-1.22 4.094C8.353-.51 7.26 0 5.876 0zm3.093-2.313h1.157c.632 0 1.082-.253 1.343-.765.27-.508.407-1.414.407-2.72v-4.327c0-1.332-.137-2.258-.407-2.78-.26-.52-.71-.783-1.343-.783H4.405zm0 0"/></symbol><symbol id="o" overflow="visible"><path d="M1.64 0v-2.234h2.673v-7.532H1.64V-12h5.766v9.766h2.672V0zM6-14.016c-.574 0-1.043-.093-1.406-.28-.367-.188-.547-.524-.547-1.017v-.234c0-.488.18-.836.547-1.047.363-.207.832-.312 1.406-.312.582 0 1.05.105 1.406.312.364.21.547.56.547 1.047v.235c0 .492-.183.828-.547 1.015-.367.188-.836.28-1.406.28zm0 0"/></symbol><symbol id="p" overflow="visible"><path d="M5.563-2.203c.332 0 .628-.094.89-.28.258-.197.492-.505.703-.923v-5.906c-.26-.227-.508-.39-.734-.485-.22-.1-.438-.156-.656-.156-.45 0-.766.152-.954.453-.18.293-.265.793-.265 1.5v3.938c0 .625.082 1.093.25 1.406.176.304.43.453.766.453zm1.156.515c-.15.543-.423.997-.83 1.36-.406.35-.945.53-1.61.53-.936 0-1.64-.362-2.108-1.093-.46-.727-.688-1.665-.688-2.813v-4.313c0-1.29.329-2.3.985-3.03.655-.74 1.565-1.11 2.733-1.11.344 0 .68.043 1.016.125.33.085.643.214.936.39V-16h3.063V0H7.155v-1.688zm0 0"/></symbol><symbol id="r" overflow="visible"><path d="M1.313 0v-2.313h3v-11.374h-3V-16h9.093v2.313h-3v11.374h3V0zm0 0"/></symbol><symbol id="s" overflow="visible"><path d="M1.766 0v-12h3.046v2.016h.47c.206-.77.55-1.332 1.03-1.688.49-.35 1.055-.53 1.704-.53.79 0 1.38.292 1.765.874.396.586.595 1.406.595 2.47v2.046H7.64v-1.125c0-.696-.077-1.18-.234-1.454-.148-.282-.422-.422-.828-.422-.336 0-.664.132-.984.39-.313.25-.574.656-.782 1.22V0zm0 0"/></symbol><symbol id="t" overflow="visible"><path d="M10.297-2.72c-.262 1.044-.72 1.794-1.375 2.25-.65.45-1.606.673-2.875.673C4.64.203 3.523-.16 2.703-.89c-.812-.74-1.22-1.77-1.22-3.094v-4.14c0-1.282.396-2.282 1.19-3 .788-.72 1.85-1.08 3.186-1.08 1.343 0 2.406.372 3.187 1.11.78.742 1.172 1.805 1.172 3.188v2.484H4.546v1.578c0 .668.117 1.168.36 1.5.238.324.648.485 1.234.485.477 0 .848-.113 1.11-.343.27-.227.453-.633.547-1.22zm-5.75-5.577v1.14h2.61v-1.077c0-.72-.102-1.223-.298-1.516-.188-.3-.524-.453-1-.453-.493 0-.837.14-1.032.422-.187.28-.28.776-.28 1.483zm0 0"/></symbol><symbol id="u" overflow="visible"><path d="M1.484 0v-12h3.063v1.688H5c.207-.594.547-1.055 1.016-1.39.468-.333 1.004-.5 1.61-.5.81 0 1.444.307 1.905.92.458.618.69 1.47.69 2.563V0H7.155v-8.188c0-.53-.09-.93-.265-1.203-.167-.282-.413-.422-.734-.422-.336 0-.64.117-.922.343-.28.232-.51.572-.687 1.017V0zm0 0"/></symbol><symbol id="O" overflow="visible"><path d="M4.922-4.438l-1.375-6.828L3.875 0H1.187v-16H4l1.906 7.984L7.78-16h2.736V0H7.812l.344-11.094-1.344 6.656zm0 0"/></symbol><symbol id="P" overflow="visible"><path d="M7.484 0L5.72-3.484 4.124 0h-3.03l3.264-6.125L1.374-12h3.03l1.532 3 1.33-3h3.014L7.345-6.28 10.562 0zm0 0"/></symbol><symbol id="Q" overflow="visible"><path d="M3.406-8.906V0H.937v-12h2.438v1.547h.484c.144-.57.35-1 .624-1.28.282-.283.625-.423 1.032-.423.375 0 .675.133.906.39.238.262.406.7.5 1.313h.422c.156-.57.375-1 .656-1.28.29-.283.656-.423 1.094-.423.57 0 .992.234 1.265.703.28.46.42 1.164.42 2.11V0H8.298v-8.953c0-.406-.03-.707-.094-.906-.055-.195-.152-.296-.297-.296-.18 0-.35.12-.515.36-.156.23-.288.526-.39.89V0H4.72v-8.953c0-.406-.032-.707-.095-.906-.055-.195-.168-.296-.344-.296-.178 0-.34.117-.483.344-.137.218-.266.523-.39.906zm0 0"/></symbol><symbol id="V" overflow="visible"><path d="M10.688.78c0 1.083-.32 1.923-.954 2.517-.636.6-1.496.906-2.578.906H4.594c-1.21 0-2.106-.258-2.688-.766-.574-.5-.86-1.21-.86-2.124 0-.65.16-1.168.485-1.563.322-.395.712-.625 1.173-.688v-.406c-.375-.113-.695-.32-.953-.625-.25-.31-.375-.788-.375-1.436 0-.645.195-1.192.594-1.64.405-.458.893-.735 1.468-.83v-.358c-.532-.207-.938-.516-1.22-.922-.28-.414-.42-.867-.42-1.36v-.328c0-.957.347-1.722 1.046-2.297.707-.57 1.625-.86 2.75-.86h5.093v1.984l-2.484-.421v.374c.375.137.68.403.922.797.25.387.375.805.375 1.25v.329c0 .95-.36 1.7-1.078 2.25-.71.542-1.617.812-2.72.812H4.657c-.336 0-.6.086-.797.25-.188.168-.282.445-.282.828 0 .375.094.656.28.844.19.18.447.265.783.265h2.626c1.03 0 1.86.258 2.484.766.625.512.938 1.328.938 2.453zM5.64-6.265c.383 0 .66-.13.83-.39.163-.27.25-.664.25-1.188v-.78c0-.5-.09-.876-.267-1.126-.168-.258-.437-.39-.812-.39-.386 0-.667.132-.843.39-.168.25-.25.625-.25 1.125v.78c0 .525.078.92.234 1.19.157.26.443.39.86.39zm-.593 8.61h2.03c.333 0 .603-.094.814-.28.22-.18.33-.517.33-1.017 0-.5-.107-.84-.314-1.016-.21-.175-.468-.264-.78-.264H3.92V.937c0 .458.07.805.22 1.047.143.24.444.36.905.36zm0 0"/></symbol><symbol id="W" overflow="visible"><path d="M5.875.203c-1.355 0-2.422-.367-3.203-1.11-.78-.738-1.172-1.75-1.172-3.03v-4.047c0-1.313.39-2.344 1.172-3.094.78-.75 1.848-1.125 3.203-1.125 1.352 0 2.414.383 3.188 1.14.78.762 1.17 1.805 1.17 3.126v4.03c0 1.282-.39 2.29-1.17 3.016C8.288-.16 7.226.202 5.874.202zm0-2.25c.457 0 .79-.144 1-.437.207-.3.313-.813.313-1.532v-3.89c0-.727-.106-1.25-.313-1.563-.21-.32-.543-.483-1-.483-.45 0-.78.164-1 .484-.21.314-.313.83-.313 1.548v3.844c0 .73.102 1.25.313 1.562.22.313.55.47 1 .47zm0 0"/></symbol><symbol id="Z" overflow="visible"><path d="M4.406-8.234h1.39c.5 0 .876-.15 1.126-.454.25-.312.375-.874.375-1.687v-1.25c0-.79-.125-1.332-.375-1.625-.25-.29-.625-.438-1.125-.438h-1.39zm0 8.234H1.313v-16h4.984c1.28 0 2.25.37 2.906 1.11.664.73 1 1.792 1 3.187v1.344c0 1.087-.183 1.977-.547 2.672-.355.7-.883 1.172-1.578 1.422L10.64 0H7.454L5.047-5.938h-.64zm0 0"/></symbol><symbol id="aa" overflow="visible"><path d="M3.875 0v-9.766h-2.39V-12h2.39v-.72c0-1.155.363-2.065 1.094-2.733.737-.664 1.702-1 2.89-1 .437 0 .867.047 1.296.14.426.086.828.215 1.203.39l-.297 2.048c-.376-.164-.71-.273-1-.328-.282-.063-.547-.094-.797-.094-.418 0-.746.137-.985.406-.23.26-.343.7-.343 1.312V-12h3.282v2.234H6.936V0zm0 0"/></symbol><symbol id="ac" overflow="visible"><path d="M2.094 0v-16h8.61v2.313H5.155v5.25H9.64v2.312H5.157V0zm0 0"/></symbol><symbol id="ad" overflow="visible"><path d="M1.313 0v-16h9.062v2.313h-5.97v3.906h5.22v2.342h-5.22v5.125h5.97V0zm0 0"/></symbol><symbol id="ae" overflow="visible"><path d="M1.64 4l6-20h2.438l-6 20zm0 0"/></symbol><symbol id="af" overflow="visible"><path d="M2.078 0v-16H5.14v13.688h5.266V0zm0 0"/></symbol><symbol id="aC" overflow="visible"><path d="M1.344 0v-3.36c0-1.238.19-2.19.578-2.86.394-.675 1.14-1.343 2.234-2l1.422-.796c.664-.382 1.094-.718 1.28-1 .197-.29.298-.754.298-1.39v-.578c0-.676-.105-1.172-.312-1.485-.2-.32-.528-.483-.985-.483-.48 0-.81.21-.985.625-.168.406-.277 1.187-.328 2.344l-3.063-.204c.063-1.78.438-3.062 1.125-3.843.687-.783 1.765-1.173 3.234-1.173 1.445 0 2.535.344 3.265 1.03.738.69 1.11 1.72 1.11 3.095V-11c0 .992-.197 1.777-.58 2.36-.386.574-1.12 1.183-2.203 1.828l-1.42.796c-.69.43-1.134.797-1.33 1.11-.187.312-.28.812-.28 1.5v1.094h5.968V0zm0 0"/></symbol><symbol id="aD" overflow="visible"><path d="M5.86-8.078c.53 0 .906-.195 1.124-.594.22-.394.329-1.055.329-1.984v-.828c0-.883-.11-1.516-.33-1.89-.217-.384-.592-.58-1.124-.58-.524 0-.89.196-1.11.58-.22.374-.328 1.007-.328 1.89v.828c0 .93.11 1.59.328 1.984.22.4.586.594 1.11.594zM5.81.202c-1.417 0-2.464-.304-3.14-.92-.68-.614-1.086-1.618-1.22-3.016l3.204-.47c.07.856.196 1.43.375 1.72.177.293.517.437 1.017.437.457 0 .78-.226.97-.687.194-.457.295-1.243.295-2.36v-2.36h-.17c-.25.48-.603.845-1.048 1.095-.438.243-.953.36-1.547.36-1.074 0-1.875-.375-2.406-1.125-.53-.758-.796-1.88-.796-3.36v-1c0-1.55.375-2.722 1.125-3.515.75-.8 1.878-1.203 3.39-1.203 1.488 0 2.613.46 3.374 1.375.758.918 1.14 2.273 1.14 4.062v5.532c0 1.812-.386 3.171-1.155 4.078C8.456-.25 7.32.204 5.81.204zm0 0"/></symbol><symbol id="aE" overflow="visible"><path d="M3.78-6.313h2.486v-5.375zm7.345 2.235H9.312V0H6.267v-4.078H1.187v-2.234L5.577-16h3.736v9.688h1.812zm0 0"/></symbol><symbol id="aF" overflow="visible"><path d="M5.86.203c-1.43 0-2.54-.555-3.33-1.672C1.74-2.58 1.345-4.144 1.345-6.155v-3.61c0-2.05.394-3.632 1.187-4.75.79-1.125 1.9-1.687 3.33-1.687 1.425 0 2.535.562 3.327 1.687.79 1.118 1.188 2.7 1.188 4.75v3.61c0 2.01-.398 3.574-1.188 4.687C8.396-.35 7.285.204 5.86.204zm0-2.25c.663 0 1.124-.312 1.374-.937.258-.625.39-1.743.39-3.36v-3.234c0-1.645-.132-2.785-.39-3.422-.25-.633-.71-.953-1.375-.953-.67 0-1.133.32-1.39.953-.25.637-.376 1.777-.376 3.422v3.234c0 1.617.125 2.735.375 3.36.257.625.72.937 1.39.937zm0-4.312c-.337 0-.602-.07-.798-.218-.187-.145-.28-.426-.28-.844v-1.14c0-.395.093-.672.28-.83.196-.155.46-.233.797-.233.32 0 .577.078.765.234.195.156.297.433.297.828v1.14c0 .418-.106.7-.313.844-.2.148-.45.22-.75.22zm0 0"/></symbol><symbol id="aG" overflow="visible"><path d="M5.797.203C4.16.203 3-.16 2.313-.89c-.688-.727-1.063-1.993-1.126-3.797l3.047-.188c.094 1.125.243 1.883.454 2.266.207.376.582.563 1.125.563.582 0 .976-.164 1.187-.5.207-.332.313-.914.313-1.75V-5.64c0-.782-.14-1.337-.422-1.673-.273-.332-.76-.5-1.468-.5h-3.78V-16h8.28v2.234h-5.22v3.563h1.814c1.28 0 2.242.34 2.89 1.015.645.668.97 1.71.97 3.126v1.86c0 1.43-.388 2.522-1.157 3.28C8.456-.172 7.315.203 5.796.203zm0 0"/></symbol><symbol id="aR" overflow="visible"><path d="M5.906.203C4.313.203 3.14-.18 2.39-.953c-.742-.78-1.14-1.957-1.203-3.53l3.047-.205c.07.97.227 1.65.47 2.032.237.386.624.578 1.155.578.53 0 .906-.16 1.124-.485.22-.32.329-.843.329-1.562V-5.22c0-.718-.137-1.237-.407-1.56-.26-.333-.656-.5-1.187-.5H4.202v-2.314H5.72c.487 0 .827-.11 1.014-.328.188-.226.282-.656.282-1.28v-1.064c0-.593-.094-1.015-.282-1.265-.187-.26-.484-.392-.89-.392-.418 0-.727.18-.922.53-.2.345-.324.915-.375 1.704l-3.063-.187c.063-1.47.438-2.555 1.125-3.266.695-.708 1.726-1.063 3.093-1.063 1.395 0 2.473.312 3.234.937.758.618 1.14 1.555 1.14 2.813v.797c0 .773-.202 1.422-.608 1.953-.408.523-.94.828-1.595.922v.577c.758.094 1.363.465 1.813 1.11.457.648.687 1.413.687 2.296v.72c0 1.386-.37 2.448-1.11 3.186-.742.73-1.86 1.093-3.36 1.093zm0 0"/></symbol><symbol id="aS" overflow="visible"><path d="M5.86.203c-1.524 0-2.657-.35-3.407-1.062-.742-.706-1.11-1.78-1.11-3.218v-.72c0-.925.22-1.686.657-2.28.438-.602 1.05-.957 1.844-1.063v-.58C3.22-8.8 2.69-9.08 2.266-9.56c-.418-.49-.625-1.133-.625-1.938v-.922c0-1.28.344-2.226 1.032-2.844.695-.625 1.758-.937 3.187-.937 1.425 0 2.484.312 3.17.937.697.618 1.048 1.563 1.048 2.844v.922c0 .805-.215 1.45-.64 1.938-.43.48-.954.76-1.58.843v.58c.79.105 1.408.464 1.845 1.078.445.605.672 1.36.672 2.265v.72c0 1.436-.375 2.51-1.125 3.218C8.508-.147 7.38.204 5.86.204zm0-9.72c.425 0 .722-.124.89-.374.176-.258.266-.704.266-1.33v-1.046c0-.613-.09-1.04-.266-1.28-.168-.25-.465-.376-.89-.376-.43 0-.73.125-.907.375-.168.242-.25.668-.25 1.28v1.048c0 .626.082 1.072.25 1.33.176.25.477.374.906.374zm0 7.44c.53 0 .906-.16 1.124-.486.22-.32.329-.878.329-1.67v-.86c0-.802-.11-1.364-.33-1.688-.217-.333-.592-.5-1.124-.5-.532 0-.907.167-1.126.5-.218.323-.328.885-.328 1.686v.86c0 .793.11 1.35.328 1.671.22.325.594.485 1.125.485zm0 0"/></symbol><symbol overflow="visible"><path d="M.734 3.64v-16H7.78v16zm1.454-1.453h4.14v-13.093h-4.14zm0 0"/></symbol><symbol id="g" overflow="visible"><path d="M.953 0v-11.64H4.28c1.01 0 1.806.382 2.392 1.14.582.75.875 1.758.875 3.016v3.39c0 1.25-.293 2.246-.875 2.985C6.086-.366 5.29 0 4.282 0zm2.25-1.688h.844c.457 0 .785-.18.984-.546.197-.375.298-1.036.298-1.985v-3.14c0-.968-.1-1.64-.297-2.015-.198-.383-.526-.578-.983-.578h-.844zm0 0"/></symbol><symbol id="h" overflow="visible"><path d="M7.484-1.984c-.187.76-.515 1.308-.984 1.64C6.03-.02 5.328.14 4.39.14c-1.023 0-1.827-.265-2.42-.796-.595-.53-.892-1.274-.892-2.235v-3.016c0-.926.285-1.65.86-2.172.582-.53 1.36-.797 2.328-.797.976 0 1.75.273 2.312.813.57.53.86 1.304.86 2.312v1.813h-4.14v1.14c0 .492.085.856.264 1.094.176.23.477.344.907.344.343 0 .612-.077.81-.234.197-.164.33-.46.392-.89zM3.297-6.03v.827h1.906V-6c0-.52-.074-.883-.22-1.094-.135-.218-.374-.328-.717-.328-.368 0-.62.106-.766.313-.137.2-.203.56-.203 1.08zm0 0"/></symbol><symbol id="i" overflow="visible"><path d="M4.078.11c-.605 0-1.18-.09-1.72-.266-.542-.188-1-.406-1.374-.656l.5-1.407c.383.22.813.42 1.282.595.468.168.906.25 1.312.25s.707-.078.906-.234c.207-.156.313-.39.313-.702 0-.344-.094-.586-.28-.735-.19-.144-.622-.332-1.298-.562-.95-.32-1.607-.68-1.97-1.078-.367-.394-.547-.94-.547-1.64 0-.758.27-1.375.813-1.844.55-.47 1.285-.703 2.203-.703.57 0 1.1.086 1.593.25.488.168.906.375 1.25.625l-.375 1.375c-.356-.207-.735-.383-1.14-.53-.4-.146-.767-.22-1.11-.22-.325 0-.575.07-.75.203-.18.137-.266.356-.266.656 0 .305.113.532.344.688.226.156.742.375 1.546.656.82.293 1.395.637 1.72 1.03.32.388.484.935.484 1.642 0 .75-.305 1.375-.907 1.875C6.015-.133 5.17.11 4.077.11zm0 0"/></symbol><symbol id="j" overflow="visible"><path d="M1.188 0v-1.625H3.14v-5.47H1.188v-1.64h4.188v7.11h1.953V0zM4-10.203c-.418 0-.762-.067-1.03-.203-.263-.133-.392-.38-.392-.735v-.157c0-.363.13-.617.39-.765.27-.157.614-.235 1.032-.235.426 0 .77.078 1.03.235.26.148.392.402.392.765v.156c0 .355-.137.6-.406.734-.262.136-.602.203-1.016.203zm0 0"/></symbol><symbol id="k" overflow="visible"><path d="M7.766.563c0 .79-.23 1.398-.688 1.828-.46.438-1.086.657-1.875.657h-1.86c-.886 0-1.542-.184-1.968-.547C.957 2.133.75 1.617.75.953c0-.47.117-.844.36-1.125.238-.29.523-.46.86-.516v-.28c-.275-.095-.5-.25-.69-.47-.186-.226-.28-.57-.28-1.03 0-.477.145-.88.438-1.204.29-.332.644-.535 1.062-.61v-.25c-.387-.144-.684-.366-.89-.67-.2-.302-.298-.634-.298-1v-.22c0-.695.254-1.254.766-1.672.508-.426 1.176-.64 2-.64h3.688v1.453L5.97-7.595v.282c.268.093.49.29.67.578.176.28.266.586.266.906v.25c0 .687-.26 1.23-.78 1.625-.513.398-1.173.594-1.985.594h-.75c-.242 0-.433.063-.578.188-.136.117-.203.313-.203.594 0 .273.066.476.203.61.132.124.32.187.562.187H5.28c.76 0 1.365.186 1.814.56.445.376.672.97.672 1.782zM4.11-4.548c.28 0 .476-.098.593-.297.125-.195.188-.484.188-.86v-.562c0-.375-.062-.648-.187-.828-.125-.187-.324-.28-.594-.28-.282 0-.493.093-.626.28-.125.18-.187.453-.187.828v.563c0 .375.055.664.172.86.124.198.335.296.64.296zm-.438 6.25h1.484c.24 0 .438-.07.594-.203.156-.125.234-.375.234-.75 0-.355-.078-.602-.234-.734-.148-.125-.34-.188-.578-.188H2.844v.86c0 .32.05.57.156.75.113.175.336.265.672.265zm0 0"/></symbol><symbol id="l" overflow="visible"><path d="M1.078 0v-8.734h2.22V-7.5h.343c.157-.426.4-.758.735-1 .344-.25.734-.375 1.172-.375.582 0 1.04.227 1.375.672.344.45.516 1.07.516 1.86V0H5.203v-5.953c0-.383-.062-.676-.187-.875-.125-.207-.305-.313-.532-.313-.25 0-.48.09-.687.265-.2.168-.367.406-.5.72V0zm0 0"/></symbol><symbol id="v" overflow="visible"><path d="M4.313.14c-1.106 0-1.938-.347-2.5-1.046C1.25-1.613.97-2.57.97-3.78v-4.064c0-1.238.284-2.203.858-2.89.57-.696 1.383-1.047 2.438-1.047 1.082 0 1.882.296 2.406.89.53.593.82 1.515.875 2.765l-2.22.14c-.054-.812-.15-1.363-.296-1.656-.147-.3-.397-.454-.75-.454-.448 0-.74.21-.874.625-.136.408-.203.993-.203 1.75v3.83c0 .75.063 1.328.188 1.734.133.406.442.61.922.61.438 0 .723-.22.86-.657.133-.438.203-1.067.203-1.89H4.312v-1.704H7.61v1.938c0 1.305-.294 2.297-.876 2.985C6.148-.195 5.344.14 4.313.14zm0 0"/></symbol><symbol id="w" overflow="visible"><path d="M1.28 0v-8.734H3.5v1.468h.344c.156-.562.406-.968.75-1.218.35-.258.765-.39 1.234-.39.57 0 1 .214 1.28.64.29.418.44 1.015.44 1.796v1.485H5.56v-.828c0-.5-.058-.85-.17-1.048-.12-.207-.322-.313-.61-.313-.243 0-.48.093-.72.28-.23.188-.417.485-.562.89V0zm0 0"/></symbol><symbol id="x" overflow="visible"><path d="M3.406-3.78V0h-2.25v-11.64h2.25v6.328h.39L5.44-8.735h2.28l-2.124 4L7.687 0h-2.36l-1.53-3.78zm0 0"/></symbol><symbol id="J" overflow="visible"><path d="M4.03.125c-.553 0-1.104-.09-1.655-.266C1.832-.33 1.335-.587.89-.923l.376-1.703c.445.313.898.57 1.36.766.456.2.952.298 1.483.298.445 0 .78-.133 1-.407.218-.28.327-.64.327-1.077 0-.5-.132-.867-.39-1.11-.25-.238-.727-.52-1.422-.843-.95-.426-1.62-.895-2.016-1.406-.387-.52-.58-1.188-.58-2 0-.99.286-1.79.86-2.406.57-.614 1.38-.922 2.423-.922.53 0 1.04.093 1.53.28.5.18.938.423 1.313.735l-.28 1.626c-.43-.312-.84-.54-1.235-.687-.386-.158-.765-.236-1.14-.236-.406 0-.715.118-.922.344-.21.23-.312.574-.312 1.03 0 .45.13.79.39 1.017.258.23.735.508 1.422.828.938.48 1.602.98 2 1.5.395.512.594 1.164.594 1.953 0 1.063-.328 1.906-.984 2.531-.65.625-1.532.938-2.657.938zm0 0"/></symbol><symbol id="K" overflow="visible"><path d="M4.313-1.484c.32 0 .55-.11.687-.329.133-.226.203-.593.203-1.093V-6c0-.406-.07-.695-.203-.875-.125-.176-.305-.266-.53-.266-.212 0-.42.074-.626.218-.2.137-.383.36-.547.672v4.28c.195.17.375.294.53.376.165.074.33.11.486.11zM4.732.11c-.26 0-.51-.032-.75-.094-.24-.063-.467-.157-.686-.282v3.172h-2.22v-11.64h2.22V-7.5h.344c.102-.438.317-.773.64-1.016.322-.238.728-.36 1.22-.36.613 0 1.086.23 1.422.688.344.46.516 1.11.516 1.954v3.343c0 .93-.243 1.663-.72 2.203-.48.53-1.14.796-1.984.796zm0 0"/></symbol><symbol id="L" overflow="visible"><path d="M4.344.14C3.3.14 2.492-.124 1.922-.655c-.563-.54-.844-1.297-.844-2.266v-2.875c0-.976.28-1.734.844-2.266.562-.54 1.363-.812 2.406-.812.957 0 1.688.258 2.188.766.5.512.812 1.297.937 2.36l-2.156.156C5.254-6.238 5.157-6.672 5-6.89c-.148-.227-.387-.344-.72-.344-.354 0-.608.11-.764.328-.15.218-.22.62-.22 1.203V-3c0 .574.07.97.22 1.188.156.218.414.328.78.328.345 0 .587-.086.735-.266.146-.188.236-.55.267-1.094l2.156.156c-.055.98-.336 1.7-.844 2.157-.5.448-1.258.67-2.266.67zm0 0"/></symbol><symbol id="M" overflow="visible"><path d="M2.47-6.47V0H.686v-8.734h1.766v1.125h.36c.1-.413.253-.722.453-.92.195-.208.445-.314.75-.314.27 0 .488.094.656.28.176.19.297.51.36.955h.312c.113-.413.273-.722.484-.92.207-.208.473-.314.797-.314.414 0 .723.172.922.516.195.336.297.844.297 1.53V0H6.03v-6.516c0-.29-.022-.507-.06-.656-.044-.144-.118-.22-.22-.22-.125 0-.25.09-.375.267-.117.168-.21.387-.28.656V0H3.437v-6.516c0-.29-.028-.507-.08-.656-.042-.144-.124-.22-.25-.22-.124 0-.24.087-.342.25-.094.17-.196.392-.297.673zm0 0"/></symbol><symbol id="R" overflow="visible"><path d="M4.484.14C3.328.14 2.454-.194 1.86-.874 1.265-1.55.97-2.555.97-3.89v-3.797c0-1.364.296-2.383.89-3.063.593-.688 1.468-1.03 2.624-1.03 1.125 0 1.954.327 2.485.983.538.65.843 1.68.905 3.094l-2.234.14C5.6-8.57 5.493-9.242 5.33-9.578c-.156-.344-.45-.516-.875-.516-.48 0-.808.188-.984.563-.18.366-.267 1.022-.267 1.967V-4c0 .875.086 1.508.266 1.89.175.376.503.563.983.563.426 0 .72-.164.875-.5.164-.332.27-.988.313-1.97l2.235.142c-.055 1.387-.352 2.402-.89 3.047-.544.648-1.376.97-2.5.97zm0 0"/></symbol><symbol id="S" overflow="visible"><path d="M2.578 3.047c-.25 0-.527-.016-.828-.047-.293-.03-.605-.074-.938-.125L.938 1.25c.27.07.516.125.735.156.226.032.437.047.625.047.47 0 .82-.125 1.062-.375.25-.242.425-.625.53-1.156l.047-.188H2.423L.687-8.734h2.235l1.36 6.843 1.374-6.844h2.172L5.858.11c-.23 1.007-.616 1.75-1.155 2.218-.543.477-1.25.72-2.125.72zm0 0"/></symbol><symbol id="T" overflow="visible"><path d="M1.297 0v-1.625h2.078V-10H1.297v-1.64h4.297v10.015h1.968V0zm0 0"/></symbol><symbol id="X" overflow="visible"><path d="M3.203-5.234V0H.953v-11.64h2.25v4.703h.422l2.016-4.704h2.58L5.47-6.28 8.17 0h-2.53L3.67-5.234zm0 0"/></symbol><symbol id="ag" overflow="visible"><path d="M5.484.14c-.906 0-1.617-.253-2.125-.765-.5-.52-.75-1.234-.75-2.14v-4.33H1.077v-1.64h1.53v-2.906h2.22v2.906h2.375v1.64H4.828v4.22c0 .43.086.76.266 1 .176.23.43.343.765.343.238 0 .468-.032.687-.095.226-.07.406-.133.53-.188l.22 1.61C7.13-.11 6.875-.03 6.53.03c-.335.072-.682.11-1.046.11zm0 0"/></symbol><symbol overflow="visible"><path d="M.906 4.547v-20h8.828v20zm1.828-1.813h5.172V-13.64H2.734zm0 0"/></symbol><symbol id="z" overflow="visible"><path d="M1.906 0v-14.547h7.828v2.11H4.688v4.765h4.078v2.11H4.687V0zm0 0"/></symbol><symbol id="A" overflow="visible"><path d="M1.625 0v-2.03H4.22v-10.486H1.624v-2.03H7v12.515h2.453V0zm0 0"/></symbol><symbol id="B" overflow="visible"><path d="M5.344.188C4.102.188 3.13-.15 2.422-.83c-.71-.676-1.063-1.594-1.063-2.75V-7.25c0-1.195.35-2.133 1.062-2.813.707-.687 1.68-1.03 2.922-1.03 1.226 0 2.195.35 2.906 1.046.707.688 1.063 1.633 1.063 2.828v3.673c0 1.168-.356 2.086-1.063 2.75-.71.656-1.68.985-2.906.985zm0-2.047c.414 0 .718-.132.906-.406.188-.27.28-.734.28-1.39v-3.531c0-.665-.093-1.14-.28-1.422-.188-.288-.492-.437-.906-.437-.407 0-.71.15-.907.438-.2.282-.296.75-.296 1.407v3.5c0 .668.098 1.14.298 1.422.195.28.5.42.906.42zm0 0"/></symbol><symbol id="C" overflow="visible"><path d="M1.594 0v-10.906h2.78v1.828h.423c.195-.695.516-1.207.953-1.53.438-.322.953-.486 1.547-.486.707 0 1.238.266 1.594.797.364.524.547 1.274.547 2.25v1.844H6.954V-7.22c0-.624-.074-1.06-.22-1.31-.135-.26-.385-.392-.75-.392-.303 0-.6.12-.89.36-.292.23-.53.6-.718 1.11V0zm0 0"/></symbol><symbol id="D" overflow="visible"><path d="M1.484 0v-2.03h2.438v-6.845H1.484v-2.03h5.25v8.874h2.422V0zM5-12.75c-.523 0-.95-.082-1.28-.25-.337-.164-.5-.473-.5-.922v-.203c0-.445.163-.766.5-.953.33-.188.757-.28 1.28-.28.53 0 .957.092 1.28.28.333.187.5.508.5.953v.203c0 .45-.167.758-.5.922-.335.168-.76.25-1.28.25zm0 0"/></symbol><symbol id="E" overflow="visible"><path d="M4.547-1.656c.27 0 .523-.07.766-.22.238-.144.46-.366.67-.67v-1.938h-1.53c-.312 0-.54.1-.672.296-.135.2-.202.58-.202 1.14 0 .45.07.794.22 1.032.155.243.405.36.75.36zM3.78.187c-.803 0-1.452-.29-1.952-.875-.5-.582-.75-1.343-.75-2.28 0-.977.266-1.735.797-2.266.54-.54 1.254-.813 2.14-.813h1.97v-1.61c0-.507-.102-.874-.298-1.093-.187-.227-.484-.344-.89-.344-.387 0-.672.125-.86.375-.18.25-.312.704-.406 1.36L1.298-7.81c.187-1.145.566-1.977 1.14-2.5.583-.52 1.407-.782 2.47-.782 1.195 0 2.113.258 2.75.766.644.512.968 1.355.968 2.53v4.704c0 .53.098.87.297 1.016.207.137.504.156.89.062v2C9.04.16 8.422.13 7.952-.11c-.468-.25-.792-.718-.968-1.406h-.406c-.262.493-.64.9-1.14 1.22-.5.32-1.055.483-1.657.483zm0 0"/></symbol><symbol id="F" overflow="visible"><path d="M1.344 0v-10.906h2.78v1.53h.423c.195-.538.504-.96.922-1.265.425-.3.91-.454 1.452-.454.738 0 1.316.28 1.734.844.426.555.64 1.328.64 2.328V0h-2.78v-7.438c0-.476-.086-.843-.25-1.093-.157-.26-.383-.392-.672-.392-.305 0-.586.106-.844.313-.25.212-.46.516-.625.922V0zm0 0"/></symbol><symbol id="G" overflow="visible"><path d="M9.734.234c-.468-.168-.93-.39-1.375-.67-.45-.29-.876-.627-1.282-1.002-.375.493-.82.887-1.328 1.188-.512.29-1.133.438-1.86.438-.886 0-1.62-.305-2.203-.922C1.103-1.36.813-2.27.813-3.47c0-.944.16-1.757.485-2.436.332-.676.836-1.297 1.516-1.86-.22-.55-.387-1.093-.5-1.625-.118-.54-.172-1.024-.172-1.454 0-1.258.255-2.222.766-2.89.52-.676 1.254-1.016 2.203-1.016.882 0 1.554.28 2.015.844.457.554.688 1.18.688 1.875 0 .885-.215 1.65-.64 2.296-.42.636-1.153 1.304-2.204 2 .038.18.096.355.17.53.07.17.15.337.235.5.195.407.41.798.64 1.173.227.374.473.73.735 1.06.156-.444.316-.944.484-1.5.164-.56.336-1.16.516-1.796l2.03.64c-.25.73-.538 1.435-.858 2.11-.324.68-.684 1.356-1.078 2.032l2.484 1.234zm-5.406-11.03c0 .26.016.538.047.827.04.294.102.587.188.876.363-.312.648-.664.86-1.062.218-.406.327-.883.327-1.438 0-.426-.07-.75-.203-.97-.125-.217-.28-.327-.47-.327-.26 0-.452.148-.577.437-.117.293-.172.844-.172 1.656zm.25 9.124c.258 0 .5-.078.72-.234.218-.157.42-.383.608-.688-.293-.344-.578-.695-.86-1.062-.273-.375-.523-.754-.75-1.14-.124-.188-.24-.368-.343-.548-.105-.187-.203-.367-.297-.547-.125.304-.22.636-.28 1-.056.367-.08.75-.08 1.156 0 .7.114 1.218.345 1.562.24.336.55.5.938.5zm0 0"/></symbol><symbol id="H" overflow="visible"><path/></symbol><symbol id="I" overflow="visible"><path d="M6.438-5.89l-1.063-6.407-1.14 6.406zM7.375 0l-.61-3.78H3.86L3.155 0H.672l2.953-14.547H7.03L9.985 0zm0 0"/></symbol><symbol overflow="visible"><path d="M2.094 4.656L-2.86-16.78l9.454-2.19 4.953 21.44zm1.5-2.406L9.156.97 5.11-16.563l-5.563 1.28zm0 0"/></symbol><symbol id="ah" overflow="visible"><path d="M1.734-.406l-.515-2.25 2.905-.672-2.422-10.5-.437.11c.02.792-.157 1.452-.532 1.984-.375.523-.882.843-1.53.968l-.688-2.296c.742-.188 1.35-.618 1.828-1.297.476-.675.722-1.445.734-2.312l2.938-.672L7.094-4l2.484-.578.516 2.25zm0 0"/></symbol><symbol id="ai" overflow="visible"><path d="M2.5 3.516l1.344-20.828 2.375-.547L4.874 2.97zm0 0"/></symbol><symbol id="aj" overflow="visible"><path d="M3.484-.813c-.25-3.976-.343-6.785-.28-8.42.07-1.646.362-3.52.874-5.626l-5.812 1.344-.547-2.375 8.796-2.032.546 2.375c-.5 2.512-.78 4.695-.843 6.547-.064 1.844.07 4.336.405 7.47zm0 0"/></symbol><symbol id="ak" overflow="visible"><path d="M2.266-7l2.421-.563-1.203-5.234zm7.656.53l-1.766.407.922 3.97-2.97.687-.92-3.97L.234-4.233l-.5-2.188 2.11-10.422 3.64-.843L7.656-8.25l1.766-.406zm0 0"/></symbol><symbol overflow="visible"><path d="M3.625 3.578L-8.672-14.656l8.047-5.422L11.672-1.844zm.53-2.765l4.736-3.188L-1.17-17.297l-4.734 3.188zm0 0"/></symbol><symbol id="al" overflow="visible"><path d="M2.97-2C1.29-5.633.194-8.227-.314-9.78c-.52-1.552-.92-3.408-1.203-5.564L-6.47-12l-1.374-2.016 7.485-5.046 1.376 2.015c.437 2.53.957 4.668 1.562 6.406C3.18-8.9 4.203-6.618 5.64-3.798zm0 0"/></symbol><symbol id="am" overflow="visible"><path d="M5-3.125c-1.313.887-2.496 1.215-3.547.984-1.055-.227-2.04-.973-2.97-2.235l2.408-1.89c.594.773 1.098 1.25 1.516 1.437.426.187.86.133 1.297-.172.438-.29.656-.633.656-1.03 0-.396-.204-.892-.61-1.486l-.61-.906c-.398-.594-.796-.945-1.203-1.062-.406-.125-.835-.04-1.28.25l-1.25.86-1.282-1.923 1.25-.86c.406-.27.625-.55.656-.843.033-.29-.128-.69-.483-1.203l-.594-.89c-.332-.49-.644-.786-.937-.89-.3-.115-.618-.056-.954.17-.343.23-.5.547-.468.954.023.4.234.938.64 1.626l-2.64 1.562c-.77-1.25-1.067-2.363-.89-3.344.18-.976.835-1.847 1.968-2.61 1.156-.78 2.226-1.124 3.203-1.03.98.086 1.816.648 2.516 1.687l.454.673c.426.637.617 1.29.578 1.953-.043.668-.31 1.22-.797 1.656l.313.485c.675-.352 1.382-.383 2.125-.094.738.28 1.35.79 1.843 1.516l.407.608c.77 1.15 1.054 2.23.86 3.25C6.972-4.898 6.25-3.97 5-3.125zm0 0"/></symbol><symbol id="an" overflow="visible"><path d="M3.594 2.39l-6.22-19.92 2.032-1.376L5.61 1.03zm0 0"/></symbol><symbol id="ao" overflow="visible"><path d="M-.39-7.344l2.046-1.39-3-4.454zm7.327-2.25l-1.5 1.016L7.72-5.203 5.187-3.5 2.905-6.875-1.297-4.03l-1.25-1.86-1.78-10.5 3.093-2.08 5.421 8.032 1.5-1.015zm0 0"/></symbol><symbol overflow="visible"><path d="M2.344 4.53L-3.72-16.624l9.314-2.672L11.656 1.86zM3.72 2.063L9.186.484 4.22-16.828l-5.47 1.578zm0 0"/></symbol><symbol id="ap" overflow="visible"><path d="M3.438-.984c-.46-3.97-.7-6.77-.72-8.407-.023-1.645.173-3.532.58-5.657l-5.736 1.64-.67-2.343 8.67-2.484.672 2.343c-.367 2.542-.53 4.734-.5 6.578.04 1.843.305 4.324.797 7.437zm0 0"/></symbol><symbol id="aq" overflow="visible"><path d="M2.688 3.39l.25-20.874 2.343-.672L5.03 2.72zm0 0"/></symbol><symbol id="ar" overflow="visible"><path d="M1.297-.375L.375-3.61C.03-4.796-.047-5.765.14-6.515c.188-.75.72-1.593 1.594-2.53l1.14-1.157c.54-.55.864-.988.97-1.313.1-.332.066-.804-.11-1.421l-.156-.547c-.187-.657-.422-1.102-.703-1.344-.28-.25-.648-.313-1.094-.188-.46.125-.714.414-.764.86-.043.437.066 1.22.328 2.344l-3 .656c-.426-1.74-.414-3.078.03-4.016.438-.937 1.368-1.61 2.782-2.015 1.383-.395 2.524-.364 3.422.093.906.46 1.547 1.352 1.922 2.672l.297 1.03c.27.962.3 1.767.094 2.423-.21.658-.745 1.45-1.61 2.376L4.126-7.438c-.543.594-.867 1.07-.97 1.422-.092.356-.046.86.142 1.516l.297 1.063 5.734-1.64.64 2.218zm0 0"/></symbol><symbol overflow="visible"><path d="M1.344 4.922L-.188-17.016l9.672-.687 1.532 21.937zm1.86-2.125L8.89 2.39 7.64-15.577l-5.687.406zm0 0"/></symbol><symbol id="as" overflow="visible"><path d="M1.78-.125l-.155-2.313 2.97-.203-.75-10.735-.454.03c-.093.783-.37 1.408-.828 1.876-.45.462-1.007.704-1.67.736L.577-13.14c.758-.063 1.426-.39 2-.985.57-.594.938-1.316 1.094-2.172l3.015-.22.954 13.658 2.532-.17.156 2.31zm0 0"/></symbol><symbol id="at" overflow="visible"><path d="M5.28-8.47c.532-.038.892-.264 1.08-.67.195-.415.257-1.083.187-2l-.047-.83c-.063-.882-.22-1.507-.47-1.874-.24-.363-.624-.523-1.155-.484-.523.03-.883.246-1.078.64-.188.4-.25 1.04-.188 1.922l.046.83c.07.916.227 1.57.47 1.952.25.375.632.546 1.155.515zm.532 8.267C4.396-.098 3.329-.328 2.61-.89c-.712-.57-1.184-1.547-1.422-2.922l3.156-.704c.133.844.3 1.407.5 1.688.195.273.547.39 1.047.36.458-.032.766-.282.923-.75.164-.47.207-1.26.125-2.376l-.157-2.36-.17.016c-.22.5-.544.89-.97 1.172-.43.274-.937.43-1.53.47-1.063.073-1.887-.25-2.47-.97-.585-.718-.93-1.812-1.03-3.28l-.063-1c-.117-1.552.172-2.75.86-3.595.695-.844 1.8-1.317 3.312-1.422 1.487-.102 2.64.277 3.452 1.14.82.856 1.297 2.18 1.422 3.97l.39 5.514c.125 1.805-.164 3.184-.86 4.14C8.427-.835 7.32-.304 5.813-.202zm0 0"/></symbol><symbol id="au" overflow="visible"><path d="M1.922 3.875L6.516-16.5l2.421-.172L4.345 3.703zm0 0"/></symbol><symbol id="av" overflow="visible"><path d="M5.797-.203c-1.637.117-2.824-.164-3.563-.844C1.504-1.734 1.047-2.97.86-4.75l3.015-.406c.176 1.105.38 1.843.61 2.218.238.368.628.528 1.17.485.583-.04.962-.235 1.142-.578.187-.353.254-.943.203-1.767L6.906-6.14c-.054-.782-.23-1.33-.53-1.64-.306-.314-.81-.443-1.517-.392l-3.766.266-.563-8.172 8.25-.578.158 2.234-5.204.36.235 3.562 1.81-.125c1.282-.094 2.267.172 2.954.797.688.625 1.082 1.648 1.188 3.062l.125 1.86c.1 1.418-.2 2.53-.906 3.343-.71.805-1.824 1.258-3.343 1.36zm0 0"/></symbol><symbol id="aw" overflow="visible"><path d="M5.906-.203c-1.593.105-2.79-.203-3.578-.922C1.535-1.852 1.05-2.992.875-4.547L3.89-4.97c.145.97.348 1.638.61 2 .27.357.672.517 1.203.486.53-.04.89-.227 1.078-.563.197-.344.275-.867.236-1.578l-.08-1.094c-.053-.718-.225-1.225-.514-1.53-.293-.313-.703-.453-1.234-.422l-1.516.11-.156-2.313 1.515-.11c.49-.03.818-.16.986-.39.175-.227.242-.656.203-1.28l-.08-1.064c-.042-.592-.167-1.007-.374-1.25-.2-.25-.5-.358-.907-.327-.42.03-.715.23-.89.594-.17.355-.25.933-.25 1.734l-3.064.017c-.043-1.47.254-2.578.89-3.328.645-.75 1.65-1.173 3.016-1.267 1.395-.1 2.49.125 3.282.688.8.563 1.242 1.477 1.328 2.735l.062.797c.05.773-.105 1.433-.468 1.984-.368.543-.87.887-1.516 1.03l.03.58c.77.043 1.4.37 1.892.984.5.617.78 1.367.844 2.25l.046.72c.094 1.374-.203 2.46-.89 3.25-.68.78-1.766 1.225-3.266 1.327zm0 0"/></symbol><symbol overflow="visible"><path d="M-.516 5.078l6.438-21.03 9.28 2.827-6.436 21.03zM2 3.75l5.453 1.672 5.266-17.22-5.454-1.67zm0 0"/></symbol><symbol id="ax" overflow="visible"><path d="M1.703.516l.672-2.22 2.86.876 3.156-10.28-.437-.126c-.367.687-.844 1.168-1.437 1.437-.594.274-1.21.305-1.844.094l.562-2.344c.74.21 1.485.14 2.235-.203.75-.352 1.346-.898 1.796-1.64l2.875.874-4 13.079 2.438.75-.672 2.218zm0 0"/></symbol><symbol id="ay" overflow="visible"><path d="M5.547 1.906C4.18 1.488 3.28.633 2.844-.656c-.43-1.3-.352-2.914.234-4.844L4.14-8.953c.594-1.957 1.43-3.352 2.516-4.188 1.094-.844 2.32-1.055 3.688-.64 1.363.417 2.258 1.276 2.687 2.577.427 1.305.345 2.933-.25 4.89l-1.06 3.454C11.132-.93 10.3.446 9.22 1.28c-1.087.833-2.31 1.04-3.673.626zm.656-2.14c.633.187 1.164.023 1.594-.5.426-.52.88-1.55 1.36-3.094l.937-3.094c.476-1.57.687-2.703.625-3.39-.056-.688-.4-1.126-1.033-1.313-.648-.195-1.183-.023-1.61.516-.43.532-.882 1.587-1.358 3.157L5.78-4.86c-.48 1.544-.694 2.653-.64 3.33.063.667.415 1.1 1.063 1.296zM7.47-4.36c-.325-.1-.56-.253-.704-.452-.137-.196-.14-.493-.016-.89l.328-1.095c.113-.375.285-.61.516-.703.226-.094.504-.086.828.016.3.093.52.246.656.453.145.21.16.5.047.874l-.328 1.093c-.125.4-.31.637-.547.72-.242.073-.5.07-.78-.016zm0 0"/></symbol><symbol id="az" overflow="visible"><path d="M.39 4.313l11.594-17.375 2.329.718-11.58 17.36zm0 0"/></symbol><symbol id="aA" overflow="visible"><path d="M3.422 1.047c1.77-3.582 3.094-6.063 3.97-7.438.88-1.383 2.077-2.864 3.577-4.438l-5.72-1.75.703-2.328 8.64 2.64-.702 2.329C12.19-8 10.853-6.25 9.876-4.688 8.905-3.125 7.78-.897 6.5 1.982zm0 0"/></symbol><symbol id="aB" overflow="visible"><path d="M1.28.39l.986-3.218c.363-1.176.828-2.03 1.39-2.563.57-.532 1.477-.946 2.72-1.25L7.968-7c.757-.164 1.268-.36 1.53-.578.27-.22.492-.63.672-1.234l.172-.547c.195-.656.242-1.163.14-1.53-.093-.364-.36-.61-.796-.735-.46-.145-.836-.04-1.126.313-.28.343-.617 1.058-1 2.14l-2.875-1.094c.583-1.675 1.317-2.79 2.204-3.343.883-.55 2.032-.613 3.438-.187 1.383.43 2.328 1.078 2.828 1.953s.547 1.97.14 3.28l-.312 1.033c-.293.948-.703 1.647-1.234 2.093-.53.437-1.418.804-2.656 1.093l-1.578.36c-.782.2-1.313.418-1.594.656-.274.242-.508.695-.703 1.36L4.89-.94l5.704 1.75-.672 2.22zm0 0"/></symbol><symbol overflow="visible"><path d="M-.328 5.094l5.703-21.25 9.375 2.5-5.703 21.25zM2.11 3.672l5.515 1.47 4.656-17.376-5.514-1.47zm0 0"/></symbol><symbol id="aH" overflow="visible"><path d="M1.72.47l.593-2.236L5.203-1 8-11.39l-.438-.126c-.355.71-.824 1.21-1.406 1.5-.586.282-1.187.329-1.812.14l.468-2.358c.74.187 1.477.093 2.22-.282.738-.375 1.32-.94 1.75-1.703l2.905.783L8.142-.22l2.454.673L10 2.688zm0 0"/></symbol><symbol id="aI" overflow="visible"><path d="M5.656 1.734C4.113 1.316 3.082.64 2.563-.296c-.524-.946-.61-2.188-.266-3.72l3.015.58c-.18.96-.203 1.655-.078 2.092.125.438.442.727.954.86.507.136.91.078 1.203-.172.3-.258.548-.74.735-1.438l.28-1.062c.19-.688.197-1.223.033-1.61-.168-.382-.508-.644-1.016-.78l-1.47-.39.595-2.236 1.47.39c.467.126.82.106 1.06-.062.24-.176.443-.566.61-1.172l.266-1.015c.156-.572.176-1.005.063-1.298-.118-.3-.37-.504-.766-.61-.398-.113-.742-.023-1.03.266-.283.293-.548.81-.798 1.547l-2.906-.953c.437-1.406 1.078-2.36 1.921-2.86.852-.507 1.942-.593 3.266-.25 1.344.368 2.3.95 2.875 1.75.582.793.707 1.797.375 3.016l-.203.766c-.2.75-.563 1.328-1.094 1.734-.523.4-1.117.555-1.78.47l-.142.56c.707.294 1.192.81 1.454 1.548.27.742.29 1.54.062 2.39l-.172.704c-.367 1.332-1 2.258-1.906 2.78-.9.52-2.07.587-3.516.204zm0 0"/></symbol><symbol id="aJ" overflow="visible"><path d="M3.453.922c1.645-3.645 2.883-6.172 3.72-7.578.83-1.414 1.968-2.93 3.405-4.547L4.813-12.75l.625-2.36 8.718 2.344-.625 2.36c-1.624 1.992-2.897 3.78-3.81 5.375C8.8-3.438 7.75-1.173 6.56 1.765zm0 0"/></symbol><symbol id="aK" overflow="visible"><path d="M.547 4.28l10.97-17.75 2.358.626L2.905 4.922zm0 0"/></symbol><symbol id="aL" overflow="visible"><path d="M5.297-5.11l2.39.64 1.39-5.202zm6.516 4.048l-1.75-.47L9 2.407l-2.953-.78L7.11-2.313 2.202-3.625 2.78-5.78l6.75-8.236 3.61.97-2.5 9.358 1.75.47zm0 0"/></symbol><symbol id="aM" overflow="visible"><path d="M1.297.344l.875-3.25c.312-1.196.742-2.067 1.297-2.61.56-.54 1.452-.988 2.67-1.343l1.58-.406c.75-.195 1.25-.406 1.5-.625.257-.227.47-.65.64-1.266l.156-.563c.164-.655.19-1.163.078-1.53-.106-.363-.383-.602-.828-.72-.46-.124-.825-.003-1.094.36-.274.356-.586 1.08-.938 2.172l-2.906-.984c.53-1.707 1.223-2.848 2.078-3.422.864-.582 2.004-.68 3.422-.297 1.406.374 2.375.992 2.906 1.843.532.856.618 1.945.266 3.266l-.28 1.046c-.25.96-.642 1.668-1.173 2.125-.524.462-1.387.86-2.594 1.204l-1.578.406c-.78.242-1.31.484-1.578.734-.262.25-.484.704-.672 1.36l-.28 1.062L10.608.453l-.594 2.235zm0 0"/></symbol><symbol overflow="visible"><path d="M-2.36 4.516l13.844-17.11 7.532 6.11-13.844 17.11zM.438 4.22l4.438 3.593L16.203-6.172l-4.437-3.594zm0 0"/></symbol><symbol id="aN" overflow="visible"><path d="M4.375 3.797C3.102 2.773 2.43 1.767 2.36.767c-.075-1 .43-2.22 1.515-3.658L6.36-1.11C5.722-.19 5.362.478 5.28.907c-.073.426.1.813.517 1.156.457.364.875.485 1.25.36s.82-.512 1.344-1.156L9.235.22c.49-.603.735-1.126.735-1.564 0-.437-.28-.88-.83-1.328L6.204-5.047l5.14-6.36 6.423 5.22-1.407 1.734-4.047-3.297-2.235 2.78 1.406 1.142c1 .812 1.536 1.683 1.61 2.61.082.93-.324 1.937-1.22 3.03l-1.17 1.454c-.9 1.1-1.884 1.707-2.954 1.812-1.063.102-2.188-.324-3.375-1.28zm0 0"/></symbol><symbol id="aO" overflow="visible"><path d="M4.422 3.844C3.254 2.894 2.664 1.828 2.656.64c0-1.187.563-2.472 1.688-3.86l3.484-4.296C8.96-8.93 10.108-9.75 11.266-9.97c1.164-.225 2.332.134 3.5 1.08 1.113.898 1.738 1.796 1.875 2.703.145.898-.18 1.93-.968 3.093l-2.78-1.64c.487-.707.74-1.24.764-1.594.02-.363-.125-.672-.437-.922-.376-.3-.78-.344-1.204-.125-.43.21-.977.73-1.64 1.563l-1.58 1.937.11.094c.52-.22 1.024-.275 1.516-.173.5.094 1 .34 1.5.734.832.68 1.195 1.482 1.094 2.408-.094.925-.59 1.945-1.485 3.062l-.624.766c-.98 1.207-2.01 1.882-3.094 2.03-1.085.145-2.214-.257-3.39-1.202zm1.406-1.766c.383.32.785.406 1.203.25.415-.156.907-.578 1.47-1.265l.516-.64c.582-.72.91-1.302.984-1.75.07-.446-.086-.833-.47-1.157-.405-.32-.823-.4-1.25-.235-.417.17-.917.61-1.5 1.33l-.514.64C5.703-.062 5.383.5 5.312.938c-.062.437.11.816.516 1.14zm0 0"/></symbol><symbol id="aP" overflow="visible"><path d="M-1.234 4.14L16-7.624l1.89 1.53L.657 5.673zm0 0"/></symbol><symbol id="aQ" overflow="visible"><path d="M4.47 3.875c-1.243-1-1.907-2.04-2-3.11-.087-1.07.342-2.238 1.28-3.5l2.5 1.766C5.687-.175 5.38.44 5.328.89c-.055.458.125.852.53 1.188.415.332.814.442 1.19.328.374-.117.784-.45 1.233-1l.69-.86c.456-.55.678-1.038.67-1.468 0-.426-.21-.805-.624-1.14l-1.172-.954 1.453-1.796 1.172.953c.382.313.717.446 1 .39.288-.06.632-.33 1.03-.81l.672-.83c.375-.456.566-.843.578-1.156.02-.32-.125-.613-.438-.875-.324-.258-.67-.317-1.046-.173-.375.15-.836.512-1.375 1.094L8.626-8.296c.97-1.094 1.945-1.695 2.938-1.812.988-.124 2.015.247 3.078 1.11 1.083.875 1.723 1.797 1.922 2.766.196.96-.1 1.93-.89 2.906l-.516.61c-.48.605-1.043.984-1.687 1.14-.65.148-1.25.047-1.814-.297l-.375.453c.533.555.77 1.22.72 2-.055.79-.36 1.53-.922 2.22l-.453.56c-.867 1.083-1.82 1.677-2.86 1.783-1.03.102-2.132-.32-3.296-1.265zm0 0"/></symbol><symbol overflow="visible"><path d="M1 5v-22h9.703V5zm2-2h5.703v-18H3zm0 0"/></symbol><symbol id="aT" overflow="visible"><path d="M1.063 0v-16h9.484v2.64h-5.89v3.485H9.78v2.64H4.657v4.594h5.89V0zm0 0"/></symbol><symbol id="aU" overflow="visible"><path d="M3.563-8.922V0H.72v-12h2.796v1.594h.546c.145-.594.352-1.03.625-1.313.27-.28.614-.42 1.032-.42.362 0 .66.132.89.39.226.262.382.71.468 1.344h.438c.164-.594.382-1.03.656-1.313.28-.28.648-.42 1.11-.42.58 0 1.007.23 1.28.687.282.46.422 1.172.422 2.14V0H8.14v-8.86c0-.363-.015-.632-.046-.812-.03-.176-.117-.265-.25-.265-.168 0-.313.105-.438.312-.117.21-.203.445-.265.703V0H4.564v-8.86c0-.363-.024-.632-.063-.812-.043-.176-.137-.265-.28-.265-.15 0-.275.1-.376.296-.094.187-.188.43-.28.718zm0 0"/></symbol><symbol id="aV" overflow="visible"><path d="M5.078-2c.188 0 .383-.05.594-.156.207-.102.414-.285.625-.547v-2.14H4.86c-.25 0-.423.105-.516.312-.094.198-.14.59-.14 1.17 0 .438.07.778.218 1.016.144.23.363.344.656.344zM4.048.203c-.876 0-1.603-.328-2.173-.984-.574-.665-.86-1.5-.86-2.5 0-1.103.298-1.947.89-2.533.603-.593 1.407-.89 2.407-.89h1.985V-8.36c0-.53-.09-.898-.266-1.11-.167-.206-.432-.31-.796-.31-.336 0-.578.132-.734.39-.156.25-.28.714-.375 1.39l-2.86-.5c.24-1.32.676-2.27 1.313-2.844.645-.57 1.586-.86 2.828-.86 1.426 0 2.5.29 3.22.86.718.563 1.077 1.528 1.077 2.89v4.83c0 .593.098.96.297 1.093.195.124.484.14.86.046v2.421c-.856.227-1.56.21-2.11-.046-.543-.257-.934-.753-1.172-1.484h-.5c-.305.492-.726.914-1.266 1.266-.53.35-1.12.53-1.765.53zm0 0"/></symbol><symbol id="aW" overflow="visible"><path d="M1.484 0zm0 0v-2.5h2.579v-7h-2.58V-12h6.173v9.5h2.578V0zM6-13.922c-.656 0-1.188-.1-1.594-.312-.398-.207-.593-.567-.593-1.079v-.265c0-.53.195-.906.593-1.125.407-.227.938-.344 1.594-.344.656 0 1.18.117 1.578.344.406.22.61.594.61 1.125v.265c0 .512-.21.872-.626 1.08-.406.21-.93.31-1.562.31zm0 0"/></symbol><symbol id="aX" overflow="visible"><path d="M1.688 0v-2.5h2.796v-11H1.688V-16h6.39v13.5h2.578V0zm0 0"/></symbol><symbol id="aY" overflow="visible"><path/></symbol><symbol id="aZ" overflow="visible"><path d="M10.516-2.78c-.25 1.06-.72 1.827-1.407 2.296-.68.46-1.672.687-2.985.687-1.5 0-2.688-.375-3.563-1.125-.867-.758-1.296-1.78-1.296-3.062v-4.204c0-1.238.41-2.218 1.234-2.937.82-.72 1.94-1.078 3.36-1.078 1.437 0 2.554.383 3.36 1.14.81.75 1.217 1.797 1.217 3.14v2.61H4.86v1.532c0 .56.093.99.28 1.28.196.293.57.438 1.126.438.394 0 .707-.102.937-.313.238-.207.39-.602.453-1.188zM4.86-8.454v1.265h1.984v-1.25c0-.613-.07-1.03-.203-1.25-.136-.218-.398-.328-.78-.328-.4 0-.665.11-.798.329-.136.21-.203.62-.203 1.234zm0 0"/></symbol><symbol id="ba" overflow="visible"><path d="M5.422.14c-.844 0-1.64-.124-2.39-.374-.743-.258-1.356-.54-1.845-.844l.672-2.14c.562.292 1.16.554 1.796.78.645.23 1.227.344 1.75.344.49 0 .864-.094 1.125-.28.26-.188.392-.47.392-.845 0-.393-.11-.678-.328-.858-.22-.188-.782-.445-1.688-.78-1.312-.49-2.215-1.005-2.703-1.548-.48-.54-.72-1.29-.72-2.25 0-1.04.396-1.89 1.19-2.547.8-.664 1.862-1 3.186-1 .82 0 1.562.11 2.218.328.664.21 1.238.46 1.72.75L9.31-9.078c-.51-.25-1.042-.457-1.593-.625-.544-.164-1.025-.25-1.44-.25-.366 0-.663.078-.89.234-.218.15-.327.392-.327.736 0 .324.14.578.42.765.283.19 1 .51 2.158.954 1.094.43 1.844.914 2.25 1.454.415.53.626 1.296.626 2.296 0 1.012-.446 1.875-1.329 2.594C8.302-.212 7.047.14 5.422.14zm0 0"/></symbol><symbol id="bb" overflow="visible"><path d="M7.5.203C6.195.203 5.172-.16 4.422-.89c-.75-.727-1.125-1.723-1.125-2.985V-9.5H1.375V-12h1.922v-4h3.61v4h3.046v2.5H6.906V-4c0 .523.11.93.328 1.22.227.292.555.436.985.436.33 0 .643-.05.936-.156.29-.102.504-.18.64-.234l.298 2.453c-.21.135-.56.25-1.047.343-.492.093-1.008.14-1.547.14zm0 0"/></symbol><symbol overflow="visible"><path d="M.734 3.64v-16H7.78v16zm1.454-1.453h4.14v-13.093h-4.14zm0 0"/></symbol><symbol id="bc" overflow="visible"><path d="M3.61-3.11L2.452-8.624 2.64 0H.923v-11.64h1.922l1.453 6.17 1.453-6.17h1.844V0H5.86l.187-8.516L4.922-3.11zm0 0"/></symbol><symbol id="bd" overflow="visible"><path d="M7.39-1.97c-.21.743-.542 1.28-1 1.61-.45.337-1.124.5-2.03.5-.98 0-1.758-.257-2.33-.78-.573-.532-.858-1.282-.858-2.25v-2.985c0-.957.28-1.695.844-2.22.562-.518 1.312-.78 2.25-.78.945 0 1.69.273 2.234.813.55.53.828 1.308.828 2.328V-4H3.14v1.172c0 .555.098.953.297 1.203.196.25.524.375.985.375.383 0 .676-.086.875-.266.195-.187.348-.488.453-.906zm-4.25-4v.782h2.235v-.703c0-.583-.09-.993-.266-1.235-.17-.25-.45-.375-.844-.375-.4 0-.684.12-.86.36-.18.23-.265.62-.265 1.17zm0 0"/></symbol><symbol id="be" overflow="visible"><path d="M4.172.125c-.594 0-1.168-.09-1.72-.266-.542-.188-1-.422-1.374-.704l.5-1.312c.375.242.797.45 1.266.625.47.167.91.25 1.328.25.437 0 .758-.083.97-.25.217-.165.327-.415.327-.75 0-.384-.11-.658-.33-.814-.21-.156-.648-.344-1.312-.562-.937-.3-1.594-.65-1.97-1.047-.374-.395-.56-.942-.56-1.64 0-.76.257-1.368.78-1.83.52-.468 1.223-.702 2.11-.702.55 0 1.07.09 1.562.266.5.18.93.403 1.297.672l-.422 1.282c-.355-.22-.734-.407-1.14-.563-.4-.163-.778-.25-1.14-.25-.357 0-.626.08-.814.236-.178.148-.264.386-.264.718 0 .356.113.618.343.782.238.156.75.367 1.53.625.852.274 1.446.61 1.782 1.016.344.4.516.946.516 1.64 0 .75-.29 1.372-.86 1.86-.574.48-1.375.72-2.406.72zm0 0"/></symbol><symbol id="bf" overflow="visible"><path d="M3.594-1.25c.27 0 .515-.063.734-.188.22-.132.414-.35.594-.656V-3.64H3.578c-.305 0-.523.09-.656.265-.125.168-.188.48-.188.938 0 .386.067.683.204.89.132.2.35.297.656.297zm-.5 1.39c-.65 0-1.168-.222-1.563-.67C1.146-.99.954-1.6.954-2.36c0-.78.207-1.382.625-1.812.414-.437.977-.656 1.688-.656h1.656v-1.328c0-.414-.09-.723-.266-.922-.18-.207-.437-.313-.78-.313-.368 0-.634.105-.798.312-.156.2-.28.574-.375 1.125L1.11-6.297c.156-.894.456-1.547.906-1.953.457-.414 1.093-.625 1.906-.625.906 0 1.61.203 2.11.61.507.406.765 1.062.765 1.968v3.922c0 .438.082.72.25.844.176.116.44.124.797.03V.016c-.637.125-1.137.086-1.5-.11-.356-.207-.59-.586-.703-1.14h-.28c-.22.386-.532.714-.938.984-.4.258-.84.39-1.328.39zm0 0"/></symbol><symbol id="bg" overflow="visible"><path d="M7.703.625c0 .78-.226 1.38-.672 1.797-.448.414-1.046.625-1.796.625H3.313c-.825 0-1.45-.18-1.876-.53C1.02 2.16.813 1.64.813.952c0-.48.11-.86.33-1.14.225-.282.514-.446.858-.5V-.97c-.28-.08-.512-.233-.688-.452-.18-.226-.265-.57-.265-1.03 0-.446.133-.837.406-1.173.27-.332.617-.53 1.047-.594v-.28c-.375-.145-.656-.367-.844-.672-.187-.312-.28-.633-.28-.97v-.28c0-.695.24-1.254.733-1.672.488-.426 1.14-.64 1.953-.64h3.593v1.39l-1.78-.328v.28c.27.095.49.294.67.595.177.293.266.594.266.906v.296c0 .68-.246 1.22-.734 1.625-.48.408-1.133.61-1.953.61h-.89c-.243 0-.43.063-.563.188-.125.117-.188.324-.188.625 0 .28.067.492.204.625.144.137.335.203.578.203h2.046c.727 0 1.305.19 1.735.564.437.375.656.968.656 1.78zM4.093-4.53c.313 0 .54-.1.688-.298.146-.195.22-.5.22-.906v-.532c0-.394-.074-.69-.22-.89-.147-.196-.374-.297-.686-.297-.324 0-.563.1-.72.297-.147.2-.218.496-.218.89v.532c0 .406.07.71.22.906.144.2.382.297.718.297zm-.546 6.31H5.22c.257 0 .47-.073.64-.218.163-.136.25-.402.25-.796 0-.368-.087-.62-.25-.766-.157-.145-.356-.22-.594-.22H2.672v.907c0 .352.062.625.187.813.124.188.35.28.687.28zm0 0"/></symbol><symbol id="bh" overflow="visible"><path/></symbol><symbol id="bi" overflow="visible"><path d="M1.172 0v-8.734h1.97v1.203h.327c.175-.415.436-.743.78-.986.344-.238.723-.36 1.14-.36.614 0 1.087.23 1.423.688.343.46.515 1.094.515 1.907V0H5.375v-5.938c0-.437-.074-.77-.22-1-.147-.226-.354-.343-.624-.343-.28 0-.542.093-.78.28-.23.18-.434.445-.61.797V0zm0 0"/></symbol><symbol id="bj" overflow="visible"><path d="M5.516.14c-.875 0-1.56-.253-2.047-.765-.493-.52-.736-1.223-.736-2.11v-4.5H1.14v-1.5h1.594v-2.906h1.97v2.906h2.484v1.5H4.703v4.375c0 .462.086.813.266 1.063.175.25.444.375.81.375.25 0 .49-.03.72-.094.227-.062.414-.13.563-.203L7.28-.202c-.167.086-.417.164-.75.234-.335.072-.67.11-1.014.11zm0 0"/></symbol><symbol id="bk" overflow="visible"><path d="M4.188.125c-.586 0-1.157-.086-1.72-.25-.554-.164-.984-.38-1.296-.64v-10.876h1.97v4.11h.327c.132-.44.362-.77.686-1 .32-.228.727-.345 1.22-.345.644 0 1.128.266 1.452.797.332.523.5 1.226.5 2.11v3.077c0 .98-.273 1.73-.812 2.25-.532.51-1.31.765-2.329.765zM4.28-1.36c.396 0 .677-.113.845-.343.164-.238.25-.645.25-1.22v-2.874c0-.53-.074-.91-.22-1.14-.147-.227-.366-.344-.655-.344-.262 0-.508.077-.734.233-.22.156-.43.422-.625.797v4.547c.157.105.32.187.5.25.176.062.39.094.64.094zm0 0"/></symbol><symbol id="bl" overflow="visible"><path d="M2.563 3.03c-.243 0-.5-.014-.782-.046-.272-.03-.553-.074-.843-.125l.125-1.485c.258.05.493.094.704.125.218.04.41.063.578.063.457 0 .8-.125 1.03-.375.24-.25.423-.637.548-1.157l.047-.186H2.686L.813-8.734h2.015L4.28-1.672l1.486-7.062h1.921L5.672.172c-.242 1.02-.62 1.75-1.14 2.187-.524.445-1.18.67-1.97.67zm0 0"/></symbol><symbol id="bm" overflow="visible"><path d="M1.36 0v-1.516h2.093v-8.625H1.36v-1.5H5.42v10.124h2.016V0zm0 0"/></symbol><symbol id="bn" overflow="visible"><path d="M2.906 0v-7.234H1.14v-1.5h1.766v-.547c0-.814.254-1.447.766-1.908.508-.468 1.16-.703 1.953-.703.344 0 .672.038.984.11.32.073.61.178.86.31l-.22 1.376c-.273-.125-.523-.207-.75-.25-.23-.05-.445-.078-.64-.078-.305 0-.544.094-.72.28-.18.19-.265.497-.265.923v.486h2.453v1.5H4.875V0zm0 0"/></symbol><symbol id="bo" overflow="visible"><path d="M1.266 2.906l4.36-14.547h1.64L2.89 2.905zm0 0"/></symbol><symbol id="bp" overflow="visible"><path d="M1.453 0v-8.734h1.984v1.421h.33c.143-.54.39-.937.733-1.187.344-.25.75-.375 1.22-.375.55 0 .975.21 1.28.625.3.418.453 1.012.453 1.78v1.454H5.656v-.843c0-.507-.062-.874-.187-1.093-.126-.22-.345-.328-.657-.328-.274 0-.532.1-.782.296-.24.2-.436.507-.593.92V.002zm0 0"/></symbol><symbol id="bq" overflow="visible"><path d="M1.266 0v-1.516h2v-5.718h-2v-1.5H5.25v7.218h2.016V0zM4-10.25c-.387 0-.703-.063-.953-.188-.242-.132-.36-.374-.36-.718v-.125c0-.353.118-.6.36-.736.25-.144.566-.218.953-.218.383 0 .695.074.938.218.25.137.375.383.375.735v.124c0 .344-.125.586-.375.72-.243.123-.555.186-.938.186zm0 0"/></symbol><symbol id="br" overflow="visible"><path d="M1.172 0v-11.64h1.97v4.11h.327c.132-.415.374-.743.717-.986.344-.238.74-.36 1.188-.36.602 0 1.078.235 1.422.704.35.47.53 1.102.53 1.89V0H5.376v-5.953c0-.438-.074-.766-.22-.984-.147-.227-.354-.344-.624-.344-.28 0-.542.093-.78.28-.23.18-.434.438-.61.78V0zm0 0"/></symbol><symbol id="bs" overflow="visible"><path d="M4.28.14c-.96 0-1.714-.265-2.264-.796-.555-.53-.83-1.266-.83-2.203l.002-2.937c0-.97.273-1.723.828-2.266.55-.54 1.304-.812 2.265-.812.958 0 1.708.277 2.25.828.54.543.814 1.293.814 2.25v2.953c0 .93-.274 1.656-.813 2.188C5.99-.126 5.24.14 4.28.14zm0-1.515c.376 0 .65-.113.83-.344.175-.237.265-.632.265-1.186V-5.78c0-.564-.09-.97-.266-1.22-.18-.25-.454-.375-.83-.375-.397 0-.682.125-.858.375-.18.25-.266.656-.266 1.22v2.843c0 .562.086.964.266 1.203.176.242.46.36.86.36zm0 0"/></symbol><symbol id="bt" overflow="visible"><path d="M4.297-1.36c.375 0 .644-.117.812-.36.175-.25.265-.647.265-1.202V-5.97c0-.444-.078-.772-.234-.983-.156-.22-.37-.328-.64-.328-.25 0-.496.085-.734.25-.23.155-.438.417-.625.78v4.39c.208.18.4.31.58.39.186.075.378.11.577.11zM4.61.126c-.262 0-.516-.04-.766-.11-.25-.062-.485-.156-.703-.28v3.17H1.173v-11.64h1.97v1.204h.327c.124-.427.346-.755.67-.986.333-.238.743-.36 1.235-.36.625 0 1.102.243 1.438.72.343.48.515 1.164.515 2.047v3.22c0 .93-.246 1.663-.734 2.203-.48.542-1.14.812-1.985.812zm0 0"/></symbol><symbol id="bu" overflow="visible"><path d="M2.406-6.453V0H.78v-8.734h1.61v1.093h.313c.113-.415.27-.723.47-.923.194-.195.44-.296.733-.296.27 0 .492.102.672.297.188.188.313.497.375.922h.297c.113-.415.273-.723.484-.923.22-.195.49-.296.813-.296.394 0 .69.172.89.516.196.344.297.856.297 1.53V.002h-1.61v-6.563c0-.312-.026-.546-.077-.703-.055-.156-.14-.234-.266-.234-.147 0-.288.094-.42.28-.126.19-.243.447-.344.767V0H3.5v-6.563c0-.312-.03-.546-.094-.703-.054-.156-.14-.234-.265-.234-.136 0-.265.094-.39.28-.117.18-.23.435-.344.767zm0 0"/></symbol><clipPath><path d="M752 127h132v132H752zm0 0"/></clipPath><clipPath id="a"><path d="M818 259c36.45 0 66-29.55 66-66s-29.55-66-66-66-66 29.55-66 66 29.55 66 66 66zm0 0"/></clipPath><clipPath><path d="M752 359h132v132H752zm0 0"/></clipPath><clipPath id="m"><path d="M818 491c36.45 0 66-29.55 66-66s-29.55-66-66-66-66 29.55-66 66 29.55 66 66 66zm0 0"/></clipPath><clipPath><path d="M1485 247h132v132h-132zm0 0"/></clipPath><clipPath id="q"><path d="M1551 379c36.45 0 66-29.55 66-66s-29.55-66-66-66-66 29.55-66 66 29.55 66 66 66zm0 0"/></clipPath><clipPath><path d="M1485 711h132v132h-132zm0 0"/></clipPath><clipPath id="y"><path d="M1551 843c36.45 0 66-29.55 66-66s-29.55-66-66-66-66 29.55-66 66 29.55 66 66 66zm0 0"/></clipPath><clipPath><path d="M1485 15h132v132h-132zm0 0"/></clipPath><clipPath id="N"><path d="M1551 147c36.45 0 66-29.55 66-66s-29.55-66-66-66-66 29.55-66 66 29.55 66 66 66zm0 0"/></clipPath><clipPath><path d="M1485 479h132v132h-132zm0 0"/></clipPath><clipPath id="U"><path d="M1551 611c36.45 0 66-29.55 66-66s-29.55-66-66-66-66 29.55-66 66 29.55 66 66 66zm0 0"/></clipPath><clipPath><path d="M752 591h132v132H752zm0 0"/></clipPath><clipPath id="Y"><path d="M818 723c36.45 0 66-29.55 66-66s-29.55-66-66-66-66 29.55-66 66 29.55 66 66 66zm0 0"/></clipPath><clipPath><path d="M19 358h132v132H19zm0 0"/></clipPath><clipPath id="ab"><path d="M85 490c36.45 0 66-29.55 66-66s-29.55-66-66-66-66 29.55-66 66 29.55 66 66 66zm0 0"/></clipPath></defs><g><path d="M821.672 200c-172.078 0-165.68 225.578 0 225.578M814.414 427.94c-181.31-38.163-501.137 47.833-728.414 0M821.672 428c-172.078 0-165.68 225.578 0 225.578M821 434c290.25 0 456.004 345.34 727.273 345.34M821 429c290.25 0 458.168 117.398 729.438 117.398M821 196c351.918-6.36 375.008 112.41 736.094 112.41M821 191.28c290.25 0 458.434-114.725 729.703-114.725M821 425.28c372.5 0 381.28-106.48 730.387-106.48M821 420.168c290.25 0 456.203-336.145 727.473-336.145" fill="none" stroke-width="5" stroke="#000" stroke-opacity=".5" stroke-miterlimit="10"/><path d="M747 122h142v142H747zm0 0" fill="rgb(49.803162%,78.431702%,8.235168%)" clip-path="url(#a)" clip-rule="evenodd"/><g fill="#fff"><use x="789.25" xlink:href="#b" y="189"/><use x="800.95" xlink:href="#c" y="189"/><use x="812.649" xlink:href="#d" y="189"/><use x="824.349" xlink:href="#e" y="189"/><use x="836.048" xlink:href="#f" y="189"/></g><g fill-opacity=".5"><use x="792.973" xlink:href="#g" y="213"/><use x="801.482" xlink:href="#h" y="213"/><use x="809.99" xlink:href="#i" y="213"/><use x="818.499" xlink:href="#j" y="213"/><use x="827.008" xlink:href="#k" y="213"/><use x="835.517" xlink:href="#l" y="213"/></g><path d="M747 354h142v142H747zm0 0" fill="rgb(49.803162%,78.431702%,8.235168%)" clip-path="url(#m)" clip-rule="evenodd"/><g fill="#fff"><use x="789.25" xlink:href="#n" y="421"/><use x="800.95" xlink:href="#f" y="421"/><use x="812.649" xlink:href="#e" y="421"/><use x="824.349" xlink:href="#o" y="421"/><use x="836.048" xlink:href="#p" y="421"/></g><g fill-opacity=".5"><use x="792.973" xlink:href="#g" y="445"/><use x="801.482" xlink:href="#h" y="445"/><use x="809.99" xlink:href="#i" y="445"/><use x="818.499" xlink:href="#j" y="445"/><use x="827.008" xlink:href="#k" y="445"/><use x="835.517" xlink:href="#l" y="445"/></g><path d="M1480 242h142v142h-142zm0 0" fill="rgb(49.803162%,78.431702%,8.235168%)" clip-path="url(#q)" clip-rule="evenodd"/><g fill="#fff"><use x="1522.25" xlink:href="#r" y="309"/><use x="1533.95" xlink:href="#s" y="309"/><use x="1545.649" xlink:href="#t" y="309"/><use x="1557.349" xlink:href="#u" y="309"/><use x="1569.048" xlink:href="#t" y="309"/></g><g fill-opacity=".5"><use x="1530.227" xlink:href="#v" y="333"/><use x="1538.736" xlink:href="#w" y="333"/><use x="1547.245" xlink:href="#h" y="333"/><use x="1555.754" xlink:href="#h" y="333"/><use x="1564.262" xlink:href="#x" y="333"/></g><path d="M1480 706h142v142h-142zm0 0" fill="rgb(49.803162%,78.431702%,8.235168%)" clip-path="url(#y)" clip-rule="evenodd"/><g fill="#fff"><use x="1514.264" xlink:href="#z" y="760"/><use x="1524.9" xlink:href="#A" y="760"/><use x="1535.536" xlink:href="#B" y="760"/><use x="1546.192" xlink:href="#C" y="760"/><use x="1556.828" xlink:href="#D" y="760"/><use x="1567.464" xlink:href="#E" y="760"/><use x="1578.1" xlink:href="#F" y="760"/></g><g fill="#fff"><use x="1519.591" xlink:href="#G" y="784"/><use x="1530.227" xlink:href="#H" y="784"/><use x="1540.863" xlink:href="#I" y="784"/><use x="1551.499" xlink:href="#F" y="784"/><use x="1562.135" xlink:href="#F" y="784"/><use x="1572.771" xlink:href="#E" y="784"/></g><g fill-opacity=".5"><use x="1513.209" xlink:href="#J" y="806"/><use x="1521.718" xlink:href="#K" y="806"/><use x="1530.227" xlink:href="#h" y="806"/><use x="1538.735" xlink:href="#L" y="806"/><use x="1547.244" xlink:href="#j" y="806"/><use x="1555.753" xlink:href="#M" y="806"/><use x="1564.262" xlink:href="#h" y="806"/><use x="1572.771" xlink:href="#l" y="806"/><use x="1581.279" xlink:href="#i" y="806"/></g><path d="M1480 10h142v142h-142zm0 0" fill="rgb(49.803162%,78.431702%,8.235168%)" clip-path="url(#N)" clip-rule="evenodd"/><g fill="#fff"><use x="1522.25" xlink:href="#O" y="77"/><use x="1533.95" xlink:href="#f" y="77"/><use x="1545.649" xlink:href="#P" y="77"/><use x="1557.349" xlink:href="#o" y="77"/><use x="1569.048" xlink:href="#Q" y="77"/></g><g fill-opacity=".5"><use x="1517.464" xlink:href="#R" y="101"/><use x="1525.972" xlink:href="#S" y="101"/><use x="1534.481" xlink:href="#w" y="101"/><use x="1542.99" xlink:href="#j" y="101"/><use x="1551.499" xlink:href="#T" y="101"/><use x="1560.008" xlink:href="#T" y="101"/><use x="1568.516" xlink:href="#j" y="101"/><use x="1577.025" xlink:href="#L" y="101"/></g><path d="M1480 474h142v142h-142zm0 0" fill="rgb(49.803162%,78.431702%,8.235168%)" clip-path="url(#U)" clip-rule="evenodd"/><g fill="#fff"><use x="1522.24" xlink:href="#r" y="541"/><use x="1533.94" xlink:href="#V" y="541"/><use x="1545.639" xlink:href="#o" y="541"/><use x="1557.339" xlink:href="#u" y="541"/><use x="1569.038" xlink:href="#W" y="541"/></g><g fill-opacity=".5"><use x="1521.718" xlink:href="#X" y="565"/><use x="1530.227" xlink:href="#h" y="565"/><use x="1538.736" xlink:href="#w" y="565"/><use x="1547.245" xlink:href="#l" y="565"/><use x="1555.753" xlink:href="#j" y="565"/><use x="1564.262" xlink:href="#l" y="565"/><use x="1572.771" xlink:href="#k" y="565"/></g><path d="M747 586h142v142H747zm0 0" fill="rgb(49.803162%,78.431702%,8.235168%)" clip-path="url(#Y)" clip-rule="evenodd"/><g fill="#fff"><use x="783.4" xlink:href="#Z" y="653"/><use x="795.1" xlink:href="#f" y="653"/><use x="806.799" xlink:href="#aa" y="653"/><use x="818.499" xlink:href="#f" y="653"/><use x="830.198" xlink:href="#t" y="653"/><use x="841.898" xlink:href="#c" y="653"/></g><g fill-opacity=".5"><use x="792.973" xlink:href="#g" y="677"/><use x="801.482" xlink:href="#h" y="677"/><use x="809.99" xlink:href="#i" y="677"/><use x="818.499" xlink:href="#j" y="677"/><use x="827.008" xlink:href="#k" y="677"/><use x="835.517" xlink:href="#l" y="677"/></g><path d="M14 353h142v142H14zm0 0" fill="rgb(49.803162%,78.431702%,8.235168%)" clip-path="url(#ab)" clip-rule="evenodd"/><g fill="#fff"><use x="50.4" xlink:href="#Z" y="420"/><use x="62.1" xlink:href="#ac" y="420"/><use x="73.799" xlink:href="#ad" y="420"/><use x="85.499" xlink:href="#ae" y="420"/><use x="97.198" xlink:href="#Z" y="420"/><use x="108.898" xlink:href="#af" y="420"/></g><g fill-opacity=".5"><use x="59.973" xlink:href="#R" y="444"/><use x="68.482" xlink:href="#T" y="444"/><use x="76.99" xlink:href="#j" y="444"/><use x="85.499" xlink:href="#h" y="444"/><use x="94.008" xlink:href="#l" y="444"/><use x="102.517" xlink:href="#ag" y="444"/></g><g fill-opacity=".5"><use x="1172.499" xlink:href="#ah" y="126.059"/><use x="1183.899" xlink:href="#ai" y="123.427"/><use x="1195.299" xlink:href="#aj" y="120.795"/><use x="1206.699" xlink:href="#ak" y="118.163"/></g><g fill-opacity=".5"><use x="1079.95" xlink:href="#al" y="314.262"/><use x="1089.65" xlink:href="#am" y="307.72"/><use x="1099.349" xlink:href="#an" y="301.178"/><use x="1109.049" xlink:href="#al" y="294.635"/><use x="1118.748" xlink:href="#ao" y="288.093"/></g><g fill-opacity=".5"><use x="1165.588" xlink:href="#ap" y="368.752"/><use x="1176.834" xlink:href="#ap" y="365.528"/><use x="1188.08" xlink:href="#aq" y="362.303"/><use x="1199.327" xlink:href="#ap" y="359.078"/><use x="1210.573" xlink:href="#ar" y="355.853"/></g><g fill-opacity=".5"><use x="409.708" xlink:href="#as" y="423.837"/><use x="421.379" xlink:href="#as" y="423.021"/><use x="433.05" xlink:href="#at" y="422.205"/><use x="444.721" xlink:href="#au" y="421.389"/><use x="456.392" xlink:href="#as" y="420.573"/><use x="468.063" xlink:href="#av" y="419.756"/><use x="479.734" xlink:href="#aw" y="418.94"/></g><g fill-opacity=".5"><use x="1200.888" xlink:href="#ax" y="283.807"/><use x="1212.077" xlink:href="#ay" y="287.228"/><use x="1223.265" xlink:href="#az" y="290.648"/><use x="1234.453" xlink:href="#aA" y="294.069"/><use x="1245.642" xlink:href="#aB" y="297.49"/></g><g fill-opacity=".5"><use x="601.05" xlink:href="#aC" y="321"/><use x="612.75" xlink:href="#aD" y="321"/><use x="624.449" xlink:href="#aD" y="321"/><use x="636.149" xlink:href="#ae" y="321"/><use x="647.848" xlink:href="#aE" y="321"/><use x="659.548" xlink:href="#aF" y="321"/><use x="671.248" xlink:href="#aG" y="321"/></g><g fill-opacity=".5"><use x="1151.375" xlink:href="#aH" y="464.129"/><use x="1162.676" xlink:href="#aI" y="467.157"/><use x="1173.977" xlink:href="#aJ" y="470.185"/><use x="1185.278" xlink:href="#aK" y="473.213"/><use x="1196.579" xlink:href="#aH" y="476.241"/><use x="1207.88" xlink:href="#aL" y="479.269"/><use x="1219.181" xlink:href="#aM" y="482.297"/></g><g fill-opacity=".5"><use x="1165.734" xlink:href="#aN" y="572.81"/><use x="1174.826" xlink:href="#aO" y="580.172"/><use x="1183.918" xlink:href="#aP" y="587.535"/><use x="1193.01" xlink:href="#aQ" y="594.898"/><use x="1202.103" xlink:href="#aO" y="602.261"/></g><g fill-opacity=".5"><use x="625.25" xlink:href="#aR" y="553"/><use x="636.95" xlink:href="#aC" y="553"/><use x="648.649" xlink:href="#ae" y="553"/><use x="660.349" xlink:href="#aR" y="553"/><use x="672.048" xlink:href="#aS" y="553"/></g><g fill-opacity=".5"><use x="29" xlink:href="#aT" y="669"/><use x="40.7" xlink:href="#aU" y="669"/><use x="52.399" xlink:href="#aV" y="669"/><use x="64.099" xlink:href="#aW" y="669"/><use x="75.798" xlink:href="#aX" y="669"/><use x="87.498" xlink:href="#aY" y="669"/><use x="99.198" xlink:href="#aZ" y="669"/><use x="110.897" xlink:href="#ba" y="669"/><use x="122.597" xlink:href="#bb" y="669"/><use x="134.296" xlink:href="#aW" y="669"/><use x="145.996" xlink:href="#aU" y="669"/><use x="157.696" xlink:href="#aV" y="669"/><use x="169.395" xlink:href="#bb" y="669"/><use x="181.095" xlink:href="#aZ" y="669"/><use x="192.794" xlink:href="#ba" y="669"/></g><g fill-opacity=".5"><use x="29" xlink:href="#bc" y="693"/><use x="37.509" xlink:href="#bd" y="693"/><use x="46.018" xlink:href="#be" y="693"/><use x="54.526" xlink:href="#be" y="693"/><use x="63.035" xlink:href="#bf" y="693"/><use x="71.544" xlink:href="#bg" y="693"/><use x="80.053" xlink:href="#bd" y="693"/><use x="88.562" xlink:href="#be" y="693"/><use x="97.07" xlink:href="#bh" y="693"/><use x="105.579" xlink:href="#be" y="693"/><use x="114.088" xlink:href="#bd" y="693"/><use x="122.597" xlink:href="#bi" y="693"/><use x="131.106" xlink:href="#bj" y="693"/><use x="139.614" xlink:href="#bh" y="693"/><use x="148.123" xlink:href="#bk" y="693"/><use x="156.632" xlink:href="#bl" y="693"/><use x="165.141" xlink:href="#bh" y="693"/><use x="173.65" xlink:href="#bm" y="693"/><use x="182.158" xlink:href="#bd" y="693"/><use x="190.667" xlink:href="#bn" y="693"/><use x="199.176" xlink:href="#bj" y="693"/><use x="207.685" xlink:href="#bo" y="693"/><use x="216.194" xlink:href="#bp" y="693"/><use x="224.702" xlink:href="#bq" y="693"/><use x="233.211" xlink:href="#bg" y="693"/><use x="241.72" xlink:href="#br" y="693"/><use x="250.229" xlink:href="#bj" y="693"/><use x="258.738" xlink:href="#bh" y="693"/><use x="267.246" xlink:href="#bs" y="693"/><use x="275.771" xlink:href="#bp" y="693"/></g><g fill-opacity=".5"><use x="29" xlink:href="#bj" y="716"/><use x="37.509" xlink:href="#bs" y="716"/><use x="46.034" xlink:href="#bt" y="716"/><use x="54.542" xlink:href="#bo" y="716"/><use x="63.051" xlink:href="#bk" y="716"/><use x="71.56" xlink:href="#bs" y="716"/><use x="80.085" xlink:href="#bj" y="716"/><use x="88.594" xlink:href="#bj" y="716"/><use x="97.102" xlink:href="#bs" y="716"/><use x="105.627" xlink:href="#bu" y="716"/><use x="114.136" xlink:href="#bh" y="716"/><use x="122.645" xlink:href="#bt" y="716"/><use x="131.154" xlink:href="#bd" y="716"/><use x="139.662" xlink:href="#bp" y="716"/><use x="148.171" xlink:href="#be" y="716"/><use x="156.68" xlink:href="#bs" y="716"/><use x="165.205" xlink:href="#bi" y="716"/></g></g></svg>