<svg height="418" viewBox="0 0 1640 418" width="1640" xmlns="http://www.w3.org/2000/svg" xmlns:xlink="http://www.w3.org/1999/xlink"><defs><symbol overflow="visible"><path d="M2.36 11.813v-52h22.937v52zm4.734-4.72h13.468v-42.546H7.095zm0 0"/></symbol><symbol id="H" overflow="visible"><path d="M2.797 0v-7.89c0-2.938.453-5.212 1.36-6.83.913-1.624 2.68-3.303 5.296-5.046l2.844-1.89c1.695-1.133 2.742-2 3.14-2.594.395-.602.594-1.613.594-3.03v-1.08c0-1.35-.178-2.36-.53-3.015-.344-.664-.898-1-1.656-1-.78 0-1.324.46-1.625 1.375-.306.906-.5 2.59-.595 5.047l-8.5-.47c.156-4.132 1.082-7.143 2.78-9.03 1.708-1.895 4.337-2.844 7.892-2.844 3.53 0 6.203.828 8.015 2.484 1.813 1.657 2.72 4.11 2.72 7.36v2.22c0 2.335-.45 4.21-1.345 5.624-.898 1.42-2.636 2.977-5.218 4.672l-2.845 1.89c-1.73 1.2-2.805 2.118-3.22 2.75-.405.626-.608 1.732-.608 3.314v1.75h13.61V0zm0 0"/></symbol><symbol id="I" overflow="visible"><path d="M14.14.47c-3.78 0-6.648-.927-8.593-2.782C3.61-4.176 2.563-7 2.407-10.783l8.515-.468c.125 1.96.437 3.383.937 4.266.507.875 1.206 1.312 2.093 1.312.875 0 1.5-.305 1.875-.922.383-.613.578-1.597.578-2.953v-3.172c0-1.35-.273-2.366-.812-3.046-.53-.675-1.274-1.015-2.22-1.015H9.782v-6.142h3.595c.883 0 1.488-.21 1.813-.64.332-.426.5-1.27.5-2.532v-2.937c0-1.103-.153-1.896-.454-2.376-.293-.49-.742-.735-1.343-.735-.687 0-1.21.37-1.562 1.11-.344.74-.578 1.928-.703 3.56l-8.5-.468c.156-3.468 1.082-6.062 2.78-7.78 1.708-1.72 4.228-2.58 7.564-2.58 3.53 0 6.202.72 8.014 2.157 1.813 1.437 2.72 3.574 2.72 6.406v1.984c0 1.836-.477 3.414-1.423 4.734-.936 1.325-2.167 2.094-3.686 2.313v1.375c1.707.25 3.1 1.133 4.187 2.64 1.083 1.512 1.626 3.325 1.626 5.438v1.89c0 3.25-.906 5.704-2.718 7.36C20.375-.352 17.69.47 14.14.47zm0 0"/></symbol><symbol id="J" overflow="visible"><path d="M13.844-19.47c.945 0 1.61-.397 1.984-1.202.383-.812.578-2.207.578-4.187v-2.515c0-1.852-.195-3.148-.578-3.89-.375-.74-1.04-1.11-1.984-1.11-.906 0-1.555.37-1.938 1.11-.375.742-.562 2.038-.562 3.89v2.516c0 1.98.187 3.376.562 4.188.383.805 1.03 1.203 1.938 1.203zM13.75.47c-3.555 0-6.156-.743-7.813-2.236-1.656-1.5-2.61-3.984-2.86-7.453l8.83-1.092c.062 1.93.257 3.226.593 3.89.332.656.973.984 1.922.984.72 0 1.226-.476 1.53-1.437.302-.957.454-2.633.454-5.03v-5.58h-.328c-.7 1.094-1.57 1.92-2.61 2.47-1.042.554-2.257.828-3.64.828-2.336 0-4.09-.864-5.265-2.594-1.18-1.728-1.766-4.298-1.766-7.704v-2.938c0-3.594.926-6.3 2.78-8.125 1.864-1.832 4.618-2.75 8.267-2.75 3.656 0 6.41 1.06 8.265 3.172 1.863 2.117 2.796 5.25 2.796 9.406v13.33c0 4.292-.937 7.51-2.812 9.656C20.22-.598 17.437.47 13.75.47zm0 0"/></symbol><symbol id="K" overflow="visible"><path d="M3.547 0v-6.234h6.812v-23.922H9.312c-.25 1.98-.93 3.54-2.032 4.672-1.104 1.136-2.413 1.687-3.92 1.656l-.376-6.28c1.79-.064 3.395-.83 4.813-2.298 1.414-1.47 2.3-3.27 2.656-5.407h8.406v31.58h5.624V0zm0 0"/></symbol><symbol id="aJ" overflow="visible"><path d="M9.313-15.36h4.578v-10.218zm17.343 5.907h-4.25V0H13.89v-9.453H2.407v-5.906l9.89-22.453h10.11v22.454h4.25zm0 0"/></symbol><symbol id="aK" overflow="visible"><path d="M10.594-1.563v-11.624H3.406v-6.72h7.188V-31.53h6.515v11.624h7.14v6.718h-7.14v11.626zm0 0"/></symbol><symbol overflow="visible"><path d="M1 5v-22h9.703V5zm2-2h5.703v-18H3zm0 0"/></symbol><symbol id="L" overflow="visible"><path d="M10.594.86c0 1.08-.313 1.91-.938 2.484-.617.57-1.433.86-2.453.86h-2.64c-1.137 0-1.997-.25-2.58-.75-.573-.493-.858-1.212-.858-2.157 0-.656.148-1.18.453-1.563.313-.382.695-.61 1.156-.67v-.408c-.367-.1-.67-.304-.92-.61-.252-.312-.377-.784-.377-1.42 0-.614.188-1.15.563-1.61.375-.47.852-.74 1.438-.813v-.39c-.524-.196-.915-.508-1.172-.938-.262-.426-.39-.863-.39-1.313v-.406c0-.945.335-1.707 1.015-2.28C3.567-11.708 4.46-12 5.58-12h4.938v1.906l-2.438-.453v.39c.375.137.68.407.922.813.238.406.36.824.36 1.25v.39c0 .938-.337 1.688-1 2.25-.67.556-1.56.83-2.672.83h-1.25c-.325 0-.575.085-.75.25-.18.167-.266.46-.266.874 0 .387.094.672.28.86.196.187.462.28.798.28h2.797c1 0 1.797.262 2.39.782.602.512.907 1.324.907 2.437zm-4.97-7.08c.44 0 .755-.132.954-.405.195-.28.297-.695.297-1.25v-.75c0-.54-.102-.94-.297-1.203-.2-.27-.516-.406-.953-.406-.45 0-.777.136-.984.406-.2.262-.296.664-.296 1.203v.75c0 .555.097.97.297 1.25.196.273.524.406.985.406zm-.75 8.657H7.19c.35 0 .644-.1.875-.296.226-.187.343-.546.343-1.078 0-.51-.117-.867-.344-1.062-.218-.195-.496-.297-.828-.297H3.688V.937c0 .5.082.875.25 1.125.175.25.488.376.937.376zm0 0"/></symbol><symbol id="M" overflow="visible"><path d="M1.86 0v-2.078h2.874v-11.86H1.86V-16h5.593v13.922h2.766V0zm0 0"/></symbol><symbol id="N" overflow="visible"><path d="M3.516 4.156c-.336 0-.688-.023-1.063-.062-.367-.032-.758-.086-1.172-.157l.173-2.062c.363.082.692.145.984.188.29.05.55.078.782.078.624 0 1.096-.17 1.42-.515.333-.336.587-.86.766-1.578l.047-.266h-1.75L1.125-12h2.75l2 9.703L7.922-12h2.656L7.798.234c-.337 1.407-.86 2.41-1.58 3.016-.71.602-1.61.906-2.702.906zm0 0"/></symbol><symbol id="O" overflow="visible"><path d="M5.906-1.86c.52 0 .895-.163 1.125-.5.228-.343.345-.894.345-1.656v-4.187c0-.625-.11-1.082-.328-1.375-.21-.29-.496-.438-.86-.438-.335 0-.667.118-1 .344-.324.22-.617.578-.875 1.078v6.03c.282.244.547.42.797.533.257.116.523.17.796.17zM6.344.19c-.367 0-.72-.047-1.063-.14-.335-.095-.655-.228-.968-.407V4H1.626v-16h2.688v1.64h.468c.157-.58.458-1.035.907-1.36.458-.32 1.02-.483 1.688-.483.875 0 1.54.336 2 1 .47.656.703 1.59.703 2.797v4.422c0 1.28-.336 2.296-1 3.046C8.41-.188 7.5.188 6.344.188zm0 0"/></symbol><symbol id="P" overflow="visible"><path d="M1.625 0v-16h2.688v5.64h.468c.177-.57.5-1.02.97-1.343.47-.332 1.02-.5 1.656-.5.82 0 1.473.324 1.953.97.476.635.718 1.5.718 2.592V0H7.375v-8.188c0-.593-.102-1.046-.297-1.36-.2-.31-.484-.468-.86-.468-.374 0-.726.125-1.046.375-.324.25-.61.61-.86 1.078V0zm0 0"/></symbol><symbol id="Q" overflow="visible"><path d="M5.734.188C4.922.188 4.14.061 3.39-.189c-.75-.257-1.386-.582-1.906-.968l.672-1.797c.52.336 1.102.617 1.75.844.645.23 1.254.344 1.828.344.602 0 1.05-.11 1.344-.328.29-.226.438-.578.438-1.047 0-.532-.15-.9-.438-1.11-.293-.22-.898-.473-1.812-.766-1.305-.414-2.21-.894-2.72-1.437-.51-.55-.765-1.305-.765-2.266 0-1.05.36-1.893 1.08-2.53.718-.633 1.687-.953 2.906-.953.757 0 1.476.12 2.156.36.676.24 1.266.546 1.766.92l-.563 1.767c-.5-.29-1.027-.55-1.578-.78-.555-.228-1.074-.345-1.563-.345-.5 0-.875.108-1.125.327-.25.21-.376.543-.376 1 0 .492.16.844.485 1.062.32.218 1.018.51 2.093.874 1.164.375 1.984.84 2.453 1.39.468.544.703 1.294.703 2.25 0 1.044-.4 1.9-1.19 2.563-.78.668-1.882 1-3.296 1zm0 0"/></symbol><symbol id="aL" overflow="visible"><path d="M4.938-1.72c.375 0 .71-.085 1.015-.264.3-.188.57-.485.813-.89V-5H4.922c-.418 0-.715.12-.89.36-.18.23-.266.656-.266 1.28 0 .532.086.938.265 1.22.19.28.49.42.907.42zM4.266.204c-.9 0-1.618-.312-2.157-.937-.544-.633-.813-1.47-.813-2.5 0-1.082.29-1.922.875-2.516.582-.594 1.36-.89 2.328-.89h2.266v-1.813c0-.57-.12-1-.36-1.28-.242-.283-.605-.423-1.093-.423-.493 0-.852.14-1.08.422-.217.28-.39.796-.514 1.546l-2.204-.468c.218-1.227.64-2.125 1.265-2.688.626-.57 1.5-.86 2.626-.86 1.24 0 2.203.282 2.89.845.696.563 1.048 1.465 1.048 2.704v5.39c0 .606.117.993.36 1.157.237.17.597.184 1.077.047v2.08C9.915.19 9.235.14 8.735-.142c-.492-.282-.812-.8-.968-1.563H7.36c-.294.53-.715.984-1.266 1.36C5.54.02 4.93.202 4.266.202zm0 0"/></symbol><symbol id="aM" overflow="visible"><path d="M1.625 0v-12h2.688v1.64h.468c.24-.57.595-1.02 1.064-1.343.476-.332 1.004-.5 1.578-.5.844 0 1.492.32 1.953.953.47.625.703 1.496.703 2.61V0H7.375v-8.156c0-.602-.102-1.063-.297-1.375-.2-.322-.484-.486-.86-.486-.374 0-.726.125-1.046.375-.324.25-.61.624-.86 1.124V0zm0 0"/></symbol><symbol id="aN" overflow="visible"><path d="M4.203.203c-.793 0-1.422-.32-1.89-.97-.46-.643-.688-1.514-.688-2.608V-12h2.688v8.047c0 .648.093 1.137.28 1.47.188.323.47.483.845.483s.722-.13 1.046-.39c.332-.27.63-.672.89-1.204V-12h2.704V0H7.375v-1.656h-.438c-.167.574-.5 1.027-1 1.36-.5.33-1.078.5-1.734.5zm0 0"/></symbol><symbol id="aO" overflow="visible"><path d="M10.156-2.703c-.28 1.012-.734 1.75-1.36 2.22C8.173-.024 7.24.202 6 .202 4.656.203 3.586-.16 2.797-.89c-.78-.727-1.172-1.758-1.172-3.094v-4.094c0-1.32.383-2.336 1.156-3.047.77-.72 1.798-1.078 3.08-1.078 1.3 0 2.327.37 3.077 1.11.758.73 1.14 1.804 1.14 3.218V-5.5H4.314v1.625c0 .742.132 1.29.406 1.64.28.344.733.516 1.358.516.53 0 .93-.116 1.203-.358.282-.25.49-.672.626-1.266zm-5.844-5.5v1.062h3.063v-.954c0-.8-.117-1.367-.344-1.703-.23-.344-.62-.515-1.17-.515-.544 0-.938.164-1.188.484-.242.324-.36.867-.36 1.625zm0 0"/></symbol><symbol overflow="visible"><path d="M1 5v-22h9.703V5zm2-2h5.703v-18H3zm0 0"/></symbol><symbol id="R" overflow="visible"><path d="M1.797 0v-16h3.61v13.36h5.25V0zm0 0"/></symbol><symbol id="S" overflow="visible"><path d="M5.078-2c.188 0 .383-.05.594-.156.207-.102.414-.285.625-.547v-2.14H4.86c-.25 0-.423.105-.516.312-.094.198-.14.59-.14 1.17 0 .438.07.778.218 1.016.144.23.363.344.656.344zM4.048.203c-.876 0-1.603-.328-2.173-.984-.574-.665-.86-1.5-.86-2.5 0-1.103.298-1.947.89-2.533.603-.593 1.407-.89 2.407-.89h1.985V-8.36c0-.53-.09-.898-.266-1.11-.167-.206-.432-.31-.796-.31-.336 0-.578.132-.734.39-.156.25-.28.714-.375 1.39l-2.86-.5c.24-1.32.676-2.27 1.313-2.844.645-.57 1.586-.86 2.828-.86 1.426 0 2.5.29 3.22.86.718.563 1.077 1.528 1.077 2.89v4.83c0 .593.098.96.297 1.093.195.124.484.14.86.046v2.421c-.856.227-1.56.21-2.11-.046-.543-.257-.934-.753-1.172-1.484h-.5c-.305.492-.726.914-1.266 1.266-.53.35-1.12.53-1.765.53zm0 0"/></symbol><symbol id="T" overflow="visible"><path d="M7.5.203C6.195.203 5.172-.16 4.422-.89c-.75-.727-1.125-1.723-1.125-2.985V-9.5H1.375V-12h1.922v-4h3.61v4h3.046v2.5H6.906V-4c0 .523.11.93.328 1.22.227.292.555.436.985.436.33 0 .643-.05.936-.156.29-.102.504-.18.64-.234l.298 2.453c-.21.135-.56.25-1.047.343-.492.093-1.008.14-1.547.14zm0 0"/></symbol><symbol id="U" overflow="visible"><path d="M1.484 0zm0 0v-2.5h2.579v-7h-2.58V-12h6.173v9.5h2.578V0zM6-13.922c-.656 0-1.188-.1-1.594-.312-.398-.207-.593-.567-.593-1.079v-.265c0-.53.195-.906.593-1.125.407-.227.938-.344 1.594-.344.656 0 1.18.117 1.578.344.406.22.61.594.61 1.125v.265c0 .512-.21.872-.626 1.08-.406.21-.93.31-1.562.31zm0 0"/></symbol><symbol id="V" overflow="visible"><path d="M1.266 0v-12H4.86v1.734h.452c.188-.613.508-1.086.97-1.421.468-.344 1.007-.516 1.624-.516.79 0 1.41.297 1.86.89.445.594.67 1.418.67 2.47L10.44 0H6.844v-8.22c0-.413-.07-.737-.203-.967-.136-.24-.32-.36-.546-.36-.25 0-.485.106-.703.313-.218.21-.398.496-.53.86V0zm0 0"/></symbol><symbol id="ag" overflow="visible"><path d="M2.094 0v-16h8.86v2.64h-5.25v4.657h4.202v2.64H5.703V0zm0 0"/></symbol><symbol id="ah" overflow="visible"><path d="M10.78.656c0 1.082-.323 1.942-.967 2.578-.637.645-1.532.97-2.688.97H4.64c-1.324 0-2.273-.266-2.843-.798-.574-.523-.86-1.203-.86-2.047 0-.67.165-1.2.5-1.594.344-.407.743-.64 1.204-.704v-.406c-.374-.133-.7-.35-.968-.656-.262-.3-.39-.773-.39-1.422 0-.687.222-1.258.67-1.72.446-.467.943-.75 1.486-.842v-.375c-.532-.175-.965-.468-1.297-.874-.324-.414-.484-.89-.484-1.422v-.188c0-1 .375-1.773 1.125-2.328.75-.55 1.704-.828 2.86-.828h5.282v2.078l-2.516-.375v.375c.352.137.656.4.906.78.258.376.39.79.39 1.236v.218c0 .97-.39 1.727-1.17 2.266-.774.53-1.696.797-2.766.797H5c-.344 0-.625.078-.844.234-.21.156-.312.42-.312.796 0 .356.094.617.28.78.19.158.43.236.735.236h2.343c1.113 0 1.988.265 2.625.797.633.522.953 1.335.953 2.436zm-5.124-7c.32 0 .54-.117.657-.36.113-.25.17-.6.17-1.062v-.875c0-.426-.06-.758-.186-1-.117-.24-.328-.36-.64-.36-.305 0-.516.12-.64.36-.12.242-.173.574-.173 1v.874c0 .46.05.813.156 1.063.102.242.32.36.656.36zM5.28 2.188h1.657c.313 0 .555-.08.735-.235.187-.156.28-.47.28-.937 0-.47-.1-.782-.296-.938-.187-.144-.43-.22-.718-.22H4.28V.923c0 .414.056.726.173.937.113.218.39.327.828.327zm0 0"/></symbol><symbol id="ai" overflow="visible"><path d="M3.594.203c-.72 0-1.29-.297-1.703-.89-.417-.602-.624-1.426-.624-2.47V-12H4.86v7.938c0 .554.05.953.156 1.203.113.25.273.376.484.376.25 0 .477-.11.688-.329.218-.226.437-.593.656-1.093V-12h3.593V0H6.845v-1.734h-.438c-.187.593-.54 1.07-1.047 1.421-.512.344-1.102.516-1.766.516zm0 0"/></symbol><symbol id="aj" overflow="visible"><path d="M1.375 0v-12h3.61v2.14h.452c.22-.812.58-1.406 1.08-1.78.506-.376 1.092-.563 1.75-.563.82 0 1.413.297 1.78.89.363.594.547 1.434.547 2.516v2.094H7.422V-7.78c0-.677-.063-1.142-.188-1.392s-.355-.375-.687-.375c-.305 0-.602.125-.89.375-.294.25-.516.65-.673 1.188V0zm0 0"/></symbol><symbol id="ak" overflow="visible"><path d="M10.516-2.78c-.25 1.06-.72 1.827-1.407 2.296-.68.46-1.672.687-2.985.687-1.5 0-2.688-.375-3.563-1.125-.867-.758-1.296-1.78-1.296-3.062v-4.204c0-1.238.41-2.218 1.234-2.937.82-.72 1.94-1.078 3.36-1.078 1.437 0 2.554.383 3.36 1.14.81.75 1.217 1.797 1.217 3.14v2.61H4.86v1.532c0 .56.093.99.28 1.28.196.293.57.438 1.126.438.394 0 .707-.102.937-.313.238-.207.39-.602.453-1.188zM4.86-8.454v1.265h1.984v-1.25c0-.613-.07-1.03-.203-1.25-.136-.218-.398-.328-.78-.328-.4 0-.665.11-.798.329-.136.21-.203.62-.203 1.234zm0 0"/></symbol><symbol id="al" overflow="visible"><path d="M5.422.14c-.844 0-1.64-.124-2.39-.374-.743-.258-1.356-.54-1.845-.844l.672-2.14c.562.292 1.16.554 1.796.78.645.23 1.227.344 1.75.344.49 0 .864-.094 1.125-.28.26-.188.392-.47.392-.845 0-.393-.11-.678-.328-.858-.22-.188-.782-.445-1.688-.78-1.312-.49-2.215-1.005-2.703-1.548-.48-.54-.72-1.29-.72-2.25 0-1.04.396-1.89 1.19-2.547.8-.664 1.862-1 3.186-1 .82 0 1.562.11 2.218.328.664.21 1.238.46 1.72.75L9.31-9.078c-.51-.25-1.042-.457-1.593-.625-.544-.164-1.025-.25-1.44-.25-.366 0-.663.078-.89.234-.218.15-.327.392-.327.736 0 .324.14.578.42.765.283.19 1 .51 2.158.954 1.094.43 1.844.914 2.25 1.454.415.53.626 1.296.626 2.296 0 1.012-.446 1.875-1.329 2.594C8.302-.212 7.047.14 5.422.14zm0 0"/></symbol><symbol id="am" overflow="visible"><path d="M10.688.344c-.5-.18-.985-.41-1.454-.703-.46-.288-.914-.624-1.36-1-.405.48-.89.86-1.452 1.14-.563.282-1.274.423-2.125.423-1 0-1.84-.336-2.516-1.016-.667-.687-1-1.687-1-3 0-1.02.173-1.898.517-2.64.344-.75.914-1.453 1.72-2.11-.244-.613-.423-1.203-.548-1.765-.126-.57-.19-1.067-.19-1.485 0-1.406.298-2.488.892-3.25.6-.77 1.453-1.156 2.547-1.156 1.007 0 1.772.31 2.296.923.52.617.78 1.28.78 2 0 .918-.24 1.73-.718 2.438-.47.712-1.28 1.465-2.437 2.266.05.156.11.32.173.485.07.17.14.33.203.485.195.46.421.898.67 1.313.252.406.505.796.767 1.17.156-.467.313-.987.47-1.56.155-.57.32-1.19.5-1.845l2.593.64c-.313.9-.657 1.743-1.032 2.532-.375.78-.75 1.484-1.125 2.11l2.64 1.203zm-5.64-12.14c0 .25.003.507.014.765.02.25.063.5.125.75.29-.322.532-.68.72-1.08.187-.394.28-.878.28-1.453 0-.425-.058-.726-.17-.906-.107-.175-.228-.264-.36-.264-.212 0-.368.14-.47.421-.093.274-.14.86-.14 1.766zm.218 9.78c.238 0 .453-.062.64-.187.196-.133.38-.328.547-.578-.312-.376-.62-.767-.922-1.173-.303-.406-.577-.817-.827-1.235l-.28-.468c-.095-.164-.19-.32-.282-.47-.054.294-.1.603-.14.923-.03.324-.047.672-.047 1.047 0 .742.125 1.28.375 1.625.25.342.563.514.938.514zm0 0"/></symbol><symbol id="an" overflow="visible"><path/></symbol><symbol id="ao" overflow="visible"><path d="M3.578 4.203c-.387 0-.805-.023-1.25-.062-.45-.042-.922-.093-1.422-.156l.11-2.5c.414.094.796.164 1.14.22.352.05.66.077.922.077.656 0 1.16-.167 1.516-.5.35-.323.593-.843.718-1.56l.063-.282H2.797L.657-12h3.61l1.592 8.938L7.56-12h3.454L8.437.016C8.146 1.398 7.61 2.44 6.827 3.14c-.78.708-1.866 1.063-3.25 1.063zm0 0"/></symbol><symbol id="ap" overflow="visible"><path d="M3.563-8.922V0H.72v-12h2.796v1.594h.546c.145-.594.352-1.03.625-1.313.27-.28.614-.42 1.032-.42.362 0 .66.132.89.39.226.262.382.71.468 1.344h.438c.164-.594.382-1.03.656-1.313.28-.28.648-.42 1.11-.42.58 0 1.007.23 1.28.687.282.46.422 1.172.422 2.14V0H8.14v-8.86c0-.363-.015-.632-.046-.812-.03-.176-.117-.265-.25-.265-.168 0-.313.105-.438.312-.117.21-.203.445-.265.703V0H4.564v-8.86c0-.363-.024-.632-.063-.812-.043-.176-.137-.265-.28-.265-.15 0-.275.1-.376.296-.094.187-.188.43-.28.718zm0 0"/></symbol><symbol id="aq" overflow="visible"><path d="M5.766.14C4.88.14 4.004.017 3.14-.233c-.867-.258-1.492-.536-1.874-.83v-14.936H4.86v5.734h.452c.165-.632.46-1.113.89-1.437.427-.332.978-.5 1.657-.5.882 0 1.535.36 1.952 1.078.415.71.626 1.605.626 2.688v4.453c0 1.355-.4 2.382-1.188 3.078C8.47-.206 7.305.14 5.766.14zm.218-2.484c.332 0 .555-.117.672-.36.125-.237.188-.67.188-1.296v-3.875c0-.602-.074-1.03-.22-1.28-.136-.26-.31-.392-.53-.392-.188 0-.4.078-.625.235-.22.148-.423.386-.61.718v5.89c.124.095.273.18.452.25.188.075.41.11.672.11zm0 0"/></symbol><symbol id="ar" overflow="visible"><path d="M5.875.203c-1.406 0-2.527-.367-3.36-1.11-.824-.738-1.234-1.75-1.234-3.03v-4.047c0-1.29.41-2.317 1.236-3.079.832-.757 1.953-1.14 3.36-1.14 1.405 0 2.52.387 3.343 1.156.82.762 1.233 1.805 1.233 3.125v4.047c0 1.25-.414 2.246-1.234 2.984C8.394-.16 7.28.202 5.874.202zm0-2.5c.363 0 .617-.13.766-.39.145-.27.22-.735.22-1.39V-7.86c0-.663-.075-1.14-.22-1.42-.148-.283-.402-.423-.765-.423-.355 0-.61.14-.766.422-.157.28-.235.75-.235 1.405v3.72c0 .678.078 1.155.234 1.436.156.283.41.423.765.423zm0 0"/></symbol><symbol id="as" overflow="visible"><path d="M1.688 0v-2.5h2.796v-11H1.688V-16h6.39v13.5h2.578V0zm0 0"/></symbol><symbol id="av" overflow="visible"><path d="M6.22.203c-1.67 0-2.923-.47-3.767-1.406-.844-.945-1.265-2.348-1.265-4.203v-5.11c0-1.882.42-3.3 1.265-4.25.844-.957 2.098-1.437 3.766-1.437 1.6 0 2.784.453 3.546 1.36.77.905 1.195 2.355 1.28 4.343l-3.608.203c-.055-1.332-.165-2.207-.33-2.625-.167-.426-.483-.64-.952-.64-.543 0-.906.242-1.093.718-.188.47-.282 1.344-.282 2.625v4.533c0 1.21.083 2.054.25 2.53.177.48.552.72 1.126.72.47 0 .785-.204.953-.61.163-.406.273-1.265.327-2.578l3.61.203c-.074 1.95-.496 3.375-1.266 4.28C9.02-.24 7.833.204 6.22.204zm0 0"/></symbol><symbol id="aw" overflow="visible"><path d="M5.953.203C4.473.203 3.32-.172 2.5-.922c-.824-.758-1.234-1.812-1.234-3.156v-3.875c0-1.352.406-2.4 1.218-3.14.82-.74 1.973-1.11 3.454-1.11 1.332 0 2.363.36 3.093 1.078.728.71 1.19 1.82 1.376 3.328l-3.47.25c-.053-.82-.163-1.383-.327-1.687-.157-.3-.423-.454-.798-.454-.367 0-.617.137-.75.407-.136.272-.203.776-.203 1.514v3.547c0 .75.066 1.263.202 1.532.145.262.41.39.797.39.374 0 .632-.124.78-.374.157-.25.255-.71.298-1.39l3.468.265C10.332-2.44 9.93-1.437 9.203-.78c-.72.655-1.805.983-3.25.983zm0 0"/></symbol><symbol id="ax" overflow="visible"><path d="M5.875.203C4.352.203 3.19-.273 2.39-1.234c-.804-.97-1.203-2.29-1.203-3.97v-5.593c0-1.664.4-2.984 1.204-3.953.8-.97 1.938-1.453 3.407-1.453 1.57 0 2.734.418 3.484 1.25.76.836 1.18 2.09 1.267 3.765l-3.61.204c-.062-1.04-.167-1.727-.312-2.063-.137-.344-.39-.515-.766-.515-.512 0-.82.28-.923.843-.105.564-.156 1.298-.156 2.204v5.032c0 .93.04 1.668.126 2.218.094.555.407.83.938.83.52-.002.832-.287.937-.86.115-.57.165-1.33.157-2.267h-.953v-2.64h4.563v2.937c0 1.782-.418 3.14-1.25 4.079C8.46-.257 7.32.202 5.875.202zm0 0"/></symbol><symbol id="ay" overflow="visible"><path d="M4.78-5.063V0H1.188v-16H4.78v8.594h.454L7.297-12h3.578L8.203-6.562 10.843 0h-3.78l-1.83-5.063zm0 0"/></symbol><symbol id="aR" overflow="visible"><path d="M4.063 0v-13.36H.765V-16h10.187v2.64H7.656V0zm0 0"/></symbol><symbol id="aY" overflow="visible"><path d="M5.375.188c-.742 0-1.477-.118-2.203-.344-.72-.227-1.402-.563-2.047-1l.5-2.703c.613.4 1.22.73 1.813 1 .6.274 1.265.407 1.984.407.57 0 .97-.16 1.187-.485.226-.332.343-.757.343-1.28 0-.657-.168-1.13-.5-1.423-.336-.3-.898-.64-1.687-1.016-1.243-.57-2.12-1.223-2.64-1.953-.524-.726-.782-1.66-.782-2.796 0-1.383.406-2.52 1.218-3.406.813-.895 1.954-1.344 3.422-1.344.72 0 1.4.11 2.047.328.658.21 1.25.515 1.783.922l-.313 2.53c-.586-.382-1.125-.663-1.625-.843-.5-.186-.992-.28-1.47-.28-.5 0-.874.14-1.124.422-.24.28-.358.715-.358 1.297 0 .585.164 1.01.5 1.28.344.273.894.61 1.656 1.016 1.25.668 2.14 1.37 2.672 2.11.54.74.813 1.65.813 2.733 0 1.48-.46 2.656-1.376 3.53C8.27-.24 7 .19 5.376.19zm0 0"/></symbol><symbol id="aZ" overflow="visible"><path d="M10.36 0h-9v-2.5l5.187-7H1.36V-12h9v2.5l-4.86 7h4.86zm0 0"/></symbol><symbol id="ba" overflow="visible"><path d="M5.86-7.734c-.657 0-1.184-.16-1.58-.485-.397-.33-.593-.803-.593-1.42v-1.094c0-.633.196-1.118.594-1.454.396-.332.923-.5 1.58-.5.656 0 1.175.168 1.562.5.394.336.594.82.594 1.454v1.093c0 .617-.204 1.09-.61 1.42-.406.325-.922.486-1.547.486zm0 7.86c-.657 0-1.184-.16-1.58-.485-.397-.33-.593-.804-.593-1.42v-1.095c0-.625.196-1.102.594-1.438.396-.332.923-.5 1.58-.5.656 0 1.175.168 1.562.5.394.336.594.813.594 1.438v1.094c0 .616-.204 1.09-.61 1.42C7-.034 6.484.126 5.86.126zm0 0"/></symbol><symbol id="bb" overflow="visible"><path d="M3.72 0v-9.5H1.374V-12H3.72v-.688c0-1.195.382-2.144 1.155-2.843.78-.708 1.828-1.064 3.14-1.064.407 0 .813.04 1.22.11.413.074.843.195 1.28.36l-.296 2.265c-.376-.144-.697-.242-.954-.296-.262-.05-.496-.078-.704-.078-.386 0-.695.136-.92.406-.22.273-.33.734-.33 1.39V-12h3.125v2.5H7.313V0zm0 0"/></symbol><symbol id="bk" overflow="visible"><path d="M5.625-2.484c.238 0 .457-.07.656-.22.197-.155.384-.39.564-.702v-5.688c-.262-.22-.48-.367-.657-.453-.167-.094-.335-.14-.5-.14-.312 0-.53.124-.656.374-.116.25-.17.688-.17 1.313v3.875c0 .555.062.965.187 1.234.125.273.316.406.578.406zm.78.75c-.135.53-.397.992-.78 1.375-.375.376-.902.563-1.578.563-.97 0-1.68-.35-2.125-1.062-.438-.718-.656-1.617-.656-2.703v-4.453c0-1.29.32-2.3.968-3.03.645-.727 1.54-1.095 2.688-1.095.35 0 .69.042 1.016.124.32.075.625.196.906.36V-16h3.593V0H6.845v-1.734zm0 0"/></symbol><symbol id="bl" overflow="visible"><path d="M6.016-2.313c.32 0 .54-.124.656-.374.113-.25.172-.688.172-1.313v-4.297c0-.457-.074-.78-.22-.97-.136-.186-.31-.28-.53-.28-.188 0-.4.078-.625.235-.22.148-.423.386-.61.718v5.688c.25.22.46.375.64.47.176.084.348.123.516.123zM6.78.142C6.415.14 6.07.1 5.75.017c-.313-.07-.61-.192-.89-.36V4H1.265v-16H4.86v1.734h.452c.133-.625.422-1.1.86-1.437.445-.332 1.008-.5 1.687-.5.843 0 1.484.29 1.92.86.44.573.658 1.405.658 2.5v4.86c0 1.272-.336 2.276-1 3.014C8.78-.226 7.894.14 6.78.14zm0 0"/></symbol><symbol id="bm" overflow="visible"><path d="M6.953 0L5.86-5.656 4.796 0H1.844L.562-12h2.954l.578 7.063.89-4.922h1.672l.985 4.954L8.19-12h2.953L9.876 0zm0 0"/></symbol><symbol overflow="visible"><path d="M.734 3.64v-16H7.78v16zm1.454-1.453h4.14v-13.093h-4.14zm0 0"/></symbol><symbol id="W" overflow="visible"><path d="M1.422 0v-1.547h2.22v-8.11h-.314c-.125.524-.383.934-.765 1.235-.376.293-.797.422-1.266.39l-.125-1.624c.55 0 1.062-.18 1.53-.547.47-.375.798-.852.986-1.438h1.92v10.093h1.923V0zm0 0"/></symbol><symbol id="X" overflow="visible"><path d="M4.266.14c-1.075 0-1.883-.33-2.422-1-.532-.675-.797-1.68-.797-3.015v-3.97c0-1.31.27-2.296.812-2.952.538-.656 1.347-.984 2.42-.984 1.01 0 1.75.214 2.22.64.47.43.758 1.148.875 2.156l-2.078.328c-.074-.633-.188-1.063-.344-1.28-.156-.228-.418-.345-.78-.345-.42 0-.716.178-.892.53-.167.344-.25.938-.25 1.78v1.767h.11c.208-.352.462-.617.766-.797.313-.176.703-.266 1.172-.266.813 0 1.41.293 1.797.875.395.585.594 1.398.594 2.437v.61c0 1.155-.275 2.027-.814 2.61-.53.585-1.328.874-2.39.874zM4.25-1.374c.438 0 .75-.148.938-.453.187-.3.28-.8.28-1.5v-.485c0-.726-.093-1.242-.28-1.546-.188-.312-.5-.468-.938-.468-.438 0-.75.156-.938.47-.187.303-.28.82-.28 1.545v.485c0 .7.093 1.2.28 1.5.188.305.5.453.938.453zm0 0"/></symbol><symbol id="Y" overflow="visible"><path d="M4.203.14c-1.18 0-2.008-.25-2.484-.75C1.25-1.116.99-2.022.952-3.327l1.953-.14c.07.843.188 1.405.344 1.687.164.272.484.405.953.405.5 0 .836-.133 1.016-.406.186-.27.28-.712.28-1.33v-.92c0-.595-.105-1.025-.313-1.298-.2-.28-.558-.422-1.078-.422H1.265v-5.89H7.11v1.5H3.25v2.796h1.484c.895 0 1.57.25 2.032.75.468.5.703 1.278.703 2.328v1.22c0 1.023-.275 1.808-.814 2.358-.543.555-1.36.83-2.453.83zm0 0"/></symbol><symbol id="Z" overflow="visible"><path/></symbol><symbol id="aa" overflow="visible"><path d="M7.703.625c0 .78-.226 1.38-.672 1.797-.448.414-1.046.625-1.796.625H3.313c-.825 0-1.45-.18-1.876-.53C1.02 2.16.813 1.64.813.952c0-.48.11-.86.33-1.14.225-.282.514-.446.858-.5V-.97c-.28-.08-.512-.233-.688-.452-.18-.226-.265-.57-.265-1.03 0-.446.133-.837.406-1.173.27-.332.617-.53 1.047-.594v-.28c-.375-.145-.656-.367-.844-.672-.187-.312-.28-.633-.28-.97v-.28c0-.695.24-1.254.733-1.672.488-.426 1.14-.64 1.953-.64h3.593v1.39l-1.78-.328v.28c.27.095.49.294.67.595.177.293.266.594.266.906v.296c0 .68-.246 1.22-.734 1.625-.48.408-1.133.61-1.953.61h-.89c-.243 0-.43.063-.563.188-.125.117-.188.324-.188.625 0 .28.067.492.204.625.144.137.335.203.578.203h2.046c.727 0 1.305.19 1.735.564.437.375.656.968.656 1.78zM4.093-4.53c.313 0 .54-.1.688-.298.146-.195.22-.5.22-.906v-.532c0-.394-.074-.69-.22-.89-.147-.196-.374-.297-.686-.297-.324 0-.563.1-.72.297-.147.2-.218.496-.218.89v.532c0 .406.07.71.22.906.144.2.382.297.718.297zm-.546 6.31H5.22c.257 0 .47-.073.64-.218.163-.136.25-.402.25-.796 0-.368-.087-.62-.25-.766-.157-.145-.356-.22-.594-.22H2.672v.907c0 .352.062.625.187.813.124.188.35.28.687.28zm0 0"/></symbol><symbol id="ab" overflow="visible"><path d="M1.36 0v-1.516h2.093v-8.625H1.36v-1.5H5.42v10.124h2.016V0zm0 0"/></symbol><symbol id="ac" overflow="visible"><path d="M2.563 3.03c-.243 0-.5-.014-.782-.046-.272-.03-.553-.074-.843-.125l.125-1.485c.258.05.493.094.704.125.218.04.41.063.578.063.457 0 .8-.125 1.03-.375.24-.25.423-.637.548-1.157l.047-.186H2.686L.813-8.734h2.015L4.28-1.672l1.486-7.062h1.921L5.672.172c-.242 1.02-.62 1.75-1.14 2.187-.524.445-1.18.67-1.97.67zm0 0"/></symbol><symbol id="ad" overflow="visible"><path d="M4.297-1.36c.375 0 .644-.117.812-.36.175-.25.265-.647.265-1.202V-5.97c0-.444-.078-.772-.234-.983-.156-.22-.37-.328-.64-.328-.25 0-.496.085-.734.25-.23.155-.438.417-.625.78v4.39c.208.18.4.31.58.39.186.075.378.11.577.11zM4.61.126c-.262 0-.516-.04-.766-.11-.25-.062-.485-.156-.703-.28v3.17H1.173v-11.64h1.97v1.204h.327c.124-.427.346-.755.67-.986.333-.238.743-.36 1.235-.36.625 0 1.102.243 1.438.72.343.48.515 1.164.515 2.047v3.22c0 .93-.246 1.663-.734 2.203-.48.542-1.14.812-1.985.812zm0 0"/></symbol><symbol id="ae" overflow="visible"><path d="M1.172 0v-11.64h1.97v4.11h.327c.132-.415.374-.743.717-.986.344-.238.74-.36 1.188-.36.602 0 1.078.235 1.422.704.35.47.53 1.102.53 1.89V0H5.376v-5.953c0-.438-.074-.766-.22-.984-.147-.227-.354-.344-.624-.344-.28 0-.542.093-.78.28-.23.18-.434.438-.61.78V0zm0 0"/></symbol><symbol id="af" overflow="visible"><path d="M4.172.125c-.594 0-1.168-.09-1.72-.266-.542-.188-1-.422-1.374-.704l.5-1.312c.375.242.797.45 1.266.625.47.167.91.25 1.328.25.437 0 .758-.083.97-.25.217-.165.327-.415.327-.75 0-.384-.11-.658-.33-.814-.21-.156-.648-.344-1.312-.562-.937-.3-1.594-.65-1.97-1.047-.374-.395-.56-.942-.56-1.64 0-.76.257-1.368.78-1.83.52-.468 1.223-.702 2.11-.702.55 0 1.07.09 1.562.266.5.18.93.403 1.297.672l-.422 1.282c-.355-.22-.734-.407-1.14-.563-.4-.163-.778-.25-1.14-.25-.357 0-.626.08-.814.236-.178.148-.264.386-.264.718 0 .356.113.618.343.782.238.156.75.367 1.53.625.852.274 1.446.61 1.782 1.016.344.4.516.946.516 1.64 0 .75-.29 1.372-.86 1.86-.574.48-1.375.72-2.406.72zm0 0"/></symbol><symbol id="at" overflow="visible"><path d="M4.266.14C3.116.14 2.29-.14 1.78-.702 1.27-1.266.993-2.11.954-3.233l1.953-.142c.063.762.188 1.29.375 1.578.19.28.505.422.954.422.47 0 .797-.125.985-.375.186-.258.28-.69.28-1.297v-.672c0-.6-.105-1.03-.313-1.28-.2-.258-.53-.39-1-.39h-1.11v-1.532h1.11c.415 0 .704-.086.86-.266.156-.187.234-.535.234-1.046v-.688c0-.488-.085-.832-.25-1.03-.155-.208-.42-.314-.796-.314-.367 0-.632.133-.796.39-.157.263-.262.712-.313 1.345l-1.97-.142c.052-1.07.322-1.86.814-2.36.487-.5 1.21-.75 2.17-.75.977 0 1.743.23 2.298.688.55.45.828 1.15.828 2.094v.547c0 .574-.153 1.047-.454 1.422-.304.366-.7.573-1.187.624v.422c.563.074 1.008.343 1.344.812.33.47.5 1.024.5 1.656v.485c0 1.01-.263 1.792-.782 2.342-.524.555-1.33.83-2.422.83zm0 0"/></symbol><symbol id="au" overflow="visible"><path d="M1.047 0v-2.453c0-.914.144-1.613.437-2.094.29-.476.832-.93 1.625-1.36l1.14-.577c.47-.24.77-.47.906-.688.145-.226.22-.578.22-1.047v-.5c0-.538-.09-.936-.267-1.186-.17-.25-.45-.375-.844-.375-.418 0-.7.155-.844.467-.15.305-.246.915-.297 1.83l-1.97-.142c.052-1.313.318-2.25.798-2.813.488-.562 1.254-.843 2.297-.843 1.03 0 1.805.25 2.328.75.52.49.78 1.23.78 2.217v.86c0 .72-.147 1.29-.436 1.703-.28.418-.81.84-1.578 1.266l-1.14.578c-.493.26-.81.515-.954.765-.148.25-.22.636-.22 1.156v.937h4.44V0zm0 0"/></symbol><symbol id="az" overflow="visible"><path d="M4.266-5.797c.445 0 .765-.156.953-.47.186-.31.28-.83.28-1.56v-.486c0-.707-.094-1.21-.28-1.515-.19-.3-.51-.453-.954-.453-.438 0-.75.15-.938.452-.187.305-.28.808-.28 1.515v.485c0 .73.093 1.25.28 1.562.188.313.5.47.938.47zM4.234.14c-1.01 0-1.75-.21-2.218-.64-.47-.438-.758-1.148-.86-2.14l2.063-.344c.06.648.17 1.078.327 1.296.156.21.426.313.812.313.413 0 .706-.172.874-.516.176-.352.266-.97.266-1.844v-1.72h-.125c-.188.345-.445.61-.766.798-.313.187-.696.28-1.14.28-.806 0-1.408-.272-1.814-.827-.406-.55-.61-1.38-.61-2.484v-.61c0-1.144.266-2.008.798-2.594.54-.594 1.347-.89 2.422-.89 1.062 0 1.86.34 2.39 1.014.54.668.813 1.668.813 3v3.954c0 1.312-.28 2.304-.83 2.968C6.1-.188 5.298.14 4.235.14zm0 0"/></symbol><symbol id="aP" overflow="visible"><path d="M4.266.14c-1.032 0-1.829-.406-2.39-1.218-.556-.813-.83-1.96-.83-3.453v-2.517c0-1.52.274-2.687.83-3.5.562-.82 1.358-1.234 2.39-1.234 1.02 0 1.804.413 2.36 1.233.56.813.843 1.98.843 3.5v2.516c0 1.49-.282 2.64-.845 3.452-.555.812-1.34 1.22-2.36 1.22zm0-1.515c.52 0 .882-.234 1.093-.703.206-.477.312-1.32.312-2.53v-2.36c0-1.227-.106-2.087-.313-2.58-.212-.487-.575-.733-1.094-.733-.532 0-.903.245-1.11.733-.21.492-.312 1.352-.312 2.578v2.36c0 1.212.1 2.055.312 2.532.207.47.578.703 1.11.703zm0-3.28c-.25 0-.45-.052-.594-.157-.137-.102-.203-.305-.203-.61v-.78c0-.29.065-.493.202-.61.144-.114.344-.172.594-.172.226 0 .41.058.546.17.145.12.22.322.22.61v.782c0 .305-.075.508-.22.61-.148.105-.328.156-.546.156zm0 0"/></symbol><symbol id="aQ" overflow="visible"><path d="M3.453-.547V-4.25H1.125v-1.688h2.328V-9.64h1.625v3.703h2.328v1.687H5.078v3.703zm0 0"/></symbol><symbol id="aS" overflow="visible"><path d="M3.594-1.25c.27 0 .515-.063.734-.188.22-.132.414-.35.594-.656V-3.64H3.578c-.305 0-.523.09-.656.265-.125.168-.188.48-.188.938 0 .386.067.683.204.89.132.2.35.297.656.297zm-.5 1.39c-.65 0-1.168-.222-1.563-.67C1.146-.99.954-1.6.954-2.36c0-.78.207-1.382.625-1.812.414-.437.977-.656 1.688-.656h1.656v-1.328c0-.414-.09-.723-.266-.922-.18-.207-.437-.313-.78-.313-.368 0-.634.105-.798.312-.156.2-.28.574-.375 1.125L1.11-6.297c.156-.894.456-1.547.906-1.953.457-.414 1.093-.625 1.906-.625.906 0 1.61.203 2.11.61.507.406.765 1.062.765 1.968v3.922c0 .438.082.72.25.844.176.116.44.124.797.03V.016c-.637.125-1.137.086-1.5-.11-.356-.207-.59-.586-.703-1.14h-.28c-.22.386-.532.714-.938.984-.4.258-.84.39-1.328.39zm0 0"/></symbol><symbol id="aT" overflow="visible"><path d="M1.172 0v-8.734h1.97v1.203h.327c.175-.415.436-.743.78-.986.344-.238.723-.36 1.14-.36.614 0 1.087.23 1.423.688.343.46.515 1.094.515 1.907V0H5.375v-5.938c0-.437-.074-.77-.22-1-.147-.226-.354-.343-.624-.343-.28 0-.542.093-.78.28-.23.18-.434.445-.61.797V0zm0 0"/></symbol><symbol id="aU" overflow="visible"><path d="M3.047.14c-.563 0-1.016-.234-1.36-.703-.343-.468-.515-1.097-.515-1.89v-6.28h1.97v5.858c0 .47.065.824.202 1.063.133.242.336.36.61.36.27 0 .523-.095.765-.282.237-.196.456-.493.655-.89v-6.11h1.953V0H5.375v-1.203h-.328c-.125.418-.37.746-.734.984-.368.24-.79.36-1.266.36zm0 0"/></symbol><symbol id="aV" overflow="visible"><path d="M7.39-1.97c-.21.743-.542 1.28-1 1.61-.45.337-1.124.5-2.03.5-.98 0-1.758-.257-2.33-.78-.573-.532-.858-1.282-.858-2.25v-2.985c0-.957.28-1.695.844-2.22.562-.518 1.312-.78 2.25-.78.945 0 1.69.273 2.234.813.55.53.828 1.308.828 2.328V-4H3.14v1.172c0 .555.098.953.297 1.203.196.25.524.375.985.375.383 0 .676-.086.875-.266.195-.187.348-.488.453-.906zm-4.25-4v.782h2.235v-.703c0-.583-.09-.993-.266-1.235-.17-.25-.45-.375-.844-.375-.4 0-.684.12-.86.36-.18.23-.265.62-.265 1.17zm0 0"/></symbol><symbol id="bc" overflow="visible"><path d="M3.266 0v-10.094h-2.5v-1.547H7.75v1.546h-2.5V0zm0 0"/></symbol><symbol id="bd" overflow="visible"><path d="M1.53 0v-11.64h6.126v1.546H3.5v4.078h3.375v1.532H3.5V0zm0 0"/></symbol><symbol id="be" overflow="visible"><path d="M4.266-5.72c-.43 0-.774-.1-1.032-.31-.26-.208-.39-.532-.39-.97v-.688c0-.437.13-.757.39-.968.258-.22.602-.328 1.032-.328.425 0 .77.11 1.03.328.26.21.39.53.39.97l.002.686c0 .438-.137.762-.407.97-.26.21-.6.31-1.014.31zm0 5.845c-.43 0-.774-.105-1.032-.313-.26-.218-.39-.54-.39-.968v-.688c0-.445.13-.773.39-.984.258-.22.602-.328 1.032-.328.425 0 .77.11 1.03.328.26.21.39.54.39.984l.002.688c0 .43-.137.75-.407.968-.26.208-.6.313-1.014.313zm0 0"/></symbol><symbol id="bf" overflow="visible"><path d="M3.063-5.36V0h-1.97v-11.64h1.97v4.734h.406l2.327-4.735H8L5.016-6.28 7.97 0H5.796l-2.28-5.36zm0 0"/></symbol><symbol id="bg" overflow="visible"><path d="M1.094 0v-11.64h3.28c.94 0 1.646.234 2.126.703.477.46.72 1.136.72 2.03v.61c0 .53-.122.965-.36 1.297-.23.324-.587.53-1.063.625v.422c.53.074.94.312 1.234.72.29.405.44.92.44 1.545V-3c0 .98-.267 1.727-.798 2.234C6.142-.254 5.367 0 4.36 0zm1.968-6.78h1.063c.406 0 .695-.115.875-.345.176-.227.266-.594.266-1.094v-.483c0-.5-.09-.863-.266-1.094-.18-.226-.47-.344-.875-.344H3.062zm0 5.264H4.22c.444 0 .768-.125.968-.375.207-.258.312-.68.312-1.266v-.53c0-.584-.105-1.005-.313-1.267-.2-.258-.523-.39-.968-.39H3.062zm0 0"/></symbol><symbol id="bh" overflow="visible"><path d="M2.39 2.72l.844-6.017H6.14L3.69 2.72zm0 0"/></symbol><symbol id="bi" overflow="visible"><path d="M4.266.14c-1.043 0-1.84-.335-2.39-1.015-.556-.688-.83-1.648-.83-2.89v-4.047c0-1.258.274-2.235.83-2.922.562-.696 1.358-1.047 2.39-1.047 1.03 0 1.82.35 2.375 1.046.55.687.83 1.664.83 2.921v4.047c0 1.243-.28 2.204-.83 2.89C6.087-.195 5.298.142 4.267.142zm0-1.53c.457 0 .773-.176.953-.532.186-.35.28-1 .28-1.937v-3.874c0-.957-.094-1.614-.28-1.97-.18-.35-.497-.53-.954-.53-.47 0-.793.18-.97.53-.18.356-.265 1.013-.265 1.97v3.875c0 .938.087 1.587.267 1.938.176.356.5.53.97.53zm0 0"/></symbol><symbol id="bj" overflow="visible"><path d="M4.266.14C3.172.14 2.36-.11 1.828-.61c-.523-.507-.78-1.3-.78-2.374v-.47c0-.687.155-1.25.468-1.687.32-.446.765-.708 1.328-.782v-.422c-.438-.05-.813-.258-1.125-.625-.306-.362-.454-.846-.454-1.452v-.61c0-.925.242-1.613.734-2.062.5-.457 1.254-.687 2.266-.687 1.02 0 1.773.23 2.265.686.49.45.736 1.137.736 2.063v.608c0 .606-.157 1.09-.47 1.453-.304.368-.683.575-1.14.626v.422c.57.074 1.016.34 1.328.797.32.45.485 1.008.485 1.672v.47c0 1.073-.263 1.866-.782 2.374-.524.5-1.33.75-2.422.75zm0-7c.382 0 .648-.1.796-.312.145-.207.22-.566.22-1.078v-.672c0-.5-.075-.848-.22-1.047-.148-.194-.414-.296-.796-.296-.387 0-.653.102-.797.297-.15.2-.22.548-.22 1.048v.672c0 .512.07.87.22 1.078.143.21.41.313.796.313zm0 5.485c.457 0 .773-.125.953-.375.186-.258.28-.707.28-1.344v-.53c0-.634-.094-1.083-.28-1.345-.18-.268-.497-.405-.954-.405-.47 0-.793.137-.97.406-.18.263-.265.712-.265 1.345v.53c0 .638.087 1.087.267 1.345.176.25.5.375.97.375zm0 0"/></symbol><symbol id="bn" overflow="visible"><path d="M1.094 0v-11.64H7.47v1.546H3.062v3.03l3.86.002v1.546h-3.86v3.97h4.406V0zm0 0"/></symbol><symbol id="bo" overflow="visible"><path d="M5.11 0l-.83-6-.827 6h-1.75L.563-11.64h1.703l.484 8.89.797-5.984h1.406l.844 5.89.47-8.797h1.67L6.813 0zm0 0"/></symbol><symbol id="bp" overflow="visible"><path d="M2.672-4.516h2.062V-8.86zM8.016-3H6.703v3h-1.97v-3H.954v-1.516L4.25-11.64h2.453v7.124h1.313zm0 0"/></symbol><clipPath><path d="M127 20h320v160H127zm0 0"/></clipPath><clipPath id="y"><path d="M287 180h160c0-88.367-71.633-160-160-160-81.648 0-150.2 61.477-159.055 142.645L287 180"/></clipPath><clipPath><path d="M160 160h160C320 71.633 248.367 0 160 0 78.352 0 9.8 61.477.945 142.645L160 160"/></clipPath><clipPath id="b"><path d="M273.137 273.137c62.484-62.485 62.484-163.79 0-226.274-62.485-62.484-163.79-62.484-226.274 0-62.484 62.485-62.484 163.79 0 226.274 62.485 62.484 163.79 62.484 226.274 0"/></clipPath><clipPath><path d="M60 60h200v100H60zm0 0"/></clipPath><clipPath><path d="M160 160h160C320 71.633 248.367 0 160 0 78.352 0 9.8 61.477.945 142.645L160 160"/></clipPath><clipPath id="c"><path d="M230.71 230.71c39.052-39.054 39.052-102.366 0-141.42-39.054-39.052-102.366-39.052-141.42 0-39.052 39.054-39.052 102.366 0 141.42 39.054 39.052 102.366 39.052 141.42 0"/></clipPath><clipPath id="a"><path d="M0 0h320v160H0z"/></clipPath><g clip-path="url(#a)" id="z"><path fill="rgb(49.803162%,78.039551%,8.235168%)" d="M0 0h320v160H0z" clip-path="url(#b)" clip-rule="evenodd"/><path d="M55 55h210v210H55zm0 0" fill="#fff" clip-path="url(#c)" clip-rule="evenodd"/></g><clipPath><path d="M127 162h160v104H127zm0 0"/></clipPath><clipPath id="A"><path d="M287 180l-159.055-17.355c-3.95 36.187 4.56 72.64 24.12 103.34L287 180"/></clipPath><clipPath><path d="M160 18L.945.645c-3.95 36.187 4.56 72.64 24.12 103.34L160 18"/></clipPath><clipPath id="e"><path d="M273.137 131.137c62.484-62.485 62.484-163.79 0-226.274-62.485-62.484-163.79-62.484-226.274 0-62.484 62.485-62.484 163.79 0 226.274 62.485 62.484 163.79 62.484 226.274 0"/></clipPath><clipPath><path d="M60 0h100v104H60zm0 0"/></clipPath><clipPath><path d="M160 18L.945.645c-3.95 36.187 4.56 72.64 24.12 103.34L160 18"/></clipPath><clipPath id="f"><path d="M230.71 88.71c39.052-39.054 39.052-102.366 0-141.42-39.054-39.052-102.366-39.052-141.42 0-39.052 39.054-39.052 102.366 0 141.42 39.054 39.052 102.366 39.052 141.42 0"/></clipPath><clipPath id="d"><path d="M0 0h160v104H0z"/></clipPath><g clip-path="url(#d)" id="B"><path fill="rgb(28.234863%,47.842407%,49.411011%)" d="M0 0h160v104H0z" clip-path="url(#e)" clip-rule="evenodd"/><path d="M55-87h210v210H55zm0 0" fill="#fff" clip-path="url(#f)" clip-rule="evenodd"/></g><clipPath><path d="M152 180h237v161H152zm0 0"/></clipPath><clipPath id="C"><path d="M287 180l-134.934 85.984c47.49 74.52 146.395 96.438 220.918 48.95 5.547-3.536 10.868-7.407 15.938-11.598L287 180"/></clipPath><clipPath><path d="M0 0h237v160H0zm0 0"/></clipPath><clipPath><path d="M135 0L.066 85.984c47.49 74.52 146.395 96.438 220.918 48.95 5.547-3.536 10.868-7.407 15.938-11.598L135 0"/></clipPath><clipPath id="h"><path d="M248.137 113.137c62.484-62.485 62.484-163.79 0-226.274-62.485-62.484-163.79-62.484-226.274 0-62.484 62.485-62.484 163.79 0 226.274 62.485 62.484 163.79 62.484 226.274 0"/></clipPath><clipPath><path d="M35 0h200v100H35zm0 0"/></clipPath><clipPath><path d="M135 0L.066 85.984c47.49 74.52 146.395 96.438 220.918 48.95 5.547-3.536 10.868-7.407 15.938-11.598L135 0"/></clipPath><clipPath id="i"><path d="M205.71 70.71c39.052-39.054 39.052-102.366 0-141.42-39.054-39.052-102.366-39.052-141.42 0-39.052 39.054-39.052 102.366 0 141.42 39.054 39.052 102.366 39.052 141.42 0"/></clipPath><clipPath id="g"><path d="M0 0h237v161H0z"/></clipPath><g clip-path="url(#g)" id="D"><path fill="rgb(27.058411%,55.2948%,80.000305%)" d="M0 0h237v161H0z" clip-path="url(#h)" clip-rule="evenodd"/><path d="M30-105h210v210H30zm0 0" fill="#fff" clip-path="url(#i)" clip-rule="evenodd"/></g><clipPath><path d="M287 180h160v124H287zm0 0"/></clipPath><clipPath id="E"><path d="M287 180l101.922 123.336C425.702 272.94 447 227.716 447 180H287"/></clipPath><clipPath><path d="M0 0l101.922 123.336C138.702 92.94 160 47.716 160 0H0"/></clipPath><clipPath id="k"><path d="M113.137 113.137c62.484-62.485 62.484-163.79 0-226.274-62.485-62.484-163.79-62.484-226.274 0-62.484 62.485-62.484 163.79 0 226.274 62.485 62.484 163.79 62.484 226.274 0"/></clipPath><clipPath><path d="M0 0h100v100H0zm0 0"/></clipPath><clipPath><path d="M0 0l101.922 123.336C138.702 92.94 160 47.716 160 0H0"/></clipPath><clipPath id="l"><path d="M70.71 70.71c39.052-39.054 39.052-102.366 0-141.42-39.054-39.052-102.366-39.052-141.42 0-39.052 39.054-39.052 102.366 0 141.42 39.054 39.052 102.366 39.052 141.42 0"/></clipPath><clipPath id="j"><path d="M0 0h160v124H0z"/></clipPath><g clip-path="url(#j)" id="F"><path fill="rgb(84.313965%,84.313965%,84.313965%)" d="M0 0h160v124H0z" clip-path="url(#k)" clip-rule="evenodd"/><path d="M-105-105h210v210h-210zm0 0" fill="#fff" clip-path="url(#l)" clip-rule="evenodd"/></g><clipPath><path d="M187 80h200v200H187zm0 0"/></clipPath><clipPath id="G"><path d="M357.71 250.71c39.052-39.054 39.052-102.366 0-141.42-39.054-39.052-102.366-39.052-141.42 0-39.052 39.054-39.052 102.366 0 141.42 39.054 39.052 102.366 39.052 141.42 0"/></clipPath><clipPath><path d="M628 20h320v245H628zm0 0"/></clipPath><clipPath id="aA"><path d="M788 180h160c0-88.367-71.633-160-160-160S628 91.633 628 180c0 29.875 8.363 59.152 24.145 84.516L788 180"/></clipPath><clipPath><path d="M160 160h160C320 71.633 248.367 0 160 0S0 71.633 0 160c0 29.875 8.363 59.152 24.145 84.516L160 160"/></clipPath><clipPath id="n"><path d="M273.137 273.137c62.484-62.485 62.484-163.79 0-226.274-62.485-62.484-163.79-62.484-226.274 0-62.484 62.485-62.484 163.79 0 226.274 62.485 62.484 163.79 62.484 226.274 0"/></clipPath><clipPath><path d="M60 60h200v185H60zm0 0"/></clipPath><clipPath><path d="M160 160h160C320 71.633 248.367 0 160 0S0 71.633 0 160c0 29.875 8.363 59.152 24.145 84.516L160 160"/></clipPath><clipPath id="o"><path d="M230.71 230.71c39.052-39.054 39.052-102.366 0-141.42-39.054-39.052-102.366-39.052-141.42 0-39.052 39.054-39.052 102.366 0 141.42 39.054 39.052 102.366 39.052 141.42 0"/></clipPath><clipPath id="m"><path d="M0 0h320v245H0z"/></clipPath><g clip-path="url(#m)" id="aB"><path fill="rgb(49.803162%,78.039551%,8.235168%)" d="M0 0h320v245H0z" clip-path="url(#n)" clip-rule="evenodd"/><path d="M55 55h210v210H55zm0 0" fill="#fff" clip-path="url(#o)" clip-rule="evenodd"/></g><clipPath><path d="M652 180h197v161H652zm0 0"/></clipPath><clipPath id="aC"><path d="M788 180l-135.855 84.516c41.14 66.136 123.93 93.035 196.09 63.714L788 180"/></clipPath><clipPath><path d="M0 0h197v160H0zm0 0"/></clipPath><clipPath><path d="M136 0L.145 84.516c41.14 66.136 123.93 93.035 196.09 63.714L136 0"/></clipPath><clipPath id="q"><path d="M249.137 113.137c62.484-62.485 62.484-163.79 0-226.274-62.485-62.484-163.79-62.484-226.274 0-62.484 62.485-62.484 163.79 0 226.274 62.485 62.484 163.79 62.484 226.274 0"/></clipPath><clipPath><path d="M36 0h161v100H36zm0 0"/></clipPath><clipPath><path d="M136 0L.145 84.516c41.14 66.136 123.93 93.035 196.09 63.714L136 0"/></clipPath><clipPath id="r"><path d="M206.71 70.71c39.052-39.054 39.052-102.366 0-141.42-39.054-39.052-102.366-39.052-141.42 0-39.052 39.054-39.052 102.366 0 141.42 39.054 39.052 102.366 39.052 141.42 0"/></clipPath><clipPath id="p"><path d="M0 0h197v161H0z"/></clipPath><g clip-path="url(#p)" id="aD"><path fill="rgb(28.234863%,47.842407%,49.411011%)" d="M0 0h197v161H0z" clip-path="url(#q)" clip-rule="evenodd"/><path d="M31-105h210v210H31zm0 0" fill="#fff" clip-path="url(#r)" clip-rule="evenodd"/></g><clipPath><path d="M788 180h71v149h-71zm0 0"/></clipPath><clipPath id="aE"><path d="M788 180l60.234 148.23c3.547-1.44 7.043-3.01 10.477-4.703L788 180"/></clipPath><clipPath><path d="M0 0l60.234 148.23c3.547-1.44 7.043-3.01 10.477-4.703L0 0"/></clipPath><clipPath id="t"><path d="M113.137 113.137c62.484-62.485 62.484-163.79 0-226.274-62.485-62.484-163.79-62.484-226.274 0-62.484 62.485-62.484 163.79 0 226.274 62.485 62.484 163.79 62.484 226.274 0"/></clipPath><clipPath><path d="M0 0h71v100H0zm0 0"/></clipPath><clipPath><path d="M0 0l60.234 148.23c3.547-1.44 7.043-3.01 10.477-4.703L0 0"/></clipPath><clipPath id="u"><path d="M70.71 70.71c39.052-39.054 39.052-102.366 0-141.42-39.054-39.052-102.366-39.052-141.42 0-39.052 39.054-39.052 102.366 0 141.42 39.054 39.052 102.366 39.052 141.42 0"/></clipPath><clipPath id="s"><path d="M0 0h71v149H0z"/></clipPath><g clip-path="url(#s)" id="aF"><path fill="rgb(27.058411%,55.2948%,80.000305%)" d="M0 0h71v149H0z" clip-path="url(#t)" clip-rule="evenodd"/><path d="M-105-105h210v210h-210zm0 0" fill="#fff" clip-path="url(#u)" clip-rule="evenodd"/></g><clipPath><path d="M788 180h160v144H788zm0 0"/></clipPath><clipPath id="aG"><path d="M788 180l70.71 143.527C913.38 296.594 948 240.94 948 180H788"/></clipPath><clipPath><path d="M0 0l70.71 143.527C125.38 116.594 160 60.94 160 0H0"/></clipPath><clipPath id="w"><path d="M113.137 113.137c62.484-62.485 62.484-163.79 0-226.274-62.485-62.484-163.79-62.484-226.274 0-62.484 62.485-62.484 163.79 0 226.274 62.485 62.484 163.79 62.484 226.274 0"/></clipPath><clipPath><path d="M0 0h100v100H0zm0 0"/></clipPath><clipPath><path d="M0 0l70.71 143.527C125.38 116.594 160 60.94 160 0H0"/></clipPath><clipPath id="x"><path d="M70.71 70.71c39.052-39.054 39.052-102.366 0-141.42-39.054-39.052-102.366-39.052-141.42 0-39.052 39.054-39.052 102.366 0 141.42 39.054 39.052 102.366 39.052 141.42 0"/></clipPath><clipPath id="v"><path d="M0 0h160v144H0z"/></clipPath><g clip-path="url(#v)" id="aH"><path fill="rgb(84.313965%,84.313965%,84.313965%)" d="M0 0h160v144H0z" clip-path="url(#w)" clip-rule="evenodd"/><path d="M-105-105h210v210h-210zm0 0" fill="#fff" clip-path="url(#x)" clip-rule="evenodd"/></g><clipPath><path d="M688 80h200v200H688zm0 0"/></clipPath><clipPath id="aI"><path d="M858.71 250.71c39.052-39.054 39.052-102.366 0-141.42-39.054-39.052-102.366-39.052-141.42 0-39.052 39.054-39.052 102.366 0 141.42 39.054 39.052 102.366 39.052 141.42 0"/></clipPath><clipPath id="aW"><path d="M1191 148h363v64h-363zm0 0"/></clipPath><clipPath id="aX"><path d="M1554 148h42v64h-42zm0 0"/></clipPath></defs><g><g clip-path="url(#y)" clip-rule="evenodd"><use transform="translate(127 20)" xlink:href="#z"/></g><path d="M287 180h160c0-88.367-71.633-160-160-160-81.648 0-150.2 61.477-159.055 142.645zm0 0" fill="none" stroke-width="6" stroke="#fff" stroke-miterlimit="10"/><g clip-path="url(#A)" clip-rule="evenodd"><use transform="translate(127 162)" xlink:href="#B"/></g><path d="M287 180l-159.055-17.355c-3.95 36.187 4.56 72.64 24.12 103.34zm0 0" fill="none" stroke-width="6" stroke="#fff" stroke-miterlimit="10"/><g clip-path="url(#C)" clip-rule="evenodd"><use transform="translate(152 180)" xlink:href="#D"/></g><path d="M287 180l-134.934 85.984c47.49 74.52 146.395 96.438 220.918 48.95 5.547-3.536 10.868-7.407 15.938-11.598zm0 0" fill="none" stroke-width="6" stroke="#fff" stroke-miterlimit="10"/><g clip-path="url(#E)" clip-rule="evenodd"><use transform="translate(287 180)" xlink:href="#F"/></g><path d="M287 180l101.922 123.336C425.702 272.94 447 227.716 447 180zm0 0" fill="none" stroke-width="6" stroke="#fff" stroke-miterlimit="10"/><path d="M182 75h210v210H182zm0 0" fill="#fff" clip-path="url(#G)" clip-rule="evenodd"/><g fill-opacity=".5"><use x="234.191" xlink:href="#H" y="183"/><use x="261.845" xlink:href="#I" y="183"/><use x="289.498" xlink:href="#J" y="183"/><use x="317.152" xlink:href="#K" y="183"/></g><g fill-opacity=".5"><use x="254.4" xlink:href="#L" y="216"/><use x="266.1" xlink:href="#M" y="216"/><use x="277.799" xlink:href="#N" y="216"/><use x="289.499" xlink:href="#O" y="216"/><use x="301.198" xlink:href="#P" y="216"/><use x="312.898" xlink:href="#Q" y="216"/></g><g fill-opacity=".5"><use x="455" xlink:href="#R" y="111"/><use x="466.7" xlink:href="#S" y="111"/><use x="478.399" xlink:href="#T" y="111"/><use x="490.099" xlink:href="#U" y="111"/><use x="501.798" xlink:href="#V" y="111"/></g><g fill-opacity=".5"><use x="455" xlink:href="#W" y="135"/><use x="463.509" xlink:href="#W" y="135"/><use x="472.018" xlink:href="#X" y="135"/><use x="480.526" xlink:href="#Y" y="135"/><use x="489.035" xlink:href="#Z" y="135"/><use x="497.544" xlink:href="#aa" y="135"/><use x="506.053" xlink:href="#ab" y="135"/><use x="514.562" xlink:href="#ac" y="135"/><use x="523.07" xlink:href="#ad" y="135"/><use x="531.579" xlink:href="#ae" y="135"/><use x="540.088" xlink:href="#af" y="135"/></g><g fill-opacity=".5"><use x="455" xlink:href="#ag" y="242"/><use x="466.7" xlink:href="#U" y="242"/><use x="478.399" xlink:href="#ah" y="242"/><use x="490.099" xlink:href="#ai" y="242"/><use x="501.798" xlink:href="#aj" y="242"/><use x="513.498" xlink:href="#ak" y="242"/><use x="525.198" xlink:href="#al" y="242"/></g><g fill-opacity=".5"><use x="455" xlink:href="#am" y="267"/><use x="466.7" xlink:href="#an" y="267"/><use x="478.399" xlink:href="#al" y="267"/><use x="490.099" xlink:href="#ao" y="267"/><use x="501.798" xlink:href="#ap" y="267"/><use x="513.498" xlink:href="#aq" y="267"/><use x="525.198" xlink:href="#ar" y="267"/><use x="536.919" xlink:href="#as" y="267"/><use x="548.619" xlink:href="#al" y="267"/></g><g fill-opacity=".5"><use x="455" xlink:href="#at" y="293"/><use x="463.509" xlink:href="#at" y="293"/><use x="472.018" xlink:href="#au" y="293"/><use x="480.526" xlink:href="#Z" y="293"/><use x="489.035" xlink:href="#aa" y="293"/><use x="497.544" xlink:href="#ab" y="293"/><use x="506.053" xlink:href="#ac" y="293"/><use x="514.562" xlink:href="#ad" y="293"/><use x="523.07" xlink:href="#ae" y="293"/><use x="531.579" xlink:href="#af" y="293"/></g><g fill-opacity=".5"><use x="22.4" xlink:href="#av" y="216"/><use x="34.1" xlink:href="#ao" y="216"/><use x="45.799" xlink:href="#aj" y="216"/><use x="57.499" xlink:href="#U" y="216"/><use x="69.198" xlink:href="#as" y="216"/><use x="80.898" xlink:href="#as" y="216"/><use x="92.598" xlink:href="#U" y="216"/><use x="104.297" xlink:href="#aw" y="216"/></g><g fill-opacity=".5"><use x="30.909" xlink:href="#au" y="240"/><use x="39.418" xlink:href="#Y" y="240"/><use x="47.927" xlink:href="#Y" y="240"/><use x="56.435" xlink:href="#Z" y="240"/><use x="64.944" xlink:href="#aa" y="240"/><use x="73.453" xlink:href="#ab" y="240"/><use x="81.962" xlink:href="#ac" y="240"/><use x="90.471" xlink:href="#ad" y="240"/><use x="98.979" xlink:href="#ae" y="240"/><use x="107.488" xlink:href="#af" y="240"/></g><g fill-opacity=".5"><use x="168" xlink:href="#ax" y="364"/><use x="179.7" xlink:href="#aj" y="364"/><use x="191.399" xlink:href="#ak" y="364"/><use x="203.099" xlink:href="#ak" y="364"/><use x="214.798" xlink:href="#ay" y="364"/></g><g fill-opacity=".5"><use x="168" xlink:href="#X" y="388"/><use x="176.509" xlink:href="#at" y="388"/><use x="185.018" xlink:href="#az" y="388"/><use x="193.526" xlink:href="#Z" y="388"/><use x="202.035" xlink:href="#aa" y="388"/><use x="210.544" xlink:href="#ab" y="388"/><use x="219.053" xlink:href="#ac" y="388"/><use x="227.562" xlink:href="#ad" y="388"/><use x="236.07" xlink:href="#ae" y="388"/><use x="244.579" xlink:href="#af" y="388"/></g><g clip-path="url(#aA)" clip-rule="evenodd"><use transform="translate(628 20)" xlink:href="#aB"/></g><path d="M788 180h160c0-88.367-71.633-160-160-160S628 91.633 628 180c0 29.875 8.363 59.152 24.145 84.516zm0 0" fill="none" stroke-width="6" stroke="#fff" stroke-miterlimit="10"/><g clip-path="url(#aC)" clip-rule="evenodd"><use transform="translate(652 180)" xlink:href="#aD"/></g><path d="M788 180l-135.855 84.516c41.14 66.136 123.93 93.035 196.09 63.714zm0 0" fill="none" stroke-width="6" stroke="#fff" stroke-miterlimit="10"/><g clip-path="url(#aE)" clip-rule="evenodd"><use transform="translate(788 180)" xlink:href="#aF"/></g><path d="M788 180l60.234 148.23c3.547-1.44 7.043-3.01 10.477-4.703zm0 0" fill="none" stroke-width="6" stroke="#fff" stroke-miterlimit="10"/><g clip-path="url(#aG)" clip-rule="evenodd"><use transform="translate(788 180)" xlink:href="#aH"/></g><path d="M788 180l70.71 143.527C913.38 296.594 948 240.94 948 180zm0 0" fill="none" stroke-width="6" stroke="#fff" stroke-miterlimit="10"/><path d="M683 75h210v210H683zm0 0" fill="#fff" clip-path="url(#aI)" clip-rule="evenodd"/><g fill-opacity=".5"><use x="737.191" xlink:href="#K" y="183"/><use x="764.845" xlink:href="#aJ" y="183"/><use x="792.498" xlink:href="#I" y="183"/><use x="820.152" xlink:href="#aK" y="183"/></g><g fill-opacity=".5"><use x="739.85" xlink:href="#M" y="216"/><use x="751.55" xlink:href="#aL" y="216"/><use x="763.249" xlink:href="#aM" y="216"/><use x="774.949" xlink:href="#L" y="216"/><use x="786.648" xlink:href="#aN" y="216"/><use x="798.348" xlink:href="#aL" y="216"/><use x="810.048" xlink:href="#L" y="216"/><use x="821.747" xlink:href="#aO" y="216"/><use x="833.447" xlink:href="#Q" y="216"/></g><g fill-opacity=".5"><use x="956" xlink:href="#R" y="111"/><use x="967.7" xlink:href="#S" y="111"/><use x="979.399" xlink:href="#T" y="111"/><use x="991.099" xlink:href="#U" y="111"/><use x="1002.798" xlink:href="#V" y="111"/></g><g fill-opacity=".5"><use x="956" xlink:href="#W" y="135"/><use x="964.509" xlink:href="#aP" y="135"/><use x="973.018" xlink:href="#au" y="135"/><use x="981.526" xlink:href="#aQ" y="135"/><use x="990.035" xlink:href="#Z" y="135"/><use x="998.544" xlink:href="#aa" y="135"/><use x="1007.053" xlink:href="#ab" y="135"/><use x="1015.562" xlink:href="#ac" y="135"/><use x="1024.07" xlink:href="#ad" y="135"/><use x="1032.579" xlink:href="#ae" y="135"/><use x="1041.088" xlink:href="#af" y="135"/></g><g fill-opacity=".5"><use x="956" xlink:href="#aR" y="242"/><use x="967.7" xlink:href="#aj" y="242"/><use x="979.399" xlink:href="#S" y="242"/><use x="991.099" xlink:href="#V" y="242"/><use x="1002.798" xlink:href="#al" y="242"/><use x="1014.498" xlink:href="#as" y="242"/><use x="1026.198" xlink:href="#U" y="242"/><use x="1037.897" xlink:href="#T" y="242"/><use x="1049.597" xlink:href="#ak" y="242"/><use x="1061.296" xlink:href="#aj" y="242"/><use x="1072.996" xlink:href="#S" y="242"/><use x="1084.696" xlink:href="#T" y="242"/><use x="1096.395" xlink:href="#U" y="242"/><use x="1108.095" xlink:href="#ar" y="242"/><use x="1119.816" xlink:href="#V" y="242"/><use x="1131.516" xlink:href="#al" y="242"/></g><g fill-opacity=".5"><use x="956" xlink:href="#at" y="266"/><use x="964.509" xlink:href="#W" y="266"/><use x="973.018" xlink:href="#aQ" y="266"/><use x="981.526" xlink:href="#Z" y="266"/><use x="990.035" xlink:href="#ab" y="266"/><use x="998.544" xlink:href="#aS" y="266"/><use x="1007.053" xlink:href="#aT" y="266"/><use x="1015.562" xlink:href="#aa" y="266"/><use x="1024.07" xlink:href="#aU" y="266"/><use x="1032.579" xlink:href="#aS" y="266"/><use x="1041.088" xlink:href="#aa" y="266"/><use x="1049.597" xlink:href="#aV" y="266"/><use x="1058.106" xlink:href="#af" y="266"/></g><g fill-opacity=".5"><use x="643.4" xlink:href="#av" y="364"/><use x="655.1" xlink:href="#ao" y="364"/><use x="666.799" xlink:href="#aj" y="364"/><use x="678.499" xlink:href="#U" y="364"/><use x="690.198" xlink:href="#as" y="364"/><use x="701.898" xlink:href="#as" y="364"/><use x="713.598" xlink:href="#U" y="364"/><use x="725.297" xlink:href="#aw" y="364"/></g><g fill-opacity=".5"><use x="626.382" xlink:href="#at" y="388"/><use x="634.891" xlink:href="#az" y="388"/><use x="643.399" xlink:href="#aQ" y="388"/><use x="651.908" xlink:href="#Z" y="388"/><use x="660.417" xlink:href="#ab" y="388"/><use x="668.926" xlink:href="#aS" y="388"/><use x="677.435" xlink:href="#aT" y="388"/><use x="685.943" xlink:href="#aa" y="388"/><use x="694.452" xlink:href="#aU" y="388"/><use x="702.961" xlink:href="#aS" y="388"/><use x="711.47" xlink:href="#aa" y="388"/><use x="719.979" xlink:href="#aV" y="388"/><use x="728.487" xlink:href="#af" y="388"/></g><g fill-opacity=".5"><use x="855" xlink:href="#ax" y="364"/><use x="866.7" xlink:href="#aj" y="364"/><use x="878.399" xlink:href="#ak" y="364"/><use x="890.099" xlink:href="#ak" y="364"/><use x="901.798" xlink:href="#ay" y="364"/></g><g fill-opacity=".5"><use x="855" xlink:href="#au" y="388"/><use x="863.509" xlink:href="#Z" y="388"/><use x="872.018" xlink:href="#ab" y="388"/><use x="880.526" xlink:href="#aS" y="388"/><use x="889.035" xlink:href="#aT" y="388"/><use x="897.544" xlink:href="#aa" y="388"/><use x="906.053" xlink:href="#aU" y="388"/><use x="914.562" xlink:href="#aS" y="388"/><use x="923.07" xlink:href="#aa" y="388"/><use x="931.579" xlink:href="#aV" y="388"/><use x="940.088" xlink:href="#af" y="388"/></g><path d="M1186 143h373v74h-373zm0 0" fill="rgb(28.234863%,47.842407%,49.411011%)" clip-path="url(#aW)"/><path d="M1549 143h52v74h-52zm0 0" fill="rgb(49.803162%,78.431702%,8.235168%)" clip-path="url(#aX)"/><g fill-opacity=".5"><use x="1189" xlink:href="#aY" y="78"/><use x="1200.7" xlink:href="#U" y="78"/><use x="1212.399" xlink:href="#aZ" y="78"/><use x="1224.099" xlink:href="#ak" y="78"/><use x="1235.798" xlink:href="#ba" y="78"/><use x="1247.498" xlink:href="#an" y="78"/><use x="1259.198" xlink:href="#ar" y="78"/><use x="1270.919" xlink:href="#aj" y="78"/><use x="1282.619" xlink:href="#U" y="78"/><use x="1294.318" xlink:href="#ah" y="78"/><use x="1306.018" xlink:href="#U" y="78"/><use x="1317.718" xlink:href="#V" y="78"/><use x="1329.417" xlink:href="#S" y="78"/><use x="1341.117" xlink:href="#as" y="78"/><use x="1352.816" xlink:href="#an" y="78"/><use x="1364.516" xlink:href="#al" y="78"/><use x="1376.216" xlink:href="#ar" y="78"/><use x="1387.937" xlink:href="#ai" y="78"/><use x="1399.637" xlink:href="#aj" y="78"/><use x="1411.336" xlink:href="#aw" y="78"/><use x="1423.036" xlink:href="#ak" y="78"/><use x="1434.736" xlink:href="#an" y="78"/><use x="1446.435" xlink:href="#bb" y="78"/><use x="1458.135" xlink:href="#ar" y="78"/><use x="1469.856" xlink:href="#V" y="78"/><use x="1481.556" xlink:href="#T" y="78"/><use x="1493.256" xlink:href="#al" y="78"/></g><g fill-opacity=".5"><use x="1189" xlink:href="#bc" y="102"/><use x="1197.509" xlink:href="#bc" y="102"/><use x="1206.018" xlink:href="#bd" y="102"/><use x="1214.526" xlink:href="#be" y="102"/><use x="1223.035" xlink:href="#Z" y="102"/><use x="1231.544" xlink:href="#at" y="102"/><use x="1240.053" xlink:href="#X" y="102"/><use x="1248.562" xlink:href="#at" y="102"/><use x="1257.07" xlink:href="#Z" y="102"/><use x="1265.579" xlink:href="#bf" y="102"/><use x="1274.088" xlink:href="#bg" y="102"/><use x="1282.597" xlink:href="#bh" y="102"/><use x="1291.106" xlink:href="#Z" y="102"/><use x="1299.614" xlink:href="#bi" y="102"/><use x="1308.123" xlink:href="#bc" y="102"/><use x="1316.632" xlink:href="#bd" y="102"/><use x="1325.141" xlink:href="#be" y="102"/><use x="1333.65" xlink:href="#Z" y="102"/><use x="1342.158" xlink:href="#au" y="102"/><use x="1350.667" xlink:href="#X" y="102"/><use x="1359.176" xlink:href="#bj" y="102"/><use x="1367.685" xlink:href="#Z" y="102"/><use x="1376.194" xlink:href="#bf" y="102"/><use x="1384.702" xlink:href="#bg" y="102"/></g><g fill-opacity=".5"><use x="1244.96" xlink:href="#aY" y="276"/><use x="1256.66" xlink:href="#ai" y="276"/><use x="1268.359" xlink:href="#aq" y="276"/><use x="1280.059" xlink:href="#al" y="276"/><use x="1291.758" xlink:href="#ak" y="276"/><use x="1303.458" xlink:href="#T" y="276"/><use x="1315.158" xlink:href="#T" y="276"/><use x="1326.857" xlink:href="#ak" y="276"/><use x="1338.557" xlink:href="#bk" y="276"/><use x="1350.256" xlink:href="#an" y="276"/><use x="1361.956" xlink:href="#am" y="276"/><use x="1373.656" xlink:href="#an" y="276"/><use x="1385.355" xlink:href="#ar" y="276"/><use x="1397.077" xlink:href="#bl" y="276"/><use x="1408.776" xlink:href="#T" y="276"/><use x="1420.476" xlink:href="#U" y="276"/><use x="1432.176" xlink:href="#ap" y="276"/><use x="1443.875" xlink:href="#U" y="276"/><use x="1455.575" xlink:href="#aZ" y="276"/><use x="1467.274" xlink:href="#ak" y="276"/><use x="1478.974" xlink:href="#bk" y="276"/><use x="1490.674" xlink:href="#an" y="276"/><use x="1502.373" xlink:href="#bm" y="276"/><use x="1514.073" xlink:href="#ak" y="276"/><use x="1525.772" xlink:href="#aq" y="276"/><use x="1537.472" xlink:href="#bb" y="276"/><use x="1549.172" xlink:href="#ar" y="276"/><use x="1560.893" xlink:href="#V" y="276"/><use x="1572.593" xlink:href="#T" y="276"/><use x="1584.292" xlink:href="#al" y="276"/></g><g fill-opacity=".5"><use x="1281.164" xlink:href="#bn" y="300"/><use x="1289.672" xlink:href="#bi" y="300"/><use x="1298.181" xlink:href="#bc" y="300"/><use x="1306.69" xlink:href="#be" y="300"/><use x="1315.199" xlink:href="#Z" y="300"/><use x="1323.708" xlink:href="#at" y="300"/><use x="1332.216" xlink:href="#X" y="300"/><use x="1340.725" xlink:href="#Z" y="300"/><use x="1349.234" xlink:href="#bf" y="300"/><use x="1357.743" xlink:href="#bg" y="300"/><use x="1366.252" xlink:href="#bh" y="300"/><use x="1374.76" xlink:href="#Z" y="300"/><use x="1383.269" xlink:href="#bo" y="300"/><use x="1391.778" xlink:href="#bi" y="300"/><use x="1400.287" xlink:href="#bd" y="300"/><use x="1408.796" xlink:href="#bd" y="300"/><use x="1417.304" xlink:href="#be" y="300"/><use x="1425.813" xlink:href="#Z" y="300"/><use x="1434.322" xlink:href="#bp" y="300"/><use x="1442.831" xlink:href="#aP" y="300"/><use x="1451.34" xlink:href="#Z" y="300"/><use x="1459.848" xlink:href="#bf" y="300"/><use x="1468.357" xlink:href="#bg" y="300"/><use x="1476.866" xlink:href="#bh" y="300"/><use x="1485.375" xlink:href="#Z" y="300"/><use x="1493.884" xlink:href="#bo" y="300"/><use x="1502.392" xlink:href="#bi" y="300"/><use x="1510.901" xlink:href="#bd" y="300"/><use x="1519.41" xlink:href="#bd" y="300"/><use x="1527.919" xlink:href="#au" y="300"/><use x="1536.428" xlink:href="#be" y="300"/><use x="1544.936" xlink:href="#Z" y="300"/><use x="1553.445" xlink:href="#at" y="300"/><use x="1561.954" xlink:href="#at" y="300"/><use x="1570.463" xlink:href="#Z" y="300"/><use x="1578.972" xlink:href="#bf" y="300"/><use x="1587.48" xlink:href="#bg" y="300"/></g><path d="M1191 116.793h363M1554 244h42" fill="none" stroke-width="4" stroke-linecap="square" stroke="#000" stroke-opacity=".5" stroke-miterlimit="10"/></g></svg>