<svg height="857" viewBox="0 0 1640 857" width="1640" xmlns="http://www.w3.org/2000/svg" xmlns:xlink="http://www.w3.org/1999/xlink"><defs><symbol overflow="visible"><path d="M12.594-99.453V0h70.812v-99.453zm59.562 92.25H23.844L48-43.343zm-28.5-42.453l-24 36.312v-72.453zm32.688 36.312l-24.14-36.312 24.14-36.14zM48-56.094L23.844-92.25h48.312zm0 0"/></symbol><symbol id="a" overflow="visible"><path d="M39-13.656c-8.406 0-12.297-7.5-12.297-21.75 0-14.094 5.25-23.094 13.953-23.094 4.344 0 8.688 2.406 13.047 7.203v22.047C53.703-22.203 48-13.656 39-13.656zM6.453-34.046c0 21.14 10.047 36.14 27.89 36.14 10.5 0 18.75-6.14 22.813-13.047 1.797 8.25 7.797 12.61 16.797 12.61 5.844 0 10.047-1.204 13.5-2.704l-2.547-14.406c-1.812.453-3.312.75-5.11.75-4.64 0-6.296-2.39-6.296-8.25v-23.094c0-7.047.453-13.203 1.203-25.047l-15.61-2.11-2.546 7.954c-5.39-5.547-11.25-8.844-19.344-8.844-19.797 0-30.75 18.594-30.75 40.047zm0 0"/></symbol><symbol id="b" overflow="visible"><path d="M44.703-14.25c-6.297 0-11.25-1.656-15-3.594v-57.453c0-15.156 2.094-22.656 14.547-22.656 9 0 13.797 4.953 13.797 14.703 0 10.953-4.64 17.406-16.344 17.406h-3v15.89H42c13.203 0 19.203 4.657 19.203 17.407 0 13.047-5.86 18.297-16.5 18.297zm32.39-71.547c0-17.25-12.296-28.36-32.093-28.36-25.047 0-35.094 13.36-35.094 40.36V35.25h19.797V-1.5c4.203 1.797 9.594 3.297 17.094 3.297 21.297 0 34.36-11.844 34.36-33.297 0-15.453-7.204-24-18.157-27.453 9.297-4.203 14.094-13.64 14.094-26.844zm0 0"/></symbol><symbol id="c" overflow="visible"><path d="M53.844-72L38.406-19.5h-.61c-.75-4.047-1.796-9-3-13.047L23.25-72H2.844c0 3.156.312 5.25 1.36 8.25L27.453-.156v29.86h19.952V.296l24.14-64.047c1.204-3 1.657-5.094 1.657-8.25zm0 0"/></symbol><symbol id="d" overflow="visible"><path d="M13.797-91.5c0 9.75 5.703 17.844 13.5 24.453-12.75 7.047-21.14 20.547-21.14 36 0 18.594 11.546 33 33.437 33 22.062 0 34.36-15.297 34.36-35.25 0-18.297-9.454-28.36-25.798-39.906-8.703-6-14.406-10.953-14.406-17.25 0-5.25 3-7.5 8.547-7.5 6.61 0 13.5 3 21.61 7.047l6.75-13.797c-7.36-4.797-16.36-9.453-30.61-9.453-16.344 0-26.25 8.11-26.25 22.656zm26.11 78.156c-9.157 0-13.813-8.11-13.813-17.86 0-13.202 6-23.093 14.703-26.25C48.594-51.593 54-44.703 54-32.703c0 11.548-4.953 19.36-14.094 19.36zm0 0"/></symbol><symbol id="e" overflow="visible"><path d="M37.047-73.5C19.5-73.5 7.953-67.203 7.953-54c0 8.406 4.64 14.406 12.453 17.547-8.703 3.156-13.953 9.61-13.953 17.86 0 14.39 12.14 20.25 31.203 20.25 12 0 22.64-2.563 27.438-4.657l-3.438-13.656c-3.75 1.062-13.5 3-21.156 3-8.25 0-14.094-1.344-14.094-7.64 0-5.548 5.25-8.11 15.89-8.11h10.5v-13.797H42.595c-9.89 0-14.844-2.844-14.844-8.094 0-5.547 5.406-7.047 13.203-7.047C48.156-58.344 55.5-57 60.75-55.5l3.906-13.047c-5.86-2.86-15.156-4.953-27.61-4.953zm0 0"/></symbol><symbol id="f" overflow="visible"><path d="M9.906-112.5l.75 17.25L49.5-97.047l.156.297C26.25-76.5 6-53.406 6-31.344 6-13.797 18.75-8.25 33.906-3.156 43.046 0 49.5 2.25 49.5 7.797c0 4.36-3.75 6.906-7.344 8.547L48 29.704C59.703 26.843 68.547 19.203 68.547 6c0-14.844-11.25-19.656-23.39-24.156-10.204-3.75-18.61-6.89-18.61-16.5 0-12.89 15.61-34.5 44.86-61.797L69.593-112.5zm0 0"/></symbol><symbol id="g" overflow="visible"><path d="M8.844-71.094c1.062 17.094 1.36 24 1.36 30.14V0h19.952v-52.344c4.938-3.75 10.344-6 15.594-6 6.906 0 9 4.5 9 14.844v79.203h19.797v-84.75c0-16.36-6.89-25.047-22.64-25.047-9.75 0-17.25 3.438-24.157 10.5l-3-9.61zm0 0"/></symbol><symbol id="h" overflow="visible"><path d="M7.047-53.844c0 30.89 9.906 55.64 36.156 55.64 27.594 0 36.89-24.89 36.89-58.343 0-31.797-10.187-57.61-36-57.61-27.296 0-37.046 28.063-37.046 60.313zM43.5-97.954c11.25 0 15.906 11.704 16.797 34.048H26.844c.906-21.438 5.11-34.047 16.656-34.047zm.297 83.548c-11.547 0-16.203-12-16.953-33.75h33.453c-.594 20.703-4.344 33.75-16.5 33.75zm0 0"/></symbol><symbol id="i" overflow="visible"><path d="M9.594-71.703v52.047c0 13.203 7.5 21.312 20.703 21.312 6.906 0 12.453-1.203 17.11-3.156l-2.704-14.406c-2.25.61-5.25 1.203-8.25 1.203-4.797 0-6.906-2.547-6.906-8.547v-48.906zm0 0"/></symbol><symbol id="j" overflow="visible"><path d="M57.156-72L29.844-41.406h-.14v-30.75l-19.798.453V0h19.797v-20.406l9-8.688L57.906 0h20.39c-.14-2.703-2.093-5.703-4.64-9.297l-22.36-32.11 20.407-19.64c3.89-3.75 5.844-7.36 5.703-10.953zm0 0"/></symbol><symbol id="k" overflow="visible"><path d="M71.094-8.547l-24.297-74.86c-6.594-20.093-13.203-30.75-32.094-30.75-4.047 0-6.61.454-9 .75v15.61c11.844.14 17.25 3.14 22.047 15l3.156 7.5L4.203-8.547C3.156-5.844 2.406-3 2.406 0h20.39l11.407-36.906 4.203-15.89h.75L53.25 0h19.5c0-3.156-.906-6-1.656-8.547zm0 0"/></symbol><symbol id="l" overflow="visible"><path d="M54-71.844v41.547c0 8.703-5.094 15.594-13.047 15.594-7.5 0-11.11-6.14-11.11-13.953v-43.5l-19.937.312V35.25h19.64L28.5-1.656c2.703 2.11 6.156 3.312 10.656 3.312 9.438 0 15.75-4.36 18.594-11.25 2.094 7.64 7.797 11.25 16.5 11.25 6 0 9.906-1.203 13.344-2.86l-2.547-14.093c-1.344.297-2.844.594-4.797.594-4.047 0-6.297-1.5-6.297-8.547V-72zm0 0"/></symbol><symbol id="m" overflow="visible"><path d="M51.75-71.406c.297 8.562-2.094 20.703-6.906 34.5l-6.438 18.312h-.61c-.593-4.062-2.093-10.062-3.14-14.11L23.25-72H2.844c0 3 .61 5.703 1.656 8.703L26.406.156l22.047-.312 14.25-33.14c7.5-17.548 10.203-30.907 8.547-39.454zm0 0"/></symbol><symbol id="n" overflow="visible"><path d="M6.75-112.5l.453 17.094L38.25-97.5l.156.453c-17.562 5.547-27 14.25-27 25.5 0 8.844 5.688 15.14 15.89 18.297-13.5 3.906-21.593 12.297-21.593 24.453C5.703-13.203 19.5-7.344 34.5-2.703 43.344.157 51 2.844 51 8.25c0 4.203-4.344 6.75-7.5 8.094l5.844 13.36c10.36-2.25 20.562-9.75 20.562-23.407 0-14.703-12-19.64-25.656-24-9.297-2.844-18.297-6-18.297-14.39 0-7.5 7.203-12.75 23.547-12.75h13.656v-16.36H52.203c-13.36 0-20.86-4.203-20.86-11.547 0-9.75 13.204-16.203 37.954-23.703L68.094-112.5zm0 0"/></symbol><symbol id="o" overflow="visible"><path d="M6.156-34.047c0 20.844 12.438 36.14 33.14 36.14 23.25 0 36-18.296 36-39.437 0-20.703-12.14-36.75-33-36.75-23.093 0-36.14 19.047-36.14 40.047zm48.89-.906c0 7.797-1.64 13.953-4.796 17.703-1.656 1.953-4.656 3.906-9.156 3.906-9.594 0-14.547-9.312-14.547-23.11 0-8.39 1.953-14.702 4.797-18.296C33-56.844 36-58.656 40.5-58.656c9.75 0 14.547 9.906 14.547 23.703zm0 0"/></symbol><symbol id="p" overflow="visible"><path d="M4.047-72v16.797h15.906V0h19.5v-55.203h20.844v38.11c0 12 5.406 18.75 17.406 18.75 6.453 0 10.64-1.5 14.094-2.86L89.25-15.297c-1.203.297-3 .594-4.797.594-3.75 0-5.25-1.953-5.25-6.297v-34.203H95.25V-72zm0 0"/></symbol><symbol id="q" overflow="visible"><path d="M41.844-58.344c10.062 0 13.812 7.938 13.812 21.75 0 15-4.656 23.094-15.156 23.094-3.906 0-8.094-1.047-11.703-2.844V-38.25c0-13.656 3-20.094 13.047-20.094zm3 60.297c18.453 0 31.36-17.11 31.36-38.703 0-22.344-10.798-37.344-33.907-37.344-21.594 0-33.453 11.688-33.453 37.5v72.297h19.953V-2.25c4.047 2.547 9.297 4.203 16.047 4.203zm0 0"/></symbol><symbol id="r" overflow="visible"><path d="M40.953-13.344c-9.75 0-14.406-8.703-14.406-19.812 0-14.094 6.297-22.938 20.547-23.688 5.25 5.547 7.953 14.094 7.953 24 0 11.688-4.953 19.5-14.094 19.5zm33.75-18.61c0-9.75-3.453-18.296-8.86-24.452l8.86.75h11.39v-16.797h-39.14c-27 0-40.797 19.203-40.797 39.453 0 19.797 12.75 35.094 34.047 35.094 21.14 0 34.5-15.14 34.5-34.047zm0 0"/></symbol><symbol id="s" overflow="visible"><path d="M3.594-72v16.797H24.75V-19.5c0 13.203 7.797 21.156 20.703 21.156 6.453 0 12-1.062 16.64-3L59.407-15.75c-1.953.453-5.11 1.047-7.953 1.047-4.797 0-6.75-2.547-6.75-8.547v-31.953h23.094V-72zm0 0"/></symbol><symbol id="t" overflow="visible"><path d="M48.75-70.5c3.594 11.547 5.844 23.094 5.844 36.156 0 14.25-3.594 20.688-13.047 20.688-8.25 0-12.594-5.844-12.594-18v-40.5l-19.797.312v38.688c0 23.25 9.75 35.25 32.094 35.25 22.953 0 33.594-14.688 33.594-38.25 0-14.688-3.438-28.5-6.89-38.39zm0 0"/></symbol><symbol id="E" overflow="visible"><path d="M56.547-72L36.453-46.203H30v-66.453l-20.094.312V0H30v-29.703h7.203L56.843 0H78c-.453-2.844-1.656-5.703-3.75-8.547l-22.047-30.61L72-63.906c2.547-3.14 3.906-5.546 4.047-8.093zm0 0"/></symbol><symbol overflow="visible"><path d="M12.594-99.453V0h70.812v-99.453zm59.562 92.25H23.844L48-43.343zm-28.5-42.453l-24 36.312v-72.453zm32.688 36.312l-24.14-36.312 24.14-36.14zM48-56.094L23.844-92.25h48.312zm0 0"/></symbol><symbol id="u" overflow="visible"><path d="M7.953-62.547l6 11.844c7.047-4.5 14.547-6.89 21.14-6.89 7.657 0 10.657 3.437 10.813 15.14-15.312 1.36-25.203 3.75-31.062 7.656-6 3.89-9.89 10.047-9.89 17.844 0 11.547 7.5 18.61 19.796 18.61 8.703 0 16.5-3.75 23.406-10.063l3.14 9.453 15.75-2.25C66-17.406 65.704-24 65.704-29.843V-46.5c0-18.75-8.25-27.156-26.11-27.156-12.437 0-23.546 4.5-31.64 11.11zm22.5 49.953c-4.797 0-6.906-2.562-6.906-7.203 0-3.453 1.203-5.547 3.297-6.906 2.562-1.64 7.812-3 19.062-3.75v11.406c-5.562 4.203-10.953 6.453-15.453 6.453zm0 0"/></symbol><symbol id="v" overflow="visible"><path d="M9.75-112.344v109.5c9.75 3 19.203 4.5 29.703 4.5 25.203 0 37.203-18.312 37.203-39.453 0-20.547-10.812-36.297-28.656-36.297-7.5 0-13.344 3.297-18.297 8.547v-47.11zm31.047 98.547c-3.594 0-7.5-.453-11.094-1.203v-37.203c4.203-3.75 8.844-6.297 13.797-6.297 8.25 0 12.75 8.547 12.75 22.5 0 8.094-.906 13.953-5.094 18.594-1.812 2.11-5.703 3.61-10.36 3.61zm0 0"/></symbol><symbol id="w" overflow="visible"><path d="M6.297-33.75c0 22.5 12.75 35.406 33.75 35.406 8.406 0 16.656-1.953 23.86-5.406l-4.063-13.797c-6 2.094-11.844 3.14-16.5 3.14-11.094 0-16.797-6.75-16.797-21.437 0-8.406 1.953-15.156 6-18.61 2.25-1.952 5.11-2.843 9-2.843 4.797 0 10.047 1.5 15.75 4.953l7.5-12.312c-5.844-5.688-13.5-9-23.094-9-21.906 0-35.406 16.203-35.406 39.906zm0 0"/></symbol><symbol id="x" overflow="visible"><path d="M39.75-13.656c-8.703 0-13.203-8.688-13.203-22.797 0-7.344 1.36-14.25 4.953-18.453 2.094-2.25 5.094-3.594 10.047-3.594 3.906 0 7.953.906 12 2.844v36c-4.797 3.906-9.594 6-13.797 6zM6.156-33.453C6.296-12.906 18.75 2.094 35.094 2.094c8.11 0 14.86-3.75 20.86-10.344l3 9.156 15.89-2.11c-1.047-16.046-1.344-22.64-1.344-28.5v-82.952l-19.953.312v43.047c-4.203-3-8.703-4.797-14.547-4.797-19.5 0-32.844 19.938-32.844 40.64zm0 0"/></symbol><symbol id="y" overflow="visible"><path d="M6.297-33.75c0 22.656 13.5 35.406 33.61 35.406 9.296 0 18.89-2.11 27.75-6.156l-4.204-12.75C57.156-15 49.5-13.953 43.5-13.953c-9.75 0-15.906-5.094-17.094-16.797h42c.75-3.594 1.188-8.406 1.188-12.297 0-17.86-9-30.75-28.188-30.75-22.062 0-35.11 17.703-35.11 40.047zm33.906-25.203C47.547-58.953 51-54.297 51-46.797c0 1.203 0 2.844-.156 4.203H26.547c1.203-10.36 5.406-16.36 13.656-16.36zm0 0"/></symbol><symbol id="z" overflow="visible"><path d="M15.594-81.75V-72H4.797v15.297h10.797V0h19.953v-56.703h16.797V-72H35.547v-12.594c0-8.562 2.86-13.203 10.36-13.203 4.937 0 9.437 1.64 12.296 3l6.14-12.906c-4.937-3.453-12.14-6.453-20.687-6.453-19.36 0-28.062 14.25-28.062 32.406zm0 0"/></symbol><symbol id="A" overflow="visible"><path d="M12.297-10.344c0 3.297.906 6 2.547 7.938C7.5 2.704 2.704 9 2.547 16.797c-.14 13.953 13.203 21.297 31.5 21.297 23.703 0 39.297-10.938 39.297-27.89 0-13.5-10.5-20.704-29.688-21-9-.157-14.406-.75-14.406-6.454 0-1.5.453-2.844 1.203-4.047 1.64.14 3.297.297 5.094.297 20.406 0 32.25-11.547 32.25-26.844 0-5.11-1.5-9.906-4.344-14.11 3.89-.75 7.953-1.343 11.844-1.64l-.14-15.453c-8.704.453-15.907 3.75-21.61 8.703-4.203-2.11-9.297-3.312-15.297-3.312-21 0-31.953 13.062-31.953 27.75 0 9.156 4.5 17.406 13.5 21.75-4.797 4.062-7.5 8.406-7.5 13.812zm24.906 33.75c-10.656 0-17.547-2.703-17.547-9.61 0-3.75 1.938-7.202 5.547-10.343 4.203 1.047 8.844 1.203 12.75 1.203C48.297 4.796 55.797 6 55.797 12.75c0 3.156-1.5 5.547-4.047 7.344-2.844 2.11-7.797 3.312-14.547 3.312zm11.844-70.5c0 7.797-4.5 12.594-12 12.594-8.39 0-12.14-4.797-12.14-13.047 0-7.656 4.5-12.61 12-12.61 8.546 0 12.14 5.11 12.14 13.063zm0 0"/></symbol><symbol id="B" overflow="visible"><path d="M9.906-112.344V0h19.938v-53.406c5.11-2.844 10.5-4.5 15.61-4.5 6.75 0 9 4.36 9 14.11V0h19.952v-49.047c0-16.36-7.203-25.047-22.5-25.047-8.562 0-15.61 2.547-22.062 7.64v-46.202zm0 0"/></symbol><symbol id="C" overflow="visible"><path d="M9.906-71.844V0h19.938v-72.156zM9-94.204c0 6 4.203 10.048 10.797 10.048 7.047 0 11.703-4.64 11.703-11.25 0-6.14-4.203-10.344-10.656-10.344C13.656-105.75 9-101.094 9-94.203zm0 0"/></symbol><symbol id="D" overflow="visible"><path d="M10.047-71.844v65.25c0 14.39-5.094 24.438-12.89 33l10.5 10.344C20.843 28.203 30 15.297 30-5.547v-66.61zm-1.203-22.36c0 6 4.203 10.048 10.812 10.048 7.047 0 11.688-4.64 11.688-11.25 0-6.14-4.188-10.344-10.64-10.344-7.204 0-11.86 4.656-11.86 11.547zm0 0"/></symbol><symbol id="F" overflow="visible"><path d="M9.594-112.344v96.89c0 11.25 6 17.11 16.203 17.11 5.11 0 10.656-.906 15.75-3l-3.14-14.25c-1.813.594-3.313.89-4.657.89-3 0-4.203-1.796-4.203-6.14v-91.812zm0 0"/></symbol><symbol id="G" overflow="visible"><path d="M8.844-71.094c1.203 17.094 1.36 24.14 1.36 30.14V0h19.952v-52.344c4.64-3.61 9.89-6 14.688-6 6.156 0 8.25 4.188 8.25 15.75V0h19.812v-48.297c0-1.36 0-2.703-.156-3.906 4.656-3.594 9.906-6.14 14.844-6.14 6.156 0 8.25 4.187 8.25 15.75V0h19.812v-48.297c0-17.11-6.906-25.797-21.453-25.797-9.75 0-17.11 3.75-23.86 11.094-3.14-7.344-9.437-11.094-18.89-11.094-9.75 0-16.953 3.75-23.547 10.797l-3.156-9.906zm0 0"/></symbol><symbol id="H" overflow="visible"><path d="M8.844-71.094c1.062 17.094 1.36 24 1.36 30.14V0h19.952v-52.344c4.938-3.75 10.344-6 15.594-6 6.906 0 9 4.5 9 14.844V0h19.797v-49.047c0-16.36-6.89-25.047-22.64-25.047-9.75 0-17.25 3.438-24.157 10.5l-3-9.61zm0 0"/></symbol><symbol id="I" overflow="visible"><path d="M6.156-34.047c0 20.844 12.438 36.14 33.14 36.14 23.25 0 36-18.296 36-39.437 0-20.703-12.14-36.75-33-36.75-23.093 0-36.14 19.047-36.14 40.047zm48.89-.906c0 7.797-1.64 13.953-4.796 17.703-1.656 1.953-4.656 3.906-9.156 3.906-9.594 0-14.547-9.312-14.547-23.11 0-8.39 1.953-14.702 4.797-18.296C33-56.844 36-58.656 40.5-58.656c9.75 0 14.547 9.906 14.547 23.703zm0 0"/></symbol><symbol id="J" overflow="visible"><path d="M42-13.344c-3.906 0-7.953-.906-11.844-3v-36.61c4.797-3.452 9.438-5.39 13.797-5.39 8.703 0 13.047 9 13.047 22.797 0 7.344-1.344 14.547-4.953 18.453-2.39 2.39-5.39 3.75-10.047 3.75zM8.844-71.094c1.062 17.094 1.36 24.14 1.36 30.14v76.657h19.952V-2.703c4.344 3 8.688 4.656 15 4.656 18.438 0 32.25-19.5 32.25-40.5 0-20.25-12.312-35.547-28.953-35.547-8.11 0-14.86 3.75-20.86 10.047l-2.843-9.156zm0 0"/></symbol><symbol id="K" overflow="visible"><path d="M6.297-33.906c0 20.11 10.656 36 28.953 36 7.203 0 13.047-2.25 18-6v39.61h19.953V-69c-9.453-3.156-19.5-4.656-29.11-4.656-26.093 0-37.796 18.453-37.796 39.75zM40.5-13.5c-9.297 0-13.797-8.406-13.797-22.344 0-6.453.75-14.11 5.094-18.75 2.11-2.11 5.86-3.453 10.797-3.453 3.453 0 7.203.453 10.812 1.047v40.656C48.594-14.547 44.094-13.5 40.5-13.5zm0 0"/></symbol><symbol id="L" overflow="visible"><path d="M8.844-71.094c1.062 17.094 1.36 24 1.36 30.14V0h19.952v-45.75c4.64-5.703 10.047-7.656 16.188-7.656 2.86 0 5.406.156 8.25.906l3.156-18.156c-2.703-1.797-6.453-3-10.5-3-8.094 0-13.953 5.11-18.594 13.36L24.75-73.204zm0 0"/></symbol><symbol id="M" overflow="visible"><path d="M7.5-50.844c.156 11.688 9.156 16.5 19.203 20.25 8.25 3.14 15.453 5.688 15.453 10.64 0 4.204-4.812 6.454-11.406 6.454-6.453 0-12.906-1.953-19.047-5.547L4.797-6.75c7.656 5.406 16.953 8.406 27.61 8.406 18.593 0 30.14-9.312 30.14-23.11 0-12.452-9.75-17.093-21.453-21.452-7.938-3-13.344-5.094-13.344-9.75 0-3.297 3-5.844 9.453-5.844 5.094 0 10.797 1.797 16.047 4.797l7.047-12.14C54-70.5 46.657-73.657 36.907-73.657c-16.5 0-29.704 8.703-29.407 22.812zm0 0"/></symbol><symbol id="N" overflow="visible"><path d="M18.156-93.75L13.796-72H4.345v15.297h10.36v33.906c0 18.453 7.343 24.453 20.39 24.453C42.906 1.656 51 0 57.454-2.547l-3.298-13.5c-4.203.89-8.406 1.344-10.953 1.344-6.75 0-8.703-2.703-8.703-13.5v-28.5h21.297V-72H34.5v-21.75zm0 0"/></symbol><symbol id="O" overflow="visible"><path d="M9.453-71.844v49.047c0 16.203 7.64 24.89 23.094 24.89 8.86 0 16.36-3.296 22.953-10.046l3 8.86 15.75-2.11C73.203-18 72.906-25.047 72.906-31.047V-72H52.953v52.5c-5.11 3.906-9.906 5.844-14.406 5.844-6.297 0-9.14-4.188-9.14-14.844v-43.656zm0 0"/></symbol><symbol id="P" overflow="visible"><path d="M54.906-72l-15.61 53.406h-.593c-.906-6-2.11-11.25-3.61-16.5L24.157-72H3.906c0 3 .594 5.844 1.5 8.547L27.453.157 49.5-.157l23.094-63.297C73.5-66 74.25-68.843 74.25-72zm0 0"/></symbol><symbol overflow="visible"><path d="M84.156-99.453H13.344V0h70.812zM48.75-56.093L24.594-92.25h48.312zm4.203 6.437l24.14-36.14v72.452zm-4.203 6.312l24.156 36.14H24.594zm-4.344-6.312l-24 36.312v-72.453zm0 0"/></symbol><symbol id="Q" overflow="visible"><path d="M28.047-14.25c-3.14-2.25-4.203-6.906-4.203-12 0-12.297 6-30 15.156-32.094 4.656 3.438 7.047 16.188 7.656 28.938-5.25 7.812-12.75 13.953-18.61 15.156zm-24-9.594c0 15.14 6.453 25.938 18.906 25.938 9.89 0 18-7.188 25.047-16.64C50.25-3.75 53.703 1.796 63.156 1.796c7.344 0 14.39-3.297 19.5-8.094l-5.406-12.75c-3.156 1.797-7.953 4.203-10.656 4.344C64.954-17.25 63-21.453 61.047-27 69.297-38.25 78-52.5 83.703-69.453l-18.75-5.094c-2.703 7.5-5.406 18.453-7.36 27.453h-.437c-1.36-17.11-6.312-27.156-18.61-27.156-21.14 0-34.64 27.453-34.5 50.406zm0 0"/></symbol><symbol id="R" overflow="visible"><path d="M19.203-87.594c-7.36 16.188-12.61 45-12.61 60.89 0 20.704 9.157 28.657 27 28.657 23.563 0 37.954-18.156 37.954-41.406 0-11.39-4.64-17.844-12.297-20.844 11.547-6.906 19.047-16.797 19.047-30.453 0-13.047-9.594-23.406-24.297-23.406-16.797 0-27.156 9.156-34.797 26.562zm16.953 6C39.906-91.797 44.844-97.5 52.046-99c4.048 1.047 7.204 4.344 7.204 10.344 0 12.453-12 22.812-28.5 26.11 1.656-6.907 3.453-13.5 5.406-19.048zM34.796-13.5c-6.89 0-9-4.797-8.843-13.797 0-5.86.89-13.36 2.094-21 4.36-1.047 8.86-2.25 12.906-2.25 7.5 0 10.797 4.5 10.64 11.547 0 8.844-3.14 18.297-6.75 22.656-2.546 1.797-6.296 2.844-10.046 2.844zm0 0"/></symbol><symbol id="S" overflow="visible"><path d="M77.406-67.656l-18-6.75c-7.812 12-18.312 33.75-24.906 54.906h-.453c-1.344-19.953-2.703-34.953-6.89-52.656H4.952c.14 1.36.453 2.703.89 4.203C10.657-50.406 15.594-32.25 21.907.75c-2.703 9-4.812 18-6 27.156 5.25 1.797 15.75 3.14 22.344 2.547 1.047-8.547 1.5-17.703 1.203-26.86C53.406-28.046 66.593-49.796 77.406-66zm0 0"/></symbol><symbol id="T" overflow="visible"><path d="M20.547-90.453c0 9.75 4.797 16.797 9.906 22.36C15.453-60.907 4.047-45.157 4.047-27c0 17.406 10.5 28.953 28.656 28.953 22.5 0 36.453-17.703 36.453-39 0-15-7.36-23.25-19.656-36.906-6.156-6.594-9.594-10.5-9.594-16.797 0-2.547.594-4.344 1.64-6 1.657-.906 3.75-1.203 5.86-1.203 6.594 0 13.188 3.297 19.938 8.25l8.86-13.5C68.25-109.797 60.155-114.156 48-114.156c-16.203 0-27.453 8.562-27.453 23.703zM34.657-13.5c-7.36 0-10.954-5.547-10.954-14.25 0-13.953 7.797-26.25 17.094-29.844C46.203-51.906 49.5-46.047 49.5-36.75c0 8.406-2.547 16.203-5.547 20.406-2.406 1.938-6.156 2.844-9.297 2.844zm0 0"/></symbol><symbol id="U" overflow="visible"><path d="M38.844-73.797C21.156-73.797 9-65.844 9-53.25c0 6.75 3.594 12.594 10.203 15.75C9-34.344 2.703-27.453 2.703-17.703c0 13.203 12 19.36 29.25 19.36C43.5 1.656 54-1.048 59.093-3.157l-3.296-13.64c-5.703 1.64-13.344 3-20.25 3-7.953 0-12.89-1.954-12.89-7.048 0-5.86 6.14-8.86 16.64-8.86h12.156l1.64-13.343H43.048c-9.297 0-14.703-2.25-14.703-8.25 0-2.406.906-4.36 1.953-5.547C33-58.047 36.594-58.5 41.094-58.5c7.062 0 15.156 1.797 20.562 3.594l4.64-13.188c-7.046-3.453-16.046-5.703-27.452-5.703zm0 0"/></symbol><symbol id="V" overflow="visible"><path d="M47.25-111.297c-10.203 0-17.547-1.797-26.703-4.5l-4.64 15.453c7.5 3.594 15.14 5.39 22.5 5.39 4.937 0 10.187-1.5 14.39-3l.156.454C26.703-75.297 4.047-50.844 4.047-28.656c0 14.562 8.703 19.953 23.86 27.156C33.75 1.047 38.25 3.297 39.593 7.203c-1.797 3.75-5.547 6.89-9.594 9.14l7.344 13.36C48.297 26.406 57.906 19.047 57.906 6c0-11.703-8.11-17.406-17.11-21.594-9.75-5.406-16.64-8.86-16.64-17.11 0-13.343 19.797-38.093 51-65.39l-3.61-16.203c-4.64.89-13.64 3-24.296 3zm0 0"/></symbol><symbol id="W" overflow="visible"><path d="M12.156-71.25c-1.5 17.844-2.11 24.453-2.86 30.453L4.047 0h19.657L28.5-35.703c1.656-12.14 12.156-21.89 20.547-22.047 3 1.5 2.703 7.5 1.797 14.25L46.656-12c-2.562 18.453-6.453 32.094-11.86 43.797l17.11 5.547c6.75-10.797 11.25-26.547 14.39-49.188l4.657-35.703c1.953-15.61-.297-26.703-16.203-26.703-10.203 0-19.047 6.594-24.75 15l-2.25-13.953zm0 0"/></symbol><symbol id="X" overflow="visible"><path d="M28.344-81.156c0-6.14 1.656-11.688 4.203-14.547 2.25-1.5 5.86-2.25 9.453-2.25 8.547 0 10.953 5.406 11.094 16.953 0 4.047-.297 9.906-1.047 16.5-14.094-.75-23.703-4.047-23.703-16.656zM32.25 1.797c12.297 0 20.547-4.344 26.25-13.203 8.844-12.89 13.797-49.047 13.797-68.25 0-22.188-9.297-34.5-29.094-34.5-21.906 0-34.047 15-34.047 33.312 0 22.797 19.5 30.438 40.938 31.938-1.64 11.86-4.047 23.703-6.594 30.61-2.406 2.39-5.844 3.89-10.047 3.89-8.703 0-10.797-6-9.297-18l1.64-12.438h-19.5l-1.64 12c-3 21.89 6.14 34.64 27.594 34.64zm0 0"/></symbol><symbol id="Y" overflow="visible"><path d="M12.75-72L6.297-20.703c-1.953 15 2.86 22.5 15.61 22.5 9.14 0 16.5-4.047 21.75-8.703l-5.11-12.438c-3 1.64-9.594 4.797-12.453 4.797-.75-2.25-.438-5.11.156-9.453l6.156-48.453zm0 0"/></symbol><symbol id="Z" overflow="visible"><path d="M68.844-74.844c-12 4.5-30.438 20.844-40.047 36.297h-.75l4.36-33.906L13.202-72 3.75 0h19.344l1.062-7.953c1.5-6 5.547-12.297 10.938-18.453L48.75 0h20.094c.156-2.703-1.5-5.703-3.438-9.297l-16.812-29.86c9.906-8.39 20.86-15.296 28.062-19.187zm0 0"/></symbol><symbol id="aa" overflow="visible"><path d="M67.5-6.156c-3.297-16.047-7.953-42-11.703-66.89-4.5-33.454-6.297-41.11-21.594-41.11-7.5 0-14.86 2.86-20.86 6l5.25 14.86c3.454-1.36 8.86-3.61 12.313-3.61 2.39 1.656 4.344 6 5.25 14.703l.438 5.547c-15.438 31.5-27.75 52.5-38.547 70.953v1.656l18.75 6c7.656-15.156 16.5-35.547 24.453-54.75h.594c.312 5.39.75 10.797 1.203 16.203C44.25-22.797 45.75-11.547 48.157 0h20.25c0-1.656-.454-3.75-.907-6.156zm0 0"/></symbol><symbol id="ab" overflow="visible"><path d="M6.453-19.047c-2.406 18.14-4.5 41.39-2.86 55.797l19.5-1.953c-1.5-9.75-1.5-23.094-.593-36.297C24.453.594 27 1.953 30.906 1.953c7.938 0 15.14-5.11 19.188-13.203C51.156-2.547 55.5 1.953 64.204 1.953c7.952 0 14.702-3.75 19.952-8.25l-5.25-12.75c-3.156 1.953-8.406 4.5-10.812 4.5-1.188-1.797-1.188-6.453-.438-12.156l6-45.453H53.844L49.047-36c-1.5 12.453-8.39 21.75-15.75 21.75-4.5-1.797-6.594-8.547-5.547-16.5l5.406-41.703L13.5-72zm0 0"/></symbol><symbol id="ac" overflow="visible"><path d="M50.844-72.156c-.75 18.453-8.39 36.906-18.594 53.703h-.594l-.906-14.094-4.047-39.61H7.047c-.453 2.563-.453 5.704.156 8.563L17.25.156l18.906-.312C57.594-25.203 69.75-52.046 69.75-67.953c0-1.344 0-2.703-.156-4.203zm0 0"/></symbol><symbol id="ad" overflow="visible"><path d="M45.594-111.156c-9.89 0-18.75-1.938-27-4.64l-4.5 15.452c3.453 1.938 10.36 4.64 17.86 4.64 3.75 0 7.952-.593 13.343-1.64l.156.594c-17.86 6.156-31.047 14.844-31.047 26.25 0 8.547 5.688 14.547 15 17.547-15 3.156-25.953 11.406-25.953 25.203 0 15.297 11.094 20.547 29.094 27.906 5.11 2.25 9.297 4.5 10.953 7.188-2.25 3.75-5.844 6.906-9.75 9l7.344 13.36c9-2.548 20.703-9.75 20.703-23.407 0-10.203-7.344-15.594-17.844-19.953-12-5.094-20.406-8.844-20.406-16.5 0-8.547 9.297-14.094 25.203-14.094h12.906l2.25-16.344h-10.5c-11.562 0-19.062-3.312-19.062-10.812 0-10.344 20.86-18.89 41.25-26.688l-2.844-16.203c-4.953 1.047-16.953 3.14-27.156 3.14zm0 0"/></symbol><symbol id="ae" overflow="visible"><path d="M4.344-28.047c-.14 17.39 8.86 30.14 26.86 30.14 26.843 0 39.296-26.39 39.452-46.5.14-16.937-8.25-29.843-27-29.843-27 0-39.156 26.25-39.312 46.203zm46.5-16.203c0 11.094-3.438 22.5-9 29.25-1.938 1.047-4.797 1.656-7.344 1.656-6.453 0-10.344-6-10.344-14.562.14-11.094 3.594-23.094 9-29.39 1.938-1.048 4.64-1.657 7.344-1.657 7.344 0 10.344 5.703 10.344 14.703zm0 0"/></symbol><symbol id="af" overflow="visible"><path d="M46.344-72.156c-17.25 0-31.64 2.25-42.14 5.11L6.75-51c4.953-1.047 10.656-2.094 16.656-3L15.75 0h19.203l7.953-55.5H59.547l-4.953 34.656C52.5-6.156 56.844 1.796 69.297 1.796c8.86 0 15-3.89 20.11-8.093l-5.25-12.453c-3 1.656-7.813 4.203-10.657 4.203-.75-2.25-.594-5.25.156-9.453l4.64-31.5h15.75l2.11-16.656zm0 0"/></symbol><symbol id="ag" overflow="visible"><path d="M43.797-58.797c4.36.89 6.61 7.344 6.61 15.594 0 10.047-3 21.156-8.11 27.297-2.25 1.36-6.594 1.953-9.594 1.953-3 0-6.156-.453-9.61-1.203 2.86-22.5 9-42.14 20.704-43.64zM22.344 35.25c-.594-6.297-1.047-11.703-1.047-19.344 0-4.953.156-9.906.453-15 3.156.594 6.297.89 9.453.89 24.14 0 39.14-21.452 39.14-46.046 0-17.547-8.687-30-24.75-30-34.64 0-43.937 43.5-43.937 91.344 0 7.812.14 13.203.594 19.953zm0 0"/></symbol><symbol id="ah" overflow="visible"><path d="M34.656-13.344c-6.61 0-10.5-5.703-10.5-14.11.14-17.843 7.047-29.843 20.844-29.843h1.656c2.25 4.344 3.75 10.64 3.594 16.047C50.25-31.203 47.094-21 42-15c-1.953 1.047-4.5 1.656-7.344 1.656zm35.094-27.75c0-4.953-1.203-10.36-3-14.86 1.656.157 3.453.298 5.25.454h9.75L84-72.156H45c-27.594 0-40.5 22.812-40.656 44.11-.14 17.39 9 30.14 27 30.14 26.25 0 38.406-24.438 38.406-43.188zm0 0"/></symbol><symbol id="ai" overflow="visible"><path d="M43.047-72.156c-19.203 0-29.844 1.656-39.453 4.812l3 15.594c5.562-1.203 11.406-2.406 18.75-3l-4.797 34.047c-2.094 15 2.86 22.5 15.61 22.5 9.14 0 17.39-4.047 22.64-8.703l-5.39-12.438c-3 1.64-10.36 4.797-13.204 4.797-.75-2.25-.61-5.11 0-9.453L45-55.5h21.156l2.25-16.656zm0 0"/></symbol><symbol id="aj" overflow="visible"><path d="M48.297-70.953c1.797 8.11 2.547 14.11 2.547 21.453 0 12.906-2.25 26.406-5.547 32.25-2.25 2.25-5.703 3.594-9.297 3.594-8.703 0-11.094-6.75-9.453-19.64l5.25-39.157-19.64.453-4.954 36.906c-3 23.094 6 37.188 26.844 37.188 25.656 0 36.75-22.047 36.75-50.688 0-9-1.203-17.406-3.14-26.11zm0 0"/></symbol><symbol overflow="visible"><path d="M84.156-99.453H13.344V0h70.812zM48.75-56.093L24.594-92.25h48.312zm4.203 6.437l24.14-36.14v72.452zm-4.203 6.312l24.156 36.14H24.594zm-4.344-6.312l-24 36.312v-72.453zm0 0"/></symbol><symbol id="ak" overflow="visible"><path d="M29.094-14.547c-3.297-1.047-4.938-5.547-4.938-12.906 0-11.844 3.438-23.25 10.344-29.703 1.953-.75 4.953-1.188 7.656-1.188 2.39 0 5.094.297 7.797.75l-4.5 34.797c-4.953 4.344-10.953 7.64-16.36 8.25zm-24.89-9c0 14.25 4.952 25.344 17.843 25.344 8.11 0 16.953-4.797 24-11.547l1.797 10.797 15.75-2.25c.75-15.297 1.5-21 2.11-26.844l5.25-39.61c-6.75-3.437-15.298-6.593-25.048-6.593-25.062 0-41.86 21.156-41.703 50.703zm0 0"/></symbol><symbol id="al" overflow="visible"><path d="M18.297-112.344L3.907-3.454c5.843 2.407 15.14 5.11 24.89 5.11 27.156 0 42.61-22.656 42.453-49.812 0-14.547-4.953-26.094-18.156-26.094-7.938 0-15.297 4.203-21.438 9.297l6.297-47.703zm14.86 98.39c-2.563 0-5.407-.452-8.11-.89l4.656-34.953c4.797-4.203 11.094-7.656 16.64-8.11 3.157.907 4.954 6 4.954 13.063 0 13.797-4.344 23.547-10.203 29.25-1.938 1.047-4.797 1.64-7.938 1.64zm0 0"/></symbol><symbol id="am" overflow="visible"><path d="M4.344-26.406C4.204-9 13.047 1.656 27.906 1.656c10.797 0 21-3.906 27-7.5l-4.36-12.75c-6.89 2.39-14.843 4.188-21.452 4.344-2.688-1.953-4.797-5.547-4.797-13.344 0-12.61 3.906-23.86 9.297-29.11 2.11-.75 4.203-1.046 6.61-1.046 5.843 0 11.843 2.25 16.046 4.5l7.047-13.656c-4.64-3.75-11.703-7.047-20.39-7.047-23.704 0-38.563 23.11-38.563 47.547zm0 0"/></symbol><symbol id="an" overflow="visible"><path d="M29.094-14.547c-3.297-1.047-4.797-5.547-4.797-13.047 0-11.703 3.453-23.11 10.36-29.562 1.937-.75 4.796-1.188 7.5-1.188 2.546 0 5.093.297 7.796.75l-4.5 34.938c-5.25 4.5-10.953 7.5-16.36 8.11zm-24.89-9.156c.14 14.406 5.25 25.5 17.843 25.5 8.25 0 16.797-4.953 24.156-11.844L48 .906l15.594-2.11c.906-15.89 1.656-22.5 2.406-28.343l10.953-83.11-19.797.313-5.11 38.547c-1.952-.297-4.046-.453-6.296-.453-25.047 0-41.703 21.453-41.547 50.547zm0 0"/></symbol><symbol id="ao" overflow="visible"><path d="M4.344-26.25c0 16.953 8.25 27.906 24 27.906C39 1.656 51.297-2.406 60.906-8.547l-5.25-12.297c-9 4.188-18.75 6.594-27 6.594-3.156-2.406-4.656-7.5-4.812-13.656 22.953-.75 43.203-8.39 43.203-27.438 0-11.86-7.797-18.906-21.89-18.906-25.36 0-40.813 23.25-40.813 48zm29.11-31.797c2.25-1.047 5.39-1.656 7.952-1.656 4.938 0 7.5 2.86 7.5 7.203 0 8.25-10.36 11.703-24 12.75 1.5-6.906 4.5-13.5 8.547-18.297zm0 0"/></symbol><symbol id="ap" overflow="visible"><path d="M8.094-72.156L6.156-57.75h10.047l-12 93.453h19.5L36-57.75h15.594l1.812-14.406h-15.61l1.5-11.25c.75-5.844 2.11-10.188 4.36-13.047 2.094-1.047 4.047-1.64 6.89-1.64 3.907 0 7.798.89 11.25 2.25l6.157-12.907c-3.75-2.547-9.156-5.406-18.75-5.406-18.61 0-27.61 15.156-29.86 32.406l-1.187 9.594zm0 0"/></symbol><symbol id="aq" overflow="visible"><path d="M29.094-14.547c-3.594-.906-4.797-6.156-4.797-13.203 0-12.453 3.906-23.25 10.36-29.406 1.5-.75 4.796-1.188 7.343-1.188 2.406 0 5.25.297 8.094.75L45.75-22.797C40.203-18 33.594-15 29.094-14.547zm-24.89-9.61C4.343-8.406 10.046 1.5 22.046 1.5c7.203 0 15-3.75 21.75-9.594L43.344-4.5C42 5.094 39.75 13.047 35.094 19.344 32.547 20.406 29.547 21 25.797 21 18.453 21 11.25 18.906 6 16.797L0 31.5c6.156 3.297 14.25 6.156 24.594 6.156 22.5 0 34.953-16.812 38.406-42.906l8.094-62.406c-7.047-3.438-15.75-6.594-25.047-6.594-24.89 0-42 21.594-41.844 50.094zm0 0"/></symbol><symbol id="ar" overflow="visible"><path d="M18.594-112.344L3.75 0h19.797l6.297-47.844c5.86-5.562 12.75-9.312 18.906-9.906 3 1.5 2.703 7.5 1.797 14.406L44.703 0H64.5l6.453-49.047c1.953-15.156-.297-25.203-16.047-25.203-7.812 0-15.906 4.047-22.953 10.797l6.453-49.203zm0 0"/></symbol><symbol id="as" overflow="visible"><path d="M13.344-72L3.75 0h19.656L33-72.453zm1.062-19.953c0 4.953 3.297 8.25 9.297 8.25 7.344 0 13.047-5.094 13.047-12.594 0-4.953-3.156-8.406-9-8.406-7.5 0-13.344 5.406-13.344 12.75zm0 0"/></symbol><symbol id="at" overflow="visible"><path d="M13.203-72L4.343-3.906c-1.64 13.062-7.64 22.062-15.89 30l8.25 10.812c14.39-7.656 24.297-20.11 27-39.156L33-72.453zm1.5-19.953c0 4.953 3.297 8.25 9.297 8.25 7.344 0 13.047-5.094 13.047-12.594 0-4.953-3.14-8.406-9-8.406-7.5 0-13.344 5.406-13.344 12.75zm0 0"/></symbol><symbol id="au" overflow="visible"><path d="M18.594-112.344L3.75 0h19.656l3-22.797L33-27.907 46.797 0h19.656c.14-2.844-.75-6-2.703-9.453l-17.094-30.89 22.188-22.813c3.156-3 5.25-6.14 5.406-9H54.906l-25.953 29.86 9.297-70.36zm0 0"/></symbol><symbol id="av" overflow="visible"><path d="M19.953 1.656c6.75 0 12.297-1.812 15.75-3.312l-1.797-13.938c-1.656.297-4.062.438-5.562.438-2.39-.297-3.14-2.25-2.547-6.438l12-91.062-19.797.312L5.703-17.25C4.203-4.953 8.547 1.656 19.953 1.656zm0 0"/></symbol><symbol id="aw" overflow="visible"><path d="M12.156-71.25c-1.5 17.844-2.11 24.453-2.86 30.453L4.047 0h19.657L30-47.406c6-5.844 12.906-9.89 18.594-10.344 2.11 1.047 2.703 5.094 1.953 11.547L44.547 0h19.797l5.86-47.406c6-5.844 12-9.297 18.89-10.344 2.25 1.203 2.86 4.953 2.11 11.547L85.046 0h19.797l6.61-50.844c1.796-14.11-1.36-23.406-15.157-23.406-9.453 0-18 4.797-25.344 12.297-1.047-7.797-5.406-12.297-15.61-12.297-9.296 0-18.14 5.25-25.64 13.203L27.75-73.203zm0 0"/></symbol><symbol id="ax" overflow="visible"><path d="M12.156-71.25c-1.5 17.844-2.11 24.453-2.86 30.453L4.047 0h19.657L30-47.547c6.156-5.703 12.75-9.61 19.047-10.203 3 1.5 2.703 7.5 1.797 14.25L45 0h19.656l6.438-48.906c1.953-15.14 0-25.344-15.89-25.344-8.704 0-17.704 5.094-25.5 13.047l-1.954-12zm0 0"/></symbol><symbol id="ay" overflow="visible"><path d="M4.344-28.047c-.14 17.39 8.86 30.14 26.86 30.14 26.843 0 39.296-26.39 39.452-46.5.14-16.937-8.25-29.843-27-29.843-27 0-39.156 26.25-39.312 46.203zm46.5-16.203c0 11.094-3.438 22.5-9 29.25-1.938 1.047-4.797 1.656-7.344 1.656-6.453 0-10.344-6-10.344-14.562.14-11.094 3.594-23.094 9-29.39 1.938-1.048 4.64-1.657 7.344-1.657 7.344 0 10.344 5.703 10.344 14.703zm0 0"/></symbol><symbol id="az" overflow="visible"><path d="M33.594-13.953c-2.547 0-5.25-.297-7.938-.89l4.5-34.954c5.39-4.656 11.25-7.5 16.64-8.11 3.454 1.063 4.954 5.86 4.954 13.063 0 11.844-3.453 23.25-10.344 29.547-1.953.89-4.953 1.344-7.812 1.344zm38.25-34.5c-.14-14.39-5.25-25.797-18.438-25.797-7.953 0-16.5 4.5-24 11.844l-1.812-10.797L12-71.093c-.906 16.343-1.5 22.046-2.406 28.343L-.75 35.703h19.656l4.5-34.36c2.094.313 4.188.454 6.438.454 25.062 0 42-21.14 42-50.25zm0 0"/></symbol><symbol id="aA" overflow="visible"><path d="M4.203-23.844c0 14.547 5.25 25.64 18 25.64 7.5 0 15.297-4.202 21.453-9.452l-5.562 43.36h19.5l13.5-103.36c-4.797-2.39-13.64-6.438-25.188-6.438-24 0-41.86 19.64-41.703 50.25zm24.89 9.297c-3.593-.906-4.796-6.156-4.796-13.36 0-12.437 3.906-22.796 10.047-28.937 1.812-.75 4.656-1.5 7.812-1.5 2.39 0 5.094.297 7.938.89l-4.5 34.5c-5.688 4.798-12 7.954-16.5 8.407zm0 0"/></symbol><symbol id="aB" overflow="visible"><path d="M12.156-71.25c-1.36 17.406-1.953 23.844-2.703 29.703L4.047 0h19.656l5.703-42.594c5.547-7.953 11.39-12.156 17.39-12.156 2.407 0 4.5.594 6.157 1.047l4.953-17.703c-1.656-1.188-4.812-2.39-8.562-2.39-8.25 0-14.39 5.702-19.938 14.546l-2.11-13.797zm0 0"/></symbol><symbol id="aC" overflow="visible"><path d="M8.25-52.953c0 10.203 7.656 16.36 14.406 21 7.188 5.25 11.094 7.953 11.39 12.156.157 1.953-.296 3.594-1.046 4.64-1.047.75-3 1.5-6.906 1.5-6.75 0-13.047-3.14-17.688-6.14L.296-6.75c5.86 4.656 15.157 8.406 25.5 8.406C42.595 1.656 54-7.047 54-21c0-10.5-6.906-15.594-15.453-21.75-4.64-3.297-9.594-6.156-10.203-10.656-.14-1.188 0-2.547.453-3.594 1.36-.75 3.297-1.344 6.75-1.344 4.953 0 10.656 1.797 15.156 4.5l7.797-13.5c-5.094-3.61-12.906-6.453-22.5-6.453-15.594 0-27.75 7.5-27.75 20.844zm0 0"/></symbol><symbol id="aD" overflow="visible"><path d="M5.25-57.75h10.344L10.5-19.047C8.703-5.547 14.547 1.656 25.656 1.656c10.5 0 21-4.5 25.938-7.953l-3.75-11.547C44.406-16.656 38.406-15 33.75-15c-2.844-.453-3.75-3.156-3-8.547l4.5-34.203h20.406l1.797-14.406H37.047l2.86-21.594h-14.11L18-72.156l-11.094 1.5zm0 0"/></symbol><symbol id="aE" overflow="visible"><path d="M64.953-1.047c1.344-17.86 1.953-24.453 2.703-30.453l5.39-40.656H53.25L47.094-24.75c-5.844 5.703-12.594 9.594-18.75 10.203-1.938-.61-3-4.953-2.094-11.406l6.156-46.5L12.594-72 6-21.906c-1.953 15 2.094 24 15.75 24 9.156 0 18.156-5.25 25.656-13.188l1.938 12zm0 0"/></symbol><symbol id="aF" overflow="visible"><path d="M50.844-72.156c-.594 18.453-8.39 36.906-18.438 53.703h-.75l-.75-14.094-4.203-39.61H7.047c-.453 2.563-.297 5.704.156 8.563L17.406.156l18.75-.312C57.75-25.203 69.75-52.046 69.75-67.953v-4.203zm0 0"/></symbol></defs><g><g fill="rgb(34.509277%,54.902649%,56.863403%)"><use x="15" xlink:href="#a" y="584"/><use x="103.2" xlink:href="#b" y="584"/></g><use x="188.85" xlink:href="#c" y="584" fill="rgb(34.509277%,54.902649%,56.863403%)"/><g fill="rgb(34.509277%,54.902649%,56.863403%)"><use x="262.2" xlink:href="#d" y="584"/><use x="342.3" xlink:href="#e" y="584"/></g><g fill="rgb(34.509277%,54.902649%,56.863403%)"><use x="410.7" xlink:href="#f" y="584"/><use x="482.25" xlink:href="#g" y="584"/><use x="566.25" xlink:href="#h" y="584"/><use x="653.4" xlink:href="#i" y="584"/><use x="701.1" xlink:href="#j" y="584"/><use x="782.85" xlink:href="#k" y="584"/><use x="858.6" xlink:href="#l" y="584"/></g><use x="945" xlink:href="#m" y="584" fill="rgb(34.509277%,54.902649%,56.863403%)"/><use x="1020.3" xlink:href="#n" y="584" fill="rgb(34.509277%,54.902649%,56.863403%)"/><use x="1090.65" xlink:href="#o" y="584" fill="rgb(34.509277%,54.902649%,56.863403%)"/><g fill="rgb(34.509277%,54.902649%,56.863403%)"><use x="1170.75" xlink:href="#p" y="584"/><use x="1270.95" xlink:href="#q" y="584"/><use x="1353.45" xlink:href="#r" y="584"/><use x="1441.8" xlink:href="#s" y="584"/><use x="1513.8" xlink:href="#t" y="584"/></g><g fill="rgb(34.509277%,54.902649%,56.863403%)"><use x="15" xlink:href="#u" y="136"/><use x="90.3" xlink:href="#v" y="136"/><use x="173.25" xlink:href="#w" y="136"/></g><g fill="rgb(34.509277%,54.902649%,56.863403%)"><use x="240.45" xlink:href="#x" y="136"/><use x="324" xlink:href="#y" y="136"/><use x="399.75" xlink:href="#z" y="136"/></g><g fill="rgb(34.509277%,54.902649%,56.863403%)"><use x="454.5" xlink:href="#A" y="136"/><use x="533.25" xlink:href="#B" y="136"/><use x="617.1" xlink:href="#C" y="136"/><use x="657" xlink:href="#D" y="136"/></g><use x="696.9" xlink:href="#E" y="136" fill="rgb(34.509277%,54.902649%,56.863403%)"/><g fill="rgb(34.509277%,54.902649%,56.863403%)"><use x="777.45" xlink:href="#F" y="136"/><use x="820.8" xlink:href="#G" y="136"/><use x="945.9" xlink:href="#H" y="136"/><use x="1029.9" xlink:href="#I" y="136"/><use x="1111.35" xlink:href="#J" y="136"/><use x="1195.05" xlink:href="#K" y="136"/><use x="1278" xlink:href="#L" y="136"/></g><g fill="rgb(34.509277%,54.902649%,56.863403%)"><use x="1335.9" xlink:href="#M" y="136"/><use x="1404" xlink:href="#N" y="136"/><use x="1464.9" xlink:href="#O" y="136"/><use x="1548" xlink:href="#P" y="136"/></g><g fill="rgb(56.079102%,80.784607%,9.803772%)"><use x="15" xlink:href="#Q" y="808"/><use x="103.2" xlink:href="#R" y="808"/></g><use x="180.45" xlink:href="#S" y="808" fill="rgb(56.079102%,80.784607%,9.803772%)"/><g fill="rgb(34.509277%,54.902649%,56.863403%)"><use x="254.7" xlink:href="#T" y="808"/><use x="330.75" xlink:href="#U" y="808"/></g><use x="397.35" xlink:href="#V" y="808" fill="rgb(56.079102%,80.784607%,9.803772%)"/><g fill="rgb(56.079102%,80.784607%,9.803772%)"><use x="463.5" xlink:href="#W" y="808"/><use x="542.55" xlink:href="#X" y="808"/></g><use x="619.05" xlink:href="#Y" y="808" fill="rgb(34.509277%,54.902649%,56.863403%)"/><g fill="rgb(56.079102%,80.784607%,9.803772%)"><use x="666.6" xlink:href="#Z" y="808"/><use x="744.9" xlink:href="#aa" y="808"/><use x="820.5" xlink:href="#ab" y="808"/></g><use x="905.4" xlink:href="#ac" y="808" fill="rgb(34.509277%,54.902649%,56.863403%)"/><use x="976.05" xlink:href="#ad" y="808" fill="rgb(56.079102%,80.784607%,9.803772%)"/><use x="1043.85" xlink:href="#ae" y="808" fill="rgb(34.509277%,54.902649%,56.863403%)"/><g fill="rgb(56.079102%,80.784607%,9.803772%)"><use x="1119.3" xlink:href="#af" y="808"/><use x="1217.85" xlink:href="#ag" y="808"/></g><use x="1294.2" xlink:href="#ah" y="808" fill="rgb(34.509277%,54.902649%,56.863403%)"/><use x="1376.85" xlink:href="#ai" y="808" fill="rgb(56.079102%,80.784607%,9.803772%)"/><use x="1446.3" xlink:href="#aj" y="808" fill="rgb(34.509277%,54.902649%,56.863403%)"/><use x="15" xlink:href="#ak" y="360" fill="rgb(56.079102%,80.784607%,9.803772%)"/><g fill="rgb(34.509277%,54.902649%,56.863403%)"><use x="91.8" xlink:href="#al" y="360"/><use x="168.9" xlink:href="#am" y="360"/></g><use x="231.3" xlink:href="#an" y="360" fill="rgb(34.509277%,54.902649%,56.863403%)"/><g fill="rgb(56.079102%,80.784607%,9.803772%)"><use x="308.55" xlink:href="#ao" y="360"/><use x="379.95" xlink:href="#ap" y="360"/></g><use x="431.4" xlink:href="#aq" y="360" fill="rgb(56.079102%,80.784607%,9.803772%)"/><g fill="rgb(34.509277%,54.902649%,56.863403%)"><use x="508.05" xlink:href="#ar" y="360"/><use x="586.8" xlink:href="#as" y="360"/><use x="625.2" xlink:href="#at" y="360"/><use x="663.45" xlink:href="#au" y="360"/><use x="737.85" xlink:href="#av" y="360"/><use x="779.4" xlink:href="#aw" y="360"/><use x="898.5" xlink:href="#ax" y="360"/><use x="977.55" xlink:href="#ay" y="360"/><use x="1054.2" xlink:href="#az" y="360"/><use x="1131.75" xlink:href="#aA" y="360"/><use x="1208.25" xlink:href="#aB" y="360"/><use x="1264.35" xlink:href="#aC" y="360"/><use x="1326.6" xlink:href="#aD" y="360"/><use x="1384.8" xlink:href="#aE" y="360"/></g><use x="1463.55" xlink:href="#aF" y="360" fill="rgb(56.079102%,80.784607%,9.803772%)"/></g></svg>