<?xml version='1.0' encoding='UTF-8'?>
<svg xmlns="http://www.w3.org/2000/svg" xmlns:xlink="http://www.w3.org/1999/xlink" width="600px" height="300px" viewBox="0 0 600 300" x="0px" y="0px" enable-background="new 0 0 600 300"><defs><symbol overflow="visible" id="5fa00255a"><path d="M23.3-12l4.57-4.83a25.87 25.87 0 00-6.34-5.87l-4.4 4.76A54.49 54.49 0 0123.3-12zm0 0"/></symbol><symbol overflow="visible" id="5fa00255b"><path d="M10.36-50H6.17v62.7h4.19zm0 0"/></symbol><symbol overflow="visible" id="5fa00255c"><path d="M21.77 0h4.06v-6.64c0-12-.95-19.95-5.13-33l-4.06 1.23c3.95 12.58 5.06 21 5.06 31.82zm0 0"/></symbol><symbol overflow="visible" id="5fa00255d"><path d="M13.94 0H18v-6.64a99.6 99.6 0 00-1.06-16c2 1.34 4.23 1.87 6.7 1.81 6.83-.17 11.42-5.1 11.42-13.87 0-1.3-.12-2.7-.36-4.3h-4.06c.19 1.13.19 2.17.19 3.13 0 6.23-2.19 9.87-7.24 10-4.65.1-7.36-2.6-9-8.07-.36-1.23-.59-2.12-1.71-5.7l-4.05 1.23c3.94 12.58 5.04 21 5.04 31.82zm0 0"/></symbol><symbol overflow="visible" id="5fa00255e"><path d="M9.4 0h4.13l-.06-6.64c0-5.77-.24-10.72-1-16a8.8 8.8 0 005.23 1.77 9.5 9.5 0 006.53-2.49 13 13 0 006.07 1.66c6.1 0 9.76-4.6 10.34-11.36.19-1.88.13-4-.17-6.06h-3.94c.11 1.18.24 2.24.24 3.3 0 5.76-2.18 9.41-6.24 9.41-1.23 0-2.6-.36-4.12-1.12.82-2.11 1.23-4.83 1.23-8 0-1.17-.05-2.34-.17-3.6h-3.94c.11 1.13.11 2.2.11 3.13 0 6.88-2 10-5.58 10.13-4 .17-6.3-2.13-8-8.07-.3-1.23-.6-2.12-1.7-5.7L4.3-38.41c3.93 12.58 5.06 21 5.1 31.82zm0 0"/></symbol><symbol overflow="visible" id="5fa00255f"><path d="M11.06 0h4.06v-6.64c0-4.72-.12-8.83-.71-13.06 2.46 1.87 6 2.57 9.95 2.57 4.17 0 9.64-.87 14.77-2.46l.04-4.05a46.62 46.62 0 01-6.7 1.47C26-21.23 22.23-24.7 22.23-29c0-3.53 2.6-6.13 6.94-6.13 1.66 0 3.47.36 5.42 1.07l1.05-3.81c-2.23-1-4.52-1.49-6.58-1.49-6.06 0-10.93 4.06-10.93 10.42 0 2.53.93 5.3 3 7.11-2.2-.1-3.9-.47-5.2-1.58-1.34-1.12-2.29-2.95-3.05-5.76-.76-3.19-1.7-6.66-2.88-10.47l-4.06 1.23C9.87-25.83 11-17.4 11-6.59zm0 0"/></symbol><symbol overflow="visible" id="5fa00255g"><path d="M16.4.13c2.13.04 4.73-.72 6.3-2.9A8.13 8.13 0 0029.06.17c5.07 0 8.77-3 8.77-9.64 0-8.53-8.13-20.66-18.7-30.89l-3.36 3.3c.87.83 1.7 1.7 2.53 2.6-7.13 8.1-11.07 17-11.07 24.46C7.23-4.23 10.41.06 16.41.13zm-.04-5c-3-.07-5.13-2-5.13-6.25 0-5.24 3.7-13.24 10.24-20.05 7 7.58 12.53 16.05 12.4 21.53-.04 3.4-1.64 4.77-4.4 4.77-3.17 0-4.77-1.77-4.83-5.43l-.05-2.06h-3.82l-.07 2.06c-.06 3.9-1.57 5.43-4.34 5.43zm0 0"/></symbol><symbol overflow="visible" id="5fa00255h"><path d="M11.47.47c3.83-7.11 7.36-11.77 12-15.3 3.36-2.53 6.94-4.3 12.94-6.64v-4.76l-8.05 3.1c-6 2.43-12.3-.93-12.3-6.1 0-3.41 2.58-6 7.07-6 2 0 4.4.53 7.17 1.82l1.06-3.76a16.97 16.97 0 00-8.3-2.36c-6.18 0-11.06 4.12-11.06 10.4 0 4.96 3.13 9.36 8.06 11-5.12 4.2-9.83 11.2-12.42 16.54zm0 0"/></symbol><symbol overflow="visible" id="5fa00255i"><path d="M3.83 0v-5.95H6.2v-.82H.45v.82h2.4V0zm0 0"/></symbol><symbol overflow="visible" id="5fa00255j"><path d="M5.75-2.23v-.43c0-1.6-.9-2.51-2.42-2.51S.87-4.16.87-2.48c0 1.71.91 2.62 2.5 2.62 1.43 0 2.07-.56 2.29-1.52l-.9-.09c-.18.61-.59.9-1.35.9-.94 0-1.52-.54-1.58-1.66zm-2.4-2.2c.93 0 1.43.5 1.48 1.55H1.84c.08-1.07.6-1.56 1.5-1.56zm0 0"/></symbol><symbol overflow="visible" id="5fa00255k"><path d="M1.83 0l1.42-2h.06l1.46 2H5.8L4-2.53l1.78-2.49H4.8L3.42-3.08h-.08l-1.4-1.94H.89l1.78 2.49L.84 0zm0 0"/></symbol><symbol overflow="visible" id="5fa00255l"><path d="M5.52-4.25v-.77H3.17v-1.56h-.81l-.14 1.56H.75v.77h1.47v2.4c0 1.3.48 1.94 1.84 1.94C4.6.1 5.14 0 5.55-.14L5.4-.91c-.32.13-.72.2-1.13.2-.8 0-1.1-.37-1.1-1.23v-2.31zm0 0"/></symbol><symbol overflow="visible" id="5fa00255m"><path d="M3.33-3.42c.47 0 .8-.27.8-.8 0-.51-.33-.8-.8-.8-.47 0-.8.29-.8.8 0 .53.33.8.8.8zm0 3.5c.47 0 .8-.27.8-.78 0-.53-.33-.82-.8-.82-.47 0-.8.29-.8.82 0 .51.33.78.8.78zm0 0"/></symbol><symbol overflow="visible" id="5fa00255v"><path d="M5.95-6.77H1.1V0h.99v-2.92H5.3v-.77H2.08v-2.26h3.87zm0 0"/></symbol><symbol overflow="visible" id="5fa00255w"><path d="M2.83.14c.94 0 1.5-.39 1.81-.95h.08l.1.81h.76v-3.38c0-1.23-.69-1.8-2.13-1.8-1.43 0-2.03.65-2.18 1.6l.93.1c.11-.6.44-.93 1.22-.93.85 0 1.22.32 1.22 1.04v.34l-1.81.2C1.6-2.7 1.1-2.17 1.1-1.28c0 .92.64 1.42 1.72 1.42zm.25-.77c-.67 0-1.02-.28-1.02-.74 0-.44.28-.72 1-.82l1.58-.19v.41c0 .8-.6 1.34-1.56 1.34zm0 0"/></symbol><symbol overflow="visible" id="5fa00255x"><path d="M2.73.14c.9 0 1.43-.45 1.74-1.08h.06l.13.94h.8v-5.02h-.94v2.7c0 .98-.57 1.62-1.46 1.62-.75 0-1.1-.4-1.1-1.22v-3.1h-.93v3.32c0 1.17.55 1.84 1.7 1.84zm0 0"/></symbol><symbol overflow="visible" id="5fa00255y"><path d="M5.08-5.16c-.94 0-1.58.43-1.9 1.3h-.09l-.07-1.16H1.05v.77h1.1v3.48H.96V0h3.96v-.77H3.1v-1.46c0-1.36.6-2.05 1.83-2.05.4 0 .76.08 1.1.17l.15-.87c-.33-.11-.7-.18-1.11-.18zm0 0"/></symbol><symbol overflow="visible" id="5fa00255z"><path d="M3.9.14c1.48 0 2.18-.98 2.18-2.64 0-1.67-.7-2.66-2.17-2.66-.91 0-1.49.41-1.79 1h-.06v-2.98h-.95V0h.81l.11-.9h.06c.29.63.82 1.04 1.82 1.04zm-.32-.8c-1.08 0-1.55-.8-1.55-1.84 0-1.06.47-1.86 1.55-1.86 1.1 0 1.51.61 1.51 1.86S4.64-.66 3.58-.66zm0 0"/></symbol><symbol overflow="visible" id="5fa00255A"><path d="M3.92-7.14H1.36v.76h1.6v5.61H1.15V0H5.7v-.77H3.92zm0 0"/></symbol><symbol overflow="visible" id="5fa00255B"><path d="M.92-6.77V0h.99v-2.27h1.68c1.58 0 2.38-.65 2.38-2.2v-.14c0-1.51-.8-2.16-2.34-2.16zM5-4.47c0 1.05-.42 1.45-1.58 1.45H1.91v-2.96h1.51C4.58-5.98 5-5.66 5-4.61zm0 0"/></symbol><symbol overflow="visible" id="5fa00255C"><path d="M3.36.16c1.4 0 2.2-.6 2.2-1.57 0-.89-.54-1.22-1.47-1.39L3-3c-.67-.14-.86-.33-.86-.73 0-.5.4-.74 1.17-.74.83 0 1.19.27 1.27.8l.9-.05c-.12-1-.8-1.47-2.17-1.47-1.34 0-2.1.53-2.1 1.5 0 .81.45 1.22 1.52 1.44l1.04.2c.56.11.87.24.87.72 0 .52-.45.78-1.28.78-.95 0-1.36-.28-1.42-.87l-.9.06C1.07-.36 1.8.16 3.35.16zm0 0"/></symbol><symbol overflow="visible" id="5fa00255D"><path d="M3.58-5.81c.42 0 .72-.22.72-.67 0-.44-.3-.68-.72-.68-.44 0-.72.24-.72.68 0 .45.28.67.72.67zm.5.8H1.52v.76h1.6v3.48h-1.8V0h4.46v-.77h-1.7zm0 0"/></symbol><symbol overflow="visible" id="5fa00255E"><path d="M2.16 0v-2.67c0-.99.59-1.63 1.46-1.63.74 0 1.07.38 1.07 1.22V0h.95v-3.31c0-1.2-.56-1.85-1.67-1.85-.92 0-1.49.46-1.77 1.08h-.06l-.12-.94H1.2V0zm0 0"/></symbol><symbol overflow="visible" id="5fa00255F"><path d="M1.63 0v-2.9c0-.8.15-1.4.71-1.4.41 0 .55.3.55.88V0h.95v-2.9c0-.8.18-1.4.72-1.4.4 0 .57.3.57.88V0h.95v-3.63c0-.92-.28-1.53-1.11-1.53-.63 0-.95.41-1.1.9h-.06c-.1-.52-.44-.9-1.08-.9-.6 0-.93.41-1.06.9H1.6l-.23-.76H.67V0zm0 0"/></symbol><symbol overflow="visible" id="5fa00255G"><path d="M1.45-2.95c0 2.56 1.08 4.37 3.67 4.84l.11-.67C3.28.86 2.43-.75 2.43-2.95s.85-3.82 2.8-4.16l-.1-.69c-2.6.49-3.68 2.3-3.68 4.85zm0 0"/></symbol><symbol overflow="visible" id="5fa00255H"><path d="M1.45-7.1c1.96.33 2.8 1.94 2.8 4.15 0 2.2-.84 3.8-2.8 4.17l.11.67c2.58-.47 3.67-2.28 3.67-4.84 0-2.55-1.09-4.36-3.67-4.85zm0 0"/></symbol><symbol overflow="visible" id="5fa00255o"><path d="M1.38-1.45l.68-.68L1.2-3l-.67.67zm0 0"/></symbol><symbol overflow="visible" id="5fa00255p"><path d="M1.14 0h.66c0-2.92-.1-3.38-.57-5.03L.52-5c.53 1.6.62 1.97.62 5zm0 0"/></symbol><symbol overflow="visible" id="5fa00255q"><path d="M1.14 0h.66c0-1.28-.02-2.08-.08-2.72.2.06.42.1.6.1 1 0 1.46-.66 1.46-1.77 0-.2-.01-.42-.05-.64l-.65.06c.03.25.04.45.04.63 0 .65-.21.96-.8.96-.52 0-.68-.09-.84-.75l-.25-.9L.52-5c.53 1.6.62 1.97.62 5zm0 0"/></symbol><symbol overflow="visible" id="5fa00255r"><path d="M1.14 0h.66c0-1.28-.02-2.08-.08-2.72.2.06.42.1.6.1.26 0 .48-.07.66-.2.24.12.63.2.82.2.84 0 1.22-.66 1.22-1.77 0-.19-.02-.42-.04-.64l-.6.06.01.47c0 .77-.14 1.13-.6 1.13-.15 0-.27-.02-.37-.05.1-.27.14-.58.14-.97 0-.2-.01-.42-.04-.64l-.66.06c.02.25.05.45.05.63 0 .65-.18.96-.6.96-.51 0-.67-.09-.83-.75l-.25-.9L.52-5c.53 1.6.62 1.97.62 5zm0 0"/></symbol><symbol overflow="visible" id="5fa00255s"><path d="M1.14 0h.66c0-.92-.02-1.6-.03-2.16.21.04.45.05.71.05.66 0 1.43-.08 2.29-.25L4.84-3c-.53.13-1.32.19-1.56.2-.08 0-.08 0-.12-.06-.1-.14-.32-.48-.32-.86 0-.45.29-.64.7-.64.21 0 .48.06.74.16l.17-.64a2.7 2.7 0 00-.93-.2c-.77 0-1.32.46-1.32 1.35 0 .3.08.64.24.9-.24 0-.47 0-.66-.04-.06 0-.06 0-.08-.1a11.9 11.9 0 00-.47-2.1L.52-5c.53 1.6.62 1.97.62 5zm0 0"/></symbol><symbol overflow="visible" id="5fa00255t"><path d="M1.72 0c.25 0 .58-.03.81-.22.3.19.58.22.81.22.52 0 1.18-.27 1.18-1.4 0-1.16-.85-2.23-2.57-3.68l-.47.52.36.33C1-3.2.52-2.43.52-1.43.52-.35 1.08 0 1.72 0zm0-.75c-.36 0-.56-.19-.56-.69 0-.72.3-1.36 1.2-2.37 1.22 1.04 1.5 1.87 1.5 2.42 0 .45-.11.64-.5.64-.5 0-.5-.1-.5-.5v-.36H2.2v.36c0 .4 0 .5-.48.5zm0 0"/></symbol><symbol overflow="visible" id="5fa00255u"><path d="M.52 0h.87a5.44 5.44 0 012.95-2.6l.08-.8-1.19.52c-.28.15-.48.16-.71.04a.88.88 0 01-.47-.75c0-.5.34-.74.9-.74a3 3 0 01.77.11l.08-.69a3.1 3.1 0 00-.9-.14c-.88 0-1.54.49-1.54 1.49 0 .58.33 1.12.81 1.4C1.72-1.75 1.13-1 .52 0zm0 0"/></symbol></defs><use xlink:href="#5fa00255a" x="92.91176" y="150.5" fill="#fff"/><use xlink:href="#5fa00255b" x="137.9118" y="150.5" fill="#515151"/><use xlink:href="#5fa00255c" x="154.4412" y="150.5" fill="#fff"/><use xlink:href="#5fa00255b" x="199.4412" y="150.5" fill="#515151"/><use xlink:href="#5fa00255d" x="215.9706" y="150.5" fill="#fff"/><use xlink:href="#5fa00255b" x="260.9706" y="150.5" fill="#515151"/><use xlink:href="#5fa00255e" x="277.5" y="150.5" fill="#fff"/><use xlink:href="#5fa00255b" x="322.5" y="150.5" fill="#515151"/><use xlink:href="#5fa00255f" x="339.0294" y="150.5" fill="#fff"/><use xlink:href="#5fa00255b" x="384.0294" y="150.5" fill="#515151"/><use xlink:href="#5fa00255g" x="400.5588" y="150.5" fill="#fff"/><use xlink:href="#5fa00255b" x="445.5588" y="150.5" fill="#515151"/><use xlink:href="#5fa00255h" x="462.0882" y="150.5" fill="#fff"/><g fill="#fff"><use xlink:href="#5fa00255i" x="265.3222" y="252"/><use xlink:href="#5fa00255j" x="271.9892" y="252"/><use xlink:href="#5fa00255k" x="278.6562" y="252"/><use xlink:href="#5fa00255l" x="285.3232" y="252"/><use xlink:href="#5fa00255m" x="291.9902" y="252"/><use xlink:href="#5fa00255n" x="298.6572" y="252"/></g><use xlink:href="#5fa00255o" x="305.3222" y="252" fill="#fff"/><g fill="#fff"><use xlink:href="#5fa00255p" x="307.9" y="252"/><use xlink:href="#5fa00255q" x="310.219" y="252"/><use xlink:href="#5fa00255r" x="314.518" y="252"/><use xlink:href="#5fa00255s" x="320.057" y="252"/></g><use xlink:href="#5fa00255t" x="325.126" y="252" fill="#fff"/><use xlink:href="#5fa00255u" x="329.745" y="252" fill="#fff"/><g fill="#fff"><use xlink:href="#5fa00255v" x="166.6667" y="266"/><use xlink:href="#5fa00255j" x="173.3337" y="266"/><use xlink:href="#5fa00255w" x="180.0007" y="266"/><use xlink:href="#5fa00255l" x="186.6677" y="266"/><use xlink:href="#5fa00255x" x="193.3347" y="266"/><use xlink:href="#5fa00255y" x="200.0017" y="266"/><use xlink:href="#5fa00255j" x="206.6687" y="266"/><use xlink:href="#5fa00255m" x="213.3357" y="266"/><use xlink:href="#5fa00255n" x="220.0027" y="266"/><use xlink:href="#5fa00255i" x="226.6697" y="266"/><use xlink:href="#5fa00255w" x="233.3367" y="266"/><use xlink:href="#5fa00255z" x="240.0037" y="266"/><use xlink:href="#5fa00255x" x="246.6707" y="266"/><use xlink:href="#5fa00255A" x="253.3377" y="266"/><use xlink:href="#5fa00255w" x="260.0047" y="266"/><use xlink:href="#5fa00255y" x="266.6717" y="266"/><use xlink:href="#5fa00255n" x="273.3387" y="266"/><use xlink:href="#5fa00255B" x="280.0057" y="266"/><use xlink:href="#5fa00255j" x="286.6727" y="266"/><use xlink:href="#5fa00255y" x="293.3397" y="266"/><use xlink:href="#5fa00255C" x="300.0067" y="266"/><use xlink:href="#5fa00255D" x="306.6737" y="266"/><use xlink:href="#5fa00255w" x="313.3407" y="266"/><use xlink:href="#5fa00255E" x="320.0077" y="266"/><use xlink:href="#5fa00255n" x="326.6747" y="266"/><use xlink:href="#5fa00255E" x="333.3417" y="266"/><use xlink:href="#5fa00255x" x="340.0087" y="266"/><use xlink:href="#5fa00255F" x="346.6757" y="266"/><use xlink:href="#5fa00255j" x="353.3427" y="266"/><use xlink:href="#5fa00255y" x="360.0097" y="266"/><use xlink:href="#5fa00255w" x="366.6767" y="266"/><use xlink:href="#5fa00255A" x="373.3437" y="266"/><use xlink:href="#5fa00255C" x="380.0107" y="266"/><use xlink:href="#5fa00255n" x="386.6777" y="266"/><use xlink:href="#5fa00255G" x="393.3447" y="266"/><use xlink:href="#5fa00255l" x="400.0117" y="266"/><use xlink:href="#5fa00255E" x="406.6787" y="266"/><use xlink:href="#5fa00255x" x="413.3457" y="266"/><use xlink:href="#5fa00255F" x="420.0127" y="266"/><use xlink:href="#5fa00255H" x="426.6797" y="266"/></g></svg>