<?xml version='1.0' encoding='UTF-8'?>
<svg xmlns="http://www.w3.org/2000/svg" xmlns:xlink="http://www.w3.org/1999/xlink" width="600px" height="300px" viewBox="0 0 600 300" x="0px" y="0px" enable-background="new 0 0 600 300"><defs><symbol overflow="visible" id="d8cf62d6a"><path d="M24.23-37.7L46-46.94v-3.47l-21.77 9.28zm-5.46 49.58h16.7l.83-5.05H18.53c-4.6 0-10.4-.24-10.4-2.83 0-3.94 6.51-4 11.17-4h8.57c5.96 0 11.66-.17 13.3-4.94h.13C44.06-.83 47.06 0 50.4 0h.43v-5.06h-.6c-1.76 0-3-.47-4.17-1.47-1.47-1.3-2.76-3.4-4.65-6.53-3.53-5.58-6.47-9.47-12.58-16.3l19.53-8.23v-4.77l-24 10.19v4.1c3.4 3.6 6.77 7.43 9.23 10.77C36.36-13.6 37.7-11 37.7-9c0 3.36-3.23 3.94-8.34 3.94H17.53c-5.83 0-13.4 1.65-13.4 9.23 0 7.42 9.17 7.7 14.64 7.7zm0 0"/></symbol><symbol overflow="visible" id="d8cf62d6b"><path d="M8.83-27.17l3.3-3.7-4.3-3.83-3.3 3.7zM0 0h5.6c3.46 0 5.8-.83 7.17-2.53 1.23-1.53 1.7-3.64 1.7-6.24 0-3.1-.64-7.87-1.53-12.87l-4.24.7c.83 4 2.13 10.11 2.13 12.77 0 2.58-1 3.1-5.96 3.1H0c-1.7 0-2.13.84-2.13 2.6C-2.13-.7-1.7 0 0 0zm0 0"/></symbol><symbol overflow="visible" id="d8cf62d6c"><path d="M.13 15.23C8.87 10.64 13.59 7 14.46-1.17 15.7-.23 17.3 0 18.94 0h1.18v-5.06h-.71c-3.47 0-4.54-1.3-5-5.58L14-14.83l-4.13.47c.9 6 1.2 8.53 1.2 10.9 0 5.87-3.84 9.52-13.43 14.4zm0 0"/></symbol><symbol overflow="visible" id="d8cf62d6d"><path d="M0 0h5.6c3.46 0 5.8-.83 7.17-2.53 1.23-1.53 1.7-3.64 1.7-6.24 0-3.1-.64-7.87-1.53-12.87l-4.24.7c.83 4 2.13 10.11 2.13 12.77 0 2.58-1 3.1-5.96 3.1H0c-1.7 0-2.13.84-2.13 2.6C-2.13-.7-1.7 0 0 0zm6.47 13.17l3.3-3.76-4.3-3.82-3.34 3.7zm0 0"/></symbol><symbol overflow="visible" id="d8cf62d6f"><path d="M18.77 11.88h16.7l.83-5.05H18.53c-4.6 0-10.4-.24-10.4-2.83 0-3.94 6.51-4 11.17-4h8.06c3.47 0 5.77-.83 7.17-2.53 1.17-1.53 1.7-3.64 1.7-6.24 0-3.1-.64-7.87-1.59-12.87l-4.23.7c.89 4 2.12 10.11 2.12 12.77 0 2.58-1 3.1-5.89 3.1h-9.1C11.7-5.06 4.12-3.4 4.12 4.18c0 7.42 9.17 7.7 14.64 7.7zm5.3 9.95l3.1-3.42-4-3.54-3.05 3.49zm8.16 0l3.07-3.42-4-3.54-3.07 3.49zm-3.4 6.53l2.94-3.23-3.83-3.43-2.88 3.3zm0 0"/></symbol><symbol overflow="visible" id="d8cf62d6g"><path d="M6.06 15.3c7.47-2.24 12.11-5.07 14.82-8.77C23.13 3.41 24-.36 24-5.07c0-8.16-3.64-15.29-10.23-15.29-5.94 0-9.83 5.48-9.94 11.53C3.7-2.36 7.3 0 13.4 0c2.06 0 4.23-.3 6.65-.88-.47 4.29-4.12 8-15.7 11.47zM7.64-9.06c0-3.17 2.19-6.53 5.77-6.53 3.3 0 6.23 3.36 6.59 10.18-2.36.35-4.47.47-6.13.47-4.23 0-6.23-1.06-6.23-4.12zm0 0"/></symbol><symbol overflow="visible" id="d8cf62d6h"><path d="M.13 15.23C11.22 9.7 14.77 4.53 14.77-4c0-3.7-.7-8.17-1.77-13.53l-4.23.66c.46 2.1 1 4.34 1.4 6.34.53 2.83.9 5.23.9 7 0 5.47-2.43 8.89-13.43 14.47zm0 0"/></symbol><symbol overflow="visible" id="d8cf62d6i"><path d="M3.83 0v-5.95H6.2v-.82H.45v.82h2.4V0zm0 0"/></symbol><symbol overflow="visible" id="d8cf62d6j"><path d="M5.75-2.23v-.43c0-1.6-.9-2.51-2.42-2.51S.87-4.16.87-2.48c0 1.71.91 2.62 2.5 2.62 1.43 0 2.07-.56 2.29-1.52l-.9-.09c-.18.61-.59.9-1.35.9-.94 0-1.52-.54-1.58-1.66zm-2.4-2.2c.93 0 1.43.5 1.48 1.55H1.84c.08-1.07.6-1.56 1.5-1.56zm0 0"/></symbol><symbol overflow="visible" id="d8cf62d6k"><path d="M1.83 0l1.42-2h.06l1.46 2H5.8L4-2.53l1.78-2.49H4.8L3.42-3.08h-.08l-1.4-1.94H.89l1.78 2.49L.84 0zm0 0"/></symbol><symbol overflow="visible" id="d8cf62d6l"><path d="M5.52-4.25v-.77H3.17v-1.56h-.81l-.14 1.56H.75v.77h1.47v2.4c0 1.3.48 1.94 1.84 1.94C4.6.1 5.14 0 5.55-.14L5.4-.91c-.32.13-.72.2-1.13.2-.8 0-1.1-.37-1.1-1.23v-2.31zm0 0"/></symbol><symbol overflow="visible" id="d8cf62d6m"><path d="M3.33-3.42c.47 0 .8-.27.8-.8 0-.51-.33-.8-.8-.8-.47 0-.8.29-.8.8 0 .53.33.8.8.8zm0 3.5c.47 0 .8-.27.8-.78 0-.53-.33-.82-.8-.82-.47 0-.8.29-.8.82 0 .51.33.78.8.78zm0 0"/></symbol><symbol overflow="visible" id="d8cf62d6v"><path d="M5.95-6.77H1.1V0h.99v-2.92H5.3v-.77H2.08v-2.26h3.87zm0 0"/></symbol><symbol overflow="visible" id="d8cf62d6w"><path d="M2.83.14c.94 0 1.5-.39 1.81-.95h.08l.1.81h.76v-3.38c0-1.23-.69-1.8-2.13-1.8-1.43 0-2.03.65-2.18 1.6l.93.1c.11-.6.44-.93 1.22-.93.85 0 1.22.32 1.22 1.04v.34l-1.81.2C1.6-2.7 1.1-2.17 1.1-1.28c0 .92.64 1.42 1.72 1.42zm.25-.77c-.67 0-1.02-.28-1.02-.74 0-.44.28-.72 1-.82l1.58-.19v.41c0 .8-.6 1.34-1.56 1.34zm0 0"/></symbol><symbol overflow="visible" id="d8cf62d6x"><path d="M2.73.14c.9 0 1.43-.45 1.74-1.08h.06l.13.94h.8v-5.02h-.94v2.7c0 .98-.57 1.62-1.46 1.62-.75 0-1.1-.4-1.1-1.22v-3.1h-.93v3.32c0 1.17.55 1.84 1.7 1.84zm0 0"/></symbol><symbol overflow="visible" id="d8cf62d6y"><path d="M5.08-5.16c-.94 0-1.58.43-1.9 1.3h-.09l-.07-1.16H1.05v.77h1.1v3.48H.96V0h3.96v-.77H3.1v-1.46c0-1.36.6-2.05 1.83-2.05.4 0 .76.08 1.1.17l.15-.87c-.33-.11-.7-.18-1.11-.18zm0 0"/></symbol><symbol overflow="visible" id="d8cf62d6z"><path d="M3.33.14c1.7 0 2.51-.86 2.51-2.69v-4.22h-.98v4.2c0 1.41-.47 1.9-1.53 1.9S1.8-1.16 1.8-2.57v-4.2H.8v4.22c0 1.83.81 2.7 2.52 2.7zm0 0"/></symbol><symbol overflow="visible" id="d8cf62d6A"><path d="M2.84.14C3.8.14 4.33-.26 4.6-.9h.07L4.8 0h.76v-7.14h-.95v2.95h-.08c-.28-.6-.86-.97-1.67-.97-1.48 0-2.27.99-2.27 2.64C.6-.84 1.36.14 2.84.14zm.22-.8c-.98 0-1.48-.59-1.48-1.84s.5-1.86 1.48-1.86c1.13 0 1.58.8 1.58 1.86S4.2-.66 3.06-.66zm0 0"/></symbol><symbol overflow="visible" id="d8cf62d6B"><path d="M3.34.14c1.43 0 2.13-.66 2.25-1.78l-.89-.1c-.1.7-.5 1.08-1.34 1.08-1.03 0-1.52-.64-1.52-1.84 0-1.23.47-1.86 1.52-1.86.84 0 1.23.36 1.34 1.08l.9-.1c-.13-1.09-.82-1.78-2.26-1.78-1.56 0-2.46.97-2.46 2.66 0 1.66.9 2.64 2.46 2.64zm0 0"/></symbol><symbol overflow="visible" id="d8cf62d6C"><path d="M3.33.14c1.62 0 2.5-.95 2.5-2.66 0-1.68-.88-2.64-2.5-2.64-1.63 0-2.5.96-2.5 2.64 0 1.7.87 2.66 2.5 2.66zm0-.77c-1.06 0-1.52-.6-1.52-1.89 0-1.28.46-1.87 1.52-1.87 1.08 0 1.53.6 1.53 1.87 0 1.29-.45 1.9-1.53 1.9zm0 0"/></symbol><symbol overflow="visible" id="d8cf62d6D"><path d="M2.16 0v-2.67c0-.99.59-1.63 1.46-1.63.74 0 1.07.38 1.07 1.22V0h.95v-3.31c0-1.2-.56-1.85-1.67-1.85-.92 0-1.49.46-1.77 1.08h-.06l-.12-.94H1.2V0zm0 0"/></symbol><symbol overflow="visible" id="d8cf62d6E"><path d="M3.92-7.14H1.36v.76h1.6v5.61H1.15V0H5.7v-.77H3.92zm0 0"/></symbol><symbol overflow="visible" id="d8cf62d6F"><path d="M3.36.16c1.4 0 2.2-.6 2.2-1.57 0-.89-.54-1.22-1.47-1.39L3-3c-.67-.14-.86-.33-.86-.73 0-.5.4-.74 1.17-.74.83 0 1.19.27 1.27.8l.9-.05c-.12-1-.8-1.47-2.17-1.47-1.34 0-2.1.53-2.1 1.5 0 .81.45 1.22 1.52 1.44l1.04.2c.56.11.87.24.87.72 0 .52-.45.78-1.28.78-.95 0-1.36-.28-1.42-.87l-.9.06C1.07-.36 1.8.16 3.35.16zm0 0"/></symbol><symbol overflow="visible" id="d8cf62d6G"><path d="M1.45-2.95c0 2.56 1.08 4.37 3.67 4.84l.11-.67C3.28.86 2.43-.75 2.43-2.95s.85-3.82 2.8-4.16l-.1-.69c-2.6.49-3.68 2.3-3.68 4.85zm0 0"/></symbol><symbol overflow="visible" id="d8cf62d6H"><path d="M3.16 2.03c1.67 0 2.4-.86 2.4-2.51v-4.54h-.81l-.13.91h-.06c-.26-.58-.8-1.05-1.73-1.05-1.42 0-2.24 1-2.24 2.52 0 1.6.75 2.56 2.2 2.56.94 0 1.5-.5 1.77-1.03h.05v.72c0 1.17-.42 1.67-1.45 1.67-.93 0-1.3-.34-1.41-.89L.8.5c.12.96.87 1.54 2.36 1.54zM3.06-.8c-.98 0-1.48-.57-1.48-1.82 0-1.13.5-1.75 1.48-1.75 1.06 0 1.58.76 1.58 1.75 0 .95-.56 1.82-1.58 1.82zm0 0"/></symbol><symbol overflow="visible" id="d8cf62d6I"><path d="M1.45-7.1c1.96.33 2.8 1.94 2.8 4.15 0 2.2-.84 3.8-2.8 4.17l.11.67c2.58-.47 3.67-2.28 3.67-4.84 0-2.55-1.09-4.36-3.67-4.85zm0 0"/></symbol><symbol overflow="visible" id="d8cf62d6o"><path d="M2.73-5.02L4.6-5.9v-.53l-1.86.88zm-.71 6.8h2.75l.06-.76H1.78c-.4 0-.69-.07-.69-.35C1.1.28 1.3 0 2 0H6v-.75h-.64l.01-.2c0-.66-.68-1.58-1.9-2.82l2.28-1.06v-.73L2.73-4.14v.69C4.03-2.27 4.7-1.48 4.7-.95c0 .1-.06.2-.4.2H2.1C1.04-.75.43-.25.43.73c0 1.05.94 1.05 1.58 1.05zm0 0"/></symbol><symbol overflow="visible" id="d8cf62d6p"><path d="M1.4-3.69l.38-.5-.64-.48-.39.5zM0 0h1c.8 0 1.08-.34 1.08-1.1v-.26L1.94-3l-.67.06.15 1.61.02.31c0 .27-.1.27-.52.27H0c-.3 0-.38.13-.38.36 0 .27.08.39.38.39zm0 0"/></symbol><symbol overflow="visible" id="d8cf62d6q"><path d="M.19 1.77c1.3 0 1.8-.65 1.92-1.8.17.03.34.03.47.03h.17v-.75h-.5c-.1 0-.1 0-.1-.1 0-.54-.04-1.15-.1-1.84l-.67.06c.06.68.12 1.41.12 1.97 0 1.25-.33 1.7-1.5 1.7-.08 0-.14 0-.22-.02l.08.73.33.02zm0 0"/></symbol><symbol overflow="visible" id="d8cf62d6r"><path d="M0 0h1c.8 0 1.08-.34 1.08-1.1v-.26L1.94-3l-.67.06.15 1.61.02.31c0 .27-.1.27-.52.27H0c-.3 0-.38.13-.38.36 0 .27.08.39.38.39zm.98 1.73l.38-.5-.64-.5-.38.52zm0 0"/></symbol><symbol overflow="visible" id="d8cf62d6s"><path d="M2.02 1.78h2.75l.06-.76H1.78c-.4 0-.69-.07-.69-.35C1.1.28 1.3 0 2 0h1.59c.8 0 1.1-.34 1.1-1.1 0-.07 0-.17-.02-.26L4.52-3l-.66.06a639.59 639.59 0 01.16 1.92c0 .27-.1.27-.52.27H2.1C1.04-.75.43-.25.43.73c0 1.05.94 1.05 1.58 1.05zm.76 1.52l.36-.47.6.47.35-.49-.6-.45-.35.45-.6-.45-.37.47zm.64.84l.35-.44-.58-.43-.33.45zm0 0"/></symbol><symbol overflow="visible" id="d8cf62d6t"><path d="M1.08 1.78c1.54 0 2.1-.95 2.1-2.56v-.2c0-1.07-.38-1.94-1.32-1.94-.92 0-1.42.75-1.42 1.64 0 .97.54 1.3 1.51 1.3.18 0 .36-.02.6-.04-.16.79-.75 1.05-1.53 1.05-.16 0-.33 0-.5-.03l.07.73c.16.04.33.05.49.05zm.89-2.5c-.61 0-.94-.12-.94-.6 0-.5.27-.85.75-.85.81 0 .83.95.81 1.33-.01.09-.01.09-.1.1l-.52.02zm0 0"/></symbol><symbol overflow="visible" id="d8cf62d6u"><path d="M-.14 1.75l.33.02c1.56 0 1.95-.94 1.95-2.58 0-.55-.03-1.17-.1-1.88l-.67.06c.07.68.13 1.41.13 1.97 0 1.25-.33 1.7-1.5 1.7-.08 0-.14 0-.22-.02zm0 0"/></symbol></defs><g fill="#515151"><use xlink:href="#d8cf62d6a" x="190.7941" y="150.5"/><use xlink:href="#d8cf62d6b" x="241.6181" y="150.5"/></g><g fill="#515151"><use xlink:href="#d8cf62d6c" x="255.4821" y="150.5"/><use xlink:href="#d8cf62d6d" x="275.5861" y="150.5"/></g><use xlink:href="#d8cf62d6e" x="293.8501" y="150.5" fill="#515151"/><g fill="#fff"><use xlink:href="#d8cf62d6f" x="308.2647" y="150.5"/><use xlink:href="#d8cf62d6e" x="348.3207" y="150.5"/></g><use xlink:href="#d8cf62d6g" x="362.6967" y="150.5" fill="#fff"/><use xlink:href="#d8cf62d6h" x="390.6176" y="150.5" fill="#515151"/><g fill="#fff"><use xlink:href="#d8cf62d6i" x="260.8778" y="252"/><use xlink:href="#d8cf62d6j" x="267.5448" y="252"/><use xlink:href="#d8cf62d6k" x="274.2118" y="252"/><use xlink:href="#d8cf62d6l" x="280.8788" y="252"/><use xlink:href="#d8cf62d6m" x="287.5458" y="252"/><use xlink:href="#d8cf62d6n" x="294.2128" y="252"/></g><g fill="#fff"><use xlink:href="#d8cf62d6o" x="300.8778" y="252"/><use xlink:href="#d8cf62d6p" x="306.8778" y="252"/></g><use xlink:href="#d8cf62d6q" x="309.0928" y="252" fill="#fff"/><use xlink:href="#d8cf62d6r" x="311.8488" y="252" fill="#fff"/><use xlink:href="#d8cf62d6s" x="321.0444" y="252" fill="#fff"/><g fill="#fff"><use xlink:href="#d8cf62d6t" x="332.8259" y="252"/><use xlink:href="#d8cf62d6u" x="336.5299" y="252"/></g><g fill="#fff"><use xlink:href="#d8cf62d6v" x="133.3333" y="266"/><use xlink:href="#d8cf62d6j" x="140.0003" y="266"/><use xlink:href="#d8cf62d6w" x="146.6673" y="266"/><use xlink:href="#d8cf62d6l" x="153.3343" y="266"/><use xlink:href="#d8cf62d6x" x="160.0013" y="266"/><use xlink:href="#d8cf62d6y" x="166.6683" y="266"/><use xlink:href="#d8cf62d6j" x="173.3353" y="266"/><use xlink:href="#d8cf62d6m" x="180.0023" y="266"/><use xlink:href="#d8cf62d6n" x="186.6693" y="266"/><use xlink:href="#d8cf62d6z" x="193.3363" y="266"/><use xlink:href="#d8cf62d6y" x="200.0033" y="266"/><use xlink:href="#d8cf62d6A" x="206.6703" y="266"/><use xlink:href="#d8cf62d6x" x="213.3373" y="266"/><use xlink:href="#d8cf62d6n" x="220.0043" y="266"/><use xlink:href="#d8cf62d6B" x="226.6713" y="266"/><use xlink:href="#d8cf62d6C" x="233.3383" y="266"/><use xlink:href="#d8cf62d6D" x="240.0053" y="266"/><use xlink:href="#d8cf62d6l" x="246.6723" y="266"/><use xlink:href="#d8cf62d6j" x="253.3393" y="266"/><use xlink:href="#d8cf62d6k" x="260.0063" y="266"/><use xlink:href="#d8cf62d6l" x="266.6733" y="266"/><use xlink:href="#d8cf62d6x" x="273.3403" y="266"/><use xlink:href="#d8cf62d6w" x="280.0073" y="266"/><use xlink:href="#d8cf62d6E" x="286.6743" y="266"/><use xlink:href="#d8cf62d6n" x="293.3413" y="266"/><use xlink:href="#d8cf62d6w" x="300.0083" y="266"/><use xlink:href="#d8cf62d6E" x="306.6753" y="266"/><use xlink:href="#d8cf62d6l" x="313.3423" y="266"/><use xlink:href="#d8cf62d6j" x="320.0093" y="266"/><use xlink:href="#d8cf62d6y" x="326.6763" y="266"/><use xlink:href="#d8cf62d6D" x="333.3433" y="266"/><use xlink:href="#d8cf62d6w" x="340.0103" y="266"/><use xlink:href="#d8cf62d6l" x="346.6773" y="266"/><use xlink:href="#d8cf62d6j" x="353.3443" y="266"/><use xlink:href="#d8cf62d6F" x="360.0113" y="266"/><use xlink:href="#d8cf62d6n" x="366.6783" y="266"/><use xlink:href="#d8cf62d6G" x="373.3453" y="266"/><use xlink:href="#d8cf62d6F" x="380.0123" y="266"/><use xlink:href="#d8cf62d6j" x="386.6793" y="266"/><use xlink:href="#d8cf62d6l" x="393.3463" y="266"/><use xlink:href="#d8cf62d6n" x="400.0133" y="266"/><use xlink:href="#d8cf62d6E" x="406.6803" y="266"/><use xlink:href="#d8cf62d6w" x="413.3473" y="266"/><use xlink:href="#d8cf62d6D" x="420.0143" y="266"/><use xlink:href="#d8cf62d6H" x="426.6813" y="266"/><use xlink:href="#d8cf62d6x" x="433.3483" y="266"/><use xlink:href="#d8cf62d6w" x="440.0153" y="266"/><use xlink:href="#d8cf62d6H" x="446.6823" y="266"/><use xlink:href="#d8cf62d6j" x="453.3493" y="266"/><use xlink:href="#d8cf62d6I" x="460.0163" y="266"/></g></svg>