<?xml version='1.0' encoding='UTF-8'?>
<svg xmlns="http://www.w3.org/2000/svg" xmlns:xlink="http://www.w3.org/1999/xlink" width="600px" height="300px" viewBox="0 0 600 300" x="0px" y="0px" enable-background="new 0 0 600 300"><defs><symbol overflow="visible" id="064504daa"><path d="M23.3-12l4.57-4.83a25.87 25.87 0 00-6.34-5.87l-4.4 4.76A54.49 54.49 0 0123.3-12zm0 0"/></symbol><symbol overflow="visible" id="064504dab"><path d="M10.36-50H6.17v62.7h4.19zm0 0"/></symbol><symbol overflow="visible" id="064504dac"><path d="M21.77 0h4.06v-6.64c0-12-.95-19.95-5.13-33l-4.06 1.23c3.95 12.58 5.06 21 5.06 31.82zm0 0"/></symbol><symbol overflow="visible" id="064504dad"><path d="M13.94 0H18v-6.64a99.6 99.6 0 00-1.06-16c2 1.34 4.23 1.87 6.7 1.81 6.83-.17 11.42-5.1 11.42-13.87 0-1.3-.12-2.7-.36-4.3h-4.06c.19 1.13.19 2.17.19 3.13 0 6.23-2.19 9.87-7.24 10-4.65.1-7.36-2.6-9-8.07-.36-1.23-.59-2.12-1.71-5.7l-4.05 1.23c3.94 12.58 5.04 21 5.04 31.82zm0 0"/></symbol><symbol overflow="visible" id="064504dae"><path d="M9.4 0h4.13l-.06-6.64c0-5.77-.24-10.72-1-16a8.8 8.8 0 005.23 1.77 9.5 9.5 0 006.53-2.49 13 13 0 006.07 1.66c6.1 0 9.76-4.6 10.34-11.36.19-1.88.13-4-.17-6.06h-3.94c.11 1.18.24 2.24.24 3.3 0 5.76-2.18 9.41-6.24 9.41-1.23 0-2.6-.36-4.12-1.12.82-2.11 1.23-4.83 1.23-8 0-1.17-.05-2.34-.17-3.6h-3.94c.11 1.13.11 2.2.11 3.13 0 6.88-2 10-5.58 10.13-4 .17-6.3-2.13-8-8.07-.3-1.23-.6-2.12-1.7-5.7L4.3-38.41c3.93 12.58 5.06 21 5.1 31.82zm0 0"/></symbol><symbol overflow="visible" id="064504daf"><path d="M11.53 0h4.11v-4.77c0-17.64-2.64-23.36-2.4-28.53 4.4.66 11.06 8.07 13.59 11.13 2.87-3.53 6.3-7.66 10.7-12.42l-3-2.77c-2.6 2.77-5.4 5.95-7.66 8.83-3.8-4.47-9-9-13.51-9.88-2.6.88-4.9 4.18-4.48 7.7 2.24 12.07 2.65 18.12 2.65 25.88zm0 0"/></symbol><symbol overflow="visible" id="064504dag"><path d="M16.4.13c2.13.04 4.73-.72 6.3-2.9A8.13 8.13 0 0029.06.17c5.07 0 8.77-3 8.77-9.64 0-8.53-8.13-20.66-18.7-30.89l-3.36 3.3c.87.83 1.7 1.7 2.53 2.6-7.13 8.1-11.07 17-11.07 24.46C7.23-4.23 10.41.06 16.41.13zm-.04-5c-3-.07-5.13-2-5.13-6.25 0-5.24 3.7-13.24 10.24-20.05 7 7.58 12.53 16.05 12.4 21.53-.04 3.4-1.64 4.77-4.4 4.77-3.17 0-4.77-1.77-4.83-5.43l-.05-2.06h-3.82l-.07 2.06c-.06 3.9-1.57 5.43-4.34 5.43zm0 0"/></symbol><symbol overflow="visible" id="064504dah"><path d="M29.3 0h4.06c-1.23-9.4-2.06-14.94-2.06-24.36 0-2.58.06-5.4.23-8.64l.11-4.17-.58-.47c-3.12.34-6.53.58-10 .58-3.6 0-7.3-.24-11-.77L9.87-33a78.64 78.64 0 0017.72.47c-.23 3.3-.42 6.4-.42 9.4 0 7.96.9 14.83 2.13 23.13zm0 0"/></symbol><symbol overflow="visible" id="064504dai"><path d="M3.83 0v-5.95H6.2v-.82H.45v.82h2.4V0zm0 0"/></symbol><symbol overflow="visible" id="064504daj"><path d="M5.75-2.23v-.43c0-1.6-.9-2.51-2.42-2.51S.87-4.16.87-2.48c0 1.71.91 2.62 2.5 2.62 1.43 0 2.07-.56 2.29-1.52l-.9-.09c-.18.61-.59.9-1.35.9-.94 0-1.52-.54-1.58-1.66zm-2.4-2.2c.93 0 1.43.5 1.48 1.55H1.84c.08-1.07.6-1.56 1.5-1.56zm0 0"/></symbol><symbol overflow="visible" id="064504dak"><path d="M1.83 0l1.42-2h.06l1.46 2H5.8L4-2.53l1.78-2.49H4.8L3.42-3.08h-.08l-1.4-1.94H.89l1.78 2.49L.84 0zm0 0"/></symbol><symbol overflow="visible" id="064504dal"><path d="M5.52-4.25v-.77H3.17v-1.56h-.81l-.14 1.56H.75v.77h1.47v2.4c0 1.3.48 1.94 1.84 1.94C4.6.1 5.14 0 5.55-.14L5.4-.91c-.32.13-.72.2-1.13.2-.8 0-1.1-.37-1.1-1.23v-2.31zm0 0"/></symbol><symbol overflow="visible" id="064504dam"><path d="M3.33-3.42c.47 0 .8-.27.8-.8 0-.51-.33-.8-.8-.8-.47 0-.8.29-.8.8 0 .53.33.8.8.8zm0 3.5c.47 0 .8-.27.8-.78 0-.53-.33-.82-.8-.82-.47 0-.8.29-.8.82 0 .51.33.78.8.78zm0 0"/></symbol><symbol overflow="visible" id="064504dav"><path d="M5.95-6.77H1.1V0h.99v-2.92H5.3v-.77H2.08v-2.26h3.87zm0 0"/></symbol><symbol overflow="visible" id="064504daw"><path d="M2.83.14c.94 0 1.5-.39 1.81-.95h.08l.1.81h.76v-3.38c0-1.23-.69-1.8-2.13-1.8-1.43 0-2.03.65-2.18 1.6l.93.1c.11-.6.44-.93 1.22-.93.85 0 1.22.32 1.22 1.04v.34l-1.81.2C1.6-2.7 1.1-2.17 1.1-1.28c0 .92.64 1.42 1.72 1.42zm.25-.77c-.67 0-1.02-.28-1.02-.74 0-.44.28-.72 1-.82l1.58-.19v.41c0 .8-.6 1.34-1.56 1.34zm0 0"/></symbol><symbol overflow="visible" id="064504dax"><path d="M2.73.14c.9 0 1.43-.45 1.74-1.08h.06l.13.94h.8v-5.02h-.94v2.7c0 .98-.57 1.62-1.46 1.62-.75 0-1.1-.4-1.1-1.22v-3.1h-.93v3.32c0 1.17.55 1.84 1.7 1.84zm0 0"/></symbol><symbol overflow="visible" id="064504day"><path d="M5.08-5.16c-.94 0-1.58.43-1.9 1.3h-.09l-.07-1.16H1.05v.77h1.1v3.48H.96V0h3.96v-.77H3.1v-1.46c0-1.36.6-2.05 1.83-2.05.4 0 .76.08 1.1.17l.15-.87c-.33-.11-.7-.18-1.11-.18zm0 0"/></symbol><symbol overflow="visible" id="064504daz"><path d="M3.9.14c1.48 0 2.18-.98 2.18-2.64 0-1.67-.7-2.66-2.17-2.66-.91 0-1.49.41-1.79 1h-.06v-2.98h-.95V0h.81l.11-.9h.06c.29.63.82 1.04 1.82 1.04zm-.32-.8c-1.08 0-1.55-.8-1.55-1.84 0-1.06.47-1.86 1.55-1.86 1.1 0 1.51.61 1.51 1.86S4.64-.66 3.58-.66zm0 0"/></symbol><symbol overflow="visible" id="064504daA"><path d="M3.92-7.14H1.36v.76h1.6v5.61H1.15V0H5.7v-.77H3.92zm0 0"/></symbol><symbol overflow="visible" id="064504daB"><path d="M3.33.14c1.7 0 2.51-.86 2.51-2.69v-4.22h-.98v4.2c0 1.41-.47 1.9-1.53 1.9S1.8-1.16 1.8-2.57v-4.2H.8v4.22c0 1.83.81 2.7 2.52 2.7zm0 0"/></symbol><symbol overflow="visible" id="064504daC"><path d="M2.84.14C3.8.14 4.33-.26 4.6-.9h.07L4.8 0h.76v-7.14h-.95v2.95h-.08c-.28-.6-.86-.97-1.67-.97-1.48 0-2.27.99-2.27 2.64C.6-.84 1.36.14 2.84.14zm.22-.8c-.98 0-1.48-.59-1.48-1.84s.5-1.86 1.48-1.86c1.13 0 1.58.8 1.58 1.86S4.2-.66 3.06-.66zm0 0"/></symbol><symbol overflow="visible" id="064504daD"><path d="M2.16 0v-2.67c0-.99.59-1.63 1.46-1.63.74 0 1.07.38 1.07 1.22V0h.95v-3.31c0-1.2-.56-1.85-1.67-1.85-.92 0-1.49.46-1.77 1.08h-.06l-.12-.94H1.2V0zm0 0"/></symbol><symbol overflow="visible" id="064504daE"><path d="M1.63 0v-2.9c0-.8.15-1.4.71-1.4.41 0 .55.3.55.88V0h.95v-2.9c0-.8.18-1.4.72-1.4.4 0 .57.3.57.88V0h.95v-3.63c0-.92-.28-1.53-1.11-1.53-.63 0-.95.41-1.1.9h-.06c-.1-.52-.44-.9-1.08-.9-.6 0-.93.41-1.06.9H1.6l-.23-.76H.67V0zm0 0"/></symbol><symbol overflow="visible" id="064504daF"><path d="M3.36.16c1.4 0 2.2-.6 2.2-1.57 0-.89-.54-1.22-1.47-1.39L3-3c-.67-.14-.86-.33-.86-.73 0-.5.4-.74 1.17-.74.83 0 1.19.27 1.27.8l.9-.05c-.12-1-.8-1.47-2.17-1.47-1.34 0-2.1.53-2.1 1.5 0 .81.45 1.22 1.52 1.44l1.04.2c.56.11.87.24.87.72 0 .52-.45.78-1.28.78-.95 0-1.36-.28-1.42-.87l-.9.06C1.07-.36 1.8.16 3.35.16zm0 0"/></symbol><symbol overflow="visible" id="064504daG"><path d="M1.45-2.95c0 2.56 1.08 4.37 3.67 4.84l.11-.67C3.28.86 2.43-.75 2.43-2.95s.85-3.82 2.8-4.16l-.1-.69c-2.6.49-3.68 2.3-3.68 4.85zm0 0"/></symbol><symbol overflow="visible" id="064504daH"><path d="M3.16 2.03c1.67 0 2.4-.86 2.4-2.51v-4.54h-.81l-.13.91h-.06c-.26-.58-.8-1.05-1.73-1.05-1.42 0-2.24 1-2.24 2.52 0 1.6.75 2.56 2.2 2.56.94 0 1.5-.5 1.77-1.03h.05v.72c0 1.17-.42 1.67-1.45 1.67-.93 0-1.3-.34-1.41-.89L.8.5c.12.96.87 1.54 2.36 1.54zM3.06-.8c-.98 0-1.48-.57-1.48-1.82 0-1.13.5-1.75 1.48-1.75 1.06 0 1.58.76 1.58 1.75 0 .95-.56 1.82-1.58 1.82zm0 0"/></symbol><symbol overflow="visible" id="064504daI"><path d="M3.33.14c1.62 0 2.5-.95 2.5-2.66 0-1.68-.88-2.64-2.5-2.64-1.63 0-2.5.96-2.5 2.64 0 1.7.87 2.66 2.5 2.66zm0-.77c-1.06 0-1.52-.6-1.52-1.89 0-1.28.46-1.87 1.52-1.87 1.08 0 1.53.6 1.53 1.87 0 1.29-.45 1.9-1.53 1.9zm0 0"/></symbol><symbol overflow="visible" id="064504daJ"><path d="M3.33.14c1.65 0 2.6-1.1 2.6-3.52S4.99-6.9 3.34-6.9C1.67-6.9.72-5.8.72-3.37c0 2.4.95 3.51 2.6 3.51zm0-.84c-1.13 0-1.6-.85-1.6-2.67 0-1.86.47-2.7 1.6-2.7 1.12 0 1.6.84 1.6 2.7 0 1.82-.48 2.67-1.6 2.67zM3.3-2.64c.38 0 .56-.28.56-.72 0-.44-.18-.7-.56-.7-.39 0-.56.26-.56.7 0 .44.17.72.56.72zm0 0"/></symbol><symbol overflow="visible" id="064504daK"><path d="M3.42.14c1.58 0 2.49-.86 2.49-2.3 0-1.42-.86-2.17-2.22-2.17-1.03 0-1.58.5-1.9 1.02h-.04c.03-1.63.4-2.77 1.73-2.77.91 0 1.24.44 1.36.96l.97-.11c-.23-.96-.86-1.68-2.33-1.68C1.84-6.9.86-5.86.86-3.1.86-.9 1.78.14 3.42.14zm.02-.78c-.9 0-1.47-.55-1.47-1.47 0-.9.7-1.47 1.53-1.47.92 0 1.47.52 1.47 1.47 0 .97-.6 1.47-1.53 1.47zm0 0"/></symbol><symbol overflow="visible" id="064504daL"><path d="M5.4-1.22c.43-.66.66-1.51.66-2.44l-.83-.09c0 .75-.14 1.4-.4 1.92l-1.7-1.83c.8-.42 1.39-.96 1.39-1.86 0-.87-.66-1.4-1.61-1.4-1.14 0-1.72.62-1.72 1.47 0 .72.47 1.3.83 1.68-.8.41-1.52.99-1.52 2.1C.5-.44 1.52.14 2.7.14c.9 0 1.64-.3 2.2-.78l.58.64h1.05zM2.86-6.25c.44 0 .82.23.82.73 0 .7-.47 1.11-1 1.41-.47-.53-.67-.92-.67-1.34 0-.47.3-.8.85-.8zM2.81-.62c-.83 0-1.42-.41-1.42-1.18 0-.76.5-1.18 1.05-1.5l1.94 2.1c-.4.37-.91.57-1.57.57zm0 0"/></symbol><symbol overflow="visible" id="064504daM"><path d="M1.45-7.1c1.96.33 2.8 1.94 2.8 4.15 0 2.2-.84 3.8-2.8 4.17l.11.67c2.58-.47 3.67-2.28 3.67-4.84 0-2.55-1.09-4.36-3.67-4.85zm0 0"/></symbol><symbol overflow="visible" id="064504dao"><path d="M1.38-1.45l.68-.68L1.2-3l-.67.67zm0 0"/></symbol><symbol overflow="visible" id="064504dap"><path d="M1.14 0h.66c0-2.92-.1-3.38-.57-5.03L.52-5c.53 1.6.62 1.97.62 5zm0 0"/></symbol><symbol overflow="visible" id="064504daq"><path d="M1.14 0h.66c0-1.28-.02-2.08-.08-2.72.2.06.42.1.6.1 1 0 1.46-.66 1.46-1.77 0-.2-.01-.42-.05-.64l-.65.06c.03.25.04.45.04.63 0 .65-.21.96-.8.96-.52 0-.68-.09-.84-.75l-.25-.9L.52-5c.53 1.6.62 1.97.62 5zm0 0"/></symbol><symbol overflow="visible" id="064504dar"><path d="M1.14 0h.66c0-1.28-.02-2.08-.08-2.72.2.06.42.1.6.1.26 0 .48-.07.66-.2.24.12.63.2.82.2.84 0 1.22-.66 1.22-1.77 0-.19-.02-.42-.04-.64l-.6.06.01.47c0 .77-.14 1.13-.6 1.13-.15 0-.27-.02-.37-.05.1-.27.14-.58.14-.97 0-.2-.01-.42-.04-.64l-.66.06c.02.25.05.45.05.63 0 .65-.18.96-.6.96-.51 0-.67-.09-.83-.75l-.25-.9L.52-5c.53 1.6.62 1.97.62 5zm0 0"/></symbol><symbol overflow="visible" id="064504das"><path d="M1.14 0h.66c0-.92-.02-1.6-.03-2.16.21.04.45.05.71.05.66 0 1.43-.08 2.29-.25L4.84-3c-.53.13-1.32.19-1.56.2-.08 0-.08 0-.12-.06-.1-.14-.32-.48-.32-.86 0-.45.29-.64.7-.64.21 0 .48.06.74.16l.17-.64a2.7 2.7 0 00-.93-.2c-.77 0-1.32.46-1.32 1.35 0 .3.08.64.24.9-.24 0-.47 0-.66-.04-.06 0-.06 0-.08-.1a11.9 11.9 0 00-.47-2.1L.52-5c.53 1.6.62 1.97.62 5zm0 0"/></symbol><symbol overflow="visible" id="064504dat"><path d="M1.72 0c.25 0 .58-.03.81-.22.3.19.58.22.81.22.52 0 1.18-.27 1.18-1.4 0-1.16-.85-2.23-2.57-3.68l-.47.52.36.33C1-3.2.52-2.43.52-1.43.52-.35 1.08 0 1.72 0zm0-.75c-.36 0-.56-.19-.56-.69 0-.72.3-1.36 1.2-2.37 1.22 1.04 1.5 1.87 1.5 2.42 0 .45-.11.64-.5.64-.5 0-.5-.1-.5-.5v-.36H2.2v.36c0 .4 0 .5-.48.5zm0 0"/></symbol><symbol overflow="visible" id="064504dau"><path d="M.52 0h.87a5.44 5.44 0 012.95-2.6l.08-.8-1.19.52c-.28.15-.48.16-.71.04a.88.88 0 01-.47-.75c0-.5.34-.74.9-.74a3 3 0 01.77.11l.08-.69a3.1 3.1 0 00-.9-.14c-.88 0-1.54.49-1.54 1.49 0 .58.33 1.12.81 1.4C1.72-1.75 1.13-1 .52 0zm0 0"/></symbol></defs><use xlink:href="#064504daa" x="92.91176" y="150.5" fill="#fff"/><use xlink:href="#064504dab" x="137.9118" y="150.5" fill="#515151"/><use xlink:href="#064504dac" x="154.4412" y="150.5" fill="#fff"/><use xlink:href="#064504dab" x="199.4412" y="150.5" fill="#515151"/><use xlink:href="#064504dad" x="215.9706" y="150.5" fill="#fff"/><use xlink:href="#064504dab" x="260.9706" y="150.5" fill="#515151"/><use xlink:href="#064504dae" x="277.5" y="150.5" fill="#fff"/><use xlink:href="#064504dab" x="322.5" y="150.5" fill="#515151"/><use xlink:href="#064504daf" x="339.0294" y="150.5" fill="#fff"/><use xlink:href="#064504dab" x="384.0294" y="150.5" fill="#515151"/><use xlink:href="#064504dag" x="400.5588" y="150.5" fill="#fff"/><use xlink:href="#064504dab" x="445.5588" y="150.5" fill="#515151"/><use xlink:href="#064504dah" x="462.0882" y="150.5" fill="#fff"/><g fill="#fff"><use xlink:href="#064504dai" x="265.3222" y="252"/><use xlink:href="#064504daj" x="271.9892" y="252"/><use xlink:href="#064504dak" x="278.6562" y="252"/><use xlink:href="#064504dal" x="285.3232" y="252"/><use xlink:href="#064504dam" x="291.9902" y="252"/><use xlink:href="#064504dan" x="298.6572" y="252"/></g><use xlink:href="#064504dao" x="305.3222" y="252" fill="#fff"/><g fill="#fff"><use xlink:href="#064504dap" x="307.9" y="252"/><use xlink:href="#064504daq" x="310.219" y="252"/><use xlink:href="#064504dar" x="314.518" y="252"/><use xlink:href="#064504das" x="320.057" y="252"/></g><use xlink:href="#064504dat" x="325.126" y="252" fill="#fff"/><use xlink:href="#064504dau" x="329.745" y="252" fill="#fff"/><g fill="#fff"><use xlink:href="#064504dav" x="100" y="266"/><use xlink:href="#064504daj" x="106.667" y="266"/><use xlink:href="#064504daw" x="113.334" y="266"/><use xlink:href="#064504dal" x="120.001" y="266"/><use xlink:href="#064504dax" x="126.668" y="266"/><use xlink:href="#064504day" x="133.335" y="266"/><use xlink:href="#064504daj" x="140.002" y="266"/><use xlink:href="#064504dam" x="146.669" y="266"/><use xlink:href="#064504dan" x="153.336" y="266"/><use xlink:href="#064504dai" x="160.003" y="266"/><use xlink:href="#064504daw" x="166.67" y="266"/><use xlink:href="#064504daz" x="173.337" y="266"/><use xlink:href="#064504dax" x="180.004" y="266"/><use xlink:href="#064504daA" x="186.671" y="266"/><use xlink:href="#064504daw" x="193.338" y="266"/><use xlink:href="#064504day" x="200.005" y="266"/><use xlink:href="#064504dan" x="206.672" y="266"/><use xlink:href="#064504daB" x="213.339" y="266"/><use xlink:href="#064504day" x="220.006" y="266"/><use xlink:href="#064504daC" x="226.673" y="266"/><use xlink:href="#064504dax" x="233.34" y="266"/><use xlink:href="#064504dan" x="240.007" y="266"/><use xlink:href="#064504daD" x="246.674" y="266"/><use xlink:href="#064504dax" x="253.341" y="266"/><use xlink:href="#064504daE" x="260.008" y="266"/><use xlink:href="#064504daj" x="266.675" y="266"/><use xlink:href="#064504day" x="273.342" y="266"/><use xlink:href="#064504daw" x="280.009" y="266"/><use xlink:href="#064504daA" x="286.676" y="266"/><use xlink:href="#064504daF" x="293.343" y="266"/><use xlink:href="#064504dan" x="300.01" y="266"/><use xlink:href="#064504daG" x="306.677" y="266"/><use xlink:href="#064504daF" x="313.344" y="266"/><use xlink:href="#064504daj" x="320.011" y="266"/><use xlink:href="#064504dal" x="326.678" y="266"/><use xlink:href="#064504dan" x="333.345" y="266"/><use xlink:href="#064504daA" x="340.012" y="266"/><use xlink:href="#064504daw" x="346.679" y="266"/><use xlink:href="#064504daD" x="353.346" y="266"/><use xlink:href="#064504daH" x="360.013" y="266"/><use xlink:href="#064504dax" x="366.68" y="266"/><use xlink:href="#064504daw" x="373.347" y="266"/><use xlink:href="#064504daH" x="380.014" y="266"/><use xlink:href="#064504daj" x="386.681" y="266"/><use xlink:href="#064504dan" x="393.348" y="266"/><use xlink:href="#064504daI" x="400.015" y="266"/><use xlink:href="#064504day" x="406.682" y="266"/><use xlink:href="#064504dan" x="413.349" y="266"/><use xlink:href="#064504daF" x="420.016" y="266"/><use xlink:href="#064504daF" x="426.683" y="266"/><use xlink:href="#064504daJ" x="433.35" y="266"/><use xlink:href="#064504daK" x="440.017" y="266"/><use xlink:href="#064504dan" x="446.684" y="266"/><use xlink:href="#064504daL" x="453.351" y="266"/><use xlink:href="#064504dan" x="460.018" y="266"/><use xlink:href="#064504dal" x="466.685" y="266"/><use xlink:href="#064504daD" x="473.352" y="266"/><use xlink:href="#064504dax" x="480.019" y="266"/><use xlink:href="#064504daE" x="486.686" y="266"/><use xlink:href="#064504daM" x="493.353" y="266"/></g></svg>