<?xml version='1.0' encoding='UTF-8'?>
<svg xmlns="http://www.w3.org/2000/svg" xmlns:xlink="http://www.w3.org/1999/xlink" width="200px" height="900px" viewBox="0 0 200 900" x="0px" y="0px" enable-background="new 0 0 200 900"><defs><symbol overflow="visible" id="6d431076a"><path d="M23.36-22.17h-1.42L14.36-1.72h-.13l-1.26-3.94-6.02-16.51H5.6L2.58-1.81c-.1.6-.16 1.22-.27 1.81H3.5l2.95-20.25h.1l1.42 4.47L13.77 0h1.09l7.58-20.25h.1l.52 4.47L25.44 0h1.23c-.1-.56-.17-1.1-.26-1.66zm0 0"/></symbol><symbol overflow="visible" id="6d431076b"><path d="M3.6-6.55a4.06 4.06 0 00-1.85 3.27C1.75-.9 3.41.44 5.83.44c2.31 0 4.69-1.2 6.72-2.86l.39 2.48.95-.12c-.3-3.22-.3-4.67-.3-5.96V-9.2c0-4.57-1.48-6.28-4.5-6.28-2.28 0-4.62.98-6.6 2.45l.5.75c1.84-1.22 4.06-2.14 6.04-2.14 2.28 0 3.44 1.28 3.44 5.69v.26C8-8.14 5.23-7.64 3.6-6.55zM5.84-.63c-1.66 0-2.92-.89-2.92-2.71 0-1.2.73-2.05 1.36-2.49 1.23-.8 3.64-1.25 8.2-1.65v3.9c-2.22 1.9-4.6 2.99-6.64 2.96zm0 0"/></symbol><symbol overflow="visible" id="6d431076c"><path d="M3.97-15.28l-.99.12c.3 3.14.33 4.74.33 5.96V0h1.13v-10.06c1.25-2.78 3.04-4.27 5.03-4.27.78 0 1.39.06 2.08.27l.36-.86a4.68 4.68 0 00-2.41-.56c-2.19 0-3.9 1.3-5.1 3.7zm0 0"/></symbol><symbol overflow="visible" id="6d431076d"><path d="M4.38-24.84l-1.13.06v22.5C3.25-.36 4.03.39 5.3.39c.6 0 1.33-.16 1.95-.42l-.3-.92c-.53.18-1.1.3-1.42.3-.76 0-1.16-.57-1.16-1.9zm0 0"/></symbol><symbol overflow="visible" id="6d431076e"><path d="M2.6-19.63c0 .63.5 1.07 1.21 1.07.75 0 1.25-.5 1.25-1.19 0-.67-.47-1.1-1.15-1.1-.77 0-1.3.5-1.3 1.23zm1.77 4.5l-1.12.07V0h1.13zm0 0"/></symbol><symbol overflow="visible" id="6d431076f"><path d="M15.31-15.1h-1.28L4.38-6.05v-18.78l-1.13.06V0h1.13v-4.67L7.4-7.48 14.56 0h1.25a3.56 3.56 0 00-.83-1.1l-6.8-7.1 6.45-6.07c.3-.26.56-.56.68-.82zm0 0"/></symbol><symbol overflow="visible" id="6d431076g"><path d="M1.64 0v-3.17l-.16-2.5h.1L2.9-1.83h.82l1.35-3.84h.1l-.16 2.5V0h.95v-6.77h-1.3l-1.3 3.82h-.09L2-6.77H.69V0zm0 0"/></symbol><symbol overflow="visible" id="6d431076h"><path d="M2.83.14c.94 0 1.5-.39 1.81-.95h.08l.1.81h.76v-3.38c0-1.23-.69-1.8-2.13-1.8-1.43 0-2.03.65-2.18 1.6l.93.1c.11-.6.44-.93 1.22-.93.85 0 1.22.32 1.22 1.04v.34l-1.81.2C1.6-2.7 1.1-2.17 1.1-1.28c0 .92.64 1.42 1.72 1.42zm.25-.77c-.67 0-1.02-.28-1.02-.74 0-.44.28-.72 1-.82l1.58-.19v.41c0 .8-.6 1.34-1.56 1.34zm0 0"/></symbol><symbol overflow="visible" id="6d431076i"><path d="M5.08-5.16c-.94 0-1.58.43-1.9 1.3h-.09l-.07-1.16H1.05v.77h1.1v3.48H.96V0h3.96v-.77H3.1v-1.46c0-1.36.6-2.05 1.83-2.05.4 0 .76.08 1.1.17l.15-.87c-.33-.11-.7-.18-1.11-.18zm0 0"/></symbol><symbol overflow="visible" id="6d431076j"><path d="M3.92-7.14H1.36v.76h1.6v5.61H1.15V0H5.7v-.77H3.92zm0 0"/></symbol><symbol overflow="visible" id="6d431076k"><path d="M3.58-5.81c.42 0 .72-.22.72-.67 0-.44-.3-.68-.72-.68-.44 0-.72.24-.72.68 0 .45.28.67.72.67zm.5.8H1.52v.76h1.6v3.48h-1.8V0h4.46v-.77h-1.7zm0 0"/></symbol><symbol overflow="visible" id="6d431076l"><path d="M5.77-5.02H4.63L2.3-2.88h-.06v-4.26h-.94V0h.94v-2.31h.06L4.71 0h1.24L3.23-2.69zm0 0"/></symbol><symbol overflow="visible" id="6d431076n"><path d="M3.83 0v-5.95H6.2v-.82H.45v.82h2.4V0zm0 0"/></symbol><symbol overflow="visible" id="6d431076o"><path d="M2.16 0v-2.69c0-.98.6-1.6 1.46-1.6.74 0 1.07.4 1.07 1.2V0h.95v-3.31c0-1.17-.56-1.85-1.67-1.85-.9 0-1.44.46-1.75 1.08h-.06v-3.06H1.2V0zm0 0"/></symbol><symbol overflow="visible" id="6d431076p"><path d="M2.16 0v-2.67c0-.99.59-1.63 1.46-1.63.74 0 1.07.38 1.07 1.22V0h.95v-3.31c0-1.2-.56-1.85-1.67-1.85-.92 0-1.49.46-1.77 1.08h-.06l-.12-.94H1.2V0zm0 0"/></symbol><symbol overflow="visible" id="6d431076w"><path d="M5.92-6.77H1.1V0h4.83v-.8H2.06v-2.26h3.22v-.75H2.06v-2.16h3.86zm0 0"/></symbol><symbol overflow="visible" id="6d431076x"><path d="M1.83 0l1.42-2h.06l1.46 2H5.8L4-2.53l1.78-2.49H4.8L3.42-3.08h-.08l-1.4-1.94H.89l1.78 2.49L.84 0zm0 0"/></symbol><symbol overflow="visible" id="6d431076y"><path d="M5.52-4.25v-.77H3.17v-1.56h-.81l-.14 1.56H.75v.77h1.47v2.4c0 1.3.48 1.94 1.84 1.94C4.6.1 5.14 0 5.55-.14L5.4-.91c-.32.13-.72.2-1.13.2-.8 0-1.1-.37-1.1-1.23v-2.31zm0 0"/></symbol><symbol overflow="visible" id="6d431076z"><path d="M3.16 2.03c1.67 0 2.4-.86 2.4-2.51v-4.54h-.81l-.13.91h-.06c-.26-.58-.8-1.05-1.73-1.05-1.42 0-2.24 1-2.24 2.52 0 1.6.75 2.56 2.2 2.56.94 0 1.5-.5 1.77-1.03h.05v.72c0 1.17-.42 1.67-1.45 1.67-.93 0-1.3-.34-1.41-.89L.8.5c.12.96.87 1.54 2.36 1.54zM3.06-.8c-.98 0-1.48-.57-1.48-1.82 0-1.13.5-1.75 1.48-1.75 1.06 0 1.58.76 1.58 1.75 0 .95-.56 1.82-1.58 1.82zm0 0"/></symbol><symbol overflow="visible" id="6d431076G"><path d="M2.08-6.77h-.99V0h4.79v-.81h-3.8zm0 0"/></symbol><symbol overflow="visible" id="6d431076N"><path d="M4.06-2.77c1.25-.04 1.92-.7 1.92-1.96 0-1.36-.7-2.04-2.17-2.04H.92V0h.97v-2.73h1.08L4.95 0h1.1zM1.9-6h1.7c1.07 0 1.46.34 1.46 1.28 0 .9-.44 1.27-1.47 1.27H1.89zm0 0"/></symbol><symbol overflow="visible" id="6d431076O"><path d="M5.75-2.23v-.43c0-1.6-.9-2.51-2.42-2.51S.87-4.16.87-2.48c0 1.71.91 2.62 2.5 2.62 1.43 0 2.07-.56 2.29-1.52l-.9-.09c-.18.61-.59.9-1.35.9-.94 0-1.52-.54-1.58-1.66zm-2.4-2.2c.93 0 1.43.5 1.48 1.55H1.84c.08-1.07.6-1.56 1.5-1.56zm0 0"/></symbol><symbol overflow="visible" id="6d431076P"><path d="M2.73.14c.9 0 1.43-.45 1.74-1.08h.06l.13.94h.8v-5.02h-.94v2.7c0 .98-.57 1.62-1.46 1.62-.75 0-1.1-.4-1.1-1.22v-3.1h-.93v3.32c0 1.17.55 1.84 1.7 1.84zm0 0"/></symbol><symbol overflow="visible" id="6d431076W"><path d="M2.84.14C3.8.14 4.33-.26 4.6-.9h.07L4.8 0h.76v-7.14h-.95v2.95h-.08c-.28-.6-.86-.97-1.67-.97-1.48 0-2.27.99-2.27 2.64C.6-.84 1.36.14 2.84.14zm.22-.8c-.98 0-1.48-.59-1.48-1.84s.5-1.86 1.48-1.86c1.13 0 1.58.8 1.58 1.86S4.2-.66 3.06-.66zm0 0"/></symbol><symbol overflow="visible" id="6d431076X"><path d="M1.63 0v-2.9c0-.8.15-1.4.71-1.4.41 0 .55.3.55.88V0h.95v-2.9c0-.8.18-1.4.72-1.4.4 0 .57.3.57.88V0h.95v-3.63c0-.92-.28-1.53-1.11-1.53-.63 0-.95.41-1.1.9h-.06c-.1-.52-.44-.9-1.08-.9-.6 0-.93.41-1.06.9H1.6l-.23-.76H.67V0zm0 0"/></symbol><symbol overflow="visible" id="6d431076ae"><path d="M3.42.14c1.61 0 2.56-.75 2.56-2 0-1.1-.67-1.6-1.95-1.86l-.97-.2c-.87-.17-1.23-.49-1.23-1.11 0-.7.54-1.11 1.5-1.11 1.06 0 1.51.34 1.69 1.23l.9-.09c-.17-1.28-.98-1.9-2.6-1.9C1.79-6.9.9-6.18.9-4.98c0 1.06.66 1.66 1.88 1.9l1.01.2c.85.17 1.25.4 1.25 1.09 0 .73-.6 1.16-1.6 1.16-1.07 0-1.66-.4-1.8-1.24l-.94.1C.83-.53 1.75.13 3.42.13zm0 0"/></symbol><symbol overflow="visible" id="6d431076af"><path d="M3.9.14c1.48 0 2.18-.98 2.18-2.64 0-1.67-.7-2.66-2.17-2.66-.91 0-1.49.41-1.79 1h-.06v-2.98h-.95V0h.81l.11-.9h.06c.29.63.82 1.04 1.82 1.04zm-.32-.8c-1.08 0-1.55-.8-1.55-1.84 0-1.06.47-1.86 1.55-1.86 1.1 0 1.51.61 1.51 1.86S4.64-.66 3.58-.66zm0 0"/></symbol><symbol overflow="visible" id="6d431076ag"><path d="M3.33.14c1.62 0 2.5-.95 2.5-2.66 0-1.68-.88-2.64-2.5-2.64-1.63 0-2.5.96-2.5 2.64 0 1.7.87 2.66 2.5 2.66zm0-.77c-1.06 0-1.52-.6-1.52-1.89 0-1.28.46-1.87 1.52-1.87 1.08 0 1.53.6 1.53 1.87 0 1.29-.45 1.9-1.53 1.9zm0 0"/></symbol><symbol overflow="visible" id="6d431076an"><path d="M4.66-3.45c.76-.14 1.15-.67 1.15-1.57 0-1.07-.64-1.75-2.18-1.75H.92V0h2.71C5.2 0 5.98-.64 5.98-1.77c0-1.03-.56-1.43-1.32-1.59zM3.56-6c.9 0 1.31.4 1.31 1.13 0 .71-.4 1.14-1.3 1.14h-1.7V-6zM1.87-.75v-2.27H3.6c.97 0 1.44.33 1.44 1.13 0 .8-.47 1.14-1.44 1.14zm0 0"/></symbol><symbol overflow="visible" id="6d431076aA"><path d="M3.34.14c1.43 0 2.13-.66 2.25-1.78l-.89-.1c-.1.7-.5 1.08-1.34 1.08-1.03 0-1.52-.64-1.52-1.84 0-1.23.47-1.86 1.52-1.86.84 0 1.23.36 1.34 1.08l.9-.1c-.13-1.09-.82-1.78-2.26-1.78-1.56 0-2.46.97-2.46 2.66 0 1.66.9 2.64 2.46 2.64zm0 0"/></symbol><symbol overflow="visible" id="6d431076q"><path d="M23.98-22.17h-2.3L14.65-2.34h-.13l-1.2-3.94-5.63-15.9H5.45l-2.93 20c-.15.73-.24 1.52-.33 2.18h1.75l2.81-19.6h.1l1.38 4.5L13.6 0h1.93l7.01-19.6h.14l.52 4.5L25.44 0h1.83l-.3-1.95zm0 0"/></symbol><symbol overflow="visible" id="6d431076r"><path d="M3.6-6.78a4.26 4.26 0 00-1.94 3.44C1.66-.95 3.28.44 5.86.44c2.25 0 4.53-1.1 6.51-2.72l.44 2.37 1.49-.18C14-3.44 14-4.9 14-6.2v-3.08c0-4.59-1.63-6.36-4.83-6.36-2.42 0-4.8 1-6.75 2.49l.66 1.12c1.86-1.18 3.97-2.04 5.86-2.04 2.22 0 3.31 1.22 3.31 5.33v.09c-4.4.33-7.06.83-8.64 1.86zm2.46 5.72c-1.56 0-2.65-.8-2.65-2.44 0-1.13.65-1.9 1.26-2.3C5.75-6.52 8-6.95 12.25-7.28v3.55c-2.13 1.71-4.34 2.7-6.19 2.67zm0 0"/></symbol><symbol overflow="visible" id="6d431076s"><path d="M4.33-15.45l-1.49.2c.3 3.34.33 4.92.33 6.19V0h1.77v-10.06c1.25-2.49 2.97-3.74 4.89-3.74.76 0 1.39.07 2.08.24l.43-1.46c-.59-.37-1.42-.6-2.45-.6-2.14 0-3.83 1.26-5.06 3.51zm0 0"/></symbol><symbol overflow="visible" id="6d431076t"><path d="M4.83-24.84l-1.72.06v22.2C3.1-.5 3.97.4 5.56.4 6.2.4 7.05.23 7.78-.06l-.4-1.36c-.54.17-1.07.26-1.4.26-.8 0-1.15-.5-1.15-1.78zm0 0"/></symbol><symbol overflow="visible" id="6d431076u"><path d="M2.55-19.86c0 .77.56 1.3 1.42 1.3.92 0 1.53-.6 1.53-1.46 0-.8-.56-1.32-1.4-1.32-.93 0-1.55.59-1.55 1.48zm2.3 4.61l-1.74.06V0h1.75zm0 0"/></symbol><symbol overflow="visible" id="6d431076v"><path d="M15.88-15.22h-1.91l-9.11 8.7v-18.32l-1.75.06V0h1.75v-4.4l2.92-2.74L14.42 0h1.96c-.07-.3-.46-.83-.86-1.25L8.97-8.31l6.15-5.88c.36-.37.63-.7.76-1.03zm0 0"/></symbol><symbol overflow="visible" id="6d431076A"><path d="M24.63-22.17H21.4L14.98-2.94h-.15l-1.16-3.98-5.2-15.25H5.33L2.43-2.55c-.15.83-.27 1.82-.35 2.55h2.3l2.67-18.95h.14l1.28 4.56L13.4 0h2.78l6.48-18.92h.1l.53 4.56L25.44 0h2.39c-.03-.69-.2-1.48-.3-2.25zm0 0"/></symbol><symbol overflow="visible" id="6d431076B"><path d="M3.64-7.02A4.33 4.33 0 001.6-3.4C1.6-1.06 3.17.44 5.86.44 8.1.44 10.3-.6 12.2-2.16l.47 2.29 2.02-.26c-.3-3.45-.33-4.93-.33-6.23v-3c0-4.64-1.69-6.39-5.13-6.39-2.54 0-4.96 1-6.92 2.52l.86 1.51C5-12.9 7.02-13.67 8.83-13.67c2.15 0 3.19 1.1 3.19 4.87-4.32.3-6.9.83-8.38 1.78zm2.61 5.54c-1.42 0-2.34-.7-2.34-2.2 0-1.02.56-1.71 1.12-2.12 1.03-.62 3.08-1.01 6.99-1.3v3.22C10-2.3 7.94-1.44 6.25-1.48zm0 0"/></symbol><symbol overflow="visible" id="6d431076C"><path d="M4.73-15.58l-2.01.27c.3 3.5.33 5.1.33 6.37V0h2.37v-10c1.27-2.25 2.92-3.3 4.77-3.3.76 0 1.36.07 2.1.27l.48-2.13a4.98 4.98 0 00-2.52-.59c-2.08 0-3.73 1.19-4.98 3.38zm0 0"/></symbol><symbol overflow="visible" id="6d431076D"><path d="M5.33-24.84l-2.4.06v21.94c0 2.21 1 3.23 2.87 3.23A7.3 7.3 0 008.3-.09l-.53-1.83c-.5.2-1 .26-1.36.26-.76 0-1.1-.47-1.1-1.72zm0 0"/></symbol><symbol overflow="visible" id="6d431076E"><path d="M2.48-20.08c0 .92.66 1.52 1.66 1.52 1.1 0 1.78-.69 1.78-1.69 0-.95-.62-1.6-1.62-1.6-1.1 0-1.82.74-1.82 1.77zm2.88 4.69l-2.38.08V0h2.38zm0 0"/></symbol><symbol overflow="visible" id="6d431076F"><path d="M16.4-15.36h-2.5l-8.54 8.4v-17.88l-2.38.06V0h2.38v-4.17l2.81-2.67L14.33 0h2.64a5.1 5.1 0 00-.92-1.42L9.73-8.38l5.9-5.78c.42-.43.68-.82.78-1.2zm0 0"/></symbol><symbol overflow="visible" id="6d431076H"><path d="M25.08-22.17H21.2L15.22-3.41h-.16l-1.12-4-4.88-14.76H5.2L2.34-2.84C2.22-1.9 2.02-.77 1.98 0H4.7l2.58-18.47h.13l1.26 4.64L13.27 0h3.43l6.03-18.44h.13l.53 4.61L25.41 0h2.89c-.05-.77-.2-1.63-.35-2.45zm0 0"/></symbol><symbol overflow="visible" id="6d431076I"><path d="M3.64-7.22a4.54 4.54 0 00-2.12 3.78C1.52-1.13 3.08.4 5.89.4c2.22 0 4.3-.92 6.22-2.47l.5 2.25 2.37-.34a82.2 82.2 0 01-.32-6.31v-2.96c0-4.62-1.79-6.4-5.4-6.4-2.6 0-5.09.98-7.01 2.51l1.03 1.81c1.78-1.15 3.74-1.89 5.45-1.89 2.13 0 3.08 1.04 3.11 4.47-4.23.3-6.75.83-8.2 1.72zm.66 3.45c0-1 .5-1.65 1.03-1.98.95-.6 2.84-.97 6.51-1.23V-4C9.92-2.55 7.97-1.78 6.42-1.78c-1.33 0-2.12-.67-2.12-1.99zm0 0"/></symbol><symbol overflow="visible" id="6d431076J"><path d="M5.03-15.72l-2.42.33c.27 3.64.33 5.27.33 6.6V0H5.8v-9.95c1.25-2.03 2.87-2.96 4.65-2.96.77 0 1.36.07 2.1.27l.51-2.58a4.78 4.78 0 00-2.5-.62c-2.06 0-3.69 1.18-4.97 3.26zm0 0"/></symbol><symbol overflow="visible" id="6d431076K"><path d="M5.69-24.84l-2.85.06v21.7C2.84-.73 3.91.4 5.98.4c.77 0 1.8-.16 2.72-.52l-.6-2.15c-.5.2-.96.26-1.32.26-.8 0-1.1-.43-1.1-1.65zm0 0"/></symbol><symbol overflow="visible" id="6d431076L"><path d="M2.42-20.28c0 1.06.72 1.72 1.85 1.72 1.18 0 2.01-.8 2.01-1.9 0-1.04-.72-1.77-1.84-1.77-1.19 0-2.02.82-2.02 1.95zm3.3 4.8l-2.84.06V0h2.84zm0 0"/></symbol><symbol overflow="visible" id="6d431076M"><path d="M16.84-15.45h-2.98L5.75-7.31v-17.53l-2.88.06V0h2.88v-3.97l2.72-2.6L14.23 0h3.18a4.3 4.3 0 00-.97-1.52l-6.11-6.92 5.65-5.69c.5-.5.8-.93.86-1.32zm0 0"/></symbol><symbol overflow="visible" id="6d431076Q"><path d="M25.58-22.17h-4.6L15.45-3.94h-.17l-1.05-4L9.7-22.17h-4.6L2.3-3.14C2.15-2.08 1.91-.8 1.88 0h3.17l2.46-17.9h.12l1.27 4.63L13.14 0h4.1l5.59-17.9h.14l.53 4.67L25.4 0h3.35c0-.83-.19-1.78-.33-2.72zm0 0"/></symbol><symbol overflow="visible" id="6d431076R"><path d="M3.67-7.38a4.55 4.55 0 00-2.25 3.91C1.42-1.19 2.98.4 5.9.4 8.08.4 10.13-.5 12-1.98L12.5.2l2.81-.4c-.25-3.64-.33-5.1-.33-6.42V-9.5c0-4.66-1.87-6.45-5.65-6.45-2.7 0-5.22 1-7.14 2.54l1.15 2.13c1.82-1.16 3.64-1.83 5.33-1.83 2.02 0 2.94.97 2.97 4.05-4.16.3-6.58.83-7.97 1.69zM4.7-3.9c0-.95.42-1.51.96-1.84.86-.5 2.57-.88 5.98-1.06v2.67C9.83-2.81 8-2.16 6.62-2.16c-1.26 0-1.92-.56-1.92-1.75zm0 0"/></symbol><symbol overflow="visible" id="6d431076S"><path d="M5.33-15.84l-2.81.36c.26 3.8.32 5.42.32 6.78V0H6.2v-9.86c1.25-1.86 2.84-2.6 4.56-2.6.73 0 1.36.05 2.1.21l.59-3.06a4.85 4.85 0 00-2.55-.64c-2.06 0-3.64 1.12-4.94 3.18zm0 0"/></symbol><symbol overflow="visible" id="6d431076T"><path d="M6.06-24.84l-3.34.06v21.47c0 2.48 1.12 3.7 3.47 3.7.83 0 1.95-.16 2.93-.56l-.68-2.47c-.47.16-.9.22-1.3.22-.78 0-1.08-.4-1.08-1.58zm0 0"/></symbol><symbol overflow="visible" id="6d431076U"><path d="M2.34-20.45c0 1.12.83 1.89 2.07 1.89 1.34 0 2.25-.86 2.25-2.13 0-1.15-.83-1.93-2.07-1.93-1.3 0-2.25.89-2.25 2.17zm3.79 4.87l-3.35.06V0h3.35zm0 0"/></symbol><symbol overflow="visible" id="6d431076V"><path d="M17.27-15.55H13.8L6.16-7.67v-17.17l-3.38.06V0h3.38v-3.77l2.6-2.54L14.14 0h3.78a5.8 5.8 0 00-1.04-1.66l-5.89-6.87 5.4-5.53c.56-.6.85-1.06.89-1.49zm0 0"/></symbol><symbol overflow="visible" id="6d431076Y"><path d="M26.17-22.17h-5.42l-5 17.67h-.17l-1.02-4.03-4.14-13.64H4.97L2.22-3.47C2.05-2.3 1.78-.86 1.78 0h3.67l2.36-17.31h.13l1.18 4.7L12.97 0h4.9l5.07-17.27h.12l.53 4.7L25.41 0h3.9c0-.9-.23-1.98-.36-2.98zm0 0"/></symbol><symbol overflow="visible" id="6d431076Z"><path d="M3.67-7.6a4.75 4.75 0 00-2.31 4.05C1.36-1.25 2.87.4 5.92.4c2.16 0 4.11-.83 5.92-2.28l.54 2.12 3.3-.46a91.36 91.36 0 01-.32-6.55v-2.78c0-4.7-1.98-6.52-5.97-6.52-2.84 0-5.39.99-7.27 2.58l1.32 2.48a9.9 9.9 0 015.12-1.71c1.92 0 2.78.82 2.9 3.5-4.12.3-6.46.82-7.79 1.62zm1.49 3.54c0-.88.37-1.36.86-1.66.76-.44 2.3-.76 5.43-.94v2.36C9.7-3.1 8.05-2.55 6.81-2.55c-1.12 0-1.65-.5-1.65-1.51zm0 0"/></symbol><symbol overflow="visible" id="6d431076aa"><path d="M5.69-15.98l-3.32.43c.27 3.97.35 5.6.35 6.99V0h3.94v-9.77a5.34 5.34 0 014.42-2.21c.73 0 1.36.07 2.1.23l.65-3.67a5.03 5.03 0 00-2.58-.66c-2.02 0-3.6 1.13-4.9 3.08zm0 0"/></symbol><symbol overflow="visible" id="6d431076ab"><path d="M6.52-24.84l-3.94.06v21.2C2.58-.95 3.8.4 6.42.4c.9 0 2.11-.16 3.2-.6l-.8-2.9c-.45.17-.85.23-1.24.23-.8 0-1.06-.37-1.06-1.53zm0 0"/></symbol><symbol overflow="visible" id="6d431076ac"><path d="M2.28-20.69c0 1.3.9 2.13 2.28 2.13 1.5 0 2.49-.96 2.49-2.35 0-1.3-.9-2.18-2.25-2.18-1.49 0-2.52.98-2.52 2.4zm4.3 4.97l-3.94.06V0h3.94zm0 0"/></symbol><symbol overflow="visible" id="6d431076ad"><path d="M17.8-15.69h-4.07l-7.1 7.55v-16.7l-3.99.06V0h3.98v-3.55l2.5-2.47L14.04 0h4.4a5.86 5.86 0 00-1.05-1.81l-5.66-6.8 5.12-5.42c.63-.66.93-1.16.96-1.66zm0 0"/></symbol><symbol overflow="visible" id="6d431076ah"><path d="M27.03-22.17h-6.45L16.08-5.4h-.16l-1-4.08-3.8-12.7H4.67L2.02-3.77C1.86-2.52 1.59-1.03 1.59 0h4.43l2.12-16.67h.13l1.17 5.1L12.84 0h5.75l4.6-16.64h.14l.5 5.1L25.43 0h4.65c0-1-.2-2.16-.36-3.2zm0 0"/></symbol><symbol overflow="visible" id="6d431076ai"><path d="M3.38-7.64a4.66 4.66 0 00-2.2 3.97C1.19-1.22 2.85.39 5.96.39c2.2 0 4.14-.89 5.86-2.37l.77 2.21L16.4-.3c-.22-3.84-.33-5.39-.33-6.75v-2.6c0-4.68-2.11-6.63-6.45-6.63-2.94 0-5.72.97-7.68 2.48l1.36 2.85c1.75-.99 3.56-1.6 5.16-1.6 1.89 0 2.72.77 2.81 3.16-4.03.3-6.48.86-7.9 1.75zm2.34 3.26c0-.75.3-1.21.76-1.51.66-.4 2.05-.69 4.8-.83v2.34c-1.48 1-2.9 1.5-3.97 1.5-1.1 0-1.6-.53-1.6-1.5zm0 0"/></symbol><symbol overflow="visible" id="6d431076aj"><path d="M5.98-16.19l-3.86.5c.25 4.17.33 5.86.33 7.31V0h4.86v-9.66a5.14 5.14 0 014.07-1.86c.73 0 1.39.07 2.12.24l.73-4.35a5.45 5.45 0 00-2.62-.65c-2.02 0-3.5 1.16-4.69 3.1zm0 0"/></symbol><symbol overflow="visible" id="6d431076ak"><path d="M7.14-24.84l-4.83.06v20.97C2.31-1 3.73.39 6.4.39 7.5.4 8.88.2 10.06-.27L9.33-3.6c-.42.14-.77.17-1.13.17-.8 0-1.06-.37-1.06-1.53zm0 0"/></symbol><symbol overflow="visible" id="6d431076al"><path d="M2.19-20.9c0 1.38.98 2.34 2.58 2.34 1.71 0 2.8-1.1 2.8-2.61 0-1.4-1-2.4-2.5-2.4-1.73 0-2.88 1.1-2.88 2.66zm5.06 4.98l-4.88.08V0h4.88zm0 0"/></symbol><symbol overflow="visible" id="6d431076am"><path d="M18.63-15.88H13.8l-6.55 7.5v-16.46l-4.88.06V0h4.88v-2.94l2.38-2.51L13.88 0h5.3a4.96 4.96 0 00-1.07-2.05L12.78-8.7l4.8-5.27c.73-.83 1.05-1.34 1.05-1.9zm0 0"/></symbol><symbol overflow="visible" id="6d431076ao"><path d="M28.6-22.17H20.3l-3.6 15.15h-.16l-.97-4.17-3.14-10.98h-8.3L1.66-4.3c-.2 1.42-.47 3-.47 4.3h5.86l1.68-15.52h.14L10-9.69 12.6.03 19.96 0l3.7-15.52h.15l.42 5.86L25.55 0h5.98c0-1.19-.23-2.45-.39-3.67zm0 0"/></symbol><symbol overflow="visible" id="6d431076ap"><path d="M2.84-7.67A4.53 4.53 0 00.92-3.91c0 2.72 1.9 4.3 5.1 4.3 2.21 0 4.17-.95 5.76-2.52l1.13 2.4 4.89-.7a87.98 87.98 0 01-.33-7.12V-9.8c0-4.62-2.38-6.84-7.4-6.84-3.12 0-6.4.92-8.41 2.31l1.42 3.52a13.1 13.1 0 015.26-1.33c1.75 0 2.47.62 2.61 2.45-3.9.33-6.57.92-8.1 2.02zm3.94 2.7c0-.56.2-.92.56-1.19.5-.36 1.57-.56 3.64-.65v2.31c-.98.66-1.95 1-2.78 1-1.06 0-1.42-.56-1.42-1.47zm0 0"/></symbol><symbol overflow="visible" id="6d431076aq"><path d="M6.55-16.58l-4.9.66c.24 4.5.33 6.33.33 7.95V0H8.5v-9.4a4.92 4.92 0 013.4-1.32c.77 0 1.5.06 2.22.24l.86-5.47a5.94 5.94 0 00-2.73-.7c-2 0-3.31 1.23-4.38 3.09zm0 0"/></symbol><symbol overflow="visible" id="6d431076ar"><path d="M8.34-24.88l-6.48.13v20.52c0 3.2 1.75 4.62 4.5 4.62 1.42 0 3.1-.27 4.5-.75l-.64-4.2c-.33.1-.56.1-.83.1-.78 0-1.05-.4-1.05-1.56zm0 0"/></symbol><symbol overflow="visible" id="6d431076as"><path d="M2.05-21.31c0 1.56 1.15 2.72 3.08 2.72 2.12 0 3.4-1.3 3.4-3.05 0-1.55-1.12-2.75-3.03-2.75-2.13 0-3.45 1.27-3.45 3.08zm6.39 5.03l-6.52.1V0h6.52zm0 0"/></symbol><symbol overflow="visible" id="6d431076at"><path d="M20.19-16.25h-6.33l-4.23 5.6h-1.2v-14.22l-6.5.12V0h6.5v-6.1h1.34l3.9 6.1h6.94a5.2 5.2 0 00-1.05-2.48l-4.84-6.35 4.17-5c.9-1.15 1.3-1.69 1.3-2.42zm0 0"/></symbol><symbol overflow="visible" id="6d431076au"><path d="M30.34-22.17H19.98L17.44-8.83h-.17l-.93-4.28-2.45-9.06H3.55L1.22-4.9C1.03-3.3.77-1.63.77 0h7.4l1.27-14.23h.12l1.03 6.68L12.34.03 21.47 0l2.72-14.23h.12l.38 6.68L25.6 0h7.55c0-1.4-.2-2.78-.41-4.17zm0 0"/></symbol><symbol overflow="visible" id="6d431076av"><path d="M2.25-7.7A4.25 4.25 0 00.62-4.17C.63-1.16 2.75.39 6.1.39a7.5 7.5 0 005.63-2.6L13.3.28l6.03-.88c-.24-4.27-.38-5.96-.33-7.55V-10c0-4.53-2.66-7.05-8.44-7.05-3.34 0-7.12.86-9.26 2.13l1.54 4.23a18.3 18.3 0 015.3-1.03c1.63 0 2.25.47 2.42 1.66-3.75.37-6.69 1-8.31 2.36zm5.72 2.1c0-.35.08-.65.34-.88.33-.27.99-.4 2.31-.44v2.33c-.46.21-.93.36-1.39.36-1 0-1.26-.63-1.26-1.36zm0 0"/></symbol><symbol overflow="visible" id="6d431076aw"><path d="M7.14-17l-6.05.86c.24 4.83.36 6.78.36 8.6V0h8.38v-9a4.8 4.8 0 012.67-.77c.8 0 1.63.08 2.33.24l1.01-6.81c-.82-.44-1.9-.7-2.84-.7-1.95 0-3.17 1.23-4.06 3zm0 0"/></symbol><symbol overflow="visible" id="6d431076ax"><path d="M9.66-24.88l-8.36.13V-4.7C1.3-1.1 3.47.4 6.28.4c1.86 0 3.84-.34 5.47-.9l-.53-5.13c-.2.04-.33.04-.5.04-.8 0-1.06-.43-1.06-1.6zm0 0"/></symbol><symbol overflow="visible" id="6d431076ay"><path d="M1.86-21.77c0 1.75 1.39 3.14 3.7 3.14 2.58 0 4.1-1.5 4.1-3.54 0-1.78-1.32-3.17-3.64-3.17-2.58 0-4.16 1.42-4.16 3.57zm7.9 5.07l-8.37.12V0h8.38zm0 0"/></symbol><symbol overflow="visible" id="6d431076az"><path d="M9.77-24.88l-8.38.13V0h8.38v-5.6h.68L13.41 0h8.82a5.28 5.28 0 00-1.09-2.94l-4.2-6.1 3.43-4.66c1.1-1.52 1.57-2.08 1.57-2.94h-7.97l-3.55 5.62h-.65zm0 0"/></symbol></defs><use xlink:href="#6d431076a" x="54.73529" y="58.85246"/><use xlink:href="#6d431076b" x="83.68829" y="58.85246"/><use xlink:href="#6d431076c" x="100.39679" y="58.85246"/><use xlink:href="#6d431076d" x="112.77179" y="58.85246"/><use xlink:href="#6d431076e" x="120.87629" y="58.85246"/><use xlink:href="#6d431076f" x="128.48579" y="58.85246"/><g fill-opacity=".33"><use xlink:href="#6d431076g" x="63.33333" y="94.7049"/><use xlink:href="#6d431076h" x="70.00033" y="94.7049"/><use xlink:href="#6d431076i" x="76.66733" y="94.7049"/><use xlink:href="#6d431076j" x="83.33433" y="94.7049"/><use xlink:href="#6d431076k" x="90.00133" y="94.7049"/><use xlink:href="#6d431076l" x="96.66833" y="94.7049"/><use xlink:href="#6d431076m" x="103.33533" y="94.7049"/><use xlink:href="#6d431076n" x="110.00233" y="94.7049"/><use xlink:href="#6d431076o" x="116.66933" y="94.7049"/><use xlink:href="#6d431076k" x="123.33633" y="94.7049"/><use xlink:href="#6d431076p" x="130.00333" y="94.7049"/></g><use xlink:href="#6d431076q" x="53.51103" y="157.88936"/><use xlink:href="#6d431076r" x="82.92753" y="157.88936"/><use xlink:href="#6d431076s" x="99.92403" y="157.88936"/><use xlink:href="#6d431076t" x="112.73553" y="157.88936"/><use xlink:href="#6d431076u" x="121.27203" y="157.88936"/><use xlink:href="#6d431076v" x="129.26853" y="157.88936"/><g fill-opacity=".33"><use xlink:href="#6d431076g" x="43.33333" y="193.7418"/><use xlink:href="#6d431076h" x="50.00033" y="193.7418"/><use xlink:href="#6d431076i" x="56.66733" y="193.7418"/><use xlink:href="#6d431076j" x="63.33433" y="193.7418"/><use xlink:href="#6d431076k" x="70.00133" y="193.7418"/><use xlink:href="#6d431076l" x="76.66833" y="193.7418"/><use xlink:href="#6d431076m" x="83.33533" y="193.7418"/><use xlink:href="#6d431076w" x="90.00233" y="193.7418"/><use xlink:href="#6d431076x" x="96.66933" y="193.7418"/><use xlink:href="#6d431076y" x="103.33633" y="193.7418"/><use xlink:href="#6d431076i" x="110.00333" y="193.7418"/><use xlink:href="#6d431076h" x="116.67033" y="193.7418"/><use xlink:href="#6d431076j" x="123.33733" y="193.7418"/><use xlink:href="#6d431076k" x="130.00433" y="193.7418"/><use xlink:href="#6d431076z" x="136.67133" y="193.7418"/><use xlink:href="#6d431076o" x="143.33833" y="193.7418"/><use xlink:href="#6d431076y" x="150.00533" y="193.7418"/></g><use xlink:href="#6d431076A" x="52.23713" y="256.92626"/><use xlink:href="#6d431076B" x="82.14863" y="256.92626"/><use xlink:href="#6d431076C" x="99.38813" y="256.92626"/><use xlink:href="#6d431076D" x="112.65863" y="256.92626"/><use xlink:href="#6d431076E" x="121.65863" y="256.92626"/><use xlink:href="#6d431076F" x="129.99713" y="256.92626"/><g fill-opacity=".33"><use xlink:href="#6d431076g" x="60" y="292.7787"/><use xlink:href="#6d431076h" x="66.667" y="292.7787"/><use xlink:href="#6d431076i" x="73.334" y="292.7787"/><use xlink:href="#6d431076j" x="80.001" y="292.7787"/><use xlink:href="#6d431076k" x="86.668" y="292.7787"/><use xlink:href="#6d431076l" x="93.335" y="292.7787"/><use xlink:href="#6d431076m" x="100.002" y="292.7787"/><use xlink:href="#6d431076G" x="106.669" y="292.7787"/><use xlink:href="#6d431076k" x="113.336" y="292.7787"/><use xlink:href="#6d431076z" x="120.003" y="292.7787"/><use xlink:href="#6d431076o" x="126.67" y="292.7787"/><use xlink:href="#6d431076y" x="133.337" y="292.7787"/></g><use xlink:href="#6d431076H" x="51.27757" y="355.96316"/><use xlink:href="#6d431076I" x="81.55357" y="355.96316"/><use xlink:href="#6d431076J" x="99.00457" y="355.96316"/><use xlink:href="#6d431076K" x="112.58557" y="355.96316"/><use xlink:href="#6d431076L" x="121.93657" y="355.96316"/><use xlink:href="#6d431076M" x="130.52257" y="355.96316"/><g fill-opacity=".33"><use xlink:href="#6d431076g" x="53.33333" y="391.8156"/><use xlink:href="#6d431076h" x="60.00033" y="391.8156"/><use xlink:href="#6d431076i" x="66.66733" y="391.8156"/><use xlink:href="#6d431076j" x="73.33433" y="391.8156"/><use xlink:href="#6d431076k" x="80.00133" y="391.8156"/><use xlink:href="#6d431076l" x="86.66833" y="391.8156"/><use xlink:href="#6d431076m" x="93.33533" y="391.8156"/><use xlink:href="#6d431076N" x="100.00233" y="391.8156"/><use xlink:href="#6d431076O" x="106.66933" y="391.8156"/><use xlink:href="#6d431076z" x="113.33633" y="391.8156"/><use xlink:href="#6d431076P" x="120.00333" y="391.8156"/><use xlink:href="#6d431076j" x="126.67033" y="391.8156"/><use xlink:href="#6d431076h" x="133.33733" y="391.8156"/><use xlink:href="#6d431076i" x="140.00433" y="391.8156"/></g><use xlink:href="#6d431076Q" x="50.28493" y="454.99996"/><use xlink:href="#6d431076R" x="80.92543" y="454.99996"/><use xlink:href="#6d431076S" x="98.60593" y="454.99996"/><use xlink:href="#6d431076T" x="112.55143" y="454.99996"/><use xlink:href="#6d431076U" x="122.26693" y="454.99996"/><use xlink:href="#6d431076V" x="131.17243" y="454.99996"/><g fill-opacity=".33"><use xlink:href="#6d431076g" x="56.66667" y="490.8524"/><use xlink:href="#6d431076h" x="63.33367" y="490.8524"/><use xlink:href="#6d431076i" x="70.00067" y="490.8524"/><use xlink:href="#6d431076j" x="76.66767" y="490.8524"/><use xlink:href="#6d431076k" x="83.33467" y="490.8524"/><use xlink:href="#6d431076l" x="90.00167" y="490.8524"/><use xlink:href="#6d431076m" x="96.66867" y="490.8524"/><use xlink:href="#6d431076g" x="103.33567" y="490.8524"/><use xlink:href="#6d431076O" x="110.00267" y="490.8524"/><use xlink:href="#6d431076W" x="116.66967" y="490.8524"/><use xlink:href="#6d431076k" x="123.33667" y="490.8524"/><use xlink:href="#6d431076P" x="130.00367" y="490.8524"/><use xlink:href="#6d431076X" x="136.67067" y="490.8524"/></g><use xlink:href="#6d431076Y" x="49.09375" y="554.03686"/><use xlink:href="#6d431076Z" x="80.19775" y="554.03686"/><use xlink:href="#6d431076aa" x="98.13025" y="554.03686"/><use xlink:href="#6d431076ab" x="112.52575" y="554.03686"/><use xlink:href="#6d431076ac" x="122.65075" y="554.03686"/><g><use xlink:href="#6d431076ad" x="131.88025" y="554.03686"/></g><g fill-opacity=".33"><use xlink:href="#6d431076g" x="50" y="589.8893"/><use xlink:href="#6d431076h" x="56.667" y="589.8893"/><use xlink:href="#6d431076i" x="63.334" y="589.8893"/><use xlink:href="#6d431076j" x="70.001" y="589.8893"/><use xlink:href="#6d431076k" x="76.668" y="589.8893"/><use xlink:href="#6d431076l" x="83.335" y="589.8893"/><use xlink:href="#6d431076m" x="90.002" y="589.8893"/><use xlink:href="#6d431076ae" x="96.669" y="589.8893"/><use xlink:href="#6d431076O" x="103.336" y="589.8893"/><use xlink:href="#6d431076X" x="110.003" y="589.8893"/><use xlink:href="#6d431076k" x="116.67" y="589.8893"/><use xlink:href="#6d431076af" x="123.337" y="589.8893"/><use xlink:href="#6d431076ag" x="130.004" y="589.8893"/><use xlink:href="#6d431076j" x="136.671" y="589.8893"/><use xlink:href="#6d431076W" x="143.338" y="589.8893"/></g><g><use xlink:href="#6d431076ah" x="47.72059" y="653.07376"/></g><g><use xlink:href="#6d431076ai" x="79.38709" y="653.07376"/></g><g><use xlink:href="#6d431076aj" x="97.78309" y="653.07376"/></g><g><use xlink:href="#6d431076ak" x="112.47559" y="653.07376"/></g><g><use xlink:href="#6d431076al" x="122.96509" y="653.07376"/><use xlink:href="#6d431076am" x="132.59509" y="653.07376"/></g><g fill-opacity=".33"><use xlink:href="#6d431076g" x="63.33333" y="688.9262"/><use xlink:href="#6d431076h" x="70.00033" y="688.9262"/><use xlink:href="#6d431076i" x="76.66733" y="688.9262"/><use xlink:href="#6d431076j" x="83.33433" y="688.9262"/><use xlink:href="#6d431076k" x="90.00133" y="688.9262"/><use xlink:href="#6d431076l" x="96.66833" y="688.9262"/><use xlink:href="#6d431076m" x="103.33533" y="688.9262"/><use xlink:href="#6d431076an" x="110.00233" y="688.9262"/><use xlink:href="#6d431076ag" x="116.66933" y="688.9262"/><use xlink:href="#6d431076j" x="123.33633" y="688.9262"/><use xlink:href="#6d431076W" x="130.00333" y="688.9262"/></g><g><use xlink:href="#6d431076ao" x="45.13971" y="752.11066"/><use xlink:href="#6d431076ap" x="77.86371" y="752.11066"/><use xlink:href="#6d431076aq" x="97.13271" y="752.11066"/></g><g><use xlink:href="#6d431076ar" x="112.39671" y="752.11066"/><use xlink:href="#6d431076as" x="123.56571" y="752.11066"/><use xlink:href="#6d431076at" x="133.92471" y="752.11066"/></g><g fill-opacity=".33"><use xlink:href="#6d431076g" x="46.66667" y="787.9631"/><use xlink:href="#6d431076h" x="53.33367" y="787.9631"/><use xlink:href="#6d431076i" x="60.00067" y="787.9631"/><use xlink:href="#6d431076j" x="66.66767" y="787.9631"/><use xlink:href="#6d431076k" x="73.33467" y="787.9631"/><use xlink:href="#6d431076l" x="80.00167" y="787.9631"/><use xlink:href="#6d431076m" x="86.66867" y="787.9631"/><use xlink:href="#6d431076w" x="93.33567" y="787.9631"/><use xlink:href="#6d431076x" x="100.00267" y="787.9631"/><use xlink:href="#6d431076y" x="106.66967" y="787.9631"/><use xlink:href="#6d431076i" x="113.33667" y="787.9631"/><use xlink:href="#6d431076h" x="120.00367" y="787.9631"/><use xlink:href="#6d431076af" x="126.67067" y="787.9631"/><use xlink:href="#6d431076ag" x="133.33767" y="787.9631"/><use xlink:href="#6d431076j" x="140.00467" y="787.9631"/><use xlink:href="#6d431076W" x="146.67167" y="787.9631"/></g><g><use xlink:href="#6d431076au" x="42.27757" y="851.14756"/><use xlink:href="#6d431076av" x="76.15807" y="851.14756"/><use xlink:href="#6d431076aw" x="96.35857" y="851.14756"/><use xlink:href="#6d431076ax" x="112.28407" y="851.14756"/></g><g><use xlink:href="#6d431076ay" x="124.24957" y="851.14756"/><use xlink:href="#6d431076az" x="135.40507" y="851.14756"/></g><g fill-opacity=".33"><use xlink:href="#6d431076g" x="60" y="887"/><use xlink:href="#6d431076h" x="66.667" y="887"/><use xlink:href="#6d431076i" x="73.334" y="887"/><use xlink:href="#6d431076j" x="80.001" y="887"/><use xlink:href="#6d431076k" x="86.668" y="887"/><use xlink:href="#6d431076l" x="93.335" y="887"/><use xlink:href="#6d431076m" x="100.002" y="887"/><use xlink:href="#6d431076an" x="106.669" y="887"/><use xlink:href="#6d431076j" x="113.336" y="887"/><use xlink:href="#6d431076h" x="120.003" y="887"/><use xlink:href="#6d431076aA" x="126.67" y="887"/><use xlink:href="#6d431076l" x="133.337" y="887"/></g></svg>