<?xml version='1.0' encoding='UTF-8'?>
<svg xmlns="http://www.w3.org/2000/svg" xmlns:xlink="http://www.w3.org/1999/xlink" width="600px" height="300px" viewBox="0 0 600 300" x="0px" y="0px" enable-background="new 0 0 600 300"><defs><symbol overflow="visible" id="4055cb41a"><path d="M21.36-13.28c0 6.15-3.05 8.08-8.64 8.08-3.13 0-5.6-.4-8.4-.88L3.43-.16c3.36.88 5.76 1.28 10 1.28 9.04 0 14.64-4.96 14.64-14.4C28.08-30.64 10-35.12 10-49.68c0-5.04 2.4-7.68 8.08-7.68 3.12 0 5.51.4 8.4.88l.8-5.83a31.26 31.26 0 00-10-1.38c-8.4 0-14 4.49-14 14 0 18.17 18.08 22.74 18.08 36.4zm0 0"/></symbol><symbol overflow="visible" id="4055cb41b"><path d="M4.56-14.88C4.56-4 8.56.96 17.36.96S30.16-4 30.16-14.87v-14.57c0-10.97-4-15.84-12.8-15.84s-12.8 4.87-12.8 15.84zm6.4 0v-14.56c0-7.36 1.52-10.25 6.4-10.25 5.05 0 6.48 2.9 6.48 10.25v14.57c0 7.35-1.43 10.23-6.48 10.23-4.88 0-6.4-2.88-6.4-10.23zm0 0"/></symbol><symbol overflow="visible" id="4055cb41c"><path d="M4.56-13.92C4.56-3.36 8.88.72 16.8.72c3.43 0 6.4-.56 8.64-1.13l-.72-5.1c-2.24.46-4.8.63-6.56.63-5.2 0-7.11-2.48-7.11-10.48v-14.33c0-6.62 1.6-9.75 6.8-9.75 1.67 0 3.67.24 6.46.64l.82-5.04a25.6 25.6 0 00-8.08-1.2c-8.57 0-12.49 4.73-12.49 13.91zm0 0"/></symbol><symbol overflow="visible" id="4055cb41d"><path d="M24.95 0h6.64l-9.03-20.95 8.16-23.28h-6.64l-7.13 20.87h-4.54v-39.2H6V0h6.4v-17.44h4.72zm0 0"/></symbol><symbol overflow="visible" id="4055cb41e"><path d="M24.88-10.48c0-13.04-14.8-13.11-14.8-23.36 0-3.85 2-5.6 5.92-5.6 2 0 4.64.24 7.52.72l.8-5.05a30.18 30.18 0 00-9.04-1.28c-7.05 0-11.44 3.77-11.44 10.9 0 14.63 14.72 14.63 14.72 23.67 0 3.84-1.92 5.6-6 5.6-2 0-5.12-.4-7.92-.89L3.7-.64C7.05.23 9.59.72 12.72.72c7.76 0 12.15-3.44 12.15-11.2zm0 0"/></symbol><symbol overflow="visible" id="4055cb41f"><path d="M4.48-26.08v5.52H9.6c.18 1.76.25 3.36.25 4.64.08 6.87-2.07 10-6.15 10V0h25.26v-5.92H13.52c1.84-2.4 2.89-5.67 2.89-9.92 0-1.44-.1-3.04-.25-4.72h8.48v-5.52H15.7c-.56-5.69-1.38-11.44-1.38-14.15 0-5.2 1.69-7.13 6.4-7.13 2.5 0 4.98.23 7.77.72l.88-5.28a30.85 30.85 0 00-9.44-1.36c-8.08 0-12.15 3.84-12.15 12.4 0 3.11.8 9.11 1.36 14.8zm0 0"/></symbol><symbol overflow="visible" id="4055cb41g"><path d="M28.56-12.8c0-6.72-2.4-10.48-6.8-12.25 3.68-2.15 5.93-6.3 5.93-13.82 0-9.13-4-14.41-12.64-14.41-4.4 0-7.7.87-11.05 2.08l1.2 5.36c2.88-.8 5.85-1.52 9.11-1.52 4.56 0 6.9 2.08 6.9 9.13 0 8.54-2.41 10.95-8.5 10.95h-2.15v5.6h2.08c6.72 0 9.52 1.84 9.52 8.4 0 6.87-2.96 8.4-8.4 8.4-3.28 0-6.32-.71-9.2-1.53l-1.2 5.36c3.36 1.2 6.16 2.17 11.2 2.17 9.36 0 14-4.64 14-13.92zm0 0"/></symbol><symbol overflow="visible" id="4055cb41h"><path d="M28.48-39.69c0-8.54-4.07-13.6-12.48-13.6-4.23 0-7.6.88-10.95 2.16l1.18 5.36c2.9-.8 5.93-1.59 9.05-1.59 4.4 0 6.8 2.16 6.8 7.36C22.08-25.2 4.4-22.95 4.4-7.6V0h23.36v-5.92H10.95v-1.6c0-12.64 17.53-14.4 17.53-32.17zm0 0"/></symbol><symbol overflow="visible" id="4055cb41i"><path d="M3.83 0v-5.95H6.2v-.82H.45v.82h2.4V0zm0 0"/></symbol><symbol overflow="visible" id="4055cb41j"><path d="M5.75-2.23v-.43c0-1.6-.9-2.51-2.42-2.51S.87-4.16.87-2.48c0 1.71.91 2.62 2.5 2.62 1.43 0 2.07-.56 2.29-1.52l-.9-.09c-.18.61-.59.9-1.35.9-.94 0-1.52-.54-1.58-1.66zm-2.4-2.2c.93 0 1.43.5 1.48 1.55H1.84c.08-1.07.6-1.56 1.5-1.56zm0 0"/></symbol><symbol overflow="visible" id="4055cb41k"><path d="M1.83 0l1.42-2h.06l1.46 2H5.8L4-2.53l1.78-2.49H4.8L3.42-3.08h-.08l-1.4-1.94H.89l1.78 2.49L.84 0zm0 0"/></symbol><symbol overflow="visible" id="4055cb41l"><path d="M5.52-4.25v-.77H3.17v-1.56h-.81l-.14 1.56H.75v.77h1.47v2.4c0 1.3.48 1.94 1.84 1.94C4.6.1 5.14 0 5.55-.14L5.4-.91c-.32.13-.72.2-1.13.2-.8 0-1.1-.37-1.1-1.23v-2.31zm0 0"/></symbol><symbol overflow="visible" id="4055cb41m"><path d="M3.33-3.42c.47 0 .8-.27.8-.8 0-.51-.33-.8-.8-.8-.47 0-.8.29-.8.8 0 .53.33.8.8.8zm0 3.5c.47 0 .8-.27.8-.78 0-.53-.33-.82-.8-.82-.47 0-.8.29-.8.82 0 .51.33.78.8.78zm0 0"/></symbol><symbol overflow="visible" id="4055cb41o"><path d="M3.42.14c1.61 0 2.56-.75 2.56-2 0-1.1-.67-1.6-1.95-1.86l-.97-.2c-.87-.17-1.23-.49-1.23-1.11 0-.7.54-1.11 1.5-1.11 1.06 0 1.51.34 1.69 1.23l.9-.09c-.17-1.28-.98-1.9-2.6-1.9C1.79-6.9.9-6.18.9-4.98c0 1.06.66 1.66 1.88 1.9l1.01.2c.85.17 1.25.4 1.25 1.09 0 .73-.6 1.16-1.6 1.16-1.07 0-1.66-.4-1.8-1.24l-.94.1C.83-.53 1.75.13 3.42.13zm0 0"/></symbol><symbol overflow="visible" id="4055cb41p"><path d="M3.33.14c1.62 0 2.5-.95 2.5-2.66 0-1.68-.88-2.64-2.5-2.64-1.63 0-2.5.96-2.5 2.64 0 1.7.87 2.66 2.5 2.66zm0-.77c-1.06 0-1.52-.6-1.52-1.89 0-1.28.46-1.87 1.52-1.87 1.08 0 1.53.6 1.53 1.87 0 1.29-.45 1.9-1.53 1.9zm0 0"/></symbol><symbol overflow="visible" id="4055cb41q"><path d="M3.34.14c1.43 0 2.13-.66 2.25-1.78l-.89-.1c-.1.7-.5 1.08-1.34 1.08-1.03 0-1.52-.64-1.52-1.84 0-1.23.47-1.86 1.52-1.86.84 0 1.23.36 1.34 1.08l.9-.1c-.13-1.09-.82-1.78-2.26-1.78-1.56 0-2.46.97-2.46 2.66 0 1.66.9 2.64 2.46 2.64zm0 0"/></symbol><symbol overflow="visible" id="4055cb41r"><path d="M5.77-5.02H4.63L2.3-2.88h-.06v-4.26h-.94V0h.94v-2.31h.06L4.71 0h1.24L3.23-2.69zm0 0"/></symbol><symbol overflow="visible" id="4055cb41s"><path d="M3.36.16c1.4 0 2.2-.6 2.2-1.57 0-.89-.54-1.22-1.47-1.39L3-3c-.67-.14-.86-.33-.86-.73 0-.5.4-.74 1.17-.74.83 0 1.19.27 1.27.8l.9-.05c-.12-1-.8-1.47-2.17-1.47-1.34 0-2.1.53-2.1 1.5 0 .81.45 1.22 1.52 1.44l1.04.2c.56.11.87.24.87.72 0 .52-.45.78-1.28.78-.95 0-1.36-.28-1.42-.87l-.9.06C1.07-.36 1.8.16 3.35.16zm0 0"/></symbol><symbol overflow="visible" id="4055cb41t"><path d="M2.86-2.1c0-.23-.03-.46-.08-.7h1.9v-.7H2.62c-.1-.4-.19-.81-.19-1.25 0-1 .5-1.36 1.36-1.36 1.03 0 1.33.5 1.45 1.33l.91-.11c-.16-1.16-.72-2.02-2.37-2.02-1.41 0-2.29.68-2.29 2.1 0 .43.1.89.2 1.31H.85v.7h.98c.07.27.1.52.1.74 0 .81-.49 1.25-1.22 1.25V0h5.34v-.81H2.31c.33-.25.55-.66.55-1.3zm0 0"/></symbol><symbol overflow="visible" id="4055cb41u"><path d="M3.25.14c1.58 0 2.53-.69 2.53-1.95 0-1.19-.92-1.56-1.6-1.61v-.05A1.6 1.6 0 005.6-5.12c0-1.13-.87-1.79-2.3-1.79-1.62 0-2.32.82-2.45 1.88l.97.06c.13-.69.52-1.1 1.47-1.1.86 0 1.35.32 1.35 1.05 0 .86-.6 1.2-1.66 1.2h-.49v.79h.54c1.12 0 1.78.25 1.78 1.14 0 .78-.46 1.22-1.55 1.22-1.06 0-1.48-.4-1.63-1.1l-.98.07C.75-.56 1.56.14 3.25.14zm0 0"/></symbol><symbol overflow="visible" id="4055cb41v"><path d="M5.67 0v-.86H2.14V-.9L3.6-2c1.05-.83 2-1.68 2-2.91 0-1.19-.73-1.99-2.26-1.99-1.66 0-2.3 1.02-2.44 2.33l1 .08c.1-.92.42-1.58 1.44-1.58.87 0 1.26.44 1.26 1.24 0 .9-.8 1.53-1.96 2.53L.83-.81V0zm0 0"/></symbol><symbol overflow="visible" id="4055cb41w"><path d="M5.95-6.77H1.1V0h.99v-2.92H5.3v-.77H2.08v-2.26h3.87zm0 0"/></symbol><symbol overflow="visible" id="4055cb41x"><path d="M2.83.14c.94 0 1.5-.39 1.81-.95h.08l.1.81h.76v-3.38c0-1.23-.69-1.8-2.13-1.8-1.43 0-2.03.65-2.18 1.6l.93.1c.11-.6.44-.93 1.22-.93.85 0 1.22.32 1.22 1.04v.34l-1.81.2C1.6-2.7 1.1-2.17 1.1-1.28c0 .92.64 1.42 1.72 1.42zm.25-.77c-.67 0-1.02-.28-1.02-.74 0-.44.28-.72 1-.82l1.58-.19v.41c0 .8-.6 1.34-1.56 1.34zm0 0"/></symbol><symbol overflow="visible" id="4055cb41y"><path d="M2.73.14c.9 0 1.43-.45 1.74-1.08h.06l.13.94h.8v-5.02h-.94v2.7c0 .98-.57 1.62-1.46 1.62-.75 0-1.1-.4-1.1-1.22v-3.1h-.93v3.32c0 1.17.55 1.84 1.7 1.84zm0 0"/></symbol><symbol overflow="visible" id="4055cb41z"><path d="M5.08-5.16c-.94 0-1.58.43-1.9 1.3h-.09l-.07-1.16H1.05v.77h1.1v3.48H.96V0h3.96v-.77H3.1v-1.46c0-1.36.6-2.05 1.83-2.05.4 0 .76.08 1.1.17l.15-.87c-.33-.11-.7-.18-1.11-.18zm0 0"/></symbol><symbol overflow="visible" id="4055cb41A"><path d="M3.16 2.03c1.67 0 2.4-.86 2.4-2.51v-4.54h-.81l-.13.91h-.06c-.26-.58-.8-1.05-1.73-1.05-1.42 0-2.24 1-2.24 2.52 0 1.6.75 2.56 2.2 2.56.94 0 1.5-.5 1.77-1.03h.05v.72c0 1.17-.42 1.67-1.45 1.67-.93 0-1.3-.34-1.41-.89L.8.5c.12.96.87 1.54 2.36 1.54zM3.06-.8c-.98 0-1.48-.57-1.48-1.82 0-1.13.5-1.75 1.48-1.75 1.06 0 1.58.76 1.58 1.75 0 .95-.56 1.82-1.58 1.82zm0 0"/></symbol><symbol overflow="visible" id="4055cb41B"><path d="M3.92-7.14H1.36v.76h1.6v5.61H1.15V0H5.7v-.77H3.92zm0 0"/></symbol><symbol overflow="visible" id="4055cb41C"><path d="M2.06 1.9V-.84h.05c.28.58.8.97 1.77.97 1.5 0 2.2-.98 2.2-2.66 0-1.65-.7-2.64-2.19-2.64-.97 0-1.5.44-1.78 1.05h-.08l-.1-.9H1.1v6.9zm1.5-2.56c-1.06 0-1.53-.8-1.53-1.86 0-1.04.47-1.84 1.53-1.84 1.11 0 1.53.61 1.53 1.84 0 1.27-.42 1.86-1.53 1.86zm0 0"/></symbol><symbol overflow="visible" id="4055cb41D"><path d="M2.16 0v-2.67c0-.99.59-1.63 1.46-1.63.74 0 1.07.38 1.07 1.22V0h.95v-3.31c0-1.2-.56-1.85-1.67-1.85-.92 0-1.49.46-1.77 1.08h-.06l-.12-.94H1.2V0zm0 0"/></symbol><symbol overflow="visible" id="4055cb41E"><path d="M2.58.95l2.39-8.67h-.9L1.7.95zm0 0"/></symbol><symbol overflow="visible" id="4055cb41F"><path d="M2.84.14C3.8.14 4.33-.26 4.6-.9h.07L4.8 0h.76v-7.14h-.95v2.95h-.08c-.28-.6-.86-.97-1.67-.97-1.48 0-2.27.99-2.27 2.64C.6-.84 1.36.14 2.84.14zm.22-.8c-.98 0-1.48-.59-1.48-1.84s.5-1.86 1.48-1.86c1.13 0 1.58.8 1.58 1.86S4.2-.66 3.06-.66zm0 0"/></symbol><symbol overflow="visible" id="4055cb41G"><path d="M4.63-6.5c.45 0 .98.08 1.39.2l.2-.72a5.3 5.3 0 00-1.64-.26c-1.52 0-2.16.56-2.16 1.87v.4H.9v.76h1.53V0h.94v-4.25h2.53v-.77H3.36v-.3c0-.84.33-1.18 1.27-1.18zm0 0"/></symbol><symbol overflow="visible" id="4055cb41H"><path d="M1.63 0v-2.9c0-.8.15-1.4.71-1.4.41 0 .55.3.55.88V0h.95v-2.9c0-.8.18-1.4.72-1.4.4 0 .57.3.57.88V0h.95v-3.63c0-.92-.28-1.53-1.11-1.53-.63 0-.95.41-1.1.9h-.06c-.1-.52-.44-.9-1.08-.9-.6 0-.93.41-1.06.9H1.6l-.23-.76H.67V0zm0 0"/></symbol><symbol overflow="visible" id="4055cb41I"><path d="M3.38-5.9c.12-.5.42-1.04.67-1.41l-.63-.22a4.28 4.28 0 00-1.01 2.39c0 .66.3 1 .9 1 .6 0 .9-.33.9-.9 0-.57-.32-.83-.83-.85zm0 0"/></symbol><symbol overflow="visible" id="4055cb41J"><path d="M3.42.14C5.1.14 5.9-.69 6.11-2.17l-.95-.1C4.96-1.19 4.5-.69 3.44-.69c-1.27 0-1.81-.94-1.81-2.69s.54-2.7 1.8-2.7c1.09 0 1.5.49 1.73 1.58l.93-.1c-.21-1.46-.95-2.3-2.62-2.3C1.53-6.9.62-5.6.62-3.38c0 2.2.91 3.51 2.8 3.51zm0 0"/></symbol><symbol overflow="visible" id="4055cb41K"><path d="M3.3-7.53c-.55 0-.85.3-.85.84 0 .55.36.8.83.8h.03a5.1 5.1 0 01-.69 1.47l.52.23a4.29 4.29 0 001.02-2.4c0-.63-.33-.94-.86-.94zm0 0"/></symbol><symbol overflow="visible" id="4055cb41L"><path d="M3.34-1.56c-.54 0-.82.31-.82.86 0 .5.3.78.76.78-.08.4-.34.95-.65 1.39l.53.25c.57-.67 1-1.67 1-2.36 0-.6-.3-.92-.82-.92zm0 0"/></symbol><symbol overflow="visible" id="4055cb41M"><path d="M3.58-5.81c.42 0 .72-.22.72-.67 0-.44-.3-.68-.72-.68-.44 0-.72.24-.72.68 0 .45.28.67.72.67zm.5.8H1.52v.76h1.6v3.48h-1.8V0h4.46v-.77h-1.7zm0 0"/></symbol><symbol overflow="visible" id="4055cb41N"><path d="M1.45-2.95c0 2.56 1.08 4.37 3.67 4.84l.11-.67C3.28.86 2.43-.75 2.43-2.95s.85-3.82 2.8-4.16l-.1-.69c-2.6.49-3.68 2.3-3.68 4.85zm0 0"/></symbol><symbol overflow="visible" id="4055cb41O"><path d="M3.33.14c1.65 0 2.6-1.1 2.6-3.52S4.99-6.9 3.34-6.9C1.67-6.9.72-5.8.72-3.37c0 2.4.95 3.51 2.6 3.51zm0-.84c-1.13 0-1.6-.85-1.6-2.67 0-1.86.47-2.7 1.6-2.7 1.12 0 1.6.84 1.6 2.7 0 1.82-.48 2.67-1.6 2.67zM3.3-2.64c.38 0 .56-.28.56-.72 0-.44-.18-.7-.56-.7-.39 0-.56.26-.56.7 0 .44.17.72.56.72zm0 0"/></symbol><symbol overflow="visible" id="4055cb41P"><path d="M5.1 0v-1.47H6v-.81h-.9v-4.49H3.8L.48-2.23v.76h3.66V0zM1.5-2.33l2.6-3.53h.04v3.58H1.5zm0 0"/></symbol><symbol overflow="visible" id="4055cb41Q"><path d="M1.45-7.1c1.96.33 2.8 1.94 2.8 4.15 0 2.2-.84 3.8-2.8 4.17l.11.67c2.58-.47 3.67-2.28 3.67-4.84 0-2.55-1.09-4.36-3.67-4.85zm0 0"/></symbol><symbol overflow="visible" id="4055cb41R"><path d="M2.67-4.48l.19-2.85H1.9v2.85zm1.9 0l.2-2.85H3.8v2.85zm0 0"/></symbol></defs><use xlink:href="#4055cb41a" x="167.32" y="163" fill="#fff"/><use xlink:href="#4055cb41b" x="198.12" y="163" fill="#515151"/><use xlink:href="#4055cb41c" x="232.92" y="163" fill="#fff"/><use xlink:href="#4055cb41d" x="259.48" y="163" fill="#515151"/><use xlink:href="#4055cb41e" x="292.76" y="163" fill="#fff"/><use xlink:href="#4055cb41f" x="335" y="163" fill="#fff"/><use xlink:href="#4055cb41g" x="367.4" y="163" fill="#fff"/><use xlink:href="#4055cb41h" x="400.44" y="163" fill="#fff"/><g fill="#fff"><use xlink:href="#4055cb41i" x="250" y="252"/><use xlink:href="#4055cb41j" x="256.667" y="252"/><use xlink:href="#4055cb41k" x="263.334" y="252"/><use xlink:href="#4055cb41l" x="270.001" y="252"/><use xlink:href="#4055cb41m" x="276.668" y="252"/><use xlink:href="#4055cb41n" x="283.335" y="252"/><use xlink:href="#4055cb41o" x="290.002" y="252"/><use xlink:href="#4055cb41p" x="296.669" y="252"/><use xlink:href="#4055cb41q" x="303.336" y="252"/><use xlink:href="#4055cb41r" x="310.003" y="252"/><use xlink:href="#4055cb41s" x="316.67" y="252"/><use xlink:href="#4055cb41n" x="323.337" y="252"/><use xlink:href="#4055cb41t" x="330.004" y="252"/><use xlink:href="#4055cb41u" x="336.671" y="252"/><use xlink:href="#4055cb41v" x="343.338" y="252"/></g><g fill="#fff"><use xlink:href="#4055cb41w" x="53.33333" y="266"/><use xlink:href="#4055cb41j" x="60.00033" y="266"/><use xlink:href="#4055cb41x" x="66.66733" y="266"/><use xlink:href="#4055cb41l" x="73.33433" y="266"/><use xlink:href="#4055cb41y" x="80.00133" y="266"/><use xlink:href="#4055cb41z" x="86.66833" y="266"/><use xlink:href="#4055cb41j" x="93.33533" y="266"/><use xlink:href="#4055cb41m" x="100.00233" y="266"/><use xlink:href="#4055cb41n" x="106.66933" y="266"/><use xlink:href="#4055cb41i" x="113.33633" y="266"/><use xlink:href="#4055cb41p" x="120.00333" y="266"/><use xlink:href="#4055cb41A" x="126.67033" y="266"/><use xlink:href="#4055cb41A" x="133.33733" y="266"/><use xlink:href="#4055cb41B" x="140.00433" y="266"/><use xlink:href="#4055cb41j" x="146.67133" y="266"/><use xlink:href="#4055cb41n" x="153.33833" y="266"/><use xlink:href="#4055cb41p" x="160.00533" y="266"/><use xlink:href="#4055cb41C" x="166.67233" y="266"/><use xlink:href="#4055cb41j" x="173.33933" y="266"/><use xlink:href="#4055cb41D" x="180.00633" y="266"/><use xlink:href="#4055cb41E" x="186.67333" y="266"/><use xlink:href="#4055cb41q" x="193.34033" y="266"/><use xlink:href="#4055cb41B" x="200.00733" y="266"/><use xlink:href="#4055cb41p" x="206.67433" y="266"/><use xlink:href="#4055cb41s" x="213.34133" y="266"/><use xlink:href="#4055cb41j" x="220.00833" y="266"/><use xlink:href="#4055cb41F" x="226.67533" y="266"/><use xlink:href="#4055cb41n" x="233.34233" y="266"/><use xlink:href="#4055cb41G" x="240.00933" y="266"/><use xlink:href="#4055cb41p" x="246.67633" y="266"/><use xlink:href="#4055cb41z" x="253.34333" y="266"/><use xlink:href="#4055cb41H" x="260.01033" y="266"/><use xlink:href="#4055cb41s" x="266.67733" y="266"/><use xlink:href="#4055cb41n" x="273.34433" y="266"/><use xlink:href="#4055cb41p" x="280.01133" y="266"/><use xlink:href="#4055cb41G" x="286.67833" y="266"/><use xlink:href="#4055cb41n" x="293.34533" y="266"/><use xlink:href="#4055cb41I" x="300.01233" y="266"/><use xlink:href="#4055cb41J" x="306.67933" y="266"/><use xlink:href="#4055cb41K" x="313.34633" y="266"/><use xlink:href="#4055cb41L" x="320.01333" y="266"/><use xlink:href="#4055cb41n" x="326.68033" y="266"/><use xlink:href="#4055cb41I" x="333.34733" y="266"/><use xlink:href="#4055cb41o" x="340.01433" y="266"/><use xlink:href="#4055cb41K" x="346.68133" y="266"/><use xlink:href="#4055cb41L" x="353.34833" y="266"/><use xlink:href="#4055cb41n" x="360.01533" y="266"/><use xlink:href="#4055cb41x" x="366.68233" y="266"/><use xlink:href="#4055cb41D" x="373.34933" y="266"/><use xlink:href="#4055cb41F" x="380.01633" y="266"/><use xlink:href="#4055cb41n" x="386.68333" y="266"/><use xlink:href="#4055cb41s" x="393.35033" y="266"/><use xlink:href="#4055cb41M" x="400.01733" y="266"/><use xlink:href="#4055cb41H" x="406.68433" y="266"/><use xlink:href="#4055cb41M" x="413.35133" y="266"/><use xlink:href="#4055cb41B" x="420.01833" y="266"/><use xlink:href="#4055cb41x" x="426.68533" y="266"/><use xlink:href="#4055cb41z" x="433.35233" y="266"/><use xlink:href="#4055cb41n" x="440.01933" y="266"/><use xlink:href="#4055cb41B" x="446.68633" y="266"/><use xlink:href="#4055cb41j" x="453.35333" y="266"/><use xlink:href="#4055cb41l" x="460.02033" y="266"/><use xlink:href="#4055cb41l" x="466.68733" y="266"/><use xlink:href="#4055cb41j" x="473.35433" y="266"/><use xlink:href="#4055cb41z" x="480.02133" y="266"/><use xlink:href="#4055cb41s" x="486.68833" y="266"/><use xlink:href="#4055cb41n" x="493.35533" y="266"/><use xlink:href="#4055cb41N" x="500.02233" y="266"/><use xlink:href="#4055cb41s" x="506.68933" y="266"/><use xlink:href="#4055cb41s" x="513.35633" y="266"/><use xlink:href="#4055cb41O" x="520.02333" y="266"/><use xlink:href="#4055cb41P" x="526.69033" y="266"/><use xlink:href="#4055cb41Q" x="533.35733" y="266"/><use xlink:href="#4055cb41R" x="540.02433" y="266"/></g></svg>