<?xml version='1.0' encoding='UTF-8'?>
<svg xmlns="http://www.w3.org/2000/svg" xmlns:xlink="http://www.w3.org/1999/xlink" width="1000px" height="2100px" viewBox="0 0 1000 2100" y="0px" x="0px" enable-background="new 0 0 1000 2100"><defs><symbol overflow="visible" id="5ebcc716a"><path d="M32.125-100.797c-21.922 0-27.719 10.703-27.719 32.125v36.031c0 26.47 8.578 33.907 34.907 33.907L56.953 0v-19.281h-17.64c-8.829 0-11.594-2.64-11.594-13.36v-37.297c0-8.812-.125-11.968 4.406-11.968 4.547 0 4.422 3.156 4.422 11.969v23.312h20.406l1.266-23.313c0-21.406-5.172-30.859-26.094-30.859zm4.922-27.719l-5.172 9.703h-1l-5.297-9.703H8.563l2.53 6.922 9.188 14.5h22.063l8.937-14.5 2.766-6.922zm0 0"/></symbol><symbol overflow="visible" id="5ebcc716b"><path d="M6.297-98.906V0h47.5v-20.531H29.109v-18.532h19.657v-18.39H29.109v-20.922h24.688v-20.531zm0 0"/></symbol><symbol overflow="visible" id="5ebcc716c"><path d="M32.89-100.797c-20.171 0-27.843 9.453-27.843 27.094 0 34.14 33.125 32.25 33.125 50.766 0 6.312-1.375 8.203-5.797 8.203-4.406 0-5.656-2.532-5.656-10.094v-4.156H4.78l-.375 5.047c0 17.64 7.188 25.828 27.969 25.828 20.797 0 28.734-9.704 28.734-26.078 0-29.86-33.14-28.61-33.14-48.891 0-7.563.89-9.828 4.922-9.828 4.406 0 4.656 3.531 4.656 12.344v5.046h21.672l.625-7.562c0-18.906-6.172-27.719-26.953-27.719zm0 0"/></symbol><symbol overflow="visible" id="5ebcc716d"><path d="M42.344 0h24.062l-12.86-44.36 11.22-54.546H41.578l-7.687 44.719h-4.782v-44.72H6.297V0h22.812v-34.016h4.782zm0 0"/></symbol><symbol overflow="visible" id="5ebcc716e"><path d="M4.406-30.234c0 18.89 6.938 32.125 28.985 32.125s28.984-13.235 28.984-32.125v-38.438c0-18.89-6.938-32.125-28.984-32.125-22.047 0-28.985 13.234-28.985 32.125zm23.563 0v-38.438c0-9.453.375-13.234 5.422-13.234s5.422 3.781 5.422 13.234v38.438c0 9.437-.376 13.218-5.422 13.218-5.047 0-5.422-3.78-5.422-13.218zm0 0"/></symbol><symbol overflow="visible" id="5ebcc716f"><path d="M6.297-98.906V0H49.39v-20.531H29.609v-78.375zm0 0"/></symbol><symbol overflow="visible" id="5ebcc716g"><path d="M39.188-98.906l-4.032 52.281-1.515 27.719h-2.516l-1.14-27.719-4.782-52.281H1.266L13.734 0h36.922l12.469-98.906zm0 0"/></symbol><symbol overflow="visible" id="5ebcc716h"><path d="M47.25-98.906v25.203l2.516 42.453h-1.25l-4.672-24.813-11.078-42.843H6.296V0h20.798v-26.453l-2.657-42.469h1.266l4.281 24.828L41.704 0h26.343v-98.906zm0 0"/></symbol><symbol overflow="visible" id="5ebcc716i"><path d="M4.406-27.719c0 20.657 9.328 29.61 29.61 29.61 7.812 0 11.968-.25 19.656-2.141l-1.766-18.906c-5.156.64-9.312.89-13.984.89-7.813 0-10.203-3.156-10.203-13.234v-35.906c0-10.078 2.39-13.235 10.203-13.235 4.672 0 8.828.25 13.984.875l1.766-18.89c-7.688-1.89-11.844-2.14-19.656-2.14-20.282 0-29.61 8.937-29.61 29.609zm35.157-100.797l-5.172 9.703h-1l-5.297-9.703h-17l2.515 6.922 9.204 14.5h22.046l8.938-14.5 2.781-6.922zm0 0"/></symbol><symbol overflow="visible" id="5ebcc716j"><path d="M29.61-25.203c0 5.047-2.891 6.937-9.454 6.937-4.656 0-8.437-.25-13.61-.89L4.782-.25c7.688 1.89 11.844 2.14 18.407 2.14 20.28 0 29.734-9.578 29.734-26.453 0-28.609-25.828-33.906-25.828-49.14 0-5.047 2.89-6.938 10.328-6.938 3.406 0 7.562.25 12.719.875l1.765-18.89c-7.687-1.766-13.093-2.14-18.39-2.14-20.282 0-29.735 9.577-29.735 26.452 0 30.375 25.828 36.922 25.828 49.14zm0 0"/></symbol><symbol overflow="visible" id="5ebcc716k"><path d="M14.672-39.875c-6.047 0-9.031 4.188-9.031 10.484 0 10.797 9.234 10.844 9.171 20.422 0 4.578-2.312 7.11-6.39 7.11-1.719 0-3.078-.454-3.89-1.47-.798-1.155-.954-2.921-.595-5.093l.657-3.375H2.109c-.453 2.219-.953 4.188-.953 5.844 0 3.937 2.578 6.5 7.11 6.5 5.703 0 9.218-3.375 9.218-9.766 0-10.281-9.172-10.547-9.172-20.468 0-4.532 1.876-7.766 6.25-7.766 1.563 0 2.876.5 3.579 1.469.765 1.312.859 3.172.406 5.593l-1 5.547h2.406c.61-3.125 1.422-6.86 1.422-8.468 0-4.032-2.422-6.563-6.703-6.563zm0 0"/></symbol><symbol overflow="visible" id="5ebcc716l"><path d="M4.281-27.828L2.313-3.422C2.063-.609 3.078.297 5.39.297c.953 0 2.015-.297 2.78-.453l2.72-6.75c2.421-5.75 4.937-14.422 5.593-17.39-.25 2.015-1.015 11.39-1.156 14.312l-.36 6.906c-.093 2.469.813 3.375 2.97 3.375.921 0 2.125-.297 2.78-.453l2.876-7c2.062-4.985 5.75-15.938 6.14-20.672H27.22c-.547 4.937-3.985 15.422-5.89 20.312l-2.126 5.454a6.97 6.97 0 0 1-1.312.14c-.594-.14-.797-.547-.75-1.61l.297-7.312.859-16.984h-2.672c-1.156 4.89-4.234 14.375-6.75 20.312L6.609-2.062c-.515.093-.968.14-1.359.14-.563-.14-.766-.547-.656-1.562l.703-7.86L6.75-27.828zm0 0"/></symbol><symbol overflow="visible" id="5ebcc716m"><path d="M15.469-11.438c.812-3.53 1.875-8.328 1.875-11.046 0-3.735-2.078-5.891-5.844-5.891-5 0-6.906 3.172-8.078 9.719l-1.453 8.265C.609-2.67 3.03.297 9.375.297c1.516 0 3.328-.203 4.234-.297l.36-2.016h-4.39c-2.173 0-3.688-.406-4.595-1.312-1.109-1.313-1.203-3.578-.546-7.063l.203-1.046zM5.89-18.655c1.015-5.594 2.218-7.5 5.5-7.5 1.515 0 2.578.5 3.171 1.406.704 1.203.61 3.219.157 5.64l-1.016 5.547H4.984zm0 0"/></symbol><symbol overflow="visible" id="5ebcc716n"><path d="M10.438-35.078H8.421l-1.766 7.25H3.328l-.36 2.219h3.329L2.766-6.203C1.812-.86 3.875.297 7 .297c.969 0 2.469-.203 3.031-.344l.297-1.875H7.813c-1.204 0-2.063-.187-2.47-.75-.405-.703-.359-1.86 0-3.875L8.72-25.609h5.547l.359-2.22h-5.5zm0 0"/></symbol><symbol overflow="visible" id="5ebcc716p"><path d="M5.39-39.266l-.406 2.422h5.297L4.484-4.078c-1 5.937-1.765 8.219-6.14 8.219h-1.672l-.344 2.109c.64.156 1.61.297 2.766.297 5.187 0 6.61-2.813 8.015-10.625l6.204-35.188zm0 0"/></symbol><symbol overflow="visible" id="5ebcc716q"><path d="M12.453-28.375c-5.297 0-7.922 3.672-9.078 10.125l-1.61 8.875C.657-3.172 1.36.453 4.892.453c3.421 0 6.75-5.344 8.265-7.906-.203.906-.406 1.812-.562 2.562-.547 3.829.515 5.188 2.984 5.188.797 0 1.766-.203 2.219-.344l.344-1.875h-1.407c-.953 0-1.562-.14-1.812-.656-.297-.594-.203-1.703.156-3.422l3.875-20.813c-1.11-.609-3.687-1.562-6.5-1.562zm-7.36 26.61c-1.671-.204-1.671-3.079-.859-7.516l1.563-8.86c.953-5.093 2.625-8.015 6.547-8.015 1.36 0 3.078.297 3.984.797l-2.812 14.265C12.14-8.828 7.719-1.766 5.094-1.766zm0 0"/></symbol><symbol overflow="visible" id="5ebcc716r"><path d="M27.578-19.156L24.75-5.438c-.953 4.532.297 5.735 3.078 5.735.656 0 1.766-.203 2.266-.344l.36-1.875h-1.767c-.906 0-1.562-.187-1.765-.594-.203-.562-.11-1.515.25-3.078l2.875-13.562c1.312-6.14 1-9.219-2.781-9.219-3.578 0-6.953 3.984-8.313 5.688.547-3.875-.656-5.688-3.281-5.688-3.719 0-6.906 4.078-8.266 5.688l.047-5.344-2.203.203-.266 7.265L1.406 0h2.469l3.531-20.063c1.766-2.062 5.297-6.046 7.922-6.046 1.813.25 1.703 2.218.86 6.953L12.796 0h2.469l3.593-20.063c1.75-2.062 5.438-6.046 8.063-6.046 1.86.25 1.61 2.172.656 6.953zm0 0"/></symbol><symbol overflow="visible" id="5ebcc716s"><path d="M11.594-28.375c-4.735 0-7.266 2.813-7.266 6.906 0 3.719 1.922 6 3.89 8.063 2.016 2.11 4.079 3.984 4.126 7.156 0 3.031-1.766 4.688-4.625 4.688-1.375 0-2.578-.454-3.282-1.204-.656-.765-.906-2.015-.609-3.687l.453-2.672H2.11c-.25.813-.75 3.234-.75 4.188 0 3.53 2.47 5.484 6.204 5.484 4.28 0 7.109-2.36 7.156-6.953.047-3.719-2.469-6.094-4.688-8.469-1.719-1.813-3.328-3.578-3.328-6.703 0-2.672 1.406-4.64 4.734-4.64 1.313 0 2.329.359 2.876 1.062.609.906.703 2.172.406 3.984l-.656 3.578h2.124c.344-1.312 1.047-3.937 1.047-5.547 0-3.015-1.812-5.234-5.64-5.234zm0 0"/></symbol><symbol overflow="visible" id="5ebcc716t"><path d="M11.031-16.328c-3.219 0-4.531-2.172-3.765-6.5l.296-1.828c.813-4.688 1.86-6.5 4.891-6.5 1.453 0 2.516.36 3.078 1.265.547 1.203.547 3.032.047 6.047l-.5 2.516h2.36l.453-2.516c.968-5.593-.094-8.718-3.625-9.422l.75-4.64h-2.36l-.812 4.531c-3.938.266-5.797 3.031-6.75 8.578l-.25 1.516c-.657 4.031.25 6.547 2.36 7.812-2.72.906-4.579 2.922-5.235 6.39l-.203 1.36c-.86 4.64.859 7.469 4.39 8.125l-.86 4.938h2.36l.86-4.797c4.03-.297 6.046-2.86 6.906-7.906l.156-.86H13.25l-.14.766c-.813 4.172-1.97 5.734-5.25 5.734-1.563 0-2.72-.453-3.329-1.406-.593-1.063-.703-2.516-.343-4.64L4.39-8.97c.546-3.375 2.671-5.14 6.593-5.14h.454l.109-.454.25-1.359v-.11l.047-.296zm0 0"/></symbol><symbol overflow="visible" id="5ebcc716u"><path d="M2.422-6C1.562-1.406 2.625.297 5.39.297c.812 0 1.968-.203 2.468-.344l.36-1.875H6.547c-.953 0-1.563-.187-1.813-.703-.296-.656-.14-1.813.204-3.719l5.796-32.922H8.266zm10.125 0c-.86 4.594.203 6.297 2.984 6.297.797 0 1.953-.203 2.469-.344l.344-1.875h-1.657c-.953 0-1.515-.187-1.812-.703-.313-.656-.156-1.813.203-3.719l5.797-32.922h-2.484zm0 0"/></symbol><symbol overflow="visible" id="5ebcc716v"><path d="M5.438 8.828c5.093 0 8.015-3.078 9.437-11l4.578-25.656h-2.515l-2.97 16.734C12.5-8.672 8.564-1.766 5.892-1.766c-1.407-.156-1.954-1.765-1.11-6.14L8.47-27.828H6L2.312-7.906C1.204-1.72 2.579.454 5.642.454c3.687 0 6.5-5.438 8.015-8.017l-1.062 5.454C11.297 4.187 9.375 6.547 5.25 6.547c-1.625 0-3.078-.39-4.344-.75L.36 7.719c1.297.5 2.813 1.11 5.079 1.11zm0 0"/></symbol><symbol overflow="visible" id="5ebcc716w"><path d="M3.172-27.828l-.406 2.219h3.64L2.11.094C1.36 4.53.703 6.609-2.516 6.609h-1.062l-.36 1.954c.454.109 1.22.265 1.72.265 4.327 0 5.75-2.625 6.75-8.531L8.874-25.61h5.094l.39-2.22H9.281l.547-3.421c.703-4.188 1.266-6.406 4.485-6.406.906 0 2.374.25 3.171.406l.36-1.969c-.86-.343-2.375-.656-3.735-.656-4.437 0-5.796 2.781-6.75 8.422l-.609 3.625zm0 0"/></symbol><symbol overflow="visible" id="5ebcc716x"><path d="M15.016-28.125c-3.579 0-5.797 2.469-7.61 5.5l.047-5.406-2.203.203-.266 7.265L1.406 0h2.469l3.484-19.86c2.766-4.187 4.985-5.953 7.907-5.953h.656l.406-2.156c-.297-.11-.797-.156-1.312-.156zm0 0"/></symbol><symbol overflow="visible" id="5ebcc716y"><path d="M1.719-9.172C.547-2.516 2.829.547 7.453.547c5.14 0 7.172-3.063 8.375-9.719l1.656-9.422c1.22-6.765-1-9.781-5.687-9.781-5.094 0-7.203 3.078-8.375 9.781zm2.468 0l1.704-9.422c.921-5.093 2.218-7.562 5.656-7.562 1.61 0 2.672.5 3.328 1.406.75 1.266.656 3.422.14 6.156L13.36-9.172c-.953 5.235-2.218 7.516-5.703 7.516-1.406 0-2.468-.453-3.172-1.313-.812-1.219-.812-3.375-.296-6.203zm0 0"/></symbol><symbol overflow="visible" id="5ebcc716z"><path d="M14.422-2.172l4.437-24.64c-1.109-.61-3.64-1.563-6.453-1.563-5.344 0-7.922 3.719-9.078 10.172L1.86-9.875C.75-3.578 1.156.453 4.844.453c3.531 0 7-5.64 8.468-8.11l-1.171 5.548c-1.25 6.296-3.22 8.656-7.047 8.656-1.766 0-3.375-.39-4.64-.75l-.548 1.922c1.297.5 2.86 1.11 5.235 1.11 4.937 0 7.921-3.079 9.28-11zm-9.328.406C3.28-1.922 3.484-5.14 4.28-9.78l1.516-8.313c.906-5.14 2.672-8.062 6.406-8.062 1.406 0 3.063.297 3.985.797l-2.672 14.265c-1.563 2.531-5.86 9.328-8.422 9.328zm0 0"/></symbol><symbol overflow="visible" id="5ebcc716A"><path d="M15.984-28.375c-3.734 0-7.218 4.078-8.578 5.688l.047-5.344-2.203.203-.266 7.265L1.406 0h2.469l3.531-20.063c1.766-2.062 5.594-6.046 8.219-6.046 1.922.25 1.672 2.109.656 6.953L13.453-5.438c-.906 4.532.313 5.735 3.078 5.735.657 0 1.813-.203 2.266-.344l.36-1.875H17.39c-.907 0-1.563-.187-1.766-.594-.203-.562-.047-1.515.25-3.078l2.875-13.562c1.313-6.14 1.063-9.219-2.766-9.219zm0 0"/></symbol><symbol overflow="visible" id="5ebcc716B"><path d="M12.453-28.375c-5.25 0-7.765 3.625-8.969 10.125L1.766-9.375C.609-3.125 1.359.453 4.89.453c3.421 0 6.796-5.39 8.312-7.969a81.573 81.573 0 0 0-.547 2.625c-.61 3.829.453 5.188 2.969 5.188.813 0 1.766-.203 2.219-.344l.36-1.875H16.78c-.953 0-1.562-.14-1.86-.656-.25-.594-.155-1.703.157-3.422l6.25-33.266H18.86l-1.468 7.907c-.25 1.468-.453 2.828-.61 3.89-.953-.453-2.765-.906-4.328-.906zm-.11 2.219c1.36 0 3.079.297 3.985.797l-2.765 14.172c-1.36 2.265-5.844 9.421-8.47 9.421-1.671-.203-1.765-2.921-.859-7.515l1.657-8.86c1.015-5.14 2.625-8.015 6.453-8.015zm0 0"/></symbol><symbol overflow="visible" id="5ebcc716C"><path d="M4.89-28.625h2.063l2.328-10.64H6.75zm0 0"/></symbol><symbol overflow="visible" id="5ebcc716D"><path d="M15.016-28.375c-3.516 0-6.5 4.234-7.61 5.688l.047-5.344-2.203.203-.266 7.265L-.203 8.625h2.469l.859-5.14c.25-1.376.453-2.829.656-4.188 1 .547 2.625 1.25 4.735 1.25 4.64 0 7.218-3.375 8.468-10.281l1.61-8.813c1.062-5.844.515-9.828-3.578-9.828zm-.5 18.64c-1 5.454-2.875 8.079-6 8.079-1.907 0-3.375-.719-4.282-1.172L7.36-20.016c1.313-1.609 4.891-6.093 7.454-6.093 2.218.203 2.124 2.968 1.312 7.562zm0 0"/></symbol><symbol overflow="visible" id="5ebcc716E"><path d="M13.36-33.172c-4.594 0-6.407 2.172-7.313 7.266-.297 1.812-.453 7.453-.61 12.047H2.313l-.39 2.171h3.422c-.094 1.563-.203 2.813-.297 3.516C4.28-4.14 2.172-2.312-.25-2.312L-.703 0h16.437l.391-2.313H4.687c1.36-1.218 2.266-3.03 2.766-5.593.156-.86.266-2.219.36-3.782h5.953l.343-2.171H7.86c.204-4.391.25-9.688.766-12.25.547-3.422 1.656-4.797 4.578-4.797 1.422 0 2.422.453 2.875 1.265.61 1.11.61 2.72.203 5.047l-.656 3.922h2.219c.656-3.469 1.015-5.39.953-6.906 0-3.625-1.766-5.594-5.438-5.594zm0 0"/></symbol><symbol overflow="visible" id="5ebcc716F"><path d="M4.14-2.578C5.845-12.5 18.704-13 18.704-27.468c0-3.782-1.875-5.954-5.64-5.954-4.688 0-6.516 2.719-7.422 8.172-.25 1.25-.547 3.469-.704 4.734h2.266l.766-4.39c.86-4.782 2.156-6.188 4.984-6.188 1.11 0 2.016.297 2.516.953.515.61.765 1.516.765 2.72 0 13.358-12.656 13.405-14.625 24.796L1.156 0h13.11l.406-2.313H4.078zm0 0"/></symbol><symbol overflow="visible" id="5ebcc716G"><path d="M12.297-33.422c-4.938 0-6.344 3.125-7.453 9.422l-.407 2.672H6.75L7.203-24c.969-5.281 1.766-7.156 4.938-7.156 1.468 0 2.578.36 3.125 1.218.609 1 .656 2.72.203 5.391l-.297 1.656c-.86 4.797-2.672 6.563-6.047 6.563h-.906l-.36 2.219h.563c2.015 0 3.422.453 4.234 1.406.703 1.015.86 2.578.5 4.687L13-7.203c-.703 3.719-1.86 5.484-5.188 5.484-1.562 0-2.671-.343-3.328-1.203-.609-.906-.75-2.375-.406-4.531l.11-.61H1.813l-.094.797C.859-1.922 2.922.547 7.656.547c5.047 0 7.016-2.86 7.766-7.703l.11-.703c.655-4.094-.61-6.407-3.079-7.313 2.625-.953 4.328-3.219 5.188-7.86l.203-1.359c1.062-6.109-.907-9.03-5.547-9.03zm0 0"/></symbol><symbol overflow="visible" id="5ebcc716H"><path d="M2.422-6C1.562-1.406 2.625.297 5.39.297c.812 0 1.968-.203 2.468-.344l.36-1.875H6.547c-.953 0-1.563-.187-1.813-.703-.296-.656-.14-1.813.204-3.719l5.796-32.922H8.266zm0 0"/></symbol><symbol overflow="visible" id="5ebcc716I"><path d="M8.11-39.266L5.046-21.719 3.03-9.734h2.313l2.218-11.891 3.125-17.64zM2.171-5.188L1.266.048h2.468l.954-5.234zm0 0"/></symbol><symbol overflow="visible" id="5ebcc716ad"><path d="M15.469-8.563c0-9.124-7.813-13.421-7.813-22.14 0-4.375 1.922-6.5 6.25-6.5 1.969 0 3.781.25 5.406.61l.391-2.313c-1.86-.516-3.781-.766-5.89-.766-5.797 0-8.72 3.125-8.72 9.125 0 9.672 7.813 13.656 7.813 22.172 0 4.344-1.922 6.516-6.25 6.516-1.968 0-3.828-.313-5.453-.657L.86-.156c1.813.515 3.735.703 5.844.703 5.953 0 8.766-3.172 8.766-9.11zm0 0"/></symbol><symbol overflow="visible" id="5ebcc716ae"><path d="M12-6c0-6.547-6.703-9.828-6.61-15.672.048-3.234 1.47-4.437 4.735-4.437 1.469 0 3.031.25 4.594.547l.36-2.016c-1.829-.5-3.532-.75-5.142-.75-4.64 0-6.968 2.469-6.968 6.703 0 6.906 6.61 9.938 6.61 15.578 0 2.922-1.47 4.328-4.235 4.328-1.61 0-3.532-.25-5.094-.593L-.094-.297c1.813.547 3.875.75 5.64.75C9.673.453 12-2.062 12-6zm0 0"/></symbol><symbol overflow="visible" id="5ebcc716af"><path d="M13.516-2.313c-1.72.344-3.688.594-5.047.594-1.563 0-2.875-.343-3.735-1.11-.796-.75-1.25-1.952-1.25-3.624 0-4.89 2.22-7.86 7.61-7.86h1.812l.406-2.218h-1.515c-1.563 0-2.828-.407-3.625-1.157-.969-.968-1.422-2.468-1.36-4.437 0-4.031.704-9.031 6.25-9.031 1.704 0 3.376.312 4.938.703l.344-2.063a16.642 16.642 0 0 0-4.235-.797l.813-4.593h-2.375l-.797 4.593c-5.953.547-7.422 6.094-7.422 11.188 0 2.922 1.016 5.234 2.938 6.344-4.297 1.219-6.25 5.047-6.25 9.531 0 3.625 1.859 5.89 5.14 6.547l-.86 5.047h2.36L8.516.5c1.265 0 3.03-.25 4.687-.703zm0 0"/></symbol><symbol overflow="visible" id="5ebcc716ag"><path d="M-.5-2.313l-.313 1.61L-.905 0h14.875l.39-2.313H4.33c2.78-2.171 3.937-6.25 4.093-10.89h4.89l.391-2.172H8.47v-8.11c0-5 1.11-7.609 5.14-7.609 1.407 0 3.079.188 4.688.547l.36-2.11c-1.876-.515-3.688-.765-5.345-.765-5.5 0-7.218 3.734-7.218 9.781 0 1.813-.047 6.047-.047 8.266H2.313l-.454 2.172H6C5.75-7.656 3.875-2.313-.5-2.313zm0 0"/></symbol><symbol overflow="visible" id="5ebcc716ah"><path d="M17.234-27.578c0-3.828-2.109-5.844-6.25-5.844-1.609 0-3.078.25-4.64.703L6-30.547c1.656-.36 2.922-.61 4.39-.61 1.5 0 2.672.313 3.47.907.656.656.953 1.563.953 2.938 0 10.671-12.391 13.25-14.11 23.28L0 0h12.203l.39-2.313H2.876l.297-1.671c1.422-8.563 14.062-11.688 14.062-23.594zm0 0"/></symbol><symbol overflow="visible" id="5ebcc716ai"><path d="M16.828-27.578c0-3.828-2.11-5.844-6.14-5.844-1.61 0-3.079.25-4.641.703l-.344 2.172c1.703-.36 2.922-.61 4.375-.61 1.469 0 2.578.313 3.328.907.656.656 1.016 1.563 1.016 2.938 0 6.187-1.922 10.984-7.219 10.984h-1.36l-.405 2.219H6.5c1.813 0 3.234.343 4.14 1.156.86.812 1.25 1.969 1.25 3.578 0 4.89-1.812 7.656-6.64 7.656-1.516 0-3.234-.343-4.797-.797L0-.406c1.813.61 3.781.953 5.39.953 6.157 0 8.922-3.828 8.922-9.922 0-2.625-1.156-4.938-3.468-5.75 4.281-1.61 5.984-6.344 5.984-12.453zm0 0"/></symbol><symbol overflow="visible" id="5ebcc716J"><path d="M11.797-37.594c-7.75 0-9.922 3.797-9.922 11.657v13.953C1.875-2.297 5.125.422 14.563.422L20.828 0v-6.484h-6.265c-3.704 0-4.922-1.125-4.922-5.5v-14.282c0-3.718.187-4.937 2.156-4.937 2.015 0 2.203 1.219 2.203 4.937v8.875h6.828l.422-8.875c0-7.859-1.984-11.328-9.453-11.328zm0 0"/></symbol><symbol overflow="visible" id="5ebcc716K"><path d="M10.531-11.61h1.453v5.407c-.656.61-1.359 1.312-2.53 1.312-1.188 0-1.938-.89-1.938-3.187 0-2.688.984-3.531 3.015-3.531zm2.39 9.594l.61 2.438L19.312 0l-.562-6.86v-10.906c0-6.015-2.813-8.797-8.594-8.797-2.875 0-5.5.438-8.187 1.329l.937 5.265c1.89-.422 3.906-.812 5.64-.812 2.548 0 3.438.86 3.438 3.812v.75h-1.5c-6.296 0-9.593 2.64-9.593 8.703 0 5.5 2.453 8.22 6.578 8.22 3.297 0 4.843-1.829 5.453-2.72zm0 0"/></symbol><symbol overflow="visible" id="5ebcc716L"><path d="M28.672-26.078H18.14l-1.22 8.828-1.124 11.188-1.188-11.235-1.171-8.781H2.905L.891 0h6.906l.375-11.703.234-8.031h.719l1.172 7.937L12.078 0H19.5l1.75-11.703 1.219-8.031h.703l.281 8.172L23.97 0h6.86zm0 0"/></symbol><symbol overflow="visible" id="5ebcc716M"><path d="M20.922-26.078V0h7.14v-26.078zM9.922 0c6.437 0 9.437-2.813 9.437-9.172 0-5.922-2.53-8.781-8.453-8.781-.61 0-1.36.047-2.015.187v-8.312H1.92V0zM8.89-5.219v-8.031c.234-.047.515-.047.843-.047 2.11 0 2.86 1.125 2.86 4.031 0 3.11-.985 4.047-2.953 4.047zm0 0"/></symbol><symbol overflow="visible" id="5ebcc716N"><path d="M18.469-9.969l.422-5.922c0-7.609-2.063-10.906-8.735-10.906-6.719 0-8.984 3.625-8.984 9.406v8.172c0 6.594 2.734 9.64 10.906 9.64L18.375 0v-5.36h-6.297c-3.14 0-3.953-1.03-3.953-3.859v-.75zM8.125-18.14c0-2.156.328-3.343 2.172-3.343 1.828 0 2.156 1.187 2.156 3.343v3.578H8.125zm0 0"/></symbol><symbol overflow="visible" id="5ebcc716P"><path d="M10.484 0c6.344 0 9.25-1.734 9.25-6.906 0-3.438-1.125-5.125-3.375-5.922 1.97-.985 2.86-2.875 2.86-6.156 0-5.547-2.719-7.094-8.969-7.094H1.922V0zm1.922-18.047c0 2.766-1.031 3.328-2.719 3.328h-1v-6.484h.954c1.734 0 2.765.281 2.765 3.156zm.516 10.344c0 2.484-.985 2.86-3.188 2.86H8.688v-5.641h1.14c2.016 0 3.094.234 3.094 2.78zm0 0"/></symbol><symbol overflow="visible" id="5ebcc716Q"><path d="M13.156 0h7.578l-4-12.64 3.657-13.438h-7.282l-2.578 11.031h-1.5v-11.031h-7.11V0h7.11v-9.266h1.5zm0 0"/></symbol><symbol overflow="visible" id="5ebcc716R"><path d="M19.828-26.078h-7.281L10.39-5.641h-.75l-.47-5.968-1.655-14.47H.234L4.704 0h4.702c-.562 2.531-3.484 2.86-7.812 2.86V8.78l4.093.39c4.985 0 8.594-2.874 9.688-9.171zm0 0"/></symbol><symbol overflow="visible" id="5ebcc716S"><path d="M10.016-26.797c-6.391 0-8.844 3.25-8.844 8.844v8.406c0 7.719 3.297 9.969 11.61 9.969L17.811 0v-5.5h-5.734c-2.906 0-3.765-1.078-3.765-4.234v-8.22c0-2.062.14-3.155 1.703-3.155 1.546 0 1.687 1.093 1.687 3.156v6.437h6.156l.422-6.437c0-5.64-1.875-8.844-8.265-8.844zm0 0"/></symbol><symbol overflow="visible" id="5ebcc716T"><path d="M1.922-26.078V0h7.156v-9.031h3.844V0h7.187v-26.078h-7.187v11.265H9.078v-11.265zm0 0"/></symbol><symbol overflow="visible" id="5ebcc716U"><path d="M18.703-8.938v-8.406c0-6.156-2.437-9.453-8.687-9.453-6.344 0-8.75 3.156-8.75 7.766l.14 2.484H7.75v-1.547c0-2.11.422-3.015 2.031-3.015 1.547 0 2.016.812 2.016 3.297v3.25H6.53v4.453h5.266v1.656c0 2.672-.516 3.469-2.11 3.469-1.468 0-2.03-.75-2.03-2.532v-.609H1.218l-.047 1.406c0 5.266 2.547 7.422 8.656 7.422 5.969 0 8.875-2.672 8.875-9.64zm0 0"/></symbol><symbol overflow="visible" id="5ebcc716V"><path d="M3.484-10.016C3.297-6.203 2.766-5.922.281-5.922V.234l2.39.188c5.735 0 6.642-2.25 6.923-9.203.094-2.594.14-7.485.187-11.703h2.86V0h7.14v-26.078H3.766C3.719-21.906 3.672-14 3.484-10.016zm0 0"/></symbol><symbol overflow="visible" id="5ebcc716W"><path d="M13.578-26.61c-2.953 0-4.5 1.61-5.547 2.735l-.61-2.531-6.015.515.563 7.235V8.406h7.156V4.281c0-1.312-.047-3.11-.14-4.047.656.235 2.296.47 3.046.47 5.828 0 8.313-3.954 8.313-10.298v-7c0-6.297-2.11-10.015-6.766-10.015zm-.422 17.016c0 2.781-.281 4.61-2.203 4.61a6.045 6.045 0 0 1-1.875-.282v-14.187c.469-.469 1.219-1.14 2.25-1.14 1.313 0 1.828.812 1.828 3.624zm0 0"/></symbol><symbol overflow="visible" id="5ebcc716X"><path d="M9.078-14.656H7.844v4.36h1.562c2.063 0 2.86.75 2.86 2.827 0 1.735-.704 2.485-2.204 2.485-1.656 0-2.218-.797-2.218-2.625v-.516H1.312l-.046 1.688c0 5.078 2.921 7.14 8.843 7.14 6.344 0 9.063-2.906 9.063-7.328 0-3.344-1.078-5.172-3.281-6.11 1.734-1.124 2.906-3.015 2.906-6.062 0-5.078-2.25-8-8.781-8-6.297 0-8.516 3.156-8.516 7.672l.14 2.156h6.25v-1.687c0-1.547.563-2.407 1.985-2.407 1.406 0 2.016.766 2.016 2.97 0 2.624-.61 3.437-2.813 3.437zm0 0"/></symbol><symbol overflow="visible" id="5ebcc716Y"><path d="M1.172-9.078c0 6.219 2.5 9.781 9.172 9.781 6.672 0 9.156-3.562 9.156-9.781v-7.938c0-6.203-2.484-9.78-9.156-9.78-6.672 0-9.172 3.577-9.172 9.78zm7.14.344v-8.657c0-2.39.141-3.718 2.032-3.718 1.875 0 2.015 1.328 2.015 3.718v8.657c0 2.437-.14 3.75-2.015 3.75-1.89 0-2.031-1.313-2.031-3.75zm0 0"/></symbol><symbol overflow="visible" id="5ebcc716aa"><path d="M11.938-31.484c-6.391 0-9.126 3.234-9.126 9.765v4.75H.47v4.844h2.344v3.047c0 6.64 2.5 9.781 9.312 9.781 5.922 0 8.656-2.765 8.656-8.125l-.093-2.828H14.28v2.5c0 1.64-.281 2.766-2.156 2.766-1.828 0-2.11-1.313-2.11-4.094v-3.047H14v-4.844h-3.984v-4.75c0-2.906.187-4.031 1.921-4.031 1.735 0 1.97 1.125 1.97 3.563v3.015h6.687l.14-3.484c0-5.782-2.406-8.828-8.797-8.828zm0 0"/></symbol><symbol overflow="visible" id="5ebcc716ab"><path d="M10.063-16.969H8.983v5.219h1.407c2.062 0 2.671.703 2.671 3.344 0 2.672-.468 3.375-2.062 3.375-1.594 0-2.016-.844-2.016-3.703H2.25l-.094 2.25c0 5.171 2.969 7.187 8.938 7.187 6.39 0 9.015-2.906 9.015-8.64 0-3.672-1.078-5.782-3.28-6.922 1.687-1.36 2.812-3.563 2.812-7.235 0-6.484-2.157-9.39-8.688-9.39-6.344 0-8.328 3.14-8.328 7.89l.14 3.39h6.22v-2.218c0-2.437.328-3.328 1.828-3.328 1.453 0 1.828.75 1.828 3.984 0 3.907-.375 4.797-2.579 4.797zm0 0"/></symbol><symbol overflow="visible" id="5ebcc716ac"><path d="M12.266-12.453c0-7.328 5.64-6.953 5.64-16.313 0-6.015-2.578-8.828-8.593-8.828-5.922 0-8.75 2.39-8.75 8.828l.234 4.188H7.14v-3.297c0-2.719.421-3.703 1.843-3.703 1.454 0 1.735.797 1.735 3.61 0 7.046-5.078 6.718-5.078 15.515l.234 1.969h6.39zM9.078.422c2.25 0 3.938-1.406 3.938-4.14 0-2.673-1.688-4.079-3.938-4.079-2.265 0-3.953 1.406-3.953 4.078 0 2.735 1.688 4.14 3.953 4.14zm0 0"/></symbol><symbol overflow="visible" id="5ebcc716aj"><path d="M1.875-10.156c0 7.531 3.344 10.86 10.672 10.86 2.875 0 4.375-.141 7.047-.798l-.61-6.297a40.343 40.343 0 0 1-5.218.329c-3.188 0-4.172-1.313-4.172-5.313v-14.094c0-4 .984-5.36 4.172-5.36 1.796 0 3.296.142 5.218.376l.61-6.344c-2.672-.656-4.172-.797-7.047-.797-7.328 0-10.672 3.328-10.672 10.89zm0 0"/></symbol><symbol overflow="visible" id="5ebcc716ak"><path d="M1.172-8.64c0 6.39 3.25 9.109 8.75 9.109 2.39 0 4.36-.328 6.11-.75l-.516-5.5c-1.75.234-2.688.328-3.86.328-2.39 0-3.344-.89-3.297-4.14v-7c0-3.048.86-4 3.25-4 1.172 0 2.485.155 3.907.296l.609-5.5c-2.219-.562-3.86-.765-6.11-.765-5.64 0-8.843 2.875-8.843 9.03zm0 0"/></symbol><symbol overflow="visible" id="5ebcc716al"><path d="M2.906-15.328v5.219h7.39v.703c0 3.297-.89 4.187-3.53 4.187-1.782 0-3.329-.14-5.22-.375l-.468 5.5C3.766.562 5.5.703 8.218.703c5.876 0 9.266-2.719 9.266-9.156v-9.313c0-6.156-3.25-9.03-9.078-9.03-2.531 0-4.781.14-7.422.812l.61 5.5c1.89-.25 3.437-.344 5.172-.344 2.64 0 3.53.953 3.53 4v1.5zm0 0"/></symbol><symbol overflow="visible" id="5ebcc716am"><path d="M10.344-18.047c0 2.156-1.125 2.813-3.86 2.813H4.563v5.125h2.296c2.547 0 3.86.375 3.86 2.265 0 2.016-.844 2.625-3.953 2.625-1.735 0-2.907-.14-4.797-.375l-.657 5.5C4 .562 6.625.703 9.125.703c5.969 0 8.922-1.828 8.922-7.75 0-3.016-1.406-4.797-4-5.781 2.172-1.078 3.625-2.969 3.625-5.969 0-5.922-2.953-8-9.313-8-2.39 0-4.359.14-7 .813l.61 5.5c1.89-.25 3.062-.344 4.422-.344 3.109 0 3.953.765 3.953 2.781zm0 0"/></symbol><symbol overflow="visible" id="5ebcc716an"><path d="M.703-14.094v4.453H3.11v.422c0 7.063 3.563 9.922 9.532 9.922 2.828 0 4.843-.14 7.515-.797l-.61-5.734a32.873 32.873 0 0 1-5.124.375c-2.719 0-3.89-.984-4.078-4.188h5.875v-4.453h-5.922v-2.265h5.922v-4.422h-5.922c.14-3.516 1.312-4.5 4.125-4.5 1.703 0 3.25.093 5.125.328l.61-5.688c-2.673-.703-4.688-.797-7.516-.797-5.97 0-9.532 2.813-9.532 9.907v.75H.703v4.422H3.11v2.265zm0 0"/></symbol><symbol overflow="visible" id="5ebcc716ao"><path d="M19.406-22.234c0-6.063-2.062-9.25-8.781-9.25-2.594 0-5.36.562-7.375 1.172l.89 5.687c1.97-.375 3.657-.656 5.032-.656 2.015 0 3.14.656 3.14 4.125 0 3.297-.89 4.187-3.578 4.187h-1.5v5.219h1.844c2.531 0 3.656.938 3.656 2.813 0 2.828-1.218 3.437-3.375 3.437-1.796 0-3.437-.281-5.453-.656l-.89 5.734C5.406.188 7.703.703 10.484.703c6.438 0 9.391-2.672 9.391-8.64 0-3.625-1.36-5.735-3.797-6.922 1.969-1.313 3.328-3.563 3.328-7.375zm0 0"/></symbol><symbol overflow="visible" id="5ebcc716ap"><path d="M17.484-28.86c0-4.75-2.25-8.5-9.64-8.5-2.157 0-4.594.516-6.953 1.126l.89 6.437c1.985-.422 3.297-.703 4.985-.703 2.453 0 3.53 1.078 3.53 3 0 5.781-5.687 6.25-5.687 15.047l.235 1.969h6.39v-1.97c0-7.327 6.25-7.093 6.25-16.405zM8.078.423c2.266 0 3.953-1.406 3.953-4.14 0-2.673-1.687-4.079-3.953-4.079-2.25 0-3.937 1.406-3.937 4.078 0 2.735 1.687 4.14 3.937 4.14zm0 0"/></symbol><symbol overflow="visible" id="5ebcc716aq"><path d="M5.297-8.688h.062l.797 2.25.813 2.391H3.594zm-.922-1.78L.625-.845A7.176 7.176 0 0 0 .359 0h1.75l.954-2.61h4.406L8.344 0h1.765c-.062-.25-.156-.516-.28-.875l-3.517-9.656zm0 0"/></symbol><symbol overflow="visible" id="5ebcc716ar"><path d="M8.594-10.469L5.422-1.922h-.063L4.5-4.312 2.203-10.47H.422c.031.375.125.719.375 1.297L4.407.016l1.905-.032L9.97-9.14c.234-.546.375-.968.406-1.328zm0 0"/></symbol><symbol overflow="visible" id="5ebcc716as"><path d="M.984-5.094C.984-2.187 2.781.25 6.094.25c3.547 0 5.172-2.781 5.172-5.625 0-2.89-1.766-5.344-5.094-5.344-3.547 0-5.188 2.781-5.188 5.625zM9.47-5.28c0 1.343-.406 2.64-1.36 3.36-.484.359-1.14.609-1.968.609-2.204 0-3.344-1.766-3.344-3.907 0-1.343.437-2.61 1.36-3.328.5-.36 1.14-.61 1.968-.61 2.203 0 3.344 1.735 3.344 3.876zm0 0"/></symbol><symbol overflow="visible" id="5ebcc716at"><path d="M4.563-5.375c-.375 0-.766-.016-1.188-.047v-3.625a25.431 25.431 0 0 1 1.469-.047c1.828 0 2.843.563 2.843 1.766 0 .75-.39 1.281-1 1.578-.53.266-1.265.375-2.125.375zm-2.954-5.063V0h1.766v-3.906c.422.015.906.031 1.219.031.343 0 .687-.016 1-.063L8 0h1.797c-.047-.234-.203-.547-.438-.89L7.203-4.313C8.656-4.891 9.5-5.984 9.5-7.454c0-2.047-1.688-3.219-4.672-3.219-1.125 0-2.312.094-3.219.235zm0 0"/></symbol><symbol overflow="visible" id="5ebcc716au"><path d="M7.797-10.469L5.03-5.625H5l-.844-1.469-1.968-3.375H.405c.031.297.281.735.563 1.219l3.11 5.14V0h1.78v-4.14L9-9.235c.313-.516.531-.938.578-1.235zm0 0"/></symbol><symbol overflow="visible" id="5ebcc716aw"><path d="M1.61-10.469V0h1.765v-10.469zm0 0"/></symbol><symbol overflow="visible" id="5ebcc716ax"><path d="M.516 1.047l1.5.547L6.922-10.72l-1.5-.562zm0 0"/></symbol><symbol overflow="visible" id="5ebcc716ay"><path d="M15.375-31.516c0 16.578-13.156 15.703-13.156 37.938 0 14.031 6.297 20.672 20.781 20.672 14.156 0 21.234-5.078 21.234-20.344l-.547-10.281H27.095v7.844c0 4.984-.438 7.296-3.094 7.296-2.766 0-2.984-1.765-2.984-7.625 0-16.703 11.5-15.156 11.5-35.5l-.547-4.422H15.375zm8.297-30.859c-5.75 0-10.063 3.656-10.063 10.5 0 6.75 4.313 10.406 10.063 10.406 5.75 0 10.062-3.656 10.062-10.406 0-6.844-4.312-10.5-10.062-10.5zm0 0"/></symbol><symbol overflow="visible" id="5ebcc716az"><path d="M28.203-88.469c-19.25 0-24.328 9.39-24.328 28.188v31.64c0 23.22 7.516 29.75 30.625 29.75L49.984 0v-16.922H34.5c-7.734 0-10.172-2.328-10.172-11.719v-32.734c0-7.75-.11-10.516 3.875-10.516s3.875 2.766 3.875 10.516v20.453h17.906l1.11-20.453c0-18.813-4.532-27.094-22.89-27.094zm0 0"/></symbol><symbol overflow="visible" id="5ebcc716aA"><path d="M18.797 1.656c7.187 0 10.515-3.093 13.39-5.968l1.438 5.75L49.438 0l-1.329-17.469v-43.906H29.203v46.328c-.781.563-1.781 1.219-3.765 1.219-1.875 0-3.204-1.11-3.204-4.422v-43.125H3.312v44.234c0 13.828 5.532 18.797 15.485 18.797zm0 0"/></symbol><symbol overflow="visible" id="5ebcc716aB"><path d="M24.89-26.656h2.876v11.953c-1.328.875-2.547 1.984-4.985 1.984-2.437 0-3.875-2.094-3.875-6.64 0-5.641 1.89-7.297 5.985-7.297zm5.516 22.343l1.438 5.422L46.78 0l-1.328-16.375v-24.547c0-14.812-7.078-21.562-21.125-21.562-6.86 0-13.375.89-20.125 2.984l2.219 13.828c4.531-1 9.281-1.89 13.375-1.89 5.86 0 7.969 1.671 7.969 8.296v1h-3c-15.594 0-23.11 6.188-23.11 20.578 0 12.704 5.75 19.344 15.703 19.344 7.75 0 11.61-3.984 13.047-5.968zm-14.031-64.25h12.484L39.047-82.39l1.656-6.078h-17.14zm0 0"/></symbol><symbol overflow="visible" id="5ebcc716aC"><path d="M35.063-62.484c-7.75 0-11.61 3.093-15.047 5.968l-1.438-5.75-15.812 1.438L4.094-43.36V0H23v-44.234c1-.782 2.328-1.657 4.313-1.657 2.218 0 3.218 1.094 3.218 4.422V0h18.907v-43.688c0-12.718-4.422-18.796-14.376-18.796zm0 0"/></symbol><symbol overflow="visible" id="5ebcc716aD"><path d="M30.531-14.375c-5.203 0-5.64-1.766-5.64-7.86V-47h10.062v-14.375H24.891v-16.594H9.406L6.422-61.375H0V-47h6.078v29.313c0 13.593 5.86 18.796 17.813 18.796L34.953 0v-14.375zm0 0"/></symbol><symbol overflow="visible" id="5ebcc716aE"><path d="M2.219-21.563c0 14.375 5.969 23.22 22.547 23.22 16.593 0 22.562-8.845 22.562-23.22v-18.25c0-14.374-5.969-23.218-22.562-23.218-16.578 0-22.547 8.843-22.547 23.218zm18.797 1.11v-20.469c0-4.422-.11-7.516 3.75-7.516 3.875 0 3.765 3.094 3.765 7.516v20.469c0 4.422.11 7.515-3.765 7.515-3.86 0-3.75-3.093-3.75-7.515zm0 0"/></symbol><symbol overflow="visible" id="5ebcc716aF"><path d="M24.11-63.031c-14.376 0-21.126 6.078-21.126 17.14 0 10.72 5.641 17.36 14.938 21.453 6.515 2.875 9.734 4.532 9.734 9.172 0 2.985-1.11 4.204-3.547 4.204-2.656 0-3.53-1.766-3.53-5.313v-3.969H3.093l-.328 7.078c0 8.735 4.75 14.922 21.343 14.922 16.594 0 21.782-7.734 21.782-18.797 0-9.843-5.407-14.484-14.375-18.687-5.641-2.656-10.282-3.766-10.282-10.297 0-3.094.891-4.188 2.875-4.188 2.657 0 2.875 1.657 2.875 4.422v4.97h17.47l.343-4.97c0-11.062-6.313-17.14-20.688-17.14zm0 0"/></symbol><symbol overflow="visible" id="5ebcc716aH"><path d="M24.89-26.656h2.876v11.953c-1.328.875-2.547 1.984-4.985 1.984-2.437 0-3.875-2.094-3.875-6.64 0-5.641 1.89-7.297 5.985-7.297zm5.516 22.343l1.438 5.422L46.78 0l-1.328-16.375v-24.547c0-14.812-7.078-21.562-21.125-21.562-6.86 0-13.375.89-20.125 2.984l2.219 13.828c4.531-1 9.281-1.89 13.375-1.89 5.86 0 7.969 1.671 7.969 8.296v1h-3c-15.594 0-23.11 6.188-23.11 20.578 0 12.704 5.75 19.344 15.703 19.344 7.75 0 11.61-3.984 13.047-5.968zm0 0"/></symbol><symbol overflow="visible" id="5ebcc716aI"><path d="M35.063-62.484c-7.75 0-11.61 3.093-15.047 5.968l-1.438-5.75-15.812 1.438L4.094-43.36V0H23v-44.234c1-.782 2.328-1.657 4.313-1.657 2.218 0 3.218 1.094 3.218 4.422V0h18.907v-43.688c0-12.718-4.422-18.796-14.376-18.796zm-2.876-19.907c-3.546 0-6.203-5.421-13.828-5.421-8.515 0-12.718 6.859-12.28 19.25h11.733c.11-2.329.657-5.422 3.204-5.422 3.422 0 6.406 5.421 13.937 5.421 8.516 0 12.375-7.64 11.719-19.25H34.953c-.234 2.985-.344 5.422-2.766 5.422zm0 0"/></symbol><symbol overflow="visible" id="5ebcc716aJ"><path d="M3.875-61.375V0h18.797v-61.375zm9.5-6.094c5.75 0 10.078-3.64 10.078-10.5 0-6.75-4.328-10.39-10.078-10.39-5.75 0-10.063 3.64-10.063 10.39 0 6.86 4.313 10.5 10.063 10.5zm0 0"/></symbol><symbol overflow="visible" id="5ebcc716aK"><path d="M44.563-23.219L45.672-36.5c0-18.797-4.86-26.531-21.453-26.531-16.594 0-22 8.843-22 22.11v19.358C2.219-6.078 8.844 1.11 28.75 1.11L44.563 0v-13.828H28.75c-6.625 0-8.297-2.203-8.297-7.735v-1.656zm-24.11-19.906c0-3.875.453-6.422 4.203-6.422 3.766 0 4.203 2.547 4.203 6.422v8.281h-8.406zm0 0"/></symbol><symbol overflow="visible" id="5ebcc716aL"><path d="M29.969-29.86c0-16.593 13.156-15.703 13.156-37.937 0-14.047-6.297-20.672-20.781-20.672-14.157 0-21.235 5.078-21.235 20.344l.547 10.281H18.25v-7.843c0-4.985.438-7.297 3.094-7.297 2.765 0 2.984 1.765 2.984 7.625 0 16.703-11.5 15.156-11.5 35.5l.547 4.422h16.594zM21.672 1c5.75 0 10.062-3.656 10.062-10.516 0-6.734-4.312-10.39-10.062-10.39-5.75 0-10.063 3.656-10.063 10.39C11.61-2.656 15.922 1 21.672 1zm0 0"/></symbol><symbol overflow="visible" id="5ebcc716aM"><path d="M1.656 5.75c0 10.844 5.094 20.016 23.782 20.016 4.75 0 10.734-1.22 16.593-2.547L39.813 6.297c-4.86.89-7.626 1.437-11.391 1.437-5.531 0-7.969-2.312-7.969-6.187 0-12.39 12.61-13.375 12.61-33.734l-.547-4.422H15.922v4.422c0 16.593-14.266 15.703-14.266 37.937zM24.22-63.031c-5.75 0-10.063 3.64-10.063 10.5 0 6.75 4.313 10.39 10.063 10.39 5.75 0 10.062-3.64 10.062-10.39 0-6.86-4.312-10.5-10.062-10.5zm0 0"/></symbol><symbol overflow="visible" id="5ebcc716aN"><path d="M3.875-24.328c0 18.14 8.188 25.984 25.984 25.984 6.86 0 10.5-.218 17.25-1.875l-1.547-16.593c-4.53.562-8.187.78-12.28.78-6.844 0-8.954-2.765-8.954-11.624v-31.516c0-8.844 2.11-11.61 8.953-11.61 4.094 0 7.75.22 12.282.782l1.546-16.594c-6.75-1.656-10.39-1.875-17.25-1.875-17.797 0-25.984 7.844-25.984 25.985zm0 0"/></symbol><symbol overflow="visible" id="5ebcc716aO"><path d="M39.813-16.703c0-18.906-19.36-19.235-19.36-27.203C20.453-47 23.672-47 27.203-47c2.11 0 5.75.219 10.281.766l1.563-14.375c-6.75-1.657-10.625-1.875-15.266-1.875-14.047 0-21.562 4.64-21.562 18.359 0 21.125 20.453 20.672 20.453 27.203 0 3.094-3.203 3.094-5.64 3.094-3.204 0-7.97-.219-12.5-.766L2.983-.219c6.75 1.657 11.72 1.875 16.375 1.875 12.938 0 20.453-4.64 20.453-18.36zm0 0"/></symbol><symbol overflow="visible" id="5ebcc716aP"><path d="M42.031-67.797c0-10.828-5.093-20.016-23.781-20.016-4.75 0-10.734 1.22-16.594 2.547l2.219 16.922c4.86-.89 7.625-1.437 11.39-1.437 5.532 0 7.954 2.312 7.954 6.187 0 12.39-12.61 13.39-12.61 33.735l.563 4.422h16.594v-4.422c0-16.594 14.265-15.703 14.265-37.938zM19.47 1C25.219 1 29.53-2.656 29.53-9.516c0-6.734-4.312-10.39-10.062-10.39-5.75 0-10.063 3.656-10.063 10.39C9.406-2.656 13.72 1 19.47 1zm0 0"/></symbol><symbol overflow="visible" id="5ebcc716aQ"><path d="M11.438-111.25V0h5v-106.531h31.468v-4.719zm0 0"/></symbol><symbol overflow="visible" id="5ebcc716aR"><path d="M45.188 0l-11.72-78.797c-3.437-23.312-5.874-32.453-22.89-32.453H8.297v4.281c14.875 0 17.015 5.719 20.453 28.172h-8.156L2.859 0h4.72l11.733-52.344 4.86-22.156h5.422L40.328 0zm0 0"/></symbol><symbol overflow="visible" id="5ebcc716aS"><path d="M15.438-78.797h-4.72v48.625c0 22.875 4.298 31.61 18.173 31.61 14.578 0 20.297-14.454 20.297-38.766 0-18.438-3.72-33.313-7.579-42.89L37.33-78.5c5 13.578 7.14 25.453 7.14 41.172 0 20.734-3.422 34.469-15.578 34.469-11.438 0-13.453-8.016-13.453-27.313zm0 0"/></symbol><symbol overflow="visible" id="5ebcc716aT"><path d="M44.328 0h5.156L32.031-35.469l15.297-43.328h-5l-14.437 41.61H16.156v-41.61h-4.718V0h4.718v-32.89h11.735zm0 0"/></symbol><symbol overflow="visible" id="5ebcc716aU"><path d="M53.625-4.297c-5.297 0-7.297-2.281-7.297-9.437v-48.188l1.297-16.875-4.156-.422-1.14 11c-1.86-3.562-5.438-12-15.438-12-12.594 0-18.313 10.578-18.313 27.313v27.015c0 18.172 4 27.328 16.594 27.328 9 0 14.437-7.875 16.875-14.874v2.28C42.047-2.858 46.187 0 53.625 0h2.719v-4.297zM41.609-27.03c0 8.578-6.28 24.172-16.156 24.172-10.156 0-12.156-7.72-12.156-23.032v-27.015c0-14.453 4-23.032 13.594-23.032 9 0 12.859 10.735 14.718 14.735zM27.891-87.938h4.28l4.72-14.453 2.14-6.296h-5zm0 0"/></symbol><symbol overflow="visible" id="5ebcc716aW"><path d="M31.75-45.188c-10.297 0-14.875-5.859-14.875-21.593 0-17.297 2.14-23.313 12.438-23.313 9.718 0 12.296 6.016 12.296 22.453v7.579h4.578v-7.579c0-17.437-3.578-25.875-14.734-26.734v-12.016h-4.562v12.016c-10.735.86-14.875 8.719-14.875 27.594 0 13.156 3.578 20.312 10.296 23.453-7.156 2.281-11.593 8.156-11.593 21.016 0 15.156 4.875 22.734 16.453 23.593v13.016h4.578V1.28C43.469.578 47.469-6.297 47.469-20.594v-1.578h-4.563C42.906-8.578 40.47-3 29.453-3c-9.437 0-14.015-4.86-14.015-19.172 0-14.578 5.156-18.578 17.734-18.578h1.14v-4.438zm0 0"/></symbol><symbol overflow="visible" id="5ebcc716aX"><path d="M11.438-78.797v103.11h4.718V7.155c0-3.718-.14-7.437-.281-11.156 2.578 3.719 6.86 5.438 11.578 5.438 9.578 0 14.453-7.735 17.016-11.454C44.906-3.437 48.329 0 56.062 0h2.704v-4.297h-2.703c-5.297 0-7.297-2.281-7.297-9.437v-65.063h-4.72v61.922C40.329-9.719 35.032-2.859 27.454-2.859c-6.297 0-11.297-4.72-11.297-11.438v-64.5zm0 0"/></symbol><symbol overflow="visible" id="5ebcc716aY"><path d="M53.625-4.297c-5.297 0-7.297-2.281-7.297-9.437v-48.188l1.297-16.875-4.156-.422-1.14 11c-1.86-3.562-5.438-12-15.438-12-12.594 0-18.313 10.578-18.313 27.313v27.015c0 18.172 4 27.328 16.594 27.328 9 0 14.437-7.875 16.875-14.874v2.28C42.047-2.858 46.187 0 53.625 0h2.719v-4.297zM41.609-27.03c0 8.578-6.28 24.172-16.156 24.172-10.156 0-12.156-7.72-12.156-23.032v-27.015c0-14.453 4-23.032 13.594-23.032 9 0 12.859 10.735 14.718 14.735zm0 0"/></symbol><symbol overflow="visible" id="5ebcc716aZ"><path d="M28.75-80.219c-14.734 0-18.734 9.14-18.734 28.735v75.797h4.718V9.155c0-3.86-.14-7.875-.296-11.734 3.437 1.86 8.015 4.015 12.734 4.015 15.156 0 20.594-10.593 20.594-28.75v-24.171c0-16.735-5.016-28.735-19.016-28.735zm14.297 52.906c0 15.297-3.438 24.454-15.734 24.454-4.141 0-9.438-2.438-12.579-4.141v-44.484c0-17.297 2.282-24.453 14.016-24.453 11 0 14.297 10.015 14.297 24.453zm0 0"/></symbol><symbol overflow="visible" id="5ebcc716ba"><path d="M29.453-36.75c-8.437 0-15.297-6.156-15.297-21.453 0-10.156 2.281-17.734 13.578-17.734 11.453 0 14.016 6.874 14.016 19.03v6.423h4.438v-6.422c0-14.172-3.86-23.313-18.454-23.313-13.578 0-18.437 8.86-18.437 22.016 0 13.016 4.719 20.312 11.578 23.312-7.438 2.141-12.297 7.578-12.297 16.875C8.578-6.578 14.297 0 32.031 0h11.875v-4.438H32.031c-15.593 0-18.734-5.28-18.734-13.859 0-9.297 5.156-14.172 16.156-14.172h6.875v-4.281zm0 0"/></symbol><symbol overflow="visible" id="5ebcc716bb"><path d="M15.734-105.813l.141-.718h31.031v-4.719H9.86l-.421 4.719L30.311-80.22c-16.015 3-21.734 16.297-21.734 42.89 0 28.61 6.156 38.767 20.313 38.767 14.156 0 20.297-10.157 20.297-38.766 0-19.734-4.282-31.313-13.579-43.188zM28.891-2.859c-11.735 0-15.594-9.438-15.594-34.47 0-25.155 4.578-36.75 19.875-39.312 8.016 10.86 11.297 21.438 11.297 39.313 0 25.031-3.86 34.469-15.578 34.469zm0 0"/></symbol><symbol overflow="visible" id="5ebcc716bc"><path d="M13.297-30.313v-23.89c0-16.438 3-21.734 13.015-21.734 10.016 0 12.297 5.156 12.297 21.734v15.594h4.578v-15.594c0-19.297-4-26.016-16.874-26.016-12.875 0-17.735 6.719-17.735 26.016v24.031C8.578 2.578 38.61-3 38.61 12.297c0 5.437-2.859 7.86-9.718 8.156v3.86h1.28c7.438 0 13.017-4.157 13.017-12.016 0-19.453-29.891-12.297-29.891-42.61zm0 0"/></symbol><symbol overflow="visible" id="5ebcc716bo"><path d="M9.438-69.781c0 15.156 3.437 23.015 10.718 26.312-7.86 2.282-12.297 8.297-12.297 21.157C7.86-7 13.016.14 25.031 1.28v13.016h4.563V1.437c4.718-.156 9.734-1.578 14.734-3.578L43.188-6C38.75-4.437 33.608-2.86 28.75-2.86c-11.297 0-16.172-4.437-16.172-19.312 0-14.578 5.156-18.578 19.172-18.578h2.563v-4.438h-4c-11.72 0-16.016-6-16.016-24.593 0-16.297 4.156-20.453 14.015-20.453 4.86 0 9.297 1.28 13.735 2.859l1.14-3.86c-4.578-1.859-8.874-3-13.156-3.28v-11.876h-4.578v12.016c-11.156.86-16.015 7.719-16.015 24.594zm0 0"/></symbol><symbol overflow="visible" id="5ebcc716bp"><path d="M12.578-58.625c0-13.453 5.297-17.453 15.156-17.453 4.875 0 10.016.719 14.453 1.719l.86-4c-5.297-1.438-10.438-2-15.453-2-13.157 0-19.735 6.421-19.735 21.734 0 11.719 4.438 18.438 11.735 21.438-7.719 2.015-13.157 7.156-13.157 18.312 0 14.578 7.297 20.313 21.157 20.313 7.156 0 11.156-.579 16.453-2.016l-.86-4c-4.437 1-8.437 1.719-15.453 1.719-10.578 0-16.578-3.297-16.578-16.016 0-12.297 7-15.875 18.157-15.875h6.156v-4.438h-6.157c-10.296 0-16.734-5.859-16.734-19.437zm0 0"/></symbol><symbol overflow="visible" id="5ebcc716bq"><path d="M13.297-55.484c0-14.875 5.297-19.875 15.156-19.875 5.578 0 9.297.718 13.735 1.718l.859-4.015c-5.297-1.422-9.016-2-14.734-2-13.157 0-19.735 7.578-19.735 22.89v25.157c0 32.75 30.031 27.172 30.031 43.906 0 5.437-2.859 7.86-9.718 8.156v3.86h1.28c7.438 0 13.017-4.157 13.017-12.016 0-20.875-29.891-13.438-29.891-44.047zm0 0"/></symbol><symbol overflow="visible" id="5ebcc716bd"><path d="M47.953-128.953c-17.984 0-26.734 11.016-30.453 33.219-.656 3.875-1.781 11.656-1.953 15.062h12l2.422-13.781c2.922-16.516 6.812-22.031 18.312-22.031 4.86 0 9.875 1.468 11.828 4.703 1.453 4.375.485 12.312-.812 20.578L54.594-64.97H32.406l-2.11 12h22.188l-2.906 16.516c-3.25 18.312-6.328 26.25-18.797 26.25-5.015 0-9.078-1.14-11.828-3.735-.969-2.75-1.14-6.796-.156-13.765.156-2.266.812-5.672 1.125-7.61H7.453c-1.14 4.204-2.437 11.172-2.437 16.844 0 13.125 7.14 20.735 25.109 20.735 22.531 0 28.516-13.61 32.89-38.72l9.563-54.75c4.203-23.984-1.14-37.75-24.625-37.75zm0 0"/></symbol><symbol overflow="visible" id="5ebcc716be"><path d="M21.219-33.203l9.718-1.469L40.172 0H53.14L42.125-40.172C52.969-53.625 63.188-69.5 67.063-89.594h-13.11C50.375-73.875 42.61-58.156 32.891-46.5l-9.563 2.11 8.094-45.204H18.469L2.594 0h12.953zm0 0"/></symbol><symbol overflow="visible" id="5ebcc716bf"><path d="M37.578-91.688c-16.516 0-23.812 8.579-27.375 29.157L5.016-32.234C.64-5.828 11.984 1.14 30.625 1.14c5.828 0 11.5-.813 14.578-1.141l1.938-10.531H32.234c-6.468 0-11.343-1.125-13.609-4.203-1.781-3.25-2.094-9.079-.64-17.5l5.187-30.297c2.265-13.453 5.015-17.828 13.11-17.828 3.25 0 6.327 1.14 8.265 3.406.969 2.922.484 6.64-.64 13.453l-3.735 21.063h11.016c1.624-6.485 5.671-23.985 5.671-31.266 0-11.672-7.28-17.984-19.28-17.984zm0 0"/></symbol><symbol overflow="visible" id="5ebcc716bg"><path d="M53.953-91.688C40.828-91.688 30.781-78.89 27.22-75l-.328-15.563-11.5.97-.97 24.952L3.079 0h13.125L27.22-63.016c5.187-5.187 17.328-16.687 24.297-16.687 2.593 2.11 2.109 6.484 0 16.203l-9.078 43.406c-3.079 15.39.171 21.235 11.187 21.235 2.906 0 7.281-.985 9.39-1.47l1.782-9.874h-4.531c-2.922 0-5.672-.485-6.313-1.453-.328-1.469 0-4.063.797-7.953L64.469-63.5c3.89-17.656 2.594-28.188-10.516-28.188zm0 0"/></symbol><symbol overflow="visible" id="5ebcc716bh"><path d="M52.813-35.969c2.421-10.203 6.64-25.593 6.64-34.828 0-14.094-7.297-20.89-21.39-20.89-17.329 0-24.782 10.53-28.344 31.578L5.188-32.562C.813-5.828 12.953 1.14 32.078 1.14c6.64 0 12.469-.813 15.063-1.141l1.953-10.531H33.047c-5.828 0-11.172-.969-13.766-3.563-2.265-3.078-3.078-8.906-1.297-18.468l.641-3.407zm-30.126-24.14c2.422-14.735 5.985-20.25 15.063-20.25 3.89 0 7.453 1.625 9.234 4.218.97 3.563.641 8.75-.656 15.547L43.578-46.5H20.406zm0 0"/></symbol><symbol overflow="visible" id="5ebcc716bi"><path d="M51.031-91.688C39.688-91.688 31.266-80.671 27.22-75l-.328-15.563-11.5.97-.97 25.124-16.53 92.656h12.968l2.594-15.39c.797-4.375 1.61-9.563 2.094-13.766 2.765 1.297 7.297 2.906 12.969 2.906 17.328 0 26.078-11.984 30.125-34.015l5.03-27.047c3.392-18.469 1.126-32.563-12.64-32.563zm-5.187 59.61c-2.907 15.39-8.266 22.516-17.657 22.516-4.53 0-8.093-.97-10.53-1.938l9.39-50.875c5.672-6.469 15.89-17.328 22.687-17.328 3.078 1.937 3.078 8.906.97 20.578zm0 0"/></symbol><symbol overflow="visible" id="5ebcc716bj"><path d="M18.469-89.594L6.64-25.109C3.078-6 7.609 1.297 17.984 1.297c11.657 0 19.922-13.453 25.922-23.172-.968 3.563-1.953 7.781-2.11 10.375-.655 8.422 2.75 12.64 11.5 12.64 2.923 0 6.97-.984 9.079-1.468l1.781-9.875h-3.25c-3.234 0-5.984-.328-6.953-1.453-.5-1.469-.172-4.547.484-8.438l12.313-69.5H53.625l-9.234 53.14C39.859-29.64 26.078-10.53 20.406-10.53c-2.265-1.297-2.422-6.313-.797-14.735l11.813-64.328zm0 0"/></symbol><symbol overflow="visible" id="5ebcc716bk"><path d="M95.422-89.594h-14.75c-11.5 0-14.25 5.36-18.781 17.344-5.36 12.797-13.453 37.266-19.453 56.86h-.313l3.563-38.391 3.078-35.813H36.609c-11.5 0-14.093 5.844-19.109 18.797C11.344-55.563 1.453-23-3.406 0H9.563c4.374-20.094 10.843-45.203 18.953-68.047 2.75-7.766 3.39-10.031 7.125-10.031h1.625c-2.922 27.375-4.375 52-6 78.078h16.687c7.281-21.219 16.688-49.578 24.953-69.344 2.906-6.953 3.719-8.734 7.453-8.734h1.61L69.656 0h13.125zm0 0"/></symbol><symbol overflow="visible" id="5ebcc716bl"><path d="M18.469-89.594L2.594 0h12.953l6.328-35.64h22.844L38.39 0h13.125L67.39-89.594H54.266l-7.61 42.61H23.813l7.609-42.61zm0 0"/></symbol><symbol overflow="visible" id="5ebcc716bm"><path d="M87.797-63.5l-9.234 43.406C75.328-4.859 78.89 1.141 89.906 1.141c2.75 0 7.125-.985 9.235-1.47l1.78-9.874h-4.53c-2.922 0-5.672-.485-6.313-1.453-.172-1.469 0-4.063.969-7.953l9.719-43.891c3.89-17.656 2.421-28.188-10.532-28.188-11.828 0-21.703 11.657-25.765 16.36.812-9.234-1.938-16.36-11.172-16.36C40.172-91.688 30.78-78.89 27.219-75l-.328-15.563-11.5.97-.97 24.952L3.079 0h13.125L27.22-63.016c4.86-5.187 16.515-16.687 23.484-16.687 2.438 2.11 1.781 7.781.328 16.203L39.86 0h12.797l11.328-63.016c4.86-5.187 16.688-16.687 23.657-16.687 2.437 2.11 2.109 6.484.156 16.203zm0 0"/></symbol><symbol overflow="visible" id="5ebcc716bn"><path d="M18.14-89.594l-11.5 60.11C2.439-7.937 9.72 1.938 24.782 1.938c14.907 0 24.313-8.25 29-30.125l2.438-10.86c3.718-17.656-1.297-27.531-13.282-27.531-6.968 0-14.093 5.016-18.468 9.234l6.312-32.25zM26.079-9.39c-4.047 0-6.64-1.953-7.765-4.062-1.141-3.39-.813-8.735.796-16.844l3.078-15.39c5.032-4.86 12.313-9.72 17.016-9.72 2.438 0 4.531.813 5.672 2.438.813 2.594.328 7.453-.813 13.282l-2.109 10.843C39.203-15.062 34.5-9.39 26.078-9.39zm49.406-80.203L59.61 0h12.97l15.874-89.594zm0 0"/></symbol><symbol overflow="visible" id="5ebcc716br"><path d="M65.766-94.61c4.375-24.953-6.47-34.187-25.266-34.187-6.313 0-12.469.813-18.953 1.953l-2.11 11.828c6.329-.656 11.985-.968 17.5-.968 6.97 0 12.157 1.125 14.422 4.53 1.938 3.407 2.266 9.391.485 18.798l-4.86 27.687H17.172l-2.266 12h29.969l-3.406 18.782c-3.078 17.5-8.094 23.656-23 23.656-5.672 0-11.672-.813-17.657-1.781L-1.296-.329c6.813 1.625 13.61 2.594 21.703 2.594 21.719 0 30.14-10.688 34.344-34.5zm0 0"/></symbol><symbol overflow="visible" id="5ebcc716bs"><path d="M4.047-28.031C.484-7.781 8.75 1.625 24.78 1.625c5.032 0 10.047-.813 15.39-2.266l1.626-10.53c-5.188.968-9.563 1.452-13.281 1.452-4.375 0-8.422-.812-10.375-2.922-1.938-2.906-2.422-8.578-.485-18.297l5.188-29.171c2.265-13.438 5.187-19.75 16.031-19.75 4.063 0 7.781.64 13.281 1.609l1.797-10.203c-6.484-1.938-10.047-2.75-16.375-2.75-17.656 0-23.969 9.562-27.203 28.016zm0 0"/></symbol></defs><use xlink:href="#5ebcc716a" x="35.9285" y="236.6323"/><use xlink:href="#5ebcc716b" x="100.4405" y="236.6323"/><use xlink:href="#5ebcc716c" x="160.5425" y="236.6323"/><use xlink:href="#5ebcc716d" x="228.5825" y="236.6323"/><use xlink:href="#5ebcc716e" x="298.1345" y="236.6323"/><use xlink:href="#5ebcc716c" x="367.4345" y="236.6323"/><use xlink:href="#5ebcc716f" x="435.4745" y="236.6323"/><use xlink:href="#5ebcc716e" x="487.3739" y="236.6323"/><use xlink:href="#5ebcc716g" x="556.6739" y="236.6323"/><use xlink:href="#5ebcc716b" x="623.5799" y="236.6323"/><use xlink:href="#5ebcc716h" x="683.6819" y="236.6323"/><use xlink:href="#5ebcc716c" x="760.5419" y="236.6323"/><use xlink:href="#5ebcc716d" x="828.5819" y="236.6323"/><use xlink:href="#5ebcc716e" x="898.1339" y="236.6323"/><g fill="#6eb287"><use xlink:href="#5ebcc716i" x="35.9285" y="398.0754"/><use xlink:href="#5ebcc716b" x="94.6445" y="398.0754"/><use xlink:href="#5ebcc716j" x="154.6205" y="398.0754"/><use xlink:href="#5ebcc716d" x="213.7145" y="398.0754"/><use xlink:href="#5ebcc716e" x="283.1405" y="398.0754"/><use xlink:href="#5ebcc716j" x="352.3145" y="398.0754"/><use xlink:href="#5ebcc716f" x="411.4085" y="398.0754"/></g><g fill="#6eb287"><use xlink:href="#5ebcc716e" x="463.2197" y="398.0754"/><use xlink:href="#5ebcc716g" x="532.3937" y="398.0754"/><use xlink:href="#5ebcc716b" x="599.1737" y="398.0754"/><use xlink:href="#5ebcc716h" x="659.1497" y="398.0754"/><use xlink:href="#5ebcc716j" x="735.8837" y="398.0754"/><use xlink:href="#5ebcc716d" x="794.9777" y="398.0754"/><use xlink:href="#5ebcc716e" x="864.4037" y="398.0754"/></g><use xlink:href="#5ebcc716k" x="38.2418" y="542.8214"/><use xlink:href="#5ebcc716l" x="59.1578" y="542.8214"/><use xlink:href="#5ebcc716m" x="88.3394" y="542.8214"/><use xlink:href="#5ebcc716m" x="106.5338" y="542.8214"/><use xlink:href="#5ebcc716n" x="124.7282" y="542.8214"/><use xlink:href="#5ebcc716o" x="137.4794" y="542.8214"/><use xlink:href="#5ebcc716p" x="147.1562" y="542.8214"/><use xlink:href="#5ebcc716q" x="159.353" y="542.8214"/><use xlink:href="#5ebcc716r" x="179.8658" y="542.8214"/><use xlink:href="#5ebcc716s" x="212.6762" y="542.8214"/><use xlink:href="#5ebcc716o" x="231.0722" y="542.8214"/><use xlink:href="#5ebcc716t" x="240.749" y="542.8214"/><use xlink:href="#5ebcc716o" x="260.153" y="542.8214"/><use xlink:href="#5ebcc716p" x="269.8298" y="542.8214"/><use xlink:href="#5ebcc716m" x="282.0266" y="542.8214"/><use xlink:href="#5ebcc716u" x="300.221" y="542.8214"/><use xlink:href="#5ebcc716v" x="320.9354" y="542.8214"/><use xlink:href="#5ebcc716s" x="341.1962" y="542.8214"/><use xlink:href="#5ebcc716o" x="359.5922" y="542.8214"/><use xlink:href="#5ebcc716w" x="369.269" y="542.8214"/><use xlink:href="#5ebcc716x" x="381.365" y="542.8214"/><use xlink:href="#5ebcc716y" x="395.0234" y="542.8214"/><use xlink:href="#5ebcc716r" x="414.2258" y="542.8214"/><use xlink:href="#5ebcc716o" x="447.0362" y="542.8214"/><use xlink:href="#5ebcc716z" x="456.713" y="542.8214"/><use xlink:href="#5ebcc716x" x="476.621" y="542.8214"/><use xlink:href="#5ebcc716q" x="490.2794" y="542.8214"/><use xlink:href="#5ebcc716A" x="510.7922" y="542.8214"/><use xlink:href="#5ebcc716B" x="532.313" y="542.8214"/><use xlink:href="#5ebcc716r" x="552.8762" y="542.8214"/><use xlink:href="#5ebcc716q" x="585.6866" y="542.8214"/><use xlink:href="#5ebcc716C" x="606.1994" y="542.8214"/><g><use xlink:href="#5ebcc716s" x="611.189" y="542.8214"/><use xlink:href="#5ebcc716o" x="629.585" y="542.8214"/><use xlink:href="#5ebcc716D" x="639.2618" y="542.8214"/><use xlink:href="#5ebcc716q" x="659.573" y="542.8214"/><use xlink:href="#5ebcc716A" x="680.0858" y="542.8214"/><use xlink:href="#5ebcc716n" x="701.6066" y="542.8214"/><use xlink:href="#5ebcc716x" x="714.3578" y="542.8214"/><use xlink:href="#5ebcc716v" x="728.0162" y="542.8214"/><use xlink:href="#5ebcc716o" x="748.277" y="542.8214"/><use xlink:href="#5ebcc716w" x="757.9538" y="542.8214"/></g><g><use xlink:href="#5ebcc716y" x="769.5458" y="542.8214"/><use xlink:href="#5ebcc716x" x="788.7482" y="542.8214"/><use xlink:href="#5ebcc716o" x="802.4066" y="542.8214"/><use xlink:href="#5ebcc716E" x="812.0834" y="542.8214"/><use xlink:href="#5ebcc716F" x="831.7898" y="542.8214"/><use xlink:href="#5ebcc716G" x="850.5386" y="542.8214"/><use xlink:href="#5ebcc716o" x="869.5394" y="542.8214"/><use xlink:href="#5ebcc716y" x="879.2162" y="542.8214"/><use xlink:href="#5ebcc716A" x="898.4186" y="542.8214"/><use xlink:href="#5ebcc716H" x="919.9394" y="542.8214"/><use xlink:href="#5ebcc716v" x="930.5234" y="542.8214"/><use xlink:href="#5ebcc716I" x="950.7842" y="542.8214"/></g><g><use xlink:href="#5ebcc716J" x="39.6591" y="1518.1144"/><use xlink:href="#5ebcc716K" x="62.5481" y="1518.1144"/><use xlink:href="#5ebcc716L" x="83.0871" y="1518.1144"/><use xlink:href="#5ebcc716M" x="114.8591" y="1518.1144"/><use xlink:href="#5ebcc716N" x="144.8451" y="1518.1144"/><use xlink:href="#5ebcc716O" x="164.7731" y="1518.1144"/><use xlink:href="#5ebcc716P" x="172.0581" y="1518.1144"/><use xlink:href="#5ebcc716Q" x="192.9261" y="1518.1144"/><use xlink:href="#5ebcc716R" x="213.7471" y="1518.1144"/><use xlink:href="#5ebcc716S" x="233.7691" y="1518.1144"/><use xlink:href="#5ebcc716T" x="253.0861" y="1518.1144"/><use xlink:href="#5ebcc716M" x="275.1291" y="1518.1144"/><use xlink:href="#5ebcc716N" x="305.1151" y="1518.1144"/><use xlink:href="#5ebcc716O" x="325.0431" y="1518.1144"/><use xlink:href="#5ebcc716U" x="332.3281" y="1518.1144"/><use xlink:href="#5ebcc716Q" x="352.2091" y="1518.1144"/><use xlink:href="#5ebcc716V" x="373.0301" y="1518.1144"/><use xlink:href="#5ebcc716N" x="394.7441" y="1518.1144"/><use xlink:href="#5ebcc716W" x="414.6721" y="1518.1144"/><use xlink:href="#5ebcc716M" x="436.1981" y="1518.1144"/><use xlink:href="#5ebcc716O" x="466.1841" y="1518.1144"/><use xlink:href="#5ebcc716S" x="473.4691" y="1518.1144"/><use xlink:href="#5ebcc716O" x="492.7861" y="1518.1144"/><use xlink:href="#5ebcc716X" x="500.0711" y="1518.1144"/><use xlink:href="#5ebcc716K" x="520.4691" y="1518.1144"/><use xlink:href="#5ebcc716P" x="541.0081" y="1518.1144"/><use xlink:href="#5ebcc716K" x="561.8761" y="1518.1144"/><use xlink:href="#5ebcc716W" x="582.4151" y="1518.1144"/><use xlink:href="#5ebcc716T" x="603.9411" y="1518.1144"/><use xlink:href="#5ebcc716M" x="625.9841" y="1518.1144"/><use xlink:href="#5ebcc716L" x="655.9701" y="1518.1144"/><use xlink:href="#5ebcc716O" x="687.7421" y="1518.1144"/><use xlink:href="#5ebcc716Q" x="695.0271" y="1518.1144"/><use xlink:href="#5ebcc716W" x="715.8481" y="1518.1144"/><use xlink:href="#5ebcc716N" x="737.3741" y="1518.1144"/><use xlink:href="#5ebcc716L" x="757.3021" y="1518.1144"/><use xlink:href="#5ebcc716Y" x="789.0741" y="1518.1144"/><use xlink:href="#5ebcc716L" x="809.7541" y="1518.1144"/><use xlink:href="#5ebcc716O" x="841.5261" y="1518.1144"/><use xlink:href="#5ebcc716X" x="848.8111" y="1518.1144"/><use xlink:href="#5ebcc716K" x="869.2091" y="1518.1144"/><use xlink:href="#5ebcc716Z" x="889.7481" y="1518.1144"/><use xlink:href="#5ebcc716aa" x="897.0331" y="1518.1144"/><use xlink:href="#5ebcc716ab" x="919.3581" y="1518.1144"/><use xlink:href="#5ebcc716ac" x="941.3071" y="1518.1144"/></g><g fill="#6eb287"><use xlink:href="#5ebcc716ad" x="38.2418" y="627.4384"/><use xlink:href="#5ebcc716l" x="56.789" y="627.4384"/><use xlink:href="#5ebcc716m" x="85.9706" y="627.4384"/><use xlink:href="#5ebcc716m" x="104.165" y="627.4384"/><use xlink:href="#5ebcc716n" x="122.3594" y="627.4384"/><use xlink:href="#5ebcc716o" x="135.1106" y="627.4384"/><use xlink:href="#5ebcc716p" x="144.7874" y="627.4384"/><use xlink:href="#5ebcc716q" x="156.9842" y="627.4384"/><use xlink:href="#5ebcc716r" x="177.497" y="627.4384"/><use xlink:href="#5ebcc716ae" x="210.3074" y="627.4384"/><use xlink:href="#5ebcc716o" x="225.2762" y="627.4384"/><use xlink:href="#5ebcc716af" x="234.953" y="627.4384"/><use xlink:href="#5ebcc716o" x="252.9458" y="627.4384"/><use xlink:href="#5ebcc716p" x="262.6226" y="627.4384"/><use xlink:href="#5ebcc716m" x="274.8194" y="627.4384"/><use xlink:href="#5ebcc716u" x="293.0138" y="627.4384"/><use xlink:href="#5ebcc716v" x="313.7282" y="627.4384"/><use xlink:href="#5ebcc716ae" x="333.989" y="627.4384"/><use xlink:href="#5ebcc716o" x="348.9578" y="627.4384"/><use xlink:href="#5ebcc716w" x="358.6346" y="627.4384"/><use xlink:href="#5ebcc716x" x="370.7306" y="627.4384"/><use xlink:href="#5ebcc716y" x="384.389" y="627.4384"/><use xlink:href="#5ebcc716r" x="403.5914" y="627.4384"/><use xlink:href="#5ebcc716o" x="436.4018" y="627.4384"/><use xlink:href="#5ebcc716z" x="446.0786" y="627.4384"/><use xlink:href="#5ebcc716x" x="465.9866" y="627.4384"/><use xlink:href="#5ebcc716q" x="479.645" y="627.4384"/><use xlink:href="#5ebcc716A" x="500.1578" y="627.4384"/><use xlink:href="#5ebcc716B" x="521.6786" y="627.4384"/><use xlink:href="#5ebcc716r" x="542.2418" y="627.4384"/><use xlink:href="#5ebcc716q" x="575.0522" y="627.4384"/><use xlink:href="#5ebcc716C" x="595.565" y="627.4384"/><use xlink:href="#5ebcc716ae" x="602.5706" y="627.4384"/><use xlink:href="#5ebcc716o" x="617.5394" y="627.4384"/><use xlink:href="#5ebcc716D" x="627.2162" y="627.4384"/><use xlink:href="#5ebcc716q" x="647.5274" y="627.4384"/><use xlink:href="#5ebcc716A" x="668.0402" y="627.4384"/><use xlink:href="#5ebcc716n" x="689.561" y="627.4384"/><use xlink:href="#5ebcc716x" x="702.3122" y="627.4384"/><use xlink:href="#5ebcc716v" x="715.9706" y="627.4384"/><use xlink:href="#5ebcc716o" x="736.2314" y="627.4384"/><use xlink:href="#5ebcc716w" x="745.9082" y="627.4384"/></g><g fill="#6eb287"><use xlink:href="#5ebcc716y" x="757.5002" y="627.4384"/><use xlink:href="#5ebcc716x" x="776.7026" y="627.4384"/><use xlink:href="#5ebcc716o" x="790.361" y="627.4384"/><use xlink:href="#5ebcc716ag" x="800.0378" y="627.4384"/><use xlink:href="#5ebcc716ah" x="817.9802" y="627.4384"/><use xlink:href="#5ebcc716ai" x="835.4186" y="627.4384"/><use xlink:href="#5ebcc716o" x="852.9074" y="627.4384"/><use xlink:href="#5ebcc716y" x="862.5842" y="627.4384"/><use xlink:href="#5ebcc716A" x="881.7866" y="627.4384"/><use xlink:href="#5ebcc716H" x="903.3074" y="627.4384"/><use xlink:href="#5ebcc716v" x="913.8914" y="627.4384"/><use xlink:href="#5ebcc716I" x="934.1522" y="627.4384"/></g><g fill="#6eb287"><use xlink:href="#5ebcc716aj" x="39.6591" y="1603.1906"/><use xlink:href="#5ebcc716K" x="60.3391" y="1603.1906"/><use xlink:href="#5ebcc716L" x="80.8781" y="1603.1906"/><use xlink:href="#5ebcc716M" x="112.6501" y="1603.1906"/><use xlink:href="#5ebcc716N" x="142.6361" y="1603.1906"/><use xlink:href="#5ebcc716O" x="162.5641" y="1603.1906"/><use xlink:href="#5ebcc716P" x="169.8491" y="1603.1906"/><use xlink:href="#5ebcc716Q" x="190.7171" y="1603.1906"/><use xlink:href="#5ebcc716R" x="211.5381" y="1603.1906"/><use xlink:href="#5ebcc716ak" x="231.5601" y="1603.1906"/><use xlink:href="#5ebcc716T" x="248.1981" y="1603.1906"/><use xlink:href="#5ebcc716M" x="270.2411" y="1603.1906"/><use xlink:href="#5ebcc716N" x="300.2271" y="1603.1906"/><use xlink:href="#5ebcc716O" x="320.1551" y="1603.1906"/><use xlink:href="#5ebcc716al" x="327.4401" y="1603.1906"/><use xlink:href="#5ebcc716Q" x="346.0521" y="1603.1906"/><use xlink:href="#5ebcc716V" x="366.8731" y="1603.1906"/><use xlink:href="#5ebcc716N" x="388.5871" y="1603.1906"/><use xlink:href="#5ebcc716W" x="408.5151" y="1603.1906"/><use xlink:href="#5ebcc716M" x="430.0411" y="1603.1906"/><use xlink:href="#5ebcc716O" x="460.0271" y="1603.1906"/><use xlink:href="#5ebcc716ak" x="467.3121" y="1603.1906"/><use xlink:href="#5ebcc716O" x="483.9501" y="1603.1906"/><use xlink:href="#5ebcc716am" x="491.2351" y="1603.1906"/><use xlink:href="#5ebcc716K" x="510.5051" y="1603.1906"/><use xlink:href="#5ebcc716P" x="531.0441" y="1603.1906"/><use xlink:href="#5ebcc716K" x="551.9121" y="1603.1906"/><use xlink:href="#5ebcc716W" x="572.4511" y="1603.1906"/><use xlink:href="#5ebcc716T" x="593.9771" y="1603.1906"/><use xlink:href="#5ebcc716M" x="616.0201" y="1603.1906"/><use xlink:href="#5ebcc716L" x="646.0061" y="1603.1906"/><use xlink:href="#5ebcc716O" x="677.7781" y="1603.1906"/><use xlink:href="#5ebcc716Q" x="685.0631" y="1603.1906"/><use xlink:href="#5ebcc716W" x="705.8841" y="1603.1906"/><use xlink:href="#5ebcc716N" x="727.4101" y="1603.1906"/><use xlink:href="#5ebcc716L" x="747.3381" y="1603.1906"/><use xlink:href="#5ebcc716Y" x="779.1101" y="1603.1906"/><use xlink:href="#5ebcc716L" x="799.7901" y="1603.1906"/><use xlink:href="#5ebcc716O" x="831.5621" y="1603.1906"/><use xlink:href="#5ebcc716am" x="838.8471" y="1603.1906"/><use xlink:href="#5ebcc716K" x="858.1171" y="1603.1906"/><use xlink:href="#5ebcc716Z" x="878.6561" y="1603.1906"/><use xlink:href="#5ebcc716an" x="885.9411" y="1603.1906"/><use xlink:href="#5ebcc716ao" x="907.6551" y="1603.1906"/><use xlink:href="#5ebcc716ap" x="929.6041" y="1603.1906"/></g><path d="M20 460.129h960M20 1667.387h960M20 1426.508h960M20 680.957h960M20 1076.492h960" fill="none" stroke="#ddd"/><g fill="#ddd"><use xlink:href="#5ebcc716aq" x="38.9526" y="78.3602"/><use xlink:href="#5ebcc716ar" x="49.7066" y="78.3602"/><use xlink:href="#5ebcc716as" x="60.6506" y="78.3602"/><use xlink:href="#5ebcc716at" x="73.0956" y="78.3602"/></g><g fill="#ddd"><use xlink:href="#5ebcc716au" x="83.6026" y="78.3602"/></g><g fill="#ddd"><use xlink:href="#5ebcc716av" x="93.2926" y="78.3602"/><use xlink:href="#5ebcc716aw" x="97.5486" y="78.3602"/><use xlink:href="#5ebcc716av" x="102.7356" y="78.3602"/><use xlink:href="#5ebcc716ax" x="106.9916" y="78.3602"/><use xlink:href="#5ebcc716av" x="114.6106" y="78.3602"/></g><g fill="#ddd"><use xlink:href="#5ebcc716aq" x="118.4866" y="78.3602"/><use xlink:href="#5ebcc716ar" x="129.2406" y="78.3602"/><use xlink:href="#5ebcc716as" x="140.1846" y="78.3602"/><use xlink:href="#5ebcc716at" x="152.6296" y="78.3602"/></g><g fill="#ddd"><use xlink:href="#5ebcc716au" x="163.1366" y="78.3602"/></g><g fill="#ddd"><use xlink:href="#5ebcc716av" x="172.8266" y="78.3602"/></g><g fill="#ddd"><use xlink:href="#5ebcc716aw" x="177.0826" y="78.3602"/><use xlink:href="#5ebcc716aw" x="182.2696" y="78.3602"/></g><g><use xlink:href="#5ebcc716ay" x="37.504" y="1213.715"/></g><g><use xlink:href="#5ebcc716az" x="77.32" y="1213.715"/><use xlink:href="#5ebcc716aA" x="131.7352" y="1213.715"/><use xlink:href="#5ebcc716aB" x="183.9384" y="1213.715"/><use xlink:href="#5ebcc716aC" x="233.1554" y="1213.715"/><use xlink:href="#5ebcc716aD" x="286.4646" y="1213.715"/><use xlink:href="#5ebcc716aE" x="323.2944" y="1213.715"/><use xlink:href="#5ebcc716aF" x="372.8432" y="1213.715"/><use xlink:href="#5ebcc716aG" x="421.5072" y="1213.715"/><use xlink:href="#5ebcc716aH" x="438.0972" y="1213.715"/><use xlink:href="#5ebcc716aI" x="487.3142" y="1213.715"/><use xlink:href="#5ebcc716aE" x="540.6234" y="1213.715"/><use xlink:href="#5ebcc716aF" x="590.1722" y="1213.715"/><use xlink:href="#5ebcc716aG" x="638.8362" y="1213.715"/><use xlink:href="#5ebcc716aD" x="655.4262" y="1213.715"/><use xlink:href="#5ebcc716aJ" x="692.256" y="1213.715"/><use xlink:href="#5ebcc716aK" x="718.8" y="1213.715"/><use xlink:href="#5ebcc716aC" x="766.6898" y="1213.715"/><use xlink:href="#5ebcc716aK" x="819.999" y="1213.715"/><use xlink:href="#5ebcc716aF" x="867.8888" y="1213.715"/><use xlink:href="#5ebcc716aL" x="916.5528" y="1213.715"/></g><g fill="#6eb287"><use xlink:href="#5ebcc716aM" x="37.504" y="1356.7544"/><use xlink:href="#5ebcc716aN" x="80.638" y="1356.7544"/><use xlink:href="#5ebcc716aA" x="130.0762" y="1356.7544"/><use xlink:href="#5ebcc716aB" x="182.2794" y="1356.7544"/><use xlink:href="#5ebcc716aC" x="231.4964" y="1356.7544"/><use xlink:href="#5ebcc716aD" x="284.8056" y="1356.7544"/><use xlink:href="#5ebcc716aE" x="321.6354" y="1356.7544"/><use xlink:href="#5ebcc716aO" x="371.1842" y="1356.7544"/><use xlink:href="#5ebcc716aG" x="413.2122" y="1356.7544"/><use xlink:href="#5ebcc716aH" x="429.8022" y="1356.7544"/><use xlink:href="#5ebcc716aI" x="479.0192" y="1356.7544"/><use xlink:href="#5ebcc716aE" x="532.3284" y="1356.7544"/><use xlink:href="#5ebcc716aO" x="581.8772" y="1356.7544"/><use xlink:href="#5ebcc716aG" x="623.9052" y="1356.7544"/><use xlink:href="#5ebcc716aD" x="640.4952" y="1356.7544"/><use xlink:href="#5ebcc716aJ" x="677.325" y="1356.7544"/><use xlink:href="#5ebcc716aK" x="703.869" y="1356.7544"/><use xlink:href="#5ebcc716aC" x="751.7588" y="1356.7544"/><use xlink:href="#5ebcc716aK" x="805.068" y="1356.7544"/><use xlink:href="#5ebcc716aO" x="852.9578" y="1356.7544"/><use xlink:href="#5ebcc716aP" x="894.9858" y="1356.7544"/></g><g><use xlink:href="#5ebcc716aQ" x="31.4961" y="839.4675"/><use xlink:href="#5ebcc716aR" x="79.4011" y="839.4675"/><use xlink:href="#5ebcc716aS" x="128.8791" y="839.4675"/><use xlink:href="#5ebcc716aT" x="186.6511" y="839.4675"/><use xlink:href="#5ebcc716aU" x="240.4191" y="839.4675"/><use xlink:href="#5ebcc716aV" x="298.1911" y="839.4675"/><use xlink:href="#5ebcc716aW" x="326.7911" y="839.4675"/><use xlink:href="#5ebcc716aV" x="382.8471" y="839.4675"/><use xlink:href="#5ebcc716aX" x="411.4471" y="839.4675"/><use xlink:href="#5ebcc716aY" x="472.3651" y="839.4675"/><use xlink:href="#5ebcc716aZ" x="530.1371" y="839.4675"/><use xlink:href="#5ebcc716aX" x="586.4791" y="839.4675"/><use xlink:href="#5ebcc716ba" x="647.3971" y="839.4675"/></g><g><use xlink:href="#5ebcc716aR" x="697.8761" y="839.4675"/><use xlink:href="#5ebcc716aU" x="747.3541" y="839.4675"/><use xlink:href="#5ebcc716bb" x="805.1261" y="839.4675"/><use xlink:href="#5ebcc716ba" x="862.8981" y="839.4675"/><use xlink:href="#5ebcc716bc" x="916.2371" y="839.4675"/></g><g><use xlink:href="#5ebcc716bd" x="39.2914" y="1839.9782"/><use xlink:href="#5ebcc716be" x="112.1914" y="1839.9782"/></g><g><use xlink:href="#5ebcc716bf" x="175.6954" y="1839.9782"/><use xlink:href="#5ebcc716bg" x="234.5014" y="1839.9782"/><use xlink:href="#5ebcc716bh" x="306.2674" y="1839.9782"/><use xlink:href="#5ebcc716bi" x="367.8274" y="1839.9782"/><use xlink:href="#5ebcc716bj" x="436.0294" y="1839.9782"/><use xlink:href="#5ebcc716bk" x="507.1474" y="1839.9782"/><use xlink:href="#5ebcc716bh" x="606.4534" y="1839.9782"/><use xlink:href="#5ebcc716bl" x="668.0134" y="1839.9782"/><use xlink:href="#5ebcc716bm" x="737.9974" y="1839.9782"/><use xlink:href="#5ebcc716bn" x="845.8894" y="1839.9782"/></g><g fill="#6eb287"><use xlink:href="#5ebcc716aQ" x="31.4961" y="1001.5723"/><use xlink:href="#5ebcc716aR" x="79.4011" y="1001.5723"/><use xlink:href="#5ebcc716aS" x="128.8791" y="1001.5723"/><use xlink:href="#5ebcc716aT" x="186.6511" y="1001.5723"/><use xlink:href="#5ebcc716aU" x="240.4191" y="1001.5723"/><use xlink:href="#5ebcc716aV" x="298.1911" y="1001.5723"/><use xlink:href="#5ebcc716bo" x="326.7911" y="1001.5723"/><use xlink:href="#5ebcc716aV" x="377.5561" y="1001.5723"/><use xlink:href="#5ebcc716aX" x="406.1561" y="1001.5723"/><use xlink:href="#5ebcc716aY" x="467.0741" y="1001.5723"/><use xlink:href="#5ebcc716aZ" x="524.8461" y="1001.5723"/><use xlink:href="#5ebcc716aX" x="581.1881" y="1001.5723"/><use xlink:href="#5ebcc716bp" x="642.1061" y="1001.5723"/><use xlink:href="#5ebcc716aR" x="691.5841" y="1001.5723"/><use xlink:href="#5ebcc716aU" x="741.0621" y="1001.5723"/><use xlink:href="#5ebcc716bb" x="798.8341" y="1001.5723"/><use xlink:href="#5ebcc716bp" x="856.6061" y="1001.5723"/><use xlink:href="#5ebcc716bq" x="906.0841" y="1001.5723"/></g><g fill="#6eb287"><use xlink:href="#5ebcc716br" x="39.2914" y="2011.2957"/><use xlink:href="#5ebcc716be" x="104.7394" y="2011.2957"/></g><g fill="#6eb287"><use xlink:href="#5ebcc716bs" x="168.2434" y="2011.2957"/><use xlink:href="#5ebcc716bg" x="219.7594" y="2011.2957"/><use xlink:href="#5ebcc716bh" x="291.5254" y="2011.2957"/><use xlink:href="#5ebcc716bi" x="353.0854" y="2011.2957"/><use xlink:href="#5ebcc716bj" x="421.2874" y="2011.2957"/><use xlink:href="#5ebcc716bk" x="492.4054" y="2011.2957"/><use xlink:href="#5ebcc716bh" x="591.7114" y="2011.2957"/><use xlink:href="#5ebcc716bl" x="653.2714" y="2011.2957"/><use xlink:href="#5ebcc716bm" x="723.2554" y="2011.2957"/><use xlink:href="#5ebcc716bn" x="831.1474" y="2011.2957"/></g></svg>