<?xml version='1.0' encoding='UTF-8'?>
<svg xmlns="http://www.w3.org/2000/svg" width="720px" height="720px" viewBox="0 0 720 720" y="0px" x="0px" enable-background="new 0 0 720 720"><path fill="#93b78e" d="M0 0h720v720H0z"/><path d="M1069.137 55.785c-5.117 0-15.082 9.02-19.254 12.79l-9.02 51.835h-12.793l9.29-53.183.945-21.274 11.172-1.074.406 12.387c2.691-2.828 10.637-13.328 21.945-13.328 11.176 0 11.848 9.019 9.422 22.886l-13.73 77.149h-12.79l13.73-76.61c1.08-5.656 1.481-9.425.677-11.578m-69.34 3.77c0 6.328-3.367 19.789-4.715 24.504h-10.77l2.829-15.887c.941-5.254 1.48-8.348.941-10.637-1.613-1.75-4.176-2.426-6.328-2.426-6.059 0-8.078 3.368-9.828 13.063l-3.77 21.27c-4.71 26.257 20.735 18.445 20.735 40.124 0 10.903-7.676 15.079-15.618 15.079-3.906 0-6.195-.672-8.347-1.348l1.613-9.828c1.348.27 2.961.539 4.445.539 3.77 0 6.328-1.211 6.328-4.848 0-10.637-26.792-8.21-21.812-38.101l3.77-22.887c2.828-16.832 9.425-24.234 23.832-24.234 10.5 0 16.695 5.789 16.695 15.617m-68.668-3.77c-5.113 0-15.078 9.02-19.254 12.79l-9.02 51.835h-12.789l9.29-53.183.94-21.274 11.177-1.074.402 12.387c2.695-2.828 10.637-13.328 21.95-13.328 11.171 0 11.847 9.019 9.421 22.886l-13.73 77.149h-12.793l13.734-76.61c1.074-5.656 1.48-9.425.672-11.578m-40.93-9.832l-2.156 12.254h-15.078l-8.215 45.238c-.402 2.559-.54 4.848-.402 5.922.941.809 3.5.945 6.191.945h5.656l-1.75 9.692c-1.883.539-9.156 1.348-11.71 1.348-9.965 0-12.255-6.192-10.098-18.579l7.808-44.566h-14.812l2.152-12.254zm-75.535 13.602c0 6.328-3.363 19.789-4.71 24.504h-10.77l2.828-15.887c.941-5.254 1.476-8.348.941-10.637-1.617-1.75-4.176-2.426-6.328-2.426-6.059 0-8.078 3.368-9.828 13.063l-3.77 21.27c-4.715 26.257 20.735 18.445 20.735 40.124 0 10.903-7.676 15.079-15.621 15.079-3.903 0-6.192-.672-8.348-1.348l1.617-9.828c1.344.27 2.961.539 4.442.539 3.77 0 6.328-1.211 6.328-4.848 0-10.637-26.793-8.21-21.809-38.101l3.77-22.887c2.828-16.832 9.425-24.234 23.832-24.234 10.5 0 16.691 5.789 16.691 15.617m-75.262-44.567h13.735c-1.75 6.461-8.485 16.426-14.676 21.946h-8.348c3.633-7.27 6.328-13.329 9.29-21.946M746 55.785c-5.117 0-15.082 9.02-19.254 12.79l-9.02 51.835h-12.788l9.289-53.183.941-21.274 11.176-1.074.402 12.387c2.695-2.828 10.637-13.328 21.945-13.328 11.176 0 11.848 9.019 9.426 22.886l-13.734 77.149h-12.79l13.731-76.61c1.078-5.656 1.485-9.425.676-11.578m-80.785 55.2c8.484 0 10.773-4.981 12.926-17.098l3.097-17.637c1.48-7.945 1.48-14.137.403-19.926-.809-.136-1.614-.136-2.29-.136-7.671 0-13.46 4.308-15.617 16.425l-3.906 22.485c-1.074 6.597-1.75 10.636-1.21 12.925 1.616 1.883 4.444 2.961 6.597 2.961m39.855-65.03l-2.156 12.253h-3.367c-2.016 0-4.442-.27-7.133-.672 1.48 5.922 1.883 12.52.809 19.387L690.125 95.5c-2.965 17.91-10.504 26.66-24.64 26.66-15.485 0-21.676-8.347-18.31-27.062l4.04-22.485c3.363-18.578 13.191-26.66 28.543-26.66zM602.203 97.788c-.808 4.578-1.078 8.617-.27 10.773 1.481 1.75 3.77 2.422 6.06 2.422 11.577 0 16.292-21.543 16.292-44.027 0-6.867-.406-15.348-.808-20.059l11.308-2.02c1.078 6.192 1.887 15.75 1.75 23.427-.402 28.004-7 53.855-29.351 53.855-12.52 0-20.465-8.347-17.368-25.715l8.887-50.492h12.656zm-37.297-23.695c1.485-8.617 1.211-14.809 0-18.176-.941-.54-3.093-.809-4.843-.809-8.485 0-10.774 4.578-12.926 17.102l-6.598 37.695c1.883.54 4.172.946 7.406.946 7.403 0 11.309-3.907 13.598-17.372zm12.387 0l-3.23 19.386c-2.961 17.774-9.829 28.68-25.176 28.68-4.309 0-8.078-1.078-10.367-2.02-.27 3.368-1.079 7.942-1.618 11.446l-1.882 12.387h-12.657l12.387-73.38c3.098-18.042 10.906-26.656 25.04-26.656 17.1 0 20.198 13.868 17.503 30.157m-86.84 36.89c7.27 0 10.367-5.25 13.195-21.945l1.075-6.328c2.156-12.117 1.214-20.332-4.309-29.754-6.867 3.23-12.652 9.156-16.02 28.273l-1.21 7c-1.348 8.079-1.75 15.215-.809 19.122 1.21 2.289 4.71 3.632 8.078 3.632m17.637-67.586c8.078 10.77 11.308 25.043 8.348 43.082l-.81 4.98c-3.769 22.755-11.577 30.7-26.116 30.7-14.813 0-23.024-10.097-18.446-35.543l1.075-6.195c3.77-20.734 11.847-30.43 22.89-35.543l-12.793-17.774 2.828-12.117h40.528l-2.157 12.117h-26.792l-.27.672zm-51.703-28.41h13.734c-1.75 6.461-8.48 16.426-14.676 21.946h-8.347c3.636-7.27 6.328-13.329 9.289-21.946m2.425 30.965l-10.234 57.492c-.402 2.559-.539 4.848-.402 5.922.941.809 3.5.945 6.191.945h4.309l-1.75 9.692c-1.887.539-7.809 1.348-10.367 1.348-9.961 0-12.387-6.059-10.23-18.579l9.69-56.82zM404.82 59.555c0 6.328-3.367 19.789-4.71 24.504h-10.774l2.828-15.887c.945-5.254 1.48-8.348.945-10.637-1.617-1.75-4.175-2.426-6.328-2.426-6.058 0-8.082 3.368-9.832 13.063l-3.77 21.27c-4.71 26.257 20.735 18.445 20.735 40.124 0 10.903-7.676 15.079-15.617 15.079-3.902 0-6.192-.672-8.348-1.348l1.617-9.828c1.344.27 2.961.539 4.442.539 3.77 0 6.328-1.211 6.328-4.848 0-10.637-26.793-8.21-21.813-38.101l3.77-22.887c2.828-16.832 9.426-24.234 23.832-24.234 10.5 0 16.695 5.789 16.695 15.617m-68.664-3.77c-5.117 0-15.082 9.02-19.254 12.79l-9.023 51.835h-12.79l9.29-53.183.945-21.274 11.172-1.074.406 12.387c2.692-2.828 10.637-13.328 21.946-13.328 11.175 0 11.847 9.019 9.425 22.886l-13.734 77.149H321.75l13.73-76.61c1.079-5.656 1.48-9.425.676-11.578m-40.933-9.832l-2.153 12.254h-15.082l-8.21 45.238c-.407 2.559-.54 4.848-.407 5.922.945.809 3.504.945 6.195.945h5.657l-1.75 9.692c-1.887.539-9.157 1.348-11.715 1.348-9.965 0-12.254-6.192-10.098-18.579l7.809-44.566h-14.813l2.156-12.254zm-98.555-30.965h13.734c-1.75 6.461-8.484 16.426-14.675 21.946h-8.348c3.633-7.27 6.328-13.329 9.289-21.946m6.598 40.797c-5.118 0-15.078 9.02-19.254 12.79l-9.02 51.835H162.2l9.293-53.183.942-21.274 11.175-1.074.403 12.387c2.691-2.828 10.636-13.328 21.945-13.328 11.176 0 11.848 9.019 9.426 22.886l-13.735 77.149H188.86l13.735-76.61c1.074-5.656 1.48-9.425.672-11.578m-72.032 46.45l-5.25 1.343c-6.464 10.774-12.793 28.277-14.812 40.395h-12.79c2.02-15.215 10.5-33.66 18.579-46.184L114 45.953h12.926l1.21 45.777 5.79-1.48c6.328-12.25 11.578-30.695 12.793-44.297h12.789c-1.348 15.484-9.156 37.7-17.102 50.492l3.235 47.528h-12.524zM86.262 74.093c1.48-8.617 1.215-14.809 0-18.176-.942-.54-3.094-.809-4.844-.809-8.484 0-10.773 4.578-12.926 17.102l-6.597 37.695c1.882.54 4.171.946 7.402.946 7.406 0 11.312-3.907 13.601-17.372zm12.386 0l-3.23 19.386c-2.961 17.774-9.828 28.68-25.176 28.68-4.308 0-8.078-1.078-10.367-2.02-.27 3.368-1.078 7.942-1.617 11.446l-1.883 12.387H43.719l12.386-73.38C59.2 52.552 67.012 43.938 81.148 43.938c17.098 0 20.196 13.868 17.5 30.157m-98.957 35.68c5.25 0 17.774-18.985 22.082-32.72l2.692-8.75c-1.75-4.577-5.656-12.656-10.77-12.656-4.308 0-7.406 5.926-9.695 18.446L.23 94.695c-1.21 6.73-1.21 13.328-.539 15.078m-8.347-35.68C-5.426 56.59.77 43.938 13.02 43.938c9.156 0 13.058 8.75 14.675 13.461.942-4.171 1.75-8.75 2.29-12.386l12.792.941C40.22 59.016 36.18 69.785 33.621 79.48l-4.039 23.965c-.539 2.828-.539 4.848-.406 5.922.941.809 3.5.945 6.195.945h2.29l-1.75 9.692c-1.888.539-5.794 1.348-8.349 1.348-6.734 0-10.234-2.692-10.234-8.211 0-2.965 2.29-11.985 4.04-18.043-4.31 9.828-13.329 26.254-23.427 26.254-9.425 0-13.597-8.887-10.097-28.004zm-29.082-28.14c-1.617 16.293-10.637 41.067-19.793 60.32l-6.059 12.79c-2.828.94-8.347 2.289-12.117 2.289-8.887 0-12.117-3.903-11.578-14.809l3.23-60.59h13.059l-2.961 42.277-1.613 17.098c-.137 1.754-.137 3.906-.137 5.117 1.078 0 3.5-.539 4.848-.804l6.73-16.563c7.137-17.637 10.906-31.371 13.602-47.125zm-76.34 9.832c-5.117 0-15.078 9.02-19.254 12.79l-9.02 51.835h-12.793l9.293-53.183.942-21.274 11.176-1.074.402 12.387c2.691-2.828 10.637-13.328 21.945-13.328 11.176 0 11.848 9.019 9.426 22.886l-13.734 77.149h-12.79l13.731-76.61c1.078-5.656 1.484-9.425.676-11.578m-40.934-9.832l-2.152 12.254h-15.078l-8.215 45.238c-.402 2.559-.54 4.848-.402 5.922.941.809 3.5.945 6.191.945h5.656l-1.75 9.692c-1.886.539-9.156 1.348-11.715 1.348-9.96 0-12.25-6.192-10.097-18.579l7.808-44.566h-14.808l2.152-12.254zm-113.77-30.965h13.735c-1.75 6.461-8.48 16.426-14.676 21.946h-8.347c3.636-7.27 6.328-13.329 9.289-21.946m-21.809 93.305c1.613 1.883 4.442 2.96 7.402 2.96 6.868 0 9.829-4.038 11.848-15.886l4.309-24.504c1.078-5.789 1.754-10.5 1.215-12.789-1.618-1.886-4.176-2.965-7.407-2.965-6.734 0-9.828 3.907-11.847 15.754l-4.309 24.504c-1.21 6.598-1.75 10.637-1.21 12.926m-7.138-37.43c3.23-18.715 10.77-26.925 25.313-26.925 15.21 0 21.273 8.21 18.039 26.925l-4.309 24.504c-3.23 18.715-10.77 27.063-25.312 27.063-15.211 0-21.27-8.348-18.04-27.063zm-6.328-24.91l-2.156 12.254h-11.309l-8.886 45.238c-.54 2.559-.54 4.848-.403 5.922.942.809 3.5.945 6.196.945h4.304l-1.75 9.692c-1.882.539-7.808 1.348-10.367 1.348-9.96 0-12.387-6.192-10.097-18.579l8.484-44.566h-14.274l-11.039 62.203h-12.253l11.043-62.203h-11.176l2.152-12.254zm-208.96 37.567l3.636-56.415h-6.465l-16.558 56.415zm-11.579-68.532h27.602l-4.985 105.422h-13.191l1.344-25.043h-22.078l-7.676 25.043h-13.465zm0 0M891.074 252.355c5.25 0 17.77-18.984 22.078-32.714l2.696-8.75c-1.75-4.578-5.657-12.657-10.77-12.657-4.312 0-7.406 5.922-9.695 18.446l-3.77 20.597c-1.215 6.73-1.215 13.328-.539 15.078m-8.347-35.675c3.23-17.504 9.421-30.16 21.675-30.16 9.157 0 13.063 8.75 14.676 13.464.942-4.175 1.75-8.754 2.29-12.386l12.788.941c-2.558 13.059-6.597 23.832-9.152 33.524l-4.04 23.964c-.538 2.828-.538 4.848-.405 5.926.945.809 3.5.942 6.195.942h2.289l-1.75 9.695c-1.887.539-5.79 1.348-8.352 1.348-6.73 0-10.23-2.696-10.23-8.215 0-2.961 2.289-11.985 4.039-18.04-4.309 9.829-13.328 26.255-23.426 26.255-9.426 0-13.601-8.887-10.097-28.008zm-6.196-28.14c-1.613 16.288-10.636 41.062-19.793 60.315l-6.058 12.793c-2.825.942-8.344 2.29-12.117 2.29-8.883 0-12.118-3.907-11.579-14.813l3.235-60.586h13.058l-2.965 42.277-1.613 17.098c-.136 1.75-.136 3.902-.136 5.117 1.078 0 3.503-.539 4.847-.808l6.735-16.563c7.132-17.637 10.906-31.367 13.597-47.12zm-73.914-30.97h13.73c-1.75 6.465-8.48 16.426-14.671 21.95h-8.348c3.633-7.274 6.324-13.333 9.29-21.95m1.882 50.895c.676-3.903.809-6.73.406-8.75-1.754-1.75-3.906-2.426-6.867-2.426-5.52 0-8.078 2.828-9.289 9.828l-1.078 6.465c-1.48 8.75 2.152 12.117 10.637 12.117h5.382l-1.882 10.098h-5.657c-7.402 0-13.465 1.348-14.539 7l-.27 1.48c-1.347 7.676 4.712 8.754 14.137 8.754h13.868l-1.883 9.961c-3.235.406-12.121.945-16.695.945-15.082 0-23.7-5.523-21.41-18.449l.406-2.285c1.21-6.734 5.789-10.906 12.656-13.195-5.387-3.637-8.078-9.696-6.465-19.117l.941-5.524c2.29-13.058 9.024-18.847 21.95-18.847 12.52 0 17.77 6.058 17.77 15.347 0 3.77-1.212 9.828-2.153 14.406h-11.313zm-77.012 0c.672-3.903.809-6.73.403-8.75-1.75-1.75-3.903-2.426-6.868-2.426-5.515 0-8.078 2.828-9.289 9.828l-1.078 6.465c-1.48 8.75 2.157 12.117 10.64 12.117h5.384l-1.883 10.098h-5.656c-7.407 0-13.465 1.348-14.543 7l-.266 1.48c-1.348 7.676 4.711 8.754 14.137 8.754h13.867l-1.887 9.961c-3.23.406-12.117.945-16.695.945-15.078 0-23.695-5.523-21.406-18.449l.406-2.285c1.21-6.734 5.789-10.906 12.652-13.195-5.383-3.637-8.078-9.696-6.46-19.117l.94-5.524c2.29-13.058 9.02-18.847 21.946-18.847 12.523 0 17.773 6.058 17.773 15.347 0 3.77-1.21 9.828-2.152 14.406h-11.312zm-76.34 45.105c8.48 0 10.77-4.984 12.922-17.101l3.098-17.637c1.48-7.941 1.48-14.137.406-19.926-.808-.133-1.617-.133-2.289-.133-7.676 0-13.465 4.305-15.617 16.422l-3.906 22.489c-1.078 6.593-1.75 10.632-1.211 12.921 1.617 1.887 4.441 2.965 6.597 2.965M691 188.54l-2.156 12.25h-3.364c-2.02 0-4.44-.267-7.136-.673 1.48 5.926 1.886 12.524.808 19.387l-3.097 18.582c-2.961 17.906-10.5 26.656-24.637 26.656-15.484 0-21.68-8.347-18.313-27.058l4.04-22.489c3.367-18.578 13.195-26.656 28.543-26.656zm-84.152-30.97h13.734c-1.75 6.465-8.48 16.426-14.676 21.95h-8.347c3.636-7.274 6.328-13.333 9.289-21.95m-18.711 82.805c-.809 4.578-1.078 8.617-.274 10.77 1.485 1.75 3.774 2.425 6.063 2.425 11.578 0 16.289-21.543 16.289-44.027 0-6.867-.403-15.352-.809-20.063l11.313-2.02c1.074 6.196 1.883 15.755 1.75 23.43-.407 28.005-7 53.852-29.352 53.852-12.523 0-20.465-8.347-17.367-25.715l8.887-50.488h12.652zm-60.32 10.5c1.617 1.887 4.445 2.965 7.406 2.965 6.867 0 9.828-4.04 11.847-15.89l4.309-24.505c1.078-5.789 1.75-10.5 1.21-12.789-1.616-1.883-4.171-2.96-7.405-2.96-6.73 0-9.829 3.902-11.848 15.75l-4.309 24.503c-1.21 6.598-1.75 10.637-1.21 12.926m-7.137-37.43c3.234-18.715 10.773-26.925 25.312-26.925 15.215 0 21.274 8.21 18.043 26.925l-4.308 24.504c-3.23 18.715-10.77 27.063-25.313 27.063-15.215 0-21.273-8.348-18.043-27.063zm-32.313 49.547l3.77-45.773 1.75-18.582-4.985.672-6.324 15.886c-4.578 11.446-11.312 30.7-16.293 47.797h-13.058c5.656-20.328 15.886-45.101 22.886-60.719l5.52-12.386c2.558-.946 8.082-2.157 12.12-2.157.403-8.75.536-17.367-1.077-20.195-1.348-.672-3.367-.808-4.848-.808-3.5 0-8.484.539-11.445 1.078l1.887-10.5c3.77-1.078 7.539-1.75 13.597-1.75 10.906 0 14.406 8.078 13.465 25.445l-4.176 81.992zm-47.664-54.527c.676-3.903.809-6.73.406-8.75-1.75-1.75-3.906-2.426-6.867-2.426-5.52 0-8.078 2.828-9.289 9.828l-1.078 6.465c-1.48 8.75 2.152 12.117 10.637 12.117h5.383l-1.883 10.098h-5.657c-7.402 0-13.46 1.348-14.539 7l-.27 1.48c-1.347 7.676 4.712 8.754 14.138 8.754h13.867l-1.883 9.961c-3.234.406-12.117.945-16.695.945-15.082 0-23.7-5.523-21.41-18.449l.406-2.285c1.21-6.734 5.789-10.906 12.656-13.195-5.387-3.637-8.078-9.696-6.465-19.117l.942-5.524c2.289-13.058 9.023-18.847 21.949-18.847 12.52 0 17.77 6.058 17.77 15.347 0 3.77-1.212 9.828-2.153 14.406h-11.309zm-36.488-19.926l-2.152 12.25H386.98l-8.21 45.238c-.407 2.559-.54 4.848-.407 5.926.946.809 3.504.942 6.196.942h5.656l-1.75 9.695c-1.887.539-9.156 1.348-11.715 1.348-9.96 0-12.25-6.196-10.098-18.583l7.809-44.566h-14.809l2.153-12.25zm-91.149 62.336c1.614 1.887 4.442 2.965 7.403 2.965 6.867 0 9.832-4.04 11.851-15.89l4.309-24.505c1.074-5.789 1.75-10.5 1.21-12.789-1.616-1.883-4.175-2.96-7.405-2.96-6.73 0-9.829 3.902-11.848 15.75l-4.309 24.503c-1.21 6.598-1.75 10.637-1.21 12.926m-7.137-37.43c3.23-18.715 10.773-26.925 25.312-26.925 15.215 0 21.274 8.21 18.04 26.925l-4.31 24.504c-3.23 18.715-10.769 27.063-25.308 27.063-15.215 0-21.273-8.348-18.043-27.063zm-6.328-24.906l-2.157 12.25h-11.308l-8.883 45.238c-.54 2.559-.54 4.848-.406 5.926.941.809 3.5.942 6.195.942h4.305l-1.75 9.695c-1.883.539-7.809 1.348-10.368 1.348-9.96 0-12.386-6.196-10.097-18.583l8.484-44.566h-14.273l-11.04 62.203h-12.253l11.043-62.203h-11.176l2.152-12.25zm-116.329 63.816c5.25 0 17.774-18.984 22.082-32.714l2.692-8.75c-1.75-4.578-5.652-12.657-10.77-12.657-4.308 0-7.406 5.922-9.695 18.446l-3.77 20.597c-1.21 6.73-1.21 13.328-.539 15.078m-8.347-35.675c3.23-17.504 9.426-30.16 21.68-30.16 9.152 0 13.058 8.75 14.671 13.464.946-4.175 1.754-8.754 2.29-12.386l12.792.941c-2.558 13.059-6.597 23.832-9.156 33.524l-4.039 23.964c-.539 2.828-.539 4.848-.402 5.926.941.809 3.5.942 6.191.942h2.29l-1.75 9.695c-1.888.539-5.79 1.348-8.348 1.348-6.73 0-10.23-2.696-10.23-8.215 0-2.961 2.288-11.985 4.038-18.04-4.308 9.829-13.332 26.255-23.43 26.255-9.425 0-13.597-8.887-10.097-28.008zm-76.203 35.675c5.25 0 17.773-18.984 22.078-32.714l2.695-8.75c-1.75-4.578-5.656-12.657-10.773-12.657-4.305 0-7.403 5.922-9.692 18.446l-3.77 20.597c-1.21 6.73-1.21 13.328-.538 15.078m-8.348-35.675c3.23-17.504 9.426-30.16 21.676-30.16 9.156 0 13.058 8.75 14.676 13.464.941-4.175 1.75-8.754 2.289-12.386l12.789.941c-2.555 13.059-6.594 23.832-9.153 33.524l-4.043 23.964c-.535 2.828-.535 4.848-.402 5.926.941.809 3.5.942 6.195.942h2.29l-1.755 9.695c-1.882.539-5.789 1.348-8.343 1.348-6.735 0-10.235-2.696-10.235-8.215 0-2.961 2.29-11.985 4.04-18.04-4.31 9.829-13.329 26.255-23.426 26.255-9.426 0-13.598-8.887-10.098-28.008zM73.41 157.57h13.73c-1.75 6.465-8.48 16.426-14.671 21.95H64.12c3.633-7.274 6.324-13.333 9.29-21.95m2.421 30.97l-10.23 57.487c-.407 2.559-.54 4.848-.407 5.926.942.809 3.5.942 6.196.942h4.308l-1.75 9.695c-1.886.539-7.812 1.348-10.367 1.348-9.965 0-12.387-6.063-10.234-18.583l9.695-56.816zm-58.973 0l-6.058 34.87 6.328-.672 18.445-34.199h13.867l-23.156 41.063 4.442 17.37c.675 2.56 1.214 4.442 2.023 5.25 1.074.403 2.96.673 5.52.673h2.558l-1.75 9.695c-1.887.539-5.254 1.348-7.812 1.348-8.618 0-10.23-4.848-11.98-12.387l-4.177-17.774-6.46.672L3.8 262.992H-8.855L4.207 188.54zm-73.511 63.815c5.25 0 17.773-18.984 22.082-32.714l2.691-8.75c-1.75-4.578-5.652-12.657-10.77-12.657-4.308 0-7.406 5.922-9.695 18.446l-3.77 20.597c-1.21 6.73-1.21 13.328-.538 15.078M-65 216.68c3.23-17.504 9.426-30.16 21.676-30.16 9.156 0 13.062 8.75 14.676 13.464.945-4.175 1.75-8.754 2.289-12.386l12.793.941c-2.559 13.059-6.598 23.832-9.157 33.524l-4.039 23.964c-.539 2.828-.539 4.848-.402 5.926.941.809 3.5.942 6.191.942h2.29l-1.75 9.695c-1.887.539-5.79 1.348-8.348 1.348-6.73 0-10.235-2.696-10.235-8.215 0-2.961 2.29-11.985 4.04-18.04-4.305 9.829-13.329 26.255-23.426 26.255-9.422 0-13.598-8.887-10.098-28.008zm-43.082-5.79c12.652-4.312 23.828-14.41 23.828-36.218 0-2.559-.27-3.906-.672-5.656-1.21-1.48-4.308-2.422-6.73-2.422-6.465 0-9.024 5.25-11.446 18.308zm1.883 43.083c8.48 0 12.926-5.387 12.926-19.387 0-8.617-2.829-13.867-5.926-16.965-3.364 1.613-7 2.828-10.77 3.77l-5.789 30.293c2.153 1.078 5.922 2.289 9.559 2.289m-.672 11.039c-8.348 0-16.965-3.633-22.082-6.73l13.195-73.38c3.77-20.597 10.367-29.484 24.774-29.484 12.789 0 18.847 7.945 18.847 19.656 0 17.906-7.27 30.024-18.445 37.7 4.715 3.769 9.289 11.175 9.289 21.136 0 20.332-8.21 31.102-25.578 31.102m-67.188-14.137c1.618 1.887 4.446 2.965 7.407 2.965 6.867 0 9.828-4.04 11.847-15.89l4.309-24.505c1.078-5.789 1.75-10.5 1.21-12.789-1.612-1.883-4.171-2.96-7.401-2.96-6.735 0-9.833 3.902-11.848 15.75l-4.309 24.503c-1.215 6.598-1.754 10.637-1.215 12.926m-7.132-37.43c3.23-18.715 10.77-26.925 25.308-26.925 15.215 0 21.274 8.21 18.043 26.925l-4.308 24.504c-3.23 18.715-10.77 27.063-25.313 27.063-15.21 0-21.273-8.348-18.039-27.063zm-32.317 49.547l3.77-45.773 1.75-18.582-4.98.672-6.329 15.886c-4.578 11.446-11.308 30.7-16.293 47.797h-13.058c5.656-20.328 15.886-45.101 22.886-60.719l5.524-12.386c2.554-.946 8.078-2.157 12.117-2.157.402-8.75.539-17.367-1.078-20.195-1.348-.672-3.367-.808-4.848-.808-3.5 0-8.48.539-11.441 1.078l1.883-10.5c3.77-1.078 7.539-1.75 13.597-1.75 10.906 0 14.406 8.078 13.465 25.445l-4.176 81.992zm-69.879-9.422c8.485 0 10.774-4.984 12.926-17.101l3.098-17.637c1.48-7.941 1.48-14.137.402-19.926-.809-.133-1.613-.133-2.289-.133-7.672 0-13.46 4.305-15.617 16.422l-3.906 22.489c-1.075 6.593-1.75 10.632-1.211 12.921 1.617 1.887 4.445 2.965 6.597 2.965m39.856-65.03l-2.156 12.25h-3.368c-2.02 0-4.441-.267-7.136-.673 1.484 5.926 1.886 12.524.808 19.387l-3.094 18.582c-2.964 17.906-10.503 26.656-24.64 26.656-15.485 0-21.676-8.347-18.309-27.058l4.04-22.489c3.363-18.578 13.19-26.656 28.542-26.656zm-103.27 62.335c1.617 1.887 4.442 2.965 7.406 2.965 6.864 0 9.829-4.04 11.848-15.89l4.309-24.505c1.078-5.789 1.75-10.5 1.21-12.789-1.617-1.883-4.171-2.96-7.406-2.96-6.73 0-9.828 3.902-11.847 15.75l-4.309 24.503c-1.21 6.598-1.75 10.637-1.21 12.926m-7.137-37.43c3.23-18.715 10.773-26.925 25.312-26.925 15.215 0 21.273 8.21 18.043 26.925l-4.309 24.504c-3.23 18.715-10.773 27.063-25.312 27.063-15.215 0-21.274-8.348-18.043-27.063zm-36.758 31.371l-5.25 1.348c-6.461 10.77-12.79 28.274-14.809 40.39h-12.789c2.016-15.214 10.5-33.66 18.578-46.179l-2.96-51.836H-395l1.21 45.777 5.79-1.48c6.328-12.254 11.578-30.7 12.79-44.297h12.792c-1.348 15.484-9.156 37.7-17.102 50.488l3.235 47.528h-12.524zm-41.602-36.351c.676-3.903.809-6.73.402-8.75-1.75-1.75-3.902-2.426-6.863-2.426-5.523 0-8.078 2.828-9.289 9.828l-1.078 6.465c-1.48 8.75 2.152 12.117 10.637 12.117h5.383l-1.883 10.098h-5.657c-7.402 0-13.464 1.348-14.539 7l-.27 1.48c-1.347 7.676 4.712 8.754 14.138 8.754h13.867l-1.887 9.961c-3.23.406-12.117.945-16.695.945-15.078 0-23.696-5.523-21.406-18.449l.406-2.285c1.21-6.734 5.789-10.906 12.656-13.195-5.387-3.637-8.078-9.696-6.465-19.117l.942-5.524c2.289-13.058 9.023-18.847 21.949-18.847 12.52 0 17.77 6.058 17.77 15.347 0 3.77-1.212 9.828-2.153 14.406h-11.313zm-76.34 45.105c8.48 0 10.77-4.984 12.926-17.101l3.098-17.637c1.476-7.941 1.476-14.137.402-19.926-.809-.133-1.617-.133-2.289-.133-7.676 0-13.465 4.305-15.617 16.422l-3.906 22.489c-1.079 6.593-1.75 10.632-1.211 12.921 1.617 1.887 4.441 2.965 6.597 2.965m39.852-65.03l-2.152 12.25h-3.368c-2.02 0-4.441-.267-7.136-.673 1.48 5.926 1.886 12.524.808 19.387l-3.097 18.582c-2.961 17.906-10.5 26.656-24.637 26.656-15.485 0-21.676-8.347-18.313-27.058l4.04-22.489c3.367-18.578 13.195-26.656 28.542-26.656zm-51.836-30.97l-2.152 12.387h-18.176l-16.426 93.035h-13.465l16.426-93.035h-18.176l2.153-12.387zm0 0M930.285 300.156h13.73c-1.75 6.461-8.48 16.426-14.671 21.946h-8.348c3.633-7.27 6.324-13.329 9.29-21.946m6.597 40.793c-5.117 0-15.082 9.024-19.254 12.793l-9.024 51.836h-12.789l9.29-53.183.945-21.274 11.172-1.074.406 12.387c2.691-2.829 10.637-13.332 21.945-13.332 11.176 0 11.848 9.023 9.426 22.89l-13.734 77.149h-12.79l13.731-76.61c1.078-5.656 1.48-9.426.676-11.582m-111.887 53.992c5.254 0 17.774-18.984 22.082-32.718l2.692-8.75c-1.75-4.578-5.653-12.657-10.77-12.657-4.309 0-7.406 5.926-9.695 18.446l-3.77 20.601c-1.21 6.73-1.21 13.328-.539 15.078m-8.348-35.68c3.235-17.503 9.426-30.16 21.68-30.16 9.152 0 13.059 8.754 14.676 13.465.941-4.171 1.75-8.75 2.289-12.386l12.789.941c-2.559 13.063-6.598 23.832-9.156 33.527l-4.04 23.965c-.538 2.828-.538 4.848-.406 5.922.946.809 3.504.945 6.196.945h2.289l-1.75 9.692c-1.883.539-5.79 1.348-8.348 1.348-6.73 0-10.23-2.692-10.23-8.211 0-2.965 2.289-11.985 4.039-18.043-4.313 9.828-13.332 26.254-23.43 26.254-9.426 0-13.598-8.887-10.098-28.004zm-14.543-28.14l-10.23 57.492c-.402 2.559-.54 4.848-.402 5.922.941.809 3.5.945 6.191.945h4.309l-1.75 9.692c-1.883.539-7.809 1.348-10.368 1.348-9.964 0-12.386-6.06-10.23-18.579l9.691-56.82zm-43.214 19.926c.672-3.902.804-6.73.402-8.75-1.75-1.75-3.906-2.422-6.867-2.422-5.52 0-8.078 2.824-9.29 9.828l-1.077 6.461c-1.48 8.754 2.156 12.117 10.636 12.117h5.387l-1.887 10.098h-5.652c-7.406 0-13.465 1.348-14.543 7.004l-.27 1.48c-1.343 7.672 4.715 8.75 14.137 8.75h13.867l-1.882 9.965c-3.23.402-12.118.942-16.696.942-15.078 0-23.695-5.52-21.406-18.446l.402-2.289c1.211-6.73 5.79-10.906 12.657-13.195-5.387-3.633-8.079-9.692-6.461-19.117l.941-5.52c2.29-13.058 9.02-18.851 21.945-18.851 12.524 0 17.774 6.058 17.774 15.351 0 3.77-1.211 9.828-2.156 14.406h-11.309zm-67.59 36.355l-5.25 1.344c-6.465 10.774-12.793 28.277-14.813 40.395H658.45c2.02-15.215 10.504-33.66 18.578-46.184l-2.96-51.836h12.925l1.211 45.777 5.79-1.48c6.327-12.254 11.577-30.695 12.792-44.297h12.79c-1.348 15.484-9.157 37.7-17.098 50.492l3.23 47.528h-12.523zm-43.489-87.246h13.735c-1.75 6.461-8.485 16.426-14.676 21.946h-8.348c3.633-7.27 6.329-13.329 9.29-21.946m1.882 50.89c.676-3.901.813-6.73.407-8.75-1.75-1.75-3.907-2.421-6.868-2.421-5.52 0-8.078 2.824-9.289 9.828l-1.078 6.461c-1.48 8.754 2.156 12.117 10.637 12.117h5.387l-1.887 10.098h-5.652c-7.407 0-13.465 1.348-14.543 7.004l-.27 1.48c-1.348 7.672 4.715 8.75 14.137 8.75h13.87l-1.886 9.965c-3.23.402-12.117.942-16.695.942-15.078 0-23.695-5.52-21.406-18.446l.402-2.289c1.21-6.73 5.789-10.906 12.656-13.195-5.387-3.633-8.078-9.692-6.465-19.117l.946-5.52c2.289-13.058 9.02-18.851 21.945-18.851 12.52 0 17.773 6.058 17.773 15.351 0 3.77-1.214 9.828-2.156 14.406h-11.308zm-37.43-19.925c-1.613 16.293-10.632 41.067-19.788 60.32l-6.059 12.79c-2.828.94-8.348 2.289-12.117 2.289-8.887 0-12.117-3.907-11.578-14.813l3.23-60.586h13.059l-2.961 42.277-1.617 17.098c-.133 1.75-.133 3.906-.133 5.117 1.078 0 3.5-.539 4.847-.808l6.73-16.559c7.138-17.637 10.907-31.371 13.599-47.125zm-98.015 51.836c-.809 4.578-1.078 8.617-.27 10.773 1.48 1.75 3.77 2.422 6.06 2.422 11.577 0 16.292-21.543 16.292-44.027 0-6.863-.406-15.348-.809-20.059l11.309-2.02c1.078 6.192 1.887 15.75 1.75 23.427-.402 28.004-7 53.855-29.352 53.855-12.52 0-20.464-8.348-17.367-25.715l8.887-50.492h12.656zm-56.145 13.195c8.48 0 10.77-4.98 12.922-17.097l3.098-17.64c1.48-7.942 1.48-14.134.406-19.927-.808-.133-1.617-.133-2.289-.133-7.676 0-13.465 4.31-15.617 16.426l-3.906 22.485c-1.078 6.597-1.75 10.636-1.211 12.925 1.617 1.883 4.441 2.961 6.597 2.961m39.852-65.03l-2.152 12.253h-3.368c-2.019 0-4.44-.27-7.136-.676 1.48 5.926 1.887 12.524.808 19.39l-3.097 18.579c-2.961 17.906-10.5 26.66-24.637 26.66-15.484 0-21.68-8.348-18.313-27.062l4.04-22.485c3.367-18.582 13.195-26.66 28.543-26.66zm-87.652 13.6c0 6.325-3.364 19.79-4.711 24.505h-10.77l2.828-15.891c.942-5.25 1.48-8.348.942-10.637-1.617-1.75-4.172-2.422-6.328-2.422-6.059 0-8.079 3.368-9.829 13.059l-3.769 21.273c-4.711 26.254 20.734 18.446 20.734 40.125 0 10.903-7.675 15.079-15.62 15.079-3.903 0-6.192-.672-8.348-1.348l1.617-9.828c1.347.27 2.96.539 4.445.539 3.77 0 6.324-1.211 6.324-4.848 0-10.637-26.793-8.215-21.808-38.101l3.77-22.891c2.827-16.828 9.425-24.234 23.831-24.234 10.5 0 16.692 5.793 16.692 15.62m-58.43-44.566h13.73c-1.75 6.461-8.48 16.426-14.675 21.946h-8.348c3.637-7.27 6.328-13.329 9.293-21.946m2.422 30.965l-10.235 57.492c-.402 2.559-.535 4.848-.402 5.922.942.809 3.5.945 6.192.945h4.312l-1.754 9.692c-1.883.539-7.808 1.348-10.363 1.348-9.965 0-12.39-6.06-10.235-18.579l9.696-56.82zm-46.586 28.14c1.48-8.616 1.21-14.808 0-18.175-.941-.54-3.098-.809-4.848-.809-8.48 0-10.77 4.578-12.925 17.098l-6.594 37.7c1.883.538 4.172.945 7.402.945 7.406 0 11.309-3.907 13.598-17.372zm12.387 0l-3.23 19.387c-2.966 17.774-9.829 28.68-25.18 28.68-4.305 0-8.079-1.078-10.368-2.02-.265 3.364-1.074 7.942-1.613 11.442l-1.887 12.39h-12.656l12.387-73.378c3.097-18.043 10.906-26.66 25.043-26.66 17.101 0 20.195 13.87 17.504 30.16m-62.203 4.847c0 27.871-5.926 43.22-23.563 43.22-9.426 0-13.867-4.579-14.809-10.907-2.964 6.328-8.753 10.906-16.695 10.906-10.637 0-16.023-7.137-16.023-19.523 0-19.254 10.504-44.832 20.465-58.297l11.445 4.308c-10.637 14.27-19.524 36.891-19.524 53.852 0 2.562.27 5.117.946 6.602 1.074 1.21 2.96 1.882 4.98 1.882 5.922 0 8.887-6.73 11.176-18.578l4.172-22.215h11.578l-3.633 22.215c-1.347 8.211-1.754 13.867-.27 16.559 1.481 1.48 3.5 2.02 5.923 2.02 8.753 0 11.312-12.25 11.312-32.583 0-9.695-2.29-20.597-4.848-29.754l11.442-4.308c3.234 9.02 5.926 21.812 5.926 34.601m-103.27 23.293l-5.25 1.344c-6.46 10.774-12.79 28.277-14.809 40.395h-12.793c2.02-15.215 10.504-33.66 18.582-46.184l-2.96-51.836h12.921l1.215 45.777 5.79-1.48c6.327-12.254 11.577-30.695 12.788-44.297h12.79c-1.344 15.484-9.153 37.7-17.098 50.492l3.23 47.528h-12.52zm-52.375-42.68c0 6.325-3.363 19.79-4.71 24.505H86.77l2.828-15.891c.941-5.25 1.48-8.348.941-10.637-1.617-1.75-4.176-2.422-6.328-2.422-6.059 0-8.078 3.368-9.828 13.059l-3.77 21.273c-4.715 26.254 20.735 18.446 20.735 40.125 0 10.903-7.676 15.079-15.621 15.079-3.903 0-6.192-.672-8.348-1.348l1.617-9.828c1.348.27 2.961.539 4.442.539 3.773 0 6.328-1.211 6.328-4.848 0-10.637-26.793-8.215-21.809-38.101l3.77-22.891c2.828-16.828 9.421-24.234 23.828-24.234 10.504 0 16.695 5.793 16.695 15.62m-90.746 48.739c1.617 1.883 4.445 2.96 7.406 2.96 6.867 0 9.828-4.038 11.848-15.886l4.308-24.504c1.079-5.789 1.75-10.504 1.211-12.793-1.613-1.883-4.172-2.96-7.402-2.96-6.734 0-9.828 3.906-11.852 15.753l-4.304 24.504c-1.215 6.598-1.754 10.637-1.215 12.926M4.37 356.03c3.23-18.715 10.77-26.93 25.309-26.93 15.215 0 21.273 8.215 18.043 26.93l-4.309 24.504c-3.23 18.715-10.77 27.063-25.312 27.063-15.215 0-21.274-8.348-18.04-27.063zm-5.656-24.91l-2.156 12.254H-18.52l-8.214 45.238c-.403 2.559-.54 4.848-.403 5.922.942.809 3.5.945 6.192.945h5.656l-1.75 9.692c-1.887.539-9.156 1.348-11.715 1.348-9.96 0-12.25-6.196-10.098-18.579l7.809-44.566h-14.809l2.153-12.254zm-71.227-30.965h13.735c-1.75 6.461-8.485 16.426-14.676 21.946h-8.348c3.637-7.27 6.328-13.329 9.29-21.946m-23.966 94.785c5.25 0 17.774-18.984 22.082-32.718l2.692-8.75c-1.75-4.578-5.656-12.657-10.77-12.657-4.308 0-7.406 5.926-9.695 18.446l-3.77 20.601c-1.21 6.73-1.21 13.328-.539 15.078m-8.347-35.68c3.23-17.503 9.426-30.16 21.676-30.16 9.156 0 13.062 8.754 14.675 13.465.946-4.171 1.75-8.75 2.29-12.386l12.792.941c-2.558 13.063-6.597 23.832-9.156 33.527l-4.039 23.965c-.539 2.828-.539 4.848-.402 5.922.941.809 3.5.945 6.191.945h2.29l-1.75 9.692c-1.888.539-5.79 1.348-8.348 1.348-6.73 0-10.235-2.692-10.235-8.211 0-2.965 2.29-11.985 4.043-18.043-4.312 9.828-13.332 26.254-23.43 26.254-9.425 0-13.597-8.887-10.097-28.004zm-26.254 0c1.48-8.616 1.21-14.808 0-18.175-.945-.54-3.098-.809-4.848-.809-8.48 0-10.77 4.578-12.926 17.098l-6.597 37.7c1.887.538 4.176.945 7.406.945 7.406 0 11.309-3.907 13.598-17.372zm12.387 0l-3.23 19.387c-2.966 17.774-9.833 28.68-25.18 28.68-4.31 0-8.079-1.078-10.368-2.02-.27 3.364-1.078 7.942-1.613 11.442l-1.887 12.39h-12.656l12.387-73.378c3.097-18.043 10.906-26.66 25.043-26.66 17.097 0 20.195 13.87 17.504 30.16m-84.286-28.14l-6.058 34.87 6.328-.672 18.445-34.199h13.867l-23.156 41.067 4.442 17.367c.672 2.558 1.21 4.441 2.02 5.25 1.077.406 2.964.675 5.519.675h2.558l-1.75 9.692c-1.883.539-5.25 1.348-7.808 1.348-8.618 0-10.23-4.848-11.985-12.387l-4.172-17.774-6.46.676-4.848 28.543h-12.656l13.058-74.457zm0 0M1251.082 442.605h13.734c-1.75 6.461-8.48 16.426-14.675 21.946h-8.348c3.637-7.27 6.328-13.328 9.289-21.946m-18.715 82.801c-.804 4.578-1.078 8.617-.265 10.77 1.476 1.754 3.765 2.426 6.054 2.426 11.582 0 16.293-21.543 16.293-44.028 0-6.863-.402-15.347-.808-20.062l11.308-2.016c1.078 6.192 1.887 15.75 1.75 23.426-.402 28.004-7 53.855-29.347 53.855-12.524 0-20.465-8.347-17.372-25.718l8.887-50.489h12.656zm-42.949 22.621l3.77-45.777 1.75-18.582-4.981.676-6.328 15.886c-4.578 11.442-11.313 30.696-16.293 47.797h-13.059c5.657-20.332 15.887-45.105 22.887-60.722l5.524-12.387c2.554-.941 8.078-2.156 12.117-2.156.402-8.75.539-17.367-1.078-20.192-1.348-.675-3.368-.808-4.848-.808-3.5 0-8.484.535-11.445 1.074l1.886-10.5c3.77-1.078 7.54-1.75 13.598-1.75 10.906 0 14.406 8.078 13.465 25.445l-4.176 81.996zm-74.05-12.117c1.612 1.883 4.44 2.961 7.402 2.961 6.867 0 9.832-4.039 11.847-15.887l4.313-24.504c1.074-5.789 1.75-10.503 1.21-12.789-1.617-1.886-4.175-2.964-7.406-2.964-6.73 0-9.828 3.906-11.847 15.753l-4.309 24.504c-1.21 6.598-1.75 10.637-1.21 12.926m-7.138-37.43c3.23-18.714 10.774-26.93 25.313-26.93 15.215 0 21.273 8.216 18.043 26.93l-4.313 24.504c-3.23 18.715-10.77 27.063-25.308 27.063-15.215 0-21.274-8.348-18.043-27.063zm-6.328-24.91l-2.156 12.254h-11.309l-8.886 45.238c-.535 2.56-.535 4.848-.403 5.926.942.805 3.5.942 6.196.942h4.304l-1.75 9.691c-1.882.54-7.808 1.348-10.367 1.348-9.96 0-12.386-6.192-10.097-18.582l8.484-44.563h-14.273l-11.04 62.203h-12.25l11.04-62.203h-11.176l2.152-12.254zm-135.175 62.34c1.613 1.883 4.441 2.961 7.402 2.961 6.867 0 9.832-4.039 11.851-15.887l4.305-24.504c1.078-5.789 1.75-10.503 1.211-12.789-1.613-1.886-4.172-2.964-7.402-2.964-6.735 0-9.828 3.906-11.848 15.753l-4.308 24.504c-1.211 6.598-1.75 10.637-1.211 12.926m-7.137-37.43c3.23-18.714 10.77-26.93 25.312-26.93 15.211 0 21.274 8.216 18.04 26.93l-4.31 24.504c-3.23 18.715-10.769 27.063-25.312 27.063-15.21 0-21.27-8.348-18.039-27.063zm-30.567-55.875h13.735c-1.75 6.461-8.485 16.426-14.676 21.946h-8.348c3.637-7.27 6.328-13.328 9.29-21.946m-18.715 82.801c-.805 4.578-1.079 8.617-.27 10.77 1.48 1.754 3.774 2.426 6.063 2.426 11.578 0 16.289-21.543 16.289-44.028 0-6.863-.407-15.347-.809-20.062l11.313-2.016c1.074 6.192 1.882 15.75 1.75 23.426-.407 28.004-7.004 53.855-29.356 53.855-12.52 0-20.465-8.347-17.367-25.718l8.887-50.489h12.656zm-52.239 13.196c7.27 0 10.367-5.25 13.196-21.946l1.074-6.328c2.156-12.117 1.215-20.332-4.309-29.754-6.867 3.23-12.652 9.153-16.02 28.274l-1.21 7c-1.348 8.078-1.75 15.215-.809 19.117 1.211 2.289 4.711 3.637 8.078 3.637m17.637-67.59c8.078 10.773 11.309 25.043 8.348 43.086l-.809 4.98c-3.77 22.754-11.578 30.7-26.117 30.7-14.813 0-23.024-10.098-18.445-35.544l1.074-6.195c3.77-20.734 11.847-30.43 22.89-35.543l-12.793-17.773 2.829-12.118h40.527l-2.156 12.118h-26.793l-.27.672zm-84.82 12.39c-5.117 0-15.082 9.02-19.254 12.79l-9.024 51.835H749.82l9.29-53.183.945-21.274 11.172-1.074.406 12.383c2.691-2.824 10.637-13.328 21.945-13.328 11.176 0 11.848 9.023 9.426 22.89l-13.734 77.145h-12.79l13.73-76.606c1.08-5.656 1.481-9.425.677-11.578m-80.785 55.2c8.48 0 10.77-4.98 12.925-17.098l3.094-17.637c1.484-7.945 1.484-14.14.406-19.93-.808-.132-1.617-.132-2.289-.132-7.676 0-13.465 4.308-15.617 16.425l-3.906 22.485c-1.074 6.597-1.75 10.637-1.211 12.926 1.613 1.882 4.441 2.96 6.598 2.96m39.851-65.03l-2.152 12.253h-3.367c-2.02 0-4.446-.27-7.137-.672 1.48 5.922 1.887 12.52.808 19.387l-3.097 18.578c-2.961 17.91-10.5 26.66-24.637 26.66-15.484 0-21.68-8.347-18.312-27.062l4.039-22.485c3.367-18.578 13.195-26.66 28.543-26.66zm-70.55 32.988c0 27.867-5.923 43.218-23.563 43.218-9.422 0-13.867-4.578-14.809-10.906-2.96 6.328-8.754 10.906-16.695 10.906-10.637 0-16.024-7.136-16.024-19.523 0-19.254 10.504-44.836 20.465-58.297l11.446 4.309c-10.637 14.27-19.524 36.89-19.524 53.855 0 2.555.27 5.113.946 6.594 1.078 1.215 2.96 1.887 4.98 1.887 5.926 0 8.887-6.73 11.176-18.579l4.172-22.218h11.582l-3.637 22.218c-1.348 8.211-1.75 13.868-.27 16.559 1.48 1.48 3.5 2.02 5.922 2.02 8.754 0 11.313-12.254 11.313-32.582 0-9.696-2.29-20.602-4.848-29.754l11.445-4.309c3.23 9.02 5.922 21.809 5.922 34.602m-73.109-32.989c-1.613 16.293-10.637 41.067-19.79 60.32l-6.062 12.79c-2.824.941-8.343 2.289-12.117 2.289-8.883 0-12.113-3.903-11.578-14.809l3.234-60.59h13.06l-2.966 42.278-1.613 17.101c-.137 1.75-.137 3.903-.137 5.114 1.078 0 3.504-.54 4.848-.81l6.734-16.558c7.133-17.636 10.907-31.37 13.598-47.125zm-73.914-30.965h13.73c-1.75 6.461-8.48 16.426-14.672 21.946h-8.347c3.633-7.27 6.324-13.328 9.289-21.946m1.883 50.895c.676-3.906.808-6.734.406-8.754-1.75-1.75-3.906-2.422-6.867-2.422-5.52 0-8.078 2.828-9.29 9.828l-1.077 6.461c-1.48 8.754 2.156 12.117 10.636 12.117h5.383l-1.883 10.098h-5.656c-7.402 0-13.46 1.348-14.539 7.004l-.27 1.48c-1.347 7.676 4.711 8.75 14.137 8.75h13.867l-1.882 9.965c-3.235.403-12.122.942-16.696.942-15.082 0-23.695-5.52-21.41-18.446l.406-2.289c1.211-6.73 5.79-10.906 12.657-13.195-5.387-3.633-8.079-9.695-6.465-19.117l.941-5.52c2.29-13.062 9.024-18.851 21.95-18.851 12.519 0 17.773 6.058 17.773 15.351 0 3.77-1.215 9.828-2.156 14.403h-11.309zm-60.317-19.93c-1.617 16.293-10.636 41.067-19.793 60.32l-6.058 12.79c-2.828.941-8.348 2.289-12.117 2.289-8.887 0-12.118-3.903-11.579-14.809l3.23-60.59h13.06l-2.961 42.278-1.618 17.101c-.132 1.75-.132 3.903-.132 5.114 1.078 0 3.5-.54 4.847-.81l6.73-16.558c7.137-17.636 10.907-31.37 13.598-47.125zm-76.34 9.832c-5.117 0-15.082 9.02-19.253 12.79l-9.02 51.835h-12.793l9.29-53.183.944-21.274 11.172-1.074.407 12.383c2.691-2.824 10.636-13.328 21.945-13.328 11.176 0 11.848 9.023 9.426 22.89l-13.735 77.145H383.2l13.735-76.606c1.074-5.656 1.476-9.425.671-11.578m-40.933-9.832l-2.152 12.254h-15.082l-8.211 45.238c-.403 2.56-.54 4.848-.403 5.926.942.805 3.5.942 6.192.942h5.656l-1.75 9.691c-1.887.54-9.156 1.348-11.715 1.348-9.965 0-12.254-6.192-10.098-18.582l7.809-44.563h-14.809l2.153-12.254zm-86.977 65.032c8.485 0 10.774-4.98 12.926-17.098l3.098-17.637c1.48-7.945 1.48-14.14.402-19.93-.808-.132-1.613-.132-2.289-.132-7.672 0-13.465 4.308-15.617 16.425l-3.902 22.485c-1.079 6.597-1.754 10.637-1.215 12.926 1.617 1.882 4.445 2.96 6.597 2.96m39.856-65.03l-2.156 12.253h-3.368c-2.02 0-4.441-.27-7.132-.672 1.48 5.922 1.882 12.52.804 19.387l-3.094 18.578c-2.964 17.91-10.503 26.66-24.64 26.66-15.485 0-21.676-8.347-18.309-27.062l4.04-22.485c3.363-18.578 13.19-26.66 28.542-26.66zm-83.074 0c-1.618 16.292-10.637 41.066-19.793 60.32l-6.059 12.789c-2.824.941-8.348 2.289-12.117 2.289-8.887 0-12.117-3.903-11.578-14.809l3.23-60.59h13.063l-2.965 42.278-1.613 17.101c-.137 1.75-.137 3.903-.137 5.114 1.078 0 3.504-.54 4.847-.81l6.735-16.558c7.133-17.636 10.902-31.37 13.597-47.125zM124.02 537.39c5.25 0 17.77-18.985 22.078-32.72l2.691-8.75c-1.75-4.577-5.652-12.655-10.77-12.655-4.308 0-7.406 5.925-9.695 18.445l-3.77 20.598c-1.21 6.734-1.21 13.332-.534 15.082m-8.348-35.68c3.23-17.504 9.422-30.16 21.676-30.16 9.156 0 13.058 8.754 14.675 13.465.942-4.176 1.75-8.75 2.29-12.387l12.789.941c-2.559 13.063-6.598 23.832-9.157 33.528l-4.039 23.964c-.539 2.829-.539 4.848-.402 5.926.941.805 3.5.942 6.191.942h2.29l-1.75 9.691c-1.883.54-5.79 1.348-8.348 1.348-6.73 0-10.23-2.692-10.23-8.215 0-2.961 2.288-11.98 4.038-18.04-4.308 9.829-13.332 26.255-23.43 26.255-9.421 0-13.597-8.887-10.097-28.004zm-5.254-28.14l-2.156 12.253H93.184l-8.211 45.238c-.407 2.56-.54 4.848-.407 5.926.946.805 3.5.942 6.196.942h5.652l-1.75 9.691c-1.883.54-9.152 1.348-11.715 1.348-9.96 0-12.25-6.192-10.094-18.582l7.81-44.563H65.851l2.156-12.254zm-69.34-30.966h13.734c-1.75 6.461-8.484 16.426-14.675 21.946h-8.348c3.637-7.27 6.328-13.328 9.29-21.946M19.265 535.91c1.617 1.883 4.445 2.961 7.406 2.961 6.867 0 9.828-4.039 11.848-15.887l4.308-24.504c1.078-5.789 1.75-10.503 1.211-12.789-1.613-1.886-4.172-2.964-7.402-2.964-6.735 0-9.828 3.906-11.852 15.753l-4.305 24.504c-1.214 6.598-1.75 10.637-1.214 12.926m-7.133-37.43c3.23-18.714 10.77-26.93 25.308-26.93 15.215 0 21.274 8.216 18.043 26.93l-4.308 24.504c-3.23 18.715-10.77 27.063-25.313 27.063-15.215 0-21.27-8.348-18.039-27.063zm3.765-55.875l-2.152 12.118-23.562 29.082c-10.23 12.656-17.907 25.984-17.907 35.68 0 20.058 23.832 16.964 23.832 37.695 0 10.906-7.675 15.082-15.62 15.082-3.903 0-6.192-.676-8.344-1.348l1.613-9.828c1.347.27 2.965.539 4.445.539 3.77 0 6.324-1.21 6.324-4.848 0-11.175-25.039-9.96-25.039-36.218 0-14.676 10.098-30.157 21.274-43.621L-1.2 455.394v-.672h-26.39l2.155-12.118zm-66.644 30.965l-10.234 57.493c-.403 2.558-.54 4.847-.403 5.925.942.805 3.5.942 6.196.942h4.304l-1.75 9.691c-1.883.54-7.808 1.348-10.367 1.348-9.96 0-12.387-6.059-10.23-18.582l9.695-56.817zm-65.438 65.032c8.485 0 10.774-4.98 12.926-17.098l3.098-17.637c1.48-7.945 1.48-14.14.402-19.93-.805-.132-1.613-.132-2.289-.132-7.672 0-13.46 4.308-15.617 16.425l-3.902 22.485c-1.079 6.597-1.75 10.637-1.211 12.926 1.613 1.882 4.441 2.96 6.593 2.96m39.856-65.03l-2.156 12.253h-3.364c-2.02 0-4.445-.27-7.136-.672 1.48 5.922 1.882 12.52.808 19.387l-3.097 18.578c-2.961 17.91-10.5 26.66-24.641 26.66-15.48 0-21.676-8.347-18.309-27.062l4.04-22.485c3.367-18.578 13.195-26.66 28.542-26.66zm-107.309 63.82c5.254 0 17.774-18.985 22.082-32.72l2.692-8.75c-1.75-4.577-5.653-12.655-10.77-12.655-4.308 0-7.406 5.925-9.695 18.445l-3.77 20.598c-1.21 6.734-1.21 13.332-.539 15.082m-8.347-35.68c3.234-17.504 9.425-30.16 21.68-30.16 9.152 0 13.058 8.754 14.671 13.465.946-4.176 1.754-8.75 2.29-12.387l12.792.941c-2.558 13.063-6.597 23.832-9.156 33.528l-4.04 23.964c-.538 2.829-.538 4.848-.401 5.926.941.805 3.5.942 6.191.942h2.289l-1.75 9.691c-1.887.54-5.789 1.348-8.348 1.348-6.73 0-10.23-2.692-10.23-8.215 0-2.961 2.285-11.98 4.035-18.04-4.305 9.829-13.328 26.255-23.426 26.255-9.422 0-13.597-8.887-10.097-28.004zm-49.547-8.887h7c9.695 0 15.886-5.25 18.176-16.828l1.21-6.867c.81-4.711.407-9.426-.402-11.176-2.02-2.422-7.539-3.5-13.058-3.5h-6.196zm18.715 29.758l.671-3.906c.81-4.98.27-8.215-.539-9.696-2.152-2.96-6.73-4.847-12.656-4.847h-8.21l-5.52 32.043h6.867c11.039 0 17.367-2.285 19.387-13.594m-3.77-79.977c15.48 0 24.504 6.598 24.504 20.465 0 2.828-.406 6.73-1.617 13.328-2.02 11.043-8.211 19.391-16.02 21.946 6.73 2.96 10.5 8.484 10.5 16.293 0 2.152 0 4.039-.941 9.289-2.961 18.176-12.656 24.101-32.313 24.101h-21.949l18.582-105.422zm-86.437 0h13.73c-1.75 6.461-8.48 16.426-14.676 21.946h-8.347c3.636-7.27 6.328-13.328 9.293-21.946m-23.965 94.786c5.25 0 17.77-18.985 22.078-32.72l2.691-8.75c-1.75-4.577-5.652-12.655-10.77-12.655-4.308 0-7.406 5.925-9.695 18.445l-3.77 20.598c-1.21 6.734-1.21 13.332-.534 15.082m-8.352-35.68c3.235-17.504 9.426-30.16 21.68-30.16 9.152 0 13.058 8.754 14.676 13.465.941-4.176 1.75-8.75 2.289-12.387l12.789.941c-2.559 13.063-6.598 23.832-9.156 33.528l-4.04 23.964c-.539 2.829-.539 4.848-.402 5.926.942.805 3.5.942 6.192.942h2.289l-1.75 9.691c-1.883.54-5.79 1.348-8.348 1.348-6.73 0-10.23-2.692-10.23-8.215 0-2.961 2.288-11.98 4.038-18.04-4.308 9.829-13.332 26.255-23.43 26.255-9.421 0-13.597-8.887-10.097-28.004zm-26.254 0c1.48-8.617 1.211-14.809 0-18.176-.941-.539-3.097-.808-4.847-.808-8.48 0-10.77 4.578-12.926 17.101l-6.598 37.695c1.887.54 4.176.942 7.406.942 7.407 0 11.313-3.903 13.598-17.367zm12.387 0l-3.23 19.387c-2.961 17.773-9.829 28.68-25.176 28.68-4.313 0-8.078-1.079-10.367-2.02-.27 3.367-1.079 7.941-1.618 11.445l-1.886 12.383h-12.657l12.387-73.375c3.098-18.043 10.906-26.66 25.043-26.66 17.102 0 20.195 13.867 17.504 30.16m-98.957 35.68c5.25 0 17.77-18.985 22.078-32.72l2.695-8.75c-1.754-4.577-5.656-12.655-10.773-12.655-4.309 0-7.402 5.925-9.691 18.445l-3.774 20.598c-1.21 6.734-1.21 13.332-.535 15.082m-8.348-35.68c3.23-17.504 9.422-30.16 21.676-30.16 9.156 0 13.059 8.754 14.676 13.465.941-4.176 1.75-8.75 2.289-12.387l12.789.941c-2.559 13.063-6.598 23.832-9.156 33.528l-4.04 23.964c-.534 2.829-.534 4.848-.402 5.926.942.805 3.5.942 6.196.942h2.285l-1.75 9.691c-1.883.54-5.79 1.348-8.348 1.348-6.73 0-10.23-2.692-10.23-8.215 0-2.961 2.289-11.98 4.039-18.04-4.309 9.829-13.328 26.255-23.426 26.255-9.426 0-13.602-8.887-10.102-28.004zm-5.925-28.14l-2.157 12.253h-11.308l-8.883 45.238c-.54 2.56-.54 4.848-.406 5.926.941.805 3.5.942 6.195.942h4.308l-1.753 9.691c-1.883.54-7.809 1.348-10.368 1.348-9.96 0-12.382-6.192-10.097-18.582l8.484-44.563h-14.273l-11.04 62.203h-12.25l11.04-62.203h-11.176l2.152-12.254zm0 0M1394.781 616.156c-1.613 16.29-10.636 41.063-19.789 60.317l-6.062 12.789c-2.828.945-8.344 2.289-12.118 2.289-8.886 0-12.117-3.903-11.578-14.809l3.235-60.586h13.058l-2.965 42.274-1.613 17.101c-.137 1.75-.137 3.903-.137 5.114 1.079 0 3.5-.536 4.848-.805l6.73-16.563c7.137-17.636 10.91-31.367 13.602-47.12zm-65.703 32.985c0 27.87-5.926 43.218-23.562 43.218-9.422 0-13.868-4.578-14.809-10.902-2.96 6.324-8.754 10.902-16.695 10.902-10.637 0-16.024-7.136-16.024-19.52 0-19.253 10.504-44.835 20.465-58.3l11.445 4.309c-10.636 14.273-19.523 36.89-19.523 53.855 0 2.559.27 5.117.941 6.598 1.079 1.21 2.965 1.883 4.985 1.883 5.922 0 8.883-6.73 11.172-18.579l4.175-22.214h11.579l-3.633 22.214c-1.348 8.211-1.75 13.868-.27 16.563 1.48 1.477 3.5 2.016 5.922 2.016 8.754 0 11.309-12.25 11.309-32.582 0-9.692-2.29-20.598-4.844-29.754l11.441-4.309c3.235 9.02 5.926 21.813 5.926 34.602m-72.168-32.985l-2.152 12.25h-15.082l-8.211 45.239c-.406 2.558-.54 4.847-.406 5.925.945.809 3.5.942 6.195.942h5.656l-1.754 9.695c-1.883.54-9.152 1.344-11.71 1.344-9.966 0-12.255-6.192-10.098-18.578l7.808-44.567h-14.812l2.156-12.25zm-93.035 56.95h12.254l-2.29 9.425-10.097 22.215h-9.695zm-2.559-56.95c-1.613 16.29-10.636 41.063-19.793 60.317l-6.058 12.789c-2.828.945-8.344 2.289-12.117 2.289-8.883 0-12.118-3.903-11.578-14.809l3.234-60.586h13.059l-2.965 42.274-1.614 17.101c-.136 1.75-.136 3.903-.136 5.114 1.078 0 3.5-.536 4.847-.805l6.73-16.563c7.138-17.636 10.907-31.367 13.602-47.12zm-89.937-30.968h13.73c-1.75 6.464-8.48 16.425-14.675 21.945h-8.344c3.633-7.27 6.328-13.328 9.289-21.946m24.234 63.954c0 27.87-5.926 43.218-23.562 43.218-9.422 0-13.867-4.578-14.809-10.902-2.96 6.324-8.754 10.902-16.695 10.902-10.637 0-16.024-7.136-16.024-19.52 0-19.253 10.5-44.835 20.465-58.3l11.446 4.309c-10.637 14.273-19.524 36.89-19.524 53.855 0 2.559.27 5.117.942 6.598 1.078 1.21 2.964 1.883 4.984 1.883 5.922 0 8.883-6.73 11.176-18.579l4.172-22.214h11.578l-3.633 22.214c-1.348 8.211-1.75 13.868-.274 16.563 1.485 1.477 3.504 2.016 5.926 2.016 8.754 0 11.313-12.25 11.313-32.582 0-9.692-2.293-20.598-4.848-29.754l11.441-4.309c3.235 9.02 5.926 21.813 5.926 34.602m-73.11-32.985c-1.616 16.29-10.636 41.063-19.788 60.317l-6.063 12.789c-2.824.945-8.347 2.289-12.117 2.289-8.887 0-12.117-3.903-11.578-14.809l3.23-60.586h13.063l-2.96 42.274-1.618 17.101c-.137 1.75-.137 3.903-.137 5.114 1.078 0 3.504-.536 4.848-.805l6.734-16.563c7.133-17.636 10.903-31.367 13.598-47.12zm-74.858 21.27l3.636-20.867c1.614-8.887 1.887-14.946 1.48-19.118-1.347-1.886-3.769-3.23-7.808-3.23-7.137 0-9.289 4.172-11.039 15.75l-1.75 11.445c-.676 4.578-.676 7.54-.406 10.23 2.289 4.848 7.945 5.79 13.332 5.79zm15.753-22.211l-7.675 44.023c-4.04 23.16-8.48 33.39-24.907 33.39-12.254 0-18.312-5.116-18.312-16.964 0-5.52 1.887-14.137 3.098-19.387h11.308c-.941 4.98-2.96 13.328-2.96 19.254 0 .672 0 2.02.136 2.828 1.344 1.883 4.578 3.098 7.402 3.098 7.676 0 9.293-5.117 12.254-22.219l1.883-11.039h-2.02c-15.48 0-26.253-7.136-23.425-25.582l2.02-13.191c2.288-15.215 6.866-26.258 23.831-26.258 15.887 0 21.137 10.504 17.367 32.047m-70.82 20.867c.676-3.906.809-6.734.402-8.75-1.75-1.75-3.902-2.426-6.863-2.426-5.523 0-8.078 2.828-9.289 9.828l-1.078 6.465c-1.48 8.75 2.152 12.117 10.637 12.117h5.383l-1.883 10.098h-5.657c-7.402 0-13.464 1.344-14.539 7l-.27 1.48c-1.347 7.676 4.712 8.75 14.138 8.75h13.867l-1.883 9.965c-3.234.403-12.117.942-16.7.942-15.077 0-23.695-5.52-21.405-18.446l.406-2.289c1.21-6.73 5.789-10.902 12.656-13.191-5.387-3.637-8.078-9.695-6.465-19.121l.942-5.52c2.289-13.058 9.023-18.847 21.949-18.847 12.52 0 17.77 6.058 17.77 15.347 0 3.77-1.212 9.828-2.153 14.407H891.23zm-60.316-19.926c-1.617 16.29-10.637 41.063-19.793 60.317l-6.059 12.789c-2.828.945-8.347 2.289-12.117 2.289-8.887 0-12.117-3.903-11.578-14.809l3.23-60.586h13.059l-2.961 42.274-1.617 17.101c-.133 1.75-.133 3.903-.133 5.114 1.078 0 3.5-.536 4.848-.805l6.73-16.563c7.137-17.636 10.906-31.367 13.598-47.12zm-89.938-30.968h13.73c-1.75 6.464-8.48 16.425-14.675 21.945h-8.348c3.637-7.27 6.328-13.328 9.293-21.946m24.23 63.954c0 27.87-5.921 43.218-23.558 43.218-9.426 0-13.867-4.578-14.812-10.902-2.961 6.324-8.75 10.902-16.692 10.902-10.64 0-16.023-7.136-16.023-19.52 0-19.253 10.5-44.835 20.465-58.3l11.445 4.309c-10.637 14.273-19.524 36.89-19.524 53.855 0 2.559.27 5.117.942 6.598 1.078 1.21 2.96 1.883 4.98 1.883 5.926 0 8.887-6.73 11.176-18.579l4.176-22.214h11.578l-3.637 22.214c-1.347 8.211-1.75 13.868-.27 16.563 1.485 1.477 3.5 2.016 5.927 2.016 8.75 0 11.308-12.25 11.308-32.582 0-9.692-2.289-20.598-4.847-29.754l11.445-4.309c3.23 9.02 5.922 21.813 5.922 34.602M661 616.156l-6.059 34.871 6.329-.675 18.445-34.196h13.867l-23.156 41.063 4.441 17.37c.676 2.556 1.215 4.442 2.02 5.25 1.078.403 2.96.673 5.52.673h2.558l-1.75 9.695c-1.883.54-5.25 1.344-7.809 1.344-8.617 0-10.23-4.844-11.98-12.383l-4.176-17.773-6.46.671-4.849 28.543h-12.656l13.059-74.453zm-34.738 0l-10.23 57.489c-.407 2.558-.54 4.847-.407 5.925.941.809 3.504.942 6.195.942h4.309l-1.75 9.695c-1.887.54-7.813 1.344-10.367 1.344-9.965 0-12.387-6.055-10.235-18.578l9.696-56.817zm-63.414 22.348c12.656-4.305 23.828-14.406 23.828-36.215 0-2.559-.266-3.906-.672-5.656-1.211-1.48-4.309-2.422-6.73-2.422-6.465 0-9.02 5.25-11.446 18.309zm1.882 43.086c8.485 0 12.926-5.387 12.926-19.387 0-8.617-2.824-13.867-5.922-16.965-3.367 1.614-7.004 2.824-10.77 3.77l-5.792 30.293c2.156 1.078 5.926 2.289 9.558 2.289m-.671 11.039c-8.348 0-16.965-3.633-22.082-6.73l13.195-73.38c3.77-20.597 10.367-29.484 24.773-29.484 12.793 0 18.852 7.942 18.852 19.656 0 17.907-7.274 30.024-18.445 37.7 4.71 3.77 9.289 11.175 9.289 21.136 0 20.332-8.215 31.102-25.582 31.102m-71.223-12.656c5.25 0 17.77-18.985 22.082-32.715l2.691-8.754c-1.75-4.578-5.656-12.656-10.77-12.656-4.308 0-7.405 5.925-9.694 18.449l-3.77 20.598c-1.21 6.73-1.21 13.328-.54 15.078m-8.347-35.676c3.23-17.504 9.426-30.16 21.676-30.16 9.156 0 13.059 8.75 14.676 13.46.945-4.171 1.75-8.75 2.289-12.382l12.793.941c-2.563 13.059-6.598 23.828-9.156 33.524l-4.04 23.965c-.538 2.828-.538 4.847-.406 5.925.942.809 3.504.942 6.196.942h2.289l-1.75 9.695c-1.887.54-5.793 1.344-8.348 1.344-6.734 0-10.234-2.692-10.234-8.211 0-2.961 2.289-11.985 4.039-18.043-4.309 9.832-13.328 26.254-23.426 26.254-9.426 0-13.598-8.883-10.098-28.004zm-31.91 46.312l3.77-45.777 1.75-18.578-4.98.672-6.329 15.886c-4.578 11.446-11.312 30.7-16.293 47.797h-13.058c5.656-20.328 15.886-45.101 22.886-60.722l5.52-12.383c2.558-.945 8.082-2.156 12.12-2.156.403-8.75.536-17.368-1.077-20.196-1.348-.675-3.367-.808-4.848-.808-3.5 0-8.484.539-11.445 1.078l1.886-10.5c3.77-1.078 7.54-1.754 13.598-1.754 10.906 0 14.406 8.078 13.465 25.45l-4.176 81.991zm-69.879-9.425c8.48 0 10.77-4.98 12.926-17.098l3.094-17.637c1.484-7.945 1.484-14.136.406-19.926-.809-.136-1.617-.136-2.29-.136-7.675 0-13.464 4.308-15.616 16.426l-3.906 22.484c-1.079 6.598-1.75 10.637-1.211 12.926 1.617 1.886 4.445 2.96 6.597 2.96m39.852-65.027l-2.153 12.25h-3.367c-2.02 0-4.441-.27-7.136-.672 1.484 5.926 1.886 12.524.808 19.387l-3.098 18.582c-2.96 17.906-10.5 26.656-24.636 26.656-15.485 0-21.676-8.347-18.313-27.062l4.04-22.485c3.366-18.578 13.195-26.656 28.546-26.656zm-83.07 0c-1.618 16.29-10.637 41.063-19.793 60.317l-6.06 12.789c-2.827.945-8.347 2.289-12.116 2.289-8.887 0-12.117-3.903-11.578-14.809l3.23-60.586h13.059l-2.961 42.274-1.617 17.101c-.133 1.75-.133 3.903-.133 5.114 1.078 0 3.5-.536 4.847-.805l6.73-16.563c7.138-17.636 10.907-31.367 13.599-47.12zm-89.938-30.968h13.73c-1.75 6.464-8.48 16.425-14.675 21.945h-8.348c3.637-7.27 6.328-13.328 9.293-21.946m24.234 63.954c0 27.87-5.925 43.218-23.562 43.218-9.426 0-13.867-4.578-14.809-10.902-2.965 6.324-8.754 10.902-16.695 10.902-10.637 0-16.024-7.136-16.024-19.52 0-19.253 10.5-44.835 20.465-58.3l11.446 4.309c-10.637 14.273-19.524 36.89-19.524 53.855 0 2.559.27 5.117.942 6.598 1.078 1.21 2.96 1.883 4.984 1.883 5.922 0 8.883-6.73 11.172-18.579l4.176-22.214h11.578l-3.637 22.214c-1.344 8.211-1.75 13.868-.27 16.563 1.485 1.477 3.5 2.016 5.926 2.016 8.75 0 11.309-12.25 11.309-32.582 0-9.692-2.29-20.598-4.848-29.754l11.446-4.309c3.23 9.02 5.925 21.813 5.925 34.602M168.22 616.156l-6.059 34.871 6.328-.675 18.446-34.196H200.8l-23.156 41.063 4.44 17.37c.677 2.556 1.216 4.442 2.02 5.25 1.079.403 2.965.673 5.524.673h2.555l-1.75 9.695c-1.883.54-5.25 1.344-7.809 1.344-8.617 0-10.23-4.844-11.98-12.383l-4.176-17.773-6.461.671-4.848 28.543h-12.656l13.059-74.453zm-34.739 0l-10.23 57.489c-.406 2.558-.54 4.847-.406 5.925.945.809 3.504.942 6.195.942h4.309l-1.75 9.695c-1.887.54-7.809 1.344-10.368 1.344-9.964 0-12.386-6.055-10.234-18.578l9.695-56.817zm-26.523 0c-1.613 16.29-10.633 41.063-19.789 60.317l-6.063 12.789c-2.824.945-8.343 2.289-12.113 2.289-8.887 0-12.12-3.903-11.582-14.809l3.23-60.586h13.063l-2.96 42.274-1.618 17.101c-.133 1.75-.133 3.903-.133 5.114 1.074 0 3.5-.536 4.844-.805l6.734-16.563c7.133-17.636 10.903-31.367 13.598-47.12zm-72.031 19.926c.676-3.906.808-6.734.406-8.75-1.75-1.75-3.906-2.426-6.867-2.426-5.52 0-8.078 2.828-9.29 9.828l-1.077 6.465c-1.48 8.75 2.152 12.117 10.636 12.117h5.387l-1.887 10.098h-5.656c-7.402 0-13.46 1.344-14.539 7l-.27 1.48c-1.347 7.676 4.711 8.75 14.137 8.75h13.867l-1.886 9.965c-3.23.403-12.117.942-16.692.942-15.082 0-23.699-5.52-21.41-18.446l.406-2.289c1.211-6.73 5.79-10.902 12.657-13.191-5.387-3.637-8.078-9.695-6.465-19.121l.945-5.52c2.285-13.058 9.02-18.847 21.945-18.847 12.52 0 17.77 6.058 17.77 15.347 0 3.77-1.211 9.828-2.152 14.407H33.582zm-116.059-19.926l-.672 37.969-.808 21.004c0 1.75-.137 4.172.133 5.383.808 0 2.828-.27 4.308-.403l7.809-24.37 13.87-39.583h17.098l.672 37.969-.808 21.004c0 1.75-.133 4.172.136 5.383.81 0 2.829-.27 4.31-.403l7.808-24.37 12.925-39.583H-.89l-25.984 73.106c-1.613.406-3.5.945-5.383 1.347l-4.308 23.563h-11.985l4.176-23.16c-4.445-1.344-6.734-5.25-6.465-13.73l.403-19.387 1.214-31.91-20.734 63.277c-1.617.406-3.5.945-5.387 1.347l-4.308 23.563h-11.98l4.171-23.16c-4.309-1.344-6.46-5.25-6.46-13.73v-61.126zm-62.472 51.836c-.81 4.574-1.079 8.613-.27 10.77 1.48 1.75 3.77 2.422 6.059 2.422 11.578 0 16.289-21.54 16.289-44.024 0-6.867-.403-15.351-.805-20.062l11.309-2.02c1.074 6.192 1.882 15.754 1.75 23.426-.403 28.004-7.004 53.855-29.352 53.855-12.523 0-20.465-8.347-17.367-25.714l8.883-50.489h12.656zm-56.145 13.192c8.48 0 10.77-4.98 12.922-17.098l3.098-17.637c1.48-7.945 1.48-14.136.406-19.926-.809-.136-1.617-.136-2.29-.136-7.675 0-13.464 4.308-15.62 16.426l-3.903 22.484c-1.078 6.598-1.75 10.637-1.21 12.926 1.613 1.886 4.44 2.96 6.597 2.96m39.852-65.027l-2.157 12.25h-3.363c-2.02 0-4.445-.27-7.137-.672 1.48 5.926 1.883 12.524.809 19.387l-3.098 18.582c-2.96 17.906-10.5 26.656-24.64 26.656-15.48 0-21.676-8.347-18.309-27.062l4.04-22.485c3.362-18.578 13.194-26.656 28.542-26.656zm0 0" fill="#1b1b1b"/></svg>