<?xml version='1.0' encoding='UTF-8'?>
<svg xmlns="http://www.w3.org/2000/svg" xmlns:xlink="http://www.w3.org/1999/xlink" width="600px" height="300px" viewBox="0 0 600 300" x="0px" y="0px" enable-background="new 0 0 600 300"><defs><symbol overflow="visible" id="abb40e20a"><path d="M.95-62.56v6.33h11.36V0h6.81v-56.23h11.36v-6.33zm0 0"/></symbol><symbol overflow="visible" id="abb40e20b"><path d="M5.77-18.16c0 13.29 4.39 19.29 15.18 19.29C31.6 1.13 36-4.88 36-18.16V-44.4c0-13.28-4.4-19.28-15.05-19.28-10.8 0-15.18 6-15.18 19.28zm6.8 0V-44.4c0-9.82 2.23-13.1 8.3-13.1 6.08 0 8.33 3.28 8.33 13.1v26.25c0 9.85-2.25 13.11-8.32 13.11-6.08 0-8.32-3.26-8.32-13.1zm0 0"/></symbol><symbol overflow="visible" id="abb40e20c"><path d="M3.2 0H10l2-15.44h14.31l2 15.44h6.82l-8.26-62.56H11.53zm9.52-21.44l4.23-34.97h4.4l4.24 34.97zm0 0"/></symbol><symbol overflow="visible" id="abb40e20d"><path d="M6.8-62.56V0h22.56v-6.23H13.59v-56.33zm0 0"/></symbol><symbol overflow="visible" id="abb40e20e"><path d="M7.6-43.13c2.48 0 4.17-1.43 4.17-4.56 0-2.95-1.7-4.39-4.18-4.39-2.54 0-4.23 1.44-4.23 4.4 0 3.12 1.69 4.55 4.23 4.55zm0 35.61c2.48 0 4.17-1.43 4.17-4.48 0-2.95-1.7-4.48-4.18-4.48-2.54 0-4.23 1.53-4.23 4.48 0 3.05 1.69 4.48 4.23 4.48zm0 0"/></symbol><symbol overflow="visible" id="abb40e20f"><path d="M5.05-15.2c0 10.56 4.08 16.32 14.87 16.32 10.56 0 14.88-5.76 14.88-16.32 0-7.28-2.16-12.16-6.4-14.57 3.37-2.54 5.2-7.36 5.2-15.36 0-12.07-3.12-18.56-13.68-18.56-10.48 0-13.69 6.49-13.69 18.56 0 8.18 1.7 12.97 5.05 15.44C7.2-27.2 5.05-22.4 5.05-15.2zm7.75-29.93c0-9.1 1.43-12.64 7.12-12.64 5.6 0 7.13 3.36 7.13 12.65 0 10-1.93 12.8-7.13 12.8-5.28 0-7.12-2.8-7.12-12.8zm-1.2 29.54c0-8.18 2.63-11.29 8.32-11.29 5.36 0 8.24 2.96 8.24 11.29 0 7.59-2.47 10.8-8.24 10.8-5.84 0-8.33-3.21-8.33-10.8zm0 0"/></symbol><symbol overflow="visible" id="abb40e20g"><path d="M25.84-17.05C25.84-8.23 21.6-6 14.64-6H6.87v6l7.77.31c11.44 0 18-4.47 18-17.43 0-13.04-5.92-17.04-17.05-17.04l-1.67.08v-22.15H31.2v-6.33H7.28v34.48h7.77c6.87 0 10.8 2.08 10.8 11.03zm0 0"/></symbol><symbol overflow="visible" id="abb40e20h"><path d="M2.56-56.23h6.88V0h6.8v-62.56H2.55zm0 0"/></symbol><symbol overflow="visible" id="abb40e20i"><path d="M20.4-37.92c-3.45 0-6.17.87-8.09 1.76v-4.97c0-10.23 2.4-15.43 11.92-15.43h5.7v-6l-5.7-.31c-14.3 0-18.46 8.07-18.46 21.74v24C5.77-4.8 9.52 1.13 19.84 1.13c9.75 0 14-6.32 14-19.76 0-12.95-3.84-19.28-13.43-19.28zm-8.09 20.8v-13.04c1.85-.89 4.25-1.68 6.97-1.68 5.67 0 8 2.56 8 13.2 0 10.16-1.69 13.69-7.51 13.69-5.7 0-7.46-3.36-7.46-12.18zm0 0"/></symbol><symbol overflow="visible" id="abb40e20j"><path d="M3.83 0v-5.95H6.2v-.82H.45v.82h2.4V0zm0 0"/></symbol><symbol overflow="visible" id="abb40e20k"><path d="M5.75-2.23v-.43c0-1.6-.9-2.51-2.42-2.51S.87-4.16.87-2.48c0 1.71.91 2.62 2.5 2.62 1.43 0 2.07-.56 2.29-1.52l-.9-.09c-.18.61-.59.9-1.35.9-.94 0-1.52-.54-1.58-1.66zm-2.4-2.2c.93 0 1.43.5 1.48 1.55H1.84c.08-1.07.6-1.56 1.5-1.56zm0 0"/></symbol><symbol overflow="visible" id="abb40e20l"><path d="M1.83 0l1.42-2h.06l1.46 2H5.8L4-2.53l1.78-2.49H4.8L3.42-3.08h-.08l-1.4-1.94H.89l1.78 2.49L.84 0zm0 0"/></symbol><symbol overflow="visible" id="abb40e20m"><path d="M5.52-4.25v-.77H3.17v-1.56h-.81l-.14 1.56H.75v.77h1.47v2.4c0 1.3.48 1.94 1.84 1.94C4.6.1 5.14 0 5.55-.14L5.4-.91c-.32.13-.72.2-1.13.2-.8 0-1.1-.37-1.1-1.23v-2.31zm0 0"/></symbol><symbol overflow="visible" id="abb40e20n"><path d="M3.33-3.42c.47 0 .8-.27.8-.8 0-.51-.33-.8-.8-.8-.47 0-.8.29-.8.8 0 .53.33.8.8.8zm0 3.5c.47 0 .8-.27.8-.78 0-.53-.33-.82-.8-.82-.47 0-.8.29-.8.82 0 .51.33.78.8.78zm0 0"/></symbol><symbol overflow="visible" id="abb40e20p"><path d="M3.33.14c1.9 0 2.76-1.27 2.76-3.52 0-2.26-.86-3.53-2.76-3.53S.58-5.64.58-3.37c0 2.25.86 3.51 2.75 3.51zM3.3-.67c-1.25 0-1.73-.95-1.73-2.7 0-1.77.5-2.72 1.75-2.72s1.75.95 1.75 2.71c0 1.75-.5 2.7-1.77 2.7zm0 0"/></symbol><symbol overflow="visible" id="abb40e20q"><path d="M6.17 0L3.98-6.77h-1.3L.5 0h.97l.44-1.47h2.78L5.16 0zM3.28-5.94h.08l1.1 3.74H2.15zm0 0"/></symbol><symbol overflow="visible" id="abb40e20r"><path d="M2.08-6.77h-.99V0h4.79v-.81h-3.8zm0 0"/></symbol><symbol overflow="visible" id="abb40e20s"><path d="M3.33.16c1.69 0 2.69-.74 2.69-1.94 0-1.05-.8-1.58-1.43-1.72v-.05c.5-.14 1.2-.58 1.2-1.56 0-1.12-.95-1.81-2.46-1.81-1.52 0-2.46.69-2.46 1.81 0 .97.68 1.4 1.18 1.56v.05c-.6.14-1.4.64-1.4 1.72 0 1.2 1 1.94 2.68 1.94zm0-4.04c-.97 0-1.49-.43-1.49-1.12 0-.78.52-1.1 1.49-1.1.95 0 1.48.32 1.48 1.1 0 .69-.53 1.13-1.48 1.13zm0 3.24c-1.1 0-1.7-.42-1.7-1.25 0-.78.6-1.2 1.7-1.2s1.7.42 1.7 1.2c0 .83-.6 1.25-1.7 1.25zm0 0"/></symbol><symbol overflow="visible" id="abb40e20t"><path d="M3.42.14c1.55 0 2.44-.84 2.44-2.33 0-1.45-.83-2.22-2.14-2.22-.75 0-1.28.27-1.67.72H2l.31-2.22h3.11v-.86H1.53l-.45 3.93h.81c.3-.36.9-.79 1.58-.79.92 0 1.44.43 1.44 1.47 0 .99-.54 1.5-1.49 1.5-.83 0-1.28-.32-1.5-1.01l-.95.1C1.07-.46 2 .13 3.42.13zm0 0"/></symbol><symbol overflow="visible" id="abb40e20u"><path d="M4.22-6.77h-.86l-2.03.7v.87c.64-.17 1.26-.38 1.89-.55v4.9H1.03V0h4.9v-.86H4.21zm0 0"/></symbol><symbol overflow="visible" id="abb40e20v"><path d="M3.42.14c1.58 0 2.49-.86 2.49-2.3 0-1.42-.86-2.17-2.22-2.17-1.03 0-1.58.5-1.9 1.02h-.04c.03-1.63.4-2.77 1.73-2.77.91 0 1.24.44 1.36.96l.97-.11c-.23-.96-.86-1.68-2.33-1.68C1.84-6.9.86-5.86.86-3.1.86-.9 1.78.14 3.42.14zm.02-.78c-.9 0-1.47-.55-1.47-1.47 0-.9.7-1.47 1.53-1.47.92 0 1.47.52 1.47 1.47 0 .97-.6 1.47-1.53 1.47zm0 0"/></symbol><symbol overflow="visible" id="abb40e20w"><path d="M5.95-6.77H1.1V0h.99v-2.92H5.3v-.77H2.08v-2.26h3.87zm0 0"/></symbol><symbol overflow="visible" id="abb40e20x"><path d="M2.83.14c.94 0 1.5-.39 1.81-.95h.08l.1.81h.76v-3.38c0-1.23-.69-1.8-2.13-1.8-1.43 0-2.03.65-2.18 1.6l.93.1c.11-.6.44-.93 1.22-.93.85 0 1.22.32 1.22 1.04v.34l-1.81.2C1.6-2.7 1.1-2.17 1.1-1.28c0 .92.64 1.42 1.72 1.42zm.25-.77c-.67 0-1.02-.28-1.02-.74 0-.44.28-.72 1-.82l1.58-.19v.41c0 .8-.6 1.34-1.56 1.34zm0 0"/></symbol><symbol overflow="visible" id="abb40e20y"><path d="M2.73.14c.9 0 1.43-.45 1.74-1.08h.06l.13.94h.8v-5.02h-.94v2.7c0 .98-.57 1.62-1.46 1.62-.75 0-1.1-.4-1.1-1.22v-3.1h-.93v3.32c0 1.17.55 1.84 1.7 1.84zm0 0"/></symbol><symbol overflow="visible" id="abb40e20z"><path d="M5.08-5.16c-.94 0-1.58.43-1.9 1.3h-.09l-.07-1.16H1.05v.77h1.1v3.48H.96V0h3.96v-.77H3.1v-1.46c0-1.36.6-2.05 1.83-2.05.4 0 .76.08 1.1.17l.15-.87c-.33-.11-.7-.18-1.11-.18zm0 0"/></symbol><symbol overflow="visible" id="abb40e20A"><path d="M3.92-7.14H1.36v.76h1.6v5.61H1.15V0H5.7v-.77H3.92zm0 0"/></symbol><symbol overflow="visible" id="abb40e20B"><path d="M5.33-2.2v-.75h-4v.75zm0 0"/></symbol><symbol overflow="visible" id="abb40e20C"><path d="M3.34.14c1.43 0 2.13-.66 2.25-1.78l-.89-.1c-.1.7-.5 1.08-1.34 1.08-1.03 0-1.52-.64-1.52-1.84 0-1.23.47-1.86 1.52-1.86.84 0 1.23.36 1.34 1.08l.9-.1c-.13-1.09-.82-1.78-2.26-1.78-1.56 0-2.46.97-2.46 2.66 0 1.66.9 2.64 2.46 2.64zm0 0"/></symbol><symbol overflow="visible" id="abb40e20D"><path d="M2.06 1.9V-.84h.05c.28.58.8.97 1.77.97 1.5 0 2.2-.98 2.2-2.66 0-1.65-.7-2.64-2.19-2.64-.97 0-1.5.44-1.78 1.05h-.08l-.1-.9H1.1v6.9zm1.5-2.56c-1.06 0-1.53-.8-1.53-1.86 0-1.04.47-1.84 1.53-1.84 1.11 0 1.53.61 1.53 1.84 0 1.27-.42 1.86-1.53 1.86zm0 0"/></symbol><symbol overflow="visible" id="abb40e20E"><path d="M2.16 0v-2.67c0-.99.59-1.63 1.46-1.63.74 0 1.07.38 1.07 1.22V0h.95v-3.31c0-1.2-.56-1.85-1.67-1.85-.92 0-1.49.46-1.77 1.08h-.06l-.12-.94H1.2V0zm0 0"/></symbol><symbol overflow="visible" id="abb40e20F"><path d="M1.63 0v-2.9c0-.8.15-1.4.71-1.4.41 0 .55.3.55.88V0h.95v-2.9c0-.8.18-1.4.72-1.4.4 0 .57.3.57.88V0h.95v-3.63c0-.92-.28-1.53-1.11-1.53-.63 0-.95.41-1.1.9h-.06c-.1-.52-.44-.9-1.08-.9-.6 0-.93.41-1.06.9H1.6l-.23-.76H.67V0zm0 0"/></symbol><symbol overflow="visible" id="abb40e20G"><path d="M3.36.16c1.4 0 2.2-.6 2.2-1.57 0-.89-.54-1.22-1.47-1.39L3-3c-.67-.14-.86-.33-.86-.73 0-.5.4-.74 1.17-.74.83 0 1.19.27 1.27.8l.9-.05c-.12-1-.8-1.47-2.17-1.47-1.34 0-2.1.53-2.1 1.5 0 .81.45 1.22 1.52 1.44l1.04.2c.56.11.87.24.87.72 0 .52-.45.78-1.28.78-.95 0-1.36-.28-1.42-.87l-.9.06C1.07-.36 1.8.16 3.35.16zm0 0"/></symbol><symbol overflow="visible" id="abb40e20H"><path d="M1.45-2.95c0 2.56 1.08 4.37 3.67 4.84l.11-.67C3.28.86 2.43-.75 2.43-2.95s.85-3.82 2.8-4.16l-.1-.69c-2.6.49-3.68 2.3-3.68 4.85zm0 0"/></symbol><symbol overflow="visible" id="abb40e20I"><path d="M1.45-7.1c1.96.33 2.8 1.94 2.8 4.15 0 2.2-.84 3.8-2.8 4.17l.11.67c2.58-.47 3.67-2.28 3.67-4.84 0-2.55-1.09-4.36-3.67-4.85zm0 0"/></symbol></defs><use xlink:href="#abb40e20a" x="130.6" y="163" fill="#515151"/><use xlink:href="#abb40e20b" x="160.6" y="163" fill="#515151"/><use xlink:href="#abb40e20a" x="200.92" y="163" fill="#515151"/><g fill="#515151"><use xlink:href="#abb40e20c" x="231.16" y="163"/><use xlink:href="#abb40e20d" x="269.48" y="163"/></g><use xlink:href="#abb40e20e" x="300.92" y="163" fill="#515151"/><use xlink:href="#abb40e20f" x="330.2" y="163" fill="#fff"/><use xlink:href="#abb40e20g" x="369.96" y="163" fill="#fff"/><use xlink:href="#abb40e20h" x="407.4" y="163" fill="#fff"/><use xlink:href="#abb40e20i" x="431.08" y="163" fill="#fff"/><g fill="#fff"><use xlink:href="#abb40e20j" x="243.3333" y="252"/><use xlink:href="#abb40e20k" x="250.0003" y="252"/><use xlink:href="#abb40e20l" x="256.6673" y="252"/><use xlink:href="#abb40e20m" x="263.3343" y="252"/><use xlink:href="#abb40e20n" x="270.0013" y="252"/><use xlink:href="#abb40e20o" x="276.6683" y="252"/><use xlink:href="#abb40e20j" x="283.3353" y="252"/><use xlink:href="#abb40e20p" x="290.0023" y="252"/><use xlink:href="#abb40e20j" x="296.6693" y="252"/><use xlink:href="#abb40e20q" x="303.3363" y="252"/><use xlink:href="#abb40e20r" x="310.0033" y="252"/><use xlink:href="#abb40e20n" x="316.6703" y="252"/><use xlink:href="#abb40e20o" x="323.3373" y="252"/><use xlink:href="#abb40e20s" x="330.0043" y="252"/><use xlink:href="#abb40e20t" x="336.6713" y="252"/><use xlink:href="#abb40e20u" x="343.3383" y="252"/><use xlink:href="#abb40e20v" x="350.0053" y="252"/></g><g fill="#fff"><use xlink:href="#abb40e20w" x="193.3333" y="266"/><use xlink:href="#abb40e20k" x="200.0003" y="266"/><use xlink:href="#abb40e20x" x="206.6673" y="266"/><use xlink:href="#abb40e20m" x="213.3343" y="266"/><use xlink:href="#abb40e20y" x="220.0013" y="266"/><use xlink:href="#abb40e20z" x="226.6683" y="266"/><use xlink:href="#abb40e20k" x="233.3353" y="266"/><use xlink:href="#abb40e20n" x="240.0023" y="266"/><use xlink:href="#abb40e20o" x="246.6693" y="266"/><use xlink:href="#abb40e20q" x="253.3363" y="266"/><use xlink:href="#abb40e20A" x="260.0033" y="266"/><use xlink:href="#abb40e20A" x="266.6703" y="266"/><use xlink:href="#abb40e20B" x="273.3373" y="266"/><use xlink:href="#abb40e20C" x="280.0043" y="266"/><use xlink:href="#abb40e20x" x="286.6713" y="266"/><use xlink:href="#abb40e20D" x="293.3383" y="266"/><use xlink:href="#abb40e20o" x="300.0053" y="266"/><use xlink:href="#abb40e20E" x="306.6723" y="266"/><use xlink:href="#abb40e20y" x="313.3393" y="266"/><use xlink:href="#abb40e20F" x="320.0063" y="266"/><use xlink:href="#abb40e20k" x="326.6733" y="266"/><use xlink:href="#abb40e20z" x="333.3403" y="266"/><use xlink:href="#abb40e20x" x="340.0073" y="266"/><use xlink:href="#abb40e20A" x="346.6743" y="266"/><use xlink:href="#abb40e20G" x="353.3413" y="266"/><use xlink:href="#abb40e20o" x="360.0083" y="266"/><use xlink:href="#abb40e20H" x="366.6753" y="266"/><use xlink:href="#abb40e20C" x="373.3423" y="266"/><use xlink:href="#abb40e20x" x="380.0093" y="266"/><use xlink:href="#abb40e20G" x="386.6763" y="266"/><use xlink:href="#abb40e20k" x="393.3433" y="266"/><use xlink:href="#abb40e20I" x="400.0103" y="266"/></g></svg>