<?xml version='1.0' encoding='UTF-8'?>
<svg xmlns="http://www.w3.org/2000/svg" xmlns:xlink="http://www.w3.org/1999/xlink" width="310px" height="280px" viewBox="0 0 310 280" x="0px" y="0px" enable-background="new 0 0 310 280"><defs><symbol overflow="visible" id="4c32d2eca"><path d="M1.84 0h6.47L9.4-9.67h8.22L18.69 0h6.47l-5.29-42.28H7.2zm8.14-15.17l2.29-21.55h2.53l2.22 21.55zm0 0"/></symbol><symbol overflow="visible" id="4c32d2ecb"><path d="M15.06-29.86L11.94-5.02h-1.3l-1.03-9.03-2.16-15.8H1.3L6.16 0h10.2l4.86-29.86zm0 0"/></symbol><symbol overflow="visible" id="4c32d2ecc"><path d="M2.64-10.27C2.64-2.92 5.52.7 12.16.7c6.57 0 9.5-3.62 9.5-10.97v-9.5c0-7.34-2.93-10.9-9.5-10.9-6.64 0-9.52 3.56-9.52 10.9zm6.05.18v-9.79c0-4.15.7-5.71 3.47-5.71 2.8 0 3.45 1.56 3.45 5.71v9.79c0 4.09-.66 5.71-3.45 5.71-2.77 0-3.47-1.62-3.47-5.71zm0 0"/></symbol><symbol overflow="visible" id="4c32d2ecd"><path d="M16.73-24.4l.44-5.52a8.72 8.72 0 00-2.64-.38 6.7 6.7 0 00-6 3.35l-.7-3.35-5.19.49.66 7.67V0h6.1v-21.81c1.13-1.47 3.18-2.82 5.33-2.82a8 8 0 012 .22zm0 0"/></symbol><symbol overflow="visible" id="4c32d2ece"><path d="M21.22-29.86h-6.16L11.94-5.02h-1.3l-1.03-8.8-2.16-16.04H1.3L6.16 0h4.96c-.7 4.16-3.78 4.6-8.9 4.6v5.12l3.01.26c6.11 0 9.94-2.3 11.2-9.98zm0 0"/></symbol><symbol overflow="visible" id="4c32d2ecf"><path d="M7.4 0L4.79-8.1H3.23L.6 0h1.18l.51-1.77h3.35L6.19 0zM3.95-7.13h.1l1.32 4.47h-2.8zm0 0"/></symbol><symbol overflow="visible" id="4c32d2ecg"><path d="M4.66 0l2.42-6.02H5.92L4.1-1.12h-.07l-1.86-4.9H.92L3.34 0zm0 0"/></symbol><symbol overflow="visible" id="4c32d2ech"><path d="M4 .17c1.95 0 3-1.14 3-3.19 0-2.03-1.05-3.17-3-3.17S1-5.05 1-3.02C1-.97 2.05.18 4 .18zm0-.92c-1.28 0-1.83-.72-1.83-2.27 0-1.53.55-2.25 1.83-2.25s1.83.72 1.83 2.25C5.83-1.47 5.28-.75 4-.75zm0 0"/></symbol><symbol overflow="visible" id="4c32d2eci"><path d="M6.1-6.19c-1.12 0-1.9.52-2.3 1.57h-.08l-.11-1.4H1.27v.91h1.32v4.19H1.14V0H5.9v-.92H3.73v-1.75c0-1.64.7-2.46 2.2-2.46.48 0 .91.08 1.32.2l.17-1.05c-.39-.13-.83-.2-1.33-.2zm0 0"/></symbol><symbol overflow="visible" id="4c32d2ecj"><path d="M4.1-1.03h-.08L2.1-6.02H.95L3.28 0h.49c-.4 1.14-.86 1.52-1.74 1.52-.26 0-.58-.04-.84-.1l-.11.9c.25.06.7.12 1.04.12 1.46 0 2.05-.85 2.66-2.44L7.1-6.02H6zm0 0"/></symbol><symbol overflow="visible" id="4c32d2ecl"><path d="M1.1-8.1V0h1.18v-2.72h2.03c1.9 0 2.86-.8 2.86-2.64v-.17c0-1.81-.97-2.58-2.83-2.58zM6-5.37C6-4.1 5.48-3.6 4.1-3.6H2.29v-3.58h1.83c1.37 0 1.89.4 1.89 1.66zm0 0"/></symbol><symbol overflow="visible" id="4c32d2ecm"><path d="M7.1-8.1H1.32V0h5.8v-.95H2.47v-2.72h3.87v-.9H2.47v-2.59H7.1zm0 0"/></symbol></defs><use xlink:href="#4c32d2eca" x="98.192" y="145"/><use xlink:href="#4c32d2ecb" x="125.192" y="145"/><use xlink:href="#4c32d2ecc" x="147.71" y="145"/><use xlink:href="#4c32d2ecd" x="172.01" y="145"/><g><use xlink:href="#4c32d2ece" x="189.29" y="145"/></g><g fill-opacity=".33"><use xlink:href="#4c32d2ecf" x="123" y="230"/><use xlink:href="#4c32d2ecg" x="131.0004" y="230"/><use xlink:href="#4c32d2ech" x="139.0008" y="230"/><use xlink:href="#4c32d2eci" x="147.0012" y="230"/><use xlink:href="#4c32d2ecj" x="155.0016" y="230"/><use xlink:href="#4c32d2eck" x="163.002" y="230"/><use xlink:href="#4c32d2ecl" x="171.0024" y="230"/><use xlink:href="#4c32d2ecm" x="179.0028" y="230"/></g></svg>