<?xml version='1.0' encoding='UTF-8'?>
<svg xmlns="http://www.w3.org/2000/svg" xmlns:xlink="http://www.w3.org/1999/xlink" width="1000px" height="2100px" viewBox="0 0 1000 2100" y="0px" x="0px" enable-background="new 0 0 1000 2100"><defs><symbol overflow="visible" id="6340789ba"><path d="M15.219-92.625L-1.063 0h21.829l4.015-22.656h2.594c17.469 0 28.438-7.203 31.75-25.844l2.828-15.922c3.297-18.297-5.906-28.203-22.312-28.203zm14.64 52.5h-2.015l6.14-35.047h.235c2.828 0 5.547.125 7.547 1.063-.235 3.187-.703 6.14-1.172 8.625L38.109-51.22c-1.765 10.157-4.125 11.094-8.25 11.094zm0 0"/></symbol><symbol overflow="visible" id="6340789bb"><path d="M31.625-39.531h17.234c.703-3.422 1.766-8.735 1.766-12.625 0-9.078-6.14-15.11-19.828-15.11-14.156 0-21.594 6.141-23.36 17.36l-.718 4.468C5.656-38.343 7.78-33.28 12.03-29.858c-6.015 2.25-9.906 5.906-10.969 11.453L.829-17.11C-1.656-3.422 7.672 1.188 24.188 1.188c5.437 0 14.515-.829 18.765-1.782l2.719-14.75H30.438c-6.25 0-9.547-.234-9.079-3.187l.11-.703c.484-2.594 3.422-2.36 8.734-2.36h4.719l2.125-13.218h-4.594c-5.547 0-7.672-1.532-6.844-6.844l.938-6.016c.469-3.187 1.765-4.125 3.89-4.125 1.422 0 2.485.234 3.079.578 0 1.188-.235 2.719-.594 4.61zm0 0"/></symbol><symbol overflow="visible" id="6340789bc"><path d="M6.375-65.484L3.187-47.797h12.5l-5.656 29.984c-2.484 13.094 1.656 19 11.688 19 5.297 0 10.375-.718 12.86-1.187l2.702-15.344h-8.61c.235-1.406.47-2.953.704-4.36l5.203-28.093h12.266l3.187-17.687zm0 0"/></symbol><symbol overflow="visible" id="6340789bd"><path d="M32.328-67.266c-16.875 0-23.234 9.797-26.547 28.672L-4.844 21.234H15.22l1.89-10.265c.594-3.297 1.297-8.016 1.422-10.14 1.407.468 6.61.937 8.016.937 14.406 0 20.765-10.032 23.484-25.953l2.485-14.75c2.828-16.641-2.016-28.329-20.188-28.329zm-2.125 43.079c-1.297 7.203-1.765 10.375-5.422 10.375-1.297 0-2.125-.11-3.422-.47l5.078-27.609c1.297-7.078 1.766-9.562 5.782-9.562 1.062 0 1.89.125 2.828.484-.36 1.875-1.063 5.89-1.422 7.782zm0 0"/></symbol><symbol overflow="visible" id="6340789be"><path d="M1.422-23.016C-1.188-7.672 4.25 1.766 21.469 1.766c17.234 0 24.078-9.438 26.672-24.782l3.312-19.468c2.594-15.328-2.844-24.782-20.062-24.782-17.235 0-24.078 9.454-26.672 24.782zm19.703.72l3.656-21.36c.828-4.719 1.297-8.032 4.953-8.032 1.297 0 2.72.235 3.313.594-.484 2.719-.953 5.547-1.422 8.266l-3.547 21c-.812 4.719-1.297 8.015-4.953 8.015-1.531 0-2.36-.234-3.422-.578.469-2.593.953-5.312 1.422-7.906zm2.953-50.86h11.563c6.25-5.547 13.922-15.11 15.578-21.25H32.922c-2 6.031-5.078 13.812-8.844 21.25zm0 0"/></symbol><symbol overflow="visible" id="6340789bg"><path d="M15.219-92.625L-1.063 0h21.829l12.859-73.39h8.266L29.03 0H50.86l16.282-92.625zm0 0"/></symbol><symbol overflow="visible" id="6340789bh"><path d="M1.063-21.828c-2.594 14.75 2 23.015 12.859 23.015 7.547 0 12.75-6.03 16.406-14.046a13.949 13.949 0 0 0-.234 2.468c0 7.672 2.703 11.579 11.562 11.579 3.532 0 6.844-.72 9.313-1.188l2.718-15.344h-5.656l.344-3.531 2.016-15.344c1.53-5.078 7.672-21.953 8.25-30.687L38-66.078c-.234 2.234-.953 6.016-1.656 9.312-1.766-4.593-5.657-9.906-12.625-9.906-11.203 0-16.516 9.328-19.703 27.734zm20.656-2.594l2.593-15.469c.938-5.297 1.172-10.015 4.485-10.015 2.234 0 4.719 2.234 5.187 3.172l-2.953 12.156c-3.062 12.75-7.672 19.234-10.625 19.234 0-.937.953-6.719 1.313-9.078zm4.953-48.734h11.562c6.25-5.547 13.922-15.11 15.578-21.25H35.517c-2 6.031-5.078 13.812-8.844 21.25zm0 0"/></symbol><symbol overflow="visible" id="6340789bi"><path d="M29.969-65.484H9.906L2.72-24.188C-.234-7.313 7.906 1.767 22.062 1.767c23.61 0 31.625-23.36 31.625-55.344 0-3.656-.468-8.484-1.296-13.094l-18.172 2.953c.125 3.188.125 4.953.125 8.969 0 15.578-3.547 40.938-10.625 40.938-.703 0-1.532-.11-2-.344-.36-1.422.11-4.719.578-7.672zm0 0"/></symbol><symbol overflow="visible" id="6340789bj"><path d="M52.39-92.625l-4.718 27.14-3.422 36.22h-1.297l-.469-19.704-3.656-43.656h-23.61L-1.061 0h19.468l4.375-24.781 3.297-39.766h1.297l.36 18.875L32.093 0h23.484L71.86-92.625zm0 0"/></symbol><symbol overflow="visible" id="6340789bk"><path d="M9.563-65.484L.937-17.813c-2.359 13.094 1.657 19 11.688 19 5.313 0 10.39-.718 12.86-1.187l2.718-15.344h-7.437c.234-1.406.468-2.953.703-4.36l8.156-45.78zm2.953-7.672h11.562c6.25-5.547 13.922-15.11 15.563-21.25H21.359c-2 6.031-5.078 13.812-8.843 21.25zm0 0"/></symbol><symbol overflow="visible" id="6340789bl"><path d="M23.125-13.453c-1.531 0-2.36-.235-3.422-.594.469-2.594.953-5.312 1.422-8.25L24.188-40c1.89-10.5 2.718-11.094 7.906-11.094.234 3.422-.11 6.844-1.172 13.219l-2.844 16.047c-.937 5.187-1.297 8.375-4.953 8.375zm11.453-52.031c-17.234 0-27.031 5.89-30.219 24.78L1.531-24.186C-1.062-8.845 4.25 1.765 21.47 1.765c17.234 0 23.14-10.5 25.5-24.547l1.172-7.188c1.062-6.61.468-13.343-1.172-18.64 2.234.468 4.36.812 5.781.812h2.953l3.063-17.687zm0 0"/></symbol><symbol overflow="visible" id="6340789bm"><path d="M9.906-65.484L-1.656 0h19.953l3.89-22.188 3.063-.468 1.89 11.093c1.657 9.797 5.079 12.75 13.329 12.75 3.547 0 7.078-.718 9.562-1.187l2.719-15.344h-5.781c-.485-1.297-1.063-2.594-1.422-3.89l-2.484-9.797 17.234-36.453H39.89L28.078-38.47l-3.062.594 4.843-27.61zm0 0"/></symbol><symbol overflow="visible" id="6340789bn"><path d="M1.422-23.016C-1.188-7.672 4.25 1.766 21.469 1.766c17.234 0 24.078-9.438 26.672-24.782l3.312-19.468c2.594-15.328-2.844-24.782-20.062-24.782-17.235 0-24.078 9.454-26.672 24.782zm19.703.72l3.656-21.36c.828-4.719 1.297-8.032 4.953-8.032 1.297 0 2.72.235 3.313.594-.484 2.719-.953 5.547-1.422 8.266l-3.547 21c-.812 4.719-1.297 8.015-4.953 8.015-1.531 0-2.36-.234-3.422-.578.469-2.593.953-5.312 1.422-7.906zm0 0"/></symbol><symbol overflow="visible" id="6340789bo"><path d="M21.125-92.625L6.485-62.547 4.25-49.563h13.797L10.14-27.14h15.343l11.328-22.422 2.25-12.984H26.547l14.64-30.078zM13.562 1.063c6.141 0 11.454-3.891 12.75-11.204 1.297-7.203-2.593-11.093-8.734-11.093-6.125 0-11.437 3.89-12.734 11.093C3.547-2.828 7.437 1.063 13.562 1.063zm0 0"/></symbol><symbol overflow="visible" id="6340789bp"><path d="M82.719-17.938L81.938-21 65.75-15.86l-16.625-9.624 16.625-9.641 16.188 5.14.78-3.062-13.14-4.266 12.703-7.328-1.765-2.953-12.579 7.328 2.735-13.453-2.953-.984-3.61 16.625-16.734 9.625v-19.25l12.578-11.484-2.297-2.188-10.281 9.188v-14.547h-3.39v14.656l-10.282-9.188-2.297 2.078 12.578 11.485v19.25l-16.75-9.625-3.609-16.625-3.063.875 2.844 13.453-12.578-7.219-1.75 2.953 12.688 7.328L8.75-33.047l.656 3.063 16.188-5.141 16.64 9.64-16.64 9.626L9.406-21l-.656 3.063 13.016 4.265L9.078-6.344l1.75 2.953 12.578-7.218-2.843 13.453 3.062.875 3.61-16.625 16.75-9.625v19.25L31.405 8.203l2.297 2.078 10.281-9.187V15.75h3.391V1.203l10.281 9.188 2.297-2.188L47.375-3.28v-19.25l16.734 9.625 3.61 16.625 2.953-.985-2.734-13.453L80.516-3.39l1.765-2.953-12.703-7.328zm0 0"/></symbol><symbol overflow="visible" id="6340789br"><path d="M36.656 0h4.047L28.781-37.64l11.375-47.485H36.22L25.484-39.5h-7.437L7.219-85.125H3.28L14.656-37.75 2.734 0h4.047l11.266-36.11h7.328zm0 0"/></symbol><symbol overflow="visible" id="6340789bs"><path d="M9.625-44.86c0-10.28 4.047-13.343 11.594-13.343 3.718 0 7.672.547 11.062 1.312l.657-3.062c-4.047-1.094-8-1.531-11.829-1.531-10.062 0-15.093 4.922-15.093 16.625 0 8.968 3.39 14.109 8.968 16.406C9.078-26.906 4.922-22.97 4.922-14.438 4.922-3.28 10.5 1.095 21.109 1.095c5.47 0 8.547-.438 12.594-1.532L33.047-3.5c-3.39.766-6.469 1.313-11.828 1.313-8.094 0-12.688-2.516-12.688-12.25 0-9.407 5.36-12.141 13.89-12.141h4.704v-3.406h-4.703c-7.875 0-12.797-4.485-12.797-14.875zm0 0"/></symbol><symbol overflow="visible" id="6340789bt"><path d="M19.578-3.281c-6.234 0-7.765-2.297-7.765-9.406v-47.594h-3.61v48.25C8.203-2.953 11.047 0 19.578 0h3.172v-3.281zm0 0"/></symbol><symbol overflow="visible" id="6340789bu"><path d="M8.75-60.281v78.875h3.61V5.469c0-2.844-.11-5.688-.22-8.532C14.11-.219 17.39 1.095 21 1.095c7.344 0 11.063-5.907 13.031-8.75C34.36-2.625 36.984 0 42.891 0h2.078v-3.281H42.89c-4.047 0-5.578-1.75-5.578-7.219v-49.781h-3.61v47.375C30.86-7.437 26.797-2.187 21-2.187c-4.813 0-8.64-3.61-8.64-8.75v-49.344zm0 0"/></symbol><symbol overflow="visible" id="6340789bv"><path d="M21.984-61.375c-11.265 0-14.328 7-14.328 21.984v57.985h3.61V7c0-2.953-.11-6.016-.22-8.969 2.626 1.422 6.126 3.063 9.735 3.063 11.61 0 15.766-8.094 15.766-21.985v-18.5c0-12.797-3.828-21.984-14.563-21.984zm10.953 40.484c0 11.703-2.624 18.703-12.046 18.703-3.172 0-7.22-1.859-9.625-3.171v-34.032c0-13.234 1.75-18.703 10.718-18.703 8.438 0 10.953 7.657 10.953 18.703zm0 0"/></symbol><symbol overflow="visible" id="6340789bw"><path d="M30.75-60.281c-.766 11.703-3.063 26.797-5.266 36.328l-4.812 21h-5.14l-3.282-21-5.797-36.328H2.734L12.578 0h10.938l5.593-23.734c2.297-9.641 4.813-25.828 5.36-36.547zm0 0"/></symbol><symbol overflow="visible" id="6340789bx"><path d="M9.625-44.86c0-10.28 4.047-13.343 11.594-13.343 3.718 0 7.672.547 11.062 1.312l.657-3.062c-4.047-1.094-8-1.531-11.829-1.531-10.062 0-15.093 4.922-15.093 16.625 0 8.968 3.39 14.109 8.968 16.406C9.078-26.906 4.922-22.97 4.922-14.438 4.922-3.28 10.5 1.095 21.109 1.095c5.47 0 8.547-.438 12.594-1.532L33.047-3.5c-3.39.766-6.469 1.313-11.828 1.313-8.094 0-12.688-2.516-12.688-12.25 0-9.407 5.36-12.141 13.89-12.141h4.704v-3.406h-4.703c-7.875 0-12.797-4.485-12.797-14.875zm9.297-22.421h3.281l3.61-11.047 1.656-4.828h-3.844zm0 0"/></symbol><symbol overflow="visible" id="6340789by"><path d="M10.172-42.453c0-11.375 4.047-15.203 11.594-15.203 4.265 0 7.125.547 10.515 1.312l.657-3.062c-4.047-1.094-6.907-1.532-11.282-1.532-10.062 0-15.093 5.797-15.093 17.5v19.266C6.563.875 29.547-3.39 29.547 9.406c0 4.156-2.203 6.016-7.453 6.235v2.953h.984c5.703 0 9.969-3.172 9.969-9.188 0-15.969-22.875-10.281-22.875-33.687zm0 0"/></symbol><symbol overflow="visible" id="6340789bz"><path d="M3.61 0h36.874l-.218-3.281-12.47-81.844h-11.5L3.829-3.281zm32.609-3.5H7.875l11.703-78.11H24.5zm0 0"/></symbol><symbol overflow="visible" id="6340789bA"><path d="M41.031-3.281c-4.047 0-5.578-1.75-5.578-7.219v-36.875l.984-12.906-3.171-.328-.875 8.422c-1.422-2.735-4.157-9.188-11.828-9.188-9.625 0-14 8.094-14 20.89v20.688c0 13.89 3.062 20.89 12.687 20.89 6.89 0 11.063-6.015 12.922-11.374v1.75c0 6.344 3.172 8.531 8.86 8.531h2.077v-3.281zm-9.187-17.39c0 6.562-4.828 18.483-12.375 18.483-7.766 0-9.297-5.906-9.297-17.609v-20.687c0-11.047 3.062-17.61 10.39-17.61 6.907 0 9.86 8.203 11.282 11.266zm0 0"/></symbol><symbol overflow="visible" id="6340789bB"><path d="M33.922 0h3.937L24.5-27.125l11.719-33.156H32.39L21.328-28.453H12.36v-31.828H8.75V0h3.61v-25.156h8.968zm0 0"/></symbol><symbol overflow="visible" id="6340789bC"><path d="M6.563-19.797c0 14.219 4.375 20.89 14.984 20.89 10.625 0 15-6.671 15-20.89v-20.687c0-14.22-4.375-20.891-15-20.891-10.61 0-14.985 6.672-14.985 20.89zm3.609 0v-20.687c0-11.485 2.625-17.61 11.375-17.61 8.765 0 11.39 6.125 11.39 17.61v20.687c0 11.485-2.624 17.61-11.39 17.61-8.75 0-11.375-6.126-11.375-17.61zm0 0"/></symbol><symbol overflow="visible" id="6340789bD"><path d="M.547-60.281v3.5H12.03V0h3.61v-56.781h17.187v45.843C32.828-1.858 35.672 0 43.11 0h2.078v-3.281H43.11c-5.14 0-6.672-1.203-6.672-8.313V-56.78h11.485v-3.5zm0 0"/></symbol><symbol overflow="visible" id="6340789bE"><path d="M2.656-81.984h12.735V0h16.875v-96.64H2.656zm0 0"/></symbol><symbol overflow="visible" id="6340789bF"><path d="M7.547-31.969c0 22.797 8 34.188 27.078 34.188 18.953 0 26.797-11.39 26.797-34.188v-32.703c0-22.797-7.703-34.187-26.64-34.187-19.094 0-27.235 11.39-27.235 34.187zm17.015-.437v-31.969c0-14.36 2.079-20.281 10.063-20.281 7.844 0 9.922 5.922 9.922 20.281v31.969c0 14.343-2.078 20.125-9.922 20.125-7.984 0-10.063-5.781-10.063-20.125zm0 0"/></symbol><symbol overflow="visible" id="6340789bG"><path d="M78.14-93.531l-9.906-5.031-27.53 49.578L13.468-3.11l9.922 4.89 27.515-49.578zM22.204-98.86c-13.172 0-19.547 6.953-19.547 26.484 0 19.531 6.219 26.344 19.25 26.344 13.172 0 19.39-6.953 19.39-26.64 0-19.235-6.077-26.188-19.093-26.188zm-.156 10.796c4.734 0 6.672 2.376 6.672 15.547 0 13.172-1.938 15.688-6.672 15.688-4.875 0-6.656-2.516-6.656-15.688 0-13.171 1.921-15.546 6.656-15.546zM70-50.608c-13.172 0-19.688 7.093-19.688 26.484 0 19.531 6.376 26.344 19.25 26.344 13.172 0 19.532-6.953 19.532-26.64C89.094-43.657 83.03-50.61 70-50.61zm-.297 10.797c4.734 0 6.672 2.374 6.672 15.546 0 13.313-1.938 15.688-6.672 15.688s-6.5-2.516-6.5-15.688 1.766-15.547 6.5-15.547zm0 0"/></symbol><symbol overflow="visible" id="6340789bI"><path d="M4.89 0h17.157l2.219-20.578h20.578L47.062 0h17.016L51.062-96.64h-33zM43.22-34.625H25.906l5.328-47.516h6.5zm0 0"/></symbol><symbol overflow="visible" id="6340789bJ"><path d="M42.766-96.64l-6.36 34.328-2.656 17.468h-5.625l-2.813-17.61-6.078-34.187H2.078l14.047 65.86h6.219V0h17.031v-30.781h6.36l13.906-65.86zm0 0"/></symbol><symbol overflow="visible" id="6340789bK"><path d="M7.547-31.969c0 22.797 8.14 34.188 28.125 34.188C55.5 2.219 63.64-9.171 63.64-31.97v-32.703c0-22.797-8-34.187-27.828-34.187-19.829 0-28.266 11.39-28.266 34.187zm15.984-.437v-31.969c0-14.36 2.516-20.281 12.14-20.281 9.61 0 11.985 5.922 11.985 20.281v31.969c0 14.343-2.375 20.125-11.984 20.125-9.625 0-12.14-5.781-12.14-20.125zM43.36-53.72H27.83v13.61h15.53zm0 0"/></symbol><symbol overflow="visible" id="6340789bL"><path d="M11.094-96.64V0h45.89v-14.656H27.97v-24.719h23.687v-13.906H27.97v-28.703h29.015v-14.657zm0 0"/></symbol><symbol overflow="visible" id="6340789bM"><path d="M53.875-96.64v44.546l2.36 36.407h-2.36L49.141-40.25 35.219-96.64H11.094V0h15.39v-44.984l-2.218-35.97h2.078l4.593 24.423L45.142 0h24.125v-96.64zm0 0"/></symbol><symbol overflow="visible" id="6340789bN"><path d="M.89-96.64v14.656h18.204V0h17.015v-81.984h18.203v-14.657zm0 0"/></symbol><symbol overflow="visible" id="6340789bO"><path d="M11.094-96.64V0h17.172v-96.64zm0 0"/></symbol><symbol overflow="visible" id="6340789bP"><path d="M49.875 0h17.61L51.202-44.547 66.016-96.64H48.844L36.266-50.312h-8.297v-46.329H11.094V0h16.875v-35.813h8.89zm0 0"/></symbol><symbol overflow="visible" id="6340789bQ"><path d="M7.547-31.375c0 22.64 8 33.594 27.969 33.594 19.843 0 27.828-10.953 27.828-33.594v-33.89c0-22.797-7.844-33.594-27.672-33.594-19.984 0-28.125 10.796-28.125 33.593zm17.172-.438v-33.156c0-14.36 2.062-19.687 10.797-19.687 8.593 0 10.656 5.328 10.656 19.687v33.156c0 14.344-2.063 19.532-10.656 19.532-8.735 0-10.797-5.188-10.797-19.532zm0 0"/></symbol><symbol overflow="visible" id="6340789bR"><path d="M161.688-184.234h-55.47l-8.687 72.375L90-27.266h-.234l-7.516-85.062-8.688-71.906h-55L5.876 0h32.672l3.984-89.297 2.125-66.984h5.407l7.75 64.39L68.858 0h42.063l10.812-90.234 7.985-66.047h5.64l2.344 67.219L141.937 0h32.672zm0 0"/></symbol><symbol overflow="visible" id="6340789bS"><path d="M10.578-55.453C10.578-17.86 23.5 3.53 60.86 3.53c37.141 0 50.063-21.39 50.063-58.984v-73.328c0-37.594-12.922-58.985-50.063-58.985-37.359 0-50.28 21.391-50.28 58.985zm33.61 0v-73.328c0-22.797 3.28-30.781 16.437-30.781 13.64 0 16.688 7.984 16.688 30.78v73.329c0 22.781-3.047 30.781-16.688 30.781-13.156 0-16.438-8-16.438-30.781zm0 0"/></symbol><symbol overflow="visible" id="6340789bT"><path d="M5.406 0h104.578l-1.656-27.5-20.672-156.734H27.734L7.047-27.5zm70.031-28.203H39.953L53.11-156.281h8.938zm0 0"/></symbol><symbol overflow="visible" id="6340789bU"><path d="M13.625-184.234V0H47v-184.234zm0 0"/></symbol><symbol overflow="visible" id="6340789bV"><path d="M98.938-154.39v-29.844H7.28l-1.406 29.843 39.016 63.453L5.875-29.843 7.281 0h91.656v-29.844h-55l-.234-2.343L82.25-91.892l-36.89-60.156.234-2.344zm0 0"/></symbol><symbol overflow="visible" id="6340789bW"><path d="M2.344-184.234v29.843h31.265V0h33.36v-154.39H98v-29.844zm0 0"/></symbol><symbol overflow="visible" id="6340789bX"><path d="M13.625-184.234V0h33.14v-47.938h4.704c36.422 0 59.218-17.39 59.218-69.093 0-52.875-19.75-67.203-56.874-67.203zM51.469-75.672h-4.703v-80.375h5.875c19.734 0 25.14 6.36 25.14 39.016 0 32.906-6.11 41.36-26.312 41.36zm0 0"/></symbol><symbol overflow="visible" id="6340789bY"><path d="M75.438 0h33.374L86.484-184.234H25.141L3.063 0h33.359l4-40.422h31.016zm-6.579-67.922H43l7.766-88.36h10.093zm0 0"/></symbol><symbol overflow="visible" id="6340789bZ"><path d="M2.906-20.75C1.25-11.062 5.422-5.703 12.546-4.906L11.579.562h2.906l.97-5.343c8.827-.344 13.5-5.313 15.046-14.313l1.14-6.843c1.594-9.625-2.28-15.047-9.703-15.907l.813-4.39h-2.906l-.75 4.28c-8.89.282-13.453 5.36-14.985 14.313zm2.844.11l1.14-6.547c1.313-7.75 4.735-11.797 11.813-12.204L13.047-7.297c-2.5-.281-4.672-1.25-5.985-3.016-1.593-2.343-2.109-5.53-1.312-10.328zm21.719-15.782c1.593 2.328 2.062 5.578 1.265 10.375L27.641-19.5c-1.25 7.703-4.672 11.86-11.86 12.203l5.656-32.094c2.563.282 4.72 1.25 6.032 2.97zm0 0"/></symbol><symbol overflow="visible" id="6340789baa"><path d="M14.016-32.094c-4.844 0-7.797 2.797-9 9.688L-.516 9.75h2.797l.969-5.813c.234-1.546.516-3.203.688-4.734C5.077-.172 7.188.625 9.343.625c5.422 0 8.265-3.938 9.578-11.625l1.594-9.297c1.14-6.672-.172-11.797-6.5-11.797zM16.125-11C15.047-4.672 13-1.875 9.297-1.875c-1.938 0-3.766-.797-4.844-1.313L7.75-21.78c.969-5.75 2.688-7.797 6.266-7.797 1.718 0 2.906.562 3.484 1.64.86 1.657.797 4.282.234 7.641zm0 0"/></symbol><symbol overflow="visible" id="6340789bab"><path d="M15.5-20h2.516c.39-2.063.797-4.344.797-6.156 0-3.938-2.047-5.938-6.391-5.938-4.438 0-7 2.453-7.922 7.75l-.453 2.563c-.688 3.937.453 6.797 2.844 8.156-3.125.75-5.063 2.688-5.579 5.703l-.109.797C.343-1.875 4.047.344 9.641.344c2.156 0 4.203-.235 5.578-.344l.453-2.219h-4.906c-4.547 0-7.516-.969-6.891-4.969l.11-.734c.406-2.687 2.687-4.219 6.5-4.219h2.624l.454-2.39h-1.985c-4.11 0-5.594-2.625-4.906-6.844l.516-2.906c.671-3.875 2.328-5.36 5.125-5.36 1.593 0 2.671.407 3.421 1.203.688 1.141.735 2.954.282 5.641zm0 0"/></symbol><symbol overflow="visible" id="6340789bac"><path d="M8.656-1.875c-1.703 0-2.953-.64-3.64-1.719-.86-1.531-.735-3.984-.172-7.234l1.718-9.64c1.016-5.813 3.75-8.548 7.797-8.548.516 0 1.204.063 1.938.063 1.031 2.625 1.094 5.75.469 9.11L14.938-9.689c-.97 5.704-2.735 7.813-6.282 7.813zm5.766-29.594c-5.703 0-9.344 3.594-10.656 11l-1.72 9.64C.797-3.874 2.517.626 8.61.626c4.844 0 7.75-2.797 8.954-9.688l1.875-10.656c.562-3.25.453-6.437-.579-9.062.578.047 1.094.047 1.485.047h3.078l.469-2.735zm0 0"/></symbol><symbol overflow="visible" id="6340789bad"><path d="M7.063-31.469L1.484 0h2.797L6.5-12.719l3.766-.328 2.562 9.406C13.625-.625 14.594.344 16.922.344c.75 0 1.719-.235 2.281-.406l.406-2.11h-1.312c-.969 0-1.594-.047-2-.344-.39-.328-.625-.968-.969-2.093l-2.672-9.532 10.375-17.328h-3.078l-9.469 16.016-3.53.297L9.858-31.47zm0 0"/></symbol><symbol overflow="visible" id="6340789bae"><path d="M1.938-10.375c-1.313 7.531 1.25 11 6.5 11 5.812 0 8.093-3.469 9.453-11l1.89-10.656c1.36-7.64-1.14-11.063-6.437-11.063-5.766 0-8.156 3.485-9.469 11.063zm2.796 0l1.938-10.656c1.016-5.766 2.5-8.547 6.375-8.547 1.828 0 3.031.562 3.765 1.594.86 1.422.75 3.875.172 6.953L15.11-10.375c-1.093 5.922-2.515 8.5-6.453 8.5-1.594 0-2.781-.516-3.578-1.484-.922-1.375-.922-3.829-.344-7.016zm0 0"/></symbol><symbol overflow="visible" id="6340789baf"><path d="M3.078-31.469l-.515 2.735h6.609L5.187-6.562C4.282-1.484 5.423.343 8.547.343c.922 0 3.36-.235 3.937-.406l.391-2.11H9.859c-1.078 0-1.765-.172-2.109-.734-.281-.688-.172-1.938.172-3.875l4.047-21.953h6.781l.516-2.735zm0 0"/></symbol><symbol overflow="visible" id="6340789bag"><path d="M9.406-31.469H6.61L2.844-9.859C1.594-2.625 4.454.625 9.125.625c8.14 0 11.11-10.422 11.11-22.906.062-3.25-.344-7.36-.735-9.532l-2.578.47c.344 2.437.578 6.202.578 8.937 0 10.828-2.281 20.531-8.328 20.531-1.485 0-2.5-.578-3.188-1.61-.734-1.359-.796-3.578-.343-6.203zm0 0"/></symbol><symbol overflow="visible" id="6340789bah"><path d="M7.016-31.469L-.281 9.75h2.734l1.14-6.047c.173-1.25.454-3.015.626-4.672.453.906 1.25 1.485 2.625 1.485 3.984 0 7.468-6.11 9.11-9.235-.5 2.047-.97 3.985-.907 5.531 0 2.454 1.203 3.532 3.484 3.532.625 0 1.938-.235 2.5-.406l.407-2.11H19.89c-.907 0-1.766-.172-2.11-.562-.281-.688-.172-2.11.172-4.329l4.328-24.406H19.5l-3.313 18.922C15.11-10.547 10.204-2 7.126-2c-1.703-.172-2.11-2.563-1.594-5.36l4.266-24.109zm0 0"/></symbol><symbol overflow="visible" id="6340789bai"><path d="M15.5-20h2.516c.39-2.063.797-4.344.797-6.156 0-3.938-2.047-5.938-6.391-5.938-4.438 0-7 2.453-7.922 7.75l-.453 2.563c-.688 3.937.453 6.797 2.844 8.156-3.125.75-5.063 2.688-5.579 5.703l-.109.797C.343-1.875 4.047.344 9.641.344c2.156 0 4.203-.235 5.578-.344l.453-2.219h-4.906c-4.547 0-7.516-.969-6.891-4.969l.11-.734c.406-2.687 2.687-4.219 6.5-4.219h2.624l.454-2.39h-1.985c-4.11 0-5.594-2.625-4.906-6.844l.516-2.906c.671-3.875 2.328-5.36 5.125-5.36 1.593 0 2.671.407 3.421 1.203.688 1.141.735 2.954.282 5.641zm-4.328-15.11h2.172c2.047-2.515 3.984-5.421 5.187-8.546h-3.14c-1.079 2.953-2.516 5.687-4.22 8.547zm0 0"/></symbol><symbol overflow="visible" id="6340789baj"><path d="M18.406-31.469c-.968 7.125-2.953 14.25-7.125 23.828L9-2.39c-.563.11-1.313.22-1.813.22-.968-.11-.968-.673-.921-1.876L6.5-9.969l.734-21.5h-2.78L3.765-3.53C3.64-.453 4.78.344 7.016.344c1.015 0 2.843-.406 3.64-.578l2.625-5.688c4.328-9.469 7.188-18.765 7.922-25.547zm0 0"/></symbol><symbol overflow="visible" id="6340789bal"><path d="M3.14-31.469l-.468 2.735h5.594L3.25 0h2.734L11-28.734h8.438l-4.11 22.172c-.906 5.078.297 6.906 3.375 6.906.906 0 2.781-.235 3.36-.406l.39-2.11H20c-1.078 0-1.766-.172-2.047-.734-.344-.688-.219-1.938.172-3.875l4.047-21.953h5.765l.454-2.735zm0 0"/></symbol><symbol overflow="visible" id="6340789bam"><path d="M2-10.61C.734-3.593 1.594.517 5.531.517c4.047 0 8.266-8.047 10.14-12.204-.733 3.188-1.593 6.844-1.593 8.376 0 2.624 1.25 3.656 3.531 3.656.922 0 2-.235 2.516-.406l.39-2.11h-1.593c-1.078 0-1.766-.172-2.047-.734-.344-.688-.234-1.875.172-3.875l1.984-11.453c1.203-5.485 2.453-9.813 3.078-13.235l-2.78-.218c-.298 1.765-.626 3.984-1.142 6.156-.687-2.282-2.234-6.563-6.046-6.563-4.907 0-7.063 4.5-8.329 11.407zm2.781.126L6.61-20.688c1.032-5.64 2.516-8.843 5.594-8.843 2.953 0 4.5 4.843 5.188 7.078l-.97 3.922C14.985-12.938 8.72-2 5.75-2c-1.813-.219-1.875-3.469-.969-8.484zm7.875-24.625h2.156c2.063-2.516 4-5.422 5.188-8.547h-3.125c-1.094 2.953-2.516 5.687-4.219 8.547zm0 0"/></symbol><symbol overflow="visible" id="6340789ban"><path d="M15.734 0l1.36-32.266c.406-9.234 0-12.828-5.188-12.828-1.187 0-2.781.235-3.531.407l-.453 2.39c.797-.172 2.453-.281 3.25-.281 1.312 0 2.219.281 2.734.969.86 1.484.688 4.843.578 9.859-1.265 0-3.25.344-4.39.578l-2.516 5.578C4.781-19.266-.109-6.39-1.703 0H1.14c1.593-6.328 5.921-18.188 8.437-23.89l2.219-5.172 2.734-.235-.453 7.813L12.938 0zm0 0"/></symbol><symbol overflow="visible" id="6340789bao"><path d="M6.89-31.469L2.564-6.562c-.907 5.14.28 6.906 3.421 6.906.907 0 2.97-.235 3.532-.406l.406-2.11H7.234c-1.015 0-1.765-.172-2.046-.734-.344-.688-.172-1.938.171-3.875L9.75-31.47zm0 0"/></symbol><symbol overflow="visible" id="6340789bap"><path d="M2-10.61C.734-3.593 1.594.517 5.531.517c4.047 0 8.266-8.047 10.14-12.204-.733 3.188-1.593 6.844-1.593 8.376 0 2.624 1.25 3.656 3.531 3.656.922 0 2-.235 2.516-.406l.39-2.11h-1.593c-1.078 0-1.766-.172-2.047-.734-.344-.688-.234-1.875.172-3.875l1.984-11.453c1.203-5.485 2.453-9.813 3.078-13.235l-2.78-.218c-.298 1.765-.626 3.984-1.142 6.156-.687-2.282-2.234-6.563-6.046-6.563-4.907 0-7.063 4.5-8.329 11.407zm2.781.126L6.61-20.688c1.032-5.64 2.516-8.843 5.594-8.843 2.953 0 4.5 4.843 5.188 7.078l-.97 3.922C14.985-12.938 8.72-2 5.75-2c-1.813-.219-1.875-3.469-.969-8.484zm0 0"/></symbol><symbol overflow="visible" id="6340789baq"><path d="M10.89-41.375l.11-.297h12.203l.453-2.734H8.266l-.625 2.734 6.093 9.688c-5.921 1.484-9 6.28-10.656 15.562l-.453 2.578C.735-3.422 3.422.625 9.172.625c5.36 0 8.328-3.875 10.031-13.453l.344-1.938c1.312-7.64 0-12.937-3.297-18.062zm-1.593 39.5c-1.828 0-3.14-.688-3.828-1.89-1.078-2.047-.907-5.704-.172-9.86l.406-2.5c1.594-8.5 4.156-12.719 9.235-13.906 2.562 4.547 2.953 8.765 1.984 14.297l-.453 2.687c-1.36 7.75-3.36 11.172-7.172 11.172zm0 0"/></symbol><symbol overflow="visible" id="6340789bar"><path d="M28.563-30.203c-2.344 0-3.875-1.781-5.313-4 1.547-2.11 3.547-3.531 5.938-3.531.968 0 1.875.234 2.5.578.687.5 1.03 1.297 1.03 2.39 0 2.735-1.484 4.563-4.156 4.563zm-8.22 21.828c2.282 0 4.626-2.281 5.141-5.36.11-.624.11-1.25 0-1.765 2.11-.281 4.157-2.281 4.547-5.14.407-3.188-1.015-5.344-3.234-5.344-1.375 0-2.86.843-3.828 2.265-.282-1.765-1.25-2.953-2.625-3.297.406-1.89.968-3.656 1.765-5.187 1.547 2.219 3.422 4.047 6.453 4.047 3.75 0 6.375-2.797 6.375-6.735-.046-3.125-2.28-4.89-5.64-4.89-2.797 0-5.25 1.484-7.188 3.922-1.875-2.907-4.093-5.86-8.312-5.86-4.219 0-6.672 2.782-6.672 6.61 0 3.765 2.672 5.578 6.219 5.578.672 0 1.36-.047 1.984-.172l.344-1.875H14.14c-1.547 0-2.797-.281-3.657-.86-.734-.624-1.14-1.593-1.14-2.78-.047-2.688 1.484-4.391 4.453-4.391 3.422 0 5.234 2.78 7.062 5.578-1.14 2.047-1.937 4.453-2.328 7.015-1.547.391-2.968 1.657-3.828 3.422-.453-1.484-1.594-2.39-2.969-2.39-2.265 0-4.609 2.156-5.015 5.343-.39 2.797.86 4.86 2.86 5.078-.282.579-.454 1.204-.579 1.829-.5 3.078 1.031 5.296 3.375 5.359a4.387 4.387 0 0 0-.469 1.531c-.453 2.969 1.031 5.14 3.313 5.14 2.219 0 4.5-2.171 4.953-5.14.062-.562.125-1.078 0-1.531h.172zm0 0"/></symbol><symbol overflow="visible" id="6340789bas"><path d="M10.984-61.938L.078 0h15.016c11.375 0 17.61-3.563 19.343-13.672.563-3.312.72-4.656.72-6.156 0-4.735-2.22-7.828-5.688-9.485 4.265-1.421 7.578-5.687 8.843-12.484.72-3.781.954-5.844.954-7.734 0-8.14-5.375-12.407-15.094-12.407zm9.235 9.094h2.297c2.609 0 4.968.469 6.078 1.422.078 1.328.078 3.39-.235 5.438l-.78 4.515c-1.11 5.844-3.72 7.969-8.298 7.969h-2.453zM15.484-9.078h-2.921l2.765-16.047h3.156c2.688 0 4.907.64 5.844 1.984.235.938.313 2.516-.078 4.813l-.39 2.531c-.954 5.375-3.235 6.719-8.376 6.719zm0 0"/></symbol><symbol overflow="visible" id="6340789bat"><path d="M1.422-15.25C-.468-4.656 2.297.625 8.688.625 14.14.625 18.405-6 21.015-11.688c-.641 2.126-1.266 4.813-1.266 6.079 0 4.187 1.969 6.234 6.875 6.234 1.969 0 4.188-.469 5.61-.781l1.421-7.907h-1.734c-1.031 0-2.14-.078-2.688-.312 0-.703.078-1.656.235-2.922l1.89-12.172c1.266-4.578 4.5-13.343 5.453-20.14l-10.656-.625c-.25 1.812-.64 4.422-1.187 6.78-1.11-2.921-3.563-7.343-8.532-7.343-7.359 0-10.984 6.875-12.968 18.172zm10.5-.469l1.984-11.219c1.031-5.453 1.969-8.765 4.344-8.765 2.297 0 4.266 3.078 4.969 4.812l-1.813 6.563c-2.281 8.297-7.5 16.11-10.031 16.11-.234-.86.078-4.735.547-7.5zm5.86-33.265h6.234c3.953-3.47 8.453-9.547 9.562-13.5h-10.11a115.896 115.896 0 0 1-5.687 13.5zm0 0"/></symbol><symbol overflow="visible" id="6340789bau"><path d="M4.266-43.766L2.609-34.28h8.532l-4.188 23.14C5.453-3.078 7.5.625 13.75.625c2.531 0 6.39-.469 7.734-.781l1.422-7.907h-3.39c-1.188 0-2.297-.078-2.922-.312 0-.781.156-1.969.312-3.156l4.188-22.75h8.531l1.656-9.485zm0 0"/></symbol><symbol overflow="visible" id="6340789bav"><path d="M21.094-26.938h9.078c.562-2.53 1.265-6.078 1.265-8.453 0-5.765-3.625-9.562-11.843-9.562-8.532 0-12.953 3.719-14.219 11.297L4.812-30.5c-.78 5.14.641 8.61 3.641 10.828-3.953 1.422-6.64 3.875-7.344 7.75l-.156 1.094C-.547-2.531 5.063.625 15.016.625c3.156 0 8.765-.39 11.14-.781l1.5-7.907h-9.172c-4.89 0-7.734-.39-7.187-3.624l.078-.641c.469-2.61 3.234-2.922 7.188-2.922h3.234l1.265-7.344h-3.078c-4.343 0-6.156-1.5-5.453-5.843l.64-3.954c.548-3.078 1.735-4.265 4.032-4.265 1.344 0 2.36.312 3.078.953.078.937 0 2.281-.312 4.11zm0 0"/></symbol><symbol overflow="visible" id="6340789baw"><path d="M19.672-44.953c-9.719 0-13.828 4.578-15.563 14.61L2.047-18.329C-.875-1.5 14.609-1.5 14.609 3.875c0 1.969-1.421 2.531-3.39 2.531-.625 0-1.656-.172-2.375-.328L7.656 13.75c1.5.39 3.328.86 5.688.86 5.937 0 11.062-3.079 11.062-10.344 0-13.032-14.297-9.797-11.843-23.391l1.968-11.219c.719-4.265 1.5-6.156 4.344-6.156 1.11 0 2.14.313 2.766.875.078 1.5-.157 3.156-.625 5.531l-1.657 9.547h8.766c.781-2.765 2.844-10.422 2.844-14.531 0-6.234-3.563-9.875-11.297-9.875zm0 0"/></symbol><symbol overflow="visible" id="6340789bax"><path d="M-2.453 8.297H5.53L11.61-4.578l1.032-6.094H3zm0 0"/></symbol><symbol overflow="visible" id="6340789baz"><path d="M14.86 1.188c10.89 0 16.03-6.641 16.03-18.094 0-6.078-2.53-9.875-5.374-11.844 6.406-4.516 10.593-11.625 10.593-22.203 0-7.672-4.187-12.172-12.406-12.172-9.719 0-13.672 6.094-15.719 17.703L.47-2.922c3.328 1.89 8.687 4.11 14.39 4.11zm3.234-47c1.187-6.485 2.125-8.86 5.218-8.86 1.016 0 2.282.313 2.922.875.157 1.188.078 2.766-.172 4.969-.78 10.516-5.046 15.172-10.656 17.312zm-3 38.546c-1.5 0-3.078-.562-4.031-1.03l2.921-15.407a54.45 54.45 0 0 0 5.047-1.656c1.188 1.968 2.219 4.812 1.75 9.953-.312 5.922-2.062 8.14-5.687 8.14zm0 0"/></symbol><symbol overflow="visible" id="6340789baA"><path d="M7.734-43.766L1.97-11.14C.547-3.078 2.609.625 8.922.625c2.453 0 5.937-.469 7.265-.781l1.422-7.907h-2.593c-1.188 0-2.297-.078-2.922-.312 0-.781.156-1.969.312-3.156l5.766-32.235zm0 0"/></symbol><symbol overflow="visible" id="6340789baB"><path d="M23.938-43.766c-1.266 8.141-3.47 17.703-6.407 26.157l-3.156 9.234c-.625.078-1.89.313-2.36.313.079-.782.157-1.891.235-2.844l.781-8.125 2.063-24.735H4.5L3.156-9.563C2.844-1.813 5.531.626 11.844.626c2.219 0 6.172-.625 7.75-1.016l3.547-7.593c4.75-10.11 9.875-24.563 11.218-35.782zm0 0"/></symbol><symbol overflow="visible" id="6340789baC"><path d="M18.016-43.766H7.656L2.61-15.094C.72-4.344 5.766 1.11 14.141 1.11c14.453 0 19.125-15.406 19.203-34.297.078-3.468-.328-7.89-.953-11.296l-9.328 1.593c.156 2.438.25 5.532.25 8.922 0 11.844-2.532 26.625-8.375 26.625-.876 0-1.829-.234-2.454-.875-.312-1.11-.078-3.39.313-5.687zm-1.985-5.218h6.25c3.953-3.47 8.453-9.547 9.563-13.5H21.719c-1.578 4.5-3.39 8.922-5.688 13.5zm0 0"/></symbol><symbol overflow="visible" id="6340789baD"><path d="M27.89 0l2.922-45.984c.782-12-1.5-17.141-9.796-17.141-3.157 0-6.72.484-8.922 1.11l-1.422 8.53c1.578-.234 4.89-.624 7.11-.624 1.093 0 2.202.078 3 .39.624 1.344.546 5.61.312 9.328-2.219 0-6.407.703-7.828 1.094l-3.391 7.438C5.687-26.937-.875-10.422-3 0H7.578c1.672-6.64 5.688-20.375 7.906-26.781l3.079-8.61 2.375-.312-1.11 10.031L17.297 0zm0 0"/></symbol><symbol overflow="visible" id="6340789baE"><path d="M1.422-15.25C-.468-4.656 2.297.625 8.688.625 14.14.625 18.405-6 21.015-11.688c-.641 2.126-1.266 4.813-1.266 6.079 0 4.187 1.969 6.234 6.875 6.234 1.969 0 4.188-.469 5.61-.781l1.421-7.907h-1.734c-1.031 0-2.14-.078-2.688-.312 0-.703.078-1.656.235-2.922l1.89-12.172c1.266-4.578 4.5-13.343 5.453-20.14l-10.656-.625c-.25 1.812-.64 4.422-1.187 6.78-1.11-2.921-3.563-7.343-8.532-7.343-7.359 0-10.984 6.875-12.968 18.172zm10.5-.469l1.984-11.219c1.031-5.453 1.969-8.765 4.344-8.765 2.297 0 4.266 3.078 4.969 4.812l-1.813 6.563c-2.281 8.297-7.5 16.11-10.031 16.11-.234-.86.078-4.735.547-7.5zm0 0"/></symbol><symbol overflow="visible" id="6340789baF"><path d="M7.656-43.766L-.078 0h10.344l2.765-15.797 2.922-.39 1.828 9C18.875-1.734 20.47.625 25.75.625c1.984 0 4.11-.469 5.531-.781l1.422-7.907h-1.5c-1.187 0-2.125-.078-2.844-.234-.39-.625-.703-1.656-1.03-2.844l-2.204-8.375 12.64-24.25H26.86L17.453-24.64l-2.844.391 3.407-19.516zm0 0"/></symbol><symbol overflow="visible" id="6340789baG"><path d="M13.984-7.266c-1.187 0-2.296-.39-3.078-1.03 0-1.579.313-3.626.781-6.563l2.22-12.547c1.265-7.11 3.234-8.532 7.265-8.532h.719c.39 2.844.234 5.766-.563 10.266l-1.89 10.578c-.954 5.297-1.735 7.828-5.454 7.828zm8.063-36.5c-10.203 0-16.36 4.344-18.406 16.11L1.5-15.484C-.39-4.891 3.234 1.109 13.516 1.109c9.875 0 14.062-6.093 15.718-16.047l1.344-7.89c.625-4.188.313-8.453-.719-11.938 1.578.25 3 .485 4.11.485h1.968l1.672-9.485zm0 0"/></symbol><symbol overflow="visible" id="6340789baH"><path d="M1.422-15.016C-.391-4.422 3.234 1.187 13.437 1.187c10.032 0 14.532-5.609 16.344-16.203l2.375-13.734c1.813-10.672-1.812-16.203-12.015-16.203-10.032 0-14.532 5.531-16.344 16.203zm10.265.25l2.532-14.39c.875-5.047 1.89-7.344 5.14-7.344 1.344 0 2.61.39 3.313 1.11 0 1.578-.39 3.874-.875 6.484l-2.438 14.218c-.875 5.126-1.906 7.422-5.14 7.422-1.422 0-2.531-.39-3.313-1.109 0-1.5.313-3.64.781-6.39zm0 0"/></symbol><symbol overflow="visible" id="6340789baI"><path d="M8.453-43.766l-10.187 57.75H8.453l1.031-6.078c.313-1.906.625-4.672.86-7.11.156.079.406.079.64.079 3.875 0 7.422-3.797 10.266-8.063-.156 1.5-.156 2.922.234 4.032.641 2.531 2.688 3.781 6.328 3.781 1.735 0 4.579-.39 5.766-.781L35-8.063h-1.734c-1.032 0-2.297-.078-2.844-.312 0-.781.234-2.61.547-4.266l5.453-31.125H25.984L21.172-16.03c-1.813 2.36-6.078 7.187-8.063 7.187-.156-.719 0-2.453.407-4.5l5.359-30.422zm0 0"/></symbol><symbol overflow="visible" id="6340789baJ"><path d="M4.656-43.766L3-34.28h5.844L2.766 0h9.796l6.079-34.281h6.25l-4.344 23.14C19.03-3.078 21.094.625 27.407.625c2.53 0 5.53-.469 6.952-.781l1.422-7.907h-2.593c-1.188 0-2.297-.078-3.016-.312.078-.781.172-1.969.406-3.156l4.344-22.75h6l1.656-9.485zm0 0"/></symbol><symbol overflow="visible" id="6340789baK"><path d="M68.281-144.531v-6.406H6.406l-.593 6.406 37.25 71L5.813-6.406 6.405 0h61.875v-6.406H14.156l-.187-.969 36.86-66.156-36.673-70.031.203-.97zm0 0"/></symbol><symbol overflow="visible" id="6340789baL"><path d="M0-106.89v6.203h22.313v79.343C22.313-5.234 27.358 0 42.483 0h5.625v-5.813h-5.625C31.422-5.813 28.72-9.89 28.72-22.5v-78.188h24.25v-6.203zm0 0"/></symbol><symbol overflow="visible" id="6340789baM"><path d="M72.75-5.813c-7.172 0-9.89-3.109-9.89-12.812V-84l1.75-22.89-5.641-.579-1.547 14.938c-2.516-4.86-7.375-16.297-20.953-16.297-17.063 0-24.828 14.344-24.828 37.047v36.672c0 24.64 5.437 37.047 22.5 37.047 12.218 0 19.593-10.672 22.89-20.172v3.109C57.031-3.875 62.656 0 72.75 0h3.688v-5.813zM56.453-36.672c0 11.64-8.531 32.797-21.922 32.797-13.765 0-16.484-10.484-16.484-31.234v-36.672c0-19.594 5.422-31.235 18.422-31.235 12.218 0 17.468 14.547 19.984 19.985zm-18.625-82.64h5.828l6.39-19.594 2.923-8.531h-6.797zm0 0"/></symbol><symbol overflow="visible" id="6340789baN"><path d="M39-108.828c-19.984 0-25.422 12.406-25.422 38.984V32.984h6.406V12.422c0-5.25-.203-10.672-.39-15.906C24.25-.97 30.454 1.937 36.859 1.937c20.563 0 27.938-14.359 27.938-38.984v-32.797C64.797-92.53 58-108.828 39-108.828zm19.39 71.781c0 20.75-4.656 33.172-21.343 33.172-5.625 0-12.797-3.297-17.063-5.625v-60.344c0-23.469 3.11-33.172 19.016-33.172 14.938 0 19.39 13.579 19.39 33.172zm0 0"/></symbol><symbol overflow="visible" id="6340789baO"><path d="M38.219-3.875c-15.516 0-20.172-10.875-20.172-44.813 0-35.312 7.36-51.218 25.797-52.39 11.453 8.922 15.906 25.812 15.906 52.39 0 33.938-6.016 44.813-21.531 44.813zm27.937-44.813c0-25.03-4.078-41.718-14.172-52.39 3.688.203 6.22.39 11.844.39h10.469v-6.203H45.984c-23.484 0-34.343 16.688-34.343 58.204 0 38.796 7.765 50.624 26.578 50.624 18.812 0 27.937-11.828 27.937-50.624zm0 0"/></symbol><symbol overflow="visible" id="6340789baP"><path d="M60.14 0h6.985L43.453-48.11l20.766-58.78h-6.797L37.828-50.438H21.922v-56.454h-6.406V0h6.406v-44.625h15.906zm0 0"/></symbol><symbol overflow="visible" id="6340789baQ"><path d="M20.953-106.89h-6.406v65.953c0 31.046 5.828 42.874 24.64 42.874 19.782 0 27.547-19.593 27.547-52.578 0-25.015-5.046-45.203-10.28-58.187L50.64-106.5c6.78 18.422 9.687 34.531 9.687 55.86 0 28.14-4.656 46.765-21.14 46.765-15.516 0-18.235-10.875-18.235-37.063zm0 0"/></symbol><symbol overflow="visible" id="6340789baS"><path d="M43.063-61.297c-13.97 0-20.172-7.969-20.172-29.297 0-23.484 2.906-31.625 16.875-31.625 13.203 0 16.687 8.14 16.687 30.453v10.282h6.203v-10.282c0-23.671-4.843-35.109-19.968-36.28v-16.298h-6.22v16.297c-14.546 1.172-20.171 11.844-20.171 37.453 0 17.844 4.844 27.547 13.969 31.813-9.703 3.11-15.72 11.062-15.72 28.515C14.547-9.703 21.142.578 36.86 1.75v17.656h6.203V1.75C58.97.781 64.406-8.531 64.406-27.938v-2.125h-6.203c0 18.422-3.297 25.985-18.234 25.985-12.813 0-19.016-6.594-19.016-25.985 0-19.796 6.985-25.234 24.063-25.234h1.547v-6zm0 0"/></symbol><symbol overflow="visible" id="6340789baT"><path d="M64.984 0h7.188L51.016-66.734l20.187-84.204H64.22L45.203-70.03H32.016l-19.22-80.906H5.814l20.187 84L4.844 0h7.187l19.985-64.016h13zm0 0"/></symbol><symbol overflow="visible" id="6340789baU"><path d="M72.75-5.813c-7.172 0-9.89-3.109-9.89-12.812V-84l1.75-22.89-5.641-.579-1.547 14.938c-2.516-4.86-7.375-16.297-20.953-16.297-17.063 0-24.828 14.344-24.828 37.047v36.672c0 24.64 5.437 37.047 22.5 37.047 12.218 0 19.593-10.672 22.89-20.172v3.109C57.031-3.875 62.656 0 72.75 0h3.688v-5.813zM56.453-36.672c0 11.64-8.531 32.797-21.922 32.797-13.765 0-16.484-10.484-16.484-31.234v-36.672c0-19.594 5.422-31.235 18.422-31.235 12.218 0 17.468 14.547 19.984 19.985zm0 0"/></symbol><symbol overflow="visible" id="6340789baV"><path d="M18.047-41.125v-32.406c0-22.313 4.062-29.485 17.656-29.485 13.578 0 16.672 6.985 16.672 29.485v21.156h6.219v-21.156c0-26.188-5.438-35.297-22.89-35.297-17.47 0-24.063 9.11-24.063 35.297v32.594c0 44.421 40.734 36.859 40.734 57.624 0 7.375-3.875 10.672-13.188 11.047v5.25h1.75c10.079 0 17.657-5.625 17.657-16.297 0-26.39-40.547-16.687-40.547-57.812zm0 0"/></symbol><symbol overflow="visible" id="6340789baW"><path d="M.25-24.234v2.437h4.406V0h2.625v-21.797h4.407v-2.437zm0 0"/></symbol><symbol overflow="visible" id="6340789baX"><path d="M1.39-5.766c0 4.22 1.548 6.141 4.97 6.141 3.406 0 4.952-1.922 4.952-6.14v-5.641c0-4.25-1.546-6.14-4.953-6.14-3.421 0-4.968 1.89-4.968 6.14zm2.485 0v-5.64c0-2.86.563-3.969 2.484-3.969 1.922 0 2.47 1.11 2.47 3.969v5.64c0 2.86-.548 3.97-2.47 3.97-1.921 0-2.484-1.11-2.484-3.97zm0 0"/></symbol><symbol overflow="visible" id="6340789baZ"><path d="M8.828-17.14L7.375-7.5l-.703 5.14H5.516L4.844-7.5l-1.532-9.64H.688L3.655 0H4.86v5.39h2.422V0h1.25l2.938-17.14zm0 0"/></symbol><symbol overflow="visible" id="6340789bba"><path d="M6.766-17.547c-3.766 0-4.97 1.985-4.97 6.547V5.39h2.485V2.454c0-.844-.031-1.828-.062-2.64.625.28 1.422.562 2.453.562 3.469 0 5.047-2.422 5.047-6.516v-4.515c0-4.156-1.36-6.89-4.953-6.89zM9.234-6.14c0 2.86-.734 4.313-2.75 4.313a5.544 5.544 0 0 1-2.203-.469V-11c0-3.234.532-4.281 2.485-4.281 1.796 0 2.468 1.672 2.468 4.625zm0 0"/></symbol><symbol overflow="visible" id="6340789bbb"><path d="M8.125-17.547c-2.047 0-3.281 1.297-4 2.235l-.344-2.016-2.172.187.344 4.157V0H4.47v-12.984c.672-1.032 1.953-2.266 3.25-2.266 1.328 0 1.734.797 1.734 3.094V5.39h2.516v-17.547c0-3.625-1-5.39-3.844-5.39zm-2.703-1.64h1.953l1.672-3.47.531-1.5h-2.64zm0 0"/></symbol><symbol overflow="visible" id="6340789bbc"><path d="M.156 3.25h2.047L3.97-1.922l.344-2.047H1.828zm0 0"/></symbol><symbol overflow="visible" id="6340789bbd"><path d="M1.39-5.766c0 4.22 1.548 6.141 4.97 6.141 3.406 0 4.952-1.922 4.952-6.14v-5.641c0-4.25-1.546-6.14-4.953-6.14-3.421 0-4.968 1.89-4.968 6.14zm2.485 0v-5.64c0-2.86.563-3.969 2.484-3.969 1.922 0 2.47 1.11 2.47 3.969v5.64c0 2.86-.548 3.97-2.47 3.97-1.921 0-2.484-1.11-2.484-3.97zm0 0"/></symbol><symbol overflow="visible" id="6340789bbe"><path d="M.281-17.14v2.421h2.656V0H5.36v-14.719h3.688v10.531c0 3.016.5 4.344 3.484 4.344l1.266-.093v-2.079h-.688c-1.421 0-1.671-.5-1.671-2.453v-10.25h2.796v-2.422zm0 0"/></symbol><symbol overflow="visible" id="6340789bbf"><path d="M.25-17.14v2.421h3.375V-4.28c0 3.047.563 4.437 3.594 4.437L9.016.063v-2.079H7.812c-1.484 0-1.734-.562-1.734-2.546V-14.72h3.875v-2.422zm0 0"/></symbol><symbol overflow="visible" id="6340789bbg"><path d="M6.11-2.016c-1.516 0-1.766-.562-1.766-2.546v-12.579H1.859v12.86c0 3.047.594 4.437 3.625 4.437L7.313.063v-2.079zm0 0"/></symbol><symbol overflow="visible" id="6340789bbh"><path d="M9.36 0h2.578l-3.47-8.063 3.126-9.078H9.016L6.39-9.047H4.5v-8.094H2.016V0H4.5v-6.766h1.89zm0 0"/></symbol><symbol overflow="visible" id="6340789bbi"><path d="M12.594-2.016c-1.125 0-1.375-.53-1.375-1.921v-9.016l.469-4.188-2.11-.187-.375 1.922c-.437-.688-1.36-2.14-3.406-2.14-2.906 0-4.406 2.796-4.406 6.702v4.766C1.39-1.734 2.64.375 5.734.375c1.704 0 3.032-1.313 3.532-2.578 0 1.64.875 2.36 2.734 2.36l1.234-.095v-2.078zM8.828-5.703c0 1.953-1.234 3.875-2.875 3.875-1.547 0-2.078-1.36-2.078-4.25v-4.766c0-2.953.813-4.437 2.297-4.437 1.297 0 2.266 1.61 2.656 2.39zM5.86-19.188h1.954l1.671-3.468.532-1.5H7.375zm0 0"/></symbol><symbol overflow="visible" id="6340789bbj"><path d="M3.906-12.469c0-2.094.625-2.937 2.969-2.937.969 0 1.984.125 3.078.312l.344-1.953c-1.313-.375-2.328-.531-3.688-.531-3.703 0-5.125 1.703-5.125 4.875 0 2.281.97 3.687 2.547 4.39-1.765.563-2.797 1.766-2.797 3.97 0 3.109 1.47 4.78 5.188 4.78 1.703 0 2.656-.156 3.969-.5l-.344-1.984c-1.094.188-2.047.313-3.344.313-2.422 0-3.078-.782-3.078-2.86 0-1.953 1.328-2.625 3.781-2.625h.75v-1.984h-.719c-2.265 0-3.53-.813-3.53-3.266zm0 0"/></symbol><symbol overflow="visible" id="6340789bbk"><path d="M8.625-17.14C8.562-14.72 8-10.657 7.437-7.938L6.266-2.141h-1L4.53-7.875l-1.343-9.266H.655L3.344 0h4.594l1.859-7.75c.719-2.938 1.234-6.969 1.265-9.39zm0 0"/></symbol><symbol overflow="visible" id="6340789bbl"><path d="M4.844-21.703l.015-.156h6.329v-2.375H1.765L1.64-21.86l3.812 4.468c-2.547 1.172-4.062 3.72-4.062 9.36C1.39-1.703 3.094.375 6.516.375c3.437 0 5.14-2.078 5.14-8.406 0-4.563-1.172-7-3.187-9.39zM6.516-1.797c-1.922 0-2.641-1.422-2.641-6.234 0-5.047 1.047-6.938 2.906-7.75 1.844 2.265 2.39 4.125 2.39 7.75 0 4.812-.702 6.234-2.655 6.234zm0 0"/></symbol><symbol overflow="visible" id="6340789bbm"><path d="M12.594-2.016c-1.125 0-1.375-.53-1.375-1.921v-9.016l.469-4.188-2.11-.187-.375 1.922c-.437-.688-1.36-2.14-3.406-2.14-2.906 0-4.406 2.796-4.406 6.702v4.766C1.39-1.734 2.64.375 5.734.375c1.704 0 3.032-1.313 3.532-2.578 0 1.64.875 2.36 2.734 2.36l1.234-.095v-2.078zM8.828-5.703c0 1.953-1.234 3.875-2.875 3.875-1.547 0-2.078-1.36-2.078-4.25v-4.766c0-2.953.813-4.437 2.297-4.437 1.297 0 2.266 1.61 2.656 2.39zm0 0"/></symbol><symbol overflow="visible" id="6340789bbn"><path d="M9.922 5.39V.314c4.61-.47 6.203-3.594 6.203-9.235 0-6.14-1.469-8.625-4.625-8.625-3.25 0-4.031 2.078-4.031 7.781v7.907C4.656-2.36 3.875-4.656 3.875-8c0-3.188.563-5.86 2.172-8.547l-2.14-.937C2.358-15.125 1.39-11.781 1.39-8c0 4.688 1.437 7.844 6.046 8.313V5.39zM9.859-9.89c0-4.5.407-5.422 1.641-5.422 1.453 0 2.172 1.546 2.172 6.39 0 4.39-.969 6.625-3.813 7.063zm0 0"/></symbol><symbol overflow="visible" id="6340789bbo"><path d="M3.906-12.469c0-2.094.625-2.937 2.969-2.937.969 0 1.984.125 3.078.312l.344-1.953c-1.313-.375-2.328-.531-3.688-.531-3.703 0-5.125 1.703-5.125 4.875 0 2.281.97 3.687 2.547 4.39-1.765.563-2.797 1.766-2.797 3.97 0 3.109 1.47 4.78 5.188 4.78 1.703 0 2.656-.156 3.969-.5l-.344-1.984c-1.094.188-2.047.313-3.344.313-2.422 0-3.078-.782-3.078-2.86 0-1.953 1.328-2.625 3.781-2.625h.75v-1.984h-.719c-2.265 0-3.53-.813-3.53-3.266zm1.235-6.719h1.953l1.672-3.468.53-1.5H6.673zm0 0"/></symbol><symbol overflow="visible" id="6340789bbp"><path d="M6.11-2.016c-1.516 0-1.766-.562-1.766-2.546v-12.579H1.859v12.86c0 3.047.594 4.437 3.625 4.437L7.313.063v-2.079zM1.921-19.188h1.953l1.672-3.468.531-1.5h-2.64zm0 0"/></symbol><symbol overflow="visible" id="6340789bbq"><path d="M6.39-1.797c-1.921 0-2.515-1.547-2.515-6.266 0-4.765 1.047-6.624 3.281-6.843 1.375 1.172 1.985 3.219 1.985 7.125 0 4.781-.797 5.984-2.75 5.984zm5.173-5.61c0-3.78-.5-5.921-1.704-7.405.594.062 1.141.093 1.829.093h1.234v-2.422H7.75c-4.5 0-6.36 3-6.36 9.078 0 6.235 1.407 8.438 5 8.438 3.407 0 5.173-2.11 5.173-7.781zm0 0"/></symbol><symbol overflow="visible" id="6340789bbr"><path d="M1.39-5.766c0 4.22 1.548 6.141 4.97 6.141 3.406 0 4.952-1.922 4.952-6.14v-5.641c0-4.25-1.546-6.14-4.953-6.14-3.421 0-4.968 1.89-4.968 6.14zm2.485 0v-5.64c0-2.86.563-3.969 2.484-3.969 1.922 0 2.47 1.11 2.47 3.969v5.64c0 2.86-.548 3.97-2.47 3.97-1.921 0-2.484-1.11-2.484-3.97zm1.234-13.421h1.954l1.671-3.47.532-1.5H6.64zm0 0"/></symbol><symbol overflow="visible" id="6340789bbs"><path d="M4.063-17.14H1.578v10.906c0 4.906 1.64 6.609 4.656 6.609 3.563 0 5.235-2.703 5.235-8.406 0-3.813-.563-7.094-1.39-9.516l-2.267.688c.907 3.156 1.172 5.515 1.172 8.828 0 4.344-.765 6.234-2.75 6.234-1.484 0-2.171-.906-2.171-4.437zm.75-2.047h1.953l1.671-3.47.516-1.5H6.328zm0 0"/></symbol><symbol overflow="visible" id="6340789bbt"><path d="M3.875-11.25c0-2.64.625-3.813 2.766-3.813.984 0 1.921.094 3.03.282l.345-2.11a12.935 12.935 0 0 0-3.657-.53c-3.453 0-4.968 1.827-4.968 5.671V-7c0 6.875 6.296 6.313 6.296 9.234 0 .922-.656 1.172-2.109 1.204v1.984l.844.094c2.5 0 3.656-1.172 3.656-3.22 0-5.327-6.203-3.75-6.203-9.858zm0 0"/></symbol><symbol overflow="visible" id="6340789bbu"><path d="M8.125-17.547c-2.047 0-3.281 1.297-4 2.235l-.344-2.016-2.172.187.344 4.157V0H4.47v-12.984c.672-1.032 1.953-2.266 3.25-2.266 1.328 0 1.734.797 1.734 3.094V5.39h2.516v-17.547c0-3.625-1-5.39-3.844-5.39zm0 0"/></symbol><symbol overflow="visible" id="6340789bbv"><path d="M8.86 5.39h2.64L8.734-4.983l2.547-12.157H8.656L6.578-6.203H5.422L3.375-17.141H.75L3.281-4.984.5 5.39h2.625l2.328-9.235h1.125zm0 0"/></symbol><symbol overflow="visible" id="6340789bbw"><path d="M14.563-17.484l-2.22.937c1.766 3.063 2.907 6.531 2.907 10.656 0 2.766-.563 4.094-2.14 4.094-1.485 0-2.36-1.64-2.36-5.922v-3.843H8.375v3.843c0 4.282-.875 5.922-2.36 5.922-1.609 0-2.14-1.328-2.14-4.094 0-4.125 1.14-7.593 2.906-10.656l-2.218-.937C3.093-15 1.39-10.97 1.39-6.016 1.39-1.39 2.937.375 5.766.375c2.015 0 3.28-1.313 3.78-3.016C10.079-.906 11.345.375 13.36.375c2.829 0 4.375-1.766 4.375-6.39 0-4.954-1.703-8.985-3.172-11.47zm0 0"/></symbol><symbol overflow="visible" id="6340789bbx"><path d="M2.016-17.14V5.39H4.5V2.423c0-.75-.063-1.547-.125-2.297.344.156.766.25 1.36.25C7.5.375 8.655-.5 9.608-1.735c.282 1.266.97 1.891 2.829 1.891l1.265-.093v-2.079h-.687c-1.11 0-1.36-.53-1.36-1.921v-13.204H9.172v12.922C8.625-3.28 7.719-1.89 6.203-1.89 5.016-1.89 4.5-2.734 4.5-3.969V-17.14zm0 0"/></symbol><symbol overflow="visible" id="6340789bby"><path d="M11.281 0l-2.39-17.14c-.735-5.36-1.86-7.157-5.735-7.157l-1.265.063v2.125c3.5 0 3.968.812 4.718 4.968H4.22L.625 0h2.5l1.922-9.703.937-5.266h.922L8.734 0zm0 0"/></symbol><symbol overflow="visible" id="6340789bbz"><path d="M1.016-6.875c0 6.75 7.109 6.5 7.109 9.11 0 .921-.688 1.171-2.14 1.203v1.984l.859.094c2.484 0 3.672-1.204 3.672-3.282 0-4.78-6.891-3.843-6.891-9.39 0-2.266 1.484-5.438 3.25-8.157l4.219-6.546-.156-2.375H1.546v2.375h6.64l.032.156-3.813 5.797c-1.797 2.734-3.39 5.953-3.39 9.031zm0 0"/></symbol><symbol overflow="visible" id="6340789bbA"><path d="M14.563-17.484l-2.22.937c1.766 3.063 2.907 6.531 2.907 10.656 0 2.766-.563 4.094-2.14 4.094-1.485 0-2.36-1.64-2.36-5.922v-3.843H8.375v3.843c0 4.282-.875 5.922-2.36 5.922-1.609 0-2.14-1.328-2.14-4.094 0-4.125 1.14-7.593 2.906-10.656l-2.218-.937C3.093-15 1.39-10.97 1.39-6.016 1.39-1.39 2.937.375 5.766.375c2.015 0 3.28-1.313 3.78-3.016C10.079-.906 11.345.375 13.36.375c2.829 0 4.375-1.766 4.375-6.39 0-4.954-1.703-8.985-3.172-11.47zm-6.157-1.703h1.953l1.672-3.47.531-1.5h-2.64zm0 0"/></symbol><symbol overflow="visible" id="6340789bbB"><path d="M1.703-6.938C1.703-1.546 3 .438 6.813.438c3.765 0 5.093-1.984 5.093-7.375v-10.265c0-5.172-1.328-7.469-5.094-7.469-3.812 0-5.109 2.297-5.109 7.469zm2.422-10.265c0-4 .688-5.266 2.656-5.266 2.016 0 2.672 1.266 2.672 5.266v4.594H4.125zm0 10.265v-3.578h5.328v3.579c0 4-.656 5.171-2.672 5.171-1.968 0-2.656-1.171-2.656-5.171zm0 0"/></symbol><symbol overflow="visible" id="6340789bbC"><path d="M2.938.188c1 0 1.624-.563 1.624-1.735 0-1.187-.625-1.734-1.625-1.734-.984 0-1.609.547-1.609 1.734 0 1.172.625 1.734 1.61 1.734zm0 0"/></symbol><symbol overflow="visible" id="6340789bbD"><path d="M6.703-39.25L-.203 0h17.797l1.312-7.297H9.203l1.39-8.203h7.86l1.203-6.656h-7.86l1.704-9.75h9.703L24.5-39.25zm-12.656 9.844H-.25c1.953-2.938 4-6.39 5.297-9.844H-2.75c-.844 2.797-1.953 6.406-3.203 9.844zm0 0"/></symbol><symbol overflow="visible" id="6340789bbE"><path d="M15.25-27.094h6.5c.406-1.61 1.047-4 1.047-6.156 0-4.297-2.64-6.75-7.953-6.75-6.797 0-9.25 3.094-10.344 9l-.594 3.344c-.75 4.203.688 7.156 3.438 8.812C3.204-17.406.547-14.454.547-9.75c0 8.094 9.297 8.5 9.297 11.844 0 1.11-.938 1.406-2.094 1.406-.406 0-.906-.094-1.344-.203l-.86 5.5c1 .297 2.407.61 3.954.61 4.75 0 7.703-2.657 7.703-7.407 0-7.844-8.547-7.703-8.547-13.047 0-3.25 2.047-4.297 5.844-4.297h2.953l1.14-6.312h-1.75c-3.5 0-6.046-.844-5.343-4.938l.703-3.906c.344-2.156.594-3.453 2.297-3.453.75 0 1.406.203 1.75.5 0 .75-.156 1.703-.406 2.953zm0 0"/></symbol><symbol overflow="visible" id="6340789bbF"><path d="M12.094-27.75H4.5L1.406-9.953C.156-2.953 3.5.75 9.156.75 18.75.75 21.953-9.094 22-21.906c0-1.844-.25-4.25-.594-6.297l-6.86 1.156c.048 1.39.11 2.75.11 4.64 0 7-1.562 17.11-4.86 17.11-.452 0-.89-.11-1.202-.297-.188-.656 0-2.11.203-3.453zm0 0"/></symbol><symbol overflow="visible" id="6340789bbG"><path d="M2.953-27.75L1.75-20.906h3.453L1.5 0h7.094l3.703-20.906h3.25L13-7.296C12-2 13.547.453 17.656.453c1.938 0 3.75-.298 4.688-.5l1.062-5.798h-1.703c-.61 0-1.156 0-1.656-.11.11-.546.156-1.25.297-1.89l2.406-13.062h3.656l1.188-6.844zm0 0"/></symbol><symbol overflow="visible" id="6340789bbH"><path d="M14.594-27.75c-.64 4.797-2.047 11.406-3.547 16.047L9.344-6.047c-.344.094-1.094.203-1.297.203.047-.5.156-1.156.203-1.75l.453-4.5 1.39-15.656h-7.75l-.64 21.203c-.156 5.344 1.797 7 6.203 7 1.344 0 4.14-.36 5.094-.547l2.25-4.86c2.75-5.952 6-15.093 7-22.796zm0 0"/></symbol><symbol overflow="visible" id="6340789bbI"><path d="M.75-9.656C-.406-3.046 1.906.75 8.797.75c6.86 0 9.75-3.797 10.86-10.406l1.437-8.438c1.156-6.61-1.14-10.406-8.047-10.406-6.844 0-9.75 3.797-10.844 10.406zm7.5.25L9.797-18.5c.453-2.547.86-3.953 2.656-3.953.703 0 1.344.156 1.703.453-.11 1.094-.312 2.406-.562 3.797L12.047-9.25c-.453 2.547-.844 4-2.64 4-.75 0-1.25-.203-1.75-.453C7.75-6.75 7.952-8 8.25-9.406zm0 0"/></symbol><symbol overflow="visible" id="6340789bbK"><path d="M2.703-27.75L1.5-20.906h5.344L4.297-7.296C3.297-2 4.844.453 9 .453c1.906 0 4.203-.298 5.156-.5l1.047-5.798H13c-.594 0-1.156 0-1.656-.11.11-.546.203-1.25.312-1.89l2.39-13.062h5.298l1.203-6.844zm0 0"/></symbol><symbol overflow="visible" id="6340789bbL"><path d="M12.094-27.75H4.5L1.406-9.953C.156-2.953 3.5.75 9.156.75 18.75.75 21.953-9.094 22-21.906c0-1.844-.25-4.25-.594-6.297l-6.86 1.156c.048 1.39.11 2.75.11 4.64 0 7-1.562 17.11-4.86 17.11-.452 0-.89-.11-1.202-.297-.188-.656 0-2.11.203-3.453zM10.047-31h4.5c2.547-2.297 5.656-6.25 6.36-8.797H13.75A66.39 66.39 0 0 1 10.047-31zm0 0"/></symbol><symbol overflow="visible" id="6340789bbM"><path d="M9.344-5.203c-.688 0-1.188-.14-1.688-.453.094-1 .344-2.25.594-3.797l1.297-7.703c.797-4.5 1.61-5 4-5h.156c.203 1.61.047 3.25-.406 6l-1.203 6.75c-.5 2.75-.797 4.203-2.75 4.203zm5-22.547c-6.938 0-10.938 2.656-12.297 10.406l-1.25 7.297C-.343-3.453 1.907.75 8.844.75c6.812 0 9.406-4.203 10.406-10.297l.656-3.953c.438-2.703.188-5.5-.5-7.75 1 .203 1.89.344 2.547.344h1.25l1.203-6.844zm0 0"/></symbol><symbol overflow="visible" id="6340789bbN"><path d="M4.453-27.75L.797-7.297C-.156-2 1.344.453 5.5.453c1.906 0 4.094-.297 5.047-.5l1.047-5.797H9.906c-.61 0-1.203 0-1.656-.11.047-.546.156-1.25.25-1.89l3.547-19.906zm0 0"/></symbol><symbol overflow="visible" id="6340789bbO"><path d="M5-27.75L-1.5 8.953H6l.656-4.156c.188-1.14.344-2.75.5-4.14 2.25 0 4.297-1.907 6-4.204.047.797.188 1.453.547 2.047.64 1.25 2 1.953 4.094 1.953 1.25 0 3.11-.25 3.953-.5l1.047-5.797h-1.25c-.547 0-1.14 0-1.547-.11.047-.5.203-1.343.344-2.14l3.453-19.656h-7.64L12.952-9.5C12.047-8.406 10.156-6.453 9-6.453c0-.453.094-1.453.25-2.344l3.344-18.953zm0 0"/></symbol><symbol overflow="visible" id="6340789bbP"><path d="M-1.5 5.25h5.844l3.86-8.047.593-4.11h-7zm0 0"/></symbol><symbol overflow="visible" id="6340789bbQ"><path d="M.656-9.453C-.5-3 1.344.453 5.703.453c3.297 0 5.75-3.25 7.297-6.75-.203.797-.344 1.703-.344 2.297 0 2.953 1.188 4.453 4.64 4.453 1.36 0 2.75-.297 3.75-.5l1-5.797h-1.202c-.5 0-1 0-1.344-.11 0-.452.047-1 .156-1.64l1-7.062c.688-2.5 3.047-8.89 3.438-12.89L16.297-28c-.094 1.047-.39 2.656-.703 4.094-.75-1.89-2.344-4.39-5.39-4.39-4.704 0-6.954 4.14-8.298 11.64zm7.797-.703l1.14-6.797c.5-2.844.86-4.89 2.313-4.89 1.188 0 2.297 1.437 2.64 2.14L13.345-15c-1.39 5.344-3.938 9.094-5.39 9.094-.048-.438.25-2.89.5-4.25zm0 0"/></symbol><symbol overflow="visible" id="6340789bbR"><path d="M.75-9.656C-.406-3.046 1.906.75 8.797.75c6.86 0 9.75-3.797 10.86-10.406l1.437-8.438c1.156-6.61-1.14-10.406-8.047-10.406-6.844 0-9.75 3.797-10.844 10.406zm7.5.25L9.797-18.5c.453-2.547.86-3.953 2.656-3.953.703 0 1.344.156 1.703.453-.11 1.094-.312 2.406-.562 3.797L12.047-9.25c-.453 2.547-.844 4-2.64 4-.75 0-1.25-.203-1.75-.453C7.75-6.75 7.952-8 8.25-9.406zM10.156-31h4.5c2.547-2.297 5.64-6.25 6.344-8.797h-7.156c-.89 2.703-2.14 5.75-3.688 8.797zm0 0"/></symbol><symbol overflow="visible" id="6340789bbS"><path d="M4.5-27.75L-.406 0h7.562l1.688-9.703 1.562-.203 1 5.156C12.094-.906 13.344.453 16.75.453c1.406 0 2.797-.297 3.797-.5l1-5.797h-.953c-.594 0-1.14-.062-1.594-.062-.25-.5-.453-1.094-.656-1.75l-1.188-4.64L24.75-27.75h-7.797L11.5-16l-1.547.25 2.094-12zm0 0"/></symbol><symbol overflow="visible" id="6340789bbT"><path d="M11.797-27.75H4.5L1.906-13.047C.703-6.203 3.094-1.094 9.796.343L8.25 8.954h7.453l1.5-8.406c9.39-1.297 13.89-8.453 14-22.203 0-2.438-.297-4.938-.61-6.594L23.844-27c.157 1.656.25 2.953.25 4.594C24-12.453 22.298-7.453 18.157-5.844l4.688-26.906h-7.047L11-5.703a4.414 4.414 0 0 1-1.703-.75c-.5-1.25-.703-3.14-.203-6.094zm0 0"/></symbol><symbol overflow="visible" id="6340789bbU"><path d="M13.406-16.906h6.547c.297-1.5.75-3.75.75-5.344 0-3.75-2.453-6.25-7.953-6.25-5.703 0-8.703 2.5-9.5 7.297l-.297 1.953c-.5 3.094.39 5.25 2.25 6.656-2.5.938-4.203 2.5-4.656 4.89l-.094.657c-1 5.547 2.797 7.5 9.453 7.5 2.14 0 5.89-.297 7.547-.656l1.047-5.64h-6.156C9.5-5.844 7.906-6 8.156-7.657L8.203-8c.25-1.344 1.75-1.344 4.094-1.344h2.047l.86-5.203H13.25c-2.547 0-3.547-.797-3.156-3.25l.406-2.547c.25-1.61.906-2.203 2.047-2.203.75 0 1.25.14 1.61.453.046.547-.063 1.297-.204 2.25zM9.703-31h4.5c2.547-2.297 5.64-6.25 6.344-8.797h-7.14A66.39 66.39 0 0 1 9.702-31zm0 0"/></symbol><symbol overflow="visible" id="6340789bbV"><path d="M9.656 8.953h7.64L16.5-8.594c2.594-4.75 5.844-12.61 6.344-19.156H15.25c-.453 5.047-2.203 11.594-3.906 15.75l-1.5.5.656-16.25H2.797l.86 19.25C1.046-3.844-2.548 2.156-3.094 8.953H4.5C5.094 4.843 7.156-1.407 8.844-5l1.406-.5zm0 0"/></symbol><symbol overflow="visible" id="6340789bbW"><path d="M13.547-28.5c-6.703 0-9.453 3.953-10.797 11.656l-4.5 25.797h7.594l.812-4.406c.188-1.39.5-3.297.594-4.297.656.25 2.656.5 3.5.5 6 0 8.656-4.25 9.797-10.953l1.11-6.453c1.14-6.844-.704-11.844-8.11-11.844zM13-10.203c-.594 3.5-1.094 4.906-2.906 4.906-.75 0-1.188-.11-1.797-.25l2.25-12.25c.61-3.36.953-4.61 3-4.61.5 0 .953.11 1.36.25 0 .907-.25 2.75-.454 4.11zm0 0"/></symbol><symbol overflow="visible" id="6340789bbX"><path d="M9.844-21.656c.062-.5.203-1.797.406-3.14l.844-4.907c.5-3.39 1.062-4.25 2.703-4.25.75 0 1.453.203 1.703.453 0 1.047-.25 3.344-.797 6.203l-1.156 6.594c-1.453 0-3.047-.203-3.703-.953zM14.156-40c-6.562 0-9 4.047-10 9.594l-.812 4.75c-1.14 6.562 2.062 10.453 8.453 10.453h.797L12-11.906c-.953 5.453-1.203 6.656-3.25 6.656-.5 0-1.203-.203-1.594-.5 0-.203.047-.703.094-1 .047-1.297.594-3.844 1-6.406H1.594C1.094-11.296.5-8.094.5-6.203.5-1.25 3.297.75 8.547.75c7.203 0 9.047-4.156 10.547-12.656l2.656-15.14c1.406-8-.25-12.954-7.594-12.954zm0 0"/></symbol><symbol overflow="visible" id="6340789bbY"><path d="M14.656-18.5l-5 27.453h7.594l5.344-29.5c.86-4.656.11-7.75-4.344-7.75-3.656 0-6.25 2.75-7.594 4L10.094-28l-6.5.453-.297 7.89L-.156 0h7.61l3.25-18.75c1.093-.953 3.14-2.406 4.296-2.406 0 .656-.156 1.562-.344 2.656zm0 0"/></symbol><symbol overflow="visible" id="6340789bbZ"><path d="M13.406-16.906h6.547c.297-1.5.75-3.75.75-5.344 0-3.75-2.453-6.25-7.953-6.25-5.703 0-8.703 2.5-9.5 7.297l-.297 1.953c-.5 3.094.39 5.25 2.25 6.656-2.5.938-4.203 2.5-4.656 4.89l-.094.657c-1 5.547 2.797 7.5 9.453 7.5 2.14 0 5.89-.297 7.547-.656l1.047-5.64h-6.156C9.5-5.844 7.906-6 8.156-7.657L8.203-8c.25-1.344 1.75-1.344 4.094-1.344h2.047l.86-5.203H13.25c-2.547 0-3.547-.797-3.156-3.25l.406-2.547c.25-1.61.906-2.203 2.047-2.203.75 0 1.25.14 1.61.453.046.547-.063 1.297-.204 2.25zm0 0"/></symbol><symbol overflow="visible" id="6340789bca"><path d="M3 .453c2.547 0 4.547-1.703 4.953-4.61.453-2.687-1.047-4.14-3.406-4.14-2.5 0-4.547 1.64-4.953 4.5C-.796-1.047.704.453 3 .453zm0 0"/></symbol></defs><use xlink:href="#6340789ba" x="41.1625" y="1508.1931"/><use xlink:href="#6340789bb" x="99.9265" y="1508.1931"/><use xlink:href="#6340789bc" x="149.8405" y="1508.1931"/><use xlink:href="#6340789bd" x="195.8605" y="1508.1931"/><use xlink:href="#6340789be" x="250.3765" y="1508.1931"/><use xlink:href="#6340789bf" x="303.2405" y="1508.1931"/><use xlink:href="#6340789bg" x="320.9405" y="1508.1931"/><use xlink:href="#6340789bh" x="382.3005" y="1508.1931"/><use xlink:href="#6340789bd" x="439.6485" y="1508.1931"/><use xlink:href="#6340789bc" x="494.1645" y="1508.1931"/><use xlink:href="#6340789bi" x="540.1845" y="1508.1931"/><use xlink:href="#6340789bf" x="595.4085" y="1508.1931"/><use xlink:href="#6340789bj" x="613.1085" y="1508.1931"/><use xlink:href="#6340789bc" x="679.1885" y="1508.1931"/><use xlink:href="#6340789bk" x="725.2085" y="1508.1931"/><use xlink:href="#6340789bl" x="757.0685" y="1508.1931"/><use xlink:href="#6340789bm" x="811.1125" y="1508.1931"/><use xlink:href="#6340789bn" x="867.5165" y="1508.1931"/><use xlink:href="#6340789bo" x="920.3805" y="1508.1931"/><use xlink:href="#6340789bp" x="31.4469" y="1067.8104"/><use xlink:href="#6340789bq" x="122.9051" y="1075.8104"/><use xlink:href="#6340789br" x="144.7851" y="1075.8104"/><use xlink:href="#6340789bs" x="188.2169" y="1075.8104"/><use xlink:href="#6340789bt" x="226.0693" y="1075.8104"/><use xlink:href="#6340789bu" x="249.3715" y="1075.8104"/><use xlink:href="#6340789bs" x="295.9759" y="1075.8104"/><use xlink:href="#6340789bv" x="333.8283" y="1075.8104"/><use xlink:href="#6340789bt" x="376.9319" y="1075.8104"/><use xlink:href="#6340789bw" x="400.2341" y="1075.8104"/><use xlink:href="#6340789bx" x="437.9771" y="1075.8104"/><use xlink:href="#6340789by" x="475.8295" y="1075.8104"/><use xlink:href="#6340789bq" x="512.6973" y="1075.8104"/><use xlink:href="#6340789bz" x="534.5773" y="1075.8104"/><use xlink:href="#6340789bt" x="578.6655" y="1075.8104"/><use xlink:href="#6340789bA" x="601.9677" y="1075.8104"/><use xlink:href="#6340789bB" x="646.1653" y="1075.8104"/><use xlink:href="#6340789bC" x="687.2997" y="1075.8104"/><use xlink:href="#6340789bD" x="730.4033" y="1075.8104"/><use xlink:href="#6340789bx" x="780.5085" y="1075.8104"/><use xlink:href="#6340789by" x="818.3609" y="1075.8104"/><use xlink:href="#6340789bq" x="855.2287" y="1075.8104"/><g><use xlink:href="#6340789bp" x="877.095" y="1067.8104"/></g><g><use xlink:href="#6340789bE" x="37.8151" y="209.2471"/><use xlink:href="#6340789bF" x="84.8791" y="209.2471"/><use xlink:href="#6340789bF" x="157.6951" y="209.2471"/><use xlink:href="#6340789bG" x="230.5111" y="209.2471"/><use xlink:href="#6340789bH" x="325.3791" y="209.2471"/><use xlink:href="#6340789bI" x="353.4991" y="209.2471"/><use xlink:href="#6340789bJ" x="426.1671" y="209.2471"/><use xlink:href="#6340789bK" x="491.5831" y="209.2471"/><use xlink:href="#6340789bL" x="566.4711" y="209.2471"/><use xlink:href="#6340789bM" x="634.2551" y="209.2471"/><use xlink:href="#6340789bN" x="718.4671" y="209.2471"/><use xlink:href="#6340789bO" x="777.3711" y="209.2471"/><use xlink:href="#6340789bP" x="820.4391" y="209.2471"/><use xlink:href="#6340789bQ" x="894.1431" y="209.2471"/></g><g><use xlink:href="#6340789bR" x="34.1562" y="695.9423"/><use xlink:href="#6340789bS" x="219.3362" y="695.9423"/></g><g><use xlink:href="#6340789bT" x="343.1812" y="695.9423"/><use xlink:href="#6340789bU" x="463.0312" y="695.9423"/><use xlink:href="#6340789bV" x="528.1262" y="695.9423"/><use xlink:href="#6340789bW" x="637.6362" y="695.9423"/></g><g><use xlink:href="#6340789bX" x="739.1562" y="695.9423"/></g><g><use xlink:href="#6340789bY" x="852.6612" y="695.9423"/></g><g><use xlink:href="#6340789bZ" x="35.244" y="364.114"/><use xlink:href="#6340789baa" x="67.107" y="364.114"/><use xlink:href="#6340789bab" x="89.793" y="364.114"/><use xlink:href="#6340789bac" x="109.401" y="364.114"/><use xlink:href="#6340789bad" x="131.517" y="364.114"/><use xlink:href="#6340789bae" x="153.69" y="364.114"/><use xlink:href="#6340789bac" x="175.407" y="364.114"/><use xlink:href="#6340789baf" x="197.523" y="364.114"/><use xlink:href="#6340789bag" x="214.737" y="364.114"/><use xlink:href="#6340789bah" x="237.708" y="364.114"/><use xlink:href="#6340789bah" x="261.819" y="364.114"/><use xlink:href="#6340789bai" x="285.93" y="364.114"/></g><g><use xlink:href="#6340789baj" x="304.9623" y="364.114"/><use xlink:href="#6340789bae" x="325.5393" y="364.114"/><use xlink:href="#6340789bak" x="347.2563" y="364.114"/><use xlink:href="#6340789bal" x="358.2003" y="364.114"/><use xlink:href="#6340789bae" x="384.5343" y="364.114"/><use xlink:href="#6340789baa" x="406.2513" y="364.114"/><use xlink:href="#6340789baf" x="428.9373" y="364.114"/><use xlink:href="#6340789bae" x="446.1513" y="364.114"/><use xlink:href="#6340789bad" x="467.8683" y="364.114"/><use xlink:href="#6340789bam" x="490.0413" y="364.114"/><use xlink:href="#6340789ban" x="513.2403" y="364.114"/><use xlink:href="#6340789bao" x="533.1903" y="364.114"/><use xlink:href="#6340789bak" x="545.7873" y="364.114"/><use xlink:href="#6340789bad" x="556.7313" y="364.114"/><use xlink:href="#6340789bap" x="578.9043" y="364.114"/><use xlink:href="#6340789bao" x="602.1033" y="364.114"/><use xlink:href="#6340789bak" x="614.7003" y="364.114"/><use xlink:href="#6340789ban" x="625.6443" y="364.114"/><use xlink:href="#6340789bab" x="645.5943" y="364.114"/><use xlink:href="#6340789bah" x="665.2023" y="364.114"/><use xlink:href="#6340789bae" x="689.3133" y="364.114"/><use xlink:href="#6340789baj" x="711.0303" y="364.114"/><use xlink:href="#6340789bam" x="731.6073" y="364.114"/><use xlink:href="#6340789baq" x="754.8063" y="364.114"/><use xlink:href="#6340789bap" x="777.4353" y="364.114"/><use xlink:href="#6340789bak" x="800.6343" y="364.114"/><use xlink:href="#6340789bah" x="811.5783" y="364.114"/><use xlink:href="#6340789bai" x="835.6893" y="364.114"/></g><g><use xlink:href="#6340789baj" x="854.7273" y="364.114"/><use xlink:href="#6340789baf" x="875.3043" y="364.114"/><use xlink:href="#6340789bap" x="892.5183" y="364.114"/><use xlink:href="#6340789bak" x="915.7173" y="364.114"/><use xlink:href="#6340789bar" x="926.6613" y="364.114"/></g><g><use xlink:href="#6340789bas" x="39.6435" y="1984.1744"/><use xlink:href="#6340789bat" x="77.9585" y="1984.1744"/><use xlink:href="#6340789bau" x="114.4565" y="1984.1744"/><use xlink:href="#6340789bav" x="143.2915" y="1984.1744"/><use xlink:href="#6340789baw" x="174.9705" y="1984.1744"/><use xlink:href="#6340789bax" x="206.4125" y="1984.1744"/><use xlink:href="#6340789bay" x="223.0815" y="1984.1744"/><use xlink:href="#6340789baz" x="235.7215" y="1984.1744"/><use xlink:href="#6340789baA" x="269.8495" y="1984.1744"/><use xlink:href="#6340789baB" x="290.3105" y="1984.1744"/><use xlink:href="#6340789baC" x="322.3055" y="1984.1744"/><use xlink:href="#6340789baD" x="357.5395" y="1984.1744"/><use xlink:href="#6340789baA" x="390.8775" y="1984.1744"/><use xlink:href="#6340789baE" x="411.3385" y="1984.1744"/><use xlink:href="#6340789bay" x="447.8365" y="1984.1744"/><use xlink:href="#6340789baF" x="460.4765" y="1984.1744"/><use xlink:href="#6340789baE" x="496.1845" y="1984.1744"/><use xlink:href="#6340789baA" x="532.6825" y="1984.1744"/><use xlink:href="#6340789bay" x="553.1435" y="1984.1744"/><use xlink:href="#6340789baB" x="565.7835" y="1984.1744"/></g><g><use xlink:href="#6340789bau" x="598.5685" y="1984.1744"/><use xlink:href="#6340789baA" x="627.4035" y="1984.1744"/><use xlink:href="#6340789baG" x="647.8645" y="1984.1744"/><use xlink:href="#6340789baF" x="682.3085" y="1984.1744"/><use xlink:href="#6340789baH" x="718.0165" y="1984.1744"/><use xlink:href="#6340789baI" x="751.5915" y="1984.1744"/><use xlink:href="#6340789baJ" x="789.4325" y="1984.1744"/><use xlink:href="#6340789bat" x="829.5645" y="1984.1744"/><use xlink:href="#6340789baD" x="866.0625" y="1984.1744"/><use xlink:href="#6340789bav" x="899.4005" y="1984.1744"/><use xlink:href="#6340789baw" x="931.0795" y="1984.1744"/></g><g><use xlink:href="#6340789baK" x="34.8943" y="1791.5315"/><use xlink:href="#6340789baL" x="106.0923" y="1791.5315"/><use xlink:href="#6340789baM" x="162.9343" y="1791.5315"/><use xlink:href="#6340789baN" x="241.3103" y="1791.5315"/><use xlink:href="#6340789baO" x="317.7463" y="1791.5315"/><use xlink:href="#6340789baP" x="396.8983" y="1791.5315"/><use xlink:href="#6340789baQ" x="469.8423" y="1791.5315"/><use xlink:href="#6340789baR" x="548.2183" y="1791.5315"/></g><g><use xlink:href="#6340789baS" x="583.1383" y="1791.5315"/></g><g><use xlink:href="#6340789baR" x="647.5463" y="1791.5315"/></g><g><use xlink:href="#6340789baT" x="690.2069" y="1791.5315"/><use xlink:href="#6340789baU" x="767.2249" y="1791.5315"/><use xlink:href="#6340789baL" x="845.6009" y="1791.5315"/></g><g><use xlink:href="#6340789baV" x="898.5629" y="1791.5315"/></g><g><use xlink:href="#6340789baW" x="55.9175" y="1228.7262"/></g><g><use xlink:href="#6340789baX" x="66.4575" y="1228.7262"/><use xlink:href="#6340789baY" x="79.7565" y="1228.7262"/><use xlink:href="#6340789baZ" x="85.8635" y="1228.7262"/><use xlink:href="#6340789bba" x="98.6665" y="1228.7262"/><use xlink:href="#6340789bbb" x="112.3685" y="1228.7262"/><use xlink:href="#6340789baZ" x="126.7835" y="1228.7262"/><use xlink:href="#6340789baX" x="139.5865" y="1228.7262"/><use xlink:href="#6340789bba" x="152.8855" y="1228.7262"/><use xlink:href="#6340789baX" x="166.5875" y="1228.7262"/><use xlink:href="#6340789bbc" x="179.8865" y="1228.7262"/><use xlink:href="#6340789baY" x="185.8075" y="1228.7262"/><use xlink:href="#6340789bbd" x="191.9145" y="1228.7262"/><use xlink:href="#6340789bbe" x="205.2135" y="1228.7262"/><use xlink:href="#6340789bbf" x="220.8995" y="1228.7262"/><use xlink:href="#6340789bbg" x="232.0905" y="1228.7262"/><use xlink:href="#6340789bbh" x="240.1815" y="1228.7262"/><use xlink:href="#6340789bbi" x="253.2015" y="1228.7262"/><use xlink:href="#6340789baY" x="267.2445" y="1228.7262"/><use xlink:href="#6340789bbj" x="273.3515" y="1228.7262"/><use xlink:href="#6340789bbk" x="285.3485" y="1228.7262"/><use xlink:href="#6340789bbl" x="297.8415" y="1228.7262"/><use xlink:href="#6340789bbg" x="311.5125" y="1228.7262"/><use xlink:href="#6340789bbm" x="319.6035" y="1228.7262"/><use xlink:href="#6340789bbn" x="333.6465" y="1228.7262"/><use xlink:href="#6340789bbo" x="351.7505" y="1228.7262"/><use xlink:href="#6340789bba" x="363.7475" y="1228.7262"/><use xlink:href="#6340789baX" x="377.4495" y="1228.7262"/><use xlink:href="#6340789bbk" x="390.7485" y="1228.7262"/><use xlink:href="#6340789baY" x="403.2415" y="1228.7262"/><use xlink:href="#6340789bbh" x="409.3485" y="1228.7262"/><use xlink:href="#6340789bbm" x="422.3685" y="1228.7262"/><use xlink:href="#6340789bbg" x="436.4115" y="1228.7262"/><use xlink:href="#6340789baY" x="444.5025" y="1228.7262"/><use xlink:href="#6340789bbg" x="450.6095" y="1228.7262"/><use xlink:href="#6340789bbl" x="458.7005" y="1228.7262"/><use xlink:href="#6340789bbg" x="472.3715" y="1228.7262"/><use xlink:href="#6340789bbm" x="480.4625" y="1228.7262"/><use xlink:href="#6340789bbp" x="494.5055" y="1228.7262"/></g><g><use xlink:href="#6340789bbf" x="502.0385" y="1228.7262"/><use xlink:href="#6340789bbj" x="513.2295" y="1228.7262"/><use xlink:href="#6340789bba" x="525.2265" y="1228.7262"/><use xlink:href="#6340789bbm" x="538.9285" y="1228.7262"/><use xlink:href="#6340789baY" x="552.9715" y="1228.7262"/><use xlink:href="#6340789bbl" x="559.0785" y="1228.7262"/><use xlink:href="#6340789bbg" x="572.7495" y="1228.7262"/><use xlink:href="#6340789bbm" x="580.8405" y="1228.7262"/><use xlink:href="#6340789bbq" x="594.8835" y="1228.7262"/><use xlink:href="#6340789bbh" x="608.9575" y="1228.7262"/><use xlink:href="#6340789bbj" x="621.9775" y="1228.7262"/><use xlink:href="#6340789bbl" x="633.9745" y="1228.7262"/><use xlink:href="#6340789bbm" x="647.6455" y="1228.7262"/><use xlink:href="#6340789bbq" x="661.6885" y="1228.7262"/><use xlink:href="#6340789bbf" x="675.7625" y="1228.7262"/><use xlink:href="#6340789bbg" x="686.9535" y="1228.7262"/><use xlink:href="#6340789bbh" x="695.0445" y="1228.7262"/><use xlink:href="#6340789bbr" x="708.0645" y="1228.7262"/><use xlink:href="#6340789baY" x="721.3635" y="1228.7262"/><use xlink:href="#6340789bbs" x="727.4705" y="1228.7262"/><use xlink:href="#6340789bbn" x="740.9555" y="1228.7262"/><use xlink:href="#6340789baX" x="759.0595" y="1228.7262"/><use xlink:href="#6340789bbt" x="772.3585" y="1228.7262"/><use xlink:href="#6340789baY" x="783.8905" y="1228.7262"/><use xlink:href="#6340789bbf" x="789.9975" y="1228.7262"/><use xlink:href="#6340789bbu" x="801.1885" y="1228.7262"/><use xlink:href="#6340789bbt" x="815.6035" y="1228.7262"/><use xlink:href="#6340789baY" x="827.1355" y="1228.7262"/><use xlink:href="#6340789bbo" x="833.2425" y="1228.7262"/><use xlink:href="#6340789baZ" x="845.2395" y="1228.7262"/><use xlink:href="#6340789bbv" x="858.0425" y="1228.7262"/><use xlink:href="#6340789bba" x="870.6595" y="1228.7262"/><use xlink:href="#6340789bbw" x="884.3615" y="1228.7262"/><use xlink:href="#6340789bbx" x="904.1085" y="1228.7262"/><use xlink:href="#6340789bbu" x="918.7715" y="1228.7262"/><use xlink:href="#6340789bbt" x="933.1865" y="1228.7262"/></g><g><use xlink:href="#6340789baY" x="944.0985" y="1228.7262"/></g><g><use xlink:href="#6340789baY" x="950.8092" y="1228.7262"/></g><g><use xlink:href="#6340789bbf" x="36.8533" y="1287.7262"/><use xlink:href="#6340789bbu" x="48.0443" y="1287.7262"/><use xlink:href="#6340789bby" x="62.4593" y="1287.7262"/><use xlink:href="#6340789bbj" x="75.2933" y="1287.7262"/><use xlink:href="#6340789bbr" x="87.2903" y="1287.7262"/><use xlink:href="#6340789bba" x="100.5893" y="1287.7262"/><use xlink:href="#6340789bbm" x="114.2913" y="1287.7262"/><use xlink:href="#6340789bbq" x="128.3343" y="1287.7262"/><use xlink:href="#6340789bbu" x="142.4083" y="1287.7262"/><use xlink:href="#6340789bbt" x="156.8233" y="1287.7262"/><use xlink:href="#6340789baY" x="168.3553" y="1287.7262"/><use xlink:href="#6340789bbh" x="174.4623" y="1287.7262"/><use xlink:href="#6340789bbj" x="187.4823" y="1287.7262"/><use xlink:href="#6340789bba" x="199.4793" y="1287.7262"/><use xlink:href="#6340789bbl" x="213.1813" y="1287.7262"/><use xlink:href="#6340789bbp" x="226.8523" y="1287.7262"/><use xlink:href="#6340789bbz" x="234.9433" y="1287.7262"/></g><g><use xlink:href="#6340789bbj" x="245.6383" y="1287.7262"/><use xlink:href="#6340789bbg" x="257.6353" y="1287.7262"/><use xlink:href="#6340789baY" x="265.7263" y="1287.7262"/><use xlink:href="#6340789bbf" x="271.8333" y="1287.7262"/><use xlink:href="#6340789bbu" x="283.0243" y="1287.7262"/><use xlink:href="#6340789bbk" x="297.4393" y="1287.7262"/><use xlink:href="#6340789baY" x="309.9323" y="1287.7262"/><use xlink:href="#6340789bbe" x="316.0393" y="1287.7262"/><use xlink:href="#6340789bba" x="331.7253" y="1287.7262"/><use xlink:href="#6340789baX" x="345.4273" y="1287.7262"/><use xlink:href="#6340789bbq" x="358.7263" y="1287.7262"/><use xlink:href="#6340789baX" x="372.8003" y="1287.7262"/><use xlink:href="#6340789bbv" x="386.0993" y="1287.7262"/><use xlink:href="#6340789bbb" x="398.7163" y="1287.7262"/><use xlink:href="#6340789baY" x="413.1313" y="1287.7262"/><use xlink:href="#6340789bbe" x="419.2383" y="1287.7262"/><use xlink:href="#6340789baX" x="434.9243" y="1287.7262"/></g><g><use xlink:href="#6340789bby" x="447.6653" y="1287.7262"/><use xlink:href="#6340789bby" x="460.4993" y="1287.7262"/><use xlink:href="#6340789bbA" x="473.3333" y="1287.7262"/><use xlink:href="#6340789bbk" x="493.0803" y="1287.7262"/><use xlink:href="#6340789baY" x="505.5733" y="1287.7262"/><use xlink:href="#6340789bbm" x="511.6803" y="1287.7262"/><use xlink:href="#6340789bbk" x="525.7233" y="1287.7262"/><use xlink:href="#6340789bbB" x="538.2163" y="1287.7262"/><use xlink:href="#6340789bba" x="552.4143" y="1287.7262"/><use xlink:href="#6340789bbA" x="566.1163" y="1287.7262"/><use xlink:href="#6340789bbe" x="585.8633" y="1287.7262"/><use xlink:href="#6340789bbw" x="601.5493" y="1287.7262"/><use xlink:href="#6340789bbk" x="621.2963" y="1287.7262"/><use xlink:href="#6340789bbc" x="633.7893" y="1287.7262"/><use xlink:href="#6340789baY" x="639.7103" y="1287.7262"/><use xlink:href="#6340789baZ" x="645.8173" y="1287.7262"/><use xlink:href="#6340789bbg" x="658.6203" y="1287.7262"/><use xlink:href="#6340789bbm" x="666.7113" y="1287.7262"/><use xlink:href="#6340789baY" x="680.7543" y="1287.7262"/><use xlink:href="#6340789bbm" x="686.8613" y="1287.7262"/><use xlink:href="#6340789bba" x="700.9043" y="1287.7262"/><use xlink:href="#6340789bbh" x="714.6063" y="1287.7262"/><use xlink:href="#6340789bbj" x="727.6263" y="1287.7262"/><use xlink:href="#6340789bbf" x="739.6233" y="1287.7262"/><use xlink:href="#6340789bbo" x="750.8143" y="1287.7262"/><use xlink:href="#6340789bbt" x="762.8113" y="1287.7262"/><use xlink:href="#6340789baY" x="774.3433" y="1287.7262"/><use xlink:href="#6340789bbA" x="780.4503" y="1287.7262"/><use xlink:href="#6340789bba" x="800.1973" y="1287.7262"/><use xlink:href="#6340789bbj" x="813.8993" y="1287.7262"/><use xlink:href="#6340789bbt" x="825.8963" y="1287.7262"/><use xlink:href="#6340789baY" x="837.4283" y="1287.7262"/><use xlink:href="#6340789bbh" x="843.5353" y="1287.7262"/><use xlink:href="#6340789bbi" x="856.5553" y="1287.7262"/><use xlink:href="#6340789bbB" x="870.5983" y="1287.7262"/><use xlink:href="#6340789bbj" x="884.7963" y="1287.7262"/><use xlink:href="#6340789baY" x="896.7933" y="1287.7262"/><use xlink:href="#6340789bbx" x="902.9003" y="1287.7262"/><use xlink:href="#6340789bbo" x="917.5633" y="1287.7262"/><use xlink:href="#6340789bba" x="929.5603" y="1287.7262"/><use xlink:href="#6340789bbm" x="943.2623" y="1287.7262"/><use xlink:href="#6340789bbC" x="957.3053" y="1287.7262"/></g><g><use xlink:href="#6340789bbD" x="44.0824" y="874.8639"/><use xlink:href="#6340789bbE" x="65.4824" y="874.8639"/><use xlink:href="#6340789bbF" x="85.6824" y="874.8639"/><use xlink:href="#6340789bbG" x="108.5824" y="874.8639"/><use xlink:href="#6340789bbH" x="134.5324" y="874.8639"/><use xlink:href="#6340789bbI" x="155.0824" y="874.8639"/><use xlink:href="#6340789bbJ" x="176.9324" y="874.8639"/><use xlink:href="#6340789bbH" x="184.6824" y="874.8639"/></g><g><use xlink:href="#6340789bbK" x="205.9824" y="874.8639"/><use xlink:href="#6340789bbL" x="224.8824" y="874.8639"/><use xlink:href="#6340789bbM" x="247.7824" y="874.8639"/><use xlink:href="#6340789bbN" x="270.1824" y="874.8639"/><use xlink:href="#6340789bbO" x="283.4324" y="874.8639"/><use xlink:href="#6340789bbI" x="307.8824" y="874.8639"/><use xlink:href="#6340789bbP" x="329.7324" y="874.8639"/><use xlink:href="#6340789bbJ" x="341.0824" y="874.8639"/><use xlink:href="#6340789bbQ" x="348.8324" y="874.8639"/><use xlink:href="#6340789bbG" x="372.5824" y="874.8639"/><use xlink:href="#6340789bbR" x="398.5324" y="874.8639"/><use xlink:href="#6340789bbJ" x="420.3824" y="874.8639"/><use xlink:href="#6340789bbS" x="428.1324" y="874.8639"/><use xlink:href="#6340789bbI" x="451.4324" y="874.8639"/><use xlink:href="#6340789bbO" x="473.2824" y="874.8639"/><use xlink:href="#6340789bbT" x="497.7324" y="874.8639"/><use xlink:href="#6340789bbR" x="529.7324" y="874.8639"/><use xlink:href="#6340789bbJ" x="551.5824" y="874.8639"/><use xlink:href="#6340789bbO" x="559.3324" y="874.8639"/><use xlink:href="#6340789bbU" x="583.7824" y="874.8639"/><use xlink:href="#6340789bbV" x="604.6824" y="874.8639"/><use xlink:href="#6340789bbW" x="626.4324" y="874.8639"/><use xlink:href="#6340789bbN" x="649.0824" y="874.8639"/><use xlink:href="#6340789bbJ" x="662.3324" y="874.8639"/><use xlink:href="#6340789bbS" x="670.0824" y="874.8639"/><use xlink:href="#6340789bbQ" x="693.3824" y="874.8639"/><use xlink:href="#6340789bbN" x="717.1324" y="874.8639"/><use xlink:href="#6340789bbJ" x="730.3824" y="874.8639"/><use xlink:href="#6340789bbS" x="738.1324" y="874.8639"/><use xlink:href="#6340789bbQ" x="761.4324" y="874.8639"/><use xlink:href="#6340789bbX" x="785.1824" y="874.8639"/><use xlink:href="#6340789bbY" x="806.3824" y="874.8639"/><use xlink:href="#6340789bbO" x="829.5824" y="874.8639"/><use xlink:href="#6340789bbZ" x="854.0324" y="874.8639"/><use xlink:href="#6340789bbW" x="874.9324" y="874.8639"/><use xlink:href="#6340789bbN" x="897.5824" y="874.8639"/><use xlink:href="#6340789bbH" x="910.8324" y="874.8639"/><use xlink:href="#6340789bbR" x="931.3824" y="874.8639"/><use xlink:href="#6340789bca" x="953.2324" y="874.8639"/></g><path d="M20 265.46h960M20 427.586h960M20 781.617h960M20 936.785h960M20 1145.996h960M20 1586.328h960M20 1355.617h960M20 1877.281h960" fill="none" stroke="#ddd"/></svg>