<?xml version='1.0' encoding='UTF-8'?>
<svg xmlns="http://www.w3.org/2000/svg" xmlns:xlink="http://www.w3.org/1999/xlink" width="600px" height="300px" viewBox="0 0 600 300" x="0px" y="0px" enable-background="new 0 0 600 300"><defs><symbol overflow="visible" id="f97edd72a"><path d="M1.36 11.05l2.16.15c9.76 0 14-4.8 14-17.28v-56.48H2.56v6.33h8.24v49.51c0 8.56-1.52 11.84-9.44 11.84zm0 0"/></symbol><symbol overflow="visible" id="f97edd72b"><path d="M3.2 0H10l2-15.44h14.31l2 15.44h6.82l-8.26-62.56H11.53zm9.52-21.44l4.23-34.97h4.4l4.24 34.97zm0 0"/></symbol><symbol overflow="visible" id="f97edd72c"><path d="M31.92-62.56v34.15l.88 21.85h-1.52l-3.36-16.16L17.7-62.56H6.79V0h6.5v-35.84L12.3-56h1.53l3.04 14L27.44 0H38.4v-62.56zm0 0"/></symbol><symbol overflow="visible" id="f97edd72e"><path d="M3.77-62.56l6.46 50.25h14l6.49-50.25h-6.56L18.87-18h-3.35l-1.68-14.23-3.53-30.33zM-.8 0h36.08v-5.52H-.8zm0 0"/></symbol><symbol overflow="visible" id="f97edd72f"><path d="M4.16-12.31h6.48L12-23.6h11.44l1.36 11.28h6.56L24.8-62.56H10.72zm8.48-16.74L16-56.95h3.44l3.36 27.9zM-.8 0h37.11v-5.52H-.79zm0 0"/></symbol><symbol overflow="visible" id="f97edd72g"><path d="M27.44-62.56v26.87l.64 16.49h-1.36L23.59-34l-6.8-28.56H6.57v50.25h6.08V-38.8L12-55.6h1.2l3.2 14.48 6.8 28.8h10.32v-50.24zM-.8 0h41.67v-5.52H-.8zm0 0"/></symbol><symbol overflow="visible" id="f97edd72h"><path d="M6.8-62.56V0h24.8v-6.23h-18V-25.2h14.8v-6.08H13.6v-24.95h18v-6.33zm0 0"/></symbol><symbol overflow="visible" id="f97edd72i"><path d="M26.31-62.56l-4.08 22.33-2.46 12.71h-4.08l-2.56-12.8-4.08-22.24h-6.9l8.33 41.12h3.75V0h6.82v-21.44h3.82l8.33-41.12zm0 0"/></symbol><symbol overflow="visible" id="f97edd72j"><path d="M19.92-63.69c-10.48 0-14.15 5.53-14.15 17.77v26.97C5.77-4.15 11.36.3 24.57.3L33.2 0v-6h-8.64c-8.56 0-12-2.8-12-12.95v-26.97c0-8.8 1.67-11.6 7.36-11.6 5.77 0 7.13 2.8 7.13 11.6v16.15h6.23l.31-16.15c0-12.24-3.28-17.77-13.67-17.77zm0 0"/></symbol><symbol overflow="visible" id="f97edd72k"><path d="M30 0h7.13L26.07-28.08l10.15-34.48h-6.87l-9.05 31.6H13.6v-31.6H6.8V0h6.8v-24.88h6.57zm0 0"/></symbol><symbol overflow="visible" id="f97edd72l"><path d="M3.83 0v-5.95H6.2v-.82H.45v.82h2.4V0zm0 0"/></symbol><symbol overflow="visible" id="f97edd72m"><path d="M5.75-2.23v-.43c0-1.6-.9-2.51-2.42-2.51S.87-4.16.87-2.48c0 1.71.91 2.62 2.5 2.62 1.43 0 2.07-.56 2.29-1.52l-.9-.09c-.18.61-.59.9-1.35.9-.94 0-1.52-.54-1.58-1.66zm-2.4-2.2c.93 0 1.43.5 1.48 1.55H1.84c.08-1.07.6-1.56 1.5-1.56zm0 0"/></symbol><symbol overflow="visible" id="f97edd72n"><path d="M1.83 0l1.42-2h.06l1.46 2H5.8L4-2.53l1.78-2.49H4.8L3.42-3.08h-.08l-1.4-1.94H.89l1.78 2.49L.84 0zm0 0"/></symbol><symbol overflow="visible" id="f97edd72o"><path d="M5.52-4.25v-.77H3.17v-1.56h-.81l-.14 1.56H.75v.77h1.47v2.4c0 1.3.48 1.94 1.84 1.94C4.6.1 5.14 0 5.55-.14L5.4-.91c-.32.13-.72.2-1.13.2-.8 0-1.1-.37-1.1-1.23v-2.31zm0 0"/></symbol><symbol overflow="visible" id="f97edd72p"><path d="M3.33-3.42c.47 0 .8-.27.8-.8 0-.51-.33-.8-.8-.8-.47 0-.8.29-.8.8 0 .53.33.8.8.8zm0 3.5c.47 0 .8-.27.8-.78 0-.53-.33-.82-.8-.82-.47 0-.8.29-.8.82 0 .51.33.78.8.78zm0 0"/></symbol><symbol overflow="visible" id="f97edd72r"><path d="M5.56-6.77h-3.8v.83h2.82v3.44c0 1.23-.28 1.81-1.36 1.81-.94 0-1.24-.48-1.33-1.3l-.03-.15-.92.1.01.18c.13 1.25.78 2 2.28 2 1.7 0 2.33-.86 2.33-2.64zm0 0"/></symbol><symbol overflow="visible" id="f97edd72s"><path d="M6.17 0L3.98-6.77h-1.3L.5 0h.97l.44-1.47h2.78L5.16 0zM3.28-5.94h.08l1.1 3.74H2.15zm0 0"/></symbol><symbol overflow="visible" id="f97edd72t"><path d="M1.84 0v-4.48l-.06-.99h.1L4.46 0h1.28v-6.77h-.92v4.4l.06 1.03h-.1L2.21-6.77H.92V0zm0 0"/></symbol><symbol overflow="visible" id="f97edd72u"><path d="M4 0l2.1-6.77h-.97l-1.7 5.75h-.1L1.58-6.77H.55L2.67 0zm0 0"/></symbol><symbol overflow="visible" id="f97edd72v"><path d="M5.92-6.77H1.1V0h4.83v-.8H2.06v-2.26h3.22v-.75H2.06v-2.16h3.86zm0 0"/></symbol><symbol overflow="visible" id="f97edd72w"><path d="M3.81 0v-2.47l2.56-4.3h-.96L3.44-3.42h-.08l-2-3.35H.3l2.54 4.32V0zm0 0"/></symbol><symbol overflow="visible" id="f97edd72x"><path d="M3.42.14C5.1.14 5.9-.69 6.11-2.17l-.95-.1C4.96-1.19 4.5-.69 3.44-.69c-1.27 0-1.81-.94-1.81-2.69s.54-2.7 1.8-2.7c1.09 0 1.5.49 1.73 1.58l.93-.1c-.21-1.46-.95-2.3-2.62-2.3C1.53-6.9.62-5.6.62-3.38c0 2.2.91 3.51 2.8 3.51zm0 0"/></symbol><symbol overflow="visible" id="f97edd72y"><path d="M4.95-6.77L2.37-3.78H1.9v-2.99H.92V0h.97v-3.08h.49L4.96 0h1.19L3.23-3.5l2.85-3.27zm0 0"/></symbol><symbol overflow="visible" id="f97edd72z"><path d="M5.95-6.77H1.1V0h.99v-2.92H5.3v-.77H2.08v-2.26h3.87zm0 0"/></symbol><symbol overflow="visible" id="f97edd72A"><path d="M2.83.14c.94 0 1.5-.39 1.81-.95h.08l.1.81h.76v-3.38c0-1.23-.69-1.8-2.13-1.8-1.43 0-2.03.65-2.18 1.6l.93.1c.11-.6.44-.93 1.22-.93.85 0 1.22.32 1.22 1.04v.34l-1.81.2C1.6-2.7 1.1-2.17 1.1-1.28c0 .92.64 1.42 1.72 1.42zm.25-.77c-.67 0-1.02-.28-1.02-.74 0-.44.28-.72 1-.82l1.58-.19v.41c0 .8-.6 1.34-1.56 1.34zm0 0"/></symbol><symbol overflow="visible" id="f97edd72B"><path d="M2.73.14c.9 0 1.43-.45 1.74-1.08h.06l.13.94h.8v-5.02h-.94v2.7c0 .98-.57 1.62-1.46 1.62-.75 0-1.1-.4-1.1-1.22v-3.1h-.93v3.32c0 1.17.55 1.84 1.7 1.84zm0 0"/></symbol><symbol overflow="visible" id="f97edd72C"><path d="M5.08-5.16c-.94 0-1.58.43-1.9 1.3h-.09l-.07-1.16H1.05v.77h1.1v3.48H.96V0h3.96v-.77H3.1v-1.46c0-1.36.6-2.05 1.83-2.05.4 0 .76.08 1.1.17l.15-.87c-.33-.11-.7-.18-1.11-.18zm0 0"/></symbol><symbol overflow="visible" id="f97edd72D"><path d="M3.33.14c1.7 0 2.51-.86 2.51-2.69v-4.22h-.98v4.2c0 1.41-.47 1.9-1.53 1.9S1.8-1.16 1.8-2.57v-4.2H.8v4.22c0 1.83.81 2.7 2.52 2.7zm0 0"/></symbol><symbol overflow="visible" id="f97edd72E"><path d="M2.16 0v-2.67c0-.99.59-1.63 1.46-1.63.74 0 1.07.38 1.07 1.22V0h.95v-3.31c0-1.2-.56-1.85-1.67-1.85-.92 0-1.49.46-1.77 1.08h-.06l-.12-.94H1.2V0zm0 0"/></symbol><symbol overflow="visible" id="f97edd72F"><path d="M2.84.14C3.8.14 4.33-.26 4.6-.9h.07L4.8 0h.76v-7.14h-.95v2.95h-.08c-.28-.6-.86-.97-1.67-.97-1.48 0-2.27.99-2.27 2.64C.6-.84 1.36.14 2.84.14zm.22-.8c-.98 0-1.48-.59-1.48-1.84s.5-1.86 1.48-1.86c1.13 0 1.58.8 1.58 1.86S4.2-.66 3.06-.66zm0 0"/></symbol><symbol overflow="visible" id="f97edd72G"><path d="M3.36.16c1.4 0 2.2-.6 2.2-1.57 0-.89-.54-1.22-1.47-1.39L3-3c-.67-.14-.86-.33-.86-.73 0-.5.4-.74 1.17-.74.83 0 1.19.27 1.27.8l.9-.05c-.12-1-.8-1.47-2.17-1.47-1.34 0-2.1.53-2.1 1.5 0 .81.45 1.22 1.52 1.44l1.04.2c.56.11.87.24.87.72 0 .52-.45.78-1.28.78-.95 0-1.36-.28-1.42-.87l-.9.06C1.07-.36 1.8.16 3.35.16zm0 0"/></symbol><symbol overflow="visible" id="f97edd72H"><path d="M3.34.14c1.43 0 2.13-.66 2.25-1.78l-.89-.1c-.1.7-.5 1.08-1.34 1.08-1.03 0-1.52-.64-1.52-1.84 0-1.23.47-1.86 1.52-1.86.84 0 1.23.36 1.34 1.08l.9-.1c-.13-1.09-.82-1.78-2.26-1.78-1.56 0-2.46.97-2.46 2.66 0 1.66.9 2.64 2.46 2.64zm0 0"/></symbol><symbol overflow="visible" id="f97edd72I"><path d="M3.33.14c1.62 0 2.5-.95 2.5-2.66 0-1.68-.88-2.64-2.5-2.64-1.63 0-2.5.96-2.5 2.64 0 1.7.87 2.66 2.5 2.66zm0-.77c-1.06 0-1.52-.6-1.52-1.89 0-1.28.46-1.87 1.52-1.87 1.08 0 1.53.6 1.53 1.87 0 1.29-.45 1.9-1.53 1.9zm0 0"/></symbol><symbol overflow="visible" id="f97edd72J"><path d="M2.06 1.9V-.84h.05c.28.58.8.97 1.77.97 1.5 0 2.2-.98 2.2-2.66 0-1.65-.7-2.64-2.19-2.64-.97 0-1.5.44-1.78 1.05h-.08l-.1-.9H1.1v6.9zm1.5-2.56c-1.06 0-1.53-.8-1.53-1.86 0-1.04.47-1.84 1.53-1.84 1.11 0 1.53.61 1.53 1.84 0 1.27-.42 1.86-1.53 1.86zm0 0"/></symbol><symbol overflow="visible" id="f97edd72K"><path d="M1.45-2.95c0 2.56 1.08 4.37 3.67 4.84l.11-.67C3.28.86 2.43-.75 2.43-2.95s.85-3.82 2.8-4.16l-.1-.69c-2.6.49-3.68 2.3-3.68 4.85zm0 0"/></symbol><symbol overflow="visible" id="f97edd72L"><path d="M3.33.14c1.65 0 2.6-1.1 2.6-3.52S4.99-6.9 3.34-6.9C1.67-6.9.72-5.8.72-3.37c0 2.4.95 3.51 2.6 3.51zm0-.84c-1.13 0-1.6-.85-1.6-2.67 0-1.86.47-2.7 1.6-2.7 1.12 0 1.6.84 1.6 2.7 0 1.82-.48 2.67-1.6 2.67zM3.3-2.64c.38 0 .56-.28.56-.72 0-.44-.18-.7-.56-.7-.39 0-.56.26-.56.7 0 .44.17.72.56.72zm0 0"/></symbol><symbol overflow="visible" id="f97edd72M"><path d="M3.42.14c1.55 0 2.44-.84 2.44-2.33 0-1.45-.83-2.22-2.14-2.22-.75 0-1.28.27-1.67.72H2l.31-2.22h3.11v-.86H1.53l-.45 3.93h.81c.3-.36.9-.79 1.58-.79.92 0 1.44.43 1.44 1.47 0 .99-.54 1.5-1.49 1.5-.83 0-1.28-.32-1.5-1.01l-.95.1C1.07-.46 2 .13 3.42.13zm0 0"/></symbol><symbol overflow="visible" id="f97edd72N"><path d="M1.45-7.1c1.96.33 2.8 1.94 2.8 4.15 0 2.2-.84 3.8-2.8 4.17l.11.67c2.58-.47 3.67-2.28 3.67-4.84 0-2.55-1.09-4.36-3.67-4.85zm0 0"/></symbol></defs><g fill="#515151"><use xlink:href="#f97edd72a" x="102.28" y="163"/><use xlink:href="#f97edd72b" x="126.52" y="163"/><use xlink:href="#f97edd72c" x="164.84" y="163"/><use xlink:href="#f97edd72d" x="209.96" y="163"/></g><use xlink:href="#f97edd72e" x="224.12" y="163" fill="#fff"/><use xlink:href="#f97edd72f" x="258.6" y="163" fill="#fff"/><use xlink:href="#f97edd72g" x="294.12" y="163" fill="#fff"/><g fill="#515151"><use xlink:href="#f97edd72d" x="334.2" y="163"/><use xlink:href="#f97edd72h" x="348.36" y="163"/><use xlink:href="#f97edd72i" x="384.6" y="163"/></g><g fill="#515151"><use xlink:href="#f97edd72j" x="419.32" y="163"/><use xlink:href="#f97edd72k" x="458.28" y="163"/></g><g fill="#fff"><use xlink:href="#f97edd72l" x="240" y="252"/><use xlink:href="#f97edd72m" x="246.667" y="252"/><use xlink:href="#f97edd72n" x="253.334" y="252"/><use xlink:href="#f97edd72o" x="260.001" y="252"/><use xlink:href="#f97edd72p" x="266.668" y="252"/><use xlink:href="#f97edd72q" x="273.335" y="252"/><use xlink:href="#f97edd72r" x="280.002" y="252"/><use xlink:href="#f97edd72s" x="286.669" y="252"/><use xlink:href="#f97edd72t" x="293.336" y="252"/><use xlink:href="#f97edd72q" x="300.003" y="252"/><use xlink:href="#f97edd72u" x="306.67" y="252"/><use xlink:href="#f97edd72s" x="313.337" y="252"/><use xlink:href="#f97edd72t" x="320.004" y="252"/><use xlink:href="#f97edd72q" x="326.671" y="252"/><use xlink:href="#f97edd72v" x="333.338" y="252"/><use xlink:href="#f97edd72w" x="340.005" y="252"/><use xlink:href="#f97edd72x" x="346.672" y="252"/><use xlink:href="#f97edd72y" x="353.339" y="252"/></g><g fill="#fff"><use xlink:href="#f97edd72z" x="176.6667" y="266"/><use xlink:href="#f97edd72m" x="183.3337" y="266"/><use xlink:href="#f97edd72A" x="190.0007" y="266"/><use xlink:href="#f97edd72o" x="196.6677" y="266"/><use xlink:href="#f97edd72B" x="203.3347" y="266"/><use xlink:href="#f97edd72C" x="210.0017" y="266"/><use xlink:href="#f97edd72m" x="216.6687" y="266"/><use xlink:href="#f97edd72p" x="223.3357" y="266"/><use xlink:href="#f97edd72q" x="230.0027" y="266"/><use xlink:href="#f97edd72D" x="236.6697" y="266"/><use xlink:href="#f97edd72E" x="243.3367" y="266"/><use xlink:href="#f97edd72F" x="250.0037" y="266"/><use xlink:href="#f97edd72m" x="256.6707" y="266"/><use xlink:href="#f97edd72C" x="263.3377" y="266"/><use xlink:href="#f97edd72G" x="270.0047" y="266"/><use xlink:href="#f97edd72H" x="276.6717" y="266"/><use xlink:href="#f97edd72I" x="283.3387" y="266"/><use xlink:href="#f97edd72C" x="290.0057" y="266"/><use xlink:href="#f97edd72m" x="296.6727" y="266"/><use xlink:href="#f97edd72F" x="303.3397" y="266"/><use xlink:href="#f97edd72q" x="310.0067" y="266"/><use xlink:href="#f97edd72B" x="316.6737" y="266"/><use xlink:href="#f97edd72J" x="323.3407" y="266"/><use xlink:href="#f97edd72J" x="330.0077" y="266"/><use xlink:href="#f97edd72m" x="336.6747" y="266"/><use xlink:href="#f97edd72C" x="343.3417" y="266"/><use xlink:href="#f97edd72H" x="350.0087" y="266"/><use xlink:href="#f97edd72A" x="356.6757" y="266"/><use xlink:href="#f97edd72G" x="363.3427" y="266"/><use xlink:href="#f97edd72m" x="370.0097" y="266"/><use xlink:href="#f97edd72q" x="376.6767" y="266"/><use xlink:href="#f97edd72K" x="383.3437" y="266"/><use xlink:href="#f97edd72G" x="390.0107" y="266"/><use xlink:href="#f97edd72G" x="396.6777" y="266"/><use xlink:href="#f97edd72L" x="403.3447" y="266"/><use xlink:href="#f97edd72M" x="410.0117" y="266"/><use xlink:href="#f97edd72N" x="416.6787" y="266"/></g></svg>