<?xml version='1.0' encoding='UTF-8'?>
<svg xmlns="http://www.w3.org/2000/svg" xmlns:xlink="http://www.w3.org/1999/xlink" width="600px" height="300px" viewBox="0 0 600 300" x="0px" y="0px" enable-background="new 0 0 600 300"><defs><symbol overflow="visible" id="d3da34e9a"><path d="M2.16-44.23v5.59h5.28V0h6.4v-38.64h8.64v-5.6h-8.64v-4.96c0-5.6.96-8.8 6.08-8.8 1.77 0 3.28.4 4.72.72l1.28-5.13c-1.84-.64-4-1.28-6.87-1.28-8 0-11.61 4.56-11.61 14.4v5.06zm0 0"/></symbol><symbol overflow="visible" id="d3da34e9b"><path d="M9.2-49.69c2.57 0 4.24-1.44 4.24-4.47 0-3.04-1.67-4.48-4.24-4.48-2.48 0-4.15 1.44-4.15 4.48 0 3.03 1.67 4.47 4.15 4.47zM6-44.23V0h6.4v-44.23zm0 0"/></symbol><symbol overflow="visible" id="d3da34e9c"><path d="M21.69-45.28c-5.28 0-8.49 3.36-10.25 5.76l-.96-5.2-5.6.49.89 10.71V0h6.46v-34.16c1.77-2.32 5.05-5.2 8.41-5.2 3.44 0 4.48 2.08 4.48 8V0h6.47v-31.36c0-9.36-2.46-13.92-9.9-13.92zm0 0"/></symbol><symbol overflow="visible" id="d3da34e9d"><path d="M16.64-45.28c-8.72 0-12.08 4.64-12.08 14.4v14.96C4.56-4.32 8.23.4 20 .4l7.69-.25V-5.2H20c-7.2 0-9.05-2.96-9.05-10.72v-14.96c0-6.56 1.36-8.8 5.7-8.8 4.23 0 5.43 2.09 5.43 8.8v9.93H28l.16-9.93c0-9.84-2.96-14.4-11.52-14.4zm0 0"/></symbol><symbol overflow="visible" id="d3da34e9e"><path d="M22.95-4.88l.97 5.36L29.44 0l-.96-10.88v-21.68c0-8.4-3.36-12.49-11.68-12.49-4.24 0-8 .97-11.36 2.25l1.2 4.96c2.88-.8 6.31-1.6 9.44-1.6 4.87 0 6.15 2.49 6.15 8.31v4.18h-3.82c-8.72 0-14.97 4.15-14.97 14.47C3.44-3.12 7.36.95 13.92.95c5.77 0 7.85-3.9 9.03-5.83zm-4.54-16.96h3.82v11.76c-1.43 2.24-3.59 5.44-7.18 5.44-3.2 0-5.28-2.08-5.28-8.08 0-6.87 3.36-9.12 8.64-9.12zm0 0"/></symbol><symbol overflow="visible" id="d3da34e9g"><path d="M7.05-52.23V0h6.64v-20.16h12.47V-26H13.69v-20.23h15.19v-6zm0 0"/></symbol><symbol overflow="visible" id="d3da34e9h"><path d="M10.48-57.28c2.47 0 4.16-1.44 4.16-4.49 0-3.03-1.69-4.46-4.16-4.46-2.56 0-4.25 1.43-4.25 4.46 0 3.05 1.7 4.49 4.25 4.49zm-3.43 5.05V0h6.64v-52.23zm0 0"/></symbol><symbol overflow="visible" id="d3da34e9i"><path d="M29.36-52.23v27.82l.95 18.64H28.8l-2.88-13.75-8.15-32.71H7.05V0h6.3v-28.16l-.94-18.25h1.43l2.64 13.2L24.88 0h10.8v-52.23zm0 0"/></symbol><symbol overflow="visible" id="d3da34e9j"><path d="M17.92-53.13c-10 0-12.87 5.54-12.87 16.49v18.95c0 12.25 4.15 18 17.1 18L30.32 0v-5.84h-8.15c-7.85 0-10.47-3.04-10.47-11.85v-18.95c0-7.77 1.1-10.64 6.23-10.64 5.28 0 6.24 2.87 6.24 10.64v12.16h6.15l.33-12.72c0-10.4-2.56-15.92-12.72-15.92zm0 0"/></symbol><symbol overflow="visible" id="d3da34e9k"><path d="M3.28 0H10l1.6-12.08h12.63L25.77 0h6.71l-7.35-52.23H10.63zm9.03-17.77l3.61-28.54h3.92l3.68 28.54zm0 0"/></symbol><symbol overflow="visible" id="d3da34e9l"><path d="M3.83 0v-5.95H6.2v-.82H.45v.82h2.4V0zm0 0"/></symbol><symbol overflow="visible" id="d3da34e9m"><path d="M5.75-2.23v-.43c0-1.6-.9-2.51-2.42-2.51S.87-4.16.87-2.48c0 1.71.91 2.62 2.5 2.62 1.43 0 2.07-.56 2.29-1.52l-.9-.09c-.18.61-.59.9-1.35.9-.94 0-1.52-.54-1.58-1.66zm-2.4-2.2c.93 0 1.43.5 1.48 1.55H1.84c.08-1.07.6-1.56 1.5-1.56zm0 0"/></symbol><symbol overflow="visible" id="d3da34e9n"><path d="M1.83 0l1.42-2h.06l1.46 2H5.8L4-2.53l1.78-2.49H4.8L3.42-3.08h-.08l-1.4-1.94H.89l1.78 2.49L.84 0zm0 0"/></symbol><symbol overflow="visible" id="d3da34e9o"><path d="M5.52-4.25v-.77H3.17v-1.56h-.81l-.14 1.56H.75v.77h1.47v2.4c0 1.3.48 1.94 1.84 1.94C4.6.1 5.14 0 5.55-.14L5.4-.91c-.32.13-.72.2-1.13.2-.8 0-1.1-.37-1.1-1.23v-2.31zm0 0"/></symbol><symbol overflow="visible" id="d3da34e9p"><path d="M3.33-3.42c.47 0 .8-.27.8-.8 0-.51-.33-.8-.8-.8-.47 0-.8.29-.8.8 0 .53.33.8.8.8zm0 3.5c.47 0 .8-.27.8-.78 0-.53-.33-.82-.8-.82-.47 0-.8.29-.8.82 0 .51.33.78.8.78zm0 0"/></symbol><symbol overflow="visible" id="d3da34e9r"><path d="M4.63-6.5c.45 0 .98.08 1.39.2l.2-.72a5.3 5.3 0 00-1.64-.26c-1.52 0-2.16.56-2.16 1.87v.4H.9v.76h1.53V0h.94v-4.25h2.53v-.77H3.36v-.3c0-.84.33-1.18 1.27-1.18zm0 0"/></symbol><symbol overflow="visible" id="d3da34e9s"><path d="M3.58-5.81c.42 0 .72-.22.72-.67 0-.44-.3-.68-.72-.68-.44 0-.72.24-.72.68 0 .45.28.67.72.67zm.5.8H1.52v.76h1.6v3.48h-1.8V0h4.46v-.77h-1.7zm0 0"/></symbol><symbol overflow="visible" id="d3da34e9t"><path d="M2.16 0v-2.67c0-.99.59-1.63 1.46-1.63.74 0 1.07.38 1.07 1.22V0h.95v-3.31c0-1.2-.56-1.85-1.67-1.85-.92 0-1.49.46-1.77 1.08h-.06l-.12-.94H1.2V0zm0 0"/></symbol><symbol overflow="visible" id="d3da34e9u"><path d="M3.34.14c1.43 0 2.13-.66 2.25-1.78l-.89-.1c-.1.7-.5 1.08-1.34 1.08-1.03 0-1.52-.64-1.52-1.84 0-1.23.47-1.86 1.52-1.86.84 0 1.23.36 1.34 1.08l.9-.1c-.13-1.09-.82-1.78-2.26-1.78-1.56 0-2.46.97-2.46 2.66 0 1.66.9 2.64 2.46 2.64zm0 0"/></symbol><symbol overflow="visible" id="d3da34e9v"><path d="M2.83.14c.94 0 1.5-.39 1.81-.95h.08l.1.81h.76v-3.38c0-1.23-.69-1.8-2.13-1.8-1.43 0-2.03.65-2.18 1.6l.93.1c.11-.6.44-.93 1.22-.93.85 0 1.22.32 1.22 1.04v.34l-1.81.2C1.6-2.7 1.1-2.17 1.1-1.28c0 .92.64 1.42 1.72 1.42zm.25-.77c-.67 0-1.02-.28-1.02-.74 0-.44.28-.72 1-.82l1.58-.19v.41c0 .8-.6 1.34-1.56 1.34zm0 0"/></symbol><symbol overflow="visible" id="d3da34e9w"><path d="M5.95-6.77H1.1V0h.99v-2.92H5.3v-.77H2.08v-2.26h3.87zm0 0"/></symbol><symbol overflow="visible" id="d3da34e9x"><path d="M2.73.14c.9 0 1.43-.45 1.74-1.08h.06l.13.94h.8v-5.02h-.94v2.7c0 .98-.57 1.62-1.46 1.62-.75 0-1.1-.4-1.1-1.22v-3.1h-.93v3.32c0 1.17.55 1.84 1.7 1.84zm0 0"/></symbol><symbol overflow="visible" id="d3da34e9y"><path d="M5.08-5.16c-.94 0-1.58.43-1.9 1.3h-.09l-.07-1.16H1.05v.77h1.1v3.48H.96V0h3.96v-.77H3.1v-1.46c0-1.36.6-2.05 1.83-2.05.4 0 .76.08 1.1.17l.15-.87c-.33-.11-.7-.18-1.11-.18zm0 0"/></symbol><symbol overflow="visible" id="d3da34e9z"><path d="M5.77-5.02H4.63L2.3-2.88h-.06v-4.26h-.94V0h.94v-2.31h.06L4.71 0h1.24L3.23-2.69zm0 0"/></symbol><symbol overflow="visible" id="d3da34e9A"><path d="M3.36.16c1.4 0 2.2-.6 2.2-1.57 0-.89-.54-1.22-1.47-1.39L3-3c-.67-.14-.86-.33-.86-.73 0-.5.4-.74 1.17-.74.83 0 1.19.27 1.27.8l.9-.05c-.12-1-.8-1.47-2.17-1.47-1.34 0-2.1.53-2.1 1.5 0 .81.45 1.22 1.52 1.44l1.04.2c.56.11.87.24.87.72 0 .52-.45.78-1.28.78-.95 0-1.36-.28-1.42-.87l-.9.06C1.07-.36 1.8.16 3.35.16zm0 0"/></symbol><symbol overflow="visible" id="d3da34e9B"><path d="M2.16 0v-2.69c0-.98.6-1.6 1.46-1.6.74 0 1.07.4 1.07 1.2V0h.95v-3.31c0-1.17-.56-1.85-1.67-1.85-.9 0-1.44.46-1.75 1.08h-.06v-3.06H1.2V0zm0 0"/></symbol><symbol overflow="visible" id="d3da34e9C"><path d="M2.58.95l2.39-8.67h-.9L1.7.95zm0 0"/></symbol><symbol overflow="visible" id="d3da34e9D"><path d="M3.42.14C5.1.14 5.9-.69 6.11-2.17l-.95-.1C4.96-1.19 4.5-.69 3.44-.69c-1.27 0-1.81-.94-1.81-2.69s.54-2.7 1.8-2.7c1.09 0 1.5.49 1.73 1.58l.93-.1c-.21-1.46-.95-2.3-2.62-2.3C1.53-6.9.62-5.6.62-3.38c0 2.2.91 3.51 2.8 3.51zm0 0"/></symbol><symbol overflow="visible" id="d3da34e9E"><path d="M1.63 0v-2.9c0-.8.15-1.4.71-1.4.41 0 .55.3.55.88V0h.95v-2.9c0-.8.18-1.4.72-1.4.4 0 .57.3.57.88V0h.95v-3.63c0-.92-.28-1.53-1.11-1.53-.63 0-.95.41-1.1.9h-.06c-.1-.52-.44-.9-1.08-.9-.6 0-.93.41-1.06.9H1.6l-.23-.76H.67V0zm0 0"/></symbol><symbol overflow="visible" id="d3da34e9F"><path d="M1.45-2.95c0 2.56 1.08 4.37 3.67 4.84l.11-.67C3.28.86 2.43-.75 2.43-2.95s.85-3.82 2.8-4.16l-.1-.69c-2.6.49-3.68 2.3-3.68 4.85zm0 0"/></symbol><symbol overflow="visible" id="d3da34e9G"><path d="M3.92-7.14H1.36v.76h1.6v5.61H1.15V0H5.7v-.77H3.92zm0 0"/></symbol><symbol overflow="visible" id="d3da34e9H"><path d="M3.16 2.03c1.67 0 2.4-.86 2.4-2.51v-4.54h-.81l-.13.91h-.06c-.26-.58-.8-1.05-1.73-1.05-1.42 0-2.24 1-2.24 2.52 0 1.6.75 2.56 2.2 2.56.94 0 1.5-.5 1.77-1.03h.05v.72c0 1.17-.42 1.67-1.45 1.67-.93 0-1.3-.34-1.41-.89L.8.5c.12.96.87 1.54 2.36 1.54zM3.06-.8c-.98 0-1.48-.57-1.48-1.82 0-1.13.5-1.75 1.48-1.75 1.06 0 1.58.76 1.58 1.75 0 .95-.56 1.82-1.58 1.82zm0 0"/></symbol><symbol overflow="visible" id="d3da34e9I"><path d="M1.45-7.1c1.96.33 2.8 1.94 2.8 4.15 0 2.2-.84 3.8-2.8 4.17l.11.67c2.58-.47 3.67-2.28 3.67-4.84 0-2.55-1.09-4.36-3.67-4.85zm0 0"/></symbol></defs><use xlink:href="#d3da34e9a" x="97.56" y="163" fill="#fff"/><use xlink:href="#d3da34e9b" x="119.88" y="163" fill="#fff"/><g fill="#515151"><use xlink:href="#d3da34e9c" x="138.28" y="163"/><use xlink:href="#d3da34e9d" x="175.48" y="163"/><use xlink:href="#d3da34e9e" x="207.88" y="163"/><use xlink:href="#d3da34e9c" x="241.8" y="163"/><use xlink:href="#d3da34e9f" x="279" y="163"/></g><use xlink:href="#d3da34e9g" x="293.16" y="163" fill="#fff"/><use xlink:href="#d3da34e9h" x="324.76" y="163" fill="#fff"/><use xlink:href="#d3da34e9i" x="345.48" y="163" fill="#515151"/><use xlink:href="#d3da34e9j" x="388.2" y="163" fill="#515151"/><use xlink:href="#d3da34e9k" x="423.96" y="163" fill="#515151"/><use xlink:href="#d3da34e9i" x="459.72" y="163" fill="#515151"/><g fill="#fff"><use xlink:href="#d3da34e9l" x="236.6667" y="252"/><use xlink:href="#d3da34e9m" x="243.3337" y="252"/><use xlink:href="#d3da34e9n" x="250.0007" y="252"/><use xlink:href="#d3da34e9o" x="256.6677" y="252"/><use xlink:href="#d3da34e9p" x="263.3347" y="252"/><use xlink:href="#d3da34e9q" x="270.0017" y="252"/><use xlink:href="#d3da34e9r" x="276.6687" y="252"/><use xlink:href="#d3da34e9s" x="283.3357" y="252"/><use xlink:href="#d3da34e9t" x="290.0027" y="252"/><use xlink:href="#d3da34e9u" x="296.6697" y="252"/><use xlink:href="#d3da34e9v" x="303.3367" y="252"/><use xlink:href="#d3da34e9t" x="310.0037" y="252"/><use xlink:href="#d3da34e9q" x="316.6707" y="252"/><use xlink:href="#d3da34e9r" x="323.3377" y="252"/><use xlink:href="#d3da34e9s" x="330.0047" y="252"/><use xlink:href="#d3da34e9t" x="336.6717" y="252"/><use xlink:href="#d3da34e9u" x="343.3387" y="252"/><use xlink:href="#d3da34e9v" x="350.0057" y="252"/><use xlink:href="#d3da34e9t" x="356.6727" y="252"/></g><g fill="#fff"><use xlink:href="#d3da34e9w" x="150" y="266"/><use xlink:href="#d3da34e9m" x="156.667" y="266"/><use xlink:href="#d3da34e9v" x="163.334" y="266"/><use xlink:href="#d3da34e9o" x="170.001" y="266"/><use xlink:href="#d3da34e9x" x="176.668" y="266"/><use xlink:href="#d3da34e9y" x="183.335" y="266"/><use xlink:href="#d3da34e9m" x="190.002" y="266"/><use xlink:href="#d3da34e9p" x="196.669" y="266"/><use xlink:href="#d3da34e9q" x="203.336" y="266"/><use xlink:href="#d3da34e9l" x="210.003" y="266"/><use xlink:href="#d3da34e9x" x="216.67" y="266"/><use xlink:href="#d3da34e9y" x="223.337" y="266"/><use xlink:href="#d3da34e9z" x="230.004" y="266"/><use xlink:href="#d3da34e9s" x="236.671" y="266"/><use xlink:href="#d3da34e9A" x="243.338" y="266"/><use xlink:href="#d3da34e9B" x="250.005" y="266"/><use xlink:href="#d3da34e9C" x="256.672" y="266"/><use xlink:href="#d3da34e9D" x="263.339" y="266"/><use xlink:href="#d3da34e9y" x="270.006" y="266"/><use xlink:href="#d3da34e9s" x="276.673" y="266"/><use xlink:href="#d3da34e9E" x="283.34" y="266"/><use xlink:href="#d3da34e9m" x="290.007" y="266"/><use xlink:href="#d3da34e9v" x="296.674" y="266"/><use xlink:href="#d3da34e9t" x="303.341" y="266"/><use xlink:href="#d3da34e9q" x="310.008" y="266"/><use xlink:href="#d3da34e9l" x="316.675" y="266"/><use xlink:href="#d3da34e9v" x="323.342" y="266"/><use xlink:href="#d3da34e9o" x="330.009" y="266"/><use xlink:href="#d3da34e9v" x="336.676" y="266"/><use xlink:href="#d3da34e9y" x="343.343" y="266"/><use xlink:href="#d3da34e9q" x="350.01" y="266"/><use xlink:href="#d3da34e9F" x="356.677" y="266"/><use xlink:href="#d3da34e9A" x="363.344" y="266"/><use xlink:href="#d3da34e9m" x="370.011" y="266"/><use xlink:href="#d3da34e9o" x="376.678" y="266"/><use xlink:href="#d3da34e9q" x="383.345" y="266"/><use xlink:href="#d3da34e9G" x="390.012" y="266"/><use xlink:href="#d3da34e9v" x="396.679" y="266"/><use xlink:href="#d3da34e9t" x="403.346" y="266"/><use xlink:href="#d3da34e9H" x="410.013" y="266"/><use xlink:href="#d3da34e9x" x="416.68" y="266"/><use xlink:href="#d3da34e9v" x="423.347" y="266"/><use xlink:href="#d3da34e9H" x="430.014" y="266"/><use xlink:href="#d3da34e9m" x="436.681" y="266"/><use xlink:href="#d3da34e9I" x="443.348" y="266"/></g></svg>