<?xml version='1.0' encoding='UTF-8'?>
<svg xmlns="http://www.w3.org/2000/svg" xmlns:xlink="http://www.w3.org/1999/xlink" width="200px" height="1030px" viewBox="0 0 200 1030" x="0px" y="0px" enable-background="new 0 0 200 1030"><defs><symbol overflow="visible" id="cbc352e8a"><path d="M3.5-27.234V0h1.219v-11.547h8.406V0h1.219v-27.234h-1.219v14.562H4.719v-14.562zm0 0"/></symbol><symbol overflow="visible" id="cbc352e8b"><path d="M10.11-2.594L10.39.11 11.407 0l-.312-4.125v-10.64c0-3.047-.985-4.907-4.203-4.907-1.391 0-3.079.36-4.375.875l.28.953c1.095-.39 2.704-.781 4.063-.781 2.422 0 3.079 1.234 3.079 4.172v2.937h-1.72c-3.53 0-6.405 1.47-6.405 6.329 0 3.406 1.343 5.53 4.109 5.53 2.687 0 3.64-2.062 4.187-2.937zm-1.891-7.875h1.719v6.344c-.516.969-1.579 3.422-3.954 3.422-2.03 0-2.968-1.64-2.968-4.484 0-4.188 2.093-5.282 5.203-5.282zm0 0"/></symbol><symbol overflow="visible" id="cbc352e8c"><path d="M6.938-5.25c3.39 0 4.609-1.781 4.609-7.14 0-2.594-.281-4.344-.938-5.5l2.032-1.891-.672-.735-2.031 1.797c-.735-.64-1.72-.922-3-.922-3.407 0-4.625 1.891-4.625 7.25 0 4.204.765 6.204 2.734 6.86l-1.969 3.25.313.64C2.516-.812 1.75.422 1.75 2.234c0 2.813 1.89 4.063 5.39 4.063s5.391-1.578 5.391-4.547c0-2.563-1.36-4.031-4.453-4.031H4.344l-.032-.094 1.75-2.906c.266.031.547.031.875.031zm0-1.047c-2.813 0-3.5-1.61-3.5-6.094 0-4.656.687-6.187 3.5-6.187 2.718 0 3.5 1.531 3.5 6.187 0 4.485-.704 6.094-3.5 6.094zM2.875 2.234c0-1.843.734-2.828 1.61-3.453h3.5c2.312 0 3.421.766 3.421 2.969 0 2.281-1.297 3.5-4.265 3.5-2.97 0-4.266-.906-4.266-3.016zm0 0"/></symbol><symbol overflow="visible" id="cbc352e8e"><path d="M6.438-27.234L1.609 0h1.22l2.077-11.547h8.047L10.891 0h1.218l4.829-27.234h-1.22l-2.593 14.562H5.078l2.594-14.562zm0 0"/></symbol><symbol overflow="visible" id="cbc352e8f"><path d="M8.86-19.64c-3.61 0-5.25 2.593-6.063 7.046l-1.11 6.266C.938-2.234 1.266.344 3.673.344c2.344 0 4.875-4.047 5.844-5.797-.141.547-.235 1.078-.344 1.61-.563 3.077.172 4.015 1.86 4.015A5.49 5.49 0 0012.311 0l.188-.875h-1.125c-.625 0-.984-.14-1.156-.531-.25-.453-.14-1.282.11-2.657l2.733-14.515c-.75-.422-2.39-1.063-4.203-1.063zM3.702-.704c-1.469 0-1.5-2.094-.875-5.625l1.125-6.266c.672-3.75 1.89-5.984 4.797-5.984 1.016 0 2.344.234 3.047.656l-2 10.328C8.75-5.844 5.703-.704 3.703-.704zm0 0"/></symbol><symbol overflow="visible" id="cbc352e8g"><path d="M9.875-1.406l3.11-17.172c-.735-.422-2.313-1.063-4.126-1.063-3.609 0-5.25 2.625-6.062 7.078L1.75-6.686C1.016-2.595 1.078.343 3.672.343c2.422 0 5.047-4.296 5.953-5.937l-.813 4.016C7.875 3.156 6.579 5 3.704 5c-1.25 0-2.265-.313-3.11-.625l-.312.906c.875.36 1.89.782 3.422.782 3.406 0 5.219-2.172 6.172-7.47zm-6.172.703c-1.61 0-1.422-2.453-.797-5.984l1.047-5.875c.672-3.75 1.89-6.016 4.797-6.016 1.016 0 2.281.234 2.969.656L9.797-7.594C8.75-5.844 5.703-.704 3.703-.704zm0 0"/></symbol><symbol overflow="visible" id="cbc352e8h"><path d="M4.063-8.063l-1.079.047-2.5 7.172C.391-.547.313-.28.234 0h.97l.75-2.25H5L5.75 0h.953c-.062-.281-.156-.547-.25-.844zm-.547 1.204h.03l.517 1.718.671 2.063h-2.5zm0 0"/></symbol><symbol overflow="visible" id="cbc352e8i"><path d="M5.39-5.61H4.47L2.906-1.03H2.86c-.093-.39-.187-.735-.296-1.063l-1.22-3.515H.392c0 .187.046.359.109.53L2.36.017l1-.032L5.28-5.078c.063-.172.11-.328.11-.531zm0 0"/></symbol><symbol overflow="visible" id="cbc352e8j"><path d="M.64-2.703c0 1.672.922 2.875 2.422 2.875 1.72 0 2.563-1.547 2.563-3.063 0-1.656-.906-2.875-2.422-2.875C1.47-5.766.641-4.187.641-2.703zm4.016-.047c0 .75-.187 1.36-.531 1.719-.203.218-.531.39-.969.39-1.015 0-1.562-.906-1.562-2.187 0-.813.218-1.39.547-1.75a1.38 1.38 0 01.968-.375c1.016 0 1.547.922 1.547 2.203zm0 0"/></symbol><symbol overflow="visible" id="cbc352e8k"><path d="M1.672-5.688l-.797.11c.078 1.203.094 1.734.094 2.172V0h.953v-3.75c.375-.688.89-.984 1.422-.984.25 0 .437.015.656.078l.188-.86a1.404 1.404 0 00-.782-.218c-.64 0-1.156.39-1.547 1.109zm0 0"/></symbol><symbol overflow="visible" id="cbc352e8l"><path d="M5.375-5.61h-.906L2.906-1.03H2.86a6.552 6.552 0 00-.296-1.063L1.375-5.609H.406c0 .187.031.359.11.53L2.359 0h.204C1.937 1.5 1.313 2.172.265 2.172v.75c.125.031.28.047.5.047.968 0 1.75-.719 2.468-2.547l2.032-5.5a1.2 1.2 0 00.109-.531zm0 0"/></symbol><symbol overflow="visible" id="cbc352e8n"><path d="M1.125-7.984V0h.953v-2.969c.313.047.61.047.875.047 2.094 0 3.266-1.094 3.266-2.797 0-1.562-1.047-2.468-3.172-2.453-.547.016-1.219.078-1.922.188zm2 .671c1.344 0 2.078.516 2.078 1.704 0 .765-.344 1.328-.922 1.593-.36.172-.86.266-1.406.266-.266 0-.516-.031-.797-.047v-3.422c.36-.062.703-.093 1.047-.093zm0 0"/></symbol><symbol overflow="visible" id="cbc352e8o"><path d="M5.719-.828h-3.64v-2.875H5v-.828H2.078V-7.22h3.594l.047-.828H1.125V0h4.61zm0 0"/></symbol><symbol overflow="visible" id="cbc352e8p"><path d="M7.656-9.016l-.953.032v.937H.22l.015.844h2.532V0h.968v-7.203h2.97V0h.952v-4.375c.532-.36 1.094-.563 1.688-.563.719 0 .922.47.922 1.47V0h.953v-3.813c0-1.25-.453-1.953-1.656-1.953-.704 0-1.329.235-1.907.672zm0 0"/></symbol><symbol overflow="visible" id="cbc352e8q"><path d="M.797-7.313c0 .36.25.594.625.594.406 0 .672-.265.672-.656 0-.375-.25-.61-.625-.61-.407 0-.672.266-.672.673zM1.89-5.609l-.938.015V0h.938zm0 0"/></symbol><symbol overflow="visible" id="cbc352e8r"><path d="M1.672-5.688l-.797.11c.078 1.187.094 1.734.094 2.172V0h.953v-4.234c.516-.438 1.094-.72 1.672-.72.75 0 .937.485.937 1.5V0h.953v-3.813c0-1.25-.437-1.953-1.671-1.953-.766 0-1.407.297-1.985.86zm0 0"/></symbol><symbol overflow="visible" id="cbc352e8z"><path d="M1.578-5.61H.562c.016.188.094.36.22.532l1.421 2.125L.593-.516C.485-.344.392-.187.376 0h.89l1.5-2.313h.016L4.312 0h.954a.947.947 0 00-.22-.516l-1.64-2.421 1.438-2.141c.125-.172.203-.344.234-.531h-.906L2.859-3.563h-.03zm0 0"/></symbol><symbol overflow="visible" id="cbc352e8A"><path d="M2.188-7.266h-.782l-.218 1.657H.39v.78h.843v3.188c0 1.344.407 1.766 1.313 1.766.422 0 .953-.078 1.437-.25l-.187-.719c-.344.094-.703.14-.906.14-.563 0-.704-.25-.704-1.187v-2.937h1.72v-.781h-1.72zm0 0"/></symbol><symbol overflow="visible" id="cbc352e8B"><path d="M1.266-2.625C.796-2.328.5-1.844.5-1.265c0 .859.563 1.39 1.469 1.39.687 0 1.36-.313 1.937-.828l.172.765.797-.124c-.094-1.188-.094-1.672-.094-2.11v-1.437c0-1.485-.531-2.125-1.734-2.125-.89 0-1.672.375-2.297.906l.344.594c.593-.407 1.218-.672 1.781-.672.703 0 .969.406.969 1.593v.079c-1.297.109-2.094.296-2.578.609zm.156 1.25c0-.36.172-.594.36-.734.296-.188.827-.329 2.062-.422v1.125c-.594.5-1.188.781-1.688.781-.453 0-.734-.266-.734-.75zm0 0"/></symbol><symbol overflow="visible" id="cbc352e8C"><path d="M1.89-9.016l-.937.032V-.97c0 .719.344 1.094.985 1.094.296 0 .625-.047.937-.188l-.203-.703a1.18 1.18 0 01-.438.079c-.25 0-.343-.157-.343-.532zm0 0"/></symbol><symbol overflow="visible" id="cbc352e8D"><path d="M1.172-.89c0 .25.062.437.187.578C.734.124.344.64.344 1.343c-.016 1.078.969 1.703 2.328 1.703 1.594 0 2.812-.797 2.812-2.11 0-1.109-.859-1.562-2.25-1.578-.734-.015-1.187-.062-1.187-.578 0-.203.094-.36.203-.531.156.016.328.031.5.031C4.203-1.719 5-2.64 5-3.766c0-.5-.156-.937-.469-1.28a4.024 4.024 0 011.078-.25l-.046-.829c-.625.031-1.125.313-1.5.672a2.515 2.515 0 00-1.188-.281C1.359-5.734.641-4.688.641-3.641c0 .735.359 1.391 1.046 1.704-.343.343-.515.656-.515 1.046zm2.922-2.813c0 .828-.516 1.25-1.282 1.25-.874 0-1.28-.5-1.28-1.297 0-.781.515-1.234 1.28-1.234.86 0 1.282.5 1.282 1.28zM1.219 1.234c0-.484.25-.859.718-1.187.313.094.672.11.985.11.984.015 1.687.124 1.687.905 0 .329-.14.61-.39.829-.328.265-.844.375-1.407.375-.953 0-1.593-.329-1.593-1.032zm0 0"/></symbol><symbol overflow="visible" id="cbc352e8E"><path d="M1.89-9.016l-.937.032V0h.938v-4.375c.53-.36 1.109-.563 1.687-.563.735 0 .953.47.953 1.47V0h.938v-3.813c0-1.25-.453-1.953-1.657-1.953-.703 0-1.343.235-1.921.672zm0 0"/></symbol><symbol overflow="visible" id="cbc352e8M"><path d="M5.516-.828H2.078v-7.219h-.953V0h4.422zm0 0"/></symbol><symbol overflow="visible" id="cbc352e8U"><path d="M1.125-7.984V0h.953v-3.281c.297.031.625.047.844.047.265 0 .484-.016.703-.047L5.406 0h1.032a8.004 8.004 0 00-.36-.75L4.547-3.5c1.062-.422 1.656-1.281 1.656-2.36 0-1.515-1.172-2.312-3.094-2.312-.593 0-1.312.078-1.984.188zm2 .671c1.328 0 2.078.5 2.078 1.547 0 .735-.39 1.204-.922 1.454a3.66 3.66 0 01-1.375.25c-.297 0-.547-.032-.828-.047v-3.11a6.493 6.493 0 011.047-.093zm0 0"/></symbol><symbol overflow="visible" id="cbc352e8V"><path d="M.64-2.688C.64-.843 1.688.126 3.079.126c.672 0 1.344-.14 2-.453L4.844-1a4.468 4.468 0 01-1.61.297c-.937 0-1.578-.563-1.64-1.86h3.531c.063-.296.078-.624.078-.921 0-1.282-.672-2.282-2.016-2.282-1.578 0-2.546 1.36-2.546 3.079zm2.47-2.28c.765 0 1.156.546 1.156 1.312 0 .125 0 .265-.016.406H1.61c.124-1.063.64-1.719 1.5-1.719zm0 0"/></symbol><symbol overflow="visible" id="cbc352e8W"><path d="M1.844-5.61l-.938.016v3.813c0 1.234.516 1.953 1.672 1.953.735 0 1.344-.328 1.89-.89l.173.765.78-.11c-.077-1.28-.093-1.656-.093-2.156v-3.39h-.953v4.187c-.516.469-1.031.781-1.563.781-.671 0-.968-.453-.968-1.484zm0 0"/></symbol><symbol overflow="visible" id="cbc352e8ae"><path d="M8.156-8.047H6.86L4.938-1.25H4.89l-.329-1.406-1.593-5.39H1.688L.78-.86C.75-.58.703-.25.687 0h.891l.797-6.75h.031l.36 1.453L4.312 0h1.141l1.938-6.734h.03l.157 1.453L8.25 0h.922c-.016-.25-.063-.531-.094-.797zm0 0"/></symbol><symbol overflow="visible" id="cbc352e8af"><path d="M.64-2.61C.64-1.03 1.532.173 2.782.173c.703 0 1.266-.36 1.766-.89l.156.765.797-.11c-.094-1.093-.094-1.578-.094-1.984v-6.969l-.953.032v3.609c-.39-.25-.75-.39-1.266-.39C1.47-5.766.626-4.157.642-2.61zm.97-.203c0-.703.156-1.374.562-1.78.234-.25.562-.36 1.047-.36a2.4 2.4 0 011.234.328v3.188c-.5.468-.984.796-1.516.796-.874 0-1.328-.921-1.328-2.171zm0 0"/></symbol><symbol overflow="visible" id="cbc352e8ag"><path d="M1.672-5.688l-.797.11c.094 1.234.094 1.734.094 2.172V0h.953v-4.219c.484-.406 1.016-.734 1.578-.734.656 0 .875.453.875 1.562V0h.922v-3.75c0-.172 0-.328-.016-.469.485-.406 1.032-.734 1.594-.734.656 0 .86.453.86 1.562V0h.952v-3.75c0-1.313-.453-2.016-1.562-2.016-.781 0-1.375.329-1.969.922-.218-.61-.656-.922-1.406-.922-.766 0-1.344.313-1.906.875zm0 0"/></symbol><symbol overflow="visible" id="cbc352e8ao"><path d="M.781-5.953C.781-4.563 1.906-4.11 3-3.687c.984.359 1.89.671 1.89 1.624 0 .985-.937 1.36-1.843 1.36a4.28 4.28 0 01-2.172-.61L.5-.578c.594.437 1.578.75 2.531.75 1.516 0 2.86-.75 2.86-2.313 0-1.468-1.235-1.906-2.391-2.343-.922-.344-1.719-.657-1.719-1.547 0-1.016.985-1.297 1.782-1.297.656 0 1.312.156 1.796.328l.282-.734c-.547-.282-1.313-.47-2.032-.47-1.406 0-2.828.673-2.828 2.25zm0 0"/></symbol><symbol overflow="visible" id="cbc352e8ap"><path d="M1.89-9.016l-.952.032v8.796a6.441 6.441 0 002.046.313c1.891 0 2.704-1.484 2.704-3.016 0-1.625-.782-2.875-2.188-2.875-.64 0-1.156.313-1.61.797zm1.454 4.063c.875 0 1.375.844 1.375 2.14 0 .782-.14 1.344-.61 1.797-.156.172-.546.344-1.046.344-.438 0-.813-.047-1.172-.14V-4.22c.421-.422.937-.734 1.453-.734zm0 0"/></symbol><symbol overflow="visible" id="cbc352e8ax"><path d="M1.125-7.984v7.937c.75.11 1.516.172 2.11.172 2.093 0 3.14-.984 3.14-2.422 0-1.094-.625-1.765-1.64-2 .812-.39 1.171-1.11 1.171-1.89 0-1.344-1.062-1.97-2.781-1.97-.625 0-1.328.063-2 .173zm2 .656c1.094 0 1.781.36 1.781 1.328 0 .453-.172.922-.61 1.172-.25.14-.593.234-1.109.234-.328 0-.671 0-1.093-.015V-7.25a8.25 8.25 0 011.031-.078zm.078 3.531c1.485 0 2.156.563 2.156 1.5 0 .485-.187.922-.609 1.235-.313.234-.734.359-1.438.359-.39 0-.78-.031-1.218-.078v-3c.39 0 .781-.016 1.11-.016zm0 0"/></symbol><symbol overflow="visible" id="cbc352e8aM"><path d="M.64-2.656C.64-.937 1.579.125 3.11.125c.53 0 1.156-.14 1.734-.406L4.625-1c-.5.203-1 .297-1.39.297-1.032 0-1.641-.656-1.641-2.078 0-.875.25-1.5.656-1.844.203-.156.484-.297.875-.297.469 0 .875.188 1.297.578l.469-.547c-.422-.546-.954-.843-1.704-.843-1.53 0-2.546 1.25-2.546 3.078zm0 0"/></symbol><symbol overflow="visible" id="cbc352e8aN"><path d="M5.484-5.61h-.953L1.906-2.655v-6.36l-.953.032V0h.953v-1.5l.875-.938L4.625 0h1.031a1.611 1.611 0 00-.297-.516L3.391-3.078l1.812-2.063c.156-.156.25-.312.281-.468zm0 0"/></symbol><symbol overflow="visible" id="cbc352e8s"><path d="M3.328-27.266V0h1.813v-11.313h7.875V0h1.828v-27.266h-1.828v14.282H5.14v-14.282zm0 0"/></symbol><symbol overflow="visible" id="cbc352e8t"><path d="M10.078-2.453l.36 2.594L11.905 0l-.36-4.344v-10.25c0-3.25-1.155-5.078-4.515-5.078-1.531 0-3.218.36-4.547.906l.344 1.375c1.156-.39 2.735-.78 4.11-.78 2.296 0 2.937 1.202 2.937 4v2.546H8.156c-3.61 0-6.437 1.61-6.437 6.344C1.719-1.641 3.187.39 5.984.39c2.625 0 3.579-1.97 4.094-2.844zm-1.922-7.703h1.719v5.922c-.563.984-1.578 3.078-3.688 3.078-1.812 0-2.75-1.407-2.75-4.157 0-3.78 1.876-4.843 4.72-4.843zm0 0"/></symbol><symbol overflow="visible" id="cbc352e8u"><path d="M7.203-5.36c3.547 0 4.875-1.812 4.875-7.14 0-2.313-.25-3.953-.812-5.11l2.062-1.843-.937-1.125-2.094 1.75c-.735-.594-1.75-.875-3.094-.875-3.531 0-4.89 1.89-4.89 7.203 0 3.953.765 5.984 2.593 6.766l-1.86 3.14.392.813c-.922.843-1.72 2.093-1.72 3.922 0 2.937 1.891 4.296 5.704 4.296 3.61 0 5.64-1.64 5.64-4.75 0-2.765-1.437-4.25-4.765-4.25H4.859l-.062-.124 1.578-2.704c.281.032.563.032.828.032zm0-1.468c-2.578 0-3.25-1.438-3.25-5.672 0-4.328.672-5.734 3.25-5.734 2.531 0 3.234 1.406 3.234 5.734 0 4.234-.671 5.672-3.234 5.672zm-3.875 8.89c0-1.609.594-2.515 1.36-3.14h3.296c2.407 0 3.454.656 3.454 2.766 0 2.203-1.329 3.25-4.016 3.25-2.797 0-4.094-.766-4.094-2.875zm0 0"/></symbol><symbol overflow="visible" id="cbc352e8w"><path d="M6.266-27.266L1.437 0H3.25l2-11.313h7.531L10.781 0h1.813l4.844-27.266h-1.829l-2.515 14.282H5.563l2.515-14.282zm0 0"/></symbol><symbol overflow="visible" id="cbc352e8x"><path d="M9-19.703c-3.688 0-5.5 2.547-6.313 7.031L1.579-6.516C.812-2.203 1.297.313 3.75.313c2.375 0 4.688-3.704 5.734-5.5-.14.64-.28 1.265-.39 1.796-.375 2.657.36 3.594 2.078 3.594.547 0 1.219-.14 1.531-.234l.25-1.297h-.984c-.656 0-1.078-.11-1.266-.453-.203-.422-.14-1.188.11-2.39l2.703-14.454c-.782-.422-2.563-1.078-4.516-1.078zM3.89-1.22c-1.156-.14-1.156-2.14-.593-5.218l1.078-6.157c.672-3.547 1.813-5.578 4.547-5.578.953 0 2.14.219 2.765.563L9.735-7.703C8.781-6.125 5.704-1.22 3.891-1.22zm0 0"/></symbol><symbol overflow="visible" id="cbc352e8y"><path d="M10.36-1.5l3.078-17.125c-.766-.422-2.516-1.078-4.485-1.078-3.703 0-5.484 2.594-6.297 7.062L1.641-6.859C.875-2.484 1.156.312 3.703.312c2.453 0 4.875-3.921 5.89-5.625l-.812 3.844c-.875 4.375-2.234 6.016-4.89 6.016-1.235 0-2.344-.281-3.22-.516L.282 5.36c.906.344 2 .766 3.64.766 3.423 0 5.5-2.14 6.438-7.625zm-6.47.281c-1.265-.11-1.124-2.343-.562-5.578l1.047-5.766c.625-3.578 1.86-5.609 4.438-5.609.984 0 2.14.219 2.765.563L9.734-7.703C8.641-5.953 5.672-1.22 3.891-1.22zm0 0"/></symbol><symbol overflow="visible" id="cbc352e8F"><path d="M3.156-27.328V0h2.375v-11.094h7.39V0h2.376v-27.328h-2.375v14.062h-7.39v-14.062zm0 0"/></symbol><symbol overflow="visible" id="cbc352e8G"><path d="M10.047-2.281l.39 2.453L12.36 0 12-4.547v-9.875c0-3.469-1.328-5.281-4.797-5.281-1.703 0-3.36.422-4.781.937l.453 1.75c1.188-.343 2.719-.687 4.094-.687 2.234 0 2.828 1.11 2.828 3.812v2.172H8.125c-3.75 0-6.516 1.75-6.516 6.36C1.61-1.5 3.22.42 6.063.42c2.546 0 3.453-1.859 3.984-2.702zM8.125-9.875h1.672v5.563c-.594.953-1.578 2.734-3.422 2.734-1.61 0-2.531-1.156-2.531-3.844 0-3.437 1.687-4.453 4.281-4.453zm0 0"/></symbol><symbol overflow="visible" id="cbc352e8H"><path d="M7.453-5.422c3.64 0 5.11-1.86 5.11-7.14 0-2.063-.204-3.61-.704-4.735L14-19.14l-1.188-1.547-2.203 1.75c-.78-.593-1.828-.843-3.156-.843-3.672 0-5.172 1.937-5.172 7.218 0 3.75.766 5.766 2.516 6.61L2.969-2.875l.469.953C2.515-1.047 1.64.25 1.64 2.062c0 3.047 1.89 4.516 6.03 4.516 3.735 0 5.876-1.719 5.876-4.969 0-2.937-1.547-4.437-5.047-4.437H5.312l-.03-.14 1.437-2.485c.218.031.484.031.734.031zm0-1.89c-2.375 0-3.016-1.266-3.016-5.25 0-4.063.641-5.329 3.016-5.329 2.344 0 2.984 1.266 2.984 5.328 0 3.985-.609 5.25-2.984 5.25zM3.75 1.921c0-1.39.484-2.234 1.11-2.86h3.077c2.532 0 3.5.547 3.5 2.579 0 2.109-1.28 3.015-3.765 3.015-2.625 0-3.922-.703-3.922-2.734zm0 0"/></symbol><symbol overflow="visible" id="cbc352e8J"><path d="M6.094-27.328L1.266 0H3.64l1.953-11.094h7.047L10.67 0h2.392l4.828-27.328H15.5l-2.484 14.062H5.984L8.47-27.328zm0 0"/></symbol><symbol overflow="visible" id="cbc352e8K"><path d="M9.14-19.781c-3.718 0-5.75 2.484-6.578 7.047L1.47-6.688C.672-2.14 1.359.282 3.78.282c2.453 0 4.578-3.438 5.672-5.22a17.96 17.96 0 00-.39 2C8.78-.703 9.515.204 11.342.204c.595 0 1.36-.172 1.72-.266l.312-1.687h-.844c-.672 0-1.187-.11-1.406-.39-.14-.376-.063-1.079.11-2.094l2.734-14.391c-.813-.422-2.735-1.156-4.828-1.156zM4.032-1.75C3.22-2 3.22-3.89 3.671-6.516l1.126-6.046c.594-3.391 1.75-5.22 4.297-5.22.844 0 1.937.22 2.453.485l-1.89 9.485C8.811-6.407 5.702-1.75 4.03-1.75zm0 0"/></symbol><symbol overflow="visible" id="cbc352e8L"><path d="M10.844-1.578l3.015-17.047c-.796-.422-2.687-1.156-4.796-1.156-3.813 0-5.704 2.531-6.5 7.047L1.546-7.031C.703-2.375 1.219.28 3.75.28c2.438 0 4.61-3.39 5.766-5.25L8.75-1.406c-.813 4.062-2.203 5.578-4.688 5.578-1.234 0-2.375-.25-3.328-.5L.313 5.453c.953.36 2.062.734 3.78.734 3.5 0 5.735-2.062 6.75-7.765zM4.03-1.75c-.922-.203-.812-2.203-.281-5.11l1.016-5.702c.625-3.36 1.812-5.188 4.156-5.188.906 0 1.969.188 2.515.453l-1.78 9.485C8.546-6.063 5.64-1.75 4.03-1.75zm0 0"/></symbol><symbol overflow="visible" id="cbc352e8N"><path d="M2.969-27.375V0h2.984v-10.89h6.86V0h2.968v-27.375h-2.969v13.828H5.954v-13.828zm0 0"/></symbol><symbol overflow="visible" id="cbc352e8O"><path d="M10.047-2.14l.422 2.343L12.875 0l-.422-4.766v-9.484c0-3.672-1.469-5.453-5.11-5.453-1.843 0-3.5.422-4.968.984l.531 2.157c1.266-.344 2.766-.688 4.125-.688 2.14 0 2.703 1.078 2.703 3.64v1.813H8.047c-3.813 0-6.547 1.828-6.547 6.344C1.5-1.36 3.219.422 6.094.422c2.515 0 3.422-1.719 3.953-2.563zm-2-7.422h1.687v5.156c-.64.968-1.578 2.375-3.156 2.375-1.39 0-2.312-.906-2.312-3.531 0-3.016 1.468-4 3.78-4zm0 0"/></symbol><symbol overflow="visible" id="cbc352e8P"><path d="M7.703-5.531c3.813 0 5.422-1.89 5.422-7.14 0-1.813-.203-3.25-.594-4.298l2.14-1.86-1.437-1.921-2.28 1.703c-.845-.515-1.923-.765-3.25-.765-3.782 0-5.423 1.89-5.423 7.14 0 3.531.735 5.563 2.406 6.485l-1.75 3.03.5 1.095C2.516-1.188 1.61.14 1.61 1.952 1.61 5.141 3.5 6.72 7.906 6.72c3.89 0 6.157-1.782 6.157-5.14 0-3.157-1.61-4.735-5.344-4.735H5.844l-.063-.14 1.282-2.267a4.4 4.4 0 00.64.032zm0-2.313C5.593-7.844 5-8.922 5-12.672S5.594-17.5 7.703-17.5c2.125 0 2.734 1.078 2.734 4.828s-.562 4.828-2.734 4.828zm-3.5 9.594c0-1.219.375-2 .906-2.563h2.829c2.625 0 3.546.422 3.546 2.391 0 2.031-1.328 2.766-3.578 2.766-2.406 0-3.703-.563-3.703-2.594zm0 0"/></symbol><symbol overflow="visible" id="cbc352e8R"><path d="M5.922-27.375L1.078 0h2.984l1.922-10.89H12.5L10.562 0h2.985l4.828-27.375h-2.969l-2.453 13.828H6.438L8.89-27.375zm0 0"/></symbol><symbol overflow="visible" id="cbc352e8S"><path d="M9.281-19.813c-3.781 0-5.984 2.422-6.828 7L1.406-6.859C.531-2.094 1.406.28 3.844.28c2.484 0 4.453-3.11 5.61-4.968-.22.765-.423 1.609-.454 2.203C8.89-.672 9.625.25 11.484.25c.625 0 1.532-.219 1.954-.313l.39-2.14h-.703c-.703 0-1.266-.078-1.5-.313-.078-.312-.078-.984.094-1.828l2.703-14.312c-.844-.422-2.875-1.157-5.14-1.157zM4.203-2.28c-.5-.344-.453-2.156-.078-4.328l1.094-5.954c.593-3.187 1.672-4.796 4.062-4.796.766 0 1.703.172 2.156.39L9.595-7.875c-.735 1.156-3.89 5.594-5.39 5.594zm0 0"/></symbol><symbol overflow="visible" id="cbc352e8T"><path d="M11.344-1.688l2.969-16.968c-.844-.422-2.876-1.157-5.172-1.157-3.891 0-5.922 2.454-6.72 7l-.983 5.61C.563-2.313 1.296.28 3.78.28c2.485 0 4.438-3.047 5.672-5L8.75-1.297c-.813 3.719-2.234 5-4.516 5-1.187 0-2.453-.203-3.421-.406l-.5 2.234c.984.344 2.14.703 4 .703 3.562 0 6.015-2 7.03-7.921zm-7.14-.593c-.532-.313-.5-2.094-.032-4.688l1.016-5.593C5.78-15.75 6.968-17.328 9-17.328c.875 0 1.813.14 2.313.39L9.624-7.905C8.437-6.125 5.594-2.281 4.203-2.281zm0 0"/></symbol><symbol overflow="visible" id="cbc352e8X"><path d="M2.797-27.406V0h3.5v-10.672h6.406V0h3.5v-27.406h-3.5v13.578H6.297v-13.578zm0 0"/></symbol><symbol overflow="visible" id="cbc352e8Y"><path d="M10.016-2l.453 2.25L13.297 0l-.422-4.938v-9.171c0-3.844-1.64-5.594-5.39-5.594-1.985 0-3.641.422-5.141.984l.594 2.547c1.296-.344 2.765-.656 4.124-.656 2.079 0 2.594 1.015 2.594 3.453v1.469h-1.64c-3.922 0-6.61 1.969-6.61 6.375C1.406-1.22 3.25.453 6.156.453c2.453 0 3.36-1.64 3.86-2.453zm-2-7.281h1.64v4.797C9-3.531 8.078-2.454 6.75-2.454c-1.188 0-2.094-.655-2.094-3.218 0-2.656 1.266-3.61 3.36-3.61zm0 0"/></symbol><symbol overflow="visible" id="cbc352e8Z"><path d="M7.938-5.594c3.921 0 5.64-1.937 5.64-7.14 0-1.61-.172-2.954-.515-3.954l2.234-1.859-1.688-2.281-2.375 1.719c-.843-.532-1.921-.766-3.296-.766-3.907 0-5.657 1.922-5.657 7.14 0 3.36.735 5.344 2.266 6.329l-1.64 2.968.562 1.204c-.953.906-1.89 2.296-1.89 4.125 0 3.296 1.89 4.937 6.577 4.937 3.985 0 6.375-1.828 6.375-5.328 0-3.313-1.687-4.89-5.61-4.89H6.298l-.063-.172 1.11-2.032h.593zm0-2.703c-1.922 0-2.485-.937-2.485-4.437s.563-4.454 2.484-4.454c1.97 0 2.5.954 2.5 4.454s-.53 4.437-2.5 4.437zM4.624 1.61c0-1.078.313-1.78.766-2.312h2.546c2.704 0 3.547.36 3.547 2.25 0 1.922-1.328 2.516-3.328 2.516-2.234 0-3.531-.454-3.531-2.454zm0 0"/></symbol><symbol overflow="visible" id="cbc352e8ab"><path d="M5.734-27.406L.906 0h3.5l1.89-10.672h6.063L10.47 0h3.5l4.828-27.406h-3.5l-2.375 13.578H6.859l2.375-13.578zm0 0"/></symbol><symbol overflow="visible" id="cbc352e8ac"><path d="M9.375-19.875c-3.813 0-6.188 2.375-7.031 7L1.297-7.031C.39-2.063 1.437.25 3.89.25c2.546 0 4.328-2.766 5.562-4.734-.25.812-.5 1.828-.5 2.421 0 1.438.735 2.313 2.672 2.313.656 0 1.672-.219 2.172-.36l.453-2.515h-.594c-.703 0-1.375-.031-1.61-.25-.046-.281-.046-.875.095-1.531l2.703-14.25c-.875-.422-3.047-1.219-5.469-1.219zM4.344-2.765c-.172-.454-.14-2.172.172-3.922l1.078-5.875c.562-3.016 1.61-4.407 3.86-4.407.655 0 1.5.14 1.89.282L9.516-7.985C8.89-6.97 5.703-2.766 4.344-2.766zm0 0"/></symbol><symbol overflow="visible" id="cbc352e8ad"><path d="M11.797-1.75l2.906-16.906c-.875-.422-3.047-1.219-5.469-1.219-3.984 0-6.125 2.406-6.921 7l-.985 5.484C.422-2.203 1.36.25 3.812.25c2.516 0 4.235-2.563 5.563-4.625l-.656 3.156c-.735 3.422-2.203 4.547-4.313 4.547-1.187 0-2.515-.172-3.531-.36L.312 5.595c1.016.36 2.25.703 4.172.703 3.594 0 6.266-1.953 7.313-8.047zM4.344-2.766c-.219-.39-.219-1.953.203-4.265l1.016-5.532c.562-3.015 1.718-4.374 3.5-4.374.843 0 1.687.109 2.109.28l-1.61 8.641c-1.234 1.782-4 5.25-5.218 5.25zm0 0"/></symbol><symbol overflow="visible" id="cbc352e8ah"><path d="M2.563-27.406V0H6.75v-10.39h5.563V0h4.203v-27.406h-4.203v13.297H6.75v-13.297zm0 0"/></symbol><symbol overflow="visible" id="cbc352e8ai"><path d="M10.016-1.86l.453 2.141L13.719 0l-.422-5v-8.828c0-4.063-1.781-5.875-5.672-5.875-2.031 0-3.781.39-5.422.937l.594 3.016c1.328-.344 2.797-.672 4.172-.672 2.031 0 2.547.922 2.547 3.266v1.219h-1.47c-4.155 0-6.78 1.968-6.78 6.406 0 4.234 1.843 5.984 4.828 5.984 2.453 0 3.422-1.531 3.922-2.312zm-1.97-7.202h1.47v4.546c-.594.766-1.36 1.688-2.579 1.688-1.093 0-1.89-.672-1.89-2.953 0-2.438 1.11-3.282 3-3.282zm0 0"/></symbol><symbol overflow="visible" id="cbc352e8aj"><path d="M8.016-5.672c4.203 0 5.984-1.953 5.984-7.11 0-1.421-.14-2.624-.422-3.593l2.14-1.89-1.859-2.563-2.421 1.64c-.876-.484-2.016-.687-3.422-.687C3.812-19.875 2-17.922 2-12.781c0 3.297.734 5.25 2.344 6.265L2.656-3.53l.594 1.219C2.312-1.406 1.328 0 1.328 1.859c0 3.329 2 5 6.797 5 4.375 0 6.781-2 6.781-5.53 0-3.36-1.781-4.938-5.812-4.938H6.547l-.078-.172 1.015-1.89h.532zm0-2.937c-1.75 0-2.235-.875-2.235-4.172 0-3.281.485-4.125 2.235-4.125 1.78 0 2.203.843 2.203 4.125 0 3.297-.422 4.172-2.203 4.172zM4.859 1.5c0-.938.282-1.563.704-2.094h2.421c2.375 0 3.282.281 3.282 2.031s-1.25 2.266-3.141 2.266c-2.031 0-3.266-.406-3.266-2.203zm0 0"/></symbol><symbol overflow="visible" id="cbc352e8al"><path d="M5.453-27.406L.625 0h4.203l1.828-10.39h5.203L10.047 0h4.203l4.828-27.406h-4.203L12.531-14.11H7.312l2.344-13.297zm0 0"/></symbol><symbol overflow="visible" id="cbc352e8am"><path d="M9.375-19.875c-3.984 0-6.406 2.266-7.234 7.031L1.078-6.938C.203-2.03 1.328.282 3.984.282c2.313 0 3.954-2.141 5.11-3.891-.094.671-.203 1.375-.14 1.828C9.093-.484 9.936.28 11.718.28c.734 0 1.75-.219 2.312-.344l.531-3.015h-.671c-.594 0-1.188-.031-1.438-.172 0-.313 0-.844.14-1.438l2.626-13.937c-1.047-.484-3.39-1.25-5.844-1.25zM4.719-3.187c-.094-.485-.032-1.954.218-3.47l1.079-5.984c.5-2.656 1.406-3.953 3.328-3.953.594 0 1.328.11 1.719.25l-1.86 8.89c-.562.876-3.281 4.266-4.484 4.266zm0 0"/></symbol><symbol overflow="visible" id="cbc352e8an"><path d="M12.219-2l2.86-16.625c-1.048-.484-3.36-1.25-5.767-1.25-4.203 0-6.374 2.313-7.218 7.031l-.938 5.39C.25-2.312 1.22.142 3.922.142c2.375 0 3.984-2.235 5.219-4.032l-.594 2.594c-.735 3.25-2.25 4.313-4.344 4.313-1.156 0-2.422-.188-3.36-.36L.142 5.734c1.015.36 2.421.735 4.265.735C8.5 6.469 11.125 4.172 12.22-2zM4.766-3.328C4.625-3.75 4.656-5.11 5-7.031l.984-5.61c.532-2.687 1.47-3.921 3.079-3.921.734 0 1.437.078 1.828.25L9.28-7.595c-1.094 1.5-3.469 4.266-4.515 4.266zm0 0"/></symbol><symbol overflow="visible" id="cbc352e8aq"><path d="M2.281-27.438V0H7.25v-10.078h4.688V0h4.968v-27.438h-4.968v13.016H7.25v-13.015zm0 0"/></symbol><symbol overflow="visible" id="cbc352e8ar"><path d="M10.016-1.688l.453 1.97L14.203 0l-.406-5.047v-8.5c0-4.265-1.938-6.187-6.031-6.187-2.094 0-3.922.343-5.735.968l.625 3.438c1.375-.313 2.875-.625 4.203-.625 1.954 0 2.563.765 2.563 3.031V-12H8.078c-4.406 0-6.922 1.953-6.922 6.438 0 4.156 1.813 6.046 4.86 6.046 2.453 0 3.5-1.468 4-2.171zM8.125-8.858h1.297v4.312c-.563.594-1.235 1.328-2.281 1.328-.985 0-1.641-.672-1.641-2.656 0-2.25.906-2.984 2.625-2.984zm0 0"/></symbol><symbol overflow="visible" id="cbc352e8as"><path d="M8.078-5.703c4.485 0 6.344-2.031 6.344-7.078 0-1.25-.11-2.344-.36-3.25l2.141-1.953-2.094-2.844-2.453 1.61c-.906-.485-2.094-.704-3.578-.704-4.469 0-6.36 2.078-6.36 7.14 0 3.157.735 5.11 2.376 6.173l-1.672 3 .594 1.234c-.954.906-1.97 2.344-1.97 4.234 0 3.329 2.11 5.032 7.079 5.032 4.75 0 7.172-2.172 7.172-5.766 0-3.36-1.86-4.969-6.016-4.969H6.797L6.75-4.03l.844-1.672h.484zm0-3.219c-1.562 0-1.922-.812-1.922-3.86 0-3.077.36-3.843 1.922-3.843 1.61 0 1.938.766 1.938 3.844 0 3.047-.329 3.86-1.938 3.86zM5.141 1.438c0-.875.25-1.438.593-1.922h2.25c2.094 0 3.047.234 3.047 1.843 0 1.516-1.203 2-2.906 2-1.86 0-2.984-.421-2.984-1.921zm0 0"/></symbol><symbol overflow="visible" id="cbc352e8au"><path d="M5.14-27.438L.314 0H5.28l1.782-10.078h4.312L9.594 0h4.969l4.828-27.438h-4.97l-2.28 13.016H7.844l2.265-13.015zm0 0"/></symbol><symbol overflow="visible" id="cbc352e8av"><path d="M9.375-19.922c-4.156 0-6.61 2.219-7.453 7.078L.875-6.859C0-2 1.265.28 4.125.28c2.11 0 3.64-1.578 4.734-3.11-.046.517-.046 1.017.094 1.392C9.234-.345 10.188.28 11.797.28c.875 0 1.86-.219 2.484-.344l.625-3.5h-.765c-.454 0-.954-.046-1.188-.14.031-.328.031-.781.14-1.297l2.548-13.625c-1.22-.516-3.813-1.297-6.266-1.297zM5.141-3.64c-.032-.562.078-1.75.28-2.937l1.095-6.125c.421-2.313 1.109-3.469 2.765-3.469.485 0 1.11.11 1.422.219L8.891-6.86c-.485.703-2.766 3.218-3.75 3.218zm0 0"/></symbol><symbol overflow="visible" id="cbc352e8aw"><path d="M12.672-2.234L15.5-18.625c-1.25-.563-3.672-1.297-6.156-1.297-4.375 0-6.61 2.25-7.453 7.078L.984-7.53C.063-2.375 1.047.03 3.984.03c2.282 0 3.72-1.843 4.829-3.328l-.454 1.938c-.765 3.078-2.265 3.984-4.375 3.984-1.156 0-2.343-.14-3.218-.344l-.797 3.563c1.015.422 2.594.812 4.375.812 4.61 0 7.234-2.672 8.328-8.89zM5.219-3.922c-.078-.515 0-1.64.281-3.11l.969-5.671c.422-2.344 1.203-3.438 2.625-3.438.594 0 1.156.078 1.469.188L8.921-7.141c-.875 1.157-2.828 3.22-3.703 3.22zm0 0"/></symbol><symbol overflow="visible" id="cbc352e8ay"><path d="M2-27.469V0h5.766v-9.734h3.75V0h5.78v-27.469h-5.78v12.703h-3.75v-12.703zm0 0"/></symbol><symbol overflow="visible" id="cbc352e8az"><path d="M9.969-1.5l.469 1.813L14.733 0l-.421-5.11v-8.124c0-4.47-2.094-6.547-6.407-6.547-2.125 0-4.093.328-6.093.984l.703 3.922c1.406-.313 2.906-.594 4.203-.594 1.89 0 2.562.625 2.562 2.828v.563H8.156c-4.687 0-7.14 1.969-7.14 6.484C1.016-1.5 2.828.531 5.922.531 8.359.531 9.516-.844 9.969-1.5zM8.188-8.64H9.28v4.015c-.5.453-1.015.984-1.89.984s-1.438-.671-1.438-2.375c0-2 .734-2.625 2.234-2.625zm0 0"/></symbol><symbol overflow="visible" id="cbc352e8aA"><path d="M8.156-5.781c4.797 0 6.719-2.063 6.719-7.032 0-1.078-.11-2.03-.281-2.874l2.094-2.016-2.344-3.125-2.438 1.578c-.984-.484-2.219-.703-3.75-.703-4.797 0-6.719 2.172-6.719 7.14 0 3.047.735 5 2.375 6.063l-1.64 3.047.594 1.219c-.954.937-2 2.421-2 4.296 0 3.329 2.171 5.157 7.312 5.157 5.188 0 7.64-2.39 7.64-6.094 0-3.36-1.968-5-6.234-5H7.063l-.032-.188.735-1.468h.39zm0-3.5c-1.406 0-1.61-.688-1.61-3.531 0-2.829.204-3.5 1.61-3.5 1.406 0 1.64.671 1.64 3.5 0 2.843-.233 3.53-1.64 3.53zM5.453 1.329c0-.735.188-1.22.5-1.673h2.063c1.78 0 2.765.172 2.765 1.61 0 1.296-1.125 1.703-2.703 1.703-1.64 0-2.625-.406-2.625-1.64zm0 0"/></symbol><symbol overflow="visible" id="cbc352e8aC"><path d="M4.797-27.469L-.031 0h5.765l1.72-9.734h3.39L9.14 0h5.765l4.828-27.469H13.97l-2.25 12.703h-3.39l2.233-12.703zm0 0"/></symbol><symbol overflow="visible" id="cbc352e8aD"><path d="M9.375-19.953c-4.375 0-6.813 2.14-7.688 7.14L.625-6.75C-.203-1.922 1.156.313 4.265.313c1.923 0 3.36-1.125 4.344-2.454.079.422.141.782.313 1.063.5.906 1.515 1.39 2.984 1.39.969 0 1.953-.203 2.625-.343l.735-4.063h-.844c-.36 0-.703 0-.953-.078.047-.312.078-.734.14-1.14l2.454-13.266c-1.391-.64-4.204-1.375-6.688-1.375zM5.594-4.125c.047-.594.14-1.516.328-2.39L7-12.782c.344-1.953.844-2.938 2.172-2.938.39 0 .937.078 1.187.14L8.547-6.233c-.39.53-2.172 2.109-2.953 2.109zm0 0"/></symbol><symbol overflow="visible" id="cbc352e8aE"><path d="M13.125-2.484l2.828-16.094c-1.5-.672-4.015-1.375-6.531-1.375-4.594 0-6.906 2.172-7.735 7.14L.766-7.625C-.11-2.485.844-.062 4.094-.062c2.062 0 3.39-1.438 4.375-2.563l-.313 1.188C7.391 1.469 5.875 2.233 3.75 2.233c-1.125 0-2.25-.14-3.047-.343l-.906 4.093c1.016.454 2.765.844 4.469.844 5.156 0 7.78-3.047 8.859-9.312zM5.672-4.516c.031-.625.14-1.5.312-2.546L7-12.782c.313-1.984.906-2.937 2.14-2.937.422 0 .829.078 1.11.14L8.578-6.655c-.672.812-2.203 2.14-2.906 2.14zm0 0"/></symbol><symbol overflow="visible" id="cbc352e8aF"><path d="M1.75-27.469V0h6.469v-9.453h2.906V0h6.484v-27.469h-6.484v12.422H8.219v-12.422zm0 0"/></symbol><symbol overflow="visible" id="cbc352e8aG"><path d="M9.969-1.36l.469 1.704L15.155 0l-.422-5.188v-7.765c0-4.688-2.234-6.828-6.687-6.828-2.172 0-4.235.281-6.36.953l.688 4.375c1.438-.313 2.938-.594 4.234-.594 1.86 0 2.532.516 2.532 2.625v.313h-.954C3.25-12.11.875-10.156.875-5.594.875-1.578 2.688.531 5.844.531c2.453 0 3.672-1.265 4.125-1.89zm-1.75-7.077h.922v3.78c-.422.282-.813.626-1.579.626-.765 0-1.234-.657-1.234-2.094 0-1.781.61-2.313 1.89-2.313zm0 0"/></symbol><symbol overflow="visible" id="cbc352e8aH"><path d="M8.219-5.844c5.078 0 7.078-2.093 7.078-7 0-.953-.078-1.781-.25-2.515l2.062-2.079-2.515-3.39-2.485 1.547c-1.015-.453-2.312-.672-3.89-.672-5.063 0-7.063 2.203-7.063 7.11 0 2.968.735 4.905 2.453 5.984L1.922-3.813l.64 1.25C1.641-1.64.533-.14.533 1.782.531 5.141 2.796 7 8.046 7c5.562 0 8.047-2.563 8.047-6.297 0-3.39-2.063-5.047-6.438-5.047H7.312l-.03-.172.624-1.328h.313zm0-3.75c-1.219 0-1.36-.625-1.36-3.25S7-16.03 8.22-16.03c1.234 0 1.375.562 1.375 3.187s-.14 3.25-1.375 3.25zM5.703 1.22c0-.625.14-1.047.422-1.469h1.922c1.469 0 2.515.11 2.515 1.406 0 1.125-1.046 1.469-2.515 1.469-1.438 0-2.344-.39-2.344-1.406zm0 0"/></symbol><symbol overflow="visible" id="cbc352e8aJ"><path d="M4.516-27.469L-.313 0h6.47l1.655-9.453h2.547L8.72 0h6.469l4.828-27.469h-6.47l-2.171 12.422H8.812l2.172-12.422zm0 0"/></symbol><symbol overflow="visible" id="cbc352e8aK"><path d="M9.375-19.953c-4.547 0-7.031 2.031-7.906 7.172L.422-6.656c-.813 4.765.625 7 3.953 7 1.781 0 3.188-.797 4.094-1.922.11.281.25.562.453.766.64.78 1.75 1.156 3.078 1.156 1.063 0 2.031-.203 2.766-.344l.812-4.547h-1.687c.078-.36.109-.703.171-1.047l2.391-12.953c-1.578-.703-4.547-1.406-7.078-1.406zM5.985-4.547c.109-.64.25-1.297.343-1.922l1.094-6.375c.281-1.61.625-2.484 1.64-2.484.313 0 .766.031 1.016.11l-1.86 9.515c-.312.39-1.64 1.156-2.234 1.156zm0 0"/></symbol><symbol overflow="visible" id="cbc352e8aL"><path d="M13.547-2.734l2.797-15.813c-1.672-.734-4.344-1.406-6.86-1.406-4.796 0-7.14 2.062-8.015 7.172L.594-7.703c-.875 5.11.11 7.531 3.61 7.531 1.89 0 3.077-1.094 3.952-1.922l-.172.594c-.78 2.719-2.312 3.422-4.453 3.422-1.078 0-2.125-.14-2.86-.344L-.39 6.125C.625 6.578 2.563 7 4.203 7c5.625 0 8.219-3.39 9.344-9.734zM6.094-5.078c.093-.656.234-1.328.343-1.984l.985-5.782c.281-1.687.656-2.484 1.719-2.484.312 0 .593.031.828.11L8.297-6.235c-.531.53-1.688 1.156-2.203 1.156zm0 0"/></symbol></defs><use xlink:href="#cbc352e8a" x="50.6325" y="73.33333"/><use xlink:href="#cbc352e8b" x="68.4825" y="73.33333"/><use xlink:href="#cbc352e8c" x="82.4125" y="73.33333"/><use xlink:href="#cbc352e8d" x="96.2725" y="73.33333"/><use xlink:href="#cbc352e8e" x="103.2725" y="73.33333"/><use xlink:href="#cbc352e8f" x="120.4225" y="73.33333"/><use xlink:href="#cbc352e8g" x="134.9825" y="73.33333"/><use xlink:href="#cbc352e8h" x="66.046" y="110" fill="#b7b7b7"/><use xlink:href="#cbc352e8i" x="72.802" y="110" fill="#b7b7b7"/><g fill="#b7b7b7"><use xlink:href="#cbc352e8j" x="78.37" y="110"/><use xlink:href="#cbc352e8k" x="84.622" y="110"/><use xlink:href="#cbc352e8l" x="89.002" y="110"/></g><g fill="#b7b7b7"><use xlink:href="#cbc352e8m" x="94.618" y="110"/><use xlink:href="#cbc352e8n" x="97.21" y="110"/><use xlink:href="#cbc352e8o" x="103.93" y="110"/><use xlink:href="#cbc352e8m" x="110.29" y="110"/></g><g fill="#b7b7b7"><use xlink:href="#cbc352e8p" x="112.57" y="110"/><use xlink:href="#cbc352e8q" x="124.702" y="110"/><use xlink:href="#cbc352e8r" x="127.558" y="110"/></g><use xlink:href="#cbc352e8s" x="49.705" y="183.33333"/><use xlink:href="#cbc352e8t" x="67.87" y="183.33333"/><use xlink:href="#cbc352e8u" x="82.115" y="183.33333"/><use xlink:href="#cbc352e8v" x="96.5" y="183.33333"/><use xlink:href="#cbc352e8w" x="103.22" y="183.33333"/><use xlink:href="#cbc352e8x" x="120.685" y="183.33333"/><use xlink:href="#cbc352e8y" x="135.63" y="183.33333"/><use xlink:href="#cbc352e8h" x="52.204" y="220" fill="#b7b7b7"/><use xlink:href="#cbc352e8i" x="58.96" y="220" fill="#b7b7b7"/><g fill="#b7b7b7"><use xlink:href="#cbc352e8j" x="64.528" y="220"/><use xlink:href="#cbc352e8k" x="70.78" y="220"/><use xlink:href="#cbc352e8l" x="75.16" y="220"/></g><g fill="#b7b7b7"><use xlink:href="#cbc352e8m" x="80.776" y="220"/><use xlink:href="#cbc352e8n" x="83.368" y="220"/><use xlink:href="#cbc352e8o" x="90.088" y="220"/><use xlink:href="#cbc352e8m" x="96.448" y="220"/><use xlink:href="#cbc352e8o" x="99.04" y="220"/><use xlink:href="#cbc352e8z" x="105.4" y="220"/><use xlink:href="#cbc352e8A" x="111.04" y="220"/><use xlink:href="#cbc352e8k" x="115.348" y="220"/></g><g fill="#b7b7b7"><use xlink:href="#cbc352e8B" x="119.512" y="220"/><use xlink:href="#cbc352e8C" x="125.212" y="220"/><use xlink:href="#cbc352e8q" x="128.308" y="220"/><use xlink:href="#cbc352e8D" x="131.164" y="220"/><use xlink:href="#cbc352e8E" x="137.104" y="220"/><use xlink:href="#cbc352e8A" x="143.488" y="220"/></g><use xlink:href="#cbc352e8F" x="48.865" y="293.33333"/><use xlink:href="#cbc352e8G" x="67.31" y="293.33333"/><use xlink:href="#cbc352e8H" x="81.835" y="293.33333"/><use xlink:href="#cbc352e8I" x="96.675" y="293.33333"/><use xlink:href="#cbc352e8J" x="103.15" y="293.33333"/><use xlink:href="#cbc352e8K" x="120.895" y="293.33333"/><use xlink:href="#cbc352e8L" x="136.19" y="293.33333"/><use xlink:href="#cbc352e8h" x="63.922" y="330" fill="#b7b7b7"/><use xlink:href="#cbc352e8i" x="70.678" y="330" fill="#b7b7b7"/><g fill="#b7b7b7"><use xlink:href="#cbc352e8j" x="76.246" y="330"/><use xlink:href="#cbc352e8k" x="82.498" y="330"/><use xlink:href="#cbc352e8l" x="86.878" y="330"/></g><g fill="#b7b7b7"><use xlink:href="#cbc352e8m" x="92.494" y="330"/><use xlink:href="#cbc352e8n" x="95.086" y="330"/><use xlink:href="#cbc352e8o" x="101.806" y="330"/><use xlink:href="#cbc352e8m" x="108.166" y="330"/><use xlink:href="#cbc352e8M" x="110.758" y="330"/><use xlink:href="#cbc352e8q" x="116.59" y="330"/><use xlink:href="#cbc352e8D" x="119.446" y="330"/><use xlink:href="#cbc352e8E" x="125.386" y="330"/><use xlink:href="#cbc352e8A" x="131.77" y="330"/></g><use xlink:href="#cbc352e8N" x="47.9725" y="403.33333"/><use xlink:href="#cbc352e8O" x="66.6975" y="403.33333"/><use xlink:href="#cbc352e8P" x="81.5375" y="403.33333"/><use xlink:href="#cbc352e8Q" x="96.9025" y="403.33333"/><use xlink:href="#cbc352e8R" x="103.0975" y="403.33333"/><use xlink:href="#cbc352e8S" x="121.1225" y="403.33333"/><use xlink:href="#cbc352e8T" x="136.8025" y="403.33333"/><use xlink:href="#cbc352e8h" x="57.586" y="440" fill="#b7b7b7"/><use xlink:href="#cbc352e8i" x="64.342" y="440" fill="#b7b7b7"/><g fill="#b7b7b7"><use xlink:href="#cbc352e8j" x="69.91" y="440"/><use xlink:href="#cbc352e8k" x="76.162" y="440"/><use xlink:href="#cbc352e8l" x="80.542" y="440"/></g><g fill="#b7b7b7"><use xlink:href="#cbc352e8m" x="86.158" y="440"/><use xlink:href="#cbc352e8n" x="88.75" y="440"/><use xlink:href="#cbc352e8o" x="95.47" y="440"/><use xlink:href="#cbc352e8m" x="101.83" y="440"/><use xlink:href="#cbc352e8U" x="104.422" y="440"/></g><g fill="#b7b7b7"><use xlink:href="#cbc352e8V" x="111.154" y="440"/><use xlink:href="#cbc352e8D" x="116.998" y="440"/><use xlink:href="#cbc352e8W" x="122.938" y="440"/><use xlink:href="#cbc352e8C" x="129.238" y="440"/><use xlink:href="#cbc352e8B" x="132.334" y="440"/><use xlink:href="#cbc352e8k" x="138.034" y="440"/></g><use xlink:href="#cbc352e8X" x="47.15" y="513.33333"/><use xlink:href="#cbc352e8Y" x="66.155" y="513.33333"/><use xlink:href="#cbc352e8Z" x="81.275" y="513.33333"/><use xlink:href="#cbc352e8aa" x="97.095" y="513.33333"/><use xlink:href="#cbc352e8ab" x="103.045" y="513.33333"/><use xlink:href="#cbc352e8ac" x="121.35" y="513.33333"/><use xlink:href="#cbc352e8ad" x="137.38" y="513.33333"/><use xlink:href="#cbc352e8h" x="56.182" y="550" fill="#b7b7b7"/><use xlink:href="#cbc352e8i" x="62.938" y="550" fill="#b7b7b7"/><g fill="#b7b7b7"><use xlink:href="#cbc352e8j" x="68.506" y="550"/><use xlink:href="#cbc352e8k" x="74.758" y="550"/><use xlink:href="#cbc352e8l" x="79.138" y="550"/></g><g fill="#b7b7b7"><use xlink:href="#cbc352e8m" x="84.754" y="550"/><use xlink:href="#cbc352e8n" x="87.346" y="550"/><use xlink:href="#cbc352e8o" x="94.066" y="550"/><use xlink:href="#cbc352e8m" x="100.426" y="550"/><use xlink:href="#cbc352e8ae" x="103.018" y="550"/></g><g fill="#b7b7b7"><use xlink:href="#cbc352e8V" x="112.846" y="550"/><use xlink:href="#cbc352e8af" x="118.69" y="550"/><use xlink:href="#cbc352e8q" x="125.062" y="550"/><use xlink:href="#cbc352e8W" x="127.918" y="550"/><use xlink:href="#cbc352e8ag" x="134.218" y="550"/></g><use xlink:href="#cbc352e8ah" x="46.87" y="623.33333"/><use xlink:href="#cbc352e8ai" x="65.945" y="623.33333"/><use xlink:href="#cbc352e8aj" x="81.31" y="623.33333"/><use xlink:href="#cbc352e8ak" x="97.34" y="623.33333"/><g><use xlink:href="#cbc352e8al" x="103.115" y="623.33333"/><use xlink:href="#cbc352e8am" x="121.42" y="623.33333"/><use xlink:href="#cbc352e8an" x="137.59" y="623.33333"/></g><g fill="#b7b7b7"><use xlink:href="#cbc352e8h" x="53.188" y="660"/></g><g fill="#b7b7b7"><use xlink:href="#cbc352e8i" x="59.944" y="660"/></g><g fill="#b7b7b7"><use xlink:href="#cbc352e8j" x="65.512" y="660"/><use xlink:href="#cbc352e8k" x="71.764" y="660"/><use xlink:href="#cbc352e8l" x="76.144" y="660"/></g><g fill="#b7b7b7"><use xlink:href="#cbc352e8m" x="81.76" y="660"/><use xlink:href="#cbc352e8n" x="84.352" y="660"/><use xlink:href="#cbc352e8o" x="91.072" y="660"/><use xlink:href="#cbc352e8m" x="97.432" y="660"/><use xlink:href="#cbc352e8ao" x="100.024" y="660"/><use xlink:href="#cbc352e8V" x="106.48" y="660"/><use xlink:href="#cbc352e8ag" x="112.324" y="660"/><use xlink:href="#cbc352e8q" x="121.924" y="660"/><use xlink:href="#cbc352e8ap" x="124.78" y="660"/><use xlink:href="#cbc352e8j" x="131.092" y="660"/><use xlink:href="#cbc352e8C" x="137.344" y="660"/><use xlink:href="#cbc352e8af" x="140.44" y="660"/></g><g><use xlink:href="#cbc352e8aq" x="46.5025" y="733.33333"/><use xlink:href="#cbc352e8ar" x="65.6825" y="733.33333"/><use xlink:href="#cbc352e8as" x="81.3275" y="733.33333"/><use xlink:href="#cbc352e8at" x="97.6025" y="733.33333"/></g><g><use xlink:href="#cbc352e8au" x="103.2025" y="733.33333"/><use xlink:href="#cbc352e8av" x="121.5075" y="733.33333"/><use xlink:href="#cbc352e8aw" x="137.8525" y="733.33333"/></g><g fill="#b7b7b7"><use xlink:href="#cbc352e8h" x="65.23" y="770"/></g><g fill="#b7b7b7"><use xlink:href="#cbc352e8i" x="71.986" y="770"/></g><g fill="#b7b7b7"><use xlink:href="#cbc352e8j" x="77.554" y="770"/><use xlink:href="#cbc352e8k" x="83.806" y="770"/><use xlink:href="#cbc352e8l" x="88.186" y="770"/></g><g fill="#b7b7b7"><use xlink:href="#cbc352e8m" x="93.802" y="770"/><use xlink:href="#cbc352e8n" x="96.394" y="770"/><use xlink:href="#cbc352e8o" x="103.114" y="770"/><use xlink:href="#cbc352e8m" x="109.474" y="770"/><use xlink:href="#cbc352e8ax" x="112.066" y="770"/><use xlink:href="#cbc352e8j" x="119.05" y="770"/><use xlink:href="#cbc352e8C" x="125.302" y="770"/><use xlink:href="#cbc352e8af" x="128.398" y="770"/></g><g><use xlink:href="#cbc352e8ay" x="46.1" y="843.33333"/><use xlink:href="#cbc352e8az" x="65.385" y="843.33333"/><use xlink:href="#cbc352e8aA" x="81.345" y="843.33333"/><use xlink:href="#cbc352e8aB" x="97.9" y="843.33333"/></g><g><use xlink:href="#cbc352e8aC" x="103.325" y="843.33333"/><use xlink:href="#cbc352e8aD" x="121.63" y="843.33333"/><use xlink:href="#cbc352e8aE" x="138.15" y="843.33333"/></g><g fill="#b7b7b7"><use xlink:href="#cbc352e8h" x="52.48" y="880"/></g><g fill="#b7b7b7"><use xlink:href="#cbc352e8i" x="59.236" y="880"/></g><g fill="#b7b7b7"><use xlink:href="#cbc352e8j" x="64.804" y="880"/><use xlink:href="#cbc352e8k" x="71.056" y="880"/><use xlink:href="#cbc352e8l" x="75.436" y="880"/></g><g fill="#b7b7b7"><use xlink:href="#cbc352e8m" x="81.052" y="880"/><use xlink:href="#cbc352e8n" x="83.644" y="880"/><use xlink:href="#cbc352e8o" x="90.364" y="880"/><use xlink:href="#cbc352e8m" x="96.724" y="880"/><use xlink:href="#cbc352e8o" x="99.316" y="880"/><use xlink:href="#cbc352e8z" x="105.676" y="880"/><use xlink:href="#cbc352e8A" x="111.316" y="880"/><use xlink:href="#cbc352e8k" x="115.624" y="880"/></g><g fill="#b7b7b7"><use xlink:href="#cbc352e8B" x="119.788" y="880"/><use xlink:href="#cbc352e8ap" x="125.488" y="880"/><use xlink:href="#cbc352e8j" x="131.8" y="880"/><use xlink:href="#cbc352e8C" x="138.052" y="880"/><use xlink:href="#cbc352e8af" x="141.148" y="880"/></g><g><use xlink:href="#cbc352e8aF" x="45.82" y="953.33333"/><use xlink:href="#cbc352e8aG" x="65.175" y="953.33333"/><use xlink:href="#cbc352e8aH" x="81.38" y="953.33333"/><use xlink:href="#cbc352e8aI" x="98.145" y="953.33333"/></g><g><use xlink:href="#cbc352e8aJ" x="103.395" y="953.33333"/><use xlink:href="#cbc352e8aK" x="121.7" y="953.33333"/><use xlink:href="#cbc352e8aL" x="138.36" y="953.33333"/></g><g fill="#b7b7b7"><use xlink:href="#cbc352e8h" x="63.064" y="990"/></g><g fill="#b7b7b7"><use xlink:href="#cbc352e8i" x="69.82" y="990"/></g><g fill="#b7b7b7"><use xlink:href="#cbc352e8j" x="75.388" y="990"/><use xlink:href="#cbc352e8k" x="81.64" y="990"/><use xlink:href="#cbc352e8l" x="86.02" y="990"/></g><g fill="#b7b7b7"><use xlink:href="#cbc352e8m" x="91.636" y="990"/><use xlink:href="#cbc352e8n" x="94.228" y="990"/><use xlink:href="#cbc352e8o" x="100.948" y="990"/><use xlink:href="#cbc352e8m" x="107.308" y="990"/><use xlink:href="#cbc352e8ax" x="109.9" y="990"/></g><g fill="#b7b7b7"><use xlink:href="#cbc352e8C" x="116.872" y="990"/><use xlink:href="#cbc352e8B" x="119.968" y="990"/><use xlink:href="#cbc352e8aM" x="125.668" y="990"/><use xlink:href="#cbc352e8aN" x="131.02" y="990"/></g></svg>