<?xml version='1.0' encoding='UTF-8'?>
<svg xmlns="http://www.w3.org/2000/svg" xmlns:xlink="http://www.w3.org/1999/xlink" width="600px" height="300px" viewBox="0 0 600 300" x="0px" y="0px" enable-background="new 0 0 600 300"><defs><symbol overflow="visible" id="79677176a"><path d="M21.84-45.28c-4.89 0-7.92 3.05-9.68 5.2.15-2 .25-4.72.25-7.05v-15.43H6V0h6.4v-34.16c1.76-2.4 5.04-5.2 8.4-5.2 3.51 0 4.56 2.08 4.56 8V0h6.4v-31.36c0-9.36-2.48-13.92-9.92-13.92zm0 0"/></symbol><symbol overflow="visible" id="79677176b"><path d="M30.16-10.88V-42.3a33.7 33.7 0 00-12.32-2.74c-9.2 0-13.28 6.25-13.28 16.64v13.29C4.56-4.88 7.76.95 15.2.95c5.11 0 7.93-3.75 9.44-5.83L25.6.49 31.05 0zm-13.85 6c-3.67 0-5.36-2.89-5.36-10.25V-28.4c0-7.28 2.1-10.87 6.97-10.87 2.31 0 4.4.4 5.92 1.05v28.15c-1.2 1.77-4.07 5.2-7.53 5.2zm0 0"/></symbol><symbol overflow="visible" id="79677176c"><path d="M21.69-45.28c-5.28 0-8.49 3.36-10.25 5.76l-.96-5.2-5.6.49.89 10.71V0h6.46v-34.16c1.77-2.32 5.05-5.2 8.41-5.2 3.44 0 4.48 2.08 4.48 8V0h6.47v-31.36c0-9.36-2.46-13.92-9.9-13.92zm0 0"/></symbol><symbol overflow="visible" id="79677176d"><path d="M30.16-10.88v-51.68h-6.4v11.92c0 2.16.08 4.72.16 6.64a16.15 16.15 0 00-6.23-1.28c-9.05 0-13.13 6.16-13.13 16.8v13.36C4.56-4.96 7.7.95 15.2.95c5.11 0 7.93-3.75 9.44-5.83L25.6.49 31.05 0zm-6.32.8C22.24-8 19.7-4.95 16.31-4.95c-3.51 0-5.36-2.57-5.36-10.18v-13.35c0-7.44 1.93-11.11 7.13-11.11 2.23 0 4.23.39 5.76 1.03zm0 0"/></symbol><symbol overflow="visible" id="79677176e"><path d="M40.4-45.28c-4.32 0-7.04 2-10.17 5.92-1.36-4-3.92-5.92-8.8-5.92-5.2 0-8.23 3.36-10 5.76l-.95-5.2-5.6.49.89 10.71V0h6.46v-34.16c1.77-2.4 4.57-5.2 8.18-5.2 3.51 0 4.39 2.08 4.39 8V0h6.4v-34.16c1.75-2.4 4.57-5.2 8.16-5.2 3.52 0 4.4 2.08 4.4 8V0h6.4v-31.36c0-9.36-2.32-13.92-9.75-13.92zm0 0"/></symbol><symbol overflow="visible" id="79677176f"><path d="M29.13-17.77l.3-11.59c0-10.72-3.2-15.92-12.15-15.92-9.12 0-12.72 5.2-12.72 15.6v13.6c0 11.28 3.75 16.4 16 16.4l8-.32v-5.28h-8c-7.92 0-9.68-2.72-9.68-10.8v-1.69zM17.27-39.69c4.72 0 6.08 2.81 6.08 10v6.74H10.88v-6.74c0-7.18 1.53-10 6.4-10zm0 0"/></symbol><symbol overflow="visible" id="79677176g"><path d="M3.83 0v-5.95H6.2v-.82H.45v.82h2.4V0zm0 0"/></symbol><symbol overflow="visible" id="79677176h"><path d="M5.75-2.23v-.43c0-1.6-.9-2.51-2.42-2.51S.87-4.16.87-2.48c0 1.71.91 2.62 2.5 2.62 1.43 0 2.07-.56 2.29-1.52l-.9-.09c-.18.61-.59.9-1.35.9-.94 0-1.52-.54-1.58-1.66zm-2.4-2.2c.93 0 1.43.5 1.48 1.55H1.84c.08-1.07.6-1.56 1.5-1.56zm0 0"/></symbol><symbol overflow="visible" id="79677176i"><path d="M1.83 0l1.42-2h.06l1.46 2H5.8L4-2.53l1.78-2.49H4.8L3.42-3.08h-.08l-1.4-1.94H.89l1.78 2.49L.84 0zm0 0"/></symbol><symbol overflow="visible" id="79677176j"><path d="M5.52-4.25v-.77H3.17v-1.56h-.81l-.14 1.56H.75v.77h1.47v2.4c0 1.3.48 1.94 1.84 1.94C4.6.1 5.14 0 5.55-.14L5.4-.91c-.32.13-.72.2-1.13.2-.8 0-1.1-.37-1.1-1.23v-2.31zm0 0"/></symbol><symbol overflow="visible" id="79677176k"><path d="M3.33-3.42c.47 0 .8-.27.8-.8 0-.51-.33-.8-.8-.8-.47 0-.8.29-.8.8 0 .53.33.8.8.8zm0 3.5c.47 0 .8-.27.8-.78 0-.53-.33-.82-.8-.82-.47 0-.8.29-.8.82 0 .51.33.78.8.78zm0 0"/></symbol><symbol overflow="visible" id="79677176m"><path d="M2.16 0v-2.69c0-.98.6-1.6 1.46-1.6.74 0 1.07.4 1.07 1.2V0h.95v-3.31c0-1.17-.56-1.85-1.67-1.85-.9 0-1.44.46-1.75 1.08h-.06v-3.06H1.2V0zm0 0"/></symbol><symbol overflow="visible" id="79677176n"><path d="M2.83.14c.94 0 1.5-.39 1.81-.95h.08l.1.81h.76v-3.38c0-1.23-.69-1.8-2.13-1.8-1.43 0-2.03.65-2.18 1.6l.93.1c.11-.6.44-.93 1.22-.93.85 0 1.22.32 1.22 1.04v.34l-1.81.2C1.6-2.7 1.1-2.17 1.1-1.28c0 .92.64 1.42 1.72 1.42zm.25-.77c-.67 0-1.02-.28-1.02-.74 0-.44.28-.72 1-.82l1.58-.19v.41c0 .8-.6 1.34-1.56 1.34zm0 0"/></symbol><symbol overflow="visible" id="79677176o"><path d="M2.16 0v-2.67c0-.99.59-1.63 1.46-1.63.74 0 1.07.38 1.07 1.22V0h.95v-3.31c0-1.2-.56-1.85-1.67-1.85-.92 0-1.49.46-1.77 1.08h-.06l-.12-.94H1.2V0zm0 0"/></symbol><symbol overflow="visible" id="79677176p"><path d="M2.84.14C3.8.14 4.33-.26 4.6-.9h.07L4.8 0h.76v-7.14h-.95v2.95h-.08c-.28-.6-.86-.97-1.67-.97-1.48 0-2.27.99-2.27 2.64C.6-.84 1.36.14 2.84.14zm.22-.8c-.98 0-1.48-.59-1.48-1.84s.5-1.86 1.48-1.86c1.13 0 1.58.8 1.58 1.86S4.2-.66 3.06-.66zm0 0"/></symbol><symbol overflow="visible" id="79677176q"><path d="M1.63 0v-2.9c0-.8.15-1.4.71-1.4.41 0 .55.3.55.88V0h.95v-2.9c0-.8.18-1.4.72-1.4.4 0 .57.3.57.88V0h.95v-3.63c0-.92-.28-1.53-1.11-1.53-.63 0-.95.41-1.1.9h-.06c-.1-.52-.44-.9-1.08-.9-.6 0-.93.41-1.06.9H1.6l-.23-.76H.67V0zm0 0"/></symbol><symbol overflow="visible" id="79677176r"><path d="M5.95-6.77H1.1V0h.99v-2.92H5.3v-.77H2.08v-2.26h3.87zm0 0"/></symbol><symbol overflow="visible" id="79677176s"><path d="M2.73.14c.9 0 1.43-.45 1.74-1.08h.06l.13.94h.8v-5.02h-.94v2.7c0 .98-.57 1.62-1.46 1.62-.75 0-1.1-.4-1.1-1.22v-3.1h-.93v3.32c0 1.17.55 1.84 1.7 1.84zm0 0"/></symbol><symbol overflow="visible" id="79677176t"><path d="M5.08-5.16c-.94 0-1.58.43-1.9 1.3h-.09l-.07-1.16H1.05v.77h1.1v3.48H.96V0h3.96v-.77H3.1v-1.46c0-1.36.6-2.05 1.83-2.05.4 0 .76.08 1.1.17l.15-.87c-.33-.11-.7-.18-1.11-.18zm0 0"/></symbol><symbol overflow="visible" id="79677176u"><path d="M6.17 0L3.98-6.77h-1.3L.5 0h.97l.44-1.47h2.78L5.16 0zM3.28-5.94h.08l1.1 3.74H2.15zm0 0"/></symbol><symbol overflow="visible" id="79677176v"><path d="M3.92-7.14H1.36v.76h1.6v5.61H1.15V0H5.7v-.77H3.92zm0 0"/></symbol><symbol overflow="visible" id="79677176w"><path d="M3.58-5.81c.42 0 .72-.22.72-.67 0-.44-.3-.68-.72-.68-.44 0-.72.24-.72.68 0 .45.28.67.72.67zm.5.8H1.52v.76h1.6v3.48h-1.8V0h4.46v-.77h-1.7zm0 0"/></symbol><symbol overflow="visible" id="79677176x"><path d="M3.9 0l2-5.02h-.96L3.4-.94h-.07L1.8-5.02H.77L2.78 0zm0 0"/></symbol><symbol overflow="visible" id="79677176y"><path d="M4.63-6.5c.45 0 .98.08 1.39.2l.2-.72a5.3 5.3 0 00-1.64-.26c-1.52 0-2.16.56-2.16 1.87v.4H.9v.76h1.53V0h.94v-4.25h2.53v-.77H3.36v-.3c0-.84.33-1.18 1.27-1.18zm0 0"/></symbol><symbol overflow="visible" id="79677176z"><path d="M3.33.14c1.62 0 2.5-.95 2.5-2.66 0-1.68-.88-2.64-2.5-2.64-1.63 0-2.5.96-2.5 2.64 0 1.7.87 2.66 2.5 2.66zm0-.77c-1.06 0-1.52-.6-1.52-1.89 0-1.28.46-1.87 1.52-1.87 1.08 0 1.53.6 1.53 1.87 0 1.29-.45 1.9-1.53 1.9zm0 0"/></symbol><symbol overflow="visible" id="79677176A"><path d="M3.38-5.9c.12-.5.42-1.04.67-1.41l-.63-.22a4.28 4.28 0 00-1.01 2.39c0 .66.3 1 .9 1 .6 0 .9-.33.9-.9 0-.57-.32-.83-.83-.85zm0 0"/></symbol><symbol overflow="visible" id="79677176B"><path d="M3.3-7.53c-.55 0-.85.3-.85.84 0 .55.36.8.83.8h.03a5.1 5.1 0 01-.69 1.47l.52.23a4.29 4.29 0 001.02-2.4c0-.63-.33-.94-.86-.94zm0 0"/></symbol><symbol overflow="visible" id="79677176C"><path d="M1.45-2.95c0 2.56 1.08 4.37 3.67 4.84l.11-.67C3.28.86 2.43-.75 2.43-2.95s.85-3.82 2.8-4.16l-.1-.69c-2.6.49-3.68 2.3-3.68 4.85zm0 0"/></symbol><symbol overflow="visible" id="79677176D"><path d="M3.36.16c1.4 0 2.2-.6 2.2-1.57 0-.89-.54-1.22-1.47-1.39L3-3c-.67-.14-.86-.33-.86-.73 0-.5.4-.74 1.17-.74.83 0 1.19.27 1.27.8l.9-.05c-.12-1-.8-1.47-2.17-1.47-1.34 0-2.1.53-2.1 1.5 0 .81.45 1.22 1.52 1.44l1.04.2c.56.11.87.24.87.72 0 .52-.45.78-1.28.78-.95 0-1.36-.28-1.42-.87l-.9.06C1.07-.36 1.8.16 3.35.16zm0 0"/></symbol><symbol overflow="visible" id="79677176E"><path d="M3.33.14c1.65 0 2.6-1.1 2.6-3.52S4.99-6.9 3.34-6.9C1.67-6.9.72-5.8.72-3.37c0 2.4.95 3.51 2.6 3.51zm0-.84c-1.13 0-1.6-.85-1.6-2.67 0-1.86.47-2.7 1.6-2.7 1.12 0 1.6.84 1.6 2.7 0 1.82-.48 2.67-1.6 2.67zM3.3-2.64c.38 0 .56-.28.56-.72 0-.44-.18-.7-.56-.7-.39 0-.56.26-.56.7 0 .44.17.72.56.72zm0 0"/></symbol><symbol overflow="visible" id="79677176F"><path d="M5.67 0v-.86H2.14V-.9L3.6-2c1.05-.83 2-1.68 2-2.91 0-1.19-.73-1.99-2.26-1.99-1.66 0-2.3 1.02-2.44 2.33l1 .08c.1-.92.42-1.58 1.44-1.58.87 0 1.26.44 1.26 1.24 0 .9-.8 1.53-1.96 2.53L.83-.81V0zm0 0"/></symbol><symbol overflow="visible" id="79677176G"><path d="M1.45-7.1c1.96.33 2.8 1.94 2.8 4.15 0 2.2-.84 3.8-2.8 4.17l.11.67c2.58-.47 3.67-2.28 3.67-4.84 0-2.55-1.09-4.36-3.67-4.85zm0 0"/></symbol></defs><use xlink:href="#79677176a" x="146.28" y="163" fill="#515151"/><use xlink:href="#79677176b" x="183.64" y="163" fill="#fff"/><g fill="#515151"><use xlink:href="#79677176c" x="219.48" y="163"/><use xlink:href="#79677176d" x="256.68" y="163"/><use xlink:href="#79677176e" x="292.52" y="163"/></g><use xlink:href="#79677176b" x="348.28" y="163" fill="#fff"/><g fill="#515151"><use xlink:href="#79677176d" x="384.12" y="163"/><use xlink:href="#79677176f" x="419.96" y="163"/></g><g fill="#fff"><use xlink:href="#79677176g" x="253.3333" y="252"/><use xlink:href="#79677176h" x="260.0003" y="252"/><use xlink:href="#79677176i" x="266.6673" y="252"/><use xlink:href="#79677176j" x="273.3343" y="252"/><use xlink:href="#79677176k" x="280.0013" y="252"/><use xlink:href="#79677176l" x="286.6683" y="252"/><use xlink:href="#79677176m" x="293.3353" y="252"/><use xlink:href="#79677176n" x="300.0023" y="252"/><use xlink:href="#79677176o" x="306.6693" y="252"/><use xlink:href="#79677176p" x="313.3363" y="252"/><use xlink:href="#79677176q" x="320.0033" y="252"/><use xlink:href="#79677176n" x="326.6703" y="252"/><use xlink:href="#79677176p" x="333.3373" y="252"/><use xlink:href="#79677176h" x="340.0043" y="252"/></g><g fill="#fff"><use xlink:href="#79677176r" x="170" y="266"/><use xlink:href="#79677176h" x="176.667" y="266"/><use xlink:href="#79677176n" x="183.334" y="266"/><use xlink:href="#79677176j" x="190.001" y="266"/><use xlink:href="#79677176s" x="196.668" y="266"/><use xlink:href="#79677176t" x="203.335" y="266"/><use xlink:href="#79677176h" x="210.002" y="266"/><use xlink:href="#79677176k" x="216.669" y="266"/><use xlink:href="#79677176l" x="223.336" y="266"/><use xlink:href="#79677176u" x="230.003" y="266"/><use xlink:href="#79677176v" x="236.67" y="266"/><use xlink:href="#79677176j" x="243.337" y="266"/><use xlink:href="#79677176h" x="250.004" y="266"/><use xlink:href="#79677176t" x="256.671" y="266"/><use xlink:href="#79677176o" x="263.338" y="266"/><use xlink:href="#79677176n" x="270.005" y="266"/><use xlink:href="#79677176j" x="276.672" y="266"/><use xlink:href="#79677176w" x="283.339" y="266"/><use xlink:href="#79677176x" x="290.006" y="266"/><use xlink:href="#79677176h" x="296.673" y="266"/><use xlink:href="#79677176l" x="303.34" y="266"/><use xlink:href="#79677176y" x="310.007" y="266"/><use xlink:href="#79677176z" x="316.674" y="266"/><use xlink:href="#79677176t" x="323.341" y="266"/><use xlink:href="#79677176q" x="330.008" y="266"/><use xlink:href="#79677176l" x="336.675" y="266"/><use xlink:href="#79677176z" x="343.342" y="266"/><use xlink:href="#79677176y" x="350.009" y="266"/><use xlink:href="#79677176l" x="356.676" y="266"/><use xlink:href="#79677176A" x="363.343" y="266"/><use xlink:href="#79677176n" x="370.01" y="266"/><use xlink:href="#79677176B" x="376.677" y="266"/><use xlink:href="#79677176l" x="383.344" y="266"/><use xlink:href="#79677176C" x="390.011" y="266"/><use xlink:href="#79677176D" x="396.678" y="266"/><use xlink:href="#79677176D" x="403.345" y="266"/><use xlink:href="#79677176E" x="410.012" y="266"/><use xlink:href="#79677176F" x="416.679" y="266"/><use xlink:href="#79677176G" x="423.346" y="266"/></g></svg>