<?xml version='1.0' encoding='UTF-8'?>
<svg xmlns="http://www.w3.org/2000/svg" xmlns:xlink="http://www.w3.org/1999/xlink" width="600px" height="300px" viewBox="0 0 600 300" x="0px" y="0px" enable-background="new 0 0 600 300"><defs><symbol overflow="visible" id="4f437565a"><path d="M5.77-19.92c6.8 3.51 12.3 7.05 19.67 12.15l3.51-3.67-6.3-7.92h32.4v-5.6h-32.4l6.3-8-3.51-3.68c-7.36 5.28-12.88 8.8-19.67 12.23zm0 0"/></symbol><symbol overflow="visible" id="4f437565b"><path d="M23.05-55.69h-4.49A143.76 143.76 0 016.41-36l3.67 3.44 7.76-6.16V0h6v-38.72l7.75 6.16L35.3-36a162.17 162.17 0 01-12.24-19.69zm0 0"/></symbol><symbol overflow="visible" id="4f437565c"><path d="M23.05 0c3.51-6.8 7.03-12.31 12.23-19.69l-3.69-3.43-7.75 6.17V-55.7h-6v38.74l-7.76-6.18-3.67 3.44C11.69-12.3 15.12-6.79 18.56 0zm0 0"/></symbol><symbol overflow="visible" id="4f437565d"><path d="M8.8-6.64h32.56L52.3-19.36h5.77v-5.6h-5.85L41.36-37.68H8.8l-2.32 4.25 9.29 10.88v.8l-9.29 10.8zm11.43-18.31l-7.28-8.18h4.57l7.2 8.18zm10.49 0l-6.95-8.18h4.46l7.29 8.18zm10.8 0l-6.96-8.18h4.49L46-24.95zm-21.2 5.6h4.4l-7.2 8.07h-4.57zm10.48 0h4.72l-7.2 8.07h-4.48zm10.72 0h4.56l-7.03 8.07h-4.49zm0 0"/></symbol><symbol overflow="visible" id="4f437565e"><path d="M49.28-19.92v-4.49c-6.72-3.43-12.33-6.95-19.69-12.23l-3.43 3.69 6.32 8H0v5.6h32.48l-6.32 7.91 3.43 3.67c7.36-5.1 12.97-8.64 19.7-12.15zm0 0"/></symbol><symbol overflow="visible" id="4f437565f"><path d="M12.4-34.8h-6v25.2h6v-9.76h44v-5.6h-44zm0 0"/></symbol><symbol overflow="visible" id="4f437565g"><path d="M9.13-31.77L4.3-17.84H4l-2.56-7.2-4.31 1.27L.94-12.64h6.49l4.8-14h.32l4.8 14h6.56l4.8-14h.33l2.54 7.2 4.33-1.28-3.84-11.05h-6.49l-4.8 13.93h-.3l-4.8-13.93zm0 0"/></symbol><symbol overflow="visible" id="4f437565h"><path d="M.08-24.72L-2-20.08c3.13 1.52 6.23 3.03 10.48 3.03 6.8 0 9.6-4.07 14.88-4.07 3.28 0 6.16.8 8.48 1.92l2-4.64c-2.8-1.44-6.07-2.88-10.48-2.88-6.8 0-9.52 4.08-14.72 4.08-3.05 0-6.16-.88-8.56-2.08zm0 0"/></symbol><symbol overflow="visible" id="4f437565i"><path d="M47.2-24.48a148.82 148.82 0 01-19.68-12.24l-3.44 3.67L30-25.44c-2-.64-4.16-1.12-6.64-1.12-6.8 0-9.52 4-14.72 4-3.05 0-6.16-.96-8.56-2.16l-2.16 4.64c3.13 1.44 6.31 3.13 10.56 3.13 6.8 0 9.6-4 14.88-4 2.48 0 5.05.39 7.28 1.26l-6.56 8.25 3.44 3.67c7.36-5.1 12.89-8.64 19.68-12.15zm0 0"/></symbol><symbol overflow="visible" id="4f437565j"><path d="M3.83 0v-5.95H6.2v-.82H.45v.82h2.4V0zm0 0"/></symbol><symbol overflow="visible" id="4f437565k"><path d="M5.75-2.23v-.43c0-1.6-.9-2.51-2.42-2.51S.87-4.16.87-2.48c0 1.71.91 2.62 2.5 2.62 1.43 0 2.07-.56 2.29-1.52l-.9-.09c-.18.61-.59.9-1.35.9-.94 0-1.52-.54-1.58-1.66zm-2.4-2.2c.93 0 1.43.5 1.48 1.55H1.84c.08-1.07.6-1.56 1.5-1.56zm0 0"/></symbol><symbol overflow="visible" id="4f437565l"><path d="M1.83 0l1.42-2h.06l1.46 2H5.8L4-2.53l1.78-2.49H4.8L3.42-3.08h-.08l-1.4-1.94H.89l1.78 2.49L.84 0zm0 0"/></symbol><symbol overflow="visible" id="4f437565m"><path d="M5.52-4.25v-.77H3.17v-1.56h-.81l-.14 1.56H.75v.77h1.47v2.4c0 1.3.48 1.94 1.84 1.94C4.6.1 5.14 0 5.55-.14L5.4-.91c-.32.13-.72.2-1.13.2-.8 0-1.1-.37-1.1-1.23v-2.31zm0 0"/></symbol><symbol overflow="visible" id="4f437565n"><path d="M3.33-3.42c.47 0 .8-.27.8-.8 0-.51-.33-.8-.8-.8-.47 0-.8.29-.8.8 0 .53.33.8.8.8zm0 3.5c.47 0 .8-.27.8-.78 0-.53-.33-.82-.8-.82-.47 0-.8.29-.8.82 0 .51.33.78.8.78zm0 0"/></symbol><symbol overflow="visible" id="4f437565p"><path d="M5.95-6.77H1.1V0h.99v-2.92H5.3v-.77H2.08v-2.26h3.87zm0 0"/></symbol><symbol overflow="visible" id="4f437565q"><path d="M2.83.14c.94 0 1.5-.39 1.81-.95h.08l.1.81h.76v-3.38c0-1.23-.69-1.8-2.13-1.8-1.43 0-2.03.65-2.18 1.6l.93.1c.11-.6.44-.93 1.22-.93.85 0 1.22.32 1.22 1.04v.34l-1.81.2C1.6-2.7 1.1-2.17 1.1-1.28c0 .92.64 1.42 1.72 1.42zm.25-.77c-.67 0-1.02-.28-1.02-.74 0-.44.28-.72 1-.82l1.58-.19v.41c0 .8-.6 1.34-1.56 1.34zm0 0"/></symbol><symbol overflow="visible" id="4f437565r"><path d="M2.73.14c.9 0 1.43-.45 1.74-1.08h.06l.13.94h.8v-5.02h-.94v2.7c0 .98-.57 1.62-1.46 1.62-.75 0-1.1-.4-1.1-1.22v-3.1h-.93v3.32c0 1.17.55 1.84 1.7 1.84zm0 0"/></symbol><symbol overflow="visible" id="4f437565s"><path d="M5.08-5.16c-.94 0-1.58.43-1.9 1.3h-.09l-.07-1.16H1.05v.77h1.1v3.48H.96V0h3.96v-.77H3.1v-1.46c0-1.36.6-2.05 1.83-2.05.4 0 .76.08 1.1.17l.15-.87c-.33-.11-.7-.18-1.11-.18zm0 0"/></symbol><symbol overflow="visible" id="4f437565t"><path d="M3.42.14C5.1.14 5.9-.69 6.11-2.17l-.95-.1C4.96-1.19 4.5-.69 3.44-.69c-1.27 0-1.81-.94-1.81-2.69s.54-2.7 1.8-2.7c1.09 0 1.5.49 1.73 1.58l.93-.1c-.21-1.46-.95-2.3-2.62-2.3C1.53-6.9.62-5.6.62-3.38c0 2.2.91 3.51 2.8 3.51zm0 0"/></symbol><symbol overflow="visible" id="4f437565u"><path d="M3.33.14c1.62 0 2.5-.95 2.5-2.66 0-1.68-.88-2.64-2.5-2.64-1.63 0-2.5.96-2.5 2.64 0 1.7.87 2.66 2.5 2.66zm0-.77c-1.06 0-1.52-.6-1.52-1.89 0-1.28.46-1.87 1.52-1.87 1.08 0 1.53.6 1.53 1.87 0 1.29-.45 1.9-1.53 1.9zm0 0"/></symbol><symbol overflow="visible" id="4f437565v"><path d="M1.63 0v-2.9c0-.8.15-1.4.71-1.4.41 0 .55.3.55.88V0h.95v-2.9c0-.8.18-1.4.72-1.4.4 0 .57.3.57.88V0h.95v-3.63c0-.92-.28-1.53-1.11-1.53-.63 0-.95.41-1.1.9h-.06c-.1-.52-.44-.9-1.08-.9-.6 0-.93.41-1.06.9H1.6l-.23-.76H.67V0zm0 0"/></symbol><symbol overflow="visible" id="4f437565w"><path d="M3.9.14c1.48 0 2.18-.98 2.18-2.64 0-1.67-.7-2.66-2.17-2.66-.91 0-1.49.41-1.79 1h-.06v-2.98h-.95V0h.81l.11-.9h.06c.29.63.82 1.04 1.82 1.04zm-.32-.8c-1.08 0-1.55-.8-1.55-1.84 0-1.06.47-1.86 1.55-1.86 1.1 0 1.51.61 1.51 1.86S4.64-.66 3.58-.66zm0 0"/></symbol><symbol overflow="visible" id="4f437565x"><path d="M3.58-5.81c.42 0 .72-.22.72-.67 0-.44-.3-.68-.72-.68-.44 0-.72.24-.72.68 0 .45.28.67.72.67zm.5.8H1.52v.76h1.6v3.48h-1.8V0h4.46v-.77h-1.7zm0 0"/></symbol><symbol overflow="visible" id="4f437565y"><path d="M2.16 0v-2.67c0-.99.59-1.63 1.46-1.63.74 0 1.07.38 1.07 1.22V0h.95v-3.31c0-1.2-.56-1.85-1.67-1.85-.92 0-1.49.46-1.77 1.08h-.06l-.12-.94H1.2V0zm0 0"/></symbol><symbol overflow="visible" id="4f437565z"><path d="M3.92-7.14H1.36v.76h1.6v5.61H1.15V0H5.7v-.77H3.92zm0 0"/></symbol><symbol overflow="visible" id="4f437565A"><path d="M2.44 0l.87-3.31h.06L4.25 0H5.3l1.03-5.02h-.88l-.73 3.94h-.08L3.77-4.4h-.85l-.87 3.33h-.08l-.75-3.94H.34L1.36 0zm0 0"/></symbol><symbol overflow="visible" id="4f437565B"><path d="M3.36.16c1.4 0 2.2-.6 2.2-1.57 0-.89-.54-1.22-1.47-1.39L3-3c-.67-.14-.86-.33-.86-.73 0-.5.4-.74 1.17-.74.83 0 1.19.27 1.27.8l.9-.05c-.12-1-.8-1.47-2.17-1.47-1.34 0-2.1.53-2.1 1.5 0 .81.45 1.22 1.52 1.44l1.04.2c.56.11.87.24.87.72 0 .52-.45.78-1.28.78-.95 0-1.36-.28-1.42-.87l-.9.06C1.07-.36 1.8.16 3.35.16zm0 0"/></symbol><symbol overflow="visible" id="4f437565C"><path d="M1.45-2.95c0 2.56 1.08 4.37 3.67 4.84l.11-.67C3.28.86 2.43-.75 2.43-2.95s.85-3.82 2.8-4.16l-.1-.69c-2.6.49-3.68 2.3-3.68 4.85zm0 0"/></symbol><symbol overflow="visible" id="4f437565D"><path d="M3.33.14c1.65 0 2.6-1.1 2.6-3.52S4.99-6.9 3.34-6.9C1.67-6.9.72-5.8.72-3.37c0 2.4.95 3.51 2.6 3.51zm0-.84c-1.13 0-1.6-.85-1.6-2.67 0-1.86.47-2.7 1.6-2.7 1.12 0 1.6.84 1.6 2.7 0 1.82-.48 2.67-1.6 2.67zM3.3-2.64c.38 0 .56-.28.56-.72 0-.44-.18-.7-.56-.7-.39 0-.56.26-.56.7 0 .44.17.72.56.72zm0 0"/></symbol><symbol overflow="visible" id="4f437565E"><path d="M3.42.14c1.58 0 2.49-.86 2.49-2.3 0-1.42-.86-2.17-2.22-2.17-1.03 0-1.58.5-1.9 1.02h-.04c.03-1.63.4-2.77 1.73-2.77.91 0 1.24.44 1.36.96l.97-.11c-.23-.96-.86-1.68-2.33-1.68C1.84-6.9.86-5.86.86-3.1.86-.9 1.78.14 3.42.14zm.02-.78c-.9 0-1.47-.55-1.47-1.47 0-.9.7-1.47 1.53-1.47.92 0 1.47.52 1.47 1.47 0 .97-.6 1.47-1.53 1.47zm0 0"/></symbol><symbol overflow="visible" id="4f437565F"><path d="M1.45-7.1c1.96.33 2.8 1.94 2.8 4.15 0 2.2-.84 3.8-2.8 4.17l.11.67c2.58-.47 3.67-2.28 3.67-4.84 0-2.55-1.09-4.36-3.67-4.85zm0 0"/></symbol></defs><g fill="#fff"><use xlink:href="#4f437565a" x="73.68" y="123"/><use xlink:href="#4f437565b" x="142.88" y="123"/><use xlink:href="#4f437565c" x="198.72" y="123"/><use xlink:href="#4f437565d" x="254.56" y="123"/><use xlink:href="#4f437565e" x="312.64" y="123"/><use xlink:href="#4f437565f" x="381.84" y="123"/><use xlink:href="#4f437565g" x="438.24" y="123"/><use xlink:href="#4f437565e" x="471.28" y="123"/><use xlink:href="#4f437565h" x="241.36" y="203"/><use xlink:href="#4f437565h" x="273.2" y="203"/><use xlink:href="#4f437565i" x="305.04" y="203"/><use xlink:href="#4f437565j" x="283.3333" y="252"/><use xlink:href="#4f437565k" x="290.0003" y="252"/><use xlink:href="#4f437565l" x="296.6673" y="252"/><use xlink:href="#4f437565m" x="303.3343" y="252"/><use xlink:href="#4f437565n" x="310.0013" y="252"/><use xlink:href="#4f437565o" x="316.6683" y="252"/><use xlink:href="#4f437565o" x="323.3353" y="252"/><g><use xlink:href="#4f437565p" x="190" y="266"/><use xlink:href="#4f437565k" x="196.667" y="266"/><use xlink:href="#4f437565q" x="203.334" y="266"/><use xlink:href="#4f437565m" x="210.001" y="266"/><use xlink:href="#4f437565r" x="216.668" y="266"/><use xlink:href="#4f437565s" x="223.335" y="266"/><use xlink:href="#4f437565k" x="230.002" y="266"/><use xlink:href="#4f437565n" x="236.669" y="266"/><use xlink:href="#4f437565o" x="243.336" y="266"/><use xlink:href="#4f437565t" x="250.003" y="266"/><use xlink:href="#4f437565u" x="256.67" y="266"/><use xlink:href="#4f437565v" x="263.337" y="266"/><use xlink:href="#4f437565w" x="270.004" y="266"/><use xlink:href="#4f437565x" x="276.671" y="266"/><use xlink:href="#4f437565y" x="283.338" y="266"/><use xlink:href="#4f437565q" x="290.005" y="266"/><use xlink:href="#4f437565w" x="296.672" y="266"/><use xlink:href="#4f437565z" x="303.339" y="266"/><use xlink:href="#4f437565k" x="310.006" y="266"/><use xlink:href="#4f437565o" x="316.673" y="266"/><use xlink:href="#4f437565q" x="323.34" y="266"/><use xlink:href="#4f437565s" x="330.007" y="266"/><use xlink:href="#4f437565s" x="336.674" y="266"/><use xlink:href="#4f437565u" x="343.341" y="266"/><use xlink:href="#4f437565A" x="350.008" y="266"/><use xlink:href="#4f437565B" x="356.675" y="266"/><use xlink:href="#4f437565o" x="363.342" y="266"/><use xlink:href="#4f437565C" x="370.009" y="266"/><use xlink:href="#4f437565B" x="376.676" y="266"/><use xlink:href="#4f437565B" x="383.343" y="266"/><use xlink:href="#4f437565D" x="390.01" y="266"/><use xlink:href="#4f437565E" x="396.677" y="266"/><use xlink:href="#4f437565F" x="403.344" y="266"/></g></g></svg>