<?xml version='1.0' encoding='UTF-8'?>
<svg xmlns="http://www.w3.org/2000/svg" xmlns:xlink="http://www.w3.org/1999/xlink" width="200px" height="1030px" viewBox="0 0 200 1030" x="0px" y="0px" enable-background="new 0 0 200 1030"><defs><symbol overflow="visible" id="9a6def22a"><path d="M3.5-27.234V0h3.469c5.281 0 7.203-2.625 7.203-8.266 0-5.671-2.094-7.968-6.578-7.968-1.125 0-2.032.03-2.875.14v-9.984h8.578v-1.156zM6.969-1.156h-2.25v-13.828c.843-.094 1.75-.141 2.875-.141 3.61 0 5.36 1.719 5.36 6.86 0 5.109-1.579 7.109-5.985 7.109zm0 0"/></symbol><symbol overflow="visible" id="9a6def22b"><path d="M10.11-2.594L10.39.11 11.407 0l-.312-4.125v-10.64c0-3.047-.985-4.907-4.203-4.907-1.391 0-3.079.36-4.375.875l.28.953c1.095-.39 2.704-.781 4.063-.781 2.422 0 3.079 1.234 3.079 4.172v2.937h-1.72c-3.53 0-6.405 1.47-6.405 6.329 0 3.406 1.343 5.53 4.109 5.53 2.687 0 3.64-2.062 4.187-2.937zm-1.891-7.875h1.719v6.344c-.516.969-1.579 3.422-3.954 3.422-2.03 0-2.968-1.64-2.968-4.484 0-4.188 2.093-5.282 5.203-5.282zm0 0"/></symbol><symbol overflow="visible" id="9a6def22c"><path d="M3.156 0h9.516v3.844h1.125v-4.89h-1.75v-18.235H10.89v18.234H4.312V-19.28H3.157zm0 0"/></symbol><symbol overflow="visible" id="9a6def22e"><path d="M6.438-27.234L1.64 0h3.265c5.11 0 7.485-2.766 8.328-7.172l.204-1.094c.906-4.796-.516-8.25-5.813-8.25H5.781l1.672-9.562h8.235l.203-1.156zM4.968-1.156h-1.89l2.485-14.25h1.921c2.11 0 3.47.562 4.204 1.656.874 1.188 1.015 2.969.593 5.25L12-7c-.656 3.61-2.797 5.844-7.031 5.844zm0 0"/></symbol><symbol overflow="visible" id="9a6def22f"><path d="M8.86-19.64c-3.61 0-5.25 2.593-6.063 7.046l-1.11 6.266C.938-2.234 1.266.344 3.673.344c2.344 0 4.875-4.047 5.844-5.797-.141.547-.235 1.078-.344 1.61-.563 3.077.172 4.015 1.86 4.015A5.49 5.49 0 0012.311 0l.188-.875h-1.125c-.625 0-.984-.14-1.156-.531-.25-.453-.14-1.282.11-2.657l2.733-14.515c-.75-.422-2.39-1.063-4.203-1.063zM3.702-.704c-1.469 0-1.5-2.094-.875-5.625l1.125-6.266c.672-3.75 1.89-5.984 4.797-5.984 1.016 0 2.344.234 3.047.656l-2 10.328C8.75-5.844 5.703-.704 3.703-.704zm0 0"/></symbol><symbol overflow="visible" id="9a6def22g"><path d="M10.953 4.125l.906.422c.532-1.219 1.157-3.219 1.157-5.422h-1.329c-.624 0-.984-.14-1.156-.531-.234-.453-.14-1.282.11-2.657l2.687-15.218h-1.14L10.108-7.594c-1.046 1.75-3.64 6.89-5.796 6.89-1.266 0-1.829-1.109-1.125-4.827l2.624-13.75H4.657L2.063-5.531c-.844 4.406.14 5.875 2.25 5.875C6.858.344 8.89-3.813 9.875-5.5c-.14.563-.25 1.188-.36 1.656C8.954-.766 9.657.172 11.345.172c.234 0 .453-.031.656-.031-.14 1.546-.563 2.968-1.047 3.984zm0 0"/></symbol><symbol overflow="visible" id="9a6def22h"><path d="M4.063-8.063l-1.079.047-2.5 7.172C.391-.547.313-.28.234 0h.97l.75-2.25H5L5.75 0h.953c-.062-.281-.156-.547-.25-.844zm-.547 1.204h.03l.517 1.718.671 2.063h-2.5zm0 0"/></symbol><symbol overflow="visible" id="9a6def22i"><path d="M5.39-5.61H4.47L2.906-1.03H2.86c-.093-.39-.187-.735-.296-1.063l-1.22-3.515H.392c0 .187.046.359.109.53L2.36.017l1-.032L5.28-5.078c.063-.172.11-.328.11-.531zm0 0"/></symbol><symbol overflow="visible" id="9a6def22j"><path d="M.64-2.703c0 1.672.922 2.875 2.422 2.875 1.72 0 2.563-1.547 2.563-3.063 0-1.656-.906-2.875-2.422-2.875C1.47-5.766.641-4.187.641-2.703zm4.016-.047c0 .75-.187 1.36-.531 1.719-.203.218-.531.39-.969.39-1.015 0-1.562-.906-1.562-2.187 0-.813.218-1.39.547-1.75a1.38 1.38 0 01.968-.375c1.016 0 1.547.922 1.547 2.203zm0 0"/></symbol><symbol overflow="visible" id="9a6def22k"><path d="M1.672-5.688l-.797.11c.078 1.203.094 1.734.094 2.172V0h.953v-3.75c.375-.688.89-.984 1.422-.984.25 0 .437.015.656.078l.188-.86a1.404 1.404 0 00-.782-.218c-.64 0-1.156.39-1.547 1.109zm0 0"/></symbol><symbol overflow="visible" id="9a6def22l"><path d="M5.375-5.61h-.906L2.906-1.03H2.86a6.552 6.552 0 00-.296-1.063L1.375-5.609H.406c0 .187.031.359.11.53L2.359 0h.204C1.937 1.5 1.313 2.172.265 2.172v.75c.125.031.28.047.5.047.968 0 1.75-.719 2.468-2.547l2.032-5.5a1.2 1.2 0 00.109-.531zm0 0"/></symbol><symbol overflow="visible" id="9a6def22n"><path d="M1.125-7.984V0h.953v-2.969c.313.047.61.047.875.047 2.094 0 3.266-1.094 3.266-2.797 0-1.562-1.047-2.468-3.172-2.453-.547.016-1.219.078-1.922.188zm2 .671c1.344 0 2.078.516 2.078 1.704 0 .765-.344 1.328-.922 1.593-.36.172-.86.266-1.406.266-.266 0-.516-.031-.797-.047v-3.422c.36-.062.703-.093 1.047-.093zm0 0"/></symbol><symbol overflow="visible" id="9a6def22o"><path d="M5.719-.828h-3.64v-2.875H5v-.828H2.078V-7.22h3.594l.047-.828H1.125V0h4.61zm0 0"/></symbol><symbol overflow="visible" id="9a6def22p"><path d="M7.656-9.016l-.953.032v.937H.22l.015.844h2.532V0h.968v-7.203h2.97V0h.952v-4.375c.532-.36 1.094-.563 1.688-.563.719 0 .922.47.922 1.47V0h.953v-3.813c0-1.25-.453-1.953-1.656-1.953-.704 0-1.329.235-1.907.672zm0 0"/></symbol><symbol overflow="visible" id="9a6def22q"><path d="M.797-7.313c0 .36.25.594.625.594.406 0 .672-.265.672-.656 0-.375-.25-.61-.625-.61-.407 0-.672.266-.672.673zM1.89-5.609l-.938.015V0h.938zm0 0"/></symbol><symbol overflow="visible" id="9a6def22r"><path d="M1.672-5.688l-.797.11c.078 1.187.094 1.734.094 2.172V0h.953v-4.234c.516-.438 1.094-.72 1.672-.72.75 0 .937.485.937 1.5V0h.953v-3.813c0-1.25-.437-1.953-1.671-1.953-.766 0-1.407.297-1.985.86zm0 0"/></symbol><symbol overflow="visible" id="9a6def22z"><path d="M1.578-5.61H.562c.016.188.094.36.22.532l1.421 2.125L.593-.516C.485-.344.392-.187.376 0h.89l1.5-2.313h.016L4.312 0h.954a.947.947 0 00-.22-.516l-1.64-2.421 1.438-2.141c.125-.172.203-.344.234-.531h-.906L2.859-3.563h-.03zm0 0"/></symbol><symbol overflow="visible" id="9a6def22A"><path d="M2.188-7.266h-.782l-.218 1.657H.39v.78h.843v3.188c0 1.344.407 1.766 1.313 1.766.422 0 .953-.078 1.437-.25l-.187-.719c-.344.094-.703.14-.906.14-.563 0-.704-.25-.704-1.187v-2.937h1.72v-.781h-1.72zm0 0"/></symbol><symbol overflow="visible" id="9a6def22B"><path d="M1.266-2.625C.796-2.328.5-1.844.5-1.265c0 .859.563 1.39 1.469 1.39.687 0 1.36-.313 1.937-.828l.172.765.797-.124c-.094-1.188-.094-1.672-.094-2.11v-1.437c0-1.485-.531-2.125-1.734-2.125-.89 0-1.672.375-2.297.906l.344.594c.593-.407 1.218-.672 1.781-.672.703 0 .969.406.969 1.593v.079c-1.297.109-2.094.296-2.578.609zm.156 1.25c0-.36.172-.594.36-.734.296-.188.827-.329 2.062-.422v1.125c-.594.5-1.188.781-1.688.781-.453 0-.734-.266-.734-.75zm0 0"/></symbol><symbol overflow="visible" id="9a6def22C"><path d="M1.89-9.016l-.937.032V-.97c0 .719.344 1.094.985 1.094.296 0 .625-.047.937-.188l-.203-.703a1.18 1.18 0 01-.438.079c-.25 0-.343-.157-.343-.532zm0 0"/></symbol><symbol overflow="visible" id="9a6def22D"><path d="M1.172-.89c0 .25.062.437.187.578C.734.124.344.64.344 1.343c-.016 1.078.969 1.703 2.328 1.703 1.594 0 2.812-.797 2.812-2.11 0-1.109-.859-1.562-2.25-1.578-.734-.015-1.187-.062-1.187-.578 0-.203.094-.36.203-.531.156.016.328.031.5.031C4.203-1.719 5-2.64 5-3.766c0-.5-.156-.937-.469-1.28a4.024 4.024 0 011.078-.25l-.046-.829c-.625.031-1.125.313-1.5.672a2.515 2.515 0 00-1.188-.281C1.359-5.734.641-4.688.641-3.641c0 .735.359 1.391 1.046 1.704-.343.343-.515.656-.515 1.046zm2.922-2.813c0 .828-.516 1.25-1.282 1.25-.874 0-1.28-.5-1.28-1.297 0-.781.515-1.234 1.28-1.234.86 0 1.282.5 1.282 1.28zM1.219 1.234c0-.484.25-.859.718-1.187.313.094.672.11.985.11.984.015 1.687.124 1.687.905 0 .329-.14.61-.39.829-.328.265-.844.375-1.407.375-.953 0-1.593-.329-1.593-1.032zm0 0"/></symbol><symbol overflow="visible" id="9a6def22E"><path d="M1.89-9.016l-.937.032V0h.938v-4.375c.53-.36 1.109-.563 1.687-.563.735 0 .953.47.953 1.47V0h.938v-3.813c0-1.25-.453-1.953-1.657-1.953-.703 0-1.343.235-1.921.672zm0 0"/></symbol><symbol overflow="visible" id="9a6def22M"><path d="M5.516-.828H2.078v-7.219h-.953V0h4.422zm0 0"/></symbol><symbol overflow="visible" id="9a6def22U"><path d="M1.125-7.984V0h.953v-3.281c.297.031.625.047.844.047.265 0 .484-.016.703-.047L5.406 0h1.032a8.004 8.004 0 00-.36-.75L4.547-3.5c1.062-.422 1.656-1.281 1.656-2.36 0-1.515-1.172-2.312-3.094-2.312-.593 0-1.312.078-1.984.188zm2 .671c1.328 0 2.078.5 2.078 1.547 0 .735-.39 1.204-.922 1.454a3.66 3.66 0 01-1.375.25c-.297 0-.547-.032-.828-.047v-3.11a6.493 6.493 0 011.047-.093zm0 0"/></symbol><symbol overflow="visible" id="9a6def22V"><path d="M.64-2.688C.64-.843 1.688.126 3.079.126c.672 0 1.344-.14 2-.453L4.844-1a4.468 4.468 0 01-1.61.297c-.937 0-1.578-.563-1.64-1.86h3.531c.063-.296.078-.624.078-.921 0-1.282-.672-2.282-2.016-2.282-1.578 0-2.546 1.36-2.546 3.079zm2.47-2.28c.765 0 1.156.546 1.156 1.312 0 .125 0 .265-.016.406H1.61c.124-1.063.64-1.719 1.5-1.719zm0 0"/></symbol><symbol overflow="visible" id="9a6def22W"><path d="M1.844-5.61l-.938.016v3.813c0 1.234.516 1.953 1.672 1.953.735 0 1.344-.328 1.89-.89l.173.765.78-.11c-.077-1.28-.093-1.656-.093-2.156v-3.39h-.953v4.187c-.516.469-1.031.781-1.563.781-.671 0-.968-.453-.968-1.484zm0 0"/></symbol><symbol overflow="visible" id="9a6def22ae"><path d="M8.156-8.047H6.86L4.938-1.25H4.89l-.329-1.406-1.593-5.39H1.688L.78-.86C.75-.58.703-.25.687 0h.891l.797-6.75h.031l.36 1.453L4.312 0h1.141l1.938-6.734h.03l.157 1.453L8.25 0h.922c-.016-.25-.063-.531-.094-.797zm0 0"/></symbol><symbol overflow="visible" id="9a6def22af"><path d="M.64-2.61C.64-1.03 1.532.173 2.782.173c.703 0 1.266-.36 1.766-.89l.156.765.797-.11c-.094-1.093-.094-1.578-.094-1.984v-6.969l-.953.032v3.609c-.39-.25-.75-.39-1.266-.39C1.47-5.766.626-4.157.642-2.61zm.97-.203c0-.703.156-1.374.562-1.78.234-.25.562-.36 1.047-.36a2.4 2.4 0 011.234.328v3.188c-.5.468-.984.796-1.516.796-.874 0-1.328-.921-1.328-2.171zm0 0"/></symbol><symbol overflow="visible" id="9a6def22ag"><path d="M1.672-5.688l-.797.11c.094 1.234.094 1.734.094 2.172V0h.953v-4.219c.484-.406 1.016-.734 1.578-.734.656 0 .875.453.875 1.562V0h.922v-3.75c0-.172 0-.328-.016-.469.485-.406 1.032-.734 1.594-.734.656 0 .86.453.86 1.562V0h.952v-3.75c0-1.313-.453-2.016-1.562-2.016-.781 0-1.375.329-1.969.922-.218-.61-.656-.922-1.406-.922-.766 0-1.344.313-1.906.875zm0 0"/></symbol><symbol overflow="visible" id="9a6def22ao"><path d="M.781-5.953C.781-4.563 1.906-4.11 3-3.687c.984.359 1.89.671 1.89 1.624 0 .985-.937 1.36-1.843 1.36a4.28 4.28 0 01-2.172-.61L.5-.578c.594.437 1.578.75 2.531.75 1.516 0 2.86-.75 2.86-2.313 0-1.468-1.235-1.906-2.391-2.343-.922-.344-1.719-.657-1.719-1.547 0-1.016.985-1.297 1.782-1.297.656 0 1.312.156 1.796.328l.282-.734c-.547-.282-1.313-.47-2.032-.47-1.406 0-2.828.673-2.828 2.25zm0 0"/></symbol><symbol overflow="visible" id="9a6def22ap"><path d="M1.89-9.016l-.952.032v8.796a6.441 6.441 0 002.046.313c1.891 0 2.704-1.484 2.704-3.016 0-1.625-.782-2.875-2.188-2.875-.64 0-1.156.313-1.61.797zm1.454 4.063c.875 0 1.375.844 1.375 2.14 0 .782-.14 1.344-.61 1.797-.156.172-.546.344-1.046.344-.438 0-.813-.047-1.172-.14V-4.22c.421-.422.937-.734 1.453-.734zm0 0"/></symbol><symbol overflow="visible" id="9a6def22ax"><path d="M1.125-7.984v7.937c.75.11 1.516.172 2.11.172 2.093 0 3.14-.984 3.14-2.422 0-1.094-.625-1.765-1.64-2 .812-.39 1.171-1.11 1.171-1.89 0-1.344-1.062-1.97-2.781-1.97-.625 0-1.328.063-2 .173zm2 .656c1.094 0 1.781.36 1.781 1.328 0 .453-.172.922-.61 1.172-.25.14-.593.234-1.109.234-.328 0-.671 0-1.093-.015V-7.25a8.25 8.25 0 011.031-.078zm.078 3.531c1.485 0 2.156.563 2.156 1.5 0 .485-.187.922-.609 1.235-.313.234-.734.359-1.438.359-.39 0-.78-.031-1.218-.078v-3c.39 0 .781-.016 1.11-.016zm0 0"/></symbol><symbol overflow="visible" id="9a6def22aM"><path d="M.64-2.656C.64-.937 1.579.125 3.11.125c.53 0 1.156-.14 1.734-.406L4.625-1c-.5.203-1 .297-1.39.297-1.032 0-1.641-.656-1.641-2.078 0-.875.25-1.5.656-1.844.203-.156.484-.297.875-.297.469 0 .875.188 1.297.578l.469-.547c-.422-.546-.954-.843-1.704-.843-1.53 0-2.546 1.25-2.546 3.078zm0 0"/></symbol><symbol overflow="visible" id="9a6def22aN"><path d="M5.484-5.61h-.953L1.906-2.655v-6.36l-.953.032V0h.953v-1.5l.875-.938L4.625 0h1.031a1.611 1.611 0 00-.297-.516L3.391-3.078l1.812-2.063c.156-.156.25-.312.281-.468zm0 0"/></symbol><symbol overflow="visible" id="9a6def22s"><path d="M3.328-27.266V0H7.11c5.313 0 7.485-2.516 7.485-8.36 0-5.78-2.063-8.156-6.75-8.156-1.016 0-1.86.032-2.703.141v-9.203h8.515v-1.688zM7.11-1.688H5.141v-13.078c.812-.109 1.578-.14 2.625-.14 3.468 0 5.046 1.61 5.046 6.547 0 4.89-1.546 6.671-5.703 6.671zm0 0"/></symbol><symbol overflow="visible" id="9a6def22t"><path d="M10.078-2.453l.36 2.594L11.905 0l-.36-4.344v-10.25c0-3.25-1.155-5.078-4.515-5.078-1.531 0-3.218.36-4.547.906l.344 1.375c1.156-.39 2.735-.78 4.11-.78 2.296 0 2.937 1.202 2.937 4v2.546H8.156c-3.61 0-6.437 1.61-6.437 6.344C1.719-1.641 3.187.39 5.984.39c2.625 0 3.579-1.97 4.094-2.844zm-1.922-7.703h1.719v5.922c-.563.984-1.578 3.078-3.688 3.078-1.812 0-2.75-1.407-2.75-4.157 0-3.78 1.876-4.843 4.72-4.843zm0 0"/></symbol><symbol overflow="visible" id="9a6def22u"><path d="M2.969 0h9.734v3.953h1.61v-5.5h-1.891v-17.765h-1.719v17.765H4.688v-17.765h-1.72zm0 0"/></symbol><symbol overflow="visible" id="9a6def22w"><path d="M6.266-27.266L1.469 0h3.61c5.109 0 7.702-2.688 8.577-7.453l.203-1.234c.907-4.922-.765-8.11-5.953-8.11H6.188l1.578-8.781h8.156l.312-1.688zM5.28-1.688h-1.75l2.39-13.5h1.704c2 0 3.36.485 4.031 1.47.735 1.046.875 2.734.453 4.937l-.25 1.25c-.656 3.828-2.656 5.843-6.578 5.843zm0 0"/></symbol><symbol overflow="visible" id="9a6def22x"><path d="M9-19.703c-3.688 0-5.5 2.547-6.313 7.031L1.579-6.516C.812-2.203 1.297.313 3.75.313c2.375 0 4.688-3.704 5.734-5.5-.14.64-.28 1.265-.39 1.796-.375 2.657.36 3.594 2.078 3.594.547 0 1.219-.14 1.531-.234l.25-1.297h-.984c-.656 0-1.078-.11-1.266-.453-.203-.422-.14-1.188.11-2.39l2.703-14.454c-.782-.422-2.563-1.078-4.516-1.078zM3.89-1.22c-1.156-.14-1.156-2.14-.593-5.218l1.078-6.157c.672-3.547 1.813-5.578 4.547-5.578.953 0 2.14.219 2.765.563L9.735-7.703C8.781-6.125 5.704-1.22 3.891-1.22zm0 0"/></symbol><symbol overflow="visible" id="9a6def22y"><path d="M10.922 4.172l1.36.484c.562-1.297 1.187-3.61 1.187-5.984h-1.156c-.657 0-1.079-.11-1.282-.453-.187-.422-.11-1.188.094-2.39l2.703-15.142H12.11l-2.062 11.61C9.03-6.016 6.297-1.22 4.437-1.22c-.968-.11-1.359-1.234-.765-4.281l2.594-13.813h-1.72L1.954-5.5C1.156-1.187 2.141.313 4.266.313c2.562 0 4.515-3.75 5.562-5.563-.14.672-.265 1.36-.344 1.86C9.063-.735 9.766.202 11.516.202c.171 0 .343 0 .53-.031a16.515 16.515 0 01-1.124 4zm0 0"/></symbol><symbol overflow="visible" id="9a6def22F"><path d="M3.156-27.328V0H7.25c5.344 0 7.766-2.422 7.766-8.469 0-5.844-2.094-8.328-6.938-8.328-.937 0-1.781.031-2.578.14v-8.468H14v-2.203zM7.25-2.172H5.5v-12.39c.766-.11 1.469-.141 2.406-.141 3.407 0 4.766 1.547 4.766 6.234 0 4.719-1.469 6.297-5.422 6.297zm0 0"/></symbol><symbol overflow="visible" id="9a6def22G"><path d="M10.047-2.281l.39 2.453L12.36 0 12-4.547v-9.875c0-3.469-1.328-5.281-4.797-5.281-1.703 0-3.36.422-4.781.937l.453 1.75c1.188-.343 2.719-.687 4.094-.687 2.234 0 2.828 1.11 2.828 3.812v2.172H8.125c-3.75 0-6.516 1.75-6.516 6.36C1.61-1.5 3.22.42 6.063.42c2.546 0 3.453-1.859 3.984-2.702zM8.125-9.875h1.672v5.563c-.594.953-1.578 2.734-3.422 2.734-1.61 0-2.531-1.156-2.531-3.844 0-3.437 1.687-4.453 4.281-4.453zm0 0"/></symbol><symbol overflow="visible" id="9a6def22H"><path d="M2.797 0h9.984v4.031h2.031V-2h-2v-17.313h-2.28V-2H5.046v-17.313h-2.25zm0 0"/></symbol><symbol overflow="visible" id="9a6def22J"><path d="M6.094-27.328L1.297 0H5.28C10.36 0 13.125-2.625 14-7.703l.25-1.39c.906-5.016-.984-7.985-6.094-7.985H6.61l1.407-8.047h8.156l.39-2.203zm-.5 25.156h-1.61l2.25-12.844h1.579c1.875 0 3.218.454 3.843 1.329.531.906.656 2.515.281 4.656l-.171 1.047c-.735 3.953-2.532 5.812-6.172 5.812zm0 0"/></symbol><symbol overflow="visible" id="9a6def22K"><path d="M9.14-19.781c-3.718 0-5.75 2.484-6.578 7.047L1.47-6.688C.672-2.14 1.359.282 3.78.282c2.453 0 4.578-3.438 5.672-5.22a17.96 17.96 0 00-.39 2C8.78-.703 9.515.204 11.342.204c.595 0 1.36-.172 1.72-.266l.312-1.687h-.844c-.672 0-1.187-.11-1.406-.39-.14-.376-.063-1.079.11-2.094l2.734-14.391c-.813-.422-2.735-1.156-4.828-1.156zM4.032-1.75C3.22-2 3.22-3.89 3.671-6.516l1.126-6.046c.594-3.391 1.75-5.22 4.297-5.22.844 0 1.937.22 2.453.485l-1.89 9.485C8.811-6.407 5.702-1.75 4.03-1.75zm0 0"/></symbol><symbol overflow="visible" id="9a6def22L"><path d="M10.89 4.172l1.75.547c.626-1.328 1.22-3.953 1.25-6.469h-1.015c-.656 0-1.188-.11-1.39-.39-.141-.376-.079-1.079.093-2.094l2.703-15.079H12l-1.984 11.5C9-6.234 6.156-1.75 4.625-1.75c-.781-.172-.984-1.266-.531-3.75l2.593-13.813h-2.25L1.86-5.453C1.08-1.22 2.063.28 4.234.28c2.516 0 4.407-3.25 5.563-5.218-.14.703-.313 1.468-.375 2-.25 2.234.453 3.14 2.265 3.14h.36c-.25 1.438-.672 2.875-1.156 3.969zm0 0"/></symbol><symbol overflow="visible" id="9a6def22N"><path d="M2.969-27.375V0H7.39c5.39 0 8.046-2.344 8.046-8.547 0-5.984-2.062-8.562-7.078-8.562-.875 0-1.671.03-2.437.14v-7.64h8.469v-2.766zM7.39-2.687H5.92v-11.657c.657-.11 1.329-.14 2.157-.14 3.266 0 4.453 1.421 4.453 5.937 0 4.485-1.437 5.86-5.14 5.86zm0 0"/></symbol><symbol overflow="visible" id="9a6def22O"><path d="M10.047-2.14l.422 2.343L12.875 0l-.422-4.766v-9.484c0-3.672-1.469-5.453-5.11-5.453-1.843 0-3.5.422-4.968.984l.531 2.157c1.266-.344 2.766-.688 4.125-.688 2.14 0 2.703 1.078 2.703 3.64v1.813H8.047c-3.813 0-6.547 1.828-6.547 6.344C1.5-1.36 3.219.422 6.094.422c2.515 0 3.422-1.719 3.953-2.563zm-2-7.422h1.687v5.156c-.64.968-1.578 2.375-3.156 2.375-1.39 0-2.312-.906-2.312-3.531 0-3.016 1.468-4 3.78-4zm0 0"/></symbol><symbol overflow="visible" id="9a6def22P"><path d="M2.625 0h10.188v4.125h2.546v-6.61h-2.171v-16.874h-2.829v16.875H5.422V-19.36H2.625zm0 0"/></symbol><symbol overflow="visible" id="9a6def22R"><path d="M5.922-27.375L1.125 0h4.328c5.078 0 8.063-2.594 8.969-7.984l.25-1.532c.906-5.156-1.235-7.875-6.266-7.875H7.031l1.266-7.218h8.125l.453-2.766zm0 24.688H4.438l2.14-12.126h1.36c1.796 0 3.125.391 3.687 1.126.375.812.516 2.312.14 4.374l-.14.813c-.734 4.156-2.39 5.813-5.703 5.813zm0 0"/></symbol><symbol overflow="visible" id="9a6def22S"><path d="M9.281-19.813c-3.781 0-5.984 2.422-6.828 7L1.406-6.859C.531-2.094 1.406.28 3.844.28c2.484 0 4.453-3.11 5.61-4.968-.22.765-.423 1.609-.454 2.203C8.89-.672 9.625.25 11.484.25c.625 0 1.532-.219 1.954-.313l.39-2.14h-.703c-.703 0-1.266-.078-1.5-.313-.078-.312-.078-.984.094-1.828l2.703-14.312c-.844-.422-2.875-1.157-5.14-1.157zM4.203-2.28c-.5-.344-.453-2.156-.078-4.328l1.094-5.954c.593-3.187 1.672-4.796 4.062-4.796.766 0 1.703.172 2.156.39L9.595-7.875c-.735 1.156-3.89 5.594-5.39 5.594zm0 0"/></symbol><symbol overflow="visible" id="9a6def22T"><path d="M10.844 4.203l2.219.625c.656-1.437 1.25-4.344 1.28-7.031h-.827c-.704 0-1.297-.078-1.516-.313-.094-.312-.031-.984.11-1.828l2.656-15.015h-2.829l-2 11.484c-.984 1.469-3.953 5.594-5.171 5.594-.5-.281-.532-1.36-.188-3.172L7.141-19.36H4.344L1.78-5.422C1.016-1.297 2 .281 4.234.281c2.516 0 4.313-2.906 5.594-5-.203.766-.406 1.672-.453 2.235C9.235-.672 9.969.25 11.859.25H12c-.281 1.438-.688 2.828-1.156 3.953zm0 0"/></symbol><symbol overflow="visible" id="9a6def22X"><path d="M2.797-27.406V0H7.53c5.39 0 8.282-2.234 8.282-8.64 0-6.063-2.063-8.72-7.235-8.72-.844 0-1.547.032-2.312.141v-6.968h8.437v-3.22zM7.53-3.156H6.266v-11.016c.593-.078 1.187-.11 1.953-.11 3.156 0 4.172 1.329 4.172 5.641 0 4.297-1.36 5.485-4.86 5.485zm0 0"/></symbol><symbol overflow="visible" id="9a6def22Y"><path d="M10.016-2l.453 2.25L13.297 0l-.422-4.938v-9.171c0-3.844-1.64-5.594-5.39-5.594-1.985 0-3.641.422-5.141.984l.594 2.547c1.296-.344 2.765-.656 4.124-.656 2.079 0 2.594 1.015 2.594 3.453v1.469h-1.64c-3.922 0-6.61 1.969-6.61 6.375C1.406-1.22 3.25.453 6.156.453c2.453 0 3.36-1.64 3.86-2.453zm-2-7.281h1.64v4.797C9-3.531 8.078-2.454 6.75-2.454c-1.188 0-2.094-.655-2.094-3.218 0-2.656 1.266-3.61 3.36-3.61zm0 0"/></symbol><symbol overflow="visible" id="9a6def22Z"><path d="M2.453 0h10.39v4.203h2.97v-7.11h-2.266v-16.452h-3.328v16.453H5.78V-19.36H2.453zm0 0"/></symbol><symbol overflow="visible" id="9a6def22ab"><path d="M5.734-27.406L.938 0H5.64c5.062 0 8.187-2.516 9.125-8.219l.28-1.687c.876-5.25-1.468-7.735-6.405-7.735H7.42l1.157-6.547h8.047l.563-3.218zm.454 24.25H4.905l1.985-11.469h1.187c1.688 0 3.016.313 3.547.969.203.672.344 2.11 0 4.094l-.11.609c-.765 4.328-2.28 5.797-5.328 5.797zm0 0"/></symbol><symbol overflow="visible" id="9a6def22ac"><path d="M9.375-19.875c-3.813 0-6.188 2.375-7.031 7L1.297-7.031C.39-2.063 1.437.25 3.89.25c2.546 0 4.328-2.766 5.562-4.734-.25.812-.5 1.828-.5 2.421 0 1.438.735 2.313 2.672 2.313.656 0 1.672-.219 2.172-.36l.453-2.515h-.594c-.703 0-1.375-.031-1.61-.25-.046-.281-.046-.875.095-1.531l2.703-14.25c-.875-.422-3.047-1.219-5.469-1.219zM4.344-2.765c-.172-.454-.14-2.172.172-3.922l1.078-5.875c.562-3.016 1.61-4.407 3.86-4.407.655 0 1.5.14 1.89.282L9.516-7.985C8.89-6.97 5.703-2.766 4.344-2.766zm0 0"/></symbol><symbol overflow="visible" id="9a6def22ad"><path d="M10.813 4.203l2.593.703c.735-1.468 1.297-4.656 1.328-7.531h-.703c-.703 0-1.36-.031-1.61-.25-.03-.281 0-.875.11-1.531l2.656-14.953H11.86L9.906-7.984c-.984 1.406-4.062 5.218-5 5.218-.25-.343-.14-1.406.094-2.687L7.563-19.36H4.233L1.688-5.391C.938-1.328 1.921.25 4.203.25 6.797.25 8.5-2.344 9.875-4.578c-.25.828-.531 1.922-.531 2.516 0 1.437.734 2.312 2.625 2.312a22.379 22.379 0 01-1.156 3.953zm0 0"/></symbol><symbol overflow="visible" id="9a6def22ah"><path d="M2.563-27.406V0h5.28c5.454 0 8.329-2.203 8.329-8.719 0-6.187-2.14-8.75-7.281-8.75-.813 0-1.5.032-2.204.11v-6.266h8.297v-3.781zM7.734-3.61H6.688v-10.25c.515-.079 1.015-.11 1.671-.11 2.813 0 3.72 1.156 3.72 5.219 0 4.094-1.188 5.14-4.345 5.14zm0 0"/></symbol><symbol overflow="visible" id="9a6def22ai"><path d="M10.016-1.86l.453 2.141L13.719 0l-.422-5v-8.828c0-4.063-1.781-5.875-5.672-5.875-2.031 0-3.781.39-5.422.937l.594 3.016c1.328-.344 2.797-.672 4.172-.672 2.031 0 2.547.922 2.547 3.266v1.219h-1.47c-4.155 0-6.78 1.968-6.78 6.406 0 4.234 1.843 5.984 4.828 5.984 2.453 0 3.422-1.531 3.922-2.312zm-1.97-7.202h1.47v4.546c-.594.766-1.36 1.688-2.579 1.688-1.093 0-1.89-.672-1.89-2.953 0-2.438 1.11-3.282 3-3.282zm0 0"/></symbol><symbol overflow="visible" id="9a6def22aj"><path d="M2.203 0h10.438v4.125h3.53v-7.422h-2.233v-16.062h-3.891v16.062H6.125v-16.062H2.203zm0 0"/></symbol><symbol overflow="visible" id="9a6def22al"><path d="M5.453-27.406L.672 0h5.281c5.078 0 8.156-2.453 9.094-8.125l.312-1.813c.875-5.25-1.421-7.812-6.359-7.812H7.844l1.015-5.875h7.875l.657-3.781zM6.47-3.641h-1.11l1.844-10.64h.922c1.469 0 2.688.25 3.219.812.14.735.203 2.031-.078 3.735l-.172.875c-.703 4.03-2.031 5.218-4.625 5.218zm0 0"/></symbol><symbol overflow="visible" id="9a6def22am"><path d="M9.375-19.875c-3.984 0-6.406 2.266-7.234 7.031L1.078-6.938C.203-2.03 1.328.282 3.984.282c2.313 0 3.954-2.141 5.11-3.891-.094.671-.203 1.375-.14 1.828C9.093-.484 9.936.28 11.718.28c.734 0 1.75-.219 2.312-.344l.531-3.015h-.671c-.594 0-1.188-.031-1.438-.172 0-.313 0-.844.14-1.438l2.626-13.937c-1.047-.484-3.39-1.25-5.844-1.25zM4.719-3.187c-.094-.485-.032-1.954.218-3.47l1.079-5.984c.5-2.656 1.406-3.953 3.328-3.953.594 0 1.328.11 1.719.25l-1.86 8.89c-.562.876-3.281 4.266-4.484 4.266zm0 0"/></symbol><symbol overflow="visible" id="9a6def22an"><path d="M10.469 4.125l3.11.781c.812-1.61 1.437-5.11 1.437-7.984h-.766c-.594 0-1.156-.031-1.406-.172-.031-.313 0-.844.11-1.438l2.624-14.671h-3.953L9.562-7.562C8.72-6.407 6.156-3.329 5.25-3.329c-.172-.422-.063-1.39.172-2.547l2.453-13.484H3.922L1.359-5.25C.672-1.328 1.688.313 4.172.313c2.375 0 4.016-2.126 5.312-4.063-.14.672-.28 1.438-.25 1.89.141 1.235.875 2 2.391 2.11-.313 1.39-.703 2.766-1.156 3.875zm0 0"/></symbol><symbol overflow="visible" id="9a6def22aq"><path d="M2.281-27.438V0h5.906c5.5 0 8.407-2.172 8.407-8.781 0-6.344-2.203-8.781-7.36-8.781-.734 0-1.421.03-2.062.062V-23h8.156v-4.438zM7.984-4.125h-.812v-9.422c.422-.031.844-.062 1.328-.062 2.453 0 3.219.937 3.219 4.796 0 3.813-1.016 4.688-3.735 4.688zm0 0"/></symbol><symbol overflow="visible" id="9a6def22ar"><path d="M10.016-1.688l.453 1.97L14.203 0l-.406-5.047v-8.5c0-4.265-1.938-6.187-6.031-6.187-2.094 0-3.922.343-5.735.968l.625 3.438c1.375-.313 2.875-.625 4.203-.625 1.954 0 2.563.765 2.563 3.031V-12H8.078c-4.406 0-6.922 1.953-6.922 6.438 0 4.156 1.813 6.046 4.86 6.046 2.453 0 3.5-1.468 4-2.171zM8.125-8.858h1.297v4.312c-.563.594-1.235 1.328-2.281 1.328-.985 0-1.641-.672-1.641-2.656 0-2.25.906-2.984 2.625-2.984zm0 0"/></symbol><symbol overflow="visible" id="9a6def22as"><path d="M1.953 0h10.438v4.031h4.171v-7.734h-2.171v-15.688H9.828v15.688H6.516v-15.688H1.953zm0 0"/></symbol><symbol overflow="visible" id="9a6def22au"><path d="M5.14-27.438L.314 0H5.14v-.031h1.125c5.14 0 8.156-2.313 9.093-7.953l.36-1.954c.875-5.328-1.438-7.953-6.344-7.953H8.297L9.203-23h7.625l.781-4.438zM6.75-4.203h-.875l1.719-9.735h.531c1.297 0 2.344.188 2.906.641.063.797.063 1.953-.187 3.36L10.64-8.75c-.625 3.672-1.75 4.547-3.891 4.547zm0 0"/></symbol><symbol overflow="visible" id="9a6def22av"><path d="M9.375-19.922c-4.156 0-6.61 2.219-7.453 7.078L.875-6.859C0-2 1.265.28 4.125.28c2.11 0 3.64-1.578 4.734-3.11-.046.517-.046 1.017.094 1.392C9.234-.345 10.188.28 11.797.28c.875 0 1.86-.219 2.484-.344l.625-3.5h-.765c-.454 0-.954-.046-1.188-.14.031-.328.031-.781.14-1.297l2.548-13.625c-1.22-.516-3.813-1.297-6.266-1.297zM5.141-3.64c-.032-.562.078-1.75.28-2.937l1.095-6.125c.421-2.313 1.109-3.469 2.765-3.469.485 0 1.11.11 1.422.219L8.891-6.86c-.485.703-2.766 3.218-3.75 3.218zm0 0"/></symbol><symbol overflow="visible" id="9a6def22aw"><path d="M10.047 4.031l3.75.875c.875-1.797 1.531-5.64 1.562-8.468h-.906c-.453 0-.937-.047-1.187-.141.03-.281.062-.781.14-1.266l2.547-14.422h-4.61L9.173-7.109c-.703.921-2.703 3.187-3.531 3.187-.079-.515.03-1.437.234-2.453l2.344-13.016h-4.61L1.016-5.078C.344-1.328 1.406.39 4.094.39c2.234 0 3.843-1.797 5.047-3.47-.047.563-.047 1.079.03 1.438C9.376-.625 10.079 0 11.235.203a25.702 25.702 0 01-1.187 3.828zm0 0"/></symbol><symbol overflow="visible" id="9a6def22ay"><path d="M2-27.469V0h6.578c5.531 0 8.438-2.14 8.438-8.86 0-6.5-2.282-8.843-7.391-8.843-.734 0-1.36.031-1.953.062v-4.687h8.015v-5.14zM8.266-4.687h-.594v-8.5c.312-.047.656-.047 1.016-.047 2.015 0 2.687.734 2.687 4.312 0 3.531-.844 4.235-3.11 4.235zm0 0"/></symbol><symbol overflow="visible" id="9a6def22az"><path d="M9.969-1.5l.469 1.813L14.733 0l-.421-5.11v-8.124c0-4.47-2.094-6.547-6.407-6.547-2.125 0-4.093.328-6.093.984l.703 3.922c1.406-.313 2.906-.594 4.203-.594 1.89 0 2.562.625 2.562 2.828v.563H8.156c-4.687 0-7.14 1.969-7.14 6.484C1.016-1.5 2.828.531 5.922.531 8.359.531 9.516-.844 9.969-1.5zM8.188-8.64H9.28v4.015c-.5.453-1.015.984-1.89.984s-1.438-.671-1.438-2.375c0-2 .734-2.625 2.234-2.625zm0 0"/></symbol><symbol overflow="visible" id="9a6def22aA"><path d="M1.719 0h10.39v3.922h4.86v-8.094h-2.125v-15.25h-5.25v15.25H6.938v-15.25h-5.22zm0 0"/></symbol><symbol overflow="visible" id="9a6def22aC"><path d="M4.797-27.469L-.031 0h5.625v-.063h1.015c5.188 0 8.157-2.171 9.11-7.78l.344-2.126c.906-5.36-1.391-8.062-6.266-8.062H8.78l.735-4.297h7.421l.907-5.14zM7.03-4.766h-.593l1.546-8.78h.172c1.047 0 1.953.077 2.547.421 0 .875-.062 1.922-.265 2.969l-.25 1.515c-.594 3.329-1.47 3.875-3.157 3.875zm0 0"/></symbol><symbol overflow="visible" id="9a6def22aD"><path d="M9.375-19.953c-4.375 0-6.813 2.14-7.688 7.14L.625-6.75C-.203-1.922 1.156.313 4.265.313c1.923 0 3.36-1.125 4.344-2.454.079.422.141.782.313 1.063.5.906 1.515 1.39 2.984 1.39.969 0 1.953-.203 2.625-.343l.735-4.063h-.844c-.36 0-.703 0-.953-.078.047-.312.078-.734.14-1.14l2.454-13.266c-1.391-.64-4.204-1.375-6.688-1.375zM5.594-4.125c.047-.594.14-1.516.328-2.39L7-12.782c.344-1.953.844-2.938 2.172-2.938.39 0 .937.078 1.187.14L8.547-6.233c-.39.53-2.172 2.109-2.953 2.109zm0 0"/></symbol><symbol overflow="visible" id="9a6def22aE"><path d="M9.625 3.922L14 4.906c.938-1.968 1.688-6.203 1.719-9h-1.016c-.36 0-.734 0-.984-.078.078-.266.11-.687.172-1.078l2.484-14.172h-5.313L8.783-6.656c-.563.703-1.954 2.14-2.766 2.14.078-.671.171-1.468.312-2.343L8.61-19.422H3.25L.672-4.859C.032-1.297 1.078.453 4.032.453c2.093 0 3.702-1.5 4.827-2.906.032.39.063.765.204 1.047.312.781.906 1.297 1.75 1.547-.313 1.328-.704 2.656-1.188 3.78zm0 0"/></symbol><symbol overflow="visible" id="9a6def22aF"><path d="M1.75-27.469V0h7.14c5.594 0 8.47-2.094 8.47-8.922 0-6.656-2.344-8.89-7.422-8.89-.657 0-1.297 0-1.86.062v-4.016h7.875v-5.703zM8.469-5.14h-.39v-7.734c.25-.047.5-.047.733-.047 1.688 0 2.25.563 2.25 3.89 0 3.329-.671 3.891-2.593 3.891zm0 0"/></symbol><symbol overflow="visible" id="9a6def22aG"><path d="M9.969-1.36l.469 1.704L15.155 0l-.422-5.188v-7.765c0-4.688-2.234-6.828-6.687-6.828-2.172 0-4.235.281-6.36.953l.688 4.375c1.438-.313 2.938-.594 4.234-.594 1.86 0 2.532.516 2.532 2.625v.313h-.954C3.25-12.11.875-10.156.875-5.594.875-1.578 2.688.531 5.844.531c2.453 0 3.672-1.265 4.125-1.89zm-1.75-7.077h.922v3.78c-.422.282-.813.626-1.579.626-.765 0-1.234-.657-1.234-2.094 0-1.781.61-2.313 1.89-2.313zm0 0"/></symbol><symbol overflow="visible" id="9a6def22aH"><path d="M1.469 0h10.437v3.844h5.422v-8.39h-2.11v-14.876H9.423v14.875h-2.14v-14.875H1.468zm0 0"/></symbol><symbol overflow="visible" id="9a6def22aJ"><path d="M4.516-27.469L-.313 0h6.297v-.063h.954c5.171 0 8.109-2.109 9.062-7.671l.375-2.282c.922-5.343-1.36-8.109-6.219-8.109h-.984l.625-3.64h7.25l1.015-5.704zM7.312-5.25h-.421l1.406-7.938c.734 0 1.531 0 2.14.235-.078.953-.218 1.86-.359 2.625l-.312 1.781C9.234-5.53 8.546-5.25 7.312-5.25zm0 0"/></symbol><symbol overflow="visible" id="9a6def22aK"><path d="M9.375-19.953c-4.547 0-7.031 2.031-7.906 7.172L.422-6.656c-.813 4.765.625 7 3.953 7 1.781 0 3.188-.797 4.094-1.922.11.281.25.562.453.766.64.78 1.75 1.156 3.078 1.156 1.063 0 2.031-.203 2.766-.344l.812-4.547h-1.687c.078-.36.109-.703.171-1.047l2.391-12.953c-1.578-.703-4.547-1.406-7.078-1.406zM5.985-4.547c.109-.64.25-1.297.343-1.922l1.094-6.375c.281-1.61.625-2.484 1.64-2.484.313 0 .766.031 1.016.11l-1.86 9.515c-.312.39-1.64 1.156-2.234 1.156zm0 0"/></symbol><symbol overflow="visible" id="9a6def22aL"><path d="M9.281 3.844l4.89 1.062C15.189 2.796 16-1.75 16-4.547h-1.86c.063-.312.11-.672.172-.984l2.454-13.89h-5.953L8.437-6.235c-.421.453-1.296 1.156-2.062 1.156.14-.734.234-1.469.375-2.203l2.172-12.14H2.937L.345-4.72c-.594 3.422.5 5.25 3.64 5.25 2.032 0 3.61-1.265 4.657-2.484.078.266.171.516.312.766.328.562.844.984 1.516 1.218-.313 1.375-.703 2.656-1.188 3.813zm0 0"/></symbol></defs><use xlink:href="#9a6def22a" x="50.895" y="73.33333"/><use xlink:href="#9a6def22b" x="67.345" y="73.33333"/><use xlink:href="#9a6def22c" x="81.275" y="73.33333"/><use xlink:href="#9a6def22d" x="96.465" y="73.33333"/><use xlink:href="#9a6def22e" x="103.465" y="73.33333"/><use xlink:href="#9a6def22f" x="119.25" y="73.33333"/><use xlink:href="#9a6def22g" x="133.81" y="73.33333"/><use xlink:href="#9a6def22h" x="66.046" y="110" fill="#b7b7b7"/><use xlink:href="#9a6def22i" x="72.802" y="110" fill="#b7b7b7"/><g fill="#b7b7b7"><use xlink:href="#9a6def22j" x="78.37" y="110"/><use xlink:href="#9a6def22k" x="84.622" y="110"/><use xlink:href="#9a6def22l" x="89.002" y="110"/></g><g fill="#b7b7b7"><use xlink:href="#9a6def22m" x="94.618" y="110"/><use xlink:href="#9a6def22n" x="97.21" y="110"/><use xlink:href="#9a6def22o" x="103.93" y="110"/><use xlink:href="#9a6def22m" x="110.29" y="110"/></g><g fill="#b7b7b7"><use xlink:href="#9a6def22p" x="112.57" y="110"/><use xlink:href="#9a6def22q" x="124.702" y="110"/><use xlink:href="#9a6def22r" x="127.558" y="110"/></g><use xlink:href="#9a6def22s" x="50.0725" y="183.33333"/><use xlink:href="#9a6def22t" x="66.8025" y="183.33333"/><use xlink:href="#9a6def22u" x="81.0475" y="183.33333"/><use xlink:href="#9a6def22v" x="96.5525" y="183.33333"/><use xlink:href="#9a6def22w" x="103.2725" y="183.33333"/><use xlink:href="#9a6def22x" x="119.3725" y="183.33333"/><use xlink:href="#9a6def22y" x="134.3175" y="183.33333"/><use xlink:href="#9a6def22h" x="52.204" y="220" fill="#b7b7b7"/><use xlink:href="#9a6def22i" x="58.96" y="220" fill="#b7b7b7"/><g fill="#b7b7b7"><use xlink:href="#9a6def22j" x="64.528" y="220"/><use xlink:href="#9a6def22k" x="70.78" y="220"/><use xlink:href="#9a6def22l" x="75.16" y="220"/></g><g fill="#b7b7b7"><use xlink:href="#9a6def22m" x="80.776" y="220"/><use xlink:href="#9a6def22n" x="83.368" y="220"/><use xlink:href="#9a6def22o" x="90.088" y="220"/><use xlink:href="#9a6def22m" x="96.448" y="220"/><use xlink:href="#9a6def22o" x="99.04" y="220"/><use xlink:href="#9a6def22z" x="105.4" y="220"/><use xlink:href="#9a6def22A" x="111.04" y="220"/><use xlink:href="#9a6def22k" x="115.348" y="220"/></g><g fill="#b7b7b7"><use xlink:href="#9a6def22B" x="119.512" y="220"/><use xlink:href="#9a6def22C" x="125.212" y="220"/><use xlink:href="#9a6def22q" x="128.308" y="220"/><use xlink:href="#9a6def22D" x="131.164" y="220"/><use xlink:href="#9a6def22E" x="137.104" y="220"/><use xlink:href="#9a6def22A" x="143.488" y="220"/></g><use xlink:href="#9a6def22F" x="49.3025" y="293.33333"/><use xlink:href="#9a6def22G" x="66.3125" y="293.33333"/><use xlink:href="#9a6def22H" x="80.8375" y="293.33333"/><use xlink:href="#9a6def22I" x="96.6225" y="293.33333"/><use xlink:href="#9a6def22J" x="103.0975" y="293.33333"/><use xlink:href="#9a6def22K" x="119.4775" y="293.33333"/><use xlink:href="#9a6def22L" x="134.7725" y="293.33333"/><use xlink:href="#9a6def22h" x="63.922" y="330" fill="#b7b7b7"/><use xlink:href="#9a6def22i" x="70.678" y="330" fill="#b7b7b7"/><g fill="#b7b7b7"><use xlink:href="#9a6def22j" x="76.246" y="330"/><use xlink:href="#9a6def22k" x="82.498" y="330"/><use xlink:href="#9a6def22l" x="86.878" y="330"/></g><g fill="#b7b7b7"><use xlink:href="#9a6def22m" x="92.494" y="330"/><use xlink:href="#9a6def22n" x="95.086" y="330"/><use xlink:href="#9a6def22o" x="101.806" y="330"/><use xlink:href="#9a6def22m" x="108.166" y="330"/><use xlink:href="#9a6def22M" x="110.758" y="330"/><use xlink:href="#9a6def22q" x="116.59" y="330"/><use xlink:href="#9a6def22D" x="119.446" y="330"/><use xlink:href="#9a6def22E" x="125.386" y="330"/><use xlink:href="#9a6def22A" x="131.77" y="330"/></g><use xlink:href="#9a6def22N" x="48.4975" y="403.33333"/><use xlink:href="#9a6def22O" x="65.8225" y="403.33333"/><use xlink:href="#9a6def22P" x="80.6625" y="403.33333"/><use xlink:href="#9a6def22Q" x="96.7275" y="403.33333"/><use xlink:href="#9a6def22R" x="102.9225" y="403.33333"/><use xlink:href="#9a6def22S" x="119.5825" y="403.33333"/><use xlink:href="#9a6def22T" x="135.2625" y="403.33333"/><use xlink:href="#9a6def22h" x="57.586" y="440" fill="#b7b7b7"/><use xlink:href="#9a6def22i" x="64.342" y="440" fill="#b7b7b7"/><g fill="#b7b7b7"><use xlink:href="#9a6def22j" x="69.91" y="440"/><use xlink:href="#9a6def22k" x="76.162" y="440"/><use xlink:href="#9a6def22l" x="80.542" y="440"/></g><g fill="#b7b7b7"><use xlink:href="#9a6def22m" x="86.158" y="440"/><use xlink:href="#9a6def22n" x="88.75" y="440"/><use xlink:href="#9a6def22o" x="95.47" y="440"/><use xlink:href="#9a6def22m" x="101.83" y="440"/><use xlink:href="#9a6def22U" x="104.422" y="440"/></g><g fill="#b7b7b7"><use xlink:href="#9a6def22V" x="111.154" y="440"/><use xlink:href="#9a6def22D" x="116.998" y="440"/><use xlink:href="#9a6def22W" x="122.938" y="440"/><use xlink:href="#9a6def22C" x="129.238" y="440"/><use xlink:href="#9a6def22B" x="132.334" y="440"/><use xlink:href="#9a6def22k" x="138.034" y="440"/></g><use xlink:href="#9a6def22X" x="47.7625" y="513.33333"/><use xlink:href="#9a6def22Y" x="65.3325" y="513.33333"/><use xlink:href="#9a6def22Z" x="80.4525" y="513.33333"/><use xlink:href="#9a6def22aa" x="96.7975" y="513.33333"/><use xlink:href="#9a6def22ab" x="102.7475" y="513.33333"/><use xlink:href="#9a6def22ac" x="119.6875" y="513.33333"/><use xlink:href="#9a6def22ad" x="135.7175" y="513.33333"/><use xlink:href="#9a6def22h" x="56.182" y="550" fill="#b7b7b7"/><use xlink:href="#9a6def22i" x="62.938" y="550" fill="#b7b7b7"/><g fill="#b7b7b7"><use xlink:href="#9a6def22j" x="68.506" y="550"/><use xlink:href="#9a6def22k" x="74.758" y="550"/><use xlink:href="#9a6def22l" x="79.138" y="550"/></g><g fill="#b7b7b7"><use xlink:href="#9a6def22m" x="84.754" y="550"/><use xlink:href="#9a6def22n" x="87.346" y="550"/><use xlink:href="#9a6def22o" x="94.066" y="550"/><use xlink:href="#9a6def22m" x="100.426" y="550"/><use xlink:href="#9a6def22ae" x="103.018" y="550"/></g><g fill="#b7b7b7"><use xlink:href="#9a6def22V" x="112.846" y="550"/><use xlink:href="#9a6def22af" x="118.69" y="550"/><use xlink:href="#9a6def22q" x="125.062" y="550"/><use xlink:href="#9a6def22W" x="127.918" y="550"/><use xlink:href="#9a6def22ag" x="134.218" y="550"/></g><use xlink:href="#9a6def22ah" x="47.2725" y="623.33333"/><use xlink:href="#9a6def22ai" x="65.0525" y="623.33333"/><use xlink:href="#9a6def22aj" x="80.4175" y="623.33333"/><use xlink:href="#9a6def22ak" x="97.0425" y="623.33333"/><g><use xlink:href="#9a6def22al" x="102.8175" y="623.33333"/><use xlink:href="#9a6def22am" x="119.8275" y="623.33333"/><use xlink:href="#9a6def22an" x="135.9975" y="623.33333"/></g><g fill="#b7b7b7"><use xlink:href="#9a6def22h" x="53.188" y="660"/></g><g fill="#b7b7b7"><use xlink:href="#9a6def22i" x="59.944" y="660"/></g><g fill="#b7b7b7"><use xlink:href="#9a6def22j" x="65.512" y="660"/><use xlink:href="#9a6def22k" x="71.764" y="660"/><use xlink:href="#9a6def22l" x="76.144" y="660"/></g><g fill="#b7b7b7"><use xlink:href="#9a6def22m" x="81.76" y="660"/><use xlink:href="#9a6def22n" x="84.352" y="660"/><use xlink:href="#9a6def22o" x="91.072" y="660"/><use xlink:href="#9a6def22m" x="97.432" y="660"/><use xlink:href="#9a6def22ao" x="100.024" y="660"/><use xlink:href="#9a6def22V" x="106.48" y="660"/><use xlink:href="#9a6def22ag" x="112.324" y="660"/><use xlink:href="#9a6def22q" x="121.924" y="660"/><use xlink:href="#9a6def22ap" x="124.78" y="660"/><use xlink:href="#9a6def22j" x="131.092" y="660"/><use xlink:href="#9a6def22C" x="137.344" y="660"/><use xlink:href="#9a6def22af" x="140.44" y="660"/></g><g><use xlink:href="#9a6def22aq" x="46.765" y="733.33333"/><use xlink:href="#9a6def22ar" x="64.755" y="733.33333"/><use xlink:href="#9a6def22as" x="80.4" y="733.33333"/><use xlink:href="#9a6def22at" x="97.305" y="733.33333"/></g><g><use xlink:href="#9a6def22au" x="102.905" y="733.33333"/><use xlink:href="#9a6def22av" x="119.95" y="733.33333"/><use xlink:href="#9a6def22aw" x="136.295" y="733.33333"/></g><g fill="#b7b7b7"><use xlink:href="#9a6def22h" x="65.23" y="770"/></g><g fill="#b7b7b7"><use xlink:href="#9a6def22i" x="71.986" y="770"/></g><g fill="#b7b7b7"><use xlink:href="#9a6def22j" x="77.554" y="770"/><use xlink:href="#9a6def22k" x="83.806" y="770"/><use xlink:href="#9a6def22l" x="88.186" y="770"/></g><g fill="#b7b7b7"><use xlink:href="#9a6def22m" x="93.802" y="770"/><use xlink:href="#9a6def22n" x="96.394" y="770"/><use xlink:href="#9a6def22o" x="103.114" y="770"/><use xlink:href="#9a6def22m" x="109.474" y="770"/><use xlink:href="#9a6def22ax" x="112.066" y="770"/><use xlink:href="#9a6def22j" x="119.05" y="770"/><use xlink:href="#9a6def22C" x="125.302" y="770"/><use xlink:href="#9a6def22af" x="128.398" y="770"/></g><g><use xlink:href="#9a6def22ay" x="46.1875" y="843.33333"/><use xlink:href="#9a6def22az" x="64.3875" y="843.33333"/><use xlink:href="#9a6def22aA" x="80.3475" y="843.33333"/><use xlink:href="#9a6def22aB" x="97.5675" y="843.33333"/></g><g><use xlink:href="#9a6def22aC" x="102.9925" y="843.33333"/><use xlink:href="#9a6def22aD" x="120.1075" y="843.33333"/><use xlink:href="#9a6def22aE" x="136.6275" y="843.33333"/></g><g fill="#b7b7b7"><use xlink:href="#9a6def22h" x="52.48" y="880"/></g><g fill="#b7b7b7"><use xlink:href="#9a6def22i" x="59.236" y="880"/></g><g fill="#b7b7b7"><use xlink:href="#9a6def22j" x="64.804" y="880"/><use xlink:href="#9a6def22k" x="71.056" y="880"/><use xlink:href="#9a6def22l" x="75.436" y="880"/></g><g fill="#b7b7b7"><use xlink:href="#9a6def22m" x="81.052" y="880"/><use xlink:href="#9a6def22n" x="83.644" y="880"/><use xlink:href="#9a6def22o" x="90.364" y="880"/><use xlink:href="#9a6def22m" x="96.724" y="880"/><use xlink:href="#9a6def22o" x="99.316" y="880"/><use xlink:href="#9a6def22z" x="105.676" y="880"/><use xlink:href="#9a6def22A" x="111.316" y="880"/><use xlink:href="#9a6def22k" x="115.624" y="880"/></g><g fill="#b7b7b7"><use xlink:href="#9a6def22B" x="119.788" y="880"/><use xlink:href="#9a6def22ap" x="125.488" y="880"/><use xlink:href="#9a6def22j" x="131.8" y="880"/><use xlink:href="#9a6def22C" x="138.052" y="880"/><use xlink:href="#9a6def22af" x="141.148" y="880"/></g><g><use xlink:href="#9a6def22aF" x="45.6975" y="953.33333"/><use xlink:href="#9a6def22aG" x="64.1075" y="953.33333"/><use xlink:href="#9a6def22aH" x="80.3125" y="953.33333"/><use xlink:href="#9a6def22aI" x="97.8125" y="953.33333"/></g><g><use xlink:href="#9a6def22aJ" x="103.0625" y="953.33333"/><use xlink:href="#9a6def22aK" x="120.2475" y="953.33333"/><use xlink:href="#9a6def22aL" x="136.9075" y="953.33333"/></g><g fill="#b7b7b7"><use xlink:href="#9a6def22h" x="63.064" y="990"/></g><g fill="#b7b7b7"><use xlink:href="#9a6def22i" x="69.82" y="990"/></g><g fill="#b7b7b7"><use xlink:href="#9a6def22j" x="75.388" y="990"/><use xlink:href="#9a6def22k" x="81.64" y="990"/><use xlink:href="#9a6def22l" x="86.02" y="990"/></g><g fill="#b7b7b7"><use xlink:href="#9a6def22m" x="91.636" y="990"/><use xlink:href="#9a6def22n" x="94.228" y="990"/><use xlink:href="#9a6def22o" x="100.948" y="990"/><use xlink:href="#9a6def22m" x="107.308" y="990"/><use xlink:href="#9a6def22ax" x="109.9" y="990"/></g><g fill="#b7b7b7"><use xlink:href="#9a6def22C" x="116.872" y="990"/><use xlink:href="#9a6def22B" x="119.968" y="990"/><use xlink:href="#9a6def22aM" x="125.668" y="990"/><use xlink:href="#9a6def22aN" x="131.02" y="990"/></g></svg>