<?xml version='1.0' encoding='UTF-8'?>
<svg xmlns="http://www.w3.org/2000/svg" xmlns:xlink="http://www.w3.org/1999/xlink" width="600px" height="300px" viewBox="0 0 600 300" x="0px" y="0px" enable-background="new 0 0 600 300"><defs><symbol overflow="visible" id="67d2e5a9a"><path d="M.95-62.56v6.33h11.36V0h6.81v-56.23h11.36v-6.33zm0 0"/></symbol><symbol overflow="visible" id="67d2e5a9b"><path d="M4.56-14.88C4.56-4 8.56.96 17.36.96S30.16-4 30.16-14.87v-14.57c0-10.97-4-15.84-12.8-15.84s-12.8 4.87-12.8 15.84zm6.4 0v-14.56c0-7.36 1.52-10.25 6.4-10.25 5.05 0 6.48 2.9 6.48 10.25v14.57c0 7.35-1.43 10.23-6.48 10.23-4.88 0-6.4-2.88-6.4-10.23zm0 0"/></symbol><symbol overflow="visible" id="67d2e5a9c"><path d="M19.44-5.2c-3.92 0-5.92-1.44-5.92-6.88v-26.56h8.96v-5.6h-8.96v-11.68h-5.6l-.97 11.69H1.7v5.59h5.36v27.28C7.05-3.2 10.65.41 18.48.41L22.8.16V-5.2zm0 0"/></symbol><symbol overflow="visible" id="67d2e5a9d"><path d="M22.95-4.88l.97 5.36L29.44 0l-.96-10.88v-21.68c0-8.4-3.36-12.49-11.68-12.49-4.24 0-8 .97-11.36 2.25l1.2 4.96c2.88-.8 6.31-1.6 9.44-1.6 4.87 0 6.15 2.49 6.15 8.31v4.18h-3.82c-8.72 0-14.97 4.15-14.97 14.47C3.44-3.12 7.36.95 13.92.95c5.77 0 7.85-3.9 9.03-5.83zm-4.54-16.96h3.82v11.76c-1.43 2.24-3.59 5.44-7.18 5.44-3.2 0-5.28-2.08-5.28-8.08 0-6.87 3.36-9.12 8.64-9.12zm0 0"/></symbol><symbol overflow="visible" id="67d2e5a9e"><path d="M15.92-5.2C13.2-5.2 12-6 12-9.6v-52.96H5.6v53.51C5.6-2.56 7.91.41 14.15.41L18 .16V-5.2zm0 0"/></symbol><symbol overflow="visible" id="67d2e5a9f"><path d="M7.6-35.13c2.48 0 4.17-1.43 4.17-4.56 0-2.95-1.7-4.39-4.18-4.39-2.54 0-4.23 1.44-4.23 4.4 0 3.12 1.69 4.55 4.23 4.55zM7.6.48c2.48 0 4.17-1.43 4.17-4.48 0-2.95-1.7-4.48-4.18-4.48-2.54 0-4.23 1.53-4.23 4.48C3.36-.95 5.05.48 7.59.48zm0 0"/></symbol><symbol overflow="visible" id="67d2e5a9h"><path d="M4.4-12.88c0 9.36 4 14 13.6 14 9.05 0 13.6-4.64 13.6-14 0-6-1.76-10.24-5.52-12.4 2.72-2.16 4.23-6.08 4.23-12.56 0-10.96-3.51-15.44-12.31-15.44-8 0-12.23 4.48-12.23 15.44 0 6.72 1.36 10.64 4.15 12.72-3.6 2.32-5.51 6.56-5.51 12.25zM12-37.84c0-7.2 1.44-9.93 6-9.93 4.64 0 6.08 2.49 6.08 9.93 0 8.15-1.67 10.32-6.08 10.32-4.23 0-6-2.17-6-10.32zm-1.28 24.8c0-6.48 2.15-9.27 7.28-9.27 5.13 0 7.28 2.62 7.28 9.26 0 6-2 8.57-7.28 8.57s-7.28-2.57-7.28-8.57zm0 0"/></symbol><symbol overflow="visible" id="67d2e5a9i"><path d="M23.2-14.56c0 7.04-3.04 9.04-10.4 9.04h-6V0l6.4.31c11.44 0 16.57-3.9 16.57-14.95C29.77-26 24.3-29.2 15.05-29.2l-1.93.07V-46h15.52v-6.23H6.87v28.8h6c7.13 0 10.33 1.5 10.33 8.87zm0 0"/></symbol><symbol overflow="visible" id="67d2e5a9j"><path d="M2.23-46.31h6.72V0h6.64v-52.23H2.23zm0 0"/></symbol><symbol overflow="visible" id="67d2e5a9k"><path d="M18.56-30.88c-2.72 0-5.12.72-7.04 1.52v-3.52c0-9.04 1.2-13.68 10-13.68h5.6v-5.67l-5.76-.25c-13.13 0-16.31 7.28-16.31 19.6v16.4c0 12.71 3.6 17.6 12.8 17.6 8.95 0 12.56-5.43 12.56-16 0-10.96-3.36-16-11.85-16zm-7.04 14.4v-7.2c1.76-.8 4-1.52 6.4-1.52 4.8 0 6.24 2.56 6.24 10.25 0 7.6-1.36 10.3-6.32 10.3-5.04 0-6.32-3.2-6.32-11.83zm0 0"/></symbol><symbol overflow="visible" id="67d2e5a9l"><path d="M3.83 0v-5.95H6.2v-.82H.45v.82h2.4V0zm0 0"/></symbol><symbol overflow="visible" id="67d2e5a9m"><path d="M5.75-2.23v-.43c0-1.6-.9-2.51-2.42-2.51S.87-4.16.87-2.48c0 1.71.91 2.62 2.5 2.62 1.43 0 2.07-.56 2.29-1.52l-.9-.09c-.18.61-.59.9-1.35.9-.94 0-1.52-.54-1.58-1.66zm-2.4-2.2c.93 0 1.43.5 1.48 1.55H1.84c.08-1.07.6-1.56 1.5-1.56zm0 0"/></symbol><symbol overflow="visible" id="67d2e5a9n"><path d="M1.83 0l1.42-2h.06l1.46 2H5.8L4-2.53l1.78-2.49H4.8L3.42-3.08h-.08l-1.4-1.94H.89l1.78 2.49L.84 0zm0 0"/></symbol><symbol overflow="visible" id="67d2e5a9o"><path d="M5.52-4.25v-.77H3.17v-1.56h-.81l-.14 1.56H.75v.77h1.47v2.4c0 1.3.48 1.94 1.84 1.94C4.6.1 5.14 0 5.55-.14L5.4-.91c-.32.13-.72.2-1.13.2-.8 0-1.1-.37-1.1-1.23v-2.31zm0 0"/></symbol><symbol overflow="visible" id="67d2e5a9p"><path d="M3.33-3.42c.47 0 .8-.27.8-.8 0-.51-.33-.8-.8-.8-.47 0-.8.29-.8.8 0 .53.33.8.8.8zm0 3.5c.47 0 .8-.27.8-.78 0-.53-.33-.82-.8-.82-.47 0-.8.29-.8.82 0 .51.33.78.8.78zm0 0"/></symbol><symbol overflow="visible" id="67d2e5a9r"><path d="M3.33.14c1.62 0 2.5-.95 2.5-2.66 0-1.68-.88-2.64-2.5-2.64-1.63 0-2.5.96-2.5 2.64 0 1.7.87 2.66 2.5 2.66zm0-.77c-1.06 0-1.52-.6-1.52-1.89 0-1.28.46-1.87 1.52-1.87 1.08 0 1.53.6 1.53 1.87 0 1.29-.45 1.9-1.53 1.9zm0 0"/></symbol><symbol overflow="visible" id="67d2e5a9s"><path d="M2.83.14c.94 0 1.5-.39 1.81-.95h.08l.1.81h.76v-3.38c0-1.23-.69-1.8-2.13-1.8-1.43 0-2.03.65-2.18 1.6l.93.1c.11-.6.44-.93 1.22-.93.85 0 1.22.32 1.22 1.04v.34l-1.81.2C1.6-2.7 1.1-2.17 1.1-1.28c0 .92.64 1.42 1.72 1.42zm.25-.77c-.67 0-1.02-.28-1.02-.74 0-.44.28-.72 1-.82l1.58-.19v.41c0 .8-.6 1.34-1.56 1.34zm0 0"/></symbol><symbol overflow="visible" id="67d2e5a9t"><path d="M3.92-7.14H1.36v.76h1.6v5.61H1.15V0H5.7v-.77H3.92zm0 0"/></symbol><symbol overflow="visible" id="67d2e5a9u"><path d="M3.33.16c1.69 0 2.69-.74 2.69-1.94 0-1.05-.8-1.58-1.43-1.72v-.05c.5-.14 1.2-.58 1.2-1.56 0-1.12-.95-1.81-2.46-1.81-1.52 0-2.46.69-2.46 1.81 0 .97.68 1.4 1.18 1.56v.05c-.6.14-1.4.64-1.4 1.72 0 1.2 1 1.94 2.68 1.94zm0-4.04c-.97 0-1.49-.43-1.49-1.12 0-.78.52-1.1 1.49-1.1.95 0 1.48.32 1.48 1.1 0 .69-.53 1.13-1.48 1.13zm0 3.24c-1.1 0-1.7-.42-1.7-1.25 0-.78.6-1.2 1.7-1.2s1.7.42 1.7 1.2c0 .83-.6 1.25-1.7 1.25zm0 0"/></symbol><symbol overflow="visible" id="67d2e5a9v"><path d="M3.42.14c1.55 0 2.44-.84 2.44-2.33 0-1.45-.83-2.22-2.14-2.22-.75 0-1.28.27-1.67.72H2l.31-2.22h3.11v-.86H1.53l-.45 3.93h.81c.3-.36.9-.79 1.58-.79.92 0 1.44.43 1.44 1.47 0 .99-.54 1.5-1.49 1.5-.83 0-1.28-.32-1.5-1.01l-.95.1C1.07-.46 2 .13 3.42.13zm0 0"/></symbol><symbol overflow="visible" id="67d2e5a9w"><path d="M4.22-6.77h-.86l-2.03.7v.87c.64-.17 1.26-.38 1.89-.55v4.9H1.03V0h4.9v-.86H4.21zm0 0"/></symbol><symbol overflow="visible" id="67d2e5a9x"><path d="M3.42.14c1.58 0 2.49-.86 2.49-2.3 0-1.42-.86-2.17-2.22-2.17-1.03 0-1.58.5-1.9 1.02h-.04c.03-1.63.4-2.77 1.73-2.77.91 0 1.24.44 1.36.96l.97-.11c-.23-.96-.86-1.68-2.33-1.68C1.84-6.9.86-5.86.86-3.1.86-.9 1.78.14 3.42.14zm.02-.78c-.9 0-1.47-.55-1.47-1.47 0-.9.7-1.47 1.53-1.47.92 0 1.47.52 1.47 1.47 0 .97-.6 1.47-1.53 1.47zm0 0"/></symbol><symbol overflow="visible" id="67d2e5a9y"><path d="M5.95-6.77H1.1V0h.99v-2.92H5.3v-.77H2.08v-2.26h3.87zm0 0"/></symbol><symbol overflow="visible" id="67d2e5a9z"><path d="M2.73.14c.9 0 1.43-.45 1.74-1.08h.06l.13.94h.8v-5.02h-.94v2.7c0 .98-.57 1.62-1.46 1.62-.75 0-1.1-.4-1.1-1.22v-3.1h-.93v3.32c0 1.17.55 1.84 1.7 1.84zm0 0"/></symbol><symbol overflow="visible" id="67d2e5a9A"><path d="M5.08-5.16c-.94 0-1.58.43-1.9 1.3h-.09l-.07-1.16H1.05v.77h1.1v3.48H.96V0h3.96v-.77H3.1v-1.46c0-1.36.6-2.05 1.83-2.05.4 0 .76.08 1.1.17l.15-.87c-.33-.11-.7-.18-1.11-.18zm0 0"/></symbol><symbol overflow="visible" id="67d2e5a9B"><path d="M2.08-6.77h-.99V0h4.79v-.81h-3.8zm0 0"/></symbol><symbol overflow="visible" id="67d2e5a9C"><path d="M3.58-5.81c.42 0 .72-.22.72-.67 0-.44-.3-.68-.72-.68-.44 0-.72.24-.72.68 0 .45.28.67.72.67zm.5.8H1.52v.76h1.6v3.48h-1.8V0h4.46v-.77h-1.7zm0 0"/></symbol><symbol overflow="visible" id="67d2e5a9D"><path d="M2.16 0v-2.67c0-.99.59-1.63 1.46-1.63.74 0 1.07.38 1.07 1.22V0h.95v-3.31c0-1.2-.56-1.85-1.67-1.85-.92 0-1.49.46-1.77 1.08h-.06l-.12-.94H1.2V0zm0 0"/></symbol><symbol overflow="visible" id="67d2e5a9E"><path d="M3.16 2.03c1.67 0 2.4-.86 2.4-2.51v-4.54h-.81l-.13.91h-.06c-.26-.58-.8-1.05-1.73-1.05-1.42 0-2.24 1-2.24 2.52 0 1.6.75 2.56 2.2 2.56.94 0 1.5-.5 1.77-1.03h.05v.72c0 1.17-.42 1.67-1.45 1.67-.93 0-1.3-.34-1.41-.89L.8.5c.12.96.87 1.54 2.36 1.54zM3.06-.8c-.98 0-1.48-.57-1.48-1.82 0-1.13.5-1.75 1.48-1.75 1.06 0 1.58.76 1.58 1.75 0 .95-.56 1.82-1.58 1.82zm0 0"/></symbol><symbol overflow="visible" id="67d2e5a9F"><path d="M1.63 0v-2.9c0-.8.15-1.4.71-1.4.41 0 .55.3.55.88V0h.95v-2.9c0-.8.18-1.4.72-1.4.4 0 .57.3.57.88V0h.95v-3.63c0-.92-.28-1.53-1.11-1.53-.63 0-.95.41-1.1.9h-.06c-.1-.52-.44-.9-1.08-.9-.6 0-.93.41-1.06.9H1.6l-.23-.76H.67V0zm0 0"/></symbol><symbol overflow="visible" id="67d2e5a9G"><path d="M3.36.16c1.4 0 2.2-.6 2.2-1.57 0-.89-.54-1.22-1.47-1.39L3-3c-.67-.14-.86-.33-.86-.73 0-.5.4-.74 1.17-.74.83 0 1.19.27 1.27.8l.9-.05c-.12-1-.8-1.47-2.17-1.47-1.34 0-2.1.53-2.1 1.5 0 .81.45 1.22 1.52 1.44l1.04.2c.56.11.87.24.87.72 0 .52-.45.78-1.28.78-.95 0-1.36-.28-1.42-.87l-.9.06C1.07-.36 1.8.16 3.35.16zm0 0"/></symbol><symbol overflow="visible" id="67d2e5a9H"><path d="M5.33-2.2v-.75h-4v.75zm0 0"/></symbol><symbol overflow="visible" id="67d2e5a9I"><path d="M3.34.14c1.43 0 2.13-.66 2.25-1.78l-.89-.1c-.1.7-.5 1.08-1.34 1.08-1.03 0-1.52-.64-1.52-1.84 0-1.23.47-1.86 1.52-1.86.84 0 1.23.36 1.34 1.08l.9-.1c-.13-1.09-.82-1.78-2.26-1.78-1.56 0-2.46.97-2.46 2.66 0 1.66.9 2.64 2.46 2.64zm0 0"/></symbol><symbol overflow="visible" id="67d2e5a9J"><path d="M2.06 1.9V-.84h.05c.28.58.8.97 1.77.97 1.5 0 2.2-.98 2.2-2.66 0-1.65-.7-2.64-2.19-2.64-.97 0-1.5.44-1.78 1.05h-.08l-.1-.9H1.1v6.9zm1.5-2.56c-1.06 0-1.53-.8-1.53-1.86 0-1.04.47-1.84 1.53-1.84 1.11 0 1.53.61 1.53 1.84 0 1.27-.42 1.86-1.53 1.86zm0 0"/></symbol><symbol overflow="visible" id="67d2e5a9K"><path d="M2.16 0v-2.69c0-.98.6-1.6 1.46-1.6.74 0 1.07.4 1.07 1.2V0h.95v-3.31c0-1.17-.56-1.85-1.67-1.85-.9 0-1.44.46-1.75 1.08h-.06v-3.06H1.2V0zm0 0"/></symbol><symbol overflow="visible" id="67d2e5a9L"><path d="M1.45-2.95c0 2.56 1.08 4.37 3.67 4.84l.11-.67C3.28.86 2.43-.75 2.43-2.95s.85-3.82 2.8-4.16l-.1-.69c-2.6.49-3.68 2.3-3.68 4.85zm0 0"/></symbol><symbol overflow="visible" id="67d2e5a9M"><path d="M2.84.14C3.8.14 4.33-.26 4.6-.9h.07L4.8 0h.76v-7.14h-.95v2.95h-.08c-.28-.6-.86-.97-1.67-.97-1.48 0-2.27.99-2.27 2.64C.6-.84 1.36.14 2.84.14zm.22-.8c-.98 0-1.48-.59-1.48-1.84s.5-1.86 1.48-1.86c1.13 0 1.58.8 1.58 1.86S4.2-.66 3.06-.66zm0 0"/></symbol><symbol overflow="visible" id="67d2e5a9N"><path d="M4.63-6.5c.45 0 .98.08 1.39.2l.2-.72a5.3 5.3 0 00-1.64-.26c-1.52 0-2.16.56-2.16 1.87v.4H.9v.76h1.53V0h.94v-4.25h2.53v-.77H3.36v-.3c0-.84.33-1.18 1.27-1.18zm0 0"/></symbol><symbol overflow="visible" id="67d2e5a9O"><path d="M1.45-7.1c1.96.33 2.8 1.94 2.8 4.15 0 2.2-.84 3.8-2.8 4.17l.11.67c2.58-.47 3.67-2.28 3.67-4.84 0-2.55-1.09-4.36-3.67-4.85zm0 0"/></symbol></defs><use xlink:href="#67d2e5a9a" x="152.24" y="163" fill="#515151"/><g fill="#515151"><use xlink:href="#67d2e5a9b" x="179.6" y="163"/><use xlink:href="#67d2e5a9c" x="214.4" y="163"/><use xlink:href="#67d2e5a9d" x="239.04" y="163"/><use xlink:href="#67d2e5a9e" x="272.96" y="163"/><use xlink:href="#67d2e5a9f" x="292.4" y="163"/><use xlink:href="#67d2e5a9g" x="307.52" y="163"/></g><g fill="#fff"><use xlink:href="#67d2e5a9h" x="321.68" y="163"/><use xlink:href="#67d2e5a9i" x="357.68" y="163"/><use xlink:href="#67d2e5a9j" x="391.36" y="163"/><use xlink:href="#67d2e5a9k" x="413.44" y="163"/></g><g fill="#fff"><use xlink:href="#67d2e5a9l" x="243.3333" y="252"/><use xlink:href="#67d2e5a9m" x="250.0003" y="252"/><use xlink:href="#67d2e5a9n" x="256.6673" y="252"/><use xlink:href="#67d2e5a9o" x="263.3343" y="252"/><use xlink:href="#67d2e5a9p" x="270.0013" y="252"/><use xlink:href="#67d2e5a9q" x="276.6683" y="252"/><use xlink:href="#67d2e5a9l" x="283.3353" y="252"/><use xlink:href="#67d2e5a9r" x="290.0023" y="252"/><use xlink:href="#67d2e5a9o" x="296.6693" y="252"/><use xlink:href="#67d2e5a9s" x="303.3363" y="252"/><use xlink:href="#67d2e5a9t" x="310.0033" y="252"/><use xlink:href="#67d2e5a9p" x="316.6703" y="252"/><use xlink:href="#67d2e5a9q" x="323.3373" y="252"/><use xlink:href="#67d2e5a9u" x="330.0043" y="252"/><use xlink:href="#67d2e5a9v" x="336.6713" y="252"/><use xlink:href="#67d2e5a9w" x="343.3383" y="252"/><use xlink:href="#67d2e5a9x" x="350.0053" y="252"/></g><g fill="#fff"><use xlink:href="#67d2e5a9y" x="120" y="266"/><use xlink:href="#67d2e5a9m" x="126.667" y="266"/><use xlink:href="#67d2e5a9s" x="133.334" y="266"/><use xlink:href="#67d2e5a9o" x="140.001" y="266"/><use xlink:href="#67d2e5a9z" x="146.668" y="266"/><use xlink:href="#67d2e5a9A" x="153.335" y="266"/><use xlink:href="#67d2e5a9m" x="160.002" y="266"/><use xlink:href="#67d2e5a9p" x="166.669" y="266"/><use xlink:href="#67d2e5a9q" x="173.336" y="266"/><use xlink:href="#67d2e5a9B" x="180.003" y="266"/><use xlink:href="#67d2e5a9C" x="186.67" y="266"/><use xlink:href="#67d2e5a9D" x="193.337" y="266"/><use xlink:href="#67d2e5a9C" x="200.004" y="266"/><use xlink:href="#67d2e5a9D" x="206.671" y="266"/><use xlink:href="#67d2e5a9E" x="213.338" y="266"/><use xlink:href="#67d2e5a9q" x="220.005" y="266"/><use xlink:href="#67d2e5a9D" x="226.672" y="266"/><use xlink:href="#67d2e5a9z" x="233.339" y="266"/><use xlink:href="#67d2e5a9F" x="240.006" y="266"/><use xlink:href="#67d2e5a9m" x="246.673" y="266"/><use xlink:href="#67d2e5a9A" x="253.34" y="266"/><use xlink:href="#67d2e5a9s" x="260.007" y="266"/><use xlink:href="#67d2e5a9t" x="266.674" y="266"/><use xlink:href="#67d2e5a9G" x="273.341" y="266"/><use xlink:href="#67d2e5a9q" x="280.008" y="266"/><use xlink:href="#67d2e5a9s" x="286.675" y="266"/><use xlink:href="#67d2e5a9o" x="293.342" y="266"/><use xlink:href="#67d2e5a9q" x="300.009" y="266"/><use xlink:href="#67d2e5a9G" x="306.676" y="266"/><use xlink:href="#67d2e5a9F" x="313.343" y="266"/><use xlink:href="#67d2e5a9s" x="320.01" y="266"/><use xlink:href="#67d2e5a9t" x="326.677" y="266"/><use xlink:href="#67d2e5a9t" x="333.344" y="266"/><use xlink:href="#67d2e5a9H" x="340.011" y="266"/><use xlink:href="#67d2e5a9I" x="346.678" y="266"/><use xlink:href="#67d2e5a9s" x="353.345" y="266"/><use xlink:href="#67d2e5a9J" x="360.012" y="266"/><use xlink:href="#67d2e5a9q" x="366.679" y="266"/><use xlink:href="#67d2e5a9K" x="373.346" y="266"/><use xlink:href="#67d2e5a9m" x="380.013" y="266"/><use xlink:href="#67d2e5a9C" x="386.68" y="266"/><use xlink:href="#67d2e5a9E" x="393.347" y="266"/><use xlink:href="#67d2e5a9K" x="400.014" y="266"/><use xlink:href="#67d2e5a9o" x="406.681" y="266"/><use xlink:href="#67d2e5a9q" x="413.348" y="266"/><use xlink:href="#67d2e5a9L" x="420.015" y="266"/><use xlink:href="#67d2e5a9M" x="426.682" y="266"/><use xlink:href="#67d2e5a9m" x="433.349" y="266"/><use xlink:href="#67d2e5a9N" x="440.016" y="266"/><use xlink:href="#67d2e5a9s" x="446.683" y="266"/><use xlink:href="#67d2e5a9z" x="453.35" y="266"/><use xlink:href="#67d2e5a9t" x="460.017" y="266"/><use xlink:href="#67d2e5a9o" x="466.684" y="266"/><use xlink:href="#67d2e5a9O" x="473.351" y="266"/></g></svg>