<?xml version='1.0' encoding='UTF-8'?>
<svg xmlns="http://www.w3.org/2000/svg" xmlns:xlink="http://www.w3.org/1999/xlink" width="600px" height="300px" viewBox="0 0 600 300" x="0px" y="0px" enable-background="new 0 0 600 300"><defs><symbol overflow="visible" id="6f2d5bbfa"><path d="M7.05-52.23V0H18.4C29.36 0 34-4 34-13.77c0-6.15-2.56-9.75-7.13-11.59 4.18-2.4 6.18-6.72 6.18-12.4 0-9.6-4.25-14.47-14.9-14.47zm10.64 24.8h-4.1v-19.05h4.1c6.72 0 8.8 2.48 8.8 9.12 0 6.56-2.08 9.92-8.8 9.92zm.62 21.66H13.6V-22H18c6.64 0 9.36 1.77 9.36 7.92 0 6.4-2.4 8.31-9.05 8.31zm0 0"/></symbol><symbol overflow="visible" id="6f2d5bbfb"><path d="M7.05-52.23V0h22.64v-5.92h-16v-15.52h13.1v-5.76H13.7v-19.03h16v-6zm0 0"/></symbol><symbol overflow="visible" id="6f2d5bbfc"><path d="M7.05-52.23V0h6.64v-13.84h2.54c11.29 0 16.49-6 16.49-19.6 0-13.84-3.92-18.8-16-18.8zm9.18 32.54H13.7V-46.3h3.03c7.44 0 9.44 2.23 9.44 12.87 0 10.8-2.96 13.75-9.93 13.75zm0 0"/></symbol><symbol overflow="visible" id="6f2d5bbfd"><path d="M17.92-53.13c-10 0-12.87 5.54-12.87 16.49v18.95c0 12.25 4.15 18 17.1 18L30.32 0v-5.84h-8.15c-7.85 0-10.47-3.04-10.47-11.85v-18.95c0-7.77 1.1-10.64 6.23-10.64 5.28 0 6.24 2.87 6.24 10.64v12.16h6.15l.33-12.72c0-10.4-2.56-15.92-12.72-15.92zm0 0"/></symbol><symbol overflow="visible" id="6f2d5bbfe"><path d="M13.6-52.23H7.04V0h10.39l8.8-34.56 2.64-11.28h.96L29.04-24V0h6.55v-52.23H25.2l-8.72 34.8-2.56 11.02H12.8l.8-21.75zm0 0"/></symbol><symbol overflow="visible" id="6f2d5bbff"><path d="M12.72 0l7.6-16.56c.63.08 1.37.08 2 .08h3.52V0h6.47v-52.23H22.23c-11.36 0-16.39 4.95-16.39 17.51 0 8.56 3.04 14.16 8.64 16.72L5.84 0zm9.6-22.16c-6.73 0-9.68-3.92-9.68-12.56 0-9.51 2.8-11.6 9.6-11.6h3.6v24.16zm0 0"/></symbol><symbol overflow="visible" id="6f2d5bbfg"><path d="M3.83 0v-5.95H6.2v-.82H.45v.82h2.4V0zm0 0"/></symbol><symbol overflow="visible" id="6f2d5bbfh"><path d="M5.75-2.23v-.43c0-1.6-.9-2.51-2.42-2.51S.87-4.16.87-2.48c0 1.71.91 2.62 2.5 2.62 1.43 0 2.07-.56 2.29-1.52l-.9-.09c-.18.61-.59.9-1.35.9-.94 0-1.52-.54-1.58-1.66zm-2.4-2.2c.93 0 1.43.5 1.48 1.55H1.84c.08-1.07.6-1.56 1.5-1.56zm0 0"/></symbol><symbol overflow="visible" id="6f2d5bbfi"><path d="M1.83 0l1.42-2h.06l1.46 2H5.8L4-2.53l1.78-2.49H4.8L3.42-3.08h-.08l-1.4-1.94H.89l1.78 2.49L.84 0zm0 0"/></symbol><symbol overflow="visible" id="6f2d5bbfj"><path d="M5.52-4.25v-.77H3.17v-1.56h-.81l-.14 1.56H.75v.77h1.47v2.4c0 1.3.48 1.94 1.84 1.94C4.6.1 5.14 0 5.55-.14L5.4-.91c-.32.13-.72.2-1.13.2-.8 0-1.1-.37-1.1-1.23v-2.31zm0 0"/></symbol><symbol overflow="visible" id="6f2d5bbfk"><path d="M3.33-3.42c.47 0 .8-.27.8-.8 0-.51-.33-.8-.8-.8-.47 0-.8.29-.8.8 0 .53.33.8.8.8zm0 3.5c.47 0 .8-.27.8-.78 0-.53-.33-.82-.8-.82-.47 0-.8.29-.8.82 0 .51.33.78.8.78zm0 0"/></symbol><symbol overflow="visible" id="6f2d5bbfm"><path d="M4.78-2.63c.55-.14.86-.5.86-1.07 0-.9-.55-1.32-1.76-1.32H1.44V0h2.39c1.34 0 1.95-.4 1.95-1.38 0-.67-.37-1.04-1-1.18zM3.72-4.36c.75 0 1 .22 1 .72 0 .48-.27.77-1.13.77H2.36v-1.49zM2.36-.66v-1.57h1.31c.85 0 1.19.23 1.19.78 0 .54-.28.8-1.13.8zm0 0"/></symbol><symbol overflow="visible" id="6f2d5bbfn"><path d="M5.75-2.23v-.43c0-1.6-.9-2.51-2.42-2.51S.87-4.16.87-2.48c0 1.71.91 2.62 2.5 2.62 1.43 0 2.07-.56 2.29-1.52l-.9-.09c-.18.61-.59.9-1.35.9-.94 0-1.52-.54-1.58-1.66zm-2.4-2.2c.93 0 1.43.5 1.48 1.55H1.84c.08-1.07.6-1.56 1.5-1.56zm0 0"/></symbol><symbol overflow="visible" id="6f2d5bbfo"><path d="M2.06 1.9V-.84h.05c.28.58.8.97 1.77.97 1.5 0 2.2-.98 2.2-2.66 0-1.65-.7-2.64-2.19-2.64-.97 0-1.5.44-1.78 1.05h-.08l-.1-.9H1.1v6.9zm1.5-2.56c-1.06 0-1.53-.8-1.53-1.86 0-1.04.47-1.84 1.53-1.84 1.11 0 1.53.61 1.53 1.84 0 1.27-.42 1.86-1.53 1.86zm0 0"/></symbol><symbol overflow="visible" id="6f2d5bbfp"><path d="M3.34.14c1.43 0 2.13-.66 2.25-1.78l-.89-.1c-.1.7-.5 1.08-1.34 1.08-1.03 0-1.52-.64-1.52-1.84 0-1.23.47-1.86 1.52-1.86.84 0 1.23.36 1.34 1.08l.9-.1c-.13-1.09-.82-1.78-2.26-1.78-1.56 0-2.46.97-2.46 2.66 0 1.66.9 2.64 2.46 2.64zm0 0"/></symbol><symbol overflow="visible" id="6f2d5bbfq"><path d="M2.03 0L4.6-3.72h.08V0h.92v-5.02h-.96L2.06-1.27H2v-3.75h-.92V0zm0 0"/></symbol><symbol overflow="visible" id="6f2d5bbfr"><path d="M2.92-5.02c-1.34 0-1.95.54-1.95 1.55 0 .9.47 1.4 1.34 1.52L.87 0h1.1l1.36-1.88h1.04V0h.96v-5.02zm.11 2.47c-.81 0-1.1-.3-1.1-.9 0-.61.29-.86 1.1-.86h1.35v1.76zm0 0"/></symbol><symbol overflow="visible" id="6f2d5bbfs"><path d="M5.95-6.77H1.1V0h.99v-2.92H5.3v-.77H2.08v-2.26h3.87zm0 0"/></symbol><symbol overflow="visible" id="6f2d5bbft"><path d="M2.83.14c.94 0 1.5-.39 1.81-.95h.08l.1.81h.76v-3.38c0-1.23-.69-1.8-2.13-1.8-1.43 0-2.03.65-2.18 1.6l.93.1c.11-.6.44-.93 1.22-.93.85 0 1.22.32 1.22 1.04v.34l-1.81.2C1.6-2.7 1.1-2.17 1.1-1.28c0 .92.64 1.42 1.72 1.42zm.25-.77c-.67 0-1.02-.28-1.02-.74 0-.44.28-.72 1-.82l1.58-.19v.41c0 .8-.6 1.34-1.56 1.34zm0 0"/></symbol><symbol overflow="visible" id="6f2d5bbfu"><path d="M2.73.14c.9 0 1.43-.45 1.74-1.08h.06l.13.94h.8v-5.02h-.94v2.7c0 .98-.57 1.62-1.46 1.62-.75 0-1.1-.4-1.1-1.22v-3.1h-.93v3.32c0 1.17.55 1.84 1.7 1.84zm0 0"/></symbol><symbol overflow="visible" id="6f2d5bbfv"><path d="M5.08-5.16c-.94 0-1.58.43-1.9 1.3h-.09l-.07-1.16H1.05v.77h1.1v3.48H.96V0h3.96v-.77H3.1v-1.46c0-1.36.6-2.05 1.83-2.05.4 0 .76.08 1.1.17l.15-.87c-.33-.11-.7-.18-1.11-.18zm0 0"/></symbol><symbol overflow="visible" id="6f2d5bbfw"><path d="M3.42.14C5.1.14 5.9-.69 6.11-2.17l-.95-.1C4.96-1.19 4.5-.69 3.44-.69c-1.27 0-1.81-.94-1.81-2.69s.54-2.7 1.8-2.7c1.09 0 1.5.49 1.73 1.58l.93-.1c-.21-1.46-.95-2.3-2.62-2.3C1.53-6.9.62-5.6.62-3.38c0 2.2.91 3.51 2.8 3.51zm0 0"/></symbol><symbol overflow="visible" id="6f2d5bbfx"><path d="M3.42-.86h-.08L1.77-5.02H.8L2.73 0h.41c-.33.95-.72 1.27-1.45 1.27-.22 0-.49-.04-.69-.08l-.1.73c.2.06.58.11.87.11 1.2 0 1.7-.7 2.21-2.03l1.94-5.02H5zm0 0"/></symbol><symbol overflow="visible" id="6f2d5bbfy"><path d="M3.58-5.81c.42 0 .72-.22.72-.67 0-.44-.3-.68-.72-.68-.44 0-.72.24-.72.68 0 .45.28.67.72.67zm.5.8H1.52v.76h1.6v3.48h-1.8V0h4.46v-.77h-1.7zm0 0"/></symbol><symbol overflow="visible" id="6f2d5bbfz"><path d="M3.92-7.14H1.36v.76h1.6v5.61H1.15V0H5.7v-.77H3.92zm0 0"/></symbol><symbol overflow="visible" id="6f2d5bbfA"><path d="M3.34.14c1.43 0 2.13-.66 2.25-1.78l-.89-.1c-.1.7-.5 1.08-1.34 1.08-1.03 0-1.52-.64-1.52-1.84 0-1.23.47-1.86 1.52-1.86.84 0 1.23.36 1.34 1.08l.9-.1c-.13-1.09-.82-1.78-2.26-1.78-1.56 0-2.46.97-2.46 2.66 0 1.66.9 2.64 2.46 2.64zm0 0"/></symbol><symbol overflow="visible" id="6f2d5bbfB"><path d="M3.36.16c1.4 0 2.2-.6 2.2-1.57 0-.89-.54-1.22-1.47-1.39L3-3c-.67-.14-.86-.33-.86-.73 0-.5.4-.74 1.17-.74.83 0 1.19.27 1.27.8l.9-.05c-.12-1-.8-1.47-2.17-1.47-1.34 0-2.1.53-2.1 1.5 0 .81.45 1.22 1.52 1.44l1.04.2c.56.11.87.24.87.72 0 .52-.45.78-1.28.78-.95 0-1.36-.28-1.42-.87l-.9.06C1.07-.36 1.8.16 3.35.16zm0 0"/></symbol><symbol overflow="visible" id="6f2d5bbfC"><path d="M1.63 0v-2.9c0-.8.15-1.4.71-1.4.41 0 .55.3.55.88V0h.95v-2.9c0-.8.18-1.4.72-1.4.4 0 .57.3.57.88V0h.95v-3.63c0-.92-.28-1.53-1.11-1.53-.63 0-.95.41-1.1.9h-.06c-.1-.52-.44-.9-1.08-.9-.6 0-.93.41-1.06.9H1.6l-.23-.76H.67V0zm0 0"/></symbol><symbol overflow="visible" id="6f2d5bbfD"><path d="M2.06 1.9V-.84h.05c.28.58.8.97 1.77.97 1.5 0 2.2-.98 2.2-2.66 0-1.65-.7-2.64-2.19-2.64-.97 0-1.5.44-1.78 1.05h-.08l-.1-.9H1.1v6.9zm1.5-2.56c-1.06 0-1.53-.8-1.53-1.86 0-1.04.47-1.84 1.53-1.84 1.11 0 1.53.61 1.53 1.84 0 1.27-.42 1.86-1.53 1.86zm0 0"/></symbol><symbol overflow="visible" id="6f2d5bbfE"><path d="M1.45-2.95c0 2.56 1.08 4.37 3.67 4.84l.11-.67C3.28.86 2.43-.75 2.43-2.95s.85-3.82 2.8-4.16l-.1-.69c-2.6.49-3.68 2.3-3.68 4.85zm0 0"/></symbol><symbol overflow="visible" id="6f2d5bbfF"><path d="M5.4-1.22c.43-.66.66-1.51.66-2.44l-.83-.09c0 .75-.14 1.4-.4 1.92l-1.7-1.83c.8-.42 1.39-.96 1.39-1.86 0-.87-.66-1.4-1.61-1.4-1.14 0-1.72.62-1.72 1.47 0 .72.47 1.3.83 1.68-.8.41-1.52.99-1.52 2.1C.5-.44 1.52.14 2.7.14c.9 0 1.64-.3 2.2-.78l.58.64h1.05zM2.86-6.25c.44 0 .82.23.82.73 0 .7-.47 1.11-1 1.41-.47-.53-.67-.92-.67-1.34 0-.47.3-.8.85-.8zM2.81-.62c-.83 0-1.42-.41-1.42-1.18 0-.76.5-1.18 1.05-1.5l1.94 2.1c-.4.37-.91.57-1.57.57zm0 0"/></symbol><symbol overflow="visible" id="6f2d5bbfG"><path d="M5.67 0v-.86H2.14V-.9L3.6-2c1.05-.83 2-1.68 2-2.91 0-1.19-.73-1.99-2.26-1.99-1.66 0-2.3 1.02-2.44 2.33l1 .08c.1-.92.42-1.58 1.44-1.58.87 0 1.26.44 1.26 1.24 0 .9-.8 1.53-1.96 2.53L.83-.81V0zm0 0"/></symbol><symbol overflow="visible" id="6f2d5bbfH"><path d="M1.45-7.1c1.96.33 2.8 1.94 2.8 4.15 0 2.2-.84 3.8-2.8 4.17l.11.67c2.58-.47 3.67-2.28 3.67-4.84 0-2.55-1.09-4.36-3.67-4.85zm0 0"/></symbol></defs><g fill="#fff"><use xlink:href="#6f2d5bbfa" x="186.32" y="163"/><use xlink:href="#6f2d5bbfb" x="225.28" y="163"/><use xlink:href="#6f2d5bbfc" x="259.76" y="163"/><use xlink:href="#6f2d5bbfd" x="295.84" y="163"/><use xlink:href="#6f2d5bbfe" x="331.6" y="163"/><use xlink:href="#6f2d5bbff" x="374.24" y="163"/><use xlink:href="#6f2d5bbfg" x="260" y="252"/><use xlink:href="#6f2d5bbfh" x="266.667" y="252"/><use xlink:href="#6f2d5bbfi" x="273.334" y="252"/><use xlink:href="#6f2d5bbfj" x="280.001" y="252"/><use xlink:href="#6f2d5bbfk" x="286.668" y="252"/><use xlink:href="#6f2d5bbfl" x="293.335" y="252"/><use xlink:href="#6f2d5bbfm" x="300.002" y="252"/><use xlink:href="#6f2d5bbfn" x="306.669" y="252"/><use xlink:href="#6f2d5bbfo" x="313.336" y="252"/><use xlink:href="#6f2d5bbfp" x="320.003" y="252"/><use xlink:href="#6f2d5bbfq" x="326.67" y="252"/><use xlink:href="#6f2d5bbfr" x="333.337" y="252"/><g><use xlink:href="#6f2d5bbfs" x="146.6667" y="266"/><use xlink:href="#6f2d5bbfh" x="153.3337" y="266"/><use xlink:href="#6f2d5bbft" x="160.0007" y="266"/><use xlink:href="#6f2d5bbfj" x="166.6677" y="266"/><use xlink:href="#6f2d5bbfu" x="173.3347" y="266"/><use xlink:href="#6f2d5bbfv" x="180.0017" y="266"/><use xlink:href="#6f2d5bbfh" x="186.6687" y="266"/><use xlink:href="#6f2d5bbfk" x="193.3357" y="266"/><use xlink:href="#6f2d5bbfl" x="200.0027" y="266"/><use xlink:href="#6f2d5bbfw" x="206.6697" y="266"/><use xlink:href="#6f2d5bbfx" x="213.3367" y="266"/><use xlink:href="#6f2d5bbfv" x="220.0037" y="266"/><use xlink:href="#6f2d5bbfy" x="226.6707" y="266"/><use xlink:href="#6f2d5bbfz" x="233.3377" y="266"/><use xlink:href="#6f2d5bbfz" x="240.0047" y="266"/><use xlink:href="#6f2d5bbfy" x="246.6717" y="266"/><use xlink:href="#6f2d5bbfA" x="253.3387" y="266"/><use xlink:href="#6f2d5bbfl" x="260.0057" y="266"/><use xlink:href="#6f2d5bbfB" x="266.6727" y="266"/><use xlink:href="#6f2d5bbfC" x="273.3397" y="266"/><use xlink:href="#6f2d5bbft" x="280.0067" y="266"/><use xlink:href="#6f2d5bbfz" x="286.6737" y="266"/><use xlink:href="#6f2d5bbfz" x="293.3407" y="266"/><use xlink:href="#6f2d5bbfl" x="300.0077" y="266"/><use xlink:href="#6f2d5bbfA" x="306.6747" y="266"/><use xlink:href="#6f2d5bbft" x="313.3417" y="266"/><use xlink:href="#6f2d5bbfD" x="320.0087" y="266"/><use xlink:href="#6f2d5bbfy" x="326.6757" y="266"/><use xlink:href="#6f2d5bbfj" x="333.3427" y="266"/><use xlink:href="#6f2d5bbft" x="340.0097" y="266"/><use xlink:href="#6f2d5bbfz" x="346.6767" y="266"/><use xlink:href="#6f2d5bbfB" x="353.3437" y="266"/><use xlink:href="#6f2d5bbfl" x="360.0107" y="266"/><use xlink:href="#6f2d5bbfE" x="366.6777" y="266"/><use xlink:href="#6f2d5bbfB" x="373.3447" y="266"/><use xlink:href="#6f2d5bbfC" x="380.0117" y="266"/><use xlink:href="#6f2d5bbfA" x="386.6787" y="266"/><use xlink:href="#6f2d5bbfD" x="393.3457" y="266"/><use xlink:href="#6f2d5bbfl" x="400.0127" y="266"/><use xlink:href="#6f2d5bbfF" x="406.6797" y="266"/><use xlink:href="#6f2d5bbfl" x="413.3467" y="266"/><use xlink:href="#6f2d5bbfA" x="420.0137" y="266"/><use xlink:href="#6f2d5bbfG" x="426.6807" y="266"/><use xlink:href="#6f2d5bbfB" x="433.3477" y="266"/><use xlink:href="#6f2d5bbfA" x="440.0147" y="266"/><use xlink:href="#6f2d5bbfH" x="446.6817" y="266"/></g></g></svg>