<?xml version='1.0' encoding='UTF-8'?>
<svg xmlns="http://www.w3.org/2000/svg" xmlns:xlink="http://www.w3.org/1999/xlink" width="600px" height="300px" viewBox="0 0 600 300" x="0px" y="0px" enable-background="new 0 0 600 300"><defs><symbol overflow="visible" id="54cefe43a"><path d="M2.23-46.31h6.72V0h6.64v-52.23H2.23zm0 0"/></symbol><symbol overflow="visible" id="54cefe43b"><path d="M4.4-12.88c0 9.36 4 14 13.6 14 9.05 0 13.6-4.64 13.6-14 0-6-1.76-10.24-5.52-12.4 2.72-2.16 4.23-6.08 4.23-12.56 0-10.96-3.51-15.44-12.31-15.44-8 0-12.23 4.48-12.23 15.44 0 6.72 1.36 10.64 4.15 12.72-3.6 2.32-5.51 6.56-5.51 12.25zM12-37.84c0-7.2 1.44-9.93 6-9.93 4.64 0 6.08 2.49 6.08 9.93 0 8.15-1.67 10.32-6.08 10.32-4.23 0-6-2.17-6-10.32zm-1.28 24.8c0-6.48 2.15-9.27 7.28-9.27 5.13 0 7.28 2.62 7.28 9.26 0 6-2 8.57-7.28 8.57s-7.28-2.57-7.28-8.57zm0 0"/></symbol><symbol overflow="visible" id="54cefe43c"><path d="M3.52-32.8h5.6l.96-6.72h8.33l.95 6.72h5.69l-4.82-29.76h-12zm7.2-11.2l2-13.77h3.12L17.77-44zM-.64-19.84h28.56v-5.04H-.64zm0 0"/></symbol><symbol overflow="visible" id="54cefe43e"><path d="M12.23-6.31c0-12 17.7-13.85 17.7-32.25 0-10-3.21-14.72-12.09-14.72C9.44-53.28 6-48.56 6-38.64l.16 6.48h6v-6.4c0-6.4 1.2-8.88 5.68-8.88 4.4 0 5.6 2.64 5.6 8.88 0 15.36-17.75 17.44-17.75 32.15V0h24v-5.92H12.23zm0 0"/></symbol><symbol overflow="visible" id="54cefe43f"><path d="M3.05-9.84h17.18V0h6.41v-9.84h4.8v-5.75h-4.8v-36.64h-13.6l-10 36.64zM15.28-38l2.24-8.64h2.89l-.18 9.05v22H9.43zm0 0"/></symbol><symbol overflow="visible" id="54cefe43g"><path d="M3.36-47.52C3.36-36.08 5.44-32 13.59-32c7.85 0 10.1-4.08 10.1-15.52 0-11.53-2.25-15.84-10.1-15.84-8.15 0-10.23 4.31-10.23 15.84zm5.69 0c0-8 .15-11.12 4.54-11.12 4.33 0 4.49 3.12 4.49 11.12 0 7.83-.16 10.8-4.49 10.8-4.39 0-4.54-2.87-4.54-10.8zm-9.7 27.68h28.42v-5.04H-.64zm0 0"/></symbol><symbol overflow="visible" id="54cefe43h"><path d="M13.28-63.36c-6.33 0-9.51 3.2-9.51 8.16 0 11.6 14 9.12 14 15.36 0 2.25-1.2 3.43-4.41 3.43-3.36 0-4.48-1.28-4.48-4.23v-1.13h-5.2l-.24 2.08c0 4.9 3.2 7.85 9.84 7.85 6.49 0 9.92-3.11 9.92-7.93 0-10.71-14-7.75-14-15.43 0-2.57 1.36-3.6 4.08-3.6 2.88 0 4.16 1.2 4.16 4.96v1.68h4.97l.15-2.89c0-5.36-3.04-8.3-9.28-8.3zM0-19.84h26.72v-5.04H0zm0 0"/></symbol><symbol overflow="visible" id="54cefe43i"><path d="M1.52-62.56v4.87h6.64v24.9h5.6v-24.9h6.65v-4.87zM-.64-19.84h23.2v-5.04H-.64zm0 0"/></symbol><symbol overflow="visible" id="54cefe43j"><path d="M3.83 0v-5.95H6.2v-.82H.45v.82h2.4V0zm0 0"/></symbol><symbol overflow="visible" id="54cefe43k"><path d="M5.75-2.23v-.43c0-1.6-.9-2.51-2.42-2.51S.87-4.16.87-2.48c0 1.71.91 2.62 2.5 2.62 1.43 0 2.07-.56 2.29-1.52l-.9-.09c-.18.61-.59.9-1.35.9-.94 0-1.52-.54-1.58-1.66zm-2.4-2.2c.93 0 1.43.5 1.48 1.55H1.84c.08-1.07.6-1.56 1.5-1.56zm0 0"/></symbol><symbol overflow="visible" id="54cefe43l"><path d="M1.83 0l1.42-2h.06l1.46 2H5.8L4-2.53l1.78-2.49H4.8L3.42-3.08h-.08l-1.4-1.94H.89l1.78 2.49L.84 0zm0 0"/></symbol><symbol overflow="visible" id="54cefe43m"><path d="M5.52-4.25v-.77H3.17v-1.56h-.81l-.14 1.56H.75v.77h1.47v2.4c0 1.3.48 1.94 1.84 1.94C4.6.1 5.14 0 5.55-.14L5.4-.91c-.32.13-.72.2-1.13.2-.8 0-1.1-.37-1.1-1.23v-2.31zm0 0"/></symbol><symbol overflow="visible" id="54cefe43n"><path d="M3.33-3.42c.47 0 .8-.27.8-.8 0-.51-.33-.8-.8-.8-.47 0-.8.29-.8.8 0 .53.33.8.8.8zm0 3.5c.47 0 .8-.27.8-.78 0-.53-.33-.82-.8-.82-.47 0-.8.29-.8.82 0 .51.33.78.8.78zm0 0"/></symbol><symbol overflow="visible" id="54cefe43p"><path d="M4.22-6.77h-.86l-2.03.7v.87c.64-.17 1.26-.38 1.89-.55v4.9H1.03V0h4.9v-.86H4.21zm0 0"/></symbol><symbol overflow="visible" id="54cefe43q"><path d="M3.33.16c1.69 0 2.69-.74 2.69-1.94 0-1.05-.8-1.58-1.43-1.72v-.05c.5-.14 1.2-.58 1.2-1.56 0-1.12-.95-1.81-2.46-1.81-1.52 0-2.46.69-2.46 1.81 0 .97.68 1.4 1.18 1.56v.05c-.6.14-1.4.64-1.4 1.72 0 1.2 1 1.94 2.68 1.94zm0-4.04c-.97 0-1.49-.43-1.49-1.12 0-.78.52-1.1 1.49-1.1.95 0 1.48.32 1.48 1.1 0 .69-.53 1.13-1.48 1.13zm0 3.24c-1.1 0-1.7-.42-1.7-1.25 0-.78.6-1.2 1.7-1.2s1.7.42 1.7 1.2c0 .83-.6 1.25-1.7 1.25zm0 0"/></symbol><symbol overflow="visible" id="54cefe43r"><path d="M2.83.14c.94 0 1.5-.39 1.81-.95h.08l.1.81h.76v-3.38c0-1.23-.69-1.8-2.13-1.8-1.43 0-2.03.65-2.18 1.6l.93.1c.11-.6.44-.93 1.22-.93.85 0 1.22.32 1.22 1.04v.34l-1.81.2C1.6-2.7 1.1-2.17 1.1-1.28c0 .92.64 1.42 1.72 1.42zm.25-.77c-.67 0-1.02-.28-1.02-.74 0-.44.28-.72 1-.82l1.58-.19v.41c0 .8-.6 1.34-1.56 1.34zm0 0"/></symbol><symbol overflow="visible" id="54cefe43s"><path d="M5.67 0v-.86H2.14V-.9L3.6-2c1.05-.83 2-1.68 2-2.91 0-1.19-.73-1.99-2.26-1.99-1.66 0-2.3 1.02-2.44 2.33l1 .08c.1-.92.42-1.58 1.44-1.58.87 0 1.26.44 1.26 1.24 0 .9-.8 1.53-1.96 2.53L.83-.81V0zm0 0"/></symbol><symbol overflow="visible" id="54cefe43t"><path d="M5.1 0v-1.47H6v-.81h-.9v-4.49H3.8L.48-2.23v.76h3.66V0zM1.5-2.33l2.6-3.53h.04v3.58H1.5zm0 0"/></symbol><symbol overflow="visible" id="54cefe43u"><path d="M3.33.14c1.62 0 2.5-.95 2.5-2.66 0-1.68-.88-2.64-2.5-2.64-1.63 0-2.5.96-2.5 2.64 0 1.7.87 2.66 2.5 2.66zm0-.77c-1.06 0-1.52-.6-1.52-1.89 0-1.28.46-1.87 1.52-1.87 1.08 0 1.53.6 1.53 1.87 0 1.29-.45 1.9-1.53 1.9zm0 0"/></symbol><symbol overflow="visible" id="54cefe43v"><path d="M3.36.16c1.4 0 2.2-.6 2.2-1.57 0-.89-.54-1.22-1.47-1.39L3-3c-.67-.14-.86-.33-.86-.73 0-.5.4-.74 1.17-.74.83 0 1.19.27 1.27.8l.9-.05c-.12-1-.8-1.47-2.17-1.47-1.34 0-2.1.53-2.1 1.5 0 .81.45 1.22 1.52 1.44l1.04.2c.56.11.87.24.87.72 0 .52-.45.78-1.28.78-.95 0-1.36-.28-1.42-.87l-.9.06C1.07-.36 1.8.16 3.35.16zm0 0"/></symbol><symbol overflow="visible" id="54cefe43w"><path d="M5.95-6.77H1.1V0h.99v-2.92H5.3v-.77H2.08v-2.26h3.87zm0 0"/></symbol><symbol overflow="visible" id="54cefe43x"><path d="M2.73.14c.9 0 1.43-.45 1.74-1.08h.06l.13.94h.8v-5.02h-.94v2.7c0 .98-.57 1.62-1.46 1.62-.75 0-1.1-.4-1.1-1.22v-3.1h-.93v3.32c0 1.17.55 1.84 1.7 1.84zm0 0"/></symbol><symbol overflow="visible" id="54cefe43y"><path d="M5.08-5.16c-.94 0-1.58.43-1.9 1.3h-.09l-.07-1.16H1.05v.77h1.1v3.48H.96V0h3.96v-.77H3.1v-1.46c0-1.36.6-2.05 1.83-2.05.4 0 .76.08 1.1.17l.15-.87c-.33-.11-.7-.18-1.11-.18zm0 0"/></symbol><symbol overflow="visible" id="54cefe43z"><path d="M5.92-6.77H1.1V0h4.83v-.8H2.06v-2.26h3.22v-.75H2.06v-2.16h3.86zm0 0"/></symbol><symbol overflow="visible" id="54cefe43A"><path d="M2.16 0v-2.67c0-.99.59-1.63 1.46-1.63.74 0 1.07.38 1.07 1.22V0h.95v-3.31c0-1.2-.56-1.85-1.67-1.85-.92 0-1.49.46-1.77 1.08h-.06l-.12-.94H1.2V0zm0 0"/></symbol><symbol overflow="visible" id="54cefe43B"><path d="M2.84.14C3.8.14 4.33-.26 4.6-.9h.07L4.8 0h.76v-7.14h-.95v2.95h-.08c-.28-.6-.86-.97-1.67-.97-1.48 0-2.27.99-2.27 2.64C.6-.84 1.36.14 2.84.14zm.22-.8c-.98 0-1.48-.59-1.48-1.84s.5-1.86 1.48-1.86c1.13 0 1.58.8 1.58 1.86S4.2-.66 3.06-.66zm0 0"/></symbol><symbol overflow="visible" id="54cefe43C"><path d="M4.63-6.5c.45 0 .98.08 1.39.2l.2-.72a5.3 5.3 0 00-1.64-.26c-1.52 0-2.16.56-2.16 1.87v.4H.9v.76h1.53V0h.94v-4.25h2.53v-.77H3.36v-.3c0-.84.33-1.18 1.27-1.18zm0 0"/></symbol><symbol overflow="visible" id="54cefe43D"><path d="M3.58-5.81c.42 0 .72-.22.72-.67 0-.44-.3-.68-.72-.68-.44 0-.72.24-.72.68 0 .45.28.67.72.67zm.5.8H1.52v.76h1.6v3.48h-1.8V0h4.46v-.77h-1.7zm0 0"/></symbol><symbol overflow="visible" id="54cefe43E"><path d="M3.92-7.14H1.36v.76h1.6v5.61H1.15V0H5.7v-.77H3.92zm0 0"/></symbol></defs><g fill="#515151"><use xlink:href="#54cefe43a" x="160.24" y="163"/><use xlink:href="#54cefe43b" x="182.32" y="163"/></g><use xlink:href="#54cefe43c" x="218.32" y="163" fill="#fff"/><g fill="#515151"><use xlink:href="#54cefe43d" x="245.6" y="163"/><use xlink:href="#54cefe43e" x="259.76" y="163"/><use xlink:href="#54cefe43f" x="293.84" y="163"/></g><use xlink:href="#54cefe43g" x="327.92" y="163" fill="#fff"/><g fill="#515151"><use xlink:href="#54cefe43d" x="354.96" y="163"/><use xlink:href="#54cefe43a" x="369.12" y="163"/></g><use xlink:href="#54cefe43h" x="391.2" y="163" fill="#fff"/><use xlink:href="#54cefe43i" x="417.84" y="163" fill="#fff"/><g fill="#fff"><use xlink:href="#54cefe43j" x="243.3333" y="252"/><use xlink:href="#54cefe43k" x="250.0003" y="252"/><use xlink:href="#54cefe43l" x="256.6673" y="252"/><use xlink:href="#54cefe43m" x="263.3343" y="252"/><use xlink:href="#54cefe43n" x="270.0013" y="252"/><use xlink:href="#54cefe43o" x="276.6683" y="252"/><use xlink:href="#54cefe43p" x="283.3353" y="252"/><use xlink:href="#54cefe43q" x="290.0023" y="252"/><use xlink:href="#54cefe43r" x="296.6693" y="252"/><use xlink:href="#54cefe43o" x="303.3363" y="252"/><use xlink:href="#54cefe43s" x="310.0033" y="252"/><use xlink:href="#54cefe43t" x="316.6703" y="252"/><use xlink:href="#54cefe43u" x="323.3373" y="252"/><use xlink:href="#54cefe43o" x="330.0043" y="252"/><use xlink:href="#54cefe43p" x="336.6713" y="252"/><use xlink:href="#54cefe43v" x="343.3383" y="252"/><use xlink:href="#54cefe43m" x="350.0053" y="252"/></g><g fill="#fff"><use xlink:href="#54cefe43w" x="190" y="266"/><use xlink:href="#54cefe43k" x="196.667" y="266"/><use xlink:href="#54cefe43r" x="203.334" y="266"/><use xlink:href="#54cefe43m" x="210.001" y="266"/><use xlink:href="#54cefe43x" x="216.668" y="266"/><use xlink:href="#54cefe43y" x="223.335" y="266"/><use xlink:href="#54cefe43k" x="230.002" y="266"/><use xlink:href="#54cefe43n" x="236.669" y="266"/><use xlink:href="#54cefe43o" x="243.336" y="266"/><use xlink:href="#54cefe43z" x="250.003" y="266"/><use xlink:href="#54cefe43l" x="256.67" y="266"/><use xlink:href="#54cefe43m" x="263.337" y="266"/><use xlink:href="#54cefe43k" x="270.004" y="266"/><use xlink:href="#54cefe43A" x="276.671" y="266"/><use xlink:href="#54cefe43B" x="283.338" y="266"/><use xlink:href="#54cefe43k" x="290.005" y="266"/><use xlink:href="#54cefe43B" x="296.672" y="266"/><use xlink:href="#54cefe43o" x="303.339" y="266"/><use xlink:href="#54cefe43v" x="310.006" y="266"/><use xlink:href="#54cefe43k" x="316.673" y="266"/><use xlink:href="#54cefe43m" x="323.34" y="266"/><use xlink:href="#54cefe43o" x="330.007" y="266"/><use xlink:href="#54cefe43u" x="336.674" y="266"/><use xlink:href="#54cefe43C" x="343.341" y="266"/><use xlink:href="#54cefe43o" x="350.008" y="266"/><use xlink:href="#54cefe43u" x="356.675" y="266"/><use xlink:href="#54cefe43y" x="363.342" y="266"/><use xlink:href="#54cefe43B" x="370.009" y="266"/><use xlink:href="#54cefe43D" x="376.676" y="266"/><use xlink:href="#54cefe43A" x="383.343" y="266"/><use xlink:href="#54cefe43r" x="390.01" y="266"/><use xlink:href="#54cefe43E" x="396.677" y="266"/><use xlink:href="#54cefe43v" x="403.344" y="266"/></g></svg>