<?xml version='1.0' encoding='UTF-8'?>
<svg xmlns="http://www.w3.org/2000/svg" xmlns:xlink="http://www.w3.org/1999/xlink" width="600px" height="300px" viewBox="0 0 600 300" x="0px" y="0px" enable-background="new 0 0 600 300"><defs><symbol overflow="visible" id="1e7af955a"><path d="M11.13-30.48l14.95-13.6-4-4.72L4.4-33.44v6.64l17.67 15.36 4-4.72-14.95-13.6zm19.1 0l12.64-10.4-3.28-4.71-16.15 12.15v6.64l16.15 12.16 3.28-4.72-12.64-10.4zm0 0"/></symbol><symbol overflow="visible" id="1e7af955b"><path d="M15.69-63.13c-2.56 0-4.17 1.44-4.17 4.49 0 3.05 1.6 4.48 4.17 4.48 2.54 0 4.15-1.43 4.15-4.48 0-3.05-1.6-4.48-4.15-4.48zm-3.05 20.49c0 14.08-9.84 13.84-9.84 28.87C2.8-3.84 6.3.95 15.52.95c9.2 0 12.64-5.18 12.64-15.43l-.32-6H22v5.43c0 8-2.08 10.1-6.48 10.1-4.47 0-6.24-2.57-6.24-9.05 0-12 9.85-13.13 9.85-28.64l-.33-4.16h-6.16zm0 0"/></symbol><symbol overflow="visible" id="1e7af955c"><path d="M5.77-18.16c0 13.29 4.39 19.29 15.18 19.29 2.1 0 4-.25 5.61-.72L34 11.5l5.13-3.59-7.2-10.8C34.71-6 36-11.04 36-18.16V-44.4c0-13.28-4.4-19.28-15.05-19.28-10.8 0-15.18 6-15.18 19.28zm6.8 0V-44.4c0-9.82 2.23-13.1 8.3-13.1 6.08 0 8.33 3.28 8.33 13.1v26.25c0 9.85-2.25 13.11-8.32 13.11-6.08 0-8.32-3.26-8.32-13.1zm0 0"/></symbol><symbol overflow="visible" id="1e7af955d"><path d="M20.56 1.13C30 1.13 34.8-3.7 34.8-16.64v-45.92H28v45.92c0 8.87-1.6 11.6-7.44 11.6-5.68 0-7.51-2.73-7.51-11.6v-45.92H6.23v45.92c0 12.95 4.64 17.77 14.33 17.77zm0 0"/></symbol><symbol overflow="visible" id="1e7af955e"><path d="M15.69-67.52h5.51l4.72-8.17 1.36-3.75h-6.97zm-8.9 4.96V0h24.8v-6.23h-18V-25.2h14.82v-6.08H13.59v-24.95h18v-6.33zm0 0"/></symbol><symbol overflow="visible" id="1e7af955f"><path d="M18.31-20c0-14.08 9.85-13.84 9.85-28.88 0-9.84-3.52-14.71-12.72-14.71-9.2 0-12.64 5.18-12.64 15.43l.25 6h5.9v-5.36c0-8.07 2.1-10.07 6.49-10.07 4.48 0 6.15 2.47 6.15 8.95 0 12-9.75 13.12-9.75 28.64l.24 4.16h6.23zM15.28.48c2.56 0 4.16-1.43 4.16-4.48 0-2.95-1.6-4.48-4.16-4.48S11.13-6.95 11.13-4c0 3.05 1.59 4.48 4.15 4.48zm0 0"/></symbol><symbol overflow="visible" id="1e7af955g"><path d="M36.95-30.48v.71L22-16.16l4 4.72L43.69-26.8v-6.64L26-48.8l-4 4.72zm-19.1 0v.71L5.2-19.36l3.28 4.72L24.64-26.8v-6.64L8.48-45.59 5.2-40.87zm0 0"/></symbol><symbol overflow="visible" id="1e7af955h"><path d="M3.83 0v-5.95H6.2v-.82H.45v.82h2.4V0zm0 0"/></symbol><symbol overflow="visible" id="1e7af955i"><path d="M5.75-2.23v-.43c0-1.6-.9-2.51-2.42-2.51S.87-4.16.87-2.48c0 1.71.91 2.62 2.5 2.62 1.43 0 2.07-.56 2.29-1.52l-.9-.09c-.18.61-.59.9-1.35.9-.94 0-1.52-.54-1.58-1.66zm-2.4-2.2c.93 0 1.43.5 1.48 1.55H1.84c.08-1.07.6-1.56 1.5-1.56zm0 0"/></symbol><symbol overflow="visible" id="1e7af955j"><path d="M1.83 0l1.42-2h.06l1.46 2H5.8L4-2.53l1.78-2.49H4.8L3.42-3.08h-.08l-1.4-1.94H.89l1.78 2.49L.84 0zm0 0"/></symbol><symbol overflow="visible" id="1e7af955k"><path d="M5.52-4.25v-.77H3.17v-1.56h-.81l-.14 1.56H.75v.77h1.47v2.4c0 1.3.48 1.94 1.84 1.94C4.6.1 5.14 0 5.55-.14L5.4-.91c-.32.13-.72.2-1.13.2-.8 0-1.1-.37-1.1-1.23v-2.31zm0 0"/></symbol><symbol overflow="visible" id="1e7af955l"><path d="M3.33-3.42c.47 0 .8-.27.8-.8 0-.51-.33-.8-.8-.8-.47 0-.8.29-.8.8 0 .53.33.8.8.8zm0 3.5c.47 0 .8-.27.8-.78 0-.53-.33-.82-.8-.82-.47 0-.8.29-.8.82 0 .51.33.78.8.78zm0 0"/></symbol><symbol overflow="visible" id="1e7af955n"><path d="M3.27-1.1L1.25-2.56v-.08l2.02-1.45v-.86L.45-3v.81L3.27-.23zm2.95 0L4.19-2.56v-.08l2.03-1.45v-.86L3.39-3v.81L6.22-.23zm0 0"/></symbol><symbol overflow="visible" id="1e7af955o"><path d="M4.06-5.14c-.34 0-.6.2-.6.58 0 .37.26.58.6.58.36 0 .6-.2.6-.58 0-.38-.24-.58-.6-.58zm-.4 1.84v.52c0 .67-.47 1-.94 1.36-.49.37-1 .78-1 1.7 0 1.13.76 1.8 2.19 1.8 1.53 0 2.26-.66 2.45-2l-.92-.1C5.28.9 4.92 1.33 3.9 1.33c-.82 0-1.25-.4-1.25-1.08 0-.6.42-.94.87-1.28.47-.4.99-.8.99-1.66v-.6zm0 0"/></symbol><symbol overflow="visible" id="1e7af955p"><path d="M6.1-3.38c0-2.26-.87-3.53-2.77-3.53S.58-5.64.58-3.37c0 2.25.86 3.51 2.75 3.51.39 0 .73-.05 1.03-.16l.56.99h1.03l-.8-1.44c.65-.6.94-1.58.94-2.9zM3.3-.67c-1.25 0-1.73-.94-1.73-2.7 0-1.76.5-2.71 1.75-2.71s1.75.95 1.75 2.71c0 .94-.14 1.65-.47 2.11l-.5-.89H3.08l.8 1.41c-.18.06-.35.08-.57.08zm0 0"/></symbol><symbol overflow="visible" id="1e7af955q"><path d="M3.33.14c1.7 0 2.51-.86 2.51-2.69v-4.22h-.98v4.2c0 1.41-.47 1.9-1.53 1.9S1.8-1.16 1.8-2.57v-4.2H.8v4.22c0 1.83.81 2.7 2.52 2.7zm0 0"/></symbol><symbol overflow="visible" id="1e7af955r"><path d="M3.86-7.31l1.31-1.82H4.2L3.1-7.3zm2.06.54H1.1V0h4.83v-.8H2.06v-2.26h3.22v-.75H2.06v-2.16h3.86zm0 0"/></symbol><symbol overflow="visible" id="1e7af955s"><path d="M3.7-1.77v-.51c0-.67.47-1 .9-1.33.54-.4 1.06-.81 1.06-1.72 0-1.14-.77-1.81-2.2-1.81-1.52 0-2.26.66-2.44 2l.92.1c.15-.91.51-1.35 1.51-1.35.83 0 1.25.39 1.25 1.08 0 .6-.4.92-.84 1.26-.48.4-1 .8-1 1.67v.61zM3.3.08c.34 0 .6-.2.6-.58 0-.38-.26-.58-.6-.58-.35 0-.58.2-.58.58 0 .38.23.58.58.58zm0 0"/></symbol><symbol overflow="visible" id="1e7af955t"><path d="M3.27-2.19V-3L.45-4.94v.86l2.02 1.46v.06L.45-1.11v.88zm2.95 0V-3L3.39-4.94v.86l2.03 1.46v.06L3.4-1.11v.88zm0 0"/></symbol><symbol overflow="visible" id="1e7af955u"><path d="M5.95-6.77H1.1V0h.99v-2.92H5.3v-.77H2.08v-2.26h3.87zm0 0"/></symbol><symbol overflow="visible" id="1e7af955v"><path d="M2.83.14c.94 0 1.5-.39 1.81-.95h.08l.1.81h.76v-3.38c0-1.23-.69-1.8-2.13-1.8-1.43 0-2.03.65-2.18 1.6l.93.1c.11-.6.44-.93 1.22-.93.85 0 1.22.32 1.22 1.04v.34l-1.81.2C1.6-2.7 1.1-2.17 1.1-1.28c0 .92.64 1.42 1.72 1.42zm.25-.77c-.67 0-1.02-.28-1.02-.74 0-.44.28-.72 1-.82l1.58-.19v.41c0 .8-.6 1.34-1.56 1.34zm0 0"/></symbol><symbol overflow="visible" id="1e7af955w"><path d="M2.73.14c.9 0 1.43-.45 1.74-1.08h.06l.13.94h.8v-5.02h-.94v2.7c0 .98-.57 1.62-1.46 1.62-.75 0-1.1-.4-1.1-1.22v-3.1h-.93v3.32c0 1.17.55 1.84 1.7 1.84zm0 0"/></symbol><symbol overflow="visible" id="1e7af955x"><path d="M5.08-5.16c-.94 0-1.58.43-1.9 1.3h-.09l-.07-1.16H1.05v.77h1.1v3.48H.96V0h3.96v-.77H3.1v-1.46c0-1.36.6-2.05 1.83-2.05.4 0 .76.08 1.1.17l.15-.87c-.33-.11-.7-.18-1.11-.18zm0 0"/></symbol><symbol overflow="visible" id="1e7af955y"><path d="M3.42.14C5.1.14 5.9-.69 6.11-2.17l-.95-.1C4.96-1.19 4.5-.69 3.44-.69c-1.27 0-1.81-.94-1.81-2.69s.54-2.7 1.8-2.7c1.09 0 1.5.49 1.73 1.58l.93-.1c-.21-1.46-.95-2.3-2.62-2.3C1.53-6.9.62-5.6.62-3.38c0 2.2.91 3.51 2.8 3.51zm0 0"/></symbol><symbol overflow="visible" id="1e7af955z"><path d="M3.36.16c1.4 0 2.2-.6 2.2-1.57 0-.89-.54-1.22-1.47-1.39L3-3c-.67-.14-.86-.33-.86-.73 0-.5.4-.74 1.17-.74.83 0 1.19.27 1.27.8l.9-.05c-.12-1-.8-1.47-2.17-1.47-1.34 0-2.1.53-2.1 1.5 0 .81.45 1.22 1.52 1.44l1.04.2c.56.11.87.24.87.72 0 .52-.45.78-1.28.78-.95 0-1.36-.28-1.42-.87l-.9.06C1.07-.36 1.8.16 3.35.16zm0 0"/></symbol><symbol overflow="visible" id="1e7af955A"><path d="M5.33-2.2v-.75h-4v.75zm0 0"/></symbol><symbol overflow="visible" id="1e7af955B"><path d="M2.16 0v-2.67c0-.99.59-1.63 1.46-1.63.74 0 1.07.38 1.07 1.22V0h.95v-3.31c0-1.2-.56-1.85-1.67-1.85-.92 0-1.49.46-1.77 1.08h-.06l-.12-.94H1.2V0zm0 0"/></symbol><symbol overflow="visible" id="1e7af955C"><path d="M3.58-5.81c.42 0 .72-.22.72-.67 0-.44-.3-.68-.72-.68-.44 0-.72.24-.72.68 0 .45.28.67.72.67zm.5.8H1.52v.76h1.6v3.48h-1.8V0h4.46v-.77h-1.7zm0 0"/></symbol><symbol overflow="visible" id="1e7af955D"><path d="M3.9 0l2-5.02h-.96L3.4-.94h-.07L1.8-5.02H.77L2.78 0zm0 0"/></symbol><symbol overflow="visible" id="1e7af955E"><path d="M4.63-6.5c.45 0 .98.08 1.39.2l.2-.72a5.3 5.3 0 00-1.64-.26c-1.52 0-2.16.56-2.16 1.87v.4H.9v.76h1.53V0h.94v-4.25h2.53v-.77H3.36v-.3c0-.84.33-1.18 1.27-1.18zm0 0"/></symbol><symbol overflow="visible" id="1e7af955F"><path d="M3.33.14c1.62 0 2.5-.95 2.5-2.66 0-1.68-.88-2.64-2.5-2.64-1.63 0-2.5.96-2.5 2.64 0 1.7.87 2.66 2.5 2.66zm0-.77c-1.06 0-1.52-.6-1.52-1.89 0-1.28.46-1.87 1.52-1.87 1.08 0 1.53.6 1.53 1.87 0 1.29-.45 1.9-1.53 1.9zm0 0"/></symbol><symbol overflow="visible" id="1e7af955G"><path d="M1.63 0v-2.9c0-.8.15-1.4.71-1.4.41 0 .55.3.55.88V0h.95v-2.9c0-.8.18-1.4.72-1.4.4 0 .57.3.57.88V0h.95v-3.63c0-.92-.28-1.53-1.11-1.53-.63 0-.95.41-1.1.9h-.06c-.1-.52-.44-.9-1.08-.9-.6 0-.93.41-1.06.9H1.6l-.23-.76H.67V0zm0 0"/></symbol><symbol overflow="visible" id="1e7af955H"><path d="M1.45-2.95c0 2.56 1.08 4.37 3.67 4.84l.11-.67C3.28.86 2.43-.75 2.43-2.95s.85-3.82 2.8-4.16l-.1-.69c-2.6.49-3.68 2.3-3.68 4.85zm0 0"/></symbol><symbol overflow="visible" id="1e7af955I"><path d="M3.34.14c1.43 0 2.13-.66 2.25-1.78l-.89-.1c-.1.7-.5 1.08-1.34 1.08-1.03 0-1.52-.64-1.52-1.84 0-1.23.47-1.86 1.52-1.86.84 0 1.23.36 1.34 1.08l.9-.1c-.13-1.09-.82-1.78-2.26-1.78-1.56 0-2.46.97-2.46 2.66 0 1.66.9 2.64 2.46 2.64zm0 0"/></symbol><symbol overflow="visible" id="1e7af955J"><path d="M1.45-7.1c1.96.33 2.8 1.94 2.8 4.15 0 2.2-.84 3.8-2.8 4.17l.11.67c2.58-.47 3.67-2.28 3.67-4.84 0-2.55-1.09-4.36-3.67-4.85zm0 0"/></symbol></defs><use xlink:href="#1e7af955a" x="163.36" y="163" fill="#fff"/><use xlink:href="#1e7af955b" x="211.44" y="163" fill="#fff"/><g fill="#515151"><use xlink:href="#1e7af955c" x="241.6" y="163"/><use xlink:href="#1e7af955d" x="283.52" y="163"/><use xlink:href="#1e7af955e" x="324.64" y="163"/></g><use xlink:href="#1e7af955f" x="360.88" y="163" fill="#fff"/><use xlink:href="#1e7af955g" x="388.56" y="163" fill="#fff"/><g fill="#fff"><use xlink:href="#1e7af955h" x="256.6667" y="252"/><use xlink:href="#1e7af955i" x="263.3337" y="252"/><use xlink:href="#1e7af955j" x="270.0007" y="252"/><use xlink:href="#1e7af955k" x="276.6677" y="252"/><use xlink:href="#1e7af955l" x="283.3347" y="252"/><use xlink:href="#1e7af955m" x="290.0017" y="252"/><use xlink:href="#1e7af955n" x="296.6687" y="252"/><use xlink:href="#1e7af955o" x="303.3357" y="252"/><use xlink:href="#1e7af955p" x="310.0027" y="252"/><use xlink:href="#1e7af955q" x="316.6697" y="252"/><use xlink:href="#1e7af955r" x="323.3367" y="252"/><use xlink:href="#1e7af955s" x="330.0037" y="252"/><use xlink:href="#1e7af955t" x="336.6707" y="252"/></g><g fill="#fff"><use xlink:href="#1e7af955u" x="180" y="266"/><use xlink:href="#1e7af955i" x="186.667" y="266"/><use xlink:href="#1e7af955v" x="193.334" y="266"/><use xlink:href="#1e7af955k" x="200.001" y="266"/><use xlink:href="#1e7af955w" x="206.668" y="266"/><use xlink:href="#1e7af955x" x="213.335" y="266"/><use xlink:href="#1e7af955i" x="220.002" y="266"/><use xlink:href="#1e7af955l" x="226.669" y="266"/><use xlink:href="#1e7af955m" x="233.336" y="266"/><use xlink:href="#1e7af955y" x="240.003" y="266"/><use xlink:href="#1e7af955v" x="246.67" y="266"/><use xlink:href="#1e7af955z" x="253.337" y="266"/><use xlink:href="#1e7af955i" x="260.004" y="266"/><use xlink:href="#1e7af955A" x="266.671" y="266"/><use xlink:href="#1e7af955z" x="273.338" y="266"/><use xlink:href="#1e7af955i" x="280.005" y="266"/><use xlink:href="#1e7af955B" x="286.672" y="266"/><use xlink:href="#1e7af955z" x="293.339" y="266"/><use xlink:href="#1e7af955C" x="300.006" y="266"/><use xlink:href="#1e7af955k" x="306.673" y="266"/><use xlink:href="#1e7af955C" x="313.34" y="266"/><use xlink:href="#1e7af955D" x="320.007" y="266"/><use xlink:href="#1e7af955i" x="326.674" y="266"/><use xlink:href="#1e7af955m" x="333.341" y="266"/><use xlink:href="#1e7af955E" x="340.008" y="266"/><use xlink:href="#1e7af955F" x="346.675" y="266"/><use xlink:href="#1e7af955x" x="353.342" y="266"/><use xlink:href="#1e7af955G" x="360.009" y="266"/><use xlink:href="#1e7af955z" x="366.676" y="266"/><use xlink:href="#1e7af955m" x="373.343" y="266"/><use xlink:href="#1e7af955H" x="380.01" y="266"/><use xlink:href="#1e7af955I" x="386.677" y="266"/><use xlink:href="#1e7af955v" x="393.344" y="266"/><use xlink:href="#1e7af955z" x="400.011" y="266"/><use xlink:href="#1e7af955i" x="406.678" y="266"/><use xlink:href="#1e7af955J" x="413.345" y="266"/></g></svg>