<?xml version='1.0' encoding='UTF-8'?>
<svg xmlns="http://www.w3.org/2000/svg" xmlns:xlink="http://www.w3.org/1999/xlink" width="600px" height="300px" viewBox="0 0 600 300" x="0px" y="0px" enable-background="new 0 0 600 300"><defs><symbol overflow="visible" id="d6316bc5a"><path d="M1.6-6.16V11.2h6V0h28.24v11.2h6V-6.16h-4.56l-7.69-56.4H13.84L6.16-6.16zm13.68-18.48l4.16-31.77H24l4.08 31.46 2.64 18.8h-18zm0 0"/></symbol><symbol overflow="visible" id="d6316bc5b"><path d="M3.2 0H10l2.56-20.23 4.56-36.18h4.16l4.56 36.18L28.31 0h6.82l-8.26-62.56H11.53zm0 0"/></symbol><symbol overflow="visible" id="d6316bc5c"><path d="M.56-5.69V9.44h5.85V0h20.95v9.44h5.84V-5.7h-4.08l-6-38.54H10.64l-6 38.54zM15.6-38.72h2.57L20-26.32l3.05 20.63H10.72zm0 0"/></symbol><symbol overflow="visible" id="d6316bc5d"><path d="M9.36 0l5.52-38.72h2.56l1.76 13.13L22.95 0h6.57L22.4-44.23H9.92L2.8 0zm0 0"/></symbol><symbol overflow="visible" id="d6316bc5e"><path d="M3.83 0v-5.95H6.2v-.82H.45v.82h2.4V0zm0 0"/></symbol><symbol overflow="visible" id="d6316bc5f"><path d="M5.75-2.23v-.43c0-1.6-.9-2.51-2.42-2.51S.87-4.16.87-2.48c0 1.71.91 2.62 2.5 2.62 1.43 0 2.07-.56 2.29-1.52l-.9-.09c-.18.61-.59.9-1.35.9-.94 0-1.52-.54-1.58-1.66zm-2.4-2.2c.93 0 1.43.5 1.48 1.55H1.84c.08-1.07.6-1.56 1.5-1.56zm0 0"/></symbol><symbol overflow="visible" id="d6316bc5g"><path d="M1.83 0l1.42-2h.06l1.46 2H5.8L4-2.53l1.78-2.49H4.8L3.42-3.08h-.08l-1.4-1.94H.89l1.78 2.49L.84 0zm0 0"/></symbol><symbol overflow="visible" id="d6316bc5h"><path d="M5.52-4.25v-.77H3.17v-1.56h-.81l-.14 1.56H.75v.77h1.47v2.4c0 1.3.48 1.94 1.84 1.94C4.6.1 5.14 0 5.55-.14L5.4-.91c-.32.13-.72.2-1.13.2-.8 0-1.1-.37-1.1-1.23v-2.31zm0 0"/></symbol><symbol overflow="visible" id="d6316bc5i"><path d="M3.33-3.42c.47 0 .8-.27.8-.8 0-.51-.33-.8-.8-.8-.47 0-.8.29-.8.8 0 .53.33.8.8.8zm0 3.5c.47 0 .8-.27.8-.78 0-.53-.33-.82-.8-.82-.47 0-.8.29-.8.82 0 .51.33.78.8.78zm0 0"/></symbol><symbol overflow="visible" id="d6316bc5k"><path d="M5.7-6.77H1.6c0 1.52 0 2.79-.13 3.7a5.04 5.04 0 01-.7 2.26H.09v2.39H1V0h4.64v1.58h.9v-2.4H5.7zM1.72-.8c.26-.5.47-1.22.58-2.08.1-.75.12-1.9.15-3.08h2.32V-.8zm0 0"/></symbol><symbol overflow="visible" id="d6316bc5l"><path d="M1.63-6.77c-.05 1.49-.15 3.33-.2 4.32C1.33-1.12 1.1-.78.51-.78.39-.78.25-.8.19-.81L.12.02c.18.03.4.06.6.06C1.82.08 2.2-.7 2.3-2.36c.04-.86.12-2.23.17-3.6H4.8V0h.94v-6.77zm0 0"/></symbol><symbol overflow="visible" id="d6316bc5m"><path d="M5.36-5.02H1.7a36.7 36.7 0 01-.12 2.44c-.06.9-.27 1.52-.55 1.81h-.6v2.1h.87V0h3.92v1.33h.87v-2.1h-.73zM1.92-.77c.25-.39.4-1.04.46-1.75.04-.46.07-1.12.1-1.75h1.97v3.5zm0 0"/></symbol><symbol overflow="visible" id="d6316bc5n"><path d="M1.58-5.02c-.03.94-.11 2.35-.17 3.08-.08.86-.24 1.19-.74 1.19-.12 0-.23-.02-.31-.03L.3.02c.14.03.36.06.55.06 1.06 0 1.3-.64 1.39-1.9.05-.54.1-1.63.14-2.43h2.06V0h.96v-5.02zm0 0"/></symbol><symbol overflow="visible" id="d6316bc5o"><path d="M5.95-6.77H1.1V0h.99v-2.92H5.3v-.77H2.08v-2.26h3.87zm0 0"/></symbol><symbol overflow="visible" id="d6316bc5p"><path d="M2.83.14c.94 0 1.5-.39 1.81-.95h.08l.1.81h.76v-3.38c0-1.23-.69-1.8-2.13-1.8-1.43 0-2.03.65-2.18 1.6l.93.1c.11-.6.44-.93 1.22-.93.85 0 1.22.32 1.22 1.04v.34l-1.81.2C1.6-2.7 1.1-2.17 1.1-1.28c0 .92.64 1.42 1.72 1.42zm.25-.77c-.67 0-1.02-.28-1.02-.74 0-.44.28-.72 1-.82l1.58-.19v.41c0 .8-.6 1.34-1.56 1.34zm0 0"/></symbol><symbol overflow="visible" id="d6316bc5q"><path d="M2.73.14c.9 0 1.43-.45 1.74-1.08h.06l.13.94h.8v-5.02h-.94v2.7c0 .98-.57 1.62-1.46 1.62-.75 0-1.1-.4-1.1-1.22v-3.1h-.93v3.32c0 1.17.55 1.84 1.7 1.84zm0 0"/></symbol><symbol overflow="visible" id="d6316bc5r"><path d="M5.08-5.16c-.94 0-1.58.43-1.9 1.3h-.09l-.07-1.16H1.05v.77h1.1v3.48H.96V0h3.96v-.77H3.1v-1.46c0-1.36.6-2.05 1.83-2.05.4 0 .76.08 1.1.17l.15-.87c-.33-.11-.7-.18-1.11-.18zm0 0"/></symbol><symbol overflow="visible" id="d6316bc5s"><path d="M3.83-5.97h1.73v-.8H1.1v.8h1.75v5.19H1.1V0h4.47v-.78H3.83zm0 0"/></symbol><symbol overflow="visible" id="d6316bc5t"><path d="M3.36.16c1.4 0 2.2-.6 2.2-1.57 0-.89-.54-1.22-1.47-1.39L3-3c-.67-.14-.86-.33-.86-.73 0-.5.4-.74 1.17-.74.83 0 1.19.27 1.27.8l.9-.05c-.12-1-.8-1.47-2.17-1.47-1.34 0-2.1.53-2.1 1.5 0 .81.45 1.22 1.52 1.44l1.04.2c.56.11.87.24.87.72 0 .52-.45.78-1.28.78-.95 0-1.36-.28-1.42-.87l-.9.06C1.07-.36 1.8.16 3.35.16zm0 0"/></symbol><symbol overflow="visible" id="d6316bc5u"><path d="M3.33.14c1.62 0 2.5-.95 2.5-2.66 0-1.68-.88-2.64-2.5-2.64-1.63 0-2.5.96-2.5 2.64 0 1.7.87 2.66 2.5 2.66zm0-.77c-1.06 0-1.52-.6-1.52-1.89 0-1.28.46-1.87 1.52-1.87 1.08 0 1.53.6 1.53 1.87 0 1.29-.45 1.9-1.53 1.9zm0 0"/></symbol><symbol overflow="visible" id="d6316bc5v"><path d="M3.34.14c1.43 0 2.13-.66 2.25-1.78l-.89-.1c-.1.7-.5 1.08-1.34 1.08-1.03 0-1.52-.64-1.52-1.84 0-1.23.47-1.86 1.52-1.86.84 0 1.23.36 1.34 1.08l.9-.1c-.13-1.09-.82-1.78-2.26-1.78-1.56 0-2.46.97-2.46 2.66 0 1.66.9 2.64 2.46 2.64zm0 0"/></symbol><symbol overflow="visible" id="d6316bc5w"><path d="M3.92-7.14H1.36v.76h1.6v5.61H1.15V0H5.7v-.77H3.92zm0 0"/></symbol><symbol overflow="visible" id="d6316bc5x"><path d="M4.63-6.5c.45 0 .98.08 1.39.2l.2-.72a5.3 5.3 0 00-1.64-.26c-1.52 0-2.16.56-2.16 1.87v.4H.9v.76h1.53V0h.94v-4.25h2.53v-.77H3.36v-.3c0-.84.33-1.18 1.27-1.18zm0 0"/></symbol><symbol overflow="visible" id="d6316bc5y"><path d="M1.63 0v-2.9c0-.8.15-1.4.71-1.4.41 0 .55.3.55.88V0h.95v-2.9c0-.8.18-1.4.72-1.4.4 0 .57.3.57.88V0h.95v-3.63c0-.92-.28-1.53-1.11-1.53-.63 0-.95.41-1.1.9h-.06c-.1-.52-.44-.9-1.08-.9-.6 0-.93.41-1.06.9H1.6l-.23-.76H.67V0zm0 0"/></symbol><symbol overflow="visible" id="d6316bc5z"><path d="M3.42.14C5.1.14 5.9-.69 6.11-2.17l-.95-.1C4.96-1.19 4.5-.69 3.44-.69c-1.27 0-1.81-.94-1.81-2.69s.54-2.7 1.8-2.7c1.09 0 1.5.49 1.73 1.58l.93-.1c-.21-1.46-.95-2.3-2.62-2.3C1.53-6.9.62-5.6.62-3.38c0 2.2.91 3.51 2.8 3.51zm0 0"/></symbol><symbol overflow="visible" id="d6316bc5A"><path d="M3.42-.86h-.08L1.77-5.02H.8L2.73 0h.41c-.33.95-.72 1.27-1.45 1.27-.22 0-.49-.04-.69-.08l-.1.73c.2.06.58.11.87.11 1.2 0 1.7-.7 2.21-2.03l1.94-5.02H5zm0 0"/></symbol><symbol overflow="visible" id="d6316bc5B"><path d="M3.58-5.81c.42 0 .72-.22.72-.67 0-.44-.3-.68-.72-.68-.44 0-.72.24-.72.68 0 .45.28.67.72.67zm.5.8H1.52v.76h1.6v3.48h-1.8V0h4.46v-.77h-1.7zm0 0"/></symbol><symbol overflow="visible" id="d6316bc5C"><path d="M.92-6.77V0h2.11c2.03 0 3.03-1.03 3.03-3.36 0-2.39-1.01-3.4-2.93-3.4zM1.91-.8v-5.17h1.18c1.29 0 1.96.63 1.96 2.61 0 1.94-.67 2.56-1.96 2.56zm0 0"/></symbol><symbol overflow="visible" id="d6316bc5D"><path d="M2.16 0v-2.67c0-.99.59-1.63 1.46-1.63.74 0 1.07.38 1.07 1.22V0h.95v-3.31c0-1.2-.56-1.85-1.67-1.85-.92 0-1.49.46-1.77 1.08h-.06l-.12-.94H1.2V0zm0 0"/></symbol><symbol overflow="visible" id="d6316bc5E"><path d="M2.84.14C3.8.14 4.33-.26 4.6-.9h.07L4.8 0h.76v-7.14h-.95v2.95h-.08c-.28-.6-.86-.97-1.67-.97-1.48 0-2.27.99-2.27 2.64C.6-.84 1.36.14 2.84.14zm.22-.8c-.98 0-1.48-.59-1.48-1.84s.5-1.86 1.48-1.86c1.13 0 1.58.8 1.58 1.86S4.2-.66 3.06-.66zm0 0"/></symbol><symbol overflow="visible" id="d6316bc5F"><path d="M5.92-6.77H1.1V0h4.83v-.8H2.06v-2.26h3.22v-.75H2.06v-2.16h3.86zm0 0"/></symbol><symbol overflow="visible" id="d6316bc5G"><path d="M1.45-2.95c0 2.56 1.08 4.37 3.67 4.84l.11-.67C3.28.86 2.43-.75 2.43-2.95s.85-3.82 2.8-4.16l-.1-.69c-2.6.49-3.68 2.3-3.68 4.85zm0 0"/></symbol><symbol overflow="visible" id="d6316bc5H"><path d="M3.33.14c1.65 0 2.6-1.1 2.6-3.52S4.99-6.9 3.34-6.9C1.67-6.9.72-5.8.72-3.37c0 2.4.95 3.51 2.6 3.51zm0-.84c-1.13 0-1.6-.85-1.6-2.67 0-1.86.47-2.7 1.6-2.7 1.12 0 1.6.84 1.6 2.7 0 1.82-.48 2.67-1.6 2.67zM3.3-2.64c.38 0 .56-.28.56-.72 0-.44-.18-.7-.56-.7-.39 0-.56.26-.56.7 0 .44.17.72.56.72zm0 0"/></symbol><symbol overflow="visible" id="d6316bc5I"><path d="M3.25-6.9C1.67-6.9.77-6.04.77-4.6c0 1.41.85 2.18 2.21 2.18 1.04 0 1.58-.52 1.88-1.03h.06c0 1.54-.39 2.78-1.73 2.78-.9 0-1.24-.44-1.36-.97l-.97.1c.22.96.86 1.68 2.33 1.68C4.83.14 5.8-.9 5.8-3.64c0-2.22-.92-3.27-2.56-3.27zm-.02.8c.91 0 1.46.52 1.46 1.44 0 .91-.69 1.47-1.53 1.47-.91 0-1.46-.51-1.46-1.47S2.3-6.1 3.23-6.1zm0 0"/></symbol><symbol overflow="visible" id="d6316bc5J"><path d="M1.45-7.1c1.96.33 2.8 1.94 2.8 4.15 0 2.2-.84 3.8-2.8 4.17l.11.67c2.58-.47 3.67-2.28 3.67-4.84 0-2.55-1.09-4.36-3.67-4.85zm0 0"/></symbol></defs><g fill="#fff"><use xlink:href="#d6316bc5a" x="226.08" y="163"/><use xlink:href="#d6316bc5b" x="269.52" y="163"/><use xlink:href="#d6316bc5c" x="307.84" y="163"/><use xlink:href="#d6316bc5d" x="341.6" y="163"/><use xlink:href="#d6316bc5e" x="266.6667" y="252"/><use xlink:href="#d6316bc5f" x="273.3337" y="252"/><use xlink:href="#d6316bc5g" x="280.0007" y="252"/><use xlink:href="#d6316bc5h" x="286.6677" y="252"/><use xlink:href="#d6316bc5i" x="293.3347" y="252"/><use xlink:href="#d6316bc5j" x="300.0017" y="252"/><use xlink:href="#d6316bc5k" x="306.6687" y="252"/><use xlink:href="#d6316bc5l" x="313.3357" y="252"/><use xlink:href="#d6316bc5m" x="320.0027" y="252"/><use xlink:href="#d6316bc5n" x="326.6697" y="252"/><g><use xlink:href="#d6316bc5o" x="123.3333" y="266"/><use xlink:href="#d6316bc5f" x="130.0003" y="266"/><use xlink:href="#d6316bc5p" x="136.6673" y="266"/><use xlink:href="#d6316bc5h" x="143.3343" y="266"/><use xlink:href="#d6316bc5q" x="150.0013" y="266"/><use xlink:href="#d6316bc5r" x="156.6683" y="266"/><use xlink:href="#d6316bc5f" x="163.3353" y="266"/><use xlink:href="#d6316bc5i" x="170.0023" y="266"/><use xlink:href="#d6316bc5j" x="176.6693" y="266"/><use xlink:href="#d6316bc5s" x="183.3363" y="266"/><use xlink:href="#d6316bc5t" x="190.0033" y="266"/><use xlink:href="#d6316bc5u" x="196.6703" y="266"/><use xlink:href="#d6316bc5t" x="203.3373" y="266"/><use xlink:href="#d6316bc5v" x="210.0043" y="266"/><use xlink:href="#d6316bc5f" x="216.6713" y="266"/><use xlink:href="#d6316bc5w" x="223.3383" y="266"/><use xlink:href="#d6316bc5f" x="230.0053" y="266"/><use xlink:href="#d6316bc5t" x="236.6723" y="266"/><use xlink:href="#d6316bc5j" x="243.3393" y="266"/><use xlink:href="#d6316bc5x" x="250.0063" y="266"/><use xlink:href="#d6316bc5u" x="256.6733" y="266"/><use xlink:href="#d6316bc5r" x="263.3403" y="266"/><use xlink:href="#d6316bc5y" x="270.0073" y="266"/><use xlink:href="#d6316bc5t" x="276.6743" y="266"/><use xlink:href="#d6316bc5j" x="283.3413" y="266"/><use xlink:href="#d6316bc5u" x="290.0083" y="266"/><use xlink:href="#d6316bc5x" x="296.6753" y="266"/><use xlink:href="#d6316bc5j" x="303.3423" y="266"/><use xlink:href="#d6316bc5z" x="310.0093" y="266"/><use xlink:href="#d6316bc5A" x="316.6763" y="266"/><use xlink:href="#d6316bc5r" x="323.3433" y="266"/><use xlink:href="#d6316bc5B" x="330.0103" y="266"/><use xlink:href="#d6316bc5w" x="336.6773" y="266"/><use xlink:href="#d6316bc5w" x="343.3443" y="266"/><use xlink:href="#d6316bc5B" x="350.0113" y="266"/><use xlink:href="#d6316bc5v" x="356.6783" y="266"/><use xlink:href="#d6316bc5j" x="363.3453" y="266"/><use xlink:href="#d6316bc5C" x="370.0123" y="266"/><use xlink:href="#d6316bc5f" x="376.6793" y="266"/><use xlink:href="#d6316bc5j" x="383.3463" y="266"/><use xlink:href="#d6316bc5p" x="390.0133" y="266"/><use xlink:href="#d6316bc5D" x="396.6803" y="266"/><use xlink:href="#d6316bc5E" x="403.3473" y="266"/><use xlink:href="#d6316bc5j" x="410.0143" y="266"/><use xlink:href="#d6316bc5F" x="416.6813" y="266"/><use xlink:href="#d6316bc5w" x="423.3483" y="266"/><use xlink:href="#d6316bc5j" x="430.0153" y="266"/><use xlink:href="#d6316bc5G" x="436.6823" y="266"/><use xlink:href="#d6316bc5t" x="443.3493" y="266"/><use xlink:href="#d6316bc5t" x="450.0163" y="266"/><use xlink:href="#d6316bc5H" x="456.6833" y="266"/><use xlink:href="#d6316bc5I" x="463.3503" y="266"/><use xlink:href="#d6316bc5J" x="470.0173" y="266"/></g></g></svg>