<?xml version='1.0' encoding='UTF-8'?>
<svg xmlns="http://www.w3.org/2000/svg" xmlns:xlink="http://www.w3.org/1999/xlink" width="200px" height="1030px" viewBox="0 0 200 1030" x="0px" y="0px" enable-background="new 0 0 200 1030"><defs><symbol overflow="visible" id="86cfafa9a"><path d="M12.672-26.078v-1.156H1.5l-.094 1.156 6.719 12.812-6.719 12.11L1.5 0h11.172v-1.156H2.906l-.031-.172 6.64-11.938-6.609-12.64.031-.172zm0 0"/></symbol><symbol overflow="visible" id="86cfafa9b"><path d="M13.297-1.047c-1.297 0-1.781-.562-1.781-2.312v-11.797l.312-4.125-1.015-.11-.282 2.703c-.453-.875-1.328-2.953-3.781-2.953-3.078 0-4.469 2.594-4.469 6.688v6.625c0 4.437.969 6.672 4.047 6.672 2.219 0 3.547-1.922 4.14-3.64v.562C10.469-.704 11.485 0 13.298 0h.672v-1.047zm-2.938-5.562c0 2.093-1.546 5.906-3.953 5.906-2.484 0-2.968-1.89-2.968-5.625v-6.625c0-3.531.968-5.625 3.312-5.625 2.203 0 3.156 2.625 3.61 3.594zm0 0"/></symbol><symbol overflow="visible" id="86cfafa9c"><path d="M3.047-19.281V5.953h1.156V1.75c0-.906-.031-1.813-.078-2.734.64.921 1.688 1.328 2.844 1.328 2.343 0 3.531-1.89 4.156-2.797.11 1.61.953 2.453 2.844 2.453h.656v-1.047h-.656c-1.297 0-1.781-.562-1.781-2.312v-15.922H11.03v15.156C10.11-2.375 8.812-.703 6.97-.703 5.422-.703 4.203-1.86 4.203-3.5v-15.781zm0 0"/></symbol><symbol overflow="visible" id="86cfafa9e"><path d="M14.875-26.078l.172-1.156H4.234l-.28 1.156 4.405 12.64L-.453-1.155-.531 0h10.828l.172-1.156H1.125v-.172l8.563-11.938-4.407-12.64.078-.172zm0 0"/></symbol><symbol overflow="visible" id="86cfafa9f"><path d="M1.688-6.328C.938-2.234 1.266.344 3.671.344c2.422 0 5.078-5.063 6.234-7.688C9.453-5.109 9-3.047 9-2.094 9-.39 9.734.172 11.031.172A5.49 5.49 0 0012.312 0l.188-.875h-1.125c-.625 0-.984-.14-1.156-.531-.25-.453-.14-1.282.11-2.657l1.296-7.343c.766-3.64 1.438-6.266 1.75-7.875l-1.156-.11c-.172 1.125-.453 2.516-.735 3.922-.421-1.469-1.375-4.172-3.718-4.172-2.907 0-4.157 2.594-4.891 6.688zm1.14 0l1.203-6.625c.625-3.531 1.563-5.625 3.735-5.625 2 0 2.906 3.281 3.328 4.687l-.563 2.485C9.766-8.016 5.703-.703 3.703-.703c-1.469 0-1.5-2.094-.875-5.625zm0 0"/></symbol><symbol overflow="visible" id="86cfafa9g"><path d="M4.688-19.281L.202 5.953H1.36l.782-4.203c.093-.766.28-1.86.421-2.828.235.875.797 1.422 1.844 1.422 2.563 0 4.735-4.016 5.672-5.875-.312 1.297-.594 2.593-.562 3.61.046 1.5.703 2.093 1.968 2.093.313 0 .97-.063 1.329-.172l.171-.875h-1.078c-.562 0-.953-.11-1.156-.39-.25-.423-.219-1.22.031-2.657l2.735-15.36h-1.157L10.297-7.593c-.5 1.047-3.547 6.89-5.781 6.89-1.36 0-1.688-1.64-1.36-3.5L5.844-19.28zm0 0"/></symbol><symbol overflow="visible" id="86cfafa9h"><path d="M4.063-8.063l-1.079.047-2.5 7.172C.391-.547.313-.28.234 0h.97l.75-2.25H5L5.75 0h.953c-.062-.281-.156-.547-.25-.844zm-.547 1.204h.03l.517 1.718.671 2.063h-2.5zm0 0"/></symbol><symbol overflow="visible" id="86cfafa9i"><path d="M5.39-5.61H4.47L2.906-1.03H2.86c-.093-.39-.187-.735-.296-1.063l-1.22-3.515H.392c0 .187.046.359.109.53L2.36.017l1-.032L5.28-5.078c.063-.172.11-.328.11-.531zm0 0"/></symbol><symbol overflow="visible" id="86cfafa9j"><path d="M.64-2.703c0 1.672.922 2.875 2.422 2.875 1.72 0 2.563-1.547 2.563-3.063 0-1.656-.906-2.875-2.422-2.875C1.47-5.766.641-4.187.641-2.703zm4.016-.047c0 .75-.187 1.36-.531 1.719-.203.218-.531.39-.969.39-1.015 0-1.562-.906-1.562-2.187 0-.813.218-1.39.547-1.75a1.38 1.38 0 01.968-.375c1.016 0 1.547.922 1.547 2.203zm0 0"/></symbol><symbol overflow="visible" id="86cfafa9k"><path d="M1.672-5.688l-.797.11c.078 1.203.094 1.734.094 2.172V0h.953v-3.75c.375-.688.89-.984 1.422-.984.25 0 .437.015.656.078l.188-.86a1.404 1.404 0 00-.782-.218c-.64 0-1.156.39-1.547 1.109zm0 0"/></symbol><symbol overflow="visible" id="86cfafa9l"><path d="M5.375-5.61h-.906L2.906-1.03H2.86a6.552 6.552 0 00-.296-1.063L1.375-5.609H.406c0 .187.031.359.11.53L2.359 0h.204C1.937 1.5 1.313 2.172.265 2.172v.75c.125.031.28.047.5.047.968 0 1.75-.719 2.468-2.547l2.032-5.5a1.2 1.2 0 00.109-.531zm0 0"/></symbol><symbol overflow="visible" id="86cfafa9n"><path d="M1.125-7.984V0h.953v-2.969c.313.047.61.047.875.047 2.094 0 3.266-1.094 3.266-2.797 0-1.562-1.047-2.468-3.172-2.453-.547.016-1.219.078-1.922.188zm2 .671c1.344 0 2.078.516 2.078 1.704 0 .765-.344 1.328-.922 1.593-.36.172-.86.266-1.406.266-.266 0-.516-.031-.797-.047v-3.422c.36-.062.703-.093 1.047-.093zm0 0"/></symbol><symbol overflow="visible" id="86cfafa9o"><path d="M5.719-.828h-3.64v-2.875H5v-.828H2.078V-7.22h3.594l.047-.828H1.125V0h4.61zm0 0"/></symbol><symbol overflow="visible" id="86cfafa9p"><path d="M7.656-9.016l-.953.032v.937H.22l.015.844h2.532V0h.968v-7.203h2.97V0h.952v-4.375c.532-.36 1.094-.563 1.688-.563.719 0 .922.47.922 1.47V0h.953v-3.813c0-1.25-.453-1.953-1.656-1.953-.704 0-1.329.235-1.907.672zm0 0"/></symbol><symbol overflow="visible" id="86cfafa9q"><path d="M.797-7.313c0 .36.25.594.625.594.406 0 .672-.265.672-.656 0-.375-.25-.61-.625-.61-.407 0-.672.266-.672.673zM1.89-5.609l-.938.015V0h.938zm0 0"/></symbol><symbol overflow="visible" id="86cfafa9r"><path d="M1.672-5.688l-.797.11c.078 1.187.094 1.734.094 2.172V0h.953v-4.234c.516-.438 1.094-.72 1.672-.72.75 0 .937.485.937 1.5V0h.953v-3.813c0-1.25-.437-1.953-1.671-1.953-.766 0-1.407.297-1.985.86zm0 0"/></symbol><symbol overflow="visible" id="86cfafa9z"><path d="M1.578-5.61H.562c.016.188.094.36.22.532l1.421 2.125L.593-.516C.485-.344.392-.187.376 0h.89l1.5-2.313h.016L4.312 0h.954a.947.947 0 00-.22-.516l-1.64-2.421 1.438-2.141c.125-.172.203-.344.234-.531h-.906L2.859-3.563h-.03zm0 0"/></symbol><symbol overflow="visible" id="86cfafa9A"><path d="M2.188-7.266h-.782l-.218 1.657H.39v.78h.843v3.188c0 1.344.407 1.766 1.313 1.766.422 0 .953-.078 1.437-.25l-.187-.719c-.344.094-.703.14-.906.14-.563 0-.704-.25-.704-1.187v-2.937h1.72v-.781h-1.72zm0 0"/></symbol><symbol overflow="visible" id="86cfafa9B"><path d="M1.266-2.625C.796-2.328.5-1.844.5-1.265c0 .859.563 1.39 1.469 1.39.687 0 1.36-.313 1.937-.828l.172.765.797-.124c-.094-1.188-.094-1.672-.094-2.11v-1.437c0-1.485-.531-2.125-1.734-2.125-.89 0-1.672.375-2.297.906l.344.594c.593-.407 1.218-.672 1.781-.672.703 0 .969.406.969 1.593v.079c-1.297.109-2.094.296-2.578.609zm.156 1.25c0-.36.172-.594.36-.734.296-.188.827-.329 2.062-.422v1.125c-.594.5-1.188.781-1.688.781-.453 0-.734-.266-.734-.75zm0 0"/></symbol><symbol overflow="visible" id="86cfafa9C"><path d="M1.89-9.016l-.937.032V-.97c0 .719.344 1.094.985 1.094.296 0 .625-.047.937-.188l-.203-.703a1.18 1.18 0 01-.438.079c-.25 0-.343-.157-.343-.532zm0 0"/></symbol><symbol overflow="visible" id="86cfafa9D"><path d="M1.172-.89c0 .25.062.437.187.578C.734.124.344.64.344 1.343c-.016 1.078.969 1.703 2.328 1.703 1.594 0 2.812-.797 2.812-2.11 0-1.109-.859-1.562-2.25-1.578-.734-.015-1.187-.062-1.187-.578 0-.203.094-.36.203-.531.156.016.328.031.5.031C4.203-1.719 5-2.64 5-3.766c0-.5-.156-.937-.469-1.28a4.024 4.024 0 011.078-.25l-.046-.829c-.625.031-1.125.313-1.5.672a2.515 2.515 0 00-1.188-.281C1.359-5.734.641-4.688.641-3.641c0 .735.359 1.391 1.046 1.704-.343.343-.515.656-.515 1.046zm2.922-2.813c0 .828-.516 1.25-1.282 1.25-.874 0-1.28-.5-1.28-1.297 0-.781.515-1.234 1.28-1.234.86 0 1.282.5 1.282 1.28zM1.219 1.234c0-.484.25-.859.718-1.187.313.094.672.11.985.11.984.015 1.687.124 1.687.905 0 .329-.14.61-.39.829-.328.265-.844.375-1.407.375-.953 0-1.593-.329-1.593-1.032zm0 0"/></symbol><symbol overflow="visible" id="86cfafa9E"><path d="M1.89-9.016l-.937.032V0h.938v-4.375c.53-.36 1.109-.563 1.687-.563.735 0 .953.47.953 1.47V0h.938v-3.813c0-1.25-.453-1.953-1.657-1.953-.703 0-1.343.235-1.921.672zm0 0"/></symbol><symbol overflow="visible" id="86cfafa9M"><path d="M5.516-.828H2.078v-7.219h-.953V0h4.422zm0 0"/></symbol><symbol overflow="visible" id="86cfafa9U"><path d="M1.125-7.984V0h.953v-3.281c.297.031.625.047.844.047.265 0 .484-.016.703-.047L5.406 0h1.032a8.004 8.004 0 00-.36-.75L4.547-3.5c1.062-.422 1.656-1.281 1.656-2.36 0-1.515-1.172-2.312-3.094-2.312-.593 0-1.312.078-1.984.188zm2 .671c1.328 0 2.078.5 2.078 1.547 0 .735-.39 1.204-.922 1.454a3.66 3.66 0 01-1.375.25c-.297 0-.547-.032-.828-.047v-3.11a6.493 6.493 0 011.047-.093zm0 0"/></symbol><symbol overflow="visible" id="86cfafa9V"><path d="M.64-2.688C.64-.843 1.688.126 3.079.126c.672 0 1.344-.14 2-.453L4.844-1a4.468 4.468 0 01-1.61.297c-.937 0-1.578-.563-1.64-1.86h3.531c.063-.296.078-.624.078-.921 0-1.282-.672-2.282-2.016-2.282-1.578 0-2.546 1.36-2.546 3.079zm2.47-2.28c.765 0 1.156.546 1.156 1.312 0 .125 0 .265-.016.406H1.61c.124-1.063.64-1.719 1.5-1.719zm0 0"/></symbol><symbol overflow="visible" id="86cfafa9W"><path d="M1.844-5.61l-.938.016v3.813c0 1.234.516 1.953 1.672 1.953.735 0 1.344-.328 1.89-.89l.173.765.78-.11c-.077-1.28-.093-1.656-.093-2.156v-3.39h-.953v4.187c-.516.469-1.031.781-1.563.781-.671 0-.968-.453-.968-1.484zm0 0"/></symbol><symbol overflow="visible" id="86cfafa9ae"><path d="M8.156-8.047H6.86L4.938-1.25H4.89l-.329-1.406-1.593-5.39H1.688L.78-.86C.75-.58.703-.25.687 0h.891l.797-6.75h.031l.36 1.453L4.312 0h1.141l1.938-6.734h.03l.157 1.453L8.25 0h.922c-.016-.25-.063-.531-.094-.797zm0 0"/></symbol><symbol overflow="visible" id="86cfafa9af"><path d="M.64-2.61C.64-1.03 1.532.173 2.782.173c.703 0 1.266-.36 1.766-.89l.156.765.797-.11c-.094-1.093-.094-1.578-.094-1.984v-6.969l-.953.032v3.609c-.39-.25-.75-.39-1.266-.39C1.47-5.766.626-4.157.642-2.61zm.97-.203c0-.703.156-1.374.562-1.78.234-.25.562-.36 1.047-.36a2.4 2.4 0 011.234.328v3.188c-.5.468-.984.796-1.516.796-.874 0-1.328-.921-1.328-2.171zm0 0"/></symbol><symbol overflow="visible" id="86cfafa9ag"><path d="M1.672-5.688l-.797.11c.094 1.234.094 1.734.094 2.172V0h.953v-4.219c.484-.406 1.016-.734 1.578-.734.656 0 .875.453.875 1.562V0h.922v-3.75c0-.172 0-.328-.016-.469.485-.406 1.032-.734 1.594-.734.656 0 .86.453.86 1.562V0h.952v-3.75c0-1.313-.453-2.016-1.562-2.016-.781 0-1.375.329-1.969.922-.218-.61-.656-.922-1.406-.922-.766 0-1.344.313-1.906.875zm0 0"/></symbol><symbol overflow="visible" id="86cfafa9ao"><path d="M.781-5.953C.781-4.563 1.906-4.11 3-3.687c.984.359 1.89.671 1.89 1.624 0 .985-.937 1.36-1.843 1.36a4.28 4.28 0 01-2.172-.61L.5-.578c.594.437 1.578.75 2.531.75 1.516 0 2.86-.75 2.86-2.313 0-1.468-1.235-1.906-2.391-2.343-.922-.344-1.719-.657-1.719-1.547 0-1.016.985-1.297 1.782-1.297.656 0 1.312.156 1.796.328l.282-.734c-.547-.282-1.313-.47-2.032-.47-1.406 0-2.828.673-2.828 2.25zm0 0"/></symbol><symbol overflow="visible" id="86cfafa9ap"><path d="M1.89-9.016l-.952.032v8.796a6.441 6.441 0 002.046.313c1.891 0 2.704-1.484 2.704-3.016 0-1.625-.782-2.875-2.188-2.875-.64 0-1.156.313-1.61.797zm1.454 4.063c.875 0 1.375.844 1.375 2.14 0 .782-.14 1.344-.61 1.797-.156.172-.546.344-1.046.344-.438 0-.813-.047-1.172-.14V-4.22c.421-.422.937-.734 1.453-.734zm0 0"/></symbol><symbol overflow="visible" id="86cfafa9ax"><path d="M1.125-7.984v7.937c.75.11 1.516.172 2.11.172 2.093 0 3.14-.984 3.14-2.422 0-1.094-.625-1.765-1.64-2 .812-.39 1.171-1.11 1.171-1.89 0-1.344-1.062-1.97-2.781-1.97-.625 0-1.328.063-2 .173zm2 .656c1.094 0 1.781.36 1.781 1.328 0 .453-.172.922-.61 1.172-.25.14-.593.234-1.109.234-.328 0-.671 0-1.093-.015V-7.25a8.25 8.25 0 011.031-.078zm.078 3.531c1.485 0 2.156.563 2.156 1.5 0 .485-.187.922-.609 1.235-.313.234-.734.359-1.438.359-.39 0-.78-.031-1.218-.078v-3c.39 0 .781-.016 1.11-.016zm0 0"/></symbol><symbol overflow="visible" id="86cfafa9aM"><path d="M.64-2.656C.64-.937 1.579.125 3.11.125c.53 0 1.156-.14 1.734-.406L4.625-1c-.5.203-1 .297-1.39.297-1.032 0-1.641-.656-1.641-2.078 0-.875.25-1.5.656-1.844.203-.156.484-.297.875-.297.469 0 .875.188 1.297.578l.469-.547c-.422-.546-.954-.843-1.704-.843-1.53 0-2.546 1.25-2.546 3.078zm0 0"/></symbol><symbol overflow="visible" id="86cfafa9aN"><path d="M5.484-5.61h-.953L1.906-2.655v-6.36l-.953.032V0h.953v-1.5l.875-.938L4.625 0h1.031a1.611 1.611 0 00-.297-.516L3.391-3.078l1.812-2.063c.156-.156.25-.312.281-.468zm0 0"/></symbol><symbol overflow="visible" id="86cfafa9s"><path d="M13.156-25.578v-1.688H1.578l-.14 1.688 6.64 12.172-6.64 11.719L1.578 0h11.578v-1.688H3.61l-.046-.234 6.546-11.484-6.468-11.969.03-.203zm0 0"/></symbol><symbol overflow="visible" id="86cfafa9t"><path d="M13.75-1.469c-1.297 0-1.703-.562-1.703-2.234v-11.281l.406-4.329-1.5-.14-.312 2.515c-.454-.843-1.407-2.765-3.813-2.765-3.156 0-4.656 2.797-4.656 7v6.187c0 4.594 1.156 6.907 4.375 6.907 2.094 0 3.469-1.829 4.062-3.438v.36c0 2.015 1.016 2.75 2.938 2.75l.906-.032v-1.5zm-3.36-5.078c0 2.14-1.5 5.39-3.734 5.39-2.218 0-2.765-1.78-2.765-5.359v-6.187c0-3.469.968-5.422 3.078-5.422 1.953 0 2.968 2.344 3.422 3.281zm0 0"/></symbol><symbol overflow="visible" id="86cfafa9u"><path d="M2.906-19.313V5.985h1.719v-3.89c0-.828-.047-1.75-.11-2.625.594.64 1.438.922 2.376.922 2.171 0 3.437-1.47 4.234-2.672.219 1.547 1.016 2.344 2.984 2.344l.907-.032v-1.5h-.704c-1.25 0-1.671-.562-1.671-2.234v-15.61h-1.72v14.97c-.843 1.515-2.03 3.155-3.812 3.155-1.515 0-2.484-1.093-2.484-2.625v-15.5zm0 0"/></symbol><symbol overflow="visible" id="86cfafa9w"><path d="M15.406-25.578l.281-1.688H4.438l-.375 1.688L8.47-13.61-.171-1.688-.313 0h11.234l.25-1.688h-9.11l.032-.234 8.375-11.484-4.375-11.969.062-.203zm0 0"/></symbol><symbol overflow="visible" id="86cfafa9x"><path d="M1.578-6.516C.812-2.203 1.328.313 3.75.313c2.484 0 5.063-4.938 6.219-7.485C9.516-5.219 9-2.969 9-2.032 9-.421 9.766.204 11.172.204c.547 0 1.219-.14 1.531-.234l.25-1.297h-.984c-.656 0-1.078-.11-1.266-.453-.203-.422-.14-1.157.11-2.39l1.234-7.032c.734-3.36 1.5-6.016 1.89-8.11l-1.718-.14c-.172 1.078-.39 2.437-.703 3.765-.422-1.39-1.36-4.015-3.704-4.015-3.015 0-4.343 2.765-5.125 7zm1.719.079l1.11-6.266c.64-3.469 1.546-5.422 3.437-5.422 1.812 0 2.765 2.969 3.187 4.328l-.594 2.422C9.563-7.937 5.704-1.219 3.891-1.219c-1.125-.14-1.157-2.14-.594-5.218zm0 0"/></symbol><symbol overflow="visible" id="86cfafa9y"><path d="M4.578-19.313L.11 5.985h1.704l.671-3.703c.11-.781.282-1.89.422-2.875.281.563.766.906 1.61.906C6.89.313 9-3.358 10.046-5.28c-.28 1.218-.53 2.375-.53 3.328.046 1.5.734 2.156 2.171 2.156.391 0 1.157-.14 1.547-.234l.235-1.297h-.938c-.594 0-1.094-.11-1.297-.36-.203-.406-.14-1.28.11-2.656L14-19.312h-1.719L10.25-7.704C9.594-6.47 6.578-1.22 4.656-1.22c-1.047-.11-1.265-1.578-.984-3.297l2.656-14.796zm0 0"/></symbol><symbol overflow="visible" id="86cfafa9F"><path d="M13.61-25.125v-2.203H1.64l-.14 2.203 6.516 11.61L1.5-2.204 1.64 0h11.97v-2.203H4.265l-.032-.25 6.47-11.125-6.329-11.266.031-.281zm0 0"/></symbol><symbol overflow="visible" id="86cfafa9G"><path d="M14.172-1.86c-1.25 0-1.61-.593-1.61-2.202v-10.75l.454-4.5-1.922-.188-.344 2.344c-.5-.797-1.469-2.625-3.813-2.625-3.234 0-4.843 2.984-4.843 7.281v5.813c0 4.765 1.265 7.109 4.625 7.109 2 0 3.437-1.61 4.031-3.156v.078c0 1.984 1.016 2.797 3 2.797l1.156-.11v-1.89zM10.39-6.468c0 2.125-1.438 4.86-3.5 4.86-1.985 0-2.547-1.641-2.547-5.079V-12.5c0-3.39.937-5.203 2.828-5.203 1.719 0 2.766 2.094 3.219 3zm0 0"/></symbol><symbol overflow="visible" id="86cfafa9H"><path d="M2.734-19.313V6.063H5v-3.64c0-.844-.031-1.75-.094-2.594.485.375 1.11.594 1.953.594 2.063 0 3.36-1.234 4.313-2.516C11.437-.625 12.219.141 14.25.141l1.156-.11v-1.89h-.734c-1.266 0-1.61-.594-1.61-2.204v-15.25h-2.28v14.766C10.077-3.25 8.952-1.64 7.202-1.64 5.813-1.64 5-2.656 5-4.125v-15.188zm0 0"/></symbol><symbol overflow="visible" id="86cfafa9J"><path d="M15.89-25.125l.391-2.203H4.656l-.531 2.203 4.484 11.328L.063-2.203-.11 0h11.593l.375-2.203H2.97l.047-.25 8.218-11.125L6.86-24.844l.079-.281zm0 0"/></symbol><symbol overflow="visible" id="86cfafa9K"><path d="M1.469-6.688C.672-2.14 1.359.282 3.812.282 6.376.281 8.86-4.407 10.017-7c-.454 1.781-1.063 4.125-1.063 5 0 1.578.844 2.203 2.39 2.203.595 0 1.36-.172 1.72-.266l.312-1.687h-.844c-.672 0-1.187-.11-1.406-.39-.14-.376-.063-1.047.11-2.094l1.187-6.797c.703-3.078 1.578-5.766 2.062-8.281L12.25-19.5a71.082 71.082 0 01-.672 3.547c-.453-1.375-1.39-3.828-3.765-3.828-3.047 0-4.485 2.984-5.297 7.281zm2.203.172L4.766-12.5c.625-3.39 1.5-5.203 3.14-5.203 1.657 0 2.594 2.687 3.047 3.984l-.625 2.375c-.953 3.5-4.594 9.594-6.265 9.594-.844-.25-.844-2.14-.391-4.766zm0 0"/></symbol><symbol overflow="visible" id="86cfafa9L"><path d="M4.516-19.313L.03 6.063h2.203l.594-3.296c.11-.813.281-2 .422-3.047.281.344.703.562 1.375.562 2.266 0 4.266-3.328 5.453-5.36-.281 1.157-.562 2.25-.515 3.079 0 1.547.765 2.203 2.296 2.203.454 0 1.375-.14 1.75-.266l.329-1.687h-.813c-.594 0-1.219-.063-1.438-.313-.14-.39-.062-1.374.172-2.624l2.594-14.625H12.22l-2.031 11.5C9.374-6.438 6.405-1.75 4.827-1.75c-.766-.203-.906-1.469-.625-3.078L6.75-19.313zm0 0"/></symbol><symbol overflow="visible" id="86cfafa9N"><path d="M14.11-24.61v-2.765H1.687l-.141 2.766 6.39 10.953-6.39 10.922L1.687 0H14.11v-2.734H4.97l-.032-.313 6.375-10.672-6.203-10.61.032-.28zm0 0"/></symbol><symbol overflow="visible" id="86cfafa9O"><path d="M14.625-2.281c-1.25 0-1.531-.594-1.531-2.156v-10.188l.562-4.734-2.422-.203-.421 2.171c-.454-.78-1.532-2.422-3.813-2.422-3.297 0-5 3.157-5 7.563v5.39C2-1.952 3.438.423 6.938.423c1.843 0 3.359-1.406 3.953-2.844.062 1.86 1.078 2.594 3.078 2.594l1.437-.11V-2.28zm-4.188-4.156c0 2.203-1.437 4.375-3.265 4.375-1.75 0-2.375-1.547-2.375-4.797v-5.391c0-3.328.937-5 2.594-5 1.5 0 2.578 1.813 3.046 2.688zm0 0"/></symbol><symbol overflow="visible" id="86cfafa9P"><path d="M2.594-19.36V6.095h2.828v-3.36c0-.843-.063-1.75-.14-2.593.39.172.874.28 1.515.28C8.78.422 10.078-.562 11.172-2 11.484-.531 12.282.172 14.39.172l1.39-.11V-2.28h-.734c-1.25 0-1.531-.594-1.531-2.156V-19.36h-2.844v14.593c-.625 1.063-1.64 2.625-3.328 2.625-1.36 0-1.922-.937-1.922-2.343V-19.36zm0 0"/></symbol><symbol overflow="visible" id="86cfafa9R"><path d="M16.453-24.61l.453-2.765H4.86l-.625 2.766L8.72-13.97.344-2.734.109 0h12l.454-2.734h-8.61l.031-.313L12-13.719l-4.328-10.61.062-.28zm0 0"/></symbol><symbol overflow="visible" id="86cfafa9S"><path d="M1.406-6.86C.531-2.093 1.438.282 3.844.282c2.672 0 5.11-4.687 6.203-7.218-.422 1.656-1.094 4.14-1.094 5.015 0 1.469.875 2.172 2.531 2.172.625 0 1.532-.219 1.954-.313l.39-2.14h-.703c-.703 0-1.266-.078-1.5-.313-.078-.312-.078-.953.094-1.828l1.125-6.468c.672-2.766 1.64-5.532 2.203-8.547l-2.797-.203c-.172 1.015-.344 2.234-.625 3.421-.422-1.297-1.406-3.672-3.781-3.672-3.157 0-4.657 3.125-5.5 7.563zm2.719.25l1.016-5.64c.64-3.328 1.437-5 2.796-5 1.516 0 2.5 2.375 2.954 3.64l-.672 2.297C9.172-7.765 5.734-2.28 4.234-2.28c-.484-.344-.484-2.156-.109-4.328zm0 0"/></symbol><symbol overflow="visible" id="86cfafa9T"><path d="M4.406-19.36L-.062 6.095h2.75l.5-2.797c.14-.875.312-2.172.453-3.297.25.172.593.281 1.046.281 2.11 0 4.063-2.844 5.36-5.047-.281 1.016-.485 1.97-.485 2.735 0 1.547.797 2.281 2.516 2.281.485 0 1.531-.219 1.953-.313l.39-2.14h-.702c-.594 0-1.297-.078-1.5-.281-.14-.391 0-1.47.203-2.625l2.562-14.25h-2.843L10.156-7.875c-.984 1.5-3.922 5.594-5.187 5.594-.453-.313-.485-1.39-.25-2.906L7.25-19.36zm0 0"/></symbol><symbol overflow="visible" id="86cfafa9X"><path d="M14.531-24.188v-3.218H1.75l-.172 3.218L7.875-13.75 1.578-3.219 1.75 0h12.781v-3.219H5.594l-.032-.344 6.266-10.296-6.047-9.97.032-.358zm0 0"/></symbol><symbol overflow="visible" id="86cfafa9Y"><path d="M15.047-2.625c-1.25 0-1.469-.625-1.469-2.14v-9.72l.594-4.874-2.797-.235-.453 1.985c-.485-.735-1.61-2.266-3.86-2.266-3.359 0-5.14 3.313-5.14 7.828V-7c0 5.047 1.547 7.453 5.187 7.453 1.782 0 3.36-1.219 3.954-2.625C11.203-.484 12.187.25 14.171.25l1.64-.188v-2.687zm-4.61-3.75c0 2.203-1.374 3.89-3.046 3.89-1.516 0-2.172-1.437-2.172-4.515v-5.047c0-3.25.906-4.781 2.375-4.781 1.265 0 2.375 1.531 2.843 2.406zm0 0"/></symbol><symbol overflow="visible" id="86cfafa9Z"><path d="M2.453-19.36V6.126h3.328V3.047c0-.875-.078-1.828-.14-2.703.28.078.625.11 1.109.11 1.938 0 3.297-.798 4.453-2.313C11.547-.453 12.313.25 14.484.25l1.657-.188v-2.687h-.782c-1.25 0-1.468-.625-1.468-2.14V-19.36h-3.329v14.422c-.515.843-1.468 2.375-3.109 2.375-1.297 0-1.672-.907-1.672-2.204v-14.593zm0 0"/></symbol><symbol overflow="visible" id="86cfafa9ab"><path d="M16.906-24.188l.563-3.218H5.047l-.734 3.218 4.5 10.047L.592-3.219.282 0h12.36l.546-3.219h-8.39l.031-.344 7.875-10.296-4.344-9.97.11-.358zm0 0"/></symbol><symbol overflow="visible" id="86cfafa9ac"><path d="M1.297-7.031C.39-2.063 1.469.25 3.922.25c2.625 0 4.969-4.281 6.094-6.828C9.562-5 8.953-2.656 8.953-1.891c0 1.438.922 2.141 2.672 2.141.656 0 1.672-.219 2.172-.36l.453-2.515h-.594c-.703 0-1.375-.031-1.61-.25-.046-.281-.046-.797.095-1.531l1.046-6.235c.672-2.515 1.72-5.312 2.391-8.718l-3.328-.235c-.14.938-.344 2.125-.594 3.219-.422-1.234-1.437-3.5-3.812-3.5-3.188 0-4.797 3.281-5.64 7.828zm3.219.343l.984-5.359c.594-3.25 1.39-4.781 2.516-4.781 1.328 0 2.343 2.094 2.796 3.281l-.703 2.281C9-7.703 5.734-2.766 4.375-2.766c-.172-.453-.172-2.171.14-3.921zm0 0"/></symbol><symbol overflow="visible" id="86cfafa9ad"><path d="M4.344-19.36L-.141 6.126h3.25L3.5 3.75c.14-.984.344-2.453.453-3.64.219.093.485.14.844.14 1.953 0 3.781-2.422 5.281-4.828-.281.969-.515 1.812-.515 2.516C9.563-.484 10.39.25 12.25.25c.563 0 1.719-.219 2.14-.36l.454-2.515h-.563c-.625 0-1.437-.031-1.64-.25-.079-.344.062-1.5.28-2.578l2.485-13.906h-3.328L10.11-7.984c-1.156 1.656-4.046 5.218-5 5.218-.171-.39-.14-1.296.11-2.687L7.672-19.36zm0 0"/></symbol><symbol overflow="visible" id="86cfafa9ah"><path d="M14.844-23.625v-3.781H1.64l-.204 3.781 6.094 9.969-6.093 9.844L1.64 0h13.203v-3.813H6.266l-.032-.359 6.016-9.578-5.813-9.531.032-.344zm0 0"/></symbol><symbol overflow="visible" id="86cfafa9ai"><path d="M15.406-3.078c-1.234 0-1.437-.531-1.437-2.063v-9.171l.594-5-3.297-.329-.516 1.97c-.531-.735-1.578-2.173-3.813-2.173-3.437 0-5.218 3.188-5.218 7.907v5.078C1.719-2 3.297.453 6.969.453c1.812 0 3.39-1.187 3.953-2.594.172 1.72 1.219 2.422 3.25 2.422l1.89-.219v-3.14zm-5.219-3.36c0 2.063-1.124 3.61-2.624 3.61-1.375 0-1.922-1.266-1.922-4.14V-12c0-2.984.734-4.344 2.062-4.344 1.11 0 2.063 1.266 2.484 2.032zm0 0"/></symbol><symbol overflow="visible" id="86cfafa9aj"><path d="M2.203-19.36V6.157h3.953V3.078c0-.844-.062-1.781-.14-2.656.218.031.453.031.734.031 1.86 0 3.219-.797 4.344-2.265.453 1.421 1.328 2.093 3.5 2.093l1.781-.219v-3.14h-.656c-1.235 0-1.438-.531-1.438-2.063v-14.218h-3.953v14.422c-.453.703-1.234 1.968-2.656 1.968-1.094 0-1.516-.781-1.516-2v-14.39zm0 0"/></symbol><symbol overflow="visible" id="86cfafa9al"><path d="M17.047-23.625l.656-3.781H4.86l-.875 3.781 4.282 9.563L.484-3.813.063 0h12.812l.672-3.813H5.422l.031-.359 7.469-9.578-4.14-9.531.109-.344zm0 0"/></symbol><symbol overflow="visible" id="86cfafa9am"><path d="M1.078-6.89C.203-2.064 1.36.28 3.984.28c2.532 0 4.625-3.578 5.782-6.156-.344 1.297-.813 3.047-.813 3.703 0 1.64.922 2.453 2.844 2.453.765 0 1.781-.219 2.312-.344l.563-3.015H14c-.594 0-1.188-.031-1.438-.172 0-.313 0-.813.11-1.438l.937-5.843c.641-2.281 1.86-5.61 2.422-8.781l-3.984-.282c-.14.875-.328 2.032-.563 3.11-.5-1.266-1.515-3.36-3.812-3.36-3.234 0-4.844 3.157-5.672 7.907zm3.89.062L5.923-12c.516-2.844 1.14-4.344 2.234-4.344 1.188 0 2.14 1.75 2.516 2.735l-.766 2.578c-1.047 3.61-3.89 7.844-5.11 7.844-.14-.422-.077-2.126.173-3.641zm0 0"/></symbol><symbol overflow="visible" id="86cfafa9an"><path d="M4.063-19.36L-.454 6.157h3.89l.376-2.547c.14-.921.312-2.25.421-3.359.172.031.344.063.594.063 1.828 0 3.5-2.032 4.906-4.157-.171.797-.28 1.5-.171 2.094C9.687-.39 10.53.281 12.28.281c.672 0 1.86-.219 2.344-.344l.531-3.015h-.672c-.546 0-1.218-.031-1.468-.172-.032-.39.109-1.375.28-2.281L15.75-19.36h-3.953L9.766-7.562C8.78-6.188 6.328-3.329 5.453-3.329c-.14-.344-.062-1.188.11-2.344l2.421-13.687zm0 0"/></symbol><symbol overflow="visible" id="86cfafa9aq"><path d="M15.156-23v-4.438H1.546L1.329-23l5.781 9.484-5.78 9.079L1.546 0h13.61v-4.438H6.968l-.032-.359 5.735-8.89-5.469-8.954L7.25-23zm0 0"/></symbol><symbol overflow="visible" id="86cfafa9ar"><path d="M15.75-3.563c-1.125 0-1.36-.421-1.36-1.968v-8.578l.594-5.204-3.78-.328-.642 1.891c-.546-.734-1.562-2.094-3.765-2.094-3.5 0-5.297 3.078-5.297 8.047v5.047C1.5-2.031 3.078.484 6.797.484 8.64.484 10.187-.594 10.75-2 10.984-.344 12.188.281 14.172.281l2.14-.25v-3.594zM9.937-6.515c0 1.891-.906 3.266-2.203 3.266-1.187 0-1.609-1.063-1.609-3.688v-5c0-2.687.531-3.874 1.688-3.874.937 0 1.75.968 2.125 1.609zm0 0"/></symbol><symbol overflow="visible" id="86cfafa9as"><path d="M1.922-19.39V6.187h4.625V3.108c0-.765-.031-1.75-.14-2.625h.343c1.797 0 3.188-.875 4.234-2.234C11.516-.344 12.5.281 14.672.281l1.953-.25v-3.594h-.563c-1.125 0-1.359-.421-1.359-1.968v-13.86h-4.625v14.453c-.39.563-1.015 1.47-2.172 1.47-.875 0-1.36-.563-1.36-1.75v-14.173zm0 0"/></symbol><symbol overflow="visible" id="86cfafa9au"><path d="M17.156-23l.797-4.438H4.656L3.672-23l4.031 9L.422-4.484-.141-.031h13.266l.766-4.453H6.156l.032-.344 6.968-8.86-3.875-8.953.094-.359zm0 0"/></symbol><symbol overflow="visible" id="86cfafa9av"><path d="M.844-6.75C0-2.062 1.219.281 4.063.281c2.406 0 4.296-2.937 5.453-5.468-.282.953-.563 2.14-.563 2.703C8.953-.625 9.828.28 12 .28c.875 0 1.86-.219 2.484-.344l.641-3.5h-.781c-.453 0-.938-.046-1.188-.14 0-.328.031-.735.11-1.297l.843-5.39c.563-2.032 1.985-5.922 2.407-8.922l-4.72-.282c-.108.797-.28 1.953-.53 3-.485-1.297-1.579-3.25-3.782-3.25-3.25 0-4.859 3.047-5.734 8.047zM5.5-6.969l.875-4.968c.453-2.407.875-3.876 1.922-3.876 1.015 0 1.89 1.36 2.203 2.126l-.813 2.906c-1 3.672-3.312 7.14-4.437 7.14-.11-.39.031-2.093.25-3.328zm0 0"/></symbol><symbol overflow="visible" id="86cfafa9aw"><path d="M3.75-19.39L-.766 6.187H3.75L4.203 3.5c.14-.844.281-2.063.375-3.156.078.047.188.047.281.047 1.75 0 3.297-1.688 4.563-3.579-.078.672-.078 1.297.094 1.782C9.796-.281 10.703.28 12.312.28c.782 0 2.032-.172 2.563-.344l.625-3.5h-.766c-.453 0-1.015-.046-1.265-.14 0-.36.11-1.156.25-1.89l2.422-13.798h-4.625L9.375-7.109c-.797 1.046-2.688 3.187-3.563 3.187-.078-.312 0-1.078.172-2L8.36-19.39zm0 0"/></symbol><symbol overflow="visible" id="86cfafa9ay"><path d="M15.5-22.328v-5.14H1.406l-.218 5.14 5.53 8.922-5.53 8.297L1.405 0H15.5v-5.11H7.703l-.031-.343 5.453-8.125-5.14-8.406.03-.344zm0 0"/></symbol><symbol overflow="visible" id="86cfafa9az"><path d="M16.14-4.094c-1.062 0-1.296-.312-1.296-1.86v-7.937l.594-5.39-4.344-.39-.735 1.858c-.593-.734-1.578-2-3.703-2-3.61 0-5.39 2.938-5.39 8.157v5.047c0 4.546 1.609 7.14 5.312 7.14C8.5.531 10.047-.53 10.61-1.922 10.844-.25 12.141.312 14.203.312L16.593 0v-4.094zM9.657-6.609c0 1.75-.656 2.937-1.75 2.937-1.015 0-1.297-.875-1.297-3.187v-5c0-2.391.36-3.438 1.329-3.438.75 0 1.406.735 1.718 1.188zm0 0"/></symbol><symbol overflow="visible" id="86cfafa9aA"><path d="M1.64-19.422V6.266H6.97V3.187c0-.765-.032-1.75-.11-2.656 1.61 0 2.97-.922 3.954-2.172C11.483-.25 12.64.313 14.765.313L16.906 0v-4.094h-.453c-1.047 0-1.297-.312-1.297-1.86v-13.468H9.828v14.485c-.312.421-.797.984-1.64.984-.704 0-1.22-.39-1.22-1.5v-13.969zm0 0"/></symbol><symbol overflow="visible" id="86cfafa9aC"><path d="M17.297-22.328l.906-5.14H4.438l-1.11 5.14 3.813 8.437L.312-5.187-.344-.063h13.719l.906-5.125h-7.39l.046-.344 6.47-8.047-3.61-8.406.11-.344zm0 0"/></symbol><symbol overflow="visible" id="86cfafa9aD"><path d="M.594-6.61C-.203-2.093 1.078.314 4.125.314c2.313 0 4.031-2.266 5.11-4.72C9.093-3.843 9-3.218 9-2.796c0 2.063.797 3.11 3.25 3.11.938 0 1.922-.204 2.625-.344l.703-4.063h-.844c-.343 0-.703 0-.937-.078 0-.312.031-.687.094-1.14l.703-4.938c.484-1.75 2.14-6.234 2.422-9.031l-5.47-.313c-.108.735-.28 1.844-.515 2.86-.5-1.328-1.61-3.078-3.75-3.078-3.297 0-4.86 2.906-5.812 8.156zm5.468-.5l.797-4.75c.344-2 .594-3.437 1.61-3.437.812 0 1.61 1.016 1.828 1.5L9.484-10.5C8.5-6.75 6.72-4.125 5.704-4.125c-.032-.313.171-2.031.359-2.984zm0 0"/></symbol><symbol overflow="visible" id="86cfafa9aE"><path d="M3.39-19.422L-1.124 6.266h5.219l.484-2.907c.14-.796.25-1.921.36-2.906 1.609 0 3-1.328 4.156-2.969a4.14 4.14 0 00.39 1.47C9.938-.173 10.922.312 12.36.312c.875 0 2.204-.172 2.766-.344l.734-4.063h-.875c-.359 0-.812 0-1.046-.078.03-.344.093-.937.203-1.5l2.421-13.75h-5.328L8.954-6.656c-.626.781-1.923 2.14-2.767 2.14 0-.312.079-1.015.22-1.64L8.75-19.422zm0 0"/></symbol><symbol overflow="visible" id="86cfafa9aF"><path d="M15.813-21.766v-5.703H1.296l-.25 5.703 5.281 8.47-5.281 7.593L1.297 0h14.515v-5.703H8.36l-.03-.36 5.218-7.406-4.906-7.953.046-.344zm0 0"/></symbol><symbol overflow="visible" id="86cfafa9aG"><path d="M16.484-4.547c-1.015 0-1.265-.219-1.265-1.781v-7.39l.594-5.532-4.829-.453-.796 1.812c-.626-.734-1.547-1.89-3.672-1.89-3.688 0-5.47 2.812-5.47 8.234v5.078c0 4.375 1.641 7 5.391 7 1.97 0 3.47-.984 4.032-2.422.281 1.72 1.64 2.235 3.734 2.235L16.828 0v-4.547zm-7.062-2.14c0 1.609-.422 2.656-1.344 2.656-.875 0-1.047-.688-1.047-2.797v-5c0-2.11.172-2.985 1.016-2.985.594 0 1.094.47 1.375.813zm0 0"/></symbol><symbol overflow="visible" id="86cfafa9aH"><path d="M1.406-19.422V6.297h5.938V3.219c0-.735-.032-1.781-.14-2.735C8.577.344 9.796-.453 10.64-1.5 11.406-.14 12.78.344 14.875.344L17.156 0v-4.547h-.36c-1.015 0-1.25-.219-1.25-1.781v-13.094H9.595v14.485c-.25.28-.563.562-1.188.562-.5 0-1.062-.25-1.062-1.297v-13.75zm0 0"/></symbol><symbol overflow="visible" id="86cfafa9aJ"><path d="M17.438-21.766l1-5.703H4.265l-1.25 5.703 3.562 7.938L.203-5.781-.563-.063H13.61l1.016-5.718H7.531l.032-.344 6.046-7.344-3.39-7.953.11-.344zm0 0"/></symbol><symbol overflow="visible" id="86cfafa9aK"><path d="M.39-6.469C-.39-2.094.985.344 4.204.344c2.234 0 3.781-1.781 4.86-4.157A4.774 4.774 0 009-3.078C9-.813 9.797.344 12.422.344c1.047 0 2.031-.203 2.765-.344L16-4.547h-1.688l.11-1.047.594-4.562c.453-1.5 2.28-6.5 2.453-9.094l-6.125-.344c-.078.657-.281 1.782-.5 2.766-.516-1.375-1.672-2.953-3.735-2.953-3.328 0-4.906 2.765-5.843 8.234zm6.126-.781l.765-4.578c.282-1.578.344-2.985 1.328-2.985.672 0 1.407.672 1.547.954l-.875 3.609C8.36-6.469 7-4.547 6.125-4.547c0-.281.281-2 .39-2.703zm0 0"/></symbol><symbol overflow="visible" id="86cfafa9aL"><path d="M3.11-19.422L-1.438 6.297h5.843l.5-3.078c.14-.735.235-1.75.313-2.688 1.39-.11 2.625-1.156 3.64-2.484.094.453.313.875.625 1.219.594.671 1.579 1.078 2.907 1.078.984 0 2.343-.172 2.968-.344l.813-4.547h-1.86c.079-.39.141-.812.22-1.187l2.374-13.688h-5.953L8.61-6.234c-.453.5-1.296 1.156-2.062 1.156.031-.281.14-.906.203-1.297l2.313-13.047zm0 0"/></symbol></defs><use xlink:href="#86cfafa9a" x="53.625" y="73.33333"/><use xlink:href="#86cfafa9b" x="67.17" y="73.33333"/><use xlink:href="#86cfafa9c" x="81.73" y="73.33333"/><use xlink:href="#86cfafa9d" x="97.06" y="73.33333"/><use xlink:href="#86cfafa9e" x="104.06" y="73.33333"/><use xlink:href="#86cfafa9f" x="116.765" y="73.33333"/><use xlink:href="#86cfafa9g" x="131.325" y="73.33333"/><use xlink:href="#86cfafa9h" x="66.046" y="110" fill="#b7b7b7"/><use xlink:href="#86cfafa9i" x="72.802" y="110" fill="#b7b7b7"/><g fill="#b7b7b7"><use xlink:href="#86cfafa9j" x="78.37" y="110"/><use xlink:href="#86cfafa9k" x="84.622" y="110"/><use xlink:href="#86cfafa9l" x="89.002" y="110"/></g><g fill="#b7b7b7"><use xlink:href="#86cfafa9m" x="94.618" y="110"/><use xlink:href="#86cfafa9n" x="97.21" y="110"/><use xlink:href="#86cfafa9o" x="103.93" y="110"/><use xlink:href="#86cfafa9m" x="110.29" y="110"/></g><g fill="#b7b7b7"><use xlink:href="#86cfafa9p" x="112.57" y="110"/><use xlink:href="#86cfafa9q" x="124.702" y="110"/><use xlink:href="#86cfafa9r" x="127.558" y="110"/></g><use xlink:href="#86cfafa9s" x="52.155" y="183.33333"/><use xlink:href="#86cfafa9t" x="66.365" y="183.33333"/><use xlink:href="#86cfafa9u" x="81.45" y="183.33333"/><use xlink:href="#86cfafa9v" x="97.165" y="183.33333"/><use xlink:href="#86cfafa9w" x="103.885" y="183.33333"/><use xlink:href="#86cfafa9x" x="117.43" y="183.33333"/><use xlink:href="#86cfafa9y" x="132.375" y="183.33333"/><use xlink:href="#86cfafa9h" x="52.204" y="220" fill="#b7b7b7"/><use xlink:href="#86cfafa9i" x="58.96" y="220" fill="#b7b7b7"/><g fill="#b7b7b7"><use xlink:href="#86cfafa9j" x="64.528" y="220"/><use xlink:href="#86cfafa9k" x="70.78" y="220"/><use xlink:href="#86cfafa9l" x="75.16" y="220"/></g><g fill="#b7b7b7"><use xlink:href="#86cfafa9m" x="80.776" y="220"/><use xlink:href="#86cfafa9n" x="83.368" y="220"/><use xlink:href="#86cfafa9o" x="90.088" y="220"/><use xlink:href="#86cfafa9m" x="96.448" y="220"/><use xlink:href="#86cfafa9o" x="99.04" y="220"/><use xlink:href="#86cfafa9z" x="105.4" y="220"/><use xlink:href="#86cfafa9A" x="111.04" y="220"/><use xlink:href="#86cfafa9k" x="115.348" y="220"/></g><g fill="#b7b7b7"><use xlink:href="#86cfafa9B" x="119.512" y="220"/><use xlink:href="#86cfafa9C" x="125.212" y="220"/><use xlink:href="#86cfafa9q" x="128.308" y="220"/><use xlink:href="#86cfafa9D" x="131.164" y="220"/><use xlink:href="#86cfafa9E" x="137.104" y="220"/><use xlink:href="#86cfafa9A" x="143.488" y="220"/></g><use xlink:href="#86cfafa9F" x="50.7725" y="293.33333"/><use xlink:href="#86cfafa9G" x="65.6125" y="293.33333"/><use xlink:href="#86cfafa9H" x="81.1525" y="293.33333"/><use xlink:href="#86cfafa9I" x="97.2525" y="293.33333"/><use xlink:href="#86cfafa9J" x="103.7275" y="293.33333"/><use xlink:href="#86cfafa9K" x="118.0775" y="293.33333"/><use xlink:href="#86cfafa9L" x="133.3725" y="293.33333"/><use xlink:href="#86cfafa9h" x="63.922" y="330" fill="#b7b7b7"/><use xlink:href="#86cfafa9i" x="70.678" y="330" fill="#b7b7b7"/><g fill="#b7b7b7"><use xlink:href="#86cfafa9j" x="76.246" y="330"/><use xlink:href="#86cfafa9k" x="82.498" y="330"/><use xlink:href="#86cfafa9l" x="86.878" y="330"/></g><g fill="#b7b7b7"><use xlink:href="#86cfafa9m" x="92.494" y="330"/><use xlink:href="#86cfafa9n" x="95.086" y="330"/><use xlink:href="#86cfafa9o" x="101.806" y="330"/><use xlink:href="#86cfafa9m" x="108.166" y="330"/><use xlink:href="#86cfafa9M" x="110.758" y="330"/><use xlink:href="#86cfafa9q" x="116.59" y="330"/><use xlink:href="#86cfafa9D" x="119.446" y="330"/><use xlink:href="#86cfafa9E" x="125.386" y="330"/><use xlink:href="#86cfafa9A" x="131.77" y="330"/></g><use xlink:href="#86cfafa9N" x="49.3025" y="403.33333"/><use xlink:href="#86cfafa9O" x="64.8075" y="403.33333"/><use xlink:href="#86cfafa9P" x="80.8725" y="403.33333"/><use xlink:href="#86cfafa9Q" x="97.3575" y="403.33333"/><use xlink:href="#86cfafa9R" x="103.5525" y="403.33333"/><use xlink:href="#86cfafa9S" x="118.7425" y="403.33333"/><use xlink:href="#86cfafa9T" x="134.4225" y="403.33333"/><use xlink:href="#86cfafa9h" x="57.586" y="440" fill="#b7b7b7"/><use xlink:href="#86cfafa9i" x="64.342" y="440" fill="#b7b7b7"/><g fill="#b7b7b7"><use xlink:href="#86cfafa9j" x="69.91" y="440"/><use xlink:href="#86cfafa9k" x="76.162" y="440"/><use xlink:href="#86cfafa9l" x="80.542" y="440"/></g><g fill="#b7b7b7"><use xlink:href="#86cfafa9m" x="86.158" y="440"/><use xlink:href="#86cfafa9n" x="88.75" y="440"/><use xlink:href="#86cfafa9o" x="95.47" y="440"/><use xlink:href="#86cfafa9m" x="101.83" y="440"/><use xlink:href="#86cfafa9U" x="104.422" y="440"/></g><g fill="#b7b7b7"><use xlink:href="#86cfafa9V" x="111.154" y="440"/><use xlink:href="#86cfafa9D" x="116.998" y="440"/><use xlink:href="#86cfafa9W" x="122.938" y="440"/><use xlink:href="#86cfafa9C" x="129.238" y="440"/><use xlink:href="#86cfafa9B" x="132.334" y="440"/><use xlink:href="#86cfafa9k" x="138.034" y="440"/></g><use xlink:href="#86cfafa9X" x="48.0075" y="513.33333"/><use xlink:href="#86cfafa9Y" x="64.1075" y="513.33333"/><use xlink:href="#86cfafa9Z" x="80.6275" y="513.33333"/><use xlink:href="#86cfafa9aa" x="97.4625" y="513.33333"/><use xlink:href="#86cfafa9ab" x="103.4125" y="513.33333"/><use xlink:href="#86cfafa9ac" x="119.3375" y="513.33333"/><use xlink:href="#86cfafa9ad" x="135.3675" y="513.33333"/><use xlink:href="#86cfafa9h" x="56.182" y="550" fill="#b7b7b7"/><use xlink:href="#86cfafa9i" x="62.938" y="550" fill="#b7b7b7"/><g fill="#b7b7b7"><use xlink:href="#86cfafa9j" x="68.506" y="550"/><use xlink:href="#86cfafa9k" x="74.758" y="550"/><use xlink:href="#86cfafa9l" x="79.138" y="550"/></g><g fill="#b7b7b7"><use xlink:href="#86cfafa9m" x="84.754" y="550"/><use xlink:href="#86cfafa9n" x="87.346" y="550"/><use xlink:href="#86cfafa9o" x="94.066" y="550"/><use xlink:href="#86cfafa9m" x="100.426" y="550"/><use xlink:href="#86cfafa9ae" x="103.018" y="550"/></g><g fill="#b7b7b7"><use xlink:href="#86cfafa9V" x="112.846" y="550"/><use xlink:href="#86cfafa9af" x="118.69" y="550"/><use xlink:href="#86cfafa9q" x="125.062" y="550"/><use xlink:href="#86cfafa9W" x="127.918" y="550"/><use xlink:href="#86cfafa9ag" x="134.218" y="550"/></g><use xlink:href="#86cfafa9ah" x="47.675" y="623.33333"/><use xlink:href="#86cfafa9ai" x="63.95" y="623.33333"/><use xlink:href="#86cfafa9aj" x="80.575" y="623.33333"/><use xlink:href="#86cfafa9ak" x="97.515" y="623.33333"/><g><use xlink:href="#86cfafa9al" x="103.29" y="623.33333"/><use xlink:href="#86cfafa9am" x="119.285" y="623.33333"/><use xlink:href="#86cfafa9an" x="135.56" y="623.33333"/></g><g fill="#b7b7b7"><use xlink:href="#86cfafa9h" x="53.188" y="660"/></g><g fill="#b7b7b7"><use xlink:href="#86cfafa9i" x="59.944" y="660"/></g><g fill="#b7b7b7"><use xlink:href="#86cfafa9j" x="65.512" y="660"/><use xlink:href="#86cfafa9k" x="71.764" y="660"/><use xlink:href="#86cfafa9l" x="76.144" y="660"/></g><g fill="#b7b7b7"><use xlink:href="#86cfafa9m" x="81.76" y="660"/><use xlink:href="#86cfafa9n" x="84.352" y="660"/><use xlink:href="#86cfafa9o" x="91.072" y="660"/><use xlink:href="#86cfafa9m" x="97.432" y="660"/><use xlink:href="#86cfafa9ao" x="100.024" y="660"/><use xlink:href="#86cfafa9V" x="106.48" y="660"/><use xlink:href="#86cfafa9ag" x="112.324" y="660"/><use xlink:href="#86cfafa9q" x="121.924" y="660"/><use xlink:href="#86cfafa9ap" x="124.78" y="660"/><use xlink:href="#86cfafa9j" x="131.092" y="660"/><use xlink:href="#86cfafa9C" x="137.344" y="660"/><use xlink:href="#86cfafa9af" x="140.44" y="660"/></g><g><use xlink:href="#86cfafa9aq" x="47.255" y="733.33333"/><use xlink:href="#86cfafa9ar" x="63.74" y="733.33333"/><use xlink:href="#86cfafa9as" x="80.505" y="733.33333"/><use xlink:href="#86cfafa9at" x="97.585" y="733.33333"/></g><g><use xlink:href="#86cfafa9au" x="103.185" y="733.33333"/><use xlink:href="#86cfafa9av" x="119.25" y="733.33333"/><use xlink:href="#86cfafa9aw" x="135.805" y="733.33333"/></g><g fill="#b7b7b7"><use xlink:href="#86cfafa9h" x="65.23" y="770"/></g><g fill="#b7b7b7"><use xlink:href="#86cfafa9i" x="71.986" y="770"/></g><g fill="#b7b7b7"><use xlink:href="#86cfafa9j" x="77.554" y="770"/><use xlink:href="#86cfafa9k" x="83.806" y="770"/><use xlink:href="#86cfafa9l" x="88.186" y="770"/></g><g fill="#b7b7b7"><use xlink:href="#86cfafa9m" x="93.802" y="770"/><use xlink:href="#86cfafa9n" x="96.394" y="770"/><use xlink:href="#86cfafa9o" x="103.114" y="770"/><use xlink:href="#86cfafa9m" x="109.474" y="770"/><use xlink:href="#86cfafa9ax" x="112.066" y="770"/><use xlink:href="#86cfafa9j" x="119.05" y="770"/><use xlink:href="#86cfafa9C" x="125.302" y="770"/><use xlink:href="#86cfafa9af" x="128.398" y="770"/></g><g><use xlink:href="#86cfafa9ay" x="46.835" y="843.33333"/><use xlink:href="#86cfafa9az" x="63.53" y="843.33333"/><use xlink:href="#86cfafa9aA" x="80.435" y="843.33333"/><use xlink:href="#86cfafa9aB" x="97.655" y="843.33333"/></g><g><use xlink:href="#86cfafa9aC" x="103.08" y="843.33333"/><use xlink:href="#86cfafa9aD" x="119.215" y="843.33333"/><use xlink:href="#86cfafa9aE" x="136.05" y="843.33333"/></g><g fill="#b7b7b7"><use xlink:href="#86cfafa9h" x="52.48" y="880"/></g><g fill="#b7b7b7"><use xlink:href="#86cfafa9i" x="59.236" y="880"/></g><g fill="#b7b7b7"><use xlink:href="#86cfafa9j" x="64.804" y="880"/><use xlink:href="#86cfafa9k" x="71.056" y="880"/><use xlink:href="#86cfafa9l" x="75.436" y="880"/></g><g fill="#b7b7b7"><use xlink:href="#86cfafa9m" x="81.052" y="880"/><use xlink:href="#86cfafa9n" x="83.644" y="880"/><use xlink:href="#86cfafa9o" x="90.364" y="880"/><use xlink:href="#86cfafa9m" x="96.724" y="880"/><use xlink:href="#86cfafa9o" x="99.316" y="880"/><use xlink:href="#86cfafa9z" x="105.676" y="880"/><use xlink:href="#86cfafa9A" x="111.316" y="880"/><use xlink:href="#86cfafa9k" x="115.624" y="880"/></g><g fill="#b7b7b7"><use xlink:href="#86cfafa9B" x="119.788" y="880"/><use xlink:href="#86cfafa9ap" x="125.488" y="880"/><use xlink:href="#86cfafa9j" x="131.8" y="880"/><use xlink:href="#86cfafa9C" x="138.052" y="880"/><use xlink:href="#86cfafa9af" x="141.148" y="880"/></g><g><use xlink:href="#86cfafa9aF" x="46.5025" y="953.33333"/><use xlink:href="#86cfafa9aG" x="63.3725" y="953.33333"/><use xlink:href="#86cfafa9aH" x="80.3825" y="953.33333"/><use xlink:href="#86cfafa9aI" x="97.7075" y="953.33333"/></g><g><use xlink:href="#86cfafa9aJ" x="102.9575" y="953.33333"/><use xlink:href="#86cfafa9aK" x="119.1625" y="953.33333"/><use xlink:href="#86cfafa9aL" x="136.2425" y="953.33333"/></g><g fill="#b7b7b7"><use xlink:href="#86cfafa9h" x="63.064" y="990"/></g><g fill="#b7b7b7"><use xlink:href="#86cfafa9i" x="69.82" y="990"/></g><g fill="#b7b7b7"><use xlink:href="#86cfafa9j" x="75.388" y="990"/><use xlink:href="#86cfafa9k" x="81.64" y="990"/><use xlink:href="#86cfafa9l" x="86.02" y="990"/></g><g fill="#b7b7b7"><use xlink:href="#86cfafa9m" x="91.636" y="990"/><use xlink:href="#86cfafa9n" x="94.228" y="990"/><use xlink:href="#86cfafa9o" x="100.948" y="990"/><use xlink:href="#86cfafa9m" x="107.308" y="990"/><use xlink:href="#86cfafa9ax" x="109.9" y="990"/></g><g fill="#b7b7b7"><use xlink:href="#86cfafa9C" x="116.872" y="990"/><use xlink:href="#86cfafa9B" x="119.968" y="990"/><use xlink:href="#86cfafa9aM" x="125.668" y="990"/><use xlink:href="#86cfafa9aN" x="131.02" y="990"/></g></svg>