<?xml version='1.0' encoding='UTF-8'?>
<svg xmlns="http://www.w3.org/2000/svg" xmlns:xlink="http://www.w3.org/1999/xlink" width="600px" height="300px" viewBox="0 0 600 300" x="0px" y="0px" enable-background="new 0 0 600 300"><defs><symbol overflow="visible" id="d7d79358a"><path d="M16.8-45.28c-8.16 0-11.85 4-11.85 11.44 0 8.25 4.9 11.76 9.53 14.25 4.32 2.3 8.4 4.15 8.4 9.18 0 4.64-1.83 6.18-6.08 6.18-4.16 0-5.93-1.77-5.93-6.82v-2.15h-6l-.23 2.56c0 8.16 3.6 11.77 12.16 11.77 8.64 0 12.32-4.08 12.32-11.54 0-8.87-5.84-11.36-10.96-14.07-3.68-2.08-6.88-4.47-6.88-9.2 0-4.48 1.6-6.24 5.52-6.24 4.07 0 5.43 2 5.43 7.84v2.88h6l.18-3.52c0-8.33-3.13-12.56-11.61-12.56zm0 0"/></symbol><symbol overflow="visible" id="d7d79358b"><path d="M19.44-5.2c-3.92 0-5.92-1.44-5.92-6.88v-26.56h8.96v-5.6h-8.96v-11.68h-5.6l-.97 11.69H1.7v5.59h5.36v27.28C7.05-3.2 10.65.41 18.48.41L22.8.16V-5.2zm0 0"/></symbol><symbol overflow="visible" id="d7d79358c"><path d="M23.77-38.4l.54-5.83c-.87-.33-2.08-.57-3.67-.57-4.95 0-7.69 2.96-9.2 5.52l-.96-5.44-5.6.49.89 10.71V0h6.46v-33.28c1.93-3.03 5.05-5.36 8.64-5.36 1.05 0 2 .08 2.9.23zm0 0"/></symbol><symbol overflow="visible" id="d7d79358d"><path d="M22.95-4.88l.97 5.36L29.44 0l-.96-10.88v-21.68c0-8.4-3.36-12.49-11.68-12.49-4.24 0-8 .97-11.36 2.25l1.2 4.96c2.88-.8 6.31-1.6 9.44-1.6 4.87 0 6.15 2.49 6.15 8.31v4.18h-3.82c-8.72 0-14.97 4.15-14.97 14.47C3.44-3.12 7.36.95 13.92.95c5.77 0 7.85-3.9 9.03-5.83zm-4.54-16.96h3.82v11.76c-1.43 2.24-3.59 5.44-7.18 5.44-3.2 0-5.28-2.08-5.28-8.08 0-6.87 3.36-9.12 8.64-9.12zm0 0"/></symbol><symbol overflow="visible" id="d7d79358e"><path d="M24.95-38.64l.1.48-7.46 18.88.57 4.72c6.4 0 8.4 2.72 8.4 10.15 0 7.36-2.97 10.25-8.97 10.25h-2.87v5.29l4.15.3c9.7 0 14.08-4.71 14.08-15.84 0-9.51-3.26-14-9.26-14.87l8.23-19.36-.48-5.6H12.4v-4.56c0-6 .95-9.2 6.07-9.2 1.75 0 4.24.31 5.52.64l.95-5.2a23.59 23.59 0 00-7.36-1.13C9.6-63.69 6-59.13 6-49.13V0h6.4v-38.64zm0 0"/></symbol><symbol overflow="visible" id="d7d79358f"><path d="M29.13-17.77l.3-11.59c0-10.72-3.2-15.92-12.15-15.92-9.12 0-12.72 5.2-12.72 15.6v13.6c0 11.28 3.75 16.4 16 16.4l8-.32v-5.28h-8c-7.92 0-9.68-2.72-9.68-10.8v-1.69zM17.27-39.69c4.72 0 6.08 2.81 6.08 10v6.74H10.88v-6.74c0-7.18 1.53-10 6.4-10zm0 0"/></symbol><symbol overflow="visible" id="d7d79358h"><path d="M19.36-63.69c-9.2 0-13.84 5.2-13.84 15.38 0 21.44 21.6 20.08 21.6 34.15 0 6.88-2.25 9.29-7.76 9.29-5.6 0-7.77-2.57-7.77-9.7v-3.66H5.3l-.24 3.82c0 10.97 4.87 15.54 14.3 15.54 9.52 0 14.5-4.82 14.5-15.29 0-18.64-21.62-16.89-21.62-33.84 0-6.95 1.77-9.6 7.13-9.6 5.52 0 7.12 2.8 7.12 10.96v6.87h6.24l.33-6.87c0-11.77-4.1-17.05-13.7-17.05zm0 0"/></symbol><symbol overflow="visible" id="d7d79358i"><path d="M.95-62.56v6.33h11.36V0h6.81v-56.23h11.36v-6.33zm0 0"/></symbol><symbol overflow="visible" id="d7d79358j"><path d="M6.8-62.56V0h6.72v-20.16h3.53c.72 0 1.43-.07 2.07-.07L28.73 0h7.36L25.52-21.77c6.64-2.8 10.4-9.36 10.4-20.15 0-15.44-6.33-20.64-18.48-20.64zm10.25 36.25h-3.53v-29.92h3.92c8.8 0 11.68 3.1 11.68 14.3 0 10.98-3.43 15.62-12.07 15.62zm0 0"/></symbol><symbol overflow="visible" id="d7d79358k"><path d="M3.2 0H10l2-15.44h14.31l2 15.44h6.82l-8.26-62.56H11.53zm9.52-21.44l4.23-34.97h4.4l4.24 34.97zm0 0"/></symbol><symbol overflow="visible" id="d7d79358l"><path d="M6.8-62.56V0h24.8v-6.23h-18V-25.2h14.8v-6.08H13.6v-24.95h18v-6.33zm0 0"/></symbol><symbol overflow="visible" id="d7d79358m"><path d="M3.83 0v-5.95H6.2v-.82H.45v.82h2.4V0zm0 0"/></symbol><symbol overflow="visible" id="d7d79358n"><path d="M5.75-2.23v-.43c0-1.6-.9-2.51-2.42-2.51S.87-4.16.87-2.48c0 1.71.91 2.62 2.5 2.62 1.43 0 2.07-.56 2.29-1.52l-.9-.09c-.18.61-.59.9-1.35.9-.94 0-1.52-.54-1.58-1.66zm-2.4-2.2c.93 0 1.43.5 1.48 1.55H1.84c.08-1.07.6-1.56 1.5-1.56zm0 0"/></symbol><symbol overflow="visible" id="d7d79358o"><path d="M1.83 0l1.42-2h.06l1.46 2H5.8L4-2.53l1.78-2.49H4.8L3.42-3.08h-.08l-1.4-1.94H.89l1.78 2.49L.84 0zm0 0"/></symbol><symbol overflow="visible" id="d7d79358p"><path d="M5.52-4.25v-.77H3.17v-1.56h-.81l-.14 1.56H.75v.77h1.47v2.4c0 1.3.48 1.94 1.84 1.94C4.6.1 5.14 0 5.55-.14L5.4-.91c-.32.13-.72.2-1.13.2-.8 0-1.1-.37-1.1-1.23v-2.31zm0 0"/></symbol><symbol overflow="visible" id="d7d79358q"><path d="M3.33-3.42c.47 0 .8-.27.8-.8 0-.51-.33-.8-.8-.8-.47 0-.8.29-.8.8 0 .53.33.8.8.8zm0 3.5c.47 0 .8-.27.8-.78 0-.53-.33-.82-.8-.82-.47 0-.8.29-.8.82 0 .51.33.78.8.78zm0 0"/></symbol><symbol overflow="visible" id="d7d79358s"><path d="M3.36.16c1.4 0 2.2-.6 2.2-1.57 0-.89-.54-1.22-1.47-1.39L3-3c-.67-.14-.86-.33-.86-.73 0-.5.4-.74 1.17-.74.83 0 1.19.27 1.27.8l.9-.05c-.12-1-.8-1.47-2.17-1.47-1.34 0-2.1.53-2.1 1.5 0 .81.45 1.22 1.52 1.44l1.04.2c.56.11.87.24.87.72 0 .52-.45.78-1.28.78-.95 0-1.36-.28-1.42-.87l-.9.06C1.07-.36 1.8.16 3.35.16zm0 0"/></symbol><symbol overflow="visible" id="d7d79358t"><path d="M5.08-5.16c-.94 0-1.58.43-1.9 1.3h-.09l-.07-1.16H1.05v.77h1.1v3.48H.96V0h3.96v-.77H3.1v-1.46c0-1.36.6-2.05 1.83-2.05.4 0 .76.08 1.1.17l.15-.87c-.33-.11-.7-.18-1.11-.18zm0 0"/></symbol><symbol overflow="visible" id="d7d79358u"><path d="M2.83.14c.94 0 1.5-.39 1.81-.95h.08l.1.81h.76v-3.38c0-1.23-.69-1.8-2.13-1.8-1.43 0-2.03.65-2.18 1.6l.93.1c.11-.6.44-.93 1.22-.93.85 0 1.22.32 1.22 1.04v.34l-1.81.2C1.6-2.7 1.1-2.17 1.1-1.28c0 .92.64 1.42 1.72 1.42zm.25-.77c-.67 0-1.02-.28-1.02-.74 0-.44.28-.72 1-.82l1.58-.19v.41c0 .8-.6 1.34-1.56 1.34zm0 0"/></symbol><symbol overflow="visible" id="d7d79358v"><path d="M3.77.14c1.3 0 2.14-.6 2.14-2 0-1.33-.97-1.86-1.8-1.89v-.05c.64-.12 1.3-.62 1.3-1.67 0-1.1-.83-1.81-2.13-1.81-1.5 0-2.26.83-2.26 2.53V0h.95v-4.8c0-1.23.37-1.73 1.31-1.73.77 0 1.24.44 1.24 1.14 0 .87-.58 1.31-1.38 1.31h-.17v.75h.22c1.06 0 1.8.36 1.8 1.4 0 1-.54 1.32-1.41 1.32a3.6 3.6 0 01-.86-.1l-.1.7c.38.09.74.15 1.15.15zm0 0"/></symbol><symbol overflow="visible" id="d7d79358w"><path d="M3.42.14c1.61 0 2.56-.75 2.56-2 0-1.1-.67-1.6-1.95-1.86l-.97-.2c-.87-.17-1.23-.49-1.23-1.11 0-.7.54-1.11 1.5-1.11 1.06 0 1.51.34 1.69 1.23l.9-.09c-.17-1.28-.98-1.9-2.6-1.9C1.79-6.9.9-6.18.9-4.98c0 1.06.66 1.66 1.88 1.9l1.01.2c.85.17 1.25.4 1.25 1.09 0 .73-.6 1.16-1.6 1.16-1.07 0-1.66-.4-1.8-1.24l-.94.1C.83-.53 1.75.13 3.42.13zm0 0"/></symbol><symbol overflow="visible" id="d7d79358x"><path d="M4.06-2.77c1.25-.04 1.92-.7 1.92-1.96 0-1.36-.7-2.04-2.17-2.04H.92V0h.97v-2.73h1.08L4.95 0h1.1zM1.9-6h1.7c1.07 0 1.46.34 1.46 1.28 0 .9-.44 1.27-1.47 1.27H1.89zm0 0"/></symbol><symbol overflow="visible" id="d7d79358y"><path d="M6.17 0L3.98-6.77h-1.3L.5 0h.97l.44-1.47h2.78L5.16 0zM3.28-5.94h.08l1.1 3.74H2.15zm0 0"/></symbol><symbol overflow="visible" id="d7d79358z"><path d="M3.9.14c1.41 0 2.16-.67 2.16-1.95 0-1.27-.84-1.77-2.06-1.85l1.69-2.2v-.58c-.7-.31-1.6-.47-2.32-.47C1.78-6.9.9-6.17.9-4.2V0h.92v-4.22c0-1.4.5-1.9 1.53-1.9.43 0 .96.06 1.36.23v.03l-1.62 2.2v.57c1.44 0 2.06.34 2.06 1.26 0 .86-.56 1.2-1.39 1.2-.38 0-.81-.06-1.1-.14l-.1.74c.36.1.9.17 1.36.17zm0 0"/></symbol><symbol overflow="visible" id="d7d79358A"><path d="M5.92-6.77H1.1V0h4.83v-.8H2.06v-2.26h3.22v-.75H2.06v-2.16h3.86zm0 0"/></symbol><symbol overflow="visible" id="d7d79358B"><path d="M5.95-6.77H1.1V0h.99v-2.92H5.3v-.77H2.08v-2.26h3.87zm0 0"/></symbol><symbol overflow="visible" id="d7d79358C"><path d="M2.73.14c.9 0 1.43-.45 1.74-1.08h.06l.13.94h.8v-5.02h-.94v2.7c0 .98-.57 1.62-1.46 1.62-.75 0-1.1-.4-1.1-1.22v-3.1h-.93v3.32c0 1.17.55 1.84 1.7 1.84zm0 0"/></symbol><symbol overflow="visible" id="d7d79358D"><path d="M3.33.14c1.9 0 2.76-1.27 2.76-3.52 0-2.26-.86-3.53-2.76-3.53S.58-5.64.58-3.37c0 2.25.86 3.51 2.75 3.51zM3.3-.67c-1.25 0-1.73-.95-1.73-2.7 0-1.77.5-2.72 1.75-2.72s1.75.95 1.75 2.71c0 1.75-.5 2.7-1.77 2.7zm0 0"/></symbol><symbol overflow="visible" id="d7d79358E"><path d="M3.92-7.14H1.36v.76h1.6v5.61H1.15V0H5.7v-.77H3.92zm0 0"/></symbol><symbol overflow="visible" id="d7d79358F"><path d="M2.84.14C3.8.14 4.33-.26 4.6-.9h.07L4.8 0h.76v-7.14h-.95v2.95h-.08c-.28-.6-.86-.97-1.67-.97-1.48 0-2.27.99-2.27 2.64C.6-.84 1.36.14 2.84.14zm.22-.8c-.98 0-1.48-.59-1.48-1.84s.5-1.86 1.48-1.86c1.13 0 1.58.8 1.58 1.86S4.2-.66 3.06-.66zm0 0"/></symbol><symbol overflow="visible" id="d7d79358G"><path d="M5.33-2.2v-.75h-4v.75zm0 0"/></symbol><symbol overflow="visible" id="d7d79358H"><path d="M3.33.14c1.62 0 2.5-.95 2.5-2.66 0-1.68-.88-2.64-2.5-2.64-1.63 0-2.5.96-2.5 2.64 0 1.7.87 2.66 2.5 2.66zm0-.77c-1.06 0-1.52-.6-1.52-1.89 0-1.28.46-1.87 1.52-1.87 1.08 0 1.53.6 1.53 1.87 0 1.29-.45 1.9-1.53 1.9zm0 0"/></symbol><symbol overflow="visible" id="d7d79358I"><path d="M2.16 0v-2.69c0-.98.6-1.6 1.46-1.6.74 0 1.07.4 1.07 1.2V0h.95v-3.31c0-1.17-.56-1.85-1.67-1.85-.9 0-1.44.46-1.75 1.08h-.06v-3.06H1.2V0zm0 0"/></symbol><symbol overflow="visible" id="d7d79358J"><path d="M3.16 2.03c1.67 0 2.4-.86 2.4-2.51v-4.54h-.81l-.13.91h-.06c-.26-.58-.8-1.05-1.73-1.05-1.42 0-2.24 1-2.24 2.52 0 1.6.75 2.56 2.2 2.56.94 0 1.5-.5 1.77-1.03h.05v.72c0 1.17-.42 1.67-1.45 1.67-.93 0-1.3-.34-1.41-.89L.8.5c.12.96.87 1.54 2.36 1.54zM3.06-.8c-.98 0-1.48-.57-1.48-1.82 0-1.13.5-1.75 1.48-1.75 1.06 0 1.58.76 1.58 1.75 0 .95-.56 1.82-1.58 1.82zm0 0"/></symbol><symbol overflow="visible" id="d7d79358K"><path d="M2.06 1.9V-.84h.05c.28.58.8.97 1.77.97 1.5 0 2.2-.98 2.2-2.66 0-1.65-.7-2.64-2.19-2.64-.97 0-1.5.44-1.78 1.05h-.08l-.1-.9H1.1v6.9zm1.5-2.56c-1.06 0-1.53-.8-1.53-1.86 0-1.04.47-1.84 1.53-1.84 1.11 0 1.53.61 1.53 1.84 0 1.27-.42 1.86-1.53 1.86zm0 0"/></symbol><symbol overflow="visible" id="d7d79358L"><path d="M3.42-.86h-.08L1.77-5.02H.8L2.73 0h.41c-.33.95-.72 1.27-1.45 1.27-.22 0-.49-.04-.69-.08l-.1.73c.2.06.58.11.87.11 1.2 0 1.7-.7 2.21-2.03l1.94-5.02H5zm0 0"/></symbol><symbol overflow="visible" id="d7d79358M"><path d="M3.34.14c1.43 0 2.13-.66 2.25-1.78l-.89-.1c-.1.7-.5 1.08-1.34 1.08-1.03 0-1.52-.64-1.52-1.84 0-1.23.47-1.86 1.52-1.86.84 0 1.23.36 1.34 1.08l.9-.1c-.13-1.09-.82-1.78-2.26-1.78-1.56 0-2.46.97-2.46 2.66 0 1.66.9 2.64 2.46 2.64zm0 0"/></symbol><symbol overflow="visible" id="d7d79358N"><path d="M3.58-5.81c.42 0 .72-.22.72-.67 0-.44-.3-.68-.72-.68-.44 0-.72.24-.72.68 0 .45.28.67.72.67zm.5.8H1.52v.76h1.6v3.48h-1.8V0h4.46v-.77h-1.7zm0 0"/></symbol><symbol overflow="visible" id="d7d79358O"><path d="M2.16 0v-2.67c0-.99.59-1.63 1.46-1.63.74 0 1.07.38 1.07 1.22V0h.95v-3.31c0-1.2-.56-1.85-1.67-1.85-.92 0-1.49.46-1.77 1.08h-.06l-.12-.94H1.2V0zm0 0"/></symbol><symbol overflow="visible" id="d7d79358P"><path d="M4.63-6.5c.45 0 .98.08 1.39.2l.2-.72a5.3 5.3 0 00-1.64-.26c-1.52 0-2.16.56-2.16 1.87v.4H.9v.76h1.53V0h.94v-4.25h2.53v-.77H3.36v-.3c0-.84.33-1.18 1.27-1.18zm0 0"/></symbol><symbol overflow="visible" id="d7d79358Q"><path d="M3.55-2.73h1.67C5.09-1.45 4.58-.64 3.36-.64c-1.25 0-1.78-1.03-1.78-2.73 0-1.77.53-2.72 1.81-2.72.9 0 1.47.45 1.69 1.43l.95-.09C5.8-6 5.11-6.91 3.41-6.91 1.44-6.9.58-5.59.58-3.37.58-1.2 1.4.13 3.14.13c1.3 0 1.78-.73 2-1.36h.1L5.33 0h.75v-3.42H3.55zm0 0"/></symbol><symbol overflow="visible" id="d7d79358R"><path d="M1.63 0v-2.9c0-.8.15-1.4.71-1.4.41 0 .55.3.55.88V0h.95v-2.9c0-.8.18-1.4.72-1.4.4 0 .57.3.57.88V0h.95v-3.63c0-.92-.28-1.53-1.11-1.53-.63 0-.95.41-1.1.9h-.06c-.1-.52-.44-.9-1.08-.9-.6 0-.93.41-1.06.9H1.6l-.23-.76H.67V0zm0 0"/></symbol><symbol overflow="visible" id="d7d79358S"><path d="M5.55 0v-.75H2.3v-.06l3.2-3.49v-.72H1.2v.75H4.3v.07L1.11-.72V0zm0 0"/></symbol><symbol overflow="visible" id="d7d79358T"><path d="M1.45-2.95c0 2.56 1.08 4.37 3.67 4.84l.11-.67C3.28.86 2.43-.75 2.43-2.95s.85-3.82 2.8-4.16l-.1-.69c-2.6.49-3.68 2.3-3.68 4.85zm0 0"/></symbol><symbol overflow="visible" id="d7d79358U"><path d="M4.22-6.77h-.86l-2.03.7v.87c.64-.17 1.26-.38 1.89-.55v4.9H1.03V0h4.9v-.86H4.21zm0 0"/></symbol><symbol overflow="visible" id="d7d79358V"><path d="M3.42.14c1.55 0 2.44-.84 2.44-2.33 0-1.45-.83-2.22-2.14-2.22-.75 0-1.28.27-1.67.72H2l.31-2.22h3.11v-.86H1.53l-.45 3.93h.81c.3-.36.9-.79 1.58-.79.92 0 1.44.43 1.44 1.47 0 .99-.54 1.5-1.49 1.5-.83 0-1.28-.32-1.5-1.01l-.95.1C1.07-.46 2 .13 3.42.13zm0 0"/></symbol><symbol overflow="visible" id="d7d79358W"><path d="M1.45-7.1c1.96.33 2.8 1.94 2.8 4.15 0 2.2-.84 3.8-2.8 4.17l.11.67c2.58-.47 3.67-2.28 3.67-4.84 0-2.55-1.09-4.36-3.67-4.85zm0 0"/></symbol></defs><g fill="#515151"><use xlink:href="#d7d79358a" x="68.4" y="163"/><use xlink:href="#d7d79358b" x="101.36" y="163"/><use xlink:href="#d7d79358c" x="126" y="163"/></g><g fill="#515151"><use xlink:href="#d7d79358d" x="150.16" y="163"/><use xlink:href="#d7d79358e" x="184.08" y="163"/><use xlink:href="#d7d79358f" x="220.24" y="163"/><use xlink:href="#d7d79358g" x="254" y="163"/><use xlink:href="#d7d79358h" x="268.16" y="163"/><use xlink:href="#d7d79358i" x="307.04" y="163"/><use xlink:href="#d7d79358j" x="338.48" y="163"/><use xlink:href="#d7d79358k" x="379.28" y="163"/></g><g fill="#fff"><use xlink:href="#d7d79358h" x="417.6" y="163"/><use xlink:href="#d7d79358h" x="456.48" y="163"/></g><use xlink:href="#d7d79358l" x="495.36" y="163" fill="#515151"/><g fill="#fff"><use xlink:href="#d7d79358m" x="236.6667" y="252"/><use xlink:href="#d7d79358n" x="243.3337" y="252"/><use xlink:href="#d7d79358o" x="250.0007" y="252"/><use xlink:href="#d7d79358p" x="256.6677" y="252"/><use xlink:href="#d7d79358q" x="263.3347" y="252"/><use xlink:href="#d7d79358r" x="270.0017" y="252"/><use xlink:href="#d7d79358s" x="276.6687" y="252"/><use xlink:href="#d7d79358p" x="283.3357" y="252"/><use xlink:href="#d7d79358t" x="290.0027" y="252"/><use xlink:href="#d7d79358u" x="296.6697" y="252"/><use xlink:href="#d7d79358v" x="303.3367" y="252"/><use xlink:href="#d7d79358n" x="310.0037" y="252"/><use xlink:href="#d7d79358r" x="316.6707" y="252"/><use xlink:href="#d7d79358w" x="323.3377" y="252"/><use xlink:href="#d7d79358m" x="330.0047" y="252"/><use xlink:href="#d7d79358x" x="336.6717" y="252"/><use xlink:href="#d7d79358y" x="343.3387" y="252"/><use xlink:href="#d7d79358z" x="350.0057" y="252"/><use xlink:href="#d7d79358A" x="356.6727" y="252"/></g><g fill="#fff"><use xlink:href="#d7d79358B" x="113.3333" y="266"/><use xlink:href="#d7d79358n" x="120.0003" y="266"/><use xlink:href="#d7d79358u" x="126.6673" y="266"/><use xlink:href="#d7d79358p" x="133.3343" y="266"/><use xlink:href="#d7d79358C" x="140.0013" y="266"/><use xlink:href="#d7d79358t" x="146.6683" y="266"/><use xlink:href="#d7d79358n" x="153.3353" y="266"/><use xlink:href="#d7d79358q" x="160.0023" y="266"/><use xlink:href="#d7d79358r" x="166.6693" y="266"/><use xlink:href="#d7d79358D" x="173.3363" y="266"/><use xlink:href="#d7d79358E" x="180.0033" y="266"/><use xlink:href="#d7d79358F" x="186.6703" y="266"/><use xlink:href="#d7d79358G" x="193.3373" y="266"/><use xlink:href="#d7d79358H" x="200.0043" y="266"/><use xlink:href="#d7d79358t" x="206.6713" y="266"/><use xlink:href="#d7d79358p" x="213.3383" y="266"/><use xlink:href="#d7d79358I" x="220.0053" y="266"/><use xlink:href="#d7d79358H" x="226.6723" y="266"/><use xlink:href="#d7d79358J" x="233.3393" y="266"/><use xlink:href="#d7d79358t" x="240.0063" y="266"/><use xlink:href="#d7d79358u" x="246.6733" y="266"/><use xlink:href="#d7d79358K" x="253.3403" y="266"/><use xlink:href="#d7d79358I" x="260.0073" y="266"/><use xlink:href="#d7d79358L" x="266.6743" y="266"/><use xlink:href="#d7d79358r" x="273.3413" y="266"/><use xlink:href="#d7d79358M" x="280.0083" y="266"/><use xlink:href="#d7d79358u" x="286.6753" y="266"/><use xlink:href="#d7d79358s" x="293.3423" y="266"/><use xlink:href="#d7d79358N" x="300.0093" y="266"/><use xlink:href="#d7d79358O" x="306.6763" y="266"/><use xlink:href="#d7d79358J" x="313.3433" y="266"/><use xlink:href="#d7d79358r" x="320.0103" y="266"/><use xlink:href="#d7d79358P" x="326.6773" y="266"/><use xlink:href="#d7d79358H" x="333.3443" y="266"/><use xlink:href="#d7d79358t" x="340.0113" y="266"/><use xlink:href="#d7d79358r" x="346.6783" y="266"/><use xlink:href="#d7d79358Q" x="353.3453" y="266"/><use xlink:href="#d7d79358n" x="360.0123" y="266"/><use xlink:href="#d7d79358t" x="366.6793" y="266"/><use xlink:href="#d7d79358R" x="373.3463" y="266"/><use xlink:href="#d7d79358u" x="380.0133" y="266"/><use xlink:href="#d7d79358O" x="386.6803" y="266"/><use xlink:href="#d7d79358r" x="393.3473" y="266"/><use xlink:href="#d7d79358n" x="400.0143" y="266"/><use xlink:href="#d7d79358s" x="406.6813" y="266"/><use xlink:href="#d7d79358S" x="413.3483" y="266"/><use xlink:href="#d7d79358n" x="420.0153" y="266"/><use xlink:href="#d7d79358p" x="426.6823" y="266"/><use xlink:href="#d7d79358p" x="433.3493" y="266"/><use xlink:href="#d7d79358r" x="440.0163" y="266"/><use xlink:href="#d7d79358T" x="446.6833" y="266"/><use xlink:href="#d7d79358s" x="453.3503" y="266"/><use xlink:href="#d7d79358s" x="460.0173" y="266"/><use xlink:href="#d7d79358U" x="466.6843" y="266"/><use xlink:href="#d7d79358V" x="473.3513" y="266"/><use xlink:href="#d7d79358W" x="480.0183" y="266"/></g></svg>