<?xml version='1.0' encoding='UTF-8'?>
<svg xmlns="http://www.w3.org/2000/svg" xmlns:xlink="http://www.w3.org/1999/xlink" width="600px" height="300px" viewBox="0 0 600 300" x="0px" y="0px" enable-background="new 0 0 600 300"><defs><symbol overflow="visible" id="9d199f1ca"><path d="M31.92-62.56v34.15l.88 21.85h-1.52l-3.36-16.16L17.7-62.56H6.79V0h6.5v-35.84L12.3-56h1.53l3.04 14L27.44 0H38.4v-62.56zm0 0"/></symbol><symbol overflow="visible" id="9d199f1cb"><path d="M4.56-14.88C4.56-4 8.56.96 17.36.96S30.16-4 30.16-14.87v-14.57c0-10.97-4-15.84-12.8-15.84s-12.8 4.87-12.8 15.84zm6.4 0v-14.56c0-7.36 1.52-10.25 6.4-10.25 5.05 0 6.48 2.9 6.48 10.25v14.57c0 7.35-1.43 10.23-6.48 10.23-4.88 0-6.4-2.88-6.4-10.23zm0 0"/></symbol><symbol overflow="visible" id="9d199f1cc"><path d="M7.6.48c2.48 0 4.17-1.43 4.17-4.48 0-2.95-1.7-4.48-4.18-4.48-2.54 0-4.23 1.53-4.23 4.48C3.36-.95 5.05.48 7.59.48zm0 0"/></symbol><symbol overflow="visible" id="9d199f1ce"><path d="M2.23-46.31h6.72V0h6.64v-52.23H2.23zm0 0"/></symbol><symbol overflow="visible" id="9d199f1cf"><path d="M5.05-17.36C5.05-4.8 8.95 1.12 18.4 1.12c9.28 0 13.28-5.92 13.28-18.48V-34.8c0-12.64-3.92-18.48-13.2-18.48-9.44 0-13.44 5.84-13.44 18.48zm6 0l.23-17.44c0-9.12 1.85-12.64 7.13-12.64 2.23 0 3.9.56 5.03 1.92l-8.08 20.88-4.16 11.69a72.5 72.5 0 01-.15-4.4zM21.69-28l3.83-10.88c.07 1.2.17 2.57.17 4.08l-.17 17.44c-.08 9.05-2 12.56-7.11 12.56-2.25 0-3.85-.56-4.97-1.84zm0 0"/></symbol><symbol overflow="visible" id="9d199f1cg"><path d="M3.83 0v-5.95H6.2v-.82H.45v.82h2.4V0zm0 0"/></symbol><symbol overflow="visible" id="9d199f1ch"><path d="M5.75-2.23v-.43c0-1.6-.9-2.51-2.42-2.51S.87-4.16.87-2.48c0 1.71.91 2.62 2.5 2.62 1.43 0 2.07-.56 2.29-1.52l-.9-.09c-.18.61-.59.9-1.35.9-.94 0-1.52-.54-1.58-1.66zm-2.4-2.2c.93 0 1.43.5 1.48 1.55H1.84c.08-1.07.6-1.56 1.5-1.56zm0 0"/></symbol><symbol overflow="visible" id="9d199f1ci"><path d="M1.83 0l1.42-2h.06l1.46 2H5.8L4-2.53l1.78-2.49H4.8L3.42-3.08h-.08l-1.4-1.94H.89l1.78 2.49L.84 0zm0 0"/></symbol><symbol overflow="visible" id="9d199f1cj"><path d="M5.52-4.25v-.77H3.17v-1.56h-.81l-.14 1.56H.75v.77h1.47v2.4c0 1.3.48 1.94 1.84 1.94C4.6.1 5.14 0 5.55-.14L5.4-.91c-.32.13-.72.2-1.13.2-.8 0-1.1-.37-1.1-1.23v-2.31zm0 0"/></symbol><symbol overflow="visible" id="9d199f1ck"><path d="M3.33-3.42c.47 0 .8-.27.8-.8 0-.51-.33-.8-.8-.8-.47 0-.8.29-.8.8 0 .53.33.8.8.8zm0 3.5c.47 0 .8-.27.8-.78 0-.53-.33-.82-.8-.82-.47 0-.8.29-.8.82 0 .51.33.78.8.78zm0 0"/></symbol><symbol overflow="visible" id="9d199f1cm"><path d="M1.84 0v-4.48l-.06-.99h.1L4.46 0h1.28v-6.77h-.92v4.4l.06 1.03h-.1L2.21-6.77H.92V0zm0 0"/></symbol><symbol overflow="visible" id="9d199f1cn"><path d="M3.33.14c1.62 0 2.5-.95 2.5-2.66 0-1.68-.88-2.64-2.5-2.64-1.63 0-2.5.96-2.5 2.64 0 1.7.87 2.66 2.5 2.66zm0-.77c-1.06 0-1.52-.6-1.52-1.89 0-1.28.46-1.87 1.52-1.87 1.08 0 1.53.6 1.53 1.87 0 1.29-.45 1.9-1.53 1.9zm0 0"/></symbol><symbol overflow="visible" id="9d199f1co"><path d="M3.33.08c.51 0 .83-.27.83-.81 0-.57-.32-.82-.83-.82-.52 0-.81.25-.81.82 0 .54.3.8.8.8zm0 0"/></symbol><symbol overflow="visible" id="9d199f1cp"><path d="M4.22-6.77h-.86l-2.03.7v.87c.64-.17 1.26-.38 1.89-.55v4.9H1.03V0h4.9v-.86H4.21zm0 0"/></symbol><symbol overflow="visible" id="9d199f1cq"><path d="M3.33.14c1.65 0 2.6-1.1 2.6-3.52S4.99-6.9 3.34-6.9C1.67-6.9.72-5.8.72-3.37c0 2.4.95 3.51 2.6 3.51zm0-.84c-1.13 0-1.6-.85-1.6-2.67 0-1.86.47-2.7 1.6-2.7 1.12 0 1.6.84 1.6 2.7 0 1.82-.48 2.67-1.6 2.67zM3.3-2.64c.38 0 .56-.28.56-.72 0-.44-.18-.7-.56-.7-.39 0-.56.26-.56.7 0 .44.17.72.56.72zm0 0"/></symbol><symbol overflow="visible" id="9d199f1cr"><path d="M5.95-6.77H1.1V0h.99v-2.92H5.3v-.77H2.08v-2.26h3.87zm0 0"/></symbol><symbol overflow="visible" id="9d199f1cs"><path d="M2.83.14c.94 0 1.5-.39 1.81-.95h.08l.1.81h.76v-3.38c0-1.23-.69-1.8-2.13-1.8-1.43 0-2.03.65-2.18 1.6l.93.1c.11-.6.44-.93 1.22-.93.85 0 1.22.32 1.22 1.04v.34l-1.81.2C1.6-2.7 1.1-2.17 1.1-1.28c0 .92.64 1.42 1.72 1.42zm.25-.77c-.67 0-1.02-.28-1.02-.74 0-.44.28-.72 1-.82l1.58-.19v.41c0 .8-.6 1.34-1.56 1.34zm0 0"/></symbol><symbol overflow="visible" id="9d199f1ct"><path d="M2.73.14c.9 0 1.43-.45 1.74-1.08h.06l.13.94h.8v-5.02h-.94v2.7c0 .98-.57 1.62-1.46 1.62-.75 0-1.1-.4-1.1-1.22v-3.1h-.93v3.32c0 1.17.55 1.84 1.7 1.84zm0 0"/></symbol><symbol overflow="visible" id="9d199f1cu"><path d="M5.08-5.16c-.94 0-1.58.43-1.9 1.3h-.09l-.07-1.16H1.05v.77h1.1v3.48H.96V0h3.96v-.77H3.1v-1.46c0-1.36.6-2.05 1.83-2.05.4 0 .76.08 1.1.17l.15-.87c-.33-.11-.7-.18-1.11-.18zm0 0"/></symbol><symbol overflow="visible" id="9d199f1cv"><path d="M3.42.14c1.61 0 2.56-.75 2.56-2 0-1.1-.67-1.6-1.95-1.86l-.97-.2c-.87-.17-1.23-.49-1.23-1.11 0-.7.54-1.11 1.5-1.11 1.06 0 1.51.34 1.69 1.23l.9-.09c-.17-1.28-.98-1.9-2.6-1.9C1.79-6.9.9-6.18.9-4.98c0 1.06.66 1.66 1.88 1.9l1.01.2c.85.17 1.25.4 1.25 1.09 0 .73-.6 1.16-1.6 1.16-1.07 0-1.66-.4-1.8-1.24l-.94.1C.83-.53 1.75.13 3.42.13zm0 0"/></symbol><symbol overflow="visible" id="9d199f1cw"><path d="M3.92-7.14H1.36v.76h1.6v5.61H1.15V0H5.7v-.77H3.92zm0 0"/></symbol><symbol overflow="visible" id="9d199f1cx"><path d="M3.36.16c1.4 0 2.2-.6 2.2-1.57 0-.89-.54-1.22-1.47-1.39L3-3c-.67-.14-.86-.33-.86-.73 0-.5.4-.74 1.17-.74.83 0 1.19.27 1.27.8l.9-.05c-.12-1-.8-1.47-2.17-1.47-1.34 0-2.1.53-2.1 1.5 0 .81.45 1.22 1.52 1.44l1.04.2c.56.11.87.24.87.72 0 .52-.45.78-1.28.78-.95 0-1.36-.28-1.42-.87l-.9.06C1.07-.36 1.8.16 3.35.16zm0 0"/></symbol><symbol overflow="visible" id="9d199f1cy"><path d="M2.16 0v-2.69c0-.98.6-1.6 1.46-1.6.74 0 1.07.4 1.07 1.2V0h.95v-3.31c0-1.17-.56-1.85-1.67-1.85-.9 0-1.44.46-1.75 1.08h-.06v-3.06H1.2V0zm0 0"/></symbol><symbol overflow="visible" id="9d199f1cz"><path d="M2.84.14C3.8.14 4.33-.26 4.6-.9h.07L4.8 0h.76v-7.14h-.95v2.95h-.08c-.28-.6-.86-.97-1.67-.97-1.48 0-2.27.99-2.27 2.64C.6-.84 1.36.14 2.84.14zm.22-.8c-.98 0-1.48-.59-1.48-1.84s.5-1.86 1.48-1.86c1.13 0 1.58.8 1.58 1.86S4.2-.66 3.06-.66zm0 0"/></symbol><symbol overflow="visible" id="9d199f1cA"><path d="M5.55 0v-.75H2.3v-.06l3.2-3.49v-.72H1.2v.75H4.3v.07L1.11-.72V0zm0 0"/></symbol><symbol overflow="visible" id="9d199f1cB"><path d="M1.45-2.95c0 2.56 1.08 4.37 3.67 4.84l.11-.67C3.28.86 2.43-.75 2.43-2.95s.85-3.82 2.8-4.16l-.1-.69c-2.6.49-3.68 2.3-3.68 4.85zm0 0"/></symbol><symbol overflow="visible" id="9d199f1cC"><path d="M1.45-7.1c1.96.33 2.8 1.94 2.8 4.15 0 2.2-.84 3.8-2.8 4.17l.11.67c2.58-.47 3.67-2.28 3.67-4.84 0-2.55-1.09-4.36-3.67-4.85zm0 0"/></symbol></defs><g fill="#515151"><use xlink:href="#9d199f1ca" x="197.64" y="163"/><use xlink:href="#9d199f1cb" x="242.76" y="163"/><use xlink:href="#9d199f1cc" x="277.56" y="163"/><use xlink:href="#9d199f1cd" x="292.68" y="163"/><use xlink:href="#9d199f1ce" x="306.84" y="163"/></g><use xlink:href="#9d199f1cf" x="328.92" y="163" fill="#fff"/><use xlink:href="#9d199f1cf" x="365.64" y="163" fill="#fff"/><g fill="#fff"><use xlink:href="#9d199f1cg" x="256.6667" y="252"/><use xlink:href="#9d199f1ch" x="263.3337" y="252"/><use xlink:href="#9d199f1ci" x="270.0007" y="252"/><use xlink:href="#9d199f1cj" x="276.6677" y="252"/><use xlink:href="#9d199f1ck" x="283.3347" y="252"/><use xlink:href="#9d199f1cl" x="290.0017" y="252"/><use xlink:href="#9d199f1cm" x="296.6687" y="252"/><use xlink:href="#9d199f1cn" x="303.3357" y="252"/><use xlink:href="#9d199f1co" x="310.0027" y="252"/><use xlink:href="#9d199f1cl" x="316.6697" y="252"/><use xlink:href="#9d199f1cp" x="323.3367" y="252"/><use xlink:href="#9d199f1cq" x="330.0037" y="252"/><use xlink:href="#9d199f1cq" x="336.6707" y="252"/></g><g fill="#fff"><use xlink:href="#9d199f1cr" x="206.6667" y="266"/><use xlink:href="#9d199f1ch" x="213.3337" y="266"/><use xlink:href="#9d199f1cs" x="220.0007" y="266"/><use xlink:href="#9d199f1cj" x="226.6677" y="266"/><use xlink:href="#9d199f1ct" x="233.3347" y="266"/><use xlink:href="#9d199f1cu" x="240.0017" y="266"/><use xlink:href="#9d199f1ch" x="246.6687" y="266"/><use xlink:href="#9d199f1ck" x="253.3357" y="266"/><use xlink:href="#9d199f1cl" x="260.0027" y="266"/><use xlink:href="#9d199f1cv" x="266.6697" y="266"/><use xlink:href="#9d199f1cw" x="273.3367" y="266"/><use xlink:href="#9d199f1cs" x="280.0037" y="266"/><use xlink:href="#9d199f1cx" x="286.6707" y="266"/><use xlink:href="#9d199f1cy" x="293.3377" y="266"/><use xlink:href="#9d199f1ch" x="300.0047" y="266"/><use xlink:href="#9d199f1cz" x="306.6717" y="266"/><use xlink:href="#9d199f1cl" x="313.3387" y="266"/><use xlink:href="#9d199f1cA" x="320.0057" y="266"/><use xlink:href="#9d199f1ch" x="326.6727" y="266"/><use xlink:href="#9d199f1cu" x="333.3397" y="266"/><use xlink:href="#9d199f1cn" x="340.0067" y="266"/><use xlink:href="#9d199f1cl" x="346.6737" y="266"/><use xlink:href="#9d199f1cB" x="353.3407" y="266"/><use xlink:href="#9d199f1cA" x="360.0077" y="266"/><use xlink:href="#9d199f1ch" x="366.6747" y="266"/><use xlink:href="#9d199f1cu" x="373.3417" y="266"/><use xlink:href="#9d199f1cn" x="380.0087" y="266"/><use xlink:href="#9d199f1cC" x="386.6757" y="266"/></g></svg>