<svg xmlns="http://www.w3.org/2000/svg" xmlns:xlink="http://www.w3.org/1999/xlink" width="1600pt" height="3200" viewBox="0 0 1600 2400"><defs><symbol overflow="visible" id="a"><path d="M34.563-46.875C38.874-33.281 41.922-17.281 41.922-4c0 20-7.844 28.484-22.406 28.484-5.11 0-10.391-1.125-14.391-2.718l-3.36 8.953c4.954 2.718 12.641 4.797 20.313 4.797 18.875 0 31.047-12.641 31.047-39.672 0-15.532-3.36-32.485-7.844-45.125zm0 0"/></symbol><symbol overflow="visible" id="b"><path d="M12.953-115.516L13.281 0h2.406l8.797-2.078v-115.36zm0 0"/></symbol><symbol overflow="visible" id="c"><path d="M27.844 35.516c19.515 0 32.64-11.36 34.39-35.516h4.813c2.547 0 4.156-2.406 4.156-6.234 0-4-1.766-6.25-4.156-6.25h-4.813c-.953-25.438-11.03-41.75-28-41.75C20.156-54.234 9.766-42.406 9.766-28c0 16.953 12 27.047 42.078 28-1.282 16.797-10.407 24.484-27.047 24.484-5.594 0-10.563-1.125-14.563-2.718l-3.359 8.953c4.969 2.718 13.125 4.797 20.969 4.797zm17.75-48c-20-.797-26.235-5.922-26.235-15.829 0-8.812 6.407-15.203 14.407-15.203 9.75 0 17.109 9.594 18.234 31.36zm0 0"/></symbol><symbol overflow="visible" id="d"><path d="M65.438-47.688c10.078 0 18.718 9.61 18.718 19.844 0 9.125-8.312 15.36-37.594 15.36H26.407C34.563-32 50.875-47.687 65.438-47.687zM-.156 0h45.593c32 0 48.97-9.125 48.97-28 0-16.484-12.97-31.516-28.329-31.516-16.156 0-32.64 13.438-42.39 35.032v-92.953L12-115.516l1.766 103.032H-.156c-2.25 0-4 2.25-4 6.25 0 3.828 1.593 6.234 4 6.234zm0 0"/></symbol><symbol overflow="visible" id="e"><path d="M77.766-115.203l.312 72.797c.156 22.89-8.156 30.093-37.125 30.093H7.203L8.953.158h36.172c32.313 0 43.828-13.75 43.828-38.72v-78.39zM14.875-99.687l39.531 73.921h2.719l7.031-3.828-38.39-75.844zm-12.469-9.11c11.36-1.922 23.828-3.36 35.032-3.844v-6.718c-8.157.156-16 .953-23.516 2.078-1.281-1.594-2.078-3.844-2.078-6.235 0-5.437 3.672-8.484 8.469-8.484 3.375 0 6.093 1.766 8.64 4.797l4.328-3.516c-3.047-4.797-7.36-8.484-13.593-8.484-7.844 0-14.25 5.766-14.25 13.922 0 3.687 1.125 6.719 2.718 8.797-1.922.328-3.844.796-5.75 1.125zm0 0"/></symbol><symbol overflow="visible" id="g"><path d="M9.922-35.047c0 24.484 12.484 37.281 52.156 37.281 24.484 0 41.61-5.437 52.64-15.359C119.36-3.515 127.517 0 138.876 0h4c2.563 0 4.172-2.406 4.172-6.234 0-4-1.766-6.25-4.172-6.25H140c-12.797 0-17.438-3.672-19.516-19.36l-2.25-16.312-10.718 1.75 3.53 23.203c-10.25 8.328-24.64 12.969-46.734 12.969-34.234 0-42.874-6.891-42.874-27.047a55.19 55.19 0 0 1 1.921-14.563l-10.234-1.75c-1.766 4.797-3.203 11.032-3.203 18.547zm67.203 54.094c-3.36-3.203-8.484-6.563-12.328-8.64l-7.36 10.546c3.844 2.25 8.641 5.766 12 8.64zm0 0"/></symbol><symbol overflow="visible" id="h"><path d="M17.438-60.313c4 10.235 6.562 20.47 6.562 29.907 0 12.484-5.766 17.922-20.64 17.922H0c-2.563 0-4.156 2.406-4.156 6.078C-4.156-2.563-2.563 0 0 0h4.953c18.735 0 30.563-9.594 30.563-30.719 0-11.515-3.36-24.156-7.36-32.968zm22.406 79.36c-3.047-3.047-8-6.25-11.688-8.172l-6.875 10.078c3.516 2.094 8.157 5.453 11.36 8.172zm-18.563 0c-3.047-3.047-8-6.25-11.687-8.172L2.719 20.953c3.515 2.094 8.156 5.453 11.36 8.172zm0 0"/></symbol><symbol overflow="visible" id="i"><path d="M22.078 35.516c18.406 0 30.875-13.75 30.875-35.516 0-2.406-.156-4.953-.469-6.719C56.156-2.406 61.922 0 70.234 0c3.047 0 4.172-2.406 4.172-6.234 0-4-1.281-6.25-4.172-6.25-10.546 0-15.359-3.516-19.187-15.032l-1.766-4.968-10.406 2.078c1.922 9.61 3.047 19.047 3.047 26.89 0 19.36-8 28-22.406 28-4.953 0-10.391-1.125-14.391-2.718l-3.36 8.953c4.954 2.718 12.641 4.797 20.313 4.797zm0 0"/></symbol><symbol overflow="visible" id="j"><path d="M43.844-12.484c-17.125 0-24.485-8.47-24.485-20.47 0-13.124 9.125-21.921 21.766-21.921 8.156 0 14.234 3.672 20 10.719L68-50.563c-6.719-9.75-16.64-15.359-27.844-15.359-17.75 0-31.031 13.438-31.031 30.875 0 10.094 4.313 17.922 9.594 22.563H0c-3.047 0-4.156 1.765-4.156 5.765C-4.156-2.562-3.046 0 0 0h27.047c24.312 0 38.719-2.406 53.437-8.484l-3.046-9.594c-11.516 4-24.797 5.594-33.594 5.594zm.64-72c-3.359-3.204-8.484-6.563-12.328-8.641l-7.36 10.563c3.845 2.25 8.642 5.765 12 8.64zm0 0"/></symbol><symbol overflow="visible" id="k"><path d="M103.688 0h7.187c2.89 0 4.172-2.234 4.172-6.234s-1.281-6.25-4.172-6.25h-8.156c-12.797 0-19.031-4.47-19.516-22.235 4.156-.484 8.484-.797 12.953-.968l1.438-10.72c-11.828 0-15.516-1.28-30.235-7.515-13.593-5.922-20.156-8.64-29.921-8.64-10.876 0-19.204 3.359-26.079 7.687l4.329 8.797c6.874-3.047 13.265-5.281 21.437-5.281 8 0 15.36 2.078 32.797 9.922v.484C33.438-35.36 11.359-17.766 11.359 9.437c0 24 17.282 38.876 47.36 38.876 17.437 0 31.843-5.11 41.765-13.438l-4.968-7.828c-8.313 5.594-20.641 9.437-35.032 9.437-23.687 0-37.437-9.922-37.437-28.328 0-20.797 17.906-36 51.36-41.593C75.358-7.845 86.077 0 103.686 0zm0 0"/></symbol><symbol overflow="visible" id="l"><path d="M27.047-117.125l-11.203 1.766.469 81.921c0 16.313-5.11 20.954-13.907 20.954H-.313c-2.562 0-3.843 2.25-3.843 6.25C-4.156-2.406-3.046 0-.313 0h3.516c14.719 0 23.844-8.797 23.844-31.047zm0 0"/></symbol><symbol overflow="visible" id="m"><path d="M10.875-29.125C11.047-8.797 19.515 0 36 0h4.64c2.407 0 4.157-2.406 4.157-6.234 0-4-1.922-6.25-4.156-6.25h-3.203c-10.72 0-15.36-5.438-15.36-18.235v-86.406l-11.515 1.61zm0 0"/></symbol><symbol overflow="visible" id="n"><path d="M25.281-29.125c-4.797 12.64-10.234 16.64-22.718 16.64h-2.72c-2.562 0-4 2.079-4 6.25 0 4.157 1.282 6.235 4 6.235h3.36c11.844 0 20.156-4.313 25.75-15.203C33.593-4.313 41.766 0 54.563 0h29.75c17.765 0 30.89-2.875 38.89-8.64C127.687-2.876 134.234 0 141.922 0c3.031 0 4.156-2.406 4.156-6.234 0-3.844-1.125-6.25-4.156-6.25-4.969 0-8.797-1.438-11.516-4 1.906-3.36 3.031-7.203 3.031-11.672 0-16.157-13.28-31.36-29.75-31.36-22.25 0-43.374 23.032-50.093 47.032-11.36 0-14.719-4.313-17.594-18.875l-1.766-8.797-10.547 1.922zm77.594-18.719c11.047 0 20.172 10.25 20.172 20.485 0 9.125-9.125 14.875-39.36 14.875H64.484c7.032-19.36 23.032-35.36 38.391-35.36zm0 0"/></symbol><symbol overflow="visible" id="o"><path d="M0 0c9.281 0 15.203-3.688 19.844-12.797L36.312-4.64C46.72.484 50.563 1.438 54.72 1.438c4.968 0 10.234-3.844 12.968-12.157C71.688-3.844 79.204 0 88 0c2.719 0 4.156-2.406 4.156-6.234 0-3.844-1.594-6.25-4.156-6.25-10.875 0-16.156-4.313-19.844-18.391-3.515-14.078-12.156-22.078-24-22.078-11.843 0-20.312 6.078-27.515 23.516C11.047-16 8-12.485 0-12.485c-2.875 0-4.156 2.25-4.156 6.078C-4.156-2.406-3.046 0 0 0zm42.719-42.406c9.593 0 17.125 8.64 17.125 21.125 0 7.36-2.719 10.562-6.719 10.562-3.36 0-6.89-1.125-14.25-4.64l-15.188-7.36c5.75-13.922 10.875-19.687 19.032-19.687zm0 0"/></symbol><symbol overflow="visible" id="p"><path d="M35.844-43.047c4.797 13.61 7.36 30.734 7.36 41.922 0 21.438-8.329 31.531-23.36 31.531-4.969 0-10.407-1.125-14.89-3.203l-1.75 3.672c4.483 2.563 11.515 4.328 17.75 4.328C37.593 35.203 48 23.047 48-1.594c0-12.64-2.875-29.922-7.844-42.89zm0 0"/></symbol><symbol overflow="visible" id="q"><path d="M14.406-113.594V0h1.11l3.359-1.766v-112.796zm0 0"/></symbol><symbol overflow="visible" id="r"><path d="M24.484 35.203c19.203 0 31.828-12.156 31.828-35.203h5.126c1.921 0 3.203-.953 3.203-2.563 0-1.593-1.282-2.562-3.204-2.562h-5.28c-.954-26.234-10.079-40.797-25.11-40.797-12.485 0-21.453 10.719-21.453 22.234 0 16 10.094 23.532 42.093 23.532-.171 20.468-10.562 30.562-28.812 30.562-4.469 0-10.078-1.125-14.719-3.203l-1.75 3.672c4.64 2.563 12.157 4.328 18.078 4.328zM44.641-5.28c-24.157-.64-30.563-6.407-30.563-18.407 0-9.75 7.688-17.437 16.797-17.437 11.36 0 19.688 10.89 20.969 36zm0 0"/></symbol><symbol overflow="visible" id="s"><path d="M62.078-45.438c10.875 0 20.797 12 20.797 24.485 0 9.75-9.75 15.828-43.031 15.828H18.719c8-21.922 25.281-40.313 43.36-40.313zM0 0h40.64c31.204 0 46.235-5.766 46.235-21.766 0-14.39-11.828-28.797-24.797-28.797-18.234 0-35.672 16.641-44.64 38.72v-102.72l-4.485.97.485 108.468H0c-1.922 0-3.203.969-3.203 2.563C-3.203-.954-1.922 0 0 0zm0 0"/></symbol><symbol overflow="visible" id="t"><path d="M81.281-113.594v78.235c0 23.843-8.64 30.234-34.719 30.234H9.594L10.234 0h38.72c27.53 0 36.812-10.875 36.812-32.156v-82.406zM18.078-97.28l42.875 75.687h1.125l2.563-1.922-42.407-76.172zm-13.125-7.844c9.766-1.438 19.688-2.563 29.453-2.875v-3.516c-7.687.157-14.406.797-20.968 1.594-1.438-1.594-2.563-4.156-2.563-6.719 0-5.593 4-9.125 9.125-9.125 3.844 0 6.406 2.25 8.484 4.97l2.391-1.766c-2.39-3.672-6.078-6.72-11.188-6.72-6.734 0-12 4.97-12 12.157 0 2.89.797 5.766 2.391 7.844-1.765.156-3.36.484-5.125.797zm0 0"/></symbol><symbol overflow="visible" id="v"><path d="M12.797-31.203c0 21.765 10.406 33.437 47.36 33.437 26.562 0 41.609-6.234 52.156-16.797C116.156-3.358 124.156 0 135.047 0h3.828c1.922 0 3.203-.953 3.203-2.563 0-1.593-1.437-2.562-3.203-2.562h-2.563c-14.078 0-19.671-4.64-21.75-19.672l-2.25-16.484-4.468.797 3.031 21.125c-9.594 10.562-24 16.484-49.75 16.484-33.61 0-43.688-8.64-43.688-29.125 0-5.922.97-11.047 2.25-15.688l-3.843-.953a51.537 51.537 0 0 0-3.047 17.438zm57.766 50.078c-1.922-1.922-5.282-4.313-7.844-5.594l-4.797 6.875c2.39 1.438 5.437 3.688 7.672 5.438zm0 0"/></symbol><symbol overflow="visible" id="w"><path d="M19.047-56.64c4.469 9.921 7.36 20.484 7.36 31.203 0 14.39-7.048 20.312-22.563 20.312H0c-1.922 0-3.203.969-3.203 2.563C-3.203-.954-1.922 0 0 0h5.125c15.672 0 25.75-7.516 25.75-26.234 0-11.844-3.828-24.172-7.672-32.172zm15.031 75.046c-1.766-1.765-4.953-4.172-7.36-5.281l-4.64 6.563c2.235 1.265 5.125 3.515 7.36 5.109zm-17.766 0c-1.75-1.765-4.953-4.172-7.359-5.281l-4.64 6.563c2.25 1.265 5.125 3.515 7.375 5.109zm0 0"/></symbol><symbol overflow="visible" id="x"><path d="M20.953 35.203C37.593 35.203 48 22.406 48 0c0-2.078-.156-6.078-.64-8.64C50.718-3.517 56.312 0 67.202 0c2.39 0 3.203-.953 3.203-2.563 0-1.593-.812-2.562-3.203-2.562-12 0-17.281-4-20.797-14.875l-1.765-5.438-4.157 1.125c1.75 8.625 2.72 17.438 2.72 24.313 0 19.688-8.329 30.406-23.36 30.406-4.969 0-10.407-1.125-14.89-3.203l-1.75 3.672c4.483 2.563 11.515 4.328 17.75 4.328zm0 0"/></symbol><symbol overflow="visible" id="y"><path d="M40.484-5.125c-18.078 0-26.562-9.922-26.562-23.36 0-15.203 10.875-25.593 25.125-25.593 8.64 0 15.516 3.844 21.437 12l3.203-2.563c-6.093-8.797-14.093-14.078-25.124-14.078-17.282 0-29.126 12.953-29.126 29.594 0 10.563 4.797 19.36 12.157 24H0c-2.406 0-3.203.969-3.203 2.563C-3.203-.954-2.406 0 0 0h29.594c21.281 0 32.328-2.234 44.968-7.36l-1.609-3.687C62.078-6.719 47.687-5.125 40.484-5.125zm-1.125-70.39c-1.922-1.922-5.28-4.329-7.843-5.61l-4.797 6.89c2.406 1.438 5.437 3.672 7.687 5.438zm0 0"/></symbol><symbol overflow="visible" id="z"><path d="M103.844 0h3.672c2.078 0 2.89-.797 2.89-2.563 0-1.593-.812-2.562-2.89-2.562h-2.391c-16.64 0-25.125-4-25.61-27.516 3.688-.312 7.532-.484 11.532-.64l.797-4.157c-9.766 0-12.64-1.124-27.047-8.156-13.75-6.718-20-9.765-28.797-9.765-8.313 0-16.64 2.718-22.875 6.875l2.234 3.843c4.954-2.875 12.485-5.922 20.953-5.922 8.485 0 16.329 3.204 37.922 14.079V-36C35.844-32.156 12-15.203 12 13.125c0 21.75 14.234 36 42.875 36 16.64 0 30.563-4.813 40-13.922L92.156 32c-7.844 7.36-20.797 11.844-36.64 11.844-25.11 0-38.72-11.203-38.72-31.203 0-25.438 21.61-41.125 59.204-44.953C76.313-5.922 86.406 0 103.844 0zm0 0"/></symbol><symbol overflow="visible" id="A"><path d="M21.922-114.563l-4.485.97v86.546c0 17.125-5.593 21.922-14.875 21.922H0c-2.406 0-3.203.969-3.203 2.563C-3.203-.954-2.406 0 0 0h3.047c12 0 18.875-8.313 18.875-25.281zm0 0"/></symbol><symbol overflow="visible" id="B"><path d="M12-22.719C12-7.844 19.203 0 32.797 0h4.484c1.594 0 3.032-.953 3.032-2.563 0-1.593-1.594-2.562-3.188-2.562h-3.844c-12 0-16.797-6.078-16.797-18.875v-90.563l-4.484.97zm0 0"/></symbol><symbol overflow="visible" id="C"><path d="M25.594-21.281C20.484-8.797 15.359-5.125 2.562-5.125H0c-2.078 0-3.203.813-3.203 2.719C-3.203-.641-2.234 0 0 0h2.875c12 0 19.36-3.688 24.484-14.406C31.203-3.516 38.562 0 50.562 0H76c19.203 0 32.313-2.234 39.516-7.688C119.203-2.563 124.953 0 132 0c2.406 0 3.203-1.125 3.203-2.563 0-1.437-.797-2.562-3.203-2.562-5.922 0-10.234-2.078-13.125-5.75 2.25-3.047 3.36-6.406 3.36-10.89 0-14.391-11.829-28.797-24.797-28.797-20 0-39.516 20-47.204 45.437-13.28 0-18.078-5.11-20.468-18.563l-1.922-10.39-4.485.953zm71.844-24.157c10.874 0 20.796 12 20.796 24.485 0 9.75-9.75 15.828-43.03 15.828H54.077c8-21.922 25.281-40.313 43.36-40.313zm0 0"/></symbol><symbol overflow="visible" id="D"><path d="M0 0c8.156 0 13.766-3.36 18.406-11.688L35.516-4C46.563.953 50.406 2.234 54.078 2.234c4.484 0 8.64-3.515 10.406-12.312C68.641-3.36 75.844 0 83.047 0c2.39 0 3.187-1.125 3.187-2.563 0-1.437-.796-2.562-3.187-2.562-9.61 0-16.172-4.953-18.734-18.078-2.72-13.75-11.188-21.11-21.266-21.11-10.25 0-18.406 6.079-25.125 23.032C13.125-9.281 8.64-5.125 0-5.125c-2.406 0-3.203.969-3.203 2.563C-3.203-.954-2.406 0 0 0zm42.078-39.516c11.047 0 18.406 9.594 18.406 24.313 0 8.969-2.89 12.328-7.203 12.328-2.875 0-7.203-1.125-15.36-4.813L20-15.844c6.406-15.515 12.64-23.672 22.078-23.672zm0 0"/></symbol><symbol overflow="visible" id="E"><path d="M35.047-45.766c4.312 13.453 7.36 29.766 7.36 42.563 0 20.484-8 29.281-22.72 29.281-4.968 0-10.406-.953-14.562-2.719l-2.89 7.36c4.812 2.718 12.328 4.797 19.687 4.797 18.078 0 29.765-12.47 29.765-38.875 0-14.72-3.046-31.844-7.843-44.641zm0 0"/></symbol><symbol overflow="visible" id="F"><path d="M13.281-115.047L13.594 0h2.094l7.359-2.078v-114.563zm0 0"/></symbol><symbol overflow="visible" id="G"><path d="M26.875 35.516c19.531 0 32.484-11.672 33.766-35.516h4.797c2.406 0 4-1.922 4-5.281 0-3.36-1.594-5.282-4-5.282H60.64C59.516-36.156 49.766-52 33.28-52 19.688-52 9.766-40.312 9.766-26.875c0 16.797 11.359 26.078 41.922 26.719-.813 17.922-10.407 26.234-27.532 26.234-5.11 0-10.39-.953-14.39-2.719l-3.047 7.36c4.968 2.718 12.797 4.797 20.156 4.797zm18.406-45.922c-21.125-.797-27.36-6.078-27.36-16.64 0-8.954 6.72-15.829 15.032-15.829 10.25 0 17.922 9.922 18.89 32.64zm0 0"/></symbol><symbol overflow="visible" id="H"><path d="M64.484-47.047c10.235 0 19.204 10.25 19.204 21.125 0 9.281-8.641 15.36-39.047 15.36H24.156c8-20.157 24.797-36.485 40.328-36.485zM-.156 0H44c31.844 0 48.313-8.156 48.313-26.234 0-16-12.797-30.72-27.516-30.72-16.64 0-33.438 14.235-43.031 36v-95.687l-9.61 1.594 1.281 104.484H-.155C-2.406-10.563-4-8.64-4-5.28-4-1.921-2.406 0-.156 0zm0 0"/></symbol><symbol overflow="visible" id="I"><path d="M78.563-114.875l.312 74.39c0 23.047-8.313 29.922-36.469 29.922H7.844L9.125 0h36.953C77.125 0 88-12.953 88-36.953v-79.531zM15.687-99.203l40.47 74.406h2.25L64.156-28l-39.36-76zm-12.484-8.484c10.875-1.75 22.563-3.188 33.438-3.516v-5.922c-8 .172-15.516.813-22.72 1.922-1.28-1.594-2.233-4-2.233-6.39 0-5.454 3.671-8.641 8.624-8.641 3.532 0 6.094 1.922 8.485 4.797l3.844-3.047c-2.72-4.313-6.875-7.828-12.953-7.828-7.532 0-13.61 5.437-13.61 13.437 0 3.516 1.125 6.39 2.719 8.469-1.922.328-3.672.812-5.594 1.125zm0 0"/></symbol><symbol overflow="visible" id="K"><path d="M10.719-33.922c0 23.688 11.844 36.156 50.718 36.156 25.282 0 41.61-5.593 52.641-15.671C118.562-3.517 126.562 0 137.766 0h4c2.39 0 4-1.922 4-5.281 0-3.36-1.766-5.282-4-5.282h-2.891c-13.11 0-17.922-3.843-20.156-19.359l-2.235-16.312-8.968 1.437 3.359 22.719c-9.922 8.953-24.313 13.765-47.36 13.765-34.078 0-43.203-7.374-43.203-27.53 0-5.594.813-10.563 1.922-14.876l-8.312-1.593c-1.766 4.796-3.203 10.874-3.203 18.39zm64.64 52.969c-3.046-2.89-7.515-6.094-11.046-7.844l-6.72 9.594c3.36 1.922 7.688 5.125 10.891 7.687zm0 0"/></symbol><symbol overflow="visible" id="L"><path d="M17.766-59.203c4.156 10.078 6.875 20.328 6.875 30.078 0 13.125-6.078 18.563-21.125 18.563H0c-2.406 0-3.844 2.078-3.844 5.28C-3.844-2.233-2.406 0 0 0h4.953c17.922 0 29.281-9.125 29.281-29.438 0-11.687-3.515-24.156-7.359-32.796zm20.64 78.25C35.516 16.312 31.36 13.28 28 11.516l-6.406 9.125c3.203 1.922 7.203 4.953 10.25 7.359zm-18.406 0c-2.875-2.735-7.047-5.766-10.406-7.531l-6.39 9.125c3.202 1.922 7.202 4.953 10.233 7.359zm0 0"/></symbol><symbol overflow="visible" id="M"><path d="M21.766 35.516c17.922 0 29.75-13.594 29.75-35.516 0-2.234 0-5.281-.47-7.203C54.72-2.72 60.314 0 69.439 0c2.718 0 3.843-1.922 3.843-5.281 0-3.36-1.125-5.282-3.844-5.282-11.03 0-15.843-3.515-19.671-14.874L48-30.563l-8.797 1.921c2.078 9.282 3.031 18.563 3.031 26.078 0 19.36-8 28.641-22.547 28.641-5.125 0-10.406-.953-14.562-2.719l-3.047 7.36c4.969 2.718 12.485 4.797 19.688 4.797zm0 0"/></symbol><symbol overflow="visible" id="N"><path d="M42.875-10.563c-17.281 0-25.11-8.796-25.11-21.124 0-13.75 9.594-23.032 22.72-23.032 8.312 0 14.718 3.844 20.468 11.032l5.766-5.11C60.313-58.407 50.875-64 39.688-64 22.078-64 9.28-50.562 9.28-33.281c0 10.078 4.313 18.234 10.235 22.718H0c-2.875 0-3.844 1.61-3.844 4.97C-3.844-2.079-2.875 0 0 0h27.688C51.203 0 64.64-2.406 78.874-8.156l-2.719-8c-11.36 4-24.797 5.593-33.281 5.593zm.328-71.359c-3.047-2.875-7.516-6.078-11.047-7.844l-6.718 9.61c3.359 1.922 7.687 5.11 10.875 7.672zm0 0"/></symbol><symbol overflow="visible" id="O"><path d="M103.688 0h6.234c2.719 0 3.844-1.766 3.844-5.281 0-3.36-1.125-5.282-3.844-5.282h-6.563c-13.765 0-20.64-4.156-21.28-23.671 4-.328 8.327-.641 12.64-.813L96-44c-11.36 0-14.719-1.125-29.438-7.688-13.609-6.078-20-8.953-29.437-8.953-10.25 0-18.563 3.203-25.281 7.516l3.844 7.531c6.234-3.203 12.953-5.61 21.265-5.61 8 0 15.688 2.563 34.25 11.048v.468c-37.125 5.282-59.687 22.563-59.687 50.094 0 23.36 16.484 38.078 46.078 38.078 17.281 0 31.531-4.968 41.281-13.609l-4.313-6.563c-8.156 6.25-20.64 10.094-35.515 10.094-24 0-37.766-10.093-37.766-28.968 0-22.079 18.875-37.438 53.438-42.72C75.688-7.202 86.234 0 103.688 0zm0 0"/></symbol><symbol overflow="visible" id="P"><path d="M25.594-116.484l-9.282 1.609.329 83.188c0 16.484-5.282 21.125-14.078 21.125h-2.72c-2.562 0-3.687 1.921-3.687 5.28C-3.844-1.921-2.875 0-.156 0h3.203c14.078 0 22.547-8.64 22.547-29.438zm0 0"/></symbol><symbol overflow="visible" id="Q"><path d="M11.203-27.36C11.36-8.483 19.516 0 35.203 0h4.484c2.235 0 3.829-1.922 3.829-5.281 0-3.36-1.75-5.282-3.828-5.282h-3.376c-11.187 0-15.671-5.437-15.671-18.234v-87.687l-9.766 1.437zm0 0"/></symbol><symbol overflow="visible" id="R"><path d="M25.438-26.875C20.483-14.406 15.046-10.562 2.563-10.562h-2.72c-2.405 0-3.687 1.921-3.687 5.437C-3.844-1.594-2.719 0-.156 0h3.36C14.874 0 23.046-4.156 28.64-15.047 32.953-4.157 40.953 0 53.438 0h28.64c18.078 0 31.203-2.719 39.047-8.313C125.281-2.718 131.688 0 139.203 0c2.875 0 3.844-2.078 3.844-5.281s-.969-5.282-3.844-5.282c-5.281 0-9.125-1.437-12-4.312 2.078-3.203 3.031-7.047 3.031-11.531 0-15.672-12.797-30.719-28.312-30.719-21.61 0-42.234 22.25-49.281 46.563-11.844 0-15.688-4.485-18.407-18.72l-1.75-9.28-8.968 1.765zm76-20.328c10.874 0 20.328 10.719 20.328 21.61 0 9.28-9.282 15.03-40.485 15.03H61.594c7.36-20 23.687-36.64 39.843-36.64zm0 0"/></symbol><symbol overflow="visible" id="S"><path d="M0 0c8.953 0 14.875-3.516 19.516-12.484l16.64 8C46.72.64 50.563 1.594 54.563 1.594c4.796 0 9.75-3.672 12.312-12.156C70.875-3.689 78.235 0 86.719 0c2.562 0 3.844-2.078 3.844-5.281s-1.438-5.282-3.844-5.282c-10.719 0-16.156-4.312-19.516-18.078-3.36-14.078-12-21.922-23.36-21.922-11.359 0-19.843 6.079-26.89 23.36C11.516-14.078 8.156-10.563 0-10.563c-2.719 0-3.844 1.922-3.844 5.126C-3.844-1.922-2.875 0 0 0zm42.563-41.594C52.483-41.594 60-32.64 60-19.687c0 7.843-2.719 11.046-6.875 11.046-3.203 0-7.047-.953-14.563-4.484l-16-7.672c6.079-14.406 11.516-20.797 20-20.797zm0 0"/></symbol><symbol overflow="visible" id="T"><path d="M32.953-55.047c4.969 16.328 7.531 29.125 7.531 41.61 0 18.078-6.406 25.124-21.609 25.124-4.64 0-9.281-.64-12.469-1.609L.796 29.594C6.876 32.797 17.126 36 27.204 36c23.36 0 37.75-15.844 37.75-47.36 0-17.765-4.312-34.562-9.906-48.156zm0 0"/></symbol><symbol overflow="visible" id="U"><path d="M9.438-119.36L10.562 0h4.641l21.11-2.875v-120.172zm0 0"/></symbol><symbol overflow="visible" id="V"><path d="M33.922 36c21.437 0 36.484-12.484 40-36h4.156c3.516 0 5.61-5.125 5.61-14.234 0-9.282-2.25-14.25-5.61-14.25h-4.484c-3.516-25.11-15.828-40.313-33.906-40.313-16.813 0-29.454 14.078-29.454 32.156 0 19.203 13.282 32.157 40.97 35.203-1.767 8.954-9.282 13.594-23.688 13.594-6.563 0-12.157-.953-15.516-2.078L6.406 29.594C12.484 32.797 22.72 36 33.922 36zm12.484-62.719c-12.968-.64-17.765-4.328-17.765-10.562 0-5.766 4-9.922 9.765-9.922 7.188 0 13.11 6.406 13.907 20.64zm0 0"/></symbol><symbol overflow="visible" id="W"><path d="M72.313-51.203c7.203 0 12.64 5.61 12.64 11.844 0 6.406-5.75 10.875-24.797 10.875H40.484c7.672-12.641 20.797-22.72 31.828-22.72zM-.157 0h55.032c32.813 0 53.61-17.125 53.61-39.688 0-20-15.688-38.078-33.438-38.078-14.25 0-28.328 9.922-38.563 28.329v-73.61l-26.89 3.688 4.172 90.875H-.484c-2.875 0-5.11 4.968-5.11 14.25C-5.594-5.125-3.516 0-.156 0zm0 0"/></symbol><symbol overflow="visible" id="X"><path d="M73.766-119.203l1.109 63.047c.484 22.234-5.594 27.672-41.11 27.672H5.595L9.594 0H40.64c40.797 0 58.718-17.125 58.718-51.844v-71.031zM12.953-103.36L44.484-36h6.078l15.844-7.047-27.36-70.719zm-8.312-11.047c13.437-2.078 27.672-4 41.28-4.469v-11.047c-8.64.156-17.124.969-25.124 2.078-.64-1.281-1.11-2.719-1.11-4.312 0-4.156 2.875-6.563 6.72-6.563 3.187 0 5.593 1.438 8.312 4.313l6.718-6.078c-3.515-6.078-8.64-10.72-16.484-10.72-8.953 0-16.312 6.563-16.312 15.688 0 3.672 1.125 6.875 2.562 9.11-2.25.484-4.328.969-6.562 1.453zm0 0"/></symbol><symbol overflow="visible" id="Z"><path d="M6.719-42.234c0 28.312 16.968 44.468 60.797 44.468 21.921 0 39.53-4.796 51.687-13.921C125.593-3.845 134.406 0 145.593 0h5.923c3.359 0 5.609-5.125 5.609-14.234 0-9.282-2.406-14.25-5.61-14.25h-3.671c-10.25 0-14.406-2.875-16.328-17.594l-2.235-17.438-23.36 3.203 3.516 26.547c-8.64 4.641-21.437 7.532-37.124 7.532-33.11 0-40.626-3.688-40.626-22.078 0-4.813.313-9.126 1.438-13.282l-22.25-3.687C8.641-59.516 6.719-51.36 6.719-42.234zm80.484 64.64c-5.766-5.453-13.437-10.562-19.36-13.61l-11.53 16.485c5.765 3.516 13.453 9.125 19.203 13.594zm0 0"/></symbol><symbol overflow="visible" id="aa"><path d="M15.203-69.766c2.719 9.61 4.485 18.891 4.485 26.563 0 10.562-4.641 14.719-16.813 14.719H0c-3.516 0-5.594 5.437-5.594 14.078C-5.594-6.234-3.516 0 0 0h5.766c24.468 0 39.828-13.766 39.828-40.156 0-11.203-3.032-25.282-6.719-35.047zm26.39 105.282l11.048-15.672C47.203 14.719 39.844 9.766 34.234 6.875l-7.672 11.047c-5.125-4.328-11.359-8.485-16.328-11.047L-.64 22.563c5.438 3.359 12.797 8.64 18.235 12.953l8.172-11.36c4.953 3.203 11.03 7.688 15.828 11.36zm0 0"/></symbol><symbol overflow="visible" id="ab"><path d="M27.36 36c22.078 0 36.328-16.313 36.328-37.125 0-1.438 0-2.39-.172-3.516C67.046-1.437 71.688 0 77.125 0c3.672 0 5.594-5.125 5.594-14.234 0-9.282-2.078-14.25-5.594-14.25-8.813 0-12.484-2.72-16.64-13.75l-1.922-5.453-22.25 4.328c2.734 10.718 4.171 21.593 4.171 29.922 0 16.484-5.765 25.124-21.609 25.124-4.64 0-9.281-.64-12.469-1.609L.796 29.594C6.876 32.797 17.126 36 27.36 36zm0 0"/></symbol><symbol overflow="visible" id="ac"><path d="M52.484-28.484c-14.718 0-21.125-5.594-21.125-14.235 0-8.484 5.766-13.765 15.047-13.765 6.719 0 11.516 2.718 16.313 7.843l15.047-13.437c-7.532-12.64-20.172-20.64-33.454-20.64-20.624 0-35.359 14.874-35.359 34.234 0 8.64 3.047 15.687 6.094 20H0c-3.688 0-5.594 3.687-5.594 13.125C-5.594-5.922-3.687 0 0 0h21.922c31.031 0 52.312-3.844 71.516-12.313l-5.922-21.124c-13.282 3.515-24.641 4.953-35.032 4.953zm1.11-75.203c-5.75-5.438-13.438-10.547-19.36-13.594L22.72-100.797c5.765 3.516 13.437 9.11 19.203 13.594zm0 0"/></symbol><symbol overflow="visible" id="ad"><path d="M110.563 0h7.359c3.516 0 5.594-5.125 5.594-14.234 0-9.282-2.235-14.25-5.594-14.25h-14.719c-8.64 0-12.156-2.875-12.797-11.828 4.797-.641 10.078-1.282 15.672-1.61l2.719-23.844c-14.875 0-21.75-1.437-36.64-6.234-13.438-4.313-21.438-6.234-31.844-6.234-12.157 0-23.829 4.156-32.954 9.75l8.485 19.53c6.234-2.562 13.437-4.327 20.797-4.327 7.047 0 13.922 1.437 23.359 5.125v.468c-32 8.329-49.922 24-49.922 50.25 0 26.235 20.64 43.672 56.484 43.672 18.235 0 34.563-5.109 45.126-12.156l-6.735-19.844C98.078 17.438 84 20 72.156 20c-22.39 0-34.39-7.36-34.39-23.203 0-15.031 11.515-27.203 36.312-33.922C75.844-8.641 89.438 0 110.562 0zm0 0"/></symbol><symbol overflow="visible" id="ae"><path d="M37.766-122.875l-25.453 3.672 1.124 73.922c.329 13.125-3.203 16.797-10.562 16.797H-.313c-3.203 0-5.28 4.968-5.28 14.25C-5.594-5.125-3.689 0-.314 0h4.157c21.593 0 33.922-12.484 33.922-45.594zm0 0"/></symbol><symbol overflow="visible" id="af"><path d="M8.156-42.875C8.641-11.047 20.641 0 43.688 0h4.624c3.376 0 5.766-5.125 5.766-14.234 0-9.282-2.562-14.25-5.766-14.25h-1.906c-9.281 0-13.453-3.672-13.453-16.313v-78.078l-25.906 3.516zm0 0"/></symbol><symbol overflow="visible" id="ag"><path d="M21.766-39.36c-4.328 8-9.61 10.876-18.72 10.876H-.155c-3.203 0-5.438 4.968-5.438 14.25C-5.594-4.954-3.516 0-.156 0H4.64c10.718 0 19.843-4.156 26.562-13.766C36.953-4.484 46.72 0 58.875 0h35.047C109.766 0 122.719-3.844 132-10.406 138.078-3.36 146.563 0 156.313 0c3.53 0 5.609-5.125 5.609-14.234 0-9.125-2.078-14.25-5.61-14.25-4.156 0-7.515-.797-10.234-2.078.969-2.72 1.438-6.079 1.438-9.282 0-19.843-16.313-37.922-35.203-37.922-22.235 0-45.75 22.72-54.547 49.282-7.688 0-10.407-4.157-12.813-16.953l-1.594-8.97-23.203 3.532zm88.468-11.843c8.172 0 14.72 6.562 14.72 12.64 0 6.25-6.548 10.079-24.798 10.079H80.641c6.406-12.953 19.203-22.72 29.593-22.72zm0 0"/></symbol><symbol overflow="visible" id="ah"><path d="M0 0c11.516 0 18.875-4.797 24-15.203l17.594 9.281c8.812 4.484 12.64 5.766 17.765 5.766 4.953 0 10.72-3.844 14.563-10.406C79.203-3.845 86.875 0 95.688 0c3.359 0 5.75-5.125 5.75-14.234 0-9.125-2.563-14.25-5.75-14.25-9.766 0-13.61-3.032-17.922-16.157-5.61-16.484-15.204-25.922-30.72-25.922-13.765 0-23.046 7.204-30.25 24.641C10.72-31.516 7.845-28.484 0-28.484c-3.516 0-5.594 4.797-5.594 13.609C-5.594-5.281-3.687 0 0 0zm44.484-49.594c7.672 0 14.235 7.188 14.235 15.828 0 4-1.594 5.922-4.157 5.922-2.718 0-4.796-.64-10.406-3.36L31.844-37.28c3.515-8.797 7.031-12.313 12.64-12.313zm0 0"/></symbol><symbol overflow="visible" id="ai"><path d="M33.438-51.36c4.328 14.563 7.359 28.954 7.359 42.876 0 18.718-7.031 25.922-21.594 25.922-4.969 0-10.078-.797-13.61-1.922L.798 30.234c5.61 3.047 14.406 5.61 23.687 5.61 21.282 0 34.875-13.922 34.875-43.532 0-17.593-3.843-34.39-8.64-47.187zm0 0"/></symbol><symbol overflow="visible" id="aj"><path d="M11.047-117.766L11.844 0h3.844l15.359-2.563v-117.921zm0 0"/></symbol><symbol overflow="visible" id="ak"><path d="M31.36 35.844c20.328 0 34.406-11.532 37.437-35.844h4.484c3.031 0 4.953-3.844 4.953-10.563 0-6.874-2.078-10.718-4.953-10.718h-4.484c-1.922-24.797-13.11-41.594-31.36-41.594-15.671 0-27.359 13.281-27.359 29.922 0 18.234 13.125 30.39 41.61 32.469C49.766 12 41.766 17.594 26.561 17.594c-6.406 0-11.359-.953-14.718-2.078L6.875 30.234c5.438 3.047 14.563 5.61 24.484 5.61zm14.874-56.328c-15.828-.797-21.437-5.11-21.437-12.953 0-7.204 5.125-12.485 11.687-12.485 8.313 0 14.875 8 15.672 25.766zm0 0"/></symbol><symbol overflow="visible" id="al"><path d="M69.125-49.922c8.64 0 15.672 7.203 15.672 15.203 0 7.844-6.719 13.438-30.719 13.438H34.406c8-16 22.875-28.64 34.719-28.64zM-.313 0h50.876c32.64 0 51.843-13.438 51.843-34.719 0-18.718-14.406-34.875-31.687-34.875-14.563 0-29.922 10.875-40.156 31.031v-81.921l-19.844 2.718 3.047 96.485H-.313c-2.734 0-4.812 3.843-4.812 10.718C-5.125-3.843-3.203 0-.312 0zm0 0"/></symbol><symbol overflow="visible" id="am"><path d="M74.875-117.281l.813 67.203C75.844-28 68.64-21.125 36.156-21.125H5.594L8.64.156h33.437C79.36.156 93.922-16 93.922-45.922v-74.234zm-62.078 15.203L48-31.203h4.484l12.157-5.594-32.797-74.078zM2.234-112.312c12.641-2.094 26.891-3.844 39.532-4.485v-9.437c-8.641.156-16.97.953-25.125 2.078-.953-1.281-1.594-3.203-1.594-5.281 0-4.797 3.36-7.516 7.515-7.516 3.204 0 5.922 1.437 8.641 4.469l6.078-5.11c-3.36-5.61-8.328-9.922-15.687-9.922-8.64 0-15.828 6.391-15.828 15.36 0 3.844 1.28 7.031 2.718 9.281-2.078.469-4.171.797-6.25 1.281zm0 0"/></symbol><symbol overflow="visible" id="ao"><path d="M7.516-39.203c0 27.047 15.046 41.437 57.125 41.437 22.875 0 40.953-4.953 52.64-14.234 5.594 8.313 14.078 12 25.438 12h4.797c3.047 0 5.125-3.844 5.125-10.563 0-6.874-2.235-10.718-5.125-10.718h-3.36c-11.36 0-15.203-2.875-17.437-18.407l-2.235-16.796-17.765 2.718 3.687 25.282c-9.765 6.078-23.687 9.437-41.922 9.437-34.078 0-41.765-4.953-41.765-24.312 0-5.125.484-9.766 1.593-13.594l-17.109-2.89c-1.922 5.28-3.687 12.327-3.687 20.64zm75.843 59.516c-4.953-4.47-11.515-8.954-16.64-11.516l-9.922 14.078c4.969 2.89 11.516 7.844 16.328 11.688zm0 0"/></symbol><symbol overflow="visible" id="ap"><path d="M15.844-65.125c3.36 10.078 5.75 19.844 5.75 28.172 0 10.875-4.953 15.672-18.547 15.672H0c-3.203 0-5.125 4.156-5.125 10.562C-5.125-4.64-3.203 0 0 0h5.125c22.078 0 36-12 36-35.844 0-11.203-3.203-24.64-7.047-34.078zm21.437 98.25l9.594-13.61C42.235 15.36 36 11.048 31.203 8.642l-6.719 9.593c-4.484-3.828-9.922-7.359-14.25-9.593L.797 22.078c4.64 2.719 10.89 7.36 15.515 11.047l7.204-10.078c4.328 2.875 9.765 6.875 13.765 10.078zm0 0"/></symbol><symbol overflow="visible" id="aq"><path d="M24.484 35.844c20.47 0 34.235-15.203 34.235-36.157 0-2.25 0-3.687-.313-4.812C62.234-1.594 67.688 0 73.922 0c3.36 0 5.125-3.844 5.125-10.563 0-6.874-1.922-10.718-5.125-10.718-9.281 0-13.61-2.875-17.766-14.563l-1.593-4.797-17.282 3.203c2.407 10.391 3.516 20.485 3.516 28.954 0 18.25-7.031 25.922-21.594 25.922-4.969 0-10.078-.797-13.61-1.922L.798 30.234c5.61 3.047 14.406 5.61 23.687 5.61zm0 0"/></symbol><symbol overflow="visible" id="ar"><path d="M48.313-21.281c-15.829 0-22.547-6.719-22.547-16.953 0-10.72 7.187-17.61 18.078-17.61 7.36 0 12.797 3.36 18.078 9.125l11.36-10.234c-7.36-11.36-19.048-17.922-31.048-17.922-18.875 0-33.28 14.234-33.28 32.64 0 9.438 3.687 16.641 7.358 20.954H0c-3.516 0-5.125 2.875-5.125 9.765C-5.125-4.312-3.515 0 0 0h24.156c28 0 46.078-3.047 63.36-10.406l-4.641-16c-12.469 3.687-24.64 5.125-34.563 5.125zm1.609-73.766c-4.969-4.469-11.516-8.953-16.64-11.516l-9.923 14.079c4.953 2.89 11.516 7.843 16.328 11.687zm0 0"/></symbol><symbol overflow="visible" id="as"><path d="M106.078 0h8.797c3.36 0 4.969-3.844 4.969-10.563 0-6.874-1.61-10.718-4.969-10.718h-12.953c-9.766 0-14.078-3.844-14.719-16.157 4.64-.64 9.438-1.124 14.563-1.437L104-56.953c-13.922 0-18.875-1.281-33.922-6.89-13.437-4.954-20.64-7.204-31.031-7.204-12.484 0-21.922 3.844-29.766 8.64L16-47.686c7.36-3.032 13.594-4.797 21.281-4.797 7.516 0 14.563 1.609 27.36 6.562v.484c-34.079 7.36-53.922 24.485-53.922 50.876 0 25.765 19.687 41.765 52.328 41.765 18.078 0 33.437-5.125 43.672-12.797l-6.406-13.922c-8 4.157-20.797 7.032-33.75 7.032-22.563 0-35.688-8.313-35.688-25.282 0-16.953 14.078-30.718 42.719-37.28C75.047-8.797 87.047 0 106.078 0zm0 0"/></symbol><symbol overflow="visible" id="at"><path d="M32.953-120.313l-19.031 2.876.797 77.28c.328 14.72-4.156 18.876-12.156 18.876H-.485c-2.875 0-4.641 3.843-4.641 10.718C-5.125-3.843-3.515 0-.485 0h4c18.25 0 29.438-10.406 29.438-38.563zm0 0"/></symbol><symbol overflow="visible" id="au"><path d="M9.438-36.64C9.765-9.923 20.155 0 40 0h4.797c2.89 0 5.125-3.844 5.125-10.563 0-6.874-2.406-10.718-5.125-10.718h-2.563c-9.75 0-13.922-4.485-13.922-17.125v-81.906l-19.671 2.546zm0 0"/></symbol><symbol overflow="visible" id="av"><path d="M23.844-35.844C19.359-24.954 13.766-21.28 2.719-21.28H-.312c-2.891 0-4.813 3.843-4.813 10.718C-5.125-3.686-3.359 0-.312 0h4.156c11.36 0 20.312-4.484 26.562-15.047C35.844-4.64 44.796 0 57.766 0h33.437c16.484 0 29.438-3.516 38.234-9.766C134.875-3.203 142.407 0 151.048 0c3.516 0 5.11-3.844 5.11-10.563 0-6.718-1.595-10.718-5.11-10.718-4.172 0-7.688-.797-10.406-2.407 1.593-3.359 2.406-7.187 2.406-11.187 0-18.25-14.89-34.89-33.766-34.89-23.047 0-45.765 24.171-52.797 48.484-9.28 0-11.843-3.844-14.718-18.235l-1.61-8.172-17.593 2.891zm83.844-14.078c10.078 0 17.906 8.156 17.906 15.844 0 8-7.828 12.797-32.64 12.797H74.562c6.39-15.844 20.64-28.64 33.124-28.64zm0 0"/></symbol><symbol overflow="visible" id="aw"><path d="M0 0c10.563 0 17.125-4.156 21.922-14.078l16.64 8.797C48.157-.313 52 .64 56.484.64c5.282 0 11.203-4.157 14.72-11.516C75.515-4 83.203 0 92.796 0c3.047 0 5.125-3.844 5.125-10.563 0-6.718-2.234-10.718-5.125-10.718-11.203 0-15.36-3.36-19.672-17.594-4.64-15.047-13.61-23.844-27.531-23.844-13.11 0-21.907 6.407-29.438 24C10.078-24.156 7.688-21.28 0-21.28c-3.36 0-5.125 3.687-5.125 10.234C-5.125-4-3.515 0 0 0zm43.516-46.078c8.484 0 15.687 7.672 15.687 17.766 0 5.593-2.25 8.156-5.766 8.156-3.203 0-5.921-.797-12.312-3.844L28-30.719c4.797-11.36 8.953-15.36 15.516-15.36zm0 0"/></symbol><symbol overflow="visible" id="ax"><path d="M33.766-49.281c4 13.437 7.359 28.797 7.359 43.515 0 19.047-7.531 26.407-21.766 26.407-5.125 0-10.406-.953-14.078-2.235L.797 30.563c5.281 2.875 13.437 5.28 22.078 5.28 20.172 0 33.438-12.968 33.438-41.609 0-17.28-3.516-34.078-7.829-46.547zm0 0"/></symbol><symbol overflow="visible" id="ay"><path d="M12-116.797L12.64 0h3.204l12.312-2.406v-116.797zm0 0"/></symbol><symbol overflow="visible" id="az"><path d="M29.922 35.844c19.844 0 33.281-11.047 36.156-35.844h4.484c3.032 0 4.797-3.203 4.797-8.64 0-5.594-1.921-8.641-4.796-8.641h-4.329c-1.109-24.797-11.671-42.407-30.078-42.407-15.031 0-26.234 12.813-26.234 28.813C9.922-13.281 23.047-1.437 51.844 0c-1.922 14.563-10.25 20.64-25.922 20.64-6.235 0-10.875-.953-14.235-2.234L7.204 30.563c5.11 2.875 13.594 5.28 22.719 5.28zm16.312-52.797c-17.437-.969-23.515-5.61-23.515-14.25 0-8.156 5.593-13.922 12.797-13.922 8.797 0 15.687 8.813 16.484 28.484zm0 0"/></symbol><symbol overflow="visible" id="aA"><path d="M67.516-49.125c9.437 0 17.28 8 17.28 16.969 0 8.64-7.202 14.875-34.077 14.875H31.203c8.156-17.922 24-31.844 36.313-31.844zM-.313 0h48.626c32.64 0 50.89-11.36 50.89-32 0-17.922-13.766-33.125-30.719-33.125-14.718 0-30.718 11.36-40.968 32.484v-86.562l-16.157 2.406 2.407 99.516H-.313c-2.562 0-4.484 3.047-4.484 8.64C-4.797-3.203-3.047 0-.313 0zm0 0"/></symbol><symbol overflow="visible" id="aB"><path d="M75.36-116.313L76-46.874c.156 22.078-7.844 29.75-38.563 29.75H5.595L8 .156h34.719c35.36 0 48.156-15.515 48.156-42.875v-76zm-62.563 14.876l37.281 72.796h3.688l9.922-4.953L28-109.28zm-12-9.766c12.328-2.078 26.406-3.844 38.562-4.313v-8.796c-8.484.156-16.953.953-25.125 2.234-.796-.969-1.75-3.36-1.75-5.922 0-5.125 3.516-8 8-8 3.203 0 5.922 1.438 8.797 4.64l5.594-4.64c-3.36-5.281-8.156-9.438-15.188-9.438-8.484 0-15.687 6.235-15.687 15.032 0 4.172 1.438 7.36 2.875 9.453-1.922.469-4 .797-6.078 1.266zm0 0"/></symbol><symbol overflow="visible" id="aD"><path d="M8-37.438C8-11.203 21.922 2.234 63.203 2.234c23.36 0 41.594-4.953 52.953-14.39C121.437-3.687 129.766 0 141.281 0h4.156c2.875 0 4.797-3.203 4.797-8.64 0-5.594-2.078-8.641-4.797-8.641h-3.203c-12 0-15.828-3.032-18.078-19.032l-2.234-16.328-14.719 2.407 3.844 24.64c-10.563 6.875-24.969 10.547-44.64 10.547C31.843-15.047 24-20.797 24-40.64c0-5.28.64-10.078 1.594-13.765l-14.235-2.39C9.594-51.845 8-45.439 8-37.439zm73.281 56.641c-4.328-4-10.406-8.156-15.047-10.562l-9.109 12.953C61.765 24.156 67.688 28.64 72 32.156zm0 0"/></symbol><symbol overflow="visible" id="aE"><path d="M16.313-62.563c3.687 10.25 6.25 20.329 6.25 28.97 0 11.187-4.97 16.312-19.516 16.312H0c-3.047 0-4.797 3.36-4.797 8.484C-4.797-3.687-3.047 0 0 0h4.797c20.64 0 33.766-11.047 33.766-33.594 0-11.203-3.204-24.172-7.204-33.453zM34.874 32l8.813-12.313C39.516 15.845 33.766 12 29.28 9.595l-6.234 8.969c-3.844-3.516-8.969-6.875-12.969-8.97l-8.64 12.329C5.921 24.484 11.515 28.64 15.688 32l6.546-9.125c4 2.406 8.97 6.078 12.641 9.125zm0 0"/></symbol><symbol overflow="visible" id="aF"><path d="M22.875 35.844C42.406 35.844 56 21.28 56 0c0-2.563 0-4.156-.313-5.438 4 3.672 9.75 5.438 16.47 5.438 3.359 0 4.796-3.203 4.796-8.64 0-5.594-1.594-8.641-4.797-8.641-9.594 0-14.078-3.203-18.234-15.032l-1.61-4.64-14.546 2.719C40-24 41.125-14.234 41.125-5.766c0 19.047-7.844 26.407-21.766 26.407-5.125 0-10.406-.953-14.078-2.235L.797 30.563c5.281 2.875 13.437 5.28 22.078 5.28zm0 0"/></symbol><symbol overflow="visible" id="aG"><path d="M46.078-17.281c-16.484 0-23.36-7.516-23.36-18.563 0-11.843 8-19.515 19.688-19.515 7.828 0 13.438 3.515 19.032 9.765l9.28-8.64c-7.03-10.563-18.234-16.328-29.593-16.328-17.922 0-32.172 13.921-32.172 31.843 0 9.594 4 16.953 8 21.438H0c-3.36 0-4.797 2.406-4.797 8C-4.797-3.516-3.359 0 0 0h25.281c26.407 0 42.875-2.563 59.032-9.281l-4-13.281c-12 3.687-24.47 5.28-34.235 5.28zm1.766-72.953c-4.328-4-10.407-8.172-15.047-10.563l-9.11 12.953c4.625 2.563 10.547 7.047 14.875 10.563zm0 0"/></symbol><symbol overflow="visible" id="aH"><path d="M103.516 0h9.609c3.36 0 4.797-3.047 4.797-8.64 0-5.594-1.438-8.641-4.797-8.641h-12c-10.25 0-15.047-4.485-15.688-18.719 4.485-.484 9.126-.953 14.079-1.281l1.765-14.875C88-52.156 84-53.438 68.953-59.36c-13.437-5.282-20.312-7.844-30.547-7.844-12.64 0-20.812 3.844-28.172 8.156L16-46.875C24-50.235 29.766-52 37.766-52c7.515 0 14.718 1.594 29.437 7.36v.484c-35.36 6.875-56.156 24.64-56.156 51.203 0 25.437 19.031 40.64 50.078 40.64 17.922 0 32.797-5.124 42.875-13.124l-6.234-10.72c-8.641 4.641-20.641 7.845-34.25 7.845-22.72 0-36.47-8.97-36.47-26.407 0-18.078 15.517-32.64 46.392-39.203C74.718-8.797 85.766 0 103.516 0zm0 0"/></symbol><symbol overflow="visible" id="aI"><path d="M30.406-118.875l-15.531 2.39.64 79.047c.172 15.672-4.64 20.157-13.109 20.157h-2.89c-2.72 0-4.313 3.047-4.313 8.64C-4.797-3.203-3.359 0-.484 0h3.687c16.485 0 27.203-9.125 27.203-34.719zm0 0"/></symbol><symbol overflow="visible" id="aJ"><path d="M10.234-33.281C10.406-9.438 19.844 0 38.078 0h4.797c2.719 0 4.813-3.203 4.813-8.64 0-5.594-2.25-8.641-4.813-8.641H40c-9.922 0-14.234-4.953-14.234-17.594v-84l-16.172 2.078zm0 0"/></symbol><symbol overflow="visible" id="aK"><path d="M25.125-34.078c-4.64 12.64-10.406 16.797-22.563 16.797H-.312c-2.735 0-4.485 3.047-4.485 8.64C-4.797-2.875-3.203 0-.313 0h3.829C15.046 0 24-4.64 30.078-15.844 35.203-4.797 43.844 0 57.125 0h32.469c16.969 0 29.922-3.36 38.562-9.281 4.969 6.234 12 9.281 20.156 9.281 3.375 0 4.813-3.203 4.813-8.64 0-5.438-1.438-8.641-4.813-8.641-4.312 0-7.828-.953-10.546-2.719 1.75-3.516 2.718-7.688 2.718-12.156 0-17.438-14.078-33.125-32.797-33.125-23.687 0-45.765 24.969-51.843 48-10.25 0-12.64-3.672-15.844-19.032l-1.594-7.843-14.562 2.562zm81.281-15.203c11.031 0 19.672 9.125 19.672 17.765 0 8.797-8.64 14.235-36.953 14.235H71.203c6.39-17.594 21.438-32 35.203-32zm0 0"/></symbol><symbol overflow="visible" id="aL"><path d="M0 0c10.078 0 16.156-3.844 20.797-13.438l16.156 8.485C46.875.157 50.72.953 55.047.953c5.266 0 11.36-4.156 14.719-12C73.594-4.157 81.28 0 91.203 0 94.078 0 96-3.203 96-8.64c0-5.438-2.078-8.641-4.797-8.641-11.844 0-16.156-3.672-20.484-18.407-4.156-14.39-12.797-22.874-25.922-22.874-12.797 0-21.438 6.078-28.953 23.843C9.594-20.156 7.516-17.28 0-17.28c-3.203 0-4.797 3.047-4.797 8.328C-4.797-3.203-3.359 0 0 0zm43.047-44.156c8.797 0 16.312 8 16.312 18.875 0 6.406-2.562 9.437-6.406 9.437-3.516 0-6.719-.953-13.437-4.312l-13.594-6.89c5.437-12.954 9.922-17.11 17.125-17.11zm0 0"/></symbol><symbol overflow="visible" id="aM"><path d="M32.313-59.203C37.922-40.797 40-29.922 40-19.047 40-1.766 34.406 5.281 18.562 5.281c-4.328 0-8.64-.64-11.359-1.281L.797 28.953C7.516 32.484 19.203 36 30.407 36 56 36 71.202 18.078 71.202-15.36c0-18.406-4.797-35.203-11.36-49.593zm0 0"/></symbol><symbol overflow="visible" id="aN"><path d="M7.516-121.281L9.125 0h5.75l27.36-3.36v-122.562zm0 0"/></symbol><symbol overflow="visible" id="aO"><path d="M36.797 36c22.719 0 39.047-13.438 42.719-36h4c3.843 0 6.406-6.563 6.406-18.406 0-11.828-2.719-18.39-6.406-18.39h-4.47C73.923-62.079 60-75.36 42.235-75.36c-18.078 0-31.672 15.046-31.672 34.406 0 20.64 13.438 34.39 40.313 38.547-1.922 4.64-8.64 8.328-22.078 8.328-6.875 0-13.281-.969-16.64-1.922L5.765 28.953C12.484 32.484 24.156 36 36.796 36zm9.61-69.922c-9.454-.484-13.282-3.36-13.282-8 0-3.844 2.719-6.875 7.36-6.875 6.078 0 11.203 4.797 12.156 15.031zm0 0"/></symbol><symbol overflow="visible" id="aP"><path d="M75.844-52.64c5.437 0 9.281 3.687 9.281 7.843 0 4.797-4.64 8-17.922 8H47.36c7.047-8.797 18.563-15.844 28.485-15.844zM0 0h59.688c32.796 0 55.671-21.438 55.671-45.281 0-21.594-16.953-41.766-35.515-41.766-13.922 0-26.563 8.813-36.969 25.453v-64.328l-34.563 4.64 5.282 84.485H-1.437v.313c-2.72 1.609-4.797 7.843-4.797 18.078C-6.234-6.563-3.688 0 0 0zm0 0"/></symbol><symbol overflow="visible" id="aQ"><path d="M72.64-121.281l1.594 58.562c.485 22.235-4 25.922-43.187 25.922H5.594L10.875 0h28.328C84 0 105.437-18.406 105.437-58.234v-67.532zm-59.515 16.64l27.188 63.36H48l20.313-8.64-21.266-67.032zm-5.766-12c14.079-2.234 28.641-4.156 43.203-4.796v-12.485a247.29 247.29 0 0 0-25.124 1.766 5.5 5.5 0 0 1-.797-2.89c0-3.517 2.718-5.75 5.922-5.75 3.203 0 5.437 1.437 8 4.155l7.671-7.203c-3.672-6.562-9.28-11.672-17.437-11.672-9.438 0-16.797 7.032-16.797 16.313 0 3.36 1.125 6.562 2.406 8.969-2.406.468-4.812.953-7.047 1.437zm0 0"/></symbol><symbol overflow="visible" id="aS"><path d="M5.766-45.922c0 30.078 19.03 48.156 64.796 48.156 20.954 0 38.235-4.64 50.876-13.593C128.483-3.844 137.922 0 148.64 0H156c3.688 0 6.234-6.563 6.234-18.406 0-11.828-2.718-18.39-6.234-18.39h-4.156c-8.797 0-13.125-2.563-14.89-16.329l-2.235-18.39-29.766 3.828 3.203 28c-7.031 3.046-18.719 5.124-31.36 5.124-32.155 0-39.671-2.078-39.671-19.359 0-4.484.313-8.312 1.438-13.125l-28-4.469C8-65.125 5.766-55.687 5.766-45.922zm85.921 70.563C84.641 18.234 76 12.313 69.126 8.953L55.687 28.156c6.72 4 15.672 10.407 22.391 15.688zm0 0"/></symbol><symbol overflow="visible" id="aT"><path d="M14.234-75.203c2.079 9.437 3.36 17.922 3.36 24.969 0 10.078-4.469 13.437-14.719 13.437H0c-3.844 0-6.234 7.203-6.234 18.39C-6.234-8.156-3.844 0 0 0h6.406c27.516 0 44.469-15.844 44.469-44.953C50.875-56 48-71.047 44.312-81.125zm32 113.125l12.97-18.234C52.483 13.593 44.311 8 37.765 4.796l-8.641 12.328C23.047 12 16.156 7.515 10.562 4.797l-12.796 18.25c6.39 3.828 14.875 9.906 21.28 14.875l9.11-12.969c5.766 3.844 12.64 8.813 18.078 12.969zm0 0"/></symbol><symbol overflow="visible" id="aU"><path d="M30.719 36c24 0 38.562-17.594 38.562-37.922V-4c3.203 2.719 7.031 4 11.516 4 3.687 0 6.25-6.563 6.25-18.406 0-11.828-2.734-18.39-6.25-18.39-8.156 0-11.516-2.25-15.516-12.798l-2.078-5.922-28 5.594C38.234-38.875 40-27.203 40-18.875 40-4.312 35.844 5.281 18.562 5.281c-4.328 0-8.64-.64-11.359-1.281L.797 28.953C7.516 32.484 19.203 36 30.719 36zm0 0"/></symbol><symbol overflow="visible" id="aV"><path d="M56.953-36.797c-13.11 0-19.187-4.156-19.187-11.047 0-5.922 4-9.593 11.515-9.593 5.922 0 10.235 2.39 14.407 6.718l19.359-16.968C74.875-82.079 61.28-91.517 46.719-91.517 24-91.516 8.953-76 8.953-55.687c0 8 2.25 14.734 4.813 18.89H0c-4 0-6.234 4.64-6.234 16.797C-6.234-7.687-4 0 0 0h19.516C53.922 0 78.719-4.797 100-14.406l-7.047-26.875c-14.234 3.203-24.953 4.484-36 4.484zm1.125-76.969c-7.031-6.39-15.672-12.312-22.562-15.671l-13.438 19.203c6.719 4 15.688 10.39 22.406 15.671zm0 0"/></symbol><symbol overflow="visible" id="aW"><path d="M115.844 0h5.594c3.843 0 6.078-6.563 6.078-18.406 0-11.828-2.563-18.39-6.079-18.39h-16.64c-7.031 0-9.922-1.61-10.719-6.72 5.125-.797 10.719-1.28 16.64-1.765l3.516-30.407c-15.828 0-24.953-1.75-39.828-5.593-13.453-3.516-22.25-4.953-32.812-4.953-11.516 0-26.078 4.156-36.313 10.718l10.407 25.11c4.953-2.078 13.109-3.828 20-3.828 6.874 0 13.437 1.28 19.03 3.359v.64C25.126-40.796 9.282-26.562 9.282-.796c0 26.719 21.922 46.078 61.282 46.078 18.562 0 35.843-5.125 46.718-11.687l-7.047-26.547c-5.75 2.234-21.109 4.469-31.828 4.469-22.094 0-32.64-6.235-32.64-20.953 0-12.641 8.797-23.204 28.797-29.61C76.64-8.313 92.313 0 115.843 0zm0 0"/></symbol><symbol overflow="visible" id="aX"><path d="M43.203-125.766l-32.797 4.485L12-51.047c.313 11.203-2.234 14.25-8.797 14.25h-3.36c-3.53 0-6.077 6.563-6.077 18.39C-6.234-6.561-4 0-.156 0h4.468c25.282 0 38.891-15.047 38.891-53.594zm0 0"/></symbol><symbol overflow="visible" id="aY"><path d="M6.563-50.078C7.359-12.156 21.124 0 47.843 0h4.47c3.843 0 6.25-6.563 6.25-18.406 0-11.828-2.563-18.39-6.25-18.39h-1.438c-8.64 0-12.64-2.563-12.64-15.36v-73.61l-33.11 4.485zm0 0"/></symbol><symbol overflow="visible" id="aZ"><path d="M19.203-43.047c-3.844 4.484-8.969 6.25-15.844 6.25H0c-3.516 0-6.234 6.563-6.234 18.39C-6.234-6.561-3.844 0 0 0h5.438C15.688 0 24.797-3.688 32-12.313 38.078-4.155 48.797 0 60 0h37.125c15.031 0 28-4.313 37.75-11.36C141.765-3.687 151.203 0 162.078 0c3.844 0 6.234-6.563 6.234-18.406 0-11.828-2.546-18.39-6.234-18.39-4 0-7.203-.485-9.922-1.438.328-2.25.64-4.813.64-7.203 0-21.61-18.077-41.61-37.108-41.61-20.97 0-45.766 21.125-56.485 50.25-5.922 0-8.969-4.328-10.562-15.36l-1.438-9.609-29.922 4.172zm93.922-9.594C119.203-52.64 124-48 124-43.844c0 4.485-4.797 7.047-15.688 7.047H87.689c6.39-9.437 17.593-15.844 25.437-15.844zm0 0"/></symbol><symbol overflow="visible" id="ba"><path d="M0 0c12.484 0 20.797-5.438 26.234-16.313l18.891 9.75c8 4 11.828 5.61 17.281 5.61 4.797 0 10.39-3.688 14.547-9.125C83.203-3.688 90.875 0 99.047 0c3.828 0 6.234-6.563 6.234-18.406 0-11.828-2.562-18.39-6.234-18.39-8.328 0-11.844-2.563-16.172-14.407-6.563-18.078-16.953-28-34.234-28-14.407 0-24.157 8-31.047 24.969C11.687-39.844 8-36.797 0-36.797c-3.688 0-6.234 6.234-6.234 17.594C-6.234-6.875-4 0 0 0zm45.594-53.438c6.89 0 12.812 6.391 12.812 13.438 0 2.406-1.125 3.36-2.718 3.36-1.922 0-3.376-.485-8.172-2.72l-11.203-5.437c1.921-5.766 4.812-8.64 9.28-8.64zm0 0"/></symbol><symbol overflow="visible" id="bb"><path d="M34.234-48c4.172 13.438 7.36 29.281 7.36 43.203 0 19.516-7.672 27.516-22.078 27.516-5.11 0-10.391-1.125-14.235-2.563l-4 10.407c5.125 2.875 13.125 5.125 21.282 5.125 19.359 0 32.156-12.813 32.156-40.641 0-16.328-3.516-33.125-7.844-45.766zm0 0"/></symbol><symbol overflow="visible" id="bc"><path d="M12.484-116.156L12.954 0h2.89l10.39-2.234v-116zm0 0"/></symbol><symbol overflow="visible" id="bd"><path d="M28.797 35.688C48.484 35.688 61.766 24.483 64 0h4.64c2.876 0 4.485-2.719 4.485-7.36 0-4.796-1.766-7.359-4.484-7.359h-4.485c-1.11-25.125-11.36-42.078-29.11-42.078-14.405 0-25.124 12.313-25.124 27.36C9.922-12.157 22.406-1.125 51.844 0c-1.61 15.688-10.407 22.719-26.563 22.719-5.922 0-10.718-1.125-14.406-2.563L7.047 30.563c4.953 2.875 13.265 5.125 21.75 5.125zm17.125-50.25c-18.875-.797-24.969-5.75-24.969-15.032 0-8.484 5.922-14.718 13.61-14.718 9.28 0 16.484 9.265 17.437 30.078zm0 0"/></symbol><symbol overflow="visible" id="be"><path d="M66.406-48.313c9.75 0 17.906 8.797 17.906 18.547 0 8.813-7.671 15.047-35.828 15.047H28.641c8.156-18.718 24.156-33.593 37.765-33.593zM-.313 0H46.72C79.047 0 96.64-10.234 96.64-29.922c0-17.125-13.438-32.156-29.438-32.156-15.516 0-31.844 12.484-41.766 33.766v-89.922l-13.75 2.078L13.767-14.72H-.313c-2.406 0-4.171 2.563-4.171 7.36C-4.484-2.72-2.875 0-.313 0zm0 0"/></symbol><symbol overflow="visible" id="bf"><path d="M76.64-115.688l.485 71.204c.156 22.406-8 29.922-37.766 29.922H6.406L8.484.155H44c33.766 0 45.766-14.562 45.766-40.64v-77.282zm-62.718 15.204l38.39 73.28h3.047l8.485-4.312-37.125-75.687zm-12.328-9.594c11.844-1.922 24.968-3.516 36.64-4v-7.688c-8.312.172-16.312.97-24.156 2.079-1.125-1.438-1.922-3.672-1.922-6.079 0-5.109 3.531-8.156 8.156-8.156 3.375 0 6.094 1.61 8.813 4.64l4.797-4c-3.047-4.952-7.688-8.796-14.234-8.796-8.172 0-15.047 5.922-15.047 14.39 0 3.844 1.28 6.891 2.875 9.126-2.079.328-4 .796-5.922 1.124zm0 0"/></symbol><symbol overflow="visible" id="bh"><path d="M8.953-36.156c0 25.281 13.281 38.39 53.61 38.39 24 0 41.593-5.28 52.796-14.875C120.313-3.687 128.641 0 140 0h4c2.719 0 4.484-2.719 4.484-7.36 0-4.796-1.922-7.359-4.484-7.359h-3.047c-12.312 0-16.64-3.36-18.719-19.203L120-50.234l-12.64 2.078 3.687 23.843C100.64-16.64 86.234-12.483 65.28-12.483c-34.406 0-42.719-6.391-42.719-26.391 0-5.438.797-10.25 1.75-14.078l-12-2.094C10.563-50.234 8.954-44 8.954-36.157zm70.094 55.203c-3.844-3.531-9.281-7.36-13.453-9.453L57.28 21.28c4.157 2.235 9.594 6.235 13.438 9.438zm0 0"/></symbol><symbol overflow="visible" id="bi"><path d="M16.953-61.281c3.844 10.078 6.406 20.328 6.406 29.437 0 11.844-5.437 17.125-20.156 17.125H0c-2.875 0-4.484 2.875-4.484 7.203C-4.484-3.046-2.875 0 0 0h4.797c19.687 0 32.156-10.234 32.156-32 0-11.36-3.36-24.156-7.36-33.281zm16.64 91.844l8-11.047c-3.671-3.36-8.796-7.032-12.796-8.953l-6.235 8.796c-3.515-3.203-8.64-6.875-12.64-8.797l-8 11.032c4 2.093 9.125 5.922 12.797 8.968l6.406-8.796c3.672 1.922 8.797 5.75 12.469 8.797zm0 0"/></symbol><symbol overflow="visible" id="bj"><path d="M22.563 35.688c18.875 0 31.843-14.25 31.843-35.688 0-2.406-.172-4.484-.484-6.078C57.766-2.078 63.516 0 71.203 0c3.031 0 4.313-2.719 4.313-7.36 0-4.796-1.282-7.359-4.313-7.359-10.25 0-14.89-3.36-18.89-15.047l-1.594-4.797-12.313 2.407c2.078 9.922 3.188 19.515 3.188 27.515 0 19.203-8 27.36-22.078 27.36-5.11 0-10.391-1.125-14.235-2.563l-4 10.407c5.125 2.875 13.125 5.125 21.282 5.125zm0 0"/></symbol><symbol overflow="visible" id="bk"><path d="M44.953-14.719c-16.797 0-24-8-24-19.515 0-12.641 8.485-20.813 20.813-20.813 8 0 13.75 3.531 19.515 10.25l8-7.516c-6.875-10.093-17.437-15.843-28.64-15.843-17.766 0-31.516 13.75-31.516 31.36 0 9.921 4.156 17.593 8.797 22.077H0c-3.203 0-4.484 2.078-4.484 6.875C-4.484-3.047-3.204 0 0 0h26.234c25.282 0 40.641-2.563 56-8.953L78.72-20.156c-11.672 3.843-24.64 5.437-33.766 5.437zm1.125-72.484c-3.844-3.516-9.281-7.36-13.437-9.438l-8.328 11.688c4.171 2.234 9.609 6.234 13.453 9.437zm0 0"/></symbol><symbol overflow="visible" id="bl"><path d="M103.516 0H112c3.047 0 4.313-2.563 4.313-7.36 0-4.796-1.266-7.359-4.313-7.359h-10.078c-11.516 0-17.125-4.484-17.766-20.64 4.328-.485 8.797-.797 13.61-1.125l1.593-12.641c-12.64 0-16.312-1.281-31.203-7.36-13.594-5.593-20.312-8.312-30.234-8.312-11.844 0-20 3.672-27.047 8l4.969 10.39c7.36-3.187 13.594-5.28 21.593-5.28 7.688 0 15.047 1.921 31.204 8.812v.469c-36 6.25-57.438 23.843-57.438 50.718C11.203 32.953 29.281 48 59.843 48c17.594 0 32.313-5.125 42.235-13.281l-5.437-9.125c-8.485 5.125-20.641 8.64-34.72 8.64-23.358 0-36.968-9.437-36.968-27.359 0-19.516 16.813-34.39 49.125-40.64C75.047-8.313 85.766 0 103.516 0zm0 0"/></symbol><symbol overflow="visible" id="bm"><path d="M28.64-117.922l-13.28 2.078.484 80.64C16-19.358 11.047-14.718 2.406-14.718H-.313c-2.734 0-4.171 2.563-4.171 7.36C-4.484-2.72-3.204 0-.313 0h3.516C18.72 0 28.641-8.953 28.641-32.797zm0 0"/></symbol><symbol overflow="visible" id="bn"><path d="M10.563-31.047C10.719-9.125 19.687 0 36.953 0h4.813c2.39 0 4.312-2.719 4.312-7.36 0-4.796-2.078-7.359-4.312-7.359h-3.203c-10.25 0-14.72-5.281-14.72-17.922v-85.28l-13.765 1.765zm0 0"/></symbol><symbol overflow="visible" id="bo"><path d="M25.281-31.36C20.484-18.874 14.875-14.718 2.563-14.718H-.313c-2.562 0-4.171 2.563-4.171 7.36C-4.484-2.406-3.047 0-.313 0H3.36c11.688 0 20.328-4.484 26.078-15.516C34.407-4.484 42.72 0 55.688 0H86.72c17.437 0 30.406-3.203 38.875-8.953C130.234-2.875 136.954 0 144.954 0c3.202 0 4.483-2.719 4.483-7.36 0-4.64-1.28-7.359-4.484-7.359-4.64 0-8.312-1.281-11.187-3.36 1.922-3.515 2.875-7.358 2.875-11.843 0-16.953-13.594-32.312-31.047-32.312-23.031 0-44.469 24-50.875 47.515-10.875 0-13.766-4-16.797-19.047l-1.766-8.312-12.468 2.234zm79.203-17.124c11.032 0 20 9.765 20 19.203 0 8.968-8.968 14.562-38.25 14.562H67.688c6.718-18.562 22.234-33.765 36.796-33.765zm0 0"/></symbol><symbol overflow="visible" id="bp"><path d="M0 0c9.766 0 15.688-3.688 20.313-13.125L36.64-4.797C46.875.313 50.719 1.281 54.875 1.281c5.125 0 10.719-4.156 13.766-12.156C72.64-4 80.156 0 89.437 0c2.876 0 4.485-2.719 4.485-7.36 0-4.64-1.766-7.359-4.484-7.359-11.36 0-16.157-4-20-18.406-3.844-14.234-12.485-22.563-24.954-22.563-12.328 0-20.797 6.094-28.172 23.688C10.407-17.922 7.688-14.719 0-14.719c-3.047 0-4.484 2.563-4.484 7.031C-4.484-2.718-3.204 0 0 0zm42.875-43.203c9.281 0 16.64 8.328 16.64 20 0 6.89-2.562 10.078-6.562 10.078-3.36 0-6.719-.953-13.75-4.469L24.641-24.64c5.765-13.593 10.562-18.562 18.234-18.562zm0 0"/></symbol><symbol overflow="visible" id="bq"><path d="M35.36-44.484C40-30.875 42.718-14.078 42.718-2.078c0 20.797-8.157 30.39-23.032 30.39-4.968 0-10.406-1.109-14.734-3.03l-2.39 5.593c4.64 2.563 12 4.484 18.718 4.484 17.438 0 28.485-12.312 28.485-37.922 0-13.593-3.047-30.718-7.844-43.671zm0 0"/></symbol><symbol overflow="visible" id="br"><path d="M13.922-114.234L14.078 0h1.438l5.437-1.922v-113.594zm0 0"/></symbol><symbol overflow="visible" id="bs"><path d="M25.766 35.36c19.187 0 32-12 32.64-35.36h5.11c2.078 0 3.53-1.438 3.53-3.844 0-2.562-1.452-4-3.53-4h-5.11c-.968-25.922-10.406-41.11-26.25-41.11-12.953 0-22.562 11.188-22.562 23.673 0 16.328 10.89 24.797 42.093 25.125-.484 19.203-10.406 28.468-28.171 28.468-4.797 0-10.235-1.109-14.563-3.03l-2.39 5.593c4.796 2.563 12.484 4.484 19.203 4.484zM44.953-7.845C22.234-8.64 16-14.078 16-25.28c0-9.438 7.203-16.797 15.844-16.797 10.875 0 18.875 10.562 20 34.39zm0 0"/></symbol><symbol overflow="visible" id="bt"><path d="M63.203-46.234c10.563 0 20 11.03 20 22.875 0 9.437-9.125 15.515-40.969 15.515H21.437c8-20.953 24.97-38.39 41.766-38.39zM0 0h42.234c31.532 0 47.36-7.047 47.36-24 0-15.203-12.313-29.766-26.078-29.766-17.594 0-34.72 15.532-43.828 37.282v-99.032l-7.047 1.282.796 106.39H0c-2.078 0-3.516 1.438-3.516 4C-3.516-1.438-2.078 0 0 0zm0 0"/></symbol><symbol overflow="visible" id="bu"><path d="M80-114.234l.156 76.312c0 23.36-8.469 30.078-35.515 30.078H8.797L9.766 0h37.922c29.265 0 39.187-11.844 39.187-34.563v-80.953zm-63.047 16l41.61 75.03h1.593l4.328-2.562-40.968-76zM4-106.563c10.234-1.593 21.125-2.718 31.36-3.203v-4.64c-7.672.172-14.876.812-21.766 1.765-1.438-1.593-2.39-4-2.39-6.562 0-5.438 3.843-8.797 8.796-8.797 3.688 0 6.406 2.078 8.64 4.797l3.047-2.39c-2.562-4-6.562-7.36-12-7.36-7.203 0-12.812 5.266-12.812 12.797 0 3.203.969 6.078 2.406 8.156-1.765.313-3.515.64-5.281.953zm0 0"/></symbol><symbol overflow="visible" id="bw"><path d="M11.688-32.64c0 22.874 11.187 34.874 49.109 34.874 25.922 0 41.61-5.921 52.328-16.312C117.281-3.36 125.438 0 136.485 0h3.827c2.094 0 3.532-1.438 3.532-3.844 0-2.562-1.61-4-3.531-4h-2.72c-13.593 0-18.874-4.312-20.952-19.515l-2.235-16.485-6.719 1.282 3.188 21.765c-9.75 9.75-24.156 15.203-48.64 15.203-33.75 0-43.36-8-43.36-28.328 0-5.766.969-10.875 2.078-15.203l-6.078-1.281c-1.594 4.484-3.188 10.562-3.188 17.765zm61.265 51.515c-2.39-2.234-6.39-5.11-9.437-6.563l-5.75 8.172c2.875 1.594 6.547 4.47 9.28 6.563zm0 0"/></symbol><symbol overflow="visible" id="bx"><path d="M18.406-57.922C22.72-48 25.594-37.438 25.594-27.203c0 13.61-6.547 19.36-21.907 19.36H0c-2.234 0-3.516 1.609-3.516 3.843 0 2.406 1.282 4 3.516 4h5.125c16.64 0 27.516-8.313 27.516-27.844 0-11.672-3.844-24.156-7.688-32.468zm17.75 76.64c-2.234-2.234-6.078-4.952-8.953-6.234l-5.437 7.672c2.718 1.61 6.234 4.328 8.797 6.25zm-18.078 0c-2.234-2.234-6.078-4.952-8.953-6.234l-5.438 7.672c2.72 1.61 6.235 4.328 8.797 6.25zm0 0"/></symbol><symbol overflow="visible" id="by"><path d="M21.438 35.36c17.28 0 28.328-13.282 28.328-35.36 0-2.234-.172-5.594-.641-8 3.516 4.797 9.281 8 19.188 8 2.562 0 3.53-1.438 3.53-3.844 0-2.562-.968-4-3.53-4-11.516 0-16.626-3.843-20.313-14.875L46.406-28l-6.562 1.438c1.922 9.125 2.875 18.078 2.875 25.28 0 19.516-8.157 29.595-23.032 29.595-4.968 0-10.406-1.11-14.734-3.032L2.72 30.875c4.64 2.563 11.844 4.484 18.718 4.484zm0 0"/></symbol><symbol overflow="visible" id="bz"><path d="M41.766-7.844c-17.766 0-25.922-9.281-25.922-22.234 0-14.563 10.234-24.328 24-24.328 8.468 0 15.031 3.843 20.797 11.531l4.64-3.844C58.875-56 50.234-61.28 39.203-61.28c-17.437 0-29.922 13.125-29.922 30.078 0 10.25 4.64 18.719 11.36 23.36H0c-2.563 0-3.516 1.28-3.516 3.843 0 2.406.954 4 3.516 4h28.64c22.407 0 34.72-2.234 48-7.844l-2.078-5.75c-11.046 4.156-25.124 5.75-32.796 5.75zm-.485-71.031c-2.406-2.25-6.406-5.125-9.437-6.563l-5.766 8.157c2.875 1.594 6.563 4.484 9.281 6.562zm0 0"/></symbol><symbol overflow="visible" id="bA"><path d="M103.844 0h4.953C111.047 0 112-1.281 112-3.844c0-2.562-.953-4-3.203-4h-4.64c-15.36 0-22.876-4-23.36-25.593 3.844-.485 8-.641 12.156-.797l.969-6.407c-10.563 0-13.61-1.28-28.156-8C52-55.047 45.594-57.92 36.484-57.92c-9.28 0-17.437 2.874-24 7.046l3.032 5.75c5.609-3.031 12.796-5.75 21.125-5.75 8.312 0 16 2.875 36 12.64v.47c-37.766 4.484-60.797 21.609-60.797 49.609 0 22.562 15.203 36.953 44.468 36.953 16.813 0 31.047-4.797 40.641-13.75l-3.516-4.813c-8 6.72-20.796 10.891-36.156 10.891-24.64 0-38.234-10.719-38.234-30.078 0-23.688 20.312-39.36 56.312-44C76-6.563 86.234 0 103.844 0zm0 0"/></symbol><symbol overflow="visible" id="bB"><path d="M23.844-115.516l-7.047 1.282.156 84.953c.172 16.797-5.265 21.437-14.39 21.437h-2.72c-2.405 0-3.359 1.438-3.359 4C-3.516-1.438-2.562 0-.156 0h3.203C16 0 23.844-8.484 23.844-27.36zm0 0"/></symbol><symbol overflow="visible" id="bC"><path d="M11.688-25.125C11.688-8.156 19.358 0 33.922 0h4.64c1.75 0 3.36-1.438 3.36-3.844 0-2.562-1.766-4-3.516-4H34.72c-11.516 0-16.157-5.75-16.157-18.562v-89.11l-7.046 1.282zm0 0"/></symbol><symbol overflow="visible" id="bD"><path d="M25.438-24.156C20.483-11.516 15.203-7.844 2.563-7.844H0c-2.234 0-3.516 1.282-3.516 4C-3.516-1.125-2.406 0 0 0h3.047C14.875 0 22.562-3.844 28-14.719 32.156-3.844 39.688 0 52 0h27.047c18.719 0 31.672-2.563 39.187-8 4 5.281 10.079 8 17.454 8 2.546 0 3.515-1.594 3.515-3.844 0-2.39-.969-4-3.516-4-5.609 0-9.765-1.75-12.64-5.11 2.078-3.046 3.187-6.562 3.187-11.046 0-15.203-12.312-29.766-26.546-29.766-20.813 0-40.813 21.125-48.172 45.922-12.641 0-16.953-4.797-19.516-18.562l-1.766-9.907-6.718 1.266zm73.921-22.078C110.406-46.234 120-34.875 120-23.36c0 9.593-9.594 15.515-41.766 15.515H57.922c7.516-20.953 24.312-38.39 41.437-38.39zm0 0"/></symbol><symbol overflow="visible" id="bE"><path d="M0 0c8.64 0 14.234-3.516 18.875-12l16.969 7.844C46.562.797 50.406 1.922 54.234 1.922c4.641 0 9.282-3.688 11.36-12.156C69.766-3.516 77.125 0 84.797 0c2.562 0 3.516-1.594 3.516-3.844 0-2.39-.954-4-3.516-4-10.078 0-16.156-4.64-19.031-18.078-3.047-13.922-11.532-21.594-22.407-21.594-10.718 0-19.047 6.078-25.922 23.203C12.313-11.688 8.313-7.843 0-7.843c-2.563 0-3.516 1.437-3.516 3.843 0 2.563.954 4 3.516 4zm42.234-40.484c10.563 0 17.922 9.125 17.922 23.047 0 8.484-2.718 11.671-6.875 11.671-3.047 0-7.203-1.109-15.047-4.64l-16.953-7.828c6.235-15.047 12-22.25 20.953-22.25zm0 0"/></symbol></defs><g fill="#231f20"><use xlink:href="#a" x="135.126" y="977.063"/><use xlink:href="#b" x="199.606" y="977.063"/><use xlink:href="#c" x="236.086" y="977.063"/><use xlink:href="#d" x="303.126" y="977.063"/><use xlink:href="#e" x="409.366" y="977.063"/><use xlink:href="#b" x="511.126" y="977.063"/><use xlink:href="#f" x="548.566" y="977.063"/><use xlink:href="#g" x="583.126" y="977.063"/><use xlink:href="#h" x="726.006" y="977.063"/><use xlink:href="#i" x="777.19" y="977.063"/><use xlink:href="#j" x="847.43" y="977.063"/><use xlink:href="#f" x="935.27" y="977.063"/><use xlink:href="#k" x="969.83" y="977.063"/><use xlink:href="#l" x="1080.71" y="977.063"/><use xlink:href="#m" x="1120.71" y="977.063"/><use xlink:href="#n" x="1161.35" y="977.063"/><use xlink:href="#o" x="1303.27" y="977.063"/><use xlink:href="#l" x="1391.27" y="977.063"/><use xlink:href="#b" x="1431.27" y="977.063"/><use xlink:href="#p" x="173.206" y="179.942"/><use xlink:href="#q" x="234.006" y="179.942"/><use xlink:href="#r" x="267.286" y="179.942"/><use xlink:href="#s" x="328.726" y="179.942"/><use xlink:href="#t" x="428.406" y="179.942"/><use xlink:href="#q" x="528.566" y="179.942"/><use xlink:href="#u" x="561.846" y="179.942"/><use xlink:href="#v" x="597.366" y="179.942"/><use xlink:href="#w" x="736.246" y="179.942"/><use xlink:href="#x" x="779.926" y="179.942"/><use xlink:href="#y" x="847.126" y="179.942"/><use xlink:href="#u" x="929.686" y="179.942"/><use xlink:href="#z" x="965.206" y="179.942"/><use xlink:href="#A" x="1072.406" y="179.942"/><use xlink:href="#B" x="1108.726" y="179.942"/><use xlink:href="#C" x="1145.846" y="179.942"/><use xlink:href="#D" x="1277.846" y="179.942"/><use xlink:href="#A" x="1360.886" y="179.942"/><use xlink:href="#q" x="1397.206" y="179.942"/><g><use xlink:href="#E" x="147.446" y="711.303"/></g><g><use xlink:href="#F" x="210.966" y="711.303"/></g><g><use xlink:href="#G" x="246.646" y="711.303"/><use xlink:href="#H" x="312.086" y="711.303"/><use xlink:href="#I" x="416.566" y="711.303"/><use xlink:href="#F" x="518.006" y="711.303"/><use xlink:href="#J" x="554.326" y="711.303"/><use xlink:href="#K" x="589.206" y="711.303"/><use xlink:href="#L" x="730.966" y="711.303"/></g><g><use xlink:href="#M" x="780.23" y="711.303"/><use xlink:href="#N" x="849.67" y="711.303"/><use xlink:href="#J" x="936.07" y="711.303"/><use xlink:href="#O" x="970.95" y="711.303"/><use xlink:href="#P" x="1080.71" y="711.303"/><use xlink:href="#Q" x="1119.75" y="711.303"/><use xlink:href="#R" x="1159.43" y="711.303"/><use xlink:href="#S" x="1298.63" y="711.303"/><use xlink:href="#P" x="1385.35" y="711.303"/><use xlink:href="#F" x="1424.39" y="711.303"/></g><g><use xlink:href="#T" x="64.406" y="2039.783"/></g><g><use xlink:href="#U" x="137.206" y="2039.783"/></g><g><use xlink:href="#V" x="180.566" y="2039.783"/><use xlink:href="#W" x="258.646" y="2039.783"/><use xlink:href="#X" x="376.246" y="2039.783"/><use xlink:href="#U" x="486.326" y="2039.783"/><use xlink:href="#Y" x="532.086" y="2039.783"/><use xlink:href="#Z" x="562.486" y="2039.783"/><use xlink:href="#aa" x="714.006" y="2039.783"/></g><g><use xlink:href="#ab" x="775.91" y="2039.783"/><use xlink:href="#ac" x="853.03" y="2039.783"/><use xlink:href="#Y" x="952.55" y="2039.783"/><use xlink:href="#ad" x="982.95" y="2039.783"/><use xlink:href="#ae" x="1100.71" y="2039.783"/><use xlink:href="#af" x="1149.19" y="2039.783"/><use xlink:href="#ag" x="1197.51" y="2039.783"/><use xlink:href="#ah" x="1353.83" y="2039.783"/><use xlink:href="#ae" x="1449.51" y="2039.783"/><use xlink:href="#U" x="1497.99" y="2039.783"/></g><g><use xlink:href="#ai" x="95.926" y="1774.023"/></g><g><use xlink:href="#aj" x="164.726" y="1774.023"/></g><g><use xlink:href="#ak" x="204.886" y="1774.023"/><use xlink:href="#al" x="278.166" y="1774.023"/><use xlink:href="#am" x="391.126" y="1774.023"/><use xlink:href="#aj" x="496.566" y="1774.023"/><use xlink:href="#an" x="538.646" y="1774.023"/><use xlink:href="#ao" x="571.286" y="1774.023"/><use xlink:href="#ap" x="718.806" y="1774.023"/></g><g><use xlink:href="#aq" x="777.03" y="1774.023"/><use xlink:href="#ar" x="850.95" y="1774.023"/><use xlink:href="#an" x="945.03" y="1774.023"/><use xlink:href="#as" x="977.67" y="1774.023"/><use xlink:href="#at" x="1092.39" y="1774.023"/><use xlink:href="#au" x="1137.03" y="1774.023"/><use xlink:href="#av" x="1181.83" y="1774.023"/><use xlink:href="#aw" x="1332.87" y="1774.023"/><use xlink:href="#at" x="1425.67" y="1774.023"/><use xlink:href="#aj" x="1470.31" y="1774.023"/></g><g><use xlink:href="#ax" x="112.886" y="1508.263"/></g><g><use xlink:href="#ay" x="179.606" y="1508.263"/></g><g><use xlink:href="#az" x="218.166" y="1508.263"/><use xlink:href="#aA" x="288.726" y="1508.263"/><use xlink:href="#aB" x="399.126" y="1508.263"/><use xlink:href="#ay" x="502.006" y="1508.263"/><use xlink:href="#aC" x="542.166" y="1508.263"/><use xlink:href="#aD" x="576.086" y="1508.263"/><use xlink:href="#aE" x="721.526" y="1508.263"/></g><g><use xlink:href="#aF" x="777.67" y="1508.263"/><use xlink:href="#aG" x="849.83" y="1508.263"/><use xlink:href="#aC" x="941.03" y="1508.263"/><use xlink:href="#aH" x="974.95" y="1508.263"/><use xlink:href="#aI" x="1088.07" y="1508.263"/><use xlink:href="#aJ" x="1130.47" y="1508.263"/><use xlink:href="#aK" x="1173.35" y="1508.263"/><use xlink:href="#aL" x="1321.67" y="1508.263"/><use xlink:href="#aI" x="1412.87" y="1508.263"/><use xlink:href="#ay" x="1455.27" y="1508.263"/></g><g><use xlink:href="#aM" x="29.046" y="2305.383"/></g><g><use xlink:href="#aN" x="106.326" y="2305.383"/></g><g><use xlink:href="#aO" x="153.046" y="2305.383"/><use xlink:href="#aP" x="236.566" y="2305.383"/><use xlink:href="#aQ" x="359.446" y="2305.383"/><use xlink:href="#aN" x="474.806" y="2305.383"/><use xlink:href="#aR" x="524.566" y="2305.383"/><use xlink:href="#aS" x="552.246" y="2305.383"/><use xlink:href="#aT" x="708.246" y="2305.383"/></g><g><use xlink:href="#aU" x="774.47" y="2305.383"/><use xlink:href="#aV" x="855.27" y="2305.383"/><use xlink:href="#aR" x="961.03" y="2305.383"/><use xlink:href="#aW" x="988.71" y="2305.383"/><use xlink:href="#aX" x="1109.99" y="2305.383"/><use xlink:href="#aY" x="1163.11" y="2305.383"/><use xlink:href="#aZ" x="1215.43" y="2305.383"/><use xlink:href="#ba" x="1377.51" y="2305.383"/><use xlink:href="#aX" x="1476.55" y="2305.383"/><use xlink:href="#aN" x="1529.67" y="2305.383"/></g><g><use xlink:href="#bb" x="126.166" y="1242.662"/></g><g><use xlink:href="#bc" x="191.606" y="1242.662"/></g><g><use xlink:href="#bd" x="229.046" y="1242.662"/><use xlink:href="#be" x="297.686" y="1242.662"/><use xlink:href="#bf" x="405.846" y="1242.662"/><use xlink:href="#bc" x="508.086" y="1242.662"/><use xlink:href="#bg" x="546.806" y="1242.662"/><use xlink:href="#bh" x="581.046" y="1242.662"/><use xlink:href="#bi" x="725.046" y="1242.662"/></g><g><use xlink:href="#bj" x="778.63" y="1242.662"/><use xlink:href="#bk" x="849.83" y="1242.662"/><use xlink:href="#bg" x="939.27" y="1242.662"/><use xlink:href="#bl" x="973.51" y="1242.662"/><use xlink:href="#bm" x="1085.35" y="1242.662"/><use xlink:href="#bn" x="1126.47" y="1242.662"/><use xlink:href="#bo" x="1168.23" y="1242.662"/><use xlink:href="#bp" x="1313.19" y="1242.662"/><use xlink:href="#bm" x="1402.63" y="1242.662"/><use xlink:href="#bc" x="1443.75" y="1242.662"/></g><g><use xlink:href="#bq" x="161.686" y="445.543"/><use xlink:href="#br" x="224.086" y="445.543"/><use xlink:href="#bs" x="258.806" y="445.543"/><use xlink:href="#bt" x="322.326" y="445.543"/><use xlink:href="#bu" x="424.406" y="445.543"/><use xlink:href="#br" x="525.206" y="445.543"/><use xlink:href="#bv" x="559.926" y="445.543"/><use xlink:href="#bw" x="595.126" y="445.543"/><use xlink:href="#bx" x="735.446" y="445.543"/></g><g><use xlink:href="#by" x="781.83" y="445.543"/><use xlink:href="#bz" x="850.15" y="445.543"/><use xlink:href="#bv" x="934.63" y="445.543"/><use xlink:href="#bA" x="969.83" y="445.543"/><use xlink:href="#bB" x="1078.31" y="445.543"/><use xlink:href="#bC" x="1115.91" y="445.543"/><use xlink:href="#bD" x="1154.31" y="445.543"/><use xlink:href="#bE" x="1289.99" y="445.543"/><use xlink:href="#bB" x="1374.79" y="445.543"/><use xlink:href="#br" x="1412.39" y="445.543"/></g></g></svg>