<?xml version="1.0" encoding="UTF-8"?><svg enable-background="new 0 0 1415 1800" height="1800px" viewBox="0 0 1415 1800" width="1415px" x="0px" xml:space="preserve" xmlns="http://www.w3.org/2000/svg" xmlns:xlink="http://www.w3.org/1999/xlink" y="0px"><defs><symbol overflow="visible"><path d="M10-67.625V0h48.03v-67.625zM50.484-4.89H17.64l16.422-24.594zM31.11-33.767L14.796-9.078v-49.266zM53.343-9.078L36.922-33.766l16.422-24.578zM34.062-38.14l-16.42-24.594h32.842zm0 0"/></symbol><symbol id="f68c1bd7a" overflow="visible"><path d="M32.734 16.422c18.157 0 30-6.735 30-17.03 0-7.142-5.61-12.25-21.625-14.892l-1.235 5.094C52.735-8.47 57.328-5 57.328-.61c0 5.5-8.672 10.61-24.28 10.61C18.56 10 10.702 4.797 10.702-6.016c0-4.39 1.328-8.578 3.172-12.546l-4.688-1.735C6.735-15.907 4.891-10.61 4.891-4.89c0 13.25 9.485 21.312 27.844 21.312zm9.907 9.484c-1.843-1.734-4.5-3.672-6.64-4.797l-4.078 5.812c2.047 1.234 4.594 3.172 6.53 4.703zm-11.734 0c-1.843-1.734-4.484-3.672-6.625-4.797l-4.077 5.812c2.03 1.234 4.578 3.172 6.516 4.703zm0 0"/></symbol><symbol id="f68c1bd7b" overflow="visible"><path d="M1.422-73.344l.312 49.78v3.064c0 3.97-1.53 5.297-3.875 5.297-1.016 0-2.14-.094-2.954-.297 0 2.953 1.938 4.484 4.282 4.594 5.296 0 8.468-3.578 8.468-11.438V-74.36zm0 0"/></symbol><symbol id="f68c1bd7c" overflow="visible"><path d="M50.078-73.234l.203 47.42c0 14.69-5.296 19.08-23.25 19.08H5L5.813 0h23.562c19.78 0 26.72-8.266 26.72-23.563V-74.25zM10-63.234l25.797 47.422h1.437l3.672-2.032-25.093-48.453zM4.594-68.03c1.015-2.345 2.03-2.75 4.484-2.75 3.063 0 5.72.905 9.594.905 3.562 0 6.015-1.422 7.953-4.28l-2.344-2.032c-1.53 1.624-2.858 2.234-5.514 2.234-4.39 0-6.328-.922-9.688-.922-3.562 0-6.422 1.03-7.75 5.828zm0 0"/></symbol><symbol id="f68c1bd7d" overflow="visible"><path d="M8.47-73.344L8.67 0H10l4.688-1.328v-73.03zm0 0"/></symbol><symbol id="f68c1bd7e" overflow="visible"><path/></symbol><symbol id="f68c1bd7f" overflow="visible"><path d="M6.828-21.625c0 15.094 7.547 23.047 32.344 23.047 16.11 0 26.516-3.563 33.547-9.985C75.577-2.25 80.687 0 87.827 0h2.547c1.53 0 2.547-1.22 2.547-3.36 0-2.156-1.125-3.374-2.547-3.374H88.53c-8.358 0-11.42-2.454-12.843-12.344L74.25-29.484l-5.703.922 2.14 14.484c-6.328 5.72-15.5 8.78-30.187 8.78-21.734 0-27.547-4.702-27.547-17.546 0-3.578.516-6.734 1.22-9.484l-5.298-1.03C7.75-30.3 6.828-26.423 6.828-21.626zm41.22 33.766c-1.94-1.843-4.798-3.874-7.048-5l-4.28 6.126c2.14 1.218 4.89 3.265 6.936 4.89zm0 0"/></symbol><symbol id="f68c1bd7g" overflow="visible"><path d="M36.625-17.64c-2.656 8.765-4.5 10.906-8.266 10.906-2.97 0-5.61-1.22-9.89-5.813l4.78-10.5-4.78-2.344-4.704 9.89C10.61-8.672 7.953-6.734.516-6.734h-.72c-1.42 0-2.25 1.125-2.25 3.468 0 2.14.72 3.266 2.25 3.266h1.22C7.75 0 12.03-1.734 15.703-7.344 20.703-1.844 24.78 0 28.97 0c3.67 0 6.327-1.422 8.764-5.516C42.844-1.626 47.53 0 52.016 0c6.64 0 11.53-4.89 11.53-15.703 0-6.438-1.42-12.453-3.874-18.36l-5.72 1.83c2.345 5.81 3.782 11.217 3.782 16.733 0 6.11-2.047 8.766-6.53 8.766-3.063 0-6.423-1.016-11.017-4.282.407-1.125.72-2.343 1.126-3.578l3.36-10.797-5.204-1.64zm0 0"/></symbol><symbol id="f68c1bd7h" overflow="visible"><path d="M7.14-17.438C7.235-5.405 12.44 0 22.438 0h2.86c1.422 0 2.453-1.22 2.453-3.36 0-2.156-1.125-3.374-2.453-3.374h-2.14c-7.14 0-10-3.47-10-11.625v-55.89l-6.22.906zm0 0"/></symbol><symbol id="f68c1bd7i" overflow="visible"><path d="M5.516-28.25c4.78-2.344 8.765-3.578 13.25-3.578 5.61 0 10.812 1.844 23.468 8.984v.297C25.812-9.39 19.078-6.734 3.266-6.734H-.313c-1.42 0-2.14 1.734-2.14 3.468C-2.453-1.422-1.53 0-.313 0h2.454c18.36 0 26.516-4.594 40.5-16.828.5-.516 1.016-.922 1.422-1.328C44.984-4.39 50.688 0 60.892 0h1.936c1.734 0 2.453-1.125 2.453-3.36 0-2.156-.718-3.374-2.452-3.374h-2.14c-8.36 0-11.83-3.266-12.032-14.282.813-.203 1.625-.297 2.75-.297h6.625l.72-5.515c-10.61 0-12.14-.297-20.297-4.594-8.562-4.484-12.75-6.422-19.484-6.422-6.736 0-11.736 2.25-15.907 4.797zm0 0"/></symbol><symbol id="f68c1bd7j" overflow="visible"><path d="M16.313-74.25l-5.907 1.016.203 53.03c0 10.517-3.376 13.47-8.985 13.47H-.11c-1.624 0-2.343 1.218-2.343 3.375 0 2.14.61 3.36 2.344 3.36h2.047c8.97 0 14.376-5.516 14.376-18.766zm0 0"/></symbol><symbol id="f68c1bd7k" overflow="visible"><path d="M11.328-37.734c2.64 6.422 4.375 12.953 4.375 19.172 0 8.36-3.875 11.828-13.453 11.828H0c-1.53 0-2.453 1.328-2.453 3.375C-2.453-1.42-1.53 0 0 0h3.156c11.438 0 18.672-5.813 18.672-18.766 0-7.453-2.25-15.406-4.687-20.906zm5.406 50.484c-1.937-1.844-4.797-3.875-7.047-5l-4.28 6.125c2.14 1.22 4.89 3.266 6.937 4.89zm0 0"/></symbol><symbol id="f68c1bd7l" overflow="visible"><path d="M19.375-33.047C10.297-28.86 6.53-24.28 6.53-18.267c0 7.564 6.11 12.86 13.97 12.86 5.11 0 9.28-2.343 12.547-6.327C34.172-3.984 38.767 0 46.72 0h2.858c1.828 0 2.547-1.125 2.547-3.266 0-2.25-.72-3.468-2.547-3.468h-2.25c-6.734 0-8.875-3.266-9.187-11.625l-1.015-30.093-6.016.812.406 8.874zm1.53 21.922c-5.296 0-8.764-3.25-8.764-7.75 0-3.766 2.75-6.516 10.204-9.89l9.375-4.39.608 16.014c-3.766 4.39-7.03 6.015-11.422 6.015zM44.173-59.97c-1.844-1.733-4.5-3.67-6.64-4.796l-4.08 5.813c2.048 1.22 4.595 3.156 6.532 4.687zm-11.734 0c-1.844-1.733-4.485-3.67-6.626-4.796l-4.093 5.813c2.046 1.22 4.593 3.156 6.53 4.687zm0 0"/></symbol><symbol id="f68c1bd7m" overflow="visible"><path d="M14.078-25.297c0-6.828 5.406-12.437 10.406-12.437 5 0 10.297 5.5 10.297 12.343 0 6.718-4.686 12.03-10.296 14.578-5.515-2.547-10.406-7.657-10.406-14.485zm25.797-.406c0-9.89-7.234-18.063-15.5-18.063-8.063 0-15.5 8.172-15.5 18.157 0 6.844 2.86 12.547 8.672 17.14C13.062-7.343 7.03-6.733-.11-6.733c-1.734 0-2.437 1.53-2.437 3.265C-2.547-1.53-1.844 0-.11 0c9.907 0 18.157-1.328 24.485-4.188C30.595-1.124 37.735 0 47.125 0c1.828 0 2.547-1.53 2.547-3.47 0-1.827-.72-3.264-2.547-3.264-7.953 0-13.063-.61-16.734-1.532 6.126-4.28 9.485-10.296 9.485-17.437zM34.47-54.156c-1.83-1.735-4.486-3.672-6.626-4.797l-4.078 5.812c2.047 1.218 4.593 3.156 6.53 4.687zm-11.72 0c-1.844-1.735-4.484-3.672-6.64-4.797l-4.08 5.812c2.048 1.218 4.595 3.156 6.533 4.687zm0 0"/></symbol><symbol id="f68c1bd7n" overflow="visible"><path d="M0 0h1.625c5.406 0 9.39-2.344 11.64-7.14C15.204-2.75 19.376 0 24.782 0h2.454c1.328 0 2.344-1.22 2.344-3.36 0-2.156-1.125-3.374-2.453-3.374h-1.313c-6.437 0-9.5-3.063-9.5-11.735v-55.78l-5.906 1.016.406 59.562c-2.046 5-5 6.938-10 6.938H0c-1.625 0-2.453 1.218-2.453 3.468S-1.733 0 0 0zm0 0"/></symbol><symbol id="f68c1bd7o" overflow="visible"><path d="M29.484-29.28c7.032 0 10.813 2.56 10.813 6.53 0 3.672-3.266 7.25-9.5 10.11-9.485-8.063-13.563-11.016-17.328-13.672 3.967-1.532 10.296-2.97 16.014-2.97zm-4.906 18.468l.313.312C18.048-8.156 8.267-6.734 0-6.734c-1.734 0-2.453 1.53-2.453 3.265C-2.453-1.53-1.843 0 0 0c11.328 0 21.938-2.14 29.984-6.016C35.797-1.422 41 0 50.594 0h2.656c1.625 0 2.547-1.016 2.547-3.36 0-2.25-.922-3.374-2.547-3.374h-3.266c-7.86 0-11.328-.813-14.28-2.547 6.42-4.08 9.577-8.564 9.577-14.283 0-7.14-5.608-11.53-15.702-11.53-7.234 0-14.28 1.64-20.703 4.296l-.61 6.828c4.08 2.657 8.36 6.017 16.313 13.157zm0 0"/></symbol><symbol id="f68c1bd7p" overflow="visible"><path d="M16.22-17.14C13.062-9.188 9.593-6.735 1.624-6.735H-.11c-1.515 0-2.343 1.218-2.343 3.468S-1.733 0-.11 0h2.157c7.344 0 12.547-2.656 16.11-9.484C20.906-2.656 26.016 0 33.766 0h2.64c1.53 0 2.562-1.22 2.562-3.36 0-2.156-1.126-3.374-2.564-3.374H34.47c-8.25 0-11.22-2.454-12.642-12.75L19.984-34.47l-5.703.814zm11.124-29.985c-1.844-1.734-4.5-3.672-6.64-4.797l-4.08 5.813c2.048 1.235 4.595 3.172 6.532 4.704zm-11.735 0c-1.844-1.734-4.485-3.672-6.64-4.797L4.89-46.11c2.048 1.235 4.594 3.172 6.532 4.704zm0 0"/></symbol><symbol id="f68c1bd7q" overflow="visible"><path d="M0 0c5.72 0 9.484-2.25 12.438-7.953l10.61 5.094C29.78.407 32.233 1.017 34.78 1.017c3.064 0 6.22-2.344 7.86-7.75C45.188-2.344 49.876 0 55.28 0c1.642 0 2.454-1.328 2.454-3.36 0-2.046-.922-3.374-2.453-3.374-6.827 0-10.296-2.75-12.436-11.532-2.14-8.968-7.657-13.968-14.89-13.968-7.25 0-12.657 3.875-17.142 14.89C7.345-8.97 5.202-6.734 0-6.734c-1.734 0-2.453 1.218-2.453 3.265C-2.453-1.22-1.843 0 0 0zm27.125-26.516c6.328 0 11.125 5.703 11.125 13.97 0 5-1.734 7.03-4.39 7.03-2.032 0-4.485-.61-9.282-2.843l-10.203-4.906c3.89-9.171 7.344-13.25 12.75-13.25zm0 0"/></symbol><symbol id="f68c1bd7r" overflow="visible"><path d="M16.22-17.14C13.062-9.188 9.593-6.735 1.624-6.735H-.11c-1.515 0-2.343 1.218-2.343 3.468S-1.733 0-.11 0h2.157c7.344 0 12.547-2.656 16.11-9.484C20.906-2.656 26.016 0 33.766 0h2.64c1.53 0 2.562-1.22 2.562-3.36 0-2.156-1.126-3.374-2.564-3.374H34.47c-8.25 0-11.22-2.454-12.642-12.75L19.984-34.47l-5.703.814zm13.968 29.28c-1.83-1.734-4.485-3.67-6.625-4.796l-4.08 5.812c2.033 1.22 4.595 3.156 6.533 4.688zm-11.72 0c-1.843-1.734-4.5-3.67-6.64-4.796L7.75 13.156c2.047 1.22 4.594 3.156 6.53 4.688zm0 0"/></symbol><symbol id="f68c1bd7s" overflow="visible"><path d="M11.328-37.734c2.64 6.422 4.375 12.953 4.375 19.172 0 8.36-3.875 11.828-13.453 11.828H0c-1.53 0-2.453 1.328-2.453 3.375C-2.453-1.42-1.53 0 0 0h3.156c11.438 0 18.672-5.813 18.672-18.766 0-7.453-2.25-15.406-4.687-20.906zm-8.875-6.844c6.938-1.125 14.375-2.03 21.313-2.234v-3.782c-5.094.11-9.89.516-14.485 1.22-.81-1.017-1.42-2.548-1.42-4.08 0-3.468 2.343-5.5 5.5-5.5 2.25 0 3.874 1.22 5.406 3.063l2.453-1.938c-1.736-2.766-4.392-5-8.267-5-4.797 0-8.672 3.47-8.672 8.562 0 2.25.72 4.078 1.736 5.407-1.22.204-2.344.516-3.563.72zm0 0"/></symbol><symbol id="f68c1bd7t" overflow="visible"><path d="M16.22-17.14C13.062-9.188 9.593-6.735 1.624-6.735H-.11c-1.515 0-2.343 1.218-2.343 3.468S-1.733 0-.11 0h2.157c7.344 0 12.547-2.656 16.11-9.484C20.906-2.656 26.016 0 33.766 0h2.64c1.53 0 2.562-1.22 2.562-3.36 0-2.156-1.126-3.374-2.564-3.374H34.47c-8.25 0-11.22-2.454-12.642-12.75L19.984-34.47l-5.703.814zm5-31c-1.94-1.844-4.798-3.876-7.048-5l-4.28 6.124c2.14 1.22 4.905 3.25 6.936 4.89zm0 0"/></symbol><symbol id="f68c1bd7u" overflow="visible"><path d="M5.516-28.25c4.78-2.344 8.765-3.578 13.25-3.578 5.61 0 10.812 1.844 23.468 8.984v.297C25.812-9.39 19.078-6.734 3.266-6.734H-.313c-1.42 0-2.14 1.734-2.14 3.468C-2.453-1.422-1.53 0-.313 0h2.454c18.36 0 26.516-4.594 40.5-16.828.5-.516 1.016-.922 1.422-1.328C44.984-4.39 50.688 0 60.892 0h1.936c1.734 0 2.453-1.125 2.453-3.36 0-2.156-.718-3.374-2.452-3.374h-2.14c-8.36 0-11.83-3.266-12.032-14.282.813-.203 1.625-.297 2.75-.297h6.625l.72-5.515c-10.61 0-12.14-.297-20.297-4.594-8.562-4.484-12.75-6.422-19.484-6.422-6.736 0-11.736 2.25-15.907 4.797zm37.937 39.156c-1.937-1.828-4.797-3.875-7.047-4.984l-4.28 6.11c2.14 1.234 4.905 3.265 6.937 4.905zm0 0"/></symbol><symbol id="f68c1bd7v" overflow="visible"><path d="M19.984-27.547c1.438-6.625 5.203-10.812 11.235-10.812 6.92 0 12.843 6.532 15.796 19.485-3.875-1.016-10.907-2.03-16.828-2.03-14.58 0-21.72 6.733-21.72 16.624 0 5.093.61 17.546 1.626 33.56h5.72C14.89 13.267 14.373.11 14.373-3.67c0-6.625 4.704-11.015 15.923-11.015 6.015 0 14.687 1.124 19.578 2.656l2.547-6.44c-3.047-17.936-11.313-25.905-21-25.905-8.672 0-14.688 5.813-16.53 15.516zm0 0"/></symbol><symbol id="f68c1bd7w" overflow="visible"><path d="M17.14 22.64c12.438 0 20.704-7.437 21.516-22.64h3.063c1.53 0 2.546-1.22 2.546-3.36 0-2.156-1.016-3.374-2.547-3.374h-3.064c-.718-16.313-6.937-26.422-17.437-26.422-8.673 0-15 7.453-15 16.015C6.22-6.423 13.47-.517 32.952-.11c-.516 11.438-6.64 16.735-17.547 16.735-3.265 0-6.64-.61-9.187-1.734L4.28 19.58c3.173 1.735 8.157 3.063 12.86 3.063zM28.86-6.624C15.405-7.14 11.42-10.5 11.42-17.235c0-5.718 4.28-10.11 9.594-10.11 6.53 0 11.422 6.33 12.03 20.814zm0 0"/></symbol><symbol overflow="visible"><path d="M14.516-160.453V0H128.75v-160.453zM110.594-11.61H32.672l38.953-58.328zM64.61-80.11L25.89-21.53v-116.892zm52.765 58.58l-38.97-58.58 38.97-58.312zm-45.75-68.986l-38.953-58.312h77.922zm0 0"/></symbol><symbol id="f68c1bd7x" overflow="visible"><path d="M29.28 2.172l44.282-14.266c-7.015-17.672-11.86-33.64-11.86-47.922 0-14.515 4.845-30.25 11.86-47.922l-44.28-14.265C17.42-93.89 12.343-77.437 12.343-60.016c0 17.422 5.078 33.875 16.937 62.188zm61.236 0l44.28-14.266c-7.015-17.672-11.858-33.64-11.858-47.922 0-14.515 4.843-30.25 11.86-47.922l-44.282-14.265C78.656-93.89 73.562-77.437 73.562-60.016c0 17.422 5.094 33.875 16.954 62.188zm0 0"/></symbol><symbol id="f68c1bd7y" overflow="visible"><path d="M63.64-81.313c3.876-9.203 9.204-13.312 15.735-13.312 9.922 0 20.328 7.984 28.078 21.547-10.656-1.938-22.266-2.672-29.53-2.672-42.11 0-66.548 24.203-66.548 60.5 0 13.797 1.453 40.656 4.844 84.703h43.796C58.078 36.78 57.594 1.203 57.594-6.78c0-15.97 7.265-23.236 26.86-23.236 15.5 0 36.312 2.188 46.952 3.875l20.563-48.876c-15.236-40.906-43.064-64.375-71.86-64.375-25.422 0-43.08 16.452-51.063 45.984zm0 0"/></symbol><symbol id="f68c1bd7z" overflow="visible"><path d="M55.656 54.453c34.375 0 59.047-20.328 64.625-54.453h6.048C132.125 0 136-9.922 136-27.828s-4.11-27.828-9.672-27.828h-6.78c-7.75-38.235-28.798-58.328-55.657-58.328-27.343 0-47.92 22.75-47.92 52.03 0 31.22 20.327 52.032 60.983 58.33C74.047 3.39 63.89 8.952 43.563 8.952c-10.407 0-20.094-1.453-25.172-2.906l-9.67 37.75c10.155 5.328 27.827 10.656 46.936 10.656zm14.532-105.75c-14.282-.734-20.094-5.094-20.094-12.11 0-5.812 4.11-10.406 11.125-10.406 9.202 0 16.952 7.266 18.405 22.75zm0 0"/></symbol><symbol id="f68c1bd7A" overflow="visible"><path d="M0 0h6.047c15.25 0 26.375-6.047 33.406-16.938C47.673-6.047 61.47 0 77.923 0h6.046c5.81 0 9.686-9.922 9.686-27.828s-4.11-27.828-9.687-27.828h-2.907c-11.126 0-15.72-3.875-15.72-19.61V-190.22l-49.61 6.782 2.908 122.22c-4.124 3.86-8.484 5.562-15.984 5.562H0c-5.328 0-9.438 9.922-9.438 27.828S-5.812 0 0 0zm0 0"/></symbol><symbol id="f68c1bd7B" overflow="visible"><path d="M131.406 0c5.813 0 9.203-7.266 9.203-27.828 0-19.844-3.39-27.828-9.204-27.828h-10.64c-6.297 0-10.407-.97-13.797-3.157 5.796-8.468 10.64-20.328 10.64-31.937 0-19.125-12.094-30.734-42.83-30.734-16.702 0-33.155 3.625-47.92 9.203L16.22-75.5c7.25 2.422 14.514 6.766 23.233 15.72C29.047-57.11 16.703-55.657 0-55.657c-6.53 0-9.438 12.093-9.438 26.86C-9.438-13.797-6.047 0 0 0c31.938 0 55.906-5.328 74.297-19.36C90.267-4.36 105.267 0 125.594 0zm0 0"/></symbol><symbol id="f68c1bd7C" overflow="visible"><path d="M65.344-190.22l-49.61 6.782 2.422 106.235c.485 16.937-3.39 21.547-13.312 21.547H-.234c-5.329 0-9.204 9.922-9.204 27.828S-6.047 0-.233 0H6.53c38.236 0 58.814-22.75 58.814-81.063zm0 0"/></symbol><symbol id="f68c1bd7D" overflow="visible"><path d="M11.375-183.438L13.797 0H22.5l41.39-5.078v-185.375zm0 0"/></symbol><symbol id="f68c1bd7E" overflow="visible"><path/></symbol><symbol id="f68c1bd7F" overflow="visible"><path d="M45.5-98.016C20.562-86.64 8.72-71.626 8.72-54.686c0 22.498 19.108 41.623 42.343 41.623 10.64 0 22.75-6.062 31.453-15.015C90.266-10.406 108.906 0 132.376 0h8.233c6.53 0 9.67-8.72 9.67-27.11 0-18.874-2.905-28.546-9.67-28.546h-5.813c-9.922 0-15-4.36-15.484-17.907l-2.188-62.687-44.28 3.156 1.202 22.25zM60.016-52.03c-5.563 0-9.438-2.907-9.438-7.75 0-3.86 2.906-7.5 10.89-11.126l14.282-7.016.97 19.594c-7.267 4.36-12.595 6.297-16.704 6.297zm55.656-90.017l19.61-27.594c-10.173-9.204-22.516-17.673-32.438-22.5L89.78-173.517c-9.186-7.75-19.593-14.515-28.077-18.625l-19.36 27.577c9.688 5.813 22.516 15 32.188 22.516l13.798-19.61c8.72 5.813 19.125 13.313 27.344 19.61zm0 0"/></symbol><symbol id="f68c1bd7G" overflow="visible"><path d="M31.938-68.97v.236c-6.282 9.437-14.75 13.078-26.86 13.078H0c-5.328 0-9.438 9.922-9.438 27.828S-5.812 0 0 0h8.234c16.203 0 30.485-6.297 41.86-20.328C60.984-6.78 76.234 0 94.14 0h10.89c5.564 0 9.44-9.922 9.44-27.828s-4.11-27.828-9.44-27.828h-6.296c-11.86 0-19.36-2.907-22.265-25.407l-4.11-33.89-45.016 5.562zM83.25 57.36l19.594-27.594c-10.156-9.203-22.5-17.672-32.422-22.5L57.36 25.89c-9.204-7.734-19.61-14.515-28.08-18.624L9.923 34.844c9.687 5.812 22.5 15.015 32.187 22.515l13.796-19.61c8.703 5.813 19.11 13.313 27.344 19.61zm0 0"/></symbol><symbol id="f68c1bd7H" overflow="visible"><path d="M94.625-67.516c0-23.718-11.14-41.39-42.11-55.656l60.25-57.844-53.234-9.203L0-128.75v33.89c36.547 5.797 47.922 15.235 47.922 23.954 0 8.72-11.625 15.25-47.688 15.25-5.312 0-9.671 9.187-9.671 26.125C-9.438-7.017-4.11 0 .232 0c59.548 0 94.392-27.344 94.392-67.516zm0 0"/></symbol><symbol id="f68c1bd7I" overflow="visible"><path d="M50.578 2.172L6.298-12.094c7.014-17.672 11.858-33.64 11.858-47.922 0-14.515-4.843-30.25-11.86-47.922l44.282-14.265c11.86 28.312 16.938 44.766 16.938 62.187 0 17.422-5.08 33.875-16.938 62.188zm61.22 0L67.515-12.094c7.015-17.672 11.86-33.64 11.86-47.922 0-14.515-4.845-30.25-11.86-47.922l44.28-14.265c11.86 28.312 16.954 44.766 16.954 62.187 0 17.422-5.094 33.875-16.953 62.188zm0 0"/></symbol><symbol overflow="visible"><path d="M30.688-195.578V0h138.937v-195.578zm117.11 181.422H52.81l47.485-71.094zM91.75-97.64L44.547-26.25v-142.484zm64.313 71.39l-47.5-71.39 47.5-71.094zm-55.766-84.078l-47.484-71.094h94.984zm0 0"/></symbol><symbol id="f68c1bd7J" overflow="visible"><path d="M95.28 46.61c49.86 0 83.782-17.11 83.782-44.844 0-16.813-12.39-30.078-57.515-37.75l-2.078 7.953c38.358 5.905 51.624 16.827 51.624 30.686 0 18-27.14 34.516-75.22 34.516-45.436 0-70.796-17.406-70.796-51.03 0-13.58 4.125-26.564 10.328-38.658l-6.203-2.937C21.828-43.656 16.22-28.313 16.22-11.797c0 36.28 27.733 58.406 79.06 58.406zm20.657 27.14c-3.25-3.25-9.14-7.672-13.578-9.734L93.812 76.11c4.124 2.36 9.437 6.484 13.562 9.437zm-32.75 0c-3.25-3.25-9.14-7.672-13.562-9.734L61.062 76.11c4.126 2.36 9.438 6.484 13.58 9.437zm0 0"/></symbol><symbol id="f68c1bd7K" overflow="visible"><path d="M-11.5-102.953C-.89-81.72 4.422-65.483 4.422-50.733c0 11.5-4.422 15.327-10.906 15.327-3.25 0-6.204-.282-7.97-.578 0 4.422 2.657 7.953 9.735 7.953 10.032 0 17.407-8.548 17.407-23.595 0-15.64-5.61-33.922-16.234-54.875zm10.313-33.344c-3.532-3.53-9.735-7.953-14.454-10.312l-8.844 12.673c4.422 2.656 10.03 6.796 14.156 10.03zm0 0"/></symbol><symbol id="f68c1bd7L" overflow="visible"><path d="M45.14 64.906c35.39 0 58.704-22.422 58.704-66.375 0-52.81-17.11-83.202-46.61-83.202-23.015 0-39.53 19.766-39.53 41.016 0 28.312 15.624 40.11 61.358 43.062 5.016.297 10.907.297 16.516.297-.89 37.766-19.766 56.344-53.39 56.344-8.266 0-18.594-2.063-27.14-5.89l-3.25 6.78c8.56 4.72 22.42 7.97 33.343 7.97zm37.172-74.64c-44.546-.89-56.36-11.797-56.36-33.922 0-18 14.173-32.157 30.985-32.157 21.235 0 36.876 22.126 38.344 66.376zm0 0"/></symbol><symbol id="f68c1bd7M" overflow="visible"><path d="M22.125-41.89C22.125-14.454 35.405 0 60.47 0h8.264c2.954 0 5.61-1.766 5.61-4.72 0-2.952-2.953-4.718-5.906-4.718h-7.08c-22.124 0-30.967-11.218-30.967-34.812v-166.97l-8.265 1.767zm0 0"/></symbol><symbol id="f68c1bd7N" overflow="visible"><path d="M83.188-78.47c22.42 0 34.515 7.97 34.515 21.236 0 12.39-11.5 23.312-31.86 31.86C54.876-51.032 42.782-60.19 30.97-68.44c12.686-5.312 33.343-10.03 52.218-10.03zm-9.14 54.58l2.06 1.765.298.297C57.812-15.344 22.72-9.438 0-9.438c-4.125 0-5.906 2.063-5.906 4.72C-5.906-2.064-4.72 0 0 0c29.5 0 61.36-5.61 84.375-15.344C100.297-3.547 113.28 0 140.422 0h8.844c3.843 0 5.906-1.766 5.906-4.72 0-2.952-2.063-4.718-5.906-4.718h-11.203c-23.016 0-34.22-3.546-44.547-10.03 21.828-11.22 32.453-22.72 32.453-39.235 0-18-16.532-28.906-42.782-28.906-21.83 0-41.297 4.72-59.594 12.39l.297 11.5c12.094 8.548 25.08 18.58 50.157 39.83zm0 0"/></symbol><symbol id="f68c1bd7O" overflow="visible"><path d="M46.906-42.484c0 .89.297 2.062.297 2.953C38.063-16.517 28.313-9.438 4.72-9.438H0c-3.828 0-5.906 1.468-5.906 5.015C-5.906-1.188-4.126 0 0 0h5.313C27.438 0 41-6.78 50.437-26.25 57.532-6.187 71.688 0 91.75 0h7.672c3.53 0 5.89-1.766 5.89-4.72 0-2.952-2.656-4.718-5.89-4.718H94.11c-25.376 0-35.407-8.86-39.532-38.64l-5.016-41.61-8.265 1.188zm23.297-81.422c-3.234-3.235-9.14-7.656-13.562-9.735l-8.562 12.093c4.14 2.36 9.453 6.5 13.578 9.453zm-32.734 0c-3.25-3.235-9.157-7.656-13.58-9.735l-8.546 12.093c4.125 2.36 9.437 6.5 13.562 9.453zm0 0"/></symbol><symbol id="f68c1bd7P" overflow="visible"><path d="M40.422-211.22l-8.266 1.767V-49.86c0 31.563-10.328 40.422-27.437 40.422H0c-4.422 0-5.906 1.766-5.906 4.72C-5.906-1.767-4.422 0 0 0h5.61C27.733 0 40.42-15.344 40.42-46.61zm0 0"/></symbol><symbol id="f68c1bd7Q" overflow="visible"><path d="M26.547-209.453V0h2.062l6.203-3.25v-207.97zm0 0"/></symbol><symbol id="f68c1bd7R" overflow="visible"><path/></symbol><symbol id="f68c1bd7S" overflow="visible"><path d="M-11.5-102.953C-.89-81.72 4.422-65.483 4.422-50.733c0 11.5-4.422 15.327-10.906 15.327-3.25 0-6.204-.282-7.97-.578 0 4.422 2.657 7.953 9.735 7.953 10.032 0 17.407-8.548 17.407-23.595 0-15.64-5.61-33.922-16.234-54.875zm-25.672-17.11c18-2.656 36.28-4.718 54.28-5.312v-6.484c-14.155.298-26.546 1.47-38.64 2.938-2.655-2.937-4.718-7.656-4.718-12.39 0-10.313 7.375-16.813 16.813-16.813 7.078 0 11.796 4.14 15.624 9.156l4.438-3.25C6.187-159-.595-164.61-10.03-164.61c-12.392 0-22.126 9.14-22.126 22.423 0 5.312 1.468 10.625 4.422 14.453-3.235.296-6.188.89-9.438 1.468zm0 0"/></symbol><symbol id="f68c1bd7T" overflow="visible"><path d="M46.906-42.484c0 .89.297 2.062.297 2.953C38.063-16.517 28.313-9.438 4.72-9.438H0c-3.828 0-5.906 1.468-5.906 5.015C-5.906-1.188-4.126 0 0 0h5.313C27.438 0 41-6.78 50.437-26.25 57.532-6.187 71.688 0 91.75 0h7.672c3.53 0 5.89-1.766 5.89-4.72 0-2.952-2.656-4.718-5.89-4.718H94.11c-25.376 0-35.407-8.86-39.532-38.64l-5.016-41.61-8.265 1.188zm6.485-86.438c-3.53-3.53-9.734-7.953-14.453-10.312l-8.843 12.672c4.422 2.656 10.03 6.796 14.156 10.03zm0 0"/></symbol><symbol id="f68c1bd7U" overflow="visible"><path d="M46.906-42.484c0 .89.297 2.062.297 2.953C38.063-16.517 28.313-9.438 4.72-9.438H0c-3.828 0-5.906 1.468-5.906 5.015C-5.906-1.188-4.126 0 0 0h5.313C27.438 0 41-6.78 50.437-26.25 57.532-6.187 71.688 0 91.75 0h7.672c3.53 0 5.89-1.766 5.89-4.72 0-2.952-2.656-4.718-5.89-4.718H94.11c-25.376 0-35.407-8.86-39.532-38.64l-5.016-41.61-8.265 1.188zm2.063-111.203c-3.25-3.547-8.845-7.97-13.282-10.032l-8.547 11.5c4.126 2.36 9.14 6.486 12.985 9.736zm-12.69 26.843c-3.233-3.25-9.14-7.672-13.56-9.734l-8.564 12.094c4.14 2.36 9.438 6.484 13.578 9.437zm32.75-.89c-3.25-3.25-9.14-7.672-13.577-9.735l-8.547 12.095c4.125 2.36 9.438 6.484 13.563 9.438zm0 0"/></symbol><symbol overflow="visible"><path d="M5.422-37.797V0h26.89v-37.797zM28.047-2.734H9.687L18.86-16.47zM17.22-18.86L8.093-5.077v-27.53zM29.64-5.077l-9.17-13.78 9.17-13.75zM18.86-21.313l-9.172-13.75h18.36zm0 0"/></symbol><symbol id="f68c1bd7V" overflow="visible"><path d="M10.61-18.922c-5.08 2.328-7.188 5.016-7.188 8.485 0 4.39 3.594 7.53 8.094 7.53 2.796 0 5.187-1.25 7.015-3.53C19.267-2.282 22.063 0 26.454 0h1.594c1.078 0 1.484-.734 1.484-2.22 0-1.42-.405-2.233-1.483-2.233h-1.313c-3.36 0-4.625-1.703-4.797-6.313l-.562-16.875-4.047.515.235 4.953zm1.25 12.25c-2.86 0-4.735-1.703-4.735-4.156 0-1.938 1.422-3.422 5.422-5.25l5.187-2.453.328 8.56C15.906-7.577 14.079-6.67 11.86-6.67zm0 0"/></symbol><symbol id="f68c1bd7W" overflow="visible"><path d="M-1.484-2.22C-1.484-.733-.97 0 0 0c12.25 0 16.766-3.938 16.766-9.516 0-2.562-.813-5.765-4.86-12.203l-4.328-7.014 20.406-10.032v-1.25l-2.5-1.875L3.187-30.78v2.905l5.25 8.266c3.985 6.266 4.22 8.094 4.22 9.922C12.656-6.562 9.64-4.452 0-4.452c-.97 0-1.484.75-1.484 2.234zm0 0"/></symbol><symbol id="f68c1bd7X" overflow="visible"><path/></symbol><symbol id="f68c1bd7Y" overflow="visible"><path d="M3.53-12.484C3.53-3.766 7.985.796 22.11.796c8.734 0 14.828-1.937 18.765-5.468C42.515-1.25 45.422 0 49.47 0h1.436c.907 0 1.485-.86 1.485-2.22 0-1.42-.64-2.233-1.484-2.233h-1.03c-4.563 0-6.22-1.297-6.954-6.89l-.797-5.813-3.828.625 1.266 8.264C35.906-5.296 30.78-3.64 22.905-3.64 10.72-3.64 7.64-6.095 7.64-13.28c0-2 .282-3.704.688-5.19l-3.656-.624c-.625 1.703-1.14 3.938-1.14 6.61zM30.267-24.97c-1.078-1.077-2.844-2.218-4.157-2.905l-2.454 3.594c1.25.733 2.907 1.936 4.047 2.905zm-6.61 0c-1.078-1.077-2.843-2.218-4.156-2.905l-2.453 3.594c1.25.733 2.906 1.936 4.047 2.905zm0 0"/></symbol><symbol id="f68c1bd7Z" overflow="visible"><path d="M20.47-10.438c-1.44 4.735-2.454 5.985-4.392 5.985-1.656 0-3.03-.672-5.25-3.078l2.625-5.814-3.187-1.594-2.688 5.704C5.812-5.53 4.39-4.454.28-4.454h-.39c-.86 0-1.374.75-1.374 2.282C-1.484-.734-1.03 0-.11 0h.672C4.393 0 6.893-.97 9-4.11 11.797-1.077 14.14 0 16.53 0c2.048 0 3.595-.734 4.907-3.016C24.282-.906 26.907 0 29.532 0c3.923 0 6.892-2.97 6.892-9.344 0-3.703-.797-7.25-2.172-10.547l-3.75 1.14c1.25 3.297 1.984 6.375 1.984 9.516 0 3.36-1.078 4.78-3.468 4.78-1.72 0-3.485-.562-5.938-2.327.172-.517.344-1.032.516-1.595l1.937-6.328-3.42-1.078zm0 0"/></symbol><symbol id="f68c1bd7aa" overflow="visible"><path d="M4.61-41.156L4.733 0h.86L8.72-.734v-41.11zm0 0"/></symbol><symbol id="f68c1bd7ab" overflow="visible"><path d="M18.234 9.234c10.375 0 16.985-3.937 16.985-9.796 0-4.282-3.407-7.25-12.47-8.782L22-5.922c7.125.97 9.688 2.844 9.688 5.297 0 2.906-4.72 5.64-13.282 5.64-7.797 0-11.968-2.734-11.968-8.656 0-2.407.687-4.688 1.656-6.844l-3.14-1.094C3.53-9 2.623-6.048 2.623-2.968c0 7.64 5.298 12.202 15.61 12.202zm0 0"/></symbol><symbol id="f68c1bd7ac" overflow="visible"><path d="M-2.172-21.656C-.234-17.61.688-14.484.688-12.03c0 2.108-.797 2.858-2.172 2.858-.454 0-1.25-.125-1.594-.172C-2.906-7.578-2-6.61-.172-6.61c2.688 0 4.563-2.11 4.563-5.702 0-3.016-1.03-6.72-3.015-10.657zm4.344-8.094c-1.203-1.14-3.03-2.344-4.39-3.078l-2.626 3.766c1.36.796 3.078 2.046 4.282 3.078zm0 0"/></symbol><symbol id="f68c1bd7ad" overflow="visible"><path d="M3.875-10.375C3.938-3.14 6.953 0 12.828 0h1.656c.844 0 1.47-.86 1.47-2.22 0-1.42-.673-2.233-1.47-2.233h-1.14c-3.828 0-5.485-1.938-5.485-6.484V-41.72l-4.094.564zm0 0"/></symbol><symbol id="f68c1bd7ae" overflow="visible"><path d="M19.328 0h1.485c.906 0 1.468-.86 1.468-2.22 0-1.42-.624-2.233-1.468-2.233h-1.14c-4.453 0-6.047-1.297-6.844-7l-1.094-8.61-3.75.563 1.079 9.016C7.296-5.922 5.358-4.454.905-4.454h-.97c-.905 0-1.42.75-1.42 2.235C-1.484-.733-1.03 0-.063 0h1.204c4.157 0 7.188-1.53 9.172-5.422C11.906-1.532 14.813 0 19.328 0zm-3.422-27.297c-1.094-1.094-2.86-2.234-4.172-2.906l-2.437 3.578c1.25.75 2.906 1.938 4.047 2.906zm-6.61 0c-1.093-1.094-2.858-2.234-4.17-2.906L2.67-26.625c1.265.75 2.922 1.938 4.047 2.906zm0 0"/></symbol><symbol id="f68c1bd7af" overflow="visible"><path d="M10.313-22.234c6.67 6.78 8.265 10.547 8.265 13.734 0 2.97-1.875 4.734-6.5 4.734C9-3.766 6.156-4.5 4.048-5.47L2.515-1.765C4.906-.516 8.437.406 12.25.406c6.5 0 10.266-2.969 10.266-8.61 0-4.452-1.875-9.468-9.172-16.874zm0 0"/></symbol><symbol id="f68c1bd7ag" overflow="visible"><path d="M18.234 12.14c10.328 0 16.985-4.28 16.985-9.687 0-1.25-.392-2.22-.907-2.86.578.173 1.484.407 2.343.407 1.14 0 1.594-.797 1.594-2.22 0-1.374-.453-2.233-1.547-2.233h-.906c-2.047 0-4.156-.5-7.188-1.297l-5.532-1.61-1.14 3.72 5.25 1.468c3.656 1.03 4.67 2.11 4.67 3.938 0 3.25-5.124 6.156-13.452 6.156-7.86 0-11.968-2.734-11.968-8.656 0-2.407.687-4.625 1.656-6.844l-3.14-1.078C3.53-6.094 2.623-3.14 2.623-.062c0 7.64 5.235 12.203 15.61 12.203zm0 0"/></symbol><symbol id="f68c1bd7ah" overflow="visible"><path d="M19.328 0h1.485c.906 0 1.468-.86 1.468-2.22 0-1.42-.624-2.233-1.468-2.233h-1.14c-4.453 0-6.047-1.297-6.844-7l-1.094-8.61-3.75.563 1.079 9.016C7.296-5.922 5.358-4.454.905-4.454h-.97c-.905 0-1.42.75-1.42 2.235C-1.484-.733-1.03 0-.063 0h1.204c4.157 0 7.188-1.53 9.172-5.422C11.906-1.532 14.813 0 19.328 0zM17.39 6.78c-1.093-1.077-2.86-2.218-4.17-2.905L10.765 7.47c1.265.733 2.921 1.936 4.046 2.905zm-6.624 0C9.687 5.704 7.922 4.563 6.61 3.876L4.155 7.47c1.266.733 2.907 1.936 4.047 2.905zm0 0"/></symbol><symbol id="f68c1bd7ai" overflow="visible"><path d="M9-10.375C7.297-5.875 5.36-4.453.906-4.453h-.97c-.905 0-1.42.75-1.42 2.234C-1.484-.733-1.03 0-.063 0h1.204c4.22 0 7.188-1.53 9.172-5.422C11.97-1.532 14.875 0 19.438 0H30.03c6.33 0 11.017-1.03 13.86-3.078C45.485-1.03 47.83 0 50.563 0c1.08 0 1.485-.86 1.485-2.22 0-1.374-.406-2.233-1.484-2.233-1.766 0-3.14-.5-4.11-1.422.688-1.188 1.078-2.563 1.078-4.156 0-5.75-4.718-11.173-10.593-11.173-7.92 0-15.453 8.203-17.843 16.75-4.047 0-5.25-1.53-6.266-6.72l-.625-3.14-3.765.688zm27.656-6.672c3.922 0 7.172 3.656 7.172 7.297 0 3.25-3.25 5.297-14.016 5.297H22.97c2.514-6.89 8.202-12.594 13.686-12.594zm0 0"/></symbol><symbol id="f68c1bd7aj" overflow="visible"><path d="M3.188-16.078c2.734-1.313 4.968-1.938 7.42-1.938 3.08 0 6.033 1.032 12.876 4.797v.173C14.53-5.875 10.89-4.453 1.874-4.453H-.17c-.797 0-1.312 1.03-1.312 2.234C-1.484-.905-.906 0-.172 0H1.25c10.375 0 15.11-2.625 22.688-9.406.28-.28.578-.516.796-.735.625 7.578 4 10.14 9.75 10.14h1.313c1.03 0 1.484-.797 1.484-2.22 0-1.42-.452-2.233-1.483-2.233H34.14c-4.39 0-6.203-1.813-6.374-7.688.453-.11.906-.11 1.53-.11h3.657l.453-3.656c-6.156 0-7.015-.28-11.625-2.625C17.157-20.86 14.704-22 10.83-22c-3.984 0-6.844 1.313-9.234 2.734zM13.624-29.75c-1.203-1.14-3.016-2.344-4.39-3.078l-2.626 3.766c1.374.796 3.077 2.046 4.28 3.078zm0 0"/></symbol><symbol id="f68c1bd7ak" overflow="visible"><path d="M20.47-10.438c-1.44 4.735-2.454 5.985-4.392 5.985-1.656 0-3.03-.672-5.25-3.078l2.625-5.814-3.187-1.594-2.688 5.704C5.812-5.53 4.39-4.454.28-4.454h-.39c-.86 0-1.374.75-1.374 2.282C-1.484-.734-1.03 0-.11 0h.672C4.393 0 6.893-.97 9-4.11 11.797-1.077 14.14 0 16.53 0c2.048 0 3.595-.734 4.907-3.016C24.282-.906 26.907 0 29.532 0c3.923 0 6.892-2.97 6.892-9.344 0-3.703-.797-7.25-2.172-10.547l-3.75 1.14c1.25 3.297 1.984 6.375 1.984 9.516 0 3.36-1.078 4.78-3.468 4.78-1.72 0-3.485-.562-5.938-2.327.172-.517.344-1.032.516-1.595l1.937-6.328-3.42-1.078zm1.983-17.656c-1.015-.922-2.453-1.937-3.703-2.578l-2.156 3.203c1.187.673 2.562 1.642 3.578 2.454zm-2.39 5.578c-1.08-.968-2.672-2.11-3.938-2.797l-2.39 3.422c1.203.687 2.796 1.89 3.937 2.796zm6.843-.11c-1.03-1.03-2.625-2.17-3.937-2.796l-2.392 3.36c1.203.75 2.735 1.937 3.875 2.796zm0 0"/></symbol><symbol id="f68c1bd7al" overflow="visible"><path d="M9.922 12.656c7.515 0 12.422-4.734 12.422-15.172 0-10.484-3.938-16.812-10.14-16.812-5.017 0-8.72 4.172-8.72 9.47 0 5.577 3.532 8.717 11.5 9.624.86.062 1.657.125 3.485.234-.58 5.813-3.532 8.72-9.642 8.72-1.984 0-3.75-.392-5.187-.97l-1.187 3.188c1.766.968 4.672 1.718 7.47 1.718zm6.328-17.11c-7.125-.218-9.36-2.11-9.36-5.64 0-3.125 2.282-5.406 5.14-5.406 3.47 0 6.158 3.594 6.44 11.172zm0 0"/></symbol><symbol id="f68c1bd7am" overflow="visible"><path d="M-.063 0h1.204c4.22 0 7.188-1.53 9.172-5.422C11.97-1.532 14.875 0 19.438 0H30.03c11.517 0 17.5-3.53 17.5-10.03 0-5.75-4.718-11.173-10.593-11.173-7.92 0-15.39 8.203-17.843 16.75-4.047 0-5.25-1.53-6.266-6.72l-.625-3.14-3.765.688.562 3.25C7.297-5.875 5.36-4.453.906-4.453h-.97c-.905 0-1.42.75-1.42 2.234C-1.484-.733-1.03 0-.063 0zm36.72-17.047c3.92 0 7.17 3.656 7.17 7.297 0 3.25-3.25 5.297-14.014 5.297h-6.844c2.514-6.89 8.202-12.594 13.686-12.594zm0 0"/></symbol><symbol id="f68c1bd7an" overflow="visible"><path d="M9.922 12.656c6.953 0 11.625-4.047 12.25-12.656h1.72c.905 0 1.467-.86 1.467-2.22 0-1.42-.626-2.233-1.47-2.233h-1.718c-.344-9.063-3.938-14.875-9.97-14.875-5.014 0-8.718 4.22-8.718 9.36C3.484-3.94 7.75-.345 18.47 0c-.454 5.984-3.704 8.72-9.642 8.72-1.984 0-3.75-.392-5.187-.97l-1.187 3.188c1.766.968 4.672 1.718 7.47 1.718zm6.328-17.11c-7.125-.28-9.36-2.11-9.36-5.64 0-3.125 2.282-5.406 5.14-5.406 3.47 0 6.095 3.422 6.5 11.172zm0 0"/></symbol><symbol id="f68c1bd7ao" overflow="visible"><path d="M3.875-15.844c1.828-.797 4.11-1.312 6.22-1.312 3.467 0 6.264.968 13.842 5.578v.172C13.908-5.36 10.828-4.453 1.595-4.453H-.063c-.906 0-1.42 1.094-1.42 2.234C-1.484-.905-.97 0-.064 0h1.594c7.642 0 11.986-1.03 18.876-5.36 6.672-4.046 7.532-4.39 12.14-4.39l.345-3.766c-4.11 0-5.187-.28-10.828-3.53-5.25-3.017-7.75-4.157-11.406-4.157-3.125 0-6.047.86-8.312 2.172zm11.063-13.062c-1.204-1.125-3.032-2.328-4.39-3.078L7.92-28.22c1.375.798 3.078 2.064 4.28 3.08zm0 0"/></symbol><symbol id="f68c1bd7ap" overflow="visible"><path d="M10.313-25.313l2.343 2.407C6.672-18.36 4.61-13.796 4.61-9.516c0 5.47 3.546 9.922 9.874 9.922 6.266 0 9.735-4.39 9.735-10.328 0-5.234-2.61-10.422-10.876-18.172zM20.405-10.14c0 3.874-2.11 6.03-5.984 6.03-3.875 0-6.047-2.218-6.047-6.03 0-3.704 2.11-7.016 6.563-10.33 3.64 3.314 5.468 6.736 5.468 10.33zm0 0"/></symbol><symbol id="f68c1bd7aq" overflow="visible"><path d="M-1.484-2.22C-1.484-.733-.97 0 0 0c12.25 0 16.766-3.938 16.766-9.516 0-2.562-.813-5.765-4.86-12.203l-4.328-7.014 20.406-10.032v-1.25l-2.5-1.875L3.187-30.78v2.905l5.25 8.266c3.985 6.266 4.22 8.094 4.22 9.922C12.656-6.562 9.64-4.452 0-4.452c-.97 0-1.484.75-1.484 2.234zM3.187-33.92L24.625-44.75l-1.422-1.53L3.188-36.188zm0 0"/></symbol><symbol id="f68c1bd7ar" overflow="visible"><path d="M12.313-16.703c1.53 4.844 2.624 10.547 2.624 15.28 0 7.126-2.796 10.142-7.984 10.142-1.828 0-3.703-.392-5.125-.97L.625 10.938c1.766.968 4.5 1.718 7.234 1.718 6.734 0 11.062-4.5 11.062-14.14 0-5.532-1.188-11.563-2.797-16.078zm0 0"/></symbol><symbol id="f68c1bd7as" overflow="visible"><path d="M3.53-11.453c0 7.47 4.564 12.25 16.876 12.25 12.657 0 17.672-3.64 17.61-8.266 0-.452 0-.733-.047-1.03C41.78-2.047 45.827 0 53.015 0c.968 0 1.422-.86 1.422-2.22 0-1.374-.454-2.233-1.422-2.233-6.563 0-9.813-2.22-14.14-9.28l-9.173-15 20.344-10.033v-1.25L47.53-41.89 25.313-30.78v2.905l5.407 8.5c3.764 5.984 4.046 7.797 4.046 9.734 0 3.765-3.422 5.937-14.36 5.937-9.797 0-12.828-3.14-12.828-8.375 0-2.172.344-3.422.75-4.906l-3.594-.97c-.687 1.595-1.203 3.642-1.203 6.5zm0 0"/></symbol><symbol id="f68c1bd7at" overflow="visible"><path d="M6.22-21.484c1.42 3.64 2.327 7.297 2.327 10.656 0 4.437-2.047 6.375-7.344 6.375H0c-.906 0-1.484.86-1.484 2.172C-1.484-.907-.906 0 0 0h1.766c6.671 0 10.89-3.422 10.89-10.938 0-4.11-1.203-8.61-2.625-11.75zM15.327 6.78c-1.078-1.077-2.844-2.218-4.156-2.905L8.72 7.47c1.25.733 2.905 1.936 4.046 2.905zm-6.61 0C7.642 5.704 5.876 4.563 4.564 3.876L2.108 7.47c1.25.733 2.906 1.936 4.046 2.905zm0 0"/></symbol><symbol id="f68c1bd7au" overflow="visible"><path d="M11.578-15.844c.844-3.594 2.844-5.812 5.985-5.812 3.75 0 7 3.703 8.656 10.593-2.173-.562-5.986-1.14-9.236-1.14-8.265 0-12.375 3.937-12.375 9.687 0 2.922.343 9.813.92 18.875h3.814C8.828 7.53 8.547.062 8.547-2.048c0-3.656 2.515-5.937 8.672-5.937 3.358 0 8.202.625 10.936 1.421l1.72-4.265c-2-10.203-6.626-14.828-12.204-14.828-4.953 0-8.328 3.312-9.516 8.89zm0 0"/></symbol><symbol id="f68c1bd7av" overflow="visible"><path d="M6.22-21.484c1.42 3.64 2.327 7.297 2.327 10.656 0 4.437-2.047 6.375-7.344 6.375H0c-.906 0-1.484.86-1.484 2.172C-1.484-.907-.906 0 0 0h1.766c6.671 0 10.89-3.422 10.89-10.938 0-4.11-1.203-8.61-2.625-11.75zm3.983-9.188C9-31.812 7.188-33 5.813-33.75l-2.625 3.766c1.374.797 3.078 2.047 4.28 3.078zm0 0"/></symbol><symbol id="f68c1bd7aw" overflow="visible"><path d="M7.86 12.656c6.562 0 11-4.906 11-12.656 0-.86-.047-1.766-.157-2.39C20-.86 22.063 0 25.016 0 26.11 0 26.5-.86 26.5-2.22c0-1.42-.453-2.233-1.484-2.233-3.75 0-5.47-1.25-6.828-5.344l-.625-1.78-3.72.75c.688 3.42 1.095 6.78 1.095 9.577 0 6.89-2.86 9.97-7.985 9.97-1.766 0-3.703-.392-5.125-.97L.625 10.938c1.766.968 4.5 1.718 7.234 1.718zm9.406-32.03c-1.188-1.142-3.016-2.345-4.39-3.08l-2.61 3.75c1.36.813 3.078 2.063 4.265 3.08zm0 0"/></symbol><symbol id="f68c1bd7ax" overflow="visible"><path d="M0 0c3.313 0 5.422-1.313 7.063-4.563l5.875 2.907C16.64.172 18.015.516 19.5.516c1.766 0 3.64-1.375 4.61-4.329C25.53-1.374 28.22 0 31.343 0c.968 0 1.484-.86 1.484-2.22 0-1.374-.562-2.233-1.484-2.233-3.875 0-5.75-1.53-7.063-6.547-1.25-5.016-4.327-7.86-8.546-7.86-4.218 0-7.234 2.157-9.812 8.376C3.938-5.704 2.844-4.454 0-4.454c-1.03 0-1.484.813-1.484 2.173C-1.484-.86-1.078 0 0 0zm15.22-15.11c3.42 0 6.092 3.08 6.092 7.532 0 2.625-.968 3.766-2.39 3.766-1.188 0-2.453-.407-5.078-1.657L8.438-8.093c2.046-4.953 3.874-7.015 6.78-7.015zm0 0"/></symbol><symbol id="f68c1bd7ay" overflow="visible"><path d="M9.64-41.72l-4 .626.173 29.188c0 5.812-1.83 7.453-4.954 7.453h-.97c-.92 0-1.374.812-1.374 2.234C-1.484-.86-1.078 0-.11 0h1.25c5.25 0 8.5-3.14 8.5-11.063zm0 0"/></symbol><symbol id="f68c1bd7az" overflow="visible"><path d="M7.64-24.86l3.08 1.954c-3.25 1.015-5.986 4.437-5.986 8.484 0 3.25 1.079 5.875 4.563 8.61-2.516.86-5.594 1.36-9.297 1.36-.97 0-1.484.686-1.484 2.17C-1.484-.796-.97 0 0 0c5.188 0 9.688-1.203 13.11-3.188C17.046-.857 20.405 0 23.077 0c3.828 0 7.188-3.594 7.188-8.5 0-4.22-3.14-8.266-10.657-13.047l-9.922-6.61zm4.094 16.422c-3.187-2.218-3.875-4.28-3.875-6.218 0-3.36 2.687-5.516 4.734-5.516 2.172 0 4.734 2.156 4.734 5.516 0 2.687-1.422 5.187-4.28 7.078-.454-.28-.845-.578-1.314-.86zm11.235 4.5c-1.657 0-3.986-.624-6.5-1.765 2.56-2.453 4-5.53 4-8.78 0-.798-.126-1.595-.298-2.33 5.25 3.766 6.906 6.33 6.906 8.61 0 2.453-1.594 4.265-4.11 4.265zm0 0"/></symbol><symbol id="f68c1bd7aA" overflow="visible"><path d="M3.53-11.453c0 7.47 4.564 12.25 16.876 12.25 13.625 0 18.532-4.28 18.47-10.03 0-2.845-.86-6.048-4.845-12.486l-4.327-7.014 20.344-10.032v-1.25L47.53-41.89 25.313-30.78v2.905l5.235 8.266c3.875 6.266 4.22 8.094 4.22 9.922 0 3.64-3.423 5.985-14.36 5.985-9.798 0-12.83-3.14-12.83-8.375 0-2.172.345-3.422.75-4.906l-3.593-.97c-.687 1.595-1.203 3.642-1.203 6.5zm0 0"/></symbol><symbol id="f68c1bd7aB" overflow="visible"><path d="M7.86 12.656c6.562 0 11-4.906 11-12.656 0-.86-.047-1.766-.157-2.39C20-.86 22.063 0 25.016 0 26.11 0 26.5-.86 26.5-2.22c0-1.42-.453-2.233-1.484-2.233-3.75 0-5.47-1.25-6.828-5.344l-.625-1.78-3.72.75c.688 3.42 1.095 6.78 1.095 9.577 0 6.89-2.86 9.97-7.985 9.97-1.766 0-3.703-.392-5.125-.97L.625 10.938c1.766.968 4.5 1.718 7.234 1.718zm0 0"/></symbol><symbol overflow="visible"><path d="M11.47-104.094V0h74.093v-104.094zM73.796-7.53H23.234l25.282-37.845zM43.953-51.97l-25.11 38v-75.827zm34.234 38l-25.28-38 25.28-37.827zm-29.67-44.75L23.233-96.562h50.563zm0 0"/></symbol><symbol id="f68c1bd7aC" overflow="visible"><path d="M52.75 27.156c33.594 0 55.422-14.125 55.422-35 0-16.968-15.86-27.172-44.75-31.875L59.5-19.47c20.406 2.204 26.375 5.657 26.375 10.517 0 5.344-10.047 10.687-31.39 10.687-18.844 0-27.016-5.187-27.016-18.843 0-5.03 1.264-10.203 2.827-15.078L11.78-37.203C8-29.828 5.5-21.187 5.5-12.093c0 23.874 15.688 39.25 47.25 39.25zm0 0"/></symbol><symbol id="f68c1bd7aD" overflow="visible"><path d="M-5.5-69.86C-1.25-59.03.78-51.343.78-46.155c0 5.172-2.03 7.062-5.968 7.062-1.25 0-3.296-.312-5.015-.625C-8.64-29.202-3.14-24.327 5.657-24.327c10.67 0 17.89-9.11 17.89-22.61 0-9.42-2.516-19.937-7.844-30.624zm-10.516-8.796c13.188-2.047 27.157-3.922 40.5-4.39v-10.845c-8.468.156-16.797.953-24.64 2.046-.625-1.25-1.094-2.672-1.094-4.234 0-4.094 2.813-6.438 6.594-6.438 3.14 0 5.484 1.407 8.156 4.235l6.594-5.97c-3.453-5.97-8.47-10.516-16.172-10.516-8.78 0-16.016 6.438-16.016 15.39 0 3.61 1.11 6.75 2.516 8.94-2.203.467-4.235.952-6.438 1.42zm0 0"/></symbol><symbol id="f68c1bd7aE" overflow="visible"><path d="M33.28 35.328C54.33 35.328 69.08 23.078 72.53 0h4.08c3.453 0 5.5-5.03 5.5-13.97 0-9.108-2.204-13.983-5.5-13.983h-4.39c-3.454-24.64-15.548-39.563-33.282-39.563-16.485 0-28.89 13.83-28.89 31.563 0 18.844 13.03 31.562 40.186 34.547C48.516 7.374 41.14 11.938 27 11.938c-6.438 0-11.922-.954-15.22-2.047l-5.5 19.157c5.97 3.14 16.017 6.28 27 6.28zM45.53-26.22c-12.718-.624-17.42-4.233-17.42-10.358 0-5.656 3.92-9.734 9.578-9.734 7.062 0 12.86 6.28 13.656 20.25zm0 0"/></symbol><symbol id="f68c1bd7aF" overflow="visible"><path d="M10.672-50.078c3.922-1.578 9.89-2.828 16.172-2.828 8.484 0 19.312 2.984 34.39 10.672v.468C42.39-30.61 30.922-27.953 5.656-27.953H0c-2.984 0-5.5 6.594-5.5 13.984C-5.5-6.124-2.672 0 0 0h5.97c22.764 0 36.89-4.39 55.42-18.063 16.797-12.39 23.704-15.218 39.563-15.218l1.25-23.236c-11.14 0-18.516-2.047-35.64-10.047-16.33-7.546-24.64-10.53-35.157-10.53-9.422 0-19.937 2.67-27.953 7.39zM70.97 11.625c-5.657-5.344-13.19-10.375-19-13.36L40.655 14.438c5.657 3.454 13.188 8.954 18.844 13.344zm0 0"/></symbol><symbol id="f68c1bd7aG" overflow="visible"><path/></symbol><symbol id="f68c1bd7aH" overflow="visible"><path d="M32.03 45.063L30.298-.313c0-5.812-.156-9.578-.156-12.406 0-7.374 2.204-11.608 11.782-16.952-1.578 3.922-2.36 8.156-2.36 11.938 0 18.36 12.094 32.015 30.782 32.015 12.86 0 20.72-8 21.5-19.31 4.72 3.624 9.89 5.03 14.28 5.03 3.47 0 5.657-3.61 5.657-13.97 0-10.358-2.03-13.983-5.655-13.983-5.953 0-9.406-1.563-16.953-11.297L72.688-60.61H61.233C16.797-47.093 6.594-33.124 6.594-16.17c0 5.97.156 7.688.468 14.922l2.36 46.313zM72.53-27c3.142 4.234 4.407 6.75 4.407 9.734 0 4.547-3.14 7.22-8.015 7.22-7.22 0-12.25-5.345-12.25-13.657 0-6.438 2.828-11.78 6.906-14.766zm0 0"/></symbol><symbol id="f68c1bd7aI" overflow="visible"><path d="M0-27.953c-3.14 0-5.5 4.094-5.5 13.36C-5.5-4.704-3.14 0 0 0c13.813 0 24.328-6.594 30.14-19-1.718 6.906-2.984 15.078-2.984 22.14 0 17.58 8.485 32.344 22.61 40.188l20.25-11.922c-1.407-2.984-2.188-6.922-2.188-10.687C67.828 8 75.048 0 89.64 0h2.985c3.766 0 5.5-6.594 5.5-14.594 0-7.547-1.734-13.36-5.5-13.36H87.14c-22.453 0-34.86 16.485-34.86 35.017 0 2.984.157 5.343.94 8.64-5.642-4.875-8.47-13.03-8.47-23.234 0-10.845 2.03-25.126 5.328-40.673l-21.656-6.125C20.72-34.062 13.812-27.953 0-27.953zm22.61 89.187c-.626-2.984-1.094-5.343-1.094-8.172 0-6.593 1.562-12.562 6.11-21.968L13.03 23.078C3.767 34.858.157 43.484.157 53.218c0 3.923.78 7.704 1.89 10.844zm0 0"/></symbol><symbol id="f68c1bd7aJ" overflow="visible"><path d="M40.813-5.813c8.64 4.407 12.25 5.657 17.124 5.657 9.266 0 20.72-13.344 20.72-29.36 0-22.61-14.126-39.718-32.5-39.718-13.5 0-22.61 7.062-29.673 24.17C10.516-30.92 7.687-27.953 0-27.953c-3.453 0-5.5 4.72-5.5 13.36C-5.5-5.188-3.61 0 0 0c11.297 0 18.53-4.703 23.547-14.922zm2.828-42.86c7.547 0 13.985 7.064 13.985 15.548 0 3.922-1.578 5.813-4.094 5.813-2.655 0-4.702-.64-10.202-3.297L31.25-36.577c3.453-8.64 6.906-12.094 12.39-12.094zm0 0"/></symbol><symbol id="f68c1bd7aK" overflow="visible"><path d="M32.344-54.016C37.204-38 39.72-25.438 39.72-13.188c0 17.735-6.282 24.657-21.19 24.657-4.56 0-9.108-.642-12.25-1.58L.78 29.048c5.97 3.14 16.017 6.28 25.907 6.28 22.922 0 37.047-15.546 37.047-46.468 0-17.438-4.234-33.922-9.718-47.266zm0 0"/></symbol><symbol id="f68c1bd7aL" overflow="visible"><path d="M33.28 35.328c24.032 0 40.19-15.547 40.19-48.516-.157-34.86-14.44-54.328-34.69-54.328-16.327 0-28.733 13.672-28.733 31.875 0 16.953 11.625 29.046 30.453 32.812 3.78.78 5.813 1.265 9.734 1.422C48.36 6.906 41.454 11.938 27 11.938c-6.438 0-11.922-.954-15.22-2.047l-5.5 19.157c5.97 3.14 16.017 6.28 27 6.28zM45.376-26.22c-12.563-.624-17.266-4.233-17.266-10.358 0-5.656 3.92-9.734 9.578-9.734 6.906 0 12.703 6.28 13.656 20.25zm0 0"/></symbol><symbol id="f68c1bd7aM" overflow="visible"><path d="M9.266-117.125L10.36 0h4.562l20.72-2.828v-117.906zm0 0"/></symbol><symbol id="f68c1bd7aN" overflow="visible"><path d="M26.844 35.328c21.672 0 35.64-16.016 35.64-36.422 0-1.422 0-2.36-.156-3.453C65.78-1.407 70.344 0 75.672 0c3.61 0 5.5-5.03 5.5-13.97 0-9.108-2.047-13.983-5.5-13.983-8.64 0-12.25-2.656-16.328-13.5L57.47-46.78l-21.83 4.233c2.672 10.516 4.08 21.188 4.08 29.36 0 16.17-5.657 24.656-21.19 24.656-4.56 0-9.108-.642-12.25-1.58L.78 29.048c5.97 3.14 16.017 6.28 26.064 6.28zm0 0"/></symbol><symbol id="f68c1bd7aO" overflow="visible"><path d="M56.828-39.563c-3.14 9.58-5.016 11.61-8.156 11.61-3.453 0-5.97-1.406-10.36-5.797l6.126-14.297-16.813-8.312-8.313 16.33c-4.718 9.42-8.796 12.077-17.265 12.077h-2.36c-2.984 0-5.187 4.72-5.187 14.14C-5.5-5.03-3.61 0-.312 0h3.14c10.516 0 17.89-2.828 24.485-11.938C36.733-3.607 43.64 0 51.03 0c6.282 0 10.986-2.36 15.376-9.422C76.453-2.672 84.312 0 92.936 0c14.455 0 25.283-12.563 24.814-37.688-.156-11.765-2.828-24.015-6.125-33.593l-21.828 4.718c2.828 10.828 4.72 19.624 4.72 28.406 0 7.547-2.204 10.203-6.908 10.203-3.297 0-6.75-.938-12.094-4.235l6.28-19.312-18.687-6.438zm0 0"/></symbol><symbol id="f68c1bd7aP" overflow="visible"><path d="M8-42.078C8.484-10.828 20.25 0 42.86 0h4.546c3.313 0 5.657-5.03 5.657-13.97 0-9.108-2.516-13.983-5.657-13.983H45.53c-9.108 0-13.186-3.61-13.186-16v-76.625l-25.438 3.453zm0 0"/></symbol><symbol id="f68c1bd7aQ" overflow="visible"><path d="M59.03 0h5.657c3.454 0 5.657-5.03 5.657-13.97 0-9.108-2.36-13.983-5.656-13.983h-3.61c-9.422 0-13.828-2.344-15.86-17.422l-2.827-23.078-22.765 2.984 2.984 25.75c-4.235 8.626-10.047 11.767-19.626 11.767h-3.14c-3.14 0-5.344 4.875-5.344 13.984C-5.5-4.86-3.453 0-.156 0h4.703c10.687 0 19.78-4.234 26.547-13.656C37.36-4.39 46.78 0 59.03 0zm-9.42 34.86l10.828-15.39C55.108 14.437 47.89 9.577 42.39 6.75l-7.53 10.828C29.827 13.344 23.702 9.266 18.843 6.75L8.156 22.14c5.344 3.297 12.563 8.47 17.907 12.72l8-11.157c4.874 3.14 10.843 7.547 15.546 11.156zm0 0"/></symbol><symbol id="f68c1bd7aR" overflow="visible"><path d="M14.922-68.453c2.656 9.422 4.39 18.53 4.39 26.062 0 10.36-4.546 14.437-16.484 14.437H0c-3.453 0-5.5 5.344-5.5 13.828C-5.5-6.125-3.453 0 0 0h5.656C29.672 0 44.75-13.5 44.75-39.406c0-10.985-2.984-24.813-6.594-34.39zm23.547-27.47c-5.657-5.343-13.19-10.358-19-13.343L8.155-93.094C13.812-89.64 21.36-84.156 27-79.75zm0 0"/></symbol><symbol overflow="visible"><path d="M15.297-112.703V0h80.25v-112.703zm67.5 104.547h-54.75l27.375-40.97zm-32.313-48.11l-27.187 41.14v-82.108zm37.063 41.14l-27.36-41.14 27.36-40.968zM55.422-63.577l-27.375-40.97h54.75zm0 0"/></symbol><symbol id="f68c1bd7aS" overflow="visible"><path d="M47.594-10.875C50.156-2.72 56.437 1.53 64.094 1.53c12.406 0 21.75-13.264 21.75-33.655 0-26.688-14.61-53.39-47.078-76.172l-9.36 13.953c2.39 1.688 4.594 3.39 6.64 4.922C17.69-70.72 9.345-52.188 9.345-31.625c0 20.406 9.36 33.156 21.765 33.156 7.984 0 13.437-4.077 16.484-12.405zm14.797-5.438c-4.25 0-7.14-5.625-7.656-26.015H41.14c-.515 20.39-3.734 26.016-8.843 26.016-4.078 0-6.797-5.954-6.797-17.688 0-14.953 5.953-29.578 21.938-45.563C63.406-63.75 69.703-48.797 69.703-34c0 11.22-3.234 17.688-7.312 17.688zm0 0"/></symbol><symbol id="f68c1bd7aT" overflow="visible"><path d="M24.984 2.375c15.64-32.297 32.985-54.22 57.125-73.61L72.42-82.952c-10.547 7.64-19.89 15.97-28.563 25.656-12.922-5.094-18.36-11.39-18.36-18.86 0-7.656 5.61-15.296 14.453-15.296 4.922 0 10.03 2.72 15.125 8.328l10.375-9.53c-6.97-10.19-16.156-14.954-26.36-14.954-16.484 0-29.75 14.454-29.75 31.954 0 12.922 8.173 23.812 23.97 31.453-8.33 11.22-15.97 24.14-23.11 39.266zm0 0"/></symbol><symbol id="f68c1bd7aU" overflow="visible"><path d="M45.39 0c0-26.86-5.265-40.297-13.437-56.266-4.578-8.843-8.828-16.672-8.828-24.312 0-6.47 3.063-10.547 8.5-10.547 7.47 0 12.922 7.313 16.14 23.813h11.22C61.874-78.876 68-88.734 78.03-95.032l-6.968-12.75c-8 3.907-14.28 11.048-17 18.532-4.25-11.39-12.406-18.53-24.312-18.53-13.594 0-22.953 10.03-22.953 25.327 0 9.36 3.406 18.187 8.672 29.75C23.796-34.173 27.546-22.093 27.546 0zm0 0"/></symbol><symbol id="f68c1bd7aV" overflow="visible"><path/></symbol><symbol id="f68c1bd7aW" overflow="visible"><path d="M54.063 35.875c31.78 0 52.187-13.094 52.187-29.078 0-3.563-.844-6.453-1.875-8.328C105.563-.845 108.453 0 110.5 0c4.078 0 5.61-3.063 5.61-9.016 0-5.937-1.532-9.343-5.094-9.343h-2.39c-6.454 0-13.25-1.703-22.61-4.42l-17.172-5.095-4.75 15.125 15.64 4.766c10.36 3.218 13.422 6.28 13.422 11.39 0 7.47-14.453 15.125-38.422 15.125-21.75 0-32.468-6.968-32.468-23.468 0-6.625 1.875-12.906 4.25-19.203l-13.078-4.08c-4.094 7.986-6.64 16.83-6.64 26.017 0 23.797 15.468 38.078 47.264 38.078zm0 0"/></symbol><symbol id="f68c1bd7aX" overflow="visible"><path d="M-.344 0h4.078c12.25 0 21.766-4.938 28.22-16.828C37.405-5.094 46.577 0 60.686 0h34.516c35.016 0 54.063-13.266 54.063-34.172 0-18.53-14.97-35.187-34.86-35.187-25.156 0-48.61 26.516-55.078 51-10.875 0-13.422-3.906-16.828-20.234l-1.703-8.328-15.47 2.72 1.36 8C21.767-22.783 15.642-18.36 2.72-18.36H-.345c-2.89 0-4.75 3.235-4.75 9.172C-5.094-3.06-3.406 0-.344 0zm113.39-52.36c11.735 0 20.907 9.688 20.907 18.876 0 9.343-9.172 15.125-39.266 15.125h-19.03c6.796-18.703 22.78-34 37.39-34zm0 0"/></symbol><symbol id="f68c1bd7aY" overflow="visible"><path d="M31.797 38.078c21.078 0 35.36-11.734 38.406-38.078h4.766c3.233 0 5.093-3.406 5.093-9.188 0-5.937-2.032-9.17-5.094-9.17h-4.595C69.187-44.704 57.97-63.407 38.422-63.407c-15.984 0-27.875 13.593-27.875 30.593C10.547-14.108 24.484-1.53 55.077 0c-2.03 15.47-10.874 21.938-27.53 21.938-6.64 0-11.563-1.032-15.14-2.39l-4.75 12.92c5.437 3.063 14.437 5.61 24.14 5.61zm17.328-56.094c-18.53-1.03-24.984-5.953-24.984-15.14 0-8.657 5.954-14.782 13.594-14.782 9.36 0 16.672 9.344 17.516 30.25zm0 0"/></symbol><symbol id="f68c1bd7aZ" overflow="visible"><path d="M26.688-36.203C21.765-22.78 15.64-18.36 2.718-18.36H-.343c-2.89 0-4.75 3.235-4.75 9.172C-5.094-3.06-3.406 0-.344 0h4.078c12.25 0 21.766-4.938 28.22-16.828C37.405-5.094 46.577 0 60.686 0h34.516c18.016 0 31.78-3.563 40.97-9.86 5.264 6.626 12.75 9.86 21.42 9.86 3.563 0 5.095-3.406 5.095-9.188 0-5.765-1.532-9.17-5.094-9.17-4.594 0-8.328-1.017-11.22-2.892 1.86-3.734 2.892-8.156 2.892-12.922 0-18.53-14.97-35.187-34.86-35.187-25.156 0-48.61 26.516-55.078 51-10.875 0-13.422-3.906-16.828-20.234l-1.703-8.328-15.47 2.72zm86.36-16.156c11.733 0 20.905 9.688 20.905 18.876 0 9.343-9.172 15.125-39.266 15.125h-19.03c6.796-18.703 22.78-34 37.39-34zm0 0"/></symbol><symbol id="f68c1bd7ba" overflow="visible"><path d="M11.39-49.297c5.61-2.22 12.407-3.75 18.36-3.75 9.86 0 19.203 2.89 39.78 14.97v.514C43.345-21.25 32.47-18.358 4.25-18.358H0c-3.234 0-5.094 4.422-5.094 9.344C-5.094-3.906-3.062 0 0 0h4.938c22.765 0 37.218-3.734 58.468-17.516 19.22-11.89 22.61-13.25 37.063-13.25l1.186-15.812c-12.062 0-16.484-.86-34.172-10.547-16.484-9-23.968-12.063-34.843-12.063-9.86 0-19.546 2.547-27.374 6.97zm35.016-42.156c-4.593-4.25-11.047-8.672-15.968-11.234l-9.704 13.78c4.938 2.72 11.22 7.47 15.813 11.22zm0 0"/></symbol><symbol id="f68c1bd7bb" overflow="visible"><path d="M29.922-77.86l6.797 7.485c-17.845 13.25-23.97 27.03-23.97 40.11 0 16.828 11.39 31.624 31.453 31.624 19.72 0 30.938-14.454 30.938-32.985 0-16.14-7.828-32.813-32.64-57.28zm29.75 44.876c0 10.03-5.61 15.984-15.64 15.984-10.204 0-15.985-6.125-15.985-16.313 0-9.703 5.265-18.53 17.687-27.03 8.828 8.5 13.938 17.843 13.938 27.36zm0 0"/></symbol><symbol id="f68c1bd7bc" overflow="visible"><path d="M10.875-35.36C11.047-10.03 21.078 0 40.453 0h5.11c2.89 0 5.093-3.406 5.093-9.188 0-5.937-2.375-9.17-5.093-9.17H42.5c-10.547 0-15.125-5.267-15.125-18.704v-89.25l-17.172 2.218zm0 0"/></symbol><symbol id="f68c1bd7bd" overflow="visible"><path d="M-5.094-9.188C-5.094-3.06-3.234 0 0 0c38.422 0 52.875-13.266 52.875-31.797 0-7.812-2.72-18.187-14.453-36.547L26.86-86.36l57.453-28.046v-4.938l-10.532-7.64-65.624 32.64v10.53L24.14-59.498c11.047 16.828 11.735 21.938 11.735 27.03 0 8.5-8.328 14.11-35.875 14.11-3.234 0-5.094 3.063-5.094 9.172zm13.25-94.17l62.735-31.454-5.78-5.61-56.954 28.734zm0 0"/></symbol><symbol id="f68c1bd7be" overflow="visible"><path d="M12.75-124.094L13.438 0h3.39l13.094-2.547v-124.11zm0 0"/></symbol><symbol id="f68c1bd7bf" overflow="visible"><path d="M35.875-52.36c4.25 14.282 7.813 30.594 7.813 46.235 0 20.234-7.985 28.063-23.126 28.063-5.437 0-11.046-1.032-14.953-2.39L.843 32.467c5.61 3.063 14.28 5.61 23.468 5.61 21.422 0 35.532-13.766 35.532-44.203 0-18.36-3.75-36.203-8.328-49.47zm0 0"/></symbol><symbol id="f68c1bd7bg" overflow="visible"><path d="M-5.094-9.188C-5.094-3.06-3.234 0 0 0c38.422 0 52.875-13.266 52.875-31.797 0-7.812-2.72-18.187-14.453-36.547L26.86-86.36l57.453-28.046v-4.938l-10.532-7.64-65.624 32.64v10.53L24.14-59.498c11.047 16.828 11.735 21.938 11.735 27.03 0 8.5-8.328 14.11-35.875 14.11-3.234 0-5.094 3.063-5.094 9.172zm0 0"/></symbol></defs><g><g fill="rgb(13.729858%,12.159729%,12.548828%)"><use x="5.585" xlink:href="#f68c1bd7a" y="1726"/><use x="51.688" xlink:href="#f68c1bd7b" y="1726"/><use x="72.802" xlink:href="#f68c1bd7c" y="1726"/><use x="137.47" xlink:href="#f68c1bd7d" y="1726"/><use x="160.625" xlink:href="#f68c1bd7e" y="1726"/><use x="182.861" xlink:href="#f68c1bd7f" y="1726"/><use x="273.233" xlink:href="#f68c1bd7g" y="1726"/><use x="344.531" xlink:href="#f68c1bd7h" y="1726"/><use x="369.827" xlink:href="#f68c1bd7i" y="1726"/><use x="432.659" xlink:href="#f68c1bd7j" y="1726"/><use x="457.546" xlink:href="#f68c1bd7h" y="1726"/><use x="482.842" xlink:href="#f68c1bd7k" y="1726"/><use x="512.423" xlink:href="#f68c1bd7e" y="1726"/><use x="534.659" xlink:href="#f68c1bd7l" y="1726"/><use x="584.231" xlink:href="#f68c1bd7m" y="1726"/><use x="631.457" xlink:href="#f68c1bd7n" y="1726"/><use x="658.588" xlink:href="#f68c1bd7o" y="1726"/><use x="711.832" xlink:href="#f68c1bd7p" y="1726"/><use x="748.246" xlink:href="#f68c1bd7q" y="1726"/><use x="803.53" xlink:href="#f68c1bd7j" y="1726"/><use x="828.418" xlink:href="#f68c1bd7d" y="1726"/><use x="851.572" xlink:href="#f68c1bd7e" y="1726"/><use x="873.808" xlink:href="#f68c1bd7l" y="1726"/><use x="923.38" xlink:href="#f68c1bd7r" y="1726"/><use x="959.794" xlink:href="#f68c1bd7s" y="1726"/><use x="989.986" xlink:href="#f68c1bd7h" y="1726"/><use x="1015.283" xlink:href="#f68c1bd7t" y="1726"/><use x="1051.697" xlink:href="#f68c1bd7u" y="1726"/><use x="1114.528" xlink:href="#f68c1bd7j" y="1726"/><use x="1139.417" xlink:href="#f68c1bd7d" y="1726"/><use x="1162.571" xlink:href="#f68c1bd7e" y="1726"/><use x="1184.806" xlink:href="#f68c1bd7v" y="1726"/></g><g fill="rgb(13.729858%,12.159729%,12.548828%)"><use x="1241.314" xlink:href="#f68c1bd7w" y="1726"/><use x="1283.033" xlink:href="#f68c1bd7n" y="1726"/><use x="1310.165" xlink:href="#f68c1bd7o" y="1726"/><use x="1363.409" xlink:href="#f68c1bd7j" y="1726"/><use x="1388.296" xlink:href="#f68c1bd7d" y="1726"/></g><use fill="rgb(15.699768%,84.298706%,57.998657%)" x="-1.663" xlink:href="#f68c1bd7x" y="1463"/><use fill="rgb(15.699768%,84.298706%,57.998657%)" x="139.177" xlink:href="#f68c1bd7y" y="1463"/><g fill="rgb(15.699768%,84.298706%,57.998657%)"><use x="287.281" xlink:href="#f68c1bd7z" y="1463"/><use x="413.605" xlink:href="#f68c1bd7A" y="1463"/><use x="497.579" xlink:href="#f68c1bd7B" y="1463"/><use x="628.743" xlink:href="#f68c1bd7C" y="1463"/><use x="709.087" xlink:href="#f68c1bd7D" y="1463"/><use x="784.349" xlink:href="#f68c1bd7E" y="1463"/><use x="826.215" xlink:href="#f68c1bd7F" y="1463"/><use x="967.059" xlink:href="#f68c1bd7G" y="1463"/><use x="1072.087" xlink:href="#f68c1bd7A" y="1463"/><use x="1156.061" xlink:href="#f68c1bd7H" y="1463"/></g><use fill="rgb(15.699768%,84.298706%,57.998657%)" x="1275.579" xlink:href="#f68c1bd7I" y="1463"/><g fill="rgb(15.699768%,84.298706%,57.998657%)"><use x=".815" xlink:href="#f68c1bd7J" y="581.25"/><use x="135.335" xlink:href="#f68c1bd7K" y="581.25"/><use x="191.975" xlink:href="#f68c1bd7L" y="581.25"/><use x="319.415" xlink:href="#f68c1bd7M" y="581.25"/><use x="387.855" xlink:href="#f68c1bd7N" y="581.25"/><use x="537.125" xlink:href="#f68c1bd7O" y="581.25"/><use x="636.54" xlink:href="#f68c1bd7P" y="581.25"/><use x="703.505" xlink:href="#f68c1bd7Q" y="581.25"/><use x="764.865" xlink:href="#f68c1bd7R" y="581.25"/><use x="830.355" xlink:href="#f68c1bd7J" y="581.25"/><use x="964.875" xlink:href="#f68c1bd7S" y="581.25"/></g><g fill="rgb(15.699768%,84.298706%,57.998657%)"><use x="1020.63" xlink:href="#f68c1bd7M" y="581.25"/><use x="1089.07" xlink:href="#f68c1bd7T" y="581.25"/><use x="1188.485" xlink:href="#f68c1bd7U" y="581.25"/><use x="1287.9" xlink:href="#f68c1bd7P" y="581.25"/><use x="1354.865" xlink:href="#f68c1bd7Q" y="581.25"/></g><g fill="rgb(13.729858%,12.159729%,12.548828%)"><use x="8.923" xlink:href="#f68c1bd7V" y="1123.25"/><use x="36.967" xlink:href="#f68c1bd7W" y="1123.25"/></g><g fill="rgb(13.729858%,12.159729%,12.548828%)"><use x="60.85" xlink:href="#f68c1bd7X" y="1123.25"/><use x="73.162" xlink:href="#f68c1bd7Y" y="1123.25"/><use x="124.063" xlink:href="#f68c1bd7Z" y="1123.25"/><use x="164.704" xlink:href="#f68c1bd7aa" y="1123.25"/><use x="178.042" xlink:href="#f68c1bd7X" y="1123.25"/><use x="190.354" xlink:href="#f68c1bd7ab" y="1123.25"/><use x="216.175" xlink:href="#f68c1bd7ac" y="1123.25"/></g><g fill="rgb(13.729858%,12.159729%,12.548828%)"><use x="227.632" xlink:href="#f68c1bd7ad" y="1123.25"/><use x="242.11" xlink:href="#f68c1bd7ae" y="1123.25"/><use x="262.915" xlink:href="#f68c1bd7Z" y="1123.25"/><use x="303.556" xlink:href="#f68c1bd7aa" y="1123.25"/><use x="316.894" xlink:href="#f68c1bd7af" y="1123.25"/><use x="343.627" xlink:href="#f68c1bd7X" y="1123.25"/><use x="355.939" xlink:href="#f68c1bd7ag" y="1123.25"/><use x="392.647" xlink:href="#f68c1bd7ae" y="1123.25"/><use x="413.452" xlink:href="#f68c1bd7ah" y="1123.25"/><use x="434.257" xlink:href="#f68c1bd7ai" y="1123.25"/><use x="484.816" xlink:href="#f68c1bd7aj" y="1123.25"/><use x="520.612" xlink:href="#f68c1bd7ak" y="1123.25"/><use x="560.455" xlink:href="#f68c1bd7X" y="1123.25"/><use x="572.767" xlink:href="#f68c1bd7al" y="1123.25"/><use x="599.5" xlink:href="#f68c1bd7X" y="1123.25"/><use x="611.812" xlink:href="#f68c1bd7ag" y="1123.25"/><use x="648.52" xlink:href="#f68c1bd7am" y="1123.25"/></g><g fill="rgb(13.729858%,12.159729%,12.548828%)"><use x="699.706" xlink:href="#f68c1bd7an" y="1123.25"/><use x="723.589" xlink:href="#f68c1bd7ai" y="1123.25"/><use x="774.148" xlink:href="#f68c1bd7ao" y="1123.25"/><use x="809.83" xlink:href="#f68c1bd7X" y="1123.25"/><use x="822.142" xlink:href="#f68c1bd7ap" y="1123.25"/><use x="850.984" xlink:href="#f68c1bd7ad" y="1123.25"/><use x="865.462" xlink:href="#f68c1bd7aq" y="1123.25"/><use x="894.019" xlink:href="#f68c1bd7aa" y="1123.25"/></g><use fill="rgb(13.729858%,12.159729%,12.548828%)" x="899.776" xlink:href="#f68c1bd7ar" y="1123.25"/><g fill="rgb(13.729858%,12.159729%,12.548828%)"><use x="922.747" xlink:href="#f68c1bd7ad" y="1123.25"/><use x="937.225" xlink:href="#f68c1bd7W" y="1123.25"/></g><g fill="rgb(13.729858%,12.159729%,12.548828%)"><use x="961.108" xlink:href="#f68c1bd7X" y="1123.25"/><use x="973.42" xlink:href="#f68c1bd7as" y="1123.25"/><use x="1026.373" xlink:href="#f68c1bd7at" y="1123.25"/><use x="1042.561" xlink:href="#f68c1bd7X" y="1123.25"/><use x="1054.873" xlink:href="#f68c1bd7au" y="1123.25"/><use x="1087.135" xlink:href="#f68c1bd7ad" y="1123.25"/><use x="1101.613" xlink:href="#f68c1bd7av" y="1123.25"/><use x="1118.485" xlink:href="#f68c1bd7X" y="1123.25"/></g><g fill="rgb(13.729858%,12.159729%,12.548828%)"><use x="1129.087" xlink:href="#f68c1bd7aw" y="1123.25"/><use x="1154.11" xlink:href="#f68c1bd7ax" y="1123.25"/><use x="1185.46" xlink:href="#f68c1bd7ay" y="1123.25"/></g><g fill="rgb(13.729858%,12.159729%,12.548828%)"><use x="1199.368" xlink:href="#f68c1bd7an" y="1123.25"/><use x="1223.251" xlink:href="#f68c1bd7az" y="1123.25"/><use x="1257.85" xlink:href="#f68c1bd7X" y="1123.25"/><use x="1270.162" xlink:href="#f68c1bd7aA" y="1123.25"/></g><g fill="rgb(13.729858%,12.159729%,12.548828%)"><use x="1313.596" xlink:href="#f68c1bd7an" y="1123.25"/><use x="1337.479" xlink:href="#f68c1bd7ay" y="1123.25"/></g><g fill="rgb(13.729858%,12.159729%,12.548828%)"><use x="1345.231" xlink:href="#f68c1bd7aB" y="1123.25"/><use x="1370.254" xlink:href="#f68c1bd7ak" y="1123.25"/></g><path d="M7.5 296.96h1400M7.5 739.824h1400M7.5 1023.27h1400M7.5 1191.313h1400M7.5 1590.176h1400" fill="none" stroke="rgb(50%,67.599487%,63.699341%)" stroke-width=".65"/><g fill="rgb(13.729858%,12.159729%,12.548828%)"><use x="11.333" xlink:href="#f68c1bd7aC" y="914.157"/><use x="84.966" xlink:href="#f68c1bd7aD" y="914.157"/></g><g fill="rgb(13.729858%,12.159729%,12.548828%)"><use x="122.332" xlink:href="#f68c1bd7aE" y="914.157"/><use x="198.948" xlink:href="#f68c1bd7aF" y="914.157"/><use x="308.691" xlink:href="#f68c1bd7aG" y="914.157"/><use x="338.521" xlink:href="#f68c1bd7aH" y="914.157"/><use x="444.81" xlink:href="#f68c1bd7aI" y="914.157"/><use x="537.44" xlink:href="#f68c1bd7aJ" y="914.157"/><use x="625.517" xlink:href="#f68c1bd7aG" y="914.157"/></g><use fill="rgb(13.729858%,12.159729%,12.548828%)" x="650.637" xlink:href="#f68c1bd7aK" y="914.157"/><use fill="rgb(13.729858%,12.159729%,12.548828%)" x="717.99" xlink:href="#f68c1bd7aL" y="914.157"/><g fill="rgb(13.729858%,12.159729%,12.548828%)"><use x="799.159" xlink:href="#f68c1bd7aM" y="914.157"/><use x="844.061" xlink:href="#f68c1bd7aG" y="914.157"/></g><use fill="rgb(13.729858%,12.159729%,12.548828%)" x="869.181" xlink:href="#f68c1bd7aK" y="914.157"/><use fill="rgb(13.729858%,12.159729%,12.548828%)" x="940.616" xlink:href="#f68c1bd7aM" y="914.157"/><g fill="rgb(13.729858%,12.159729%,12.548828%)"><use x="964.794" xlink:href="#f68c1bd7aN" y="914.157"/><use x="1040.468" xlink:href="#f68c1bd7aO" y="914.157"/><use x="1167.167" xlink:href="#f68c1bd7aM" y="914.157"/><use x="1212.069" xlink:href="#f68c1bd7aG" y="914.157"/><use x="1241.899" xlink:href="#f68c1bd7aP" y="914.157"/><use x="1289.313" xlink:href="#f68c1bd7aQ" y="914.157"/><use x="1353.997" xlink:href="#f68c1bd7aR" y="914.157"/></g><g fill="rgb(13.729858%,12.159729%,12.548828%)"><use x="17.825" xlink:href="#f68c1bd7aS" y="207"/><use x="111.325" xlink:href="#f68c1bd7aT" y="207"/></g><use fill="rgb(13.729858%,12.159729%,12.548828%)" x="198.535" xlink:href="#f68c1bd7aU" y="207"/><g fill="rgb(13.729858%,12.159729%,12.548828%)"><use x="279.961" xlink:href="#f68c1bd7aV" y="207"/><use x="316.001" xlink:href="#f68c1bd7aW" y="207"/><use x="427.011" xlink:href="#f68c1bd7aX" y="207"/></g><g fill="rgb(13.729858%,12.159729%,12.548828%)"><use x="585.621" xlink:href="#f68c1bd7aY" y="207"/><use x="660.591" xlink:href="#f68c1bd7aZ" y="207"/><use x="818.181" xlink:href="#f68c1bd7ba" y="207"/><use x="927.491" xlink:href="#f68c1bd7aV" y="207"/><use x="963.531" xlink:href="#f68c1bd7bb" y="207"/><use x="1051.421" xlink:href="#f68c1bd7bc" y="207"/><use x="1096.981" xlink:href="#f68c1bd7bd" y="207"/><use x="1183.001" xlink:href="#f68c1bd7be" y="207"/></g><use fill="rgb(13.729858%,12.159729%,12.548828%)" x="1202.721" xlink:href="#f68c1bd7bf" y="207"/><g fill="rgb(13.729858%,12.159729%,12.548828%)"><use x="1273.611" xlink:href="#f68c1bd7bc" y="207"/><use x="1319.171" xlink:href="#f68c1bd7bg" y="207"/></g></g></svg>