<?xml version='1.0' encoding='UTF-8'?>
<svg xmlns="http://www.w3.org/2000/svg" xmlns:xlink="http://www.w3.org/1999/xlink" width="450px" height="1000px" viewBox="0 0 450 1000" x="0px" y="0px" enable-background="new 0 0 450 1000"><defs><symbol overflow="visible" id="c42b87f4a"><path d="M3.38-22.77c0 4.77 3.92 6.47 7.82 7.93 4.05 1.43 8.33 2.82 8.33 7.42 0 4.76-4.4 6.56-8.01 6.56-3.14 0-6.08-1.03-8.46-2.7L2.3-2.34C4.45-.54 8.19.62 11.25.62c4.9 0 9.86-2.42 9.86-8.23 0-5.44-4.78-6.97-8.69-8.36-3.87-1.4-7.51-2.89-7.51-7.08 0-4.76 4.54-6.25 7.92-6.25 2.3 0 4.86.6 6.65 1.36l.58-1.31a17.3 17.3 0 00-6.87-1.53c-4.64 0-9.81 2.16-9.81 8.01zm0 0"/></symbol><symbol overflow="visible" id="c42b87f4b"><path d="M18.55-20.52h-1.58L5.48-8.28V-33.8l-1.43.1V0h1.43v-6.4l3.7-3.91L17.5 0h1.58c-.1-.36-.5-.9-.9-1.34l-8.1-9.96 7.65-8.1c.36-.4.68-.76.82-1.12zm0 0"/></symbol><symbol overflow="visible" id="c42b87f4c"><path d="M2.75-10.22C2.75-4 5.94.63 11.3.63c6.2 0 8.6-6.11 8.6-10.97 0-6.18-3.17-10.82-8.5-10.82-6.28 0-8.65 6.13-8.65 10.94zm15.66.05c0 3.37-.91 6.17-2.57 7.78A6.2 6.2 0 0111.4-.72c-4.73 0-7.16-4.19-7.16-9.62 0-3.43.94-6.22 2.66-7.85a6.3 6.3 0 014.36-1.6c4.69 0 7.16 4.18 7.16 9.62zm0 0"/></symbol><symbol overflow="visible" id="c42b87f4d"><path d="M5.48-33.8l-1.43.1v31.14C4.05-.5 5 .5 6.53.5 7.33.5 8.2.27 9-.05l-.36-1.17c-.72.28-1.39.36-1.8.36-.9 0-1.36-.67-1.36-2.2zm0 0"/></symbol><symbol overflow="visible" id="c42b87f4e"><path d="M4.69-9a5.42 5.42 0 00-2.44 4.45C2.25-1.3 4.31.5 7.3.5c2.6 0 5.39-1.36 7.78-3.6l.48 3.2 1.22-.2c-.31-4.09-.36-5.84-.36-7.42v-5.57c0-5.36-1.44-7.93-5.36-7.93-2.78 0-5.62 1.4-8 3.33l.72.96c2.16-1.63 4.86-2.94 7.25-2.94 2.92 0 3.95 1.98 3.95 7.34v.81C9.94-11.1 6.61-10.39 4.68-9zM7.33-.81c-2.06 0-3.6-1.35-3.6-3.78 0-1.66.91-2.79 1.75-3.47 1.36-.94 3.74-1.61 9.5-2.2v5.62C12.47-2.16 9.68-.81 7.33-.81zm0 0"/></symbol><symbol overflow="visible" id="c42b87f4f"><path d="M5-20.8l-1.27.2c.32 4 .36 5.88.36 7.41V0h1.44v-14.31c1.49-3.38 3.61-5.22 5.77-5.22.89 0 1.57.1 2.34.36l.44-1.13a4.74 4.74 0 00-2.64-.72c-2.44 0-4.5 1.58-5.96 4.55zm0 0"/></symbol><symbol overflow="visible" id="c42b87f4h"><path d="M3.83 0v-5.95H6.2v-.82H.45v.82h2.4V0zm0 0"/></symbol><symbol overflow="visible" id="c42b87f4i"><path d="M2.16 0v-2.69c0-.98.6-1.6 1.46-1.6.74 0 1.07.4 1.07 1.2V0h.95v-3.31c0-1.17-.56-1.85-1.67-1.85-.9 0-1.44.46-1.75 1.08h-.06v-3.06H1.2V0zm0 0"/></symbol><symbol overflow="visible" id="c42b87f4j"><path d="M3.58-5.81c.42 0 .72-.22.72-.67 0-.44-.3-.68-.72-.68-.44 0-.72.24-.72.68 0 .45.28.67.72.67zm.5.8H1.52v.76h1.6v3.48h-1.8V0h4.46v-.77h-1.7zm0 0"/></symbol><symbol overflow="visible" id="c42b87f4k"><path d="M2.16 0v-2.67c0-.99.59-1.63 1.46-1.63.74 0 1.07.38 1.07 1.22V0h.95v-3.31c0-1.2-.56-1.85-1.67-1.85-.92 0-1.49.46-1.77 1.08h-.06l-.12-.94H1.2V0zm0 0"/></symbol><symbol overflow="visible" id="c42b87f4r"><path d="M3.83-5.97h1.73v-.8H1.1v.8h1.75v5.19H1.1V0h4.47v-.78H3.83zm0 0"/></symbol><symbol overflow="visible" id="c42b87f4s"><path d="M5.52-4.25v-.77H3.17v-1.56h-.81l-.14 1.56H.75v.77h1.47v2.4c0 1.3.48 1.94 1.84 1.94C4.6.1 5.14 0 5.55-.14L5.4-.91c-.32.13-.72.2-1.13.2-.8 0-1.1-.37-1.1-1.23v-2.31zm0 0"/></symbol><symbol overflow="visible" id="c42b87f4t"><path d="M2.83.14c.94 0 1.5-.39 1.81-.95h.08l.1.81h.76v-3.38c0-1.23-.69-1.8-2.13-1.8-1.43 0-2.03.65-2.18 1.6l.93.1c.11-.6.44-.93 1.22-.93.85 0 1.22.32 1.22 1.04v.34l-1.81.2C1.6-2.7 1.1-2.17 1.1-1.28c0 .92.64 1.42 1.72 1.42zm.25-.77c-.67 0-1.02-.28-1.02-.74 0-.44.28-.72 1-.82l1.58-.19v.41c0 .8-.6 1.34-1.56 1.34zm0 0"/></symbol><symbol overflow="visible" id="c42b87f4u"><path d="M3.92-7.14H1.36v.76h1.6v5.61H1.15V0H5.7v-.77H3.92zm0 0"/></symbol><symbol overflow="visible" id="c42b87f4v"><path d="M3.34.14c1.43 0 2.13-.66 2.25-1.78l-.89-.1c-.1.7-.5 1.08-1.34 1.08-1.03 0-1.52-.64-1.52-1.84 0-1.23.47-1.86 1.52-1.86.84 0 1.23.36 1.34 1.08l.9-.1c-.13-1.09-.82-1.78-2.26-1.78-1.56 0-2.46.97-2.46 2.66 0 1.66.9 2.64 2.46 2.64zm0 0"/></symbol><symbol overflow="visible" id="c42b87f4C"><path d="M5.92-6.77H1.1V0h4.83v-.8H2.06v-2.26h3.22v-.75H2.06v-2.16h3.86zm0 0"/></symbol><symbol overflow="visible" id="c42b87f4D"><path d="M1.83 0l1.42-2h.06l1.46 2H5.8L4-2.53l1.78-2.49H4.8L3.42-3.08h-.08l-1.4-1.94H.89l1.78 2.49L.84 0zm0 0"/></symbol><symbol overflow="visible" id="c42b87f4E"><path d="M5.08-5.16c-.94 0-1.58.43-1.9 1.3h-.09l-.07-1.16H1.05v.77h1.1v3.48H.96V0h3.96v-.77H3.1v-1.46c0-1.36.6-2.05 1.83-2.05.4 0 .76.08 1.1.17l.15-.87c-.33-.11-.7-.18-1.11-.18zm0 0"/></symbol><symbol overflow="visible" id="c42b87f4F"><path d="M3.16 2.03c1.67 0 2.4-.86 2.4-2.51v-4.54h-.81l-.13.91h-.06c-.26-.58-.8-1.05-1.73-1.05-1.42 0-2.24 1-2.24 2.52 0 1.6.75 2.56 2.2 2.56.94 0 1.5-.5 1.77-1.03h.05v.72c0 1.17-.42 1.67-1.45 1.67-.93 0-1.3-.34-1.41-.89L.8.5c.12.96.87 1.54 2.36 1.54zM3.06-.8c-.98 0-1.48-.57-1.48-1.82 0-1.13.5-1.75 1.48-1.75 1.06 0 1.58.76 1.58 1.75 0 .95-.56 1.82-1.58 1.82zm0 0"/></symbol><symbol overflow="visible" id="c42b87f4S"><path d="M2.08-6.77h-.99V0h4.79v-.81h-3.8zm0 0"/></symbol><symbol overflow="visible" id="c42b87f4af"><path d="M4.06-2.77c1.25-.04 1.92-.7 1.92-1.96 0-1.36-.7-2.04-2.17-2.04H.92V0h.97v-2.73h1.08L4.95 0h1.1zM1.9-6h1.7c1.07 0 1.46.34 1.46 1.28 0 .9-.44 1.27-1.47 1.27H1.89zm0 0"/></symbol><symbol overflow="visible" id="c42b87f4ag"><path d="M5.75-2.23v-.43c0-1.6-.9-2.51-2.42-2.51S.87-4.16.87-2.48c0 1.71.91 2.62 2.5 2.62 1.43 0 2.07-.56 2.29-1.52l-.9-.09c-.18.61-.59.9-1.35.9-.94 0-1.52-.54-1.58-1.66zm-2.4-2.2c.93 0 1.43.5 1.48 1.55H1.84c.08-1.07.6-1.56 1.5-1.56zm0 0"/></symbol><symbol overflow="visible" id="c42b87f4ah"><path d="M2.73.14c.9 0 1.43-.45 1.74-1.08h.06l.13.94h.8v-5.02h-.94v2.7c0 .98-.57 1.62-1.46 1.62-.75 0-1.1-.4-1.1-1.22v-3.1h-.93v3.32c0 1.17.55 1.84 1.7 1.84zm0 0"/></symbol><symbol overflow="visible" id="c42b87f4au"><path d="M1.64 0v-3.17l-.16-2.5h.1L2.9-1.83h.82l1.35-3.84h.1l-.16 2.5V0h.95v-6.77h-1.3l-1.3 3.82h-.09L2-6.77H.69V0zm0 0"/></symbol><symbol overflow="visible" id="c42b87f4av"><path d="M2.84.14C3.8.14 4.33-.26 4.6-.9h.07L4.8 0h.76v-7.14h-.95v2.95h-.08c-.28-.6-.86-.97-1.67-.97-1.48 0-2.27.99-2.27 2.64C.6-.84 1.36.14 2.84.14zm.22-.8c-.98 0-1.48-.59-1.48-1.84s.5-1.86 1.48-1.86c1.13 0 1.58.8 1.58 1.86S4.2-.66 3.06-.66zm0 0"/></symbol><symbol overflow="visible" id="c42b87f4aw"><path d="M1.63 0v-2.9c0-.8.15-1.4.71-1.4.41 0 .55.3.55.88V0h.95v-2.9c0-.8.18-1.4.72-1.4.4 0 .57.3.57.88V0h.95v-3.63c0-.92-.28-1.53-1.11-1.53-.63 0-.95.41-1.1.9h-.06c-.1-.52-.44-.9-1.08-.9-.6 0-.93.41-1.06.9H1.6l-.23-.76H.67V0zm0 0"/></symbol><symbol overflow="visible" id="c42b87f4aJ"><path d="M3.42.14c1.61 0 2.56-.75 2.56-2 0-1.1-.67-1.6-1.95-1.86l-.97-.2c-.87-.17-1.23-.49-1.23-1.11 0-.7.54-1.11 1.5-1.11 1.06 0 1.51.34 1.69 1.23l.9-.09c-.17-1.28-.98-1.9-2.6-1.9C1.79-6.9.9-6.18.9-4.98c0 1.06.66 1.66 1.88 1.9l1.01.2c.85.17 1.25.4 1.25 1.09 0 .73-.6 1.16-1.6 1.16-1.07 0-1.66-.4-1.8-1.24l-.94.1C.83-.53 1.75.13 3.42.13zm0 0"/></symbol><symbol overflow="visible" id="c42b87f4aK"><path d="M3.9.14c1.48 0 2.18-.98 2.18-2.64 0-1.67-.7-2.66-2.17-2.66-.91 0-1.49.41-1.79 1h-.06v-2.98h-.95V0h.81l.11-.9h.06c.29.63.82 1.04 1.82 1.04zm-.32-.8c-1.08 0-1.55-.8-1.55-1.84 0-1.06.47-1.86 1.55-1.86 1.1 0 1.51.61 1.51 1.86S4.64-.66 3.58-.66zm0 0"/></symbol><symbol overflow="visible" id="c42b87f4aL"><path d="M3.33.14c1.62 0 2.5-.95 2.5-2.66 0-1.68-.88-2.64-2.5-2.64-1.63 0-2.5.96-2.5 2.64 0 1.7.87 2.66 2.5 2.66zm0-.77c-1.06 0-1.52-.6-1.52-1.89 0-1.28.46-1.87 1.52-1.87 1.08 0 1.53.6 1.53 1.87 0 1.29-.45 1.9-1.53 1.9zm0 0"/></symbol><symbol overflow="visible" id="c42b87f4aY"><path d="M4.66-3.45c.76-.14 1.15-.67 1.15-1.57 0-1.07-.64-1.75-2.18-1.75H.92V0h2.71C5.2 0 5.98-.64 5.98-1.77c0-1.03-.56-1.43-1.32-1.59zM3.56-6c.9 0 1.31.4 1.31 1.13 0 .71-.4 1.14-1.3 1.14h-1.7V-6zM1.87-.75v-2.27H3.6c.97 0 1.44.33 1.44 1.13 0 .8-.47 1.14-1.44 1.14zm0 0"/></symbol><symbol overflow="visible" id="c42b87f4bx"><path d="M5.77-5.02H4.63L2.3-2.88h-.06v-4.26h-.94V0h.94v-2.31h.06L4.71 0h1.24L3.23-2.69zm0 0"/></symbol><symbol overflow="visible" id="c42b87f4l"><path d="M4.45-22.86c0 4 3.2 6.4 6.25 7.97 3.3 1.58 6.63 3.45 6.63 7.16 0 1.25-.36 2.37-1 3.28-1.2 2.2-3.77 3.6-6.83 3.6-2.6 0-5.45-.82-7.7-2.62L.9-2.3C3.1-.3 6.45.62 9.37.62c5.48 0 9.55-3.28 9.55-8.64 0-4.21-4.14-6.51-6.85-7.95-2.6-1.4-5.98-3.37-5.98-6.98 0-1.3.36-2.43 1.03-3.33 1.34-1.94 3.92-3.02 6.8-3.02 2.42 0 4.71.6 6.15 1.32l.74-1.27c-1.46-.86-4.02-1.53-6.63-1.53-5.31 0-9.72 2.7-9.72 7.92zm0 0"/></symbol><symbol overflow="visible" id="c42b87f4m"><path d="M17.81-20.56h-1.65L4.8-9.36 8.06-33.8l-1.53.1L2.06 0H3.6l1-7.47 3.2-3.01L14.35 0h1.58c0-.27-.4-.9-.74-1.34L8.86-11.47l8.16-7.87c.36-.41.8-.86.8-1.22zm0 0"/></symbol><symbol overflow="visible" id="c42b87f4n"><path d="M2.06-7.83c0 4.96 2.3 8.46 6.75 8.46 5.72 0 9.77-6.93 9.77-13.2.05-4.8-2.11-8.62-6.7-8.62-5.85 0-9.77 7.28-9.82 13.36zm14.96-4.69c0 4.33-1.72 8.2-4.24 10.27A5.72 5.72 0 018.95-.81c-3.73 0-5.36-3.02-5.3-7.11 0-4.19 1.62-8.14 4.22-10.35a5.88 5.88 0 013.88-1.48c3.81 0 5.31 3.23 5.27 7.23zm0 0"/></symbol><symbol overflow="visible" id="c42b87f4o"><path d="M4.69.5C5.72.5 6.56.19 7.1-.14l-.4-1.13c-.54.24-1.08.36-1.66.36-1 0-1.32-.67-1.1-2.25L8.02-33.8l-1.49.1-4.1 30.87C2.17-.67 3.07.5 4.7.5zm0 0"/></symbol><symbol overflow="visible" id="c42b87f4p"><path d="M2.06-6.94C2.06-3.1 3.33.63 6.61.63c2.6 0 5.1-1.97 7.34-4.32L13.91.1 15.25 0c.19-3.47.31-5.08.45-6.34l1.8-12.57.05-.12c-1.25-1-2.97-2.16-5.36-2.16-5.85 0-10.16 6.66-10.13 14.25zm1.53-.08c0-5.71 2.58-10.67 6.04-12.25a6 6 0 012.39-.48c1.43 0 2.75.44 3.92 1.25l-1.9 13.1C11.7-2.98 8.96-.82 6.85-.78 4.6-.8 3.6-3.64 3.6-7.02zm0 0"/></symbol><symbol overflow="visible" id="c42b87f4q"><path d="M5.9-20.66l-1.45.14c-.36 5.22-.5 6.88-.67 8.29L2.16 0h1.53l1.58-11.8c2.39-4.17 5.04-7.64 7.56-7.64.81 0 1.3.13 1.7.32l.55-1.22a3.48 3.48 0 00-2.16-.72c-2.7 0-5.23 2.7-7.3 6.48zm0 0"/></symbol><symbol overflow="visible" id="c42b87f4w"><path d="M3.19-22.6c0 4.91 4.06 6.63 8.01 8.12 3.97 1.43 7.88 2.73 7.88 6.96 0 4.36-4.1 6.04-7.61 6.04a15.1 15.1 0 01-8.31-2.57l-1 1.75C4.3-.55 8.06.62 11.3.62c5.17 0 10.17-2.56 10.17-8.35 0-5.5-4.74-7.08-8.78-8.57-3.74-1.34-7.16-2.73-7.16-6.6 0-4.41 4.24-5.73 7.47-5.73 2.34 0 4.86.6 6.7 1.32l.77-1.85a17.1 17.1 0 00-7.16-1.62c-4.86 0-10.12 2.3-10.12 8.19zm0 0"/></symbol><symbol overflow="visible" id="c42b87f4x"><path d="M19.27-20.7h-2.3L6.07-8.9v-24.9l-2.2.1V0h2.2v-6.13L9.63-9.9 17.43 0h2.42a5.34 5.34 0 00-.98-1.58l-7.83-9.81 7.33-7.95c.45-.5.77-.96.9-1.36zm0 0"/></symbol><symbol overflow="visible" id="c42b87f4y"><path d="M2.6-10.17C2.6-3.95 5.9.63 11.35.63c6.35 0 9-6.04 9-11.16 0-6.16-3.28-10.8-8.73-10.8-6.3 0-9 6.03-9 11.16zm15.5-.1c0 3.2-.87 5.82-2.4 7.35a5.7 5.7 0 01-4.14 1.58c-4.4 0-6.7-3.88-6.7-9.1 0-3.28.9-5.86 2.44-7.37a5.73 5.73 0 014.1-1.53c4.35 0 6.7 3.9 6.7 9.07zm0 0"/></symbol><symbol overflow="visible" id="c42b87f4z"><path d="M6.08-33.8l-2.2.1v30.73C3.88-.67 4.95.5 6.8.5c.89 0 1.89-.23 2.83-.6l-.49-1.7c-.69.22-1.36.32-1.72.32-.94 0-1.34-.63-1.34-2.11zm0 0"/></symbol><symbol overflow="visible" id="c42b87f4A"><path d="M4.69-9.31A5.66 5.66 0 002.1-4.6C2.1-1.4 4.23.5 7.33.5c2.6 0 5.26-1.27 7.6-3.42l.55 3.06 1.85-.28a96.14 96.14 0 01-.36-7.6v-5.54c0-5.4-1.63-7.9-5.77-7.9-3.01 0-5.84 1.38-8.23 3.32l.9 1.44c2.2-1.63 4.77-2.8 7.07-2.8 2.83 0 3.83 1.8 3.83 6.84v.63c-4.96.4-8.16 1.13-10.08 2.44zm-.38 4.5a4 4 0 011.63-3.2c1.22-.85 3.47-1.44 8.83-1.97v5.12c-2.4 2.25-5 3.52-7.16 3.52-1.94 0-3.3-1.27-3.3-3.47zm0 0"/></symbol><symbol overflow="visible" id="c42b87f4B"><path d="M5.44-20.97l-1.88.22c.36 4.23.4 6.17.4 7.7V0h2.21v-14.27c1.44-3.06 3.46-4.64 5.58-4.64.9 0 1.56.1 2.38.36l.54-1.92a5.23 5.23 0 00-2.75-.72c-2.42 0-4.4 1.57-5.89 4.36zm0 0"/></symbol><symbol overflow="visible" id="c42b87f4G"><path d="M4.28-22.77c0 4 3.05 6.4 6.2 8.05 3.33 1.77 6.35 3.52 6.4 6.94 0 1.17-.32 2.2-.86 3.01-1.18 1.97-3.55 3.24-6.47 3.24-2.61 0-5.5-.86-7.61-2.47L.8-2.25C2.97-.41 6.25.63 9.45.63c5.63 0 9.68-3.33 9.68-8.7 0-4.26-3.83-6.55-6.75-8.13-2.7-1.49-5.72-3.33-5.72-6.66 0-1.22.3-2.2.95-3.1 1.3-1.71 3.6-2.66 6.25-2.66 2.47 0 4.77.59 6.25 1.3l.9-1.84c-1.48-.9-4.14-1.62-6.93-1.62-5.49 0-9.8 2.84-9.8 8.01zm0 0"/></symbol><symbol overflow="visible" id="c42b87f4H"><path d="M18.55-20.75h-2.4L5.49-9.98 8.64-33.8l-2.25.1L1.94 0h2.25l.98-7.38 2.97-2.7L14.27 0h2.3c0-.4-.41-1.03-.73-1.63L9.72-11.6l7.83-7.66c.45-.48 1-1.03 1-1.48zm0 0"/></symbol><symbol overflow="visible" id="c42b87f4I"><path d="M1.94-7.92c0 5 2.37 8.54 6.97 8.54 6.03 0 10.03-7.06 10.07-13.3.05-4.87-2.15-8.7-6.92-8.7-6.17 0-10.08 7.33-10.12 13.46zm14.75-4.67c-.03 4.14-1.61 7.87-4 9.93-.9.77-2.2 1.27-3.5 1.27-3.38 0-4.96-2.8-4.96-6.63.05-4.04 1.54-7.92 4-10.03.91-.72 2.25-1.3 3.57-1.3 3.54 0 4.89 2.93 4.89 6.76zm0 0"/></symbol><symbol overflow="visible" id="c42b87f4J"><path d="M5 .5C6.2.5 7.2.14 7.78-.22l-.45-1.62c-.53.22-1.13.36-1.66.36-.98 0-1.26-.68-1.08-2.2l4-30.12-2.25.1L2.3-3.28C2.03-.86 2.97.5 5 .5zm0 0"/></symbol><symbol overflow="visible" id="c42b87f4K"><path d="M1.94-6.97c0 3.9 1.3 7.55 4.67 7.55 2.58 0 5.1-1.85 7.3-4.05l.04 3.61 1.94-.19c.17-3.64.36-5.36.48-6.65l1.77-12.47v-.1c-1.36-.98-3.2-2.1-5.67-2.1-6.17 0-10.58 6.6-10.53 14.4zm2.3-.28c0-5.34 2.2-9.94 5.43-11.56a6 6 0 012.4-.5c1.29 0 2.55.33 3.73.95L14-5.67c-2.2 2.25-4.81 4.19-6.9 4.23-1.97-.1-2.87-2.65-2.87-5.81zm0 0"/></symbol><symbol overflow="visible" id="c42b87f4L"><path d="M6.34-20.83l-2.03.17c-.31 5.22-.48 6.9-.67 8.38L2.04 0h2.24L5.9-11.97c2.25-3.97 4.74-6.94 7.16-6.94.76 0 1.26.14 1.67.33l.76-1.94a3.86 3.86 0 00-2.25-.71c-2.65 0-5 2.42-7.03 5.93zm0 0"/></symbol><symbol overflow="visible" id="c42b87f4M"><path d="M3.06-22.4c0 5.02 4.14 6.74 8.19 8.27 3.78 1.4 7.42 2.66 7.42 6.47 0 4.02-3.78 5.5-7.23 5.5-3.02 0-5.81-.9-8.2-2.43L1.97-2.2C4.23-.55 7.88.63 11.3.63c5.53 0 10.48-2.66 10.48-8.55 0-5.49-4.64-7.06-8.83-8.69-3.6-1.3-6.78-2.56-6.78-6.16 0-4.04 3.96-5.21 7.06-5.21 2.38 0 4.86.57 6.66 1.3l.94-2.38c-1.97-1-4.77-1.72-7.38-1.72-5.12 0-10.39 2.44-10.39 8.37zm0 0"/></symbol><symbol overflow="visible" id="c42b87f4N"><path d="M19.98-20.88h-3.01L6.7-9.5v-24.3l-2.97.1V0H6.7v-5.84l3.38-3.61L17.38 0h3.23a5.45 5.45 0 00-1.03-1.75l-7.61-9.77 7.06-7.8c.5-.57.86-1.07.95-1.55zm0 0"/></symbol><symbol overflow="visible" id="c42b87f4O"><path d="M2.47-10.17c0 6.25 3.37 10.8 8.97 10.8 6.42 0 9.31-5.9 9.31-11.33 0-6.22-3.33-10.82-8.92-10.82-6.4 0-9.36 5.99-9.36 11.35zm15.26-.14c0 3.01-.76 5.4-2.17 6.84a5.14 5.14 0 01-3.86 1.53c-4.1 0-6.22-3.64-6.22-8.64 0-3.06.86-5.48 2.2-6.87a5.44 5.44 0 013.88-1.46c4.05 0 6.17 3.66 6.17 8.6zm0 0"/></symbol><symbol overflow="visible" id="c42b87f4P"><path d="M6.6-33.8l-2.91.1v30.37C3.69-.8 4.9.5 7.06.5 8.1.5 9.22.27 10.31-.19l-.69-2.25c-.62.24-1.24.33-1.65.33-.95 0-1.36-.6-1.36-2.03zm0 0"/></symbol><symbol overflow="visible" id="c42b87f4Q"><path d="M4.72-9.63a5.83 5.83 0 00-2.69 4.94C2.03-1.44 4.1.5 7.33.5c2.6 0 5.19-1.22 7.48-3.3L15.4.2l2.47-.38c-.31-4.36-.36-6.15-.36-7.78v-5.44c0-5.5-1.8-7.96-6.16-7.96-3.2 0-6.12 1.39-8.51 3.37L4-16.1c2.2-1.59 4.64-2.67 6.84-2.67 2.7 0 3.7 1.68 3.7 6.35v.45c-4.87.45-7.98 1.13-9.82 2.35zm3.16 7.7c-1.8 0-2.97-1.09-2.97-3.12 0-1.39.71-2.33 1.48-2.87 1.13-.81 3.24-1.35 8.14-1.8v4.64c-2.25 2.06-4.62 3.19-6.65 3.14zm0 0"/></symbol><symbol overflow="visible" id="c42b87f4R"><path d="M5.9-21.19l-2.53.36c.36 4.4.41 6.35.41 7.9V0h2.97v-14.17c1.44-2.75 3.42-4.1 5.48-4.1.86 0 1.58.08 2.4.36l.62-2.7a5.66 5.66 0 00-2.83-.77c-2.44 0-4.36 1.54-5.86 4.24zm0 0"/></symbol><symbol overflow="visible" id="c42b87f4T"><path d="M4.1-22.64c0 3.97 2.92 6.31 6.17 8.16 3.42 1.89 6.06 3.5 6.1 6.7 0 1.03-.26 1.94-.71 2.73-1.08 1.72-3.33 2.9-6.11 2.9-2.61 0-5.46-.91-7.49-2.4L.67-2.2C2.83-.45 6.13.63 9.5.63c5.8 0 9.9-3.33 9.9-8.72 0-4.33-3.6-6.63-6.71-8.33-2.83-1.63-5.49-3.33-5.49-6.4 0-1.02.27-1.93.9-2.84 1.26-1.48 3.3-2.32 5.71-2.32 2.56 0 4.86.62 6.3 1.34l1.17-2.4a15.25 15.25 0 00-7.23-1.74c-5.68 0-9.96 2.97-9.96 8.14zm0 0"/></symbol><symbol overflow="visible" id="c42b87f4U"><path d="M19.27-20.92h-3.11L6.17-10.58 9.22-33.8l-2.97.1L1.8 0h2.97l1-7.3L8.5-9.72 14.17 0h3.02c0-.5-.36-1.22-.72-1.84l-5.9-9.86 7.52-7.47c.58-.53 1.18-1.22 1.18-1.75zm0 0"/></symbol><symbol overflow="visible" id="c42b87f4V"><path d="M1.84-8.02C1.8-2.97 4.24.62 8.95.62c6.44 0 10.4-7.23 10.44-13.45.05-4.9-2.2-8.73-7.16-8.73-6.46 0-10.39 7.43-10.39 13.54zm14.49-4.71c0 3.95-1.49 7.6-3.69 9.67a5.65 5.65 0 01-3.23 1.03c-3.07 0-4.55-2.56-4.55-6.06.05-3.93 1.44-7.7 3.73-9.72a5.22 5.22 0 013.2-1.1c3.29 0 4.59 2.61 4.54 6.18zm0 0"/></symbol><symbol overflow="visible" id="c42b87f4W"><path d="M5.27.5C6.7.5 7.83.05 8.45-.27l-.48-2.17c-.55.19-1.17.33-1.67.33-.94 0-1.25-.64-1.08-2.12L9.14-33.8l-2.97.1L2.2-3.78C1.9-.98 2.92.5 5.27.5zm0 0"/></symbol><symbol overflow="visible" id="c42b87f4X"><path d="M1.8-7.02c0 4 1.36 7.6 4.8 7.6 2.54 0 5.15-1.7 7.26-3.86L14 .14l2.52-.28c.21-3.81.4-5.53.54-6.92l1.7-12.33v-.1a10.75 10.75 0 00-6.03-2.07C6.3-21.56 1.8-14.98 1.8-7.02zm3.06-.5c0-4.9 1.89-9.17 4.9-10.89.68-.3 1.54-.5 2.4-.5a8.9 8.9 0 013.45.77l-1.7 12.2C11.87-3.92 9.4-2.2 7.42-2.1c-1.8-.14-2.56-2.44-2.56-5.4zm0 0"/></symbol><symbol overflow="visible" id="c42b87f4Y"><path d="M6.75-21.06l-2.52.23a165 165 0 01-.71 8.45L1.89 0h2.97l1.62-12.19c2.16-3.6 4.5-6.17 6.75-6.17.72 0 1.3.14 1.66.31l.95-2.7c-.59-.4-1.4-.67-2.34-.67-2.6 0-4.77 2.15-6.7 5.48zm0 0"/></symbol><symbol overflow="visible" id="c42b87f4Z"><path d="M2.92-22.31c0 5.22 4.24 6.92 8.33 8.5 3.69 1.34 7.1 2.51 7.1 6.08 0 3.68-3.54 5.07-6.91 5.07-2.99 0-5.77-.86-8.16-2.3L1.9-2.15C4.1-.55 7.8.63 11.34.63c5.72 0 10.75-2.79 10.75-8.7 0-5.48-4.64-7.1-8.95-8.76-3.47-1.26-6.48-2.48-6.48-5.81 0-3.78 3.68-4.86 6.7-4.86a20 20 0 016.7 1.27l1.1-2.8a17.94 17.94 0 00-7.61-1.75c-5.27 0-10.63 2.51-10.63 8.47zm0 0"/></symbol><symbol overflow="visible" id="c42b87f4aa"><path d="M20.56-21.02h-3.6L7.17-9.98V-33.8l-3.57.1V0h3.57v-5.63l3.28-3.51L17.33 0h3.86a6.23 6.23 0 00-1.08-1.94l-7.42-9.62 6.84-7.75c.58-.58.94-1.16 1.03-1.7zm0 0"/></symbol><symbol overflow="visible" id="c42b87f4ab"><path d="M2.4-10.13C2.4-3.87 5.83.63 11.46.63c6.48 0 9.64-5.8 9.64-11.47 0-6.22-3.42-10.8-9.1-10.8-6.48 0-9.62 5.94-9.62 11.52zm15.05-.18c0 2.8-.72 5.1-1.97 6.44a4.89 4.89 0 01-3.65 1.43c-3.81 0-5.85-3.37-5.85-8.19 0-3.01.82-5.21 2.04-6.56.8-.76 2.01-1.39 3.64-1.39 3.82 0 5.8 3.45 5.8 8.27zm0 0"/></symbol><symbol overflow="visible" id="c42b87f4ac"><path d="M7.06-33.8l-3.5.1v30.06C3.56-.94 4.86.5 7.25.5 8.38.5 9.63.27 10.8-.22l-.77-2.65c-.62.21-1.22.3-1.65.3-.91 0-1.32-.59-1.32-2.02zm0 0"/></symbol><symbol overflow="visible" id="c42b87f4ad"><path d="M4.77-9.86a5.98 5.98 0 00-2.88 5.1C1.9-1.54 4 .5 7.38.5c2.56 0 5.09-1.17 7.3-3.16L15.3.22l2.97-.44c-.32-4.47-.36-6.31-.36-7.92v-5.4c0-5.54-1.97-7.98-6.47-7.98-3.35 0-6.31 1.41-8.64 3.43l1.3 2.2c2.2-1.53 4.59-2.52 6.7-2.52 2.6 0 3.6 1.54 3.6 5.99v.31c-4.85.4-7.84 1.08-9.63 2.25zm.59 4.69c0-1.36.62-2.2 1.34-2.75 1.08-.67 3.07-1.22 7.7-1.58v4.23c-2.21 1.9-4.46 2.93-6.3 2.93-1.7 0-2.74-.99-2.74-2.83zm0 0"/></symbol><symbol overflow="visible" id="c42b87f4ae"><path d="M6.25-21.33l-2.97.4c.31 4.55.36 6.52.36 8.15V0H7.2v-14.08c1.44-2.58 3.33-3.7 5.36-3.7.9 0 1.61.1 2.42.33l.72-3.25a5.44 5.44 0 00-2.92-.82c-2.39 0-4.33 1.49-5.81 4.14zm0 0"/></symbol><symbol overflow="visible" id="c42b87f4ai"><path d="M3.95-22.55c0 3.93 2.8 6.3 6.08 8.24 3.52 1.94 5.94 3.51 5.94 6.53 0 .89-.17 1.75-.58 2.51-.98 1.54-3.16 2.61-5.81 2.61-2.64 0-5.49-.93-7.42-2.3L.62-2.15C2.75-.55 6.04.63 9.55.63c5.89 0 10.07-3.33 10.07-8.77 0-4.38-3.42-6.67-6.67-8.52-2.92-1.65-5.3-3.23-5.3-6.06 0-1 .22-1.81.8-2.66a7.2 7.2 0 015.36-2.12c2.56 0 4.86.64 6.3 1.36l1.36-2.84a15.95 15.95 0 00-7.47-1.8c-5.86 0-10.05 3.1-10.05 8.23zm0 0"/></symbol><symbol overflow="visible" id="c42b87f4aj"><path d="M19.8-21.06h-3.7l-9.4 10L9.67-33.8l-3.5.1L1.7 0h3.52l.95-7.2 2.61-2.25L14.13 0h3.56c0-.55-.36-1.34-.77-2.06l-5.67-9.74 7.3-7.28c.67-.62 1.25-1.36 1.25-1.98zm0 0"/></symbol><symbol overflow="visible" id="c42b87f4ak"><path d="M1.7-8.1C1.7-3.01 4.2.63 9 .63c6.7 0 10.63-7.32 10.7-13.54 0-4.99-2.25-8.77-7.28-8.77-6.8 0-10.67 7.47-10.72 13.6zm14.36-4.73c0 3.88-1.34 7.4-3.5 9.46-.76.54-1.89.9-2.98.9-2.78 0-4.27-2.39-4.22-5.72 0-3.78 1.34-7.51 3.5-9.5.77-.53 1.89-.89 2.97-.89 3.06 0 4.28 2.33 4.23 5.75zm0 0"/></symbol><symbol overflow="visible" id="c42b87f4al"><path d="M5.48.5C7.06.5 8.33 0 8.95-.31l-.53-2.52c-.5.13-1.12.22-1.62.22-.96 0-1.27-.58-1.08-2.03L9.58-33.8l-3.55.1L2.16-4.1C1.8-1.12 2.87.5 5.48.5zm0 0"/></symbol><symbol overflow="visible" id="c42b87f4am"><path d="M1.7-7.02c0 4.05 1.36 7.6 4.96 7.6 2.48 0 5.09-1.66 7.2-3.74L14.08.2l2.94-.38c.21-3.95.4-5.7.57-7.14l1.63-12.3h.05a11.38 11.38 0 00-6.35-2.06C6.3-21.69 1.67-15.12 1.7-7.02zm3.61-.67c0-4.6 1.66-8.64 4.5-10.4a6.7 6.7 0 012.38-.46c1.1 0 2.17.2 3.3.6L13.85-6.17c-1.9 1.89-4.28 3.42-6.2 3.56C6.03-2.8 5.3-4.86 5.3-7.69zm0 0"/></symbol><symbol overflow="visible" id="c42b87f4an"><path d="M7.1-21.23l-2.96.3c-.36 5.18-.55 6.98-.76 8.5L1.75 0h3.56l1.63-12.33c2.06-3.42 4.26-5.62 6.42-5.62.72 0 1.31.17 1.72.3l1.03-3.23c-.55-.4-1.4-.68-2.4-.68-2.55 0-4.62 1.98-6.46 5.14zm0 0"/></symbol><symbol overflow="visible" id="c42b87f4ao"><path d="M2.83-22.14c0 5.31 4.28 7.02 8.42 8.64 3.6 1.31 6.75 2.44 6.75 5.67 0 3.38-3.28 4.64-6.6 4.64-2.9 0-5.63-.81-8.07-2.17L1.75-2.1A18.08 18.08 0 0011.39.62c5.94 0 10.97-2.87 10.97-8.8 0-5.5-4.55-7.16-9-8.88-3.38-1.25-6.2-2.42-6.2-5.44 0-3.52 3.46-4.45 6.39-4.45 2.47 0 4.9.57 6.65 1.26l1.27-3.25c-2.16-1.12-5-1.84-7.83-1.84-5.45 0-10.81 2.6-10.81 8.64zm0 0"/></symbol><symbol overflow="visible" id="c42b87f4ap"><path d="M21.16-21.16h-4.2l-9.3 10.68V-33.8l-4.2.1V0h4.2v-5.4l3.14-3.38L17.23 0h4.55a5.97 5.97 0 00-1.08-2.06l-7.25-9.6 6.61-7.6c.64-.68 1-1.3 1.1-1.9zm0 0"/></symbol><symbol overflow="visible" id="c42b87f4aq"><path d="M2.25-10.13C2.25-3.83 5.81.63 11.52.63c6.62 0 9.95-5.7 9.95-11.61 0-6.2-3.52-10.8-9.24-10.8-6.56 0-9.98 5.84-9.98 11.66zm14.94-.21c0 2.65-.67 4.76-1.8 6.03a4.65 4.65 0 01-3.42 1.39c-3.6 0-5.44-3.2-5.44-7.78 0-2.9.72-4.96 1.84-6.18a4.55 4.55 0 013.43-1.34c3.54 0 5.39 3.24 5.39 7.88zm0 0"/></symbol><symbol overflow="visible" id="c42b87f4ar"><path d="M7.56-33.8l-4.18.1v29.75C3.38-1.08 4.8.5 7.46.5c1.22 0 2.56-.28 3.87-.77l-.9-3.15c-.63.23-1.17.31-1.63.31-.89 0-1.25-.53-1.25-1.89zm0 0"/></symbol><symbol overflow="visible" id="c42b87f4as"><path d="M4.77-10.08A6.09 6.09 0 001.8-4.8C1.8-1.58 3.92.5 7.38.5c2.56 0 5.04-1.13 7.2-3.06l.67 2.83 3.47-.49c-.31-4.6-.4-6.48-.4-8.1v-5.37c0-5.58-2.12-7.95-6.76-7.95-3.5 0-6.51 1.39-8.86 3.42l1.53 2.61c2.16-1.53 4.46-2.44 6.47-2.44 2.53 0 3.52 1.4 3.52 5.58v.19c-4.77.4-7.69 1.08-9.45 2.2zm1.07 4.72c0-1.25.55-2.01 1.27-2.51.95-.63 2.83-1.08 7.1-1.44v3.87C12.17-3.69 10.04-2.8 8.34-2.8c-1.63 0-2.49-.89-2.49-2.56zm0 0"/></symbol><symbol overflow="visible" id="c42b87f4at"><path d="M6.6-21.52l-3.5.46c.37 4.76.46 6.7.46 8.42V0H7.7v-14c1.45-2.3 3.25-3.23 5.26-3.23.86 0 1.58.09 2.44.3l.77-3.9a5.61 5.61 0 00-2.97-.81c-2.4 0-4.28 1.48-5.77 4.05zm0 0"/></symbol><symbol overflow="visible" id="c42b87f4ax"><path d="M3.78-22.45c0 3.87 2.7 6.25 6.08 8.32 3.55 2.07 5.7 3.5 5.7 6.35a4.7 4.7 0 01-.48 2.25c-.9 1.34-2.92 2.37-5.5 2.37-2.64 0-5.49-1.03-7.28-2.25L.55-2.1A15.58 15.58 0 009.58.62C15.6.63 19.8-2.7 19.8-8.18c0-4.41-3.14-6.66-6.57-8.65-3.01-1.75-5.14-3.23-5.14-5.86 0-.84.2-1.56.77-2.42a6.96 6.96 0 014.9-1.89c2.62 0 4.91.72 6.4 1.4l1.53-3.3a16.4 16.4 0 00-7.78-1.88c-5.94 0-10.13 3.2-10.13 8.33zm0 0"/></symbol><symbol overflow="visible" id="c42b87f4ay"><path d="M20.4-21.23h-4.3l-8.85 9.62 2.92-22.19-4.14.1L1.58 0h4.14l.94-7.1L9.09-9.2 14.08 0h4.14a5.3 5.3 0 00-.77-2.3l-5.53-9.57 7.06-7.11c.77-.72 1.41-1.54 1.41-2.25zm0 0"/></symbol><symbol overflow="visible" id="c42b87f4az"><path d="M1.63-8.19C1.57-3.06 4.13.62 9.04.62 16.06.63 19.98-6.83 20.03-13c.03-5.05-2.3-8.83-7.47-8.83-7.08 0-10.89 7.47-10.94 13.64zm14.17-4.73c0 3.7-1.27 7.1-3.28 9.19-.72.45-1.82.76-2.7.76-2.57 0-4-2.2-3.98-5.26.05-3.7 1.27-7.33 3.3-9.27a5.36 5.36 0 012.73-.72c2.8 0 3.93 2.06 3.93 5.3zm0 0"/></symbol><symbol overflow="visible" id="c42b87f4aA"><path d="M5.77.5c1.7 0 3.09-.55 3.73-.86l-.55-2.97a6.8 6.8 0 01-1.65.22c-.96 0-1.22-.53-1.05-1.94l3.78-28.75-4.14.1L2.06-4.5c-.39 3.23.77 5 3.7 5zm0 0"/></symbol><symbol overflow="visible" id="c42b87f4aB"><path d="M1.58-7.06c0 4.14 1.39 7.6 5.08 7.6 2.43 0 5.09-1.52 7.2-3.5l.27 3.18 3.42-.44c.23-4.14.4-5.95.6-7.39l1.6-12.19v-.04a12.78 12.78 0 00-6.6-1.99C6.3-21.83 1.57-15.3 1.57-7.06zm4.23-.82c0-4.28 1.44-8.06 4.05-9.85a6.5 6.5 0 012.37-.46c1 0 2.04.14 3.11.46L13.81-6.34C12.01-4.7 9.77-3.33 7.87-3.2c-1.39-.19-2.06-2.03-2.06-4.69zm0 0"/></symbol><symbol overflow="visible" id="c42b87f4aC"><path d="M7.47-21.42l-3.42.36c-.4 5.17-.58 6.98-.77 8.6L1.68 0H5.8l1.61-12.47c1.99-3.14 4.05-5.03 6.13-5.03.67 0 1.26.17 1.65.31l1.22-3.83a4.17 4.17 0 00-2.42-.67c-2.56 0-4.55 1.8-6.31 4.77zm0 0"/></symbol><symbol overflow="visible" id="c42b87f4aD"><path d="M2.66-22c0 5.44 4.4 7.19 8.64 8.86 3.42 1.27 6.3 2.34 6.3 5.22 0 2.97-2.98 4.14-6.2 4.14-2.9 0-5.59-.77-7.98-2.03l-1.8 3.75A18.45 18.45 0 0011.4.63c6.25 0 11.3-3.02 11.3-8.96 0-5.48-4.47-7.2-9.1-9.04-3.25-1.2-5.86-2.25-5.86-4.99 0-3.2 3.16-4.02 5.99-4.02 2.58 0 4.95.6 6.72 1.27l1.39-3.78a18.52 18.52 0 00-8.06-1.9c-5.7 0-11.11 2.71-11.11 8.79zm0 0"/></symbol><symbol overflow="visible" id="c42b87f4aE"><path d="M21.83-21.33h-4.9L8.18-11.1V-33.8l-4.86.1V0h4.86v-5.17l3.06-3.2L17.19 0h5.31a6.76 6.76 0 00-1.13-2.25l-7.06-9.5 6.4-7.47c.66-.76 1.07-1.44 1.12-2.1zm0 0"/></symbol><symbol overflow="visible" id="c42b87f4aF"><path d="M2.1-10.08c0 6.3 3.67 10.7 9.5 10.7C18.28.63 21.89-5 21.89-11.15c0-6.21-3.61-10.8-9.46-10.8-6.65 0-10.31 5.8-10.31 11.88zm14.78-.31c0 2.47-.58 4.4-1.63 5.58a4.1 4.1 0 01-3.14 1.3c-3.3 0-5-2.93-5-7.29 0-2.75.67-4.6 1.67-5.72a4.02 4.02 0 013.14-1.26c3.28 0 4.96 2.97 4.96 7.39zm0 0"/></symbol><symbol overflow="visible" id="c42b87f4aG"><path d="M8.1-33.8l-4.87.1v29.39C3.23-1.21 4.77.5 7.73.5c1.32 0 2.8-.28 4.2-.81l-1-3.64c-.62.17-1.12.26-1.62.26-.89 0-1.22-.5-1.22-1.84zm0 0"/></symbol><symbol overflow="visible" id="c42b87f4aH"><path d="M4.81-10.4a6.32 6.32 0 00-3.1 5.5C1.7-1.68 3.82.5 7.41.5c2.52 0 4.96-1.08 7.06-2.94l.7 2.75 4.04-.58c-.28-4.73-.36-6.62-.36-8.28v-5.3c0-5.63-2.3-7.98-7.16-7.98-3.73 0-6.75 1.44-9.1 3.47l1.71 3.02c2.22-1.44 4.38-2.25 6.36-2.25 2.38 0 3.33 1.21 3.33 5.07v.05c-4.69.4-7.47 1.03-9.19 2.08zM6.4-5.52c0-1.17.45-1.84 1.13-2.3.86-.54 2.6-.95 6.48-1.22v3.38c-1.94 1.58-3.88 2.34-5.4 2.34-1.54 0-2.2-.76-2.2-2.2zm0 0"/></symbol><symbol overflow="visible" id="c42b87f4aI"><path d="M7.06-21.69l-4.1.53c.32 4.91.42 6.94.42 8.64V0h4.85v-13.86a6 6 0 015.13-2.8c.9 0 1.62.1 2.48.33l.85-4.64a5.5 5.5 0 00-3.05-.86c-2.39 0-4.23 1.44-5.67 3.97zm0 0"/></symbol><symbol overflow="visible" id="c42b87f4aM"><path d="M3.6-22.31c0 3.81 2.57 6.2 6.03 8.4 3.6 2.16 5.5 3.52 5.5 6.08 0 .72-.1 1.4-.36 2.02-.82 1.12-2.75 2.03-5.14 2.03A15.3 15.3 0 012.38-5.9L.41-2.06A16.9 16.9 0 009.62.63c6.18 0 10.44-3.38 10.44-8.86 0-4.46-2.92-6.7-6.51-8.83-3.16-1.85-4.9-3.19-4.9-5.53 0-.77.13-1.35.66-2.2a6.94 6.94 0 014.4-1.59c2.66 0 4.96.72 6.45 1.41l1.76-3.83a17.06 17.06 0 00-8.06-1.98c-6.17 0-10.27 3.33-10.27 8.47zm0 0"/></symbol><symbol overflow="visible" id="c42b87f4aN"><path d="M21.06-21.42h-4.95l-8.23 9.19 2.87-21.57-4.86.1L1.44 0H6.3l.9-6.97 2.2-1.89L14 0h4.86c0-.72-.31-1.63-.81-2.52l-5.32-9.45 6.8-6.94c.86-.8 1.53-1.7 1.53-2.51zm0 0"/></symbol><symbol overflow="visible" id="c42b87f4aO"><path d="M1.53-8.33C1.48-3.06 4.1.63 9.1.63c7.33 0 11.25-7.6 11.3-13.77.05-5.08-2.34-8.86-7.66-8.86-7.37 0-11.15 7.56-11.2 13.67zm13.95-4.72c-.04 3.55-1.17 6.88-3.06 8.96-.67.3-1.58.53-2.44.53-2.2 0-3.59-1.97-3.54-4.77.04-3.54 1.17-7.1 3.06-8.95a5.08 5.08 0 012.42-.53c2.52 0 3.56 1.75 3.56 4.76zm0 0"/></symbol><symbol overflow="visible" id="c42b87f4aP"><path d="M6.03.5a10 10 0 004.1-.9l-.58-3.48c-.5.1-1.22.2-1.68.2-.9 0-1.17-.5-.98-1.9l3.64-28.22-4.81.1L1.98-4.9C1.58-1.45 2.8.5 6.03.5zm0 0"/></symbol><symbol overflow="visible" id="c42b87f4aQ"><path d="M1.44-7.06c0 4.23 1.44 7.6 5.22 7.6 2.39 0 5.14-1.45 7.2-3.37l.31 3.05 3.97-.49c.22-4.32.48-6.17.63-7.7l1.57-12.06A13.77 13.77 0 0013.36-22C6.25-22 1.44-15.53 1.44-7.06zm4.95-1.08c0-3.88 1.13-7.3 3.52-9.19a6.56 6.56 0 012.42-.45c.86 0 1.84.14 2.84.36l-1.4 10.81C12.1-5.12 9.94-4 8.14-3.83 6.97-4.05 6.4-5.63 6.4-8.14zm0 0"/></symbol><symbol overflow="visible" id="c42b87f4aR"><path d="M7.88-21.64l-3.96.45c-.36 5.13-.6 7.02-.76 8.63L1.53 0h4.81l1.68-12.6c1.84-2.88 3.78-4.42 5.7-4.42.64 0 1.26.2 1.72.33l1.34-4.5a4.4 4.4 0 00-2.51-.68c-2.52 0-4.36 1.67-6.08 4.45zm0 0"/></symbol><symbol overflow="visible" id="c42b87f4aS"><path d="M2.4-21.73c0 5.57 4.54 7.37 8.85 9.09 3.19 1.17 5.67 2.1 5.67 4.62 0 2.58-2.56 3.61-5.58 3.61-2.8 0-5.62-.76-7.96-1.89L1.44-1.98C3.74-.58 7.47.62 11.52.62c6.57 0 11.65-3.09 11.65-9.12 0-5.55-4.5-7.4-9.26-9.28-3.02-1.16-5.32-2.11-5.32-4.5 0-2.69 2.7-3.45 5.36-3.45 2.47 0 4.86.57 6.7 1.2l1.66-4.22a18.16 18.16 0 00-8.5-2.03c-6.12 0-11.42 2.87-11.42 9.05zm0 0"/></symbol><symbol overflow="visible" id="c42b87f4aT"><path d="M22.81-21.6h-5.84l-6.03 7.74H9V-33.8l-6.03.1V0H9v-8.9h2.16l5.9 8.9h6.35c-.14-.86-.5-1.7-1.13-2.56l-6.62-9.19 5.93-7.42c.77-.94 1.18-1.66 1.22-2.42zm0 0"/></symbol><symbol overflow="visible" id="c42b87f4aU"><path d="M1.84-10.22C1.84-3.95 5.58.63 11.8.63c6.97 0 10.8-5.49 10.8-11.83 0-6.22-3.66-11.03-9.91-11.03-6.92 0-10.85 5.71-10.85 12.01zm14.68-.26c0 2.34-.5 4.18-1.44 5.3-.5.59-1.4 1.18-2.75 1.18-2.88 0-4.36-2.8-4.36-6.94 0-2.51.58-4.4 1.44-5.48.5-.64 1.39-1.17 2.75-1.17 2.92 0 4.36 2.96 4.36 7.1zm0 0"/></symbol><symbol overflow="visible" id="c42b87f4aV"><path d="M8.86-33.8l-5.98.1v29.06C2.88-1.27 4.67.5 7.72.5c1.54 0 3.2-.28 4.74-.9l-.95-4.29c-.54.19-.99.28-1.4.28-.9 0-1.26-.54-1.26-1.84zm0 0"/></symbol><symbol overflow="visible" id="c42b87f4aW"><path d="M4.45-10.44a6.25 6.25 0 00-2.97 5.36C1.48-1.62 3.73.5 7.42.5c2.56 0 4.96-1.13 7.02-3.02l.95 2.83 4.72-.67c-.31-4.86-.4-6.84-.4-8.6v-5c0-5.62-2.48-8.13-7.84-8.13a15 15 0 00-9.48 3.32l1.8 3.57a12.05 12.05 0 016.34-2.08c2.35 0 3.24 1.08 3.24 4.55-4.58.4-7.57 1.12-9.32 2.3zm2.61 4.5c0-1.03.36-1.67 1-2.08.75-.53 2.38-.89 5.7-1.12v3.37c-1.65 1.32-3.28 1.99-4.62 1.99-1.45 0-2.08-.77-2.08-2.16zm0 0"/></symbol><symbol overflow="visible" id="c42b87f4aX"><path d="M7.42-21.95l-4.76.62c.3 5.13.4 7.2.4 9.05V0h5.99v-13.72a5.83 5.83 0 014.86-2.3c.86 0 1.62.05 2.46.27l.96-5.44a5.74 5.74 0 00-3.16-.9c-2.42 0-4.19 1.53-5.58 4zm0 0"/></symbol><symbol overflow="visible" id="c42b87f4aZ"><path d="M3.38-22.1c0 3.96 2.6 6.44 6.2 8.7 3.25 1.96 4.95 3.23 4.95 5.48 0 .62-.1 1.22-.31 1.75-.77 1-2.52 1.76-4.64 1.76-2.64 0-5.53-1.03-7.33-2.03L.19-2.04A17.47 17.47 0 009.63.64c6.53 0 10.93-3.43 10.93-9.08 0-4.47-2.87-6.75-6.56-8.97-2.9-1.75-4.5-3.02-4.5-5.08 0-.63.08-1.17.58-1.9a6.36 6.36 0 014-1.33c2.53 0 4.86.67 6.44 1.34l1.89-4.4a18.2 18.2 0 00-8.33-2c-6.52 0-10.7 3.38-10.7 8.7zm0 0"/></symbol><symbol overflow="visible" id="c42b87f4ba"><path d="M22.28-21.64h-5.81L8.69-12.7l2.78-21.1-5.9.09L1.13 0h5.9l.9-6.84 1.94-1.54L14.05 0h5.89c.04-.86-.24-1.8-.82-2.83L14-12.1l6.66-6.83c.93-.9 1.57-1.86 1.62-2.7zm0 0"/></symbol><symbol overflow="visible" id="c42b87f4bb"><path d="M1.31-8.42C1.27-3.2 3.95.62 9.36.62c8.06 0 11.8-7.92 11.83-13.93.04-5.1-2.47-8.97-8.1-8.97C5-22.28 1.34-14.41 1.31-8.42zm13.94-4.86c0 3.34-1.03 6.75-2.69 8.78-.6.31-1.45.5-2.22.5-1.92 0-3.09-1.81-3.09-4.38.05-3.32 1.08-6.92 2.69-8.8.6-.32 1.4-.5 2.22-.5 2.2 0 3.09 1.71 3.09 4.4zm0 0"/></symbol><symbol overflow="visible" id="c42b87f4bc"><path d="M5.98.5c2.04 0 3.7-.55 4.72-1l-.53-4.19c-.5.1-1.22.14-1.67.14-.72-.1-.94-.67-.77-1.93l3.61-27.32-5.93.1L1.7-5.17C1.26-1.48 2.55.5 5.97.5zm0 0"/></symbol><symbol overflow="visible" id="c42b87f4bd"><path d="M1.27-7.06C1.27-2.8 2.75.54 6.6.54c2.44 0 5.1-1.45 7.2-3.46L14.36.3l4.72-.67c.23-4.6.45-6.3.62-8.06l1.58-11.88a16.57 16.57 0 00-7.51-1.98c-7.52 0-12.55 6.34-12.5 15.22zm5.98-1.17c0-3.57 1.03-6.97 3.1-8.91.59-.23 1.48-.36 2.3-.36.7 0 1.52.05 2.33.22L13.64-6.8c-1.48 1.27-3.33 2.25-4.9 2.44-1-.33-1.49-1.67-1.49-3.87zm0 0"/></symbol><symbol overflow="visible" id="c42b87f4be"><path d="M8.19-21.92l-4.55.55c-.4 5.21-.58 7.15-.81 8.9L1.22 0H7.1l1.67-12.73c1.7-2.44 3.45-3.7 5.27-3.7.72 0 1.34.18 1.84.32l1.48-5.31a4.6 4.6 0 00-2.56-.72c-2.48 0-4.37 1.7-6 4.4zm0 0"/></symbol><symbol overflow="visible" id="c42b87f4bf"><path d="M1.84-21.33c0 5.85 4.86 7.83 9.32 9.58 2.75 1.05 4.5 1.77 4.5 3.56 0 1.8-1.7 2.61-4.36 2.61-2.7 0-5.86-.76-7.97-1.67l-2.25 5.5A25.09 25.09 0 0011.7.63c7.2 0 12.28-3.33 12.28-9.41 0-5.66-4.45-7.69-9.5-9.77-2.65-.98-4.3-1.8-4.3-3.5 0-1.93 1.79-2.51 4.18-2.51 2.3 0 4.77.53 6.7 1.2l2.11-5.22a19.67 19.67 0 00-9.26-2.2c-6.85 0-12.07 3.2-12.07 9.45zm0 0"/></symbol><symbol overflow="visible" id="c42b87f4bg"><path d="M24.66-22.1h-7.7l-5.04 7.88H10.4v-19.62l-8 .18V0h8v-8.33h1.63L16.78 0h8.33a6.45 6.45 0 00-1.13-3.06l-5.8-8.81 5.13-7.2c.86-1.27 1.3-2.09 1.35-3.02zm0 0"/></symbol><symbol overflow="visible" id="c42b87f4bh"><path d="M1.4-10.4C1.4-4.22 5.16.64 12.18.64c7.44 0 11.7-5.22 11.7-11.97 0-6.16-3.73-11.35-10.75-11.35-7.42 0-11.75 5.55-11.75 12.3zm14.5-.18c0 2.03-.42 3.69-1.09 4.74-.4.57-1.04.98-2.03.98-2.2 0-3.33-2.66-3.33-6.34 0-2.11.46-4.05 1.08-5 .4-.63 1.03-.99 2.03-.99 2.2 0 3.33 2.97 3.33 6.61zm0 0"/></symbol><symbol overflow="visible" id="c42b87f4bi"><path d="M10.31-33.84l-8.01.18v28.49C2.3-1.31 4.5.5 7.73.5a17 17 0 005.68-1l-.82-5.44c-.4.13-.71.17-1.03.17-.94 0-1.25-.53-1.25-1.89zm0 0"/></symbol><symbol overflow="visible" id="c42b87f4bj"><path d="M3.73-10.58a6.28 6.28 0 00-2.6 5.22C1.13-1.58 3.63.5 7.46.5c2.6 0 5-1.27 6.94-3.2L15.8.36l5.93-.9c-.26-5.13-.4-7.24-.4-9.13v-4.46c0-5.57-2.78-8.42-9.1-8.42-3.86 0-7.68 1.22-10.25 3.02l1.94 4.5c2.02-1.03 4.4-1.7 6.42-1.7 2.18 0 3.02.84 3.07 3.54-4.5.4-7.74 1.22-9.68 2.61zm4.6 3.92c0-.8.22-1.36.76-1.76.58-.4 1.85-.72 4.32-.85v3.38a5.77 5.77 0 01-3.29 1.25c-1.3 0-1.8-.77-1.8-2.02zm0 0"/></symbol><symbol overflow="visible" id="c42b87f4bk"><path d="M8.06-22.5l-6.03.86c.31 5.53.44 7.73.44 9.77V0h8.01v-13.31a6.2 6.2 0 014.33-1.63c.94 0 1.7.1 2.52.27l1.17-7.02a6.9 6.9 0 00-3.33-.86c-2.48 0-4.19 1.58-5.45 4.05zm0 0"/></symbol><symbol overflow="visible" id="c42b87f4bl"><path d="M2.92-21.69c0 4.24 2.75 6.8 6.63 9.22 2.51 1.58 3.95 2.7 3.95 4.38 0 .43-.1.89-.22 1.25-.69.8-2.17 1.3-3.83 1.3-2.56 0-5.53-.94-7.42-1.83L-.3-1.95A19.43 19.43 0 009.63.62c7.1 0 11.93-3.54 11.93-9.4 0-4.53-2.84-6.92-6.67-9.36-2.37-1.48-3.83-2.66-3.83-4.17 0-.4.1-.77.38-1.27a5.22 5.22 0 013.33-1.03c2.3 0 4.71.67 6.39 1.3l2.25-5.44a19.7 19.7 0 00-8.97-2.03c-7.14 0-11.52 3.47-11.52 9.1zm0 0"/></symbol><symbol overflow="visible" id="c42b87f4bm"><path d="M24.48-22.14h-7.34l-6.92 8.55 2.65-20.25-7.82.18L.58 0h7.84l.85-6.53 1.43-1.03L14.17 0h7.78a5.6 5.6 0 00-.8-3.47l-4.82-8.9 6.39-6.61c1.12-1.13 1.72-2.18 1.76-3.16zm0 0"/></symbol><symbol overflow="visible" id="c42b87f4bn"><path d="M.86-8.55C.86-3.42 3.73.63 9.8.63c9.4 0 12.88-8.5 12.9-14.27 0-5.03-2.73-9.13-8.94-9.13C4.36-22.77.9-14.3.86-8.55zm13.98-5.17c0 2.88-.8 6.61-2.06 8.55-.45.26-1.12.4-1.72.4-1.51 0-2.28-1.57-2.28-3.68 0-2.85.8-6.68 2.06-8.57a4.1 4.1 0 011.72-.36c1.66 0 2.28 1.49 2.28 3.66zm0 0"/></symbol><symbol overflow="visible" id="c42b87f4bo"><path d="M5.84.5C8.2.5 10.08 0 11.75-.63L11.3-6.2c-.5.08-1.13.12-1.63.12-.4-.36-.45-1.03-.31-2.06l3.37-25.7-7.87.18L1.22-5.72C.67-1.62 2.25.5 5.84.5zm0 0"/></symbol><symbol overflow="visible" id="c42b87f4bp"><path d="M.81-7.1C.81-2.67 2.47.57 6.48.57c2.47 0 5.04-1.44 7.29-3.69l.86 3.52 6.12-.86c.27-5.17.44-6.66.77-8.82L23-20.75a21.43 21.43 0 00-8.56-1.97C6.25-22.72.8-16.66.8-7.1zm8-1.32c0-2.92.81-6.4 2.4-8.36.5-.19 1.3-.28 2.07-.28.44 0 .9 0 1.4.04L13.4-7.2a8.06 8.06 0 01-3.64 1.84C9.14-5.8 8.8-6.8 8.8-8.42zm0 0"/></symbol><symbol overflow="visible" id="c42b87f4bq"><path d="M8.73-22.5l-5.62.81c-.4 5.36-.6 7.42-.81 9.32L.63 0H8.5l1.72-12.92c1.34-1.61 2.92-2.42 4.5-2.42.72 0 1.34.14 1.97.36l1.81-6.85c-.5-.36-1.4-.76-2.66-.76-2.39 0-4.28 1.76-5.86 4.23zm0 0"/></symbol><symbol overflow="visible" id="c42b87f4br"><path d="M1.27-20.83c0 6.11 5.17 8.31 9.84 10.16 2.2.81 3.06 1.31 3.06 2.3 0 .95-.72 1.53-2.92 1.53-2.6 0-6.03-.82-8.02-1.44L.67-1.53A31.25 31.25 0 0011.92.63c7.92 0 13.05-3.6 13.05-9.77 0-5.8-4.5-8-9.84-10.2-2.18-.91-3.26-1.49-3.26-2.49 0-.98.91-1.48 2.94-1.48 2.16 0 4.63.6 6.75 1.26l2.57-6.34c-2.25-1.31-5.82-2.4-10.08-2.4-7.75 0-12.78 3.52-12.78 9.96zm0 0"/></symbol><symbol overflow="visible" id="c42b87f4bs"><path d="M26.73-22.64h-9.71L13-14.67h-.98v-19.17l-10.32.18V0h10.32v-7.69H13L16.47 0h10.58a6.99 6.99 0 00-1.13-3.64l-4.81-8.38 4.1-6.96c1.02-1.68 1.52-2.49 1.52-3.66zm0 0"/></symbol><symbol overflow="visible" id="c42b87f4bt"><path d="M.86-10.67C.86-4.6 4.72.63 12.59.63c8.02 0 12.79-4.91 12.79-12.1 0-6.12-3.79-11.75-11.7-11.75C5.73-23.22.87-17.86.87-10.67zm14.27-.03a11 11 0 01-.65 4.1c-.3.52-.62.76-1.2.76-1.45 0-2.12-2.49-2.12-5.6 0-1.7.28-3.69.67-4.53.28-.6.6-.81 1.22-.81 1.39 0 2.07 2.97 2.07 6.08zm0 0"/></symbol><symbol overflow="visible" id="c42b87f4bu"><path d="M11.88-33.84l-10.26.18V-5.8C1.63-1.34 4.29.5 7.74.5c2.3 0 4.74-.4 6.7-1.13l-.62-6.7h-.62c-.96 0-1.31-.5-1.31-1.89zm0 0"/></symbol><symbol overflow="visible" id="c42b87f4bv"><path d="M2.97-10.67A6 6 0 00.72-5.72C.72-1.53 3.52.5 7.47.5c2.7 0 5.1-1.36 6.89-3.33L16.3.36l7.32-1.08c-.3-5.48-.45-7.7-.45-9.72v-3.87c0-5.53-3.19-8.77-10.48-8.77-4 0-8.46 1.08-11.11 2.74l1.98 5.5a21.4 21.4 0 016.56-1.32c1.99 0 2.76.63 2.83 2.47-4.3.4-7.87 1.31-9.98 3.02zm6.75 3.2c0-.55.1-1.03.5-1.34.36-.33 1.25-.55 2.78-.6v3.33c-.63.31-1.17.5-1.7.5-1.22 0-1.58-.81-1.58-1.89zm0 0"/></symbol><symbol overflow="visible" id="c42b87f4bw"><path d="M8.78-23.08L1.34-22c.33 5.94.46 8.36.46 10.56V0h10.3v-12.73a6.93 6.93 0 013.8-.96c.93 0 1.74.05 2.5.24l1.4-8.83a8.23 8.23 0 00-3.5-.8c-2.58 0-4.14 1.66-5.32 4.14zm0 0"/></symbol><symbol overflow="visible" id="c42b87f4by"><path d="M2.4-21.23c0 4.54 2.91 7.23 7.1 9.8 1.66 1.16 2.83 2.16 2.83 3.15 0 .22-.05.5-.14.67-.58.55-1.75.77-2.83.77a23.6 23.6 0 01-7.61-1.61L-.81-1.8C1.27-.62 5.05.62 9.63.62c7.8 0 13.01-3.73 13.01-9.8 0-4.63-2.75-7.07-6.8-9.76-1.8-1.22-2.96-2.25-2.96-3.15 0-.2 0-.36.07-.6.55-.39 1.46-.62 2.58-.62 2.02 0 4.58.6 6.35 1.22l2.6-6.66a22.4 22.4 0 00-9.59-2.03c-7.87 0-12.5 3.56-12.5 9.55zm0 0"/></symbol><symbol overflow="visible" id="c42b87f4bz"><path d="M26.95-22.72h-9.04l-6.04 8 2.54-19.12-10.05.18L-.04 0h9.98l.81-6.17.86-.53L14.27 0h9.98a6.13 6.13 0 00-.81-4.14l-4.5-8.5 6.12-6.44c1.36-1.36 1.8-2.51 1.9-3.64zm0 0"/></symbol><symbol overflow="visible" id="c42b87f4bA"><path d="M.4-8.73C.4-3.7 3.48.63 10.32.63c10.92 0 14.13-9.13 14.13-14.58 0-4.99-3.07-9.36-9.96-9.36C3.6-23.31.41-14.17.41-8.73zm13.96-5.49c.05 2.4-.5 6.4-1.36 8.28-.31.17-.77.27-1.17.27-.99 0-1.35-1.27-1.35-2.83 0-2.4.55-6.4 1.32-8.28.3-.19.8-.28 1.2-.28 1.05 0 1.36 1.31 1.36 2.84zm0 0"/></symbol><symbol overflow="visible" id="c42b87f4bB"><path d="M5.77.5c2.65 0 4.8-.4 7.1-1.27l-.28-7.15c-.48.1-1.12.14-1.56.14-.05-.64.03-1.49.13-2.25l3.15-23.81-10.03.18L.62-6.3C.06-1.75 1.84.5 5.78.5zm0 0"/></symbol><symbol overflow="visible" id="c42b87f4bC"><path d="M.36-7.1C.36-2.48 2.2.57 6.34.57c2.52 0 4.91-1.3 7.3-3.9L14.98.54l7.66-1.18c.36-5.71.48-7.03.84-9.59l1.49-11.01a27.08 27.08 0 00-9.72-2.04C6.2-23.27.35-17.45.35-7.1zm10.27-1.54c0-2.2.53-5.67 1.53-7.78.43-.1 1.15-.14 1.84-.14h.31l-1.17 8.95c-.72.55-1.44.9-2.16 1.13a4.83 4.83 0 01-.36-2.16zm0 0"/></symbol><symbol overflow="visible" id="c42b87f4bD"><path d="M9.36-23.08L2.52-22c-.41 5.44-.58 7.64-.85 9.72L-.05 0h10.18l1.67-12.83a5.6 5.6 0 013.64-1.3c.81 0 1.39.13 2.2.41l2.11-8.6a4.4 4.4 0 00-2.78-.8c-2.25 0-4.14 1.75-5.67 4.09zm0 0"/></symbol></defs><use xlink:href="#c42b87f4a" x="58.02375" y="68.408"/><use xlink:href="#c42b87f4b" x="81.60375" y="68.408"/><use xlink:href="#c42b87f4c" x="101.98875" y="68.408"/><use xlink:href="#c42b87f4d" x="124.62375" y="68.408"/><use xlink:href="#c42b87f4e" x="134.70375" y="68.408"/><use xlink:href="#c42b87f4f" x="155.04375" y="68.408"/><g fill-opacity=".33"><use xlink:href="#c42b87f4g" x="97.29208" y="105.816"/><use xlink:href="#c42b87f4h" x="103.95908" y="105.816"/><use xlink:href="#c42b87f4i" x="110.62608" y="105.816"/><use xlink:href="#c42b87f4j" x="117.29308" y="105.816"/><use xlink:href="#c42b87f4k" x="123.96008" y="105.816"/></g><use xlink:href="#c42b87f4l" x="282.89625" y="68.408"/><use xlink:href="#c42b87f4m" x="304.76625" y="68.408"/><use xlink:href="#c42b87f4n" x="323.30625" y="68.408"/><use xlink:href="#c42b87f4o" x="344.54625" y="68.408"/><use xlink:href="#c42b87f4p" x="354.04125" y="68.408"/><use xlink:href="#c42b87f4q" x="374.20125" y="68.408"/><g fill-opacity=".33"><use xlink:href="#c42b87f4g" x="296.04125" y="105.816"/><use xlink:href="#c42b87f4h" x="302.70825" y="105.816"/><use xlink:href="#c42b87f4i" x="309.37525" y="105.816"/><use xlink:href="#c42b87f4j" x="316.04225" y="105.816"/><use xlink:href="#c42b87f4k" x="322.70925" y="105.816"/><use xlink:href="#c42b87f4g" x="329.37625" y="105.816"/><use xlink:href="#c42b87f4r" x="336.04325" y="105.816"/><use xlink:href="#c42b87f4s" x="342.71025" y="105.816"/><use xlink:href="#c42b87f4t" x="349.37725" y="105.816"/><use xlink:href="#c42b87f4u" x="356.04425" y="105.816"/><use xlink:href="#c42b87f4j" x="362.71125" y="105.816"/><use xlink:href="#c42b87f4v" x="369.37825" y="105.816"/></g><use xlink:href="#c42b87f4w" x="56.69625" y="178.556"/><use xlink:href="#c42b87f4x" x="80.50125" y="178.556"/><use xlink:href="#c42b87f4y" x="101.51625" y="178.556"/><use xlink:href="#c42b87f4z" x="124.46625" y="178.556"/><use xlink:href="#c42b87f4A" x="135.08625" y="178.556"/><use xlink:href="#c42b87f4B" x="155.78625" y="178.556"/><g fill-opacity=".33"><use xlink:href="#c42b87f4g" x="77.29208" y="215.964"/><use xlink:href="#c42b87f4C" x="83.95908" y="215.964"/><use xlink:href="#c42b87f4D" x="90.62608" y="215.964"/><use xlink:href="#c42b87f4s" x="97.29308" y="215.964"/><use xlink:href="#c42b87f4E" x="103.96008" y="215.964"/><use xlink:href="#c42b87f4t" x="110.62708" y="215.964"/><use xlink:href="#c42b87f4u" x="117.29408" y="215.964"/><use xlink:href="#c42b87f4j" x="123.96108" y="215.964"/><use xlink:href="#c42b87f4F" x="130.62808" y="215.964"/><use xlink:href="#c42b87f4i" x="137.29508" y="215.964"/><use xlink:href="#c42b87f4s" x="143.96208" y="215.964"/></g><use xlink:href="#c42b87f4G" x="281.72625" y="178.556"/><use xlink:href="#c42b87f4H" x="303.77625" y="178.556"/><use xlink:href="#c42b87f4I" x="322.94625" y="178.556"/><use xlink:href="#c42b87f4J" x="344.41125" y="178.556"/><use xlink:href="#c42b87f4K" x="354.44625" y="178.556"/><use xlink:href="#c42b87f4L" x="375.10125" y="178.556"/><g fill-opacity=".33"><use xlink:href="#c42b87f4g" x="276.04125" y="215.964"/><use xlink:href="#c42b87f4C" x="282.70825" y="215.964"/><use xlink:href="#c42b87f4D" x="289.37525" y="215.964"/><use xlink:href="#c42b87f4s" x="296.04225" y="215.964"/><use xlink:href="#c42b87f4E" x="302.70925" y="215.964"/><use xlink:href="#c42b87f4t" x="309.37625" y="215.964"/><use xlink:href="#c42b87f4u" x="316.04325" y="215.964"/><use xlink:href="#c42b87f4j" x="322.71025" y="215.964"/><use xlink:href="#c42b87f4F" x="329.37725" y="215.964"/><use xlink:href="#c42b87f4i" x="336.04425" y="215.964"/><use xlink:href="#c42b87f4s" x="342.71125" y="215.964"/><use xlink:href="#c42b87f4g" x="349.37825" y="215.964"/><use xlink:href="#c42b87f4r" x="356.04525" y="215.964"/><use xlink:href="#c42b87f4s" x="362.71225" y="215.964"/><use xlink:href="#c42b87f4t" x="369.37925" y="215.964"/><use xlink:href="#c42b87f4u" x="376.04625" y="215.964"/><use xlink:href="#c42b87f4j" x="382.71325" y="215.964"/><use xlink:href="#c42b87f4v" x="389.38025" y="215.964"/></g><use xlink:href="#c42b87f4M" x="55.34625" y="288.704"/><use xlink:href="#c42b87f4N" x="79.37625" y="288.704"/><use xlink:href="#c42b87f4O" x="101.06625" y="288.704"/><use xlink:href="#c42b87f4P" x="124.28625" y="288.704"/><use xlink:href="#c42b87f4Q" x="135.49125" y="288.704"/><use xlink:href="#c42b87f4R" x="156.59625" y="288.704"/><g fill-opacity=".33"><use xlink:href="#c42b87f4g" x="93.95875" y="326.112"/><use xlink:href="#c42b87f4S" x="100.62575" y="326.112"/><use xlink:href="#c42b87f4j" x="107.29275" y="326.112"/><use xlink:href="#c42b87f4F" x="113.95975" y="326.112"/><use xlink:href="#c42b87f4i" x="120.62675" y="326.112"/><use xlink:href="#c42b87f4s" x="127.29375" y="326.112"/></g><use xlink:href="#c42b87f4T" x="280.53375" y="288.704"/><use xlink:href="#c42b87f4U" x="302.71875" y="288.704"/><use xlink:href="#c42b87f4V" x="322.51875" y="288.704"/><use xlink:href="#c42b87f4W" x="344.25375" y="288.704"/><use xlink:href="#c42b87f4X" x="354.82875" y="288.704"/><use xlink:href="#c42b87f4Y" x="375.97875" y="288.704"/><g fill-opacity=".33"><use xlink:href="#c42b87f4g" x="292.70792" y="326.112"/><use xlink:href="#c42b87f4S" x="299.37492" y="326.112"/><use xlink:href="#c42b87f4j" x="306.04192" y="326.112"/><use xlink:href="#c42b87f4F" x="312.70892" y="326.112"/><use xlink:href="#c42b87f4i" x="319.37592" y="326.112"/><use xlink:href="#c42b87f4s" x="326.04292" y="326.112"/><use xlink:href="#c42b87f4g" x="332.70992" y="326.112"/><use xlink:href="#c42b87f4r" x="339.37692" y="326.112"/><use xlink:href="#c42b87f4s" x="346.04392" y="326.112"/><use xlink:href="#c42b87f4t" x="352.71092" y="326.112"/><use xlink:href="#c42b87f4u" x="359.37792" y="326.112"/><use xlink:href="#c42b87f4j" x="366.04492" y="326.112"/><use xlink:href="#c42b87f4v" x="372.71192" y="326.112"/></g><g><use xlink:href="#c42b87f4Z" x="54.33375" y="398.852"/><use xlink:href="#c42b87f4aa" x="78.54375" y="398.852"/><use xlink:href="#c42b87f4ab" x="100.72875" y="398.852"/><use xlink:href="#c42b87f4ac" x="124.17375" y="398.852"/><use xlink:href="#c42b87f4ad" x="135.78375" y="398.852"/><use xlink:href="#c42b87f4ae" x="157.15875" y="398.852"/></g><g fill-opacity=".33"><use xlink:href="#c42b87f4g" x="87.29208" y="436.26"/><use xlink:href="#c42b87f4af" x="93.95908" y="436.26"/><use xlink:href="#c42b87f4ag" x="100.62608" y="436.26"/><use xlink:href="#c42b87f4F" x="107.29308" y="436.26"/><use xlink:href="#c42b87f4ah" x="113.96008" y="436.26"/><use xlink:href="#c42b87f4u" x="120.62708" y="436.26"/><use xlink:href="#c42b87f4t" x="127.29408" y="436.26"/><use xlink:href="#c42b87f4E" x="133.96108" y="436.26"/></g><g><use xlink:href="#c42b87f4ai" x="279.63375" y="398.852"/><use xlink:href="#c42b87f4aj" x="301.90875" y="398.852"/><use xlink:href="#c42b87f4ak" x="322.15875" y="398.852"/><use xlink:href="#c42b87f4al" x="344.07375" y="398.852"/><use xlink:href="#c42b87f4am" x="355.09875" y="398.852"/><use xlink:href="#c42b87f4an" x="376.65375" y="398.852"/></g><g fill-opacity=".33"><use xlink:href="#c42b87f4g" x="312.70792" y="436.26"/><use xlink:href="#c42b87f4r" x="319.37492" y="436.26"/><use xlink:href="#c42b87f4s" x="326.04192" y="436.26"/><use xlink:href="#c42b87f4t" x="332.70892" y="436.26"/><use xlink:href="#c42b87f4u" x="339.37592" y="436.26"/><use xlink:href="#c42b87f4j" x="346.04292" y="436.26"/><use xlink:href="#c42b87f4v" x="352.70992" y="436.26"/></g><g><use xlink:href="#c42b87f4ao" x="53.23125" y="509"/><use xlink:href="#c42b87f4ap" x="77.62125" y="509"/><use xlink:href="#c42b87f4aq" x="100.34625" y="509"/><use xlink:href="#c42b87f4ar" x="124.06125" y="509"/><use xlink:href="#c42b87f4as" x="136.12125" y="509"/><use xlink:href="#c42b87f4at" x="157.81125" y="509"/></g><g fill-opacity=".33"><use xlink:href="#c42b87f4g" x="90.62542" y="546.408"/><use xlink:href="#c42b87f4au" x="97.29242" y="546.408"/><use xlink:href="#c42b87f4ag" x="103.95942" y="546.408"/><use xlink:href="#c42b87f4av" x="110.62642" y="546.408"/><use xlink:href="#c42b87f4j" x="117.29342" y="546.408"/><use xlink:href="#c42b87f4ah" x="123.96042" y="546.408"/><use xlink:href="#c42b87f4aw" x="130.62742" y="546.408"/></g><g><use xlink:href="#c42b87f4ax" x="278.62125" y="509"/><use xlink:href="#c42b87f4ay" x="301.03125" y="509"/><use xlink:href="#c42b87f4az" x="321.82125" y="509"/><use xlink:href="#c42b87f4aA" x="343.96125" y="509"/><use xlink:href="#c42b87f4aB" x="355.43625" y="509"/><use xlink:href="#c42b87f4aC" x="377.39625" y="509"/></g><g fill-opacity=".33"><use xlink:href="#c42b87f4g" x="289.37458" y="546.408"/><use xlink:href="#c42b87f4au" x="296.04158" y="546.408"/><use xlink:href="#c42b87f4ag" x="302.70858" y="546.408"/><use xlink:href="#c42b87f4av" x="309.37558" y="546.408"/><use xlink:href="#c42b87f4j" x="316.04258" y="546.408"/><use xlink:href="#c42b87f4ah" x="322.70958" y="546.408"/><use xlink:href="#c42b87f4aw" x="329.37658" y="546.408"/><use xlink:href="#c42b87f4g" x="336.04358" y="546.408"/><use xlink:href="#c42b87f4r" x="342.71058" y="546.408"/><use xlink:href="#c42b87f4s" x="349.37758" y="546.408"/><use xlink:href="#c42b87f4t" x="356.04458" y="546.408"/><use xlink:href="#c42b87f4u" x="362.71158" y="546.408"/><use xlink:href="#c42b87f4j" x="369.37858" y="546.408"/><use xlink:href="#c42b87f4v" x="376.04558" y="546.408"/></g><g><use xlink:href="#c42b87f4aD" x="51.97125" y="619.148"/><use xlink:href="#c42b87f4aE" x="76.58625" y="619.148"/><use xlink:href="#c42b87f4aF" x="99.94125" y="619.148"/><use xlink:href="#c42b87f4aG" x="123.92625" y="619.148"/><use xlink:href="#c42b87f4aH" x="136.48125" y="619.148"/><use xlink:href="#c42b87f4aI" x="158.53125" y="619.148"/></g><g fill-opacity=".33"><use xlink:href="#c42b87f4g" x="83.95875" y="656.556"/><use xlink:href="#c42b87f4aJ" x="90.62575" y="656.556"/><use xlink:href="#c42b87f4ag" x="97.29275" y="656.556"/><use xlink:href="#c42b87f4aw" x="103.95975" y="656.556"/><use xlink:href="#c42b87f4j" x="110.62675" y="656.556"/><use xlink:href="#c42b87f4aK" x="117.29375" y="656.556"/><use xlink:href="#c42b87f4aL" x="123.96075" y="656.556"/><use xlink:href="#c42b87f4u" x="130.62775" y="656.556"/><use xlink:href="#c42b87f4av" x="137.29475" y="656.556"/></g><g><use xlink:href="#c42b87f4aM" x="277.54125" y="619.148"/><use xlink:href="#c42b87f4aN" x="300.04125" y="619.148"/><use xlink:href="#c42b87f4aO" x="321.41625" y="619.148"/><use xlink:href="#c42b87f4aP" x="343.82625" y="619.148"/><use xlink:href="#c42b87f4aQ" x="355.79625" y="619.148"/><use xlink:href="#c42b87f4aR" x="378.20625" y="619.148"/></g><g fill-opacity=".33"><use xlink:href="#c42b87f4g" x="282.70792" y="656.556"/><use xlink:href="#c42b87f4aJ" x="289.37492" y="656.556"/><use xlink:href="#c42b87f4ag" x="296.04192" y="656.556"/><use xlink:href="#c42b87f4aw" x="302.70892" y="656.556"/><use xlink:href="#c42b87f4j" x="309.37592" y="656.556"/><use xlink:href="#c42b87f4aK" x="316.04292" y="656.556"/><use xlink:href="#c42b87f4aL" x="322.70992" y="656.556"/><use xlink:href="#c42b87f4u" x="329.37692" y="656.556"/><use xlink:href="#c42b87f4av" x="336.04392" y="656.556"/><use xlink:href="#c42b87f4g" x="342.71092" y="656.556"/><use xlink:href="#c42b87f4r" x="349.37792" y="656.556"/><use xlink:href="#c42b87f4s" x="356.04492" y="656.556"/><use xlink:href="#c42b87f4t" x="362.71192" y="656.556"/><use xlink:href="#c42b87f4u" x="369.37892" y="656.556"/><use xlink:href="#c42b87f4j" x="376.04592" y="656.556"/><use xlink:href="#c42b87f4v" x="382.71292" y="656.556"/></g><g><use xlink:href="#c42b87f4aS" x="50.48625" y="729.296"/><use xlink:href="#c42b87f4aT" x="75.32625" y="729.296"/><use xlink:href="#c42b87f4aU" x="99.49125" y="729.296"/><use xlink:href="#c42b87f4aV" x="123.92625" y="729.296"/><use xlink:href="#c42b87f4aW" x="136.93125" y="729.296"/><use xlink:href="#c42b87f4aX" x="159.52125" y="729.296"/></g><g fill-opacity=".33"><use xlink:href="#c42b87f4g" x="97.29208" y="766.704"/><use xlink:href="#c42b87f4aY" x="103.95908" y="766.704"/><use xlink:href="#c42b87f4aL" x="110.62608" y="766.704"/><use xlink:href="#c42b87f4u" x="117.29308" y="766.704"/><use xlink:href="#c42b87f4av" x="123.96008" y="766.704"/></g><g><use xlink:href="#c42b87f4aZ" x="275.80875" y="729.296"/><use xlink:href="#c42b87f4ba" x="298.62375" y="729.296"/><use xlink:href="#c42b87f4bb" x="320.94375" y="729.296"/><use xlink:href="#c42b87f4bc" x="343.93875" y="729.296"/><use xlink:href="#c42b87f4bd" x="356.40375" y="729.296"/><use xlink:href="#c42b87f4be" x="379.44375" y="729.296"/></g><g fill-opacity=".33"><use xlink:href="#c42b87f4g" x="296.04125" y="766.704"/><use xlink:href="#c42b87f4aY" x="302.70825" y="766.704"/><use xlink:href="#c42b87f4aL" x="309.37525" y="766.704"/><use xlink:href="#c42b87f4u" x="316.04225" y="766.704"/><use xlink:href="#c42b87f4av" x="322.70925" y="766.704"/><use xlink:href="#c42b87f4g" x="329.37625" y="766.704"/><use xlink:href="#c42b87f4r" x="336.04325" y="766.704"/><use xlink:href="#c42b87f4s" x="342.71025" y="766.704"/><use xlink:href="#c42b87f4t" x="349.37725" y="766.704"/><use xlink:href="#c42b87f4u" x="356.04425" y="766.704"/><use xlink:href="#c42b87f4j" x="362.71125" y="766.704"/><use xlink:href="#c42b87f4v" x="369.37825" y="766.704"/></g><g><use xlink:href="#c42b87f4bf" x="47.71875" y="839.444"/><use xlink:href="#c42b87f4bg" x="73.00875" y="839.444"/><use xlink:href="#c42b87f4bh" x="98.65875" y="839.444"/><use xlink:href="#c42b87f4bi" x="123.94875" y="839.444"/><use xlink:href="#c42b87f4bj" x="137.76375" y="839.444"/><use xlink:href="#c42b87f4bk" x="161.38875" y="839.444"/></g><g fill-opacity=".33"><use xlink:href="#c42b87f4g" x="80.62542" y="876.852"/><use xlink:href="#c42b87f4C" x="87.29242" y="876.852"/><use xlink:href="#c42b87f4D" x="93.95942" y="876.852"/><use xlink:href="#c42b87f4s" x="100.62642" y="876.852"/><use xlink:href="#c42b87f4E" x="107.29342" y="876.852"/><use xlink:href="#c42b87f4t" x="113.96042" y="876.852"/><use xlink:href="#c42b87f4aK" x="120.62742" y="876.852"/><use xlink:href="#c42b87f4aL" x="127.29442" y="876.852"/><use xlink:href="#c42b87f4u" x="133.96142" y="876.852"/><use xlink:href="#c42b87f4av" x="140.62842" y="876.852"/></g><g><use xlink:href="#c42b87f4bl" x="272.65875" y="839.444"/><use xlink:href="#c42b87f4bm" x="296.01375" y="839.444"/><use xlink:href="#c42b87f4bn" x="320.04375" y="839.444"/><use xlink:href="#c42b87f4bo" x="344.11875" y="839.444"/><use xlink:href="#c42b87f4bp" x="357.48375" y="839.444"/><use xlink:href="#c42b87f4bq" x="381.69375" y="839.444"/></g><g fill-opacity=".33"><use xlink:href="#c42b87f4g" x="279.37458" y="876.852"/><use xlink:href="#c42b87f4C" x="286.04158" y="876.852"/><use xlink:href="#c42b87f4D" x="292.70858" y="876.852"/><use xlink:href="#c42b87f4s" x="299.37558" y="876.852"/><use xlink:href="#c42b87f4E" x="306.04258" y="876.852"/><use xlink:href="#c42b87f4t" x="312.70958" y="876.852"/><use xlink:href="#c42b87f4aK" x="319.37658" y="876.852"/><use xlink:href="#c42b87f4aL" x="326.04358" y="876.852"/><use xlink:href="#c42b87f4u" x="332.71058" y="876.852"/><use xlink:href="#c42b87f4av" x="339.37758" y="876.852"/><use xlink:href="#c42b87f4g" x="346.04458" y="876.852"/><use xlink:href="#c42b87f4r" x="352.71158" y="876.852"/><use xlink:href="#c42b87f4s" x="359.37858" y="876.852"/><use xlink:href="#c42b87f4t" x="366.04558" y="876.852"/><use xlink:href="#c42b87f4u" x="372.71258" y="876.852"/><use xlink:href="#c42b87f4j" x="379.37958" y="876.852"/><use xlink:href="#c42b87f4v" x="386.04658" y="876.852"/></g><g><use xlink:href="#c42b87f4br" x="44.68125" y="949.592"/><use xlink:href="#c42b87f4bs" x="70.42125" y="949.592"/><use xlink:href="#c42b87f4bt" x="97.73625" y="949.592"/><use xlink:href="#c42b87f4bu" x="123.97125" y="949.592"/><use xlink:href="#c42b87f4bv" x="138.68625" y="949.592"/><use xlink:href="#c42b87f4bw" x="163.43625" y="949.592"/></g><g fill-opacity=".33"><use xlink:href="#c42b87f4g" x="93.95875" y="987"/><use xlink:href="#c42b87f4aY" x="100.62575" y="987"/><use xlink:href="#c42b87f4u" x="107.29275" y="987"/><use xlink:href="#c42b87f4t" x="113.95975" y="987"/><use xlink:href="#c42b87f4v" x="120.62675" y="987"/><use xlink:href="#c42b87f4bx" x="127.29375" y="987"/></g><g><use xlink:href="#c42b87f4by" x="269.08125" y="949.592"/><use xlink:href="#c42b87f4bz" x="293.02125" y="949.592"/><use xlink:href="#c42b87f4bA" x="319.03125" y="949.592"/><use xlink:href="#c42b87f4bB" x="344.32125" y="949.592"/><use xlink:href="#c42b87f4bC" x="358.72125" y="949.592"/><use xlink:href="#c42b87f4bD" x="384.23625" y="949.592"/></g><g fill-opacity=".33"><use xlink:href="#c42b87f4g" x="292.70792" y="987"/><use xlink:href="#c42b87f4aY" x="299.37492" y="987"/><use xlink:href="#c42b87f4u" x="306.04192" y="987"/><use xlink:href="#c42b87f4t" x="312.70892" y="987"/><use xlink:href="#c42b87f4v" x="319.37592" y="987"/><use xlink:href="#c42b87f4bx" x="326.04292" y="987"/><use xlink:href="#c42b87f4g" x="332.70992" y="987"/><use xlink:href="#c42b87f4r" x="339.37692" y="987"/><use xlink:href="#c42b87f4s" x="346.04392" y="987"/><use xlink:href="#c42b87f4t" x="352.71092" y="987"/><use xlink:href="#c42b87f4u" x="359.37792" y="987"/><use xlink:href="#c42b87f4j" x="366.04492" y="987"/><use xlink:href="#c42b87f4v" x="372.71192" y="987"/></g></svg>