<?xml version='1.0' encoding='UTF-8'?>
<svg xmlns="http://www.w3.org/2000/svg" xmlns:xlink="http://www.w3.org/1999/xlink" width="450px" height="1000px" viewBox="0 0 450 1000" x="0px" y="0px" enable-background="new 0 0 450 1000"><defs><symbol overflow="visible" id="28992028a"><path d="M17.55-15.25v-.28L4.65-28.67H24.8l.04-1.49H2.8l-.28 1.58 13.01 13.24L2.2-1.63 2.52 0h22.5l-.05-1.48H4.14zm0 0"/></symbol><symbol overflow="visible" id="28992028b"><path d="M5.94-20.56l-1.53.1V0h1.53v-7.38l4.28-3.51L20.03 0h1.7c-.3-.5-.8-1.08-1.53-1.9l-8.9-9.93 9.36-7.65c.53-.46.76-.72.93-1.04h-1.96L5.97-9.22h-.04zm0 0"/></symbol><symbol overflow="visible" id="28992028c"><path d="M14.81-31.31l-2.89 6.87 1.03.5 3.3-6.43v-.2zM2.92-10.21C2.92-4 6.56.66 12.73.66c7.16 0 9.86-6.15 9.86-11.01 0-6.18-3.6-10.85-9.76-10.85-7.16 0-9.9 6.16-9.9 10.97zm18.1.04c0 3.1-.86 5.62-2.47 7.25a7.76 7.76 0 01-5.68 2.15C7.33-.77 4.5-4.9 4.5-10.34c0-3.3.98-5.91 2.8-7.52a7.83 7.83 0 015.39-1.89c5.4 0 8.33 4.14 8.33 9.58zm0 0"/></symbol><symbol overflow="visible" id="28992028d"><path d="M20.25-1.44l-9.63-24.98c-1.8-4.63-3.42-7.88-6.89-7.88-.54 0-.85 0-1.21.05v1.4c3.01 0 4.42 1.26 6.57 6.57l2.02 4.9L1.89-1.43c-.22.5-.4.94-.4 1.44h1.43l7.25-15.94 1.49-3.5h.17L19.27 0h1.43c-.1-.58-.26-.94-.45-1.44zm0 0"/></symbol><symbol overflow="visible" id="28992028e"><path d="M2.97-9.81C2.97-3.16 6.75.67 11.39.67c3.73 0 6.92-2.6 8.14-4.76V-4c0 3.06 1.4 4.55 3.78 4.55A5.5 5.5 0 0026.1-.1l-.4-1.22c-.72.28-1.3.4-2.28.4-1.82 0-2.49-1.2-2.49-3.9v-8.07c0-2.56-.1-4 .4-7.68l-1.26-.24-.43 2.58a10.22 10.22 0 00-7.2-2.97c-5.87 0-9.46 4.82-9.46 11.38zm1.62 0c0-6.08 2.88-9.94 7.93-9.94 2.51 0 4.71.94 6.87 2.92v9.67c0 2.4-3.73 6.4-7.83 6.4-4 0-6.97-3.29-6.97-9.05zm0 0"/></symbol><symbol overflow="visible" id="28992028f"><path d="M11.7.67C19.17.67 22-5.13 22-10.67c0-6.06-2.92-10.52-9.08-10.52-6.17 0-8.87 3.74-8.87 10.44V10.8h1.53V-.98C7.2-.05 9.09.67 11.7.67zm1.18-20.42c5.57 0 7.51 4.05 7.51 9.17 0 5-2.2 9.81-8.6 9.81-2.79 0-4.41-.67-6.21-1.62v-8.23c0-5.99 2.08-9.13 7.3-9.13zm0 0"/></symbol><symbol overflow="visible" id="28992028h"><path d="M5.92-6.77H1.1V0h4.83v-.8H2.06v-2.26h3.22v-.75H2.06v-2.16h3.86zm0 0"/></symbol><symbol overflow="visible" id="28992028i"><path d="M1.83 0l1.42-2h.06l1.46 2H5.8L4-2.53l1.78-2.49H4.8L3.42-3.08h-.08l-1.4-1.94H.89l1.78 2.49L.84 0zm0 0"/></symbol><symbol overflow="visible" id="28992028j"><path d="M5.52-4.25v-.77H3.17v-1.56h-.81l-.14 1.56H.75v.77h1.47v2.4c0 1.3.48 1.94 1.84 1.94C4.6.1 5.14 0 5.55-.14L5.4-.91c-.32.13-.72.2-1.13.2-.8 0-1.1-.37-1.1-1.23v-2.31zm0 0"/></symbol><symbol overflow="visible" id="28992028k"><path d="M5.75-2.23v-.43c0-1.6-.9-2.51-2.42-2.51S.87-4.16.87-2.48c0 1.71.91 2.62 2.5 2.62 1.43 0 2.07-.56 2.29-1.52l-.9-.09c-.18.61-.59.9-1.35.9-.94 0-1.52-.54-1.58-1.66zm-2.4-2.2c.93 0 1.43.5 1.48 1.55H1.84c.08-1.07.6-1.56 1.5-1.56zm0 0"/></symbol><symbol overflow="visible" id="28992028l"><path d="M2.16 0v-2.67c0-.99.59-1.63 1.46-1.63.74 0 1.07.38 1.07 1.22V0h.95v-3.31c0-1.2-.56-1.85-1.67-1.85-.92 0-1.49.46-1.77 1.08h-.06l-.12-.94H1.2V0zm0 0"/></symbol><symbol overflow="visible" id="28992028m"><path d="M2.84.14C3.8.14 4.33-.26 4.6-.9h.07L4.8 0h.76v-7.14h-.95v2.95h-.08c-.28-.6-.86-.97-1.67-.97-1.48 0-2.27.99-2.27 2.64C.6-.84 1.36.14 2.84.14zm.22-.8c-.98 0-1.48-.59-1.48-1.84s.5-1.86 1.48-1.86c1.13 0 1.58.8 1.58 1.86S4.2-.66 3.06-.66zm0 0"/></symbol><symbol overflow="visible" id="28992028n"><path d="M3.83 0v-5.95H6.2v-.82H.45v.82h2.4V0zm0 0"/></symbol><symbol overflow="visible" id="28992028o"><path d="M2.16 0v-2.69c0-.98.6-1.6 1.46-1.6.74 0 1.07.4 1.07 1.2V0h.95v-3.31c0-1.17-.56-1.85-1.67-1.85-.9 0-1.44.46-1.75 1.08h-.06v-3.06H1.2V0zm0 0"/></symbol><symbol overflow="visible" id="28992028p"><path d="M3.58-5.81c.42 0 .72-.22.72-.67 0-.44-.3-.68-.72-.68-.44 0-.72.24-.72.68 0 .45.28.67.72.67zm.5.8H1.52v.76h1.6v3.48h-1.8V0h4.46v-.77h-1.7zm0 0"/></symbol><symbol overflow="visible" id="28992028w"><path d="M3.83-5.97h1.73v-.8H1.1v.8h1.75v5.19H1.1V0h4.47v-.78H3.83zm0 0"/></symbol><symbol overflow="visible" id="28992028x"><path d="M2.83.14c.94 0 1.5-.39 1.81-.95h.08l.1.81h.76v-3.38c0-1.23-.69-1.8-2.13-1.8-1.43 0-2.03.65-2.18 1.6l.93.1c.11-.6.44-.93 1.22-.93.85 0 1.22.32 1.22 1.04v.34l-1.81.2C1.6-2.7 1.1-2.17 1.1-1.28c0 .92.64 1.42 1.72 1.42zm.25-.77c-.67 0-1.02-.28-1.02-.74 0-.44.28-.72 1-.82l1.58-.19v.41c0 .8-.6 1.34-1.56 1.34zm0 0"/></symbol><symbol overflow="visible" id="28992028y"><path d="M3.92-7.14H1.36v.76h1.6v5.61H1.15V0H5.7v-.77H3.92zm0 0"/></symbol><symbol overflow="visible" id="28992028z"><path d="M3.34.14c1.43 0 2.13-.66 2.25-1.78l-.89-.1c-.1.7-.5 1.08-1.34 1.08-1.03 0-1.52-.64-1.52-1.84 0-1.23.47-1.86 1.52-1.86.84 0 1.23.36 1.34 1.08l.9-.1c-.13-1.09-.82-1.78-2.26-1.78-1.56 0-2.46.97-2.46 2.66 0 1.66.9 2.64 2.46 2.64zm0 0"/></symbol><symbol overflow="visible" id="28992028G"><path d="M5.08-5.16c-.94 0-1.58.43-1.9 1.3h-.09l-.07-1.16H1.05v.77h1.1v3.48H.96V0h3.96v-.77H3.1v-1.46c0-1.36.6-2.05 1.83-2.05.4 0 .76.08 1.1.17l.15-.87c-.33-.11-.7-.18-1.11-.18zm0 0"/></symbol><symbol overflow="visible" id="28992028H"><path d="M3.16 2.03c1.67 0 2.4-.86 2.4-2.51v-4.54h-.81l-.13.91h-.06c-.26-.58-.8-1.05-1.73-1.05-1.42 0-2.24 1-2.24 2.52 0 1.6.75 2.56 2.2 2.56.94 0 1.5-.5 1.77-1.03h.05v.72c0 1.17-.42 1.67-1.45 1.67-.93 0-1.3-.34-1.41-.89L.8.5c.12.96.87 1.54 2.36 1.54zM3.06-.8c-.98 0-1.48-.57-1.48-1.82 0-1.13.5-1.75 1.48-1.75 1.06 0 1.58.76 1.58 1.75 0 .95-.56 1.82-1.58 1.82zm0 0"/></symbol><symbol overflow="visible" id="28992028U"><path d="M2.08-6.77h-.99V0h4.79v-.81h-3.8zm0 0"/></symbol><symbol overflow="visible" id="28992028ah"><path d="M4.06-2.77c1.25-.04 1.92-.7 1.92-1.96 0-1.36-.7-2.04-2.17-2.04H.92V0h.97v-2.73h1.08L4.95 0h1.1zM1.9-6h1.7c1.07 0 1.46.34 1.46 1.28 0 .9-.44 1.27-1.47 1.27H1.89zm0 0"/></symbol><symbol overflow="visible" id="28992028ai"><path d="M2.73.14c.9 0 1.43-.45 1.74-1.08h.06l.13.94h.8v-5.02h-.94v2.7c0 .98-.57 1.62-1.46 1.62-.75 0-1.1-.4-1.1-1.22v-3.1h-.93v3.32c0 1.17.55 1.84 1.7 1.84zm0 0"/></symbol><symbol overflow="visible" id="28992028av"><path d="M1.64 0v-3.17l-.16-2.5h.1L2.9-1.83h.82l1.35-3.84h.1l-.16 2.5V0h.95v-6.77h-1.3l-1.3 3.82h-.09L2-6.77H.69V0zm0 0"/></symbol><symbol overflow="visible" id="28992028aw"><path d="M1.63 0v-2.9c0-.8.15-1.4.71-1.4.41 0 .55.3.55.88V0h.95v-2.9c0-.8.18-1.4.72-1.4.4 0 .57.3.57.88V0h.95v-3.63c0-.92-.28-1.53-1.11-1.53-.63 0-.95.41-1.1.9h-.06c-.1-.52-.44-.9-1.08-.9-.6 0-.93.41-1.06.9H1.6l-.23-.76H.67V0zm0 0"/></symbol><symbol overflow="visible" id="28992028aJ"><path d="M3.42.14c1.61 0 2.56-.75 2.56-2 0-1.1-.67-1.6-1.95-1.86l-.97-.2c-.87-.17-1.23-.49-1.23-1.11 0-.7.54-1.11 1.5-1.11 1.06 0 1.51.34 1.69 1.23l.9-.09c-.17-1.28-.98-1.9-2.6-1.9C1.79-6.9.9-6.18.9-4.98c0 1.06.66 1.66 1.88 1.9l1.01.2c.85.17 1.25.4 1.25 1.09 0 .73-.6 1.16-1.6 1.16-1.07 0-1.66-.4-1.8-1.24l-.94.1C.83-.53 1.75.13 3.42.13zm0 0"/></symbol><symbol overflow="visible" id="28992028aK"><path d="M3.9.14c1.48 0 2.18-.98 2.18-2.64 0-1.67-.7-2.66-2.17-2.66-.91 0-1.49.41-1.79 1h-.06v-2.98h-.95V0h.81l.11-.9h.06c.29.63.82 1.04 1.82 1.04zm-.32-.8c-1.08 0-1.55-.8-1.55-1.84 0-1.06.47-1.86 1.55-1.86 1.1 0 1.51.61 1.51 1.86S4.64-.66 3.58-.66zm0 0"/></symbol><symbol overflow="visible" id="28992028aL"><path d="M3.33.14c1.62 0 2.5-.95 2.5-2.66 0-1.68-.88-2.64-2.5-2.64-1.63 0-2.5.96-2.5 2.64 0 1.7.87 2.66 2.5 2.66zm0-.77c-1.06 0-1.52-.6-1.52-1.89 0-1.28.46-1.87 1.52-1.87 1.08 0 1.53.6 1.53 1.87 0 1.29-.45 1.9-1.53 1.9zm0 0"/></symbol><symbol overflow="visible" id="28992028aY"><path d="M4.66-3.45c.76-.14 1.15-.67 1.15-1.57 0-1.07-.64-1.75-2.18-1.75H.92V0h2.71C5.2 0 5.98-.64 5.98-1.77c0-1.03-.56-1.43-1.32-1.59zM3.56-6c.9 0 1.31.4 1.31 1.13 0 .71-.4 1.14-1.3 1.14h-1.7V-6zM1.87-.75v-2.27H3.6c.97 0 1.44.33 1.44 1.13 0 .8-.47 1.14-1.44 1.14zm0 0"/></symbol><symbol overflow="visible" id="28992028bx"><path d="M5.77-5.02H4.63L2.3-2.88h-.06v-4.26h-.94V0h.94v-2.31h.06L4.71 0h1.24L3.23-2.69zm0 0"/></symbol><symbol overflow="visible" id="28992028q"><path d="M17.28-15.25v-.28L6.56-28.67h19.27l.23-1.49H4.91l-.41 1.58 10.75 13.1L.58-1.62.68 0h21.68l.14-1.48H2.6zm0 0"/></symbol><symbol overflow="visible" id="28992028r"><path d="M6.66-20.6l-1.61.08L2.35 0h1.6l.28-1.98a29.32 29.32 0 014.99-8.29L17.02 0h1.84c-.28-.5-.67-1.08-1.31-1.9l-7.28-9.57a47.53 47.53 0 019.89-8.1l-.72-1.45c-3.42 1.9-10.85 7.25-14.58 14.94h-.1zm0 0"/></symbol><symbol overflow="visible" id="28992028s"><path d="M16.33-31.36l-3.4 6.8 1.02.58 3.86-6.49v-.17zM2.25-8.09C2.25-2.97 5 .67 10.13.67c5.76 0 10.74-5.94 10.74-12.86 0-4.9-2.51-9.04-7.82-9.04-5.94 0-10.8 6.42-10.8 13.14zm16.92-4.07c0 4.7-2.03 8.24-4.86 10.1a7.53 7.53 0 01-4.04 1.2C5.89-.86 3.92-4 3.92-8.19c0-4.45 1.92-8.28 4.94-10.31a7.61 7.61 0 014.02-1.2c4.54 0 6.3 3.5 6.3 7.54zm0 0"/></symbol><symbol overflow="visible" id="28992028t"><path d="M16.92-1.31A173.57 173.57 0 0113-21.83C11.52-32.48 11.52-34.3 7.78-34.3A7.5 7.5 0 004-33.03l.6 1.26c.8-.4 2.06-1 3.06-1 1.43 0 2.32.72 2.78 3.97l1.03 7.47A296.87 296.87 0 01-.2-.4v.2l1.46.66a245.77 245.77 0 0010.7-19.72h.1c.09 1.36.21 2.7.4 4.02A126.7 126.7 0 0015.66 0h1.57c-.04-.36-.17-.81-.3-1.31zm0 0"/></symbol><symbol overflow="visible" id="28992028u"><path d="M2.16-6.66c0 4.22 1.53 7.33 4.9 7.33 3.42 0 6.53-3.23 8.96-7.1.14 4.32.36 7.1 3.01 7.1 1.8 0 3.33-1.3 4.74-2.56l-.91-1.08c-1.08 1.03-2.66 2.2-3.73 2.2-1.18 0-1.68-2.7-1.85-7.25 2.52-4.09 5.08-9.26 6.61-12.45l-1.6-.76a202.44 202.44 0 01-5.06 10.89c-.09-5 .14-10.9-5-10.9-5.8 0-10.07 7.55-10.07 14.58zm1.67.1c0-6.08 3.64-13.14 8.19-13.14 2.87 0 3.68 2.82 3.92 10.2 0 .28 0 .55.03.81C12.78-3.64 9.8-.94 7.37-.8 4.7-.67 3.83-3.6 3.83-6.56zm0 0"/></symbol><symbol overflow="visible" id="28992028v"><path d="M3.19 10.8c-.13-1.3-.22-2.78-.22-4.4 0-2.48.1-4.96.31-7.34 1.44.9 3.06 1.61 5 1.61 6.35 0 10.8-6.34 10.8-13.86 0-4.4-1.44-8.04-5.85-8.04C4.36-21.23 1.4-8.02 1.4 6.07c0 1.85.05 3.5.19 4.96zm9.95-30.5c3.38 0 4.28 2.92 4.28 6.51 0 4.5-1.81 8.9-4.83 11.03-1.2.82-2.6 1.3-4.14 1.3-1.8 0-3.68-.58-5.03-1.66C4.5-11.88 7.38-19.7 13.14-19.7zm0 0"/></symbol><symbol overflow="visible" id="28992028A"><path d="M18.22-15.08v-.48L5.77-27.98H25.2l.1-2.18H2.75l-.28 2.22L15.2-15.25l-13 13L2.56 0h22.9l-.09-2.16H5.23zm0 0"/></symbol><symbol overflow="visible" id="28992028B"><path d="M6.6-20.75l-2.37.1V0h2.38v-7.16l4.1-3.37L19.93 0h2.6c-.26-.55-.85-1.22-1.57-2.06l-8.6-9.86 8.82-7.3c.68-.53 1.04-.98 1.17-1.48h-2.73L6.65-9.81H6.6zm0 0"/></symbol><symbol overflow="visible" id="28992028C"><path d="M14.63-31.9l-2.88 7.2 1.56.72 3.47-6.66v-.28zM2.8-10.14C2.8-3.87 6.56.68 12.73.68 19.98.67 23-5.4 23-10.58c0-6.25-3.73-10.8-9.95-10.8-7.2 0-10.25 6.13-10.25 11.25zm17.72-.14c0 3.11-.85 5.41-2.33 6.9A7.13 7.13 0 0113-1.45c-5.13 0-7.78-3.83-7.78-9 0-3.25.98-5.62 2.56-7.06a7.23 7.23 0 015.05-1.77c4.98 0 7.69 3.83 7.69 9zm0 0"/></symbol><symbol overflow="visible" id="28992028D"><path d="M20.83-1.67l-9.44-24.7c-1.84-4.86-3.6-7.93-7.34-7.93-.72 0-1.13 0-1.58.1v2.03c3.1 0 4.6 1.22 6.67 6.2l1.84 4.45L1.8-1.67c-.22.54-.4 1.1-.4 1.67h2.33l6.61-14.9 1.54-3.77h.18L18.98 0h2.3c-.05-.63-.26-1.13-.45-1.67zm0 0"/></symbol><symbol overflow="visible" id="28992028E"><path d="M2.83-9.86c0 6.53 3.7 10.53 8.6 10.53a9.8 9.8 0 008.05-4.5C19.62-.9 21.06.55 23.68.55c1.29 0 2.15-.24 3-.64l-.5-1.85c-.71.24-1.29.36-2.2.36-1.8 0-2.42-1.12-2.42-3.69v-7.51c0-2.42-.04-3.9.4-7.92l-1.93-.32-.55 2.57a9.82 9.82 0 00-7.01-2.93c-6.03 0-9.64 5-9.64 11.52zm2.48-.08c0-5.67 2.75-9.33 7.33-9.33 2.4 0 4.45.96 6.58 2.94v8.77c0 2.3-3.42 6.12-7.42 6.12-3.83 0-6.49-3.01-6.49-8.5zm0 0"/></symbol><symbol overflow="visible" id="28992028F"><path d="M12.28.67c7.2 0 10.31-5.75 10.31-11.37 0-6.08-2.92-10.68-9.45-10.68-6.39 0-9.27 3.83-9.27 10.85V10.8h2.38V-.94C7.83-.04 9.67.67 12.28.67zm.81-19.94c5.22 0 7.02 3.79 7.02 8.7 0 4.9-2.16 9.18-8 9.18-2.53 0-4.19-.64-5.86-1.58v-7.47c0-5.76 1.81-8.83 6.84-8.83zm0 0"/></symbol><symbol overflow="visible" id="28992028I"><path d="M17.9-15.08l.05-.48L7.56-27.98H26.2l.31-2.18H4.86l-.55 2.22 10.58 12.6L.67-2.25.77 0h22l.18-2.16H3.73zm0 0"/></symbol><symbol overflow="visible" id="28992028J"><path d="M7.33-20.8l-2.42.1L2.2 0h2.38l.27-1.98c.98-2.83 2.8-5.54 4.81-7.93L16.97 0h2.66c-.24-.55-.72-1.22-1.36-2.06l-7.02-9.55c3.56-3.6 7.56-6.3 9.86-7.56l-1.05-2.11C16.61-19.53 9.31-14.12 5.67-7.11h-.14zm0 0"/></symbol><symbol overflow="visible" id="28992028K"><path d="M16.25-32l-3.52 7.06 1.54.9 4.09-6.6v-.28zM2.11-8.23c0 5.3 2.84 8.9 8.1 8.9 6.21 0 11.07-6.2 11.07-13 0-5.1-2.56-9.1-8-9.1-6.39 0-11.17 6.59-11.17 13.2zm16.7-4.05c0 4.4-1.89 7.97-4.54 9.72a7.35 7.35 0 01-3.79 1.08c-3.95 0-5.89-2.93-5.89-6.8 0-4.19 1.8-7.97 4.6-9.94a7.45 7.45 0 013.76-1.05c4.2 0 5.86 3.16 5.86 6.99zm0 0"/></symbol><symbol overflow="visible" id="28992028L"><path d="M17.9-1.34a211.88 211.88 0 01-4-20.85c-1.48-10.22-1.62-12.1-5.53-12.1-1.57 0-3.15.73-4.28 1.4L4.91-31c.86-.4 2.2-1.05 3.23-1.05 1.31.1 2.2 1.13 2.61 4.28l.81 6.3A298.2 298.2 0 01-.27-.67v.26L1.98.5a253.44 253.44 0 0010.3-19.05h.1c.14 1.4.26 2.85.45 4.2C13.8-7.98 14.98-2.93 15.8 0h2.42a8.07 8.07 0 00-.31-1.34zm0 0"/></symbol><symbol overflow="visible" id="28992028M"><path d="M2.03-6.8C2.03-2.47 3.7.67 7.2.67c3.33 0 6.3-2.92 8.86-6.56.27 4 .72 6.51 3.38 6.51 1.93 0 3.68-1.25 5.1-2.56L23.4-3.56c-1.1.95-2.75 2.08-3.74 2.08-1.1-.2-1.67-2.7-1.94-6.49 2.52-3.9 5.18-8.9 6.8-12.5l-2.39-.95-4.55 10.36c-.17-5.24-.5-10.36-5.3-10.36-5.95 0-10.26 7.65-10.26 14.62zm2.47-.04c0-5.58 3.33-12.29 7.6-12.43 2.71.33 3.6 3.7 3.8 10.41v.27c-2.95 4.4-5.92 6.92-8.3 7.06-2.33-.1-3.1-2.66-3.1-5.31zm0 0"/></symbol><symbol overflow="visible" id="28992028N"><path d="M3.92 10.8a43.59 43.59 0 01-.23-4.5c0-2.3.04-4.6.23-6.85C5.36.2 6.9.63 8.64.63c6.61 0 11.16-6.35 11.16-13.77 0-4.64-1.75-8.28-6.25-8.28-9.27 0-12.28 13.05-12.28 27.55 0 1.84.04 3.54.17 4.93zm9.49-30.11c3.01.1 3.92 2.84 3.92 6.31 0 4.14-1.63 8.28-4.33 10.25a7.58 7.58 0 01-4.14 1.22 9.45 9.45 0 01-4.72-1.3c1.03-8.97 3.74-16.34 9.27-16.48zm0 0"/></symbol><symbol overflow="visible" id="28992028O"><path d="M18.9-14.9v-.7l-12-11.76h18.76l.12-2.8H2.75l-.36 2.85 12.5 12.18L2.2-2.87 2.56 0h23.32l-.15-2.8H6.34zm0 0"/></symbol><symbol overflow="visible" id="28992028P"><path d="M7.3-20.92l-3.25.1V0H7.3v-6.94l3.9-3.23L19.9 0h3.41a8.3 8.3 0 00-1.62-2.25l-8.28-9.77 8.32-6.92c.82-.68 1.32-1.26 1.4-1.93h-3.55L7.33-10.35H7.3zm0 0"/></symbol><symbol overflow="visible" id="28992028Q"><path d="M14.48-32.53l-2.92 7.6 2.16.9 3.6-6.9v-.35zM2.61-10.08C2.6-3.73 6.56.67 12.73.67c7.33 0 10.63-5.98 10.63-11.47 0-6.3-3.88-10.76-10.05-10.76-7.28 0-10.7 6.03-10.7 11.48zm17.42-.23c0 3.01-.86 5.14-2.17 6.44a6.57 6.57 0 01-4.77 1.8c-4.67 0-7.15-3.5-7.15-8.46 0-3.16.95-5.31 2.39-6.61a6.58 6.58 0 014.62-1.63c4.6 0 7.08 3.52 7.08 8.46zm0 0"/></symbol><symbol overflow="visible" id="28992028R"><path d="M21.42-1.9l-9.26-24.48c-1.85-4.98-3.79-7.92-7.8-7.92-.9 0-1.34.05-1.9.14v2.7c3.17 0 4.74 1.09 6.73 5.85l1.65 3.97L1.7-1.9A5.65 5.65 0 001.27 0h3.28l5.98-13.81 1.53-4.14h.22L18.77 0h3.15c-.05-.72-.33-1.31-.5-1.9zm0 0"/></symbol><symbol overflow="visible" id="28992028S"><path d="M2.66-9.86c0 6.4 3.59 10.53 8.8 10.53 3.62 0 6.63-2.15 7.98-4.26.31 2.73 1.8 4.14 4.54 4.14 1.44 0 2.4-.28 3.29-.7l-.58-2.41c-.67.22-1.27.31-2.13.31-1.8 0-2.33-1.08-2.33-3.47v-7.01c0-2.25-.04-3.79.41-8.1l-2.7-.36-.55 2.57a9.57 9.57 0 00-6.92-2.94c-6.17 0-9.81 5.23-9.81 11.7zm3.37-.17c0-5.31 2.56-8.78 6.75-8.78 2.2 0 4.19 1 6.2 2.92v7.92c0 2.2-3.04 5.86-6.92 5.86-3.69 0-6.03-2.8-6.03-7.92zm0 0"/></symbol><symbol overflow="visible" id="28992028T"><path d="M12.83.67c6.97 0 10.39-5.72 10.39-11.42 0-6.03-3.02-10.81-9.86-10.81-6.61 0-9.67 3.92-9.67 11.25v21.1h3.2V-.9C8.42 0 10.27.67 12.83.67zm.45-19.44c4.9 0 6.61 3.52 6.61 8.2 0 4.76-2.2 8.5-7.47 8.5-2.25 0-3.97-.59-5.53-1.5v-6.65c0-5.58 1.56-8.55 6.4-8.55zm0 0"/></symbol><symbol overflow="visible" id="28992028V"><path d="M18.58-14.9l.05-.7L8.59-27.37H26.5l.45-2.8H4.81l-.67 2.85 10.4 12.06L.76-2.87.86 0h22.31l.24-2.8H4.9zm0 0"/></symbol><symbol overflow="visible" id="28992028W"><path d="M8.02-21.02l-3.2.14L2.05 0h3.2l.22-1.98c.82-2.61 2.58-5.22 4.7-7.57L16.87 0h3.46a7.04 7.04 0 00-1.36-2.25l-6.7-9.45A48.63 48.63 0 0122-18.81l-1.3-2.78C17.2-19.94 9.98-14.53 6.48-8.1H6.3zm0 0"/></symbol><symbol overflow="visible" id="28992028X"><path d="M16.16-32.63l-3.6 7.33 2.02 1.18 4.28-6.66v-.36zM1.98-8.32c0 5.46 2.93 9 8.29 9 6.7 0 11.46-6.48 11.46-13.19 0-5.17-2.7-9.07-8.23-9.07-6.84 0-11.52 6.7-11.52 13.26zm16.43-4.1c0 4.1-1.72 7.66-4.14 9.41-.99.55-2.25.91-3.57.91-3.54 0-5.43-2.7-5.43-6.27 0-3.9 1.67-7.68 4.23-9.53a7 7 0 013.5-.9c3.88 0 5.4 2.75 5.4 6.39zm0 0"/></symbol><symbol overflow="visible" id="28992028Y"><path d="M18.94-1.44c-1.13-4.14-2.78-12.28-4.13-21.1C13.28-32.37 13-34.3 8.95-34.3c-1.75 0-3.47.77-4.76 1.53l1.03 2.54c.86-.41 2.34-1.13 3.37-1.13 1.22.22 2.11 1.53 2.47 4.67l.64 5.05A314.15 314.15 0 01-.3-.91v.29L2.66.54c3.06-5.1 6.96-12.3 9.9-18.4h.17c.1 1.48.27 3 .5 4.4.85 5.76 1.85 10.34 2.7 13.45h3.34c-.05-.36-.2-.86-.33-1.44zm0 0"/></symbol><symbol overflow="visible" id="28992028Z"><path d="M1.9-6.97C1.9-2.47 3.72.67 7.36.67c3.2 0 6.13-2.6 8.7-6.1.45 3.76 1.12 6.05 3.82 6.05 2.03 0 4-1.25 5.44-2.65L23.98-4.2c-1.07.9-2.82 1.99-3.73 1.99-.98-.36-1.63-2.61-2.03-5.77a86.26 86.26 0 006.98-12.55l-3.25-1.07c-1.12 2.56-2.82 6.82-4.04 9.84-.32-5.34-1.04-9.84-5.63-9.84C6.2-21.6 1.9-13.81 1.9-6.97zm3.27-.14c0-5.08 3.06-11.44 7.06-11.66 2.49.58 3.38 4.41 3.57 10.27-2.66 3.73-5.68 6.1-7.97 6.3-1.99-.4-2.66-2.52-2.66-4.9zm0 0"/></symbol><symbol overflow="visible" id="28992028aa"><path d="M4.64 10.8c-.14-1.4-.28-2.97-.28-4.6 0-2.15.1-4.36.23-6.47 1.35.54 2.88.9 4.46.9 6.84 0 11.51-6.4 11.51-13.68 0-4.9-2.15-8.54-6.7-8.54C4.19-21.6 1.08-8.7 1.08 6.17c0 1.9.1 3.55.23 4.94zm9-29.66c2.66.14 3.6 2.66 3.6 6.03 0 3.78-1.44 7.66-3.79 9.5A8.54 8.54 0 019.31-2.2c-1.44 0-3.01-.36-4.45-1.03.98-8.52 3.51-15.4 8.78-15.63zm0 0"/></symbol><symbol overflow="visible" id="28992028ab"><path d="M19.44-14.77v-.84L7.78-26.86h18.19l.17-3.3H2.7l-.36 3.35 12.29 11.78L2.24-3.33 2.61 0h23.62l-.17-3.28H7.2zm0 0"/></symbol><symbol overflow="visible" id="28992028ac"><path d="M7.78-21.06l-3.86.14V0h3.86v-6.75l3.78-3.16L19.84 0h4.1c-.17-.63-.9-1.48-1.66-2.44l-8.06-9.67 7.97-6.6c.89-.77 1.48-1.54 1.58-2.3h-4.2L7.84-10.8h-.05zm0 0"/></symbol><symbol overflow="visible" id="28992028ad"><path d="M14.36-32.98l-2.9 7.82L14-24.08l3.73-7.01v-.46zM2.52-10.03C2.52-3.6 6.53.67 12.73.67c7.38 0 10.94-5.94 10.94-11.65 0-6.35-4-10.7-10.17-10.7-7.38 0-10.98 5.98-10.98 11.65zm17.15-.31c0 2.96-.86 4.9-2.08 6.1a5.86 5.86 0 01-4.4 1.68c-4.33 0-6.66-3.28-6.66-8.06 0-3.1.9-5.08 2.2-6.26a6.12 6.12 0 014.32-1.53c4.32 0 6.62 3.29 6.62 8.07zm0 0"/></symbol><symbol overflow="visible" id="28992028ae"><path d="M21.83-2.03l-9.05-24.3c-1.94-5.17-3.97-7.97-8.14-7.97-1.05 0-1.58.05-2.2.14v3.24c3.23 0 4.89 1.05 6.75 5.55l1.56 3.64-9.08 19.7c-.28.64-.5 1.36-.5 2.03h4l5.46-13 1.6-4.38h.2L18.57 0h3.78a5.8 5.8 0 00-.53-2.03zm0 0"/></symbol><symbol overflow="visible" id="28992028af"><path d="M2.56-9.9C2.56-3.6 6.08.66 11.52.66c3.6 0 6.53-2.01 7.92-4.14.4 2.66 1.98 4.02 4.81 4.02 1.48 0 2.53-.28 3.47-.7l-.67-2.87c-.68.2-1.22.27-2.03.27-1.8 0-2.3-1.03-2.3-3.33v-6.6c0-2.16 0-3.65.4-8.24l-3.23-.45-.58 2.6a9.18 9.18 0 00-6.8-2.92c-6.3 0-9.95 5.36-9.95 11.78zm4-.22c0-5 2.49-8.33 6.36-8.33 2.02 0 3.96 1 5.94 2.92v7.25c0 2.15-2.84 5.67-6.63 5.67-3.54 0-5.67-2.6-5.67-7.52zm0 0"/></symbol><symbol overflow="visible" id="28992028ag"><path d="M13.28.67c6.78 0 10.4-5.67 10.4-11.42 0-6.08-3.02-10.94-10.18-10.94-6.75 0-9.98 4-9.98 11.57V10.8h3.85V-.86C8.91 0 10.75.67 13.29.67zm.17-19.08c4.6 0 6.22 3.33 6.22 7.79 0 4.73-2.17 8.06-7.03 8.06-2.02 0-3.78-.55-5.27-1.4v-6.12c0-5.4 1.41-8.33 6.08-8.33zm0 0"/></symbol><symbol overflow="visible" id="28992028aj"><path d="M19.08-14.77l.05-.84-9.77-11.25h17.42l.53-3.3H4.81l-.76 3.35 10.17 11.64L.82-3.33.9 0h22.57l.24-3.28H5.82zm0 0"/></symbol><symbol overflow="visible" id="28992028ak"><path d="M8.5-21.16l-3.78.1L1.94 0h3.83l.21-1.98c.63-2.43 2.4-4.96 4.5-7.24L16.83 0h4.1c-.13-.63-.73-1.48-1.35-2.44l-6.49-9.31a49.37 49.37 0 019.63-6.75l-1.56-3.33C17.64-20.2 10.53-14.8 7.06-8.86H6.9zm0 0"/></symbol><symbol overflow="visible" id="28992028al"><path d="M16.06-33.13l-3.68 7.52 2.43 1.44 4.46-6.75v-.4zM1.9-8.43c0 5.55 2.97 9.1 8.42 9.1 7.06 0 11.74-6.65 11.74-13.26 0-5.32-2.74-9.2-8.4-9.2-7.12 0-11.76 6.9-11.76 13.37zm16.25-4.13c0 3.92-1.62 7.48-3.92 9.19-.9.45-2.11.76-3.33.76-3.23 0-5.08-2.47-5.08-5.81 0-3.69 1.52-7.47 3.96-9.27a7.21 7.21 0 013.28-.81c3.64 0 5.1 2.48 5.1 5.94zm0 0"/></symbol><symbol overflow="visible" id="28992028am"><path d="M19.7-1.48c-1.12-4.14-2.82-12.47-4.22-21.33-1.53-9.5-1.89-11.49-6.07-11.49-1.85 0-3.7.77-5.18 1.67l1.2 2.93c.91-.4 2.5-1.13 3.52-1.13 1.13.27 2.03 1.85 2.4 4.95l.45 4.05A318.43 318.43 0 01-.36-1.13v.36L3.2.58a240.95 240.95 0 009.6-17.9h.16c.14 1.57.36 3.1.55 4.59.77 5.26 1.67 9.5 2.52 12.73h4.01c-.05-.4-.19-.9-.33-1.48zm0 0"/></symbol><symbol overflow="visible" id="28992028an"><path d="M1.8-7.06C1.8-2.52 3.73.67 7.47.67c3.16 0 5.98-2.37 8.64-5.8.55 3.6 1.39 5.7 4.1 5.7 2.15 0 4.23-1.24 5.71-2.63L24.4-4.64c-1.08.81-2.87 1.89-3.73 1.89-.91-.48-1.58-2.56-2.04-5.22a72.77 72.77 0 007.07-12.55l-3.82-1.26a179.5 179.5 0 00-3.73 9.6c-.4-5.46-1.4-9.6-5.81-9.6-6.2 0-10.53 7.92-10.53 14.72zm3.92-.27c0-4.69 2.78-10.81 6.6-11.08 2.26.77 3.24 4.82 3.43 9.96-2.47 3.28-5.48 5.53-7.78 5.7-1.63-.58-2.25-2.42-2.25-4.58zm0 0"/></symbol><symbol overflow="visible" id="28992028ao"><path d="M5.17 10.8c-.12-1.4-.26-3.02-.26-4.68 0-2.07.09-4.18.21-6.21 1.32.45 2.75.67 4.2.67C16.36.58 21.1-5.77 21.1-13c0-5.05-2.4-8.78-7.03-8.78C4.14-21.78.98-8.95.98 6.2c0 1.9.05 3.57.2 4.96zm8.64-29.35c2.4.2 3.38 2.58 3.38 5.86 0 3.55-1.35 7.16-3.42 8.86a8.46 8.46 0 01-4.14 1.08c-1.3 0-2.79-.27-4.2-.84.96-8.11 3.35-14.63 8.38-14.96zm0 0"/></symbol><symbol overflow="visible" id="28992028ap"><path d="M20.03-14.63v-1.03L8.73-26.33h17.55l.22-3.83H2.7l-.4 3.88L14.3-14.94 2.25-3.88 2.61 0h23.98l-.21-3.83H8.14zm0 0"/></symbol><symbol overflow="visible" id="28992028aq"><path d="M8.33-21.19l-4.55.13V0h4.55v-6.53l3.64-3.05L19.75 0h4.81c-.12-.67-.89-1.63-1.7-2.56l-7.78-9.6 7.56-6.34c1.03-.84 1.7-1.75 1.75-2.66h-4.86L8.37-11.25h-.04zm0 0"/></symbol><symbol overflow="visible" id="28992028ar"><path d="M14.22-33.48l-2.88 8.1 2.97 1.25 3.88-7.18v-.55zM2.39-9.94C2.4-3.52 6.53.67 12.73.67c7.43 0 11.25-5.84 11.25-11.83 0-6.43-4.09-10.67-10.3-10.67-7.43 0-11.29 5.94-11.29 11.9zm16.88-.5c0 2.97-.86 4.77-1.94 5.85a5.65 5.65 0 01-4.02 1.48c-4 0-6.2-3.02-6.2-7.6 0-3 .9-4.82 2.03-5.85.8-.86 2.2-1.44 4-1.44 4 0 6.13 3.02 6.13 7.56zm0 0"/></symbol><symbol overflow="visible" id="28992028as"><path d="M22.31-2.2l-8.9-24.13c-1.94-5.31-4.1-7.97-8.55-7.97-1.17 0-1.75.1-2.42.2v3.73c3.28 0 4.98.98 6.78 5.26l1.4 3.28-9 19.63A5.33 5.33 0 001.08 0h4.76l4.91-12.16 1.67-4.62h.17L18.36 0h4.5c0-.81-.27-1.58-.55-2.2zm0 0"/></symbol><symbol overflow="visible" id="28992028at"><path d="M2.44-9.9C2.44-3.74 5.89.66 11.56.66a9.75 9.75 0 007.88-4c.5 2.56 2.12 3.88 5.1 3.88 1.55 0 2.68-.33 3.68-.74l-.77-3.37c-.67.19-1.22.28-1.93.28-1.8 0-2.3-1-2.3-3.16v-6.15c0-2.08.1-3.61.4-8.43l-3.78-.54-.62 2.62a8.97 8.97 0 00-6.7-2.89c-6.4 0-10.08 5.53-10.08 11.92zm4.72-.37c0-4.62 2.34-7.78 5.84-7.78 1.94 0 3.78.99 5.67 2.88v6.58c0 2.06-2.56 5.43-6.25 5.43-3.42 0-5.26-2.37-5.26-7.1zm0 0"/></symbol><symbol overflow="visible" id="28992028au"><path d="M13.72.67c6.58 0 10.45-5.62 10.45-11.47 0-6.03-3.06-11.03-10.48-11.03-6.94 0-10.31 4.05-10.31 11.9V10.8h4.54V-.81C9.45.05 11.25.67 13.72.67zM13.64-18c4.31 0 5.8 3.1 5.8 7.38 0 4.64-2.11 7.56-6.52 7.56a9.71 9.71 0 01-5-1.4V-9.9c0-5.26 1.17-8.09 5.72-8.09zm0 0"/></symbol><symbol overflow="visible" id="28992028ax"><path d="M19.58-14.63l.1-1.03-9.46-10.67h16.87l.58-3.83H4.77l-.85 3.88 9.99 11.2L.86-3.88.98 0h22.83l.32-3.83H6.8zm0 0"/></symbol><symbol overflow="visible" id="28992028ay"><path d="M9.05-21.33l-4.46.14L1.84 0h4.41l.28-2.03C6.97-4.2 8.7-6.61 10.9-8.91L16.8 0h4.73c-.05-.67-.7-1.63-1.36-2.56l-6.2-9.24a53.17 53.17 0 019.52-6.39l-1.8-3.86c-3.54 1.49-10.57 6.93-13.95 12.33h-.17zm0 0"/></symbol><symbol overflow="visible" id="28992028az"><path d="M15.97-33.66l-3.74 7.78 2.85 1.68 4.62-6.85v-.5zM1.8-8.55C1.8-2.83 4.8.67 10.4.67c7.41 0 12-6.87 12-13.4 0-5.46-2.77-9.2-8.59-9.2-7.47 0-12.01 7-12.01 13.38zm16.01-4.1c0 3.65-1.48 7.24-3.6 8.87-.9.4-2.02.62-3.15.62-2.87 0-4.67-2.28-4.67-5.3 0-3.5 1.4-7.24 3.6-9 .85-.4 1.93-.63 3.15-.63 3.33 0 4.67 2.15 4.67 5.45zm0 0"/></symbol><symbol overflow="visible" id="28992028aA"><path d="M20.52-1.53a294.34 294.34 0 01-4.32-21.6c-1.48-9.09-2.03-11.17-6.3-11.17-1.98 0-3.92.82-5.59 1.77l1.4 3.47c.9-.4 2.57-1.17 3.65-1.17 1.03.36 1.94 2.15 2.2 5.21l.31 3.02A270.77 270.77 0 01-.45-1.34v.4L3.78.62c2.66-4.4 6.4-11.46 9.27-17.35h.18A124.18 124.18 0 0016.11 0h4.72c-.03-.4-.17-.9-.31-1.53zm0 0"/></symbol><symbol overflow="visible" id="28992028aB"><path d="M1.7-7.2C1.7-2.52 3.78.67 7.6.67c3.1 0 5.85-2.15 8.5-5.44.68 3.43 1.71 5.35 4.46 5.35 2.25 0 4.5-1.25 6.03-2.69l-1.75-3.02c-1.07.72-2.96 1.8-3.73 1.8-.81-.6-1.48-2.51-2.03-4.76a59.21 59.21 0 007.1-12.47l-4.45-1.36a76.82 76.82 0 00-3.28 9.19h-.04c-.55-5.54-1.85-9.2-6.08-9.2-6.3 0-10.63 7.98-10.63 14.73zm4.6-.36c0-4.27 2.51-10.08 6.12-10.49 2.02.99 3.06 5.18 3.24 9.63-2.25 2.8-5.32 4.9-7.52 5.1-1.3-.82-1.84-2.3-1.84-4.24zm0 0"/></symbol><symbol overflow="visible" id="28992028aC"><path d="M5.77 10.8a48.64 48.64 0 01-.29-4.77c0-2.03.05-4 .2-5.98 1.26.36 2.6.53 3.95.53 7.3 0 12.1-6.4 12.1-13.53 0-5.24-2.7-8.97-7.37-8.97C4.09-21.92.86-9.27.86 6.25c0 1.9.08 3.6.22 4.95zm8.28-28.99c2.06.24 3.1 2.49 3.1 5.63 0 3.3-1.26 6.67-3.07 8.25-.94.67-2.78.98-4.14.98-1.16 0-2.56-.23-3.9-.67.9-7.7 3.18-13.78 8-14.19zm0 0"/></symbol><symbol overflow="visible" id="28992028aD"><path d="M20.66-14.44v-1.26L9.8-25.7H26.7l.26-4.47H2.65l-.4 4.47 11.7 10.85L2.25-4.45 2.65 0H27l-.27-4.45H9.22zm0 0"/></symbol><symbol overflow="visible" id="28992028aE"><path d="M8.95-21.38l-5.36.15V0h5.36v-6.3l3.47-2.92L19.7 0h5.63c-.08-.72-.94-1.75-1.75-2.75l-7.56-9.48 7.1-5.99c1.18-1 1.99-2.03 1.99-3.1h-5.58L9-11.8h-.05zm0 0"/></symbol><symbol overflow="visible" id="28992028aF"><path d="M14.08-34.06l-2.92 8.45 3.51 1.44 4-7.42v-.58zM2.25-9.91C2.25-3.37 6.53.67 12.73.67c7.52 0 11.61-5.75 11.61-12.06 0-6.47-4.23-10.61-10.43-10.61C6.44-22 2.25-16.1 2.25-9.9zm16.56-.57c0 2.92-.86 4.5-1.8 5.43a5.1 5.1 0 01-3.6 1.32c-3.6 0-5.63-2.7-5.63-7.07 0-2.97.9-4.54 1.84-5.45a5 5 0 013.66-1.3c3.6 0 5.53 2.74 5.53 7.07zm0 0"/></symbol><symbol overflow="visible" id="28992028aG"><path d="M22.86-2.44l-8.73-23.84c-1.97-5.49-4.27-8.02-8.96-8.02-1.34 0-2.01.1-2.78.24v4.36c3.38 0 5.17.9 6.88 4.9l1.21 2.88L1.53-2.44A6.52 6.52 0 00.98 0h5.63l4.33-11.16 1.65-4.9h.24L18.14 0h5.3c0-.86-.32-1.75-.58-2.44zm0 0"/></symbol><symbol overflow="visible" id="28992028aH"><path d="M2.3-9.94C2.3-3.88 5.67.67 11.6.67a9.7 9.7 0 007.84-3.86c.62 2.47 2.34 3.74 5.4 3.74 1.66 0 2.88-.33 3.91-.74l-.84-3.95c-.64.14-1.18.22-1.85.22-1.81 0-2.22-.94-2.22-2.97v-5.67c0-1.88.1-3.46.41-8.6l-4.45-.57-.68 2.6C17.23-21.02 15.25-22 12.57-22 5.98-22 2.3-16.3 2.3-9.94zm5.53-.4c0-4.29 2.2-7.25 5.31-7.25 1.75 0 3.55.98 5.36 2.87V-9c0 2.03-2.25 5.22-5.86 5.22-3.23 0-4.81-2.16-4.81-6.56zm0 0"/></symbol><symbol overflow="visible" id="28992028aI"><path d="M14.27.67c6.34 0 10.48-5.58 10.48-11.51 0-6.04-3.1-11.16-10.84-11.16C6.75-22 3.19-17.86 3.19-9.72V10.8h5.36V-.77C10.03.1 11.83.67 14.27.67zm-.46-18.22c4 0 5.4 2.88 5.4 6.93 0 4.54-2.12 6.93-6.02 6.93-1.58 0-3.28-.5-4.64-1.26v-4.77c0-5.05.95-7.83 5.26-7.83zm0 0"/></symbol><symbol overflow="visible" id="28992028aM"><path d="M20.2-14.44l.1-1.26-9.1-9.99h16.2l.73-4.47H4.71l-.99 4.47 9.77 10.7L.94-4.44 1.08 0H24.2l.33-4.45H7.97zm0 0"/></symbol><symbol overflow="visible" id="28992028aN"><path d="M9.67-21.52l-5.17.14L1.7 0h5.2l.26-2.2c.4-1.99 2.03-4.2 4.14-6.35L16.73 0h5.5c0-.72-.71-1.75-1.4-2.75l-5.9-9.05a55.25 55.25 0 019.41-6.01l-2.06-4.5c-3.6 1.39-10.48 6.83-13.78 11.64h-.22zm0 0"/></symbol><symbol overflow="visible" id="28992028aO"><path d="M15.9-34.25l-3.84 8.02 3.28 1.98 4.86-6.94v-.58zM1.66-8.65c0 5.85 3.1 9.32 8.77 9.32C18.3.67 22.8-6.48 22.8-12.87c0-5.58-2.87-9.22-8.76-9.22C6.12-22.1 1.67-15 1.67-8.64zm15.78-4.13c0 3.37-1.34 6.97-3.28 8.55-.81.3-1.84.5-2.87.5-2.52 0-4.28-2.08-4.28-4.82 0-3.25 1.26-6.98 3.3-8.64.74-.31 1.79-.5 2.87-.5 3.01 0 4.26 1.8 4.26 4.9zm0 0"/></symbol><symbol overflow="visible" id="28992028aP"><path d="M21.47-1.58a346 346 0 01-4.4-21.86c-1.54-8.73-2.18-10.86-6.63-10.86-2.11 0-4.19.86-6.03 1.9l1.57 4.06c.96-.41 2.75-1.22 3.83-1.22.9.45 1.8 2.51 2.06 5.53l.2 1.75A299.64 299.64 0 01-.5-1.58v.46L4.45.68c2.4-4 6.03-11.02 8.86-16.74h.24c.17 1.65.4 3.33.62 4.9.6 4.2 1.22 7.6 2.08 11.16h5.53c-.05-.4-.19-.94-.31-1.58zm0 0"/></symbol><symbol overflow="visible" id="28992028aQ"><path d="M1.58-7.33c0 4.77 2.2 8 6.15 8 3.02 0 5.72-1.94 8.43-5.03.76 3.19 2.03 4.9 4.8 4.9a9.72 9.72 0 006.35-2.7l-1.93-3.56C24.3-5.05 22.3-4 21.63-4c-.72-.69-1.39-2.44-1.97-4.23a52.62 52.62 0 007.14-12.33L21.6-22.1a51.39 51.39 0 00-2.78 8.64h-.14c-.72-5.49-2.3-8.64-6.3-8.64-6.43 0-10.8 8.09-10.8 14.76zm5.36-.5c0-3.78 2.25-9.26 5.58-9.76 1.75 1.17 2.78 5.36 3.04 9.21-2.06 2.2-5.08 4.2-7.19 4.38a5.05 5.05 0 01-1.43-3.83zm0 0"/></symbol><symbol overflow="visible" id="28992028aR"><path d="M6.44 10.8a51.5 51.5 0 01-.27-4.86c0-1.94.03-3.88.13-5.75C7.52.4 8.78.55 9.98.55c7.52 0 12.43-6.4 12.43-13.47 0-5.44-3.02-9.17-7.79-9.17C4-22.1.72-9.58.72 6.3c0 1.89.1 3.6.22 4.95zm7.83-28.58c1.75.28 2.8 2.34 2.8 5.4 0 2.93-1.1 6.04-2.59 7.52-.89.58-2.87.9-4.14.9A14.1 14.1 0 016.7-4.5c.9-7.2 3.07-12.78 7.57-13.28zm0 0"/></symbol><symbol overflow="visible" id="28992028aS"><path d="M20.88-14.36v-1.39L10.7-25.06h16.16l.28-5.1H2.52l-.46 5.1 10.86 10.25L2.06-5.08 2.52 0h24.62l-.28-5.08H10.17zm0 0"/></symbol><symbol overflow="visible" id="28992028aT"><path d="M9.81-21.64l-6.58.12V0h6.58v-5.9l3.38-2.88L19.58 0h6.75c-.05-.81-.86-1.84-1.72-2.97l-7.19-9.4 6.66-5.68c1.34-1.17 2.06-2.3 2.06-3.54h-6.7l-9.58 9.17H9.8zm0 0"/></symbol><symbol overflow="visible" id="28992028aU"><path d="M14.27-34.69l-3.2 8.72 3.91 1.72 4.24-7.56v-.67zM1.98-10.03C1.98-3.6 6.3.67 12.95.67c7.88 0 12.16-5.58 12.16-12.1 0-6.35-4.23-10.85-10.94-10.85-7.83 0-12.19 5.81-12.19 12.25zm16.38-.5c0 2.7-.72 4.23-1.58 5.12-.58.7-1.66 1.22-3.14 1.22-3.16 0-4.9-2.56-4.9-6.75 0-2.7.76-4.36 1.57-5.22.63-.71 1.7-1.21 3.19-1.21 3.16 0 4.86 2.75 4.86 6.84zm0 0"/></symbol><symbol overflow="visible" id="28992028aV"><path d="M23.84-2.8l-8.18-22.5c-2.2-6.15-4.5-9-10.18-9-1.43 0-2.3.1-3.14.28v4.96c3.64 0 5.44.84 7.16 4.62l.94 2.08-9 19.56C1.04-1.94.77-.9.77 0H7.6l3.83-10.53L13-15.7h.23L18.1 0h6.4c0-.94-.32-2.03-.65-2.8zm0 0"/></symbol><symbol overflow="visible" id="28992028aW"><path d="M2.03-10.08C2.03-3.92 5.31.67 11.3.67c3.54 0 6.48-1.84 7.87-4C19.84-.72 21.64.55 24.84.55c1.85 0 3.24-.33 4.41-.82l-.77-4.59c-.57.1-1.12.17-1.7.17-1.72 0-2.12-.84-2.12-2.78v-5.72c0-1.98.04-3.54.3-8.14L19.85-22l-.86 2.6c-1.96-1.93-4-2.88-6.65-2.88-6.56 0-10.3 5.67-10.3 12.2zm6.75-.5c0-4.1 1.9-6.75 4.63-6.75 1.53 0 3.06.9 4.64 2.52V-9A5.1 5.1 0 0113-4.31c-2.92 0-4.22-2.08-4.22-6.27zm0 0"/></symbol><symbol overflow="visible" id="28992028aX"><path d="M15.03.67c6.25 0 10.44-5.53 10.44-11.7 0-6.25-3.47-11.25-11.34-11.25-7.57 0-11.3 4.06-11.3 12.66V10.7h6.62V-.77C10.9.1 12.65.67 15.03.67zM14-17.28c3.55 0 4.72 2.66 4.72 6.39 0 4.5-1.84 6.6-5.27 6.6a8.2 8.2 0 01-4-1.02v-5.08c0-4.45.82-6.9 4.55-6.9zm0 0"/></symbol><symbol overflow="visible" id="28992028aZ"><path d="M20.44-14.36l.12-1.39-8.5-9.31H27.5l.84-5.1H4.6l-1.07 5.1 9.12 10.08L.86-5.08.94 0h23.45l.36-5.08H8.95zm0 0"/></symbol><symbol overflow="visible" id="28992028ba"><path d="M10.53-21.78l-6.3.19L1.4 0h6.3l.28-1.94c.4-1.94 1.94-4.04 3.95-6.08L16.66 0h6.6c0-.81-.62-1.84-1.34-2.97l-5.5-8.83a59.17 59.17 0 019-5.43l-2.3-5.46c-4 1.32-10.39 6.53-13.67 11.25H9.2zm0 0"/></symbol><symbol overflow="visible" id="28992028bb"><path d="M15.97-34.83l-3.95 8.33 3.68 2.16 5.1-7.07v-.71zM1.44-8.69c0 5.67 3.15 9.36 9.19 9.36 8.76 0 13.04-7.51 13.04-13.72 0-5.5-2.97-9.3-9.23-9.3-8.77 0-13 7.5-13 13.66zm15.65-4.36c0 3.24-1.15 6.88-2.87 8.4a7.2 7.2 0 01-2.56.46c-2.25 0-3.64-1.98-3.64-4.4 0-3.11 1.12-6.85 2.82-8.47a7.38 7.38 0 012.57-.44c2.65 0 3.68 1.75 3.68 4.45zm0 0"/></symbol><symbol overflow="visible" id="28992028bc"><path d="M22.5-1.67a438.1 438.1 0 01-4.36-22.1C16.66-32 15.94-34.3 11.16-34.3c-2.38 0-4.72.86-6.75 1.94l1.71 4.73c1.08-.45 2.79-1.21 3.91-1.21.81.62 1.63 2.56 1.85 5.21l.09.99C7.1-13.77 2.83-7.16-.58-1.8v.58L5.48.68a265.2 265.2 0 008.07-16.38h.22l.54 4.76c.5 4.4 1.03 7.61 1.75 10.94h6.75c-.04-.4-.17-.98-.31-1.67zm0 0"/></symbol><symbol overflow="visible" id="28992028bd"><path d="M1.34-7.3C1.34-2.47 3.56.67 7.66.67c3.04 0 5.7-1.89 8.45-5.03.81 3.24 2.1 4.94 5.05 4.94a10.2 10.2 0 006.51-2.52l-1.7-4.23c-1.08.6-2.84 1.45-3.56 1.45-.68-.64-1.3-2.03-1.97-3.7a47.04 47.04 0 007.14-12.28l-6.11-1.75c-1 2.25-1.84 5.43-2.49 8.18h-.12c-.67-4.95-2.34-8.09-6.34-8.09-6.8 0-11.18 7.95-11.18 15.06zm6.49-.93c0-3.38 1.98-8.64 4.9-9.14 1.58 1.07 2.52 4.9 2.83 8.59-1.87 2.17-4.53 3.97-6.42 4.19-.9-.94-1.31-2.02-1.31-3.64zm0 0"/></symbol><symbol overflow="visible" id="28992028be"><path d="M7.42 10.7a47.13 47.13 0 01-.31-5.07c0-1.8.05-3.57.14-5.36 1.08.18 2.16.28 3.23.28 7.83 0 12.96-6.27 12.96-13.6 0-5.57-3.1-9.3-8.27-9.3C3.87-22.36.5-10.13.5 6.02c0 1.94.08 3.69.22 5.17zm7.11-28.2c1.49.31 2.35 2.25 2.35 4.98 0 2.66-.94 5.82-2.3 7.35-.77.48-2.66.76-3.78.76-.94 0-1.99-.14-3.11-.36.9-6.8 2.89-12.25 6.84-12.73zm0 0"/></symbol><symbol overflow="visible" id="28992028bf"><path d="M21.33-14.22v-1.58l-8.9-8.1h14.71l.36-6.26H2.3l-.5 6.27 9.23 9.17L1.8-6.25 2.3 0h25.1l-.35-6.25H11.92zm0 0"/></symbol><symbol overflow="visible" id="28992028bg"><path d="M11.34-22.14L2.61-22V0h8.73v-5.13l3.1-2.75L19.3 0h8.9c-.04-.94-.71-1.98-1.66-3.38l-6.57-9.3 5.8-5.05c1.67-1.49 2.3-2.83 2.3-4.36h-8.81l-7.88 8.54h-.05zm0 0"/></symbol><symbol overflow="visible" id="28992028bh"><path d="M14.63-35.9l-3.7 9.3 4.6 2.26 4.67-7.83v-.95zM1.47-10.32C1.48-4.05 5.84.67 13.36.67c8.52 0 13.14-5.22 13.14-12.14 0-6.22-4.27-11.3-11.83-11.3-8.47 0-13.19 5.63-13.19 12.46zm16.11-.27c0 2.2-.5 3.69-1.17 4.55-.48.62-1.22.98-2.34.98-2.33 0-3.64-2.33-3.64-6.15 0-2.2.54-3.97 1.17-4.77.5-.69 1.22-1.05 2.34-1.05 2.35 0 3.64 2.66 3.64 6.44zm0 0"/></symbol><symbol overflow="visible" id="28992028bi"><path d="M25.69-3.38L18.5-23.43C15.84-30.92 13.6-34.3 6.03-34.3c-1.58 0-2.7.14-3.73.33v6.06c4.1 0 5.89.72 7.6 4.1l.37.76-9 19.68A8.43 8.43 0 00.4 0h9.04l2.93-9.36 1.34-5.67H14L17.95 0h8.5c0-1.13-.39-2.47-.76-3.38zm0 0"/></symbol><symbol overflow="visible" id="28992028bj"><path d="M1.58-10.34C1.58-4.04 4.72.67 10.75.67c3.52 0 6.58-1.8 7.88-4.26.76 2.82 2.84 4.14 6.26 4.14 2.16 0 3.86-.36 5.34-1l-.71-5.75c-.49.08-.94.12-1.44.12-1.53 0-1.99-.72-1.99-2.51v-5.77c0-2.16.05-3.69.24-7.28l-6.4-.9-1.21 2.7c-2.11-2.04-4.19-2.93-6.8-2.93-6.6 0-10.34 5.58-10.34 12.43zm9-.64c0-3.79 1.17-5.8 3.28-5.8 1.17 0 2.25.62 3.42 1.84v5.99c0 1.57-1.31 3.6-3.64 3.6-2.25 0-3.06-1.9-3.06-5.63zm0 0"/></symbol><symbol overflow="visible" id="28992028bk"><path d="M16.42.63c6.13 0 10.31-5.35 10.31-11.93 0-6.8-4.01-11.47-12.25-11.47C6.25-22.77 2.2-18.9 2.2-9.45v20.03h8.86V-.77c1.4.86 3.11 1.4 5.36 1.4zm-2.1-17.36c2.7 0 3.41 2.2 3.41 5.34 0 4.45-1.21 6.08-3.78 6.08a6.8 6.8 0 01-2.89-.63v-5.76c0-3.33.6-5.03 3.25-5.03zm0 0"/></symbol><symbol overflow="visible" id="28992028bl"><path d="M20.88-14.27l.18-1.57-7.47-8.05h14.08l1.08-6.27H4.35l-1.29 6.27 7.97 8.9L.72-6.24.67 0h24.08l.45-6.25H10.8zm0 0"/></symbol><symbol overflow="visible" id="28992028bm"><path d="M12.1-22.28l-8.41.23L.8 0h8.4l.24-1.53c.36-1.8 1.7-3.64 3.5-5.4L16.47 0h8.69c.04-.94-.46-1.98-1.22-3.38l-4.77-8.32a60.6 60.6 0 018.28-4.46L24.7-23.3c-4.8 1.17-10.26 5.89-13.5 10.43h-.3zm0 0"/></symbol><symbol overflow="visible" id="28992028bn"><path d="M16.2-35.9l-4.32 8.85 4.42 2.61 5.57-7.42v-.95zM.98-8.82c0 5.44 3.3 9.48 10 9.48 10.44 0 14.27-8.19 14.27-14.03 0-5.27-3.2-9.5-10-9.5C4.81-22.86.98-14.63.98-8.8zm15.49-4.74c0 2.97-.9 6.7-2.16 8.2a4.9 4.9 0 01-1.98.35c-1.7 0-2.56-1.75-2.56-3.64 0-2.92.9-6.66 2.1-8.14.5-.28 1.22-.4 1.94-.4 2.08 0 2.66 1.7 2.66 3.63zm0 0"/></symbol><symbol overflow="visible" id="28992028bo"><path d="M24.4-1.9a832.88 832.88 0 01-4.34-22.44c-1.3-7.35-2.28-9.96-7.6-9.96-2.88 0-5.71.9-8 2.03l1.84 5.9c1.39-.44 2.97-1.13 4.1-1.13.66.81 1.2 2.4 1.47 4.23C6.9-14.27 2.7-7.83-.77-2.16v.82L7.37.67c2.18-4.4 4.6-10.22 6.63-15.7h.22c.1 1.58.19 3.1.26 4.5.36 4.76.77 7.65 1.32 10.53h8.9c0-.45-.14-1.08-.3-1.9zm0 0"/></symbol><symbol overflow="visible" id="28992028bp"><path d="M.94-7.25C.94-2.39 3.19.67 7.42.67c3.25 0 5.86-1.84 8.64-4.98.77 3.28 2.25 4.93 5.46 4.93 2.92 0 5.3-1.12 6.8-2.2L27-7.02c-1.03.41-2.44.99-3.16.99a12.6 12.6 0 01-1.92-2.83 38.4 38.4 0 007.02-12.02l-7.75-2.2c-.75 1.97-1.35 4.86-1.88 7.33h-.14c-.67-4.05-2.39-7.1-6.34-7.1-7.47 0-11.9 7.73-11.9 15.6zm8.6-1.7c0-2.7 1.5-7.47 3.65-7.97 1.22.9 2.01 4.05 2.34 7.42-1.53 2.08-3.51 3.52-5.05 3.83-.67-.72-.93-1.8-.93-3.28zm0 0"/></symbol><symbol overflow="visible" id="28992028bq"><path d="M9.22 10.48A43.1 43.1 0 018.86 5c0-1.44.05-3.02.14-4.55.81.1 1.63.13 2.44.13 8.31 0 13.89-6.02 13.89-13.9 0-5.85-3.28-9.54-9.17-9.54C3.56-22.86.09-11.1.09 5.48c0 2.04.05 3.97.22 5.68zm5.86-27.45c.89.4 1.48 2.03 1.48 4.19 0 2.15-.72 5.45-1.75 7.06-.64.31-2.25.5-3.15.5-.68 0-1.35-.1-2.11-.19.84-5.98 2.51-11.1 5.53-11.56zm0 0"/></symbol><symbol overflow="visible" id="28992028br"><path d="M21.88-14.05v-1.84l-7.47-6.7H27.5l.36-7.57H2.03l-.6 7.57 7.52 7.92-7.51 7.1.6 7.57h25.68l-.4-7.56H13.94zm0 0"/></symbol><symbol overflow="visible" id="28992028bs"><path d="M13.1-22.72l-11.2.17V0h11.2v-4.31l2.65-2.4L19.03 0h11.25c0-1.08-.48-2.16-1.53-3.83L22.81-13l4.9-4.42c2.04-1.8 2.52-3.38 2.52-5.22H19.08l-5.94 7.8h-.05zm0 0"/></symbol><symbol overflow="visible" id="28992028bt"><path d="M15.03-37.22l-4.23 9.86 5.3 2.88 5.23-8.1v-1.22zM.91-10.58C.9-4.55 5.3.67 13.8.67c9.24 0 14.27-4.86 14.27-12.19 0-6.03-4.31-11.8-12.83-11.8C6.03-23.31.91-17.9.91-10.57zm15.78-.04c0 1.67-.22 3.06-.67 3.82-.36.6-.72.82-1.4.82-1.43 0-2.24-2.08-2.24-5.49 0-1.67.26-3.6.67-4.33.3-.62.72-.86 1.39-.86 1.45 0 2.25 2.66 2.25 6.04zm0 0"/></symbol><symbol overflow="visible" id="28992028bu"><path d="M27.77-4.1l-6.08-17.27C18.55-30.34 16.33-34.3 6.66-34.3c-1.7 0-3.24.2-4.46.4v7.3c4.33 0 6.17.54 7.78 2.98L1.03-4.1A10.52 10.52 0 00-.05 0h11.57l1.89-8.06 1.12-6.2h.28L17.86 0h10.81c0-1.31-.5-3.02-.9-4.1zm0 0"/></symbol><symbol overflow="visible" id="28992028bv"><path d="M1.03-10.67C1.03-4.14 4 .67 10.17.67c3.42 0 6.66-1.7 7.83-4.62.81 3.14 3.19 4.5 6.94 4.5 2.51 0 4.62-.4 6.34-1.18l-.6-7.1c-.35.07-.76.12-1.12.12-1.3 0-1.8-.62-1.8-2.25v-5.75c0-2.44 0-3.92.1-6.39l-7.8-1.13-1.56 2.83c-2.3-2.15-4.5-3.01-7.06-3.01-6.63 0-10.4 5.45-10.4 12.64zm11.53-.77c0-3.4.49-4.76 1.85-4.76.67 0 1.3.36 1.96 1.07v6.22c0 1.25-.57 2.43-1.96 2.43-1.58 0-1.85-1.75-1.85-4.96zm0 0"/></symbol><symbol overflow="visible" id="28992028bw"><path d="M17.95.58c6.03 0 10.27-5.22 10.27-12.24 0-7.28-4.69-11.65-13.33-11.65-8.95 0-13.4 3.6-13.4 14.04V10.4h11.38V-.77A9.1 9.1 0 0017.95.58zm-3.32-16.74c1.8 0 2.06 1.72 2.06 4.2 0 4.44-.58 5.48-2.2 5.48-.58 0-1.13-.08-1.62-.27v-6.4c0-2.05.32-3 1.76-3zm0 0"/></symbol><symbol overflow="visible" id="28992028by"><path d="M21.38-14.13l.21-1.84-6.25-6.62h12.52l1.39-7.57H4.09l-1.57 7.57 6.7 7.65L.58-7.56.36 0H25.1l.62-7.56h-12.8zm0 0"/></symbol><symbol overflow="visible" id="28992028bz"><path d="M13.9-22.81l-10.8.22L.15 0h10.84l.13-1.08c.28-1.48 1.36-3.1 2.89-4.6L16.25 0h11.02c.14-1.08-.22-2.16-1.08-3.83l-3.9-7.64a58.26 58.26 0 017.41-3.47l-3.2-9.1c-5.7 1-10.08 5.18-13.31 9.6h-.36zm0 0"/></symbol><symbol overflow="visible" id="28992028bA"><path d="M16.42-37.17l-4.62 9.55 5.22 3.06 6.1-7.8v-1.2zM.5-8.91C.5-3.83 3.95.67 11.34.67 23.72.67 27-8.33 27-13.72c0-5.05-3.42-9.69-10.9-9.69C3.84-23.4.5-14.36.5-8.9zm15.2-5.21c0 2.73-.53 6.46-1.26 7.95-.31.14-.8.28-1.3.28-1.22 0-1.34-1.58-1.34-2.8 0-2.7.62-6.44 1.25-7.83a2.7 2.7 0 011.26-.3c1.3 0 1.4 1.62 1.4 2.7zm0 0"/></symbol><symbol overflow="visible" id="28992028bB"><path d="M26.55-2.1c-1.13-5.63-2.88-15.04-4.24-22.87-1.15-6.39-2.42-9.33-8.31-9.33-3.47 0-6.94.9-9.55 2.13l2.11 7.28c1.67-.53 3.07-1.08 4.28-1.08.32.67.55 1.44.77 2.2C6.53-14.72 2.5-8.5-.94-2.6v1.08L9.55.67c2.01-4.72 3.45-9.62 4.98-14.94h.19c0 1.54.05 2.93.05 4.24.12 5.17.36 7.69.67 10.03h11.42c0-.5-.13-1.22-.31-2.1zm0 0"/></symbol><symbol overflow="visible" id="28992028bC"><path d="M.5-7.16C.5-2.25 2.75.67 7.2.67c3.38 0 5.99-1.75 8.82-4.95.71 3.34 2.43 4.95 5.86 4.95 3.37 0 5.7-1.03 7.15-1.8l-.81-6.89c-1 .24-1.99.46-2.8.5-.48-.4-.94-.98-1.7-1.93a30.35 30.35 0 006.75-11.7l-9.55-2.66c-.53 1.67-.81 4.23-1.25 6.39h-.14c-.76-3.19-2.6-5.99-6.39-5.99C4.91-23.4.5-15.94.5-7.16zm10.94-2.6c0-1.9.94-6.18 2.25-6.62.84.68 1.48 3.24 1.84 6.16-1.12 1.9-2.39 2.97-3.51 3.33-.41-.49-.58-1.53-.58-2.88zm0 0"/></symbol><symbol overflow="visible" id="28992028bD"><path d="M11.25 10.27a42.48 42.48 0 01-.36-5.96c0-1.15.05-2.42.1-3.76.48.03.98.03 1.48.03 8.95 0 14.98-5.7 14.98-14.17 0-6.16-3.42-9.82-10.22-9.82C3.23-23.4-.4-12.23-.4 4.91c0 2.1.05 4.18.22 6.2zm4.4-26.64c.32.48.55 1.8.55 3.32 0 1.58-.45 4.99-1.17 6.7-.45.15-1.8.18-2.39.18-.31 0-.67 0-.98-.03.71-5.2 2.03-9.77 4-10.18zm0 0"/></symbol></defs><use xlink:href="#28992028a" x="38.96625" y="68.408"/><use xlink:href="#28992028b" x="66.41625" y="68.408"/><use xlink:href="#28992028c" x="89.90625" y="68.408"/><use xlink:href="#28992028d" x="115.42125" y="68.408"/><use xlink:href="#28992028e" x="137.51625" y="68.408"/><use xlink:href="#28992028f" x="164.02125" y="68.408"/><g fill-opacity=".33"><use xlink:href="#28992028g" x="67.29208" y="105.816"/><use xlink:href="#28992028h" x="73.95908" y="105.816"/><use xlink:href="#28992028i" x="80.62608" y="105.816"/><use xlink:href="#28992028j" x="87.29308" y="105.816"/><use xlink:href="#28992028k" x="93.96008" y="105.816"/><use xlink:href="#28992028l" x="100.62708" y="105.816"/><use xlink:href="#28992028m" x="107.29408" y="105.816"/><use xlink:href="#28992028k" x="113.96108" y="105.816"/><use xlink:href="#28992028m" x="120.62808" y="105.816"/><use xlink:href="#28992028g" x="127.29508" y="105.816"/><use xlink:href="#28992028n" x="133.96208" y="105.816"/><use xlink:href="#28992028o" x="140.62908" y="105.816"/><use xlink:href="#28992028p" x="147.29608" y="105.816"/><use xlink:href="#28992028l" x="153.96308" y="105.816"/></g><use xlink:href="#28992028q" x="266.31375" y="68.408"/><use xlink:href="#28992028r" x="292.54875" y="68.408"/><use xlink:href="#28992028s" x="314.14875" y="68.408"/><use xlink:href="#28992028t" x="337.81875" y="68.408"/><use xlink:href="#28992028u" x="357.84375" y="68.408"/><use xlink:href="#28992028v" x="383.89875" y="68.408"/><g fill-opacity=".33"><use xlink:href="#28992028g" x="266.04125" y="105.816"/><use xlink:href="#28992028h" x="272.70825" y="105.816"/><use xlink:href="#28992028i" x="279.37525" y="105.816"/><use xlink:href="#28992028j" x="286.04225" y="105.816"/><use xlink:href="#28992028k" x="292.70925" y="105.816"/><use xlink:href="#28992028l" x="299.37625" y="105.816"/><use xlink:href="#28992028m" x="306.04325" y="105.816"/><use xlink:href="#28992028k" x="312.71025" y="105.816"/><use xlink:href="#28992028m" x="319.37725" y="105.816"/><use xlink:href="#28992028g" x="326.04425" y="105.816"/><use xlink:href="#28992028n" x="332.71125" y="105.816"/><use xlink:href="#28992028o" x="339.37825" y="105.816"/><use xlink:href="#28992028p" x="346.04525" y="105.816"/><use xlink:href="#28992028l" x="352.71225" y="105.816"/><use xlink:href="#28992028g" x="359.37925" y="105.816"/><use xlink:href="#28992028w" x="366.04625" y="105.816"/><use xlink:href="#28992028j" x="372.71325" y="105.816"/><use xlink:href="#28992028x" x="379.38025" y="105.816"/><use xlink:href="#28992028y" x="386.04725" y="105.816"/><use xlink:href="#28992028p" x="392.71425" y="105.816"/><use xlink:href="#28992028z" x="399.38125" y="105.816"/></g><use xlink:href="#28992028A" x="37.59375" y="178.556"/><use xlink:href="#28992028B" x="65.40375" y="178.556"/><use xlink:href="#28992028C" x="89.56875" y="178.556"/><use xlink:href="#28992028D" x="115.30875" y="178.556"/><use xlink:href="#28992028E" x="137.89875" y="178.556"/><use xlink:href="#28992028F" x="164.94375" y="178.556"/><g fill-opacity=".33"><use xlink:href="#28992028g" x="47.29208" y="215.964"/><use xlink:href="#28992028h" x="53.95908" y="215.964"/><use xlink:href="#28992028i" x="60.62608" y="215.964"/><use xlink:href="#28992028j" x="67.29308" y="215.964"/><use xlink:href="#28992028k" x="73.96008" y="215.964"/><use xlink:href="#28992028l" x="80.62708" y="215.964"/><use xlink:href="#28992028m" x="87.29408" y="215.964"/><use xlink:href="#28992028k" x="93.96108" y="215.964"/><use xlink:href="#28992028m" x="100.62808" y="215.964"/><use xlink:href="#28992028g" x="107.29508" y="215.964"/><use xlink:href="#28992028h" x="113.96208" y="215.964"/><use xlink:href="#28992028i" x="120.62908" y="215.964"/><use xlink:href="#28992028j" x="127.29608" y="215.964"/><use xlink:href="#28992028G" x="133.96308" y="215.964"/><use xlink:href="#28992028x" x="140.63008" y="215.964"/><use xlink:href="#28992028y" x="147.29708" y="215.964"/><use xlink:href="#28992028p" x="153.96408" y="215.964"/><use xlink:href="#28992028H" x="160.63108" y="215.964"/><use xlink:href="#28992028o" x="167.29808" y="215.964"/><use xlink:href="#28992028j" x="173.96508" y="215.964"/></g><use xlink:href="#28992028I" x="264.53625" y="178.556"/><use xlink:href="#28992028J" x="291.17625" y="178.556"/><use xlink:href="#28992028K" x="313.54125" y="178.556"/><use xlink:href="#28992028L" x="337.48125" y="178.556"/><use xlink:href="#28992028M" x="358.40625" y="178.556"/><use xlink:href="#28992028N" x="385.09125" y="178.556"/><g fill-opacity=".33"><use xlink:href="#28992028g" x="246.04125" y="215.964"/><use xlink:href="#28992028h" x="252.70825" y="215.964"/><use xlink:href="#28992028i" x="259.37525" y="215.964"/><use xlink:href="#28992028j" x="266.04225" y="215.964"/><use xlink:href="#28992028k" x="272.70925" y="215.964"/><use xlink:href="#28992028l" x="279.37625" y="215.964"/><use xlink:href="#28992028m" x="286.04325" y="215.964"/><use xlink:href="#28992028k" x="292.71025" y="215.964"/><use xlink:href="#28992028m" x="299.37725" y="215.964"/><use xlink:href="#28992028g" x="306.04425" y="215.964"/><use xlink:href="#28992028h" x="312.71125" y="215.964"/><use xlink:href="#28992028i" x="319.37825" y="215.964"/><use xlink:href="#28992028j" x="326.04525" y="215.964"/><use xlink:href="#28992028G" x="332.71225" y="215.964"/><use xlink:href="#28992028x" x="339.37925" y="215.964"/><use xlink:href="#28992028y" x="346.04625" y="215.964"/><use xlink:href="#28992028p" x="352.71325" y="215.964"/><use xlink:href="#28992028H" x="359.38025" y="215.964"/><use xlink:href="#28992028o" x="366.04725" y="215.964"/><use xlink:href="#28992028j" x="372.71425" y="215.964"/><use xlink:href="#28992028g" x="379.38125" y="215.964"/><use xlink:href="#28992028w" x="386.04825" y="215.964"/><use xlink:href="#28992028j" x="392.71525" y="215.964"/><use xlink:href="#28992028x" x="399.38225" y="215.964"/><use xlink:href="#28992028y" x="406.04925" y="215.964"/><use xlink:href="#28992028p" x="412.71625" y="215.964"/><use xlink:href="#28992028z" x="419.38325" y="215.964"/></g><use xlink:href="#28992028O" x="36.15375" y="288.704"/><use xlink:href="#28992028P" x="64.36875" y="288.704"/><use xlink:href="#28992028Q" x="89.20875" y="288.704"/><use xlink:href="#28992028R" x="115.21875" y="288.704"/><use xlink:href="#28992028S" x="138.34875" y="288.704"/><use xlink:href="#28992028T" x="165.93375" y="288.704"/><g fill-opacity=".33"><use xlink:href="#28992028g" x="63.95875" y="326.112"/><use xlink:href="#28992028h" x="70.62575" y="326.112"/><use xlink:href="#28992028i" x="77.29275" y="326.112"/><use xlink:href="#28992028j" x="83.95975" y="326.112"/><use xlink:href="#28992028k" x="90.62675" y="326.112"/><use xlink:href="#28992028l" x="97.29375" y="326.112"/><use xlink:href="#28992028m" x="103.96075" y="326.112"/><use xlink:href="#28992028k" x="110.62775" y="326.112"/><use xlink:href="#28992028m" x="117.29475" y="326.112"/><use xlink:href="#28992028g" x="123.96175" y="326.112"/><use xlink:href="#28992028U" x="130.62875" y="326.112"/><use xlink:href="#28992028p" x="137.29575" y="326.112"/><use xlink:href="#28992028H" x="143.96275" y="326.112"/><use xlink:href="#28992028o" x="150.62975" y="326.112"/><use xlink:href="#28992028j" x="157.29675" y="326.112"/></g><use xlink:href="#28992028V" x="262.71375" y="288.704"/><use xlink:href="#28992028W" x="289.71375" y="288.704"/><use xlink:href="#28992028X" x="312.88875" y="288.704"/><use xlink:href="#28992028Y" x="337.14375" y="288.704"/><use xlink:href="#28992028Z" x="358.96875" y="288.704"/><use xlink:href="#28992028aa" x="386.32875" y="288.704"/><g fill-opacity=".33"><use xlink:href="#28992028g" x="262.70792" y="326.112"/><use xlink:href="#28992028h" x="269.37492" y="326.112"/><use xlink:href="#28992028i" x="276.04192" y="326.112"/><use xlink:href="#28992028j" x="282.70892" y="326.112"/><use xlink:href="#28992028k" x="289.37592" y="326.112"/><use xlink:href="#28992028l" x="296.04292" y="326.112"/><use xlink:href="#28992028m" x="302.70992" y="326.112"/><use xlink:href="#28992028k" x="309.37692" y="326.112"/><use xlink:href="#28992028m" x="316.04392" y="326.112"/><use xlink:href="#28992028g" x="322.71092" y="326.112"/><use xlink:href="#28992028U" x="329.37792" y="326.112"/><use xlink:href="#28992028p" x="336.04492" y="326.112"/><use xlink:href="#28992028H" x="342.71192" y="326.112"/><use xlink:href="#28992028o" x="349.37892" y="326.112"/><use xlink:href="#28992028j" x="356.04592" y="326.112"/><use xlink:href="#28992028g" x="362.71292" y="326.112"/><use xlink:href="#28992028w" x="369.37992" y="326.112"/><use xlink:href="#28992028j" x="376.04692" y="326.112"/><use xlink:href="#28992028x" x="382.71392" y="326.112"/><use xlink:href="#28992028y" x="389.38092" y="326.112"/><use xlink:href="#28992028p" x="396.04792" y="326.112"/><use xlink:href="#28992028z" x="402.71492" y="326.112"/></g><g><use xlink:href="#28992028ab" x="35.07375" y="398.852"/><use xlink:href="#28992028ac" x="63.55875" y="398.852"/><use xlink:href="#28992028ad" x="88.93875" y="398.852"/><use xlink:href="#28992028ae" x="115.12875" y="398.852"/><use xlink:href="#28992028af" x="138.66375" y="398.852"/><use xlink:href="#28992028ag" x="166.65375" y="398.852"/></g><g fill-opacity=".33"><use xlink:href="#28992028g" x="57.29208" y="436.26"/><use xlink:href="#28992028h" x="63.95908" y="436.26"/><use xlink:href="#28992028i" x="70.62608" y="436.26"/><use xlink:href="#28992028j" x="77.29308" y="436.26"/><use xlink:href="#28992028k" x="83.96008" y="436.26"/><use xlink:href="#28992028l" x="90.62708" y="436.26"/><use xlink:href="#28992028m" x="97.29408" y="436.26"/><use xlink:href="#28992028k" x="103.96108" y="436.26"/><use xlink:href="#28992028m" x="110.62808" y="436.26"/><use xlink:href="#28992028g" x="117.29508" y="436.26"/><use xlink:href="#28992028ah" x="123.96208" y="436.26"/><use xlink:href="#28992028k" x="130.62908" y="436.26"/><use xlink:href="#28992028H" x="137.29608" y="436.26"/><use xlink:href="#28992028ai" x="143.96308" y="436.26"/><use xlink:href="#28992028y" x="150.63008" y="436.26"/><use xlink:href="#28992028x" x="157.29708" y="436.26"/><use xlink:href="#28992028G" x="163.96408" y="436.26"/></g><g><use xlink:href="#28992028aj" x="261.31875" y="398.852"/><use xlink:href="#28992028ak" x="288.63375" y="398.852"/><use xlink:href="#28992028al" x="312.39375" y="398.852"/><use xlink:href="#28992028am" x="336.87375" y="398.852"/><use xlink:href="#28992028an" x="359.37375" y="398.852"/><use xlink:href="#28992028ao" x="387.22875" y="398.852"/></g><g fill-opacity=".33"><use xlink:href="#28992028g" x="282.70792" y="436.26"/><use xlink:href="#28992028h" x="289.37492" y="436.26"/><use xlink:href="#28992028i" x="296.04192" y="436.26"/><use xlink:href="#28992028j" x="302.70892" y="436.26"/><use xlink:href="#28992028k" x="309.37592" y="436.26"/><use xlink:href="#28992028l" x="316.04292" y="436.26"/><use xlink:href="#28992028m" x="322.70992" y="436.26"/><use xlink:href="#28992028k" x="329.37692" y="436.26"/><use xlink:href="#28992028m" x="336.04392" y="436.26"/><use xlink:href="#28992028g" x="342.71092" y="436.26"/><use xlink:href="#28992028w" x="349.37792" y="436.26"/><use xlink:href="#28992028j" x="356.04492" y="436.26"/><use xlink:href="#28992028x" x="362.71192" y="436.26"/><use xlink:href="#28992028y" x="369.37892" y="436.26"/><use xlink:href="#28992028p" x="376.04592" y="436.26"/><use xlink:href="#28992028z" x="382.71292" y="436.26"/></g><g><use xlink:href="#28992028ap" x="33.92625" y="509"/><use xlink:href="#28992028aq" x="62.72625" y="509"/><use xlink:href="#28992028ar" x="88.69125" y="509"/><use xlink:href="#28992028as" x="115.06125" y="509"/><use xlink:href="#28992028at" x="139.00125" y="509"/><use xlink:href="#28992028au" x="167.44125" y="509"/></g><g fill-opacity=".33"><use xlink:href="#28992028g" x="60.62542" y="546.408"/><use xlink:href="#28992028h" x="67.29242" y="546.408"/><use xlink:href="#28992028i" x="73.95942" y="546.408"/><use xlink:href="#28992028j" x="80.62642" y="546.408"/><use xlink:href="#28992028k" x="87.29342" y="546.408"/><use xlink:href="#28992028l" x="93.96042" y="546.408"/><use xlink:href="#28992028m" x="100.62742" y="546.408"/><use xlink:href="#28992028k" x="107.29442" y="546.408"/><use xlink:href="#28992028m" x="113.96142" y="546.408"/><use xlink:href="#28992028g" x="120.62842" y="546.408"/><use xlink:href="#28992028av" x="127.29542" y="546.408"/><use xlink:href="#28992028k" x="133.96242" y="546.408"/><use xlink:href="#28992028m" x="140.62942" y="546.408"/><use xlink:href="#28992028p" x="147.29642" y="546.408"/><use xlink:href="#28992028ai" x="153.96342" y="546.408"/><use xlink:href="#28992028aw" x="160.63042" y="546.408"/></g><g><use xlink:href="#28992028ax" x="259.85625" y="509"/><use xlink:href="#28992028ay" x="287.48625" y="509"/><use xlink:href="#28992028az" x="311.92125" y="509"/><use xlink:href="#28992028aA" x="336.62625" y="509"/><use xlink:href="#28992028aB" x="359.84625" y="509"/><use xlink:href="#28992028aC" x="388.19625" y="509"/></g><g fill-opacity=".33"><use xlink:href="#28992028g" x="259.37458" y="546.408"/><use xlink:href="#28992028h" x="266.04158" y="546.408"/><use xlink:href="#28992028i" x="272.70858" y="546.408"/><use xlink:href="#28992028j" x="279.37558" y="546.408"/><use xlink:href="#28992028k" x="286.04258" y="546.408"/><use xlink:href="#28992028l" x="292.70958" y="546.408"/><use xlink:href="#28992028m" x="299.37658" y="546.408"/><use xlink:href="#28992028k" x="306.04358" y="546.408"/><use xlink:href="#28992028m" x="312.71058" y="546.408"/><use xlink:href="#28992028g" x="319.37758" y="546.408"/><use xlink:href="#28992028av" x="326.04458" y="546.408"/><use xlink:href="#28992028k" x="332.71158" y="546.408"/><use xlink:href="#28992028m" x="339.37858" y="546.408"/><use xlink:href="#28992028p" x="346.04558" y="546.408"/><use xlink:href="#28992028ai" x="352.71258" y="546.408"/><use xlink:href="#28992028aw" x="359.37958" y="546.408"/><use xlink:href="#28992028g" x="366.04658" y="546.408"/><use xlink:href="#28992028w" x="372.71358" y="546.408"/><use xlink:href="#28992028j" x="379.38058" y="546.408"/><use xlink:href="#28992028x" x="386.04758" y="546.408"/><use xlink:href="#28992028y" x="392.71458" y="546.408"/><use xlink:href="#28992028p" x="399.38158" y="546.408"/><use xlink:href="#28992028z" x="406.04858" y="546.408"/></g><g><use xlink:href="#28992028aD" x="32.59875" y="619.148"/><use xlink:href="#28992028aE" x="61.75875" y="619.148"/><use xlink:href="#28992028aF" x="88.35375" y="619.148"/><use xlink:href="#28992028aG" x="114.94875" y="619.148"/><use xlink:href="#28992028aH" x="139.38375" y="619.148"/><use xlink:href="#28992028aI" x="168.31875" y="619.148"/></g><g fill-opacity=".33"><use xlink:href="#28992028g" x="53.95875" y="656.556"/><use xlink:href="#28992028h" x="60.62575" y="656.556"/><use xlink:href="#28992028i" x="67.29275" y="656.556"/><use xlink:href="#28992028j" x="73.95975" y="656.556"/><use xlink:href="#28992028k" x="80.62675" y="656.556"/><use xlink:href="#28992028l" x="87.29375" y="656.556"/><use xlink:href="#28992028m" x="93.96075" y="656.556"/><use xlink:href="#28992028k" x="100.62775" y="656.556"/><use xlink:href="#28992028m" x="107.29475" y="656.556"/><use xlink:href="#28992028g" x="113.96175" y="656.556"/><use xlink:href="#28992028aJ" x="120.62875" y="656.556"/><use xlink:href="#28992028k" x="127.29575" y="656.556"/><use xlink:href="#28992028aw" x="133.96275" y="656.556"/><use xlink:href="#28992028p" x="140.62975" y="656.556"/><use xlink:href="#28992028aK" x="147.29675" y="656.556"/><use xlink:href="#28992028aL" x="153.96375" y="656.556"/><use xlink:href="#28992028y" x="160.63075" y="656.556"/><use xlink:href="#28992028m" x="167.29775" y="656.556"/></g><g><use xlink:href="#28992028aM" x="258.16875" y="619.148"/><use xlink:href="#28992028aN" x="286.15875" y="619.148"/><use xlink:href="#28992028aO" x="311.31375" y="619.148"/><use xlink:href="#28992028aP" x="336.28875" y="619.148"/><use xlink:href="#28992028aQ" x="360.36375" y="619.148"/><use xlink:href="#28992028aR" x="389.34375" y="619.148"/></g><g fill-opacity=".33"><use xlink:href="#28992028g" x="252.70792" y="656.556"/><use xlink:href="#28992028h" x="259.37492" y="656.556"/><use xlink:href="#28992028i" x="266.04192" y="656.556"/><use xlink:href="#28992028j" x="272.70892" y="656.556"/><use xlink:href="#28992028k" x="279.37592" y="656.556"/><use xlink:href="#28992028l" x="286.04292" y="656.556"/><use xlink:href="#28992028m" x="292.70992" y="656.556"/><use xlink:href="#28992028k" x="299.37692" y="656.556"/><use xlink:href="#28992028m" x="306.04392" y="656.556"/><use xlink:href="#28992028g" x="312.71092" y="656.556"/><use xlink:href="#28992028aJ" x="319.37792" y="656.556"/><use xlink:href="#28992028k" x="326.04492" y="656.556"/><use xlink:href="#28992028aw" x="332.71192" y="656.556"/><use xlink:href="#28992028p" x="339.37892" y="656.556"/><use xlink:href="#28992028aK" x="346.04592" y="656.556"/><use xlink:href="#28992028aL" x="352.71292" y="656.556"/><use xlink:href="#28992028y" x="359.37992" y="656.556"/><use xlink:href="#28992028m" x="366.04692" y="656.556"/><use xlink:href="#28992028g" x="372.71392" y="656.556"/><use xlink:href="#28992028w" x="379.38092" y="656.556"/><use xlink:href="#28992028j" x="386.04792" y="656.556"/><use xlink:href="#28992028x" x="392.71492" y="656.556"/><use xlink:href="#28992028y" x="399.38192" y="656.556"/><use xlink:href="#28992028p" x="406.04892" y="656.556"/><use xlink:href="#28992028z" x="412.71592" y="656.556"/></g><g><use xlink:href="#28992028aS" x="31.02375" y="729.296"/><use xlink:href="#28992028aT" x="60.13875" y="729.296"/><use xlink:href="#28992028aU" x="87.58875" y="729.296"/><use xlink:href="#28992028aV" x="114.67875" y="729.296"/><use xlink:href="#28992028aW" x="140.01375" y="729.296"/><use xlink:href="#28992028aX" x="169.44375" y="729.296"/></g><g fill-opacity=".33"><use xlink:href="#28992028g" x="67.29208" y="766.704"/><use xlink:href="#28992028h" x="73.95908" y="766.704"/><use xlink:href="#28992028i" x="80.62608" y="766.704"/><use xlink:href="#28992028j" x="87.29308" y="766.704"/><use xlink:href="#28992028k" x="93.96008" y="766.704"/><use xlink:href="#28992028l" x="100.62708" y="766.704"/><use xlink:href="#28992028m" x="107.29408" y="766.704"/><use xlink:href="#28992028k" x="113.96108" y="766.704"/><use xlink:href="#28992028m" x="120.62808" y="766.704"/><use xlink:href="#28992028g" x="127.29508" y="766.704"/><use xlink:href="#28992028aY" x="133.96208" y="766.704"/><use xlink:href="#28992028aL" x="140.62908" y="766.704"/><use xlink:href="#28992028y" x="147.29608" y="766.704"/><use xlink:href="#28992028m" x="153.96308" y="766.704"/></g><g><use xlink:href="#28992028aZ" x="256.36875" y="729.296"/><use xlink:href="#28992028ba" x="284.40375" y="729.296"/><use xlink:href="#28992028bb" x="310.50375" y="729.296"/><use xlink:href="#28992028bc" x="336.10875" y="729.296"/><use xlink:href="#28992028bd" x="361.08375" y="729.296"/><use xlink:href="#28992028be" x="390.37875" y="729.296"/></g><g fill-opacity=".33"><use xlink:href="#28992028g" x="266.04125" y="766.704"/><use xlink:href="#28992028h" x="272.70825" y="766.704"/><use xlink:href="#28992028i" x="279.37525" y="766.704"/><use xlink:href="#28992028j" x="286.04225" y="766.704"/><use xlink:href="#28992028k" x="292.70925" y="766.704"/><use xlink:href="#28992028l" x="299.37625" y="766.704"/><use xlink:href="#28992028m" x="306.04325" y="766.704"/><use xlink:href="#28992028k" x="312.71025" y="766.704"/><use xlink:href="#28992028m" x="319.37725" y="766.704"/><use xlink:href="#28992028g" x="326.04425" y="766.704"/><use xlink:href="#28992028aY" x="332.71125" y="766.704"/><use xlink:href="#28992028aL" x="339.37825" y="766.704"/><use xlink:href="#28992028y" x="346.04525" y="766.704"/><use xlink:href="#28992028m" x="352.71225" y="766.704"/><use xlink:href="#28992028g" x="359.37925" y="766.704"/><use xlink:href="#28992028w" x="366.04625" y="766.704"/><use xlink:href="#28992028j" x="372.71325" y="766.704"/><use xlink:href="#28992028x" x="379.38025" y="766.704"/><use xlink:href="#28992028y" x="386.04725" y="766.704"/><use xlink:href="#28992028p" x="392.71425" y="766.704"/><use xlink:href="#28992028z" x="399.38125" y="766.704"/></g><g><use xlink:href="#28992028bf" x="28.12125" y="839.444"/><use xlink:href="#28992028bg" x="57.19125" y="839.444"/><use xlink:href="#28992028bh" x="86.17125" y="839.444"/><use xlink:href="#28992028bi" x="114.16125" y="839.444"/><use xlink:href="#28992028bj" x="141.11625" y="839.444"/><use xlink:href="#28992028bk" x="171.53625" y="839.444"/></g><g fill-opacity=".33"><use xlink:href="#28992028g" x="50.62542" y="876.852"/><use xlink:href="#28992028h" x="57.29242" y="876.852"/><use xlink:href="#28992028i" x="63.95942" y="876.852"/><use xlink:href="#28992028j" x="70.62642" y="876.852"/><use xlink:href="#28992028k" x="77.29342" y="876.852"/><use xlink:href="#28992028l" x="83.96042" y="876.852"/><use xlink:href="#28992028m" x="90.62742" y="876.852"/><use xlink:href="#28992028k" x="97.29442" y="876.852"/><use xlink:href="#28992028m" x="103.96142" y="876.852"/><use xlink:href="#28992028g" x="110.62842" y="876.852"/><use xlink:href="#28992028h" x="117.29542" y="876.852"/><use xlink:href="#28992028i" x="123.96242" y="876.852"/><use xlink:href="#28992028j" x="130.62942" y="876.852"/><use xlink:href="#28992028G" x="137.29642" y="876.852"/><use xlink:href="#28992028x" x="143.96342" y="876.852"/><use xlink:href="#28992028aK" x="150.63042" y="876.852"/><use xlink:href="#28992028aL" x="157.29742" y="876.852"/><use xlink:href="#28992028y" x="163.96442" y="876.852"/><use xlink:href="#28992028m" x="170.63142" y="876.852"/></g><g><use xlink:href="#28992028bl" x="253.08375" y="839.444"/><use xlink:href="#28992028bm" x="281.16375" y="839.444"/><use xlink:href="#28992028bn" x="309.01875" y="839.444"/><use xlink:href="#28992028bo" x="335.70375" y="839.444"/><use xlink:href="#28992028bp" x="362.29875" y="839.444"/><use xlink:href="#28992028bq" x="392.17875" y="839.444"/></g><g fill-opacity=".33"><use xlink:href="#28992028g" x="249.37458" y="876.852"/><use xlink:href="#28992028h" x="256.04158" y="876.852"/><use xlink:href="#28992028i" x="262.70858" y="876.852"/><use xlink:href="#28992028j" x="269.37558" y="876.852"/><use xlink:href="#28992028k" x="276.04258" y="876.852"/><use xlink:href="#28992028l" x="282.70958" y="876.852"/><use xlink:href="#28992028m" x="289.37658" y="876.852"/><use xlink:href="#28992028k" x="296.04358" y="876.852"/><use xlink:href="#28992028m" x="302.71058" y="876.852"/><use xlink:href="#28992028g" x="309.37758" y="876.852"/><use xlink:href="#28992028h" x="316.04458" y="876.852"/><use xlink:href="#28992028i" x="322.71158" y="876.852"/><use xlink:href="#28992028j" x="329.37858" y="876.852"/><use xlink:href="#28992028G" x="336.04558" y="876.852"/><use xlink:href="#28992028x" x="342.71258" y="876.852"/><use xlink:href="#28992028aK" x="349.37958" y="876.852"/><use xlink:href="#28992028aL" x="356.04658" y="876.852"/><use xlink:href="#28992028y" x="362.71358" y="876.852"/><use xlink:href="#28992028m" x="369.38058" y="876.852"/><use xlink:href="#28992028g" x="376.04758" y="876.852"/><use xlink:href="#28992028w" x="382.71458" y="876.852"/><use xlink:href="#28992028j" x="389.38158" y="876.852"/><use xlink:href="#28992028x" x="396.04858" y="876.852"/><use xlink:href="#28992028y" x="402.71558" y="876.852"/><use xlink:href="#28992028p" x="409.38258" y="876.852"/><use xlink:href="#28992028z" x="416.04958" y="876.852"/></g><g><use xlink:href="#28992028br" x="24.85875" y="949.592"/><use xlink:href="#28992028bs" x="53.83875" y="949.592"/><use xlink:href="#28992028bt" x="84.57375" y="949.592"/><use xlink:href="#28992028bu" x="113.59875" y="949.592"/><use xlink:href="#28992028bv" x="142.39875" y="949.592"/><use xlink:href="#28992028bw" x="173.85375" y="949.592"/></g><g fill-opacity=".33"><use xlink:href="#28992028g" x="63.95875" y="987"/><use xlink:href="#28992028h" x="70.62575" y="987"/><use xlink:href="#28992028i" x="77.29275" y="987"/><use xlink:href="#28992028j" x="83.95975" y="987"/><use xlink:href="#28992028k" x="90.62675" y="987"/><use xlink:href="#28992028l" x="97.29375" y="987"/><use xlink:href="#28992028m" x="103.96075" y="987"/><use xlink:href="#28992028k" x="110.62775" y="987"/><use xlink:href="#28992028m" x="117.29475" y="987"/><use xlink:href="#28992028g" x="123.96175" y="987"/><use xlink:href="#28992028aY" x="130.62875" y="987"/><use xlink:href="#28992028y" x="137.29575" y="987"/><use xlink:href="#28992028x" x="143.96275" y="987"/><use xlink:href="#28992028z" x="150.62975" y="987"/><use xlink:href="#28992028bx" x="157.29675" y="987"/></g><g><use xlink:href="#28992028by" x="249.37125" y="949.592"/><use xlink:href="#28992028bz" x="277.49625" y="949.592"/><use xlink:href="#28992028bA" x="307.33125" y="949.592"/><use xlink:href="#28992028bB" x="335.32125" y="949.592"/><use xlink:href="#28992028bC" x="363.76125" y="949.592"/><use xlink:href="#28992028bD" x="394.27125" y="949.592"/></g><g fill-opacity=".33"><use xlink:href="#28992028g" x="262.70792" y="987"/><use xlink:href="#28992028h" x="269.37492" y="987"/><use xlink:href="#28992028i" x="276.04192" y="987"/><use xlink:href="#28992028j" x="282.70892" y="987"/><use xlink:href="#28992028k" x="289.37592" y="987"/><use xlink:href="#28992028l" x="296.04292" y="987"/><use xlink:href="#28992028m" x="302.70992" y="987"/><use xlink:href="#28992028k" x="309.37692" y="987"/><use xlink:href="#28992028m" x="316.04392" y="987"/><use xlink:href="#28992028g" x="322.71092" y="987"/><use xlink:href="#28992028aY" x="329.37792" y="987"/><use xlink:href="#28992028y" x="336.04492" y="987"/><use xlink:href="#28992028x" x="342.71192" y="987"/><use xlink:href="#28992028z" x="349.37892" y="987"/><use xlink:href="#28992028bx" x="356.04592" y="987"/><use xlink:href="#28992028g" x="362.71292" y="987"/><use xlink:href="#28992028w" x="369.37992" y="987"/><use xlink:href="#28992028j" x="376.04692" y="987"/><use xlink:href="#28992028x" x="382.71392" y="987"/><use xlink:href="#28992028y" x="389.38092" y="987"/><use xlink:href="#28992028p" x="396.04792" y="987"/><use xlink:href="#28992028z" x="402.71492" y="987"/></g></svg>