<?xml version='1.0' encoding='UTF-8'?>
<svg xmlns="http://www.w3.org/2000/svg" xmlns:xlink="http://www.w3.org/1999/xlink" width="600px" height="300px" viewBox="0 0 600 300" x="0px" y="0px" enable-background="new 0 0 600 300"><defs><symbol overflow="visible" id="1fd5fa72a"><path d="M3.36-13.27C3.36-.72 12.3 6.55 22.38 6.6c4.56 0 8.53-1.25 10.68-2.57l-1.33-2.88a22.13 22.13 0 01-9.1 1.92C14.8 3 7.5-2.45 7.5-13.44c0-10.92 6.13-18.12 17.16-18.12 9.48.06 14.93 5.87 14.93 13.98 0 7.2-2.68 10.31-6.95 10.86a66.62 66.62 0 01-.23-5.05v-5.57c0-1.57.04-3.47.17-5.04l.19-3-3.13-.42-.55 1.44a11.08 11.08 0 00-6.04-1.69c-6.55 0-9.61 6.07-9.61 11.64 0 6.97 3.36 11.47 8.58 11.47 2.57 0 4.86-1.2 6.84-3.3l.78 3c6 .12 14.1-2.34 14.1-14.53 0-10.01-7.15-17.28-18.83-17.32-13.5-.07-21.55 8.93-21.55 21.82zm14.22-1.37c0-3.3.84-4.92 2.22-6.48a5.39 5.39 0 013.9-1.57c1.61 0 3.18.42 4.68 1.27V-9.2c-1.86 1.75-3.83 2.77-5.52 2.77-3.42 0-5.28-3.13-5.28-8.22zm0 0"/></symbol><symbol overflow="visible" id="1fd5fa72b"><path d="M5.34-32.77V-.12C8.22.3 12.6.66 16.02.66c9.67 0 14.53-3.9 14.53-10.02 0-4.33-2.77-7.2-7.27-8.16 3.66-1.5 5.45-4.26 5.45-7.75 0-5.39-4.96-8.21-13.18-8.21-3.32 0-7.4.42-10.2.71zm18.6 8.41a4.8 4.8 0 01-2.75 4.44 12.6 12.6 0 01-5.47 1.01c-1.63 0-3.6 0-5.77-.04v-10.2c1.82-.2 3.9-.3 5.6-.3 5.26 0 8.39 1.25 8.39 5.1zm-7.8 9.17c6.9 0 9.6 2.05 9.6 5.83 0 2.1-1.15 3.78-3 4.73-1.61.85-3.79 1.27-6.47 1.27a84.7 84.7 0 01-6.32-.3v-11.46c2.11-.07 4.75-.07 6.2-.07zm0 0"/></symbol><symbol overflow="visible" id="1fd5fa72c"><path d="M19.2-33l-5.15.13-11.77 30A22.5 22.5 0 001.27 0H6l3.23-8.64h14.35L26.64 0h4.73c-.17-.84-.53-1.8-1.01-3zm-2.7 5.1h.19l2.58 7.13 2.93 8.18H10.73zm0 0"/></symbol><symbol overflow="visible" id="1fd5fa72d"><path d="M10.08-32.88H5.34V0h4.74v-11.22l4.69-4.56L26.64 0h5.05c-.38-.9-.9-1.73-2.05-3.3L18-18.84l12.36-12c.72-.66 1.2-1.44 1.2-2.04h-5.15L10.14-16.8h-.06zm0 0"/></symbol><symbol overflow="visible" id="1fd5fa72e"><path d="M27.55-4.02H10.02v-10.8h14.17v-4.02H10.02v-10.02h17.46l.18-4.02H5.34V0h22.38zm0 0"/></symbol><symbol overflow="visible" id="1fd5fa72f"><path d="M5.34-32.7V0h4.74v-12.84c1.37.12 3 .18 4.08.18 1.14 0 2.21-.06 3.25-.18L25.3 0h4.88c-.25-.72-.74-1.63-1.4-2.7l-7-11.16c4.85-1.69 7.55-5.16 7.55-9.72 0-6.36-5.21-9.9-14.4-9.9-3.24 0-6.85.25-9.6.78zm9.6 3.42c6.12 0 9.54 1.92 9.54 6A5.56 5.56 0 0121-18c-1.8.9-4.2 1.27-6.9 1.27-1.32 0-2.7-.07-4.02-.13v-12.12c1.73-.18 3.48-.3 4.86-.3zm0 0"/></symbol><symbol overflow="visible" id="1fd5fa72g"><path d="M3.78-24.55c0 5.6 5.16 7.99 10.02 9.61 4.43 1.38 8.93 2.64 8.93 6.42 0 3.54-3.36 5.1-7.73 5.1-3.6 0-7.63-1.14-10.5-2.7L2.7-2.58C5.52-.72 10.08.78 14.7.78c7.14 0 12.9-3 12.9-9.48 0-6.18-5.58-8.22-11.04-10.02-4.14-1.33-7.92-2.7-7.92-6 0-3.48 3.6-4.73 7.63-4.73 2.87 0 6.3.72 8.68 1.73l1.63-3.6a22 22 0 00-10.08-2.34c-7.31 0-12.72 3.11-12.72 9.11zm0 0"/></symbol><symbol overflow="visible" id="1fd5fa72h"><path d="M30-32.88H1.62l.18 4.08h11.64V0h4.75v-28.8h11.68zm0 0"/></symbol><symbol overflow="visible" id="1fd5fa72i"><path d="M3.95-2.58C3.95-.59 5.28.78 7.27.78c2.09 0 3.42-1.5 3.42-3.66 0-1.92-1.27-3.25-3.25-3.25-2.1 0-3.49 1.44-3.49 3.55zm0 0"/></symbol><symbol overflow="visible" id="1fd5fa72k"><path d="M3.42-16.14c0 10.8 4.38 19.37 10.31 26.22l3.13-2.46C11.52.84 8.28-6.54 8.28-16.14c.13-9.6 3.24-17.05 8.58-23.81l-3.13-2.47c-5.87 6.84-10.3 15.48-10.3 26.28zm0 0"/></symbol><symbol overflow="visible" id="1fd5fa72l"><path d="M22.63-3.95h-6v-28.99l-3.79-.12-9.42 3.3 1.08 3.6 7.44-2.1v24.3h-8.4V0H22.8zm0 0"/></symbol><symbol overflow="visible" id="1fd5fa72m"><path d="M4.86-25.31c0 3.53 2.58 6.04 5.7 7.8-4.14 2.45-7.14 5.45-7.14 9.59C3.36-2.22 8.41.66 15.6.66c6.55 0 12.25-3 12.25-9.18 0-4.07-3.3-6.54-6.9-8.46 3.18-2.29 5.47-4.97 5.47-8.52 0-4.92-4.2-8.05-10.4-8.05-6.42 0-11.15 3.13-11.15 8.24zm4.69-.19c0-1.5.82-2.52 2.03-3.19a8.9 8.9 0 014.33-.95c3.71 0 5.8 1.86 5.8 4.56 0 2.58-1.85 4.67-4.13 6.36C12.72-21 9.55-22.5 9.55-25.5zM8.09-8.28c0-2.81 2.6-5.45 5.96-7.5 5.64 2.64 9.1 4.33 9.1 7.5 0 1.8-.84 3.06-2.21 3.9-1.32.79-3.13 1.08-5.28 1.08-4.5 0-7.57-1.56-7.57-4.98zm0 0"/></symbol><symbol overflow="visible" id="1fd5fa72n"><path d="M5.28-42.42l-3.12 2.47c5.34 6.76 8.46 14.22 8.57 23.8 0 9.6-3.23 17-8.57 23.77l3.12 2.46C11.22 3.23 15.6-5.34 15.6-16.14c0-10.8-4.43-19.44-10.3-26.28zm0 0"/></symbol><symbol overflow="visible" id="1fd5fa72o"><path d="M10.5-32.88H5.52L6-8.8h3.95zM4.8-2.09C4.8-.36 6.06.78 7.86.78c1.92 0 3.19-1.2 3.19-3.12 0-1.61-1.2-2.75-3-2.75-1.86 0-3.25 1.18-3.25 3zm0 0"/></symbol><symbol overflow="visible" id="1fd5fa72p"><path d="M3.83 0v-5.95H6.2v-.82H.45v.82h2.4V0zm0 0"/></symbol><symbol overflow="visible" id="1fd5fa72q"><path d="M5.75-2.23v-.43c0-1.6-.9-2.51-2.42-2.51S.87-4.16.87-2.48c0 1.71.91 2.62 2.5 2.62 1.43 0 2.07-.56 2.29-1.52l-.9-.09c-.18.61-.59.9-1.35.9-.94 0-1.52-.54-1.58-1.66zm-2.4-2.2c.93 0 1.43.5 1.48 1.55H1.84c.08-1.07.6-1.56 1.5-1.56zm0 0"/></symbol><symbol overflow="visible" id="1fd5fa72r"><path d="M1.83 0l1.42-2h.06l1.46 2H5.8L4-2.53l1.78-2.49H4.8L3.42-3.08h-.08l-1.4-1.94H.89l1.78 2.49L.84 0zm0 0"/></symbol><symbol overflow="visible" id="1fd5fa72s"><path d="M5.52-4.25v-.77H3.17v-1.56h-.81l-.14 1.56H.75v.77h1.47v2.4c0 1.3.48 1.94 1.84 1.94C4.6.1 5.14 0 5.55-.14L5.4-.91c-.32.13-.72.2-1.13.2-.8 0-1.1-.37-1.1-1.23v-2.31zm0 0"/></symbol><symbol overflow="visible" id="1fd5fa72t"><path d="M3.33-3.42c.47 0 .8-.27.8-.8 0-.51-.33-.8-.8-.8-.47 0-.8.29-.8.8 0 .53.33.8.8.8zm0 3.5c.47 0 .8-.27.8-.78 0-.53-.33-.82-.8-.82-.47 0-.8.29-.8.82 0 .51.33.78.8.78zm0 0"/></symbol><symbol overflow="visible" id="1fd5fa72v"><path d="M5.42-3.63c-.15-.43-.51-.75-1.19-.75-.98 0-1.54.66-1.54 1.83 0 1.13.6 1.85 1.72 1.85 1.07 0 1.75-.61 1.75-1.93v-.65c0-2.06-.72-3.13-2.66-3.13C1.47-6.4.64-5.08.64-3.14v.94c0 2.06.92 3.26 3.22 3.26.6 0 1.22-.12 1.58-.28L5.3.25C4.94.41 4.42.5 3.86.5 1.96.5 1.3-.44 1.3-2.2v-.94c0-1.53.51-2.69 2.2-2.69 1.56 0 2.05.86 2.05 2.2zm-.98 2.35c-.69 0-1.02-.42-1.02-1.27 0-.86.33-1.23.99-1.23.7 0 1.01.44 1.01 1.22 0 .9-.36 1.28-.98 1.28zm0 0"/></symbol><symbol overflow="visible" id="1fd5fa72w"><path d="M4.66-3.45c.76-.14 1.15-.67 1.15-1.57 0-1.07-.64-1.75-2.18-1.75H.92V0h2.71C5.2 0 5.98-.64 5.98-1.77c0-1.03-.56-1.43-1.32-1.59zM3.56-6c.9 0 1.31.4 1.31 1.13 0 .71-.4 1.14-1.3 1.14h-1.7V-6zM1.87-.75v-2.27H3.6c.97 0 1.44.33 1.44 1.13 0 .8-.47 1.14-1.44 1.14zm0 0"/></symbol><symbol overflow="visible" id="1fd5fa72x"><path d="M2.83.14c.94 0 1.5-.39 1.81-.95h.08l.1.81h.76v-3.38c0-1.23-.69-1.8-2.13-1.8-1.43 0-2.03.65-2.18 1.6l.93.1c.11-.6.44-.93 1.22-.93.85 0 1.22.32 1.22 1.04v.34l-1.81.2C1.6-2.7 1.1-2.17 1.1-1.28c0 .92.64 1.42 1.72 1.42zm.25-.77c-.67 0-1.02-.28-1.02-.74 0-.44.28-.72 1-.82l1.58-.19v.41c0 .8-.6 1.34-1.56 1.34zm0 0"/></symbol><symbol overflow="visible" id="1fd5fa72y"><path d="M5.77-5.02H4.63L2.3-2.88h-.06v-4.26h-.94V0h.94v-2.31h.06L4.71 0h1.24L3.23-2.69zm0 0"/></symbol><symbol overflow="visible" id="1fd5fa72z"><path d="M5.08-5.16c-.94 0-1.58.43-1.9 1.3h-.09l-.07-1.16H1.05v.77h1.1v3.48H.96V0h3.96v-.77H3.1v-1.46c0-1.36.6-2.05 1.83-2.05.4 0 .76.08 1.1.17l.15-.87c-.33-.11-.7-.18-1.11-.18zm0 0"/></symbol><symbol overflow="visible" id="1fd5fa72A"><path d="M3.42.14c1.61 0 2.56-.75 2.56-2 0-1.1-.67-1.6-1.95-1.86l-.97-.2c-.87-.17-1.23-.49-1.23-1.11 0-.7.54-1.11 1.5-1.11 1.06 0 1.51.34 1.69 1.23l.9-.09c-.17-1.28-.98-1.9-2.6-1.9C1.79-6.9.9-6.18.9-4.98c0 1.06.66 1.66 1.88 1.9l1.01.2c.85.17 1.25.4 1.25 1.09 0 .73-.6 1.16-1.6 1.16-1.07 0-1.66-.4-1.8-1.24l-.94.1C.83-.53 1.75.13 3.42.13zm0 0"/></symbol><symbol overflow="visible" id="1fd5fa72B"><path d="M3.33.08c.51 0 .83-.27.83-.81 0-.57-.32-.82-.83-.82-.52 0-.81.25-.81.82 0 .54.3.8.8.8zm0 0"/></symbol><symbol overflow="visible" id="1fd5fa72C"><path d="M1.45-2.95c0 2.56 1.08 4.37 3.67 4.84l.11-.67C3.28.86 2.43-.75 2.43-2.95s.85-3.82 2.8-4.16l-.1-.69c-2.6.49-3.68 2.3-3.68 4.85zm0 0"/></symbol><symbol overflow="visible" id="1fd5fa72D"><path d="M4.22-6.77h-.86l-2.03.7v.87c.64-.17 1.26-.38 1.89-.55v4.9H1.03V0h4.9v-.86H4.21zm0 0"/></symbol><symbol overflow="visible" id="1fd5fa72E"><path d="M3.33.16c1.69 0 2.69-.74 2.69-1.94 0-1.05-.8-1.58-1.43-1.72v-.05c.5-.14 1.2-.58 1.2-1.56 0-1.12-.95-1.81-2.46-1.81-1.52 0-2.46.69-2.46 1.81 0 .97.68 1.4 1.18 1.56v.05c-.6.14-1.4.64-1.4 1.72 0 1.2 1 1.94 2.68 1.94zm0-4.04c-.97 0-1.49-.43-1.49-1.12 0-.78.52-1.1 1.49-1.1.95 0 1.48.32 1.48 1.1 0 .69-.53 1.13-1.48 1.13zm0 3.24c-1.1 0-1.7-.42-1.7-1.25 0-.78.6-1.2 1.7-1.2s1.7.42 1.7 1.2c0 .83-.6 1.25-1.7 1.25zm0 0"/></symbol><symbol overflow="visible" id="1fd5fa72F"><path d="M1.45-7.1c1.96.33 2.8 1.94 2.8 4.15 0 2.2-.84 3.8-2.8 4.17l.11.67c2.58-.47 3.67-2.28 3.67-4.84 0-2.55-1.09-4.36-3.67-4.85zm0 0"/></symbol><symbol overflow="visible" id="1fd5fa72G"><path d="M3.72-1.77l.1-2.56v-2.81h-.96v2.81l.08 2.56zM3.32.08c.37 0 .6-.2.6-.58 0-.38-.23-.58-.6-.58-.35 0-.57.2-.57.58 0 .38.22.58.58.58zm0 0"/></symbol><symbol overflow="visible" id="1fd5fa72H"><path d="M5.95-6.77H1.1V0h.99v-2.92H5.3v-.77H2.08v-2.26h3.87zm0 0"/></symbol><symbol overflow="visible" id="1fd5fa72I"><path d="M2.73.14c.9 0 1.43-.45 1.74-1.08h.06l.13.94h.8v-5.02h-.94v2.7c0 .98-.57 1.62-1.46 1.62-.75 0-1.1-.4-1.1-1.22v-3.1h-.93v3.32c0 1.17.55 1.84 1.7 1.84zm0 0"/></symbol><symbol overflow="visible" id="1fd5fa72J"><path d="M1.63 0v-2.9c0-.8.15-1.4.71-1.4.41 0 .55.3.55.88V0h.95v-2.9c0-.8.18-1.4.72-1.4.4 0 .57.3.57.88V0h.95v-3.63c0-.92-.28-1.53-1.11-1.53-.63 0-.95.41-1.1.9h-.06c-.1-.52-.44-.9-1.08-.9-.6 0-.93.41-1.06.9H1.6l-.23-.76H.67V0zm0 0"/></symbol><symbol overflow="visible" id="1fd5fa72K"><path d="M3.92-7.14H1.36v.76h1.6v5.61H1.15V0H5.7v-.77H3.92zm0 0"/></symbol><symbol overflow="visible" id="1fd5fa72L"><path d="M3.34.14c1.43 0 2.13-.66 2.25-1.78l-.89-.1c-.1.7-.5 1.08-1.34 1.08-1.03 0-1.52-.64-1.52-1.84 0-1.23.47-1.86 1.52-1.86.84 0 1.23.36 1.34 1.08l.9-.1c-.13-1.09-.82-1.78-2.26-1.78-1.56 0-2.46.97-2.46 2.66 0 1.66.9 2.64 2.46 2.64zm0 0"/></symbol><symbol overflow="visible" id="1fd5fa72M"><path d="M2.06 1.9V-.84h.05c.28.58.8.97 1.77.97 1.5 0 2.2-.98 2.2-2.66 0-1.65-.7-2.64-2.19-2.64-.97 0-1.5.44-1.78 1.05h-.08l-.1-.9H1.1v6.9zm1.5-2.56c-1.06 0-1.53-.8-1.53-1.86 0-1.04.47-1.84 1.53-1.84 1.11 0 1.53.61 1.53 1.84 0 1.27-.42 1.86-1.53 1.86zm0 0"/></symbol><symbol overflow="visible" id="1fd5fa72N"><path d="M3.58-5.81c.42 0 .72-.22.72-.67 0-.44-.3-.68-.72-.68-.44 0-.72.24-.72.68 0 .45.28.67.72.67zm.5.8H1.52v.76h1.6v3.48h-1.8V0h4.46v-.77h-1.7zm0 0"/></symbol><symbol overflow="visible" id="1fd5fa72O"><path d="M3.36.16c1.4 0 2.2-.6 2.2-1.57 0-.89-.54-1.22-1.47-1.39L3-3c-.67-.14-.86-.33-.86-.73 0-.5.4-.74 1.17-.74.83 0 1.19.27 1.27.8l.9-.05c-.12-1-.8-1.47-2.17-1.47-1.34 0-2.1.53-2.1 1.5 0 .81.45 1.22 1.52 1.44l1.04.2c.56.11.87.24.87.72 0 .52-.45.78-1.28.78-.95 0-1.36-.28-1.42-.87l-.9.06C1.07-.36 1.8.16 3.35.16zm0 0"/></symbol><symbol overflow="visible" id="1fd5fa72P"><path d="M5.4-1.22c.43-.66.66-1.51.66-2.44l-.83-.09c0 .75-.14 1.4-.4 1.92l-1.7-1.83c.8-.42 1.39-.96 1.39-1.86 0-.87-.66-1.4-1.61-1.4-1.14 0-1.72.62-1.72 1.47 0 .72.47 1.3.83 1.68-.8.41-1.52.99-1.52 2.1C.5-.44 1.52.14 2.7.14c.9 0 1.64-.3 2.2-.78l.58.64h1.05zM2.86-6.25c.44 0 .82.23.82.73 0 .7-.47 1.11-1 1.41-.47-.53-.67-.92-.67-1.34 0-.47.3-.8.85-.8zM2.81-.62c-.83 0-1.42-.41-1.42-1.18 0-.76.5-1.18 1.05-1.5l1.94 2.1c-.4.37-.91.57-1.57.57zm0 0"/></symbol><symbol overflow="visible" id="1fd5fa72Q"><path d="M5.67 0v-.86H2.14V-.9L3.6-2c1.05-.83 2-1.68 2-2.91 0-1.19-.73-1.99-2.26-1.99-1.66 0-2.3 1.02-2.44 2.33l1 .08c.1-.92.42-1.58 1.44-1.58.87 0 1.26.44 1.26 1.24 0 .9-.8 1.53-1.96 2.53L.83-.81V0zm0 0"/></symbol></defs><g fill="#fff"><use xlink:href="#1fd5fa72a" x="60.06" y="151"/><use xlink:href="#1fd5fa72b" x="107.4" y="151"/><use xlink:href="#1fd5fa72c" x="141.06" y="151"/><use xlink:href="#1fd5fa72d" x="174" y="151"/><use xlink:href="#1fd5fa72e" x="207.3" y="151"/><use xlink:href="#1fd5fa72f" x="238.08" y="151"/><use xlink:href="#1fd5fa72g" x="283.98" y="151"/><use xlink:href="#1fd5fa72h" x="314.46" y="151"/><use xlink:href="#1fd5fa72i" x="346.08" y="151"/><use xlink:href="#1fd5fa72j" x="360.78" y="151"/><use xlink:href="#1fd5fa72k" x="373.74" y="151"/><use xlink:href="#1fd5fa72l" x="392.76" y="151"/><use xlink:href="#1fd5fa72m" x="417.6" y="151"/><use xlink:href="#1fd5fa72m" x="448.86" y="151"/><use xlink:href="#1fd5fa72l" x="480.12" y="151"/><use xlink:href="#1fd5fa72n" x="504.96" y="151"/><use xlink:href="#1fd5fa72o" x="523.98" y="151"/><use xlink:href="#1fd5fa72p" x="220" y="252"/><use xlink:href="#1fd5fa72q" x="226.667" y="252"/><use xlink:href="#1fd5fa72r" x="233.334" y="252"/><use xlink:href="#1fd5fa72s" x="240.001" y="252"/><use xlink:href="#1fd5fa72t" x="246.668" y="252"/><use xlink:href="#1fd5fa72u" x="253.335" y="252"/><use xlink:href="#1fd5fa72v" x="260.002" y="252"/><use xlink:href="#1fd5fa72w" x="266.669" y="252"/><use xlink:href="#1fd5fa72x" x="273.336" y="252"/><use xlink:href="#1fd5fa72y" x="280.003" y="252"/><use xlink:href="#1fd5fa72q" x="286.67" y="252"/><use xlink:href="#1fd5fa72z" x="293.337" y="252"/><use xlink:href="#1fd5fa72u" x="300.004" y="252"/><use xlink:href="#1fd5fa72A" x="306.671" y="252"/><use xlink:href="#1fd5fa72s" x="313.338" y="252"/><use xlink:href="#1fd5fa72B" x="320.005" y="252"/><use xlink:href="#1fd5fa72u" x="326.672" y="252"/><use xlink:href="#1fd5fa72C" x="333.339" y="252"/><use xlink:href="#1fd5fa72D" x="340.006" y="252"/><use xlink:href="#1fd5fa72E" x="346.673" y="252"/><use xlink:href="#1fd5fa72E" x="353.34" y="252"/><use xlink:href="#1fd5fa72D" x="360.007" y="252"/><use xlink:href="#1fd5fa72F" x="366.674" y="252"/><use xlink:href="#1fd5fa72G" x="373.341" y="252"/><g><use xlink:href="#1fd5fa72H" x="176.6667" y="266"/><use xlink:href="#1fd5fa72q" x="183.3337" y="266"/><use xlink:href="#1fd5fa72x" x="190.0007" y="266"/><use xlink:href="#1fd5fa72s" x="196.6677" y="266"/><use xlink:href="#1fd5fa72I" x="203.3347" y="266"/><use xlink:href="#1fd5fa72z" x="210.0017" y="266"/><use xlink:href="#1fd5fa72q" x="216.6687" y="266"/><use xlink:href="#1fd5fa72t" x="223.3357" y="266"/><use xlink:href="#1fd5fa72u" x="230.0027" y="266"/><use xlink:href="#1fd5fa72A" x="236.6697" y="266"/><use xlink:href="#1fd5fa72J" x="243.3367" y="266"/><use xlink:href="#1fd5fa72x" x="250.0037" y="266"/><use xlink:href="#1fd5fa72K" x="256.6707" y="266"/><use xlink:href="#1fd5fa72K" x="263.3377" y="266"/><use xlink:href="#1fd5fa72u" x="270.0047" y="266"/><use xlink:href="#1fd5fa72L" x="276.6717" y="266"/><use xlink:href="#1fd5fa72x" x="283.3387" y="266"/><use xlink:href="#1fd5fa72M" x="290.0057" y="266"/><use xlink:href="#1fd5fa72N" x="296.6727" y="266"/><use xlink:href="#1fd5fa72s" x="303.3397" y="266"/><use xlink:href="#1fd5fa72x" x="310.0067" y="266"/><use xlink:href="#1fd5fa72K" x="316.6737" y="266"/><use xlink:href="#1fd5fa72O" x="323.3407" y="266"/><use xlink:href="#1fd5fa72u" x="330.0077" y="266"/><use xlink:href="#1fd5fa72C" x="336.6747" y="266"/><use xlink:href="#1fd5fa72O" x="343.3417" y="266"/><use xlink:href="#1fd5fa72J" x="350.0087" y="266"/><use xlink:href="#1fd5fa72L" x="356.6757" y="266"/><use xlink:href="#1fd5fa72M" x="363.3427" y="266"/><use xlink:href="#1fd5fa72u" x="370.0097" y="266"/><use xlink:href="#1fd5fa72P" x="376.6767" y="266"/><use xlink:href="#1fd5fa72u" x="383.3437" y="266"/><use xlink:href="#1fd5fa72L" x="390.0107" y="266"/><use xlink:href="#1fd5fa72Q" x="396.6777" y="266"/><use xlink:href="#1fd5fa72O" x="403.3447" y="266"/><use xlink:href="#1fd5fa72L" x="410.0117" y="266"/><use xlink:href="#1fd5fa72F" x="416.6787" y="266"/></g></g></svg>