<?xml version='1.0' encoding='UTF-8'?>
<svg xmlns="http://www.w3.org/2000/svg" xmlns:xlink="http://www.w3.org/1999/xlink" width="600px" height="300px" viewBox="0 0 600 300" x="0px" y="0px" enable-background="new 0 0 600 300"><defs><symbol overflow="visible" id="9144e899a"><path d="M5.64-39.9V-.24C9.36.3 13.2.66 16.2.66c10.44 0 15.66-4.93 15.66-12.18 0-5.46-3.13-8.82-8.22-9.96 4.08-1.93 5.88-5.52 5.88-9.47 0-6.74-5.29-9.85-13.86-9.85-3.18 0-6.66.36-10.02.9zm9.95 3.24c5.54 0 8.96 1.8 8.96 6.66 0 2.28-.85 4.63-3.07 5.88-1.26.71-2.93 1.14-5.53 1.14-1.67 0-3.36 0-5.51-.07v-13.18c1.8-.25 3.6-.43 5.15-.43zm.43 17.7c7.43 0 10.8 2.76 10.8 7.44 0 2.46-.96 4.68-3.05 6.24-1.57 1.14-3.72 1.73-7.2 1.73-1.93 0-3.91-.1-6.13-.36v-15c1.98 0 3.97-.04 5.58-.04zm0 0"/></symbol><symbol overflow="visible" id="9144e899b"><path d="M4.02-36.55c0 1.82 1.2 2.96 3.12 2.96 1.99 0 3.3-1.33 3.3-3.32 0-1.86-1.2-3.04-3.06-3.04-2.04 0-3.36 1.37-3.36 3.4zm5.46 8.47l-4.68.13V0h4.68zm0 0"/></symbol><symbol overflow="visible" id="9144e899c"><path d="M3.19-13.5C3.19-5.16 7.79.84 15.29.84c8.65 0 12.85-7.75 12.85-15.3 0-8.27-4.56-14.4-12.12-14.4-8.64 0-12.83 7.92-12.83 15.36zm20.1-.23c0 3.71-.98 6.78-2.65 8.57a6.5 6.5 0 01-4.86 1.93c-5.1 0-7.8-4.5-7.8-10.93 0-4.03 1.08-6.96 2.7-8.76a6.93 6.93 0 014.87-1.86c5.1 0 7.73 4.62 7.73 11.05zm0 0"/></symbol><symbol overflow="visible" id="9144e899d"><path d="M3.19-13.2C3.19-5.22 7.69.84 13.92.84c3.3 0 6-1.68 8.35-3.84V.42c-.07 5.94-1.08 10.5-7.57 10.5-2.89 0-5.76-.84-7.92-1.86l-1.62 3.6c2.4 1.32 6.18 2.4 10.03 2.4 9.3 0 11.75-6.6 11.75-15.48v-17.7c0-2.46.12-4.2.54-9.79l-3.96-.53-.43 1.67a12.2 12.2 0 00-6.95-2.09C7.2-28.86 3.2-20.7 3.2-13.2zm4.86-.9c0-3.35.72-6.84 2.8-8.88 1.34-1.25 3-1.8 5.23-1.8 2.22 0 4.2.48 6.19 1.62V-7.2c-2.47 2.22-4.93 3.97-7.63 3.97-4.33 0-6.6-4.63-6.6-10.86zm0 0"/></symbol><symbol overflow="visible" id="9144e899e"><path d="M8.34-28.44l-3.96.53c.42 6.07.48 8.7.48 10.86V0h4.73v-18.78c1.93-3.42 4.46-4.92 7.14-4.92 1.2 0 2.18.12 3.25.42l.96-4.31a7.22 7.22 0 00-3.9-1.1c-3.18 0-5.76 1.99-7.74 5.53zm0 0"/></symbol><symbol overflow="visible" id="9144e899f"><path d="M6.36-13.14a7.96 7.96 0 00-3.84 6.78C2.52-2.05 5.34.66 9.84.66c3.43 0 6.79-1.57 9.72-4.2L20.41.3l3.95-.6c-.42-5.93-.48-8.4-.48-10.56v-7.2c0-7.38-2.65-10.63-8.65-10.63-4.43 0-8.39 1.88-11.51 4.57l1.73 2.93c2.96-2.03 6.13-3.36 8.96-3.36 3.46 0 4.8 2.05 4.8 7.99v.42c-6.5.55-10.44 1.44-12.85 3zm.78 6.23c0-1.8.84-2.93 1.8-3.65 1.44-.9 4.08-1.63 10.26-2.1v5.64c-2.93 2.52-5.93 3.9-8.4 3.9-2.28 0-3.66-1.32-3.66-3.79zm0 0"/></symbol><symbol overflow="visible" id="9144e899g"><path d="M8.34-28.44l-3.96.53c.42 6.07.48 8.7.48 10.93V14.4h4.73V-1.08A11.56 11.56 0 0016.02.84c8.34 0 12.71-7.98 12.71-15.71-.04-7.93-4.5-13.99-11.03-13.99-3.48 0-6.12 1.67-8.57 4.2zm8.64 3.66c4.57 0 6.83 4.62 6.83 10.8 0 3.54-.76 7.03-2.81 8.93-1.31 1.27-2.88 1.86-5.22 1.86-2.22 0-4.2-.47-6.19-1.67V-21.3c2.54-2.15 4.75-3.48 7.4-3.48zm0 0"/></symbol><symbol overflow="visible" id="9144e899h"><path d="M9.48-45.06l-4.68.12V0h4.68v-21.84c2.64-1.8 5.52-2.88 8.4-2.88 3.71 0 4.75 2.34 4.75 7.38V0h4.73v-19.08c0-6.23-2.28-9.78-8.28-9.78a15.4 15.4 0 00-9.6 3.42zm0 0"/></symbol><symbol overflow="visible" id="9144e899i"><path d="M26.88-28.02h-4.5L14.52-5.16h-.24a35.58 35.58 0 00-1.44-5.34l-6-17.52h-4.8c0 .9.18 1.74.54 2.64L11.8 0h1.03C9.72 7.5 6.54 10.86 1.31 10.86v3.78c.67.13 1.4.17 2.53.17 4.8 0 8.7-3.6 12.36-12.72l10.14-27.46c.36-.85.54-1.63.54-2.65zm0 0"/></symbol><symbol overflow="visible" id="9144e899k"><path d="M8.28-39.9L3.06-.24C5.1.19 8.94.66 13.08.66c11.83 0 16.37-6.9 16.37-13.2 0-4.62-2.87-7.68-6.72-8.82 4.7-1.92 6.97-6.72 6.97-10.5 0-6.42-5.22-8.94-11.93-9-3.91 0-8.11.6-9.49.95zm8.88 3.18c4.14 0 7.75 1.14 7.75 5.7 0 2.88-1.5 5.4-3.97 6.9-1.32.67-3.13 1.14-5.94 1.14-1.73 0-2.7 0-4.14-.07l1.73-13.25c1.4-.18 2.9-.42 4.57-.42zm-1.08 17.77c5.64 0 8.47 2.57 8.47 6.53 0 3.06-1.63 5.7-3.85 7.37-1.75.97-4.01 1.57-7.14 1.57-2.1 0-3.78-.11-5.22-.36l1.97-15.11h5.77zm0 0"/></symbol><symbol overflow="visible" id="9144e899l"><path d="M6.13-35.7c0 1.43.89 2.47 2.64 2.47 2.03 0 3.71-1.5 3.71-3.79 0-1.5-.9-2.46-2.57-2.46a3.69 3.69 0 00-3.79 3.78zm4.56 7.5l-4.75.18L2.22 0h4.73zm0 0"/></symbol><symbol overflow="visible" id="9144e899m"><path d="M2.28-10.8C2.28-4.02 5.58.84 12 .84c8.94 0 14.16-9.78 14.28-18.06 0-6.66-3-11.7-9.72-11.7-9.06 0-14.22 9.97-14.28 18.12zm19.14-6.3c0 5.16-1.8 9.83-4.69 12.6a7.17 7.17 0 01-3.95 1.2c-3.72 0-5.7-3.18-5.64-7.62 0-5.03 1.8-10.02 4.67-12.66a7.26 7.26 0 013.97-1.2c4.08 0 5.7 3.12 5.64 7.69zm0 0"/></symbol><symbol overflow="visible" id="9144e899n"><path d="M3.84-3.9c0 .9.24 1.68.66 2.27C.84.6-1.38 3.67-1.38 7.38c0 4.86 4.02 7.86 10.38 7.86 8.64 0 13.98-4.86 13.98-11.15 0-4.86-4.14-7.2-9.67-7.2-2.87 0-4.5-.36-5.15-1.68a5.6 5.6 0 012.04-3.9c.53.06 1.14.12 1.74.12 7.92 0 12.06-6.19 12.06-11.7 0-1.92-.48-3.6-1.44-4.99 1.5-.71 2.88-1.01 4.74-1.01l.72-4.2c-3.3.06-5.7 1.26-7.74 3.06a9.86 9.86 0 00-5.22-1.31C7.14-28.73 3-22.56 3-16.98c0 3.25 1.5 5.93 4.2 7.32C5.05-8.09 3.84-6.12 3.84-3.9zm15.6-16.02a9.04 9.04 0 01-2.88 6.84c-1.08.6-2.51.96-3.97.96-3.04-.07-4.96-2.04-4.96-5.29a8.76 8.76 0 013-6.89c1.01-.6 2.39-.9 3.78-.9 3.23 0 5.03 1.98 5.03 5.28zM3.06 6.59c0-2.51 1.38-4.8 3.78-6.46 1.38.53 3.18.78 4.97.78 4.2 0 6.78 1.14 6.78 4.07 0 2.04-.89 3.6-2.21 4.8-1.5 1.08-4.08 1.67-6.66 1.67-4.02 0-6.66-1.6-6.66-4.86zm0 0"/></symbol><symbol overflow="visible" id="9144e899o"><path d="M9.48-28.31l-3.96.4C5.05-21 4.8-18.59 4.5-16.56L2.34 0h4.74l2.15-16.44c2.77-4.56 5.7-7.5 8.58-7.5.97 0 1.75.24 2.28.42l1.4-4.32a5.48 5.48 0 00-3.2-.9c-3.41 0-6.16 2.65-8.63 6.83zm0 0"/></symbol><symbol overflow="visible" id="9144e899p"><path d="M2.28-9.36c0 5.4 1.8 10.14 6.6 10.14 3.3 0 6.78-2.22 9.6-4.98l.3 4.43 3.9-.46c.3-5.29.54-7.63.77-9.55l2.18-16.38h.06a15.08 15.08 0 00-8.47-2.76c-8.81 0-15 8.76-14.94 19.56zm4.8-.9c0-6.12 2.22-11.52 6-13.87a8.9 8.9 0 013.19-.59c1.43 0 2.87.24 4.37.78L18.48-8.22c-2.53 2.52-5.7 4.56-8.28 4.74-2.15-.24-3.12-3-3.12-6.79zm0 0"/></symbol><symbol overflow="visible" id="9144e899q"><path d="M5.1 14.4L7.01.07c1.26.42 2.57.72 4.14.72 8.82 0 14.93-8.76 14.89-19.5 0-5.47-1.86-10.2-6.78-10.2-3.25 0-6.61 2.05-9.61 5.05l-.24-4.44-3.97.4c-.3 5.77-.47 7.86-.72 9.91L.43 14.4zm12.96-39.06c2.22.18 3.17 3 3.17 6.79 0 6.1-2.21 11.45-5.93 13.8a7.7 7.7 0 01-3.24.65c-1.44 0-2.94-.3-4.5-.9l2.1-15.6c2.7-2.64 5.82-4.56 8.4-4.74zm0 0"/></symbol><symbol overflow="visible" id="9144e899r"><path d="M12.95-45.06l-4.73.12L2.28 0h4.67l2.47-18.66c3.06-3.3 6.9-5.89 10.08-6.06 2.28.42 2.05 3.49 1.5 7.27L18.66 0h4.75l2.51-19.08c.78-5.76.24-9.84-5.58-9.84-3.54 0-7.2 2.28-10.26 5.47zm0 0"/></symbol><symbol overflow="visible" id="9144e899s"><path d="M17.94-5.05c4.8-9.1 7.37-17.26 7.37-21.76v-1.27h-4.5c-.3 7.02-3.3 15.13-7.97 23.4h-.25l-1.01-5.23-3.9-18.17H3.07c-.12.85-.06 1.74.13 2.64L9.19 0h1.08C6.07 7.14 2.22 10.44-2.34 10.56l-.6 4.14c.42.11 1.08.18 1.86.18 6.6 0 12.42-7.61 19.02-19.93zm0 0"/></symbol><symbol overflow="visible" id="9144e899t"><path d="M3.83 0v-5.95H6.2v-.82H.45v.82h2.4V0zm0 0"/></symbol><symbol overflow="visible" id="9144e899u"><path d="M5.75-2.23v-.43c0-1.6-.9-2.51-2.42-2.51S.87-4.16.87-2.48c0 1.71.91 2.62 2.5 2.62 1.43 0 2.07-.56 2.29-1.52l-.9-.09c-.18.61-.59.9-1.35.9-.94 0-1.52-.54-1.58-1.66zm-2.4-2.2c.93 0 1.43.5 1.48 1.55H1.84c.08-1.07.6-1.56 1.5-1.56zm0 0"/></symbol><symbol overflow="visible" id="9144e899v"><path d="M1.83 0l1.42-2h.06l1.46 2H5.8L4-2.53l1.78-2.49H4.8L3.42-3.08h-.08l-1.4-1.94H.89l1.78 2.49L.84 0zm0 0"/></symbol><symbol overflow="visible" id="9144e899w"><path d="M5.52-4.25v-.77H3.17v-1.56h-.81l-.14 1.56H.75v.77h1.47v2.4c0 1.3.48 1.94 1.84 1.94C4.6.1 5.14 0 5.55-.14L5.4-.91c-.32.13-.72.2-1.13.2-.8 0-1.1-.37-1.1-1.23v-2.31zm0 0"/></symbol><symbol overflow="visible" id="9144e899x"><path d="M3.33-3.42c.47 0 .8-.27.8-.8 0-.51-.33-.8-.8-.8-.47 0-.8.29-.8.8 0 .53.33.8.8.8zm0 3.5c.47 0 .8-.27.8-.78 0-.53-.33-.82-.8-.82-.47 0-.8.29-.8.82 0 .51.33.78.8.78zm0 0"/></symbol><symbol overflow="visible" id="9144e899z"><path d="M4.66-3.45c.76-.14 1.15-.67 1.15-1.57 0-1.07-.64-1.75-2.18-1.75H.92V0h2.71C5.2 0 5.98-.64 5.98-1.77c0-1.03-.56-1.43-1.32-1.59zM3.56-6c.9 0 1.31.4 1.31 1.13 0 .71-.4 1.14-1.3 1.14h-1.7V-6zM1.87-.75v-2.27H3.6c.97 0 1.44.33 1.44 1.13 0 .8-.47 1.14-1.44 1.14zm0 0"/></symbol><symbol overflow="visible" id="9144e899A"><path d="M3.58-5.81c.42 0 .72-.22.72-.67 0-.44-.3-.68-.72-.68-.44 0-.72.24-.72.68 0 .45.28.67.72.67zm.5.8H1.52v.76h1.6v3.48h-1.8V0h4.46v-.77h-1.7zm0 0"/></symbol><symbol overflow="visible" id="9144e899B"><path d="M3.33.14c1.62 0 2.5-.95 2.5-2.66 0-1.68-.88-2.64-2.5-2.64-1.63 0-2.5.96-2.5 2.64 0 1.7.87 2.66 2.5 2.66zm0-.77c-1.06 0-1.52-.6-1.52-1.89 0-1.28.46-1.87 1.52-1.87 1.08 0 1.53.6 1.53 1.87 0 1.29-.45 1.9-1.53 1.9zm0 0"/></symbol><symbol overflow="visible" id="9144e899C"><path d="M3.16 2.03c1.67 0 2.4-.86 2.4-2.51v-4.54h-.81l-.13.91h-.06c-.26-.58-.8-1.05-1.73-1.05-1.42 0-2.24 1-2.24 2.52 0 1.6.75 2.56 2.2 2.56.94 0 1.5-.5 1.77-1.03h.05v.72c0 1.17-.42 1.67-1.45 1.67-.93 0-1.3-.34-1.41-.89L.8.5c.12.96.87 1.54 2.36 1.54zM3.06-.8c-.98 0-1.48-.57-1.48-1.82 0-1.13.5-1.75 1.48-1.75 1.06 0 1.58.76 1.58 1.75 0 .95-.56 1.82-1.58 1.82zm0 0"/></symbol><symbol overflow="visible" id="9144e899D"><path d="M5.08-5.16c-.94 0-1.58.43-1.9 1.3h-.09l-.07-1.16H1.05v.77h1.1v3.48H.96V0h3.96v-.77H3.1v-1.46c0-1.36.6-2.05 1.83-2.05.4 0 .76.08 1.1.17l.15-.87c-.33-.11-.7-.18-1.11-.18zm0 0"/></symbol><symbol overflow="visible" id="9144e899E"><path d="M2.83.14c.94 0 1.5-.39 1.81-.95h.08l.1.81h.76v-3.38c0-1.23-.69-1.8-2.13-1.8-1.43 0-2.03.65-2.18 1.6l.93.1c.11-.6.44-.93 1.22-.93.85 0 1.22.32 1.22 1.04v.34l-1.81.2C1.6-2.7 1.1-2.17 1.1-1.28c0 .92.64 1.42 1.72 1.42zm.25-.77c-.67 0-1.02-.28-1.02-.74 0-.44.28-.72 1-.82l1.58-.19v.41c0 .8-.6 1.34-1.56 1.34zm0 0"/></symbol><symbol overflow="visible" id="9144e899F"><path d="M2.06 1.9V-.84h.05c.28.58.8.97 1.77.97 1.5 0 2.2-.98 2.2-2.66 0-1.65-.7-2.64-2.19-2.64-.97 0-1.5.44-1.78 1.05h-.08l-.1-.9H1.1v6.9zm1.5-2.56c-1.06 0-1.53-.8-1.53-1.86 0-1.04.47-1.84 1.53-1.84 1.11 0 1.53.61 1.53 1.84 0 1.27-.42 1.86-1.53 1.86zm0 0"/></symbol><symbol overflow="visible" id="9144e899G"><path d="M2.16 0v-2.69c0-.98.6-1.6 1.46-1.6.74 0 1.07.4 1.07 1.2V0h.95v-3.31c0-1.17-.56-1.85-1.67-1.85-.9 0-1.44.46-1.75 1.08h-.06v-3.06H1.2V0zm0 0"/></symbol><symbol overflow="visible" id="9144e899H"><path d="M3.42-.86h-.08L1.77-5.02H.8L2.73 0h.41c-.33.95-.72 1.27-1.45 1.27-.22 0-.49-.04-.69-.08l-.1.73c.2.06.58.11.87.11 1.2 0 1.7-.7 2.21-2.03l1.94-5.02H5zm0 0"/></symbol><symbol overflow="visible" id="9144e899I"><path d="M5.95-6.77H1.1V0h.99v-2.92H5.3v-.77H2.08v-2.26h3.87zm0 0"/></symbol><symbol overflow="visible" id="9144e899J"><path d="M2.73.14c.9 0 1.43-.45 1.74-1.08h.06l.13.94h.8v-5.02h-.94v2.7c0 .98-.57 1.62-1.46 1.62-.75 0-1.1-.4-1.1-1.22v-3.1h-.93v3.32c0 1.17.55 1.84 1.7 1.84zm0 0"/></symbol><symbol overflow="visible" id="9144e899K"><path d="M6.17 0L3.98-6.77h-1.3L.5 0h.97l.44-1.47h2.78L5.16 0zM3.28-5.94h.08l1.1 3.74H2.15zm0 0"/></symbol><symbol overflow="visible" id="9144e899L"><path d="M3.92-7.14H1.36v.76h1.6v5.61H1.15V0H5.7v-.77H3.92zm0 0"/></symbol><symbol overflow="visible" id="9144e899M"><path d="M2.16 0v-2.67c0-.99.59-1.63 1.46-1.63.74 0 1.07.38 1.07 1.22V0h.95v-3.31c0-1.2-.56-1.85-1.67-1.85-.92 0-1.49.46-1.77 1.08h-.06l-.12-.94H1.2V0zm0 0"/></symbol><symbol overflow="visible" id="9144e899N"><path d="M3.9 0l2-5.02h-.96L3.4-.94h-.07L1.8-5.02H.77L2.78 0zm0 0"/></symbol><symbol overflow="visible" id="9144e899O"><path d="M4.63-6.5c.45 0 .98.08 1.39.2l.2-.72a5.3 5.3 0 00-1.64-.26c-1.52 0-2.16.56-2.16 1.87v.4H.9v.76h1.53V0h.94v-4.25h2.53v-.77H3.36v-.3c0-.84.33-1.18 1.27-1.18zm0 0"/></symbol><symbol overflow="visible" id="9144e899P"><path d="M1.63 0v-2.9c0-.8.15-1.4.71-1.4.41 0 .55.3.55.88V0h.95v-2.9c0-.8.18-1.4.72-1.4.4 0 .57.3.57.88V0h.95v-3.63c0-.92-.28-1.53-1.11-1.53-.63 0-.95.41-1.1.9h-.06c-.1-.52-.44-.9-1.08-.9-.6 0-.93.41-1.06.9H1.6l-.23-.76H.67V0zm0 0"/></symbol><symbol overflow="visible" id="9144e899Q"><path d="M3.38-5.9c.12-.5.42-1.04.67-1.41l-.63-.22a4.28 4.28 0 00-1.01 2.39c0 .66.3 1 .9 1 .6 0 .9-.33.9-.9 0-.57-.32-.83-.83-.85zm0 0"/></symbol><symbol overflow="visible" id="9144e899R"><path d="M3.3-7.53c-.55 0-.85.3-.85.84 0 .55.36.8.83.8h.03a5.1 5.1 0 01-.69 1.47l.52.23a4.29 4.29 0 001.02-2.4c0-.63-.33-.94-.86-.94zm0 0"/></symbol><symbol overflow="visible" id="9144e899S"><path d="M1.45-2.95c0 2.56 1.08 4.37 3.67 4.84l.11-.67C3.28.86 2.43-.75 2.43-2.95s.85-3.82 2.8-4.16l-.1-.69c-2.6.49-3.68 2.3-3.68 4.85zm0 0"/></symbol><symbol overflow="visible" id="9144e899T"><path d="M3.36.16c1.4 0 2.2-.6 2.2-1.57 0-.89-.54-1.22-1.47-1.39L3-3c-.67-.14-.86-.33-.86-.73 0-.5.4-.74 1.17-.74.83 0 1.19.27 1.27.8l.9-.05c-.12-1-.8-1.47-2.17-1.47-1.34 0-2.1.53-2.1 1.5 0 .81.45 1.22 1.52 1.44l1.04.2c.56.11.87.24.87.72 0 .52-.45.78-1.28.78-.95 0-1.36-.28-1.42-.87l-.9.06C1.07-.36 1.8.16 3.35.16zm0 0"/></symbol><symbol overflow="visible" id="9144e899U"><path d="M3.33.14c1.65 0 2.6-1.1 2.6-3.52S4.99-6.9 3.34-6.9C1.67-6.9.72-5.8.72-3.37c0 2.4.95 3.51 2.6 3.51zm0-.84c-1.13 0-1.6-.85-1.6-2.67 0-1.86.47-2.7 1.6-2.7 1.12 0 1.6.84 1.6 2.7 0 1.82-.48 2.67-1.6 2.67zM3.3-2.64c.38 0 .56-.28.56-.72 0-.44-.18-.7-.56-.7-.39 0-.56.26-.56.7 0 .44.17.72.56.72zm0 0"/></symbol><symbol overflow="visible" id="9144e899V"><path d="M3.25.14c1.58 0 2.53-.69 2.53-1.95 0-1.19-.92-1.56-1.6-1.61v-.05A1.6 1.6 0 005.6-5.12c0-1.13-.87-1.79-2.3-1.79-1.62 0-2.32.82-2.45 1.88l.97.06c.13-.69.52-1.1 1.47-1.1.86 0 1.35.32 1.35 1.05 0 .86-.6 1.2-1.66 1.2h-.49v.79h.54c1.12 0 1.78.25 1.78 1.14 0 .78-.46 1.22-1.55 1.22-1.06 0-1.48-.4-1.63-1.1l-.98.07C.75-.56 1.56.14 3.25.14zm0 0"/></symbol><symbol overflow="visible" id="9144e899W"><path d="M1.45-7.1c1.96.33 2.8 1.94 2.8 4.15 0 2.2-.84 3.8-2.8 4.17l.11.67c2.58-.47 3.67-2.28 3.67-4.84 0-2.55-1.09-4.36-3.67-4.85zm0 0"/></symbol></defs><g fill="#515151"><use xlink:href="#9144e899a" x="46.35" y="151"/><use xlink:href="#9144e899b" x="81.27" y="151"/><use xlink:href="#9144e899c" x="95.55" y="151"/></g><use xlink:href="#9144e899d" x="126.81" y="151" fill="#fff"/><g fill="#515151"><use xlink:href="#9144e899e" x="158.61" y="151"/><use xlink:href="#9144e899f" x="180.51" y="151"/><use xlink:href="#9144e899g" x="209.01" y="151"/><use xlink:href="#9144e899h" x="240.87" y="151"/><use xlink:href="#9144e899i" x="272.79" y="151"/><use xlink:href="#9144e899j" x="301.53" y="151"/></g><g fill="#515151"><use xlink:href="#9144e899k" x="314.49" y="151"/><use xlink:href="#9144e899l" x="347.43" y="151"/><use xlink:href="#9144e899m" x="361.05" y="151"/></g><use xlink:href="#9144e899n" x="390.27" y="151" fill="#fff"/><g fill="#515151"><use xlink:href="#9144e899o" x="418.05" y="151"/><use xlink:href="#9144e899p" x="439.11" y="151"/><use xlink:href="#9144e899q" x="467.85" y="151"/><use xlink:href="#9144e899r" x="496.89" y="151"/><use xlink:href="#9144e899s" x="526.71" y="151"/></g><g fill="#fff"><use xlink:href="#9144e899t" x="216.6667" y="252"/><use xlink:href="#9144e899u" x="223.3337" y="252"/><use xlink:href="#9144e899v" x="230.0007" y="252"/><use xlink:href="#9144e899w" x="236.6677" y="252"/><use xlink:href="#9144e899x" x="243.3347" y="252"/><use xlink:href="#9144e899y" x="250.0017" y="252"/><use xlink:href="#9144e899z" x="256.6687" y="252"/><use xlink:href="#9144e899A" x="263.3357" y="252"/><use xlink:href="#9144e899B" x="270.0027" y="252"/><use xlink:href="#9144e899C" x="276.6697" y="252"/><use xlink:href="#9144e899D" x="283.3367" y="252"/><use xlink:href="#9144e899E" x="290.0037" y="252"/><use xlink:href="#9144e899F" x="296.6707" y="252"/><use xlink:href="#9144e899G" x="303.3377" y="252"/><use xlink:href="#9144e899H" x="310.0047" y="252"/><use xlink:href="#9144e899y" x="316.6717" y="252"/><use xlink:href="#9144e899z" x="323.3387" y="252"/><use xlink:href="#9144e899A" x="330.0057" y="252"/><use xlink:href="#9144e899B" x="336.6727" y="252"/><use xlink:href="#9144e899C" x="343.3397" y="252"/><use xlink:href="#9144e899D" x="350.0067" y="252"/><use xlink:href="#9144e899E" x="356.6737" y="252"/><use xlink:href="#9144e899F" x="363.3407" y="252"/><use xlink:href="#9144e899G" x="370.0077" y="252"/><use xlink:href="#9144e899H" x="376.6747" y="252"/></g><g fill="#fff"><use xlink:href="#9144e899I" x="170" y="266"/><use xlink:href="#9144e899u" x="176.667" y="266"/><use xlink:href="#9144e899E" x="183.334" y="266"/><use xlink:href="#9144e899w" x="190.001" y="266"/><use xlink:href="#9144e899J" x="196.668" y="266"/><use xlink:href="#9144e899D" x="203.335" y="266"/><use xlink:href="#9144e899u" x="210.002" y="266"/><use xlink:href="#9144e899x" x="216.669" y="266"/><use xlink:href="#9144e899y" x="223.336" y="266"/><use xlink:href="#9144e899K" x="230.003" y="266"/><use xlink:href="#9144e899L" x="236.67" y="266"/><use xlink:href="#9144e899w" x="243.337" y="266"/><use xlink:href="#9144e899u" x="250.004" y="266"/><use xlink:href="#9144e899D" x="256.671" y="266"/><use xlink:href="#9144e899M" x="263.338" y="266"/><use xlink:href="#9144e899E" x="270.005" y="266"/><use xlink:href="#9144e899w" x="276.672" y="266"/><use xlink:href="#9144e899A" x="283.339" y="266"/><use xlink:href="#9144e899N" x="290.006" y="266"/><use xlink:href="#9144e899u" x="296.673" y="266"/><use xlink:href="#9144e899y" x="303.34" y="266"/><use xlink:href="#9144e899O" x="310.007" y="266"/><use xlink:href="#9144e899B" x="316.674" y="266"/><use xlink:href="#9144e899D" x="323.341" y="266"/><use xlink:href="#9144e899P" x="330.008" y="266"/><use xlink:href="#9144e899y" x="336.675" y="266"/><use xlink:href="#9144e899B" x="343.342" y="266"/><use xlink:href="#9144e899O" x="350.009" y="266"/><use xlink:href="#9144e899y" x="356.676" y="266"/><use xlink:href="#9144e899Q" x="363.343" y="266"/><use xlink:href="#9144e899C" x="370.01" y="266"/><use xlink:href="#9144e899R" x="376.677" y="266"/><use xlink:href="#9144e899y" x="383.344" y="266"/><use xlink:href="#9144e899S" x="390.011" y="266"/><use xlink:href="#9144e899T" x="396.678" y="266"/><use xlink:href="#9144e899T" x="403.345" y="266"/><use xlink:href="#9144e899U" x="410.012" y="266"/><use xlink:href="#9144e899V" x="416.679" y="266"/><use xlink:href="#9144e899W" x="423.346" y="266"/></g></svg>