<?xml version='1.0' encoding='UTF-8'?>
<svg xmlns="http://www.w3.org/2000/svg" xmlns:xlink="http://www.w3.org/1999/xlink" width="310px" height="280px" viewBox="0 0 310 280" x="0px" y="0px" enable-background="new 0 0 310 280"><defs><symbol overflow="visible" id="b9fb9fc0a"><path d="M2.4-23.42c0 5.7 4.27 7.78 8.58 9.8 2.99 1.39 5.4 2.57 5.4 5.17 0 2.64-2.36 3.84-5.4 3.84-2.57 0-5.32-.76-7.48-1.87L1.44-2.02A18.64 18.64 0 0011.09.63c6.72 0 11.52-3.46 11.52-9.6 0-5.76-4.38-7.73-8.88-9.89-2.84-1.34-5.14-2.55-5.14-5.1 0-2.73 2.5-3.59 5.24-3.59 2.3 0 4.56.52 6.23 1.2l1.74-4.42a17.9 17.9 0 00-8.22-2.01c-5.9 0-11.17 2.92-11.17 9.36zm0 0"/></symbol><symbol overflow="visible" id="b9fb9fc0b"><path d="M22.52-23.05H16.8l-6 8.46H8.92v-21.46l-5.89.1V0h5.9v-9.55h2.05L16.84 0h6.25c-.2-.9-.48-1.73-1.01-2.55l-6.63-9.93 6-8.11c.63-.86 1.07-1.63 1.07-2.46zm0 0"/></symbol><symbol overflow="visible" id="b9fb9fc0c"><path d="M1.92-10.98c0 6.51 3.5 11.6 9.85 11.6 6.76 0 10.54-5.76 10.54-12.48 0-6.48-3.5-11.8-9.83-11.8-6.76 0-10.56 6-10.56 12.68zm14.35-.16c0 2.22-.38 4.42-1.4 5.77a3.16 3.16 0 01-2.64 1.25c-2.92 0-4.3-3.18-4.3-7.54 0-2.54.52-4.76 1.43-6A3.11 3.11 0 0112-18.9c2.92 0 4.27 3.36 4.27 7.77zm0 0"/></symbol><symbol overflow="visible" id="b9fb9fc0d"><path d="M8.83-36.05l-5.96.1v31.43c0 3.27 1.83 5 4.66 5 1.69 0 3.31-.3 4.86-.92l-.92-4.36c-.58.2-1.05.24-1.44.24-.86 0-1.2-.53-1.2-1.78zm0 0"/></symbol><symbol overflow="visible" id="b9fb9fc0e"><path d="M4.6-11.19a6.58 6.58 0 00-3.12 5.72C1.48-1.69 3.9.48 7.44.48c2.5 0 4.84-1.15 6.81-3.07l.97 2.93 4.65-.68c-.3-4.94-.39-6.96-.39-8.74v-6.37c0-5.47-2.34-8.07-7.67-8.07-3.84 0-7.06 1.49-9.45 3.46l1.86 3.54a12.16 12.16 0 016.34-2.1c2.2 0 3.02 1.1 3.02 4.7v.39c-4.27.42-7.14 1.1-8.97 2.34zm2.46 4.85c0-1.05.33-1.77 1-2.25.72-.49 2.2-.86 5.52-1.16V-6c-1.53 1.34-3.06 2.06-4.4 2.06-1.5 0-2.12-.86-2.12-2.4zm0 0"/></symbol><symbol overflow="visible" id="b9fb9fc0f"><path d="M7.4-23.38l-4.76.63c.33 5.1.44 7.16.44 8.97V0h5.95v-15.03a5.41 5.41 0 014.66-2.35c.86 0 1.58.1 2.34.29l1.02-5.52a5.93 5.93 0 00-3.08-.9c-2.36 0-4.08 1.57-5.38 4.12zm0 0"/></symbol><symbol overflow="visible" id="b9fb9fc0h"><path d="M7.4-23.38l-4.76.63c.33 5.1.44 7.16.44 8.97V0h5.95v-17.1c1.4-1.09 2.83-1.76 4.36-1.76 2.06 0 2.64 1.25 2.64 4.27V0h5.95v-16.31c0-4.82-2.1-7.35-6.62-7.35a9.35 9.35 0 00-7.06 3.07zm0 0"/></symbol><symbol overflow="visible" id="b9fb9fc0i"><path d="M2.3-16.27c.06 3.6 2.54 5.08 5.43 6.33 2.49 1.11 4.5 1.92 4.5 3.6 0 1.36-1.34 2.17-3.45 2.17-1.72 0-3.4-.58-5.23-1.69l-2.07 3.8A13.1 13.1 0 009.31.48c5.42 0 8.92-2.98 8.92-7.34 0-3.75-2.59-5.28-5.89-6.67C9.8-14.6 8.3-15.31 8.3-16.84c0-1.11.92-2.02 2.84-2.02 1.48 0 2.92.52 4.45 1.34l2.13-3.65a10.74 10.74 0 00-6.74-2.35c-4.8 0-8.73 2.79-8.68 7.25zm0 0"/></symbol><symbol overflow="visible" id="b9fb9fc0j"><path d="M4.02.17c2.01 0 3.15-.89 3.15-2.4 0-1.35-.8-1.93-2.33-2.24L3.67-4.7c-1.01-.2-1.44-.58-1.44-1.35 0-.83.66-1.3 1.88-1.3 1.17 0 1.75.4 1.94 1.46L7.15-6c-.2-1.53-1.21-2.28-3-2.28-1.96 0-3.04.87-3.04 2.31 0 1.28.75 1.99 2.2 2.28l1.22.24c1.02.2 1.52.5 1.52 1.3 0 .9-.72 1.4-2 1.4-1.33 0-1.94-.47-2.11-1.48l-1.11.1C1-.6 1.98.17 4.02.17zm0 0"/></symbol><symbol overflow="visible" id="b9fb9fc0k"><path d="M6.92-6.02H5.55L2.78-3.45H2.7v-5.13H1.56V0H2.7v-2.78h.08L5.64 0h1.5L3.88-3.22zm0 0"/></symbol><symbol overflow="visible" id="b9fb9fc0l"><path d="M4 .17c1.95 0 3-1.14 3-3.19 0-2.03-1.05-3.17-3-3.17S1-5.05 1-3.02C1-.97 2.05.18 4 .18zm0-.92c-1.28 0-1.83-.72-1.83-2.27 0-1.53.55-2.25 1.83-2.25s1.83.72 1.83 2.25C5.83-1.47 5.28-.75 4-.75zm0 0"/></symbol><symbol overflow="visible" id="b9fb9fc0m"><path d="M4.7-8.58H1.64v.92h1.92v6.74h-2.2V0h5.47v-.92H4.7zm0 0"/></symbol><symbol overflow="visible" id="b9fb9fc0n"><path d="M3.4.17C4.51.17 5.2-.3 5.57-.97h.08l.12.97h.9v-4.05c0-1.48-.82-2.15-2.54-2.15-1.73 0-2.44.75-2.6 1.9l1.1.11c.13-.7.52-1.1 1.47-1.1 1.01 0 1.47.37 1.47 1.23v.42l-2.17.23c-1.49.18-2.08.82-2.08 1.86 0 1.13.76 1.72 2.06 1.72zm.29-.92c-.81 0-1.2-.33-1.2-.9 0-.52.32-.87 1.2-.96l1.89-.23v.48c0 .95-.75 1.61-1.9 1.61zm0 0"/></symbol><symbol overflow="visible" id="b9fb9fc0o"><path d="M6.1-6.19c-1.12 0-1.9.52-2.3 1.57h-.08l-.11-1.4H1.27v.91h1.32v4.19H1.14V0H5.9v-.92H3.73v-1.75c0-1.64.7-2.46 2.2-2.46.48 0 .91.08 1.32.2l.17-1.05c-.39-.13-.83-.2-1.33-.2zm0 0"/></symbol><symbol overflow="visible" id="b9fb9fc0q"><path d="M2.6 0v-3.22c0-1.17.71-1.94 1.76-1.94.87 0 1.26.46 1.26 1.47V0h1.15v-3.97c0-1.45-.7-2.22-2-2.22-1.11 0-1.79.55-2.13 1.3h-.08l-.14-1.13h-.97V0zm0 0"/></symbol><symbol overflow="visible" id="b9fb9fc0r"><path d="M4.02.19c1.7 0 2.65-.72 2.65-1.88 0-1.06-.65-1.45-1.76-1.67L3.6-3.6c-.81-.16-1.03-.37-1.03-.87 0-.6.45-.88 1.4-.88 1 0 1.43.31 1.52.95l1.1-.06c-.16-1.2-.97-1.75-2.63-1.75-1.61 0-2.5.63-2.5 1.8 0 .97.53 1.47 1.81 1.72l1.25.23c.67.14 1.03.3 1.03.88 0 .62-.53.93-1.53.93-1.16 0-1.62-.32-1.7-1.04l-1.1.07C1.3-.43 2.17.2 4.02.2zm0 0"/></symbol><symbol overflow="visible" id="b9fb9fc0s"><path d="M1.1-8.1V0h1.18v-2.72h2.03c1.9 0 2.86-.8 2.86-2.64v-.17c0-1.81-.97-2.58-2.83-2.58zM6-5.37C6-4.1 5.48-3.6 4.1-3.6H2.29v-3.58h1.83c1.37 0 1.89.4 1.89 1.66zm0 0"/></symbol><symbol overflow="visible" id="b9fb9fc0t"><path d="M7.1-8.1H1.32V0h5.8v-.95H2.47v-2.72h3.87v-.9H2.47v-2.59H7.1zm0 0"/></symbol><symbol overflow="visible" id="b9fb9fc0u"><path d="M4.1.17c2 0 2.96-1 3.23-2.78l-1.14-.1c-.22 1.29-.8 1.9-2.07 1.9-1.51 0-2.17-1.13-2.17-3.24 0-2.1.66-3.25 2.17-3.25 1.29 0 1.8.58 2.07 1.9l1.12-.12c-.26-1.76-1.14-2.76-3.15-2.76C1.84-8.28.75-6.7.75-4.05.75-1.4 1.85.17 4.11.17zm0 0"/></symbol><symbol overflow="visible" id="b9fb9fc0v"><path d="M3.42.17c1.13 0 1.77-.5 2.1-1.26h.07L5.75 0h.92v-8.58H5.53v3.56h-.08c-.34-.75-1.04-1.17-2.01-1.17C1.64-6.19.72-5 .72-3.02c0 2 .92 3.2 2.7 3.2zm.27-.95c-1.2 0-1.8-.74-1.8-2.22 0-1.52.6-2.23 1.78-2.23 1.35 0 1.9.95 1.9 2.23 0 1.27-.55 2.22-1.88 2.22zm0 0"/></symbol><symbol overflow="visible" id="b9fb9fc0w"><path d="M6.9-2.69v-.5C6.9-5.13 5.82-6.2 4-6.2 2.17-6.2 1.06-5 1.06-2.98c0 2.06 1.08 3.15 3 3.15C5.75.17 6.52-.5 6.8-1.64l-1.08-.13c-.24.75-.7 1.07-1.64 1.07-1.11 0-1.81-.64-1.88-1.99zM4-5.33c1.14 0 1.75.61 1.8 1.88H2.22c.1-1.28.7-1.88 1.78-1.88zm0 0"/></symbol></defs><use xlink:href="#b9fb9fc0a" x="42.032" y="145"/><use xlink:href="#b9fb9fc0b" x="66.368" y="145"/><use xlink:href="#b9fb9fc0c" x="90.272" y="145"/><use xlink:href="#b9fb9fc0d" x="114.464" y="145"/><use xlink:href="#b9fb9fc0e" x="127.424" y="145"/><use xlink:href="#b9fb9fc0f" x="149.84" y="145"/><use xlink:href="#b9fb9fc0g" x="167.456" y="145"/><use xlink:href="#b9fb9fc0a" x="176.432" y="145"/><use xlink:href="#b9fb9fc0e" x="200.768" y="145"/><use xlink:href="#b9fb9fc0h" x="223.184" y="145"/><use xlink:href="#b9fb9fc0i" x="248" y="145"/><g fill-opacity=".33"><use xlink:href="#b9fb9fc0j" x="59" y="230"/><use xlink:href="#b9fb9fc0k" x="67.0004" y="230"/><use xlink:href="#b9fb9fc0l" x="75.0008" y="230"/><use xlink:href="#b9fb9fc0m" x="83.0012" y="230"/><use xlink:href="#b9fb9fc0n" x="91.0016" y="230"/><use xlink:href="#b9fb9fc0o" x="99.002" y="230"/><use xlink:href="#b9fb9fc0p" x="107.0024" y="230"/><use xlink:href="#b9fb9fc0j" x="115.0028" y="230"/><use xlink:href="#b9fb9fc0n" x="123.0032" y="230"/><use xlink:href="#b9fb9fc0q" x="131.0036" y="230"/><use xlink:href="#b9fb9fc0r" x="139.004" y="230"/><use xlink:href="#b9fb9fc0p" x="147.0044" y="230"/><use xlink:href="#b9fb9fc0s" x="155.0048" y="230"/><use xlink:href="#b9fb9fc0t" x="163.0052" y="230"/><use xlink:href="#b9fb9fc0p" x="171.0056" y="230"/><use xlink:href="#b9fb9fc0u" x="179.006" y="230"/><use xlink:href="#b9fb9fc0l" x="187.0064" y="230"/><use xlink:href="#b9fb9fc0q" x="195.0068" y="230"/><use xlink:href="#b9fb9fc0v" x="203.0072" y="230"/><use xlink:href="#b9fb9fc0w" x="211.0076" y="230"/><use xlink:href="#b9fb9fc0q" x="219.008" y="230"/><use xlink:href="#b9fb9fc0r" x="227.0084" y="230"/><use xlink:href="#b9fb9fc0w" x="235.0088" y="230"/><use xlink:href="#b9fb9fc0v" x="243.0092" y="230"/></g></svg>