<?xml version='1.0' encoding='UTF-8'?>
<svg xmlns="http://www.w3.org/2000/svg" xmlns:xlink="http://www.w3.org/1999/xlink" width="450px" height="1000px" viewBox="0 0 450 1000" x="0px" y="0px" enable-background="new 0 0 450 1000"><defs><symbol overflow="visible" id="0235f465a"><path d="M2.8-14.63C2.8-6.53 6.17.46 14.12.46a14 14 0 007.57-2.12l-.53-1.16C18.94-1.67 17.09-.9 14.22-.9c-7.2 0-9.86-6.7-9.86-13.93 0-4.29.95-8.47 3.47-11.54a7.9 7.9 0 016.39-2.87c2.44 0 4.19.67 6.34 2.06l.72-1.08a10.94 10.94 0 00-7.01-2.32C6.44-30.6 2.8-22.81 2.8-14.63zm0 0"/></symbol><symbol overflow="visible" id="0235f465b"><path d="M5.17-20.56l-1.39.1V0h1.4v-9.67H8.9c3.37 0 3.68 2.01 6.65 9.67h1.53c-.12-.31-.36-.81-.53-1.27-2.39-5.93-3.1-8.59-5.4-9.12 1.98-.81 2.56-3.2 4.09-7.61.5-1.4.72-2.16.86-2.52h-1.48c-2.4 7.38-2.61 9.63-6.2 9.63H5.16zm0 0"/></symbol><symbol overflow="visible" id="0235f465c"><path d="M2.66-10.22C2.66-4 5.48.58 10.3.58c5.58 0 7.78-6.06 7.78-10.92 0-6.18-2.89-10.77-7.7-10.77-5.58 0-7.73 6.08-7.73 10.9zm14.03 0c0 3.56-.99 6.58-2.69 8.16-.95.89-2.17 1.39-3.56 1.39-4.19 0-6.4-4.24-6.4-9.67 0-3.47.96-6.4 2.57-8.07a5.07 5.07 0 013.66-1.43c4.17 0 6.42 4.18 6.42 9.62zm0 0"/></symbol><symbol overflow="visible" id="0235f465d"><path d="M15.17-20.52H6.44l-.46 5.68C5.36-5.81 3.68-.67.5-.67V.4c.22.04.4.04.77.04.84 0 1.6-.36 2.2-1 2.6-2.42 3.55-9.12 3.9-14.07l.32-4.7h6.08V0h1.4zm0 0"/></symbol><symbol overflow="visible" id="0235f465e"><path d="M4.5-9.1a5.45 5.45 0 00-2.34 4.5C2.16-1.4 4.14.46 6.84.46c2.35 0 4.77-1.17 6.93-3.42l.4 3.06 1.17-.18c-.26-3.86-.26-5.54-.26-6.93v-6.43c0-4.86-1.03-7.52-4.9-7.52-2.57 0-5.13 1.4-7.3 3.28l.68.9c1.97-1.62 4.4-2.91 6.61-2.91 2.83 0 3.52 2.1 3.52 7.1v1.04c-4.38.45-7.4 1.17-9.19 2.47zm-.94 4.46c0-1.66.9-2.78 1.7-3.45C6.4-9 8.2-9.67 13.7-10.31v5.86C11.47-2.06 9-.77 6.94-.81 5-.81 3.56-2.25 3.56-4.64zm0 0"/></symbol><symbol overflow="visible" id="0235f465f"><path d="M4.72-20.8l-1.2.2c.3 3.87.35 5.57.35 7v24.4h1.35V-.72A8.78 8.78 0 009.9.58c6.39 0 8.4-5.99 8.4-11.25 0-5.85-2.51-10.44-7.01-10.44-2.66 0-4.33 1.44-6.22 3.25zm6.53.96c3.88 0 5.63 4.64 5.63 9.4 0 3.14-.77 6.3-2.47 8.1-1.1 1.12-2.44 1.67-4.38 1.67-1.75 0-3.23-.4-4.81-1.36v-14.53c2.16-1.99 3.78-3.28 6.03-3.28zm0 0"/></symbol><symbol overflow="visible" id="0235f465h"><path d="M3.42.14C5.1.14 5.9-.69 6.11-2.17l-.95-.1C4.96-1.19 4.5-.69 3.44-.69c-1.27 0-1.81-.94-1.81-2.69s.54-2.7 1.8-2.7c1.09 0 1.5.49 1.73 1.58l.93-.1c-.21-1.46-.95-2.3-2.62-2.3C1.53-6.9.62-5.6.62-3.38c0 2.2.91 3.51 2.8 3.51zm0 0"/></symbol><symbol overflow="visible" id="0235f465i"><path d="M3.33.14c1.62 0 2.5-.95 2.5-2.66 0-1.68-.88-2.64-2.5-2.64-1.63 0-2.5.96-2.5 2.64 0 1.7.87 2.66 2.5 2.66zm0-.77c-1.06 0-1.52-.6-1.52-1.89 0-1.28.46-1.87 1.52-1.87 1.08 0 1.53.6 1.53 1.87 0 1.29-.45 1.9-1.53 1.9zm0 0"/></symbol><symbol overflow="visible" id="0235f465j"><path d="M2.16 0v-2.67c0-.99.59-1.63 1.46-1.63.74 0 1.07.38 1.07 1.22V0h.95v-3.31c0-1.2-.56-1.85-1.67-1.85-.92 0-1.49.46-1.77 1.08h-.06l-.12-.94H1.2V0zm0 0"/></symbol><symbol overflow="visible" id="0235f465k"><path d="M2.84.14C3.8.14 4.33-.26 4.6-.9h.07L4.8 0h.76v-7.14h-.95v2.95h-.08c-.28-.6-.86-.97-1.67-.97-1.48 0-2.27.99-2.27 2.64C.6-.84 1.36.14 2.84.14zm.22-.8c-.98 0-1.48-.59-1.48-1.84s.5-1.86 1.48-1.86c1.13 0 1.58.8 1.58 1.86S4.2-.66 3.06-.66zm0 0"/></symbol><symbol overflow="visible" id="0235f465l"><path d="M5.75-2.23v-.43c0-1.6-.9-2.51-2.42-2.51S.87-4.16.87-2.48c0 1.71.91 2.62 2.5 2.62 1.43 0 2.07-.56 2.29-1.52l-.9-.09c-.18.61-.59.9-1.35.9-.94 0-1.52-.54-1.58-1.66zm-2.4-2.2c.93 0 1.43.5 1.48 1.55H1.84c.08-1.07.6-1.56 1.5-1.56zm0 0"/></symbol><symbol overflow="visible" id="0235f465m"><path d="M3.36.16c1.4 0 2.2-.6 2.2-1.57 0-.89-.54-1.22-1.47-1.39L3-3c-.67-.14-.86-.33-.86-.73 0-.5.4-.74 1.17-.74.83 0 1.19.27 1.27.8l.9-.05c-.12-1-.8-1.47-2.17-1.47-1.34 0-2.1.53-2.1 1.5 0 .81.45 1.22 1.52 1.44l1.04.2c.56.11.87.24.87.72 0 .52-.45.78-1.28.78-.95 0-1.36-.28-1.42-.87l-.9.06C1.07-.36 1.8.16 3.35.16zm0 0"/></symbol><symbol overflow="visible" id="0235f465n"><path d="M3.83 0v-5.95H6.2v-.82H.45v.82h2.4V0zm0 0"/></symbol><symbol overflow="visible" id="0235f465o"><path d="M2.16 0v-2.69c0-.98.6-1.6 1.46-1.6.74 0 1.07.4 1.07 1.2V0h.95v-3.31c0-1.17-.56-1.85-1.67-1.85-.9 0-1.44.46-1.75 1.08h-.06v-3.06H1.2V0zm0 0"/></symbol><symbol overflow="visible" id="0235f465p"><path d="M3.58-5.81c.42 0 .72-.22.72-.67 0-.44-.3-.68-.72-.68-.44 0-.72.24-.72.68 0 .45.28.67.72.67zm.5.8H1.52v.76h1.6v3.48h-1.8V0h4.46v-.77h-1.7zm0 0"/></symbol><symbol overflow="visible" id="0235f465w"><path d="M3.83-5.97h1.73v-.8H1.1v.8h1.75v5.19H1.1V0h4.47v-.78H3.83zm0 0"/></symbol><symbol overflow="visible" id="0235f465x"><path d="M5.52-4.25v-.77H3.17v-1.56h-.81l-.14 1.56H.75v.77h1.47v2.4c0 1.3.48 1.94 1.84 1.94C4.6.1 5.14 0 5.55-.14L5.4-.91c-.32.13-.72.2-1.13.2-.8 0-1.1-.37-1.1-1.23v-2.31zm0 0"/></symbol><symbol overflow="visible" id="0235f465y"><path d="M2.83.14c.94 0 1.5-.39 1.81-.95h.08l.1.81h.76v-3.38c0-1.23-.69-1.8-2.13-1.8-1.43 0-2.03.65-2.18 1.6l.93.1c.11-.6.44-.93 1.22-.93.85 0 1.22.32 1.22 1.04v.34l-1.81.2C1.6-2.7 1.1-2.17 1.1-1.28c0 .92.64 1.42 1.72 1.42zm.25-.77c-.67 0-1.02-.28-1.02-.74 0-.44.28-.72 1-.82l1.58-.19v.41c0 .8-.6 1.34-1.56 1.34zm0 0"/></symbol><symbol overflow="visible" id="0235f465z"><path d="M3.92-7.14H1.36v.76h1.6v5.61H1.15V0H5.7v-.77H3.92zm0 0"/></symbol><symbol overflow="visible" id="0235f465A"><path d="M3.34.14c1.43 0 2.13-.66 2.25-1.78l-.89-.1c-.1.7-.5 1.08-1.34 1.08-1.03 0-1.52-.64-1.52-1.84 0-1.23.47-1.86 1.52-1.86.84 0 1.23.36 1.34 1.08l.9-.1c-.13-1.09-.82-1.78-2.26-1.78-1.56 0-2.46.97-2.46 2.66 0 1.66.9 2.64 2.46 2.64zm0 0"/></symbol><symbol overflow="visible" id="0235f465H"><path d="M5.92-6.77H1.1V0h4.83v-.8H2.06v-2.26h3.22v-.75H2.06v-2.16h3.86zm0 0"/></symbol><symbol overflow="visible" id="0235f465I"><path d="M1.83 0l1.42-2h.06l1.46 2H5.8L4-2.53l1.78-2.49H4.8L3.42-3.08h-.08l-1.4-1.94H.89l1.78 2.49L.84 0zm0 0"/></symbol><symbol overflow="visible" id="0235f465J"><path d="M5.08-5.16c-.94 0-1.58.43-1.9 1.3h-.09l-.07-1.16H1.05v.77h1.1v3.48H.96V0h3.96v-.77H3.1v-1.46c0-1.36.6-2.05 1.83-2.05.4 0 .76.08 1.1.17l.15-.87c-.33-.11-.7-.18-1.11-.18zm0 0"/></symbol><symbol overflow="visible" id="0235f465K"><path d="M3.16 2.03c1.67 0 2.4-.86 2.4-2.51v-4.54h-.81l-.13.91h-.06c-.26-.58-.8-1.05-1.73-1.05-1.42 0-2.24 1-2.24 2.52 0 1.6.75 2.56 2.2 2.56.94 0 1.5-.5 1.77-1.03h.05v.72c0 1.17-.42 1.67-1.45 1.67-.93 0-1.3-.34-1.41-.89L.8.5c.12.96.87 1.54 2.36 1.54zM3.06-.8c-.98 0-1.48-.57-1.48-1.82 0-1.13.5-1.75 1.48-1.75 1.06 0 1.58.76 1.58 1.75 0 .95-.56 1.82-1.58 1.82zm0 0"/></symbol><symbol overflow="visible" id="0235f465X"><path d="M2.08-6.77h-.99V0h4.79v-.81h-3.8zm0 0"/></symbol><symbol overflow="visible" id="0235f465ak"><path d="M4.06-2.77c1.25-.04 1.92-.7 1.92-1.96 0-1.36-.7-2.04-2.17-2.04H.92V0h.97v-2.73h1.08L4.95 0h1.1zM1.9-6h1.7c1.07 0 1.46.34 1.46 1.28 0 .9-.44 1.27-1.47 1.27H1.89zm0 0"/></symbol><symbol overflow="visible" id="0235f465al"><path d="M2.73.14c.9 0 1.43-.45 1.74-1.08h.06l.13.94h.8v-5.02h-.94v2.7c0 .98-.57 1.62-1.46 1.62-.75 0-1.1-.4-1.1-1.22v-3.1h-.93v3.32c0 1.17.55 1.84 1.7 1.84zm0 0"/></symbol><symbol overflow="visible" id="0235f465ay"><path d="M1.64 0v-3.17l-.16-2.5h.1L2.9-1.83h.82l1.35-3.84h.1l-.16 2.5V0h.95v-6.77h-1.3l-1.3 3.82h-.09L2-6.77H.69V0zm0 0"/></symbol><symbol overflow="visible" id="0235f465az"><path d="M1.63 0v-2.9c0-.8.15-1.4.71-1.4.41 0 .55.3.55.88V0h.95v-2.9c0-.8.18-1.4.72-1.4.4 0 .57.3.57.88V0h.95v-3.63c0-.92-.28-1.53-1.11-1.53-.63 0-.95.41-1.1.9h-.06c-.1-.52-.44-.9-1.08-.9-.6 0-.93.41-1.06.9H1.6l-.23-.76H.67V0zm0 0"/></symbol><symbol overflow="visible" id="0235f465aM"><path d="M3.42.14c1.61 0 2.56-.75 2.56-2 0-1.1-.67-1.6-1.95-1.86l-.97-.2c-.87-.17-1.23-.49-1.23-1.11 0-.7.54-1.11 1.5-1.11 1.06 0 1.51.34 1.69 1.23l.9-.09c-.17-1.28-.98-1.9-2.6-1.9C1.79-6.9.9-6.18.9-4.98c0 1.06.66 1.66 1.88 1.9l1.01.2c.85.17 1.25.4 1.25 1.09 0 .73-.6 1.16-1.6 1.16-1.07 0-1.66-.4-1.8-1.24l-.94.1C.83-.53 1.75.13 3.42.13zm0 0"/></symbol><symbol overflow="visible" id="0235f465aN"><path d="M3.9.14c1.48 0 2.18-.98 2.18-2.64 0-1.67-.7-2.66-2.17-2.66-.91 0-1.49.41-1.79 1h-.06v-2.98h-.95V0h.81l.11-.9h.06c.29.63.82 1.04 1.82 1.04zm-.32-.8c-1.08 0-1.55-.8-1.55-1.84 0-1.06.47-1.86 1.55-1.86 1.1 0 1.51.61 1.51 1.86S4.64-.66 3.58-.66zm0 0"/></symbol><symbol overflow="visible" id="0235f465ba"><path d="M4.66-3.45c.76-.14 1.15-.67 1.15-1.57 0-1.07-.64-1.75-2.18-1.75H.92V0h2.71C5.2 0 5.98-.64 5.98-1.77c0-1.03-.56-1.43-1.32-1.59zM3.56-6c.9 0 1.31.4 1.31 1.13 0 .71-.4 1.14-1.3 1.14h-1.7V-6zM1.87-.75v-2.27H3.6c.97 0 1.44.33 1.44 1.13 0 .8-.47 1.14-1.44 1.14zm0 0"/></symbol><symbol overflow="visible" id="0235f465bz"><path d="M5.77-5.02H4.63L2.3-2.88h-.06v-4.26h-.94V0h.94v-2.31h.06L4.71 0h1.24L3.23-2.69zm0 0"/></symbol><symbol overflow="visible" id="0235f465q"><path d="M2.6-10.67C2.6-4.41 5.18.45 11.17.45c3.06 0 5.14-.72 7.39-2.03L18-2.7a14.02 14.02 0 01-6.48 1.76c-5.44 0-7.38-4.37-7.38-9.95 0-4.05 1.17-10.98 5.08-15.34a8.12 8.12 0 016.17-2.97c2.11 0 3.69.53 5.48 1.8l.82-1.13a9.61 9.61 0 00-6.13-2.06C6.53-30.6 2.61-18.5 2.61-10.67zm0 0"/></symbol><symbol overflow="visible" id="0235f465r"><path d="M6.03-20.6l-1.39.08L1.94 0h1.39l1.31-9.67h2.83c3.1 0 3.23 2.01 5.67 9.67h1.48c-.21-.55-.45-1.22-.71-2.1-1.4-4.15-2.08-7.26-3.93-8.17 2.13-.8 3.07-3.59 5.27-8.09.45-.9.69-1.53 1.05-2.2h-1.53c-3.52 7.92-4.33 9.67-6.75 9.67H4.77zm0 0"/></symbol><symbol overflow="visible" id="0235f465s"><path d="M1.98-7.6C1.94-2.84 3.95.57 7.97.57c5.67 0 9.05-7.6 9.12-13.4 0-4.68-1.89-8.34-5.98-8.34-5.75 0-9.13 7.85-9.13 13.55zm13.63-5.13c-.05 4.09-1.56 8.09-3.81 10.34-1 1-2.35 1.67-3.7 1.62-3.29 0-4.68-2.92-4.68-6.92.05-4.01 1.44-8.15 3.83-10.4a5.09 5.09 0 013.73-1.7c3.38 0 4.63 3.1 4.63 7.06zm0 0"/></symbol><symbol overflow="visible" id="0235f465t"><path d="M5.81-12.92c-1.58 5-2.8 9.69-4.83 11.44-.53.5-1.17.71-1.89.71L-1.08.36c.17.05.4.1.77.1.86 0 1.58-.27 2.25-.91 2.51-2.3 4.1-8.46 5.36-12.47.89-3.02 1.7-5.08 2.92-6.06.62-.5 1.39-.77 2.34-.77.85 0 1.61.17 2.11.27L12.11 0h1.44l2.7-20.52c-.77-.28-1.98-.59-3.69-.59-4.1 0-5.19 3.33-6.75 8.19zm0 0"/></symbol><symbol overflow="visible" id="0235f465u"><path d="M1.98-6.8C1.98-3.23 3.11.58 6.2.58c2.25 0 4.38-1.66 6.58-4.05L12.68.1 14 0c.17-3.47.36-5.08.48-6.3l1.72-12.73.05-.05c-1-.81-2.53-2.08-4.95-2.08-5.53 0-9.36 6.8-9.32 14.36zm1.49-.14c0-5.7 2.2-10.7 5.53-12.33a4.74 4.74 0 012.1-.53c1.42 0 2.59.49 3.62 1.18l-1.85 13.5C10.48-2.52 8.1-.78 6.4-.78c-2.03 0-2.92-2.82-2.92-6.17zm0 0"/></symbol><symbol overflow="visible" id="0235f465v"><path d="M1.98 10.8L3.47-.58C4.4.05 5.57.58 7.16.58c5.48 0 9.3-6.78 9.26-14.3 0-3.7-1.12-7.44-4.31-7.44-2.08 0-4.33 1.68-6.58 4.07l.14-3.57-1.31.1c-.22 3.83-.36 5.26-.49 6.43L.56 10.8zm10.04-30.6c2.03.05 2.92 2.83 2.92 6.16 0 5.67-2.11 10.77-5.44 12.33-.64.33-1.4.54-2.17.54a5.9 5.9 0 01-3.64-1.21L5.44-15.4c2.39-2.66 4.78-4.4 6.58-4.4zm0 0"/></symbol><symbol overflow="visible" id="0235f465B"><path d="M2.66-14.58C2.66-6.39 6.25.45 14.22.45c3.06 0 5.4-.8 7.65-2.08l-.71-1.7a13.9 13.9 0 01-6.72 1.8c-6.97 0-9.49-6.4-9.49-13.28 0-4.1.9-8.14 3.33-11.02a7.6 7.6 0 016.16-2.8c2.34 0 4.06.7 6.17 1.99l.95-1.67a11.2 11.2 0 00-7.08-2.28c-8.14 0-11.82 7.82-11.82 16.01zm0 0"/></symbol><symbol overflow="visible" id="0235f465C"><path d="M5.72-20.75l-2.08.1V0h2.08v-9.5h3.5c3.34 0 3.6 2.25 6.34 9.5h2.22c-.19-.36-.4-.94-.64-1.44-2.1-5.58-2.83-8.42-5.27-9.04 1.99-.86 2.61-3.29 4.1-7.79.45-1.26.64-2.03.81-2.43h-2.16c-2.2 7.15-2.34 9.45-5.89 9.45H5.72zm0 0"/></symbol><symbol overflow="visible" id="0235f465D"><path d="M2.52-10.22C2.52-4 5.44.58 10.44.58c5.72 0 8.14-5.94 8.14-11.06 0-6.18-2.97-10.8-7.9-10.8-5.77 0-8.16 5.98-8.16 11.06zm13.9 0c0 3.25-.81 6.03-2.37 7.61a4.91 4.91 0 01-3.43 1.34c-3.96 0-5.98-3.95-5.98-9.17 0-3.28.84-6.03 2.33-7.6a4.78 4.78 0 013.47-1.4c3.97 0 5.98 3.96 5.98 9.22zm0 0"/></symbol><symbol overflow="visible" id="0235f465E"><path d="M15.9-20.7H6.33l-.4 5.57C5.3-5.93 3.87-1.3.54-1.27V.36c.27.05.58.1 1 .1A3.6 3.6 0 004.18-.68c2.6-2.52 3.47-9.1 3.78-14.22l.26-4.02h5.58V0h2.08zm0 0"/></symbol><symbol overflow="visible" id="0235f465F"><path d="M4.55-9.36a5.58 5.58 0 00-2.52 4.67C2.03-1.44 4.05.45 6.9.45c2.3 0 4.67-1.12 6.75-3.25l.53 2.94 1.77-.28c-.33-4-.38-5.7-.38-7.16v-6.39c0-4.89-1.2-7.47-5.22-7.47-2.78 0-5.39 1.41-7.59 3.35l.94 1.3c1.98-1.58 4.33-2.8 6.44-2.8 2.7 0 3.37 1.93 3.37 6.62v.94c-4.28.4-7.2 1.13-8.95 2.4zm-.46 4.5c0-1.53.77-2.56 1.58-3.2 1.03-.8 2.78-1.4 7.83-1.97v5.34C11.44-2.52 9.14-1.3 7.2-1.3c-1.84 0-3.1-1.3-3.1-3.55zm0 0"/></symbol><symbol overflow="visible" id="0235f465G"><path d="M5.13-20.97l-1.75.22c.26 4.02.3 5.81.3 7.25v24.3h2.09V-.77A8.23 8.23 0 0010.3.58c6.2 0 8.55-5.99 8.55-11.38 0-5.86-2.7-10.48-7.2-10.48-2.52 0-4.29 1.34-6.08 3.14zm6.3 1.53c3.6 0 5.26 4.27 5.26 9 0 2.92-.67 5.9-2.25 7.61-1.03 1.08-2.25 1.56-4.1 1.56-1.65 0-3.04-.4-4.57-1.25v-13.9c2.01-1.85 3.64-3.02 5.67-3.02zm0 0"/></symbol><symbol overflow="visible" id="0235f465L"><path d="M2.47-10.7C2.47-4.36 5.07.45 11.25.45c3.16 0 5.27-.76 7.33-1.98L17.9-3.2c-1.54.75-3.6 1.61-6.2 1.61-5.1 0-7-4.1-7-9.36 0-4.54 1.42-11.15 5-15.08a7.8 7.8 0 015.68-2.56c2.06 0 3.69.55 5.36 1.72l1.03-1.67a9.47 9.47 0 00-6.17-2.06C6.44-30.6 2.47-18.67 2.47-10.7zm0 0"/></symbol><symbol overflow="visible" id="0235f465M"><path d="M6.6-20.8l-2.1.1L1.75 0h2.13l1.25-9.5h2.53c3.01 0 3.14 1.94 5.43 9.5h2.16c-.17-.55-.44-1.31-.72-2.25-1.34-4.28-2.01-7.2-3.83-8.06 2.13-.8 3.07-3.4 5.24-8.1.48-.98.75-1.7 1.08-2.34h-2.2c-3.35 7.83-4.02 9.5-6.54 9.5H5.36zm0 0"/></symbol><symbol overflow="visible" id="0235f465N"><path d="M1.84-7.73C1.8-2.93 3.88.57 8.02.57c5.98 0 9.36-7.63 9.43-13.5.05-4.71-1.89-8.4-6.15-8.4-6.08 0-9.4 7.83-9.46 13.6zm13.46-5.1c-.05 3.97-1.44 7.78-3.64 10.08a4.71 4.71 0 01-3.33 1.4C5.3-1.34 3.95-4.04 4-7.82c.05-3.92 1.36-7.87 3.6-10.12a4.96 4.96 0 013.38-1.44c3.14 0 4.32 2.78 4.32 6.56zm0 0"/></symbol><symbol overflow="visible" id="0235f465O"><path d="M5.77-12.69C4.19-7.83 3.1-3.88 1.3-2.16a3.3 3.3 0 01-2.12.77L-1.03.3c.17.05.48.14 1.03.14 1.03 0 1.9-.3 2.66-1.03C5.12-2.83 6.6-8.59 7.92-12.83c.9-2.78 1.63-4.76 2.75-5.8a3.7 3.7 0 012.16-.68c.81 0 1.53.14 1.98.23L12.28 0h2.13l2.73-20.66a13.6 13.6 0 00-4.14-.62c-4.63 0-5.58 3.42-7.23 8.6zm0 0"/></symbol><symbol overflow="visible" id="0235f465P"><path d="M1.84-6.84C1.84-3.16 2.97.58 6.17.58c2.25 0 4.46-1.56 6.52-3.86l.04 3.37 1.85-.14c.23-3.64.36-5.26.5-6.56l1.7-12.66.05-.04a8.61 8.61 0 00-5.31-2.02c-5.75 0-9.72 6.75-9.68 14.49zM4-7.2c0-5.32 1.98-9.94 5.05-11.7.67-.27 1.39-.5 2.15-.5 1.22 0 2.35.37 3.38.9l-1.8 13.1c-2.2 2.38-4.45 3.96-6.12 4C4.86-1.43 4-4.04 4-7.2zm0 0"/></symbol><symbol overflow="visible" id="0235f465Q"><path d="M2.52 10.8L3.95-.27a7.8 7.8 0 003.38.85c5.76 0 9.73-6.75 9.69-14.44 0-3.78-1.22-7.47-4.46-7.47-2.12 0-4.37 1.53-6.53 3.88l.05-3.38-1.85.13A78.6 78.6 0 013.7-14L.4 10.8zm9.64-30.2c1.84.09 2.68 2.71 2.68 5.85 0 5.27-1.92 9.96-4.98 11.66-.67.31-1.4.5-2.17.5a7.05 7.05 0 01-3.46-.9l1.75-13c2.25-2.5 4.46-4.02 6.18-4.1zm0 0"/></symbol><symbol overflow="visible" id="0235f465R"><path d="M2.52-14.53C2.52-6.25 6.3.45 14.32.45c3 0 5.48-.76 7.73-2.03l-.9-2.25c-1.98 1-4 1.67-6.48 1.67-6.75 0-9.14-6.12-9.14-12.65 0-3.86.86-7.78 3.16-10.49 1.34-1.65 3.33-2.64 5.98-2.64 2.2 0 3.96.58 5.99 1.8l1.21-2.2a11.78 11.78 0 00-7.2-2.25c-8.37 0-12.15 7.9-12.15 16.06zm0 0"/></symbol><symbol overflow="visible" id="0235f465S"><path d="M6.25-20.92l-2.73.1V0h2.73v-9.31h3.3c3.32 0 3.5 2.51 5.98 9.31h2.88c-.14-.4-.41-1.08-.63-1.67-1.94-5.13-2.6-8.19-5.22-8.86 2.02-.9 2.69-3.42 4.13-8.02.4-1.15.6-1.89.76-2.32h-2.82c-2.04 6.87-2.11 9.26-5.54 9.26H6.25zm0 0"/></symbol><symbol overflow="visible" id="0235f465T"><path d="M2.4-10.22c0 6.17 3 10.8 8.13 10.8 5.85 0 8.5-5.8 8.5-11.2 0-6.11-3.01-10.85-8.14-10.85-5.84 0-8.5 5.9-8.5 11.25zm13.8-.05c0 2.94-.72 5.58-2.15 7.08a4.57 4.57 0 01-3.25 1.35c-3.7 0-5.58-3.74-5.58-8.74 0-3.06.72-5.58 2.08-7.06a4.37 4.37 0 013.33-1.34c3.68 0 5.57 3.68 5.57 8.71zm0 0"/></symbol><symbol overflow="visible" id="0235f465U"><path d="M16.6-20.88H6.3l-.36 5.54C5.3-6.08 4.04-1.9.58-1.84v2.2c.28.05.73.1 1.22.1C3.06.45 4.1 0 4.86-.82c2.66-2.61 3.42-9.05 3.73-14.4l.22-3.34h5V0h2.8zm0 0"/></symbol><symbol overflow="visible" id="0235f465V"><path d="M4.6-9.67a5.88 5.88 0 00-2.7 4.95C1.9-1.48 3.94.45 6.93.45c2.28 0 4.58-1.12 6.65-3.1l.54 2.84 2.34-.38c-.27-4.12-.36-5.84-.36-7.33v-6.39c0-4.95-1.44-7.42-5.58-7.42-3.01 0-5.67 1.44-7.87 3.33l1.17 1.75c1.98-1.53 4.23-2.6 6.25-2.6 2.51 0 3.28 1.7 3.28 6.12v.8c-4.22.41-7.06 1.09-8.77 2.26zm.04 4.62c0-1.43.63-2.37 1.44-2.97.94-.71 2.6-1.25 7.28-1.75v4.82c-1.97 2.03-4.1 3.1-5.9 3.1-1.74 0-2.82-1.17-2.82-3.2zm0 0"/></symbol><symbol overflow="visible" id="0235f465W"><path d="M5.58-21.16l-2.4.33a89 89 0 01.38 7.47V10.8h2.78V-.77A7.62 7.62 0 0010.75.58c5.94 0 8.64-5.94 8.64-11.52 0-5.89-2.92-10.53-7.42-10.53-2.4 0-4.19 1.27-5.9 3.06zm6.03 2.18c3.33 0 4.9 3.9 4.9 8.5 0 2.75-.57 5.57-2.07 7.15-.9.99-2.06 1.49-3.77 1.49a8.32 8.32 0 01-4.33-1.18v-13.3c1.85-1.68 3.43-2.66 5.27-2.66zm0 0"/></symbol><symbol overflow="visible" id="0235f465Y"><path d="M2.34-10.7c0 6.39 2.7 11.15 9 11.15 3.24 0 5.4-.8 7.29-1.93l-.82-2.2a13.2 13.2 0 01-5.93 1.43c-4.77 0-6.57-3.78-6.57-8.78 0-4.99 1.63-11.28 4.9-14.75a7.33 7.33 0 015.23-2.16c1.98 0 3.6.53 5.17 1.57l1.31-2.16a9.96 9.96 0 00-6.26-2.06C6.34-30.6 2.34-18.86 2.34-10.7zm0 0"/></symbol><symbol overflow="visible" id="0235f465Z"><path d="M7.16-21.02l-2.8.14L1.62 0h2.79l1.21-9.31h2.2c2.93 0 3.02 1.8 5.23 9.31h2.84c-.19-.55-.45-1.44-.72-2.44-1.36-4.36-1.98-7.1-3.78-7.95 2.2-.77 3.05-3.25 5.27-8.11.48-1.03.76-1.8 1.07-2.42h-2.89c-3.18 7.69-3.73 9.31-6.25 9.31H5.94zm0 0"/></symbol><symbol overflow="visible" id="0235f465aa"><path d="M1.7-7.83C1.67-3.02 3.83.57 8.1.57c6.21 0 9.63-7.73 9.71-13.62.05-4.73-1.87-8.47-6.37-8.47-6.31 0-9.69 7.83-9.74 13.7zm13.24-5.12c0 3.9-1.3 7.54-3.42 9.84a4.48 4.48 0 01-2.97 1.17c-2.7 0-4-2.47-3.96-5.98.05-3.9 1.3-7.69 3.38-9.86a4.72 4.72 0 013.06-1.2c2.83 0 3.95 2.51 3.9 6.03zm0 0"/></symbol><symbol overflow="visible" id="0235f465ab"><path d="M5.67-12.52C4.1-7.73 3.2-4.5 1.63-2.82c-.6.52-1.49.79-2.35.79l-.31 2.3c.22.04.67.18 1.3.18C1.53.45 2.57.1 3.42-.72c2.4-2.25 3.74-7.56 5.17-12.01.82-2.57 1.49-4.5 2.47-5.49.55-.4 1.22-.64 2.03-.64.77 0 1.4.1 1.85.23L12.47 0h2.78L18-20.8c-.9-.26-2.47-.62-4.5-.62-5.17 0-6.08 3.47-7.83 8.9zm0 0"/></symbol><symbol overflow="visible" id="0235f465ac"><path d="M1.7-6.9C1.7-3.1 2.88.56 6.17.56c2.2 0 4.5-1.46 6.47-3.66l.14 3.25 2.4-.23c.21-3.83.38-5.49.52-6.85l1.68-12.54v-.05a9.72 9.72 0 00-5.63-1.99c-5.98 0-10.08 6.7-10.05 14.63zm2.9-.57c0-4.9 1.74-9.19 4.54-11.03.63-.27 1.4-.44 2.16-.44 1.07 0 2.1.22 3.1.67L12.7-5.67c-2.02 2.2-4.1 3.6-5.72 3.64-1.61-.08-2.38-2.47-2.38-5.44zm0 0"/></symbol><symbol overflow="visible" id="0235f465ad"><path d="M3.02 10.8L4.5-.1c.86.41 1.9.65 3.06.65C13.55.55 17.64-6.17 17.6-14c-.04-3.86-1.26-7.52-4.54-7.52-2.16 0-4.4 1.46-6.52 3.7l-.1-3.24-2.38.23c-.17 4.17-.36 5.53-.53 7.02L.27 10.79zm9.3-29.74c1.63.13 2.4 2.52 2.4 5.44 0 4.9-1.72 9.22-4.55 11.03-.62.31-1.36.49-2.1.49A7.6 7.6 0 014.8-2.7l1.67-12.5c2.11-2.25 4.2-3.66 5.85-3.74zm0 0"/></symbol><symbol overflow="visible" id="0235f465ae"><path d="M2.4-14.48C2.4-6.18 6.33.45 14.4.45c2.93 0 5.58-.76 7.79-1.98l-1.03-2.7a14.1 14.1 0 01-6.32 1.53c-6.56 0-8.86-5.8-8.86-12.07 0-3.73.82-7.54 3.02-10.12a7.23 7.23 0 015.84-2.56c2.13 0 3.88.54 5.86 1.72l1.4-2.66a12.21 12.21 0 00-7.29-2.2C6.25-30.6 2.4-22.64 2.4-14.5zm0 0"/></symbol><symbol overflow="visible" id="0235f465af"><path d="M6.66-21.06l-3.29.1V0h3.29v-9.19h3.1c3.33 0 3.47 2.7 5.72 9.19h3.43c-.14-.45-.46-1.17-.7-1.8-1.74-4.86-2.41-8.06-5.12-8.82 2.08-.85 2.75-3.5 4.14-8.15.36-1.07.58-1.75.77-2.25h-3.38c-1.89 6.7-1.89 9.1-5.26 9.1h-2.7zm0 0"/></symbol><symbol overflow="visible" id="0235f465ag"><path d="M2.25-10.22c0 6.17 3.1 10.8 8.38 10.8 5.93 0 8.76-5.7 8.76-11.33 0-6.08-3.06-10.84-8.33-10.84-5.94 0-8.81 5.84-8.81 11.37zm13.72-.1c0 2.76-.58 5.24-1.92 6.68a4.04 4.04 0 01-3.11 1.3c-3.52 0-5.27-3.47-5.27-8.33 0-2.88.67-5.3 1.9-6.7a4.2 4.2 0 013.18-1.3c3.52 0 5.22 3.5 5.22 8.36zm0 0"/></symbol><symbol overflow="visible" id="0235f465ah"><path d="M17.14-21.02H6.25l-.36 5.49C5.27-6.2 4.2-2.34.58-2.25V.31c.36.1.86.14 1.45.14 1.4 0 2.52-.5 3.38-1.39C8.06-3.59 8.73-9.9 9.05-15.39l.17-2.83h4.64V0h3.28zm0 0"/></symbol><symbol overflow="visible" id="0235f465ai"><path d="M4.64-9.9A5.89 5.89 0 001.8-4.82C1.8-1.53 3.92.45 6.94.45c2.28 0 4.58-1.07 6.56-3.01l.58 2.78 2.8-.4c-.27-4.23-.36-6-.36-7.5v-6.37c0-5.03-1.63-7.42-5.85-7.42-3.2 0-5.9 1.44-8.1 3.38l1.35 2.07c1.97-1.53 4.17-2.53 6.11-2.53 2.44 0 3.2 1.58 3.2 5.77v.67c-4.18.45-6.93 1.08-8.59 2.2zm.4 4.68c0-1.31.58-2.16 1.3-2.75.91-.62 2.57-1.17 6.9-1.58v4.43c-1.9 1.84-3.88 2.87-5.58 2.87-1.68 0-2.61-1.08-2.61-2.97zm0 0"/></symbol><symbol overflow="visible" id="0235f465aj"><path d="M5.9-21.33l-2.8.4c.27 4.27.32 6.12.32 7.65V10.8h3.33V-.77A7.43 7.43 0 0011.06.58c5.81 0 8.74-5.9 8.74-11.61 0-5.94-3.07-10.56-7.57-10.56-2.3 0-4.09 1.2-5.84 2.96zm5.85 2.66c3.14 0 4.63 3.64 4.63 8.19 0 2.6-.54 5.26-1.9 6.8-.89.88-1.92 1.38-3.59 1.38-1.44 0-2.8-.3-4.14-1.12v-12.83c1.7-1.53 3.28-2.42 5-2.42zm0 0"/></symbol><symbol overflow="visible" id="0235f465am"><path d="M2.25-10.75C2.25-4.28 5 .45 11.39.45c3.33 0 5.48-.86 7.23-1.89l-.89-2.6a13.81 13.81 0 01-5.71 1.34c-4.55 0-6.25-3.6-6.25-8.36 0-5.36 1.8-11.4 4.86-14.55a7.13 7.13 0 014.8-1.84c1.95 0 3.6.5 5.04 1.48L22-28.53a9.73 9.73 0 00-6.3-2.06C6.25-30.6 2.25-19 2.25-10.75zm0 0"/></symbol><symbol overflow="visible" id="0235f465an"><path d="M7.6-21.16l-3.32.14L1.53 0h3.28l1.22-9.19h1.94c2.87 0 2.92 1.72 5.03 9.19h3.38l-.77-2.56c-1.25-4.46-1.92-7.06-3.69-7.88 2.2-.72 3.06-3.1 5.27-8.1.5-1.09.81-1.9 1.08-2.52h-3.38c-3.06 7.6-3.5 9.18-6.08 9.18H6.4zm0 0"/></symbol><symbol overflow="visible" id="0235f465ao"><path d="M1.63-7.92C1.57-3.11 3.73.58 8.13.58c6.44 0 9.9-7.78 9.95-13.72.1-4.72-1.89-8.5-6.53-8.5-6.51 0-9.86 7.87-9.94 13.72zm13.09-5.13c-.05 3.86-1.22 7.33-3.25 9.68-.72.57-1.8.98-2.74.98C6.2-2.4 5-4.72 5-8.02c.08-3.86 1.3-7.51 3.28-9.62a4.23 4.23 0 012.75-1.03c2.66 0 3.74 2.3 3.69 5.62zm0 0"/></symbol><symbol overflow="visible" id="0235f465ap"><path d="M5.58-12.33c-1.53 4.64-2.3 7.38-3.74 9-.57.53-1.57.81-2.46.81L-1.03.22c.26.1.76.23 1.53.23A4.7 4.7 0 003.95-.8c2.4-2.2 3.66-7.25 5.14-11.83.77-2.4 1.4-4.33 2.3-5.31.53-.36 1.17-.6 1.92-.6.74 0 1.31.1 1.72.24L12.6 0h3.35l2.73-20.88a17.1 17.1 0 00-4.86-.68c-5.58 0-6.34 3.51-8.23 9.23zm0 0"/></symbol><symbol overflow="visible" id="0235f465aq"><path d="M1.63-6.94C1.63-3.06 2.8.55 6.13.55c2.25 0 4.54-1.36 6.51-3.52l.19 3.11 2.78-.28c.23-3.9.4-5.63.55-7.02l1.65-12.51v-.03a10.64 10.64 0 00-5.89-1.94c-6.15 0-10.34 6.66-10.3 14.7zm3.42-.72c0-4.62 1.56-8.64 4.14-10.53.67-.26 1.39-.43 2.15-.43.99 0 1.94.17 2.93.53L12.64-5.9C10.7-3.83 8.74-2.61 7.2-2.47 5.72-2.6 5.05-4.86 5.05-7.66zm0 0"/></symbol><symbol overflow="visible" id="0235f465ar"><path d="M3.42 10.8L4.86.05c.86.3 1.8.5 2.83.5 6.22 0 10.4-6.67 10.36-14.68-.05-3.87-1.32-7.51-4.64-7.51-2.16 0-4.46 1.34-6.52 3.6l-.14-3.15-2.8.27a73.25 73.25 0 01-.58 7.2L.15 10.8zm9-29.43c1.49.18 2.2 2.43 2.2 5.18 0 4.64-1.57 8.64-4.18 10.53a4.7 4.7 0 01-2.11.45c-1 0-2.03-.19-3.06-.6l1.62-12.1c2.02-2.11 3.95-3.33 5.53-3.46zm0 0"/></symbol><symbol overflow="visible" id="0235f465as"><path d="M2.3-14.44C2.3-6.04 6.4.46 14.48.46c2.9 0 5.63-.77 7.88-1.94l-1.2-3.16c-1.85.9-4.02 1.45-6.08 1.45-6.44 0-8.6-5.6-8.6-11.58 0-3.54.77-7.23 2.88-9.71a7.16 7.16 0 015.67-2.43c2.03 0 3.78.49 5.72 1.61l1.56-3.14a12.59 12.59 0 00-7.33-2.15c-8.78 0-12.68 8-12.68 16.15zm0 0"/></symbol><symbol overflow="visible" id="0235f465at"><path d="M7.1-21.19l-3.87.08V0h3.88v-9h2.92c3.28 0 3.38 2.88 5.45 9h3.96c-.17-.45-.5-1.27-.72-1.94-1.58-4.6-2.2-7.92-5.03-8.73 2.06-.9 2.78-3.6 4.12-8.31.33-1 .55-1.68.74-2.18h-3.97c-1.7 6.49-1.66 8.97-4.9 8.97H7.1zm0 0"/></symbol><symbol overflow="visible" id="0235f465au"><path d="M2.16-10.22C2.16-4.05 5.3.58 10.7.58c6.03 0 9.1-5.63 9.1-11.42 0-6.13-3.14-10.9-8.55-10.9-6.03 0-9.1 5.77-9.1 11.52zm13.64-.1c0 2.45-.55 4.79-1.72 6.23a4 4 0 01-3.02 1.26c-3.28 0-4.89-3.25-4.89-7.87 0-2.75.58-5 1.7-6.36a3.8 3.8 0 013.02-1.25c3.28 0 4.9 3.33 4.9 8zm0 0"/></symbol><symbol overflow="visible" id="0235f465av"><path d="M17.73-21.16H6.2l-.36 5.41c-.57 9.4-1.48 12.88-5.21 13V.27c.35.09.95.18 1.62.18 1.58 0 2.8-.6 3.73-1.48 2.66-2.75 3.24-8.9 3.57-14.63l.12-2.25h4.19V0h3.87zm0 0"/></symbol><symbol overflow="visible" id="0235f465aw"><path d="M4.64-10.13A6.08 6.08 0 001.7-4.86C1.7-1.58 3.83.45 6.97.45c2.3 0 4.55-1.07 6.48-2.89l.63 2.66 3.25-.44c-.27-4.37-.36-6.12-.36-7.7v-6.3c0-5.1-1.8-7.37-6.17-7.37-3.38 0-6.11 1.43-8.33 3.37L4-15.84c1.98-1.44 4.14-2.35 6.03-2.35 2.25 0 3.06 1.4 3.06 5.36v.6c-4.14.4-6.8 1.03-8.45 2.1zm.84 4.77c0-1.25.46-2.01 1.22-2.56.82-.58 2.44-1.03 6.4-1.4v3.96C11.33-3.64 9.5-2.7 7.87-2.7c-1.58 0-2.4-.94-2.4-2.66zm0 0"/></symbol><symbol overflow="visible" id="0235f465ax"><path d="M6.25-21.47l-3.28.4c.26 4.46.36 6.35.36 7.93V10.8H7.2V-.77A7.02 7.02 0 0011.44.58c5.62 0 8.81-5.9 8.81-11.74 0-5.93-3.23-10.57-7.73-10.57-2.2 0-4.07 1.17-5.72 2.87zm5.63 3.16c2.93 0 4.32 3.33 4.32 7.83 0 2.42-.45 4.95-1.67 6.39-.84.86-1.8 1.3-3.42 1.3-1.34 0-2.61-.27-3.9-1.04v-12.33c1.6-1.39 3.13-2.15 4.67-2.15zm0 0"/></symbol><symbol overflow="visible" id="0235f465aA"><path d="M2.1-10.8C2.1-4.23 4.96.45 11.48.45c3.42 0 5.6-.9 7.2-1.89l-1.03-3.01a13.5 13.5 0 01-5.48 1.22c-4.29 0-5.96-3.33-5.96-7.88 0-5.72 2.03-11.53 4.83-14.31a6.99 6.99 0 014.45-1.49c1.85 0 3.5.49 4.91 1.35l1.7-2.97a9.78 9.78 0 00-6.34-2.06c-9.58 0-13.64 11.46-13.64 19.8zm0 0"/></symbol><symbol overflow="visible" id="0235f465aB"><path d="M8.06-21.28l-3.87.12L1.39 0h3.88l1.21-9.05H8.1c2.8 0 2.85 1.68 4.86 9.05h3.97c-.19-.58-.45-1.58-.76-2.7-1.27-4.55-1.9-6.97-3.6-7.78 2.16-.72 2.97-2.97 5.22-8.1.49-1.17.8-2.03 1.08-2.6h-3.97c-2.92 7.5-3.23 9.02-5.84 9.02H6.89zm0 0"/></symbol><symbol overflow="visible" id="0235f465aC"><path d="M1.53-8.02C1.48-3.19 3.7.58 8.2.58c6.7 0 10.12-7.83 10.22-13.81.09-4.72-1.94-8.55-6.7-8.55-6.76 0-10.09 7.87-10.18 13.76zm12.9-5.12c-.02 3.78-1.12 7.1-3.09 9.45-.64.5-1.57.81-2.43.81-2.25 0-3.47-2.12-3.43-5.21.05-3.79 1.22-7.4 3.07-9.41.67-.5 1.62-.81 2.48-.81 2.42 0 3.45 2.01 3.4 5.17zm0 0"/></symbol><symbol overflow="visible" id="0235f465aD"><path d="M5.53-12.16C4-7.6 3.37-5.48 2.11-3.87c-.63.59-1.7.8-2.66.8L-1.03.2c.26.08.89.26 1.8.26C2.34.45 3.59 0 4.59-.9c2.3-2.2 3.5-6.92 5.04-11.68.68-2.18 1.3-4.07 2.12-5.05a3.43 3.43 0 011.84-.55c.63 0 1.18.1 1.54.19L12.78 0h3.88l2.78-20.97a18.7 18.7 0 00-5.22-.72c-6.03 0-6.7 3.55-8.69 9.53zm0 0"/></symbol><symbol overflow="visible" id="0235f465aE"><path d="M1.48-6.97C1.48-3.02 2.75.55 6.12.55c2.2 0 4.55-1.32 6.47-3.38L12.88.2 16.1-.2c.19-4.04.4-5.8.55-7.23l1.6-12.42v-.05c-1.3-.81-3.45-1.9-6.15-1.9-6.34 0-10.63 6.62-10.63 14.82zm4-.9c0-4.29 1.41-8.02 3.79-9.99.64-.28 1.36-.4 2.12-.4.9 0 1.8.12 2.73.4L12.6-6.13c-1.8 1.9-3.68 2.97-5.17 3.11-1.3-.17-1.94-2.2-1.94-4.86zm0 0"/></symbol><symbol overflow="visible" id="0235f465aF"><path d="M3.88 10.8L5.3.19c.77.22 1.66.36 2.57.36 6.39 0 10.7-6.67 10.62-14.77-.05-3.97-1.36-7.56-4.73-7.56-2.16 0-4.46 1.26-6.47 3.42l-.24-3.02-3.18.32c-.29 4.45-.41 5.81-.65 7.47L0 10.8zm8.68-29.07c1.35.18 1.97 2.25 1.97 4.91 0 4.27-1.39 8-3.78 9.94a4.9 4.9 0 01-2.16.45c-.9 0-1.84-.14-2.82-.45l1.56-11.66c1.86-1.98 3.7-3.06 5.23-3.19zm0 0"/></symbol><symbol overflow="visible" id="0235f465aG"><path d="M2.16-14.4C2.16-5.95 6.48.44 14.58.44c2.84 0 5.72-.72 7.97-1.89l-1.36-3.64c-1.8.8-4.05 1.25-5.9 1.25-6.24 0-8.27-5.26-8.27-10.89 0-3.37.76-6.97 2.7-9.26a7.11 7.11 0 015.53-2.35c1.94 0 3.66.5 5.55 1.53l1.8-3.68a13.63 13.63 0 00-7.43-2.11c-9 0-13.01 8.04-13.01 16.18zm0 0"/></symbol><symbol overflow="visible" id="0235f465aH"><path d="M7.66-21.38l-4.55.1V0h4.55v-8.86h2.65c3.28 0 3.28 3.14 5.13 8.86h4.62c-.17-.5-.53-1.4-.75-2.1-1.4-4.24-2.03-7.76-4.95-8.6 2.06-.96 2.83-3.78 4.19-8.52.26-.89.43-1.53.62-2.1h-4.6c-1.52 6.24-1.38 8.76-4.59 8.76H7.66zm0 0"/></symbol><symbol overflow="visible" id="0235f465aI"><path d="M2.03-10.17C2.03-4.1 5.27.58 10.84.58c6.13 0 9.41-5.49 9.41-11.56 0-6.08-3.23-10.94-8.78-10.94-6.11 0-9.44 5.72-9.44 11.75zm13.53-.17c0 2.15-.39 4.3-1.48 5.7a3.69 3.69 0 01-2.83 1.26c-3.06 0-4.55-3.01-4.55-7.46 0-2.52.5-4.6 1.49-5.85.5-.6 1.39-1.26 2.84-1.26 3.1 0 4.53 3.1 4.53 7.6zm0 0"/></symbol><symbol overflow="visible" id="0235f465aJ"><path d="M18.45-21.33H6.17l-.36 5.36C5.21-6.48 4.5-3.42.67-3.28V.27c.36.09 1.08.18 1.85.18 1.76 0 3.1-.64 4.09-1.67C9.3-4 9.8-10.03 10.12-15.94l.1-1.65h3.69V0h4.54zm0 0"/></symbol><symbol overflow="visible" id="0235f465aK"><path d="M4.69-10.4a6.2 6.2 0 00-3.11 5.45c0 3.33 2.15 5.4 5.39 5.4 2.3 0 4.5-1.03 6.39-2.8l.69 2.62 3.76-.54c-.26-4.45-.36-6.26-.36-7.87v-6.27c0-5.17-2.01-7.37-6.51-7.37-3.56 0-6.35 1.44-8.55 3.37l1.7 2.85c2.04-1.46 4.1-2.22 5.9-2.22 2.12 0 2.93 1.22 2.93 4.9v.46c-4.06.4-6.62.98-8.23 2.03zm1.3 4.82c0-1.08.35-1.8 1.07-2.25.77-.54 2.3-.95 5.86-1.22v3.47c-1.62 1.53-3.3 2.4-4.83 2.4-1.43 0-2.1-.87-2.1-2.4zm0 0"/></symbol><symbol overflow="visible" id="0235f465aL"><path d="M6.66-21.64l-3.83.48c.28 4.55.36 6.49.36 8.11V10.8h4.54V-.77a6.47 6.47 0 004.1 1.35c5.4 0 8.92-5.85 8.92-11.88 0-5.93-3.42-10.62-7.92-10.62-2.13 0-3.97 1.12-5.63 2.8zm5.4 3.69c2.66 0 4 3.06 4 7.42 0 2.25-.4 4.64-1.53 5.94-.72.8-1.6 1.26-3.1 1.26a7.2 7.2 0 01-3.7-.95v-11.74c1.49-1.26 2.97-1.93 4.33-1.93zm0 0"/></symbol><symbol overflow="visible" id="0235f465aO"><path d="M1.98-10.8C1.98-4.23 4.86.45 11.52.45c3.51 0 5.76-.95 7.2-1.84l-1.17-3.52c-1.13.5-3.11 1.08-5.22 1.08-3.96 0-5.53-3.1-5.53-7.33 0-6.17 2.2-11.7 4.67-14.04a7.1 7.1 0 014.01-1.13c1.8 0 3.46.5 4.77 1.27l1.94-3.47c-1.44-1.17-3.47-2.06-6.4-2.06C6.09-30.6 2-19.31 2-10.8zm0 0"/></symbol><symbol overflow="visible" id="0235f465aP"><path d="M8.6-21.47l-4.55.14L1.27 0H5.8l1.13-8.9h1.34c2.7 0 2.75 1.57 4.6 8.9h4.62c-.13-.58-.44-1.67-.77-2.88-1.2-4.59-1.84-6.89-3.5-7.65 2.16-.67 2.97-2.83 5.22-8.1.49-1.21.86-2.17 1.08-2.75h-4.6c-2.74 7.43-2.96 8.86-5.62 8.86H7.42zm0 0"/></symbol><symbol overflow="visible" id="0235f465aQ"><path d="M1.4-8.1C1.33-3.27 3.6.59 8.22.59c6.97 0 10.44-7.9 10.54-13.9.04-4.77-1.94-8.63-6.94-8.63-6.97 0-10.35 7.87-10.44 13.86zm12.72-5.13c0 3.68-.98 6.8-2.87 9.18-.55.4-1.44.58-2.1.58-2 0-3.17-1.89-3.12-4.72.05-3.78 1.17-7.15 2.88-9.19.59-.35 1.43-.57 2.15-.57 2.17 0 3.11 1.8 3.06 4.72zm0 0"/></symbol><symbol overflow="visible" id="0235f465aR"><path d="M5.44-11.92c-1.52 4.4-2.02 5.84-3 7.42-.69.58-1.86.86-2.9.86L-1.02.14C-.72.27 0 .45 1.03.45c1.8 0 3.2-.5 4.24-1.48 2.3-2.16 3.37-6.53 5-11.44.62-1.97 1.2-3.83 1.84-4.81a3.2 3.2 0 011.75-.5c.55 0 1.08.1 1.39.19L12.92 0h4.53l2.8-21.1a23.08 23.08 0 00-5.58-.77c-6.58 0-7.15 3.65-9.23 9.95zm0 0"/></symbol><symbol overflow="visible" id="0235f465aS"><path d="M1.4-7.02C1.4-2.97 2.6.55 6.11.55c2.16 0 4.55-1.27 6.47-3.25l.33 2.89 3.74-.46c.21-4.14.4-5.93.57-7.42l1.58-12.37c-1.39-.86-3.68-1.9-6.48-1.9-6.56 0-10.94 6.62-10.94 14.94zm4.63-1.07c0-3.93 1.17-7.35 3.33-9.36.62-.33 1.34-.4 2.08-.4.8 0 1.65.07 2.51.3L12.52-6.39c-1.68 1.67-3.38 2.66-4.83 2.8-1.13-.24-1.66-2.04-1.66-4.5zm0 0"/></symbol><symbol overflow="visible" id="0235f465aT"><path d="M4.36 10.8L5.76.27c.77.18 1.54.28 2.3.28 6.61 0 11.06-6.63 10.97-14.9-.05-4.06-1.39-7.6-4.81-7.6-2.2 0-4.5 1.15-6.53 3.28l-.32-2.9-3.64.38c-.26 4.63-.4 5.94-.62 7.74L-.14 10.8zm8.33-28.66c1.17.22 1.72 2.11 1.72 4.55 0 3.9-1.18 7.28-3.35 9.36-.62.26-1.39.39-2.1.39-.87 0-1.71-.08-2.62-.36l1.44-11.06c1.77-1.8 3.47-2.7 4.9-2.88zm0 0"/></symbol><symbol overflow="visible" id="0235f465aU"><path d="M1.9-14.44C1.9-5.8 6.4.46 14.57.46a18 18 0 008.19-1.9l-1.44-4.23a14.87 14.87 0 01-5.67 1.17c-5.99 0-7.83-5.13-7.83-10.4 0-3.15.72-6.43 2.51-8.5a6.66 6.66 0 015.22-2.26c1.9 0 3.52.46 5.31 1.41l2.04-4.23a13.72 13.72 0 00-7.66-2.11c-9.08 0-13.36 7.95-13.36 16.15zm0 0"/></symbol><symbol overflow="visible" id="0235f465aV"><path d="M8.33-21.64l-5.5.08V0h5.5v-8.69h2.25c3.06 0 3.06 2.88 4.81 8.69h5.58c-.14-.5-.53-1.58-.77-2.52-1.34-4.37-2.06-7.51-4.9-8.32 2.15-.91 2.92-3.64 4.18-8.38.32-1.08.5-1.8.72-2.37h-5.57c-1.44 6.06-1.27 8.67-4.32 8.67H8.33zm0 0"/></symbol><symbol overflow="visible" id="0235f465aW"><path d="M1.8-10.31C1.8-4.2 5.08.58 11.03.58c6.35 0 9.9-5.4 9.9-11.69 0-6.08-3.29-11.08-9.23-11.08-6.34 0-9.9 5.63-9.9 11.88zm13.45-.13c0 2.06-.36 4.14-1.3 5.4a2.97 2.97 0 01-2.48 1.17c-2.74 0-4.05-2.97-4.05-7.07 0-2.37.5-4.45 1.36-5.62.4-.58 1.2-1.17 2.47-1.17 2.75 0 4 3.15 4 7.3zm0 0"/></symbol><symbol overflow="visible" id="0235f465aX"><path d="M19.63-21.6H5.93l-.3 5.54C5.08-7.2 4.36-4.2.63-4.1V.2c.45.15 1.26.24 2.25.24a5.6 5.6 0 004.45-1.84c2.6-2.84 3.1-8.64 3.37-14.58l.1-1.31h3.32V0h5.5zm0 0"/></symbol><symbol overflow="visible" id="0235f465aY"><path d="M4.31-10.48A6.2 6.2 0 001.4-5.12C1.4-1.58 3.64.45 6.97.45c2.34 0 4.55-1.07 6.39-2.89l.9 2.75 4.37-.62a154 154 0 01-.36-8.19v-5.98c0-5.14-2.2-7.57-7.2-7.57-3.6 0-6.62 1.4-8.87 3.24l1.75 3.33a11.5 11.5 0 015.96-1.97c2.06 0 2.82 1.03 2.82 4.4v.36c-4 .4-6.7 1.03-8.42 2.2zm2.3 4.54c0-1 .33-1.67.95-2.12.67-.44 2.07-.8 5.17-1.08v3.52C11.3-4.37 9.86-3.7 8.6-3.7c-1.39 0-1.98-.81-1.98-2.25zm0 0"/></symbol><symbol overflow="visible" id="0235f465aZ"><path d="M6.97-21.92l-4.45.6c.28 4.76.35 6.74.35 8.45V10.7h5.58V-.77A6.26 6.26 0 0012.52.58c5.12 0 8.9-5.8 8.9-11.97 0-6.06-3.42-10.8-7.97-10.8-2.2 0-4.04 1.17-5.72 2.92zm5.19 4.23c2.37 0 3.54 2.85 3.54 7.07 0 2.12-.3 4.37-1.3 5.62-.63.72-1.45 1.13-2.74 1.13a6.8 6.8 0 01-3.2-.77v-11.47c1.3-1.03 2.57-1.58 3.7-1.58zm0 0"/></symbol><symbol overflow="visible" id="0235f465bb"><path d="M1.75-10.94c0 6.85 3.06 11.4 9.81 11.4 3.69 0 6.03-.96 7.42-1.8l-1.07-4.1c-1.22.44-3.2.94-5.13.94-3.83 0-5.22-3.02-5.22-7.06 0-5.58 2.02-10.75 4.32-12.97a7.05 7.05 0 013.92-1.13c1.75 0 3.47.46 4.67 1.13l2.08-4c-1.44-1.17-3.57-2.06-6.61-2.06C5.8-30.6 1.75-19.4 1.75-10.94zm0 0"/></symbol><symbol overflow="visible" id="0235f465bc"><path d="M9.31-21.73l-5.48.14L.98 0h5.5l1.13-8.73h1.12c2.47 0 2.47 1.57 4.14 8.73h5.58c-.14-.58-.45-1.75-.76-3.06-1.13-4.6-1.72-6.88-3.52-7.64 2.25-.64 3.06-2.75 5.27-8.07.6-1.3.9-2.3 1.17-2.87h-5.58c-2.6 7.28-2.8 8.77-5.31 8.77H8.14zm0 0"/></symbol><symbol overflow="visible" id="0235f465bd"><path d="M1.17-8.19C1.13-3.33 3.52.58 8.5.58c7.6 0 10.98-8.19 11.08-14.08.05-4.81-2.13-8.73-7.4-8.73-7.59 0-10.91 8.15-11 14.04zM14-13.45c0 3.37-.9 6.75-2.56 9.1-.5.3-1.31.47-1.94.47-1.77 0-2.8-1.75-2.75-4.35.05-3.43 1.03-7.02 2.6-9.05.5-.31 1.28-.5 1.95-.5 1.89 0 2.75 1.62 2.7 4.33zm0 0"/></symbol><symbol overflow="visible" id="0235f465be"><path d="M5.27-12.42c-1.4 4.04-1.9 5.62-2.93 7.2-.64.58-1.76.81-2.8.81L-1.07.14c.4.08 1.3.31 2.52.31 1.94 0 3.37-.5 4.54-1.67 2.25-2.25 3.29-6.44 4.86-11.47.6-1.84 1.08-3.51 1.68-4.37.4-.27.93-.4 1.48-.4.48 0 .94.04 1.2.13L12.95 0h5.5l2.78-21.33c-1.25-.31-3.5-.81-6.2-.81-6.75 0-7.7 3.56-9.76 9.72zm0 0"/></symbol><symbol overflow="visible" id="0235f465bf"><path d="M1.17-7.02c0 4.1 1.3 7.57 4.86 7.57 2.2 0 4.64-1.27 6.61-3.3L13.1.27l4.41-.58c.23-4.4.45-6.17.64-7.83L19.7-20.3c-1.6-.89-4.17-1.93-7.01-1.93-6.92 0-11.52 6.48-11.52 15.21zM6.8-8.23c0-3.57 1.03-6.94 2.97-9.05a5.55 5.55 0 011.98-.36c.67 0 1.4.1 2.1.22L12.48-6.53c-1.49 1.4-2.97 2.22-4.28 2.39-.94-.31-1.4-1.9-1.4-4.1zm0 0"/></symbol><symbol overflow="visible" id="0235f465bg"><path d="M5.08 10.7L6.48.36c.58.14 1.2.19 1.85.19 6.92 0 11.6-6.44 11.56-15.13-.05-4.14-1.44-7.65-4.95-7.65-2.2 0-4.6 1.21-6.66 3.37l-.45-3.06-4.36.55c-.28 4.76-.45 6.2-.67 8.09L-.4 10.7zm7.75-28.25c.98.27 1.44 1.94 1.44 4.1 0 3.51-1.04 6.97-2.97 9.04-.6.22-1.32.36-2.08.36-.67 0-1.4-.1-2.16-.23L8.5-15.12c1.53-1.49 3.02-2.3 4.33-2.43zm0 0"/></symbol><symbol overflow="visible" id="0235f465bh"><path d="M1.44-14.48C1.44-5.58 6.3.45 14.67.45c3.74 0 6.52-.8 8.6-1.89L21.59-6.7c-1.6.58-3.59.93-5.21.93-5.54 0-7.11-4.8-7.11-9.4 0-2.69.67-5.49 2.2-7.24a6.1 6.1 0 014.78-1.98c1.75 0 3.06.36 4.81 1.12l2.42-5.21c-1.75-1.08-4.14-2.11-8.09-2.11-9.14 0-13.95 7.82-13.95 16.1zm0 0"/></symbol><symbol overflow="visible" id="0235f465bi"><path d="M9.58-22.14L2.25-22V0h7.33v-8.42h1.48c2.66 0 2.66 2.34 4.19 8.42h7.44c-.14-.55-.55-1.98-.86-3.19-1.27-4.64-2.13-7.2-4.86-7.87 2.42-.86 3.19-3.42 4.31-8.16.31-1.3.6-2.25.77-2.87h-7.38c-1.26 5.8-.95 8.54-3.78 8.54H9.58zm0 0"/></symbol><symbol overflow="visible" id="0235f465bj"><path d="M1.31-10.48C1.31-4.36 4.71.58 11.4.58c6.75 0 10.8-5.17 10.8-11.88 0-6.07-3.38-11.34-10.03-11.34-6.72 0-10.85 5.45-10.85 12.16zm13.4-.1c0 1.9-.3 3.74-1 4.86-.35.55-.88 1-1.84 1-2.1 0-3.06-2.94-3.06-6.44 0-2.07.38-4.14 1-5.17.36-.6.9-1 1.85-1 2.1 0 3.06 3.16 3.06 6.75zm0 0"/></symbol><symbol overflow="visible" id="0235f465bk"><path d="M21.88-22.1H5.57l-.31 5.85C4.8-8.59 4.09-5.62.57-5.58V.2c.56.12 1.59.26 3 .26 2.32 0 3.95-.8 5.12-2.2 2.42-2.84 2.92-8.28 3.14-14.31l.04-.72h2.66V0h7.35zm0 0"/></symbol><symbol overflow="visible" id="0235f465bl"><path d="M3.69-10.63A6.13 6.13 0 001.03-5.4C1.03-1.58 3.52.45 6.97.45c2.34 0 4.6-1.17 6.34-3.01L14.62.3l5.49-.81c-.27-4.9-.36-6.92-.36-8.72v-5.45c0-5.08-2.56-7.83-8.45-7.83-3.61 0-7.07 1.22-9.46 2.97l1.85 4.28c1.84-1 4.14-1.67 6.03-1.67 1.94 0 2.7.86 2.7 3.6v.18c-3.97.36-6.94 1.12-8.73 2.52zm4 4.02c0-.81.23-1.4.76-1.81.5-.4 1.72-.67 3.97-.85v3.55a5.22 5.22 0 01-2.97 1.17C8.2-4.55 7.7-5.3 7.7-6.6zm0 0"/></symbol><symbol overflow="visible" id="0235f465bm"><path d="M7.52-22.45l-5.58.8c.26 5.09.4 7.21.4 9.09v23.14h7.43V-.77A6.23 6.23 0 0013.72.55c4.73 0 8.92-5.63 8.92-12.16 0-6.25-3.37-11.03-8.02-11.03-2.39 0-4.28 1.17-5.84 3.02zm4.9 5.26c1.8 0 2.66 2.42 2.66 6.3 0 1.94-.27 4-.96 5.12-.43.64-1.03.96-2.06.96a5.3 5.3 0 01-2.3-.5v-10.9a4.75 4.75 0 012.66-.98zm0 0"/></symbol><symbol overflow="visible" id="0235f465bn"><path d="M1.31-11.16C1.31-3.83 4.71.5 11.56.5c4 0 6.63-1.05 7.97-1.84L18.5-6.48c-1.27.36-3.25.76-4.86.76C9.98-5.72 9-8.69 9-12.28c0-4.5 1.67-9 3.56-11.08a7.3 7.3 0 013.81-.98c1.68 0 3.38.36 4.55.9l2.25-5.04c-1.44-1.13-3.69-2.11-6.97-2.11-10.8 0-14.89 10.96-14.89 19.43zm0 0"/></symbol><symbol overflow="visible" id="0235f465bo"><path d="M10.63-22.23l-7.3.14L.45 0h7.28l1.08-8.42h.77c2.03 0 1.98 1.58 3.25 8.42h7.37l-.72-3.42c-.93-4.6-1.53-6.9-3.54-7.56 2.33-.58 3.19-2.57 5.39-8 .6-1.54.95-2.61 1.17-3.16h-7.3c-2.28 7.16-2.42 8.64-4.72 8.64H9.5zm0 0"/></symbol><symbol overflow="visible" id="0235f465bp"><path d="M.77-8.38C.77-3.46 3.33.59 9.05.59c8.68 0 11.97-8.67 11.97-14.35.04-4.9-2.44-8.95-8.24-8.95C4.05-22.72.81-14.08.77-8.38zm13-5.48c0 2.83-.72 6.56-2.02 8.81-.4.28-1.05.4-1.58.4-1.31 0-2.1-1.43-2.08-3.68 0-2.83.77-6.7 2.04-8.81a3.4 3.4 0 011.57-.36c1.4 0 2.07 1.34 2.07 3.64zm0 0"/></symbol><symbol overflow="visible" id="0235f465bq"><path d="M4.95-13.31C3.83-9.91 3.23-8.14 2.3-6.56c-.63.53-1.72.8-2.7.8l-.82 5.8c.55.18 1.8.41 3.33.41 2.25 0 3.87-.6 5.14-1.98 2.2-2.34 3.23-6.3 4.72-11.52.45-1.62.86-2.92 1.26-3.6.27-.13.68-.27 1.08-.27.31 0 .67.05.86.1L12.95 0h7.25l2.88-21.73a28.26 28.26 0 00-7.38-.96c-7.06 0-8.73 3.38-10.75 9.38zm0 0"/></symbol><symbol overflow="visible" id="0235f465br"><path d="M.77-7.06C.77-2.8 2.2.54 5.94.54c2.2 0 4.68-1.26 6.75-3.42l.76 3.24 5.68-.81c.26-4.82.45-6.52.71-8.46l1.54-11.84a20.2 20.2 0 00-8.07-1.97C5.71-22.72.77-16.47.77-7.06zM8.23-8.5c0-2.8.77-6.27 2.25-8.42.5-.17 1.13-.27 1.85-.27.45 0 .86.05 1.31.1L12.28-6.84a6.99 6.99 0 01-3.14 1.76c-.64-.5-.9-1.62-.9-3.42zm0 0"/></symbol><symbol overflow="visible" id="0235f465bs"><path d="M6.4 10.53L7.72.5c.33 0 .7.05 1 .05 7.6 0 12.74-6.17 12.7-15.58 0-4.24-1.45-7.69-5.23-7.69-2.12 0-4.64 1.2-6.8 3.45l-.8-3.28-5.63.82c-.31 5.04-.5 6.8-.77 8.8L-.9 10.54zm6.65-27.6c.64.46.95 1.68.95 3.35 0 2.83-.81 6.3-2.3 8.45-.5.2-1.17.27-1.89.27-.45 0-.86-.05-1.31-.08l1.36-10.31a7.1 7.1 0 013.19-1.67zm0 0"/></symbol><symbol overflow="visible" id="0235f465bt"><path d="M.9-14.58C.9-5.36 6.18.45 14.73.45c4.4 0 7.1-.9 9.1-1.89l-1.95-6.48c-1.43.45-3.25.72-4.68.72-5 0-6.2-4.46-6.2-8.28 0-2.25.53-4.36 1.8-5.8.9-1 2.29-1.67 4.18-1.67 1.6 0 2.66.23 4.31.76l2.9-6.3c-1.77-1.03-4.12-2.1-8.62-2.1C6.3-30.6.91-22.91.91-14.58zm0 0"/></symbol><symbol overflow="visible" id="0235f465bu"><path d="M10.98-22.72l-9.36.17V0h9.36v-8.1h.58c2.3 0 2.25 1.76 3.61 8.1h9.44c-.13-.55-.58-2.4-.94-4-1.17-4.86-2.15-6.84-4.76-7.34 2.65-.82 3.45-3.2 4.45-7.88.31-1.6.58-2.73.77-3.42h-9.36c-1.08 5.45-.64 8.37-3.2 8.37h-.59zm0 0"/></symbol><symbol overflow="visible" id="0235f465bv"><path d="M.81-10.75C.81-4.59 4.31.58 11.8.58c7.14 0 11.78-4.94 11.78-12.05 0-6.17-3.47-11.75-10.94-11.75C5.48-23.22.81-17.86.81-10.75zm13.27 0c0 1.66-.22 3.28-.63 4.22-.26.55-.53.76-1.12.76-1.4 0-1.99-2.78-1.99-5.67 0-1.65.29-3.73.64-4.67.27-.55.54-.77 1.13-.77 1.39 0 1.97 3.2 1.97 6.13zm0 0"/></symbol><symbol overflow="visible" id="0235f465bw"><path d="M24.34-22.64H5.17l-.31 6.17c-.31 6.3-1.08 9.22-4.31 9.22v7.4c.62.12 1.89.3 3.73.3 2.78 0 4.67-.95 5.94-2.6 2.25-2.85 2.7-7.88 2.92-14v-.05h1.84V0h9.36zm0 0"/></symbol><symbol overflow="visible" id="0235f465bx"><path d="M2.97-10.8A6.09 6.09 0 00.62-5.77C.63-1.53 3.33.45 6.97.45c2.39 0 4.64-1.3 6.34-3.2l1.77 3.1 6.75-1.02c-.27-5.27-.4-7.42-.4-9.36v-4.78c0-5.13-2.93-8.27-9.87-8.27-3.64 0-7.64 1.08-10.12 2.69l1.94 5.36c1.7-.67 4.18-1.27 6.12-1.27 1.8 0 2.52.6 2.52 2.61-3.83.38-7.07 1.27-9.05 2.9zm5.98 3.43c0-.6.14-1.13.55-1.44.31-.33 1.2-.55 2.52-.6v3.43c-.55.3-1.08.5-1.58.5-1.13 0-1.49-.72-1.49-1.9zm0 0"/></symbol><symbol overflow="visible" id="0235f465by"><path d="M8.19-23.05l-6.92 1c.3 5.53.43 7.78.43 9.86V10.4h9.55V-.7A6.08 6.08 0 0015.17.54c4.17 0 8.86-5.46 8.86-12.43 0-6.43-3.33-11.34-8.06-11.34-2.56 0-4.5 1.27-6.06 3.19zm4.45 6.44c1.27 0 1.72 1.98 1.72 5.45 0 1.66-.19 3.55-.55 4.5-.22.49-.58.77-1.3.77-.45 0-.85-.1-1.26-.24V-16.2c.55-.27 1.03-.4 1.4-.4zm0 0"/></symbol><symbol overflow="visible" id="0235f465bA"><path d="M.86-11.4C.86-3.55 4.59.59 11.56.59c4.4 0 7.3-1.16 8.55-1.9l-.94-6.34c-1.31.33-3.33.6-4.64.6-3.33 0-3.9-2.88-3.9-6.03 0-3.33 1.2-7.02 2.73-8.86.86-.6 2.25-.96 3.7-.96 1.52 0 3.24.27 4.36.63l2.47-6.2c-1.44-1.08-3.83-2.11-7.42-2.11C4.9-30.6.86-19.9.86-11.4zm0 0"/></symbol><symbol overflow="visible" id="0235f465bB"><path d="M12.1-22.81l-9.27.22L-.14 0h9.28l1.08-8.1h.31c1.53 0 1.44 1.62 2.3 8.1h9.36c-.14-.67-.36-2.1-.67-3.83-.77-4.6-1.32-6.87-3.66-7.47 2.48-.53 3.42-2.39 5.58-7.97.64-1.7 1.04-2.92 1.26-3.45h-9.3c-2 6.97-2 8.45-4 8.45h-.37zm0 0"/></symbol><symbol overflow="visible" id="0235f465bC"><path d="M.31-8.6c0 5 2.85 9.18 9.31 9.18 9.96 0 13.1-9.22 13.07-14.66.03-5-2.75-9.19-9.28-9.19C3.47-23.27.36-14.05.3-8.59zm13.14-5.71c.05 2.15-.5 6.34-1.34 8.54-.31.2-.77.24-1.17.24-.81 0-1.36-1.08-1.36-2.9 0-2.15.54-6.34 1.4-8.54.36-.12.77-.22 1.18-.22.84 0 1.3 1.08 1.3 2.88zm0 0"/></symbol><symbol overflow="visible" id="0235f465bD"><path d="M4.6-14.31c-.87 2.65-1.5 4.64-2.44 6.22-.58.48-1.58.76-2.52.76l-.98 7.28c.72.24 2.32.5 4.26.5 2.61 0 4.38-.64 5.81-2.34 2.16-2.52 3.07-6.13 4.46-11.56.4-1.36.62-2.25.81-2.7.17-.1.4-.15.63-.15.18 0 .35 0 .5.05L12.95 0h9.28l2.93-22.23a37.74 37.74 0 00-8.64-1.04c-7.47 0-9.96 3.2-11.93 8.96zm0 0"/></symbol><symbol overflow="visible" id="0235f465bE"><path d="M.31-7.06c0 4.4 1.63 7.6 5.5 7.6 2.2 0 4.72-1.21 6.97-3.56L13.91.5l7.01-1.08c.31-5.31.5-6.98.81-9.19l1.54-11.46a25.87 25.87 0 00-9.22-2.04C5.67-23.27.27-17.28.3-7.07zm9.5-1.72c0-2.02.53-5.49 1.53-7.74.41-.09.94-.14 1.66-.14h.4l-1.24 9.41c-.64.45-1.27.86-1.94 1.05a5.65 5.65 0 01-.4-2.58zm0 0"/></symbol><symbol overflow="visible" id="0235f465bF"><path d="M7.88 10.31L9.18.55h.04c8.33 0 13.95-5.82 13.95-16.08 0-4.36-1.44-7.74-5.48-7.74-2.13 0-4.74 1.22-7.07 3.52l-1.17-3.47-7.06 1.08c-.33 5.31-.55 7.42-.81 9.62l-3.02 22.83zm5.4-26.78c.31.67.4 1.34.4 2.47 0 2.03-.5 5.58-1.5 7.8-.38.12-1.02.12-1.79.12h-.31l1.26-9.45c.63-.44 1.3-.8 1.94-.94zm0 0"/></symbol></defs><use xlink:href="#0235f465a" x="53.14125" y="68.408"/><use xlink:href="#0235f465b" x="76.54125" y="68.408"/><use xlink:href="#0235f465c" x="95.44125" y="68.408"/><use xlink:href="#0235f465d" x="116.18625" y="68.408"/><use xlink:href="#0235f465e" x="135.13125" y="68.408"/><use xlink:href="#0235f465f" x="153.85125" y="68.408"/><g fill-opacity=".33"><use xlink:href="#0235f465g" x="63.95875" y="105.816"/><use xlink:href="#0235f465h" x="70.62575" y="105.816"/><use xlink:href="#0235f465i" x="77.29275" y="105.816"/><use xlink:href="#0235f465j" x="83.95975" y="105.816"/><use xlink:href="#0235f465k" x="90.62675" y="105.816"/><use xlink:href="#0235f465l" x="97.29375" y="105.816"/><use xlink:href="#0235f465j" x="103.96075" y="105.816"/><use xlink:href="#0235f465m" x="110.62775" y="105.816"/><use xlink:href="#0235f465l" x="117.29475" y="105.816"/><use xlink:href="#0235f465k" x="123.96175" y="105.816"/><use xlink:href="#0235f465g" x="130.62875" y="105.816"/><use xlink:href="#0235f465n" x="137.29575" y="105.816"/><use xlink:href="#0235f465o" x="143.96275" y="105.816"/><use xlink:href="#0235f465p" x="150.62975" y="105.816"/><use xlink:href="#0235f465j" x="157.29675" y="105.816"/></g><use xlink:href="#0235f465q" x="278.50875" y="68.408"/><use xlink:href="#0235f465r" x="300.01875" y="68.408"/><use xlink:href="#0235f465s" x="317.56875" y="68.408"/><use xlink:href="#0235f465t" x="337.14375" y="68.408"/><use xlink:href="#0235f465u" x="355.86375" y="68.408"/><use xlink:href="#0235f465v" x="374.62875" y="68.408"/><g fill-opacity=".33"><use xlink:href="#0235f465g" x="262.70792" y="105.816"/><use xlink:href="#0235f465h" x="269.37492" y="105.816"/><use xlink:href="#0235f465i" x="276.04192" y="105.816"/><use xlink:href="#0235f465j" x="282.70892" y="105.816"/><use xlink:href="#0235f465k" x="289.37592" y="105.816"/><use xlink:href="#0235f465l" x="296.04292" y="105.816"/><use xlink:href="#0235f465j" x="302.70992" y="105.816"/><use xlink:href="#0235f465m" x="309.37692" y="105.816"/><use xlink:href="#0235f465l" x="316.04392" y="105.816"/><use xlink:href="#0235f465k" x="322.71092" y="105.816"/><use xlink:href="#0235f465g" x="329.37792" y="105.816"/><use xlink:href="#0235f465n" x="336.04492" y="105.816"/><use xlink:href="#0235f465o" x="342.71192" y="105.816"/><use xlink:href="#0235f465p" x="349.37892" y="105.816"/><use xlink:href="#0235f465j" x="356.04592" y="105.816"/><use xlink:href="#0235f465g" x="362.71292" y="105.816"/><use xlink:href="#0235f465w" x="369.37992" y="105.816"/><use xlink:href="#0235f465x" x="376.04692" y="105.816"/><use xlink:href="#0235f465y" x="382.71392" y="105.816"/><use xlink:href="#0235f465z" x="389.38092" y="105.816"/><use xlink:href="#0235f465p" x="396.04792" y="105.816"/><use xlink:href="#0235f465A" x="402.71492" y="105.816"/></g><use xlink:href="#0235f465B" x="51.90375" y="178.556"/><use xlink:href="#0235f465C" x="75.43875" y="178.556"/><use xlink:href="#0235f465D" x="94.96875" y="178.556"/><use xlink:href="#0235f465E" x="116.02875" y="178.556"/><use xlink:href="#0235f465F" x="135.55875" y="178.556"/><use xlink:href="#0235f465G" x="154.68375" y="178.556"/><g fill-opacity=".33"><use xlink:href="#0235f465g" x="43.95875" y="215.964"/><use xlink:href="#0235f465h" x="50.62575" y="215.964"/><use xlink:href="#0235f465i" x="57.29275" y="215.964"/><use xlink:href="#0235f465j" x="63.95975" y="215.964"/><use xlink:href="#0235f465k" x="70.62675" y="215.964"/><use xlink:href="#0235f465l" x="77.29375" y="215.964"/><use xlink:href="#0235f465j" x="83.96075" y="215.964"/><use xlink:href="#0235f465m" x="90.62775" y="215.964"/><use xlink:href="#0235f465l" x="97.29475" y="215.964"/><use xlink:href="#0235f465k" x="103.96175" y="215.964"/><use xlink:href="#0235f465g" x="110.62875" y="215.964"/><use xlink:href="#0235f465H" x="117.29575" y="215.964"/><use xlink:href="#0235f465I" x="123.96275" y="215.964"/><use xlink:href="#0235f465x" x="130.62975" y="215.964"/><use xlink:href="#0235f465J" x="137.29675" y="215.964"/><use xlink:href="#0235f465y" x="143.96375" y="215.964"/><use xlink:href="#0235f465z" x="150.63075" y="215.964"/><use xlink:href="#0235f465p" x="157.29775" y="215.964"/><use xlink:href="#0235f465K" x="163.96475" y="215.964"/><use xlink:href="#0235f465o" x="170.63175" y="215.964"/><use xlink:href="#0235f465x" x="177.29875" y="215.964"/></g><use xlink:href="#0235f465L" x="277.27125" y="178.556"/><use xlink:href="#0235f465M" x="298.73625" y="178.556"/><use xlink:href="#0235f465N" x="316.91625" y="178.556"/><use xlink:href="#0235f465O" x="336.76125" y="178.556"/><use xlink:href="#0235f465P" x="356.20125" y="178.556"/><use xlink:href="#0235f465Q" x="375.41625" y="178.556"/><g fill-opacity=".33"><use xlink:href="#0235f465g" x="242.70792" y="215.964"/><use xlink:href="#0235f465h" x="249.37492" y="215.964"/><use xlink:href="#0235f465i" x="256.04192" y="215.964"/><use xlink:href="#0235f465j" x="262.70892" y="215.964"/><use xlink:href="#0235f465k" x="269.37592" y="215.964"/><use xlink:href="#0235f465l" x="276.04292" y="215.964"/><use xlink:href="#0235f465j" x="282.70992" y="215.964"/><use xlink:href="#0235f465m" x="289.37692" y="215.964"/><use xlink:href="#0235f465l" x="296.04392" y="215.964"/><use xlink:href="#0235f465k" x="302.71092" y="215.964"/><use xlink:href="#0235f465g" x="309.37792" y="215.964"/><use xlink:href="#0235f465H" x="316.04492" y="215.964"/><use xlink:href="#0235f465I" x="322.71192" y="215.964"/><use xlink:href="#0235f465x" x="329.37892" y="215.964"/><use xlink:href="#0235f465J" x="336.04592" y="215.964"/><use xlink:href="#0235f465y" x="342.71292" y="215.964"/><use xlink:href="#0235f465z" x="349.37992" y="215.964"/><use xlink:href="#0235f465p" x="356.04692" y="215.964"/><use xlink:href="#0235f465K" x="362.71392" y="215.964"/><use xlink:href="#0235f465o" x="369.38092" y="215.964"/><use xlink:href="#0235f465x" x="376.04792" y="215.964"/><use xlink:href="#0235f465g" x="382.71492" y="215.964"/><use xlink:href="#0235f465w" x="389.38192" y="215.964"/><use xlink:href="#0235f465x" x="396.04892" y="215.964"/><use xlink:href="#0235f465y" x="402.71592" y="215.964"/><use xlink:href="#0235f465z" x="409.38292" y="215.964"/><use xlink:href="#0235f465p" x="416.04992" y="215.964"/><use xlink:href="#0235f465A" x="422.71692" y="215.964"/></g><use xlink:href="#0235f465R" x="50.66625" y="288.704"/><use xlink:href="#0235f465S" x="74.33625" y="288.704"/><use xlink:href="#0235f465T" x="94.45125" y="288.704"/><use xlink:href="#0235f465U" x="115.87125" y="288.704"/><use xlink:href="#0235f465V" x="135.98625" y="288.704"/><use xlink:href="#0235f465W" x="155.51625" y="288.704"/><g fill-opacity=".33"><use xlink:href="#0235f465g" x="60.62542" y="326.112"/><use xlink:href="#0235f465h" x="67.29242" y="326.112"/><use xlink:href="#0235f465i" x="73.95942" y="326.112"/><use xlink:href="#0235f465j" x="80.62642" y="326.112"/><use xlink:href="#0235f465k" x="87.29342" y="326.112"/><use xlink:href="#0235f465l" x="93.96042" y="326.112"/><use xlink:href="#0235f465j" x="100.62742" y="326.112"/><use xlink:href="#0235f465m" x="107.29442" y="326.112"/><use xlink:href="#0235f465l" x="113.96142" y="326.112"/><use xlink:href="#0235f465k" x="120.62842" y="326.112"/><use xlink:href="#0235f465g" x="127.29542" y="326.112"/><use xlink:href="#0235f465X" x="133.96242" y="326.112"/><use xlink:href="#0235f465p" x="140.62942" y="326.112"/><use xlink:href="#0235f465K" x="147.29642" y="326.112"/><use xlink:href="#0235f465o" x="153.96342" y="326.112"/><use xlink:href="#0235f465x" x="160.63042" y="326.112"/></g><use xlink:href="#0235f465Y" x="276.05625" y="288.704"/><use xlink:href="#0235f465Z" x="297.47625" y="288.704"/><use xlink:href="#0235f465aa" x="316.28625" y="288.704"/><use xlink:href="#0235f465ab" x="336.35625" y="288.704"/><use xlink:href="#0235f465ac" x="356.56125" y="288.704"/><use xlink:href="#0235f465ad" x="376.18125" y="288.704"/><g fill-opacity=".33"><use xlink:href="#0235f465g" x="259.37458" y="326.112"/><use xlink:href="#0235f465h" x="266.04158" y="326.112"/><use xlink:href="#0235f465i" x="272.70858" y="326.112"/><use xlink:href="#0235f465j" x="279.37558" y="326.112"/><use xlink:href="#0235f465k" x="286.04258" y="326.112"/><use xlink:href="#0235f465l" x="292.70958" y="326.112"/><use xlink:href="#0235f465j" x="299.37658" y="326.112"/><use xlink:href="#0235f465m" x="306.04358" y="326.112"/><use xlink:href="#0235f465l" x="312.71058" y="326.112"/><use xlink:href="#0235f465k" x="319.37758" y="326.112"/><use xlink:href="#0235f465g" x="326.04458" y="326.112"/><use xlink:href="#0235f465X" x="332.71158" y="326.112"/><use xlink:href="#0235f465p" x="339.37858" y="326.112"/><use xlink:href="#0235f465K" x="346.04558" y="326.112"/><use xlink:href="#0235f465o" x="352.71258" y="326.112"/><use xlink:href="#0235f465x" x="359.37958" y="326.112"/><use xlink:href="#0235f465g" x="366.04658" y="326.112"/><use xlink:href="#0235f465w" x="372.71358" y="326.112"/><use xlink:href="#0235f465x" x="379.38058" y="326.112"/><use xlink:href="#0235f465y" x="386.04758" y="326.112"/><use xlink:href="#0235f465z" x="392.71458" y="326.112"/><use xlink:href="#0235f465p" x="399.38158" y="326.112"/><use xlink:href="#0235f465A" x="406.04858" y="326.112"/></g><g><use xlink:href="#0235f465ae" x="49.76625" y="398.852"/><use xlink:href="#0235f465af" x="73.57125" y="398.852"/><use xlink:href="#0235f465ag" x="94.13625" y="398.852"/><use xlink:href="#0235f465ah" x="115.78125" y="398.852"/><use xlink:href="#0235f465ai" x="136.30125" y="398.852"/><use xlink:href="#0235f465aj" x="156.10125" y="398.852"/></g><g fill-opacity=".33"><use xlink:href="#0235f465g" x="53.95875" y="436.26"/><use xlink:href="#0235f465h" x="60.62575" y="436.26"/><use xlink:href="#0235f465i" x="67.29275" y="436.26"/><use xlink:href="#0235f465j" x="73.95975" y="436.26"/><use xlink:href="#0235f465k" x="80.62675" y="436.26"/><use xlink:href="#0235f465l" x="87.29375" y="436.26"/><use xlink:href="#0235f465j" x="93.96075" y="436.26"/><use xlink:href="#0235f465m" x="100.62775" y="436.26"/><use xlink:href="#0235f465l" x="107.29475" y="436.26"/><use xlink:href="#0235f465k" x="113.96175" y="436.26"/><use xlink:href="#0235f465g" x="120.62875" y="436.26"/><use xlink:href="#0235f465ak" x="127.29575" y="436.26"/><use xlink:href="#0235f465l" x="133.96275" y="436.26"/><use xlink:href="#0235f465K" x="140.62975" y="436.26"/><use xlink:href="#0235f465al" x="147.29675" y="436.26"/><use xlink:href="#0235f465z" x="153.96375" y="436.26"/><use xlink:href="#0235f465y" x="160.63075" y="436.26"/><use xlink:href="#0235f465J" x="167.29775" y="436.26"/></g><g><use xlink:href="#0235f465am" x="275.13375" y="398.852"/><use xlink:href="#0235f465an" x="296.50875" y="398.852"/><use xlink:href="#0235f465ao" x="315.81375" y="398.852"/><use xlink:href="#0235f465ap" x="336.06375" y="398.852"/><use xlink:href="#0235f465aq" x="356.80875" y="398.852"/><use xlink:href="#0235f465ar" x="376.78875" y="398.852"/></g><g fill-opacity=".33"><use xlink:href="#0235f465g" x="279.37458" y="436.26"/><use xlink:href="#0235f465h" x="286.04158" y="436.26"/><use xlink:href="#0235f465i" x="292.70858" y="436.26"/><use xlink:href="#0235f465j" x="299.37558" y="436.26"/><use xlink:href="#0235f465k" x="306.04258" y="436.26"/><use xlink:href="#0235f465l" x="312.70958" y="436.26"/><use xlink:href="#0235f465j" x="319.37658" y="436.26"/><use xlink:href="#0235f465m" x="326.04358" y="436.26"/><use xlink:href="#0235f465l" x="332.71058" y="436.26"/><use xlink:href="#0235f465k" x="339.37758" y="436.26"/><use xlink:href="#0235f465g" x="346.04458" y="436.26"/><use xlink:href="#0235f465w" x="352.71158" y="436.26"/><use xlink:href="#0235f465x" x="359.37858" y="436.26"/><use xlink:href="#0235f465y" x="366.04558" y="436.26"/><use xlink:href="#0235f465z" x="372.71258" y="436.26"/><use xlink:href="#0235f465p" x="379.37958" y="436.26"/><use xlink:href="#0235f465A" x="386.04658" y="436.26"/></g><g><use xlink:href="#0235f465as" x="48.73125" y="509"/><use xlink:href="#0235f465at" x="72.62625" y="509"/><use xlink:href="#0235f465au" x="93.68625" y="509"/><use xlink:href="#0235f465av" x="115.64625" y="509"/><use xlink:href="#0235f465aw" x="136.66125" y="509"/><use xlink:href="#0235f465ax" x="156.77625" y="509"/></g><g fill-opacity=".33"><use xlink:href="#0235f465g" x="57.29208" y="546.408"/><use xlink:href="#0235f465h" x="63.95908" y="546.408"/><use xlink:href="#0235f465i" x="70.62608" y="546.408"/><use xlink:href="#0235f465j" x="77.29308" y="546.408"/><use xlink:href="#0235f465k" x="83.96008" y="546.408"/><use xlink:href="#0235f465l" x="90.62708" y="546.408"/><use xlink:href="#0235f465j" x="97.29408" y="546.408"/><use xlink:href="#0235f465m" x="103.96108" y="546.408"/><use xlink:href="#0235f465l" x="110.62808" y="546.408"/><use xlink:href="#0235f465k" x="117.29508" y="546.408"/><use xlink:href="#0235f465g" x="123.96208" y="546.408"/><use xlink:href="#0235f465ay" x="130.62908" y="546.408"/><use xlink:href="#0235f465l" x="137.29608" y="546.408"/><use xlink:href="#0235f465k" x="143.96308" y="546.408"/><use xlink:href="#0235f465p" x="150.63008" y="546.408"/><use xlink:href="#0235f465al" x="157.29708" y="546.408"/><use xlink:href="#0235f465az" x="163.96408" y="546.408"/></g><g><use xlink:href="#0235f465aA" x="274.09875" y="509"/><use xlink:href="#0235f465aB" x="295.47375" y="509"/><use xlink:href="#0235f465aC" x="315.27375" y="509"/><use xlink:href="#0235f465aD" x="335.70375" y="509"/><use xlink:href="#0235f465aE" x="357.07875" y="509"/><use xlink:href="#0235f465aF" x="377.41875" y="509"/></g><g fill-opacity=".33"><use xlink:href="#0235f465g" x="256.04125" y="546.408"/><use xlink:href="#0235f465h" x="262.70825" y="546.408"/><use xlink:href="#0235f465i" x="269.37525" y="546.408"/><use xlink:href="#0235f465j" x="276.04225" y="546.408"/><use xlink:href="#0235f465k" x="282.70925" y="546.408"/><use xlink:href="#0235f465l" x="289.37625" y="546.408"/><use xlink:href="#0235f465j" x="296.04325" y="546.408"/><use xlink:href="#0235f465m" x="302.71025" y="546.408"/><use xlink:href="#0235f465l" x="309.37725" y="546.408"/><use xlink:href="#0235f465k" x="316.04425" y="546.408"/><use xlink:href="#0235f465g" x="322.71125" y="546.408"/><use xlink:href="#0235f465ay" x="329.37825" y="546.408"/><use xlink:href="#0235f465l" x="336.04525" y="546.408"/><use xlink:href="#0235f465k" x="342.71225" y="546.408"/><use xlink:href="#0235f465p" x="349.37925" y="546.408"/><use xlink:href="#0235f465al" x="356.04625" y="546.408"/><use xlink:href="#0235f465az" x="362.71325" y="546.408"/><use xlink:href="#0235f465g" x="369.38025" y="546.408"/><use xlink:href="#0235f465w" x="376.04725" y="546.408"/><use xlink:href="#0235f465x" x="382.71425" y="546.408"/><use xlink:href="#0235f465y" x="389.38125" y="546.408"/><use xlink:href="#0235f465z" x="396.04825" y="546.408"/><use xlink:href="#0235f465p" x="402.71525" y="546.408"/><use xlink:href="#0235f465A" x="409.38225" y="546.408"/></g><g><use xlink:href="#0235f465aG" x="47.58375" y="619.148"/><use xlink:href="#0235f465aH" x="71.61375" y="619.148"/><use xlink:href="#0235f465aI" x="93.21375" y="619.148"/><use xlink:href="#0235f465aJ" x="115.48875" y="619.148"/><use xlink:href="#0235f465aK" x="137.04375" y="619.148"/><use xlink:href="#0235f465aL" x="157.56375" y="619.148"/></g><g fill-opacity=".33"><use xlink:href="#0235f465g" x="50.62542" y="656.556"/><use xlink:href="#0235f465h" x="57.29242" y="656.556"/><use xlink:href="#0235f465i" x="63.95942" y="656.556"/><use xlink:href="#0235f465j" x="70.62642" y="656.556"/><use xlink:href="#0235f465k" x="77.29342" y="656.556"/><use xlink:href="#0235f465l" x="83.96042" y="656.556"/><use xlink:href="#0235f465j" x="90.62742" y="656.556"/><use xlink:href="#0235f465m" x="97.29442" y="656.556"/><use xlink:href="#0235f465l" x="103.96142" y="656.556"/><use xlink:href="#0235f465k" x="110.62842" y="656.556"/><use xlink:href="#0235f465g" x="117.29542" y="656.556"/><use xlink:href="#0235f465aM" x="123.96242" y="656.556"/><use xlink:href="#0235f465l" x="130.62942" y="656.556"/><use xlink:href="#0235f465az" x="137.29642" y="656.556"/><use xlink:href="#0235f465p" x="143.96342" y="656.556"/><use xlink:href="#0235f465aN" x="150.63042" y="656.556"/><use xlink:href="#0235f465i" x="157.29742" y="656.556"/><use xlink:href="#0235f465z" x="163.96442" y="656.556"/><use xlink:href="#0235f465k" x="170.63142" y="656.556"/></g><g><use xlink:href="#0235f465aO" x="272.97375" y="619.148"/><use xlink:href="#0235f465aP" x="294.30375" y="619.148"/><use xlink:href="#0235f465aQ" x="314.68875" y="619.148"/><use xlink:href="#0235f465aR" x="335.34375" y="619.148"/><use xlink:href="#0235f465aS" x="357.39375" y="619.148"/><use xlink:href="#0235f465aT" x="378.13875" y="619.148"/></g><g fill-opacity=".33"><use xlink:href="#0235f465g" x="249.37458" y="656.556"/><use xlink:href="#0235f465h" x="256.04158" y="656.556"/><use xlink:href="#0235f465i" x="262.70858" y="656.556"/><use xlink:href="#0235f465j" x="269.37558" y="656.556"/><use xlink:href="#0235f465k" x="276.04258" y="656.556"/><use xlink:href="#0235f465l" x="282.70958" y="656.556"/><use xlink:href="#0235f465j" x="289.37658" y="656.556"/><use xlink:href="#0235f465m" x="296.04358" y="656.556"/><use xlink:href="#0235f465l" x="302.71058" y="656.556"/><use xlink:href="#0235f465k" x="309.37758" y="656.556"/><use xlink:href="#0235f465g" x="316.04458" y="656.556"/><use xlink:href="#0235f465aM" x="322.71158" y="656.556"/><use xlink:href="#0235f465l" x="329.37858" y="656.556"/><use xlink:href="#0235f465az" x="336.04558" y="656.556"/><use xlink:href="#0235f465p" x="342.71258" y="656.556"/><use xlink:href="#0235f465aN" x="349.37958" y="656.556"/><use xlink:href="#0235f465i" x="356.04658" y="656.556"/><use xlink:href="#0235f465z" x="362.71358" y="656.556"/><use xlink:href="#0235f465k" x="369.38058" y="656.556"/><use xlink:href="#0235f465g" x="376.04758" y="656.556"/><use xlink:href="#0235f465w" x="382.71458" y="656.556"/><use xlink:href="#0235f465x" x="389.38158" y="656.556"/><use xlink:href="#0235f465y" x="396.04858" y="656.556"/><use xlink:href="#0235f465z" x="402.71558" y="656.556"/><use xlink:href="#0235f465p" x="409.38258" y="656.556"/><use xlink:href="#0235f465A" x="416.04958" y="656.556"/></g><g><use xlink:href="#0235f465aU" x="46.09875" y="729.296"/><use xlink:href="#0235f465aV" x="70.12875" y="729.296"/><use xlink:href="#0235f465aW" x="92.44875" y="729.296"/><use xlink:href="#0235f465aX" x="115.12875" y="729.296"/><use xlink:href="#0235f465aY" x="137.58375" y="729.296"/><use xlink:href="#0235f465aZ" x="158.59875" y="729.296"/></g><g fill-opacity=".33"><use xlink:href="#0235f465g" x="63.95875" y="766.704"/><use xlink:href="#0235f465h" x="70.62575" y="766.704"/><use xlink:href="#0235f465i" x="77.29275" y="766.704"/><use xlink:href="#0235f465j" x="83.95975" y="766.704"/><use xlink:href="#0235f465k" x="90.62675" y="766.704"/><use xlink:href="#0235f465l" x="97.29375" y="766.704"/><use xlink:href="#0235f465j" x="103.96075" y="766.704"/><use xlink:href="#0235f465m" x="110.62775" y="766.704"/><use xlink:href="#0235f465l" x="117.29475" y="766.704"/><use xlink:href="#0235f465k" x="123.96175" y="766.704"/><use xlink:href="#0235f465g" x="130.62875" y="766.704"/><use xlink:href="#0235f465ba" x="137.29575" y="766.704"/><use xlink:href="#0235f465i" x="143.96275" y="766.704"/><use xlink:href="#0235f465z" x="150.62975" y="766.704"/><use xlink:href="#0235f465k" x="157.29675" y="766.704"/></g><g><use xlink:href="#0235f465bb" x="271.28625" y="729.296"/><use xlink:href="#0235f465bc" x="292.75125" y="729.296"/><use xlink:href="#0235f465bd" x="313.90125" y="729.296"/><use xlink:href="#0235f465be" x="335.14125" y="729.296"/><use xlink:href="#0235f465bf" x="357.91125" y="729.296"/><use xlink:href="#0235f465bg" x="379.24125" y="729.296"/></g><g fill-opacity=".33"><use xlink:href="#0235f465g" x="262.70792" y="766.704"/><use xlink:href="#0235f465h" x="269.37492" y="766.704"/><use xlink:href="#0235f465i" x="276.04192" y="766.704"/><use xlink:href="#0235f465j" x="282.70892" y="766.704"/><use xlink:href="#0235f465k" x="289.37592" y="766.704"/><use xlink:href="#0235f465l" x="296.04292" y="766.704"/><use xlink:href="#0235f465j" x="302.70992" y="766.704"/><use xlink:href="#0235f465m" x="309.37692" y="766.704"/><use xlink:href="#0235f465l" x="316.04392" y="766.704"/><use xlink:href="#0235f465k" x="322.71092" y="766.704"/><use xlink:href="#0235f465g" x="329.37792" y="766.704"/><use xlink:href="#0235f465ba" x="336.04492" y="766.704"/><use xlink:href="#0235f465i" x="342.71192" y="766.704"/><use xlink:href="#0235f465z" x="349.37892" y="766.704"/><use xlink:href="#0235f465k" x="356.04592" y="766.704"/><use xlink:href="#0235f465g" x="362.71292" y="766.704"/><use xlink:href="#0235f465w" x="369.37992" y="766.704"/><use xlink:href="#0235f465x" x="376.04692" y="766.704"/><use xlink:href="#0235f465y" x="382.71392" y="766.704"/><use xlink:href="#0235f465z" x="389.38092" y="766.704"/><use xlink:href="#0235f465p" x="396.04792" y="766.704"/><use xlink:href="#0235f465A" x="402.71492" y="766.704"/></g><g><use xlink:href="#0235f465bh" x="43.37625" y="839.444"/><use xlink:href="#0235f465bi" x="67.45125" y="839.444"/><use xlink:href="#0235f465bj" x="91.03125" y="839.444"/><use xlink:href="#0235f465bk" x="114.52125" y="839.444"/><use xlink:href="#0235f465bl" x="138.64125" y="839.444"/><use xlink:href="#0235f465bm" x="160.55625" y="839.444"/></g><g fill-opacity=".33"><use xlink:href="#0235f465g" x="47.29208" y="876.852"/><use xlink:href="#0235f465h" x="53.95908" y="876.852"/><use xlink:href="#0235f465i" x="60.62608" y="876.852"/><use xlink:href="#0235f465j" x="67.29308" y="876.852"/><use xlink:href="#0235f465k" x="73.96008" y="876.852"/><use xlink:href="#0235f465l" x="80.62708" y="876.852"/><use xlink:href="#0235f465j" x="87.29408" y="876.852"/><use xlink:href="#0235f465m" x="93.96108" y="876.852"/><use xlink:href="#0235f465l" x="100.62808" y="876.852"/><use xlink:href="#0235f465k" x="107.29508" y="876.852"/><use xlink:href="#0235f465g" x="113.96208" y="876.852"/><use xlink:href="#0235f465H" x="120.62908" y="876.852"/><use xlink:href="#0235f465I" x="127.29608" y="876.852"/><use xlink:href="#0235f465x" x="133.96308" y="876.852"/><use xlink:href="#0235f465J" x="140.63008" y="876.852"/><use xlink:href="#0235f465y" x="147.29708" y="876.852"/><use xlink:href="#0235f465aN" x="153.96408" y="876.852"/><use xlink:href="#0235f465i" x="160.63108" y="876.852"/><use xlink:href="#0235f465z" x="167.29808" y="876.852"/><use xlink:href="#0235f465k" x="173.96508" y="876.852"/></g><g><use xlink:href="#0235f465bn" x="268.18125" y="839.444"/><use xlink:href="#0235f465bo" x="289.91625" y="839.444"/><use xlink:href="#0235f465bp" x="312.46125" y="839.444"/><use xlink:href="#0235f465bq" x="334.73625" y="839.444"/><use xlink:href="#0235f465br" x="358.76625" y="839.444"/><use xlink:href="#0235f465bs" x="381.22125" y="839.444"/></g><g fill-opacity=".33"><use xlink:href="#0235f465g" x="246.04125" y="876.852"/><use xlink:href="#0235f465h" x="252.70825" y="876.852"/><use xlink:href="#0235f465i" x="259.37525" y="876.852"/><use xlink:href="#0235f465j" x="266.04225" y="876.852"/><use xlink:href="#0235f465k" x="272.70925" y="876.852"/><use xlink:href="#0235f465l" x="279.37625" y="876.852"/><use xlink:href="#0235f465j" x="286.04325" y="876.852"/><use xlink:href="#0235f465m" x="292.71025" y="876.852"/><use xlink:href="#0235f465l" x="299.37725" y="876.852"/><use xlink:href="#0235f465k" x="306.04425" y="876.852"/><use xlink:href="#0235f465g" x="312.71125" y="876.852"/><use xlink:href="#0235f465H" x="319.37825" y="876.852"/><use xlink:href="#0235f465I" x="326.04525" y="876.852"/><use xlink:href="#0235f465x" x="332.71225" y="876.852"/><use xlink:href="#0235f465J" x="339.37925" y="876.852"/><use xlink:href="#0235f465y" x="346.04625" y="876.852"/><use xlink:href="#0235f465aN" x="352.71325" y="876.852"/><use xlink:href="#0235f465i" x="359.38025" y="876.852"/><use xlink:href="#0235f465z" x="366.04725" y="876.852"/><use xlink:href="#0235f465k" x="372.71425" y="876.852"/><use xlink:href="#0235f465g" x="379.38125" y="876.852"/><use xlink:href="#0235f465w" x="386.04825" y="876.852"/><use xlink:href="#0235f465x" x="392.71525" y="876.852"/><use xlink:href="#0235f465y" x="399.38225" y="876.852"/><use xlink:href="#0235f465z" x="406.04925" y="876.852"/><use xlink:href="#0235f465p" x="412.71625" y="876.852"/><use xlink:href="#0235f465A" x="419.38325" y="876.852"/></g><g><use xlink:href="#0235f465bt" x="40.29375" y="949.592"/><use xlink:href="#0235f465bu" x="64.41375" y="949.592"/><use xlink:href="#0235f465bv" x="89.43375" y="949.592"/><use xlink:href="#0235f465bw" x="113.82375" y="949.592"/><use xlink:href="#0235f465bx" x="139.78875" y="949.592"/><use xlink:href="#0235f465by" x="162.73875" y="949.592"/></g><g fill-opacity=".33"><use xlink:href="#0235f465g" x="60.62542" y="987"/><use xlink:href="#0235f465h" x="67.29242" y="987"/><use xlink:href="#0235f465i" x="73.95942" y="987"/><use xlink:href="#0235f465j" x="80.62642" y="987"/><use xlink:href="#0235f465k" x="87.29342" y="987"/><use xlink:href="#0235f465l" x="93.96042" y="987"/><use xlink:href="#0235f465j" x="100.62742" y="987"/><use xlink:href="#0235f465m" x="107.29442" y="987"/><use xlink:href="#0235f465l" x="113.96142" y="987"/><use xlink:href="#0235f465k" x="120.62842" y="987"/><use xlink:href="#0235f465g" x="127.29542" y="987"/><use xlink:href="#0235f465ba" x="133.96242" y="987"/><use xlink:href="#0235f465z" x="140.62942" y="987"/><use xlink:href="#0235f465y" x="147.29642" y="987"/><use xlink:href="#0235f465A" x="153.96342" y="987"/><use xlink:href="#0235f465bz" x="160.63042" y="987"/></g><g><use xlink:href="#0235f465bA" x="264.62625" y="949.592"/><use xlink:href="#0235f465bB" x="286.63125" y="949.592"/><use xlink:href="#0235f465bC" x="310.79625" y="949.592"/><use xlink:href="#0235f465bD" x="334.28625" y="949.592"/><use xlink:href="#0235f465bE" x="359.80125" y="949.592"/><use xlink:href="#0235f465bF" x="383.51625" y="949.592"/></g><g fill-opacity=".33"><use xlink:href="#0235f465g" x="259.37458" y="987"/><use xlink:href="#0235f465h" x="266.04158" y="987"/><use xlink:href="#0235f465i" x="272.70858" y="987"/><use xlink:href="#0235f465j" x="279.37558" y="987"/><use xlink:href="#0235f465k" x="286.04258" y="987"/><use xlink:href="#0235f465l" x="292.70958" y="987"/><use xlink:href="#0235f465j" x="299.37658" y="987"/><use xlink:href="#0235f465m" x="306.04358" y="987"/><use xlink:href="#0235f465l" x="312.71058" y="987"/><use xlink:href="#0235f465k" x="319.37758" y="987"/><use xlink:href="#0235f465g" x="326.04458" y="987"/><use xlink:href="#0235f465ba" x="332.71158" y="987"/><use xlink:href="#0235f465z" x="339.37858" y="987"/><use xlink:href="#0235f465y" x="346.04558" y="987"/><use xlink:href="#0235f465A" x="352.71258" y="987"/><use xlink:href="#0235f465bz" x="359.37958" y="987"/><use xlink:href="#0235f465g" x="366.04658" y="987"/><use xlink:href="#0235f465w" x="372.71358" y="987"/><use xlink:href="#0235f465x" x="379.38058" y="987"/><use xlink:href="#0235f465y" x="386.04758" y="987"/><use xlink:href="#0235f465z" x="392.71458" y="987"/><use xlink:href="#0235f465p" x="399.38158" y="987"/><use xlink:href="#0235f465A" x="406.04858" y="987"/></g></svg>