<?xml version='1.0' encoding='UTF-8'?>
<svg xmlns="http://www.w3.org/2000/svg" xmlns:xlink="http://www.w3.org/1999/xlink" width="527.602px" height="254.562px" viewBox="0 0 527.602 254.562" y="0px" x="0px" enable-background="new 0 0 527.602 254.562"><defs><symbol overflow="visible" id="374d5dd9c"><path d="M.594-7.39c0 1.937 1.5 2.671 2.937 3.327.797.36 1.36.657 1.36 1.297 0 .61-.547.907-1.375.907-.829 0-1.766-.266-2.407-.532L.344-.594c.703.39 1.922.797 3.297.797 2.375 0 3.953-1.172 3.953-3.219 0-1.921-1.469-2.625-3-3.328-.766-.36-1.344-.672-1.344-1.297 0-.64.578-.875 1.328-.875.719 0 1.438.188 2.031.407l.704-1.75c-.735-.422-1.766-.72-2.891-.72-2.219 0-3.828 1.11-3.828 3.188zm0 0"/></symbol><symbol overflow="visible" id="374d5dd9d"><path d="M.453-3.61C.453-1.5 1.625.204 3.922.204 6.234.203 7.64-1.578 7.64-3.89c0-2.093-1.172-3.89-3.454-3.89-2.312 0-3.734 1.86-3.734 4.172zm4.61-.03c0 .656-.11 1.28-.344 1.671a.71.71 0 0 1-.625.344c-.735 0-1.063-1-1.063-2.219 0-.703.125-1.422.344-1.781.125-.203.313-.344.64-.344.72 0 1.048 1.094 1.048 2.328zm0 0"/></symbol><symbol overflow="visible" id="374d5dd9e"><path d="M.75-11.578v9.937C.75-.42 1.453.156 2.469.156c.61 0 1.265-.11 1.828-.328l-.25-1.797c-.14.032-.25.047-.344.047-.297 0-.406-.187-.406-.61v-9.109zm0 0"/></symbol><symbol overflow="visible" id="374d5dd9f"><path d="M.64-6.719l.626 1.469c.64-.344 1.421-.578 2.078-.578.672 0 .937.297.937 1.25v.062c-1.375.125-2.39.375-3.015.86C.687-3.234.359-2.625.359-1.86.36-.547 1.203.156 2.406.156c.797 0 1.578-.406 2.172-1.031l.453.984 1.89-.28c-.093-1.688-.124-2.392-.124-3v-1.876c0-1.75-.875-2.687-2.906-2.687-1.25 0-2.438.406-3.25 1.015zm2.61 5.157c-.438 0-.61-.266-.61-.72 0-.28.079-.468.266-.609.172-.125.594-.234 1.375-.296v1.218c-.36.266-.718.407-1.031.407zm0 0"/></symbol><symbol overflow="visible" id="374d5dd9g"><path d="M.672-7.453c.094 1.766.14 2.484.14 3.14V0H3.36v-4.703c.422-.375.875-.531 1.422-.531.282 0 .516.03.75.093l.407-2.328c-.313-.187-.72-.265-1.079-.265-.78 0-1.328.53-1.734 1.375l-.547-1.375zm0 0"/></symbol><symbol overflow="visible" id="374d5dd9i"><path d="M4.61-7.797h.062l.422 2.125.437 1.688H3.625zm-1.423-2.547L.297-1.078C.157-.688.109-.312.094 0h2.484l.547-2.063h2.89L6.532 0h2.5c0-.344-.078-.703-.203-1.11L6.11-10.405zm0 0"/></symbol><symbol overflow="visible" id="374d5dd9j"><path d="M.781-7.578V0h2.547v-7.625zm0-2.297c0 .688.469 1.156 1.25 1.156.813 0 1.36-.531 1.36-1.312 0-.688-.485-1.156-1.235-1.156-.844 0-1.375.515-1.375 1.312zm0 0"/></symbol><symbol overflow="visible" id="374d5dd9k"><path d="M.672-7.453c.11 1.75.14 2.484.14 3.14V0H3.36v-5.563c.329-.218.672-.343 1-.343.485 0 .657.265.657 1.031V0h2.562v-5.375c0-1.61-.812-2.406-2.281-2.406-.938 0-1.656.328-2.281 1.031l-.438-.984zm0 0"/></symbol><symbol overflow="visible" id="374d5dd9l"><path d="M.469-3.594c0 2.328 1.328 3.75 3.484 3.75a6.872 6.872 0 0 0 2.844-.625l-.5-1.515a6.563 6.563 0 0 1-1.828.28c-.844 0-1.328-.452-1.453-1.437H6.89C6.969-3.53 7-4.016 7-4.406c0-1.969-.89-3.375-2.922-3.375-2.281 0-3.61 1.86-3.61 4.187zm3.515-2.422c.547 0 .797.47.797 1.11 0 .125 0 .281-.015.406H3c.078-.953.344-1.516.984-1.516zm0 0"/></symbol><symbol overflow="visible" id="374d5dd9m"><path d="M.578-5.281c.016 1.203.875 1.718 1.828 2.125.735.328 1.297.547 1.297.937 0 .344-.36.547-.969.547-.515 0-1.078-.156-1.687-.453L.359-.594c.72.453 1.579.75 2.704.75 1.968 0 3.171-1 3.171-2.484 0-1.203-.796-1.735-1.937-2.188-.719-.312-1.188-.515-1.188-.921 0-.282.235-.5.766-.5.422 0 .953.14 1.484.375l.704-1.5c-.641-.422-1.375-.672-2.329-.672-1.828 0-3.156.953-3.156 2.453zm0 0"/></symbol><symbol overflow="visible" id="374d5dd9n"><path d="M6.14-9.719l-.577 4.453H2.015l.578-4.453h-.656L.655 0h.672l.61-4.672h3.53L4.86 0h.657l1.28-9.719zm0 0"/></symbol><symbol overflow="visible" id="374d5dd9o"><path d="M4.39-.484C4-2.563 3.939-3.563 3.423-8.781c-.156-1.688-.297-2.235-1.188-2.235-.421 0-.78.172-1.093.36l.203.531c.297-.172.578-.281.812-.281.344.015.516.265.594 1.031l.203 2.313C1.86-4.345.86-2.063-.094-.141v.032l.61.25c.984-2 1.906-4.313 2.593-6.157h.016c.016.375.047.797.063 1.157.234 2.578.406 3.64.624 4.859h.657c-.016-.156-.047-.313-.078-.484zm0 0"/></symbol><symbol overflow="visible" id="374d5dd9p"><path d="M1.39-6.672L.673-1.016C.562-.25.922.172 1.547.172c.578 0 1.031-.39 1.422-.781L2.625-1c-.281.281-.703.594-1.016.594-.218-.031-.343-.219-.296-.64l.718-5.657zm0 0"/></symbol><symbol overflow="visible" id="374d5dd9q"><path d="M.516-1.953C.516-.797.89.172 1.812.172c.844 0 1.454-.797 1.97-1.813.015 1.094.14 1.813.859 1.813.5 0 .937-.344 1.265-.781l-.312-.375c-.235.25-.594.578-.89.578-.298-.094-.438-.61-.47-1.797.72-1.453 1.485-3.125 1.97-4.469l-.688-.187C5.187-5.844 4.64-4.313 4.28-3.266h-.015c.109-2 .171-3.593-1.079-3.593C1.484-6.86.517-3.891.517-1.953zM1.922-.422c-.531-.016-.734-.719-.734-1.547 0-1.61.75-4.25 1.953-4.297.796.079.703 1.579.64 3.704-.594 1.265-1.25 2.093-1.86 2.14zm0 0"/></symbol><symbol overflow="visible" id="374d5dd9r"><path d="M5.047-6.844C3.922-6.03 2.28-4.39 1.547-2.75H1.53l.5-3.953-.64.031L.516 0h.64l.094-.719c.14-.844.578-1.703 1.125-2.5L3.844 0h.687c-.015-.156-.125-.36-.25-.625L2.813-3.797a15.134 15.134 0 0 1 2.578-2.5zm0 0"/></symbol><symbol overflow="visible" id="374d5dd9s"><path d="M3.14-6.813c-1.312 0-2.14.75-2.14 1.829 0 .671.39 1.28.984 1.53C1.11-3.25.406-2.608.406-1.546.406-.469 1.22.125 2.344.125c.703 0 1.265-.156 1.734-.39l-.203-.5a3.51 3.51 0 0 1-1.469.312c-.828 0-1.36-.422-1.36-1.188 0-.937.782-1.5 1.97-1.5h.687l.078-.546h-.5c-1.219 0-1.656-.579-1.656-1.313 0-.422.156-.75.453-.969.25-.187.61-.265 1.047-.265.547 0 1.063.203 1.469.437l.281-.453a2.835 2.835 0 0 0-1.734-.563zm-.156-1.171l.422.25 1.266-2v-.094l-.594-.313zm0 0"/></symbol><symbol overflow="visible" id="374d5dd9t"><path d="M3.703.938c0-.61-.328-1-.734-1.313-1.14-.922-1.688-1.344-1.688-2.688 0-1.046.407-2.296 1.078-2.874.25-.188.547-.297.86-.297.531 0 .844.28 1.125.609l.343-.406c-.28-.407-.671-.828-1.406-.828C1.625-6.86.625-4.891.625-3c0 1.344.422 1.969 1.531 2.797.547.39.875.719.906 1.234-.03.594-.453.875-.874 1.094l.28.516c.579-.25 1.235-.75 1.235-1.704zm0 0"/></symbol><symbol overflow="visible" id="374d5dd9v"><path d="M3.828-8.813h.016l.125 1.141.437 4.094H1.844zm-.297-.89L-.094-.172A.554.554 0 0 0-.14 0H.5l1.125-2.984h2.844L4.797 0h.625v-.11L4.344-9.75zm0 0"/></symbol><symbol overflow="visible" id="374d5dd9w"><path d="M3.14-6.813c-1.312 0-2.14.75-2.14 1.829 0 .671.39 1.28.984 1.53C1.11-3.25.406-2.608.406-1.546.406-.469 1.22.125 2.344.125c.703 0 1.265-.156 1.734-.39l-.203-.5a3.51 3.51 0 0 1-1.469.312c-.828 0-1.36-.422-1.36-1.188 0-.937.782-1.5 1.97-1.5h.687l.078-.546h-.5c-1.219 0-1.656-.579-1.656-1.313 0-.422.156-.75.453-.969.25-.187.61-.265 1.047-.265.547 0 1.063.203 1.469.437l.281-.453a2.835 2.835 0 0 0-1.734-.563zm0 0"/></symbol><symbol overflow="visible" id="374d5dd9x"><path d="M3.375-6.266c.61.016.86.86.86 1.875 0 1.25-.329 2.75-1.048 3.532-.25.28-.593.437-.953.437-.375 0-.734-.094-1.109-.344.219-2.812.89-5.468 2.25-5.5zM1.078 3.438c-.031-.563-.062-1.063-.062-1.735 0-.594.015-1.203.062-1.828.281.156.656.297 1.094.297 1.734 0 2.719-2.219 2.719-4.61 0-1.218-.422-2.421-1.47-2.421-2.421 0-3 4.375-3.03 8.593 0 .672.015 1.204.062 1.797zm0 0"/></symbol><symbol overflow="visible" id="374d5dd9y"><path d="M.547-2.422C.53-.937 1.125.172 2.312.172c1.876 0 2.797-2.656 2.829-4.406.015-1.485-.532-2.625-1.766-2.625-1.89 0-2.797 2.671-2.828 4.437zm3.922-1.781C4.453-2.97 4.079-1.72 3.422-.922c-.25.313-.656.516-1.016.5-.86 0-1.203-.844-1.187-2.047.015-1.234.375-2.547 1.031-3.281.266-.297.688-.531 1.047-.516.875 0 1.187.844 1.172 2.063zm0 0"/></symbol><symbol overflow="visible" id="374d5dd9z"><path d="M5.281-6.594l-.593-.218c-.735 1.343-1.891 4.03-2.485 5.89h-.047c-.14-2.172-.422-4.25-.828-5.766H.641c0 .047.015.11.03.172.407 1.657.75 3.547 1.063 6.547-.265.922-.468 1.985-.5 2.531.204.11.516.172.735.157.125-.563.25-1.547.312-2.531 1.25-3.11 2.266-5.36 3-6.735zm0 0"/></symbol><symbol overflow="visible" id="374d5dd9A"><path d="M.75-1.563C.531.11.375 2.267.516 3.484l.64-.093c-.125-1-.093-2.579.047-4.032.14.438.469.813 1.094.813.86 0 1.453-.734 1.75-1.547C3.922-.25 4.14.172 4.797.172c.469 0 .828-.313 1.234-.766L5.72-1c-.313.344-.578.594-.875.594-.266-.016-.36-.328-.25-1.125l.656-5.157h-.64L4.124-3.03C3.985-2 3.344-.421 2.344-.421c-.688-.032-.985-.891-.86-1.766l.594-4.516-.64.031zm0 0"/></symbol><symbol overflow="visible" id="374d5dd9C"><path d="M-8-1.36h7.969c.11-.874.203-2.202.203-3.093 0-2.688-.875-4.031-2.469-4.031-1.031 0-1.703.625-1.953 1.78-.344-.859-1-1.343-1.86-1.343-1.359 0-2.062 1.36-2.062 3.735 0 .75.063 1.937.172 2.953zm2.14-5.202c.454 0 .766.25.954.656.156.406.234.937.234 1.515 0 .375 0 .97-.016 1.61h-2.234a19.89 19.89 0 0 1-.062-1.547c0-1.469.234-2.234 1.125-2.234zm4.844 2.03c0 .47-.03 1.141-.078 1.75h-2.484v-1.812C-3.578-6.437-3.172-7-2.313-7c.532 0 .86.297 1.047.766.188.453.25 1.046.25 1.703zm0 0"/></symbol><symbol overflow="visible" id="374d5dd9D"><path d="M-3.875-.797c2.25 0 4.094-1.578 4.094-4.422 0-3.062-2.172-4.468-4.344-4.468-2.234 0-4.094 1.546-4.094 4.39 0 3.11 2.188 4.5 4.344 4.5zm-.188-7.39c1.125 0 2.016.39 2.532 1.14.328.469.5 1.063.5 1.813 0 1.921-1.313 2.937-2.953 2.937-1.094 0-1.97-.422-2.47-1.156-.343-.485-.515-1.078-.515-1.781 0-1.938 1.25-2.954 2.907-2.954zm0 0"/></symbol><symbol overflow="visible" id="374d5dd9E"><path d="M-6.625-4.531v-.063l1.89-.765 1.61-.625v2.937zm-1.39.781L-.782-.531c.281.125.531.203.781.265v-1.468l-1.938-.829v-3.874L0-7.204v-1.484c-.281.046-.5.156-.781.265l-7.282 3.063zm0 0"/></symbol><symbol overflow="visible" id="374d5dd9F"><path d="M-4.094-3.906c0 .312-.015.687-.047 1.062h-2.718a13.945 13.945 0 0 1-.063-1.344c0-1.53.438-2.39 1.297-2.39.61 0 .984.297 1.219.781.218.469.312 1.14.312 1.89zm-3.89 2.547H0v-1.485h-2.969c.031-.375.047-.765.047-1.015 0-.329-.015-.641-.047-.938l2.969-2v-1.516c-.25.063-.484.235-.734.422L-3.25-6.14c-.422-1.25-1.266-1.937-2.422-1.937-1.64 0-2.5 1.469-2.5 3.953 0 1.094.078 2.078.188 2.766zm0 0"/></symbol><symbol overflow="visible" id="374d5dd9G"><path d="M-7.984-1.36h7.968c.11-.843.188-1.89.188-2.906 0-3-1.484-5.046-4.281-5.046-2.61 0-4.063 1.828-4.063 4.828 0 1.125.078 2.14.188 3.125zm6.906-2.968c0 .547-.031 1.062-.047 1.484h-5.719a12.822 12.822 0 0 1-.078-1.547c0-2.109.89-3.421 2.875-3.421 1.11 0 1.938.468 2.422 1.25.36.578.547 1.343.547 2.234zm0 0"/></symbol><symbol overflow="visible" id="374d5dd9H"><path d="M-8-1.36h8v-1.484h-8zm0 0"/></symbol><symbol overflow="visible" id="374d5dd9I"><path d="M-8-1.36h8v-1.312h-4.828l-1.516.063 1.188-.797L0-7.578v-1.516h-8v1.313h4.766l1.53-.063v.016l-1.14.781L-8-2.859zm0 0"/></symbol><symbol overflow="visible" id="374d5dd9J"><path d="M-3.813-.797c2.36 0 3.985-1.484 3.985-4.64 0-1.141-.203-2.172-.578-3.079H-3.97v1.391h2.766c.094.5.156 1.047.156 1.594 0 2.422-1.328 3.203-2.844 3.203-1.093 0-1.953-.375-2.468-1.094-.36-.515-.563-1.187-.563-2.031 0-.86.188-1.75.5-2.469l-1.062-.469c-.329.547-.688 1.704-.688 2.907 0 3.14 1.969 4.687 4.36 4.687zm0 0"/></symbol><symbol overflow="visible" id="374d5dd9L"><path d="M-3.86-3.906c0 .312-.015.703-.062 1.062h-2.953c-.031-.39-.047-.781-.047-1.219 0-1.609.422-2.5 1.422-2.5.719 0 1.172.36 1.406.97.172.452.235 1.03.235 1.687zM-7.983-1.36H0v-1.485h-2.688c.032-.344.047-.719.047-1.078 0-2.594-.984-4.14-2.906-4.14-1.797 0-2.656 1.359-2.625 4.078 0 .921.078 1.78.188 2.625zm0 0"/></symbol><symbol overflow="visible" id="374d5dd9M"><path d="M-5.922-.922c1.516 0 2.14-1.5 2.438-2.86.28-1.234.484-2.421 1.343-2.421.782 0 1.11.781 1.11 2 0 .953-.297 2.172-.703 3.031l1.046.469c.516-.828.907-2.078.907-3.453 0-1.953-.64-3.516-2.36-3.516-1.656 0-2.187 1.64-2.515 3.14-.235 1.079-.5 2.126-1.266 2.126s-1.047-.875-1.047-2c0-.782.172-1.766.5-2.469l-1.047-.516c-.406.72-.703 1.735-.703 2.97 0 2.077.797 3.5 2.297 3.5zm0 0"/></symbol><symbol overflow="visible" id="374d5dd9N"><path d="M7.5-15.156h.078l.672 3.531 1.063 4.328H5.515zm-1.875-4.031L.656-1.375C.516-.891.406-.485.375 0h3.297l1.156-4.516h5.14L11.064 0h3.203c-.016-.438-.11-.953-.25-1.469L9.359-19.297zm0 0"/></symbol><symbol overflow="visible" id="374d5dd9O"><path d="M.625-19.234l.125 2.859h4.625V0h3.266v-16.375h4.625l.125-2.86zm0 0"/></symbol><symbol overflow="visible" id="374d5dd9P"><path d="M11.406-19.234v7.953H5.234v-7.953h-3.28V0h3.28v-8.39h6.172V0h3.297v-19.234zm0 0"/></symbol><symbol overflow="visible" id="374d5dd9T"><path d="M1.953-19.234V0h9.36l-.11-2.875H5.234v-16.36zm0 0"/></symbol><symbol overflow="visible" id="374d5dd9U"><path d="M6.406-10c-.406 0-.812-.016-1.172-.047v-6.328c.625-.078 1.235-.11 1.625-.11 2.329 0 3.516 1.032 3.516 3.016 0 1.516-.703 2.438-1.469 2.922-.61.36-1.375.547-2.5.547zm-4.453-9.063V0h3.281v-7.156c.532.062 1.172.062 1.625.062.313 0 .61-.031.922-.062L11.171 0h3.298c-.047-.484-.422-1.344-.719-1.984l-2.984-6.141c1.906-1.125 3.14-3.11 3.14-5.61 0-3.734-2.656-5.765-7.328-5.765-1.344 0-3.25.172-4.625.438zm0 0"/></symbol><symbol overflow="visible" id="374d5dd9R"><path d="M.656-7.36v.782h7.907v-.781zm0 0"/></symbol><symbol overflow="visible" id="374d5dd9S"><path d="M9.281-12l4.625 3.094 2.547 1.547H.656v.78h15.766L13.875-5 9.312-1.953l.485.625 8.234-5.5v-.297l-8.265-5.516zm0 0"/></symbol><symbol overflow="visible" id="374d5dd9V"><path d="M1.547-16.531l1.156 1.61c.844-.626 2.031-.985 2.985-.985 1.39 0 2.39.734 2.39 2.547 0 3.25-2.125 5.609-4.453 8.453l-2.047 2.5L1.812 0h9.157l-.078-2.39H4.53L5.75-3.798c2.438-2.781 5.063-5.797 5.063-9.719 0-2.437-1.47-4.875-4.797-4.875-1.407 0-3.25.516-4.47 1.86zm0 0"/></symbol><symbol overflow="visible" id="374d5dd9W"><path d="M2-16.828l.594 1.953 2.953-.703v13.187H2.109V0H11l-.14-2.39H8.093v-15.735l-2.11-.063zm0 0"/></symbol><symbol overflow="visible" id="374d5dd9ab"><path d="M1.766-18.156l.125 2.437h6.453L2.5-.406l2.453.812L11-15.766l-.219-2.39zm0 0"/></symbol><symbol overflow="visible" id="374d5dd9ac"><path d="M.672-6.469l.406 2.297h6.313V0h2.546v-4.172h1.657l-.14-2.281H9.936v-11.672l-2.562-.063zm5.422-4.968l1.25-2.376h.047v7.36H3.312zm0 0"/></symbol><symbol overflow="visible" id="374d5dd9ad"><path d="M1.25-8.719C1.25-3.547 3.578.25 8.203.25c1.5 0 3.125-.438 4.485-1.172v-8.265H7.375v2.39h2.766v4.36c-.579.14-1.141.218-1.688.218-3.469 0-4.469-3.5-4.469-6.672 0-2.375.547-4.406 1.563-5.656.687-.844 1.61-1.36 2.797-1.36 1.062 0 1.984.25 3.062.845l1.078-2.094c-1.078-.75-2.343-1.235-4.062-1.235-4.922 0-7.172 4.797-7.172 9.672zm0 0"/></symbol><symbol overflow="visible" id="374d5dd9aI"><path d="M6.047-9.422c-1.578 0-2.328-1.25-2.328-3.234 0-1.11.203-1.953.703-2.578.406-.5.937-.75 1.64-.75 1.735 0 2.344 2.03 2.391 5.546-.734.61-1.547 1.016-2.406 1.016zM1-12.266c0 2.75 1.39 5.141 4.39 5.141 1.079 0 2.11-.266 2.923-.813h.03C7.97-4.421 6.47-2.25 3.814-2.25c-.266 0-.61 0-.938-.031L2.735.14c.359.047.812.109 1.468.109 4.297 0 6.984-4.344 6.984-10.703 0-4.781-1.437-8.031-5.03-8.031C2.952-18.484 1-15.906 1-12.266zm0 0"/></symbol><symbol overflow="visible" id="374d5dd9aJ"><path d="M1.266-7.688c0 4.766 1.437 8.016 5.046 8.016 3.204 0 5.141-2.578 5.141-6.203 0-2.766-1.375-5.156-4.375-5.156-1.094 0-2.125.281-2.937.812h-.016c.375-3.515 1.86-5.687 4.516-5.687.265 0 .625 0 .953.031l.14-2.406a8.534 8.534 0 0 0-1.468-.11c-4.313 0-7 4.328-7 10.703zM6.39-2.171c-1.735 0-2.329-2.031-2.375-5.547.718-.593 1.53-1 2.406-1C8-8.719 8.75-7.484 8.75-5.5c0 1.11-.219 1.953-.703 2.578-.406.516-.953.75-1.656.75zm0 0"/></symbol><symbol overflow="visible" id="374d5dd9X"><path d="M.438-2.594c0 1.578.765 2.672 2.312 2.672.5 0 1.078-.125 1.531-.344v-2.359H3.36v1.828c-.171.016-.343.047-.515.047-1.125 0-1.453-1.016-1.453-1.875 0-.688.187-1.266.5-1.594.234-.234.53-.36.937-.36.328 0 .656.048 1 .22l.375-.704c-.36-.234-.781-.375-1.375-.375-1.656 0-2.39 1.407-2.39 2.844zm0 0"/></symbol><symbol overflow="visible" id="374d5dd9Y"><path d="M2.313-4.36h.03l.235.97.36 1.343H1.655zm-.5-1L.234-.296A.908.908 0 0 0 .172 0h.906l.36-1.281H3.14L3.484 0h.891c0-.063-.016-.172-.063-.313L2.86-5.39zm0 0"/></symbol><symbol overflow="visible" id="374d5dd9Z"><path d="M.266-5.375l.03.828h1.47V0h.921v-4.547h1.485l.031-.828zm0 0"/></symbol><symbol overflow="visible" id="374d5dd9aa"><path d="M.672-5.375V0h3.094l-.032-.828h-2.14v-1.516h1.672v-.812H1.594v-1.39h2.14l.032-.829zm0 0"/></symbol><symbol overflow="visible" id="374d5dd9ae"><path d="M.531-3.938c0 .844.64 1.204 1.266 1.532.5.265 1.062.531 1.062.984 0 .422-.39.672-.906.672-.5 0-.922-.156-1.234-.36l-.406.72c.39.28.937.484 1.562.484 1.094 0 1.922-.61 1.922-1.625 0-.844-.61-1.203-1.406-1.61-.532-.265-.907-.468-.907-.875 0-.406.36-.593.829-.593.406 0 .78.078 1.078.203l.296-.75a2.782 2.782 0 0 0-1.296-.313c-1.094 0-1.86.594-1.86 1.532zm0 0"/></symbol><symbol overflow="visible" id="374d5dd9af"><path d="M.672-5.375V0h.922v-2.14h1.672v-.829H1.594v-1.578h2.125l.047-.828zm0 0"/></symbol><symbol overflow="visible" id="374d5dd9ag"><path d="M.672-5.375V0h2.937l-.03-.828H1.593v-4.547zm0 0"/></symbol><symbol overflow="visible" id="374d5dd9ah"><path d="M.672-5.375V0h.922v-5.375zm0 0"/></symbol><symbol overflow="visible" id="374d5dd9ai"><path d="M3.563-5.375v2.266h-1.97v-2.266H.673V0h.922v-2.281h1.968V0h.922v-5.375zm0 0"/></symbol><symbol overflow="visible" id="374d5dd9aB"><path d="M.672-5.313V-.03c.25.062.828.125 1.422.125C3.563.094 4.28-.61 4.28-1.594c0-.625-.406-1.125-1.047-1.312C3.766-3.187 4-3.61 4-4.125c0-.813-.672-1.313-1.922-1.313-.625 0-1.203.094-1.406.125zm2.36 1.407a.717.717 0 0 1-.298.594c-.14.109-.312.171-.687.171h-.453v-1.453c.14-.015.297-.031.468-.031.641 0 .97.234.97.719zM2.14-.72c-.172 0-.344-.015-.547-.031v-1.625h.547c.812 0 1.187.281 1.187.797a.9.9 0 0 1-.312.64c-.188.125-.438.22-.875.22zm0 0"/></symbol><symbol overflow="visible" id="374d5dd9aC"><path d="M.422-2.625c0 1.453.75 2.719 2.203 2.719 1.531 0 2.281-1.328 2.281-2.844 0-1.453-.75-2.719-2.218-2.719-1.5 0-2.266 1.313-2.266 2.844zm3.531-.063c0 .547-.125 1.282-.562 1.657a1.02 1.02 0 0 1-.72.281c-.858 0-1.28-.922-1.28-1.922 0-.578.14-1.297.562-1.672.156-.14.375-.265.703-.265.86 0 1.297.906 1.297 1.921zm0 0"/></symbol><symbol overflow="visible" id="374d5dd9aD"><path d="M2-2.797c-.14 0-.266 0-.406-.015v-1.735c.187-.016.375-.031.515-.031.766 0 1.204.281 1.204.89 0 .329-.172.579-.454.735-.203.094-.484.156-.859.156zM.672-5.312V0h.922v-1.953c.172.016.375.016.531.016.094 0 .203 0 .297-.016L3.516 0h.921c0-.063-.062-.234-.156-.406l-1-1.797c.61-.297 1-.86 1-1.594 0-1.015-.734-1.64-2.156-1.64a8.3 8.3 0 0 0-1.453.125zm0 0"/></symbol><symbol overflow="visible" id="374d5dd9aE"><path d="M.672-5.313V-.03c.203.047.781.125 1.344.125 1.812 0 2.796-1.203 2.796-2.875 0-1.594-.953-2.656-2.671-2.656-.797 0-1.204.062-1.47.125zM2-.75c-.188 0-.297-.016-.406-.016v-3.796c.203-.016.406-.016.64-.016 1.079 0 1.61.703 1.61 1.844 0 .687-.203 1.312-.719 1.671C2.859-.875 2.5-.75 2-.75zm0 0"/></symbol><symbol overflow="visible" id="374d5dd9aF"><path d="M.672-5.375V0h.812v-3.406l-.046-.922.343.844L3.563 0H4.64v-5.375h-.813v3.313l.047 1.015-.328-.875L1.78-5.375zm0 0"/></symbol><symbol overflow="visible" id="374d5dd9aH"><path d="M4.281-5.375L3.344-.969h-.031l-.157-1.11-.734-3.296h-1.39L.515-.828C.484-.547.437-.266.437 0h.813l.484-4.36h.016l.156.844L2.672 0H3.89l.968-4.36h.032l.062.86.39 3.5h.891c0-.266-.03-.61-.078-.906l-.484-4.469zm0 0"/></symbol><symbol overflow="visible" id="374d5dd9aj"><path d="M1.563-5v3.672c0 .484-.032.937-.594.937C.75-.39.516-.484.39-.53l-.172.406c.156.11.453.219.828.219.922 0 1.031-.75 1.031-1.438V-5zm0 0"/></symbol><symbol overflow="visible" id="374d5dd9ak"><path d="M2.078-4.313h.031l.266.938.453 1.516h-1.5zM1.813-5L.296-.297A.908.908 0 0 0 .234 0H.75l.438-1.406h1.765L3.375 0h.516c0-.063-.047-.219-.094-.375L2.39-5.015zm0 0"/></symbol><symbol overflow="visible" id="374d5dd9al"><path d="M.719-5v5h.5v-3.672l-.047-.672.281.563L3.5 0h.61v-5h-.485v3.578l.031.781h-.015l-.25-.625L1.344-5zm0 0"/></symbol><symbol overflow="visible" id="374d5dd9am"><path d="M3.36-5v3.422c0 .453-.126.766-.36.969-.125.078-.36.203-.703.203-.922 0-1.078-.547-1.078-1.203V-5H.687v3.438C.688-.438 1.22.093 2.266.093c1.171 0 1.609-.703 1.609-1.797V-5zm0 0"/></symbol><symbol overflow="visible" id="374d5dd9an"><path d="M1.75-2.531c-.203 0-.328 0-.484-.016V-4.53c.203-.032.406-.047.546-.047.813 0 1.297.297 1.297 1a.985.985 0 0 1-.546.875c-.235.11-.516.172-.813.172zM.719-4.97V0h.547v-2.047c.156 0 .343.016.515.016.14 0 .266-.016.39-.031L3.235 0h.532c0-.063-.047-.188-.141-.375l-.953-1.828c.625-.25 1-.781 1-1.422 0-.906-.656-1.453-1.813-1.453-.28 0-.75.031-1.14.11zm0 0"/></symbol><symbol overflow="visible" id="374d5dd9ao"><path d="M3.125-5L1.953-2.594l-.297-.61L.781-5H.25c0 .094.094.281.188.469l1.234 2.484V0h.531v-2.078L3.47-4.547c.078-.172.187-.375.172-.453zm0 0"/></symbol><symbol overflow="visible" id="374d5dd9aq"><path d="M.64-5v2.484l.063.079c.281-.11.563-.157.875-.157.688 0 .969.39.969.953 0 .485-.188.844-.516 1.063a1.31 1.31 0 0 1-.64.172c-.266 0-.532-.063-.735-.14L.5-.11c.266.125.578.203.922.203.969 0 1.672-.703 1.672-1.782 0-.843-.563-1.375-1.39-1.375A2.3 2.3 0 0 0 1.14-3v-1.531h1.703V-5zm0 0"/></symbol><symbol overflow="visible" id="374d5dd9ar"><path d="M.5-4.5l.25.328c.281-.203.625-.406 1.047-.406.531 0 .844.328.844.89 0 .797-.672 1.532-1.516 2.454l-.719.75L.484 0h2.672l-.031-.453H1.062L1.579-1c.813-.89 1.61-1.734 1.61-2.734 0-.782-.47-1.344-1.329-1.344-.625 0-1.093.312-1.359.578zm0 0"/></symbol><symbol overflow="visible" id="374d5dd9as"><path d="M.516-2.39C.516-1.095 1.03.093 2.03.093c1.078 0 1.61-1.313 1.61-2.719 0-1.281-.5-2.469-1.516-2.469-1.094 0-1.61 1.344-1.61 2.703zm2.593-.22c0 .704-.14 1.626-.578 2.016a.707.707 0 0 1-.484.188c-.64 0-.985-.922-.985-2.016 0-.687.157-1.625.594-2a.754.754 0 0 1 .469-.172c.672 0 .984.938.984 1.985zm0 0"/></symbol><symbol overflow="visible" id="374d5dd9at"><path d="M.438-4.61l.124.391.86-.281v4.047H.484V0h2.188l-.047-.453h-.703v-4.578l-.39-.016zm0 0"/></symbol><symbol overflow="visible" id="374d5dd9au"><path d="M.313-5l.03.484h2.141L.704-.078l.515.187 1.86-4.64L3.015-5zm0 0"/></symbol><symbol overflow="visible" id="374d5dd9av"><path d="M.375-4.453l.313 1.766h4.25V0H7v-2.688h1.14l-.093-1.765H7v-7.844l-2.11-.031zm3.656-3l.86-1.672h.046v4.672H2.36zm0 0"/></symbol><symbol overflow="visible" id="374d5dd9aw"><path d="M.969-8.594c0 .766.469 1.281 1.094 1.281.718 0 1.156-.53 1.156-1.359 0-.719-.438-1.219-1.11-1.219-.671 0-1.14.516-1.14 1.297zm.078 6.047c0 .766.453 1.281 1.078 1.281.719 0 1.172-.53 1.172-1.359 0-.719-.453-1.219-1.11-1.219-.687 0-1.14.516-1.14 1.297zm0 0"/></symbol><symbol overflow="visible" id="374d5dd9ax"><path d="M1.016-11.344l.75 1.328c.53-.343 1.171-.53 1.718-.53.985 0 1.704.483 1.704 1.53 0 1.094-.766 1.829-1.782 1.829h-.781v1.718h.844c1.203 0 2 .735 2 1.844 0 .64-.188 1.125-.563 1.422-.39.328-.922.453-1.531.453-.578 0-1.266-.11-1.781-.36L.954-.515c.655.438 1.624.704 2.702.704 2.5 0 4.047-1.516 4.047-3.782 0-1.437-.734-2.531-1.89-2.984.953-.64 1.53-1.64 1.53-2.89 0-1.782-1.28-3.016-3.312-3.016-1.172 0-2.218.406-3.015 1.14zm0 0"/></symbol><symbol overflow="visible" id="374d5dd9ay"><path d="M1.469-12.313v6.422l.172.22c.578-.188 1.296-.313 1.828-.313 1.297 0 1.953.875 1.953 1.906 0 .937-.234 1.594-.734 1.969-.344.265-.844.359-1.485.359-.515 0-1.047-.125-1.61-.297l-.515 1.64a5.367 5.367 0 0 0 2.5.595c2.313 0 4.031-1.485 4.031-4.375 0-2.094-1.437-3.454-3.39-3.454-.282 0-.563.016-.844.063v-2.86h3.703l.094-1.874zm0 0"/></symbol><symbol overflow="visible" id="374d5dd9az"><path d="M4.172-5.89c-.219 0-.516-.032-.828-.063v-4.516c.375-.062.734-.078.969-.078 1.437 0 2.359.563 2.359 2.203 0 1.078-.438 1.75-.969 2.063-.39.25-.937.39-1.531.39zM1.25-12.204V0h2.094v-4.094c.328.032.656.047.922.047 2.937 0 4.671-2.031 4.671-4.547 0-2.469-1.656-3.89-4.796-3.89-.907 0-2.032.125-2.891.28zm0 0"/></symbol><symbol overflow="visible" id="374d5dd9aA"><path d="M8.625-12.313L6.859-2.719h-.078L6.47-5.125l-1.547-7.188H1.875L.859-1.108C.83-.734.766-.375.766 0h1.906l.75-9.844h.062l.313 1.938L5.516 0h2.546L10-9.844h.047l.14 1.953.75 7.891h1.876c0-.375-.047-.688-.079-1.11l-1.062-11.203zm0 0"/></symbol><symbol overflow="visible" id="374d5dd9aK"><path d="M2.063-5.188h.015l.266 1.125.515 1.922H1.22zm-.204-.609L.422-.687C.344-.454.282-.234.219 0H.64l.484-1.797h1.828L3.438 0h.406c-.063-.219-.11-.453-.188-.688l-1.39-5.156zm0 0"/></symbol><symbol overflow="visible" id="374d5dd9aL"><path d="M.25-5.828l.016.375H1.78V0h.375v-5.453h1.531l.016-.375zm0 0"/></symbol><symbol overflow="visible" id="374d5dd9aM"><path d="M3.516-5.828v2.672H1.14v-2.672H.75V0h.39v-2.797h2.376V0h.39v-5.828zm0 0"/></symbol><symbol overflow="visible" id="374d5dd9aN"><path d="M.75-5.828V0h2.563l-.016-.344H1.14v-2.469h1.765v-.343H1.141V-5.47h2.156l.015-.36zm0 0"/></symbol><symbol overflow="visible" id="374d5dd9aO"><path d="M.75-5.828V0h.375v-4.61l-.031-.593h.015l.22.531L3.562 0h.453v-5.828h-.36v4.5l.016.734-.235-.578-2.234-4.656zm0 0"/></symbol><symbol overflow="visible" id="374d5dd9aP"><path d="M.531-4.453c0 .844.594 1.219 1.235 1.61.609.359 1.187.718 1.187 1.452 0 .766-.578 1.125-1.156 1.125-.469 0-.906-.203-1.25-.453l-.188.313c.297.25.891.515 1.391.515.906 0 1.61-.53 1.61-1.562 0-.89-.657-1.281-1.297-1.672C1.5-3.469.937-3.813.937-4.515c0-.75.61-1.032 1.141-1.032.36 0 .688.078 1 .219l.14-.313a2.422 2.422 0 0 0-1.093-.28c-.781 0-1.594.421-1.594 1.468zm0 0"/></symbol><symbol overflow="visible" id="374d5dd9aR"><path d="M.188-2.281v.328H2.75v-.328zm0 0"/></symbol><symbol overflow="visible" id="374d5dd9aS"><path d="M2.703-3.625l1.344.906.734.438H.188v.328H4.78l-.734.437-1.328.891.203.281 2.547-1.734v-.094L2.906-3.89zm0 0"/></symbol><symbol overflow="visible" id="374d5dd9aT"><path d="M.75-5.828V0h2.5l-.016-.344H1.141v-5.484zm0 0"/></symbol><symbol overflow="visible" id="374d5dd9aU"><path d="M.484-2.844C.484-1.219 1.188.11 2.391.11c1.343 0 1.906-1.625 1.906-3.093 0-1.625-.688-2.938-1.906-2.938-1.344 0-1.907 1.625-1.907 3.078zm3.407-.078c0 .813-.157 1.75-.672 2.281a1.095 1.095 0 0 1-.828.375c-.938 0-1.485-1.171-1.485-2.64 0-.797.156-1.75.672-2.281.172-.188.438-.375.813-.375.953 0 1.5 1.187 1.5 2.64zm0 0"/></symbol><symbol overflow="visible" id="374d5dd9aV"><path d="M.75-5.781v5.75c.313.078.828.11 1.172.11 1.422 0 2.25-1.485 2.25-3.095 0-1.671-.89-2.89-2.172-2.89-.406 0-.89.062-1.25.125zm1.203 5.5c-.234 0-.547-.016-.812-.063v-5.125c.265-.047.593-.062.828-.062 1.156 0 1.781 1.156 1.797 2.547 0 .953-.329 1.89-.938 2.39-.265.203-.531.313-.875.313zm0 0"/></symbol><symbol overflow="visible" id="374d5dd9aW"><path d="M2.297-5.266l.078.672.266 2.453H1.109zm-.188-.53L-.047-.11A.233.233 0 0 0-.094 0h.39L.97-1.797h1.703L2.875 0h.375v-.063l-.656-5.78zm0 0"/></symbol><symbol overflow="visible" id="374d5dd9aX"><path d="M.453-2.031c0 1.25.469 2.14 1.375 2.14 1.375 0 2.156-2.234 2.156-3.89 0-1.266-.453-2.156-1.359-2.14-1.36 0-2.172 2.25-2.172 3.89zm3.125-1.75c0 .953-.297 2.422-.953 3.125-.156.156-.453.39-.75.39C1.187-.266.844-.953.844-2.03c0-.969.328-2.406.969-3.125.171-.157.437-.39.812-.39.578 0 .953.702.953 1.765zm-2.219.625l-.046.344h1.78l.048-.344zm0 0"/></symbol><symbol overflow="visible" id="374d5dd9aY"><path d="M3.672-5.828l-.344 2.672H1.203l.36-2.672h-.407L.391 0h.406l.36-2.797H3.28L2.906 0h.39l.767-5.828zm0 0"/></symbol><symbol overflow="visible" id="374d5dd9aZ"><path d="M1.156-5.828L.391 0H.75l.61-4.516.062-.734h.016l.125.547L3 0h.422l.765-5.828h-.359L3.25-1.422l-.078.86-.14-.594-1.423-4.672zm0 0"/></symbol><symbol overflow="visible" id="374d5dd9bb"><path d="M2.75-1.953H.187v-.328H2.75zm0 0"/></symbol><symbol overflow="visible" id="374d5dd9bc"><path d="M.188-1.953H4.78l-.734.437-1.328.891.203.281 2.547-1.734v-.094L2.906-3.89l-.203.266 1.344.906.734.438H.188zm0 0"/></symbol><symbol overflow="visible" id="374d5dd9bd"><path d="M2.11-5.797L-.048-.157C-.062-.108-.094-.03-.094 0h.39L2.25-5.234h.016l.062.64L2.797 0h.375v-.11l-.64-5.734zm0 0"/></symbol><symbol overflow="visible" id="374d5dd9be"><path d="M.453-2.031c0 1.25.469 2.14 1.375 2.14 1.375 0 2.156-2.234 2.156-3.89 0-1.266-.453-2.156-1.359-2.14-1.36 0-2.172 2.25-2.172 3.89zm3.125-1.75c0 .953-.312 2.422-.953 3.125-.172.156-.453.39-.75.39C1.203-.266.859-.953.859-2.03c0-.969.313-2.406.97-3.125.155-.157.421-.39.796-.39.578 0 .953.718.953 1.765zm0 0"/></symbol><symbol overflow="visible" id="374d5dd9bf"><path d="M2.64-5.844l-.406.047L-.062-.172l.03.172h3.376l.078-.172zM.673-.969l1.703-4.218h.016L2.5-4.095l.406 3.078.11.672H.406zm0 0"/></symbol><symbol overflow="visible" id="374d5dd9bg"><path d="M1.156-5.828L.391 0h.406l.765-5.828zm0 0"/></symbol><symbol overflow="visible" id="374d5dd9bh"><path d="M.344-3.016l.078.125c.234-.14.469-.25.75-.25.437 0 .75.22.75.594 0 .406-.36.797-.844.797H.875v.156h.203c.547 0 .984.219.984.703 0 .266-.109.47-.296.594a1.223 1.223 0 0 1-.688.188c-.234 0-.5-.047-.703-.141l-.063.14c.235.11.5.172.766.172.688 0 1.172-.343 1.172-.968 0-.438-.344-.719-.75-.781.375-.157.61-.5.61-.86 0-.469-.376-.75-.922-.75-.282 0-.579.078-.844.281zm0 0"/></symbol><symbol overflow="visible" id="374d5dd9bj"><path d="M.36-3.031l.093.125c.219-.14.484-.235.75-.235.547 0 .828.344.828.782 0 .53-.422 1-1.375 1.828L.25-.187.281 0h2.031v-.156H.5L1-.61c.656-.594 1.219-1.141 1.219-1.782 0-.453-.297-.906-1.016-.906-.328 0-.61.094-.844.266zm0 0"/></symbol><symbol overflow="visible" id="374d5dd9bk"><path d="M.36-1.547C.36-.703.718.078 1.468.078c.781 0 1.203-.875 1.203-1.781 0-.844-.375-1.61-1.11-1.61-.765 0-1.203.86-1.203 1.766zm2.124-.14c0 .484-.125 1.171-.578 1.468a.786.786 0 0 1-.422.125C.86-.094.547-.78.547-1.562c0-.5.125-1.172.562-1.454a.744.744 0 0 1 .454-.14c.593 0 .921.687.921 1.469zm0 0"/></symbol><symbol overflow="visible" id="374d5dd9bl"><path d="M.328-3.016l.047.141.86-.203v2.922H.327V0h1.734l-.015-.156h-.64v-3.078l-.141-.016zm0 0"/></symbol><symbol overflow="visible" id="374d5dd9bm"><path d="M.203-3.25l.016.172h1.89L.61 0l.172.078 1.531-3.187-.015-.141zm0 0"/></symbol><symbol overflow="visible" id="374d5dd9bn"><path d="M.344-1.375c0 .656.25 1.453 1.062 1.453.688 0 1.078-.547 1.078-1.062 0-.516-.39-.922-1.015-.922-.328 0-.657.11-.922.281.062-.781.484-1.516 1.375-1.516.078 0 .156 0 .234.032l.031-.141a.685.685 0 0 0-.296-.047c-1.032 0-1.547.985-1.547 1.922zM1.422-.094c-.656 0-.89-.594-.89-1.312v-.016c.265-.203.624-.312.937-.312.531 0 .828.328.828.78 0 .266-.125.5-.297.657a.901.901 0 0 1-.578.203zm0 0"/></symbol><symbol overflow="visible" id="374d5dd9bo"><path d="M.203-1.063l.031.188h1.657V0h.171v-.875h.641l-.015-.156h-.626v-2.203l-.218-.016zm1.422-1.593l.266-.36v1.985H.39zm0 0"/></symbol><symbol overflow="visible" id="374d5dd9bp"><path d="M.438-3.25v1.547l.03.047c.25-.078.5-.14.735-.14.516 0 .875.234.875.75 0 .421-.203.687-.5.827-.172.078-.375.11-.578.11-.203 0-.422-.047-.594-.094l-.047.14c.204.079.407.126.625.126.72 0 1.282-.376 1.282-1.125 0-.625-.485-.907-1.047-.907a2 2 0 0 0-.61.11v-1.22h1.5v-.171zm0 0"/></symbol><symbol overflow="visible" id="374d5dd9bq"><path d="M.328-3.25l.016.172h2.219L.203-.188.234 0H2.75l-.016-.156H.391L2.75-3.062l-.031-.188zm0 0"/></symbol><symbol overflow="visible" id="374d5dd9br"><path d="M2.797-3.25v1.516H.734V-3.25H.563V0h.171v-1.578h2.063V0h.172v-3.25zm0 0"/></symbol><symbol overflow="visible" id="374d5dd9bs"><path d="M.563-3.25V0H2.53v-.156H.734v-1.422h1.47v-.156H.733v-1.344h1.797v-.172zm0 0"/></symbol><symbol overflow="visible" id="374d5dd9bt"><path d="M.266-3.25l.109.172 1.031 1.406L.281-.219C.234-.14.171-.079.11 0h.22L1.5-1.531 2.578 0h.235l-.157-.219-1.031-1.453 1.063-1.406c.046-.063.093-.11.124-.172H2.61L1.516-1.812.5-3.25zm0 0"/></symbol><symbol overflow="visible" id="374d5dd9bu"><path d="M.563-3.25V0h.171v-2.64L.72-3.032l.234.375L2.843 0h.235v-3.25h-.187v2.625l.015.406h-.015l-.235-.375L.766-3.25zm0 0"/></symbol><symbol overflow="visible" id="374d5dd9bv"><path d="M.406-1.406c0 .5.219.89.563 1.156H.125L.078 0H1.25l.063-.266c-.407-.265-.61-.64-.61-1.14 0-.516.25-1.094.672-1.39.172-.095.375-.157.594-.157.672 0 .953.5.953 1.078 0 .656-.297 1.25-.938 1.61V0h1.157l.015-.25h-.812c.578-.375.89-.984.89-1.656 0-.688-.406-1.313-1.218-1.313-1.016 0-1.61.953-1.61 1.813zm0 0"/></symbol><symbol overflow="visible" id="374d5dd9bw"><path d="M1.203-1.453c-.172 0-.297 0-.406-.016l.187-1.437c.141-.016.329-.031.485-.031.531 0 .843.171.843.593 0 .375-.171.625-.453.75-.187.094-.421.14-.656.14zM.72-3.125L.313 0h.296l.157-1.219c.125.016.28.032.421.032.985 0 1.422-.579 1.422-1.172 0-.563-.437-.844-1.109-.844-.313 0-.594.047-.781.078zm0 0"/></symbol><symbol overflow="visible" id="374d5dd9bx"><path d="M1.64-2.813h.016l.14.594.235 1.047H.828zm-.124-.328L-.016-.109A.208.208 0 0 0-.062 0h.296l.47-.938h1.39L2.297 0h.281c0-.031 0-.094-.015-.14l-.72-3.016zm0 0"/></symbol><symbol overflow="visible" id="374d5dd9bz"><path d="M.719-3.14L.313 0h1.906v-.25H.64l.156-1.234h1.297l.031-.25H.844l.14-1.157h1.594l.031-.25zm0 0"/></symbol><symbol overflow="visible" id="374d5dd9bA"><path d="M.719-3.14L.313 0h.296l.375-2.89H2.61L2.234 0h.297l.422-3.14zm0 0"/></symbol><symbol overflow="visible" id="374d5dd9bB"><path d="M.719-3.14L.313 0h.296l.407-3.14zm0 0"/></symbol><symbol overflow="visible" id="374d5dd9bC"><path d="M.719-3.125L.313-.015c.203.03.5.077.89.077.906 0 1.39-.468 1.39-1.015 0-.375-.296-.64-.655-.703.39-.11.671-.453.671-.813 0-.515-.5-.734-1.046-.734-.329 0-.657.047-.844.078zm.828.172c.422 0 .766.125.766.531 0 .25-.172.453-.422.563-.141.062-.313.093-.5.093H.828l.156-1.14c.157-.016.36-.047.563-.047zM1.219-.188C.984-.188.78-.217.64-.233l.156-1.297h.578c.625 0 .922.234.922.578 0 .297-.172.515-.422.64a1.638 1.638 0 0 1-.656.126zm0 0"/></symbol><symbol overflow="visible" id="374d5dd9bD"><path d="M1.875-1.625L.828-2.891h1.89l.048-.25H.53l-.078.25 1.063 1.282L.078-.266.094 0h2.281l.016-.25H.437L1.86-1.563zm0 0"/></symbol><symbol overflow="visible" id="374d5dd9bE"><path d="M2.734-3.14L2.547-1.72H.828l.188-1.422H.719L.313 0h.296l.188-1.469h1.719L2.312 0h.297l.422-3.14zm0 0"/></symbol><symbol overflow="visible" id="374d5dd9bF"><path d="M2.61-3.14L.812-1.532l.203-1.61H.719L.313 0h.296l.157-1.172.5-.437.218.359L2.22 0h.312c-.047-.11-.11-.203-.172-.328l-.89-1.469 1.36-1.187a.367.367 0 0 0 .124-.157zm0 0"/></symbol><symbol overflow="visible" id="374d5dd9bG"><path d="M.297-1.219C.297-.484.703.078 1.5.078c.969 0 1.625-1.016 1.625-1.969 0-.75-.406-1.328-1.188-1.328-.984 0-1.64 1.047-1.64 2zm2.547-.672c0 .563-.25 1.141-.64 1.47a1.13 1.13 0 0 1-.673.233c-.64 0-.937-.421-.937-1.03 0-.626.265-1.266.719-1.548a.994.994 0 0 1 .593-.187c.61 0 .938.453.938 1.062zm-1.875.188l-.031.234h1.515l.047-.234zm0 0"/></symbol><symbol overflow="visible" id="374d5dd9bH"><path d="M3.156-3.14L1.891-.36h-.032l-.078-.5-.453-2.28h-.36L.173-.188C.156-.126.125-.047.125 0h.281l.719-2.75h.016l.093.547L1.688 0H2l1.25-2.75h.016V0h.296v-.188L3.517-3.14zm0 0"/></symbol><symbol overflow="visible" id="374d5dd9bI"><path d="M1.484-1.563H1.47C1.453-2.453 1-3.109.484-3.202l-.093.25c.671.219.953 1.187.859 2L1.125 0h.297l.125-.906c.094-.813.64-1.813 1.39-2.047l-.078-.25c-.562.11-1.14.75-1.375 1.64zm0 0"/></symbol><symbol overflow="visible" id="374d5dd9bJ"><path d="M.25 0l1.313-2.813h.015l.125.61L2.141 0h.296c-.015-.125-.062-.297-.093-.453l-.578-2.703-.329.015L.157-.453A6 6 0 0 0-.064 0zm0 0"/></symbol><symbol overflow="visible" id="374d5dd9bK"><path d="M.344-3.14l-.016.25h1.11L1.046 0h.297l.375-2.89h1.11l.03-.25zm0 0"/></symbol><symbol overflow="visible" id="374d5dd9bM"><path d="M-9.078-1.39H-.86c2.14 0 2.921.25 3.203 1.827l.734-.171c-.156-1.954-1.39-2.563-3.61-2.563h-8.546zm0 0"/></symbol><symbol overflow="visible" id="374d5dd9bN"><path d="M-3.61-.766c2.063 0 3.782-1.28 3.782-3.562 0-2.469-2.031-3.563-3.969-3.563-2.062 0-3.765 1.282-3.765 3.563 0 2.484 2.03 3.562 3.953 3.562zm-.124-6.203c1.078 0 2.109.36 2.671 1.14.25.376.438.876.438 1.5 0 1.704-1.36 2.641-3.047 2.641-1.062 0-2.062-.359-2.61-1.109-.28-.39-.468-.89-.468-1.531 0-1.688 1.328-2.64 3.016-2.64zm0 0"/></symbol><symbol overflow="visible" id="374d5dd9bO"><path d="M-7.39-6.234h3.265v4.093h-3.266v.891H0v-.89h-3.344v-4.094H0v-.891h-7.39zm0 0"/></symbol><symbol overflow="visible" id="374d5dd9bP"><path d="M-7.39-1.25H0v-.813h-5.188L-6.327-2v-.016l.937-.578L0-6.359v-.954h-7.39v.813h5.109l1.219-.063v.016L-2-5.984l-5.39 3.796zm0 0"/></symbol><symbol overflow="visible" id="374d5dd9bR"><path d="M-5.547-.89c1.234 0 1.766-1.157 2.125-2.235.313-1.016.594-2.094 1.547-2.094.875 0 1.25.844 1.25 1.875 0 .813-.25 1.703-.625 2.36l.672.343c.422-.625.75-1.656.75-2.671 0-1.547-.64-2.829-2.094-2.829-1.39 0-1.828 1.266-2.203 2.47-.313.968-.656 1.874-1.469 1.874-.875 0-1.172-.906-1.172-1.828 0-.656.188-1.438.407-1.969l-.688-.312c-.281.547-.516 1.375-.516 2.234 0 1.578.672 2.781 2.016 2.781zm0 0"/></symbol><symbol overflow="visible" id="374d5dd9bS"><path d="M-7.39-7.344l6.343 2.172v.031l-1.297.391L-7.39-3v1.11L-1-.89c.36.046.656.093 1 .124v-.828L-6.25-2.5v-.031l1.375-.422L0-4.641v-.968l-6.234-2.188v-.047L-4.891-8 0-8.703v-.906c-.36.046-.719.078-1.11.156l-6.28.969zm0 0"/></symbol><symbol overflow="visible" id="374d5dd9bT"><path d="M-7.39-1.25H0v-.89h-7.39zm0 0"/></symbol><symbol overflow="visible" id="374d5dd9bU"><path d="M-7.39-.36l.796-.03v-2.704H0v-.89h-6.594v-2.688l-.797-.016zm0 0"/></symbol><symbol overflow="visible" id="374d5dd9bV"><path d="M-9.484-1.563l1.359-.406-.531-2.515h7.125v2.75H0V-8.36l-1.531.078v1.937h-8.828l-.032 1.547zm0 0"/></symbol><symbol overflow="visible" id="374d5dd9bW"><path d="M-7.813-1.313c1 0 1.844-.687 2.375-1.593.75 1.187 1.563 2.062 2.86 2.094C-.718-.797.234-2.47.234-4.563c0-2.407-1.062-4.204-3.14-4.204-1.328 0-1.938.86-2.485 1.985-.796-1-1.593-1.578-2.625-1.578-1.593 0-2.593 1.39-2.593 3.484 0 2 1.078 3.563 2.796 3.563zm-.03-1.89c-.407 0-.72-.172-.938-.485-.203-.296-.313-.703-.313-1.218 0-.938.485-1.578 1.235-1.563.703 0 1.312.375 1.843 1.032-.625 1.375-1.015 2.234-1.828 2.234zm6.562-1.578c0 1.203-.5 2.093-1.39 2.093-.954 0-1.579-.624-2.142-1.609.688-1.64 1.11-2.578 2.063-2.578.438 0 .781.25 1.031.594.297.375.438.953.438 1.5zm0 0"/></symbol><symbol overflow="visible" id="374d5dd9bX"><path d="M-10.375-1.484L0-1.47V-8.53l-1.531.062v5.125h-2.985v-4.078h-1.53v4.078h-2.798v-5.031l-1.531-.063zm0 0"/></symbol><symbol overflow="visible" id="374d5dd9ci"><path d="M-9.344-1.203l1.125-.844c-.469-.625-.765-1.469-.765-2.219 0-1.328.796-1.906 1.687-1.906 1.344 0 2.828 1.39 4.234 3.094l1.422 1.75L0-1.468v-6.86l-1.531.062v4.485l-.657-.781C-3.952-6.75-5.515-8.11-7.311-8.11c-1.766 0-3.25 1.296-3.25 3.64 0 1.25.421 2.422 1.218 3.266zm0 0"/></symbol><symbol overflow="visible" id="374d5dd9cs"><path d="M-5.406-4.547c0 1.156-.625 1.828-1.766 1.828-.516 0-.984-.14-1.375-.547-.344-.375-.484-.875-.484-1.296 0-1.454 1.469-2 3.015-2.063.344.61.61 1.344.61 2.078zM-7.11-.813c1.78 0 3.171-1.25 3.171-3.328 0-.953-.25-1.734-.624-2.39v-.016c1.89.313 3.171 1.469 3.171 3.656 0 .313-.03.547-.093.891L0-1.734c.11-.375.188-.844.188-1.36 0-3.531-2.97-5.484-6.141-5.484-2.25 0-4.656 1.062-4.656 3.89 0 2.391 1.593 3.875 3.5 3.875zm0 0"/></symbol><symbol overflow="visible" id="374d5dd9ct"><path d="M-4.422-1.016c2.25 0 4.656-1.078 4.656-3.89 0-2.407-1.593-3.89-3.5-3.89-1.78 0-3.171 1.25-3.171 3.327 0 .969.25 1.735.625 2.407v.015c-1.891-.312-3.172-1.469-3.172-3.656a4.7 4.7 0 0 1 .093-.906l-1.484-.25c-.11.359-.188.843-.188 1.359 0 3.531 2.97 5.484 6.141 5.484zm3.078-4.015c0 1.437-1.468 2-3 2.062-.36-.61-.625-1.344-.625-2.078 0-1.156.64-1.828 1.766-1.828.515 0 .984.14 1.375.547.344.36.484.86.484 1.297zm0 0"/></symbol><symbol overflow="visible" id="374d5dd9bY"><path d="M-3.938-.531c.844 0 1.204-.64 1.532-1.266.265-.5.531-1.062.984-1.062.422 0 .672.39.672.906 0 .5-.156.922-.36 1.234l.72.406c.28-.39.484-.937.484-1.562 0-1.094-.61-1.922-1.625-1.922-.844 0-1.203.61-1.61 1.406-.265.532-.468.907-.875.907-.406 0-.593-.36-.593-.829 0-.406.078-.78.203-1.078l-.75-.296a2.782 2.782 0 0 0-.313 1.296c0 1.094.594 1.86 1.532 1.86zm0 0"/></symbol><symbol overflow="visible" id="374d5dd9bZ"><path d="M-5.375-.672H0v-3.094l-.828.032v2.14h-1.516v-1.672h-.812v1.672h-1.39v-2.14l-.829-.032zm0 0"/></symbol><symbol overflow="visible" id="374d5dd9ca"><path d="M-4.36-2.313v-.03l.97-.235 1.343-.36v1.282zm-1 .5L-.296-.234A.908.908 0 0 0 0-.172v-.906l-1.281-.36V-3.14L0-3.484v-.891c-.063 0-.172.016-.313.063L-5.39-2.86zm0 0"/></symbol><symbol overflow="visible" id="374d5dd9cb"><path d="M-5.375-.266l.828-.03v-1.47H0v-.921h-4.547v-1.485l-.828-.031zm0 0"/></symbol><symbol overflow="visible" id="374d5dd9cj"><path d="M-2.594-.438c1.578 0 2.672-.765 2.672-2.312 0-.5-.125-1.078-.344-1.531h-2.359v.922h1.828c.016.171.047.343.047.515 0 1.125-1.016 1.453-1.875 1.453-.688 0-1.266-.187-1.594-.5-.234-.234-.36-.53-.36-.937 0-.328.048-.656.22-1l-.704-.375c-.234.36-.375.781-.375 1.375 0 1.656 1.407 2.39 2.844 2.39zm0 0"/></symbol><symbol overflow="visible" id="374d5dd9co"><path d="M-5.375-.672H0v-.922h-2.14v-1.672h-.829v1.672h-1.578v-2.125l-.828-.047zm0 0"/></symbol><symbol overflow="visible" id="374d5dd9cp"><path d="M-5.375-.672H0v-2.937l-.828.03v1.985h-4.547zm0 0"/></symbol><symbol overflow="visible" id="374d5dd9cq"><path d="M-5.375-.672H0v-.922h-5.375zm0 0"/></symbol><symbol overflow="visible" id="374d5dd9cr"><path d="M-5.375-3.563h2.266v1.97h-2.266v.921H0v-.922h-2.281v-1.968H0v-.922h-5.375zm0 0"/></symbol><symbol overflow="visible" id="374d5dd9cv"><path d="M-5.375-.672H0v-.812h-3.406l-.922.046.844-.343L0-3.563V-4.64h-5.375v.813h3.313l1.015-.047-.875.328-3.453 1.766zm0 0"/></symbol><symbol overflow="visible" id="374d5dd9cw"><path d="M-5.375-4.281l4.406.937v.031l-1.11.157-3.296.734v1.39l4.547.516c.281.032.562.079.828.079v-.813l-4.36-.484v-.016l.844-.156L0-2.672V-3.89l-4.36-.968v-.032l.86-.062 3.5-.39v-.891c-.266 0-.61.03-.906.078l-4.469.484zm0 0"/></symbol><symbol overflow="visible" id="374d5dd9cR"><path d="M-5.313-.672H-.03C.03-.922.094-1.5.094-2.094c0-1.469-.703-2.187-1.688-2.187-.625 0-1.125.406-1.312 1.047C-3.187-3.766-3.61-4-4.125-4c-.813 0-1.313.672-1.313 1.922 0 .625.094 1.203.125 1.406zm1.407-2.36c.265 0 .469.126.594.298.109.14.171.312.171.687v.453h-1.453a4.157 4.157 0 0 1-.031-.468c0-.641.234-.97.719-.97zm3.187.891c0 .172-.015.344-.031.547h-1.625v-.547c0-.812.281-1.187.797-1.187a.9.9 0 0 1 .64.312c.125.188.22.438.22.875zm0 0"/></symbol><symbol overflow="visible" id="374d5dd9cS"><path d="M-2.625-.422c1.453 0 2.719-.75 2.719-2.203 0-1.531-1.328-2.281-2.844-2.281-1.453 0-2.719.75-2.719 2.218 0 1.5 1.313 2.266 2.844 2.266zm-.063-3.531c.547 0 1.282.125 1.657.562.14.157.281.375.281.72 0 .858-.922 1.28-1.922 1.28-.578 0-1.297-.14-1.672-.562a1.004 1.004 0 0 1-.265-.703c0-.86.906-1.297 1.921-1.297zm0 0"/></symbol><symbol overflow="visible" id="374d5dd9cT"><path d="M-2.797-2c0 .14 0 .266-.015.406h-1.735c-.016-.187-.031-.375-.031-.515 0-.766.281-1.204.89-1.204.329 0 .579.172.735.454.094.203.156.484.156.859zM-5.312-.672H0v-.922h-1.953c.016-.172.016-.375.016-.531 0-.094 0-.203-.016-.297L0-3.516v-.921c-.063 0-.234.062-.406.156l-1.797 1c-.297-.61-.86-1-1.594-1-1.015 0-1.64.734-1.64 2.156 0 .39.03.969.125 1.453zm0 0"/></symbol><symbol overflow="visible" id="374d5dd9cU"><path d="M-5.313-.672H-.03c.047-.203.125-.781.125-1.344 0-1.812-1.203-2.796-2.875-2.796-1.594 0-2.656.953-2.656 2.671 0 .797.062 1.204.125 1.47zM-.75-2c0 .188-.016.297-.016.406h-3.796c-.016-.203-.016-.406-.016-.64 0-1.079.703-1.61 1.844-1.61.687 0 1.312.203 1.671.719.188.266.313.625.313 1.125zm0 0"/></symbol><symbol overflow="visible" id="374d5dd9cc"><path d="M-3.14-2.61l1.609 1.797-1.61-.203v.297L0-.313v-.296l-1.172-.157-.437-.5.359-.218L0-2.22v-.312c-.11.047-.203.11-.328.172l-1.469.89-1.187-1.36a.367.367 0 0 0-.157-.124zm0 0"/></symbol><symbol overflow="visible" id="374d5dd9cd"><path d="M-2.813-1.64v-.016l.594-.14 1.047-.235v1.203zm-.328.124L-.109.016A.208.208 0 0 0 0 .062v-.296l-.938-.47v-1.39L0-2.297v-.281c-.031 0-.094 0-.14.015l-3.016.72zm0 0"/></symbol><symbol overflow="visible" id="374d5dd9ce"><path d="M-1.219-.297C-.484-.297.078-.703.078-1.5c0-.969-1.016-1.625-1.969-1.625-.75 0-1.328.406-1.328 1.188 0 .984 1.047 1.64 2 1.64zm-.672-2.547c.563 0 1.141.25 1.47.64.14.188.233.423.233.673 0 .64-.421.937-1.03.937-.626 0-1.266-.265-1.548-.719a.994.994 0 0 1-.187-.593c0-.61.453-.938 1.062-.938zm.188 1.875l.234.031v-1.515l-.234-.047zm0 0"/></symbol><symbol overflow="visible" id="374d5dd9cf"><path d="M-3.14-.719L0-.313v-.296l-3.14-.407zm0 0"/></symbol><symbol overflow="visible" id="374d5dd9cg"><path d="M-1.625-1.875L-2.891-.828v-1.89l-.25-.048V-.53l.25.078 1.282-1.063L-.266-.078 0-.094v-2.281l-.25-.016v1.954L-1.563-1.86zm0 0"/></symbol><symbol overflow="visible" id="374d5dd9ch"><path d="M-3.14-3.156l2.78 1.265v.032l-.5.078-2.28.453v.36l2.953.796c.062.016.14.047.187.047v-.281l-2.75-.719v-.016l.547-.093L0-1.688V-2l-2.75-1.25v-.016H0v-.296h-.188l-2.953.046zm0 0"/></symbol><symbol overflow="visible" id="374d5dd9ck"><path d="M-3.14-.719L0-.313v-.296l-2.89-.375V-2.61L0-2.234v-.297l-3.14-.422zm0 0"/></symbol><symbol overflow="visible" id="374d5dd9cl"><path d="M-1.563-1.484v.015c-.89.016-1.546.469-1.64.985l.25.093c.219-.671 1.187-.953 2-.859L0-1.125v-.297l-.906-.125c-.813-.094-1.813-.64-2.047-1.39l-.25.078c.11.562.75 1.14 1.64 1.375zm0 0"/></symbol><symbol overflow="visible" id="374d5dd9cm"><path d="M0-.25l-2.813-1.313v-.015l.61-.125L0-2.141v-.296c-.125.015-.297.062-.453.093l-2.703.578.015.329 2.688 1.28A6 6 0 0 0 0 .064zm0 0"/></symbol><symbol overflow="visible" id="374d5dd9cn"><path d="M-3.14-2.734l1.421.187v1.719l-1.422-.188v.297L0-.313v-.296l-1.469-.188v-1.719L0-2.312v-.297l-3.14-.422zm0 0"/></symbol><symbol overflow="visible" id="374d5dd9cu"><path d="M-3.14-.344l.25.016v-1.11L0-1.046v-.297l-2.89-.375v-1.11l-.25-.03zm0 0"/></symbol><symbol overflow="visible" id="374d5dd9cW"><path d="M-1.406-.406c.5 0 .89-.219 1.156-.563v.844L0-.078V-1.25l-.266-.063c-.265.407-.64.61-1.14.61-.516 0-1.094-.25-1.39-.672a1.243 1.243 0 0 1-.157-.594c0-.672.5-.953 1.078-.953.656 0 1.25.297 1.61.938H0v-1.157l-.25-.015v.812a1.936 1.936 0 0 0-1.656-.89c-.688 0-1.313.406-1.313 1.218 0 1.016.953 1.61 1.813 1.61zm0 0"/></symbol><symbol overflow="visible" id="374d5dd9cX"><path d="M-1.453-1.203c0 .172 0 .297-.016.406l-1.437-.187a4.732 4.732 0 0 1-.031-.485c0-.531.171-.843.593-.843.375 0 .625.171.75.453.094.187.14.421.14.656zm-1.672.484L0-.313v-.296l-1.219-.157c.016-.125.032-.28.032-.421 0-.985-.579-1.422-1.172-1.422-.563 0-.844.437-.844 1.109 0 .313.047.594.078.781zm0 0"/></symbol><symbol overflow="visible" id="374d5dd9cZ"><path d="M-3.14-.719L0-.313v-1.906h-.25V-.64l-1.234-.156v-1.297l-.25-.031v1.281l-1.157-.14v-1.594l-.25-.031zm0 0"/></symbol><symbol overflow="visible" id="374d5dd9da"><path d="M-3.125-.719l3.11.406c.03-.203.077-.5.077-.89 0-.906-.468-1.39-1.015-1.39-.375 0-.64.296-.703.655-.11-.39-.453-.671-.813-.671-.515 0-.734.5-.734 1.046 0 .329.047.657.078.844zm.172-.828c0-.422.125-.766.531-.766.25 0 .453.172.563.422.062.141.093.313.093.5v.563l-1.14-.156c-.016-.157-.047-.36-.047-.563zm2.765.328c0 .235-.03.438-.046.578l-1.297-.156v-.578c0-.625.234-.922.578-.922.297 0 .515.172.64.422.079.172.126.406.126.656zm0 0"/></symbol><symbol overflow="visible" id="374d5dd9cy"><path d="M-4.5-1.375h3.281c.407 0 .782.031.782.516 0 .187-.063.375-.11.5l.438.171c.093-.156.187-.406.187-.765 0-.86-.672-.985-1.328-.985H-4.5zm0 0"/></symbol><symbol overflow="visible" id="374d5dd9cz"><path d="M-3.813-1.89v-.032l.844-.219 1.281-.375v1.266zm-.687.28L-.266-.25c.125.031.204.063.266.063V-.75l-1.203-.36v-1.546L0-3v-.563c-.047 0-.172.032-.328.094l-4.188 1.25zm0 0"/></symbol><symbol overflow="visible" id="374d5dd9cA"><path d="M-4.5-.64H0v-.5h-3.172l-.656.046v-.015l.578-.25L0-3.094v-.656h-4.5v.516h3.094l.734-.032-.61.235L-4.5-1.297zm0 0"/></symbol><symbol overflow="visible" id="374d5dd9cB"><path d="M-4.5-2.984h3.031c.422 0 .688.109.828.312.094.094.188.297.188.594 0 .75-.438.906-1.047.906h-3v.578h3.031c1.032 0 1.547-.469 1.547-1.469 0-1.078-.64-1.5-1.672-1.5H-4.5zm0 0"/></symbol><symbol overflow="visible" id="374d5dd9cC"><path d="M-2.297-1.61c0 .173 0 .282-.015.407H-4c-.016-.172-.031-.344-.031-.469 0-.719.265-1.125.843-1.125.36 0 .626.219.75.469.094.187.141.453.141.719zm-2.172.97H0v-.563h-1.781c0-.14.015-.313.015-.453 0-.11-.015-.219-.015-.328L0-2.922v-.562c-.063 0-.188.046-.328.125l-1.61.859c-.234-.563-.718-.89-1.296-.89-.829 0-1.329.593-1.329 1.687 0 .281.032.719.094 1.062zm0 0"/></symbol><symbol overflow="visible" id="374d5dd9cD"><path d="M-4.5-2.797l2.14 1-.562.25L-4.5-.78v.562c.094.016.266-.062.438-.156l2.25-1.125H0v-.563h-1.828l-2.234-1.14c-.157-.078-.36-.172-.438-.172zm0 0"/></symbol><symbol overflow="visible" id="374d5dd9cF"><path d="M-4.5-.563l2.281.016.078-.062a2.318 2.318 0 0 1-.156-.782c0-.609.36-.875.828-.875.39 0 .703.157.875.438a1.1 1.1 0 0 1 .14.562c0 .25-.062.5-.124.672l.469.172C0-.672.078-.969.078-1.297c0-.906-.61-1.531-1.594-1.531-.78 0-1.265.515-1.265 1.265 0 .157.015.313.047.47H-4v-1.5h-.5zm0 0"/></symbol><symbol overflow="visible" id="374d5dd9cG"><path d="M-1.125-.547c.188-.015.39-.031.578-.031.563 0 1.094.14 1.531.484l.204-.25C.766-.859.109-1.125-.579-1.125c-.188 0-.406.031-.594.063zm0 0"/></symbol><symbol overflow="visible" id="374d5dd9cH"><path d="M-4.031-.422l.343-.266c-.171-.25-.343-.546-.343-.921 0-.47.265-.735.765-.735.688 0 1.329.625 2.094 1.344l.656.625L0-.438V-2.89l-.5.032v1.796l-.422-.421c-.75-.72-1.515-1.438-2.437-1.438-.688 0-1.22.422-1.22 1.235 0 .546.282.984.548 1.265zm0 0"/></symbol><symbol overflow="visible" id="374d5dd9cI"><path d="M-2.156-.438C-.984-.438.078-.921.078-1.843c0-1.015-1.156-1.5-2.437-1.5-1.172 0-2.235.469-2.235 1.39 0 1.032 1.219 1.516 2.438 1.516zm-.188-2.328c.594 0 1.406.11 1.735.485.109.125.156.281.156.422 0 .53-.781.828-1.734.828-.594 0-1.407-.125-1.72-.5a.588.588 0 0 1-.14-.407c0-.578.797-.828 1.703-.828zm0 0"/></symbol><symbol overflow="visible" id="374d5dd9cJ"><path d="M-4.14-.375l.421-.14-.219-.75H-.5v.827H0v-2.046l-.5.03v.626h-4.016l-.015.453zm0 0"/></symbol><symbol overflow="visible" id="374d5dd9cK"><path d="M-4.5-.281l.516-.031v-1.86l3.89 1.563.203-.547-4.093-1.657-.516.047zm0 0"/></symbol><symbol overflow="visible" id="374d5dd9cL"><path d="M-4.625-.594l1.453-.234v-4.688H0v-1.578h-3.172v-1.312l-1.422.078v1.234h-8.672l-.03 1.625zm-4.297-4.031l-1.625-.844v-.047h5.953v3.282zm0 0"/></symbol><symbol overflow="visible" id="374d5dd9cM"><path d="M-9.203-1.125c.672 0 1.14-.406 1.14-.953 0-.64-.484-1.031-1.25-1.031-.64 0-1.078.39-1.078.968 0 .594.485 1.016 1.188 1.016zm6.61-.125c.687 0 1.14-.375 1.14-.953 0-.61-.484-1.016-1.25-1.016-.64 0-1.063.406-1.063.953 0 .594.47 1.016 1.172 1.016zm0 0"/></symbol><symbol overflow="visible" id="374d5dd9cN"><path d="M-12.219-1.203l1.016-.734c-.422-.594-.688-1.313-.688-2.016 0-1.156.672-1.953 1.938-1.953 1.406 0 2.36.953 2.36 2.093v.797h1.452v-.828c0-1.406.954-2.422 2.329-2.422.89 0 1.546.313 1.921.813.344.39.516.984.516 1.672 0 .64-.125 1.422-.453 2.015l1.25.579c.5-.704.781-1.688.781-2.672 0-2.454-1.578-4.094-3.984-4.094-1.594 0-2.75.812-3.219 2.047-.688-1.016-1.797-1.672-3.219-1.672-1.89 0-3.25 1.266-3.25 3.36 0 1.202.485 2.234 1.25 3.015zm0 0"/></symbol><symbol overflow="visible" id="374d5dd9cO"><path d="M-13.281-1.719h6.719l.203-.172c-.266-.64-.422-1.421-.422-2.03 0-1.454 1.11-2.204 2.406-2.204 1.188 0 2.063.313 2.547.906.328.438.453 1.016.453 1.672 0 .61-.156 1.203-.328 1.703l1.328.469c.328-.703.578-1.438.578-2.375 0-2.375-1.625-4.063-4.687-4.063-2.204 0-3.704 1.407-3.704 3.454 0 .375.032.734.141 1.062h-3.719v-4l-1.515-.062zm0 0"/></symbol><symbol overflow="visible" id="374d5dd9cP"><path d="M-6.25-4.219a6.8 6.8 0 0 1-.078 1.063h-5.453a7.752 7.752 0 0 1-.11-1.219c0-1.734.704-2.906 2.704-2.906 1.296 0 2.109.593 2.484 1.234.297.5.453 1.172.453 1.828zm-6.922 2.672H0v-1.61h-4.797c.031-.405.063-.812.063-1.062C-4.734-7.297-6.906-9-9.438-9c-2.484 0-4.03 1.563-4.03 4.656 0 .797.109 1.813.296 2.797zm0 0"/></symbol><symbol overflow="visible" id="374d5dd9cQ"><path d="M-13.281-9.36l10.969 2.344v.063l-2.391.375-8.578 2.031v2.344l12.203 1.11c.36.046.719.077 1.078.077v-1.437l-11.078-1v-.031l1.953-.375L0-6.031V-7.97l-11.078-2.453v-.062l1.984-.141L0-11.578v-1.453c-.36.031-.688.062-1.125.11l-12.156 1.218zm0 0"/></symbol><symbol overflow="visible" id="374d5dd9dc"><path d="M-1.219-.297C-.484-.297.078-.703.078-1.5c0-.969-1.016-1.625-1.969-1.625-.75 0-1.328.406-1.328 1.188 0 .984 1.047 1.64 2 1.64zm-.672-2.531c.563 0 1.141.25 1.47.625.14.187.233.422.233.672 0 .625-.421.937-1.03.937-.626 0-1.25-.281-1.548-.719a.994.994 0 0 1-.187-.593c0-.61.453-.922 1.062-.922zm0 0"/></symbol><symbol overflow="visible" id="374d5dd9dd"><path d="M-3.14-.719L0-.313v-.28l-2.313-.298-.453-.046.375-.172L0-2.422v-.281l-3.14-.422v.281l2.28.297.47.031v.016l-.36.156-2.39 1.328zm0 0"/></symbol><symbol overflow="visible" id="374d5dd9de"><path d="M-3.14-3.156l2.78 1.265v.032l-.5.078-2.28.453v.36l2.953.796c.062.016.14.047.187.047v-.281l-2.75-.719v-.016l.547-.093L0-1.688V-2l-2.75-1.25v-.016H0v-.296h-.188l-2.953.046zm0 0"/></symbol><symbol overflow="visible" id="374d5dd9df"><path d="M-2.813-1.64v-.016l.594-.14 1.047-.235v1.203zm-.328.124L-.109.016A.208.208 0 0 0 0 .062v-.296l-.938-.47v-1.39L0-2.297v-.281c-.031 0-.094 0-.14.015l-3.016.72zm0 0"/></symbol><clipPath id="a"><path d="M0 0h527.602v254.563H0zm0 0"/></clipPath><clipPath id="b"><path d="M84 24h443.602v207H84zm0 0"/></clipPath><clipPath id="B"><path d="M397 21h130.602v193H397zm0 0"/></clipPath><clipPath id="bL"><path d="M394 52h133.602v7H394zm0 0"/></clipPath></defs><g clip-path="url(#a)"><path d="M0 254.563h527.602V0H0zm0 0" fill="#28d794"/></g><g clip-path="url(#b)"><path d="M95.188 226.82a3.933 3.933 0 0 0 4.152 3.672l433.297-26.277a3.93 3.93 0 0 0 3.676-4.149l-10.418-171.77a3.927 3.927 0 0 0-4.149-3.675l-433.3 26.277a3.927 3.927 0 0 0-3.673 4.149zm0 0" fill="#1b1b1b"/></g><path d="M78.563 209.313a3.95 3.95 0 0 0 3.937 3.933l435.941-.05a3.948 3.948 0 0 0 3.938-3.934l-.024-184.032a3.944 3.944 0 0 0-3.933-3.933l-435.942.047a3.949 3.949 0 0 0-3.937 3.937zm0 0" fill="#fff"/><g fill="#1b1b1b"><use xlink:href="#374d5dd9c" x="118.9559" y="46.424"/><use xlink:href="#374d5dd9d" x="126.943683" y="46.423123"/><use xlink:href="#374d5dd9e" x="135.024348" y="46.422235"/><use xlink:href="#374d5dd9f" x="139.451685" y="46.421749"/><use xlink:href="#374d5dd9g" x="146.990542" y="46.420921"/></g><g fill="#1b1b1b"><use xlink:href="#374d5dd9h" x="152.873018" y="46.420275"/><use xlink:href="#374d5dd9i" x="155.30341" y="46.420008"/><use xlink:href="#374d5dd9j" x="164.498648" y="46.418999"/><use xlink:href="#374d5dd9g" x="168.600901" y="46.418548"/><use xlink:href="#374d5dd9e" x="174.622699" y="46.417887"/><use xlink:href="#374d5dd9j" x="179.050036" y="46.417401"/><use xlink:href="#374d5dd9k" x="183.152289" y="46.41695"/><use xlink:href="#374d5dd9l" x="191.449677" y="46.416039"/><use xlink:href="#374d5dd9m" x="198.926613" y="46.415218"/></g><g fill="#1b1b1b"><use xlink:href="#374d5dd9n" x="214.5388" y="45.9292"/><use xlink:href="#374d5dd9o" x="221.79515" y="45.9284"/><use xlink:href="#374d5dd9p" x="227.106798" y="45.927814"/><use xlink:href="#374d5dd9q" x="230.517283" y="45.927438"/><use xlink:href="#374d5dd9r" x="237.120561" y="45.92671"/></g><use xlink:href="#374d5dd9s" x="242.448173" y="45.926123" fill="#1b1b1b"/><g fill="#1b1b1b"><use xlink:href="#374d5dd9t" x="247.367979" y="45.925581"/><use xlink:href="#374d5dd9u" x="252.171682" y="45.925051"/><use xlink:href="#374d5dd9v" x="254.479202" y="45.924797"/><use xlink:href="#374d5dd9w" x="260.850277" y="45.924094"/><use xlink:href="#374d5dd9x" x="265.915209" y="45.923536"/><use xlink:href="#374d5dd9y" x="271.546137" y="45.922915"/></g><g fill="#1b1b1b"><use xlink:href="#374d5dd9z" x="277.30913" y="45.92228"/><use xlink:href="#374d5dd9x" x="282.620778" y="45.921694"/><use xlink:href="#374d5dd9q" x="288.251706" y="45.921073"/><use xlink:href="#374d5dd9A" x="294.854984" y="45.920345"/><use xlink:href="#374d5dd9A" x="301.342161" y="45.91963"/><use xlink:href="#374d5dd9s" x="307.829338" y="45.918915"/></g><use xlink:href="#374d5dd9t" x="312.749143" y="45.918372" fill="#1b1b1b"/><g clip-path="url(#B)"><path d="M397.84 21.438l126.719-.012c2.382 0 4.328 1.851 4.328 4.113l.023 183.543c0 2.262-1.95 4.113-4.332 4.113l-126.715.016zm0 0" fill="#1b1b1b"/></g><g fill="#28d794"><use xlink:href="#374d5dd9C" x="100.7606" y="180.2102"/><use xlink:href="#374d5dd9D" x="100.759419" y="169.499901"/></g><g fill="#28d794"><use xlink:href="#374d5dd9E" x="100.758128" y="157.788233"/><use xlink:href="#374d5dd9F" x="100.756973" y="147.310136"/><use xlink:href="#374d5dd9G" x="100.755821" y="136.861064"/><use xlink:href="#374d5dd9H" x="100.754544" y="125.280009"/><use xlink:href="#374d5dd9I" x="100.753922" y="119.634608"/><use xlink:href="#374d5dd9J" x="100.752611" y="107.748788"/><use xlink:href="#374d5dd9K" x="100.751406" y="96.8208"/><use xlink:href="#374d5dd9L" x="100.750859" y="91.857491"/></g><g fill="#28d794"><use xlink:href="#374d5dd9E" x="100.749816" y="82.395276"/><use xlink:href="#374d5dd9M" x="100.748661" y="71.917179"/><use xlink:href="#374d5dd9M" x="100.747574" y="62.063123"/></g><use xlink:href="#374d5dd9N" x="120.1813" y="89.6827" fill="#1b1b1b"/><g fill="#1b1b1b"><use xlink:href="#374d5dd9O" x="133.303278" y="89.681238"/><use xlink:href="#374d5dd9P" x="147.315369" y="89.679676"/><use xlink:href="#374d5dd9Q" x="163.940369" y="89.677823"/></g><use xlink:href="#374d5dd9R" x="168.821451" y="88.069334" fill="#1b1b1b"/><use xlink:href="#374d5dd9S" x="176.315622" y="88.068499" fill="#1b1b1b"/><use xlink:href="#374d5dd9Q" x="195.065586" y="89.674354" fill="#1b1b1b"/><g fill="#1b1b1b"><use xlink:href="#374d5dd9T" x="199.946847" y="89.67381"/><use xlink:href="#374d5dd9P" x="211.89158" y="89.672479"/><use xlink:href="#374d5dd9U" x="228.516581" y="89.670626"/></g><g fill="#1b1b1b"><use xlink:href="#374d5dd9V" x="118.9466" y="193.136"/><use xlink:href="#374d5dd9W" x="131.408138" y="193.13462"/></g><g fill="#1b1b1b"><use xlink:href="#374d5dd9X" x="118.4572" y="156.4661"/><use xlink:href="#374d5dd9Y" x="123.913956" y="156.46548"/></g><g fill="#1b1b1b"><use xlink:href="#374d5dd9Z" x="128.722481" y="156.464933"/><use xlink:href="#374d5dd9aa" x="133.869634" y="156.464348"/></g><g fill="#1b1b1b"><use xlink:href="#374d5dd9ab" x="170.0716" y="193.1303"/><use xlink:href="#374d5dd9ac" x="182.533138" y="193.12892"/><use xlink:href="#374d5dd9ad" x="194.994676" y="193.12754"/></g><g fill="#1b1b1b"><use xlink:href="#374d5dd9ae" x="171.5188" y="156.4603"/><use xlink:href="#374d5dd9aa" x="176.3757" y="156.459748"/><use xlink:href="#374d5dd9Y" x="181.2326" y="156.459196"/></g><use xlink:href="#374d5dd9Z" x="186.041125" y="156.458649" fill="#1b1b1b"/><g fill="#1b1b1b"><use xlink:href="#374d5dd9af" x="228.708316" y="156.453798"/><use xlink:href="#374d5dd9ag" x="233.47814" y="156.453256"/><use xlink:href="#374d5dd9ah" x="238.035112" y="156.452738"/><use xlink:href="#374d5dd9X" x="240.986018" y="156.452402"/><use xlink:href="#374d5dd9ai" x="246.442774" y="156.451782"/><use xlink:href="#374d5dd9Z" x="252.286535" y="156.451117"/></g><use xlink:href="#374d5dd9aj" x="281.091" y="183.1269" fill="#1b1b1b"/><g fill="#1b1b1b"><use xlink:href="#374d5dd9ak" x="283.811654" y="183.126604"/><use xlink:href="#374d5dd9al" x="287.975359" y="183.126151"/><use xlink:href="#374d5dd9am" x="292.810035" y="183.125625"/></g><g fill="#1b1b1b"><use xlink:href="#374d5dd9ak" x="297.322093" y="183.125134"/><use xlink:href="#374d5dd9an" x="301.485797" y="183.124681"/></g><use xlink:href="#374d5dd9ao" x="305.548396" y="183.124239" fill="#1b1b1b"/><use xlink:href="#374d5dd9ap" x="309.243339" y="183.123837" fill="#1b1b1b"/><use xlink:href="#374d5dd9aq" x="310.906982" y="183.123656" fill="#1b1b1b"/><use xlink:href="#374d5dd9ar" x="281.091895" y="191.353203" fill="#1b1b1b"/><use xlink:href="#374d5dd9as" x="284.777646" y="191.352802" fill="#1b1b1b"/><use xlink:href="#374d5dd9at" x="288.941351" y="191.352349" fill="#1b1b1b"/><use xlink:href="#374d5dd9au" x="291.900981" y="191.352027" fill="#1b1b1b"/><g fill="#1b1b1b"><use xlink:href="#374d5dd9av" x="334.5178" y="192.0966"/><use xlink:href="#374d5dd9aw" x="343.176052" y="192.095658"/><use xlink:href="#374d5dd9ax" x="347.551134" y="192.095182"/><use xlink:href="#374d5dd9ay" x="356.209386" y="192.09424"/></g><g fill="#1b1b1b"><use xlink:href="#374d5dd9az" x="364.867638" y="192.093298"/><use xlink:href="#374d5dd9aA" x="374.371494" y="192.092264"/></g><g fill="#1b1b1b"><use xlink:href="#374d5dd9aB" x="281.8762" y="156.4481"/><use xlink:href="#374d5dd9aC" x="287.22653" y="156.447492"/></g><g fill="#1b1b1b"><use xlink:href="#374d5dd9Y" x="293.128341" y="156.446821"/><use xlink:href="#374d5dd9aD" x="298.420621" y="156.446219"/><use xlink:href="#374d5dd9aE" x="303.877377" y="156.445599"/><use xlink:href="#374d5dd9ah" x="309.788863" y="156.444927"/><use xlink:href="#374d5dd9aF" x="312.739769" y="156.444591"/><use xlink:href="#374d5dd9X" x="318.728656" y="156.44391"/><use xlink:href="#374d5dd9aG" x="324.185412" y="156.44329"/><use xlink:href="#374d5dd9Z" x="326.38166" y="156.44304"/><use xlink:href="#374d5dd9ah" x="331.528813" y="156.442455"/><use xlink:href="#374d5dd9aH" x="334.479719" y="156.442119"/><use xlink:href="#374d5dd9aa" x="341.84247" y="156.441282"/></g><g fill="#1b1b1b"><use xlink:href="#374d5dd9W" x="228.0999" y="193.124"/><use xlink:href="#374d5dd9aI" x="240.561438" y="193.12262"/><use xlink:href="#374d5dd9aJ" x="253.022976" y="193.12124"/></g><use xlink:href="#374d5dd9aK" x="118.9624" y="105.5012" fill="#1b1b1b"/><g fill="#1b1b1b"><use xlink:href="#374d5dd9aL" x="122.567712" y="105.500785"/><use xlink:href="#374d5dd9aM" x="126.511837" y="105.500331"/><use xlink:href="#374d5dd9aN" x="131.168338" y="105.499795"/><use xlink:href="#374d5dd9aO" x="134.921337" y="105.499363"/><use xlink:href="#374d5dd9aP" x="139.690775" y="105.498814"/><use xlink:href="#374d5dd9aQ" x="143.452462" y="105.498381"/></g><use xlink:href="#374d5dd9aR" x="145.042219" y="105.011698" fill="#1b1b1b"/><use xlink:href="#374d5dd9aS" x="147.466031" y="105.011419" fill="#1b1b1b"/><g fill="#1b1b1b"><use xlink:href="#374d5dd9aQ" x="153.147713" y="105.497265"/><use xlink:href="#374d5dd9aT" x="154.737525" y="105.497082"/></g><g fill="#1b1b1b"><use xlink:href="#374d5dd9aU" x="157.952769" y="105.496712"/><use xlink:href="#374d5dd9aO" x="162.739581" y="105.496161"/><use xlink:href="#374d5dd9aV" x="167.509019" y="105.495612"/><use xlink:href="#374d5dd9aU" x="172.156831" y="105.495077"/><use xlink:href="#374d5dd9aO" x="176.943644" y="105.494526"/><use xlink:href="#374d5dd9aQ" x="181.713081" y="105.493977"/></g><use xlink:href="#374d5dd9aW" x="187.654462" y="105.493293" fill="#1b1b1b"/><g fill="#1b1b1b"><use xlink:href="#374d5dd9aX" x="191.364025" y="105.492866"/><use xlink:href="#374d5dd9aY" x="195.681713" y="105.492369"/><use xlink:href="#374d5dd9aZ" x="200.025463" y="105.491869"/><use xlink:href="#374d5dd9aW" x="204.490837" y="105.491355"/><use xlink:href="#374d5dd9ba" x="208.30465" y="105.490916"/></g><use xlink:href="#374d5dd9bb" x="209.720656" y="105.004253" fill="#1b1b1b"/><use xlink:href="#374d5dd9bc" x="212.144469" y="105.003974" fill="#1b1b1b"/><g fill="#1b1b1b"><use xlink:href="#374d5dd9ba" x="217.82615" y="105.48982"/><use xlink:href="#374d5dd9bd" x="219.242212" y="105.489657"/><use xlink:href="#374d5dd9be" x="222.977837" y="105.489227"/><use xlink:href="#374d5dd9aZ" x="227.295525" y="105.48873"/><use xlink:href="#374d5dd9bf" x="231.7609" y="105.488216"/><use xlink:href="#374d5dd9bg" x="235.705025" y="105.487762"/><use xlink:href="#374d5dd9aZ" x="237.5294" y="105.487552"/><use xlink:href="#374d5dd9be" x="241.994775" y="105.487038"/></g><path d="M112.406 21.473l.02 191.77" fill="none" stroke-width=".116" stroke="#28d794" stroke-miterlimit="10"/><path d="M112.41 55.664l285.438-.031M112.418 144.887l285.437-.032M164.773 144.883l.008 68.355M221.969 144.875l.008 68.355M274.32 144.871l.008 68.352M328.254 167.57l.008 45.649M274.809 167.578l123.05-.016" fill="none" stroke-width=".231" stroke="#28d794" stroke-miterlimit="10"/><g fill="#1b1b1b"><use xlink:href="#374d5dd9bh" x="120.1843" y="125.8302"/><use xlink:href="#374d5dd9bi" x="122.815954" y="125.829928"/><use xlink:href="#374d5dd9bj" x="124.07373" y="125.829798"/><use xlink:href="#374d5dd9bk" x="126.73441" y="125.829523"/><use xlink:href="#374d5dd9bl" x="129.811124" y="125.829205"/><use xlink:href="#374d5dd9bi" x="132.079958" y="125.828971"/><use xlink:href="#374d5dd9bm" x="133.337734" y="125.828841"/><use xlink:href="#374d5dd9bl" x="135.833936" y="125.828583"/><use xlink:href="#374d5dd9bj" x="138.10277" y="125.828348"/><use xlink:href="#374d5dd9bn" x="140.76345" y="125.828073"/><use xlink:href="#374d5dd9bo" x="143.559583" y="125.827784"/><use xlink:href="#374d5dd9bh" x="146.52987" y="125.827477"/><use xlink:href="#374d5dd9bo" x="149.161524" y="125.827205"/><use xlink:href="#374d5dd9bp" x="152.13181" y="125.826898"/><use xlink:href="#374d5dd9bi" x="154.748952" y="125.826628"/><use xlink:href="#374d5dd9bk" x="156.006728" y="125.826498"/><use xlink:href="#374d5dd9bl" x="159.083442" y="125.82618"/><use xlink:href="#374d5dd9bn" x="161.352276" y="125.825945"/><use xlink:href="#374d5dd9bi" x="164.148409" y="125.825656"/><use xlink:href="#374d5dd9bl" x="165.406185" y="125.825526"/><use xlink:href="#374d5dd9bk" x="167.675019" y="125.825291"/><use xlink:href="#374d5dd9bi" x="170.751733" y="125.824973"/><use xlink:href="#374d5dd9bp" x="172.009509" y="125.824843"/></g><g fill="#1b1b1b"><use xlink:href="#374d5dd9bq" x="120.185038" y="132.975335"/><use xlink:href="#374d5dd9br" x="123.247239" y="132.975019"/><use xlink:href="#374d5dd9bl" x="126.817388" y="132.97465"/><use xlink:href="#374d5dd9bl" x="129.086222" y="132.974415"/><use xlink:href="#374d5dd9bk" x="131.355057" y="132.974181"/><use xlink:href="#374d5dd9bo" x="134.43177" y="132.973863"/><use xlink:href="#374d5dd9bh" x="137.402057" y="132.973556"/></g><g fill="#1b1b1b"><use xlink:href="#374d5dd9bs" x="166.142238" y="132.970585"/><use xlink:href="#374d5dd9bt" x="169.044798" y="132.970285"/><use xlink:href="#374d5dd9bu" x="172.087649" y="132.969971"/><use xlink:href="#374d5dd9bo" x="175.764225" y="132.969591"/><use xlink:href="#374d5dd9bl" x="178.734511" y="132.969284"/><use xlink:href="#374d5dd9bu" x="181.003346" y="132.969049"/><use xlink:href="#374d5dd9bh" x="184.679922" y="132.968669"/><use xlink:href="#374d5dd9bl" x="187.311576" y="132.968397"/></g><g fill="#1b1b1b"><use xlink:href="#374d5dd9bv" x="282.5399" y="162.7605"/><use xlink:href="#374d5dd9bw" x="286.162282" y="162.760126"/><use xlink:href="#374d5dd9bx" x="288.93712" y="162.759839"/><use xlink:href="#374d5dd9by" x="291.886111" y="162.759534"/><use xlink:href="#374d5dd9bz" x="293.047131" y="162.759414"/><use xlink:href="#374d5dd9bA" x="295.763918" y="162.759133"/><use xlink:href="#374d5dd9bB" x="299.032189" y="162.758795"/><use xlink:href="#374d5dd9bC" x="300.373167" y="162.758657"/><use xlink:href="#374d5dd9bB" x="303.351183" y="162.758349"/><use xlink:href="#374d5dd9bC" x="304.692162" y="162.75821"/><use xlink:href="#374d5dd9bx" x="307.670178" y="162.757903"/><use xlink:href="#374d5dd9bD" x="310.619169" y="162.757598"/><use xlink:href="#374d5dd9bE" x="313.469473" y="162.757303"/><use xlink:href="#374d5dd9bD" x="316.819015" y="162.756957"/></g><g fill="#1b1b1b"><use xlink:href="#374d5dd9bF" x="171.517362" y="162.771975"/><use xlink:href="#374d5dd9bx" x="174.437328" y="162.771673"/></g><g fill="#1b1b1b"><use xlink:href="#374d5dd9bG" x="177.299823" y="162.771377"/><use xlink:href="#374d5dd9bB" x="180.736442" y="162.771022"/><use xlink:href="#374d5dd9bD" x="182.07742" y="162.770884"/><use xlink:href="#374d5dd9bH" x="184.927724" y="162.770589"/><use xlink:href="#374d5dd9bx" x="189.02032" y="162.770166"/></g><g fill="#1b1b1b"><use xlink:href="#374d5dd9bA" x="118.452943" y="162.77746"/><use xlink:href="#374d5dd9bI" x="121.721215" y="162.777122"/><use xlink:href="#374d5dd9bJ" x="124.687621" y="162.776815"/><use xlink:href="#374d5dd9bE" x="127.497289" y="162.776525"/></g><g fill="#1b1b1b"><use xlink:href="#374d5dd9bA" x="228.703403" y="162.766064"/><use xlink:href="#374d5dd9bK" x="231.971674" y="162.765727"/><use xlink:href="#374d5dd9bE" x="234.804563" y="162.765434"/><use xlink:href="#374d5dd9bD" x="238.154105" y="162.765088"/><use xlink:href="#374d5dd9bE" x="241.00441" y="162.764793"/></g><g clip-path="url(#bL)"><path d="M529.031 55.617l-131.187.016" fill="none" stroke-width=".238" stroke="#fff" stroke-miterlimit="10"/></g><path d="M436.008 55.629l.015 157.578M476.434 55.621l.02 157.582M476.441 107.895l-40.789.003M476.445 160.164l-40.785.004" fill="none" stroke-width=".231" stroke="#fff" stroke-miterlimit="10"/><g fill="#fff"><use xlink:href="#374d5dd9bM" x="425.866" y="197.4324"/><use xlink:href="#374d5dd9bN" x="425.865585" y="193.680435"/><use xlink:href="#374d5dd9bO" x="425.864611" y="184.88973"/><use xlink:href="#374d5dd9bP" x="425.863669" y="176.38347"/><use xlink:href="#374d5dd9bQ" x="425.862706" y="167.68758"/><use xlink:href="#374d5dd9bR" x="425.862364" y="164.59932"/><use xlink:href="#374d5dd9bS" x="425.861593" y="157.63719"/><use xlink:href="#374d5dd9bT" x="425.860431" y="147.139815"/><use xlink:href="#374d5dd9bU" x="425.860041" y="143.618115"/><use xlink:href="#374d5dd9bO" x="425.859244" y="136.42572"/></g><g fill="#fff"><use xlink:href="#374d5dd9bV" x="470.0383" y="147.2615"/><use xlink:href="#374d5dd9bW" x="470.037246" y="137.663838"/><use xlink:href="#374d5dd9bX" x="470.036192" y="128.066176"/></g><g fill="#28d794"><use xlink:href="#374d5dd9bY" x="448.3654" y="146.7883"/><use xlink:href="#374d5dd9bZ" x="448.364848" y="141.9314"/><use xlink:href="#374d5dd9ca" x="448.364296" y="137.0745"/></g><use xlink:href="#374d5dd9cb" x="448.363749" y="132.265975" fill="#28d794"/><g fill="#28d794"><use xlink:href="#374d5dd9cc" x="454.6798" y="146.7886"/><use xlink:href="#374d5dd9cd" x="454.679498" y="143.868685"/></g><g fill="#28d794"><use xlink:href="#374d5dd9ce" x="454.679202" y="141.00682"/><use xlink:href="#374d5dd9cf" x="454.678847" y="137.57026"/><use xlink:href="#374d5dd9cg" x="454.678709" y="136.229305"/><use xlink:href="#374d5dd9ch" x="454.678414" y="133.37905"/><use xlink:href="#374d5dd9cd" x="454.677991" y="129.286525"/></g><g fill="#fff"><use xlink:href="#374d5dd9ci" x="470.0437" y="196.4588"/><use xlink:href="#374d5dd9bV" x="470.042646" y="186.861138"/></g><g fill="#28d794"><use xlink:href="#374d5dd9cj" x="448.3708" y="196.4612"/><use xlink:href="#374d5dd9ca" x="448.37018" y="191.004444"/></g><g fill="#28d794"><use xlink:href="#374d5dd9cb" x="448.369633" y="186.195919"/><use xlink:href="#374d5dd9bZ" x="448.369048" y="181.048766"/></g><g fill="#28d794"><use xlink:href="#374d5dd9ck" x="454.6853" y="196.4614"/><use xlink:href="#374d5dd9cl" x="454.684962" y="193.193185"/><use xlink:href="#374d5dd9cm" x="454.684656" y="190.22683"/><use xlink:href="#374d5dd9cn" x="454.684365" y="187.41721"/></g><g fill="#28d794"><use xlink:href="#374d5dd9co" x="448.3597" y="95.8918"/><use xlink:href="#374d5dd9cp" x="448.359158" y="91.121976"/><use xlink:href="#374d5dd9cq" x="448.35864" y="86.565004"/><use xlink:href="#374d5dd9cj" x="448.358304" y="83.614098"/><use xlink:href="#374d5dd9cr" x="448.357684" y="78.157342"/><use xlink:href="#374d5dd9cb" x="448.357019" y="72.313581"/></g><g fill="#fff"><use xlink:href="#374d5dd9bV" x="470.0326" y="95.8895"/><use xlink:href="#374d5dd9cs" x="470.031546" y="86.291838"/><use xlink:href="#374d5dd9ct" x="470.030492" y="76.694176"/></g><g fill="#28d794"><use xlink:href="#374d5dd9ck" x="454.6742" y="95.8902"/><use xlink:href="#374d5dd9cu" x="454.673862" y="92.621985"/><use xlink:href="#374d5dd9cn" x="454.673569" y="89.789145"/><use xlink:href="#374d5dd9cg" x="454.673223" y="86.43966"/><use xlink:href="#374d5dd9cn" x="454.672929" y="83.589405"/></g><g fill="#28d794"><use xlink:href="#374d5dd9cv" x="412.8289" y="197.4728"/><use xlink:href="#374d5dd9ca" x="412.828219" y="191.483913"/><use xlink:href="#374d5dd9cw" x="412.827617" y="186.191633"/><use xlink:href="#374d5dd9bZ" x="412.82678" y="178.828882"/></g><use xlink:href="#374d5dd9cx" x="412.8264" y="173.9723" fill="#28d794"/><use xlink:href="#374d5dd9cy" x="512.4097" y="194.8876" fill="#fff"/><g fill="#fff"><use xlink:href="#374d5dd9cz" x="512.409428" y="192.404012"/><use xlink:href="#374d5dd9cA" x="512.409014" y="188.621064"/><use xlink:href="#374d5dd9cB" x="512.408535" y="184.237779"/></g><g fill="#fff"><use xlink:href="#374d5dd9cz" x="512.408087" y="180.15055"/><use xlink:href="#374d5dd9cC" x="512.407673" y="176.367602"/></g><use xlink:href="#374d5dd9cD" x="512.407266" y="172.642221" fill="#fff"/><use xlink:href="#374d5dd9cE" x="512.406893" y="169.237568" fill="#fff"/><use xlink:href="#374d5dd9cF" x="512.406732" y="167.765508" fill="#fff"/><g fill="#fff"><use xlink:href="#374d5dd9cG" x="512.406379" y="164.541778"/><use xlink:href="#374d5dd9cE" x="512.406197" y="162.88057"/></g><use xlink:href="#374d5dd9cH" x="512.406036" y="161.40851" fill="#fff"/><use xlink:href="#374d5dd9cI" x="512.405669" y="158.0532" fill="#fff"/><use xlink:href="#374d5dd9cJ" x="512.405254" y="154.262028" fill="#fff"/><use xlink:href="#374d5dd9cK" x="512.404953" y="151.515279" fill="#fff"/><g fill="#fff"><use xlink:href="#374d5dd9cL" x="512.4037" y="140.9775"/><use xlink:href="#374d5dd9cM" x="512.402688" y="131.853906"/><use xlink:href="#374d5dd9cN" x="512.402189" y="127.351611"/><use xlink:href="#374d5dd9cO" x="512.401177" y="118.228017"/><use xlink:href="#374d5dd9cP" x="512.400165" y="109.104423"/><use xlink:href="#374d5dd9cQ" x="512.399084" y="99.365978"/></g><g fill="#28d794"><use xlink:href="#374d5dd9cR" x="492.3366" y="196.0364"/><use xlink:href="#374d5dd9cS" x="492.335992" y="190.68607"/></g><g fill="#28d794"><use xlink:href="#374d5dd9ca" x="492.335321" y="184.784259"/><use xlink:href="#374d5dd9cT" x="492.334719" y="179.491979"/><use xlink:href="#374d5dd9cU" x="492.334099" y="174.035223"/><use xlink:href="#374d5dd9cq" x="492.333426" y="168.123737"/><use xlink:href="#374d5dd9cv" x="492.333091" y="165.172831"/><use xlink:href="#374d5dd9cj" x="492.33241" y="159.183944"/><use xlink:href="#374d5dd9cV" x="492.33179" y="153.727188"/><use xlink:href="#374d5dd9cb" x="492.33154" y="151.53094"/><use xlink:href="#374d5dd9cq" x="492.330955" y="146.383787"/><use xlink:href="#374d5dd9cw" x="492.330619" y="143.432881"/><use xlink:href="#374d5dd9bZ" x="492.329782" y="136.07013"/></g><g fill="#28d794"><use xlink:href="#374d5dd9cW" x="490.3934" y="126.1675"/><use xlink:href="#374d5dd9cX" x="490.393026" y="122.54518"/><use xlink:href="#374d5dd9cd" x="490.392739" y="119.77039"/><use xlink:href="#374d5dd9cY" x="490.392434" y="116.82145"/><use xlink:href="#374d5dd9cZ" x="490.392314" y="115.66045"/><use xlink:href="#374d5dd9ck" x="490.392033" y="112.94371"/><use xlink:href="#374d5dd9cf" x="490.391695" y="109.675495"/><use xlink:href="#374d5dd9da" x="490.391557" y="108.33454"/><use xlink:href="#374d5dd9cf" x="490.391249" y="105.356575"/><use xlink:href="#374d5dd9da" x="490.39111" y="104.01562"/><use xlink:href="#374d5dd9cd" x="490.390803" y="101.037655"/><use xlink:href="#374d5dd9cg" x="490.390498" y="98.088715"/><use xlink:href="#374d5dd9cn" x="490.390203" y="95.23846"/><use xlink:href="#374d5dd9cg" x="490.389857" y="91.888975"/></g><use xlink:href="#374d5dd9db" x="410.5937" y="171.0942" fill="#28d794"/><g fill="#28d794"><use xlink:href="#374d5dd9dc" x="410.5937" y="169.4399"/><use xlink:href="#374d5dd9dd" x="410.5937" y="166.00334"/><use xlink:href="#374d5dd9dc" x="410.5937" y="162.560975"/><use xlink:href="#374d5dd9de" x="410.5937" y="159.124415"/><use xlink:href="#374d5dd9df" x="410.5937" y="155.03189"/></g><path d="M384.723 132.879v2.457l-20.696.004v-2.461zm0 0M384.719 114.625v2.46h-20.692l-.004-2.456zm0 0M384.723 130.805v1.23h-20.696v-1.226zm0 0M384.719 100.09v1.23l-20.696.004v-1.23zm0 0M384.723 128.617v1.23h-20.696v-1.226zm0 0M384.719 102.04v1.226l-20.696.004v-1.23zm0 0M384.719 110.242v1.23h-20.696v-1.226zm0 0M384.723 124.977v.617h-20.696v-.614zm0 0M384.719 108.988v.614l-20.696.003v-.613zm0 0M384.719 107.773v.614l-20.696.004v-.614zm0 0M384.719 106.559v.613l-20.696.004v-.614zm0 0M384.719 105.344v.613l-20.696.004v-.617zm0 0M384.719 123.332l.004.617h-20.696v-.613zm0 0M384.719 119.566v.614l-20.692.004v-.618zm0 0M364.02 65.719v-2.461h20.695v2.46zm0 0M364.023 83.969l-.003-2.457 20.699-.004v2.46zm0 0M364.02 67.793v-1.23h20.695v1.23zm0 0M364.023 98.504v-1.23h20.696v1.23zm0 0M364.02 69.977V68.75l20.695-.004v1.23zm0 0M364.023 96.559v-1.23h20.696v1.226zm0 0M364.023 88.355v-1.23h20.696v1.227zm0 0M364.02 73.617v-.613h20.695v.613zm0 0M364.023 89.605v-.613l20.696-.004v.617zm0 0M364.023 90.82v-.613l20.696-.004v.617zm0 0M364.023 92.04v-.618h20.696v.613zm0 0M364.023 93.254v-.617h20.696v.613zm0 0M364.02 75.262v-.614l20.695-.003v.617zm0 0M364.02 79.031v-.617h20.695v.613zm0 0" fill="#1b1b1b"/><path d="M429.262 46.363h-2.817l-.004-16.547h2.82zm0 0M450.188 46.363h-2.82V29.816h2.82zm0 0M431.64 46.363h-1.41V29.816h1.41zm0 0M466.852 46.36h-1.407l-.004-16.547h1.41zm0 0M434.148 46.363h-1.41l-.004-16.547h1.41zm0 0M464.621 46.36h-1.41V29.812h1.41zm0 0M455.215 46.363h-1.41V29.816h1.41zm0 0M438.32 46.363h-.703l-.004-16.547h.703zm0 0M456.652 46.363h-.707V29.816h.703zm0 0M458.043 46.363h-.703l-.004-16.547h.707zm0 0M459.438 46.363h-.704l-.004-16.547h.707zm0 0M460.832 46.363h-.707V29.816h.707zm0 0M440.207 46.363h-.707V29.816h.703zm0 0M444.527 46.363h-.707V29.816h.703zm0 0M506.262 29.809h2.82v16.546h-2.82zm0 0M485.336 29.813h2.82v16.546h-2.816zm0 0M503.883 29.809h1.41l.004 16.546h-1.41zm0 0M468.672 29.813h1.41l.004 16.55h-1.41zm0 0M501.379 29.809h1.406l.004 16.546-1.41.004zm0 0M470.902 29.813h1.41l.004 16.55h-1.41zm0 0M480.309 29.813h1.41l.004 16.546h-1.41zm0 0M497.203 29.809h.707v16.546h-.703zm0 0M478.875 29.813h.703v16.546h-.703zm0 0M477.48 29.813h.707v16.546h-.707zm0 0M476.086 29.813h.707v16.55h-.703zm0 0M474.691 29.813h.707v16.55h-.703zm0 0M495.32 29.809h.703l.004 16.546-.707.004zm0 0M491 29.813h.703v16.546H491zm0 0" fill="#fff"/></svg>