<?xml version='1.0' encoding='UTF-8'?>
<svg xmlns="http://www.w3.org/2000/svg" xmlns:xlink="http://www.w3.org/1999/xlink" width="600px" height="300px" viewBox="0 0 600 300" x="0px" y="0px" enable-background="new 0 0 600 300"><defs><symbol overflow="visible" id="fdc77e17a"><path d="M2.28-10.92C2.28-4.02 6.91.06 14.41.72L12.55 14.4h4.5L18.85.66c9.3-.96 16-7.86 16-17.58 0-6.78-4.5-11.1-12.12-11.81l1.04-7.7-4.5.13-1.04 7.61c-9.3.97-15.95 8.17-15.95 17.77zm27.84-5.58c0 4.56-1.98 8.58-4.68 10.92a13.38 13.38 0 01-6.07 2.35l2.83-21.55c5.1.6 7.93 3.36 7.93 8.28zm-23.1 5.1c0-4.55 1.98-8.7 4.75-11.16a14.28 14.28 0 016-2.22l-2.9 21.6c-5.03-.6-7.85-3.37-7.85-8.23zm0 0"/></symbol><symbol overflow="visible" id="fdc77e17b"><path d="M24.19-29.05l-4.63 1.27c.96 3.42 1.44 6.3 1.44 9.97 0 5.26-1.08 10.25-3.19 12.72a6.48 6.48 0 01-4.6 1.8c-4.27 0-5.84-3.13-5.05-9.26l2.1-15.65-4.74.18-2.04 15.6C2.41-4.27 5.77.78 12.78.78c8.94 0 13.02-8.15 13.02-18.97 0-3.83-.66-7.43-1.61-10.86zm0 0"/></symbol><symbol overflow="visible" id="fdc77e17c"><path d="M25.92-15.9c0-2.7-.84-5.82-2.1-8.04.48 0 1.02.07 1.55.07h5.22l.61-4.2H17.52c-9.83 0-15.18 8.8-15.24 17.34C2.28-4.08 5.58.84 12 .84c9 0 13.92-9.25 13.92-16.75zM7.08-10.8c.06-7.39 3.78-13.39 10.5-13.39.42 0 .78 0 1.2.07 1.5 1.85 2.45 5.28 2.45 8.28-.04 4.62-1.8 9-4.54 11.46a7.52 7.52 0 01-3.9 1.08c-3.73-.06-5.71-3.25-5.71-7.5zm0 0"/></symbol><symbol overflow="visible" id="fdc77e17d"><path d="M10.56-28.2l-4.75.18-2.75 21.6c-.6 4.8 1.2 7.2 4.99 7.2 3.1 0 5.64-1.73 7.54-3.6l-1.86-3C12.36-4.8 9.95-3.3 8.58-3.3c-.78-.6-1.02-1.68-.72-3.72zm0 0"/></symbol><symbol overflow="visible" id="fdc77e17e"><path d="M10.56-28.2l-4.62.18L2.28 0h4.63l.36-2.77c.65-3 2.64-6.36 5.15-9.42L19.62 0h4.97c-.04-.84-.71-1.86-1.5-3.06L15.6-15.6a67 67 0 0111.83-9.32l-2.1-4.01c-4.5 2.34-12.6 9.23-16.55 16.5h-.25zm0 0"/></symbol><symbol overflow="visible" id="fdc77e17f"><path d="M20.94-43.73l-4.8 9.89 2.94 1.75 5.87-8.9v-.46zM9.48-28.31l-3.96.4c-.54 6.97-.79 9.43-1.02 11.54L2.34 0h4.74l1.86-14.16c.84-5.82 6.25-10.56 10.33-10.56 2.32.42 2.45 3.24 1.92 7.2L19.37-4.27C18.36 3.3 16.7 9 14.57 13.31l4.09 1.56c2.46-4.14 4.26-10.43 5.4-19.14l1.92-14.45c.83-6-.12-10.2-5.93-10.2-4.14 0-7.93 2.83-10.33 6.55zm0 0"/></symbol><symbol overflow="visible" id="fdc77e17h"><path d="M6.06-28.02L3.36-7.5C2.34 0 1.69 8.94 2.22 14.58l4.69-.53c-.55-4.33-.36-10.4.17-16.33A4.95 4.95 0 0011.94.84c3.78 0 6.6-2.7 8.15-6.12C20-1.08 21.5.78 24.66.78c2.7 0 4.92-1.56 6.9-3.48l-1.92-3c-1.37 1.14-3.3 2.4-4.5 2.4-1.08-.42-1.2-2.4-.78-5.64l2.52-19.14h-4.74l-1.86 14.16c-.72 5.28-3.9 10.56-8.05 10.56-2.8-.48-4.18-3.95-3.59-8.05l2.16-16.8zm0 0"/></symbol><symbol overflow="visible" id="fdc77e17i"><path d="M22.38-43.8l-4.8 9.9 2.94 1.74 5.89-8.93v-.49zM2.16-9.13c0 5.7 2.21 9.97 6.78 9.97 3.97 0 7.26-3.3 10.08-7.5.54 4.68 1.5 7.44 4.92 7.44 2.58 0 5.04-1.5 6.84-3.42L28.86-5.7c-1.2 1.01-3.17 2.28-4.38 2.34-1.07-.84-1.86-3.23-2.34-6.78 3.23-5.16 6.72-11.45 8.94-17.4l-4.8-1.38a302.56 302.56 0 00-4.5 13.01h-.06c-.13-7.67-1.2-13.01-6.6-13.01-7.74 0-12.96 11.05-12.96 19.8zm4.86-.23c0-6.19 3.25-14.83 7.98-15.36 2.77.95 3.6 6.6 3.66 13.63-2.75 4.43-6.18 7.3-8.88 7.67-2.1-.53-2.76-3.13-2.76-5.94zm0 0"/></symbol><symbol overflow="visible" id="fdc77e17j"><path d="M9.23-39.55C5.41-33.19 3.48-22.63 3.48-13.5 3.48-5.22 6.23.72 13.92.72c4.08 0 7.31-2.1 9.66-5.81 3.97-6.32 5.76-16.99 5.76-26.35 0-7.56-2.64-14.22-10.39-14.22-4.14 0-7.3 2.22-9.72 6.11zM24.6-31.2c0 1.98-.1 4.2-.3 6.48H9.2c.83-5.05 2.15-10.14 4.01-13.5 1.44-1.98 3.3-3.23 5.46-3.23 4.92 0 5.93 4.43 5.93 10.25zM8.22-13.63c0-2.03.12-4.43.42-7.01h15.17c-.72 4.92-1.97 9.9-3.89 13.69-1.37 2.1-3.42 3.47-5.76 3.47-4.44 0-5.94-3.9-5.94-10.14zm0 0"/></symbol><symbol overflow="visible" id="fdc77e17k"><path d="M9.48-28.31l-3.96.4c-.54 6.97-.79 9.43-1.02 11.54L2.34 0h4.74l1.86-14.16c.84-5.82 6.25-10.56 10.33-10.56 2.32.42 2.45 3.24 1.92 7.2L19.37-4.27C18.36 3.3 16.7 9 14.57 13.31l4.09 1.56c2.46-4.14 4.26-10.43 5.4-19.14l1.92-14.45c.83-6-.12-10.2-5.93-10.2-4.14 0-7.93 2.83-10.33 6.55zm0 0"/></symbol><symbol overflow="visible" id="fdc77e17l"><path d="M3.83 0v-5.95H6.2v-.82H.45v.82h2.4V0zm0 0"/></symbol><symbol overflow="visible" id="fdc77e17m"><path d="M5.75-2.23v-.43c0-1.6-.9-2.51-2.42-2.51S.87-4.16.87-2.48c0 1.71.91 2.62 2.5 2.62 1.43 0 2.07-.56 2.29-1.52l-.9-.09c-.18.61-.59.9-1.35.9-.94 0-1.52-.54-1.58-1.66zm-2.4-2.2c.93 0 1.43.5 1.48 1.55H1.84c.08-1.07.6-1.56 1.5-1.56zm0 0"/></symbol><symbol overflow="visible" id="fdc77e17n"><path d="M1.83 0l1.42-2h.06l1.46 2H5.8L4-2.53l1.78-2.49H4.8L3.42-3.08h-.08l-1.4-1.94H.89l1.78 2.49L.84 0zm0 0"/></symbol><symbol overflow="visible" id="fdc77e17o"><path d="M5.52-4.25v-.77H3.17v-1.56h-.81l-.14 1.56H.75v.77h1.47v2.4c0 1.3.48 1.94 1.84 1.94C4.6.1 5.14 0 5.55-.14L5.4-.91c-.32.13-.72.2-1.13.2-.8 0-1.1-.37-1.1-1.23v-2.31zm0 0"/></symbol><symbol overflow="visible" id="fdc77e17p"><path d="M3.33-3.42c.47 0 .8-.27.8-.8 0-.51-.33-.8-.8-.8-.47 0-.8.29-.8.8 0 .53.33.8.8.8zm0 3.5c.47 0 .8-.27.8-.78 0-.53-.33-.82-.8-.82-.47 0-.8.29-.8.82 0 .51.33.78.8.78zm0 0"/></symbol><symbol overflow="visible" id="fdc77e17r"><path d="M6.1-2.5c0-1.6-.87-2.48-2.33-2.64v-1.33H2.9v1.33C1.42-5 .58-4.1.58-2.5.58-.9 1.42-.02 2.9.13v1.76h.86V.13C5.23-.02 6.09-.9 6.09-2.5zm-4.7 0c0-1.17.46-1.78 1.52-1.9v3.8c-1.06-.13-1.51-.73-1.51-1.9zm2.33-1.9c1.08.12 1.54.73 1.54 1.9S4.8-.73 3.73-.6zm0 0"/></symbol><symbol overflow="visible" id="fdc77e17s"><path d="M3.33.14c1.4 0 2.22-.72 2.22-2.31v-2.85h-.96v2.85c0 1.1-.39 1.53-1.26 1.53-.86 0-1.27-.42-1.27-1.53v-2.85h-.95v2.85c0 1.6.83 2.31 2.22 2.31zm0 0"/></symbol><symbol overflow="visible" id="fdc77e17t"><path d="M3.22.14c1.5 0 2.4-.95 2.4-2.39 0-1.03-.43-1.55-.82-1.86v-.06h1.36v-.85H3.42c-1.69 0-2.65.93-2.65 2.6C.77-.86 1.69.14 3.22.14zm0-.77c-1 0-1.49-.65-1.49-1.8 0-1.23.54-1.84 1.52-1.84 1.02 0 1.47.74 1.47 1.85 0 1.14-.49 1.8-1.5 1.8zm0 0"/></symbol><symbol overflow="visible" id="fdc77e17u"><path d="M5.4-.75c-.24.05-.5.08-.76.08-.62 0-.84-.16-.84-.77v-3.58H1.23v.83h1.61v2.86C2.84-.3 3.27.11 4.36.11c.37 0 .78-.06 1.12-.14zm0 0"/></symbol><symbol overflow="visible" id="fdc77e17v"><path d="M4.83-5.02L2.45-2.86H2.4v-2.16h-.95V0h.95v-2.34h.06L4.85 0H6L3.31-2.7 5.9-5.02zm0 0"/></symbol><symbol overflow="visible" id="fdc77e17w"><path d="M3.69-5.72l.86-1.8H3.6l-.67 1.8zM5.6 1.9v-5.2c0-1.17-.56-1.85-1.69-1.85-.87 0-1.47.43-1.75 1.08h-.06l-.13-.94h-.8V0h.95v-2.69c0-.97.6-1.6 1.43-1.6.77 0 1.1.37 1.1 1.2v4.98zm0 0"/></symbol><symbol overflow="visible" id="fdc77e17x"><path d="M1.94 1.9V-.29c.19.25.48.42.97.42.9 0 1.39-.5 1.62-1.06h.06c.07.8.49 1.06 1.16 1.06.27 0 .52-.05.67-.1l-.1-.71c-.09.03-.23.05-.3.05-.38 0-.57-.16-.57-.76v-3.64H4.5v2.72c0 .92-.53 1.6-1.45 1.6-.75 0-1.08-.38-1.08-1.25v-3.07h-.95V1.9zm0 0"/></symbol><symbol overflow="visible" id="fdc77e17y"><path d="M3.31-5.72l.86-1.8h-.94l-.67 1.8zM2.71.14C3.7.14 4.18-.4 4.43-.98h.08C4.56-.25 4.92.1 5.7.1c.27 0 .5-.05.66-.11l-.11-.72c-.1.03-.2.05-.33.05-.34 0-.54-.16-.54-.66v-3.69h-.96v.83h-.06c-.27-.6-.8-.97-1.64-.97-1.4 0-2.14.99-2.14 2.66C.58-.84 1.33.14 2.72.14zm.26-.8C2-.66 1.55-1.25 1.55-2.5S2-4.36 2.97-4.36c1.01 0 1.48.8 1.48 1.86 0 1.05-.47 1.84-1.48 1.84zm0 0"/></symbol><symbol overflow="visible" id="fdc77e17z"><path d="M3.33-7.28C1.66-7.28.87-6.08.87-3.56c0 2.48.79 3.7 2.46 3.7S5.8-1.08 5.8-3.56c0-2.52-.8-3.72-2.47-3.72zm0 .76c1.03 0 1.47.72 1.51 2.54H1.81c.06-1.82.5-2.54 1.52-2.54zm0 5.9c-1.06 0-1.47-.8-1.52-2.63h3.03C4.81-1.42 4.4-.62 3.33-.62zm0 0"/></symbol><symbol overflow="visible" id="fdc77e17A"><path d="M5.6 1.9v-5.21c0-1.17-.55-1.85-1.68-1.85-.87 0-1.47.43-1.75 1.08h-.06l-.13-.94h-.8V0h.95v-2.69c0-.97.6-1.6 1.43-1.6.77 0 1.1.37 1.1 1.2v4.98zm0 0"/></symbol><symbol overflow="visible" id="fdc77e17B"><path d="M5.95-6.77H1.1V0h.99v-2.92H5.3v-.77H2.08v-2.26h3.87zm0 0"/></symbol><symbol overflow="visible" id="fdc77e17C"><path d="M2.83.14c.94 0 1.5-.39 1.81-.95h.08l.1.81h.76v-3.38c0-1.23-.69-1.8-2.13-1.8-1.43 0-2.03.65-2.18 1.6l.93.1c.11-.6.44-.93 1.22-.93.85 0 1.22.32 1.22 1.04v.34l-1.81.2C1.6-2.7 1.1-2.17 1.1-1.28c0 .92.64 1.42 1.72 1.42zm.25-.77c-.67 0-1.02-.28-1.02-.74 0-.44.28-.72 1-.82l1.58-.19v.41c0 .8-.6 1.34-1.56 1.34zm0 0"/></symbol><symbol overflow="visible" id="fdc77e17D"><path d="M2.73.14c.9 0 1.43-.45 1.74-1.08h.06l.13.94h.8v-5.02h-.94v2.7c0 .98-.57 1.62-1.46 1.62-.75 0-1.1-.4-1.1-1.22v-3.1h-.93v3.32c0 1.17.55 1.84 1.7 1.84zm0 0"/></symbol><symbol overflow="visible" id="fdc77e17E"><path d="M5.08-5.16c-.94 0-1.58.43-1.9 1.3h-.09l-.07-1.16H1.05v.77h1.1v3.48H.96V0h3.96v-.77H3.1v-1.46c0-1.36.6-2.05 1.83-2.05.4 0 .76.08 1.1.17l.15-.87c-.33-.11-.7-.18-1.11-.18zm0 0"/></symbol><symbol overflow="visible" id="fdc77e17F"><path d="M6.17 0L3.98-6.77h-1.3L.5 0h.97l.44-1.47h2.78L5.16 0zM3.28-5.94h.08l1.1 3.74H2.15zm0 0"/></symbol><symbol overflow="visible" id="fdc77e17G"><path d="M3.92-7.14H1.36v.76h1.6v5.61H1.15V0H5.7v-.77H3.92zm0 0"/></symbol><symbol overflow="visible" id="fdc77e17H"><path d="M2.16 0v-2.67c0-.99.59-1.63 1.46-1.63.74 0 1.07.38 1.07 1.22V0h.95v-3.31c0-1.2-.56-1.85-1.67-1.85-.92 0-1.49.46-1.77 1.08h-.06l-.12-.94H1.2V0zm0 0"/></symbol><symbol overflow="visible" id="fdc77e17I"><path d="M3.58-5.81c.42 0 .72-.22.72-.67 0-.44-.3-.68-.72-.68-.44 0-.72.24-.72.68 0 .45.28.67.72.67zm.5.8H1.52v.76h1.6v3.48h-1.8V0h4.46v-.77h-1.7zm0 0"/></symbol><symbol overflow="visible" id="fdc77e17J"><path d="M3.9 0l2-5.02h-.96L3.4-.94h-.07L1.8-5.02H.77L2.78 0zm0 0"/></symbol><symbol overflow="visible" id="fdc77e17K"><path d="M3.38-5.9c.12-.5.42-1.04.67-1.41l-.63-.22a4.28 4.28 0 00-1.01 2.39c0 .66.3 1 .9 1 .6 0 .9-.33.9-.9 0-.57-.32-.83-.83-.85zm0 0"/></symbol><symbol overflow="visible" id="fdc77e17L"><path d="M2.16 0v-2.69c0-.98.6-1.6 1.46-1.6.74 0 1.07.4 1.07 1.2V0h.95v-3.31c0-1.17-.56-1.85-1.67-1.85-.9 0-1.44.46-1.75 1.08h-.06v-3.06H1.2V0zm0 0"/></symbol><symbol overflow="visible" id="fdc77e17M"><path d="M3.3-7.53c-.55 0-.85.3-.85.84 0 .55.36.8.83.8h.03a5.1 5.1 0 01-.69 1.47l.52.23a4.29 4.29 0 001.02-2.4c0-.63-.33-.94-.86-.94zm0 0"/></symbol><symbol overflow="visible" id="fdc77e17N"><path d="M2.84.14C3.8.14 4.33-.26 4.6-.9h.07L4.8 0h.76v-7.14h-.95v2.95h-.08c-.28-.6-.86-.97-1.67-.97-1.48 0-2.27.99-2.27 2.64C.6-.84 1.36.14 2.84.14zm.22-.8c-.98 0-1.48-.59-1.48-1.84s.5-1.86 1.48-1.86c1.13 0 1.58.8 1.58 1.86S4.2-.66 3.06-.66zm0 0"/></symbol><symbol overflow="visible" id="fdc77e17O"><path d="M2.06 1.9V-.84h.05c.28.58.8.97 1.77.97 1.5 0 2.2-.98 2.2-2.66 0-1.65-.7-2.64-2.19-2.64-.97 0-1.5.44-1.78 1.05h-.08l-.1-.9H1.1v6.9zm1.5-2.56c-1.06 0-1.53-.8-1.53-1.86 0-1.04.47-1.84 1.53-1.84 1.11 0 1.53.61 1.53 1.84 0 1.27-.42 1.86-1.53 1.86zm0 0"/></symbol><symbol overflow="visible" id="fdc77e17P"><path d="M1.45-2.95c0 2.56 1.08 4.37 3.67 4.84l.11-.67C3.28.86 2.43-.75 2.43-2.95s.85-3.82 2.8-4.16l-.1-.69c-2.6.49-3.68 2.3-3.68 4.85zm0 0"/></symbol><symbol overflow="visible" id="fdc77e17Q"><path d="M3.36.16c1.4 0 2.2-.6 2.2-1.57 0-.89-.54-1.22-1.47-1.39L3-3c-.67-.14-.86-.33-.86-.73 0-.5.4-.74 1.17-.74.83 0 1.19.27 1.27.8l.9-.05c-.12-1-.8-1.47-2.17-1.47-1.34 0-2.1.53-2.1 1.5 0 .81.45 1.22 1.52 1.44l1.04.2c.56.11.87.24.87.72 0 .52-.45.78-1.28.78-.95 0-1.36-.28-1.42-.87l-.9.06C1.07-.36 1.8.16 3.35.16zm0 0"/></symbol><symbol overflow="visible" id="fdc77e17R"><path d="M4.22-6.77h-.86l-2.03.7v.87c.64-.17 1.26-.38 1.89-.55v4.9H1.03V0h4.9v-.86H4.21zm0 0"/></symbol><symbol overflow="visible" id="fdc77e17S"><path d="M1.45-7.1c1.96.33 2.8 1.94 2.8 4.15 0 2.2-.84 3.8-2.8 4.17l.11.67c2.58-.47 3.67-2.28 3.67-4.84 0-2.55-1.09-4.36-3.67-4.85zm0 0"/></symbol></defs><use xlink:href="#fdc77e17a" x="112.65" y="151" fill="#fff"/><g fill="#515151"><use xlink:href="#fdc77e17b" x="150.57" y="151"/><use xlink:href="#fdc77e17c" x="179.61" y="151"/><use xlink:href="#fdc77e17d" x="210.69" y="151"/><use xlink:href="#fdc77e17e" x="228.03" y="151"/><use xlink:href="#fdc77e17f" x="256.47" y="151"/><use xlink:href="#fdc77e17g" x="286.41" y="151"/><use xlink:href="#fdc77e17h" x="298.05" y="151"/><use xlink:href="#fdc77e17i" x="331.35" y="151"/></g><use xlink:href="#fdc77e17j" x="364.77" y="151" fill="#fff"/><g fill="#515151"><use xlink:href="#fdc77e17k" x="396.39" y="151"/><use xlink:href="#fdc77e17c" x="426.33" y="151"/><use xlink:href="#fdc77e17k" x="457.41" y="151"/></g><g fill="#fff"><use xlink:href="#fdc77e17l" x="236.6667" y="252"/><use xlink:href="#fdc77e17m" x="243.3337" y="252"/><use xlink:href="#fdc77e17n" x="250.0007" y="252"/><use xlink:href="#fdc77e17o" x="256.6677" y="252"/><use xlink:href="#fdc77e17p" x="263.3347" y="252"/><use xlink:href="#fdc77e17q" x="270.0017" y="252"/><use xlink:href="#fdc77e17r" x="276.6687" y="252"/><use xlink:href="#fdc77e17s" x="283.3357" y="252"/><use xlink:href="#fdc77e17t" x="290.0027" y="252"/><use xlink:href="#fdc77e17u" x="296.6697" y="252"/><use xlink:href="#fdc77e17v" x="303.3367" y="252"/><use xlink:href="#fdc77e17w" x="310.0037" y="252"/><use xlink:href="#fdc77e17q" x="316.6707" y="252"/><use xlink:href="#fdc77e17x" x="323.3377" y="252"/><use xlink:href="#fdc77e17y" x="330.0047" y="252"/><use xlink:href="#fdc77e17z" x="336.6717" y="252"/><use xlink:href="#fdc77e17A" x="343.3387" y="252"/><use xlink:href="#fdc77e17t" x="350.0057" y="252"/><use xlink:href="#fdc77e17A" x="356.6727" y="252"/></g><g fill="#fff"><use xlink:href="#fdc77e17B" x="150" y="266"/><use xlink:href="#fdc77e17m" x="156.667" y="266"/><use xlink:href="#fdc77e17C" x="163.334" y="266"/><use xlink:href="#fdc77e17o" x="170.001" y="266"/><use xlink:href="#fdc77e17D" x="176.668" y="266"/><use xlink:href="#fdc77e17E" x="183.335" y="266"/><use xlink:href="#fdc77e17m" x="190.002" y="266"/><use xlink:href="#fdc77e17p" x="196.669" y="266"/><use xlink:href="#fdc77e17q" x="203.336" y="266"/><use xlink:href="#fdc77e17F" x="210.003" y="266"/><use xlink:href="#fdc77e17G" x="216.67" y="266"/><use xlink:href="#fdc77e17o" x="223.337" y="266"/><use xlink:href="#fdc77e17m" x="230.004" y="266"/><use xlink:href="#fdc77e17E" x="236.671" y="266"/><use xlink:href="#fdc77e17H" x="243.338" y="266"/><use xlink:href="#fdc77e17C" x="250.005" y="266"/><use xlink:href="#fdc77e17o" x="256.672" y="266"/><use xlink:href="#fdc77e17I" x="263.339" y="266"/><use xlink:href="#fdc77e17J" x="270.006" y="266"/><use xlink:href="#fdc77e17m" x="276.673" y="266"/><use xlink:href="#fdc77e17q" x="283.34" y="266"/><use xlink:href="#fdc77e17K" x="290.007" y="266"/><use xlink:href="#fdc77e17o" x="296.674" y="266"/><use xlink:href="#fdc77e17L" x="303.341" y="266"/><use xlink:href="#fdc77e17m" x="310.008" y="266"/><use xlink:href="#fdc77e17o" x="316.675" y="266"/><use xlink:href="#fdc77e17C" x="323.342" y="266"/><use xlink:href="#fdc77e17M" x="330.009" y="266"/><use xlink:href="#fdc77e17q" x="336.676" y="266"/><use xlink:href="#fdc77e17C" x="343.343" y="266"/><use xlink:href="#fdc77e17H" x="350.01" y="266"/><use xlink:href="#fdc77e17N" x="356.677" y="266"/><use xlink:href="#fdc77e17q" x="363.344" y="266"/><use xlink:href="#fdc77e17K" x="370.011" y="266"/><use xlink:href="#fdc77e17O" x="376.678" y="266"/><use xlink:href="#fdc77e17L" x="383.345" y="266"/><use xlink:href="#fdc77e17I" x="390.012" y="266"/><use xlink:href="#fdc77e17M" x="396.679" y="266"/><use xlink:href="#fdc77e17q" x="403.346" y="266"/><use xlink:href="#fdc77e17P" x="410.013" y="266"/><use xlink:href="#fdc77e17Q" x="416.68" y="266"/><use xlink:href="#fdc77e17Q" x="423.347" y="266"/><use xlink:href="#fdc77e17R" x="430.014" y="266"/><use xlink:href="#fdc77e17R" x="436.681" y="266"/><use xlink:href="#fdc77e17S" x="443.348" y="266"/></g></svg>