<?xml version='1.0' encoding='UTF-8'?>
<svg xmlns="http://www.w3.org/2000/svg" xmlns:xlink="http://www.w3.org/1999/xlink" width="310px" height="280px" viewBox="0 0 310 280" x="0px" y="0px" enable-background="new 0 0 310 280"><defs><symbol overflow="visible" id="bede8effa"><path d="M2.78-22.9c0 6.38 5.72 8.12 10.7 9.6 4.04 1.11 7.11 1.83 7.11 4.57 0 2.92-3.26 3.84-6.76 3.84-3.66 0-7.11-.92-10.08-2.27L1.69-2.2C4.6-.48 9.4.72 14.06.72c7.49 0 13.78-3.13 13.78-9.85 0-6.23-5.37-8.1-11.32-9.93-3.85-1.1-6.49-1.86-6.49-4.4 0-3.18 3.4-3.8 6.4-3.8 3.1 0 6.23.67 8.48 1.43l1.92-4.75a23.6 23.6 0 00-10.36-2.3c-7.44 0-13.69 3.22-13.69 9.99zm0 0"/></symbol><symbol overflow="visible" id="bede8effb"><path d="M27.03-23.05h-7.01l-7.07 8.02h-2.43v-21.02l-7.07.1V0h7.07v-9.4l2.73-.05L20.15 0h7.7a7.66 7.66 0 00-1.55-2.97l-7.77-9.65 6.95-7.63c1.07-1.2 1.55-1.97 1.55-2.8zm0 0"/></symbol><symbol overflow="visible" id="bede8effc"><path d="M2.1-10.7C2.1-3.84 6.73.72 13.84.72c8.39 0 12.95-5.95 12.95-12.9 0-6.77-4.51-11.59-11.66-11.59-8.35 0-13.01 6.2-13.01 13.07zm17.48-.53c0 2.87-.77 4.51-1.67 5.46a4.39 4.39 0 01-3.36 1.3c-3.36 0-5.24-2.73-5.24-7.19 0-2.89.81-4.65 1.67-5.57.68-.77 1.83-1.3 3.43-1.3 3.36 0 5.17 2.94 5.17 7.3zm0 0"/></symbol><symbol overflow="visible" id="bede8effd"><path d="M10.38-36.05l-7.02.1v30.43c0 4.08 2.06 6.1 5.9 6.1 1.58 0 3.6-.3 5.33-.97l-1.06-4.84c-.62.18-1.1.25-1.62.25-1.16 0-1.54-.54-1.54-2.22zm0 0"/></symbol><symbol overflow="visible" id="bede8effe"><path d="M4.9-11.1a6.78 6.78 0 00-3.17 5.77c0 3.55 2.4 5.9 6.91 5.9 3.17 0 6-1.29 8.5-3.44l1.1 3.21 5.57-.78c-.34-5.56-.48-7.81-.48-9.78v-3.8c0-6.76-3.08-9.59-9.36-9.59-4.27 0-8.31 1.4-11.14 3.6L4.8-15.9c2.54-1.44 5.18-2.3 7.48-2.3 2.75 0 3.94 1.1 4.1 4.57-5.86.42-9.43 1.23-11.49 2.53zm3.4 4.76c0-1.1.43-1.77 1.1-2.2.97-.59 3-1 6.97-1.21v3.4c-2.17 1.46-4.23 2.18-5.76 2.18-1.58 0-2.31-.77-2.31-2.17zm0 0"/></symbol><symbol overflow="visible" id="bede8efff"><path d="M8.69-23.47l-5.61.72c.37 6.05.47 8.5.47 10.6V0h7.06v-14.02a7.49 7.49 0 015.9-2.68c1.05 0 2.02.1 3.07.32l1.06-6.28a7.67 7.67 0 00-3.8-.95c-2.92 0-5.07 1.67-6.8 4.5zm0 0"/></symbol><symbol overflow="visible" id="bede8effh"><path d="M8.69-23.47l-5.61.72c.37 6.05.47 8.5.47 10.6V0h7.06v-16.17c1.87-1.4 3.98-2.22 5.86-2.22 2.55 0 3.22 1.78 3.22 5.44V0h7.04v-14.78c0-5.81-2.45-8.99-8.25-8.99-3.51 0-6.2 1.2-8.68 3.75zm0 0"/></symbol><symbol overflow="visible" id="bede8effi"><path d="M2.55-16.22c.1 3.88 3.5 5.42 7.25 6.63 2.82.9 5.56 1.62 5.56 3.2 0 1.25-1.78 1.87-3.98 1.87-2.5 0-5.15-.76-7.35-1.96L1.7-2.3C4.47-.4 8.06.58 11.9.58c6.8 0 10.75-2.88 10.75-7.4 0-4.37-3.85-5.85-8.36-7.24-2.49-.77-4.6-1.4-4.6-2.74 0-.97 1.14-1.68 3.32-1.68 1.95 0 4.21.62 6.23 1.73l2.45-4.22a14.37 14.37 0 00-8.6-2.64c-6.08 0-10.74 2.78-10.55 7.4zm0 0"/></symbol><symbol overflow="visible" id="bede8effj"><path d="M4.02.17c2.01 0 3.15-.89 3.15-2.4 0-1.35-.8-1.93-2.33-2.24L3.67-4.7c-1.01-.2-1.44-.58-1.44-1.35 0-.83.66-1.3 1.88-1.3 1.17 0 1.75.4 1.94 1.46L7.15-6c-.2-1.53-1.21-2.28-3-2.28-1.96 0-3.04.87-3.04 2.31 0 1.28.75 1.99 2.2 2.28l1.22.24c1.02.2 1.52.5 1.52 1.3 0 .9-.72 1.4-2 1.4-1.33 0-1.94-.47-2.11-1.48l-1.11.1C1-.6 1.98.17 4.02.17zm0 0"/></symbol><symbol overflow="visible" id="bede8effk"><path d="M6.92-6.02H5.55L2.78-3.45H2.7v-5.13H1.56V0H2.7v-2.78h.08L5.64 0h1.5L3.88-3.22zm0 0"/></symbol><symbol overflow="visible" id="bede8effl"><path d="M4 .17c1.95 0 3-1.14 3-3.19 0-2.03-1.05-3.17-3-3.17S1-5.05 1-3.02C1-.97 2.05.18 4 .18zm0-.92c-1.28 0-1.83-.72-1.83-2.27 0-1.53.55-2.25 1.83-2.25s1.83.72 1.83 2.25C5.83-1.47 5.28-.75 4-.75zm0 0"/></symbol><symbol overflow="visible" id="bede8effm"><path d="M4.7-8.58H1.64v.92h1.92v6.74h-2.2V0h5.47v-.92H4.7zm0 0"/></symbol><symbol overflow="visible" id="bede8effn"><path d="M3.4.17C4.51.17 5.2-.3 5.57-.97h.08l.12.97h.9v-4.05c0-1.48-.82-2.15-2.54-2.15-1.73 0-2.44.75-2.6 1.9l1.1.11c.13-.7.52-1.1 1.47-1.1 1.01 0 1.47.37 1.47 1.23v.42l-2.17.23c-1.49.18-2.08.82-2.08 1.86 0 1.13.76 1.72 2.06 1.72zm.29-.92c-.81 0-1.2-.33-1.2-.9 0-.52.32-.87 1.2-.96l1.89-.23v.48c0 .95-.75 1.61-1.9 1.61zm0 0"/></symbol><symbol overflow="visible" id="bede8effo"><path d="M6.1-6.19c-1.12 0-1.9.52-2.3 1.57h-.08l-.11-1.4H1.27v.91h1.32v4.19H1.14V0H5.9v-.92H3.73v-1.75c0-1.64.7-2.46 2.2-2.46.48 0 .91.08 1.32.2l.17-1.05c-.39-.13-.83-.2-1.33-.2zm0 0"/></symbol><symbol overflow="visible" id="bede8effq"><path d="M2.6 0v-3.22c0-1.17.71-1.94 1.76-1.94.87 0 1.26.46 1.26 1.47V0h1.15v-3.97c0-1.45-.7-2.22-2-2.22-1.11 0-1.79.55-2.13 1.3h-.08l-.14-1.13h-.97V0zm0 0"/></symbol><symbol overflow="visible" id="bede8effr"><path d="M4.02.19c1.7 0 2.65-.72 2.65-1.88 0-1.06-.65-1.45-1.76-1.67L3.6-3.6c-.81-.16-1.03-.37-1.03-.87 0-.6.45-.88 1.4-.88 1 0 1.43.31 1.52.95l1.1-.06c-.16-1.2-.97-1.75-2.63-1.75-1.61 0-2.5.63-2.5 1.8 0 .97.53 1.47 1.81 1.72l1.25.23c.67.14 1.03.3 1.03.88 0 .62-.53.93-1.53.93-1.16 0-1.62-.32-1.7-1.04l-1.1.07C1.3-.43 2.17.2 4.02.2zm0 0"/></symbol><symbol overflow="visible" id="bede8effs"><path d="M1.1-8.1V0h1.18v-2.72h2.03c1.9 0 2.86-.8 2.86-2.64v-.17c0-1.81-.97-2.58-2.83-2.58zM6-5.37C6-4.1 5.48-3.6 4.1-3.6H2.29v-3.58h1.83c1.37 0 1.89.4 1.89 1.66zm0 0"/></symbol><symbol overflow="visible" id="bede8efft"><path d="M7.1-8.1H1.32V0h5.8v-.95H2.47v-2.72h3.87v-.9H2.47v-2.59H7.1zm0 0"/></symbol><symbol overflow="visible" id="bede8effu"><path d="M2.2 0l1.7-2.4h.08L5.72 0h1.26L4.8-3.03l2.14-2.99H5.75L4.11-3.69H4L2.34-6.02H1.06l2.16 2.97L1.02 0zm0 0"/></symbol><symbol overflow="visible" id="bede8effv"><path d="M6.63-5.1v-.92H3.8v-1.87h-.98l-.17 1.87H.9v.91h1.75v2.88c0 1.57.57 2.35 2.21 2.35.65 0 1.29-.12 1.79-.3l-.18-.9a3.9 3.9 0 01-1.34.22c-.97 0-1.33-.44-1.33-1.47V-5.1zm0 0"/></symbol><symbol overflow="visible" id="bede8effw"><path d="M6.9-2.69v-.5C6.9-5.13 5.82-6.2 4-6.2 2.17-6.2 1.06-5 1.06-2.98c0 2.06 1.08 3.15 3 3.15C5.75.17 6.52-.5 6.8-1.64l-1.08-.13c-.24.75-.7 1.07-1.64 1.07-1.11 0-1.81-.64-1.88-1.99zM4-5.33c1.14 0 1.75.61 1.8 1.88H2.22c.1-1.28.7-1.88 1.78-1.88zm0 0"/></symbol><symbol overflow="visible" id="bede8effx"><path d="M3.42.17c1.13 0 1.77-.5 2.1-1.26h.07L5.75 0h.92v-8.58H5.53v3.56h-.08c-.34-.75-1.04-1.17-2.01-1.17C1.64-6.19.72-5 .72-3.02c0 2 .92 3.2 2.7 3.2zm.27-.95c-1.2 0-1.8-.74-1.8-2.22 0-1.52.6-2.23 1.78-2.23 1.35 0 1.9.95 1.9 2.23 0 1.27-.55 2.22-1.88 2.22zm0 0"/></symbol></defs><use xlink:href="#bede8effa" x="18.776" y="145"/><use xlink:href="#bede8effb" x="48.536" y="145"/><use xlink:href="#bede8effc" x="77.096" y="145"/><use xlink:href="#bede8effd" x="105.992" y="145"/><use xlink:href="#bede8effe" x="121.208" y="145"/><use xlink:href="#bede8efff" x="147.896" y="145"/><use xlink:href="#bede8effg" x="169.208" y="145"/><use xlink:href="#bede8effa" x="180.248" y="145"/><use xlink:href="#bede8effe" x="210.008" y="145"/><use xlink:href="#bede8effh" x="236.696" y="145"/><use xlink:href="#bede8effi" x="266.696" y="145"/><g fill-opacity=".33"><use xlink:href="#bede8effj" x="63" y="230"/><use xlink:href="#bede8effk" x="71.0004" y="230"/><use xlink:href="#bede8effl" x="79.0008" y="230"/><use xlink:href="#bede8effm" x="87.0012" y="230"/><use xlink:href="#bede8effn" x="95.0016" y="230"/><use xlink:href="#bede8effo" x="103.002" y="230"/><use xlink:href="#bede8effp" x="111.0024" y="230"/><use xlink:href="#bede8effj" x="119.0028" y="230"/><use xlink:href="#bede8effn" x="127.0032" y="230"/><use xlink:href="#bede8effq" x="135.0036" y="230"/><use xlink:href="#bede8effr" x="143.004" y="230"/><use xlink:href="#bede8effp" x="151.0044" y="230"/><use xlink:href="#bede8effs" x="159.0048" y="230"/><use xlink:href="#bede8efft" x="167.0052" y="230"/><use xlink:href="#bede8effp" x="175.0056" y="230"/><use xlink:href="#bede8efft" x="183.006" y="230"/><use xlink:href="#bede8effu" x="191.0064" y="230"/><use xlink:href="#bede8effv" x="199.0068" y="230"/><use xlink:href="#bede8effw" x="207.0072" y="230"/><use xlink:href="#bede8effq" x="215.0076" y="230"/><use xlink:href="#bede8effx" x="223.008" y="230"/><use xlink:href="#bede8effw" x="231.0084" y="230"/><use xlink:href="#bede8effx" x="239.0088" y="230"/></g></svg>