<?xml version='1.0' encoding='UTF-8'?>
<svg xmlns="http://www.w3.org/2000/svg" xmlns:xlink="http://www.w3.org/1999/xlink" width="600px" height="300px" viewBox="0 0 600 300" x="0px" y="0px" enable-background="new 0 0 600 300"><defs><symbol overflow="visible" id="24e0a29fa"><path d="M31.92-40.2H1.5l.13 4.2h12.71V0h4.8v-36H31.8zm0 0"/></symbol><symbol overflow="visible" id="24e0a29fb"><path d="M3.19-13.5C3.19-5.16 7.79.84 15.29.84c8.65 0 12.85-7.75 12.85-15.3 0-8.27-4.56-14.4-12.12-14.4-8.64 0-12.83 7.92-12.83 15.36zm20.1-.23c0 3.71-.98 6.78-2.65 8.57a6.5 6.5 0 01-4.86 1.93c-5.1 0-7.8-4.5-7.8-10.93 0-4.03 1.08-6.96 2.7-8.76a6.93 6.93 0 014.87-1.86c5.1 0 7.73 4.62 7.73 11.05zm0 0"/></symbol><symbol overflow="visible" id="24e0a29fc"><path d="M10.92-36.36h-3.9l-1.08 8.34H1.98v3.9h4.2v15.9C6.19-1.5 8.23.66 12.73.66c2.1 0 4.8-.43 7.2-1.32l-.9-3.54c-1.74.42-3.54.65-4.57.65-2.8 0-3.53-1.25-3.53-5.87v-14.7h8.58v-3.9h-8.58zm0 0"/></symbol><symbol overflow="visible" id="24e0a29fd"><path d="M6.36-13.14a7.96 7.96 0 00-3.84 6.78C2.52-2.05 5.34.66 9.84.66c3.43 0 6.79-1.57 9.72-4.2L20.41.3l3.95-.6c-.42-5.93-.48-8.4-.48-10.56v-7.2c0-7.38-2.65-10.63-8.65-10.63-4.43 0-8.39 1.88-11.51 4.57l1.73 2.93c2.96-2.03 6.13-3.36 8.96-3.36 3.46 0 4.8 2.05 4.8 7.99v.42c-6.5.55-10.44 1.44-12.85 3zm.78 6.23c0-1.8.84-2.93 1.8-3.65 1.44-.9 4.08-1.63 10.26-2.1v5.64c-2.93 2.52-5.93 3.9-8.4 3.9-2.28 0-3.66-1.32-3.66-3.79zm0 0"/></symbol><symbol overflow="visible" id="24e0a29fe"><path d="M9.42-45.06l-4.69.12v40.08c0 3.6 1.75 5.52 4.93 5.52 1.5 0 3.18-.3 4.75-.96l-1.04-3.54c-.82.3-1.6.42-2.21.42-1.2 0-1.74-.78-1.74-2.7zm0 0"/></symbol><symbol overflow="visible" id="24e0a29ff"><path d="M4.44-22.92c0 1.92 1.26 3.23 3.18 3.23 2.04 0 3.3-1.43 3.3-3.6 0-1.79-1.2-3.05-3.12-3.05-2.03 0-3.36 1.39-3.36 3.42zM4.5-2.94C4.5-.95 5.77.3 7.69.3c2.03 0 3.36-1.38 3.36-3.53 0-1.86-1.27-3.13-3.2-3.13-2.04 0-3.35 1.44-3.35 3.42zm0 0"/></symbol><symbol overflow="visible" id="24e0a29fh"><path d="M5.16-30.66c0 4.02 2.76 7.2 6.12 9.18-4.56 3.18-7.86 6.71-7.92 11.93C3.36-3 8.7.85 15.9.85 22.73.84 29.28-3 29.28-10.57c0-5.16-3.42-8.16-7.5-10.44 3.53-2.88 5.88-5.94 5.88-10.2 0-5.64-4.74-9.36-10.93-9.36-6.95 0-11.57 4.2-11.57 9.9zm4.92-.12a5.23 5.23 0 012.51-4.67 7.33 7.33 0 014.1-1.03c3.6 0 6.17 2.21 6.17 5.64 0 3.36-1.73 5.76-4.56 8.04-4.99-2.4-8.22-4.2-8.22-7.98zM8.28-9.84c0-4.25 2.7-7.2 6.49-9.79 5.93 2.9 9.59 4.93 9.59 9.36 0 2.58-1.2 4.5-3 5.64a9.61 9.61 0 01-5.1 1.4c-4.56 0-7.98-2.41-7.98-6.61zm0 0"/></symbol><symbol overflow="visible" id="24e0a29fi"><path d="M22.92-29.45H4.02v18.76l.54.61c2.52-.84 5.16-1.5 7.67-1.5 5.22 0 7.5 2.58 7.5 6.72 0 7.31-8.32 10.63-16.07 12l.71 3.95C13.31 10.08 24.6 5.88 24.6-5.09c0-6.97-4.54-10.4-11.03-10.46-1.8 0-3.48.32-5.1.74v-10.46H22.8zm0 0"/></symbol><symbol overflow="visible" id="24e0a29fj"><path d="M21.13-3.9h-5.18v-25.62l-3.82-.12-8.83 3.06 1.14 3.42 6.78-1.8V-3.9H3.9V0h17.45zm0 0"/></symbol><symbol overflow="visible" id="24e0a29fk"><path d="M3.48-16.2C3.48-7.56 6.78.84 15.95.84c8.11 0 12.68-6.54 12.68-13.56 0-6.48-3.97-11.4-11.11-11.4-3.3 0-6.3 1.07-8.7 2.82 1.68-9.42 8.95-13.86 16.74-14.93l-.6-4.15C14.51-39.95 3.47-31.5 3.47-16.2zm4.93-.72v-.3c2.39-1.73 5.32-2.87 8.09-2.87 4.69 0 7.2 3.1 7.2 7.9 0 2.7-.78 5.17-2.51 6.85a7 7 0 01-4.92 2.04c-5.9 0-7.86-6.25-7.86-13.62zm0 0"/></symbol><symbol overflow="visible" id="24e0a29fl"><path d="M3.83 0v-5.95H6.2v-.82H.45v.82h2.4V0zm0 0"/></symbol><symbol overflow="visible" id="24e0a29fm"><path d="M5.75-2.23v-.43c0-1.6-.9-2.51-2.42-2.51S.87-4.16.87-2.48c0 1.71.91 2.62 2.5 2.62 1.43 0 2.07-.56 2.29-1.52l-.9-.09c-.18.61-.59.9-1.35.9-.94 0-1.52-.54-1.58-1.66zm-2.4-2.2c.93 0 1.43.5 1.48 1.55H1.84c.08-1.07.6-1.56 1.5-1.56zm0 0"/></symbol><symbol overflow="visible" id="24e0a29fn"><path d="M1.83 0l1.42-2h.06l1.46 2H5.8L4-2.53l1.78-2.49H4.8L3.42-3.08h-.08l-1.4-1.94H.89l1.78 2.49L.84 0zm0 0"/></symbol><symbol overflow="visible" id="24e0a29fo"><path d="M5.52-4.25v-.77H3.17v-1.56h-.81l-.14 1.56H.75v.77h1.47v2.4c0 1.3.48 1.94 1.84 1.94C4.6.1 5.14 0 5.55-.14L5.4-.91c-.32.13-.72.2-1.13.2-.8 0-1.1-.37-1.1-1.23v-2.31zm0 0"/></symbol><symbol overflow="visible" id="24e0a29fp"><path d="M3.33-3.42c.47 0 .8-.27.8-.8 0-.51-.33-.8-.8-.8-.47 0-.8.29-.8.8 0 .53.33.8.8.8zm0 3.5c.47 0 .8-.27.8-.78 0-.53-.33-.82-.8-.82-.47 0-.8.29-.8.82 0 .51.33.78.8.78zm0 0"/></symbol><symbol overflow="visible" id="24e0a29fr"><path d="M3.33.14c1.62 0 2.5-.95 2.5-2.66 0-1.68-.88-2.64-2.5-2.64-1.63 0-2.5.96-2.5 2.64 0 1.7.87 2.66 2.5 2.66zm0-.77c-1.06 0-1.52-.6-1.52-1.89 0-1.28.46-1.87 1.52-1.87 1.08 0 1.53.6 1.53 1.87 0 1.29-.45 1.9-1.53 1.9zm0 0"/></symbol><symbol overflow="visible" id="24e0a29fs"><path d="M2.83.14c.94 0 1.5-.39 1.81-.95h.08l.1.81h.76v-3.38c0-1.23-.69-1.8-2.13-1.8-1.43 0-2.03.65-2.18 1.6l.93.1c.11-.6.44-.93 1.22-.93.85 0 1.22.32 1.22 1.04v.34l-1.81.2C1.6-2.7 1.1-2.17 1.1-1.28c0 .92.64 1.42 1.72 1.42zm.25-.77c-.67 0-1.02-.28-1.02-.74 0-.44.28-.72 1-.82l1.58-.19v.41c0 .8-.6 1.34-1.56 1.34zm0 0"/></symbol><symbol overflow="visible" id="24e0a29ft"><path d="M3.92-7.14H1.36v.76h1.6v5.61H1.15V0H5.7v-.77H3.92zm0 0"/></symbol><symbol overflow="visible" id="24e0a29fu"><path d="M3.33.16c1.69 0 2.69-.74 2.69-1.94 0-1.05-.8-1.58-1.43-1.72v-.05c.5-.14 1.2-.58 1.2-1.56 0-1.12-.95-1.81-2.46-1.81-1.52 0-2.46.69-2.46 1.81 0 .97.68 1.4 1.18 1.56v.05c-.6.14-1.4.64-1.4 1.72 0 1.2 1 1.94 2.68 1.94zm0-4.04c-.97 0-1.49-.43-1.49-1.12 0-.78.52-1.1 1.49-1.1.95 0 1.48.32 1.48 1.1 0 .69-.53 1.13-1.48 1.13zm0 3.24c-1.1 0-1.7-.42-1.7-1.25 0-.78.6-1.2 1.7-1.2s1.7.42 1.7 1.2c0 .83-.6 1.25-1.7 1.25zm0 0"/></symbol><symbol overflow="visible" id="24e0a29fv"><path d="M3.42.14c1.55 0 2.44-.84 2.44-2.33 0-1.45-.83-2.22-2.14-2.22-.75 0-1.28.27-1.67.72H2l.31-2.22h3.11v-.86H1.53l-.45 3.93h.81c.3-.36.9-.79 1.58-.79.92 0 1.44.43 1.44 1.47 0 .99-.54 1.5-1.49 1.5-.83 0-1.28-.32-1.5-1.01l-.95.1C1.07-.46 2 .13 3.42.13zm0 0"/></symbol><symbol overflow="visible" id="24e0a29fw"><path d="M4.22-6.77h-.86l-2.03.7v.87c.64-.17 1.26-.38 1.89-.55v4.9H1.03V0h4.9v-.86H4.21zm0 0"/></symbol><symbol overflow="visible" id="24e0a29fx"><path d="M3.42.14c1.58 0 2.49-.86 2.49-2.3 0-1.42-.86-2.17-2.22-2.17-1.03 0-1.58.5-1.9 1.02h-.04c.03-1.63.4-2.77 1.73-2.77.91 0 1.24.44 1.36.96l.97-.11c-.23-.96-.86-1.68-2.33-1.68C1.84-6.9.86-5.86.86-3.1.86-.9 1.78.14 3.42.14zm.02-.78c-.9 0-1.47-.55-1.47-1.47 0-.9.7-1.47 1.53-1.47.92 0 1.47.52 1.47 1.47 0 .97-.6 1.47-1.53 1.47zm0 0"/></symbol><symbol overflow="visible" id="24e0a29fy"><path d="M5.95-6.77H1.1V0h.99v-2.92H5.3v-.77H2.08v-2.26h3.87zm0 0"/></symbol><symbol overflow="visible" id="24e0a29fz"><path d="M2.73.14c.9 0 1.43-.45 1.74-1.08h.06l.13.94h.8v-5.02h-.94v2.7c0 .98-.57 1.62-1.46 1.62-.75 0-1.1-.4-1.1-1.22v-3.1h-.93v3.32c0 1.17.55 1.84 1.7 1.84zm0 0"/></symbol><symbol overflow="visible" id="24e0a29fA"><path d="M5.08-5.16c-.94 0-1.58.43-1.9 1.3h-.09l-.07-1.16H1.05v.77h1.1v3.48H.96V0h3.96v-.77H3.1v-1.46c0-1.36.6-2.05 1.83-2.05.4 0 .76.08 1.1.17l.15-.87c-.33-.11-.7-.18-1.11-.18zm0 0"/></symbol><symbol overflow="visible" id="24e0a29fB"><path d="M4.06-2.77c1.25-.04 1.92-.7 1.92-1.96 0-1.36-.7-2.04-2.17-2.04H.92V0h.97v-2.73h1.08L4.95 0h1.1zM1.9-6h1.7c1.07 0 1.46.34 1.46 1.28 0 .9-.44 1.27-1.47 1.27H1.89zm0 0"/></symbol><symbol overflow="visible" id="24e0a29fC"><path d="M2.16 0v-2.67c0-.99.59-1.63 1.46-1.63.74 0 1.07.38 1.07 1.22V0h.95v-3.31c0-1.2-.56-1.85-1.67-1.85-.92 0-1.49.46-1.77 1.08h-.06l-.12-.94H1.2V0zm0 0"/></symbol><symbol overflow="visible" id="24e0a29fD"><path d="M3.16 2.03c1.67 0 2.4-.86 2.4-2.51v-4.54h-.81l-.13.91h-.06c-.26-.58-.8-1.05-1.73-1.05-1.42 0-2.24 1-2.24 2.52 0 1.6.75 2.56 2.2 2.56.94 0 1.5-.5 1.77-1.03h.05v.72c0 1.17-.42 1.67-1.45 1.67-.93 0-1.3-.34-1.41-.89L.8.5c.12.96.87 1.54 2.36 1.54zM3.06-.8c-.98 0-1.48-.57-1.48-1.82 0-1.13.5-1.75 1.48-1.75 1.06 0 1.58.76 1.58 1.75 0 .95-.56 1.82-1.58 1.82zm0 0"/></symbol><symbol overflow="visible" id="24e0a29fE"><path d="M3.58-5.81c.42 0 .72-.22.72-.67 0-.44-.3-.68-.72-.68-.44 0-.72.24-.72.68 0 .45.28.67.72.67zm.5.8H1.52v.76h1.6v3.48h-1.8V0h4.46v-.77h-1.7zm0 0"/></symbol><symbol overflow="visible" id="24e0a29fF"><path d="M1.63 0v-2.9c0-.8.15-1.4.71-1.4.41 0 .55.3.55.88V0h.95v-2.9c0-.8.18-1.4.72-1.4.4 0 .57.3.57.88V0h.95v-3.63c0-.92-.28-1.53-1.11-1.53-.63 0-.95.41-1.1.9h-.06c-.1-.52-.44-.9-1.08-.9-.6 0-.93.41-1.06.9H1.6l-.23-.76H.67V0zm0 0"/></symbol><symbol overflow="visible" id="24e0a29fG"><path d="M3.36.16c1.4 0 2.2-.6 2.2-1.57 0-.89-.54-1.22-1.47-1.39L3-3c-.67-.14-.86-.33-.86-.73 0-.5.4-.74 1.17-.74.83 0 1.19.27 1.27.8l.9-.05c-.12-1-.8-1.47-2.17-1.47-1.34 0-2.1.53-2.1 1.5 0 .81.45 1.22 1.52 1.44l1.04.2c.56.11.87.24.87.72 0 .52-.45.78-1.28.78-.95 0-1.36-.28-1.42-.87l-.9.06C1.07-.36 1.8.16 3.35.16zm0 0"/></symbol><symbol overflow="visible" id="24e0a29fH"><path d="M1.45-2.95c0 2.56 1.08 4.37 3.67 4.84l.11-.67C3.28.86 2.43-.75 2.43-2.95s.85-3.82 2.8-4.16l-.1-.69c-2.6.49-3.68 2.3-3.68 4.85zm0 0"/></symbol><symbol overflow="visible" id="24e0a29fI"><path d="M1.45-7.1c1.96.33 2.8 1.94 2.8 4.15 0 2.2-.84 3.8-2.8 4.17l.11.67c2.58-.47 3.67-2.28 3.67-4.84 0-2.55-1.09-4.36-3.67-4.85zm0 0"/></symbol></defs><g fill="#515151"><use xlink:href="#24e0a29fa" x="163.17" y="151"/><use xlink:href="#24e0a29fb" x="196.59" y="151"/><use xlink:href="#24e0a29fc" x="227.85" y="151"/><use xlink:href="#24e0a29fd" x="249.39" y="151"/><use xlink:href="#24e0a29fe" x="277.89" y="151"/><use xlink:href="#24e0a29ff" x="293.37" y="151"/><use xlink:href="#24e0a29fg" x="308.79" y="151"/></g><use xlink:href="#24e0a29fh" x="321.75" y="151" fill="#fff"/><use xlink:href="#24e0a29fi" x="354.45" y="151" fill="#fff"/><use xlink:href="#24e0a29fj" x="381.75" y="151" fill="#fff"/><use xlink:href="#24e0a29fk" x="405.33" y="151" fill="#fff"/><g fill="#fff"><use xlink:href="#24e0a29fl" x="243.3333" y="252"/><use xlink:href="#24e0a29fm" x="250.0003" y="252"/><use xlink:href="#24e0a29fn" x="256.6673" y="252"/><use xlink:href="#24e0a29fo" x="263.3343" y="252"/><use xlink:href="#24e0a29fp" x="270.0013" y="252"/><use xlink:href="#24e0a29fq" x="276.6683" y="252"/><use xlink:href="#24e0a29fl" x="283.3353" y="252"/><use xlink:href="#24e0a29fr" x="290.0023" y="252"/><use xlink:href="#24e0a29fo" x="296.6693" y="252"/><use xlink:href="#24e0a29fs" x="303.3363" y="252"/><use xlink:href="#24e0a29ft" x="310.0033" y="252"/><use xlink:href="#24e0a29fp" x="316.6703" y="252"/><use xlink:href="#24e0a29fq" x="323.3373" y="252"/><use xlink:href="#24e0a29fu" x="330.0043" y="252"/><use xlink:href="#24e0a29fv" x="336.6713" y="252"/><use xlink:href="#24e0a29fw" x="343.3383" y="252"/><use xlink:href="#24e0a29fx" x="350.0053" y="252"/></g><g fill="#fff"><use xlink:href="#24e0a29fy" x="193.3333" y="266"/><use xlink:href="#24e0a29fm" x="200.0003" y="266"/><use xlink:href="#24e0a29fs" x="206.6673" y="266"/><use xlink:href="#24e0a29fo" x="213.3343" y="266"/><use xlink:href="#24e0a29fz" x="220.0013" y="266"/><use xlink:href="#24e0a29fA" x="226.6683" y="266"/><use xlink:href="#24e0a29fm" x="233.3353" y="266"/><use xlink:href="#24e0a29fp" x="240.0023" y="266"/><use xlink:href="#24e0a29fq" x="246.6693" y="266"/><use xlink:href="#24e0a29fB" x="253.3363" y="266"/><use xlink:href="#24e0a29fs" x="260.0033" y="266"/><use xlink:href="#24e0a29fC" x="266.6703" y="266"/><use xlink:href="#24e0a29fD" x="273.3373" y="266"/><use xlink:href="#24e0a29fE" x="280.0043" y="266"/><use xlink:href="#24e0a29fC" x="286.6713" y="266"/><use xlink:href="#24e0a29fD" x="293.3383" y="266"/><use xlink:href="#24e0a29fq" x="300.0053" y="266"/><use xlink:href="#24e0a29fC" x="306.6723" y="266"/><use xlink:href="#24e0a29fz" x="313.3393" y="266"/><use xlink:href="#24e0a29fF" x="320.0063" y="266"/><use xlink:href="#24e0a29fm" x="326.6733" y="266"/><use xlink:href="#24e0a29fA" x="333.3403" y="266"/><use xlink:href="#24e0a29fs" x="340.0073" y="266"/><use xlink:href="#24e0a29ft" x="346.6743" y="266"/><use xlink:href="#24e0a29fG" x="353.3413" y="266"/><use xlink:href="#24e0a29fq" x="360.0083" y="266"/><use xlink:href="#24e0a29fH" x="366.6753" y="266"/><use xlink:href="#24e0a29fr" x="373.3423" y="266"/><use xlink:href="#24e0a29fC" x="380.0093" y="266"/><use xlink:href="#24e0a29fz" x="386.6763" y="266"/><use xlink:href="#24e0a29fF" x="393.3433" y="266"/><use xlink:href="#24e0a29fI" x="400.0103" y="266"/></g></svg>