<?xml version='1.0' encoding='UTF-8'?>
<svg xmlns="http://www.w3.org/2000/svg" xmlns:xlink="http://www.w3.org/1999/xlink" width="600px" height="300px" viewBox="0 0 600 300" x="0px" y="0px" enable-background="new 0 0 600 300"><defs><symbol overflow="visible" id="7a7fbdd9a"><path d="M20.34-40.31l-5.4.23L2.45-4.2C1.92-2.77 1.56-1.44 1.2 0H6l3.78-11.22h15.24L28.73 0h4.75c-.3-1.38-.71-2.77-1.2-4.2zm-2.76 6.04h.19l2.51 8.58 3.42 10.33H11.16zm0 0"/></symbol><symbol overflow="visible" id="7a7fbdd9b"><path d="M14.52-28.14h-3.3v-18.42l-3.3-.06-5.7 2.34 1.01 2.87 3.91-1.18v14.45H2.58v3.3h12.06zm0 0"/></symbol><symbol overflow="visible" id="7a7fbdd9c"><path d="M5.64-39.9V-.24C9.36.3 13.2.66 16.2.66c10.44 0 15.66-4.93 15.66-12.18 0-5.46-3.13-8.82-8.22-9.96 4.08-1.93 5.88-5.52 5.88-9.47 0-6.74-5.29-9.85-13.86-9.85-3.18 0-6.66.36-10.02.9zm9.95 3.24c5.54 0 8.96 1.8 8.96 6.66 0 2.28-.85 4.63-3.07 5.88-1.26.71-2.93 1.14-5.53 1.14-1.67 0-3.36 0-5.51-.07v-13.18c1.8-.25 3.6-.43 5.15-.43zm.43 17.7c7.43 0 10.8 2.76 10.8 7.44 0 2.46-.96 4.68-3.05 6.24-1.57 1.14-3.72 1.73-7.2 1.73-1.93 0-3.91-.1-6.13-.36v-15c1.98 0 3.97-.04 5.58-.04zm0 0"/></symbol><symbol overflow="visible" id="7a7fbdd9d"><path d="M2.4-44.7l1.38 2.58a8.8 8.8 0 014.38-1.26c2.34 0 3.36 1.32 3.36 3.3 0 3-2.82 5.77-6.07 8.94l-3.17 3 .24 3.3H15.9l-.13-3.3H7.2l1.38-1.27c3.78-3.46 7.01-6.95 7.01-11.21 0-3.54-2.15-6.24-6.65-6.24-2.64 0-4.86.84-6.53 2.16zm0 0"/></symbol><symbol overflow="visible" id="7a7fbdd9e"><path d="M3.36-19.31C3.36-8.21 9.13.66 20.88.66c4.32 0 8.17-1.08 11.53-2.82l-1.46-3.71a22.34 22.34 0 01-9.47 2.21c-9.71 0-13.07-7.86-13.07-16.07 0-5.05 1.25-10.08 4.54-13.57 2.05-2.04 4.82-3.25 8.4-3.25 3.3 0 6 .85 8.88 2.47l1.86-3.72a18.82 18.82 0 00-10.67-3.06C9-40.86 3.36-30.19 3.36-19.3zm0 0"/></symbol><symbol overflow="visible" id="7a7fbdd9f"><path d="M2.4-35.16c0 6.78 2.16 12.43 6.37 17.75l2.87-2.03C8.34-24.3 6.6-29.52 6.6-35.16c0-5.7 1.82-10.98 5.05-15.84l-2.87-2.05c-4.14 5.4-6.36 11.11-6.36 17.9zm0 0"/></symbol><symbol overflow="visible" id="7a7fbdd9g"><path d="M11.64-35.28H3.12v3.06h8.52zm0 0"/></symbol><symbol overflow="visible" id="7a7fbdd9h"><path d="M2.64-37.69c.06 2.96 2.34 4.27 4.98 5.24 2.22.83 4.38 1.43 4.38 2.87 0 1.38-1.27 2.03-3.23 2.03-1.75 0-3.91-.76-5.41-1.6l-1.44 2.63a11.67 11.67 0 006.85 2.04c4.43 0 7.25-1.97 7.25-5.29 0-2.93-2.58-4.18-5.52-5.28-2.05-.72-3.78-1.3-3.78-2.68 0-1.15 1.01-1.82 2.58-1.82 1.86 0 3.48.74 4.8 1.33l1.38-2.58c-1.39-.97-3.36-1.8-6.12-1.8-3.9 0-6.72 1.87-6.72 4.91zm0 0"/></symbol><symbol overflow="visible" id="7a7fbdd9i"><path d="M7.31-42.23H3.23v11.75c0 3.9 1.75 6.12 5.7 6.12 2.41 0 4.27-.95 6.07-2.77l.78 2.47 3.17-.42c-.3-4.01-.36-5.58-.36-7.01v-10.14h-4.07v12.59c-1.57 1.37-2.94 2.16-4.44 2.16-1.99 0-2.77-1.2-2.77-3.9zm0 0"/></symbol><symbol overflow="visible" id="7a7fbdd9j"><path d="M6.36-42.55l-3.24.49c.3 4.2.36 5.28.36 7.08v18.84h4.08v-9.42c1.14.78 2.4 1.2 4.08 1.2 5.16 0 8.22-4.56 8.22-9.6 0-4.98-2.77-8.76-7.2-8.76-2.29 0-4.02 1.02-5.58 2.64zm5.4 2.96c2.65 0 3.96 2.45 3.96 5.93 0 2.4-.6 4.25-1.86 5.22a4.2 4.2 0 01-2.77.96c-1.18 0-2.39-.36-3.53-.96v-9.36c1.38-1.01 2.7-1.8 4.2-1.8zm0 0"/></symbol><symbol overflow="visible" id="7a7fbdd9k"><path d="M10.8-35.22c0-6.78-2.16-12.48-6.3-17.83L1.56-51A27.7 27.7 0 016.6-35.22c0 5.64-1.73 10.92-5.03 15.84l2.88 1.97c4.2-5.32 6.36-11.03 6.36-17.8zm0 0"/></symbol><symbol overflow="visible" id="7a7fbdd9l"><path d="M3.83 0v-5.95H6.2v-.82H.45v.82h2.4V0zm0 0"/></symbol><symbol overflow="visible" id="7a7fbdd9m"><path d="M5.75-2.23v-.43c0-1.6-.9-2.51-2.42-2.51S.87-4.16.87-2.48c0 1.71.91 2.62 2.5 2.62 1.43 0 2.07-.56 2.29-1.52l-.9-.09c-.18.61-.59.9-1.35.9-.94 0-1.52-.54-1.58-1.66zm-2.4-2.2c.93 0 1.43.5 1.48 1.55H1.84c.08-1.07.6-1.56 1.5-1.56zm0 0"/></symbol><symbol overflow="visible" id="7a7fbdd9n"><path d="M1.83 0l1.42-2h.06l1.46 2H5.8L4-2.53l1.78-2.49H4.8L3.42-3.08h-.08l-1.4-1.94H.89l1.78 2.49L.84 0zm0 0"/></symbol><symbol overflow="visible" id="7a7fbdd9o"><path d="M5.52-4.25v-.77H3.17v-1.56h-.81l-.14 1.56H.75v.77h1.47v2.4c0 1.3.48 1.94 1.84 1.94C4.6.1 5.14 0 5.55-.14L5.4-.91c-.32.13-.72.2-1.13.2-.8 0-1.1-.37-1.1-1.23v-2.31zm0 0"/></symbol><symbol overflow="visible" id="7a7fbdd9p"><path d="M3.33-3.42c.47 0 .8-.27.8-.8 0-.51-.33-.8-.8-.8-.47 0-.8.29-.8.8 0 .53.33.8.8.8zm0 3.5c.47 0 .8-.27.8-.78 0-.53-.33-.82-.8-.82-.47 0-.8.29-.8.82 0 .51.33.78.8.78zm0 0"/></symbol><symbol overflow="visible" id="7a7fbdd9r"><path d="M6.17 0L3.98-6.77h-1.3L.5 0h.97l.44-1.47h2.78L5.16 0zM3.28-5.94h.08l1.1 3.74H2.15zm0 0"/></symbol><symbol overflow="visible" id="7a7fbdd9s"><path d="M4.22-6.77h-.86l-2.03.7v.87c.64-.17 1.26-.38 1.89-.55v4.9H1.03V0h4.9v-.86H4.21zm0 0"/></symbol><symbol overflow="visible" id="7a7fbdd9t"><path d="M4.66-3.45c.76-.14 1.15-.67 1.15-1.57 0-1.07-.64-1.75-2.18-1.75H.92V0h2.71C5.2 0 5.98-.64 5.98-1.77c0-1.03-.56-1.43-1.32-1.59zM3.56-6c.9 0 1.31.4 1.31 1.13 0 .71-.4 1.14-1.3 1.14h-1.7V-6zM1.87-.75v-2.27H3.6c.97 0 1.44.33 1.44 1.13 0 .8-.47 1.14-1.44 1.14zm0 0"/></symbol><symbol overflow="visible" id="7a7fbdd9u"><path d="M5.67 0v-.86H2.14V-.9L3.6-2c1.05-.83 2-1.68 2-2.91 0-1.19-.73-1.99-2.26-1.99-1.66 0-2.3 1.02-2.44 2.33l1 .08c.1-.92.42-1.58 1.44-1.58.87 0 1.26.44 1.26 1.24 0 .9-.8 1.53-1.96 2.53L.83-.81V0zm0 0"/></symbol><symbol overflow="visible" id="7a7fbdd9v"><path d="M3.42.14C5.1.14 5.9-.69 6.11-2.17l-.95-.1C4.96-1.19 4.5-.69 3.44-.69c-1.27 0-1.81-.94-1.81-2.69s.54-2.7 1.8-2.7c1.09 0 1.5.49 1.73 1.58l.93-.1c-.21-1.46-.95-2.3-2.62-2.3C1.53-6.9.62-5.6.62-3.38c0 2.2.91 3.51 2.8 3.51zm0 0"/></symbol><symbol overflow="visible" id="7a7fbdd9w"><path d="M1.45-2.95c0 2.56 1.08 4.37 3.67 4.84l.11-.67C3.28.86 2.43-.75 2.43-2.95s.85-3.82 2.8-4.16l-.1-.69c-2.6.49-3.68 2.3-3.68 4.85zm0 0"/></symbol><symbol overflow="visible" id="7a7fbdd9x"><path d="M5.33-2.2v-.75h-4v.75zm0 0"/></symbol><symbol overflow="visible" id="7a7fbdd9y"><path d="M3.36.16c1.4 0 2.2-.6 2.2-1.57 0-.89-.54-1.22-1.47-1.39L3-3c-.67-.14-.86-.33-.86-.73 0-.5.4-.74 1.17-.74.83 0 1.19.27 1.27.8l.9-.05c-.12-1-.8-1.47-2.17-1.47-1.34 0-2.1.53-2.1 1.5 0 .81.45 1.22 1.52 1.44l1.04.2c.56.11.87.24.87.72 0 .52-.45.78-1.28.78-.95 0-1.36-.28-1.42-.87l-.9.06C1.07-.36 1.8.16 3.35.16zm0 0"/></symbol><symbol overflow="visible" id="7a7fbdd9z"><path d="M2.73.14c.9 0 1.43-.45 1.74-1.08h.06l.13.94h.8v-5.02h-.94v2.7c0 .98-.57 1.62-1.46 1.62-.75 0-1.1-.4-1.1-1.22v-3.1h-.93v3.32c0 1.17.55 1.84 1.7 1.84zm0 0"/></symbol><symbol overflow="visible" id="7a7fbdd9A"><path d="M2.06 1.9V-.84h.05c.28.58.8.97 1.77.97 1.5 0 2.2-.98 2.2-2.66 0-1.65-.7-2.64-2.19-2.64-.97 0-1.5.44-1.78 1.05h-.08l-.1-.9H1.1v6.9zm1.5-2.56c-1.06 0-1.53-.8-1.53-1.86 0-1.04.47-1.84 1.53-1.84 1.11 0 1.53.61 1.53 1.84 0 1.27-.42 1.86-1.53 1.86zm0 0"/></symbol><symbol overflow="visible" id="7a7fbdd9B"><path d="M1.45-7.1c1.96.33 2.8 1.94 2.8 4.15 0 2.2-.84 3.8-2.8 4.17l.11.67c2.58-.47 3.67-2.28 3.67-4.84 0-2.55-1.09-4.36-3.67-4.85zm0 0"/></symbol><symbol overflow="visible" id="7a7fbdd9C"><path d="M5.95-6.77H1.1V0h.99v-2.92H5.3v-.77H2.08v-2.26h3.87zm0 0"/></symbol><symbol overflow="visible" id="7a7fbdd9D"><path d="M2.83.14c.94 0 1.5-.39 1.81-.95h.08l.1.81h.76v-3.38c0-1.23-.69-1.8-2.13-1.8-1.43 0-2.03.65-2.18 1.6l.93.1c.11-.6.44-.93 1.22-.93.85 0 1.22.32 1.22 1.04v.34l-1.81.2C1.6-2.7 1.1-2.17 1.1-1.28c0 .92.64 1.42 1.72 1.42zm.25-.77c-.67 0-1.02-.28-1.02-.74 0-.44.28-.72 1-.82l1.58-.19v.41c0 .8-.6 1.34-1.56 1.34zm0 0"/></symbol><symbol overflow="visible" id="7a7fbdd9E"><path d="M5.08-5.16c-.94 0-1.58.43-1.9 1.3h-.09l-.07-1.16H1.05v.77h1.1v3.48H.96V0h3.96v-.77H3.1v-1.46c0-1.36.6-2.05 1.83-2.05.4 0 .76.08 1.1.17l.15-.87c-.33-.11-.7-.18-1.11-.18zm0 0"/></symbol><symbol overflow="visible" id="7a7fbdd9F"><path d="M3.42.14c1.61 0 2.56-.75 2.56-2 0-1.1-.67-1.6-1.95-1.86l-.97-.2c-.87-.17-1.23-.49-1.23-1.11 0-.7.54-1.11 1.5-1.11 1.06 0 1.51.34 1.69 1.23l.9-.09c-.17-1.28-.98-1.9-2.6-1.9C1.79-6.9.9-6.18.9-4.98c0 1.06.66 1.66 1.88 1.9l1.01.2c.85.17 1.25.4 1.25 1.09 0 .73-.6 1.16-1.6 1.16-1.07 0-1.66-.4-1.8-1.24l-.94.1C.83-.53 1.75.13 3.42.13zm0 0"/></symbol><symbol overflow="visible" id="7a7fbdd9G"><path d="M3.34.14c1.43 0 2.13-.66 2.25-1.78l-.89-.1c-.1.7-.5 1.08-1.34 1.08-1.03 0-1.52-.64-1.52-1.84 0-1.23.47-1.86 1.52-1.86.84 0 1.23.36 1.34 1.08l.9-.1c-.13-1.09-.82-1.78-2.26-1.78-1.56 0-2.46.97-2.46 2.66 0 1.66.9 2.64 2.46 2.64zm0 0"/></symbol><symbol overflow="visible" id="7a7fbdd9H"><path d="M3.58-5.81c.42 0 .72-.22.72-.67 0-.44-.3-.68-.72-.68-.44 0-.72.24-.72.68 0 .45.28.67.72.67zm.5.8H1.52v.76h1.6v3.48h-1.8V0h4.46v-.77h-1.7zm0 0"/></symbol></defs><use xlink:href="#7a7fbdd9a" x="169.23" y="151" fill="#515151"/><use xlink:href="#7a7fbdd9b" x="204.27" y="151" fill="#fff"/><use xlink:href="#7a7fbdd9c" x="220.65" y="151" fill="#515151"/><use xlink:href="#7a7fbdd9d" x="255.57" y="151" fill="#fff"/><use xlink:href="#7a7fbdd9e" x="273.99" y="151" fill="#515151"/><use xlink:href="#7a7fbdd9f" x="308.61" y="151" fill="#fff"/><use xlink:href="#7a7fbdd9d" x="321.87" y="151" fill="#fff"/><use xlink:href="#7a7fbdd9g" x="340.29" y="151" fill="#fff"/><use xlink:href="#7a7fbdd9h" x="355.05" y="151" fill="#fff"/><use xlink:href="#7a7fbdd9i" x="373.23" y="151" fill="#fff"/><use xlink:href="#7a7fbdd9j" x="395.31" y="151" fill="#fff"/><use xlink:href="#7a7fbdd9k" x="417.51" y="151" fill="#fff"/><g fill="#fff"><use xlink:href="#7a7fbdd9l" x="240" y="252"/><use xlink:href="#7a7fbdd9m" x="246.667" y="252"/><use xlink:href="#7a7fbdd9n" x="253.334" y="252"/><use xlink:href="#7a7fbdd9o" x="260.001" y="252"/><use xlink:href="#7a7fbdd9p" x="266.668" y="252"/><use xlink:href="#7a7fbdd9q" x="273.335" y="252"/><use xlink:href="#7a7fbdd9r" x="280.002" y="252"/><use xlink:href="#7a7fbdd9s" x="286.669" y="252"/><use xlink:href="#7a7fbdd9t" x="293.336" y="252"/><use xlink:href="#7a7fbdd9u" x="300.003" y="252"/><use xlink:href="#7a7fbdd9v" x="306.67" y="252"/><use xlink:href="#7a7fbdd9w" x="313.337" y="252"/><use xlink:href="#7a7fbdd9u" x="320.004" y="252"/><use xlink:href="#7a7fbdd9x" x="326.671" y="252"/><use xlink:href="#7a7fbdd9y" x="333.338" y="252"/><use xlink:href="#7a7fbdd9z" x="340.005" y="252"/><use xlink:href="#7a7fbdd9A" x="346.672" y="252"/><use xlink:href="#7a7fbdd9B" x="353.339" y="252"/></g><g fill="#fff"><use xlink:href="#7a7fbdd9C" x="210" y="266"/><use xlink:href="#7a7fbdd9m" x="216.667" y="266"/><use xlink:href="#7a7fbdd9D" x="223.334" y="266"/><use xlink:href="#7a7fbdd9o" x="230.001" y="266"/><use xlink:href="#7a7fbdd9z" x="236.668" y="266"/><use xlink:href="#7a7fbdd9E" x="243.335" y="266"/><use xlink:href="#7a7fbdd9m" x="250.002" y="266"/><use xlink:href="#7a7fbdd9p" x="256.669" y="266"/><use xlink:href="#7a7fbdd9q" x="263.336" y="266"/><use xlink:href="#7a7fbdd9F" x="270.003" y="266"/><use xlink:href="#7a7fbdd9z" x="276.67" y="266"/><use xlink:href="#7a7fbdd9A" x="283.337" y="266"/><use xlink:href="#7a7fbdd9m" x="290.004" y="266"/><use xlink:href="#7a7fbdd9E" x="296.671" y="266"/><use xlink:href="#7a7fbdd9y" x="303.338" y="266"/><use xlink:href="#7a7fbdd9G" x="310.005" y="266"/><use xlink:href="#7a7fbdd9E" x="316.672" y="266"/><use xlink:href="#7a7fbdd9H" x="323.339" y="266"/><use xlink:href="#7a7fbdd9A" x="330.006" y="266"/><use xlink:href="#7a7fbdd9o" x="336.673" y="266"/><use xlink:href="#7a7fbdd9q" x="343.34" y="266"/><use xlink:href="#7a7fbdd9w" x="350.007" y="266"/><use xlink:href="#7a7fbdd9y" x="356.674" y="266"/><use xlink:href="#7a7fbdd9z" x="363.341" y="266"/><use xlink:href="#7a7fbdd9A" x="370.008" y="266"/><use xlink:href="#7a7fbdd9y" x="376.675" y="266"/><use xlink:href="#7a7fbdd9B" x="383.342" y="266"/></g></svg>