<?xml version='1.0' encoding='UTF-8'?>
<svg xmlns="http://www.w3.org/2000/svg" xmlns:xlink="http://www.w3.org/1999/xlink" width="450px" height="1000px" viewBox="0 0 450 1000" x="0px" y="0px" enable-background="new 0 0 450 1000"><defs><symbol overflow="visible" id="d4c089b0a"><path d="M3.1-14.63C3.1-6.53 7.43.57 17.6.57c4 0 6.7-.93 9.62-2.41l-.63-1.27c-2.75 1.27-5.21 2.17-8.9 2.17-9.27 0-12.83-6.67-12.83-13.9 0-4.29 1.26-8.47 4.6-11.54 1.98-1.84 4.66-2.73 8.23-2.73 3.1 0 5.39.67 8.23 2.25l.72-1.22a15.32 15.32 0 00-8.86-2.6c-10.05 0-14.67 7.96-14.67 16.05zm0 0"/></symbol><symbol overflow="visible" id="d4c089b0b"><path d="M5.94-20.56l-1.53.1V0h1.53v-9.63h5.4c4.1 0 4.36 2.26 7.79 9.63h1.7c-.17-.31-.44-.9-.67-1.4-3.02-6.29-3.64-8.54-6.35-9.04 2.4-.86 3.16-3.2 4.81-7.51.55-1.4.77-2.03 1-2.57h-1.67c-2.7 7.29-2.87 9.49-7.25 9.49H5.94zm0 0"/></symbol><symbol overflow="visible" id="d4c089b0c"><path d="M2.92-10.22C2.92-4 6.56.68 12.73.68c7.16 0 9.86-6.16 9.86-11.02 0-6.18-3.6-10.85-9.76-10.85-7.16 0-9.9 6.16-9.9 10.97zm18.1.05c0 3.1-.86 5.62-2.47 7.25a7.76 7.76 0 01-5.68 2.15C7.33-.77 4.5-4.9 4.5-10.34c0-3.3.98-5.91 2.8-7.52a7.83 7.83 0 015.39-1.89c5.4 0 8.33 4.14 8.33 9.58zm0 0"/></symbol><symbol overflow="visible" id="d4c089b0d"><path d="M18.81-20.52H7.73l-.43 5.58C6.56-5.98 4.55-.86.58-.86V.5c.28.05.5.05.73.05A4.2 4.2 0 004.2-.58c3.01-2.58 4.23-9 4.62-14.14l.38-4.4h8.1V0h1.52zm0 0"/></symbol><symbol overflow="visible" id="d4c089b0e"><path d="M4.9-8.9a5.47 5.47 0 00-2.5 4.45C2.4-1.22 4.63.58 7.91.58c3.14 0 6.4-1.61 9.14-3.86L17.6.09l1.32-.18c-.41-4.36-.41-6.35-.41-8.1v-4.33c0-6.2-2.03-8.54-6.13-8.54-3.1 0-6.3 1.36-9 3.33l.68 1.04c2.51-1.67 5.53-2.93 8.23-2.93 3.11 0 4.69 1.76 4.69 7.75v.35c-6.08.46-9.86 1.13-12.06 2.61zM7.93-.87c-2.25 0-3.97-1.2-3.97-3.69 0-1.62 1-2.78 1.86-3.37 1.66-1.08 4.94-1.7 11.16-2.25v5.31C13.95-2.3 10.7-.8 7.92-.86zm0 0"/></symbol><symbol overflow="visible" id="d4c089b0f"><path d="M5.36-20.8l-1.31.2c.4 4.35.45 6.33.45 8.08V10.8h1.53V-.98A11.32 11.32 0 0012.11.67c7.73 0 10.34-6.1 10.34-11.37 0-5.99-3.32-10.49-8.4-10.49-3.88 0-6.08 1.88-8.2 3.9zm8.5 1.05c4.45 0 6.97 4.05 6.97 9.36 0 3.19-.94 6.25-3.19 8.05-1.44 1.17-3.2 1.57-5.36 1.57-2.42 0-4.26-.5-6.25-1.62v-13.45c2.42-2.2 4.31-3.91 7.83-3.91zm0 0"/></symbol><symbol overflow="visible" id="d4c089b0h"><path d="M5.92-6.77H1.1V0h4.83v-.8H2.06v-2.26h3.22v-.75H2.06v-2.16h3.86zm0 0"/></symbol><symbol overflow="visible" id="d4c089b0i"><path d="M1.83 0l1.42-2h.06l1.46 2H5.8L4-2.53l1.78-2.49H4.8L3.42-3.08h-.08l-1.4-1.94H.89l1.78 2.49L.84 0zm0 0"/></symbol><symbol overflow="visible" id="d4c089b0j"><path d="M5.52-4.25v-.77H3.17v-1.56h-.81l-.14 1.56H.75v.77h1.47v2.4c0 1.3.48 1.94 1.84 1.94C4.6.1 5.14 0 5.55-.14L5.4-.91c-.32.13-.72.2-1.13.2-.8 0-1.1-.37-1.1-1.23v-2.31zm0 0"/></symbol><symbol overflow="visible" id="d4c089b0k"><path d="M5.75-2.23v-.43c0-1.6-.9-2.51-2.42-2.51S.87-4.16.87-2.48c0 1.71.91 2.62 2.5 2.62 1.43 0 2.07-.56 2.29-1.52l-.9-.09c-.18.61-.59.9-1.35.9-.94 0-1.52-.54-1.58-1.66zm-2.4-2.2c.93 0 1.43.5 1.48 1.55H1.84c.08-1.07.6-1.56 1.5-1.56zm0 0"/></symbol><symbol overflow="visible" id="d4c089b0l"><path d="M2.16 0v-2.67c0-.99.59-1.63 1.46-1.63.74 0 1.07.38 1.07 1.22V0h.95v-3.31c0-1.2-.56-1.85-1.67-1.85-.92 0-1.49.46-1.77 1.08h-.06l-.12-.94H1.2V0zm0 0"/></symbol><symbol overflow="visible" id="d4c089b0m"><path d="M2.84.14C3.8.14 4.33-.26 4.6-.9h.07L4.8 0h.76v-7.14h-.95v2.95h-.08c-.28-.6-.86-.97-1.67-.97-1.48 0-2.27.99-2.27 2.64C.6-.84 1.36.14 2.84.14zm.22-.8c-.98 0-1.48-.59-1.48-1.84s.5-1.86 1.48-1.86c1.13 0 1.58.8 1.58 1.86S4.2-.66 3.06-.66zm0 0"/></symbol><symbol overflow="visible" id="d4c089b0n"><path d="M3.83 0v-5.95H6.2v-.82H.45v.82h2.4V0zm0 0"/></symbol><symbol overflow="visible" id="d4c089b0o"><path d="M2.16 0v-2.69c0-.98.6-1.6 1.46-1.6.74 0 1.07.4 1.07 1.2V0h.95v-3.31c0-1.17-.56-1.85-1.67-1.85-.9 0-1.44.46-1.75 1.08h-.06v-3.06H1.2V0zm0 0"/></symbol><symbol overflow="visible" id="d4c089b0p"><path d="M3.58-5.81c.42 0 .72-.22.72-.67 0-.44-.3-.68-.72-.68-.44 0-.72.24-.72.68 0 .45.28.67.72.67zm.5.8H1.52v.76h1.6v3.48h-1.8V0h4.46v-.77h-1.7zm0 0"/></symbol><symbol overflow="visible" id="d4c089b0w"><path d="M3.83-5.97h1.73v-.8H1.1v.8h1.75v5.19H1.1V0h4.47v-.78H3.83zm0 0"/></symbol><symbol overflow="visible" id="d4c089b0x"><path d="M2.83.14c.94 0 1.5-.39 1.81-.95h.08l.1.81h.76v-3.38c0-1.23-.69-1.8-2.13-1.8-1.43 0-2.03.65-2.18 1.6l.93.1c.11-.6.44-.93 1.22-.93.85 0 1.22.32 1.22 1.04v.34l-1.81.2C1.6-2.7 1.1-2.17 1.1-1.28c0 .92.64 1.42 1.72 1.42zm.25-.77c-.67 0-1.02-.28-1.02-.74 0-.44.28-.72 1-.82l1.58-.19v.41c0 .8-.6 1.34-1.56 1.34zm0 0"/></symbol><symbol overflow="visible" id="d4c089b0y"><path d="M3.92-7.14H1.36v.76h1.6v5.61H1.15V0H5.7v-.77H3.92zm0 0"/></symbol><symbol overflow="visible" id="d4c089b0z"><path d="M3.34.14c1.43 0 2.13-.66 2.25-1.78l-.89-.1c-.1.7-.5 1.08-1.34 1.08-1.03 0-1.52-.64-1.52-1.84 0-1.23.47-1.86 1.52-1.86.84 0 1.23.36 1.34 1.08l.9-.1c-.13-1.09-.82-1.78-2.26-1.78-1.56 0-2.46.97-2.46 2.66 0 1.66.9 2.64 2.46 2.64zm0 0"/></symbol><symbol overflow="visible" id="d4c089b0G"><path d="M5.08-5.16c-.94 0-1.58.43-1.9 1.3h-.09l-.07-1.16H1.05v.77h1.1v3.48H.96V0h3.96v-.77H3.1v-1.46c0-1.36.6-2.05 1.83-2.05.4 0 .76.08 1.1.17l.15-.87c-.33-.11-.7-.18-1.11-.18zm0 0"/></symbol><symbol overflow="visible" id="d4c089b0H"><path d="M3.16 2.03c1.67 0 2.4-.86 2.4-2.51v-4.54h-.81l-.13.91h-.06c-.26-.58-.8-1.05-1.73-1.05-1.42 0-2.24 1-2.24 2.52 0 1.6.75 2.56 2.2 2.56.94 0 1.5-.5 1.77-1.03h.05v.72c0 1.17-.42 1.67-1.45 1.67-.93 0-1.3-.34-1.41-.89L.8.5c.12.96.87 1.54 2.36 1.54zM3.06-.8c-.98 0-1.48-.57-1.48-1.82 0-1.13.5-1.75 1.48-1.75 1.06 0 1.58.76 1.58 1.75 0 .95-.56 1.82-1.58 1.82zm0 0"/></symbol><symbol overflow="visible" id="d4c089b0U"><path d="M2.08-6.77h-.99V0h4.79v-.81h-3.8zm0 0"/></symbol><symbol overflow="visible" id="d4c089b0ah"><path d="M4.06-2.77c1.25-.04 1.92-.7 1.92-1.96 0-1.36-.7-2.04-2.17-2.04H.92V0h.97v-2.73h1.08L4.95 0h1.1zM1.9-6h1.7c1.07 0 1.46.34 1.46 1.28 0 .9-.44 1.27-1.47 1.27H1.89zm0 0"/></symbol><symbol overflow="visible" id="d4c089b0ai"><path d="M2.73.14c.9 0 1.43-.45 1.74-1.08h.06l.13.94h.8v-5.02h-.94v2.7c0 .98-.57 1.62-1.46 1.62-.75 0-1.1-.4-1.1-1.22v-3.1h-.93v3.32c0 1.17.55 1.84 1.7 1.84zm0 0"/></symbol><symbol overflow="visible" id="d4c089b0av"><path d="M1.64 0v-3.17l-.16-2.5h.1L2.9-1.83h.82l1.35-3.84h.1l-.16 2.5V0h.95v-6.77h-1.3l-1.3 3.82h-.09L2-6.77H.69V0zm0 0"/></symbol><symbol overflow="visible" id="d4c089b0aw"><path d="M1.63 0v-2.9c0-.8.15-1.4.71-1.4.41 0 .55.3.55.88V0h.95v-2.9c0-.8.18-1.4.72-1.4.4 0 .57.3.57.88V0h.95v-3.63c0-.92-.28-1.53-1.11-1.53-.63 0-.95.41-1.1.9h-.06c-.1-.52-.44-.9-1.08-.9-.6 0-.93.41-1.06.9H1.6l-.23-.76H.67V0zm0 0"/></symbol><symbol overflow="visible" id="d4c089b0aJ"><path d="M3.42.14c1.61 0 2.56-.75 2.56-2 0-1.1-.67-1.6-1.95-1.86l-.97-.2c-.87-.17-1.23-.49-1.23-1.11 0-.7.54-1.11 1.5-1.11 1.06 0 1.51.34 1.69 1.23l.9-.09c-.17-1.28-.98-1.9-2.6-1.9C1.79-6.9.9-6.18.9-4.98c0 1.06.66 1.66 1.88 1.9l1.01.2c.85.17 1.25.4 1.25 1.09 0 .73-.6 1.16-1.6 1.16-1.07 0-1.66-.4-1.8-1.24l-.94.1C.83-.53 1.75.13 3.42.13zm0 0"/></symbol><symbol overflow="visible" id="d4c089b0aK"><path d="M3.9.14c1.48 0 2.18-.98 2.18-2.64 0-1.67-.7-2.66-2.17-2.66-.91 0-1.49.41-1.79 1h-.06v-2.98h-.95V0h.81l.11-.9h.06c.29.63.82 1.04 1.82 1.04zm-.32-.8c-1.08 0-1.55-.8-1.55-1.84 0-1.06.47-1.86 1.55-1.86 1.1 0 1.51.61 1.51 1.86S4.64-.66 3.58-.66zm0 0"/></symbol><symbol overflow="visible" id="d4c089b0aL"><path d="M3.33.14c1.62 0 2.5-.95 2.5-2.66 0-1.68-.88-2.64-2.5-2.64-1.63 0-2.5.96-2.5 2.64 0 1.7.87 2.66 2.5 2.66zm0-.77c-1.06 0-1.52-.6-1.52-1.89 0-1.28.46-1.87 1.52-1.87 1.08 0 1.53.6 1.53 1.87 0 1.29-.45 1.9-1.53 1.9zm0 0"/></symbol><symbol overflow="visible" id="d4c089b0aY"><path d="M4.66-3.45c.76-.14 1.15-.67 1.15-1.57 0-1.07-.64-1.75-2.18-1.75H.92V0h2.71C5.2 0 5.98-.64 5.98-1.77c0-1.03-.56-1.43-1.32-1.59zM3.56-6c.9 0 1.31.4 1.31 1.13 0 .71-.4 1.14-1.3 1.14h-1.7V-6zM1.87-.75v-2.27H3.6c.97 0 1.44.33 1.44 1.13 0 .8-.47 1.14-1.44 1.14zm0 0"/></symbol><symbol overflow="visible" id="d4c089b0bx"><path d="M5.77-5.02H4.63L2.3-2.88h-.06v-4.26h-.94V0h.94v-2.31h.06L4.71 0h1.24L3.23-2.69zm0 0"/></symbol><symbol overflow="visible" id="d4c089b0q"><path d="M2.92-11.52C2.92-4.82 6.48.55 14.05.55c4.17 0 6.82-.86 9.72-2.3l-.7-1.31c-2.6 1.12-4.8 1.98-8.59 1.98-7.1 0-9.8-4.69-9.8-10.67 0-4.14 1.26-10.25 6.02-14.44 2.22-2.08 5.05-2.87 7.88-2.87 2.7 0 4.73.58 7.15 2.06l.96-1.27c-2.44-1.7-5-2.46-7.78-2.42-11.22 0-15.99 11.25-15.99 19.17zm0 0"/></symbol><symbol overflow="visible" id="d4c089b0r"><path d="M6.66-20.6l-1.61.08L2.35 0h1.6l1.27-9.63h3.47c4.19 0 4.4 1.8 7.78 9.63h1.8c-.27-.55-.63-1.27-1.04-2.16-2.2-4.9-3.06-7.34-5.04-8.1 2.48-.8 3.47-3.43 6.17-8.05.55-.96.9-1.63 1.27-2.25h-1.77c-4.22 7.87-4.98 9.53-8.05 9.53h-4.4zm0 0"/></symbol><symbol overflow="visible" id="d4c089b0s"><path d="M2.25-8.1C2.25-2.96 5 .68 10.13.68c5.76 0 10.74-5.94 10.74-12.86 0-4.9-2.51-9.04-7.82-9.04-5.94 0-10.8 6.42-10.8 13.14zm16.92-4.06c0 4.7-2.03 8.24-4.86 10.1a7.53 7.53 0 01-4.04 1.2C5.89-.86 3.92-4 3.92-8.19c0-4.45 1.92-8.28 4.94-10.31a7.61 7.61 0 014.02-1.2c4.54 0 6.3 3.5 6.3 7.54zm0 0"/></symbol><symbol overflow="visible" id="d4c089b0t"><path d="M6.9-11.83C5.3-7.3 4.18-3.19 1.7-1.63a4.1 4.1 0 01-2.37.7L-.91.44a4.74 4.74 0 003.38-.64c3.34-2.01 4.73-7.78 6.26-12 .99-2.75 1.9-5.1 3.46-6.36a4.75 4.75 0 013.1-1.03c1.32 0 2.44.27 2.76.36L15.53 0h1.61l2.7-20.47a16.4 16.4 0 00-4.45-.64c-5.36 0-6.8 4.42-8.5 9.28zm0 0"/></symbol><symbol overflow="visible" id="d4c089b0u"><path d="M2.2-7.16c0 4.2 1.53 7.83 5 7.83 3.2 0 6.11-2.42 8.55-4.76L15.7.09 17.14 0c.14-3.42.23-5.08.4-6.4l1.85-12.27.1-.24c-1.7-1.25-3.55-2.32-5.94-2.32-6.4 0-11.35 6.42-11.35 14.07zm1.67 0c0-5.76 3.02-10.62 6.75-12.06a7.6 7.6 0 012.7-.48c1.57 0 3.1.48 4.46 1.39L15.8-5.84c-2.3 2.2-5.63 4.98-8.28 5.03-2.57-.05-3.64-2.92-3.64-6.35zm0 0"/></symbol><symbol overflow="visible" id="d4c089b0v"><path d="M2.52 10.8L4.09-.77A7.87 7.87 0 008.6.67c6.35 0 11.2-6.44 11.2-14.08 0-4.18-1.57-7.82-5.3-7.82-2.83 0-5.99 2.37-8.46 4.8l.14-4.23-1.53.14c-.14 3.64-.19 5.27-.36 6.52L.94 10.8zm11.8-30.5c2.7 0 3.82 2.92 3.82 6.3 0 5.8-2.89 10.57-6.62 12.06-.82.26-1.8.48-2.74.48a7.47 7.47 0 01-4.5-1.44l1.66-12.37c2.34-2.2 5.62-5.03 8.37-5.03zm0 0"/></symbol><symbol overflow="visible" id="d4c089b0A"><path d="M2.92-14.58C2.92-6.39 7.47.58 17.6.58c3.88 0 6.8-.9 9.72-2.38l-.81-1.89a19.6 19.6 0 01-8.72 2.06c-8.97 0-12.25-6.39-12.25-13.21 0-4.1 1.27-8.16 4.4-11.04 1.9-1.75 4.5-2.56 7.76-2.56 3.1 0 5.43.67 8.14 2.16l.98-1.9a16.41 16.41 0 00-9-2.5c-10.15 0-14.89 7.96-14.89 16.1zm0 0"/></symbol><symbol overflow="visible" id="d4c089b0B"><path d="M6.6-20.75l-2.37.1V0h2.38v-9.4h5.1c3.85 0 4.09 1.98 7.41 9.4h2.57c-.17-.31-.58-1.17-.82-1.75-2.82-6.08-3.54-8.19-6.03-8.73 2.3-.91 3.07-3.16 4.74-7.57.53-1.39.76-2.1.98-2.65h-2.51c-2.57 7.3-2.7 9.3-6.8 9.3H6.61zm0 0"/></symbol><symbol overflow="visible" id="d4c089b0C"><path d="M2.8-10.13C2.8-3.87 6.56.68 12.73.68 19.98.67 23-5.4 23-10.58c0-6.25-3.73-10.8-9.95-10.8-7.2 0-10.25 6.13-10.25 11.25zm17.72-.14c0 3.11-.85 5.41-2.33 6.9A7.13 7.13 0 0113-1.45c-5.13 0-7.78-3.83-7.78-9 0-3.25.98-5.62 2.56-7.06a7.23 7.23 0 015.05-1.77c4.98 0 7.69 3.83 7.69 9zm0 0"/></symbol><symbol overflow="visible" id="d4c089b0D"><path d="M19.63-20.7H7.65l-.46 5.62C6.48-6.12 4.6-1.62.62-1.48V.45c.32.1.7.1 1.05.1 1.3 0 2.38-.46 3.24-1.22C7.97-3.28 9.14-9.5 9.55-14.81l.26-3.9h7.47V0h2.34zm0 0"/></symbol><symbol overflow="visible" id="d4c089b0E"><path d="M4.9-9.22a5.76 5.76 0 00-2.65 4.67C2.25-1.3 4.45.58 7.97.58c3.06 0 6.16-1.49 8.86-3.69l.6 3.25 2-.28c-.4-4.55-.4-6.52-.4-8.28v-4.17c0-6.27-2.2-8.64-6.56-8.64-3.28 0-6.53 1.34-9.19 3.37l.9 1.53c2.52-1.62 5.4-2.8 7.98-2.8 3.01 0 4.5 1.68 4.5 7.25v.13c-5.99.45-9.6 1.13-11.75 2.53zm3.33 7.78c-2.1 0-3.59-1.08-3.59-3.33 0-1.53.9-2.56 1.7-3.1 1.49-.99 4.55-1.58 10.32-2.04v4.83c-2.9 2.33-5.91 3.69-8.43 3.64zm0 0"/></symbol><symbol overflow="visible" id="d4c089b0F"><path d="M5.9-21.02l-2.03.27c.41 4.6.44 6.67.44 8.42V10.8h2.4V-.98A10.61 10.61 0 0012.58.67c7.44 0 10.49-6.1 10.49-11.6-.03-6-3.5-10.45-8.72-10.45-3.56 0-5.81 1.68-7.92 3.74zm8.1 1.75c4.22 0 6.56 3.74 6.56 8.83 0 3.02-.86 5.9-2.92 7.56-1.34 1.08-2.97 1.49-5 1.49-2.3 0-4.05-.45-5.94-1.58V-15.8c2.3-1.98 4.2-3.47 7.3-3.47zm0 0"/></symbol><symbol overflow="visible" id="d4c089b0I"><path d="M2.8-11.6C2.8-4.82 6.53.54 14.17.54c4.24 0 6.9-.86 9.6-2.25L23-3.56a18.33 18.33 0 01-8.28 1.86c-6.63 0-9.36-4.42-9.36-10.22 0-4.4 1.48-10.17 5.8-13.96a11.4 11.4 0 017.46-2.56c2.61 0 4.6.53 6.99 1.99l1.17-1.82a12.8 12.8 0 00-7.87-2.42C7.5-30.69 2.8-19.53 2.8-11.6zm0 0"/></symbol><symbol overflow="visible" id="d4c089b0J"><path d="M7.33-20.8l-2.38.1L2.2 0h2.44l1.2-9.45h3.2c3.91 0 4.05 1.67 7.29 9.45h2.6c-.26-.58-.62-1.4-1.02-2.4-2.07-4.76-2.88-7.15-4.86-7.91 2.51-.75 3.47-3.28 6.07-8.05.58-1.03.94-1.75 1.27-2.39h-2.58c-3.9 7.75-4.53 9.36-7.64 9.36H6.13zm0 0"/></symbol><symbol overflow="visible" id="d4c089b0K"><path d="M2.1-8.23c0 5.3 2.85 8.9 8.12 8.9 6.2 0 11.06-6.2 11.06-13 0-5.1-2.56-9.1-8-9.1-6.39 0-11.17 6.59-11.17 13.2zm16.71-4.05c0 4.4-1.89 7.97-4.54 9.72a7.35 7.35 0 01-3.79 1.08c-3.95 0-5.89-2.93-5.89-6.8 0-4.19 1.8-7.97 4.6-9.94a7.45 7.45 0 013.76-1.05c4.2 0 5.86 3.16 5.86 6.99zm0 0"/></symbol><symbol overflow="visible" id="d4c089b0L"><path d="M6.75-12.02C5.17-7.6 4.09-3.82 1.98-2.3c-.71.46-1.53.63-2.6.63L-.95.36a5.3 5.3 0 004.31-.72c3.07-2.08 4.41-7.47 5.99-11.83.95-2.62 1.84-4.83 3.23-6a4.53 4.53 0 012.94-.93c1.16 0 2.28.21 2.56.3L15.61 0h2.44l2.75-20.6c-1.1-.32-2.85-.68-5-.68-5.86 0-7.3 4.4-9.05 9.26zm0 0"/></symbol><symbol overflow="visible" id="d4c089b0M"><path d="M2.06-7.16C2.06-2.87 3.64.63 7.3.63c3.01 0 6.06-2.25 8.4-4.46l.1 3.97 2.06-.23c.19-3.64.28-5.35.45-6.7l1.8-12.2.05-.14c-1.85-1.26-3.79-2.3-6.3-2.3-6.75 0-11.8 6.4-11.8 14.27zm2.49-.21c0-5.32 2.6-9.91 6.12-11.4a8.6 8.6 0 012.74-.5c1.36 0 2.84.36 4.18 1.08L15.75-6.08c-2.1 1.99-5.36 4.46-7.97 4.55-2.25-.1-3.23-2.61-3.23-5.84zm0 0"/></symbol><symbol overflow="visible" id="d4c089b0N"><path d="M3.19 10.8L4.72-.4A8.78 8.78 0 008.86.61c6.7 0 11.66-6.39 11.66-14.21 0-4.27-1.58-7.83-5.49-7.83-2.8 0-5.84 2.15-8.37 4.5v-3.95l-2.11.21c-.2 3.88-.27 5.58-.46 6.97L.81 10.8zm11.48-30.02c2.4.05 3.38 2.61 3.38 5.86 0 5.34-2.49 9.8-5.99 11.33-.76.28-1.8.5-2.8.5-1.43 0-2.96-.4-4.26-1.13l1.6-12.01c2.26-2.02 5.37-4.5 8.07-4.55zm0 0"/></symbol><symbol overflow="visible" id="d4c089b0O"><path d="M2.8-14.53C2.8-6.25 7.52.57 17.6.57c3.77 0 6.84-.88 9.76-2.37l-.94-2.48a19.81 19.81 0 01-8.51 1.98C9.27-2.3 6.25-8.45 6.25-14.8c0-3.96 1.17-7.88 4.19-10.56 1.84-1.68 4.28-2.4 7.3-2.4 3.06 0 5.48.68 8 2.08l1.21-2.58a17.4 17.4 0 00-9.1-2.42c-10.29 0-15.05 8-15.05 16.16zm0 0"/></symbol><symbol overflow="visible" id="d4c089b0P"><path d="M7.3-20.92l-3.25.1V0H7.3v-9.22h4.8c3.6 0 3.74 1.75 6.98 9.22h3.47c-.2-.36-.68-1.44-.99-2.1-2.62-5.87-3.42-7.84-5.67-8.43 2.16-.9 3.02-3.16 4.63-7.61.5-1.44.76-2.16 1-2.73h-3.38c-2.39 7.28-2.53 9.12-6.39 9.12H7.3zm0 0"/></symbol><symbol overflow="visible" id="d4c089b0Q"><path d="M2.6-10.08C2.6-3.73 6.57.67 12.74.67c7.33 0 10.63-5.98 10.63-11.47 0-6.3-3.88-10.76-10.05-10.76-7.28 0-10.7 6.03-10.7 11.48zm17.43-.23c0 3.01-.86 5.14-2.17 6.44a6.57 6.57 0 01-4.77 1.8c-4.67 0-7.15-3.5-7.15-8.46 0-3.16.95-5.31 2.39-6.61a6.58 6.58 0 014.62-1.63c4.6 0 7.08 3.52 7.08 8.46zm0 0"/></symbol><symbol overflow="visible" id="d4c089b0R"><path d="M20.47-20.88H7.57l-.46 5.7C6.34-6.24 4.59-2.33.67-2.15V.45c.36.1.86.1 1.4.1a5.5 5.5 0 003.6-1.32c3.02-2.6 4.14-8.68 4.55-14.17l.26-3.33h6.8V0h3.19zm0 0"/></symbol><symbol overflow="visible" id="d4c089b0S"><path d="M4.95-9.55a5.91 5.91 0 00-2.8 4.9C2.16-1.43 4.32.59 7.98.59c3.06 0 6.03-1.4 8.64-3.5l.62 3.1 2.75-.37c-.4-4.67-.45-6.7-.45-8.45v-4.1c0-6.3-2.3-8.68-6.97-8.68-3.47 0-6.75 1.36-9.4 3.42l1.15 2.06c2.49-1.6 5.24-2.64 7.7-2.64 2.93 0 4.32 1.49 4.32 6.61-5.85.4-9.36 1.13-11.38 2.42zM8.5-2.03c-1.94 0-3.19-.94-3.19-2.97 0-1.4.77-2.33 1.53-2.88 1.4-.85 4.2-1.39 9.49-1.8v4.41C13.59-3.16 10.8-1.98 8.5-2.03zm0 0"/></symbol><symbol overflow="visible" id="d4c089b0T"><path d="M6.4-21.19l-2.71.36c.4 4.81.45 6.92.45 8.67V10.8h3.24V-.94A10.17 10.17 0 0013.09.67c7.11 0 10.58-6.1 10.58-11.87 0-5.94-3.64-10.36-9.05-10.36-3.23 0-5.53 1.5-7.6 3.56zm7.72 2.42c4.02 0 6.22 3.43 6.22 8.29 0 2.87-.8 5.53-2.65 7.01-1.27 1-2.75 1.4-4.74 1.4-2.06 0-3.76-.4-5.57-1.45V-15.7c2.17-1.8 4.06-3.07 6.75-3.07zm0 0"/></symbol><symbol overflow="visible" id="d4c089b0V"><path d="M2.6-11.7C2.6-4.77 6.54.55 14.32.55c4.27 0 6.97-.9 9.5-2.17L22.91-4c-2.11.9-4.36 1.6-7.97 1.6-6.16 0-8.9-4.04-8.9-9.66 0-4.72 1.74-10.13 5.62-13.5a11.05 11.05 0 017.01-2.2c2.52 0 4.45.5 6.8 1.84l1.44-2.35a13.05 13.05 0 00-8-2.42C7.33-30.69 2.6-19.62 2.6-11.7zm0 0"/></symbol><symbol overflow="visible" id="d4c089b0W"><path d="M8.06-21.02l-3.25.14L2.06 0h3.25l1.22-9.22h2.92c3.6 0 3.64 1.49 6.75 9.22h3.43c-.24-.58-.65-1.53-1.05-2.66-1.9-4.59-2.64-6.92-4.63-7.68 2.47-.77 3.43-3.11 5.94-8.02.58-1.12.98-1.98 1.3-2.56H17.8c-3.64 7.6-4.12 9.22-7.28 9.22H6.84zm0 0"/></symbol><symbol overflow="visible" id="d4c089b0X"><path d="M1.98-8.33c0 5.46 2.93 9 8.29 9 6.7 0 11.46-6.48 11.46-13.19 0-5.17-2.7-9.07-8.23-9.07-6.84 0-11.52 6.7-11.52 13.26zm16.43-4.1c0 4.1-1.72 7.66-4.14 9.41-.99.55-2.25.91-3.57.91-3.54 0-5.43-2.7-5.43-6.27 0-3.9 1.67-7.68 4.23-9.53a7 7 0 013.5-.9c3.88 0 5.4 2.75 5.4 6.39zm0 0"/></symbol><symbol overflow="visible" id="d4c089b0Y"><path d="M6.6-12.23C5.09-7.93 4-4.45 2.26-3.02c-.72.5-1.7.63-2.83.63L-.98.27a5.74 5.74 0 005.27-.84C7.1-2.67 8.37-7.67 10.02-12.2c.86-2.53 1.77-4.6 2.92-5.62.77-.6 1.72-.9 2.85-.9.98 0 2.1.21 2.39.3L15.75 0h3.23l2.75-20.8a23.7 23.7 0 00-5.53-.67c-6.34 0-7.78 4.38-9.6 9.24zm0 0"/></symbol><symbol overflow="visible" id="d4c089b0Z"><path d="M1.94-7.16C1.94-2.83 3.52.63 7.33.63c2.98 0 6.03-2.11 8.37-4.22l.2 3.78 2.68-.33c.19-3.9.36-5.67.55-7.11l1.7-12.06v-.08c-1.97-1.27-4.05-2.2-6.66-2.2-7.06 0-12.23 6.39-12.23 14.43zm3.28-.45c0-4.9 2.16-9.12 5.45-10.7a8.71 8.71 0 012.78-.46c1.27 0 2.66.27 3.97.82L15.7-6.35c-1.98 1.76-5.07 3.96-7.6 4.05-1.97-.1-2.88-2.25-2.88-5.3zm0 0"/></symbol><symbol overflow="visible" id="d4c089b0aa"><path d="M3.88 10.8L5.36-.14c1.12.5 2.33.77 3.78.77 7.06 0 12.14-6.44 12.14-14.4 0-4.32-1.6-7.82-5.72-7.82-2.78 0-5.75 1.92-8.26 4.21l-.1-3.73-2.8.31a99.67 99.67 0 01-.48 7.44L.67 10.8zm11.1-29.52c2.11.14 2.97 2.34 2.97 5.36 0 4.9-2.1 9.08-5.36 10.66-.71.26-1.8.5-2.78.5a9.78 9.78 0 01-4.04-.9L7.3-14.68c2.1-1.85 5.12-3.96 7.68-4.05zm0 0"/></symbol><symbol overflow="visible" id="d4c089b0ab"><path d="M2.66-14.48C2.66-6.12 7.56.55 17.55.55c3.73 0 6.93-.82 9.86-2.3l-1.04-2.94A20.6 20.6 0 0118-2.83C9.58-2.83 6.8-8.78 6.8-14.8c0-3.86 1.12-7.64 4.04-10.2 1.75-1.58 4.1-2.26 6.9-2.26 3.06 0 5.53.72 7.95 1.97l1.4-3.01a18.01 18.01 0 00-9.18-2.38c-10.4 0-15.25 8-15.25 16.2zm0 0"/></symbol><symbol overflow="visible" id="d4c089b0ac"><path d="M7.78-21.06l-3.86.1V0h3.86v-9.05h4.6c3.46 0 3.51 1.58 6.7 9.05h4.1c-.18-.36-.77-1.67-1.09-2.44-2.46-5.62-3.28-7.54-5.43-8.1 2.1-.93 2.96-3.18 4.53-7.65.54-1.48.76-2.25 1-2.83h-4c-2.25 7.3-2.4 9-6.03 9H7.78zm0 0"/></symbol><symbol overflow="visible" id="d4c089b0ad"><path d="M2.52-10.03C2.52-3.6 6.53.67 12.73.67c7.38 0 10.94-5.94 10.94-11.65 0-6.35-4-10.7-10.17-10.7-7.38 0-10.98 5.98-10.98 11.65zm17.15-.31c0 2.96-.86 4.9-2.08 6.1a5.86 5.86 0 01-4.4 1.68c-4.33 0-6.66-3.28-6.66-8.06 0-3.1.9-5.08 2.2-6.26a6.12 6.12 0 014.32-1.53c4.32 0 6.62 3.29 6.62 8.07zm0 0"/></symbol><symbol overflow="visible" id="d4c089b0ae"><path d="M21.1-21.02H7.53l-.5 5.77C6.25-6.35 4.64-2.92.67-2.65V.4C1.12.5 1.7.55 2.34.55A5.6 5.6 0 006.2-.85c3.07-2.62 4.14-8.56 4.55-14.18l.23-2.92h6.3V0h3.83zm0 0"/></symbol><symbol overflow="visible" id="d4c089b0af"><path d="M4.95-9.81A6.12 6.12 0 002.06-4.7C2.06-1.53 4.2.55 8.02.55c3.01 0 5.84-1.27 8.45-3.38l.67 3.05 3.25-.44c-.36-4.83-.45-6.8-.45-8.6v-4c0-6.3-2.44-8.74-7.35-8.74-3.54 0-6.92 1.36-9.53 3.42l1.4 2.48c2.43-1.57 5.09-2.56 7.42-2.56 2.89 0 4.18 1.4 4.23 6.06-5.77.41-9.17 1.13-11.16 2.35zm.9 4.69a3.1 3.1 0 011.4-2.7c1.3-.82 3.86-1.32 8.86-1.68v4.06c-2.61 1.97-5.27 3-7.38 3-1.8 0-2.89-.89-2.89-2.69zm0 0"/></symbol><symbol overflow="visible" id="d4c089b0ag"><path d="M6.8-21.38l-3.24.46c.36 4.98.44 7.1.44 8.95V10.8h3.88V-.9A9.6 9.6 0 0013.5.66c6.9 0 10.67-6.08 10.67-12.06-.05-5.94-3.83-10.3-9.33-10.3-3.01 0-5.3 1.35-7.42 3.42zm7.47 2.97c3.82 0 5.89 3.2 5.89 7.93 0 2.7-.77 5.26-2.47 6.6-1.17.91-2.57 1.32-4.46 1.32-1.93 0-3.65-.4-5.36-1.4V-15.6c2.11-1.67 3.96-2.8 6.4-2.8zm0 0"/></symbol><symbol overflow="visible" id="d4c089b0aj"><path d="M2.52-11.75C2.52-4.77 6.56.55 14.4.55c4.3 0 7.01-.9 9.4-2.13l-.95-2.78a19.43 19.43 0 01-7.73 1.49c-5.82 0-8.57-3.83-8.57-9.32 0-4.9 1.9-10.04 5.46-13.1a11.24 11.24 0 016.7-1.98c2.47 0 4.36.46 6.66 1.75l1.62-2.8c-2.52-1.65-5-2.37-8.06-2.37-11.69 0-16.42 11.02-16.42 18.94zm0 0"/></symbol><symbol overflow="visible" id="d4c089b0ak"><path d="M8.6-21.16l-3.88.1L1.94 0H5.8l1.16-9.1h2.75c3.37 0 3.42 1.37 6.34 9.1h4.1c-.22-.63-.63-1.67-1.04-2.83-1.75-4.47-2.51-6.75-4.5-7.56 2.47-.72 3.38-2.97 5.9-8.02.59-1.17 1-2.06 1.26-2.7h-4c-3.42 7.52-3.83 9.14-6.98 9.14H7.37zm0 0"/></symbol><symbol overflow="visible" id="d4c089b0al"><path d="M1.9-8.42c0 5.54 2.96 9.1 8.41 9.1 7.06 0 11.74-6.66 11.74-13.27 0-5.32-2.74-9.2-8.4-9.2-7.12 0-11.76 6.9-11.76 13.37zm16.24-4.14c0 3.92-1.62 7.48-3.92 9.19-.9.45-2.11.76-3.33.76-3.23 0-5.08-2.47-5.08-5.81 0-3.69 1.52-7.47 3.96-9.27a7.21 7.21 0 013.28-.81c3.64 0 5.1 2.48 5.1 5.94zm0 0"/></symbol><symbol overflow="visible" id="d4c089b0am"><path d="M6.53-12.38C5-8.13 3.95-4.9 2.43-3.55c-.73.5-1.8.64-2.98.64L-.98.22c.3.1 1.03.33 2.01.33C2.61.55 3.95.09 4.95-.72c2.66-2.1 3.9-6.84 5.58-11.47.86-2.44 1.66-4.37 2.75-5.36a4.2 4.2 0 012.69-.8c.9 0 1.98.13 2.25.2L15.84 0h3.83l2.74-20.88c-1.49-.4-3.38-.76-5.94-.76-6.7 0-8.14 4.4-9.94 9.27zm0 0"/></symbol><symbol overflow="visible" id="d4c089b0an"><path d="M1.8-7.16C1.8-2.8 3.42.58 7.38.58c2.89 0 6.03-1.97 8.32-4l.24 3.64 3.23-.4c.17-4.1.36-5.95.53-7.38l1.68-11.92v-.1c-2.07-1.25-4.24-2.2-6.97-2.2C7.06-21.78 1.8-15.4 1.8-7.16zm3.97-.57c0-4.6 1.84-8.64 4.93-10.22a8.44 8.44 0 012.8-.46c1.17 0 2.47.22 3.78.68L15.7-6.53c-1.89 1.58-4.9 3.56-7.37 3.7-1.8-.19-2.56-2.03-2.56-4.9zm0 0"/></symbol><symbol overflow="visible" id="d4c089b0ao"><path d="M4.4 10.8L5.85.05C6.9.4 8.02.58 9.31.58c7.35 0 12.52-6.4 12.52-14.53 0-4.36-1.63-7.83-5.86-7.83-2.78 0-5.7 1.84-8.24 4.05l-.17-3.55-3.25.36c-.22 4.36-.36 6.2-.58 7.78L.58 10.8zm10.85-29.11c1.84.12 2.66 2.06 2.66 5 0 4.53-1.85 8.5-4.91 10.08-.72.26-1.75.48-2.83.48-1.22 0-2.56-.27-3.87-.77l1.48-11.1c2.08-1.76 4.95-3.57 7.47-3.7zm0 0"/></symbol><symbol overflow="visible" id="d4c089b0ap"><path d="M2.52-14.44C2.52-6.04 7.6.55 17.55.55c3.6 0 7.01-.82 9.95-2.3l-1.22-3.42a20.88 20.88 0 01-8.19 1.75c-8.15 0-10.76-5.72-10.76-11.35 0-3.78 1.12-7.42 3.92-9.84 1.7-1.48 3.95-2.12 6.53-2.12 3.02 0 5.53.71 7.83 1.93l1.6-3.54a19 19 0 00-9.26-2.35c-10.53 0-15.43 8.05-15.43 16.25zm0 0"/></symbol><symbol overflow="visible" id="d4c089b0aq"><path d="M8.33-21.19l-4.55.08V0h4.55v-8.86h4.36c3.25 0 3.28 1.34 6.34 8.86h4.81L22.7-2.7c-2.3-5.49-3.2-7.28-5.19-7.88 2.03-.98 2.94-3.19 4.45-7.69.55-1.48.77-2.3 1-2.89h-4.73c-2.11 7.3-2.2 8.83-5.63 8.83H8.33zm0 0"/></symbol><symbol overflow="visible" id="d4c089b0ar"><path d="M2.4-9.94C2.4-3.52 6.52.67 12.72.67c7.43 0 11.25-5.84 11.25-11.83 0-6.43-4.09-10.67-10.3-10.67-7.43 0-11.29 5.94-11.29 11.9zm16.87-.5c0 2.97-.86 4.77-1.94 5.85a5.65 5.65 0 01-4.02 1.48c-4 0-6.2-3.02-6.2-7.6 0-3 .9-4.82 2.03-5.85.8-.86 2.2-1.44 4-1.44 4 0 6.13 3.02 6.13 7.56zm0 0"/></symbol><symbol overflow="visible" id="d4c089b0as"><path d="M21.78-21.16H7.42l-.48 5.77C6.17-6.44 4.64-3.52.72-3.16V.41c.5.09 1.17.14 1.94.14A6.3 6.3 0 006.84-.94c3.02-2.65 4.1-8.37 4.5-14.19l.18-2.46h5.76V0h4.5zm0 0"/></symbol><symbol overflow="visible" id="d4c089b0at"><path d="M5-10.03a6.18 6.18 0 00-3.06 5.31c0 3.1 2.1 5.27 6.08 5.27 2.96 0 5.75-1.22 8.28-3.25l.72 2.97 3.8-.54C20.48-5.22 20.4-7.2 20.4-9v-3.92c0-6.35-2.58-8.77-7.7-8.77-3.69 0-7.11 1.35-9.72 3.47l1.58 2.88c2.47-1.58 4.95-2.47 7.25-2.47 2.73 0 4 1.3 4.04 5.48-5.67.4-8.95 1.13-10.84 2.3zm1.4 4.72c0-1.3.57-2.07 1.29-2.52C8.86-8.5 11.2-9 15.84-9.27v3.64c-2.48 1.8-4.95 2.7-6.84 2.7-1.7 0-2.6-.76-2.6-2.38zm0 0"/></symbol><symbol overflow="visible" id="d4c089b0au"><path d="M7.25-21.56l-3.83.5c.36 5.22.46 7.37.46 9.23V10.8h4.54V-.86A9.36 9.36 0 0013.91.67c6.6 0 10.75-6.08 10.75-12.23-.05-5.94-3.91-10.27-9.54-10.27-2.84 0-5.14 1.17-7.24 3.25zm7.1 3.56c3.7 0 5.59 2.92 5.59 7.47 0 2.56-.67 4.95-2.2 6.22a6.61 6.61 0 01-4.2 1.25 9.6 9.6 0 01-5.12-1.4v-11.07c2.02-1.49 3.81-2.47 5.94-2.47zm0 0"/></symbol><symbol overflow="visible" id="d4c089b0ax"><path d="M2.4-11.8C2.4-4.72 6.55.55 14.47.55c4.38 0 7.11-.96 9.36-2.08l-1.07-3.24c-1.7.68-4 1.4-7.47 1.4-5.4 0-8.2-3.65-8.2-8.96 0-5.17 2.12-9.98 5.28-12.73a11.7 11.7 0 016.39-1.72c2.39 0 4.28.45 6.53 1.72l1.8-3.25a13.86 13.86 0 00-8.16-2.38C7.1-30.69 2.39-19.7 2.39-11.79zm0 0"/></symbol><symbol overflow="visible" id="d4c089b0ay"><path d="M9.14-21.33l-4.5.14L1.84 0h4.5l1.18-8.9h2.51c3.16 0 3.11 1.21 5.94 8.9h4.78c-.28-.63-.64-1.75-1.08-3.02-1.62-4.36-2.34-6.6-4.28-7.42 2.42-.67 3.33-2.84 5.77-7.97.57-1.3 1.03-2.25 1.3-2.82h-4.68c-3.2 7.42-3.47 8.95-6.67 8.95H7.97zm0 0"/></symbol><symbol overflow="visible" id="d4c089b0az"><path d="M1.8-8.55C1.8-2.83 4.8.67 10.4.67c7.41 0 12-6.87 12-13.4 0-5.46-2.77-9.2-8.59-9.2-7.47 0-12.01 7-12.01 13.38zm16.01-4.1c0 3.65-1.48 7.24-3.6 8.87-.9.4-2.02.62-3.15.62-2.87 0-4.67-2.28-4.67-5.3 0-3.5 1.4-7.24 3.6-9 .85-.4 1.93-.63 3.15-.63 3.33 0 4.67 2.15 4.67 5.45zm0 0"/></symbol><symbol overflow="visible" id="d4c089b0aA"><path d="M6.44-12.56C4.86-8.42 3.92-5.44 2.66-4.1c-.72.5-1.9.57-3.16.57l-.53 3.7C-.67.28.22.56 1.34.56c1.77 0 3.3-.5 4.33-1.46C8.1-3 9.36-7.42 11.03-12.19c.85-2.3 1.66-4.14 2.56-5.04a4.08 4.08 0 012.57-.77c.8 0 1.84.14 2.1.22L15.95 0h4.5l2.73-21.02c-1.7-.45-3.64-.76-6.34-.76-7.16 0-8.6 4.36-10.4 9.22zm0 0"/></symbol><symbol overflow="visible" id="d4c089b0aB"><path d="M1.7-7.16C1.7-2.7 3.33.58 7.47.58c2.75 0 5.94-1.92 8.23-3.81l.27 3.5 3.78-.54c.19-4.28.45-6.12.64-7.65l1.53-11.78.03-.05c-2.2-1.27-4.45-2.17-7.28-2.17-7.6 0-12.97 6.36-12.97 14.76zm4.6-.76c0-4.24 1.53-8.05 4.4-9.67a10 10 0 012.9-.46c1.03 0 2.3.2 3.54.55L15.66-6.7c-1.75 1.39-4.68 3.1-7.11 3.23-1.53-.17-2.25-1.7-2.25-4.45zm0 0"/></symbol><symbol overflow="visible" id="d4c089b0aC"><path d="M5 10.8L6.4.19c.93.26 1.97.39 3.15.39 7.64 0 12.9-6.42 12.9-14.66 0-4.47-1.65-7.84-6.03-7.84-2.78 0-5.67 1.67-8.19 3.83l-.26-3.38-3.74.45a91.2 91.2 0 01-.64 8.14L.5 10.8zm10.56-28.7c1.58.17 2.3 1.84 2.3 4.59 0 4.22-1.53 7.9-4.4 9.48-.68.27-1.76.5-2.88.5-1.08 0-2.4-.19-3.64-.6l1.39-10.7c1.98-1.62 4.76-3.1 7.23-3.28zm0 0"/></symbol><symbol overflow="visible" id="d4c089b0aD"><path d="M2.4-14.4C2.4-5.9 7.65.54 17.54.54c3.51 0 7.06-.77 10-2.25l-1.36-4.02c-2.35 1-5.17 1.67-8 1.67-7.85 0-10.17-5.5-10.17-10.72 0-3.59 1.07-7.15 3.68-9.4 1.66-1.4 3.78-1.92 6.08-1.92 3.02 0 5.58.71 7.74 1.84l1.84-4.19A20.37 20.37 0 0018-30.69c-10.67 0-15.6 8.05-15.6 16.28zm0 0"/></symbol><symbol overflow="visible" id="d4c089b0aE"><path d="M8.95-21.38l-5.36.1V0h5.36v-8.69h4.1c3.01 0 2.97 1.13 5.98 8.69h5.63c-.18-.4-.94-2.16-1.3-3.06-2.17-5.22-3.06-6.97-4.86-7.61 1.94-.99 2.83-3.19 4.36-7.69.5-1.48.77-2.34.98-2.97h-5.53c-1.98 7.28-2.01 8.69-5.22 8.69H8.95zm0 0"/></symbol><symbol overflow="visible" id="d4c089b0aF"><path d="M2.25-9.9C2.25-3.38 6.53.66 12.73.66c7.52 0 11.61-5.75 11.61-12.06 0-6.47-4.23-10.61-10.43-10.61C6.44-22 2.25-16.1 2.25-9.9zm16.56-.58c0 2.92-.86 4.5-1.8 5.43a5.1 5.1 0 01-3.6 1.32c-3.6 0-5.63-2.7-5.63-7.07 0-2.97.9-4.54 1.84-5.45a5 5 0 013.66-1.3c3.6 0 5.53 2.74 5.53 7.07zm0 0"/></symbol><symbol overflow="visible" id="d4c089b0aG"><path d="M22.55-21.33H7.33l-.49 5.85C6.08-6.56 4.7-4.23.77-3.78V.36a9.9 9.9 0 002.25.19c1.84 0 3.32-.6 4.5-1.58 3.06-2.66 4.09-8.24 4.5-14.17l.14-1.99h5.12V0h5.27zm0 0"/></symbol><symbol overflow="visible" id="d4c089b0aH"><path d="M5-10.34a6.4 6.4 0 00-3.16 5.53c0 3.1 2.08 5.36 6.22 5.36 2.92 0 5.58-1.13 8.05-3.11L16.83.3l4.5-.62c-.36-5.1-.45-7.11-.45-8.9V-13c0-6.4-2.7-8.88-8.1-8.88-3.87 0-7.34 1.36-9.9 3.52l1.8 3.38c2.43-1.54 4.82-2.35 6.98-2.35 2.6 0 3.78 1.13 3.9 4.77-5.58.4-8.76 1.12-10.56 2.22zm2.02 4.8c0-1.16.5-1.83 1.17-2.24 1.03-.6 3.1-1.03 7.37-1.27v3.2c-2.37 1.62-4.62 2.38-6.3 2.38-1.53 0-2.24-.67-2.24-2.06zm0 0"/></symbol><symbol overflow="visible" id="d4c089b0aI"><path d="M7.73-21.73l-4.5.57c.36 5.41.46 7.66.46 9.5V10.8h5.36V-.77a9.16 9.16 0 005.3 1.44c6.35 0 10.9-6.08 10.9-12.47-.05-5.93-4.1-10.2-9.86-10.2-2.6 0-4.86 1.08-6.97 3.1zm6.75 4.18c3.47 0 5.22 2.66 5.22 6.97 0 2.44-.62 4.64-1.97 5.72a6.12 6.12 0 01-3.87 1.17A8.96 8.96 0 019.05-5v-10.4c1.89-1.33 3.68-2.15 5.43-2.15zm0 0"/></symbol><symbol overflow="visible" id="d4c089b0aM"><path d="M2.25-11.88C2.25-4.71 6.61.55 14.63.55c4.4 0 7.15-.96 9.21-2.03L22.7-5.22C21.19-4.64 18.9-4 15.53-4c-4.95 0-7.8-3.33-7.8-8.47 0-5.44 2.35-9.94 5.1-12.28 1.75-.94 3.73-1.4 5.98-1.4 2.3 0 4.14.42 6.35 1.59l2.03-3.75a13.95 13.95 0 00-8.25-2.38c-12 0-16.69 10.9-16.69 18.82zm0 0"/></symbol><symbol overflow="visible" id="d4c089b0aN"><path d="M9.81-21.52l-5.26.14L1.7 0h5.27l1.17-8.73h2.25c2.9 0 2.75 1.07 5.45 8.73h5.54L20.3-3.23c-1.44-4.24-2.11-6.4-4.05-7.2 2.42-.68 3.23-2.76 5.63-8.02a46.7 46.7 0 001.3-2.97h-5.45c-2.89 7.3-3.06 8.83-6.3 8.83H8.65zm0 0"/></symbol><symbol overflow="visible" id="d4c089b0aO"><path d="M1.67-8.64c0 5.84 3.1 9.31 8.77 9.31C18.3.67 22.8-6.48 22.8-12.87c0-5.58-2.87-9.22-8.76-9.22C6.12-22.1 1.67-15 1.67-8.64zm15.78-4.14c0 3.37-1.34 6.97-3.28 8.55-.81.3-1.84.5-2.87.5-2.52 0-4.28-2.08-4.28-4.82 0-3.25 1.26-6.98 3.3-8.64.74-.31 1.79-.5 2.87-.5 3.01 0 4.26 1.8 4.26 4.9zm0 0"/></symbol><symbol overflow="visible" id="d4c089b0aP"><path d="M6.3-12.73C4.77-8.7 3.83-6.03 2.92-4.77c-.72.54-2.06.58-3.37.58L-1.08.1c.4.13 1.49.46 2.83.46C3.69.55 5.41 0 6.53-1.08c2.2-2.15 3.38-6.22 5.13-11.1.76-2.23 1.57-3.93 2.3-4.74.71-.5 1.52-.67 2.41-.67.7 0 1.72.09 1.94.17L16.01 0h5.27l2.8-21.16c-1.99-.48-4.02-.8-6.9-.8-7.6 0-9.04 4.37-10.88 9.23zm0 0"/></symbol><symbol overflow="visible" id="d4c089b0aQ"><path d="M1.58-7.16c0 4.5 1.65 7.7 5.94 7.7 2.7 0 5.89-1.8 8.18-3.6L16.06.3l4.38-.62c.22-4.5.48-6.44.67-8.02l1.48-11.65a15.58 15.58 0 00-7.65-2.11c-7.92 0-13.36 6.34-13.36 14.93zm5.36-.98c0-3.83 1.12-7.34 3.81-9a9.25 9.25 0 012.9-.45c.93 0 2.1.14 3.32.4L15.6-6.97C14-5.77 11.2-4.3 8.8-4.14c-1.25-.22-1.87-1.44-1.87-4zm0 0"/></symbol><symbol overflow="visible" id="d4c089b0aR"><path d="M5.63 10.8L7.01.27c.86.18 1.76.28 2.8.28 7.96 0 13.3-6.4 13.3-14.82 0-4.5-1.65-7.82-6.2-7.82-2.75 0-5.62 1.53-8.14 3.59l-.33-3.19-4.3.53c-.28 4.79-.5 6.8-.73 8.57L.36 10.8zm10.26-28.25c1.3.26 1.9 1.56 1.9 4.17 0 3.78-1.18 7.2-3.84 8.83a8.3 8.3 0 01-2.89.5c-1.03 0-2.2-.14-3.4-.5l1.3-10.13a13.9 13.9 0 016.93-2.87zm0 0"/></symbol><symbol overflow="visible" id="d4c089b0aS"><path d="M2.1-14.44C2.1-5.77 7.6.55 17.39.55c3.78 0 7.28-.77 10.25-2.22L26.09-6.3c-2.25.9-4.93 1.49-7.54 1.49C11.3-4.81 9-9.71 9-14.77c0-3.37.98-6.65 3.33-8.71 1.53-1.32 3.51-1.85 5.81-1.85 2.78 0 5.17.63 7.28 1.61l2.16-4.67a19.87 19.87 0 00-9.53-2.3C7.37-30.69 2.1-22.86 2.1-14.44zm0 0"/></symbol><symbol overflow="visible" id="d4c089b0aT"><path d="M9.81-21.64l-6.58.08V0h6.58v-8.55h3.42c2.93 0 2.88 1.22 5.63 8.55h6.75c-.19-.45-.9-2.3-1.27-3.38-2.03-5.12-2.96-6.89-4.9-7.46 1.98-.99 2.92-3.2 4.4-7.66l1-3.1h-6.7c-1.81 6.98-1.81 8.5-4.9 8.5H9.8zm0 0"/></symbol><symbol overflow="visible" id="d4c089b0aU"><path d="M1.98-10.03C1.98-3.6 6.3.67 12.95.67c7.88 0 12.16-5.58 12.16-12.1 0-6.35-4.23-10.85-10.94-10.85-7.83 0-12.19 5.81-12.19 12.25zm16.38-.5c0 2.7-.72 4.23-1.58 5.12-.58.7-1.66 1.22-3.14 1.22-3.16 0-4.9-2.56-4.9-6.75 0-2.7.76-4.36 1.57-5.22.63-.71 1.7-1.21 3.19-1.21 3.16 0 4.86 2.75 4.86 6.84zm0 0"/></symbol><symbol overflow="visible" id="d4c089b0aV"><path d="M23.84-21.6H7.06l-.5 5.94C5.9-7.42 4.7-5.05.81-4.69v5c.63.14 1.63.24 2.75.24 2.11 0 3.74-.7 4.99-1.86 2.89-2.64 3.82-8.05 4.18-14.08l.1-1.4h4.54V0h6.47zm0 0"/></symbol><symbol overflow="visible" id="d4c089b0aW"><path d="M4.6-10.4A6.3 6.3 0 001.62-5C1.63-1.67 3.88.55 8.09.55c2.97 0 5.63-1.22 7.97-3.25L17.1.3l5.22-.72c-.31-5.21-.43-7.32-.43-9.17v-3.56c0-6.34-2.9-9-8.79-9-4 0-7.78 1.31-10.43 3.37l1.84 3.88c2.4-1.36 4.86-2.17 7.02-2.17 2.56 0 3.68 1.04 3.82 4.28-5.48.4-8.8 1.17-10.75 2.39zm3.18 4.46c0-1.03.4-1.67 1.03-2.08.9-.53 2.8-.93 6.53-1.12v3.2c-2.03 1.35-3.95 2.02-5.4 2.02-1.49 0-2.16-.72-2.16-2.02zm0 0"/></symbol><symbol overflow="visible" id="d4c089b0aX"><path d="M8.14-22l-5.27.67c.36 5.67.46 8.02.46 9.94v22.1h6.6V-.82a8.6 8.6 0 005.2 1.48c6.06 0 10.84-6.03 10.84-12.42-.05-6.16-4.1-10.53-9.86-10.53-2.7 0-4.95 1.12-7.02 3.25zm6.53 4.72c3.02 0 4.55 2.47 4.55 6.58 0 2.28-.6 4.36-1.77 5.39-.89.67-1.89 1.03-3.37 1.03-1.4 0-2.78-.27-4.14-1.03v-10.17c1.67-1.13 3.2-1.8 4.73-1.8zm0 0"/></symbol><symbol overflow="visible" id="d4c089b0aZ"><path d="M1.98-11.83c0 7.28 4.5 12.4 12.5 12.4 4.55 0 7.52-1.02 9.5-2.05l-1.21-4.33c-1.3.5-3.74 1.1-6.75 1.1-4.77 0-7.29-3.02-7.29-7.93 0-5.05 2.2-9.36 4.68-11.44 1.57-.86 3.51-1.3 5.62-1.3 2.25 0 4.05.41 6.17 1.49l2.2-4.42c-2.43-1.61-5-2.38-8.42-2.38-12.23 0-17 10.75-17 18.86zm0 0"/></symbol><symbol overflow="visible" id="d4c089b0ba"><path d="M10.7-21.78l-6.42.19L1.4 0h6.44l1.12-8.6h1.94c2.61 0 2.47 1.22 4.86 8.6h6.66c-.22-.77-.58-1.9-1.04-3.33-1.43-4.45-2.06-6.6-4.09-7.37 2.42-.64 3.38-2.61 5.77-7.88a64.38 64.38 0 001.34-3.1h-6.6c-2.71 7.15-2.9 8.63-5.87 8.63H9.58zm0 0"/></symbol><symbol overflow="visible" id="d4c089b0bb"><path d="M1.44-8.69c0 5.67 3.15 9.36 9.19 9.36 8.76 0 13.04-7.51 13.04-13.72 0-5.5-2.97-9.3-9.23-9.3-8.77 0-13 7.5-13 13.66zm15.65-4.36c0 3.24-1.15 6.88-2.87 8.4a7.2 7.2 0 01-2.56.46c-2.25 0-3.64-1.98-3.64-4.4 0-3.11 1.12-6.85 2.82-8.47a7.38 7.38 0 012.57-.44c2.65 0 3.68 1.75 3.68 4.45zm0 0"/></symbol><symbol overflow="visible" id="d4c089b0bc"><path d="M6.03-12.92c-1.39 3.7-2.3 6.17-3.16 7.39-.67.48-2.06.58-3.28.58l-.72 5c.58.17 1.75.5 3.33.5C4.28.55 6.03 0 7.25-1.08c2.3-2.1 3.45-6.12 5.17-11.2.72-2.08 1.4-3.56 2.02-4.33a3.44 3.44 0 012.12-.58c.58 0 1.44.1 1.66.17L15.97 0h6.44l2.84-21.38c-2.17-.5-4.5-.85-7.56-.85-7.83 0-9.63 4.04-11.66 9.3zm0 0"/></symbol><symbol overflow="visible" id="d4c089b0bd"><path d="M1.34-7.16c0 4.6 1.77 7.74 6.08 7.74 2.8 0 5.86-1.8 8.19-3.77l.6 3.55 5.16-.77c.27-4.86.5-6.56.77-8.4l1.44-11.44a17.9 17.9 0 00-8.24-2.06c-8.32 0-14 6.15-14 15.15zm6.58-1.07c0-3.52 1.03-7.02 3.38-8.74a10.63 10.63 0 015.39-.12l-1.3 9.89A13.63 13.63 0 019.5-4.7C8.45-5 7.92-6.08 7.92-8.23zm0 0"/></symbol><symbol overflow="visible" id="d4c089b0be"><path d="M6.53 10.7L7.87.4c.68.1 1.35.15 2.07.15 8.37 0 14.04-6.17 14.04-15.03 0-4.55-1.7-7.88-6.3-7.88-2.7 0-5.57 1.56-8.13 3.78L8.9-22l-5.08.67c-.31 5.13-.55 7.2-.77 9.14L.05 10.71zm9.36-27.8c1.08.32 1.53 1.44 1.53 3.7 0 3.5-1.05 6.92-3.34 8.59-.58.22-1.75.4-2.78.4-.86 0-1.75-.09-2.75-.3l1.3-9.96a13.18 13.18 0 016.04-2.42zm0 0"/></symbol><symbol overflow="visible" id="d4c089b0bf"><path d="M1.63-14.53c0 9 5.93 15.08 15.43 15.08 4.22 0 7.69-.77 10.75-2.17l-1.89-5.7c-2.08.71-4.5 1.15-6.7 1.15-6.13 0-8.42-3.86-8.42-8.64 0-2.92.86-5.7 2.75-7.42 1.22-1.13 3.01-1.75 5.26-1.75 2.35 0 4.4.5 6.44 1.3l2.73-5.66a20.02 20.02 0 00-9.84-2.35c-10.72 0-16.52 7.38-16.52 16.16zm0 0"/></symbol><symbol overflow="visible" id="d4c089b0bg"><path d="M11.34-22.14L2.61-22V0h8.73v-8.28h2.16c2.8 0 2.83 1.34 5.05 8.28h8.86c-.2-.5-.82-2.6-1.27-3.95-1.75-5-2.78-6.72-5.03-7.25 2.2-.96 3.1-3.16 4.5-7.52.53-1.62.81-2.51 1.03-3.37h-8.83c-1.43 6.39-1.39 8.14-4.31 8.14h-2.16zm0 0"/></symbol><symbol overflow="visible" id="d4c089b0bh"><path d="M1.48-10.31C1.48-4.05 5.84.67 13.36.67c8.52 0 13.14-5.22 13.14-12.14 0-6.22-4.27-11.3-11.83-11.3-8.47 0-13.19 5.63-13.19 12.46zm16.11-.27c0 2.2-.5 3.69-1.17 4.55-.48.62-1.22.98-2.34.98-2.33 0-3.64-2.33-3.64-6.15 0-2.2.54-3.97 1.17-4.77.5-.69 1.22-1.05 2.34-1.05 2.35 0 3.64 2.66 3.64 6.44zm0 0"/></symbol><symbol overflow="visible" id="d4c089b0bi"><path d="M26.23-22.1H6.53l-.45 6.13C5.53-9 4.72-6.53.86-6.3V.22c.77.19 2.1.33 3.64.33 2.7 0 4.55-.82 5.9-2.35 2.55-2.7 3.37-7.78 3.65-13.86l.03-.4h3.42V0h8.73zm0 0"/></symbol><symbol overflow="visible" id="d4c089b0bj"><path d="M3.88-10.44A6.16 6.16 0 001.27-5.3C1.27-1.63 3.83.55 8.19.55c3.01 0 5.67-1.32 7.83-3.42L17.55.35l6.65-.94c-.36-5.5-.48-7.7-.43-9.69v-3.04c0-6.31-3.25-9.33-10.08-9.33-4.24 0-8.69 1.27-11.44 3.16l1.94 4.76c2.34-1.08 4.9-1.8 7.15-1.8 2.38 0 3.38.86 3.55 3.33-5.31.46-8.95 1.27-11.02 2.75zm5.34 3.69c0-.77.28-1.27.76-1.63.7-.48 2.13-.76 4.96-.89v3.14a7 7 0 01-3.78 1.36c-1.44 0-1.94-.76-1.94-1.98zm0 0"/></symbol><symbol overflow="visible" id="d4c089b0bk"><path d="M8.9-22.55l-6.65.9c.31 6.12.45 8.6.45 10.8v21.43h8.86V-.86A7.79 7.79 0 0016.52.62c5.67 0 10.7-5.84 10.7-12.32 0-6.52-4.05-11.07-9.8-11.07-2.89 0-5.14 1.2-7.08 3.38zm6.04 5.82c2.25 0 3.28 2.1 3.28 5.75 0 2.07-.36 3.87-1.25 4.8-.6.6-1.31.87-2.44.87a7.2 7.2 0 01-2.97-.63v-9.67a6.4 6.4 0 013.38-1.12zm0 0"/></symbol><symbol overflow="visible" id="d4c089b0bl"><path d="M1.53-11.8C1.53-4.23 6.17.63 14.22.63 19.08.63 22.4-.5 24.3-1.44L23-6.89a23.1 23.1 0 01-6.03.81c-4.45 0-6.49-2.42-6.49-6.92 0-4.33 1.99-8.19 3.96-9.86 1.36-.67 3.1-1.03 5-1.03 2.15 0 3.92.4 5.81 1.2l2.6-5.65c-2.33-1.54-5.13-2.35-8.82-2.35-12.55 0-17.5 10.49-17.5 18.9zm0 0"/></symbol><symbol overflow="visible" id="d4c089b0bm"><path d="M12.38-22.28l-8.65.23L.77 0H9.4l1.12-8.33h1.27c2.15 0 2.01 1.49 3.73 8.33h8.81c-.21-.9-.53-1.84-.98-3.56-1.36-4.81-1.94-6.92-4.23-7.55 2.46-.6 3.68-2.39 6.07-7.75a65.9 65.9 0 001.44-3.33h-8.78c-2.42 6.9-2.61 8.28-5.08 8.28H11.3zm0 0"/></symbol><symbol overflow="visible" id="d4c089b0bn"><path d="M.98-8.81c0 5.44 3.3 9.48 10 9.48 10.44 0 14.27-8.19 14.27-14.03 0-5.27-3.2-9.5-10-9.5C4.81-22.86.98-14.63.98-8.8zm15.49-4.74c0 2.97-.9 6.7-2.16 8.2a4.9 4.9 0 01-1.98.35c-1.7 0-2.56-1.75-2.56-3.64 0-2.92.9-6.66 2.1-8.14.5-.28 1.22-.4 1.94-.4 2.08 0 2.66 1.7 2.66 3.63zm0 0"/></symbol><symbol overflow="visible" id="d4c089b0bo"><path d="M5.53-13.23C4.36-10.27 3.6-8.02 2.8-6.97c-.64.49-2.08.63-3.16.63l-.9 6.3c.95.26 2.34.59 4.28.59C5.36.55 7.2 0 8.55-1.13c2.48-2.03 3.64-5.98 5.3-11.3.59-1.79 1.04-2.96 1.5-3.63.5-.27.95-.36 1.53-.36.4 0 .98.05 1.17.12L15.89 0h8.64l2.88-21.73a38.48 38.48 0 00-8.83-1.04c-8.27 0-10.7 3.46-13.05 9.54zm0 0"/></symbol><symbol overflow="visible" id="d4c089b0bp"><path d="M.94-7.16C.94-2.44 2.92.63 7.3.63c2.87 0 5.62-1.7 8.04-4.1L16.38.45l6.8-1c.35-5.58.5-6.78.8-9.26l1.44-10.94a23.51 23.51 0 00-9.26-2.02C7.02-22.77.94-16.87.94-7.16zm8.78-1.21c0-3.02.86-6.52 2.51-8.29.6-.12 1.63-.26 2.44-.26.5 0 .99.05 1.53.1l-1.17 9.16c-1.17.91-2.84 1.72-4.33 1.94-.62-.45-.98-1.22-.98-2.66zm0 0"/></symbol><symbol overflow="visible" id="d4c089b0bq"><path d="M8.19 10.48L9.5.55c.22 0 .48.03.77.03 9 0 15.34-5.8 15.34-15.47 0-4.69-1.9-7.97-6.48-7.97-2.66 0-5.49 1.63-8.15 4.05L9.77-22.6l-6.49 1c-.4 5.7-.62 7.9-.89 10.2L-.55 10.48zm7.65-26.9c.68.4.94 1.22.94 2.7 0 3.02-.84 6.47-2.51 8.19a10.2 10.2 0 01-4 .22l1.2-9.4a11.27 11.27 0 014.37-1.71zm0 0"/></symbol><symbol overflow="visible" id="d4c089b0br"><path d="M1.03-14.67C1.03-5.27 7.52.55 16.7.55c4.78 0 8.2-.77 11.3-2.08l-2.26-7.02c-1.89.53-4.04.86-5.7.86-4.95 0-7.16-2.65-7.16-7.12 0-2.42.63-4.63 2.02-6.02.95-.9 2.48-1.62 4.73-1.62 1.8 0 3.46.3 5.4.93l3.46-6.8c-2.42-1.43-5.89-2.37-10.26-2.37-10.75 0-17.19 6.85-17.19 16.02zm0 0"/></symbol><symbol overflow="visible" id="d4c089b0bs"><path d="M13.1-22.72l-11.2.17V0h11.2v-7.97h.76c2.56 0 2.7 1.49 4.33 7.97h11.2c-.19-.58-.72-2.92-1.22-4.6-1.36-4.8-2.6-6.5-5.22-7 2.47-.92 3.33-3.12 4.68-7.38.54-1.68.8-2.61 1.07-3.66H17.5c-1.08 5.67-.98 7.7-3.69 7.7h-.72zm0 0"/></symbol><symbol overflow="visible" id="d4c089b0bt"><path d="M.9-10.58C.9-4.55 5.32.67 13.82.67c9.24 0 14.27-4.86 14.27-12.19 0-6.03-4.31-11.8-12.83-11.8C6.03-23.31.91-17.9.91-10.57zm15.79-.04c0 1.67-.22 3.06-.67 3.82-.36.6-.72.82-1.4.82-1.43 0-2.24-2.08-2.24-5.49 0-1.67.26-3.6.67-4.33.3-.62.72-.86 1.39-.86 1.45 0 2.25 2.66 2.25 6.04zm0 0"/></symbol><symbol overflow="visible" id="d4c089b0bu"><path d="M28.9-22.64H5.93l-.4 6.31C5.16-10.8 4.71-8.19.9-8.14V.09c.98.27 2.65.46 4.67.46 3.33 0 5.48-1 6.94-2.9 2.1-2.65 2.73-7.06 3.01-12.9h2.16V0h11.2zm0 0"/></symbol><symbol overflow="visible" id="d4c089b0bv"><path d="M3.06-10.48a5.81 5.81 0 00-2.2 4.8C.86-1.57 3.73.56 8.28.56c3.11 0 5.67-1.4 7.66-3.57L18.09.41l8.2-1.22c-.32-5.8-.5-8.1-.46-10.25v-2.53c0-6.16-3.6-9.58-11.47-9.58-4.55 0-9.67 1.17-12.61 2.87l2.13 5.77c2.2-.72 4.9-1.4 7.18-1.4 2.22 0 3.06.63 3.3 2.24-5.1.5-9.1 1.36-11.3 3.2zm7.78 2.87c0-.48.1-.89.46-1.2.45-.38 1.34-.55 3.14-.6v3.16c-.63.31-1.25.48-1.88.48-1.36 0-1.72-.84-1.72-1.84zm0 0"/></symbol><symbol overflow="visible" id="d4c089b0bw"><path d="M9.72-23.13l-8.24 1.18c.32 6.56.5 9.26.5 11.68V10.4h11.38V-.8C14.63.09 16.1.58 18.09.58c5.13 0 10.61-5.7 10.61-12.24 0-6.89-4.04-11.65-9.76-11.65-3.1 0-5.3 1.26-7.14 3.51zm5.58 6.97c1.36 0 1.89 1.72 1.89 4.91 0 1.8-.22 3.33-.77 4.1-.31.5-.67.67-1.39.67-.5 0-1.08-.08-1.67-.27v-8.95a4.87 4.87 0 011.94-.46zm0 0"/></symbol><symbol overflow="visible" id="d4c089b0by"><path d="M.98-11.75C.98-3.87 5.84.67 13.95.67c5.18 0 8.9-1.22 10.66-2.06l-1.4-6.75c-.76.22-3.63.53-5.21.53-4.05 0-5.48-1.75-5.48-5.75 0-3.52 1.7-6.98 3.09-8.1 1.05-.54 2.66-.82 4.33-.82 1.98 0 3.68.4 5.36.95l3.1-7.01c-2.3-1.46-5.32-2.35-9.32-2.35C6.13-30.69.98-20.47.98-11.75zm0 0"/></symbol><symbol overflow="visible" id="d4c089b0bz"><path d="M14.27-22.81l-11.11.22L.09 0H11.2l1.08-8.02h.6c1.6 0 1.43 1.77 2.42 8.02h11.25c-.27-1.03-.49-1.84-.94-3.78-1.22-5.31-1.84-7.28-4.38-7.78 2.54-.46 4.02-2.13 6.44-7.61l1.53-3.55H18c-2.16 6.61-2.3 7.83-4.19 7.83h-.62zm0 0"/></symbol><symbol overflow="visible" id="d4c089b0bA"><path d="M.5-8.9C.5-3.84 3.95.66 11.34.66 23.72.67 27-8.33 27-13.72c0-5.05-3.42-9.69-10.9-9.69C3.84-23.4.5-14.36.5-8.9zm15.2-5.22c0 2.73-.53 6.46-1.26 7.95-.31.14-.8.28-1.3.28-1.22 0-1.34-1.58-1.34-2.8 0-2.7.62-6.44 1.25-7.83a2.7 2.7 0 011.26-.3c1.3 0 1.4 1.62 1.4 2.7zm0 0"/></symbol><symbol overflow="visible" id="d4c089b0bB"><path d="M4.95-13.6C4.1-11.4 3.42-9.5 2.7-8.54c-.6.4-2.12.63-3.01.63L-1.34-.14c1.3.36 2.92.69 5.26.69C6.56.55 8.5 0 10.03-1.13c2.66-1.98 3.83-5.84 5.45-11.46.46-1.54.68-2.25.94-2.85.24-.1.45-.17.77-.17.26 0 .54.05.67.13L15.75 0h11.16l2.96-22.19a46.03 46.03 0 00-10.25-1.17c-8.78 0-11.96 2.8-14.67 9.77zm0 0"/></symbol><symbol overflow="visible" id="d4c089b0bC"><path d="M.45-7.16c0 4.91 2.2 7.83 6.7 7.83 2.97 0 5.18-1.48 7.79-4.4l1.72 4.3 8.5-1.24c.45-6.4.5-7.06.93-10.17l1.41-10.44a29.28 29.28 0 00-10.48-1.99C7.02-23.27.45-17.69.45-7.16zM11.8-8.5c0-2.44.62-5.94 1.51-7.8.55-.07 1.53-.07 2.17-.07h.18L14.62-8.1c-.85.62-1.7.98-2.56 1.2a4.83 4.83 0 01-.26-1.61zm0 0"/></symbol><symbol overflow="visible" id="d4c089b0bD"><path d="M10.03 10.27L11.3.57C20.7.32 27.4-5 27.4-15.33c0-4.82-2.02-8.07-6.7-8.07-2.48 0-5.3 1.63-8.01 4.29l-1.94-4.15-8.1 1.32c-.54 6.39-.71 8.8-1.07 11.42l-2.75 20.8zm5.77-25.88c.17.44.26.94.26 1.56 0 2.49-.62 5.99-1.53 7.7-.4.15-1.7.18-2.3.18h-.04l1.12-8.55c.77-.4 1.72-.81 2.49-.89zm0 0"/></symbol></defs><use xlink:href="#d4c089b0a" x="39.39375" y="68.408"/><use xlink:href="#d4c089b0b" x="68.77875" y="68.408"/><use xlink:href="#d4c089b0c" x="91.68375" y="68.408"/><use xlink:href="#d4c089b0d" x="117.19875" y="68.408"/><use xlink:href="#d4c089b0e" x="140.41875" y="68.408"/><use xlink:href="#d4c089b0f" x="163.14375" y="68.408"/><g fill-opacity=".33"><use xlink:href="#d4c089b0g" x="67.29208" y="105.816"/><use xlink:href="#d4c089b0h" x="73.95908" y="105.816"/><use xlink:href="#d4c089b0i" x="80.62608" y="105.816"/><use xlink:href="#d4c089b0j" x="87.29308" y="105.816"/><use xlink:href="#d4c089b0k" x="93.96008" y="105.816"/><use xlink:href="#d4c089b0l" x="100.62708" y="105.816"/><use xlink:href="#d4c089b0m" x="107.29408" y="105.816"/><use xlink:href="#d4c089b0k" x="113.96108" y="105.816"/><use xlink:href="#d4c089b0m" x="120.62808" y="105.816"/><use xlink:href="#d4c089b0g" x="127.29508" y="105.816"/><use xlink:href="#d4c089b0n" x="133.96208" y="105.816"/><use xlink:href="#d4c089b0o" x="140.62908" y="105.816"/><use xlink:href="#d4c089b0p" x="147.29608" y="105.816"/><use xlink:href="#d4c089b0l" x="153.96308" y="105.816"/></g><use xlink:href="#d4c089b0q" x="266.42625" y="68.408"/><use xlink:href="#d4c089b0r" x="293.15625" y="68.408"/><use xlink:href="#d4c089b0s" x="314.44125" y="68.408"/><use xlink:href="#d4c089b0t" x="338.11125" y="68.408"/><use xlink:href="#d4c089b0u" x="360.83625" y="68.408"/><use xlink:href="#d4c089b0v" x="383.11125" y="68.408"/><g fill-opacity=".33"><use xlink:href="#d4c089b0g" x="266.04125" y="105.816"/><use xlink:href="#d4c089b0h" x="272.70825" y="105.816"/><use xlink:href="#d4c089b0i" x="279.37525" y="105.816"/><use xlink:href="#d4c089b0j" x="286.04225" y="105.816"/><use xlink:href="#d4c089b0k" x="292.70925" y="105.816"/><use xlink:href="#d4c089b0l" x="299.37625" y="105.816"/><use xlink:href="#d4c089b0m" x="306.04325" y="105.816"/><use xlink:href="#d4c089b0k" x="312.71025" y="105.816"/><use xlink:href="#d4c089b0m" x="319.37725" y="105.816"/><use xlink:href="#d4c089b0g" x="326.04425" y="105.816"/><use xlink:href="#d4c089b0n" x="332.71125" y="105.816"/><use xlink:href="#d4c089b0o" x="339.37825" y="105.816"/><use xlink:href="#d4c089b0p" x="346.04525" y="105.816"/><use xlink:href="#d4c089b0l" x="352.71225" y="105.816"/><use xlink:href="#d4c089b0g" x="359.37925" y="105.816"/><use xlink:href="#d4c089b0w" x="366.04625" y="105.816"/><use xlink:href="#d4c089b0j" x="372.71325" y="105.816"/><use xlink:href="#d4c089b0x" x="379.38025" y="105.816"/><use xlink:href="#d4c089b0y" x="386.04725" y="105.816"/><use xlink:href="#d4c089b0p" x="392.71425" y="105.816"/><use xlink:href="#d4c089b0z" x="399.38125" y="105.816"/></g><use xlink:href="#d4c089b0A" x="38.20125" y="178.556"/><use xlink:href="#d4c089b0B" x="67.54125" y="178.556"/><use xlink:href="#d4c089b0C" x="91.21125" y="178.556"/><use xlink:href="#d4c089b0D" x="116.95125" y="178.556"/><use xlink:href="#d4c089b0E" x="140.80125" y="178.556"/><use xlink:href="#d4c089b0F" x="163.88625" y="178.556"/><g fill-opacity=".33"><use xlink:href="#d4c089b0g" x="47.29208" y="215.964"/><use xlink:href="#d4c089b0h" x="53.95908" y="215.964"/><use xlink:href="#d4c089b0i" x="60.62608" y="215.964"/><use xlink:href="#d4c089b0j" x="67.29308" y="215.964"/><use xlink:href="#d4c089b0k" x="73.96008" y="215.964"/><use xlink:href="#d4c089b0l" x="80.62708" y="215.964"/><use xlink:href="#d4c089b0m" x="87.29408" y="215.964"/><use xlink:href="#d4c089b0k" x="93.96108" y="215.964"/><use xlink:href="#d4c089b0m" x="100.62808" y="215.964"/><use xlink:href="#d4c089b0g" x="107.29508" y="215.964"/><use xlink:href="#d4c089b0h" x="113.96208" y="215.964"/><use xlink:href="#d4c089b0i" x="120.62908" y="215.964"/><use xlink:href="#d4c089b0j" x="127.29608" y="215.964"/><use xlink:href="#d4c089b0G" x="133.96308" y="215.964"/><use xlink:href="#d4c089b0x" x="140.63008" y="215.964"/><use xlink:href="#d4c089b0y" x="147.29708" y="215.964"/><use xlink:href="#d4c089b0p" x="153.96408" y="215.964"/><use xlink:href="#d4c089b0H" x="160.63108" y="215.964"/><use xlink:href="#d4c089b0o" x="167.29808" y="215.964"/><use xlink:href="#d4c089b0j" x="173.96508" y="215.964"/></g><use xlink:href="#d4c089b0I" x="264.96375" y="178.556"/><use xlink:href="#d4c089b0J" x="291.64875" y="178.556"/><use xlink:href="#d4c089b0K" x="313.65375" y="178.556"/><use xlink:href="#d4c089b0L" x="337.59375" y="178.556"/><use xlink:href="#d4c089b0M" x="361.12875" y="178.556"/><use xlink:href="#d4c089b0N" x="383.98875" y="178.556"/><g fill-opacity=".33"><use xlink:href="#d4c089b0g" x="246.04125" y="215.964"/><use xlink:href="#d4c089b0h" x="252.70825" y="215.964"/><use xlink:href="#d4c089b0i" x="259.37525" y="215.964"/><use xlink:href="#d4c089b0j" x="266.04225" y="215.964"/><use xlink:href="#d4c089b0k" x="272.70925" y="215.964"/><use xlink:href="#d4c089b0l" x="279.37625" y="215.964"/><use xlink:href="#d4c089b0m" x="286.04325" y="215.964"/><use xlink:href="#d4c089b0k" x="292.71025" y="215.964"/><use xlink:href="#d4c089b0m" x="299.37725" y="215.964"/><use xlink:href="#d4c089b0g" x="306.04425" y="215.964"/><use xlink:href="#d4c089b0h" x="312.71125" y="215.964"/><use xlink:href="#d4c089b0i" x="319.37825" y="215.964"/><use xlink:href="#d4c089b0j" x="326.04525" y="215.964"/><use xlink:href="#d4c089b0G" x="332.71225" y="215.964"/><use xlink:href="#d4c089b0x" x="339.37925" y="215.964"/><use xlink:href="#d4c089b0y" x="346.04625" y="215.964"/><use xlink:href="#d4c089b0p" x="352.71325" y="215.964"/><use xlink:href="#d4c089b0H" x="359.38025" y="215.964"/><use xlink:href="#d4c089b0o" x="366.04725" y="215.964"/><use xlink:href="#d4c089b0j" x="372.71425" y="215.964"/><use xlink:href="#d4c089b0g" x="379.38125" y="215.964"/><use xlink:href="#d4c089b0w" x="386.04825" y="215.964"/><use xlink:href="#d4c089b0j" x="392.71525" y="215.964"/><use xlink:href="#d4c089b0x" x="399.38225" y="215.964"/><use xlink:href="#d4c089b0y" x="406.04925" y="215.964"/><use xlink:href="#d4c089b0p" x="412.71625" y="215.964"/><use xlink:href="#d4c089b0z" x="419.38325" y="215.964"/></g><use xlink:href="#d4c089b0O" x="36.96375" y="288.704"/><use xlink:href="#d4c089b0P" x="66.21375" y="288.704"/><use xlink:href="#d4c089b0Q" x="90.64875" y="288.704"/><use xlink:href="#d4c089b0R" x="116.65875" y="288.704"/><use xlink:href="#d4c089b0S" x="141.18375" y="288.704"/><use xlink:href="#d4c089b0T" x="164.62875" y="288.704"/><g fill-opacity=".33"><use xlink:href="#d4c089b0g" x="63.95875" y="326.112"/><use xlink:href="#d4c089b0h" x="70.62575" y="326.112"/><use xlink:href="#d4c089b0i" x="77.29275" y="326.112"/><use xlink:href="#d4c089b0j" x="83.95975" y="326.112"/><use xlink:href="#d4c089b0k" x="90.62675" y="326.112"/><use xlink:href="#d4c089b0l" x="97.29375" y="326.112"/><use xlink:href="#d4c089b0m" x="103.96075" y="326.112"/><use xlink:href="#d4c089b0k" x="110.62775" y="326.112"/><use xlink:href="#d4c089b0m" x="117.29475" y="326.112"/><use xlink:href="#d4c089b0g" x="123.96175" y="326.112"/><use xlink:href="#d4c089b0U" x="130.62875" y="326.112"/><use xlink:href="#d4c089b0p" x="137.29575" y="326.112"/><use xlink:href="#d4c089b0H" x="143.96275" y="326.112"/><use xlink:href="#d4c089b0o" x="150.62975" y="326.112"/><use xlink:href="#d4c089b0j" x="157.29675" y="326.112"/></g><use xlink:href="#d4c089b0V" x="263.54625" y="288.704"/><use xlink:href="#d4c089b0W" x="290.14125" y="288.704"/><use xlink:href="#d4c089b0X" x="312.82125" y="288.704"/><use xlink:href="#d4c089b0Y" x="337.07625" y="288.704"/><use xlink:href="#d4c089b0Z" x="361.37625" y="288.704"/><use xlink:href="#d4c089b0aa" x="384.82125" y="288.704"/><g fill-opacity=".33"><use xlink:href="#d4c089b0g" x="262.70792" y="326.112"/><use xlink:href="#d4c089b0h" x="269.37492" y="326.112"/><use xlink:href="#d4c089b0i" x="276.04192" y="326.112"/><use xlink:href="#d4c089b0j" x="282.70892" y="326.112"/><use xlink:href="#d4c089b0k" x="289.37592" y="326.112"/><use xlink:href="#d4c089b0l" x="296.04292" y="326.112"/><use xlink:href="#d4c089b0m" x="302.70992" y="326.112"/><use xlink:href="#d4c089b0k" x="309.37692" y="326.112"/><use xlink:href="#d4c089b0m" x="316.04392" y="326.112"/><use xlink:href="#d4c089b0g" x="322.71092" y="326.112"/><use xlink:href="#d4c089b0U" x="329.37792" y="326.112"/><use xlink:href="#d4c089b0p" x="336.04492" y="326.112"/><use xlink:href="#d4c089b0H" x="342.71192" y="326.112"/><use xlink:href="#d4c089b0o" x="349.37892" y="326.112"/><use xlink:href="#d4c089b0j" x="356.04592" y="326.112"/><use xlink:href="#d4c089b0g" x="362.71292" y="326.112"/><use xlink:href="#d4c089b0w" x="369.37992" y="326.112"/><use xlink:href="#d4c089b0j" x="376.04692" y="326.112"/><use xlink:href="#d4c089b0x" x="382.71392" y="326.112"/><use xlink:href="#d4c089b0y" x="389.38092" y="326.112"/><use xlink:href="#d4c089b0p" x="396.04792" y="326.112"/><use xlink:href="#d4c089b0z" x="402.71492" y="326.112"/></g><g><use xlink:href="#d4c089b0ab" x="36.01875" y="398.852"/><use xlink:href="#d4c089b0ac" x="65.22375" y="398.852"/><use xlink:href="#d4c089b0ad" x="90.24375" y="398.852"/><use xlink:href="#d4c089b0ae" x="116.43375" y="398.852"/><use xlink:href="#d4c089b0af" x="141.45375" y="398.852"/><use xlink:href="#d4c089b0ag" x="165.21375" y="398.852"/></g><g fill-opacity=".33"><use xlink:href="#d4c089b0g" x="57.29208" y="436.26"/><use xlink:href="#d4c089b0h" x="63.95908" y="436.26"/><use xlink:href="#d4c089b0i" x="70.62608" y="436.26"/><use xlink:href="#d4c089b0j" x="77.29308" y="436.26"/><use xlink:href="#d4c089b0k" x="83.96008" y="436.26"/><use xlink:href="#d4c089b0l" x="90.62708" y="436.26"/><use xlink:href="#d4c089b0m" x="97.29408" y="436.26"/><use xlink:href="#d4c089b0k" x="103.96108" y="436.26"/><use xlink:href="#d4c089b0m" x="110.62808" y="436.26"/><use xlink:href="#d4c089b0g" x="117.29508" y="436.26"/><use xlink:href="#d4c089b0ah" x="123.96208" y="436.26"/><use xlink:href="#d4c089b0k" x="130.62908" y="436.26"/><use xlink:href="#d4c089b0H" x="137.29608" y="436.26"/><use xlink:href="#d4c089b0ai" x="143.96308" y="436.26"/><use xlink:href="#d4c089b0y" x="150.63008" y="436.26"/><use xlink:href="#d4c089b0x" x="157.29708" y="436.26"/><use xlink:href="#d4c089b0G" x="163.96408" y="436.26"/></g><g><use xlink:href="#d4c089b0aj" x="262.37625" y="398.852"/><use xlink:href="#d4c089b0ak" x="288.92625" y="398.852"/><use xlink:href="#d4c089b0al" x="312.14625" y="398.852"/><use xlink:href="#d4c089b0am" x="336.62625" y="398.852"/><use xlink:href="#d4c089b0an" x="361.55625" y="398.852"/><use xlink:href="#d4c089b0ao" x="385.49625" y="398.852"/></g><g fill-opacity=".33"><use xlink:href="#d4c089b0g" x="282.70792" y="436.26"/><use xlink:href="#d4c089b0h" x="289.37492" y="436.26"/><use xlink:href="#d4c089b0i" x="296.04192" y="436.26"/><use xlink:href="#d4c089b0j" x="302.70892" y="436.26"/><use xlink:href="#d4c089b0k" x="309.37592" y="436.26"/><use xlink:href="#d4c089b0l" x="316.04292" y="436.26"/><use xlink:href="#d4c089b0m" x="322.70992" y="436.26"/><use xlink:href="#d4c089b0k" x="329.37692" y="436.26"/><use xlink:href="#d4c089b0m" x="336.04392" y="436.26"/><use xlink:href="#d4c089b0g" x="342.71092" y="436.26"/><use xlink:href="#d4c089b0w" x="349.37792" y="436.26"/><use xlink:href="#d4c089b0j" x="356.04492" y="436.26"/><use xlink:href="#d4c089b0x" x="362.71192" y="436.26"/><use xlink:href="#d4c089b0y" x="369.37892" y="436.26"/><use xlink:href="#d4c089b0p" x="376.04592" y="436.26"/><use xlink:href="#d4c089b0z" x="382.71292" y="436.26"/></g><g><use xlink:href="#d4c089b0ap" x="35.07375" y="509"/><use xlink:href="#d4c089b0aq" x="64.23375" y="509"/><use xlink:href="#d4c089b0ar" x="89.88375" y="509"/><use xlink:href="#d4c089b0as" x="116.25375" y="509"/><use xlink:href="#d4c089b0at" x="141.76875" y="509"/><use xlink:href="#d4c089b0au" x="165.79875" y="509"/></g><g fill-opacity=".33"><use xlink:href="#d4c089b0g" x="60.62542" y="546.408"/><use xlink:href="#d4c089b0h" x="67.29242" y="546.408"/><use xlink:href="#d4c089b0i" x="73.95942" y="546.408"/><use xlink:href="#d4c089b0j" x="80.62642" y="546.408"/><use xlink:href="#d4c089b0k" x="87.29342" y="546.408"/><use xlink:href="#d4c089b0l" x="93.96042" y="546.408"/><use xlink:href="#d4c089b0m" x="100.62742" y="546.408"/><use xlink:href="#d4c089b0k" x="107.29442" y="546.408"/><use xlink:href="#d4c089b0m" x="113.96142" y="546.408"/><use xlink:href="#d4c089b0g" x="120.62842" y="546.408"/><use xlink:href="#d4c089b0av" x="127.29542" y="546.408"/><use xlink:href="#d4c089b0k" x="133.96242" y="546.408"/><use xlink:href="#d4c089b0m" x="140.62942" y="546.408"/><use xlink:href="#d4c089b0p" x="147.29642" y="546.408"/><use xlink:href="#d4c089b0ai" x="153.96342" y="546.408"/><use xlink:href="#d4c089b0aw" x="160.63042" y="546.408"/></g><g><use xlink:href="#d4c089b0ax" x="261.18375" y="509"/><use xlink:href="#d4c089b0ay" x="287.68875" y="509"/><use xlink:href="#d4c089b0az" x="311.49375" y="509"/><use xlink:href="#d4c089b0aA" x="336.19875" y="509"/><use xlink:href="#d4c089b0aB" x="361.75875" y="509"/><use xlink:href="#d4c089b0aC" x="386.19375" y="509"/></g><g fill-opacity=".33"><use xlink:href="#d4c089b0g" x="259.37458" y="546.408"/><use xlink:href="#d4c089b0h" x="266.04158" y="546.408"/><use xlink:href="#d4c089b0i" x="272.70858" y="546.408"/><use xlink:href="#d4c089b0j" x="279.37558" y="546.408"/><use xlink:href="#d4c089b0k" x="286.04258" y="546.408"/><use xlink:href="#d4c089b0l" x="292.70958" y="546.408"/><use xlink:href="#d4c089b0m" x="299.37658" y="546.408"/><use xlink:href="#d4c089b0k" x="306.04358" y="546.408"/><use xlink:href="#d4c089b0m" x="312.71058" y="546.408"/><use xlink:href="#d4c089b0g" x="319.37758" y="546.408"/><use xlink:href="#d4c089b0av" x="326.04458" y="546.408"/><use xlink:href="#d4c089b0k" x="332.71158" y="546.408"/><use xlink:href="#d4c089b0m" x="339.37858" y="546.408"/><use xlink:href="#d4c089b0p" x="346.04558" y="546.408"/><use xlink:href="#d4c089b0ai" x="352.71258" y="546.408"/><use xlink:href="#d4c089b0aw" x="359.37958" y="546.408"/><use xlink:href="#d4c089b0g" x="366.04658" y="546.408"/><use xlink:href="#d4c089b0w" x="372.71358" y="546.408"/><use xlink:href="#d4c089b0j" x="379.38058" y="546.408"/><use xlink:href="#d4c089b0x" x="386.04758" y="546.408"/><use xlink:href="#d4c089b0y" x="392.71458" y="546.408"/><use xlink:href="#d4c089b0p" x="399.38158" y="546.408"/><use xlink:href="#d4c089b0z" x="406.04858" y="546.408"/></g><g><use xlink:href="#d4c089b0aD" x="33.90375" y="619.148"/><use xlink:href="#d4c089b0aE" x="63.01875" y="619.148"/><use xlink:href="#d4c089b0aF" x="89.38875" y="619.148"/><use xlink:href="#d4c089b0aG" x="115.98375" y="619.148"/><use xlink:href="#d4c089b0aH" x="142.12875" y="619.148"/><use xlink:href="#d4c089b0aI" x="166.51875" y="619.148"/></g><g fill-opacity=".33"><use xlink:href="#d4c089b0g" x="53.95875" y="656.556"/><use xlink:href="#d4c089b0h" x="60.62575" y="656.556"/><use xlink:href="#d4c089b0i" x="67.29275" y="656.556"/><use xlink:href="#d4c089b0j" x="73.95975" y="656.556"/><use xlink:href="#d4c089b0k" x="80.62675" y="656.556"/><use xlink:href="#d4c089b0l" x="87.29375" y="656.556"/><use xlink:href="#d4c089b0m" x="93.96075" y="656.556"/><use xlink:href="#d4c089b0k" x="100.62775" y="656.556"/><use xlink:href="#d4c089b0m" x="107.29475" y="656.556"/><use xlink:href="#d4c089b0g" x="113.96175" y="656.556"/><use xlink:href="#d4c089b0aJ" x="120.62875" y="656.556"/><use xlink:href="#d4c089b0k" x="127.29575" y="656.556"/><use xlink:href="#d4c089b0aw" x="133.96275" y="656.556"/><use xlink:href="#d4c089b0p" x="140.62975" y="656.556"/><use xlink:href="#d4c089b0aK" x="147.29675" y="656.556"/><use xlink:href="#d4c089b0aL" x="153.96375" y="656.556"/><use xlink:href="#d4c089b0y" x="160.63075" y="656.556"/><use xlink:href="#d4c089b0m" x="167.29775" y="656.556"/></g><g><use xlink:href="#d4c089b0aM" x="259.81125" y="619.148"/><use xlink:href="#d4c089b0aN" x="286.27125" y="619.148"/><use xlink:href="#d4c089b0aO" x="310.75125" y="619.148"/><use xlink:href="#d4c089b0aP" x="335.72625" y="619.148"/><use xlink:href="#d4c089b0aQ" x="362.05125" y="619.148"/><use xlink:href="#d4c089b0aR" x="387.02625" y="619.148"/></g><g fill-opacity=".33"><use xlink:href="#d4c089b0g" x="252.70792" y="656.556"/><use xlink:href="#d4c089b0h" x="259.37492" y="656.556"/><use xlink:href="#d4c089b0i" x="266.04192" y="656.556"/><use xlink:href="#d4c089b0j" x="272.70892" y="656.556"/><use xlink:href="#d4c089b0k" x="279.37592" y="656.556"/><use xlink:href="#d4c089b0l" x="286.04292" y="656.556"/><use xlink:href="#d4c089b0m" x="292.70992" y="656.556"/><use xlink:href="#d4c089b0k" x="299.37692" y="656.556"/><use xlink:href="#d4c089b0m" x="306.04392" y="656.556"/><use xlink:href="#d4c089b0g" x="312.71092" y="656.556"/><use xlink:href="#d4c089b0aJ" x="319.37792" y="656.556"/><use xlink:href="#d4c089b0k" x="326.04492" y="656.556"/><use xlink:href="#d4c089b0aw" x="332.71192" y="656.556"/><use xlink:href="#d4c089b0p" x="339.37892" y="656.556"/><use xlink:href="#d4c089b0aK" x="346.04592" y="656.556"/><use xlink:href="#d4c089b0aL" x="352.71292" y="656.556"/><use xlink:href="#d4c089b0y" x="359.37992" y="656.556"/><use xlink:href="#d4c089b0m" x="366.04692" y="656.556"/><use xlink:href="#d4c089b0g" x="372.71392" y="656.556"/><use xlink:href="#d4c089b0w" x="379.38092" y="656.556"/><use xlink:href="#d4c089b0j" x="386.04792" y="656.556"/><use xlink:href="#d4c089b0x" x="392.71492" y="656.556"/><use xlink:href="#d4c089b0y" x="399.38192" y="656.556"/><use xlink:href="#d4c089b0p" x="406.04892" y="656.556"/><use xlink:href="#d4c089b0z" x="412.71592" y="656.556"/></g><g><use xlink:href="#d4c089b0aS" x="32.35125" y="729.296"/><use xlink:href="#d4c089b0aT" x="61.33125" y="729.296"/><use xlink:href="#d4c089b0aU" x="88.42125" y="729.296"/><use xlink:href="#d4c089b0aV" x="115.51125" y="729.296"/><use xlink:href="#d4c089b0aW" x="142.60125" y="729.296"/><use xlink:href="#d4c089b0aX" x="167.62125" y="729.296"/></g><g fill-opacity=".33"><use xlink:href="#d4c089b0g" x="67.29208" y="766.704"/><use xlink:href="#d4c089b0h" x="73.95908" y="766.704"/><use xlink:href="#d4c089b0i" x="80.62608" y="766.704"/><use xlink:href="#d4c089b0j" x="87.29308" y="766.704"/><use xlink:href="#d4c089b0k" x="93.96008" y="766.704"/><use xlink:href="#d4c089b0l" x="100.62708" y="766.704"/><use xlink:href="#d4c089b0m" x="107.29408" y="766.704"/><use xlink:href="#d4c089b0k" x="113.96108" y="766.704"/><use xlink:href="#d4c089b0m" x="120.62808" y="766.704"/><use xlink:href="#d4c089b0g" x="127.29508" y="766.704"/><use xlink:href="#d4c089b0aY" x="133.96208" y="766.704"/><use xlink:href="#d4c089b0aL" x="140.62908" y="766.704"/><use xlink:href="#d4c089b0y" x="147.29608" y="766.704"/><use xlink:href="#d4c089b0m" x="153.96308" y="766.704"/></g><g><use xlink:href="#d4c089b0aZ" x="257.98875" y="729.296"/><use xlink:href="#d4c089b0ba" x="284.49375" y="729.296"/><use xlink:href="#d4c089b0bb" x="309.82875" y="729.296"/><use xlink:href="#d4c089b0bc" x="335.43375" y="729.296"/><use xlink:href="#d4c089b0bd" x="362.61375" y="729.296"/><use xlink:href="#d4c089b0be" x="388.21875" y="729.296"/></g><g fill-opacity=".33"><use xlink:href="#d4c089b0g" x="266.04125" y="766.704"/><use xlink:href="#d4c089b0h" x="272.70825" y="766.704"/><use xlink:href="#d4c089b0i" x="279.37525" y="766.704"/><use xlink:href="#d4c089b0j" x="286.04225" y="766.704"/><use xlink:href="#d4c089b0k" x="292.70925" y="766.704"/><use xlink:href="#d4c089b0l" x="299.37625" y="766.704"/><use xlink:href="#d4c089b0m" x="306.04325" y="766.704"/><use xlink:href="#d4c089b0k" x="312.71025" y="766.704"/><use xlink:href="#d4c089b0m" x="319.37725" y="766.704"/><use xlink:href="#d4c089b0g" x="326.04425" y="766.704"/><use xlink:href="#d4c089b0aY" x="332.71125" y="766.704"/><use xlink:href="#d4c089b0aL" x="339.37825" y="766.704"/><use xlink:href="#d4c089b0y" x="346.04525" y="766.704"/><use xlink:href="#d4c089b0m" x="352.71225" y="766.704"/><use xlink:href="#d4c089b0g" x="359.37925" y="766.704"/><use xlink:href="#d4c089b0w" x="366.04625" y="766.704"/><use xlink:href="#d4c089b0j" x="372.71325" y="766.704"/><use xlink:href="#d4c089b0x" x="379.38025" y="766.704"/><use xlink:href="#d4c089b0y" x="386.04725" y="766.704"/><use xlink:href="#d4c089b0p" x="392.71425" y="766.704"/><use xlink:href="#d4c089b0z" x="399.38125" y="766.704"/></g><g><use xlink:href="#d4c089b0bf" x="29.51625" y="839.444"/><use xlink:href="#d4c089b0bg" x="58.22625" y="839.444"/><use xlink:href="#d4c089b0bh" x="86.62125" y="839.444"/><use xlink:href="#d4c089b0bi" x="114.61125" y="839.444"/><use xlink:href="#d4c089b0bj" x="143.45625" y="839.444"/><use xlink:href="#d4c089b0bk" x="169.64625" y="839.444"/></g><g fill-opacity=".33"><use xlink:href="#d4c089b0g" x="50.62542" y="876.852"/><use xlink:href="#d4c089b0h" x="57.29242" y="876.852"/><use xlink:href="#d4c089b0i" x="63.95942" y="876.852"/><use xlink:href="#d4c089b0j" x="70.62642" y="876.852"/><use xlink:href="#d4c089b0k" x="77.29342" y="876.852"/><use xlink:href="#d4c089b0l" x="83.96042" y="876.852"/><use xlink:href="#d4c089b0m" x="90.62742" y="876.852"/><use xlink:href="#d4c089b0k" x="97.29442" y="876.852"/><use xlink:href="#d4c089b0m" x="103.96142" y="876.852"/><use xlink:href="#d4c089b0g" x="110.62842" y="876.852"/><use xlink:href="#d4c089b0h" x="117.29542" y="876.852"/><use xlink:href="#d4c089b0i" x="123.96242" y="876.852"/><use xlink:href="#d4c089b0j" x="130.62942" y="876.852"/><use xlink:href="#d4c089b0G" x="137.29642" y="876.852"/><use xlink:href="#d4c089b0x" x="143.96342" y="876.852"/><use xlink:href="#d4c089b0aK" x="150.63042" y="876.852"/><use xlink:href="#d4c089b0aL" x="157.29742" y="876.852"/><use xlink:href="#d4c089b0y" x="163.96442" y="876.852"/><use xlink:href="#d4c089b0m" x="170.63142" y="876.852"/></g><g><use xlink:href="#d4c089b0bl" x="254.72625" y="839.444"/><use xlink:href="#d4c089b0bm" x="281.27625" y="839.444"/><use xlink:href="#d4c089b0bn" x="308.14125" y="839.444"/><use xlink:href="#d4c089b0bo" x="334.82625" y="839.444"/><use xlink:href="#d4c089b0bp" x="363.53625" y="839.444"/><use xlink:href="#d4c089b0bq" x="390.35625" y="839.444"/></g><g fill-opacity=".33"><use xlink:href="#d4c089b0g" x="249.37458" y="876.852"/><use xlink:href="#d4c089b0h" x="256.04158" y="876.852"/><use xlink:href="#d4c089b0i" x="262.70858" y="876.852"/><use xlink:href="#d4c089b0j" x="269.37558" y="876.852"/><use xlink:href="#d4c089b0k" x="276.04258" y="876.852"/><use xlink:href="#d4c089b0l" x="282.70958" y="876.852"/><use xlink:href="#d4c089b0m" x="289.37658" y="876.852"/><use xlink:href="#d4c089b0k" x="296.04358" y="876.852"/><use xlink:href="#d4c089b0m" x="302.71058" y="876.852"/><use xlink:href="#d4c089b0g" x="309.37758" y="876.852"/><use xlink:href="#d4c089b0h" x="316.04458" y="876.852"/><use xlink:href="#d4c089b0i" x="322.71158" y="876.852"/><use xlink:href="#d4c089b0j" x="329.37858" y="876.852"/><use xlink:href="#d4c089b0G" x="336.04558" y="876.852"/><use xlink:href="#d4c089b0x" x="342.71258" y="876.852"/><use xlink:href="#d4c089b0aK" x="349.37958" y="876.852"/><use xlink:href="#d4c089b0aL" x="356.04658" y="876.852"/><use xlink:href="#d4c089b0y" x="362.71358" y="876.852"/><use xlink:href="#d4c089b0m" x="369.38058" y="876.852"/><use xlink:href="#d4c089b0g" x="376.04758" y="876.852"/><use xlink:href="#d4c089b0w" x="382.71458" y="876.852"/><use xlink:href="#d4c089b0j" x="389.38158" y="876.852"/><use xlink:href="#d4c089b0x" x="396.04858" y="876.852"/><use xlink:href="#d4c089b0y" x="402.71558" y="876.852"/><use xlink:href="#d4c089b0p" x="409.38258" y="876.852"/><use xlink:href="#d4c089b0z" x="416.04958" y="876.852"/></g><g><use xlink:href="#d4c089b0br" x="26.29875" y="949.592"/><use xlink:href="#d4c089b0bs" x="54.73875" y="949.592"/><use xlink:href="#d4c089b0bt" x="84.61875" y="949.592"/><use xlink:href="#d4c089b0bu" x="113.64375" y="949.592"/><use xlink:href="#d4c089b0bv" x="144.46875" y="949.592"/><use xlink:href="#d4c089b0bw" x="171.96375" y="949.592"/></g><g fill-opacity=".33"><use xlink:href="#d4c089b0g" x="63.95875" y="987"/><use xlink:href="#d4c089b0h" x="70.62575" y="987"/><use xlink:href="#d4c089b0i" x="77.29275" y="987"/><use xlink:href="#d4c089b0j" x="83.95975" y="987"/><use xlink:href="#d4c089b0k" x="90.62675" y="987"/><use xlink:href="#d4c089b0l" x="97.29375" y="987"/><use xlink:href="#d4c089b0m" x="103.96075" y="987"/><use xlink:href="#d4c089b0k" x="110.62775" y="987"/><use xlink:href="#d4c089b0m" x="117.29475" y="987"/><use xlink:href="#d4c089b0g" x="123.96175" y="987"/><use xlink:href="#d4c089b0aY" x="130.62875" y="987"/><use xlink:href="#d4c089b0y" x="137.29575" y="987"/><use xlink:href="#d4c089b0x" x="143.96275" y="987"/><use xlink:href="#d4c089b0z" x="150.62975" y="987"/><use xlink:href="#d4c089b0bx" x="157.29675" y="987"/></g><g><use xlink:href="#d4c089b0by" x="250.96875" y="949.592"/><use xlink:href="#d4c089b0bz" x="277.56375" y="949.592"/><use xlink:href="#d4c089b0bA" x="306.18375" y="949.592"/><use xlink:href="#d4c089b0bB" x="334.17375" y="949.592"/><use xlink:href="#d4c089b0bC" x="364.63875" y="949.592"/><use xlink:href="#d4c089b0bD" x="392.80875" y="949.592"/></g><g fill-opacity=".33"><use xlink:href="#d4c089b0g" x="262.70792" y="987"/><use xlink:href="#d4c089b0h" x="269.37492" y="987"/><use xlink:href="#d4c089b0i" x="276.04192" y="987"/><use xlink:href="#d4c089b0j" x="282.70892" y="987"/><use xlink:href="#d4c089b0k" x="289.37592" y="987"/><use xlink:href="#d4c089b0l" x="296.04292" y="987"/><use xlink:href="#d4c089b0m" x="302.70992" y="987"/><use xlink:href="#d4c089b0k" x="309.37692" y="987"/><use xlink:href="#d4c089b0m" x="316.04392" y="987"/><use xlink:href="#d4c089b0g" x="322.71092" y="987"/><use xlink:href="#d4c089b0aY" x="329.37792" y="987"/><use xlink:href="#d4c089b0y" x="336.04492" y="987"/><use xlink:href="#d4c089b0x" x="342.71192" y="987"/><use xlink:href="#d4c089b0z" x="349.37892" y="987"/><use xlink:href="#d4c089b0bx" x="356.04592" y="987"/><use xlink:href="#d4c089b0g" x="362.71292" y="987"/><use xlink:href="#d4c089b0w" x="369.37992" y="987"/><use xlink:href="#d4c089b0j" x="376.04692" y="987"/><use xlink:href="#d4c089b0x" x="382.71392" y="987"/><use xlink:href="#d4c089b0y" x="389.38092" y="987"/><use xlink:href="#d4c089b0p" x="396.04792" y="987"/><use xlink:href="#d4c089b0z" x="402.71492" y="987"/></g></svg>