<?xml version='1.0' encoding='UTF-8'?>
<svg xmlns="http://www.w3.org/2000/svg" xmlns:xlink="http://www.w3.org/1999/xlink" width="600px" height="300px" viewBox="0 0 600 300" x="0px" y="0px" enable-background="new 0 0 600 300"><defs><symbol overflow="visible" id="d9466d21a"><path d="M27.55-4.14H10.37V-40.2H5.64V0h22.08zm0 0"/></symbol><symbol overflow="visible" id="d9466d21b"><path d="M3.19-13.5C3.19-5.16 7.79.84 15.29.84c8.65 0 12.85-7.75 12.85-15.3 0-8.27-4.56-14.4-12.12-14.4-8.64 0-12.83 7.92-12.83 15.36zm20.1-.23c0 3.71-.98 6.78-2.65 8.57a6.5 6.5 0 01-4.86 1.93c-5.1 0-7.8-4.5-7.8-10.93 0-4.03 1.08-6.96 2.7-8.76a6.93 6.93 0 014.87-1.86c5.1 0 7.73 4.62 7.73 11.05zm0 0"/></symbol><symbol overflow="visible" id="d9466d21c"><path d="M3.72-20.52c.06 4.32 3.36 6.18 7.44 7.74 3.6 1.44 6.96 2.51 6.96 5.47 0 2.58-2.46 4.01-5.82 4.01-2.88 0-5.4-1.01-7.8-2.58L2.52-2.7c2.7 2.04 6 3.36 9.9 3.36 6.36 0 10.63-3.36 10.63-8.46 0-4.92-4.03-6.65-8.53-8.34-3.24-1.27-6-2.34-6-4.98 0-2.16 1.98-3.6 5.04-3.6 2.35 0 4.5.78 6.53 2.1l1.93-3.18a13.24 13.24 0 01-3.3-8.28c0-3.12 1.8-5.1 5.16-5.1 3.67 0 6.42.96 8.28 1.91l-.9 9.25h-4.03v3.9h4.04v15.9c0 6.72 2.03 8.88 6.46 8.88C39.91.66 42.6.23 45-.66l-.95-3.54c-1.75.42-3.49.65-4.57.65-2.76 0-3.54-1.25-3.54-5.87v-14.7h8.64v-3.9h-8.64v-11.64c-3-1.75-6.85-3.48-12.06-3.48-6.11 0-9.3 3.19-9.3 8.34 0 2.22.9 4.57 2.04 6.42-.96-.18-1.92-.3-3-.3-5.4 0-10.03 3.05-9.9 8.16zm0 0"/></symbol><symbol overflow="visible" id="d9466d21e"><path d="M20.34-40.31l-5.4.23L2.45-4.2C1.92-2.77 1.56-1.44 1.2 0H6l3.78-11.22h15.24L28.73 0h4.75c-.3-1.38-.71-2.77-1.2-4.2zm-2.76 6.04h.19l2.51 8.58 3.42 10.33H11.16zm0 0"/></symbol><symbol overflow="visible" id="d9466d21f"><path d="M8.34-28.44l-3.96.53c.42 6.07.48 8.7.48 10.86V0h4.73v-18.78c1.93-3.42 4.46-4.92 7.14-4.92 1.2 0 2.18.12 3.25.42l.96-4.31a7.22 7.22 0 00-3.9-1.1c-3.18 0-5.76 1.99-7.74 5.53zm0 0"/></symbol><symbol overflow="visible" id="d9466d21g"><path d="M10.92-36.36h-3.9l-1.08 8.34H1.98v3.9h4.2v15.9C6.19-1.5 8.23.66 12.73.66c2.1 0 4.8-.43 7.2-1.32l-.9-3.54c-1.74.42-3.54.65-4.57.65-2.8 0-3.53-1.25-3.53-5.87v-14.7h8.58v-3.9h-8.58zm0 0"/></symbol><symbol overflow="visible" id="d9466d21h"><path d="M4.02-36.55c0 1.82 1.2 2.96 3.12 2.96 1.99 0 3.3-1.33 3.3-3.32 0-1.86-1.2-3.04-3.06-3.04-2.04 0-3.36 1.37-3.36 3.4zm5.46 8.47l-4.68.13V0h4.68zm0 0"/></symbol><symbol overflow="visible" id="d9466d21i"><path d="M18.13-28.02h-6.91v-7.07c0-3.91 1.33-6.43 4.69-6.43 1.96 0 3.71.83 5.15 1.74l1.86-3.13a11.12 11.12 0 00-7.26-2.75c-6.24 0-9.18 4.74-9.18 11.22v6.42H2.16v3.9h4.32V0h4.74v-24.13h6.9zm0 0"/></symbol><symbol overflow="visible" id="d9466d21j"><path d="M6.36-13.14a7.96 7.96 0 00-3.84 6.78C2.52-2.05 5.34.66 9.84.66c3.43 0 6.79-1.57 9.72-4.2L20.41.3l3.95-.6c-.42-5.93-.48-8.4-.48-10.56v-7.2c0-7.38-2.65-10.63-8.65-10.63-4.43 0-8.39 1.88-11.51 4.57l1.73 2.93c2.96-2.03 6.13-3.36 8.96-3.36 3.46 0 4.8 2.05 4.8 7.99v.42c-6.5.55-10.44 1.44-12.85 3zm.78 6.23c0-1.8.84-2.93 1.8-3.65 1.44-.9 4.08-1.63 10.26-2.1v5.64c-2.93 2.52-5.93 3.9-8.4 3.9-2.28 0-3.66-1.32-3.66-3.79zm0 0"/></symbol><symbol overflow="visible" id="d9466d21k"><path d="M3.19-13.31C3.19-4.7 7.92.66 15.55.66c2.64 0 5.75-.72 8.68-2.04l-1.07-3.6c-2.52.96-5.04 1.5-6.96 1.5-5.15 0-8.22-3.3-8.22-10.38 0-4.44 1.2-7.56 3.24-9.23a6.84 6.84 0 014.37-1.5c2.41 0 4.4.95 6.55 2.87l2.34-2.76c-.3-.36-.6-.72-.96-1.08h.06c-1.74-1.92-3.53-5.4-3.53-8.52 0-3.19 2.03-5.1 5.64-5.1 3.1 0 5.26.96 7.12 1.91l-.89 9.25h-3.9v3.9h3.9v15.9c0 6.72 2.03 8.88 6.49 8.88 2.15 0 4.86-.43 7.25-1.32l-.9-3.54c-1.74.42-3.54.65-4.62.65-2.77 0-3.48-1.25-3.48-5.87v-14.7h8.57v-3.9H36.6v-11.64c-3.3-2.1-6.72-3.48-10.9-3.48-6 0-9.85 3.23-9.85 8.34 0 2.16.9 4.44 1.97 6.3a8.82 8.82 0 00-1.86-.19C8.28-28.69 3.2-22.27 3.2-13.3zm0 0"/></symbol><symbol overflow="visible" id="d9466d21l"><path d="M3.72-20.52c.06 4.32 3.36 6.18 7.44 7.74 3.6 1.44 6.96 2.51 6.96 5.47 0 2.58-2.46 4.01-5.82 4.01-2.88 0-5.4-1.01-7.8-2.58L2.52-2.7c2.7 2.04 6 3.36 9.9 3.36 6.36 0 10.63-3.36 10.63-8.46 0-4.92-4.03-6.65-8.53-8.34-3.24-1.27-6-2.34-6-4.98 0-2.16 1.98-3.6 5.04-3.6 2.35 0 4.5.78 6.53 2.1l2.05-3.07c-2.16-1.73-5.05-3-8.52-3-5.4 0-10.03 3.07-9.9 8.17zm0 0"/></symbol><symbol overflow="visible" id="d9466d21m"><path d="M3.83 0v-5.95H6.2v-.82H.45v.82h2.4V0zm0 0"/></symbol><symbol overflow="visible" id="d9466d21n"><path d="M5.75-2.23v-.43c0-1.6-.9-2.51-2.42-2.51S.87-4.16.87-2.48c0 1.71.91 2.62 2.5 2.62 1.43 0 2.07-.56 2.29-1.52l-.9-.09c-.18.61-.59.9-1.35.9-.94 0-1.52-.54-1.58-1.66zm-2.4-2.2c.93 0 1.43.5 1.48 1.55H1.84c.08-1.07.6-1.56 1.5-1.56zm0 0"/></symbol><symbol overflow="visible" id="d9466d21o"><path d="M1.83 0l1.42-2h.06l1.46 2H5.8L4-2.53l1.78-2.49H4.8L3.42-3.08h-.08l-1.4-1.94H.89l1.78 2.49L.84 0zm0 0"/></symbol><symbol overflow="visible" id="d9466d21p"><path d="M5.52-4.25v-.77H3.17v-1.56h-.81l-.14 1.56H.75v.77h1.47v2.4c0 1.3.48 1.94 1.84 1.94C4.6.1 5.14 0 5.55-.14L5.4-.91c-.32.13-.72.2-1.13.2-.8 0-1.1-.37-1.1-1.23v-2.31zm0 0"/></symbol><symbol overflow="visible" id="d9466d21q"><path d="M3.33-3.42c.47 0 .8-.27.8-.8 0-.51-.33-.8-.8-.8-.47 0-.8.29-.8.8 0 .53.33.8.8.8zm0 3.5c.47 0 .8-.27.8-.78 0-.53-.33-.82-.8-.82-.47 0-.8.29-.8.82 0 .51.33.78.8.78zm0 0"/></symbol><symbol overflow="visible" id="d9466d21s"><path d="M2.08-6.77h-.99V0h4.79v-.81h-3.8zm0 0"/></symbol><symbol overflow="visible" id="d9466d21t"><path d="M3.33.14c1.62 0 2.5-.95 2.5-2.66 0-1.68-.88-2.64-2.5-2.64-1.63 0-2.5.96-2.5 2.64 0 1.7.87 2.66 2.5 2.66zm0-.77c-1.06 0-1.52-.6-1.52-1.89 0-1.28.46-1.87 1.52-1.87 1.08 0 1.53.6 1.53 1.87 0 1.29-.45 1.9-1.53 1.9zm0 0"/></symbol><symbol overflow="visible" id="d9466d21u"><path d="M3.36.16c1.4 0 2.2-.6 2.2-1.57 0-.89-.54-1.22-1.47-1.39L3-3c-.67-.14-.86-.33-.86-.73 0-.5.4-.74 1.17-.74.83 0 1.19.27 1.27.8l.9-.05c-.12-1-.8-1.47-2.17-1.47-1.34 0-2.1.53-2.1 1.5 0 .81.45 1.22 1.52 1.44l1.04.2c.56.11.87.24.87.72 0 .52-.45.78-1.28.78-.95 0-1.36-.28-1.42-.87l-.9.06C1.07-.36 1.8.16 3.35.16zm0 0"/></symbol><symbol overflow="visible" id="d9466d21v"><path d="M6.17 0L3.98-6.77h-1.3L.5 0h.97l.44-1.47h2.78L5.16 0zM3.28-5.94h.08l1.1 3.74H2.15zm0 0"/></symbol><symbol overflow="visible" id="d9466d21w"><path d="M5.08-5.16c-.94 0-1.58.43-1.9 1.3h-.09l-.07-1.16H1.05v.77h1.1v3.48H.96V0h3.96v-.77H3.1v-1.46c0-1.36.6-2.05 1.83-2.05.4 0 .76.08 1.1.17l.15-.87c-.33-.11-.7-.18-1.11-.18zm0 0"/></symbol><symbol overflow="visible" id="d9466d21x"><path d="M3.58-5.81c.42 0 .72-.22.72-.67 0-.44-.3-.68-.72-.68-.44 0-.72.24-.72.68 0 .45.28.67.72.67zm.5.8H1.52v.76h1.6v3.48h-1.8V0h4.46v-.77h-1.7zm0 0"/></symbol><symbol overflow="visible" id="d9466d21y"><path d="M4.63-6.5c.45 0 .98.08 1.39.2l.2-.72a5.3 5.3 0 00-1.64-.26c-1.52 0-2.16.56-2.16 1.87v.4H.9v.76h1.53V0h.94v-4.25h2.53v-.77H3.36v-.3c0-.84.33-1.18 1.27-1.18zm0 0"/></symbol><symbol overflow="visible" id="d9466d21z"><path d="M2.83.14c.94 0 1.5-.39 1.81-.95h.08l.1.81h.76v-3.38c0-1.23-.69-1.8-2.13-1.8-1.43 0-2.03.65-2.18 1.6l.93.1c.11-.6.44-.93 1.22-.93.85 0 1.22.32 1.22 1.04v.34l-1.81.2C1.6-2.7 1.1-2.17 1.1-1.28c0 .92.64 1.42 1.72 1.42zm.25-.77c-.67 0-1.02-.28-1.02-.74 0-.44.28-.72 1-.82l1.58-.19v.41c0 .8-.6 1.34-1.56 1.34zm0 0"/></symbol><symbol overflow="visible" id="d9466d21A"><path d="M3.34.14c1.43 0 2.13-.66 2.25-1.78l-.89-.1c-.1.7-.5 1.08-1.34 1.08-1.03 0-1.52-.64-1.52-1.84 0-1.23.47-1.86 1.52-1.86.84 0 1.23.36 1.34 1.08l.9-.1c-.13-1.09-.82-1.78-2.26-1.78-1.56 0-2.46.97-2.46 2.66 0 1.66.9 2.64 2.46 2.64zm0 0"/></symbol><symbol overflow="visible" id="d9466d21B"><path d="M5.95-6.77H1.1V0h.99v-2.92H5.3v-.77H2.08v-2.26h3.87zm0 0"/></symbol><symbol overflow="visible" id="d9466d21C"><path d="M2.73.14c.9 0 1.43-.45 1.74-1.08h.06l.13.94h.8v-5.02h-.94v2.7c0 .98-.57 1.62-1.46 1.62-.75 0-1.1-.4-1.1-1.22v-3.1h-.93v3.32c0 1.17.55 1.84 1.7 1.84zm0 0"/></symbol><symbol overflow="visible" id="d9466d21D"><path d="M.92-6.77V0h2.11c2.03 0 3.03-1.03 3.03-3.36 0-2.39-1.01-3.4-2.93-3.4zM1.91-.8v-5.17h1.18c1.29 0 1.96.63 1.96 2.61 0 1.94-.67 2.56-1.96 2.56zm0 0"/></symbol><symbol overflow="visible" id="d9466d21E"><path d="M2.16 0v-2.67c0-.99.59-1.63 1.46-1.63.74 0 1.07.38 1.07 1.22V0h.95v-3.31c0-1.2-.56-1.85-1.67-1.85-.92 0-1.49.46-1.77 1.08h-.06l-.12-.94H1.2V0zm0 0"/></symbol><symbol overflow="visible" id="d9466d21F"><path d="M3.42-.86h-.08L1.77-5.02H.8L2.73 0h.41c-.33.95-.72 1.27-1.45 1.27-.22 0-.49-.04-.69-.08l-.1.73c.2.06.58.11.87.11 1.2 0 1.7-.7 2.21-2.03l1.94-5.02H5zm0 0"/></symbol><symbol overflow="visible" id="d9466d21G"><path d="M3.92-7.14H1.36v.76h1.6v5.61H1.15V0H5.7v-.77H3.92zm0 0"/></symbol><symbol overflow="visible" id="d9466d21H"><path d="M3.16 2.03c1.67 0 2.4-.86 2.4-2.51v-4.54h-.81l-.13.91h-.06c-.26-.58-.8-1.05-1.73-1.05-1.42 0-2.24 1-2.24 2.52 0 1.6.75 2.56 2.2 2.56.94 0 1.5-.5 1.77-1.03h.05v.72c0 1.17-.42 1.67-1.45 1.67-.93 0-1.3-.34-1.41-.89L.8.5c.12.96.87 1.54 2.36 1.54zM3.06-.8c-.98 0-1.48-.57-1.48-1.82 0-1.13.5-1.75 1.48-1.75 1.06 0 1.58.76 1.58 1.75 0 .95-.56 1.82-1.58 1.82zm0 0"/></symbol><symbol overflow="visible" id="d9466d21I"><path d="M1.45-2.95c0 2.56 1.08 4.37 3.67 4.84l.11-.67C3.28.86 2.43-.75 2.43-2.95s.85-3.82 2.8-4.16l-.1-.69c-2.6.49-3.68 2.3-3.68 4.85zm0 0"/></symbol><symbol overflow="visible" id="d9466d21J"><path d="M2.84.14C3.8.14 4.33-.26 4.6-.9h.07L4.8 0h.76v-7.14h-.95v2.95h-.08c-.28-.6-.86-.97-1.67-.97-1.48 0-2.27.99-2.27 2.64C.6-.84 1.36.14 2.84.14zm.22-.8c-.98 0-1.48-.59-1.48-1.84s.5-1.86 1.48-1.86c1.13 0 1.58.8 1.58 1.86S4.2-.66 3.06-.66zm0 0"/></symbol><symbol overflow="visible" id="d9466d21K"><path d="M1.45-7.1c1.96.33 2.8 1.94 2.8 4.15 0 2.2-.84 3.8-2.8 4.17l.11.67c2.58-.47 3.67-2.28 3.67-4.84 0-2.55-1.09-4.36-3.67-4.85zm0 0"/></symbol></defs><g fill="#515151"><use xlink:href="#d9466d21a" x="132.93" y="151"/><use xlink:href="#d9466d21b" x="162.09" y="151"/></g><use xlink:href="#d9466d21c" x="193.35" y="151" fill="#fff"/><g fill="#515151"><use xlink:href="#d9466d21d" x="239.91" y="151"/><use xlink:href="#d9466d21e" x="252.87" y="151"/><use xlink:href="#d9466d21f" x="287.91" y="151"/><use xlink:href="#d9466d21g" x="309.81" y="151"/><use xlink:href="#d9466d21h" x="331.35" y="151"/><use xlink:href="#d9466d21i" x="345.63" y="151"/><use xlink:href="#d9466d21j" x="365.43" y="151"/></g><use xlink:href="#d9466d21k" x="393.93" y="151" fill="#fff"/><use xlink:href="#d9466d21l" x="441.21" y="151" fill="#515151"/><g fill="#fff"><use xlink:href="#d9466d21m" x="233.3333" y="252"/><use xlink:href="#d9466d21n" x="240.0003" y="252"/><use xlink:href="#d9466d21o" x="246.6673" y="252"/><use xlink:href="#d9466d21p" x="253.3343" y="252"/><use xlink:href="#d9466d21q" x="260.0013" y="252"/><use xlink:href="#d9466d21r" x="266.6683" y="252"/><use xlink:href="#d9466d21s" x="273.3353" y="252"/><use xlink:href="#d9466d21t" x="280.0023" y="252"/><use xlink:href="#d9466d21u" x="286.6693" y="252"/><use xlink:href="#d9466d21p" x="293.3363" y="252"/><use xlink:href="#d9466d21r" x="300.0033" y="252"/><use xlink:href="#d9466d21v" x="306.6703" y="252"/><use xlink:href="#d9466d21w" x="313.3373" y="252"/><use xlink:href="#d9466d21p" x="320.0043" y="252"/><use xlink:href="#d9466d21x" x="326.6713" y="252"/><use xlink:href="#d9466d21y" x="333.3383" y="252"/><use xlink:href="#d9466d21z" x="340.0053" y="252"/><use xlink:href="#d9466d21A" x="346.6723" y="252"/><use xlink:href="#d9466d21p" x="353.3393" y="252"/><use xlink:href="#d9466d21u" x="360.0063" y="252"/></g><g fill="#fff"><use xlink:href="#d9466d21B" x="170" y="266"/><use xlink:href="#d9466d21n" x="176.667" y="266"/><use xlink:href="#d9466d21z" x="183.334" y="266"/><use xlink:href="#d9466d21p" x="190.001" y="266"/><use xlink:href="#d9466d21C" x="196.668" y="266"/><use xlink:href="#d9466d21w" x="203.335" y="266"/><use xlink:href="#d9466d21n" x="210.002" y="266"/><use xlink:href="#d9466d21q" x="216.669" y="266"/><use xlink:href="#d9466d21r" x="223.336" y="266"/><use xlink:href="#d9466d21D" x="230.003" y="266"/><use xlink:href="#d9466d21x" x="236.67" y="266"/><use xlink:href="#d9466d21u" x="243.337" y="266"/><use xlink:href="#d9466d21A" x="250.004" y="266"/><use xlink:href="#d9466d21w" x="256.671" y="266"/><use xlink:href="#d9466d21n" x="263.338" y="266"/><use xlink:href="#d9466d21p" x="270.005" y="266"/><use xlink:href="#d9466d21x" x="276.672" y="266"/><use xlink:href="#d9466d21t" x="283.339" y="266"/><use xlink:href="#d9466d21E" x="290.006" y="266"/><use xlink:href="#d9466d21z" x="296.673" y="266"/><use xlink:href="#d9466d21w" x="303.34" y="266"/><use xlink:href="#d9466d21F" x="310.007" y="266"/><use xlink:href="#d9466d21r" x="316.674" y="266"/><use xlink:href="#d9466d21G" x="323.341" y="266"/><use xlink:href="#d9466d21x" x="330.008" y="266"/><use xlink:href="#d9466d21H" x="336.675" y="266"/><use xlink:href="#d9466d21z" x="343.342" y="266"/><use xlink:href="#d9466d21p" x="350.009" y="266"/><use xlink:href="#d9466d21C" x="356.676" y="266"/><use xlink:href="#d9466d21w" x="363.343" y="266"/><use xlink:href="#d9466d21n" x="370.01" y="266"/><use xlink:href="#d9466d21u" x="376.677" y="266"/><use xlink:href="#d9466d21r" x="383.344" y="266"/><use xlink:href="#d9466d21I" x="390.011" y="266"/><use xlink:href="#d9466d21J" x="396.678" y="266"/><use xlink:href="#d9466d21G" x="403.345" y="266"/><use xlink:href="#d9466d21x" x="410.012" y="266"/><use xlink:href="#d9466d21H" x="416.679" y="266"/><use xlink:href="#d9466d21K" x="423.346" y="266"/></g></svg>