<?xml version='1.0' encoding='UTF-8'?>
<svg xmlns="http://www.w3.org/2000/svg" xmlns:xlink="http://www.w3.org/1999/xlink" width="600px" height="300px" viewBox="0 0 600 300" x="0px" y="0px" enable-background="new 0 0 600 300"><defs><symbol overflow="visible" id="4e82a1c5a"><path d="M11.1-40.2H5.63V0h4.38v-28.27l-.18-5.57h.07l2.64 5.28L29.52 0h5.57v-40.2h-4.5v27.6l.25 6.47h-.06l-2.76-5.68zm0 0"/></symbol><symbol overflow="visible" id="4e82a1c5b"><path d="M28.56-4.14H10.38v-14.34h14.64v-4.2H10.38v-13.38h18l.18-4.14H5.64V0H28.7zm0 0"/></symbol><symbol overflow="visible" id="4e82a1c5c"><path d="M5.64-39.9V0h4.74v-14.81c1.56.17 3.06.23 4.39.23 10.43 0 16.3-5.47 16.3-14.04 0-7.8-5.21-12.3-15.84-12.24-2.75.06-6.1.36-9.59.95zm9.95 3.35c6.79 0 10.46 2.6 10.46 8.47 0 3.9-1.75 6.66-4.63 7.99-1.8.89-4.33 1.3-7.08 1.3-1.26 0-2.57-.12-3.96-.23v-17.1c1.8-.3 3.54-.43 5.21-.43zm0 0"/></symbol><symbol overflow="visible" id="4e82a1c5d"><path d="M20.34-40.31l-5.4.23L2.45-4.2C1.92-2.77 1.56-1.44 1.2 0H6l3.78-11.22h15.24L28.73 0h4.75c-.3-1.38-.71-2.77-1.2-4.2zm-2.76 6.04h.19l2.51 8.58 3.42 10.33H11.16zm0 0"/></symbol><symbol overflow="visible" id="4e82a1c5e"><path d="M14.94-40.2h-4.8V0h4.8zm3 19.33c0 1.8 1.08 2.75 2.76 2.75 1.86 0 2.94-1.25 2.94-3.11 0-1.75-1.14-2.7-2.77-2.7-1.85 0-2.93 1.24-2.93 3.05zm-16.44 0c0 1.8 1.14 2.75 2.77 2.75 1.92 0 2.93-1.25 2.93-3.11 0-1.75-1.08-2.7-2.7-2.7-1.92 0-3 1.24-3 3.05zm0 0"/></symbol><symbol overflow="visible" id="4e82a1c5f"><path d="M20.28-40.31l-5.4.23L1.5-1.92 2.1 0h30.42l.67-1.92zM9.06-9.36l8.46-25.27h.18l2.52 8.47 5.34 16.57 1.86 5.45H7.2zm0 0"/></symbol><symbol overflow="visible" id="4e82a1c5g"><path d="M3.83 0v-5.95H6.2v-.82H.45v.82h2.4V0zm0 0"/></symbol><symbol overflow="visible" id="4e82a1c5h"><path d="M5.75-2.23v-.43c0-1.6-.9-2.51-2.42-2.51S.87-4.16.87-2.48c0 1.71.91 2.62 2.5 2.62 1.43 0 2.07-.56 2.29-1.52l-.9-.09c-.18.61-.59.9-1.35.9-.94 0-1.52-.54-1.58-1.66zm-2.4-2.2c.93 0 1.43.5 1.48 1.55H1.84c.08-1.07.6-1.56 1.5-1.56zm0 0"/></symbol><symbol overflow="visible" id="4e82a1c5i"><path d="M1.83 0l1.42-2h.06l1.46 2H5.8L4-2.53l1.78-2.49H4.8L3.42-3.08h-.08l-1.4-1.94H.89l1.78 2.49L.84 0zm0 0"/></symbol><symbol overflow="visible" id="4e82a1c5j"><path d="M5.52-4.25v-.77H3.17v-1.56h-.81l-.14 1.56H.75v.77h1.47v2.4c0 1.3.48 1.94 1.84 1.94C4.6.1 5.14 0 5.55-.14L5.4-.91c-.32.13-.72.2-1.13.2-.8 0-1.1-.37-1.1-1.23v-2.31zm0 0"/></symbol><symbol overflow="visible" id="4e82a1c5k"><path d="M3.33-3.42c.47 0 .8-.27.8-.8 0-.51-.33-.8-.8-.8-.47 0-.8.29-.8.8 0 .53.33.8.8.8zm0 3.5c.47 0 .8-.27.8-.78 0-.53-.33-.82-.8-.82-.47 0-.8.29-.8.82 0 .51.33.78.8.78zm0 0"/></symbol><symbol overflow="visible" id="4e82a1c5m"><path d="M1.84 0v-4.48l-.06-.99h.1L4.46 0h1.28v-6.77h-.92v4.4l.06 1.03h-.1L2.21-6.77H.92V0zm0 0"/></symbol><symbol overflow="visible" id="4e82a1c5n"><path d="M5.92-6.77H1.1V0h4.83v-.8H2.06v-2.26h3.22v-.75H2.06v-2.16h3.86zm0 0"/></symbol><symbol overflow="visible" id="4e82a1c5o"><path d="M.92-6.77V0h.99v-2.27h1.68c1.58 0 2.38-.65 2.38-2.2v-.14c0-1.51-.8-2.16-2.34-2.16zM5-4.47c0 1.05-.42 1.45-1.58 1.45H1.91v-2.96h1.51C4.58-5.98 5-5.66 5-4.61zm0 0"/></symbol><symbol overflow="visible" id="4e82a1c5p"><path d="M6.17 0L3.98-6.77h-1.3L.5 0h.97l.44-1.47h2.78L5.16 0zM3.28-5.94h.08l1.1 3.74H2.15zm0 0"/></symbol><symbol overflow="visible" id="4e82a1c5q"><path d="M2.38-7.53c.32 0 .56-.19.56-.53 0-.35-.24-.52-.56-.52-.33 0-.57.17-.57.52 0 .34.24.53.56.53zm1.93 0c.32 0 .55-.19.55-.53 0-.35-.24-.52-.55-.52-.34 0-.56.17-.56.52 0 .34.22.53.56.53zm-.48 1.56h1.73v-.8H1.1v.8h1.75v5.19H1.1V0h4.47v-.78H3.83zm0 0"/></symbol><symbol overflow="visible" id="4e82a1c5r"><path d="M2.69-6.77L.59-.67V0h5.47v-.67l-2.08-6.1zm.6.83h.07L5.03-.8H1.66zm0 0"/></symbol><symbol overflow="visible" id="4e82a1c5s"><path d="M5.95-6.77H1.1V0h.99v-2.92H5.3v-.77H2.08v-2.26h3.87zm0 0"/></symbol><symbol overflow="visible" id="4e82a1c5t"><path d="M2.83.14c.94 0 1.5-.39 1.81-.95h.08l.1.81h.76v-3.38c0-1.23-.69-1.8-2.13-1.8-1.43 0-2.03.65-2.18 1.6l.93.1c.11-.6.44-.93 1.22-.93.85 0 1.22.32 1.22 1.04v.34l-1.81.2C1.6-2.7 1.1-2.17 1.1-1.28c0 .92.64 1.42 1.72 1.42zm.25-.77c-.67 0-1.02-.28-1.02-.74 0-.44.28-.72 1-.82l1.58-.19v.41c0 .8-.6 1.34-1.56 1.34zm0 0"/></symbol><symbol overflow="visible" id="4e82a1c5u"><path d="M2.73.14c.9 0 1.43-.45 1.74-1.08h.06l.13.94h.8v-5.02h-.94v2.7c0 .98-.57 1.62-1.46 1.62-.75 0-1.1-.4-1.1-1.22v-3.1h-.93v3.32c0 1.17.55 1.84 1.7 1.84zm0 0"/></symbol><symbol overflow="visible" id="4e82a1c5v"><path d="M5.08-5.16c-.94 0-1.58.43-1.9 1.3h-.09l-.07-1.16H1.05v.77h1.1v3.48H.96V0h3.96v-.77H3.1v-1.46c0-1.36.6-2.05 1.83-2.05.4 0 .76.08 1.1.17l.15-.87c-.33-.11-.7-.18-1.11-.18zm0 0"/></symbol><symbol overflow="visible" id="4e82a1c5w"><path d="M6.17 0L3.98-6.77h-1.3L.5 0h.97l.44-1.47h2.78L5.16 0zM3.28-5.94h.08l1.1 3.74H2.15zm0 0"/></symbol><symbol overflow="visible" id="4e82a1c5x"><path d="M3.92-7.14H1.36v.76h1.6v5.61H1.15V0H5.7v-.77H3.92zm0 0"/></symbol><symbol overflow="visible" id="4e82a1c5y"><path d="M2.16 0v-2.67c0-.99.59-1.63 1.46-1.63.74 0 1.07.38 1.07 1.22V0h.95v-3.31c0-1.2-.56-1.85-1.67-1.85-.92 0-1.49.46-1.77 1.08h-.06l-.12-.94H1.2V0zm0 0"/></symbol><symbol overflow="visible" id="4e82a1c5z"><path d="M3.58-5.81c.42 0 .72-.22.72-.67 0-.44-.3-.68-.72-.68-.44 0-.72.24-.72.68 0 .45.28.67.72.67zm.5.8H1.52v.76h1.6v3.48h-1.8V0h4.46v-.77h-1.7zm0 0"/></symbol><symbol overflow="visible" id="4e82a1c5A"><path d="M3.9 0l2-5.02h-.96L3.4-.94h-.07L1.8-5.02H.77L2.78 0zm0 0"/></symbol><symbol overflow="visible" id="4e82a1c5B"><path d="M3.3-7.53c-.55 0-.85.3-.85.84 0 .55.36.8.83.8h.03a5.1 5.1 0 01-.69 1.47l.52.23a4.29 4.29 0 001.02-2.4c0-.63-.33-.94-.86-.94zm0 0"/></symbol><symbol overflow="visible" id="4e82a1c5C"><path d="M3.83-5.97h1.73v-.8H1.1v.8h1.75v5.19H1.1V0h4.47v-.78H3.83zm0 0"/></symbol><symbol overflow="visible" id="4e82a1c5D"><path d="M3.33.14c1.62 0 2.5-.95 2.5-2.66 0-1.68-.88-2.64-2.5-2.64-1.63 0-2.5.96-2.5 2.64 0 1.7.87 2.66 2.5 2.66zm0-.77c-1.06 0-1.52-.6-1.52-1.89 0-1.28.46-1.87 1.52-1.87 1.08 0 1.53.6 1.53 1.87 0 1.29-.45 1.9-1.53 1.9zm0 0"/></symbol><symbol overflow="visible" id="4e82a1c5E"><path d="M2.44 0l.87-3.31h.06L4.25 0H5.3l1.03-5.02h-.88l-.73 3.94h-.08L3.77-4.4h-.85l-.87 3.33h-.08l-.75-3.94H.34L1.36 0zm0 0"/></symbol><symbol overflow="visible" id="4e82a1c5F"><path d="M2.16 0v-2.69c0-.98.6-1.6 1.46-1.6.74 0 1.07.4 1.07 1.2V0h.95v-3.31c0-1.17-.56-1.85-1.67-1.85-.9 0-1.44.46-1.75 1.08h-.06v-3.06H1.2V0zm0 0"/></symbol><symbol overflow="visible" id="4e82a1c5G"><path d="M2.84.14C3.8.14 4.33-.26 4.6-.9h.07L4.8 0h.76v-7.14h-.95v2.95h-.08c-.28-.6-.86-.97-1.67-.97-1.48 0-2.27.99-2.27 2.64C.6-.84 1.36.14 2.84.14zm.22-.8c-.98 0-1.48-.59-1.48-1.84s.5-1.86 1.48-1.86c1.13 0 1.58.8 1.58 1.86S4.2-.66 3.06-.66zm0 0"/></symbol><symbol overflow="visible" id="4e82a1c5H"><path d="M3.42-.86h-.08L1.77-5.02H.8L2.73 0h.41c-.33.95-.72 1.27-1.45 1.27-.22 0-.49-.04-.69-.08l-.1.73c.2.06.58.11.87.11 1.2 0 1.7-.7 2.21-2.03l1.94-5.02H5zm0 0"/></symbol><symbol overflow="visible" id="4e82a1c5I"><path d="M5.77-5.02H4.63L2.3-2.88h-.06v-4.26h-.94V0h.94v-2.31h.06L4.71 0h1.24L3.23-2.69zm0 0"/></symbol><symbol overflow="visible" id="4e82a1c5J"><path d="M1.45-2.95c0 2.56 1.08 4.37 3.67 4.84l.11-.67C3.28.86 2.43-.75 2.43-2.95s.85-3.82 2.8-4.16l-.1-.69c-2.6.49-3.68 2.3-3.68 4.85zm0 0"/></symbol><symbol overflow="visible" id="4e82a1c5K"><path d="M3.36.16c1.4 0 2.2-.6 2.2-1.57 0-.89-.54-1.22-1.47-1.39L3-3c-.67-.14-.86-.33-.86-.73 0-.5.4-.74 1.17-.74.83 0 1.19.27 1.27.8l.9-.05c-.12-1-.8-1.47-2.17-1.47-1.34 0-2.1.53-2.1 1.5 0 .81.45 1.22 1.52 1.44l1.04.2c.56.11.87.24.87.72 0 .52-.45.78-1.28.78-.95 0-1.36-.28-1.42-.87l-.9.06C1.07-.36 1.8.16 3.35.16zm0 0"/></symbol><symbol overflow="visible" id="4e82a1c5L"><path d="M4.22-6.77h-.86l-2.03.7v.87c.64-.17 1.26-.38 1.89-.55v4.9H1.03V0h4.9v-.86H4.21zm0 0"/></symbol><symbol overflow="visible" id="4e82a1c5M"><path d="M3.33.14c1.65 0 2.6-1.1 2.6-3.52S4.99-6.9 3.34-6.9C1.67-6.9.72-5.8.72-3.37c0 2.4.95 3.51 2.6 3.51zm0-.84c-1.13 0-1.6-.85-1.6-2.67 0-1.86.47-2.7 1.6-2.7 1.12 0 1.6.84 1.6 2.7 0 1.82-.48 2.67-1.6 2.67zM3.3-2.64c.38 0 .56-.28.56-.72 0-.44-.18-.7-.56-.7-.39 0-.56.26-.56.7 0 .44.17.72.56.72zm0 0"/></symbol><symbol overflow="visible" id="4e82a1c5N"><path d="M1.45-7.1c1.96.33 2.8 1.94 2.8 4.15 0 2.2-.84 3.8-2.8 4.17l.11.67c2.58-.47 3.67-2.28 3.67-4.84 0-2.55-1.09-4.36-3.67-4.85zm0 0"/></symbol></defs><g fill="#515151"><use xlink:href="#4e82a1c5a" x="181.89" y="151"/><use xlink:href="#4e82a1c5b" x="222.57" y="151"/><use xlink:href="#4e82a1c5c" x="254.37" y="151"/><use xlink:href="#4e82a1c5d" x="287.97" y="151"/></g><use xlink:href="#4e82a1c5e" x="323.01" y="151" fill="#fff"/><g fill="#515151"><use xlink:href="#4e82a1c5f" x="348.15" y="151"/><use xlink:href="#4e82a1c5d" x="383.07" y="151"/></g><g fill="#fff"><use xlink:href="#4e82a1c5g" x="256.6667" y="252"/><use xlink:href="#4e82a1c5h" x="263.3337" y="252"/><use xlink:href="#4e82a1c5i" x="270.0007" y="252"/><use xlink:href="#4e82a1c5j" x="276.6677" y="252"/><use xlink:href="#4e82a1c5k" x="283.3347" y="252"/><use xlink:href="#4e82a1c5l" x="290.0017" y="252"/><use xlink:href="#4e82a1c5m" x="296.6687" y="252"/><use xlink:href="#4e82a1c5n" x="303.3357" y="252"/><use xlink:href="#4e82a1c5o" x="310.0027" y="252"/><use xlink:href="#4e82a1c5p" x="316.6697" y="252"/><use xlink:href="#4e82a1c5q" x="323.3367" y="252"/><use xlink:href="#4e82a1c5r" x="330.0037" y="252"/><use xlink:href="#4e82a1c5p" x="336.6707" y="252"/></g><g fill="#fff"><use xlink:href="#4e82a1c5s" x="136.6667" y="266"/><use xlink:href="#4e82a1c5h" x="143.3337" y="266"/><use xlink:href="#4e82a1c5t" x="150.0007" y="266"/><use xlink:href="#4e82a1c5j" x="156.6677" y="266"/><use xlink:href="#4e82a1c5u" x="163.3347" y="266"/><use xlink:href="#4e82a1c5v" x="170.0017" y="266"/><use xlink:href="#4e82a1c5h" x="176.6687" y="266"/><use xlink:href="#4e82a1c5k" x="183.3357" y="266"/><use xlink:href="#4e82a1c5l" x="190.0027" y="266"/><use xlink:href="#4e82a1c5w" x="196.6697" y="266"/><use xlink:href="#4e82a1c5x" x="203.3367" y="266"/><use xlink:href="#4e82a1c5j" x="210.0037" y="266"/><use xlink:href="#4e82a1c5h" x="216.6707" y="266"/><use xlink:href="#4e82a1c5v" x="223.3377" y="266"/><use xlink:href="#4e82a1c5y" x="230.0047" y="266"/><use xlink:href="#4e82a1c5t" x="236.6717" y="266"/><use xlink:href="#4e82a1c5j" x="243.3387" y="266"/><use xlink:href="#4e82a1c5z" x="250.0057" y="266"/><use xlink:href="#4e82a1c5A" x="256.6727" y="266"/><use xlink:href="#4e82a1c5h" x="263.3397" y="266"/><use xlink:href="#4e82a1c5l" x="270.0067" y="266"/><use xlink:href="#4e82a1c5B" x="276.6737" y="266"/><use xlink:href="#4e82a1c5C" x="283.3407" y="266"/><use xlink:href="#4e82a1c5D" x="290.0077" y="266"/><use xlink:href="#4e82a1c5j" x="296.6747" y="266"/><use xlink:href="#4e82a1c5t" x="303.3417" y="266"/><use xlink:href="#4e82a1c5l" x="310.0087" y="266"/><use xlink:href="#4e82a1c5E" x="316.6757" y="266"/><use xlink:href="#4e82a1c5z" x="323.3427" y="266"/><use xlink:href="#4e82a1c5j" x="330.0097" y="266"/><use xlink:href="#4e82a1c5F" x="336.6767" y="266"/><use xlink:href="#4e82a1c5l" x="343.3437" y="266"/><use xlink:href="#4e82a1c5G" x="350.0107" y="266"/><use xlink:href="#4e82a1c5z" x="356.6777" y="266"/><use xlink:href="#4e82a1c5t" x="363.3447" y="266"/><use xlink:href="#4e82a1c5x" x="370.0117" y="266"/><use xlink:href="#4e82a1c5H" x="376.6787" y="266"/><use xlink:href="#4e82a1c5j" x="383.3457" y="266"/><use xlink:href="#4e82a1c5z" x="390.0127" y="266"/><use xlink:href="#4e82a1c5I" x="396.6797" y="266"/><use xlink:href="#4e82a1c5t" x="403.3467" y="266"/><use xlink:href="#4e82a1c5B" x="410.0137" y="266"/><use xlink:href="#4e82a1c5l" x="416.6807" y="266"/><use xlink:href="#4e82a1c5J" x="423.3477" y="266"/><use xlink:href="#4e82a1c5K" x="430.0147" y="266"/><use xlink:href="#4e82a1c5K" x="436.6817" y="266"/><use xlink:href="#4e82a1c5L" x="443.3487" y="266"/><use xlink:href="#4e82a1c5M" x="450.0157" y="266"/><use xlink:href="#4e82a1c5N" x="456.6827" y="266"/></g></svg>