<?xml version='1.0' encoding='UTF-8'?>
<svg xmlns="http://www.w3.org/2000/svg" xmlns:xlink="http://www.w3.org/1999/xlink" width="450px" height="1000px" viewBox="0 0 450 1000" x="0px" y="0px" enable-background="new 0 0 450 1000"><defs><symbol overflow="visible" id="10823e2ea"><path d="M3.73-22.4c0 5.21 4.55 6.7 9 7.73 4.72 1.08 9.72 2.03 9.72 6.98 0 5.13-5.3 6.78-9.3 6.78-3.6 0-6.95-.98-9.82-2.92l-.86 1.31C5.22-.32 9.36.68 12.92.68c5.3 0 11.2-2.26 11.2-8.46 0-6.17-5.85-7.25-10.21-8.24-4.41-1-8.5-2.2-8.5-6.67 0-5.12 5.39-6.51 9.17-6.51 2.6 0 5.81.67 7.73 1.43l.64-1.39a20.08 20.08 0 00-8.01-1.67c-5.08 0-11.2 2.16-11.2 8.42zm0 0"/></symbol><symbol overflow="visible" id="10823e2eb"><path d="M20.83-20.52h-1.75L5.94-8.23V-33.8l-1.53.1V0h1.53v-6.34l4.14-3.83L19.8 0h1.72c-.1-.31-.64-.98-1.13-1.48l-9.28-9.68 8.78-8.23c.4-.36.77-.77.94-1.13zm0 0"/></symbol><symbol overflow="visible" id="10823e2ec"><path d="M2.92-10.22C2.92-4 6.56.68 12.73.68c7.16 0 9.86-6.16 9.86-11.02 0-6.18-3.6-10.85-9.76-10.85-7.16 0-9.9 6.16-9.9 10.97zm18.1.05c0 3.1-.86 5.62-2.47 7.25a7.76 7.76 0 01-5.68 2.15C7.33-.77 4.5-4.9 4.5-10.34c0-3.3.98-5.91 2.8-7.52a7.83 7.83 0 015.39-1.89c5.4 0 8.33 4.14 8.33 9.58zm0 0"/></symbol><symbol overflow="visible" id="10823e2ed"><path d="M5.94-33.8l-1.53.1v30.6C4.4-.5 5.48.54 7.2.54 8 .55 9 .3 9.85-.05l-.4-1.26c-.73.28-1.5.4-1.94.4-1.04 0-1.58-.76-1.58-2.56zm0 0"/></symbol><symbol overflow="visible" id="10823e2ee"><path d="M4.9-8.9a5.47 5.47 0 00-2.5 4.45C2.4-1.22 4.63.58 7.91.58c3.14 0 6.4-1.61 9.14-3.86L17.6.09l1.32-.18c-.41-4.36-.41-6.35-.41-8.1v-4.33c0-6.2-2.03-8.54-6.13-8.54-3.1 0-6.3 1.36-9 3.33l.68 1.04c2.51-1.67 5.53-2.93 8.23-2.93 3.11 0 4.69 1.76 4.69 7.75v.35c-6.08.46-9.86 1.13-12.06 2.61zM7.93-.87c-2.25 0-3.97-1.2-3.97-3.69 0-1.62 1-2.78 1.86-3.37 1.66-1.08 4.94-1.7 11.16-2.25v5.31C13.95-2.3 10.7-.8 7.92-.86zm0 0"/></symbol><symbol overflow="visible" id="10823e2ef"><path d="M5.4-20.8l-1.35.2c.4 4.27.45 6.43.45 8.08V0h1.53v-13.69c1.7-3.76 4.14-5.8 6.84-5.8 1.08 0 1.9.1 2.83.36l.5-1.17a6.3 6.3 0 00-3.28-.76c-2.98 0-5.31 1.75-6.94 5.04zm0 0"/></symbol><symbol overflow="visible" id="10823e2eh"><path d="M5.92-6.77H1.1V0h4.83v-.8H2.06v-2.26h3.22v-.75H2.06v-2.16h3.86zm0 0"/></symbol><symbol overflow="visible" id="10823e2ei"><path d="M1.83 0l1.42-2h.06l1.46 2H5.8L4-2.53l1.78-2.49H4.8L3.42-3.08h-.08l-1.4-1.94H.89l1.78 2.49L.84 0zm0 0"/></symbol><symbol overflow="visible" id="10823e2ej"><path d="M5.52-4.25v-.77H3.17v-1.56h-.81l-.14 1.56H.75v.77h1.47v2.4c0 1.3.48 1.94 1.84 1.94C4.6.1 5.14 0 5.55-.14L5.4-.91c-.32.13-.72.2-1.13.2-.8 0-1.1-.37-1.1-1.23v-2.31zm0 0"/></symbol><symbol overflow="visible" id="10823e2ek"><path d="M5.75-2.23v-.43c0-1.6-.9-2.51-2.42-2.51S.87-4.16.87-2.48c0 1.71.91 2.62 2.5 2.62 1.43 0 2.07-.56 2.29-1.52l-.9-.09c-.18.61-.59.9-1.35.9-.94 0-1.52-.54-1.58-1.66zm-2.4-2.2c.93 0 1.43.5 1.48 1.55H1.84c.08-1.07.6-1.56 1.5-1.56zm0 0"/></symbol><symbol overflow="visible" id="10823e2el"><path d="M2.16 0v-2.67c0-.99.59-1.63 1.46-1.63.74 0 1.07.38 1.07 1.22V0h.95v-3.31c0-1.2-.56-1.85-1.67-1.85-.92 0-1.49.46-1.77 1.08h-.06l-.12-.94H1.2V0zm0 0"/></symbol><symbol overflow="visible" id="10823e2em"><path d="M2.84.14C3.8.14 4.33-.26 4.6-.9h.07L4.8 0h.76v-7.14h-.95v2.95h-.08c-.28-.6-.86-.97-1.67-.97-1.48 0-2.27.99-2.27 2.64C.6-.84 1.36.14 2.84.14zm.22-.8c-.98 0-1.48-.59-1.48-1.84s.5-1.86 1.48-1.86c1.13 0 1.58.8 1.58 1.86S4.2-.66 3.06-.66zm0 0"/></symbol><symbol overflow="visible" id="10823e2en"><path d="M3.83 0v-5.95H6.2v-.82H.45v.82h2.4V0zm0 0"/></symbol><symbol overflow="visible" id="10823e2eo"><path d="M2.16 0v-2.69c0-.98.6-1.6 1.46-1.6.74 0 1.07.4 1.07 1.2V0h.95v-3.31c0-1.17-.56-1.85-1.67-1.85-.9 0-1.44.46-1.75 1.08h-.06v-3.06H1.2V0zm0 0"/></symbol><symbol overflow="visible" id="10823e2ep"><path d="M3.58-5.81c.42 0 .72-.22.72-.67 0-.44-.3-.68-.72-.68-.44 0-.72.24-.72.68 0 .45.28.67.72.67zm.5.8H1.52v.76h1.6v3.48h-1.8V0h4.46v-.77h-1.7zm0 0"/></symbol><symbol overflow="visible" id="10823e2ew"><path d="M3.83-5.97h1.73v-.8H1.1v.8h1.75v5.19H1.1V0h4.47v-.78H3.83zm0 0"/></symbol><symbol overflow="visible" id="10823e2ex"><path d="M2.83.14c.94 0 1.5-.39 1.81-.95h.08l.1.81h.76v-3.38c0-1.23-.69-1.8-2.13-1.8-1.43 0-2.03.65-2.18 1.6l.93.1c.11-.6.44-.93 1.22-.93.85 0 1.22.32 1.22 1.04v.34l-1.81.2C1.6-2.7 1.1-2.17 1.1-1.28c0 .92.64 1.42 1.72 1.42zm.25-.77c-.67 0-1.02-.28-1.02-.74 0-.44.28-.72 1-.82l1.58-.19v.41c0 .8-.6 1.34-1.56 1.34zm0 0"/></symbol><symbol overflow="visible" id="10823e2ey"><path d="M3.92-7.14H1.36v.76h1.6v5.61H1.15V0H5.7v-.77H3.92zm0 0"/></symbol><symbol overflow="visible" id="10823e2ez"><path d="M3.34.14c1.43 0 2.13-.66 2.25-1.78l-.89-.1c-.1.7-.5 1.08-1.34 1.08-1.03 0-1.52-.64-1.52-1.84 0-1.23.47-1.86 1.52-1.86.84 0 1.23.36 1.34 1.08l.9-.1c-.13-1.09-.82-1.78-2.26-1.78-1.56 0-2.46.97-2.46 2.66 0 1.66.9 2.64 2.46 2.64zm0 0"/></symbol><symbol overflow="visible" id="10823e2eG"><path d="M5.08-5.16c-.94 0-1.58.43-1.9 1.3h-.09l-.07-1.16H1.05v.77h1.1v3.48H.96V0h3.96v-.77H3.1v-1.46c0-1.36.6-2.05 1.83-2.05.4 0 .76.08 1.1.17l.15-.87c-.33-.11-.7-.18-1.11-.18zm0 0"/></symbol><symbol overflow="visible" id="10823e2eH"><path d="M3.16 2.03c1.67 0 2.4-.86 2.4-2.51v-4.54h-.81l-.13.91h-.06c-.26-.58-.8-1.05-1.73-1.05-1.42 0-2.24 1-2.24 2.52 0 1.6.75 2.56 2.2 2.56.94 0 1.5-.5 1.77-1.03h.05v.72c0 1.17-.42 1.67-1.45 1.67-.93 0-1.3-.34-1.41-.89L.8.5c.12.96.87 1.54 2.36 1.54zM3.06-.8c-.98 0-1.48-.57-1.48-1.82 0-1.13.5-1.75 1.48-1.75 1.06 0 1.58.76 1.58 1.75 0 .95-.56 1.82-1.58 1.82zm0 0"/></symbol><symbol overflow="visible" id="10823e2eU"><path d="M2.08-6.77h-.99V0h4.79v-.81h-3.8zm0 0"/></symbol><symbol overflow="visible" id="10823e2eah"><path d="M4.06-2.77c1.25-.04 1.92-.7 1.92-1.96 0-1.36-.7-2.04-2.17-2.04H.92V0h.97v-2.73h1.08L4.95 0h1.1zM1.9-6h1.7c1.07 0 1.46.34 1.46 1.28 0 .9-.44 1.27-1.47 1.27H1.89zm0 0"/></symbol><symbol overflow="visible" id="10823e2eai"><path d="M2.73.14c.9 0 1.43-.45 1.74-1.08h.06l.13.94h.8v-5.02h-.94v2.7c0 .98-.57 1.62-1.46 1.62-.75 0-1.1-.4-1.1-1.22v-3.1h-.93v3.32c0 1.17.55 1.84 1.7 1.84zm0 0"/></symbol><symbol overflow="visible" id="10823e2eav"><path d="M1.64 0v-3.17l-.16-2.5h.1L2.9-1.83h.82l1.35-3.84h.1l-.16 2.5V0h.95v-6.77h-1.3l-1.3 3.82h-.09L2-6.77H.69V0zm0 0"/></symbol><symbol overflow="visible" id="10823e2eaw"><path d="M1.63 0v-2.9c0-.8.15-1.4.71-1.4.41 0 .55.3.55.88V0h.95v-2.9c0-.8.18-1.4.72-1.4.4 0 .57.3.57.88V0h.95v-3.63c0-.92-.28-1.53-1.11-1.53-.63 0-.95.41-1.1.9h-.06c-.1-.52-.44-.9-1.08-.9-.6 0-.93.41-1.06.9H1.6l-.23-.76H.67V0zm0 0"/></symbol><symbol overflow="visible" id="10823e2eaJ"><path d="M3.42.14c1.61 0 2.56-.75 2.56-2 0-1.1-.67-1.6-1.95-1.86l-.97-.2c-.87-.17-1.23-.49-1.23-1.11 0-.7.54-1.11 1.5-1.11 1.06 0 1.51.34 1.69 1.23l.9-.09c-.17-1.28-.98-1.9-2.6-1.9C1.79-6.9.9-6.18.9-4.98c0 1.06.66 1.66 1.88 1.9l1.01.2c.85.17 1.25.4 1.25 1.09 0 .73-.6 1.16-1.6 1.16-1.07 0-1.66-.4-1.8-1.24l-.94.1C.83-.53 1.75.13 3.42.13zm0 0"/></symbol><symbol overflow="visible" id="10823e2eaK"><path d="M3.9.14c1.48 0 2.18-.98 2.18-2.64 0-1.67-.7-2.66-2.17-2.66-.91 0-1.49.41-1.79 1h-.06v-2.98h-.95V0h.81l.11-.9h.06c.29.63.82 1.04 1.82 1.04zm-.32-.8c-1.08 0-1.55-.8-1.55-1.84 0-1.06.47-1.86 1.55-1.86 1.1 0 1.51.61 1.51 1.86S4.64-.66 3.58-.66zm0 0"/></symbol><symbol overflow="visible" id="10823e2eaL"><path d="M3.33.14c1.62 0 2.5-.95 2.5-2.66 0-1.68-.88-2.64-2.5-2.64-1.63 0-2.5.96-2.5 2.64 0 1.7.87 2.66 2.5 2.66zm0-.77c-1.06 0-1.52-.6-1.52-1.89 0-1.28.46-1.87 1.52-1.87 1.08 0 1.53.6 1.53 1.87 0 1.29-.45 1.9-1.53 1.9zm0 0"/></symbol><symbol overflow="visible" id="10823e2eaY"><path d="M4.66-3.45c.76-.14 1.15-.67 1.15-1.57 0-1.07-.64-1.75-2.18-1.75H.92V0h2.71C5.2 0 5.98-.64 5.98-1.77c0-1.03-.56-1.43-1.32-1.59zM3.56-6c.9 0 1.31.4 1.31 1.13 0 .71-.4 1.14-1.3 1.14h-1.7V-6zM1.87-.75v-2.27H3.6c.97 0 1.44.33 1.44 1.13 0 .8-.47 1.14-1.44 1.14zm0 0"/></symbol><symbol overflow="visible" id="10823e2ebx"><path d="M5.77-5.02H4.63L2.3-2.88h-.06v-4.26h-.94V0h.94v-2.31h.06L4.71 0h1.24L3.23-2.69zm0 0"/></symbol><symbol overflow="visible" id="10823e2eq"><path d="M4.77-22.6c0 4.38 3.65 6.54 7.3 7.83 4 1.41 7.96 2.94 7.96 6.75 0 1.72-.6 3.16-1.53 4.24-1.63 1.84-4.38 2.84-7.44 2.84-3.1 0-6.42-.81-9-2.8l-.94 1.27C3.6-.27 7.47.67 10.95.67c5.8 0 10.7-2.92 10.7-8.95 0-4.55-4.98-6.61-8.19-7.74-2.97-1.04-6.92-2.75-6.92-6.62 0-1.44.44-2.66 1.2-3.6 1.58-1.98 4.43-2.96 7.52-2.96 2.97 0 5.77.62 7.44 1.34l.75-1.34c-1.52-.86-4.58-1.63-7.9-1.63-5.56 0-10.77 2.61-10.77 8.24zm0 0"/></symbol><symbol overflow="visible" id="10823e2er"><path d="M19.7-20.56h-1.84L5.17-9.31 8.42-33.8l-1.62.1L2.34 0h1.61l1-7.42 3.6-3.02L16.2 0h1.75c0-.22-.53-.94-.89-1.44l-7.34-10 9.05-7.9c.4-.41.93-.86.93-1.22zm0 0"/></symbol><symbol overflow="visible" id="10823e2es"><path d="M2.25-8.1C2.25-2.96 5 .68 10.13.68c5.76 0 10.74-5.94 10.74-12.86 0-4.9-2.51-9.04-7.82-9.04-5.94 0-10.8 6.42-10.8 13.14zm16.92-4.06c0 4.7-2.03 8.24-4.86 10.1a7.53 7.53 0 01-4.04 1.2C5.89-.86 3.92-4 3.92-8.19c0-4.45 1.92-8.28 4.94-10.31a7.61 7.61 0 014.02-1.2c4.54 0 6.3 3.5 6.3 7.54zm0 0"/></symbol><symbol overflow="visible" id="10823e2et"><path d="M5.22.55c1.31 0 2.25-.46 2.66-.77l-.41-1.1c-.5.24-1.17.41-1.84.41-1.22 0-1.54-.76-1.32-2.6L8.38-33.8l-1.63.1L2.7-3.2C2.4-.8 3.47.55 5.22.55zm0 0"/></symbol><symbol overflow="visible" id="10823e2eu"><path d="M2.2-7.16c0 4.2 1.53 7.83 5 7.83 3.2 0 6.11-2.42 8.55-4.76L15.7.09 17.14 0c.14-3.42.23-5.08.4-6.4l1.85-12.27.1-.24c-1.7-1.25-3.55-2.32-5.94-2.32-6.4 0-11.35 6.42-11.35 14.07zm1.67 0c0-5.76 3.02-10.62 6.75-12.06a7.6 7.6 0 012.7-.48c1.57 0 3.1.48 4.46 1.39L15.8-5.84c-2.3 2.2-5.63 4.98-8.28 5.03-2.57-.05-3.64-2.92-3.64-6.35zm0 0"/></symbol><symbol overflow="visible" id="10823e2ev"><path d="M6.2-20.66l-1.56.14c-.4 6.66-.64 8.46-.81 9.99L2.43 0h1.62l1.58-11.7c2.8-4.46 5.62-7.74 8.5-7.74a4.5 4.5 0 012.17.46l.62-1.22a4.4 4.4 0 00-2.7-.9c-3.11 0-5.85 2.6-8.28 6.66zm0 0"/></symbol><symbol overflow="visible" id="10823e2eA"><path d="M3.56-22.23c0 5.36 4.67 6.84 9.17 7.92 4.55 1.08 9.22 2.03 9.22 6.53 0 4.72-4.98 6.2-8.86 6.2-3.54 0-6.84-.94-9.71-2.78L2.3-2.44C5.05-.36 9.22.67 12.92.67c5.63 0 11.56-2.37 11.56-8.6 0-6.12-5.71-7.27-10.3-8.4-4.27-1-8.1-2.12-8.1-6.22 0-4.76 5.03-5.98 8.64-5.98 2.7 0 5.8.67 7.78 1.39l.81-1.92c-2.03-1-5.12-1.77-8.28-1.77-5.45 0-11.47 2.35-11.47 8.6zm0 0"/></symbol><symbol overflow="visible" id="10823e2eB"><path d="M21.6-20.7h-2.62L6.61-8.86V-33.8l-2.38.1V0h2.38v-5.98l3.97-3.74L19.62 0h2.66c-.1-.4-.64-1.13-1.17-1.7l-8.92-9.6 8.37-8.01c.5-.49.86-.94 1.03-1.4zm0 0"/></symbol><symbol overflow="visible" id="10823e2eC"><path d="M2.8-10.13C2.8-3.87 6.56.68 12.73.68 19.98.67 23-5.4 23-10.58c0-6.25-3.73-10.8-9.95-10.8-7.2 0-10.25 6.13-10.25 11.25zm17.72-.14c0 3.11-.85 5.41-2.33 6.9A7.13 7.13 0 0113-1.45c-5.13 0-7.78-3.83-7.78-9 0-3.25.98-5.62 2.56-7.06a7.23 7.23 0 015.05-1.77c4.98 0 7.69 3.83 7.69 9zm0 0"/></symbol><symbol overflow="visible" id="10823e2eD"><path d="M6.56-33.8l-2.33.1v30.18C4.23-.67 5.41.55 7.56.55c.86 0 2.02-.24 3.02-.64l-.55-1.85c-.72.24-1.44.36-1.89.36-1.08 0-1.58-.67-1.58-2.42zm0 0"/></symbol><symbol overflow="visible" id="10823e2eE"><path d="M4.9-9.22a5.76 5.76 0 00-2.65 4.67C2.25-1.3 4.45.58 7.97.58c3.06 0 6.16-1.49 8.86-3.69l.6 3.25 2-.28c-.4-4.55-.4-6.52-.4-8.28v-4.17c0-6.27-2.2-8.64-6.56-8.64-3.28 0-6.53 1.34-9.19 3.37l.9 1.53c2.52-1.62 5.4-2.8 7.98-2.8 3.01 0 4.5 1.68 4.5 7.25v.13c-5.99.45-9.6 1.13-11.75 2.53zm3.33 7.78c-2.1 0-3.59-1.08-3.59-3.33 0-1.53.9-2.56 1.7-3.1 1.49-.99 4.55-1.58 10.32-2.04v4.83c-2.9 2.33-5.91 3.69-8.43 3.64zm0 0"/></symbol><symbol overflow="visible" id="10823e2eF"><path d="M5.9-21.02l-2.03.27c.41 4.55.44 6.7.44 8.42V0h2.4v-13.69c1.71-3.37 4.04-5.08 6.65-5.08 1.05 0 1.89.1 2.84.32l.58-1.99a6.5 6.5 0 00-3.33-.8c-2.92 0-5.22 1.7-6.89 4.77zm0 0"/></symbol><symbol overflow="visible" id="10823e2eI"><path d="M4.55-22.55c0 4.36 3.54 6.58 7.25 8.07 4.17 1.56 7.64 2.96 7.64 6.51 0 1.44-.46 2.7-1.25 3.66-1.46 1.7-4.11 2.73-7.16 2.73-3.06 0-6.34-.89-8.83-2.7L1.03-2.4C3.47-.36 7.33.67 10.98.67c6.08 0 10.94-2.97 10.94-8.95 0-4.6-4.64-6.66-8.15-8.02-3.2-1.25-6.66-2.82-6.66-6.34 0-1.25.4-2.33 1.12-3.28 1.58-1.75 4.1-2.66 6.94-2.66 3.05 0 5.85.67 7.55 1.44l1-1.92c-1.63-.96-4.86-1.77-8.28-1.77-5.81 0-10.9 2.75-10.9 8.28zm0 0"/></symbol><symbol overflow="visible" id="10823e2eJ"><path d="M20.52-20.75h-2.7L5.93-9.94 9.09-33.8l-2.43.1L2.2 0h2.44l.94-7.33 3.37-2.75L16.02 0h2.6c0-.31-.53-1.08-.93-1.7l-7.02-9.86 8.64-7.61c.58-.5 1.2-1.08 1.2-1.58zm0 0"/></symbol><symbol overflow="visible" id="10823e2eK"><path d="M2.1-8.23c0 5.3 2.85 8.9 8.12 8.9 6.2 0 11.06-6.2 11.06-13 0-5.1-2.56-9.1-8-9.1-6.39 0-11.17 6.59-11.17 13.2zm16.71-4.05c0 4.4-1.89 7.97-4.54 9.72a7.35 7.35 0 01-3.79 1.08c-3.95 0-5.89-2.93-5.89-6.8 0-4.19 1.8-7.97 4.6-9.94a7.45 7.45 0 013.76-1.05c4.2 0 5.86 3.16 5.86 6.99zm0 0"/></symbol><symbol overflow="visible" id="10823e2eL"><path d="M5.53.55C7.02.55 8.1.09 8.6-.27l-.45-1.62c-.48.19-1.17.31-1.8.31-1.21 0-1.53-.72-1.3-2.47L9-33.8l-2.44.1L2.61-3.6C2.25-.93 3.42.56 5.53.56zm0 0"/></symbol><symbol overflow="visible" id="10823e2eM"><path d="M2.06-7.16C2.06-2.87 3.64.63 7.3.63c3.01 0 6.06-2.25 8.4-4.46l.1 3.97 2.06-.23c.19-3.64.28-5.35.45-6.7l1.8-12.2.05-.14c-1.85-1.26-3.79-2.3-6.3-2.3-6.75 0-11.8 6.4-11.8 14.27zm2.49-.21c0-5.32 2.6-9.91 6.12-11.4a8.6 8.6 0 012.74-.5c1.36 0 2.84.36 4.18 1.08L15.75-6.08c-2.1 1.99-5.36 4.46-7.97 4.55-2.25-.1-3.23-2.61-3.23-5.84zm0 0"/></symbol><symbol overflow="visible" id="10823e2eN"><path d="M6.7-20.88l-2.15.22c-.46 6.58-.67 8.47-.86 10.04L2.29 0h2.43L6.3-11.88c2.65-4.14 5.3-6.98 8.01-6.98 1.03 0 1.7.23 2.11.45l.86-2.03a4.7 4.7 0 00-2.8-.84c-3.01 0-5.53 2.3-7.82 6.1zm0 0"/></symbol><symbol overflow="visible" id="10823e2eO"><path d="M3.38-22.05c0 5.49 4.85 7.02 9.35 8.14 4.41 1.08 8.7 1.94 8.7 6.04 0 4.3-4.6 5.62-8.38 5.62-3.55 0-6.75-.9-9.63-2.6L2.16-2.4C4.9-.36 9.09.67 12.96.67 18.9.67 24.8-1.8 24.8-8.06c0-6.06-5.53-7.38-10.36-8.6-4.13-1.03-7.69-2.01-7.69-5.75 0-4.4 4.69-5.5 8.06-5.5 2.83 0 5.9.7 7.88 1.46l1.03-2.53a20.42 20.42 0 00-8.6-1.85c-5.76 0-11.74 2.52-11.74 8.78zm0 0"/></symbol><symbol overflow="visible" id="10823e2eP"><path d="M22.31-20.88h-3.4L7.3-9.45V-33.8l-3.25.1V0H7.3v-5.67l3.8-3.64L19.49 0h3.6a7.09 7.09 0 00-1.25-1.94l-8.6-9.45 8-7.88c.6-.57.96-1.12 1.08-1.6zm0 0"/></symbol><symbol overflow="visible" id="10823e2eQ"><path d="M2.6-10.08C2.6-3.73 6.57.67 12.74.67c7.33 0 10.63-5.98 10.63-11.47 0-6.3-3.88-10.76-10.05-10.76-7.28 0-10.7 6.03-10.7 11.48zm17.43-.23c0 3.01-.86 5.14-2.17 6.44a6.57 6.57 0 01-4.77 1.8c-4.67 0-7.15-3.5-7.15-8.46 0-3.16.95-5.31 2.39-6.61a6.58 6.58 0 014.62-1.63c4.6 0 7.08 3.52 7.08 8.46zm0 0"/></symbol><symbol overflow="visible" id="10823e2eR"><path d="M7.25-33.8L4-33.7v29.83C4-.87 5.36.54 7.88.54c.98 0 2.3-.24 3.42-.7l-.72-2.46c-.67.27-1.36.36-1.85.36-1.04 0-1.48-.63-1.48-2.34zm0 0"/></symbol><symbol overflow="visible" id="10823e2eS"><path d="M4.95-9.55a5.91 5.91 0 00-2.8 4.9C2.16-1.43 4.32.59 7.98.59c3.06 0 6.03-1.4 8.64-3.5l.62 3.1 2.75-.37c-.4-4.67-.45-6.7-.45-8.45v-4.1c0-6.3-2.3-8.68-6.97-8.68-3.47 0-6.75 1.36-9.4 3.42l1.15 2.06c2.49-1.6 5.24-2.64 7.7-2.64 2.93 0 4.32 1.49 4.32 6.61-5.85.4-9.36 1.13-11.38 2.42zM8.5-2.03c-1.94 0-3.19-.94-3.19-2.97 0-1.4.77-2.33 1.53-2.88 1.4-.85 4.2-1.39 9.49-1.8v4.41C13.59-3.16 10.8-1.98 8.5-2.03zm0 0"/></symbol><symbol overflow="visible" id="10823e2eT"><path d="M6.44-21.19l-2.75.36c.4 4.77.45 6.92.45 8.67V0h3.24v-13.6c1.71-3.06 3.96-4.5 6.48-4.5 1.03 0 1.84.1 2.83.37l.68-2.88a6.7 6.7 0 00-3.42-.81c-2.84 0-5.1 1.62-6.8 4.6zm0 0"/></symbol><symbol overflow="visible" id="10823e2eV"><path d="M4.28-22.5c0 4.4 3.5 6.6 7.28 8.23 4.28 1.8 7.3 3.11 7.3 6.3 0 1.22-.36 2.25-1 3.16C16.6-3.28 14-2.25 11.03-2.25c-3.06 0-6.31-.9-8.73-2.56L.9-2.34C3.34-.41 7.2.67 11.07.67c6.27 0 11.13-3.01 11.13-8.9 0-4.7-4.28-6.75-8.07-8.38-3.45-1.44-6.43-2.87-6.43-5.98 0-1.13.33-2.11 1.1-3.02 1.52-1.48 3.77-2.3 6.34-2.3 3.14 0 5.93.7 7.64 1.46l1.21-2.49c-1.7-.98-5.12-1.89-8.64-1.89-6.12 0-11.06 2.92-11.06 8.33zm0 0"/></symbol><symbol overflow="visible" id="10823e2eW"><path d="M21.28-20.92h-3.5L6.7-10.62 9.77-33.8l-3.24.1L2.06 0h3.25l.94-7.2 3.1-2.52L15.9 0h3.42c0-.45-.5-1.27-.95-1.94l-6.7-9.76 8.23-7.24c.72-.68 1.4-1.4 1.4-1.98zm0 0"/></symbol><symbol overflow="visible" id="10823e2eX"><path d="M1.98-8.33c0 5.46 2.93 9 8.29 9 6.7 0 11.46-6.48 11.46-13.19 0-5.17-2.7-9.07-8.23-9.07-6.84 0-11.52 6.7-11.52 13.26zm16.43-4.1c0 4.1-1.72 7.66-4.14 9.41-.99.55-2.25.91-3.57.91-3.54 0-5.43-2.7-5.43-6.27 0-3.9 1.67-7.68 4.23-9.53a7 7 0 013.5-.9c3.88 0 5.4 2.75 5.4 6.39zm0 0"/></symbol><symbol overflow="visible" id="10823e2eY"><path d="M5.9.55c1.57 0 2.88-.5 3.41-.82l-.5-2.25c-.48.18-1.15.32-1.8.32-1.12 0-1.48-.67-1.24-2.4l3.86-29.2-3.24.1L2.52-4.05c-.36 2.92.8 4.6 3.37 4.6zm0 0"/></symbol><symbol overflow="visible" id="10823e2eZ"><path d="M1.94-7.16C1.94-2.83 3.52.63 7.33.63c2.98 0 6.03-2.11 8.37-4.22l.2 3.78 2.68-.33c.19-3.9.36-5.67.55-7.11l1.7-12.06v-.08c-1.97-1.27-4.05-2.2-6.66-2.2-7.06 0-12.23 6.39-12.23 14.43zm3.28-.45c0-4.9 2.16-9.12 5.45-10.7a8.71 8.71 0 012.78-.46c1.27 0 2.66.27 3.97.82L15.7-6.35c-1.98 1.76-5.07 3.96-7.6 4.05-1.97-.1-2.88-2.25-2.88-5.3zm0 0"/></symbol><symbol overflow="visible" id="10823e2eaa"><path d="M7.2-21.1l-2.75.27c-.45 6.56-.67 8.45-.89 10.13L2.16 0H5.4l1.56-12.02c2.53-3.87 5-6.25 7.51-6.25 1 0 1.68.22 2.08.46l1.08-2.8a4.88 4.88 0 00-2.87-.86c-2.97 0-5.27 2.03-7.47 5.58zm0 0"/></symbol><symbol overflow="visible" id="10823e2eab"><path d="M3.19-21.95c0 5.62 5 7.14 9.5 8.3 4.33 1.09 8.33 1.95 8.33 5.73 0 3.97-4.33 5.17-7.97 5.17-3.55 0-6.7-.9-9.58-2.52L2.03-2.34C4.77-.41 9 .67 12.95.67c6.18 0 12.11-2.56 12.11-8.86 0-5.98-5.43-7.37-10.43-8.73-4.05-.99-7.38-1.94-7.38-5.4 0-4.13 4.45-5.09 7.64-5.09 2.9 0 5.9.68 7.92 1.44l1.17-2.97a21.25 21.25 0 00-8.78-1.89c-6.01 0-12.01 2.66-12.01 8.88zm0 0"/></symbol><symbol overflow="visible" id="10823e2eac"><path d="M22.9-21.02h-4.04L7.83-9.94V-33.8l-3.9.1V0h3.9v-5.4l3.69-3.55L19.34 0h4.33a6 6 0 00-1.31-2.06l-8.31-9.4 7.68-7.76c.68-.67 1.08-1.25 1.18-1.8zm0 0"/></symbol><symbol overflow="visible" id="10823e2ead"><path d="M2.52-10.03C2.52-3.6 6.53.67 12.73.67c7.38 0 10.94-5.94 10.94-11.65 0-6.35-4-10.7-10.17-10.7-7.38 0-10.98 5.98-10.98 11.65zm17.15-.31c0 2.96-.86 4.9-2.08 6.1a5.86 5.86 0 01-4.4 1.68c-4.33 0-6.66-3.28-6.66-8.06 0-3.1.9-5.08 2.2-6.26a6.12 6.12 0 014.32-1.53c4.32 0 6.62 3.29 6.62 8.07zm0 0"/></symbol><symbol overflow="visible" id="10823e2eae"><path d="M7.73-33.8l-3.86.1V-4.2C3.88-.99 5.31.55 8.14.55 9.2.55 10.58.3 11.83-.2l-.8-2.92c-.69.28-1.31.36-1.81.36-1.08 0-1.49-.58-1.49-2.25zm0 0"/></symbol><symbol overflow="visible" id="10823e2eaf"><path d="M4.95-9.81A6.12 6.12 0 002.06-4.7C2.06-1.53 4.2.55 8.02.55c3.01 0 5.84-1.27 8.45-3.38l.67 3.05 3.25-.44c-.36-4.83-.45-6.8-.45-8.6v-4c0-6.3-2.44-8.74-7.35-8.74-3.54 0-6.92 1.36-9.53 3.42l1.4 2.48c2.43-1.57 5.09-2.56 7.42-2.56 2.89 0 4.18 1.4 4.23 6.06-5.77.41-9.17 1.13-11.16 2.35zm.9 4.69a3.1 3.1 0 011.4-2.7c1.3-.82 3.86-1.32 8.86-1.68v4.06c-2.61 1.97-5.27 3-7.38 3-1.8 0-2.89-.89-2.89-2.69zm0 0"/></symbol><symbol overflow="visible" id="10823e2eag"><path d="M6.84-21.38l-3.28.46c.36 4.95.44 7.15.44 8.95V0h3.88v-13.55c1.7-2.75 3.92-4 6.34-4 1.03 0 1.84.1 2.84.36l.72-3.51a6.59 6.59 0 00-3.42-.86c-2.8 0-5 1.62-6.75 4.47zm0 0"/></symbol><symbol overflow="visible" id="10823e2eaj"><path d="M4.1-22.45c0 4.4 3.42 6.65 7.3 8.37 4.35 1.92 7.05 3.14 7.05 6.16 0 .98-.3 1.89-.8 2.7-1.18 1.44-3.7 2.47-6.67 2.47-3.01 0-6.26-.94-8.59-2.47L.81-2.3C3.23-.45 7.06.67 11.11.67c6.44 0 11.25-3.06 11.25-8.9 0-4.7-3.95-6.8-8-8.6-3.66-1.58-6.17-2.92-6.17-5.76 0-1.04.23-1.9 1-2.74a8.5 8.5 0 015.89-2.08c3.19 0 5.98.72 7.69 1.49l1.43-2.92c-1.84-1.04-5.34-1.99-8.95-1.99-6.3 0-11.16 3.02-11.16 8.38zm0 0"/></symbol><symbol overflow="visible" id="10823e2eak"><path d="M21.92-21.1h-4.14l-10.53 10 3.02-22.7-3.88.1L1.94 0H5.8l.94-7.16 2.92-2.3L15.75 0h4.05c0-.55-.46-1.34-.94-2.1l-6.48-9.7 7.92-7.01c.86-.77 1.62-1.58 1.62-2.3zm0 0"/></symbol><symbol overflow="visible" id="10823e2eal"><path d="M1.9-8.42c0 5.54 2.96 9.1 8.41 9.1 7.06 0 11.74-6.66 11.74-13.27 0-5.32-2.74-9.2-8.4-9.2-7.12 0-11.76 6.9-11.76 13.37zm16.24-4.14c0 3.92-1.62 7.48-3.92 9.19-.9.45-2.11.76-3.33.76-3.23 0-5.08-2.47-5.08-5.81 0-3.69 1.52-7.47 3.96-9.27a7.21 7.21 0 013.28-.81c3.64 0 5.1 2.48 5.1 5.94zm0 0"/></symbol><symbol overflow="visible" id="10823e2eam"><path d="M6.13.55c1.7 0 3.14-.5 3.78-.86l-.55-2.66c-.55.14-1.17.27-1.8.27-1.12 0-1.43-.67-1.22-2.35l3.74-28.75-3.83.1L2.47-4.36c-.4 3.14.81 4.9 3.65 4.9zm0 0"/></symbol><symbol overflow="visible" id="10823e2ean"><path d="M1.8-7.16C1.8-2.8 3.42.58 7.38.58c2.89 0 6.03-1.97 8.32-4l.24 3.64 3.23-.4c.17-4.1.36-5.95.53-7.38l1.68-11.92v-.1c-2.07-1.25-4.24-2.2-6.97-2.2C7.06-21.78 1.8-15.4 1.8-7.16zm3.97-.57c0-4.6 1.84-8.64 4.93-10.22a8.44 8.44 0 012.8-.46c1.17 0 2.47.22 3.78.68L15.7-6.53c-1.89 1.58-4.9 3.56-7.37 3.7-1.8-.19-2.56-2.03-2.56-4.9zm0 0"/></symbol><symbol overflow="visible" id="10823e2eao"><path d="M7.6-21.28l-3.24.36c-.44 6.48-.67 8.45-.9 10.17L2.04 0H5.9l1.58-12.16c2.44-3.54 4.76-5.62 7.2-5.62.9 0 1.63.23 2.02.36l1.22-3.38a5.85 5.85 0 00-2.97-.84c-2.88 0-5.03 1.89-7.16 5.27zm0 0"/></symbol><symbol overflow="visible" id="10823e2eap"><path d="M3.06-21.83c0 5.77 5.13 7.3 9.63 8.52 4.19 1.08 7.92 1.87 7.92 5.3 0 3.65-4.05 4.73-7.61 4.73-3.55 0-6.6-.9-9.48-2.44L1.89-2.25C4.64-.41 8.91.67 13 .67c6.4 0 12.33-2.7 12.33-8.95 0-5.94-5.3-7.47-10.49-8.86-3.9-1.05-7.06-1.9-7.06-5.1 0-3.82 4.14-4.62 7.25-4.62 2.92 0 5.9.67 7.92 1.4l1.35-3.38a21 21 0 00-9-1.99c-6.35 0-12.24 2.8-12.24 9zm0 0"/></symbol><symbol overflow="visible" id="10823e2eaq"><path d="M23.48-21.16h-4.71L8.37-10.44V-33.8l-4.59.1V0h4.6v-5.13l3.54-3.46L19.22 0h5.12a7.87 7.87 0 00-1.39-2.25l-8.01-9.36 7.34-7.52c.77-.8 1.16-1.43 1.2-2.03zm0 0"/></symbol><symbol overflow="visible" id="10823e2ear"><path d="M2.4-9.94C2.4-3.52 6.52.67 12.72.67c7.43 0 11.25-5.84 11.25-11.83 0-6.43-4.09-10.67-10.3-10.67-7.43 0-11.29 5.94-11.29 11.9zm16.87-.5c0 2.97-.86 4.77-1.94 5.85a5.65 5.65 0 01-4.02 1.48c-4 0-6.2-3.02-6.2-7.6 0-3 .9-4.82 2.03-5.85.8-.86 2.2-1.44 4-1.44 4 0 6.13 3.02 6.13 7.56zm0 0"/></symbol><symbol overflow="visible" id="10823e2eas"><path d="M8.23-33.8l-4.54.1v29.2C3.69-1.12 5.22.55 8.42.55c1.13 0 2.64-.24 4-.77l-.95-3.37c-.63.21-1.2.3-1.75.3-1.08 0-1.49-.54-1.49-2.15zm0 0"/></symbol><symbol overflow="visible" id="10823e2eat"><path d="M5-10.03a6.18 6.18 0 00-3.06 5.31c0 3.1 2.1 5.27 6.08 5.27 2.96 0 5.75-1.22 8.28-3.25l.72 2.97 3.8-.54C20.48-5.22 20.4-7.2 20.4-9v-3.92c0-6.35-2.58-8.77-7.7-8.77-3.69 0-7.11 1.35-9.72 3.47l1.58 2.88c2.47-1.58 4.95-2.47 7.25-2.47 2.73 0 4 1.3 4.04 5.48-5.67.4-8.95 1.13-10.84 2.3zm1.4 4.72c0-1.3.57-2.07 1.29-2.52C8.86-8.5 11.2-9 15.84-9.27v3.64c-2.48 1.8-4.95 2.7-6.84 2.7-1.7 0-2.6-.76-2.6-2.38zm0 0"/></symbol><symbol overflow="visible" id="10823e2eau"><path d="M7.25-21.56l-3.83.5c.36 5.17.46 7.37.46 9.23V0h4.54v-13.4c1.7-2.54 3.86-3.57 6.2-3.57.99 0 1.85.1 2.83.31l.82-4.17a6.65 6.65 0 00-3.46-.86c-2.8 0-4.95 1.53-6.72 4.32zm0 0"/></symbol><symbol overflow="visible" id="10823e2eax"><path d="M3.92-22.4c0 4.4 3.38 6.7 7.24 8.54 4.5 2.11 6.8 3.19 6.8 5.94 0 .81-.18 1.58-.59 2.25-1 1.36-3.46 2.44-6.39 2.44a17 17 0 01-8.46-2.44L.72-2.2C3.16-.55 6.97.67 11.16.67c6.65 0 11.43-3.1 11.43-8.86 0-4.76-3.65-6.89-7.96-8.87-3.83-1.75-5.94-3-5.94-5.49 0-.93.17-1.65.89-2.56a8.78 8.78 0 015.4-1.8c3.33 0 6.13.82 7.83 1.58l1.63-3.42c-1.94-1.08-5.58-2.08-9.27-2.08-6.53 0-11.25 3.16-11.25 8.42zm0 0"/></symbol><symbol overflow="visible" id="10823e2eay"><path d="M22.55-21.23h-4.82L7.87-11.7l2.93-22.1-4.5.1L1.84 0h4.5l.96-7.06L9.98-9.2 15.61 0h4.73c0-.63-.45-1.48-1-2.34l-6.15-9.58 7.56-6.7c.98-.86 1.8-1.82 1.8-2.61zm0 0"/></symbol><symbol overflow="visible" id="10823e2eaz"><path d="M1.8-8.55C1.8-2.83 4.8.67 10.4.67c7.41 0 12-6.87 12-13.4 0-5.46-2.77-9.2-8.59-9.2-7.47 0-12.01 7-12.01 13.38zm16.01-4.1c0 3.65-1.48 7.24-3.6 8.87-.9.4-2.02.62-3.15.62-2.87 0-4.67-2.28-4.67-5.3 0-3.5 1.4-7.24 3.6-9 .85-.4 1.93-.63 3.15-.63 3.33 0 4.67 2.15 4.67 5.45zm0 0"/></symbol><symbol overflow="visible" id="10823e2eaA"><path d="M6.4.55c1.83 0 3.37-.55 4.08-.86l-.54-3.16c-.58.1-1.2.24-1.8.24-1.08 0-1.44-.65-1.2-2.25l3.68-28.32-4.5.1L2.4-4.72c-.45 3.38.84 5.27 4 5.27zm0 0"/></symbol><symbol overflow="visible" id="10823e2eaB"><path d="M1.7-7.16C1.7-2.7 3.33.58 7.47.58c2.75 0 5.94-1.92 8.23-3.81l.27 3.5 3.78-.54c.19-4.28.45-6.12.64-7.65l1.53-11.78.03-.05c-2.2-1.27-4.45-2.17-7.28-2.17-7.6 0-12.97 6.36-12.97 14.76zm4.6-.76c0-4.24 1.53-8.05 4.4-9.67a10 10 0 012.9-.46c1.03 0 2.3.2 3.54.55L15.66-6.7c-1.75 1.39-4.68 3.1-7.11 3.23-1.53-.17-2.25-1.7-2.25-4.45zm0 0"/></symbol><symbol overflow="visible" id="10823e2eaC"><path d="M8.02-21.47l-3.74.4c-.5 6.45-.72 8.48-.9 10.23L1.94 0h4.5l1.62-12.23c2.25-3.33 4.46-5.05 6.75-5.05.85 0 1.61.22 1.97.36l1.44-4.05a6.19 6.19 0 00-3.05-.81c-2.84 0-4.83 1.67-6.84 4.86zm0 0"/></symbol><symbol overflow="visible" id="10823e2eaD"><path d="M2.88-21.64c0 5.84 5.26 7.42 9.8 8.69 4.05 1.07 7.43 1.84 7.43 4.86 0 3.28-3.69 4.17-7.16 4.17-3.5 0-6.51-.85-9.39-2.28l-1.81 4C4.5-.45 8.78.67 13 .67c6.7 0 12.66-2.78 12.66-9.1 0-5.88-5.2-7.5-10.54-9.02-3.82-1.05-6.7-1.82-6.7-4.64 0-3.52 3.81-4.14 6.7-4.14a25 25 0 018 1.39l1.54-3.91a21.04 21.04 0 00-9.27-2.08c-6.66 0-12.52 2.97-12.52 9.19zm0 0"/></symbol><symbol overflow="visible" id="10823e2eaE"><path d="M24.2-21.33h-5.53L9-11.06V-33.8l-5.4.1V0H9v-4.81l3.42-3.38L19.08 0h5.98a7.74 7.74 0 00-1.43-2.47l-7.7-9.23 6.98-7.38c.86-.9 1.26-1.58 1.3-2.25zm0 0"/></symbol><symbol overflow="visible" id="10823e2eaF"><path d="M2.25-9.9C2.25-3.38 6.53.66 12.73.66c7.52 0 11.61-5.75 11.61-12.06 0-6.47-4.23-10.61-10.43-10.61C6.44-22 2.25-16.1 2.25-9.9zm16.56-.58c0 2.92-.86 4.5-1.8 5.43a5.1 5.1 0 01-3.6 1.32c-3.6 0-5.63-2.7-5.63-7.07 0-2.97.9-4.54 1.84-5.45a5 5 0 013.66-1.3c3.6 0 5.53 2.74 5.53 7.07zm0 0"/></symbol><symbol overflow="visible" id="10823e2eaG"><path d="M8.86-33.8l-5.34.1v28.84c0 3.55 1.65 5.4 5.21 5.4 1.2 0 2.88-.23 4.36-.8l-1.07-3.97a4.7 4.7 0 01-1.7.3c-1.1 0-1.46-.48-1.46-2.05zm0 0"/></symbol><symbol overflow="visible" id="10823e2eaH"><path d="M5-10.34a6.4 6.4 0 00-3.16 5.53c0 3.1 2.08 5.36 6.22 5.36 2.92 0 5.58-1.13 8.05-3.11L16.83.3l4.5-.62c-.36-5.1-.45-7.11-.45-8.9V-13c0-6.4-2.7-8.88-8.1-8.88-3.87 0-7.34 1.36-9.9 3.52l1.8 3.38c2.43-1.54 4.82-2.35 6.98-2.35 2.6 0 3.78 1.13 3.9 4.77-5.58.4-8.76 1.12-10.56 2.22zm2.02 4.8c0-1.16.5-1.83 1.17-2.24 1.03-.6 3.1-1.03 7.37-1.27v3.2c-2.37 1.62-4.62 2.38-6.3 2.38-1.53 0-2.24-.67-2.24-2.06zm0 0"/></symbol><symbol overflow="visible" id="10823e2eaI"><path d="M7.73-21.73l-4.5.57c.36 5.41.46 7.61.46 9.5V0h5.36v-13.28a7.24 7.24 0 016.03-3.02c.98 0 1.84.1 2.83.33l.9-5c-.86-.5-1.98-.9-3.51-.9-2.74 0-4.9 1.53-6.66 4.18zm0 0"/></symbol><symbol overflow="visible" id="10823e2eaM"><path d="M3.69-22.36c0 4.4 3.28 6.75 7.25 8.72 4.62 2.3 6.48 3.3 6.48 5.77 0 .54-.1 1.12-.33 1.7-.84 1.22-3.23 2.3-6.15 2.3-2.97 0-6.13-1.08-8.33-2.3L.63-2.16C3.02-.58 6.83.67 11.2.67c6.9 0 11.66-3.14 11.66-8.86 0-4.81-3.33-6.94-7.92-9.14-4.05-1.94-5.72-3.06-5.72-5.22 0-.76.14-1.39.86-2.25a8.92 8.92 0 014.86-1.48c3.37 0 6.17.81 7.92 1.62l1.84-3.96c-2.01-1.18-5.84-2.2-9.62-2.2-6.8 0-11.4 3.27-11.4 8.46zm0 0"/></symbol><symbol overflow="visible" id="10823e2eaN"><path d="M23.31-21.42H17.7l-9.1 9.05 2.85-21.43-5.27.1L1.7 0h5.27l.9-6.94 2.47-1.92L15.48 0h5.49c0-.72-.4-1.63-.99-2.56l-5.9-9.5 7.2-6.4c1.13-.98 2.03-2 2.03-2.96zm0 0"/></symbol><symbol overflow="visible" id="10823e2eaO"><path d="M1.67-8.64c0 5.84 3.1 9.31 8.77 9.31C18.3.67 22.8-6.48 22.8-12.87c0-5.58-2.87-9.22-8.76-9.22C6.12-22.1 1.67-15 1.67-8.64zm15.78-4.14c0 3.37-1.34 6.97-3.28 8.55-.81.3-1.84.5-2.87.5-2.52 0-4.28-2.08-4.28-4.82 0-3.25 1.26-6.98 3.3-8.64.74-.31 1.79-.5 2.87-.5 3.01 0 4.26 1.8 4.26 4.9zm0 0"/></symbol><symbol overflow="visible" id="10823e2eaP"><path d="M6.7.55c1.99 0 3.7-.55 4.46-.9l-.58-3.7c-.6.1-1.22.17-1.77.17-1.08 0-1.44-.57-1.2-2.1l3.6-27.82-5.27.1L2.3-5.12C1.84-1.48 3.19.54 6.7.54zm0 0"/></symbol><symbol overflow="visible" id="10823e2eaQ"><path d="M1.58-7.16c0 4.5 1.65 7.7 5.94 7.7 2.7 0 5.89-1.8 8.18-3.6L16.06.3l4.38-.62c.22-4.5.48-6.44.67-8.02l1.48-11.65a15.58 15.58 0 00-7.65-2.11c-7.92 0-13.36 6.34-13.36 14.93zm5.36-.98c0-3.83 1.12-7.34 3.81-9a9.25 9.25 0 012.9-.45c.93 0 2.1.14 3.32.4L15.6-6.97C14-5.77 11.2-4.3 8.8-4.14c-1.25-.22-1.87-1.44-1.87-4zm0 0"/></symbol><symbol overflow="visible" id="10823e2eaR"><path d="M8.45-21.69l-4.26.5c-.5 6.38-.72 8.46-.96 10.25L1.8 0h5.26L8.7-12.38c2.1-2.96 4.14-4.35 6.3-4.35.8 0 1.57.21 1.93.36l1.63-4.79a6.52 6.52 0 00-3.11-.8c-2.85 0-4.64 1.5-6.53 4.46zm0 0"/></symbol><symbol overflow="visible" id="10823e2eaS"><path d="M2.6-21.47c0 5.99 5.37 7.61 10.04 9 3.78 1.03 6.67 1.72 6.67 4.28 0 2.75-3.06 3.6-6.36 3.6-3.4 0-6.65-.85-9.43-2.11L1.58-2.06C4.3-.46 8.8.67 13.18.67 20.2.67 26.1-2.25 26.1-8.55c0-5.86-5.03-7.6-10.6-9.3C11.86-18.92 9.4-19.63 9.4-22c0-2.97 3.18-3.56 5.98-3.56 2.92 0 5.84.62 7.97 1.36l1.8-4.47a22.27 22.27 0 00-9.72-2.16c-6.99 0-12.83 3.02-12.83 9.36zm0 0"/></symbol><symbol overflow="visible" id="10823e2eaT"><path d="M25.33-21.6h-6.56l-6.61 7.52h-2.3V-33.8l-6.63.1V0h6.63v-8.81l2.56-.05L18.91 0h7.18a7.13 7.13 0 00-1.43-2.8l-7.29-9.03 6.52-7.15c1-1.13 1.44-1.85 1.44-2.61zm0 0"/></symbol><symbol overflow="visible" id="10823e2eaU"><path d="M1.98-10.03C1.98-3.6 6.3.67 12.95.67c7.88 0 12.16-5.58 12.16-12.1 0-6.35-4.23-10.85-10.94-10.85-7.83 0-12.19 5.81-12.19 12.25zm16.38-.5c0 2.7-.72 4.23-1.58 5.12-.58.7-1.66 1.22-3.14 1.22-3.16 0-4.9-2.56-4.9-6.75 0-2.7.76-4.36 1.57-5.22.63-.71 1.7-1.21 3.19-1.21 3.16 0 4.86 2.75 4.86 6.84zm0 0"/></symbol><symbol overflow="visible" id="10823e2eaV"><path d="M9.72-33.8l-6.56.1v28.53C3.16-1.34 5.08.55 8.69.55c1.48 0 3.37-.28 5-.9l-1-4.56c-.58.2-1.03.22-1.53.22-1.08 0-1.44-.48-1.44-2.06zm0 0"/></symbol><symbol overflow="visible" id="10823e2eaW"><path d="M4.6-10.4A6.3 6.3 0 001.62-5C1.63-1.67 3.88.55 8.09.55c2.97 0 5.63-1.22 7.97-3.25L17.1.3l5.22-.72c-.31-5.21-.43-7.32-.43-9.17v-3.56c0-6.34-2.9-9-8.79-9-4 0-7.78 1.31-10.43 3.37l1.84 3.88c2.4-1.36 4.86-2.17 7.02-2.17 2.56 0 3.68 1.04 3.82 4.28-5.48.4-8.8 1.17-10.75 2.39zm3.18 4.46c0-1.03.4-1.67 1.03-2.08.9-.53 2.8-.93 6.53-1.12v3.2c-2.03 1.35-3.95 2.02-5.4 2.02-1.49 0-2.16-.72-2.16-2.02zm0 0"/></symbol><symbol overflow="visible" id="10823e2eaX"><path d="M8.14-22l-5.27.67c.36 5.67.46 7.97.46 9.94V0h6.6v-13.14a7.03 7.03 0 015.55-2.52c.99 0 1.9.1 2.88.32l.98-5.9c-.89-.5-2.06-.9-3.54-.9-2.75 0-4.77 1.58-6.4 4.23zm0 0"/></symbol><symbol overflow="visible" id="10823e2eaZ"><path d="M3.47-22.1c0 4.5 3.23 6.93 7.51 9.1 3.91 1.94 5.68 2.88 5.68 5.03 0 .45-.05 1-.29 1.44-.76 1.1-2.87 1.98-5.43 1.98a19.6 19.6 0 01-8.42-2.2L.36-2.11C2.7-.63 6.6.67 11.16.67c7.06 0 12.15-3.14 12.15-9.12 0-4.83-3.28-7.03-7.87-9.28-3.56-1.7-5.22-2.79-5.22-4.68 0-.67.12-1.17.72-1.89a7.8 7.8 0 014.4-1.3c3.11 0 5.94.76 7.79 1.52l2.03-4.6c-2.25-1.2-6.13-2.15-9.86-2.15-7.11 0-11.83 3.28-11.83 8.74zm0 0"/></symbol><symbol overflow="visible" id="10823e2eba"><path d="M24.66-21.69h-6.57l-8.54 8.82 2.73-20.93-6.44.1L1.4 0h6.44l.9-6.84 2.16-1.58L15.56 0h6.67a5.43 5.43 0 00-.95-2.92l-5.75-9.27 7.02-6.31c1.26-1.08 2.06-2.16 2.1-3.19zm0 0"/></symbol><symbol overflow="visible" id="10823e2ebb"><path d="M1.44-8.69c0 5.67 3.15 9.36 9.19 9.36 8.76 0 13.04-7.51 13.04-13.72 0-5.5-2.97-9.3-9.23-9.3-8.77 0-13 7.5-13 13.66zm15.65-4.36c0 3.24-1.15 6.88-2.87 8.4a7.2 7.2 0 01-2.56.46c-2.25 0-3.64-1.98-3.64-4.4 0-3.11 1.12-6.85 2.82-8.47a7.38 7.38 0 012.57-.44c2.65 0 3.68 1.75 3.68 4.45zm0 0"/></symbol><symbol overflow="visible" id="10823e2ebc"><path d="M6.6.55c2.13 0 3.93-.5 5.2-1l-.5-4.5c-.63.1-1.27.18-1.75.18-.9-.14-1.18-.76-.96-2.12l3.52-26.9-6.48.09L1.98-5.4C1.48-1.45 3.02.54 6.61.54zm0 0"/></symbol><symbol overflow="visible" id="10823e2ebd"><path d="M1.34-7.16c0 4.6 1.77 7.74 6.08 7.74 2.8 0 5.86-1.8 8.19-3.77l.6 3.55 5.16-.77c.27-4.86.5-6.56.77-8.4l1.44-11.44a17.9 17.9 0 00-8.24-2.06c-8.32 0-14 6.15-14 15.15zm6.58-1.07c0-3.52 1.03-7.02 3.38-8.74a10.63 10.63 0 015.39-.12l-1.3 9.89A13.63 13.63 0 019.5-4.7C8.45-5 7.92-6.08 7.92-8.23zm0 0"/></symbol><symbol overflow="visible" id="10823e2ebe"><path d="M8.78-22l-4.9.67c-.5 6.3-.72 8.4-.96 10.3L1.44 0h6.48l1.63-12.42c1.89-2.47 3.76-3.64 5.75-3.64.86 0 1.57.17 2.03.36l1.75-5.68a5.9 5.9 0 00-3.11-.8c-2.69 0-4.58 1.52-6.4 4.27zm0 0"/></symbol><symbol overflow="visible" id="10823e2ebf"><path d="M2.06-21.1c0 6.16 5.55 7.91 10.5 9.5 3.33.97 5.22 1.47 5.22 3.22 0 1.85-1.89 2.57-4.86 2.57-3.15 0-6.89-.85-9.45-1.88L1.22-1.84C3.95-.41 8.95.67 13.45.67c7.66 0 13.5-3.19 13.5-9.53 0-5.77-4.86-7.7-10.84-9.77-3.16-1.04-4.9-1.57-4.9-3.25 0-1.93 2.07-2.46 4.68-2.46 2.69 0 5.67.62 7.92 1.34l2.2-5.48a23.44 23.44 0 00-10.48-2.35c-7.51 0-13.47 3.16-13.47 9.72zm0 0"/></symbol><symbol overflow="visible" id="10823e2ebg"><path d="M27.45-22.1h-8.6l-5.76 7.62h-1.62v-19.36l-8.86.18V0h8.86v-8.28h1.81L18.58 0h9.45a7 7 0 00-1.44-3.38l-6.56-8.64 5.66-6.8c1.22-1.57 1.76-2.29 1.76-3.27zm0 0"/></symbol><symbol overflow="visible" id="10823e2ebh"><path d="M1.48-10.31C1.48-4.05 5.84.67 13.36.67c8.52 0 13.14-5.22 13.14-12.14 0-6.22-4.27-11.3-11.83-11.3-8.47 0-13.19 5.63-13.19 12.46zm16.11-.27c0 2.2-.5 3.69-1.17 4.55-.48.62-1.22.98-2.34.98-2.33 0-3.64-2.33-3.64-6.15 0-2.2.54-3.97 1.17-4.77.5-.69 1.22-1.05 2.34-1.05 2.35 0 3.64 2.66 3.64 6.44zm0 0"/></symbol><symbol overflow="visible" id="10823e2ebi"><path d="M11.34-33.84l-8.82.18v27.9C2.52-1.4 4.9.53 8.64.53c1.94 0 4.23-.35 6.13-1.04l-.86-5.7c-.46.12-.77.12-1.13.12-1.08 0-1.44-.53-1.44-2.1zm0 0"/></symbol><symbol overflow="visible" id="10823e2ebj"><path d="M3.88-10.44A6.16 6.16 0 001.27-5.3C1.27-1.63 3.83.55 8.19.55c3.01 0 5.67-1.32 7.83-3.42L17.55.35l6.65-.94c-.36-5.5-.48-7.7-.43-9.69v-3.04c0-6.31-3.25-9.33-10.08-9.33-4.24 0-8.69 1.27-11.44 3.16l1.94 4.76c2.34-1.08 4.9-1.8 7.15-1.8 2.38 0 3.38.86 3.55 3.33-5.31.46-8.95 1.27-11.02 2.75zm5.34 3.69c0-.77.28-1.27.76-1.63.7-.48 2.13-.76 4.96-.89v3.14a7 7 0 01-3.78 1.36c-1.44 0-1.94-.76-1.94-1.98zm0 0"/></symbol><symbol overflow="visible" id="10823e2ebk"><path d="M8.9-22.55l-6.65.9c.31 6.12.45 8.6.45 10.8V0h8.86v-12.78a6.77 6.77 0 014.64-1.8c1.03 0 2.02.1 3.02.31l1.17-7.42a8 8 0 00-3.73-.95c-2.7 0-4.5 1.67-5.96 4.19zm0 0"/></symbol><symbol overflow="visible" id="10823e2ebl"><path d="M3.06-21.6c0 4.73 3.19 7.29 7.97 9.77 2.66 1.3 4.27 2.16 4.27 3.74 0 .3-.05.67-.18.98-.71.81-2.34 1.34-4.18 1.34-3.06 0-6.58-1.07-8.64-2.06L-.1-2.06C2.1-.72 6.18.67 11.07.67c7.44 0 13.06-3.19 13.06-9.62 0-4.86-3.2-7.11-7.8-9.55-2.63-1.3-4.26-2.33-4.26-3.73 0-.41.05-.77.4-1.2.95-.6 2.12-.96 3.6-.96 2.7 0 5.53.72 7.57 1.44l2.34-5.75a24.83 24.83 0 00-10.22-2.13c-7.69 0-12.69 3.33-12.69 9.24zm0 0"/></symbol><symbol overflow="visible" id="10823e2ebm"><path d="M27.14-22.19h-8.28l-7.61 8.42 2.6-20.07-8.63.18L.77 0H9.4l.9-6.6 1.52-1L15.7 0h8.83a5.47 5.47 0 00-.9-3.6l-5.44-8.92 6.7-6.06c1.48-1.31 2.16-2.44 2.25-3.6zm0 0"/></symbol><symbol overflow="visible" id="10823e2ebn"><path d="M.98-8.81c0 5.44 3.3 9.48 10 9.48 10.44 0 14.27-8.19 14.27-14.03 0-5.27-3.2-9.5-10-9.5C4.81-22.86.98-14.63.98-8.8zm15.49-4.74c0 2.97-.9 6.7-2.16 8.2a4.9 4.9 0 01-1.98.35c-1.7 0-2.56-1.75-2.56-3.64 0-2.92.9-6.66 2.1-8.14.5-.28 1.22-.4 1.94-.4 2.08 0 2.66 1.7 2.66 3.63zm0 0"/></symbol><symbol overflow="visible" id="10823e2ebo"><path d="M6.4.55C8.77.55 10.8.19 13-.63l-.44-5.93c-.6.08-1.22.17-1.72.17-.5-.4-.57-1.13-.45-2.2l3.33-25.25-8.64.18L1.44-5.84C.86-1.4 2.75.55 6.39.55zm0 0"/></symbol><symbol overflow="visible" id="10823e2ebp"><path d="M.94-7.16C.94-2.44 2.92.63 7.3.63c2.87 0 5.62-1.7 8.04-4.1L16.38.45l6.8-1c.35-5.58.5-6.78.8-9.26l1.44-10.94a23.51 23.51 0 00-9.26-2.02C7.02-22.77.94-16.87.94-7.16zm8.78-1.21c0-3.02.86-6.52 2.51-8.29.6-.12 1.63-.26 2.44-.26.5 0 .99.05 1.53.1l-1.17 9.16c-1.17.91-2.84 1.72-4.33 1.94-.62-.45-.98-1.22-.98-2.66zm0 0"/></symbol><symbol overflow="visible" id="10823e2ebq"><path d="M9.31-22.55l-6.03.9c-.45 6.17-.67 8.42-.94 10.5L.81 0H9.5l1.66-12.42c1.43-1.63 3.01-2.42 4.73-2.42.9 0 1.53.17 2.2.4l1.94-7.34a5.37 5.37 0 00-3.01-.86c-2.54 0-4.55 1.58-6.27 4.1zm0 0"/></symbol><symbol overflow="visible" id="10823e2ebr"><path d="M1.48-20.7c0 6.34 5.77 8.32 10.94 10.07 2.83.91 3.64 1.27 3.64 2.08 0 .72-.58 1.4-3.14 1.4-2.94 0-7.15-.91-9.54-1.58L.8-1.58C3.56-.4 9.05.67 13.81.67c8.38 0 14.1-3.47 14.1-9.86 0-5.65-4.6-7.87-11.04-10.3-2.65-.98-3.59-1.43-3.59-2.2 0-.86.8-1.31 3.14-1.31 2.49 0 5.45.6 7.92 1.36L27-28.31a25.24 25.24 0 00-11.4-2.52c-8.13 0-14.12 3.25-14.12 10.13zm0 0"/></symbol><symbol overflow="visible" id="10823e2ebs"><path d="M13.28-33.84l-11.39.18V0h11.4v-7.6h.93l4 7.6h12.01a7.14 7.14 0 00-1.48-4l-5.7-8.28 4.67-6.35c1.48-2.07 2.1-2.84 2.1-4.01H18.99l-4.8 7.66h-.9zm0 0"/></symbol><symbol overflow="visible" id="10823e2ebt"><path d="M.9-10.58C.9-4.55 5.32.67 13.82.67c9.24 0 14.27-4.86 14.27-12.19 0-6.03-4.31-11.8-12.83-11.8C6.03-23.31.91-17.9.91-10.57zm15.79-.04c0 1.67-.22 3.06-.67 3.82-.36.6-.72.82-1.4.82-1.43 0-2.24-2.08-2.24-5.49 0-1.67.26-3.6.67-4.33.3-.62.72-.86 1.39-.86 1.45 0 2.25 2.66 2.25 6.04zm0 0"/></symbol><symbol overflow="visible" id="10823e2ebu"><path d="M13.14-33.84l-11.39.18v27.27c0 4.9 2.97 6.94 6.8 6.94 2.51 0 5.22-.46 7.42-1.22l-.72-6.99c-.27.05-.44.05-.67.05-1.08 0-1.44-.58-1.44-2.16zm0 0"/></symbol><symbol overflow="visible" id="10823e2ebv"><path d="M3.06-10.48a5.81 5.81 0 00-2.2 4.8C.86-1.57 3.73.56 8.28.56c3.11 0 5.67-1.4 7.66-3.57L18.09.41l8.2-1.22c-.32-5.8-.5-8.1-.46-10.25v-2.53c0-6.16-3.6-9.58-11.47-9.58-4.55 0-9.67 1.17-12.61 2.87l2.13 5.77c2.2-.72 4.9-1.4 7.18-1.4 2.22 0 3.06.63 3.3 2.24-5.1.5-9.1 1.36-11.3 3.2zm7.78 2.87c0-.48.1-.89.46-1.2.45-.38 1.34-.55 3.14-.6v3.16c-.63.31-1.25.48-1.88.48-1.36 0-1.72-.84-1.72-1.84zm0 0"/></symbol><symbol overflow="visible" id="10823e2ebw"><path d="M9.72-23.13l-8.24 1.18c.32 6.56.5 9.22.5 11.68V0h11.38v-12.23a6.6 6.6 0 013.66-1.05c1.07 0 2.2.1 3.14.33l1.4-9.28a9.07 9.07 0 00-3.87-.94c-2.66 0-4.33 1.65-5.53 4.1zm0 0"/></symbol><symbol overflow="visible" id="10823e2eby"><path d="M2.6-21.02c0 4.96 3.12 7.66 8.46 10.44 1.22.64 2.7 1.44 2.7 2.3a1 1 0 01-.12.45c-.6.5-1.67.67-2.7.67-3.16 0-6.9-1.03-8.88-1.89L-.63-1.98C1.48-.81 5.67.67 10.95.67c7.83 0 14.12-3.19 14.12-10.17 0-4.9-3.1-7.28-7.68-9.81-1.63-.85-3.25-1.85-3.25-2.64 0-.14 0-.33.09-.46.55-.36 1.48-.59 2.65-.59 2.2 0 5.05.6 7.3 1.31l2.69-7.06a26.54 26.54 0 00-10.56-2.08c-8.38 0-13.7 3.38-13.7 9.81zm0 0"/></symbol><symbol overflow="visible" id="10823e2ebz"><path d="M15.66-33.84l-11.11.18L.09 0H11.2l.86-6.34.81-.5L15.9 0h11.25a6.27 6.27 0 00-.81-4.4l-5.14-8.47 6.36-5.8c1.7-1.53 2.25-2.75 2.37-4.05H19.7l-6.51 7.78zm0 0"/></symbol><symbol overflow="visible" id="10823e2ebA"><path d="M.5-8.9C.5-3.84 3.95.66 11.34.66 23.72.67 27-8.33 27-13.72c0-5.05-3.42-9.69-10.9-9.69C3.84-23.4.5-14.36.5-8.9zm15.2-5.22c0 2.73-.53 6.46-1.26 7.95-.31.14-.8.28-1.3.28-1.22 0-1.34-1.58-1.34-2.8 0-2.7.62-6.44 1.25-7.83a2.7 2.7 0 011.26-.3c1.3 0 1.4 1.62 1.4 2.7zm0 0"/></symbol><symbol overflow="visible" id="10823e2ebB"><path d="M6.17.55c2.69 0 4.9-.28 8.14-1.36l-.26-7.61a8.3 8.3 0 01-1.72.19c-.05-.72 0-1.54.1-2.25l3.13-23.36-11.1.18L.8-6.39C.14-1.34 2.4.55 6.17.55zm0 0"/></symbol><symbol overflow="visible" id="10823e2ebC"><path d="M.45-7.16c0 4.91 2.2 7.83 6.7 7.83 2.97 0 5.18-1.48 7.79-4.4l1.72 4.3 8.5-1.24c.45-6.4.5-7.06.93-10.17l1.41-10.44a29.28 29.28 0 00-10.48-1.99C7.02-23.27.45-17.69.45-7.16zM11.8-8.5c0-2.44.62-5.94 1.51-7.8.55-.07 1.53-.07 2.17-.07h.18L14.62-8.1c-.85.62-1.7.98-2.56 1.2a4.83 4.83 0 01-.26-1.61zm0 0"/></symbol><symbol overflow="visible" id="10823e2ebD"><path d="M9.9-23.13l-7.24 1.18c-.46 5.93-.63 8.4-.96 10.65L.1 0h11.2l1.62-12.16a5.67 5.67 0 013.64-1.3c.99 0 1.49.1 2.35.41l2.2-9.23c-.4-.36-1.44-.9-2.97-.9-2.34 0-4.37 1.62-6.08 3.91zm0 0"/></symbol></defs><use xlink:href="#10823e2ea" x="51.09375" y="68.408"/><use xlink:href="#10823e2eb" x="77.91375" y="68.408"/><use xlink:href="#10823e2ec" x="100.72875" y="68.408"/><use xlink:href="#10823e2ed" x="126.24375" y="68.408"/><use xlink:href="#10823e2ee" x="137.26875" y="68.408"/><use xlink:href="#10823e2ef" x="159.99375" y="68.408"/><g fill-opacity=".33"><use xlink:href="#10823e2eg" x="67.29208" y="105.816"/><use xlink:href="#10823e2eh" x="73.95908" y="105.816"/><use xlink:href="#10823e2ei" x="80.62608" y="105.816"/><use xlink:href="#10823e2ej" x="87.29308" y="105.816"/><use xlink:href="#10823e2ek" x="93.96008" y="105.816"/><use xlink:href="#10823e2el" x="100.62708" y="105.816"/><use xlink:href="#10823e2em" x="107.29408" y="105.816"/><use xlink:href="#10823e2ek" x="113.96108" y="105.816"/><use xlink:href="#10823e2em" x="120.62808" y="105.816"/><use xlink:href="#10823e2eg" x="127.29508" y="105.816"/><use xlink:href="#10823e2en" x="133.96208" y="105.816"/><use xlink:href="#10823e2eo" x="140.62908" y="105.816"/><use xlink:href="#10823e2ep" x="147.29608" y="105.816"/><use xlink:href="#10823e2el" x="153.96308" y="105.816"/></g><use xlink:href="#10823e2eq" x="276.79875" y="68.408"/><use xlink:href="#10823e2er" x="301.63875" y="68.408"/><use xlink:href="#10823e2es" x="322.24875" y="68.408"/><use xlink:href="#10823e2et" x="345.91875" y="68.408"/><use xlink:href="#10823e2eu" x="356.17875" y="68.408"/><use xlink:href="#10823e2ev" x="378.45375" y="68.408"/><g fill-opacity=".33"><use xlink:href="#10823e2eg" x="266.04125" y="105.816"/><use xlink:href="#10823e2eh" x="272.70825" y="105.816"/><use xlink:href="#10823e2ei" x="279.37525" y="105.816"/><use xlink:href="#10823e2ej" x="286.04225" y="105.816"/><use xlink:href="#10823e2ek" x="292.70925" y="105.816"/><use xlink:href="#10823e2el" x="299.37625" y="105.816"/><use xlink:href="#10823e2em" x="306.04325" y="105.816"/><use xlink:href="#10823e2ek" x="312.71025" y="105.816"/><use xlink:href="#10823e2em" x="319.37725" y="105.816"/><use xlink:href="#10823e2eg" x="326.04425" y="105.816"/><use xlink:href="#10823e2en" x="332.71125" y="105.816"/><use xlink:href="#10823e2eo" x="339.37825" y="105.816"/><use xlink:href="#10823e2ep" x="346.04525" y="105.816"/><use xlink:href="#10823e2el" x="352.71225" y="105.816"/><use xlink:href="#10823e2eg" x="359.37925" y="105.816"/><use xlink:href="#10823e2ew" x="366.04625" y="105.816"/><use xlink:href="#10823e2ej" x="372.71325" y="105.816"/><use xlink:href="#10823e2ex" x="379.38025" y="105.816"/><use xlink:href="#10823e2ey" x="386.04725" y="105.816"/><use xlink:href="#10823e2ep" x="392.71425" y="105.816"/><use xlink:href="#10823e2ez" x="399.38125" y="105.816"/></g><use xlink:href="#10823e2eA" x="49.78875" y="178.556"/><use xlink:href="#10823e2eB" x="76.78875" y="178.556"/><use xlink:href="#10823e2eC" x="100.27875" y="178.556"/><use xlink:href="#10823e2eD" x="126.01875" y="178.556"/><use xlink:href="#10823e2eE" x="137.62875" y="178.556"/><use xlink:href="#10823e2eF" x="160.71375" y="178.556"/><g fill-opacity=".33"><use xlink:href="#10823e2eg" x="47.29208" y="215.964"/><use xlink:href="#10823e2eh" x="53.95908" y="215.964"/><use xlink:href="#10823e2ei" x="60.62608" y="215.964"/><use xlink:href="#10823e2ej" x="67.29308" y="215.964"/><use xlink:href="#10823e2ek" x="73.96008" y="215.964"/><use xlink:href="#10823e2el" x="80.62708" y="215.964"/><use xlink:href="#10823e2em" x="87.29408" y="215.964"/><use xlink:href="#10823e2ek" x="93.96108" y="215.964"/><use xlink:href="#10823e2em" x="100.62808" y="215.964"/><use xlink:href="#10823e2eg" x="107.29508" y="215.964"/><use xlink:href="#10823e2eh" x="113.96208" y="215.964"/><use xlink:href="#10823e2ei" x="120.62908" y="215.964"/><use xlink:href="#10823e2ej" x="127.29608" y="215.964"/><use xlink:href="#10823e2eG" x="133.96308" y="215.964"/><use xlink:href="#10823e2ex" x="140.63008" y="215.964"/><use xlink:href="#10823e2ey" x="147.29708" y="215.964"/><use xlink:href="#10823e2ep" x="153.96408" y="215.964"/><use xlink:href="#10823e2eH" x="160.63108" y="215.964"/><use xlink:href="#10823e2eo" x="167.29808" y="215.964"/><use xlink:href="#10823e2ej" x="173.96508" y="215.964"/></g><use xlink:href="#10823e2eI" x="275.53875" y="178.556"/><use xlink:href="#10823e2eJ" x="300.51375" y="178.556"/><use xlink:href="#10823e2eK" x="321.79875" y="178.556"/><use xlink:href="#10823e2eL" x="345.73875" y="178.556"/><use xlink:href="#10823e2eM" x="356.58375" y="178.556"/><use xlink:href="#10823e2eN" x="379.44375" y="178.556"/><g fill-opacity=".33"><use xlink:href="#10823e2eg" x="246.04125" y="215.964"/><use xlink:href="#10823e2eh" x="252.70825" y="215.964"/><use xlink:href="#10823e2ei" x="259.37525" y="215.964"/><use xlink:href="#10823e2ej" x="266.04225" y="215.964"/><use xlink:href="#10823e2ek" x="272.70925" y="215.964"/><use xlink:href="#10823e2el" x="279.37625" y="215.964"/><use xlink:href="#10823e2em" x="286.04325" y="215.964"/><use xlink:href="#10823e2ek" x="292.71025" y="215.964"/><use xlink:href="#10823e2em" x="299.37725" y="215.964"/><use xlink:href="#10823e2eg" x="306.04425" y="215.964"/><use xlink:href="#10823e2eh" x="312.71125" y="215.964"/><use xlink:href="#10823e2ei" x="319.37825" y="215.964"/><use xlink:href="#10823e2ej" x="326.04525" y="215.964"/><use xlink:href="#10823e2eG" x="332.71225" y="215.964"/><use xlink:href="#10823e2ex" x="339.37925" y="215.964"/><use xlink:href="#10823e2ey" x="346.04625" y="215.964"/><use xlink:href="#10823e2ep" x="352.71325" y="215.964"/><use xlink:href="#10823e2eH" x="359.38025" y="215.964"/><use xlink:href="#10823e2eo" x="366.04725" y="215.964"/><use xlink:href="#10823e2ej" x="372.71425" y="215.964"/><use xlink:href="#10823e2eg" x="379.38125" y="215.964"/><use xlink:href="#10823e2ew" x="386.04825" y="215.964"/><use xlink:href="#10823e2ej" x="392.71525" y="215.964"/><use xlink:href="#10823e2ex" x="399.38225" y="215.964"/><use xlink:href="#10823e2ey" x="406.04925" y="215.964"/><use xlink:href="#10823e2ep" x="412.71625" y="215.964"/><use xlink:href="#10823e2ez" x="419.38325" y="215.964"/></g><use xlink:href="#10823e2eO" x="48.41625" y="288.704"/><use xlink:href="#10823e2eP" x="75.59625" y="288.704"/><use xlink:href="#10823e2eQ" x="99.76125" y="288.704"/><use xlink:href="#10823e2eR" x="125.77125" y="288.704"/><use xlink:href="#10823e2eS" x="138.01125" y="288.704"/><use xlink:href="#10823e2eT" x="161.45625" y="288.704"/><g fill-opacity=".33"><use xlink:href="#10823e2eg" x="63.95875" y="326.112"/><use xlink:href="#10823e2eh" x="70.62575" y="326.112"/><use xlink:href="#10823e2ei" x="77.29275" y="326.112"/><use xlink:href="#10823e2ej" x="83.95975" y="326.112"/><use xlink:href="#10823e2ek" x="90.62675" y="326.112"/><use xlink:href="#10823e2el" x="97.29375" y="326.112"/><use xlink:href="#10823e2em" x="103.96075" y="326.112"/><use xlink:href="#10823e2ek" x="110.62775" y="326.112"/><use xlink:href="#10823e2em" x="117.29475" y="326.112"/><use xlink:href="#10823e2eg" x="123.96175" y="326.112"/><use xlink:href="#10823e2eU" x="130.62875" y="326.112"/><use xlink:href="#10823e2ep" x="137.29575" y="326.112"/><use xlink:href="#10823e2eH" x="143.96275" y="326.112"/><use xlink:href="#10823e2eo" x="150.62975" y="326.112"/><use xlink:href="#10823e2ej" x="157.29675" y="326.112"/></g><use xlink:href="#10823e2eV" x="274.25625" y="288.704"/><use xlink:href="#10823e2eW" x="299.36625" y="288.704"/><use xlink:href="#10823e2eX" x="321.28125" y="288.704"/><use xlink:href="#10823e2eY" x="345.53625" y="288.704"/><use xlink:href="#10823e2eZ" x="357.01125" y="288.704"/><use xlink:href="#10823e2eaa" x="380.45625" y="288.704"/><g fill-opacity=".33"><use xlink:href="#10823e2eg" x="262.70792" y="326.112"/><use xlink:href="#10823e2eh" x="269.37492" y="326.112"/><use xlink:href="#10823e2ei" x="276.04192" y="326.112"/><use xlink:href="#10823e2ej" x="282.70892" y="326.112"/><use xlink:href="#10823e2ek" x="289.37592" y="326.112"/><use xlink:href="#10823e2el" x="296.04292" y="326.112"/><use xlink:href="#10823e2em" x="302.70992" y="326.112"/><use xlink:href="#10823e2ek" x="309.37692" y="326.112"/><use xlink:href="#10823e2em" x="316.04392" y="326.112"/><use xlink:href="#10823e2eg" x="322.71092" y="326.112"/><use xlink:href="#10823e2eU" x="329.37792" y="326.112"/><use xlink:href="#10823e2ep" x="336.04492" y="326.112"/><use xlink:href="#10823e2eH" x="342.71192" y="326.112"/><use xlink:href="#10823e2eo" x="349.37892" y="326.112"/><use xlink:href="#10823e2ej" x="356.04592" y="326.112"/><use xlink:href="#10823e2eg" x="362.71292" y="326.112"/><use xlink:href="#10823e2ew" x="369.37992" y="326.112"/><use xlink:href="#10823e2ej" x="376.04692" y="326.112"/><use xlink:href="#10823e2ex" x="382.71392" y="326.112"/><use xlink:href="#10823e2ey" x="389.38092" y="326.112"/><use xlink:href="#10823e2ep" x="396.04792" y="326.112"/><use xlink:href="#10823e2ez" x="402.71492" y="326.112"/></g><g><use xlink:href="#10823e2eab" x="47.35875" y="398.852"/><use xlink:href="#10823e2eac" x="74.71875" y="398.852"/><use xlink:href="#10823e2ead" x="99.42375" y="398.852"/><use xlink:href="#10823e2eae" x="125.61375" y="398.852"/><use xlink:href="#10823e2eaf" x="138.30375" y="398.852"/><use xlink:href="#10823e2eag" x="162.06375" y="398.852"/></g><g fill-opacity=".33"><use xlink:href="#10823e2eg" x="57.29208" y="436.26"/><use xlink:href="#10823e2eh" x="63.95908" y="436.26"/><use xlink:href="#10823e2ei" x="70.62608" y="436.26"/><use xlink:href="#10823e2ej" x="77.29308" y="436.26"/><use xlink:href="#10823e2ek" x="83.96008" y="436.26"/><use xlink:href="#10823e2el" x="90.62708" y="436.26"/><use xlink:href="#10823e2em" x="97.29408" y="436.26"/><use xlink:href="#10823e2ek" x="103.96108" y="436.26"/><use xlink:href="#10823e2em" x="110.62808" y="436.26"/><use xlink:href="#10823e2eg" x="117.29508" y="436.26"/><use xlink:href="#10823e2eah" x="123.96208" y="436.26"/><use xlink:href="#10823e2ek" x="130.62908" y="436.26"/><use xlink:href="#10823e2eH" x="137.29608" y="436.26"/><use xlink:href="#10823e2eai" x="143.96308" y="436.26"/><use xlink:href="#10823e2ey" x="150.63008" y="436.26"/><use xlink:href="#10823e2ex" x="157.29708" y="436.26"/><use xlink:href="#10823e2eG" x="163.96408" y="436.26"/></g><g><use xlink:href="#10823e2eaj" x="273.26625" y="398.852"/><use xlink:href="#10823e2eak" x="298.51125" y="398.852"/><use xlink:href="#10823e2eal" x="320.92125" y="398.852"/><use xlink:href="#10823e2eam" x="345.40125" y="398.852"/><use xlink:href="#10823e2ean" x="357.32625" y="398.852"/><use xlink:href="#10823e2eao" x="381.26625" y="398.852"/></g><g fill-opacity=".33"><use xlink:href="#10823e2eg" x="282.70792" y="436.26"/><use xlink:href="#10823e2eh" x="289.37492" y="436.26"/><use xlink:href="#10823e2ei" x="296.04192" y="436.26"/><use xlink:href="#10823e2ej" x="302.70892" y="436.26"/><use xlink:href="#10823e2ek" x="309.37592" y="436.26"/><use xlink:href="#10823e2el" x="316.04292" y="436.26"/><use xlink:href="#10823e2em" x="322.70992" y="436.26"/><use xlink:href="#10823e2ek" x="329.37692" y="436.26"/><use xlink:href="#10823e2em" x="336.04392" y="436.26"/><use xlink:href="#10823e2eg" x="342.71092" y="436.26"/><use xlink:href="#10823e2ew" x="349.37792" y="436.26"/><use xlink:href="#10823e2ej" x="356.04492" y="436.26"/><use xlink:href="#10823e2ex" x="362.71192" y="436.26"/><use xlink:href="#10823e2ey" x="369.37892" y="436.26"/><use xlink:href="#10823e2ep" x="376.04592" y="436.26"/><use xlink:href="#10823e2ez" x="382.71292" y="436.26"/></g><g><use xlink:href="#10823e2eap" x="46.30125" y="509"/><use xlink:href="#10823e2eaq" x="73.79625" y="509"/><use xlink:href="#10823e2ear" x="99.04125" y="509"/><use xlink:href="#10823e2eas" x="125.41125" y="509"/><use xlink:href="#10823e2eat" x="138.59625" y="509"/><use xlink:href="#10823e2eau" x="162.62625" y="509"/></g><g fill-opacity=".33"><use xlink:href="#10823e2eg" x="60.62542" y="546.408"/><use xlink:href="#10823e2eh" x="67.29242" y="546.408"/><use xlink:href="#10823e2ei" x="73.95942" y="546.408"/><use xlink:href="#10823e2ej" x="80.62642" y="546.408"/><use xlink:href="#10823e2ek" x="87.29342" y="546.408"/><use xlink:href="#10823e2el" x="93.96042" y="546.408"/><use xlink:href="#10823e2em" x="100.62742" y="546.408"/><use xlink:href="#10823e2ek" x="107.29442" y="546.408"/><use xlink:href="#10823e2em" x="113.96142" y="546.408"/><use xlink:href="#10823e2eg" x="120.62842" y="546.408"/><use xlink:href="#10823e2eav" x="127.29542" y="546.408"/><use xlink:href="#10823e2ek" x="133.96242" y="546.408"/><use xlink:href="#10823e2em" x="140.62942" y="546.408"/><use xlink:href="#10823e2ep" x="147.29642" y="546.408"/><use xlink:href="#10823e2eai" x="153.96342" y="546.408"/><use xlink:href="#10823e2eaw" x="160.63042" y="546.408"/></g><g><use xlink:href="#10823e2eax" x="272.23125" y="509"/><use xlink:href="#10823e2eay" x="297.56625" y="509"/><use xlink:href="#10823e2eaz" x="320.51625" y="509"/><use xlink:href="#10823e2eaA" x="345.22125" y="509"/><use xlink:href="#10823e2eaB" x="357.64125" y="509"/><use xlink:href="#10823e2eaC" x="382.07625" y="509"/></g><g fill-opacity=".33"><use xlink:href="#10823e2eg" x="259.37458" y="546.408"/><use xlink:href="#10823e2eh" x="266.04158" y="546.408"/><use xlink:href="#10823e2ei" x="272.70858" y="546.408"/><use xlink:href="#10823e2ej" x="279.37558" y="546.408"/><use xlink:href="#10823e2ek" x="286.04258" y="546.408"/><use xlink:href="#10823e2el" x="292.70958" y="546.408"/><use xlink:href="#10823e2em" x="299.37658" y="546.408"/><use xlink:href="#10823e2ek" x="306.04358" y="546.408"/><use xlink:href="#10823e2em" x="312.71058" y="546.408"/><use xlink:href="#10823e2eg" x="319.37758" y="546.408"/><use xlink:href="#10823e2eav" x="326.04458" y="546.408"/><use xlink:href="#10823e2ek" x="332.71158" y="546.408"/><use xlink:href="#10823e2em" x="339.37858" y="546.408"/><use xlink:href="#10823e2ep" x="346.04558" y="546.408"/><use xlink:href="#10823e2eai" x="352.71258" y="546.408"/><use xlink:href="#10823e2eaw" x="359.37958" y="546.408"/><use xlink:href="#10823e2eg" x="366.04658" y="546.408"/><use xlink:href="#10823e2ew" x="372.71358" y="546.408"/><use xlink:href="#10823e2ej" x="379.38058" y="546.408"/><use xlink:href="#10823e2ex" x="386.04758" y="546.408"/><use xlink:href="#10823e2ey" x="392.71458" y="546.408"/><use xlink:href="#10823e2ep" x="399.38158" y="546.408"/><use xlink:href="#10823e2ez" x="406.04858" y="546.408"/></g><g><use xlink:href="#10823e2eaD" x="45.01875" y="619.148"/><use xlink:href="#10823e2eaE" x="72.69375" y="619.148"/><use xlink:href="#10823e2eaF" x="98.56875" y="619.148"/><use xlink:href="#10823e2eaG" x="125.16375" y="619.148"/><use xlink:href="#10823e2eaH" x="138.93375" y="619.148"/><use xlink:href="#10823e2eaI" x="163.32375" y="619.148"/></g><g fill-opacity=".33"><use xlink:href="#10823e2eg" x="53.95875" y="656.556"/><use xlink:href="#10823e2eh" x="60.62575" y="656.556"/><use xlink:href="#10823e2ei" x="67.29275" y="656.556"/><use xlink:href="#10823e2ej" x="73.95975" y="656.556"/><use xlink:href="#10823e2ek" x="80.62675" y="656.556"/><use xlink:href="#10823e2el" x="87.29375" y="656.556"/><use xlink:href="#10823e2em" x="93.96075" y="656.556"/><use xlink:href="#10823e2ek" x="100.62775" y="656.556"/><use xlink:href="#10823e2em" x="107.29475" y="656.556"/><use xlink:href="#10823e2eg" x="113.96175" y="656.556"/><use xlink:href="#10823e2eaJ" x="120.62875" y="656.556"/><use xlink:href="#10823e2ek" x="127.29575" y="656.556"/><use xlink:href="#10823e2eaw" x="133.96275" y="656.556"/><use xlink:href="#10823e2ep" x="140.62975" y="656.556"/><use xlink:href="#10823e2eaK" x="147.29675" y="656.556"/><use xlink:href="#10823e2eaL" x="153.96375" y="656.556"/><use xlink:href="#10823e2ey" x="160.63075" y="656.556"/><use xlink:href="#10823e2em" x="167.29775" y="656.556"/></g><g><use xlink:href="#10823e2eaM" x="271.01625" y="619.148"/><use xlink:href="#10823e2eaN" x="296.48625" y="619.148"/><use xlink:href="#10823e2eaO" x="320.06625" y="619.148"/><use xlink:href="#10823e2eaP" x="345.04125" y="619.148"/><use xlink:href="#10823e2eaQ" x="358.04625" y="619.148"/><use xlink:href="#10823e2eaR" x="383.02125" y="619.148"/></g><g fill-opacity=".33"><use xlink:href="#10823e2eg" x="252.70792" y="656.556"/><use xlink:href="#10823e2eh" x="259.37492" y="656.556"/><use xlink:href="#10823e2ei" x="266.04192" y="656.556"/><use xlink:href="#10823e2ej" x="272.70892" y="656.556"/><use xlink:href="#10823e2ek" x="279.37592" y="656.556"/><use xlink:href="#10823e2el" x="286.04292" y="656.556"/><use xlink:href="#10823e2em" x="292.70992" y="656.556"/><use xlink:href="#10823e2ek" x="299.37692" y="656.556"/><use xlink:href="#10823e2em" x="306.04392" y="656.556"/><use xlink:href="#10823e2eg" x="312.71092" y="656.556"/><use xlink:href="#10823e2eaJ" x="319.37792" y="656.556"/><use xlink:href="#10823e2ek" x="326.04492" y="656.556"/><use xlink:href="#10823e2eaw" x="332.71192" y="656.556"/><use xlink:href="#10823e2ep" x="339.37892" y="656.556"/><use xlink:href="#10823e2eaK" x="346.04592" y="656.556"/><use xlink:href="#10823e2eaL" x="352.71292" y="656.556"/><use xlink:href="#10823e2ey" x="359.37992" y="656.556"/><use xlink:href="#10823e2em" x="366.04692" y="656.556"/><use xlink:href="#10823e2eg" x="372.71392" y="656.556"/><use xlink:href="#10823e2ew" x="379.38092" y="656.556"/><use xlink:href="#10823e2ej" x="386.04792" y="656.556"/><use xlink:href="#10823e2ex" x="392.71492" y="656.556"/><use xlink:href="#10823e2ey" x="399.38192" y="656.556"/><use xlink:href="#10823e2ep" x="406.04892" y="656.556"/><use xlink:href="#10823e2ez" x="412.71592" y="656.556"/></g><g><use xlink:href="#10823e2eaS" x="43.44375" y="729.296"/><use xlink:href="#10823e2eaT" x="71.34375" y="729.296"/><use xlink:href="#10823e2eaU" x="98.11875" y="729.296"/><use xlink:href="#10823e2eaV" x="125.20875" y="729.296"/><use xlink:href="#10823e2eaW" x="139.47375" y="729.296"/><use xlink:href="#10823e2eaX" x="164.49375" y="729.296"/></g><g fill-opacity=".33"><use xlink:href="#10823e2eg" x="67.29208" y="766.704"/><use xlink:href="#10823e2eh" x="73.95908" y="766.704"/><use xlink:href="#10823e2ei" x="80.62608" y="766.704"/><use xlink:href="#10823e2ej" x="87.29308" y="766.704"/><use xlink:href="#10823e2ek" x="93.96008" y="766.704"/><use xlink:href="#10823e2el" x="100.62708" y="766.704"/><use xlink:href="#10823e2em" x="107.29408" y="766.704"/><use xlink:href="#10823e2ek" x="113.96108" y="766.704"/><use xlink:href="#10823e2em" x="120.62808" y="766.704"/><use xlink:href="#10823e2eg" x="127.29508" y="766.704"/><use xlink:href="#10823e2eaY" x="133.96208" y="766.704"/><use xlink:href="#10823e2eaL" x="140.62908" y="766.704"/><use xlink:href="#10823e2ey" x="147.29608" y="766.704"/><use xlink:href="#10823e2em" x="153.96308" y="766.704"/></g><g><use xlink:href="#10823e2eaZ" x="269.21625" y="729.296"/><use xlink:href="#10823e2eba" x="294.91125" y="729.296"/><use xlink:href="#10823e2ebb" x="319.57125" y="729.296"/><use xlink:href="#10823e2ebc" x="345.17625" y="729.296"/><use xlink:href="#10823e2ebd" x="358.76625" y="729.296"/><use xlink:href="#10823e2ebe" x="384.37125" y="729.296"/></g><g fill-opacity=".33"><use xlink:href="#10823e2eg" x="266.04125" y="766.704"/><use xlink:href="#10823e2eh" x="272.70825" y="766.704"/><use xlink:href="#10823e2ei" x="279.37525" y="766.704"/><use xlink:href="#10823e2ej" x="286.04225" y="766.704"/><use xlink:href="#10823e2ek" x="292.70925" y="766.704"/><use xlink:href="#10823e2el" x="299.37625" y="766.704"/><use xlink:href="#10823e2em" x="306.04325" y="766.704"/><use xlink:href="#10823e2ek" x="312.71025" y="766.704"/><use xlink:href="#10823e2em" x="319.37725" y="766.704"/><use xlink:href="#10823e2eg" x="326.04425" y="766.704"/><use xlink:href="#10823e2eaY" x="332.71125" y="766.704"/><use xlink:href="#10823e2eaL" x="339.37825" y="766.704"/><use xlink:href="#10823e2ey" x="346.04525" y="766.704"/><use xlink:href="#10823e2em" x="352.71225" y="766.704"/><use xlink:href="#10823e2eg" x="359.37925" y="766.704"/><use xlink:href="#10823e2ew" x="366.04625" y="766.704"/><use xlink:href="#10823e2ej" x="372.71325" y="766.704"/><use xlink:href="#10823e2ex" x="379.38025" y="766.704"/><use xlink:href="#10823e2ey" x="386.04725" y="766.704"/><use xlink:href="#10823e2ep" x="392.71425" y="766.704"/><use xlink:href="#10823e2ez" x="399.38125" y="766.704"/></g><g><use xlink:href="#10823e2ebf" x="40.47375" y="839.444"/><use xlink:href="#10823e2ebg" x="68.82375" y="839.444"/><use xlink:href="#10823e2ebh" x="97.30875" y="839.444"/><use xlink:href="#10823e2ebi" x="125.29875" y="839.444"/><use xlink:href="#10823e2ebj" x="140.46375" y="839.444"/><use xlink:href="#10823e2ebk" x="166.65375" y="839.444"/></g><g fill-opacity=".33"><use xlink:href="#10823e2eg" x="50.62542" y="876.852"/><use xlink:href="#10823e2eh" x="57.29242" y="876.852"/><use xlink:href="#10823e2ei" x="63.95942" y="876.852"/><use xlink:href="#10823e2ej" x="70.62642" y="876.852"/><use xlink:href="#10823e2ek" x="77.29342" y="876.852"/><use xlink:href="#10823e2el" x="83.96042" y="876.852"/><use xlink:href="#10823e2em" x="90.62742" y="876.852"/><use xlink:href="#10823e2ek" x="97.29442" y="876.852"/><use xlink:href="#10823e2em" x="103.96142" y="876.852"/><use xlink:href="#10823e2eg" x="110.62842" y="876.852"/><use xlink:href="#10823e2eh" x="117.29542" y="876.852"/><use xlink:href="#10823e2ei" x="123.96242" y="876.852"/><use xlink:href="#10823e2ej" x="130.62942" y="876.852"/><use xlink:href="#10823e2eG" x="137.29642" y="876.852"/><use xlink:href="#10823e2ex" x="143.96342" y="876.852"/><use xlink:href="#10823e2eaK" x="150.63042" y="876.852"/><use xlink:href="#10823e2eaL" x="157.29742" y="876.852"/><use xlink:href="#10823e2ey" x="163.96442" y="876.852"/><use xlink:href="#10823e2em" x="170.63142" y="876.852"/></g><g><use xlink:href="#10823e2ebl" x="265.93125" y="839.444"/><use xlink:href="#10823e2ebm" x="292.03125" y="839.444"/><use xlink:href="#10823e2ebn" x="318.71625" y="839.444"/><use xlink:href="#10823e2ebo" x="345.40125" y="839.444"/><use xlink:href="#10823e2ebp" x="360.02625" y="839.444"/><use xlink:href="#10823e2ebq" x="386.84625" y="839.444"/></g><g fill-opacity=".33"><use xlink:href="#10823e2eg" x="249.37458" y="876.852"/><use xlink:href="#10823e2eh" x="256.04158" y="876.852"/><use xlink:href="#10823e2ei" x="262.70858" y="876.852"/><use xlink:href="#10823e2ej" x="269.37558" y="876.852"/><use xlink:href="#10823e2ek" x="276.04258" y="876.852"/><use xlink:href="#10823e2el" x="282.70958" y="876.852"/><use xlink:href="#10823e2em" x="289.37658" y="876.852"/><use xlink:href="#10823e2ek" x="296.04358" y="876.852"/><use xlink:href="#10823e2em" x="302.71058" y="876.852"/><use xlink:href="#10823e2eg" x="309.37758" y="876.852"/><use xlink:href="#10823e2eh" x="316.04458" y="876.852"/><use xlink:href="#10823e2ei" x="322.71158" y="876.852"/><use xlink:href="#10823e2ej" x="329.37858" y="876.852"/><use xlink:href="#10823e2eG" x="336.04558" y="876.852"/><use xlink:href="#10823e2ex" x="342.71258" y="876.852"/><use xlink:href="#10823e2eaK" x="349.37958" y="876.852"/><use xlink:href="#10823e2eaL" x="356.04658" y="876.852"/><use xlink:href="#10823e2ey" x="362.71358" y="876.852"/><use xlink:href="#10823e2em" x="369.38058" y="876.852"/><use xlink:href="#10823e2eg" x="376.04758" y="876.852"/><use xlink:href="#10823e2ew" x="382.71458" y="876.852"/><use xlink:href="#10823e2ej" x="389.38158" y="876.852"/><use xlink:href="#10823e2ex" x="396.04858" y="876.852"/><use xlink:href="#10823e2ey" x="402.71558" y="876.852"/><use xlink:href="#10823e2ep" x="409.38258" y="876.852"/><use xlink:href="#10823e2ez" x="416.04958" y="876.852"/></g><g><use xlink:href="#10823e2ebr" x="37.14375" y="949.592"/><use xlink:href="#10823e2ebs" x="65.98875" y="949.592"/><use xlink:href="#10823e2ebt" x="96.36375" y="949.592"/><use xlink:href="#10823e2ebu" x="125.38875" y="949.592"/><use xlink:href="#10823e2ebv" x="141.63375" y="949.592"/><use xlink:href="#10823e2ebw" x="169.12875" y="949.592"/></g><g fill-opacity=".33"><use xlink:href="#10823e2eg" x="63.95875" y="987"/><use xlink:href="#10823e2eh" x="70.62575" y="987"/><use xlink:href="#10823e2ei" x="77.29275" y="987"/><use xlink:href="#10823e2ej" x="83.95975" y="987"/><use xlink:href="#10823e2ek" x="90.62675" y="987"/><use xlink:href="#10823e2el" x="97.29375" y="987"/><use xlink:href="#10823e2em" x="103.96075" y="987"/><use xlink:href="#10823e2ek" x="110.62775" y="987"/><use xlink:href="#10823e2em" x="117.29475" y="987"/><use xlink:href="#10823e2eg" x="123.96175" y="987"/><use xlink:href="#10823e2eaY" x="130.62875" y="987"/><use xlink:href="#10823e2ey" x="137.29575" y="987"/><use xlink:href="#10823e2ex" x="143.96275" y="987"/><use xlink:href="#10823e2ez" x="150.62975" y="987"/><use xlink:href="#10823e2ebx" x="157.29675" y="987"/></g><g><use xlink:href="#10823e2eby" x="262.15125" y="949.592"/><use xlink:href="#10823e2ebz" x="288.70125" y="949.592"/><use xlink:href="#10823e2ebA" x="317.68125" y="949.592"/><use xlink:href="#10823e2ebB" x="345.67125" y="949.592"/><use xlink:href="#10823e2ebC" x="361.51125" y="949.592"/><use xlink:href="#10823e2ebD" x="389.68125" y="949.592"/></g><g fill-opacity=".33"><use xlink:href="#10823e2eg" x="262.70792" y="987"/><use xlink:href="#10823e2eh" x="269.37492" y="987"/><use xlink:href="#10823e2ei" x="276.04192" y="987"/><use xlink:href="#10823e2ej" x="282.70892" y="987"/><use xlink:href="#10823e2ek" x="289.37592" y="987"/><use xlink:href="#10823e2el" x="296.04292" y="987"/><use xlink:href="#10823e2em" x="302.70992" y="987"/><use xlink:href="#10823e2ek" x="309.37692" y="987"/><use xlink:href="#10823e2em" x="316.04392" y="987"/><use xlink:href="#10823e2eg" x="322.71092" y="987"/><use xlink:href="#10823e2eaY" x="329.37792" y="987"/><use xlink:href="#10823e2ey" x="336.04492" y="987"/><use xlink:href="#10823e2ex" x="342.71192" y="987"/><use xlink:href="#10823e2ez" x="349.37892" y="987"/><use xlink:href="#10823e2ebx" x="356.04592" y="987"/><use xlink:href="#10823e2eg" x="362.71292" y="987"/><use xlink:href="#10823e2ew" x="369.37992" y="987"/><use xlink:href="#10823e2ej" x="376.04692" y="987"/><use xlink:href="#10823e2ex" x="382.71392" y="987"/><use xlink:href="#10823e2ey" x="389.38092" y="987"/><use xlink:href="#10823e2ep" x="396.04792" y="987"/><use xlink:href="#10823e2ez" x="402.71492" y="987"/></g></svg>