<?xml version='1.0' encoding='UTF-8'?>
<svg xmlns="http://www.w3.org/2000/svg" xmlns:xlink="http://www.w3.org/1999/xlink" width="600px" height="300px" viewBox="0 0 600 300" x="0px" y="0px" enable-background="new 0 0 600 300"><defs><symbol overflow="visible" id="57a3dcc0a"><path d="M3.36-19.31C3.36-8.21 9.13.66 20.88.66c4.32 0 8.17-1.08 11.53-2.82l-1.46-3.71a22.34 22.34 0 01-9.47 2.21c-9.71 0-13.07-7.86-13.07-16.07 0-5.05 1.25-10.08 4.54-13.57 2.05-2.04 4.82-3.25 8.4-3.25 3.3 0 6 .85 8.88 2.47l1.86-3.72a18.82 18.82 0 00-10.67-3.06C9-40.86 3.36-30.19 3.36-19.3zm0 0"/></symbol><symbol overflow="visible" id="57a3dcc0b"><path d="M28.56-4.14H10.38v-14.34h14.64v-4.2H10.38v-13.38h18l.18-4.14H5.64V0H28.7zm0 0"/></symbol><symbol overflow="visible" id="57a3dcc0c"><path d="M27.55-4.14H10.37V-40.2H5.64V0h22.08zm0 0"/></symbol><symbol overflow="visible" id="57a3dcc0d"><path d="M-8.05-21.66c0 1.74 1.03 3.18 2.96 3.18 1.9 0 3.04-1.44 3.04-3.43 0-1.73-1.14-3.04-2.93-3.04-1.93 0-3.07 1.43-3.07 3.3zm0 0"/></symbol><symbol overflow="visible" id="57a3dcc0f"><path d="M3.19-13.31C3.19-4.7 7.92.66 15.55.66c2.64 0 5.75-.72 8.68-2.04l-1.07-3.6c-2.52.96-5.04 1.5-6.96 1.5-5.15 0-8.22-3.3-8.22-10.44 0-4.38 1.2-7.5 3.24-9.17a6.84 6.84 0 014.37-1.5c2.41 0 4.4.95 6.55 2.87l2.34-2.76c-2.17-2.7-4.8-4.2-8.53-4.2-7.67 0-12.76 6.24-12.76 15.37zm0 0"/></symbol><symbol overflow="visible" id="57a3dcc0g"><path d="M3.19-13.44C3.19-4.2 8.45.66 15.36.66c3.36 0 6.72-.72 10.02-2.29l-1.2-3.35a22.28 22.28 0 01-7.98 1.5c-4.68 0-7.92-2.88-8.22-9.36h17.64c.3-1.44.43-3.11.43-4.61 0-6.36-3.36-11.35-10.14-11.35-7.86 0-12.72 6.78-12.72 15.36zm12.36-11.4c3.82 0 5.75 2.76 5.75 6.54 0 .66 0 1.38-.07 2.03H8.05c.6-5.32 3.17-8.57 7.5-8.57zm0 0"/></symbol><symbol overflow="visible" id="57a3dcc0h"><path d="M9.42-45.06l-4.69.12v40.08c0 3.6 1.75 5.52 4.93 5.52 1.5 0 3.18-.3 4.75-.96l-1.04-3.54c-.82.3-1.6.42-2.21.42-1.2 0-1.74-.78-1.74-2.7zm0 0"/></symbol><symbol overflow="visible" id="57a3dcc0i"><path d="M-1.02-21.3c0 1.74 1.02 3.18 2.94 3.18s3.06-1.44 3.06-3.43c0-1.73-1.14-3.04-2.93-3.04-1.92 0-3.07 1.43-3.07 3.3zm0 0"/></symbol><symbol overflow="visible" id="57a3dcc0j"><path d="M6.36-13.14a7.96 7.96 0 00-3.84 6.78C2.52-2.05 5.34.66 9.84.66c3.43 0 6.79-1.57 9.72-4.2L20.41.3l3.95-.6c-.42-5.93-.48-8.4-.48-10.56v-7.2c0-7.38-2.65-10.63-8.65-10.63-4.43 0-8.39 1.88-11.51 4.57l1.73 2.93c2.96-2.03 6.13-3.36 8.96-3.36 3.46 0 4.8 2.05 4.8 7.99v.42c-6.5.55-10.44 1.44-12.85 3zm.78 6.23c0-1.8.84-2.93 1.8-3.65 1.44-.9 4.08-1.63 10.26-2.1v5.64c-2.93 2.52-5.93 3.9-8.4 3.9-2.28 0-3.66-1.32-3.66-3.79zm0 0"/></symbol><symbol overflow="visible" id="57a3dcc0k"><path d="M3.83 0v-5.95H6.2v-.82H.45v.82h2.4V0zm0 0"/></symbol><symbol overflow="visible" id="57a3dcc0l"><path d="M5.75-2.23v-.43c0-1.6-.9-2.51-2.42-2.51S.87-4.16.87-2.48c0 1.71.91 2.62 2.5 2.62 1.43 0 2.07-.56 2.29-1.52l-.9-.09c-.18.61-.59.9-1.35.9-.94 0-1.52-.54-1.58-1.66zm-2.4-2.2c.93 0 1.43.5 1.48 1.55H1.84c.08-1.07.6-1.56 1.5-1.56zm0 0"/></symbol><symbol overflow="visible" id="57a3dcc0m"><path d="M1.83 0l1.42-2h.06l1.46 2H5.8L4-2.53l1.78-2.49H4.8L3.42-3.08h-.08l-1.4-1.94H.89l1.78 2.49L.84 0zm0 0"/></symbol><symbol overflow="visible" id="57a3dcc0n"><path d="M5.52-4.25v-.77H3.17v-1.56h-.81l-.14 1.56H.75v.77h1.47v2.4c0 1.3.48 1.94 1.84 1.94C4.6.1 5.14 0 5.55-.14L5.4-.91c-.32.13-.72.2-1.13.2-.8 0-1.1-.37-1.1-1.23v-2.31zm0 0"/></symbol><symbol overflow="visible" id="57a3dcc0o"><path d="M3.33-3.42c.47 0 .8-.27.8-.8 0-.51-.33-.8-.8-.8-.47 0-.8.29-.8.8 0 .53.33.8.8.8zm0 3.5c.47 0 .8-.27.8-.78 0-.53-.33-.82-.8-.82-.47 0-.8.29-.8.82 0 .51.33.78.8.78zm0 0"/></symbol><symbol overflow="visible" id="57a3dcc0q"><path d="M3.42.14C5.1.14 5.9-.69 6.11-2.17l-.95-.1C4.96-1.19 4.5-.69 3.44-.69c-1.27 0-1.81-.94-1.81-2.69s.54-2.7 1.8-2.7c1.09 0 1.5.49 1.73 1.58l.93-.1c-.21-1.46-.95-2.3-2.62-2.3C1.53-6.9.62-5.6.62-3.38c0 2.2.91 3.51 2.8 3.51zm0 0"/></symbol><symbol overflow="visible" id="57a3dcc0r"><path d="M5.92-6.77H1.1V0h4.83v-.8H2.06v-2.26h3.22v-.75H2.06v-2.16h3.86zm0 0"/></symbol><symbol overflow="visible" id="57a3dcc0s"><path d="M2.08-6.77h-.99V0h4.79v-.81h-3.8zm0 0"/></symbol><symbol overflow="visible" id="57a3dcc0t"><path d="M3.33-1.98c.51 0 .83-.27.83-.8 0-.56-.32-.83-.83-.83-.52 0-.81.27-.81.83 0 .53.3.8.8.8zm0 0"/></symbol><symbol overflow="visible" id="57a3dcc0u"><path d="M3.34.14c1.43 0 2.13-.66 2.25-1.78l-.89-.1c-.1.7-.5 1.08-1.34 1.08-1.03 0-1.52-.64-1.52-1.84 0-1.23.47-1.86 1.52-1.86.84 0 1.23.36 1.34 1.08l.9-.1c-.13-1.09-.82-1.78-2.26-1.78-1.56 0-2.46.97-2.46 2.66 0 1.66.9 2.64 2.46 2.64zm0 0"/></symbol><symbol overflow="visible" id="57a3dcc0v"><path d="M3.92-7.14H1.36v.76h1.6v5.61H1.15V0H5.7v-.77H3.92zm0 0"/></symbol><symbol overflow="visible" id="57a3dcc0w"><path d="M2.83.14c.94 0 1.5-.39 1.81-.95h.08l.1.81h.76v-3.38c0-1.23-.69-1.8-2.13-1.8-1.43 0-2.03.65-2.18 1.6l.93.1c.11-.6.44-.93 1.22-.93.85 0 1.22.32 1.22 1.04v.34l-1.81.2C1.6-2.7 1.1-2.17 1.1-1.28c0 .92.64 1.42 1.72 1.42zm.25-.77c-.67 0-1.02-.28-1.02-.74 0-.44.28-.72 1-.82l1.58-.19v.41c0 .8-.6 1.34-1.56 1.34zm0 0"/></symbol><symbol overflow="visible" id="57a3dcc0x"><path d="M5.95-6.77H1.1V0h.99v-2.92H5.3v-.77H2.08v-2.26h3.87zm0 0"/></symbol><symbol overflow="visible" id="57a3dcc0y"><path d="M2.73.14c.9 0 1.43-.45 1.74-1.08h.06l.13.94h.8v-5.02h-.94v2.7c0 .98-.57 1.62-1.46 1.62-.75 0-1.1-.4-1.1-1.22v-3.1h-.93v3.32c0 1.17.55 1.84 1.7 1.84zm0 0"/></symbol><symbol overflow="visible" id="57a3dcc0z"><path d="M5.08-5.16c-.94 0-1.58.43-1.9 1.3h-.09l-.07-1.16H1.05v.77h1.1v3.48H.96V0h3.96v-.77H3.1v-1.46c0-1.36.6-2.05 1.83-2.05.4 0 .76.08 1.1.17l.15-.87c-.33-.11-.7-.18-1.11-.18zm0 0"/></symbol><symbol overflow="visible" id="57a3dcc0A"><path d="M2.16 0v-2.67c0-.99.59-1.63 1.46-1.63.74 0 1.07.38 1.07 1.22V0h.95v-3.31c0-1.2-.56-1.85-1.67-1.85-.92 0-1.49.46-1.77 1.08h-.06l-.12-.94H1.2V0zm0 0"/></symbol><symbol overflow="visible" id="57a3dcc0B"><path d="M1.45-2.95c0 2.56 1.08 4.37 3.67 4.84l.11-.67C3.28.86 2.43-.75 2.43-2.95s.85-3.82 2.8-4.16l-.1-.69c-2.6.49-3.68 2.3-3.68 4.85zm0 0"/></symbol><symbol overflow="visible" id="57a3dcc0C"><path d="M3.36.16c1.4 0 2.2-.6 2.2-1.57 0-.89-.54-1.22-1.47-1.39L3-3c-.67-.14-.86-.33-.86-.73 0-.5.4-.74 1.17-.74.83 0 1.19.27 1.27.8l.9-.05c-.12-1-.8-1.47-2.17-1.47-1.34 0-2.1.53-2.1 1.5 0 .81.45 1.22 1.52 1.44l1.04.2c.56.11.87.24.87.72 0 .52-.45.78-1.28.78-.95 0-1.36-.28-1.42-.87l-.9.06C1.07-.36 1.8.16 3.35.16zm0 0"/></symbol><symbol overflow="visible" id="57a3dcc0D"><path d="M3.16 2.03c1.67 0 2.4-.86 2.4-2.51v-4.54h-.81l-.13.91h-.06c-.26-.58-.8-1.05-1.73-1.05-1.42 0-2.24 1-2.24 2.52 0 1.6.75 2.56 2.2 2.56.94 0 1.5-.5 1.77-1.03h.05v.72c0 1.17-.42 1.67-1.45 1.67-.93 0-1.3-.34-1.41-.89L.8.5c.12.96.87 1.54 2.36 1.54zM3.06-.8c-.98 0-1.48-.57-1.48-1.82 0-1.13.5-1.75 1.48-1.75 1.06 0 1.58.76 1.58 1.75 0 .95-.56 1.82-1.58 1.82zm0 0"/></symbol><symbol overflow="visible" id="57a3dcc0E"><path d="M1.45-7.1c1.96.33 2.8 1.94 2.8 4.15 0 2.2-.84 3.8-2.8 4.17l.11.67c2.58-.47 3.67-2.28 3.67-4.84 0-2.55-1.09-4.36-3.67-4.85zm0 0"/></symbol></defs><g fill="#515151"><use xlink:href="#57a3dcc0a" x="169.11" y="151"/><use xlink:href="#57a3dcc0b" x="203.73" y="151"/></g><use xlink:href="#57a3dcc0c" x="235.53" y="151" fill="#fff"/><use xlink:href="#57a3dcc0d" x="264.69" y="151" fill="#fff"/><use xlink:href="#57a3dcc0c" x="267.75" y="151" fill="#fff"/><g fill="#515151"><use xlink:href="#57a3dcc0e" x="296.91" y="151"/><use xlink:href="#57a3dcc0f" x="309.87" y="151"/><use xlink:href="#57a3dcc0g" x="336.63" y="151"/></g><use xlink:href="#57a3dcc0h" x="365.85" y="151" fill="#fff"/><use xlink:href="#57a3dcc0i" x="381.33" y="151" fill="#fff"/><use xlink:href="#57a3dcc0h" x="386.91" y="151" fill="#fff"/><use xlink:href="#57a3dcc0j" x="402.39" y="151" fill="#515151"/><g fill="#fff"><use xlink:href="#57a3dcc0k" x="240" y="252"/><use xlink:href="#57a3dcc0l" x="246.667" y="252"/><use xlink:href="#57a3dcc0m" x="253.334" y="252"/><use xlink:href="#57a3dcc0n" x="260.001" y="252"/><use xlink:href="#57a3dcc0o" x="266.668" y="252"/><use xlink:href="#57a3dcc0p" x="273.335" y="252"/><use xlink:href="#57a3dcc0q" x="280.002" y="252"/><use xlink:href="#57a3dcc0r" x="286.669" y="252"/><use xlink:href="#57a3dcc0s" x="293.336" y="252"/><use xlink:href="#57a3dcc0t" x="300.003" y="252"/><use xlink:href="#57a3dcc0s" x="306.67" y="252"/><use xlink:href="#57a3dcc0p" x="313.337" y="252"/><use xlink:href="#57a3dcc0u" x="320.004" y="252"/><use xlink:href="#57a3dcc0l" x="326.671" y="252"/><use xlink:href="#57a3dcc0v" x="333.338" y="252"/><use xlink:href="#57a3dcc0t" x="340.005" y="252"/><use xlink:href="#57a3dcc0v" x="346.672" y="252"/><use xlink:href="#57a3dcc0w" x="353.339" y="252"/></g><g fill="#fff"><use xlink:href="#57a3dcc0x" x="196.6667" y="266"/><use xlink:href="#57a3dcc0l" x="203.3337" y="266"/><use xlink:href="#57a3dcc0w" x="210.0007" y="266"/><use xlink:href="#57a3dcc0n" x="216.6677" y="266"/><use xlink:href="#57a3dcc0y" x="223.3347" y="266"/><use xlink:href="#57a3dcc0z" x="230.0017" y="266"/><use xlink:href="#57a3dcc0l" x="236.6687" y="266"/><use xlink:href="#57a3dcc0o" x="243.3357" y="266"/><use xlink:href="#57a3dcc0p" x="250.0027" y="266"/><use xlink:href="#57a3dcc0q" x="256.6697" y="266"/><use xlink:href="#57a3dcc0w" x="263.3367" y="266"/><use xlink:href="#57a3dcc0n" x="270.0037" y="266"/><use xlink:href="#57a3dcc0w" x="276.6707" y="266"/><use xlink:href="#57a3dcc0v" x="283.3377" y="266"/><use xlink:href="#57a3dcc0w" x="290.0047" y="266"/><use xlink:href="#57a3dcc0A" x="296.6717" y="266"/><use xlink:href="#57a3dcc0p" x="303.3387" y="266"/><use xlink:href="#57a3dcc0B" x="310.0057" y="266"/><use xlink:href="#57a3dcc0C" x="316.6727" y="266"/><use xlink:href="#57a3dcc0l" x="323.3397" y="266"/><use xlink:href="#57a3dcc0n" x="330.0067" y="266"/><use xlink:href="#57a3dcc0p" x="336.6737" y="266"/><use xlink:href="#57a3dcc0v" x="343.3407" y="266"/><use xlink:href="#57a3dcc0w" x="350.0077" y="266"/><use xlink:href="#57a3dcc0A" x="356.6747" y="266"/><use xlink:href="#57a3dcc0D" x="363.3417" y="266"/><use xlink:href="#57a3dcc0y" x="370.0087" y="266"/><use xlink:href="#57a3dcc0w" x="376.6757" y="266"/><use xlink:href="#57a3dcc0D" x="383.3427" y="266"/><use xlink:href="#57a3dcc0l" x="390.0097" y="266"/><use xlink:href="#57a3dcc0E" x="396.6767" y="266"/></g></svg>