<?xml version='1.0' encoding='UTF-8'?>
<svg xmlns="http://www.w3.org/2000/svg" xmlns:xlink="http://www.w3.org/1999/xlink" width="600px" height="300px" viewBox="0 0 600 300" x="0px" y="0px" enable-background="new 0 0 600 300"><defs><symbol overflow="visible" id="69059ec9a"><path d="M3.9-29.77c0 6.97 5.65 9.25 11.1 11.35 4.92 1.8 9.48 3.36 9.48 8.1 0 4.91-4.75 6.77-9.25 6.77-3.95 0-7.67-1.14-10.86-3.04L2.52-2.88C5.45-.71 10.38.85 15.12.85c7.61 0 14.33-3.71 14.33-11.57 0-7.33-6.17-9.49-11.93-11.7-4.61-1.7-8.64-3.3-8.64-7.76 0-5.03 4.92-6.47 8.93-6.47 3.25 0 6.55.78 8.96 1.68l1.43-3.72a23.92 23.92 0 00-10.14-2.35c-7.01 0-14.15 3.36-14.15 11.28zm0 0"/></symbol><symbol overflow="visible" id="69059ec9b"><path d="M3.19-13.31C3.19-4.7 7.92.66 15.55.66c2.64 0 5.75-.72 8.68-2.04l-1.07-3.6c-2.52.96-5.04 1.5-6.96 1.5-5.15 0-8.22-3.3-8.22-10.44 0-4.38 1.2-7.5 3.24-9.17a6.84 6.84 0 014.37-1.5c2.41 0 4.4.95 6.55 2.87l2.34-2.76c-2.17-2.7-4.8-4.2-8.53-4.2-7.67 0-12.76 6.24-12.76 15.37zm0 0"/></symbol><symbol overflow="visible" id="69059ec9c"><path d="M3.19-13.5C3.19-5.16 7.79.84 15.29.84c8.65 0 12.85-7.75 12.85-15.3 0-8.27-4.56-14.4-12.12-14.4-8.64 0-12.83 7.92-12.83 15.36zm20.1-.23c0 3.71-.98 6.78-2.65 8.57a6.5 6.5 0 01-4.86 1.93c-5.1 0-7.8-4.5-7.8-10.93 0-4.03 1.08-6.96 2.7-8.76a6.93 6.93 0 014.87-1.86c5.1 0 7.73 4.62 7.73 11.05zm0 0"/></symbol><symbol overflow="visible" id="69059ec9d"><path d="M10.92-36.36h-3.9l-1.08 8.34H1.98v3.9h4.2v15.9C6.19-1.5 8.23.66 12.73.66c2.1 0 4.8-.43 7.2-1.32l-.9-3.54c-1.74.42-3.54.65-4.57.65-2.8 0-3.53-1.25-3.53-5.87v-14.7h8.58v-3.9h-8.58zm0 0"/></symbol><symbol overflow="visible" id="69059ec9e"><path d="M9.55-45.06l-4.75.12V0h4.75zm0 0"/></symbol><symbol overflow="visible" id="69059ec9f"><path d="M6.36-13.14a7.96 7.96 0 00-3.84 6.78C2.52-2.05 5.34.66 9.84.66c3.43 0 6.79-1.57 9.72-4.2L20.41.3l3.95-.6c-.42-5.93-.48-8.4-.48-10.56v-7.2c0-7.38-2.65-10.63-8.65-10.63-4.43 0-8.39 1.88-11.51 4.57l1.73 2.93c2.96-2.03 6.13-3.36 8.96-3.36 3.46 0 4.8 2.05 4.8 7.99v.42c-6.5.55-10.44 1.44-12.85 3zm.78 6.23c0-1.8.84-2.93 1.8-3.65 1.44-.9 4.08-1.63 10.26-2.1v5.64c-2.93 2.52-5.93 3.9-8.4 3.9-2.28 0-3.66-1.32-3.66-3.79zm0 0"/></symbol><symbol overflow="visible" id="69059ec9g"><path d="M8.34-28.44l-3.96.53c.42 5.96.48 8.7.48 10.86V0h4.73v-21.19c2.6-2.15 5.47-3.6 8.41-3.6 3.72 0 4.69 2.48 4.69 7.5V0h4.73v-19.08c0-6.23-2.15-9.78-8.34-9.78-3.85 0-7.02 1.5-9.95 4.31zm0 0"/></symbol><symbol overflow="visible" id="69059ec9h"><path d="M3.19-13.08C3.19-5.16 7.69.84 13.92.84c3.49 0 6.3-1.8 8.81-4.43l.79 3.82 3.96-.53a122.3 122.3 0 01-.48-9.9v-34.86l-4.73.12v18.06a10.75 10.75 0 00-6.32-1.98c-8.64 0-12.82 8.1-12.76 15.78zm4.86-.97c0-3.53.76-6.89 2.8-8.93 1.21-1.2 2.84-1.8 5.23-1.8 2.15 0 4.14.48 6.19 1.62V-7.2c-2.47 2.34-4.93 3.97-7.57 3.97-4.39 0-6.65-4.57-6.65-10.82zm0 0"/></symbol><symbol overflow="visible" id="69059ec9j"><path d="M5.28-30.06c0 5.22 3.72 8.4 8.1 10.98 4.68 2.58 7.92 4.67 7.92 8.7 0 1.2-.24 2.33-.78 3.36-1.32 2.04-4.2 3.47-7.74 3.47-3.55 0-7.33-1.25-9.9-3.04L.83-2.88C3.66-.71 8.04.85 12.72.85c7.86 0 13.44-4.43 13.44-11.7 0-5.83-4.57-8.87-8.88-11.34-3.9-2.22-7.08-4.32-7.08-8.1 0-1.32.3-2.4 1.08-3.54 1.63-1.74 4.14-2.82 7.14-2.82 3.42 0 6.49.85 8.4 1.8l1.8-3.78c-2.17-1.27-5.93-2.4-9.96-2.4-7.8 0-13.38 4.13-13.38 10.98zm0 0"/></symbol><symbol overflow="visible" id="69059ec9k"><path d="M2.34-10.02C2.34-3.84 5.22.66 10.86.66c3.72 0 7.27-1.57 9.78-3.18l-1.44-3.3c-2.64 1.32-5.82 2.27-8.4 2.34-2.22-.47-3.66-2.65-3.66-6.96 0-6.42 2.28-11.51 5.58-13.69.9-.35 1.86-.46 2.7-.46 2.64 0 4.74 1.14 6.24 2.28l2.1-3.32a9.91 9.91 0 00-7.32-3.17c-8.1 0-14.16 8.64-14.1 18.78zm0 0"/></symbol><symbol overflow="visible" id="69059ec9l"><path d="M2.28-10.8C2.28-4.02 5.58.84 12 .84c8.94 0 14.16-9.78 14.28-18.06 0-6.66-3-11.7-9.72-11.7-9.06 0-14.22 9.97-14.28 18.12zm19.14-6.3c0 5.16-1.8 9.83-4.69 12.6a7.17 7.17 0 01-3.95 1.2c-3.72 0-5.7-3.18-5.64-7.62 0-5.03 1.8-10.02 4.67-12.66a7.26 7.26 0 013.97-1.2c4.08 0 5.7 3.12 5.64 7.69zm0 0"/></symbol><symbol overflow="visible" id="69059ec9m"><path d="M3-27.78l-.42 3.42h4.2L4.44-6.42C3.84-1.92 5.52.66 9.06.66c3.42 0 6.96-1.74 8.81-3.11l-1.18-3c-1.57.83-4.14 1.86-5.96 1.86-1.37 0-1.8-1.14-1.5-3.49l2.29-17.28h8.4l.49-3.72H12l1.08-8.34-3.42.06-2.22 8.28zm0 0"/></symbol><symbol overflow="visible" id="69059ec9n"><path d="M12.9-45.06l-4.74.12L2.22 0h4.73zm0 0"/></symbol><symbol overflow="visible" id="69059ec9o"><path d="M2.28-9.36c0 5.4 1.8 10.14 6.6 10.14 3.3 0 6.78-2.22 9.6-4.98l.3 4.43 3.9-.46c.3-5.29.54-7.63.77-9.55l2.18-16.38h.06a15.08 15.08 0 00-8.47-2.76c-8.81 0-15 8.76-14.94 19.56zm4.8-.9c0-6.12 2.22-11.52 6-13.87a8.9 8.9 0 013.19-.59c1.43 0 2.87.24 4.37.78L18.48-8.22c-2.53 2.52-5.7 4.56-8.28 4.74-2.15-.24-3.12-3-3.12-6.79zm0 0"/></symbol><symbol overflow="visible" id="69059ec9p"><path d="M9.48-28.31l-3.96.4c-.54 6.97-.79 9.43-1.02 11.54L2.34 0h4.74l2.47-18.6c3.1-3.35 6.82-5.95 10.07-6.12 2.29.42 2.04 3.42 1.57 7.14L18.84 0h4.68l2.53-19.08c.76-5.76.23-9.84-5.6-9.84-3.76 0-7.6 2.51-10.73 6zm0 0"/></symbol><symbol overflow="visible" id="69059ec9q"><path d="M2.28-9.36C2.34-4.02 4.27.78 8.94.78c3.3 0 6.72-2.22 9.65-5.05l.25 4.5 3.9-.46c.35-5.58.54-7.93.78-9.91l4.62-34.92-4.73.12-2.22 16.67c-1.2-.42-2.6-.65-4.1-.65-8.8 0-14.87 8.83-14.8 19.56zm4.8-.9c0-6.12 2.28-11.52 6-13.87a8.4 8.4 0 013.19-.59c1.43 0 2.87.24 4.37.78l-2.1 15.72c-2.7 2.58-5.7 4.56-8.27 4.74-2.18-.24-3.2-3-3.2-6.79zm0 0"/></symbol><symbol overflow="visible" id="69059ec9r"><path d="M3.83 0v-5.95H6.2v-.82H.45v.82h2.4V0zm0 0"/></symbol><symbol overflow="visible" id="69059ec9s"><path d="M5.75-2.23v-.43c0-1.6-.9-2.51-2.42-2.51S.87-4.16.87-2.48c0 1.71.91 2.62 2.5 2.62 1.43 0 2.07-.56 2.29-1.52l-.9-.09c-.18.61-.59.9-1.35.9-.94 0-1.52-.54-1.58-1.66zm-2.4-2.2c.93 0 1.43.5 1.48 1.55H1.84c.08-1.07.6-1.56 1.5-1.56zm0 0"/></symbol><symbol overflow="visible" id="69059ec9t"><path d="M1.83 0l1.42-2h.06l1.46 2H5.8L4-2.53l1.78-2.49H4.8L3.42-3.08h-.08l-1.4-1.94H.89l1.78 2.49L.84 0zm0 0"/></symbol><symbol overflow="visible" id="69059ec9u"><path d="M5.52-4.25v-.77H3.17v-1.56h-.81l-.14 1.56H.75v.77h1.47v2.4c0 1.3.48 1.94 1.84 1.94C4.6.1 5.14 0 5.55-.14L5.4-.91c-.32.13-.72.2-1.13.2-.8 0-1.1-.37-1.1-1.23v-2.31zm0 0"/></symbol><symbol overflow="visible" id="69059ec9v"><path d="M3.33-3.42c.47 0 .8-.27.8-.8 0-.51-.33-.8-.8-.8-.47 0-.8.29-.8.8 0 .53.33.8.8.8zm0 3.5c.47 0 .8-.27.8-.78 0-.53-.33-.82-.8-.82-.47 0-.8.29-.8.82 0 .51.33.78.8.78zm0 0"/></symbol><symbol overflow="visible" id="69059ec9x"><path d="M3.42.14c1.61 0 2.56-.75 2.56-2 0-1.1-.67-1.6-1.95-1.86l-.97-.2c-.87-.17-1.23-.49-1.23-1.11 0-.7.54-1.11 1.5-1.11 1.06 0 1.51.34 1.69 1.23l.9-.09c-.17-1.28-.98-1.9-2.6-1.9C1.79-6.9.9-6.18.9-4.98c0 1.06.66 1.66 1.88 1.9l1.01.2c.85.17 1.25.4 1.25 1.09 0 .73-.6 1.16-1.6 1.16-1.07 0-1.66-.4-1.8-1.24l-.94.1C.83-.53 1.75.13 3.42.13zm0 0"/></symbol><symbol overflow="visible" id="69059ec9y"><path d="M3.34.14c1.43 0 2.13-.66 2.25-1.78l-.89-.1c-.1.7-.5 1.08-1.34 1.08-1.03 0-1.52-.64-1.52-1.84 0-1.23.47-1.86 1.52-1.86.84 0 1.23.36 1.34 1.08l.9-.1c-.13-1.09-.82-1.78-2.26-1.78-1.56 0-2.46.97-2.46 2.66 0 1.66.9 2.64 2.46 2.64zm0 0"/></symbol><symbol overflow="visible" id="69059ec9z"><path d="M3.33.14c1.62 0 2.5-.95 2.5-2.66 0-1.68-.88-2.64-2.5-2.64-1.63 0-2.5.96-2.5 2.64 0 1.7.87 2.66 2.5 2.66zm0-.77c-1.06 0-1.52-.6-1.52-1.89 0-1.28.46-1.87 1.52-1.87 1.08 0 1.53.6 1.53 1.87 0 1.29-.45 1.9-1.53 1.9zm0 0"/></symbol><symbol overflow="visible" id="69059ec9A"><path d="M3.92-7.14H1.36v.76h1.6v5.61H1.15V0H5.7v-.77H3.92zm0 0"/></symbol><symbol overflow="visible" id="69059ec9B"><path d="M2.83.14c.94 0 1.5-.39 1.81-.95h.08l.1.81h.76v-3.38c0-1.23-.69-1.8-2.13-1.8-1.43 0-2.03.65-2.18 1.6l.93.1c.11-.6.44-.93 1.22-.93.85 0 1.22.32 1.22 1.04v.34l-1.81.2C1.6-2.7 1.1-2.17 1.1-1.28c0 .92.64 1.42 1.72 1.42zm.25-.77c-.67 0-1.02-.28-1.02-.74 0-.44.28-.72 1-.82l1.58-.19v.41c0 .8-.6 1.34-1.56 1.34zm0 0"/></symbol><symbol overflow="visible" id="69059ec9C"><path d="M2.16 0v-2.67c0-.99.59-1.63 1.46-1.63.74 0 1.07.38 1.07 1.22V0h.95v-3.31c0-1.2-.56-1.85-1.67-1.85-.92 0-1.49.46-1.77 1.08h-.06l-.12-.94H1.2V0zm0 0"/></symbol><symbol overflow="visible" id="69059ec9D"><path d="M2.84.14C3.8.14 4.33-.26 4.6-.9h.07L4.8 0h.76v-7.14h-.95v2.95h-.08c-.28-.6-.86-.97-1.67-.97-1.48 0-2.27.99-2.27 2.64C.6-.84 1.36.14 2.84.14zm.22-.8c-.98 0-1.48-.59-1.48-1.84s.5-1.86 1.48-1.86c1.13 0 1.58.8 1.58 1.86S4.2-.66 3.06-.66zm0 0"/></symbol><symbol overflow="visible" id="69059ec9E"><path d="M5.95-6.77H1.1V0h.99v-2.92H5.3v-.77H2.08v-2.26h3.87zm0 0"/></symbol><symbol overflow="visible" id="69059ec9F"><path d="M2.73.14c.9 0 1.43-.45 1.74-1.08h.06l.13.94h.8v-5.02h-.94v2.7c0 .98-.57 1.62-1.46 1.62-.75 0-1.1-.4-1.1-1.22v-3.1h-.93v3.32c0 1.17.55 1.84 1.7 1.84zm0 0"/></symbol><symbol overflow="visible" id="69059ec9G"><path d="M5.08-5.16c-.94 0-1.58.43-1.9 1.3h-.09l-.07-1.16H1.05v.77h1.1v3.48H.96V0h3.96v-.77H3.1v-1.46c0-1.36.6-2.05 1.83-2.05.4 0 .76.08 1.1.17l.15-.87c-.33-.11-.7-.18-1.11-.18zm0 0"/></symbol><symbol overflow="visible" id="69059ec9H"><path d="M6.17 0L3.98-6.77h-1.3L.5 0h.97l.44-1.47h2.78L5.16 0zM3.28-5.94h.08l1.1 3.74H2.15zm0 0"/></symbol><symbol overflow="visible" id="69059ec9I"><path d="M3.58-5.81c.42 0 .72-.22.72-.67 0-.44-.3-.68-.72-.68-.44 0-.72.24-.72.68 0 .45.28.67.72.67zm.5.8H1.52v.76h1.6v3.48h-1.8V0h4.46v-.77h-1.7zm0 0"/></symbol><symbol overflow="visible" id="69059ec9J"><path d="M3.9 0l2-5.02h-.96L3.4-.94h-.07L1.8-5.02H.77L2.78 0zm0 0"/></symbol><symbol overflow="visible" id="69059ec9K"><path d="M4.63-6.5c.45 0 .98.08 1.39.2l.2-.72a5.3 5.3 0 00-1.64-.26c-1.52 0-2.16.56-2.16 1.87v.4H.9v.76h1.53V0h.94v-4.25h2.53v-.77H3.36v-.3c0-.84.33-1.18 1.27-1.18zm0 0"/></symbol><symbol overflow="visible" id="69059ec9L"><path d="M1.63 0v-2.9c0-.8.15-1.4.71-1.4.41 0 .55.3.55.88V0h.95v-2.9c0-.8.18-1.4.72-1.4.4 0 .57.3.57.88V0h.95v-3.63c0-.92-.28-1.53-1.11-1.53-.63 0-.95.41-1.1.9h-.06c-.1-.52-.44-.9-1.08-.9-.6 0-.93.41-1.06.9H1.6l-.23-.76H.67V0zm0 0"/></symbol><symbol overflow="visible" id="69059ec9M"><path d="M3.38-5.9c.12-.5.42-1.04.67-1.41l-.63-.22a4.28 4.28 0 00-1.01 2.39c0 .66.3 1 .9 1 .6 0 .9-.33.9-.9 0-.57-.32-.83-.83-.85zm0 0"/></symbol><symbol overflow="visible" id="69059ec9N"><path d="M3.3-7.53c-.55 0-.85.3-.85.84 0 .55.36.8.83.8h.03a5.1 5.1 0 01-.69 1.47l.52.23a4.29 4.29 0 001.02-2.4c0-.63-.33-.94-.86-.94zm0 0"/></symbol><symbol overflow="visible" id="69059ec9O"><path d="M1.45-2.95c0 2.56 1.08 4.37 3.67 4.84l.11-.67C3.28.86 2.43-.75 2.43-2.95s.85-3.82 2.8-4.16l-.1-.69c-2.6.49-3.68 2.3-3.68 4.85zm0 0"/></symbol><symbol overflow="visible" id="69059ec9P"><path d="M3.36.16c1.4 0 2.2-.6 2.2-1.57 0-.89-.54-1.22-1.47-1.39L3-3c-.67-.14-.86-.33-.86-.73 0-.5.4-.74 1.17-.74.83 0 1.19.27 1.27.8l.9-.05c-.12-1-.8-1.47-2.17-1.47-1.34 0-2.1.53-2.1 1.5 0 .81.45 1.22 1.52 1.44l1.04.2c.56.11.87.24.87.72 0 .52-.45.78-1.28.78-.95 0-1.36-.28-1.42-.87l-.9.06C1.07-.36 1.8.16 3.35.16zm0 0"/></symbol><symbol overflow="visible" id="69059ec9Q"><path d="M3.33.14c1.65 0 2.6-1.1 2.6-3.52S4.99-6.9 3.34-6.9C1.67-6.9.72-5.8.72-3.37c0 2.4.95 3.51 2.6 3.51zm0-.84c-1.13 0-1.6-.85-1.6-2.67 0-1.86.47-2.7 1.6-2.7 1.12 0 1.6.84 1.6 2.7 0 1.82-.48 2.67-1.6 2.67zM3.3-2.64c.38 0 .56-.28.56-.72 0-.44-.18-.7-.56-.7-.39 0-.56.26-.56.7 0 .44.17.72.56.72zm0 0"/></symbol><symbol overflow="visible" id="69059ec9R"><path d="M5.1 0v-1.47H6v-.81h-.9v-4.49H3.8L.48-2.23v.76h3.66V0zM1.5-2.33l2.6-3.53h.04v3.58H1.5zm0 0"/></symbol><symbol overflow="visible" id="69059ec9S"><path d="M1.45-7.1c1.96.33 2.8 1.94 2.8 4.15 0 2.2-.84 3.8-2.8 4.17l.11.67c2.58-.47 3.67-2.28 3.67-4.84 0-2.55-1.09-4.36-3.67-4.85zm0 0"/></symbol></defs><g fill="#515151"><use xlink:href="#69059ec9a" x="81.48" y="151"/><use xlink:href="#69059ec9b" x="113.76" y="151"/><use xlink:href="#69059ec9c" x="140.52" y="151"/><use xlink:href="#69059ec9d" x="171.78" y="151"/></g><use xlink:href="#69059ec9e" x="193.32" y="151" fill="#fff"/><g fill="#515151"><use xlink:href="#69059ec9f" x="207.66" y="151"/><use xlink:href="#69059ec9g" x="236.16" y="151"/><use xlink:href="#69059ec9h" x="268.14" y="151"/><use xlink:href="#69059ec9i" x="300" y="151"/></g><g fill="#515151"><use xlink:href="#69059ec9j" x="312.96" y="151"/><use xlink:href="#69059ec9k" x="342.66" y="151"/><use xlink:href="#69059ec9l" x="367.26" y="151"/><use xlink:href="#69059ec9m" x="396.48" y="151"/></g><use xlink:href="#69059ec9n" x="417.3" y="151" fill="#fff"/><g fill="#515151"><use xlink:href="#69059ec9o" x="430.92" y="151"/><use xlink:href="#69059ec9p" x="459.66" y="151"/><use xlink:href="#69059ec9q" x="489.6" y="151"/></g><g fill="#fff"><use xlink:href="#69059ec9r" x="223.3333" y="252"/><use xlink:href="#69059ec9s" x="230.0003" y="252"/><use xlink:href="#69059ec9t" x="236.6673" y="252"/><use xlink:href="#69059ec9u" x="243.3343" y="252"/><use xlink:href="#69059ec9v" x="250.0013" y="252"/><use xlink:href="#69059ec9w" x="256.6683" y="252"/><use xlink:href="#69059ec9x" x="263.3353" y="252"/><use xlink:href="#69059ec9y" x="270.0023" y="252"/><use xlink:href="#69059ec9z" x="276.6693" y="252"/><use xlink:href="#69059ec9u" x="283.3363" y="252"/><use xlink:href="#69059ec9A" x="290.0033" y="252"/><use xlink:href="#69059ec9B" x="296.6703" y="252"/><use xlink:href="#69059ec9C" x="303.3373" y="252"/><use xlink:href="#69059ec9D" x="310.0043" y="252"/><use xlink:href="#69059ec9w" x="316.6713" y="252"/><use xlink:href="#69059ec9x" x="323.3383" y="252"/><use xlink:href="#69059ec9y" x="330.0053" y="252"/><use xlink:href="#69059ec9z" x="336.6723" y="252"/><use xlink:href="#69059ec9u" x="343.3393" y="252"/><use xlink:href="#69059ec9A" x="350.0063" y="252"/><use xlink:href="#69059ec9B" x="356.6733" y="252"/><use xlink:href="#69059ec9C" x="363.3403" y="252"/><use xlink:href="#69059ec9D" x="370.0073" y="252"/></g><g fill="#fff"><use xlink:href="#69059ec9E" x="170" y="266"/><use xlink:href="#69059ec9s" x="176.667" y="266"/><use xlink:href="#69059ec9B" x="183.334" y="266"/><use xlink:href="#69059ec9u" x="190.001" y="266"/><use xlink:href="#69059ec9F" x="196.668" y="266"/><use xlink:href="#69059ec9G" x="203.335" y="266"/><use xlink:href="#69059ec9s" x="210.002" y="266"/><use xlink:href="#69059ec9v" x="216.669" y="266"/><use xlink:href="#69059ec9w" x="223.336" y="266"/><use xlink:href="#69059ec9H" x="230.003" y="266"/><use xlink:href="#69059ec9A" x="236.67" y="266"/><use xlink:href="#69059ec9u" x="243.337" y="266"/><use xlink:href="#69059ec9s" x="250.004" y="266"/><use xlink:href="#69059ec9G" x="256.671" y="266"/><use xlink:href="#69059ec9C" x="263.338" y="266"/><use xlink:href="#69059ec9B" x="270.005" y="266"/><use xlink:href="#69059ec9u" x="276.672" y="266"/><use xlink:href="#69059ec9I" x="283.339" y="266"/><use xlink:href="#69059ec9J" x="290.006" y="266"/><use xlink:href="#69059ec9s" x="296.673" y="266"/><use xlink:href="#69059ec9w" x="303.34" y="266"/><use xlink:href="#69059ec9K" x="310.007" y="266"/><use xlink:href="#69059ec9z" x="316.674" y="266"/><use xlink:href="#69059ec9G" x="323.341" y="266"/><use xlink:href="#69059ec9L" x="330.008" y="266"/><use xlink:href="#69059ec9w" x="336.675" y="266"/><use xlink:href="#69059ec9z" x="343.342" y="266"/><use xlink:href="#69059ec9K" x="350.009" y="266"/><use xlink:href="#69059ec9w" x="356.676" y="266"/><use xlink:href="#69059ec9M" x="363.343" y="266"/><use xlink:href="#69059ec9A" x="370.01" y="266"/><use xlink:href="#69059ec9N" x="376.677" y="266"/><use xlink:href="#69059ec9w" x="383.344" y="266"/><use xlink:href="#69059ec9O" x="390.011" y="266"/><use xlink:href="#69059ec9P" x="396.678" y="266"/><use xlink:href="#69059ec9P" x="403.345" y="266"/><use xlink:href="#69059ec9Q" x="410.012" y="266"/><use xlink:href="#69059ec9R" x="416.679" y="266"/><use xlink:href="#69059ec9S" x="423.346" y="266"/></g></svg>