<?xml version='1.0' encoding='UTF-8'?>
<svg xmlns="http://www.w3.org/2000/svg" xmlns:xlink="http://www.w3.org/1999/xlink" width="600px" height="300px" viewBox="0 0 600 300" x="0px" y="0px" enable-background="new 0 0 600 300"><defs><symbol overflow="visible" id="0ed1f860a"><path d="M3.72-20.52c.06 4.32 3.36 6.18 7.44 7.74 3.6 1.44 6.96 2.51 6.96 5.47 0 2.58-2.46 4.01-5.82 4.01-2.88 0-5.4-1.01-7.8-2.58L2.52-2.7c2.7 2.04 6 3.36 9.9 3.36 6.36 0 10.63-3.36 10.63-8.46 0-4.92-4.03-6.65-8.53-8.34-3.24-1.27-6-2.34-6-4.98 0-2.16 1.98-3.6 5.04-3.6 2.35 0 4.5.78 6.53 2.1l2.05-3.07c-2.16-1.73-5.05-3-8.52-3-5.4 0-10.03 3.07-9.9 8.17zm0 0"/></symbol><symbol overflow="visible" id="0ed1f860b"><path d="M10.92-36.36h-3.9l-1.08 8.34H1.98v3.9h4.2v15.9C6.19-1.5 8.23.66 12.73.66c2.1 0 4.8-.43 7.2-1.32l-.9-3.54c-1.74.42-3.54.65-4.57.65-2.8 0-3.53-1.25-3.53-5.87v-14.7h8.58v-3.9h-8.58zm0 0"/></symbol><symbol overflow="visible" id="0ed1f860c"><path d="M8.34-28.44l-3.96.53c.42 6.07.48 8.7.48 10.86V0h4.73v-18.78c1.93-3.42 4.46-4.92 7.14-4.92 1.2 0 2.18.12 3.25.42l.96-4.31a7.22 7.22 0 00-3.9-1.1c-3.18 0-5.76 1.99-7.74 5.53zm0 0"/></symbol><symbol overflow="visible" id="0ed1f860d"><path d="M6.36-13.14a7.96 7.96 0 00-3.84 6.78C2.52-2.05 5.34.66 9.84.66c3.43 0 6.79-1.57 9.72-4.2L20.41.3l3.95-.6c-.42-5.93-.48-8.4-.48-10.56v-7.2c0-7.38-2.65-10.63-8.65-10.63-4.43 0-8.39 1.88-11.51 4.57l1.73 2.93c2.96-2.03 6.13-3.36 8.96-3.36 3.46 0 4.8 2.05 4.8 7.99v.42c-6.5.55-10.44 1.44-12.85 3zm.78 6.23c0-1.8.84-2.93 1.8-3.65 1.44-.9 4.08-1.63 10.26-2.1v5.64c-2.93 2.52-5.93 3.9-8.4 3.9-2.28 0-3.66-1.32-3.66-3.79zm0 0"/></symbol><symbol overflow="visible" id="0ed1f860e"><path d="M6.48-34.31v6.3H2.16v3.89h4.32V0h4.68v-34.86c0-4.37 1.62-6.84 5.21-6.84 3.07 0 4.5 2.04 4.57 5.22 0 6.06-4.5 8.7-4.5 14.46 0 4.2 2.28 6.43 5.87 8.88C25.56-11.04 27-9.72 27-7.37c0 2.75-1.8 4.14-4.8 4.14-2.51 0-4.8-.68-6.9-1.7L13.92-1.5A16.25 16.25 0 0022.14.66c6 0 9.48-3.47 9.48-8.4 0-4.56-2.82-6.6-6.54-9.06-2.58-1.75-4.14-3.12-4.14-5.89 0-4.12 4.62-7.8 4.62-13.86 0-5.39-3.25-9.04-9.12-9.1-6.3 0-9.96 4.67-9.96 11.34zm0 0"/></symbol><symbol overflow="visible" id="0ed1f860f"><path d="M3.19-13.44C3.19-4.2 8.45.66 15.36.66c3.36 0 6.72-.72 10.02-2.29l-1.2-3.35a22.28 22.28 0 01-7.98 1.5c-4.68 0-7.92-2.88-8.22-9.36h17.64c.3-1.44.43-3.11.43-4.61 0-6.36-3.36-11.35-10.14-11.35-7.86 0-12.72 6.78-12.72 15.36zm12.36-11.4c3.82 0 5.75 2.76 5.75 6.54 0 .66 0 1.38-.07 2.03H8.05c.6-5.32 3.17-8.57 7.5-8.57zm0 0"/></symbol><symbol overflow="visible" id="0ed1f860g"><path d="M3.9-29.77c0 6.97 5.65 9.25 11.1 11.35 4.92 1.8 9.48 3.36 9.48 8.1 0 4.91-4.75 6.77-9.25 6.77-3.95 0-7.67-1.14-10.86-3.04L2.52-2.88C5.45-.71 10.38.85 15.12.85c7.61 0 14.33-3.71 14.33-11.57 0-7.33-6.17-9.49-11.93-11.7-4.61-1.7-8.64-3.3-8.64-7.76 0-5.03 4.92-6.47 8.93-6.47 3.25 0 6.55.78 8.96 1.68l1.43-3.72a23.92 23.92 0 00-10.14-2.35c-7.01 0-14.15 3.36-14.15 11.28zm0 0"/></symbol><symbol overflow="visible" id="0ed1f860h"><path d="M31.92-40.2H1.5l.13 4.2h12.71V0h4.8v-36H31.8zm0 0"/></symbol><symbol overflow="visible" id="0ed1f860i"><path d="M5.64-39.9V0h4.74v-16.38c1.5.11 3.12.18 4.26.18 1.27 0 2.4-.07 3.48-.18L27.06 0h5.1a31.08 31.08 0 00-1.8-3.78l-7.63-13.74c5.35-2.1 8.29-6.36 8.29-11.76 0-7.63-5.88-11.58-15.47-11.58-3 0-6.55.36-9.9.95zm9.95 3.35c6.68 0 10.4 2.47 10.4 7.7a7.51 7.51 0 01-4.57 7.26 17.75 17.75 0 01-6.9 1.25c-1.44 0-2.7-.11-4.14-.18v-15.6c1.85-.3 3.71-.43 5.21-.43zm0 0"/></symbol><symbol overflow="visible" id="0ed1f860j"><path d="M20.34-40.31l-5.4.23L2.45-4.2C1.92-2.77 1.56-1.44 1.2 0H6l3.78-11.22h15.24L28.73 0h4.75c-.3-1.38-.71-2.77-1.2-4.2zm-2.76 6.04h.19l2.51 8.58 3.42 10.33H11.16zm0 0"/></symbol><symbol overflow="visible" id="0ed1f860k"><path d="M28.56-4.14H10.38v-14.34h14.64v-4.2H10.38v-13.38h18l.18-4.14H5.64V0H28.7zm0 0"/></symbol><symbol overflow="visible" id="0ed1f860l"><path d="M3.83 0v-5.95H6.2v-.82H.45v.82h2.4V0zm0 0"/></symbol><symbol overflow="visible" id="0ed1f860m"><path d="M5.75-2.23v-.43c0-1.6-.9-2.51-2.42-2.51S.87-4.16.87-2.48c0 1.71.91 2.62 2.5 2.62 1.43 0 2.07-.56 2.29-1.52l-.9-.09c-.18.61-.59.9-1.35.9-.94 0-1.52-.54-1.58-1.66zm-2.4-2.2c.93 0 1.43.5 1.48 1.55H1.84c.08-1.07.6-1.56 1.5-1.56zm0 0"/></symbol><symbol overflow="visible" id="0ed1f860n"><path d="M1.83 0l1.42-2h.06l1.46 2H5.8L4-2.53l1.78-2.49H4.8L3.42-3.08h-.08l-1.4-1.94H.89l1.78 2.49L.84 0zm0 0"/></symbol><symbol overflow="visible" id="0ed1f860o"><path d="M5.52-4.25v-.77H3.17v-1.56h-.81l-.14 1.56H.75v.77h1.47v2.4c0 1.3.48 1.94 1.84 1.94C4.6.1 5.14 0 5.55-.14L5.4-.91c-.32.13-.72.2-1.13.2-.8 0-1.1-.37-1.1-1.23v-2.31zm0 0"/></symbol><symbol overflow="visible" id="0ed1f860p"><path d="M3.33-3.42c.47 0 .8-.27.8-.8 0-.51-.33-.8-.8-.8-.47 0-.8.29-.8.8 0 .53.33.8.8.8zm0 3.5c.47 0 .8-.27.8-.78 0-.53-.33-.82-.8-.82-.47 0-.8.29-.8.82 0 .51.33.78.8.78zm0 0"/></symbol><symbol overflow="visible" id="0ed1f860r"><path d="M3.36.16c1.4 0 2.2-.6 2.2-1.57 0-.89-.54-1.22-1.47-1.39L3-3c-.67-.14-.86-.33-.86-.73 0-.5.4-.74 1.17-.74.83 0 1.19.27 1.27.8l.9-.05c-.12-1-.8-1.47-2.17-1.47-1.34 0-2.1.53-2.1 1.5 0 .81.45 1.22 1.52 1.44l1.04.2c.56.11.87.24.87.72 0 .52-.45.78-1.28.78-.95 0-1.36-.28-1.42-.87l-.9.06C1.07-.36 1.8.16 3.35.16zm0 0"/></symbol><symbol overflow="visible" id="0ed1f860s"><path d="M5.08-5.16c-.94 0-1.58.43-1.9 1.3h-.09l-.07-1.16H1.05v.77h1.1v3.48H.96V0h3.96v-.77H3.1v-1.46c0-1.36.6-2.05 1.83-2.05.4 0 .76.08 1.1.17l.15-.87c-.33-.11-.7-.18-1.11-.18zm0 0"/></symbol><symbol overflow="visible" id="0ed1f860t"><path d="M2.83.14c.94 0 1.5-.39 1.81-.95h.08l.1.81h.76v-3.38c0-1.23-.69-1.8-2.13-1.8-1.43 0-2.03.65-2.18 1.6l.93.1c.11-.6.44-.93 1.22-.93.85 0 1.22.32 1.22 1.04v.34l-1.81.2C1.6-2.7 1.1-2.17 1.1-1.28c0 .92.64 1.42 1.72 1.42zm.25-.77c-.67 0-1.02-.28-1.02-.74 0-.44.28-.72 1-.82l1.58-.19v.41c0 .8-.6 1.34-1.56 1.34zm0 0"/></symbol><symbol overflow="visible" id="0ed1f860u"><path d="M3.77.14c1.3 0 2.14-.6 2.14-2 0-1.33-.97-1.86-1.8-1.89v-.05c.64-.12 1.3-.62 1.3-1.67 0-1.1-.83-1.81-2.13-1.81-1.5 0-2.26.83-2.26 2.53V0h.95v-4.8c0-1.23.37-1.73 1.31-1.73.77 0 1.24.44 1.24 1.14 0 .87-.58 1.31-1.38 1.31h-.17v.75h.22c1.06 0 1.8.36 1.8 1.4 0 1-.54 1.32-1.41 1.32a3.6 3.6 0 01-.86-.1l-.1.7c.38.09.74.15 1.15.15zm0 0"/></symbol><symbol overflow="visible" id="0ed1f860v"><path d="M3.42.14c1.61 0 2.56-.75 2.56-2 0-1.1-.67-1.6-1.95-1.86l-.97-.2c-.87-.17-1.23-.49-1.23-1.11 0-.7.54-1.11 1.5-1.11 1.06 0 1.51.34 1.69 1.23l.9-.09c-.17-1.28-.98-1.9-2.6-1.9C1.79-6.9.9-6.18.9-4.98c0 1.06.66 1.66 1.88 1.9l1.01.2c.85.17 1.25.4 1.25 1.09 0 .73-.6 1.16-1.6 1.16-1.07 0-1.66-.4-1.8-1.24l-.94.1C.83-.53 1.75.13 3.42.13zm0 0"/></symbol><symbol overflow="visible" id="0ed1f860w"><path d="M4.06-2.77c1.25-.04 1.92-.7 1.92-1.96 0-1.36-.7-2.04-2.17-2.04H.92V0h.97v-2.73h1.08L4.95 0h1.1zM1.9-6h1.7c1.07 0 1.46.34 1.46 1.28 0 .9-.44 1.27-1.47 1.27H1.89zm0 0"/></symbol><symbol overflow="visible" id="0ed1f860x"><path d="M6.17 0L3.98-6.77h-1.3L.5 0h.97l.44-1.47h2.78L5.16 0zM3.28-5.94h.08l1.1 3.74H2.15zm0 0"/></symbol><symbol overflow="visible" id="0ed1f860y"><path d="M3.9.14c1.41 0 2.16-.67 2.16-1.95 0-1.27-.84-1.77-2.06-1.85l1.69-2.2v-.58c-.7-.31-1.6-.47-2.32-.47C1.78-6.9.9-6.17.9-4.2V0h.92v-4.22c0-1.4.5-1.9 1.53-1.9.43 0 .96.06 1.36.23v.03l-1.62 2.2v.57c1.44 0 2.06.34 2.06 1.26 0 .86-.56 1.2-1.39 1.2-.38 0-.81-.06-1.1-.14l-.1.74c.36.1.9.17 1.36.17zm0 0"/></symbol><symbol overflow="visible" id="0ed1f860z"><path d="M5.92-6.77H1.1V0h4.83v-.8H2.06v-2.26h3.22v-.75H2.06v-2.16h3.86zm0 0"/></symbol><symbol overflow="visible" id="0ed1f860A"><path d="M5.95-6.77H1.1V0h.99v-2.92H5.3v-.77H2.08v-2.26h3.87zm0 0"/></symbol><symbol overflow="visible" id="0ed1f860B"><path d="M2.73.14c.9 0 1.43-.45 1.74-1.08h.06l.13.94h.8v-5.02h-.94v2.7c0 .98-.57 1.62-1.46 1.62-.75 0-1.1-.4-1.1-1.22v-3.1h-.93v3.32c0 1.17.55 1.84 1.7 1.84zm0 0"/></symbol><symbol overflow="visible" id="0ed1f860C"><path d="M3.33.14c1.9 0 2.76-1.27 2.76-3.52 0-2.26-.86-3.53-2.76-3.53S.58-5.64.58-3.37c0 2.25.86 3.51 2.75 3.51zM3.3-.67c-1.25 0-1.73-.95-1.73-2.7 0-1.77.5-2.72 1.75-2.72s1.75.95 1.75 2.71c0 1.75-.5 2.7-1.77 2.7zm0 0"/></symbol><symbol overflow="visible" id="0ed1f860D"><path d="M3.92-7.14H1.36v.76h1.6v5.61H1.15V0H5.7v-.77H3.92zm0 0"/></symbol><symbol overflow="visible" id="0ed1f860E"><path d="M2.84.14C3.8.14 4.33-.26 4.6-.9h.07L4.8 0h.76v-7.14h-.95v2.95h-.08c-.28-.6-.86-.97-1.67-.97-1.48 0-2.27.99-2.27 2.64C.6-.84 1.36.14 2.84.14zm.22-.8c-.98 0-1.48-.59-1.48-1.84s.5-1.86 1.48-1.86c1.13 0 1.58.8 1.58 1.86S4.2-.66 3.06-.66zm0 0"/></symbol><symbol overflow="visible" id="0ed1f860F"><path d="M5.33-2.2v-.75h-4v.75zm0 0"/></symbol><symbol overflow="visible" id="0ed1f860G"><path d="M3.33.14c1.62 0 2.5-.95 2.5-2.66 0-1.68-.88-2.64-2.5-2.64-1.63 0-2.5.96-2.5 2.64 0 1.7.87 2.66 2.5 2.66zm0-.77c-1.06 0-1.52-.6-1.52-1.89 0-1.28.46-1.87 1.52-1.87 1.08 0 1.53.6 1.53 1.87 0 1.29-.45 1.9-1.53 1.9zm0 0"/></symbol><symbol overflow="visible" id="0ed1f860H"><path d="M2.16 0v-2.69c0-.98.6-1.6 1.46-1.6.74 0 1.07.4 1.07 1.2V0h.95v-3.31c0-1.17-.56-1.85-1.67-1.85-.9 0-1.44.46-1.75 1.08h-.06v-3.06H1.2V0zm0 0"/></symbol><symbol overflow="visible" id="0ed1f860I"><path d="M3.16 2.03c1.67 0 2.4-.86 2.4-2.51v-4.54h-.81l-.13.91h-.06c-.26-.58-.8-1.05-1.73-1.05-1.42 0-2.24 1-2.24 2.52 0 1.6.75 2.56 2.2 2.56.94 0 1.5-.5 1.77-1.03h.05v.72c0 1.17-.42 1.67-1.45 1.67-.93 0-1.3-.34-1.41-.89L.8.5c.12.96.87 1.54 2.36 1.54zM3.06-.8c-.98 0-1.48-.57-1.48-1.82 0-1.13.5-1.75 1.48-1.75 1.06 0 1.58.76 1.58 1.75 0 .95-.56 1.82-1.58 1.82zm0 0"/></symbol><symbol overflow="visible" id="0ed1f860J"><path d="M2.06 1.9V-.84h.05c.28.58.8.97 1.77.97 1.5 0 2.2-.98 2.2-2.66 0-1.65-.7-2.64-2.19-2.64-.97 0-1.5.44-1.78 1.05h-.08l-.1-.9H1.1v6.9zm1.5-2.56c-1.06 0-1.53-.8-1.53-1.86 0-1.04.47-1.84 1.53-1.84 1.11 0 1.53.61 1.53 1.84 0 1.27-.42 1.86-1.53 1.86zm0 0"/></symbol><symbol overflow="visible" id="0ed1f860K"><path d="M3.42-.86h-.08L1.77-5.02H.8L2.73 0h.41c-.33.95-.72 1.27-1.45 1.27-.22 0-.49-.04-.69-.08l-.1.73c.2.06.58.11.87.11 1.2 0 1.7-.7 2.21-2.03l1.94-5.02H5zm0 0"/></symbol><symbol overflow="visible" id="0ed1f860L"><path d="M3.34.14c1.43 0 2.13-.66 2.25-1.78l-.89-.1c-.1.7-.5 1.08-1.34 1.08-1.03 0-1.52-.64-1.52-1.84 0-1.23.47-1.86 1.52-1.86.84 0 1.23.36 1.34 1.08l.9-.1c-.13-1.09-.82-1.78-2.26-1.78-1.56 0-2.46.97-2.46 2.66 0 1.66.9 2.64 2.46 2.64zm0 0"/></symbol><symbol overflow="visible" id="0ed1f860M"><path d="M3.58-5.81c.42 0 .72-.22.72-.67 0-.44-.3-.68-.72-.68-.44 0-.72.24-.72.68 0 .45.28.67.72.67zm.5.8H1.52v.76h1.6v3.48h-1.8V0h4.46v-.77h-1.7zm0 0"/></symbol><symbol overflow="visible" id="0ed1f860N"><path d="M2.16 0v-2.67c0-.99.59-1.63 1.46-1.63.74 0 1.07.38 1.07 1.22V0h.95v-3.31c0-1.2-.56-1.85-1.67-1.85-.92 0-1.49.46-1.77 1.08h-.06l-.12-.94H1.2V0zm0 0"/></symbol><symbol overflow="visible" id="0ed1f860O"><path d="M4.63-6.5c.45 0 .98.08 1.39.2l.2-.72a5.3 5.3 0 00-1.64-.26c-1.52 0-2.16.56-2.16 1.87v.4H.9v.76h1.53V0h.94v-4.25h2.53v-.77H3.36v-.3c0-.84.33-1.18 1.27-1.18zm0 0"/></symbol><symbol overflow="visible" id="0ed1f860P"><path d="M3.55-2.73h1.67C5.09-1.45 4.58-.64 3.36-.64c-1.25 0-1.78-1.03-1.78-2.73 0-1.77.53-2.72 1.81-2.72.9 0 1.47.45 1.69 1.43l.95-.09C5.8-6 5.11-6.91 3.41-6.91 1.44-6.9.58-5.59.58-3.37.58-1.2 1.4.13 3.14.13c1.3 0 1.78-.73 2-1.36h.1L5.33 0h.75v-3.42H3.55zm0 0"/></symbol><symbol overflow="visible" id="0ed1f860Q"><path d="M1.63 0v-2.9c0-.8.15-1.4.71-1.4.41 0 .55.3.55.88V0h.95v-2.9c0-.8.18-1.4.72-1.4.4 0 .57.3.57.88V0h.95v-3.63c0-.92-.28-1.53-1.11-1.53-.63 0-.95.41-1.1.9h-.06c-.1-.52-.44-.9-1.08-.9-.6 0-.93.41-1.06.9H1.6l-.23-.76H.67V0zm0 0"/></symbol><symbol overflow="visible" id="0ed1f860R"><path d="M5.55 0v-.75H2.3v-.06l3.2-3.49v-.72H1.2v.75H4.3v.07L1.11-.72V0zm0 0"/></symbol><symbol overflow="visible" id="0ed1f860S"><path d="M1.45-2.95c0 2.56 1.08 4.37 3.67 4.84l.11-.67C3.28.86 2.43-.75 2.43-2.95s.85-3.82 2.8-4.16l-.1-.69c-2.6.49-3.68 2.3-3.68 4.85zm0 0"/></symbol><symbol overflow="visible" id="0ed1f860T"><path d="M4.22-6.77h-.86l-2.03.7v.87c.64-.17 1.26-.38 1.89-.55v4.9H1.03V0h4.9v-.86H4.21zm0 0"/></symbol><symbol overflow="visible" id="0ed1f860U"><path d="M3.42.14c1.55 0 2.44-.84 2.44-2.33 0-1.45-.83-2.22-2.14-2.22-.75 0-1.28.27-1.67.72H2l.31-2.22h3.11v-.86H1.53l-.45 3.93h.81c.3-.36.9-.79 1.58-.79.92 0 1.44.43 1.44 1.47 0 .99-.54 1.5-1.49 1.5-.83 0-1.28-.32-1.5-1.01l-.95.1C1.07-.46 2 .13 3.42.13zm0 0"/></symbol><symbol overflow="visible" id="0ed1f860V"><path d="M1.45-7.1c1.96.33 2.8 1.94 2.8 4.15 0 2.2-.84 3.8-2.8 4.17l.11.67c2.58-.47 3.67-2.28 3.67-4.84 0-2.55-1.09-4.36-3.67-4.85zm0 0"/></symbol></defs><g fill="#515151"><use xlink:href="#0ed1f860a" x="219.57" y="121"/><use xlink:href="#0ed1f860b" x="245.43" y="121"/><use xlink:href="#0ed1f860c" x="266.97" y="121"/><use xlink:href="#0ed1f860d" x="288.87" y="121"/><use xlink:href="#0ed1f860e" x="317.37" y="121"/><use xlink:href="#0ed1f860f" x="351.21" y="121"/></g><g fill="#515151"><use xlink:href="#0ed1f860g" x="184.05" y="181"/><use xlink:href="#0ed1f860h" x="216.33" y="181"/><use xlink:href="#0ed1f860i" x="249.75" y="181"/><use xlink:href="#0ed1f860j" x="284.55" y="181"/></g><g fill="#fff"><use xlink:href="#0ed1f860g" x="319.59" y="181"/><use xlink:href="#0ed1f860g" x="351.87" y="181"/></g><use xlink:href="#0ed1f860k" x="384.15" y="181" fill="#515151"/><g fill="#fff"><use xlink:href="#0ed1f860l" x="236.6667" y="252"/><use xlink:href="#0ed1f860m" x="243.3337" y="252"/><use xlink:href="#0ed1f860n" x="250.0007" y="252"/><use xlink:href="#0ed1f860o" x="256.6677" y="252"/><use xlink:href="#0ed1f860p" x="263.3347" y="252"/><use xlink:href="#0ed1f860q" x="270.0017" y="252"/><use xlink:href="#0ed1f860r" x="276.6687" y="252"/><use xlink:href="#0ed1f860o" x="283.3357" y="252"/><use xlink:href="#0ed1f860s" x="290.0027" y="252"/><use xlink:href="#0ed1f860t" x="296.6697" y="252"/><use xlink:href="#0ed1f860u" x="303.3367" y="252"/><use xlink:href="#0ed1f860m" x="310.0037" y="252"/><use xlink:href="#0ed1f860q" x="316.6707" y="252"/><use xlink:href="#0ed1f860v" x="323.3377" y="252"/><use xlink:href="#0ed1f860l" x="330.0047" y="252"/><use xlink:href="#0ed1f860w" x="336.6717" y="252"/><use xlink:href="#0ed1f860x" x="343.3387" y="252"/><use xlink:href="#0ed1f860y" x="350.0057" y="252"/><use xlink:href="#0ed1f860z" x="356.6727" y="252"/><use xlink:href="#0ed1f860q" x="363.3397" y="252"/></g><g fill="#fff"><use xlink:href="#0ed1f860A" x="113.3333" y="266"/><use xlink:href="#0ed1f860m" x="120.0003" y="266"/><use xlink:href="#0ed1f860t" x="126.6673" y="266"/><use xlink:href="#0ed1f860o" x="133.3343" y="266"/><use xlink:href="#0ed1f860B" x="140.0013" y="266"/><use xlink:href="#0ed1f860s" x="146.6683" y="266"/><use xlink:href="#0ed1f860m" x="153.3353" y="266"/><use xlink:href="#0ed1f860p" x="160.0023" y="266"/><use xlink:href="#0ed1f860q" x="166.6693" y="266"/><use xlink:href="#0ed1f860C" x="173.3363" y="266"/><use xlink:href="#0ed1f860D" x="180.0033" y="266"/><use xlink:href="#0ed1f860E" x="186.6703" y="266"/><use xlink:href="#0ed1f860F" x="193.3373" y="266"/><use xlink:href="#0ed1f860G" x="200.0043" y="266"/><use xlink:href="#0ed1f860s" x="206.6713" y="266"/><use xlink:href="#0ed1f860o" x="213.3383" y="266"/><use xlink:href="#0ed1f860H" x="220.0053" y="266"/><use xlink:href="#0ed1f860G" x="226.6723" y="266"/><use xlink:href="#0ed1f860I" x="233.3393" y="266"/><use xlink:href="#0ed1f860s" x="240.0063" y="266"/><use xlink:href="#0ed1f860t" x="246.6733" y="266"/><use xlink:href="#0ed1f860J" x="253.3403" y="266"/><use xlink:href="#0ed1f860H" x="260.0073" y="266"/><use xlink:href="#0ed1f860K" x="266.6743" y="266"/><use xlink:href="#0ed1f860q" x="273.3413" y="266"/><use xlink:href="#0ed1f860L" x="280.0083" y="266"/><use xlink:href="#0ed1f860t" x="286.6753" y="266"/><use xlink:href="#0ed1f860r" x="293.3423" y="266"/><use xlink:href="#0ed1f860M" x="300.0093" y="266"/><use xlink:href="#0ed1f860N" x="306.6763" y="266"/><use xlink:href="#0ed1f860I" x="313.3433" y="266"/><use xlink:href="#0ed1f860q" x="320.0103" y="266"/><use xlink:href="#0ed1f860O" x="326.6773" y="266"/><use xlink:href="#0ed1f860G" x="333.3443" y="266"/><use xlink:href="#0ed1f860s" x="340.0113" y="266"/><use xlink:href="#0ed1f860q" x="346.6783" y="266"/><use xlink:href="#0ed1f860P" x="353.3453" y="266"/><use xlink:href="#0ed1f860m" x="360.0123" y="266"/><use xlink:href="#0ed1f860s" x="366.6793" y="266"/><use xlink:href="#0ed1f860Q" x="373.3463" y="266"/><use xlink:href="#0ed1f860t" x="380.0133" y="266"/><use xlink:href="#0ed1f860N" x="386.6803" y="266"/><use xlink:href="#0ed1f860q" x="393.3473" y="266"/><use xlink:href="#0ed1f860m" x="400.0143" y="266"/><use xlink:href="#0ed1f860r" x="406.6813" y="266"/><use xlink:href="#0ed1f860R" x="413.3483" y="266"/><use xlink:href="#0ed1f860m" x="420.0153" y="266"/><use xlink:href="#0ed1f860o" x="426.6823" y="266"/><use xlink:href="#0ed1f860o" x="433.3493" y="266"/><use xlink:href="#0ed1f860q" x="440.0163" y="266"/><use xlink:href="#0ed1f860S" x="446.6833" y="266"/><use xlink:href="#0ed1f860r" x="453.3503" y="266"/><use xlink:href="#0ed1f860r" x="460.0173" y="266"/><use xlink:href="#0ed1f860T" x="466.6843" y="266"/><use xlink:href="#0ed1f860U" x="473.3513" y="266"/><use xlink:href="#0ed1f860V" x="480.0183" y="266"/></g></svg>