<?xml version='1.0' encoding='UTF-8'?>
<svg xmlns="http://www.w3.org/2000/svg" xmlns:xlink="http://www.w3.org/1999/xlink" width="310px" height="280px" viewBox="0 0 310 280" x="0px" y="0px" enable-background="new 0 0 310 280"><defs><symbol overflow="visible" id="6e6bba88a"><path d="M2.55-23.19c0 5.96 4.84 7.88 9.45 9.7 3.4 1.26 6.05 2.26 6.05 4.94 0 2.74-2.74 3.85-5.96 3.85-2.96 0-6-.82-8.5-2.02L1.53-2.1A21.76 21.76 0 0012.28.67c7.02 0 12.44-3.31 12.44-9.75 0-5.89-4.8-7.86-9.9-9.87-3.21-1.25-5.65-2.27-5.65-4.82 0-2.87 2.88-3.68 5.7-3.68 2.65 0 5.2.62 7.16 1.3l1.78-4.52a19.52 19.52 0 00-9.08-2.16c-6.53 0-12.18 3.06-12.18 9.64zm0 0"/></symbol><symbol overflow="visible" id="6e6bba88b"><path d="M24.34-23.05H18.1l-6.43 8.27H9.59v-21.27l-6.42.1V0H9.6v-9.5h2.32L18.19 0h6.76a6.15 6.15 0 00-1.18-2.73l-7.07-9.8 6.35-7.92c.8-1 1.23-1.77 1.3-2.6zm0 0"/></symbol><symbol overflow="visible" id="6e6bba88c"><path d="M1.97-10.9C1.97-4.21 5.95.68 12.57.68c7.45 0 11.52-5.86 11.52-12.62 0-6.63-3.89-11.77-10.56-11.77-7.39 0-11.56 6.11-11.56 12.83zm15.64-.29c0 2.5-.52 4.47-1.53 5.67a3.73 3.73 0 01-2.92 1.25c-3.08 0-4.66-2.98-4.66-7.39 0-2.7.63-4.71 1.53-5.86a3.58 3.58 0 012.92-1.25c3.13 0 4.66 3.18 4.66 7.58zm0 0"/></symbol><symbol overflow="visible" id="6e6bba88d"><path d="M9.45-36.05l-6.37.1v31.01c0 3.6 1.9 5.47 5.17 5.47 1.64 0 3.4-.3 5.05-.97l-1.02-4.54c-.56.18-1.05.28-1.48.28-.96 0-1.35-.58-1.35-1.97zm0 0"/></symbol><symbol overflow="visible" id="6e6bba88e"><path d="M4.75-11.14a6.66 6.66 0 00-3.17 5.72c0 3.69 2.4 5.95 6.34 5.95 2.74 0 5.28-1.2 7.49-3.22L16.42.34l5.03-.73c-.32-5.17-.42-7.3-.42-9.16v-5.32c0-6-2.64-8.7-8.36-8.7-3.98 0-7.53 1.45-10.12 3.55l1.92 3.8a12.98 12.98 0 016.76-2.22c2.5 0 3.46 1.16 3.46 4.86-4.9.42-8.06 1.19-9.94 2.44zm2.78 4.8c0-1.1.4-1.77 1.06-2.2.82-.59 2.55-.96 6.1-1.21v3.6c-1.78 1.4-3.5 2.12-4.94 2.12-1.55 0-2.22-.81-2.22-2.31zm0 0"/></symbol><symbol overflow="visible" id="6e6bba88f"><path d="M7.92-23.42l-5.1.67c.35 5.47.45 7.67.45 9.64V0h6.37v-14.64a6.26 6.26 0 015.19-2.45c.92 0 1.73.04 2.64.3l1.01-5.82a6.16 6.16 0 00-3.36-.95c-2.59 0-4.46 1.62-5.95 4.26zm0 0"/></symbol><symbol overflow="visible" id="6e6bba88h"><path d="M7.92-23.42l-5.1.67c.35 5.47.45 7.67.45 9.64V0h6.37v-16.75a8.47 8.47 0 015-1.92c2.2 0 2.88 1.44 2.88 4.75V0h6.34v-15.7c0-5.22-2.22-8.02-7.25-8.02-3.13 0-5.56 1.16-7.73 3.36zm0 0"/></symbol><symbol overflow="visible" id="6e6bba88i"><path d="M2.4-16.27c.05 3.74 2.93 5.29 6.15 6.47 2.64 1.02 4.93 1.83 4.93 3.4 0 1.35-1.53 2.09-3.64 2.09-2.06 0-4.12-.63-6.09-1.78L1.53-2.16a15.13 15.13 0 008.85 2.7c5.93 0 9.64-3 9.64-7.4 0-3.98-3.13-5.48-6.86-6.87-2.55-.96-4.29-1.63-4.29-3.11 0-1.07.97-1.88 3.04-1.88 1.62 0 3.45.58 5.14 1.53l2.25-3.89a12.12 12.12 0 00-7.49-2.48c-5.28 0-9.51 2.78-9.4 7.3zm0 0"/></symbol><symbol overflow="visible" id="6e6bba88j"><path d="M4.1.17c1.93 0 3.07-.89 3.07-2.4 0-1.35-.8-1.93-2.33-2.24L3.67-4.7C2.61-4.9 2.2-5.28 2.2-6.05c0-.83.67-1.3 1.81-1.3 1.27 0 1.81.4 2.02 1.46L7.1-6C6.9-7.53 5.92-8.28 4-8.28c-1.86 0-2.92.87-2.92 2.31 0 1.28.78 1.99 2.23 2.28l1.22.24c1.02.2 1.52.5 1.52 1.3 0 .9-.72 1.4-1.92 1.4-1.29 0-2.02-.47-2.2-1.48l-1.1.1C1-.6 2.09.17 4.09.17zm0 0"/></symbol><symbol overflow="visible" id="6e6bba88k"><path d="M6.92-6.02H5.55L2.78-3.45H2.7v-5.13H1.56V0H2.7v-2.78h.08L5.64 0h1.5L3.88-3.22zm0 0"/></symbol><symbol overflow="visible" id="6e6bba88l"><path d="M4 .17c1.95 0 3-1.14 3-3.19 0-2.03-1.05-3.17-3-3.17S1-5.05 1-3.02C1-.97 2.05.18 4 .18zm0-.92c-1.28 0-1.83-.72-1.83-2.27 0-1.53.55-2.25 1.83-2.25s1.83.72 1.83 2.25C5.83-1.47 5.28-.75 4-.75zm0 0"/></symbol><symbol overflow="visible" id="6e6bba88m"><path d="M4.7-8.58H1.64v.92h1.92v6.74h-2.2V0h5.47v-.92H4.7zm0 0"/></symbol><symbol overflow="visible" id="6e6bba88n"><path d="M3.4.17C4.51.17 5.2-.3 5.57-.97h.08l.12.97h.9v-4.05c0-1.48-.82-2.15-2.54-2.15-1.73 0-2.44.75-2.6 1.9l1.1.11c.13-.7.52-1.1 1.47-1.1 1.01 0 1.47.37 1.47 1.23v.42l-2.17.23c-1.49.18-2.08.82-2.08 1.86 0 1.13.76 1.72 2.06 1.72zm.29-.92c-.81 0-1.2-.33-1.2-.9 0-.52.32-.87 1.2-.96l1.89-.23v.48c0 .95-.75 1.61-1.9 1.61zm0 0"/></symbol><symbol overflow="visible" id="6e6bba88o"><path d="M6.1-6.19c-1.12 0-1.9.52-2.3 1.57h-.08l-.11-1.4H1.27v.91h1.32v4.19H1.14V0H5.9v-.92H3.73v-1.75c0-1.64.7-2.46 2.2-2.46.48 0 .91.08 1.32.2l.17-1.05c-.39-.13-.83-.2-1.33-.2zm0 0"/></symbol><symbol overflow="visible" id="6e6bba88q"><path d="M2.6 0v-3.22c0-1.17.71-1.94 1.76-1.94.87 0 1.26.46 1.26 1.47V0h1.15v-3.97c0-1.45-.7-2.22-2-2.22-1.11 0-1.79.55-2.13 1.3h-.08l-.14-1.13h-.97V0zm0 0"/></symbol><symbol overflow="visible" id="6e6bba88r"><path d="M4.02.19c1.7 0 2.65-.72 2.65-1.88 0-1.06-.65-1.45-1.76-1.67L3.6-3.6c-.81-.16-1.03-.37-1.03-.87 0-.6.45-.88 1.4-.88 1 0 1.43.31 1.52.95l1.1-.06c-.16-1.2-.97-1.75-2.63-1.75-1.61 0-2.5.63-2.5 1.8 0 .97.53 1.47 1.81 1.72l1.25.23c.67.14 1.03.3 1.03.88 0 .62-.53.93-1.53.93-1.16 0-1.62-.32-1.7-1.04l-1.1.07C1.3-.43 2.17.2 4.02.2zm0 0"/></symbol><symbol overflow="visible" id="6e6bba88s"><path d="M1.1-8.1V0h1.18v-2.72h2.03c1.9 0 2.86-.8 2.86-2.64v-.17c0-1.81-.97-2.58-2.83-2.58zM6-5.37C6-4.1 5.48-3.6 4.1-3.6H2.29v-3.58h1.83c1.37 0 1.89.4 1.89 1.66zm0 0"/></symbol><symbol overflow="visible" id="6e6bba88t"><path d="M7.1-8.1H1.32V0h5.8v-.95H2.47v-2.72h3.87v-.9H2.47v-2.59H7.1zm0 0"/></symbol></defs><use xlink:href="#6e6bba88a" x="32.768" y="145"/><use xlink:href="#6e6bba88b" x="59.264" y="145"/><use xlink:href="#6e6bba88c" x="85.04" y="145"/><use xlink:href="#6e6bba88d" x="111.104" y="145"/><use xlink:href="#6e6bba88e" x="124.976" y="145"/><use xlink:href="#6e6bba88f" x="149.072" y="145"/><use xlink:href="#6e6bba88g" x="168.176" y="145"/><use xlink:href="#6e6bba88a" x="177.968" y="145"/><use xlink:href="#6e6bba88e" x="204.464" y="145"/><use xlink:href="#6e6bba88h" x="228.56" y="145"/><use xlink:href="#6e6bba88i" x="255.44" y="145"/><g fill-opacity=".33"><use xlink:href="#6e6bba88j" x="99" y="230"/><use xlink:href="#6e6bba88k" x="107.0004" y="230"/><use xlink:href="#6e6bba88l" x="115.0008" y="230"/><use xlink:href="#6e6bba88m" x="123.0012" y="230"/><use xlink:href="#6e6bba88n" x="131.0016" y="230"/><use xlink:href="#6e6bba88o" x="139.002" y="230"/><use xlink:href="#6e6bba88p" x="147.0024" y="230"/><use xlink:href="#6e6bba88j" x="155.0028" y="230"/><use xlink:href="#6e6bba88n" x="163.0032" y="230"/><use xlink:href="#6e6bba88q" x="171.0036" y="230"/><use xlink:href="#6e6bba88r" x="179.004" y="230"/><use xlink:href="#6e6bba88p" x="187.0044" y="230"/><use xlink:href="#6e6bba88s" x="195.0048" y="230"/><use xlink:href="#6e6bba88t" x="203.0052" y="230"/></g></svg>