<?xml version='1.0' encoding='UTF-8'?>
<svg xmlns="http://www.w3.org/2000/svg" xmlns:xlink="http://www.w3.org/1999/xlink" width="354.331px" height="88.5827px" viewBox="0 0 354.331 88.5827" y="0px" x="0px" enable-background="new 0 0 354.331 88.5827"><defs><symbol overflow="visible" id="44fe5194b"><path d="M2.234-44.344l.25 7.907H19.25V0h9.594v-36.438h16.781l.328-7.906zm0 0"/></symbol><symbol overflow="visible" id="44fe5194c"><path d="M7.188-44.344L7.109 0h36.516l-.313-7.672H16.547v-11.11h21.64v-7.671h-21.64v-10.219h26.61l.312-7.672zm0 0"/></symbol><symbol overflow="visible" id="44fe5194d"><path d="M4.719-32.516c0 8.47 8.468 11.985 15.984 13.735 6.703 1.515 12.781 2.718 12.781 6.718 0 3.594-3.515 5.266-9.984 5.266-5.203 0-12.156-1.594-16.875-3.828L3.672-3.828c4.562 2.797 11.437 5.031 19.344 5.031 11.187 0 20.047-3.594 20.047-13.187 0-9.11-9.11-12.391-17.579-14.313-5.672-1.265-11.187-2.469-11.187-6.219 0-3.515 4.156-5.047 10.39-5.047 4 0 9.266.813 13.344 2.72l3.36-6.704c-4.157-2.406-9.594-4-16.703-4-11.907 0-19.97 4.64-19.97 13.031zm0 0"/></symbol><symbol overflow="visible" id="44fe5194e"><path d="M7.11-44.344V0h32.609l-.328-7.906H16.703v-36.438zm0 0"/></symbol><symbol overflow="visible" id="44fe5194f"><path d="M25.25-35.64h.313l4.078 10.312 2.875 7.828H17.813zm-5.031-8.782L2.484-3.828C1.844-2.313 1.516-1.203 1.281 0h9.422l4.078-9.984h20.532L39 0h9.578c-.156-1.36-.547-2.313-1.187-3.828L30.609-44.672zm0 0"/></symbol><symbol overflow="visible" id="44fe5194g"><path d="M.969-6.125V0h.703v-6.125zm0 0"/></symbol><symbol overflow="visible" id="44fe5194h"><path d="M.969-6.125V0h.625v-4.406l-.047-.875.422.734L4.797 0h.75v-6.125h-.625v4.313l.047.968h-.016l-.39-.765-2.829-4.516zm0 0"/></symbol><symbol overflow="visible" id="44fe5194i"><path d="M4.703-6.125L2.843-.859h-.03L2.39-2.156 1.016-6.125h-.72c.032.156.11.39.204.672L2.453.016l.75-.032 1.969-5.39c.11-.282.219-.578.234-.719zm0 0"/></symbol><symbol overflow="visible" id="44fe5194j"><path d="M.969-6.125V0h3.64l-.015-.61H1.656v-2.218h2.375v-.61H1.656V-5.53h2.938l.015-.594zm0 0"/></symbol><symbol overflow="visible" id="44fe5194k"><path d="M.313-6.125l.03.61h2V0h.704v-5.516h2.015l.016-.609zm0 0"/></symbol><symbol overflow="visible" id="44fe5194l"><path d="M.625-3c0 1.703.922 3.125 2.656 3.125 1.844 0 2.656-1.656 2.656-3.266C5.938-4.844 5-6.25 3.281-6.25 1.421-6.25.625-4.594.625-3zm4.61-.078c0 .812-.25 1.719-.876 2.203A1.65 1.65 0 0 1 3.281-.5c-1.25 0-1.953-1.172-1.953-2.547 0-.828.25-1.719.86-2.203.25-.188.609-.36 1.093-.36 1.25 0 1.953 1.126 1.953 2.532zm0 0"/></symbol><symbol overflow="visible" id="44fe5194m"><path d="M2.36-3.11c-.25 0-.47 0-.704-.015v-2.406c.297-.032.594-.063.813-.063 1.11 0 1.75.375 1.75 1.203 0 .532-.313.891-.688 1.079-.328.14-.734.203-1.172.203zM.968-6.093V0h.687v-2.5c.235.016.516.031.735.031.187 0 .375-.015.546-.047L4.36 0h.704c-.016-.094-.094-.266-.22-.469l-1.25-2.203c.845-.297 1.329-.953 1.329-1.765 0-1.141-.86-1.797-2.406-1.797-.454 0-1.063.046-1.547.14zm0 0"/></symbol><symbol overflow="visible" id="44fe5194o"><path d="M.969-6.125V0h.703v-2.656H4v-.625H1.672v-2.25h2.875l.016-.594zm0 0"/></symbol><symbol overflow="visible" id="44fe5194p"><path d="M4.703-6.125v2.703H1.672v-2.703H.969V0h.703v-2.797h3.031V0h.688v-6.125zm0 0"/></symbol><symbol overflow="visible" id="44fe5194q"><path d="M.969-6.125V0h3.515l-.03-.625H1.671v-5.5zm0 0"/></symbol><symbol overflow="visible" id="44fe5194r"><path d="M.625-2.953C.625-1.25 1.5.125 3.359.125c.75 0 1.313-.188 1.782-.406l-.188-.547c-.437.172-.906.312-1.5.312-1.547 0-2.11-1.203-2.11-2.484 0-.844.22-1.594.75-2.078.313-.313.75-.516 1.329-.516.562 0 .984.157 1.406.36l.25-.516c-.39-.266-.969-.484-1.672-.484C1.5-6.234.625-4.672.625-2.954zm0 0"/></symbol><symbol overflow="visible" id="44fe5194s"><path d="M2.797-5.297h.031l.422 1.25.578 1.734H1.766zm-.344-.828L.422-.469A3.257 3.257 0 0 0 .266 0h.703l.594-1.703H4.03L4.594 0h.687a14.67 14.67 0 0 0-.172-.547l-1.921-5.61zm0 0"/></symbol><symbol overflow="visible" id="44fe5194t"><path d="M.625-2.953c0 1.703.844 3.062 2.781 3.062.672 0 1.281-.156 1.828-.406v-2.719h-.687v2.344a4.085 4.085 0 0 1-1.078.156c-1.594 0-2.125-1.234-2.125-2.468 0-.86.25-1.657.765-2.125.329-.297.766-.485 1.329-.485.5 0 .953.125 1.421.344l.282-.516c-.454-.296-1.032-.468-1.672-.468-2 0-2.844 1.593-2.844 3.28zm0 0"/></symbol><clipPath id="a"><path d="M0 0h354.332v88.582H0zm0 0"/></clipPath></defs><g clip-path="url(#a)"><path d="M0 88.582h354.332V0H0zm0 0" fill="#1b1b1b"/></g><g fill="#fff"><use xlink:href="#44fe5194b" x="19.105" y="68.0056"/><use xlink:href="#44fe5194c" x="67.204379" y="68.0056"/><use xlink:href="#44fe5194d" x="114.824361" y="68.0056"/><use xlink:href="#44fe5194e" x="161.565452" y="68.0056"/><use xlink:href="#44fe5194f" x="203.512584" y="68.0056"/></g><g fill="#fff"><use xlink:href="#44fe5194g" x="283.5386" y="29.2028"/><use xlink:href="#44fe5194h" x="286.4419" y="29.2028"/><use xlink:href="#44fe5194i" x="293.238772" y="29.2028"/><use xlink:href="#44fe5194j" x="299.202915" y="29.2028"/><use xlink:href="#44fe5194h" x="304.671922" y="29.2028"/><use xlink:href="#44fe5194k" x="311.468794" y="29.2028"/><use xlink:href="#44fe5194l" x="317.15161" y="29.2028"/><use xlink:href="#44fe5194m" x="323.993494" y="29.2028"/><use xlink:href="#44fe5194n" x="329.867613" y="29.2028"/></g><g fill="#fff"><use xlink:href="#44fe5194l" x="283.5386" y="41.75992"/><use xlink:href="#44fe5194o" x="290.380485" y="41.75992"/><use xlink:href="#44fe5194n" x="295.635682" y="41.75992"/><use xlink:href="#44fe5194k" x="298.156377" y="41.75992"/><use xlink:href="#44fe5194p" x="303.839192" y="41.75992"/><use xlink:href="#44fe5194j" x="310.478521" y="41.75992"/><use xlink:href="#44fe5194n" x="315.947528" y="41.75992"/></g><g fill="#fff"><use xlink:href="#44fe5194j" x="283.5386" y="54.317041"/><use xlink:href="#44fe5194q" x="289.007607" y="54.317041"/><use xlink:href="#44fe5194j" x="294.094008" y="54.317041"/><use xlink:href="#44fe5194r" x="299.563014" y="54.317041"/><use xlink:href="#44fe5194k" x="305.403373" y="54.317041"/><use xlink:href="#44fe5194m" x="311.086189" y="54.317041"/><use xlink:href="#44fe5194g" x="316.960307" y="54.317041"/><use xlink:href="#44fe5194r" x="319.863607" y="54.317041"/><use xlink:href="#44fe5194s" x="325.703966" y="54.317041"/><use xlink:href="#44fe5194q" x="331.589337" y="54.317041"/><use xlink:href="#44fe5194n" x="336.675738" y="54.317041"/></g><g fill="#fff"><use xlink:href="#44fe5194s" x="283.5386" y="66.874161"/><use xlink:href="#44fe5194t" x="289.423971" y="66.874161"/><use xlink:href="#44fe5194j" x="295.635682" y="66.874161"/></g><path d="M265.844 12.148l-12.012 16.059h6.004l-4.61 12.777 11.82-17.39h-5.57zm0 0" fill="#28d794"/></svg>