<?xml version='1.0' encoding='UTF-8'?>
<svg xmlns="http://www.w3.org/2000/svg" xmlns:xlink="http://www.w3.org/1999/xlink" width="450px" height="1000px" viewBox="0 0 450 1000" x="0px" y="0px" enable-background="new 0 0 450 1000"><defs><symbol overflow="visible" id="7871c4dba"><path d="M2.92-14.63C2.92-6.53 6.66.5 15.53.5c3.45 0 5.85-.86 8.36-2.25l-.58-1.17c-2.39 1.17-4.5 2.01-7.7 2.01-8 0-11.06-6.7-11.06-13.93 0-4.29 1.08-8.47 3.95-11.54 1.72-1.84 4.02-2.82 7.1-2.82 2.71 0 4.65.67 7.12 2.15l.69-1.17a12.53 12.53 0 00-7.75-2.42c-8.72 0-12.74 7.87-12.74 16.02zm0 0"/></symbol><symbol overflow="visible" id="7871c4dbb"><path d="M5.48-20.56l-1.43.1V0h1.43v-9.63h4.38c3.69 0 4 2.07 7.16 9.63h1.56c-.13-.31-.36-.86-.58-1.31-2.66-6.06-3.33-8.6-5.81-9.08 2.17-.86 2.84-3.2 4.42-7.61l.89-2.52h-1.53c-2.52 7.33-2.74 9.58-6.66 9.58H5.48zm0 0"/></symbol><symbol overflow="visible" id="7871c4dbc"><path d="M2.75-10.22C2.75-4 5.94.63 11.3.63c6.2 0 8.6-6.11 8.6-10.97 0-6.18-3.17-10.82-8.5-10.82-6.28 0-8.65 6.13-8.65 10.94zm15.66.05c0 3.37-.91 6.17-2.57 7.78A6.2 6.2 0 0111.4-.72c-4.73 0-7.16-4.19-7.16-9.62 0-3.43.94-6.22 2.66-7.85a6.3 6.3 0 014.36-1.6c4.69 0 7.16 4.18 7.16 9.62zm0 0"/></symbol><symbol overflow="visible" id="7871c4dbd"><path d="M16.6-20.52H6.95l-.4 5.63C5.83-5.84 4.03-.77.53-.77V.45C.78.5.99.5 1.28.5c.98 0 1.8-.36 2.51-1.05 2.75-2.51 3.83-9.07 4.19-14.12l.31-4.55h6.9V0h1.43zm0 0"/></symbol><symbol overflow="visible" id="7871c4dbe"><path d="M4.69-9a5.42 5.42 0 00-2.44 4.45C2.25-1.3 4.31.5 7.3.5c2.6 0 5.39-1.36 7.78-3.6l.48 3.2 1.22-.2c-.31-4.09-.36-5.84-.36-7.42v-5.57c0-5.36-1.44-7.93-5.36-7.93-2.78 0-5.62 1.4-8 3.33l.72.96c2.16-1.63 4.86-2.94 7.25-2.94 2.92 0 3.95 1.98 3.95 7.34v.81C9.94-11.1 6.61-10.39 4.68-9zM7.33-.81c-2.06 0-3.6-1.35-3.6-3.78 0-1.66.91-2.79 1.75-3.47 1.36-.94 3.74-1.61 9.5-2.2v5.62C12.47-2.16 9.68-.81 7.33-.81zm0 0"/></symbol><symbol overflow="visible" id="7871c4dbf"><path d="M4.95-20.8l-1.22.2c.32 4.04.36 5.88.36 7.41V10.8h1.44V-.81A9.98 9.98 0 0010.75.63c6.98 0 9.23-6.07 9.23-11.33 0-5.86-2.84-10.46-7.56-10.46-3.15 0-5.04 1.63-7.01 3.52zm7.33 1c4.14 0 6.17 4.36 6.17 9.4 0 3.15-.8 6.26-2.75 8.06-1.26 1.17-2.75 1.62-4.76 1.62-2.03 0-3.64-.45-5.4-1.44V-16.3c2.29-2.06 4-3.5 6.74-3.5zm0 0"/></symbol><symbol overflow="visible" id="7871c4dbh"><path d="M3.83 0v-5.95H6.2v-.82H.45v.82h2.4V0zm0 0"/></symbol><symbol overflow="visible" id="7871c4dbi"><path d="M2.16 0v-2.69c0-.98.6-1.6 1.46-1.6.74 0 1.07.4 1.07 1.2V0h.95v-3.31c0-1.17-.56-1.85-1.67-1.85-.9 0-1.44.46-1.75 1.08h-.06v-3.06H1.2V0zm0 0"/></symbol><symbol overflow="visible" id="7871c4dbj"><path d="M3.58-5.81c.42 0 .72-.22.72-.67 0-.44-.3-.68-.72-.68-.44 0-.72.24-.72.68 0 .45.28.67.72.67zm.5.8H1.52v.76h1.6v3.48h-1.8V0h4.46v-.77h-1.7zm0 0"/></symbol><symbol overflow="visible" id="7871c4dbk"><path d="M2.16 0v-2.67c0-.99.59-1.63 1.46-1.63.74 0 1.07.38 1.07 1.22V0h.95v-3.31c0-1.2-.56-1.85-1.67-1.85-.92 0-1.49.46-1.77 1.08h-.06l-.12-.94H1.2V0zm0 0"/></symbol><symbol overflow="visible" id="7871c4dbr"><path d="M3.83-5.97h1.73v-.8H1.1v.8h1.75v5.19H1.1V0h4.47v-.78H3.83zm0 0"/></symbol><symbol overflow="visible" id="7871c4dbs"><path d="M5.52-4.25v-.77H3.17v-1.56h-.81l-.14 1.56H.75v.77h1.47v2.4c0 1.3.48 1.94 1.84 1.94C4.6.1 5.14 0 5.55-.14L5.4-.91c-.32.13-.72.2-1.13.2-.8 0-1.1-.37-1.1-1.23v-2.31zm0 0"/></symbol><symbol overflow="visible" id="7871c4dbt"><path d="M2.83.14c.94 0 1.5-.39 1.81-.95h.08l.1.81h.76v-3.38c0-1.23-.69-1.8-2.13-1.8-1.43 0-2.03.65-2.18 1.6l.93.1c.11-.6.44-.93 1.22-.93.85 0 1.22.32 1.22 1.04v.34l-1.81.2C1.6-2.7 1.1-2.17 1.1-1.28c0 .92.64 1.42 1.72 1.42zm.25-.77c-.67 0-1.02-.28-1.02-.74 0-.44.28-.72 1-.82l1.58-.19v.41c0 .8-.6 1.34-1.56 1.34zm0 0"/></symbol><symbol overflow="visible" id="7871c4dbu"><path d="M3.92-7.14H1.36v.76h1.6v5.61H1.15V0H5.7v-.77H3.92zm0 0"/></symbol><symbol overflow="visible" id="7871c4dbv"><path d="M3.34.14c1.43 0 2.13-.66 2.25-1.78l-.89-.1c-.1.7-.5 1.08-1.34 1.08-1.03 0-1.52-.64-1.52-1.84 0-1.23.47-1.86 1.52-1.86.84 0 1.23.36 1.34 1.08l.9-.1c-.13-1.09-.82-1.78-2.26-1.78-1.56 0-2.46.97-2.46 2.66 0 1.66.9 2.64 2.46 2.64zm0 0"/></symbol><symbol overflow="visible" id="7871c4dbC"><path d="M5.92-6.77H1.1V0h4.83v-.8H2.06v-2.26h3.22v-.75H2.06v-2.16h3.86zm0 0"/></symbol><symbol overflow="visible" id="7871c4dbD"><path d="M1.83 0l1.42-2h.06l1.46 2H5.8L4-2.53l1.78-2.49H4.8L3.42-3.08h-.08l-1.4-1.94H.89l1.78 2.49L.84 0zm0 0"/></symbol><symbol overflow="visible" id="7871c4dbE"><path d="M5.08-5.16c-.94 0-1.58.43-1.9 1.3h-.09l-.07-1.16H1.05v.77h1.1v3.48H.96V0h3.96v-.77H3.1v-1.46c0-1.36.6-2.05 1.83-2.05.4 0 .76.08 1.1.17l.15-.87c-.33-.11-.7-.18-1.11-.18zm0 0"/></symbol><symbol overflow="visible" id="7871c4dbF"><path d="M3.16 2.03c1.67 0 2.4-.86 2.4-2.51v-4.54h-.81l-.13.91h-.06c-.26-.58-.8-1.05-1.73-1.05-1.42 0-2.24 1-2.24 2.52 0 1.6.75 2.56 2.2 2.56.94 0 1.5-.5 1.77-1.03h.05v.72c0 1.17-.42 1.67-1.45 1.67-.93 0-1.3-.34-1.41-.89L.8.5c.12.96.87 1.54 2.36 1.54zM3.06-.8c-.98 0-1.48-.57-1.48-1.82 0-1.13.5-1.75 1.48-1.75 1.06 0 1.58.76 1.58 1.75 0 .95-.56 1.82-1.58 1.82zm0 0"/></symbol><symbol overflow="visible" id="7871c4dbS"><path d="M2.08-6.77h-.99V0h4.79v-.81h-3.8zm0 0"/></symbol><symbol overflow="visible" id="7871c4dbaf"><path d="M4.06-2.77c1.25-.04 1.92-.7 1.92-1.96 0-1.36-.7-2.04-2.17-2.04H.92V0h.97v-2.73h1.08L4.95 0h1.1zM1.9-6h1.7c1.07 0 1.46.34 1.46 1.28 0 .9-.44 1.27-1.47 1.27H1.89zm0 0"/></symbol><symbol overflow="visible" id="7871c4dbag"><path d="M5.75-2.23v-.43c0-1.6-.9-2.51-2.42-2.51S.87-4.16.87-2.48c0 1.71.91 2.62 2.5 2.62 1.43 0 2.07-.56 2.29-1.52l-.9-.09c-.18.61-.59.9-1.35.9-.94 0-1.52-.54-1.58-1.66zm-2.4-2.2c.93 0 1.43.5 1.48 1.55H1.84c.08-1.07.6-1.56 1.5-1.56zm0 0"/></symbol><symbol overflow="visible" id="7871c4dbah"><path d="M2.73.14c.9 0 1.43-.45 1.74-1.08h.06l.13.94h.8v-5.02h-.94v2.7c0 .98-.57 1.62-1.46 1.62-.75 0-1.1-.4-1.1-1.22v-3.1h-.93v3.32c0 1.17.55 1.84 1.7 1.84zm0 0"/></symbol><symbol overflow="visible" id="7871c4dbau"><path d="M1.64 0v-3.17l-.16-2.5h.1L2.9-1.83h.82l1.35-3.84h.1l-.16 2.5V0h.95v-6.77h-1.3l-1.3 3.82h-.09L2-6.77H.69V0zm0 0"/></symbol><symbol overflow="visible" id="7871c4dbav"><path d="M2.84.14C3.8.14 4.33-.26 4.6-.9h.07L4.8 0h.76v-7.14h-.95v2.95h-.08c-.28-.6-.86-.97-1.67-.97-1.48 0-2.27.99-2.27 2.64C.6-.84 1.36.14 2.84.14zm.22-.8c-.98 0-1.48-.59-1.48-1.84s.5-1.86 1.48-1.86c1.13 0 1.58.8 1.58 1.86S4.2-.66 3.06-.66zm0 0"/></symbol><symbol overflow="visible" id="7871c4dbaw"><path d="M1.63 0v-2.9c0-.8.15-1.4.71-1.4.41 0 .55.3.55.88V0h.95v-2.9c0-.8.18-1.4.72-1.4.4 0 .57.3.57.88V0h.95v-3.63c0-.92-.28-1.53-1.11-1.53-.63 0-.95.41-1.1.9h-.06c-.1-.52-.44-.9-1.08-.9-.6 0-.93.41-1.06.9H1.6l-.23-.76H.67V0zm0 0"/></symbol><symbol overflow="visible" id="7871c4dbaJ"><path d="M3.42.14c1.61 0 2.56-.75 2.56-2 0-1.1-.67-1.6-1.95-1.86l-.97-.2c-.87-.17-1.23-.49-1.23-1.11 0-.7.54-1.11 1.5-1.11 1.06 0 1.51.34 1.69 1.23l.9-.09c-.17-1.28-.98-1.9-2.6-1.9C1.79-6.9.9-6.18.9-4.98c0 1.06.66 1.66 1.88 1.9l1.01.2c.85.17 1.25.4 1.25 1.09 0 .73-.6 1.16-1.6 1.16-1.07 0-1.66-.4-1.8-1.24l-.94.1C.83-.53 1.75.13 3.42.13zm0 0"/></symbol><symbol overflow="visible" id="7871c4dbaK"><path d="M3.9.14c1.48 0 2.18-.98 2.18-2.64 0-1.67-.7-2.66-2.17-2.66-.91 0-1.49.41-1.79 1h-.06v-2.98h-.95V0h.81l.11-.9h.06c.29.63.82 1.04 1.82 1.04zm-.32-.8c-1.08 0-1.55-.8-1.55-1.84 0-1.06.47-1.86 1.55-1.86 1.1 0 1.51.61 1.51 1.86S4.64-.66 3.58-.66zm0 0"/></symbol><symbol overflow="visible" id="7871c4dbaL"><path d="M3.33.14c1.62 0 2.5-.95 2.5-2.66 0-1.68-.88-2.64-2.5-2.64-1.63 0-2.5.96-2.5 2.64 0 1.7.87 2.66 2.5 2.66zm0-.77c-1.06 0-1.52-.6-1.52-1.89 0-1.28.46-1.87 1.52-1.87 1.08 0 1.53.6 1.53 1.87 0 1.29-.45 1.9-1.53 1.9zm0 0"/></symbol><symbol overflow="visible" id="7871c4dbaY"><path d="M4.66-3.45c.76-.14 1.15-.67 1.15-1.57 0-1.07-.64-1.75-2.18-1.75H.92V0h2.71C5.2 0 5.98-.64 5.98-1.77c0-1.03-.56-1.43-1.32-1.59zM3.56-6c.9 0 1.31.4 1.31 1.13 0 .71-.4 1.14-1.3 1.14h-1.7V-6zM1.87-.75v-2.27H3.6c.97 0 1.44.33 1.44 1.13 0 .8-.47 1.14-1.44 1.14zm0 0"/></symbol><symbol overflow="visible" id="7871c4dbbx"><path d="M5.77-5.02H4.63L2.3-2.88h-.06v-4.26h-.94V0h.94v-2.31h.06L4.71 0h1.24L3.23-2.69zm0 0"/></symbol><symbol overflow="visible" id="7871c4dbl"><path d="M2.75-10.98C2.75-4.55 5.67.5 12.33.5c3.47 0 5.81-.81 8.33-2.13l-.63-1.2C18-1.89 15.9-.98 12.7-.98c-6.08 0-8.33-4.5-8.33-10.22 0-4.14 1.17-10.72 5.45-15.03a9.28 9.28 0 016.85-2.93c2.32 0 4.14.54 6.15 1.94l.86-1.17a10.48 10.48 0 00-6.8-2.25c-9.85 0-14.12 11.78-14.12 19.66zm0 0"/></symbol><symbol overflow="visible" id="7871c4dbm"><path d="M6.3-20.6l-1.53.08L2.07 0h1.52l1.27-9.63h3.1c3.5 0 3.7 1.94 6.52 9.63h1.58c-.22-.55-.5-1.27-.86-2.1-1.7-4.5-2.42-7.3-4.36-8.17 2.3-.8 3.24-3.5 5.63-8.04.5-.96.81-1.63 1.12-2.25h-1.57c-3.83 7.92-4.58 9.62-7.29 9.62H5.05zm0 0"/></symbol><symbol overflow="visible" id="7871c4dbn"><path d="M2.06-7.83c0 4.96 2.3 8.46 6.75 8.46 5.72 0 9.77-6.93 9.77-13.2.05-4.8-2.11-8.62-6.7-8.62-5.85 0-9.77 7.28-9.82 13.36zm14.96-4.69c0 4.33-1.72 8.2-4.24 10.27A5.72 5.72 0 018.95-.81c-3.73 0-5.36-3.02-5.3-7.11 0-4.19 1.62-8.14 4.22-10.35a5.88 5.88 0 013.88-1.48c3.81 0 5.31 3.23 5.27 7.23zm0 0"/></symbol><symbol overflow="visible" id="7871c4dbo"><path d="M6.25-12.52C4.69-7.69 3.52-3.19 1.31-1.53.67-1.08.05-.86-.8-.86L-.98.41a3.87 3.87 0 003.14-.72C5-2.51 6.48-8.5 7.87-12.64c.94-2.9 1.75-5.05 3.16-6.17a4.09 4.09 0 012.61-.86c1.08 0 1.92.19 2.38.33L13.5 0h1.48l2.7-20.52c-.8-.23-2.2-.59-4-.59-4.59 0-5.8 3.73-7.43 8.6zm0 0"/></symbol><symbol overflow="visible" id="7871c4dbp"><path d="M2.06-6.94C2.06-3.1 3.33.63 6.61.63c2.6 0 5.1-1.97 7.34-4.32L13.91.1 15.25 0c.19-3.47.31-5.08.45-6.34l1.8-12.57.05-.12c-1.25-1-2.97-2.16-5.36-2.16-5.85 0-10.16 6.66-10.13 14.25zm1.53-.08c0-5.71 2.58-10.67 6.04-12.25a6 6 0 012.39-.48c1.43 0 2.75.44 3.92 1.25l-1.9 13.1C11.7-2.98 8.96-.82 6.85-.78 4.6-.8 3.6-3.64 3.6-7.02zm0 0"/></symbol><symbol overflow="visible" id="7871c4dbq"><path d="M2.2 10.8L3.73-.63a7.2 7.2 0 004 1.25c5.86 0 10.08-6.65 10.05-14.21 0-3.86-1.31-7.6-4.73-7.6-2.38 0-4.99 1.97-7.28 4.36l.12-3.83-1.44.14A66.13 66.13 0 014-14.08L.72 10.8zm10.72-30.55c2.28 0 3.33 2.88 3.33 6.2 0 5.72-2.48 10.68-5.94 12.24a6.49 6.49 0 01-6.4-.8l1.76-13.02c2.35-2.46 5.08-4.62 7.25-4.62zm0 0"/></symbol><symbol overflow="visible" id="7871c4dbw"><path d="M2.75-14.58C2.75-6.39 6.75.5 15.56.5c3.38 0 5.96-.86 8.47-2.2l-.76-1.77c-2.3 1.13-4.5 1.9-7.47 1.9-7.78 0-10.63-6.4-10.63-13.24 0-4.1 1.03-8.14 3.78-11.06 1.63-1.7 3.88-2.66 6.8-2.66 2.6 0 4.64.62 6.97 2.03l.95-1.77a13.45 13.45 0 00-7.87-2.37c-8.9 0-13.05 7.92-13.05 16.06zm0 0"/></symbol><symbol overflow="visible" id="7871c4dbx"><path d="M6.08-20.75l-2.2.1V0h2.2v-9.45h4.14C13.77-9.45 14-7.3 16.97 0h2.34c-.14-.36-.45-1.03-.68-1.58-2.43-5.75-3.1-8.33-5.58-8.9 2.12-.86 2.84-3.24 4.37-7.7.44-1.35.67-2.02.9-2.52h-2.35c-2.33 7.2-2.47 9.4-6.2 9.4h-3.7zm0 0"/></symbol><symbol overflow="visible" id="7871c4dby"><path d="M2.6-10.17C2.6-3.95 5.9.63 11.35.63c6.35 0 9-6.04 9-11.16 0-6.16-3.28-10.8-8.73-10.8-6.3 0-9 6.03-9 11.16zm15.5-.1c0 3.2-.87 5.82-2.4 7.35a5.7 5.7 0 01-4.14 1.58c-4.4 0-6.7-3.88-6.7-9.1 0-3.28.9-5.86 2.44-7.37a5.73 5.73 0 014.1-1.53c4.35 0 6.7 3.9 6.7 9.07zm0 0"/></symbol><symbol overflow="visible" id="7871c4dbz"><path d="M17.38-20.7H6.88l-.45 5.62C5.77-6.03 4.19-1.44.58-1.34V.4c.28.04.6.09 1 .09C2.75.5 3.68.05 4.45-.67c2.8-2.56 3.78-9 4.14-14.22l.27-3.92h6.34V0h2.18zm0 0"/></symbol><symbol overflow="visible" id="7871c4dbA"><path d="M4.69-9.31A5.66 5.66 0 002.1-4.6C2.1-1.4 4.23.5 7.33.5c2.6 0 5.26-1.27 7.6-3.42l.55 3.06 1.85-.28a96.14 96.14 0 01-.36-7.6v-5.54c0-5.4-1.63-7.9-5.77-7.9-3.01 0-5.84 1.38-8.23 3.32l.9 1.44c2.2-1.63 4.77-2.8 7.07-2.8 2.83 0 3.83 1.8 3.83 6.84v.63c-4.96.4-8.16 1.13-10.08 2.44zm-.38 4.5a4 4 0 011.63-3.2c1.22-.85 3.47-1.44 8.83-1.97v5.12c-2.4 2.25-5 3.52-7.16 3.52-1.94 0-3.3-1.27-3.3-3.47zm0 0"/></symbol><symbol overflow="visible" id="7871c4dbB"><path d="M5.44-20.97l-1.88.22c.36 4.28.4 6.13.4 7.75v23.8h2.21V-.86A9.1 9.1 0 0011.25.62c6.66 0 9.27-6.03 9.27-11.46 0-5.94-3.02-10.49-7.79-10.49-2.92 0-4.9 1.49-6.8 3.38zm7.03 1.63c3.86 0 5.8 4.04 5.8 8.9 0 2.97-.77 5.9-2.57 7.56C14.58-1.8 13.2-1.3 11.25-1.3c-1.9 0-3.47-.44-5.08-1.4v-13.45c2.11-1.93 3.81-3.18 6.3-3.18zm0 0"/></symbol><symbol overflow="visible" id="7871c4dbG"><path d="M2.6-11.06C2.6-4.55 5.68.5 12.43.5a16 16 0 008.24-2.08l-.72-1.75a15.62 15.62 0 01-7.02 1.66c-5.72 0-7.97-4.17-7.97-9.67 0-4.5 1.49-10.75 5.36-14.63a9.1 9.1 0 016.38-2.56c2.25 0 4.06.55 6 1.8l1.12-1.7a11.27 11.27 0 00-6.89-2.21C6.9-30.64 2.61-18.98 2.61-11.06zm0 0"/></symbol><symbol overflow="visible" id="7871c4dbH"><path d="M6.94-20.8l-2.25.1L1.94 0h2.25l1.25-9.45h2.75c3.37 0 3.51 1.8 6.22 9.45h2.32a31.1 31.1 0 01-.84-2.34c-1.67-4.46-2.39-7.11-4.28-7.97 2.3-.8 3.23-3.38 5.62-8.1.5-.98.82-1.7 1.13-2.34h-2.34c-3.6 7.8-4.22 9.45-6.97 9.45H5.67zm0 0"/></symbol><symbol overflow="visible" id="7871c4dbI"><path d="M1.94-7.92c0 5 2.37 8.54 6.97 8.54 6.03 0 10.03-7.06 10.07-13.3.05-4.87-2.15-8.7-6.92-8.7-6.17 0-10.08 7.33-10.12 13.46zm14.75-4.67c-.03 4.14-1.61 7.87-4 9.93-.9.77-2.2 1.27-3.5 1.27-3.38 0-4.96-2.8-4.96-6.63.05-4.04 1.54-7.92 4-10.03.91-.72 2.25-1.3 3.57-1.3 3.54 0 4.89 2.93 4.89 6.76zm0 0"/></symbol><symbol overflow="visible" id="7871c4dbJ"><path d="M6.17-12.42C4.6-7.73 3.52-3.82 1.57-2.2c-.63.5-1.38.67-2.29.67L-.98.3C-.81.41-.45.5.14.5c1.13 0 2.02-.31 2.83-1 2.7-2.2 4.1-7.78 5.53-12.1.9-2.7 1.72-4.78 2.94-5.85a4.1 4.1 0 012.47-.77c.93 0 1.8.14 2.2.28L13.64 0h2.25l2.69-20.66c-.94-.26-2.47-.62-4.45-.62-5.13 0-6.3 3.78-7.96 8.86zm0 0"/></symbol><symbol overflow="visible" id="7871c4dbK"><path d="M1.94-6.97c0 3.9 1.3 7.55 4.67 7.55 2.58 0 5.1-1.85 7.3-4.05l.04 3.61 1.94-.19c.17-3.64.36-5.36.48-6.65l1.77-12.47v-.1c-1.36-.98-3.2-2.1-5.67-2.1-6.17 0-10.58 6.6-10.53 14.4zm2.3-.28c0-5.34 2.2-9.94 5.43-11.56a6 6 0 012.4-.5c1.29 0 2.55.33 3.73.95L14-5.67c-2.2 2.25-4.81 4.19-6.9 4.23-1.97-.1-2.87-2.65-2.87-5.81zm0 0"/></symbol><symbol overflow="visible" id="7871c4dbL"><path d="M2.8 10.8L4.28-.31c1.03.5 2.2.89 3.69.89 6.1 0 10.48-6.61 10.44-14.35 0-3.96-1.35-7.6-4.86-7.6-2.4 0-4.96 1.8-7.25 4.14v-3.64l-1.99.17c-.17 3.97-.31 5.5-.43 6.84L.58 10.8zm10.34-30.11c2.06.04 2.97 2.65 2.97 5.81 0 5.31-2.16 9.94-5.4 11.56-.68.27-1.52.5-2.38.5a7.66 7.66 0 01-3.78-1l1.7-12.6c2.2-2.29 4.81-4.23 6.9-4.27zm0 0"/></symbol><symbol overflow="visible" id="7871c4dbM"><path d="M2.6-14.53C2.6-6.25 6.8.5 15.6.5c3.34 0 6.04-.81 8.57-2.17L23.27-4a16.17 16.17 0 01-7.3 1.75C8.45-2.25 5.8-8.33 5.8-14.81c0-3.9.99-7.83 3.6-10.52 1.53-1.67 3.68-2.58 6.48-2.58 2.56 0 4.58.64 6.8 1.94l1.2-2.34a13.75 13.75 0 00-7.95-2.33C6.8-30.64 2.6-22.7 2.6-14.54zm0 0"/></symbol><symbol overflow="visible" id="7871c4dbN"><path d="M6.66-20.92l-2.93.1V0h2.93v-9.27h3.92c3.42 0 3.6 2.2 6.39 9.27h3.1c-.18-.36-.54-1.22-.76-1.84-2.25-5.49-2.98-8.02-5.45-8.7 2.1-.9 2.83-3.32 4.36-7.87l.86-2.46h-3.06c-2.16 7.06-2.25 9.21-5.85 9.21H6.66zm0 0"/></symbol><symbol overflow="visible" id="7871c4dbO"><path d="M2.47-10.17c0 6.25 3.37 10.8 8.97 10.8 6.42 0 9.31-5.9 9.31-11.33 0-6.22-3.33-10.82-8.92-10.82-6.4 0-9.36 5.99-9.36 11.35zm15.26-.14c0 3.01-.76 5.4-2.17 6.84a5.14 5.14 0 01-3.86 1.53c-4.1 0-6.22-3.64-6.22-8.64 0-3.06.86-5.48 2.2-6.87a5.44 5.44 0 013.88-1.46c4.05 0 6.17 3.66 6.17 8.6zm0 0"/></symbol><symbol overflow="visible" id="7871c4dbP"><path d="M18.14-20.88H6.8l-.4 5.58C5.71-6.17 4.27-2.06.57-1.94v2.3c.36.1.81.14 1.31.14C3.23.5 4.31 0 5.17-.81c2.8-2.61 3.69-8.86 4.05-14.27l.23-3.33h5.75V0h2.94zm0 0"/></symbol><symbol overflow="visible" id="7871c4dbQ"><path d="M4.72-9.63a5.83 5.83 0 00-2.69 4.94C2.03-1.44 4.1.5 7.33.5c2.6 0 5.19-1.22 7.48-3.3L15.4.2l2.47-.38c-.31-4.36-.36-6.15-.36-7.78v-5.44c0-5.5-1.8-7.96-6.16-7.96-3.2 0-6.12 1.39-8.51 3.37L4-16.1c2.2-1.59 4.64-2.67 6.84-2.67 2.7 0 3.7 1.68 3.7 6.35v.45c-4.87.45-7.98 1.13-9.82 2.35zm3.16 7.7c-1.8 0-2.97-1.09-2.97-3.12 0-1.39.71-2.33 1.48-2.87 1.13-.81 3.24-1.35 8.14-1.8v4.64c-2.25 2.06-4.62 3.19-6.65 3.14zm0 0"/></symbol><symbol overflow="visible" id="7871c4dbR"><path d="M5.9-21.19l-2.48.36c.31 4.4.36 6.35.36 7.95V10.8h2.97V-.86A8.74 8.74 0 0011.7.62c6.44 0 9.4-6.03 9.4-11.65 0-5.94-3.2-10.49-8.05-10.49-2.74 0-4.72 1.36-6.61 3.25zm6.7 2.28c3.65 0 5.45 3.74 5.45 8.43 0 2.8-.68 5.57-2.3 7.1-1.08.99-2.34 1.44-4.19 1.44a8.9 8.9 0 01-4.81-1.3v-12.82c1.98-1.72 3.69-2.85 5.84-2.85zm0 0"/></symbol><symbol overflow="visible" id="7871c4dbT"><path d="M2.44-11.1C2.44-4.5 5.63.5 12.52.5c3.68 0 6.03-.86 8.18-2.03l-.86-2.3c-1.7.77-3.82 1.53-6.75 1.53-5.3 0-7.51-3.9-7.51-9.14 0-4.89 1.72-10.84 5.22-14.25a8.67 8.67 0 015.93-2.17c2.18 0 3.97.5 5.82 1.67l1.34-2.25a11.27 11.27 0 00-6.92-2.2c-10.22 0-14.53 11.52-14.53 19.53zm0 0"/></symbol><symbol overflow="visible" id="7871c4dbU"><path d="M7.52-21.02l-2.97.14L1.8 0h2.97l1.21-9.27h2.47c3.2 0 3.3 1.66 5.86 9.27h3.06c-.18-.58-.5-1.48-.85-2.52-1.54-4.45-2.25-7.03-4.1-7.87 2.3-.72 3.19-3.16 5.53-8.06.55-1.08.86-1.85 1.18-2.47h-3.11c-3.33 7.64-3.86 9.26-6.66 9.26H6.3zm0 0"/></symbol><symbol overflow="visible" id="7871c4dbV"><path d="M1.84-8.02C1.8-2.97 4.24.62 8.95.62c6.44 0 10.4-7.23 10.44-13.45.05-4.9-2.2-8.73-7.16-8.73-6.46 0-10.39 7.43-10.39 13.54zm14.49-4.71c0 3.95-1.49 7.6-3.69 9.67a5.65 5.65 0 01-3.23 1.03c-3.07 0-4.55-2.56-4.55-6.06.05-3.93 1.44-7.7 3.73-9.72a5.22 5.22 0 013.2-1.1c3.29 0 4.59 2.61 4.54 6.18zm0 0"/></symbol><symbol overflow="visible" id="7871c4dbW"><path d="M6.03-12.38C4.5-7.83 3.56-4.45 1.9-2.88c-.67.49-1.58.72-2.51.72L-1.03.27C-.77.36-.27.5.45.5 1.8.5 2.87.1 3.73-.67c2.61-2.16 3.93-7.4 5.46-11.85.8-2.51 1.56-4.54 2.64-5.57a4.05 4.05 0 012.34-.72c.86 0 1.67.14 2.08.26L13.77 0h2.96l2.75-20.8a19.56 19.56 0 00-4.9-.67c-5.67 0-6.75 3.83-8.55 9.1zm0 0"/></symbol><symbol overflow="visible" id="7871c4dbX"><path d="M1.8-7.02c0 4 1.36 7.6 4.8 7.6 2.54 0 5.15-1.7 7.26-3.86L14 .14l2.52-.28c.21-3.81.4-5.53.54-6.92l1.7-12.33v-.1a10.75 10.75 0 00-6.03-2.07C6.3-21.56 1.8-14.98 1.8-7.02zm3.06-.5c0-4.9 1.89-9.17 4.9-10.89.68-.3 1.54-.5 2.4-.5a8.9 8.9 0 013.45.77l-1.7 12.2C11.87-3.92 9.4-2.2 7.42-2.1c-1.8-.14-2.56-2.44-2.56-5.4zm0 0"/></symbol><symbol overflow="visible" id="7871c4dbY"><path d="M3.38 10.8L4.8-.1c1 .41 2.13.68 3.38.68 6.44 0 10.89-6.61 10.89-14.49-.05-4.04-1.44-7.65-5.03-7.65-2.4 0-4.96 1.67-7.2 3.92l-.1-3.42-2.52.23c-.23 4.17-.36 5.7-.54 7.19L.45 10.8zm9.98-29.66c1.84.14 2.66 2.44 2.66 5.4 0 4.91-1.9 9.18-4.86 10.9-.68.26-1.54.5-2.43.5-1.17 0-2.39-.28-3.56-.81L6.8-14.98c2.15-2.11 4.6-3.79 6.56-3.88zm0 0"/></symbol><symbol overflow="visible" id="7871c4dbZ"><path d="M2.52-14.48C2.52-6.18 6.84.5 15.66.5c3.25 0 6.12-.81 8.64-2.13L23.22-4.4a16.76 16.76 0 01-7.11 1.66c-7.3 0-9.81-5.9-9.81-12.06 0-3.77.95-7.55 3.42-10.16a8.53 8.53 0 016.3-2.44c2.48 0 4.5.63 6.67 1.85l1.39-2.78a14.1 14.1 0 00-8.02-2.3c-9.31 0-13.54 8-13.54 16.16zm0 0"/></symbol><symbol overflow="visible" id="7871c4dbaa"><path d="M7.1-21.06l-3.5.1V0h3.5v-9.14h3.7c3.37 0 3.51 2.25 6.12 9.14h3.69c-.17-.4-.58-1.34-.81-2.03-2.11-5.27-2.83-7.83-5.32-8.55 2.08-.89 2.85-3.37 4.38-7.97l.81-2.47h-3.65c-2.02 6.94-2.07 9.05-5.54 9.05H7.11zm0 0"/></symbol><symbol overflow="visible" id="7871c4dbab"><path d="M2.4-10.13C2.4-3.87 5.83.63 11.46.63c6.48 0 9.64-5.8 9.64-11.47 0-6.22-3.42-10.8-9.1-10.8-6.48 0-9.62 5.94-9.62 11.52zm15.05-.18c0 2.8-.72 5.1-1.97 6.44a4.89 4.89 0 01-3.65 1.43c-3.81 0-5.85-3.37-5.85-8.19 0-3.01.82-5.21 2.04-6.56.8-.76 2.01-1.39 3.64-1.39 3.82 0 5.8 3.45 5.8 8.27zm0 0"/></symbol><symbol overflow="visible" id="7871c4dbac"><path d="M18.72-21.02H6.75l-.4 5.58c-.68 9.19-2 12.88-5.72 13v2.8c.35.1.9.14 1.53.14C3.64.5 4.8-.05 5.72-.9c2.83-2.66 3.69-8.82 4-14.35l.22-2.9h5.26V0h3.52zm0 0"/></symbol><symbol overflow="visible" id="7871c4dbad"><path d="M4.77-9.86a5.98 5.98 0 00-2.88 5.1C1.9-1.54 4 .5 7.38.5c2.56 0 5.09-1.17 7.3-3.16L15.3.22l2.97-.44c-.32-4.47-.36-6.31-.36-7.92v-5.4c0-5.54-1.97-7.98-6.47-7.98-3.35 0-6.31 1.41-8.64 3.43l1.3 2.2c2.2-1.53 4.59-2.52 6.7-2.52 2.6 0 3.6 1.54 3.6 5.99v.31c-4.85.4-7.84 1.08-9.63 2.25zm.59 4.69c0-1.36.62-2.2 1.34-2.75 1.08-.67 3.07-1.22 7.7-1.58v4.23c-2.21 1.9-4.46 2.93-6.3 2.93-1.7 0-2.74-.99-2.74-2.83zm0 0"/></symbol><symbol overflow="visible" id="7871c4dbae"><path d="M6.25-21.33l-2.97.4c.31 4.55.36 6.52.36 8.2V10.8H7.2V-.81A8.6 8.6 0 0012.02.63c6.25 0 9.54-5.99 9.54-11.79-.04-5.93-3.37-10.48-8.28-10.48-2.6 0-4.6 1.25-6.44 3.14zm6.48 2.75c3.43 0 5.13 3.45 5.13 8.1 0 2.65-.58 5.26-2.11 6.7-.98.95-2.16 1.39-3.92 1.39A8.63 8.63 0 017.2-3.64v-12.33c1.9-1.62 3.55-2.6 5.53-2.6zm0 0"/></symbol><symbol overflow="visible" id="7871c4dbai"><path d="M2.34-11.16C2.34-4.46 5.63.5 12.6.5c3.74 0 6.13-.9 8.11-2.03l-.9-2.66a15.6 15.6 0 01-6.52 1.4c-5.05 0-7.2-3.7-7.2-8.73 0-5.17 1.84-10.84 5.08-13.95a8.57 8.57 0 015.57-1.94c2.18 0 3.93.5 5.72 1.63l1.53-2.66a11.15 11.15 0 00-6.96-2.2c-10.36 0-14.68 11.37-14.68 19.48zm0 0"/></symbol><symbol overflow="visible" id="7871c4dbaj"><path d="M8.02-21.16l-3.57.14L1.7 0h3.52l1.22-9.14h2.25c3.06 0 3.1 1.58 5.53 9.14h3.69c-.22-.58-.54-1.58-.9-2.66-1.48-4.5-2.17-6.92-4.01-7.73 2.3-.77 3.2-3.06 5.5-8.11.53-1.13.9-1.97 1.17-2.56h-3.65c-3.2 7.56-3.6 9.14-6.44 9.14H6.8zm0 0"/></symbol><symbol overflow="visible" id="7871c4dbak"><path d="M1.7-8.1C1.7-3.01 4.2.63 9 .63c6.7 0 10.63-7.32 10.7-13.54 0-4.99-2.25-8.77-7.28-8.77-6.8 0-10.67 7.47-10.72 13.6zm14.36-4.73c0 3.88-1.34 7.4-3.5 9.46-.76.54-1.89.9-2.98.9-2.78 0-4.27-2.39-4.22-5.72 0-3.78 1.34-7.51 3.5-9.5.77-.53 1.89-.89 2.97-.89 3.06 0 4.28 2.33 4.23 5.75zm0 0"/></symbol><symbol overflow="visible" id="7871c4dbal"><path d="M5.94-12.33C4.4-7.87 3.56-4.95 2.1-3.43c-.67.56-1.7.73-2.69.73L-1.03.22C-.77.32-.14.5.72.5 2.2.5 3.42.1 4.36-.77c2.48-2.2 3.73-7.1 5.31-11.7.77-2.37 1.49-4.31 2.49-5.31a3.67 3.67 0 012.25-.67c.76 0 1.56.1 1.89.23L13.9 0h3.52l2.78-20.88a20.74 20.74 0 00-5.3-.71c-6.04 0-7.07 3.86-8.96 9.26zm0 0"/></symbol><symbol overflow="visible" id="7871c4dbam"><path d="M1.7-7.02c0 4.05 1.36 7.6 4.96 7.6 2.48 0 5.09-1.66 7.2-3.74L14.08.2l2.94-.38c.21-3.95.4-5.7.57-7.14l1.63-12.3h.05a11.38 11.38 0 00-6.35-2.06C6.3-21.69 1.67-15.12 1.7-7.02zm3.61-.67c0-4.6 1.66-8.64 4.5-10.4a6.7 6.7 0 012.38-.46c1.1 0 2.17.2 3.3.6L13.85-6.17c-1.9 1.89-4.28 3.42-6.2 3.56C6.03-2.8 5.3-4.86 5.3-7.69zm0 0"/></symbol><symbol overflow="visible" id="7871c4dban"><path d="M3.83 10.8L5.27.05a9.6 9.6 0 003.1.53c6.61 0 11.2-6.56 11.16-14.63 0-4.1-1.39-7.64-5.1-7.64-2.41 0-4.93 1.53-7.18 3.78l-.19-3.32-2.97.3c-.21 4.32-.36 5.9-.53 7.43L.31 10.8zm9.72-29.3c1.65.14 2.39 2.25 2.39 5.1 0 4.59-1.67 8.59-4.47 10.34-.67.31-1.53.5-2.42.5-1.08 0-2.2-.24-3.38-.67l1.58-11.7c2.02-2 4.36-3.43 6.3-3.57zm0 0"/></symbol><symbol overflow="visible" id="7871c4dbao"><path d="M2.4-14.44C2.4-6.04 6.9.5 15.7.5c3.2 0 6.22-.77 8.7-2.08l-1.18-3.28c-2.11.94-4.5 1.58-6.92 1.58-7.11 0-9.46-5.63-9.46-11.49 0-3.64.9-7.32 3.24-9.76a8.17 8.17 0 016.03-2.33c2.44 0 4.5.63 6.58 1.75l1.6-3.28a15.26 15.26 0 00-8.13-2.25c-9.46 0-13.77 8-13.77 16.2zm0 0"/></symbol><symbol overflow="visible" id="7871c4dbap"><path d="M7.6-21.19l-4.13.08V0H7.6v-8.95h3.45c3.3 0 3.38 2.3 5.86 8.95h4.27c-.13-.45-.63-1.53-.9-2.25-1.93-5.05-2.65-7.66-5.12-8.38 2.06-.93 2.88-3.42 4.31-8.04.41-1.22.63-1.94.86-2.49h-4.28c-1.89 6.8-1.89 8.93-5.22 8.93H7.61zm0 0"/></symbol><symbol overflow="visible" id="7871c4dbaq"><path d="M2.25-10.13C2.25-3.83 5.81.63 11.52.63c6.62 0 9.95-5.7 9.95-11.61 0-6.2-3.52-10.8-9.24-10.8-6.56 0-9.98 5.84-9.98 11.66zm14.94-.21c0 2.65-.67 4.76-1.8 6.03a4.65 4.65 0 01-3.42 1.39c-3.6 0-5.44-3.2-5.44-7.78 0-2.9.72-4.96 1.84-6.18a4.55 4.55 0 013.43-1.34c3.54 0 5.39 3.24 5.39 7.88zm0 0"/></symbol><symbol overflow="visible" id="7871c4dbar"><path d="M19.34-21.16H6.7l-.4 5.55C5.63-6.39 4.45-3.1.67-2.92V.3C1.07.45 1.7.5 2.44.5 4.04.5 5.3-.1 6.3-.98c2.84-2.7 3.6-8.74 3.97-14.46l.17-2.34h4.81V0h4.1zm0 0"/></symbol><symbol overflow="visible" id="7871c4dbas"><path d="M4.77-10.08A6.09 6.09 0 001.8-4.8C1.8-1.58 3.92.5 7.38.5c2.56 0 5.04-1.13 7.2-3.06l.67 2.83 3.47-.49c-.31-4.6-.4-6.48-.4-8.1v-5.37c0-5.58-2.12-7.95-6.76-7.95-3.5 0-6.51 1.39-8.86 3.42l1.53 2.61c2.16-1.53 4.46-2.44 6.47-2.44 2.53 0 3.52 1.4 3.52 5.58v.19c-4.77.4-7.69 1.08-9.45 2.2zm1.07 4.72c0-1.25.55-2.01 1.27-2.51.95-.63 2.83-1.08 7.1-1.44v3.87C12.17-3.69 10.04-2.8 8.34-2.8c-1.63 0-2.49-.89-2.49-2.56zm0 0"/></symbol><symbol overflow="visible" id="7871c4dbat"><path d="M6.66-21.52l-3.5.46c.3 4.73.4 6.75.4 8.42V10.8H7.7V-.81c1.4.95 2.8 1.44 4.73 1.44C18.45.63 22-5.37 22-11.3c0-5.98-3.5-10.48-8.45-10.48-2.49 0-4.46 1.17-6.3 3.01zm6.21 3.3c3.24 0 4.86 3.24 4.86 7.69 0 2.51-.59 5-1.93 6.34a5.06 5.06 0 01-3.7 1.32A8.8 8.8 0 017.7-4.05v-11.84c1.76-1.44 3.42-2.33 5.18-2.33zm0 0"/></symbol><symbol overflow="visible" id="7871c4dbax"><path d="M2.25-11.2C2.25-4.45 5.58.5 12.69.5c3.78 0 6.22-.95 8.06-1.98L19.7-4.6a15.3 15.3 0 01-6.3 1.3c-4.71 0-6.84-3.46-6.84-8.32 0-5.48 2.08-10.94 5-13.69a9.06 9.06 0 015.22-1.56c2.08 0 3.83.48 5.53 1.48l1.77-3.06c-1.94-1.39-4.1-2.2-7.06-2.2-10.49 0-14.77 11.3-14.77 19.44zm0 0"/></symbol><symbol overflow="visible" id="7871c4dbay"><path d="M8.5-21.33l-4.14.14L1.58 0h4.14l1.17-9h1.97c2.97 0 2.97 1.48 5.31 9h4.28c-.23-.58-.54-1.67-.9-2.83-1.4-4.47-2.07-6.84-3.86-7.6 2.28-.73 3.1-2.98 5.44-8.12.54-1.15.9-2.06 1.17-2.68h-4.24c-3.01 7.51-3.37 9.04-6.2 9.04H7.3zm0 0"/></symbol><symbol overflow="visible" id="7871c4dbaz"><path d="M1.63-8.19C1.57-3.06 4.13.62 9.04.62 16.06.63 19.98-6.83 20.03-13c.03-5.05-2.3-8.83-7.47-8.83-7.08 0-10.89 7.47-10.94 13.64zm14.17-4.73c0 3.7-1.27 7.1-3.28 9.19-.72.45-1.82.76-2.7.76-2.57 0-4-2.2-3.98-5.26.05-3.7 1.27-7.33 3.3-9.27a5.36 5.36 0 012.73-.72c2.8 0 3.93 2.06 3.93 5.3zm0 0"/></symbol><symbol overflow="visible" id="7871c4dbaA"><path d="M5.9-12.28C4.35-7.92 3.55-5.44 2.33-3.95c-.67.53-1.8.72-2.89.72L-1.03.19C-.72.27 0 .5.98.5 2.66.5 4 .05 5.05-.9c2.33-2.16 3.54-6.76 5.17-11.52.72-2.25 1.44-4.1 2.25-5.03.58-.46 1.3-.64 2.15-.64.68 0 1.44.09 1.76.18L14.04 0h4.14l2.73-20.97c-1.3-.36-3.19-.76-5.67-.76-6.47 0-7.47 3.92-9.36 9.45zm0 0"/></symbol><symbol overflow="visible" id="7871c4dbaB"><path d="M1.58-7.06c0 4.14 1.39 7.6 5.08 7.6 2.43 0 5.09-1.52 7.2-3.5l.27 3.18 3.42-.44c.23-4.14.4-5.95.6-7.39l1.6-12.19v-.04a12.78 12.78 0 00-6.6-1.99C6.3-21.83 1.57-15.3 1.57-7.06zm4.23-.82c0-4.28 1.44-8.06 4.05-9.85a6.5 6.5 0 012.37-.46c1 0 2.04.14 3.11.46L13.81-6.34C12.01-4.7 9.77-3.33 7.87-3.2c-1.39-.19-2.06-2.03-2.06-4.69zm0 0"/></symbol><symbol overflow="visible" id="7871c4dbaC"><path d="M4.31 10.8L5.71.19c.9.22 1.8.36 2.84.36 6.89 0 11.56-6.53 11.51-14.72-.03-4.14-1.43-7.66-5.22-7.66-2.42 0-4.93 1.44-7.18 3.61l-.24-3.2-3.42.36c-.22 4.5-.4 6.08-.63 7.75L.23 10.79zm9.46-28.94c1.43.19 2.07 2.12 2.07 4.78 0 4.27-1.43 7.95-4.01 9.8a6.2 6.2 0 01-2.42.45c-.99 0-2.08-.17-3.2-.53L7.72-14.9c1.94-1.84 4.1-3.06 6.04-3.25zm0 0"/></symbol><symbol overflow="visible" id="7871c4dbaD"><path d="M2.25-14.4C2.25-5.9 6.94.5 15.75.5c3.1 0 6.3-.77 8.78-2.03l-1.36-3.83c-2.01.9-4.45 1.44-6.75 1.44-6.84 0-9-5.35-9-10.85 0-3.45.86-7.01 3.11-9.26a7.7 7.7 0 015.72-2.2c2.38 0 4.45.57 6.44 1.67l1.84-3.88a16.02 16.02 0 00-8.23-2.2c-9.7 0-14.05 8.05-14.05 16.23zm0 0"/></symbol><symbol overflow="visible" id="7871c4dbaE"><path d="M8.14-21.38l-4.81.1V0h4.81v-8.78h3.3c3.14 0 3.14 2.34 5.44 8.78h5.04c-.19-.45-.73-1.7-1-2.52-1.8-4.8-2.47-7.39-4.98-8.15 2.06-.99 2.87-3.5 4.31-8.24.36-1.12.58-1.84.81-2.42h-5c-1.7 6.66-1.65 8.74-4.81 8.74h-3.1zm0 0"/></symbol><symbol overflow="visible" id="7871c4dbaF"><path d="M2.1-10.08c0 6.3 3.67 10.7 9.5 10.7C18.28.63 21.89-5 21.89-11.15c0-6.21-3.61-10.8-9.46-10.8-6.65 0-10.31 5.8-10.31 11.88zm14.78-.31c0 2.47-.58 4.4-1.63 5.58a4.1 4.1 0 01-3.14 1.3c-3.3 0-5-2.93-5-7.29 0-2.75.67-4.6 1.67-5.72a4.02 4.02 0 013.14-1.26c3.28 0 4.96 2.97 4.96 7.39zm0 0"/></symbol><symbol overflow="visible" id="7871c4dbaG"><path d="M20.06-21.33H6.61l-.4 5.53C5.57-6.53 4.58-3.73.7-3.47V.31C1.18.41 1.9.5 2.76.5 4.5.5 5.89-.14 6.97-1.13c2.84-2.75 3.56-8.59 3.92-14.48l.1-1.81h4.26V0h4.81zm0 0"/></symbol><symbol overflow="visible" id="7871c4dbaH"><path d="M4.81-10.4a6.32 6.32 0 00-3.1 5.5C1.7-1.68 3.82.5 7.41.5c2.52 0 4.96-1.08 7.06-2.94l.7 2.75 4.04-.58c-.28-4.73-.36-6.62-.36-8.28v-5.3c0-5.63-2.3-7.98-7.16-7.98-3.73 0-6.75 1.44-9.1 3.47l1.71 3.02c2.22-1.44 4.38-2.25 6.36-2.25 2.38 0 3.33 1.21 3.33 5.07v.05c-4.69.4-7.47 1.03-9.19 2.08zM6.4-5.52c0-1.17.45-1.84 1.13-2.3.86-.54 2.6-.95 6.48-1.22v3.38c-1.94 1.58-3.88 2.34-5.4 2.34-1.54 0-2.2-.76-2.2-2.2zm0 0"/></symbol><symbol overflow="visible" id="7871c4dbaI"><path d="M7.06-21.69l-4.1.53c.32 4.91.42 6.99.42 8.7V10.8h4.85V-.77c1.35.91 2.7 1.4 4.6 1.4 5.8 0 9.72-5.94 9.72-12.1-.05-5.98-3.7-10.48-8.7-10.48-2.33 0-4.3 1.12-6.16 2.92zm5.94 3.9c3.02 0 4.5 2.9 4.5 7.26 0 2.3-.44 4.6-1.66 5.84-.9.77-1.89 1.22-3.46 1.22-1.4 0-2.8-.31-4.15-1.08V-15.8c1.68-1.26 3.29-1.98 4.77-1.98zm0 0"/></symbol><symbol overflow="visible" id="7871c4dbaM"><path d="M2.1-11.25C2.1-4.41 5.59.5 12.79.5c3.88 0 6.3-.95 7.97-1.94l-1.13-3.6a15.92 15.92 0 01-5.98 1.12c-4.42 0-6.48-3.14-6.48-7.78 0-5.85 2.3-10.99 4.86-13.32a9.44 9.44 0 014.8-1.26c2 0 3.74.5 5.37 1.39l2.01-3.55c-1.89-1.39-4.1-2.2-7.14-2.2-10.67 0-14.95 11.16-14.95 19.39zm0 0"/></symbol><symbol overflow="visible" id="7871c4dbaN"><path d="M9.1-21.52l-4.82.14L1.44 0h4.81l1.17-8.81h1.72c2.78 0 2.73 1.34 4.94 8.81h5c-.22-.63-.53-1.75-.94-3.02-1.31-4.45-1.94-6.7-3.73-7.51 2.28-.63 3.09-2.78 5.39-8.05.6-1.26.95-2.22 1.22-2.84h-4.96c-2.83 7.37-3.01 8.86-5.89 8.86H7.92zm0 0"/></symbol><symbol overflow="visible" id="7871c4dbaO"><path d="M1.53-8.33C1.48-3.06 4.1.63 9.1.63c7.33 0 11.25-7.6 11.3-13.77.05-5.08-2.34-8.86-7.66-8.86-7.37 0-11.15 7.56-11.2 13.67zm13.95-4.72c-.04 3.55-1.17 6.88-3.06 8.96-.67.3-1.58.53-2.44.53-2.2 0-3.59-1.97-3.54-4.77.04-3.54 1.17-7.1 3.06-8.95a5.08 5.08 0 012.42-.53c2.52 0 3.56 1.75 3.56 4.76zm0 0"/></symbol><symbol overflow="visible" id="7871c4dbaP"><path d="M5.77-12.23C4.28-8.02 3.59-6.03 2.6-4.64c-.67.6-1.94.76-3.06.76L-1.03.14C-.67.22.19.5 1.34.5 3.16.5 4.7 0 5.77-1.08c2.25-2.15 3.37-6.34 5.03-11.3.67-2.06 1.36-3.87 2.07-4.76a3.58 3.58 0 011.97-.55c.64 0 1.36.05 1.63.14L14.17 0h4.81l2.8-21.1c-1.44-.42-3.47-.82-6.12-.82-6.97 0-7.88 3.97-9.9 9.69zm0 0"/></symbol><symbol overflow="visible" id="7871c4dbaQ"><path d="M1.44-7.06c0 4.23 1.44 7.6 5.22 7.6 2.39 0 5.14-1.45 7.2-3.37l.31 3.05 3.97-.49c.22-4.32.48-6.17.63-7.7l1.57-12.06A13.77 13.77 0 0013.36-22C6.25-22 1.44-15.53 1.44-7.06zm4.95-1.08c0-3.88 1.13-7.3 3.52-9.19a6.56 6.56 0 012.42-.45c.86 0 1.84.14 2.84.36l-1.4 10.81C12.1-5.12 9.94-4 8.14-3.83 6.97-4.05 6.4-5.63 6.4-8.14zm0 0"/></symbol><symbol overflow="visible" id="7871c4dbaR"><path d="M4.86 10.8L6.25.27c.81.18 1.63.28 2.53.28 7.16 0 11.92-6.53 11.92-14.86-.04-4.24-1.53-7.69-5.4-7.69-2.43 0-4.96 1.3-7.16 3.45l-.31-3.04-3.96.43c-.23 4.7-.4 6.27-.64 8.02L.1 10.8zM14-17.7c1.17.24 1.75 1.9 1.75 4.4 0 3.84-1.17 7.26-3.56 9.1-.58.32-1.49.5-2.38.5-.95 0-1.94-.14-2.97-.45l1.44-10.67c1.8-1.66 3.88-2.69 5.72-2.88zm0 0"/></symbol><symbol overflow="visible" id="7871c4dbaS"><path d="M1.98-14.44C1.98-5.8 6.9.5 15.7.5c3.43 0 6.53-.77 9-2.03l-1.48-4.4c-1.94.8-4.28 1.29-6.4 1.29-6.48 0-8.54-5.03-8.54-10.2 0-3.25.86-6.54 2.88-8.6 1.26-1.31 3.1-2.08 5.45-2.08 2.25 0 4.14.5 6.08 1.49l2.1-4.4a16.18 16.18 0 00-8.41-2.21c-9.72 0-14.4 7.92-14.4 16.2zm0 0"/></symbol><symbol overflow="visible" id="7871c4dbaT"><path d="M8.9-21.64l-5.93.08V0H8.9v-8.64h2.7c3.02 0 3.02 2.2 5.17 8.64h6.08c-.17-.5-.72-1.9-.98-2.83-1.72-4.86-2.49-7.25-5-8.01 2.15-.91 2.96-3.43 4.35-8.1.36-1.22.6-2.03.82-2.65h-6.03C14.44-15.17 14.53-13 11.47-13H8.9zm0 0"/></symbol><symbol overflow="visible" id="7871c4dbaU"><path d="M1.84-10.22C1.84-3.95 5.58.63 11.8.63c6.97 0 10.8-5.49 10.8-11.83 0-6.22-3.66-11.03-9.91-11.03-6.92 0-10.85 5.71-10.85 12.01zm14.68-.26c0 2.34-.5 4.18-1.44 5.3-.5.59-1.4 1.18-2.75 1.18-2.88 0-4.36-2.8-4.36-6.94 0-2.51.58-4.4 1.44-5.48.5-.64 1.39-1.17 2.75-1.17 2.92 0 4.36 2.96 4.36 7.1zm0 0"/></symbol><symbol overflow="visible" id="7871c4dbaV"><path d="M21.33-21.6H6.39L6-15.93C5.4-7.3 4.5-4.54.71-4.3V.27C1.22.4 2.1.5 3.16.5 5.17.5 6.7-.19 7.83-1.34c2.7-2.8 3.37-8.43 3.69-14.36l.09-1.4h3.83V0h5.89zm0 0"/></symbol><symbol overflow="visible" id="7871c4dbaW"><path d="M4.45-10.44a6.25 6.25 0 00-2.97 5.36C1.48-1.62 3.73.5 7.42.5c2.56 0 4.96-1.13 7.02-3.02l.95 2.83 4.72-.67c-.31-4.86-.4-6.84-.4-8.6v-5c0-5.62-2.48-8.13-7.84-8.13a15 15 0 00-9.48 3.32l1.8 3.57a12.05 12.05 0 016.34-2.08c2.35 0 3.24 1.08 3.24 4.55-4.58.4-7.57 1.12-9.32 2.3zm2.61 4.5c0-1.03.36-1.67 1-2.08.75-.53 2.38-.89 5.7-1.12v3.37c-1.65 1.32-3.28 1.99-4.62 1.99-1.45 0-2.08-.77-2.08-2.16zm0 0"/></symbol><symbol overflow="visible" id="7871c4dbaX"><path d="M7.42-21.95l-4.76.62c.3 5.13.4 7.25.4 9.05V10.7h5.99V-.8c1.26.9 2.6 1.39 4.5 1.39 5.53 0 9.67-5.85 9.67-12.14 0-6.08-3.69-10.67-8.69-10.67-2.42 0-4.45 1.17-6.25 3.06zm5.77 4.45c2.6 0 3.9 2.69 3.9 6.83 0 2.22-.4 4.37-1.48 5.54A3.92 3.92 0 0112.59-4a7.53 7.53 0 01-3.54-.9v-10.94c1.43-1.08 2.82-1.66 4.14-1.66zm0 0"/></symbol><symbol overflow="visible" id="7871c4dbaZ"><path d="M1.84-11.3C1.84-4.28 5.48.5 12.74.5c4 0 6.6-1 8.28-1.9l-1.18-4.18c-1.26.46-3.42.99-5.76.99-4.22 0-6.06-3.02-6.06-7.43 0-5.36 2.1-10.17 4.45-12.32a8.6 8.6 0 014.62-1.18c1.94 0 3.7.41 5.27 1.27l2.12-4.19c-1.84-1.36-4.09-2.2-7.34-2.2-10.94 0-15.3 11.02-15.3 19.34zm0 0"/></symbol><symbol overflow="visible" id="7871c4dbba"><path d="M9.86-21.73L4-21.6 1.12 0h5.9l1.12-8.69h1.44c2.58 0 2.48 1.44 4.42 8.69h6.06c-.22-.67-.53-1.8-.89-3.19-1.26-4.5-1.84-6.75-3.78-7.51 2.34-.64 3.19-2.7 5.48-8.02.65-1.34 1-2.34 1.22-2.92h-5.98c-2.61 7.23-2.8 8.69-5.48 8.69h-1.9zm0 0"/></symbol><symbol overflow="visible" id="7871c4dbbb"><path d="M1.31-8.42C1.27-3.2 3.95.62 9.36.62c8.06 0 11.8-7.92 11.83-13.93.04-5.1-2.47-8.97-8.1-8.97C5-22.28 1.34-14.41 1.31-8.42zm13.94-4.86c0 3.34-1.03 6.75-2.69 8.78-.6.31-1.45.5-2.22.5-1.92 0-3.09-1.81-3.09-4.38.05-3.32 1.08-6.92 2.69-8.8.6-.32 1.4-.5 2.22-.5 2.2 0 3.09 1.71 3.09 4.4zm0 0"/></symbol><symbol overflow="visible" id="7871c4dbbc"><path d="M5.58-12.6c-1.4 3.87-2.06 5.85-3.02 7.24-.67.55-1.89.77-3.01.77L-1.13.09C-.63.22.42.5 1.75.5c1.98 0 3.56-.55 4.73-1.67 2.25-2.2 3.38-6.3 4.99-11.35.64-1.92 1.22-3.54 1.81-4.36a3.2 3.2 0 011.75-.5c.53 0 1.13.1 1.4.2L14.12 0h5.9l2.83-21.33c-1.63-.4-3.92-.86-6.75-.86-7.2 0-8.5 3.74-10.53 9.6zm0 0"/></symbol><symbol overflow="visible" id="7871c4dbbd"><path d="M1.27-7.06C1.27-2.8 2.75.54 6.6.54c2.44 0 5.1-1.45 7.2-3.46L14.36.3l4.72-.67c.23-4.6.45-6.3.62-8.06l1.58-11.88a16.57 16.57 0 00-7.51-1.98c-7.52 0-12.55 6.34-12.5 15.22zm5.98-1.17c0-3.57 1.03-6.97 3.1-8.91.59-.23 1.48-.36 2.3-.36.7 0 1.52.05 2.33.22L13.64-6.8c-1.48 1.27-3.33 2.25-4.9 2.44-1-.33-1.49-1.67-1.49-3.87zm0 0"/></symbol><symbol overflow="visible" id="7871c4dbbe"><path d="M5.67 10.7L7.02.4c.64.1 1.26.15 1.93.15 7.52 0 12.61-6.36 12.61-15.08-.04-4.33-1.58-7.75-5.54-7.75-2.38 0-4.96 1.36-7.24 3.56l-.5-3.23-4.69.62c-.26 4.9-.43 6.61-.71 8.5L-.23 10.7zm8.38-28.07c1.03.3 1.48 1.76 1.48 3.92 0 3.54-1.05 6.97-3.1 8.86-.6.28-1.5.4-2.35.4-.77 0-1.58-.1-2.42-.26l1.39-10.49a9.77 9.77 0 015-2.44zm0 0"/></symbol><symbol overflow="visible" id="7871c4dbbf"><path d="M1.48-14.53C1.48-5.58 6.8.5 15.61.5c3.97 0 7.03-.81 9.45-1.98l-1.75-5.49c-1.8.67-3.97 1.03-5.81 1.03-5.75 0-7.6-4.4-7.6-9.1 0-2.77.72-5.52 2.43-7.32 1.08-1.12 2.75-1.84 4.95-1.84 1.99 0 3.6.36 5.44 1.15l2.58-5.39c-1.99-1.17-4.78-2.2-8.83-2.2-9.77 0-14.99 7.64-14.99 16.1zm0 0"/></symbol><symbol overflow="visible" id="7871c4dbbg"><path d="M10.31-22.14L2.4-22V0h7.92v-8.38h1.7c2.76 0 2.76 1.94 4.55 8.38h8c-.17-.55-.67-2.2-1.03-3.52-1.44-4.8-2.37-6.96-4.95-7.59 2.34-.9 3.2-3.3 4.47-7.92.39-1.4.62-2.34.84-3.06h-7.95c-1.36 6.03-1.13 8.37-4.02 8.37h-1.6zm0 0"/></symbol><symbol overflow="visible" id="7871c4dbbh"><path d="M1.4-10.4C1.4-4.22 5.16.64 12.18.64c7.44 0 11.7-5.22 11.7-11.97 0-6.16-3.73-11.35-10.75-11.35-7.42 0-11.75 5.55-11.75 12.3zm14.5-.18c0 2.03-.42 3.69-1.09 4.74-.4.57-1.04.98-2.03.98-2.2 0-3.33-2.66-3.33-6.34 0-2.11.46-4.05 1.08-5 .4-.63 1.03-.99 2.03-.99 2.2 0 3.33 2.97 3.33 6.61zm0 0"/></symbol><symbol overflow="visible" id="7871c4dbbi"><path d="M23.58-22.1H5.98l-.4 5.94C5.12-8.78 4.3-5.98.68-5.84V.19C1.3.36 2.46.5 3.91.5 6.4.5 8.14-.31 9.36-1.75c2.52-2.8 3.1-8.1 3.37-14.14l.05-.58h2.92V0h7.88zm0 0"/></symbol><symbol overflow="visible" id="7871c4dbbj"><path d="M3.73-10.58a6.28 6.28 0 00-2.6 5.22C1.13-1.58 3.63.5 7.46.5c2.6 0 5-1.27 6.94-3.2L15.8.36l5.93-.9c-.26-5.13-.4-7.24-.4-9.13v-4.46c0-5.57-2.78-8.42-9.1-8.42-3.86 0-7.68 1.22-10.25 3.02l1.94 4.5c2.02-1.03 4.4-1.7 6.42-1.7 2.18 0 3.02.84 3.07 3.54-4.5.4-7.74 1.22-9.68 2.61zm4.6 3.92c0-.8.22-1.36.76-1.76.58-.4 1.85-.72 4.32-.85v3.38a5.77 5.77 0 01-3.29 1.25c-1.3 0-1.8-.77-1.8-2.02zm0 0"/></symbol><symbol overflow="visible" id="7871c4dbbk"><path d="M8.06-22.5l-6 .86c.28 5.48.4 7.78.4 9.77v22.45h8.02V-.82a6.8 6.8 0 004.36 1.4c5.1 0 9.64-5.7 9.64-12.24 0-6.34-3.65-11.03-8.73-11.03-2.6 0-4.64 1.22-6.34 3.16zm5.35 5.48c2.03 0 2.92 2.3 2.92 6.13 0 1.94-.31 3.92-1.08 4.95-.48.63-1.13.94-2.2.94-.86 0-1.7-.17-2.57-.53v-10.44a5.7 5.7 0 012.93-1.05zm0 0"/></symbol><symbol overflow="visible" id="7871c4dbbl"><path d="M1.4-11.44C1.4-4 5.3.55 12.63.55c4.33 0 7.25-1.05 8.78-1.94L20.3-6.66c-1.18.41-3.43.82-5.36.82-3.9 0-5.36-2.75-5.36-6.72 0-4.46 1.81-8.67 3.73-10.56a8.36 8.36 0 014.28-1.05c1.85 0 3.6.36 5.05 1.05l2.42-5.32c-1.84-1.26-4.26-2.2-7.73-2.2-11.52 0-15.94 10.8-15.94 19.2zm0 0"/></symbol><symbol overflow="visible" id="7871c4dbbm"><path d="M11.34-22.23l-7.82.14L.58 0h7.84L9.5-8.38h.98c2.08 0 1.99 1.54 3.43 8.38h7.96c-.18-.72-.45-1.9-.8-3.47-1.13-4.67-1.73-6.92-3.88-7.56 2.39-.58 3.42-2.52 5.67-7.9.67-1.59 1.08-2.66 1.31-3.21H16.3c-2.4 7.02-2.53 8.45-4.86 8.45h-1.22zm0 0"/></symbol><symbol overflow="visible" id="7871c4dbbn"><path d="M.86-8.55C.86-3.42 3.73.63 9.8.63c9.4 0 12.88-8.5 12.9-14.27 0-5.03-2.73-9.13-8.94-9.13C4.36-22.77.9-14.3.86-8.55zm13.98-5.17c0 2.88-.8 6.61-2.06 8.55-.45.26-1.12.4-1.72.4-1.51 0-2.28-1.57-2.28-3.68 0-2.85.8-6.68 2.06-8.57a4.1 4.1 0 011.72-.36c1.66 0 2.28 1.49 2.28 3.66zm0 0"/></symbol><symbol overflow="visible" id="7871c4dbbo"><path d="M5.17-13.28c-1.12 3.25-1.8 5.19-2.7 6.53-.63.55-1.85.77-2.88.77L-1.2 0C-.56.22.76.5 2.46.5c2.3 0 4.01-.6 5.31-1.84 2.3-2.25 3.38-6.18 4.95-11.44.5-1.7.91-2.97 1.35-3.6.36-.23.76-.35 1.26-.35.36 0 .77.04.99.12L14.13 0h7.82l2.9-21.73c-2-.5-4.74-.99-7.98-.99-7.56 0-9.54 3.4-11.7 9.44zm0 0"/></symbol><symbol overflow="visible" id="7871c4dbbp"><path d="M.81-7.1C.81-2.67 2.47.57 6.48.57c2.47 0 5.04-1.44 7.29-3.69l.86 3.52 6.12-.86c.27-5.17.44-6.66.77-8.82L23-20.75a21.43 21.43 0 00-8.56-1.97C6.25-22.72.8-16.66.8-7.1zm8-1.32c0-2.92.81-6.4 2.4-8.36.5-.19 1.3-.28 2.07-.28.44 0 .9 0 1.4.04L13.4-7.2a8.06 8.06 0 01-3.64 1.84C9.14-5.8 8.8-6.8 8.8-8.42zm0 0"/></symbol><symbol overflow="visible" id="7871c4dbbq"><path d="M7.1 10.53L8.43.5c.31.05.63.05.94.05 8.14 0 13.77-5.99 13.72-15.53 0-4.41-1.56-7.79-5.7-7.79-2.35 0-5 1.4-7.35 3.7l-.98-3.48-5.94.86a149.8 149.8 0 01-.81 9.36L-.77 10.53zm7.07-27.31c.64.45.96 1.48.96 3.06 0 2.92-.82 6.4-2.4 8.36-.5.19-1.39.28-2.15.28-.46 0-.9-.04-1.4-.1l1.3-9.9a8.29 8.29 0 013.7-1.7zm0 0"/></symbol><symbol overflow="visible" id="7871c4dbbr"><path d="M.94-14.63C.94-5.3 6.7.5 15.54.5c4.52 0 7.5-.86 9.93-1.98L23.4-8.14c-1.63.45-3.57.77-5.1.77-5 0-6.56-3.79-6.56-7.83 0-2.35.58-4.5 1.9-5.9.88-.95 2.32-1.67 4.4-1.67 1.65 0 2.97.27 4.72.85l3.1-6.47c-2.03-1.22-4.8-2.25-9.26-2.25C6.75-30.64.94-23.27.94-14.62zm0 0"/></symbol><symbol overflow="visible" id="7871c4dbbs"><path d="M11.83-22.72l-10.13.17V0h10.13v-8.06h.64c2.42 0 2.42 1.67 3.9 8.06h10.18c-.18-.55-.68-2.6-1.08-4.23-1.27-4.86-2.34-6.7-5-7.2 2.6-.85 3.47-3.2 4.6-7.7.4-1.62.66-2.7.9-3.51H15.84c-1.07 5.55-.76 8.1-3.37 8.1h-.64zm0 0"/></symbol><symbol overflow="visible" id="7871c4dbbt"><path d="M.86-10.67C.86-4.6 4.72.63 12.59.63c8.02 0 12.79-4.91 12.79-12.1 0-6.12-3.79-11.75-11.7-11.75C5.73-23.22.87-17.86.87-10.67zm14.27-.03a11 11 0 01-.65 4.1c-.3.52-.62.76-1.2.76-1.45 0-2.12-2.49-2.12-5.6 0-1.7.28-3.69.67-4.53.28-.6.6-.81 1.22-.81 1.39 0 2.07 2.97 2.07 6.08zm0 0"/></symbol><symbol overflow="visible" id="7871c4dbbu"><path d="M26.19-22.64H5.49l-.37 6.22c-.35 5.98-.98 8.76-4.45 8.81V.14c.77.17 2.2.36 4.14.36 2.97 0 4.96-1 6.3-2.7 2.2-2.8 2.75-7.57 2.97-13.6h1.98V0H26.2zm0 0"/></symbol><symbol overflow="visible" id="7871c4dbbv"><path d="M2.97-10.67A6 6 0 00.72-5.72C.72-1.53 3.52.5 7.47.5c2.7 0 5.1-1.36 6.89-3.33L16.3.36l7.32-1.08c-.3-5.48-.45-7.7-.45-9.72v-3.87c0-5.53-3.19-8.77-10.48-8.77-4 0-8.46 1.08-11.11 2.74l1.98 5.5a21.4 21.4 0 016.56-1.32c1.99 0 2.76.63 2.83 2.47-4.3.4-7.87 1.31-9.98 3.02zm6.75 3.2c0-.55.1-1.03.5-1.34.36-.33 1.25-.55 2.78-.6v3.33c-.63.31-1.17.5-1.7.5-1.22 0-1.58-.81-1.58-1.89zm0 0"/></symbol><symbol overflow="visible" id="7871c4dbbw"><path d="M8.78-23.08L1.34-22c.33 5.94.46 8.36.46 10.56V10.4h10.3V-.7A6.8 6.8 0 0016.34.54c4.6 0 9.6-5.55 9.6-12.35 0-6.6-3.65-11.42-8.79-11.42-2.73 0-4.81 1.22-6.47 3.28zm4.94 6.66c1.26 0 1.76 1.84 1.76 5.22 0 1.75-.18 3.47-.64 4.36-.26.5-.62.71-1.34.71-.45 0-.9-.07-1.4-.21v-9.63a3.37 3.37 0 011.62-.45zm0 0"/></symbol><symbol overflow="visible" id="7871c4dbby"><path d="M.9-11.52C.9-3.64 5.09.58 12.53.58c4.71 0 7.92-1.13 9.4-1.92L20.8-7.83c-1.1.27-3.47.53-4.86.53-3.61 0-4.55-2.42-4.55-5.93 0-3.38 1.44-6.97 2.88-8.55.93-.53 2.39-.9 3.92-.9 1.75 0 3.45.37 4.76.8l2.74-6.56c-1.8-1.22-4.4-2.2-8.19-2.2C5.4-30.64.9-20.11.9-11.52zm0 0"/></symbol><symbol overflow="visible" id="7871c4dbbz"><path d="M12.95-22.81l-9.98.22L-.05 0H9.98l1.05-8.06h.44C13-8.06 12.92-6.4 13.8 0h10.13l-.77-3.78c-.98-4.9-1.53-7.06-4-7.61 2.52-.53 3.69-2.3 5.94-7.83.77-1.8 1.17-2.97 1.39-3.5H16.42c-2.01 6.83-2.1 8.24-4.1 8.24h-.45zm0 0"/></symbol><symbol overflow="visible" id="7871c4dbbA"><path d="M.4-8.73C.4-3.7 3.48.63 10.32.63c10.92 0 14.13-9.13 14.13-14.58 0-4.99-3.07-9.36-9.96-9.36C3.6-23.31.41-14.17.41-8.73zm13.96-5.49c.05 2.4-.5 6.4-1.36 8.28-.31.17-.77.27-1.17.27-.99 0-1.35-1.27-1.35-2.83 0-2.4.55-6.4 1.32-8.28.3-.19.8-.28 1.2-.28 1.05 0 1.36 1.31 1.36 2.84zm0 0"/></symbol><symbol overflow="visible" id="7871c4dbbB"><path d="M4.77-14.05c-.9 2.49-1.58 4.47-2.38 5.77-.6.5-1.81.72-2.75.72l-.98 7.51C-.41.2 1.22.5 3.33.5c2.6 0 4.45-.6 5.89-2.08 2.39-2.3 3.37-6.03 4.9-11.51.36-1.44.65-2.3.86-2.8.2-.08.41-.13.68-.13.23 0 .4.05.54.08L14.08 0h10.04l2.93-22.23a43 43 0 00-9.32-1.08c-7.96 0-10.76 3.01-12.96 9.26zm0 0"/></symbol><symbol overflow="visible" id="7871c4dbbC"><path d="M.36-7.1C.36-2.48 2.2.57 6.34.57c2.52 0 4.91-1.3 7.3-3.9L14.98.54l7.66-1.18c.36-5.71.48-7.03.84-9.59l1.49-11.01a27.08 27.08 0 00-9.72-2.04C6.2-23.27.35-17.45.35-7.1zm10.27-1.54c0-2.2.53-5.67 1.53-7.78.43-.1 1.15-.14 1.84-.14h.31l-1.17 8.95c-.72.55-1.44.9-2.16 1.13a4.83 4.83 0 01-.36-2.16zm0 0"/></symbol><symbol overflow="visible" id="7871c4dbbD"><path d="M8.73 10.31l1.3-9.76C18.81.45 24.9-5.17 24.9-15.48c0-4.55-1.72-7.83-5.98-7.83-2.25 0-5 1.39-7.47 3.83l-1.46-3.79-7.46 1.22c-.46 5.72-.63 7.97-.94 10.35L-1.34 10.3zm5.54-26.47c.26.63.36 1.22.36 2.16 0 2.17-.55 5.72-1.49 7.75-.4.08-1.31.13-1.98.13h-.22l1.17-9.08c.72-.4 1.48-.77 2.16-.96zm0 0"/></symbol></defs><use xlink:href="#7871c4dba" x="47.62875" y="68.408"/><use xlink:href="#7871c4dbb" x="73.41375" y="68.408"/><use xlink:href="#7871c4dbc" x="93.93375" y="68.408"/><use xlink:href="#7871c4dbd" x="116.56875" y="68.408"/><use xlink:href="#7871c4dbe" x="137.22375" y="68.408"/><use xlink:href="#7871c4dbf" x="157.56375" y="68.408"/><g fill-opacity=".33"><use xlink:href="#7871c4dbg" x="97.29208" y="105.816"/><use xlink:href="#7871c4dbh" x="103.95908" y="105.816"/><use xlink:href="#7871c4dbi" x="110.62608" y="105.816"/><use xlink:href="#7871c4dbj" x="117.29308" y="105.816"/><use xlink:href="#7871c4dbk" x="123.96008" y="105.816"/></g><use xlink:href="#7871c4dbl" x="273.67125" y="68.408"/><use xlink:href="#7871c4dbm" x="297.29625" y="68.408"/><use xlink:href="#7871c4dbn" x="316.33125" y="68.408"/><use xlink:href="#7871c4dbo" x="337.57125" y="68.408"/><use xlink:href="#7871c4dbp" x="357.86625" y="68.408"/><use xlink:href="#7871c4dbq" x="378.02625" y="68.408"/><g fill-opacity=".33"><use xlink:href="#7871c4dbg" x="296.04125" y="105.816"/><use xlink:href="#7871c4dbh" x="302.70825" y="105.816"/><use xlink:href="#7871c4dbi" x="309.37525" y="105.816"/><use xlink:href="#7871c4dbj" x="316.04225" y="105.816"/><use xlink:href="#7871c4dbk" x="322.70925" y="105.816"/><use xlink:href="#7871c4dbg" x="329.37625" y="105.816"/><use xlink:href="#7871c4dbr" x="336.04325" y="105.816"/><use xlink:href="#7871c4dbs" x="342.71025" y="105.816"/><use xlink:href="#7871c4dbt" x="349.37725" y="105.816"/><use xlink:href="#7871c4dbu" x="356.04425" y="105.816"/><use xlink:href="#7871c4dbj" x="362.71125" y="105.816"/><use xlink:href="#7871c4dbv" x="369.37825" y="105.816"/></g><use xlink:href="#7871c4dbw" x="46.41375" y="178.556"/><use xlink:href="#7871c4dbx" x="72.28875" y="178.556"/><use xlink:href="#7871c4dby" x="93.48375" y="178.556"/><use xlink:href="#7871c4dbz" x="116.43375" y="178.556"/><use xlink:href="#7871c4dbA" x="137.67375" y="178.556"/><use xlink:href="#7871c4dbB" x="158.37375" y="178.556"/><g fill-opacity=".33"><use xlink:href="#7871c4dbg" x="77.29208" y="215.964"/><use xlink:href="#7871c4dbC" x="83.95908" y="215.964"/><use xlink:href="#7871c4dbD" x="90.62608" y="215.964"/><use xlink:href="#7871c4dbs" x="97.29308" y="215.964"/><use xlink:href="#7871c4dbE" x="103.96008" y="215.964"/><use xlink:href="#7871c4dbt" x="110.62708" y="215.964"/><use xlink:href="#7871c4dbu" x="117.29408" y="215.964"/><use xlink:href="#7871c4dbj" x="123.96108" y="215.964"/><use xlink:href="#7871c4dbF" x="130.62808" y="215.964"/><use xlink:href="#7871c4dbi" x="137.29508" y="215.964"/><use xlink:href="#7871c4dbs" x="143.96208" y="215.964"/></g><use xlink:href="#7871c4dbG" x="272.38875" y="178.556"/><use xlink:href="#7871c4dbH" x="295.92375" y="178.556"/><use xlink:href="#7871c4dbI" x="315.63375" y="178.556"/><use xlink:href="#7871c4dbJ" x="337.09875" y="178.556"/><use xlink:href="#7871c4dbK" x="358.15875" y="178.556"/><use xlink:href="#7871c4dbL" x="378.81375" y="178.556"/><g fill-opacity=".33"><use xlink:href="#7871c4dbg" x="276.04125" y="215.964"/><use xlink:href="#7871c4dbC" x="282.70825" y="215.964"/><use xlink:href="#7871c4dbD" x="289.37525" y="215.964"/><use xlink:href="#7871c4dbs" x="296.04225" y="215.964"/><use xlink:href="#7871c4dbE" x="302.70925" y="215.964"/><use xlink:href="#7871c4dbt" x="309.37625" y="215.964"/><use xlink:href="#7871c4dbu" x="316.04325" y="215.964"/><use xlink:href="#7871c4dbj" x="322.71025" y="215.964"/><use xlink:href="#7871c4dbF" x="329.37725" y="215.964"/><use xlink:href="#7871c4dbi" x="336.04425" y="215.964"/><use xlink:href="#7871c4dbs" x="342.71125" y="215.964"/><use xlink:href="#7871c4dbg" x="349.37825" y="215.964"/><use xlink:href="#7871c4dbr" x="356.04525" y="215.964"/><use xlink:href="#7871c4dbs" x="362.71225" y="215.964"/><use xlink:href="#7871c4dbt" x="369.37925" y="215.964"/><use xlink:href="#7871c4dbu" x="376.04625" y="215.964"/><use xlink:href="#7871c4dbj" x="382.71325" y="215.964"/><use xlink:href="#7871c4dbv" x="389.38025" y="215.964"/></g><use xlink:href="#7871c4dbM" x="45.19875" y="288.704"/><use xlink:href="#7871c4dbN" x="71.11875" y="288.704"/><use xlink:href="#7871c4dbO" x="92.94375" y="288.704"/><use xlink:href="#7871c4dbP" x="116.16375" y="288.704"/><use xlink:href="#7871c4dbQ" x="138.03375" y="288.704"/><use xlink:href="#7871c4dbR" x="159.13875" y="288.704"/><g fill-opacity=".33"><use xlink:href="#7871c4dbg" x="93.95875" y="326.112"/><use xlink:href="#7871c4dbS" x="100.62575" y="326.112"/><use xlink:href="#7871c4dbj" x="107.29275" y="326.112"/><use xlink:href="#7871c4dbF" x="113.95975" y="326.112"/><use xlink:href="#7871c4dbi" x="120.62675" y="326.112"/><use xlink:href="#7871c4dbs" x="127.29375" y="326.112"/></g><use xlink:href="#7871c4dbT" x="271.03875" y="288.704"/><use xlink:href="#7871c4dbU" x="294.52875" y="288.704"/><use xlink:href="#7871c4dbV" x="314.91375" y="288.704"/><use xlink:href="#7871c4dbW" x="336.64875" y="288.704"/><use xlink:href="#7871c4dbX" x="358.47375" y="288.704"/><use xlink:href="#7871c4dbY" x="379.62375" y="288.704"/><g fill-opacity=".33"><use xlink:href="#7871c4dbg" x="292.70792" y="326.112"/><use xlink:href="#7871c4dbS" x="299.37492" y="326.112"/><use xlink:href="#7871c4dbj" x="306.04192" y="326.112"/><use xlink:href="#7871c4dbF" x="312.70892" y="326.112"/><use xlink:href="#7871c4dbi" x="319.37592" y="326.112"/><use xlink:href="#7871c4dbs" x="326.04292" y="326.112"/><use xlink:href="#7871c4dbg" x="332.70992" y="326.112"/><use xlink:href="#7871c4dbr" x="339.37692" y="326.112"/><use xlink:href="#7871c4dbs" x="346.04392" y="326.112"/><use xlink:href="#7871c4dbt" x="352.71092" y="326.112"/><use xlink:href="#7871c4dbu" x="359.37792" y="326.112"/><use xlink:href="#7871c4dbj" x="366.04492" y="326.112"/><use xlink:href="#7871c4dbv" x="372.71192" y="326.112"/></g><g><use xlink:href="#7871c4dbZ" x="44.27625" y="398.852"/><use xlink:href="#7871c4dbaa" x="70.24125" y="398.852"/><use xlink:href="#7871c4dbab" x="92.60625" y="398.852"/><use xlink:href="#7871c4dbac" x="116.05125" y="398.852"/><use xlink:href="#7871c4dbad" x="138.37125" y="398.852"/><use xlink:href="#7871c4dbae" x="159.74625" y="398.852"/></g><g fill-opacity=".33"><use xlink:href="#7871c4dbg" x="87.29208" y="436.26"/><use xlink:href="#7871c4dbaf" x="93.95908" y="436.26"/><use xlink:href="#7871c4dbag" x="100.62608" y="436.26"/><use xlink:href="#7871c4dbF" x="107.29308" y="436.26"/><use xlink:href="#7871c4dbah" x="113.96008" y="436.26"/><use xlink:href="#7871c4dbu" x="120.62708" y="436.26"/><use xlink:href="#7871c4dbt" x="127.29408" y="436.26"/><use xlink:href="#7871c4dbE" x="133.96108" y="436.26"/></g><g><use xlink:href="#7871c4dbai" x="270.04875" y="398.852"/><use xlink:href="#7871c4dbaj" x="293.49375" y="398.852"/><use xlink:href="#7871c4dbak" x="314.37375" y="398.852"/><use xlink:href="#7871c4dbal" x="336.28875" y="398.852"/><use xlink:href="#7871c4dbam" x="358.69875" y="398.852"/><use xlink:href="#7871c4dban" x="380.25375" y="398.852"/></g><g fill-opacity=".33"><use xlink:href="#7871c4dbg" x="312.70792" y="436.26"/><use xlink:href="#7871c4dbr" x="319.37492" y="436.26"/><use xlink:href="#7871c4dbs" x="326.04192" y="436.26"/><use xlink:href="#7871c4dbt" x="332.70892" y="436.26"/><use xlink:href="#7871c4dbu" x="339.37592" y="436.26"/><use xlink:href="#7871c4dbj" x="346.04292" y="436.26"/><use xlink:href="#7871c4dbv" x="352.70992" y="436.26"/></g><g><use xlink:href="#7871c4dbao" x="43.26375" y="509"/><use xlink:href="#7871c4dbap" x="69.27375" y="509"/><use xlink:href="#7871c4dbaq" x="92.17875" y="509"/><use xlink:href="#7871c4dbar" x="115.89375" y="509"/><use xlink:href="#7871c4dbas" x="138.70875" y="509"/><use xlink:href="#7871c4dbat" x="160.39875" y="509"/></g><g fill-opacity=".33"><use xlink:href="#7871c4dbg" x="90.62542" y="546.408"/><use xlink:href="#7871c4dbau" x="97.29242" y="546.408"/><use xlink:href="#7871c4dbag" x="103.95942" y="546.408"/><use xlink:href="#7871c4dbav" x="110.62642" y="546.408"/><use xlink:href="#7871c4dbj" x="117.29342" y="546.408"/><use xlink:href="#7871c4dbah" x="123.96042" y="546.408"/><use xlink:href="#7871c4dbaw" x="130.62742" y="546.408"/></g><g><use xlink:href="#7871c4dbax" x="268.96875" y="509"/><use xlink:href="#7871c4dbay" x="292.36875" y="509"/><use xlink:href="#7871c4dbaz" x="313.78875" y="509"/><use xlink:href="#7871c4dbaA" x="335.92875" y="509"/><use xlink:href="#7871c4dbaB" x="358.96875" y="509"/><use xlink:href="#7871c4dbaC" x="380.92875" y="509"/></g><g fill-opacity=".33"><use xlink:href="#7871c4dbg" x="289.37458" y="546.408"/><use xlink:href="#7871c4dbau" x="296.04158" y="546.408"/><use xlink:href="#7871c4dbag" x="302.70858" y="546.408"/><use xlink:href="#7871c4dbav" x="309.37558" y="546.408"/><use xlink:href="#7871c4dbj" x="316.04258" y="546.408"/><use xlink:href="#7871c4dbah" x="322.70958" y="546.408"/><use xlink:href="#7871c4dbaw" x="329.37658" y="546.408"/><use xlink:href="#7871c4dbg" x="336.04358" y="546.408"/><use xlink:href="#7871c4dbr" x="342.71058" y="546.408"/><use xlink:href="#7871c4dbs" x="349.37758" y="546.408"/><use xlink:href="#7871c4dbt" x="356.04458" y="546.408"/><use xlink:href="#7871c4dbu" x="362.71158" y="546.408"/><use xlink:href="#7871c4dbj" x="369.37858" y="546.408"/><use xlink:href="#7871c4dbv" x="376.04558" y="546.408"/></g><g><use xlink:href="#7871c4dbaD" x="42.11625" y="619.148"/><use xlink:href="#7871c4dbaE" x="68.17125" y="619.148"/><use xlink:href="#7871c4dbaF" x="91.70625" y="619.148"/><use xlink:href="#7871c4dbaG" x="115.69125" y="619.148"/><use xlink:href="#7871c4dbaH" x="139.09125" y="619.148"/><use xlink:href="#7871c4dbaI" x="161.14125" y="619.148"/></g><g fill-opacity=".33"><use xlink:href="#7871c4dbg" x="83.95875" y="656.556"/><use xlink:href="#7871c4dbaJ" x="90.62575" y="656.556"/><use xlink:href="#7871c4dbag" x="97.29275" y="656.556"/><use xlink:href="#7871c4dbaw" x="103.95975" y="656.556"/><use xlink:href="#7871c4dbj" x="110.62675" y="656.556"/><use xlink:href="#7871c4dbaK" x="117.29375" y="656.556"/><use xlink:href="#7871c4dbaL" x="123.96075" y="656.556"/><use xlink:href="#7871c4dbu" x="130.62775" y="656.556"/><use xlink:href="#7871c4dbav" x="137.29475" y="656.556"/></g><g><use xlink:href="#7871c4dbaM" x="267.70875" y="619.148"/><use xlink:href="#7871c4dbaN" x="291.06375" y="619.148"/><use xlink:href="#7871c4dbaO" x="313.11375" y="619.148"/><use xlink:href="#7871c4dbaP" x="335.52375" y="619.148"/><use xlink:href="#7871c4dbaQ" x="359.28375" y="619.148"/><use xlink:href="#7871c4dbaR" x="381.69375" y="619.148"/></g><g fill-opacity=".33"><use xlink:href="#7871c4dbg" x="282.70792" y="656.556"/><use xlink:href="#7871c4dbaJ" x="289.37492" y="656.556"/><use xlink:href="#7871c4dbag" x="296.04192" y="656.556"/><use xlink:href="#7871c4dbaw" x="302.70892" y="656.556"/><use xlink:href="#7871c4dbj" x="309.37592" y="656.556"/><use xlink:href="#7871c4dbaK" x="316.04292" y="656.556"/><use xlink:href="#7871c4dbaL" x="322.70992" y="656.556"/><use xlink:href="#7871c4dbu" x="329.37692" y="656.556"/><use xlink:href="#7871c4dbav" x="336.04392" y="656.556"/><use xlink:href="#7871c4dbg" x="342.71092" y="656.556"/><use xlink:href="#7871c4dbr" x="349.37792" y="656.556"/><use xlink:href="#7871c4dbs" x="356.04492" y="656.556"/><use xlink:href="#7871c4dbt" x="362.71192" y="656.556"/><use xlink:href="#7871c4dbu" x="369.37892" y="656.556"/><use xlink:href="#7871c4dbj" x="376.04592" y="656.556"/><use xlink:href="#7871c4dbv" x="382.71292" y="656.556"/></g><g><use xlink:href="#7871c4dbaS" x="40.63125" y="729.296"/><use xlink:href="#7871c4dbaT" x="66.64125" y="729.296"/><use xlink:href="#7871c4dbaU" x="90.85125" y="729.296"/><use xlink:href="#7871c4dbaV" x="115.28625" y="729.296"/><use xlink:href="#7871c4dbaW" x="139.58625" y="729.296"/><use xlink:href="#7871c4dbaX" x="162.17625" y="729.296"/></g><g fill-opacity=".33"><use xlink:href="#7871c4dbg" x="97.29208" y="766.704"/><use xlink:href="#7871c4dbaY" x="103.95908" y="766.704"/><use xlink:href="#7871c4dbaL" x="110.62608" y="766.704"/><use xlink:href="#7871c4dbu" x="117.29308" y="766.704"/><use xlink:href="#7871c4dbav" x="123.96008" y="766.704"/></g><g><use xlink:href="#7871c4dbaZ" x="265.97625" y="729.296"/><use xlink:href="#7871c4dbba" x="289.46625" y="729.296"/><use xlink:href="#7871c4dbbb" x="312.28125" y="729.296"/><use xlink:href="#7871c4dbbc" x="335.27625" y="729.296"/><use xlink:href="#7871c4dbbd" x="359.80125" y="729.296"/><use xlink:href="#7871c4dbbe" x="382.84125" y="729.296"/></g><g fill-opacity=".33"><use xlink:href="#7871c4dbg" x="296.04125" y="766.704"/><use xlink:href="#7871c4dbaY" x="302.70825" y="766.704"/><use xlink:href="#7871c4dbaL" x="309.37525" y="766.704"/><use xlink:href="#7871c4dbu" x="316.04225" y="766.704"/><use xlink:href="#7871c4dbav" x="322.70925" y="766.704"/><use xlink:href="#7871c4dbg" x="329.37625" y="766.704"/><use xlink:href="#7871c4dbr" x="336.04325" y="766.704"/><use xlink:href="#7871c4dbs" x="342.71025" y="766.704"/><use xlink:href="#7871c4dbt" x="349.37725" y="766.704"/><use xlink:href="#7871c4dbu" x="356.04425" y="766.704"/><use xlink:href="#7871c4dbj" x="362.71125" y="766.704"/><use xlink:href="#7871c4dbv" x="369.37825" y="766.704"/></g><g><use xlink:href="#7871c4dbbf" x="37.84125" y="839.444"/><use xlink:href="#7871c4dbbg" x="63.76125" y="839.444"/><use xlink:href="#7871c4dbbh" x="89.27625" y="839.444"/><use xlink:href="#7871c4dbbi" x="114.56625" y="839.444"/><use xlink:href="#7871c4dbbj" x="140.57625" y="839.444"/><use xlink:href="#7871c4dbbk" x="164.20125" y="839.444"/></g><g fill-opacity=".33"><use xlink:href="#7871c4dbg" x="80.62542" y="876.852"/><use xlink:href="#7871c4dbC" x="87.29242" y="876.852"/><use xlink:href="#7871c4dbD" x="93.95942" y="876.852"/><use xlink:href="#7871c4dbs" x="100.62642" y="876.852"/><use xlink:href="#7871c4dbE" x="107.29342" y="876.852"/><use xlink:href="#7871c4dbt" x="113.96042" y="876.852"/><use xlink:href="#7871c4dbaK" x="120.62742" y="876.852"/><use xlink:href="#7871c4dbaL" x="127.29442" y="876.852"/><use xlink:href="#7871c4dbu" x="133.96142" y="876.852"/><use xlink:href="#7871c4dbav" x="140.62842" y="876.852"/></g><g><use xlink:href="#7871c4dbbl" x="262.78125" y="839.444"/><use xlink:href="#7871c4dbbm" x="286.40625" y="839.444"/><use xlink:href="#7871c4dbbn" x="310.70625" y="839.444"/><use xlink:href="#7871c4dbbo" x="334.78125" y="839.444"/><use xlink:href="#7871c4dbbp" x="360.70125" y="839.444"/><use xlink:href="#7871c4dbbq" x="384.91125" y="839.444"/></g><g fill-opacity=".33"><use xlink:href="#7871c4dbg" x="279.37458" y="876.852"/><use xlink:href="#7871c4dbC" x="286.04158" y="876.852"/><use xlink:href="#7871c4dbD" x="292.70858" y="876.852"/><use xlink:href="#7871c4dbs" x="299.37558" y="876.852"/><use xlink:href="#7871c4dbE" x="306.04258" y="876.852"/><use xlink:href="#7871c4dbt" x="312.70958" y="876.852"/><use xlink:href="#7871c4dbaK" x="319.37658" y="876.852"/><use xlink:href="#7871c4dbaL" x="326.04358" y="876.852"/><use xlink:href="#7871c4dbu" x="332.71058" y="876.852"/><use xlink:href="#7871c4dbav" x="339.37758" y="876.852"/><use xlink:href="#7871c4dbg" x="346.04458" y="876.852"/><use xlink:href="#7871c4dbr" x="352.71158" y="876.852"/><use xlink:href="#7871c4dbs" x="359.37858" y="876.852"/><use xlink:href="#7871c4dbt" x="366.04558" y="876.852"/><use xlink:href="#7871c4dbu" x="372.71258" y="876.852"/><use xlink:href="#7871c4dbj" x="379.37958" y="876.852"/><use xlink:href="#7871c4dbv" x="386.04658" y="876.852"/></g><g><use xlink:href="#7871c4dbbr" x="34.73625" y="949.592"/><use xlink:href="#7871c4dbbs" x="60.56625" y="949.592"/><use xlink:href="#7871c4dbbt" x="87.52125" y="949.592"/><use xlink:href="#7871c4dbbu" x="113.75625" y="949.592"/><use xlink:href="#7871c4dbbv" x="141.65625" y="949.592"/><use xlink:href="#7871c4dbbw" x="166.40625" y="949.592"/></g><g fill-opacity=".33"><use xlink:href="#7871c4dbg" x="93.95875" y="987"/><use xlink:href="#7871c4dbaY" x="100.62575" y="987"/><use xlink:href="#7871c4dbu" x="107.29275" y="987"/><use xlink:href="#7871c4dbt" x="113.95975" y="987"/><use xlink:href="#7871c4dbv" x="120.62675" y="987"/><use xlink:href="#7871c4dbbx" x="127.29375" y="987"/></g><g><use xlink:href="#7871c4dbby" x="259.15875" y="949.592"/><use xlink:href="#7871c4dbbz" x="283.00875" y="949.592"/><use xlink:href="#7871c4dbbA" x="308.97375" y="949.592"/><use xlink:href="#7871c4dbbB" x="334.26375" y="949.592"/><use xlink:href="#7871c4dbbC" x="361.75875" y="949.592"/><use xlink:href="#7871c4dbbD" x="387.27375" y="949.592"/></g><g fill-opacity=".33"><use xlink:href="#7871c4dbg" x="292.70792" y="987"/><use xlink:href="#7871c4dbaY" x="299.37492" y="987"/><use xlink:href="#7871c4dbu" x="306.04192" y="987"/><use xlink:href="#7871c4dbt" x="312.70892" y="987"/><use xlink:href="#7871c4dbv" x="319.37592" y="987"/><use xlink:href="#7871c4dbbx" x="326.04292" y="987"/><use xlink:href="#7871c4dbg" x="332.70992" y="987"/><use xlink:href="#7871c4dbr" x="339.37692" y="987"/><use xlink:href="#7871c4dbs" x="346.04392" y="987"/><use xlink:href="#7871c4dbt" x="352.71092" y="987"/><use xlink:href="#7871c4dbu" x="359.37792" y="987"/><use xlink:href="#7871c4dbj" x="366.04492" y="987"/><use xlink:href="#7871c4dbv" x="372.71192" y="987"/></g></svg>