<?xml version='1.0' encoding='UTF-8'?>
<svg xmlns="http://www.w3.org/2000/svg" xmlns:xlink="http://www.w3.org/1999/xlink" width="310px" height="280px" viewBox="0 0 310 280" x="0px" y="0px" enable-background="new 0 0 310 280"><defs><symbol overflow="visible" id="ce53a9e7a"><path d="M2.25-23.6c0 5.41 3.7 7.57 7.78 9.87 2.55 1.45 4.61 2.89 4.61 5.43 0 2.49-1.97 3.78-4.8 3.78-2.15 0-4.6-.67-6.43-1.67L1.39-1.92C3.13-.77 6.1.58 9.94.58c6.33 0 10.56-3.55 10.56-9.5 0-5.53-3.94-7.6-7.92-9.9-2.4-1.38-4.56-2.77-4.56-5.32 0-2.55 2.15-3.5 4.8-3.5 1.96 0 3.84.47 5.32 1.05l1.64-4.27a15.34 15.34 0 00-7.3-1.87c-5.32 0-10.23 2.82-10.23 9.12zm0 0"/></symbol><symbol overflow="visible" id="ce53a9e7b"><path d="M20.73-23.05h-5.18l-5.57 8.6H8.3v-21.6l-5.47.1V0H8.3v-9.6h1.78L15.55 0h5.62c-.14-.9-.39-1.69-.76-2.36l-6.2-10.03 5.62-8.3a5.4 5.4 0 00.9-2.36zm0 0"/></symbol><symbol overflow="visible" id="ce53a9e7c"><path d="M1.83-11.1C1.83-4.7 4.89.59 10.93.59c6.16 0 9.57-5.67 9.57-12.3 0-6.33-3.03-11.89-9.08-11.89-6.1 0-9.6 5.95-9.6 12.52zm13.14 0c0 1.97-.24 4.38-1.28 5.87a2.8 2.8 0 01-2.36 1.25c-2.78 0-3.94-3.36-3.94-7.74 0-2.34.34-4.75 1.3-6.14.39-.58 1.06-1.2 2.36-1.2 2.73 0 3.92 3.51 3.92 7.97zm0 0"/></symbol><symbol overflow="visible" id="ce53a9e7d"><path d="M8.2-36.05l-5.47.1v31.83C2.73-1.2 4.43.43 6.86.43c1.69 0 3.17-.3 4.66-.92l-.86-4.13c-.58.14-1.02.24-1.4.24-.71 0-1.06-.57-1.06-1.63zm0 0"/></symbol><symbol overflow="visible" id="ce53a9e7e"><path d="M4.52-11.23a6.6 6.6 0 00-3.13 5.71C1.4-1.69 3.84.44 6.95.44c2.22 0 4.38-1.11 6.16-2.9l.86 2.74 4.31-.62c-.23-4.64-.33-6.57-.33-8.3v-7.44c0-4.95-2.06-7.39-7.01-7.39-3.64 0-6.52 1.49-8.78 3.4l1.82 3.32a10.84 10.84 0 015.86-2.06c1.93 0 2.64 1.1 2.64 4.51v.82c-3.65.42-6.25 1.04-7.96 2.25zm2.01 4.89c0-1.05.28-1.77 1-2.25.58-.49 1.92-.86 4.95-1.16v3.94C11.18-4.56 9.9-3.8 8.6-3.8c-1.43 0-2.06-.9-2.06-2.54zm0 0"/></symbol><symbol overflow="visible" id="ce53a9e7f"><path d="M6.86-23.33l-4.36.58c.28 4.75.38 6.63.38 8.34V0h5.48v-15.45a4.74 4.74 0 014.22-2.16c.76 0 1.34.1 2.06.23l.95-5.23a5.2 5.2 0 00-2.78-.86c-2.1 0-3.64 1.53-4.8 3.99zm0 0"/></symbol><symbol overflow="visible" id="ce53a9e7h"><path d="M6.86-23.33l-4.36.58c.33 4.7.38 6.63.38 8.34V0h5.48v-17.47a6.01 6.01 0 013.83-1.55c1.87 0 2.4 1.02 2.4 3.75V0h5.52v-16.94c0-4.37-2.02-6.67-6-6.67-2.6 0-4.66 1-6.42 2.78zm0 0"/></symbol><symbol overflow="visible" id="ce53a9e7i"><path d="M2.2-16.27c0 3.46 2.17 4.94 4.7 6.24 2.37 1.15 4.08 2.01 4.08 3.69 0 1.4-1.14 2.36-3.2 2.36-1.44 0-2.73-.54-4.42-1.63L1.39-2A11.12 11.12 0 008.3.43c4.82 0 8.18-2.99 8.18-7.3 0-3.51-2.11-5.1-4.9-6.44-2.6-1.25-3.84-1.92-3.84-3.6 0-1.15.82-2.12 2.64-2.12 1.29 0 2.44.49 3.74 1.2l2.02-3.4a9.32 9.32 0 00-6-2.25c-4.27 0-7.93 2.78-7.93 7.2zm0 0"/></symbol><symbol overflow="visible" id="ce53a9e7j"><path d="M4.02.17c2.01 0 3.15-.89 3.15-2.4 0-1.35-.8-1.93-2.33-2.24L3.67-4.7c-1.01-.2-1.44-.58-1.44-1.35 0-.83.66-1.3 1.88-1.3 1.17 0 1.75.4 1.94 1.46L7.15-6c-.2-1.53-1.21-2.28-3-2.28-1.96 0-3.04.87-3.04 2.31 0 1.28.75 1.99 2.2 2.28l1.22.24c1.02.2 1.52.5 1.52 1.3 0 .9-.72 1.4-2 1.4-1.33 0-1.94-.47-2.11-1.48l-1.11.1C1-.6 1.98.17 4.02.17zm0 0"/></symbol><symbol overflow="visible" id="ce53a9e7k"><path d="M6.92-6.02H5.55L2.78-3.45H2.7v-5.13H1.56V0H2.7v-2.78h.08L5.64 0h1.5L3.88-3.22zm0 0"/></symbol><symbol overflow="visible" id="ce53a9e7l"><path d="M4 .17c1.95 0 3-1.14 3-3.19 0-2.03-1.05-3.17-3-3.17S1-5.05 1-3.02C1-.97 2.05.18 4 .18zm0-.92c-1.28 0-1.83-.72-1.83-2.27 0-1.53.55-2.25 1.83-2.25s1.83.72 1.83 2.25C5.83-1.47 5.28-.75 4-.75zm0 0"/></symbol><symbol overflow="visible" id="ce53a9e7m"><path d="M4.7-8.58H1.64v.92h1.92v6.74h-2.2V0h5.47v-.92H4.7zm0 0"/></symbol><symbol overflow="visible" id="ce53a9e7n"><path d="M3.4.17C4.51.17 5.2-.3 5.57-.97h.08l.12.97h.9v-4.05c0-1.48-.82-2.15-2.54-2.15-1.73 0-2.44.75-2.6 1.9l1.1.11c.13-.7.52-1.1 1.47-1.1 1.01 0 1.47.37 1.47 1.23v.42l-2.17.23c-1.49.18-2.08.82-2.08 1.86 0 1.13.76 1.72 2.06 1.72zm.29-.92c-.81 0-1.2-.33-1.2-.9 0-.52.32-.87 1.2-.96l1.89-.23v.48c0 .95-.75 1.61-1.9 1.61zm0 0"/></symbol><symbol overflow="visible" id="ce53a9e7o"><path d="M6.1-6.19c-1.12 0-1.9.52-2.3 1.57h-.08l-.11-1.4H1.27v.91h1.32v4.19H1.14V0H5.9v-.92H3.73v-1.75c0-1.64.7-2.46 2.2-2.46.48 0 .91.08 1.32.2l.17-1.05c-.39-.13-.83-.2-1.33-.2zm0 0"/></symbol><symbol overflow="visible" id="ce53a9e7q"><path d="M2.6 0v-3.22c0-1.17.71-1.94 1.76-1.94.87 0 1.26.46 1.26 1.47V0h1.15v-3.97c0-1.45-.7-2.22-2-2.22-1.11 0-1.79.55-2.13 1.3h-.08l-.14-1.13h-.97V0zm0 0"/></symbol><symbol overflow="visible" id="ce53a9e7r"><path d="M4.02.19c1.7 0 2.65-.72 2.65-1.88 0-1.06-.65-1.45-1.76-1.67L3.6-3.6c-.81-.16-1.03-.37-1.03-.87 0-.6.45-.88 1.4-.88 1 0 1.43.31 1.52.95l1.1-.06c-.16-1.2-.97-1.75-2.63-1.75-1.61 0-2.5.63-2.5 1.8 0 .97.53 1.47 1.81 1.72l1.25.23c.67.14 1.03.3 1.03.88 0 .62-.53.93-1.53.93-1.16 0-1.62-.32-1.7-1.04l-1.1.07C1.3-.43 2.17.2 4.02.2zm0 0"/></symbol><symbol overflow="visible" id="ce53a9e7s"><path d="M1.1-8.1V0h1.18v-2.72h2.03c1.9 0 2.86-.8 2.86-2.64v-.17c0-1.81-.97-2.58-2.83-2.58zM6-5.37C6-4.1 5.48-3.6 4.1-3.6H2.29v-3.58h1.83c1.37 0 1.89.4 1.89 1.66zm0 0"/></symbol><symbol overflow="visible" id="ce53a9e7t"><path d="M7.1-8.1H1.32V0h5.8v-.95H2.47v-2.72h3.87v-.9H2.47v-2.59H7.1zm0 0"/></symbol><symbol overflow="visible" id="ce53a9e7u"><path d="M4.1.17c2 0 2.96-1 3.23-2.78l-1.14-.1c-.22 1.29-.8 1.9-2.07 1.9-1.51 0-2.17-1.13-2.17-3.24 0-2.1.66-3.25 2.17-3.25 1.29 0 1.8.58 2.07 1.9l1.12-.12c-.26-1.76-1.14-2.76-3.15-2.76C1.84-8.28.75-6.7.75-4.05.75-1.4 1.85.17 4.11.17zm0 0"/></symbol><symbol overflow="visible" id="ce53a9e7v"><path d="M1.94 0v-3.47c0-.97.2-1.69.87-1.69.49 0 .66.36.66 1.07V0H4.6v-3.47c0-.97.22-1.69.87-1.69.49 0 .68.35.68 1.07V0H7.3v-4.34c0-1.11-.35-1.85-1.35-1.85-.75 0-1.14.49-1.3 1.07h-.09c-.1-.61-.51-1.07-1.28-1.07-.73 0-1.12.49-1.28 1.07h-.08l-.3-.9H.8V0zm0 0"/></symbol><symbol overflow="visible" id="ce53a9e7w"><path d="M2.47 2.27V-1h.06c.35.69.95 1.17 2.13 1.17 1.8 0 2.62-1.19 2.62-3.19 0-1.98-.83-3.17-2.6-3.17-1.18 0-1.8.53-2.15 1.27h-.08l-.15-1.1h-.97v8.29zm1.8-3.05C3-.78 2.44-1.75 2.44-3.02c0-1.26.56-2.21 1.83-2.21 1.34 0 1.84.71 1.84 2.21S5.6-.78 4.27-.78zm0 0"/></symbol><symbol overflow="visible" id="ce53a9e7x"><path d="M6.9-2.69v-.5C6.9-5.13 5.82-6.2 4-6.2 2.17-6.2 1.06-5 1.06-2.98c0 2.06 1.08 3.15 3 3.15C5.75.17 6.52-.5 6.8-1.64l-1.08-.13c-.24.75-.7 1.07-1.64 1.07-1.11 0-1.81-.64-1.88-1.99zM4-5.33c1.14 0 1.75.61 1.8 1.88H2.22c.1-1.28.7-1.88 1.78-1.88zm0 0"/></symbol><symbol overflow="visible" id="ce53a9e7y"><path d="M3.42.17c1.13 0 1.77-.5 2.1-1.26h.07L5.75 0h.92v-8.58H5.53v3.56h-.08c-.34-.75-1.04-1.17-2.01-1.17C1.64-6.19.72-5 .72-3.02c0 2 .92 3.2 2.7 3.2zm.27-.95c-1.2 0-1.8-.74-1.8-2.22 0-1.52.6-2.23 1.78-2.23 1.35 0 1.9.95 1.9 2.23 0 1.27-.55 2.22-1.88 2.22zm0 0"/></symbol></defs><use xlink:href="#ce53a9e7a" x="51.368" y="145"/><use xlink:href="#ce53a9e7b" x="73.496" y="145"/><use xlink:href="#ce53a9e7c" x="95.528" y="145"/><use xlink:href="#ce53a9e7d" x="117.848" y="145"/><use xlink:href="#ce53a9e7e" x="129.896" y="145"/><use xlink:href="#ce53a9e7f" x="150.584" y="145"/><use xlink:href="#ce53a9e7g" x="166.712" y="145"/><use xlink:href="#ce53a9e7a" x="174.872" y="145"/><use xlink:href="#ce53a9e7e" x="197" y="145"/><use xlink:href="#ce53a9e7h" x="217.688" y="145"/><use xlink:href="#ce53a9e7i" x="240.44" y="145"/><g fill-opacity=".33"><use xlink:href="#ce53a9e7j" x="55" y="230"/><use xlink:href="#ce53a9e7k" x="63.0004" y="230"/><use xlink:href="#ce53a9e7l" x="71.0008" y="230"/><use xlink:href="#ce53a9e7m" x="79.0012" y="230"/><use xlink:href="#ce53a9e7n" x="87.0016" y="230"/><use xlink:href="#ce53a9e7o" x="95.002" y="230"/><use xlink:href="#ce53a9e7p" x="103.0024" y="230"/><use xlink:href="#ce53a9e7j" x="111.0028" y="230"/><use xlink:href="#ce53a9e7n" x="119.0032" y="230"/><use xlink:href="#ce53a9e7q" x="127.0036" y="230"/><use xlink:href="#ce53a9e7r" x="135.004" y="230"/><use xlink:href="#ce53a9e7p" x="143.0044" y="230"/><use xlink:href="#ce53a9e7s" x="151.0048" y="230"/><use xlink:href="#ce53a9e7t" x="159.0052" y="230"/><use xlink:href="#ce53a9e7p" x="167.0056" y="230"/><use xlink:href="#ce53a9e7u" x="175.006" y="230"/><use xlink:href="#ce53a9e7l" x="183.0064" y="230"/><use xlink:href="#ce53a9e7v" x="191.0068" y="230"/><use xlink:href="#ce53a9e7w" x="199.0072" y="230"/><use xlink:href="#ce53a9e7o" x="207.0076" y="230"/><use xlink:href="#ce53a9e7x" x="215.008" y="230"/><use xlink:href="#ce53a9e7r" x="223.0084" y="230"/><use xlink:href="#ce53a9e7r" x="231.0088" y="230"/><use xlink:href="#ce53a9e7x" x="239.0092" y="230"/><use xlink:href="#ce53a9e7y" x="247.0096" y="230"/></g></svg>