<?xml version='1.0' encoding='UTF-8'?>
<svg xmlns="http://www.w3.org/2000/svg" xmlns:xlink="http://www.w3.org/1999/xlink" width="600px" height="300px" viewBox="0 0 600 300" x="0px" y="0px" enable-background="new 0 0 600 300"><defs><symbol overflow="visible" id="008f6a76a"><path d="M12.9-33.36l-10.09 12 .13 1.44L12.9-7.8l3.04-2.04-8.15-10.8 8.1-10.73zm10.91 0l-10.08 12 .13 1.44L23.8-7.8l3.07-2.04-8.16-10.8 8.1-10.73zm0 0"/></symbol><symbol overflow="visible" id="008f6a76b"><path d="M17.77-37.8c0-1.98-1.27-3.25-3.2-3.25-2.02 0-3.35 1.4-3.35 3.55 0 1.86 1.26 3.13 3.19 3.13 2.03 0 3.36-1.44 3.36-3.43zm4.92 35.88l-1.57-3.24a16.74 16.74 0 01-6.96 1.68c-3.79.06-6.07-1.74-6.07-4.93 0-3.04 1.93-5.64 4.04-7.8 2.51-2.5 5.09-5.27 5.09-10.2 0-1.43-.24-2.39-.6-3.59l-4.03.19c.07.65.07 1.54.07 2.39.06 4.26-2.29 7.14-4.74 9.72-2.34 2.51-4.69 5.4-4.69 9.65 0 5.9 4.33 8.7 9.97 8.7 3.43 0 6.72-.88 9.49-2.57zm0 0"/></symbol><symbol overflow="visible" id="008f6a76c"><path d="M3.3-19.56C3.3-8.94 8.8-.13 18.78.72c3.3 6.6 7.63 9.55 12.9 9.55 1.62 0 4.02-.32 5.82-.91l-.72-3.9c-1.2.3-2.47.48-3.78.48-3.66 0-6.95-1.32-9.48-5.4 9.78-1.68 14.21-11.63 14.21-21.18 0-11.22-6.1-20.4-17.09-20.4C8.7-41.05 3.3-30.07 3.3-19.57zm29.4-.6c0 5.22-1.39 11.04-5.4 14.35a10.16 10.16 0 01-6.72 2.33c-7.92 0-12.24-7.44-12.24-16.57 0-5.22 1.5-11.03 5.46-14.32a10.08 10.08 0 016.72-2.35c7.92 0 12.18 7.44 12.18 16.56zm0 0"/></symbol><symbol overflow="visible" id="008f6a76d"><path d="M33-40.2h-4.8v25.68c0 4.02-.9 6.96-3 8.94a8.88 8.88 0 01-5.93 2.16c-7.4 0-9.25-4.56-9.25-11.94V-40.2h-4.8v25.92C5.22-4.08 10.08.84 18.66.84 29.22.84 33-6.06 33-15.78zm0 0"/></symbol><symbol overflow="visible" id="008f6a76e"><path d="M24.42-52.92L12-47.82l1.02 3.24 12.84-4.01v-.25zm4.14 48.78H10.38v-14.34h14.64v-4.2H10.38v-13.38h18l.18-4.14H5.64V0H28.7zm0 0"/></symbol><symbol overflow="visible" id="008f6a76f"><path d="M2.16-38.45l1.56 3.23a16.7 16.7 0 016.97-1.69c3.76-.04 6.04 1.75 6.04 4.93 0 3.06-1.92 5.64-4.01 7.8-2.52 2.52-5.1 5.27-5.1 10.2 0 1.43.24 2.4.6 3.6l4.01-.18c-.04-.66-.04-1.56-.04-2.4-.06-4.26 2.26-7.13 4.73-9.73 2.35-2.51 4.67-5.39 4.67-9.65 0-5.88-4.3-8.7-9.95-8.7-3.42 0-6.72.9-9.48 2.59zM7.08-2.58C7.08-.59 8.34.66 10.27.66c2.03 0 3.36-1.38 3.36-3.54 0-1.85-1.27-3.12-3.2-3.12-2.02 0-3.35 1.44-3.35 3.42zm0 0"/></symbol><symbol overflow="visible" id="008f6a76g"><path d="M6.13-33.36l-2.94 1.98 8.1 10.74-8.16 10.8 3 2.04 9.95-12.12.12-1.44zm10.92 0l-2.96 1.98 8.11 10.74-8.15 10.8 3 2.04L27-19.92l.13-1.44zm0 0"/></symbol><symbol overflow="visible" id="008f6a76h"><path d="M3.83 0v-5.95H6.2v-.82H.45v.82h2.4V0zm0 0"/></symbol><symbol overflow="visible" id="008f6a76i"><path d="M5.75-2.23v-.43c0-1.6-.9-2.51-2.42-2.51S.87-4.16.87-2.48c0 1.71.91 2.62 2.5 2.62 1.43 0 2.07-.56 2.29-1.52l-.9-.09c-.18.61-.59.9-1.35.9-.94 0-1.52-.54-1.58-1.66zm-2.4-2.2c.93 0 1.43.5 1.48 1.55H1.84c.08-1.07.6-1.56 1.5-1.56zm0 0"/></symbol><symbol overflow="visible" id="008f6a76j"><path d="M1.83 0l1.42-2h.06l1.46 2H5.8L4-2.53l1.78-2.49H4.8L3.42-3.08h-.08l-1.4-1.94H.89l1.78 2.49L.84 0zm0 0"/></symbol><symbol overflow="visible" id="008f6a76k"><path d="M5.52-4.25v-.77H3.17v-1.56h-.81l-.14 1.56H.75v.77h1.47v2.4c0 1.3.48 1.94 1.84 1.94C4.6.1 5.14 0 5.55-.14L5.4-.91c-.32.13-.72.2-1.13.2-.8 0-1.1-.37-1.1-1.23v-2.31zm0 0"/></symbol><symbol overflow="visible" id="008f6a76l"><path d="M3.33-3.42c.47 0 .8-.27.8-.8 0-.51-.33-.8-.8-.8-.47 0-.8.29-.8.8 0 .53.33.8.8.8zm0 3.5c.47 0 .8-.27.8-.78 0-.53-.33-.82-.8-.82-.47 0-.8.29-.8.82 0 .51.33.78.8.78zm0 0"/></symbol><symbol overflow="visible" id="008f6a76n"><path d="M3.27-1.1L1.25-2.56v-.08l2.02-1.45v-.86L.45-3v.81L3.27-.23zm2.95 0L4.19-2.56v-.08l2.03-1.45v-.86L3.39-3v.81L6.22-.23zm0 0"/></symbol><symbol overflow="visible" id="008f6a76o"><path d="M4.06-5.14c-.34 0-.6.2-.6.58 0 .37.26.58.6.58.36 0 .6-.2.6-.58 0-.38-.24-.58-.6-.58zm-.4 1.84v.52c0 .67-.47 1-.94 1.36-.49.37-1 .78-1 1.7 0 1.13.76 1.8 2.19 1.8 1.53 0 2.26-.66 2.45-2l-.92-.1C5.28.9 4.92 1.33 3.9 1.33c-.82 0-1.25-.4-1.25-1.08 0-.6.42-.94.87-1.28.47-.4.99-.8.99-1.66v-.6zm0 0"/></symbol><symbol overflow="visible" id="008f6a76p"><path d="M6.1-3.38c0-2.26-.87-3.53-2.77-3.53S.58-5.64.58-3.37c0 2.25.86 3.51 2.75 3.51.39 0 .73-.05 1.03-.16l.56.99h1.03l-.8-1.44c.65-.6.94-1.58.94-2.9zM3.3-.67c-1.25 0-1.73-.94-1.73-2.7 0-1.76.5-2.71 1.75-2.71s1.75.95 1.75 2.71c0 .94-.14 1.65-.47 2.11l-.5-.89H3.08l.8 1.41c-.18.06-.35.08-.57.08zm0 0"/></symbol><symbol overflow="visible" id="008f6a76q"><path d="M3.33.14c1.7 0 2.51-.86 2.51-2.69v-4.22h-.98v4.2c0 1.41-.47 1.9-1.53 1.9S1.8-1.16 1.8-2.57v-4.2H.8v4.22c0 1.83.81 2.7 2.52 2.7zm0 0"/></symbol><symbol overflow="visible" id="008f6a76r"><path d="M3.86-7.31l1.31-1.82H4.2L3.1-7.3zm2.06.54H1.1V0h4.83v-.8H2.06v-2.26h3.22v-.75H2.06v-2.16h3.86zm0 0"/></symbol><symbol overflow="visible" id="008f6a76s"><path d="M3.7-1.77v-.51c0-.67.47-1 .9-1.33.54-.4 1.06-.81 1.06-1.72 0-1.14-.77-1.81-2.2-1.81-1.52 0-2.26.66-2.44 2l.92.1c.15-.91.51-1.35 1.51-1.35.83 0 1.25.39 1.25 1.08 0 .6-.4.92-.84 1.26-.48.4-1 .8-1 1.67v.61zM3.3.08c.34 0 .6-.2.6-.58 0-.38-.26-.58-.6-.58-.35 0-.58.2-.58.58 0 .38.23.58.58.58zm0 0"/></symbol><symbol overflow="visible" id="008f6a76t"><path d="M3.27-2.19V-3L.45-4.94v.86l2.02 1.46v.06L.45-1.11v.88zm2.95 0V-3L3.39-4.94v.86l2.03 1.46v.06L3.4-1.11v.88zm0 0"/></symbol><symbol overflow="visible" id="008f6a76u"><path d="M5.95-6.77H1.1V0h.99v-2.92H5.3v-.77H2.08v-2.26h3.87zm0 0"/></symbol><symbol overflow="visible" id="008f6a76v"><path d="M2.83.14c.94 0 1.5-.39 1.81-.95h.08l.1.81h.76v-3.38c0-1.23-.69-1.8-2.13-1.8-1.43 0-2.03.65-2.18 1.6l.93.1c.11-.6.44-.93 1.22-.93.85 0 1.22.32 1.22 1.04v.34l-1.81.2C1.6-2.7 1.1-2.17 1.1-1.28c0 .92.64 1.42 1.72 1.42zm.25-.77c-.67 0-1.02-.28-1.02-.74 0-.44.28-.72 1-.82l1.58-.19v.41c0 .8-.6 1.34-1.56 1.34zm0 0"/></symbol><symbol overflow="visible" id="008f6a76w"><path d="M2.73.14c.9 0 1.43-.45 1.74-1.08h.06l.13.94h.8v-5.02h-.94v2.7c0 .98-.57 1.62-1.46 1.62-.75 0-1.1-.4-1.1-1.22v-3.1h-.93v3.32c0 1.17.55 1.84 1.7 1.84zm0 0"/></symbol><symbol overflow="visible" id="008f6a76x"><path d="M5.08-5.16c-.94 0-1.58.43-1.9 1.3h-.09l-.07-1.16H1.05v.77h1.1v3.48H.96V0h3.96v-.77H3.1v-1.46c0-1.36.6-2.05 1.83-2.05.4 0 .76.08 1.1.17l.15-.87c-.33-.11-.7-.18-1.11-.18zm0 0"/></symbol><symbol overflow="visible" id="008f6a76y"><path d="M3.42.14C5.1.14 5.9-.69 6.11-2.17l-.95-.1C4.96-1.19 4.5-.69 3.44-.69c-1.27 0-1.81-.94-1.81-2.69s.54-2.7 1.8-2.7c1.09 0 1.5.49 1.73 1.58l.93-.1c-.21-1.46-.95-2.3-2.62-2.3C1.53-6.9.62-5.6.62-3.38c0 2.2.91 3.51 2.8 3.51zm0 0"/></symbol><symbol overflow="visible" id="008f6a76z"><path d="M3.36.16c1.4 0 2.2-.6 2.2-1.57 0-.89-.54-1.22-1.47-1.39L3-3c-.67-.14-.86-.33-.86-.73 0-.5.4-.74 1.17-.74.83 0 1.19.27 1.27.8l.9-.05c-.12-1-.8-1.47-2.17-1.47-1.34 0-2.1.53-2.1 1.5 0 .81.45 1.22 1.52 1.44l1.04.2c.56.11.87.24.87.72 0 .52-.45.78-1.28.78-.95 0-1.36-.28-1.42-.87l-.9.06C1.07-.36 1.8.16 3.35.16zm0 0"/></symbol><symbol overflow="visible" id="008f6a76A"><path d="M5.33-2.2v-.75h-4v.75zm0 0"/></symbol><symbol overflow="visible" id="008f6a76B"><path d="M2.16 0v-2.67c0-.99.59-1.63 1.46-1.63.74 0 1.07.38 1.07 1.22V0h.95v-3.31c0-1.2-.56-1.85-1.67-1.85-.92 0-1.49.46-1.77 1.08h-.06l-.12-.94H1.2V0zm0 0"/></symbol><symbol overflow="visible" id="008f6a76C"><path d="M3.58-5.81c.42 0 .72-.22.72-.67 0-.44-.3-.68-.72-.68-.44 0-.72.24-.72.68 0 .45.28.67.72.67zm.5.8H1.52v.76h1.6v3.48h-1.8V0h4.46v-.77h-1.7zm0 0"/></symbol><symbol overflow="visible" id="008f6a76D"><path d="M3.9 0l2-5.02h-.96L3.4-.94h-.07L1.8-5.02H.77L2.78 0zm0 0"/></symbol><symbol overflow="visible" id="008f6a76E"><path d="M4.63-6.5c.45 0 .98.08 1.39.2l.2-.72a5.3 5.3 0 00-1.64-.26c-1.52 0-2.16.56-2.16 1.87v.4H.9v.76h1.53V0h.94v-4.25h2.53v-.77H3.36v-.3c0-.84.33-1.18 1.27-1.18zm0 0"/></symbol><symbol overflow="visible" id="008f6a76F"><path d="M3.33.14c1.62 0 2.5-.95 2.5-2.66 0-1.68-.88-2.64-2.5-2.64-1.63 0-2.5.96-2.5 2.64 0 1.7.87 2.66 2.5 2.66zm0-.77c-1.06 0-1.52-.6-1.52-1.89 0-1.28.46-1.87 1.52-1.87 1.08 0 1.53.6 1.53 1.87 0 1.29-.45 1.9-1.53 1.9zm0 0"/></symbol><symbol overflow="visible" id="008f6a76G"><path d="M1.63 0v-2.9c0-.8.15-1.4.71-1.4.41 0 .55.3.55.88V0h.95v-2.9c0-.8.18-1.4.72-1.4.4 0 .57.3.57.88V0h.95v-3.63c0-.92-.28-1.53-1.11-1.53-.63 0-.95.41-1.1.9h-.06c-.1-.52-.44-.9-1.08-.9-.6 0-.93.41-1.06.9H1.6l-.23-.76H.67V0zm0 0"/></symbol><symbol overflow="visible" id="008f6a76H"><path d="M1.45-2.95c0 2.56 1.08 4.37 3.67 4.84l.11-.67C3.28.86 2.43-.75 2.43-2.95s.85-3.82 2.8-4.16l-.1-.69c-2.6.49-3.68 2.3-3.68 4.85zm0 0"/></symbol><symbol overflow="visible" id="008f6a76I"><path d="M3.34.14c1.43 0 2.13-.66 2.25-1.78l-.89-.1c-.1.7-.5 1.08-1.34 1.08-1.03 0-1.52-.64-1.52-1.84 0-1.23.47-1.86 1.52-1.86.84 0 1.23.36 1.34 1.08l.9-.1c-.13-1.09-.82-1.78-2.26-1.78-1.56 0-2.46.97-2.46 2.66 0 1.66.9 2.64 2.46 2.64zm0 0"/></symbol><symbol overflow="visible" id="008f6a76J"><path d="M1.45-7.1c1.96.33 2.8 1.94 2.8 4.15 0 2.2-.84 3.8-2.8 4.17l.11.67c2.58-.47 3.67-2.28 3.67-4.84 0-2.55-1.09-4.36-3.67-4.85zm0 0"/></symbol></defs><use xlink:href="#008f6a76a" x="189.72" y="151" fill="#fff"/><use xlink:href="#008f6a76b" x="219.72" y="151" fill="#fff"/><g fill="#515151"><use xlink:href="#008f6a76c" x="245.28" y="151"/><use xlink:href="#008f6a76d" x="286.32" y="151"/><use xlink:href="#008f6a76e" x="324.48" y="151"/></g><use xlink:href="#008f6a76f" x="356.28" y="151" fill="#fff"/><use xlink:href="#008f6a76g" x="380.28" y="151" fill="#fff"/><g fill="#fff"><use xlink:href="#008f6a76h" x="256.6667" y="252"/><use xlink:href="#008f6a76i" x="263.3337" y="252"/><use xlink:href="#008f6a76j" x="270.0007" y="252"/><use xlink:href="#008f6a76k" x="276.6677" y="252"/><use xlink:href="#008f6a76l" x="283.3347" y="252"/><use xlink:href="#008f6a76m" x="290.0017" y="252"/><use xlink:href="#008f6a76n" x="296.6687" y="252"/><use xlink:href="#008f6a76o" x="303.3357" y="252"/><use xlink:href="#008f6a76p" x="310.0027" y="252"/><use xlink:href="#008f6a76q" x="316.6697" y="252"/><use xlink:href="#008f6a76r" x="323.3367" y="252"/><use xlink:href="#008f6a76s" x="330.0037" y="252"/><use xlink:href="#008f6a76t" x="336.6707" y="252"/></g><g fill="#fff"><use xlink:href="#008f6a76u" x="180" y="266"/><use xlink:href="#008f6a76i" x="186.667" y="266"/><use xlink:href="#008f6a76v" x="193.334" y="266"/><use xlink:href="#008f6a76k" x="200.001" y="266"/><use xlink:href="#008f6a76w" x="206.668" y="266"/><use xlink:href="#008f6a76x" x="213.335" y="266"/><use xlink:href="#008f6a76i" x="220.002" y="266"/><use xlink:href="#008f6a76l" x="226.669" y="266"/><use xlink:href="#008f6a76m" x="233.336" y="266"/><use xlink:href="#008f6a76y" x="240.003" y="266"/><use xlink:href="#008f6a76v" x="246.67" y="266"/><use xlink:href="#008f6a76z" x="253.337" y="266"/><use xlink:href="#008f6a76i" x="260.004" y="266"/><use xlink:href="#008f6a76A" x="266.671" y="266"/><use xlink:href="#008f6a76z" x="273.338" y="266"/><use xlink:href="#008f6a76i" x="280.005" y="266"/><use xlink:href="#008f6a76B" x="286.672" y="266"/><use xlink:href="#008f6a76z" x="293.339" y="266"/><use xlink:href="#008f6a76C" x="300.006" y="266"/><use xlink:href="#008f6a76k" x="306.673" y="266"/><use xlink:href="#008f6a76C" x="313.34" y="266"/><use xlink:href="#008f6a76D" x="320.007" y="266"/><use xlink:href="#008f6a76i" x="326.674" y="266"/><use xlink:href="#008f6a76m" x="333.341" y="266"/><use xlink:href="#008f6a76E" x="340.008" y="266"/><use xlink:href="#008f6a76F" x="346.675" y="266"/><use xlink:href="#008f6a76x" x="353.342" y="266"/><use xlink:href="#008f6a76G" x="360.009" y="266"/><use xlink:href="#008f6a76z" x="366.676" y="266"/><use xlink:href="#008f6a76m" x="373.343" y="266"/><use xlink:href="#008f6a76H" x="380.01" y="266"/><use xlink:href="#008f6a76I" x="386.677" y="266"/><use xlink:href="#008f6a76v" x="393.344" y="266"/><use xlink:href="#008f6a76z" x="400.011" y="266"/><use xlink:href="#008f6a76i" x="406.678" y="266"/><use xlink:href="#008f6a76J" x="413.345" y="266"/></g></svg>