<?xml version='1.0' encoding='UTF-8'?>
<svg xmlns="http://www.w3.org/2000/svg" xmlns:xlink="http://www.w3.org/1999/xlink" width="450px" height="1000px" viewBox="0 0 450 1000" x="0px" y="0px" enable-background="new 0 0 450 1000"><defs><symbol overflow="visible" id="b4397e65a"><path d="M14.13-15.2v-.24L3.87-28.84h16.11l.05-1.32H2.34l-.23 1.41L12.42-15.3 1.84-1.44 2.11 0h18.1l-.05-1.31H3.46zm0 0"/></symbol><symbol overflow="visible" id="b4397e65b"><path d="M5.22-20.56l-1.44.1V0h1.44v-7.42L8.5-10.9 15.94 0h1.48c-.19-.45-.64-1.03-1.17-1.84L9.5-11.92l7.28-7.66c.36-.36.55-.67.6-.94h-1.63L5.22-9.27zm0 0"/></symbol><symbol overflow="visible" id="b4397e65c"><path d="M12.69-31L9.8-24.44l.99.5 3.25-6.17v-.17zM2.66-10.22C2.66-4 5.48.58 10.3.58c5.58 0 7.78-6.06 7.78-10.92 0-6.18-2.89-10.77-7.7-10.77-5.58 0-7.73 6.08-7.73 10.9zm14.03 0c0 3.56-.99 6.58-2.69 8.16-.95.89-2.17 1.39-3.56 1.39-4.19 0-6.4-4.24-6.4-9.67 0-3.47.96-6.4 2.57-8.07a5.07 5.07 0 013.66-1.43c4.17 0 6.42 4.18 6.42 9.62zm0 0"/></symbol><symbol overflow="visible" id="b4397e65d"><path d="M16.06-1.44l-8-26.47c-1.31-4.26-2.98-6.3-6-6.3-.39 0-.72.05-.89.1v1.13c2.83.04 4.19 1.12 5.49 5.17l1.98 6.43L1.7-1.43c-.17.5-.3.99-.3 1.44h1.26l5.62-16.52.9-2.75h.09L15.17 0h1.2c-.04-.58-.17-.94-.3-1.44zm0 0"/></symbol><symbol overflow="visible" id="b4397e65e"><path d="M2.7-9.81C2.7-3.47 5.22.58 9.55.58c3.01 0 5.26-2.25 6.34-4.31 0 2.92 1.2 4.18 3.19 4.18a4.2 4.2 0 002.48-.76l-.54-1.03c-.58.36-1.08.53-1.9.53-1.53 0-1.98-1.58-1.98-3.83v-10.2c0-1.99.05-3.52.31-5.77l-1.15-.19-.4 2.49c-1.46-1.67-3.26-2.8-5.59-2.8-5.04 0-7.6 5.17-7.6 11.3zm1.4-.17c0-5.27 1.98-9.86 6.24-9.86 2.13 0 3.88 1.07 5.41 3.01v9.63c0 2.92-2.92 6.53-6.13 6.53C5.9-.67 4.1-4.7 4.1-9.98zm0 0"/></symbol><symbol overflow="visible" id="b4397e65f"><path d="M9.63.58C15.96.58 18-5.17 18-10.58c0-6.56-2.6-10.53-7.52-10.53-4.45 0-6.92 2.7-6.92 8.38V10.8h1.4V-.72A8.7 8.7 0 009.62.58zm.85-20.42c4.29 0 6.13 3.64 6.13 9.36 0 5.07-1.72 9.8-6.9 9.8a8.73 8.73 0 01-4.76-1.35V-12.6c0-4.91 1.8-7.25 5.53-7.25zm0 0"/></symbol><symbol overflow="visible" id="b4397e65h"><path d="M3.42.14C5.1.14 5.9-.69 6.11-2.17l-.95-.1C4.96-1.19 4.5-.69 3.44-.69c-1.27 0-1.81-.94-1.81-2.69s.54-2.7 1.8-2.7c1.09 0 1.5.49 1.73 1.58l.93-.1c-.21-1.46-.95-2.3-2.62-2.3C1.53-6.9.62-5.6.62-3.38c0 2.2.91 3.51 2.8 3.51zm0 0"/></symbol><symbol overflow="visible" id="b4397e65i"><path d="M3.33.14c1.62 0 2.5-.95 2.5-2.66 0-1.68-.88-2.64-2.5-2.64-1.63 0-2.5.96-2.5 2.64 0 1.7.87 2.66 2.5 2.66zm0-.77c-1.06 0-1.52-.6-1.52-1.89 0-1.28.46-1.87 1.52-1.87 1.08 0 1.53.6 1.53 1.87 0 1.29-.45 1.9-1.53 1.9zm0 0"/></symbol><symbol overflow="visible" id="b4397e65j"><path d="M2.16 0v-2.67c0-.99.59-1.63 1.46-1.63.74 0 1.07.38 1.07 1.22V0h.95v-3.31c0-1.2-.56-1.85-1.67-1.85-.92 0-1.49.46-1.77 1.08h-.06l-.12-.94H1.2V0zm0 0"/></symbol><symbol overflow="visible" id="b4397e65k"><path d="M2.84.14C3.8.14 4.33-.26 4.6-.9h.07L4.8 0h.76v-7.14h-.95v2.95h-.08c-.28-.6-.86-.97-1.67-.97-1.48 0-2.27.99-2.27 2.64C.6-.84 1.36.14 2.84.14zm.22-.8c-.98 0-1.48-.59-1.48-1.84s.5-1.86 1.48-1.86c1.13 0 1.58.8 1.58 1.86S4.2-.66 3.06-.66zm0 0"/></symbol><symbol overflow="visible" id="b4397e65l"><path d="M5.75-2.23v-.43c0-1.6-.9-2.51-2.42-2.51S.87-4.16.87-2.48c0 1.71.91 2.62 2.5 2.62 1.43 0 2.07-.56 2.29-1.52l-.9-.09c-.18.61-.59.9-1.35.9-.94 0-1.52-.54-1.58-1.66zm-2.4-2.2c.93 0 1.43.5 1.48 1.55H1.84c.08-1.07.6-1.56 1.5-1.56zm0 0"/></symbol><symbol overflow="visible" id="b4397e65m"><path d="M3.36.16c1.4 0 2.2-.6 2.2-1.57 0-.89-.54-1.22-1.47-1.39L3-3c-.67-.14-.86-.33-.86-.73 0-.5.4-.74 1.17-.74.83 0 1.19.27 1.27.8l.9-.05c-.12-1-.8-1.47-2.17-1.47-1.34 0-2.1.53-2.1 1.5 0 .81.45 1.22 1.52 1.44l1.04.2c.56.11.87.24.87.72 0 .52-.45.78-1.28.78-.95 0-1.36-.28-1.42-.87l-.9.06C1.07-.36 1.8.16 3.35.16zm0 0"/></symbol><symbol overflow="visible" id="b4397e65n"><path d="M3.83 0v-5.95H6.2v-.82H.45v.82h2.4V0zm0 0"/></symbol><symbol overflow="visible" id="b4397e65o"><path d="M2.16 0v-2.69c0-.98.6-1.6 1.46-1.6.74 0 1.07.4 1.07 1.2V0h.95v-3.31c0-1.17-.56-1.85-1.67-1.85-.9 0-1.44.46-1.75 1.08h-.06v-3.06H1.2V0zm0 0"/></symbol><symbol overflow="visible" id="b4397e65p"><path d="M3.58-5.81c.42 0 .72-.22.72-.67 0-.44-.3-.68-.72-.68-.44 0-.72.24-.72.68 0 .45.28.67.72.67zm.5.8H1.52v.76h1.6v3.48h-1.8V0h4.46v-.77h-1.7zm0 0"/></symbol><symbol overflow="visible" id="b4397e65w"><path d="M3.83-5.97h1.73v-.8H1.1v.8h1.75v5.19H1.1V0h4.47v-.78H3.83zm0 0"/></symbol><symbol overflow="visible" id="b4397e65x"><path d="M5.52-4.25v-.77H3.17v-1.56h-.81l-.14 1.56H.75v.77h1.47v2.4c0 1.3.48 1.94 1.84 1.94C4.6.1 5.14 0 5.55-.14L5.4-.91c-.32.13-.72.2-1.13.2-.8 0-1.1-.37-1.1-1.23v-2.31zm0 0"/></symbol><symbol overflow="visible" id="b4397e65y"><path d="M2.83.14c.94 0 1.5-.39 1.81-.95h.08l.1.81h.76v-3.38c0-1.23-.69-1.8-2.13-1.8-1.43 0-2.03.65-2.18 1.6l.93.1c.11-.6.44-.93 1.22-.93.85 0 1.22.32 1.22 1.04v.34l-1.81.2C1.6-2.7 1.1-2.17 1.1-1.28c0 .92.64 1.42 1.72 1.42zm.25-.77c-.67 0-1.02-.28-1.02-.74 0-.44.28-.72 1-.82l1.58-.19v.41c0 .8-.6 1.34-1.56 1.34zm0 0"/></symbol><symbol overflow="visible" id="b4397e65z"><path d="M3.92-7.14H1.36v.76h1.6v5.61H1.15V0H5.7v-.77H3.92zm0 0"/></symbol><symbol overflow="visible" id="b4397e65A"><path d="M3.34.14c1.43 0 2.13-.66 2.25-1.78l-.89-.1c-.1.7-.5 1.08-1.34 1.08-1.03 0-1.52-.64-1.52-1.84 0-1.23.47-1.86 1.52-1.86.84 0 1.23.36 1.34 1.08l.9-.1c-.13-1.09-.82-1.78-2.26-1.78-1.56 0-2.46.97-2.46 2.66 0 1.66.9 2.64 2.46 2.64zm0 0"/></symbol><symbol overflow="visible" id="b4397e65H"><path d="M5.92-6.77H1.1V0h4.83v-.8H2.06v-2.26h3.22v-.75H2.06v-2.16h3.86zm0 0"/></symbol><symbol overflow="visible" id="b4397e65I"><path d="M1.83 0l1.42-2h.06l1.46 2H5.8L4-2.53l1.78-2.49H4.8L3.42-3.08h-.08l-1.4-1.94H.89l1.78 2.49L.84 0zm0 0"/></symbol><symbol overflow="visible" id="b4397e65J"><path d="M5.08-5.16c-.94 0-1.58.43-1.9 1.3h-.09l-.07-1.16H1.05v.77h1.1v3.48H.96V0h3.96v-.77H3.1v-1.46c0-1.36.6-2.05 1.83-2.05.4 0 .76.08 1.1.17l.15-.87c-.33-.11-.7-.18-1.11-.18zm0 0"/></symbol><symbol overflow="visible" id="b4397e65K"><path d="M3.16 2.03c1.67 0 2.4-.86 2.4-2.51v-4.54h-.81l-.13.91h-.06c-.26-.58-.8-1.05-1.73-1.05-1.42 0-2.24 1-2.24 2.52 0 1.6.75 2.56 2.2 2.56.94 0 1.5-.5 1.77-1.03h.05v.72c0 1.17-.42 1.67-1.45 1.67-.93 0-1.3-.34-1.41-.89L.8.5c.12.96.87 1.54 2.36 1.54zM3.06-.8c-.98 0-1.48-.57-1.48-1.82 0-1.13.5-1.75 1.48-1.75 1.06 0 1.58.76 1.58 1.75 0 .95-.56 1.82-1.58 1.82zm0 0"/></symbol><symbol overflow="visible" id="b4397e65X"><path d="M2.08-6.77h-.99V0h4.79v-.81h-3.8zm0 0"/></symbol><symbol overflow="visible" id="b4397e65ak"><path d="M4.06-2.77c1.25-.04 1.92-.7 1.92-1.96 0-1.36-.7-2.04-2.17-2.04H.92V0h.97v-2.73h1.08L4.95 0h1.1zM1.9-6h1.7c1.07 0 1.46.34 1.46 1.28 0 .9-.44 1.27-1.47 1.27H1.89zm0 0"/></symbol><symbol overflow="visible" id="b4397e65al"><path d="M2.73.14c.9 0 1.43-.45 1.74-1.08h.06l.13.94h.8v-5.02h-.94v2.7c0 .98-.57 1.62-1.46 1.62-.75 0-1.1-.4-1.1-1.22v-3.1h-.93v3.32c0 1.17.55 1.84 1.7 1.84zm0 0"/></symbol><symbol overflow="visible" id="b4397e65ay"><path d="M1.64 0v-3.17l-.16-2.5h.1L2.9-1.83h.82l1.35-3.84h.1l-.16 2.5V0h.95v-6.77h-1.3l-1.3 3.82h-.09L2-6.77H.69V0zm0 0"/></symbol><symbol overflow="visible" id="b4397e65az"><path d="M1.63 0v-2.9c0-.8.15-1.4.71-1.4.41 0 .55.3.55.88V0h.95v-2.9c0-.8.18-1.4.72-1.4.4 0 .57.3.57.88V0h.95v-3.63c0-.92-.28-1.53-1.11-1.53-.63 0-.95.41-1.1.9h-.06c-.1-.52-.44-.9-1.08-.9-.6 0-.93.41-1.06.9H1.6l-.23-.76H.67V0zm0 0"/></symbol><symbol overflow="visible" id="b4397e65aM"><path d="M3.42.14c1.61 0 2.56-.75 2.56-2 0-1.1-.67-1.6-1.95-1.86l-.97-.2c-.87-.17-1.23-.49-1.23-1.11 0-.7.54-1.11 1.5-1.11 1.06 0 1.51.34 1.69 1.23l.9-.09c-.17-1.28-.98-1.9-2.6-1.9C1.79-6.9.9-6.18.9-4.98c0 1.06.66 1.66 1.88 1.9l1.01.2c.85.17 1.25.4 1.25 1.09 0 .73-.6 1.16-1.6 1.16-1.07 0-1.66-.4-1.8-1.24l-.94.1C.83-.53 1.75.13 3.42.13zm0 0"/></symbol><symbol overflow="visible" id="b4397e65aN"><path d="M3.9.14c1.48 0 2.18-.98 2.18-2.64 0-1.67-.7-2.66-2.17-2.66-.91 0-1.49.41-1.79 1h-.06v-2.98h-.95V0h.81l.11-.9h.06c.29.63.82 1.04 1.82 1.04zm-.32-.8c-1.08 0-1.55-.8-1.55-1.84 0-1.06.47-1.86 1.55-1.86 1.1 0 1.51.61 1.51 1.86S4.64-.66 3.58-.66zm0 0"/></symbol><symbol overflow="visible" id="b4397e65ba"><path d="M4.66-3.45c.76-.14 1.15-.67 1.15-1.57 0-1.07-.64-1.75-2.18-1.75H.92V0h2.71C5.2 0 5.98-.64 5.98-1.77c0-1.03-.56-1.43-1.32-1.59zM3.56-6c.9 0 1.31.4 1.31 1.13 0 .71-.4 1.14-1.3 1.14h-1.7V-6zM1.87-.75v-2.27H3.6c.97 0 1.44.33 1.44 1.13 0 .8-.47 1.14-1.44 1.14zm0 0"/></symbol><symbol overflow="visible" id="b4397e65bz"><path d="M5.77-5.02H4.63L2.3-2.88h-.06v-4.26h-.94V0h.94v-2.31h.06L4.71 0h1.24L3.23-2.69zm0 0"/></symbol><symbol overflow="visible" id="b4397e65q"><path d="M13.95-15.2v-.24l-8.14-13.4h15.3l.17-1.32H4.5l-.4 1.41 8.13 13.36L.27-1.44.36 0h17.19l.1-1.31H1.97zm0 0"/></symbol><symbol overflow="visible" id="b4397e65r"><path d="M6.03-20.6l-1.39.08L1.94 0h1.39l.26-1.9c.64-2.91 2.25-5.88 4.2-8.54L13.35 0h1.62c-.14-.45-.5-1.03-.93-1.84l-5.27-9.82a47.54 47.54 0 018.5-8.14l-.72-1.22c-3.64 2.52-9.5 7.79-12.15 13.77h-.1zm0 0"/></symbol><symbol overflow="visible" id="b4397e65s"><path d="M14.27-31.05l-3.33 6.49.98.58 3.69-6.18v-.21zM1.98-7.6C1.94-2.83 3.95.58 7.97.58c5.67 0 9.05-7.6 9.12-13.4 0-4.68-1.89-8.34-5.98-8.34-5.75 0-9.13 7.85-9.13 13.55zm13.63-5.12c-.05 4.09-1.56 8.09-3.81 10.34-1 1-2.35 1.67-3.7 1.62-3.29 0-4.68-2.92-4.68-6.92.05-4.01 1.44-8.15 3.83-10.4a5.09 5.09 0 013.73-1.7c3.38 0 4.63 3.1 4.63 7.06zm0 0"/></symbol><symbol overflow="visible" id="b4397e65t"><path d="M14.05-1.34c-1.32-6.27-1.82-9.91-3.47-26.16-.6-5.03-1.03-6.7-3.74-6.7-1.21 0-2.34.54-3.15 1.12l.5 1.08c.81-.44 1.7-.84 2.51-.84 1.27 0 1.94.8 2.2 3.4l.82 8.02A322.35 322.35 0 01-.22-.22v.13l1.3.54c3.28-6.34 6.7-13.86 9.04-19.67h.05c.05 1.13.14 2.34.27 3.33.9 8.69 1.72 12.42 2.44 15.89h1.39c-.05-.4-.14-.86-.22-1.34zm0 0"/></symbol><symbol overflow="visible" id="b4397e65u"><path d="M1.9-6.08C1.9-2.39 3.05.58 5.97.58c2.88 0 5.05-2.74 6.94-6.3 0 3.74.27 6.3 2.56 6.3 1.58 0 2.93-1.2 3.96-2.47l-.82-.86c-.84.9-2.06 2.03-3.01 2.03-1.08 0-1.53-2.03-1.53-6.48 2.3-4.63 4.64-9.82 6.08-13.36l-1.54-.6a273.17 273.17 0 01-4.5 11.66c.15-5.9.72-11.66-3.64-11.66-5.4 0-8.59 8.93-8.59 15.08zm1.43 0c0-5.44 2.84-13.72 6.98-13.72 2.92 0 2.64 4.27 2.61 11.83v.05C10.53-3.47 8.2-.77 6.17-.77c-2.03.05-2.84-2.39-2.84-5.3zm0 0"/></symbol><symbol overflow="visible" id="b4397e65v"><path d="M2.92 10.75a77.2 77.2 0 01-.17-4.86c0-2.16.08-4.4.22-6.66.98.68 2.3 1.35 4 1.35 5.55 0 8.92-6.75 8.92-14.27 0-3.73-1.22-7.47-4.69-7.47-7.64 0-9.76 13.38-9.86 27.05 0 1.84.05 3.52.2 5.1zm8.19-30.55c2.44 0 3.33 2.83 3.33 6.2 0 4.1-1.3 8.91-3.77 11.3A5.12 5.12 0 017.16-.77c-1.4 0-2.85-.45-4.05-1.48.81-9.19 3.14-17.55 8-17.55zm0 0"/></symbol><symbol overflow="visible" id="b4397e65B"><path d="M14.72-15.13v-.35l-9.9-12.79h15.52l.1-1.89h-18l-.33 1.99 10.08 12.92L1.84-2.03 2.11 0h18.45l-.1-1.9H4.32zm0 0"/></symbol><symbol overflow="visible" id="b4397e65C"><path d="M5.77-20.75l-2.13.1V0h2.13v-7.25l3.04-3.23L15.94 0h2.2c-.14-.5-.64-1.17-1.17-1.98l-6.7-9.99 7.01-7.42c.45-.5.72-.9.77-1.31h-2.3L5.77-9.81zm0 0"/></symbol><symbol overflow="visible" id="b4397e65D"><path d="M12.6-31.6l-2.88 6.94 1.44.68 3.37-6.44v-.22zM2.51-10.21C2.52-4 5.44.58 10.44.58c5.72 0 8.14-5.94 8.14-11.06 0-6.18-2.97-10.8-7.9-10.8-5.77 0-8.16 5.98-8.16 11.06zm13.9 0c0 3.25-.81 6.03-2.37 7.61a4.91 4.91 0 01-3.43 1.34c-3.96 0-5.98-3.95-5.98-9.17 0-3.28.84-6.03 2.33-7.6a4.78 4.78 0 013.47-1.4c3.97 0 5.98 3.96 5.98 9.22zm0 0"/></symbol><symbol overflow="visible" id="b4397e65E"><path d="M16.66-1.63L8.86-27.5c-1.34-4.4-3.02-6.7-6.47-6.7-.55 0-.9.04-1.17.1v1.74c2.92.05 4.31 1.13 5.62 5.05l1.75 5.67L1.63-1.62C1.43-1.04 1.3-.55 1.3 0h1.97l5.17-15.53.96-3.1h.09L15.03 0h1.94a5 5 0 00-.31-1.63zm0 0"/></symbol><symbol overflow="visible" id="b4397e65F"><path d="M2.56-9.9C2.56-3.57 5.17.57 9.62.57c2.94 0 5.2-2.11 6.22-4.17 0 2.68 1.4 4.04 3.5 4.04A4.5 4.5 0 0022-.3l-.53-1.58a3.7 3.7 0 01-1.84.5c-1.44 0-1.94-1.4-1.94-3.52v-9.76c0-1.99.1-3.64.31-6.03l-1.75-.27-.45 2.4a7 7 0 00-5.46-2.71c-5.12 0-7.78 5.22-7.78 11.37zm2.13-.18c0-5.1 1.87-9.36 5.84-9.36 1.94 0 3.6.99 5.08 2.83v9.05c0 2.87-2.69 6.3-5.75 6.3-3.52 0-5.17-3.7-5.17-8.82zm0 0"/></symbol><symbol overflow="visible" id="b4397e65G"><path d="M10.08.58c6.08 0 8.47-5.58 8.47-11.25 0-6.61-2.7-10.61-7.85-10.61-4.67 0-7.28 2.78-7.28 8.69V10.8h2.06V-.72a8.64 8.64 0 004.6 1.3zm.62-20.02c3.97 0 5.72 3.38 5.72 8.86 0 4.9-1.6 9.31-6.39 9.31-1.7 0-3.1-.43-4.55-1.25v-9.9c0-4.77 1.68-7.02 5.22-7.02zm0 0"/></symbol><symbol overflow="visible" id="b4397e65L"><path d="M14.48-15.13l.05-.35-7.92-12.79h14.86l.26-1.89H4.55L4-28.17l8.02 12.78L.32-2.03.4 0h17.54l.14-1.9H2.88zm0 0"/></symbol><symbol overflow="visible" id="b4397e65M"><path d="M6.6-20.8l-2.1.1L1.75 0h2.13l.26-1.98c.55-2.66 2.03-5.4 3.92-7.96L13.36 0h2.3c-.1-.5-.49-1.17-.94-1.98L9.5-11.7a48.41 48.41 0 018.45-7.74l-1.03-1.8c-3.51 2.3-9.19 7.47-11.87 13.15h-.1zm0 0"/></symbol><symbol overflow="visible" id="b4397e65N"><path d="M14.22-31.64l-3.42 6.8 1.39.8 3.97-6.34v-.21zM1.84-7.74C1.8-2.91 3.88.59 8.02.59c5.98 0 9.36-7.64 9.43-13.5.05-4.72-1.89-8.4-6.15-8.4-6.08 0-9.4 7.82-9.46 13.59zm13.46-5.09c-.05 3.97-1.44 7.78-3.64 10.08a4.71 4.71 0 01-3.33 1.4C5.3-1.34 3.95-4.04 4-7.82c.05-3.92 1.36-7.87 3.6-10.12a4.96 4.96 0 013.38-1.44c3.14 0 4.32 2.78 4.32 6.56zm0 0"/></symbol><symbol overflow="visible" id="b4397e65O"><path d="M14.84-1.44c-1.15-5.81-1.8-10.26-3.28-24.34-.81-6.66-1.17-8.42-4.23-8.42-1.35 0-2.64.6-3.64 1.22l.72 1.67c.86-.46 1.84-.9 2.7-.9 1.12.09 1.75.9 2.08 3.54l.67 6.94A312.87 312.87 0 01-.27-.55v.24L1.7.45c3.11-6.03 6.32-13.18 8.7-19.03h.04c.1 1.2.19 2.52.31 3.69.77 7.6 1.48 11.33 2.2 14.89h2.18a8.62 8.62 0 00-.29-1.44zm0 0"/></symbol><symbol overflow="visible" id="b4397e65P"><path d="M1.75-6.3C1.75-2.47 3.02.58 6.08.58c2.83 0 5.03-2.61 6.87-5.94.14 3.56.5 5.94 2.9 5.94 1.65 0 3.09-1.16 4.21-2.52l-.98-1.25c-.86.8-2.11 1.85-3.02 1.88-.93-.27-1.43-2.16-1.62-5.9 2.39-4.4 4.83-9.45 6.31-13.4l-2.2-.72c-1.1 3.02-2.85 7.78-4.07 11.02h-.04c.19-5.99.28-11.02-3.86-11.02-5.5 0-8.83 8.77-8.83 15.03zm2.17 0c0-5.17 2.61-12.92 6.47-13.1 2.56.27 2.56 4.63 2.48 11.34C10.7-4 8.43-1.48 6.45-1.34c-1.85-.1-2.52-2.4-2.52-4.96zm0 0"/></symbol><symbol overflow="visible" id="b4397e65Q"><path d="M3.52 10.7a57.42 57.42 0 01-.24-5.17c0-1.94.05-3.95.19-5.98A8.2 8.2 0 007.3.58c5.7 0 9.22-6.75 9.22-14.17 0-4-1.44-7.74-5.08-7.74-7.97 0-10.13 13.45-10.22 26.9 0 2.04.05 3.65.17 5.41zm7.78-30.1c2.2.06 3.01 2.74 3.01 5.95 0 4-1.17 8.45-3.51 10.75a5 5 0 01-3.28 1.3c-1.32 0-2.61-.35-3.88-1.12.81-8.78 3.06-16.8 7.66-16.87zm0 0"/></symbol><symbol overflow="visible" id="b4397e65R"><path d="M15.34-15.03v-.53L5.77-27.62h14.98l.08-2.54H2.47l-.36 2.58 9.86 12.4L1.89-2.6 2.16 0h18.76l-.12-2.52H5.17zm0 0"/></symbol><symbol overflow="visible" id="b4397e65S"><path d="M6.25-20.92l-2.73.1V0h2.73v-7.02l2.9-3.06L15.93 0h2.92c-.14-.55-.64-1.27-1.22-2.1l-6.66-9.92 6.8-7.2c.58-.62.9-1.17.9-1.66H15.7L6.3-10.38h-.05zm0 0"/></symbol><symbol overflow="visible" id="b4397e65T"><path d="M12.52-32.17l-2.9 7.33 1.85.8 3.56-6.7V-31zM2.39-10.22C2.4-4.05 5.41.58 10.53.58c5.85 0 8.5-5.8 8.5-11.2 0-6.11-3.01-10.85-8.14-10.85-5.84 0-8.5 5.9-8.5 11.25zm13.81-.05c0 2.94-.72 5.58-2.15 7.08a4.57 4.57 0 01-3.25 1.35c-3.7 0-5.58-3.74-5.58-8.74 0-3.06.72-5.58 2.08-7.06a4.37 4.37 0 013.33-1.34c3.68 0 5.57 3.68 5.57 8.71zm0 0"/></symbol><symbol overflow="visible" id="b4397e65U"><path d="M17.28-1.8l-7.6-25.3c-1.4-4.5-3.12-7.1-7.02-7.1-.63 0-1.04.04-1.4.14v2.34c3.05 0 4.41 1.13 5.7 4.9l1.63 4.9L1.53-1.8A5.26 5.26 0 001.17 0h2.75l4.72-14.53.98-3.52h.15L14.94 0h2.65c0-.72-.14-1.17-.3-1.8zm0 0"/></symbol><symbol overflow="visible" id="b4397e65V"><path d="M2.44-9.98C2.44-3.6 5.13.58 9.67.58c2.92 0 5.14-2.02 6.17-4.05C16.02-.8 17.5.45 19.63.45c1.25 0 2.15-.36 2.87-.76l-.63-2.08c-.59.23-1.04.36-1.71.36-1.4 0-1.94-1.16-1.94-3.14v-9.31c0-2.04.1-3.79.33-6.35l-2.3-.33-.5 2.3c-1.4-1.58-3.06-2.6-5.36-2.6-5.22 0-7.95 5.3-7.95 11.48zm2.83-.2c0-4.9 1.8-8.85 5.43-8.85 1.77 0 3.35.94 4.74 2.7v8.4c0 2.8-2.44 6.04-5.4 6.04-3.24 0-4.77-3.38-4.77-8.28zm0 0"/></symbol><symbol overflow="visible" id="b4397e65W"><path d="M10.53.58c5.8 0 8.55-5.4 8.55-11.33 0-6.67-2.75-10.72-8.14-10.72-4.86 0-7.7 2.9-7.7 9V10.8h2.8V-.72a8.07 8.07 0 004.5 1.3zm.36-19.56c3.73 0 5.31 3.09 5.31 8.36 0 4.73-1.48 8.78-5.89 8.78-1.53 0-2.94-.41-4.28-1.18v-9.17c0-4.69 1.49-6.8 4.86-6.8zm0 0"/></symbol><symbol overflow="visible" id="b4397e65Y"><path d="M15.08-15.03l.04-.53-7.65-12.06h14.31l.45-2.54H4.6l-.67 2.58 7.83 12.19L.35-2.61.5 0h17.86l.19-2.52H3.83zm0 0"/></symbol><symbol overflow="visible" id="b4397e65Z"><path d="M7.16-21.02l-2.8.14L1.62 0h2.79l.28-2.06c.48-2.53 1.87-5.05 3.64-7.4L13.36 0h2.94c-.05-.55-.46-1.27-.9-2.1l-5.18-9.6a47.4 47.4 0 018.4-7.33l-1.34-2.4c-3.37 2.04-8.9 7.12-11.56 12.48h-.14zm0 0"/></symbol><symbol overflow="visible" id="b4397e65aa"><path d="M14.22-32.22L10.7-25.1l1.77 1.03 4.22-6.48v-.32zM1.7-7.82C1.67-3.03 3.83.57 8.1.57c6.21 0 9.63-7.74 9.71-13.63.05-4.73-1.87-8.47-6.37-8.47-6.31 0-9.69 7.83-9.74 13.7zm13.24-5.13c0 3.9-1.3 7.54-3.42 9.84a4.48 4.48 0 01-2.97 1.17c-2.7 0-4-2.47-3.96-5.98.05-3.9 1.3-7.69 3.38-9.86a4.72 4.72 0 013.06-1.2c2.83 0 3.95 2.51 3.9 6.03zm0 0"/></symbol><symbol overflow="visible" id="b4397e65ab"><path d="M15.66-1.58c-1.04-5.36-1.85-10.6-3.1-22.5-1-8.23-1.26-10.12-4.69-10.12a8.1 8.1 0 00-4.14 1.36l.91 2.2c.84-.4 1.97-.9 2.88-.9.98.13 1.62.98 1.89 3.63l.53 5.86A301.11 301.11 0 01-.31-.8v.23L2.34.5c2.93-5.72 5.9-12.56 8.33-18.5h.08c.05 1.31.19 2.75.31 4.1.64 6.53 1.27 10.26 1.99 13.9h2.89c-.05-.5-.14-.98-.28-1.58zm0 0"/></symbol><symbol overflow="visible" id="b4397e65ac"><path d="M1.63-6.48C1.63-2.56 2.96.58 6.17.58 8.95.58 11.2-1.94 13-5.05c.28 3.47.77 5.6 3.2 5.6 1.7 0 3.28-1.05 4.55-2.49l-1.27-1.75c-.8.77-2.06 1.7-3.01 1.75-.81-.5-1.3-2.25-1.58-5.31a89.96 89.96 0 006.4-13.45l-2.88-.82c-.99 2.8-2.47 7.2-3.57 10.36h-.03c.13-5.93-.23-10.36-4.14-10.36-5.54 0-9.04 8.64-9.04 15.04zm2.87-.08c0-4.88 2.4-12.07 5.98-12.38 2.2.49 2.47 4.9 2.4 10.75-1.99 3.69-4.24 5.99-6.22 6.2C5.05-2.15 4.5-4.3 4.5-6.55zm0 0"/></symbol><symbol overflow="visible" id="b4397e65ad"><path d="M4.05 10.7A72.28 72.28 0 014-.22c1.05.44 2.25.77 3.56.77 5.94 0 9.53-6.67 9.53-14.05 0-4.28-1.65-8.02-5.39-8.02-8.37 0-10.57 13.5-10.62 26.83 0 2.2.04 3.74.19 5.72zm7.42-29.68c1.98.07 2.75 2.6 2.75 5.67 0 3.86-1.13 8-3.33 10.2a4.68 4.68 0 01-3.06 1.13 8.04 8.04 0 01-3.64-.94C5-11.2 7.16-18.77 11.47-18.98zm0 0"/></symbol><symbol overflow="visible" id="b4397e65ae"><path d="M15.8-14.94v-.67L6.53-27.14h14.49l.14-3.02H2.52l-.41 3.07 9.69 11.96L1.9-3.05 2.2 0H21.2l-.13-3.02H5.84zm0 0"/></symbol><symbol overflow="visible" id="b4397e65af"><path d="M6.7-21.06l-3.33.1V0H6.7v-6.9l2.66-2.87L15.94 0h3.4c-.07-.58-.57-1.34-1.15-2.2l-6.63-9.86 6.58-6.97c.67-.77 1.03-1.4 1.03-1.99H15.7l-9 10.18zm0 0"/></symbol><symbol overflow="visible" id="b4397e65ag"><path d="M12.42-32.63l-2.84 7.61 2.17.99 3.64-6.92v-.33zM2.25-10.21c0 6.17 3.1 10.8 8.38 10.8 5.93 0 8.76-5.7 8.76-11.33 0-6.08-3.06-10.84-8.33-10.84-5.94 0-8.81 5.84-8.81 11.37zm13.72-.1c0 2.76-.58 5.24-1.92 6.68a4.04 4.04 0 01-3.11 1.3c-3.52 0-5.27-3.47-5.27-8.33 0-2.88.67-5.3 1.9-6.7a4.2 4.2 0 013.18-1.3c3.52 0 5.22 3.5 5.22 8.36zm0 0"/></symbol><symbol overflow="visible" id="b4397e65ah"><path d="M17.73-1.9l-7.46-24.88c-1.41-4.58-3.11-7.42-7.35-7.42-.72 0-1.22.1-1.65.14v2.78c3.14.05 4.54 1.12 5.84 4.83l1.44 4.36L1.44-1.9A5.52 5.52 0 001.13 0H4.4l4.37-13.81 1.03-3.78h.13L14.84 0h3.25c-.04-.77-.18-1.27-.36-1.9zm0 0"/></symbol><symbol overflow="visible" id="b4397e65ai"><path d="M2.3-10.03C2.3-3.7 5.08.57 9.72.57c2.92 0 5.05-1.91 6.12-3.94.22 2.56 1.8 3.82 4 3.82 1.32 0 2.25-.36 3.02-.76l-.67-2.52c-.55.22-1 .36-1.63.36-1.39 0-1.93-1-1.93-2.89v-9c0-2.06.14-3.86.35-6.56l-2.78-.4-.45 2.29a6.8 6.8 0 00-5.31-2.56c-5.27 0-8.14 5.34-8.14 11.56zm3.42-.24c0-4.76 1.7-8.45 5.12-8.45 1.63 0 3.11.86 4.5 2.56v7.97c0 2.75-2.25 5.85-5.12 5.85-3.06 0-4.5-3.1-4.5-7.93zm0 0"/></symbol><symbol overflow="visible" id="b4397e65aj"><path d="M10.9.58c5.57 0 8.58-5.27 8.58-11.38 0-6.7-2.8-10.8-8.37-10.8-4.98 0-7.95 2.93-7.95 9.23V10.8h3.28V-.72a7.8 7.8 0 004.45 1.3zm.16-19.25c3.52 0 5 2.92 5 7.97 0 4.62-1.43 8.4-5.53 8.4-1.44 0-2.8-.4-4.1-1.12v-8.64c0-4.6 1.4-6.61 4.63-6.61zm0 0"/></symbol><symbol overflow="visible" id="b4397e65am"><path d="M15.48-14.94l.05-.67L8.1-27.14h13.96l.5-3.02H4.65l-.82 3.07 7.69 11.7L.4-3.06.55 0h18.12l.24-3.02H4.5zm0 0"/></symbol><symbol overflow="visible" id="b4397e65an"><path d="M7.56-21.16l-3.28.14L1.53 0h3.28l.27-2.16a17.8 17.8 0 013.47-6.93L13.3 0h3.47c0-.58-.4-1.34-.89-2.2l-5.14-9.5a48.24 48.24 0 018.38-7.07l-1.58-2.82C14.27-19.7 8.8-14.72 6.2-9.63h-.12zm0 0"/></symbol><symbol overflow="visible" id="b4397e65ao"><path d="M14.17-32.67l-3.54 7.34 2.06 1.25 4.37-6.65v-.32zM1.63-7.92C1.57-3.11 3.73.58 8.13.58c6.44 0 9.9-7.78 9.95-13.72.1-4.72-1.89-8.5-6.53-8.5-6.51 0-9.86 7.87-9.94 13.72zm13.09-5.13c-.05 3.86-1.22 7.33-3.25 9.68-.72.57-1.8.98-2.74.98C6.2-2.4 5-4.72 5-8.02c.08-3.86 1.3-7.51 3.28-9.62a4.23 4.23 0 012.75-1.03c2.66 0 3.74 2.3 3.69 5.62zm0 0"/></symbol><symbol overflow="visible" id="b4397e65ap"><path d="M16.3-1.67c-.96-4.99-1.9-10.85-3.02-21.1-1.1-9.5-1.36-11.43-5.05-11.43-1.67 0-3.23.72-4.5 1.43l1.04 2.66a8.3 8.3 0 013.06-.94c.9.22 1.48 1.08 1.75 3.74l.5 5A306.7 306.7 0 01-.36-1.03v.26L2.83.5C5.58-5 8.45-11.52 10.84-17.55h.14A125.76 125.76 0 0013.14 0h3.42c-.04-.5-.14-1.03-.26-1.67zm0 0"/></symbol><symbol overflow="visible" id="b4397e65aq"><path d="M1.53-6.66C1.53-2.6 2.93.58 6.2.58c2.8 0 5.05-2.42 6.85-5.4.36 3.43.95 5.37 3.42 5.37 1.8 0 3.42-1 4.72-2.49l-1.35-2.1c-.86.71-2.1 1.57-3.06 1.65-.67-.67-1.22-2.3-1.53-4.98 2.4-4.02 4.95-8.79 6.48-13.38l-3.42-.9c-.89 2.67-2.25 6.8-3.14 9.82h-.1c.1-5.9-.63-9.81-4.37-9.81-5.57 0-9.17 8.5-9.17 14.98zm3.42-.14c0-4.6 2.2-11.34 5.63-11.82 1.94.71 2.34 5.03 2.3 10.34C11.03-4.91 8.8-2.8 6.88-2.47c-1.48-.28-1.94-2.3-1.94-4.33zm0 0"/></symbol><symbol overflow="visible" id="b4397e65ar"><path d="M4.5 10.67A67.68 67.68 0 014.4-.1c1.04.37 2.16.65 3.38.65 6.13 0 9.77-6.67 9.77-14 0-4.5-1.8-8.2-5.68-8.2C3.23-21.64.98-8.08.98 5.06c0 2.37 0 3.86.15 5.98zm7.1-29.34c1.8.12 2.53 2.51 2.53 5.39 0 3.87-1.04 7.75-3.15 9.9-.76.58-1.84.91-2.89.91a8.29 8.29 0 01-3.45-.76c.8-7.93 2.88-15.18 6.97-15.44zm0 0"/></symbol><symbol overflow="visible" id="b4397e65as"><path d="M16.33-14.84v-.82l-9-10.98h14l.19-3.52H2.6l-.5 3.57 9.45 11.51L1.9-3.56 2.2 0h19.32l-.2-3.52H6.62zm0 0"/></symbol><symbol overflow="visible" id="b4397e65at"><path d="M7.1-21.19l-3.87.08V0h3.88v-6.7l2.51-2.7L15.95 0h4c-.05-.63-.6-1.44-1.17-2.34l-6.61-9.77 6.39-6.8c.76-.84 1.15-1.56 1.12-2.25h-4.01l-8.5 9.86H7.1zm0 0"/></symbol><symbol overflow="visible" id="b4397e65au"><path d="M12.33-33.08L9.55-25.2l2.47 1.12 3.78-7.15v-.36zM2.16-10.22C2.16-4.05 5.3.58 10.7.58c6.03 0 9.1-5.63 9.1-11.42 0-6.13-3.14-10.9-8.55-10.9-6.03 0-9.1 5.77-9.1 11.52zm13.64-.1c0 2.45-.55 4.79-1.72 6.23a4 4 0 01-3.02 1.26c-3.28 0-4.89-3.25-4.89-7.87 0-2.75.58-5 1.7-6.36a3.8 3.8 0 013.02-1.25c3.28 0 4.9 3.33 4.9 8zm0 0"/></symbol><symbol overflow="visible" id="b4397e65av"><path d="M18.22-2.03l-7.28-24.4c-1.4-4.71-3.16-7.77-7.78-7.77-.82 0-1.36.1-1.85.18v3.24c3.24.05 4.63 1.12 5.94 4.72l1.3 3.75-7.2 20.28A6.41 6.41 0 001.02 0h3.88l4-13 1.07-4.1h.2L14.76 0h3.8c0-.81-.16-1.4-.35-2.03zm0 0"/></symbol><symbol overflow="visible" id="b4397e65aw"><path d="M2.2-10.08C2.2-3.73 5.05.58 9.77.58a7 7 0 006.07-3.86C16.16-.81 17.81.45 20.06.45c1.4 0 2.4-.36 3.2-.76l-.71-2.92c-.55.17-.99.26-1.58.26-1.34 0-1.9-.81-1.9-2.6v-8.65c0-2.08.15-3.97.37-6.8l-3.24-.45-.5 2.2c-1.39-1.53-2.97-2.46-5.22-2.46-5.36 0-8.28 5.36-8.28 11.65zm4-.26c0-4.6 1.63-8.02 4.78-8.02 1.54 0 2.88.81 4.22 2.4v7.5c0 2.65-2.01 5.63-4.86 5.63-2.82 0-4.14-2.84-4.14-7.51zm0 0"/></symbol><symbol overflow="visible" id="b4397e65ax"><path d="M11.25.58c5.4 0 8.69-5.13 8.69-11.42 0-6.8-2.88-10.9-8.64-10.9-5.18 0-8.28 3.02-8.28 9.5V10.8h3.92V-.67A7.55 7.55 0 0011.25.58zm0-18.9c3.23 0 4.69 2.71 4.69 7.57 0 4.5-1.4 7.95-5.14 7.95-1.35 0-2.7-.36-3.86-1.03v-8.04c0-4.5 1.2-6.44 4.31-6.44zm0 0"/></symbol><symbol overflow="visible" id="b4397e65aA"><path d="M15.94-14.84l.08-.82-7.24-10.98h13.58l.6-3.52H4.68l-.9 3.57 7.5 11.2L.46-3.56.58 0h18.4l.29-3.52H5.3zm0 0"/></symbol><symbol overflow="visible" id="b4397e65aB"><path d="M8.02-21.28l-3.83.12L1.39 0h3.83l.31-2.3a16.03 16.03 0 013.25-6.39L13.31 0h4.02c0-.63-.4-1.44-.9-2.34l-5.04-9.36a47.11 47.11 0 018.28-6.75l-1.86-3.33c-3.14 1.72-8.45 6.66-11.06 11.47h-.19zm0 0"/></symbol><symbol overflow="visible" id="b4397e65aC"><path d="M14.13-33.17l-3.6 7.6 2.4 1.45 4.57-6.8v-.36zM1.53-8.02C1.48-3.19 3.7.58 8.2.58c6.7 0 10.12-7.83 10.22-13.81.09-4.72-1.94-8.55-6.7-8.55-6.76 0-10.09 7.87-10.18 13.76zm12.9-5.12c-.02 3.78-1.12 7.1-3.09 9.45-.64.5-1.57.81-2.43.81-2.25 0-3.47-2.12-3.43-5.21.05-3.79 1.22-7.4 3.07-9.41.67-.5 1.62-.81 2.48-.81 2.42 0 3.45 2.01 3.4 5.17zm0 0"/></symbol><symbol overflow="visible" id="b4397e65aD"><path d="M17.02-1.8c-.91-4.6-1.94-11.12-2.94-19.53-1.25-10.8-1.44-12.87-5.44-12.87-1.8 0-3.52.76-4.86 1.53l1.17 3.15c.94-.45 2.3-1 3.2-1 .8.29 1.35 1.13 1.62 3.79l.4 4.14A271.67 271.67 0 01-.4-1.27v.33L3.38.5a251.98 251.98 0 007.68-17.56h.14l.32 4.73c.45 4.77 1 8.55 1.71 12.33h4.05c-.05-.5-.19-1.13-.26-1.8zm0 0"/></symbol><symbol overflow="visible" id="b4397e65aE"><path d="M1.44-6.84C1.44-2.7 2.92.58 6.25.58c2.8 0 5.05-2.33 6.84-5.17.46 3.32 1.13 5.14 3.64 5.14 1.85 0 3.61-.96 5-2.53L20.2-4.45c-.86.67-2.1 1.48-3.06 1.58-.58-.86-1.08-2.4-1.48-4.6 2.39-3.83 5-8.5 6.53-13.33l-3.97-.98c-.84 2.47-1.97 6.3-2.74 9.26h-.14c.05-5.84-.98-9.26-4.59-9.26-5.63 0-9.31 8.37-9.31 14.94zm3.97-.18c0-4.32 2.01-10.62 5.26-11.25 1.61.85 2.16 5.08 2.16 9.9-1.72 3.06-3.83 5-5.72 5.4-1.3-.36-1.7-2.25-1.7-4.05zm0 0"/></symbol><symbol overflow="visible" id="b4397e65aF"><path d="M4.95 10.67A77.21 77.21 0 014.81 0c1.03.31 2.13.55 3.25.55 6.25 0 9.99-6.67 9.99-13.96 0-4.68-1.99-8.37-5.99-8.37-8.9 0-11.2 13.64-11.2 26.6 0 2.5.05 3.96.17 6.24zM11.8-18.3c1.56.12 2.28 2.42 2.28 5.17 0 3.73-1.03 7.33-2.97 9.4-.77.55-1.8.77-2.69.77-1.1 0-2.17-.19-3.34-.62.81-7.57 2.84-14.41 6.72-14.72zm0 0"/></symbol><symbol overflow="visible" id="b4397e65aG"><path d="M16.88-14.77v-.98L8.22-26.06H21.7l.18-4.1H2.66l-.55 4.1 9.23 11.03L1.9-4.1 2.25 0h19.63l-.29-4.1H7.42zm0 0"/></symbol><symbol overflow="visible" id="b4397e65aH"><path d="M7.66-21.38l-4.55.1V0h4.55v-6.53L9.94-9l6 9h4.67c-.05-.67-.55-1.53-1.22-2.47l-6.52-9.69 6.11-6.56c.91-.98 1.36-1.8 1.32-2.6h-4.64l-7.97 9.5h-.03zm0 0"/></symbol><symbol overflow="visible" id="b4397e65aI"><path d="M12.23-33.66l-2.78 8.28 2.93 1.25 3.87-7.42v-.36zM2.03-10.17C2.03-4.1 5.27.58 10.84.58c6.13 0 9.41-5.49 9.41-11.56 0-6.08-3.23-10.94-8.78-10.94-6.11 0-9.44 5.72-9.44 11.75zm13.53-.17c0 2.15-.39 4.3-1.48 5.7a3.69 3.69 0 01-2.83 1.26c-3.06 0-4.55-3.01-4.55-7.46 0-2.52.5-4.6 1.49-5.85.5-.6 1.39-1.26 2.84-1.26 3.1 0 4.53 3.1 4.53 7.6zm0 0"/></symbol><symbol overflow="visible" id="b4397e65aJ"><path d="M18.77-2.2L11.7-26.06c-1.43-4.82-3.25-8.14-8.28-8.14-.9 0-1.53.1-2.1.18v3.83c3.37.03 4.8 1.13 6.05 4.58l1.13 3.06L1.27-2.2C1.03-1.44.94-.81.94 0h4.6l3.55-12.06 1.13-4.46h.17L14.67 0h4.5c0-.86-.19-1.48-.4-2.2zm0 0"/></symbol><symbol overflow="visible" id="b4397e65aK"><path d="M2.06-10.17C2.06-3.83 4.96.58 9.86.58a7 7 0 006.03-3.74C16.25-.8 18 .45 20.3.45c1.54 0 2.57-.36 3.43-.76l-.81-3.42c-.5.14-.91.21-1.44.21-1.31 0-1.84-.62-1.84-2.32v-8.24c0-2.08.12-4.06.3-7.08l-3.77-.48-.5 2.16c-1.4-1.54-2.93-2.44-5.13-2.44-5.45 0-8.47 5.45-8.47 11.75zm4.69-.22c0-4.5 1.53-7.61 4.4-7.61 1.37 0 2.62.77 3.93 2.3v6.89c0 2.6-1.8 5.44-4.5 5.44-2.61 0-3.83-2.57-3.83-7.02zm0 0"/></symbol><symbol overflow="visible" id="b4397e65aL"><path d="M11.7.58c5.13 0 8.74-4.94 8.74-11.52 0-6.8-2.94-10.98-8.97-10.98-5.3 0-8.6 3.1-8.6 9.76V10.8h4.55V-.58A7.94 7.94 0 0011.7.58zm-.26-18.53c3 0 4.31 2.47 4.31 7.1 0 4.37-1.31 7.47-4.69 7.47a8 8 0 01-3.64-.9v-7.42c0-4.4 1.13-6.25 4.02-6.25zm0 0"/></symbol><symbol overflow="visible" id="b4397e65aO"><path d="M16.47-14.77l.1-.98-7-10.31H22.7l.67-4.1H4.72l-1.03 4.1 7.34 10.72L.55-4.1.67 0H19.4l.28-4.1H6.17zm0 0"/></symbol><symbol overflow="visible" id="b4397e65aP"><path d="M8.5-21.47l-4.45.14L1.27 0h4.45l.31-2.47C6.43-4.36 7.56-6.34 9-8.23L13.31 0h4.6c.09-.67-.36-1.53-.85-2.47l-5-9.19a48.53 48.53 0 018.19-6.43l-2.06-3.86c-3.07 1.48-8.25 6.3-10.86 10.84h-.17zm0 0"/></symbol><symbol overflow="visible" id="b4397e65aQ"><path d="M14.13-33.75l-3.7 7.92 2.76 1.66L18-31.14v-.36zM1.38-8.09C1.34-3.3 3.6.58 8.23.58c6.97 0 10.44-7.9 10.54-13.9.04-4.77-1.94-8.63-6.94-8.63-6.97 0-10.35 7.87-10.44 13.86zm12.73-5.14c0 3.68-.98 6.8-2.87 9.18-.55.4-1.44.58-2.1.58-2 0-3.17-1.89-3.12-4.72.05-3.78 1.17-7.15 2.88-9.19.59-.35 1.43-.57 2.15-.57 2.17 0 3.11 1.8 3.06 4.72zm0 0"/></symbol><symbol overflow="visible" id="b4397e65aR"><path d="M17.78-1.9a321.52 321.52 0 01-2.8-17.8C13.6-32.05 13.5-34.2 9.14-34.2c-1.98 0-3.83.8-5.36 1.62l1.4 3.69c.95-.4 2.38-1.03 3.32-1.03.69.36 1.22 1.25 1.48 3.9l.29 3.11A254.98 254.98 0 01-.45-1.53v.36L3.95.5c2.4-4.9 4.9-10.84 7.4-17.02h.12c.1 1.63.19 3.38.36 5.13.28 3.73.76 7.52 1.48 11.39h4.74c-.05-.55-.14-1.17-.27-1.9zm0 0"/></symbol><symbol overflow="visible" id="b4397e65aS"><path d="M1.31-7.02c0 4.22 1.56 7.6 5.03 7.6 2.7 0 5-2.25 6.75-4.9.6 3.24 1.4 4.87 4 4.87 1.9 0 3.74-.9 5.22-2.53l-1.7-2.88a8.44 8.44 0 01-3.06 1.4c-.46-1-.94-2.38-1.4-4.23 2.43-3.6 5-8.1 6.57-13.14l-4.63-1.12a91.6 91.6 0 00-2.25 8.64h-.18c-.1-5.77-1.44-8.64-4.82-8.64-5.71 0-9.53 8.23-9.53 14.93zm4.67-.23c0-4.05 1.8-9.84 4.77-10.6 1.31 1.02 1.98 5.16 2.08 9.35-1.58 2.69-3.64 4.45-5.5 4.94C6.2-4 5.98-5.76 5.98-7.25zm0 0"/></symbol><symbol overflow="visible" id="b4397e65aT"><path d="M5.48 10.63a67.83 67.83 0 01-.26-6.35c0-1.36 0-2.75.1-4.14.98.22 2 .4 3 .4 6.5 0 10.3-6.62 10.3-13.85 0-5-2.2-8.64-6.34-8.64C3.06-21.95.72-8.28.72 4.5c0 2.75.05 4.1.19 6.56zm6.49-28.58c1.34.22 1.98 2.34 1.98 4.9 0 3.64-.9 6.97-2.75 8.96-.67.4-1.65.53-2.47.53-1 0-2.03-.13-3.1-.49.8-7.06 2.7-13.45 6.34-13.9zm0 0"/></symbol><symbol overflow="visible" id="b4397e65aU"><path d="M17.23-14.72v-1.03l-8.28-9.72h12.97l.27-4.69H2.52l-.58 4.7 8.81 10.48-9 10.3L2.11 0h20.03l-.31-4.69H8.14zm0 0"/></symbol><symbol overflow="visible" id="b4397e65aV"><path d="M8.33-21.64l-5.5.12V0h5.5v-6.3l2.25-2.43L15.89 0h5.7c-.03-.81-.53-1.63-1.2-2.66l-6.31-9.76 5.72-6.08c1.03-1.13 1.53-2.1 1.48-3.1h-5.62l-7.24 9.18h-.1zm0 0"/></symbol><symbol overflow="visible" id="b4397e65aW"><path d="M12.38-34.3l-3.02 8.57 3.23 1.48 4.14-7.56v-.5zM1.8-10.3C1.8-4.2 5.08.58 11.03.58c6.35 0 9.9-5.4 9.9-11.69 0-6.08-3.29-11.08-9.23-11.08-6.34 0-9.9 5.63-9.9 11.88zm13.45-.13c0 2.06-.36 4.14-1.3 5.4a2.97 2.97 0 01-2.48 1.17c-2.74 0-4.05-2.97-4.05-7.07 0-2.37.5-4.45 1.36-5.62.4-.58 1.2-1.17 2.47-1.17 2.75 0 4 3.15 4 7.3zm0 0"/></symbol><symbol overflow="visible" id="b4397e65aX"><path d="M19.63-2.47l-6.68-22.37c-1.8-5.94-3.6-9.36-9.26-9.36-1.08 0-1.75.1-2.38.23v4.45c3.46.05 4.94 1.04 6.25 4.46l.9 2.3-7.34 20.3C.86-1.64.72-.92.72 0h5.62L9.5-11.44l1.08-4.5h.17L14.58 0h5.45c0-.94-.19-1.67-.4-2.47zm0 0"/></symbol><symbol overflow="visible" id="b4397e65aY"><path d="M1.84-10.27C1.84-3.87 4.72.58 9.67.58c2.9 0 5.05-1.8 6.08-3.86C16.2-.86 18 .45 20.44.45c1.65 0 2.83-.36 3.76-.8l-.76-4.1c-.44.14-.85.17-1.35.17-1.21 0-1.75-.58-1.75-2.2v-7.79c0-2.15.13-4.18.32-7.06l-4.36-.6-.7 2.18a6.86 6.86 0 00-5.2-2.44c-5.5 0-8.56 5.53-8.56 11.92zm5.68-.36c0-4.4 1.34-7.1 3.87-7.1 1.17 0 2.3.64 3.38 1.93v7.16c0 2.25-1.58 4.72-3.88 4.72-2.34 0-3.37-2.38-3.37-6.7zm0 0"/></symbol><symbol overflow="visible" id="b4397e65aZ"><path d="M12.38.58c5.04 0 8.73-4.94 8.73-11.64C21.1-18 18-22.2 11.75-22.2c-5.77 0-9.19 3.16-9.19 10.32V10.7h5.58V-.58A7.69 7.69 0 0012.37.58zM11.6-17.7c2.7 0 3.78 2.2 3.78 6.66 0 4.47-1.12 7.15-4.1 7.15a7.22 7.22 0 01-3.15-.76v-7.55c0-3.87.95-5.5 3.47-5.5zm0 0"/></symbol><symbol overflow="visible" id="b4397e65bb"><path d="M16.88-14.72l.09-1.08-6.7-9.67H22.8l.82-4.69H4.59l-1.17 4.7 7.16 10.16L.45-4.69.55 0h19.12l.31-4.69H6.94zm0 0"/></symbol><symbol overflow="visible" id="b4397e65bc"><path d="M9.22-21.73l-5.44.14L.98 0H6.4l.27-2.25a14.1 14.1 0 012.92-5.53L13.28 0h5.63c.07-.81-.29-1.63-.82-2.66l-4.73-9.09a55.07 55.07 0 017.97-5.9l-2.35-4.66c-3.32 1.39-8.28 6.06-10.89 10.6h-.17zm0 0"/></symbol><symbol overflow="visible" id="b4397e65bd"><path d="M14.08-34.38l-3.81 8.2 3.09 1.84 5-7.11v-.5zM1.18-8.18C1.12-3.34 3.51.57 8.5.57c7.6 0 10.98-8.19 11.08-14.08.05-4.81-2.13-8.73-7.4-8.73-7.59 0-10.91 8.15-11 14.04zM14-13.46c0 3.37-.9 6.75-2.56 9.1-.5.3-1.31.47-1.94.47-1.77 0-2.8-1.75-2.75-4.35.05-3.43 1.03-7.02 2.6-9.05.5-.31 1.28-.5 1.95-.5 1.89 0 2.75 1.62 2.7 4.33zm0 0"/></symbol><symbol overflow="visible" id="b4397e65be"><path d="M18.77-1.94a343.99 343.99 0 01-2.93-18.72c-1.36-11.3-1.67-13.54-6.17-13.54-2.15 0-4.26.8-5.98 1.72l1.53 4.21c1.03-.4 2.56-.98 3.56-.98.63.45 1.13 1.34 1.35 3.92l.21 2.16A308.87 308.87 0 01-.58-1.67v.45L4.77.5c2.3-4.81 4.59-10.58 6.8-16.44h.18c.05 1.58.13 3.25.27 4.9.21 3.98.62 7.48 1.3 11.04h5.71c-.05-.55-.12-1.17-.26-1.94zm0 0"/></symbol><symbol overflow="visible" id="b4397e65bf"><path d="M1.13-7.02c0 4.32 1.7 7.6 5.26 7.6 2.88 0 5.13-2.25 6.9-4.81.57 3.1 1.48 4.78 4.16 4.78a7.7 7.7 0 005.4-2.35l-1.57-3.6a7.44 7.44 0 01-2.92 1.21c-.45-.81-.94-2.06-1.44-3.68 2.47-3.52 5-7.93 6.56-13.05l-5.34-1.36a96.28 96.28 0 00-2.03 8.23h-.14c-.17-5.26-1.53-8.18-5.03-8.18-6.03 0-9.86 8.42-9.81 15.21zm5.62-.64c0-3.86 1.63-9.26 4.23-9.98 1.25 1.03 1.9 4.86 1.97 8.78-1.43 2.52-3.37 4.31-5.03 4.77-.95-.46-1.17-2.11-1.17-3.57zm0 0"/></symbol><symbol overflow="visible" id="b4397e65bg"><path d="M6.25 10.53a54.33 54.33 0 01-.31-6.3c0-1.26.04-2.6.1-3.96.85.18 1.74.28 2.6.28 6.8 0 10.94-6.53 10.94-13.96 0-5.09-2.3-8.82-6.85-8.82C2.87-22.23.5-8.64.5 4.5c0 2.6 0 4.14.17 6.53zm5.98-28.31c1.18.28 1.72 2.22 1.72 4.5 0 3.3-.86 6.72-2.51 8.78-.6.31-1.53.45-2.3.45-.86 0-1.77-.14-2.7-.36.81-6.7 2.56-12.92 5.8-13.37zm0 0"/></symbol><symbol overflow="visible" id="b4397e65bh"><path d="M17.86-14.58v-1.26l-7.52-8.55h12.02l.33-5.77H2.2l-.62 5.77 8.1 9.5-8.24 9.12.4 5.77H22.6l-.3-5.77H9.44zm0 0"/></symbol><symbol overflow="visible" id="b4397e65bi"><path d="M9.58-22.14L2.25-22V0h7.33v-5.84L11.7-8.1 15.75 0h7.66c-.05-.98-.46-1.75-1.18-2.97l-5.93-9.95 4.98-5.17c1.27-1.4 1.84-2.61 1.84-4h-7.46l-5.94 8.64h-.14zm0 0"/></symbol><symbol overflow="visible" id="b4397e65bj"><path d="M12.6-35.45l-3.38 9.08 3.87 1.89 4.5-7.83v-.72zM1.3-10.48C1.31-4.36 4.71.58 11.4.58c6.75 0 10.8-5.17 10.8-11.88 0-6.07-3.38-11.34-10.03-11.34-6.72 0-10.85 5.45-10.85 12.16zm13.4-.1c0 1.9-.3 3.74-1 4.86-.35.55-.88 1-1.84 1-2.1 0-3.06-2.94-3.06-6.44 0-2.07.38-4.14 1-5.17.36-.6.9-1 1.85-1 2.1 0 3.06 3.16 3.06 6.75zm0 0"/></symbol><symbol overflow="visible" id="b4397e65bk"><path d="M21.19-2.92l-5.94-19.72c-2.42-8-4.27-11.56-11.16-11.56-1.34 0-2.15.1-2.87.23v5.7c3.69.05 5.31.82 6.66 4.14l.45 1L.9-2.93A7.35 7.35 0 00.3 0h7.57l2.43-10.27.85-4.62h.23L14.41 0h7.23c0-1.13-.17-1.98-.45-2.92zm0 0"/></symbol><symbol overflow="visible" id="b4397e65bl"><path d="M1.4-10.48C1.4-3.95 4.27.55 9.3.55a6.9 6.9 0 006.25-4.02C16.06-.98 18 .45 20.7.45c1.85 0 3.24-.36 4.4-.9l-.66-5.32c-.4.1-.82.2-1.17.2-1.13 0-1.58-.6-1.58-2.09v-6.92c0-2.3.14-4.4.31-7.1l-5.48-.77-.96 2.2a7.44 7.44 0 00-5.44-2.4c-5.57 0-8.73 5.68-8.73 12.17zm7.55-.55c0-4.22.9-6.25 2.85-6.25.89 0 1.65.45 2.47 1.34v7.56c0 1.72-1.18 3.47-2.83 3.47-1.86 0-2.49-2.03-2.49-6.12zm0 0"/></symbol><symbol overflow="visible" id="b4397e65bm"><path d="M13.69.55c4.89 0 8.62-4.96 8.62-11.85 0-7.15-3.37-11.34-10.08-11.34-6.6 0-10.25 3.16-10.25 11.17v22.05h7.43V-.55a7.66 7.66 0 004.28 1.1zM11.97-17.2c2.08 0 2.75 1.75 2.75 5.75 0 4.74-.77 6.58-3.06 6.58-.72 0-1.49-.14-2.25-.45v-7.78c0-2.93.71-4.1 2.56-4.1zm0 0"/></symbol><symbol overflow="visible" id="b4397e65bn"><path d="M17.6-14.63l.09-1.21-6.17-8.55h11.56l1.05-5.77H4.27l-1.36 5.77 6.7 9.14L.37-5.77.3 0h19.85l.4-5.77H8.33zm0 0"/></symbol><symbol overflow="visible" id="b4397e65bo"><path d="M10.48-22.23l-7.15.14L.45 0h7.16l.22-1.9c.36-1.66 1.39-3.37 2.8-5.04L13.19 0h7.56c.08-.98-.19-1.75-.77-2.97l-4.23-8.83a68.72 68.72 0 017.56-5.03l-2.75-6.12c-3.95 1.22-8.5 5.62-11.06 10.22h-.23zm0 0"/></symbol><symbol overflow="visible" id="b4397e65bp"><path d="M14-35.5l-4.1 8.64 3.74 2.16 5.34-7.38v-.69zM.77-8.37C.77-3.47 3.33.57 9.05.57c8.68 0 11.97-8.67 11.97-14.35.04-4.9-2.44-8.95-8.24-8.95C4.05-22.72.81-14.08.77-8.38zm13-5.49c0 2.83-.72 6.56-2.02 8.81-.4.28-1.05.4-1.58.4-1.31 0-2.1-1.43-2.08-3.68 0-2.83.77-6.7 2.04-8.81a3.4 3.4 0 011.57-.36c1.4 0 2.07 1.34 2.07 3.64zm0 0"/></symbol><symbol overflow="visible" id="b4397e65bq"><path d="M20.56-2.03a542.67 542.67 0 01-3.18-20.42c-1.18-9.32-1.99-11.75-6.75-11.75-2.49 0-4.96.86-7.07 1.84l1.7 5.31c1.22-.4 2.93-.98 4-.98.46.67.91 1.6 1.13 3.86l.05.6C5.36-12.96 2.04-7.08-.81-1.99v.59L6.25.5c2.08-4.69 3.92-10.05 5.77-15.4h.17c.04 1.59.04 3.1.14 4.59.19 4.37.45 7.34.98 10.31h7.49c0-.5-.1-1.22-.24-2.03zm0 0"/></symbol><symbol overflow="visible" id="b4397e65br"><path d="M.77-7.02C.8-2.47 2.8.55 6.48.55c3.1 0 5.35-2.17 7.16-4.64C14.22-1.17 15.2.55 18.2.55a8.8 8.8 0 005.62-2.03L22.55-6.3c-.77.36-1.85.72-2.66.82-.4-.6-.9-1.58-1.48-2.9a38.89 38.89 0 006.56-12.78l-6.75-1.75c-.63 2.16-1.08 5.18-1.56 7.61h-.1c-.4-4.5-1.8-7.42-5.45-7.42C4.45-22.72.63-14 .77-7.02zm7.37-1.3c0-3.6 1.36-8.24 3.3-8.87 1.12.99 1.65 4.27 1.75 7.74-1.17 2.2-2.8 3.97-4.14 4.37-.72-.5-.9-1.86-.9-3.25zm0 0"/></symbol><symbol overflow="visible" id="b4397e65bs"><path d="M7.66 10.27A51.97 51.97 0 017.43.4c.59.09 1.21.14 1.79.14 7.39 0 12.06-6.4 12.06-14.14 0-5.22-2.47-9.13-7.78-9.13C2.56-22.72 0-9.36 0 4.55c0 2.39.1 4.14.27 6.43zm5.07-27.7c.82.37 1.13 1.9 1.13 3.79 0 2.58-.67 6.22-1.98 8.33A5.3 5.3 0 019.8-5c-.6 0-1.22-.05-1.89-.17.77-6.08 2.35-11.75 4.81-12.25zm0 0"/></symbol><symbol overflow="visible" id="b4397e65bt"><path d="M18.55-14.48v-1.41l-6.68-7.28h11.04l.4-6.99H1.9l-.67 6.99 7.16 8.36-7.26 7.84L1.58 0h21.6l-.46-6.97H10.98zm0 0"/></symbol><symbol overflow="visible" id="b4397e65bu"><path d="M10.98-22.72l-9.36.17V0h9.36v-5.36l1.85-1.94L15.6 0h9.81c-.1-1.27-.36-1.94-1.12-3.38L18.8-13.4l4.14-4.28c1.58-1.62 2.25-3.14 2.25-4.95h-9.5l-4.54 8.06h-.18zm0 0"/></symbol><symbol overflow="visible" id="b4397e65bv"><path d="M12.88-36.77L9-27.14l4.64 2.34 4.94-8.1v-.9zM.8-10.75C.81-4.59 4.31.58 11.8.58c7.14 0 11.78-4.94 11.78-12.05 0-6.17-3.47-11.75-10.94-11.75C5.48-23.22.81-17.86.81-10.75zm13.27 0c0 1.66-.22 3.28-.63 4.22-.26.55-.53.76-1.12.76-1.4 0-1.99-2.78-1.99-5.67 0-1.65.29-3.73.64-4.67.27-.55.54-.77 1.13-.77 1.39 0 1.97 3.2 1.97 6.13zm0 0"/></symbol><symbol overflow="visible" id="b4397e65bw"><path d="M22.95-3.42l-5.1-16.69C14.73-30.5 12.88-34.2 4.6-34.2c-1.71 0-2.6.15-3.46.27v7.13c3.73 0 5.53.48 6.96 3.4L.58-3.42A9.39 9.39 0 00-.14 0h9.72l1.62-8.9.68-4.82h.23L14.2 0h9.23c0-1.31-.17-2.3-.49-3.42zm0 0"/></symbol><symbol overflow="visible" id="b4397e65bx"><path d="M.9-10.7C.9-4.05 3.74.55 8.9.55a6.95 6.95 0 006.5-4.24C15.93-1.13 18 .45 20.96.45c2.1 0 3.73-.36 5.17-1l-.58-6.65c-.31.04-.76.1-1 .1-.98 0-1.34-.5-1.34-1.8v-6.04c0-2.48.14-4.64.26-7.15l-6.75-.96-1.25 2.25a8.2 8.2 0 00-5.67-2.42c-5.62 0-8.9 5.9-8.9 12.52zm9.68-.77c0-4.06.4-5.26 1.65-5.26.55 0 1 .21 1.46.62v8.05c0 1.04-.74 2.03-1.58 2.03-1.31 0-1.53-1.66-1.53-5.44zm0 0"/></symbol><symbol overflow="visible" id="b4397e65by"><path d="M15.13.55c4.71 0 8.54-4.96 8.54-12.11 0-7.38-3.64-11.66-10.89-11.66-7.6 0-11.44 3.28-11.44 12.24v21.37h9.55V-.5A7.43 7.43 0 0015.12.55zm-2.76-17.16c1.35 0 1.63 1.17 1.63 4.78 0 4.94-.4 5.9-1.9 5.9-.4 0-.8-.05-1.2-.2v-8c0-1.8.4-2.48 1.47-2.48zm0 0"/></symbol><symbol overflow="visible" id="b4397e65bA"><path d="M18.4-14.48l.15-1.46L13-23.17h10.36l1.34-6.99H3.95l-1.6 6.99 6.2 8-8.33 8.2L.09 0H20.7l.49-6.97H9.94zm0 0"/></symbol><symbol overflow="visible" id="b4397e65bB"><path d="M11.92-22.81l-9.1.22L-.13 0h9.1l.23-1.53a10.28 10.28 0 012.37-4.31L13.05 0h9.76c.1-1.27-.1-1.94-.72-3.38l-3.64-8.32c2.7-1.8 5.4-3.28 7.11-4.14l-3.25-7.88c-4.58 1.08-8.72 5.14-11.25 9.81h-.31zm0 0"/></symbol><symbol overflow="visible" id="b4397e65bC"><path d="M13.9-36.81l-4.4 9.19 4.5 2.56 5.75-7.75v-.9zM.32-8.6c0 5 2.85 9.17 9.31 9.17 9.96 0 13.1-9.22 13.07-14.66.03-5-2.75-9.19-9.28-9.19C3.47-23.27.36-14.05.3-8.59zm13.14-5.72c.05 2.15-.5 6.34-1.34 8.54-.31.2-.77.24-1.17.24-.81 0-1.36-1.08-1.36-2.9 0-2.15.54-6.34 1.4-8.54.36-.12.77-.22 1.18-.22.84 0 1.3 1.08 1.3 2.88zm0 0"/></symbol><symbol overflow="visible" id="b4397e65bD"><path d="M22.6-2.06c-1.41-8.38-2.4-14.81-3.52-22.38-.99-7.15-2.25-9.76-7.33-9.76-2.84 0-5.86.95-8.38 2.03l1.99 6.48c1.39-.37 3.28-.95 4.45-.95.27.72.53 1.44.72 2.66C4.81-12.56 1.43-6.8-1.07-2.3v.77l9 2.03c1.84-4.55 3.23-9.45 4.63-14.22h.17c0 1.53-.04 2.92-.04 4.17.04 4.83.26 7.25.62 9.55h9.5c0-.5-.1-1.22-.22-2.06zm0 0"/></symbol><symbol overflow="visible" id="b4397e65bE"><path d="M.31-7.06C.5-2.25 2.75.54 6.61.54c3.3 0 5.58-2.12 7.39-4.5.63 2.79 1.8 4.5 4.94 4.5 2.25 0 4.5-.73 5.95-1.67l-.9-6.2c-.77.13-1.7.31-2.43.31-.33-.3-.76-1.04-1.36-2.03 2.57-3.06 4.82-6.97 6.49-12.37l-8.38-2.11c-.53 2.01-.67 4.67-1.03 6.8h-.14c-.58-3.7-2.06-6.54-5.84-6.54C3.95-23.27.14-14.17.3-7.07zm9.4-2.08c0-3.23 1-7.02 2.26-7.52.98.91 1.39 3.7 1.48 6.68-.89 1.84-2.15 3.45-3.18 3.78-.41-.5-.55-1.58-.55-2.94zm0 0"/></symbol><symbol overflow="visible" id="b4397e65bF"><path d="M9.19 9.98C8.95 8.02 8.8 6.08 8.8 4c0-1.03.05-2.25.14-3.5.32 0 .63.05.9.05 8.1 0 13.37-6.27 13.37-14.32 0-5.45-2.61-9.5-8.78-9.5C2.2-23.27-.5-10.13-.5 4.55a71 71 0 00.28 6.34zm4.12-27.04c.38.5.46 1.62.46 2.98 0 1.75-.46 5.66-1.4 7.88-.4.08-1.03.12-1.8.12-.3 0-.63 0-1-.04.74-5.4 2-10.4 3.74-10.94zm0 0"/></symbol></defs><use xlink:href="#b4397e65a" x="52.73625" y="68.408"/><use xlink:href="#b4397e65b" x="74.96625" y="68.408"/><use xlink:href="#b4397e65c" x="94.00125" y="68.408"/><use xlink:href="#b4397e65d" x="114.74625" y="68.408"/><use xlink:href="#b4397e65e" x="132.70125" y="68.408"/><use xlink:href="#b4397e65f" x="154.52625" y="68.408"/><g fill-opacity=".33"><use xlink:href="#b4397e65g" x="63.95875" y="105.816"/><use xlink:href="#b4397e65h" x="70.62575" y="105.816"/><use xlink:href="#b4397e65i" x="77.29275" y="105.816"/><use xlink:href="#b4397e65j" x="83.95975" y="105.816"/><use xlink:href="#b4397e65k" x="90.62675" y="105.816"/><use xlink:href="#b4397e65l" x="97.29375" y="105.816"/><use xlink:href="#b4397e65j" x="103.96075" y="105.816"/><use xlink:href="#b4397e65m" x="110.62775" y="105.816"/><use xlink:href="#b4397e65l" x="117.29475" y="105.816"/><use xlink:href="#b4397e65k" x="123.96175" y="105.816"/><use xlink:href="#b4397e65g" x="130.62875" y="105.816"/><use xlink:href="#b4397e65n" x="137.29575" y="105.816"/><use xlink:href="#b4397e65o" x="143.96275" y="105.816"/><use xlink:href="#b4397e65p" x="150.62975" y="105.816"/><use xlink:href="#b4397e65j" x="157.29675" y="105.816"/></g><use xlink:href="#b4397e65q" x="278.17125" y="68.408"/><use xlink:href="#b4397e65r" x="299.18625" y="68.408"/><use xlink:href="#b4397e65s" x="317.14125" y="68.408"/><use xlink:href="#b4397e65t" x="336.71625" y="68.408"/><use xlink:href="#b4397e65u" x="353.72625" y="68.408"/><use xlink:href="#b4397e65v" x="375.46125" y="68.408"/><g fill-opacity=".33"><use xlink:href="#b4397e65g" x="262.70792" y="105.816"/><use xlink:href="#b4397e65h" x="269.37492" y="105.816"/><use xlink:href="#b4397e65i" x="276.04192" y="105.816"/><use xlink:href="#b4397e65j" x="282.70892" y="105.816"/><use xlink:href="#b4397e65k" x="289.37592" y="105.816"/><use xlink:href="#b4397e65l" x="296.04292" y="105.816"/><use xlink:href="#b4397e65j" x="302.70992" y="105.816"/><use xlink:href="#b4397e65m" x="309.37692" y="105.816"/><use xlink:href="#b4397e65l" x="316.04392" y="105.816"/><use xlink:href="#b4397e65k" x="322.71092" y="105.816"/><use xlink:href="#b4397e65g" x="329.37792" y="105.816"/><use xlink:href="#b4397e65n" x="336.04492" y="105.816"/><use xlink:href="#b4397e65o" x="342.71192" y="105.816"/><use xlink:href="#b4397e65p" x="349.37892" y="105.816"/><use xlink:href="#b4397e65j" x="356.04592" y="105.816"/><use xlink:href="#b4397e65g" x="362.71292" y="105.816"/><use xlink:href="#b4397e65w" x="369.37992" y="105.816"/><use xlink:href="#b4397e65x" x="376.04692" y="105.816"/><use xlink:href="#b4397e65y" x="382.71392" y="105.816"/><use xlink:href="#b4397e65z" x="389.38092" y="105.816"/><use xlink:href="#b4397e65p" x="396.04792" y="105.816"/><use xlink:href="#b4397e65A" x="402.71492" y="105.816"/></g><use xlink:href="#b4397e65B" x="51.38625" y="178.556"/><use xlink:href="#b4397e65C" x="73.93125" y="178.556"/><use xlink:href="#b4397e65D" x="93.59625" y="178.556"/><use xlink:href="#b4397e65E" x="114.65625" y="178.556"/><use xlink:href="#b4397e65F" x="133.15125" y="178.556"/><use xlink:href="#b4397e65G" x="155.47125" y="178.556"/><g fill-opacity=".33"><use xlink:href="#b4397e65g" x="43.95875" y="215.964"/><use xlink:href="#b4397e65h" x="50.62575" y="215.964"/><use xlink:href="#b4397e65i" x="57.29275" y="215.964"/><use xlink:href="#b4397e65j" x="63.95975" y="215.964"/><use xlink:href="#b4397e65k" x="70.62675" y="215.964"/><use xlink:href="#b4397e65l" x="77.29375" y="215.964"/><use xlink:href="#b4397e65j" x="83.96075" y="215.964"/><use xlink:href="#b4397e65m" x="90.62775" y="215.964"/><use xlink:href="#b4397e65l" x="97.29475" y="215.964"/><use xlink:href="#b4397e65k" x="103.96175" y="215.964"/><use xlink:href="#b4397e65g" x="110.62875" y="215.964"/><use xlink:href="#b4397e65H" x="117.29575" y="215.964"/><use xlink:href="#b4397e65I" x="123.96275" y="215.964"/><use xlink:href="#b4397e65x" x="130.62975" y="215.964"/><use xlink:href="#b4397e65J" x="137.29675" y="215.964"/><use xlink:href="#b4397e65y" x="143.96375" y="215.964"/><use xlink:href="#b4397e65z" x="150.63075" y="215.964"/><use xlink:href="#b4397e65p" x="157.29775" y="215.964"/><use xlink:href="#b4397e65K" x="163.96475" y="215.964"/><use xlink:href="#b4397e65o" x="170.63175" y="215.964"/><use xlink:href="#b4397e65x" x="177.29875" y="215.964"/></g><use xlink:href="#b4397e65L" x="276.64125" y="178.556"/><use xlink:href="#b4397e65M" x="298.10625" y="178.556"/><use xlink:href="#b4397e65N" x="316.69125" y="178.556"/><use xlink:href="#b4397e65O" x="336.53625" y="178.556"/><use xlink:href="#b4397e65P" x="354.26625" y="178.556"/><use xlink:href="#b4397e65Q" x="376.54125" y="178.556"/><g fill-opacity=".33"><use xlink:href="#b4397e65g" x="242.70792" y="215.964"/><use xlink:href="#b4397e65h" x="249.37492" y="215.964"/><use xlink:href="#b4397e65i" x="256.04192" y="215.964"/><use xlink:href="#b4397e65j" x="262.70892" y="215.964"/><use xlink:href="#b4397e65k" x="269.37592" y="215.964"/><use xlink:href="#b4397e65l" x="276.04292" y="215.964"/><use xlink:href="#b4397e65j" x="282.70992" y="215.964"/><use xlink:href="#b4397e65m" x="289.37692" y="215.964"/><use xlink:href="#b4397e65l" x="296.04392" y="215.964"/><use xlink:href="#b4397e65k" x="302.71092" y="215.964"/><use xlink:href="#b4397e65g" x="309.37792" y="215.964"/><use xlink:href="#b4397e65H" x="316.04492" y="215.964"/><use xlink:href="#b4397e65I" x="322.71192" y="215.964"/><use xlink:href="#b4397e65x" x="329.37892" y="215.964"/><use xlink:href="#b4397e65J" x="336.04592" y="215.964"/><use xlink:href="#b4397e65y" x="342.71292" y="215.964"/><use xlink:href="#b4397e65z" x="349.37992" y="215.964"/><use xlink:href="#b4397e65p" x="356.04692" y="215.964"/><use xlink:href="#b4397e65K" x="362.71392" y="215.964"/><use xlink:href="#b4397e65o" x="369.38092" y="215.964"/><use xlink:href="#b4397e65x" x="376.04792" y="215.964"/><use xlink:href="#b4397e65g" x="382.71492" y="215.964"/><use xlink:href="#b4397e65w" x="389.38192" y="215.964"/><use xlink:href="#b4397e65x" x="396.04892" y="215.964"/><use xlink:href="#b4397e65y" x="402.71592" y="215.964"/><use xlink:href="#b4397e65z" x="409.38292" y="215.964"/><use xlink:href="#b4397e65p" x="416.04992" y="215.964"/><use xlink:href="#b4397e65A" x="422.71692" y="215.964"/></g><use xlink:href="#b4397e65R" x="50.05875" y="288.704"/><use xlink:href="#b4397e65S" x="72.96375" y="288.704"/><use xlink:href="#b4397e65T" x="93.21375" y="288.704"/><use xlink:href="#b4397e65U" x="114.63375" y="288.704"/><use xlink:href="#b4397e65V" x="133.62375" y="288.704"/><use xlink:href="#b4397e65W" x="156.39375" y="288.704"/><g fill-opacity=".33"><use xlink:href="#b4397e65g" x="60.62542" y="326.112"/><use xlink:href="#b4397e65h" x="67.29242" y="326.112"/><use xlink:href="#b4397e65i" x="73.95942" y="326.112"/><use xlink:href="#b4397e65j" x="80.62642" y="326.112"/><use xlink:href="#b4397e65k" x="87.29342" y="326.112"/><use xlink:href="#b4397e65l" x="93.96042" y="326.112"/><use xlink:href="#b4397e65j" x="100.62742" y="326.112"/><use xlink:href="#b4397e65m" x="107.29442" y="326.112"/><use xlink:href="#b4397e65l" x="113.96142" y="326.112"/><use xlink:href="#b4397e65k" x="120.62842" y="326.112"/><use xlink:href="#b4397e65g" x="127.29542" y="326.112"/><use xlink:href="#b4397e65X" x="133.96242" y="326.112"/><use xlink:href="#b4397e65p" x="140.62942" y="326.112"/><use xlink:href="#b4397e65K" x="147.29642" y="326.112"/><use xlink:href="#b4397e65o" x="153.96342" y="326.112"/><use xlink:href="#b4397e65x" x="160.63042" y="326.112"/></g><use xlink:href="#b4397e65Y" x="275.08875" y="288.704"/><use xlink:href="#b4397e65Z" x="296.95875" y="288.704"/><use xlink:href="#b4397e65aa" x="316.21875" y="288.704"/><use xlink:href="#b4397e65ab" x="336.28875" y="288.704"/><use xlink:href="#b4397e65ac" x="354.78375" y="288.704"/><use xlink:href="#b4397e65ad" x="377.59875" y="288.704"/><g fill-opacity=".33"><use xlink:href="#b4397e65g" x="259.37458" y="326.112"/><use xlink:href="#b4397e65h" x="266.04158" y="326.112"/><use xlink:href="#b4397e65i" x="272.70858" y="326.112"/><use xlink:href="#b4397e65j" x="279.37558" y="326.112"/><use xlink:href="#b4397e65k" x="286.04258" y="326.112"/><use xlink:href="#b4397e65l" x="292.70958" y="326.112"/><use xlink:href="#b4397e65j" x="299.37658" y="326.112"/><use xlink:href="#b4397e65m" x="306.04358" y="326.112"/><use xlink:href="#b4397e65l" x="312.71058" y="326.112"/><use xlink:href="#b4397e65k" x="319.37758" y="326.112"/><use xlink:href="#b4397e65g" x="326.04458" y="326.112"/><use xlink:href="#b4397e65X" x="332.71158" y="326.112"/><use xlink:href="#b4397e65p" x="339.37858" y="326.112"/><use xlink:href="#b4397e65K" x="346.04558" y="326.112"/><use xlink:href="#b4397e65o" x="352.71258" y="326.112"/><use xlink:href="#b4397e65x" x="359.37958" y="326.112"/><use xlink:href="#b4397e65g" x="366.04658" y="326.112"/><use xlink:href="#b4397e65w" x="372.71358" y="326.112"/><use xlink:href="#b4397e65x" x="379.38058" y="326.112"/><use xlink:href="#b4397e65y" x="386.04758" y="326.112"/><use xlink:href="#b4397e65z" x="392.71458" y="326.112"/><use xlink:href="#b4397e65p" x="399.38158" y="326.112"/><use xlink:href="#b4397e65A" x="406.04858" y="326.112"/></g><g><use xlink:href="#b4397e65ae" x="49.04625" y="398.852"/><use xlink:href="#b4397e65af" x="72.22125" y="398.852"/><use xlink:href="#b4397e65ag" x="92.92125" y="398.852"/><use xlink:href="#b4397e65ah" x="114.56625" y="398.852"/><use xlink:href="#b4397e65ai" x="133.96125" y="398.852"/><use xlink:href="#b4397e65aj" x="157.09125" y="398.852"/></g><g fill-opacity=".33"><use xlink:href="#b4397e65g" x="53.95875" y="436.26"/><use xlink:href="#b4397e65h" x="60.62575" y="436.26"/><use xlink:href="#b4397e65i" x="67.29275" y="436.26"/><use xlink:href="#b4397e65j" x="73.95975" y="436.26"/><use xlink:href="#b4397e65k" x="80.62675" y="436.26"/><use xlink:href="#b4397e65l" x="87.29375" y="436.26"/><use xlink:href="#b4397e65j" x="93.96075" y="436.26"/><use xlink:href="#b4397e65m" x="100.62775" y="436.26"/><use xlink:href="#b4397e65l" x="107.29475" y="436.26"/><use xlink:href="#b4397e65k" x="113.96175" y="436.26"/><use xlink:href="#b4397e65g" x="120.62875" y="436.26"/><use xlink:href="#b4397e65ak" x="127.29575" y="436.26"/><use xlink:href="#b4397e65l" x="133.96275" y="436.26"/><use xlink:href="#b4397e65K" x="140.62975" y="436.26"/><use xlink:href="#b4397e65al" x="147.29675" y="436.26"/><use xlink:href="#b4397e65z" x="153.96375" y="436.26"/><use xlink:href="#b4397e65y" x="160.63075" y="436.26"/><use xlink:href="#b4397e65J" x="167.29775" y="436.26"/></g><g><use xlink:href="#b4397e65am" x="273.96375" y="398.852"/><use xlink:href="#b4397e65an" x="296.14875" y="398.852"/><use xlink:href="#b4397e65ao" x="315.85875" y="398.852"/><use xlink:href="#b4397e65ap" x="336.10875" y="398.852"/><use xlink:href="#b4397e65aq" x="355.14375" y="398.852"/><use xlink:href="#b4397e65ar" x="378.36375" y="398.852"/></g><g fill-opacity=".33"><use xlink:href="#b4397e65g" x="279.37458" y="436.26"/><use xlink:href="#b4397e65h" x="286.04158" y="436.26"/><use xlink:href="#b4397e65i" x="292.70858" y="436.26"/><use xlink:href="#b4397e65j" x="299.37558" y="436.26"/><use xlink:href="#b4397e65k" x="306.04258" y="436.26"/><use xlink:href="#b4397e65l" x="312.70958" y="436.26"/><use xlink:href="#b4397e65j" x="319.37658" y="436.26"/><use xlink:href="#b4397e65m" x="326.04358" y="436.26"/><use xlink:href="#b4397e65l" x="332.71058" y="436.26"/><use xlink:href="#b4397e65k" x="339.37758" y="436.26"/><use xlink:href="#b4397e65g" x="346.04458" y="436.26"/><use xlink:href="#b4397e65w" x="352.71158" y="436.26"/><use xlink:href="#b4397e65x" x="359.37858" y="436.26"/><use xlink:href="#b4397e65y" x="366.04558" y="436.26"/><use xlink:href="#b4397e65z" x="372.71258" y="436.26"/><use xlink:href="#b4397e65p" x="379.37958" y="436.26"/><use xlink:href="#b4397e65A" x="386.04658" y="436.26"/></g><g><use xlink:href="#b4397e65as" x="47.89875" y="509"/><use xlink:href="#b4397e65at" x="71.38875" y="509"/><use xlink:href="#b4397e65au" x="92.58375" y="509"/><use xlink:href="#b4397e65av" x="114.54375" y="509"/><use xlink:href="#b4397e65aw" x="134.38875" y="509"/><use xlink:href="#b4397e65ax" x="157.92375" y="509"/></g><g fill-opacity=".33"><use xlink:href="#b4397e65g" x="57.29208" y="546.408"/><use xlink:href="#b4397e65h" x="63.95908" y="546.408"/><use xlink:href="#b4397e65i" x="70.62608" y="546.408"/><use xlink:href="#b4397e65j" x="77.29308" y="546.408"/><use xlink:href="#b4397e65k" x="83.96008" y="546.408"/><use xlink:href="#b4397e65l" x="90.62708" y="546.408"/><use xlink:href="#b4397e65j" x="97.29408" y="546.408"/><use xlink:href="#b4397e65m" x="103.96108" y="546.408"/><use xlink:href="#b4397e65l" x="110.62808" y="546.408"/><use xlink:href="#b4397e65k" x="117.29508" y="546.408"/><use xlink:href="#b4397e65g" x="123.96208" y="546.408"/><use xlink:href="#b4397e65ay" x="130.62908" y="546.408"/><use xlink:href="#b4397e65l" x="137.29608" y="546.408"/><use xlink:href="#b4397e65k" x="143.96308" y="546.408"/><use xlink:href="#b4397e65p" x="150.63008" y="546.408"/><use xlink:href="#b4397e65al" x="157.29708" y="546.408"/><use xlink:href="#b4397e65az" x="163.96408" y="546.408"/></g><g><use xlink:href="#b4397e65aA" x="272.70375" y="509"/><use xlink:href="#b4397e65aB" x="295.24875" y="509"/><use xlink:href="#b4397e65aC" x="315.49875" y="509"/><use xlink:href="#b4397e65aD" x="335.92875" y="509"/><use xlink:href="#b4397e65aE" x="355.59375" y="509"/><use xlink:href="#b4397e65aF" x="379.26375" y="509"/></g><g fill-opacity=".33"><use xlink:href="#b4397e65g" x="256.04125" y="546.408"/><use xlink:href="#b4397e65h" x="262.70825" y="546.408"/><use xlink:href="#b4397e65i" x="269.37525" y="546.408"/><use xlink:href="#b4397e65j" x="276.04225" y="546.408"/><use xlink:href="#b4397e65k" x="282.70925" y="546.408"/><use xlink:href="#b4397e65l" x="289.37625" y="546.408"/><use xlink:href="#b4397e65j" x="296.04325" y="546.408"/><use xlink:href="#b4397e65m" x="302.71025" y="546.408"/><use xlink:href="#b4397e65l" x="309.37725" y="546.408"/><use xlink:href="#b4397e65k" x="316.04425" y="546.408"/><use xlink:href="#b4397e65g" x="322.71125" y="546.408"/><use xlink:href="#b4397e65ay" x="329.37825" y="546.408"/><use xlink:href="#b4397e65l" x="336.04525" y="546.408"/><use xlink:href="#b4397e65k" x="342.71225" y="546.408"/><use xlink:href="#b4397e65p" x="349.37925" y="546.408"/><use xlink:href="#b4397e65al" x="356.04625" y="546.408"/><use xlink:href="#b4397e65az" x="362.71325" y="546.408"/><use xlink:href="#b4397e65g" x="369.38025" y="546.408"/><use xlink:href="#b4397e65w" x="376.04725" y="546.408"/><use xlink:href="#b4397e65x" x="382.71425" y="546.408"/><use xlink:href="#b4397e65y" x="389.38125" y="546.408"/><use xlink:href="#b4397e65z" x="396.04825" y="546.408"/><use xlink:href="#b4397e65p" x="402.71525" y="546.408"/><use xlink:href="#b4397e65A" x="409.38225" y="546.408"/></g><g><use xlink:href="#b4397e65aG" x="46.61625" y="619.148"/><use xlink:href="#b4397e65aH" x="70.42125" y="619.148"/><use xlink:href="#b4397e65aI" x="92.20125" y="619.148"/><use xlink:href="#b4397e65aJ" x="114.47625" y="619.148"/><use xlink:href="#b4397e65aK" x="134.81625" y="619.148"/><use xlink:href="#b4397e65aL" x="158.80125" y="619.148"/></g><g fill-opacity=".33"><use xlink:href="#b4397e65g" x="50.62542" y="656.556"/><use xlink:href="#b4397e65h" x="57.29242" y="656.556"/><use xlink:href="#b4397e65i" x="63.95942" y="656.556"/><use xlink:href="#b4397e65j" x="70.62642" y="656.556"/><use xlink:href="#b4397e65k" x="77.29342" y="656.556"/><use xlink:href="#b4397e65l" x="83.96042" y="656.556"/><use xlink:href="#b4397e65j" x="90.62742" y="656.556"/><use xlink:href="#b4397e65m" x="97.29442" y="656.556"/><use xlink:href="#b4397e65l" x="103.96142" y="656.556"/><use xlink:href="#b4397e65k" x="110.62842" y="656.556"/><use xlink:href="#b4397e65g" x="117.29542" y="656.556"/><use xlink:href="#b4397e65aM" x="123.96242" y="656.556"/><use xlink:href="#b4397e65l" x="130.62942" y="656.556"/><use xlink:href="#b4397e65az" x="137.29642" y="656.556"/><use xlink:href="#b4397e65p" x="143.96342" y="656.556"/><use xlink:href="#b4397e65aN" x="150.63042" y="656.556"/><use xlink:href="#b4397e65i" x="157.29742" y="656.556"/><use xlink:href="#b4397e65z" x="163.96442" y="656.556"/><use xlink:href="#b4397e65k" x="170.63142" y="656.556"/></g><g><use xlink:href="#b4397e65aO" x="271.28625" y="619.148"/><use xlink:href="#b4397e65aP" x="294.23625" y="619.148"/><use xlink:href="#b4397e65aQ" x="315.07125" y="619.148"/><use xlink:href="#b4397e65aR" x="335.72625" y="619.148"/><use xlink:href="#b4397e65aS" x="356.06625" y="619.148"/><use xlink:href="#b4397e65aT" x="380.23125" y="619.148"/></g><g fill-opacity=".33"><use xlink:href="#b4397e65g" x="249.37458" y="656.556"/><use xlink:href="#b4397e65h" x="256.04158" y="656.556"/><use xlink:href="#b4397e65i" x="262.70858" y="656.556"/><use xlink:href="#b4397e65j" x="269.37558" y="656.556"/><use xlink:href="#b4397e65k" x="276.04258" y="656.556"/><use xlink:href="#b4397e65l" x="282.70958" y="656.556"/><use xlink:href="#b4397e65j" x="289.37658" y="656.556"/><use xlink:href="#b4397e65m" x="296.04358" y="656.556"/><use xlink:href="#b4397e65l" x="302.71058" y="656.556"/><use xlink:href="#b4397e65k" x="309.37758" y="656.556"/><use xlink:href="#b4397e65g" x="316.04458" y="656.556"/><use xlink:href="#b4397e65aM" x="322.71158" y="656.556"/><use xlink:href="#b4397e65l" x="329.37858" y="656.556"/><use xlink:href="#b4397e65az" x="336.04558" y="656.556"/><use xlink:href="#b4397e65p" x="342.71258" y="656.556"/><use xlink:href="#b4397e65aN" x="349.37958" y="656.556"/><use xlink:href="#b4397e65i" x="356.04658" y="656.556"/><use xlink:href="#b4397e65z" x="362.71358" y="656.556"/><use xlink:href="#b4397e65k" x="369.38058" y="656.556"/><use xlink:href="#b4397e65g" x="376.04758" y="656.556"/><use xlink:href="#b4397e65w" x="382.71458" y="656.556"/><use xlink:href="#b4397e65x" x="389.38158" y="656.556"/><use xlink:href="#b4397e65y" x="396.04858" y="656.556"/><use xlink:href="#b4397e65z" x="402.71558" y="656.556"/><use xlink:href="#b4397e65p" x="409.38258" y="656.556"/><use xlink:href="#b4397e65A" x="416.04958" y="656.556"/></g><g><use xlink:href="#b4397e65aU" x="45.19875" y="729.296"/><use xlink:href="#b4397e65aV" x="69.09375" y="729.296"/><use xlink:href="#b4397e65aW" x="91.63875" y="729.296"/><use xlink:href="#b4397e65aX" x="114.31875" y="729.296"/><use xlink:href="#b4397e65aY" x="135.33375" y="729.296"/><use xlink:href="#b4397e65aZ" x="159.81375" y="729.296"/></g><g fill-opacity=".33"><use xlink:href="#b4397e65g" x="63.95875" y="766.704"/><use xlink:href="#b4397e65h" x="70.62575" y="766.704"/><use xlink:href="#b4397e65i" x="77.29275" y="766.704"/><use xlink:href="#b4397e65j" x="83.95975" y="766.704"/><use xlink:href="#b4397e65k" x="90.62675" y="766.704"/><use xlink:href="#b4397e65l" x="97.29375" y="766.704"/><use xlink:href="#b4397e65j" x="103.96075" y="766.704"/><use xlink:href="#b4397e65m" x="110.62775" y="766.704"/><use xlink:href="#b4397e65l" x="117.29475" y="766.704"/><use xlink:href="#b4397e65k" x="123.96175" y="766.704"/><use xlink:href="#b4397e65g" x="130.62875" y="766.704"/><use xlink:href="#b4397e65ba" x="137.29575" y="766.704"/><use xlink:href="#b4397e65i" x="143.96275" y="766.704"/><use xlink:href="#b4397e65z" x="150.62975" y="766.704"/><use xlink:href="#b4397e65k" x="157.29675" y="766.704"/></g><g><use xlink:href="#b4397e65bb" x="269.50875" y="729.296"/><use xlink:href="#b4397e65bc" x="292.54875" y="729.296"/><use xlink:href="#b4397e65bd" x="314.28375" y="729.296"/><use xlink:href="#b4397e65be" x="335.52375" y="729.296"/><use xlink:href="#b4397e65bf" x="356.67375" y="729.296"/><use xlink:href="#b4397e65bg" x="381.28875" y="729.296"/></g><g fill-opacity=".33"><use xlink:href="#b4397e65g" x="262.70792" y="766.704"/><use xlink:href="#b4397e65h" x="269.37492" y="766.704"/><use xlink:href="#b4397e65i" x="276.04192" y="766.704"/><use xlink:href="#b4397e65j" x="282.70892" y="766.704"/><use xlink:href="#b4397e65k" x="289.37592" y="766.704"/><use xlink:href="#b4397e65l" x="296.04292" y="766.704"/><use xlink:href="#b4397e65j" x="302.70992" y="766.704"/><use xlink:href="#b4397e65m" x="309.37692" y="766.704"/><use xlink:href="#b4397e65l" x="316.04392" y="766.704"/><use xlink:href="#b4397e65k" x="322.71092" y="766.704"/><use xlink:href="#b4397e65g" x="329.37792" y="766.704"/><use xlink:href="#b4397e65ba" x="336.04492" y="766.704"/><use xlink:href="#b4397e65i" x="342.71192" y="766.704"/><use xlink:href="#b4397e65z" x="349.37892" y="766.704"/><use xlink:href="#b4397e65k" x="356.04592" y="766.704"/><use xlink:href="#b4397e65g" x="362.71292" y="766.704"/><use xlink:href="#b4397e65w" x="369.37992" y="766.704"/><use xlink:href="#b4397e65x" x="376.04692" y="766.704"/><use xlink:href="#b4397e65y" x="382.71392" y="766.704"/><use xlink:href="#b4397e65z" x="389.38092" y="766.704"/><use xlink:href="#b4397e65p" x="396.04792" y="766.704"/><use xlink:href="#b4397e65A" x="402.71492" y="766.704"/></g><g><use xlink:href="#b4397e65bh" x="42.58875" y="839.444"/><use xlink:href="#b4397e65bi" x="66.57375" y="839.444"/><use xlink:href="#b4397e65bj" x="90.55875" y="839.444"/><use xlink:href="#b4397e65bk" x="114.04875" y="839.444"/><use xlink:href="#b4397e65bl" x="136.32375" y="839.444"/><use xlink:href="#b4397e65bm" x="161.65875" y="839.444"/></g><g fill-opacity=".33"><use xlink:href="#b4397e65g" x="47.29208" y="876.852"/><use xlink:href="#b4397e65h" x="53.95908" y="876.852"/><use xlink:href="#b4397e65i" x="60.62608" y="876.852"/><use xlink:href="#b4397e65j" x="67.29308" y="876.852"/><use xlink:href="#b4397e65k" x="73.96008" y="876.852"/><use xlink:href="#b4397e65l" x="80.62708" y="876.852"/><use xlink:href="#b4397e65j" x="87.29408" y="876.852"/><use xlink:href="#b4397e65m" x="93.96108" y="876.852"/><use xlink:href="#b4397e65l" x="100.62808" y="876.852"/><use xlink:href="#b4397e65k" x="107.29508" y="876.852"/><use xlink:href="#b4397e65g" x="113.96208" y="876.852"/><use xlink:href="#b4397e65H" x="120.62908" y="876.852"/><use xlink:href="#b4397e65I" x="127.29608" y="876.852"/><use xlink:href="#b4397e65x" x="133.96308" y="876.852"/><use xlink:href="#b4397e65J" x="140.63008" y="876.852"/><use xlink:href="#b4397e65y" x="147.29708" y="876.852"/><use xlink:href="#b4397e65aN" x="153.96408" y="876.852"/><use xlink:href="#b4397e65i" x="160.63108" y="876.852"/><use xlink:href="#b4397e65z" x="167.29808" y="876.852"/><use xlink:href="#b4397e65k" x="173.96508" y="876.852"/></g><g><use xlink:href="#b4397e65bn" x="266.29125" y="839.444"/><use xlink:href="#b4397e65bo" x="289.46625" y="839.444"/><use xlink:href="#b4397e65bp" x="312.82125" y="839.444"/><use xlink:href="#b4397e65bq" x="335.09625" y="839.444"/><use xlink:href="#b4397e65br" x="357.77625" y="839.444"/><use xlink:href="#b4397e65bs" x="383.20125" y="839.444"/></g><g fill-opacity=".33"><use xlink:href="#b4397e65g" x="246.04125" y="876.852"/><use xlink:href="#b4397e65h" x="252.70825" y="876.852"/><use xlink:href="#b4397e65i" x="259.37525" y="876.852"/><use xlink:href="#b4397e65j" x="266.04225" y="876.852"/><use xlink:href="#b4397e65k" x="272.70925" y="876.852"/><use xlink:href="#b4397e65l" x="279.37625" y="876.852"/><use xlink:href="#b4397e65j" x="286.04325" y="876.852"/><use xlink:href="#b4397e65m" x="292.71025" y="876.852"/><use xlink:href="#b4397e65l" x="299.37725" y="876.852"/><use xlink:href="#b4397e65k" x="306.04425" y="876.852"/><use xlink:href="#b4397e65g" x="312.71125" y="876.852"/><use xlink:href="#b4397e65H" x="319.37825" y="876.852"/><use xlink:href="#b4397e65I" x="326.04525" y="876.852"/><use xlink:href="#b4397e65x" x="332.71225" y="876.852"/><use xlink:href="#b4397e65J" x="339.37925" y="876.852"/><use xlink:href="#b4397e65y" x="346.04625" y="876.852"/><use xlink:href="#b4397e65aN" x="352.71325" y="876.852"/><use xlink:href="#b4397e65i" x="359.38025" y="876.852"/><use xlink:href="#b4397e65z" x="366.04725" y="876.852"/><use xlink:href="#b4397e65k" x="372.71425" y="876.852"/><use xlink:href="#b4397e65g" x="379.38125" y="876.852"/><use xlink:href="#b4397e65w" x="386.04825" y="876.852"/><use xlink:href="#b4397e65x" x="392.71525" y="876.852"/><use xlink:href="#b4397e65y" x="399.38225" y="876.852"/><use xlink:href="#b4397e65z" x="406.04925" y="876.852"/><use xlink:href="#b4397e65p" x="412.71625" y="876.852"/><use xlink:href="#b4397e65A" x="419.38325" y="876.852"/></g><g><use xlink:href="#b4397e65bt" x="39.59625" y="949.592"/><use xlink:href="#b4397e65bu" x="63.71625" y="949.592"/><use xlink:href="#b4397e65bv" x="89.36625" y="949.592"/><use xlink:href="#b4397e65bw" x="113.75625" y="949.592"/><use xlink:href="#b4397e65bx" x="137.42625" y="949.592"/><use xlink:href="#b4397e65by" x="163.75125" y="949.592"/></g><g fill-opacity=".33"><use xlink:href="#b4397e65g" x="60.62542" y="987"/><use xlink:href="#b4397e65h" x="67.29242" y="987"/><use xlink:href="#b4397e65i" x="73.95942" y="987"/><use xlink:href="#b4397e65j" x="80.62642" y="987"/><use xlink:href="#b4397e65k" x="87.29342" y="987"/><use xlink:href="#b4397e65l" x="93.96042" y="987"/><use xlink:href="#b4397e65j" x="100.62742" y="987"/><use xlink:href="#b4397e65m" x="107.29442" y="987"/><use xlink:href="#b4397e65l" x="113.96142" y="987"/><use xlink:href="#b4397e65k" x="120.62842" y="987"/><use xlink:href="#b4397e65g" x="127.29542" y="987"/><use xlink:href="#b4397e65ba" x="133.96242" y="987"/><use xlink:href="#b4397e65z" x="140.62942" y="987"/><use xlink:href="#b4397e65y" x="147.29642" y="987"/><use xlink:href="#b4397e65A" x="153.96342" y="987"/><use xlink:href="#b4397e65bz" x="160.63042" y="987"/></g><g><use xlink:href="#b4397e65bA" x="262.60125" y="949.592"/><use xlink:href="#b4397e65bB" x="285.95625" y="949.592"/><use xlink:href="#b4397e65bC" x="311.15625" y="949.592"/><use xlink:href="#b4397e65bD" x="334.64625" y="949.592"/><use xlink:href="#b4397e65bE" x="359.03625" y="949.592"/><use xlink:href="#b4397e65bF" x="385.40625" y="949.592"/></g><g fill-opacity=".33"><use xlink:href="#b4397e65g" x="259.37458" y="987"/><use xlink:href="#b4397e65h" x="266.04158" y="987"/><use xlink:href="#b4397e65i" x="272.70858" y="987"/><use xlink:href="#b4397e65j" x="279.37558" y="987"/><use xlink:href="#b4397e65k" x="286.04258" y="987"/><use xlink:href="#b4397e65l" x="292.70958" y="987"/><use xlink:href="#b4397e65j" x="299.37658" y="987"/><use xlink:href="#b4397e65m" x="306.04358" y="987"/><use xlink:href="#b4397e65l" x="312.71058" y="987"/><use xlink:href="#b4397e65k" x="319.37758" y="987"/><use xlink:href="#b4397e65g" x="326.04458" y="987"/><use xlink:href="#b4397e65ba" x="332.71158" y="987"/><use xlink:href="#b4397e65z" x="339.37858" y="987"/><use xlink:href="#b4397e65y" x="346.04558" y="987"/><use xlink:href="#b4397e65A" x="352.71258" y="987"/><use xlink:href="#b4397e65bz" x="359.37958" y="987"/><use xlink:href="#b4397e65g" x="366.04658" y="987"/><use xlink:href="#b4397e65w" x="372.71358" y="987"/><use xlink:href="#b4397e65x" x="379.38058" y="987"/><use xlink:href="#b4397e65y" x="386.04758" y="987"/><use xlink:href="#b4397e65z" x="392.71458" y="987"/><use xlink:href="#b4397e65p" x="399.38158" y="987"/><use xlink:href="#b4397e65A" x="406.04858" y="987"/></g></svg>