<?xml version='1.0' encoding='UTF-8'?>
<svg xmlns="http://www.w3.org/2000/svg" xmlns:xlink="http://www.w3.org/1999/xlink" width="600px" height="300px" viewBox="0 0 600 300" x="0px" y="0px" enable-background="new 0 0 600 300"><defs><symbol overflow="visible" id="cbec6b9fa"><path d="M5.34-32.77V-.12C8.22.3 12.6.66 16.02.66c9.67 0 14.53-3.9 14.53-10.02 0-4.33-2.77-7.2-7.27-8.16 3.66-1.5 5.45-4.26 5.45-7.75 0-5.39-4.96-8.21-13.18-8.21-3.32 0-7.4.42-10.2.71zm18.6 8.41a4.8 4.8 0 01-2.75 4.44 12.6 12.6 0 01-5.47 1.01c-1.63 0-3.6 0-5.77-.04v-10.2c1.82-.2 3.9-.3 5.6-.3 5.26 0 8.39 1.25 8.39 5.1zm-7.8 9.17c6.9 0 9.6 2.05 9.6 5.83 0 2.1-1.15 3.78-3 4.73-1.61.85-3.79 1.27-6.47 1.27a84.7 84.7 0 01-6.32-.3v-11.46c2.11-.07 4.75-.07 6.2-.07zm0 0"/></symbol><symbol overflow="visible" id="cbec6b9fb"><path d="M27.55-4.02H10.02v-10.8h14.17v-4.02H10.02v-10.02h17.46l.18-4.02H5.34V0h22.38zm0 0"/></symbol><symbol overflow="visible" id="cbec6b9fc"><path d="M5.34-32.7V0h4.74v-11.64c1.37.12 2.83.19 4.01.19 9.49 0 15.2-4.27 15.2-11.53 0-6.83-4.93-10.61-14.84-10.5-3.1 0-6.23.3-9.1.78zm9.36 3.42c6.24 0 9.72 1.92 9.72 6.48a6.27 6.27 0 01-3.9 6.11c-1.8.78-4.02 1.1-6.47 1.1-1.14 0-2.64-.07-3.97-.2v-13.26c1.56-.17 3.12-.23 4.62-.23zm0 0"/></symbol><symbol overflow="visible" id="cbec6b9fd"><path d="M3.3-15.84C3.3-6.48 8.64.66 19.56.66c4.25 0 7.8-.9 10.67-2.22l-1.25-3.6c-2.46.9-5.34 1.61-8.76 1.61-8.94 0-12-6.04-12-12.6 0-4.5 1.44-8.4 4.37-10.73 1.82-1.5 4.27-2.4 7.33-2.4 3.36 0 5.94.84 8.4 1.98l1.55-3.48a18.96 18.96 0 00-10.01-2.7C8.58-33.48 3.3-25.14 3.3-15.84zm0 0"/></symbol><symbol overflow="visible" id="cbec6b9fe"><path d="M10.08-32.88H5.34V0h4.86l15.53-21.95L28.56-27h.13l-.49 6.19V0H33v-32.88h-4.92l-15.66 22.5-2.76 4.5h-.07l.49-5.89zm0 0"/></symbol><symbol overflow="visible" id="cbec6b9ff"><path d="M17.88-12.95h6.42V0h4.68v-32.7a69.52 69.52 0 00-10.32-.78c-9.47 0-14.52 3.35-14.52 10.32 0 4.32 2.4 7.32 6.42 8.88-2.58 1.14-3.65 3.6-5.47 8.05C4.2-4.08 3.06-1.2 2.52 0h5.1c4.38-11.16 4.8-12.95 10.25-12.95zm.54-4.03c-6.3 0-9.36-1.8-9.36-6.24 0-4.73 3.36-6.12 9.17-6.12 2.54 0 4.33.12 6.07.36v12zm0 0"/></symbol><symbol overflow="visible" id="cbec6b9fg"><path d="M3.83 0v-5.95H6.2v-.82H.45v.82h2.4V0zm0 0"/></symbol><symbol overflow="visible" id="cbec6b9fh"><path d="M5.75-2.23v-.43c0-1.6-.9-2.51-2.42-2.51S.87-4.16.87-2.48c0 1.71.91 2.62 2.5 2.62 1.43 0 2.07-.56 2.29-1.52l-.9-.09c-.18.61-.59.9-1.35.9-.94 0-1.52-.54-1.58-1.66zm-2.4-2.2c.93 0 1.43.5 1.48 1.55H1.84c.08-1.07.6-1.56 1.5-1.56zm0 0"/></symbol><symbol overflow="visible" id="cbec6b9fi"><path d="M1.83 0l1.42-2h.06l1.46 2H5.8L4-2.53l1.78-2.49H4.8L3.42-3.08h-.08l-1.4-1.94H.89l1.78 2.49L.84 0zm0 0"/></symbol><symbol overflow="visible" id="cbec6b9fj"><path d="M5.52-4.25v-.77H3.17v-1.56h-.81l-.14 1.56H.75v.77h1.47v2.4c0 1.3.48 1.94 1.84 1.94C4.6.1 5.14 0 5.55-.14L5.4-.91c-.32.13-.72.2-1.13.2-.8 0-1.1-.37-1.1-1.23v-2.31zm0 0"/></symbol><symbol overflow="visible" id="cbec6b9fk"><path d="M3.33-3.42c.47 0 .8-.27.8-.8 0-.51-.33-.8-.8-.8-.47 0-.8.29-.8.8 0 .53.33.8.8.8zm0 3.5c.47 0 .8-.27.8-.78 0-.53-.33-.82-.8-.82-.47 0-.8.29-.8.82 0 .51.33.78.8.78zm0 0"/></symbol><symbol overflow="visible" id="cbec6b9fm"><path d="M4.78-2.63c.55-.14.86-.5.86-1.07 0-.9-.55-1.32-1.76-1.32H1.44V0h2.39c1.34 0 1.95-.4 1.95-1.38 0-.67-.37-1.04-1-1.18zM3.72-4.36c.75 0 1 .22 1 .72 0 .48-.27.77-1.13.77H2.36v-1.49zM2.36-.66v-1.57h1.31c.85 0 1.19.23 1.19.78 0 .54-.28.8-1.13.8zm0 0"/></symbol><symbol overflow="visible" id="cbec6b9fn"><path d="M5.75-2.23v-.43c0-1.6-.9-2.51-2.42-2.51S.87-4.16.87-2.48c0 1.71.91 2.62 2.5 2.62 1.43 0 2.07-.56 2.29-1.52l-.9-.09c-.18.61-.59.9-1.35.9-.94 0-1.52-.54-1.58-1.66zm-2.4-2.2c.93 0 1.43.5 1.48 1.55H1.84c.08-1.07.6-1.56 1.5-1.56zm0 0"/></symbol><symbol overflow="visible" id="cbec6b9fo"><path d="M2.06 1.9V-.84h.05c.28.58.8.97 1.77.97 1.5 0 2.2-.98 2.2-2.66 0-1.65-.7-2.64-2.19-2.64-.97 0-1.5.44-1.78 1.05h-.08l-.1-.9H1.1v6.9zm1.5-2.56c-1.06 0-1.53-.8-1.53-1.86 0-1.04.47-1.84 1.53-1.84 1.11 0 1.53.61 1.53 1.84 0 1.27-.42 1.86-1.53 1.86zm0 0"/></symbol><symbol overflow="visible" id="cbec6b9fp"><path d="M3.34.14c1.43 0 2.13-.66 2.25-1.78l-.89-.1c-.1.7-.5 1.08-1.34 1.08-1.03 0-1.52-.64-1.52-1.84 0-1.23.47-1.86 1.52-1.86.84 0 1.23.36 1.34 1.08l.9-.1c-.13-1.09-.82-1.78-2.26-1.78-1.56 0-2.46.97-2.46 2.66 0 1.66.9 2.64 2.46 2.64zm0 0"/></symbol><symbol overflow="visible" id="cbec6b9fq"><path d="M2.03 0L4.6-3.72h.08V0h.92v-5.02h-.96L2.06-1.27H2v-3.75h-.92V0zm0 0"/></symbol><symbol overflow="visible" id="cbec6b9fr"><path d="M2.92-5.02c-1.34 0-1.95.54-1.95 1.55 0 .9.47 1.4 1.34 1.52L.87 0h1.1l1.36-1.88h1.04V0h.96v-5.02zm.11 2.47c-.81 0-1.1-.3-1.1-.9 0-.61.29-.86 1.1-.86h1.35v1.76zm0 0"/></symbol><symbol overflow="visible" id="cbec6b9fs"><path d="M5.95-6.77H1.1V0h.99v-2.92H5.3v-.77H2.08v-2.26h3.87zm0 0"/></symbol><symbol overflow="visible" id="cbec6b9ft"><path d="M2.83.14c.94 0 1.5-.39 1.81-.95h.08l.1.81h.76v-3.38c0-1.23-.69-1.8-2.13-1.8-1.43 0-2.03.65-2.18 1.6l.93.1c.11-.6.44-.93 1.22-.93.85 0 1.22.32 1.22 1.04v.34l-1.81.2C1.6-2.7 1.1-2.17 1.1-1.28c0 .92.64 1.42 1.72 1.42zm.25-.77c-.67 0-1.02-.28-1.02-.74 0-.44.28-.72 1-.82l1.58-.19v.41c0 .8-.6 1.34-1.56 1.34zm0 0"/></symbol><symbol overflow="visible" id="cbec6b9fu"><path d="M2.73.14c.9 0 1.43-.45 1.74-1.08h.06l.13.94h.8v-5.02h-.94v2.7c0 .98-.57 1.62-1.46 1.62-.75 0-1.1-.4-1.1-1.22v-3.1h-.93v3.32c0 1.17.55 1.84 1.7 1.84zm0 0"/></symbol><symbol overflow="visible" id="cbec6b9fv"><path d="M5.08-5.16c-.94 0-1.58.43-1.9 1.3h-.09l-.07-1.16H1.05v.77h1.1v3.48H.96V0h3.96v-.77H3.1v-1.46c0-1.36.6-2.05 1.83-2.05.4 0 .76.08 1.1.17l.15-.87c-.33-.11-.7-.18-1.11-.18zm0 0"/></symbol><symbol overflow="visible" id="cbec6b9fw"><path d="M3.42.14C5.1.14 5.9-.69 6.11-2.17l-.95-.1C4.96-1.19 4.5-.69 3.44-.69c-1.27 0-1.81-.94-1.81-2.69s.54-2.7 1.8-2.7c1.09 0 1.5.49 1.73 1.58l.93-.1c-.21-1.46-.95-2.3-2.62-2.3C1.53-6.9.62-5.6.62-3.38c0 2.2.91 3.51 2.8 3.51zm0 0"/></symbol><symbol overflow="visible" id="cbec6b9fx"><path d="M3.42-.86h-.08L1.77-5.02H.8L2.73 0h.41c-.33.95-.72 1.27-1.45 1.27-.22 0-.49-.04-.69-.08l-.1.73c.2.06.58.11.87.11 1.2 0 1.7-.7 2.21-2.03l1.94-5.02H5zm0 0"/></symbol><symbol overflow="visible" id="cbec6b9fy"><path d="M3.58-5.81c.42 0 .72-.22.72-.67 0-.44-.3-.68-.72-.68-.44 0-.72.24-.72.68 0 .45.28.67.72.67zm.5.8H1.52v.76h1.6v3.48h-1.8V0h4.46v-.77h-1.7zm0 0"/></symbol><symbol overflow="visible" id="cbec6b9fz"><path d="M3.92-7.14H1.36v.76h1.6v5.61H1.15V0H5.7v-.77H3.92zm0 0"/></symbol><symbol overflow="visible" id="cbec6b9fA"><path d="M3.34.14c1.43 0 2.13-.66 2.25-1.78l-.89-.1c-.1.7-.5 1.08-1.34 1.08-1.03 0-1.52-.64-1.52-1.84 0-1.23.47-1.86 1.52-1.86.84 0 1.23.36 1.34 1.08l.9-.1c-.13-1.09-.82-1.78-2.26-1.78-1.56 0-2.46.97-2.46 2.66 0 1.66.9 2.64 2.46 2.64zm0 0"/></symbol><symbol overflow="visible" id="cbec6b9fB"><path d="M3.36.16c1.4 0 2.2-.6 2.2-1.57 0-.89-.54-1.22-1.47-1.39L3-3c-.67-.14-.86-.33-.86-.73 0-.5.4-.74 1.17-.74.83 0 1.19.27 1.27.8l.9-.05c-.12-1-.8-1.47-2.17-1.47-1.34 0-2.1.53-2.1 1.5 0 .81.45 1.22 1.52 1.44l1.04.2c.56.11.87.24.87.72 0 .52-.45.78-1.28.78-.95 0-1.36-.28-1.42-.87l-.9.06C1.07-.36 1.8.16 3.35.16zm0 0"/></symbol><symbol overflow="visible" id="cbec6b9fC"><path d="M1.63 0v-2.9c0-.8.15-1.4.71-1.4.41 0 .55.3.55.88V0h.95v-2.9c0-.8.18-1.4.72-1.4.4 0 .57.3.57.88V0h.95v-3.63c0-.92-.28-1.53-1.11-1.53-.63 0-.95.41-1.1.9h-.06c-.1-.52-.44-.9-1.08-.9-.6 0-.93.41-1.06.9H1.6l-.23-.76H.67V0zm0 0"/></symbol><symbol overflow="visible" id="cbec6b9fD"><path d="M2.06 1.9V-.84h.05c.28.58.8.97 1.77.97 1.5 0 2.2-.98 2.2-2.66 0-1.65-.7-2.64-2.19-2.64-.97 0-1.5.44-1.78 1.05h-.08l-.1-.9H1.1v6.9zm1.5-2.56c-1.06 0-1.53-.8-1.53-1.86 0-1.04.47-1.84 1.53-1.84 1.11 0 1.53.61 1.53 1.84 0 1.27-.42 1.86-1.53 1.86zm0 0"/></symbol><symbol overflow="visible" id="cbec6b9fE"><path d="M1.45-2.95c0 2.56 1.08 4.37 3.67 4.84l.11-.67C3.28.86 2.43-.75 2.43-2.95s.85-3.82 2.8-4.16l-.1-.69c-2.6.49-3.68 2.3-3.68 4.85zm0 0"/></symbol><symbol overflow="visible" id="cbec6b9fF"><path d="M5.4-1.22c.43-.66.66-1.51.66-2.44l-.83-.09c0 .75-.14 1.4-.4 1.92l-1.7-1.83c.8-.42 1.39-.96 1.39-1.86 0-.87-.66-1.4-1.61-1.4-1.14 0-1.72.62-1.72 1.47 0 .72.47 1.3.83 1.68-.8.41-1.52.99-1.52 2.1C.5-.44 1.52.14 2.7.14c.9 0 1.64-.3 2.2-.78l.58.64h1.05zM2.86-6.25c.44 0 .82.23.82.73 0 .7-.47 1.11-1 1.41-.47-.53-.67-.92-.67-1.34 0-.47.3-.8.85-.8zM2.81-.62c-.83 0-1.42-.41-1.42-1.18 0-.76.5-1.18 1.05-1.5l1.94 2.1c-.4.37-.91.57-1.57.57zm0 0"/></symbol><symbol overflow="visible" id="cbec6b9fG"><path d="M5.67 0v-.86H2.14V-.9L3.6-2c1.05-.83 2-1.68 2-2.91 0-1.19-.73-1.99-2.26-1.99-1.66 0-2.3 1.02-2.44 2.33l1 .08c.1-.92.42-1.58 1.44-1.58.87 0 1.26.44 1.26 1.24 0 .9-.8 1.53-1.96 2.53L.83-.81V0zm0 0"/></symbol><symbol overflow="visible" id="cbec6b9fH"><path d="M1.45-7.1c1.96.33 2.8 1.94 2.8 4.15 0 2.2-.84 3.8-2.8 4.17l.11.67c2.58-.47 3.67-2.28 3.67-4.84 0-2.55-1.09-4.36-3.67-4.85zm0 0"/></symbol></defs><g fill="#fff"><use xlink:href="#cbec6b9fa" x="199.35" y="151"/><use xlink:href="#cbec6b9fb" x="233.01" y="151"/><use xlink:href="#cbec6b9fc" x="263.79" y="151"/><use xlink:href="#cbec6b9fd" x="295.59" y="151"/><use xlink:href="#cbec6b9fe" x="328.11" y="151"/><use xlink:href="#cbec6b9ff" x="366.39" y="151"/><use xlink:href="#cbec6b9fg" x="260" y="252"/><use xlink:href="#cbec6b9fh" x="266.667" y="252"/><use xlink:href="#cbec6b9fi" x="273.334" y="252"/><use xlink:href="#cbec6b9fj" x="280.001" y="252"/><use xlink:href="#cbec6b9fk" x="286.668" y="252"/><use xlink:href="#cbec6b9fl" x="293.335" y="252"/><use xlink:href="#cbec6b9fm" x="300.002" y="252"/><use xlink:href="#cbec6b9fn" x="306.669" y="252"/><use xlink:href="#cbec6b9fo" x="313.336" y="252"/><use xlink:href="#cbec6b9fp" x="320.003" y="252"/><use xlink:href="#cbec6b9fq" x="326.67" y="252"/><use xlink:href="#cbec6b9fr" x="333.337" y="252"/><g><use xlink:href="#cbec6b9fs" x="146.6667" y="266"/><use xlink:href="#cbec6b9fh" x="153.3337" y="266"/><use xlink:href="#cbec6b9ft" x="160.0007" y="266"/><use xlink:href="#cbec6b9fj" x="166.6677" y="266"/><use xlink:href="#cbec6b9fu" x="173.3347" y="266"/><use xlink:href="#cbec6b9fv" x="180.0017" y="266"/><use xlink:href="#cbec6b9fh" x="186.6687" y="266"/><use xlink:href="#cbec6b9fk" x="193.3357" y="266"/><use xlink:href="#cbec6b9fl" x="200.0027" y="266"/><use xlink:href="#cbec6b9fw" x="206.6697" y="266"/><use xlink:href="#cbec6b9fx" x="213.3367" y="266"/><use xlink:href="#cbec6b9fv" x="220.0037" y="266"/><use xlink:href="#cbec6b9fy" x="226.6707" y="266"/><use xlink:href="#cbec6b9fz" x="233.3377" y="266"/><use xlink:href="#cbec6b9fz" x="240.0047" y="266"/><use xlink:href="#cbec6b9fy" x="246.6717" y="266"/><use xlink:href="#cbec6b9fA" x="253.3387" y="266"/><use xlink:href="#cbec6b9fl" x="260.0057" y="266"/><use xlink:href="#cbec6b9fB" x="266.6727" y="266"/><use xlink:href="#cbec6b9fC" x="273.3397" y="266"/><use xlink:href="#cbec6b9ft" x="280.0067" y="266"/><use xlink:href="#cbec6b9fz" x="286.6737" y="266"/><use xlink:href="#cbec6b9fz" x="293.3407" y="266"/><use xlink:href="#cbec6b9fl" x="300.0077" y="266"/><use xlink:href="#cbec6b9fA" x="306.6747" y="266"/><use xlink:href="#cbec6b9ft" x="313.3417" y="266"/><use xlink:href="#cbec6b9fD" x="320.0087" y="266"/><use xlink:href="#cbec6b9fy" x="326.6757" y="266"/><use xlink:href="#cbec6b9fj" x="333.3427" y="266"/><use xlink:href="#cbec6b9ft" x="340.0097" y="266"/><use xlink:href="#cbec6b9fz" x="346.6767" y="266"/><use xlink:href="#cbec6b9fB" x="353.3437" y="266"/><use xlink:href="#cbec6b9fl" x="360.0107" y="266"/><use xlink:href="#cbec6b9fE" x="366.6777" y="266"/><use xlink:href="#cbec6b9fB" x="373.3447" y="266"/><use xlink:href="#cbec6b9fC" x="380.0117" y="266"/><use xlink:href="#cbec6b9fA" x="386.6787" y="266"/><use xlink:href="#cbec6b9fD" x="393.3457" y="266"/><use xlink:href="#cbec6b9fl" x="400.0127" y="266"/><use xlink:href="#cbec6b9fF" x="406.6797" y="266"/><use xlink:href="#cbec6b9fl" x="413.3467" y="266"/><use xlink:href="#cbec6b9fA" x="420.0137" y="266"/><use xlink:href="#cbec6b9fG" x="426.6807" y="266"/><use xlink:href="#cbec6b9fB" x="433.3477" y="266"/><use xlink:href="#cbec6b9fA" x="440.0147" y="266"/><use xlink:href="#cbec6b9fH" x="446.6817" y="266"/></g></g></svg>