<svg height="2000" viewBox="0 0 1000 2000" width="1000" xmlns="http://www.w3.org/2000/svg" xmlns:xlink="http://www.w3.org/1999/xlink"><defs><symbol id="a" overflow="visible"><path d="M90.219-105.86L64.938-16.437h-.47l-4.421-18.484-20.86-70.937H22.125l-11.86 94.484C9.798-7.578 9.157-3.312 9 0h11.703l10.578-88.797h.485L36.5-69.672 56.875 0h14.86l25.593-88.64h.469l1.906 19.124 9 69.516h12.016c-.172-3.313-.797-6.953-1.266-10.594l-12.016-95.265zm0 0"/></symbol><symbol id="b" overflow="visible"><path d="M52.297-72.844c3.953 9.797 7.422 22.125 7.422 36.985 0 17.687-5.532 27.172-18.797 27.172-11.063 0-16.75-7.266-16.75-22.282v-42.968l-12.485.312v42.969c0 20.86 9.329 32.703 29.079 32.703 21.953 0 31.593-15.485 31.593-38.703 0-15.953-4.421-30.657-8.375-39.657zm0 0"/></symbol><symbol id="c" overflow="visible"><path d="M41.234-8.531c-13.422 0-20.218-12.172-20.218-25.594 0-17.063 9.484-29.234 28.125-29.234 7.734 6.797 12.156 17.218 12.156 29.39 0 14.219-6.938 25.438-20.063 25.438zm32.703-25.125c0-11.688-4.89-22.75-12.156-29.703l7.578.312h15.485v-11.219H47.719c-26.703 0-39.5 20.235-39.5 40.454 0 19.75 12.156 36.03 32.547 36.03 21.484 0 33.172-17.859 33.172-35.874zm0 0"/></symbol><symbol id="d" overflow="visible"><path d="M4.11-73.781v11.219h23.546v45.343c0 12.157 6.469 18.953 17.532 18.953 6 0 10.906-1.265 14.859-3l-2.375-9.484c-2.531.797-6 1.75-9.64 1.75-5.844 0-8.063-3.328-8.063-10.281v-43.282H65.89V-73.78zm0 0"/></symbol><symbol id="e" overflow="visible"><path d="M11.531-73.469c1.11 15.64 1.266 22.906 1.266 28.594V0H25.28v-55.781C32.078-61.47 39.5-65.25 47.406-65.25c9.797 0 12.313 6.469 12.313 19.75v83.422h12.484V-50.25C72.203-66.672 66.516-76 50.25-76c-10.125 0-18.484 3.953-26.234 11.375l-2.047-10.266zm0 0"/></symbol><symbol id="f" overflow="visible"><path d="M42.188-65.25c13.906 0 19.28 10.89 19.28 27.797 0 16.437-6.015 28.922-21.5 28.922-5.843 0-11.218-1.578-15.952-4.11V-39.5c0-17.375 4.89-25.75 18.172-25.75zm-.641 67.469c21.344 0 32.719-19.125 32.719-40.14C74.266-60.517 64.14-76 42.344-76 22.28-76 11.53-64.14 11.53-40.297v78.219h12.485v-40.61C28.438.156 34.125 2.22 41.546 2.22zm0 0"/></symbol><symbol id="g" overflow="visible"><path d="M12.328-73.625v56.406c0 12.485 6.625 18.953 17.844 18.953 6.172 0 11.062-1.421 15.015-3.156l-2.53-9.484C40.296-10.11 36.968-9 33.186-9c-5.703 0-8.374-2.688-8.374-10.125v-54.813zm0 0"/></symbol><symbol id="h" overflow="visible"><path d="M82.313-72.047c5.53 9.484 13.124 24.484 13.124 42.031 0 13.907-5.374 21.328-14.703 21.328-12.328 0-16.265-14.703-16.265-29.546v-13.282H52.14v13.282c0 14.843-4.735 29.547-17.063 29.547-9.172 0-14.062-6.797-14.062-21.172 0-18.016 7.734-33.032 13.265-42.188l-10.265-4.422C17.063-66.829 8.53-48.188 8.53-29.547c0 19.75 9.485 31.594 25.125 31.594 13.266 0 21.172-9.313 24.485-21.328 3 12.172 10.437 21.328 23.547 21.328 15.328 0 26.39-12 26.39-31.906 0-18.485-8.703-36.97-15.484-46.61zM51.672-88l8.047 3.469 12.968-24.328v-1.422l-11.062-4.75zm0 0"/></symbol><symbol id="i" overflow="visible"><path d="M16.75-98.438c0 10.75 6.953 19.282 16.11 26.547C18.015-64.78 8.218-48.984 8.218-32.234c0 19.75 12.328 34.453 32.547 34.453 20.375 0 33.015-15.485 33.015-36.032 0-19.124-10.422-29.859-26.547-41.718-10.422-7.422-17.843-13.735-17.843-22.594 0-7.578 4.89-11.219 12.64-11.219 7.89 0 15 3.485 23.063 8.703l5.219-9.328c-7.11-5.531-16.126-10.265-28.766-10.265-15.797 0-24.797 8.046-24.797 21.796zM40.922-8.53c-12.797 0-19.906-10.906-19.906-23.86 0-16.265 9.328-29.078 21.172-33.015C53.093-57.36 60.983-48.828 60.983-33.5c0 14.063-7.265 24.969-20.062 24.969zm0 0"/></symbol><symbol id="j" overflow="visible"><path d="M8.219-37.922c0 21.328 13.75 28.766 27.484 35.703 7.438 3.64 13.281 6.797 13.281 12.969 0 5.203-4.265 8.375-8.375 10.422l4.735 9.172c8.062-2.532 15.953-8.86 15.953-20.078 0-11.375-8.531-16.907-17.531-21.485-13.422-6.64-22.75-12-22.75-28.281 0-14.531 7.422-25.125 20.218-25.125 7.907 0 14.22 3.484 18.485 7.11l5.531-8.047c-4.89-4.907-12.797-9.97-24.016-9.97-20.53 0-33.015 17.391-33.015 37.61zm0 0"/></symbol><symbol id="k" overflow="visible"><path d="M11.328 1.594l32.563-55.047-.61-5.844H7.171l-.187 5.844h29.391L5.312-1.5zm0 0"/></symbol><symbol id="l" overflow="visible"><path d="M13.89-76.375l-5.046 3.094c8.234 12.922 10.453 28.14 10.453 36.906 0 20.625-10.094 40.36-22.125 52.656l4.515 3.547C15.485 6.547 26.203-14.516 26.203-36.375c0-10.797-2.75-25.656-12.312-40zm0 0"/></symbol><symbol id="n" overflow="visible"><path d="M48.406-59.297L15.938-29.828l3.89-29.469h-6.547L5.484 0h6.547l2.844-21.688 9.203-8.218 3.797 6.89L40.625 0h6.813c-.626-1.953-1.766-4.078-3.094-6.453L28.766-34.078l24.25-21.672c1.14-1.063 2.203-2.484 2.39-3.547zm0 0"/></symbol><symbol id="o" overflow="visible"><path d="M15.406-4.344c-3.906-.797-5.234-4.953-5.234-9.64 0-10 6.031-22.485 13.906-22.922 4.766 1.156 6.625 8.672 6.985 20.187-5.22 7.422-11.157 12.032-15.657 12.375zM3.72-13.719c0 8.844 3.625 15.047 10.797 15.047 6.28 0 12.03-5.14 17.078-12.031.89 7.422 2.218 11.937 7.515 11.937 3.985 0 7.891-2.468 10.72-5.218l-2.657-4.25c-2.125 1.78-5.578 3.89-7.344 3.89-1.953-.703-3.281-5.218-3.984-11.234 4.953-7.344 10.265-16.906 13.718-24.781l-6.374-2.125c-2.22 5.047-5.579 13.547-8.047 19.39-.532-10.531-1.953-19.39-10.985-19.39C12.22-42.484 3.72-27.172 3.72-13.72zm0 0"/></symbol><symbol id="p" overflow="visible"><path d="M37.266-2.828c-2.22-8.14-5.5-24.172-8.157-41.516-3-19.281-3.53-23.093-11.5-23.093-3.453 0-6.812 1.5-9.375 3.015l2.032 4.953c1.687-.797 4.609-2.218 6.64-2.218 2.39.453 4.157 3.015 4.86 9.203l1.25 9.922C14.344-26.11 6.453-13.095-.625-1.767v.532l5.844 2.296c6.015-10 13.718-24.156 19.468-36.203h.36c.172 2.922.531 5.938.969 8.672C27.703-15.14 29.64-6.109 31.328 0h6.547c-.078-.703-.344-1.688-.61-2.828zm0 0"/></symbol><symbol id="q" overflow="visible"><path d="M47.531-39.563c4.235 5.938 7.157 11.86 7.157 19.391 0 9.11-3.266 15.031-8.844 15.828-8.14 0-11.063-8.047-9.563-18.312l.89-6.016h-6.28L30-22.656c-1.422 9.468-5.39 17.515-11.953 18.312-5.39 0-7.875-4.156-7.875-9.906 0-9.375 4.437-17.781 11.86-24.688l-3.891-3.718C10.094-36.016 3.719-25.75 3.719-13.984c0 9.03 4.687 15.14 13.453 15.14 6.906 0 11.937-5.312 14.594-12.484 1.156 7.172 5.312 12.484 13.109 12.484 9.64 0 16.281-8.86 16.281-21.515 0-8.407-4.25-16.985-8.937-22.297zm-14.25-10.093l3.985 2.39 8.406-13.187v-.703l-5.313-2.922zm0 0"/></symbol><symbol id="r" overflow="visible"><path d="M32.484 5.313c0-5.75-4.437-8.766-8.672-10.891-7.968-3.984-13.109-6.719-13.109-14.156 0-5.844 3.281-12.828 7.797-15.672a14.713 14.713 0 0 1 6.281-1.407c4.25 0 7.875 1.672 10.266 3.72l3.016-4.344c-2.313-2.297-6.204-4.782-12.313-4.782-13.625 0-21.594 11.86-21.594 22.75 0 9.735 5.75 13.188 13.89 17.516 3.985 2.047 7.36 3.906 8.423 7.437-.532 3.094-2.657 5.313-5.844 7.344l2.656 4.344c3.797-1.688 9.203-5.485 9.203-11.86zm0 0"/></symbol><symbol id="s" overflow="visible"><path d="M34.156-41.156c-.797 11.328-7.515 23.281-16.281 34.078h-.36l-1.312-7.344-5.047-26.734H4.953c-.172 1.25.094 2.562.36 3.812L13.015.094l5.562-.188c14.078-14.86 21.516-30.172 21.516-39.375v-1.687zm0 0"/></symbol><symbol id="t" overflow="visible"><path d="M12.922-49.031c0-4.688 1.687-8.313 4.328-10.532 2.125-1.5 5.234-2.296 8.422-2.296 7.875 0 10.703 4.515 10.797 14.422 0 3.187-.266 7.265-.719 11.765-11.14.188-22.828-1.766-22.828-13.36zm6.906 50.093c7.781 0 12.563-4.078 15.578-10.359 4.953-9.469 7.344-27.61 7.344-38.406.078-12.828-5.578-19.734-16.734-19.734-11.672 0-19.375 7.968-19.375 18.578 0 15.312 15.125 18.765 28.406 18.765-.969 6.203-2.297 12.578-3.984 17.61-2.032 4.437-5.657 7.968-10.97 7.968-7.702 0-10.89-5.39-9.655-14.687l.984-7.344H5.047l-.969 7.438C2.297-6.375 8.047 1.063 19.828 1.063zm0 0"/></symbol><symbol id="u" overflow="visible"><path d="M26.813-37.078c5.218.266 7.078 5.219 7.078 11.86 0 7.437-2.828 15.046-7.422 18.671-2.125 1.328-5.407 2.203-8.157 2.203-2.828 0-5.921-.703-8.75-2.031 1.938-16.719 6.907-30.266 17.25-30.703zM9.108 21.234c-.265-2.734-.53-5.828-.53-9.015 0-4.25.187-8.594.452-12.75 2.656 1.062 5.656 1.765 8.75 1.765 13.453 0 22.657-12.562 22.657-26.906 0-9.64-4.235-16.812-13.172-16.812-19.032 0-25.141 25.406-25.141 54.609 0 3.719.172 6.984.438 9.734zm0 0"/></symbol><symbol id="v" overflow="visible"><path d="M23.813-42.219c-9.657 0-17.172 3.985-17.172 11.516 0 4.062 2.734 7.687 7.875 9.281C7.875-20 3.016-16.016 3.016-9.906c0 7.953 7.609 10.969 16.812 10.969 6.906 0 12.922-1.766 16.719-3.282l-1.5-4.687c-3.453 1.062-9.11 2.656-14.61 2.656-6.28 0-11.062-1.672-11.062-6.453 0-5.235 5.672-7.797 15.234-7.797H31.5l.719-4.953h-6.735c-8.843 0-12.468-3.016-12.468-7.25 0-2.125 1.062-3.719 2.734-4.703 2.125-.969 5.219-1.5 8.594-1.5 5.218 0 10.437 1.328 14.156 3.093l2.031-4.593c-4.593-2.297-9.828-3.813-16.718-3.813zm0 0"/></symbol><symbol id="w" overflow="visible"><path d="M5.75-11.5C4.25 0 3.36 12.484 4.078 21.594l6.281-.703c-.718-7.172-.359-16.203.61-25.235 1.25 3.11 3.812 5.672 8.594 5.672 6.906 0 11.765-4.61 14.25-10.094-.454 7.079 2.124 10.094 6.89 10.094 4.344 0 7.797-2.484 10.89-5.312l-2.562-4.157c-2.297 1.766-5.578 3.891-7.61 3.891-2.577-.531-2.577-3.984-1.78-10.172l3.453-26.734h-6.36L34.25-22.391C33.016-12.92 27.531-4.25 19.828-4.25c-5.14-.625-7.797-6.375-6.812-13.89l3.093-23.188-6.375.266zm0 0"/></symbol><symbol id="x" overflow="visible"><path d="M23.813-42.219c-9.657 0-17.172 3.985-17.172 11.516 0 4.062 2.734 7.687 7.875 9.281C7.875-20 3.016-16.016 3.016-9.906c0 7.953 7.609 10.969 16.812 10.969 6.906 0 12.922-1.766 16.719-3.282l-1.5-4.687c-3.453 1.062-9.11 2.656-14.61 2.656-6.28 0-11.062-1.672-11.062-6.453 0-5.235 5.672-7.797 15.234-7.797H31.5l.719-4.953h-6.735c-8.843 0-12.468-3.016-12.468-7.25 0-2.125 1.062-3.719 2.734-4.703 2.125-.969 5.219-1.5 8.594-1.5 5.218 0 10.437 1.328 14.156 3.093l2.031-4.593c-4.593-2.297-9.828-3.813-16.718-3.813zm-1.516-7.437l3.984 2.39 8.407-13.187v-.703l-5.313-2.922zm0 0"/></symbol><symbol id="y" overflow="visible"><path d="M3.89-16.375c0 10.719 5.75 17.703 16.282 17.703 13.187 0 22.578-12.75 22.578-25.937 0-10.172-5.313-17.875-16.203-17.875-13.453 0-22.656 13.187-22.656 26.109zm32.313-8.047c0 8.047-3.375 15.047-8.156 18.5a15.01 15.01 0 0 1-6.985 1.766c-6.984 0-10.703-5.313-10.703-12.313 0-7.687 3.266-15.125 8.313-18.75C20.437-36.28 23.016-37 25.578-37c7.61 0 10.625 5.406 10.625 12.578zm0 0"/></symbol><symbol id="z" overflow="visible"><path d="M1-19.344l-.328 4.516 10.5 14.234 9.047-5.531-5.453-10.563 8.25-10.578-8.391-6.39zm19.219 0l-.328 4.516L30.39-.594l9.047-5.531-5.454-10.563 8.25-10.578-8.39-6.39zm0 0"/></symbol><symbol id="A" overflow="visible"><path d="M3.656-44.563l-.594 10.579h9.376L8.046 0h13.969l4.515-33.984h9.516l1.594-10.578zm0 0"/></symbol><symbol id="B" overflow="visible"><path d="M.469-12.703C.469-5.313 4.656.859 14.234.859c14.688 0 19.344-13.625 19.282-21.672.062-7.39-4.063-13.562-13.703-13.562C5.124-34.375.53-20.75.468-12.703zm19.422-8.438c.062 3.188-.735 9.375-2 12.625-.47.266-1.125.344-1.735.344-1.187 0-1.984-1.61-1.984-4.265 0-3.188.797-9.376 2.047-12.641.547-.188 1.14-.328 1.734-.328 1.266 0 1.938 1.593 1.938 4.265zm0 0"/></symbol><symbol id="D" overflow="visible"><path d="M5.922-44.563L.062 0h13.97l4.452-33.984h7.578L21.61 0h13.97l5.843-44.563zm0 0"/></symbol><symbol id="E" overflow="visible"><path d="M19.688-25.203c.53.734.656 2.39.656 4.39 0 2.594-.657 8.375-2.063 11.641-.593.125-1.515.188-2.656.188-.469 0-.922 0-1.453-.063 1.062-7.984 2.922-15.36 5.515-16.156zm-6.125 39.969c-.329-2.922-.532-5.782-.532-8.844 0-1.531.063-3.266.203-5.188.47.063.86.063 1.329.063 11.968 0 19.75-9.25 19.75-21.14 0-8.048-3.86-14.032-12.97-14.032C3.267-34.375-.733-14.969-.733 6.719c0 3.187.14 6.25.406 9.375zm0 0"/></symbol><symbol id="F" overflow="visible"><path d="M.469-12.703C.469-5.313 4.656.859 14.234.859c14.688 0 19.344-13.625 19.282-21.672.062-7.39-4.063-13.562-13.703-13.562C5.124-34.375.53-20.75.468-12.703zm19.422-8.438c.062 3.188-.735 9.375-2 12.625-.47.266-1.125.344-1.735.344-1.187 0-1.984-1.61-1.984-4.265 0-3.188.797-9.376 2.047-12.641.547-.188 1.14-.328 1.734-.328 1.266 0 1.938 1.593 1.938 4.265zm-5.86-19.687l6.656 3.719 8.438-11.375v-1.328l-8.578-4.579zm0 0"/></symbol><symbol id="G" overflow="visible"><path d="M33.516-16.484c0-4.922-1.797-7.922-4.86-9.516 4.86-3 7.782-7.188 7.782-12.969 0-7.047-4.454-11.578-13.36-11.578-9.047 0-13.703 4.797-17.031 12.969-2.86 6.984-4.844 17.36-4.844 24.14C1.203-3.328 5.656.735 14.828.735c12.438 0 18.688-7.39 18.688-17.218zM18.219-35.312c.937-3.72 1.734-5.579 4-6.25.984.671 1.39 1.796 1.39 3.265 0 3.656-2.328 7.438-6.78 9.234.53-2.453 1-4.656 1.39-6.25zM16.156-8.72c-1.328 0-1.86-.922-1.86-3.187 0-2.063.407-5.39 1-8.906.735-.204 1.392-.329 2.063-.329 1.922 0 2.266 1.125 2.188 3.72 0 2.858-.86 6.655-1.531 8.171-.532.344-1.125.531-1.86.531zm0 0"/></symbol><symbol id="H" overflow="visible"><path d="M33.39-3.063c-2.062-12.359-3.53-21.875-5.187-33.046-1.469-10.578-3.328-14.438-10.844-14.438-4.187 0-8.64 1.406-12.375 3l2.922 9.578c2.063-.531 4.86-1.406 6.594-1.406.39 1.14.797 2.203 1.063 4C7.108-18.547 2.124-10.109-1.595-3.391v1.125l13.297 3c2.735-6.718 4.781-13.968 6.844-21.015h.265c0 2.265-.062 4.328-.062 6.187.063 7.11.406 10.703.938 14.094h14.03c0-.734-.14-1.797-.327-3.063zm0 0"/></symbol><symbol id="I" overflow="visible"><path d="M3.531-32.578c-.61 7.844-.812 10.969-1.203 13.953L-.14 0h13.97l2.327-18.156c.61-3.516 2.125-5.578 4.063-5.578.125.453.125 1.328 0 2.656L18.484-8.25C17.422 0 15.954 6.578 13.437 12.703l12.172 3.39C28.531 11.032 30.984 3 32.453-8.311l2-15.032c.922-6.906-.734-11.031-7.187-11.031-4.594 0-8.516 2.594-10.907 6.172l-2.53-5.906zm0 0"/></symbol><symbol id="J" overflow="visible"><path d="M.734-7.313c-1 7.516-1.53 16.75-1 23.266l13.438-1.25c-.531-4.265-.735-9.047-.61-13.969C16.157.531 19.017-1.39 20.61-4.39 21.281-.859 23.672.797 27.937.797c3.782 0 7.844-1.469 9.5-2.266l-1.187-9.375c-.672.203-2.672.469-3.469.469 0-.797.14-2.266.407-4.39l2.453-18.813H21.67l-2.187 17.016c-.672 5.25-1.922 6.859-3.593 6.859-.47-.735-.594-2.203-.329-4l2.532-20.016-13.907.328zm0 0"/></symbol><symbol id="K" overflow="visible"><path d="M.469-10.438C.734-3.327 4.063.797 9.78.797c4.844 0 8.235-3.125 10.906-6.656C21.61-1.734 23.345.797 28 .797c3.328 0 6.64-1.063 8.781-2.453l-1.343-9.188c-1.126.203-2.516.469-3.579.469-.468-.469-1.14-1.531-2-2.984 3.86-4.532 7.047-10.25 9.578-18.297l-12.374-3.125c-.797 3-1 6.922-1.532 10.047h-.187c-.875-5.391-3.063-9.641-8.657-9.641C5.86-34.375.203-20.953.47-10.437zm14.687 1.266c-.594-.734-.797-2.328-.797-4.328 0-4.781 1.47-10.375 3.329-11.11 1.468 1.266 2.062 5.454 2.203 9.844-1.344 2.735-3.203 5.125-4.735 5.594zm0 0"/></symbol><symbol id="L" overflow="visible"><path d="M18.75-33.578c-7.375 0-13.031.86-17.75 2.187l1.188 10.578c2.406-.406 4.734-.796 7.25-1.062L7.905-10.5C6.922-2.797 9.438.797 16.688.797c4.53 0 8.312-1.266 10.78-2.453l-1.405-9.375c-.922.187-3.579.656-4.313.656-.078-.938.063-1.734.266-3.453l1.187-8.516h7.985l1.468-11.234zm0 0"/></symbol><symbol id="M" overflow="visible"><path d="M24.469 1.125c0-4.125-2.063-6.781-4.25-8.906-3.39-3.453-5.25-5.453-5.25-9.844 0-2.719.86-4.656 1.656-5.844.594-.203 1.266-.265 2.188-.265 2.062 0 4.468.39 6.328 1.062l3.656-8.922c-2.328-1.593-5.719-2.656-10.047-2.656C7.578-34.25.797-25.406.797-15.297c0 6.453 2.531 10.25 7.453 14.438 1.719 1.328 3.063 2.515 3.781 3.578-1 .937-2.594 1.734-3.984 2.328l3.125 8.39c6.515-.671 13.297-4.593 13.297-12.312zm0 0"/></symbol><symbol id="N" overflow="visible"><path d="M5.922-44.563L.062 0h13.97l4.452-33.984h12.578l1.72-10.578zm0 0"/></symbol><symbol id="O" overflow="visible"><path d="M16.953-34.11c-8.969 0-14.36 3.25-14.36 9.172 0 3.125 1.391 5.985 4.25 7.579-4.39 1.53-6.905 4.797-6.905 8.906 0 6.328 5.187 9.125 14.03 9.125 5.25 0 9.845-.938 12.438-1.875l-1.328-8.578a36.338 36.338 0 0 1-6.86.672c-2.452 0-4.046-.47-4.046-1.797 0-1.656 1.515-2.266 5.172-2.266h4l1-7.375H21.28c-3.187 0-4.984-.203-4.984-1.86 0-.671.187-1.202.469-1.593.859-.266 2.047-.406 3.578-.406 2.328 0 5.062.328 7.25.797l2.062-8.578c-3.39-1.204-7.172-1.922-12.703-1.922zm-5.312-6.718l6.64 3.719 8.453-11.375v-1.328l-8.578-4.579zm0 0"/></symbol><symbol id="P" overflow="visible"><path d="M17.563-16.953l-1 7.578c-2.125-1.125-2.86-3.125-2.86-5.984 0-5.657 1.719-9.985 4.656-14.704l-9.906-4.78C3.984-29.594.797-22.22.797-15.094c0 8.64 5.25 13.968 14.5 15.5l-2 14.952h12.312L27.594.406C40.172-1.39 47.28-8.984 47.28-21.016c0-7.843-5.187-13.093-14.093-13.093-10.641 0-14.376 7.515-15.626 17.156zm12.765-3.594c.266-1.734.531-3.187.735-3.797.39-.187.859-.328 1.515-.328 1.344 0 1.875 1.125 1.875 3.063 0 3.125-.875 8.047-2.406 11.375-.86.53-1.984.984-3.25 1.25zm0 0"/></symbol><symbol id="Q" overflow="visible"><path d="M19.89-33.188c.063 1.938.126 3.063.126 4.72 0 6.593-.797 15.968-1.922 19.03-.469.391-1 .594-1.672.594-1.656 0-1.86-1.594-1.531-4.187l2.734-20.688-13.906.328L1.53-16.828C.141-6.188 3.453.859 14.97.859c13.156 0 19.078-8.906 19.078-25.734 0-3.39-.266-7.11-.594-9.438zm0 0"/></symbol><symbol id="R" overflow="visible"><path d="M1.125-16.625c0 9.64 4.922 17.484 15.36 17.484 18.093 0 23.484-17.078 23.484-27.797 0-9.843-4.86-18.484-15.235-18.484-18.078 0-23.609 18.828-23.609 28.797zm25.938-12.5c0 5.25-1.266 14.234-4.047 19.016-1 .53-2.86.937-4.328.937-2.86 0-4.657-1.797-4.594-6.125 0-5.578 1.531-14.828 4.187-19.281 1.203-.406 2.594-.797 4.266-.797 3.39 0 4.578 2.188 4.515 6.25zm-9.313 1.531l-1.39 10.11h7.25L25-27.594zm0 0"/></symbol><symbol id="S" overflow="visible"><path d="M21.813-14.89l.328-4.594-10.5-14.172-8.985 5.531 5.39 10.5-8.25 10.64L8.173-.593zm19.218 0l.328-4.594-10.5-14.172-8.984 5.531 5.39 10.5-8.25 10.64 8.376 6.391zm0 0"/></symbol><symbol id="T" overflow="visible"><path d="M7.078 10.016h4.078l4.89-37.203c.72.046 1.548.078 2.282.171l-4.844 37.032H17.5l5.313-40.266c-2.063-.469-4.891-.828-7.313-.828-8.969 0-13.39 4.61-13.39 11.203 0 4.469 2.468 8.125 7.765 8.953zm0 0"/></symbol><symbol id="V" overflow="visible"><path d="M20.656-30.625l-1.687 12.89H8.78l1.688-12.89h-4.75L1.687 0h4.75l1.797-13.578h10.188L16.64 0h4.703l4.015-30.625zm0 0"/></symbol><symbol id="W" overflow="visible"><path d="M7.453-3.61c-1.14-.453-1.375-2.234-1.375-3.75 0-4.109 1.828-10.015 4.844-10.78 1.375 1.046 2.015 5.25 2.11 9.5-1.563 2.75-3.704 4.53-5.579 5.03zM1.328-7.124c0 4.297 1.594 7.719 5.11 7.719 2.75 0 5.078-2.281 6.859-4.938.594 3.25 1.422 4.89 4.078 4.89 1.906 0 3.781-.905 5.297-2.562l-1.735-2.921c-.875.593-2.156 1.28-3.109 1.421-.453-1.015-.969-2.421-1.422-4.296 2.422-3.657 5.125-8.188 6.672-13.344l-4.703-1.14c-.781 2.327-1.64 5.843-2.281 8.765h-.188c-.094-5.844-1.469-8.766-4.89-8.766-5.813 0-9.688 8.36-9.688 15.172zm0 0"/></symbol><symbol id="X" overflow="visible"><path d="M14.313-21.703c-.141 5.844-2.938 11.61-6 16.906H8.14L8-8.547 6.812-21.703H2.234c-.125.672-.125 1.406-.046 2.234L4.655.047l4.485-.094c5.796-7.578 9.546-15.672 9.546-20.515v-1.141zm0 0"/></symbol><symbol id="Y" overflow="visible"><path d="M10.969-22.219c-4.797 0-8.14 2.657-8.14 6.266 0 2.015 1.14 3.703 2.937 4.672C2.828-10.47.953-8.406.953-5.344c0 3.797 3.25 5.797 7.828 5.797 3.016 0 5.656-.766 6.985-1.375l-.954-3.562c-1.656.515-3.75.875-5.484.875-2.422 0-3.797-.875-3.797-2.422 0-2.016 2.063-3.063 5.125-3.063h3.375l.406-3.75h-2.515c-2.875 0-4.61-.734-4.61-2.828 0-.875.313-1.562.735-1.969.734-.406 1.734-.547 2.922-.547 1.922 0 4.015.454 5.765 1.141l1.407-3.375c-1.922-1.11-4.297-1.797-7.172-1.797zm0 0"/></symbol><symbol id="Z" overflow="visible"><path d="M13.578-21.297c.5 2.563.735 4.61.735 6.985 0 3.796-.688 7.828-1.797 9.734A4.17 4.17 0 0 1 9.64-3.422c-2.641 0-3.375-2.11-2.829-6.172l1.641-12.203-4.61.14-1.609 12.11C1.375-3.016 3.97.593 9.234.593c7.266 0 9.735-7.546 9.735-15.077 0-2.61-.328-5.079-.969-7.907zM9.375-26.14l2.781 1.641 4.89-7.031v-.422l-3.937-2.235zm0 0"/></symbol><symbol id="aa" overflow="visible"><path d="M12.156-18.234c1.375.234 2.016 2.375 2.016 4.984 0 3.703-.922 7.078-2.797 9.094-.688.406-1.688.547-2.516.547-1 0-2.046-.188-3.093-.5.765-7.172 2.734-13.672 6.39-14.125zM5.578 10.78c-.187-2.187-.281-3.61-.281-6.437 0-1.375.047-2.797.094-4.203 1.015.218 2.062.406 3.062.406 6.578 0 10.469-6.719 10.469-14.078 0-5.063-2.235-8.766-6.438-8.766C3.11-22.297.734-8.407.734 4.578c0 2.781.047 4.156.188 6.672zm0 0"/></symbol><symbol id="ab" overflow="visible"><path d="M9.281-3.516c-2.015 0-3.203-1.921-3.156-4.796.047-5.126 2.063-9.563 6.36-9.563h.593c.64 1.469 1.047 3.531 1 5.36-.047 3.609-.922 6.39-2.515 8.406-.547.406-1.329.593-2.282.593zm9.36-9.093c0-1.704-.407-3.563-1-5.032.453.047.922.094 1.422.141h2.875l.546-4.203h-9.968c-7.438 0-11 6.937-11.094 13.469C1.375-3.344 3.656.594 8.359.594c7.094 0 10.282-7.36 10.282-13.203zm0 0"/></symbol><symbol id="ac" overflow="visible"><path d="M3.844-21.578c-.375 4.484-.547 6.312-.735 7.906L1.33 0h4.655L7.5-11.563c.813-3.843 4.016-6.578 6.344-6.624.969.5.875 2.328.594 4.39L12.983-2.875c-.78 5.703-2.062 9.64-3.53 12.89l3.983 1.407c1.782-2.875 3.204-7.266 4.11-14.203l1.61-12.125c.546-3.969.077-7.39-4.345-7.39-2.75 0-5.218 1.733-6.859 4.25l-.36-3.892zm0 0"/></symbol><symbol id="ad" overflow="visible"><path d="M12.11-21.703c-5.297 0-8.266.453-10.876 1.281L2.11-16.5c1.5-.36 3.188-.688 5.297-.875L5.72-5.531C5.172-1.47 6.672.547 9.78.547c2.516 0 4.75-1.375 6.219-2.875L14.266-5.25c-.782.547-3.11 1.781-3.891 1.781-.234-.594-.14-1.61 0-2.75L12.063-17.5h6.078l.547-4.203zm0 0"/></symbol><symbol id="ae" overflow="visible"><path d="M1.422-8.234C1.375-3.344 3.656.594 8.359.594c7.094 0 10.61-8.047 10.704-14.125.046-4.844-1.97-8.766-7.047-8.766-7.079 0-10.5 7.985-10.594 14.063zm12.922-5.204c0 3.75-1 6.907-2.922 9.329-.547.406-1.453.593-2.14.593-2.016 0-3.204-1.921-3.157-4.796.047-3.844 1.188-7.266 2.922-9.329.594-.359 1.469-.593 2.203-.593 2.188 0 3.14 1.828 3.094 4.797zm0 0"/></symbol><symbol id="af" overflow="visible"><path d="M13.578-21.297c.5 2.563.735 4.61.735 6.985 0 3.796-.688 7.828-1.797 9.734A4.17 4.17 0 0 1 9.64-3.422c-2.641 0-3.375-2.11-2.829-6.172l1.641-12.203-4.61.14-1.609 12.11C1.375-3.016 3.97.593 9.234.593c7.266 0 9.735-7.546 9.735-15.077 0-2.61-.328-5.079-.969-7.907zm0 0"/></symbol><symbol id="ag" overflow="visible"><path d="M13.156-21.703c-4.703 0-9 .719-11.781 1.594l.813 3.968c1.374-.359 3.062-.672 4.843-.953L4.61 0h4.532l2.515-17.5h5.251L15.218-5.531c-.594 4.062.828 6.078 3.844 6.078 2.468 0 4.109-1.281 5.39-2.563l-1.781-2.921c-.781.546-2.203 1.468-3.016 1.468-.234-.594-.14-1.61 0-2.75L21.344-17.5h4.437l.547-4.203zm0 0"/></symbol><symbol id="ah" overflow="visible"><path d="M4.016-21.656L1.969-5.531C1.422-1.47 2.875.547 5.984.547c2.563 0 4.579-1.375 6.032-2.875L10.234-5.25c-.78.547-2.828 1.781-3.656 1.781-.172-.594-.094-1.61.047-2.75l2.016-15.578zm0 0"/></symbol><symbol id="ai" overflow="visible"><path d="M18.047-1.922c-.813-4.25-2-11.656-2.828-18.094-1.422-12.53-1.5-14.718-5.938-14.718-2.015 0-3.89.828-5.437 1.64l1.406 3.75c.969-.406 2.422-1.047 3.39-1.047.688.36 1.235 1.282 1.5 3.97l.282 3.108C6.125-13.671 2.828-7.5-.453-1.547v.36L4.016.5C6.437-4.484 9-10.516 11.516-16.766h.14c.094 1.641.188 3.422.36 5.203.28 3.797.78 7.626 1.515 11.563h4.797a19.066 19.066 0 0 0-.281-1.922zm0 0"/></symbol><symbol id="aj" overflow="visible"><path d="M20.797-20.703l-4.39-1.594C13.983-17.922 11.25-11.75 9.186-5.25h-.14C8.5-11.844 8.14-16.594 6.953-21.703H1.734c0 .312.047.64.141.906C3.063-15.766 4.391-10.562 6.031.234c-.781 2.688-1.375 5.532-1.687 8.22 1.422.452 3.75.733 5.297.593.375-2.422.546-5.203.546-8.047 4.438-10.688 8.141-17.266 10.61-21.344zm0 0"/></symbol><symbol id="ak" overflow="visible"><path d="M18.469-22.297c-3.11 1.5-8.375 6.39-11.016 11.016h-.187L8.64-21.797l-4.532.14L1.281 0h4.516l.328-2.469c.406-1.969 1.5-3.969 3.016-5.89L13.53 0h4.656c.094-.688-.359-1.547-.859-2.516l-5.078-9.328c2.875-2.828 6.125-5.203 8.313-6.531zm0 0"/></symbol><symbol id="al" overflow="visible"><path d="M1.422-8.234C1.375-3.344 3.656.594 8.359.594c7.094 0 10.61-8.047 10.704-14.125.046-4.844-1.97-8.766-7.047-8.766-7.079 0-10.5 7.985-10.594 14.063zm12.922-5.204c0 3.75-1 6.907-2.922 9.329-.547.406-1.453.593-2.14.593-2.016 0-3.204-1.921-3.157-4.796.047-3.844 1.188-7.266 2.922-9.329.594-.359 1.469-.593 2.203-.593 2.188 0 3.14 1.828 3.094 4.797zm-3.735-12.75l2.782 1.641 4.89-7.031V-32l-3.937-2.234zm0 0"/></symbol><symbol id="am" overflow="visible"><path d="M2.11-5.766C1.327-.187.78 7.078 1.233 11.11l4.61-.5C5.39 7.72 5.437 3.297 5.766-1c.5.953 1.359 1.594 2.78 1.594 2.142 0 4.11-1.516 5.204-3.75.234 2.469 1.328 3.75 3.75 3.75 2.063 0 3.844-1.188 5.36-2.656l-1.75-2.97c-.954.688-2.376 1.563-3.11 1.563-.266-.469-.313-1.875-.125-3.437l1.953-14.797h-4.61l-1.64 12.25c-.422 3.187-2.375 5.89-4.625 5.89C7.5-4.016 6.766-6.219 7.078-8.546l1.75-13.25-4.625.14zm0 0"/></symbol><symbol id="an" overflow="visible"><path d="M14.219 2.328c0-2.687-1.735-4.297-3.61-5.797-2.75-2.25-4.25-3.703-4.25-6.625 0-2.75 1.313-6.219 2.641-7.5a4.986 4.986 0 0 1 2.11-.453c1.64 0 3.203.719 4.609 1.5l1.828-3.515c-1.235-1-3.11-2.157-5.89-2.157-6.532 0-10.063 6.313-10.063 12.39 0 4.438 1.61 6.407 5.031 9.048 1.14.922 2.422 2.015 3.063 3.156-.5 1.188-1.454 2.063-2.735 2.922l2.14 3.531c2.282-1.062 5.126-3.031 5.126-6.5zm0 0"/></symbol><symbol id="ao" overflow="visible"><path d="M2.984-14.89l.125.984L13.172-1.703l1.89-1.469-8.718-11.281L15-25.563l-1.828-1.406zm9.641 0l.125.984L22.813-1.703l1.89-1.469-8.719-11.281 8.657-11.11-1.828-1.406zm0 0"/></symbol><symbol id="ap" overflow="visible"><path d="M17.39-36.781h.172l2.875 9.203 4.141 12.328H9.938zm-1.656-3.969l-12.5 35.5C2.563-3.484 2.016-1.766 1.406 0h3.235l4.328-12.563H25.5L29.766 0H33c-.547-1.766-1.156-3.531-1.703-5.313l-12.14-35.671zm0 0"/></symbol><symbol id="aq" overflow="visible"><path d="M21.344-27.875c.125 3.36-.719 8.11-3.11 13.594L13.61-3.656h-.187c-.375-1.156-.86-2.938-1.344-4.219L4.766-28.063H1.828c0 .797.25 1.532.547 2.266L11.891.063l3.046-.126 5.985-13.296c2.625-5.985 3.844-11.344 3.297-14.938zm0 0"/></symbol><symbol id="as" overflow="visible"><path d="M14.281-28.734c-6.172 0-10.015 2.687-10.015 7.265 0 3.594 2.39 6.032 6.046 7.078-4.03.844-6.718 3.532-6.718 7.375 0 5.485 4.453 7.688 10.86 7.688 3.718 0 7.265-.86 9.452-1.89l-.843-2.313c-1.72.719-5.313 1.578-8.485 1.578-4.812 0-7.922-1.469-7.922-5.188 0-3.53 2.672-5.906 9.39-5.906h3.298v-2.562h-3.36c-5.671 0-8.718-2.5-8.718-5.625 0-3.235 2.734-4.875 7.25-4.875 3.109 0 6.156.922 8.296 1.89l.922-2.187c-2.328-1.282-5.312-2.328-9.453-2.328zm0 0"/></symbol><symbol id="at" overflow="visible"><path d="M1.531-28.063v2.75h9.39v19.391c0 4.516 2.188 6.594 5.923 6.594 2.125 0 3.828-.547 5.172-1.219l-.782-2.265a10.61 10.61 0 0 1-4.03.796c-2.438 0-3.298-1.515-3.298-4.203v-19.093h10.438v-2.75zm0 0"/></symbol><symbol id="au" overflow="visible"><path d="M3.531-13.781c0 8.406 4.453 14.64 11.844 14.64 8.594 0 12.203-8.171 12.203-15.14 0-8.344-4.453-14.625-11.844-14.625-8.53 0-12.203 8.172-12.203 15.125zm20.985-.125c0 4.328-1.157 7.875-3.235 9.937-1.328 1.344-3.218 2.14-5.61 2.14-5.968 0-9.077-5.25-9.077-12.327 0-4.453 1.218-7.922 3.281-10 1.344-1.282 3.234-2.078 5.563-2.078 5.906 0 9.078 5.312 9.078 12.328zm0 0"/></symbol><symbol id="av" overflow="visible"><path d="M1.64-28.063v2.75h7.516V0h2.922v-25.313h12.563v20.125c0 3.422 1.343 5.86 4.89 5.86 1.64 0 2.672-.36 3.657-.797l-.672-2.25c-.61.172-1.47.36-2.375.36-1.844 0-2.625-1.032-2.625-3.407v-19.89h7.797v-2.75zm0 0"/></symbol><symbol id="aw" overflow="visible"><path d="M5.188-28v22.203c0 4.64 2.375 6.469 5.968 6.469 2.203 0 3.906-.61 5.125-1.219l-.718-2.312c-.985.359-2.266.843-3.797.843-2.375 0-3.657-1.03-3.657-4.14v-21.969zm.234-5.422l2.016.906 4.64-8.843v-.36L9.328-43zm0 0"/></symbol><symbol id="ax" overflow="visible"><path d="M15.5-1.828c-5.984 0-8.969-5.375-8.969-11.047 0-7.14 4.14-12.625 11.828-12.625h.125c3.72 2.688 5.985 7.203 5.985 12.563 0 5.859-3 11.109-8.969 11.109zm12.016-11.047c0-4.875-2.266-9.813-5.61-12.625l2.375.063h7.188v-2.75h-13.36c-9.937 0-14.625 7.515-14.625 15.375C3.484-5.484 7.938.858 15.375.858c8.36 0 12.14-7.453 12.14-13.734zm0 0"/></symbol><symbol id="ay" overflow="visible"><path d="M14.39-1.828c-4.937 0-7.687-4.64-7.687-11.781 0-7.188 3-12.688 8.735-12.688 2.859 0 5.296 1.406 7.687 3.969v12.078c0 3.594-4.031 8.422-8.734 8.422zM3.595-13.36C3.594-4.703 7.75.859 14.03.859c4.39 0 7.875-3.062 9.39-5.859C23.61-1.156 25.5.672 28.548.672c1.703 0 2.812-.422 3.844-.985l-.735-2.25c-.843.36-1.578.547-2.687.547-2.125 0-2.922-1.703-2.922-4.812v-12.078c0-2.938.062-5 .484-9.157l-2.437-.359-.61 3.297c-2.25-2.328-4.937-3.781-8.297-3.781-7.437 0-11.593 7-11.593 15.547zm0 0"/></symbol><symbol id="az" overflow="visible"><path d="M22.563-28.063L13.608-3.968h-.125c-.375-1.219-.734-2.5-1.156-3.719L4.703-28.063H1.828c0 .797.25 1.532.484 2.329L12.079-.312v11.78H15V-.421l9.828-25.312c.297-.797.547-1.47.547-2.328zm0 0"/></symbol><symbol id="aA" overflow="visible"><path d="M3.531-13.781c0 8.406 4.453 14.64 11.844 14.64 8.594 0 12.203-8.171 12.203-15.14 0-8.344-4.453-14.625-11.844-14.625-8.53 0-12.203 8.172-12.203 15.125zm20.985-.125c0 4.328-1.157 7.875-3.235 9.937-1.328 1.344-3.218 2.14-5.61 2.14-5.968 0-9.077-5.25-9.077-12.327 0-4.453 1.218-7.922 3.281-10 1.344-1.282 3.234-2.078 5.563-2.078 5.906 0 9.078 5.312 9.078 12.328zM14.28-33.422l2 .906 4.64-8.843v-.36L18.172-43zm0 0"/></symbol><symbol id="aB" overflow="visible"><path d="M5.125-8.047c.188 1.344.297 2.797.297 4.078C5.422.125 4.14 3.97.859 7.078L2.25 8.484C6.469 5.422 8.547.672 8.547-4.14c0-1.406-.188-2.875-.5-4.218zm0 0"/></symbol><symbol id="aC" overflow="visible"><path d="M31.781-27.688c1.953 3.047 5.375 9.204 5.375 16.579 0 6.046-2.562 9.218-6.531 9.218-5.5 0-7.266-6.53-7.266-12.562v-4.828h-2.984v4.828c0 6.031-2.016 12.562-7.5 12.562-3.969 0-6.219-3.109-6.219-9.156 0-7.5 3.407-13.719 5.36-16.64l-2.375-1.22c-2.329 3.11-6.047 10.235-6.047 17.923 0 7.328 3.36 11.718 8.969 11.718 5.312 0 8.109-4.03 9.28-8.78 1.032 4.75 3.657 8.78 8.97 8.78 5.609 0 9.328-4.39 9.328-11.78 0-7.626-3.72-14.75-5.985-17.86zm0 0"/></symbol><symbol id="aD" overflow="visible"><path d="M3.484-14.516c0 8.907 6.032 11.407 11.579 14.204 2.39 1.171 4.703 2.515 4.703 5.125 0 2.14-1.594 3.421-3.36 4.406l1.219 2.25c2.5-.985 5.063-3.047 5.063-6.766 0-3.906-2.922-5.922-6.094-7.39-5.61-2.688-10-4.938-10-12.313 0-6.406 3.281-11.047 8.843-11.047 3.344 0 5.61 1.578 7.126 3.297l1.656-1.766c-1.703-2.14-4.453-4.218-8.782-4.218-7.453 0-11.953 6.468-11.953 14.218zm0 0"/></symbol><symbol id="aE" overflow="visible"><path d="M14.39-1.828c-4.937 0-7.687-4.64-7.687-11.781 0-7.188 3-12.688 8.735-12.688 2.859 0 5.296 1.406 7.687 3.969v12.078c0 3.594-4.031 8.422-8.734 8.422zM3.595-13.36C3.594-4.703 7.75.859 14.03.859c4.39 0 7.875-3.062 9.39-5.859C23.61-1.156 25.5.672 28.548.672c1.703 0 2.812-.422 3.844-.985l-.735-2.25c-.843.36-1.578.547-2.687.547-2.125 0-2.922-1.703-2.922-4.812v-12.078c0-2.938.062-5 .484-9.157l-2.437-.359-.61 3.297c-2.25-2.328-4.937-3.781-8.297-3.781-7.437 0-11.593 7-11.593 15.547zm11.844-20.063l2.015.906 4.625-8.843v-.36L19.344-43zm0 0"/></symbol><symbol id="aF" overflow="visible"><path d="M24.828-2.203L13.36-36.656c-2.078-6.235-4.39-9.766-9.218-9.766-.844 0-1.329.063-1.829.125v2.563c4.094 0 5.985 1.515 8.172 7.437l2.454 6.953L2.25-2.204c-.234.735-.484 1.47-.484 2.204h2.937L12.5-20.672l1.594-4.64h.187L22.562 0h2.813c-.063-.86-.297-1.469-.547-2.203zm0 0"/></symbol><symbol id="aG" overflow="visible"><path d="M5.188-28v22.203c0 4.64 2.375 6.469 5.968 6.469 2.203 0 3.906-.61 5.125-1.219l-.718-2.312c-.985.359-2.266.843-3.797.843-2.375 0-3.657-1.03-3.657-4.14v-21.969zm0 0"/></symbol><symbol id="aH" overflow="visible"><path d="M20.25-27.938c1.469 3.422 3.11 8.235 3.11 14.391 0 7.328-2.5 11.656-8.36 11.656-4.75 0-7.063-2.984-7.063-9.03v-17.204l-3 .125v17.453c0 6.953 3.172 11.281 10 11.281 8 0 11.47-5.921 11.47-14.515 0-6.281-1.891-11.906-3.47-15.078zm0 0"/></symbol><symbol id="aI" overflow="visible"><path d="M4.813-28.125c.5 5.563.562 8.36.562 10.438V0h2.984v-21.953c2.985-2.516 6.157-4.281 9.641-4.281 4.328 0 5.484 2.812 5.484 8.359v32.516h2.922v-33.735c0-6.156-1.765-9.812-7.922-9.812-3.906 0-7.265 1.765-10.437 4.562l-.672-4.078zm0 0"/></symbol><symbol id="aJ" overflow="visible"><path d="M4.094-45.75l.047 2.922 16.484-.484.047.062c-9.078 2.75-15.25 6.703-15.25 12.75 0 4.39 3.125 7.313 8 8.36-6.531 1.03-10.25 4.75-10.25 10.124 0 6.282 5.312 8.657 10.86 10.547C18.843.25 22.75 1.406 22.75 4.766c0 2.187-1.64 3.53-3.297 4.453l1.172 2.25c2.375-.922 5.063-3.047 5.063-6.828 0-5-4.766-6.532-9.891-8.422-5.313-1.828-9.578-3.719-9.578-8.61 0-5 4.265-8.28 13.297-8.28h3.672v-2.75h-3.36c-7.265 0-11.344-2.985-11.344-7.267 0-5.421 6.579-8.78 17.438-12.312l-.235-2.75zm0 0"/></symbol><symbol id="aK" overflow="visible"><path d="M4.813-28.125c.5 5.563.562 8.36.562 10.438V0h2.984v-21.953c2.985-2.516 6.157-4.281 9.641-4.281 4.328 0 5.484 2.812 5.484 8.359v32.516h2.922v-33.735c0-6.156-1.765-9.812-7.922-9.812-3.906 0-7.265 1.765-10.437 4.562l-.672-4.078zm9.03-5.297l2.016.906 4.641-8.843v-.36L17.75-43zm0 0"/></symbol><symbol id="aL" overflow="visible"><path d="M34.64-1.89c0 1.53 1.047 2.562 2.626 2.562 1.718 0 2.812-1.156 2.812-2.985 0-1.53-1.031-2.5-2.562-2.5-1.703 0-2.875 1.157-2.875 2.922zm-30.187 0C4.453-.36 5.484.671 7.078.671c1.703 0 2.797-1.156 2.797-2.985 0-1.53-1.031-2.5-2.563-2.5-1.703 0-2.859 1.157-2.859 2.922zm15.125 0c0 1.53 1.047 2.562 2.625 2.562 1.703 0 2.813-1.156 2.813-2.985 0-1.53-1.047-2.5-2.563-2.5-1.719 0-2.875 1.157-2.875 2.922zm0 0"/></symbol><symbol id="aM" overflow="visible"><path d="M3.656-25.563l8.672 11.11L3.594-3.172l1.953 1.469 10.015-12.203.11-.985L5.547-26.969zm9.64 0l8.657 11.11-8.719 11.281 1.954 1.469 10-12.203.125-.985-10.125-12.078zm0 0"/></symbol><symbol id="aN" overflow="visible"><path d="M8.016-137.688V0h86.312l-1.86-30.625H48.298v-24.25h32.672v-30.61H48.297v-21.578h44.172l1.86-30.624zm0 0"/></symbol><symbol id="aO" overflow="visible"><path d="M2.469-154.125l1.437 34.11 34.516-4.11.219.828C21.984-116.922 9.25-106.657 9.25-91.859c0 11.296 7.594 19.515 18.703 23.843-15 5.344-24.875 16.438-24.875 32.47C3.078-15 19.734-6.985 41.718 2.265c7.594 3.078 10.485 4.718 10.485 7.187 0 3.703-5.344 5.344-8.64 6.172l6.578 25.266C74.594 39.25 90.828 26.094 90.828 4.109c0-18.28-11.5-24.453-33.703-34.515-7.813-3.297-13.563-5.969-13.563-11.922 0-7.406 8.641-11.313 25.891-11.313h11.922V-84.25H69.453c-10.89 0-19.719-2.063-19.719-11.11 0-12.109 15.203-19.718 39.047-27.328l-2.062-31.437zm0 0"/></symbol><symbol id="aP" overflow="visible"><path d="M50.969-26.516c-5.344 0-6.172-7.593-6.172-26.093 0-19.516 1.64-24.86 7.187-24.86 2.063 0 3.907.813 5.563 2.25v39.875c0 4.516-3.5 8.828-6.578 8.828zM3.703-48.906c0 30.61 12.938 51.172 34.719 51.172 12.344 0 22.61-7.813 27.125-18.5C67.203-6.172 76.657 1.844 88.359 1.844c9.047 0 15.829-1.64 21.579-4.313l-2.672-29.593c-1.235.203-3.485.421-4.11.421-4.11 0-5.344-2.062-5.344-7.406V-67c0-11.297.829-22.594 1.657-33.906l-28.985-4.11-5.14 9.25c-5.953-5.546-13.969-10.062-23.422-10.062-24.047 0-38.219 27.734-38.219 56.922zm0 0"/></symbol><symbol id="aQ" overflow="visible"><path d="M54.25-55.078v26.922c-10.063-3.907-13.156-12.125-13.156-24.657 0-16.437 3.906-29.39 13.156-46.437l-34.516-7.203C9.047-89.187 3.704-72.125 3.704-50.141c0 31.438 18.483 47.672 50.546 51.578V47.47h36.375V1.234c35.969-5.14 50.969-25.89 50.969-57.547 0-31.234-14.188-48.906-45.016-48.906-34.312 0-42.328 22.406-42.328 50.14zm36.375-9.453c0-9.25 2.063-12.328 6.375-12.328 5.14 0 7.188 5.343 7.188 15.203 0 20.14-3.079 29.797-13.563 33.703zm0 0"/></symbol><symbol id="aR" overflow="visible"><path d="M50.969-26.516c-5.344 0-6.172-7.593-6.172-26.093 0-19.516 1.64-24.86 7.187-24.86 2.063 0 3.907.813 5.563 2.25v39.875c0 4.516-3.5 8.828-6.578 8.828zM3.703-48.906c0 30.61 12.938 51.172 34.719 51.172 12.344 0 22.61-7.813 27.125-18.5C67.203-6.172 76.657 1.844 88.359 1.844c9.047 0 15.829-1.64 21.579-4.313l-2.672-29.593c-1.235.203-3.485.421-4.11.421-4.11 0-5.344-2.062-5.344-7.406V-67c0-11.297.829-22.594 1.657-33.906l-28.985-4.11-5.14 9.25c-5.953-5.546-13.969-10.062-23.422-10.062-24.047 0-38.219 27.734-38.219 56.922zM40.281-123.5L60-113.64l22.203-37.204v-3.484l-25.281-12.75zm0 0"/></symbol><symbol id="aS" overflow="visible"><path d="M56.516-102.344c.812 13.563.812 28.781-2.875 48.703l-3.703 19.735h-1.032c-.203-6.375-.812-12.532-1.437-19.11l-5.14-50.343H1.233c0 5.953.204 9.03 1.641 14.375L25.688.406l46.03-.812L87.954-47.47c9.25-27.328 9.86-46.437 7.813-56.922zm0 0"/></symbol><symbol id="aT" overflow="visible"><path d="M6.375-102.953v72.328c0 19.938 10.469 32.469 31.844 32.469 11.093 0 17.062-1.64 24.875-4.313l-2.875-29.797c-2.89.407-4.735.625-7.61.625-3.906 0-6.172-2.062-6.172-7.406v-64.734zm0 0"/></symbol><symbol id="aU" overflow="visible"><path d="M51.578-25.89c-6.156 0-8.219-6.376-8.219-20.141 0-16.235 2.47-25.282 10.891-27.75 3.078 5.765 5.14 15.015 5.14 28.36 0 12.546-1.843 19.53-7.812 19.53zM99.25-42.532c0-11.11-3.078-21.578-7.594-29.813l9.453 1.656h12.532v-33.5H61.234c-36.984 0-57.953 26.72-57.953 56.922 0 28.563 16.453 49.735 46.657 49.735 28.968 0 49.312-15.828 49.312-45zm0 0"/></symbol><symbol id="aV" overflow="visible"><path d="M5.547-100.688c1.437 23.22 1.64 32.672 1.64 41.5V0H47.47v-75.219c2.265-1.015 4.312-1.437 6.375-1.437 3.484 0 5.343 1.656 5.343 7.812V47.47H99.25v-122.89c0-20.75-12.328-30.407-29.797-30.407-11.703 0-20.547 4.516-27.734 13.766l-7.188-12.954zm0 0"/></symbol><symbol id="aW" overflow="visible"><path d="M31.938-24.375L9.5-44.438h35.734l.078-2.812H5.72l-.532 2.984L27.892-24.03 4.578-3.078 5.188 0h40.484l-.094-2.813H8.36l23.578-21.03zm0 0"/></symbol><symbol id="aX" overflow="visible"><path d="M9.766-47.25V0h3.078v-44.438h33.265V0h3.078v-47.25zm0 0"/></symbol><symbol id="aY" overflow="visible"><path d="M5.89-23.234c0 13.297 9.688 24.547 26.047 24.547 18.485 0 25.704-14.079 25.704-25.782 0-13.281-9.688-24.11-25.953-24.11-18.579 0-25.797 13.735-25.797 25.345zm48.5-1.047c0 9.062-3.703 16.093-10.39 19.797-3.344 1.843-7.39 2.906-12.234 2.906-14.422 0-22.61-9.516-22.61-21.735 0-8.546 3.516-15.312 9.766-19.109 3.437-2.11 7.828-3.25 12.844-3.25 14.265 0 22.625 9.156 22.625 21.39zm0 0"/></symbol><symbol id="aZ" overflow="visible"><path d="M25.875-22.172h-.094c-1.75-13.906-12.5-25.078-21.203-26.14l-.797 2.906c12.938 3.25 20.422 18.297 20.422 31.593V0h3.078v-13.813c0-12.843 7.125-28.078 20.5-31.593l-.797-2.907c-8.703 1.063-19.437 12.329-21.109 26.141zm0 0"/></symbol><symbol id="ba" overflow="visible"><path d="M24.734-47.172L2.641-1.578 3.344 0H48.75l.703-1.578-21.375-45.86zM10.562-10.64l15.844-32.922h.25l4.766 10.657L41.625-11l3.953 8.188H6.594zm0 0"/></symbol><symbol id="bb" overflow="visible"><path d="M26.219-43.563h.187l5.36 11.797 6.422 13.985H13.983zm-1.672-3.609L5.453-6.782C4.313-4.483 3.343-2.202 2.203 0h3.422l7.047-14.953h26.75L46.282 0h3.343c-1.047-2.203-2.11-4.484-3.078-6.781L27.813-47.344zm0 0"/></symbol><symbol id="bc" overflow="visible"><path d="M9.766-47.25V0h3.078v-47.25zm-.079-7.656l2.016.968 6.422-12.593v-.344l-2.813-1.5zm0 0"/></symbol><symbol id="be" overflow="visible"><path d="M9.766-47.25V0h3v-36.953l-.266-6.344h.078l4.235 5.547L49.016 0h3v-47.25h-3v36.688l.265 6.515h-.093l-4.22-5.375L12.767-47.25zm0 0"/></symbol><symbol id="bf" overflow="visible"><path d="M44.969-47.25L12.937-21.828h-.093V-47.25H9.766V0h3.078v-18.219l9.422-7.484L45.14 0h3.78c-1.671-2.031-2.108-2.469-3.858-4.484L24.64-27.547l23.062-18.219c.516-.437 1.219-1.047 1.484-1.484zm0 0"/></symbol><symbol id="bg" overflow="visible"><path d="M26.219-43.563h.187l5.36 11.797 6.422 13.985H13.983zm-1.672-3.609L5.453-6.782C4.313-4.483 3.343-2.202 2.203 0h3.422l7.047-14.953h26.75L46.282 0h3.343c-1.047-2.203-2.11-4.484-3.078-6.781L27.813-47.344zm.187-7.734l2.016.968 6.422-12.593v-.344l-2.813-1.5zm0 0"/></symbol><symbol id="bh" overflow="visible"><path d="M5.625 0l19.719-43.64h.172l5.109 12.046L44.531 0h3.344c-1.063-2.203-2.203-4.578-3.172-6.86L27.016-47.343l-3.438.172L5.453-6.782C4.406-4.483 3.343-2.202 2.375 0zm0 0"/></symbol><symbol id="bi" overflow="visible"><path d="M4.844-40.75c0 16.375 6.765 25 23.75 25.531V0h3.093v-15.219c16.625-.531 23.75-9.765 23.75-25.531v-6.5H52.36v6.5c0 14.438-6.328 22.188-20.672 22.703V-47.25h-3.093v29.203C13.64-18.562 7.922-26.219 7.922-40.75v-6.5H4.844zm0 0"/></symbol><symbol id="bj" overflow="visible"><path d="M47.438-47.25v21.734H12.843V-47.25H9.766V0h3.078v-22.703h34.593V0h3.079v-47.25zm0 0"/></symbol><symbol id="bk" overflow="visible"><path d="M10.469-58.953l.437 45.406h2.735l.437-45.406zM8.453-2.203c0 1.937 1.485 3.265 3.688 3.265 2.375 0 3.968-1.593 3.968-3.875 0-1.937-1.406-3.265-3.609-3.265-2.469 0-4.047 1.594-4.047 3.875zm0 0"/></symbol><symbol id="bl" overflow="visible"><path d="M1.734-7.922C1.734-3.344 4.97.453 10.75.453c6.266 0 9.031-4.531 9.031-8.86 0-4.577-3.187-8.374-8.937-8.374-6.375 0-9.11 4.531-9.11 8.86zm15.422-.39c0 2.5-.89 4.437-2.61 5.546-.983.657-2.233 1-3.796 1-4.172 0-6.406-2.796-6.406-6.343 0-2.407.937-4.282 2.593-5.391 1.016-.719 2.297-1.078 3.813-1.078 4.14 0 6.406 2.687 6.406 6.265zm0 0"/></symbol><symbol id="bn" overflow="visible"><path d="M12.063-8.516l-6.938-5.703h10.969l.062-2.11H1.875l-.234 2.142 7.203 6.046-7.266 6L1.812 0h14.422l-.078-2.11H4.86l7.204-5.843zm0 0"/></symbol><symbol id="bo" overflow="visible"><path d="M2.922-16.328V0h12.812l-.093-2.11H5.453v-5.156h8.313V-9.39H5.453v-4.828H15.61l.063-2.11zm0 0"/></symbol><symbol id="bp" overflow="visible"><path d="M7.781-7.781c-.687 0-1.531-.032-2.297-.11v-6.468c.891-.063 1.72-.125 2.688-.125 3.562 0 5.437.984 5.437 3.125 0 1.593-.828 2.562-2.203 3.078-.953.36-2.203.5-3.625.5zm-4.86-8.516V0h2.563v-5.719c.766.063 1.547.094 2.36.094 5.297 0 8.39-1.969 8.39-5.781 0-3.578-2.672-5.344-8.218-5.281-1.766 0-3.391.156-5.094.39zm0 0"/></symbol><symbol id="bq" overflow="visible"><path d="M9.203-13.86h.094l1.64 3.907 1.485 3.64h-6.5zm-1.36-2.468L1.282-1.766C.984-1.125.781-.562.594 0h2.594L5.03-4.266h8.235L14.984 0h2.625c-.172-.594-.422-1.125-.687-1.766L10.64-16.422zm.329-2.719l1.656.719 2.485-4.64v-.298l-2.235-.953zm0 0"/></symbol><symbol id="br" overflow="visible"><path d="M1.734-7.922C1.734-3.344 4.97.453 10.75.453c6.266 0 9.031-4.531 9.031-8.86 0-4.577-3.187-8.374-8.937-8.374-6.375 0-9.11 4.531-9.11 8.86zm15.547-.39c0 4.109-2.406 6.609-6.531 6.609-4.172 0-6.516-2.766-6.516-6.406 0-3.985 2.594-6.516 6.516-6.516 4.14 0 6.531 2.64 6.531 6.313zm-11-.922v2.03h8.938v-2.03zm0 0"/></symbol><symbol id="bs" overflow="visible"><path d="M9.453-8.766H9.36c-.78-4.14-4.234-7.593-7.75-7.921l-.562 2.203c4.078 1.171 7 5.187 7 9.953V0h2.594v-4.531c0-4.703 2.968-8.766 7.062-9.953l-.594-2.204c-3.375.329-6.828 3.782-7.656 7.922zm0 0"/></symbol><symbol id="bt" overflow="visible"><path d="M2.922-16.328V0h2.562v-16.328zm0 0"/></symbol><symbol id="bu" overflow="visible"><path d="M2.922-16.328V0h2.562v-14.156h9.172l.094-2.172zm0 0"/></symbol><symbol id="bv" overflow="visible"><path d="M2.922-16.328V0h2.297v-10.516l-.125-2.859h.031l1.578 2.297L15.797 0h2.625v-16.328h-2.297v10.406l.11 2.938h-.032L14.656-5.22l-9.14-11.11zm0 0"/></symbol><symbol id="bw" overflow="visible"><path d="M.797-16.328l.062 2.172h6.625V0h2.594v-14.156h6.578l.094-2.172zm0 0"/></symbol><symbol id="bx" overflow="visible"><path d="M14.781-16.328L5.516-8.313h-.032v-8.015H2.922V0h2.562v-5.516l2.86-2.406L14.922 0h2.86c-.266-.563-.5-.797-1.22-1.672l-6.468-7.781 6.828-5.766c.422-.36.75-.844.781-1.11zm0 0"/></symbol><symbol id="by" overflow="visible"><path d="M1.734-7.922C1.734-3.344 4.97.453 10.75.453c6.266 0 9.031-4.531 9.031-8.86 0-4.577-3.187-8.374-8.937-8.374-6.375 0-9.11 4.531-9.11 8.86zm15.422-.39c0 2.5-.89 4.437-2.61 5.546-.983.657-2.233 1-3.796 1-4.172 0-6.406-2.796-6.406-6.343 0-2.407.937-4.282 2.593-5.391 1.016-.719 2.297-1.078 3.813-1.078 4.14 0 6.406 2.687 6.406 6.265zM9.625-19.047l1.672.719 2.469-4.64v-.298l-2.235-.953zm0 0"/></symbol><symbol id="bz" overflow="visible"><path d="M9.203-13.86h.094l1.64 3.907 1.485 3.64h-6.5zm-1.36-2.468L1.282-1.766C.984-1.125.781-.562.594 0h2.594L5.03-4.266h8.235L14.984 0h2.625c-.172-.594-.422-1.125-.687-1.766L10.64-16.422zm0 0"/></symbol><symbol id="bA" overflow="visible"><path d="M3.39 0l5.704-13.797h.078l1.64 4.14L14.783 0h2.624c-.187-.797-.39-1.375-.843-2.39l-5.985-13.97-2.89.063L1.609-2.359C1.188-1.375.953-.781.781 0zm0 0"/></symbol><symbol id="bB" overflow="visible"><path d="M1.703-9.563c0 5.422 2.016 11.204 5.86 16l1.859-1.312C6.14.781 4.437-4.203 4.344-9.563c.093-5.359 1.797-10.343 5.078-14.687l-1.86-1.344C3.72-20.797 1.704-15.016 1.704-9.562zm0 0"/></symbol><symbol id="bC" overflow="visible"><path d="M1.766-18.36l.562 1.938 4.64-1.062v15.312h-5.03V0h11.374l-.109-2.172h-3.64v-17.765L7.421-20zm0 0"/></symbol><symbol id="bD" overflow="visible"><path d="M2.86-15.281c0 1.984 1.468 3.656 3.312 4.64-2.203 1.344-4.36 3.047-4.39 5.844-.016 3.39 3.046 5.25 7.093 5.25 4.14 0 7.547-1.937 7.547-5.812 0-2.688-1.969-4-4.172-5.047 2-1.485 3.297-3.063 3.297-5.172 0-2.922-2.61-4.828-6.25-4.828-3.719 0-6.438 2.015-6.438 5.125zm2.656-.094c0-.922.406-1.64 1.093-2.14.688-.485 1.641-.72 2.72-.72 2.108 0 3.608 1.22 3.546 2.891 0 1.516-.953 2.89-2.625 4.078-3.047-1.343-4.734-2.265-4.734-4.109zm3.609 13.64c-2.656 0-4.688-1.187-4.688-3.218 0-2.203 1.813-3.656 3.782-4.766 3.515 1.469 5.547 2.39 5.547 4.563 0 1.11-.563 1.937-1.407 2.531-.859.594-2.046.89-3.234.89zm0 0"/></symbol><symbol id="bE" overflow="visible"><path d="M2.5-19.969v10.11l.297.328c1.469-.422 3.11-.781 4.406-.781 2.875 0 4.719 1.374 4.719 3.874 0 1.813-.719 3.079-1.875 3.75-.922.626-2.188.876-3.547.876-1.14 0-2.953-.266-4.094-.579l-.531 2c1.469.563 3.219.813 4.766.813 4.5 0 7.984-2.39 7.984-7 0-3.797-2.938-5.813-6.734-5.813-.954 0-1.97.11-2.891.36l-.031-5.703h8.5l.094-2.235zm0 0"/></symbol><symbol id="bF" overflow="visible"><path d="M8.281-9.953c-2.625 0-4.14-1.547-4.14-3.969 0-1.219.453-2.344 1.375-3.187.859-.766 1.968-1.032 2.921-1.032 3.25 0 4.438 3.188 4.532 6.703-1.375.891-3.078 1.485-4.688 1.485zm-6.828-3.813c0 3.344 2.39 5.922 6.328 5.922a9.431 9.431 0 0 0 5.032-1.422h.03c-.515 4.141-2.921 7.36-7.624 7.36-.547 0-.985-.032-1.578-.157L3.219.031a8.742 8.742 0 0 0 2.36.328c6.609 0 10.124-5.875 10.124-11.828 0-4.203-1.844-8.937-7.125-8.937-4.437 0-7.125 3.187-7.125 6.64zm0 0"/></symbol><symbol id="bG" overflow="visible"><path d="M2.297-8.188v1.985h13.531v-1.984zm0 0"/></symbol><symbol id="bH" overflow="visible"><path d="M1.781-18.203l1.203 1.578c.922-.531 2.438-1.438 4.313-1.438 2.203 0 3.734 1.047 3.734 2.954 0 2.14-1.797 3.734-4.422 3.734H5l.063 2.172h1.546c3.079 0 5.157 1.156 5.157 3.578 0 1.281-.563 2.234-1.672 2.906-.797.485-1.953.875-3.516.875-1.297 0-3.062-.265-4.281-.75L1.609-.688C3.063.032 5.031.423 6.797.423c4.578 0 7.719-2.485 7.719-6.203 0-2.438-1.532-4.11-3.938-4.828 1.938-1.016 3.156-2.797 3.156-4.922 0-3-2.468-4.797-6.046-4.797-2.204 0-4.204.719-5.907 2.125zm0 0"/></symbol><symbol id="bI" overflow="visible"><path d="M1.906-9.563c0 5.235 2.5 10.016 7.422 10.016 5.188 0 8.11-5.25 8.11-10.875 0-5.25-2.547-9.984-7.485-9.984-5.156 0-8.047 5.234-8.047 10.843zm12.781-.718c0 2.437-.53 6.203-2.953 7.812a4.114 4.114 0 0 1-2.265.656c-3.188 0-4.828-3.64-4.828-7.937 0-2.64.64-6.219 2.921-7.719a4.242 4.242 0 0 1 2.297-.672c3.157 0 4.829 3.625 4.829 7.86zm0 0"/></symbol><symbol id="bJ" overflow="visible"><path d="M.922-24.25c3.281 4.344 4.984 9.328 5.062 14.688C5.906-4.204 4.204.78.922 5.124l1.844 1.313C6.609 1.64 8.64-4.142 8.64-9.563c0-5.454-2.032-11.235-5.875-16.032zm0 0"/></symbol><symbol id="bK" overflow="visible"><path d="M2.36-13.86c.234 3.22.296 4.735.296 5.938V0H5.22v-10.156c1.515-1.219 3.218-2.031 4.875-2.031 2.125 0 2.687 1.453 2.687 4.234v15.11h2.563V-8.876c0-3.453-1.156-5.484-4.703-5.484-2.157 0-3.907.796-5.672 2.437l-.438-2.234zm5.203-2.796l1.671.718 2.47-4.656v-.297l-2.235-.953zm0 0"/></symbol><symbol id="bL" overflow="visible"><path d="M.797-13.922v2.235h5.125v7.968C5.922-1.109 7.266.36 9.625.36c1.313 0 2.328-.234 3.188-.562l-.485-1.938c-.562.141-1.297.329-2.11.329-1.28 0-1.734-.782-1.734-2.297v-7.579h5.61v-2.234zm0 0"/></symbol><symbol id="bM" overflow="visible"><path d="M8.11-1.734c-2.36 0-3.766-1.72-3.766-4.97 0-3.312 1.64-5.515 4.203-5.515 1.344 0 2.656.656 3.937 1.938v4.797c0 1.437-1.875 3.75-4.375 3.75zM1.702-6.563C1.703-2.39 4.016.454 7.625.454c2.39 0 4.328-1.375 5.25-2.75C13.141-.53 14.188.36 16.063.36c.984 0 1.671-.187 2.296-.453L17.906-2a4.432 4.432 0 0 1-1.343.188c-1.188 0-1.516-.688-1.516-2.204v-4.39c0-1.422 0-2.406.265-5.453l-2.14-.297-.39 1.703c-1.25-1.25-2.704-1.906-4.5-1.906-4.173 0-6.579 3.546-6.579 7.796zm0 0"/></symbol><symbol id="bN" overflow="visible"><path d="M11.797-13.828c-.031 1.765-.594 3.969-1.844 6.672l-2.094 4.5h-.14c-.188-.656-.532-1.781-.828-2.531l-3.5-8.735H.78c0 .422.11.906.328 1.375L6.344.031 9.062-.03l3.22-6.5c1.577-3.188 2.343-5.657 2.109-7.5zm0 0"/></symbol><symbol id="cg" overflow="visible"><path d="M2.563-4.047c.093.656.156 1.39.156 2.047C2.719 0 2 1.906.234 3.453l1.079.875C3.874 2.797 5.25.422 5.25-2.109c0-.688-.125-1.47-.297-2.125zm0 0"/></symbol><symbol id="ch" overflow="visible"><path d="M2.531-13.86v10.188C2.531-.953 4 .36 6.25.36c1.281 0 2.36-.234 3.172-.562l-.485-1.938c-.468.141-1.218.329-2 .329-1.218 0-1.843-.516-1.843-2.235v-9.89zm0 0"/></symbol><symbol id="ci" overflow="visible"><path d="M3.578-18.422c0 1.969 1.281 3.547 3.063 4.828-2.954 1.344-5 4.328-5 7.39C1.64-2.5 4.203.454 8.578.454c4.36 0 6.969-3.015 6.969-6.89 0-3.641-2.313-5.688-5.625-7.75-2.235-1.422-3.75-2.532-3.75-4.204 0-1.39 1.016-2.078 2.594-2.078 1.578 0 3.156.563 5 1.61l.984-1.97c-1.61-1.077-3.547-1.874-6.11-1.874-3.218 0-5.062 1.578-5.062 4.281zm5 16.719c-2.828 0-4.281-2.203-4.281-4.531 0-2.97 1.937-5.329 4.469-6.047 2.375 1.437 4.14 3.078 4.14 5.906 0 2.594-1.578 4.672-4.328 4.672zm0 0"/></symbol><symbol id="cj" overflow="visible"><path d="M2.531-13.86v10.188C2.531-.953 4 .36 6.25.36c1.281 0 2.36-.234 3.172-.562l-.485-1.938c-.468.141-1.218.329-2 .329-1.218 0-1.843-.516-1.843-2.235v-9.89zm.188-2.796l1.656.718 2.484-4.656v-.297l-2.234-.953zm0 0"/></symbol><symbol id="ck" overflow="visible"><path d="M7.953-14.266c-3.61 0-5.922 1.297-5.922 3.72 0 1.671 1.094 2.921 3.031 3.452-2.046.532-3.328 1.875-3.328 3.61C1.734-.656 4.266.359 8.078.359c2.406 0 4.5-.515 5.656-1.015l-.562-1.875c-.953.328-3.094.828-5 .828-2.266 0-3.844-.406-3.844-2.078 0-1.375 1.36-2.297 4.469-2.297h2.172v-2H8.797c-2.875 0-4.172-.985-4.172-2.203 0-1.422 1.453-1.938 3.656-1.938 1.875 0 3.422.39 4.766.813l.594-1.797c-1.391-.594-3.188-1.063-5.688-1.063zm0 0"/></symbol><symbol id="cl" overflow="visible"><path d="M8.906-12.188c3.047 0 4.11 2.204 4.11 5.157 0 3.125-1.422 5.328-4.641 5.328a6.92 6.92 0 0 1-3.484-.922v-4.047c0-3.578.921-5.516 4.015-5.516zM8.796.454c4.5 0 6.876-3.765 6.876-7.578 0-4.016-2-7.234-6.735-7.234-4.468 0-6.609 2.656-6.609 7.656v13.86h2.563v-7.72C5.906 0 7.125.454 8.797.454zm0 0"/></symbol><symbol id="cm" overflow="visible"><path d="M12.281-13.922L7.812-2.766H7.72c-.188-.656-.422-1.312-.657-1.968l-3.671-9.188H.78c0 .516.11.906.328 1.375L6.375-.203v6.047h2.563v-6l5.484-12.422c.203-.438.36-.86.36-1.344zm0 0"/></symbol><symbol id="cn" overflow="visible"><path d="M17.64-13.563c1.157 1.876 2.704 4.626 2.704 7.72 0 2.53-1.125 4.077-3.063 4.077-2.656 0-3.672-2.875-3.672-5.984v-2.078h-2.562v2.078c0 3.11-1.063 5.984-3.781 5.984-1.907 0-2.97-1.453-2.97-4.046 0-3.157 1.548-5.985 2.704-7.75l-2.11-.922C3.39-12.61 1.704-9.125 1.704-5.75 1.703-1.969 3.843.422 7 .422c2.89 0 4.563-2 5.281-4.5.703 2.562 2.344 4.5 5.188 4.5 3.156 0 5.468-2.36 5.468-6.203 0-3.313-1.718-6.86-3.156-8.703zm0 0"/></symbol><symbol id="co" overflow="visible"><path d="M8.703-1.703c-2.922 0-4.406-2.313-4.406-4.86 0-3 2.016-5.265 5.953-5.265 1.813 1.375 2.766 3.312 2.766 5.453 0 2.563-1.547 4.672-4.313 4.672zm6.906-4.531c0-2.141-.984-4.22-2.625-5.532l1.532.032h3.453v-2.235h-8.11c-5.656 0-8.218 3.688-8.218 7.469C1.64-2.766 4.344.453 8.578.453c4.469 0 7.031-3.406 7.031-6.687zm0 0"/></symbol><symbol id="cp" overflow="visible"><path d="M1.672-6.64c0 4.25 2.656 7.093 6.766 7.093 4.874 0 7.234-3.937 7.234-7.719 0-4.203-2.656-7.093-6.735-7.093-4.89 0-7.265 3.953-7.265 7.718zm11.344-.22c0 1.97-.563 3.25-1.36 4.063-.625.656-1.61 1.094-2.922 1.094-2.859 0-4.406-2.172-4.406-5.328 0-2.063.594-3.375 1.453-4.14.625-.595 1.61-1.017 2.86-1.017 2.859 0 4.375 2.172 4.375 5.329zm-5.422-9.796l1.672.718 2.468-4.656v-.297L9.5-21.844zm0 0"/></symbol><symbol id="cq" overflow="visible"><path d="M1.64-7.188c0 4.125 3.032 5.454 5.876 6.657 1.515.625 2.859 1.25 2.859 2.5 0 .984-.875 1.672-1.672 2.11L9.75 5.843c1.453-.547 3.094-1.735 3.094-4 0-2.266-1.735-3.39-3.703-4.235-2.86-1.187-4.844-2.046-4.844-5.093 0-2.704 1.61-4.61 4.219-4.61 1.765 0 3.109.719 4.062 1.516l1.063-1.61c-.954-1.078-2.704-2.078-5.157-2.078-4.343 0-6.843 3.36-6.843 7.079zm0 0"/></symbol><symbol id="cr" overflow="visible"><path d="M1.672-6.64c0 4.25 2.656 7.093 6.766 7.093 4.874 0 7.234-3.937 7.234-7.719 0-4.203-2.656-7.093-6.735-7.093-4.89 0-7.265 3.953-7.265 7.718zm11.344-.22c0 1.97-.563 3.25-1.36 4.063-.625.656-1.61 1.094-2.922 1.094-2.859 0-4.406-2.172-4.406-5.328 0-2.063.594-3.375 1.453-4.14.625-.595 1.61-1.017 2.86-1.017 2.859 0 4.375 2.172 4.375 5.329zm0 0"/></symbol><symbol id="cs" overflow="visible"><path d="M2.36-13.86c.234 3.22.296 4.735.296 5.938V0H5.22v-10.156c1.515-1.219 3.218-2.031 4.875-2.031 2.125 0 2.687 1.453 2.687 4.234v15.11h2.563V-8.876c0-3.453-1.156-5.484-4.703-5.484-2.157 0-3.907.796-5.672 2.437l-.438-2.234zm0 0"/></symbol><symbol id="ct" overflow="visible"><path d="M12.422-13.922v8.078c0 1.875-1.39 4.032-4.016 4.032-2.156 0-3.25-1.438-3.25-3.157v-9l-2.562.078V7.031h2.531L5-1.047C5.656-.203 6.703.36 8.375.36c2.469 0 3.844-1.156 4.469-2.765C13.109-.484 14.219.359 16.03.359c1.016 0 1.75-.234 2.36-.484L17.938-2a4.833 4.833 0 0 1-1.282.188c-1.078 0-1.672-.579-1.672-2.625v-9.485zm0 0"/></symbol><symbol id="cu" overflow="visible"><path d="M11.203-13.703c.86 1.937 1.547 4.172 1.547 6.875 0 3.14-1.219 5.062-4.047 5.062-2.422 0-3.75-1.484-3.75-4.765v-7.407l-2.562.047v7.329c0 4.53 1.984 6.984 6.25 6.984 4.53 0 6.703-3.047 6.703-7.36 0-2.953-.922-5.75-1.781-7.515zm0 0"/></symbol><symbol id="cv" overflow="visible"><path d="M17.64-13.563c1.157 1.876 2.704 4.626 2.704 7.72 0 2.53-1.125 4.077-3.063 4.077-2.656 0-3.672-2.875-3.672-5.984v-2.078h-2.562v2.078c0 3.11-1.063 5.984-3.781 5.984-1.907 0-2.97-1.453-2.97-4.046 0-3.157 1.548-5.985 2.704-7.75l-2.11-.922C3.39-12.61 1.704-9.125 1.704-5.75 1.703-1.969 3.843.422 7 .422c2.89 0 4.563-2 5.281-4.5.703 2.562 2.344 4.5 5.188 4.5 3.156 0 5.468-2.36 5.468-6.203 0-3.313-1.718-6.86-3.156-8.703zm-6.734-3.093l1.672.718 2.469-4.656v-.297l-2.235-.953zm0 0"/></symbol><symbol id="cw" overflow="visible"><path d="M7.953-14.266c-3.61 0-5.922 1.297-5.922 3.72 0 1.671 1.094 2.921 3.031 3.452-2.046.532-3.328 1.875-3.328 3.61C1.734-.656 4.266.359 8.078.359c2.406 0 4.5-.515 5.656-1.015l-.562-1.875c-.953.328-3.094.828-5 .828-2.266 0-3.844-.406-3.844-2.078 0-1.375 1.36-2.297 4.469-2.297h2.172v-2H8.797c-2.875 0-4.172-.985-4.172-2.203 0-1.422 1.453-1.938 3.656-1.938 1.875 0 3.422.39 4.766.813l.594-1.797c-1.391-.594-3.188-1.063-5.688-1.063zm-1.39-2.39l1.656.718 2.484-4.656v-.297l-2.234-.953zm0 0"/></symbol><symbol id="cx" overflow="visible"><path d="M12.969-13.922L5.188-7.156h-.032v-6.782l-2.562.079V0h2.562v-4.438L7.688-6.53 13.14 0h2.718c-.125-.422-.609-.984-1.109-1.61L9.422-7.983l5.265-4.407c.594-.515.985-1.015 1.047-1.53zm0 0"/></symbol><symbol id="cy" overflow="visible"><path d="M9.453-1.875c-1.828 0-3.25-.531-4.265-1.047v-12.094c0-3.546.859-5.453 4.234-5.453 2.64 0 4.078 1.313 4.078 3.64 0 2.438-1.484 4.048-5.156 4.048h-.828v2.297h1c4.093 0 5.812 1.359 5.812 4.28 0 2.891-1.719 4.329-4.875 4.329zm6.61-15.281c0-3.438-2.563-5.547-6.5-5.547-4.97 0-6.97 2.734-6.97 7.75V7.03h2.595V-.53c1.046.469 2.468.89 4.312.89 4.719 0 7.453-2.328 7.453-6.468 0-3.188-1.812-5-4.594-5.657 2.532-.78 3.704-2.859 3.704-5.39zm0 0"/></symbol><symbol id="cz" overflow="visible"><path d="M2.297-8.188v1.985h7.156v-1.984zm0 0"/></symbol><symbol id="cA" overflow="visible"><path d="M11.203-13.703c.86 1.937 1.547 4.172 1.547 6.875 0 3.14-1.219 5.062-4.047 5.062-2.422 0-3.75-1.484-3.75-4.765v-7.407l-2.562.047v7.329c0 4.53 1.984 6.984 6.25 6.984 4.53 0 6.703-3.047 6.703-7.36 0-2.953-.922-5.75-1.781-7.515zm-4.312-2.953l1.656.718 2.484-4.656v-.297l-2.234-.953zm0 0"/></symbol><symbol id="cB" overflow="visible"><path d="M14.453-1.344L8.47-17.437c-1.281-3.422-2.625-5.266-5.406-5.266-.672 0-1.032.031-1.454.094v2.14c2.141 0 3.25.688 4.47 3.657l1.015 2.453L1.109-1.344C.922-.922.781-.454.781 0h2.64l3.61-8.61L8.11-11.5h.11L12.313 0h2.5c-.032-.5-.188-.953-.36-1.344zm0 0"/></symbol><symbol id="cM" overflow="visible"><path d="M.86-13.922v2.235h3.937V0h2.562v-11.688h6.25v8.5c0 2.11.844 3.547 3.141 3.547 1.063 0 1.813-.203 2.469-.484l-.453-1.844c-.328.063-.797.157-1.282.157-.953 0-1.359-.516-1.359-1.672v-8.204h4.14v-2.234zm0 0"/></symbol><symbol id="cN" overflow="visible"><path d="M1.875-10.64c0 5.874 2.094 11 7.422 11 5.844 0 7.484-5.657 7.484-11.626 0-6.218-2.187-11.437-7.39-11.437-5.672 0-7.516 6.11-7.516 12.062zm7.484-9.829c3.329 0 4.641 3.313 4.797 8.188H4.5c.203-4.547 1.422-8.188 4.86-8.188zM9.33-1.875c-3.423 0-4.704-3.453-4.86-8.203h9.718c-.156 4.39-1.14 8.203-4.859 8.203zm0 0"/></symbol><symbol id="cO" overflow="visible"><path d="M9.688-8.61v6.938c-3.704-.297-5.422-2.11-5.422-5.156 0-2.922 1.515-4.672 3.125-6.078l-1.672-1.422c-2.078 1.547-4.047 3.984-4.047 7.594 0 4.296 2.86 6.859 8.015 7.156v6.734h2.407V.391c5.719-.454 8.203-3.75 8.203-7.985 0-3.406-1.797-6.765-5.875-6.765-3.688 0-4.735 2.656-4.735 5.75zm2.406-.234c0-2 .422-3.469 2.36-3.469 2.046 0 3.25 1.704 3.25 4.688 0 3.453-1.642 5.594-5.61 5.953zm0 0"/></symbol><symbol id="cP" overflow="visible"><path d="M19.938-1.281c0 1.015.734 1.703 1.843 1.703 1.157 0 1.907-.75 1.907-1.86 0-.968-.72-1.625-1.813-1.625-1.172 0-1.938.735-1.938 1.782zm-17.797 0C2.14-.266 2.89.422 4 .422c1.156 0 1.906-.75 1.906-1.86 0-.968-.718-1.625-1.828-1.625-1.156 0-1.937.735-1.937 1.782zm8.906 0c0 1.015.75 1.703 1.86 1.703 1.155 0 1.905-.75 1.905-1.86 0-.968-.718-1.625-1.828-1.625-1.156 0-1.937.735-1.937 1.782zm0 0"/></symbol><symbol id="bO" overflow="visible"><path d="M12.656-10.344L6.203-17.78h11.531l.36-2.188H3.187l-.5 2.203 6.735 7.688-8.89 7.875L.593 0h14.953l.156-2.172H3.843l8.798-7.594zm0 0"/></symbol><symbol id="bP" overflow="visible"><path d="M14-14.453c-2.313 1.078-7.031 4.656-9.328 8.578h-.078L5.625-14l-2.5.063L1.281 0h2.532L4-1.281c.406-1.61 1.547-3.313 2.938-4.828L11.14 0h2.718c-.093-.422-.484-.984-.89-1.61L8.672-7.78c2.234-2.016 4.765-3.625 6.375-4.469zm0 0"/></symbol><symbol id="bQ" overflow="visible"><path d="M16.063-13.297c1.406 2.125 2.328 3.969 2.328 6.438 0 2.89-.953 4.718-2.688 5.093-2.656 0-3.61-2.343-3.094-5.984l.297-2.078h-2.562l-.297 2.078C9.562-4.469 8.28-2.14 6.25-1.766c-1.719 0-2.469-1.359-2.469-3.203 0-2.953 1.469-5.734 3.875-8.078l-1.578-1.437c-2.656 2.203-4.89 5.687-4.89 9.687 0 3.125 1.671 5.219 4.718 5.219 2.235 0 3.985-1.64 4.938-4.031.422 2.39 1.875 4.03 4.469 4.03 3.343 0 5.64-3.015 5.64-7.359 0-2.78-1.375-5.703-2.984-7.546zm0 0"/></symbol><symbol id="bR" overflow="visible"><path d="M8.516-13.969c-3.594 0-5.625.36-7.532 1l.5 2.031c1.282-.296 2.594-.562 4.563-.687l-1.188 8.11C4.5-.892 5.516.39 7.625.39c1.672 0 3.188-.813 4.266-1.797l-.954-1.64c-.78.546-2.265 1.265-3.046 1.265-.5-.328-.688-.875-.5-2.063l1.156-7.86h4.984l.297-2.265zm0 0"/></symbol><symbol id="bS" overflow="visible"><path d="M7.203-1.734c-2.14 0-3.36-1.688-3.36-3.782 0-3.875 2.266-6.343 5.907-6.343h.672c.953.859 1.562 2.593 1.562 4.14 0 2.203-1.046 4.407-2.593 5.485-.625.328-1.375.5-2.188.5zm7.344-6.016c0-1.313-.516-2.922-1.25-4.016.312.032.672.032 1.031.063h2.86l.296-2.266H9.562c-5.093 0-8.312 3.953-8.312 8.453 0 3.547 1.969 5.97 5.578 5.97 4.766 0 7.719-4.423 7.719-8.204zm0 0"/></symbol><symbol id="bT" overflow="visible"><path d="M8.078-14.328c-3.312 0-5.906 1.422-5.906 3.953 0 1.344.844 2.531 2.469 3.11C2.469-6.736.953-5.36.953-3.345.953-.656 3.547.36 6.797.36c2.406 0 4.5-.593 5.75-1.078l-.563-1.875c-1.203.36-3.078.828-4.921.828-2.063 0-3.547-.437-3.547-1.921 0-1.641 1.734-2.422 4.703-2.422h2.562l.266-1.938H8.578c-2.656 0-3.844-.89-3.844-2.265 0-.657.329-1.126.782-1.422.718-.297 1.687-.454 2.828-.454 1.75 0 3.61.454 4.797.985l.75-1.813c-1.532-.78-3.407-1.312-5.813-1.312zm-.656-2.563l1.61.953 2.952-4.468v-.297L9.86-21.875zm0 0"/></symbol><symbol id="bU" overflow="visible"><path d="M2.14-8.188l-.265 1.985h7.156l.266-1.984zm0 0"/></symbol><symbol id="bV" overflow="visible"><path d="M10.094-21.938c-1.985 0-3.531-.343-5.469-1.062l-.719 2.016a11.493 11.493 0 0 0 5.328 1.28c1.016 0 2.032-.202 2.891-.468l.031.063C6.046-15.047 1.187-10.016 1.187-5.58c0 2.985 2.157 3.907 5.344 5.016 1.61.532 2.797 1.125 3 2.329-.203 1.062-1.187 1.843-2.078 2.312l1.094 1.766c1.703-.625 3.406-1.969 3.406-4.266 0-2.531-2.094-3.547-4.203-4.312-2.328-.782-3.969-1.5-3.969-3.313 0-3.125 4.625-8.469 11.922-14.484l-.687-2.172c-.954.265-2.829.765-4.922.765zm0 0"/></symbol><symbol id="bW" overflow="visible"><path d="M1.25-5.578C1.25-1.906 3.219.453 6.828.453c4.672 0 7.766-4.422 7.766-8.797 0-3.515-1.813-6.078-5.563-6.078-4.703 0-7.781 4.563-7.781 8.844zm10.766-2.734c0 2.593-1.079 4.953-2.594 6.078-.61.296-1.406.5-2.219.5-2.14 0-3.36-1.625-3.36-3.844 0-2.438 1.016-4.938 2.626-6.125a4.598 4.598 0 0 1 2.172-.547c2.406 0 3.375 1.64 3.375 3.938zm0 0"/></symbol><symbol id="bX" overflow="visible"><path d="M11.11 1.703c0-2.094-1.641-3.14-3.063-3.906C5.625-3.391 4-4.343 4-6.703c0-1.844.969-4.172 2.344-5.063.593-.265 1.25-.39 1.968-.39 1.438 0 2.72.531 3.579 1.187l1.093-1.781c-.859-.813-2.171-1.578-4.25-1.578-4.765 0-7.39 4.047-7.39 7.687 0 3.297 1.843 4.5 4.531 6.016 1.219.656 2.297 1.25 2.828 2.36-.234 1-.953 1.718-2 2.343L7.75 5.844c1.375-.594 3.36-1.875 3.36-4.14zm0 0"/></symbol><symbol id="bZ" overflow="visible"><path d="M3.063-13.922L1.766-3.516C1.406-.89 2.39.391 4.5.391c1.64 0 3.016-.813 4.078-1.797l-.984-1.64c-.797.577-2.047 1.265-2.828 1.265-.5-.328-.594-.875-.47-2.063L5.626-14zm0 0"/></symbol><symbol id="ca" overflow="visible"><path d="M5.281-1.813c-1.078-.39-1.5-1.609-1.5-3.046 0-3.094 1.844-7.157 4.39-7.329 1.485.5 2.142 3.188 2.25 6.579-1.655 2.187-3.655 3.671-5.14 3.796zM1.188-4.671c0 3 1.28 5.125 3.765 5.125 2.11 0 3.953-1.578 5.719-3.812.36 2.375.922 3.75 2.703 3.75 1.438 0 2.797-.844 3.781-1.766l-1-1.688c-.718.532-1.906 1.25-2.484 1.25-.594-.328-1.031-1.734-1.344-3.484 1.672-2.36 3.469-5.437 4.688-8.297l-2.532-.828c-.75 1.703-1.765 4.344-2.453 6.344-.297-3.61-.953-6.344-3.86-6.344-4.124 0-6.983 5.25-6.983 9.75zm0 0"/></symbol><symbol id="cb" overflow="visible"><path d="M9.14-12.281c1.594.125 2.235 1.703 2.235 3.875 0 2.36-.89 4.734-2.25 5.875-.688.453-1.86.719-2.75.719a7.41 7.41 0 0 1-2.797-.579c.656-5.359 2.266-9.671 5.563-9.89zM3.423 7.156c-.078-.922-.172-2-.172-3.11 0-1.359.031-2.765.11-4.109.906.266 1.828.454 2.812.454 4.672 0 7.797-4.204 7.797-9 0-3.344-1.578-5.813-4.64-5.813-6.595 0-8.673 8.5-8.673 18.531 0 1.25.031 2.36.125 3.282zm0 0"/></symbol><symbol id="cc" overflow="visible"><path d="M1.25-5.578C1.25-1.906 3.219.453 6.828.453c4.672 0 7.766-4.422 7.766-8.797 0-3.515-1.813-6.078-5.563-6.078-4.703 0-7.781 4.563-7.781 8.844zm10.766-2.734c0 2.593-1.079 4.953-2.594 6.078-.61.296-1.406.5-2.219.5-2.14 0-3.36-1.625-3.36-3.844 0-2.438 1.016-4.938 2.626-6.125a4.598 4.598 0 0 1 2.172-.547c2.406 0 3.375 1.64 3.375 3.938zm-3.829-8.641l1.61.953 2.953-4.469v-.297l-2.11-1.172zm0 0"/></symbol><symbol id="cd" overflow="visible"><path d="M10.906-13.797c.594 1.844.89 3.313.89 5.219 0 2.594-.562 4.703-1.64 5.86-.656.609-1.64.952-2.672.952-2.53 0-3.437-1.78-2.984-5.171L5.422-14l-2.563.063-.89 6.968C1.375-2.53 3.156.421 7.234.421c4.72 0 7.157-3.733 7.157-9.233 0-2.157-.391-3.938-.985-5.704zm0 0"/></symbol><symbol id="ce" overflow="visible"><path d="M15.313-13.203l-2.266-1.156C11.234-12.313 8.25-7.094 6.64-2.797h-.063c-.406-4-1.125-7.187-2.469-11.172H1.188c.03.203.062.375.156.563C2.656-9.75 3.687-6.25 5.03-.062c-.468 1.828-.89 3.671-1.093 5.515.656.234 2.171.469 3 .469.25-1.906.359-3.813.328-5.656 2.89-6.188 5.578-10.282 8.046-13.235zm0 0"/></symbol><symbol id="cf" overflow="visible"><path d="M9-8.484l-.922 6.812c-2.953-.36-4.172-2.11-4.172-4.578 0-2.89 1.703-5.281 3.485-6.688l-1.485-1.515C3.61-12.938 1.344-9.797 1.344-6.172 1.344-2.5 3.812.031 7.812.391l-.906 6.765h2.39l.892-6.765c5.359-.516 8.828-4.032 8.828-9.266 0-3.219-1.828-5.484-4.985-5.484-3.484 0-4.61 2.656-5.031 5.875zm2.406-.25c.188-1.313.485-2.438 1.016-3.063.39-.36.875-.515 1.547-.515 1.64 0 2.531 1.28 2.531 3.468 0 2.172-.86 4.516-2.406 5.89-.922.657-2.203 1.11-3.61 1.25zm0 0"/></symbol><symbol id="cC" overflow="visible"><path d="M13.828-10.422l-6.734-6.172H17.78l.188-3.375H1.672l-.297 3.375 7.172 6.797-7.172 6.438L1.672 0h16.297l-.188-3.36H6.734l7.094-6.14zm0 0"/></symbol><symbol id="cD" overflow="visible"><path d="M8.188-14.656c-4.047 0-6.485 1.344-6.485 3.906 0 1.61.953 2.89 2.703 3.547-1.937.625-3.031 1.984-3.031 3.562 0 2.985 2.797 4 7.031 4 2.703 0 5.063-.562 6.172-.984l-.75-2.86c-.953.266-3.094.688-4.86.688-1.812 0-3.218-.125-3.218-1.437 0-1.047 1.14-1.579 3.484-1.579h2.454V-8.64H9.265c-2.172 0-3.25-.593-3.25-1.515 0-1.172 1.218-1.344 3.015-1.344 1.781 0 3.281.266 4.578.594l.844-2.735c-1.469-.578-3.453-1.015-6.265-1.015zm-1.954-2.531l2.563 1.125 2.797-5v-.454l-3.25-1.453zm0 0"/></symbol><symbol id="cE" overflow="visible"><path d="M9.266-11.438c2.359 0 3.125 1.75 3.125 4.235 0 2.969-1.22 4.375-3.485 4.375a5.712 5.712 0 0 1-2.656-.656v-3.407c0-2.937.547-4.546 3.016-4.546zM9.953.454c4.14 0 6.906-3.672 6.906-7.75 0-4.14-2.28-7.453-7.5-7.453-5.015 0-7.484 2.688-7.484 8.375V7.094H6.25V-.5c.953.563 2.156.953 3.703.953zm0 0"/></symbol><symbol id="cF" overflow="visible"><path d="M15.797-1.844L10.375-16.75c-1.469-4.078-2.984-5.953-6.734-5.953-.954 0-1.532.062-2.094.172v3.281c2.422 0 3.61.563 4.734 3.078l.625 1.36L.953-1.845C.688-1.28.5-.594.5 0h4.531l2.532-6.969 1.046-3.437h.157L11.984 0h4.22c0-.625-.204-1.344-.407-1.844zm0 0"/></symbol><symbol id="cG" overflow="visible"><path d="M1.313-6.64c0 4.25 2.859 7.093 7.265 7.093 5.219 0 8.047-3.703 8.047-8.015 0-4.204-2.797-7.188-7.234-7.188-5.188 0-8.079 3.844-8.079 8.11zm10.843-.329c0 1.782-.469 2.797-1.047 3.39-.375.454-1.093.813-2.078.813-2.094 0-3.25-1.703-3.25-4.468 0-1.797.5-2.891 1.047-3.47.406-.468 1.125-.796 2.11-.796 2.093 0 3.218 1.813 3.218 4.531zm0 0"/></symbol><symbol id="cH" overflow="visible"><path d="M12.875-14.297L6.531-8.219H6.5v-6.11l-4.36.079V0H6.5v-3.906l2.234-1.875L12.97 0h4.469c-.032-.531-.579-1.219-1.141-1.969L11.53-8.187l4.406-3.766c.891-.766 1.376-1.516 1.376-2.344zm0 0"/></symbol><symbol id="cJ" overflow="visible"><path d="M1.016-19.969c.03.657.5 1.375 1.125 2.297l5.125 7.625-5.5 7.578C1.078-1.579.5-.656.484 0H4.97l5.125-7.39h.125L15.109 0h4.797c-.031-.625-.593-1.516-1.25-2.469l-5.484-7.906 5.297-7.297c.656-.922 1.11-1.64 1.14-2.297h-4.406l-4.828 7h-.125l-4.438-7zm0 0"/></symbol><symbol id="cK" overflow="visible"><path d="M11.89-14.297v8.188c0 1.734-1.14 3.015-2.89 3.015-1.672 0-2.469-1.14-2.469-2.719v-8.546l-4.39.093V6.906h4.296l-.265-7.39c.594.515 1.422.843 2.562.843 2.141 0 3.422-.953 3.985-2.421C13.14-.423 14.39.358 16.39.358c1.375 0 2.172-.265 2.953-.593l-.547-2.954c-.266.032-.688.094-1.063.094-.984 0-1.468-.297-1.468-2.125v-9.078zm0 0"/></symbol><symbol id="cL" overflow="visible"><path d="M1.281-7.39c0 3.64 2.407 5.218 5.422 6.593 1.64.672 2.922 1.281 2.922 2.313 0 .875-.89 1.437-1.547 1.765L9.5 6.016c2.063-.532 4.203-1.938 4.203-4.797 0-2.672-1.906-3.844-4.172-4.969C7.187-4.828 5.75-5.516 5.75-7.719c0-2.078 1.313-3.515 3.422-3.515 1.469 0 2.844.484 3.844 1.078l1.406-2.781c-1.156-.891-3.047-1.72-5.516-1.72-4.828 0-7.625 3.391-7.625 7.266zm0 0"/></symbol></defs><path d="M20 311.422h960M20 553.52h960M20 1147.125h960M20 1303.418h960M20 786.543h960M20 1506.906h960" fill="none" stroke="#ddd"/><use x="32.013" xlink:href="#a" y="204.541"/><use x="161.573" xlink:href="#b" y="204.541"/><use x="242.627" xlink:href="#c" y="204.541"/><use x="330.633" xlink:href="#d" y="204.541"/><use x="401.575" xlink:href="#e" y="204.541"/><use x="485.789" xlink:href="#f" y="204.541"/><use x="568.423" xlink:href="#g" y="204.541"/><use x="614.243" xlink:href="#h" y="204.541"/><use x="730.689" xlink:href="#i" y="204.541"/><use x="812.691" xlink:href="#e" y="204.541"/><use x="896.905" xlink:href="#j" y="204.541"/><use x="35.293" xlink:href="#k" y="693.661"/><use x="76.092" xlink:href="#l" y="693.661"/><use x="106.182" xlink:href="#m" y="693.661"/><use x="125.917" xlink:href="#n" y="693.661"/><use x="175.654" xlink:href="#o" y="693.661"/><use x="229.462" xlink:href="#p" y="693.661"/><use x="271.677" xlink:href="#q" y="693.661"/><use x="338.317" xlink:href="#r" y="693.661"/><use x="377.7" xlink:href="#m" y="693.661"/><use x="397.435" xlink:href="#o" y="693.661"/><use x="451.243" xlink:href="#s" y="693.661"/><use x="493.281" xlink:href="#o" y="693.661"/><use x="547.089" xlink:href="#t" y="693.661"/><use x="593.64" xlink:href="#u" y="693.661"/><use x="638.952" xlink:href="#v" y="693.661"/><use x="681.697" xlink:href="#w" y="693.661"/><use x="735.859" xlink:href="#w" y="693.661"/><use x="790.021" xlink:href="#x" y="693.661"/><use x="832.767" xlink:href="#s" y="693.661"/><use x="874.795" xlink:href="#y" y="693.661"/><use x="922.497" xlink:href="#r" y="693.661"/><use x="36.568" xlink:href="#z" y="1891.371"/><use x="76.202" xlink:href="#A" y="1891.371"/><use x="106.194" xlink:href="#B" y="1891.371"/><use x="140.907" xlink:href="#C" y="1891.371"/><use x="150.416" xlink:href="#D" y="1891.371"/><use x="191.247" xlink:href="#E" y="1891.371"/><use x="226.825" xlink:href="#F" y="1891.371"/><use x="261.538" xlink:href="#G" y="1891.371"/><use x="295.785" xlink:href="#H" y="1891.371"/><use x="331.828" xlink:href="#I" y="1891.371"/><use x="367.805" xlink:href="#J" y="1891.371"/><use x="407.04" xlink:href="#K" y="1891.371"/><use x="446.009" xlink:href="#C" y="1891.371"/><use x="455.518" xlink:href="#L" y="1891.371"/><use x="487.239" xlink:href="#I" y="1891.371"/><use x="523.215" xlink:href="#M" y="1891.371"/><use x="550.746" xlink:href="#C" y="1891.371"/><use x="560.256" xlink:href="#N" y="1891.371"/><use x="585.925" xlink:href="#O" y="1891.371"/><use x="614.985" xlink:href="#P" y="1891.371"/><use x="663.397" xlink:href="#Q" y="1891.371"/><use x="698.642" xlink:href="#E" y="1891.371"/><use x="734.22" xlink:href="#K" y="1891.371"/><use x="772.923" xlink:href="#M" y="1891.371"/><use x="800.454" xlink:href="#C" y="1891.371"/><use x="809.963" xlink:href="#R" y="1891.371"/><use x="850.528" xlink:href="#B" y="1891.371"/><use x="885.241" xlink:href="#E" y="1891.371"/><use x="920.819" xlink:href="#S" y="1891.371"/><use x="40.63" xlink:href="#T" y="1238.941"/><use x="64.851" xlink:href="#U" y="1238.941"/><use x="72.666" xlink:href="#V" y="1238.941"/><use x="99.172" xlink:href="#U" y="1238.941"/><use x="106.986" xlink:href="#W" y="1238.941"/><use x="131.527" xlink:href="#X" y="1238.941"/><use x="150.817" xlink:href="#Y" y="1238.941"/><use x="169.463" xlink:href="#Z" y="1238.941"/><use x="190.531" xlink:href="#aa" y="1238.941"/><use x="211.415" xlink:href="#Y" y="1238.941"/><use x="229.65" xlink:href="#ab" y="1238.941"/><use x="251.906" xlink:href="#ac" y="1238.941"/><use x="273.567" xlink:href="#U" y="1238.941"/><use x="281.382" xlink:href="#ad" y="1238.941"/><use x="300.256" xlink:href="#ae" y="1238.941"/><use x="321.233" xlink:href="#af" y="1238.941"/><use x="342.3" xlink:href="#U" y="1238.941"/><use x="350.115" xlink:href="#ag" y="1238.941"/><use x="377.306" xlink:href="#ah" y="1238.941"/><use x="390.605" xlink:href="#ab" y="1238.941"/><use x="412.861" xlink:href="#ad" y="1238.941"/><use x="431.735" xlink:href="#ae" y="1238.941"/><use x="452.254" xlink:href="#ai" y="1238.941"/><use x="472.911" xlink:href="#ah" y="1238.941"/><use x="486.21" xlink:href="#ae" y="1238.941"/><use x="507.186" xlink:href="#Z" y="1238.941"/><use x="528.254" xlink:href="#U" y="1238.941"/><use x="536.068" xlink:href="#ab" y="1238.941"/><use x="558.324" xlink:href="#ad" y="1238.941"/><use x="577.472" xlink:href="#ac" y="1238.941"/><use x="599.134" xlink:href="#X" y="1238.941"/><use x="618.602" xlink:href="#U" y="1238.941"/><use x="626.417" xlink:href="#aj" y="1238.941"/><use x="647.119" xlink:href="#ak" y="1238.941"/><use x="667.364" xlink:href="#W" y="1238.941"/><use x="691.905" xlink:href="#aa" y="1238.941"/><use x="712.379" xlink:href="#X" y="1238.941"/><use x="731.847" xlink:href="#ad" y="1238.941"/><use x="750.721" xlink:href="#W" y="1238.941"/><use x="775.262" xlink:href="#aa" y="1238.941"/><use x="796.147" xlink:href="#al" y="1238.941"/><use x="817.123" xlink:href="#am" y="1238.941"/><use x="840.206" xlink:href="#ag" y="1238.941"/><use x="867.078" xlink:href="#W" y="1238.941"/><use x="891.619" xlink:href="#U" y="1238.941"/><use x="899.434" xlink:href="#ad" y="1238.941"/><use x="918.582" xlink:href="#ac" y="1238.941"/><use x="940.244" xlink:href="#an" y="1238.941"/><use x="30.787" xlink:href="#ao" y="412.946"/><use x="60.311" xlink:href="#ap" y="412.946"/><use x="93.8" xlink:href="#aq" y="412.946"/><use x="120.884" xlink:href="#ar" y="412.946"/><use x="134.304" xlink:href="#as" y="412.946"/><use x="160.839" xlink:href="#aq" y="412.946"/><use x="187.923" xlink:href="#at" y="412.946"/><use x="213.598" xlink:href="#au" y="412.946"/><g><use x="243.915" xlink:href="#av" y="412.946"/><use x="281.247" xlink:href="#aw" y="412.946"/><use x="297.9" xlink:href="#ax" y="412.946"/><use x="330.657" xlink:href="#as" y="412.946"/><use x="357.192" xlink:href="#at" y="412.946"/><use x="383.544" xlink:href="#as" y="412.946"/><use x="410.079" xlink:href="#ar" y="412.946"/><use x="423.499" xlink:href="#at" y="412.946"/></g><g><use x="449.18" xlink:href="#ay" y="412.946"/><use x="481.998" xlink:href="#ar" y="412.946"/><use x="495.418" xlink:href="#az" y="412.946"/></g><g><use x="522.38" xlink:href="#as" y="412.946"/><use x="548.915" xlink:href="#az" y="412.946"/></g><g><use x="575.572" xlink:href="#au" y="412.946"/></g><g><use x="606.255" xlink:href="#aq" y="412.946"/><use x="633.339" xlink:href="#aA" y="412.946"/></g><g><use x="663.534" xlink:href="#at" y="412.946"/></g><g><use x="689.215" xlink:href="#ay" y="412.946"/><use x="722.033" xlink:href="#aB" y="412.946"/><use x="735.697" xlink:href="#ar" y="412.946"/><use x="749.117" xlink:href="#aw" y="412.946"/><use x="765.77" xlink:href="#ax" y="412.946"/><use x="798.527" xlink:href="#aC" y="412.946"/><use x="842.264" xlink:href="#aD" y="412.946"/><use x="868.433" xlink:href="#ar" y="412.946"/></g><g><use x="881.853" xlink:href="#ar" y="412.946"/></g><g><use x="30.787" xlink:href="#ar" y="483.95"/></g><g><use x="56.407" xlink:href="#aE" y="483.95"/><use x="89.225" xlink:href="#aF" y="483.95"/><use x="116.492" xlink:href="#aF" y="483.95"/></g><g><use x="143.332" xlink:href="#au" y="483.95"/><use x="174.442" xlink:href="#aG" y="483.95"/><use x="191.095" xlink:href="#ar" y="483.95"/><use x="204.515" xlink:href="#aq" y="483.95"/><use x="231.599" xlink:href="#ay" y="483.95"/><use x="264.417" xlink:href="#ar" y="483.95"/><use x="277.837" xlink:href="#as" y="483.95"/><use x="304.372" xlink:href="#aq" y="483.95"/><use x="331.456" xlink:href="#at" y="483.95"/></g><g><use x="357.137" xlink:href="#au" y="483.95"/></g><g><use x="387.454" xlink:href="#av" y="483.95"/><use x="424.786" xlink:href="#aw" y="483.95"/><use x="441.439" xlink:href="#ax" y="483.95"/><use x="474.196" xlink:href="#au" y="483.95"/><use x="505.306" xlink:href="#aH" y="483.95"/><use x="535.44" xlink:href="#aq" y="483.95"/><use x="562.524" xlink:href="#ar" y="483.95"/><use x="575.944" xlink:href="#at" y="483.95"/><use x="602.296" xlink:href="#aI" y="483.95"/><use x="633.772" xlink:href="#aq" y="483.95"/><use x="660.856" xlink:href="#ar" y="483.95"/><use x="674.276" xlink:href="#as" y="483.95"/></g><g><use x="700.506" xlink:href="#aJ" y="483.95"/></g><g><use x="727.59" xlink:href="#aK" y="483.95"/><use x="759.066" xlink:href="#az" y="483.95"/><use x="786.211" xlink:href="#aI" y="483.95"/><use x="817.687" xlink:href="#ax" y="483.95"/><use x="850.444" xlink:href="#aI" y="483.95"/><use x="881.92" xlink:href="#aL" y="483.95"/></g><g><use x="927.725" xlink:href="#aM" y="483.95"/></g><g><use x="32.914" xlink:href="#aN" y="1023.873"/><use x="130.732" xlink:href="#aO" y="1023.873"/></g><g><use x="219.097" xlink:href="#aP" y="1023.873"/><use x="329.861" xlink:href="#aQ" y="1023.873"/><use x="475.355" xlink:href="#aR" y="1023.873"/></g><g><use x="583.243" xlink:href="#aS" y="1023.873"/><use x="683.321" xlink:href="#aT" y="1023.873"/><use x="746.204" xlink:href="#aU" y="1023.873"/><use x="859.846" xlink:href="#aV" y="1023.873"/></g><g><use x="39.862" xlink:href="#aW" y="1429.715"/><use x="90.463" xlink:href="#aX" y="1429.715"/><use x="149.423" xlink:href="#aY" y="1429.715"/></g><g><use x="208.207" xlink:href="#aZ" y="1429.715"/></g><g><use x="250.975" xlink:href="#ba" y="1429.715"/><use x="303.51" xlink:href="#bb" y="1429.715"/><use x="355.695" xlink:href="#bc" y="1429.715"/><use x="378.31" xlink:href="#bb" y="1429.715"/><use x="430.495" xlink:href="#bd" y="1429.715"/><use x="450.558" xlink:href="#bb" y="1429.715"/><use x="502.743" xlink:href="#be" y="1429.715"/><use x="564.519" xlink:href="#bb" y="1429.715"/><use x="616.702" xlink:href="#bf" y="1429.715"/><use x="668.798" xlink:href="#bg" y="1429.715"/><use x="720.982" xlink:href="#bh" y="1429.715"/><use x="771.407" xlink:href="#aZ" y="1429.715"/></g><g><use x="818.038" xlink:href="#bi" y="1429.715"/><use x="878.23" xlink:href="#bj" y="1429.715"/><use x="938.51" xlink:href="#bk" y="1429.715"/></g><g><use x="38.053" xlink:href="#bl" y="1588.35"/><use x="59.569" xlink:href="#bm" y="1588.35"/><use x="66.84" xlink:href="#bn" y="1588.35"/><use x="84.66" xlink:href="#bo" y="1588.35"/><use x="102.034" xlink:href="#bp" y="1588.35"/><use x="119.586" xlink:href="#bm" y="1588.35"/><use x="126.857" xlink:href="#bq" y="1588.35"/><use x="145.214" xlink:href="#bp" y="1588.35"/><use x="162.766" xlink:href="#br" y="1588.35"/></g><g><use x="184.282" xlink:href="#bl" y="1588.35"/></g><g><use x="204.635" xlink:href="#bs" y="1588.35"/><use x="223.349" xlink:href="#bp" y="1588.35"/><use x="240.902" xlink:href="#bm" y="1588.35"/><use x="248.173" xlink:href="#bt" y="1588.35"/><use x="256.576" xlink:href="#bu" y="1588.35"/><use x="272.132" xlink:href="#bv" y="1588.35"/></g><g><use x="293.439" xlink:href="#bq" y="1588.35"/></g><g><use x="311.796" xlink:href="#bw" y="1588.35"/></g><g><use x="329.318" xlink:href="#bt" y="1588.35"/><use x="337.722" xlink:href="#bl" y="1588.35"/><use x="359.237" xlink:href="#bn" y="1588.35"/></g><g><use x="377.058" xlink:href="#bm" y="1588.35"/><use x="384.329" xlink:href="#bx" y="1588.35"/><use x="402.924" xlink:href="#by" y="1588.35"/><use x="424.44" xlink:href="#bv" y="1588.35"/><use x="445.747" xlink:href="#bz" y="1588.35"/><use x="464.104" xlink:href="#bv" y="1588.35"/><use x="485.411" xlink:href="#bm" y="1588.35"/></g><g><use x="492.682" xlink:href="#bv" y="1588.35"/></g><g><use x="513.989" xlink:href="#bw" y="1588.35"/><use x="531.511" xlink:href="#by" y="1588.35"/><use x="553.027" xlink:href="#bs" y="1588.35"/><use x="571.741" xlink:href="#bA" y="1588.35"/><use x="589.919" xlink:href="#bm" y="1588.35"/><use x="597.19" xlink:href="#bB" y="1588.35"/><use x="607.531" xlink:href="#bC" y="1588.35"/><use x="621.835" xlink:href="#bD" y="1588.35"/><use x="640.102" xlink:href="#bE" y="1588.35"/><use x="656.373" xlink:href="#bF" y="1588.35"/><use x="673.925" xlink:href="#bG" y="1588.35"/></g><g><use x="690.971" xlink:href="#bC" y="1588.35"/><use x="705.275" xlink:href="#bF" y="1588.35"/><use x="722.827" xlink:href="#bH" y="1588.35"/><use x="739.217" xlink:href="#bI" y="1588.35"/></g><g><use x="757.216" xlink:href="#bJ" y="1588.35"/><use x="767.557" xlink:href="#bm" y="1588.35"/><use x="774.828" xlink:href="#bK" y="1588.35"/></g><g><use x="792.44" xlink:href="#bL" y="1588.35"/></g><g><use x="807.221" xlink:href="#bM" y="1588.35"/></g><g><use x="825.518" xlink:href="#bN" y="1588.35"/><use x="841.074" xlink:href="#bm" y="1588.35"/></g><g><use x="848.345" xlink:href="#bO" y="1588.35"/></g><g><use x="866.016" xlink:href="#bP" y="1588.35"/><use x="881.065" xlink:href="#bQ" y="1588.35"/></g><g><use x="903.263" xlink:href="#bR" y="1588.35"/></g><g><use x="917.329" xlink:href="#bS" y="1588.35"/></g><g><use x="934.792" xlink:href="#bT" y="1588.35"/></g><g><use x="948.848" xlink:href="#bU" y="1588.35"/></g><g><use x="38.59" xlink:href="#bV" y="1628.35"/></g><g><use x="51.017" xlink:href="#bW" y="1628.35"/><use x="67.228" xlink:href="#bX" y="1628.35"/><use x="80.608" xlink:href="#bY" y="1628.35"/><use x="87.164" xlink:href="#bZ" y="1628.35"/><use x="96.551" xlink:href="#ca" y="1628.35"/><use x="114.997" xlink:href="#bR" y="1628.35"/><use x="129.301" xlink:href="#cb" y="1628.35"/><use x="144.887" xlink:href="#cc" y="1628.35"/><use x="161.098" xlink:href="#bX" y="1628.35"/><use x="174.478" xlink:href="#bY" y="1628.35"/><use x="181.034" xlink:href="#bP" y="1628.35"/></g><g><use x="196.023" xlink:href="#ca" y="1628.35"/><use x="214.47" xlink:href="#bZ" y="1628.35"/><use x="223.857" xlink:href="#bY" y="1628.35"/><use x="230.413" xlink:href="#bS" y="1628.35"/><use x="247.875" xlink:href="#cd" y="1628.35"/></g><g><use x="263.878" xlink:href="#ce" y="1628.35"/><use x="279.225" xlink:href="#ce" y="1628.35"/><use x="294.572" xlink:href="#cb" y="1628.35"/><use x="310.157" xlink:href="#ca" y="1628.35"/><use x="328.604" xlink:href="#cf" y="1628.35"/><use x="349.195" xlink:href="#bT" y="1628.35"/></g><g><use x="363.443" xlink:href="#ca" y="1628.35"/></g><g><use x="381.707" xlink:href="#bX" y="1628.35"/></g><g><use x="395.087" xlink:href="#cg" y="1628.35"/><use x="402.806" xlink:href="#bm" y="1628.35"/><use x="410.077" xlink:href="#ch" y="1628.35"/><use x="419.583" xlink:href="#ci" y="1628.35"/><use x="436.778" xlink:href="#ch" y="1628.35"/><use x="446.284" xlink:href="#bM" y="1628.35"/><use x="464.819" xlink:href="#cj" y="1628.35"/></g><g><use x="473.488" xlink:href="#bL" y="1628.35"/><use x="488.597" xlink:href="#ck" y="1628.35"/><use x="503.586" xlink:href="#cl" y="1628.35"/><use x="520.93" xlink:href="#bM" y="1628.35"/><use x="539.465" xlink:href="#bm" y="1628.35"/><use x="546.737" xlink:href="#cm" y="1628.35"/><use x="562.233" xlink:href="#bN" y="1628.35"/></g><g><use x="577.669" xlink:href="#cn" y="1628.35"/><use x="602.314" xlink:href="#co" y="1628.35"/><use x="620.879" xlink:href="#bL" y="1628.35"/></g><g><use x="635.66" xlink:href="#cp" y="1628.35"/><use x="653.003" xlink:href="#cq" y="1628.35"/><use x="667.576" xlink:href="#bm" y="1628.35"/><use x="674.847" xlink:href="#cn" y="1628.35"/><use x="699.491" xlink:href="#cq" y="1628.35"/><use x="714.064" xlink:href="#bm" y="1628.35"/><use x="721.335" xlink:href="#cr" y="1628.35"/><use x="738.678" xlink:href="#bm" y="1628.35"/><use x="745.95" xlink:href="#ci" y="1628.35"/><use x="763.144" xlink:href="#cs" y="1628.35"/><use x="780.965" xlink:href="#ct" y="1628.35"/><use x="799.47" xlink:href="#ch" y="1628.35"/><use x="808.977" xlink:href="#cr" y="1628.35"/><use x="826.32" xlink:href="#cu" y="1628.35"/><use x="843.425" xlink:href="#cl" y="1628.35"/></g><g><use x="860.531" xlink:href="#cm" y="1628.35"/></g><g><use x="875.729" xlink:href="#cp" y="1628.35"/><use x="893.072" xlink:href="#cq" y="1628.35"/><use x="907.644" xlink:href="#bm" y="1628.35"/><use x="914.916" xlink:href="#bL" y="1628.35"/></g><g><use x="929.905" xlink:href="#cn" y="1628.35"/></g><g><use x="954.281" xlink:href="#bN" y="1628.35"/><use x="969.837" xlink:href="#bm" y="1628.35"/></g><g><use x="38.739" xlink:href="#ch" y="1668.342"/><use x="48.245" xlink:href="#co" y="1668.342"/><use x="66.811" xlink:href="#bL" y="1668.342"/></g><g><use x="81.591" xlink:href="#cr" y="1668.342"/><use x="98.935" xlink:href="#cl" y="1668.342"/><use x="116.279" xlink:href="#ch" y="1668.342"/><use x="125.785" xlink:href="#cv" y="1668.342"/></g><g><use x="150.158" xlink:href="#bN" y="1668.342"/><use x="165.714" xlink:href="#bm" y="1668.342"/><use x="172.985" xlink:href="#bL" y="1668.342"/></g><g><use x="187.766" xlink:href="#cr" y="1668.342"/><use x="205.109" xlink:href="#cu" y="1668.342"/><use x="222.215" xlink:href="#bm" y="1668.342"/><use x="229.486" xlink:href="#bN" y="1668.342"/><use x="245.041" xlink:href="#bL" y="1668.342"/><use x="260.15" xlink:href="#ck" y="1668.342"/><use x="275.139" xlink:href="#bL" y="1668.342"/><use x="290.248" xlink:href="#cw" y="1668.342"/><use x="305.237" xlink:href="#cx" y="1668.342"/><use x="322.045" xlink:href="#bL" y="1668.342"/><use x="337.153" xlink:href="#ch" y="1668.342"/><use x="346.659" xlink:href="#cy" y="1668.342"/><use x="365.255" xlink:href="#cz" y="1668.342"/><use x="376.996" xlink:href="#co" y="1668.342"/><use x="395.561" xlink:href="#cA" y="1668.342"/><use x="412.666" xlink:href="#ct" y="1668.342"/><use x="431.172" xlink:href="#cy" y="1668.342"/><use x="449.767" xlink:href="#cr" y="1668.342"/><use x="467.111" xlink:href="#cu" y="1668.342"/></g><g><use x="483.978" xlink:href="#cB" y="1668.342"/></g><g><use x="499.325" xlink:href="#cr" y="1668.342"/><use x="516.668" xlink:href="#cu" y="1668.342"/><use x="533.774" xlink:href="#bm" y="1668.342"/></g><g><use x="541.045" xlink:href="#cC" y="1668.342"/></g><g><use x="560.147" xlink:href="#cD" y="1668.342"/><use x="575.672" xlink:href="#cE" y="1668.342"/></g><g><use x="593.433" xlink:href="#cF" y="1668.342"/></g><g><use x="609.913" xlink:href="#cG" y="1668.342"/><use x="627.852" xlink:href="#cH" y="1668.342"/><use x="646.03" xlink:href="#cI" y="1668.342"/><use x="652.884" xlink:href="#cJ" y="1668.342"/></g><g><use x="672.522" xlink:href="#cG" y="1668.342"/></g><g><use x="690.045" xlink:href="#cF" y="1668.342"/><use x="706.822" xlink:href="#cK" y="1668.342"/><use x="726.252" xlink:href="#cL" y="1668.342"/></g><g><use x="741.301" xlink:href="#cg" y="1668.342"/><use x="749.019" xlink:href="#bm" y="1668.342"/><use x="756.29" xlink:href="#bm" y="1668.342"/><use x="763.561" xlink:href="#cM" y="1668.342"/></g><g><use x="784.6" xlink:href="#cr" y="1668.342"/><use x="801.944" xlink:href="#cu" y="1668.342"/><use x="819.049" xlink:href="#bm" y="1668.342"/><use x="826.32" xlink:href="#cN" y="1668.342"/><use x="844.975" xlink:href="#ck" y="1668.342"/></g><g><use x="859.875" xlink:href="#cn" y="1668.342"/><use x="884.52" xlink:href="#cl" y="1668.342"/><use x="901.863" xlink:href="#bK" y="1668.342"/><use x="919.684" xlink:href="#cN" y="1668.342"/><use x="938.338" xlink:href="#cs" y="1668.342"/></g><g><use x="956.144" xlink:href="#cz" y="1668.35"/></g><g><use x="39.034" xlink:href="#cx" y="1708.35"/></g><g><use x="54.947" xlink:href="#bM" y="1708.35"/></g><g><use x="73.244" xlink:href="#bN" y="1708.35"/><use x="88.8" xlink:href="#bm" y="1708.35"/><use x="96.071" xlink:href="#co" y="1708.35"/><use x="114.637" xlink:href="#cs" y="1708.35"/><use x="132.457" xlink:href="#ct" y="1708.35"/><use x="150.963" xlink:href="#bM" y="1708.35"/></g><g><use x="169.26" xlink:href="#bN" y="1708.35"/><use x="184.816" xlink:href="#bL" y="1708.35"/><use x="199.924" xlink:href="#ch" y="1708.35"/><use x="209.43" xlink:href="#cx" y="1708.35"/><use x="226.238" xlink:href="#bK" y="1708.35"/><use x="244.058" xlink:href="#bm" y="1708.35"/><use x="251.329" xlink:href="#cx" y="1708.35"/></g><g><use x="267.242" xlink:href="#bM" y="1708.35"/><use x="285.778" xlink:href="#ch" y="1708.35"/></g><g><use x="294.477" xlink:href="#bN" y="1708.35"/></g><g><use x="309.886" xlink:href="#cr" y="1708.35"/></g><g><use x="326.842" xlink:href="#bL" y="1708.35"/></g><g><use x="341.623" xlink:href="#cr" y="1708.35"/><use x="358.967" xlink:href="#ct" y="1708.35"/><use x="377.473" xlink:href="#cj" y="1708.35"/><use x="386.979" xlink:href="#bM" y="1708.35"/><use x="405.514" xlink:href="#bm" y="1708.35"/><use x="412.786" xlink:href="#cm" y="1708.35"/><use x="428.282" xlink:href="#ch" y="1708.35"/><use x="437.788" xlink:href="#bM" y="1708.35"/><use x="456.323" xlink:href="#bm" y="1708.35"/><use x="463.595" xlink:href="#bL" y="1708.35"/></g><g><use x="478.372" xlink:href="#cr" y="1708.35"/><use x="495.716" xlink:href="#bm" y="1708.35"/><use x="502.987" xlink:href="#cM" y="1708.35"/><use x="524.324" xlink:href="#ck" y="1708.35"/></g><g><use x="538.896" xlink:href="#ci" y="1708.35"/><use x="556.091" xlink:href="#cj" y="1708.35"/><use x="565.597" xlink:href="#cr" y="1708.35"/><use x="582.941" xlink:href="#bm" y="1708.35"/><use x="590.212" xlink:href="#co" y="1708.35"/><use x="608.777" xlink:href="#cu" y="1708.35"/><use x="625.882" xlink:href="#cm" y="1708.35"/><use x="641.378" xlink:href="#cm" y="1708.35"/><use x="656.874" xlink:href="#cl" y="1708.35"/><use x="674.218" xlink:href="#bM" y="1708.35"/><use x="692.754" xlink:href="#cO" y="1708.35"/><use x="714.716" xlink:href="#bK" y="1708.35"/><use x="732.537" xlink:href="#cq" y="1708.35"/><use x="747.109" xlink:href="#bm" y="1708.35"/><use x="754.38" xlink:href="#bM" y="1708.35"/><use x="772.916" xlink:href="#co" y="1708.35"/><use x="791.481" xlink:href="#bL" y="1708.35"/><use x="806.59" xlink:href="#cu" y="1708.35"/><use x="823.695" xlink:href="#bN" y="1708.35"/></g><g><use x="839.101" xlink:href="#cr" y="1708.35"/><use x="856.445" xlink:href="#ct" y="1708.35"/><use x="874.951" xlink:href="#ch" y="1708.35"/><use x="884.457" xlink:href="#cx" y="1708.35"/></g><g><use x="900.519" xlink:href="#cv" y="1708.35"/></g><g><use x="924.896" xlink:href="#bN" y="1708.35"/></g><g><use x="939.232" xlink:href="#cP" y="1708.35"/></g><path d="M20 1770.398h960" fill="none" stroke="#ddd"/></svg>