<?xml version='1.0' encoding='UTF-8'?>
<svg xmlns="http://www.w3.org/2000/svg" xmlns:xlink="http://www.w3.org/1999/xlink" width="600px" height="300px" viewBox="0 0 600 300" x="0px" y="0px" enable-background="new 0 0 600 300"><defs><symbol overflow="visible" id="e44f6231a"><path d="M10.38-40.2H5.63V0h4.74v-18.42h19.14V0h4.8v-40.2h-4.8v17.64H10.38zM49.3-22.08l-4.67.13v15.4c0 4.75 2.52 7.2 6.72 7.2 2.34 0 4.27-.53 5.7-1.2l-.9-3.6c-.9.3-2.22.73-3.6.73-2.15 0-3.25-1.02-3.25-3.85zm0 0"/></symbol><symbol overflow="visible" id="e44f6231b"><path d="M6.36-37.38c0 4.08 2.64 7.32 6.12 10.08a16.91 16.91 0 00-9.36 15.07C3.13-4.73 7.8.84 15.48.84c7.74 0 12.54-5.89 12.54-13.68 0-7.25-3.96-11.35-10.08-15.85-3.96-2.81-6.78-5.22-6.78-8.58 0-2.87 1.86-4.25 4.8-4.25 3 0 5.7 1.32 8.76 3.3l1.98-3.55c-2.7-2.09-6.12-3.89-10.92-3.89-6 0-9.42 3.07-9.42 8.28zM7.98-12.3c0-6.18 3.47-11.04 8.04-12.48 4.2 3 7.14 6.3 7.14 12.06 0 5.35-2.75 9.49-7.61 9.49S7.98-7.37 7.98-12.3zm0 0"/></symbol><symbol overflow="visible" id="e44f6231c"><path d="M14.45-28.69c-6.36 0-10.6 2.6-10.6 7.46 0 3.42 2.09 5.8 5.38 6.95-3.59 1.08-6 3.6-6 7.14 0 5.58 4.5 7.8 11.29 7.8 4.14 0 7.92-.96 9.96-1.86l-1.03-3.53c-1.6.59-5.45 1.43-8.64 1.43-4.08 0-6.83-1.01-6.83-4.26 0-2.94 2.46-4.74 7.97-4.74h3.85v-3.84h-3.85c-4.86 0-7.37-1.92-7.37-4.63 0-2.75 2.51-3.95 6.42-3.95 3.06 0 6 .78 8.16 1.56l1.2-3.36c-2.28-1.2-5.52-2.17-9.9-2.17zm0 0"/></symbol><symbol overflow="visible" id="e44f6231d"><path d="M3.83 0v-5.95H6.2v-.82H.45v.82h2.4V0zm0 0"/></symbol><symbol overflow="visible" id="e44f6231e"><path d="M5.75-2.23v-.43c0-1.6-.9-2.51-2.42-2.51S.87-4.16.87-2.48c0 1.71.91 2.62 2.5 2.62 1.43 0 2.07-.56 2.29-1.52l-.9-.09c-.18.61-.59.9-1.35.9-.94 0-1.52-.54-1.58-1.66zm-2.4-2.2c.93 0 1.43.5 1.48 1.55H1.84c.08-1.07.6-1.56 1.5-1.56zm0 0"/></symbol><symbol overflow="visible" id="e44f6231f"><path d="M1.83 0l1.42-2h.06l1.46 2H5.8L4-2.53l1.78-2.49H4.8L3.42-3.08h-.08l-1.4-1.94H.89l1.78 2.49L.84 0zm0 0"/></symbol><symbol overflow="visible" id="e44f6231g"><path d="M5.52-4.25v-.77H3.17v-1.56h-.81l-.14 1.56H.75v.77h1.47v2.4c0 1.3.48 1.94 1.84 1.94C4.6.1 5.14 0 5.55-.14L5.4-.91c-.32.13-.72.2-1.13.2-.8 0-1.1-.37-1.1-1.23v-2.31zm0 0"/></symbol><symbol overflow="visible" id="e44f6231h"><path d="M3.33-3.42c.47 0 .8-.27.8-.8 0-.51-.33-.8-.8-.8-.47 0-.8.29-.8.8 0 .53.33.8.8.8zm0 3.5c.47 0 .8-.27.8-.78 0-.53-.33-.82-.8-.82-.47 0-.8.29-.8.82 0 .51.33.78.8.78zm0 0"/></symbol><symbol overflow="visible" id="e44f6231k"><path d="M3.42.14C4.97.14 5.91-.8 5.91-2.3c0-1.24-.54-2.05-1.94-2.52-.99-.33-1.42-.56-1.42-1.08 0-.43.3-.68.98-.68.74 0 1.06.23 1.17.8l.9-.07c-.12-.86-.7-1.42-2.08-1.42-1.32 0-1.9.55-1.9 1.33 0 .75.52 1.14 1.3 1.39v.06c-1.04.03-2 .81-2 2.23C.92-.8 1.86.14 3.42.14zm0-.75c-1.04 0-1.51-.64-1.51-1.7 0-1.03.5-1.72 1.5-1.72 1.01 0 1.53.66 1.53 1.72s-.49 1.7-1.52 1.7zm0 0"/></symbol><symbol overflow="visible" id="e44f6231l"><path d="M3.42.16c1.6 0 2.2-.64 2.31-1.61l-.89-.08c-.09.64-.48.97-1.42.97-1 0-1.33-.35-1.33-.86 0-.55.27-.8 1.22-.8h.8v-.65h-.8c-.76 0-1.1-.25-1.1-.8 0-.44.26-.78 1.21-.78.99 0 1.24.37 1.33.89l.9-.06c-.12-.94-.73-1.55-2.23-1.55-1.48 0-2.14.54-2.14 1.44 0 .65.38 1.01.9 1.14v.06c-.56.08-1.02.5-1.02 1.22 0 .89.67 1.47 2.26 1.47zm0 0"/></symbol><symbol overflow="visible" id="e44f6231m"><path d="M5.95-6.77H1.1V0h.99v-2.92H5.3v-.77H2.08v-2.26h3.87zm0 0"/></symbol><symbol overflow="visible" id="e44f6231n"><path d="M2.83.14c.94 0 1.5-.39 1.81-.95h.08l.1.81h.76v-3.38c0-1.23-.69-1.8-2.13-1.8-1.43 0-2.03.65-2.18 1.6l.93.1c.11-.6.44-.93 1.22-.93.85 0 1.22.32 1.22 1.04v.34l-1.81.2C1.6-2.7 1.1-2.17 1.1-1.28c0 .92.64 1.42 1.72 1.42zm.25-.77c-.67 0-1.02-.28-1.02-.74 0-.44.28-.72 1-.82l1.58-.19v.41c0 .8-.6 1.34-1.56 1.34zm0 0"/></symbol><symbol overflow="visible" id="e44f6231o"><path d="M2.73.14c.9 0 1.43-.45 1.74-1.08h.06l.13.94h.8v-5.02h-.94v2.7c0 .98-.57 1.62-1.46 1.62-.75 0-1.1-.4-1.1-1.22v-3.1h-.93v3.32c0 1.17.55 1.84 1.7 1.84zm0 0"/></symbol><symbol overflow="visible" id="e44f6231p"><path d="M5.08-5.16c-.94 0-1.58.43-1.9 1.3h-.09l-.07-1.16H1.05v.77h1.1v3.48H.96V0h3.96v-.77H3.1v-1.46c0-1.36.6-2.05 1.83-2.05.4 0 .76.08 1.1.17l.15-.87c-.33-.11-.7-.18-1.11-.18zm0 0"/></symbol><symbol overflow="visible" id="e44f6231q"><path d="M.92-6.77V0h.99v-2.27h1.68c1.58 0 2.38-.65 2.38-2.2v-.14c0-1.51-.8-2.16-2.34-2.16zM5-4.47c0 1.05-.42 1.45-1.58 1.45H1.91v-2.96h1.51C4.58-5.98 5-5.66 5-4.61zm0 0"/></symbol><symbol overflow="visible" id="e44f6231r"><path d="M3.33.14c1.62 0 2.5-.95 2.5-2.66 0-1.68-.88-2.64-2.5-2.64-1.63 0-2.5.96-2.5 2.64 0 1.7.87 2.66 2.5 2.66zm0-.77c-1.06 0-1.52-.6-1.52-1.89 0-1.28.46-1.87 1.52-1.87 1.08 0 1.53.6 1.53 1.87 0 1.29-.45 1.9-1.53 1.9zm0 0"/></symbol><symbol overflow="visible" id="e44f6231s"><path d="M3.36.16c1.4 0 2.2-.6 2.2-1.57 0-.89-.54-1.22-1.47-1.39L3-3c-.67-.14-.86-.33-.86-.73 0-.5.4-.74 1.17-.74.83 0 1.19.27 1.27.8l.9-.05c-.12-1-.8-1.47-2.17-1.47-1.34 0-2.1.53-2.1 1.5 0 .81.45 1.22 1.52 1.44l1.04.2c.56.11.87.24.87.72 0 .52-.45.78-1.28.78-.95 0-1.36-.28-1.42-.87l-.9.06C1.07-.36 1.8.16 3.35.16zm0 0"/></symbol><symbol overflow="visible" id="e44f6231t"><path d="M3.16 2.03c1.67 0 2.4-.86 2.4-2.51v-4.54h-.81l-.13.91h-.06c-.26-.58-.8-1.05-1.73-1.05-1.42 0-2.24 1-2.24 2.52 0 1.6.75 2.56 2.2 2.56.94 0 1.5-.5 1.77-1.03h.05v.72c0 1.17-.42 1.67-1.45 1.67-.93 0-1.3-.34-1.41-.89L.8.5c.12.96.87 1.54 2.36 1.54zM3.06-.8c-.98 0-1.48-.57-1.48-1.82 0-1.13.5-1.75 1.48-1.75 1.06 0 1.58.76 1.58 1.75 0 .95-.56 1.82-1.58 1.82zm0 0"/></symbol><symbol overflow="visible" id="e44f6231u"><path d="M1.63 0v-2.9c0-.8.15-1.4.71-1.4.41 0 .55.3.55.88V0h.95v-2.9c0-.8.18-1.4.72-1.4.4 0 .57.3.57.88V0h.95v-3.63c0-.92-.28-1.53-1.11-1.53-.63 0-.95.41-1.1.9h-.06c-.1-.52-.44-.9-1.08-.9-.6 0-.93.41-1.06.9H1.6l-.23-.76H.67V0zm0 0"/></symbol><symbol overflow="visible" id="e44f6231v"><path d="M2.16 0v-2.67c0-.99.59-1.63 1.46-1.63.74 0 1.07.38 1.07 1.22V0h.95v-3.31c0-1.2-.56-1.85-1.67-1.85-.92 0-1.49.46-1.77 1.08h-.06l-.12-.94H1.2V0zm0 0"/></symbol><symbol overflow="visible" id="e44f6231w"><path d="M3.58-5.81c.42 0 .72-.22.72-.67 0-.44-.3-.68-.72-.68-.44 0-.72.24-.72.68 0 .45.28.67.72.67zm.5.8H1.52v.76h1.6v3.48h-1.8V0h4.46v-.77h-1.7zm0 0"/></symbol><symbol overflow="visible" id="e44f6231x"><path d="M3.92-7.14H1.36v.76h1.6v5.61H1.15V0H5.7v-.77H3.92zm0 0"/></symbol><symbol overflow="visible" id="e44f6231y"><path d="M1.45-2.95c0 2.56 1.08 4.37 3.67 4.84l.11-.67C3.28.86 2.43-.75 2.43-2.95s.85-3.82 2.8-4.16l-.1-.69c-2.6.49-3.68 2.3-3.68 4.85zm0 0"/></symbol><symbol overflow="visible" id="e44f6231z"><path d="M4.22-6.77h-.86l-2.03.7v.87c.64-.17 1.26-.38 1.89-.55v4.9H1.03V0h4.9v-.86H4.21zm0 0"/></symbol><symbol overflow="visible" id="e44f6231A"><path d="M5.67 0v-.86H2.14V-.9L3.6-2c1.05-.83 2-1.68 2-2.91 0-1.19-.73-1.99-2.26-1.99-1.66 0-2.3 1.02-2.44 2.33l1 .08c.1-.92.42-1.58 1.44-1.58.87 0 1.26.44 1.26 1.24 0 .9-.8 1.53-1.96 2.53L.83-.81V0zm0 0"/></symbol><symbol overflow="visible" id="e44f6231B"><path d="M1.45-7.1c1.96.33 2.8 1.94 2.8 4.15 0 2.2-.84 3.8-2.8 4.17l.11.67c2.58-.47 3.67-2.28 3.67-4.84 0-2.55-1.09-4.36-3.67-4.85zm0 0"/></symbol><symbol overflow="visible" id="e44f6231j"><path d="M.86-7.06h.97v2.93H5.4v-2.93h.95V0H5.4v-3.28H1.83V0H.86zM8.08-5.2h.9v3.98c0 .37.11.55.36.55.18 0 .32-.02.43-.06v.78c-.15.03-.4.04-.72.04a1.1 1.1 0 01-.52-.1.53.53 0 01-.28-.26.87.87 0 01-.13-.4 2.53 2.53 0 01-.04-.5zm0 0"/></symbol></defs><use xlink:href="#e44f6231a" x="242.37" y="151" fill="#fff"/><g fill="#515151"><use xlink:href="#e44f6231b" x="299.67" y="151"/><use xlink:href="#e44f6231c" x="330.81" y="151"/></g><g fill="#fff"><use xlink:href="#e44f6231d" x="268.2137" y="252"/><use xlink:href="#e44f6231e" x="274.8807" y="252"/><use xlink:href="#e44f6231f" x="281.5477" y="252"/><use xlink:href="#e44f6231g" x="288.2147" y="252"/><use xlink:href="#e44f6231h" x="294.8817" y="252"/><use xlink:href="#e44f6231i" x="301.5487" y="252"/></g><use xlink:href="#e44f6231j" x="308.2137" y="252" fill="#fff"/><g fill="#fff"><use xlink:href="#e44f6231k" x="318.453" y="252"/><use xlink:href="#e44f6231l" x="325.12" y="252"/></g><g fill="#fff"><use xlink:href="#e44f6231m" x="163.3333" y="266"/><use xlink:href="#e44f6231e" x="170.0003" y="266"/><use xlink:href="#e44f6231n" x="176.6673" y="266"/><use xlink:href="#e44f6231g" x="183.3343" y="266"/><use xlink:href="#e44f6231o" x="190.0013" y="266"/><use xlink:href="#e44f6231p" x="196.6683" y="266"/><use xlink:href="#e44f6231e" x="203.3353" y="266"/><use xlink:href="#e44f6231h" x="210.0023" y="266"/><use xlink:href="#e44f6231i" x="216.6693" y="266"/><use xlink:href="#e44f6231q" x="223.3363" y="266"/><use xlink:href="#e44f6231p" x="230.0033" y="266"/><use xlink:href="#e44f6231r" x="236.6703" y="266"/><use xlink:href="#e44f6231s" x="243.3373" y="266"/><use xlink:href="#e44f6231t" x="250.0043" y="266"/><use xlink:href="#e44f6231e" x="256.6713" y="266"/><use xlink:href="#e44f6231t" x="263.3383" y="266"/><use xlink:href="#e44f6231p" x="270.0053" y="266"/><use xlink:href="#e44f6231n" x="276.6723" y="266"/><use xlink:href="#e44f6231u" x="283.3393" y="266"/><use xlink:href="#e44f6231u" x="290.0063" y="266"/><use xlink:href="#e44f6231e" x="296.6733" y="266"/><use xlink:href="#e44f6231v" x="303.3403" y="266"/><use xlink:href="#e44f6231w" x="310.0073" y="266"/><use xlink:href="#e44f6231i" x="316.6743" y="266"/><use xlink:href="#e44f6231n" x="323.3413" y="266"/><use xlink:href="#e44f6231x" x="330.0083" y="266"/><use xlink:href="#e44f6231g" x="336.6753" y="266"/><use xlink:href="#e44f6231e" x="343.3423" y="266"/><use xlink:href="#e44f6231p" x="350.0093" y="266"/><use xlink:href="#e44f6231v" x="356.6763" y="266"/><use xlink:href="#e44f6231n" x="363.3433" y="266"/><use xlink:href="#e44f6231g" x="370.0103" y="266"/><use xlink:href="#e44f6231e" x="376.6773" y="266"/><use xlink:href="#e44f6231s" x="383.3443" y="266"/><use xlink:href="#e44f6231i" x="390.0113" y="266"/><use xlink:href="#e44f6231y" x="396.6783" y="266"/><use xlink:href="#e44f6231s" x="403.3453" y="266"/><use xlink:href="#e44f6231s" x="410.0123" y="266"/><use xlink:href="#e44f6231z" x="416.6793" y="266"/><use xlink:href="#e44f6231A" x="423.3463" y="266"/><use xlink:href="#e44f6231B" x="430.0133" y="266"/></g></svg>