<?xml version='1.0' encoding='UTF-8'?>
<svg xmlns="http://www.w3.org/2000/svg" xmlns:xlink="http://www.w3.org/1999/xlink" width="600px" height="300px" viewBox="0 0 600 300" x="0px" y="0px" enable-background="new 0 0 600 300"><defs><symbol overflow="visible" id="f664f131a"><path d="M17.58-51.78c2.34 0 3.23 3.36 6.84 3.36 2.88 0 4.86-1.99 5.88-6.17l-2.82-1.14c-.71 2.28-1.8 3.35-3.12 3.35-2.28 0-3.23-3.35-6.72-3.35-2.94 0-4.92 2.28-6.06 6.04l2.83 1.27c.82-2.1 1.73-3.36 3.17-3.36zm8.4 9.55c0-2.96-2.1-4.4-5.7-4.4-1.44 0-2.7.26-3.48.43l.54 3.25c.66-.13 1.68-.25 2.58-.25 1.44 0 2.22.54 2.22 1.5 0 1.5-1.8 2.15-4.62 2.7l.54 2.7c4.44-.54 7.92-2.1 7.92-5.93zM4.44-17.93c0 5.38 1.98 10 7.33 13.91H3L2.87 0h13.99l.23-4.08c-5.68-3.97-7.86-8.47-7.86-13.86.07-5.64 3.72-11.51 11.18-11.51 7.43 0 11.09 5.32 11.09 11.45 0 5.64-2.28 10.08-7.86 13.86l.3 4.14h13.92l-.17-4.02h-8.7c5.15-3.9 7.3-8.82 7.3-14.4 0-8.03-5.57-15.24-15.77-15.24-10.74 0-16.08 8.22-16.08 15.72zm0 0"/></symbol><symbol overflow="visible" id="f664f131b"><path d="M26.34-32.88h-21V0h4.74v-28.8h16.08zm0 0"/></symbol><symbol overflow="visible" id="f664f131c"><path d="M22.08-41.58c-2.28 0-3.17-3.48-6.72-3.48-2.94 0-4.92 2.28-6.06 6l2.82 1.33c.9-2.11 1.74-3.36 3.18-3.36 2.34 0 3.25 3.47 6.84 3.47 2.88 0 4.86-1.97 5.88-6.24l-2.82-1.08c-.65 2.22-1.8 3.36-3.12 3.36zm-12 8.7H5.34V0h4.74v-14.58h17.28V0h4.73v-32.88h-4.73v14.29H10.08zm0 0"/></symbol><symbol overflow="visible" id="f664f131d"><path d="M21.66-16.14v-.95L9.36-28.86h19.2l.17-4.02H3.6l-.46 4.08L15.9-16.44 2.87-4.08 3.3 0h25.5l-.18-4.02H8.7zm0 0"/></symbol><symbol overflow="visible" id="f664f131e"><path d="M31.44-32.88H5.34V0h4.74v-28.8H26.7V0h4.74zm0 0"/></symbol><symbol overflow="visible" id="f664f131f"><path d="M19.2-33l-5.15.13-11.77 30A22.5 22.5 0 001.27 0H6l3.23-8.64h14.35L26.64 0h4.73c-.17-.84-.53-1.8-1.01-3zm-2.7 5.1h.19l2.58 7.13 2.93 8.18H10.73zm0 0"/></symbol><symbol overflow="visible" id="f664f131g"><path d="M1.63 0h4.73l10.02-27.78h.12l2.58 7.56L26.28 0h4.8a18.8 18.8 0 00-1.27-4.08L19.08-32.94l-5.28.13L2.94-4.21A22.73 22.73 0 001.63 0zm0 0"/></symbol><symbol overflow="visible" id="f664f131h"><path d="M10.08-32.88H5.34V0h4.74zm0 0"/></symbol><symbol overflow="visible" id="f664f131i"><path d="M18.55-48.6l-4.14 1.87v.46l4.9 9.36 3.07-1.37zM3.23-16.01C3.23-6.9 8.93.78 19.2.78c11.03 0 16.02-8.87 16.02-17.7 0-9.13-5.58-16.74-15.84-16.74-11.16 0-16.15 8.88-16.15 17.64zm27.13-.6c0 4.56-1.38 8.89-4.67 11.28a11.07 11.07 0 01-6.42 1.92C12-3.42 8.09-9.23 8.09-16.38c0-4.43 1.5-8.7 4.7-11.04a10.5 10.5 0 016.41-2.03c7.25 0 11.16 5.68 11.16 12.82zm0 0"/></symbol><symbol overflow="visible" id="f664f131j"><path d="M10.44-32.88h-5.1V0h4.2v-22.02l-.24-5.34h.06L12-22.92 27.9 0h5.04v-32.88h-4.25v21.6l.23 5.7h-.06l-2.52-4.44zm0 0"/></symbol><symbol overflow="visible" id="f664f131k"><path d="M3.83 0v-5.95H6.2v-.82H.45v.82h2.4V0zm0 0"/></symbol><symbol overflow="visible" id="f664f131l"><path d="M5.75-2.23v-.43c0-1.6-.9-2.51-2.42-2.51S.87-4.16.87-2.48c0 1.71.91 2.62 2.5 2.62 1.43 0 2.07-.56 2.29-1.52l-.9-.09c-.18.61-.59.9-1.35.9-.94 0-1.52-.54-1.58-1.66zm-2.4-2.2c.93 0 1.43.5 1.48 1.55H1.84c.08-1.07.6-1.56 1.5-1.56zm0 0"/></symbol><symbol overflow="visible" id="f664f131m"><path d="M1.83 0l1.42-2h.06l1.46 2H5.8L4-2.53l1.78-2.49H4.8L3.42-3.08h-.08l-1.4-1.94H.89l1.78 2.49L.84 0zm0 0"/></symbol><symbol overflow="visible" id="f664f131n"><path d="M5.52-4.25v-.77H3.17v-1.56h-.81l-.14 1.56H.75v.77h1.47v2.4c0 1.3.48 1.94 1.84 1.94C4.6.1 5.14 0 5.55-.14L5.4-.91c-.32.13-.72.2-1.13.2-.8 0-1.1-.37-1.1-1.23v-2.31zm0 0"/></symbol><symbol overflow="visible" id="f664f131o"><path d="M3.33-3.42c.47 0 .8-.27.8-.8 0-.51-.33-.8-.8-.8-.47 0-.8.29-.8.8 0 .53.33.8.8.8zm0 3.5c.47 0 .8-.27.8-.78 0-.53-.33-.82-.8-.82-.47 0-.8.29-.8.82 0 .51.33.78.8.78zm0 0"/></symbol><symbol overflow="visible" id="f664f131r"><path d="M5.03-5.02L3.41-1.08h-.07L1.7-5.02H.67l2.2 5.1v1.81h.93V.08L6-5.02zm0 0"/></symbol><symbol overflow="visible" id="f664f131t"><path d="M5.08 1.95c.15-.3.33-.72.33-1.22 0-.95-.72-1.23-1.49-1.48C3-1.03 2.1-1.35 2.1-2.72c0-1.01.49-1.65 1.5-1.65.83 0 1.22.37 1.33 1.09l.9-.1c-.13-1.09-.84-1.78-2.24-1.78-1.56 0-2.46 1-2.46 2.49 0 1.89 1.22 2.31 2.24 2.64.62.19 1.1.37 1.1.87 0 .36-.13.68-.26.94zm0 0"/></symbol><symbol overflow="visible" id="f664f131u"><path d="M6.08-5.02H.59v.83h.88V0h.87v-4.19h1.91v2.96C4.25-.27 4.63.1 5.42.1c.24 0 .47-.05.61-.1L5.97-.7l-.33.03c-.37 0-.5-.14-.5-.67V-4.2h.94zm0 0"/></symbol><symbol overflow="visible" id="f664f131v"><path d="M2.72.14c.97 0 1.45-.55 1.7-1.12h.08C4.56-.25 4.92.1 5.7.1c.27 0 .5-.05.66-.11l-.11-.72c-.1.03-.2.05-.33.05-.34 0-.54-.16-.54-.66v-3.69h-.96v.83h-.06c-.27-.6-.8-.97-1.64-.97-1.4 0-2.14.99-2.14 2.66C.58-.84 1.33.14 2.72.14zm.25-.8C2-.66 1.55-1.25 1.55-2.5S2-4.36 2.97-4.36c1.01 0 1.48.8 1.48 1.86 0 1.05-.47 1.84-1.48 1.84zm0 0"/></symbol><symbol overflow="visible" id="f664f131w"><path d="M4.06-5.02c-.62-1.53-.76-2.26-1.83-2.26-.26 0-.54.05-.76.1l.1.76c.2-.05.35-.06.5-.06.48 0 .66.21 1 1.09l.13.37h-.37L.8 0h.98L3.4-4.13h.06L5.05 0h1zm0 0"/></symbol><symbol overflow="visible" id="f664f131x"><path d="M5.4-.75c-.24.05-.5.08-.76.08-.62 0-.84-.16-.84-.77v-3.58H1.23v.83h1.61v2.86C2.84-.3 3.27.11 4.36.11c.37 0 .78-.06 1.12-.14zm0 0"/></symbol><symbol overflow="visible" id="f664f131z"><path d="M3.9 0l2-5.02h-.96L3.4-.94h-.07L1.8-5.02H.77L2.78 0zm0 0"/></symbol><symbol overflow="visible" id="f664f131A"><path d="M5.95-6.77H1.1V0h.99v-2.92H5.3v-.77H2.08v-2.26h3.87zm0 0"/></symbol><symbol overflow="visible" id="f664f131B"><path d="M2.83.14c.94 0 1.5-.39 1.81-.95h.08l.1.81h.76v-3.38c0-1.23-.69-1.8-2.13-1.8-1.43 0-2.03.65-2.18 1.6l.93.1c.11-.6.44-.93 1.22-.93.85 0 1.22.32 1.22 1.04v.34l-1.81.2C1.6-2.7 1.1-2.17 1.1-1.28c0 .92.64 1.42 1.72 1.42zm.25-.77c-.67 0-1.02-.28-1.02-.74 0-.44.28-.72 1-.82l1.58-.19v.41c0 .8-.6 1.34-1.56 1.34zm0 0"/></symbol><symbol overflow="visible" id="f664f131C"><path d="M2.73.14c.9 0 1.43-.45 1.74-1.08h.06l.13.94h.8v-5.02h-.94v2.7c0 .98-.57 1.62-1.46 1.62-.75 0-1.1-.4-1.1-1.22v-3.1h-.93v3.32c0 1.17.55 1.84 1.7 1.84zm0 0"/></symbol><symbol overflow="visible" id="f664f131D"><path d="M5.08-5.16c-.94 0-1.58.43-1.9 1.3h-.09l-.07-1.16H1.05v.77h1.1v3.48H.96V0h3.96v-.77H3.1v-1.46c0-1.36.6-2.05 1.83-2.05.4 0 .76.08 1.1.17l.15-.87c-.33-.11-.7-.18-1.11-.18zm0 0"/></symbol><symbol overflow="visible" id="f664f131E"><path d="M3.55-2.73h1.67C5.09-1.45 4.58-.64 3.36-.64c-1.25 0-1.78-1.03-1.78-2.73 0-1.77.53-2.72 1.81-2.72.9 0 1.47.45 1.69 1.43l.95-.09C5.8-6 5.11-6.91 3.41-6.91 1.44-6.9.58-5.59.58-3.37.58-1.2 1.4.13 3.14.13c1.3 0 1.78-.73 2-1.36h.1L5.33 0h.75v-3.42H3.55zm0 0"/></symbol><symbol overflow="visible" id="f664f131F"><path d="M5.77-5.02H4.63L2.3-2.88h-.06v-4.26h-.94V0h.94v-2.31h.06L4.71 0h1.24L3.23-2.69zm0 0"/></symbol><symbol overflow="visible" id="f664f131G"><path d="M3.36.16c1.4 0 2.2-.6 2.2-1.57 0-.89-.54-1.22-1.47-1.39L3-3c-.67-.14-.86-.33-.86-.73 0-.5.4-.74 1.17-.74.83 0 1.19.27 1.27.8l.9-.05c-.12-1-.8-1.47-2.17-1.47-1.34 0-2.1.53-2.1 1.5 0 .81.45 1.22 1.52 1.44l1.04.2c.56.11.87.24.87.72 0 .52-.45.78-1.28.78-.95 0-1.36-.28-1.42-.87l-.9.06C1.07-.36 1.8.16 3.35.16zm0 0"/></symbol><symbol overflow="visible" id="f664f131H"><path d="M1.63 0v-2.9c0-.8.15-1.4.71-1.4.41 0 .55.3.55.88V0h.95v-2.9c0-.8.18-1.4.72-1.4.4 0 .57.3.57.88V0h.95v-3.63c0-.92-.28-1.53-1.11-1.53-.63 0-.95.41-1.1.9h-.06c-.1-.52-.44-.9-1.08-.9-.6 0-.93.41-1.06.9H1.6l-.23-.76H.67V0zm0 0"/></symbol><symbol overflow="visible" id="f664f131I"><path d="M3.92-7.14H1.36v.76h1.6v5.61H1.15V0H5.7v-.77H3.92zm0 0"/></symbol><symbol overflow="visible" id="f664f131J"><path d="M3.34.14c1.43 0 2.13-.66 2.25-1.78l-.89-.1c-.1.7-.5 1.08-1.34 1.08-1.03 0-1.52-.64-1.52-1.84 0-1.23.47-1.86 1.52-1.86.84 0 1.23.36 1.34 1.08l.9-.1c-.13-1.09-.82-1.78-2.26-1.78-1.56 0-2.46.97-2.46 2.66 0 1.66.9 2.64 2.46 2.64zm0 0"/></symbol><symbol overflow="visible" id="f664f131K"><path d="M2.06 1.9V-.84h.05c.28.58.8.97 1.77.97 1.5 0 2.2-.98 2.2-2.66 0-1.65-.7-2.64-2.19-2.64-.97 0-1.5.44-1.78 1.05h-.08l-.1-.9H1.1v6.9zm1.5-2.56c-1.06 0-1.53-.8-1.53-1.86 0-1.04.47-1.84 1.53-1.84 1.11 0 1.53.61 1.53 1.84 0 1.27-.42 1.86-1.53 1.86zm0 0"/></symbol><symbol overflow="visible" id="f664f131L"><path d="M3.58-5.81c.42 0 .72-.22.72-.67 0-.44-.3-.68-.72-.68-.44 0-.72.24-.72.68 0 .45.28.67.72.67zm.5.8H1.52v.76h1.6v3.48h-1.8V0h4.46v-.77h-1.7zm0 0"/></symbol><symbol overflow="visible" id="f664f131M"><path d="M2.44 0l.87-3.31h.06L4.25 0H5.3l1.03-5.02h-.88l-.73 3.94h-.08L3.77-4.4h-.85l-.87 3.33h-.08l-.75-3.94H.34L1.36 0zm0 0"/></symbol><symbol overflow="visible" id="f664f131N"><path d="M2.16 0v-2.69c0-.98.6-1.6 1.46-1.6.74 0 1.07.4 1.07 1.2V0h.95v-3.31c0-1.17-.56-1.85-1.67-1.85-.9 0-1.44.46-1.75 1.08h-.06v-3.06H1.2V0zm0 0"/></symbol><symbol overflow="visible" id="f664f131O"><path d="M2.84.14C3.8.14 4.33-.26 4.6-.9h.07L4.8 0h.76v-7.14h-.95v2.95h-.08c-.28-.6-.86-.97-1.67-.97-1.48 0-2.27.99-2.27 2.64C.6-.84 1.36.14 2.84.14zm.22-.8c-.98 0-1.48-.59-1.48-1.84s.5-1.86 1.48-1.86c1.13 0 1.58.8 1.58 1.86S4.2-.66 3.06-.66zm0 0"/></symbol><symbol overflow="visible" id="f664f131P"><path d="M1.45-2.95c0 2.56 1.08 4.37 3.67 4.84l.11-.67C3.28.86 2.43-.75 2.43-2.95s.85-3.82 2.8-4.16l-.1-.69c-2.6.49-3.68 2.3-3.68 4.85zm0 0"/></symbol><symbol overflow="visible" id="f664f131Q"><path d="M5.4-1.22c.43-.66.66-1.51.66-2.44l-.83-.09c0 .75-.14 1.4-.4 1.92l-1.7-1.83c.8-.42 1.39-.96 1.39-1.86 0-.87-.66-1.4-1.61-1.4-1.14 0-1.72.62-1.72 1.47 0 .72.47 1.3.83 1.68-.8.41-1.52.99-1.52 2.1C.5-.44 1.52.14 2.7.14c.9 0 1.64-.3 2.2-.78l.58.64h1.05zM2.86-6.25c.44 0 .82.23.82.73 0 .7-.47 1.11-1 1.41-.47-.53-.67-.92-.67-1.34 0-.47.3-.8.85-.8zM2.81-.62c-.83 0-1.42-.41-1.42-1.18 0-.76.5-1.18 1.05-1.5l1.94 2.1c-.4.37-.91.57-1.57.57zm0 0"/></symbol><symbol overflow="visible" id="f664f131R"><path d="M4.22-6.77h-.86l-2.03.7v.87c.64-.17 1.26-.38 1.89-.55v4.9H1.03V0h4.9v-.86H4.21zm0 0"/></symbol><symbol overflow="visible" id="f664f131S"><path d="M3.25.14c1.58 0 2.53-.69 2.53-1.95 0-1.19-.92-1.56-1.6-1.61v-.05A1.6 1.6 0 005.6-5.12c0-1.13-.87-1.79-2.3-1.79-1.62 0-2.32.82-2.45 1.88l.97.06c.13-.69.52-1.1 1.47-1.1.86 0 1.35.32 1.35 1.05 0 .86-.6 1.2-1.66 1.2h-.49v.79h.54c1.12 0 1.78.25 1.78 1.14 0 .78-.46 1.22-1.55 1.22-1.06 0-1.48-.4-1.63-1.1l-.98.07C.75-.56 1.56.14 3.25.14zm0 0"/></symbol><symbol overflow="visible" id="f664f131T"><path d="M1.45-7.1c1.96.33 2.8 1.94 2.8 4.15 0 2.2-.84 3.8-2.8 4.17l.11.67c2.58-.47 3.67-2.28 3.67-4.84 0-2.55-1.09-4.36-3.67-4.85zm0 0"/></symbol><symbol overflow="visible" id="f664f131q"><path d="M4.27-1.53c0 .27.08.48.25.62.15.16.34.24.57.24.21 0 .38-.06.52-.19a.93.93 0 00.31-.44c.15-.35.22-.7.22-1.03A3.93 3.93 0 004.91-5.2h.96c.38.41.67.85.86 1.3.21.46.32.98.32 1.57 0 .64-.14 1.19-.42 1.66-.32.5-.81.75-1.47.76A1.4 1.4 0 013.8-.84h-.02c-.07.28-.23.5-.48.67-.25.17-.53.26-.86.26C1.77.1 1.29-.17.98-.67a2.82 2.82 0 01-.45-1.66c0-.6.1-1.11.31-1.56.21-.46.5-.9.86-1.31h.97a3.91 3.91 0 00-1.23 2.87c-.01.34.06.68.23 1.03.08.18.2.33.33.44.13.13.29.19.48.19.25 0 .45-.08.6-.24a.9.9 0 00.23-.62v-2.49h.96zm-.94-4.53c.14-.02.25-.1.33-.24.07-.14.1-.19.1-.14v-.04l-.01-.07h-.33v-.84h.75v.78c0 .1-.07.28-.22.52a.78.78 0 01-.62.39zM4.8-7.22a1.3 1.3 0 00-.22-.48c-.18-.2-.47-.28-.86-.28-.35 0-.62.09-.8.28-.09.11-.16.27-.21.48h-.49c.07-.48.23-.82.5-1.03.27-.22.65-.33 1.11-.33.57 0 .99.2 1.24.6.12.2.2.45.23.76zm0 0"/></symbol><symbol overflow="visible" id="f664f131s"><path d="M.9-3.94c.01-.38-.1-.58-.32-.58-.1 0-.2.02-.3.04v-.72c.11-.05.3-.09.56-.1.57 0 .86.3.86.92h.03c.4-.6.98-.92 1.74-.92 1.15.01 1.73.59 1.73 1.72v5.53h-.89v-5.3c.01-.75-.34-1.14-1.04-1.17-.52 0-.89.17-1.11.49-.25.32-.36.74-.36 1.25V0H.9zm3.41-2.1a1.2 1.2 0 00-.23-.48c-.18-.18-.46-.28-.85-.28-.35 0-.62.1-.8.28-.1.12-.18.28-.23.49h-.48c.07-.48.24-.82.51-1.03.27-.21.64-.32 1.1-.32.58 0 1 .2 1.25.58.12.2.2.46.23.77zm0 0"/></symbol><symbol overflow="visible" id="f664f131y"><path d="M3.05-5.3c.78.01 1.4.26 1.84.75.45.5.68 1.1.69 1.85 0 .83-.22 1.5-.64 2-.43.52-1.06.78-1.9.8C2.22.07 1.6-.2 1.18-.73A3.06 3.06 0 01.55-2.7c0-.77.22-1.4.68-1.88.45-.47 1.06-.7 1.82-.72zM4.6-2.6c0-.48-.12-.93-.34-1.34-.25-.41-.65-.63-1.22-.64-.57.01-.97.22-1.2.63-.25.4-.36.85-.35 1.36 0 .56.14 1.02.42 1.39.26.38.63.57 1.13.57.54 0 .93-.2 1.18-.6.25-.39.38-.84.38-1.36zm-.75-3.2h-.53L2.27-7.75h.87zm0 0"/></symbol></defs><g fill="#fff"><use xlink:href="#f664f131a" x="104.37" y="151"/><use xlink:href="#f664f131b" x="158.07" y="151"/><use xlink:href="#f664f131c" x="186.09" y="151"/><use xlink:href="#f664f131d" x="223.53" y="151"/><use xlink:href="#f664f131e" x="268.23" y="151"/><use xlink:href="#f664f131f" x="304.95" y="151"/><use xlink:href="#f664f131g" x="337.89" y="151"/><use xlink:href="#f664f131f" x="370.59" y="151"/><use xlink:href="#f664f131h" x="403.53" y="151"/><use xlink:href="#f664f131i" x="418.89" y="151"/><use xlink:href="#f664f131j" x="457.41" y="151"/><use xlink:href="#f664f131k" x="236.7692" y="252"/><use xlink:href="#f664f131l" x="243.4362" y="252"/><use xlink:href="#f664f131m" x="250.1032" y="252"/><use xlink:href="#f664f131n" x="256.7702" y="252"/><use xlink:href="#f664f131o" x="263.4372" y="252"/><use xlink:href="#f664f131p" x="270.1042" y="252"/><use xlink:href="#f664f131q" x="276.7692" y="252"/><use xlink:href="#f664f131p" x="284.3473" y="252"/><use xlink:href="#f664f131r" x="291.0143" y="252"/><g><use xlink:href="#f664f131s" x="297.6807" y="252"/></g><g><use xlink:href="#f664f131t" x="303.7891" y="252"/><use xlink:href="#f664f131p" x="310.4561" y="252"/><use xlink:href="#f664f131u" x="317.1231" y="252"/><use xlink:href="#f664f131v" x="323.7901" y="252"/><use xlink:href="#f664f131w" x="330.4571" y="252"/><use xlink:href="#f664f131v" x="337.1241" y="252"/><use xlink:href="#f664f131x" x="343.7911" y="252"/></g><g><use xlink:href="#f664f131y" x="350.4557" y="252"/></g><g><use xlink:href="#f664f131z" x="356.5641" y="252"/></g><g><use xlink:href="#f664f131A" x="103.33333" y="266"/><use xlink:href="#f664f131l" x="110.00033" y="266"/><use xlink:href="#f664f131B" x="116.66733" y="266"/><use xlink:href="#f664f131n" x="123.33433" y="266"/><use xlink:href="#f664f131C" x="130.00133" y="266"/><use xlink:href="#f664f131D" x="136.66833" y="266"/><use xlink:href="#f664f131l" x="143.33533" y="266"/><use xlink:href="#f664f131o" x="150.00233" y="266"/><use xlink:href="#f664f131p" x="156.66933" y="266"/><use xlink:href="#f664f131E" x="163.33633" y="266"/><use xlink:href="#f664f131D" x="170.00333" y="266"/><use xlink:href="#f664f131l" x="176.67033" y="266"/><use xlink:href="#f664f131l" x="183.33733" y="266"/><use xlink:href="#f664f131F" x="190.00433" y="266"/><use xlink:href="#f664f131p" x="196.67133" y="266"/><use xlink:href="#f664f131G" x="203.33833" y="266"/><use xlink:href="#f664f131H" x="210.00533" y="266"/><use xlink:href="#f664f131B" x="216.67233" y="266"/><use xlink:href="#f664f131I" x="223.33933" y="266"/><use xlink:href="#f664f131I" x="230.00633" y="266"/><use xlink:href="#f664f131p" x="236.67333" y="266"/><use xlink:href="#f664f131J" x="243.34033" y="266"/><use xlink:href="#f664f131B" x="250.00733" y="266"/><use xlink:href="#f664f131K" x="256.67433" y="266"/><use xlink:href="#f664f131L" x="263.34133" y="266"/><use xlink:href="#f664f131n" x="270.00833" y="266"/><use xlink:href="#f664f131B" x="276.67533" y="266"/><use xlink:href="#f664f131I" x="283.34233" y="266"/><use xlink:href="#f664f131G" x="290.00933" y="266"/><use xlink:href="#f664f131p" x="296.67633" y="266"/><use xlink:href="#f664f131M" x="303.34333" y="266"/><use xlink:href="#f664f131L" x="310.01033" y="266"/><use xlink:href="#f664f131n" x="316.67733" y="266"/><use xlink:href="#f664f131N" x="323.34433" y="266"/><use xlink:href="#f664f131p" x="330.01133" y="266"/><use xlink:href="#f664f131O" x="336.67833" y="266"/><use xlink:href="#f664f131L" x="343.34533" y="266"/><use xlink:href="#f664f131B" x="350.01233" y="266"/><use xlink:href="#f664f131J" x="356.67933" y="266"/><use xlink:href="#f664f131D" x="363.34633" y="266"/><use xlink:href="#f664f131L" x="370.01333" y="266"/><use xlink:href="#f664f131n" x="376.68033" y="266"/><use xlink:href="#f664f131L" x="383.34733" y="266"/><use xlink:href="#f664f131J" x="390.01433" y="266"/><use xlink:href="#f664f131G" x="396.68133" y="266"/><use xlink:href="#f664f131p" x="403.34833" y="266"/><use xlink:href="#f664f131P" x="410.01533" y="266"/><use xlink:href="#f664f131G" x="416.68233" y="266"/><use xlink:href="#f664f131H" x="423.34933" y="266"/><use xlink:href="#f664f131J" x="430.01633" y="266"/><use xlink:href="#f664f131K" x="436.68333" y="266"/><use xlink:href="#f664f131p" x="443.35033" y="266"/><use xlink:href="#f664f131Q" x="450.01733" y="266"/><use xlink:href="#f664f131p" x="456.68433" y="266"/><use xlink:href="#f664f131G" x="463.35133" y="266"/><use xlink:href="#f664f131G" x="470.01833" y="266"/><use xlink:href="#f664f131R" x="476.68533" y="266"/><use xlink:href="#f664f131S" x="483.35233" y="266"/><use xlink:href="#f664f131T" x="490.01933" y="266"/></g></g></svg>