<?xml version='1.0' encoding='UTF-8'?>
<svg xmlns="http://www.w3.org/2000/svg" xmlns:xlink="http://www.w3.org/1999/xlink" width="600px" height="300px" viewBox="0 0 600 300" x="0px" y="0px" enable-background="new 0 0 600 300"><defs><symbol overflow="visible" id="ad1e626ea"><path d="M11.28-40.2H5.94V0h4.33v-27.42l-.32-6.6h.07l2.28 5.46L26.8 0h5.4v-40.2h-4.3v26.7l.3 7.14h-.13l-2.35-5.58zm25.67 11.64c0 6.97 2.77 10.92 8.17 10.92 5.7 0 8.58-4.44 8.58-11.81 0-6.9-2.7-10.75-8.04-10.75-5.75 0-8.7 4.43-8.7 11.64zm12.61-.66c0 5.03-1.26 8.16-4.33 8.16-2.68 0-4.07-2.46-4.07-7.67 0-5.18 1.2-8.05 4.32-8.05 2.7 0 4.08 2.28 4.08 7.56zm3.36 14.77h-15v3.65h15zm0 0"/></symbol><symbol overflow="visible" id="ad1e626eb"><path d="M24.36-40.2H4.63v20.22l.53.6c2.53-.84 5.4-1.43 7.75-1.43 5.21 0 8.32 3.04 8.32 7.73 0 3.72-1.3 6.36-3.42 7.86-1.67 1.2-3.83 1.67-6.3 1.67-2.15 0-4.96-.53-6.88-1.14L3.48-.84a22.45 22.45 0 008.4 1.56c8.21 0 14.34-4.92 14.34-14.1 0-7.2-5.22-11.4-12.06-11.46-1.68 0-3.36.25-4.93.65L9.2-35.94h15zm0 0"/></symbol><symbol overflow="visible" id="ad1e626ec"><path d="M3.3-36.78l2.28 3a13.25 13.25 0 017.86-2.77c4.98 0 7.44 3.32 7.44 7.7 0 6-4.8 11.7-12.11 19L3.23-4.43 3.72 0H26.7l-.18-4.14H9.19L13.2-8.1c7.2-7.04 12.72-13.5 12.72-20.96 0-6.17-3.84-11.8-12.06-11.8-3.9 0-7.67 1.3-10.56 4.07zm0 0"/></symbol><symbol overflow="visible" id="ad1e626ee"><path d="M23.7-4.14h-6.42v-36l-3.9-.13-10.02 3.13 1.02 3.6 8.17-1.98v31.38h-9V0h20.32zm0 0"/></symbol><symbol overflow="visible" id="ad1e626ef"><path d="M5.16-30.9c0 4.02 2.7 7.32 6.18 9.42-4.26 2.93-7.98 6.42-7.98 11.82C3.36-2.94 8.7.84 15.96.84s13.38-3.9 13.38-11.4c0-5.16-3.42-8.16-7.56-10.38 3.6-2.93 6-6.3 6-10.56 0-5.77-4.62-9.55-11.1-9.55-6.66 0-11.52 4.14-11.52 10.14zm4.98-.12c0-1.92.72-3.36 1.86-4.39a7.49 7.49 0 014.73-1.5c3.61 0 6.25 2.41 6.2 5.83 0 3.3-1.74 6.06-4.57 8.4-5.05-2.46-8.22-4.45-8.22-8.34zM8.22-9.95c0-4.33 3.06-7.27 6.65-9.68 5.83 2.83 9.55 4.93 9.55 9.36 0 2.29-.97 4.04-2.51 5.29a9.82 9.82 0 01-5.64 1.68c-4.5 0-8.05-2.4-8.05-6.65zm0 0"/></symbol><symbol overflow="visible" id="ad1e626eg"><path d="M4.44-29.81a4.74 4.74 0 00-2.35 4.12c0 2.83 1.93 4.46 4.93 4.46 2.28 0 4.32-1.04 6.18-2.64l.72 2.45 3.17-.49a85.1 85.1 0 01-.36-6.78v-4.08c0-4.5-1.8-6.65-6.1-6.65-3 0-5.7 1.14-7.82 2.76l1.4 2.35c1.85-1.1 3.84-1.88 5.63-1.88 2.22 0 2.94 1.03 2.94 4.27v.06c-4.01.36-6.72.95-8.34 2.05zm1.43 3.6c0-.98.49-1.57 1.08-1.93.85-.55 2.28-1.02 5.83-1.31v3.3c-1.62 1.3-3.23 2.02-4.62 2.02-1.44 0-2.29-.78-2.29-2.09zm0 0"/></symbol><symbol overflow="visible" id="ad1e626eh"><path d="M19.69-40.27L2.16-14.05l.54 4.4h17.22V0h4.74v-9.66h6.25l-.25-4.07h-6v-26.41zm-2.83 11.58l2.94-4.73h.12v19.69H6.84zm0 0"/></symbol><symbol overflow="visible" id="ad1e626ei"><path d="M2.34-30.06c0 5.04 3 8.93 8.4 8.93 5.88 0 8.7-4.56 8.7-9.42 0-5.03-3.07-9-8.35-9-5.8 0-8.75 4.7-8.75 9.49zm13.02-.17c0 2.15-.55 3.95-1.73 5.03a3.66 3.66 0 01-2.65 1.01c-3.06 0-4.5-2.62-4.5-6.17 0-2.34.66-4.2 1.93-5.28.65-.55 1.5-.84 2.51-.84 2.94 0 4.44 2.64 4.44 6.25zm0 0"/></symbol><symbol overflow="visible" id="ad1e626ej"><path d="M2.34-29.94c0 5.7 3.47 8.7 8.46 8.7 2.34 0 4.5-.48 6.72-1.39l-.9-2.57c-1.75.54-3.54.78-5.17.78-2.8 0-4.73-1.44-5.03-4.92H17.7c.18-.9.3-1.93.3-2.82 0-4.14-2.34-7.32-7.08-7.32-5.4 0-8.58 4.2-8.58 9.54zm8.46-6.54c2.22 0 3.36 1.56 3.36 3.6 0 .43 0 .79-.07 1.08H6.5c.35-2.93 1.8-4.68 4.3-4.68zm0 0"/></symbol><symbol overflow="visible" id="ad1e626ek"><path d="M6.3-39.3l-3.17.49c.23 3.83.35 5.39.35 6.76v10.46H7.5v-11.35c1.27-1.69 2.81-2.47 4.5-2.47.72 0 1.38.13 2.05.25l.72-3.6a5.57 5.57 0 00-2.64-.66c-2.05 0-3.68 1.26-4.93 3.36zm0 0"/></symbol><symbol overflow="visible" id="ad1e626el"><path d="M3.83 0v-5.95H6.2v-.82H.45v.82h2.4V0zm0 0"/></symbol><symbol overflow="visible" id="ad1e626em"><path d="M5.75-2.23v-.43c0-1.6-.9-2.51-2.42-2.51S.87-4.16.87-2.48c0 1.71.91 2.62 2.5 2.62 1.43 0 2.07-.56 2.29-1.52l-.9-.09c-.18.61-.59.9-1.35.9-.94 0-1.52-.54-1.58-1.66zm-2.4-2.2c.93 0 1.43.5 1.48 1.55H1.84c.08-1.07.6-1.56 1.5-1.56zm0 0"/></symbol><symbol overflow="visible" id="ad1e626en"><path d="M1.83 0l1.42-2h.06l1.46 2H5.8L4-2.53l1.78-2.49H4.8L3.42-3.08h-.08l-1.4-1.94H.89l1.78 2.49L.84 0zm0 0"/></symbol><symbol overflow="visible" id="ad1e626eo"><path d="M5.52-4.25v-.77H3.17v-1.56h-.81l-.14 1.56H.75v.77h1.47v2.4c0 1.3.48 1.94 1.84 1.94C4.6.1 5.14 0 5.55-.14L5.4-.91c-.32.13-.72.2-1.13.2-.8 0-1.1-.37-1.1-1.23v-2.31zm0 0"/></symbol><symbol overflow="visible" id="ad1e626ep"><path d="M3.33-3.42c.47 0 .8-.27.8-.8 0-.51-.33-.8-.8-.8-.47 0-.8.29-.8.8 0 .53.33.8.8.8zm0 3.5c.47 0 .8-.27.8-.78 0-.53-.33-.82-.8-.82-.47 0-.8.29-.8.82 0 .51.33.78.8.78zm0 0"/></symbol><symbol overflow="visible" id="ad1e626er"><path d="M1.84 0v-4.48l-.06-.99h.1L4.46 0h1.28v-6.77h-.92v4.4l.06 1.03h-.1L2.21-6.77H.92V0zm0 0"/></symbol><symbol overflow="visible" id="ad1e626es"><path d="M3.33.14c1.62 0 2.5-.95 2.5-2.66 0-1.68-.88-2.64-2.5-2.64-1.63 0-2.5.96-2.5 2.64 0 1.7.87 2.66 2.5 2.66zm0-.77c-1.06 0-1.52-.6-1.52-1.89 0-1.28.46-1.87 1.52-1.87 1.08 0 1.53.6 1.53 1.87 0 1.29-.45 1.9-1.53 1.9zm0 0"/></symbol><symbol overflow="visible" id="ad1e626et"><path d="M3.42.14c1.55 0 2.44-.84 2.44-2.33 0-1.45-.83-2.22-2.14-2.22-.75 0-1.28.27-1.67.72H2l.31-2.22h3.11v-.86H1.53l-.45 3.93h.81c.3-.36.9-.79 1.58-.79.92 0 1.44.43 1.44 1.47 0 .99-.54 1.5-1.49 1.5-.83 0-1.28-.32-1.5-1.01l-.95.1C1.07-.46 2 .13 3.42.13zm0 0"/></symbol><symbol overflow="visible" id="ad1e626eu"><path d="M5.67 0v-.86H2.14V-.9L3.6-2c1.05-.83 2-1.68 2-2.91 0-1.19-.73-1.99-2.26-1.99-1.66 0-2.3 1.02-2.44 2.33l1 .08c.1-.92.42-1.58 1.44-1.58.87 0 1.26.44 1.26 1.24 0 .9-.8 1.53-1.96 2.53L.83-.81V0zm0 0"/></symbol><symbol overflow="visible" id="ad1e626ev"><path d="M4.22-6.77h-.86l-2.03.7v.87c.64-.17 1.26-.38 1.89-.55v4.9H1.03V0h4.9v-.86H4.21zm0 0"/></symbol><symbol overflow="visible" id="ad1e626ew"><path d="M3.33.16c1.69 0 2.69-.74 2.69-1.94 0-1.05-.8-1.58-1.43-1.72v-.05c.5-.14 1.2-.58 1.2-1.56 0-1.12-.95-1.81-2.46-1.81-1.52 0-2.46.69-2.46 1.81 0 .97.68 1.4 1.18 1.56v.05c-.6.14-1.4.64-1.4 1.72 0 1.2 1 1.94 2.68 1.94zm0-4.04c-.97 0-1.49-.43-1.49-1.12 0-.78.52-1.1 1.49-1.1.95 0 1.48.32 1.48 1.1 0 .69-.53 1.13-1.48 1.13zm0 3.24c-1.1 0-1.7-.42-1.7-1.25 0-.78.6-1.2 1.7-1.2s1.7.42 1.7 1.2c0 .83-.6 1.25-1.7 1.25zm0 0"/></symbol><symbol overflow="visible" id="ad1e626ex"><path d="M2.83.14c.94 0 1.5-.39 1.81-.95h.08l.1.81h.76v-3.38c0-1.23-.69-1.8-2.13-1.8-1.43 0-2.03.65-2.18 1.6l.93.1c.11-.6.44-.93 1.22-.93.85 0 1.22.32 1.22 1.04v.34l-1.81.2C1.6-2.7 1.1-2.17 1.1-1.28c0 .92.64 1.42 1.72 1.42zm.25-.77c-.67 0-1.02-.28-1.02-.74 0-.44.28-.72 1-.82l1.58-.19v.41c0 .8-.6 1.34-1.56 1.34zm0 0"/></symbol><symbol overflow="visible" id="ad1e626ey"><path d="M5.1 0v-1.47H6v-.81h-.9v-4.49H3.8L.48-2.23v.76h3.66V0zM1.5-2.33l2.6-3.53h.04v3.58H1.5zm0 0"/></symbol><symbol overflow="visible" id="ad1e626ez"><path d="M5.08-5.16c-.94 0-1.58.43-1.9 1.3h-.09l-.07-1.16H1.05v.77h1.1v3.48H.96V0h3.96v-.77H3.1v-1.46c0-1.36.6-2.05 1.83-2.05.4 0 .76.08 1.1.17l.15-.87c-.33-.11-.7-.18-1.11-.18zm0 0"/></symbol><symbol overflow="visible" id="ad1e626eA"><path d="M5.95-6.77H1.1V0h.99v-2.92H5.3v-.77H2.08v-2.26h3.87zm0 0"/></symbol><symbol overflow="visible" id="ad1e626eB"><path d="M2.73.14c.9 0 1.43-.45 1.74-1.08h.06l.13.94h.8v-5.02h-.94v2.7c0 .98-.57 1.62-1.46 1.62-.75 0-1.1-.4-1.1-1.22v-3.1h-.93v3.32c0 1.17.55 1.84 1.7 1.84zm0 0"/></symbol><symbol overflow="visible" id="ad1e626eC"><path d="M3.33.14c1.9 0 2.76-1.27 2.76-3.52 0-2.26-.86-3.53-2.76-3.53S.58-5.64.58-3.37c0 2.25.86 3.51 2.75 3.51zM3.3-.67c-1.25 0-1.73-.95-1.73-2.7 0-1.77.5-2.72 1.75-2.72s1.75.95 1.75 2.71c0 1.75-.5 2.7-1.77 2.7zm0 0"/></symbol><symbol overflow="visible" id="ad1e626eD"><path d="M2.84.14C3.8.14 4.33-.26 4.6-.9h.07L4.8 0h.76v-7.14h-.95v2.95h-.08c-.28-.6-.86-.97-1.67-.97-1.48 0-2.27.99-2.27 2.64C.6-.84 1.36.14 2.84.14zm.22-.8c-.98 0-1.48-.59-1.48-1.84s.5-1.86 1.48-1.86c1.13 0 1.58.8 1.58 1.86S4.2-.66 3.06-.66zm0 0"/></symbol><symbol overflow="visible" id="ad1e626eE"><path d="M3.58-5.81c.42 0 .72-.22.72-.67 0-.44-.3-.68-.72-.68-.44 0-.72.24-.72.68 0 .45.28.67.72.67zm.5.8H1.52v.76h1.6v3.48h-1.8V0h4.46v-.77h-1.7zm0 0"/></symbol><symbol overflow="visible" id="ad1e626eF"><path d="M2.16 0v-2.67c0-.99.59-1.63 1.46-1.63.74 0 1.07.38 1.07 1.22V0h.95v-3.31c0-1.2-.56-1.85-1.67-1.85-.92 0-1.49.46-1.77 1.08h-.06l-.12-.94H1.2V0zm0 0"/></symbol><symbol overflow="visible" id="ad1e626eG"><path d="M3.92-7.14H1.36v.76h1.6v5.61H1.15V0H5.7v-.77H3.92zm0 0"/></symbol><symbol overflow="visible" id="ad1e626eH"><path d="M3.36.16c1.4 0 2.2-.6 2.2-1.57 0-.89-.54-1.22-1.47-1.39L3-3c-.67-.14-.86-.33-.86-.73 0-.5.4-.74 1.17-.74.83 0 1.19.27 1.27.8l.9-.05c-.12-1-.8-1.47-2.17-1.47-1.34 0-2.1.53-2.1 1.5 0 .81.45 1.22 1.52 1.44l1.04.2c.56.11.87.24.87.72 0 .52-.45.78-1.28.78-.95 0-1.36-.28-1.42-.87l-.9.06C1.07-.36 1.8.16 3.35.16zm0 0"/></symbol><symbol overflow="visible" id="ad1e626eI"><path d="M1.45-2.95c0 2.56 1.08 4.37 3.67 4.84l.11-.67C3.28.86 2.43-.75 2.43-2.95s.85-3.82 2.8-4.16l-.1-.69c-2.6.49-3.68 2.3-3.68 4.85zm0 0"/></symbol><symbol overflow="visible" id="ad1e626eJ"><path d="M1.45-7.1c1.96.33 2.8 1.94 2.8 4.15 0 2.2-.84 3.8-2.8 4.17l.11.67c2.58-.47 3.67-2.28 3.67-4.84 0-2.55-1.09-4.36-3.67-4.85zm0 0"/></symbol></defs><use xlink:href="#ad1e626ea" x="109.5" y="151" fill="#fff"/><g fill="#515151"><use xlink:href="#ad1e626eb" x="166.68" y="151"/><use xlink:href="#ad1e626ec" x="195.96" y="151"/><use xlink:href="#ad1e626ed" x="225.9" y="151"/><use xlink:href="#ad1e626ee" x="238.86" y="151"/><use xlink:href="#ad1e626ef" x="264.66" y="151"/></g><use xlink:href="#ad1e626eg" x="297.42" y="151" fill="#fff"/><g fill="#515151"><use xlink:href="#ad1e626ed" x="317.52" y="151"/><use xlink:href="#ad1e626ec" x="330.48" y="151"/><use xlink:href="#ad1e626eh" x="360.42" y="151"/></g><use xlink:href="#ad1e626ei" x="393.78" y="151" fill="#fff"/><g fill="#515151"><use xlink:href="#ad1e626ed" x="415.56" y="151"/><use xlink:href="#ad1e626ee" x="428.52" y="151"/></g><use xlink:href="#ad1e626ej" x="454.32" y="151" fill="#fff"/><use xlink:href="#ad1e626ek" x="474.6" y="151" fill="#fff"/><g fill="#fff"><use xlink:href="#ad1e626el" x="226.6667" y="252"/><use xlink:href="#ad1e626em" x="233.3337" y="252"/><use xlink:href="#ad1e626en" x="240.0007" y="252"/><use xlink:href="#ad1e626eo" x="246.6677" y="252"/><use xlink:href="#ad1e626ep" x="253.3347" y="252"/><use xlink:href="#ad1e626eq" x="260.0017" y="252"/><use xlink:href="#ad1e626er" x="266.6687" y="252"/><use xlink:href="#ad1e626es" x="273.3357" y="252"/><use xlink:href="#ad1e626et" x="280.0027" y="252"/><use xlink:href="#ad1e626eu" x="286.6697" y="252"/><use xlink:href="#ad1e626eq" x="293.3367" y="252"/><use xlink:href="#ad1e626ev" x="300.0037" y="252"/><use xlink:href="#ad1e626ew" x="306.6707" y="252"/><use xlink:href="#ad1e626ex" x="313.3377" y="252"/><use xlink:href="#ad1e626eq" x="320.0047" y="252"/><use xlink:href="#ad1e626eu" x="326.6717" y="252"/><use xlink:href="#ad1e626ey" x="333.3387" y="252"/><use xlink:href="#ad1e626es" x="340.0057" y="252"/><use xlink:href="#ad1e626eq" x="346.6727" y="252"/><use xlink:href="#ad1e626ev" x="353.3397" y="252"/><use xlink:href="#ad1e626em" x="360.0067" y="252"/><use xlink:href="#ad1e626ez" x="366.6737" y="252"/></g><g fill="#fff"><use xlink:href="#ad1e626eA" x="220" y="266"/><use xlink:href="#ad1e626em" x="226.667" y="266"/><use xlink:href="#ad1e626ex" x="233.334" y="266"/><use xlink:href="#ad1e626eo" x="240.001" y="266"/><use xlink:href="#ad1e626eB" x="246.668" y="266"/><use xlink:href="#ad1e626ez" x="253.335" y="266"/><use xlink:href="#ad1e626em" x="260.002" y="266"/><use xlink:href="#ad1e626ep" x="266.669" y="266"/><use xlink:href="#ad1e626eq" x="273.336" y="266"/><use xlink:href="#ad1e626eC" x="280.003" y="266"/><use xlink:href="#ad1e626ez" x="286.67" y="266"/><use xlink:href="#ad1e626eD" x="293.337" y="266"/><use xlink:href="#ad1e626eE" x="300.004" y="266"/><use xlink:href="#ad1e626eF" x="306.671" y="266"/><use xlink:href="#ad1e626ex" x="313.338" y="266"/><use xlink:href="#ad1e626eG" x="320.005" y="266"/><use xlink:href="#ad1e626eH" x="326.672" y="266"/><use xlink:href="#ad1e626eq" x="333.339" y="266"/><use xlink:href="#ad1e626eI" x="340.006" y="266"/><use xlink:href="#ad1e626es" x="346.673" y="266"/><use xlink:href="#ad1e626ez" x="353.34" y="266"/><use xlink:href="#ad1e626eD" x="360.007" y="266"/><use xlink:href="#ad1e626eF" x="366.674" y="266"/><use xlink:href="#ad1e626eJ" x="373.341" y="266"/></g></svg>