<?xml version="1.0" encoding="UTF-8"?><svg enable-background="new 0 0 619 427" height="427px" viewBox="0 0 619 427" width="619px" x="0px" xml:space="preserve" xmlns="http://www.w3.org/2000/svg" y="0px"><path d="M0 0h619v427H0z" fill="#e8eef0"/><path d="M549.105 45.559l-1.734 1.906c1.387 5.726 3.817 10.582 6.594 14.574h68.695v9.195h-21.683c-15.614 0-28.106 6.938-28.106 19.43 0 15.266 19.082 36.777 35.215 36.777 4.86 0 10.062-1.738 14.574-3.816 4.508-2.086 8.5-3.645 11.102-3.645 2.254 0 3.297 1.215 3.297 2.95 0 7.113-8.848 14.918-22.903 14.918-10.926 0-25.324-4.684-45.797-30.88-2.773.696-10.234 6.419-11.62 8.5 10.929 16.481 22.726 27.93 35.042 34.696v.867c-12.492 4.86-17 14.399-17 22.38 0 16.827 17.172 28.972 34.172 28.972 5.899 0 10.754-1.563 14.746-3.82h.696v10.582c5.203 2.257 12.316 3.82 17.867 4.34l1.906-1.044c-1.04-8.324-1.211-18.386-1.211-27.754v-32.613c8.672-5.207 13.703-13.707 13.703-23.77 0-17.519-14.918-29.316-27.41-29.316-4.512 0-8.848 1.563-13.184 3.125-4.164 1.559-8.328 2.95-12.836 2.95-7.632 0-10.238-4.165-10.238-7.633 0-4.86 5.031-6.246 17.352-6.246h33.824l2.082-1.563c-.867-7.633-1.215-17.867-1.215-27.582h24.809l1.734-1.91c-1.387-5.723-3.816-10.582-6.59-14.57zm54.297 140.687c-2.425 0-4.683-.52-5.898-1.734-1.387-1.387-1.906-3.469-1.906-5.899 0-10.406 10.754-19.601 28.797-20.12-.696 16.304-10.93 27.753-20.993 27.753M320.105-2.34C309.465-1.453 299 .852 290.31 4.043c-.711 3.016-.356 6.21.707 9.402 4.613.532 9.402 1.418 14.011 2.836v45.407c0 3.55-.175 6.03-.707 9.933-3.547 1.242-9.222 2.484-14.191 3.016 0 3.722.531 8.511 1.242 10.289 6.738 0 14.543-.356 24.832-.356 8.16 0 23.945.176 30.328.356.89-1.953 1.242-6.918 1.242-10.29-4.609-1.417-13.3-2.66-20.93-3.19-.355-4.258-.53-8.516-.53-13.305V27.988c6.03-10.285 12.238-13.48 17.558-13.48 1.422 0 2.484 0 3.727.18 1.062 4.609 1.949 12.769 2.484 18.265 4.078 1.598 8.867 1.598 13.3 0 2.661-9.754 3.372-19.687 3.372-32.457-4.258-1.594-9.402-2.484-15.61-2.484-11.175 0-19.156 7.449-25.007 15.789-.887-4.969-2.66-11.707-3.903-14.723zm0 0M283.094 436.313c0 9.82 6.273 16.367 15.004 16.367 10.636 0 16.64-9.274 16.64-18.004 0-9.547-6.277-16.367-15.277-16.367-10.914 0-16.367 9.277-16.367 18.003M293.707 139.992c0 9.82 6.277 16.371 15.004 16.371 10.64 0 16.644-9.277 16.644-18.008 0-9.546-6.277-16.367-15.277-16.367-10.914 0-16.371 9.278-16.371 18.004M442.918 361.871c-1.773 0-8.512 1.063-18.621 1.063-10.29 0-15.965-.532-18.445-.532-2.309 0-3.727 4.258-3.727 5.145 0 .531.18.707 1.066.887 10.641 1.593 12.59 2.48 12.59 8.687 0 1.598 0 3.371-.176 3.547-31.039 0-61.543 19.687-61.543 53.562 0 28.73 26.602 40.258 53.208 40.97-1.598 14.366-2.66 14.542-12.594 15.429-2.836.18-4.078 4.789-4.078 5.851 0 .536 0 .887 1.422.887 2.48 0 9.043-.531 17.023-.531 11.172 0 14.187.355 20.394.355 2.665 0 4.434-3.546 4.434-5.675 0-1.243-.531-1.243-1.95-1.243-.71 0-2.66.18-4.077.18-3.192 0-9.047-.535-9.047-5.855 0-1.774.18-5.852.531-9.754 31.215-.531 61.543-18.266 61.543-54.094 0-26.602-26.957-39.371-52.32-39.727 0-1.242.535-7.98 2.129-9.753 1.597-1.774 3.902-1.594 9.222-2.66 1.774-.356 3.903-4.079 3.903-5.852 0-.356-.18-.887-.887-.887m-14.543 27.137c20.574 1.418 35.824 16.137 35.824 36.18 0 25.714-20.574 41.144-43.273 41.32 0-.531.887-9.043 1.418-14.543 1.242-12.77 2.84-27.133 3.902-39.902 1.067-11.883 1.418-17.028 2.129-23.055m-15.605 14.008l-5.325 64.203c-20.75-.711-36.886-16.14-36.886-36.711 0-24.653 20.57-40.793 43.273-40.793zm0 0M626.352 249.383c0-9.38-6.434-13.664-13.133-13.664-9.375 0-16.61 9.11-16.61 16.61 0 7.233 4.555 13.933 11.79 13.933 8.038 0 17.953-8.04 17.953-16.88M142.344 341.184c0-6.207-4.258-9.043-8.692-9.043-6.207 0-10.996 6.027-10.996 10.996 0 4.789 3.016 9.218 7.805 9.218 5.32 0 11.883-5.316 11.883-11.171M98.957 148.008l-1.473 1.617c1.18 4.86 3.239 8.98 5.594 12.367h11.629l1.473-1.62c-1.176-4.856-3.239-8.977-5.594-12.364zm0 0M502.848 388.738c0 6.207 3.37 10.465 11.53 10.465 7.626 0 11.528-4.258 11.528-10.465 0-6.386-4.254-10.64-11.527-10.64-7.45 0-11.531 3.902-11.531 10.64M131.7 408.742c3.37 0 6.562-4.258 6.562-10.644 0-6.383-3.192-10.996-6.563-10.996h-12.238c-3.371 0-6.742 4.613-6.742 10.996 0 6.386 3.37 10.644 6.742 10.644zm0 0M254.32 283.664c-1-7.8-10.601-26.008-34.007-26.008-22.805 0-42.211 17.004-42.211 36.211 0 18.606 18.007 26.004 35.609 27.805-10.402 2.203-23.207 6.203-32.61 13.203-1.398 6.402-1.398 12.605 0 19.008 8.004 3.8 14.805 8 20.208 12.8-20.207 15.208-37.012 36.61-37.012 60.618 0 27.406 21.61 37.808 33.61 37.808 21.007 0 52.214-32.41 52.214-68.015 0-12.203-3.601-23.406-9.601-32.809 4-1.601 8.199-2.8 12.203-3.402 0-6.403-1.203-11.805-4.203-16.805-6 1.2-12.602 3.402-19.403 6.402-6.203-5.601-13.406-9.8-21.008-12.8l28.407-10.606c1.601-4.398 1.601-9.402.601-13.8-12.804-3.602-27.406-11.407-27.406-25.208 0-5.601 2.402-10.003 5-13.003 7.8 6.199 10.203 14.601 10.203 23.406 12.402-1.203 22.207-6 29.406-14.805m-40.41 98.824c4.004 7.602 6.004 16.407 6.004 26.805 0 10.406-2 22.61-8.203 33.812-7.203-3.003-11.402-10.203-11.402-23.406 0-15.203 5.402-27.808 13.601-37.21M598.355-22.543c9.387-18.102 18.997-39.773 23.016-52.734v-2.684c-7.82-.668-13.629-2.008-17.875-2.902-2.457 8.937-6.48 28.152-9.387 36.644h-.668c-4.468-22.57-12.066-37.316-29.718-37.316-23.91 0-39.106 28.824-39.106 58.543 0 22.125 6.035 44.691 29.942 44.691 14.078 0 25.699-12.96 34.636-31.281h.895c2.902 17.652 4.02 30.836 14.746 30.836 14.75 0 21.898-11.399 23.91-17.879l-2.457-2.234c-2.906 2.46-7.152 4.918-12.293 4.918-4.242 0-11.617-12.067-15.64-28.602m-10.727-6.48c-3.125 15.64-19.887 32.847-31.281 32.847-14.75 0-20.559-13.633-20.559-33.07 0-26.145 16.984-32.625 25.922-32.625 11.617 0 19.441 8.266 25.918 32.848M226.813 152.191c-6.254-13.183-11.172-28.379-15.641-44.246h-2.457l-14.524 6.93c4.243 11.84 14.746 26.14 26.368 40.219zm0 0M200 148.613c-9.832-4.02-19.887-9.383-19.887-19.886 0-3.575 1.34-7.82 4.469-12.512l-3.352-3.352c-8.492 0-15.867 4.914-15.867 14.746 0 16.536 17.657 22.793 32.403 26.368zm0 0M464.66 52.648v-.71c17.79-6.641 28.223-16.126 28.223-28.461C492.883 10.672 478.89 0 454.227 0c-26.801 0-38.657 12.332-38.657 26.563 0 9.484 6.637 19.917 20.868 27.984v.71c-30.829 11.856-61.188 30.118-61.188 60.24 0 22.765 17.55 30.116 33.676 30.116 20.637 0 34.629-10.91 34.629-27.27 0-22.53-26.801-29.171-41.977-29.41v-.71c13.754-14.703 28.695-22.532 43.399-27.746 13.515 7.586 25.613 15.886 41.503 27.27v.714c-17.316 4.742-30.359 14.703-30.12 29.883 0 18.734 14.468 27.27 34.863 27.27 18.261 0 35.336-9.247 35.336-29.88 0-26.562-26.563-43.875-61.899-63.086m27.746 41.032c7.59 5.925 15.656 13.988 15.656 27.03 0 8.306-2.609 18.028-17.078 18.028-10.671 0-18.972-7.59-18.972-21.11 0-14.464 10.199-20.394 20.394-23.948m-93.676.71c9.961 2.133 29.172 9.485 29.172 25.376 0 12.566-7.117 18.734-16.601 18.734-12.57 0-17.313-12.805-17.313-25.14 0-7.825 1.66-14.704 4.742-18.97m58.106-46.484c-11.86-7.117-22.297-13.992-22.297-24.43 0-9.722 5.93-15.648 19.45-15.648 11.855 0 19.683 6.875 19.683 16.598 0 10.672-5.457 18.972-16.836 23.48M671.547 429.504c-22.371 0-32.813-10.067-50.895-13.234 21.813-7.832 40.082-27.778 40.082-52.2 0-33.37-26.472-52.386-55.367-52.386-29.27 0-59.656 24.98-59.656 55.742 0 32.437 26.473 52.387 54.621 52.387h.188c35.98.183 53.875 29.828 71.773 29.828 5.965 0 16.219-3.172 16.219-20.137zm-65.063-18.27c-23.863 0-36.168-15.66-36.168-47.91 0-29.828 9.883-43.066 29.457-43.066 25.168 0 36.352 17.71 36.352 45.676 0 31.132-8.762 45.3-29.64 45.3M259.637 44.527c0-15.12-6.774-33.547-15.59-48.035-9.61-16.066-20.32-27.406-27.246-27.406-4.727 0-7.563 2.992-9.45 6.773 2.044 1.735 4.407 4.094 6.77 6.618-19.215 22.675-27.246 44.882-27.246 64.726 0 8.192 2.992 27.719 18.586 27.719 3.621 0 11.34-2.203 15.906-10.234 2.36 5.511 7.242 10.234 14.805 10.234 11.808 0 23.465-11.18 23.465-30.395m-7.403 3.938c0 7.086-5.668 11.812-10.867 11.812-6.93 0-12.597-4.097-14.644-13.39-1.102-5.196-1.578-8.344-1.578-8.344s-1.575-.473-2.36-.473c-2.523 0-3.625 1.575-3.625 6.14 0 7.563-3.465 16.067-10.707 16.067-9.45 0-12.758-10.554-12.758-17.957 0-13.07 8.82-33.23 26.618-50.867 14.171 16.852 29.921 40.633 29.921 57.012M344.828 358.504c-6.812-11.848-25.605-8.035-38.543-10.621-3.676-.68-6.265-2.453-6.265-4.36 0-1.77 2.18-3.812 7.355-5.582 7.219-2.59 16.344-4.765 22.2-10.894 4.081-4.086 6.945-10.488 6.945-17.57 0-4.903-.954-6.946-.954-8.442 0-.273 0-.547.68-.547 3.95 0 9.125-.27 10.078-.543 2.18-.41 3.54-3.949 3.54-6.265 0-1.09-.407-2.043-1.09-2.043-1.633 0-8.169 2.043-14.297 2.043-5.856 0-8.172-6.266-19.614-6.266-14.843 0-28.054 12.668-28.054 27.375 0 11.305 7.492 18.113 15.117 19.883 1.5.273 2.043.41 2.043.68 0 .273-1.09.683-2.723 1.5-3.812 1.77-11.305 5.175-11.305 9.125 0 5.855 8.036 10.078 14.707 10.894-14.296 6.399-21.378 14.438-21.378 22.2 0 11.167 11.984 17.429 24.105 17.429 13.21 0 28.465-6.672 35.543-17.293 2.727-4.086 4.086-8.582 4.086-12.531 0-2.996-.817-5.719-2.176-8.172m-49.848 17.16c0-6.398 5.313-12.527 11.032-15.523 1.906-.954 4.086-1.91 5.718-1.91 13.079.957 25.47 2.046 25.47 13.21 0 12.395-11.985 18.934-22.88 18.934-9.535 0-19.34-5.04-19.34-14.71m8.446-49.708c-3.817-4.223-5.992-10.894-5.992-17.023 0-8.172 3.949-15.528 12.664-15.528 10.488 0 15.527 7.356 15.527 17.977 0 8.582-2.727 15.933-9.535 18.66-1.09.406-2.18.68-3.27.68-3.265 0-6.808-1.77-9.394-4.766M137.96 67.445c0-17.82-8.038-37.601-23.472-37.601-19.129 0-37.168 35.43-45.644 68.683h-.653c4.348-22.386 11.739-44.34 24.563-59.336 1.086-3.261 1.305-6.086 1.305-8.91 0-11.304-6.957-20.433-24.344-20.433-27.387 0-39.778 28.691-39.778 57.597 0 5.22.438 10.22 1.086 15.215-6.52-1.3-12.386-8.476-12.386-15.648-7.39 0-16.52 14.781-16.52 28.258 0 20.863 11.738 30.21 24.344 30.21 8.477 0 14.562-3.695 18.91-9.128 5.434 5.652 12.172 9.128 20.215 9.128 4.562 0 7.387-1.085 9.129-2.175-8.262-4.782-16.957-11.953-23.258-19.778l.434-.433c10.867 11.082 28.039 22.386 40.425 22.386 29.778 0 45.645-31.953 45.645-58.035m-43.688-1.953c-4.128 17.606-12.824 37.602-18.039 39.774 5.215-15.649 9.563-26.082 17.606-39.774zm0 0M41.96 327.129c0 5.148 3.634 9.691 9.083 9.691 5.453 0 9.39-4.543 9.39-9.691 0-6.055-3.937-12.113-9.39-12.113-5.45 0-9.082 6.058-9.082 12.113m28.164 0c0 5.148 3.633 9.691 9.082 9.691 5.453 0 9.39-4.543 9.39-9.691 0-6.055-3.937-12.113-9.39-12.113-5.45 0-9.082 6.058-9.082 12.113M45.289 163.598c0 5.148 3.637 9.691 9.086 9.691 5.453 0 9.39-4.543 9.39-9.691 0-6.055-3.937-12.114-9.39-12.114-5.45 0-9.086 6.059-9.086 12.114m70.563 146.875c1.21 1.21 2.421 1.82 5.148 1.82 5.148 0 15.14-9.996 15.14-24.23 0-13.325-9.386-22.711-26.648-22.711-9.992 0-17.262 1.816-33.008 9.386-17.566 8.48-24.23 10.903-37.855 10.903-23.926 0-35.734-11.508-35.734-23.317 0-6.058 3.632-10.601 9.085-10.601 5.45 0 8.782 1.82 19.985 9.691 9.996 6.664 15.445 8.48 23.32 8.48 17.867 0 31.797-16.957 31.797-42.093 0-22.715-16.656-44.215-30.887-44.215-12.722 0-26.351 17.262-26.351 33.312 0 13.625 11.511 25.133 26.953 25.133 6.664 0 11.512-1.816 15.75-3.933l1.21.906c-.304 9.387-7.269 16.96-17.562 16.96-6.363 0-11.207-2.12-22.715-12.417-9.386-8.48-13.93-10.902-20.894-10.902-10.602 0-19.688 11.812-19.688 26.652 0 24.832 19.688 46.332 46.032 46.332 11.207 0 17.867-1.817 37.855-10.602 19.383-8.476 24.832-9.687 30.586-9.687 9.996 0 16.05 5.148 16.05 12.113 0 4.54-2.722 9.387-7.57 13.02m-44.214-90.547c-3.028 2.12-8.176 3.937-14.84 3.937-9.688 0-14.836-3.633-14.836-8.48 0-5.45 5.754-11.203 11.508-11.203 8.476 0 16.351 8.175 18.168 15.746M137.172-19.676a20.454 20.454 0 0 1 2.547 9.903c0 5.66-2.547 11.316-14.43 18.671l3.395 5.942c20.37-7.637 29.421-15.844 29.421-27.156 0-4.528-1.695-8.774-4.527-12.168zm0 0M528.094 158.016a16.296 16.296 0 0 1 2.027 7.886c0 4.504-2.027 9.012-11.492 14.871l2.703 4.735c16.223-6.086 23.438-12.621 23.438-21.633 0-3.605-1.352-6.988-3.606-9.691zm0 0M95.105 436l-8.832-.902V404.64c0-25.047-10.453-33.88-34.058-33.88-14.957 0-33.34 3.606-45.774 7.571 0 11.172 2.344 23.606 6.489 30.094 10.812-7.567 26.492-14.594 38.203-16.04 1.441 3.426 2.523 7.391 2.523 12.255v2.882l-23.785 3.606c-19.105 2.883-27.754 10.094-27.754 23.25 0 14.234 10.274 23.785 26.13 23.785 14.058 0 25.769-7.39 30.093-21.445l.722.18-1.8 17.84c4.504.902 9.73 1.624 14.414 1.624 5.226 0 13.336-.902 20.726-4.867 1.801-4.867 2.703-10.453 2.703-15.496m-41.449-7.39c-3.426 2.702-7.75 4.324-11.531 4.324-4.508 0-7.39-2.16-7.39-5.766 0-1.262.359-2.703.902-4.145 3.965-.722 9.37-1.082 15.136-1.082h2.883zm0 0M452.957 327.074c10.223 8.473 17.45 16.45 24.93 27.918l9.222-1.992 41.383-32.16-4.738-5.735-37.39 26.176c-3.743-10.219-9.973-17.449-18.2-25.426zm0 0M548.602 279.941l7.144-70.933-6.125-3.742c-21.433 4.254-36.742 11.398-40.996 13.441.684 10.715 5.277 16.668 5.785 17.52 1.531-.852 6.633-3.915 14.63-7.145l-6.126 50.008c-6.633-.34-12.586-1.02-17.52-1.871-2.042 4.426-2.21 11.738-2.21 16.5 11.226 1.191 34.699 1.191 58.347 1.191 1.871-5.273 2.211-9.863 2.211-14.969zm0 0M-3.445-1.492C-2.988 6-3.672 21.047-.04 31.078c5.687.457 11.156-.91 15.945-3.648C13.625 16.715 6.332 3.04 2.226-3.348 9.067-.156 22.063 8.051 32.32 10.105c3.192-4.789 5.016-10.261 5.016-15.718C26.848-9.02 11.348-9.473 3.824-9.246c6.153-4.102 19.606-11.399 26.672-19.375-2.508-5.02-6.383-9.348-11.172-12.086C11.348-33.41 2.91-20.187-.738-13.805c-.453-7.312.23-22.347-3.176-32.37-5.684-.458-11.156.683-16.172 3.644 2.508 10.488 9.805 24.394 13.223 30.55-6.383-3.19-19.38-11.171-29.41-13.449-3.418 4.785-5.016 10.258-5.016 15.957C-31.027-6.309-15.527-5.625-8.23-5.855-14.387-1.75-27.61 5.316-34.676 13.297c2.508 5.242 6.383 9.348 11.399 12.082C-15.297 18.339-7.09 4.89-3.445-1.492M400.273 306.922c.336 5.535-.168 16.648 2.512 24.058 4.203.336 8.246-.671 11.781-2.695-1.683-7.914-7.074-18.015-10.105-22.73 5.05 2.355 14.652 8.418 22.226 9.933 2.36-3.535 3.708-7.578 3.708-11.61-7.747-2.515-19.196-2.85-24.754-2.683 4.546-3.03 14.48-8.418 19.703-14.312-1.852-3.703-4.715-6.903-8.254-8.922-5.89 5.387-12.121 15.152-14.817 19.867-.336-5.398.168-16.508-2.347-23.91-4.2-.336-8.242.504-11.946 2.691 1.852 7.75 7.243 18.02 9.766 22.567-4.715-2.356-14.312-8.25-21.719-9.934-2.527 3.535-3.707 7.578-3.707 11.785 7.578 2.34 19.028 2.844 24.418 2.676-4.547 3.031-14.312 8.25-19.535 14.145 1.852 3.87 4.715 6.902 8.422 8.922 5.89-5.2 11.953-15.133 14.648-19.848" fill="#fff"/><path d="M315.215 181.473v23.449h23.45v10.988h-23.45v23.594h-11.43V215.91H280.34v-10.988h23.445v-23.45zm0 0" fill="#152600"/><path d="M129.156 271.719h123V151.672h-123zm0 0" fill="#cd152b"/><path d="M203.531 242.813L214.738 236l-12.793-17.09c5.79-3.27 9.805-8.87 9.805-17.273 0-12.14-7.938-18.957-23.625-18.957-6.629 0-13.82.933-18.02 1.96v56.962h11.856v-18.957h3.738c1.68 0 3.36-.094 4.95-.278zm-21.57-30.625v-16.434c2.242-.281 5.23-.469 7.098-.469 6.441 0 11.207 2.336 11.207 7.938 0 6.629-6.817 8.964-15.223 8.964zm0 0" fill="#fff"/><path d="M370.93 267.09h114.703V155.516H370.93zm0 0" fill="#152600" fill-rule="evenodd"/><path d="M370.93 155.516h114.703V267.09H370.93zm-5.215 116.789h125.129v-122h-125.13zm0 0" fill="#87ec00" fill-rule="evenodd"/><path d="M403.07 189.836h-14.445c-.43 0-.602-.172-.516-.688l1.032-7.222c.086-.43.257-.602.687-.602h36.113c.516 0 .688.172.774.688l.687 7.136c.086.516-.172.688-.601.688h-14.36v48.152c0 .43-.171.688-.687.688h-7.996c-.516 0-.688-.172-.688-.688zm0 0M442.45 214.688l13.155-17.797c.344-.434.43-.606.86-.606h8.77c.515 0 .687.344.343.778-2.062 2.664-11.52 14.355-14.617 18.14a.548.548 0 0 0 0 .516l16.684 22.27c.171.343.085.687-.434.687h-10.145c-.515 0-.687-.172-.859-.516-2.836-3.785-10.144-13.93-13.758-19.176v19.09c0 .43-.086.602-.601.602h-8.082c-.602 0-.688-.172-.688-.688v-56.144c0-.262.086-.52.602-.52h8.168c.343 0 .601.172.601.606zm0 0" fill="#87ec00"/></svg>