<svg width="160" height="161" viewBox="0 0 160 161" xmlns="http://www.w3.org/2000/svg"><title>about_circle-2_custom-fonts</title><desc>Created with Sketch.</desc><g fill="none" fill-rule="evenodd"><g><g><g><g transform="translate(0 .118)"><circle fill="#fff" cx="80" cy="80" r="80"/><g stroke="#C92128" stroke-width="3"><path d="M84 47.882h22v64H84z"/><path d="M85.5 92.382h6.083" id="Line" stroke-linecap="square"/><path d="M85.5 84.382h6.083" stroke-linecap="square"/><path d="M85.5 76.382h6.083" stroke-linecap="square"/><path d="M85.5 68.382h6.083" stroke-linecap="square"/><path d="M85.5 60.382h6.083" stroke-linecap="square"/><path d="M85.5 100.382h6.083" stroke-linecap="square"/></g><g stroke-width="3"><path d="M61.5 69.382v25.02" id="Line" stroke="#D0011B" stroke-linecap="square"/><path d="M67.5 69.382v25.02" stroke="#D0011B" stroke-linecap="square"/><path d="M55.897 64.17v36.605c0 4.345 1.96 7.98 9.033 8.07 7.072.088 8.216-5.122 8.216-8.07v-36.66L64.93 51.548 55.897 64.17z" stroke="#C92128"/><path d="M56.56 99.382h16.29M72.85 94.382H56.56M60.5 59.382h8.05" stroke="#D0011B" stroke-linecap="square"/><path d="M65 63.882c0 2.433 1.79 4 4 4s4-1.567 4-3.5" stroke="#D0011B"/><path d="M56 64.382c0 1.933 1.79 3.5 4 3.5s4-1.567 4-4" stroke="#D0011B"/></g></g></g></g></g></g></svg>