<svg width="160" height="160" viewBox="0 0 160 160" xmlns="http://www.w3.org/2000/svg"><title>about_circle-4_teaching</title><desc>Created with Sketch.</desc><g fill="none" fill-rule="evenodd"><g><g><g><g transform="translate(0 0)"><circle fill="#fff" cx="80" cy="80" r="80"/><path d="M94 58v-4c0-2.5-1.5-4-4-4H71c-2.5 0-4 1.5-4 4v4H52c-2.5 0-4 1.5-4 4v26c0 2.5 1.5 4 4 4v15c0 2.5 1.5 4 4 4h49c2.5 0 4-1.5 4-4V92c2.5 0 4-1.5 4-4V62c0-2.5-1.5-4-4-4H94zm-3-5v5H70v-5h21zm-36 55V92h4v2c0 1 1 2 2 2h10c1 0 2-1 2-2v-2h15v2c0 1 1 2 2 2h10c1.052 0 2-1 2-2v-2h4v16H55zm7-21h8v6h-8v-6zm29 6v-6h8v6h-8zm11-4v-3c0-1-.948-2-2-2H90c-1 0-2 1-2 2v3H73v-3c0-1-1-2-2-2H61c-1 0-2 1-2 2v3h-7.995V61H110v28h-8zM62 61h8v23h-8V61zm0 35h8v6h-8v-6zm29-35h8v23h-8V61zm0 35h8v6h-8v-6zM65 61h2v23h-2V61zm0 35h2v3h-2v-3zm29-35h2v23h-2V61zm0 35h2v3h-2v-3z" fill="#C92128"/></g></g></g></g></g></svg>