<svg width="160" height="161" viewBox="0 0 160 161" xmlns="http://www.w3.org/2000/svg"><title>homepage_circle-3_high-quality</title><desc>Created with Sketch.</desc><g fill="none" fill-rule="evenodd"><g><g><g><g transform="translate(0 .118)"><circle fill="#fff" cx="80" cy="80" r="80"/><g fill="#C92128"><path d="M77.1 85.12c0 .78-.06 1.35-.15 1.98-1.05.27-2.1.48-3.15.57 0 .81.06 1.68.24 2.49 1.26 0 3.24-.06 5.97-.06 2.55 0 4.56 0 6.06.06.18-.78.24-1.59.21-2.49-.93-.27-2.01-.48-3.18-.57-.09-.78-.12-1.65-.12-2.52V73.57h2.67c.21 1.32.36 2.85.42 4.29 1.05.18 2.49.18 3.54 0 .39-1.95.57-4.47.48-7.41l-.45-.45c-1.86.06-4.95.06-7.05.06h-5.07c-2.1 0-5.19 0-7.05-.06l-.45.45c-.09 2.94.12 5.4.48 7.41 1.05.18 2.49.18 3.54 0 .06-1.47.24-3 .42-4.29h2.64v11.55z"/><g><path d="M59.357 49.268c2.006-1.166 3.152-2.916 3.726-4.374-.86-.292-1.72-.292-2.58-.292-1.146.292-2.005.584-3.152 1.167-1.145.582-1.718 1.457-2.29 2.332-.574.874-.86 1.75-.86 2.624 1.146.29 3.15-.292 5.157-1.458zm-10.602 6.415c1.432-1.166 2.58-3.208 2.865-5.25.287-2.04 0-4.08-1.146-4.956-1.72 1.167-3.152 3.208-3.44 5.54-.285 2.042.288 4.083 1.72 4.666zm-5.158 8.165c1.146-1.458 1.72-3.5 1.72-5.832 0-2.04-.86-4.083-2.007-4.666-1.433 1.458-2.292 3.79-2.292 6.124.286 2.332 1.432 3.79 2.58 4.374zm-2.58 9.33c.86-1.75 1.147-4.082.574-6.123-.572-2.04-1.72-3.79-3.15-4.082-1.148 1.75-1.434 4.374-.86 6.415.572 2.333 2.005 3.5 3.438 3.79zm-.286 9.915c.288-1.75 0-4.083-.86-6.124-.858-2.042-2.578-3.208-4.01-3.208-.573 2.04-.573 4.374.573 6.415 1.146 2.04 2.865 2.916 4.298 2.916zm2.007 9.33c0-1.75-.86-4.082-2.292-5.54-1.433-1.75-3.153-2.624-4.585-2.332-.287 2.042.573 4.375 2.292 6.124 1.433 1.75 3.152 2.333 4.585 1.75zm4.012 8.75c-.574-1.75-1.72-3.792-3.44-4.958-1.72-1.458-3.725-1.75-4.87-1.167.285 2.04 1.718 4.374 3.437 5.54 1.72 1.458 3.726 1.458 4.872.584zm6.017 7.58c-.86-1.75-2.58-3.207-4.585-4.082-2.006-.874-4.012-.874-5.158 0 .86 1.75 2.58 3.79 4.87 4.375 2.007 1.166 4.013.583 4.873-.292zm-2.58 4.082c1.147 1.75 3.44 2.916 5.732 3.208 2.29.29 4.01-.583 4.584-2.04-1.433-1.46-3.44-2.334-5.445-2.626-2.293 0-4.013.292-4.873 1.458zm8.597-58.902c-.86-1.166-2.865-1.75-4.87-1.166-2.007.583-3.727 2.04-4.586 3.79 1.146.876 3.152 1.167 4.87.584 2.294-.582 3.727-1.75 4.586-3.207zm-5.444 6.415c-1.147-.874-2.866-1.166-4.872-.29-2.006.874-3.44 2.623-4.012 4.373 1.147.876 3.152.584 4.872 0 2.006-1.166 3.44-2.624 4.012-4.082zm-6.305 11.664c1.433-1.458 2.58-3.207 2.58-4.665-1.433-.583-3.153-.292-4.872.875-1.72 1.457-2.58 3.5-2.58 5.248 1.434.292 3.153 0 4.872-1.458zm-5.158 11.08c1.433 0 3.152-.874 4.3-2.624 1.145-1.75 1.718-3.5 1.43-5.248-1.43-.292-3.15.29-4.583 2.04-1.147 1.75-1.72 4.083-1.147 5.833zm5.445 5.833c.86-2.04.86-3.79.286-5.54-1.432 0-2.865 1.166-3.725 3.207-.86 2.04-.573 4.374.287 5.832 1.146-.292 2.292-1.75 3.152-3.5zm.573 11.955c1.433-.583 2.292-2.333 2.58-4.374.286-2.04-.288-4.082-1.147-5.25-1.433.585-2.58 1.75-2.866 4.084-.573 1.75.287 4.082 1.433 5.54zm5.73 6.998c1.147-.875 1.72-2.624 1.434-4.665-.288-2.04-1.147-3.79-2.293-4.957-1.147.874-2.006 2.332-2.006 4.665.287 2.042 1.433 4.083 2.866 4.958zm4.3-3.79c-1.147 1.166-1.433 2.915-.86 4.957.573 2.04 2.292 3.79 4.012 4.374.86-1.168 1.146-3.21.286-4.96-.573-2.04-1.72-3.498-3.438-4.372zm42.696-54.82c-2.004-1.166-3.15-2.916-3.724-4.374.86-.292 1.72-.292 2.58-.292 1.145.292 2.005.584 3.15 1.167 1.148.582 1.72 1.457 2.294 2.332.573.874.86 1.75.86 2.624-1.147.29-3.153-.292-5.16-1.458zm10.604 6.415c-1.433-1.166-2.58-3.208-2.866-5.25-.286-2.04 0-4.08 1.147-4.956 1.72 1.167 3.152 3.208 3.438 5.54.287 2.042-.286 4.083-1.72 4.666zm5.158 8.165c-1.146-1.458-1.72-3.5-1.72-5.832 0-2.04.86-4.083 2.007-4.666 1.43 1.458 2.29 3.79 2.29 6.124-.285 2.332-1.432 3.79-2.578 4.374zm2.58 9.33c-.86-1.75-1.147-4.082-.574-6.123.573-2.04 1.72-3.79 3.152-4.082 1.146 1.75 1.433 4.374.86 6.415-.573 2.333-2.006 3.5-3.44 3.79zm.286 9.915c-.287-1.75 0-4.083.86-6.124.86-2.042 2.578-3.208 4.01-3.208.574 2.04.574 4.374-.572 6.415-1.146 2.04-2.866 2.916-4.298 2.916zm-2.006 9.33c0-1.75.86-4.082 2.292-5.54 1.433-1.75 3.152-2.624 4.585-2.332.286 2.042-.574 4.375-2.293 6.124-1.433 1.75-3.152 2.333-4.585 1.75zm-4.012 8.75c.573-1.75 1.72-3.792 3.44-4.958 1.718-1.458 3.724-1.75 4.87-1.167-.286 2.04-1.72 4.374-3.44 5.54-1.718 1.458-3.724 1.458-4.87.584zm-6.018 7.58c.86-1.75 2.58-3.207 4.585-4.082 2.006-.874 4.012-.874 5.158 0-.86 1.75-2.58 3.79-4.87 4.375-2.007 1.166-4.013.583-4.873-.292zm2.58 4.082c-1.147 1.75-3.44 2.916-5.732 3.208-2.292.29-4.012-.583-4.585-2.04 1.433-1.46 3.44-2.334 5.445-2.626 2.292 0 4.012.292 4.87 1.458zm-8.597-58.902c.86-1.166 2.865-1.75 4.87-1.166 2.007.583 3.726 2.04 4.586 3.79-1.145.876-3.15 1.167-4.87.584-2.293-.582-3.726-1.75-4.585-3.207zm5.444 6.415c1.145-.874 2.865-1.166 4.87-.29 2.007.874 3.44 2.623 4.012 4.373-1.146.876-3.152.584-4.87 0-2.007-1.166-3.44-2.624-4.013-4.082zm6.303 11.664c-1.432-1.458-2.58-3.207-2.58-4.665 1.434-.583 3.154-.292 4.873.875 1.72 1.457 2.58 3.5 2.58 5.248-1.434.292-3.153 0-4.873-1.458zm5.158 11.08c-1.43 0-3.15-.874-4.297-2.624-1.146-1.75-1.72-3.5-1.433-5.248 1.433-.292 3.152.29 4.585 2.04 1.146 1.75 1.72 4.083 1.146 5.833zm-5.443 5.833c-.86-2.04-.86-3.79-.287-5.54 1.433 0 2.866 1.166 3.726 3.207.86 2.04.573 4.374-.287 5.832-1.147-.292-2.293-1.75-3.153-3.5zm-.573 11.955c-1.433-.583-2.293-2.333-2.58-4.374-.286-2.04.287-4.082 1.147-5.25 1.434.585 2.58 1.75 2.867 4.084.573 1.75-.287 4.082-1.433 5.54zm-5.73 6.998c-1.148-.875-1.72-2.624-1.434-4.665.286-2.04 1.146-3.79 2.292-4.957 1.146.874 2.006 2.332 2.006 4.665-.286 2.042-1.433 4.083-2.865 4.958zm-4.3-3.79c1.146 1.166 1.433 2.915.86 4.957-.573 2.04-2.293 3.79-4.012 4.374-.86-1.168-1.146-3.21-.286-4.96.573-2.04 1.72-3.498 3.438-4.372z"/><path d="M95.75 116.043c-.287-.583-.573-.875-.86-1.458l-.286-.583-.573.29c-8.883 4.084-19.2 4.084-28.368 0l-.574-.29-.286.583c-.287.583-.573.875-.86 1.458l-.573.583.86.292c4.87 2.332 10.028 3.5 15.473 3.5 5.444 0 10.602-1.168 15.474-3.5l.86-.292-.287-.583"/></g></g></g></g></g></g></g></svg>