<svg width="160" height="160" viewBox="0 0 160 160" xmlns="http://www.w3.org/2000/svg"><title>homepage_circle-1_fair-trade</title><desc>Created with Sketch.</desc><g fill="none" fill-rule="evenodd"><g><g><g><g transform="translate(0 0)"><circle fill="#fff" cx="80" cy="80" r="80"/><g fill="#C92128"><path d="M74.146 60.915c1.584 2.21 1.097 5.306-1.085 6.913-2.182 1.606-5.235 1.115-6.82-1.096-1.582-2.21-1.096-5.306 1.087-6.912 2.183-1.606 5.236-1.116 6.82 1.095"/><path d="M94.082 93.74c1.583 2.212 1.098 5.307-1.085 6.914-2.183 1.606-5.236 1.115-6.82-1.096-1.584-2.212-1.097-5.306 1.086-6.912 2.182-1.606 5.235-1.117 6.82 1.095"/><path d="M114.045 95.932l-1.296-.184c-.742-.14-1.29-.794-1.303-1.557-.05-3.183-.986-6.713-2.44-9.214-6.116-10.51-17.855-13.185-29.91-6.827-9.74 5.147-19.838 2.873-24.557-5.526-2.347-4.176-2.93-9.063-1.644-13.758 1.265-4.615 4.22-8.556 8.327-11.1 16.96-10.168 38.837-5.147 49.828 11.42 7.057 10.638 8.32 23.61 3.464 35.59l-.47 1.156zm-22.35-24.23c8.204 0 15.473 4.05 19.93 11.71.758 1.304 1.396 2.84 1.877 4.47 2.11-9.312.396-18.88-4.975-26.976-10.092-15.214-30.184-19.826-45.737-10.5-3.428 2.124-5.907 5.425-6.964 9.285-1.07 3.9-.588 7.952 1.356 11.41 3.865 6.88 12.3 8.656 20.51 4.317 4.74-2.5 9.512-3.715 14.003-3.715z"/><path d="M80.115 117.986c-11.98 0-23.664-5.88-30.84-16.7-6.638-10.002-8-24.385-3.39-35.788l.482-1.19 1.33.22c.753.163 1.284.847 1.26 1.627-.096 3.003.66 6.163 2.07 8.675 5.864 10.438 18.238 13.357 30.09 7.103 9.88-5.212 19.46-3.084 24.407 5.42 4.918 8.455 2.546 18.71-5.767 24.943l-.27.17c-6.077 3.733-12.77 5.52-19.372 5.52zM46.88 72.856c-1.78 9.153-.027 19.26 4.916 26.712 10.26 15.463 30.545 19.94 46.206 10.21 6.974-5.263 8.99-13.832 4.903-20.86-4.058-6.975-12.06-8.645-20.383-4.253-13.17 6.95-27.527 3.455-34.138-8.31-.607-1.082-1.112-2.263-1.505-3.498z"/><path d="M80.218 117.95c-11.988 0-23.767-5.845-30.944-16.663-11.453-17.262-6.913-40.75 10.12-52.357 17.032-11.607 40.205-7.005 51.657 10.256 11.452 17.263 6.913 40.75-10.12 52.357-6.356 4.333-13.57 6.407-20.712 6.407zm-.108-72.346c-6.558 0-13.182 1.904-19.022 5.884-15.64 10.658-19.808 32.227-9.292 48.08 10.517 15.85 31.798 20.08 47.44 9.418 15.64-10.66 19.81-32.227 9.29-48.08-6.59-9.934-17.408-15.302-28.416-15.302z"/></g></g></g></g></g></g></svg>