<?xml version='1.0' encoding='UTF-8'?>
<svg xmlns="http://www.w3.org/2000/svg" xmlns:xlink="http://www.w3.org/1999/xlink" width="600px" height="300px" viewBox="0 0 600 300" x="0px" y="0px" enable-background="new 0 0 600 300"><defs><symbol overflow="visible" id="1b5dbb36a"><path d="M4.8-22.72L12.16-16l6.71-7.36-4.56-4.8c-.8-.71-1.51-1.43-2.62-1.43-1.2 0-2.17 1.18-3.13 2.23zm0 0"/></symbol><symbol overflow="visible" id="1b5dbb36b"><path d="M14.48-2.4c3.52.17 4.8-1.29 4.8-11.12 0-9.76-.72-23.6-6.08-36.32-1.12-2.72-2.8-4.57-5.04-4.57-1.93 0-3.75 1.28-4.96 4 8.88 16 11.28 33.7 11.28 48zm0 0"/></symbol><symbol overflow="visible" id="1b5dbb36c"><path d="M14.48-2.4c3.44.09 4.8-1.37 4.8-11.12 0-6.96-.4-16-2.56-25.28a15.78 15.78 0 007.92 2.24c7.28 0 10.16-5.6 10.16-10.72 0-4.4-1.52-7.6-3.52-7.6-.97 0-1.84.4-1.84.4.48 1.6.8 3.12.8 4.96 0 2.88-2.24 4.96-6.08 4.96-4.4 0-8.64-2.24-11.52-6.56-1.12-2.08-2.64-3.29-4.48-3.29-1.93 0-3.75 1.28-4.96 3.93 8.88 16.07 11.28 33.76 11.28 48.07zm0 0"/></symbol><symbol overflow="visible" id="1b5dbb36d"><path d="M14.48-2.4c3.44.09 4.72-1.37 4.72-11.12 0-6.32-.32-14.32-1.92-22.64.95.47 2.08.8 3.28.8 4 0 6.49-2.95 7.6-6.48a8.06 8.06 0 005.36 2.07c4.32 0 6.71-3.59 6.71-8.64 0-3.28-1.18-6.47-3.18-6.47-.97 0-1.53.4-1.53.4.48 1.84.89 3.04.89 4.89 0 2.72-1.46 3.59-3.13 3.59-1.6 0-3.28-1.2-4.64-4.95-.56-2.49-1.69-3.92-3.12-3.92-.96 0-1.83.39-1.83.39.39 1.68.95 3.53.95 6.07 0 3.53-1.52 4.82-4 4.82-1.44 0-4.16-.49-7.52-6.49-1.12-2.56-2.71-4.33-4.96-4.33-1.93 0-3.75 1.28-4.96 3.93C12-34.41 14.48-16.72 14.48-2.41zm0 0"/></symbol><symbol overflow="visible" id="1b5dbb36e"><path d="M3.2-40.8c0 8.88 9.03 28.32 11.36 39.67 6.64 0 8.4-3.43 8.4-6 0-8-14.73-21.92-14.73-32 0-4.46 2.49-6.3 5.05-6.3 3.67 0 6.64 4.07 9.67 10.63 3.28 0 3.46-1.04 6.9-4.56 2.87-2.95 7.02-4.87 9.74-5.84 0-4.4-1.1-8.8-5.67-8.8-4.72 0-7.51 6.16-8.87 10.8-1.2-5.92-4.18-10.96-10.49-10.96-6 0-11.36 5.03-11.36 13.36zm0 0"/></symbol><symbol overflow="visible" id="1b5dbb36f"><path d="M15.6-51.44c1.04.88 2.24 2.08 3.45 3.36C9.28-36.56 5.2-25.28 5.2-15.2c0 4.15 1.52 14.07 9.44 14.07 1.84 0 5.77-1.1 8.08-5.18 1.2 2.8 3.69 5.18 7.51 5.18 6 0 11.93-5.67 11.93-15.43 0-7.67-3.44-17.03-7.93-24.4-4.87-8.16-10.3-13.91-13.82-13.91-2.41 0-3.85 1.51-4.82 3.43zm9.84 36.08c-.57-2.64-.8-4.23-.8-4.23s-.8-.25-1.2-.25c-1.28 0-1.85.8-1.85 3.12 0 3.84-1.75 8.16-5.43 8.16-4.8 0-6.47-5.36-6.47-9.13 0-6.62 4.47-16.87 13.51-25.83 7.2 8.57 15.2 20.65 15.2 28.96 0 3.6-2.88 6-5.52 6-3.52 0-6.4-2.08-7.44-6.8zm0 0"/></symbol><symbol overflow="visible" id="1b5dbb36g"><path d="M32-31.05a7.63 7.63 0 001.77-4.54c0-3.05-2.25-4.57-4.82-4.57-3.9 0-8.39 3.36-12.54 8C12.8-33.36 10-36.3 10-40.23c0-3.2 2.8-6.57 6.23-6.57 5.29 0 8.57 2.24 8.57 2.24s2-1.03 2-3.52c0-3.69-4.08-6.8-9.93-6.8-7.35 0-12.15 6-12.15 12.8 0 8.72 6.08 13.6 7.92 14.8C7.2-19.6 3.2-10.41 3.2-5.28c0 3.51 1.52 4.16 3.2 4.16 1.44-10.57 8.47-20.4 15.29-25.04C26-29.12 28.95-30.4 32-31.05zm0 0"/></symbol><symbol overflow="visible" id="1b5dbb36h"><path d="M3.83 0v-5.95H6.2v-.82H.45v.82h2.4V0zm0 0"/></symbol><symbol overflow="visible" id="1b5dbb36i"><path d="M5.75-2.23v-.43c0-1.6-.9-2.51-2.42-2.51S.87-4.16.87-2.48c0 1.71.91 2.62 2.5 2.62 1.43 0 2.07-.56 2.29-1.52l-.9-.09c-.18.61-.59.9-1.35.9-.94 0-1.52-.54-1.58-1.66zm-2.4-2.2c.93 0 1.43.5 1.48 1.55H1.84c.08-1.07.6-1.56 1.5-1.56zm0 0"/></symbol><symbol overflow="visible" id="1b5dbb36j"><path d="M1.83 0l1.42-2h.06l1.46 2H5.8L4-2.53l1.78-2.49H4.8L3.42-3.08h-.08l-1.4-1.94H.89l1.78 2.49L.84 0zm0 0"/></symbol><symbol overflow="visible" id="1b5dbb36k"><path d="M5.52-4.25v-.77H3.17v-1.56h-.81l-.14 1.56H.75v.77h1.47v2.4c0 1.3.48 1.94 1.84 1.94C4.6.1 5.14 0 5.55-.14L5.4-.91c-.32.13-.72.2-1.13.2-.8 0-1.1-.37-1.1-1.23v-2.31zm0 0"/></symbol><symbol overflow="visible" id="1b5dbb36l"><path d="M3.33-3.42c.47 0 .8-.27.8-.8 0-.51-.33-.8-.8-.8-.47 0-.8.29-.8.8 0 .53.33.8.8.8zm0 3.5c.47 0 .8-.27.8-.78 0-.53-.33-.82-.8-.82-.47 0-.8.29-.8.82 0 .51.33.78.8.78zm0 0"/></symbol><symbol overflow="visible" id="1b5dbb36u"><path d="M5.95-6.77H1.1V0h.99v-2.92H5.3v-.77H2.08v-2.26h3.87zm0 0"/></symbol><symbol overflow="visible" id="1b5dbb36v"><path d="M2.83.14c.94 0 1.5-.39 1.81-.95h.08l.1.81h.76v-3.38c0-1.23-.69-1.8-2.13-1.8-1.43 0-2.03.65-2.18 1.6l.93.1c.11-.6.44-.93 1.22-.93.85 0 1.22.32 1.22 1.04v.34l-1.81.2C1.6-2.7 1.1-2.17 1.1-1.28c0 .92.64 1.42 1.72 1.42zm.25-.77c-.67 0-1.02-.28-1.02-.74 0-.44.28-.72 1-.82l1.58-.19v.41c0 .8-.6 1.34-1.56 1.34zm0 0"/></symbol><symbol overflow="visible" id="1b5dbb36w"><path d="M2.73.14c.9 0 1.43-.45 1.74-1.08h.06l.13.94h.8v-5.02h-.94v2.7c0 .98-.57 1.62-1.46 1.62-.75 0-1.1-.4-1.1-1.22v-3.1h-.93v3.32c0 1.17.55 1.84 1.7 1.84zm0 0"/></symbol><symbol overflow="visible" id="1b5dbb36x"><path d="M5.08-5.16c-.94 0-1.58.43-1.9 1.3h-.09l-.07-1.16H1.05v.77h1.1v3.48H.96V0h3.96v-.77H3.1v-1.46c0-1.36.6-2.05 1.83-2.05.4 0 .76.08 1.1.17l.15-.87c-.33-.11-.7-.18-1.11-.18zm0 0"/></symbol><symbol overflow="visible" id="1b5dbb36y"><path d="M3.33.14c1.7 0 2.51-.86 2.51-2.69v-4.22h-.98v4.2c0 1.41-.47 1.9-1.53 1.9S1.8-1.16 1.8-2.57v-4.2H.8v4.22c0 1.83.81 2.7 2.52 2.7zm0 0"/></symbol><symbol overflow="visible" id="1b5dbb36z"><path d="M2.84.14C3.8.14 4.33-.26 4.6-.9h.07L4.8 0h.76v-7.14h-.95v2.95h-.08c-.28-.6-.86-.97-1.67-.97-1.48 0-2.27.99-2.27 2.64C.6-.84 1.36.14 2.84.14zm.22-.8c-.98 0-1.48-.59-1.48-1.84s.5-1.86 1.48-1.86c1.13 0 1.58.8 1.58 1.86S4.2-.66 3.06-.66zm0 0"/></symbol><symbol overflow="visible" id="1b5dbb36A"><path d="M2.16 0v-2.67c0-.99.59-1.63 1.46-1.63.74 0 1.07.38 1.07 1.22V0h.95v-3.31c0-1.2-.56-1.85-1.67-1.85-.92 0-1.49.46-1.77 1.08h-.06l-.12-.94H1.2V0zm0 0"/></symbol><symbol overflow="visible" id="1b5dbb36B"><path d="M1.63 0v-2.9c0-.8.15-1.4.71-1.4.41 0 .55.3.55.88V0h.95v-2.9c0-.8.18-1.4.72-1.4.4 0 .57.3.57.88V0h.95v-3.63c0-.92-.28-1.53-1.11-1.53-.63 0-.95.41-1.1.9h-.06c-.1-.52-.44-.9-1.08-.9-.6 0-.93.41-1.06.9H1.6l-.23-.76H.67V0zm0 0"/></symbol><symbol overflow="visible" id="1b5dbb36C"><path d="M3.92-7.14H1.36v.76h1.6v5.61H1.15V0H5.7v-.77H3.92zm0 0"/></symbol><symbol overflow="visible" id="1b5dbb36D"><path d="M3.36.16c1.4 0 2.2-.6 2.2-1.57 0-.89-.54-1.22-1.47-1.39L3-3c-.67-.14-.86-.33-.86-.73 0-.5.4-.74 1.17-.74.83 0 1.19.27 1.27.8l.9-.05c-.12-1-.8-1.47-2.17-1.47-1.34 0-2.1.53-2.1 1.5 0 .81.45 1.22 1.52 1.44l1.04.2c.56.11.87.24.87.72 0 .52-.45.78-1.28.78-.95 0-1.36-.28-1.42-.87l-.9.06C1.07-.36 1.8.16 3.35.16zm0 0"/></symbol><symbol overflow="visible" id="1b5dbb36E"><path d="M1.45-2.95c0 2.56 1.08 4.37 3.67 4.84l.11-.67C3.28.86 2.43-.75 2.43-2.95s.85-3.82 2.8-4.16l-.1-.69c-2.6.49-3.68 2.3-3.68 4.85zm0 0"/></symbol><symbol overflow="visible" id="1b5dbb36F"><path d="M3.16 2.03c1.67 0 2.4-.86 2.4-2.51v-4.54h-.81l-.13.91h-.06c-.26-.58-.8-1.05-1.73-1.05-1.42 0-2.24 1-2.24 2.52 0 1.6.75 2.56 2.2 2.56.94 0 1.5-.5 1.77-1.03h.05v.72c0 1.17-.42 1.67-1.45 1.67-.93 0-1.3-.34-1.41-.89L.8.5c.12.96.87 1.54 2.36 1.54zM3.06-.8c-.98 0-1.48-.57-1.48-1.82 0-1.13.5-1.75 1.48-1.75 1.06 0 1.58.76 1.58 1.75 0 .95-.56 1.82-1.58 1.82zm0 0"/></symbol><symbol overflow="visible" id="1b5dbb36G"><path d="M1.45-7.1c1.96.33 2.8 1.94 2.8 4.15 0 2.2-.84 3.8-2.8 4.17l.11.67c2.58-.47 3.67-2.28 3.67-4.84 0-2.55-1.09-4.36-3.67-4.85zm0 0"/></symbol><symbol overflow="visible" id="1b5dbb36n"><path d="M1.38-1.45l.68-.68L1.2-3l-.67.67zm0 0"/></symbol><symbol overflow="visible" id="1b5dbb36o"><path d="M1.14 0h.66c0-2.92-.1-3.38-.57-5.03L.52-5c.53 1.6.62 1.97.62 5zm0 0"/></symbol><symbol overflow="visible" id="1b5dbb36p"><path d="M1.14 0h.66c0-1.28-.02-2.08-.08-2.72.2.06.42.1.6.1 1 0 1.46-.66 1.46-1.77 0-.2-.01-.42-.05-.64l-.65.06c.03.25.04.45.04.63 0 .65-.21.96-.8.96-.52 0-.68-.09-.84-.75l-.25-.9L.52-5c.53 1.6.62 1.97.62 5zm0 0"/></symbol><symbol overflow="visible" id="1b5dbb36q"><path d="M1.14 0h.66c0-1.28-.02-2.08-.08-2.72.2.06.42.1.6.1.26 0 .48-.07.66-.2.24.12.63.2.82.2.84 0 1.22-.66 1.22-1.77 0-.19-.02-.42-.04-.64l-.6.06.01.47c0 .77-.14 1.13-.6 1.13-.15 0-.27-.02-.37-.05.1-.27.14-.58.14-.97 0-.2-.01-.42-.04-.64l-.66.06c.02.25.05.45.05.63 0 .65-.18.96-.6.96-.51 0-.67-.09-.83-.75l-.25-.9L.52-5c.53 1.6.62 1.97.62 5zm0 0"/></symbol><symbol overflow="visible" id="1b5dbb36r"><path d="M1.14 0h.66c0-.92-.02-1.6-.03-2.16.21.04.45.05.71.05.66 0 1.43-.08 2.29-.25L4.84-3c-.53.13-1.32.19-1.56.2-.08 0-.08 0-.12-.06-.1-.14-.32-.48-.32-.86 0-.45.29-.64.7-.64.21 0 .48.06.74.16l.17-.64a2.7 2.7 0 00-.93-.2c-.77 0-1.32.46-1.32 1.35 0 .3.08.64.24.9-.24 0-.47 0-.66-.04-.06 0-.06 0-.08-.1a11.9 11.9 0 00-.47-2.1L.52-5c.53 1.6.62 1.97.62 5zm0 0"/></symbol><symbol overflow="visible" id="1b5dbb36s"><path d="M1.72 0c.25 0 .58-.03.81-.22.3.19.58.22.81.22.52 0 1.18-.27 1.18-1.4 0-1.16-.85-2.23-2.57-3.68l-.47.52.36.33C1-3.2.52-2.43.52-1.43.52-.35 1.08 0 1.72 0zm0-.75c-.36 0-.56-.19-.56-.69 0-.72.3-1.36 1.2-2.37 1.22 1.04 1.5 1.87 1.5 2.42 0 .45-.11.64-.5.64-.5 0-.5-.1-.5-.5v-.36H2.2v.36c0 .4 0 .5-.48.5zm0 0"/></symbol><symbol overflow="visible" id="1b5dbb36t"><path d="M.52 0h.87a5.44 5.44 0 012.95-2.6l.08-.8-1.19.52c-.28.15-.48.16-.71.04a.88.88 0 01-.47-.75c0-.5.34-.74.9-.74a3 3 0 01.77.11l.08-.69a3.1 3.1 0 00-.9-.14c-.88 0-1.54.49-1.54 1.49 0 .58.33 1.12.81 1.4C1.72-1.75 1.13-1 .52 0zm0 0"/></symbol></defs><g fill="#fff"><use xlink:href="#1b5dbb36a" x="175.16" y="154"/><use xlink:href="#1b5dbb36b" x="194.84" y="154"/><use xlink:href="#1b5dbb36c" x="219" y="154"/><use xlink:href="#1b5dbb36d" x="259.4" y="154"/><use xlink:href="#1b5dbb36e" x="302.84" y="154"/><use xlink:href="#1b5dbb36f" x="340.12" y="154"/><use xlink:href="#1b5dbb36g" x="387.48" y="154"/><use xlink:href="#1b5dbb36h" x="265.3222" y="252"/><use xlink:href="#1b5dbb36i" x="271.9892" y="252"/><use xlink:href="#1b5dbb36j" x="278.6562" y="252"/><use xlink:href="#1b5dbb36k" x="285.3232" y="252"/><use xlink:href="#1b5dbb36l" x="291.9902" y="252"/><use xlink:href="#1b5dbb36m" x="298.6572" y="252"/><g><use xlink:href="#1b5dbb36n" x="305.3222" y="252"/></g><g><use xlink:href="#1b5dbb36o" x="307.9" y="252"/><use xlink:href="#1b5dbb36p" x="310.219" y="252"/><use xlink:href="#1b5dbb36q" x="314.518" y="252"/><use xlink:href="#1b5dbb36r" x="320.057" y="252"/></g><g><use xlink:href="#1b5dbb36s" x="325.126" y="252"/></g><g><use xlink:href="#1b5dbb36t" x="329.745" y="252"/></g><g><use xlink:href="#1b5dbb36u" x="176.6667" y="266"/><use xlink:href="#1b5dbb36i" x="183.3337" y="266"/><use xlink:href="#1b5dbb36v" x="190.0007" y="266"/><use xlink:href="#1b5dbb36k" x="196.6677" y="266"/><use xlink:href="#1b5dbb36w" x="203.3347" y="266"/><use xlink:href="#1b5dbb36x" x="210.0017" y="266"/><use xlink:href="#1b5dbb36i" x="216.6687" y="266"/><use xlink:href="#1b5dbb36l" x="223.3357" y="266"/><use xlink:href="#1b5dbb36m" x="230.0027" y="266"/><use xlink:href="#1b5dbb36y" x="236.6697" y="266"/><use xlink:href="#1b5dbb36x" x="243.3367" y="266"/><use xlink:href="#1b5dbb36z" x="250.0037" y="266"/><use xlink:href="#1b5dbb36w" x="256.6707" y="266"/><use xlink:href="#1b5dbb36m" x="263.3377" y="266"/><use xlink:href="#1b5dbb36A" x="270.0047" y="266"/><use xlink:href="#1b5dbb36w" x="276.6717" y="266"/><use xlink:href="#1b5dbb36B" x="283.3387" y="266"/><use xlink:href="#1b5dbb36i" x="290.0057" y="266"/><use xlink:href="#1b5dbb36x" x="296.6727" y="266"/><use xlink:href="#1b5dbb36v" x="303.3397" y="266"/><use xlink:href="#1b5dbb36C" x="310.0067" y="266"/><use xlink:href="#1b5dbb36D" x="316.6737" y="266"/><use xlink:href="#1b5dbb36m" x="323.3407" y="266"/><use xlink:href="#1b5dbb36E" x="330.0077" y="266"/><use xlink:href="#1b5dbb36D" x="336.6747" y="266"/><use xlink:href="#1b5dbb36i" x="343.3417" y="266"/><use xlink:href="#1b5dbb36k" x="350.0087" y="266"/><use xlink:href="#1b5dbb36m" x="356.6757" y="266"/><use xlink:href="#1b5dbb36C" x="363.3427" y="266"/><use xlink:href="#1b5dbb36v" x="370.0097" y="266"/><use xlink:href="#1b5dbb36A" x="376.6767" y="266"/><use xlink:href="#1b5dbb36F" x="383.3437" y="266"/><use xlink:href="#1b5dbb36w" x="390.0107" y="266"/><use xlink:href="#1b5dbb36v" x="396.6777" y="266"/><use xlink:href="#1b5dbb36F" x="403.3447" y="266"/><use xlink:href="#1b5dbb36i" x="410.0117" y="266"/><use xlink:href="#1b5dbb36G" x="416.6787" y="266"/></g></g></svg>