<?xml version='1.0' encoding='UTF-8'?>
<svg xmlns="http://www.w3.org/2000/svg" xmlns:xlink="http://www.w3.org/1999/xlink" width="600px" height="300px" viewBox="0 0 600 300" x="0px" y="0px" enable-background="new 0 0 600 300"><defs><symbol overflow="visible" id="0d72846ca"><path d="M4.8-22.72L12.16-16l6.71-7.36-4.56-4.8c-.8-.71-1.51-1.43-2.62-1.43-1.2 0-2.17 1.18-3.13 2.23zm0 0"/></symbol><symbol overflow="visible" id="0d72846cb"><path d="M8 18.64h4.88v-79.77H8zm0 0"/></symbol><symbol overflow="visible" id="0d72846cc"><path d="M14.48-2.4c3.52.17 4.8-1.29 4.8-11.12 0-9.76-.72-23.6-6.08-36.32-1.12-2.72-2.8-4.57-5.04-4.57-1.93 0-3.75 1.28-4.96 4 8.88 16 11.28 33.7 11.28 48zm0 0"/></symbol><symbol overflow="visible" id="0d72846cd"><path d="M14.48-2.4c3.44.09 4.8-1.37 4.8-11.12 0-6.96-.4-16-2.56-25.28a15.78 15.78 0 007.92 2.24c7.28 0 10.16-5.6 10.16-10.72 0-4.4-1.52-7.6-3.52-7.6-.97 0-1.84.4-1.84.4.48 1.6.8 3.12.8 4.96 0 2.88-2.24 4.96-6.08 4.96-4.4 0-8.64-2.24-11.52-6.56-1.12-2.08-2.64-3.29-4.48-3.29-1.93 0-3.75 1.28-4.96 3.93 8.88 16.07 11.28 33.76 11.28 48.07zm0 0"/></symbol><symbol overflow="visible" id="0d72846ce"><path d="M14.48-2.4c3.44.09 4.72-1.37 4.72-11.12 0-6.32-.32-14.32-1.92-22.64.95.47 2.08.8 3.28.8 4 0 6.49-2.95 7.6-6.48a8.06 8.06 0 005.36 2.07c4.32 0 6.71-3.59 6.71-8.64 0-3.28-1.18-6.47-3.18-6.47-.97 0-1.53.4-1.53.4.48 1.84.89 3.04.89 4.89 0 2.72-1.46 3.59-3.13 3.59-1.6 0-3.28-1.2-4.64-4.95-.56-2.49-1.69-3.92-3.12-3.92-.96 0-1.83.39-1.83.39.39 1.68.95 3.53.95 6.07 0 3.53-1.52 4.82-4 4.82-1.44 0-4.16-.49-7.52-6.49-1.12-2.56-2.71-4.33-4.96-4.33-1.93 0-3.75 1.28-4.96 3.93C12-34.41 14.48-16.72 14.48-2.41zm0 0"/></symbol><symbol overflow="visible" id="0d72846cf"><path d="M20.23-55.2c-7.59 0-14.71 6.8-14.71 14.72 0 4.4 3.36 9.12 8 11.68-4.24 2.4-8.72 7.2-8.72 13.11 0 9.85 10.8 13.53 18.48 13.53 4.95 0 8.24-1.92 8.24-5.92 0-.48-.16-1.36-.24-1.84-1.12.23-4.87.33-6.23.33-4.64 0-15.2-.82-15.2-7.36 0-4.9 5.74-8.49 10.46-9.05a21.6 21.6 0 016.74.31c1.03-1.1 2-2.72 2-4.23 0-1.2-.64-3.2-3.46-3.6-2.3-.32-15.03-1.04-15.03-6.25 0-5.18 7.52-7.75 11.44-7.75 2.8 0 4.23.4 4.23.4s.82-1.2.82-2.72c0-3.44-3.05-5.36-6.82-5.36zm0 0"/></symbol><symbol overflow="visible" id="0d72846cg"><path d="M34.56-28.95c0-10.64-9.76-19.61-17.28-19.61-2.87 0-5.51 1.92-5.6 6.25-2.73 3.83-6.48 11.67-6.48 18 0 7.43 4.96 13.9 12.16 13.9 10.48 0 17.2-9.51 17.2-18.54zm-23.51.64c0-4.9 3.6-10.57 5.75-12.74 10 3.13 13.04 9.28 13.04 13.77 0 4.16-3.28 8.8-8.96 8.8-6.08 0-9.83-4.64-9.83-9.83zm0 0"/></symbol><symbol overflow="visible" id="0d72846ch"><path d="M39.84-8.88c0-7.2-5.84-20.8-6.97-40.07-.23-4-1.59-5.46-3.03-5.85-5.92 2.08-15.53 3.92-23.6.57 0 0-2.24 2.54-2.24 5.35 0 3.6 2.64 6.08 7.52 6.08 5.92 0 11.43-2.72 16.07-5.04.64 16.72 1.93 34.97 4.82 45.12 3.1 0 7.43-2.08 7.43-6.15zm0 0"/></symbol><symbol overflow="visible" id="0d72846ci"><path d="M3.83 0v-5.95H6.2v-.82H.45v.82h2.4V0zm0 0"/></symbol><symbol overflow="visible" id="0d72846cj"><path d="M5.75-2.23v-.43c0-1.6-.9-2.51-2.42-2.51S.87-4.16.87-2.48c0 1.71.91 2.62 2.5 2.62 1.43 0 2.07-.56 2.29-1.52l-.9-.09c-.18.61-.59.9-1.35.9-.94 0-1.52-.54-1.58-1.66zm-2.4-2.2c.93 0 1.43.5 1.48 1.55H1.84c.08-1.07.6-1.56 1.5-1.56zm0 0"/></symbol><symbol overflow="visible" id="0d72846ck"><path d="M1.83 0l1.42-2h.06l1.46 2H5.8L4-2.53l1.78-2.49H4.8L3.42-3.08h-.08l-1.4-1.94H.89l1.78 2.49L.84 0zm0 0"/></symbol><symbol overflow="visible" id="0d72846cl"><path d="M5.52-4.25v-.77H3.17v-1.56h-.81l-.14 1.56H.75v.77h1.47v2.4c0 1.3.48 1.94 1.84 1.94C4.6.1 5.14 0 5.55-.14L5.4-.91c-.32.13-.72.2-1.13.2-.8 0-1.1-.37-1.1-1.23v-2.31zm0 0"/></symbol><symbol overflow="visible" id="0d72846cm"><path d="M3.33-3.42c.47 0 .8-.27.8-.8 0-.51-.33-.8-.8-.8-.47 0-.8.29-.8.8 0 .53.33.8.8.8zm0 3.5c.47 0 .8-.27.8-.78 0-.53-.33-.82-.8-.82-.47 0-.8.29-.8.82 0 .51.33.78.8.78zm0 0"/></symbol><symbol overflow="visible" id="0d72846cv"><path d="M5.95-6.77H1.1V0h.99v-2.92H5.3v-.77H2.08v-2.26h3.87zm0 0"/></symbol><symbol overflow="visible" id="0d72846cw"><path d="M2.83.14c.94 0 1.5-.39 1.81-.95h.08l.1.81h.76v-3.38c0-1.23-.69-1.8-2.13-1.8-1.43 0-2.03.65-2.18 1.6l.93.1c.11-.6.44-.93 1.22-.93.85 0 1.22.32 1.22 1.04v.34l-1.81.2C1.6-2.7 1.1-2.17 1.1-1.28c0 .92.64 1.42 1.72 1.42zm.25-.77c-.67 0-1.02-.28-1.02-.74 0-.44.28-.72 1-.82l1.58-.19v.41c0 .8-.6 1.34-1.56 1.34zm0 0"/></symbol><symbol overflow="visible" id="0d72846cx"><path d="M2.73.14c.9 0 1.43-.45 1.74-1.08h.06l.13.94h.8v-5.02h-.94v2.7c0 .98-.57 1.62-1.46 1.62-.75 0-1.1-.4-1.1-1.22v-3.1h-.93v3.32c0 1.17.55 1.84 1.7 1.84zm0 0"/></symbol><symbol overflow="visible" id="0d72846cy"><path d="M5.08-5.16c-.94 0-1.58.43-1.9 1.3h-.09l-.07-1.16H1.05v.77h1.1v3.48H.96V0h3.96v-.77H3.1v-1.46c0-1.36.6-2.05 1.83-2.05.4 0 .76.08 1.1.17l.15-.87c-.33-.11-.7-.18-1.11-.18zm0 0"/></symbol><symbol overflow="visible" id="0d72846cz"><path d="M3.9.14c1.48 0 2.18-.98 2.18-2.64 0-1.67-.7-2.66-2.17-2.66-.91 0-1.49.41-1.79 1h-.06v-2.98h-.95V0h.81l.11-.9h.06c.29.63.82 1.04 1.82 1.04zm-.32-.8c-1.08 0-1.55-.8-1.55-1.84 0-1.06.47-1.86 1.55-1.86 1.1 0 1.51.61 1.51 1.86S4.64-.66 3.58-.66zm0 0"/></symbol><symbol overflow="visible" id="0d72846cA"><path d="M3.92-7.14H1.36v.76h1.6v5.61H1.15V0H5.7v-.77H3.92zm0 0"/></symbol><symbol overflow="visible" id="0d72846cB"><path d="M6.17 0L3.98-6.77h-1.3L.5 0h.97l.44-1.47h2.78L5.16 0zM3.28-5.94h.08l1.1 3.74H2.15zm0 0"/></symbol><symbol overflow="visible" id="0d72846cC"><path d="M3.58-5.81c.42 0 .72-.22.72-.67 0-.44-.3-.68-.72-.68-.44 0-.72.24-.72.68 0 .45.28.67.72.67zm.5.8H1.52v.76h1.6v3.48h-1.8V0h4.46v-.77h-1.7zm0 0"/></symbol><symbol overflow="visible" id="0d72846cD"><path d="M3.34.14c1.43 0 2.13-.66 2.25-1.78l-.89-.1c-.1.7-.5 1.08-1.34 1.08-1.03 0-1.52-.64-1.52-1.84 0-1.23.47-1.86 1.52-1.86.84 0 1.23.36 1.34 1.08l.9-.1c-.13-1.09-.82-1.78-2.26-1.78-1.56 0-2.46.97-2.46 2.66 0 1.66.9 2.64 2.46 2.64zm0 0"/></symbol><symbol overflow="visible" id="0d72846cE"><path d="M2.16 0v-2.67c0-.99.59-1.63 1.46-1.63.74 0 1.07.38 1.07 1.22V0h.95v-3.31c0-1.2-.56-1.85-1.67-1.85-.92 0-1.49.46-1.77 1.08h-.06l-.12-.94H1.2V0zm0 0"/></symbol><symbol overflow="visible" id="0d72846cF"><path d="M1.63 0v-2.9c0-.8.15-1.4.71-1.4.41 0 .55.3.55.88V0h.95v-2.9c0-.8.18-1.4.72-1.4.4 0 .57.3.57.88V0h.95v-3.63c0-.92-.28-1.53-1.11-1.53-.63 0-.95.41-1.1.9h-.06c-.1-.52-.44-.9-1.08-.9-.6 0-.93.41-1.06.9H1.6l-.23-.76H.67V0zm0 0"/></symbol><symbol overflow="visible" id="0d72846cG"><path d="M3.36.16c1.4 0 2.2-.6 2.2-1.57 0-.89-.54-1.22-1.47-1.39L3-3c-.67-.14-.86-.33-.86-.73 0-.5.4-.74 1.17-.74.83 0 1.19.27 1.27.8l.9-.05c-.12-1-.8-1.47-2.17-1.47-1.34 0-2.1.53-2.1 1.5 0 .81.45 1.22 1.52 1.44l1.04.2c.56.11.87.24.87.72 0 .52-.45.78-1.28.78-.95 0-1.36-.28-1.42-.87l-.9.06C1.07-.36 1.8.16 3.35.16zm0 0"/></symbol><symbol overflow="visible" id="0d72846cH"><path d="M1.45-2.95c0 2.56 1.08 4.37 3.67 4.84l.11-.67C3.28.86 2.43-.75 2.43-2.95s.85-3.82 2.8-4.16l-.1-.69c-2.6.49-3.68 2.3-3.68 4.85zm0 0"/></symbol><symbol overflow="visible" id="0d72846cI"><path d="M1.45-7.1c1.96.33 2.8 1.94 2.8 4.15 0 2.2-.84 3.8-2.8 4.17l.11.67c2.58-.47 3.67-2.28 3.67-4.84 0-2.55-1.09-4.36-3.67-4.85zm0 0"/></symbol><symbol overflow="visible" id="0d72846co"><path d="M1.38-1.45l.68-.68L1.2-3l-.67.67zm0 0"/></symbol><symbol overflow="visible" id="0d72846cp"><path d="M1.14 0h.66c0-2.92-.1-3.38-.57-5.03L.52-5c.53 1.6.62 1.97.62 5zm0 0"/></symbol><symbol overflow="visible" id="0d72846cq"><path d="M1.14 0h.66c0-1.28-.02-2.08-.08-2.72.2.06.42.1.6.1 1 0 1.46-.66 1.46-1.77 0-.2-.01-.42-.05-.64l-.65.06c.03.25.04.45.04.63 0 .65-.21.96-.8.96-.52 0-.68-.09-.84-.75l-.25-.9L.52-5c.53 1.6.62 1.97.62 5zm0 0"/></symbol><symbol overflow="visible" id="0d72846cr"><path d="M1.14 0h.66c0-1.28-.02-2.08-.08-2.72.2.06.42.1.6.1.26 0 .48-.07.66-.2.24.12.63.2.82.2.84 0 1.22-.66 1.22-1.77 0-.19-.02-.42-.04-.64l-.6.06.01.47c0 .77-.14 1.13-.6 1.13-.15 0-.27-.02-.37-.05.1-.27.14-.58.14-.97 0-.2-.01-.42-.04-.64l-.66.06c.02.25.05.45.05.63 0 .65-.18.96-.6.96-.51 0-.67-.09-.83-.75l-.25-.9L.52-5c.53 1.6.62 1.97.62 5zm0 0"/></symbol><symbol overflow="visible" id="0d72846cs"><path d="M2.33.05c.31 0 .69-.03 1.1-.1L3.5-.8c-.5.08-.9.1-1.22.1-.86 0-1.08-.26-1.08-.59 0-.5.66-.87 1.78-1.22l.07-.76c-.4.19-.77.26-1.03.26-.49 0-.75-.18-.75-.4 0-.22.17-.66 1.15-.92l.06-.72C1.31-4.84.66-4.11.66-3.4c0 .36.2.7.6.89-.43.31-.74.78-.74 1.25 0 .83.59 1.3 1.8 1.3zm0 0"/></symbol><symbol overflow="visible" id="0d72846ct"><path d="M2.33-.22c1.2 0 1.76-.64 1.76-1.7 0-1.19-.67-2.74-1.8-2.74-1.09 0-1.77 1.5-1.77 2.7 0 1.1.6 1.74 1.8 1.74zm.01-.75C1.5-.97 1.17-1.34 1.17-2c0-.75.46-1.9 1.14-1.9.69 0 1.13 1.18 1.13 1.93 0 .7-.38 1-1.1 1zm0 0"/></symbol><symbol overflow="visible" id="0d72846cu"><path d="M2.84 0h.7c-.23-1-.29-1.83-.29-2.75 0-.67.03-1.4.08-2.28H.59l-.07.75h2.06l-.03 1.36c0 1 .08 1.84.3 2.92zm0 0"/></symbol></defs><use xlink:href="#0d72846ca" x="112.08" y="154" fill="#fff"/><use xlink:href="#0d72846cb" x="135.76" y="154" fill="#515151"/><use xlink:href="#0d72846cc" x="156.64" y="154" fill="#fff"/><use xlink:href="#0d72846cb" x="183.2" y="154" fill="#515151"/><use xlink:href="#0d72846cd" x="204.08" y="154" fill="#fff"/><use xlink:href="#0d72846cb" x="242.08" y="154" fill="#515151"/><use xlink:href="#0d72846ce" x="262.96" y="154" fill="#fff"/><use xlink:href="#0d72846cb" x="306.4" y="154" fill="#515151"/><use xlink:href="#0d72846cf" x="327.28" y="154" fill="#fff"/><use xlink:href="#0d72846cb" x="362.56" y="154" fill="#515151"/><use xlink:href="#0d72846cg" x="383.44" y="154" fill="#fff"/><use xlink:href="#0d72846cb" x="423.2" y="154" fill="#515151"/><use xlink:href="#0d72846ch" x="444.08" y="154" fill="#fff"/><g fill="#fff"><use xlink:href="#0d72846ci" x="267.1593" y="252"/><use xlink:href="#0d72846cj" x="273.8263" y="252"/><use xlink:href="#0d72846ck" x="280.4933" y="252"/><use xlink:href="#0d72846cl" x="287.1603" y="252"/><use xlink:href="#0d72846cm" x="293.8273" y="252"/><use xlink:href="#0d72846cn" x="300.4943" y="252"/></g><g fill="#fff"><use xlink:href="#0d72846co" x="307.1593" y="252"/><use xlink:href="#0d72846cp" x="309.1813" y="252"/></g><use xlink:href="#0d72846cq" x="311.5033" y="252" fill="#fff"/><use xlink:href="#0d72846cr" x="315.7953" y="252" fill="#fff"/><use xlink:href="#0d72846cs" x="321.0773" y="252" fill="#fff"/><use xlink:href="#0d72846ct" x="324.8293" y="252" fill="#fff"/><use xlink:href="#0d72846cu" x="328.7813" y="252" fill="#fff"/><g fill="#fff"><use xlink:href="#0d72846cv" x="170" y="266"/><use xlink:href="#0d72846cj" x="176.667" y="266"/><use xlink:href="#0d72846cw" x="183.334" y="266"/><use xlink:href="#0d72846cl" x="190.001" y="266"/><use xlink:href="#0d72846cx" x="196.668" y="266"/><use xlink:href="#0d72846cy" x="203.335" y="266"/><use xlink:href="#0d72846cj" x="210.002" y="266"/><use xlink:href="#0d72846cm" x="216.669" y="266"/><use xlink:href="#0d72846cn" x="223.336" y="266"/><use xlink:href="#0d72846ci" x="230.003" y="266"/><use xlink:href="#0d72846cw" x="236.67" y="266"/><use xlink:href="#0d72846cz" x="243.337" y="266"/><use xlink:href="#0d72846cx" x="250.004" y="266"/><use xlink:href="#0d72846cA" x="256.671" y="266"/><use xlink:href="#0d72846cw" x="263.338" y="266"/><use xlink:href="#0d72846cy" x="270.005" y="266"/><use xlink:href="#0d72846cn" x="276.672" y="266"/><use xlink:href="#0d72846cB" x="283.339" y="266"/><use xlink:href="#0d72846cy" x="290.006" y="266"/><use xlink:href="#0d72846cw" x="296.673" y="266"/><use xlink:href="#0d72846cz" x="303.34" y="266"/><use xlink:href="#0d72846cC" x="310.007" y="266"/><use xlink:href="#0d72846cD" x="316.674" y="266"/><use xlink:href="#0d72846cn" x="323.341" y="266"/><use xlink:href="#0d72846cE" x="330.008" y="266"/><use xlink:href="#0d72846cx" x="336.675" y="266"/><use xlink:href="#0d72846cF" x="343.342" y="266"/><use xlink:href="#0d72846cj" x="350.009" y="266"/><use xlink:href="#0d72846cy" x="356.676" y="266"/><use xlink:href="#0d72846cw" x="363.343" y="266"/><use xlink:href="#0d72846cA" x="370.01" y="266"/><use xlink:href="#0d72846cG" x="376.677" y="266"/><use xlink:href="#0d72846cn" x="383.344" y="266"/><use xlink:href="#0d72846cH" x="390.011" y="266"/><use xlink:href="#0d72846cl" x="396.678" y="266"/><use xlink:href="#0d72846cE" x="403.345" y="266"/><use xlink:href="#0d72846cx" x="410.012" y="266"/><use xlink:href="#0d72846cF" x="416.679" y="266"/><use xlink:href="#0d72846cI" x="423.346" y="266"/></g></svg>