<?xml version='1.0' encoding='UTF-8'?>
<svg xmlns="http://www.w3.org/2000/svg" xmlns:xlink="http://www.w3.org/1999/xlink" width="300px" height="480px" viewBox="0 0 300 480" x="0px" y="0px" enable-background="new 0 0 300 480"><defs><symbol overflow="visible" id="dd672f18a"><path d="M31.25 1.1l1.34-4.94c-5.18 0-8.54-.86-10.84-.86-2.94 0-4.52 1.48-4.52 3.75 0 .42.1 1 .2 1.3 5 1.38 10.95 4.4 10.95 7.04 0 2.4-5.24 4.61-11.86 4.61C10.7 12 4.38 9.8 4.38 2.06c0-.72.09-2.1.56-5.65a1.32 1.32 0 00-.77-.25c-.37 0-.67.34-.86.76A25.37 25.37 0 001.7 5.61c0 7.34 4.98 11.19 13.1 11.19 1.96 0 6.18-.24 10.07-2.16 5-2.5 6.1-5.9 6.1-7.58 0-2.54-1.68-5.43-6-7.54 2 .67 4.27 1.59 6.29 1.59zM15.22 26.74c.95 0 1.87-.67 2.64-2.39.67 1 1.72 2.07 2.69 2.07 1.04 0 2.06-.83 2.92-2.9-1.3-.85-2.11-1.62-3.31-2.92l-2.4 3.02a23.73 23.73 0 01-3.03-2.69l-2.54 3.22c.53 1.06 1.92 2.6 3.03 2.6zm0 0"/></symbol><symbol overflow="visible" id="dd672f18b"><path d="M3.6-21.45c.96 0 1.87-.68 2.63-2.4.68 1 1.74 2.05 2.7 2.05 1.05 0 2.05-.8 2.93-2.87-1.3-.86-2.11-1.63-3.31-2.92l-2.4 3.01a23.68 23.68 0 01-3.03-2.69L.58-24.05c.53 1.07 1.92 2.6 3.01 2.6zm4.9 14.2c0 1.83-2.45 3.4-7.44 3.4-1.5 0-2.64 2.12-2.64 3.27 0 1.02.56 1.69 1.58 1.69 2.83 0 5.42-.92 6.95-1.88 3.03-1.92 4.2-5.32 4.2-8.45 0-1.39-.17-4.26-1.03-6.19-.53-1.15-1.24-1.92-2.34-1.92-1.06 0-2.06.53-2.73 1.16C7.69-10.8 8.5-8.45 8.5-7.25zm0 0"/></symbol><symbol overflow="visible" id="dd672f18c"><path d="M13.97-4.22c0-3.8-1.02-7.25-2.55-9.8-.86-1.43-1.97-2.4-3.26-2.4-1.2 0-2.3 1.15-2.93 1.97 3.94 4.75 6.2 8.36 6.2 10.75 0 4.72-4.04 9.98-13.84 14.4a6.42 6.42 0 004.96 2.4c6.04 0 11.42-9.93 11.42-17.32zm0 0"/></symbol><symbol overflow="visible" id="dd672f18d"><path d="M20.5-3.84h-3.45c-.74-5.52-3.57-11.38-7.83-11.38-3.5 0-6.67 4.56-6.67 9.45 0 4.61 1.97 6.88 7.04 6.88h4.61c-.1.47-.23.95-.42 1.48-1.55 4.47-7.15 7.88-14.73 10.99a6.7 6.7 0 005.12 2.4c2.78 0 5.1-1.43 6.97-3.3a22.87 22.87 0 005.9-11.57h2.16zm-11.05 0c-2.34 0-4.65-.33-4.65-2.88 0-1.92 1.54-3.7 3.4-3.7 2.22 0 4.96 3.12 5.9 6.58zm0 0"/></symbol><symbol overflow="visible" id="dd672f18e"><path d="M1.25-3.84c-1.3 0-2.83 1.25-2.83 3.3 0 .98.67 1.65 1.53 1.65C2.5 1.1 4.42.95 6.91.34c3.36-.87 6-2.98 6-6.92 0-.28-.05-.58-.1-.9 5 5.56 10.17 8.59 15.75 8.59l1.25-4.95c-8.4 0-14.36-3.85-24.04-20.44 3.45-2.64 11.51-4.77 18.46-4.77a4 4 0 00.68-2.3c0-1.3-.82-2.63-2.97-2.63-3.4 0-11.9 2.87-17.1 6-1.8 1.1-2.82 2.06-2.82 3.5 0 .53.14 1.06.48 1.73 2.02 3.69 4.08 7 6.1 9.94 1.43 2.01 2.1 3.69 2.1 5.23 0 4.13-5.95 3.74-9.45 3.74zm0 0"/></symbol><symbol overflow="visible" id="dd672f18f"><path d="M1.3-3.84c-1.11 0-2.83 1.59-2.83 3.4 0 .83.58 1.55 1.53 1.55 2.45 0 5.28-1.3 7.34-3.94.77 2.6 2.41 3.94 4.38 3.94 2.87 0 4.75-2.13 5.89-4.19 1.02 2.94 2.98 4.19 5.1 4.19 1.52 0 2.98-.53 4.12-1.5 2.22-1.81 3.08-4.99 3.08-7.97 0-1.48-.14-2.73-.44-3.92-.33-1.35-1.05-2.22-2.16-2.22-.81 0-1.68.58-2.36 1.06 1.7 3.85 2.4 5.96 2.4 7.05 0 1.55-1.62 2.55-3.58 2.55-2.41 0-3.8-1.58-4.24-3.85l-.58-2.87a1.42 1.42 0 00-.67-.19c-.51 0-.9.19-1.1.58-.29.53-.24 1.3-.24 1.92 0 3.6-2.49 4.4-4.03 4.4-1.82 0-2.93-1.38-3.32-3.35l-.46-2.35c-.2-.1-.44-.2-.77-.2-.88 0-1.25.67-1.25 1.78 0 2.31-1.83 4.13-5.81 4.13zm0 0"/></symbol><symbol overflow="visible" id="dd672f18g"><path d="M4.9 1.1C6 1.1 6.8.35 7.3-1.57c.9-3.56.95-10.03.95-15.6 0-2.21-.47-10.9-1.44-14.7-.33-1.34-1.15-2.06-2.1-2.06-.63 0-1.58.24-2.79 2.02C4.56-20.02 4.9-13.2 4.9 1.1zm5.52 12.68c1.67-.25 1.86-1.1 1.86-1.6 0-.52-.28-1.13-.67-1.57-.81 0-1.9.1-4.31.53-1.25.19-3.8-.25-3.8-2.06 0-1.16.97-1.74 1.78-1.74 1.44 0 2.6.72 3.36 1.3.77-.48 1-1.1 1-1.73 0-1.2-1.1-2.7-3.45-2.7-2.11 0-4.57 2.37-4.57 5 0 1.84 1.3 3.27 1.93 3.8C1.06 14.17.09 15.37.09 16.09c0 .44.4.9.72 1.1 1.02-.87 2.83-2.3 9.61-3.4zm0 0"/></symbol><symbol overflow="visible" id="dd672f18h"><path d="M5.92-6.77H1.1V0h4.83v-.8H2.06v-2.26h3.22v-.75H2.06v-2.16h3.86zm0 0"/></symbol><symbol overflow="visible" id="dd672f18i"><path d="M3.36.16c1.4 0 2.2-.6 2.2-1.57 0-.89-.54-1.22-1.47-1.39L3-3c-.67-.14-.86-.33-.86-.73 0-.5.4-.74 1.17-.74.83 0 1.19.27 1.27.8l.9-.05c-.12-1-.8-1.47-2.17-1.47-1.34 0-2.1.53-2.1 1.5 0 .81.45 1.22 1.52 1.44l1.04.2c.56.11.87.24.87.72 0 .52-.45.78-1.28.78-.95 0-1.36-.28-1.42-.87l-.9.06C1.07-.36 1.8.16 3.35.16zm0 0"/></symbol><symbol overflow="visible" id="dd672f18j"><path d="M5.77-5.02H4.63L2.3-2.88h-.06v-4.26h-.94V0h.94v-2.31h.06L4.71 0h1.24L3.23-2.69zm0 0"/></symbol><symbol overflow="visible" id="dd672f18k"><path d="M3.33.14c1.62 0 2.5-.95 2.5-2.66 0-1.68-.88-2.64-2.5-2.64-1.63 0-2.5.96-2.5 2.64 0 1.7.87 2.66 2.5 2.66zm0-.77c-1.06 0-1.52-.6-1.52-1.89 0-1.28.46-1.87 1.52-1.87 1.08 0 1.53.6 1.53 1.87 0 1.29-.45 1.9-1.53 1.9zm0 0"/></symbol><symbol overflow="visible" id="dd672f18l"><path d="M5.08-5.16c-.94 0-1.58.43-1.9 1.3h-.09l-.07-1.16H1.05v.77h1.1v3.48H.96V0h3.96v-.77H3.1v-1.46c0-1.36.6-2.05 1.83-2.05.4 0 .76.08 1.1.17l.15-.87c-.33-.11-.7-.18-1.11-.18zm0 0"/></symbol><symbol overflow="visible" id="dd672f18m"><path d="M5.52-4.25v-.77H3.17v-1.56h-.81l-.14 1.56H.75v.77h1.47v2.4c0 1.3.48 1.94 1.84 1.94C4.6.1 5.14 0 5.55-.14L5.4-.91c-.32.13-.72.2-1.13.2-.8 0-1.1-.37-1.1-1.23v-2.31zm0 0"/></symbol><symbol overflow="visible" id="dd672f18n"><path d="M5.75-2.23v-.43c0-1.6-.9-2.51-2.42-2.51S.87-4.16.87-2.48c0 1.71.91 2.62 2.5 2.62 1.43 0 2.07-.56 2.29-1.52l-.9-.09c-.18.61-.59.9-1.35.9-.94 0-1.52-.54-1.58-1.66zm-2.4-2.2c.93 0 1.43.5 1.48 1.55H1.84c.08-1.07.6-1.56 1.5-1.56zm0 0"/></symbol><symbol overflow="visible" id="dd672f18p"><path d="M6.17 0L3.98-6.77h-1.3L.5 0h.97l.44-1.47h2.78L5.16 0zM3.28-5.94h.08l1.1 3.74H2.15zm0 0"/></symbol><symbol overflow="visible" id="dd672f18q"><path d="M2.83.14c.94 0 1.5-.39 1.81-.95h.08l.1.81h.76v-3.38c0-1.23-.69-1.8-2.13-1.8-1.43 0-2.03.65-2.18 1.6l.93.1c.11-.6.44-.93 1.22-.93.85 0 1.22.32 1.22 1.04v.34l-1.81.2C1.6-2.7 1.1-2.17 1.1-1.28c0 .92.64 1.42 1.72 1.42zm.25-.77c-.67 0-1.02-.28-1.02-.74 0-.44.28-.72 1-.82l1.58-.19v.41c0 .8-.6 1.34-1.56 1.34zm0 0"/></symbol><symbol overflow="visible" id="dd672f18r"><path d="M3.9.14c1.48 0 2.18-.98 2.18-2.64 0-1.67-.7-2.66-2.17-2.66-.91 0-1.49.41-1.79 1h-.06v-2.98h-.95V0h.81l.11-.9h.06c.29.63.82 1.04 1.82 1.04zm-.32-.8c-1.08 0-1.55-.8-1.55-1.84 0-1.06.47-1.86 1.55-1.86 1.1 0 1.51.61 1.51 1.86S4.64-.66 3.58-.66zm0 0"/></symbol><symbol overflow="visible" id="dd672f18s"><path d="M3.58-5.81c.42 0 .72-.22.72-.67 0-.44-.3-.68-.72-.68-.44 0-.72.24-.72.68 0 .45.28.67.72.67zm.5.8H1.52v.76h1.6v3.48h-1.8V0h4.46v-.77h-1.7zm0 0"/></symbol><symbol overflow="visible" id="dd672f18t"><path d="M3.34.14c1.43 0 2.13-.66 2.25-1.78l-.89-.1c-.1.7-.5 1.08-1.34 1.08-1.03 0-1.52-.64-1.52-1.84 0-1.23.47-1.86 1.52-1.86.84 0 1.23.36 1.34 1.08l.9-.1c-.13-1.09-.82-1.78-2.26-1.78-1.56 0-2.46.97-2.46 2.66 0 1.66.9 2.64 2.46 2.64zm0 0"/></symbol><symbol overflow="visible" id="dd672f18u"><path d="M4.06-2.77c1.25-.04 1.92-.7 1.92-1.96 0-1.36-.7-2.04-2.17-2.04H.92V0h.97v-2.73h1.08L4.95 0h1.1zM1.9-6h1.7c1.07 0 1.46.34 1.46 1.28 0 .9-.44 1.27-1.47 1.27H1.89zm0 0"/></symbol><symbol overflow="visible" id="dd672f18v"><path d="M3.16 2.03c1.67 0 2.4-.86 2.4-2.51v-4.54h-.81l-.13.91h-.06c-.26-.58-.8-1.05-1.73-1.05-1.42 0-2.24 1-2.24 2.52 0 1.6.75 2.56 2.2 2.56.94 0 1.5-.5 1.77-1.03h.05v.72c0 1.17-.42 1.67-1.45 1.67-.93 0-1.3-.34-1.41-.89L.8.5c.12.96.87 1.54 2.36 1.54zM3.06-.8c-.98 0-1.48-.57-1.48-1.82 0-1.13.5-1.75 1.48-1.75 1.06 0 1.58.76 1.58 1.75 0 .95-.56 1.82-1.58 1.82zm0 0"/></symbol><symbol overflow="visible" id="dd672f18w"><path d="M2.73.14c.9 0 1.43-.45 1.74-1.08h.06l.13.94h.8v-5.02h-.94v2.7c0 .98-.57 1.62-1.46 1.62-.75 0-1.1-.4-1.1-1.22v-3.1h-.93v3.32c0 1.17.55 1.84 1.7 1.84zm0 0"/></symbol><symbol overflow="visible" id="dd672f18x"><path d="M3.92-7.14H1.36v.76h1.6v5.61H1.15V0H5.7v-.77H3.92zm0 0"/></symbol><symbol overflow="visible" id="dd672f18F"><path d="M3.42.14c1.61 0 2.56-.75 2.56-2 0-1.1-.67-1.6-1.95-1.86l-.97-.2c-.87-.17-1.23-.49-1.23-1.11 0-.7.54-1.11 1.5-1.11 1.06 0 1.51.34 1.69 1.23l.9-.09c-.17-1.28-.98-1.9-2.6-1.9C1.79-6.9.9-6.18.9-4.98c0 1.06.66 1.66 1.88 1.9l1.01.2c.85.17 1.25.4 1.25 1.09 0 .73-.6 1.16-1.6 1.16-1.07 0-1.66-.4-1.8-1.24l-.94.1C.83-.53 1.75.13 3.42.13zm0 0"/></symbol><symbol overflow="visible" id="dd672f18G"><path d="M1.63 0v-2.9c0-.8.15-1.4.71-1.4.41 0 .55.3.55.88V0h.95v-2.9c0-.8.18-1.4.72-1.4.4 0 .57.3.57.88V0h.95v-3.63c0-.92-.28-1.53-1.11-1.53-.63 0-.95.41-1.1.9h-.06c-.1-.52-.44-.9-1.08-.9-.6 0-.93.41-1.06.9H1.6l-.23-.76H.67V0zm0 0"/></symbol><symbol overflow="visible" id="dd672f18H"><path d="M2.84.14C3.8.14 4.33-.26 4.6-.9h.07L4.8 0h.76v-7.14h-.95v2.95h-.08c-.28-.6-.86-.97-1.67-.97-1.48 0-2.27.99-2.27 2.64C.6-.84 1.36.14 2.84.14zm.22-.8c-.98 0-1.48-.59-1.48-1.84s.5-1.86 1.48-1.86c1.13 0 1.58.8 1.58 1.86S4.2-.66 3.06-.66zm0 0"/></symbol><symbol overflow="visible" id="dd672f18P"><path d="M4.66-3.45c.76-.14 1.15-.67 1.15-1.57 0-1.07-.64-1.75-2.18-1.75H.92V0h2.71C5.2 0 5.98-.64 5.98-1.77c0-1.03-.56-1.43-1.32-1.59zM3.56-6c.9 0 1.31.4 1.31 1.13 0 .71-.4 1.14-1.3 1.14h-1.7V-6zM1.87-.75v-2.27H3.6c.97 0 1.44.33 1.44 1.13 0 .8-.47 1.14-1.44 1.14zm0 0"/></symbol><symbol overflow="visible" id="dd672f18X"><path d="M1.83 0l1.42-2h.06l1.46 2H5.8L4-2.53l1.78-2.49H4.8L3.42-3.08h-.08l-1.4-1.94H.89l1.78 2.49L.84 0zm0 0"/></symbol><symbol overflow="visible" id="dd672f18y"><path d="M31.97 1.1l1.67-6.29c-5.27 0-8.39-.76-10.66-.76-3.54 0-5.37 1.87-5.37 4.47 0 .76.2 1.48.34 2.06 5.1 1.53 10.32 4.17 10.32 6.58 0 2.3-4.9 4.17-11.04 4.17-5.42 0-12.3-1.74-12.3-9.6 0-1.15.26-3.03.59-5.71a1.82 1.82 0 00-1-.33c-.58 0-.97.42-1.2.9C2.3-1.39 1.57 2.7 1.57 5.3c0 7.87 5.28 12 13.5 12 2.06 0 6.37-.35 10.22-2.32 4.56-2.35 6.04-5.66 6.04-7.9 0-2.5-1.48-5.63-6.71-8.09 2.5.83 5.03 2.13 7.34 2.13zM15.5 27.76c1.1 0 2.1-.92 2.94-2.6.72 1.1 1.92 2.2 2.92 2.2 1.25 0 2.36-1.15 3.17-3.12a18.3 18.3 0 01-3.56-3.2l-2.69 3.36a21.1 21.1 0 01-3.25-2.98L12.2 25c.62 1.2 2.1 2.74 3.31 2.74zm0 0"/></symbol><symbol overflow="visible" id="dd672f18z"><path d="M4.03-23.66c1.11 0 2.16-.96 2.92-2.59.74 1.05 1.97 2.16 2.94 2.16 1.25 0 2.4-1.16 3.22-3.13a17.2 17.2 0 01-3.61-3.22l-2.64 3.36A23.02 23.02 0 013.55-30L.77-26.45c.57 1.25 2.1 2.8 3.26 2.8zM8.78-8.3c0 1.72-2.15 3.11-7.34 3.11-1.58 0-3.17 2.27-3.17 4.24C-1.73.15-1.2 1.1 0 1.1c2.78 0 5.66-.88 7.69-2.36 2.73-1.88 4.4-5.42 4.4-9.55 0-1.73-.14-4.17-.9-6-.58-1.39-1.55-2.36-2.99-2.36-1.39 0-2.48.88-3.15 1.5 2.64 5.27 3.73 8.02 3.73 9.36zm0 0"/></symbol><symbol overflow="visible" id="dd672f18A"><path d="M15.5-4.9a20 20 0 00-2.25-9.26c-.97-1.92-2.27-3.12-3.98-3.12-1.64 0-2.99 1.44-3.66 2.45 4.56 5.24 6.73 8.44 6.73 11.24 0 5.07-4.6 9.82-14.5 13.76a6.93 6.93 0 005.7 3.22C9.9 13.4 15.5 3.45 15.5-4.89zm0 0"/></symbol><symbol overflow="visible" id="dd672f18B"><path d="M22.13-5.19h-3.79c-.68-6.37-3.65-12.28-8.26-12.28-4.22 0-7.49 5.19-7.49 10.22 0 5.38 2.74 8.36 8.02 8.36h4.22c-.24.62-.47 1.25-.86 1.92-2.2 4.36-7.11 7.1-14.92 10.03a7.21 7.21 0 005.8 3.2c3.17 0 5.8-1.8 7.92-4.3 2.3-2.55 4.46-6.77 5.32-10.85h2.41zm-11.91 0c-2.83 0-4.7-.67-4.7-2.87 0-1.88 1.5-3.5 3.36-3.5 2.3 0 4.95 2.73 5.95 6.37zm0 0"/></symbol><symbol overflow="visible" id="dd672f18C"><path d="M1.58-5.19c-1.44 0-3.31 1.64-3.31 4.33 0 1.3.78 1.97 1.68 1.97 1.97 0 4.17-.1 6.63-.83 3.45-1 6.04-3.55 6.04-7.58v-.23C17.87-1.73 23.1 1.1 29.39 1.1l1.57-6.3c-9.25 0-15.3-3.17-24.6-18.47 3.4-2.45 10.93-4.51 18.46-4.51a5.03 5.03 0 001.02-2.9c0-1.43-.92-3.05-3.36-3.05-3.31 0-10.66 2.5-15.84 5.46-3.46 1.88-4.61 3.46-4.61 4.94 0 .63.18 1.2.53 1.88 1.83 3.03 3.54 5.76 5.23 8.15l-.05.06c1.49 2.11 2.11 3.6 2.11 4.94 0 3.36-4.65 3.5-8.26 3.5zm0 0"/></symbol><symbol overflow="visible" id="dd672f18D"><path d="M1.63-5.19C.19-5.19-1.7-3.22-1.7-.77c0 1 .58 1.88 1.69 1.88a9.72 9.72 0 007.63-3.75c.87 2.36 2.5 3.75 4.76 3.75 2.44 0 4.4-1.69 5.8-3.9.92 2.56 2.89 3.9 5.1 3.9a6.7 6.7 0 004.88-2.22C30.4-3.4 31.3-7 31.3-10.13c0-1.24-.14-2.93-.58-4.17-.49-1.4-1.3-2.22-2.55-2.22-1.2 0-2.25.88-2.87 1.35 1.92 4.08 2.73 6 2.73 7.34 0 1.44-1.44 2.64-3.5 2.64-2.16 0-3.6-1.43-4.28-4.03l-.77-2.97c-.28-.1-.57-.2-.76-.2-.58 0-.95.25-1.2.62-.29.49-.29 1.16-.29 2.07 0 3.3-2.2 4.51-3.89 4.51-1.78 0-2.82-1.25-3.36-3.26l-.57-2.3c-.2-.1-.49-.19-.86-.19-.86 0-1.35.63-1.35 1.77 0 2.36-1.83 3.98-5.58 3.98zm0 0"/></symbol><symbol overflow="visible" id="dd672f18E"><path d="M5.19 1.44c1.1 0 2.3-.58 2.92-3.02.81-3.36 1.06-9.08 1.06-15.89 0-2.69-.48-11.14-1.48-14.55-.44-1.34-1.25-2.15-2.55-2.15-1.01 0-2.1.47-3.31 2.06 2.6 10.47 3.36 18.48 3.36 33.55zm5.23 13.73c1.86-.2 2.11-1.3 2.11-1.92a3.3 3.3 0 00-.67-1.78c-.81 0-2.69.25-4.66.53-1.3.1-3.4-.19-3.4-1.83 0-1.14 1.04-1.67 1.92-1.67 1.39 0 2.53.58 3.31 1.05.72-.52 1-1.2 1-1.93 0-1.23-1.1-2.87-3.64-2.87-2.69 0-4.9 2.55-4.9 5.14 0 1.92 1.34 3.31 2.01 3.9C.86 14.91.1 16.12.1 16.83c0 .58.48 1.07.8 1.25 1.02-.86 2.85-2.2 9.52-2.92zm0 0"/></symbol><symbol overflow="visible" id="dd672f18I"><path d="M32.69 1.1l1.97-7.68c-5.33 0-8.25-.62-10.43-.62C20.02-7.2 18-4.98 18-2.06a9 9 0 00.53 2.92c5.13 1.6 9.6 3.94 9.6 6.1 0 2.12-4.57 3.65-10.13 3.65-5.14 0-12.53-1.25-12.53-9.17 0-1.63.39-3.99.67-5.86a2.33 2.33 0 00-1.3-.42c-.8 0-1.25.53-1.53 1.04-1.06 2.02-1.78 6.4-1.78 8.78 0 8.41 5.58 12.79 13.78 12.79 2.25 0 6.63-.4 10.47-2.46 4.08-2.15 6-5.47 6-8.2 0-2.5-1.3-5.77-7.44-8.55 3.07.86 5.8 2.55 8.35 2.55zM15.75 28.8c1.23 0 2.4-1.2 3.2-2.83.78 1.25 2.18 2.34 3.18 2.34 1.43 0 2.68-1.48 3.5-3.4a17.1 17.1 0 01-3.88-3.46l-2.9 3.7a21.06 21.06 0 01-3.58-3.21l-3.04 3.89c.63 1.44 2.27 2.97 3.52 2.97zm0 0"/></symbol><symbol overflow="visible" id="dd672f18J"><path d="M4.52-25.92c1.2 0 2.34-1.16 3.17-2.78.81 1.2 2.15 2.34 3.2 2.34 1.45 0 2.64-1.48 3.47-3.4-1.34-.91-2.75-2.11-3.84-3.46l-2.94 3.7a19.44 19.44 0 01-3.55-3.26L.95-28.84c.68 1.39 2.27 2.92 3.57 2.92zM9.03-9.41c0 1.72-1.78 2.83-7.2 2.83-1.64 0-3.66 2.46-3.66 5.24 0 1.2.4 2.45 1.83 2.45 2.78 0 5.9-.88 8.45-2.8 2.44-1.81 4.66-5.56 4.66-10.65 0-2.07-.2-4.08-.92-5.9-.63-1.59-1.72-2.68-3.5-2.68s-3.03 1.1-3.7 1.72c2.63 5.23 4.04 8.4 4.04 9.8zm0 0"/></symbol><symbol overflow="visible" id="dd672f18K"><path d="M17.05-5.56c0-2.9-.78-6.44-1.93-8.8-1.1-2.3-2.59-3.83-4.74-3.83-2.08 0-3.61 1.72-4.33 3.02 5.14 5.72 7.25 8.54 7.25 11.62 0 5.57-5.24 9.7-15.18 13.2a7.35 7.35 0 006.44 4.04c6.63 0 12.49-9.94 12.49-19.25zm0 0"/></symbol><symbol overflow="visible" id="dd672f18L"><path d="M23.72-6.58h-4.14c-.63-7.3-3.69-13.2-8.6-13.2-5.03 0-8.3 5.81-8.3 11 0 6.14 3.46 9.89 8.88 9.89h3.9a9.95 9.95 0 01-1.3 2.34c-2.88 4.24-7 6.3-15.07 9.08 1 1.67 3.16 4.03 6.43 4.03 3.56 0 6.48-2.2 8.84-5.33a26.82 26.82 0 004.8-10.12h2.59zm-12.74 0c-3.36 0-4.8-.95-4.8-2.78 0-1.83 1.5-3.4 3.37-3.4 2.4 0 4.95 2.45 6 6.18zm0 0"/></symbol><symbol overflow="visible" id="dd672f18M"><path d="M1.88-6.58c-1.54 0-3.7 2.02-3.7 5.38 0 1.64.87 2.3 1.82 2.3 1.4 0 3.84-.08 6.23-.87C9.7-.9 12.14-3.7 12.34-7.57c5.47 6 10.8 8.68 17.85 8.68l1.97-7.69c-10.22 0-16.27-2.5-25.25-16.4 3.36-2.36 10.37-4.38 18.48-4.38a5.48 5.48 0 001.4-3.45c0-1.6-1.06-3.5-3.85-3.5-3.16 0-9.4 2.2-14.49 4.94-5.14 2.68-6.43 4.84-6.43 6.39 0 .71.23 1.39.62 2.01 1.48 2.34 2.88 4.5 4.27 6.47h-.1c1.6 2.22 2.11 3.6 2.11 4.7 0 2.55-3.26 3.22-7.04 3.22zm0 0"/></symbol><symbol overflow="visible" id="dd672f18N"><path d="M2.02-6.58c-1.88 0-3.85 2.4-3.85 5.47 0 1.25.58 2.22 1.83 2.22 3.36 0 6.19-1.45 7.97-3.61.86 2.1 2.6 3.6 5.14 3.6 2.06 0 4.08-1.29 5.66-3.55A5.48 5.48 0 0023.9 1.1c2.39 0 4.3-1.25 5.6-2.99 2.18-2.68 3.13-6.76 3.13-10.07 0-1-.1-3.02-.67-4.43-.58-1.43-1.58-2.2-2.99-2.2-1.53 0-2.82 1.2-3.4 1.69 2.26 4.31 3.17 6 3.17 7.58 0 1.34-1.34 2.73-3.5 2.73-1.92 0-3.4-1.3-4.33-4.12l-.95-3.08a1.78 1.78 0 00-.86-.19c-.53 0-1.02.19-1.25.58-.3.44-.3 1-.3 2.2 0 3.08-1.97 4.61-3.83 4.61-1.64 0-2.75-1-3.36-3.17L9.7-12c-.2-.1-.57-.19-.97-.19-.86 0-1.48.58-1.48 1.77 0 2.4-1.83 3.84-5.23 3.84zm0 0"/></symbol><symbol overflow="visible" id="dd672f18O"><path d="M5.52 1.83c1.1 0 2.68-.49 3.36-3.4.76-3.18 1.2-8.13 1.2-16.15 0-3.25-.44-11.37-1.58-14.44-.48-1.3-1.34-2.3-2.98-2.3-1.35 0-2.6.71-3.74 2.16 2.44 8.97 3.74 18.24 3.74 34.13zm4.86 14.69c2.06-.05 2.34-1.49 2.34-2.22 0-.68-.28-1.49-.67-1.96-.82 0-3.36.33-4.94.47-1.3.1-3.03-.14-3.03-1.48 0-1.2 1.15-1.74 2.06-1.74 1.34 0 2.55.54 3.31.93.63-.63.93-1.4.93-2.22 0-1.2-1.07-2.97-3.8-2.97a5.27 5.27 0 00-5.28 5.19c0 2.06 1.39 3.36 2.1 4.03C.68 15.65.15 16.85.15 17.6c0 .67.48 1.16.81 1.34 1.02-.86 2.9-2.06 9.43-2.43zm0 0"/></symbol><symbol overflow="visible" id="dd672f18Q"><path d="M33.4 1.1l2.32-9.02c-5.44 0-8.13-.53-10.24-.53-4.84 0-7.09 2.6-7.09 5.86 0 1.48.33 2.45.67 3.7 5.22 1.72 8.97 3.69 8.97 5.6 0 2.02-4.22 3.23-9.31 3.23-4.75 0-12.67-.77-12.67-8.83 0-2.06.53-4.9.67-5.9-.38-.3-.95-.54-1.53-.54-1.02 0-1.55.63-1.88 1.2C2.16-2.16 1.44 2.5 1.44 4.66c0 8.92 5.86 13.57 14.15 13.57 2.36 0 6.83-.46 10.61-2.59 3.66-2.02 5.96-5.22 5.96-8.53 0-2.36-.96-5.77-7.97-8.98 3.51.96 6.43 2.98 9.22 2.98zM16.04 29.82c1.34 0 2.64-1.43 3.45-3.03.88 1.34 2.36 2.5 3.46 2.5 1.64 0 2.98-1.83 3.75-3.66-1.4-.9-3.03-2.34-4.13-3.73l-3.17 4.03c-1.39-.9-2.83-2.26-3.84-3.5l-3.32 4.27c.72 1.58 2.46 3.12 3.8 3.12zm0 0"/></symbol><symbol overflow="visible" id="dd672f18R"><path d="M4.94-28.13c1.34 0 2.64-1.43 3.47-3.03.86 1.35 2.34 2.5 3.45 2.5 1.62 0 2.97-1.82 3.73-3.64a19.42 19.42 0 01-4.12-3.75L8.3-32.02c-1.4-.9-2.83-2.25-3.83-3.5l-3.31 4.27c.72 1.6 2.43 3.13 3.78 3.13zM9.3-10.46c0 1.64-1.48 2.55-7.1 2.55-1.73 0-4.18 2.6-4.18 6.19 0 1.3.34 2.84 1.97 2.84 2.73 0 6.14-.83 9.17-3.27 2.16-1.78 4.9-5.67 4.9-11.76 0-2.4-.2-3.99-.82-5.7-.67-1.83-2.02-3.13-4.13-3.13-2.1 0-3.46 1.44-4.14 2.06C7.62-15.55 9.31-12 9.31-10.47zm0 0"/></symbol><symbol overflow="visible" id="dd672f18S"><path d="M18.58-6.23c0-2.46-.67-6.05-1.64-8.27-1.19-2.78-2.88-4.56-5.47-4.56-2.5 0-4.27 2.01-5.03 3.51 5.75 6.2 7.76 8.64 7.76 12.1 0 5.95-5.8 9.54-15.82 12.57 1.9 3.74 4.98 4.85 7.18 4.85 6.92 0 13.02-9.94 13.02-20.2zm0 0"/></symbol><symbol overflow="visible" id="dd672f18T"><path d="M25.34-7.92h-4.46c-.63-8.2-3.79-14.11-9.02-14.11-5.77 0-9.13 6.44-9.13 11.76 0 6.91 4.22 11.38 9.85 11.38h3.5a9.6 9.6 0 01-1.72 2.78C10.8 8.02 7.39 9.41-.91 12c.96 1.83 3.2 4.84 7.1 4.84 3.93 0 7.2-2.59 9.8-6.32a30.4 30.4 0 004.17-9.41h2.89zm-13.57 0c-3.85 0-4.86-1.3-4.86-2.78a3.25 3.25 0 013.3-3.22c2.46 0 5 2.15 6.06 6zm0 0"/></symbol><symbol overflow="visible" id="dd672f18U"><path d="M2.2-7.92c-1.67 0-4.17 2.4-4.17 6.39C-1.97.44-1.02 1.1 0 1.1c.81 0 3.55-.05 5.9-.92A9.3 9.3 0 0012-7.7c5.81 6.4 11.14 8.8 19.02 8.8l2.3-9.03c-11.05 0-17.2-1.83-25.79-14.46 3.27-2.2 9.8-4.12 18.44-4.12.67-.77 1.73-2.25 1.73-4.03 0-1.72-1.15-3.94-4.23-3.94-3.06 0-8.16 1.83-13.25 4.42-6.77 3.4-8.2 6.24-8.2 7.83 0 .81.28 1.53.67 2.16 1.15 1.67 2.2 3.26 3.26 4.75 1.63 2.3 2.11 3.5 2.11 4.42 0 1.77-1.97 2.97-5.86 2.97zm0 0"/></symbol><symbol overflow="visible" id="dd672f18V"><path d="M2.36-7.92c-2.22 0-4.33 2.78-4.33 6.48 0 1.44.58 2.55 1.97 2.55 3.84 0 6.58-1.5 8.25-3.47a5.89 5.89 0 005.53 3.47c1.67 0 3.83-.88 5.56-3.31a5.69 5.69 0 005.14 3.3c2.88 0 4.99-1.63 6.38-3.7 2.17-3.17 3.17-7.67 3.17-11.13 0-.77-.1-3.2-.81-4.66-.72-1.48-1.83-2.2-3.36-2.2-1.92 0-3.4 1.48-3.94 1.96 2.5 4.57 3.5 6.05 3.5 7.88 0 1.25-1.15 2.83-3.4 2.83-1.68 0-3.22-1.16-4.38-4.31l-1.14-3.18c-.3-.09-.63-.18-.97-.18-.58 0-1.05.23-1.34.62-.28.38-.33.86-.33 2.35 0 2.78-1.69 4.7-3.7 4.7-1.58 0-2.64-.86-3.41-3.06l-.77-2.22c-.18-.1-.62-.2-1.06-.2-.86 0-1.58.54-1.58 1.8 0 2.43-1.82 3.68-4.98 3.68zm0 0"/></symbol><symbol overflow="visible" id="dd672f18W"><path d="M5.81 2.16c1.1 0 3.07-.29 3.9-3.74.66-2.98 1.27-7.15 1.27-16.42 0-3.75-.42-11.6-1.62-14.3-.58-1.3-1.44-2.4-3.4-2.4-1.74 0-3.13.95-4.27 2.2 2.39 7.55 4.12 18 4.12 34.66zm4.57 15.75c2.24 0 2.57-1.7 2.57-2.55a4.2 4.2 0 00-.67-2.16c-.81 0-4.12.49-5.26.49-1.36 0-2.64-.11-2.64-1.25 0-1.2 1.23-1.69 2.2-1.69 1.3 0 2.5.4 3.26.67.58-.67.91-1.48.91-2.39 0-1.25-1.05-3.17-3.98-3.17a5.33 5.33 0 00-5.61 5.33c0 2.15 1.43 3.4 2.2 4.12C.48 16.42.14 17.61.14 18.4c0 .81.58 1.3.92 1.48 1-.85 2.88-1.96 9.31-1.96zm0 0"/></symbol></defs><use xlink:href="#dd672f18a" x="75.264" y="71.2505"/><use xlink:href="#dd672f18b" x="106.512" y="71.2505"/><use xlink:href="#dd672f18c" x="117.888" y="71.2505"/><use xlink:href="#dd672f18d" x="134.976" y="71.2505"/><use xlink:href="#dd672f18e" x="154.176" y="71.2505"/><use xlink:href="#dd672f18f" x="182.736" y="71.2505"/><use xlink:href="#dd672f18g" x="213.84" y="71.2505"/><g fill-opacity=".33"><use xlink:href="#dd672f18h" x="76.66667" y="113.501"/><use xlink:href="#dd672f18i" x="83.33367" y="113.501"/><use xlink:href="#dd672f18j" x="90.00067" y="113.501"/><use xlink:href="#dd672f18k" x="96.66767" y="113.501"/><use xlink:href="#dd672f18l" x="103.33467" y="113.501"/><use xlink:href="#dd672f18m" x="110.00167" y="113.501"/><use xlink:href="#dd672f18n" x="116.66867" y="113.501"/><use xlink:href="#dd672f18o" x="123.33567" y="113.501"/><use xlink:href="#dd672f18p" x="130.00267" y="113.501"/><use xlink:href="#dd672f18l" x="136.66967" y="113.501"/><use xlink:href="#dd672f18q" x="143.33667" y="113.501"/><use xlink:href="#dd672f18r" x="150.00367" y="113.501"/><use xlink:href="#dd672f18s" x="156.67067" y="113.501"/><use xlink:href="#dd672f18t" x="163.33767" y="113.501"/><use xlink:href="#dd672f18o" x="170.00467" y="113.501"/><use xlink:href="#dd672f18u" x="176.67167" y="113.501"/><use xlink:href="#dd672f18n" x="183.33867" y="113.501"/><use xlink:href="#dd672f18v" x="190.00567" y="113.501"/><use xlink:href="#dd672f18w" x="196.67267" y="113.501"/><use xlink:href="#dd672f18x" x="203.33967" y="113.501"/><use xlink:href="#dd672f18q" x="210.00667" y="113.501"/><use xlink:href="#dd672f18l" x="216.67367" y="113.501"/></g><use xlink:href="#dd672f18y" x="71.64" y="189.0835"/><use xlink:href="#dd672f18z" x="103.608" y="189.0835"/><use xlink:href="#dd672f18A" x="115.56" y="189.0835"/><use xlink:href="#dd672f18B" x="134.088" y="189.0835"/><use xlink:href="#dd672f18C" x="154.584" y="189.0835"/><use xlink:href="#dd672f18D" x="183.96" y="189.0835"/><use xlink:href="#dd672f18E" x="216.552" y="189.0835"/><g fill-opacity=".33"><use xlink:href="#dd672f18h" x="73.33333" y="231.334"/><use xlink:href="#dd672f18i" x="80.00033" y="231.334"/><use xlink:href="#dd672f18j" x="86.66733" y="231.334"/><use xlink:href="#dd672f18k" x="93.33433" y="231.334"/><use xlink:href="#dd672f18l" x="100.00133" y="231.334"/><use xlink:href="#dd672f18m" x="106.66833" y="231.334"/><use xlink:href="#dd672f18n" x="113.33533" y="231.334"/><use xlink:href="#dd672f18o" x="120.00233" y="231.334"/><use xlink:href="#dd672f18p" x="126.66933" y="231.334"/><use xlink:href="#dd672f18l" x="133.33633" y="231.334"/><use xlink:href="#dd672f18q" x="140.00333" y="231.334"/><use xlink:href="#dd672f18r" x="146.67033" y="231.334"/><use xlink:href="#dd672f18s" x="153.33733" y="231.334"/><use xlink:href="#dd672f18t" x="160.00433" y="231.334"/><use xlink:href="#dd672f18o" x="166.67133" y="231.334"/><use xlink:href="#dd672f18F" x="173.33833" y="231.334"/><use xlink:href="#dd672f18n" x="180.00533" y="231.334"/><use xlink:href="#dd672f18G" x="186.67233" y="231.334"/><use xlink:href="#dd672f18s" x="193.33933" y="231.334"/><use xlink:href="#dd672f18r" x="200.00633" y="231.334"/><use xlink:href="#dd672f18k" x="206.67333" y="231.334"/><use xlink:href="#dd672f18x" x="213.34033" y="231.334"/><use xlink:href="#dd672f18H" x="220.00733" y="231.334"/></g><use xlink:href="#dd672f18I" x="68.064" y="306.9165"/><use xlink:href="#dd672f18J" x="100.752" y="306.9165"/><use xlink:href="#dd672f18K" x="113.28" y="306.9165"/><g><use xlink:href="#dd672f18L" x="133.296" y="306.9165"/><use xlink:href="#dd672f18M" x="155.04" y="306.9165"/><use xlink:href="#dd672f18N" x="185.232" y="306.9165"/></g><g><use xlink:href="#dd672f18O" x="219.216" y="306.9165"/></g><g fill-opacity=".33"><use xlink:href="#dd672f18h" x="86.66667" y="349.167"/><use xlink:href="#dd672f18i" x="93.33367" y="349.167"/><use xlink:href="#dd672f18j" x="100.00067" y="349.167"/><use xlink:href="#dd672f18k" x="106.66767" y="349.167"/><use xlink:href="#dd672f18l" x="113.33467" y="349.167"/><use xlink:href="#dd672f18m" x="120.00167" y="349.167"/><use xlink:href="#dd672f18n" x="126.66867" y="349.167"/><use xlink:href="#dd672f18o" x="133.33567" y="349.167"/><use xlink:href="#dd672f18p" x="140.00267" y="349.167"/><use xlink:href="#dd672f18l" x="146.66967" y="349.167"/><use xlink:href="#dd672f18q" x="153.33667" y="349.167"/><use xlink:href="#dd672f18r" x="160.00367" y="349.167"/><use xlink:href="#dd672f18s" x="166.67067" y="349.167"/><use xlink:href="#dd672f18t" x="173.33767" y="349.167"/><use xlink:href="#dd672f18o" x="180.00467" y="349.167"/><use xlink:href="#dd672f18P" x="186.67167" y="349.167"/><use xlink:href="#dd672f18k" x="193.33867" y="349.167"/><use xlink:href="#dd672f18x" x="200.00567" y="349.167"/><use xlink:href="#dd672f18H" x="206.67267" y="349.167"/></g><g><use xlink:href="#dd672f18Q" x="64.44" y="424.7495"/><use xlink:href="#dd672f18R" x="97.848" y="424.7495"/></g><g><use xlink:href="#dd672f18S" x="110.952" y="424.7495"/></g><g><use xlink:href="#dd672f18T" x="132.408" y="424.7495"/><use xlink:href="#dd672f18U" x="155.448" y="424.7495"/><use xlink:href="#dd672f18V" x="186.456" y="424.7495"/><use xlink:href="#dd672f18W" x="221.928" y="424.7495"/></g><g fill-opacity=".33"><use xlink:href="#dd672f18h" x="70" y="467"/><use xlink:href="#dd672f18i" x="76.667" y="467"/><use xlink:href="#dd672f18j" x="83.334" y="467"/><use xlink:href="#dd672f18k" x="90.001" y="467"/><use xlink:href="#dd672f18l" x="96.668" y="467"/><use xlink:href="#dd672f18m" x="103.335" y="467"/><use xlink:href="#dd672f18n" x="110.002" y="467"/><use xlink:href="#dd672f18o" x="116.669" y="467"/><use xlink:href="#dd672f18p" x="123.336" y="467"/><use xlink:href="#dd672f18l" x="130.003" y="467"/><use xlink:href="#dd672f18q" x="136.67" y="467"/><use xlink:href="#dd672f18r" x="143.337" y="467"/><use xlink:href="#dd672f18s" x="150.004" y="467"/><use xlink:href="#dd672f18t" x="156.671" y="467"/><use xlink:href="#dd672f18o" x="163.338" y="467"/><use xlink:href="#dd672f18h" x="170.005" y="467"/><use xlink:href="#dd672f18X" x="176.672" y="467"/><use xlink:href="#dd672f18m" x="183.339" y="467"/><use xlink:href="#dd672f18l" x="190.006" y="467"/><use xlink:href="#dd672f18q" x="196.673" y="467"/><use xlink:href="#dd672f18r" x="203.34" y="467"/><use xlink:href="#dd672f18k" x="210.007" y="467"/><use xlink:href="#dd672f18x" x="216.674" y="467"/><use xlink:href="#dd672f18H" x="223.341" y="467"/></g></svg>