<?xml version='1.0' encoding='UTF-8'?>
<svg xmlns="http://www.w3.org/2000/svg" xmlns:xlink="http://www.w3.org/1999/xlink" width="310px" height="280px" viewBox="0 0 310 280" x="0px" y="0px" enable-background="new 0 0 310 280"><defs><symbol overflow="visible" id="a15590c6a"><path d="M39.95 1.38l2.11-7.86c-6.6 0-10.5-.96-13.33-.96-4.43 0-6.71 2.35-6.71 5.58 0 .95.25 1.86.42 2.58 6.36 1.92 12.9 5.22 12.9 8.22 0 2.87-6.12 5.22-13.8 5.22-6.77 0-15.35-2.16-15.35-12 0-1.44.3-3.79.72-7.14a2.31 2.31 0 00-1.27-.43c-.72 0-1.2.55-1.5 1.14C2.88-1.73 1.98 3.36 1.98 6.6c0 9.85 6.6 15 16.86 15 2.58 0 7.97-.4 12.79-2.87 5.68-2.94 7.56-7.08 7.56-9.9 0-3.12-1.88-7.02-8.4-10.09 3.12 1.04 6.29 2.65 9.16 2.65zm-20.58 33.3c1.4 0 2.65-1.13 3.68-3.24.89 1.37 2.39 2.76 3.65 2.76 1.57 0 2.94-1.43 3.96-3.9-1.61-1.14-3-2.35-4.44-4.02l-3.36 4.2a26.17 26.17 0 01-4.08-3.71l-3.55 4.5c.79 1.5 2.64 3.42 4.14 3.42zm0 0"/></symbol><symbol overflow="visible" id="a15590c6b"><path d="M5.05-29.58c1.37 0 2.68-1.2 3.65-3.23.9 1.31 2.46 2.69 3.66 2.69 1.56 0 3-1.44 4.02-3.9-1.68-1.07-3-2.34-4.5-4.03l-3.3 4.2a28.03 28.03 0 01-4.14-3.65L.95-33.06c.74 1.56 2.64 3.48 4.1 3.48zm5.93 19.2c0 2.16-2.7 3.9-9.18 3.9-1.99 0-3.96 2.82-3.96 5.28 0 1.39.66 2.58 2.16 2.58 3.48 0 7.08-1.08 9.6-2.94 3.42-2.35 5.53-6.78 5.53-11.94 0-2.16-.2-5.22-1.15-7.5-.71-1.73-1.92-2.94-3.71-2.94-1.75 0-3.13 1.08-3.97 1.86 3.3 6.6 4.68 10.02 4.68 11.7zm0 0"/></symbol><symbol overflow="visible" id="a15590c6c"><path d="M19.38-6.13c0-4.18-1.15-8.57-2.82-11.57-1.2-2.4-2.83-3.9-4.98-3.9-2.03 0-3.72 1.8-4.56 3.05 5.7 6.55 8.4 10.57 8.4 14.05 0 6.36-5.76 12.3-18.12 17.22a8.69 8.69 0 007.14 4.01c7.92 0 14.93-12.42 14.93-22.86zm0 0"/></symbol><symbol overflow="visible" id="a15590c6d"><path d="M27.66-6.48h-4.74c-.84-7.97-4.56-15.36-10.33-15.36-5.28 0-9.36 6.48-9.36 12.78 0 6.72 3.43 10.44 10.04 10.44h5.28c-.32.78-.61 1.56-1.1 2.4C14.7 9.23 8.58 12.66-1.2 16.31c1.32 1.92 3.9 4.03 7.26 4.03 3.96 0 7.25-2.28 9.9-5.4 2.88-3.17 5.59-8.46 6.66-13.56h3zm-14.88 0c-3.55 0-5.87-.83-5.87-3.6a4.32 4.32 0 014.18-4.37c2.9 0 6.2 3.4 7.46 7.97zm0 0"/></symbol><symbol overflow="visible" id="a15590c6e"><path d="M1.98-6.48c-1.8 0-4.14 2.04-4.14 5.4 0 1.63.96 2.46 2.1 2.46 2.47 0 5.22-.11 8.28-1.02 4.33-1.27 7.56-4.44 7.56-9.48v-.3c6.53 7.26 13.08 10.8 20.94 10.8l1.98-7.86c-11.58 0-19.14-3.96-30.78-23.1 4.27-3.06 13.67-5.64 23.1-5.64.6-.84 1.26-2.1 1.26-3.6 0-1.8-1.14-3.84-4.2-3.84-4.14 0-13.31 3.11-19.8 6.85-4.33 2.33-5.76 4.31-5.76 6.17 0 .78.25 1.5.67 2.34 2.26 3.78 4.44 7.2 6.53 10.2l-.06.05c1.86 2.64 2.64 4.5 2.64 6.2 0 4.2-5.82 4.37-10.32 4.37zm0 0"/></symbol><symbol overflow="visible" id="a15590c6f"><path d="M2.05-6.48C.23-6.48-2.1-4.02-2.1-.95-2.1.3-1.38 1.38 0 1.38c3.66 0 7.14-1.68 9.55-4.68 1.07 2.94 3.1 4.67 5.93 4.67 3.07 0 5.52-2.09 7.25-4.85 1.14 3.18 3.61 4.86 6.36 4.86a8.4 8.4 0 006.13-2.75c2.76-2.9 3.9-7.4 3.9-11.29 0-1.56-.18-3.65-.71-5.21-.61-1.75-1.63-2.77-3.2-2.77-1.5 0-2.8 1.08-3.59 1.69 2.4 5.1 3.43 7.5 3.43 9.17 0 1.8-1.82 3.3-4.4 3.3-2.7 0-4.5-1.8-5.34-5.04l-.95-3.71c-.36-.13-.72-.25-.95-.25-.72 0-1.2.3-1.5.78-.36.6-.36 1.43-.36 2.57 0 4.15-2.77 5.65-4.86 5.65-2.24 0-3.55-1.57-4.2-4.08l-.72-2.88c-.25-.12-.61-.25-1.08-.25-1.1 0-1.69.78-1.69 2.24 0 2.93-2.28 4.97-6.95 4.97zm0 0"/></symbol><symbol overflow="visible" id="a15590c6g"><path d="M6.48 1.8c1.38 0 2.88-.72 3.66-3.78 1.02-4.2 1.31-11.33 1.31-19.86 0-3.36-.6-13.93-1.86-18.18-.53-1.68-1.54-2.7-3.17-2.7-1.26 0-2.64.6-4.14 2.58 3.24 13.08 4.2 23.1 4.2 41.94zm6.54 17.15c2.34-.23 2.64-1.6 2.64-2.39 0-.78-.43-1.68-.85-2.22-1.01 0-3.36.3-5.81.66-1.63.13-4.27-.23-4.27-2.28 0-1.44 1.33-2.1 2.41-2.1 1.74 0 3.17.72 4.14 1.32.9-.66 1.27-1.5 1.27-2.4 0-1.56-1.4-3.6-4.57-3.6-3.36 0-6.12 3.18-6.12 6.42 0 2.4 1.69 4.14 2.51 4.86-3.3 1.44-4.25 2.94-4.25 3.84 0 .72.6 1.32 1.02 1.57 1.27-1.08 3.55-2.77 11.88-3.68zm0 0"/></symbol><symbol overflow="visible" id="a15590c6h"><path d="M7.1-8.1H1.32V0h5.8v-.95H2.47v-2.72h3.87v-.9H2.47v-2.59H7.1zm0 0"/></symbol><symbol overflow="visible" id="a15590c6i"><path d="M4.02.19c1.7 0 2.65-.72 2.65-1.88 0-1.06-.65-1.45-1.76-1.67L3.6-3.6c-.81-.16-1.03-.37-1.03-.87 0-.6.45-.88 1.4-.88 1 0 1.43.31 1.52.95l1.1-.06c-.16-1.2-.97-1.75-2.63-1.75-1.61 0-2.5.63-2.5 1.8 0 .97.53 1.47 1.81 1.72l1.25.23c.67.14 1.03.3 1.03.88 0 .62-.53.93-1.53.93-1.16 0-1.62-.32-1.7-1.04l-1.1.07C1.3-.43 2.17.2 4.02.2zm0 0"/></symbol><symbol overflow="visible" id="a15590c6j"><path d="M6.92-6.02H5.55L2.78-3.45H2.7v-5.13H1.56V0H2.7v-2.78h.08L5.64 0h1.5L3.88-3.22zm0 0"/></symbol><symbol overflow="visible" id="a15590c6k"><path d="M4 .17c1.95 0 3-1.14 3-3.19 0-2.03-1.05-3.17-3-3.17S1-5.05 1-3.02C1-.97 2.05.18 4 .18zm0-.92c-1.28 0-1.83-.72-1.83-2.27 0-1.53.55-2.25 1.83-2.25s1.83.72 1.83 2.25C5.83-1.47 5.28-.75 4-.75zm0 0"/></symbol><symbol overflow="visible" id="a15590c6l"><path d="M6.1-6.19c-1.12 0-1.9.52-2.3 1.57h-.08l-.11-1.4H1.27v.91h1.32v4.19H1.14V0H5.9v-.92H3.73v-1.75c0-1.64.7-2.46 2.2-2.46.48 0 .91.08 1.32.2l.17-1.05c-.39-.13-.83-.2-1.33-.2zm0 0"/></symbol><symbol overflow="visible" id="a15590c6m"><path d="M6.63-5.1v-.92H3.8v-1.87h-.98l-.17 1.87H.9v.91h1.75v2.88c0 1.57.57 2.35 2.21 2.35.65 0 1.29-.12 1.79-.3l-.18-.9a3.9 3.9 0 01-1.34.22c-.97 0-1.33-.44-1.33-1.47V-5.1zm0 0"/></symbol><symbol overflow="visible" id="a15590c6n"><path d="M6.9-2.69v-.5C6.9-5.13 5.82-6.2 4-6.2 2.17-6.2 1.06-5 1.06-2.98c0 2.06 1.08 3.15 3 3.15C5.75.17 6.52-.5 6.8-1.64l-1.08-.13c-.24.75-.7 1.07-1.64 1.07-1.11 0-1.81-.64-1.88-1.99zM4-5.33c1.14 0 1.75.61 1.8 1.88H2.22c.1-1.28.7-1.88 1.78-1.88zm0 0"/></symbol><symbol overflow="visible" id="a15590c6p"><path d="M7.4 0L4.79-8.1H3.23L.6 0h1.18l.51-1.77h3.35L6.19 0zM3.95-7.13h.1l1.32 4.47h-2.8zm0 0"/></symbol><symbol overflow="visible" id="a15590c6q"><path d="M3.4.17C4.51.17 5.2-.3 5.57-.97h.08l.12.97h.9v-4.05c0-1.48-.82-2.15-2.54-2.15-1.73 0-2.44.75-2.6 1.9l1.1.11c.13-.7.52-1.1 1.47-1.1 1.01 0 1.47.37 1.47 1.23v.42l-2.17.23c-1.49.18-2.08.82-2.08 1.86 0 1.13.76 1.72 2.06 1.72zm.29-.92c-.81 0-1.2-.33-1.2-.9 0-.52.32-.87 1.2-.96l1.89-.23v.48c0 .95-.75 1.61-1.9 1.61zm0 0"/></symbol><symbol overflow="visible" id="a15590c6r"><path d="M4.69.17c1.76 0 2.6-1.19 2.6-3.17 0-2-.84-3.19-2.6-3.19-1.1 0-1.8.49-2.14 1.2h-.08v-3.59H1.33V0h.97l.15-1.1h.07c.34.77.96 1.27 2.17 1.27zm-.4-.95C3-.78 2.45-1.75 2.45-3c0-1.28.56-2.23 1.86-2.23S6.1-4.52 6.1-3c0 1.48-.52 2.22-1.8 2.22zm0 0"/></symbol><symbol overflow="visible" id="a15590c6s"><path d="M4.3-6.97c.5 0 .86-.28.86-.81S4.8-8.6 4.3-8.6c-.53 0-.86.28-.86.8 0 .54.33.82.86.82zm.6.95H1.82v.91h1.92v4.19H1.56V0h5.38v-.92H4.89zm0 0"/></symbol><symbol overflow="visible" id="a15590c6t"><path d="M4.02.17c1.7 0 2.56-.78 2.7-2.12l-1.08-.13c-.12.85-.6 1.3-1.6 1.3C2.79-.78 2.2-1.55 2.2-3c0-1.48.58-2.23 1.85-2.23 1 0 1.47.42 1.6 1.3l1.07-.12c-.16-1.33-.99-2.14-2.7-2.14-1.88 0-2.97 1.17-2.97 3.19 0 2 1.1 3.17 2.97 3.17zm0 0"/></symbol></defs><use xlink:href="#a15590c6a" x="57.05" y="145"/><use xlink:href="#a15590c6b" x="97.01" y="145"/><use xlink:href="#a15590c6c" x="111.95" y="145"/><use xlink:href="#a15590c6d" x="135.11" y="145"/><use xlink:href="#a15590c6e" x="160.73" y="145"/><use xlink:href="#a15590c6f" x="197.45" y="145"/><g><use xlink:href="#a15590c6g" x="238.19" y="145"/></g><g fill-opacity=".33"><use xlink:href="#a15590c6h" x="99" y="230"/><use xlink:href="#a15590c6i" x="107.0004" y="230"/><use xlink:href="#a15590c6j" x="115.0008" y="230"/><use xlink:href="#a15590c6k" x="123.0012" y="230"/><use xlink:href="#a15590c6l" x="131.0016" y="230"/><use xlink:href="#a15590c6m" x="139.002" y="230"/><use xlink:href="#a15590c6n" x="147.0024" y="230"/><use xlink:href="#a15590c6o" x="155.0028" y="230"/><use xlink:href="#a15590c6p" x="163.0032" y="230"/><use xlink:href="#a15590c6l" x="171.0036" y="230"/><use xlink:href="#a15590c6q" x="179.004" y="230"/><use xlink:href="#a15590c6r" x="187.0044" y="230"/><use xlink:href="#a15590c6s" x="195.0048" y="230"/><use xlink:href="#a15590c6t" x="203.0052" y="230"/></g></svg>