<?xml version='1.0' encoding='UTF-8'?>
<svg xmlns="http://www.w3.org/2000/svg" xmlns:xlink="http://www.w3.org/1999/xlink" width="600px" height="300px" viewBox="0 0 600 300" x="0px" y="0px" enable-background="new 0 0 600 300"><defs><symbol overflow="visible" id="6bc47795a"><path d="M31.52-40c0 1.44.56 2.56.56 2.56 2.64-5.2 17.6-14.48 30.97-16.33a3.83 3.83 0 001.03-2.64c-.08-1.28-.95-2.3-2.16-2.39-3.92-.48-30.4 8.64-30.4 18.8zM78.64-6.4C64.16-6.4 49.77-17.7 40-35.06c5.28-3.9 17.52-7.1 30.23-7.1A6.87 6.87 0 0071.36-46c0-2.16-1.36-4.4-4.95-4.4-4.49 0-13.93 2.8-21.36 6.71-6.17 2.97-10.9 6.56-10.9 9.61 0 .8.26 1.77.9 2.56a123 123 0 006.72 10.16c2.39 3.36 3.51 6.16 3.51 8.72 0 6.87-9.84 6.23-15.69 6.23-6.15 0-14.64 1.29-20.15 5.77-4.4 3.6-7.03 8.8-7.03 12.87 0 3.85 2.15 5.85 4.8 7.13 4.15 2 22 2.72 31.1 2.72 8.49 0 24.33-.56 29.85-2.31 3.76-1.2 4.72-4 4.72-7.13 0 0-21.75 1.52-33.83 1.52-8.74 0-29.46-.4-33.13-2.96.56-2.15 2.4-4.8 5.92-6.56 4.96-2.48 13.52-2.8 15.6-2.8 4.25 0 7.36-.25 11.51-1.28 5.61-1.44 10-4.97 10-11.51 0-.57-.08-1.2-.23-1.93 8.64 9.2 18 14.72 27.84 14.72zm0 0"/></symbol><symbol overflow="visible" id="6bc47795b"><path d="M9.6-37.52c1.84 0 3.53-1.35 4.96-4.89a32.54 32.54 0 01-5.76-5.03l-4.32 5.6c1.04 1.76 3.2 4.32 5.11 4.32zm4.56 25.44c0 3.03-4.08 5.67-12.4 5.67-2.48 0-4.4 3.54-4.4 5.46 0 1.67.95 2.8 2.64 2.8a23 23 0 0011.6-3.13c5.04-3.2 6.96-8.88 6.96-14.08 0-2.33-.25-7.12-1.68-10.33-.88-1.9-2.08-3.18-3.93-3.18-1.75 0-3.43.87-4.54 1.92 4.39 8.95 5.75 12.87 5.75 14.87zm0 0"/></symbol><symbol overflow="visible" id="6bc47795c"><path d="M13.36 22.4C18.8 17.53 23.05 8.89 23.28.32c1.52.97 3.36 1.53 5.77 1.53L31.2-6.4c-6.32 0-7.68-.54-12.32-5.9-1.52-1.69-2.57-1.85-3.36-1.85-1.52 0-2.64.96-4.47 3.36C16-5.69 19.2-2.16 19.2 1.84c0 6.96-8.97 14.4-23.2 20.8 2.31 2.8 5.69 4 8.56 4 3.52 0 6.4-2 8.8-4.23zm0 0"/></symbol><symbol overflow="visible" id="6bc47795d"><path d="M14.16-12.08c0 3.03-4.08 5.67-12.4 5.67-2.48 0-4.4 3.54-4.4 5.46 0 1.67.95 2.8 2.64 2.8a23 23 0 0011.6-3.13c5.04-3.2 6.96-8.88 6.96-14.08 0-2.33-.25-7.12-1.68-10.33-.88-1.9-2.08-3.18-3.93-3.18-1.75 0-3.43.87-4.54 1.92 4.39 8.95 5.75 12.87 5.75 14.87zm-.08 30.24c1.84 0 3.51-1.36 4.97-4.88a31.52 31.52 0 01-5.77-5.05l-4.33 5.61c1.05 1.75 3.2 4.32 5.13 4.32zm0 0"/></symbol><symbol overflow="visible" id="6bc47795f"><path d="M41.6-12.08c0 3.03-4.08 5.67-12.4 5.67h-.15C21.92-6.4 14.3-4.64 9.44-.64c-4.4 3.6-7.03 8.8-7.03 12.87 0 3.85 2.15 5.85 4.8 7.13 4.15 2 22 2.72 31.1 2.72 8.49 0 24.33-.56 29.85-2.31 3.76-1.2 4.72-4 4.72-7.13 0 0-21.75 1.52-33.83 1.52-8.74 0-29.46-.4-33.13-2.96.56-2.15 2.4-4.8 5.92-6.56 4.96-2.48 13.52-2.8 15.6-2.8a23.1 23.1 0 0011.6-3.12C44.09-4.48 46-10.16 46-15.36c0-2.33-.23-7.12-1.69-10.33-.87-1.9-2.08-3.18-3.9-3.18-1.77 0-3.46.87-4.57 1.92 4.4 8.95 5.75 12.87 5.75 14.87zm-5.52 45.52c1.6 0 3.44-1.13 4.4-4.24 1.11 1.6 3.11 3.52 5.04 3.52 1.6 0 3.53-1.2 4.56-4.72a18.22 18.22 0 01-6-4.4l-3.77 4.96c-1.83-.97-3.44-2.25-5.67-4.25l-3.92 5.13c1.05 1.43 3.36 4 5.36 4zm6.64 8.87c1.51 0 3.36-1.19 4.4-4.54a17.3 17.3 0 01-5.84-4.25l-3.76 4.96c.96 1.44 3.04 3.83 5.2 3.83zm0 0"/></symbol><symbol overflow="visible" id="6bc47795g"><path d="M15.36-25.36c-5.84 0-11.13 7.6-11.13 15.77C4.23-1.92 7.52 2 16 2c2.16 0 5.52-.56 7.92-1.05-.15 1.2-.48 2.4-.97 3.53-2.47 6.57-10.3 12.4-24.54 18.16 2.3 2.8 5.67 4 8.54 4 5.77 0 9.85-3.44 13.28-7.36 4.57-5.12 8.49-14.16 8.49-22.33 0-8.54-5.03-22.3-13.36-22.3zM8-11.2c0-3.2 2.56-6.16 5.69-6.16 3.67 0 8.08 5.13 9.75 10.8a32 32 0 01-7.67.87C11.84-5.69 8-6.95 8-11.2zm0 0"/></symbol><symbol overflow="visible" id="6bc47795h"><path d="M23.28-7.05c0-6.3-1.69-12.07-4.23-16.3-1.46-2.42-3.28-4-5.46-4-2 0-3.82 1.91-4.87 3.27 6.56 7.92 10.33 13.92 10.33 17.92 0 7.85-6.74 16.64-23.05 24 2.16 2.8 5.6 4 8.23 4 10.08 0 19.05-16.56 19.05-28.89zm0 0"/></symbol><symbol overflow="visible" id="6bc47795i"><path d="M3.83 0v-5.95H6.2v-.82H.45v.82h2.4V0zm0 0"/></symbol><symbol overflow="visible" id="6bc47795j"><path d="M5.75-2.23v-.43c0-1.6-.9-2.51-2.42-2.51S.87-4.16.87-2.48c0 1.71.91 2.62 2.5 2.62 1.43 0 2.07-.56 2.29-1.52l-.9-.09c-.18.61-.59.9-1.35.9-.94 0-1.52-.54-1.58-1.66zm-2.4-2.2c.93 0 1.43.5 1.48 1.55H1.84c.08-1.07.6-1.56 1.5-1.56zm0 0"/></symbol><symbol overflow="visible" id="6bc47795k"><path d="M1.83 0l1.42-2h.06l1.46 2H5.8L4-2.53l1.78-2.49H4.8L3.42-3.08h-.08l-1.4-1.94H.89l1.78 2.49L.84 0zm0 0"/></symbol><symbol overflow="visible" id="6bc47795l"><path d="M5.52-4.25v-.77H3.17v-1.56h-.81l-.14 1.56H.75v.77h1.47v2.4c0 1.3.48 1.94 1.84 1.94C4.6.1 5.14 0 5.55-.14L5.4-.91c-.32.13-.72.2-1.13.2-.8 0-1.1-.37-1.1-1.23v-2.31zm0 0"/></symbol><symbol overflow="visible" id="6bc47795m"><path d="M3.33-3.42c.47 0 .8-.27.8-.8 0-.51-.33-.8-.8-.8-.47 0-.8.29-.8.8 0 .53.33.8.8.8zm0 3.5c.47 0 .8-.27.8-.78 0-.53-.33-.82-.8-.82-.47 0-.8.29-.8.82 0 .51.33.78.8.78zm0 0"/></symbol><symbol overflow="visible" id="6bc47795v"><path d="M5.95-6.77H1.1V0h.99v-2.92H5.3v-.77H2.08v-2.26h3.87zm0 0"/></symbol><symbol overflow="visible" id="6bc47795w"><path d="M2.83.14c.94 0 1.5-.39 1.81-.95h.08l.1.81h.76v-3.38c0-1.23-.69-1.8-2.13-1.8-1.43 0-2.03.65-2.18 1.6l.93.1c.11-.6.44-.93 1.22-.93.85 0 1.22.32 1.22 1.04v.34l-1.81.2C1.6-2.7 1.1-2.17 1.1-1.28c0 .92.64 1.42 1.72 1.42zm.25-.77c-.67 0-1.02-.28-1.02-.74 0-.44.28-.72 1-.82l1.58-.19v.41c0 .8-.6 1.34-1.56 1.34zm0 0"/></symbol><symbol overflow="visible" id="6bc47795x"><path d="M2.73.14c.9 0 1.43-.45 1.74-1.08h.06l.13.94h.8v-5.02h-.94v2.7c0 .98-.57 1.62-1.46 1.62-.75 0-1.1-.4-1.1-1.22v-3.1h-.93v3.32c0 1.17.55 1.84 1.7 1.84zm0 0"/></symbol><symbol overflow="visible" id="6bc47795y"><path d="M5.08-5.16c-.94 0-1.58.43-1.9 1.3h-.09l-.07-1.16H1.05v.77h1.1v3.48H.96V0h3.96v-.77H3.1v-1.46c0-1.36.6-2.05 1.83-2.05.4 0 .76.08 1.1.17l.15-.87c-.33-.11-.7-.18-1.11-.18zm0 0"/></symbol><symbol overflow="visible" id="6bc47795z"><path d="M3.33.14c1.7 0 2.51-.86 2.51-2.69v-4.22h-.98v4.2c0 1.41-.47 1.9-1.53 1.9S1.8-1.16 1.8-2.57v-4.2H.8v4.22c0 1.83.81 2.7 2.52 2.7zm0 0"/></symbol><symbol overflow="visible" id="6bc47795A"><path d="M2.84.14C3.8.14 4.33-.26 4.6-.9h.07L4.8 0h.76v-7.14h-.95v2.95h-.08c-.28-.6-.86-.97-1.67-.97-1.48 0-2.27.99-2.27 2.64C.6-.84 1.36.14 2.84.14zm.22-.8c-.98 0-1.48-.59-1.48-1.84s.5-1.86 1.48-1.86c1.13 0 1.58.8 1.58 1.86S4.2-.66 3.06-.66zm0 0"/></symbol><symbol overflow="visible" id="6bc47795B"><path d="M3.34.14c1.43 0 2.13-.66 2.25-1.78l-.89-.1c-.1.7-.5 1.08-1.34 1.08-1.03 0-1.52-.64-1.52-1.84 0-1.23.47-1.86 1.52-1.86.84 0 1.23.36 1.34 1.08l.9-.1c-.13-1.09-.82-1.78-2.26-1.78-1.56 0-2.46.97-2.46 2.66 0 1.66.9 2.64 2.46 2.64zm0 0"/></symbol><symbol overflow="visible" id="6bc47795C"><path d="M3.33.14c1.62 0 2.5-.95 2.5-2.66 0-1.68-.88-2.64-2.5-2.64-1.63 0-2.5.96-2.5 2.64 0 1.7.87 2.66 2.5 2.66zm0-.77c-1.06 0-1.52-.6-1.52-1.89 0-1.28.46-1.87 1.52-1.87 1.08 0 1.53.6 1.53 1.87 0 1.29-.45 1.9-1.53 1.9zm0 0"/></symbol><symbol overflow="visible" id="6bc47795D"><path d="M2.16 0v-2.67c0-.99.59-1.63 1.46-1.63.74 0 1.07.38 1.07 1.22V0h.95v-3.31c0-1.2-.56-1.85-1.67-1.85-.92 0-1.49.46-1.77 1.08h-.06l-.12-.94H1.2V0zm0 0"/></symbol><symbol overflow="visible" id="6bc47795E"><path d="M3.92-7.14H1.36v.76h1.6v5.61H1.15V0H5.7v-.77H3.92zm0 0"/></symbol><symbol overflow="visible" id="6bc47795F"><path d="M3.36.16c1.4 0 2.2-.6 2.2-1.57 0-.89-.54-1.22-1.47-1.39L3-3c-.67-.14-.86-.33-.86-.73 0-.5.4-.74 1.17-.74.83 0 1.19.27 1.27.8l.9-.05c-.12-1-.8-1.47-2.17-1.47-1.34 0-2.1.53-2.1 1.5 0 .81.45 1.22 1.52 1.44l1.04.2c.56.11.87.24.87.72 0 .52-.45.78-1.28.78-.95 0-1.36-.28-1.42-.87l-.9.06C1.07-.36 1.8.16 3.35.16zm0 0"/></symbol><symbol overflow="visible" id="6bc47795G"><path d="M1.45-2.95c0 2.56 1.08 4.37 3.67 4.84l.11-.67C3.28.86 2.43-.75 2.43-2.95s.85-3.82 2.8-4.16l-.1-.69c-2.6.49-3.68 2.3-3.68 4.85zm0 0"/></symbol><symbol overflow="visible" id="6bc47795H"><path d="M3.16 2.03c1.67 0 2.4-.86 2.4-2.51v-4.54h-.81l-.13.91h-.06c-.26-.58-.8-1.05-1.73-1.05-1.42 0-2.24 1-2.24 2.52 0 1.6.75 2.56 2.2 2.56.94 0 1.5-.5 1.77-1.03h.05v.72c0 1.17-.42 1.67-1.45 1.67-.93 0-1.3-.34-1.41-.89L.8.5c.12.96.87 1.54 2.36 1.54zM3.06-.8c-.98 0-1.48-.57-1.48-1.82 0-1.13.5-1.75 1.48-1.75 1.06 0 1.58.76 1.58 1.75 0 .95-.56 1.82-1.58 1.82zm0 0"/></symbol><symbol overflow="visible" id="6bc47795I"><path d="M1.45-7.1c1.96.33 2.8 1.94 2.8 4.15 0 2.2-.84 3.8-2.8 4.17l.11.67c2.58-.47 3.67-2.28 3.67-4.84 0-2.55-1.09-4.36-3.67-4.85zm0 0"/></symbol><symbol overflow="visible" id="6bc47795o"><path d="M2.73-5.02L4.6-5.9v-.53l-1.86.88zm-.71 6.8h2.75l.06-.76H1.78c-.4 0-.69-.07-.69-.35C1.1.28 1.3 0 2 0H6v-.75h-.64l.01-.2c0-.66-.68-1.58-1.9-2.82l2.28-1.06v-.73L2.73-4.14v.69C4.03-2.27 4.7-1.48 4.7-.95c0 .1-.06.2-.4.2H2.1C1.04-.75.43-.25.43.73c0 1.05.94 1.05 1.58 1.05zm0 0"/></symbol><symbol overflow="visible" id="6bc47795p"><path d="M1.4-3.69l.38-.5-.64-.48-.39.5zM0 0h1c.8 0 1.08-.34 1.08-1.1v-.26L1.94-3l-.67.06.15 1.61.02.31c0 .27-.1.27-.52.27H0c-.3 0-.38.13-.38.36 0 .27.08.39.38.39zm0 0"/></symbol><symbol overflow="visible" id="6bc47795q"><path d="M.19 1.77c1.3 0 1.8-.65 1.92-1.8.17.03.34.03.47.03h.17v-.75h-.5c-.1 0-.1 0-.1-.1 0-.54-.04-1.15-.1-1.84l-.67.06c.06.68.12 1.41.12 1.97 0 1.25-.33 1.7-1.5 1.7-.08 0-.14 0-.22-.02l.08.73.33.02zm0 0"/></symbol><symbol overflow="visible" id="6bc47795r"><path d="M0 0h1c.8 0 1.08-.34 1.08-1.1v-.26L1.94-3l-.67.06.15 1.61.02.31c0 .27-.1.27-.52.27H0c-.3 0-.38.13-.38.36 0 .27.08.39.38.39zm.98 1.73l.38-.5-.64-.5-.38.52zm0 0"/></symbol><symbol overflow="visible" id="6bc47795s"><path d="M2.02 1.78h2.75l.06-.76H1.78c-.4 0-.69-.07-.69-.35C1.1.28 1.3 0 2 0h1.59c.8 0 1.1-.34 1.1-1.1 0-.07 0-.17-.02-.26L4.52-3l-.66.06a639.59 639.59 0 01.16 1.92c0 .27-.1.27-.52.27H2.1C1.04-.75.43-.25.43.73c0 1.05.94 1.05 1.58 1.05zm.76 1.52l.36-.47.6.47.35-.49-.6-.45-.35.45-.6-.45-.37.47zm.64.84l.35-.44-.58-.43-.33.45zm0 0"/></symbol><symbol overflow="visible" id="6bc47795t"><path d="M1.08 1.78c1.54 0 2.1-.95 2.1-2.56v-.2c0-1.07-.38-1.94-1.32-1.94-.92 0-1.42.75-1.42 1.64 0 .97.54 1.3 1.51 1.3.18 0 .36-.02.6-.04-.16.79-.75 1.05-1.53 1.05-.16 0-.33 0-.5-.03l.07.73c.16.04.33.05.49.05zm.89-2.5c-.61 0-.94-.12-.94-.6 0-.5.27-.85.75-.85.81 0 .83.95.81 1.33-.01.09-.01.09-.1.1l-.52.02zm0 0"/></symbol><symbol overflow="visible" id="6bc47795u"><path d="M-.14 1.75l.33.02c1.56 0 1.95-.94 1.95-2.58 0-.55-.03-1.17-.1-1.88l-.67.06c.07.68.13 1.41.13 1.97 0 1.25-.33 1.7-1.5 1.7-.08 0-.14 0-.22-.02zm0 0"/></symbol></defs><g fill="#515151"><use xlink:href="#6bc47795a" x="153.84" y="154"/><use xlink:href="#6bc47795b" x="230.4" y="154"/></g><g fill="#515151"><use xlink:href="#6bc47795c" x="246.96" y="154"/><use xlink:href="#6bc47795d" x="276" y="154"/><use xlink:href="#6bc47795e" x="298.16" y="154"/></g><g fill="#fff"><use xlink:href="#6bc47795f" x="316.56" y="154"/><use xlink:href="#6bc47795e" x="366.16" y="154"/><use xlink:href="#6bc47795g" x="384.56" y="154"/></g><use xlink:href="#6bc47795h" x="419.28" y="154" fill="#515151"/><g fill="#fff"><use xlink:href="#6bc47795i" x="260.8778" y="252"/><use xlink:href="#6bc47795j" x="267.5448" y="252"/><use xlink:href="#6bc47795k" x="274.2118" y="252"/><use xlink:href="#6bc47795l" x="280.8788" y="252"/><use xlink:href="#6bc47795m" x="287.5458" y="252"/><use xlink:href="#6bc47795n" x="294.2128" y="252"/></g><g fill="#fff"><use xlink:href="#6bc47795o" x="300.8778" y="252"/><use xlink:href="#6bc47795p" x="306.8778" y="252"/></g><use xlink:href="#6bc47795q" x="309.0928" y="252" fill="#fff"/><use xlink:href="#6bc47795r" x="311.8488" y="252" fill="#fff"/><use xlink:href="#6bc47795s" x="321.0444" y="252" fill="#fff"/><g fill="#fff"><use xlink:href="#6bc47795t" x="332.8259" y="252"/><use xlink:href="#6bc47795u" x="336.5299" y="252"/></g><g fill="#fff"><use xlink:href="#6bc47795v" x="133.3333" y="266"/><use xlink:href="#6bc47795j" x="140.0003" y="266"/><use xlink:href="#6bc47795w" x="146.6673" y="266"/><use xlink:href="#6bc47795l" x="153.3343" y="266"/><use xlink:href="#6bc47795x" x="160.0013" y="266"/><use xlink:href="#6bc47795y" x="166.6683" y="266"/><use xlink:href="#6bc47795j" x="173.3353" y="266"/><use xlink:href="#6bc47795m" x="180.0023" y="266"/><use xlink:href="#6bc47795n" x="186.6693" y="266"/><use xlink:href="#6bc47795z" x="193.3363" y="266"/><use xlink:href="#6bc47795y" x="200.0033" y="266"/><use xlink:href="#6bc47795A" x="206.6703" y="266"/><use xlink:href="#6bc47795x" x="213.3373" y="266"/><use xlink:href="#6bc47795n" x="220.0043" y="266"/><use xlink:href="#6bc47795B" x="226.6713" y="266"/><use xlink:href="#6bc47795C" x="233.3383" y="266"/><use xlink:href="#6bc47795D" x="240.0053" y="266"/><use xlink:href="#6bc47795l" x="246.6723" y="266"/><use xlink:href="#6bc47795j" x="253.3393" y="266"/><use xlink:href="#6bc47795k" x="260.0063" y="266"/><use xlink:href="#6bc47795l" x="266.6733" y="266"/><use xlink:href="#6bc47795x" x="273.3403" y="266"/><use xlink:href="#6bc47795w" x="280.0073" y="266"/><use xlink:href="#6bc47795E" x="286.6743" y="266"/><use xlink:href="#6bc47795n" x="293.3413" y="266"/><use xlink:href="#6bc47795w" x="300.0083" y="266"/><use xlink:href="#6bc47795E" x="306.6753" y="266"/><use xlink:href="#6bc47795l" x="313.3423" y="266"/><use xlink:href="#6bc47795j" x="320.0093" y="266"/><use xlink:href="#6bc47795y" x="326.6763" y="266"/><use xlink:href="#6bc47795D" x="333.3433" y="266"/><use xlink:href="#6bc47795w" x="340.0103" y="266"/><use xlink:href="#6bc47795l" x="346.6773" y="266"/><use xlink:href="#6bc47795j" x="353.3443" y="266"/><use xlink:href="#6bc47795F" x="360.0113" y="266"/><use xlink:href="#6bc47795n" x="366.6783" y="266"/><use xlink:href="#6bc47795G" x="373.3453" y="266"/><use xlink:href="#6bc47795F" x="380.0123" y="266"/><use xlink:href="#6bc47795j" x="386.6793" y="266"/><use xlink:href="#6bc47795l" x="393.3463" y="266"/><use xlink:href="#6bc47795n" x="400.0133" y="266"/><use xlink:href="#6bc47795E" x="406.6803" y="266"/><use xlink:href="#6bc47795w" x="413.3473" y="266"/><use xlink:href="#6bc47795D" x="420.0143" y="266"/><use xlink:href="#6bc47795H" x="426.6813" y="266"/><use xlink:href="#6bc47795x" x="433.3483" y="266"/><use xlink:href="#6bc47795w" x="440.0153" y="266"/><use xlink:href="#6bc47795H" x="446.6823" y="266"/><use xlink:href="#6bc47795j" x="453.3493" y="266"/><use xlink:href="#6bc47795I" x="460.0163" y="266"/></g></svg>