<?xml version='1.0' encoding='UTF-8'?>
<svg xmlns="http://www.w3.org/2000/svg" xmlns:xlink="http://www.w3.org/1999/xlink" width="600px" height="300px" viewBox="0 0 600 300" x="0px" y="0px" enable-background="new 0 0 600 300"><defs><symbol overflow="visible" id="0413b4d8a"><path d="M22-23.92c1.84 0 3.52-1.36 4.95-4.88a31.98 31.98 0 01-5.75-5.04l-4.32 5.6c1.04 1.76 3.2 4.32 5.12 4.32zM46.72 1.84l2.16-8.25c-5.6 0-7.76-1.75-10.8-5.9-1.13-1.53-2.08-1.85-3.03-1.85-1.7 0-3.2 1.52-4.49 3.36 4.57 7.44 7.85 13.2 7.85 17.28 0 6.8-7.28 10.8-16.82 10.8-7.36 0-14.07-4.4-14.07-15.44 0-2.15.17-3.36.71-7.84-.39-.23-.64-.48-1.28-.48-1.9 0-4.15 8.07-4.15 13.76 0 9.36 4.56 18.31 16.25 18.31 5.82 0 14.47-2.07 19.67-9.03A21.43 21.43 0 0042.48.88c1.2.64 2.65.96 4.24.96zm0 0"/></symbol><symbol overflow="visible" id="0413b4d8b"><path d="M8.88 16.95A4.6 4.6 0 0010 14.23c0-1.36-1.05-2.54-3.13-2.54-1.59 0-7.03.87-12.23 2.31-3.51.95-4.48 2.48-4.48 4.16 0 1.28.56 2.56.56 2.56C-5.2 18 4.87 16.95 8.88 16.95zm0 0"/></symbol><symbol overflow="visible" id="0413b4d8c"><path d="M2.08-6.4c-2.16 0-4.72 2.09-4.72 5.53 0 1.59 1.12 2.71 2.56 2.71 4.24 0 7.44-.25 11.6-1.28 5.6-1.44 10-4.97 10-11.51 0-.49-.08-.97-.16-1.53C29.69-3.2 38.3 1.84 47.59 1.84l2.1-8.25c-14 0-23.92-6.39-40.1-34.07 5.77-4.4 19.2-7.93 30.82-7.93a6.78 6.78 0 001.1-3.82c0-2.18-1.35-4.41-4.95-4.41-5.69 0-19.84 4.8-28.48 10-3.03 1.84-4.72 3.44-4.72 5.84 0 .88.23 1.75.8 2.88 3.36 6.15 6.8 11.69 10.15 16.56 2.4 3.36 3.53 6.16 3.53 8.72 0 6.87-9.92 6.23-15.76 6.23zm0 0"/></symbol><symbol overflow="visible" id="0413b4d8d"><path d="M-1.6-58.64c1.04 0 2.48-.31 3.12-1.52 1.04-1.84 1.04-5.43 1.04-8 0-1.68-.56-6.4-1.44-8.56-.4-.72-1.12-1.51-2.17-1.51-1.1 0-2.08.64-2.72 1.03 1.93 6.72 2.18 9.28 2.18 18.56zm0 0"/></symbol><symbol overflow="visible" id="0413b4d8e"><path d="M7.28-62.08c.72-.97 1.13-1.84 1.13-2.72 0-1.36-1.05-2.56-3.13-2.56-1.6 0-7.05.88-12.23 2.31-3.53.97-4.49 2.49-4.49 4.17 0 1.29.56 2.57.56 2.57 4.08-2.74 14.16-3.77 18.16-3.77zm0 0"/></symbol><symbol overflow="visible" id="0413b4d8f"><path d="M14.8-21.05c0-5.6-1.6-27.26-2.8-33.75-.4-2.08-1.69-3.12-3.28-3.12-1.36 0-2.88.72-4.16 1.69 2.8 13.43 5.36 27.92 5.36 38.07C9.92-10.3 7.77-6.4 2.16-6.4c-2.32 0-4.72 3.36-4.72 5.54 0 1.28.48 2.71 2.56 2.71 3.36 0 7.92-.64 11.13-4.89 3.82-5.03 3.67-11.6 3.67-18zm0 0"/></symbol><symbol overflow="visible" id="0413b4d8g"><path d="M15.36-25.36c-5.84 0-11.13 7.6-11.13 15.77C4.23-1.92 7.52 2 16 2c2.16 0 5.52-.56 7.92-1.05-.15 1.2-.48 2.4-.97 3.53-2.47 6.57-10.3 12.4-24.54 18.16 2.3 2.8 5.67 4 8.54 4 5.77 0 9.85-3.44 13.28-7.36 4.57-5.12 8.49-14.16 8.49-22.33 0-8.54-5.03-22.3-13.36-22.3zM8-11.2c0-3.2 2.56-6.16 5.69-6.16 3.67 0 8.08 5.13 9.75 10.8a32 32 0 01-7.67.87C11.84-5.69 8-6.95 8-11.2zm0 0"/></symbol><symbol overflow="visible" id="0413b4d8i"><path d="M3.13-85.44s-.49.16-1.44.24c.47-1.36.8-2.88.8-4.4 0-4.24-2.9-7.6-6.65-7.6-3.76 0-6.64 3.2-6.64 7.12 0 3.2 1.85 6 4.32 7.67-.88.33-1.83.64-2.96.97-3.51.96-7.6 1.03-7.6 1.03 0 .82 1.27 4.49 7.04 4.49 3.13 0 6.4-1.77 8.8-4.49h.64c3.2 0 4.87-1.36 4.87-2.87 0-1.44-1.18-2.16-1.18-2.16zM-7.6-89.13c0-1.59 1.1-2.64 2.64-2.64 1.9 0 4.54 1.61 4.54 4.33 0 .88-.39 1.67-1.18 2.49h-.33c-3.28 0-5.67-1.92-5.67-4.17zm4.15 20.41c0 2.56-1.04 3.52-2.64 3.52-.97 0-3.51-.4-4.48-5.03-1.44 0-2.16.71-2.16 2.3 0 4.09 2.56 9.29 6.64 9.29 2.72 0 4.31-2.31 5.13-5.05A4.92 4.92 0 002.65-62c2.94 0 4.55-2.88 4.55-6.8 0-2.56-.8-5.04-2.25-5.04-.54 0-.87.32-.87.32.15 1.36.48 2.4.48 3.83 0 1.92-.97 2.56-2.08 2.56-1.2 0-2.48-1.35-3.28-4.15v-.16c0-.08-.07-.15-.07-.25-.49-1.36-1.13-2.15-2-2.15-.57 0-1.2.32-1.2.32.23 1.2.63 2.64.63 4.8zm0 0"/></symbol><symbol overflow="visible" id="0413b4d8j"><path d="M38.64-14.72c0-7.84-3.44-21.36-13.36-21.36-8.56 0-12.97 9.13-12.97 18.49 0 .95.1 1.75.25 2.39C7.05-13.13 3.2-7.84 3.2 4.23c0 8.08 2 21.77 4.16 27.85.87 2.4 1.6 3.2 2.8 3.2.89 0 1.68-.48 2.32-1.05-2.17-6.87-4.32-18.3-4.32-27.03 0-11.36 3.6-14.4 11.68-14.4 3.44 0 10.64 1.28 14 2.15 2.16-1.36 4.8-4.8 4.8-9.67zM19.6-16.23c-1.1 0-2.15.07-3.18.15.64-7.92 3.43-11.44 7.03-11.44 5.68 0 10.15 8.72 10.72 13.6-4.47-1.28-11.28-2.31-14.57-2.31zm0 0"/></symbol><symbol overflow="visible" id="0413b4d8k"><path d="M13.2-64.88c2.8-.4 3.11-1.84 3.11-2.64 0-.89-.47-1.92-1.1-2.64-1.37 0-3.21.16-7.21.88-2.08.33-6.31-.4-6.31-3.44 0-1.92 1.6-2.87 2.95-2.87 2.4 0 4.31 1.18 5.6 2.15a3.23 3.23 0 001.68-2.87c0-2-1.84-4.49-5.76-4.49-3.52 0-7.6 3.92-7.6 8.32 0 3.04 2.16 5.43 3.2 6.32C-2.4-64.23-4-62.23-4-61.05c0 .74.64 1.53 1.2 1.85 1.67-1.44 4.72-3.85 16-5.67zM8.16 1.84c1.84 0 3.2-1.28 4-4.48 1.53-5.92 1.6-16.72 1.6-26 0-3.67-.8-18.16-2.4-24.48-.56-2.24-1.92-3.44-3.52-3.44-1.04 0-2.64.4-4.64 3.36C7.6-33.36 8.16-22 8.16 1.84zm0 0"/></symbol><symbol overflow="visible" id="0413b4d8l"><path d="M36.4 1.84l2.16-8.25c-11.69 0-12.33-9.75-13.51-32.95a9.72 9.72 0 00-2.9-.56c-2.07 0-3.27 1.36-3.27 3.6 0 .4 0 .88.07 1.37C9.6-30.8 3.6-22.48 3.6-15.12c0 5.6 3.2 9.76 9.93 9.92 3.43.08 8.25-1.36 10.96-4.4C27.36-.94 30.8 1.85 36.41 1.85zm-28-20.07c0-4.41 5.04-8 11.68-9.85.56 2.8 1.28 6.08 2.08 9.67.25 1.29.56 2.41.8 3.54-2 .95-4.4 1.43-7.44 1.43-5.11 0-7.11-2.25-7.11-4.8zm0 0"/></symbol><symbol overflow="visible" id="0413b4d8m"><path d="M-4.72-76.64c1.03 0 2.49-.31 3.13-1.52C-.56-80-.56-83.59-.56-84.4c0-3.1-.49-5.67-1.36-7.28a2.58 2.58 0 00-2.24-1.36c-1.12 0-2.07.64-2.71 1.05 1.92 5.44 2.15 7.69 2.15 15.36zm1.28 7.92c0 2.56-1.04 3.52-2.64 3.52-.97 0-3.51-.4-4.48-5.03-1.44 0-2.16.71-2.16 2.3 0 4.09 2.56 9.29 6.64 9.29 2.72 0 4.31-2.31 5.13-5.05A4.92 4.92 0 002.65-62c2.94 0 4.55-2.88 4.55-6.8 0-2.56-.8-5.04-2.25-5.04-.54 0-.87.32-.87.32.15 1.36.48 2.4.48 3.83 0 1.92-.97 2.56-2.08 2.56-1.28 0-2.56-1.59-3.28-4.07-.4-1.2-1.04-1.85-1.92-1.85-.56 0-1.2.33-1.2.33.23.95.48 2.16.48 4zm0 0"/></symbol><symbol overflow="visible" id="0413b4d8n"><path d="M23.84 1.84l2.08-8.25C20.8-6.4 14.8-8.56 14.8-21.05c0-5.6-1.6-27.26-2.8-33.75-.4-2.08-1.69-3.12-3.28-3.12-1.36 0-2.88.72-4.16 1.69 2.8 13.43 5.36 27.92 5.36 38.07C9.92-10.3 7.77-6.4 2.16-6.4c-2.32 0-4.72 3.36-4.72 5.54 0 1.28.48 2.71 2.56 2.71 3.36 0 7.92-.64 11.13-4.89.8-1.03 1.43-2.08 1.92-3.1 1.36 4.63 5.18 8 10.8 8zm0 0"/></symbol><symbol overflow="visible" id="0413b4d8o"><path d="M8.16 1.84c1.84 0 3.2-1.28 4-4.48 1.53-5.92 1.6-16.72 1.6-26 0-3.67-.8-18.16-2.4-24.48-.56-2.24-1.92-3.44-3.52-3.44-1.04 0-2.64.4-4.64 3.36C7.6-33.36 8.16-22 8.16 1.84zm0 0"/></symbol><symbol overflow="visible" id="0413b4d8p"><path d="M3.83 0v-5.95H6.2v-.82H.45v.82h2.4V0zm0 0"/></symbol><symbol overflow="visible" id="0413b4d8q"><path d="M5.75-2.23v-.43c0-1.6-.9-2.51-2.42-2.51S.87-4.16.87-2.48c0 1.71.91 2.62 2.5 2.62 1.43 0 2.07-.56 2.29-1.52l-.9-.09c-.18.61-.59.9-1.35.9-.94 0-1.52-.54-1.58-1.66zm-2.4-2.2c.93 0 1.43.5 1.48 1.55H1.84c.08-1.07.6-1.56 1.5-1.56zm0 0"/></symbol><symbol overflow="visible" id="0413b4d8r"><path d="M1.83 0l1.42-2h.06l1.46 2H5.8L4-2.53l1.78-2.49H4.8L3.42-3.08h-.08l-1.4-1.94H.89l1.78 2.49L.84 0zm0 0"/></symbol><symbol overflow="visible" id="0413b4d8s"><path d="M5.52-4.25v-.77H3.17v-1.56h-.81l-.14 1.56H.75v.77h1.47v2.4c0 1.3.48 1.94 1.84 1.94C4.6.1 5.14 0 5.55-.14L5.4-.91c-.32.13-.72.2-1.13.2-.8 0-1.1-.37-1.1-1.23v-2.31zm0 0"/></symbol><symbol overflow="visible" id="0413b4d8t"><path d="M3.33-3.42c.47 0 .8-.27.8-.8 0-.51-.33-.8-.8-.8-.47 0-.8.29-.8.8 0 .53.33.8.8.8zm0 3.5c.47 0 .8-.27.8-.78 0-.53-.33-.82-.8-.82-.47 0-.8.29-.8.82 0 .51.33.78.8.78zm0 0"/></symbol><symbol overflow="visible" id="0413b4d8J"><path d="M5.95-6.77H1.1V0h.99v-2.92H5.3v-.77H2.08v-2.26h3.87zm0 0"/></symbol><symbol overflow="visible" id="0413b4d8K"><path d="M2.83.14c.94 0 1.5-.39 1.81-.95h.08l.1.81h.76v-3.38c0-1.23-.69-1.8-2.13-1.8-1.43 0-2.03.65-2.18 1.6l.93.1c.11-.6.44-.93 1.22-.93.85 0 1.22.32 1.22 1.04v.34l-1.81.2C1.6-2.7 1.1-2.17 1.1-1.28c0 .92.64 1.42 1.72 1.42zm.25-.77c-.67 0-1.02-.28-1.02-.74 0-.44.28-.72 1-.82l1.58-.19v.41c0 .8-.6 1.34-1.56 1.34zm0 0"/></symbol><symbol overflow="visible" id="0413b4d8L"><path d="M2.73.14c.9 0 1.43-.45 1.74-1.08h.06l.13.94h.8v-5.02h-.94v2.7c0 .98-.57 1.62-1.46 1.62-.75 0-1.1-.4-1.1-1.22v-3.1h-.93v3.32c0 1.17.55 1.84 1.7 1.84zm0 0"/></symbol><symbol overflow="visible" id="0413b4d8M"><path d="M5.08-5.16c-.94 0-1.58.43-1.9 1.3h-.09l-.07-1.16H1.05v.77h1.1v3.48H.96V0h3.96v-.77H3.1v-1.46c0-1.36.6-2.05 1.83-2.05.4 0 .76.08 1.1.17l.15-.87c-.33-.11-.7-.18-1.11-.18zm0 0"/></symbol><symbol overflow="visible" id="0413b4d8N"><path d="M6.17 0L3.98-6.77h-1.3L.5 0h.97l.44-1.47h2.78L5.16 0zM3.28-5.94h.08l1.1 3.74H2.15zm0 0"/></symbol><symbol overflow="visible" id="0413b4d8O"><path d="M3.9.14c1.48 0 2.18-.98 2.18-2.64 0-1.67-.7-2.66-2.17-2.66-.91 0-1.49.41-1.79 1h-.06v-2.98h-.95V0h.81l.11-.9h.06c.29.63.82 1.04 1.82 1.04zm-.32-.8c-1.08 0-1.55-.8-1.55-1.84 0-1.06.47-1.86 1.55-1.86 1.1 0 1.51.61 1.51 1.86S4.64-.66 3.58-.66zm0 0"/></symbol><symbol overflow="visible" id="0413b4d8P"><path d="M3.58-5.81c.42 0 .72-.22.72-.67 0-.44-.3-.68-.72-.68-.44 0-.72.24-.72.68 0 .45.28.67.72.67zm.5.8H1.52v.76h1.6v3.48h-1.8V0h4.46v-.77h-1.7zm0 0"/></symbol><symbol overflow="visible" id="0413b4d8Q"><path d="M3.34.14c1.43 0 2.13-.66 2.25-1.78l-.89-.1c-.1.7-.5 1.08-1.34 1.08-1.03 0-1.52-.64-1.52-1.84 0-1.23.47-1.86 1.52-1.86.84 0 1.23.36 1.34 1.08l.9-.1c-.13-1.09-.82-1.78-2.26-1.78-1.56 0-2.46.97-2.46 2.66 0 1.66.9 2.64 2.46 2.64zm0 0"/></symbol><symbol overflow="visible" id="0413b4d8R"><path d="M3.9 0l2-5.02h-.96L3.4-.94h-.07L1.8-5.02H.77L2.78 0zm0 0"/></symbol><symbol overflow="visible" id="0413b4d8S"><path d="M3.33.14c1.62 0 2.5-.95 2.5-2.66 0-1.68-.88-2.64-2.5-2.64-1.63 0-2.5.96-2.5 2.64 0 1.7.87 2.66 2.5 2.66zm0-.77c-1.06 0-1.52-.6-1.52-1.89 0-1.28.46-1.87 1.52-1.87 1.08 0 1.53.6 1.53 1.87 0 1.29-.45 1.9-1.53 1.9zm0 0"/></symbol><symbol overflow="visible" id="0413b4d8T"><path d="M3.92-7.14H1.36v.76h1.6v5.61H1.15V0H5.7v-.77H3.92zm0 0"/></symbol><symbol overflow="visible" id="0413b4d8U"><path d="M3.36.16c1.4 0 2.2-.6 2.2-1.57 0-.89-.54-1.22-1.47-1.39L3-3c-.67-.14-.86-.33-.86-.73 0-.5.4-.74 1.17-.74.83 0 1.19.27 1.27.8l.9-.05c-.12-1-.8-1.47-2.17-1.47-1.34 0-2.1.53-2.1 1.5 0 .81.45 1.22 1.52 1.44l1.04.2c.56.11.87.24.87.72 0 .52-.45.78-1.28.78-.95 0-1.36-.28-1.42-.87l-.9.06C1.07-.36 1.8.16 3.35.16zm0 0"/></symbol><symbol overflow="visible" id="0413b4d8V"><path d="M2.16 0v-2.67c0-.99.59-1.63 1.46-1.63.74 0 1.07.38 1.07 1.22V0h.95v-3.31c0-1.2-.56-1.85-1.67-1.85-.92 0-1.49.46-1.77 1.08h-.06l-.12-.94H1.2V0zm0 0"/></symbol><symbol overflow="visible" id="0413b4d8W"><path d="M1.63 0v-2.9c0-.8.15-1.4.71-1.4.41 0 .55.3.55.88V0h.95v-2.9c0-.8.18-1.4.72-1.4.4 0 .57.3.57.88V0h.95v-3.63c0-.92-.28-1.53-1.11-1.53-.63 0-.95.41-1.1.9h-.06c-.1-.52-.44-.9-1.08-.9-.6 0-.93.41-1.06.9H1.6l-.23-.76H.67V0zm0 0"/></symbol><symbol overflow="visible" id="0413b4d8X"><path d="M5.77-5.02H4.63L2.3-2.88h-.06v-4.26h-.94V0h.94v-2.31h.06L4.71 0h1.24L3.23-2.69zm0 0"/></symbol><symbol overflow="visible" id="0413b4d8v"><path d="M2.4-2.7l.37-.5-.65-.5-.39.51zm-.15 4.39c1.1 0 2.02-.46 2.1-1.7l.42.01h.17v-.75h-.52c-.06 0-.08 0-.1-.13l-.21-1.8-.67.06c.25 1.95.28 2.23.28 2.39C3.72.55 3.27.92 2.28.92 1.38.92 1.1.58 1.1-.09c0-.35.08-.8.2-1.33l-.65-.06c-.12.51-.2 1-.2 1.43C.44.98.89 1.7 2.25 1.7zm0 0"/></symbol><symbol overflow="visible" id="0413b4d8w"><path d="M.38 0l1.51-.13v-.42L.38-.42zm0 0"/></symbol><symbol overflow="visible" id="0413b4d8x"><path d="M0 0h3.42v-.75h-.65l.01-.2c0-.66-.67-1.58-1.9-2.82l2.28-1.06v-.73L.14-4.14v.69c1.3 1.18 1.97 1.97 1.97 2.5 0 .1-.05.2-.4.2H0c-.3 0-.38.13-.38.36 0 .27.08.39.38.39zm0 0"/></symbol><symbol overflow="visible" id="0413b4d8y"><path d="M.38-4.28l.35-.02v-.97H.38zm0 0"/></symbol><symbol overflow="visible" id="0413b4d8z"><path d="M.38-4.72l1.51-.12v-.43l-1.51.13zm0 0"/></symbol><symbol overflow="visible" id="0413b4d8A"><path d="M0 0h.44c1.04 0 1.23-.4 1.23-1.5v-4.06H1v4.23c0 .47 0 .58-.48.58H0c-.3 0-.38.13-.38.36 0 .27.08.39.38.39zm0 0"/></symbol><symbol overflow="visible" id="0413b4d8B"><path d="M1.08 1.78c1.54 0 2.1-.95 2.1-2.56v-.2c0-1.07-.38-1.94-1.32-1.94-.92 0-1.42.75-1.42 1.64 0 .97.54 1.3 1.51 1.3.18 0 .36-.02.6-.04-.16.79-.75 1.05-1.53 1.05-.16 0-.33 0-.5-.03l.07.73c.16.04.33.05.49.05zm.89-2.5c-.61 0-.94-.12-.94-.6 0-.5.27-.85.75-.85.81 0 .83.95.81 1.33-.01.09-.01.09-.1.1l-.52.02zm0 0"/></symbol><symbol overflow="visible" id="0413b4d8C"><path d="M.45-5.52l.85-.06c.47-.03.9-.19.9-.81 0-.38-.26-.69-.72-.69-.43 0-.68.3-.68.72 0 .11.01.25.07.4l-.42.02zM1.3-6a.62.62 0 01-.11-.33c0-.22.1-.36.31-.36.22 0 .31.16.31.35 0 .28-.23.32-.44.34zM.9-3.98c.2 0 .35-.07.47-.22.08.06.22.12.36.12.33 0 .6-.33.54-.81l-.05-.38-.36.04.05.4c.01.22-.07.31-.2.31-.07 0-.13-.04-.18-.06.02-.1.02-.14.02-.23v-.4l-.4.04.02.45c0 .08 0 .3-.25.3-.22 0-.19-.17-.17-.25l.1-.47-.4.01c-.01.13-.04.25-.06.38-.1.44.14.77.52.77zm0 0"/></symbol><symbol overflow="visible" id="0413b4d8D"><path d="M.6 2.25l.68-.05C1.18 1.12 1.12.37 1.1-.2c0-.16 0-.25.14-.27A5.7 5.7 0 003.06 0c.64 0 1-.4 1-1.16 0-1-.58-1.8-1.48-1.8-.74 0-1 .52-1.28 1.27l-.16.5c-.48.06-.7.4-.7.99 0 .45.1 1.54.15 2.45zM3.05-.72c-.33 0-.87-.17-1.15-.26-.18-.05-.18-.05-.05-.4.12-.37.25-.82.73-.82.5 0 .88.45.88 1.04 0 .32-.11.44-.4.44zm0 0"/></symbol><symbol overflow="visible" id="0413b4d8E"><path d="M.1-6.42l1.5-.11v-.42l-.68.04c-.05 0-.05 0-.08-.03C.83-7 .78-7.08.78-7.17c0-.16.14-.25.4-.25l.18.01v-.43c-.1-.02-.17-.02-.25-.02-.53 0-.77.36-.77.69 0 .1.03.2.07.31l-.32.02zM.51 0h.67v-5.56H.52zm0 0"/></symbol><symbol overflow="visible" id="0413b4d8F"><path d="M3.55 0h.17v-.75H3.5c-.36 0-.44-.03-.44-.47v-2.64h-.62v.44c-1.25 0-2 .69-2 1.62 0 .74.5 1.1 1.42 1.1.19 0 .39-.02.6-.05.1.53.4.75 1.09.75zM1.89-1.45c-.56 0-.83-.13-.83-.4 0-.5.44-.93 1.38-.96v1.25c0 .1 0 .1-.1.1H1.9zm0 0"/></symbol><symbol overflow="visible" id="0413b4d8G"><path d="M1.14-5.56l.36-.03v-.96h-.36zM.91-3.98c.18 0 .34-.07.46-.22.08.06.22.12.36.12.33 0 .6-.33.54-.81l-.05-.38-.36.04.05.4c.01.22-.07.31-.2.31-.07 0-.13-.04-.18-.06.02-.1.02-.14.02-.23v-.4l-.4.04.02.45c0 .08 0 .3-.25.3-.22 0-.19-.17-.17-.25l.1-.47-.4.01c-.01.13-.04.25-.06.38-.1.44.14.77.52.77zm0 0"/></symbol><symbol overflow="visible" id="0413b4d8H"><path d="M0 0h2.23v-.75h-.46c-.1 0-.1 0-.1-.1v-4.71H1v4.7c0 .11 0 .11-.1.11H0c-.3 0-.38.13-.38.36 0 .27.08.39.38.39zm0 0"/></symbol><symbol overflow="visible" id="0413b4d8I"><path d="M.52 0h.67v-5.56H.52zm0 0"/></symbol></defs><g fill="#fff"><use xlink:href="#0413b4d8a" x="129.48" y="154"/><use xlink:href="#0413b4d8b" x="199.16" y="154.8"/><use xlink:href="#0413b4d8c" x="176.2" y="154"/><use xlink:href="#0413b4d8d" x="231.72" y="139.76"/><use xlink:href="#0413b4d8e" x="232.44" y="150.8"/><use xlink:href="#0413b4d8f" x="223.8" y="154"/><use xlink:href="#0413b4d8d" x="260.68" y="169.44"/><use xlink:href="#0413b4d8e" x="261.4" y="180.48"/><use xlink:href="#0413b4d8g" x="244.2" y="154"/><use xlink:href="#0413b4d8h" x="276.52" y="154"/><use xlink:href="#0413b4d8i" x="315.4" y="166.32"/><use xlink:href="#0413b4d8j" x="294.92" y="154"/><use xlink:href="#0413b4d8k" x="335.16" y="154"/><use xlink:href="#0413b4d8h" x="353.32" y="154"/><use xlink:href="#0413b4d8b" x="389.88" y="158"/><use xlink:href="#0413b4d8l" x="371.72" y="154"/><use xlink:href="#0413b4d8m" x="416.76" y="150.8"/><use xlink:href="#0413b4d8n" x="408.12" y="154"/><use xlink:href="#0413b4d8f" x="431.96" y="154"/><use xlink:href="#0413b4d8e" x="460.36" y="151.04"/><use xlink:href="#0413b4d8o" x="452.36" y="154"/><use xlink:href="#0413b4d8p" x="258.2241" y="252"/><use xlink:href="#0413b4d8q" x="264.8911" y="252"/><use xlink:href="#0413b4d8r" x="271.5581" y="252"/><use xlink:href="#0413b4d8s" x="278.2251" y="252"/><use xlink:href="#0413b4d8t" x="284.8921" y="252"/><use xlink:href="#0413b4d8u" x="291.5591" y="252"/><use xlink:href="#0413b4d8v" x="298.2241" y="252"/><use xlink:href="#0413b4d8w" x="303.235211" y="253.407407"/><use xlink:href="#0413b4d8x" x="303.157433" y="252"/><use xlink:href="#0413b4d8y" x="307.327803" y="249.022222"/><use xlink:href="#0413b4d8z" x="306.750025" y="250.303703"/><use xlink:href="#0413b4d8A" x="306.572248" y="251.999999"/><use xlink:href="#0413b4d8y" x="309.890767" y="251.64074"/><use xlink:href="#0413b4d8z" x="309.312989" y="252.922221"/><use xlink:href="#0413b4d8B" x="308.764841" y="251.999999"/><use xlink:href="#0413b4d8C" x="320.2019" y="252.07037"/><g><use xlink:href="#0413b4d8D" x="319.061159" y="252"/><use xlink:href="#0413b4d8E" x="323.561159" y="252"/></g><g><use xlink:href="#0413b4d8w" x="332.313" y="252.71852"/></g><g><use xlink:href="#0413b4d8F" x="331.931518" y="252.000001"/></g><g><use xlink:href="#0413b4d8G" x="335.638925" y="249.496297"/></g><g><use xlink:href="#0413b4d8H" x="335.650037" y="252.000001"/><use xlink:href="#0413b4d8A" x="337.880037" y="252.000001"/></g><g><use xlink:href="#0413b4d8z" x="339.790778" y="250.303706"/></g><g><use xlink:href="#0413b4d8I" x="340.072259" y="252.000001"/></g><g><use xlink:href="#0413b4d8J" x="186.6667" y="266"/><use xlink:href="#0413b4d8q" x="193.3337" y="266"/><use xlink:href="#0413b4d8K" x="200.0007" y="266"/><use xlink:href="#0413b4d8s" x="206.6677" y="266"/><use xlink:href="#0413b4d8L" x="213.3347" y="266"/><use xlink:href="#0413b4d8M" x="220.0017" y="266"/><use xlink:href="#0413b4d8q" x="226.6687" y="266"/><use xlink:href="#0413b4d8t" x="233.3357" y="266"/><use xlink:href="#0413b4d8u" x="240.0027" y="266"/><use xlink:href="#0413b4d8N" x="246.6697" y="266"/><use xlink:href="#0413b4d8M" x="253.3367" y="266"/><use xlink:href="#0413b4d8K" x="260.0037" y="266"/><use xlink:href="#0413b4d8O" x="266.6707" y="266"/><use xlink:href="#0413b4d8P" x="273.3377" y="266"/><use xlink:href="#0413b4d8Q" x="280.0047" y="266"/><use xlink:href="#0413b4d8u" x="286.6717" y="266"/><use xlink:href="#0413b4d8R" x="293.3387" y="266"/><use xlink:href="#0413b4d8S" x="300.0057" y="266"/><use xlink:href="#0413b4d8Q" x="306.6727" y="266"/><use xlink:href="#0413b4d8K" x="313.3397" y="266"/><use xlink:href="#0413b4d8T" x="320.0067" y="266"/><use xlink:href="#0413b4d8P" x="326.6737" y="266"/><use xlink:href="#0413b4d8U" x="333.3407" y="266"/><use xlink:href="#0413b4d8K" x="340.0077" y="266"/><use xlink:href="#0413b4d8s" x="346.6747" y="266"/><use xlink:href="#0413b4d8P" x="353.3417" y="266"/><use xlink:href="#0413b4d8S" x="360.0087" y="266"/><use xlink:href="#0413b4d8V" x="366.6757" y="266"/><use xlink:href="#0413b4d8u" x="373.3427" y="266"/><use xlink:href="#0413b4d8W" x="380.0097" y="266"/><use xlink:href="#0413b4d8K" x="386.6767" y="266"/><use xlink:href="#0413b4d8M" x="393.3437" y="266"/><use xlink:href="#0413b4d8X" x="400.0107" y="266"/><use xlink:href="#0413b4d8U" x="406.6777" y="266"/></g></g></svg>