<?xml version='1.0' encoding='UTF-8'?>
<svg xmlns="http://www.w3.org/2000/svg" xmlns:xlink="http://www.w3.org/1999/xlink" width="310px" height="280px" viewBox="0 0 310 280" x="0px" y="0px" enable-background="new 0 0 310 280"><defs><symbol overflow="visible" id="b98fc21aa"><path d="M23.66-3.9c-6.24 0-9.1-4.74-9.1-13.13v-17.03c0-4.49.72-7.67.85-8.77-1.24-.6-3.13-1.1-5.79-1.1-3.18 0-6.1.71-8.39 1.74 0 1.11.13 2.08.66 3l4.8.46c-.13 1.3-.19 2.8-.19 4.67v17.42C6.5-4.87 13 .84 23.47.84c5.97 0 10.6-1.89 13.51-5.53C39.13-1.89 41.6-.27 43.55.4a12.73 12.73 0 004.1-7.34l-8.46-1.5a24.72 24.72 0 001.56-9.03v-13.13c0-8.72.53-13.08.53-13.08-4.23-.76-8.51.4-10.8 2.35l2.2 4.8v19.5c0 8.4-2.77 13.13-9.02 13.13zm0 0"/></symbol><symbol overflow="visible" id="b98fc21ab"><path d="M25.6-17.88v8.85c0 4.22-.7 7.47-.96 8.45 1.36.52 3.11.9 5.45.9 2.93 0 5.33-.59 7.68-1.68a4.9 4.9 0 00.45-3l-5.33-.51c.13-1.11.19-2.41.19-3.91v-10.2c0-7.6-3.5-11.18-9.03-11.18-4.88 0-8.77 2.8-11.11 6.9l-.33-.15 1.23-5a10.92 10.92 0 00-5-1.03c-3 0-5.71.7-8 1.75 0 1.03.13 2.08.66 2.99l4.81.39a46.1 46.1 0 00-.2 4.75V8.78c0 4.22-.72 7.47-.97 8.44 1.36.53 3.11.92 5.58.92 2.94 0 5.53-.6 8.06-1.7.45-.97.53-2 .4-3.05l-5.73-.45c.13-1.17.2-2.4.2-3.9v-29.71c2.66-2.4 5.27-3.58 7.47-3.58 2.74 0 4.49 1.83 4.49 6.38zm0 0"/></symbol><symbol overflow="visible" id="b98fc21ac"><path d="M14.36.84c4.87 0 8.78-2.8 11.12-6.95l.33.13L24.44-.4a17.23 17.23 0 0012.36-.97c.51-1.05.51-2.08.45-3.12l-5.02-.27v-14.03c-.64-.14-2.07-.4-3.64-.4-1.87 0-3.3.4-3.82.52v10.02c-2.74 2.47-5.2 3.58-7.41 3.58-2.8 0-4.55-1.83-4.55-6.38V-24.7H34c.4-1.75.45-3.58-.06-5.52L12.8-28.98v-8.4c0-4.48.7-7.73.9-8.78a11.97 11.97 0 00-5.26-1.03c-3.06 0-6.1.72-8.39 1.75 0 1.05.2 2.08.72 3l4.81.38c-.2 1.37-.26 2.8-.26 4.69v27.04C5.33-2.73 8.84.84 14.36.84zm0 0"/></symbol><symbol overflow="visible" id="b98fc21ad"><path d="M23.86 8.78c0 4.22-.72 7.47-.98 8.44 1.37.53 3.12.92 5.46.92 2.93 0 5.72-.66 8.07-1.7.51-.97.57-2 .45-3.05l-5.8-.45c.14-1.17.14-2.4.14-3.9V.18h6.9c.18-.97.24-2.86-.07-4.55-2.22.06-4.56.2-6.83.27v-23.27c-3-1.56-7.48-2.8-11.82-2.8-10.68 0-17.18 7.68-17.18 16.7C2.2-4.41 8.52.2 19.7.2h4.17zM10.2-15.8c0-3.64.99-6.82 2.35-9.48.72-.14 1.36-.14 1.8-.14 3.71 0 6.96 1.05 9.5 2.6V-3.9h-.32C15.08-3.9 10.2-7.67 10.2-15.8zm0 0"/></symbol><symbol overflow="visible" id="b98fc21ae"><path d="M7.4 0L4.79-8.1H3.23L.6 0h1.18l.51-1.77h3.35L6.19 0zM3.95-7.13h.1l1.32 4.47h-2.8zm0 0"/></symbol><symbol overflow="visible" id="b98fc21af"><path d="M6.1-6.19c-1.12 0-1.9.52-2.3 1.57h-.08l-.11-1.4H1.27v.91h1.32v4.19H1.14V0H5.9v-.92H3.73v-1.75c0-1.64.7-2.46 2.2-2.46.48 0 .91.08 1.32.2l.17-1.05c-.39-.13-.83-.2-1.33-.2zm0 0"/></symbol><symbol overflow="visible" id="b98fc21ag"><path d="M6.9-2.69v-.5C6.9-5.13 5.82-6.2 4-6.2 2.17-6.2 1.06-5 1.06-2.98c0 2.06 1.08 3.15 3 3.15C5.75.17 6.52-.5 6.8-1.64l-1.08-.13c-.24.75-.7 1.07-1.64 1.07-1.11 0-1.81-.64-1.88-1.99zM4-5.33c1.14 0 1.75.61 1.8 1.88H2.22c.1-1.28.7-1.88 1.78-1.88zm0 0"/></symbol><symbol overflow="visible" id="b98fc21ah"><path d="M6.92-6.02H5.55L2.78-3.45H2.7v-5.13H1.56V0H2.7v-2.78h.08L5.64 0h1.5L3.88-3.22zm0 0"/></symbol><symbol overflow="visible" id="b98fc21aj"><path d="M1.94 0v-3.47c0-.97.2-1.69.87-1.69.49 0 .66.36.66 1.07V0H4.6v-3.47c0-.97.22-1.69.87-1.69.49 0 .68.35.68 1.07V0H7.3v-4.34c0-1.11-.35-1.85-1.35-1.85-.75 0-1.14.49-1.3 1.07h-.09c-.1-.61-.51-1.07-1.28-1.07-.73 0-1.12.49-1.28 1.07h-.08l-.3-.9H.8V0zm0 0"/></symbol><symbol overflow="visible" id="b98fc21ak"><path d="M2.6 0v-3.22c0-1.17.71-1.94 1.76-1.94.87 0 1.26.46 1.26 1.47V0h1.15v-3.97c0-1.45-.7-2.22-2-2.22-1.11 0-1.79.55-2.13 1.3h-.08l-.14-1.13h-.97V0zm0 0"/></symbol><symbol overflow="visible" id="b98fc21al"><path d="M4.3-6.97c.5 0 .86-.28.86-.81S4.8-8.6 4.3-8.6c-.53 0-.86.28-.86.8 0 .54.33.82.86.82zm.6.95H1.82v.91h1.92v4.19H1.56V0h5.38v-.92H4.89zm0 0"/></symbol><symbol overflow="visible" id="b98fc21am"><path d="M3.4.17C4.51.17 5.2-.3 5.57-.97h.08l.12.97h.9v-4.05c0-1.48-.82-2.15-2.54-2.15-1.73 0-2.44.75-2.6 1.9l1.1.11c.13-.7.52-1.1 1.47-1.1 1.01 0 1.47.37 1.47 1.23v.42l-2.17.23c-1.49.18-2.08.82-2.08 1.86 0 1.13.76 1.72 2.06 1.72zm.29-.92c-.81 0-1.2-.33-1.2-.9 0-.52.32-.87 1.2-.96l1.89-.23v.48c0 .95-.75 1.61-1.9 1.61zm0 0"/></symbol></defs><use xlink:href="#b98fc21aa" x="73.1325" y="145"/><use xlink:href="#b98fc21ab" x="121.2325" y="145"/><use xlink:href="#b98fc21ac" x="159.9725" y="145"/><use xlink:href="#b98fc21ad" x="198.5175" y="145"/><g fill-opacity=".33"><use xlink:href="#b98fc21ae" x="103" y="230"/><use xlink:href="#b98fc21af" x="111.0004" y="230"/><use xlink:href="#b98fc21ag" x="119.0008" y="230"/><use xlink:href="#b98fc21ah" x="127.0012" y="230"/><use xlink:href="#b98fc21ai" x="135.0016" y="230"/><use xlink:href="#b98fc21ae" x="143.002" y="230"/><use xlink:href="#b98fc21af" x="151.0024" y="230"/><use xlink:href="#b98fc21aj" x="159.0028" y="230"/><use xlink:href="#b98fc21ag" x="167.0032" y="230"/><use xlink:href="#b98fc21ak" x="175.0036" y="230"/><use xlink:href="#b98fc21al" x="183.004" y="230"/><use xlink:href="#b98fc21am" x="191.0044" y="230"/><use xlink:href="#b98fc21ak" x="199.0048" y="230"/></g></svg>