<?xml version='1.0' encoding='UTF-8'?>
<svg xmlns="http://www.w3.org/2000/svg" xmlns:xlink="http://www.w3.org/1999/xlink" width="600px" height="300px" viewBox="0 0 600 300" x="0px" y="0px" enable-background="new 0 0 600 300"><defs><symbol overflow="visible" id="ce9fe5a1a"><path d="M12.48 22.4c3.36 0 6.08-.71 8.88-2 .4-.8.48-1.6.23-2.48l-7.51-.64c.08-1.2.15-2.56.15-4.56v-38.64c2.82-2.8 5.7-5.28 8.08-5.28 2.74 0 4.57 3.04 4.57 9.12v8.95C26.88-3.52 31.13.96 37.84.96c5.44 0 10-2.87 13.68-7.9l.17.08-1.61 6.46s1.69.82 5.12.82c4 0 7.2-1.13 9.2-2.1.4-.8.4-1.67.24-2.54l-7.05-.41v-18.08c0-8.23.64-13.12.64-13.12-4-.64-8.15.64-10.15 2.48l2.72 5.44v17.76c-4 3.75-7.67 5.36-10.64 5.36-4 0-6.47-2.8-6.47-9.43v-9.93c0-8.15-2.56-12.8-8.33-12.8-5.92 0-9.84 4.88-11.52 7.6l-.15-.08c.47-1.6.54-3.2.54-6.25V-48c0-5.52 1.05-9.13 1.05-9.13a13 13 0 00-5.44-.95c-3.53 0-6.71.8-9.53 2 0 .95.25 1.77.74 2.49l6.64.47c-.17 1.43-.25 2.89-.25 5.12v60.31c0 5.53-1.03 8.97-1.03 8.97 1.36.64 3.36 1.13 6.07 1.13zm0 0"/></symbol><symbol overflow="visible" id="ce9fe5a1b"><path d="M18.95 22h22.82c.3-1.92.3-3.84 0-5.77l-25.93 1.05c.16-1.36.24-2.8.24-4.97v-38.23c0-5.52 1.05-8.95 1.05-8.95A13.05 13.05 0 0011.36-36c-3.44 0-6.64.8-9.44 2 0 .95.24 1.77.72 2.48l6.95.57a42.3 42.3 0 00-.23 5.03v37.84c0 3.67-.31 6.31-1.05 8.96C9.7 21.52 11.7 22 18.95 22zm0 0"/></symbol><symbol overflow="visible" id="ce9fe5a1c"><path d="M18.4.95c5.44 0 10-2.87 13.68-7.9l.15.08-1.59 6.46s1.67.82 5.13.82c4 0 7.18-1.13 9.18-2.1.4-.8.4-1.67.25-2.54l-7.04-.41v-18.8s-1.44-.4-3.2-.4c-2.24 0-3.6.64-3.6.64v13.04c-4 3.75-7.67 5.36-10.64 5.36-4 0-6.49-2.8-6.49-9.43V-31.2H41.2c.4-1.75.49-3.68 0-5.6l-26.97 1.28V-48c0-5.52 1.05-9.13 1.05-9.13a13 13 0 00-5.44-.95c-3.53 0-6.71.8-9.53 2 0 .95.25 1.77.74 2.49l6.64.47c-.17 1.43-.25 2.89-.25 5.12v34.88C7.44-3.53 11.69.95 18.4.95zm0 0"/></symbol><symbol overflow="visible" id="ce9fe5a1d"><path d="M18.95 22h6a17 17 0 000-5.77l-9.1.97c.15-1.36.23-2.8.23-4.89v-38.23c0-5.52 1.05-8.95 1.05-8.95A13.05 13.05 0 0011.36-36c-3.44 0-6.64.8-9.44 2 0 .95.24 1.77.72 2.48l6.95.57a42.3 42.3 0 00-.23 5.03v37.84c0 3.67-.31 6.31-1.05 8.96C9.7 21.52 11.7 22 18.95 22zm0 0"/></symbol><symbol overflow="visible" id="ce9fe5a1e"><path d="M18-53.6c-3.77 0-10.88 4.08-12.4 5.68a4.06 4.06 0 001.92 2.48l2.8-1.04c1.45-.57 2.8-.96 3.91-1.29L11.6-23.59c-.54 5.1-.64 7.1-.64 8.3 0 12.88 9.93 16.5 14.82 16.5 3.51 0 9.1-1.85 14.23-6.16A25.34 25.34 0 0049.84.4s2.57-1.61 3.68-5.85a39.47 39.47 0 01-8.88-4.33c4.23-5.59 7.44-13.51 7.44-24.39 0-7.53-1.52-15.68-4.16-19.2a6.39 6.39 0 00-2.72.08c-7.36 9.05-12 20.64-12 30.97 0 6.47 1.85 11.1 4.32 14.54a21.82 21.82 0 01-9.04 4.57C20.95-3.84 18-8.23 18-16c0-1.77.16-3.28.72-8.23l2.33-21.93c.47-4.32-1.05-6.4-3.05-7.43zm19.6 29.83c0-7.51 2.71-16.71 6.8-23.28.88 2.64 1.76 8.33 1.76 14.57 0 9.35-1.93 15.68-4.64 20.07-2.96-3.1-3.93-6.8-3.93-11.36zm0 0"/></symbol><symbol overflow="visible" id="ce9fe5a1f"><path d="M23.92 16.64c0 9.2 5.85 12.56 10.64 12.56 3.28 0 8.8-1.6 14-5.2a8.7 8.7 0 00-2.08-5.6c-1.6 2.24-5.04 5.2-8.17 6.88-5.03-.4-7.67-3.2-7.67-10.33 0-10.64 5.92-32.47 5.92-42.87 0-6.64-2.4-10.88-4.72-10.88-2.71 0-10.15 5.52-16.32 14.72l-.32-.15c.64-1.77 1.44-4 1.44-6.9 0-2.71-.72-5.28-3.05-6.46-3.75 0-10.87 4.07-12.39 5.67.16.72.8 1.76 1.52 2.23L6-30.87c1.05-.41 2.72-.9 4.48-1.36-.07 5.51-.32 10.95-.89 16.46A57.54 57.54 0 006.88.08C7.58.3 8.95.4 9.59.4c1.7 0 3.13-.64 4-1.53 1.36-6.08 2.25-14 2.64-19.2 3.46-5.45 8.82-9.6 12.72-11.91.64 1.18.97 2.87.97 5.18 0 10-6 34.4-6 43.7zm0 0"/></symbol><symbol overflow="visible" id="ce9fe5a1g"><path d="M9.92 14.31c1.36-6.23 3.52-25.6 4.31-34.62 3.61-5.53 9.13-9.77 13.05-12 .64.95.8 2.08.8 3.44 0 1.51-.24 3.03-.4 4.3l-1.52 10.73c-.47 3.36-.88 6.25-.88 8.4 0 3.85 1.36 6 4.24 6 3.68 0 8.96-3.44 10.25-5.36 0-.97-.33-2-.82-2.72a60.39 60.39 0 01-7.43 2.96c.17-2.24.4-4.88.8-7.6l1.52-10.71c.24-1.44.57-4.65.57-6.72 0-5.54-2.33-9.2-4.49-9.2-2.64 0-10.23 5.43-15.92 14.15l-.31-.16c2.47-9.6 3.44-16.07 3.44-21.92 0-6.87-1.36-11.05-3.93-12.56-3.76 0-10.89 4.08-12.4 5.69.15.72.8 1.75 1.51 2.23l3.28-1.2c1.13-.4 2.9-.96 4.72-1.44.81 2.95 1.13 6.4 1.13 10.4 0 7.52-1.03 16.73-2.31 26.73C6.08-9.29 4.16 5.68 4.16 15.59c.56.25 1.43.33 2.07.33 1.7 0 2.82-.64 3.7-1.6zm0 0"/></symbol><symbol overflow="visible" id="ce9fe5a1h"><path d="M8.56-9.05c0 6.1 3.6 9.7 9.67 9.7 3.2 0 7.85-.88 12.08-3.06 0-2.3-.8-4.23-1.75-6.23A32.73 32.73 0 0118.48-2.8c-2.25-1.04-3.53-3.6-3.53-7.36 0-1.6.18-3.6.4-5.36l1.06-8.25c.46-3.36 1.03-6.3 1.03-8.23 0-3.13-1.52-4.88-3.03-5.6-3.77 0-10.9 4.08-12.41 5.68.16.72.8 1.76 1.52 2.23l3.28-1.18c1.12-.41 2.72-.9 4.33-1.29-.08 2-.41 4.32-.72 6.72l-1.29 9.67c-.24 2.08-.56 4.64-.56 6.72zm0 0"/></symbol><symbol overflow="visible" id="ce9fe5a1i"><path d="M29.36-13.36A27.64 27.64 0 0028-5.44c0 4 1.6 6 4.4 6 3.52 0 8.8-3.28 10.24-5.36 0-.97-.33-2-.8-2.72a70.5 70.5 0 01-8.07 3.2c.07-5.91.23-12 .8-17.52a56.25 56.25 0 002.71-15.68 7.82 7.82 0 00-2.33-.32c-1.67 0-3.1.64-4 1.53-1.36 6-2.23 13.83-2.64 18.95a38.56 38.56 0 01-12.8 12c-.46-.8-.8-1.92-.8-3.76 0-1.36.16-3.68.41-5.36l1.29-9.29c.46-3.36 1.03-6.3 1.03-8.23 0-3.13-1.52-4.88-3.03-5.6-3.77 0-10.9 4.08-12.41 5.68.16.72.8 1.76 1.52 2.23l3.28-1.18c1.12-.41 2.72-.9 4.33-1.29-.08 2-.41 4.32-.72 6.72L8.87-14.72A52.6 52.6 0 008.31-8c0 5.52 2.33 9.2 4.49 9.2 2.72 0 10.15-5.68 16.25-14.72zm0 0"/></symbol><symbol overflow="visible" id="ce9fe5a1j"><path d="M3.83 0v-5.95H6.2v-.82H.45v.82h2.4V0zm0 0"/></symbol><symbol overflow="visible" id="ce9fe5a1k"><path d="M5.75-2.23v-.43c0-1.6-.9-2.51-2.42-2.51S.87-4.16.87-2.48c0 1.71.91 2.62 2.5 2.62 1.43 0 2.07-.56 2.29-1.52l-.9-.09c-.18.61-.59.9-1.35.9-.94 0-1.52-.54-1.58-1.66zm-2.4-2.2c.93 0 1.43.5 1.48 1.55H1.84c.08-1.07.6-1.56 1.5-1.56zm0 0"/></symbol><symbol overflow="visible" id="ce9fe5a1l"><path d="M1.83 0l1.42-2h.06l1.46 2H5.8L4-2.53l1.78-2.49H4.8L3.42-3.08h-.08l-1.4-1.94H.89l1.78 2.49L.84 0zm0 0"/></symbol><symbol overflow="visible" id="ce9fe5a1m"><path d="M5.52-4.25v-.77H3.17v-1.56h-.81l-.14 1.56H.75v.77h1.47v2.4c0 1.3.48 1.94 1.84 1.94C4.6.1 5.14 0 5.55-.14L5.4-.91c-.32.13-.72.2-1.13.2-.8 0-1.1-.37-1.1-1.23v-2.31zm0 0"/></symbol><symbol overflow="visible" id="ce9fe5a1n"><path d="M3.33-3.42c.47 0 .8-.27.8-.8 0-.51-.33-.8-.8-.8-.47 0-.8.29-.8.8 0 .53.33.8.8.8zm0 3.5c.47 0 .8-.27.8-.78 0-.53-.33-.82-.8-.82-.47 0-.8.29-.8.82 0 .51.33.78.8.78zm0 0"/></symbol><symbol overflow="visible" id="ce9fe5a1x"><path d="M5.95-6.77H1.1V0h.99v-2.92H5.3v-.77H2.08v-2.26h3.87zm0 0"/></symbol><symbol overflow="visible" id="ce9fe5a1y"><path d="M2.83.14c.94 0 1.5-.39 1.81-.95h.08l.1.81h.76v-3.38c0-1.23-.69-1.8-2.13-1.8-1.43 0-2.03.65-2.18 1.6l.93.1c.11-.6.44-.93 1.22-.93.85 0 1.22.32 1.22 1.04v.34l-1.81.2C1.6-2.7 1.1-2.17 1.1-1.28c0 .92.64 1.42 1.72 1.42zm.25-.77c-.67 0-1.02-.28-1.02-.74 0-.44.28-.72 1-.82l1.58-.19v.41c0 .8-.6 1.34-1.56 1.34zm0 0"/></symbol><symbol overflow="visible" id="ce9fe5a1z"><path d="M2.73.14c.9 0 1.43-.45 1.74-1.08h.06l.13.94h.8v-5.02h-.94v2.7c0 .98-.57 1.62-1.46 1.62-.75 0-1.1-.4-1.1-1.22v-3.1h-.93v3.32c0 1.17.55 1.84 1.7 1.84zm0 0"/></symbol><symbol overflow="visible" id="ce9fe5a1A"><path d="M5.08-5.16c-.94 0-1.58.43-1.9 1.3h-.09l-.07-1.16H1.05v.77h1.1v3.48H.96V0h3.96v-.77H3.1v-1.46c0-1.36.6-2.05 1.83-2.05.4 0 .76.08 1.1.17l.15-.87c-.33-.11-.7-.18-1.11-.18zm0 0"/></symbol><symbol overflow="visible" id="ce9fe5a1B"><path d="M6.17 0L3.98-6.77h-1.3L.5 0h.97l.44-1.47h2.78L5.16 0zM3.28-5.94h.08l1.1 3.74H2.15zm0 0"/></symbol><symbol overflow="visible" id="ce9fe5a1C"><path d="M1.63 0v-2.9c0-.8.15-1.4.71-1.4.41 0 .55.3.55.88V0h.95v-2.9c0-.8.18-1.4.72-1.4.4 0 .57.3.57.88V0h.95v-3.63c0-.92-.28-1.53-1.11-1.53-.63 0-.95.41-1.1.9h-.06c-.1-.52-.44-.9-1.08-.9-.6 0-.93.41-1.06.9H1.6l-.23-.76H.67V0zm0 0"/></symbol><symbol overflow="visible" id="ce9fe5a1D"><path d="M2.16 0v-2.67c0-.99.59-1.63 1.46-1.63.74 0 1.07.38 1.07 1.22V0h.95v-3.31c0-1.2-.56-1.85-1.67-1.85-.92 0-1.49.46-1.77 1.08h-.06l-.12-.94H1.2V0zm0 0"/></symbol><symbol overflow="visible" id="ce9fe5a1E"><path d="M3.58-5.81c.42 0 .72-.22.72-.67 0-.44-.3-.68-.72-.68-.44 0-.72.24-.72.68 0 .45.28.67.72.67zm.5.8H1.52v.76h1.6v3.48h-1.8V0h4.46v-.77h-1.7zm0 0"/></symbol><symbol overflow="visible" id="ce9fe5a1F"><path d="M3.34.14c1.43 0 2.13-.66 2.25-1.78l-.89-.1c-.1.7-.5 1.08-1.34 1.08-1.03 0-1.52-.64-1.52-1.84 0-1.23.47-1.86 1.52-1.86.84 0 1.23.36 1.34 1.08l.9-.1c-.13-1.09-.82-1.78-2.26-1.78-1.56 0-2.46.97-2.46 2.66 0 1.66.9 2.64 2.46 2.64zm0 0"/></symbol><symbol overflow="visible" id="ce9fe5a1G"><path d="M3.33.14c1.62 0 2.5-.95 2.5-2.66 0-1.68-.88-2.64-2.5-2.64-1.63 0-2.5.96-2.5 2.64 0 1.7.87 2.66 2.5 2.66zm0-.77c-1.06 0-1.52-.6-1.52-1.89 0-1.28.46-1.87 1.52-1.87 1.08 0 1.53.6 1.53 1.87 0 1.29-.45 1.9-1.53 1.9zm0 0"/></symbol><symbol overflow="visible" id="ce9fe5a1H"><path d="M3.92-7.14H1.36v.76h1.6v5.61H1.15V0H5.7v-.77H3.92zm0 0"/></symbol><symbol overflow="visible" id="ce9fe5a1I"><path d="M3.36.16c1.4 0 2.2-.6 2.2-1.57 0-.89-.54-1.22-1.47-1.39L3-3c-.67-.14-.86-.33-.86-.73 0-.5.4-.74 1.17-.74.83 0 1.19.27 1.27.8l.9-.05c-.12-1-.8-1.47-2.17-1.47-1.34 0-2.1.53-2.1 1.5 0 .81.45 1.22 1.52 1.44l1.04.2c.56.11.87.24.87.72 0 .52-.45.78-1.28.78-.95 0-1.36-.28-1.42-.87l-.9.06C1.07-.36 1.8.16 3.35.16zm0 0"/></symbol><symbol overflow="visible" id="ce9fe5a1J"><path d="M1.45-2.95c0 2.56 1.08 4.37 3.67 4.84l.11-.67C3.28.86 2.43-.75 2.43-2.95s.85-3.82 2.8-4.16l-.1-.69c-2.6.49-3.68 2.3-3.68 4.85zm0 0"/></symbol><symbol overflow="visible" id="ce9fe5a1K"><path d="M1.45-7.1c1.96.33 2.8 1.94 2.8 4.15 0 2.2-.84 3.8-2.8 4.17l.11.67c2.58-.47 3.67-2.28 3.67-4.84 0-2.55-1.09-4.36-3.67-4.85zm0 0"/></symbol><symbol overflow="visible" id="ce9fe5a1p"><path d="M7.45-4.94h1.03V0h-.8l-.13-.81h-.07a1.68 1.68 0 01-1.58.9c-.55 0-.99-.15-1.3-.46-.32-.33-.47-.79-.47-1.4v-1.2c0-.41-.1-.72-.27-.92a.9.9 0 00-.72-.31c-.4 0-.7.15-.92.47-.21.3-.31.75-.31 1.35v4.75H.86v-9.96H1.9v2.57a8.04 8.04 0 01-.07.9h.07c.12-.26.3-.48.53-.66.24-.18.56-.27.97-.27.55 0 .98.17 1.3.49.3.31.46.77.46 1.39v1.19c0 .43.09.74.27.95.17.2.42.3.73.3.4 0 .7-.15.94-.46.23-.31.34-.77.34-1.39zm0 0"/></symbol><symbol overflow="visible" id="ce9fe5a1q"><path d="M.86 2.38v-7.33H1.9v6.51h1.12v.81zm0 0"/></symbol><symbol overflow="visible" id="ce9fe5a1r"><path d="M5.23-3.13V0h-.82l-.13-.81h-.06a1.76 1.76 0 01-1.6.9c-.56 0-1-.15-1.32-.46C.97-.7.8-1.17.8-1.77v-5.82h1.03v2.65h3.57v.8H1.84v2.16c0 .43.1.74.28.95.2.2.44.3.75.3.41 0 .73-.15.96-.46.24-.31.36-.77.36-1.39v-.54zm0 0"/></symbol><symbol overflow="visible" id="ce9fe5a1s"><path d="M3.6.1c-.87 0-1.54-.24-2-.7a2.62 2.62 0 01-.7-1.95v-4.6h1.04v4.46c0 .67.14 1.15.44 1.46.28.3.7.45 1.26.45.55 0 .97-.15 1.27-.45.29-.32.43-.79.43-1.43v-4.48H6.4v4.62l-.01.29.23-.02c.5 0 .88.14 1.16.42.27.28.4.72.4 1.35V0h-.94v-.42c0-.38-.07-.65-.2-.8-.12-.16-.32-.23-.58-.23l-.25.01c-.18.48-.48.86-.92 1.13-.44.27-1 .4-1.67.4zm0 0"/></symbol><symbol overflow="visible" id="ce9fe5a1t"><path d="M4.23 2.38v-5.35c0-.41-.09-.72-.28-.92a.94.94 0 00-.75-.31c-.41 0-.74.15-.97.47-.21.3-.32.75-.32 1.35V0H.86v-4.94h.83l.12.82h.06c.13-.26.32-.48.57-.66.25-.18.58-.27 1.01-.27.57 0 1.02.17 1.33.49.32.31.49.77.49 1.39v4.73h1.3v.81zm0 0"/></symbol><symbol overflow="visible" id="ce9fe5a1u"><path d="M1.9-7.6v2.58a8.04 8.04 0 01-.06.9h.07c.12-.26.3-.48.56-.66a1.7 1.7 0 011-.27c.56 0 1 .17 1.31.49.32.31.49.77.49 1.39V0H4.23v-2.97c0-.41-.09-.72-.26-.92a.96.96 0 00-.77-.31c-.4 0-.72.15-.95.47-.23.3-.34.75-.34 1.35v4.75H.86v-9.96zm0 0"/></symbol><symbol overflow="visible" id="ce9fe5a1v"><path d="M.86 0v-4.94H1.9V-.8h1.37V0zm0 0"/></symbol><symbol overflow="visible" id="ce9fe5a1w"><path d="M5.23-4.94V0h-.82l-.13-.81h-.06a1.76 1.76 0 01-1.6.9c-.56 0-1-.15-1.32-.46C.97-.7.8-1.17.8-1.77v-3.17h1.03v2.96c0 .43.1.74.28.95.2.2.44.3.75.3.41 0 .73-.15.96-.46.24-.31.36-.77.36-1.39v-2.36zm0 0"/></symbol></defs><use xlink:href="#ce9fe5a1a" x="99.48" y="148" fill="#515151"/><use xlink:href="#ce9fe5a1b" x="165.8" y="148" fill="#fff"/><g fill="#515151"><use xlink:href="#ce9fe5a1c" x="188.76" y="148"/><use xlink:href="#ce9fe5a1d" x="235.8" y="148"/></g><use xlink:href="#ce9fe5a1e" x="281.8" y="148" fill="#515151"/><use xlink:href="#ce9fe5a1f" x="340.12" y="148" fill="#fff"/><use xlink:href="#ce9fe5a1g" x="382.52" y="148" fill="#fff"/><g fill="#515151"><use xlink:href="#ce9fe5a1h" x="424.44" y="148"/><use xlink:href="#ce9fe5a1i" x="455.8" y="148"/></g><g fill="#fff"><use xlink:href="#ce9fe5a1j" x="250.9267" y="253"/><use xlink:href="#ce9fe5a1k" x="257.5937" y="253"/><use xlink:href="#ce9fe5a1l" x="264.2607" y="253"/><use xlink:href="#ce9fe5a1m" x="270.9277" y="253"/><use xlink:href="#ce9fe5a1n" x="277.5947" y="253"/><use xlink:href="#ce9fe5a1o" x="284.2617" y="253"/></g><g fill="#fff"><use xlink:href="#ce9fe5a1p" x="290.9267" y="253"/><use xlink:href="#ce9fe5a1q" x="300.2967" y="253"/></g><g fill="#fff"><use xlink:href="#ce9fe5a1r" x="303.0667" y="253"/><use xlink:href="#ce9fe5a1q" x="309.1667" y="253"/></g><g fill="#fff"><use xlink:href="#ce9fe5a1s" x="318.6433" y="253"/><use xlink:href="#ce9fe5a1t" x="327.0133" y="253"/></g><g fill="#fff"><use xlink:href="#ce9fe5a1u" x="333.4433" y="253"/><use xlink:href="#ce9fe5a1v" x="339.5433" y="253"/><use xlink:href="#ce9fe5a1w" x="342.9733" y="253"/></g><g fill="#fff"><use xlink:href="#ce9fe5a1x" x="146.6667" y="266"/><use xlink:href="#ce9fe5a1k" x="153.3337" y="266"/><use xlink:href="#ce9fe5a1y" x="160.0007" y="266"/><use xlink:href="#ce9fe5a1m" x="166.6677" y="266"/><use xlink:href="#ce9fe5a1z" x="173.3347" y="266"/><use xlink:href="#ce9fe5a1A" x="180.0017" y="266"/><use xlink:href="#ce9fe5a1k" x="186.6687" y="266"/><use xlink:href="#ce9fe5a1n" x="193.3357" y="266"/><use xlink:href="#ce9fe5a1o" x="200.0027" y="266"/><use xlink:href="#ce9fe5a1B" x="206.6697" y="266"/><use xlink:href="#ce9fe5a1A" x="213.3367" y="266"/><use xlink:href="#ce9fe5a1C" x="220.0037" y="266"/><use xlink:href="#ce9fe5a1k" x="226.6707" y="266"/><use xlink:href="#ce9fe5a1D" x="233.3377" y="266"/><use xlink:href="#ce9fe5a1E" x="240.0047" y="266"/><use xlink:href="#ce9fe5a1y" x="246.6717" y="266"/><use xlink:href="#ce9fe5a1D" x="253.3387" y="266"/><use xlink:href="#ce9fe5a1o" x="260.0057" y="266"/><use xlink:href="#ce9fe5a1F" x="266.6727" y="266"/><use xlink:href="#ce9fe5a1G" x="273.3397" y="266"/><use xlink:href="#ce9fe5a1D" x="280.0067" y="266"/><use xlink:href="#ce9fe5a1m" x="286.6737" y="266"/><use xlink:href="#ce9fe5a1k" x="293.3407" y="266"/><use xlink:href="#ce9fe5a1l" x="300.0077" y="266"/><use xlink:href="#ce9fe5a1m" x="306.6747" y="266"/><use xlink:href="#ce9fe5a1z" x="313.3417" y="266"/><use xlink:href="#ce9fe5a1y" x="320.0087" y="266"/><use xlink:href="#ce9fe5a1H" x="326.6757" y="266"/><use xlink:href="#ce9fe5a1o" x="333.3427" y="266"/><use xlink:href="#ce9fe5a1y" x="340.0097" y="266"/><use xlink:href="#ce9fe5a1H" x="346.6767" y="266"/><use xlink:href="#ce9fe5a1m" x="353.3437" y="266"/><use xlink:href="#ce9fe5a1k" x="360.0107" y="266"/><use xlink:href="#ce9fe5a1A" x="366.6777" y="266"/><use xlink:href="#ce9fe5a1D" x="373.3447" y="266"/><use xlink:href="#ce9fe5a1y" x="380.0117" y="266"/><use xlink:href="#ce9fe5a1m" x="386.6787" y="266"/><use xlink:href="#ce9fe5a1k" x="393.3457" y="266"/><use xlink:href="#ce9fe5a1I" x="400.0127" y="266"/><use xlink:href="#ce9fe5a1o" x="406.6797" y="266"/><use xlink:href="#ce9fe5a1J" x="413.3467" y="266"/><use xlink:href="#ce9fe5a1F" x="420.0137" y="266"/><use xlink:href="#ce9fe5a1y" x="426.6807" y="266"/><use xlink:href="#ce9fe5a1H" x="433.3477" y="266"/><use xlink:href="#ce9fe5a1m" x="440.0147" y="266"/><use xlink:href="#ce9fe5a1K" x="446.6817" y="266"/></g></svg>