<?xml version='1.0' encoding='UTF-8'?>
<svg xmlns="http://www.w3.org/2000/svg" xmlns:xlink="http://www.w3.org/1999/xlink" width="600px" height="300px" viewBox="0 0 600 300" x="0px" y="0px" enable-background="new 0 0 600 300"><defs><symbol overflow="visible" id="0a0abdc0a"><path d="M36.4.4c4 0 7.2-1.12 9.2-2.09.4-.8.4-1.67.24-2.54l-7.04-.41v-25.2c0-4.64-.96-6.8-2.57-9.44-1.82-3.13-4.23-6.08-4.23-9.6 0-2.4 1.13-4.56 2-6 1.36-.32 2.95-.56 5.6-.56 3.84 0 9.45.49 14.63 2.16A47.11 47.11 0 0054-48v34.88C54-3.53 58.23.95 64.95.95c5.46 0 10-2.87 13.7-7.9l.15.08-1.6 6.46s1.67.82 5.11.82c4 0 7.2-1.13 9.2-2.1.41-.8.41-1.67.26-2.54l-7.05-.41v-18.8s-1.44-.4-3.2-.4c-2.24 0-3.6.64-3.6.64v13.04c-4 3.75-7.69 5.36-10.64 5.36-4 0-6.48-2.8-6.48-9.43V-31.2h26.97c.39-1.75.46-3.68 0-5.6L60.8-35.52v-11.43c0-5.53 1.04-8.97 1.04-8.97a64.85 64.85 0 00-20-3.77c-9.6 0-15.6 5.2-15.6 12.74 0 3.9 1.6 6.87 3.45 10.15 1.26 2.24 2.31 4.16 2.31 8.72v17.92C28-6.4 24.31-4.8 21.36-4.8c-4 0-6.48-2.8-6.48-9.43v-11.7c0-5.5 1.04-8.95 1.04-8.95A13.05 13.05 0 0010.16-36c-3.44 0-6.64.8-9.44 2 0 .95.23 1.77.72 2.48l6.87.57a42.3 42.3 0 00-.23 5.03v12.8C8.08-3.53 12.3.95 19.05.95c5.43 0 10-2.87 13.67-7.9l.16.08-1.6 6.46s1.67.82 5.13.82zm0 0"/></symbol><symbol overflow="visible" id="0a0abdc0b"><path d="M23.92-36.95C11.36-36.95 3.2-27.6 3.2-16.23 3.2-5.05 11.05.95 20.56.95c4.49 0 7.52-1.26 9.75-3.1v14.07c0 3.67-.23 6.31-.95 8.96C30.72 21.52 32.72 22 40 22h5.92c.31-1.92.31-3.84 0-5.77l-9.05.97c.18-1.36.26-2.8.26-4.89v-45.9s-5.7-3.36-13.2-3.36zM10.87-18.56a24 24 0 014.49-13.75h1.36c6.97 0 11.44 2.54 13.6 4.15v22.08c-2 1.28-4.24 2.16-7.04 2.16-7.12 0-12.4-5.77-12.4-14.64zm0 0"/></symbol><symbol overflow="visible" id="0a0abdc0c"><path d="M54.4-61.05c-6.32 0-12.71 6.82-14.09 14.4a47.16 47.16 0 01-11.19-2.23c-2-2.24-4.48-3.6-7.2-3.6-1.12 0-2.33.25-3.05.56a6.63 6.63 0 00.49 4.08c1.52.25 3.05.56 4.48.97 3.29 3.43 5.29 10.15 5.29 17.59 0 8.72-2.82 21.69-11.05 26.08-2.72-.64-3.52-3.2-3.52-5.92 0-1.36.16-3.68.4-5.36l1.27-9.29c.49-3.36 1.05-6.3 1.05-8.23 0-3.13-1.51-4.88-3.05-5.6-3.75 0-10.87 4.08-12.39 5.68.16.72.8 1.76 1.52 2.23l3.28-1.18c1.13-.41 2.72-.9 4.31-1.29-.07 2-.39 4.32-.72 6.72L8.72-14.72A52.6 52.6 0 008.16-8c0 5.52 2.71 9.2 6.32 9.2 7.29 0 20.8-11.92 20.8-30.89 0-5.67-1.2-10.95-3.28-15.03 2.56.64 5.2 1.2 8 1.36 0 5.36 3.13 8.88 7.6 8.88 2.63 0 5.04-1.2 6.96-2.65C47.12-28.4 43.2-16.23 43.2-8.95 43.2-3.28 45.6 1.2 48 1.2c2.64 0 10.08-5.51 16.23-14.72l.33.16a27.64 27.64 0 00-1.36 7.92c0 4 1.6 6 4.4 6 3.53 0 8.8-3.28 10.24-5.36 0-.97-.32-2-.8-2.72a69.6 69.6 0 01-8.09 3.2c.1-5.91.25-12 .82-17.52a56.25 56.25 0 002.71-15.68 7.82 7.82 0 00-2.32-.32c-1.68 0-3.11.64-4 1.53-1.36 6-2.24 13.83-2.64 18.95-3.6 5.67-8.96 9.84-12.88 12.08-.72-1.28-1.12-3.28-1.12-6.16 0-7.84 3.12-17.6 9.35-26.56-.39-.8-1.1-1.36-1.92-1.77-2.39.72-4.87 1.13-6.47 1.13-3.28 0-5.04-1.77-5.53-4.72 8.4-.72 15.05-4.72 15.05-11.2 0-3.85-2.31-6.49-5.6-6.49zm.73 5.13c0 5.92-4 8.72-10.26 9.28.65-5.77 5.13-11.13 9.93-11.92.15.72.33 1.51.33 2.64zm0 0"/></symbol><symbol overflow="visible" id="0a0abdc0d"><path d="M8.31-8c0 5.52 2.33 9.2 4.49 9.2 2.72 0 10.15-5.68 16.25-14.72l.3.16a18 18 0 00-.94 6.08c0 4.8 2.3 8.48 4.46 8.48 2.72 0 10.18-5.68 16.26-14.72l.3.16a27.64 27.64 0 00-1.35 7.92c0 4 1.6 6 4.4 6 3.52 0 8.8-3.28 10.24-5.36 0-.97-.31-2-.8-2.72a70.5 70.5 0 01-8.08 3.2c.08-5.91.24-12 .8-17.52a56.25 56.25 0 002.72-15.68 7.72 7.72 0 00-2.31-.32c-1.7 0-3.13.64-4 1.53-1.36 6-2.25 13.83-2.64 18.95-3.7 5.84-9.36 10.08-13.28 12.31-.97-1.51-1.54-4.3-1.54-8.3 0-2.09.18-4.34.41-6.96 2-5.13 3.13-11.69 3.28-17.2a7.82 7.82 0 00-2.33-.33c-1.67 0-3.1.64-4 1.53-1.36 6-2.23 13.83-2.64 18.95a38.56 38.56 0 01-12.8 12c-.46-.8-.8-1.92-.8-3.76 0-1.36.16-3.68.41-5.36l1.29-9.29c.46-3.36 1.03-6.3 1.03-8.23 0-3.13-1.52-4.88-3.03-5.6-3.77 0-10.9 4.08-12.41 5.68.16.72.8 1.76 1.52 2.23l3.28-1.18c1.12-.41 2.72-.9 4.33-1.29-.08 2-.41 4.32-.72 6.72L8.87-14.72A52.6 52.6 0 008.31-8zm0 0"/></symbol><symbol overflow="visible" id="0a0abdc0e"><path d="M12.31 10.4c0-10.09 5.28-32 5.28-41.68 0-4.4-1.1-5.28-2.8-6.31-3.74 0-10.87 4.07-12.38 5.67.15.72.8 1.76 1.51 2.23l3.28-1.18c1.03-.41 2.72-.9 4.49-1.36 0 9.43-6.1 33.82-6.1 43.67 0 9.69 5.85 13.04 10.1 13.04 4.31 0 11.26-3.6 14.87-8.07-.72-2.1-1.84-3.77-3.6-4.82-1.6 2.18-4.32 5.93-7.12 8.25-4.96-.25-7.53-2.48-7.53-9.43zm0 0"/></symbol><symbol overflow="visible" id="0a0abdc0f"><path d="M3.83 0v-5.95H6.2v-.82H.45v.82h2.4V0zm0 0"/></symbol><symbol overflow="visible" id="0a0abdc0g"><path d="M5.75-2.23v-.43c0-1.6-.9-2.51-2.42-2.51S.87-4.16.87-2.48c0 1.71.91 2.62 2.5 2.62 1.43 0 2.07-.56 2.29-1.52l-.9-.09c-.18.61-.59.9-1.35.9-.94 0-1.52-.54-1.58-1.66zm-2.4-2.2c.93 0 1.43.5 1.48 1.55H1.84c.08-1.07.6-1.56 1.5-1.56zm0 0"/></symbol><symbol overflow="visible" id="0a0abdc0h"><path d="M1.83 0l1.42-2h.06l1.46 2H5.8L4-2.53l1.78-2.49H4.8L3.42-3.08h-.08l-1.4-1.94H.89l1.78 2.49L.84 0zm0 0"/></symbol><symbol overflow="visible" id="0a0abdc0i"><path d="M5.52-4.25v-.77H3.17v-1.56h-.81l-.14 1.56H.75v.77h1.47v2.4c0 1.3.48 1.94 1.84 1.94C4.6.1 5.14 0 5.55-.14L5.4-.91c-.32.13-.72.2-1.13.2-.8 0-1.1-.37-1.1-1.23v-2.31zm0 0"/></symbol><symbol overflow="visible" id="0a0abdc0j"><path d="M3.33-3.42c.47 0 .8-.27.8-.8 0-.51-.33-.8-.8-.8-.47 0-.8.29-.8.8 0 .53.33.8.8.8zm0 3.5c.47 0 .8-.27.8-.78 0-.53-.33-.82-.8-.82-.47 0-.8.29-.8.82 0 .51.33.78.8.78zm0 0"/></symbol><symbol overflow="visible" id="0a0abdc0q"><path d="M5.95-6.77H1.1V0h.99v-2.92H5.3v-.77H2.08v-2.26h3.87zm0 0"/></symbol><symbol overflow="visible" id="0a0abdc0r"><path d="M2.83.14c.94 0 1.5-.39 1.81-.95h.08l.1.81h.76v-3.38c0-1.23-.69-1.8-2.13-1.8-1.43 0-2.03.65-2.18 1.6l.93.1c.11-.6.44-.93 1.22-.93.85 0 1.22.32 1.22 1.04v.34l-1.81.2C1.6-2.7 1.1-2.17 1.1-1.28c0 .92.64 1.42 1.72 1.42zm.25-.77c-.67 0-1.02-.28-1.02-.74 0-.44.28-.72 1-.82l1.58-.19v.41c0 .8-.6 1.34-1.56 1.34zm0 0"/></symbol><symbol overflow="visible" id="0a0abdc0s"><path d="M2.73.14c.9 0 1.43-.45 1.74-1.08h.06l.13.94h.8v-5.02h-.94v2.7c0 .98-.57 1.62-1.46 1.62-.75 0-1.1-.4-1.1-1.22v-3.1h-.93v3.32c0 1.17.55 1.84 1.7 1.84zm0 0"/></symbol><symbol overflow="visible" id="0a0abdc0t"><path d="M5.08-5.16c-.94 0-1.58.43-1.9 1.3h-.09l-.07-1.16H1.05v.77h1.1v3.48H.96V0h3.96v-.77H3.1v-1.46c0-1.36.6-2.05 1.83-2.05.4 0 .76.08 1.1.17l.15-.87c-.33-.11-.7-.18-1.11-.18zm0 0"/></symbol><symbol overflow="visible" id="0a0abdc0u"><path d="M6.17 0L3.98-6.77h-1.3L.5 0h.97l.44-1.47h2.78L5.16 0zM3.28-5.94h.08l1.1 3.74H2.15zm0 0"/></symbol><symbol overflow="visible" id="0a0abdc0v"><path d="M1.63 0v-2.9c0-.8.15-1.4.71-1.4.41 0 .55.3.55.88V0h.95v-2.9c0-.8.18-1.4.72-1.4.4 0 .57.3.57.88V0h.95v-3.63c0-.92-.28-1.53-1.11-1.53-.63 0-.95.41-1.1.9h-.06c-.1-.52-.44-.9-1.08-.9-.6 0-.93.41-1.06.9H1.6l-.23-.76H.67V0zm0 0"/></symbol><symbol overflow="visible" id="0a0abdc0w"><path d="M2.16 0v-2.67c0-.99.59-1.63 1.46-1.63.74 0 1.07.38 1.07 1.22V0h.95v-3.31c0-1.2-.56-1.85-1.67-1.85-.92 0-1.49.46-1.77 1.08h-.06l-.12-.94H1.2V0zm0 0"/></symbol><symbol overflow="visible" id="0a0abdc0x"><path d="M3.58-5.81c.42 0 .72-.22.72-.67 0-.44-.3-.68-.72-.68-.44 0-.72.24-.72.68 0 .45.28.67.72.67zm.5.8H1.52v.76h1.6v3.48h-1.8V0h4.46v-.77h-1.7zm0 0"/></symbol><symbol overflow="visible" id="0a0abdc0y"><path d="M3.92-7.14H1.36v.76h1.6v5.61H1.15V0H5.7v-.77H3.92zm0 0"/></symbol><symbol overflow="visible" id="0a0abdc0z"><path d="M3.16 2.03c1.67 0 2.4-.86 2.4-2.51v-4.54h-.81l-.13.91h-.06c-.26-.58-.8-1.05-1.73-1.05-1.42 0-2.24 1-2.24 2.52 0 1.6.75 2.56 2.2 2.56.94 0 1.5-.5 1.77-1.03h.05v.72c0 1.17-.42 1.67-1.45 1.67-.93 0-1.3-.34-1.41-.89L.8.5c.12.96.87 1.54 2.36 1.54zM3.06-.8c-.98 0-1.48-.57-1.48-1.82 0-1.13.5-1.75 1.48-1.75 1.06 0 1.58.76 1.58 1.75 0 .95-.56 1.82-1.58 1.82zm0 0"/></symbol><symbol overflow="visible" id="0a0abdc0A"><path d="M3.36.16c1.4 0 2.2-.6 2.2-1.57 0-.89-.54-1.22-1.47-1.39L3-3c-.67-.14-.86-.33-.86-.73 0-.5.4-.74 1.17-.74.83 0 1.19.27 1.27.8l.9-.05c-.12-1-.8-1.47-2.17-1.47-1.34 0-2.1.53-2.1 1.5 0 .81.45 1.22 1.52 1.44l1.04.2c.56.11.87.24.87.72 0 .52-.45.78-1.28.78-.95 0-1.36-.28-1.42-.87l-.9.06C1.07-.36 1.8.16 3.35.16zm0 0"/></symbol><symbol overflow="visible" id="0a0abdc0B"><path d="M1.45-2.95c0 2.56 1.08 4.37 3.67 4.84l.11-.67C3.28.86 2.43-.75 2.43-2.95s.85-3.82 2.8-4.16l-.1-.69c-2.6.49-3.68 2.3-3.68 4.85zm0 0"/></symbol><symbol overflow="visible" id="0a0abdc0C"><path d="M2.44 0l.87-3.31h.06L4.25 0H5.3l1.03-5.02h-.88l-.73 3.94h-.08L3.77-4.4h-.85l-.87 3.33h-.08l-.75-3.94H.34L1.36 0zm0 0"/></symbol><symbol overflow="visible" id="0a0abdc0D"><path d="M3.42-.86h-.08L1.77-5.02H.8L2.73 0h.41c-.33.95-.72 1.27-1.45 1.27-.22 0-.49-.04-.69-.08l-.1.73c.2.06.58.11.87.11 1.2 0 1.7-.7 2.21-2.03l1.94-5.02H5zm0 0"/></symbol><symbol overflow="visible" id="0a0abdc0E"><path d="M3.33.14c1.62 0 2.5-.95 2.5-2.66 0-1.68-.88-2.64-2.5-2.64-1.63 0-2.5.96-2.5 2.64 0 1.7.87 2.66 2.5 2.66zm0-.77c-1.06 0-1.52-.6-1.52-1.89 0-1.28.46-1.87 1.52-1.87 1.08 0 1.53.6 1.53 1.87 0 1.29-.45 1.9-1.53 1.9zm0 0"/></symbol><symbol overflow="visible" id="0a0abdc0F"><path d="M1.45-7.1c1.96.33 2.8 1.94 2.8 4.15 0 2.2-.84 3.8-2.8 4.17l.11.67c2.58-.47 3.67-2.28 3.67-4.84 0-2.55-1.09-4.36-3.67-4.85zm0 0"/></symbol><symbol overflow="visible" id="0a0abdc0l"><path d="M5.23-3.75V0h-.82l-.13-.81h-.06a1.76 1.76 0 01-1.6.9c-.56 0-1-.15-1.32-.46C.97-.7.8-1.17.8-1.77v-3.17h1.03v2.96c0 .43.1.74.28.95.2.2.44.3.75.3.41 0 .73-.15.96-.46.24-.31.36-.77.36-1.39v-1.15c0-.21-.05-.42-.13-.63a2.39 2.39 0 00-.47-.7 3.16 3.16 0 01-.51-.69c-.1-.2-.16-.38-.16-.55 0-.36.13-.67.38-.92s.66-.37 1.22-.37h3.57v2.65h3.57v.8H8.09v2.16c0 .43.1.74.29.95.18.2.43.3.74.3.4 0 .72-.15.96-.46.24-.31.36-.77.36-1.39v-.54h1.03V0h-.81l-.13-.81h-.06a1.76 1.76 0 01-1.6.9c-.57 0-1.02-.15-1.34-.46-.31-.33-.47-.79-.47-1.4V-6.8H4.44a.48.48 0 00-.36.14.4.4 0 00-.13.3c0 .15.05.29.14.42.1.14.26.32.47.55.25.27.42.53.52.78.1.25.15.54.15.86zm0 0"/></symbol><symbol overflow="visible" id="0a0abdc0m"><path d="M4.19 2.38V.17v-.46c0-.18.02-.36.04-.55h-.07c-.14.3-.34.53-.6.69-.26.16-.58.23-.97.23a1.8 1.8 0 01-1.5-.67 2.98 2.98 0 01-.53-1.87c0-.78.18-1.4.53-1.88.37-.47.89-.72 1.57-.72a1.73 1.73 0 011.56.9h.05l.12-.79h.83v6.5h1.3v.81zM2.84-.75c.45 0 .79-.13 1-.4.23-.29.35-.72.35-1.3v-.1c0-.53-.11-.93-.33-1.22-.21-.28-.53-.43-.95-.43-.41 0-.73.15-.96.45-.22.3-.32.73-.32 1.3 0 1.13.4 1.7 1.21 1.7zm0 0"/></symbol><symbol overflow="visible" id="0a0abdc0n"><path d="M5.23-3.75V0h-.82l-.13-.81h-.06a1.76 1.76 0 01-1.6.9c-.56 0-1-.15-1.32-.46C.97-.7.8-1.17.8-1.77v-3.17h1.03v2.96c0 .43.1.74.28.95.2.2.44.3.75.3.41 0 .73-.15.96-.46.24-.31.36-.77.36-1.39v-1.15c0-.21-.05-.42-.13-.63a2.39 2.39 0 00-.47-.7 3.16 3.16 0 01-.51-.69c-.1-.2-.16-.38-.16-.55 0-.36.13-.67.38-.92s.66-.37 1.22-.37h2.67l.83.36-.22.36a.95.95 0 00-.1.21l-.01.2c0 .22.15.41.47.57l.7.37v.14c-.28.5-.5.94-.67 1.32a4.2 4.2 0 00-.45 1.88c0 .5.1.88.3 1.1.21.23.5.35.87.35.4 0 .72-.15.96-.46.26-.31.38-.77.38-1.39v-2.36h1.05V0h-.83l-.13-.81h-.06a1.76 1.76 0 01-1.6.9C8.06.1 7.56-.09 7.2-.45c-.35-.37-.53-.89-.53-1.57 0-.45.1-.92.28-1.4.2-.49.5-1.04.94-1.64l-.48-.28c-.23-.12-.41-.26-.54-.44a.94.94 0 01-.17-.53c0-.16.03-.32.1-.49H4.44a.48.48 0 00-.36.14.4.4 0 00-.13.3c0 .15.05.29.14.42.1.14.26.32.47.55.25.27.42.53.52.78.1.25.15.54.15.86zm0 0"/></symbol><symbol overflow="visible" id="0a0abdc0o"><path d="M2.6.1c-.56 0-1-.15-1.32-.46C.97-.66.81-1.1.81-1.72v-3.22h1.03v3c0 .4.1.7.28.9.2.2.44.29.72.29.4 0 .71-.14.94-.44.23-.29.35-.72.35-1.31v-2.44h1.04v3c0 .4.1.7.28.9.2.2.43.29.72.29.38 0 .68-.14.9-.44.25-.29.37-.72.37-1.31v-2.44h1.04V0h-.8l-.13-.77h-.07c-.12.23-.32.44-.57.61a1.8 1.8 0 01-1 .25c-.37 0-.7-.07-.97-.21a1.36 1.36 0 01-.61-.68h-.05a1.7 1.7 0 01-.66.64C3.33.01 2.98.1 2.6.1zm0 0"/></symbol><symbol overflow="visible" id="0a0abdc0p"><path d="M.86 2.38v-7.33H1.9v6.51h1.12v.81zm0 0"/></symbol></defs><use xlink:href="#0a0abdc0a" x="136.04" y="148" fill="#fff"/><use xlink:href="#0a0abdc0b" x="229.64" y="148" fill="#515151"/><use xlink:href="#0a0abdc0c" x="296.6" y="148" fill="#fff"/><g fill="#515151"><use xlink:href="#0a0abdc0d" x="376.52" y="148"/><use xlink:href="#0a0abdc0e" x="441.32" y="148"/></g><g fill="#fff"><use xlink:href="#0a0abdc0f" x="255.2667" y="253"/><use xlink:href="#0a0abdc0g" x="261.9337" y="253"/><use xlink:href="#0a0abdc0h" x="268.6007" y="253"/><use xlink:href="#0a0abdc0i" x="275.2677" y="253"/><use xlink:href="#0a0abdc0j" x="281.9347" y="253"/><use xlink:href="#0a0abdc0k" x="288.6017" y="253"/></g><use xlink:href="#0a0abdc0l" x="295.2667" y="253" fill="#fff"/><use xlink:href="#0a0abdc0m" x="307.6067" y="253" fill="#fff"/><use xlink:href="#0a0abdc0n" x="320.4033" y="253" fill="#fff"/><g fill="#fff"><use xlink:href="#0a0abdc0o" x="332.5633" y="253"/><use xlink:href="#0a0abdc0p" x="341.9233" y="253"/></g><g fill="#fff"><use xlink:href="#0a0abdc0q" x="170" y="266"/><use xlink:href="#0a0abdc0g" x="176.667" y="266"/><use xlink:href="#0a0abdc0r" x="183.334" y="266"/><use xlink:href="#0a0abdc0i" x="190.001" y="266"/><use xlink:href="#0a0abdc0s" x="196.668" y="266"/><use xlink:href="#0a0abdc0t" x="203.335" y="266"/><use xlink:href="#0a0abdc0g" x="210.002" y="266"/><use xlink:href="#0a0abdc0j" x="216.669" y="266"/><use xlink:href="#0a0abdc0k" x="223.336" y="266"/><use xlink:href="#0a0abdc0u" x="230.003" y="266"/><use xlink:href="#0a0abdc0t" x="236.67" y="266"/><use xlink:href="#0a0abdc0v" x="243.337" y="266"/><use xlink:href="#0a0abdc0g" x="250.004" y="266"/><use xlink:href="#0a0abdc0w" x="256.671" y="266"/><use xlink:href="#0a0abdc0x" x="263.338" y="266"/><use xlink:href="#0a0abdc0r" x="270.005" y="266"/><use xlink:href="#0a0abdc0w" x="276.672" y="266"/><use xlink:href="#0a0abdc0k" x="283.339" y="266"/><use xlink:href="#0a0abdc0y" x="290.006" y="266"/><use xlink:href="#0a0abdc0x" x="296.673" y="266"/><use xlink:href="#0a0abdc0z" x="303.34" y="266"/><use xlink:href="#0a0abdc0r" x="310.007" y="266"/><use xlink:href="#0a0abdc0i" x="316.674" y="266"/><use xlink:href="#0a0abdc0s" x="323.341" y="266"/><use xlink:href="#0a0abdc0t" x="330.008" y="266"/><use xlink:href="#0a0abdc0g" x="336.675" y="266"/><use xlink:href="#0a0abdc0A" x="343.342" y="266"/><use xlink:href="#0a0abdc0k" x="350.009" y="266"/><use xlink:href="#0a0abdc0B" x="356.676" y="266"/><use xlink:href="#0a0abdc0r" x="363.343" y="266"/><use xlink:href="#0a0abdc0y" x="370.01" y="266"/><use xlink:href="#0a0abdc0C" x="376.677" y="266"/><use xlink:href="#0a0abdc0r" x="383.344" y="266"/><use xlink:href="#0a0abdc0D" x="390.011" y="266"/><use xlink:href="#0a0abdc0A" x="396.678" y="266"/><use xlink:href="#0a0abdc0k" x="403.345" y="266"/><use xlink:href="#0a0abdc0E" x="410.012" y="266"/><use xlink:href="#0a0abdc0w" x="416.679" y="266"/><use xlink:href="#0a0abdc0F" x="423.346" y="266"/></g></svg>