<?xml version='1.0' encoding='UTF-8'?>
<svg xmlns="http://www.w3.org/2000/svg" xmlns:xlink="http://www.w3.org/1999/xlink" width="500px" height="480px" viewBox="0 0 500 480" x="0px" y="0px" enable-background="new 0 0 500 480"><defs><symbol overflow="visible" id="41deb269a"><path d="M17.95-2.2c-5.5 0-8-4.1-8-10.9v-14.1c0-3.46.64-5.6.64-5.6a9 9 0 00-3.8-.7c-2.13 0-4.13.5-5.88 1.25 0 .6.14 1.1.43 1.55l4.16.3c-.1.9-.16 1.8-.16 3.2v14.1C5.34-3.7 10.04.6 17.95.6c4.6 0 8.1-1.44 10.2-4.5a8.74 8.74 0 004.7 4.15 10.66 10.66 0 003.1-4.9l-6.5-1.6c.7-1.9 1.1-4.16 1.1-6.84v-11.86c0-5.3.4-8.46.4-8.46-2.75-.39-5.2.36-6.65 1.61l1.65 3.3v15.4c0 6.8-2.5 10.9-8 10.9zm0 0"/></symbol><symbol overflow="visible" id="41deb269b"><path d="M20.34-13.6v7.55c0 3.46-.64 5.6-.64 5.6.85.4 2.1.7 3.8.7 2.1 0 3.8-.45 5.55-1.25.25-.5.3-1 .15-1.55l-4.7-.4c.05-.75.1-1.6.1-2.85v-8.5c0-6-2.65-8.8-6.85-8.8-3.4 0-6.25 1.8-8.55 4.94l-.04-.04.93-3.6c-.84-.4-1.75-.7-3.39-.7-2.15 0-4.04.5-5.8 1.25 0 .6.15 1.1.44 1.55l4.2.3c-.09.85-.13 1.8-.13 3.2V7.7c0 3.46-.66 5.6-.66 5.6.84.4 2.1.7 3.8.7 2.1 0 3.8-.45 5.54-1.25.25-.5.32-1 .16-1.55l-4.7-.4c.04-.75.1-1.6.1-2.85v-24.1c2.5-2.35 4.8-3.35 6.65-3.35 2.5 0 4.04 1.75 4.04 5.9zm0 0"/></symbol><symbol overflow="visible" id="41deb269c"><path d="M11.5.6c3.4 0 6.25-1.8 8.55-4.94l.1.04-1 4.05s1.05.5 3.2.5c2.5 0 4.5-.7 5.74-1.3.25-.5.25-1.04.16-1.6l-4.4-.26v-11.75s-.9-.25-2-.25c-1.4 0-2.26.41-2.26.41v8.16C17.1-4 14.8-3 12.95-3c-2.5 0-4.04-1.75-4.04-5.9v-10.6h16.84c.25-1.1.3-2.3 0-3.5l-16.84.8V-30c0-3.45.64-5.7.64-5.7-.85-.4-2-.6-3.4-.6-2.2 0-4.2.5-5.95 1.25 0 .6.14 1.1.46 1.55l4.14.3c-.1.9-.14 1.8-.14 3.2v21.8c0 6 2.64 8.8 6.84 8.8zm0 0"/></symbol><symbol overflow="visible" id="41deb269d"><path d="M18.95 7.7c0 3.46-.65 5.6-.65 5.6.86.4 2.1.7 3.8.7 2.1 0 3.8-.45 5.56-1.25.25-.5.3-1 .14-1.55l-4.7-.4c.06-.75.1-1.6.1-2.85V0h5.85c.1-.4.15-1.7-.05-2.9-2.05.1-3.95.2-5.8.24V-21a21 21 0 00-8.86-2.1C6.6-23.1 2-17.33 2-10.5 2-3.5 6.8 0 15 0h3.95zM6.55-12.25c0-2.8.75-5.1 1.8-7.1 1-.35 2.2-.4 3-.4 3.2 0 5.85.9 7.6 2.2v15h-.5c-8 0-11.9-3.1-11.9-9.7zm0 0"/></symbol><symbol overflow="visible" id="41deb269f"><path d="M4.06-2.77c1.25-.04 1.92-.7 1.92-1.96 0-1.36-.7-2.04-2.17-2.04H.92V0h.97v-2.73h1.08L4.95 0h1.1zM1.9-6h1.7c1.07 0 1.46.34 1.46 1.28 0 .9-.44 1.27-1.47 1.27H1.89zm0 0"/></symbol><symbol overflow="visible" id="41deb269g"><path d="M5.75-2.23v-.43c0-1.6-.9-2.51-2.42-2.51S.87-4.16.87-2.48c0 1.71.91 2.62 2.5 2.62 1.43 0 2.07-.56 2.29-1.52l-.9-.09c-.18.61-.59.9-1.35.9-.94 0-1.52-.54-1.58-1.66zm-2.4-2.2c.93 0 1.43.5 1.48 1.55H1.84c.08-1.07.6-1.56 1.5-1.56zm0 0"/></symbol><symbol overflow="visible" id="41deb269h"><path d="M3.16 2.03c1.67 0 2.4-.86 2.4-2.51v-4.54h-.81l-.13.91h-.06c-.26-.58-.8-1.05-1.73-1.05-1.42 0-2.24 1-2.24 2.52 0 1.6.75 2.56 2.2 2.56.94 0 1.5-.5 1.77-1.03h.05v.72c0 1.17-.42 1.67-1.45 1.67-.93 0-1.3-.34-1.41-.89L.8.5c.12.96.87 1.54 2.36 1.54zM3.06-.8c-.98 0-1.48-.57-1.48-1.82 0-1.13.5-1.75 1.48-1.75 1.06 0 1.58.76 1.58 1.75 0 .95-.56 1.82-1.58 1.82zm0 0"/></symbol><symbol overflow="visible" id="41deb269i"><path d="M2.73.14c.9 0 1.43-.45 1.74-1.08h.06l.13.94h.8v-5.02h-.94v2.7c0 .98-.57 1.62-1.46 1.62-.75 0-1.1-.4-1.1-1.22v-3.1h-.93v3.32c0 1.17.55 1.84 1.7 1.84zm0 0"/></symbol><symbol overflow="visible" id="41deb269j"><path d="M3.92-7.14H1.36v.76h1.6v5.61H1.15V0H5.7v-.77H3.92zm0 0"/></symbol><symbol overflow="visible" id="41deb269k"><path d="M2.83.14c.94 0 1.5-.39 1.81-.95h.08l.1.81h.76v-3.38c0-1.23-.69-1.8-2.13-1.8-1.43 0-2.03.65-2.18 1.6l.93.1c.11-.6.44-.93 1.22-.93.85 0 1.22.32 1.22 1.04v.34l-1.81.2C1.6-2.7 1.1-2.17 1.1-1.28c0 .92.64 1.42 1.72 1.42zm.25-.77c-.67 0-1.02-.28-1.02-.74 0-.44.28-.72 1-.82l1.58-.19v.41c0 .8-.6 1.34-1.56 1.34zm0 0"/></symbol><symbol overflow="visible" id="41deb269l"><path d="M5.08-5.16c-.94 0-1.58.43-1.9 1.3h-.09l-.07-1.16H1.05v.77h1.1v3.48H.96V0h3.96v-.77H3.1v-1.46c0-1.36.6-2.05 1.83-2.05.4 0 .76.08 1.1.17l.15-.87c-.33-.11-.7-.18-1.11-.18zm0 0"/></symbol><symbol overflow="visible" id="41deb269q"><path d="M3.83-5.97h1.73v-.8H1.1v.8h1.75v5.19H1.1V0h4.47v-.78H3.83zm0 0"/></symbol><symbol overflow="visible" id="41deb269r"><path d="M5.52-4.25v-.77H3.17v-1.56h-.81l-.14 1.56H.75v.77h1.47v2.4c0 1.3.48 1.94 1.84 1.94C4.6.1 5.14 0 5.55-.14L5.4-.91c-.32.13-.72.2-1.13.2-.8 0-1.1-.37-1.1-1.23v-2.31zm0 0"/></symbol><symbol overflow="visible" id="41deb269s"><path d="M3.58-5.81c.42 0 .72-.22.72-.67 0-.44-.3-.68-.72-.68-.44 0-.72.24-.72.68 0 .45.28.67.72.67zm.5.8H1.52v.76h1.6v3.48h-1.8V0h4.46v-.77h-1.7zm0 0"/></symbol><symbol overflow="visible" id="41deb269t"><path d="M3.34.14c1.43 0 2.13-.66 2.25-1.78l-.89-.1c-.1.7-.5 1.08-1.34 1.08-1.03 0-1.52-.64-1.52-1.84 0-1.23.47-1.86 1.52-1.86.84 0 1.23.36 1.34 1.08l.9-.1c-.13-1.09-.82-1.78-2.26-1.78-1.56 0-2.46.97-2.46 2.66 0 1.66.9 2.64 2.46 2.64zm0 0"/></symbol><symbol overflow="visible" id="41deb269y"><path d="M3.42.14c1.61 0 2.56-.75 2.56-2 0-1.1-.67-1.6-1.95-1.86l-.97-.2c-.87-.17-1.23-.49-1.23-1.11 0-.7.54-1.11 1.5-1.11 1.06 0 1.51.34 1.69 1.23l.9-.09c-.17-1.28-.98-1.9-2.6-1.9C1.79-6.9.9-6.18.9-4.98c0 1.06.66 1.66 1.88 1.9l1.01.2c.85.17 1.25.4 1.25 1.09 0 .73-.6 1.16-1.6 1.16-1.07 0-1.66-.4-1.8-1.24l-.94.1C.83-.53 1.75.13 3.42.13zm0 0"/></symbol><symbol overflow="visible" id="41deb269z"><path d="M1.63 0v-2.9c0-.8.15-1.4.71-1.4.41 0 .55.3.55.88V0h.95v-2.9c0-.8.18-1.4.72-1.4.4 0 .57.3.57.88V0h.95v-3.63c0-.92-.28-1.53-1.11-1.53-.63 0-.95.41-1.1.9h-.06c-.1-.52-.44-.9-1.08-.9-.6 0-.93.41-1.06.9H1.6l-.23-.76H.67V0zm0 0"/></symbol><symbol overflow="visible" id="41deb269A"><path d="M3.9.14c1.48 0 2.18-.98 2.18-2.64 0-1.67-.7-2.66-2.17-2.66-.91 0-1.49.41-1.79 1h-.06v-2.98h-.95V0h.81l.11-.9h.06c.29.63.82 1.04 1.82 1.04zm-.32-.8c-1.08 0-1.55-.8-1.55-1.84 0-1.06.47-1.86 1.55-1.86 1.1 0 1.51.61 1.51 1.86S4.64-.66 3.58-.66zm0 0"/></symbol><symbol overflow="visible" id="41deb269B"><path d="M3.33.14c1.62 0 2.5-.95 2.5-2.66 0-1.68-.88-2.64-2.5-2.64-1.63 0-2.5.96-2.5 2.64 0 1.7.87 2.66 2.5 2.66zm0-.77c-1.06 0-1.52-.6-1.52-1.89 0-1.28.46-1.87 1.52-1.87 1.08 0 1.53.6 1.53 1.87 0 1.29-.45 1.9-1.53 1.9zm0 0"/></symbol><symbol overflow="visible" id="41deb269C"><path d="M2.84.14C3.8.14 4.33-.26 4.6-.9h.07L4.8 0h.76v-7.14h-.95v2.95h-.08c-.28-.6-.86-.97-1.67-.97-1.48 0-2.27.99-2.27 2.64C.6-.84 1.36.14 2.84.14zm.22-.8c-.98 0-1.48-.59-1.48-1.84s.5-1.86 1.48-1.86c1.13 0 1.58.8 1.58 1.86S4.2-.66 3.06-.66zm0 0"/></symbol><symbol overflow="visible" id="41deb269L"><path d="M4.66-3.45c.76-.14 1.15-.67 1.15-1.57 0-1.07-.64-1.75-2.18-1.75H.92V0h2.71C5.2 0 5.98-.64 5.98-1.77c0-1.03-.56-1.43-1.32-1.59zM3.56-6c.9 0 1.31.4 1.31 1.13 0 .71-.4 1.14-1.3 1.14h-1.7V-6zM1.87-.75v-2.27H3.6c.97 0 1.44.33 1.44 1.13 0 .8-.47 1.14-1.44 1.14zm0 0"/></symbol><symbol overflow="visible" id="41deb269U"><path d="M5.92-6.77H1.1V0h4.83v-.8H2.06v-2.26h3.22v-.75H2.06v-2.16h3.86zm0 0"/></symbol><symbol overflow="visible" id="41deb269V"><path d="M1.83 0l1.42-2h.06l1.46 2H5.8L4-2.53l1.78-2.49H4.8L3.42-3.08h-.08l-1.4-1.94H.89l1.78 2.49L.84 0zm0 0"/></symbol><symbol overflow="visible" id="41deb269m"><path d="M11.25-33.5c-2.34 0-6.8 2.55-7.75 3.55.1.54.66 1.3 1.2 1.54l1.75-.64c.9-.36 1.75-.6 2.46-.8l-1.66 15.1c-.34 3.2-.4 4.45-.4 5.2 0 8.05 6.2 10.3 9.24 10.3 2.2 0 5.7-1.16 8.91-3.84C27.16-1.16 29.6-.2 31.16.25c0 0 1.59-1 2.3-3.66a24.83 24.83 0 01-5.55-2.68c2.64-3.5 4.64-8.46 4.64-15.25 0-4.7-.96-9.82-2.6-12a3.7 3.7 0 00-1.7.04c-4.6 5.64-7.5 12.9-7.5 19.35 0 4.04 1.16 6.95 2.7 9.1A13.9 13.9 0 0117.8-2c-4.7-.4-6.55-3.16-6.55-8 0-1.1.1-2.05.45-5.16l1.46-13.68c.3-2.7-.66-4-1.91-4.66zM23.5-14.84c0-4.7 1.7-10.46 4.25-14.57.55 1.66 1.1 5.2 1.1 9.11 0 5.85-1.2 9.8-2.9 12.55C24.1-9.7 23.5-12 23.5-14.85zm0 0"/></symbol><symbol overflow="visible" id="41deb269n"><path d="M3.3 14.25c.36.16.9.2 1.3.2 1.06 0 1.74-.4 2.3-1 .9-4.04 2.65-20 3.2-26.15 2.2-3.4 5.7-6.05 8.2-7.5.4.6.5 1.3.5 2.15 0 .96-.14 1.9-.25 2.7l-.96 6.7c-.3 2.1-.54 3.9-.54 5.24C17.05-1 17.9.34 19.7.34 22 .34 25.3-1.8 26.1-3c0-.6-.2-1.25-.5-1.7-1.4.7-3.15 1.36-4.65 1.86.1-1.41.25-3.07.5-4.75l.96-6.7c.14-.91.34-2.91.34-4.21 0-3.45-1.45-5.75-2.8-5.75-1.75 0-6.5 3.66-10.25 9.2l-.15-.1c.4-1.1.86-2.55.86-4.3s-.46-3.3-1.91-4.05c-2.34 0-6.8 2.55-7.75 3.55.1.45.5 1.1.95 1.4l2.05-.75c.75-.3 1.95-.65 3.1-.9.1 3.4.15 6.95-.15 10.45-1.9 5.9-3.4 18.05-3.4 24zm0 0"/></symbol><symbol overflow="visible" id="41deb269o"><path d="M6.5.75c1.7 0 6.34-3.45 10.2-9.2l.2.1c-.4 1.1-.85 3.3-.85 4.94 0 2.5 1 3.75 2.75 3.75C21 .34 24.3-1.7 25.2-3c0-.6-.2-1.25-.5-1.7-1.65.8-3.7 1.6-5.3 2.04.05-3.64.3-6.89.65-10.04.45-1.1.65-2.1.65-2.8a4.86 4.86 0 00-1.45-.2c-1.05 0-1.95.4-2.5.95-.2.84-.34 2.16-.2 3.45a23.7 23.7 0 01-8.2 7.9c-.4-.8-.65-2-.65-3.65 0-2.9.7-7.5 1.46-12.1 6.39-.1 11.93-.35 14.18-.85.46-1.05.61-2.1.41-3.25-4.2.95-8.25 1.55-14.2 1.7C10.3-26.2 11-30.59 11-33.2c0-2.6-.7-3.2-1.75-3.85-2.34 0-6.8 2.55-7.75 3.55.1.45.5 1.1.95 1.4l2.05-.74c.7-.25 1.75-.61 2.8-.86-.05 5.75-3.46 21.2-3.46 27.9C3.84-1.7 5.1.75 6.5.75zm0 0"/></symbol><symbol overflow="visible" id="41deb269p"><path d="M25.55-6.1c-.64-.1-1.25-.15-1.85-.15-2.1 0-3.9.7-5.36 1.84l.91-8.75c1.2-3.5 1.55-6.54 1.55-9.75-1-.14-2 .07-2.75.5a11.63 11.63 0 00-5.96-1.84C7.5-24.25 2-16.5 2-7.25c0 5.2 2.84 8 4.9 8 1.85 0 5.9-3.4 9.15-8.25l.2.1c-.45.8-.9 2.4-1.2 5.1l-.2 1.85c-1.55 3.86-2 8.95-2 14.7.35.16.85.2 1.35.2.96 0 1.75-.45 2.3-1.04L18.16-2.5c2.8-.4 5.04-.2 6.84.2.45-1.15.55-2.6.55-3.8zM5.8-8.8c0-4.5 1.3-8.95 4.75-13.2 1.95.3 4.2 1.2 6.15 2.5-.1 4.05-.4 7.16-1.04 9.8-2.5 3.3-5.61 5.75-7.86 6.9-1.25-1.3-2-3.5-2-6zm0 0"/></symbol><symbol overflow="visible" id="41deb269u"><path d="M18.2-3c-4.8 0-7-3.66-7-10.1v-13.1c0-3.46.55-5.9.64-6.75-.93-.46-2.39-.85-4.43-.85-2.46 0-4.7.55-6.46 1.35 0 .86.1 1.6.5 2.3l3.7.35c-.1 1-.15 2.14-.15 3.6v13.4C5-3.75 10 .66 18.05.66c4.6 0 8.15-1.46 10.4-4.25A11.2 11.2 0 0033.5.3a9.88 9.88 0 003.16-5.64l-6.5-1.16a19.24 19.24 0 001.18-6.95v-10.1c0-6.7.41-10.04.41-10.04-3.25-.61-6.55.3-8.3 1.8l1.7 3.7v15C25.16-6.66 23-3 18.2-3zm0 0"/></symbol><symbol overflow="visible" id="41deb269v"><path d="M19.7-13.75v6.8a27 27 0 01-.75 6.5c1.05.4 2.4.7 4.2.7 2.26 0 4.1-.45 5.9-1.3.4-.75.45-1.5.36-2.3l-4.11-.4c.1-.84.15-1.84.15-3v-7.84c0-5.86-2.7-8.61-6.95-8.61-3.75 0-6.75 2.15-8.55 5.3L9.7-18l.96-3.84a8.36 8.36 0 00-3.86-.82c-2.3 0-4.4.57-6.14 1.36 0 .8.09 1.6.5 2.3l3.68.3c-.09 1.04-.14 2.2-.14 3.65v21.8a27 27 0 01-.75 6.5c1.05.4 2.4.7 4.3.7 2.25 0 4.25-.45 6.2-1.3.35-.74.4-1.56.3-2.35l-4.4-.35c.1-.9.15-1.86.15-3V-15.9c2.05-1.84 4.05-2.75 5.75-2.75 2.1 0 3.45 1.41 3.45 4.91zm0 0"/></symbol><symbol overflow="visible" id="41deb269w"><path d="M11.05.66c3.75 0 6.75-2.16 8.54-5.36l.25.1L18.8-.3a13.14 13.14 0 009.5-.75c.4-.8.4-1.6.36-2.4l-3.86-.2v-10.8c-.5-.1-1.6-.3-2.8-.3-1.45 0-2.55.3-2.95.4v7.7c-2.1 1.9-4 2.74-5.7 2.74-2.15 0-3.5-1.39-3.5-4.89V-19h16.3c.3-1.34.35-2.75-.06-4.25l-16.25.95v-6.45c0-3.45.57-5.95.7-6.75-1-.5-2.34-.8-4.04-.8-2.34 0-4.7.55-6.45 1.35 0 .8.15 1.6.54 2.3l3.7.3a26.3 26.3 0 00-.2 3.6v20.8c0 5.86 2.7 8.6 6.96 8.6zm0 0"/></symbol><symbol overflow="visible" id="41deb269x"><path d="M18.34 6.75a27 27 0 01-.75 6.5c1.07.4 2.41.7 4.2.7 2.26 0 4.41-.5 6.21-1.3.4-.74.45-1.56.34-2.35l-4.43-.35c.09-.9.09-1.86.09-3V.15h5.3c.15-.74.2-2.2-.05-3.5-1.7.05-3.5.15-5.25.2v-17.9a20.81 20.81 0 00-9.1-2.15c-8.2 0-13.2 5.9-13.2 12.86C1.7-3.41 6.55.16 15.16.16h3.18zm-10.5-18.9c0-2.8.75-5.26 1.82-7.3.54-.1 1.04-.1 1.39-.1 2.86 0 5.36.8 7.3 2V-3h-.26C11.6-3 7.84-5.9 7.84-12.16zm0 0"/></symbol><symbol overflow="visible" id="41deb269D"><path d="M11.45-33.8c-2.6 0-7.36 2.6-8.45 3.64.1.91.66 2 1.3 2.57l1.45-.5c.8-.32 1.6-.5 2.3-.7L6.5-14.5c-.3 3-.34 4.05-.34 4.8C6.16-1.55 12.55.75 15.8.75c2.36 0 5.75-1.2 8.86-3.84 2.04 2 4.54 3 6.54 3.3.35-.66 1.7-2.21 2.2-4.8-2.24-.75-4-1.5-5.3-2.41 2.65-3.75 4.56-9.1 4.56-16.25 0-4.55-.82-8.7-2-10.25a6.45 6.45 0 00-3.41.16c-3.95 5.75-6.6 12.93-6.6 19.34 0 3.5.8 6.25 2.05 8.34a13.47 13.47 0 01-5.25 2.82c-3.86-.46-5.4-3.07-5.4-7.5 0-1 .1-2 .45-5.16l1.34-12.75c.41-3.3-.84-4.75-2.39-5.55zM24.6-13.84c0-3.91 1-8.46 2.57-12.16.25 1.6.43 3.7.43 5.95 0 4.64-.8 8.05-2 10.5-.68-1.2-1-2.65-1-4.3zm0 0"/></symbol><symbol overflow="visible" id="41deb269E"><path d="M2.66 14.2c.25.14 1 .3 1.75.3 1.18 0 2.3-.45 3.18-1.45C8.6 7.9 10.25-6.2 10.7-12.6a22.14 22.14 0 017.25-6.7c.25.5.4 1.09.4 1.79-.05.8-.15 1.66-.26 2.66L17.2-8.7a30.7 30.7 0 00-.54 4.8c0 2.85 1.18 4.3 3.18 4.3 2.41 0 5.82-2.1 6.86-3.6-.04-.8-.3-1.64-.75-2.35-1.25.6-2.75 1.2-4.04 1.64.04-1.25.18-2.64.43-4.04l.91-6.14c.16-.96.34-2.91.34-4.16 0-3.75-1.59-6.16-3.43-6.16-1.57 0-6.32 3.2-9.96 9.16l-.25-.16c.4-1 .85-2.34.85-4.09s-.46-3.4-2-4.2c-2.46 0-6.75 2.3-8.2 3.5.1.9.56 1.7 1.06 2.25l1.8-.6c.7-.25 1.59-.5 2.59-.7.15 2.9.25 6.3-.1 9.84C4-3.5 2.5 7.84 2.65 14.2zm0 0"/></symbol><symbol overflow="visible" id="41deb269F"><path d="M6.66.75c1.54 0 6.3-3.1 10.09-9.25l.2.16c-.5 1.25-1 3.25-1 4.89C15.95-1 17 .4 19 .4c2.34 0 5.7-2.07 6.84-3.66a4.71 4.71 0 00-.75-2.3c-1.39.7-3.09 1.3-4.59 1.75.05-2.95.2-5.65.45-8.3a7 7 0 00.8-3.24c-.7-.25-1.5-.32-2.1-.32-1.7 0-2.8.75-3.2 1.16-.2.95-.3 2.1-.15 3.25-2 3.16-5 5.6-7.3 6.9C8.7-5 8.5-6 8.5-7.4c0-2.68.7-7.04 1.4-11.5 5.85.07 10.9-.18 14.26-.64.43-1.3.59-2.65.3-4.1-4.5.95-8.66 1.56-14.05 1.74.64-4.14 1.25-8.09 1.25-10.5 0-3.14-1-4.04-2.07-4.64-2.54 0-7 2.3-8.43 3.55.09.84.54 1.75 1.04 2.25l1.8-.66c.66-.25 1.6-.5 2.66-.68C6.5-26.2 3.34-13.25 3.34-6.41 3.34-1.8 4.7.75 6.66.75zm0 0"/></symbol><symbol overflow="visible" id="41deb269G"><path d="M26.2-6.6a7.81 7.81 0 00-6.6 1.69l.95-9.39c1.04-2.9 1.6-5.86 1.4-8.75a5.48 5.48 0 00-3.6.5c-1.6-.9-3.76-1.86-5.9-1.86-4.8 0-10.75 7.86-10.75 16.86C1.7-2 4.95.75 7.16.75 9.55.75 13.46-3.2 16-7.3l.3.14C15.55-5.75 14.95-4 14.66-.55L14.5.91c-1.25 3.25-2.1 7.68-1.84 13.3.25.09 1 .29 1.8.29 1.2 0 2.38-.45 3.24-1.5l1.6-15.34c2.6-.2 4.7.09 6.36.54.5-1.45.75-3.15.54-4.8zM7.05-9.33c0-4.2 1.3-8.36 4.1-12.25 1.7.43 3.6 1.5 5.3 2.8-.1 3.5-.4 6.5-.95 9.13a24.46 24.46 0 01-6.6 5.82C7.76-5 7.06-6.95 7.06-9.34zm0 0"/></symbol><symbol overflow="visible" id="41deb269H"><path d="M18.5-4c-4 0-5.8-3.1-5.8-9.05V-25c0-3.5.46-6.3.7-8.1-1.15-.56-2.8-1-5.24-1-2.86 0-5.41.6-7.2 1.4 0 1.1.09 2.2.59 3.2l3.2.34c-.16 1.2-.2 2.61-.2 4.16v12.55C4.55-3.85 9.9.7 18.2.7c4.55 0 8.05-1.36 10.46-3.86C30.96-.9 33.46.1 34.25.34c2.05-1.64 3-4.14 3.25-6.59L31-6.8c.84-2 1.25-4.36 1.25-7.04v-8c0-8.41.45-11.96.45-11.96-3.8-.86-8.15.14-10.25 1.96l1.8 4.25v14.54c0 5.96-1.8 9.05-5.75 9.05zm0 0"/></symbol><symbol overflow="visible" id="41deb269I"><path d="M18.9-13.95V-8c0 3-.45 5.95-.85 7.55a16.12 16.12 0 0011.05-.6c.5-1.1.56-2.2.5-3.25l-3.26-.4c.07-1 .11-2.05.11-3.2v-7c0-5.7-2.75-8.44-7.04-8.44-4.11 0-7.32 2.5-8.75 5.68l-.25-.14.93-4.15c-1.09-.5-2.43-.85-4.39-.85-2.5 0-4.86.6-6.65 1.46 0 1.04.1 2.14.6 3.18l3.2.32c-.15 1.25-.26 2.59-.26 4.14V5.6c0 3-.39 5.95-.8 7.56 1.26.39 2.71.68 4.8.68a18 18 0 007-1.3c.57-1.09.61-2.2.5-3.29l-3.93-.34c.09-1 .14-2.11.14-3.2v-21.3a7.16 7.16 0 014.6-2.07c1.7 0 2.76 1.07 2.76 3.7zm0 0"/></symbol><symbol overflow="visible" id="41deb269J"><path d="M10.5.7c4.1 0 7.3-2.5 8.8-5.7l.25.1-1.1 4.56c.9.34 2.6.59 4.1.59 2.1 0 4.25-.4 6-1.34.54-1.07.6-2.2.54-3.25l-3.18-.25v-9.61c-1-.2-2.36-.4-3.75-.4-1.5 0-2.86.26-3.82.44v7.11C16.95-5.8 15.41-5 13.8-5 12.05-5 11-6 11-8.66v-9.75h15.6c.35-1.64.45-3.34-.05-5.09L11-22.45v-4.75c0-3.5.45-6.3.7-8.1-1.15-.6-2.75-1-4.8-1-2.56 0-5.24.6-7 1.46 0 1.09.1 2.18.6 3.18l3.16.32a45 45 0 00-.2 4.14v19.5C3.45-2 6.2.7 10.5.7zm0 0"/></symbol><symbol overflow="visible" id="41deb269K"><path d="M17.6 5.6c0 3-.4 5.95-.85 7.56 1.3.39 2.8.68 4.75.68 2.4 0 5-.5 6.95-1.3.55-1.09.6-2.2.55-3.29l-4.1-.34c.05-1 .1-2.11.1-3.2V.33h4.6a11 11 0 000-4.3c-1.44.12-3 .16-4.6.26v-17.35a20.68 20.68 0 00-9.4-2.3c-8.76 0-14.2 6.1-14.2 13.2C1.4-3.3 6.2.34 15.3.34h2.3zM9.4-12.06c0-2.65.65-5.15 1.7-7.25 2.35.05 4.56.8 6.5 1.85v13.9c-4.65 0-8.2-2.6-8.2-8.5zm0 0"/></symbol><symbol overflow="visible" id="41deb269M"><path d="M11.7-34.1c-2.9 0-8.04 2.6-9.25 3.76a6.9 6.9 0 001.3 3.75l1.1-.36c.74-.25 1.5-.46 2.2-.6l-1.4 13.4a36.62 36.62 0 00-.35 4.24C5.3-1.55 11.9.75 15.45.75c2.55 0 5.8-1.2 8.85-3.84A10.44 10.44 0 0031.2.16c.85-1.41 1.85-3.61 2.1-6.2-2.2-.62-3.8-1.21-4.96-1.91 2.61-4.2 4.41-9.96 4.41-17.55 0-4.34-.66-7.4-1.25-8.2-1.9-.5-3.7-.3-5.45.36-3.14 5.84-5.5 12.93-5.5 19.3 0 2.88.5 5.34 1.36 7.34a13.66 13.66 0 01-4.86 2.86c-2.9-.57-4.05-3-4.05-6.91 0-.95.05-1.95.45-5.2l1.3-11.6c.45-3.95-1.1-5.6-3.05-6.54zm0 0"/></symbol><symbol overflow="visible" id="41deb269N"><path d="M1.84 14.2c.11.05 1.11.35 2.32.35 1.43 0 3-.46 4.3-2a288.1 288.1 0 003-25.05c1.84-2.8 4.2-4.66 6.04-5.75.16.4.25.84.25 1.4 0 .7-.05 1.4-.25 2.6l-.84 5.45c-.41 2.2-.57 3.3-.5 4.35-.07 3.4 1.64 4.9 3.84 4.9 2.5 0 6-2.04 7.4-3.9a7.75 7.75 0 00-1-3.1c-1.1.5-2.3 1-3.4 1.35.1-1 .2-2.1.4-3.2l.85-5.44c.16-1.07.34-2.91.34-4.11 0-4.05-1.75-6.6-4.18-6.6-1.36 0-6.07 2.7-9.66 9l-.3-.15c.35-.85.9-2.1.9-3.85 0-1.8-.55-3.5-2.2-4.4-2.6 0-6.7 2-8.7 3.5.05 1.36.6 2.4 1.14 3.25l1.46-.5c.6-.2 1.36-.35 2.1-.5.2 2.54.26 5.75-.06 9.25C3.05-3.15 1.5 7.3 1.84 14.2zm0 0"/></symbol><symbol overflow="visible" id="41deb269O"><path d="M6.84.75c1.36 0 6.25-2.8 9.96-9.25l.25.16a12.44 12.44 0 00-1.2 4.84C15.84-1.1 17 .45 19.2.45c2.5 0 5.96-2 7.4-3.95a6.08 6.08 0 00-1-3.05 27.93 27.93 0 01-3.76 1.46c0-2.25.11-4.32.25-6.41.7-1.2.96-2.34.96-3.66a9.35 9.35 0 00-2.85-.43c-2.6 0-3.9 1.25-4.1 1.43-.2.91-.3 2-.1 2.96a19.98 19.98 0 01-6.2 5.7c-.2-.55-.35-1.3-.35-2.34 0-2.41.64-6.5 1.35-10.7 5.15.13 9.8-.05 14.3-.46.4-1.66.56-3.34.15-5.2a74.8 74.8 0 01-13.84 1.8c.54-3.55 1.04-6.9 1.04-9.1 0-3.8-1.4-4.95-2.45-5.55-2.8 0-7.25 2-9.25 3.5.05 1.35.55 2.6 1.1 3.3l1.5-.5a12.8 12.8 0 012.5-.6c-.2 6.94-3.1 17.2-3.1 24.26 0 5.14 1.5 7.84 4.1 7.84zm0 0"/></symbol><symbol overflow="visible" id="41deb269P"><path d="M26.95-7.2c-.45-.1-.86-.1-1.25-.1-1.9 0-3.4.75-4.65 1.75L22-14.8c1.1-2.75 1.7-5.7 1.3-8.45a7.07 7.07 0 00-4.6.5c-1.6-.84-3.86-1.8-5.8-1.8-5.1 0-11.6 7.96-11.6 16.64C1.3-1.95 5.05.75 7.45.75 10.41.75 14.1-3.59 16-7l.3.16c-1 2.09-1.75 3.89-2.1 8.04-1.3 3-2.3 7.25-1.8 12.96.15.04 1.15.39 2.4.39 1.4 0 3.1-.5 4.4-2l1.5-14.7c2.3 0 4.25.45 5.7.95.6-1.8 1-3.75.55-6zM8.6-10.05c0-3.75 1.16-7.5 3.25-10.95 1.41.6 2.91 1.6 4.36 2.84-.1 3.07-.4 5.96-.9 8.5a20.42 20.42 0 01-5.05 4.5C9.2-6.05 8.59-7.7 8.59-10.05zm0 0"/></symbol><symbol overflow="visible" id="41deb269Q"><path d="M18.8-5.1c-3.05 0-4.4-2.5-4.4-7.95V-23.7c0-3.5.3-6.7.7-9.55-1.3-.7-3.2-1.25-6.1-1.25-3.3 0-6.2.7-8 1.55 0 1.4.05 2.86.7 4.2l2.55.3c-.1 1.5-.2 3.04-.2 4.75v11.65c0 8.1 5.75 12.8 14.3 12.8 4.4 0 7.85-1.25 10.35-3.4 3.1 2.5 6.4 3.1 6.4 3.1 2.4-1.95 3.35-4.95 3.35-7.65h-6.5c.9-2.05 1.35-4.46 1.35-7.1V-20c0-10.25.5-14.05.5-14.05-4.5-1.1-10 .05-12.46 2.2l1.86 4.76v14.04c0 5.46-1.36 7.96-4.4 7.96zm0 0"/></symbol><symbol overflow="visible" id="41deb269R"><path d="M18-14.2v5.04c0 2.7-.3 6.11-.95 8.7 1.5.41 3.2.71 5.25.71 2.6 0 4.75-.5 6.8-1.34.7-1.46.74-2.91.74-4.32l-2.39-.34c.1-1.16.1-2.34.1-3.4v-6.15c0-5.5-2.75-8.2-7.14-8.2-4.41 0-7.86 2.7-9.11 6l-.14-.05.93-4.5c-1.25-.54-2.89-.95-5-.95-2.75 0-5.34.7-7.14 1.55 0 1.4.05 2.86.7 4.2l2.55.3c-.15 1.5-.25 3.1-.25 4.75V4.34c0 2.7-.3 6.11-.95 8.7 1.5.41 3.1.71 5.45.71 2.6 0 5.5-.34 7.85-1.34.7-1.46.75-2.91.75-4.32l-3.55-.34c.16-1.16.2-2.34.2-3.4V-15.3c.64-.5 2.05-1.2 3.35-1.2 1.2 0 1.95.6 1.95 2.3zm0 0"/></symbol><symbol overflow="visible" id="41deb269S"><path d="M9.9.75a9.7 9.7 0 009.15-6.05h.1L18-.45c1.5.6 3.55.7 4.7.7a13 13 0 006.14-1.34c.7-1.46.75-2.91.75-4.32l-2.43-.18v-8.32a23.76 23.76 0 00-4.86-.54c-1.55 0-3.14.2-4.7.54v6.5c-.9.61-1.9 1.2-3.26 1.2-1.3 0-2.04-.54-2.04-2.29v-9.25h14.8c.45-2 .56-3.95-.05-6.05L12.3-22.55v-2.95c0-3.5.3-6.7.7-9.55-1.3-.7-3.2-1.25-5.66-1.25-2.75 0-5.84.7-7.64 1.55 0 1.4.05 2.84.7 4.2l2.6.3a44.55 44.55 0 00-.25 4.75v18.1C2.75-1.9 5.5.74 9.91.74zm0 0"/></symbol><symbol overflow="visible" id="41deb269T"><path d="M16.8 4.34c0 2.7-.3 6.11-.96 8.7 1.5.41 3.2.71 5.25.71 2.61 0 5.82-.5 7.86-1.34.7-1.46.75-2.91.75-4.32l-3.75-.34c.1-1.2.14-2.34.14-3.4V.58h3.86c.3-1.64.35-3.5 0-5.14-1.15.05-2.45.1-3.86.14v-16.68c-1.84-1.11-5.5-2.41-9.75-2.41C7-23.5 1-17.16 1-9.9 1-3.17 5.84.6 15.45.6h1.35zm-5.7-16.3c0-2.34.56-4.84 1.45-6.88 1.45.3 2.86.84 4.25 1.5v13.18c-2.6-.18-5.7-2.54-5.7-7.8zm0 0"/></symbol><symbol overflow="visible" id="41deb269W"><path d="M12-34.5c-3.3 0-8.84 2.66-10.2 3.9 0 1.76.5 3.7 1.4 5.1l.7-.2c.65-.2 1.35-.35 2-.5L4.67-13.8c-.25 2.35-.32 3-.32 3.7C4.34-1.6 11.2.76 15.04.76c2.76 0 5.91-1.2 8.8-3.75A9.65 9.65 0 0031.25.1a15.7 15.7 0 001.95-7.76c-2.25-.34-3.75-.68-4.65-1.3 2.54-4.59 4.3-10.84 4.3-19.04 0-4.16-.44-5.95-.44-5.95-2.7-.64-5.2-.4-7.66.54-2.3 6-4.34 13-4.34 19.32 0 2.25.25 4.3.75 6.04A13.1 13.1 0 0116.7-5c-1.9-.66-2.65-2.95-2.65-6.2 0-.85.04-1.9.45-5.25l1.2-10.3c.55-4.75-1.36-6.55-3.7-7.75zm0 0"/></symbol><symbol overflow="visible" id="41deb269X"><path d="M.95 14.16s1.25.5 2.9.5c1.7 0 3.8-.57 5.56-2.66 1.18-7.9 2.54-16.9 2.89-24.34a14.15 14.15 0 014.7-4.7c.1.24.16.59.16.95-.07.5-.07 1.04-.25 2.54l-.82 4.64c-.43 2.32-.54 2.96-.5 3.82-.04 4 2.11 5.64 4.57 5.64 2.64 0 6.3-2.05 8-4.3a9.66 9.66 0 00-1.32-3.9c-.84.4-1.75.74-2.59 1.06.1-.75.2-1.57.34-2.32l.82-4.64c.14-1.15.3-2.9.34-4.04-.05-4.46-1.95-7.16-5.1-7.16-1.1 0-5.8 2.34-9.4 8.84l-.25-.14c.34-.7.9-1.86.9-3.6 0-1.8-.6-3.55-2.35-4.6-2.75 0-6.64 1.7-9.25 3.5 0 1.9.6 3.16 1.2 4.4l1.16-.35c.43-.14 1-.25 1.59-.4.16 2.4.2 5.35-.1 8.6C2-2.75.42 6.66.96 14.16zm0 0"/></symbol><symbol overflow="visible" id="41deb269Y"><path d="M7.1.75c1.15 0 6.15-2.45 9.8-9.25l.26.16C16.3-6.66 15.7-5.25 15.7-3.6c0 2.39 1.25 4.14 3.75 4.14 2.7 0 6.25-2 8-4.35a9.23 9.23 0 00-1.3-3.9c-.9.45-1.85.8-2.85 1.1 0-1.45.04-2.85.1-4.35.8-1.14 1.05-2.35 1.05-4a12.2 12.2 0 00-3.7-.6c-3.5 0-5.05 1.75-5.05 1.75-.2.9-.25 1.85-.1 2.64a15.5 15.5 0 01-4.85 4.36c-.16-.36-.2-.86-.2-1.5 0-2.1.6-5.86 1.25-9.8 4.5.2 8.86.1 14.36-.3.39-2 .54-4.1 0-6.35a87.06 87.06 0 01-13.61 1.84c.4-2.89.75-5.59.75-7.54 0-4.55-1.8-6.05-2.85-6.6-3.1 0-7.54 1.7-10.15 3.5 0 1.85.6 3.46 1.2 4.4l1.16-.35c.64-.2 1.43-.4 2.34-.5-.25 7.4-2.95 14.84-2.95 22.16C2.05-2.1 3.7.75 7.09.75zm0 0"/></symbol><symbol overflow="visible" id="41deb269Z"><path d="M27.8-7.9c-.3-.05-.6-.05-.9-.05-1.7 0-3.06.7-4.2 1.65l.9-8.65c1.15-2.75 1.74-5.8 1.2-8.5-2.1-.5-4-.3-5.75.45-1.64-.84-3.85-1.75-5.64-1.75C8-24.75.9-16.65.9-8.3.9-1.84 5.16.75 7.75.75c3.45 0 6.9-4.45 8.34-7.4l.25.15A22.84 22.84 0 0014 .45c-1.45 3-2.55 7.4-1.84 13.64 0 0 1.3.57 3 .57A7.2 7.2 0 0020.8 12l1.45-13.8c2 .2 3.75.7 5 1.3.66-2.2 1.25-4.5.55-7.4zm-17.5-2.9c0-3.25 1-6.45 2.3-9.4 1.1.65 2.2 1.54 3.3 2.6-.15 2.65-.35 5.5-.8 8a17.7 17.7 0 01-3.4 3.1c-.9-.7-1.4-2.05-1.4-4.3zm0 0"/></symbol></defs><use xlink:href="#41deb269a" x="64.05875" y="67.7505"/><use xlink:href="#41deb269b" x="100.60875" y="67.7505"/><use xlink:href="#41deb269c" x="130.15875" y="67.7505"/><use xlink:href="#41deb269d" x="159.55875" y="67.7505"/><g fill-opacity=".33"><use xlink:href="#41deb269e" x="99.79208" y="113.501"/><use xlink:href="#41deb269f" x="106.45908" y="113.501"/><use xlink:href="#41deb269g" x="113.12608" y="113.501"/><use xlink:href="#41deb269h" x="119.79308" y="113.501"/><use xlink:href="#41deb269i" x="126.46008" y="113.501"/><use xlink:href="#41deb269j" x="133.12708" y="113.501"/><use xlink:href="#41deb269k" x="139.79408" y="113.501"/><use xlink:href="#41deb269l" x="146.46108" y="113.501"/></g><use xlink:href="#41deb269m" x="315.89125" y="67.7505"/><use xlink:href="#41deb269n" x="352.34125" y="67.7505"/><use xlink:href="#41deb269o" x="379.74125" y="67.7505"/><use xlink:href="#41deb269p" x="405.84125" y="67.7505"/><g fill-opacity=".33"><use xlink:href="#41deb269e" x="350.20792" y="113.501"/><use xlink:href="#41deb269q" x="356.87492" y="113.501"/><use xlink:href="#41deb269r" x="363.54192" y="113.501"/><use xlink:href="#41deb269k" x="370.20892" y="113.501"/><use xlink:href="#41deb269j" x="376.87592" y="113.501"/><use xlink:href="#41deb269s" x="383.54292" y="113.501"/><use xlink:href="#41deb269t" x="390.20992" y="113.501"/></g><use xlink:href="#41deb269u" x="63.48375" y="185.5835"/><use xlink:href="#41deb269v" x="100.48375" y="185.5835"/><use xlink:href="#41deb269w" x="130.28375" y="185.5835"/><use xlink:href="#41deb269x" x="159.93375" y="185.5835"/><g fill-opacity=".33"><use xlink:href="#41deb269e" x="96.45875" y="231.334"/><use xlink:href="#41deb269y" x="103.12575" y="231.334"/><use xlink:href="#41deb269g" x="109.79275" y="231.334"/><use xlink:href="#41deb269z" x="116.45975" y="231.334"/><use xlink:href="#41deb269s" x="123.12675" y="231.334"/><use xlink:href="#41deb269A" x="129.79375" y="231.334"/><use xlink:href="#41deb269B" x="136.46075" y="231.334"/><use xlink:href="#41deb269j" x="143.12775" y="231.334"/><use xlink:href="#41deb269C" x="149.79475" y="231.334"/></g><use xlink:href="#41deb269D" x="315.41625" y="185.5835"/><use xlink:href="#41deb269E" x="351.31625" y="185.5835"/><use xlink:href="#41deb269F" x="379.06625" y="185.5835"/><use xlink:href="#41deb269G" x="405.61625" y="185.5835"/><g fill-opacity=".33"><use xlink:href="#41deb269e" x="320.20792" y="231.334"/><use xlink:href="#41deb269y" x="326.87492" y="231.334"/><use xlink:href="#41deb269g" x="333.54192" y="231.334"/><use xlink:href="#41deb269z" x="340.20892" y="231.334"/><use xlink:href="#41deb269s" x="346.87592" y="231.334"/><use xlink:href="#41deb269A" x="353.54292" y="231.334"/><use xlink:href="#41deb269B" x="360.20992" y="231.334"/><use xlink:href="#41deb269j" x="366.87692" y="231.334"/><use xlink:href="#41deb269C" x="373.54392" y="231.334"/><use xlink:href="#41deb269e" x="380.21092" y="231.334"/><use xlink:href="#41deb269q" x="386.87792" y="231.334"/><use xlink:href="#41deb269r" x="393.54492" y="231.334"/><use xlink:href="#41deb269k" x="400.21192" y="231.334"/><use xlink:href="#41deb269j" x="406.87892" y="231.334"/><use xlink:href="#41deb269s" x="413.54592" y="231.334"/><use xlink:href="#41deb269t" x="420.21292" y="231.334"/></g><g><use xlink:href="#41deb269H" x="62.78375" y="303.4165"/><use xlink:href="#41deb269I" x="100.38375" y="303.4165"/><use xlink:href="#41deb269J" x="130.48375" y="303.4165"/><use xlink:href="#41deb269K" x="160.38375" y="303.4165"/></g><g fill-opacity=".33"><use xlink:href="#41deb269e" x="109.79208" y="349.167"/><use xlink:href="#41deb269L" x="116.45908" y="349.167"/><use xlink:href="#41deb269B" x="123.12608" y="349.167"/><use xlink:href="#41deb269j" x="129.79308" y="349.167"/><use xlink:href="#41deb269C" x="136.46008" y="349.167"/></g><g><use xlink:href="#41deb269M" x="314.86625" y="303.4165"/><use xlink:href="#41deb269N" x="350.06625" y="303.4165"/><use xlink:href="#41deb269O" x="378.26625" y="303.4165"/><use xlink:href="#41deb269P" x="405.36625" y="303.4165"/></g><g fill-opacity=".33"><use xlink:href="#41deb269e" x="333.54125" y="349.167"/><use xlink:href="#41deb269L" x="340.20825" y="349.167"/><use xlink:href="#41deb269B" x="346.87525" y="349.167"/><use xlink:href="#41deb269j" x="353.54225" y="349.167"/><use xlink:href="#41deb269C" x="360.20925" y="349.167"/><use xlink:href="#41deb269e" x="366.87625" y="349.167"/><use xlink:href="#41deb269q" x="373.54325" y="349.167"/><use xlink:href="#41deb269r" x="380.21025" y="349.167"/><use xlink:href="#41deb269k" x="386.87725" y="349.167"/><use xlink:href="#41deb269j" x="393.54425" y="349.167"/><use xlink:href="#41deb269s" x="400.21125" y="349.167"/><use xlink:href="#41deb269t" x="406.87825" y="349.167"/></g><g><use xlink:href="#41deb269Q" x="62.03375" y="421.2495"/><use xlink:href="#41deb269R" x="100.23375" y="421.2495"/><use xlink:href="#41deb269S" x="130.63375" y="421.2495"/><use xlink:href="#41deb269T" x="160.83375" y="421.2495"/></g><g fill-opacity=".33"><use xlink:href="#41deb269e" x="93.12542" y="467"/><use xlink:href="#41deb269U" x="99.79242" y="467"/><use xlink:href="#41deb269V" x="106.45942" y="467"/><use xlink:href="#41deb269r" x="113.12642" y="467"/><use xlink:href="#41deb269l" x="119.79342" y="467"/><use xlink:href="#41deb269k" x="126.46042" y="467"/><use xlink:href="#41deb269A" x="133.12742" y="467"/><use xlink:href="#41deb269B" x="139.79442" y="467"/><use xlink:href="#41deb269j" x="146.46142" y="467"/><use xlink:href="#41deb269C" x="153.12842" y="467"/></g><g><use xlink:href="#41deb269W" x="314.24125" y="421.2495"/><use xlink:href="#41deb269X" x="348.69125" y="421.2495"/><use xlink:href="#41deb269Y" x="377.39125" y="421.2495"/><use xlink:href="#41deb269Z" x="405.09125" y="421.2495"/></g><g fill-opacity=".33"><use xlink:href="#41deb269e" x="316.87458" y="467"/><use xlink:href="#41deb269U" x="323.54158" y="467"/><use xlink:href="#41deb269V" x="330.20858" y="467"/><use xlink:href="#41deb269r" x="336.87558" y="467"/><use xlink:href="#41deb269l" x="343.54258" y="467"/><use xlink:href="#41deb269k" x="350.20958" y="467"/><use xlink:href="#41deb269A" x="356.87658" y="467"/><use xlink:href="#41deb269B" x="363.54358" y="467"/><use xlink:href="#41deb269j" x="370.21058" y="467"/><use xlink:href="#41deb269C" x="376.87758" y="467"/><use xlink:href="#41deb269e" x="383.54458" y="467"/><use xlink:href="#41deb269q" x="390.21158" y="467"/><use xlink:href="#41deb269r" x="396.87858" y="467"/><use xlink:href="#41deb269k" x="403.54558" y="467"/><use xlink:href="#41deb269j" x="410.21258" y="467"/><use xlink:href="#41deb269s" x="416.87958" y="467"/><use xlink:href="#41deb269t" x="423.54658" y="467"/></g></svg>