<?xml version='1.0' encoding='UTF-8'?>
<svg xmlns="http://www.w3.org/2000/svg" xmlns:xlink="http://www.w3.org/1999/xlink" width="600px" height="300px" viewBox="0 0 600 300" x="0px" y="0px" enable-background="new 0 0 600 300"><defs><symbol overflow="visible" id="7ceafaa8a"><path d="M8.31-2.4c3.92 2.24 10 3.35 14.1 3.35 11.75 0 19.82-9.18 19.82-21.51 0-10.24-5.51-16.4-14.8-16.4-4.95 0-9.27 2.4-12.3 6.55V-48c0-5.52 1.03-9.13 1.03-9.13a13 13 0 00-5.44-.95 24 24 0 00-9.52 2c0 .95.24 1.77.72 2.49l6.64.47c-.15 1.43-.25 2.89-.25 5.12zM24.8-31.7c6.07 0 9.76 4.97 9.76 13.2 0 4.72-1.28 9.7-3.76 13.61-1.52.57-3.28.88-5.6.88-3.84 0-7.51-.95-10.07-2.72v-19.2c2.39-3.6 5.82-5.77 9.67-5.77zm0 0"/></symbol><symbol overflow="visible" id="7ceafaa8b"><path d="M13.28.95c4.88 0 9.13-2.47 12-6.3h.16L25.12 0A20.5 20.5 0 0038-1.6c.31-.88.48-1.76.48-2.63l-7.04-.41v-18.23c0-9.7-4.32-14.08-10.4-14.08-4.4 0-10.48 1.36-15.76 3.67 0 1.84.95 4.33 2.56 6.56a37.48 37.48 0 0112.64-5.69c2.96 1.13 4.16 5.05 4.16 10.64v3.29l-5.52.48C8.23-17.12 3.7-13.77 3.7-7.92c0 5.36 3.75 8.87 9.6 8.87zm2.24-5.36c-3.52 0-5.04-1.75-5.04-5.18 0-.97.08-2 .32-2.97 2.32-1.13 6.15-1.75 10.97-1.75h2.87v5.36a11.86 11.86 0 01-9.12 4.54zm0 0"/></symbol><symbol overflow="visible" id="7ceafaa8d"><path d="M20.95.95c5.7 0 9.85-1.75 13.53-4.39a5.5 5.5 0 00-1.2-2.72c-4.33 1.68-6.64 2.24-9.44 2.24-8.71 0-13.36-5.6-13.36-14.96v-.4h22.57c.64-1.84.95-3.67.95-5.44 0-7.6-5.69-12.23-12.72-12.23-9.84 0-18.08 9.03-18.08 20.39C3.2-5.6 10.08.95 20.95.95zM18.41-32.4c5.1 0 7.9 3.2 8.46 8.64l-16.15.72c.48-3.51 1.6-6.15 3.05-8.72a19.4 19.4 0 014.64-.64zm0 0"/></symbol><symbol overflow="visible" id="7ceafaa8e"><path d="M18 .95c5.36 0 9.92-2.15 12.95-6.3l.18.07L30.8 0a20.57 20.57 0 0012.9-1.6c.3-.88.46-1.76.46-2.63l-7.03-.41V-48c0-5.52 1.03-9.13 1.03-9.13a13 13 0 00-5.44-.95 24 24 0 00-9.52 2c0 .95.24 1.77.72 2.49l6.64.47c-.15 1.43-.25 2.89-.25 5.12v12.48a22.66 22.66 0 00-7.83-1.43C11.6-36.95 3.2-27.77 3.2-15.44 3.2-5.44 8.72.96 18 .96zm-7.13-18.47c0-5.04 1.44-9.92 3.77-13.6 1.52-.57 3.28-.88 5.6-.88 3.84 0 7.53.95 10.07 2.72v20.33a11.33 11.33 0 01-9.1 4.64c-6.26 0-10.34-4.82-10.34-13.2zm0 0"/></symbol><symbol overflow="visible" id="7ceafaa8g"><path d="M20.4.95c10.88 0 18.8-9.03 18.8-20.15 0-11.03-7.76-17.75-17.2-17.75-10.88 0-18.8 9.03-18.8 20.15C3.2-5.77 10.95.95 20.4.95zm-9.92-20.54c0-4.49 1.2-8.1 2.8-11.13 1.6-.72 3.77-1.05 5.52-1.05 7.28 0 13.12 5.46 13.12 15.36 0 4.49-1.2 8.1-2.8 11.13a14.5 14.5 0 01-5.53 1.05c-7.28 0-13.1-5.46-13.1-15.36zm0 0"/></symbol><symbol overflow="visible" id="7ceafaa8i"><path d="M21.05.95a22 22 0 0013.43-4.39 5.5 5.5 0 00-1.2-2.72c-4.33 1.68-6.64 2.24-9.44 2.24-8.8 0-13.36-5.6-13.36-15.2 0-5.2 1.36-8.8 3.04-11.93 1.43-.47 3.04-.8 5.12-.8 4.72 0 9.36 1.7 12.08 4.08 1.44-2.39 2.56-4.95 2.56-7.59a31.08 31.08 0 00-9.84-1.6c-12.49 0-20.24 9.04-20.24 20.48C3.2-5.6 10.16.95 21.05.95zm0 0"/></symbol><symbol overflow="visible" id="7ceafaa8c"><path d="M8.8-5.36L3.28-2.48c0 .96.24 1.76.72 2.48h19.84c.47-.88.72-2.08.72-2.95L15.6-4.31v-26.9h19.2v25.85l-5.5 2.88c0 .96.23 1.76.71 2.48h19.84c.47-.88.72-2.08.72-2.95L41.6-4.31v-26.9h11.85c.25-1.91.25-2.95 0-4.79l-11.85.16V-36c0-10.48 2.82-17.2 7.53-18.48 2.88.48 7.2 2 11.6 4.07v45.05h-.08l-5.52 2.88c0 .96.24 1.76.72 2.48H73.7c.47-.88.72-2.08.72-2.95l-6.9-1.2V-47.6c.08-3.13.41-6.18 1.05-9.13-1.36-.48-3.12-.8-5.51-.8-1.85 0-3.77.24-5.53.57a26.22 26.22 0 00-6.88-1.13 13.8 13.8 0 00-11.44 5.85c-2.15-1.29-8.15-4.25-14.08-4.25-9.6 0-16 7.84-16.32 21.2l-6.4.8v3.28h6.4zM34.8-36v.31l-19.2.33c.17-9.92 2.88-16.23 7.53-17.52 3.43.65 8.3 3.11 13.28 6.08A33.15 33.15 0 0034.8-36zm0 0"/></symbol><symbol overflow="visible" id="7ceafaa8h"><path d="M8.8-5.36L3.28-2.48c0 .96.24 1.76.72 2.48h19.84c.47-.88.72-2.08.72-2.95L15.6-4.31v-26.9h19.2v25.85l-5.5 2.88c0 .96.23 1.76.71 2.48h19.84c.47-.88.72-2.08.72-2.95L41.6-4.31v-26.9h19.46a43.12 43.12 0 00-.25 5.29v20.56h-.08L55.2-2.48c0 .96.24 1.76.72 2.48h17.85c.46-.88.71-2.08.71-2.95l-6.89-1.2v-21.77c0-5.52 1.05-9.13 1.05-9.13-1.36-.64-3.12-.95-5.6-.95l-21.45.31V-36c0-10.48 3.05-17.28 7.93-18.48 4.96.48 12.32 4.56 15.68 6.89a23.93 23.93 0 003.2-7.46c-4.8-1.6-9.6-3.03-14.96-3.03-6.4 0-11.03 2.08-14.16 5.85-2.08-1.13-8.16-4.25-14.16-4.25-9.6 0-16 7.84-16.32 21.2l-6.4.8v3.28h6.4zM34.8-36v.4l-19.2.24c.17-10.64 3.35-17.2 8.56-17.77a51.47 51.47 0 0112.25 6.18A34.5 34.5 0 0034.8-36zm0 0"/></symbol><symbol overflow="visible" id="7ceafaa8j"><path d="M3.83 0v-5.95H6.2v-.82H.45v.82h2.4V0zm0 0"/></symbol><symbol overflow="visible" id="7ceafaa8k"><path d="M5.75-2.23v-.43c0-1.6-.9-2.51-2.42-2.51S.87-4.16.87-2.48c0 1.71.91 2.62 2.5 2.62 1.43 0 2.07-.56 2.29-1.52l-.9-.09c-.18.61-.59.9-1.35.9-.94 0-1.52-.54-1.58-1.66zm-2.4-2.2c.93 0 1.43.5 1.48 1.55H1.84c.08-1.07.6-1.56 1.5-1.56zm0 0"/></symbol><symbol overflow="visible" id="7ceafaa8l"><path d="M1.83 0l1.42-2h.06l1.46 2H5.8L4-2.53l1.78-2.49H4.8L3.42-3.08h-.08l-1.4-1.94H.89l1.78 2.49L.84 0zm0 0"/></symbol><symbol overflow="visible" id="7ceafaa8m"><path d="M5.52-4.25v-.77H3.17v-1.56h-.81l-.14 1.56H.75v.77h1.47v2.4c0 1.3.48 1.94 1.84 1.94C4.6.1 5.14 0 5.55-.14L5.4-.91c-.32.13-.72.2-1.13.2-.8 0-1.1-.37-1.1-1.23v-2.31zm0 0"/></symbol><symbol overflow="visible" id="7ceafaa8n"><path d="M3.33-3.42c.47 0 .8-.27.8-.8 0-.51-.33-.8-.8-.8-.47 0-.8.29-.8.8 0 .53.33.8.8.8zm0 3.5c.47 0 .8-.27.8-.78 0-.53-.33-.82-.8-.82-.47 0-.8.29-.8.82 0 .51.33.78.8.78zm0 0"/></symbol><symbol overflow="visible" id="7ceafaa8p"><path d="M3.9.14c1.48 0 2.18-.98 2.18-2.64 0-1.67-.7-2.66-2.17-2.66-.91 0-1.49.41-1.79 1h-.06v-2.98h-.95V0h.81l.11-.9h.06c.29.63.82 1.04 1.82 1.04zm-.32-.8c-1.08 0-1.55-.8-1.55-1.84 0-1.06.47-1.86 1.55-1.86 1.1 0 1.51.61 1.51 1.86S4.64-.66 3.58-.66zm0 0"/></symbol><symbol overflow="visible" id="7ceafaa8q"><path d="M2.83.14c.94 0 1.5-.39 1.81-.95h.08l.1.81h.76v-3.38c0-1.23-.69-1.8-2.13-1.8-1.43 0-2.03.65-2.18 1.6l.93.1c.11-.6.44-.93 1.22-.93.85 0 1.22.32 1.22 1.04v.34l-1.81.2C1.6-2.7 1.1-2.17 1.1-1.28c0 .92.64 1.42 1.72 1.42zm.25-.77c-.67 0-1.02-.28-1.02-.74 0-.44.28-.72 1-.82l1.58-.19v.41c0 .8-.6 1.34-1.56 1.34zm0 0"/></symbol><symbol overflow="visible" id="7ceafaa8r"><path d="M4.63-6.5c.45 0 .98.08 1.39.2l.2-.72a5.3 5.3 0 00-1.64-.26c-1.52 0-2.16.56-2.16 1.87v.4H.9v.76h1.53V0h.94v-4.25h2.53v-.77H3.36v-.3c0-.84.33-1.18 1.27-1.18zm0 0"/></symbol><symbol overflow="visible" id="7ceafaa8s"><path d="M3.92-7.14H1.36v.76h1.6v5.61H1.15V0H5.7v-.77H3.92zm0 0"/></symbol><symbol overflow="visible" id="7ceafaa8t"><path d="M2.84.14C3.8.14 4.33-.26 4.6-.9h.07L4.8 0h.76v-7.14h-.95v2.95h-.08c-.28-.6-.86-.97-1.67-.97-1.48 0-2.27.99-2.27 2.64C.6-.84 1.36.14 2.84.14zm.22-.8c-.98 0-1.48-.59-1.48-1.84s.5-1.86 1.48-1.86c1.13 0 1.58.8 1.58 1.86S4.2-.66 3.06-.66zm0 0"/></symbol><symbol overflow="visible" id="7ceafaa8u"><path d="M3.33.14c1.62 0 2.5-.95 2.5-2.66 0-1.68-.88-2.64-2.5-2.64-1.63 0-2.5.96-2.5 2.64 0 1.7.87 2.66 2.5 2.66zm0-.77c-1.06 0-1.52-.6-1.52-1.89 0-1.28.46-1.87 1.52-1.87 1.08 0 1.53.6 1.53 1.87 0 1.29-.45 1.9-1.53 1.9zm0 0"/></symbol><symbol overflow="visible" id="7ceafaa8v"><path d="M3.58-5.81c.42 0 .72-.22.72-.67 0-.44-.3-.68-.72-.68-.44 0-.72.24-.72.68 0 .45.28.67.72.67zm.5.8H1.52v.76h1.6v3.48h-1.8V0h4.46v-.77h-1.7zm0 0"/></symbol><symbol overflow="visible" id="7ceafaa8w"><path d="M3.34.14c1.43 0 2.13-.66 2.25-1.78l-.89-.1c-.1.7-.5 1.08-1.34 1.08-1.03 0-1.52-.64-1.52-1.84 0-1.23.47-1.86 1.52-1.86.84 0 1.23.36 1.34 1.08l.9-.1c-.13-1.09-.82-1.78-2.26-1.78-1.56 0-2.46.97-2.46 2.66 0 1.66.9 2.64 2.46 2.64zm0 0"/></symbol><symbol overflow="visible" id="7ceafaa8x"><path d="M5.95-6.77H1.1V0h.99v-2.92H5.3v-.77H2.08v-2.26h3.87zm0 0"/></symbol><symbol overflow="visible" id="7ceafaa8y"><path d="M2.73.14c.9 0 1.43-.45 1.74-1.08h.06l.13.94h.8v-5.02h-.94v2.7c0 .98-.57 1.62-1.46 1.62-.75 0-1.1-.4-1.1-1.22v-3.1h-.93v3.32c0 1.17.55 1.84 1.7 1.84zm0 0"/></symbol><symbol overflow="visible" id="7ceafaa8z"><path d="M5.08-5.16c-.94 0-1.58.43-1.9 1.3h-.09l-.07-1.16H1.05v.77h1.1v3.48H.96V0h3.96v-.77H3.1v-1.46c0-1.36.6-2.05 1.83-2.05.4 0 .76.08 1.1.17l.15-.87c-.33-.11-.7-.18-1.11-.18zm0 0"/></symbol><symbol overflow="visible" id="7ceafaa8A"><path d="M3.42.14c1.61 0 2.56-.75 2.56-2 0-1.1-.67-1.6-1.95-1.86l-.97-.2c-.87-.17-1.23-.49-1.23-1.11 0-.7.54-1.11 1.5-1.11 1.06 0 1.51.34 1.69 1.23l.9-.09c-.17-1.28-.98-1.9-2.6-1.9C1.79-6.9.9-6.18.9-4.98c0 1.06.66 1.66 1.88 1.9l1.01.2c.85.17 1.25.4 1.25 1.09 0 .73-.6 1.16-1.6 1.16-1.07 0-1.66-.4-1.8-1.24l-.94.1C.83-.53 1.75.13 3.42.13zm0 0"/></symbol><symbol overflow="visible" id="7ceafaa8B"><path d="M2.16 0v-2.67c0-.99.59-1.63 1.46-1.63.74 0 1.07.38 1.07 1.22V0h.95v-3.31c0-1.2-.56-1.85-1.67-1.85-.92 0-1.49.46-1.77 1.08h-.06l-.12-.94H1.2V0zm0 0"/></symbol><symbol overflow="visible" id="7ceafaa8C"><path d="M3.16 2.03c1.67 0 2.4-.86 2.4-2.51v-4.54h-.81l-.13.91h-.06c-.26-.58-.8-1.05-1.73-1.05-1.42 0-2.24 1-2.24 2.52 0 1.6.75 2.56 2.2 2.56.94 0 1.5-.5 1.77-1.03h.05v.72c0 1.17-.42 1.67-1.45 1.67-.93 0-1.3-.34-1.41-.89L.8.5c.12.96.87 1.54 2.36 1.54zM3.06-.8c-.98 0-1.48-.57-1.48-1.82 0-1.13.5-1.75 1.48-1.75 1.06 0 1.58.76 1.58 1.75 0 .95-.56 1.82-1.58 1.82zm0 0"/></symbol><symbol overflow="visible" id="7ceafaa8D"><path d="M3.36.16c1.4 0 2.2-.6 2.2-1.57 0-.89-.54-1.22-1.47-1.39L3-3c-.67-.14-.86-.33-.86-.73 0-.5.4-.74 1.17-.74.83 0 1.19.27 1.27.8l.9-.05c-.12-1-.8-1.47-2.17-1.47-1.34 0-2.1.53-2.1 1.5 0 .81.45 1.22 1.52 1.44l1.04.2c.56.11.87.24.87.72 0 .52-.45.78-1.28.78-.95 0-1.36-.28-1.42-.87l-.9.06C1.07-.36 1.8.16 3.35.16zm0 0"/></symbol><symbol overflow="visible" id="7ceafaa8E"><path d="M1.45-2.95c0 2.56 1.08 4.37 3.67 4.84l.11-.67C3.28.86 2.43-.75 2.43-2.95s.85-3.82 2.8-4.16l-.1-.69c-2.6.49-3.68 2.3-3.68 4.85zm0 0"/></symbol><symbol overflow="visible" id="7ceafaa8F"><path d="M1.45-7.1c1.96.33 2.8 1.94 2.8 4.15 0 2.2-.84 3.8-2.8 4.17l.11.67c2.58-.47 3.67-2.28 3.67-4.84 0-2.55-1.09-4.36-3.67-4.85zm0 0"/></symbol></defs><g fill="#515151"><use xlink:href="#7ceafaa8a" x="70.48" y="148"/><use xlink:href="#7ceafaa8b" x="115.92" y="148"/></g><use xlink:href="#7ceafaa8c" x="155.36" y="148" fill="#fff"/><g fill="#515151"><use xlink:href="#7ceafaa8d" x="231.44" y="148"/><use xlink:href="#7ceafaa8e" x="269.12" y="148"/><use xlink:href="#7ceafaa8f" x="314.88" y="148"/><use xlink:href="#7ceafaa8g" x="334.88" y="148"/></g><use xlink:href="#7ceafaa8h" x="377.28" y="148" fill="#fff"/><g fill="#515151"><use xlink:href="#7ceafaa8i" x="454.96" y="148"/><use xlink:href="#7ceafaa8d" x="491.84" y="148"/></g><g fill="#fff"><use xlink:href="#7ceafaa8j" x="233.3333" y="252"/><use xlink:href="#7ceafaa8k" x="240.0003" y="252"/><use xlink:href="#7ceafaa8l" x="246.6673" y="252"/><use xlink:href="#7ceafaa8m" x="253.3343" y="252"/><use xlink:href="#7ceafaa8n" x="260.0013" y="252"/><use xlink:href="#7ceafaa8o" x="266.6683" y="252"/><use xlink:href="#7ceafaa8p" x="273.3353" y="252"/><use xlink:href="#7ceafaa8q" x="280.0023" y="252"/><use xlink:href="#7ceafaa8r" x="286.6693" y="252"/><use xlink:href="#7ceafaa8r" x="293.3363" y="252"/><use xlink:href="#7ceafaa8s" x="300.0033" y="252"/><use xlink:href="#7ceafaa8k" x="306.6703" y="252"/><use xlink:href="#7ceafaa8t" x="313.3373" y="252"/><use xlink:href="#7ceafaa8o" x="320.0043" y="252"/><use xlink:href="#7ceafaa8u" x="326.6713" y="252"/><use xlink:href="#7ceafaa8r" x="333.3383" y="252"/><use xlink:href="#7ceafaa8r" x="340.0053" y="252"/><use xlink:href="#7ceafaa8v" x="346.6723" y="252"/><use xlink:href="#7ceafaa8w" x="353.3393" y="252"/><use xlink:href="#7ceafaa8k" x="360.0063" y="252"/></g><g fill="#fff"><use xlink:href="#7ceafaa8x" x="186.6667" y="266"/><use xlink:href="#7ceafaa8k" x="193.3337" y="266"/><use xlink:href="#7ceafaa8q" x="200.0007" y="266"/><use xlink:href="#7ceafaa8m" x="206.6677" y="266"/><use xlink:href="#7ceafaa8y" x="213.3347" y="266"/><use xlink:href="#7ceafaa8z" x="220.0017" y="266"/><use xlink:href="#7ceafaa8k" x="226.6687" y="266"/><use xlink:href="#7ceafaa8n" x="233.3357" y="266"/><use xlink:href="#7ceafaa8o" x="240.0027" y="266"/><use xlink:href="#7ceafaa8A" x="246.6697" y="266"/><use xlink:href="#7ceafaa8m" x="253.3367" y="266"/><use xlink:href="#7ceafaa8q" x="260.0037" y="266"/><use xlink:href="#7ceafaa8B" x="266.6707" y="266"/><use xlink:href="#7ceafaa8t" x="273.3377" y="266"/><use xlink:href="#7ceafaa8q" x="280.0047" y="266"/><use xlink:href="#7ceafaa8z" x="286.6717" y="266"/><use xlink:href="#7ceafaa8t" x="293.3387" y="266"/><use xlink:href="#7ceafaa8o" x="300.0057" y="266"/><use xlink:href="#7ceafaa8s" x="306.6727" y="266"/><use xlink:href="#7ceafaa8v" x="313.3397" y="266"/><use xlink:href="#7ceafaa8C" x="320.0067" y="266"/><use xlink:href="#7ceafaa8q" x="326.6737" y="266"/><use xlink:href="#7ceafaa8m" x="333.3407" y="266"/><use xlink:href="#7ceafaa8y" x="340.0077" y="266"/><use xlink:href="#7ceafaa8z" x="346.6747" y="266"/><use xlink:href="#7ceafaa8k" x="353.3417" y="266"/><use xlink:href="#7ceafaa8D" x="360.0087" y="266"/><use xlink:href="#7ceafaa8o" x="366.6757" y="266"/><use xlink:href="#7ceafaa8E" x="373.3427" y="266"/><use xlink:href="#7ceafaa8s" x="380.0097" y="266"/><use xlink:href="#7ceafaa8v" x="386.6767" y="266"/><use xlink:href="#7ceafaa8C" x="393.3437" y="266"/><use xlink:href="#7ceafaa8q" x="400.0107" y="266"/><use xlink:href="#7ceafaa8F" x="406.6777" y="266"/></g></svg>