<?xml version='1.0' encoding='UTF-8'?>
<svg xmlns="http://www.w3.org/2000/svg" xmlns:xlink="http://www.w3.org/1999/xlink" width="600px" height="300px" viewBox="0 0 600 300" x="0px" y="0px" enable-background="new 0 0 600 300"><defs><symbol overflow="visible" id="9272ae99a"><path d="M38.23-35.84c-4-.64-8.15.64-10.15 2.48l2.72 5.44v17.76c-4 3.75-7.68 5.36-10.64 5.36-4 0-6.47-2.8-6.47-9.43V-48c0-5.52 1.03-8.95 1.03-8.95a13.05 13.05 0 00-5.77-1.13c-3.43 0-6.64.8-9.43 2 0 .95.25 1.77.71 2.49l6.9.54A38.98 38.98 0 006.88-48v34.88C6.88-3.53 11.13.95 17.84.95c5.36 0 9.85-2.8 13.52-7.67l.16.16a22 22 0 00-.64 5.84V0h22.56c.4-1.77.48-3.6 0-5.36L37.59-4.23v-18.49c0-8.23.64-13.12.64-13.12zm0 0"/></symbol><symbol overflow="visible" id="9272ae99b"><path d="M3.83 0v-5.95H6.2v-.82H.45v.82h2.4V0zm0 0"/></symbol><symbol overflow="visible" id="9272ae99c"><path d="M5.75-2.23v-.43c0-1.6-.9-2.51-2.42-2.51S.87-4.16.87-2.48c0 1.71.91 2.62 2.5 2.62 1.43 0 2.07-.56 2.29-1.52l-.9-.09c-.18.61-.59.9-1.35.9-.94 0-1.52-.54-1.58-1.66zm-2.4-2.2c.93 0 1.43.5 1.48 1.55H1.84c.08-1.07.6-1.56 1.5-1.56zm0 0"/></symbol><symbol overflow="visible" id="9272ae99d"><path d="M1.83 0l1.42-2h.06l1.46 2H5.8L4-2.53l1.78-2.49H4.8L3.42-3.08h-.08l-1.4-1.94H.89l1.78 2.49L.84 0zm0 0"/></symbol><symbol overflow="visible" id="9272ae99e"><path d="M5.52-4.25v-.77H3.17v-1.56h-.81l-.14 1.56H.75v.77h1.47v2.4c0 1.3.48 1.94 1.84 1.94C4.6.1 5.14 0 5.55-.14L5.4-.91c-.32.13-.72.2-1.13.2-.8 0-1.1-.37-1.1-1.23v-2.31zm0 0"/></symbol><symbol overflow="visible" id="9272ae99f"><path d="M3.33-3.42c.47 0 .8-.27.8-.8 0-.51-.33-.8-.8-.8-.47 0-.8.29-.8.8 0 .53.33.8.8.8zm0 3.5c.47 0 .8-.27.8-.78 0-.53-.33-.82-.8-.82-.47 0-.8.29-.8.82 0 .51.33.78.8.78zm0 0"/></symbol><symbol overflow="visible" id="9272ae99j"><path d="M5.95-6.77H1.1V0h.99v-2.92H5.3v-.77H2.08v-2.26h3.87zm0 0"/></symbol><symbol overflow="visible" id="9272ae99k"><path d="M2.83.14c.94 0 1.5-.39 1.81-.95h.08l.1.81h.76v-3.38c0-1.23-.69-1.8-2.13-1.8-1.43 0-2.03.65-2.18 1.6l.93.1c.11-.6.44-.93 1.22-.93.85 0 1.22.32 1.22 1.04v.34l-1.81.2C1.6-2.7 1.1-2.17 1.1-1.28c0 .92.64 1.42 1.72 1.42zm.25-.77c-.67 0-1.02-.28-1.02-.74 0-.44.28-.72 1-.82l1.58-.19v.41c0 .8-.6 1.34-1.56 1.34zm0 0"/></symbol><symbol overflow="visible" id="9272ae99l"><path d="M2.73.14c.9 0 1.43-.45 1.74-1.08h.06l.13.94h.8v-5.02h-.94v2.7c0 .98-.57 1.62-1.46 1.62-.75 0-1.1-.4-1.1-1.22v-3.1h-.93v3.32c0 1.17.55 1.84 1.7 1.84zm0 0"/></symbol><symbol overflow="visible" id="9272ae99m"><path d="M5.08-5.16c-.94 0-1.58.43-1.9 1.3h-.09l-.07-1.16H1.05v.77h1.1v3.48H.96V0h3.96v-.77H3.1v-1.46c0-1.36.6-2.05 1.83-2.05.4 0 .76.08 1.1.17l.15-.87c-.33-.11-.7-.18-1.11-.18zm0 0"/></symbol><symbol overflow="visible" id="9272ae99n"><path d="M2.3 0l1-3.95h.08L4.36 0h1.08l.98-6.77H5.4l-.56 5.3h-.08l-.94-3.67h-.97l-.92 3.67h-.08l-.56-5.3H.25L1.22 0zm0 0"/></symbol><symbol overflow="visible" id="9272ae99o"><path d="M3.36.16c1.4 0 2.2-.6 2.2-1.57 0-.89-.54-1.22-1.47-1.39L3-3c-.67-.14-.86-.33-.86-.73 0-.5.4-.74 1.17-.74.83 0 1.19.27 1.27.8l.9-.05c-.12-1-.8-1.47-2.17-1.47-1.34 0-2.1.53-2.1 1.5 0 .81.45 1.22 1.52 1.44l1.04.2c.56.11.87.24.87.72 0 .52-.45.78-1.28.78-.95 0-1.36-.28-1.42-.87l-.9.06C1.07-.36 1.8.16 3.35.16zm0 0"/></symbol><symbol overflow="visible" id="9272ae99p"><path d="M2.16 0v-2.67c0-.99.59-1.63 1.46-1.63.74 0 1.07.38 1.07 1.22V0h.95v-3.31c0-1.2-.56-1.85-1.67-1.85-.92 0-1.49.46-1.77 1.08h-.06l-.12-.94H1.2V0zm0 0"/></symbol><symbol overflow="visible" id="9272ae99q"><path d="M6.17 0L3.98-6.77h-1.3L.5 0h.97l.44-1.47h2.78L5.16 0zM3.28-5.94h.08l1.1 3.74H2.15zm0 0"/></symbol><symbol overflow="visible" id="9272ae99r"><path d="M1.63 0v-2.9c0-.8.15-1.4.71-1.4.41 0 .55.3.55.88V0h.95v-2.9c0-.8.18-1.4.72-1.4.4 0 .57.3.57.88V0h.95v-3.63c0-.92-.28-1.53-1.11-1.53-.63 0-.95.41-1.1.9h-.06c-.1-.52-.44-.9-1.08-.9-.6 0-.93.41-1.06.9H1.6l-.23-.76H.67V0zm0 0"/></symbol><symbol overflow="visible" id="9272ae99s"><path d="M3.58-5.81c.42 0 .72-.22.72-.67 0-.44-.3-.68-.72-.68-.44 0-.72.24-.72.68 0 .45.28.67.72.67zm.5.8H1.52v.76h1.6v3.48h-1.8V0h4.46v-.77h-1.7zm0 0"/></symbol><symbol overflow="visible" id="9272ae99t"><path d="M1.45-2.95c0 2.56 1.08 4.37 3.67 4.84l.11-.67C3.28.86 2.43-.75 2.43-2.95s.85-3.82 2.8-4.16l-.1-.69c-2.6.49-3.68 2.3-3.68 4.85zm0 0"/></symbol><symbol overflow="visible" id="9272ae99u"><path d="M3.92-7.14H1.36v.76h1.6v5.61H1.15V0H5.7v-.77H3.92zm0 0"/></symbol><symbol overflow="visible" id="9272ae99v"><path d="M3.16 2.03c1.67 0 2.4-.86 2.4-2.51v-4.54h-.81l-.13.91h-.06c-.26-.58-.8-1.05-1.73-1.05-1.42 0-2.24 1-2.24 2.52 0 1.6.75 2.56 2.2 2.56.94 0 1.5-.5 1.77-1.03h.05v.72c0 1.17-.42 1.67-1.45 1.67-.93 0-1.3-.34-1.41-.89L.8.5c.12.96.87 1.54 2.36 1.54zM3.06-.8c-.98 0-1.48-.57-1.48-1.82 0-1.13.5-1.75 1.48-1.75 1.06 0 1.58.76 1.58 1.75 0 .95-.56 1.82-1.58 1.82zm0 0"/></symbol><symbol overflow="visible" id="9272ae99w"><path d="M3.33.14c1.62 0 2.5-.95 2.5-2.66 0-1.68-.88-2.64-2.5-2.64-1.63 0-2.5.96-2.5 2.64 0 1.7.87 2.66 2.5 2.66zm0-.77c-1.06 0-1.52-.6-1.52-1.89 0-1.28.46-1.87 1.52-1.87 1.08 0 1.53.6 1.53 1.87 0 1.29-.45 1.9-1.53 1.9zm0 0"/></symbol><symbol overflow="visible" id="9272ae99x"><path d="M2.84.14C3.8.14 4.33-.26 4.6-.9h.07L4.8 0h.76v-7.14h-.95v2.95h-.08c-.28-.6-.86-.97-1.67-.97-1.48 0-2.27.99-2.27 2.64C.6-.84 1.36.14 2.84.14zm.22-.8c-.98 0-1.48-.59-1.48-1.84s.5-1.86 1.48-1.86c1.13 0 1.58.8 1.58 1.86S4.2-.66 3.06-.66zm0 0"/></symbol><symbol overflow="visible" id="9272ae99y"><path d="M1.45-7.1c1.96.33 2.8 1.94 2.8 4.15 0 2.2-.84 3.8-2.8 4.17l.11.67c2.58-.47 3.67-2.28 3.67-4.84 0-2.55-1.09-4.36-3.67-4.85zm0 0"/></symbol><symbol overflow="visible" id="9272ae99h"><path d="M5.23-3.13V0h-.82l-.13-.81h-.06a1.76 1.76 0 01-1.6.9c-.56 0-1-.15-1.32-.46C.97-.7.8-1.17.8-1.77v-5.82h1.03v2.65h3.57v.8H1.84v2.16c0 .43.1.74.28.95.2.2.44.3.75.3.41 0 .73-.15.96-.46.24-.31.36-.77.36-1.39v-.54zm0 0"/></symbol><symbol overflow="visible" id="9272ae99i"><path d="M.86 0v-4.94H1.9V-.8h1.37V0zm0 0"/></symbol></defs><g fill="#fff"><use xlink:href="#9272ae99a" x="273.68" y="148"/><use xlink:href="#9272ae99b" x="275.235" y="253"/><use xlink:href="#9272ae99c" x="281.902" y="253"/><use xlink:href="#9272ae99d" x="288.569" y="253"/><use xlink:href="#9272ae99e" x="295.236" y="253"/><use xlink:href="#9272ae99f" x="301.903" y="253"/><use xlink:href="#9272ae99g" x="308.57" y="253"/><g><use xlink:href="#9272ae99h" x="315.235" y="253"/><use xlink:href="#9272ae99i" x="321.335" y="253"/></g><g><use xlink:href="#9272ae99j" x="140" y="266"/><use xlink:href="#9272ae99c" x="146.667" y="266"/><use xlink:href="#9272ae99k" x="153.334" y="266"/><use xlink:href="#9272ae99e" x="160.001" y="266"/><use xlink:href="#9272ae99l" x="166.668" y="266"/><use xlink:href="#9272ae99m" x="173.335" y="266"/><use xlink:href="#9272ae99c" x="180.002" y="266"/><use xlink:href="#9272ae99f" x="186.669" y="266"/><use xlink:href="#9272ae99g" x="193.336" y="266"/><use xlink:href="#9272ae99n" x="200.003" y="266"/><use xlink:href="#9272ae99c" x="206.67" y="266"/><use xlink:href="#9272ae99o" x="213.337" y="266"/><use xlink:href="#9272ae99e" x="220.004" y="266"/><use xlink:href="#9272ae99c" x="226.671" y="266"/><use xlink:href="#9272ae99m" x="233.338" y="266"/><use xlink:href="#9272ae99p" x="240.005" y="266"/><use xlink:href="#9272ae99g" x="246.672" y="266"/><use xlink:href="#9272ae99q" x="253.339" y="266"/><use xlink:href="#9272ae99m" x="260.006" y="266"/><use xlink:href="#9272ae99r" x="266.673" y="266"/><use xlink:href="#9272ae99c" x="273.34" y="266"/><use xlink:href="#9272ae99p" x="280.007" y="266"/><use xlink:href="#9272ae99s" x="286.674" y="266"/><use xlink:href="#9272ae99k" x="293.341" y="266"/><use xlink:href="#9272ae99p" x="300.008" y="266"/><use xlink:href="#9272ae99g" x="306.675" y="266"/><use xlink:href="#9272ae99t" x="313.342" y="266"/><use xlink:href="#9272ae99o" x="320.009" y="266"/><use xlink:href="#9272ae99c" x="326.676" y="266"/><use xlink:href="#9272ae99e" x="333.343" y="266"/><use xlink:href="#9272ae99g" x="340.01" y="266"/><use xlink:href="#9272ae99u" x="346.677" y="266"/><use xlink:href="#9272ae99k" x="353.344" y="266"/><use xlink:href="#9272ae99p" x="360.011" y="266"/><use xlink:href="#9272ae99v" x="366.678" y="266"/><use xlink:href="#9272ae99l" x="373.345" y="266"/><use xlink:href="#9272ae99k" x="380.012" y="266"/><use xlink:href="#9272ae99v" x="386.679" y="266"/><use xlink:href="#9272ae99c" x="393.346" y="266"/><use xlink:href="#9272ae99g" x="400.013" y="266"/><use xlink:href="#9272ae99w" x="406.68" y="266"/><use xlink:href="#9272ae99m" x="413.347" y="266"/><use xlink:href="#9272ae99g" x="420.014" y="266"/><use xlink:href="#9272ae99x" x="426.681" y="266"/><use xlink:href="#9272ae99u" x="433.348" y="266"/><use xlink:href="#9272ae99s" x="440.015" y="266"/><use xlink:href="#9272ae99v" x="446.682" y="266"/><use xlink:href="#9272ae99y" x="453.349" y="266"/></g></g></svg>