<?xml version='1.0' encoding='UTF-8'?>
<svg xmlns="http://www.w3.org/2000/svg" xmlns:xlink="http://www.w3.org/1999/xlink" width="600px" height="300px" viewBox="0 0 600 300" x="0px" y="0px" enable-background="new 0 0 600 300"><defs><symbol overflow="visible" id="56785735a"><path d="M8.8-5.36L3.28-2.48c0 .96.24 1.76.72 2.48h20.64c.48-.88.72-2.08.72-2.95l-9.77-1.46v-26.8h11.85c.25-1.91.25-2.95 0-4.79l-11.85.48V-36c0-11.2 3.2-18.16 8.57-18.72 4.32 1.28 7.6 3.44 11.04 5.77 1.2-2 1.85-4.1 2.4-6.1-3.29-1.9-8.24-3.03-12.08-3.03C15.05-58.08 8.8-49.84 8.8-36v.72l-6.4.8v3.28h6.4zm0 0"/></symbol><symbol overflow="visible" id="56785735c"><path d="M4 0h17.84c.47-.88.72-2.08.72-2.95l-6.97-1.2v-21.7c4-3.74 7.7-5.35 10.64-5.35 4 0 6.49 2.8 6.49 9.43v16.41L27.2-2.64c0 .95.24 1.92.72 2.64h17.85c.46-.88.71-2.08.71-2.95l-6.96-1.2v-18.73c0-9.6-4.24-14.07-10.96-14.07-5.43 0-10 2.87-13.68 7.9l-.08-.07 1.51-5.75A11.5 11.5 0 0010.88-36c-3.44 0-6.47.8-9.29 2 0 .95.25 1.77.72 2.48l6.74.47c-.18 1.36-.25 2.9-.25 5.13v20.56L3.28-2.64c0 .95.24 1.92.72 2.64zm0 0"/></symbol><symbol overflow="visible" id="56785735d"><path d="M21.05.95a22 22 0 0013.43-4.39 5.5 5.5 0 00-1.2-2.72c-4.33 1.68-6.64 2.24-9.44 2.24-8.8 0-13.36-5.6-13.36-15.2 0-5.2 1.36-8.8 3.04-11.93 1.43-.47 3.04-.8 5.12-.8 4.72 0 9.36 1.7 12.08 4.08 1.44-2.39 2.56-4.95 2.56-7.59a31.08 31.08 0 00-9.84-1.6c-12.49 0-20.24 9.04-20.24 20.48C3.2-5.6 10.16.95 21.05.95zm0 0"/></symbol><symbol overflow="visible" id="56785735e"><path d="M13.28.95c4.88 0 9.13-2.47 12-6.3h.16L25.12 0A20.5 20.5 0 0038-1.6c.31-.88.48-1.76.48-2.63l-7.04-.41v-18.23c0-9.7-4.32-14.08-10.4-14.08-4.4 0-10.48 1.36-15.76 3.67 0 1.84.95 4.33 2.56 6.56a37.48 37.48 0 0112.64-5.69c2.96 1.13 4.16 5.05 4.16 10.64v3.29l-5.52.48C8.23-17.12 3.7-13.77 3.7-7.92c0 5.36 3.75 8.87 9.6 8.87zm2.24-5.36c-3.52 0-5.04-1.75-5.04-5.18 0-.97.08-2 .32-2.97 2.32-1.13 6.15-1.75 10.97-1.75h2.87v5.36a11.86 11.86 0 01-9.12 4.54zm0 0"/></symbol><symbol overflow="visible" id="56785735b"><path d="M5.84-50.56c0 2.15 4 5.12 5.11 5.12 1.13 0 5.28-2.97 5.28-5.12 0-2.08-4.07-5.2-5.28-5.2-1.1 0-5.1 3.12-5.1 5.2zM3.84 0H21.7c.47-.88.72-2.08.72-2.95l-6.9-1.2v-21.77c0-5.52 1.05-9.13 1.05-9.13a13 13 0 00-5.43-.95c-3.54 0-6.72.8-9.54 2 0 .95.25 1.77.72 2.48l6.64.47a45.2 45.2 0 00-.23 5.13v20.56l-5.6 2.88c0 .96.24 1.76.72 2.48zm0 0"/></symbol><symbol overflow="visible" id="56785735f"><path d="M3.83 0v-5.95H6.2v-.82H.45v.82h2.4V0zm0 0"/></symbol><symbol overflow="visible" id="56785735g"><path d="M5.75-2.23v-.43c0-1.6-.9-2.51-2.42-2.51S.87-4.16.87-2.48c0 1.71.91 2.62 2.5 2.62 1.43 0 2.07-.56 2.29-1.52l-.9-.09c-.18.61-.59.9-1.35.9-.94 0-1.52-.54-1.58-1.66zm-2.4-2.2c.93 0 1.43.5 1.48 1.55H1.84c.08-1.07.6-1.56 1.5-1.56zm0 0"/></symbol><symbol overflow="visible" id="56785735h"><path d="M1.83 0l1.42-2h.06l1.46 2H5.8L4-2.53l1.78-2.49H4.8L3.42-3.08h-.08l-1.4-1.94H.89l1.78 2.49L.84 0zm0 0"/></symbol><symbol overflow="visible" id="56785735i"><path d="M5.52-4.25v-.77H3.17v-1.56h-.81l-.14 1.56H.75v.77h1.47v2.4c0 1.3.48 1.94 1.84 1.94C4.6.1 5.14 0 5.55-.14L5.4-.91c-.32.13-.72.2-1.13.2-.8 0-1.1-.37-1.1-1.23v-2.31zm0 0"/></symbol><symbol overflow="visible" id="56785735j"><path d="M3.33-3.42c.47 0 .8-.27.8-.8 0-.51-.33-.8-.8-.8-.47 0-.8.29-.8.8 0 .53.33.8.8.8zm0 3.5c.47 0 .8-.27.8-.78 0-.53-.33-.82-.8-.82-.47 0-.8.29-.8.82 0 .51.33.78.8.78zm0 0"/></symbol><symbol overflow="visible" id="56785735l"><path d="M4.63-6.5c.45 0 .98.08 1.39.2l.2-.72a5.3 5.3 0 00-1.64-.26c-1.52 0-2.16.56-2.16 1.87v.4H.9v.76h1.53V0h.94v-4.25h2.53v-.77H3.36v-.3c0-.84.33-1.18 1.27-1.18zm0 0"/></symbol><symbol overflow="visible" id="56785735m"><path d="M3.58-5.81c.42 0 .72-.22.72-.67 0-.44-.3-.68-.72-.68-.44 0-.72.24-.72.68 0 .45.28.67.72.67zm.5.8H1.52v.76h1.6v3.48h-1.8V0h4.46v-.77h-1.7zm0 0"/></symbol><symbol overflow="visible" id="56785735n"><path d="M2.16 0v-2.67c0-.99.59-1.63 1.46-1.63.74 0 1.07.38 1.07 1.22V0h.95v-3.31c0-1.2-.56-1.85-1.67-1.85-.92 0-1.49.46-1.77 1.08h-.06l-.12-.94H1.2V0zm0 0"/></symbol><symbol overflow="visible" id="56785735o"><path d="M3.34.14c1.43 0 2.13-.66 2.25-1.78l-.89-.1c-.1.7-.5 1.08-1.34 1.08-1.03 0-1.52-.64-1.52-1.84 0-1.23.47-1.86 1.52-1.86.84 0 1.23.36 1.34 1.08l.9-.1c-.13-1.09-.82-1.78-2.26-1.78-1.56 0-2.46.97-2.46 2.66 0 1.66.9 2.64 2.46 2.64zm0 0"/></symbol><symbol overflow="visible" id="56785735p"><path d="M2.83.14c.94 0 1.5-.39 1.81-.95h.08l.1.81h.76v-3.38c0-1.23-.69-1.8-2.13-1.8-1.43 0-2.03.65-2.18 1.6l.93.1c.11-.6.44-.93 1.22-.93.85 0 1.22.32 1.22 1.04v.34l-1.81.2C1.6-2.7 1.1-2.17 1.1-1.28c0 .92.64 1.42 1.72 1.42zm.25-.77c-.67 0-1.02-.28-1.02-.74 0-.44.28-.72 1-.82l1.58-.19v.41c0 .8-.6 1.34-1.56 1.34zm0 0"/></symbol><symbol overflow="visible" id="56785735q"><path d="M5.95-6.77H1.1V0h.99v-2.92H5.3v-.77H2.08v-2.26h3.87zm0 0"/></symbol><symbol overflow="visible" id="56785735r"><path d="M2.73.14c.9 0 1.43-.45 1.74-1.08h.06l.13.94h.8v-5.02h-.94v2.7c0 .98-.57 1.62-1.46 1.62-.75 0-1.1-.4-1.1-1.22v-3.1h-.93v3.32c0 1.17.55 1.84 1.7 1.84zm0 0"/></symbol><symbol overflow="visible" id="56785735s"><path d="M5.08-5.16c-.94 0-1.58.43-1.9 1.3h-.09l-.07-1.16H1.05v.77h1.1v3.48H.96V0h3.96v-.77H3.1v-1.46c0-1.36.6-2.05 1.83-2.05.4 0 .76.08 1.1.17l.15-.87c-.33-.11-.7-.18-1.11-.18zm0 0"/></symbol><symbol overflow="visible" id="56785735t"><path d="M5.77-5.02H4.63L2.3-2.88h-.06v-4.26h-.94V0h.94v-2.31h.06L4.71 0h1.24L3.23-2.69zm0 0"/></symbol><symbol overflow="visible" id="56785735u"><path d="M3.36.16c1.4 0 2.2-.6 2.2-1.57 0-.89-.54-1.22-1.47-1.39L3-3c-.67-.14-.86-.33-.86-.73 0-.5.4-.74 1.17-.74.83 0 1.19.27 1.27.8l.9-.05c-.12-1-.8-1.47-2.17-1.47-1.34 0-2.1.53-2.1 1.5 0 .81.45 1.22 1.52 1.44l1.04.2c.56.11.87.24.87.72 0 .52-.45.78-1.28.78-.95 0-1.36-.28-1.42-.87l-.9.06C1.07-.36 1.8.16 3.35.16zm0 0"/></symbol><symbol overflow="visible" id="56785735v"><path d="M2.16 0v-2.69c0-.98.6-1.6 1.46-1.6.74 0 1.07.4 1.07 1.2V0h.95v-3.31c0-1.17-.56-1.85-1.67-1.85-.9 0-1.44.46-1.75 1.08h-.06v-3.06H1.2V0zm0 0"/></symbol><symbol overflow="visible" id="56785735w"><path d="M2.58.95l2.39-8.67h-.9L1.7.95zm0 0"/></symbol><symbol overflow="visible" id="56785735x"><path d="M3.42.14C5.1.14 5.9-.69 6.11-2.17l-.95-.1C4.96-1.19 4.5-.69 3.44-.69c-1.27 0-1.81-.94-1.81-2.69s.54-2.7 1.8-2.7c1.09 0 1.5.49 1.73 1.58l.93-.1c-.21-1.46-.95-2.3-2.62-2.3C1.53-6.9.62-5.6.62-3.38c0 2.2.91 3.51 2.8 3.51zm0 0"/></symbol><symbol overflow="visible" id="56785735y"><path d="M1.63 0v-2.9c0-.8.15-1.4.71-1.4.41 0 .55.3.55.88V0h.95v-2.9c0-.8.18-1.4.72-1.4.4 0 .57.3.57.88V0h.95v-3.63c0-.92-.28-1.53-1.11-1.53-.63 0-.95.41-1.1.9h-.06c-.1-.52-.44-.9-1.08-.9-.6 0-.93.41-1.06.9H1.6l-.23-.76H.67V0zm0 0"/></symbol><symbol overflow="visible" id="56785735z"><path d="M1.45-2.95c0 2.56 1.08 4.37 3.67 4.84l.11-.67C3.28.86 2.43-.75 2.43-2.95s.85-3.82 2.8-4.16l-.1-.69c-2.6.49-3.68 2.3-3.68 4.85zm0 0"/></symbol><symbol overflow="visible" id="56785735A"><path d="M3.92-7.14H1.36v.76h1.6v5.61H1.15V0H5.7v-.77H3.92zm0 0"/></symbol><symbol overflow="visible" id="56785735B"><path d="M3.16 2.03c1.67 0 2.4-.86 2.4-2.51v-4.54h-.81l-.13.91h-.06c-.26-.58-.8-1.05-1.73-1.05-1.42 0-2.24 1-2.24 2.52 0 1.6.75 2.56 2.2 2.56.94 0 1.5-.5 1.77-1.03h.05v.72c0 1.17-.42 1.67-1.45 1.67-.93 0-1.3-.34-1.41-.89L.8.5c.12.96.87 1.54 2.36 1.54zM3.06-.8c-.98 0-1.48-.57-1.48-1.82 0-1.13.5-1.75 1.48-1.75 1.06 0 1.58.76 1.58 1.75 0 .95-.56 1.82-1.58 1.82zm0 0"/></symbol><symbol overflow="visible" id="56785735C"><path d="M1.45-7.1c1.96.33 2.8 1.94 2.8 4.15 0 2.2-.84 3.8-2.8 4.17l.11.67c2.58-.47 3.67-2.28 3.67-4.84 0-2.55-1.09-4.36-3.67-4.85zm0 0"/></symbol></defs><use xlink:href="#56785735a" x="186" y="148" fill="#fff"/><use xlink:href="#56785735b" x="218.8" y="148" fill="#fff"/><g fill="#515151"><use xlink:href="#56785735c" x="242.8" y="148"/><use xlink:href="#56785735d" x="290.24" y="148"/><use xlink:href="#56785735e" x="327.12" y="148"/><use xlink:href="#56785735c" x="366.56" y="148"/></g><g fill="#fff"><use xlink:href="#56785735f" x="260" y="252"/><use xlink:href="#56785735g" x="266.667" y="252"/><use xlink:href="#56785735h" x="273.334" y="252"/><use xlink:href="#56785735i" x="280.001" y="252"/><use xlink:href="#56785735j" x="286.668" y="252"/><use xlink:href="#56785735k" x="293.335" y="252"/><use xlink:href="#56785735l" x="300.002" y="252"/><use xlink:href="#56785735m" x="306.669" y="252"/><use xlink:href="#56785735n" x="313.336" y="252"/><use xlink:href="#56785735o" x="320.003" y="252"/><use xlink:href="#56785735p" x="326.67" y="252"/><use xlink:href="#56785735n" x="333.337" y="252"/></g><g fill="#fff"><use xlink:href="#56785735q" x="150" y="266"/><use xlink:href="#56785735g" x="156.667" y="266"/><use xlink:href="#56785735p" x="163.334" y="266"/><use xlink:href="#56785735i" x="170.001" y="266"/><use xlink:href="#56785735r" x="176.668" y="266"/><use xlink:href="#56785735s" x="183.335" y="266"/><use xlink:href="#56785735g" x="190.002" y="266"/><use xlink:href="#56785735j" x="196.669" y="266"/><use xlink:href="#56785735k" x="203.336" y="266"/><use xlink:href="#56785735f" x="210.003" y="266"/><use xlink:href="#56785735r" x="216.67" y="266"/><use xlink:href="#56785735s" x="223.337" y="266"/><use xlink:href="#56785735t" x="230.004" y="266"/><use xlink:href="#56785735m" x="236.671" y="266"/><use xlink:href="#56785735u" x="243.338" y="266"/><use xlink:href="#56785735v" x="250.005" y="266"/><use xlink:href="#56785735w" x="256.672" y="266"/><use xlink:href="#56785735x" x="263.339" y="266"/><use xlink:href="#56785735s" x="270.006" y="266"/><use xlink:href="#56785735m" x="276.673" y="266"/><use xlink:href="#56785735y" x="283.34" y="266"/><use xlink:href="#56785735g" x="290.007" y="266"/><use xlink:href="#56785735p" x="296.674" y="266"/><use xlink:href="#56785735n" x="303.341" y="266"/><use xlink:href="#56785735k" x="310.008" y="266"/><use xlink:href="#56785735f" x="316.675" y="266"/><use xlink:href="#56785735p" x="323.342" y="266"/><use xlink:href="#56785735i" x="330.009" y="266"/><use xlink:href="#56785735p" x="336.676" y="266"/><use xlink:href="#56785735s" x="343.343" y="266"/><use xlink:href="#56785735k" x="350.01" y="266"/><use xlink:href="#56785735z" x="356.677" y="266"/><use xlink:href="#56785735u" x="363.344" y="266"/><use xlink:href="#56785735g" x="370.011" y="266"/><use xlink:href="#56785735i" x="376.678" y="266"/><use xlink:href="#56785735k" x="383.345" y="266"/><use xlink:href="#56785735A" x="390.012" y="266"/><use xlink:href="#56785735p" x="396.679" y="266"/><use xlink:href="#56785735n" x="403.346" y="266"/><use xlink:href="#56785735B" x="410.013" y="266"/><use xlink:href="#56785735r" x="416.68" y="266"/><use xlink:href="#56785735p" x="423.347" y="266"/><use xlink:href="#56785735B" x="430.014" y="266"/><use xlink:href="#56785735g" x="436.681" y="266"/><use xlink:href="#56785735C" x="443.348" y="266"/></g></svg>