<?xml version='1.0' encoding='UTF-8'?>
<svg xmlns="http://www.w3.org/2000/svg" xmlns:xlink="http://www.w3.org/1999/xlink" width="600px" height="300px" viewBox="0 0 600 300" x="0px" y="0px" enable-background="new 0 0 600 300"><defs><symbol overflow="visible" id="8848b133a"><path d="M38.56-33.6s-2.8.8-5.84 1.12c1.44-4.4 4.56-6.8 4.56-6.8s.08-.64-.16-1.03c-3.76-.33-5.92 1.1-7.12 2.62-.23-3.26-2.16-6-2.16-6-.64-.15-1.28 0-1.28 0s-1.92 2.74-2.15 6c-1.2-1.51-3.36-2.95-7.13-2.62-.23.39-.16 1.03-.16 1.03s3.11 2.4 4.57 6.8c-3.05-.32-5.85-1.11-5.85-1.11-3.36 0-6.07 2.07-8 4.8-1.68 2.38-2.96 5.35-2.96 10.15 0 2.72.4 6.48 1.84 10.23 2 5.29 5.6 9.2 10.64 9.61 1.6.16 4.95.72 7.05.32.07.71-1.13 2.48-1.13 2.48l.4.48c1.27-.56 2-1.76 2.32-2.89.16.82.4 1.61.95 2.33h.4c.57-.64.8-1.51.96-2.23.33 1.1 1.05 2.31 2.33 2.8l.4-.49s-.88-1.36-1.12-2.48c2 .4 6.64-.32 7.13-.32 5.9-.48 9.1-5.6 10.64-9.6a29.2 29.2 0 001.83-10.24c0-4.8-1.29-7.77-2.96-10.16-1.92-2.72-4.64-4.8-8-4.8zm0 0"/></symbol><symbol overflow="visible" id="8848b133b"><path d="M3.83 0v-5.95H6.2v-.82H.45v.82h2.4V0zm0 0"/></symbol><symbol overflow="visible" id="8848b133c"><path d="M5.75-2.23v-.43c0-1.6-.9-2.51-2.42-2.51S.87-4.16.87-2.48c0 1.71.91 2.62 2.5 2.62 1.43 0 2.07-.56 2.29-1.52l-.9-.09c-.18.61-.59.9-1.35.9-.94 0-1.52-.54-1.58-1.66zm-2.4-2.2c.93 0 1.43.5 1.48 1.55H1.84c.08-1.07.6-1.56 1.5-1.56zm0 0"/></symbol><symbol overflow="visible" id="8848b133d"><path d="M1.83 0l1.42-2h.06l1.46 2H5.8L4-2.53l1.78-2.49H4.8L3.42-3.08h-.08l-1.4-1.94H.89l1.78 2.49L.84 0zm0 0"/></symbol><symbol overflow="visible" id="8848b133e"><path d="M5.52-4.25v-.77H3.17v-1.56h-.81l-.14 1.56H.75v.77h1.47v2.4c0 1.3.48 1.94 1.84 1.94C4.6.1 5.14 0 5.55-.14L5.4-.91c-.32.13-.72.2-1.13.2-.8 0-1.1-.37-1.1-1.23v-2.31zm0 0"/></symbol><symbol overflow="visible" id="8848b133f"><path d="M3.33-3.42c.47 0 .8-.27.8-.8 0-.51-.33-.8-.8-.8-.47 0-.8.29-.8.8 0 .53.33.8.8.8zm0 3.5c.47 0 .8-.27.8-.78 0-.53-.33-.82-.8-.82-.47 0-.8.29-.8.82 0 .51.33.78.8.78zm0 0"/></symbol><symbol overflow="visible" id="8848b133l"><path d="M5.95-6.77H1.1V0h.99v-2.92H5.3v-.77H2.08v-2.26h3.87zm0 0"/></symbol><symbol overflow="visible" id="8848b133m"><path d="M2.83.14c.94 0 1.5-.39 1.81-.95h.08l.1.81h.76v-3.38c0-1.23-.69-1.8-2.13-1.8-1.43 0-2.03.65-2.18 1.6l.93.1c.11-.6.44-.93 1.22-.93.85 0 1.22.32 1.22 1.04v.34l-1.81.2C1.6-2.7 1.1-2.17 1.1-1.28c0 .92.64 1.42 1.72 1.42zm.25-.77c-.67 0-1.02-.28-1.02-.74 0-.44.28-.72 1-.82l1.58-.19v.41c0 .8-.6 1.34-1.56 1.34zm0 0"/></symbol><symbol overflow="visible" id="8848b133n"><path d="M2.73.14c.9 0 1.43-.45 1.74-1.08h.06l.13.94h.8v-5.02h-.94v2.7c0 .98-.57 1.62-1.46 1.62-.75 0-1.1-.4-1.1-1.22v-3.1h-.93v3.32c0 1.17.55 1.84 1.7 1.84zm0 0"/></symbol><symbol overflow="visible" id="8848b133o"><path d="M5.08-5.16c-.94 0-1.58.43-1.9 1.3h-.09l-.07-1.16H1.05v.77h1.1v3.48H.96V0h3.96v-.77H3.1v-1.46c0-1.36.6-2.05 1.83-2.05.4 0 .76.08 1.1.17l.15-.87c-.33-.11-.7-.18-1.11-.18zm0 0"/></symbol><symbol overflow="visible" id="8848b133p"><path d="M.92-6.77V0h.99v-2.27h1.68c1.58 0 2.38-.65 2.38-2.2v-.14c0-1.51-.8-2.16-2.34-2.16zM5-4.47c0 1.05-.42 1.45-1.58 1.45H1.91v-2.96h1.51C4.58-5.98 5-5.66 5-4.61zm0 0"/></symbol><symbol overflow="visible" id="8848b133q"><path d="M3.33.14c1.62 0 2.5-.95 2.5-2.66 0-1.68-.88-2.64-2.5-2.64-1.63 0-2.5.96-2.5 2.64 0 1.7.87 2.66 2.5 2.66zm0-.77c-1.06 0-1.52-.6-1.52-1.89 0-1.28.46-1.87 1.52-1.87 1.08 0 1.53.6 1.53 1.87 0 1.29-.45 1.9-1.53 1.9zm0 0"/></symbol><symbol overflow="visible" id="8848b133r"><path d="M1.63 0v-2.9c0-.8.15-1.4.71-1.4.41 0 .55.3.55.88V0h.95v-2.9c0-.8.18-1.4.72-1.4.4 0 .57.3.57.88V0h.95v-3.63c0-.92-.28-1.53-1.11-1.53-.63 0-.95.41-1.1.9h-.06c-.1-.52-.44-.9-1.08-.9-.6 0-.93.41-1.06.9H1.6l-.23-.76H.67V0zm0 0"/></symbol><symbol overflow="visible" id="8848b133s"><path d="M3.16 2.03c1.67 0 2.4-.86 2.4-2.51v-4.54h-.81l-.13.91h-.06c-.26-.58-.8-1.05-1.73-1.05-1.42 0-2.24 1-2.24 2.52 0 1.6.75 2.56 2.2 2.56.94 0 1.5-.5 1.77-1.03h.05v.72c0 1.17-.42 1.67-1.45 1.67-.93 0-1.3-.34-1.41-.89L.8.5c.12.96.87 1.54 2.36 1.54zM3.06-.8c-.98 0-1.48-.57-1.48-1.82 0-1.13.5-1.75 1.48-1.75 1.06 0 1.58.76 1.58 1.75 0 .95-.56 1.82-1.58 1.82zm0 0"/></symbol><symbol overflow="visible" id="8848b133t"><path d="M2.16 0v-2.67c0-.99.59-1.63 1.46-1.63.74 0 1.07.38 1.07 1.22V0h.95v-3.31c0-1.2-.56-1.85-1.67-1.85-.92 0-1.49.46-1.77 1.08h-.06l-.12-.94H1.2V0zm0 0"/></symbol><symbol overflow="visible" id="8848b133u"><path d="M3.36.16c1.4 0 2.2-.6 2.2-1.57 0-.89-.54-1.22-1.47-1.39L3-3c-.67-.14-.86-.33-.86-.73 0-.5.4-.74 1.17-.74.83 0 1.19.27 1.27.8l.9-.05c-.12-1-.8-1.47-2.17-1.47-1.34 0-2.1.53-2.1 1.5 0 .81.45 1.22 1.52 1.44l1.04.2c.56.11.87.24.87.72 0 .52-.45.78-1.28.78-.95 0-1.36-.28-1.42-.87l-.9.06C1.07-.36 1.8.16 3.35.16zm0 0"/></symbol><symbol overflow="visible" id="8848b133v"><path d="M3.42-.86h-.08L1.77-5.02H.8L2.73 0h.41c-.33.95-.72 1.27-1.45 1.27-.22 0-.49-.04-.69-.08l-.1.73c.2.06.58.11.87.11 1.2 0 1.7-.7 2.21-2.03l1.94-5.02H5zm0 0"/></symbol><symbol overflow="visible" id="8848b133w"><path d="M3.9.14c1.48 0 2.18-.98 2.18-2.64 0-1.67-.7-2.66-2.17-2.66-.91 0-1.49.41-1.79 1h-.06v-2.98h-.95V0h.81l.11-.9h.06c.29.63.82 1.04 1.82 1.04zm-.32-.8c-1.08 0-1.55-.8-1.55-1.84 0-1.06.47-1.86 1.55-1.86 1.1 0 1.51.61 1.51 1.86S4.64-.66 3.58-.66zm0 0"/></symbol><symbol overflow="visible" id="8848b133x"><path d="M3.92-7.14H1.36v.76h1.6v5.61H1.15V0H5.7v-.77H3.92zm0 0"/></symbol><symbol overflow="visible" id="8848b133y"><path d="M1.45-2.95c0 2.56 1.08 4.37 3.67 4.84l.11-.67C3.28.86 2.43-.75 2.43-2.95s.85-3.82 2.8-4.16l-.1-.69c-2.6.49-3.68 2.3-3.68 4.85zm0 0"/></symbol><symbol overflow="visible" id="8848b133z"><path d="M2.84.14C3.8.14 4.33-.26 4.6-.9h.07L4.8 0h.76v-7.14h-.95v2.95h-.08c-.28-.6-.86-.97-1.67-.97-1.48 0-2.27.99-2.27 2.64C.6-.84 1.36.14 2.84.14zm.22-.8c-.98 0-1.48-.59-1.48-1.84s.5-1.86 1.48-1.86c1.13 0 1.58.8 1.58 1.86S4.2-.66 3.06-.66zm0 0"/></symbol><symbol overflow="visible" id="8848b133A"><path d="M3.58-5.81c.42 0 .72-.22.72-.67 0-.44-.3-.68-.72-.68-.44 0-.72.24-.72.68 0 .45.28.67.72.67zm.5.8H1.52v.76h1.6v3.48h-1.8V0h4.46v-.77h-1.7zm0 0"/></symbol><symbol overflow="visible" id="8848b133B"><path d="M1.45-7.1c1.96.33 2.8 1.94 2.8 4.15 0 2.2-.84 3.8-2.8 4.17l.11.67c2.58-.47 3.67-2.28 3.67-4.84 0-2.55-1.09-4.36-3.67-4.85zm0 0"/></symbol><symbol overflow="visible" id="8848b133h"><path d="M1.77-8.14l.07.12a14.61 14.61 0 01-.72 2.1l-.75.01a23.21 23.21 0 00.5-2.23zm0 0"/></symbol><symbol overflow="visible" id="8848b133i"><path d="M2.8-5.52v.2c-.4.66-.69 1.23-.86 1.73-.18.5-.27.99-.27 1.46 0 .5.1.86.31 1.08.21.21.5.32.86.32.41 0 .73-.15.97-.46.25-.31.38-.77.38-1.39v-2.36h1.04V0h-.82L4.3-.81h-.08a1.76 1.76 0 01-1.6.9C2 .1 1.5-.09 1.15-.45.8-.82.61-1.34.61-2.02c0-.45.09-.92.27-1.39.18-.47.5-1.03.93-1.65l-.48-.28c-.23-.13-.4-.27-.52-.44a.94.94 0 01-.17-.53c0-.23.06-.46.17-.7l.31-.62.83.36-.22.4a.9.9 0 00-.1.4c0 .23.15.42.46.58zm0 0"/></symbol><symbol overflow="visible" id="8848b133j"><path d="M.86 0v-4.94h.83l.12.82h.06c.13-.26.32-.48.58-.66.27-.18.61-.27 1.02-.27.56 0 1 .17 1.31.49.32.31.49.77.49 1.39V0H4.23v-2.97c0-.41-.09-.72-.28-.92a.94.94 0 00-.75-.31c-.4 0-.71.15-.95.47-.23.3-.34.75-.34 1.35V0zm5.9 0v-4.94h1.05V-.8H9.2V0zm0 0"/></symbol><symbol overflow="visible" id="8848b133k"><path d="M4.7-.8h1.46V0H3.58v-.69c.22-.29.4-.55.53-.78.12-.23.2-.46.25-.69.05-.23.08-.49.08-.76 0-.43-.11-.74-.33-.96-.21-.21-.5-.32-.88-.32-.4 0-.73.15-.96.47-.25.3-.36.75-.36 1.35V0H.86v-4.94h.83l.12.82h.06c.13-.26.32-.48.58-.66.27-.18.61-.27 1.02-.27.63 0 1.13.17 1.48.52.35.34.53.82.53 1.44A3.59 3.59 0 014.7-.8zm0 0"/></symbol></defs><g fill="#fff"><use xlink:href="#8848b133a" x="272.8" y="148"/><use xlink:href="#8848b133b" x="266.78" y="253"/><use xlink:href="#8848b133c" x="273.447" y="253"/><use xlink:href="#8848b133d" x="280.114" y="253"/><use xlink:href="#8848b133e" x="286.781" y="253"/><use xlink:href="#8848b133f" x="293.448" y="253"/><use xlink:href="#8848b133g" x="300.115" y="253"/><g><use xlink:href="#8848b133h" x="306.78" y="253"/><use xlink:href="#8848b133i" x="309.09" y="253"/></g><g><use xlink:href="#8848b133j" x="315.19" y="253"/></g><g><use xlink:href="#8848b133k" x="324.56" y="253"/><use xlink:href="#8848b133h" x="330.91" y="253"/></g><g><use xlink:href="#8848b133l" x="186.6667" y="266"/><use xlink:href="#8848b133c" x="193.3337" y="266"/><use xlink:href="#8848b133m" x="200.0007" y="266"/><use xlink:href="#8848b133e" x="206.6677" y="266"/><use xlink:href="#8848b133n" x="213.3347" y="266"/><use xlink:href="#8848b133o" x="220.0017" y="266"/><use xlink:href="#8848b133c" x="226.6687" y="266"/><use xlink:href="#8848b133f" x="233.3357" y="266"/><use xlink:href="#8848b133g" x="240.0027" y="266"/><use xlink:href="#8848b133p" x="246.6697" y="266"/><use xlink:href="#8848b133q" x="253.3367" y="266"/><use xlink:href="#8848b133r" x="260.0037" y="266"/><use xlink:href="#8848b133c" x="266.6707" y="266"/><use xlink:href="#8848b133s" x="273.3377" y="266"/><use xlink:href="#8848b133o" x="280.0047" y="266"/><use xlink:href="#8848b133m" x="286.6717" y="266"/><use xlink:href="#8848b133t" x="293.3387" y="266"/><use xlink:href="#8848b133m" x="300.0057" y="266"/><use xlink:href="#8848b133e" x="306.6727" y="266"/><use xlink:href="#8848b133c" x="313.3397" y="266"/><use xlink:href="#8848b133g" x="320.0067" y="266"/><use xlink:href="#8848b133u" x="326.6737" y="266"/><use xlink:href="#8848b133v" x="333.3407" y="266"/><use xlink:href="#8848b133r" x="340.0077" y="266"/><use xlink:href="#8848b133w" x="346.6747" y="266"/><use xlink:href="#8848b133q" x="353.3417" y="266"/><use xlink:href="#8848b133x" x="360.0087" y="266"/><use xlink:href="#8848b133g" x="366.6757" y="266"/><use xlink:href="#8848b133y" x="373.3427" y="266"/><use xlink:href="#8848b133z" x="380.0097" y="266"/><use xlink:href="#8848b133x" x="386.6767" y="266"/><use xlink:href="#8848b133A" x="393.3437" y="266"/><use xlink:href="#8848b133s" x="400.0107" y="266"/><use xlink:href="#8848b133B" x="406.6777" y="266"/></g></g></svg>