<?xml version='1.0' encoding='UTF-8'?>
<svg xmlns="http://www.w3.org/2000/svg" xmlns:xlink="http://www.w3.org/1999/xlink" width="600px" height="300px" viewBox="0 0 600 300" x="0px" y="0px" enable-background="new 0 0 600 300"><defs><symbol overflow="visible" id="ebec6048a"><path d="M20.8-5.36L14.48-2.8c0 .96.24 2.08.72 2.8h19.44a6 6 0 00.72-2.8l-7.2-1.28v-44.87H41.2l2.57 10.72h3.1l1.05-14.97H1.05l1.03 14.97H5.2l2.57-10.72H20.8zm0 0"/></symbol><symbol overflow="visible" id="ebec6048b"><path d="M20.4.95c10.88 0 18.8-9.03 18.8-20.15 0-11.03-7.76-17.75-17.2-17.75-10.88 0-18.8 9.03-18.8 20.15C3.2-5.77 10.95.95 20.4.95zm-9.92-20.54c0-4.49 1.2-8.1 2.8-11.13 1.6-.72 3.77-1.05 5.52-1.05 7.28 0 13.12 5.46 13.12 15.36 0 4.49-1.2 8.1-2.8 11.13a14.5 14.5 0 01-5.53 1.05c-7.28 0-13.1-5.46-13.1-15.36zm0 0"/></symbol><symbol overflow="visible" id="ebec6048c"><path d="M26.23-36l-12.64.48v-10.56H9.44L6.08-35.2l-5.67.72v3.28H6.8v19.68C6.8-3.2 9.84.95 16.23.95c3.36 0 7.13-1.26 12-4.15-.23-.88-.54-1.75-.8-2.64-3.02.64-5.12 1.04-7.74 1.04-4.17 0-6.1-2.48-6.1-7.84V-31.2h12.64c.25-1.93.25-2.96 0-4.8zm0 0"/></symbol><symbol overflow="visible" id="ebec6048d"><path d="M13.28.95c4.88 0 9.13-2.47 12-6.3h.16L25.12 0A20.5 20.5 0 0038-1.6c.31-.88.48-1.76.48-2.63l-7.04-.41v-18.23c0-9.7-4.32-14.08-10.4-14.08-4.4 0-10.48 1.36-15.76 3.67 0 1.84.95 4.33 2.56 6.56a37.48 37.48 0 0112.64-5.69c2.96 1.13 4.16 5.05 4.16 10.64v3.29l-5.52.48C8.23-17.12 3.7-13.77 3.7-7.92c0 5.36 3.75 8.87 9.6 8.87zm2.24-5.36c-3.52 0-5.04-1.75-5.04-5.18 0-.97.08-2 .32-2.97 2.32-1.13 6.15-1.75 10.97-1.75h2.87v5.36a11.86 11.86 0 01-9.12 4.54zm0 0"/></symbol><symbol overflow="visible" id="ebec6048e"><path d="M3.44 0h17.84c.49-.88.72-2.08.72-2.95l-6.88-1.2V-48c0-5.52 1.04-9.13 1.04-9.13a13 13 0 00-5.44-.95 24 24 0 00-9.52 2c0 .95.24 1.77.72 2.49l6.64.47c-.15 1.43-.25 2.89-.25 5.12v42.64h-.08L2.72-2.48c0 .96.23 1.76.72 2.48zm0 0"/></symbol><symbol overflow="visible" id="ebec6048f"><path d="M4.8-28.31c0 2.15 4 5.1 5.12 5.1 1.13 0 5.28-2.95 5.28-5.1 0-2.1-4.07-5.2-5.28-5.2-1.12 0-5.12 3.1-5.12 5.2zm0 23.26c0 2.17 4 5.13 5.12 5.13 1.13 0 5.28-2.96 5.28-5.13 0-2.08-4.07-5.18-5.28-5.18-1.12 0-5.12 3.1-5.12 5.18zm0 0"/></symbol><symbol overflow="visible" id="ebec6048h"><path d="M22.16-54.56c-8.64 0-15.75 6.33-15.75 14.48 0 5.92 3.67 9.67 8.23 12.49C9.77-24.64 4-19.52 4-12.16c0 8.47 7.69 13.2 16.4 13.2 11.37 0 18.16-8 18.16-15.52 0-6.88-5.6-11.11-12.15-14.57 4.54-2.47 10-6.54 10-13.51 0-8.08-7.46-12-14.25-12zm.56 23.6C16-34.22 12.88-37.27 12.88-42c0-2.48.89-5.84 2.71-8.16 1.54-.4 3.2-.56 4.41-.56 5.36 0 9.44 3.67 9.44 9.13 0 4.95-3.28 8.8-6 10.95-.24-.08-.49-.23-.72-.31zM11.28-14c0-5.69 3.36-9.52 6.16-11.92.72.33 1.36.72 2.08 1.05 5.2 2.56 12.4 5.59 12.48 12.15 0 2.88-1.36 6.31-3.6 9.44-1.35.33-2.96.48-4.48.48-7.6 0-12.64-4.25-12.64-11.2zm0 0"/></symbol><symbol overflow="visible" id="ebec6048i"><path d="M32.8-54.48l-22.08 2L9.12-50 6.23-31.36c0 .88.72 2.8 1.93 3.84a22 22 0 017.76-1.43c8.08 0 12.72 5.03 12.72 12.47 0 7.04-4.16 12-9.92 13.68-3.52-.8-8.24-3.43-12-6.8a11.52 11.52 0 00-5.13 5.04C4.95-1.84 10.31.95 16.56.95c11.28 0 19.36-9.18 19.36-19.51 0-9.28-6.48-15.28-17.2-15.28-2.88 0-5.36.4-7.13.97l1.93-14.49h18.96c.8-2.56.8-4.64.32-7.12zm0 0"/></symbol><symbol overflow="visible" id="ebec6048j"><path d="M28.95-4.72l-8.72.31v-48.3l-2.15-1.45a49.92 49.92 0 00-15.67 5.2 9.1 9.1 0 002.07 4.55 47.68 47.68 0 018.96-4v44l-8.8-.3s-.8 2.55 0 4.71h24.31c.9-2.23 0-4.72 0-4.72zm0 0"/></symbol><symbol overflow="visible" id="ebec6048k"><path d="M31.77-54.56c-19.2 0-28.57 12.33-28.57 31.12 0 16 6.8 24.4 17.6 24.4 11.36 0 17.92-9.2 17.92-18.8 0-9.52-6.49-14.88-14.95-14.88a19.35 19.35 0 00-13.7 5.77c.41-10.82 4.98-19.36 11.21-21.85 3.28 0 7.84.88 12.64 2 .88-2.48 1.03-5.6 1.03-6.64 0-.8-.08-1.12-3.18-1.12zM21.13-27.7c5.92 0 10.64 4.25 10.64 12.4 0 4.5-1.46 8.65-3.93 11.45h-1.12c-9.6 0-15.67-7.29-16.56-18.96 3.36-3.2 7.12-4.89 10.96-4.89zm0 0"/></symbol><symbol overflow="visible" id="ebec6048l"><path d="M3.83 0v-5.95H6.2v-.82H.45v.82h2.4V0zm0 0"/></symbol><symbol overflow="visible" id="ebec6048m"><path d="M5.75-2.23v-.43c0-1.6-.9-2.51-2.42-2.51S.87-4.16.87-2.48c0 1.71.91 2.62 2.5 2.62 1.43 0 2.07-.56 2.29-1.52l-.9-.09c-.18.61-.59.9-1.35.9-.94 0-1.52-.54-1.58-1.66zm-2.4-2.2c.93 0 1.43.5 1.48 1.55H1.84c.08-1.07.6-1.56 1.5-1.56zm0 0"/></symbol><symbol overflow="visible" id="ebec6048n"><path d="M1.83 0l1.42-2h.06l1.46 2H5.8L4-2.53l1.78-2.49H4.8L3.42-3.08h-.08l-1.4-1.94H.89l1.78 2.49L.84 0zm0 0"/></symbol><symbol overflow="visible" id="ebec6048o"><path d="M5.52-4.25v-.77H3.17v-1.56h-.81l-.14 1.56H.75v.77h1.47v2.4c0 1.3.48 1.94 1.84 1.94C4.6.1 5.14 0 5.55-.14L5.4-.91c-.32.13-.72.2-1.13.2-.8 0-1.1-.37-1.1-1.23v-2.31zm0 0"/></symbol><symbol overflow="visible" id="ebec6048p"><path d="M3.33-3.42c.47 0 .8-.27.8-.8 0-.51-.33-.8-.8-.8-.47 0-.8.29-.8.8 0 .53.33.8.8.8zm0 3.5c.47 0 .8-.27.8-.78 0-.53-.33-.82-.8-.82-.47 0-.8.29-.8.82 0 .51.33.78.8.78zm0 0"/></symbol><symbol overflow="visible" id="ebec6048r"><path d="M3.33.14c1.62 0 2.5-.95 2.5-2.66 0-1.68-.88-2.64-2.5-2.64-1.63 0-2.5.96-2.5 2.64 0 1.7.87 2.66 2.5 2.66zm0-.77c-1.06 0-1.52-.6-1.52-1.89 0-1.28.46-1.87 1.52-1.87 1.08 0 1.53.6 1.53 1.87 0 1.29-.45 1.9-1.53 1.9zm0 0"/></symbol><symbol overflow="visible" id="ebec6048s"><path d="M2.83.14c.94 0 1.5-.39 1.81-.95h.08l.1.81h.76v-3.38c0-1.23-.69-1.8-2.13-1.8-1.43 0-2.03.65-2.18 1.6l.93.1c.11-.6.44-.93 1.22-.93.85 0 1.22.32 1.22 1.04v.34l-1.81.2C1.6-2.7 1.1-2.17 1.1-1.28c0 .92.64 1.42 1.72 1.42zm.25-.77c-.67 0-1.02-.28-1.02-.74 0-.44.28-.72 1-.82l1.58-.19v.41c0 .8-.6 1.34-1.56 1.34zm0 0"/></symbol><symbol overflow="visible" id="ebec6048t"><path d="M3.92-7.14H1.36v.76h1.6v5.61H1.15V0H5.7v-.77H3.92zm0 0"/></symbol><symbol overflow="visible" id="ebec6048u"><path d="M3.33.16c1.69 0 2.69-.74 2.69-1.94 0-1.05-.8-1.58-1.43-1.72v-.05c.5-.14 1.2-.58 1.2-1.56 0-1.12-.95-1.81-2.46-1.81-1.52 0-2.46.69-2.46 1.81 0 .97.68 1.4 1.18 1.56v.05c-.6.14-1.4.64-1.4 1.72 0 1.2 1 1.94 2.68 1.94zm0-4.04c-.97 0-1.49-.43-1.49-1.12 0-.78.52-1.1 1.49-1.1.95 0 1.48.32 1.48 1.1 0 .69-.53 1.13-1.48 1.13zm0 3.24c-1.1 0-1.7-.42-1.7-1.25 0-.78.6-1.2 1.7-1.2s1.7.42 1.7 1.2c0 .83-.6 1.25-1.7 1.25zm0 0"/></symbol><symbol overflow="visible" id="ebec6048v"><path d="M3.42.14c1.55 0 2.44-.84 2.44-2.33 0-1.45-.83-2.22-2.14-2.22-.75 0-1.28.27-1.67.72H2l.31-2.22h3.11v-.86H1.53l-.45 3.93h.81c.3-.36.9-.79 1.58-.79.92 0 1.44.43 1.44 1.47 0 .99-.54 1.5-1.49 1.5-.83 0-1.28-.32-1.5-1.01l-.95.1C1.07-.46 2 .13 3.42.13zm0 0"/></symbol><symbol overflow="visible" id="ebec6048w"><path d="M4.22-6.77h-.86l-2.03.7v.87c.64-.17 1.26-.38 1.89-.55v4.9H1.03V0h4.9v-.86H4.21zm0 0"/></symbol><symbol overflow="visible" id="ebec6048x"><path d="M3.42.14c1.58 0 2.49-.86 2.49-2.3 0-1.42-.86-2.17-2.22-2.17-1.03 0-1.58.5-1.9 1.02h-.04c.03-1.63.4-2.77 1.73-2.77.91 0 1.24.44 1.36.96l.97-.11c-.23-.96-.86-1.68-2.33-1.68C1.84-6.9.86-5.86.86-3.1.86-.9 1.78.14 3.42.14zm.02-.78c-.9 0-1.47-.55-1.47-1.47 0-.9.7-1.47 1.53-1.47.92 0 1.47.52 1.47 1.47 0 .97-.6 1.47-1.53 1.47zm0 0"/></symbol><symbol overflow="visible" id="ebec6048y"><path d="M5.95-6.77H1.1V0h.99v-2.92H5.3v-.77H2.08v-2.26h3.87zm0 0"/></symbol><symbol overflow="visible" id="ebec6048z"><path d="M2.73.14c.9 0 1.43-.45 1.74-1.08h.06l.13.94h.8v-5.02h-.94v2.7c0 .98-.57 1.62-1.46 1.62-.75 0-1.1-.4-1.1-1.22v-3.1h-.93v3.32c0 1.17.55 1.84 1.7 1.84zm0 0"/></symbol><symbol overflow="visible" id="ebec6048A"><path d="M5.08-5.16c-.94 0-1.58.43-1.9 1.3h-.09l-.07-1.16H1.05v.77h1.1v3.48H.96V0h3.96v-.77H3.1v-1.46c0-1.36.6-2.05 1.83-2.05.4 0 .76.08 1.1.17l.15-.87c-.33-.11-.7-.18-1.11-.18zm0 0"/></symbol><symbol overflow="visible" id="ebec6048B"><path d="M2.08-6.77h-.99V0h4.79v-.81h-3.8zm0 0"/></symbol><symbol overflow="visible" id="ebec6048C"><path d="M3.58-5.81c.42 0 .72-.22.72-.67 0-.44-.3-.68-.72-.68-.44 0-.72.24-.72.68 0 .45.28.67.72.67zm.5.8H1.52v.76h1.6v3.48h-1.8V0h4.46v-.77h-1.7zm0 0"/></symbol><symbol overflow="visible" id="ebec6048D"><path d="M2.16 0v-2.67c0-.99.59-1.63 1.46-1.63.74 0 1.07.38 1.07 1.22V0h.95v-3.31c0-1.2-.56-1.85-1.67-1.85-.92 0-1.49.46-1.77 1.08h-.06l-.12-.94H1.2V0zm0 0"/></symbol><symbol overflow="visible" id="ebec6048E"><path d="M3.16 2.03c1.67 0 2.4-.86 2.4-2.51v-4.54h-.81l-.13.91h-.06c-.26-.58-.8-1.05-1.73-1.05-1.42 0-2.24 1-2.24 2.52 0 1.6.75 2.56 2.2 2.56.94 0 1.5-.5 1.77-1.03h.05v.72c0 1.17-.42 1.67-1.45 1.67-.93 0-1.3-.34-1.41-.89L.8.5c.12.96.87 1.54 2.36 1.54zM3.06-.8c-.98 0-1.48-.57-1.48-1.82 0-1.13.5-1.75 1.48-1.75 1.06 0 1.58.76 1.58 1.75 0 .95-.56 1.82-1.58 1.82zm0 0"/></symbol><symbol overflow="visible" id="ebec6048F"><path d="M1.63 0v-2.9c0-.8.15-1.4.71-1.4.41 0 .55.3.55.88V0h.95v-2.9c0-.8.18-1.4.72-1.4.4 0 .57.3.57.88V0h.95v-3.63c0-.92-.28-1.53-1.11-1.53-.63 0-.95.41-1.1.9h-.06c-.1-.52-.44-.9-1.08-.9-.6 0-.93.41-1.06.9H1.6l-.23-.76H.67V0zm0 0"/></symbol><symbol overflow="visible" id="ebec6048G"><path d="M3.36.16c1.4 0 2.2-.6 2.2-1.57 0-.89-.54-1.22-1.47-1.39L3-3c-.67-.14-.86-.33-.86-.73 0-.5.4-.74 1.17-.74.83 0 1.19.27 1.27.8l.9-.05c-.12-1-.8-1.47-2.17-1.47-1.34 0-2.1.53-2.1 1.5 0 .81.45 1.22 1.52 1.44l1.04.2c.56.11.87.24.87.72 0 .52-.45.78-1.28.78-.95 0-1.36-.28-1.42-.87l-.9.06C1.07-.36 1.8.16 3.35.16zm0 0"/></symbol><symbol overflow="visible" id="ebec6048H"><path d="M1.45-2.95c0 2.56 1.08 4.37 3.67 4.84l.11-.67C3.28.86 2.43-.75 2.43-2.95s.85-3.82 2.8-4.16l-.1-.69c-2.6.49-3.68 2.3-3.68 4.85zm0 0"/></symbol><symbol overflow="visible" id="ebec6048I"><path d="M1.45-7.1c1.96.33 2.8 1.94 2.8 4.15 0 2.2-.84 3.8-2.8 4.17l.11.67c2.58-.47 3.67-2.28 3.67-4.84 0-2.55-1.09-4.36-3.67-4.85zm0 0"/></symbol></defs><use xlink:href="#ebec6048a" x="113" y="148" fill="#515151"/><g fill="#515151"><use xlink:href="#ebec6048b" x="157.16" y="148"/><use xlink:href="#ebec6048c" x="199.56" y="148"/><use xlink:href="#ebec6048d" x="229.8" y="148"/><use xlink:href="#ebec6048e" x="269.24" y="148"/><use xlink:href="#ebec6048f" x="293.64" y="148"/><use xlink:href="#ebec6048g" x="313.64" y="148"/></g><use xlink:href="#ebec6048h" x="333.64" y="148" fill="#fff"/><use xlink:href="#ebec6048i" x="375.8" y="148" fill="#fff"/><use xlink:href="#ebec6048j" x="414.52" y="148" fill="#fff"/><use xlink:href="#ebec6048k" x="445.48" y="148" fill="#fff"/><g fill="#fff"><use xlink:href="#ebec6048l" x="243.3333" y="252"/><use xlink:href="#ebec6048m" x="250.0003" y="252"/><use xlink:href="#ebec6048n" x="256.6673" y="252"/><use xlink:href="#ebec6048o" x="263.3343" y="252"/><use xlink:href="#ebec6048p" x="270.0013" y="252"/><use xlink:href="#ebec6048q" x="276.6683" y="252"/><use xlink:href="#ebec6048l" x="283.3353" y="252"/><use xlink:href="#ebec6048r" x="290.0023" y="252"/><use xlink:href="#ebec6048o" x="296.6693" y="252"/><use xlink:href="#ebec6048s" x="303.3363" y="252"/><use xlink:href="#ebec6048t" x="310.0033" y="252"/><use xlink:href="#ebec6048p" x="316.6703" y="252"/><use xlink:href="#ebec6048q" x="323.3373" y="252"/><use xlink:href="#ebec6048u" x="330.0043" y="252"/><use xlink:href="#ebec6048v" x="336.6713" y="252"/><use xlink:href="#ebec6048w" x="343.3383" y="252"/><use xlink:href="#ebec6048x" x="350.0053" y="252"/></g><g fill="#fff"><use xlink:href="#ebec6048y" x="196.6667" y="266"/><use xlink:href="#ebec6048m" x="203.3337" y="266"/><use xlink:href="#ebec6048s" x="210.0007" y="266"/><use xlink:href="#ebec6048o" x="216.6677" y="266"/><use xlink:href="#ebec6048z" x="223.3347" y="266"/><use xlink:href="#ebec6048A" x="230.0017" y="266"/><use xlink:href="#ebec6048m" x="236.6687" y="266"/><use xlink:href="#ebec6048p" x="243.3357" y="266"/><use xlink:href="#ebec6048q" x="250.0027" y="266"/><use xlink:href="#ebec6048B" x="256.6697" y="266"/><use xlink:href="#ebec6048C" x="263.3367" y="266"/><use xlink:href="#ebec6048D" x="270.0037" y="266"/><use xlink:href="#ebec6048C" x="276.6707" y="266"/><use xlink:href="#ebec6048D" x="283.3377" y="266"/><use xlink:href="#ebec6048E" x="290.0047" y="266"/><use xlink:href="#ebec6048q" x="296.6717" y="266"/><use xlink:href="#ebec6048D" x="303.3387" y="266"/><use xlink:href="#ebec6048z" x="310.0057" y="266"/><use xlink:href="#ebec6048F" x="316.6727" y="266"/><use xlink:href="#ebec6048m" x="323.3397" y="266"/><use xlink:href="#ebec6048A" x="330.0067" y="266"/><use xlink:href="#ebec6048s" x="336.6737" y="266"/><use xlink:href="#ebec6048t" x="343.3407" y="266"/><use xlink:href="#ebec6048G" x="350.0077" y="266"/><use xlink:href="#ebec6048q" x="356.6747" y="266"/><use xlink:href="#ebec6048H" x="363.3417" y="266"/><use xlink:href="#ebec6048t" x="370.0087" y="266"/><use xlink:href="#ebec6048D" x="376.6757" y="266"/><use xlink:href="#ebec6048z" x="383.3427" y="266"/><use xlink:href="#ebec6048F" x="390.0097" y="266"/><use xlink:href="#ebec6048I" x="396.6767" y="266"/></g></svg>