<?xml version='1.0' encoding='UTF-8'?>
<svg xmlns="http://www.w3.org/2000/svg" xmlns:xlink="http://www.w3.org/1999/xlink" width="600px" height="300px" viewBox="0 0 600 300" x="0px" y="0px" enable-background="new 0 0 600 300"><defs><symbol overflow="visible" id="a2ff5f8aa"><path d="M18.4.95c5.44 0 10-2.87 13.68-7.9l.15.08-1.59 6.46s1.67.82 5.13.82c4 0 7.18-1.13 9.18-2.1.4-.8.4-1.67.25-2.54l-7.04-.41v-18.8s-1.44-.4-3.2-.4c-2.24 0-3.6.64-3.6.64v13.04c-4 3.75-7.67 5.36-10.64 5.36-4 0-6.49-2.8-6.49-9.43V-31.2H41.2c.4-1.75.49-3.68 0-5.6l-26.97 1.28V-48c0-5.52 1.05-9.13 1.05-9.13a13 13 0 00-5.44-.95c-3.53 0-6.71.8-9.53 2 0 .95.25 1.77.74 2.49l6.64.47c-.17 1.43-.25 2.89-.25 5.12v34.88C7.44-3.53 11.69.95 18.4.95zm0 0"/></symbol><symbol overflow="visible" id="a2ff5f8ab"><path d="M15.05-9.69v-16.23c0-5.52 1.03-8.95 1.03-8.95A13.05 13.05 0 0010.3-36c-3.44 0-6.62.8-9.44 2 0 .95.26 1.77.72 2.48l6.97.57c-.15 1.36-.25 2.8-.25 5.03v15.84c0 3.67-.31 6.31-1.03 8.96C8.64-.48 10.64 0 17.92 0h17.2a16.8 16.8 0 000-5.6L14.8-4.55c.15-1.44.25-2.88.25-5.13zm0 0"/></symbol><symbol overflow="visible" id="a2ff5f8ac"><path d="M3.83 0v-5.95H6.2v-.82H.45v.82h2.4V0zm0 0"/></symbol><symbol overflow="visible" id="a2ff5f8ad"><path d="M5.75-2.23v-.43c0-1.6-.9-2.51-2.42-2.51S.87-4.16.87-2.48c0 1.71.91 2.62 2.5 2.62 1.43 0 2.07-.56 2.29-1.52l-.9-.09c-.18.61-.59.9-1.35.9-.94 0-1.52-.54-1.58-1.66zm-2.4-2.2c.93 0 1.43.5 1.48 1.55H1.84c.08-1.07.6-1.56 1.5-1.56zm0 0"/></symbol><symbol overflow="visible" id="a2ff5f8ae"><path d="M1.83 0l1.42-2h.06l1.46 2H5.8L4-2.53l1.78-2.49H4.8L3.42-3.08h-.08l-1.4-1.94H.89l1.78 2.49L.84 0zm0 0"/></symbol><symbol overflow="visible" id="a2ff5f8af"><path d="M5.52-4.25v-.77H3.17v-1.56h-.81l-.14 1.56H.75v.77h1.47v2.4c0 1.3.48 1.94 1.84 1.94C4.6.1 5.14 0 5.55-.14L5.4-.91c-.32.13-.72.2-1.13.2-.8 0-1.1-.37-1.1-1.23v-2.31zm0 0"/></symbol><symbol overflow="visible" id="a2ff5f8ag"><path d="M3.33-3.42c.47 0 .8-.27.8-.8 0-.51-.33-.8-.8-.8-.47 0-.8.29-.8.8 0 .53.33.8.8.8zm0 3.5c.47 0 .8-.27.8-.78 0-.53-.33-.82-.8-.82-.47 0-.8.29-.8.82 0 .51.33.78.8.78zm0 0"/></symbol><symbol overflow="visible" id="a2ff5f8ak"><path d="M5.95-6.77H1.1V0h.99v-2.92H5.3v-.77H2.08v-2.26h3.87zm0 0"/></symbol><symbol overflow="visible" id="a2ff5f8al"><path d="M2.83.14c.94 0 1.5-.39 1.81-.95h.08l.1.81h.76v-3.38c0-1.23-.69-1.8-2.13-1.8-1.43 0-2.03.65-2.18 1.6l.93.1c.11-.6.44-.93 1.22-.93.85 0 1.22.32 1.22 1.04v.34l-1.81.2C1.6-2.7 1.1-2.17 1.1-1.28c0 .92.64 1.42 1.72 1.42zm.25-.77c-.67 0-1.02-.28-1.02-.74 0-.44.28-.72 1-.82l1.58-.19v.41c0 .8-.6 1.34-1.56 1.34zm0 0"/></symbol><symbol overflow="visible" id="a2ff5f8am"><path d="M2.73.14c.9 0 1.43-.45 1.74-1.08h.06l.13.94h.8v-5.02h-.94v2.7c0 .98-.57 1.62-1.46 1.62-.75 0-1.1-.4-1.1-1.22v-3.1h-.93v3.32c0 1.17.55 1.84 1.7 1.84zm0 0"/></symbol><symbol overflow="visible" id="a2ff5f8an"><path d="M5.08-5.16c-.94 0-1.58.43-1.9 1.3h-.09l-.07-1.16H1.05v.77h1.1v3.48H.96V0h3.96v-.77H3.1v-1.46c0-1.36.6-2.05 1.83-2.05.4 0 .76.08 1.1.17l.15-.87c-.33-.11-.7-.18-1.11-.18zm0 0"/></symbol><symbol overflow="visible" id="a2ff5f8ao"><path d="M5.92-6.77H1.1V0h4.83v-.8H2.06v-2.26h3.22v-.75H2.06v-2.16h3.86zm0 0"/></symbol><symbol overflow="visible" id="a2ff5f8ap"><path d="M3.36.16c1.4 0 2.2-.6 2.2-1.57 0-.89-.54-1.22-1.47-1.39L3-3c-.67-.14-.86-.33-.86-.73 0-.5.4-.74 1.17-.74.83 0 1.19.27 1.27.8l.9-.05c-.12-1-.8-1.47-2.17-1.47-1.34 0-2.1.53-2.1 1.5 0 .81.45 1.22 1.52 1.44l1.04.2c.56.11.87.24.87.72 0 .52-.45.78-1.28.78-.95 0-1.36-.28-1.42-.87l-.9.06C1.07-.36 1.8.16 3.35.16zm0 0"/></symbol><symbol overflow="visible" id="a2ff5f8aq"><path d="M2.16 0v-2.67c0-.99.59-1.63 1.46-1.63.74 0 1.07.38 1.07 1.22V0h.95v-3.31c0-1.2-.56-1.85-1.67-1.85-.92 0-1.49.46-1.77 1.08h-.06l-.12-.94H1.2V0zm0 0"/></symbol><symbol overflow="visible" id="a2ff5f8ar"><path d="M6.17 0L3.98-6.77h-1.3L.5 0h.97l.44-1.47h2.78L5.16 0zM3.28-5.94h.08l1.1 3.74H2.15zm0 0"/></symbol><symbol overflow="visible" id="a2ff5f8as"><path d="M1.63 0v-2.9c0-.8.15-1.4.71-1.4.41 0 .55.3.55.88V0h.95v-2.9c0-.8.18-1.4.72-1.4.4 0 .57.3.57.88V0h.95v-3.63c0-.92-.28-1.53-1.11-1.53-.63 0-.95.41-1.1.9h-.06c-.1-.52-.44-.9-1.08-.9-.6 0-.93.41-1.06.9H1.6l-.23-.76H.67V0zm0 0"/></symbol><symbol overflow="visible" id="a2ff5f8at"><path d="M3.58-5.81c.42 0 .72-.22.72-.67 0-.44-.3-.68-.72-.68-.44 0-.72.24-.72.68 0 .45.28.67.72.67zm.5.8H1.52v.76h1.6v3.48h-1.8V0h4.46v-.77h-1.7zm0 0"/></symbol><symbol overflow="visible" id="a2ff5f8au"><path d="M1.45-2.95c0 2.56 1.08 4.37 3.67 4.84l.11-.67C3.28.86 2.43-.75 2.43-2.95s.85-3.82 2.8-4.16l-.1-.69c-2.6.49-3.68 2.3-3.68 4.85zm0 0"/></symbol><symbol overflow="visible" id="a2ff5f8av"><path d="M2.84.14C3.8.14 4.33-.26 4.6-.9h.07L4.8 0h.76v-7.14h-.95v2.95h-.08c-.28-.6-.86-.97-1.67-.97-1.48 0-2.27.99-2.27 2.64C.6-.84 1.36.14 2.84.14zm.22-.8c-.98 0-1.48-.59-1.48-1.84s.5-1.86 1.48-1.86c1.13 0 1.58.8 1.58 1.86S4.2-.66 3.06-.66zm0 0"/></symbol><symbol overflow="visible" id="a2ff5f8aw"><path d="M4.63-6.5c.45 0 .98.08 1.39.2l.2-.72a5.3 5.3 0 00-1.64-.26c-1.52 0-2.16.56-2.16 1.87v.4H.9v.76h1.53V0h.94v-4.25h2.53v-.77H3.36v-.3c0-.84.33-1.18 1.27-1.18zm0 0"/></symbol><symbol overflow="visible" id="a2ff5f8ax"><path d="M3.92-7.14H1.36v.76h1.6v5.61H1.15V0H5.7v-.77H3.92zm0 0"/></symbol><symbol overflow="visible" id="a2ff5f8ay"><path d="M1.45-7.1c1.96.33 2.8 1.94 2.8 4.15 0 2.2-.84 3.8-2.8 4.17l.11.67c2.58-.47 3.67-2.28 3.67-4.84 0-2.55-1.09-4.36-3.67-4.85zm0 0"/></symbol><symbol overflow="visible" id="a2ff5f8ai"><path d="M5.23-3.13V0h-.82l-.13-.81h-.06a1.76 1.76 0 01-1.6.9c-.56 0-1-.15-1.32-.46C.97-.7.8-1.17.8-1.77v-5.82h1.03v2.65h3.57v.8H1.84v2.16c0 .43.1.74.28.95.2.2.44.3.75.3.41 0 .73-.15.96-.46.24-.31.36-.77.36-1.39v-.54zm0 0"/></symbol><symbol overflow="visible" id="a2ff5f8aj"><path d="M.86 0v-4.94H1.9V-.8h1.37V0zm0 0"/></symbol></defs><g fill="#fff"><use xlink:href="#a2ff5f8aa" x="259.4" y="148"/><use xlink:href="#a2ff5f8ab" x="306.44" y="148"/><use xlink:href="#a2ff5f8ac" x="275.235" y="253"/><use xlink:href="#a2ff5f8ad" x="281.902" y="253"/><use xlink:href="#a2ff5f8ae" x="288.569" y="253"/><use xlink:href="#a2ff5f8af" x="295.236" y="253"/><use xlink:href="#a2ff5f8ag" x="301.903" y="253"/><use xlink:href="#a2ff5f8ah" x="308.57" y="253"/><g><use xlink:href="#a2ff5f8ai" x="315.235" y="253"/><use xlink:href="#a2ff5f8aj" x="321.335" y="253"/></g><g><use xlink:href="#a2ff5f8ak" x="183.3333" y="266"/><use xlink:href="#a2ff5f8ad" x="190.0003" y="266"/><use xlink:href="#a2ff5f8al" x="196.6673" y="266"/><use xlink:href="#a2ff5f8af" x="203.3343" y="266"/><use xlink:href="#a2ff5f8am" x="210.0013" y="266"/><use xlink:href="#a2ff5f8an" x="216.6683" y="266"/><use xlink:href="#a2ff5f8ad" x="223.3353" y="266"/><use xlink:href="#a2ff5f8ag" x="230.0023" y="266"/><use xlink:href="#a2ff5f8ah" x="236.6693" y="266"/><use xlink:href="#a2ff5f8ao" x="243.3363" y="266"/><use xlink:href="#a2ff5f8al" x="250.0033" y="266"/><use xlink:href="#a2ff5f8ap" x="256.6703" y="266"/><use xlink:href="#a2ff5f8af" x="263.3373" y="266"/><use xlink:href="#a2ff5f8ad" x="270.0043" y="266"/><use xlink:href="#a2ff5f8an" x="276.6713" y="266"/><use xlink:href="#a2ff5f8aq" x="283.3383" y="266"/><use xlink:href="#a2ff5f8ah" x="290.0053" y="266"/><use xlink:href="#a2ff5f8ar" x="296.6723" y="266"/><use xlink:href="#a2ff5f8an" x="303.3393" y="266"/><use xlink:href="#a2ff5f8as" x="310.0063" y="266"/><use xlink:href="#a2ff5f8ad" x="316.6733" y="266"/><use xlink:href="#a2ff5f8aq" x="323.3403" y="266"/><use xlink:href="#a2ff5f8at" x="330.0073" y="266"/><use xlink:href="#a2ff5f8al" x="336.6743" y="266"/><use xlink:href="#a2ff5f8aq" x="343.3413" y="266"/><use xlink:href="#a2ff5f8ah" x="350.0083" y="266"/><use xlink:href="#a2ff5f8au" x="356.6753" y="266"/><use xlink:href="#a2ff5f8av" x="363.3423" y="266"/><use xlink:href="#a2ff5f8ad" x="370.0093" y="266"/><use xlink:href="#a2ff5f8aw" x="376.6763" y="266"/><use xlink:href="#a2ff5f8al" x="383.3433" y="266"/><use xlink:href="#a2ff5f8am" x="390.0103" y="266"/><use xlink:href="#a2ff5f8ax" x="396.6773" y="266"/><use xlink:href="#a2ff5f8af" x="403.3443" y="266"/><use xlink:href="#a2ff5f8ay" x="410.0113" y="266"/></g></g></svg>