<?xml version='1.0' encoding='UTF-8'?>
<svg xmlns="http://www.w3.org/2000/svg" xmlns:xlink="http://www.w3.org/1999/xlink" width="600px" height="300px" viewBox="0 0 600 300" x="0px" y="0px" enable-background="new 0 0 600 300"><defs><symbol overflow="visible" id="3e0f98aaa"><path d="M35.92-4.48c0-3.6-1.51-6.96-3.6-9.68a29.17 29.17 0 00-4.63-2.8c1.67.24 3.6.65 5.6 1.27a16.33 16.33 0 014.48 12.1l.64.46s2.23 0 4.3-2c3.06-2.95 2.88-7.59-.4-11.03-2.47-2.56-6-3.92-9.51-4.4-1.92.25-3.67.72-5.2 1.28a37.87 37.87 0 014.71-3.03c4.74 0 9.28 2.39 11.85 5.36l.64-.1s1.6-1.26 1.6-4.47c0-4.32-3.04-7.53-8.17-7.53-3.67 0-7.03 1.61-9.75 3.7a25.67 25.67 0 00-2.8 4.55c.32-1.6.63-3.6 1.27-5.51 3.36-3.28 8.25-4.9 12.1-4.49l.47-.64s.25-2-2.08-4.33c-3.2-3.1-7.44-3.03-10.96.41-2.56 2.48-4 6-4.4 9.52.33 1.92.8 3.76 1.28 5.2a35.92 35.92 0 01-3.05-4.72c0-4.72 2.4-9.28 5.38-11.84l-.1-.64s-1.28-1.6-4.46-1.6c-4.33 0-7.54 3.03-7.54 8.16 0 3.69 1.61 7.05 3.7 9.76 1.5 1.11 3.12 2 4.48 2.72-1.61-.25-3.54-.64-5.46-1.2-3.36-3.36-4.87-8.23-4.47-12.08l-.64-.48s-2-.24-4.32 2.08c-3.36 3.43-2.72 7.68.4 10.96 2.72 2.8 6.16 3.93 9.52 4.4 1.92-.32 3.76-.8 5.2-1.29-1.28.97-2.88 2.1-4.72 3.05-4.72 0-9.28-2.4-11.84-5.36l-.64.08s-1.6 1.28-1.6 4.48c0 4.32 3.03 7.52 8.16 7.52 3.69 0 7.05-1.6 9.77-3.67 1.1-1.53 2-3.05 2.71-4.49a41.14 41.14 0 01-1.2 5.44c-3.36 3.28-8.23 4.88-12.16 4.48l-.4.65s-.24 2.07 2 4.3c3.28 3.29 7.6 2.8 10.97-.38 2.95-2.81 4.07-6.57 4.47-9.53a27.3 27.3 0 00-1.2-5.11c.96 1.36 2 2.87 2.88 4.64 0 4.72-2.32 9.26-5.36 11.83l.08.64s1.36 1.6 4.49 1.6c4.3 0 7.51-2.96 7.51-8.24zm0 0"/></symbol><symbol overflow="visible" id="3e0f98aab"><path d="M3.83 0v-5.95H6.2v-.82H.45v.82h2.4V0zm0 0"/></symbol><symbol overflow="visible" id="3e0f98aac"><path d="M5.75-2.23v-.43c0-1.6-.9-2.51-2.42-2.51S.87-4.16.87-2.48c0 1.71.91 2.62 2.5 2.62 1.43 0 2.07-.56 2.29-1.52l-.9-.09c-.18.61-.59.9-1.35.9-.94 0-1.52-.54-1.58-1.66zm-2.4-2.2c.93 0 1.43.5 1.48 1.55H1.84c.08-1.07.6-1.56 1.5-1.56zm0 0"/></symbol><symbol overflow="visible" id="3e0f98aad"><path d="M1.83 0l1.42-2h.06l1.46 2H5.8L4-2.53l1.78-2.49H4.8L3.42-3.08h-.08l-1.4-1.94H.89l1.78 2.49L.84 0zm0 0"/></symbol><symbol overflow="visible" id="3e0f98aae"><path d="M5.52-4.25v-.77H3.17v-1.56h-.81l-.14 1.56H.75v.77h1.47v2.4c0 1.3.48 1.94 1.84 1.94C4.6.1 5.14 0 5.55-.14L5.4-.91c-.32.13-.72.2-1.13.2-.8 0-1.1-.37-1.1-1.23v-2.31zm0 0"/></symbol><symbol overflow="visible" id="3e0f98aaf"><path d="M3.33-3.42c.47 0 .8-.27.8-.8 0-.51-.33-.8-.8-.8-.47 0-.8.29-.8.8 0 .53.33.8.8.8zm0 3.5c.47 0 .8-.27.8-.78 0-.53-.33-.82-.8-.82-.47 0-.8.29-.8.82 0 .51.33.78.8.78zm0 0"/></symbol><symbol overflow="visible" id="3e0f98aao"><path d="M5.95-6.77H1.1V0h.99v-2.92H5.3v-.77H2.08v-2.26h3.87zm0 0"/></symbol><symbol overflow="visible" id="3e0f98aap"><path d="M2.83.14c.94 0 1.5-.39 1.81-.95h.08l.1.81h.76v-3.38c0-1.23-.69-1.8-2.13-1.8-1.43 0-2.03.65-2.18 1.6l.93.1c.11-.6.44-.93 1.22-.93.85 0 1.22.32 1.22 1.04v.34l-1.81.2C1.6-2.7 1.1-2.17 1.1-1.28c0 .92.64 1.42 1.72 1.42zm.25-.77c-.67 0-1.02-.28-1.02-.74 0-.44.28-.72 1-.82l1.58-.19v.41c0 .8-.6 1.34-1.56 1.34zm0 0"/></symbol><symbol overflow="visible" id="3e0f98aaq"><path d="M2.73.14c.9 0 1.43-.45 1.74-1.08h.06l.13.94h.8v-5.02h-.94v2.7c0 .98-.57 1.62-1.46 1.62-.75 0-1.1-.4-1.1-1.22v-3.1h-.93v3.32c0 1.17.55 1.84 1.7 1.84zm0 0"/></symbol><symbol overflow="visible" id="3e0f98aar"><path d="M5.08-5.16c-.94 0-1.58.43-1.9 1.3h-.09l-.07-1.16H1.05v.77h1.1v3.48H.96V0h3.96v-.77H3.1v-1.46c0-1.36.6-2.05 1.83-2.05.4 0 .76.08 1.1.17l.15-.87c-.33-.11-.7-.18-1.11-.18zm0 0"/></symbol><symbol overflow="visible" id="3e0f98aas"><path d="M5.92-6.77H1.1V0h4.83v-.8H2.06v-2.26h3.22v-.75H2.06v-2.16h3.86zm0 0"/></symbol><symbol overflow="visible" id="3e0f98aat"><path d="M2.16 0v-2.67c0-.99.59-1.63 1.46-1.63.74 0 1.07.38 1.07 1.22V0h.95v-3.31c0-1.2-.56-1.85-1.67-1.85-.92 0-1.49.46-1.77 1.08h-.06l-.12-.94H1.2V0zm0 0"/></symbol><symbol overflow="visible" id="3e0f98aau"><path d="M3.58-5.81c.42 0 .72-.22.72-.67 0-.44-.3-.68-.72-.68-.44 0-.72.24-.72.68 0 .45.28.67.72.67zm.5.8H1.52v.76h1.6v3.48h-1.8V0h4.46v-.77h-1.7zm0 0"/></symbol><symbol overflow="visible" id="3e0f98aav"><path d="M3.42-.86h-.08L1.77-5.02H.8L2.73 0h.41c-.33.95-.72 1.27-1.45 1.27-.22 0-.49-.04-.69-.08l-.1.73c.2.06.58.11.87.11 1.2 0 1.7-.7 2.21-2.03l1.94-5.02H5zm0 0"/></symbol><symbol overflow="visible" id="3e0f98aaw"><path d="M3.36.16c1.4 0 2.2-.6 2.2-1.57 0-.89-.54-1.22-1.47-1.39L3-3c-.67-.14-.86-.33-.86-.73 0-.5.4-.74 1.17-.74.83 0 1.19.27 1.27.8l.9-.05c-.12-1-.8-1.47-2.17-1.47-1.34 0-2.1.53-2.1 1.5 0 .81.45 1.22 1.52 1.44l1.04.2c.56.11.87.24.87.72 0 .52-.45.78-1.28.78-.95 0-1.36-.28-1.42-.87l-.9.06C1.07-.36 1.8.16 3.35.16zm0 0"/></symbol><symbol overflow="visible" id="3e0f98aax"><path d="M1.63 0v-2.9c0-.8.15-1.4.71-1.4.41 0 .55.3.55.88V0h.95v-2.9c0-.8.18-1.4.72-1.4.4 0 .57.3.57.88V0h.95v-3.63c0-.92-.28-1.53-1.11-1.53-.63 0-.95.41-1.1.9h-.06c-.1-.52-.44-.9-1.08-.9-.6 0-.93.41-1.06.9H1.6l-.23-.76H.67V0zm0 0"/></symbol><symbol overflow="visible" id="3e0f98aay"><path d="M3.9.14c1.48 0 2.18-.98 2.18-2.64 0-1.67-.7-2.66-2.17-2.66-.91 0-1.49.41-1.79 1h-.06v-2.98h-.95V0h.81l.11-.9h.06c.29.63.82 1.04 1.82 1.04zm-.32-.8c-1.08 0-1.55-.8-1.55-1.84 0-1.06.47-1.86 1.55-1.86 1.1 0 1.51.61 1.51 1.86S4.64-.66 3.58-.66zm0 0"/></symbol><symbol overflow="visible" id="3e0f98aaz"><path d="M3.33.14c1.62 0 2.5-.95 2.5-2.66 0-1.68-.88-2.64-2.5-2.64-1.63 0-2.5.96-2.5 2.64 0 1.7.87 2.66 2.5 2.66zm0-.77c-1.06 0-1.52-.6-1.52-1.89 0-1.28.46-1.87 1.52-1.87 1.08 0 1.53.6 1.53 1.87 0 1.29-.45 1.9-1.53 1.9zm0 0"/></symbol><symbol overflow="visible" id="3e0f98aaA"><path d="M3.92-7.14H1.36v.76h1.6v5.61H1.15V0H5.7v-.77H3.92zm0 0"/></symbol><symbol overflow="visible" id="3e0f98aaB"><path d="M1.45-2.95c0 2.56 1.08 4.37 3.67 4.84l.11-.67C3.28.86 2.43-.75 2.43-2.95s.85-3.82 2.8-4.16l-.1-.69c-2.6.49-3.68 2.3-3.68 4.85zm0 0"/></symbol><symbol overflow="visible" id="3e0f98aaC"><path d="M2.84.14C3.8.14 4.33-.26 4.6-.9h.07L4.8 0h.76v-7.14h-.95v2.95h-.08c-.28-.6-.86-.97-1.67-.97-1.48 0-2.27.99-2.27 2.64C.6-.84 1.36.14 2.84.14zm.22-.8c-.98 0-1.48-.59-1.48-1.84s.5-1.86 1.48-1.86c1.13 0 1.58.8 1.58 1.86S4.2-.66 3.06-.66zm0 0"/></symbol><symbol overflow="visible" id="3e0f98aaD"><path d="M3.16 2.03c1.67 0 2.4-.86 2.4-2.51v-4.54h-.81l-.13.91h-.06c-.26-.58-.8-1.05-1.73-1.05-1.42 0-2.24 1-2.24 2.52 0 1.6.75 2.56 2.2 2.56.94 0 1.5-.5 1.77-1.03h.05v.72c0 1.17-.42 1.67-1.45 1.67-.93 0-1.3-.34-1.41-.89L.8.5c.12.96.87 1.54 2.36 1.54zM3.06-.8c-.98 0-1.48-.57-1.48-1.82 0-1.13.5-1.75 1.48-1.75 1.06 0 1.58.76 1.58 1.75 0 .95-.56 1.82-1.58 1.82zm0 0"/></symbol><symbol overflow="visible" id="3e0f98aaE"><path d="M1.45-7.1c1.96.33 2.8 1.94 2.8 4.15 0 2.2-.84 3.8-2.8 4.17l.11.67c2.58-.47 3.67-2.28 3.67-4.84 0-2.55-1.09-4.36-3.67-4.85zm0 0"/></symbol><symbol overflow="visible" id="3e0f98aah"><path d="M1.77-8.14l.07.12a14.61 14.61 0 01-.72 2.1l-.75.01a23.21 23.21 0 00.5-2.23zm0 0"/></symbol><symbol overflow="visible" id="3e0f98aai"><path d="M3.98 0v-1.4c0-.46-.09-.8-.28-1.02-.18-.23-.46-.35-.83-.35-.29 0-.54.08-.76.22-.22.14-.39.37-.5.7l-1-.17v-.75c0-1.08.13-1.98.39-2.71.27-.73.63-1.28 1.06-1.64.44-.38.92-.57 1.46-.57.34 0 .64.06.9.16s.5.26.74.48l-.61.67a2.26 2.26 0 00-.49-.34 1.23 1.23 0 00-.54-.12c-.32 0-.62.14-.91.43-.28.29-.51.72-.69 1.3a7.57 7.57 0 00-.26 2.19l.03.01a1.8 1.8 0 011.47-.69c.58 0 1.03.18 1.36.52.33.34.5.84.5 1.5V0zm0 0"/></symbol><symbol overflow="visible" id="3e0f98aaj"><path d="M2.6.1c-.56 0-1-.15-1.32-.46C.97-.66.81-1.1.81-1.72v-3.22h1.03v3c0 .4.1.7.28.9.2.2.44.29.72.29.4 0 .71-.14.94-.44.23-.29.35-.72.35-1.31v-2.44h1.04v3c0 .4.1.7.28.9.2.2.43.29.72.29.38 0 .68-.14.9-.44.25-.29.37-.72.37-1.31v-2.44h1.04V0h-.8l-.13-.77h-.07c-.12.23-.32.44-.57.61a1.8 1.8 0 01-1 .25c-.37 0-.7-.07-.97-.21a1.36 1.36 0 01-.61-.68h-.05a1.7 1.7 0 01-.66.64C3.33.01 2.98.1 2.6.1zm0 0"/></symbol><symbol overflow="visible" id="3e0f98aak"><path d="M5.23 1.56h1.13v.81H4.19V-.02c0-.25.02-.52.06-.8h-.06a1.68 1.68 0 01-1.56.9C2.06.1 1.61-.05 1.3-.36.97-.7.8-1.17.8-1.77v-3.17h1.03v2.96c0 .43.1.74.28.95.2.2.44.3.75.3.41 0 .73-.15.96-.46.24-.31.36-.77.36-1.39v-5.01h1.04zm0 0"/></symbol><symbol overflow="visible" id="3e0f98aal"><path d="M5.23-3.13V0h-.82l-.13-.81h-.06a1.76 1.76 0 01-1.6.9c-.56 0-1-.15-1.32-.46C.97-.7.8-1.17.8-1.77v-5.82h1.03v2.65h3.57v.8H1.84v2.16c0 .43.1.74.28.95.2.2.44.3.75.3.41 0 .73-.15.96-.46.24-.31.36-.77.36-1.39v-.54zm0 0"/></symbol><symbol overflow="visible" id="3e0f98aam"><path d="M.86 2.38v-7.32h.83l.12.82h.06c.13-.26.32-.48.58-.66.27-.18.61-.27 1.02-.27.56 0 1 .17 1.31.49.32.31.49.77.49 1.39V0H4.23v-2.97c0-.41-.09-.72-.28-.92a.94.94 0 00-.75-.31c-.4 0-.71.15-.95.47-.23.3-.34.75-.34 1.35v4.75zm0 0"/></symbol><symbol overflow="visible" id="3e0f98aan"><path d="M5.16-2.44c0 .78-.19 1.4-.55 1.86-.37.46-.93.69-1.7.69-.79 0-1.37-.22-1.75-.67a2.85 2.85 0 01-.57-1.86c0-.82.21-1.46.64-1.92.44-.47 1.07-.7 1.88-.7.34 0 .68.02 1.02.07v-2.62h1.03v2.82c.37.12.75.27 1.15.44l-.23.8c-.3-.13-.61-.25-.92-.35zM3.1-4.2c-.5 0-.87.15-1.11.45-.23.3-.34.74-.34 1.31 0 .53.1.95.3 1.25.19.3.5.46.95.46.43 0 .75-.16.93-.47.2-.32.29-.74.29-1.27v-1.65c-.36-.06-.7-.08-1.02-.08zm0 0"/></symbol></defs><g fill="#fff"><use xlink:href="#3e0f98aaa" x="275.28" y="148"/><use xlink:href="#3e0f98aab" x="258.29" y="253"/><use xlink:href="#3e0f98aac" x="264.957" y="253"/><use xlink:href="#3e0f98aad" x="271.624" y="253"/><use xlink:href="#3e0f98aae" x="278.291" y="253"/><use xlink:href="#3e0f98aaf" x="284.958" y="253"/><use xlink:href="#3e0f98aag" x="291.625" y="253"/><g><use xlink:href="#3e0f98aah" x="298.29" y="253"/><use xlink:href="#3e0f98aai" x="300.6" y="253"/><use xlink:href="#3e0f98aaj" x="306.34" y="253"/><use xlink:href="#3e0f98aak" x="315.7" y="253"/></g><g><use xlink:href="#3e0f98aal" x="321.79" y="253"/><use xlink:href="#3e0f98aam" x="327.89" y="253"/><use xlink:href="#3e0f98aan" x="333.99" y="253"/></g><g><use xlink:href="#3e0f98aah" x="339.4" y="253"/></g><g><use xlink:href="#3e0f98aao" x="196.6667" y="266"/><use xlink:href="#3e0f98aac" x="203.3337" y="266"/><use xlink:href="#3e0f98aap" x="210.0007" y="266"/><use xlink:href="#3e0f98aae" x="216.6677" y="266"/><use xlink:href="#3e0f98aaq" x="223.3347" y="266"/><use xlink:href="#3e0f98aar" x="230.0017" y="266"/><use xlink:href="#3e0f98aac" x="236.6687" y="266"/><use xlink:href="#3e0f98aaf" x="243.3357" y="266"/><use xlink:href="#3e0f98aag" x="250.0027" y="266"/><use xlink:href="#3e0f98aas" x="256.6697" y="266"/><use xlink:href="#3e0f98aae" x="263.3367" y="266"/><use xlink:href="#3e0f98aac" x="270.0037" y="266"/><use xlink:href="#3e0f98aar" x="276.6707" y="266"/><use xlink:href="#3e0f98aat" x="283.3377" y="266"/><use xlink:href="#3e0f98aau" x="290.0047" y="266"/><use xlink:href="#3e0f98aae" x="296.6717" y="266"/><use xlink:href="#3e0f98aav" x="303.3387" y="266"/><use xlink:href="#3e0f98aag" x="310.0057" y="266"/><use xlink:href="#3e0f98aaw" x="316.6727" y="266"/><use xlink:href="#3e0f98aav" x="323.3397" y="266"/><use xlink:href="#3e0f98aax" x="330.0067" y="266"/><use xlink:href="#3e0f98aay" x="336.6737" y="266"/><use xlink:href="#3e0f98aaz" x="343.3407" y="266"/><use xlink:href="#3e0f98aaA" x="350.0077" y="266"/><use xlink:href="#3e0f98aag" x="356.6747" y="266"/><use xlink:href="#3e0f98aaB" x="363.3417" y="266"/><use xlink:href="#3e0f98aaC" x="370.0087" y="266"/><use xlink:href="#3e0f98aaA" x="376.6757" y="266"/><use xlink:href="#3e0f98aau" x="383.3427" y="266"/><use xlink:href="#3e0f98aaD" x="390.0097" y="266"/><use xlink:href="#3e0f98aaE" x="396.6767" y="266"/></g></g></svg>