<?xml version='1.0' encoding='UTF-8'?>
<svg xmlns="http://www.w3.org/2000/svg" xmlns:xlink="http://www.w3.org/1999/xlink" width="600px" height="300px" viewBox="0 0 600 300" x="0px" y="0px" enable-background="new 0 0 600 300"><defs><symbol overflow="visible" id="d37a9bdda"><path d="M6.05-25.19c2.86-2.75 6.15-4.73 9.8-4.73 4.84 0 8.13 3.4 8.13 8.36 0 5.28-3.75 10.78-10.01 14.08a23.72 23.72 0 00-5.4-.77c-3.62 0-5.82 2.64-5.82 4.73 0 2.54 2.2 4.07 4.4 4.07 1.54 0 4.4-.88 8.7-3.85 3.84 1.75 8.9 4.74 12.85 4.74 3.86 0 6.28-2.2 6.28-5.5 0-1.66-1.1-3.75-2.3-4.52l-.12.11c-.44 1.88-2.1 3.63-5.5 3.63-2.64 0-5.28-.44-7.7-1.1 7.05-5.72 11-11.65 11-17.15 0-7.38-5.4-12.55-12.88-12.55-7.8 0-13.07 5.06-13.07 8.47 0 .87.87 1.65 1.64 1.98zm0 0"/></symbol><symbol overflow="visible" id="d37a9bddb"><path d="M6.6-35.42c.56 2.97 1.1 8.36 1.1 11.22 0 3.51-.54 8.8-1.22 11a3.38 3.38 0 002.2 2.86c2.87-1.32 5.95-2.43 8.8-2.43 5.61 0 10.46 3.54 10.46 9.91 0 5.94-3.96 10.13-12.2 10.13-4.96 0-8.58-1.44-10.9-3.08-.54.33-.89.87-.89 1.97 0 2.96 4.63 6.6 13.1 6.6 11.65 0 18.04-7.48 18.04-15.73 0-9.12-7.37-14.51-14.53-14.51-3.51 0-6.81 1.3-9.01 2.42l-.11-.13c1-2.62 1.44-9.78 1-13.4 2.62.54 7.8.87 10.33.87 7.8 0 10.89-2.53 10.89-5.6 0-.88-.44-1.88-.99-2.32h-.33c-1.43.87-5.5 1.66-9.9 1.66-4.28 0-12.1-.79-15.63-1.66zm0 0"/></symbol><symbol overflow="visible" id="d37a9bddg"><path d="M27.72-48.84a3.91 3.91 0 00-2.64-1.2c-1.1 0-1.99.32-2.53 1.09C18.27-43.12 8.15-23.98.44-4.52-1.66.66-2.31 3.73-2.31 5.61-2.31 8.03-.44 8.8.22 8.8c.22 0 .44 0 .66-.11C7.8-10.23 18.16-32.56 27.71-48.84zm0 0"/></symbol><symbol overflow="visible" id="d37a9bddd"><path d="M55.98-48.84a3.88 3.88 0 00-2.64-1.2c-1.09 0-1.97.32-2.53 1.09-4.28 5.83-14.4 24.97-22.1 44.43-2.09 5.18-2.76 8.25-2.76 10.13 0 2.42 1.88 3.19 2.53 3.19.22 0 .46 0 .68-.11 6.92-18.92 17.26-41.25 26.82-57.53zm-3.07 19.57c0 8.58-2.2 16.29-6.16 20.04 0 .98.22 1.96.55 2.3 1.87 2.2 5.93 3.41 10.23 3.41 2.1 0 4.52-.21 5.94-.43 0 0-.22 1.97-.22 3.84 0 2.86 1.55 3.63 3.73 3.63 1.77 0 2.75-.88 2.75-2.86 0-3.85-1.09-7.6-1.2-11.66 1.42-2.97 2.31-5.72 2.31-7.16 0-1.96-1.54-3.18-3.64-3.18-1.97 0-2.51 3.53-3.3 12.32a34.7 34.7 0 01-6.8.66c-2.32 0-3.98-.22-4.96-.55V-9c4.63-4.96 7.48-11.9 7.48-17.94 0-2.32-1.98-3.4-3.96-3.4a3.9 3.9 0 00-2.75 1.08zM6.8-36.63a10.32 10.32 0 016.94-2.85c3.19 0 5.6 1.75 5.6 4.71 0 1.55-.43 2.97-1.41 4.41-1.11-.33-2.42-.77-4.3-.77-2.64 0-4.3 1.32-4.3 3.08a3.5 3.5 0 003.43 3.3c1.3 0 3.51-.88 5.28-1.77 2.3 1 3.4 2.86 3.4 5.29 0 3.07-2.75 5.71-7.6 5.71a15.3 15.3 0 01-8.68-2.86c-.87.44-1.33 1.11-1.33 1.77 0 2.31 4.08 6.05 10.79 6.05 7.7 0 12.87-4.96 12.87-10.78 0-3.52-1.98-6.27-5.83-7.7v-.12c2.86-2.4 3.74-4.5 3.74-6.8 0-4.63-4.07-8.48-10.11-8.48-6.18 0-10.13 3.19-10.13 6.05 0 .98.77 1.66 1.64 1.77zm0 0"/></symbol><symbol overflow="visible" id="d37a9bdde"><path d="M.88-33c0 1.77 1.32 3.84 3.64 3.84 3.3 0 7.25-3.18 9.56-6.37l.1.1v21.57c0 2.31 1 3.3 2.98 3.3 2.3 0 3.64-.99 3.64-2.2 0-4.72-1.22-13.43-1.22-20.02 0-3.08.33-4.84.55-5.94.89-.98 1.32-2.2 1.32-3.19 0-1.76-2.1-3.07-3.64-3.07-3.08 3.95-9.45 8.57-16.93 11.65zm0 0"/></symbol><symbol overflow="visible" id="d37a9bddf"><path d="M25.73-19.69c-.76 2.1-2.42 3.52-5.39 3.52-1.64 0-2.86-.22-4.71-.77 7.03-5.72 9.67-11.65 9.67-16.39 0-6.48-4.18-11.1-10.9-11.1-5.82 0-10.67 4.16-10.67 7.91 0 .99 1.22 1.86 2.32 2.2 2.2-2.98 5.06-4.62 7.7-4.62 3.52 0 5.5 2.2 5.5 6.7 0 4.52-3.19 10.02-7.92 14.43-.88-.35-2.31-.67-3.3-.67-3.51 0-5.6 1.54-5.6 4.18 0 2.2 2.09 3.74 4.05 3.74 1.77 0 3.54-1.2 5.72-2.97 4.3 1.87 7.6 2.97 10.13 2.97 4.3 0 6.15-2.42 6.15-4.96a4.56 4.56 0 00-2.75-4.17zm0 0"/></symbol><symbol overflow="visible" id="d37a9bddh"><path d="M25.08-30.36c-.88.55-2.53 1.1-4.95 1.1-3.63 0-7.58-1.1-11.55-1.1-3.96 0-6.38 2.2-6.38 4.52 0 1.3.55 2.75 1.99 4.06h.22a11.07 11.07 0 016.92-2.1c3.19 0 5.72.57 8.14.57l.1.22c-7.13 8.46-9.23 15.39-9.23 24.64 0 1.3 1.2 1.97 3.41 1.97 2.2 0 3.19-.66 3.19-1.75 0-11.9 2.1-18.49 6.93-24.75 2.2-2.75 2.54-3.75 2.54-4.96 0-1-.57-1.98-1.22-2.42zm0 0"/></symbol><symbol overflow="visible" id="d37a9bddi"><path d="M5.94-2.42c-.99.33-1.2 1.33-1.2 1.98 0 1.75 3.07 3.96 8.03 3.96 9.12 0 14.84-6.49 14.84-17.6 0-10.45-4.84-16.28-12.42-16.28-6.61 0-12.22 5.17-12.22 11.98 0 5.83 4.62 10.35 10.56 10.35 2.86 0 5.72-1.2 7.49-2.75l.1.1c-.32 6.05-3.85 9.37-9.57 9.37-2.64 0-4.61-.56-5.61-1.11zm15.08-12.1c-.9 1.1-3.32 2.32-5.72 2.32-3.75 0-6.28-2.32-6.28-6.83 0-4.06 2.75-6.81 5.93-6.81 3.75 0 6.07 3.4 6.07 11.32zm0 0"/></symbol><symbol overflow="visible" id="d37a9bddj"><path d="M4.95-44.1c.33 2.08.88 5.7.88 7.8 0 2.42-.55 6.05-.88 7.6 0 1.2 1.1 2.3 2.32 2.75 2.07-1.11 4.71-1.99 6.8-1.99 3.3 0 6.16 1.88 6.16 5.94 0 3.4-2.53 6.48-7.36 6.48-3.96 0-7.15-1.53-9.14-2.86-.87.44-1.3 1.11-1.3 1.77 0 2.31 4.5 6.05 11.1 6.05 7.38 0 12.77-4.63 12.77-11.77 0-6.05-4.74-10.01-10.13-10.01-2.42 0-4.84.78-6.48 1.54l-.13-.1c.46-1.88.78-5.29.67-7.38 1.54.33 5.18.55 7.14.55 5.07 0 7.38-1.65 7.38-4.18 0-1.22-.44-2.09-1.1-2.53-1.54.55-4.18 1.1-7.48 1.1-2.97 0-7.92-.55-10.67-1.1zm0 0"/></symbol><symbol overflow="visible" id="d37a9bddk"><path d="M3.83 0v-5.95H6.2v-.82H.45v.82h2.4V0zm0 0"/></symbol><symbol overflow="visible" id="d37a9bddl"><path d="M5.75-2.23v-.43c0-1.6-.9-2.51-2.42-2.51S.87-4.16.87-2.48c0 1.71.91 2.62 2.5 2.62 1.43 0 2.07-.56 2.29-1.52l-.9-.09c-.18.61-.59.9-1.35.9-.94 0-1.52-.54-1.58-1.66zm-2.4-2.2c.93 0 1.43.5 1.48 1.55H1.84c.08-1.07.6-1.56 1.5-1.56zm0 0"/></symbol><symbol overflow="visible" id="d37a9bddm"><path d="M1.83 0l1.42-2h.06l1.46 2H5.8L4-2.53l1.78-2.49H4.8L3.42-3.08h-.08l-1.4-1.94H.89l1.78 2.49L.84 0zm0 0"/></symbol><symbol overflow="visible" id="d37a9bddn"><path d="M5.52-4.25v-.77H3.17v-1.56h-.81l-.14 1.56H.75v.77h1.47v2.4c0 1.3.48 1.94 1.84 1.94C4.6.1 5.14 0 5.55-.14L5.4-.91c-.32.13-.72.2-1.13.2-.8 0-1.1-.37-1.1-1.23v-2.31zm0 0"/></symbol><symbol overflow="visible" id="d37a9bddo"><path d="M3.33-3.42c.47 0 .8-.27.8-.8 0-.51-.33-.8-.8-.8-.47 0-.8.29-.8.8 0 .53.33.8.8.8zm0 3.5c.47 0 .8-.27.8-.78 0-.53-.33-.82-.8-.82-.47 0-.8.29-.8.82 0 .51.33.78.8.78zm0 0"/></symbol><symbol overflow="visible" id="d37a9bddq"><path d="M5.67 0v-.86H2.14V-.9L3.6-2c1.05-.83 2-1.68 2-2.91 0-1.19-.73-1.99-2.26-1.99-1.66 0-2.3 1.02-2.44 2.33l1 .08c.1-.92.42-1.58 1.44-1.58.87 0 1.26.44 1.26 1.24 0 .9-.8 1.53-1.96 2.53L.83-.81V0zm0 0"/></symbol><symbol overflow="visible" id="d37a9bddr"><path d="M3.42.14c1.55 0 2.44-.84 2.44-2.33 0-1.45-.83-2.22-2.14-2.22-.75 0-1.28.27-1.67.72H2l.31-2.22h3.11v-.86H1.53l-.45 3.93h.81c.3-.36.9-.79 1.58-.79.92 0 1.44.43 1.44 1.47 0 .99-.54 1.5-1.49 1.5-.83 0-1.28-.32-1.5-1.01l-.95.1C1.07-.46 2 .13 3.42.13zm0 0"/></symbol><symbol overflow="visible" id="d37a9bdds"><path d="M3.25.14c1.58 0 2.53-.69 2.53-1.95 0-1.19-.92-1.56-1.6-1.61v-.05A1.6 1.6 0 005.6-5.12c0-1.13-.87-1.79-2.3-1.79-1.62 0-2.32.82-2.45 1.88l.97.06c.13-.69.52-1.1 1.47-1.1.86 0 1.35.32 1.35 1.05 0 .86-.6 1.2-1.66 1.2h-.49v.79h.54c1.12 0 1.78.25 1.78 1.14 0 .78-.46 1.22-1.55 1.22-1.06 0-1.48-.4-1.63-1.1l-.98.07C.75-.56 1.56.14 3.25.14zm0 0"/></symbol><symbol overflow="visible" id="d37a9bddt"><path d="M2.58.95l2.39-8.67h-.9L1.7.95zm0 0"/></symbol><symbol overflow="visible" id="d37a9bddu"><path d="M5.1 0v-1.47H6v-.81h-.9v-4.49H3.8L.48-2.23v.76h3.66V0zM1.5-2.33l2.6-3.53h.04v3.58H1.5zm0 0"/></symbol><symbol overflow="visible" id="d37a9bddv"><path d="M4.22-6.77h-.86l-2.03.7v.87c.64-.17 1.26-.38 1.89-.55v4.9H1.03V0h4.9v-.86H4.21zm0 0"/></symbol><symbol overflow="visible" id="d37a9bddw"><path d="M.92-4.42h.88v-1.49h3.1v.05L2.27 0H3.3l2.64-6v-.77H.92zm0 0"/></symbol><symbol overflow="visible" id="d37a9bddx"><path d="M3.25-6.9C1.67-6.9.77-6.04.77-4.6c0 1.41.85 2.18 2.21 2.18 1.04 0 1.58-.52 1.88-1.03h.06c0 1.54-.39 2.78-1.73 2.78-.9 0-1.24-.44-1.36-.97l-.97.1c.22.96.86 1.68 2.33 1.68C4.83.14 5.8-.9 5.8-3.64c0-2.22-.92-3.27-2.56-3.27zm-.02.8c.91 0 1.46.52 1.46 1.44 0 .91-.69 1.47-1.53 1.47-.91 0-1.46-.51-1.46-1.47S2.3-6.1 3.23-6.1zm0 0"/></symbol><symbol overflow="visible" id="d37a9bddy"><path d="M5.95-6.77H1.1V0h.99v-2.92H5.3v-.77H2.08v-2.26h3.87zm0 0"/></symbol><symbol overflow="visible" id="d37a9bddz"><path d="M2.83.14c.94 0 1.5-.39 1.81-.95h.08l.1.81h.76v-3.38c0-1.23-.69-1.8-2.13-1.8-1.43 0-2.03.65-2.18 1.6l.93.1c.11-.6.44-.93 1.22-.93.85 0 1.22.32 1.22 1.04v.34l-1.81.2C1.6-2.7 1.1-2.17 1.1-1.28c0 .92.64 1.42 1.72 1.42zm.25-.77c-.67 0-1.02-.28-1.02-.74 0-.44.28-.72 1-.82l1.58-.19v.41c0 .8-.6 1.34-1.56 1.34zm0 0"/></symbol><symbol overflow="visible" id="d37a9bddA"><path d="M2.73.14c.9 0 1.43-.45 1.74-1.08h.06l.13.94h.8v-5.02h-.94v2.7c0 .98-.57 1.62-1.46 1.62-.75 0-1.1-.4-1.1-1.22v-3.1h-.93v3.32c0 1.17.55 1.84 1.7 1.84zm0 0"/></symbol><symbol overflow="visible" id="d37a9bddB"><path d="M5.08-5.16c-.94 0-1.58.43-1.9 1.3h-.09l-.07-1.16H1.05v.77h1.1v3.48H.96V0h3.96v-.77H3.1v-1.46c0-1.36.6-2.05 1.83-2.05.4 0 .76.08 1.1.17l.15-.87c-.33-.11-.7-.18-1.11-.18zm0 0"/></symbol><symbol overflow="visible" id="d37a9bddC"><path d="M3.34.14c1.43 0 2.13-.66 2.25-1.78l-.89-.1c-.1.7-.5 1.08-1.34 1.08-1.03 0-1.52-.64-1.52-1.84 0-1.23.47-1.86 1.52-1.86.84 0 1.23.36 1.34 1.08l.9-.1c-.13-1.09-.82-1.78-2.26-1.78-1.56 0-2.46.97-2.46 2.66 0 1.66.9 2.64 2.46 2.64zm0 0"/></symbol><symbol overflow="visible" id="d37a9bddD"><path d="M3.58-5.81c.42 0 .72-.22.72-.67 0-.44-.3-.68-.72-.68-.44 0-.72.24-.72.68 0 .45.28.67.72.67zm.5.8H1.52v.76h1.6v3.48h-1.8V0h4.46v-.77h-1.7zm0 0"/></symbol><symbol overflow="visible" id="d37a9bddE"><path d="M3.33.14c1.62 0 2.5-.95 2.5-2.66 0-1.68-.88-2.64-2.5-2.64-1.63 0-2.5.96-2.5 2.64 0 1.7.87 2.66 2.5 2.66zm0-.77c-1.06 0-1.52-.6-1.52-1.89 0-1.28.46-1.87 1.52-1.87 1.08 0 1.53.6 1.53 1.87 0 1.29-.45 1.9-1.53 1.9zm0 0"/></symbol><symbol overflow="visible" id="d37a9bddF"><path d="M2.16 0v-2.67c0-.99.59-1.63 1.46-1.63.74 0 1.07.38 1.07 1.22V0h.95v-3.31c0-1.2-.56-1.85-1.67-1.85-.92 0-1.49.46-1.77 1.08h-.06l-.12-.94H1.2V0zm0 0"/></symbol><symbol overflow="visible" id="d37a9bddG"><path d="M3.36.16c1.4 0 2.2-.6 2.2-1.57 0-.89-.54-1.22-1.47-1.39L3-3c-.67-.14-.86-.33-.86-.73 0-.5.4-.74 1.17-.74.83 0 1.19.27 1.27.8l.9-.05c-.12-1-.8-1.47-2.17-1.47-1.34 0-2.1.53-2.1 1.5 0 .81.45 1.22 1.52 1.44l1.04.2c.56.11.87.24.87.72 0 .52-.45.78-1.28.78-.95 0-1.36-.28-1.42-.87l-.9.06C1.07-.36 1.8.16 3.35.16zm0 0"/></symbol><symbol overflow="visible" id="d37a9bddH"><path d="M1.45-2.95c0 2.56 1.08 4.37 3.67 4.84l.11-.67C3.28.86 2.43-.75 2.43-2.95s.85-3.82 2.8-4.16l-.1-.69c-2.6.49-3.68 2.3-3.68 4.85zm0 0"/></symbol><symbol overflow="visible" id="d37a9bddI"><path d="M4.63-6.5c.45 0 .98.08 1.39.2l.2-.72a5.3 5.3 0 00-1.64-.26c-1.52 0-2.16.56-2.16 1.87v.4H.9v.76h1.53V0h.94v-4.25h2.53v-.77H3.36v-.3c0-.84.33-1.18 1.27-1.18zm0 0"/></symbol><symbol overflow="visible" id="d37a9bddJ"><path d="M1.45-7.1c1.96.33 2.8 1.94 2.8 4.15 0 2.2-.84 3.8-2.8 4.17l.11.67c2.58-.47 3.67-2.28 3.67-4.84 0-2.55-1.09-4.36-3.67-4.85zm0 0"/></symbol></defs><g fill="#515151"><use xlink:href="#d37a9bdda" x="96.005" y="141"/><use xlink:href="#d37a9bddb" x="133.185" y="141"/><use xlink:href="#d37a9bddc" x="171.025" y="141"/></g><use xlink:href="#d37a9bddd" x="184.225" y="141" fill="#fff"/><use xlink:href="#d37a9bdde" x="272.115" y="141" fill="#fff"/><use xlink:href="#d37a9bddf" x="297.195" y="141" fill="#fff"/><use xlink:href="#d37a9bddg" x="329.205" y="141" fill="#fff"/><use xlink:href="#d37a9bddh" x="349.115" y="141" fill="#fff"/><use xlink:href="#d37a9bddi" x="378.485" y="141" fill="#fff"/><use xlink:href="#d37a9bddj" x="422.925" y="141" fill="#fff"/><use xlink:href="#d37a9bddg" x="452.845" y="141" fill="#fff"/><use xlink:href="#d37a9bddi" x="472.755" y="141" fill="#fff"/><g fill="#fff"><use xlink:href="#d37a9bddk" x="226.6667" y="252"/><use xlink:href="#d37a9bddl" x="233.3337" y="252"/><use xlink:href="#d37a9bddm" x="240.0007" y="252"/><use xlink:href="#d37a9bddn" x="246.6677" y="252"/><use xlink:href="#d37a9bddo" x="253.3347" y="252"/><use xlink:href="#d37a9bddp" x="260.0017" y="252"/><use xlink:href="#d37a9bddq" x="266.6687" y="252"/><use xlink:href="#d37a9bddr" x="273.3357" y="252"/><use xlink:href="#d37a9bddp" x="280.0027" y="252"/><use xlink:href="#d37a9bdds" x="286.6697" y="252"/><use xlink:href="#d37a9bddt" x="293.3367" y="252"/><use xlink:href="#d37a9bddu" x="300.0037" y="252"/><use xlink:href="#d37a9bddp" x="306.6707" y="252"/><use xlink:href="#d37a9bddv" x="313.3377" y="252"/><use xlink:href="#d37a9bddq" x="320.0047" y="252"/><use xlink:href="#d37a9bddt" x="326.6717" y="252"/><use xlink:href="#d37a9bddw" x="333.3387" y="252"/><use xlink:href="#d37a9bddx" x="340.0057" y="252"/><use xlink:href="#d37a9bddp" x="346.6727" y="252"/><use xlink:href="#d37a9bddr" x="353.3397" y="252"/><use xlink:href="#d37a9bddt" x="360.0067" y="252"/><use xlink:href="#d37a9bddx" x="366.6737" y="252"/></g><g fill="#fff"><use xlink:href="#d37a9bddy" x="216.6667" y="266"/><use xlink:href="#d37a9bddl" x="223.3337" y="266"/><use xlink:href="#d37a9bddz" x="230.0007" y="266"/><use xlink:href="#d37a9bddn" x="236.6677" y="266"/><use xlink:href="#d37a9bddA" x="243.3347" y="266"/><use xlink:href="#d37a9bddB" x="250.0017" y="266"/><use xlink:href="#d37a9bddl" x="256.6687" y="266"/><use xlink:href="#d37a9bddo" x="263.3357" y="266"/><use xlink:href="#d37a9bddp" x="270.0027" y="266"/><use xlink:href="#d37a9bddy" x="276.6697" y="266"/><use xlink:href="#d37a9bddB" x="283.3367" y="266"/><use xlink:href="#d37a9bddz" x="290.0037" y="266"/><use xlink:href="#d37a9bddC" x="296.6707" y="266"/><use xlink:href="#d37a9bddn" x="303.3377" y="266"/><use xlink:href="#d37a9bddD" x="310.0047" y="266"/><use xlink:href="#d37a9bddE" x="316.6717" y="266"/><use xlink:href="#d37a9bddF" x="323.3387" y="266"/><use xlink:href="#d37a9bddG" x="330.0057" y="266"/><use xlink:href="#d37a9bddp" x="336.6727" y="266"/><use xlink:href="#d37a9bddH" x="343.3397" y="266"/><use xlink:href="#d37a9bddI" x="350.0067" y="266"/><use xlink:href="#d37a9bddB" x="356.6737" y="266"/><use xlink:href="#d37a9bddz" x="363.3407" y="266"/><use xlink:href="#d37a9bddC" x="370.0077" y="266"/><use xlink:href="#d37a9bddJ" x="376.6747" y="266"/></g></svg>