<?xml version='1.0' encoding='UTF-8'?>
<svg xmlns="http://www.w3.org/2000/svg" xmlns:xlink="http://www.w3.org/1999/xlink" width="600px" height="300px" viewBox="0 0 600 300" x="0px" y="0px" enable-background="new 0 0 600 300"><defs><symbol overflow="visible" id="d0c4513fa"><path d="M23.44-28.94c.76-.98 1.31-3.18 1.2-5.15l-.33-.22c-2.1.33-5.6.76-9.58.76.11-10.23 2.75-14.3 7.49-14.3 2.75 0 5.39 1.32 7.05 2.98 1.09-.57 1.64-1 1.64-2.32 0-2.64-3.85-6.04-8.58-6.04-8.58 0-14.08 6.7-14.19 19.57-2.31 0-4.3-.1-5.39-.32-.55.43-.77 1.09-.77 1.75 0 1.32 2.54 3.64 6.05 3.85 0 15.94 0 29.36-.98 35.86-.78 5.07-2.53 8.7-6.72 8.7-2.64 0-4.06-1.12-5.06-2.65-1.2.33-1.86 1.1-1.86 2.42 0 2.2 3.18 5.18 7.36 5.18 6.17 0 10.78-4.3 12.21-11.22 1.32-6.18 1.54-16.5 1.64-38.18 3.32 0 7.16-.21 8.82-.67zm0 0"/></symbol><symbol overflow="visible" id="d0c4513fc"><path d="M1.77-28.38c1.2-.43 2.64-.78 3.84-.78 1.76 0 2.53 2.32 2.53 7.7 0 5.5-.98 11.34-.98 14.3 0 4.85 1.86 7.6 4.06 7.6 1.87 0 4.19-2.64 4.19-4.28 0-3.1-1.22-5.96-1.22-8.82 0-1.53.22-3.18.33-4.5 1.76-5.5 6.5-11 10.23-11 2.53 0 3.73 1.97 3.73 6.82 0 4.51-.43 9.68-.43 12.32 0 6.27 3.18 9.46 7.15 9.46 3.52 0 6.16-2.53 6.16-4.4 0-.77-.22-1.43-.77-1.87-.89.44-1.87.77-3.3.77-1.65 0-2.63-.99-2.63-4.63 0-4.28.43-9.56.43-13.62 0-6.94-3.53-11.46-8.47-11.46-4.73 0-9.25 3.43-12.54 11.33h-.11c.87-7.9-2.1-11.33-6.38-11.33-3.64 0-6.71 2.97-6.71 4.63 0 .55.32 1.33.89 1.77zm0 0"/></symbol><symbol overflow="visible" id="d0c4513fd"><path d="M24.75-24.31c2.86-.33 4.4-1.99 4.4-3.85 0-3.53-3.96-6.93-10-6.93-8.8 0-16.4 8.9-16.4 19.14C2.75-6.05 8.8.44 17.48.44c6.83 0 11.22-4.17 11.22-6.92 0-1-.32-1.55-.87-1.88a14.15 14.15 0 01-8.47 2.75C13.75-5.6 9.9-9.34 9.9-16.5c0-8.69 3.95-13.64 8.68-13.64 2.75 0 4.96 2.31 6.16 5.83zm0 0"/></symbol><symbol overflow="visible" id="d0c4513fe"><path d="M38.6-5.83c-.87.44-1.87.77-3.29.77-1.76 0-2.75-1.99-2.97-8.8-.1-3.62.22-8.36.88-10.89 1.98-4.3 2.42-6.38 2.42-8.14 0-1.66-2.1-3.52-3.73-3.52-1.88 0-3.54 2.2-4.63 8.25h-.1c-1.77-4.18-5.07-6.6-8.7-6.6-7.92 0-15.18 8.7-15.18 19.92C3.3-5.5 8.8.44 15.3.44c5.39 0 9.23-4.07 11.22-10.46h.1c.44 7.49 3.3 10.46 6.6 10.46 3.51 0 6.16-2.53 6.16-4.4 0-.77-.22-1.43-.77-1.87zm-12.08-17.6l-.11 4.84c-1.99 8.46-5.85 12.98-9.7 12.98-3.62 0-6.26-3.08-6.26-10.12 0-8.36 3.85-12.97 8.36-12.97 2.64 0 5.83 1.53 7.7 5.26zm0 0"/></symbol><symbol overflow="visible" id="d0c4513fb"><path d="M1.44-28.38c1.2-.43 2.62-.78 3.84-.78 1.99 0 3.08 1.44 3.08 5.4 0 5.39-.98 10.45-.98 14.74C7.38-3.08 9.9.44 14.72.44c3.2 0 6.18-2.53 6.18-4.4 0-.77-.22-1.43-.79-1.87-.87.44-1.96.77-3.3.77-1.98 0-2.96-1.32-2.96-5.17 0-4.61 1.1-10.57 1.1-16.5 0-5.5-2.41-8.04-6.05-8.04-3.96 0-8.36 2.97-8.36 4.63 0 .55.32 1.33.89 1.77zm6.7-16.17c0 2.32 1.55 3.96 3.73 3.96 2.65 0 4.2-2.32 4.2-4.61a3.8 3.8 0 00-3.87-3.97c-2.75 0-4.06 2.31-4.06 4.62zm0 0"/></symbol><symbol overflow="visible" id="d0c4513ff"><path d="M3.83 0v-5.95H6.2v-.82H.45v.82h2.4V0zm0 0"/></symbol><symbol overflow="visible" id="d0c4513fg"><path d="M5.75-2.23v-.43c0-1.6-.9-2.51-2.42-2.51S.87-4.16.87-2.48c0 1.71.91 2.62 2.5 2.62 1.43 0 2.07-.56 2.29-1.52l-.9-.09c-.18.61-.59.9-1.35.9-.94 0-1.52-.54-1.58-1.66zm-2.4-2.2c.93 0 1.43.5 1.48 1.55H1.84c.08-1.07.6-1.56 1.5-1.56zm0 0"/></symbol><symbol overflow="visible" id="d0c4513fh"><path d="M1.83 0l1.42-2h.06l1.46 2H5.8L4-2.53l1.78-2.49H4.8L3.42-3.08h-.08l-1.4-1.94H.89l1.78 2.49L.84 0zm0 0"/></symbol><symbol overflow="visible" id="d0c4513fi"><path d="M5.52-4.25v-.77H3.17v-1.56h-.81l-.14 1.56H.75v.77h1.47v2.4c0 1.3.48 1.94 1.84 1.94C4.6.1 5.14 0 5.55-.14L5.4-.91c-.32.13-.72.2-1.13.2-.8 0-1.1-.37-1.1-1.23v-2.31zm0 0"/></symbol><symbol overflow="visible" id="d0c4513fj"><path d="M3.33-3.42c.47 0 .8-.27.8-.8 0-.51-.33-.8-.8-.8-.47 0-.8.29-.8.8 0 .53.33.8.8.8zm0 3.5c.47 0 .8-.27.8-.78 0-.53-.33-.82-.8-.82-.47 0-.8.29-.8.82 0 .51.33.78.8.78zm0 0"/></symbol><symbol overflow="visible" id="d0c4513fl"><path d="M4.63-6.5c.45 0 .98.08 1.39.2l.2-.72a5.3 5.3 0 00-1.64-.26c-1.52 0-2.16.56-2.16 1.87v.4H.9v.76h1.53V0h.94v-4.25h2.53v-.77H3.36v-.3c0-.84.33-1.18 1.27-1.18zm0 0"/></symbol><symbol overflow="visible" id="d0c4513fm"><path d="M3.58-5.81c.42 0 .72-.22.72-.67 0-.44-.3-.68-.72-.68-.44 0-.72.24-.72.68 0 .45.28.67.72.67zm.5.8H1.52v.76h1.6v3.48h-1.8V0h4.46v-.77h-1.7zm0 0"/></symbol><symbol overflow="visible" id="d0c4513fn"><path d="M2.16 0v-2.67c0-.99.59-1.63 1.46-1.63.74 0 1.07.38 1.07 1.22V0h.95v-3.31c0-1.2-.56-1.85-1.67-1.85-.92 0-1.49.46-1.77 1.08h-.06l-.12-.94H1.2V0zm0 0"/></symbol><symbol overflow="visible" id="d0c4513fo"><path d="M3.34.14c1.43 0 2.13-.66 2.25-1.78l-.89-.1c-.1.7-.5 1.08-1.34 1.08-1.03 0-1.52-.64-1.52-1.84 0-1.23.47-1.86 1.52-1.86.84 0 1.23.36 1.34 1.08l.9-.1c-.13-1.09-.82-1.78-2.26-1.78-1.56 0-2.46.97-2.46 2.66 0 1.66.9 2.64 2.46 2.64zm0 0"/></symbol><symbol overflow="visible" id="d0c4513fp"><path d="M2.83.14c.94 0 1.5-.39 1.81-.95h.08l.1.81h.76v-3.38c0-1.23-.69-1.8-2.13-1.8-1.43 0-2.03.65-2.18 1.6l.93.1c.11-.6.44-.93 1.22-.93.85 0 1.22.32 1.22 1.04v.34l-1.81.2C1.6-2.7 1.1-2.17 1.1-1.28c0 .92.64 1.42 1.72 1.42zm.25-.77c-.67 0-1.02-.28-1.02-.74 0-.44.28-.72 1-.82l1.58-.19v.41c0 .8-.6 1.34-1.56 1.34zm0 0"/></symbol><symbol overflow="visible" id="d0c4513fq"><path d="M5.95-6.77H1.1V0h.99v-2.92H5.3v-.77H2.08v-2.26h3.87zm0 0"/></symbol><symbol overflow="visible" id="d0c4513fr"><path d="M2.73.14c.9 0 1.43-.45 1.74-1.08h.06l.13.94h.8v-5.02h-.94v2.7c0 .98-.57 1.62-1.46 1.62-.75 0-1.1-.4-1.1-1.22v-3.1h-.93v3.32c0 1.17.55 1.84 1.7 1.84zm0 0"/></symbol><symbol overflow="visible" id="d0c4513fs"><path d="M5.08-5.16c-.94 0-1.58.43-1.9 1.3h-.09l-.07-1.16H1.05v.77h1.1v3.48H.96V0h3.96v-.77H3.1v-1.46c0-1.36.6-2.05 1.83-2.05.4 0 .76.08 1.1.17l.15-.87c-.33-.11-.7-.18-1.11-.18zm0 0"/></symbol><symbol overflow="visible" id="d0c4513ft"><path d="M5.77-5.02H4.63L2.3-2.88h-.06v-4.26h-.94V0h.94v-2.31h.06L4.71 0h1.24L3.23-2.69zm0 0"/></symbol><symbol overflow="visible" id="d0c4513fu"><path d="M3.36.16c1.4 0 2.2-.6 2.2-1.57 0-.89-.54-1.22-1.47-1.39L3-3c-.67-.14-.86-.33-.86-.73 0-.5.4-.74 1.17-.74.83 0 1.19.27 1.27.8l.9-.05c-.12-1-.8-1.47-2.17-1.47-1.34 0-2.1.53-2.1 1.5 0 .81.45 1.22 1.52 1.44l1.04.2c.56.11.87.24.87.72 0 .52-.45.78-1.28.78-.95 0-1.36-.28-1.42-.87l-.9.06C1.07-.36 1.8.16 3.35.16zm0 0"/></symbol><symbol overflow="visible" id="d0c4513fv"><path d="M2.16 0v-2.69c0-.98.6-1.6 1.46-1.6.74 0 1.07.4 1.07 1.2V0h.95v-3.31c0-1.17-.56-1.85-1.67-1.85-.9 0-1.44.46-1.75 1.08h-.06v-3.06H1.2V0zm0 0"/></symbol><symbol overflow="visible" id="d0c4513fw"><path d="M2.58.95l2.39-8.67h-.9L1.7.95zm0 0"/></symbol><symbol overflow="visible" id="d0c4513fx"><path d="M3.42.14C5.1.14 5.9-.69 6.11-2.17l-.95-.1C4.96-1.19 4.5-.69 3.44-.69c-1.27 0-1.81-.94-1.81-2.69s.54-2.7 1.8-2.7c1.09 0 1.5.49 1.73 1.58l.93-.1c-.21-1.46-.95-2.3-2.62-2.3C1.53-6.9.62-5.6.62-3.38c0 2.2.91 3.51 2.8 3.51zm0 0"/></symbol><symbol overflow="visible" id="d0c4513fy"><path d="M1.63 0v-2.9c0-.8.15-1.4.71-1.4.41 0 .55.3.55.88V0h.95v-2.9c0-.8.18-1.4.72-1.4.4 0 .57.3.57.88V0h.95v-3.63c0-.92-.28-1.53-1.11-1.53-.63 0-.95.41-1.1.9h-.06c-.1-.52-.44-.9-1.08-.9-.6 0-.93.41-1.06.9H1.6l-.23-.76H.67V0zm0 0"/></symbol><symbol overflow="visible" id="d0c4513fz"><path d="M1.45-2.95c0 2.56 1.08 4.37 3.67 4.84l.11-.67C3.28.86 2.43-.75 2.43-2.95s.85-3.82 2.8-4.16l-.1-.69c-2.6.49-3.68 2.3-3.68 4.85zm0 0"/></symbol><symbol overflow="visible" id="d0c4513fA"><path d="M3.92-7.14H1.36v.76h1.6v5.61H1.15V0H5.7v-.77H3.92zm0 0"/></symbol><symbol overflow="visible" id="d0c4513fB"><path d="M3.16 2.03c1.67 0 2.4-.86 2.4-2.51v-4.54h-.81l-.13.91h-.06c-.26-.58-.8-1.05-1.73-1.05-1.42 0-2.24 1-2.24 2.52 0 1.6.75 2.56 2.2 2.56.94 0 1.5-.5 1.77-1.03h.05v.72c0 1.17-.42 1.67-1.45 1.67-.93 0-1.3-.34-1.41-.89L.8.5c.12.96.87 1.54 2.36 1.54zM3.06-.8c-.98 0-1.48-.57-1.48-1.82 0-1.13.5-1.75 1.48-1.75 1.06 0 1.58.76 1.58 1.75 0 .95-.56 1.82-1.58 1.82zm0 0"/></symbol><symbol overflow="visible" id="d0c4513fC"><path d="M1.45-7.1c1.96.33 2.8 1.94 2.8 4.15 0 2.2-.84 3.8-2.8 4.17l.11.67c2.58-.47 3.67-2.28 3.67-4.84 0-2.55-1.09-4.36-3.67-4.85zm0 0"/></symbol></defs><use xlink:href="#d0c4513fa" x="199.68" y="141" fill="#fff"/><use xlink:href="#d0c4513fb" x="225.31" y="141" fill="#fff"/><g fill="#515151"><use xlink:href="#d0c4513fc" x="246.98" y="141"/><use xlink:href="#d0c4513fd" x="289.22" y="141"/></g><g fill="#515151"><use xlink:href="#d0c4513fe" x="317.82" y="141"/><use xlink:href="#d0c4513fc" x="358.08" y="141"/></g><g fill="#fff"><use xlink:href="#d0c4513ff" x="260" y="252"/><use xlink:href="#d0c4513fg" x="266.667" y="252"/><use xlink:href="#d0c4513fh" x="273.334" y="252"/><use xlink:href="#d0c4513fi" x="280.001" y="252"/><use xlink:href="#d0c4513fj" x="286.668" y="252"/><use xlink:href="#d0c4513fk" x="293.335" y="252"/><use xlink:href="#d0c4513fl" x="300.002" y="252"/><use xlink:href="#d0c4513fm" x="306.669" y="252"/><use xlink:href="#d0c4513fn" x="313.336" y="252"/><use xlink:href="#d0c4513fo" x="320.003" y="252"/><use xlink:href="#d0c4513fp" x="326.67" y="252"/><use xlink:href="#d0c4513fn" x="333.337" y="252"/></g><g fill="#fff"><use xlink:href="#d0c4513fq" x="150" y="266"/><use xlink:href="#d0c4513fg" x="156.667" y="266"/><use xlink:href="#d0c4513fp" x="163.334" y="266"/><use xlink:href="#d0c4513fi" x="170.001" y="266"/><use xlink:href="#d0c4513fr" x="176.668" y="266"/><use xlink:href="#d0c4513fs" x="183.335" y="266"/><use xlink:href="#d0c4513fg" x="190.002" y="266"/><use xlink:href="#d0c4513fj" x="196.669" y="266"/><use xlink:href="#d0c4513fk" x="203.336" y="266"/><use xlink:href="#d0c4513ff" x="210.003" y="266"/><use xlink:href="#d0c4513fr" x="216.67" y="266"/><use xlink:href="#d0c4513fs" x="223.337" y="266"/><use xlink:href="#d0c4513ft" x="230.004" y="266"/><use xlink:href="#d0c4513fm" x="236.671" y="266"/><use xlink:href="#d0c4513fu" x="243.338" y="266"/><use xlink:href="#d0c4513fv" x="250.005" y="266"/><use xlink:href="#d0c4513fw" x="256.672" y="266"/><use xlink:href="#d0c4513fx" x="263.339" y="266"/><use xlink:href="#d0c4513fs" x="270.006" y="266"/><use xlink:href="#d0c4513fm" x="276.673" y="266"/><use xlink:href="#d0c4513fy" x="283.34" y="266"/><use xlink:href="#d0c4513fg" x="290.007" y="266"/><use xlink:href="#d0c4513fp" x="296.674" y="266"/><use xlink:href="#d0c4513fn" x="303.341" y="266"/><use xlink:href="#d0c4513fk" x="310.008" y="266"/><use xlink:href="#d0c4513ff" x="316.675" y="266"/><use xlink:href="#d0c4513fp" x="323.342" y="266"/><use xlink:href="#d0c4513fi" x="330.009" y="266"/><use xlink:href="#d0c4513fp" x="336.676" y="266"/><use xlink:href="#d0c4513fs" x="343.343" y="266"/><use xlink:href="#d0c4513fk" x="350.01" y="266"/><use xlink:href="#d0c4513fz" x="356.677" y="266"/><use xlink:href="#d0c4513fu" x="363.344" y="266"/><use xlink:href="#d0c4513fg" x="370.011" y="266"/><use xlink:href="#d0c4513fi" x="376.678" y="266"/><use xlink:href="#d0c4513fk" x="383.345" y="266"/><use xlink:href="#d0c4513fA" x="390.012" y="266"/><use xlink:href="#d0c4513fp" x="396.679" y="266"/><use xlink:href="#d0c4513fn" x="403.346" y="266"/><use xlink:href="#d0c4513fB" x="410.013" y="266"/><use xlink:href="#d0c4513fr" x="416.68" y="266"/><use xlink:href="#d0c4513fp" x="423.347" y="266"/><use xlink:href="#d0c4513fB" x="430.014" y="266"/><use xlink:href="#d0c4513fg" x="436.681" y="266"/><use xlink:href="#d0c4513fC" x="443.348" y="266"/></g></svg>