<?xml version='1.0' encoding='UTF-8'?>
<svg xmlns="http://www.w3.org/2000/svg" xmlns:xlink="http://www.w3.org/1999/xlink" width="600px" height="300px" viewBox="0 0 600 300" x="0px" y="0px" enable-background="new 0 0 600 300"><defs><symbol overflow="visible" id="ffa5fa9ba"><path d="M33.88-31.02c-.55-2.09-2.86-3.86-4.5-3.86-2.1 0-4.2 1.22-7.7 5.94-4.2 5.63-8.7 14.32-11.77 22.67h-.22c0-10.01 1.1-22.1 3.08-30.14 2.42-5.5 3.95-9.8 3.95-11.65 0-2.31-3.19-5.17-5.28-5.17-1.88 0-2.86 1.42-3.85 5.6-1.65 7.15-2.86 20.9-2.86 30.26C4.73-2.31 6.16.77 8.91.77c1.54 0 2.64-1.32 3.86-4.07a99.74 99.74 0 015.71-11h.11C19.36-4.84 24.1.77 30.36.77c3.95 0 7.37-3.3 7.37-5.5 0-.77-.32-1.54-.78-2.08-.76.54-2.4.98-4.28.98C26.2-5.83 22-10.89 22-17.7c0-.57.1-1.55.22-1.99a33.87 33.87 0 0111.66-11.33zm0 0"/></symbol><symbol overflow="visible" id="ffa5fa9bb"><path d="M26.4-26.06c1.87-1 2.76-2.64 2.76-3.86 0-2.86-2.2-5.17-5.07-5.17-3.96 0-7.8 3.75-10.67 12.32h-.22c.66-9.03-1.65-12-5.93-12-3.64 0-6.72 2.97-6.72 4.63 0 .55.32 1.33.89 1.77 1.2-.44 2.62-.79 3.84-.79 1.77 0 2.53 2.32 2.53 7.7 0 5.94-1 11.34-1 14.3C6.81-2.3 8.7.44 10.9.44c1.88 0 4.17-2.64 4.17-4.28 0-3.1-1.2-5.96-1.2-8.82 0-7.36 4.62-14.95 8.69-14.95 1.43 0 2.75.55 3.86 1.55zm0 0"/></symbol><symbol overflow="visible" id="ffa5fa9bc"><path d="M38.6-5.83c-.87.44-1.87.77-3.29.77-1.76 0-2.75-1.99-2.97-8.8-.1-3.62.22-8.36.88-10.89 1.98-4.3 2.42-6.38 2.42-8.14 0-1.66-2.1-3.52-3.73-3.52-1.88 0-3.54 2.2-4.63 8.25h-.1c-1.77-4.18-5.07-6.6-8.7-6.6-7.92 0-15.18 8.7-15.18 19.92C3.3-5.5 8.8.44 15.3.44c5.39 0 9.23-4.07 11.22-10.46h.1c.44 7.49 3.3 10.46 6.6 10.46 3.51 0 6.16-2.53 6.16-4.4 0-.77-.22-1.43-.77-1.87zm-12.08-17.6l-.11 4.84c-1.99 8.46-5.85 12.98-9.7 12.98-3.62 0-6.26-3.08-6.26-10.12 0-8.36 3.85-12.97 8.36-12.97 2.64 0 5.83 1.53 7.7 5.26zm0 0"/></symbol><symbol overflow="visible" id="ffa5fa9bd"><path d="M29.48-8.47C27.5-6.8 24.53-5.6 20.45-5.6c-6.92 0-10.54-3.62-10.54-11.22a20.48 20.48 0 009.12 2.42c6.81 0 11.33-4.62 11.33-10.67 0-6.26-4.73-10.01-10.67-10.01-9.9 0-16.94 9.25-16.94 18.7C2.75-5.72 9.45.44 18.38.44c6.8 0 11.98-4.28 11.98-7.25 0-.78-.33-1.33-.88-1.66zM10.12-19.8c.88-6.5 4.61-10.34 8.91-10.34 2.75 0 5.28 2.1 5.28 5.17 0 3.63-2.31 6.16-7.26 6.16-2.86 0-4.96-.44-6.93-.99zm0 0"/></symbol><symbol overflow="visible" id="ffa5fa9be"><path d="M1.77-28.38c1.2-.43 2.64-.78 3.84-.78 1.76 0 2.53 2.32 2.53 7.7 0 5.5-.98 11.34-.98 14.3 0 4.85 1.86 7.6 4.06 7.6 1.87 0 4.19-2.64 4.19-4.28 0-3.1-1.22-5.96-1.22-8.82 0-1.53.22-3.18.33-4.5 1.76-5.5 6.5-11 10.23-11 2.53 0 3.73 1.97 3.73 6.82 0 4.51-.43 9.68-.43 12.32 0 6.27 3.18 9.46 7.15 9.46 3.52 0 6.16-2.53 6.16-4.4 0-.77-.22-1.43-.77-1.87-.89.44-1.87.77-3.3.77-1.65 0-2.63-.99-2.63-4.63 0-4.28.43-9.56.43-13.62 0-6.94-3.53-11.46-8.47-11.46-4.73 0-9.25 3.43-12.54 11.33h-.11c.87-7.9-2.1-11.33-6.38-11.33-3.64 0-6.71 2.97-6.71 4.63 0 .55.32 1.33.89 1.77zm0 0"/></symbol><symbol overflow="visible" id="ffa5fa9bf"><path d="M3.83 0v-5.95H6.2v-.82H.45v.82h2.4V0zm0 0"/></symbol><symbol overflow="visible" id="ffa5fa9bg"><path d="M5.75-2.23v-.43c0-1.6-.9-2.51-2.42-2.51S.87-4.16.87-2.48c0 1.71.91 2.62 2.5 2.62 1.43 0 2.07-.56 2.29-1.52l-.9-.09c-.18.61-.59.9-1.35.9-.94 0-1.52-.54-1.58-1.66zm-2.4-2.2c.93 0 1.43.5 1.48 1.55H1.84c.08-1.07.6-1.56 1.5-1.56zm0 0"/></symbol><symbol overflow="visible" id="ffa5fa9bh"><path d="M1.83 0l1.42-2h.06l1.46 2H5.8L4-2.53l1.78-2.49H4.8L3.42-3.08h-.08l-1.4-1.94H.89l1.78 2.49L.84 0zm0 0"/></symbol><symbol overflow="visible" id="ffa5fa9bi"><path d="M5.52-4.25v-.77H3.17v-1.56h-.81l-.14 1.56H.75v.77h1.47v2.4c0 1.3.48 1.94 1.84 1.94C4.6.1 5.14 0 5.55-.14L5.4-.91c-.32.13-.72.2-1.13.2-.8 0-1.1-.37-1.1-1.23v-2.31zm0 0"/></symbol><symbol overflow="visible" id="ffa5fa9bj"><path d="M3.33-3.42c.47 0 .8-.27.8-.8 0-.51-.33-.8-.8-.8-.47 0-.8.29-.8.8 0 .53.33.8.8.8zm0 3.5c.47 0 .8-.27.8-.78 0-.53-.33-.82-.8-.82-.47 0-.8.29-.8.82 0 .51.33.78.8.78zm0 0"/></symbol><symbol overflow="visible" id="ffa5fa9bl"><path d="M5.77-5.02H4.63L2.3-2.88h-.06v-4.26h-.94V0h.94v-2.31h.06L4.71 0h1.24L3.23-2.69zm0 0"/></symbol><symbol overflow="visible" id="ffa5fa9bm"><path d="M5.08-5.16c-.94 0-1.58.43-1.9 1.3h-.09l-.07-1.16H1.05v.77h1.1v3.48H.96V0h3.96v-.77H3.1v-1.46c0-1.36.6-2.05 1.83-2.05.4 0 .76.08 1.1.17l.15-.87c-.33-.11-.7-.18-1.11-.18zm0 0"/></symbol><symbol overflow="visible" id="ffa5fa9bn"><path d="M2.83.14c.94 0 1.5-.39 1.81-.95h.08l.1.81h.76v-3.38c0-1.23-.69-1.8-2.13-1.8-1.43 0-2.03.65-2.18 1.6l.93.1c.11-.6.44-.93 1.22-.93.85 0 1.22.32 1.22 1.04v.34l-1.81.2C1.6-2.7 1.1-2.17 1.1-1.28c0 .92.64 1.42 1.72 1.42zm.25-.77c-.67 0-1.02-.28-1.02-.74 0-.44.28-.72 1-.82l1.58-.19v.41c0 .8-.6 1.34-1.56 1.34zm0 0"/></symbol><symbol overflow="visible" id="ffa5fa9bo"><path d="M2.16 0v-2.67c0-.99.59-1.63 1.46-1.63.74 0 1.07.38 1.07 1.22V0h.95v-3.31c0-1.2-.56-1.85-1.67-1.85-.92 0-1.49.46-1.77 1.08h-.06l-.12-.94H1.2V0zm0 0"/></symbol><symbol overflow="visible" id="ffa5fa9bp"><path d="M5.95-6.77H1.1V0h.99v-2.92H5.3v-.77H2.08v-2.26h3.87zm0 0"/></symbol><symbol overflow="visible" id="ffa5fa9bq"><path d="M2.73.14c.9 0 1.43-.45 1.74-1.08h.06l.13.94h.8v-5.02h-.94v2.7c0 .98-.57 1.62-1.46 1.62-.75 0-1.1-.4-1.1-1.22v-3.1h-.93v3.32c0 1.17.55 1.84 1.7 1.84zm0 0"/></symbol><symbol overflow="visible" id="ffa5fa9br"><path d="M6.17 0L3.98-6.77h-1.3L.5 0h.97l.44-1.47h2.78L5.16 0zM3.28-5.94h.08l1.1 3.74H2.15zm0 0"/></symbol><symbol overflow="visible" id="ffa5fa9bs"><path d="M3.92-7.14H1.36v.76h1.6v5.61H1.15V0H5.7v-.77H3.92zm0 0"/></symbol><symbol overflow="visible" id="ffa5fa9bt"><path d="M3.58-5.81c.42 0 .72-.22.72-.67 0-.44-.3-.68-.72-.68-.44 0-.72.24-.72.68 0 .45.28.67.72.67zm.5.8H1.52v.76h1.6v3.48h-1.8V0h4.46v-.77h-1.7zm0 0"/></symbol><symbol overflow="visible" id="ffa5fa9bu"><path d="M3.9 0l2-5.02h-.96L3.4-.94h-.07L1.8-5.02H.77L2.78 0zm0 0"/></symbol><symbol overflow="visible" id="ffa5fa9bv"><path d="M4.63-6.5c.45 0 .98.08 1.39.2l.2-.72a5.3 5.3 0 00-1.64-.26c-1.52 0-2.16.56-2.16 1.87v.4H.9v.76h1.53V0h.94v-4.25h2.53v-.77H3.36v-.3c0-.84.33-1.18 1.27-1.18zm0 0"/></symbol><symbol overflow="visible" id="ffa5fa9bw"><path d="M3.33.14c1.62 0 2.5-.95 2.5-2.66 0-1.68-.88-2.64-2.5-2.64-1.63 0-2.5.96-2.5 2.64 0 1.7.87 2.66 2.5 2.66zm0-.77c-1.06 0-1.52-.6-1.52-1.89 0-1.28.46-1.87 1.52-1.87 1.08 0 1.53.6 1.53 1.87 0 1.29-.45 1.9-1.53 1.9zm0 0"/></symbol><symbol overflow="visible" id="ffa5fa9bx"><path d="M1.63 0v-2.9c0-.8.15-1.4.71-1.4.41 0 .55.3.55.88V0h.95v-2.9c0-.8.18-1.4.72-1.4.4 0 .57.3.57.88V0h.95v-3.63c0-.92-.28-1.53-1.11-1.53-.63 0-.95.41-1.1.9h-.06c-.1-.52-.44-.9-1.08-.9-.6 0-.93.41-1.06.9H1.6l-.23-.76H.67V0zm0 0"/></symbol><symbol overflow="visible" id="ffa5fa9by"><path d="M3.38-5.9c.12-.5.42-1.04.67-1.41l-.63-.22a4.28 4.28 0 00-1.01 2.39c0 .66.3 1 .9 1 .6 0 .9-.33.9-.9 0-.57-.32-.83-.83-.85zm0 0"/></symbol><symbol overflow="visible" id="ffa5fa9bz"><path d="M3.3-7.53c-.55 0-.85.3-.85.84 0 .55.36.8.83.8h.03a5.1 5.1 0 01-.69 1.47l.52.23a4.29 4.29 0 001.02-2.4c0-.63-.33-.94-.86-.94zm0 0"/></symbol><symbol overflow="visible" id="ffa5fa9bA"><path d="M1.45-2.95c0 2.56 1.08 4.37 3.67 4.84l.11-.67C3.28.86 2.43-.75 2.43-2.95s.85-3.82 2.8-4.16l-.1-.69c-2.6.49-3.68 2.3-3.68 4.85zm0 0"/></symbol><symbol overflow="visible" id="ffa5fa9bB"><path d="M3.36.16c1.4 0 2.2-.6 2.2-1.57 0-.89-.54-1.22-1.47-1.39L3-3c-.67-.14-.86-.33-.86-.73 0-.5.4-.74 1.17-.74.83 0 1.19.27 1.27.8l.9-.05c-.12-1-.8-1.47-2.17-1.47-1.34 0-2.1.53-2.1 1.5 0 .81.45 1.22 1.52 1.44l1.04.2c.56.11.87.24.87.72 0 .52-.45.78-1.28.78-.95 0-1.36-.28-1.42-.87l-.9.06C1.07-.36 1.8.16 3.35.16zm0 0"/></symbol><symbol overflow="visible" id="ffa5fa9bC"><path d="M3.33.14c1.65 0 2.6-1.1 2.6-3.52S4.99-6.9 3.34-6.9C1.67-6.9.72-5.8.72-3.37c0 2.4.95 3.51 2.6 3.51zm0-.84c-1.13 0-1.6-.85-1.6-2.67 0-1.86.47-2.7 1.6-2.7 1.12 0 1.6.84 1.6 2.7 0 1.82-.48 2.67-1.6 2.67zM3.3-2.64c.38 0 .56-.28.56-.72 0-.44-.18-.7-.56-.7-.39 0-.56.26-.56.7 0 .44.17.72.56.72zm0 0"/></symbol><symbol overflow="visible" id="ffa5fa9bD"><path d="M5.1 0v-1.47H6v-.81h-.9v-4.49H3.8L.48-2.23v.76h3.66V0zM1.5-2.33l2.6-3.53h.04v3.58H1.5zm0 0"/></symbol><symbol overflow="visible" id="ffa5fa9bE"><path d="M1.45-7.1c1.96.33 2.8 1.94 2.8 4.15 0 2.2-.84 3.8-2.8 4.17l.11.67c2.58-.47 3.67-2.28 3.67-4.84 0-2.55-1.09-4.36-3.67-4.85zm0 0"/></symbol></defs><use xlink:href="#ffa5fa9ba" x="190.715" y="141" fill="#fff"/><g fill="#515151"><use xlink:href="#ffa5fa9bb" x="227.895" y="141"/><use xlink:href="#ffa5fa9bc" x="255.395" y="141"/></g><use xlink:href="#ffa5fa9ba" x="295.655" y="141" fill="#fff"/><g fill="#515151"><use xlink:href="#ffa5fa9bd" x="333.385" y="141"/><use xlink:href="#ffa5fa9be" x="367.045" y="141"/></g><g fill="#fff"><use xlink:href="#ffa5fa9bf" x="260" y="252"/><use xlink:href="#ffa5fa9bg" x="266.667" y="252"/><use xlink:href="#ffa5fa9bh" x="273.334" y="252"/><use xlink:href="#ffa5fa9bi" x="280.001" y="252"/><use xlink:href="#ffa5fa9bj" x="286.668" y="252"/><use xlink:href="#ffa5fa9bk" x="293.335" y="252"/><use xlink:href="#ffa5fa9bl" x="300.002" y="252"/><use xlink:href="#ffa5fa9bm" x="306.669" y="252"/><use xlink:href="#ffa5fa9bn" x="313.336" y="252"/><use xlink:href="#ffa5fa9bl" x="320.003" y="252"/><use xlink:href="#ffa5fa9bg" x="326.67" y="252"/><use xlink:href="#ffa5fa9bo" x="333.337" y="252"/></g><g fill="#fff"><use xlink:href="#ffa5fa9bp" x="170" y="266"/><use xlink:href="#ffa5fa9bg" x="176.667" y="266"/><use xlink:href="#ffa5fa9bn" x="183.334" y="266"/><use xlink:href="#ffa5fa9bi" x="190.001" y="266"/><use xlink:href="#ffa5fa9bq" x="196.668" y="266"/><use xlink:href="#ffa5fa9bm" x="203.335" y="266"/><use xlink:href="#ffa5fa9bg" x="210.002" y="266"/><use xlink:href="#ffa5fa9bj" x="216.669" y="266"/><use xlink:href="#ffa5fa9bk" x="223.336" y="266"/><use xlink:href="#ffa5fa9br" x="230.003" y="266"/><use xlink:href="#ffa5fa9bs" x="236.67" y="266"/><use xlink:href="#ffa5fa9bi" x="243.337" y="266"/><use xlink:href="#ffa5fa9bg" x="250.004" y="266"/><use xlink:href="#ffa5fa9bm" x="256.671" y="266"/><use xlink:href="#ffa5fa9bo" x="263.338" y="266"/><use xlink:href="#ffa5fa9bn" x="270.005" y="266"/><use xlink:href="#ffa5fa9bi" x="276.672" y="266"/><use xlink:href="#ffa5fa9bt" x="283.339" y="266"/><use xlink:href="#ffa5fa9bu" x="290.006" y="266"/><use xlink:href="#ffa5fa9bg" x="296.673" y="266"/><use xlink:href="#ffa5fa9bk" x="303.34" y="266"/><use xlink:href="#ffa5fa9bv" x="310.007" y="266"/><use xlink:href="#ffa5fa9bw" x="316.674" y="266"/><use xlink:href="#ffa5fa9bm" x="323.341" y="266"/><use xlink:href="#ffa5fa9bx" x="330.008" y="266"/><use xlink:href="#ffa5fa9bk" x="336.675" y="266"/><use xlink:href="#ffa5fa9bw" x="343.342" y="266"/><use xlink:href="#ffa5fa9bv" x="350.009" y="266"/><use xlink:href="#ffa5fa9bk" x="356.676" y="266"/><use xlink:href="#ffa5fa9by" x="363.343" y="266"/><use xlink:href="#ffa5fa9bl" x="370.01" y="266"/><use xlink:href="#ffa5fa9bz" x="376.677" y="266"/><use xlink:href="#ffa5fa9bk" x="383.344" y="266"/><use xlink:href="#ffa5fa9bA" x="390.011" y="266"/><use xlink:href="#ffa5fa9bB" x="396.678" y="266"/><use xlink:href="#ffa5fa9bB" x="403.345" y="266"/><use xlink:href="#ffa5fa9bC" x="410.012" y="266"/><use xlink:href="#ffa5fa9bD" x="416.679" y="266"/><use xlink:href="#ffa5fa9bE" x="423.346" y="266"/></g></svg>