<?xml version='1.0' encoding='UTF-8'?>
<svg xmlns="http://www.w3.org/2000/svg" xmlns:xlink="http://www.w3.org/1999/xlink" width="600px" height="300px" viewBox="0 0 600 300" x="0px" y="0px" enable-background="new 0 0 600 300"><defs><symbol overflow="visible" id="036ead09a"><path d="M38.6-5.83c-.87.44-1.87.77-3.29.77-1.76 0-2.97-1.99-2.97-8.8 0-7.81 1.1-18.27 1.64-21.89 2.2-6.16 3.2-10.45 3.2-12.31 0-2.31-3.2-5.17-5.27-5.17-1.88 0-2.86.87-3.54 5.17-.65 4.6-.98 10.22-.98 19.9h-.1c-2.32-4.3-5.18-6.6-9.24-6.6-7.49 0-14.75 8.7-14.75 19.92C3.3-5.72 8.47.44 15.3.44c5.39 0 9.23-4.07 11.22-10.46h.1c.44 7.49 3.3 10.46 6.6 10.46 3.51 0 6.16-2.53 6.16-4.4 0-.77-.22-1.43-.77-1.87zM26.85-22.66l-.32 4.07c-2.2 8.8-5.96 12.98-9.8 12.98-3.63 0-6.27-3.08-6.27-10.12 0-8.36 3.85-12.97 8.25-12.97 2.86 0 5.94 1.86 8.14 6.04zm0 0"/></symbol><symbol overflow="visible" id="036ead09b"><path d="M26.4-26.06c1.87-1 2.76-2.64 2.76-3.86 0-2.86-2.2-5.17-5.07-5.17-3.96 0-7.8 3.75-10.67 12.32h-.22c.66-9.03-1.65-12-5.93-12-3.64 0-6.72 2.97-6.72 4.63 0 .55.32 1.33.89 1.77 1.2-.44 2.62-.79 3.84-.79 1.77 0 2.53 2.32 2.53 7.7 0 5.94-1 11.34-1 14.3C6.81-2.3 8.7.44 10.9.44c1.88 0 4.17-2.64 4.17-4.28 0-3.1-1.2-5.96-1.2-8.82 0-7.36 4.62-14.95 8.69-14.95 1.43 0 2.75.55 3.86 1.55zm0 0"/></symbol><symbol overflow="visible" id="036ead09d"><path d="M27.28-28.16c-1.76-4.18-5.06-6.6-9.12-6.6-7.49 0-14.75 9.03-14.75 19.03 0 7.48 4.3 12.65 9.36 14.07v.11c-5.5 2.86-9.04 6.94-9.04 12 0 6.49 4.2 10.68 11.79 10.68 9.45 0 17.8-8.04 17.8-21.24 0-7.37-1.09-11.66-1.09-16.72 0-3.51.44-5.39 1.1-7.92 1.98-4.3 2.42-6.38 2.42-8.14 0-1.66-2.1-3.52-3.73-3.52-1.88 0-3.54 2.2-4.63 8.25zm-.44 5.07C25.95-13 21.02-5.61 16.83-5.61c-3.63 0-6.27-3.08-6.27-10.12 0-8.36 3.85-12.97 8.36-12.97 2.64 0 5.83 1.53 7.92 5.6zm-.1 14.18h.1c.33 1.86.66 5.61.66 9.13 0 8.8-4.63 15.4-11.55 15.4-4.18 0-6.39-2.42-6.39-5.71 0-3.32 1.99-6.4 7.16-9.58 6.37-3.96 8.03-5.5 10.01-9.24zm0 0"/></symbol><symbol overflow="visible" id="036ead09e"><path d="M17.38.44c9.03 0 16.39-7.92 16.39-18.92 0-9.9-6.6-16.61-14.63-16.61-9.02 0-16.39 8.14-16.39 19.14C2.75-6.05 9.35.44 17.38.44zm1.21-30.03c4.4 0 8.04 3.75 8.04 11.43 0 8.25-3.75 13.1-8.7 13.1-4.4 0-8.02-3.52-8.02-11.22 0-8.25 3.73-13.31 8.68-13.31zm0 0"/></symbol><symbol overflow="visible" id="036ead09f"><path d="M1.77-28.38c1.2-.43 2.64-.78 3.84-.78 1.76 0 2.53 2.32 2.53 7.7 0 5.5-.98 11.34-.98 14.3 0 4.85 1.86 7.6 4.06 7.6 1.87 0 4.19-2.64 4.19-4.28 0-3.1-1.22-5.96-1.22-8.82 0-1.53.22-3.18.33-4.5 1.76-5.5 6.5-11 10.23-11 2.53 0 3.73 1.97 3.73 6.82 0 4.51-.43 9.68-.43 12.32 0 6.27 3.18 9.46 7.15 9.46 3.52 0 6.16-2.53 6.16-4.4 0-.77-.22-1.43-.77-1.87-.89.44-1.87.77-3.3.77-1.65 0-2.63-.99-2.63-4.63 0-4.28.43-9.56.43-13.62 0-6.94-3.53-11.46-8.47-11.46-4.73 0-9.25 3.43-12.54 11.33h-.11c.87-7.9-2.1-11.33-6.38-11.33-3.64 0-6.71 2.97-6.71 4.63 0 .55.32 1.33.89 1.77zm0 0"/></symbol><symbol overflow="visible" id="036ead09c"><path d="M35.53-5.83c-.87.44-1.87.77-2.97.77s-1.76-1.53-1.76-5.5c0-5.06.54-9.9.54-13.31 0-6.49-4.93-11.22-13.07-11.22-7.38 0-12.66 3.75-12.66 7.48 0 2.31 2.2 3.95 4.84 3.95 1.64-4.28 3.96-7.03 7.25-7.03 4.08 0 7.05 3.19 7.05 7.7 0 1.86 0 2.76-.22 4.18a25.5 25.5 0 00-7.48-1.32C8.03-20.13 3.3-14.84 3.3-9.55c0 5.15 3.97 10 10.89 10 5.06 0 8.36-2.86 10.45-7.6h.11c.22 5.5 2.86 7.6 5.5 7.6 3.4 0 6.05-2.53 6.05-4.4 0-.77-.22-1.43-.77-1.87zm-11.1-9.36c-.77 6.72-4.3 10.67-8.91 10.67-3.32 0-5.61-1.96-5.61-5.39 0-3.62 3.3-6.15 8.68-6.15 2.1 0 4.5.43 5.83.76zm0 0"/></symbol><symbol overflow="visible" id="036ead09g"><path d="M3.83 0v-5.95H6.2v-.82H.45v.82h2.4V0zm0 0"/></symbol><symbol overflow="visible" id="036ead09h"><path d="M5.75-2.23v-.43c0-1.6-.9-2.51-2.42-2.51S.87-4.16.87-2.48c0 1.71.91 2.62 2.5 2.62 1.43 0 2.07-.56 2.29-1.52l-.9-.09c-.18.61-.59.9-1.35.9-.94 0-1.52-.54-1.58-1.66zm-2.4-2.2c.93 0 1.43.5 1.48 1.55H1.84c.08-1.07.6-1.56 1.5-1.56zm0 0"/></symbol><symbol overflow="visible" id="036ead09i"><path d="M1.83 0l1.42-2h.06l1.46 2H5.8L4-2.53l1.78-2.49H4.8L3.42-3.08h-.08l-1.4-1.94H.89l1.78 2.49L.84 0zm0 0"/></symbol><symbol overflow="visible" id="036ead09j"><path d="M5.52-4.25v-.77H3.17v-1.56h-.81l-.14 1.56H.75v.77h1.47v2.4c0 1.3.48 1.94 1.84 1.94C4.6.1 5.14 0 5.55-.14L5.4-.91c-.32.13-.72.2-1.13.2-.8 0-1.1-.37-1.1-1.23v-2.31zm0 0"/></symbol><symbol overflow="visible" id="036ead09k"><path d="M3.33-3.42c.47 0 .8-.27.8-.8 0-.51-.33-.8-.8-.8-.47 0-.8.29-.8.8 0 .53.33.8.8.8zm0 3.5c.47 0 .8-.27.8-.78 0-.53-.33-.82-.8-.82-.47 0-.8.29-.8.82 0 .51.33.78.8.78zm0 0"/></symbol><symbol overflow="visible" id="036ead09m"><path d="M2.84.14C3.8.14 4.33-.26 4.6-.9h.07L4.8 0h.76v-7.14h-.95v2.95h-.08c-.28-.6-.86-.97-1.67-.97-1.48 0-2.27.99-2.27 2.64C.6-.84 1.36.14 2.84.14zm.22-.8c-.98 0-1.48-.59-1.48-1.84s.5-1.86 1.48-1.86c1.13 0 1.58.8 1.58 1.86S4.2-.66 3.06-.66zm0 0"/></symbol><symbol overflow="visible" id="036ead09n"><path d="M5.08-5.16c-.94 0-1.58.43-1.9 1.3h-.09l-.07-1.16H1.05v.77h1.1v3.48H.96V0h3.96v-.77H3.1v-1.46c0-1.36.6-2.05 1.83-2.05.4 0 .76.08 1.1.17l.15-.87c-.33-.11-.7-.18-1.11-.18zm0 0"/></symbol><symbol overflow="visible" id="036ead09o"><path d="M2.83.14c.94 0 1.5-.39 1.81-.95h.08l.1.81h.76v-3.38c0-1.23-.69-1.8-2.13-1.8-1.43 0-2.03.65-2.18 1.6l.93.1c.11-.6.44-.93 1.22-.93.85 0 1.22.32 1.22 1.04v.34l-1.81.2C1.6-2.7 1.1-2.17 1.1-1.28c0 .92.64 1.42 1.72 1.42zm.25-.77c-.67 0-1.02-.28-1.02-.74 0-.44.28-.72 1-.82l1.58-.19v.41c0 .8-.6 1.34-1.56 1.34zm0 0"/></symbol><symbol overflow="visible" id="036ead09p"><path d="M3.16 2.03c1.67 0 2.4-.86 2.4-2.51v-4.54h-.81l-.13.91h-.06c-.26-.58-.8-1.05-1.73-1.05-1.42 0-2.24 1-2.24 2.52 0 1.6.75 2.56 2.2 2.56.94 0 1.5-.5 1.77-1.03h.05v.72c0 1.17-.42 1.67-1.45 1.67-.93 0-1.3-.34-1.41-.89L.8.5c.12.96.87 1.54 2.36 1.54zM3.06-.8c-.98 0-1.48-.57-1.48-1.82 0-1.13.5-1.75 1.48-1.75 1.06 0 1.58.76 1.58 1.75 0 .95-.56 1.82-1.58 1.82zm0 0"/></symbol><symbol overflow="visible" id="036ead09q"><path d="M3.33.14c1.62 0 2.5-.95 2.5-2.66 0-1.68-.88-2.64-2.5-2.64-1.63 0-2.5.96-2.5 2.64 0 1.7.87 2.66 2.5 2.66zm0-.77c-1.06 0-1.52-.6-1.52-1.89 0-1.28.46-1.87 1.52-1.87 1.08 0 1.53.6 1.53 1.87 0 1.29-.45 1.9-1.53 1.9zm0 0"/></symbol><symbol overflow="visible" id="036ead09r"><path d="M2.16 0v-2.67c0-.99.59-1.63 1.46-1.63.74 0 1.07.38 1.07 1.22V0h.95v-3.31c0-1.2-.56-1.85-1.67-1.85-.92 0-1.49.46-1.77 1.08h-.06l-.12-.94H1.2V0zm0 0"/></symbol><symbol overflow="visible" id="036ead09s"><path d="M5.95-6.77H1.1V0h.99v-2.92H5.3v-.77H2.08v-2.26h3.87zm0 0"/></symbol><symbol overflow="visible" id="036ead09t"><path d="M2.73.14c.9 0 1.43-.45 1.74-1.08h.06l.13.94h.8v-5.02h-.94v2.7c0 .98-.57 1.62-1.46 1.62-.75 0-1.1-.4-1.1-1.22v-3.1h-.93v3.32c0 1.17.55 1.84 1.7 1.84zm0 0"/></symbol><symbol overflow="visible" id="036ead09u"><path d="M6.17 0L3.98-6.77h-1.3L.5 0h.97l.44-1.47h2.78L5.16 0zM3.28-5.94h.08l1.1 3.74H2.15zm0 0"/></symbol><symbol overflow="visible" id="036ead09v"><path d="M3.92-7.14H1.36v.76h1.6v5.61H1.15V0H5.7v-.77H3.92zm0 0"/></symbol><symbol overflow="visible" id="036ead09w"><path d="M3.58-5.81c.42 0 .72-.22.72-.67 0-.44-.3-.68-.72-.68-.44 0-.72.24-.72.68 0 .45.28.67.72.67zm.5.8H1.52v.76h1.6v3.48h-1.8V0h4.46v-.77h-1.7zm0 0"/></symbol><symbol overflow="visible" id="036ead09x"><path d="M3.9 0l2-5.02h-.96L3.4-.94h-.07L1.8-5.02H.77L2.78 0zm0 0"/></symbol><symbol overflow="visible" id="036ead09y"><path d="M4.63-6.5c.45 0 .98.08 1.39.2l.2-.72a5.3 5.3 0 00-1.64-.26c-1.52 0-2.16.56-2.16 1.87v.4H.9v.76h1.53V0h.94v-4.25h2.53v-.77H3.36v-.3c0-.84.33-1.18 1.27-1.18zm0 0"/></symbol><symbol overflow="visible" id="036ead09z"><path d="M1.63 0v-2.9c0-.8.15-1.4.71-1.4.41 0 .55.3.55.88V0h.95v-2.9c0-.8.18-1.4.72-1.4.4 0 .57.3.57.88V0h.95v-3.63c0-.92-.28-1.53-1.11-1.53-.63 0-.95.41-1.1.9h-.06c-.1-.52-.44-.9-1.08-.9-.6 0-.93.41-1.06.9H1.6l-.23-.76H.67V0zm0 0"/></symbol><symbol overflow="visible" id="036ead09A"><path d="M3.38-5.9c.12-.5.42-1.04.67-1.41l-.63-.22a4.28 4.28 0 00-1.01 2.39c0 .66.3 1 .9 1 .6 0 .9-.33.9-.9 0-.57-.32-.83-.83-.85zm0 0"/></symbol><symbol overflow="visible" id="036ead09B"><path d="M3.3-7.53c-.55 0-.85.3-.85.84 0 .55.36.8.83.8h.03a5.1 5.1 0 01-.69 1.47l.52.23a4.29 4.29 0 001.02-2.4c0-.63-.33-.94-.86-.94zm0 0"/></symbol><symbol overflow="visible" id="036ead09C"><path d="M1.45-2.95c0 2.56 1.08 4.37 3.67 4.84l.11-.67C3.28.86 2.43-.75 2.43-2.95s.85-3.82 2.8-4.16l-.1-.69c-2.6.49-3.68 2.3-3.68 4.85zm0 0"/></symbol><symbol overflow="visible" id="036ead09D"><path d="M3.36.16c1.4 0 2.2-.6 2.2-1.57 0-.89-.54-1.22-1.47-1.39L3-3c-.67-.14-.86-.33-.86-.73 0-.5.4-.74 1.17-.74.83 0 1.19.27 1.27.8l.9-.05c-.12-1-.8-1.47-2.17-1.47-1.34 0-2.1.53-2.1 1.5 0 .81.45 1.22 1.52 1.44l1.04.2c.56.11.87.24.87.72 0 .52-.45.78-1.28.78-.95 0-1.36-.28-1.42-.87l-.9.06C1.07-.36 1.8.16 3.35.16zm0 0"/></symbol><symbol overflow="visible" id="036ead09E"><path d="M3.33.14c1.65 0 2.6-1.1 2.6-3.52S4.99-6.9 3.34-6.9C1.67-6.9.72-5.8.72-3.37c0 2.4.95 3.51 2.6 3.51zm0-.84c-1.13 0-1.6-.85-1.6-2.67 0-1.86.47-2.7 1.6-2.7 1.12 0 1.6.84 1.6 2.7 0 1.82-.48 2.67-1.6 2.67zM3.3-2.64c.38 0 .56-.28.56-.72 0-.44-.18-.7-.56-.7-.39 0-.56.26-.56.7 0 .44.17.72.56.72zm0 0"/></symbol><symbol overflow="visible" id="036ead09F"><path d="M4.22-6.77h-.86l-2.03.7v.87c.64-.17 1.26-.38 1.89-.55v4.9H1.03V0h4.9v-.86H4.21zm0 0"/></symbol><symbol overflow="visible" id="036ead09G"><path d="M1.45-7.1c1.96.33 2.8 1.94 2.8 4.15 0 2.2-.84 3.8-2.8 4.17l.11.67c2.58-.47 3.67-2.28 3.67-4.84 0-2.55-1.09-4.36-3.67-4.85zm0 0"/></symbol></defs><g fill="#515151"><use xlink:href="#036ead09a" x="189.175" y="141"/><use xlink:href="#036ead09b" x="229.765" y="141"/></g><use xlink:href="#036ead09c" x="257.265" y="141" fill="#fff"/><g fill="#515151"><use xlink:href="#036ead09d" x="294.115" y="141"/><use xlink:href="#036ead09e" x="332.065" y="141"/><use xlink:href="#036ead09f" x="368.585" y="141"/></g><g fill="#fff"><use xlink:href="#036ead09g" x="260" y="252"/><use xlink:href="#036ead09h" x="266.667" y="252"/><use xlink:href="#036ead09i" x="273.334" y="252"/><use xlink:href="#036ead09j" x="280.001" y="252"/><use xlink:href="#036ead09k" x="286.668" y="252"/><use xlink:href="#036ead09l" x="293.335" y="252"/><use xlink:href="#036ead09m" x="300.002" y="252"/><use xlink:href="#036ead09n" x="306.669" y="252"/><use xlink:href="#036ead09o" x="313.336" y="252"/><use xlink:href="#036ead09p" x="320.003" y="252"/><use xlink:href="#036ead09q" x="326.67" y="252"/><use xlink:href="#036ead09r" x="333.337" y="252"/></g><g fill="#fff"><use xlink:href="#036ead09s" x="170" y="266"/><use xlink:href="#036ead09h" x="176.667" y="266"/><use xlink:href="#036ead09o" x="183.334" y="266"/><use xlink:href="#036ead09j" x="190.001" y="266"/><use xlink:href="#036ead09t" x="196.668" y="266"/><use xlink:href="#036ead09n" x="203.335" y="266"/><use xlink:href="#036ead09h" x="210.002" y="266"/><use xlink:href="#036ead09k" x="216.669" y="266"/><use xlink:href="#036ead09l" x="223.336" y="266"/><use xlink:href="#036ead09u" x="230.003" y="266"/><use xlink:href="#036ead09v" x="236.67" y="266"/><use xlink:href="#036ead09j" x="243.337" y="266"/><use xlink:href="#036ead09h" x="250.004" y="266"/><use xlink:href="#036ead09n" x="256.671" y="266"/><use xlink:href="#036ead09r" x="263.338" y="266"/><use xlink:href="#036ead09o" x="270.005" y="266"/><use xlink:href="#036ead09j" x="276.672" y="266"/><use xlink:href="#036ead09w" x="283.339" y="266"/><use xlink:href="#036ead09x" x="290.006" y="266"/><use xlink:href="#036ead09h" x="296.673" y="266"/><use xlink:href="#036ead09l" x="303.34" y="266"/><use xlink:href="#036ead09y" x="310.007" y="266"/><use xlink:href="#036ead09q" x="316.674" y="266"/><use xlink:href="#036ead09n" x="323.341" y="266"/><use xlink:href="#036ead09z" x="330.008" y="266"/><use xlink:href="#036ead09l" x="336.675" y="266"/><use xlink:href="#036ead09q" x="343.342" y="266"/><use xlink:href="#036ead09y" x="350.009" y="266"/><use xlink:href="#036ead09l" x="356.676" y="266"/><use xlink:href="#036ead09A" x="363.343" y="266"/><use xlink:href="#036ead09o" x="370.01" y="266"/><use xlink:href="#036ead09B" x="376.677" y="266"/><use xlink:href="#036ead09l" x="383.344" y="266"/><use xlink:href="#036ead09C" x="390.011" y="266"/><use xlink:href="#036ead09D" x="396.678" y="266"/><use xlink:href="#036ead09D" x="403.345" y="266"/><use xlink:href="#036ead09E" x="410.012" y="266"/><use xlink:href="#036ead09F" x="416.679" y="266"/><use xlink:href="#036ead09G" x="423.346" y="266"/></g></svg>