<?xml version='1.0' encoding='UTF-8'?>
<svg xmlns="http://www.w3.org/2000/svg" xmlns:xlink="http://www.w3.org/1999/xlink" width="600px" height="300px" viewBox="0 0 600 300" x="0px" y="0px" enable-background="new 0 0 600 300"><defs><symbol overflow="visible" id="85915052a"><path d="M1.55-33.1c.22 2.3 1.64 3.94 4.06 3.94 3.4 0 8.14-2.96 12.33-8.03l.1.13v35.62C18.05 0 19.26.44 20.8.44c2.75 0 4.39-.55 4.39-1.64 0-6.07-1.42-28.4-1.42-35.2 0-2.2 0-4.41.21-5.73.88-1.1 1.2-2.2 1.2-3.07 0-1.55-1.87-2.75-3.84-2.75-2.75 4.39-10.89 11.54-19.8 14.84zm0 0"/></symbol><symbol overflow="visible" id="85915052b"><path d="M12.66-24.1c-5.5 2.65-8.82 6.73-8.82 12.23C3.84-4.74 9.91.43 18.27.43c8.9 0 15.28-5.6 15.28-13.2 0-5.5-3.3-9.56-9.24-12.75v-.1c5.4-2.97 7.7-6.5 7.7-10.9 0-6.04-5.28-11.43-12.98-11.43-7.6 0-13.64 6.15-13.64 12.86 0 4.3 2.31 7.8 7.27 10.89zm3.62 1.88c8.25 3.19 11.22 6.7 11.22 10.34 0 4.18-3.3 7.36-8.58 7.36-5.6 0-9.36-3.73-9.36-8.46 0-4.07 2.53-7.25 6.72-9.24zm4.52-5.17c-7.16-2.97-9.36-5.5-9.36-9.13 0-3.42 2.86-6.5 7.15-6.5 4.29 0 7.7 3.65 7.7 7.7 0 3.41-1.65 5.84-5.5 7.93zm0 0"/></symbol><symbol overflow="visible" id="85915052d"><path d="M29.16.44c4.39 0 7.14-2.1 7.14-5.61 0-2.2-1.64-4.28-2.86-5.06l-.11.1c-.55 2.32-2.97 4.52-6.49 4.52-2.96 0-6.15-.76-9.25-1.66C26.3-16.5 30.47-26.3 30.47-33.1c0-8.8-6.16-14.84-14.08-14.84-7.81 0-13.1 5.04-13.1 8.47 0 .87.77 1.75 1.66 1.96 2.86-2.75 6.82-4.71 9.68-4.71 5.28 0 9.24 3.62 9.24 11.76 0 6.16-3.64 14.08-11.56 21.9-1.64-.45-3.3-.66-4.83-.66-3.18 0-6.04 1.75-6.04 4.39A4.68 4.68 0 005.94 0C8.36 0 11-.98 14.19-3.95c4.4 2.18 9.9 4.39 14.97 4.39zm0 0"/></symbol><symbol overflow="visible" id="85915052e"><path d="M13.1-47.08v1.53c-.22 10.02-4.2 22.24-9.26 27.17 0 1.11.46 2.32.79 2.75 2.07 2.32 8.25 3.76 14.62 3.76 3.4 0 6.38-.33 8.14-.9 0 0-.33 8.36-.33 11.33 0 1.44 1.2 1.88 2.75 1.88 2.75 0 4.4-.55 4.4-1.64 0-2.53-.34-5.28-.66-8.25-.22-2.43-.55-5.18-.55-10.13 1.2-4.3 2.53-10.12 2.53-11.55 0-2.09-1.87-3.85-4.08-3.85-1.97 0-3.4 5.17-3.73 16.28-2.31.76-5.4 1.32-9.78 1.32-2.88 0-6.83-.32-8.92-.89v-.1a37.34 37.34 0 0010.67-25.85c0-2.53-1.42-3.73-3.52-3.73-1.22 0-2.2.33-3.08.87zm0 0"/></symbol><symbol overflow="visible" id="85915052g"><path d="M50.6-10.02c1.32-.32 3.3-.54 6.71-.54 3.19 0 5.83.22 10 .22 3.97-.11 6.4-.88 6.4-3.52a3.3 3.3 0 00-.9-2.31c-1.1.33-2.75.65-6.81.65-2.97 0-4.52-.21-9.13-.21-4.73 0-6.71 1.21-6.71 3.86 0 .65.22 1.42.43 1.85zM2.2-41.03c1.64-.77 3.2-1.31 4.61-1.31 1.88 0 3.2 1.42 3.2 6.04 0 9.13-1.98 19.14-1.98 26.5 0 7.16 2.1 10.24 4.74 10.24 1.75 0 3.62-1.42 3.62-3.4 0-2.65-1.1-5.95-1.1-10.46 1.32-13.2 9.35-27.94 14.52-27.94 2.2 0 4.28 2.1 4.28 8.47 0 8.8-1.3 14.62-1.3 22.22S36.51.43 40.04.43c3.4 0 7.14-3.18 7.14-5.38 0-.77-.33-1.42-.88-1.86a7.52 7.52 0 01-4.3 1.75c-1.63 0-2.63-1.53-2.63-6.7 0-7.49 1.32-14.3 1.32-21.57 0-9.12-3.75-14.62-9.8-14.62-5.93 0-10.45 4.5-15.38 20.34h-.22c.54-4.3.76-6.27.76-11.55 0-5.6-2.97-8.8-7.04-8.8-4.18 0-8.14 2.76-8.14 4.94 0 .79.56 1.55 1.32 1.99zm59.61 20.58c7.16 0 13.1-6.28 13.1-15.08 0-8.03-5.28-13.2-11.77-13.2-7.27 0-13.2 6.39-13.2 15.18 0 7.82 5.39 13.1 11.87 13.1zm.9-23.11c3.18 0 6.15 2.42 6.15 8.25 0 6.6-3.19 9.58-6.6 9.58-3.07 0-6.28-2.32-6.28-8.14 0-6.61 3.2-9.7 6.72-9.7zm0 0"/></symbol><symbol overflow="visible" id="85915052h"><path d="M6.6-47.73c.56 2.96 1.1 8.35 1.1 11.21 0 3.52-.54 8.8-1.22 11a3.4 3.4 0 002.2 2.86c2.87-1.32 5.95-2.42 8.8-2.42 5.61 0 10.46 3.52 10.46 9.9 0 5.95-3.96 10.12-12.2 10.12-4.96 0-8.58-1.42-10.9-3.08-.54.33-.89.87-.89 1.98 0 2.97 4.63 6.6 13.1 6.6C28.7.44 35.09-7.05 35.09-15.3c0-9.12-7.37-14.51-14.53-14.51-3.51 0-6.81 1.33-9.01 2.42l-.11-.11c1-2.64 1.44-9.8 1-13.42 2.62.55 7.8.87 10.33.87 7.8 0 10.89-2.51 10.89-5.6a3.2 3.2 0 00-.99-2.3h-.33c-1.43.87-5.5 1.64-9.9 1.64-4.28 0-12.1-.77-15.63-1.64zm0 0"/></symbol><symbol overflow="visible" id="85915052c"><path d="M30.8-25.08a5.7 5.7 0 01-2.64.88c-1.1 0-1.86-1.86-1.86-7.6 0-2.51.1-5.04.32-7.03 1.43-3.3 2.32-5.28 2.32-6.72 0-1.53-1.77-3.08-3.42-3.08-1.54 0-2.97 1.55-3.74 5.29h-.1a7.44 7.44 0 00-6.73-3.96c-6.15 0-12.2 6.6-12.2 15.61 0 7.38 4.3 12.33 9.8 12.33 3.73 0 6.6-2.53 8.68-6.48h.33c.55 4.71 2.86 6.48 5.5 6.48 2.97 0 4.63-2.2 4.63-3.73 0-1-.24-1.44-.9-1.99zM21.02-38.6l-.33 6.05c-1.66 5.17-4.52 7.92-7.38 7.92-2.53 0-4.51-1.98-4.51-7.7 0-6.27 3.3-9.78 6.5-9.78 2.3 0 4.39 1.09 5.72 3.51zm0 0"/></symbol><symbol overflow="visible" id="85915052f"><path d="M14.3-19.36c7.15 0 13.1-6.27 13.1-15.08 0-8.01-5.3-13.19-11.77-13.19-7.27 0-13.2 6.38-13.2 15.18 0 7.8 5.38 13.1 11.87 13.1zm.89-23.1c3.19 0 6.15 2.41 6.15 8.26 0 6.6-3.18 9.56-6.6 9.56-3.08 0-6.27-2.31-6.27-8.14 0-6.6 3.19-9.67 6.72-9.67zm0 0"/></symbol><symbol overflow="visible" id="85915052i"><path d="M3.83 0v-5.95H6.2v-.82H.45v.82h2.4V0zm0 0"/></symbol><symbol overflow="visible" id="85915052j"><path d="M5.75-2.23v-.43c0-1.6-.9-2.51-2.42-2.51S.87-4.16.87-2.48c0 1.71.91 2.62 2.5 2.62 1.43 0 2.07-.56 2.29-1.52l-.9-.09c-.18.61-.59.9-1.35.9-.94 0-1.52-.54-1.58-1.66zm-2.4-2.2c.93 0 1.43.5 1.48 1.55H1.84c.08-1.07.6-1.56 1.5-1.56zm0 0"/></symbol><symbol overflow="visible" id="85915052k"><path d="M1.83 0l1.42-2h.06l1.46 2H5.8L4-2.53l1.78-2.49H4.8L3.42-3.08h-.08l-1.4-1.94H.89l1.78 2.49L.84 0zm0 0"/></symbol><symbol overflow="visible" id="85915052l"><path d="M5.52-4.25v-.77H3.17v-1.56h-.81l-.14 1.56H.75v.77h1.47v2.4c0 1.3.48 1.94 1.84 1.94C4.6.1 5.14 0 5.55-.14L5.4-.91c-.32.13-.72.2-1.13.2-.8 0-1.1-.37-1.1-1.23v-2.31zm0 0"/></symbol><symbol overflow="visible" id="85915052m"><path d="M3.33-3.42c.47 0 .8-.27.8-.8 0-.51-.33-.8-.8-.8-.47 0-.8.29-.8.8 0 .53.33.8.8.8zm0 3.5c.47 0 .8-.27.8-.78 0-.53-.33-.82-.8-.82-.47 0-.8.29-.8.82 0 .51.33.78.8.78zm0 0"/></symbol><symbol overflow="visible" id="85915052o"><path d="M4.22-6.77h-.86l-2.03.7v.87c.64-.17 1.26-.38 1.89-.55v4.9H1.03V0h4.9v-.86H4.21zm0 0"/></symbol><symbol overflow="visible" id="85915052p"><path d="M3.33.16c1.69 0 2.69-.74 2.69-1.94 0-1.05-.8-1.58-1.43-1.72v-.05c.5-.14 1.2-.58 1.2-1.56 0-1.12-.95-1.81-2.46-1.81-1.52 0-2.46.69-2.46 1.81 0 .97.68 1.4 1.18 1.56v.05c-.6.14-1.4.64-1.4 1.72 0 1.2 1 1.94 2.68 1.94zm0-4.04c-.97 0-1.49-.43-1.49-1.12 0-.78.52-1.1 1.49-1.1.95 0 1.48.32 1.48 1.1 0 .69-.53 1.13-1.48 1.13zm0 3.24c-1.1 0-1.7-.42-1.7-1.25 0-.78.6-1.2 1.7-1.2s1.7.42 1.7 1.2c0 .83-.6 1.25-1.7 1.25zm0 0"/></symbol><symbol overflow="visible" id="85915052q"><path d="M2.83.14c.94 0 1.5-.39 1.81-.95h.08l.1.81h.76v-3.38c0-1.23-.69-1.8-2.13-1.8-1.43 0-2.03.65-2.18 1.6l.93.1c.11-.6.44-.93 1.22-.93.85 0 1.22.32 1.22 1.04v.34l-1.81.2C1.6-2.7 1.1-2.17 1.1-1.28c0 .92.64 1.42 1.72 1.42zm.25-.77c-.67 0-1.02-.28-1.02-.74 0-.44.28-.72 1-.82l1.58-.19v.41c0 .8-.6 1.34-1.56 1.34zm0 0"/></symbol><symbol overflow="visible" id="85915052r"><path d="M5.67 0v-.86H2.14V-.9L3.6-2c1.05-.83 2-1.68 2-2.91 0-1.19-.73-1.99-2.26-1.99-1.66 0-2.3 1.02-2.44 2.33l1 .08c.1-.92.42-1.58 1.44-1.58.87 0 1.26.44 1.26 1.24 0 .9-.8 1.53-1.96 2.53L.83-.81V0zm0 0"/></symbol><symbol overflow="visible" id="85915052s"><path d="M5.1 0v-1.47H6v-.81h-.9v-4.49H3.8L.48-2.23v.76h3.66V0zM1.5-2.33l2.6-3.53h.04v3.58H1.5zm0 0"/></symbol><symbol overflow="visible" id="85915052t"><path d="M3.33.14c1.62 0 2.5-.95 2.5-2.66 0-1.68-.88-2.64-2.5-2.64-1.63 0-2.5.96-2.5 2.64 0 1.7.87 2.66 2.5 2.66zm0-.77c-1.06 0-1.52-.6-1.52-1.89 0-1.28.46-1.87 1.52-1.87 1.08 0 1.53.6 1.53 1.87 0 1.29-.45 1.9-1.53 1.9zm0 0"/></symbol><symbol overflow="visible" id="85915052u"><path d="M1.84 0v-4.48l-.06-.99h.1L4.46 0h1.28v-6.77h-.92v4.4l.06 1.03h-.1L2.21-6.77H.92V0zm0 0"/></symbol><symbol overflow="visible" id="85915052v"><path d="M3.42.14c1.55 0 2.44-.84 2.44-2.33 0-1.45-.83-2.22-2.14-2.22-.75 0-1.28.27-1.67.72H2l.31-2.22h3.11v-.86H1.53l-.45 3.93h.81c.3-.36.9-.79 1.58-.79.92 0 1.44.43 1.44 1.47 0 .99-.54 1.5-1.49 1.5-.83 0-1.28-.32-1.5-1.01l-.95.1C1.07-.46 2 .13 3.42.13zm0 0"/></symbol><symbol overflow="visible" id="85915052w"><path d="M5.95-6.77H1.1V0h.99v-2.92H5.3v-.77H2.08v-2.26h3.87zm0 0"/></symbol><symbol overflow="visible" id="85915052x"><path d="M2.73.14c.9 0 1.43-.45 1.74-1.08h.06l.13.94h.8v-5.02h-.94v2.7c0 .98-.57 1.62-1.46 1.62-.75 0-1.1-.4-1.1-1.22v-3.1h-.93v3.32c0 1.17.55 1.84 1.7 1.84zm0 0"/></symbol><symbol overflow="visible" id="85915052y"><path d="M5.08-5.16c-.94 0-1.58.43-1.9 1.3h-.09l-.07-1.16H1.05v.77h1.1v3.48H.96V0h3.96v-.77H3.1v-1.46c0-1.36.6-2.05 1.83-2.05.4 0 .76.08 1.1.17l.15-.87c-.33-.11-.7-.18-1.11-.18zm0 0"/></symbol><symbol overflow="visible" id="85915052z"><path d="M3.33.14c1.9 0 2.76-1.27 2.76-3.52 0-2.26-.86-3.53-2.76-3.53S.58-5.64.58-3.37c0 2.25.86 3.51 2.75 3.51zM3.3-.67c-1.25 0-1.73-.95-1.73-2.7 0-1.77.5-2.72 1.75-2.72s1.75.95 1.75 2.71c0 1.75-.5 2.7-1.77 2.7zm0 0"/></symbol><symbol overflow="visible" id="85915052A"><path d="M2.84.14C3.8.14 4.33-.26 4.6-.9h.07L4.8 0h.76v-7.14h-.95v2.95h-.08c-.28-.6-.86-.97-1.67-.97-1.48 0-2.27.99-2.27 2.64C.6-.84 1.36.14 2.84.14zm.22-.8c-.98 0-1.48-.59-1.48-1.84s.5-1.86 1.48-1.86c1.13 0 1.58.8 1.58 1.86S4.2-.66 3.06-.66zm0 0"/></symbol><symbol overflow="visible" id="85915052B"><path d="M3.58-5.81c.42 0 .72-.22.72-.67 0-.44-.3-.68-.72-.68-.44 0-.72.24-.72.68 0 .45.28.67.72.67zm.5.8H1.52v.76h1.6v3.48h-1.8V0h4.46v-.77h-1.7zm0 0"/></symbol><symbol overflow="visible" id="85915052C"><path d="M2.16 0v-2.67c0-.99.59-1.63 1.46-1.63.74 0 1.07.38 1.07 1.22V0h.95v-3.31c0-1.2-.56-1.85-1.67-1.85-.92 0-1.49.46-1.77 1.08h-.06l-.12-.94H1.2V0zm0 0"/></symbol><symbol overflow="visible" id="85915052D"><path d="M3.92-7.14H1.36v.76h1.6v5.61H1.15V0H5.7v-.77H3.92zm0 0"/></symbol><symbol overflow="visible" id="85915052E"><path d="M3.36.16c1.4 0 2.2-.6 2.2-1.57 0-.89-.54-1.22-1.47-1.39L3-3c-.67-.14-.86-.33-.86-.73 0-.5.4-.74 1.17-.74.83 0 1.19.27 1.27.8l.9-.05c-.12-1-.8-1.47-2.17-1.47-1.34 0-2.1.53-2.1 1.5 0 .81.45 1.22 1.52 1.44l1.04.2c.56.11.87.24.87.72 0 .52-.45.78-1.28.78-.95 0-1.36-.28-1.42-.87l-.9.06C1.07-.36 1.8.16 3.35.16zm0 0"/></symbol><symbol overflow="visible" id="85915052F"><path d="M1.45-2.95c0 2.56 1.08 4.37 3.67 4.84l.11-.67C3.28.86 2.43-.75 2.43-2.95s.85-3.82 2.8-4.16l-.1-.69c-2.6.49-3.68 2.3-3.68 4.85zm0 0"/></symbol><symbol overflow="visible" id="85915052G"><path d="M1.45-7.1c1.96.33 2.8 1.94 2.8 4.15 0 2.2-.84 3.8-2.8 4.17l.11.67c2.58-.47 3.67-2.28 3.67-4.84 0-2.55-1.09-4.36-3.67-4.85zm0 0"/></symbol></defs><use xlink:href="#85915052a" x="106.73" y="141" fill="#515151"/><use xlink:href="#85915052b" x="138.63" y="141" fill="#515151"/><use xlink:href="#85915052c" x="176.03" y="141" fill="#fff"/><use xlink:href="#85915052d" x="221.46" y="141" fill="#515151"/><use xlink:href="#85915052e" x="258.31" y="141" fill="#515151"/><use xlink:href="#85915052f" x="297.69" y="141" fill="#fff"/><use xlink:href="#85915052g" x="340.7" y="141" fill="#fff"/><use xlink:href="#85915052h" x="417.48" y="141" fill="#515151"/><use xlink:href="#85915052d" x="455.32" y="141" fill="#515151"/><g fill="#fff"><use xlink:href="#85915052i" x="240" y="252"/><use xlink:href="#85915052j" x="246.667" y="252"/><use xlink:href="#85915052k" x="253.334" y="252"/><use xlink:href="#85915052l" x="260.001" y="252"/><use xlink:href="#85915052m" x="266.668" y="252"/><use xlink:href="#85915052n" x="273.335" y="252"/><use xlink:href="#85915052o" x="280.002" y="252"/><use xlink:href="#85915052p" x="286.669" y="252"/><use xlink:href="#85915052q" x="293.336" y="252"/><use xlink:href="#85915052n" x="300.003" y="252"/><use xlink:href="#85915052r" x="306.67" y="252"/><use xlink:href="#85915052s" x="313.337" y="252"/><use xlink:href="#85915052t" x="320.004" y="252"/><use xlink:href="#85915052n" x="326.671" y="252"/><use xlink:href="#85915052u" x="333.338" y="252"/><use xlink:href="#85915052t" x="340.005" y="252"/><use xlink:href="#85915052v" x="346.672" y="252"/><use xlink:href="#85915052r" x="353.339" y="252"/></g><g fill="#fff"><use xlink:href="#85915052w" x="220" y="266"/><use xlink:href="#85915052j" x="226.667" y="266"/><use xlink:href="#85915052q" x="233.334" y="266"/><use xlink:href="#85915052l" x="240.001" y="266"/><use xlink:href="#85915052x" x="246.668" y="266"/><use xlink:href="#85915052y" x="253.335" y="266"/><use xlink:href="#85915052j" x="260.002" y="266"/><use xlink:href="#85915052m" x="266.669" y="266"/><use xlink:href="#85915052n" x="273.336" y="266"/><use xlink:href="#85915052z" x="280.003" y="266"/><use xlink:href="#85915052y" x="286.67" y="266"/><use xlink:href="#85915052A" x="293.337" y="266"/><use xlink:href="#85915052B" x="300.004" y="266"/><use xlink:href="#85915052C" x="306.671" y="266"/><use xlink:href="#85915052q" x="313.338" y="266"/><use xlink:href="#85915052D" x="320.005" y="266"/><use xlink:href="#85915052E" x="326.672" y="266"/><use xlink:href="#85915052n" x="333.339" y="266"/><use xlink:href="#85915052F" x="340.006" y="266"/><use xlink:href="#85915052t" x="346.673" y="266"/><use xlink:href="#85915052y" x="353.34" y="266"/><use xlink:href="#85915052A" x="360.007" y="266"/><use xlink:href="#85915052C" x="366.674" y="266"/><use xlink:href="#85915052G" x="373.341" y="266"/></g></svg>