<?xml version='1.0' encoding='UTF-8'?>
<svg xmlns="http://www.w3.org/2000/svg" xmlns:xlink="http://www.w3.org/1999/xlink" width="600px" height="300px" viewBox="0 0 600 300" x="0px" y="0px" enable-background="new 0 0 600 300"><defs><symbol overflow="visible" id="75729b74a"><path d="M11.55-26.63c.1-3.73.43-5.71 1.22-9.34 2.53-5.17 4.39-10.12 4.39-12.1 0-2.3-3.2-5.16-5.29-5.16-1.85 0-2.85 1.42-3.84 5.6-1.65 7.15-3.08 19.47-3.08 29.36C4.95-5.28 10.23.43 17.81.43c9.36 0 17.61-7.8 17.61-19.9 0-9.8-5.83-15.3-11.98-15.3-4.63 0-8.7 2.75-11.78 8.15zm.1 5.4c2.76-4.4 6.4-7.47 9.91-7.47 3.96 0 6.7 3.84 6.7 9.89 0 9.12-4.39 13.75-9.34 13.75-4.84 0-7.37-3.19-7.37-11.55 0-2.31 0-3.73.1-4.62zm0 0"/></symbol><symbol overflow="visible" id="75729b74b"><path d="M38.6-5.83c-.87.44-1.87.77-3.29.77-1.76 0-2.75-1.99-2.97-8.8-.1-3.62.22-8.36.88-10.89 1.98-4.3 2.42-6.38 2.42-8.14 0-1.66-2.1-3.52-3.73-3.52-1.88 0-3.54 2.2-4.63 8.25h-.1c-1.77-4.18-5.07-6.6-8.7-6.6-7.92 0-15.18 8.7-15.18 19.92C3.3-5.5 8.8.44 15.3.44c5.39 0 9.23-4.07 11.22-10.46h.1c.44 7.49 3.3 10.46 6.6 10.46 3.51 0 6.16-2.53 6.16-4.4 0-.77-.22-1.43-.77-1.87zm-12.08-17.6l-.11 4.84c-1.99 8.46-5.85 12.98-9.7 12.98-3.62 0-6.26-3.08-6.26-10.12 0-8.36 3.85-12.97 8.36-12.97 2.64 0 5.83 1.53 7.7 5.26zm0 0"/></symbol><symbol overflow="visible" id="75729b74d"><path d="M29.48-8.47C27.5-6.8 24.53-5.6 20.45-5.6c-6.92 0-10.54-3.62-10.54-11.22a20.48 20.48 0 009.12 2.42c6.81 0 11.33-4.62 11.33-10.67 0-6.26-4.73-10.01-10.67-10.01-9.9 0-16.94 9.25-16.94 18.7C2.75-5.72 9.45.44 18.38.44c6.8 0 11.98-4.28 11.98-7.25 0-.78-.33-1.33-.88-1.66zM10.12-19.8c.88-6.5 4.61-10.34 8.91-10.34 2.75 0 5.28 2.1 5.28 5.17 0 3.63-2.31 6.16-7.26 6.16-2.86 0-4.96-.44-6.93-.99zm0 0"/></symbol><symbol overflow="visible" id="75729b74e"><path d="M38.6-5.83c-.87.44-1.87.77-3.29.77-1.76 0-2.97-1.99-2.97-8.8 0-7.81 1.1-18.27 1.64-21.89 2.2-6.16 3.2-10.45 3.2-12.31 0-2.31-3.2-5.17-5.27-5.17-1.88 0-2.86.87-3.54 5.17-.65 4.6-.98 10.22-.98 19.9h-.1c-2.32-4.3-5.18-6.6-9.24-6.6-7.49 0-14.75 8.7-14.75 19.92C3.3-5.72 8.47.44 15.3.44c5.39 0 9.23-4.07 11.22-10.46h.1c.44 7.49 3.3 10.46 6.6 10.46 3.51 0 6.16-2.53 6.16-4.4 0-.77-.22-1.43-.77-1.87zM26.85-22.66l-.32 4.07c-2.2 8.8-5.96 12.98-9.8 12.98-3.63 0-6.27-3.08-6.27-10.12 0-8.36 3.85-12.97 8.25-12.97 2.86 0 5.94 1.86 8.14 6.04zm0 0"/></symbol><symbol overflow="visible" id="75729b74g"><path d="M17.38.44c9.03 0 16.39-7.92 16.39-18.92 0-9.9-6.6-16.61-14.63-16.61-9.02 0-16.39 8.14-16.39 19.14C2.75-6.05 9.35.44 17.38.44zm1.21-30.03c4.4 0 8.04 3.75 8.04 11.43 0 8.25-3.75 13.1-8.7 13.1-4.4 0-8.02-3.52-8.02-11.22 0-8.25 3.73-13.31 8.68-13.31zm0 0"/></symbol><symbol overflow="visible" id="75729b74i"><path d="M24.75-24.31c2.86-.33 4.4-1.99 4.4-3.85 0-3.53-3.96-6.93-10-6.93-8.8 0-16.4 8.9-16.4 19.14C2.75-6.05 8.8.44 17.48.44c6.83 0 11.22-4.17 11.22-6.92 0-1-.32-1.55-.87-1.88a14.15 14.15 0 01-8.47 2.75C13.75-5.6 9.9-9.34 9.9-16.5c0-8.69 3.95-13.64 8.68-13.64 2.75 0 4.96 2.31 6.16 5.83zm0 0"/></symbol><symbol overflow="visible" id="75729b74c"><path d="M-4.73 13.53c-1.2.33-1.86 1.1-1.86 2.42 0 2.2 3.18 5.18 7.36 5.18 6.17 0 10.78-4.3 12.21-11.22 1.32-6.18 1.54-16.5 1.64-38.18h13.43c0 15.96 0 26.72-.99 33.22-1 6.38-2.53 8.7-5.83 8.7-2.2 0-3.64-.88-4.62-2.43-1.2.33-1.88 1.1-1.88 2.42 0 2.64 2.86 4.95 6.61 4.95 5.61 0 9.79-3.96 11.33-11.21 1.31-6.18 1.88-13.97 1.99-35.65 3.3 0 7.14-.21 8.8-.67.76-.98 1.3-3.18 1.2-5.15l-.33-.22c-2.1.33-5.61.76-9.56.76.1-10.12 4.17-14.3 8.9-14.3 2.75 0 5.5 1.1 7.49 2.65a145.37 145.37 0 00-2.97 28.04c0 14.08 3.51 17.6 9.45 17.6 3.73 0 7.16-3.08 7.16-5.72 0-.99-.57-1.88-1.22-2.2a6.94 6.94 0 01-4.85 1.87c-2.42 0-3.95-2.1-3.95-11.87 0-7.7.44-14.86 1.2-18.49 2.54-5.17 4.41-10.23 4.41-12.1 0-2.3-2.86-5.16-4.95-5.16-1.64 0-2.42.87-3.19 3.73a13.32 13.32 0 00-9.02-3.73c-5.17 0-9.8 3.07-12.54 8.57-1.1-2.42-4.74-5.17-8.9-5.17-7.82 0-12.77 5.5-13.65 16.17-2.31 0-4.3-.1-5.39-.32-.55.43-.77 1.09-.77 1.75 0 1.32 2.54 3.64 6.05 3.85 0 15.94 0 29.36-.98 35.86-.78 5.07-2.53 8.7-6.72 8.7-2.64 0-4.06-1.12-5.06-2.65zm19.46-47.08c.33-7.04 2.75-10.89 7.49-10.89 2.64 0 5.39 1.75 7.05 3.4-.68 2.21-1 4.74-1.11 7.5zm0 0"/></symbol><symbol overflow="visible" id="75729b74h"><path d="M51.38-44.44c1.09-.54 1.64-1 1.64-2.31 0-2.64-4.29-6.48-10.68-6.48-5.39 0-9.67 2.64-11.98 7.92a10.86 10.86 0 00-8.58-4.52c-7.81 0-12.76 5.5-13.64 16.17-2.31 0-4.3-.1-5.39-.32-.55.43-.77 1.09-.77 1.75 0 1.32 2.54 3.64 6.05 3.85 0 15.94 0 29.36-.98 35.86-.78 5.07-2.53 8.7-6.72 8.7-2.64 0-4.06-1.12-5.06-2.65-1.2.33-1.86 1.1-1.86 2.42 0 2.2 3.18 5.18 7.36 5.18 6.17 0 10.78-4.3 12.21-11.22 1.32-6.18 1.54-16.5 1.64-38.18h13.43c0 15.96 0 26.72-.99 33.22-1 6.38-2.53 8.7-5.83 8.7-2.2 0-3.64-.88-4.62-2.43-1.2.33-1.88 1.1-1.88 2.42 0 2.64 2.86 4.95 6.61 4.95 5.61 0 9.79-3.96 11.33-11.21 1.31-6.18 1.88-13.97 1.99-35.65 4.93 0 8.36-.67 10.78-.67 1.97 0 2.75 1.33 2.75 4.3 0 8.14-1 11.33-1 15.62 0 5.94 2.53 9.46 7.37 9.46 3.19 0 6.16-2.53 6.16-4.4 0-.77-.22-1.43-.77-1.87-.89.44-1.98.77-3.3.77-1.98 0-2.96-1.32-2.96-5.17 0-4.61 1.1-14.74 1.1-15.07 0-5.17-2.76-9.01-8.04-9.01-3.63 0-7.27.76-11.98.76 0-10.23 2.75-14.3 7.46-14.3 3.54 0 6.18 1.2 9.15 3.41zm-23.22 10.9H14.73c.33-7.05 2.75-10.9 7.49-10.9 2.53 0 5.17 1.53 6.83 3.08-.57 2.31-.9 4.95-.9 7.81zm0 0"/></symbol><symbol overflow="visible" id="75729b74j"><path d="M3.83 0v-5.95H6.2v-.82H.45v.82h2.4V0zm0 0"/></symbol><symbol overflow="visible" id="75729b74k"><path d="M5.75-2.23v-.43c0-1.6-.9-2.51-2.42-2.51S.87-4.16.87-2.48c0 1.71.91 2.62 2.5 2.62 1.43 0 2.07-.56 2.29-1.52l-.9-.09c-.18.61-.59.9-1.35.9-.94 0-1.52-.54-1.58-1.66zm-2.4-2.2c.93 0 1.43.5 1.48 1.55H1.84c.08-1.07.6-1.56 1.5-1.56zm0 0"/></symbol><symbol overflow="visible" id="75729b74l"><path d="M1.83 0l1.42-2h.06l1.46 2H5.8L4-2.53l1.78-2.49H4.8L3.42-3.08h-.08l-1.4-1.94H.89l1.78 2.49L.84 0zm0 0"/></symbol><symbol overflow="visible" id="75729b74m"><path d="M5.52-4.25v-.77H3.17v-1.56h-.81l-.14 1.56H.75v.77h1.47v2.4c0 1.3.48 1.94 1.84 1.94C4.6.1 5.14 0 5.55-.14L5.4-.91c-.32.13-.72.2-1.13.2-.8 0-1.1-.37-1.1-1.23v-2.31zm0 0"/></symbol><symbol overflow="visible" id="75729b74n"><path d="M3.33-3.42c.47 0 .8-.27.8-.8 0-.51-.33-.8-.8-.8-.47 0-.8.29-.8.8 0 .53.33.8.8.8zm0 3.5c.47 0 .8-.27.8-.78 0-.53-.33-.82-.8-.82-.47 0-.8.29-.8.82 0 .51.33.78.8.78zm0 0"/></symbol><symbol overflow="visible" id="75729b74p"><path d="M3.9.14c1.48 0 2.18-.98 2.18-2.64 0-1.67-.7-2.66-2.17-2.66-.91 0-1.49.41-1.79 1h-.06v-2.98h-.95V0h.81l.11-.9h.06c.29.63.82 1.04 1.82 1.04zm-.32-.8c-1.08 0-1.55-.8-1.55-1.84 0-1.06.47-1.86 1.55-1.86 1.1 0 1.51.61 1.51 1.86S4.64-.66 3.58-.66zm0 0"/></symbol><symbol overflow="visible" id="75729b74q"><path d="M2.83.14c.94 0 1.5-.39 1.81-.95h.08l.1.81h.76v-3.38c0-1.23-.69-1.8-2.13-1.8-1.43 0-2.03.65-2.18 1.6l.93.1c.11-.6.44-.93 1.22-.93.85 0 1.22.32 1.22 1.04v.34l-1.81.2C1.6-2.7 1.1-2.17 1.1-1.28c0 .92.64 1.42 1.72 1.42zm.25-.77c-.67 0-1.02-.28-1.02-.74 0-.44.28-.72 1-.82l1.58-.19v.41c0 .8-.6 1.34-1.56 1.34zm0 0"/></symbol><symbol overflow="visible" id="75729b74r"><path d="M4.63-6.5c.45 0 .98.08 1.39.2l.2-.72a5.3 5.3 0 00-1.64-.26c-1.52 0-2.16.56-2.16 1.87v.4H.9v.76h1.53V0h.94v-4.25h2.53v-.77H3.36v-.3c0-.84.33-1.18 1.27-1.18zm0 0"/></symbol><symbol overflow="visible" id="75729b74s"><path d="M3.92-7.14H1.36v.76h1.6v5.61H1.15V0H5.7v-.77H3.92zm0 0"/></symbol><symbol overflow="visible" id="75729b74t"><path d="M2.84.14C3.8.14 4.33-.26 4.6-.9h.07L4.8 0h.76v-7.14h-.95v2.95h-.08c-.28-.6-.86-.97-1.67-.97-1.48 0-2.27.99-2.27 2.64C.6-.84 1.36.14 2.84.14zm.22-.8c-.98 0-1.48-.59-1.48-1.84s.5-1.86 1.48-1.86c1.13 0 1.58.8 1.58 1.86S4.2-.66 3.06-.66zm0 0"/></symbol><symbol overflow="visible" id="75729b74u"><path d="M3.33.14c1.62 0 2.5-.95 2.5-2.66 0-1.68-.88-2.64-2.5-2.64-1.63 0-2.5.96-2.5 2.64 0 1.7.87 2.66 2.5 2.66zm0-.77c-1.06 0-1.52-.6-1.52-1.89 0-1.28.46-1.87 1.52-1.87 1.08 0 1.53.6 1.53 1.87 0 1.29-.45 1.9-1.53 1.9zm0 0"/></symbol><symbol overflow="visible" id="75729b74v"><path d="M3.58-5.81c.42 0 .72-.22.72-.67 0-.44-.3-.68-.72-.68-.44 0-.72.24-.72.68 0 .45.28.67.72.67zm.5.8H1.52v.76h1.6v3.48h-1.8V0h4.46v-.77h-1.7zm0 0"/></symbol><symbol overflow="visible" id="75729b74w"><path d="M3.34.14c1.43 0 2.13-.66 2.25-1.78l-.89-.1c-.1.7-.5 1.08-1.34 1.08-1.03 0-1.52-.64-1.52-1.84 0-1.23.47-1.86 1.52-1.86.84 0 1.23.36 1.34 1.08l.9-.1c-.13-1.09-.82-1.78-2.26-1.78-1.56 0-2.46.97-2.46 2.66 0 1.66.9 2.64 2.46 2.64zm0 0"/></symbol><symbol overflow="visible" id="75729b74x"><path d="M5.95-6.77H1.1V0h.99v-2.92H5.3v-.77H2.08v-2.26h3.87zm0 0"/></symbol><symbol overflow="visible" id="75729b74y"><path d="M2.73.14c.9 0 1.43-.45 1.74-1.08h.06l.13.94h.8v-5.02h-.94v2.7c0 .98-.57 1.62-1.46 1.62-.75 0-1.1-.4-1.1-1.22v-3.1h-.93v3.32c0 1.17.55 1.84 1.7 1.84zm0 0"/></symbol><symbol overflow="visible" id="75729b74z"><path d="M5.08-5.16c-.94 0-1.58.43-1.9 1.3h-.09l-.07-1.16H1.05v.77h1.1v3.48H.96V0h3.96v-.77H3.1v-1.46c0-1.36.6-2.05 1.83-2.05.4 0 .76.08 1.1.17l.15-.87c-.33-.11-.7-.18-1.11-.18zm0 0"/></symbol><symbol overflow="visible" id="75729b74A"><path d="M3.42.14c1.61 0 2.56-.75 2.56-2 0-1.1-.67-1.6-1.95-1.86l-.97-.2c-.87-.17-1.23-.49-1.23-1.11 0-.7.54-1.11 1.5-1.11 1.06 0 1.51.34 1.69 1.23l.9-.09c-.17-1.28-.98-1.9-2.6-1.9C1.79-6.9.9-6.18.9-4.98c0 1.06.66 1.66 1.88 1.9l1.01.2c.85.17 1.25.4 1.25 1.09 0 .73-.6 1.16-1.6 1.16-1.07 0-1.66-.4-1.8-1.24l-.94.1C.83-.53 1.75.13 3.42.13zm0 0"/></symbol><symbol overflow="visible" id="75729b74B"><path d="M2.16 0v-2.67c0-.99.59-1.63 1.46-1.63.74 0 1.07.38 1.07 1.22V0h.95v-3.31c0-1.2-.56-1.85-1.67-1.85-.92 0-1.49.46-1.77 1.08h-.06l-.12-.94H1.2V0zm0 0"/></symbol><symbol overflow="visible" id="75729b74C"><path d="M3.16 2.03c1.67 0 2.4-.86 2.4-2.51v-4.54h-.81l-.13.91h-.06c-.26-.58-.8-1.05-1.73-1.05-1.42 0-2.24 1-2.24 2.52 0 1.6.75 2.56 2.2 2.56.94 0 1.5-.5 1.77-1.03h.05v.72c0 1.17-.42 1.67-1.45 1.67-.93 0-1.3-.34-1.41-.89L.8.5c.12.96.87 1.54 2.36 1.54zM3.06-.8c-.98 0-1.48-.57-1.48-1.82 0-1.13.5-1.75 1.48-1.75 1.06 0 1.58.76 1.58 1.75 0 .95-.56 1.82-1.58 1.82zm0 0"/></symbol><symbol overflow="visible" id="75729b74D"><path d="M3.36.16c1.4 0 2.2-.6 2.2-1.57 0-.89-.54-1.22-1.47-1.39L3-3c-.67-.14-.86-.33-.86-.73 0-.5.4-.74 1.17-.74.83 0 1.19.27 1.27.8l.9-.05c-.12-1-.8-1.47-2.17-1.47-1.34 0-2.1.53-2.1 1.5 0 .81.45 1.22 1.52 1.44l1.04.2c.56.11.87.24.87.72 0 .52-.45.78-1.28.78-.95 0-1.36-.28-1.42-.87l-.9.06C1.07-.36 1.8.16 3.35.16zm0 0"/></symbol><symbol overflow="visible" id="75729b74E"><path d="M1.45-2.95c0 2.56 1.08 4.37 3.67 4.84l.11-.67C3.28.86 2.43-.75 2.43-2.95s.85-3.82 2.8-4.16l-.1-.69c-2.6.49-3.68 2.3-3.68 4.85zm0 0"/></symbol><symbol overflow="visible" id="75729b74F"><path d="M1.45-7.1c1.96.33 2.8 1.94 2.8 4.15 0 2.2-.84 3.8-2.8 4.17l.11.67c2.58-.47 3.67-2.28 3.67-4.84 0-2.55-1.09-4.36-3.67-4.85zm0 0"/></symbol></defs><g fill="#515151"><use xlink:href="#75729b74a" x="105.355" y="141"/><use xlink:href="#75729b74b" x="143.855" y="141"/></g><use xlink:href="#75729b74c" x="183.015" y="141" fill="#fff"/><g fill="#515151"><use xlink:href="#75729b74d" x="247.255" y="141"/><use xlink:href="#75729b74e" x="280.915" y="141"/><use xlink:href="#75729b74f" x="321.505" y="141"/><use xlink:href="#75729b74g" x="334.705" y="141"/></g><use xlink:href="#75729b74h" x="370.125" y="141" fill="#fff"/><g fill="#515151"><use xlink:href="#75729b74i" x="431.285" y="141"/><use xlink:href="#75729b74d" x="460.985" y="141"/></g><g fill="#fff"><use xlink:href="#75729b74j" x="233.3333" y="252"/><use xlink:href="#75729b74k" x="240.0003" y="252"/><use xlink:href="#75729b74l" x="246.6673" y="252"/><use xlink:href="#75729b74m" x="253.3343" y="252"/><use xlink:href="#75729b74n" x="260.0013" y="252"/><use xlink:href="#75729b74o" x="266.6683" y="252"/><use xlink:href="#75729b74p" x="273.3353" y="252"/><use xlink:href="#75729b74q" x="280.0023" y="252"/><use xlink:href="#75729b74r" x="286.6693" y="252"/><use xlink:href="#75729b74r" x="293.3363" y="252"/><use xlink:href="#75729b74s" x="300.0033" y="252"/><use xlink:href="#75729b74k" x="306.6703" y="252"/><use xlink:href="#75729b74t" x="313.3373" y="252"/><use xlink:href="#75729b74o" x="320.0043" y="252"/><use xlink:href="#75729b74u" x="326.6713" y="252"/><use xlink:href="#75729b74r" x="333.3383" y="252"/><use xlink:href="#75729b74r" x="340.0053" y="252"/><use xlink:href="#75729b74v" x="346.6723" y="252"/><use xlink:href="#75729b74w" x="353.3393" y="252"/><use xlink:href="#75729b74k" x="360.0063" y="252"/></g><g fill="#fff"><use xlink:href="#75729b74x" x="186.6667" y="266"/><use xlink:href="#75729b74k" x="193.3337" y="266"/><use xlink:href="#75729b74q" x="200.0007" y="266"/><use xlink:href="#75729b74m" x="206.6677" y="266"/><use xlink:href="#75729b74y" x="213.3347" y="266"/><use xlink:href="#75729b74z" x="220.0017" y="266"/><use xlink:href="#75729b74k" x="226.6687" y="266"/><use xlink:href="#75729b74n" x="233.3357" y="266"/><use xlink:href="#75729b74o" x="240.0027" y="266"/><use xlink:href="#75729b74A" x="246.6697" y="266"/><use xlink:href="#75729b74m" x="253.3367" y="266"/><use xlink:href="#75729b74q" x="260.0037" y="266"/><use xlink:href="#75729b74B" x="266.6707" y="266"/><use xlink:href="#75729b74t" x="273.3377" y="266"/><use xlink:href="#75729b74q" x="280.0047" y="266"/><use xlink:href="#75729b74z" x="286.6717" y="266"/><use xlink:href="#75729b74t" x="293.3387" y="266"/><use xlink:href="#75729b74o" x="300.0057" y="266"/><use xlink:href="#75729b74s" x="306.6727" y="266"/><use xlink:href="#75729b74v" x="313.3397" y="266"/><use xlink:href="#75729b74C" x="320.0067" y="266"/><use xlink:href="#75729b74q" x="326.6737" y="266"/><use xlink:href="#75729b74m" x="333.3407" y="266"/><use xlink:href="#75729b74y" x="340.0077" y="266"/><use xlink:href="#75729b74z" x="346.6747" y="266"/><use xlink:href="#75729b74k" x="353.3417" y="266"/><use xlink:href="#75729b74D" x="360.0087" y="266"/><use xlink:href="#75729b74o" x="366.6757" y="266"/><use xlink:href="#75729b74E" x="373.3427" y="266"/><use xlink:href="#75729b74s" x="380.0097" y="266"/><use xlink:href="#75729b74v" x="386.6767" y="266"/><use xlink:href="#75729b74C" x="393.3437" y="266"/><use xlink:href="#75729b74q" x="400.0107" y="266"/><use xlink:href="#75729b74F" x="406.6777" y="266"/></g></svg>