<?xml version='1.0' encoding='UTF-8'?>
<svg xmlns="http://www.w3.org/2000/svg" xmlns:xlink="http://www.w3.org/1999/xlink" width="600px" height="300px" viewBox="0 0 600 300" x="0px" y="0px" enable-background="new 0 0 600 300"><defs><symbol overflow="visible" id="6477a503a"><path d="M39.38-48.19c-1.76 1-6.16 1.88-12.76 1.88-8.14 0-12.65-1.2-17.82-1.2-4.07 0-6.6 2.63-6.6 4.82 0 1.11.33 1.88.99 2.75 2.2-.87 6.15-1.53 9.47-1.53 1.42 0 4.39.22 6.59.55-1.55 7.6-3.19 20.47-3.19 29.6 0 10.12 1.1 12.3 3.08 12.3 1.66 0 4.63-.76 5.4-1.96-.88-2.75-1.34-7.16-1.34-13.86 0-8.7 1-18.93 2.1-25.75h2.42c6.48 0 9.69-.44 11-1.2 1.44-.9 1.98-1.88 1.98-3.2 0-.88-.76-2.63-1.33-3.2zm0 0"/></symbol><symbol overflow="visible" id="6477a503b"><path d="M17.38.44c9.03 0 16.39-7.92 16.39-18.92 0-9.9-6.6-16.61-14.63-16.61-9.02 0-16.39 8.14-16.39 19.14C2.75-6.05 9.35.44 17.38.44zm1.21-30.03c4.4 0 8.04 3.75 8.04 11.43 0 8.25-3.75 13.1-8.7 13.1-4.4 0-8.02-3.52-8.02-11.22 0-8.25 3.73-13.31 8.68-13.31zm0 0"/></symbol><symbol overflow="visible" id="6477a503c"><path d="M1.77-28.38c1.2-.43 2.64-.78 3.84-.78 1.76 0 2.53 2.32 2.53 7.7 0 5.5-.98 11.34-.98 14.3 0 4.85 1.86 7.6 4.06 7.6 1.87 0 4.19-2.64 4.19-4.28 0-3.1-1.22-5.96-1.22-8.82 0-1.53.22-3.18.33-4.5 1.76-5.5 6.04-11 9.57-11 2.86 0 4.61 3.52 4.61 12.1-.54 2.53-1.2 6.15-1.2 8.9 0 4.85 1.31 7.6 3.52 7.6 1.87 0 4.18-2.64 4.18-4.28 0-1.44-1.33-7.16-1.33-13.86 1.66-4.96 6.61-10.46 10.02-10.46 2.53 0 3.73 1.97 3.73 6.82 0 4.51-.43 9.68-.43 12.32 0 6.27 3.19 9.46 7.15 9.46 3.52 0 6.16-2.53 6.16-4.4 0-.77-.22-1.43-.77-1.87-1.1.44-1.87.77-3.3.77-1.65 0-2.63-1.1-2.63-4.63 0-4.28.43-9.56.43-13.62 0-6.94-3.53-11.46-8.46-11.46-4.52 0-8.7 3.08-11.9 10.02h-.1c-.11-6.38-3.2-10.02-7.58-10.02-4.74 0-8.82 3.43-12.11 11.33h-.11c.87-7.9-2.1-11.33-6.38-11.33-3.64 0-6.71 2.97-6.71 4.63 0 .55.32 1.33.89 1.77zm0 0"/></symbol><symbol overflow="visible" id="6477a503f"><path d="M5.5-41.03c1.66-.77 2.97-1.31 4.4-1.31 1.97 0 2.87 1.09 2.87 5.39 0 4.39-.68 10.89-1 16.83a82.62 82.62 0 00-1.32 12.85c0 5.5 2.2 7.7 4.18 7.7 2.09 0 3.74-1.63 3.74-3.84 0-4.51-.67-11.78-.32-16.6 1.75.54 6.15 1.2 10 1.2 3.86 0 6.82-.66 8.68-1.42h.11c-.1 1.64-.32 5.17-.32 8.03C36.52-4.2 39.05.44 43.56.44c3.96 0 7.14-2.53 7.14-5.4 0-.76-.33-1.42-.87-1.85a7.48 7.48 0 01-4.28 1.75c-1.66 0-2.53-2.75-2.53-12.75a76 76 0 01.43-9.36c1.75-6.27 3.52-13.42 3.52-16.61 0-2.2-2.53-4.17-4.4-4.17-1.43 0-2.3.54-3.09 2.97-.98 3.07-1.96 11.1-2.53 19.03-1.86 1.1-6.37 2.07-11.1 2.07-3.08 0-5.62-.21-7.15-.54.33-5.06 1.2-11.55 1.2-15.17 0-5.61-3.5-8.36-7.59-8.36-4.17 0-8.12 2.75-8.12 4.93 0 .79.54 1.55 1.31 1.99zm0 0"/></symbol><symbol overflow="visible" id="6477a503g"><path d="M29.48-8.47C27.5-6.8 24.53-5.6 20.45-5.6c-6.92 0-10.54-3.62-10.54-11.22a20.48 20.48 0 009.12 2.42c6.81 0 11.33-4.62 11.33-10.67 0-6.26-4.73-10.01-10.67-10.01-9.9 0-16.94 9.25-16.94 18.7C2.75-5.72 9.45.44 18.38.44c6.8 0 11.98-4.28 11.98-7.25 0-.78-.33-1.33-.88-1.66zM10.12-19.8c.88-6.5 4.61-10.34 8.91-10.34 2.75 0 5.28 2.1 5.28 5.17 0 3.63-2.31 6.16-7.26 6.16-2.86 0-4.96-.44-6.93-.99zm0 0"/></symbol><symbol overflow="visible" id="6477a503h"><path d="M1.77-28.38c1.2-.43 2.64-.78 3.84-.78 1.76 0 2.53 2.32 2.53 7.7 0 5.5-.98 11.34-.98 14.3 0 4.85 1.86 7.6 4.06 7.6 1.87 0 4.19-2.64 4.19-4.28 0-3.1-1.22-5.96-1.22-8.82 0-1.53.22-3.18.33-4.5 1.76-5.5 6.5-11 10.23-11 2.53 0 3.73 1.97 3.73 6.82 0 4.51-.43 9.68-.43 12.32 0 6.27 3.18 9.46 7.15 9.46 3.52 0 6.16-2.53 6.16-4.4 0-.77-.22-1.43-.77-1.87-.89.44-1.87.77-3.3.77-1.65 0-2.63-.99-2.63-4.63 0-4.28.43-9.56.43-13.62 0-6.94-3.53-11.46-8.47-11.46-4.73 0-9.25 3.43-12.54 11.33h-.11c.87-7.9-2.1-11.33-6.38-11.33-3.64 0-6.71 2.97-6.71 4.63 0 .55.32 1.33.89 1.77zm0 0"/></symbol><symbol overflow="visible" id="6477a503i"><path d="M26.4-26.06c1.87-1 2.76-2.64 2.76-3.86 0-2.86-2.2-5.17-5.07-5.17-3.96 0-7.8 3.75-10.67 12.32h-.22c.66-9.03-1.65-12-5.93-12-3.64 0-6.72 2.97-6.72 4.63 0 .55.32 1.33.89 1.77 1.2-.44 2.62-.79 3.84-.79 1.77 0 2.53 2.32 2.53 7.7 0 5.94-1 11.34-1 14.3C6.81-2.3 8.7.44 10.9.44c1.88 0 4.17-2.64 4.17-4.28 0-3.1-1.2-5.96-1.2-8.82 0-7.36 4.62-14.95 8.69-14.95 1.43 0 2.75.55 3.86 1.55zm0 0"/></symbol><symbol overflow="visible" id="6477a503j"><path d="M1.2-28.38c.9-.43 1.88-.78 2.64-.78 1.99 0 3.32 1.88 4.52 11.79C9.56-7.6 12.55-4.3 15.73-2.76v.1C6.16 2.2 2.31 7.49 2.31 12.45c0 5.15 3.52 8.69 8.9 8.69 9.59 0 17.6-9.91 19.04-33.57 2.53-5.83 4.4-12.75 4.4-18.36 0-2.2-3.09-4.51-5.17-4.51-1.21 0-1.98.44-2.3 3.97C25.4-11.66 22.43-6.38 19.9-6.38c-2.1 0-3.74-1.76-4.96-14.85-1.1-11.77-4.17-13.54-7.57-13.54-3.54 0-7.05 2.97-7.05 4.63 0 .55.33 1.33.87 1.77zM23.55-3.84c-1.66 13.07-6.83 19.46-11.68 19.46-2.18 0-3.73-1.43-3.73-3.96 0-3.2 1.77-6.05 8.03-10.11 4.4-2.86 5.5-3.75 7.14-5.4zm0 0"/></symbol><symbol overflow="visible" id="6477a503e"><path d="M65.67 10.45c-.55.33-1.55.66-3.97.66-8.8 0-18.9-6.48-27.39-15.06 7.27-4.63 13.1-12 13.1-19.14 0-1.88-3.96-4.52-5.83-4.52-.99 9.8-4.85 16.83-10.13 20.56-4.82-5.6-8.8-11.87-11.22-17.8 6.4-3.85 13.97-7.06 13.97-14.85 0-5.07-3.95-9.03-10.22-9.03-7.48 0-12.87 6.39-12.87 14.42 0 2.97.77 6.37 2.1 10.1-4.52 2.98-8.26 6.62-8.26 12.44C4.95-4.4 10.45.43 20.7.43c2.18 0 4.6-.43 7.03-1.2C36.4 9.02 47.19 16.61 57.2 16.61c5.17 0 9.13-3.19 9.13-4.84 0-.55-.22-.99-.66-1.32zM14.73-20.69a80.45 80.45 0 0010.13 16.5c-.98.13-2.1.24-3.08.24-7.26 0-10.23-4.2-10.23-9.14 0-3.2 1.22-5.5 3.18-7.6zm4.41-7.14a27.71 27.71 0 01-1.44-8.03c0-5.72 1.99-8.47 5.07-8.47 2.3 0 4.84 1.99 4.84 5.83 0 4.73-3.95 7.81-8.47 10.67zm0 0"/></symbol><symbol overflow="visible" id="6477a503k"><path d="M3.83 0v-5.95H6.2v-.82H.45v.82h2.4V0zm0 0"/></symbol><symbol overflow="visible" id="6477a503l"><path d="M5.75-2.23v-.43c0-1.6-.9-2.51-2.42-2.51S.87-4.16.87-2.48c0 1.71.91 2.62 2.5 2.62 1.43 0 2.07-.56 2.29-1.52l-.9-.09c-.18.61-.59.9-1.35.9-.94 0-1.52-.54-1.58-1.66zm-2.4-2.2c.93 0 1.43.5 1.48 1.55H1.84c.08-1.07.6-1.56 1.5-1.56zm0 0"/></symbol><symbol overflow="visible" id="6477a503m"><path d="M1.83 0l1.42-2h.06l1.46 2H5.8L4-2.53l1.78-2.49H4.8L3.42-3.08h-.08l-1.4-1.94H.89l1.78 2.49L.84 0zm0 0"/></symbol><symbol overflow="visible" id="6477a503n"><path d="M5.52-4.25v-.77H3.17v-1.56h-.81l-.14 1.56H.75v.77h1.47v2.4c0 1.3.48 1.94 1.84 1.94C4.6.1 5.14 0 5.55-.14L5.4-.91c-.32.13-.72.2-1.13.2-.8 0-1.1-.37-1.1-1.23v-2.31zm0 0"/></symbol><symbol overflow="visible" id="6477a503o"><path d="M3.33-3.42c.47 0 .8-.27.8-.8 0-.51-.33-.8-.8-.8-.47 0-.8.29-.8.8 0 .53.33.8.8.8zm0 3.5c.47 0 .8-.27.8-.78 0-.53-.33-.82-.8-.82-.47 0-.8.29-.8.82 0 .51.33.78.8.78zm0 0"/></symbol><symbol overflow="visible" id="6477a503q"><path d="M3.33.14c1.62 0 2.5-.95 2.5-2.66 0-1.68-.88-2.64-2.5-2.64-1.63 0-2.5.96-2.5 2.64 0 1.7.87 2.66 2.5 2.66zm0-.77c-1.06 0-1.52-.6-1.52-1.89 0-1.28.46-1.87 1.52-1.87 1.08 0 1.53.6 1.53 1.87 0 1.29-.45 1.9-1.53 1.9zm0 0"/></symbol><symbol overflow="visible" id="6477a503r"><path d="M1.63 0v-2.9c0-.8.15-1.4.71-1.4.41 0 .55.3.55.88V0h.95v-2.9c0-.8.18-1.4.72-1.4.4 0 .57.3.57.88V0h.95v-3.63c0-.92-.28-1.53-1.11-1.53-.63 0-.95.41-1.1.9h-.06c-.1-.52-.44-.9-1.08-.9-.6 0-.93.41-1.06.9H1.6l-.23-.76H.67V0zm0 0"/></symbol><symbol overflow="visible" id="6477a503s"><path d="M5.4-1.22c.43-.66.66-1.51.66-2.44l-.83-.09c0 .75-.14 1.4-.4 1.92l-1.7-1.83c.8-.42 1.39-.96 1.39-1.86 0-.87-.66-1.4-1.61-1.4-1.14 0-1.72.62-1.72 1.47 0 .72.47 1.3.83 1.68-.8.41-1.52.99-1.52 2.1C.5-.44 1.52.14 2.7.14c.9 0 1.64-.3 2.2-.78l.58.64h1.05zM2.86-6.25c.44 0 .82.23.82.73 0 .7-.47 1.11-1 1.41-.47-.53-.67-.92-.67-1.34 0-.47.3-.8.85-.8zM2.81-.62c-.83 0-1.42-.41-1.42-1.18 0-.76.5-1.18 1.05-1.5l1.94 2.1c-.4.37-.91.57-1.57.57zm0 0"/></symbol><symbol overflow="visible" id="6477a503t"><path d="M1.9 0v-3.03h2.87V0h.98v-6.77h-.98v2.91H1.9v-2.9H.92V0zm0 0"/></symbol><symbol overflow="visible" id="6477a503u"><path d="M2.16 0v-2.67c0-.99.59-1.63 1.46-1.63.74 0 1.07.38 1.07 1.22V0h.95v-3.31c0-1.2-.56-1.85-1.67-1.85-.92 0-1.49.46-1.77 1.08h-.06l-.12-.94H1.2V0zm0 0"/></symbol><symbol overflow="visible" id="6477a503v"><path d="M5.08-5.16c-.94 0-1.58.43-1.9 1.3h-.09l-.07-1.16H1.05v.77h1.1v3.48H.96V0h3.96v-.77H3.1v-1.46c0-1.36.6-2.05 1.83-2.05.4 0 .76.08 1.1.17l.15-.87c-.33-.11-.7-.18-1.11-.18zm0 0"/></symbol><symbol overflow="visible" id="6477a503w"><path d="M3.42-.86h-.08L1.77-5.02H.8L2.73 0h.41c-.33.95-.72 1.27-1.45 1.27-.22 0-.49-.04-.69-.08l-.1.73c.2.06.58.11.87.11 1.2 0 1.7-.7 2.21-2.03l1.94-5.02H5zm0 0"/></symbol><symbol overflow="visible" id="6477a503x"><path d="M5.95-6.77H1.1V0h.99v-2.92H5.3v-.77H2.08v-2.26h3.87zm0 0"/></symbol><symbol overflow="visible" id="6477a503y"><path d="M2.83.14c.94 0 1.5-.39 1.81-.95h.08l.1.81h.76v-3.38c0-1.23-.69-1.8-2.13-1.8-1.43 0-2.03.65-2.18 1.6l.93.1c.11-.6.44-.93 1.22-.93.85 0 1.22.32 1.22 1.04v.34l-1.81.2C1.6-2.7 1.1-2.17 1.1-1.28c0 .92.64 1.42 1.72 1.42zm.25-.77c-.67 0-1.02-.28-1.02-.74 0-.44.28-.72 1-.82l1.58-.19v.41c0 .8-.6 1.34-1.56 1.34zm0 0"/></symbol><symbol overflow="visible" id="6477a503z"><path d="M2.73.14c.9 0 1.43-.45 1.74-1.08h.06l.13.94h.8v-5.02h-.94v2.7c0 .98-.57 1.62-1.46 1.62-.75 0-1.1-.4-1.1-1.22v-3.1h-.93v3.32c0 1.17.55 1.84 1.7 1.84zm0 0"/></symbol><symbol overflow="visible" id="6477a503A"><path d="M6.17 0L3.98-6.77h-1.3L.5 0h.97l.44-1.47h2.78L5.16 0zM3.28-5.94h.08l1.1 3.74H2.15zm0 0"/></symbol><symbol overflow="visible" id="6477a503B"><path d="M3.92-7.14H1.36v.76h1.6v5.61H1.15V0H5.7v-.77H3.92zm0 0"/></symbol><symbol overflow="visible" id="6477a503C"><path d="M3.58-5.81c.42 0 .72-.22.72-.67 0-.44-.3-.68-.72-.68-.44 0-.72.24-.72.68 0 .45.28.67.72.67zm.5.8H1.52v.76h1.6v3.48h-1.8V0h4.46v-.77h-1.7zm0 0"/></symbol><symbol overflow="visible" id="6477a503D"><path d="M3.9 0l2-5.02h-.96L3.4-.94h-.07L1.8-5.02H.77L2.78 0zm0 0"/></symbol><symbol overflow="visible" id="6477a503E"><path d="M4.63-6.5c.45 0 .98.08 1.39.2l.2-.72a5.3 5.3 0 00-1.64-.26c-1.52 0-2.16.56-2.16 1.87v.4H.9v.76h1.53V0h.94v-4.25h2.53v-.77H3.36v-.3c0-.84.33-1.18 1.27-1.18zm0 0"/></symbol><symbol overflow="visible" id="6477a503F"><path d="M3.38-5.9c.12-.5.42-1.04.67-1.41l-.63-.22a4.28 4.28 0 00-1.01 2.39c0 .66.3 1 .9 1 .6 0 .9-.33.9-.9 0-.57-.32-.83-.83-.85zm0 0"/></symbol><symbol overflow="visible" id="6477a503G"><path d="M3.3-7.53c-.55 0-.85.3-.85.84 0 .55.36.8.83.8h.03a5.1 5.1 0 01-.69 1.47l.52.23a4.29 4.29 0 001.02-2.4c0-.63-.33-.94-.86-.94zm0 0"/></symbol><symbol overflow="visible" id="6477a503H"><path d="M1.45-2.95c0 2.56 1.08 4.37 3.67 4.84l.11-.67C3.28.86 2.43-.75 2.43-2.95s.85-3.82 2.8-4.16l-.1-.69c-2.6.49-3.68 2.3-3.68 4.85zm0 0"/></symbol><symbol overflow="visible" id="6477a503I"><path d="M3.36.16c1.4 0 2.2-.6 2.2-1.57 0-.89-.54-1.22-1.47-1.39L3-3c-.67-.14-.86-.33-.86-.73 0-.5.4-.74 1.17-.74.83 0 1.19.27 1.27.8l.9-.05c-.12-1-.8-1.47-2.17-1.47-1.34 0-2.1.53-2.1 1.5 0 .81.45 1.22 1.52 1.44l1.04.2c.56.11.87.24.87.72 0 .52-.45.78-1.28.78-.95 0-1.36-.28-1.42-.87l-.9.06C1.07-.36 1.8.16 3.35.16zm0 0"/></symbol><symbol overflow="visible" id="6477a503J"><path d="M3.33.14c1.65 0 2.6-1.1 2.6-3.52S4.99-6.9 3.34-6.9C1.67-6.9.72-5.8.72-3.37c0 2.4.95 3.51 2.6 3.51zm0-.84c-1.13 0-1.6-.85-1.6-2.67 0-1.86.47-2.7 1.6-2.7 1.12 0 1.6.84 1.6 2.7 0 1.82-.48 2.67-1.6 2.67zM3.3-2.64c.38 0 .56-.28.56-.72 0-.44-.18-.7-.56-.7-.39 0-.56.26-.56.7 0 .44.17.72.56.72zm0 0"/></symbol><symbol overflow="visible" id="6477a503K"><path d="M3.42.14c1.58 0 2.49-.86 2.49-2.3 0-1.42-.86-2.17-2.22-2.17-1.03 0-1.58.5-1.9 1.02h-.04c.03-1.63.4-2.77 1.73-2.77.91 0 1.24.44 1.36.96l.97-.11c-.23-.96-.86-1.68-2.33-1.68C1.84-6.9.86-5.86.86-3.1.86-.9 1.78.14 3.42.14zm.02-.78c-.9 0-1.47-.55-1.47-1.47 0-.9.7-1.47 1.53-1.47.92 0 1.47.52 1.47 1.47 0 .97-.6 1.47-1.53 1.47zm0 0"/></symbol><symbol overflow="visible" id="6477a503L"><path d="M1.45-7.1c1.96.33 2.8 1.94 2.8 4.15 0 2.2-.84 3.8-2.8 4.17l.11.67c2.58-.47 3.67-2.28 3.67-4.84 0-2.55-1.09-4.36-3.67-4.85zm0 0"/></symbol></defs><use xlink:href="#6477a503a" x="98.15" y="141" fill="#515151"/><g fill="#515151"><use xlink:href="#6477a503b" x="130.6" y="141"/><use xlink:href="#6477a503c" x="167.12" y="141"/><use xlink:href="#6477a503d" x="228.5" y="141"/></g><use xlink:href="#6477a503e" x="241.7" y="141" fill="#fff"/><g fill="#515151"><use xlink:href="#6477a503d" x="294.06" y="141"/><use xlink:href="#6477a503f" x="307.26" y="141"/><use xlink:href="#6477a503g" x="359.07" y="141"/><use xlink:href="#6477a503h" x="392.73" y="141"/><use xlink:href="#6477a503i" x="434.97" y="141"/><use xlink:href="#6477a503j" x="464.67" y="141"/></g><g fill="#fff"><use xlink:href="#6477a503k" x="243.3333" y="252"/><use xlink:href="#6477a503l" x="250.0003" y="252"/><use xlink:href="#6477a503m" x="256.6673" y="252"/><use xlink:href="#6477a503n" x="263.3343" y="252"/><use xlink:href="#6477a503o" x="270.0013" y="252"/><use xlink:href="#6477a503p" x="276.6683" y="252"/><use xlink:href="#6477a503k" x="283.3353" y="252"/><use xlink:href="#6477a503q" x="290.0023" y="252"/><use xlink:href="#6477a503r" x="296.6693" y="252"/><use xlink:href="#6477a503p" x="303.3363" y="252"/><use xlink:href="#6477a503s" x="310.0033" y="252"/><use xlink:href="#6477a503p" x="316.6703" y="252"/><use xlink:href="#6477a503t" x="323.3373" y="252"/><use xlink:href="#6477a503l" x="330.0043" y="252"/><use xlink:href="#6477a503u" x="336.6713" y="252"/><use xlink:href="#6477a503v" x="343.3383" y="252"/><use xlink:href="#6477a503w" x="350.0053" y="252"/></g><g fill="#fff"><use xlink:href="#6477a503x" x="170" y="266"/><use xlink:href="#6477a503l" x="176.667" y="266"/><use xlink:href="#6477a503y" x="183.334" y="266"/><use xlink:href="#6477a503n" x="190.001" y="266"/><use xlink:href="#6477a503z" x="196.668" y="266"/><use xlink:href="#6477a503v" x="203.335" y="266"/><use xlink:href="#6477a503l" x="210.002" y="266"/><use xlink:href="#6477a503o" x="216.669" y="266"/><use xlink:href="#6477a503p" x="223.336" y="266"/><use xlink:href="#6477a503A" x="230.003" y="266"/><use xlink:href="#6477a503B" x="236.67" y="266"/><use xlink:href="#6477a503n" x="243.337" y="266"/><use xlink:href="#6477a503l" x="250.004" y="266"/><use xlink:href="#6477a503v" x="256.671" y="266"/><use xlink:href="#6477a503u" x="263.338" y="266"/><use xlink:href="#6477a503y" x="270.005" y="266"/><use xlink:href="#6477a503n" x="276.672" y="266"/><use xlink:href="#6477a503C" x="283.339" y="266"/><use xlink:href="#6477a503D" x="290.006" y="266"/><use xlink:href="#6477a503l" x="296.673" y="266"/><use xlink:href="#6477a503p" x="303.34" y="266"/><use xlink:href="#6477a503E" x="310.007" y="266"/><use xlink:href="#6477a503q" x="316.674" y="266"/><use xlink:href="#6477a503v" x="323.341" y="266"/><use xlink:href="#6477a503r" x="330.008" y="266"/><use xlink:href="#6477a503p" x="336.675" y="266"/><use xlink:href="#6477a503q" x="343.342" y="266"/><use xlink:href="#6477a503E" x="350.009" y="266"/><use xlink:href="#6477a503p" x="356.676" y="266"/><use xlink:href="#6477a503F" x="363.343" y="266"/><use xlink:href="#6477a503s" x="370.01" y="266"/><use xlink:href="#6477a503G" x="376.677" y="266"/><use xlink:href="#6477a503p" x="383.344" y="266"/><use xlink:href="#6477a503H" x="390.011" y="266"/><use xlink:href="#6477a503I" x="396.678" y="266"/><use xlink:href="#6477a503I" x="403.345" y="266"/><use xlink:href="#6477a503J" x="410.012" y="266"/><use xlink:href="#6477a503K" x="416.679" y="266"/><use xlink:href="#6477a503L" x="423.346" y="266"/></g></svg>