<?xml version='1.0' encoding='UTF-8'?>
<svg xmlns="http://www.w3.org/2000/svg" xmlns:xlink="http://www.w3.org/1999/xlink" width="400px" height="900px" viewBox="0 0 400 900" x="0px" y="0px" enable-background="new 0 0 400 900"><defs><symbol overflow="visible" id="61447de6a"><path d="M21.83 0h2.06L13.7-25.69h-2.36L1.08 0h2.08L5.6-6.22h13.75zM6.3-7.92l6.1-15.53h.16l6.11 15.53zm0 0"/></symbol><symbol overflow="visible" id="61447de6b"><path d="M17.7-1.77v-17.15H5.4c-.15 3.28-.3 7.26-.5 9.87-.34 3.74-1.21 6.2-2.34 7.28H.36v6.83h1.89V0h16.28v5.06h1.88v-6.83zm-12.92 0c1.05-1.48 1.66-4.2 1.9-7.28.2-2.17.34-5.22.5-8.1h8.57v15.38zm0 0"/></symbol><symbol overflow="visible" id="61447de6c"><path d="M8.47.55c3.33 0 5.6-1.57 6.8-3.8h.15L15.7 0h1.57v-12.95c0-4.53-2.4-6.52-7.24-6.52-4.6 0-6.84 2.34-7.31 5.72l1.98.22c.44-2.72 1.96-4.2 5.33-4.2 3.55 0 5.28 1.37 5.28 4.84v1.75l-6.81.86c-4.52.58-6.47 2.2-6.47 5.58 0 3.47 2.4 5.25 6.44 5.25zm.08-1.74c-3.05 0-4.53-1.23-4.53-3.6 0-2.08 1.23-3.43 4.45-3.87l6.84-.93v2.2c0 3.7-2.86 6.2-6.76 6.2zm0 0"/></symbol><symbol overflow="visible" id="61447de6d"><path d="M18.92-18.92H3.7V0h2v-17.08h11.25V0h1.98zm0 0"/></symbol><symbol overflow="visible" id="61447de6e"><path d="M15.56-18.92H.2v1.76h6.68V0h1.99v-17.16h6.7zm0 0"/></symbol><symbol overflow="visible" id="61447de6f"><path d="M18.86-8.83v-1.12c0-6.22-3.19-9.52-8.3-9.52-5.03 0-8.39 3.55-8.39 10.13 0 6.56 3.47 9.89 8.66 9.89 4.73 0 6.87-2.32 7.67-5.17l-2-.2c-.66 2.04-2.06 3.59-5.67 3.59-4.06 0-6.52-2.5-6.67-7.6zm-8.3-8.87c3.88 0 6.19 2.32 6.35 7.2H4.2c.32-4.92 2.63-7.2 6.35-7.2zm0 0"/></symbol><symbol overflow="visible" id="61447de6g"><path d="M3.69 7.23h2V-3.22h.14C6.95-.98 9.16.55 12.27.55c5.36 0 8.32-3.7 8.32-10.03 0-6.3-2.96-9.99-8.32-9.99-3.11 0-5.29 1.7-6.47 3.99h-.16l-.39-3.44H3.69zm8.51-8.57c-4.5 0-6.67-3.7-6.67-8.14 0-4.41 2.17-8.11 6.67-8.11 4.24 0 6.33 2.64 6.33 8.1 0 5.5-2.1 8.15-6.33 8.15zm0 0"/></symbol><symbol overflow="visible" id="61447de6i"><path d="M3.83 0v-5.95H6.2v-.82H.45v.82h2.4V0zm0 0"/></symbol><symbol overflow="visible" id="61447de6j"><path d="M5.75-2.23v-.43c0-1.6-.9-2.51-2.42-2.51S.87-4.16.87-2.48c0 1.71.91 2.62 2.5 2.62 1.43 0 2.07-.56 2.29-1.52l-.9-.09c-.18.61-.59.9-1.35.9-.94 0-1.52-.54-1.58-1.66zm-2.4-2.2c.93 0 1.43.5 1.48 1.55H1.84c.08-1.07.6-1.56 1.5-1.56zm0 0"/></symbol><symbol overflow="visible" id="61447de6k"><path d="M1.83 0l1.42-2h.06l1.46 2H5.8L4-2.53l1.78-2.49H4.8L3.42-3.08h-.08l-1.4-1.94H.89l1.78 2.49L.84 0zm0 0"/></symbol><symbol overflow="visible" id="61447de6l"><path d="M5.52-4.25v-.77H3.17v-1.56h-.81l-.14 1.56H.75v.77h1.47v2.4c0 1.3.48 1.94 1.84 1.94C4.6.1 5.14 0 5.55-.14L5.4-.91c-.32.13-.72.2-1.13.2-.8 0-1.1-.37-1.1-1.23v-2.31zm0 0"/></symbol><symbol overflow="visible" id="61447de6m"><path d="M5.92-6.77H1.1V0h4.83v-.8H2.06v-2.26h3.22v-.75H2.06v-2.16h3.86zm0 0"/></symbol><symbol overflow="visible" id="61447de6n"><path d="M5.08-5.16c-.94 0-1.58.43-1.9 1.3h-.09l-.07-1.16H1.05v.77h1.1v3.48H.96V0h3.96v-.77H3.1v-1.46c0-1.36.6-2.05 1.83-2.05.4 0 .76.08 1.1.17l.15-.87c-.33-.11-.7-.18-1.11-.18zm0 0"/></symbol><symbol overflow="visible" id="61447de6o"><path d="M2.83.14c.94 0 1.5-.39 1.81-.95h.08l.1.81h.76v-3.38c0-1.23-.69-1.8-2.13-1.8-1.43 0-2.03.65-2.18 1.6l.93.1c.11-.6.44-.93 1.22-.93.85 0 1.22.32 1.22 1.04v.34l-1.81.2C1.6-2.7 1.1-2.17 1.1-1.28c0 .92.64 1.42 1.72 1.42zm.25-.77c-.67 0-1.02-.28-1.02-.74 0-.44.28-.72 1-.82l1.58-.19v.41c0 .8-.6 1.34-1.56 1.34zm0 0"/></symbol><symbol overflow="visible" id="61447de6p"><path d="M3.92-7.14H1.36v.76h1.6v5.61H1.15V0H5.7v-.77H3.92zm0 0"/></symbol><symbol overflow="visible" id="61447de6q"><path d="M3.58-5.81c.42 0 .72-.22.72-.67 0-.44-.3-.68-.72-.68-.44 0-.72.24-.72.68 0 .45.28.67.72.67zm.5.8H1.52v.76h1.6v3.48h-1.8V0h4.46v-.77h-1.7zm0 0"/></symbol><symbol overflow="visible" id="61447de6r"><path d="M3.16 2.03c1.67 0 2.4-.86 2.4-2.51v-4.54h-.81l-.13.91h-.06c-.26-.58-.8-1.05-1.73-1.05-1.42 0-2.24 1-2.24 2.52 0 1.6.75 2.56 2.2 2.56.94 0 1.5-.5 1.77-1.03h.05v.72c0 1.17-.42 1.67-1.45 1.67-.93 0-1.3-.34-1.41-.89L.8.5c.12.96.87 1.54 2.36 1.54zM3.06-.8c-.98 0-1.48-.57-1.48-1.82 0-1.13.5-1.75 1.48-1.75 1.06 0 1.58.76 1.58 1.75 0 .95-.56 1.82-1.58 1.82zm0 0"/></symbol><symbol overflow="visible" id="61447de6s"><path d="M2.16 0v-2.69c0-.98.6-1.6 1.46-1.6.74 0 1.07.4 1.07 1.2V0h.95v-3.31c0-1.17-.56-1.85-1.67-1.85-.9 0-1.44.46-1.75 1.08h-.06v-3.06H1.2V0zm0 0"/></symbol><symbol overflow="visible" id="61447de6A"><path d="M3.83-5.97h1.73v-.8H1.1v.8h1.75v5.19H1.1V0h4.47v-.78H3.83zm0 0"/></symbol><symbol overflow="visible" id="61447de6B"><path d="M3.34.14c1.43 0 2.13-.66 2.25-1.78l-.89-.1c-.1.7-.5 1.08-1.34 1.08-1.03 0-1.52-.64-1.52-1.84 0-1.23.47-1.86 1.52-1.86.84 0 1.23.36 1.34 1.08l.9-.1c-.13-1.09-.82-1.78-2.26-1.78-1.56 0-2.46.97-2.46 2.66 0 1.66.9 2.64 2.46 2.64zm0 0"/></symbol><symbol overflow="visible" id="61447de6J"><path d="M2.08-6.77h-.99V0h4.79v-.81h-3.8zm0 0"/></symbol><symbol overflow="visible" id="61447de6Y"><path d="M4.06-2.77c1.25-.04 1.92-.7 1.92-1.96 0-1.36-.7-2.04-2.17-2.04H.92V0h.97v-2.73h1.08L4.95 0h1.1zM1.9-6h1.7c1.07 0 1.46.34 1.46 1.28 0 .9-.44 1.27-1.47 1.27H1.89zm0 0"/></symbol><symbol overflow="visible" id="61447de6Z"><path d="M2.73.14c.9 0 1.43-.45 1.74-1.08h.06l.13.94h.8v-5.02h-.94v2.7c0 .98-.57 1.62-1.46 1.62-.75 0-1.1-.4-1.1-1.22v-3.1h-.93v3.32c0 1.17.55 1.84 1.7 1.84zm0 0"/></symbol><symbol overflow="visible" id="61447de6ao"><path d="M1.64 0v-3.17l-.16-2.5h.1L2.9-1.83h.82l1.35-3.84h.1l-.16 2.5V0h.95v-6.77h-1.3l-1.3 3.82h-.09L2-6.77H.69V0zm0 0"/></symbol><symbol overflow="visible" id="61447de6ap"><path d="M2.84.14C3.8.14 4.33-.26 4.6-.9h.07L4.8 0h.76v-7.14h-.95v2.95h-.08c-.28-.6-.86-.97-1.67-.97-1.48 0-2.27.99-2.27 2.64C.6-.84 1.36.14 2.84.14zm.22-.8c-.98 0-1.48-.59-1.48-1.84s.5-1.86 1.48-1.86c1.13 0 1.58.8 1.58 1.86S4.2-.66 3.06-.66zm0 0"/></symbol><symbol overflow="visible" id="61447de6aq"><path d="M1.63 0v-2.9c0-.8.15-1.4.71-1.4.41 0 .55.3.55.88V0h.95v-2.9c0-.8.18-1.4.72-1.4.4 0 .57.3.57.88V0h.95v-3.63c0-.92-.28-1.53-1.11-1.53-.63 0-.95.41-1.1.9h-.06c-.1-.52-.44-.9-1.08-.9-.6 0-.93.41-1.06.9H1.6l-.23-.76H.67V0zm0 0"/></symbol><symbol overflow="visible" id="61447de6aF"><path d="M3.42.14c1.61 0 2.56-.75 2.56-2 0-1.1-.67-1.6-1.95-1.86l-.97-.2c-.87-.17-1.23-.49-1.23-1.11 0-.7.54-1.11 1.5-1.11 1.06 0 1.51.34 1.69 1.23l.9-.09c-.17-1.28-.98-1.9-2.6-1.9C1.79-6.9.9-6.18.9-4.98c0 1.06.66 1.66 1.88 1.9l1.01.2c.85.17 1.25.4 1.25 1.09 0 .73-.6 1.16-1.6 1.16-1.07 0-1.66-.4-1.8-1.24l-.94.1C.83-.53 1.75.13 3.42.13zm0 0"/></symbol><symbol overflow="visible" id="61447de6aG"><path d="M3.9.14c1.48 0 2.18-.98 2.18-2.64 0-1.67-.7-2.66-2.17-2.66-.91 0-1.49.41-1.79 1h-.06v-2.98h-.95V0h.81l.11-.9h.06c.29.63.82 1.04 1.82 1.04zm-.32-.8c-1.08 0-1.55-.8-1.55-1.84 0-1.06.47-1.86 1.55-1.86 1.1 0 1.51.61 1.51 1.86S4.64-.66 3.58-.66zm0 0"/></symbol><symbol overflow="visible" id="61447de6aH"><path d="M3.33.14c1.62 0 2.5-.95 2.5-2.66 0-1.68-.88-2.64-2.5-2.64-1.63 0-2.5.96-2.5 2.64 0 1.7.87 2.66 2.5 2.66zm0-.77c-1.06 0-1.52-.6-1.52-1.89 0-1.28.46-1.87 1.52-1.87 1.08 0 1.53.6 1.53 1.87 0 1.29-.45 1.9-1.53 1.9zm0 0"/></symbol><symbol overflow="visible" id="61447de6aW"><path d="M4.66-3.45c.76-.14 1.15-.67 1.15-1.57 0-1.07-.64-1.75-2.18-1.75H.92V0h2.71C5.2 0 5.98-.64 5.98-1.77c0-1.03-.56-1.43-1.32-1.59zM3.56-6c.9 0 1.31.4 1.31 1.13 0 .71-.4 1.14-1.3 1.14h-1.7V-6zM1.87-.75v-2.27H3.6c.97 0 1.44.33 1.44 1.13 0 .8-.47 1.14-1.44 1.14zm0 0"/></symbol><symbol overflow="visible" id="61447de6t"><path d="M20.27 0h1.95l-5.5-25.69H14.4L-.58 0H1.6l3.58-6.22h13.8zM6.16-7.92l9.04-15.53h.11l3.3 15.53zm0 0"/></symbol><symbol overflow="visible" id="61447de6u"><path d="M16.33-1.77l3-17.15H7.06c-.73 3.28-1.64 7.84-2.33 10.45-.96 3.74-2.2 5.61-3.5 6.7H-.98l-1.2 6.83H-.3L.58 0h16.25l-.88 5.06h1.9l1.18-6.83zm-12.78 0c1.23-1.3 2.2-3.51 2.97-6.56.54-2.17 1.34-5.75 1.98-8.83h8.55l-2.68 15.4zm0 0"/></symbol><symbol overflow="visible" id="61447de6v"><path d="M7.34.55c3.52 0 5.94-1.9 6.96-3.8h.07L14.05 0h1.54l2.07-11.8c.87-5.06-1.16-7.67-6.25-7.67-4.68 0-6.75 2.1-7.94 5.58l1.95.31c.96-2.75 2.36-4.15 5.8-4.15 3.47 0 4.73 1.4 4.73 3.98 0 .55-.14 1.7-.36 2.67l-7.09.74c-4.66.46-7.27 2.2-7.27 5.92C1.23-1.23 3.52.55 7.34.55zm.2-1.7c-2.8 0-4.32-1.16-4.32-3.33 0-2.75 1.81-3.88 5.25-4.24l6.84-.73-.44 2.43c-.57 3.18-3.8 5.86-7.34 5.86zm0 0"/></symbol><symbol overflow="visible" id="61447de6w"><path d="M20.6-18.92H5.35L2.03 0h1.99l3-17.08h11.26L15.27 0h2zm0 0"/></symbol><symbol overflow="visible" id="61447de6x"><path d="M17.23-18.92H1.84l-.32 1.76h6.7L5.22 0H7.2l3-17.16h6.7zm0 0"/></symbol><symbol overflow="visible" id="61447de6y"><path d="M18.75-8.83c.17-1.01.36-2.42.36-3.33 0-4.67-2.5-7.3-7.06-7.3-5.14 0-8.72 3.54-9.8 9.62C1.19-3.91 3.55.55 9.59.55c4.38 0 6.74-1.9 8.04-5.11l-1.93-.25C14.7-2.5 13.03-1.23 9.77-1.23c-4.7 0-6.33-3.15-5.72-7.6zm-6.81-8.87c4.42 0 5.76 2.82 5.14 7.2H4.38c1.12-4.7 3.54-7.2 7.56-7.2zm0 0"/></symbol><symbol overflow="visible" id="61447de6z"><path d="M.77 7.23h1.98L4.63-3.44h.15C5.5-1.56 7.02.55 11.03.55c4.92 0 8.4-3.52 9.49-9.68 1.01-5.71-1.08-10.34-7.13-10.34-3.19 0-5.31 1.52-6.52 3.77h-.14l.18-3.22H5.36zM11.22-1.3c-4.81 0-6.55-3.48-5.69-8.32.8-4.43 3.13-8 7.61-8 4.95 0 6.22 3.57 5.36 8.5-.9 5.14-3.6 7.82-7.28 7.82zm0 0"/></symbol><symbol overflow="visible" id="61447de6C"><path d="M21.6 0h2.71L14.3-25.69h-3.22L1 0h2.67l2.31-6h13.33zM6.84-8.16l5.75-14.98h.15l5.74 14.98zm0 0"/></symbol><symbol overflow="visible" id="61447de6D"><path d="M18.19-2.22v-16.76H5.39c-.1 3.3-.23 6.92-.45 9.56-.32 3.6-1.19 6.1-2.27 7.2H.36v7.28h2.37V0h15.9v5.06h2.35v-7.28zm-12.85 0C6.4-3.7 7-6.39 7.24-9.37c.17-2 .3-4.76.42-7.44h8.04v14.6zm0 0"/></symbol><symbol overflow="visible" id="61447de6E"><path d="M8.38.53c3.28 0 5.5-1.45 6.62-3.66h.14L15.47 0h2.06v-12.95c0-4.55-2.5-6.6-7.37-6.6-4.8 0-6.99 2.3-7.5 5.82l2.5.23c.42-2.5 1.78-3.9 5-3.9 3.32 0 4.9 1.3 4.9 4.56v1.53l-6.6.83c-4.57.59-6.54 2.25-6.54 5.67C1.92-1.36 4.25.53 8.38.53zm.35-2.12c-2.92 0-4.26-1.22-4.26-3.35 0-1.95 1.14-3.15 4.08-3.54l6.51-.91v2c0 3.4-2.56 5.8-6.33 5.8zm0 0"/></symbol><symbol overflow="visible" id="61447de6F"><path d="M19.23-18.98H3.56V0H6.1v-16.69H16.7V0h2.53zm0 0"/></symbol><symbol overflow="visible" id="61447de6G"><path d="M15.92-18.98H.23v2.2h6.6V0h2.53v-16.78h6.56zm0 0"/></symbol><symbol overflow="visible" id="61447de6H"><path d="M19.03-8.7v-1.4c0-6.13-3.2-9.45-8.4-9.45-5.16 0-8.58 3.55-8.58 10.16C2.05-2.95 5.4.55 10.87.55c4.8 0 7-2.27 7.82-5.27l-2.53-.25c-.61 1.9-1.99 3.3-5.29 3.3-3.8 0-6.06-2.31-6.26-7.03zm-8.4-8.68c3.68 0 5.74 2.18 5.92 6.66H4.65c.35-4.53 2.46-6.65 5.97-6.65zm0 0"/></symbol><symbol overflow="visible" id="61447de6I"><path d="M3.56 7.19H6.1V-3.17h.18C7.36-.91 9.5.55 12.55.55c5.32 0 8.3-3.72 8.3-10.05s-2.98-10.03-8.24-10.03a6.86 6.86 0 00-6.4 3.94h-.15L5.63-19H3.56zm8.66-8.92c-4.2 0-6.24-3.38-6.24-7.77 0-4.4 2.04-7.75 6.24-7.75 4.03 0 6.05 2.53 6.05 7.75 0 5.23-2.02 7.77-6.05 7.77zm0 0"/></symbol><symbol overflow="visible" id="61447de6K"><path d="M20.06 0h2.58l-5.36-25.69h-3.2L-.7 0h2.83l3.38-5.98h13.36zM6.73-8.16l8.57-14.98h.12l3.02 14.98zm0 0"/></symbol><symbol overflow="visible" id="61447de6L"><path d="M16.9-2.22l2.94-16.76H7.08c-.69 3.3-1.49 7.42-2.17 10.06-.97 3.6-2.25 5.6-3.5 6.7H-.91l-1.28 7.28h2.4L1.05 0h15.86l-.87 5.06h2.37l1.28-7.28zm-12.68 0C5.5-3.64 6.4-5.77 7.14-8.78c.52-2.02 1.2-5.17 1.8-8.03h8.01l-2.53 14.6zm0 0"/></symbol><symbol overflow="visible" id="61447de6M"><path d="M7.3.53c3.39 0 5.7-1.76 6.65-3.66h.11L13.78 0h2.06l2.05-11.67c.9-5.11-1.08-7.88-6.42-7.88-4.8 0-6.9 2.05-8.03 5.66l2.48.37c.83-2.62 2.22-3.89 5.27-3.89 3.34 0 4.5 1.29 4.5 3.7 0 .62-.14 1.6-.35 2.54l-6.89.69c-4.7.48-7.3 2.17-7.3 5.95C1.14-1.37 3.38.53 7.3.53zm.39-2.1C5.12-1.58 3.7-2.65 3.7-4.7c0-2.51 1.7-3.51 4.82-3.83L15-9.2l-.4 2.12c-.55 3.1-3.54 5.5-6.91 5.5zm0 0"/></symbol><symbol overflow="visible" id="61447de6N"><path d="M20.92-18.98H5.25L1.91 0h2.53l2.92-16.69h10.6L15.04 0h2.55zm0 0"/></symbol><symbol overflow="visible" id="61447de6O"><path d="M17.6-18.98H1.93l-.42 2.2h6.6L5.13 0h2.53l2.96-16.78h6.56zm0 0"/></symbol><symbol overflow="visible" id="61447de6P"><path d="M18.9-8.7c.2-1.14.37-2.57.37-3.58 0-4.55-2.57-7.27-7.2-7.27-5.2 0-8.85 3.46-9.96 9.66C1.06-3.84 3.53.55 9.6.55c4.69 0 6.97-1.97 8.25-5.24l-2.45-.28c-.97 2.1-2.52 3.3-5.58 3.3-4.49 0-5.85-3.06-5.36-7.03zm-7-8.68c4.15 0 5.4 2.6 4.88 6.66H4.84c1.1-4.39 3.36-6.65 7.07-6.65zm0 0"/></symbol><symbol overflow="visible" id="61447de6Q"><path d="M.64 7.19h2.53L5.05-3.42h.14C5.84-1.56 7.29.55 11.27.55c4.96 0 8.42-3.52 9.5-9.7 1.04-5.91-1.27-10.38-7.07-10.38a6.85 6.85 0 00-6.4 3.66h-.17l.17-3.11H5.23zm10.56-8.9c-4.42 0-6.04-3.26-5.25-7.9.78-4.37 2.94-7.67 7.2-7.67 4.68 0 5.9 3.34 5.07 8-.9 4.97-3.3 7.56-7.02 7.56zm0 0"/></symbol><symbol overflow="visible" id="61447de6R"><path d="M21.4 0h3.35l-9.84-25.69h-4.08L.89 0h3.33l2.17-5.8h12.84zM7.32-8.38l5.42-14.48h.17L18.3-8.38zm0 0"/></symbol><symbol overflow="visible" id="61447de6S"><path d="M18.69-2.7v-16.35H5.39c-.08 3.28-.16 6.58-.37 9.22-.32 3.5-1.2 6.05-2.24 7.13H.36v7.76h2.87V0H18.7v5.06h2.87V-2.7zm-12.77 0c1.02-1.49 1.63-4.13 1.86-7 .13-1.86.25-4.28.34-6.75h7.55V-2.7zm0 0"/></symbol><symbol overflow="visible" id="61447de6T"><path d="M8.31.53c3.2 0 5.35-1.34 6.4-3.51h.18L15.22 0h2.56v-12.95c0-4.58-2.56-6.66-7.48-6.66-5.02 0-7.18 2.25-7.7 5.88l3.02.26c.38-2.28 1.6-3.6 4.65-3.6 3.1 0 4.53 1.27 4.53 4.26v1.33l-6.43.82c-4.59.58-6.56 2.29-6.56 5.74C1.81-1.5 4.08.53 8.31.53zm.61-2.51c-2.78 0-3.98-1.2-3.98-3.15 0-1.8 1.03-2.85 3.67-3.21l6.19-.86v1.8c0 3.13-2.22 5.42-5.88 5.42zm0 0"/></symbol><symbol overflow="visible" id="61447de6U"><path d="M19.56-19.05H3.46V0h3.07v-16.28h9.95V0h3.08zm0 0"/></symbol><symbol overflow="visible" id="61447de6V"><path d="M16.28-19.05H.31v2.68h6.44V0h3.08v-16.38h6.45zm0 0"/></symbol><symbol overflow="visible" id="61447de6W"><path d="M19.22-8.56v-1.74c0-5.97-3.2-9.3-8.53-9.3-5.3 0-8.75 3.54-8.75 10.13C1.94-3.12 5.16.55 10.95.55c4.83 0 7.11-2.24 7.93-5.38l-3.05-.3c-.61 1.79-1.96 3.04-4.92 3.04-3.57 0-5.6-2.14-5.83-6.47zm-8.53-8.49c3.48 0 5.33 2.03 5.48 6.13H5.12c.35-4.19 2.29-6.13 5.57-6.13zm0 0"/></symbol><symbol overflow="visible" id="61447de6X"><path d="M3.45 7.1h3.08V-3.1h.16C7.77-.82 9.83.56 12.83.56c5.3 0 8.28-3.72 8.28-10.08 0-6.35-2.98-10.06-8.17-10.06-3.05 0-5.03 1.43-6.3 3.89h-.19l-.42-3.35H3.45zm8.8-9.24c-3.9 0-5.83-3.03-5.83-7.4 0-4.35 1.92-7.38 5.83-7.38 3.81 0 5.72 2.42 5.72 7.39s-1.9 7.39-5.72 7.39zm0 0"/></symbol><symbol overflow="visible" id="61447de6aa"><path d="M19.84 0h3.24l-5.25-25.69h-4.08L-.8 0h3.47l3.2-5.77h12.9zM7.31-8.38l8.05-14.48h.17L18.3-8.38zm0 0"/></symbol><symbol overflow="visible" id="61447de6ab"><path d="M17.48-2.7l2.88-16.35H7.08c-.66 3.28-1.35 7.02-2.03 9.66C4.13-5.91 2.8-3.8 1.59-2.7H-.83l-1.36 7.76H.67L1.57 0h15.46l-.9 5.06H19l1.36-7.76zm-12.57 0C6.2-4.2 7.06-6.28 7.8-9.2c.47-1.9 1.04-4.64 1.58-7.25h7.51L14.45-2.7zm0 0"/></symbol><symbol overflow="visible" id="61447de6ac"><path d="M7.25.53c3.3 0 5.45-1.66 6.38-3.51h.14L13.53 0h2.58l2.05-11.56c.87-5.11-1.07-8.05-6.61-8.05-4.9 0-7.07 1.97-8.14 5.72l2.98.4c.74-2.46 2.1-3.59 4.75-3.59 3.2 0 4.3 1.14 4.3 3.42 0 .66-.14 1.49-.35 2.4l-6.67.63c-4.75.47-7.36 2.15-7.36 6C1.06-1.52 3.28.54 7.25.54zm.63-2.5c-2.4 0-3.7-1-3.7-2.94 0-2.26 1.59-3.14 4.38-3.43l6.11-.61-.33 1.8a6.47 6.47 0 01-6.46 5.18zm0 0"/></symbol><symbol overflow="visible" id="61447de6ad"><path d="M21.25-19.05H5.15L1.74 0h3.08l2.9-16.28h9.94L14.78 0h3.08zm0 0"/></symbol><symbol overflow="visible" id="61447de6ae"><path d="M17.97-19.05H1.98l-.48 2.68h6.48L5.06 0h3.08l2.92-16.38h6.42zm0 0"/></symbol><symbol overflow="visible" id="61447de6af"><path d="M19.05-8.56c.25-1.28.4-2.75.4-3.83 0-4.44-2.64-7.22-7.39-7.22-5.22 0-8.95 3.38-10.04 9.67C.92-3.77 3.5.55 9.64.55c4.98 0 7.19-2.08 8.44-5.35l-2.97-.33c-.92 1.9-2.38 3.04-5.25 3.04-4.23 0-5.33-3.02-4.98-6.47zm-7.18-8.49c3.9 0 5.04 2.38 4.58 6.13H5.31c1.07-4.11 3.14-6.13 6.57-6.13zm0 0"/></symbol><symbol overflow="visible" id="61447de6ag"><path d="M.53 7.1H3.6L5.45-3.41h.17C6.2-1.56 7.58.55 11.54.55c4.99 0 8.4-3.52 9.5-9.74 1.06-6.08-1.45-10.4-7-10.4a6.87 6.87 0 00-6.34 3.57h-.16l.16-3.03H5.12zM11.2-2.1c-4.06 0-5.57-3.06-4.8-7.48.72-4.37 2.7-7.34 6.79-7.34 4.34 0 5.54 3.1 4.75 7.5-.88 4.8-2.97 7.31-6.74 7.31zm0 0"/></symbol><symbol overflow="visible" id="61447de6ah"><path d="M21.17 0h4.02l-9.66-25.69h-4.97L.8 0h3.93l2.04-5.58h12.42zM7.86-8.6l5.06-13.95h.17l5 13.94zm0 0"/></symbol><symbol overflow="visible" id="61447de6ai"><path d="M19.19-3.16V-19.1H5.39c-.03 3.3-.1 6.22-.33 8.9-.28 3.37-1.18 5.98-2.17 7.05H.36v8.22h3.37V0h15.05v5.06h3.38v-8.22zm-12.7 0c1-1.46 1.62-4.07 1.84-6.87.1-1.69.22-3.83.28-6.08h7.03v12.95zm0 0"/></symbol><symbol overflow="visible" id="61447de6aj"><path d="M8.22.5c3.14 0 5.25-1.22 6.22-3.36h.19L14.97 0h3.08v-12.95c0-4.6-2.68-6.74-7.64-6.74-5.2 0-7.31 2.2-7.89 5.97l3.55.3c.36-2.06 1.4-3.33 4.31-3.33 2.9 0 4.16 1.22 4.16 3.97v1.12l-6.22.8c-4.64.58-6.63 2.31-6.63 5.83C1.7-1.63 3.9.5 8.22.5zm.9-2.9C6.45-2.4 5.4-3.54 5.4-5.27c0-1.67.94-2.58 3.3-2.9l5.86-.84v1.63c0 2.83-1.93 5-5.43 5zm0 0"/></symbol><symbol overflow="visible" id="61447de6ak"><path d="M19.88-19.1H3.32V0h3.62v-15.9h9.3V0h3.63zm0 0"/></symbol><symbol overflow="visible" id="61447de6al"><path d="M16.64-19.1H.36v3.1h6.33V0h3.62v-16h6.33zm0 0"/></symbol><symbol overflow="visible" id="61447de6am"><path d="M19.4-8.44v-2.01c0-5.88-3.23-9.24-8.65-9.24-5.44 0-8.94 3.55-8.94 10.17C1.81-3.3 4.92.55 11 .55c4.9 0 7.23-2.17 8.08-5.47l-3.6-.36c-.57 1.66-1.87 2.75-4.51 2.75-3.33 0-5.14-1.95-5.44-5.9zm-8.65-8.28c3.3 0 4.9 1.88 5.06 5.58H5.58c.36-3.81 2.1-5.58 5.17-5.58zm0 0"/></symbol><symbol overflow="visible" id="61447de6an"><path d="M3.33 7.06h3.62v-10.1h.17C8.18-.78 10.18.54 13.1.54c5.3 0 8.3-3.74 8.3-10.1 0-6.37-3-10.1-8.1-10.1-3 0-4.93 1.3-6.23 3.84h-.18l-.47-3.3H3.33zm8.94-9.6c-3.61 0-5.4-2.71-5.4-7 0-4.35 1.79-7.04 5.4-7.04 3.62 0 5.43 2.31 5.43 7.03 0 4.7-1.8 7.02-5.43 7.02zm0 0"/></symbol><symbol overflow="visible" id="61447de6ar"><path d="M19.66 0h3.82L18.4-25.69h-4.97L-.9 0h4.13l3-5.53h12.45zM7.89-8.6l7.56-13.95h.2L18.11-8.6zm0 0"/></symbol><symbol overflow="visible" id="61447de6as"><path d="M18.06-3.16l2.82-15.95H7.09c-.6 3.3-1.18 6.6-1.87 9.27-.9 3.36-2.28 5.6-3.45 6.68H-.77L-2.2 5.06h3.36L2.06 0h15.06l-.9 5.06h3.36l1.45-8.22zm-12.48 0c1.37-1.57 2.12-3.6 2.86-6.5.42-1.75.9-4.06 1.37-6.45h6.99L14.52-3.16zm0 0"/></symbol><symbol overflow="visible" id="61447de6at"><path d="M7.2.5c3.2 0 5.2-1.52 6.08-3.36h.19L13.28 0h3.08l2.03-11.44c.9-5.14-.98-8.25-6.78-8.25-5.02 0-7.22 1.92-8.25 5.8l3.52.47c.64-2.36 1.96-3.33 4.23-3.33 3.08 0 4.05 1 4.05 3.14 0 .72-.14 1.38-.32 2.25l-6.48.61C3.58-10.28.98-8.65.98-4.73.98-1.67 3.16.5 7.2.5zm.83-2.9c-2.17 0-3.36-.9-3.36-2.7 0-2.03 1.49-2.8 3.94-3.04l5.77-.58-.3 1.52c-.55 2.93-3.05 4.8-6.05 4.8zm0 0"/></symbol><symbol overflow="visible" id="61447de6au"><path d="M21.56-19.1H5.03L1.63 0h3.62l2.83-15.9h9.3L14.54 0h3.62zm0 0"/></symbol><symbol overflow="visible" id="61447de6av"><path d="M18.34-19.1H2.06L1.48-16h6.38L5 0h3.6l2.87-16h6.3zm0 0"/></symbol><symbol overflow="visible" id="61447de6aw"><path d="M19.22-8.44c.25-1.4.39-2.89.39-4.08 0-4.3-2.7-7.17-7.52-7.17-5.3 0-9.09 3.3-10.21 9.7C.8-3.68 3.46.56 9.66.56c5.3 0 7.42-2.17 8.65-5.47l-3.51-.36c-.86 1.66-2.2 2.75-4.88 2.75-4.01 0-4.86-2.94-4.64-5.9zm-7.4-8.28c3.63 0 4.68 2.14 4.32 5.58H5.8c1-3.81 2.92-5.58 6.03-5.58zm0 0"/></symbol><symbol overflow="visible" id="61447de6ax"><path d="M.4 7.06h3.62L5.86-3.4h.19c.5 1.85 1.8 3.96 5.72 3.96 5.03 0 8.42-3.52 9.51-9.78 1.08-6.25-1.62-10.43-6.95-10.43a6.77 6.77 0 00-6.22 3.49h-.19l.16-2.94H5zm10.79-9.6c-3.66 0-5.08-2.82-4.4-7 .74-4.35 2.55-7.04 6.41-7.04 4.07 0 5.22 2.86 4.46 6.99-.86 4.64-2.68 7.06-6.47 7.06zm0 0"/></symbol><symbol overflow="visible" id="61447de6ay"><path d="M20.75 0h4.97l-9.27-25.69h-6.37L.73 0h4.75l1.83-5.22h11.67zM8.48-8.81l4.61-13.27h.2L17.82-8.8zm0 0"/></symbol><symbol overflow="visible" id="61447de6az"><path d="M19.92-3.75v-15.4H5.34c-.06 3.09-.15 6-.37 8.63-.28 3.22-1.13 5.68-2.1 6.77H.33v8.81h4.15V0h14.2v5.06h4.2v-8.81zM7.11-3.7c.94-1.52 1.55-3.92 1.73-6.5.11-1.5.22-3.4.3-5.4h6.45v11.9zm0 0"/></symbol><symbol overflow="visible" id="61447de6aA"><path d="M8.13.5c3.09 0 5.17-1.22 6.15-3.31h.19L14.89 0h3.88v-12.84c0-4.74-2.82-6.93-8.08-6.93-5.64 0-7.78 2.27-8.4 6.14l4.4.4c.34-1.93 1.3-3.07 3.92-3.07s3.77 1.1 3.77 3.52v1.03l-6.27.8c-4.7.56-6.64 2.39-6.64 5.84C1.47-1.62 3.73.5 8.13.5zm1.32-3.34c-2.42 0-3.39-1.02-3.39-2.61 0-1.5.85-2.28 3.02-2.58l5.3-.75v1.5c0 2.51-1.76 4.44-4.93 4.44zm0 0"/></symbol><symbol overflow="visible" id="61447de6aB"><path d="M20.52-19.16H3.06V0h4.52v-15.34H16V0h4.52zm0 0"/></symbol><symbol overflow="visible" id="61447de6aC"><path d="M17.3-19.16H.36v3.7h6.2V0h4.53v-15.45h6.2zm0 0"/></symbol><symbol overflow="visible" id="61447de6aD"><path d="M19.94-8.25v-2.19c0-5.9-3.33-9.33-9.05-9.33-5.73 0-9.33 3.63-9.33 10.22C1.56-3.28 4.81.55 11.1.55c5.25 0 7.7-2.17 8.58-5.66l-4.36-.4c-.53 1.54-1.73 2.53-4.19 2.53-3 0-4.64-1.7-4.95-5.27zm-9.02-8.05c3 0 4.44 1.68 4.63 4.97H6.2c.36-3.42 1.92-4.97 4.72-4.97zm0 0"/></symbol><symbol overflow="visible" id="61447de6aE"><path d="M3.06 7.06h4.52v-10.1h.2c1 2.23 2.94 3.59 5.95 3.59 5.18 0 8.16-3.77 8.16-10.13 0-6.34-2.98-10.12-8.02-10.12a6.3 6.3 0 00-6.18 3.89h-.2l-.52-3.35h-3.9zm9.31-10.22c-3.3 0-4.85-2.42-4.85-6.42 0-4.04 1.54-6.44 4.86-6.44 3.32 0 4.9 2.13 4.9 6.44 0 4.31-1.58 6.42-4.9 6.42zm0 0"/></symbol><symbol overflow="visible" id="61447de6aI"><path d="M19.27 0h4.75l-4.7-25.69h-6.38L-.96 0h5l2.73-5.19h11.67zM8.6-8.81l6.97-13.27h.2L17.92-8.8zm0 0"/></symbol><symbol overflow="visible" id="61447de6aJ"><path d="M18.9-3.75l2.73-15.4H7.03c-.6 3.09-1.17 6.35-1.86 9-.89 3.21-2.17 5.3-3.31 6.4H-.7l-1.57 8.81h4.2L2.82 0h14.2l-.9 5.06h4.17l1.54-8.81zM6.3-3.7C7.58-5.27 8.3-7.2 8.97-9.84c.4-1.57.84-3.63 1.26-5.77h6.44l-2.1 11.9zm0 0"/></symbol><symbol overflow="visible" id="61447de6aK"><path d="M7.08.5c3.36 0 5.17-1.55 6.04-3.31h.2L13.22 0h3.83l1.97-11.2c.99-5.47-1.1-8.57-7.17-8.57-5.47 0-7.67 1.99-8.78 5.99l4.34.55c.56-2.13 1.7-3.07 3.88-3.07 2.78 0 3.65.94 3.65 2.83 0 .66-.14 1.24-.3 1.99l-6.4.59C3.31-10.42.73-8.7.73-4.83.73-1.63 2.97.5 7.08.5zm1.36-3.34c-2.03 0-3.1-.83-3.1-2.44 0-1.8 1.3-2.47 3.57-2.7l5.21-.54-.23 1.32c-.5 2.75-2.69 4.36-5.45 4.36zm0 0"/></symbol><symbol overflow="visible" id="61447de6aL"><path d="M22.22-19.16H4.77L1.36 0h4.51l2.74-15.34H17L14.3 0h4.51zm0 0"/></symbol><symbol overflow="visible" id="61447de6aM"><path d="M19-19.16H2.06l-.67 3.7h6.24L4.88 0h4.51l2.75-15.45h6.19zm0 0"/></symbol><symbol overflow="visible" id="61447de6aN"><path d="M19.72-8.25c.3-1.52.44-2.94.44-4.16 0-4.42-2.86-7.36-7.93-7.36-5.6 0-9.48 3.36-10.59 9.7C.54-3.63 3.36.54 9.86.54c5.33 0 7.77-2.14 9.05-5.57l-4.3-.5c-.83 1.55-2.02 2.54-4.47 2.54-3.62 0-4.42-2.54-4.27-5.27zM11.9-16.3c3.28 0 4.25 1.9 3.96 4.97H6.45c.92-3.42 2.62-4.97 5.47-4.97zm0 0"/></symbol><symbol overflow="visible" id="61447de6aO"><path d="M.13 7.06h4.53L6.5-3.4h.19c.5 1.82 1.8 3.96 5.68 3.96 5 0 8.38-3.61 9.44-9.86 1.03-6.17-1.48-10.4-6.81-10.4-3.36 0-5.03 1.63-6.2 3.54h-.2l.06-2.99H4.73zm11.3-10.22c-3.35 0-4.6-2.56-3.98-6.42.7-4.04 2.3-6.44 5.8-6.44 3.72 0 4.72 2.63 4.02 6.41-.8 4.25-2.4 6.45-5.85 6.45zm0 0"/></symbol><symbol overflow="visible" id="61447de6aP"><path d="M20.34 0h5.88l-8.83-25.69H9.58L.68 0h5.54l1.6-4.88h10.95zM9.13-9.03l4.15-12.58h.22l4.02 12.58zm0 0"/></symbol><symbol overflow="visible" id="61447de6aQ"><path d="M20.67-4.34v-14.88H5.28c-.06 2.92-.16 5.81-.39 8.38-.3 3.07-1.1 5.37-2.03 6.5H.26v9.4h5V0h13.37v5.06h4.96v-9.4zm-12.92.07c.88-1.53 1.42-3.75 1.63-6.14.09-1.28.2-2.96.26-4.7h5.9v10.84zm0 0"/></symbol><symbol overflow="visible" id="61447de6aR"><path d="M8.05.5c3.04 0 5.1-1.22 6.07-3.27h.22L14.81 0h4.64v-12.72c0-4.87-2.89-7.1-8.48-7.1-6.08 0-8.25 2.3-8.9 6.3l5.23.49c.33-1.83 1.18-2.8 3.54-2.8 2.35 0 3.33.96 3.33 3.08v.94l-6.3.75c-4.76.56-6.64 2.48-6.64 5.89C1.23-1.63 3.56.5 8.05.5zm1.72-3.8c-2.14 0-3.04-.89-3.04-2.3 0-1.35.79-2 2.77-2.3l4.67-.65v1.4c0 2.2-1.54 3.85-4.4 3.85zm0 0"/></symbol><symbol overflow="visible" id="61447de6aS"><path d="M21.17-19.22H2.81V0h5.42v-14.8h7.52V0h5.42zm0 0"/></symbol><symbol overflow="visible" id="61447de6aT"><path d="M17.97-19.22H.36v4.33h6.08V0h5.43v-14.9h6.1zm0 0"/></symbol><symbol overflow="visible" id="61447de6aU"><path d="M20.5-8.08v-2.34c0-5.94-3.45-9.4-9.47-9.4-6.01 0-9.7 3.66-9.7 10.23C1.33-3.23 4.7.55 11.2.55c5.61 0 8.13-2.2 9.05-5.83l-5.1-.47c-.5 1.47-1.62 2.31-3.85 2.31-2.7 0-4.16-1.45-4.47-4.64zm-9.4-7.81c2.68 0 3.98 1.48 4.17 4.36H6.84c.35-3 1.72-4.36 4.25-4.36zm0 0"/></symbol><symbol overflow="visible" id="61447de6aV"><path d="M2.81 7.06h5.42v-10.1h.22c.9 2.2 2.78 3.59 5.93 3.59 5.06 0 8.01-3.8 8.01-10.16 0-6.33-2.95-10.16-7.94-10.16-3.23 0-5.1 1.58-6.14 3.94H8.1l-.54-3.39H2.8zM12.5-3.77c-3.02 0-4.34-2.14-4.34-5.84 0-3.73 1.32-5.84 4.34-5.84 3.03 0 4.4 1.92 4.4 5.84s-1.37 5.84-4.4 5.84zm0 0"/></symbol><symbol overflow="visible" id="61447de6aX"><path d="M18.88 0h5.64l-4.24-25.69h-7.84L-1.02 0h5.85L7.3-4.84h10.9zM9.3-9.03l6.4-12.58h.2l1.76 12.58zm0 0"/></symbol><symbol overflow="visible" id="61447de6aY"><path d="M19.73-4.34l2.66-14.88H7c-.6 2.92-1.19 6.17-1.88 8.74-.85 3.09-2.06 5.03-3.18 6.14h-2.6l-1.64 9.4h4.97L3.57 0h13.37l-.9 5.06h4.98l1.65-9.4zm-12.71.07c1.18-1.5 1.89-3.32 2.51-5.78.35-1.32.75-3.15 1.13-5.06h5.86l-1.9 10.84zm0 0"/></symbol><symbol overflow="visible" id="61447de6aZ"><path d="M6.94.48c3.54 0 5.15-1.56 6.03-3.25h.22V0h4.56l1.95-10.98c1.02-5.77-1.26-8.85-7.6-8.85-5.91 0-8.16 2-9.33 6.17l5.2.63c.48-1.92 1.42-2.8 3.48-2.8 2.5 0 3.28.85 3.28 2.52 0 .58-.1 1.08-.23 1.7l-6.38.6c-5.1.46-7.59 2.28-7.59 6.1C.53-1.59 2.81.5 6.93.5zM8.83-3.3c-1.9 0-2.8-.75-2.8-2.17 0-1.55 1.11-2.12 3.16-2.34l4.73-.5-.22 1.1c-.45 2.58-2.36 3.91-4.87 3.91zm0 0"/></symbol><symbol overflow="visible" id="61447de6ba"><path d="M22.88-19.22H4.5L1.1 0h5.43l2.63-14.8h7.51L14.05 0h5.42zm0 0"/></symbol><symbol overflow="visible" id="61447de6bb"><path d="M19.67-19.22H2.07l-.79 4.33h6.13L4.73 0h5.44l2.66-14.9h6.06zm0 0"/></symbol><symbol overflow="visible" id="61447de6bc"><path d="M20.22-8.08c.34-1.62.47-2.98.47-4.23 0-4.52-2.97-7.52-8.32-7.52-5.93 0-9.85 3.38-10.96 9.66C.25-3.55 3.25.55 10.08.55c5.34 0 8.08-2.08 9.42-5.67l-5.1-.63c-.76 1.47-1.82 2.31-4.06 2.31-3.21 0-3.96-2.14-3.89-4.6zm-8.24-7.81c2.93 0 3.85 1.66 3.63 4.36H7.09c.85-3 2.32-4.36 4.9-4.36zm0 0"/></symbol><symbol overflow="visible" id="61447de6bd"><path d="M-.13 7.06H5.3L7.14-3.4h.22C7.8-1.62 9.1.55 13 .55c4.95 0 8.31-3.72 9.33-9.97 1-6.05-1.35-10.35-6.64-10.35-3.36 0-4.97 1.61-6.2 3.58h-.2l-.06-3.03H4.48zM11.64-3.77c-3.05 0-4.1-2.3-3.52-5.84.61-3.73 2.05-5.84 5.18-5.84 3.37 0 4.2 2.37 3.56 5.8-.7 3.9-2.1 5.88-5.22 5.88zm0 0"/></symbol><symbol overflow="visible" id="61447de6be"><path d="M19.83 0h7.03L18.5-25.69H9L.6 0h6.5l1.38-4.44h10.05zM9.88-9.27l3.62-11.78h.23l3.44 11.78zm0 0"/></symbol><symbol overflow="visible" id="61447de6bf"><path d="M21.55-5.06V-19.3H5.22c-.1 2.7-.2 5.57-.44 8.1-.3 2.89-1.03 5-1.94 6.14H.24V5.06h5.93V0h12.35v5.06h5.95V-5.06zM8.5-4.94c.8-1.54 1.33-3.53 1.5-5.68.1-1.05.2-2.44.28-3.91h5.22v9.6zm0 0"/></symbol><symbol overflow="visible" id="61447de6bg"><path d="M7.94.5c2.97 0 5.01-1.22 6-3.2h.23l.55 2.7h5.58v-12.6c0-5-3.05-7.32-9-7.32-6.61 0-8.82 2.39-9.53 6.51l6.26.61c.31-1.65 1.03-2.5 3.06-2.5 2.04 0 2.86.83 2.86 2.55v.83l-6.32.75c-4.86.54-6.7 2.58-6.7 5.9C.94-1.63 3.35.5 7.94.5zm2.23-4.34c-1.83 0-2.64-.7-2.64-1.96 0-1.15.67-1.65 2.44-1.9l3.98-.55v1.23c0 1.83-1.32 3.18-3.78 3.18zm0 0"/></symbol><symbol overflow="visible" id="61447de6bh"><path d="M21.95-19.3H2.48V0H9v-14.16h6.44V0h6.51zm0 0"/></symbol><symbol overflow="visible" id="61447de6bi"><path d="M18.75-19.3H.35v5.07H6.3V0h6.51v-14.23h5.94zm0 0"/></symbol><symbol overflow="visible" id="61447de6bj"><path d="M21.16-7.83v-2.58c0-5.96-3.58-9.51-9.94-9.51-6.4 0-10.2 3.76-10.2 10.3C1.02-3.22 4.58.54 11.32.54c6.04 0 8.66-2.2 9.65-6.05l-6.05-.55c-.42 1.35-1.42 2.07-3.44 2.07-2.3 0-3.56-1.16-3.9-3.85zm-9.85-7.54c2.33 0 3.44 1.21 3.64 3.62H7.6c.35-2.55 1.52-3.63 3.72-3.63zm0 0"/></symbol><symbol overflow="visible" id="61447de6bk"><path d="M2.48 7.06H9v-10.1h.23C10.08-.93 11.9.54 15.13.54 20.05.55 23-3.3 23-9.63c0-6.3-2.94-10.2-7.81-10.2-3.4 0-5.22 1.75-6.13 4h-.23l-.61-3.47H2.48zM12.62-4.5c-2.64 0-3.7-1.8-3.7-5.13 0-3.39 1.06-5.15 3.7-5.15 2.7 0 3.76 1.69 3.76 5.15 0 3.44-1.07 5.13-3.75 5.13zm0 0"/></symbol><symbol overflow="visible" id="61447de6bl"><path d="M18.42 0h6.74L21.4-25.69h-9.55L-1.08 0h6.9l2.12-4.44h9.98zM10.2-9.27l5.65-11.78h.25l1.33 11.78zm0 0"/></symbol><symbol overflow="visible" id="61447de6bm"><path d="M20.73-5.06l2.54-14.24H6.94c-.57 2.7-1.17 5.93-1.86 8.46-.83 2.92-1.92 4.65-3.03 5.78H-.58l-1.8 10.12h5.96L4.48 0h12.35l-.9 5.06h5.95l1.78-10.12zM7.9-4.94a15.43 15.43 0 002.3-5.33c.31-1.1.65-2.64 1-4.26h5.19l-1.7 9.6zm0 0"/></symbol><symbol overflow="visible" id="61447de6bn"><path d="M6.78.48c3.77 0 5.11-1.6 6-3.18h.24l.1 2.7h5.49l1.87-10.69c1.11-6.17-1.4-9.23-8.1-9.23-6.43 0-8.7 2.08-9.96 6.39l6.19.73c.42-1.64 1.1-2.5 3.06-2.5 2.16 0 2.8.77 2.8 2.16 0 .48-.08.9-.19 1.37L8-11.2C2.7-10.73.23-8.78.23-5.02.23-1.56 2.6.48 6.78.48zM9.3-3.84c-1.72 0-2.47-.66-2.47-1.85 0-1.26.9-1.73 2.7-1.93l4.1-.46-.15.88c-.42 2.36-1.93 3.36-4.18 3.36zm0 0"/></symbol><symbol overflow="visible" id="61447de6bo"><path d="M23.66-19.3H4.19L.79 0h6.5l2.52-14.16h6.42L13.73 0h6.52zm0 0"/></symbol><symbol overflow="visible" id="61447de6bp"><path d="M20.45-19.3H2.06l-.89 5.07h5.94L4.59 0h6.52l2.52-14.23h5.93zm0 0"/></symbol><symbol overflow="visible" id="61447de6bq"><path d="M20.83-7.86c.37-1.75.5-3.01.5-4.31 0-4.66-3.14-7.75-8.77-7.75-6.34 0-10.36 3.45-11.44 9.64-1.2 6.83 2 10.83 9.2 10.83 5.38 0 8.48-2.05 9.91-5.78l-6.07-.82c-.7 1.35-1.58 2.07-3.55 2.07-2.73 0-3.47-1.66-3.42-3.85zm-8.77-7.51c2.52 0 3.36 1.34 3.24 3.62H7.87c.74-2.55 1.96-3.63 4.2-3.63zm0 0"/></symbol><symbol overflow="visible" id="61447de6br"><path d="M-.45 7.06h6.51L7.91-3.4h.23C8.58-1.67 9.86.55 13.74.55c4.9 0 8.24-3.83 9.23-10.08.92-5.94-1.19-10.3-6.49-10.3-3.36 0-4.89 1.56-6.17 3.64h-.23l-.16-3.1H4.2zM11.92-4.5c-2.67 0-3.54-2-3.01-5.13.57-3.39 1.76-5.15 4.43-5.15 2.99 0 3.61 2.1 3.05 5.12-.62 3.44-1.75 5.16-4.47 5.16zm0 0"/></symbol></defs><use xlink:href="#61447de6a" x="26.72542" y="153.14347"/><use xlink:href="#61447de6b" x="51.69522" y="153.14347"/><use xlink:href="#61447de6c" x="73.54902" y="153.14347"/><use xlink:href="#61447de6d" x="94.14882" y="153.14347"/><use xlink:href="#61447de6e" x="116.76262" y="153.14347"/><use xlink:href="#61447de6f" x="132.49842" y="153.14347"/><use xlink:href="#61447de6g" x="153.40222" y="153.14347"/><g fill-opacity=".33"><use xlink:href="#61447de6h" x="48.12542" y="187.2869"/><use xlink:href="#61447de6i" x="54.79242" y="187.2869"/><use xlink:href="#61447de6j" x="61.45942" y="187.2869"/><use xlink:href="#61447de6k" x="68.12642" y="187.2869"/><use xlink:href="#61447de6l" x="74.79342" y="187.2869"/><use xlink:href="#61447de6h" x="81.46042" y="187.2869"/><use xlink:href="#61447de6m" x="88.12742" y="187.2869"/><use xlink:href="#61447de6k" x="94.79442" y="187.2869"/><use xlink:href="#61447de6l" x="101.46142" y="187.2869"/><use xlink:href="#61447de6n" x="108.12842" y="187.2869"/><use xlink:href="#61447de6o" x="114.79542" y="187.2869"/><use xlink:href="#61447de6p" x="121.46242" y="187.2869"/><use xlink:href="#61447de6q" x="128.12942" y="187.2869"/><use xlink:href="#61447de6r" x="134.79642" y="187.2869"/><use xlink:href="#61447de6s" x="141.46342" y="187.2869"/><use xlink:href="#61447de6l" x="148.13042" y="187.2869"/></g><use xlink:href="#61447de6t" x="223.81696" y="153.14347"/><use xlink:href="#61447de6u" x="248.78676" y="153.14347"/><use xlink:href="#61447de6v" x="270.64056" y="153.14347"/><use xlink:href="#61447de6w" x="291.24036" y="153.14347"/><use xlink:href="#61447de6x" x="313.85416" y="153.14347"/><use xlink:href="#61447de6y" x="329.58996" y="153.14347"/><use xlink:href="#61447de6z" x="350.49376" y="153.14347"/><g fill-opacity=".33"><use xlink:href="#61447de6h" x="221.87458" y="187.2869"/><use xlink:href="#61447de6i" x="228.54158" y="187.2869"/><use xlink:href="#61447de6j" x="235.20858" y="187.2869"/><use xlink:href="#61447de6k" x="241.87558" y="187.2869"/><use xlink:href="#61447de6l" x="248.54258" y="187.2869"/><use xlink:href="#61447de6h" x="255.20958" y="187.2869"/><use xlink:href="#61447de6m" x="261.87658" y="187.2869"/><use xlink:href="#61447de6k" x="268.54358" y="187.2869"/><use xlink:href="#61447de6l" x="275.21058" y="187.2869"/><use xlink:href="#61447de6n" x="281.87758" y="187.2869"/><use xlink:href="#61447de6o" x="288.54458" y="187.2869"/><use xlink:href="#61447de6p" x="295.21158" y="187.2869"/><use xlink:href="#61447de6q" x="301.87858" y="187.2869"/><use xlink:href="#61447de6r" x="308.54558" y="187.2869"/><use xlink:href="#61447de6s" x="315.21258" y="187.2869"/><use xlink:href="#61447de6l" x="321.87958" y="187.2869"/><use xlink:href="#61447de6h" x="328.54658" y="187.2869"/><use xlink:href="#61447de6A" x="335.21358" y="187.2869"/><use xlink:href="#61447de6l" x="341.88058" y="187.2869"/><use xlink:href="#61447de6o" x="348.54758" y="187.2869"/><use xlink:href="#61447de6p" x="355.21458" y="187.2869"/><use xlink:href="#61447de6q" x="361.88158" y="187.2869"/><use xlink:href="#61447de6B" x="368.54858" y="187.2869"/></g><use xlink:href="#61447de6C" x="25.79351" y="254.76227"/><use xlink:href="#61447de6D" x="51.10911" y="254.76227"/><use xlink:href="#61447de6E" x="73.49111" y="254.76227"/><use xlink:href="#61447de6F" x="94.22771" y="254.76227"/><use xlink:href="#61447de6G" x="117.04671" y="254.76227"/><use xlink:href="#61447de6H" x="133.20431" y="254.76227"/><use xlink:href="#61447de6I" x="154.21451" y="254.76227"/><g fill-opacity=".33"><use xlink:href="#61447de6h" x="64.79208" y="288.9057"/><use xlink:href="#61447de6i" x="71.45908" y="288.9057"/><use xlink:href="#61447de6j" x="78.12608" y="288.9057"/><use xlink:href="#61447de6k" x="84.79308" y="288.9057"/><use xlink:href="#61447de6l" x="91.46008" y="288.9057"/><use xlink:href="#61447de6h" x="98.12708" y="288.9057"/><use xlink:href="#61447de6J" x="104.79408" y="288.9057"/><use xlink:href="#61447de6q" x="111.46108" y="288.9057"/><use xlink:href="#61447de6r" x="118.12808" y="288.9057"/><use xlink:href="#61447de6s" x="124.79508" y="288.9057"/><use xlink:href="#61447de6l" x="131.46208" y="288.9057"/></g><use xlink:href="#61447de6K" x="222.88506" y="254.76227"/><use xlink:href="#61447de6L" x="248.20066" y="254.76227"/><use xlink:href="#61447de6M" x="270.58266" y="254.76227"/><use xlink:href="#61447de6N" x="291.31926" y="254.76227"/><use xlink:href="#61447de6O" x="314.13826" y="254.76227"/><use xlink:href="#61447de6P" x="330.29586" y="254.76227"/><use xlink:href="#61447de6Q" x="351.30606" y="254.76227"/><g fill-opacity=".33"><use xlink:href="#61447de6h" x="238.54125" y="288.9057"/><use xlink:href="#61447de6i" x="245.20825" y="288.9057"/><use xlink:href="#61447de6j" x="251.87525" y="288.9057"/><use xlink:href="#61447de6k" x="258.54225" y="288.9057"/><use xlink:href="#61447de6l" x="265.20925" y="288.9057"/><use xlink:href="#61447de6h" x="271.87625" y="288.9057"/><use xlink:href="#61447de6J" x="278.54325" y="288.9057"/><use xlink:href="#61447de6q" x="285.21025" y="288.9057"/><use xlink:href="#61447de6r" x="291.87725" y="288.9057"/><use xlink:href="#61447de6s" x="298.54425" y="288.9057"/><use xlink:href="#61447de6l" x="305.21125" y="288.9057"/><use xlink:href="#61447de6h" x="311.87825" y="288.9057"/><use xlink:href="#61447de6A" x="318.54525" y="288.9057"/><use xlink:href="#61447de6l" x="325.21225" y="288.9057"/><use xlink:href="#61447de6o" x="331.87925" y="288.9057"/><use xlink:href="#61447de6p" x="338.54625" y="288.9057"/><use xlink:href="#61447de6q" x="345.21325" y="288.9057"/><use xlink:href="#61447de6B" x="351.88025" y="288.9057"/></g><use xlink:href="#61447de6R" x="24.87065" y="356.38117"/><use xlink:href="#61447de6S" x="50.51305" y="356.38117"/><use xlink:href="#61447de6T" x="73.41945" y="356.38117"/><use xlink:href="#61447de6U" x="94.31185" y="356.38117"/><use xlink:href="#61447de6V" x="117.29425" y="356.38117"/><use xlink:href="#61447de6W" x="133.89265" y="356.38117"/><use xlink:href="#61447de6X" x="155.01305" y="356.38117"/><g fill-opacity=".33"><use xlink:href="#61447de6h" x="58.12542" y="390.5246"/><use xlink:href="#61447de6i" x="64.79242" y="390.5246"/><use xlink:href="#61447de6j" x="71.45942" y="390.5246"/><use xlink:href="#61447de6k" x="78.12642" y="390.5246"/><use xlink:href="#61447de6l" x="84.79342" y="390.5246"/><use xlink:href="#61447de6h" x="91.46042" y="390.5246"/><use xlink:href="#61447de6Y" x="98.12742" y="390.5246"/><use xlink:href="#61447de6j" x="104.79442" y="390.5246"/><use xlink:href="#61447de6r" x="111.46142" y="390.5246"/><use xlink:href="#61447de6Z" x="118.12842" y="390.5246"/><use xlink:href="#61447de6p" x="124.79542" y="390.5246"/><use xlink:href="#61447de6o" x="131.46242" y="390.5246"/><use xlink:href="#61447de6n" x="138.12942" y="390.5246"/></g><use xlink:href="#61447de6aa" x="221.9803" y="356.38117"/><use xlink:href="#61447de6ab" x="247.6227" y="356.38117"/><use xlink:href="#61447de6ac" x="270.5139" y="356.38117"/><use xlink:href="#61447de6ad" x="291.3759" y="356.38117"/><use xlink:href="#61447de6ae" x="314.3735" y="356.38117"/><use xlink:href="#61447de6af" x="330.9681" y="356.38117"/><use xlink:href="#61447de6ag" x="352.0847" y="356.38117"/><g fill-opacity=".33"><use xlink:href="#61447de6h" x="258.54125" y="390.5246"/><use xlink:href="#61447de6i" x="265.20825" y="390.5246"/><use xlink:href="#61447de6j" x="271.87525" y="390.5246"/><use xlink:href="#61447de6k" x="278.54225" y="390.5246"/><use xlink:href="#61447de6l" x="285.20925" y="390.5246"/><use xlink:href="#61447de6h" x="291.87625" y="390.5246"/><use xlink:href="#61447de6A" x="298.54325" y="390.5246"/><use xlink:href="#61447de6l" x="305.21025" y="390.5246"/><use xlink:href="#61447de6o" x="311.87725" y="390.5246"/><use xlink:href="#61447de6p" x="318.54425" y="390.5246"/><use xlink:href="#61447de6q" x="325.21125" y="390.5246"/><use xlink:href="#61447de6B" x="331.87825" y="390.5246"/></g><use xlink:href="#61447de6ah" x="23.93875" y="457.99997"/><use xlink:href="#61447de6ai" x="49.92315" y="457.99997"/><use xlink:href="#61447de6aj" x="73.32355" y="457.99997"/><use xlink:href="#61447de6ak" x="94.36795" y="457.99997"/><use xlink:href="#61447de6al" x="117.57835" y="457.99997"/><use xlink:href="#61447de6am" x="134.59475" y="457.99997"/><use xlink:href="#61447de6an" x="155.79115" y="457.99997"/><g fill-opacity=".33"><use xlink:href="#61447de6h" x="61.45875" y="492.1434"/><use xlink:href="#61447de6i" x="68.12575" y="492.1434"/><use xlink:href="#61447de6j" x="74.79275" y="492.1434"/><use xlink:href="#61447de6k" x="81.45975" y="492.1434"/><use xlink:href="#61447de6l" x="88.12675" y="492.1434"/><use xlink:href="#61447de6h" x="94.79375" y="492.1434"/><use xlink:href="#61447de6ao" x="101.46075" y="492.1434"/><use xlink:href="#61447de6j" x="108.12775" y="492.1434"/><use xlink:href="#61447de6ap" x="114.79475" y="492.1434"/><use xlink:href="#61447de6q" x="121.46175" y="492.1434"/><use xlink:href="#61447de6Z" x="128.12875" y="492.1434"/><use xlink:href="#61447de6aq" x="134.79575" y="492.1434"/></g><use xlink:href="#61447de6ar" x="221.04839" y="457.99997"/><use xlink:href="#61447de6as" x="247.03279" y="457.99997"/><use xlink:href="#61447de6at" x="270.43319" y="457.99997"/><use xlink:href="#61447de6au" x="291.43959" y="457.99997"/><use xlink:href="#61447de6av" x="314.64999" y="457.99997"/><use xlink:href="#61447de6aw" x="331.66639" y="457.99997"/><use xlink:href="#61447de6ax" x="352.86279" y="457.99997"/><g fill-opacity=".33"><use xlink:href="#61447de6h" x="235.20792" y="492.1434"/><use xlink:href="#61447de6i" x="241.87492" y="492.1434"/><use xlink:href="#61447de6j" x="248.54192" y="492.1434"/><use xlink:href="#61447de6k" x="255.20892" y="492.1434"/><use xlink:href="#61447de6l" x="261.87592" y="492.1434"/><use xlink:href="#61447de6h" x="268.54292" y="492.1434"/><use xlink:href="#61447de6ao" x="275.20992" y="492.1434"/><use xlink:href="#61447de6j" x="281.87692" y="492.1434"/><use xlink:href="#61447de6ap" x="288.54392" y="492.1434"/><use xlink:href="#61447de6q" x="295.21092" y="492.1434"/><use xlink:href="#61447de6Z" x="301.87792" y="492.1434"/><use xlink:href="#61447de6aq" x="308.54492" y="492.1434"/><use xlink:href="#61447de6h" x="315.21192" y="492.1434"/><use xlink:href="#61447de6A" x="321.87892" y="492.1434"/><use xlink:href="#61447de6l" x="328.54592" y="492.1434"/><use xlink:href="#61447de6o" x="335.21292" y="492.1434"/><use xlink:href="#61447de6p" x="341.87992" y="492.1434"/><use xlink:href="#61447de6q" x="348.54692" y="492.1434"/><use xlink:href="#61447de6B" x="355.21392" y="492.1434"/></g><use xlink:href="#61447de6ay" x="22.41875" y="559.61887"/><use xlink:href="#61447de6az" x="48.85535" y="559.61887"/><use xlink:href="#61447de6aA" x="72.79535" y="559.61887"/><use xlink:href="#61447de6aB" x="94.25775" y="559.61887"/><use xlink:href="#61447de6aC" x="117.83675" y="559.61887"/><use xlink:href="#61447de6aD" x="135.49915" y="559.61887"/><use xlink:href="#61447de6aE" x="157.04895" y="559.61887"/><g fill-opacity=".33"><use xlink:href="#61447de6h" x="54.79208" y="593.7623"/><use xlink:href="#61447de6i" x="61.45908" y="593.7623"/><use xlink:href="#61447de6j" x="68.12608" y="593.7623"/><use xlink:href="#61447de6k" x="74.79308" y="593.7623"/><use xlink:href="#61447de6l" x="81.46008" y="593.7623"/><use xlink:href="#61447de6h" x="88.12708" y="593.7623"/><use xlink:href="#61447de6aF" x="94.79408" y="593.7623"/><use xlink:href="#61447de6j" x="101.46108" y="593.7623"/><use xlink:href="#61447de6aq" x="108.12808" y="593.7623"/><use xlink:href="#61447de6q" x="114.79508" y="593.7623"/><use xlink:href="#61447de6aG" x="121.46208" y="593.7623"/><use xlink:href="#61447de6aH" x="128.12908" y="593.7623"/><use xlink:href="#61447de6p" x="134.79608" y="593.7623"/><use xlink:href="#61447de6ap" x="141.46308" y="593.7623"/></g><use xlink:href="#61447de6aI" x="219.5103" y="559.61887"/><use xlink:href="#61447de6aJ" x="245.9469" y="559.61887"/><use xlink:href="#61447de6aK" x="269.8869" y="559.61887"/><use xlink:href="#61447de6aL" x="291.3493" y="559.61887"/><g><use xlink:href="#61447de6aM" x="314.9283" y="559.61887"/></g><g><use xlink:href="#61447de6aN" x="332.5907" y="559.61887"/></g><g><use xlink:href="#61447de6aO" x="354.1405" y="559.61887"/></g><g fill-opacity=".33"><use xlink:href="#61447de6h" x="228.54125" y="593.7623"/><use xlink:href="#61447de6i" x="235.20825" y="593.7623"/><use xlink:href="#61447de6j" x="241.87525" y="593.7623"/><use xlink:href="#61447de6k" x="248.54225" y="593.7623"/><use xlink:href="#61447de6l" x="255.20925" y="593.7623"/><use xlink:href="#61447de6h" x="261.87625" y="593.7623"/><use xlink:href="#61447de6aF" x="268.54325" y="593.7623"/><use xlink:href="#61447de6j" x="275.21025" y="593.7623"/><use xlink:href="#61447de6aq" x="281.87725" y="593.7623"/><use xlink:href="#61447de6q" x="288.54425" y="593.7623"/><use xlink:href="#61447de6aG" x="295.21125" y="593.7623"/><use xlink:href="#61447de6aH" x="301.87825" y="593.7623"/><use xlink:href="#61447de6p" x="308.54525" y="593.7623"/><use xlink:href="#61447de6ap" x="315.21225" y="593.7623"/><use xlink:href="#61447de6h" x="321.87925" y="593.7623"/><use xlink:href="#61447de6A" x="328.54625" y="593.7623"/><use xlink:href="#61447de6l" x="335.21325" y="593.7623"/><use xlink:href="#61447de6o" x="341.88025" y="593.7623"/><use xlink:href="#61447de6p" x="348.54725" y="593.7623"/><use xlink:href="#61447de6q" x="355.21425" y="593.7623"/><use xlink:href="#61447de6B" x="361.88125" y="593.7623"/></g><g><use xlink:href="#61447de6aP" x="20.8897" y="661.23767"/></g><g><use xlink:href="#61447de6aQ" x="47.7975" y="661.23767"/></g><g><use xlink:href="#61447de6aR" x="72.2429" y="661.23767"/></g><g><use xlink:href="#61447de6aS" x="94.1385" y="661.23767"/><use xlink:href="#61447de6aT" x="118.1165" y="661.23767"/></g><g><use xlink:href="#61447de6aU" x="136.4477" y="661.23767"/></g><g><use xlink:href="#61447de6aV" x="158.3243" y="661.23767"/></g><g fill-opacity=".33"><use xlink:href="#61447de6h" x="68.12542" y="695.3811"/><use xlink:href="#61447de6i" x="74.79242" y="695.3811"/><use xlink:href="#61447de6j" x="81.45942" y="695.3811"/><use xlink:href="#61447de6k" x="88.12642" y="695.3811"/><use xlink:href="#61447de6l" x="94.79342" y="695.3811"/><use xlink:href="#61447de6h" x="101.46042" y="695.3811"/><use xlink:href="#61447de6aW" x="108.12742" y="695.3811"/><use xlink:href="#61447de6aH" x="114.79442" y="695.3811"/><use xlink:href="#61447de6p" x="121.46142" y="695.3811"/><use xlink:href="#61447de6ap" x="128.12842" y="695.3811"/></g><g><use xlink:href="#61447de6aX" x="217.96315" y="661.23767"/></g><g><use xlink:href="#61447de6aY" x="244.87095" y="661.23767"/></g><g><use xlink:href="#61447de6aZ" x="269.31635" y="661.23767"/></g><g><use xlink:href="#61447de6ba" x="291.23095" y="661.23767"/><use xlink:href="#61447de6bb" x="315.20895" y="661.23767"/></g><g><use xlink:href="#61447de6bc" x="333.54015" y="661.23767"/></g><g><use xlink:href="#61447de6bd" x="355.41675" y="661.23767"/></g><g fill-opacity=".33"><use xlink:href="#61447de6h" x="241.87458" y="695.3811"/><use xlink:href="#61447de6i" x="248.54158" y="695.3811"/><use xlink:href="#61447de6j" x="255.20858" y="695.3811"/><use xlink:href="#61447de6k" x="261.87558" y="695.3811"/><use xlink:href="#61447de6l" x="268.54258" y="695.3811"/><use xlink:href="#61447de6h" x="275.20958" y="695.3811"/><use xlink:href="#61447de6aW" x="281.87658" y="695.3811"/><use xlink:href="#61447de6aH" x="288.54358" y="695.3811"/><use xlink:href="#61447de6p" x="295.21058" y="695.3811"/><use xlink:href="#61447de6ap" x="301.87758" y="695.3811"/><use xlink:href="#61447de6h" x="308.54458" y="695.3811"/><use xlink:href="#61447de6A" x="315.21158" y="695.3811"/><use xlink:href="#61447de6l" x="321.87858" y="695.3811"/><use xlink:href="#61447de6o" x="328.54558" y="695.3811"/><use xlink:href="#61447de6p" x="335.21258" y="695.3811"/><use xlink:href="#61447de6q" x="341.87958" y="695.3811"/><use xlink:href="#61447de6B" x="348.54658" y="695.3811"/></g><g><use xlink:href="#61447de6be" x="19.062083" y="762.85657"/></g><g><use xlink:href="#61447de6bf" x="46.513283" y="762.85657"/><use xlink:href="#61447de6bg" x="71.593283" y="762.85657"/><use xlink:href="#61447de6bh" x="94.013283" y="762.85657"/></g><g><use xlink:href="#61447de6bi" x="118.443483" y="762.85657"/></g><g><use xlink:href="#61447de6bj" x="137.553683" y="762.85657"/></g><g><use xlink:href="#61447de6bk" x="159.848283" y="762.85657"/></g><g fill-opacity=".33"><use xlink:href="#61447de6h" x="51.45875" y="797"/><use xlink:href="#61447de6i" x="58.12575" y="797"/><use xlink:href="#61447de6j" x="64.79275" y="797"/><use xlink:href="#61447de6k" x="71.45975" y="797"/><use xlink:href="#61447de6l" x="78.12675" y="797"/><use xlink:href="#61447de6h" x="84.79375" y="797"/><use xlink:href="#61447de6m" x="91.46075" y="797"/><use xlink:href="#61447de6k" x="98.12775" y="797"/><use xlink:href="#61447de6l" x="104.79475" y="797"/><use xlink:href="#61447de6n" x="111.46175" y="797"/><use xlink:href="#61447de6o" x="118.12875" y="797"/><use xlink:href="#61447de6aG" x="124.79575" y="797"/><use xlink:href="#61447de6aH" x="131.46275" y="797"/><use xlink:href="#61447de6p" x="138.12975" y="797"/><use xlink:href="#61447de6ap" x="144.79675" y="797"/></g><g><use xlink:href="#61447de6bl" x="216.126488" y="762.85657"/></g><g><use xlink:href="#61447de6bm" x="243.577688" y="762.85657"/><use xlink:href="#61447de6bn" x="268.657688" y="762.85657"/></g><g><use xlink:href="#61447de6bo" x="291.096688" y="762.85657"/></g><g><use xlink:href="#61447de6bp" x="315.526888" y="762.85657"/></g><g><use xlink:href="#61447de6bq" x="334.637088" y="762.85657"/></g><g><use xlink:href="#61447de6br" x="356.931688" y="762.85657"/></g><g fill-opacity=".33"><use xlink:href="#61447de6h" x="225.20792" y="797"/><use xlink:href="#61447de6i" x="231.87492" y="797"/><use xlink:href="#61447de6j" x="238.54192" y="797"/><use xlink:href="#61447de6k" x="245.20892" y="797"/><use xlink:href="#61447de6l" x="251.87592" y="797"/><use xlink:href="#61447de6h" x="258.54292" y="797"/><use xlink:href="#61447de6m" x="265.20992" y="797"/><use xlink:href="#61447de6k" x="271.87692" y="797"/><use xlink:href="#61447de6l" x="278.54392" y="797"/><use xlink:href="#61447de6n" x="285.21092" y="797"/><use xlink:href="#61447de6o" x="291.87792" y="797"/><use xlink:href="#61447de6aG" x="298.54492" y="797"/><use xlink:href="#61447de6aH" x="305.21192" y="797"/><use xlink:href="#61447de6p" x="311.87892" y="797"/><use xlink:href="#61447de6ap" x="318.54592" y="797"/><use xlink:href="#61447de6h" x="325.21292" y="797"/><use xlink:href="#61447de6A" x="331.87992" y="797"/><use xlink:href="#61447de6l" x="338.54692" y="797"/><use xlink:href="#61447de6o" x="345.21392" y="797"/><use xlink:href="#61447de6p" x="351.88092" y="797"/><use xlink:href="#61447de6q" x="358.54792" y="797"/><use xlink:href="#61447de6B" x="365.21492" y="797"/></g></svg>