<?xml version='1.0' encoding='UTF-8'?>
<svg xmlns="http://www.w3.org/2000/svg" xmlns:xlink="http://www.w3.org/1999/xlink" width="1000px" height="2400px" viewBox="0 0 1000 2400" x="0px" y="0px" enable-background="new 0 0 1000 2400"><defs><symbol overflow="visible" id="6d202a35a"><path d="M7.38 0h131.37v-39.88h-68v-.23l38.72-39.17v-3.69L73.3-118.92v-.24h64.3v-39.87H9.68v31.81l43.54 47.25L7.38-31.8zm0 0"/></symbol><symbol overflow="visible" id="6d202a35b"><path d="M111.31-82.97v-40.34H-1.16v40.34h31.13v45.86c0 27.66 13.36 40.56 43.55 40.56 12.45 0 20.98-1.84 27.43-4.14v-34.1a56.74 56.74 0 01-11.76 1.37c-8.75 0-12.44-3.92-12.44-13.36v-36.19zm0 0"/></symbol><symbol overflow="visible" id="6d202a35c"><path d="M68.22 3.45c41.25 0 65-23.73 65-64.98 0-41.27-23.75-65.24-65-65.24S3.23-102.8 3.23-61.53c0 41.25 23.74 64.98 64.99 64.98zm0-35.72c-11.52 0-15.9-7.6-15.9-29.26 0-21.44 4.38-29.5 15.9-29.5 11.53 0 15.9 8.06 15.9 29.5 0 21.66-4.37 29.26-15.9 29.26zm0 0"/></symbol><symbol overflow="visible" id="6d202a35d"><path d="M48.86 3.45c11.06 0 18.67-1.6 25.12-3.92v-34.1c-1.84.46-5.3 1.15-8.06 1.15-8.08 0-11.06-3.92-11.06-13.36v-76.53H6.46v83.9c0 27.66 12.21 42.86 42.4 42.86zm0 0"/></symbol><symbol overflow="visible" id="6d202a35e"><path d="M-1.16 42.64h47.72l17.52-54.17h.22l17.3 54.17h50.7l-30.9-83.67 30.43-82.28h-47.7L67.77-69.14h-.24l-17.51-54.17H-.68l30.41 82.75zm0 0"/></symbol><symbol overflow="visible" id="6d202a35f"><path d="M67.3 4.6c44.01 0 56.93-17.05 60.39-48.4H82.97C80.89-32.95 77.44-28.8 65.92-28.8c-10.14 0-14.75-3.22-14.75-9.67 0-6.24 2.99-9.22 13.83-9.22h12.44v-27.9h-13.6c-6.68 0-10.82-2.53-10.82-9.68 0-5.99 4.14-9.22 13.35-9.22 10.38 0 11.99 3.92 14.75 12.22h44.72c-7.37-32.27-22.82-45.64-61.54-45.64-39.86 0-57.61 13.84-58.08 36.89-.22 14.75 7.6 23.26 18.44 28.8v.23C12.46-58.55 3.69-50.02 3.69-35.03c0 24.66 17.75 39.64 63.6 39.64zm0 0"/></symbol><symbol overflow="visible" id="6d202a35g"><path d="M12.67-137.14h32.27l26.39-41.49H27.3zM48.86 3.46c11.06 0 18.67-1.62 25.12-3.93v-34.1c-1.84.46-5.3 1.15-8.06 1.15-8.08 0-11.06-3.92-11.06-13.36v-76.53H6.46v83.9c0 27.66 12.21 42.86 42.4 42.86zm0 0"/></symbol><symbol overflow="visible" id="6d202a35h"><path d="M105.53-96.56H24.34L7.2 0h17.82L39.5-81.4H85L70.58 0h17.81zm0 0"/></symbol><symbol overflow="visible" id="6d202a35i"><path d="M36.78 2.05c23.4 0 36.86-13.07 40.94-36.46 4.16-24.14-6.74-39.64-30.8-39.64-23.33 0-36.65 13.33-40.73 36.32C1.84-13.6 12.64 2.05 36.79 2.05zm1.3-13.75c-13.88 0-17.4-10.27-14.95-24.4 2.78-16.06 9.03-24.21 22.43-24.21 14 0 17.75 9.92 15.16 24.2-2.92 16.13-9.17 24.4-22.64 24.4zm0 0"/></symbol><symbol overflow="visible" id="6d202a35j"><path d="M56.23-72.02c-4.14-24.14-8.15-32.01-23.04-32.01-4.28 0-8.3.73-11.7 1.69l1.96 13.67c2.6-.61 4.5-1.02 7.28-1.02 6.4 0 8.16 3.47 11.02 17.67h-7.48L-5.58 0h18.7l29.72-56.78h.75L51.34 0h17.2zm0 0"/></symbol><symbol overflow="visible" id="6d202a35k"><path d="M39.23 2.05c21.22 0 31.7-9.05 35.83-32.85l7.36-41.22h-17l-7.14 40.4c-2.51 14.21-6.33 19.8-18.23 19.8-11.77 0-16.17-5.59-13.74-19.8l7.14-40.4h-17L9.52-32.5C5.3-8.7 18.09 2.05 39.23 2.05zm0 0"/></symbol><symbol overflow="visible" id="6d202a35l"><path d="M82.28-72.02h-20.2L30.33-42.64h-.75l5.23-29.38h-17L5.1 0h17l5.72-32.1h.75L52.1 0h18.49L43.86-36.92zm0 0"/></symbol><symbol overflow="visible" id="6d202a35m"><path d="M31.55 2.05c13.93 0 21.22-7.02 25.3-15.24h.74c-.26 8.42 4.08 15.03 15.03 15.03 4.43 0 8.3-.89 10.68-1.84l-.14-12.64c-1.49.33-3.05.6-4.63.6-4.75 0-5.7-3.12-4.75-8.5l9.05-51.48H68.14l-4.62 12.79h-.75C61-66.1 55.97-74.05 41.55-74.05c-18.42 0-31.55 13.6-35.5 37.07-3.94 23.1 5.51 39.03 25.5 39.03zm6.73-13.88c-14.08 0-17.81-9.86-15.16-24.08 2.99-16.04 9.04-24.26 21.96-24.26 12.58 0 17.28 9.51 14.83 24.12-2.52 15.17-8.57 24.22-21.63 24.22zm0 0"/></symbol><symbol overflow="visible" id="6d202a35n"><path d="M65.28-57.19l2.58-14.83H6.25L3.61-57.19h21.75l-6.19 35.9C16.6-6.65 22.64 1.85 37.2 1.85c5.17 0 10.95-1.23 13.54-2.04l-.42-12.78a46.9 46.9 0 01-7.67.95c-5.58 0-8.5-2.25-7.34-8.85l6.39-36.3zm0 0"/></symbol><symbol overflow="visible" id="6d202a35o"><path d="M26.92 1.84c4.3 0 8.3-1.15 10.69-2.1l-.42-12.6c-1.56.42-3.74.83-5.9.83-4.98 0-7-2.66-5.93-8.7l9.25-51.29h-17l-9.05 50.8C5.98-6.45 12.44 1.84 26.92 1.84zm0 0"/></symbol><symbol overflow="visible" id="6d202a35p"><path d="M19.52-81.73H33.1l17.14-25.36H32.09zm7.4 83.57c4.3 0 8.3-1.15 10.69-2.1l-.42-12.6c-1.56.42-3.74.83-5.9.83-4.98 0-7-2.66-5.93-8.7l9.25-51.29h-17l-9.05 50.8C5.98-6.45 12.44 1.84 26.92 1.84zm0 0"/></symbol><symbol overflow="visible" id="6d202a35q"><path d="M44.98 0h8.8L42.1-58.83H30.73L-2.07 0h9.45l6.87-12.67h28.5zM18.06-19.72l17.32-31.9h.42l5.72 31.9zm0 0"/></symbol><symbol overflow="visible" id="6d202a35r"><path d="M32.06-43.75C29.42-59 27.42-63.39 18.96-63.39c-2.3 0-4.38.42-6.12.92l1.08 6.95c1.49-.32 2.49-.57 4.06-.57 3.97 0 4.8 2.48 6.8 12.34h-3.56L-3.23 0h9.12l19.63-36.2h.42L31.3 0h8.46zm0 0"/></symbol><symbol overflow="visible" id="6d202a35s"><path d="M22.08-49.97h6.87L39.2-65.2H30zm-1.9 51.22c12.76 0 19.46-4.73 21.12-14.1l-8.28-.65c-1.16 5.55-5.38 8.1-12.43 8.1-6.62 0-9.78-2.22-9.78-6.12 0-5.54 4.81-7.45 12.02-7.45h5.39l1.08-6.55h-5.24c-5.7 0-9.03-1.65-9.03-5.8 0-4.48 3.74-7.04 11.11-7.04 6.8 0 8.78 2.23 9.45 7.38l8.2-.58c-.91-8.78-5.46-13.42-16.82-13.42-12.42 0-19.9 5.62-19.9 13.25 0 5.21 3.34 8.2 7.63 9.03l-.07.42c-7.13 1.4-12.1 5.47-12.1 12.67 0 6.05 5.22 10.86 17.64 10.86zm0 0"/></symbol><symbol overflow="visible" id="6d202a35t"><path d="M31.16 16.98c2.65-2.8 5.71-6.8 5.71-11.84 0-8.78-8.04-10.19-15.17-12.19C16.16-8.7 11.2-10.69 11.2-17.06c0-7.96 6.22-12.52 16.81-12.52h6.47l1.25-6.97H29.5c-7.22 0-11.19-2.39-11.19-8.43 0-6.07 3.74-11.44 11.69-11.44 7.38 0 9.1 3.23 10.02 9.03l8.12-.67c-.25-8.86-4.97-15.33-16.9-15.33-13.68 0-20.96 8.7-20.96 18.06 0 6.8 4.22 10.36 8.94 11.69l-.08.42c-8.62.99-16.4 7.45-16.4 17.64 0 11.36 9.68 13.85 17.23 15.9 4.81 1.34 8.7 2.5 8.7 5.57 0 2.97-2.33 5.8-4.39 8.61zm0 0"/></symbol><symbol overflow="visible" id="6d202a35u"><path d="M20.1 1.25c8.12 0 12.76-3.98 15.15-8.95h.42c-.33 4.72 2.24 8.78 8.45 8.78 2.49 0 4.72-.5 5.88-1l-.25-6.46c-.98.25-2.06.41-3.06.41-3.06 0-3.72-1.98-3.14-5.37l5.72-32.41h-7.05l-2.66 7.8h-.4c-1.18-4.24-4.16-9.03-13.1-9.03-11.26 0-19.31 8.03-21.8 22.35C1.79-8.28 8 1.25 20.1 1.25zm2.73-7.05c-9.36 0-12.02-6.54-10.28-16 2-10.6 6.14-16.15 14.84-16.15 8.36 0 11.6 6.47 10.02 16.08C35.75-11.95 31.6-5.8 22.83-5.8zm0 0"/></symbol><symbol overflow="visible" id="6d202a35v"><path d="M12.84 0h10.52L47.3-43.75h-9.03L19.55-8.03h-.4l-6.38-35.72H4.3zm0 0"/></symbol><symbol overflow="visible" id="6d202a35w"><path d="M21.88 1.25c13.59 0 21.87-8.45 23.7-20.31 1.73-11.42-1.66-17.9-12.6-22.7-6.46-2.82-9.45-5.13-9.45-8.37 0-4.14 3.24-6.8 9.03-6.8 5.4 0 7.46 1.84 7.88 6.48l8.03-.42c-.58-7.2-3.64-12.52-15.08-12.52-11.1 0-17.89 5.47-17.89 13.02 0 5.54 3.56 8.53 7.6 10.6l-.15.41C13.17-37.7 5.8-32.3 3.73-20.72 1.58-8.45 7.7 1.25 21.87 1.25zm.57-7.05c-9.2 0-11.68-6.47-10.36-15.07 1.41-8.96 6.63-14.43 14.68-14.43 8.7 0 12.26 5.55 10.68 14.83-1.5 8.63-6.04 14.67-15 14.67zm0 0"/></symbol><symbol overflow="visible" id="6d202a35x"><path d="M.05 16.16h8.28l4.22-23.94h.42c1.15 4.22 4.14 9.03 13.1 9.03 11.59 0 19.38-8.05 21.87-22.38 2.48-14.34-3.66-23.85-17.99-23.85-12.76 0-20.39 7.37-23.2 23.1zM24.8-5.8c-8.45 0-11.67-6.54-10.1-16.15 1.65-9.86 5.79-16 14.66-16 9.29 0 12.02 6.54 10.27 16-1.98 10.6-6.2 16.15-14.83 16.15zm0 0"/></symbol><symbol overflow="visible" id="6d202a35y"><path d="M22.13 1.25c13.59 0 21.54-8.05 24.03-22.38 2.48-14.34-3.82-23.85-17.99-23.85-13.5 0-21.37 8.2-23.86 22.2C1.73-8.45 7.95 1.25 22.13 1.25zm.57-7.05c-9.2 0-11.76-6.8-10.1-16.15 1.82-10.53 6.12-16 15-16 9.27 0 12 6.54 10.26 16C35.88-11.35 31.66-5.8 22.7-5.8zm0 0"/></symbol><symbol overflow="visible" id="6d202a35z"><path d="M31.9 16.98c2.65-2.8 5.7-6.8 5.7-11.84 0-8.53-6.62-10.69-13-13.02-5.88-2.15-11.5-4.54-11.5-12.42 0-8.7 4.88-17.65 14.5-17.65 6.54 0 9.18 3.23 9.68 8.95l8.3-.42c-.67-9.11-5.97-15.56-17.4-15.56-15.26 0-23.54 12-23.54 25.76 0 11.77 8.86 15 15.98 17.74 4.82 1.8 8.8 3.46 8.8 7.37 0 2.97-2.33 5.8-4.4 8.61zm0 0"/></symbol><symbol overflow="visible" id="6d202a35B"><path d="M15.33 0h8.7l9.03-51.38h18.72l1.4-7.45H6.96l-1.3 7.45h18.7zm0 0"/></symbol><symbol overflow="visible" id="6d202a35C"><path d="M.88 16.16H8.9l3.3-18.82c1.91 2.49 4.82 3.91 9.29 3.91 7.88 0 11.1-4.4 13.34-8.2h.41c0 4.87 2.33 8.2 8.2 8.2 2.25 0 4.4-.5 5.82-1l-.25-6.38a11.7 11.7 0 01-2.58.33c-2.9 0-4.3-1.25-3.4-6.3l5.63-31.65H40.4l-4.31 24.2c-1.4 8.03-6.45 13.43-13.5 13.43-5.88 0-8.86-3.24-7.45-11.36l4.64-26.27h-8.3zm0 0"/></symbol><symbol overflow="visible" id="6d202a35D"><path d="M57-36.3l1.33-7.45H6.05L4.72-36.3h9.2L7.55 0h8.03l6.37-36.3h17.49l-4.4 24.28c-1.65 9.04 1.91 13.1 8.71 13.1 2.48 0 4.97-.5 6.47-1L49.8-6.3c-.83.17-2.16.33-3.14.33-3.49 0-4.74-1.33-3.91-5.72l4.48-24.6zm0 0"/></symbol><symbol overflow="visible" id="6d202a35E"><path d="M26.47-49.97h6.87L43.58-65.2h-9.19zM20.09 1.25c8.13 0 12.77-3.98 15.16-8.95h.42c-.33 4.72 2.24 8.78 8.45 8.78 2.49 0 4.72-.5 5.88-1l-.25-6.46c-.98.25-2.06.41-3.06.41-3.06 0-3.72-1.98-3.14-5.37l5.72-32.41h-7.05l-2.66 7.8h-.4c-1.18-4.24-4.16-9.03-13.1-9.03-11.26 0-19.31 8.03-21.8 22.35C1.79-8.28 8 1.25 20.1 1.25zm2.74-7.05c-9.36 0-12.02-6.54-10.28-16 2-10.6 6.14-16.15 14.84-16.15 8.36 0 11.6 6.47 10.02 16.08C35.75-11.95 31.6-5.8 22.83-5.8zm0 0"/></symbol><symbol overflow="visible" id="6d202a35F"><path d="M30 16.98c2.64-2.8 5.72-6.8 5.72-11.84 0-7.55-6.3-9.78-12.36-11.77-5.7-1.9-11.17-3.65-11.17-9.6 0-12.2 21.28-27.93 35.2-38.86l1.25-7.05H14.92L13.6-54.7h21.63l-.1.42C22.88-44.25 3.64-30.07 3.64-14.92 3.64-5.14 12.1-2.32 18.9 0c4.64 1.58 8.63 2.81 8.63 5.9 0 2.96-2.33 5.79-4.41 8.6zm0 0"/></symbol><symbol overflow="visible" id="6d202a35G"><path d="M30.58 16.16h8.28l7.55-42.1c2.06-11.6-2-19.04-12.44-19.04-8.53 0-12.6 4.14-15.58 8.78H18l.4-7.55h-6.87L3.73 0h8.29l4.3-24.44c1.41-8.2 8.04-13.1 14.66-13.1 6.55 0 8.46 4.15 7.13 11.52zm0 0"/></symbol><symbol overflow="visible" id="6d202a35H"><path d="M4.05-8.1H1.27V0h2.67c2.72 0 3.92-1.25 3.92-4.05 0-2.84-1.22-4.06-3.81-4.06zm.01 7.22H2.28v-6.35h1.78c1.85 0 2.77.73 2.77 3.18 0 2.44-.92 3.17-2.77 3.17zm0 0"/></symbol><symbol overflow="visible" id="6d202a35I"><path d="M1.58-7.05c.39 0 .67-.2.67-.64 0-.45-.28-.65-.67-.65-.4 0-.67.2-.67.65 0 .44.26.64.67.64zM1.09 0h.97v-6.02H1.1zm0 0"/></symbol><symbol overflow="visible" id="6d202a35J"><path d="M3.05.17c1.48 0 2.37-.69 2.37-1.87 0-1.02-.6-1.4-1.84-1.68l-.81-.18c-.74-.16-1.05-.4-1.05-.9 0-.65.44-.95 1.26-.95.9 0 1.32.32 1.4 1.04l.95-.08c-.1-1.2-.86-1.77-2.33-1.77-1.4 0-2.23.64-2.23 1.84 0 .96.59 1.44 1.78 1.7l.8.15c.76.15 1.12.34 1.12.94 0 .6-.53.97-1.4.97-1 0-1.5-.35-1.62-1.13l-.95.1C.6-.48 1.4.16 3.05.16zm0 0"/></symbol><symbol overflow="visible" id="6d202a35K"><path d="M1.1 2.25h.96V-.98h.05c.34.71 1 1.15 1.94 1.15C5.72.17 6.67-1 6.67-3.02c0-2-.95-3.17-2.6-3.17-.95 0-1.57.46-1.98 1.24h-.04L1.9-6.02h-.82zM3.86-.67c-1.23 0-1.84-.97-1.84-2.35 0-1.37.61-2.32 1.85-2.32 1.2 0 1.8.76 1.8 2.32 0 1.58-.6 2.35-1.8 2.35zm0 0"/></symbol><symbol overflow="visible" id="6d202a35L"><path d="M1.1 0h.96v-8.58H1.1zm0 0"/></symbol><symbol overflow="visible" id="6d202a35M"><path d="M2.63.17c1.01 0 1.68-.42 2.01-1.1h.06l.11.93h.8v-4.1c0-1.43-.8-2.09-2.36-2.09-1.58 0-2.27.7-2.44 1.85l.97.09c.11-.72.5-1.14 1.45-1.14.99 0 1.44.4 1.44 1.34v.42l-2.03.27C1.2-3.19.58-2.64.58-1.55c0 1.08.7 1.72 2.04 1.72zm.18-.8c-.87 0-1.25-.37-1.25-.98 0-.58.33-.9 1.16-1.03l1.95-.27v.58c0 .99-.7 1.7-1.86 1.7zm0 0"/></symbol><symbol overflow="visible" id="6d202a35N"><path d="M4.84-6.02L3.08-.9h-.05L1.13-6H.07L2.39 0h.38c-.49 1.17-.94 1.55-1.61 1.55-.2 0-.5-.02-.74-.08l-.1.83c.23.06.55.12.88.12 1.35 0 1.9-.87 2.47-2.42l2.19-6.02zm0 0"/></symbol><symbol overflow="visible" id="6d202a35P"><path d="M6.05-4.05v-.06c.93-.2 1.42-.81 1.42-1.94 0-1.26-.7-2.06-2.6-2.06h-3.6V0h3.6c1.91 0 2.8-.78 2.8-2.13 0-1.25-.64-1.75-1.62-1.92zm-1.2-3.22c1.13 0 1.63.46 1.63 1.4 0 .9-.5 1.4-1.62 1.4H2.25v-2.8zm.03 6.43H2.25v-2.82h2.63c1.2 0 1.8.41 1.8 1.41 0 1.02-.6 1.4-1.8 1.4zm0 0"/></symbol><symbol overflow="visible" id="6d202a35Q"><path d="M3.4.17c1.6 0 2.41-.73 2.57-2.04L5-1.96c-.13.86-.6 1.28-1.6 1.28-1.2 0-1.8-.81-1.8-2.35 0-1.53.59-2.32 1.8-2.32.98 0 1.48.45 1.6 1.3l.97-.08C5.8-5.45 4.94-6.2 3.4-6.2 1.64-6.19.6-5 .6-3.02.6-1 1.64.18 3.4.18zm0 0"/></symbol><symbol overflow="visible" id="6d202a35R"><path d="M5.94-6.02h-1.2L2.1-3.45h-.05v-5.13H1.1V0h.97v-2.83h.05L4.83 0h1.22L2.98-3.19zm0 0"/></symbol><symbol overflow="visible" id="6d202a35S"><path d="M2.28-.88V-8.1H1.27V0h4.92v-.88zm0 0"/></symbol><symbol overflow="visible" id="6d202a35T"><path d="M3.48 2.42c1.88 0 2.7-1.03 2.7-2.9v-5.54h-.8l-.15 1.07H5.2c-.3-.61-.83-1.24-1.96-1.24-1.7 0-2.62 1.22-2.62 3.05 0 1.87.86 3.08 2.62 3.08a2 2 0 001.93-1.2h.06v.78c0 1.39-.5 2.06-1.74 2.06C2.41 1.58 2 1.16 1.86.5L.87.6c.15 1.13.94 1.82 2.61 1.82zM3.4-.89c-1.17 0-1.78-.8-1.78-2.25 0-1.38.6-2.2 1.78-2.2 1.23 0 1.86.96 1.86 2.2 0 1.2-.64 2.25-1.86 2.25zm0 0"/></symbol><symbol overflow="visible" id="6d202a35U"><path d="M1.1 0h.96v-3.3c0-1.2.78-2 1.83-2 .9 0 1.33.49 1.33 1.6V0h.97v-4.05c0-1.4-.74-2.14-2-2.14-1.03 0-1.67.5-2.08 1.24h-.05v-3.63H1.1zm0 0"/></symbol><symbol overflow="visible" id="6d202a35V"><path d="M2.4-5.19h1.91v-.83h-1.9v-1.87h-.77l-.2 1.87H.19v.83h1.25v3.46C1.44-.5 2 .14 3.28.14c.38 0 .78-.08 1.06-.16l-.1-.8c-.2.05-.47.1-.77.1-.7 0-1.06-.26-1.06-1.1zm0 0"/></symbol><symbol overflow="visible" id="6d202a35W"><path d="M2.7 0h1v-7.23h2.64v-.88H.06v.88H2.7zm0 0"/></symbol><symbol overflow="visible" id="6d202a35X"><path d="M6.06-2.7v-.55c0-1.9-1-2.94-2.68-2.94C1.7-6.19.6-5.08.6-2.99.6-.98 1.63.18 3.45.18c1.53 0 2.25-.7 2.5-1.7L5-1.61c-.19.55-.63.95-1.55.95-1.14 0-1.76-.68-1.84-2.04zM3.38-5.37c1.09 0 1.68.62 1.73 1.92H1.6c.1-1.32.73-1.92 1.76-1.92zm0 0"/></symbol><symbol overflow="visible" id="6d202a35Y"><path d="M.3 0h1.04l1.57-2.33h.04L4.65 0h1.08L3.61-3l2.1-3.02H4.66L3.11-3.73h-.05L1.44-6.02H.34l2.08 2.94zm0 0"/></symbol><symbol overflow="visible" id="6d202a35Z"><path d="M1.27 0h.92v-7.02h.06L5.02 0h1.03L8.8-7.02h.06V0h1v-8.1h-1.6L5.62-1.23h-.06L2.85-8.1H1.28zm0 0"/></symbol><symbol overflow="visible" id="6d202a35aa"><path d="M3.17.17c.99 0 1.61-.45 2.02-1.23h.04L5.37 0h.82v-8.58h-.97v3.55h-.05c-.36-.74-1-1.16-1.97-1.16C1.58-6.19.6-5.02.6-3.02.6-1 1.57.18 3.18.18zm.2-.84C2.23-.67 1.61-1.44 1.61-3c0-1.58.6-2.34 1.76-2.34 1.29 0 1.88.95 1.88 2.34 0 1.38-.6 2.33-1.88 2.33zm0 0"/></symbol><symbol overflow="visible" id="6d202a35ab"><path d="M2.94.17c.98 0 1.6-.51 2.01-1.23H5L5.16 0h.8v-6.02h-.98v3.3c0 1.2-.78 2.02-1.76 2.02-.85 0-1.27-.52-1.27-1.57v-3.75H.98v4.04C.98-.6 1.68.17 2.94.17zm0 0"/></symbol><symbol overflow="visible" id="6d202a35ac"><path d="M1.1 0h.96v-3.3c0-1.2.78-2 1.77-2 .86 0 1.28.52 1.28 1.55V0h.97v-3.3c0-1.2.78-2 1.78-2 .84 0 1.26.52 1.26 1.55V0h.97v-4.03c0-1.4-.7-2.16-1.95-2.16-1.05 0-1.69.58-2.1 1.35h-.06C5.75-5.7 5.12-6.2 4.12-6.2c-.96 0-1.62.52-2.03 1.24h-.04L1.9-6.02h-.82zm0 0"/></symbol><symbol overflow="visible" id="6d202a35ad"><path d="M1.27 0h1.01v-8.1H1.27zm0 0"/></symbol><symbol overflow="visible" id="6d202a35ae"><path d="M3.8.17C5.7.17 6.8-.75 6.8-2.19c0-1.33-.8-1.95-2.37-2.25l-1.07-.18c-1.12-.2-1.57-.63-1.57-1.44 0-.9.7-1.4 1.89-1.4 1.31 0 1.89.41 2.08 1.52l1-.06c-.2-1.6-1.2-2.28-3.08-2.28C1.88-8.28.8-7.45.8-6c0 1.25.72 1.95 2.3 2.25l1.05.2c1.15.2 1.67.53 1.67 1.4 0 .9-.75 1.48-2 1.48-1.44 0-2.11-.5-2.3-1.5l-.98.08C.7-.6 1.77.17 3.8.17zm0 0"/></symbol><symbol overflow="visible" id="6d202a35af"><path d="M4.08.17C5.72.17 6.68-1 6.68-3c0-2.02-.96-3.19-2.63-3.19-.94 0-1.6.44-1.94 1.16h-.05v-3.55H1.1V0h.82l.14-1.06h.04C2.5-.28 3.13.17 4.08.17zm-.2-.84C2.63-.67 2.02-1.62 2.02-3c0-1.38.61-2.34 1.85-2.34 1.2 0 1.8.76 1.8 2.34 0 1.56-.6 2.33-1.8 2.33zm0 0"/></symbol><symbol overflow="visible" id="6d202a35ag"><path d="M3.47.17c1.81 0 2.86-1.14 2.86-3.19 0-2.04-1.05-3.17-2.86-3.17C1.66-6.19.6-5.06.6-3.02.6-.97 1.66.18 3.47.18zm0-.84c-1.25 0-1.86-.78-1.86-2.35 0-1.56.6-2.32 1.86-2.32 1.25 0 1.86.76 1.86 2.32 0 1.57-.61 2.35-1.86 2.35zm0 0"/></symbol><symbol overflow="visible" id="6d202a35bW"><path d="M1.1 0h.96v-3.3c0-1.2.78-2 1.83-2 .9 0 1.33.52 1.33 1.55V0h.97v-4.03c0-1.4-.7-2.16-2.02-2.16-1.01 0-1.67.52-2.08 1.24h-.04L1.9-6.02h-.82zm0 0"/></symbol><symbol overflow="visible" id="6d202a35bX"><path d="M6.9-7.23v-.88H1.28V0H6.9v-.88H2.28v-2.8h3.9v-.84h-3.9v-2.71zm0 0"/></symbol><symbol overflow="visible" id="6d202a35bY"><path d="M1.1 0h.96v-3.3c0-1.18.75-1.97 1.72-1.97.24 0 .44.04.56.08l.11-.92c-.15-.05-.39-.08-.62-.08-.83 0-1.4.44-1.74 1.24h-.04L1.9-6.02h-.82zm0 0"/></symbol><symbol overflow="visible" id="6d202a35ah"><path d="M17.13 0h5.14v-46.05H39v-4.53H.36v4.53h16.77zm0 0"/></symbol><symbol overflow="visible" id="6d202a35ai"><path d="M21.52 1.06C32.48 1.06 39-6.02 39-18.74c0-12.71-6.52-19.7-17.48-19.7-10.94 0-17.49 6.99-17.49 19.7 0 12.72 6.55 19.8 17.49 19.8zm0-4.45c-8.2 0-12.36-4.98-12.36-15.34 0-10.33 4.17-15.29 12.36-15.29 8.21 0 12.36 4.96 12.36 15.29 0 10.36-4.15 15.34-12.36 15.34zm0 0"/></symbol><symbol overflow="visible" id="6d202a35ak"><path d="M21.52 1.06c10.96 0 17.2-7.47 17.2-18.23 0-8.22-3.34-12.81-7.06-15.35v-.25h9.9v-4.59h-18.4c-12.08 0-19.13 7.05-19.13 19.38 0 11.57 6.55 19.04 17.49 19.04zm0-4.45c-8.2 0-12.36-5.38-12.36-14.73 0-9.91 4.65-14.86 12.6-14.86 8.2 0 12.11 6.09 12.11 14.85 0 9.36-4.14 14.74-12.35 14.74zm0 0"/></symbol><symbol overflow="visible" id="6d202a35al"><path d="M25.1 14.14h4.96V.97C43.67.22 51.11-7.05 51.11-18.66c0-11.62-7.44-18.92-21.05-19.7v-10.08h-4.95v10.08c-13.67.72-21.08 8.05-21.08 19.7C4.03-7.02 11.43.25 25.11.97zM25.2-3.3C13.97-3.95 9.12-9.51 9.12-18.66c0-9.15 4.85-14.78 16.07-15.39zm4.76 0v-30.74c11.2.67 16.1 6.24 16.1 15.4 0 9.13-4.9 14.67-16.1 15.34zm0 0"/></symbol><symbol overflow="visible" id="6d202a35am"><path d="M20.27 1.06c7.01 0 10.6-3.76 12.82-8.19h.32C33.84-2 36.08.79 41.78.79c1.7 0 3.2-.39 4.06-.7l-.6-4.03c-.79.22-1.76.39-2.76.39-2.62 0-4.4-1.25-4.4-5.2v-28.6h-4.99v6.19h-.32c-2.18-4.4-6.38-7.27-12.36-7.27-10.5 0-16.38 7.27-16.38 19.78 0 12.43 5.88 19.72 16.24 19.72zm.78-4.48c-7.94 0-11.9-4.99-11.9-15.24 0-10.3 3.96-15.28 11.9-15.28 8.26 0 12.25 6.63 12.25 15.28 0 8.64-3.99 15.24-12.25 15.24zm0 0"/></symbol><symbol overflow="visible" id="6d202a35an"><path d="M16 .78c1.73 0 3.7-.39 4.63-.75l-.65-4.01c-.78.2-1.92.42-3.06.42-3.42 0-4.98-1.25-4.98-5.24v-28.56H6.95v28.7C6.95-2.09 9.94.78 16 .78zm0 0"/></symbol><symbol overflow="visible" id="6d202a35ao"><path d="M6.3 14.14h5V-6.23h.3c2.18 4.45 6.38 7.3 12.37 7.3 10.51 0 16.39-7.3 16.39-19.77 0-12.47-6.06-19.74-17.03-19.74-10.94 0-17.03 7.06-17.03 19.24zM23.33-3.42c-7.9 0-12.25-6.16-12.25-15.28 0-10.25 4.34-15.24 12.25-15.24 7.94 0 11.89 4.99 11.89 15.24 0 10.3-3.95 15.28-11.9 15.28zm0 0"/></symbol><symbol overflow="visible" id="6d202a35ap"><path d="M35.9-37.36h-6.26L12.28-21.05H12v-16.3H7.02V0H12v-17.98h.28L30.2 0h6.4L16.99-19.84zm0 0"/></symbol><symbol overflow="visible" id="6d202a35aq"><path d="M18.63-42.95h4.2l6.34-13.22h-5.26zm2.89 44.01C32.48 1.06 39-6.02 39-18.74c0-12.71-6.52-19.7-17.48-19.7-10.94 0-17.49 6.99-17.49 19.7 0 12.72 6.55 19.8 17.49 19.8zm0-4.45c-8.2 0-12.36-4.98-12.36-15.34 0-10.33 4.17-15.29 12.36-15.29 8.21 0 12.36 4.96 12.36 15.29 0 10.36-4.15 15.34-12.36 15.34zm0 0"/></symbol><symbol overflow="visible" id="6d202a35ar"><path d="M35.66-37.36h-5.18L18.45-6.02h-.32L5.95-37.36H.61L15.7.54v13.6h4.84V.61zm0 0"/></symbol><symbol overflow="visible" id="6d202a35as"><path d="M6.6-42.95h4.2l6.32-13.22h-5.26zM16 .78c1.73 0 3.7-.39 4.63-.75l-.65-4.01c-.78.2-1.92.42-3.06.42-3.42 0-4.98-1.25-4.98-5.24v-28.56H6.95v28.7C6.95-2.09 9.94.78 16 .78zm0 0"/></symbol><symbol overflow="visible" id="6d202a35at"><path d="M15.25 0h5.8l14.6-37.36h-5.17L18.45-5.48h-.32L5.95-37.36H.61zm0 0"/></symbol><symbol overflow="visible" id="6d202a35au"><path d="M19.77 1.06c10.46 0 15.2-4.48 16-11.56l-4.9-.44c-.78 5.2-3.98 7.8-11.1 7.8-7.44 0-10.5-2.73-10.5-7.19 0-4.6 2.48-6.7 9.46-6.7h5.96v-4.1h-5.96c-5.87 0-8.57-2.23-8.57-6.65 0-3.6 2.2-6.45 9.5-6.45 6.59 0 9.51 2.1 10.43 7.3l4.96-.43c-.96-6.58-5.27-11.08-15.4-11.08-9.82 0-14.34 4.17-14.34 10.3-.04 5.37 3.07 8.02 6.97 8.87v.32c-4.12.47-7.9 3.3-7.9 9.15 0 6.38 4.95 10.86 15.39 10.86zm0 0"/></symbol><symbol overflow="visible" id="6d202a35av"><path d="M30.03-32.77v-4.59H0v4.6h12.22v24.1c0 6.27 3.1 9.44 9.36 9.44 1.97 0 4.28-.45 5.17-.75l-.64-4.01c-.83.2-2.5.42-3.78.42-3.49 0-5.27-1.25-5.27-5.24v-23.97zm0 0"/></symbol><symbol overflow="visible" id="6d202a35aw"><path d="M44.9-32.77v-4.59H1.82v4.6h8.05V0h4.89v-32.77h16.84v24.25c0 6.85 2.35 9.3 8.63 9.3 1.6 0 3.1-.31 3.98-.56l-.42-4.06c-.69.14-1.75.28-2.6.28-3.77 0-4.82-1-4.82-5.31v-23.9zm0 0"/></symbol><symbol overflow="visible" id="6d202a35ax"><path d="M29.78 1.2c16.61 0 26.49-10.84 26.49-28.93 0-18.1-9.88-28.94-26.49-28.94-16.6 0-26.44 10.84-26.44 28.94C3.34-9.64 13.2 1.2 29.78 1.2zm0-8.76c-10.33 0-15.72-7.27-15.72-20.17 0-12.91 5.4-20.18 15.72-20.18 10.38 0 15.72 7.27 15.72 20.18 0 12.9-5.34 20.17-15.72 20.17zm0 0"/></symbol><symbol overflow="visible" id="6d202a35ay"><path d="M17.16 1.08c2.8 0 4.82-.44 6.36-1V-7.6c-.85.23-2.22.48-3.38.48-3.37 0-4.98-1.33-4.98-5.23v-30.22H5.1v31.23c0 8.16 3.81 12.4 12.05 12.4zm0 0"/></symbol><symbol overflow="visible" id="6d202a35az"><path d="M42.2-42.56H31.03L15.28-22.98h-.1v-19.58H5.15V0H15.2v-21.4h.1L31.22 0H43L25.8-22.98zm0 0"/></symbol><symbol overflow="visible" id="6d202a35aA"><path d="M23.03 1.2c13.02 0 20.63-8.39 20.63-22.54 0-14.07-7.61-22.43-20.63-22.43-12.94 0-20.55 8.36-20.55 22.43C2.48-7.2 10.1 1.2 23.03 1.2zm0-8.1c-6.8 0-10.33-4.76-10.33-14.44 0-9.57 3.53-14.32 10.33-14.32 6.9 0 10.4 4.75 10.4 14.32 0 9.68-3.5 14.43-10.4 14.43zm0 0"/></symbol><symbol overflow="visible" id="6d202a35aB"><path d="M20.3-59.48H10.12l7.08 17.35L.77 0h10.09l10.89-29.98h.08L32.93 0H43.6zm0 0"/></symbol><symbol overflow="visible" id="6d202a35aC"><path d="M42.69-42.56h-9.85l-10.8 30.22h-.09l-10.8-30.22H.2L16.56-.33v15.2h9.85V-.47zm0 0"/></symbol><symbol overflow="visible" id="6d202a35aD"><path d="M18.48-48.16h7.36l7.77-12.89H23.5zM23.03 1.2c13.02 0 20.63-8.39 20.63-22.54 0-14.07-7.61-22.43-20.63-22.43-12.94 0-20.55 8.36-20.55 22.43C2.48-7.2 10.1 1.2 23.03 1.2zm0-8.1c-6.8 0-10.33-4.76-10.33-14.44 0-9.57 3.53-14.32 10.33-14.32 6.9 0 10.4 4.75 10.4 14.32 0 9.68-3.5 14.43-10.4 14.43zm0 0"/></symbol><symbol overflow="visible" id="6d202a35aE"><path d="M35.6 14.88C37.5 11.3 38.87 8 38.87 4.34c0-8.28-6.11-10.57-12.33-12.86-6.6-2.5-13.34-5.03-13.34-14.64 0-7.54 2.6-12.42 9.36-12.42 5.67 0 7.72 2.63 9.2 8.49h9.84c-1.8-11.38-7.51-16.68-19.25-16.68C9.7-43.77 2.9-35.3 2.9-22.8c0 15.36 9.48 19.07 17 21.8 4.95 1.72 9.02 3.13 9.02 7.03 0 2.53-1.13 5.22-2.99 8.84zm0 0"/></symbol><symbol overflow="visible" id="6d202a35aG"><path d="M23.03 1.2c13.02 0 20.45-8.3 20.45-20.78 0-6.31-2.32-10.73-5.82-14.14v-.08h9.76v-8.76H24.84c-14.43 0-22.36 8.36-22.36 22.42C2.48-7.2 10.1 1.2 23.03 1.2zm0-8.1c-6.8 0-10.33-4.76-10.33-14.04 0-8.76 3.53-13.51 10.33-13.51 6.9 0 10.4 4.75 10.4 13.51 0 9.28-3.5 14.03-10.4 14.03zm0 0"/></symbol><symbol overflow="visible" id="6d202a35aH"><path d="M.52 14.88h10.17l9.97-20.86h.07l10.33 20.86h10.66L27.5-13.75l13.9-28.81H31.2L21.83-21.7h-.08L11.53-42.56H.9l14.06 28.5zm0 0"/></symbol><symbol overflow="visible" id="6d202a35aI"><path d="M21.75 1.28c12.66 0 17.48-4.62 18.92-14.86h-9.6c-1.16 5.14-3.38 7.19-9.45 7.19-5.5 0-8.68-1.74-8.68-5.9 0-3.79 2.62-5.71 7.48-5.71h5.9v-7.13h-5.98c-4.75 0-6.71-2.04-6.71-5.54 0-3.58 2.78-5.5 7.84-5.5 5.62 0 7.16 1.84 8.64 6.42h9.6c-2.57-9.4-6.71-14.1-18.41-14.1-11.49 0-17.24 5-17.32 11.85-.07 5.64 2.57 8.48 6.88 10.38v.07c-4.4 1.49-7.77 4.22-7.77 10.22C3.1-3.7 9.05 1.28 21.75 1.28zm0 0"/></symbol><symbol overflow="visible" id="6d202a35aJ"><path d="M22.83 1.2c12.86 0 20.7-8.39 20.7-20.5 0-11.48-6.03-17.3-15.67-21.01-6.84-2.66-10.33-4.58-10.33-8.52 0-2.86 1.97-4.55 5.99-4.55 4.62 0 6.06 1.77 7.59 6.52h9.53c-2.3-9.2-6-13.83-17.25-13.83-10.53 0-15.55 4.78-15.55 11.4 0 5.84 3.82 9.62 8.47 11.66v.08C9.13-36.09 2.3-30.42 2.3-18.97 2.3-7.19 10.05 1.2 22.83 1.2zm.05-8.03c-6.75 0-10.33-4.83-10.33-12.86 0-7.89 3.6-13.03 10.32-13.03 6.68 0 10.41 5.03 10.41 13.03 0 8.03-3.62 12.86-10.4 12.86zm0 0"/></symbol><symbol overflow="visible" id="6d202a35aK"><path d="M19.81 1.2c7.49 0 11.63-3.6 13.88-8.15h.08c1.04 5.5 4.3 8.15 10.6 8.15 2.18 0 4.1-.36 5.47-.92v-7.6c-.92.24-1.86.32-2.53.32-2.94 0-4.34-1.16-4.34-5.55v-30.01H34.4l-1 6.62h-.08c-2.3-4.42-5.83-7.83-12.83-7.83-10.9 0-18.02 8.36-18.02 22.47S9.05 1.2 19.81 1.2zm3.1-8.2c-6.6 0-10.2-4.7-10.2-14.27 0-9.6 3.6-14.3 10.2-14.3 6.64 0 10.17 5.38 10.17 14.3C33.08-12.63 29.55-7 22.9-7zm0 0"/></symbol><symbol overflow="visible" id="6d202a35aL"><path d="M5.14 14.88h9.69V-1.29C16.69.44 18.84 1.2 21.95 1.2c6.5 0 9.6-3.53 11.38-8.23h.08c.84 5.47 3.89 8.23 10.25 8.23 2.17 0 4.04-.36 5.42-.92v-7.6c-.9.24-1.85.32-2.53.32-2.94 0-4.35-1.16-4.35-5.55v-30.01H32.16v23.47c0 6.95-3.74 11.5-9.41 11.5-4.9 0-7.56-2.94-7.56-9.94v-25.03H5.14zm0 0"/></symbol><symbol overflow="visible" id="6d202a35aM"><path d="M21.47 0h1.78l4.58-25.95 31.69-38.72h-2.25l-30.1 36.75h-.1L10.04-64.67H8.06l17.99 38.72zm0 0"/></symbol><symbol overflow="visible" id="6d202a35aN"><path d="M58.02-46.48l.28-1.79H5.16l-.29 1.79H16.6L8.34 0h1.79l8.24-46.48h25.77L37.48-9.1C36.08-1.13 39.55.94 44.52.94c1.5 0 3.09-.38 4.3-.75l.29-1.69c-1.31.38-3.1.75-4.5.75-4.22 0-6.47-1.69-5.34-8.34l6.56-37.4zm0 0"/></symbol><symbol overflow="visible" id="6d202a35aO"><path d="M30.78-55.77h1.88l8.53-14.06h-2.25zM21.05 1.41c10.01 0 16.3-6.1 19.67-14.07h.1c-1.13 7.88-.76 14.07 6.84 14.07 1.3 0 2.8-.28 3.47-.47l.28-1.88a11.5 11.5 0 01-3.66.56c-6.38 0-6.38-6-4.97-14.24l5.9-33.65h-1.5l-2.8 13.7h-.1c-.84-6.76-4.87-15.1-16.4-15.1-12.18 0-20.61 8.72-23.52 24.92C1.73-10.31 7.17 1.41 21.05 1.41zm.1-1.78C8.57-.38 3.6-10.97 6.22-24.57c2.91-15.16 10.22-23.32 21.55-23.32 12.66 0 16.88 10.69 14.72 24.27C39.97-7.97 31.53-.38 21.14-.38zm0 0"/></symbol><symbol overflow="visible" id="6d202a35aP"><path d="M-.7 17.81h1.87l5.63-31.5h.1c.83 6.75 4.87 15.1 16.4 15.1 12.17 0 20.6-8.72 23.51-24.94 2.63-14.42-2.72-26.14-16.87-26.14-12.83 0-20.24 8.81-22.86 23.81zM23.4-.37C10.72-.38 6.32-11.26 8.76-25.02c2.62-14.62 9.09-22.87 21.07-22.87 13.13 0 17.63 10.97 15.1 24.17C42.04-8.53 34.72-.38 23.39-.38zm0 0"/></symbol><symbol overflow="visible" id="6d202a35aQ"><path d="M-5.06 17.81h2.15l22.5-31.4h.1L31.2 17.8h1.88L20.8-15.38l23.61-32.89h-2.15L20.16-17.34h-.1L8.72-48.27H6.84l12.1 32.7zm0 0"/></symbol><symbol overflow="visible" id="6d202a35aR"><path d="M19.36 1.4c12.83 0 17.89-5.71 21.45-15.37h-1.87c-3.38 8.63-7.6 13.6-19.49 13.6C9.33-.38 4.73-4.31 4.73-10.7c0-7.5 4.6-13.12 18.1-13.12h6.55l.28-1.58H23.1c-9 0-13.13-3.84-13.13-9.94 0-6.75 5.63-12.37 16.49-12.37 9.75 0 12.37 3.84 14.72 12.1h1.78c-2.53-9.48-5.9-13.88-16.4-13.88-11.9 0-18.46 6.46-18.46 14.15 0 5.9 3.28 9.56 8.62 10.5v.08C8.02-23.72 2.77-18.85 2.77-10.5c0 7.22 5.53 11.9 16.59 11.9zm0 0"/></symbol><symbol overflow="visible" id="6d202a35aS"><path d="M11.63.94c2.15 0 3.93-.38 5.53-1.03l.28-1.78A16.5 16.5 0 0112-.75c-4.13 0-6.38-2.06-5.34-8.16l6.93-39.36h-1.87L4.87-9.09C3.67-1.97 6.58.94 11.63.94zm0 0"/></symbol><symbol overflow="visible" id="6d202a35aU"><path d="M21.75 1.4c13.02 0 21.17-8.71 24.08-24.93 2.62-14.42-2.63-26.14-17.35-26.14-13.01 0-21.17 8.62-24.07 24.84C1.87-10.5 6.84 1.41 21.75 1.41zm.1-1.77c-13.7 0-17.82-10.7-15.57-24.29 2.53-15.17 9.94-23.23 22.11-23.23 13.5 0 18.19 10.6 15.56 24.17C41.05-8.53 34.02-.38 21.85-.38zm0 0"/></symbol><symbol overflow="visible" id="6d202a35aV"><path d="M33.6-70.77c-11.43 0-18.83 7.79-21.37 21.94L.52 17.81h1.87l5.25-30h.1c1.12 6.75 6.74 13.6 17.6 13.6 12.66 0 21-8.82 21-22.22 0-9.17-6.56-14.33-11.9-15.27v-.1c7.78-1.68 15-7.96 15-19.77 0-8.82-5.63-14.82-15.85-14.82zm-.2 1.88c9.38 0 14.16 5.16 14.16 13.12 0 10.7-6.75 18.66-18.56 18.66h-5.52l-.28 1.69h5.52c9 0 15.75 5.53 15.75 14.6 0 12.2-7.13 20.45-19.22 20.45C14.2-.38 7.17-9 9.05-19.98l5.06-28.86c2.34-13.31 9.37-20.06 19.3-20.06zm0 0"/></symbol><symbol overflow="visible" id="6d202a35aW"><path d="M23.63-69.36h-1.88l4.67 21.1L-1.4 0H.66l26.32-45.83h.1L37.48 0h1.79zm0 0"/></symbol><symbol overflow="visible" id="6d202a35aX"><path d="M28.63-55.77h1.87l8.53-14.06h-2.25zm6 73.58h1.87l8.63-48.73c2.06-11.72-2.44-18.75-13.97-18.75-10.11 0-16.4 6.84-19.3 13.6h-.1l1.88-12.2h-1.5L3.61 0h1.87l4.7-26.42c2.24-12.85 10.4-21.47 20.98-21.47 10.3 0 14.06 6.1 12.09 16.97zm0 0"/></symbol><symbol overflow="visible" id="6d202a35aY"><path d="M22.69 1.4c13.48 0 22.95-9.09 22.95-21.74 0-7.96-4.78-12.18-10.5-13.4v-.09c9.38-1.78 14.81-9.1 14.81-18.65 0-8.35-5.9-13.6-15.56-13.6-12.17 0-17.98 5.06-24.45 17.81h1.97C18.19-60.07 23.16-64.3 34.3-64.3c8.62 0 13.87 4.4 13.87 11.9 0 10.04-6.94 17.73-18.1 17.73h-7.1l-.28 1.69h7.1c7.7 0 14.07 3.65 14.07 12.64 0 11.53-8.72 19.96-21.08 19.96C11.16-.38 6.47-4.03 4.22-16.5H2.44C4.59-3.1 10.3 1.4 22.69 1.4zm0 0"/></symbol><symbol overflow="visible" id="6d202a35aZ"><path d="M23.86 1.4C36.03 1.4 45.5-6 47.84-18.93c2.35-12.92-4.12-21.08-16.78-21.08-13.48 0-20.51 9-22.86 15.83h-.1c3.2-20.98 9.67-40.1 26.8-40.1 10.23 0 13.13 4.21 16.23 14.43h1.78c-2.82-10.78-6.57-16.22-17.72-16.22-13.2 0-23.33 9.75-28.02 36.66C3.05-5.62 12.33 1.4 23.86 1.4zm.1-1.77C11.3-.38 6.8-10.22 8.66-20.34c1.4-7.77 9.1-17.9 22.2-17.9 12 0 17.25 7.32 15.2 19.3C44-6.94 34.71-.37 23.94-.37zm0 0"/></symbol><symbol overflow="visible" id="6d202a35ba"><path d="M26.33 1.4c14.9 0 24.94-11.43 28.78-33.73 3.84-22.31-4.69-33.75-18.66-33.75-14.89 0-24.92 11.44-28.76 33.75-3.85 22.3 4.68 33.74 18.64 33.74zm.19-1.77c-13.2 0-20.7-10.79-16.96-31.96C13.31-53.52 22.5-64.3 36.26-64.3c13.22 0 20.72 10.78 16.97 31.97C49.48-11.16 40.3-.38 26.52-.38zm0 0"/></symbol><symbol overflow="visible" id="6d202a35bb"><path d="M19.69-48.17c7.95 0 13.39-6.19 13.39-13.5 0-5.63-3.38-9.56-10.2-9.56-7.97 0-13.41 6.18-13.41 13.5 0 5.62 3.37 9.56 10.22 9.56zm.1-1.6c-5.91 0-8.63-3.28-8.63-8.06 0-6 4.4-11.81 11.62-11.81 5.9 0 8.61 3.28 8.61 8.06 0 6-4.4 11.81-11.6 11.81zm0 0"/></symbol><symbol overflow="visible" id="6d202a35bc"><path d="M47.5 0h16.81L44.28-61.53H21.53L1.47 0h15.56l3.3-10.6h24.05zM23.66-22.19l8.67-28.2h.56l8.23 28.2zm0 0"/></symbol><symbol overflow="visible" id="6d202a35bd"><path d="M7.06 0h13.9v-39.56h.57L46.36 0h17.52v-61.53H49.97v39.44h-.53L24.66-61.53H7.06zm0 0"/></symbol><symbol overflow="visible" id="6d202a35be"><path d="M5.67-17.72h30.35v-11.8H5.67zm0 0"/></symbol><symbol overflow="visible" id="6d202a35bf"><path d="M44.38-61.53h-22.8l-17.6 51.1V0h57.99v-10.44zM21.7-12.7l10.7-37.74h.58L44.5-12.7zm0 0"/></symbol><symbol overflow="visible" id="6d202a35bg"><path d="M7.06 0h16.35v-24.48h23.26V0H63v-61.53H46.67v23.92H23.41v-23.92H7.06zm0 0"/></symbol><symbol overflow="visible" id="6d202a35bh"><path d="M7.06 0h13.61v-45.63h.61L36.58 0h15.08l15.3-45.63h.6V0H83.2v-61.53H59.16l-13.4 42.42h-.56L31.45-61.53H7.06zm0 0"/></symbol><symbol overflow="visible" id="6d202a35bi"><path d="M7.06 0h16.35v-61.53H7.06zm0 0"/></symbol><symbol overflow="visible" id="6d202a35bj"><path d="M34.7 1.3c20.28 0 31.25-11.53 31.25-32.07S54.98-62.83 34.7-62.83c-20.18 0-31.18 11.52-31.18 32.06 0 20.54 11 32.07 31.18 32.07zm0-12.86c-10.26 0-14.47-6.86-14.47-19.2 0-12.35 4.2-19.2 14.47-19.2 10.36 0 14.57 6.85 14.57 19.2 0 12.34-4.2 19.2-14.57 19.2zm0 0"/></symbol><symbol overflow="visible" id="6d202a35bk"><path d="M22.02 0h16.25v-22.53l23.09-39H45.8L31.8-37.22h-.53L17.11-61.53H-1.08l23.1 39.64zm0 0"/></symbol><symbol overflow="visible" id="6d202a35bl"><path d="M38.48-61.53H7.06V0h16.35v-20.8h14.46c16.16 0 23.22-7.37 23.22-20.1 0-13.3-7.06-20.63-22.6-20.63zM34.8-32.67H23.4v-16.86h11.4c7.33 0 10.14 2.22 10.14 8.33 0 6.14-2.81 8.53-10.14 8.53zm0 0"/></symbol><symbol overflow="visible" id="6d202a35bm"><path d="M50.48-61.53H7.06V0h16.35v-48.48h27.07zm0 0"/></symbol><symbol overflow="visible" id="6d202a35bn"><path d="M1.98 0h1.44l3.13-17.81h.14L10.77 0h1.64l10.36-17.81h.12L19.75 0h1.48l3.46-19.6h-2.42L11.94-1.88h-.14L7.7-19.61H5.44zm0 0"/></symbol><symbol overflow="visible" id="6d202a35bo"><path d="M6.45.42c3.83 0 6.02-1.69 6.6-4.4l-1.46-.13C11-1.87 9.33-.9 6.53-.9c-2.73 0-3.86-.82-3.86-2.46 0-2.07 1.74-3.36 5.05-3.36h1.73l.24-1.3H7.94c-2.78 0-3.75-.83-3.75-2.38 0-1.96 1.48-3.12 4.54-3.12 2.91 0 3.49 1.1 3.74 3.01l1.47-.14c-.33-2.26-1.28-4.2-5.08-4.2-3.66 0-6.14 1.63-6.14 4.45a2.94 2.94 0 002.51 2.96v.1c-1.8.16-4.09 1.63-4.09 4.12C1.14-.93 2.97.42 6.45.42zm0 0"/></symbol><symbol overflow="visible" id="6d202a35bp"><path d="M12.45-13.02l.25-1.42H1.27l-.25 1.42h4.84l-1.69 9.7C3.75-.85 5.11.29 7.2.29A7 7 0 008.97.03l-.08-1.28c-.36.1-.9.17-1.4.17-1.22 0-2.13-.5-1.85-2.12l1.7-9.82zm0 0"/></symbol><symbol overflow="visible" id="6d202a35bq"><path d="M7.03.42c2.7 0 4.2-1.25 5.08-2.87h.1c-.07 1.73.8 2.73 2.77 2.73.58 0 1.08-.14 1.41-.25l-.08-1.28c-.31.1-.68.17-1.1.17-1.3 0-1.6-.89-1.38-2.08l1.98-11.28h-1.19l-.8 2.61h-.1c-.5-1.31-1.69-3.03-4.7-3.03-3.96 0-6.6 2.9-7.32 7.38-.72 4.42.8 7.9 5.33 7.9zM7.22-1C3.52-1 2.6-3.84 3.25-7.48c.69-3.93 2.63-5.97 5.73-5.97 3.38 0 4.75 2.51 4.14 6.36C12.59-3.64 10.7-1 7.22-1zm0 0"/></symbol><symbol overflow="visible" id="6d202a35br"><path d="M10.05-14.44c-.96-5.1-1.4-6.69-3.86-6.69-.55 0-1.14.11-1.61.25l.23 1.33c.52-.12.85-.17 1.24-.17 1.5 0 1.68 1.02 2.6 5.28h-.56L-.44 0h1.66l7.6-12.88h.1L11.3 0h1.48zm0 0"/></symbol><symbol overflow="visible" id="6d202a35bs"><path d="M4.83.28c.6 0 1.25-.14 1.58-.25l-.08-1.28c-.31.1-.72.17-1.14.17-1.1 0-1.9-.33-1.6-2.12l1.96-11.24H4.03L2.13-3.48C1.69-.86 2.8.28 4.83.28zm0 0"/></symbol><symbol overflow="visible" id="6d202a35bt"><path d="M15.03-14.44h-2.15l-8.3 6.46h-.11l1.14-6.46H4.09L1.55 0h1.51l1.25-7.13h.14L10.65 0h1.87l-6.5-7.48zm0 0"/></symbol><symbol overflow="visible" id="6d202a35bu"><path d="M9.27-16.66h1.37l3.23-5.15H12.2zM7.03.42c2.7 0 4.2-1.25 5.08-2.87h.1c-.07 1.73.8 2.73 2.77 2.73.58 0 1.08-.14 1.41-.25l-.08-1.28c-.31.1-.68.17-1.1.17-1.3 0-1.6-.89-1.38-2.08l1.98-11.28h-1.19l-.8 2.61h-.1c-.5-1.31-1.69-3.03-4.7-3.03-3.96 0-6.6 2.9-7.32 7.38-.72 4.42.8 7.9 5.33 7.9zM7.22-1C3.52-1 2.6-3.84 3.25-7.48c.69-3.93 2.63-5.97 5.73-5.97 3.38 0 4.75 2.51 4.14 6.36C12.59-3.64 10.7-1 7.22-1zm0 0"/></symbol><symbol overflow="visible" id="6d202a35bw"><path d="M7.1.42c4.18 0 6.92-2.58 7.67-6.94.6-3.53-.61-5.9-4.18-7.37-2.57-1.05-3.67-1.72-3.67-3.16 0-1.76 1.66-2.78 3.86-2.78 2.35 0 3.13.77 3.4 2.67l1.45-.07c-.26-2.27-1.47-3.9-4.7-3.9-3.04 0-5.45 1.66-5.45 4.29 0 1.57 1.16 2.59 3.1 3.36l-.06.09c-3.35 0-6.3 2.42-6.99 6.48C.84-2.84 2.72.42 7.11.42zM7.32-1C3.55-1 2.56-3.45 3.08-6.77 3.6-10 5.48-12.4 8.94-12.4c3.36 0 4.86 2.27 4.28 5.79C12.64-3.13 10.64-1 7.32-1zm0 0"/></symbol><symbol overflow="visible" id="6d202a35bx"><path d="M7.2.42c4.14 0 6.88-2.6 7.74-7.51.78-4.5-1.1-7.77-5.52-7.77-4.12 0-6.86 2.56-7.73 7.48-.8 4.5 1.1 7.8 5.51 7.8zM7.34-1c-3.71 0-4.82-2.7-4.1-6.38.8-4.06 2.67-6.07 6.04-6.07 3.74 0 4.83 2.68 4.11 6.36C12.6-3.02 10.72-1 7.34-1zm0 0"/></symbol><symbol overflow="visible" id="6d202a35by"><path d="M.3 5.53h1.53l1.44-8.12h.1C3.92-1.2 5.08.42 8.14.42c3.77 0 6.42-2.69 7.25-7.26.8-4.5-.92-8.02-5.39-8.02-4.34 0-6.63 2.9-7.38 7.19zM8.28-1c-3.67 0-5-2.64-4.33-6.34.61-3.38 2.1-6.11 5.8-6.11 3.78 0 4.75 2.7 4.1 6.5C13.14-3.03 11.1-1 8.27-1zm0 0"/></symbol><symbol overflow="visible" id="6d202a35bz"><path d="M7.2.42c4.14 0 6.88-2.6 7.63-7.25.36-2.2-.14-4.76-1.94-6.1l.03-.09h4.1l.25-1.42h-7.7c-4.38 0-7.09 2.56-7.91 7.2C.89-2.86 2.8.43 7.2.43zM7.34-1C3.63-1 2.52-3.7 3.2-7.23c.75-3.79 2.63-5.8 6-5.8 3.72 0 4.83 2.67 4.08 6.34S10.72-1 7.34-1zm0 0"/></symbol><symbol overflow="visible" id="6d202a35bA"><path d="M7.38.42c3.85 0 5.82-1.97 6.59-6.42l1.5-8.44h-1.52l-1.47 8.31C11.83-2.38 10.55-1 7.52-1 4.47-1 3.2-2.38 3.86-6.13l1.47-8.3H3.8L2.37-6.28c-.76 4.44 1.13 6.7 5 6.7zm0 0"/></symbol><symbol overflow="visible" id="6d202a35bB"><path d="M14.78-14.44h-1.65l-7.2 12.6h-.1l-2.74-12.6H1.55L4.83.2l-.9 5.34h1.46L6.3.22zm0 0"/></symbol><symbol overflow="visible" id="6d202a35bC"><path d="M10.72 5.53h1.51l2.55-14.5c.63-3.62-.47-5.89-4.26-5.89a6.27 6.27 0 00-5.35 3.03h-.12l.2-2.6H4.09L1.55 0h1.51l1.4-7.84C5-11 7.3-13.4 10.38-13.4c2.86 0 3.36 1.56 2.86 4.39zm0 0"/></symbol><symbol overflow="visible" id="6d202a35bD"><path d="M.56 5.53h1.5L3.3-1.44C3.86-.28 4.84.42 6.78.42c2.77 0 4.2-1.6 5.11-2.94H12c-.22 1.97.75 2.94 2.38 2.94.5 0 1.14-.1 1.51-.23l-.08-1.24c-.33.08-.65.11-.9.11-1.3 0-1.79-.44-1.43-2.54l1.94-10.96h-1.51L12.5-6.48c-.56 3.09-2.84 5.46-5.58 5.46-2.26 0-3.48-1.25-2.9-4.45l1.6-8.97H4.1zm0 0"/></symbol><symbol overflow="visible" id="6d202a35bE"><path d="M7.9-16.66h1.4l3.23-5.15h-1.69zM6.46.42c3.83 0 6.02-1.69 6.6-4.4l-1.46-.13C11-1.87 9.33-.9 6.53-.9c-2.73 0-3.86-.82-3.86-2.46 0-2.07 1.74-3.36 5.05-3.36h1.73l.24-1.3H7.94c-2.78 0-3.75-.83-3.75-2.38 0-1.96 1.48-3.12 4.54-3.12 2.91 0 3.49 1.1 3.74 3.01l1.47-.14c-.33-2.26-1.28-4.2-5.08-4.2-3.66 0-6.14 1.63-6.14 4.45a2.94 2.94 0 002.51 2.96v.1c-1.8.16-4.09 1.63-4.09 4.12C1.14-.93 2.97.42 6.45.42zm0 0"/></symbol><symbol overflow="visible" id="6d202a35bF"><path d="M4.81 0h1.63l8.34-14.44h-1.65L5.96-1.84h-.11l-2.77-12.6H1.55zm0 0"/></symbol><symbol overflow="visible" id="6d202a35bG"><path d="M7.08.42c4.6 0 7.1-3.62 8.36-10.75 1.3-7.2-.55-10.8-4.72-10.8-4.7 0-7.1 3.6-8.38 10.8C1.11-3.2 2.81.42 7.08.42zM4.03-11.22c1.14-5.76 2.9-8.5 6.44-8.5 3.5 0 4.5 2.74 3.6 8.5zM7.31-1C3.71-1 2.8-3.86 3.78-9.86h10.06C12.7-3.86 10.91-1 7.31-1zm0 0"/></symbol><symbol overflow="visible" id="6d202a35bH"><path d="M2.16-6.77h7.98l.22-1.32H2.38zm0 0"/></symbol><symbol overflow="visible" id="6d202a35bI"><path d="M-1.4 5.53H.24l5.83-8.55h.1l2.96 8.55h1.52L7.3-4.14l6.84-10.3h-1.66L6.8-5.89h-.11L3.7-14.44H2.2l3.36 9.69zm0 0"/></symbol><symbol overflow="visible" id="6d202a35bJ"><path d="M4.25-16.66h1.4l3.2-5.15H7.2zM4.83.28c.6 0 1.25-.14 1.58-.25l-.08-1.28c-.31.1-.72.17-1.14.17-1.1 0-1.9-.33-1.6-2.12l1.96-11.24H4.03L2.13-3.48C1.69-.86 2.8.28 4.83.28zm0 0"/></symbol><symbol overflow="visible" id="6d202a35bK"><path d="M.17 4.53c1.13-1.25 3-3.76 3-5.64 0-.73-.44-1.19-1.12-1.19-.75 0-1.4.57-1.4 1.4 0 .73.52 1 1.12 1.04C1.3 1.61.39 2.67-.7 4.11zm0 0"/></symbol><symbol overflow="visible" id="6d202a35bL"><path d="M18.06-13.02l.25-1.42H1.97l-.25 1.42h3.1L2.56 0h1.48l2.3-13.02h6.98l-1.73 9.68C11.1-.72 12.3.28 14.22.28c.47 0 1-.1 1.3-.2l-.08-1.27c-.25.06-.66.11-1 .11-1.06 0-1.74-.36-1.42-2.12l1.76-9.82zm0 0"/></symbol><symbol overflow="visible" id="6d202a35bM"><path d="M5.9.42c2.65 0 4.38-1.67 5.27-3.87h.08c.25 2.2 1.47 3.87 4.2 3.87 3.18 0 5.52-2.51 6.3-6.97.75-4.3-.72-7.84-4.58-8.3l-.25 1.37c3.2.5 3.94 3.54 3.35 6.8C19.52-2.7 17.8-.95 15.3-.95c-2.73 0-3.34-2.92-2.81-5.94l.63-3.62H11.6l-.63 3.63C10.31-3.04 8.47-.95 6.03-.95c-2.87 0-3.45-2.6-2.92-5.89.69-4.25 3.17-6.3 5.6-6.65l-.02-1.38c-3.16.28-6.16 2.88-7.08 7.9C.89-3.02 2.03.43 5.89.43zm0 0"/></symbol><symbol overflow="visible" id="6d202a35bN"><path d="M9.6 5.66a5.34 5.34 0 001.3-3.18c0-2.7-2.34-3.17-4.5-3.84C4.59-1.94 2.9-2.66 2.9-5c0-4.86 7.65-10.4 12.5-14.42l.22-1.3H5.22l-.25 1.44h7.92l-.02.1c-4.67 4-11.57 9-11.57 14.35C1.3-1.72 3.64-.8 5.83-.1 7.7.5 9.45.94 9.45 2.5c0 .96-.6 1.93-1.1 2.68zm0 0"/></symbol><symbol overflow="visible" id="6d202a35bO"><path d="M10.86-21.13c-3.77 0-6 2.27-6.75 6.57L.58 5.54h1.5l1.4-8.02h.15c.71 1.43 2.3 2.9 5.15 2.9 4.03 0 6.44-2.72 6.44-6.42 0-2.97-1.9-4.4-3.52-4.75l.03-.08a5.32 5.32 0 004.4-5.5c0-2.81-2.05-4.8-5.27-4.8zm-.1 1.35c2.63 0 3.91 1.47 3.91 3.6 0 2.84-2.01 4.7-5.14 4.7H8.45l-.25 1.34h1.22c2.52 0 4.28 1.36 4.28 4.02 0 2.96-1.72 5.18-4.84 5.18-3.03 0-5.27-2.1-4.72-5.3l1.44-8.18c.6-3.5 2.12-5.36 5.19-5.36zm0 0"/></symbol><symbol overflow="visible" id="6d202a35bP"><path d="M9.28-16.66h1.38l3.23-5.15H12.2zm1.44 22.2h1.51l2.55-14.5c.63-3.63-.47-5.9-4.26-5.9a6.27 6.27 0 00-5.35 3.03h-.12l.2-2.6H4.09L1.55 0h1.51l1.4-7.84C5-11 7.3-13.4 10.38-13.4c2.86 0 3.36 1.56 2.86 4.39zm0 0"/></symbol><symbol overflow="visible" id="6d202a35bQ"><path d="M10.4 5.66a5.44 5.44 0 001.29-3.18c0-2.45-2-3.03-4.06-3.78-2.2-.78-4.46-1.68-4.46-5.17 0-3.89 2.3-6.98 5.86-6.98 2.49 0 3.9 1.1 4.03 3.51l1.47-.1c-.17-2.98-2.1-4.82-5.36-4.82-4.42 0-7.54 3.7-7.54 8.5 0 4.2 2.8 5.34 5.2 6.22C8.64.5 10.22 1 10.22 2.48c0 .97-.61 1.94-1.11 2.7zm0 0"/></symbol><symbol overflow="visible" id="6d202a35bR"><path d="M7.48 5.53H9L9.92.4c5.24-.22 8.58-2.8 9.4-7.47.79-4.4-1.7-7.48-6.73-7.75l.72-3.95H11.8l-.72 3.95c-5.25.19-8.6 2.78-9.4 7.49C.95-2.91 3.39.14 8.4.39zm1.2-6.5C4.2-1.19 2.54-3.59 3.22-7.34c.7-3.77 3.1-5.94 7.64-6.14zm1.46 0l2.2-12.51c4.47.23 6.11 2.65 5.44 6.4-.66 3.77-3.1 5.92-7.64 6.11zm0 0"/></symbol><symbol overflow="visible" id="6d202a35bS"><path d="M10.52 5.66a5.44 5.44 0 001.3-3.18c0-2.48-2.27-3.06-4.54-3.67-2.33-.6-4.64-1.25-4.64-3.95 0-3.31 2.53-5.19 6.92-5.19h1.61l.25-1.36h-1.6c-2.85 0-4.76-1.01-4.76-3.34 0-2.63 1.53-4.77 5-4.77 3.06 0 3.74 1.4 3.92 3.58l1.47-.12c-.28-2.99-1.54-4.79-5.25-4.79-4.47 0-6.62 2.93-6.62 6.05 0 2.2 1.3 3.46 3.06 3.96v.07c-2.37.22-5.5 2.3-5.5 5.9 0 3.63 2.99 4.5 5.56 5.18 1.92.52 3.64.97 3.64 2.45 0 .97-.6 1.94-1.1 2.7zm0 0"/></symbol><symbol overflow="visible" id="6d202a35bT"><path d="M9-16.66h1.4l3.2-5.15h-1.66zM7.37.42c3.86 0 5.83-1.97 6.6-6.42l1.5-8.44h-1.52l-1.47 8.31C11.83-2.38 10.55-1 7.52-1 4.47-1 3.2-2.38 3.86-6.13l1.47-8.3H3.8L2.37-6.28c-.76 4.44 1.13 6.7 5 6.7zm0 0"/></symbol><symbol overflow="visible" id="6d202a35bU"><path d="M1.77.14c.82 0 1.43-.53 1.43-1.5 0-.69-.5-1.05-1.04-1.05-.9 0-1.44.54-1.44 1.5 0 .7.47 1.05 1.05 1.05zm0 0"/></symbol><symbol overflow="visible" id="6d202a35bV"><path d="M98.44 0h53.17v-49.22c56.86-6.64 86.26-36.48 86.26-90.94v-60.67h-50.2v59.11c0 31.27-11.31 46.4-38.47 51.34v-110.45h-48.36v110.17c-26.73-4.67-38.47-20.07-38.47-51.06v-59.1H12.16v60.66c0 54.46 29.42 84.3 86.28 90.8zm0 0"/></symbol><symbol overflow="visible" id="6d202a35bZ"><path d="M1.9 0h15.97v-2.83H6.07v-.15l7.38-8.36v-.32l-7.01-7.67v-.15h11.43v-2.83H2.05v2.67l7.5 8.3-7.66 8.67zm0 0"/></symbol><symbol overflow="visible" id="6d202a35ca"><path d="M13.73-13.77v-2.82H0v2.82h5.16v9.61c0 2.97 1.46 4.57 4.5 4.57C10.69.4 11.84.16 12.3 0L12-2.45c-.34.1-1.13.18-1.66.18-1.39 0-2.17-.5-2.17-2.1v-9.4zm0 0"/></symbol><symbol overflow="visible" id="6d202a35cb"><path d="M9.55.47c5.15 0 8.01-3.14 8.01-8.8 0-5.62-2.86-8.73-8.01-8.73-5.11 0-7.97 3.1-7.97 8.73 0 5.66 2.86 8.8 7.97 8.8zm0-2.67c-3.24 0-4.77-2.11-4.77-6.13 0-3.98 1.53-6.06 4.77-6.06 3.28 0 4.8 2.08 4.8 6.06 0 4.02-1.52 6.13-4.8 6.13zm0 0"/></symbol><symbol overflow="visible" id="6d202a35cc"><path d="M9.81.47c4.55 0 7.22-2.3 7.22-7.67v-9.4H13.9v9.4c0 3.62-1.25 5-4.08 5-2.8 0-4.1-1.38-4.1-5v-9.4H2.59v9.4C2.58-1.83 5.28.47 9.8.47zm0 0"/></symbol><symbol overflow="visible" id="6d202a35cd"><path d="M14.02 6.44a6.76 6.76 0 001.54-4.11c0-3.27-2.33-4.06-4.81-4.85-2.8-.9-5.78-1.82-5.78-6.4 0-3.36 1.44-5.47 4.55-5.47 2.51 0 3.78 1.22 4.09 3.39l3.17-.25c-.44-3.7-2.89-5.81-7.26-5.81-4.96 0-7.79 3.26-7.79 8.2C1.73-2.67 5.6-1.3 8.7-.28c2.05.69 3.75 1.22 3.75 2.92 0 1.03-.57 1.95-1.2 3.02zm0 0"/></symbol><symbol overflow="visible" id="6d202a35cf"><path d="M8.86.47c4.84 0 7.14-1.78 7.42-5.34l-3.14-.25c-.25 2.1-1.48 3.04-4.28 3.04-2.67 0-4.08-.81-4.08-2.67 0-1.66.97-2.45 3.61-2.45h2.52V-9.7H8.39c-2.42 0-3.23-.87-3.23-2.44 0-1.42.9-2.39 3.7-2.39 2.52 0 3.56.79 3.97 2.77l3.14-.25c-.38-2.98-2.33-5.06-7.11-5.06-4.64 0-6.72 1.81-6.75 4.51-.03 2.58 1.34 3.63 3.08 4.03v.16C3.45-8.05 1.7-7.08 1.7-4.34c0 2.89 2.28 4.8 7.16 4.8zm0 0"/></symbol><symbol overflow="visible" id="6d202a35cg"><path d="M16.78-16.6h-3.7l-6.9 6.88h-.15v-6.87H2.9V0h3.14v-7.6h.16L13.27 0h3.82L8.92-8.77zm0 0"/></symbol><symbol overflow="visible" id="6d202a35ch"><path d="M9.75.47c5.17 0 8.03-3.67 8.03-12.25 0-8.61-2.86-12.27-8.03-12.27-5.16 0-8.02 3.66-8.02 12.27C1.73-3.2 4.6.47 9.75.47zm-4.88-13.9C5.1-19.2 6.6-21.4 9.75-21.4c3.17 0 4.64 2.2 4.86 7.99zM9.75-2.16c-3.28 0-4.75-2.36-4.9-8.61h9.8c-.17 6.25-1.6 8.6-4.9 8.6zm0 0"/></symbol><symbol overflow="visible" id="6d202a35ci"><path d="M9.55.47c5.15 0 7.76-3.24 7.76-7.67 0-2.96-1.1-5.22-2.98-6.44v-.13h4.31v-2.82h-8.1c-5.7 0-8.96 3.17-8.96 8.64C1.58-2.77 4.44.47 9.55.47zm0-2.67c-3.24 0-4.77-2.17-4.77-5.94 0-3.77 1.69-5.78 4.88-5.78 3.17 0 4.67 2.36 4.67 5.78 0 3.77-1.5 5.94-4.78 5.94zm0 0"/></symbol><symbol overflow="visible" id="6d202a35cj"><path d="M7.3.4C8.27.4 9.3.2 9.8 0l-.33-2.45c-.34.1-.9.18-1.37.18-1.4 0-2.08-.5-2.08-2.1V-16.6H2.9v12.43C2.9-1.12 4.34.41 7.3.41zm0 0"/></symbol><symbol overflow="visible" id="6d202a35ck"><path d="M8.6.47c3.24 0 4.67-1.66 5.57-3.55h.19c.25 2.08 1.1 3.49 4 3.49.87 0 1.62-.2 2.1-.38l-.32-2.45c-.34.1-.75.15-1.19.15-1.1 0-1.7-.5-1.7-2.04V-16.6h-3.14v2.64h-.16c-.9-1.99-2.64-3.11-5.18-3.11-4.58 0-7.2 3.23-7.2 8.76C1.58-2.77 4.2.47 8.62.47zm.88-2.67c-3.14 0-4.7-2.02-4.7-6.1 0-4.07 1.56-6.1 4.7-6.1 3.16 0 4.7 2.37 4.7 6.1 0 3.77-1.54 6.1-4.7 6.1zm0 0"/></symbol><symbol overflow="visible" id="6d202a35cl"><path d="M8.14-18.95h2.52l2.98-5.78h-3.33zM9.81.47c4.55 0 7.22-2.3 7.22-7.67v-9.4H13.9v9.4c0 3.62-1.25 5-4.08 5-2.8 0-4.1-1.38-4.1-5v-9.4H2.59v9.4C2.58-1.83 5.28.47 9.8.47zm0 0"/></symbol><symbol overflow="visible" id="6d202a35cm"><path d="M.47 6.13H3.7l4.6-8.49h.15l4.66 8.48h3.36L10.34-5l5.97-11.6h-3.23L8.8-8.1h-.13l-4.69-8.5H.63L6.71-5.5zm0 0"/></symbol><symbol overflow="visible" id="6d202a35cn"><path d="M12.22-18.95h2.51l2.99-5.78h-3.33zM8.45.47a5.3 5.3 0 005.44-4.3h.16c.6 2.44 2.36 4.3 5.43 4.3 3.94 0 6.9-2.86 6.9-8.4 0-6.18-3.35-8.95-7.27-9.13l-.25 2.67c2.48.19 4.3 1.81 4.3 6.47 0 3.84-1.66 5.72-3.93 5.72-2.23 0-3.7-1.9-3.7-5.66v-4.08h-3.1v4.08c0 3.75-1.52 5.66-3.73 5.66-2.26 0-3.92-1.88-3.92-5.72 0-4.66 1.78-6.28 4.27-6.47l-.25-2.67c-3.93.18-7.22 2.95-7.22 9.14C1.58-2.4 4.53.47 8.45.47zm0 0"/></symbol><symbol overflow="visible" id="6d202a35co"><path d="M2.58 6.13h3.14v-8.77h.16c.9 1.98 2.64 3.1 5.18 3.1 4.6 0 7.2-3.23 7.2-8.76 0-5.53-2.73-8.76-7.92-8.76-5.18 0-7.76 3.23-7.76 8.76zm7.76-8.33c-3.14 0-4.68-2.33-4.68-6.1 0-4.07 1.54-6.1 4.68-6.1 3.14 0 4.7 2.03 4.7 6.1 0 4.08-1.56 6.1-4.7 6.1zm0 0"/></symbol><symbol overflow="visible" id="6d202a35cp"><path d="M11.03 6.13h3.11V.4c6.31-.44 9.47-3.7 9.47-8.7 0-5-3.16-8.27-9.47-8.71v-4.38h-3.1V-17c-6.32.44-9.46 3.67-9.46 8.7 0 5.03 3.14 8.27 9.45 8.7zm.06-8.33c-4.56-.38-6.3-2.55-6.3-6.1 0-3.54 1.74-5.72 6.3-6.1zm2.99 0v-12.2c4.53.38 6.31 2.56 6.31 6.1 0 3.55-1.78 5.72-6.31 6.1zm0 0"/></symbol><symbol overflow="visible" id="6d202a35cq"><path d="M8.45.47a5.3 5.3 0 005.44-4.3h.16c.6 2.44 2.36 4.3 5.43 4.3 3.94 0 6.9-2.86 6.9-8.4 0-6.18-3.35-8.95-7.27-9.13l-.25 2.67c2.48.19 4.3 1.81 4.3 6.47 0 3.84-1.66 5.72-3.93 5.72-2.23 0-3.7-1.9-3.7-5.66v-4.08h-3.1v4.08c0 3.75-1.52 5.66-3.73 5.66-2.26 0-3.92-1.88-3.92-5.72 0-4.66 1.78-6.28 4.27-6.47l-.25-2.67c-3.93.18-7.22 2.95-7.22 9.14C1.58-2.4 4.53.47 8.45.47zm0 0"/></symbol><symbol overflow="visible" id="6d202a35cr"><path d="M10.69-16.6c-1.8-5.09-2.27-7.45-5.69-7.45a9.3 9.3 0 00-2.52.35l.35 2.64c.65-.13 1.03-.22 1.64-.22 1.66 0 2.03.95 3.3 4.69H6.53L.25 0h3.3l5-13.73h.15L13.2 0h3.36zm0 0"/></symbol><symbol overflow="visible" id="6d202a35cs"><path d="M14.17 6.13h3.14V-11.2c0-3.76-1.87-5.87-5.56-5.87a6.02 6.02 0 00-5.63 3.33h-.15l-.4-2.86H2.88V0h3.14v-9.1c0-3.09 1.95-5.13 4.72-5.13 2.33 0 3.42 1.37 3.42 4.07zm0 0"/></symbol><symbol overflow="visible" id="6d202a35ct"><path d="M20.64-13.77v-2.82H.81v2.82h3.53V0H7.4v-13.77h6.56v9.79c0 3.1 1.03 4.39 4.07 4.39.93 0 1.71-.22 2.18-.38l-.25-2.42c-.3.06-.78.12-1.15.12-1.49 0-1.9-.5-1.9-2.17v-9.33zm0 0"/></symbol><symbol overflow="visible" id="6d202a35cu"><path d="M9.44.47c5.03 0 8.04-3.3 8.04-8.02 0-4.36-2.06-6.87-6.15-8.42-2.33-.87-4.27-1.81-4.27-3.6 0-1.24.88-2.02 2.8-2.02 2.16 0 3.14.68 3.52 2.45l3.07-.25c-.37-2.73-2.04-4.66-6.56-4.66-4.03 0-5.95 1.8-5.95 4.35 0 2.45 1.67 3.82 3.84 4.68l-.03.16c-3.2.25-6.25 2.7-6.25 7.31C1.5-2.83 4.48.47 9.44.47zm.03-2.67C6.3-2.2 4.7-4.28 4.7-7.77c0-3.39 1.63-5.62 4.77-5.62 3.12 0 4.81 2.17 4.81 5.62 0 3.49-1.62 5.57-4.81 5.57zm0 0"/></symbol><symbol overflow="visible" id="6d202a35cv"><path d="M8.2-18.95h2.52l2.98-5.78h-3.32zM8.6.47c3.24 0 4.67-1.66 5.57-3.55h.19c.25 2.08 1.1 3.49 4 3.49.87 0 1.62-.2 2.1-.38l-.32-2.45c-.34.1-.75.15-1.19.15-1.1 0-1.7-.5-1.7-2.04V-16.6h-3.14v2.64h-.16c-.9-1.99-2.64-3.11-5.18-3.11-4.58 0-7.2 3.23-7.2 8.76C1.58-2.77 4.2.47 8.62.47zm.88-2.67c-3.14 0-4.7-2.02-4.7-6.1 0-4.07 1.56-6.1 4.7-6.1 3.16 0 4.7 2.37 4.7 6.1 0 3.77-1.54 6.1-4.7 6.1zm0 0"/></symbol><symbol overflow="visible" id="6d202a35cw"><path d="M2.9 6.13h3.04V-.72C6.69.1 7.6.47 9.02.47a5.12 5.12 0 005-3.36h.15C14.45-.41 15.75.47 18.05.47c.84 0 1.62-.22 2.12-.38l-.28-2.42c-.37.1-.75.13-1.03.13-1.27 0-1.86-.47-1.86-2.4v-12h-3.14v9.18c0 3.04-1.98 5.1-4.5 5.1-2.13 0-3.33-1.23-3.33-4.3v-9.97H2.9zm0 0"/></symbol><symbol overflow="visible" id="6d202a35cx"><path d="M7.27-18.95h2.51l2.99-5.78H9.42zM8.86.47c4.84 0 7.14-1.78 7.42-5.34l-3.14-.25c-.25 2.1-1.48 3.04-4.28 3.04-2.67 0-4.08-.81-4.08-2.67 0-1.66.97-2.45 3.61-2.45h2.52V-9.7H8.39c-2.42 0-3.23-.87-3.23-2.44 0-1.42.9-2.39 3.7-2.39 2.52 0 3.56.79 3.97 2.77l3.14-.25c-.38-2.98-2.33-5.06-7.11-5.06-4.64 0-6.72 1.81-6.75 4.51-.03 2.58 1.34 3.63 3.08 4.03v.16C3.45-8.05 1.7-7.08 1.7-4.34c0 2.89 2.28 4.8 7.16 4.8zm0 0"/></symbol><symbol overflow="visible" id="6d202a35cy"><path d="M16.47-16.6H13.2L8.52-3.76h-.16L3.55-16.59H.15L6.79.19v5.93h3.1V.29zm0 0"/></symbol><symbol overflow="visible" id="6d202a35cz"><path d="M6.34 0h4l6.13-16.6H13.2L8.52-3.04h-.16L3.55-16.59H.15zm0 0"/></symbol><symbol overflow="visible" id="6d202a35cA"><path d="M2.83-18.95h2.51l2.99-5.78H5zM7.3.4C8.27.4 9.3.19 9.8 0l-.33-2.45c-.34.1-.9.18-1.37.18-1.4 0-2.08-.5-2.08-2.1V-16.6H2.9v12.43C2.9-1.12 4.34.41 7.3.41zm0 0"/></symbol><symbol overflow="visible" id="6d202a35cB"><path d="M4.4.4C5.76.4 6.7-.27 6.7-1.8c0-1.5-.94-2.15-2.28-2.15-1.4 0-2.3.65-2.3 2.15C2.1-.28 3 .4 4.4.4zm0 0"/></symbol><symbol overflow="visible" id="6d202a35cC"><path d="M100.58-89.08v-28.55H8.53V0h92.05v-28.56h-55.4v-17.05h43.46v-26.25H45.17v-17.22zm0 0"/></symbol><symbol overflow="visible" id="6d202a35cD"><path d="M32.56 0H68.2l33.42-91.2H67.5L53.2-39.72h-.17L38.36-91.2H-.86zm0 0"/></symbol><symbol overflow="visible" id="6d202a35cE"><path d="M50.38 2.56c30.68 0 48.24-17.56 48.24-45.19 0-25.04-12.1-35.28-39.71-45-10.75-3.75-14.68-6.3-14.68-11.76 0-3.92 2.4-6.3 8.02-6.3 6.48 0 7.84 3.75 9.38 9.88h32.21c-4.59-23.86-15.34-32.9-43.3-32.9-27.77 0-39.04 11.43-39.04 26.6 0 12.61 8.36 21.81 17.73 25.22v.17c-13.8 2.9-27.28 13.64-27.28 37C1.95-15 19.35 2.56 50.37 2.56zm0-25.58c-8.2 0-11.77-6.8-11.77-19.43 0-12.61 3.58-19.42 11.77-19.42 8.18 0 11.76 6.8 11.76 19.42 0 12.62-3.58 19.43-11.77 19.43zm0 0"/></symbol><symbol overflow="visible" id="6d202a35cF"><path d="M36.14 2.56c8.19 0 13.81-1.2 18.58-2.9v-25.24c-1.36.35-3.92.86-5.97.86-5.95 0-8.17-2.89-8.17-9.89v-56.6H4.77v62.05c0 20.47 9.04 31.72 31.37 31.72zm0 0"/></symbol><symbol overflow="visible" id="6d202a35cG"><path d="M36.66 2.56C52.5 2.56 60.86-5.8 64.44-15h.17C67.34-3.75 75.19 2.56 91.89 2.56c6.3 0 13.13-1.2 16.53-2.73v-25.24c-1.36.52-3.23.7-4.44.7-4.25 0-6.3-2.23-6.3-7.5v-59H67l-3.4 14.32h-.18C58.3-87.45 52.5-93.77 38.36-93.77c-22.5 0-35.97 18.25-35.97 48.08C2.4-16.03 15 2.56 36.66 2.56zm13.8-27.28c-8.18 0-11.76-6.66-11.76-20.8 0-14.15 3.58-20.96 11.75-20.96 8.36 0 11.77 6.8 11.77 20.96 0 14.15-3.4 20.8-11.77 20.8zm0 0"/></symbol><symbol overflow="visible" id="6d202a35cH"><path d="M9.38-101.44h23.87l19.52-30.69H20.2zm26.76 104c8.19 0 13.81-1.2 18.58-2.9v-25.24c-1.36.35-3.92.86-5.97.86-5.95 0-8.17-2.89-8.17-9.89v-56.6H4.77v62.05c0 20.47 9.04 31.72 31.37 31.72zm0 0"/></symbol><symbol overflow="visible" id="6d202a35cI"><path d="M82.34-61.38V-91.2H-.86v29.83h23.02v33.92c0 20.47 9.89 30.01 32.22 30.01 9.21 0 15.51-1.37 20.3-3.08v-25.21a42.65 42.65 0 01-8.71 1.01c-6.47 0-9.2-2.89-9.2-9.89v-26.77zm0 0"/></symbol><symbol overflow="visible" id="6d202a35cJ"><path d="M61.88 31.53h35.8v-90.69c0-20.8-7.66-34.6-28.46-34.6-17.22 0-23.7 9.89-27.8 19.26h-.17l-3.4-16.7H6.14V0h35.79v-47.56c0-9.55 2.73-15.52 10.4-15.52 7.33 0 9.53 4.78 9.53 13.3zm0 0"/></symbol><symbol overflow="visible" id="6d202a35cK"><path d="M6.14 31.53h34.44V2.05c1.87.34 3.75.51 5.97.51 10.73 0 17.04-6.48 20.28-19.1H67c2.72 11.26 8.19 19.1 24.9 19.1 6.29 0 13.12-1.2 16.52-2.73v-25.24c-1.36.52-3.23.7-4.44.7-4.25 0-6.3-2.23-6.3-7.5v-59h-35.8v49.96c0 8.52-4.08 13.13-10.91 13.13-6.3 0-9.03-4.61-9.03-13.13V-91.2H6.14zm0 0"/></symbol><symbol overflow="visible" id="6d202a35cL"><path d="M82.17 5c35 0 52.83-20.33 60.16-41.33h.34c6.83 21 25 41.33 60.16 41.33 41.67 0 75.5-28.67 75.5-92.17 0-65.5-33.5-95.5-87.83-95.5v46.5c20.17.5 28.83 15.34 28.83 49 0 29.34-8.16 45.67-24.16 45.67-15.84 0-23.5-14.83-23.5-42.5v-42.67h-58.34V-84c0 27.67-7.83 42.5-23.5 42.5-16 0-24.16-16.33-24.16-45.67 0-33.66 11-48.5 28.83-49v-46.5c-54.5 0-87.83 30-87.83 95.5C6.67-23.67 40.5 5 82.17 5zm0 0"/></symbol></defs><path d="M20 252.8h960M20 726.11h960M20 414.8h960" fill="none" stroke="#ddd"/><use xlink:href="#6d202a35a" x="33.02" y="632.2162"/><use xlink:href="#6d202a35b" x="178.22" y="632.2162"/><use xlink:href="#6d202a35c" x="289.54" y="632.2162"/><use xlink:href="#6d202a35d" x="426.028" y="632.2162"/><use xlink:href="#6d202a35e" x="496.4984" y="632.2162"/><use xlink:href="#6d202a35f" x="624.8794" y="632.2162"/><use xlink:href="#6d202a35g" x="755.3174" y="632.2162"/><use xlink:href="#6d202a35c" x="827.6754" y="632.2162"/><use xlink:href="#6d202a35h" x="33.6989" y="180.8735"/><use xlink:href="#6d202a35i" x="142.0841" y="180.8735"/><use xlink:href="#6d202a35j" x="223.00886" y="180.8735"/><use xlink:href="#6d202a35k" x="297.20774" y="180.8735"/><use xlink:href="#6d202a35l" x="383.31614" y="180.8735"/><use xlink:href="#6d202a35m" x="460.14254" y="180.8735"/><use xlink:href="#6d202a35n" x="553.30526" y="180.8735"/><use xlink:href="#6d202a35i" x="617.83658" y="180.8735"/><use xlink:href="#6d202a35o" x="701.80298" y="180.8735"/><use xlink:href="#6d202a35l" x="750.56918" y="180.8735"/><use xlink:href="#6d202a35p" x="827.39558" y="180.8735"/><use xlink:href="#6d202a35m" x="874.17686" y="180.8735"/><use xlink:href="#6d202a35q" x="44.4209" y="841.199"/><use xlink:href="#6d202a35r" x="105.0686" y="841.199"/><use xlink:href="#6d202a35s" x="149.4386" y="841.199"/><use xlink:href="#6d202a35t" x="196.1576" y="841.199"/><use xlink:href="#6d202a35u" x="237.1085" y="841.199"/><use xlink:href="#6d202a35v" x="291.8315" y="841.199"/><use xlink:href="#6d202a35w" x="335.2445" y="841.199"/><use xlink:href="#6d202a35x" x="385.2695" y="841.199"/><use xlink:href="#6d202a35y" x="437.4695" y="841.199"/><use xlink:href="#6d202a35z" x="487.9295" y="841.199"/><use xlink:href="#6d202a35A" x="534.6485" y="841.199"/><use xlink:href="#6d202a35B" x="557.0075" y="841.199"/><use xlink:href="#6d202a35y" x="600.3596" y="841.199"/><use xlink:href="#6d202a35C" x="650.8196" y="841.199"/><use xlink:href="#6d202a35D" x="706.0037" y="841.199"/><use xlink:href="#6d202a35E" x="763.7717" y="841.199"/><use xlink:href="#6d202a35F" x="820.1564" y="841.199"/><use xlink:href="#6d202a35G" x="860.0111" y="841.199"/><use xlink:href="#6d202a35z" x="912.4721" y="841.199"/><g fill="#ff5000"><use xlink:href="#6d202a35H" x="20" y="706.6141"/><use xlink:href="#6d202a35I" x="28.532" y="706.6141"/><use xlink:href="#6d202a35J" x="31.676" y="706.6141"/><use xlink:href="#6d202a35K" x="37.7" y="706.6141"/><use xlink:href="#6d202a35L" x="44.984" y="706.6141"/><use xlink:href="#6d202a35M" x="48.128" y="706.6141"/><use xlink:href="#6d202a35N" x="54.728" y="706.6141"/><use xlink:href="#6d202a35O" x="60.656" y="706.6141"/><use xlink:href="#6d202a35P" x="63.776" y="706.6141"/><use xlink:href="#6d202a35L" x="72.248" y="706.6141"/><use xlink:href="#6d202a35M" x="75.392" y="706.6141"/><use xlink:href="#6d202a35Q" x="81.992" y="706.6141"/><use xlink:href="#6d202a35R" x="88.52" y="706.6141"/></g><g fill="#ff5000"><use xlink:href="#6d202a35H" x="20" y="395.3101"/><use xlink:href="#6d202a35I" x="28.532" y="395.3101"/><use xlink:href="#6d202a35J" x="31.676" y="395.3101"/><use xlink:href="#6d202a35K" x="37.7" y="395.3101"/><use xlink:href="#6d202a35L" x="44.984" y="395.3101"/><use xlink:href="#6d202a35M" x="48.128" y="395.3101"/><use xlink:href="#6d202a35N" x="54.728" y="395.3101"/><use xlink:href="#6d202a35O" x="60.656" y="395.3101"/><use xlink:href="#6d202a35S" x="63.776" y="395.3101"/><use xlink:href="#6d202a35I" x="70.184" y="395.3101"/><use xlink:href="#6d202a35T" x="73.328" y="395.3101"/><use xlink:href="#6d202a35U" x="80.612" y="395.3101"/><use xlink:href="#6d202a35V" x="87.788" y="395.3101"/></g><use xlink:href="#6d202a35W" x="20" y="888.1861" fill="#ff5000"/><use xlink:href="#6d202a35X" x="25.892" y="888.1861" fill="#ff5000"/><g fill="#ff5000"><use xlink:href="#6d202a35Y" x="32.5028" y="888.1861"/><use xlink:href="#6d202a35V" x="38.5388" y="888.1861"/><use xlink:href="#6d202a35O" x="43.2668" y="888.1861"/><use xlink:href="#6d202a35Z" x="46.3868" y="888.1861"/><use xlink:href="#6d202a35X" x="57.5108" y="888.1861"/><use xlink:href="#6d202a35aa" x="64.1828" y="888.1861"/><use xlink:href="#6d202a35I" x="71.4668" y="888.1861"/><use xlink:href="#6d202a35ab" x="74.6108" y="888.1861"/><use xlink:href="#6d202a35ac" x="81.6548" y="888.1861"/><use xlink:href="#6d202a35O" x="92.7308" y="888.1861"/><use xlink:href="#6d202a35ad" x="95.8508" y="888.1861"/><use xlink:href="#6d202a35V" x="99.3908" y="888.1861"/><use xlink:href="#6d202a35M" x="104.1188" y="888.1861"/><use xlink:href="#6d202a35L" x="110.7188" y="888.1861"/><use xlink:href="#6d202a35I" x="113.8628" y="888.1861"/><use xlink:href="#6d202a35Q" x="117.0068" y="888.1861"/></g><use xlink:href="#6d202a35W" x="20" y="233.3101" fill="#ff5000"/><use xlink:href="#6d202a35X" x="25.892" y="233.3101" fill="#ff5000"/><g fill="#ff5000"><use xlink:href="#6d202a35Y" x="32.5028" y="233.3101"/><use xlink:href="#6d202a35V" x="38.5388" y="233.3101"/><use xlink:href="#6d202a35O" x="43.2668" y="233.3101"/><use xlink:href="#6d202a35ae" x="46.3868" y="233.3101"/><use xlink:href="#6d202a35X" x="53.9108" y="233.3101"/><use xlink:href="#6d202a35ac" x="60.5828" y="233.3101"/><use xlink:href="#6d202a35I" x="71.6588" y="233.3101"/><use xlink:href="#6d202a35af" x="74.8028" y="233.3101"/><use xlink:href="#6d202a35ag" x="82.0868" y="233.3101"/><use xlink:href="#6d202a35L" x="89.0228" y="233.3101"/><use xlink:href="#6d202a35aa" x="92.1668" y="233.3101"/><use xlink:href="#6d202a35O" x="99.4508" y="233.3101"/><use xlink:href="#6d202a35ad" x="102.5708" y="233.3101"/><use xlink:href="#6d202a35V" x="106.1108" y="233.3101"/><use xlink:href="#6d202a35M" x="110.8388" y="233.3101"/><use xlink:href="#6d202a35L" x="117.4388" y="233.3101"/><use xlink:href="#6d202a35I" x="120.5828" y="233.3101"/><use xlink:href="#6d202a35Q" x="123.7268" y="233.3101"/></g><use xlink:href="#6d202a35ah" x="40.5782" y="353.9451"/><use xlink:href="#6d202a35ai" x="76.72904" y="353.9451"/><use xlink:href="#6d202a35aj" x="119.81384" y="353.9451"/><use xlink:href="#6d202a35ak" x="139.48624" y="353.9451"/><use xlink:href="#6d202a35al" x="185.13668" y="353.9451"/><use xlink:href="#6d202a35am" x="240.33908" y="353.9451"/><use xlink:href="#6d202a35an" x="288.95908" y="353.9451"/><use xlink:href="#6d202a35ao" x="310.89792" y="353.9451"/><use xlink:href="#6d202a35an" x="355.25432" y="353.9451"/><use xlink:href="#6d202a35ap" x="378.65176" y="353.9451"/><use xlink:href="#6d202a35aq" x="415.67776" y="353.9451"/><use xlink:href="#6d202a35aj" x="458.76256" y="353.9451"/><use xlink:href="#6d202a35ar" x="478.43496" y="353.9451"/><use xlink:href="#6d202a35as" x="514.71296" y="353.9451"/><use xlink:href="#6d202a35at" x="536.016" y="353.9451"/><use xlink:href="#6d202a35au" x="572.294" y="353.9451"/><use xlink:href="#6d202a35av" x="611.7884" y="353.9451"/><use xlink:href="#6d202a35am" x="643.8776" y="353.9451"/><use xlink:href="#6d202a35an" x="692.4976" y="353.9451"/><use xlink:href="#6d202a35aj" x="715.8352" y="353.9451"/><use xlink:href="#6d202a35av" x="735.5076" y="353.9451"/><use xlink:href="#6d202a35ai" x="767.60428" y="353.9451"/><use xlink:href="#6d202a35aw" x="810.68908" y="353.9451"/><use xlink:href="#6d202a35an" x="858.8902" y="353.9451"/><use xlink:href="#6d202a35ap" x="882.2278" y="353.9451"/><use xlink:href="#6d202a35aq" x="919.2538" y="353.9451"/><path d="M20 1249.21h960M20 1426.63h960M20 1685.38h960M23 907.69h960" fill="none" stroke="#ddd"/><use xlink:href="#6d202a35ax" x="36.7459" y="1360.9895"/><use xlink:href="#6d202a35ay" x="96.3323" y="1360.9895"/><use xlink:href="#6d202a35az" x="122.4119" y="1360.9895"/><use xlink:href="#6d202a35aA" x="165.3715" y="1360.9895"/><use xlink:href="#6d202a35aB" x="209.69838" y="1360.9895"/><use xlink:href="#6d202a35aA" x="252.2613" y="1360.9895"/><use xlink:href="#6d202a35aC" x="298.4281" y="1360.9895"/><use xlink:href="#6d202a35ay" x="341.3877" y="1360.9895"/><use xlink:href="#6d202a35az" x="367.4673" y="1360.9895"/><use xlink:href="#6d202a35aD" x="410.4269" y="1360.9895"/><use xlink:href="#6d202a35aE" x="456.52618" y="1360.9895"/><use xlink:href="#6d202a35aF" x="500.41418" y="1360.9895"/><use xlink:href="#6d202a35aG" x="519.48858" y="1360.9895"/><use xlink:href="#6d202a35aH" x="568.18738" y="1360.9895"/><use xlink:href="#6d202a35aI" x="609.46742" y="1360.9895"/><use xlink:href="#6d202a35aJ" x="652.42702" y="1360.9895"/><use xlink:href="#6d202a35ay" x="698.25622" y="1360.9895"/><use xlink:href="#6d202a35aK" x="723.1289" y="1360.9895"/><use xlink:href="#6d202a35aG" x="774.29218" y="1360.9895"/><use xlink:href="#6d202a35aL" x="822.99098" y="1360.9895"/><use xlink:href="#6d202a35aD" x="873.42842" y="1360.9895"/><use xlink:href="#6d202a35aE" x="919.59522" y="1360.9895"/><use xlink:href="#6d202a35aM" x="31.1641" y="1805.9278"/><use xlink:href="#6d202a35aN" x="83.64082" y="1805.9278"/><use xlink:href="#6d202a35aO" x="141.79522" y="1805.9278"/><use xlink:href="#6d202a35aP" x="196.75162" y="1805.9278"/><use xlink:href="#6d202a35aQ" x="246.5617" y="1805.9278"/><use xlink:href="#6d202a35aR" x="288.27346" y="1805.9278"/><use xlink:href="#6d202a35aS" x="334.71826" y="1805.9278"/><use xlink:href="#6d202a35aT" x="357.35026" y="1805.9278"/><use xlink:href="#6d202a35aN" x="380.76946" y="1805.9278"/><use xlink:href="#6d202a35aP" x="438.02842" y="1805.9278"/><use xlink:href="#6d202a35aU" x="489.19642" y="1805.9278"/><use xlink:href="#6d202a35aV" x="539.47882" y="1805.9278"/><use xlink:href="#6d202a35aU" x="590.64682" y="1805.9278"/><use xlink:href="#6d202a35aW" x="638.86282" y="1805.9278"/><use xlink:href="#6d202a35aX" x="685.11082" y="1805.9278"/><use xlink:href="#6d202a35aT" x="735.68842" y="1805.9278"/><use xlink:href="#6d202a35aY" x="759.10762" y="1805.9278"/><use xlink:href="#6d202a35aZ" x="811.55482" y="1805.9278"/><use xlink:href="#6d202a35ba" x="865.87162" y="1805.9278"/><use xlink:href="#6d202a35bb" x="925.83658" y="1805.9278"/><use xlink:href="#6d202a35bc" x="39.2787" y="2329.529"/><use xlink:href="#6d202a35bd" x="111.3507" y="2329.529"/><use xlink:href="#6d202a35bc" x="188.6552" y="2329.529"/><use xlink:href="#6d202a35be" x="260.7272" y="2329.529"/><use xlink:href="#6d202a35bf" x="308.7752" y="2329.529"/><use xlink:href="#6d202a35bg" x="381.1202" y="2329.529"/><use xlink:href="#6d202a35bh" x="457.5602" y="2329.529"/><use xlink:href="#6d202a35bi" x="554.2022" y="2329.529"/><use xlink:href="#6d202a35bj" x="591.0572" y="2329.529"/><use xlink:href="#6d202a35bk" x="665.5862" y="2329.529"/><use xlink:href="#6d202a35bl" x="732.1982" y="2329.529"/><use xlink:href="#6d202a35bm" x="801.0852" y="2329.529"/><use xlink:href="#6d202a35bi" x="858.0512" y="2329.529"/><use xlink:href="#6d202a35bc" x="894.9062" y="2329.529"/><use xlink:href="#6d202a35bn" x="40" y="995.0872"/><use xlink:href="#6d202a35bo" x="65.4997" y="995.0872"/><use xlink:href="#6d202a35bp" x="80.7827" y="995.0872"/><use xlink:href="#6d202a35bq" x="93.1773" y="995.0872"/><use xlink:href="#6d202a35br" x="112.0273" y="995.0872"/><use xlink:href="#6d202a35br" x="127.0493" y="995.0872"/><use xlink:href="#6d202a35bs" x="142.0713" y="995.0872"/><use xlink:href="#6d202a35bt" x="150.9453" y="995.0872"/><use xlink:href="#6d202a35bu" x="165.0973" y="995.0872"/><use xlink:href="#6d202a35bv" x="183.9473" y="995.0872"/><use xlink:href="#6d202a35bw" x="191.8353" y="995.0872"/><use xlink:href="#6d202a35bx" x="208.4523" y="995.0872"/><use xlink:href="#6d202a35bt" x="225.2143" y="995.0872"/><use xlink:href="#6d202a35bu" x="239.3663" y="995.0872"/><use xlink:href="#6d202a35by" x="257.6711" y="995.0872"/><use xlink:href="#6d202a35bs" x="274.9261" y="995.0872"/><use xlink:href="#6d202a35bq" x="283.3825" y="995.0872"/><use xlink:href="#6d202a35bv" x="302.2325" y="995.0872"/><use xlink:href="#6d202a35bz" x="310.1205" y="995.0872"/><use xlink:href="#6d202a35bA" x="327.6365" y="995.0872"/><use xlink:href="#6d202a35bB" x="344.5145" y="995.0872"/><use xlink:href="#6d202a35bt" x="358.4345" y="995.0872"/><use xlink:href="#6d202a35bx" x="372.5865" y="995.0872"/><use xlink:href="#6d202a35br" x="388.7511" y="995.0872"/><use xlink:href="#6d202a35br" x="403.7731" y="995.0872"/><use xlink:href="#6d202a35bC" x="418.7951" y="995.0872"/><use xlink:href="#6d202a35bD" x="435.9631" y="995.0872"/><use xlink:href="#6d202a35bE" x="454.0765" y="995.0872"/><use xlink:href="#6d202a35bF" x="469.3595" y="995.0872"/><use xlink:href="#6d202a35bq" x="483.2795" y="995.0872"/><use xlink:href="#6d202a35bv" x="502.1295" y="995.0872"/><use xlink:href="#6d202a35bz" x="510.0175" y="995.0872"/><use xlink:href="#6d202a35bA" x="527.5335" y="995.0872"/><use xlink:href="#6d202a35bF" x="544.4115" y="995.0872"/><use xlink:href="#6d202a35bG" x="558.723" y="995.0872"/><use xlink:href="#6d202a35bE" x="575.0674" y="995.0872"/><use xlink:href="#6d202a35bH" x="589.985" y="995.0872"/><use xlink:href="#6d202a35bp" x="40" y="1039.0802"/><use xlink:href="#6d202a35bx" x="52.1046" y="1039.0802"/><use xlink:href="#6d202a35bA" x="68.5766" y="1039.0802"/><use xlink:href="#6d202a35bF" x="85.1646" y="1039.0802"/><use xlink:href="#6d202a35bv" x="98.7946" y="1039.0802"/><use xlink:href="#6d202a35bz" x="106.3926" y="1039.0802"/><use xlink:href="#6d202a35bI" x="123.6186" y="1039.0802"/><use xlink:href="#6d202a35bo" x="136.8687" y="1039.0802"/><use xlink:href="#6d202a35bw" x="151.8617" y="1039.0802"/><use xlink:href="#6d202a35bJ" x="168.1887" y="1039.0802"/><g><use xlink:href="#6d202a35bq" x="176.358" y="1039.0802"/></g><g><use xlink:href="#6d202a35bK" x="195.3675" y="1039.0802"/></g><g><use xlink:href="#6d202a35bv" x="201.298" y="1039.0802"/><use xlink:href="#6d202a35bL" x="208.896" y="1039.0802"/><use xlink:href="#6d202a35bu" x="227.166" y="1039.0802"/></g><g><use xlink:href="#6d202a35bF" x="244.9343" y="1039.0802"/><use xlink:href="#6d202a35bM" x="258.5643" y="1039.0802"/><use xlink:href="#6d202a35bv" x="281.9383" y="1039.0802"/><use xlink:href="#6d202a35bz" x="289.5363" y="1039.0802"/><use xlink:href="#6d202a35bp" x="306.7623" y="1039.0802"/><use xlink:href="#6d202a35bC" x="319.3483" y="1039.0802"/><use xlink:href="#6d202a35bF" x="336.2263" y="1039.0802"/><use xlink:href="#6d202a35bv" x="349.8563" y="1039.0802"/><use xlink:href="#6d202a35bx" x="357.4543" y="1039.0802"/><use xlink:href="#6d202a35bL" x="373.9263" y="1039.0802"/><use xlink:href="#6d202a35bx" x="392.1963" y="1039.0802"/><use xlink:href="#6d202a35bJ" x="408.6683" y="1039.0802"/></g><g><use xlink:href="#6d202a35bq" x="416.8347" y="1039.0802"/><use xlink:href="#6d202a35bv" x="435.3947" y="1039.0802"/><use xlink:href="#6d202a35bz" x="442.9927" y="1039.0802"/><use xlink:href="#6d202a35bp" x="460.2187" y="1039.0802"/><use xlink:href="#6d202a35bC" x="472.8047" y="1039.0802"/><use xlink:href="#6d202a35by" x="489.6827" y="1039.0802"/><use xlink:href="#6d202a35bJ" x="506.6477" y="1039.0802"/></g><g><use xlink:href="#6d202a35bN" x="514.9823" y="1039.0802"/></g><g><use xlink:href="#6d202a35bo" x="527.2928" y="1039.0802"/><use xlink:href="#6d202a35bp" x="542.2858" y="1039.0802"/></g><g><use xlink:href="#6d202a35bq" x="554.3904" y="1039.0802"/><use xlink:href="#6d202a35bs" x="572.9504" y="1039.0802"/><use xlink:href="#6d202a35bv" x="581.5344" y="1039.0802"/><use xlink:href="#6d202a35bD" x="589.1324" y="1039.0802"/><use xlink:href="#6d202a35bs" x="607.2284" y="1039.0802"/></g><g><use xlink:href="#6d202a35bq" x="615.3977" y="1039.0802"/></g><g><use xlink:href="#6d202a35bK" x="634.4043" y="1039.0802"/></g><g><use xlink:href="#6d202a35bv" x="640.4827" y="1039.0802"/></g><g><use xlink:href="#6d202a35bt" x="40" y="1083.0732"/></g><g><use xlink:href="#6d202a35bA" x="53.8707" y="1083.0732"/><use xlink:href="#6d202a35bO" x="70.7487" y="1083.0732"/><use xlink:href="#6d202a35bx" x="87.8877" y="1083.0732"/><use xlink:href="#6d202a35bo" x="104.6497" y="1083.0732"/><use xlink:href="#6d202a35bs" x="119.9327" y="1083.0732"/></g><g><use xlink:href="#6d202a35bw" x="128.2818" y="1083.0732"/><use xlink:href="#6d202a35bP" x="144.8988" y="1083.0732"/><use xlink:href="#6d202a35bQ" x="162.0668" y="1083.0732"/><use xlink:href="#6d202a35bv" x="177.3498" y="1083.0732"/><use xlink:href="#6d202a35bD" x="185.2378" y="1083.0732"/></g><g><use xlink:href="#6d202a35bx" x="203.212" y="1083.0732"/><use xlink:href="#6d202a35by" x="219.974" y="1083.0732"/><use xlink:href="#6d202a35bR" x="237.229" y="1083.0732"/><use xlink:href="#6d202a35bP" x="258.399" y="1083.0732"/><use xlink:href="#6d202a35bQ" x="275.567" y="1083.0732"/></g><g><use xlink:href="#6d202a35bK" x="290.6267" y="1083.0732"/></g><g><use xlink:href="#6d202a35bv" x="296.8472" y="1083.0732"/><use xlink:href="#6d202a35bD" x="304.7352" y="1083.0732"/></g><g><use xlink:href="#6d202a35bo" x="322.8486" y="1083.0732"/><use xlink:href="#6d202a35bp" x="338.1316" y="1083.0732"/></g><g><use xlink:href="#6d202a35bq" x="350.5233" y="1083.0732"/><use xlink:href="#6d202a35br" x="369.3733" y="1083.0732"/><use xlink:href="#6d202a35br" x="384.3953" y="1083.0732"/><use xlink:href="#6d202a35bs" x="399.4173" y="1083.0732"/><use xlink:href="#6d202a35bt" x="408.2913" y="1083.0732"/><use xlink:href="#6d202a35bP" x="422.4433" y="1083.0732"/><use xlink:href="#6d202a35bv" x="439.6113" y="1083.0732"/><use xlink:href="#6d202a35bt" x="447.4993" y="1083.0732"/><use xlink:href="#6d202a35bq" x="461.6513" y="1083.0732"/></g><g><use xlink:href="#6d202a35bp" x="480.2316" y="1083.0732"/></g><g><use xlink:href="#6d202a35bq" x="492.6233" y="1083.0732"/></g><g><use xlink:href="#6d202a35bz" x="511.0673" y="1083.0732"/><use xlink:href="#6d202a35bt" x="528.5833" y="1083.0732"/></g><g><use xlink:href="#6d202a35bo" x="542.5932" y="1083.0732"/></g><g><use xlink:href="#6d202a35bA" x="557.5978" y="1083.0732"/><use xlink:href="#6d202a35bP" x="574.4758" y="1083.0732"/><use xlink:href="#6d202a35bv" x="591.6438" y="1083.0732"/><use xlink:href="#6d202a35bC" x="599.5318" y="1083.0732"/></g><g><use xlink:href="#6d202a35bv" x="616.5606" y="1083.0732"/></g><g><use xlink:href="#6d202a35bx" x="40" y="1127.0662"/><use xlink:href="#6d202a35bL" x="56.617" y="1127.0662"/><use xlink:href="#6d202a35bx" x="75.032" y="1127.0662"/><use xlink:href="#6d202a35bJ" x="91.649" y="1127.0662"/></g><g><use xlink:href="#6d202a35bq" x="99.9894" y="1127.0662"/><use xlink:href="#6d202a35bv" x="118.6944" y="1127.0662"/><use xlink:href="#6d202a35bo" x="126.4374" y="1127.0662"/><use xlink:href="#6d202a35bJ" x="141.5754" y="1127.0662"/></g><g><use xlink:href="#6d202a35bF" x="149.4953" y="1127.0662"/><use xlink:href="#6d202a35bq" x="163.2703" y="1127.0662"/><use xlink:href="#6d202a35bs" x="181.9753" y="1127.0662"/><use xlink:href="#6d202a35bv" x="190.7043" y="1127.0662"/><use xlink:href="#6d202a35bo" x="198.4473" y="1127.0662"/><use xlink:href="#6d202a35bL" x="213.5853" y="1127.0662"/><use xlink:href="#6d202a35bo" x="232.0003" y="1127.0662"/><use xlink:href="#6d202a35bF" x="247.1383" y="1127.0662"/></g><g><use xlink:href="#6d202a35bw" x="260.7857" y="1127.0662"/><use xlink:href="#6d202a35bA" x="277.2577" y="1127.0662"/><use xlink:href="#6d202a35bD" x="293.9907" y="1127.0662"/></g><g><use xlink:href="#6d202a35bE" x="311.9649" y="1127.0662"/><use xlink:href="#6d202a35bF" x="327.1029" y="1127.0662"/><use xlink:href="#6d202a35bC" x="340.8779" y="1127.0662"/><use xlink:href="#6d202a35bv" x="357.9009" y="1127.0662"/><use xlink:href="#6d202a35bD" x="365.6439" y="1127.0662"/></g><g><use xlink:href="#6d202a35bo" x="383.6007" y="1127.0662"/><use xlink:href="#6d202a35bv" x="398.7387" y="1127.0662"/><use xlink:href="#6d202a35bS" x="406.4817" y="1127.0662"/></g><g><use xlink:href="#6d202a35bT" x="419.6593" y="1127.0662"/></g><g><use xlink:href="#6d202a35br" x="436.1226" y="1127.0662"/></g><g><use xlink:href="#6d202a35bx" x="450.3993" y="1127.0662"/><use xlink:href="#6d202a35bv" x="467.0163" y="1127.0662"/><use xlink:href="#6d202a35bo" x="474.7593" y="1127.0662"/></g><g><use xlink:href="#6d202a35bz" x="489.6073" y="1127.0662"/><use xlink:href="#6d202a35bM" x="506.9783" y="1127.0662"/><use xlink:href="#6d202a35bp" x="530.4973" y="1127.0662"/></g><g><use xlink:href="#6d202a35bo" x="542.9528" y="1127.0662"/></g><g><use xlink:href="#6d202a35by" x="557.7022" y="1127.0662"/><use xlink:href="#6d202a35bs" x="574.8122" y="1127.0662"/><use xlink:href="#6d202a35bt" x="583.5412" y="1127.0662"/><use xlink:href="#6d202a35bu" x="597.5482" y="1127.0662"/><use xlink:href="#6d202a35bv" x="616.2532" y="1127.0662"/></g><g><use xlink:href="#6d202a35bt" x="40" y="1171.0592"/><use xlink:href="#6d202a35bq" x="54.007" y="1171.0592"/><use xlink:href="#6d202a35bs" x="72.712" y="1171.0592"/><use xlink:href="#6d202a35bv" x="81.441" y="1171.0592"/><use xlink:href="#6d202a35bo" x="89.184" y="1171.0592"/><use xlink:href="#6d202a35bS" x="104.322" y="1171.0592"/></g><g><use xlink:href="#6d202a35bM" x="117.2502" y="1171.0592"/><use xlink:href="#6d202a35bp" x="140.7692" y="1171.0592"/></g><g><use xlink:href="#6d202a35bo" x="153.2363" y="1171.0592"/></g><g><use xlink:href="#6d202a35by" x="167.9857" y="1171.0592"/><use xlink:href="#6d202a35bs" x="185.0957" y="1171.0592"/><use xlink:href="#6d202a35bt" x="193.8247" y="1171.0592"/><use xlink:href="#6d202a35bu" x="207.8317" y="1171.0592"/></g><g><use xlink:href="#6d202a35bU" x="226.9804" y="1171.0592"/><use xlink:href="#6d202a35bv" x="233.0704" y="1171.0592"/></g><g><use xlink:href="#6d202a35bV" x="718.925" y="1174.8293"/></g><g fill="#ff5000"><use xlink:href="#6d202a35H" x="20" y="1665.8795"/><use xlink:href="#6d202a35I" x="28.532" y="1665.8795"/><use xlink:href="#6d202a35J" x="31.676" y="1665.8795"/><use xlink:href="#6d202a35K" x="37.7" y="1665.8795"/><use xlink:href="#6d202a35L" x="44.984" y="1665.8795"/><use xlink:href="#6d202a35M" x="48.128" y="1665.8795"/><use xlink:href="#6d202a35N" x="54.728" y="1665.8795"/><use xlink:href="#6d202a35O" x="60.656" y="1665.8795"/><use xlink:href="#6d202a35P" x="63.776" y="1665.8795"/><use xlink:href="#6d202a35L" x="72.248" y="1665.8795"/><use xlink:href="#6d202a35M" x="75.392" y="1665.8795"/><use xlink:href="#6d202a35Q" x="81.992" y="1665.8795"/><use xlink:href="#6d202a35R" x="88.52" y="1665.8795"/></g><g fill="#ff5000"><use xlink:href="#6d202a35H" x="20" y="1407.1235"/><use xlink:href="#6d202a35I" x="28.532" y="1407.1235"/><use xlink:href="#6d202a35J" x="31.676" y="1407.1235"/><use xlink:href="#6d202a35K" x="37.7" y="1407.1235"/><use xlink:href="#6d202a35L" x="44.984" y="1407.1235"/><use xlink:href="#6d202a35M" x="48.128" y="1407.1235"/><use xlink:href="#6d202a35N" x="54.728" y="1407.1235"/><use xlink:href="#6d202a35O" x="60.656" y="1407.1235"/><use xlink:href="#6d202a35ae" x="63.776" y="1407.1235"/><use xlink:href="#6d202a35X" x="71.3" y="1407.1235"/><use xlink:href="#6d202a35ac" x="77.972" y="1407.1235"/><use xlink:href="#6d202a35I" x="89.048" y="1407.1235"/><use xlink:href="#6d202a35af" x="92.192" y="1407.1235"/><use xlink:href="#6d202a35ag" x="99.476" y="1407.1235"/><use xlink:href="#6d202a35L" x="106.412" y="1407.1235"/><use xlink:href="#6d202a35aa" x="109.556" y="1407.1235"/></g><g fill="#ff5000"><use xlink:href="#6d202a35H" x="20" y="1855.0115"/><use xlink:href="#6d202a35I" x="28.532" y="1855.0115"/><use xlink:href="#6d202a35J" x="31.676" y="1855.0115"/><use xlink:href="#6d202a35K" x="37.7" y="1855.0115"/><use xlink:href="#6d202a35L" x="44.984" y="1855.0115"/><use xlink:href="#6d202a35M" x="48.128" y="1855.0115"/><use xlink:href="#6d202a35N" x="54.728" y="1855.0115"/><use xlink:href="#6d202a35O" x="60.656" y="1855.0115"/><use xlink:href="#6d202a35W" x="63.776" y="1855.0115"/><use xlink:href="#6d202a35U" x="70.184" y="1855.0115"/><use xlink:href="#6d202a35I" x="77.36" y="1855.0115"/><use xlink:href="#6d202a35bW" x="80.504" y="1855.0115"/><use xlink:href="#6d202a35O" x="87.68" y="1855.0115"/><use xlink:href="#6d202a35ad" x="90.8" y="1855.0115"/><use xlink:href="#6d202a35V" x="94.34" y="1855.0115"/><use xlink:href="#6d202a35M" x="99.068" y="1855.0115"/><use xlink:href="#6d202a35L" x="105.668" y="1855.0115"/><use xlink:href="#6d202a35I" x="108.812" y="1855.0115"/><use xlink:href="#6d202a35Q" x="111.956" y="1855.0115"/></g><g fill="#ff5000"><use xlink:href="#6d202a35W" x="20" y="1229.7155"/></g><g fill="#ff5000"><use xlink:href="#6d202a35X" x="25.892" y="1229.7155"/></g><g fill="#ff5000"><use xlink:href="#6d202a35Y" x="32.5028" y="1229.7155"/><use xlink:href="#6d202a35V" x="38.5388" y="1229.7155"/><use xlink:href="#6d202a35O" x="43.2668" y="1229.7155"/><use xlink:href="#6d202a35bX" x="46.3868" y="1229.7155"/><use xlink:href="#6d202a35Y" x="53.9468" y="1229.7155"/><use xlink:href="#6d202a35V" x="59.9828" y="1229.7155"/><use xlink:href="#6d202a35bY" x="64.7108" y="1229.7155"/><use xlink:href="#6d202a35M" x="69.3308" y="1229.7155"/><use xlink:href="#6d202a35L" x="75.9308" y="1229.7155"/><use xlink:href="#6d202a35I" x="79.0748" y="1229.7155"/><use xlink:href="#6d202a35T" x="82.2188" y="1229.7155"/><use xlink:href="#6d202a35U" x="89.5028" y="1229.7155"/><use xlink:href="#6d202a35V" x="96.6788" y="1229.7155"/></g><path d="M682.96 968v211.94" fill="none" stroke="#ddd"/><g fill="#ff5000"><use xlink:href="#6d202a35W" x="726.9252" y="1229.7141"/></g><g fill="#ff5000"><use xlink:href="#6d202a35X" x="732.8172" y="1229.7141"/></g><g fill="#ff5000"><use xlink:href="#6d202a35Y" x="739.428" y="1229.7141"/><use xlink:href="#6d202a35V" x="745.464" y="1229.7141"/><use xlink:href="#6d202a35O" x="750.192" y="1229.7141"/><use xlink:href="#6d202a35bX" x="753.312" y="1229.7141"/><use xlink:href="#6d202a35Y" x="760.872" y="1229.7141"/><use xlink:href="#6d202a35V" x="766.908" y="1229.7141"/><use xlink:href="#6d202a35bY" x="771.636" y="1229.7141"/><use xlink:href="#6d202a35M" x="776.256" y="1229.7141"/><use xlink:href="#6d202a35af" x="782.856" y="1229.7141"/><use xlink:href="#6d202a35ag" x="790.14" y="1229.7141"/><use xlink:href="#6d202a35L" x="797.076" y="1229.7141"/><use xlink:href="#6d202a35aa" x="800.22" y="1229.7141"/></g><path d="M20 1874.51h960M20 2199.84h960" fill="none" stroke="#ddd"/><g><use xlink:href="#6d202a35bZ" x="409.4961" y="1962.9614"/><use xlink:href="#6d202a35ca" x="429.0321" y="1962.9614"/></g><g><use xlink:href="#6d202a35cb" x="443.628" y="1962.9614"/><use xlink:href="#6d202a35cc" x="462.768" y="1962.9614"/><use xlink:href="#6d202a35cd" x="482.37" y="1962.9614"/><use xlink:href="#6d202a35ce" x="500.091" y="1962.9614"/><use xlink:href="#6d202a35cf" x="508.572" y="1962.9614"/><use xlink:href="#6d202a35cg" x="526.293" y="1962.9614"/><use xlink:href="#6d202a35ch" x="543.387" y="1962.9614"/></g><g><use xlink:href="#6d202a35cf" x="562.3818" y="1962.9614"/></g><g><use xlink:href="#6d202a35ci" x="579.7926" y="1962.9614"/><use xlink:href="#6d202a35cj" x="599.6916" y="1962.9614"/></g><g><use xlink:href="#6d202a35ck" x="610.278" y="1962.9614"/><use xlink:href="#6d202a35cg" x="631.992" y="1962.9614"/><use xlink:href="#6d202a35cb" x="649.086" y="1962.9614"/><use xlink:href="#6d202a35cl" x="668.226" y="1962.9614"/><use xlink:href="#6d202a35cd" x="687.828" y="1962.9614"/><use xlink:href="#6d202a35ce" x="705.549" y="1962.9614"/><use xlink:href="#6d202a35cm" x="714.03" y="1962.9614"/></g><g><use xlink:href="#6d202a35cn" x="730.6653" y="1962.9614"/><use xlink:href="#6d202a35co" x="758.6163" y="1962.9614"/><use xlink:href="#6d202a35cb" x="778.4493" y="1962.9614"/><use xlink:href="#6d202a35cc" x="797.5893" y="1962.9614"/><use xlink:href="#6d202a35cd" x="817.1913" y="1962.9614"/><use xlink:href="#6d202a35ce" x="834.9123" y="1962.9614"/><use xlink:href="#6d202a35ca" x="843.3933" y="1962.9614"/></g><g><use xlink:href="#6d202a35cb" x="857.9991" y="1962.9614"/><use xlink:href="#6d202a35ce" x="877.1391" y="1962.9614"/><use xlink:href="#6d202a35cp" x="885.6201" y="1962.9614"/><use xlink:href="#6d202a35cq" x="910.7991" y="1962.9614"/><use xlink:href="#6d202a35cd" x="938.7501" y="1962.9614"/><use xlink:href="#6d202a35ce" x="956.4711" y="1962.9614"/></g><g><use xlink:href="#6d202a35ck" x="409.4961" y="2014.9694"/><use xlink:href="#6d202a35cr" x="431.2101" y="2014.9694"/><use xlink:href="#6d202a35cr" x="448.0401" y="2014.9694"/><use xlink:href="#6d202a35cs" x="464.8701" y="2014.9694"/><use xlink:href="#6d202a35cr" x="484.7691" y="2014.9694"/><use xlink:href="#6d202a35cf" x="501.5991" y="2014.9694"/><use xlink:href="#6d202a35ct" x="519.3201" y="2014.9694"/><use xlink:href="#6d202a35cj" x="541.2321" y="2014.9694"/></g><g><use xlink:href="#6d202a35cu" x="551.6469" y="2014.9694"/><use xlink:href="#6d202a35co" x="570.6219" y="2014.9694"/><use xlink:href="#6d202a35cv" x="590.4549" y="2014.9694"/><use xlink:href="#6d202a35ce" x="612.1689" y="2014.9694"/><use xlink:href="#6d202a35cw" x="620.6499" y="2014.9694"/></g><g><use xlink:href="#6d202a35cf" x="641.7831" y="2014.9694"/><use xlink:href="#6d202a35ce" x="659.5041" y="2014.9694"/><use xlink:href="#6d202a35ca" x="667.9851" y="2014.9694"/></g><g><use xlink:href="#6d202a35ck" x="682.5843" y="2014.9694"/><use xlink:href="#6d202a35ce" x="704.2983" y="2014.9694"/><use xlink:href="#6d202a35cx" x="712.7793" y="2014.9694"/></g><g><use xlink:href="#6d202a35co" x="730.0713" y="2014.9694"/><use xlink:href="#6d202a35cy" x="749.9043" y="2014.9694"/><use xlink:href="#6d202a35ck" x="766.5363" y="2014.9694"/><use xlink:href="#6d202a35ce" x="788.2503" y="2014.9694"/><use xlink:href="#6d202a35ca" x="796.7313" y="2014.9694"/></g><g><use xlink:href="#6d202a35cx" x="811.5714" y="2014.9694"/><use xlink:href="#6d202a35cm" x="829.2924" y="2014.9694"/><use xlink:href="#6d202a35cz" x="846.2214" y="2014.9694"/><use xlink:href="#6d202a35cs" x="862.8534" y="2014.9694"/><use xlink:href="#6d202a35cd" x="882.7524" y="2014.9694"/><use xlink:href="#6d202a35ce" x="900.4734" y="2014.9694"/></g><g><use xlink:href="#6d202a35cw" x="409.4961" y="2066.9774"/></g><g><use xlink:href="#6d202a35cx" x="430.6161" y="2066.9774"/></g><g><use xlink:href="#6d202a35ci" x="448.0269" y="2066.9774"/><use xlink:href="#6d202a35cq" x="467.9259" y="2066.9774"/><use xlink:href="#6d202a35ce" x="495.8769" y="2066.9774"/><use xlink:href="#6d202a35ca" x="504.3579" y="2066.9774"/><use xlink:href="#6d202a35cs" x="519.5049" y="2066.9774"/><use xlink:href="#6d202a35cd" x="539.4039" y="2066.9774"/><use xlink:href="#6d202a35ce" x="557.1249" y="2066.9774"/><use xlink:href="#6d202a35ck" x="565.6059" y="2066.9774"/></g><g><use xlink:href="#6d202a35cz" x="586.4058" y="2066.9774"/></g><g><use xlink:href="#6d202a35ca" x="604.3842" y="2066.9774"/><use xlink:href="#6d202a35cA" x="619.5312" y="2066.9774"/></g><g><use xlink:href="#6d202a35ch" x="630.1242" y="2066.9774"/></g><g><use xlink:href="#6d202a35cf" x="649.0926" y="2066.9774"/></g><g><use xlink:href="#6d202a35ci" x="666.5034" y="2066.9774"/><use xlink:href="#6d202a35cs" x="686.4024" y="2066.9774"/><use xlink:href="#6d202a35cd" x="706.3014" y="2066.9774"/><use xlink:href="#6d202a35ce" x="724.0224" y="2066.9774"/><use xlink:href="#6d202a35ca" x="732.5034" y="2066.9774"/></g><g><use xlink:href="#6d202a35cq" x="747.1092" y="2066.9774"/><use xlink:href="#6d202a35cz" x="775.0602" y="2066.9774"/><use xlink:href="#6d202a35ce" x="791.6922" y="2066.9774"/><use xlink:href="#6d202a35cg" x="800.1732" y="2066.9774"/><use xlink:href="#6d202a35cr" x="817.2672" y="2066.9774"/><use xlink:href="#6d202a35cf" x="834.0972" y="2066.9774"/><use xlink:href="#6d202a35cj" x="851.8182" y="2066.9774"/></g><g><use xlink:href="#6d202a35ci" x="862.4079" y="2066.9774"/><use xlink:href="#6d202a35ca" x="882.3069" y="2066.9774"/></g><g><use xlink:href="#6d202a35cn" x="896.9028" y="2066.9774"/><use xlink:href="#6d202a35cz" x="924.8538" y="2066.9774"/><use xlink:href="#6d202a35ce" x="941.4858" y="2066.9774"/></g><g><use xlink:href="#6d202a35cg" x="409.4961" y="2118.9854"/><use xlink:href="#6d202a35ck" x="426.5901" y="2118.9854"/><use xlink:href="#6d202a35cj" x="448.3041" y="2118.9854"/><use xlink:href="#6d202a35ce" x="459.3591" y="2118.9854"/><use xlink:href="#6d202a35ck" x="467.8401" y="2118.9854"/></g><g><use xlink:href="#6d202a35cz" x="488.6631" y="2118.9854"/><use xlink:href="#6d202a35cb" x="505.2951" y="2118.9854"/><use xlink:href="#6d202a35cj" x="524.4351" y="2118.9854"/></g><g><use xlink:href="#6d202a35cm" x="534.7707" y="2118.9854"/></g><g><use xlink:href="#6d202a35ca" x="552.0264" y="2118.9854"/></g><g><use xlink:href="#6d202a35cn" x="566.6223" y="2118.9854"/><use xlink:href="#6d202a35cz" x="594.5733" y="2118.9854"/><use xlink:href="#6d202a35ce" x="611.2053" y="2118.9854"/><use xlink:href="#6d202a35ci" x="619.6863" y="2118.9854"/><use xlink:href="#6d202a35cs" x="639.5853" y="2118.9854"/><use xlink:href="#6d202a35cw" x="659.4843" y="2118.9854"/></g><g><use xlink:href="#6d202a35cf" x="680.5845" y="2118.9854"/><use xlink:href="#6d202a35cA" x="698.3055" y="2118.9854"/></g><g><use xlink:href="#6d202a35cq" x="708.7401" y="2118.9854"/><use xlink:href="#6d202a35cz" x="736.6911" y="2118.9854"/><use xlink:href="#6d202a35ce" x="753.3231" y="2118.9854"/><use xlink:href="#6d202a35ca" x="761.8041" y="2118.9854"/></g><g><use xlink:href="#6d202a35cb" x="776.4066" y="2118.9854"/><use xlink:href="#6d202a35cc" x="795.5466" y="2118.9854"/><use xlink:href="#6d202a35ce" x="815.1486" y="2118.9854"/><use xlink:href="#6d202a35cg" x="823.6296" y="2118.9854"/><use xlink:href="#6d202a35ca" x="840.7236" y="2118.9854"/><use xlink:href="#6d202a35cj" x="855.8706" y="2118.9854"/></g><g><use xlink:href="#6d202a35co" x="866.3085" y="2118.9854"/><use xlink:href="#6d202a35cA" x="886.1415" y="2118.9854"/></g><g><use xlink:href="#6d202a35cb" x="896.7312" y="2118.9854"/><use xlink:href="#6d202a35cc" x="915.8712" y="2118.9854"/></g><g><use xlink:href="#6d202a35cB" x="934.5393" y="2118.9854"/></g><g><use xlink:href="#6d202a35cC" x="32.4702" y="1602.7867"/></g><g><use xlink:href="#6d202a35cD" x="136.4513" y="1602.7867"/></g><g><use xlink:href="#6d202a35cE" x="236.3512" y="1602.7867"/><use xlink:href="#6d202a35cF" x="336.9492" y="1602.7867"/></g><g><use xlink:href="#6d202a35cG" x="390.4881" y="1602.7867"/><use xlink:href="#6d202a35cH" x="500.2151" y="1602.7867"/></g><g><use xlink:href="#6d202a35cI" x="554.5953" y="1602.7867"/><use xlink:href="#6d202a35cJ" x="639.9783" y="1602.7867"/><use xlink:href="#6d202a35cK" x="742.3663" y="1602.7867"/></g><g><use xlink:href="#6d202a35cG" x="849.6589" y="1602.7867"/></g><path d="M364.2 1929.6v203" fill="none" stroke="#ddd"/><g><use xlink:href="#6d202a35cL" x="37.7101" y="2120.8455"/></g><g fill="#ff5000"><use xlink:href="#6d202a35H" x="20" y="2180.3362"/><use xlink:href="#6d202a35I" x="28.532" y="2180.3362"/><use xlink:href="#6d202a35J" x="31.676" y="2180.3362"/><use xlink:href="#6d202a35K" x="37.7" y="2180.3362"/><use xlink:href="#6d202a35L" x="44.984" y="2180.3362"/><use xlink:href="#6d202a35M" x="48.128" y="2180.3362"/><use xlink:href="#6d202a35N" x="54.728" y="2180.3362"/><use xlink:href="#6d202a35O" x="60.656" y="2180.3362"/><use xlink:href="#6d202a35bX" x="63.776" y="2180.3362"/><use xlink:href="#6d202a35Y" x="71.336" y="2180.3362"/><use xlink:href="#6d202a35V" x="77.372" y="2180.3362"/><use xlink:href="#6d202a35bY" x="82.1" y="2180.3362"/><use xlink:href="#6d202a35M" x="86.72" y="2180.3362"/><use xlink:href="#6d202a35af" x="93.32" y="2180.3362"/><use xlink:href="#6d202a35ag" x="100.604" y="2180.3362"/><use xlink:href="#6d202a35L" x="107.54" y="2180.3362"/><use xlink:href="#6d202a35aa" x="110.684" y="2180.3362"/></g><g fill="#ff5000"><use xlink:href="#6d202a35W" x="409.496" y="2180.3362"/></g><g fill="#ff5000"><use xlink:href="#6d202a35X" x="415.388" y="2180.3362"/></g><g fill="#ff5000"><use xlink:href="#6d202a35Y" x="421.9988" y="2180.3362"/><use xlink:href="#6d202a35V" x="428.0348" y="2180.3362"/><use xlink:href="#6d202a35O" x="432.7628" y="2180.3362"/><use xlink:href="#6d202a35Z" x="435.8828" y="2180.3362"/><use xlink:href="#6d202a35X" x="447.0068" y="2180.3362"/><use xlink:href="#6d202a35aa" x="453.6788" y="2180.3362"/><use xlink:href="#6d202a35I" x="460.9628" y="2180.3362"/><use xlink:href="#6d202a35ab" x="464.1068" y="2180.3362"/><use xlink:href="#6d202a35ac" x="471.1508" y="2180.3362"/></g><g fill="#ff5000"><use xlink:href="#6d202a35W" x="20" y="2380.0162"/></g><g fill="#ff5000"><use xlink:href="#6d202a35X" x="25.892" y="2380.0162"/></g><g fill="#ff5000"><use xlink:href="#6d202a35Y" x="32.5028" y="2380.0162"/><use xlink:href="#6d202a35V" x="38.5388" y="2380.0162"/><use xlink:href="#6d202a35O" x="43.2668" y="2380.0162"/><use xlink:href="#6d202a35bX" x="46.3868" y="2380.0162"/><use xlink:href="#6d202a35Y" x="53.9468" y="2380.0162"/><use xlink:href="#6d202a35V" x="59.9828" y="2380.0162"/><use xlink:href="#6d202a35bY" x="64.7108" y="2380.0162"/><use xlink:href="#6d202a35M" x="69.3308" y="2380.0162"/><use xlink:href="#6d202a35af" x="75.9308" y="2380.0162"/><use xlink:href="#6d202a35ag" x="83.2148" y="2380.0162"/><use xlink:href="#6d202a35L" x="90.1508" y="2380.0162"/><use xlink:href="#6d202a35aa" x="93.2948" y="2380.0162"/></g></svg>