<?xml version='1.0' encoding='UTF-8'?>
<svg xmlns="http://www.w3.org/2000/svg" xmlns:xlink="http://www.w3.org/1999/xlink" width="600px" height="300px" viewBox="0 0 600 300" x="0px" y="0px" enable-background="new 0 0 600 300"><defs><symbol overflow="visible" id="698f5a37a"><path d="M24.77 1.14c11.54 0 19.12-7.39 19.12-20.98 0-13.91-7.02-20.35-17.19-20.35-8.3 0-13.22 4.8-15.47 9.75h-.34c1.3-13.37 3.92-17.75 15.81-19.73 6.6-1.14 10.55-1.52 14.28-1.9l-.48-6.21a217 217 0 0 0-14.83 2.01C9.41-53.53 5.8-44.95 5.8-24.84 5.8-5.3 13.56 1.14 24.77 1.14zm.03-5.6c-8.3 0-12.38-5.63-12.38-16.41 0-8.43 5.22-14.15 12.9-14.15 7.87 0 11.93 4.93 11.93 14.91 0 10.4-4.06 15.66-12.45 15.66zm0 0"/></symbol><symbol overflow="visible" id="698f5a37b"><path d="M32.98-40.1H7.28V0h6.47v-34.47h19.23zm0 0"/></symbol><symbol overflow="visible" id="698f5a37c"><path d="M39.36-5.67v-34.44h-28c-.16 6.92-.34 13.86-.81 19.42-.64 7.36-2.52 12.72-4.7 15.02H.78v16.34H6.8V0h32.55v10.67h6.05V-5.67zm-26.9 0c2.13-3.13 3.43-8.69 3.91-14.75.27-3.92.55-9.03.74-14.2h15.87v28.95zm0 0"/></symbol><symbol overflow="visible" id="698f5a37e"><path d="M21.83 1.14c12.23 0 19.65-7.31 21.94-20.37 2.17-12.54-3.13-20.96-15.35-20.96-7.7 0-12.31 3.92-15.36 8.96h-.37c4.1-13.91 7.31-17.72 20.37-19.4 5.88-.8 10.06-1.14 13.88-1.45l-.35-6.2c-3.89.34-9.1.8-15.09 1.7-17.3 2.64-21.33 11.9-24.9 32C3.96-9.72 7.5 1.14 21.82 1.14zm.6-5.6c-9.1 0-11.57-6.67-10-15.54 1.77-10.17 7.12-15.02 15.26-15.02 8.62 0 11.25 6.49 9.56 15.29C35.31-9.72 30.97-4.45 22.44-4.45zm0 0"/></symbol><symbol overflow="visible" id="698f5a37f"><path d="M4.6-47.5h21.57l.9-4.92H5.54zM3.7 0h6.48l7.13-40.1H10.8zm0 0"/></symbol><symbol overflow="visible" id="698f5a37g"><path d="M17.8 16.1c12.82 0 18.28-6.62 20.48-19.33l6.49-36.88h-5.41L37.1-32.8h-.34c-1.38-4-4.35-8.45-12.46-8.45-10.93 0-17.95 8.14-20 19.72C2.21-9.56 7.47-.43 19.01-.43c6.93 0 10.97-3.2 13.22-7.23h.35l-.85 4.43c-1.75 9.21-4.95 13.78-13.56 13.78-6.89 0-9.72-2.9-10.33-7.24l-6.59.46C1.91 11.3 6.89 16.1 17.8 16.1zm2.89-22c-8.85 0-11.55-6.44-9.9-15.5 1.52-8.46 6-14.23 14.2-14.23 8.26 0 11.54 6.38 10.06 15.26-1.33 7.95-6.02 14.46-14.36 14.46zm0 0"/></symbol><symbol overflow="visible" id="698f5a37h"><path d="M15.28-47.5h24.69l.9-4.92H16.2zm1.64 48.64c7.31 0 11.19-3.58 13.97-7.89h.34L30.75 0h5.4l7.13-40.1H36.8l-3.92 22.2C31.5-9.99 25.63-4.6 18.86-4.6c-6.4 0-7.84-4.24-6.63-11.3l4.3-24.2h-6.47L5.75-15.98C3.92-5.59 7.39 1.14 16.92 1.14zm0 0"/></symbol><symbol overflow="visible" id="698f5a37i"><path d="M15.28-47.5h50.1l.9-4.92h-50.1zm1.6 48.64c7.92 0 11.89-3.92 14.7-8.56h.31c1.03 5.06 4.88 8.56 10.97 8.56 7.34 0 10.89-3.31 13.64-7.89h.38L56.41 0h5.25l7.13-40.1h-6.47L58.4-17.9C57.03-9.99 50.75-4.78 44.98-4.78c-6.23 0-7.8-4.37-6.62-11.12l4.31-24.22H36.2l-3.92 22.2C30.89-10 24.87-4.77 18.86-4.77c-6.25 0-7.81-4.34-6.63-11.12l4.3-24.22h-6.47L5.75-15.97C4-5.75 7.35 1.14 16.88 1.14zm0 0"/></symbol><symbol overflow="visible" id="698f5a37j"><path d="M16.88 1.14c7.92 0 11.89-3.92 14.7-8.56h.31c1.03 5.06 4.88 8.56 10.97 8.56 7.34 0 10.89-3.31 13.64-7.89h.38L56.41 0h5.25l7.13-40.1h-6.47L58.4-17.9C57.03-9.99 50.75-4.78 44.98-4.78c-6.23 0-7.8-4.37-6.62-11.12l4.31-24.22H36.2l-3.92 22.2C30.89-10 24.87-4.77 18.86-4.77c-6.25 0-7.81-4.34-6.63-11.12l4.3-24.22h-6.47L5.75-15.97C4-5.75 7.35 1.14 16.88 1.14zm0 0"/></symbol><symbol overflow="visible" id="698f5a37k"><path d="M3.83 0v-5.95H6.2v-.82H.45v.82h2.4V0zm0 0"/></symbol><symbol overflow="visible" id="698f5a37l"><path d="M5.75-2.23v-.43c0-1.6-.9-2.51-2.42-2.51S.87-4.16.87-2.48c0 1.71.91 2.62 2.5 2.62 1.43 0 2.07-.56 2.29-1.52l-.9-.09c-.18.61-.59.9-1.35.9-.94 0-1.52-.54-1.58-1.66zm-2.4-2.2c.93 0 1.43.5 1.48 1.55H1.84c.08-1.07.6-1.56 1.5-1.56zm0 0"/></symbol><symbol overflow="visible" id="698f5a37m"><path d="M1.83 0l1.42-2h.06l1.46 2H5.8L4-2.53l1.78-2.49H4.8L3.42-3.08h-.08l-1.4-1.94H.89l1.78 2.49L.84 0zm0 0"/></symbol><symbol overflow="visible" id="698f5a37n"><path d="M5.52-4.25v-.77H3.17v-1.56h-.81l-.14 1.56H.75v.77h1.47v2.4c0 1.3.48 1.94 1.84 1.94C4.6.1 5.14 0 5.55-.14L5.4-.91c-.32.13-.72.2-1.13.2-.8 0-1.1-.37-1.1-1.23v-2.31zm0 0"/></symbol><symbol overflow="visible" id="698f5a37o"><path d="M3.33-3.42c.47 0 .8-.27.8-.8 0-.51-.33-.8-.8-.8-.47 0-.8.29-.8.8 0 .53.33.8.8.8zm0 3.5c.47 0 .8-.27.8-.78 0-.53-.33-.82-.8-.82-.47 0-.8.29-.8.82 0 .51.33.78.8.78zm0 0"/></symbol><symbol overflow="visible" id="698f5a37q"><path d="M3.4.14c1.55 0 2.46-.95 2.46-2.62 0-1.63-.9-2.47-2.19-2.47a2 2 0 0 0-1.9 1.14h-.05c.12-1.55.42-2.13 1.92-2.36.88-.14 1.38-.19 1.86-.25l-.08-.86c-.56.05-1.06.1-1.92.25-2.06.36-2.58 1.34-2.58 4C.92-.78 1.87.14 3.4.14zm0-.75c-1 0-1.5-.72-1.5-1.92 0-1.08.65-1.72 1.58-1.72s1.4.58 1.4 1.78c0 1.25-.49 1.86-1.49 1.86zm0 0"/></symbol><symbol overflow="visible" id="698f5a37r"><path d="M1.44-5.02V0h.95v-4.25h3.22v-.77zm0 0"/></symbol><symbol overflow="visible" id="698f5a37s"><path d="M5.36-5.02H1.7c-.03.82-.06 1.77-.12 2.44-.08.9-.3 1.52-.58 1.81H.4v2.1h.88V0H5.2v1.33h.88v-2.1h-.72zM1.9-.77c.25-.39.4-1.03.47-1.75.04-.46.07-1.12.1-1.75h1.97v3.5zm0 0"/></symbol><symbol overflow="visible" id="698f5a37t"><path d="M1.1-5.02V0h.96v-4.22h2.55V0h.95v-5.02zm0 0"/></symbol><symbol overflow="visible" id="698f5a37u"><path d="M.95-5.02v.77h1.9V0h.96v-4.25h1.9v-.77zm0 0"/></symbol><symbol overflow="visible" id="698f5a37v"><path d="M5.19-.73H3.75v-4.29h-.83v4.29H1.47v-4.29H.64V0h5.4v-5.02h-.85zm0 0"/></symbol><symbol overflow="visible" id="698f5a37w"><path d="M5.95-6.77H1.1V0h.99v-2.92H5.3v-.77H2.08v-2.26h3.87zm0 0"/></symbol><symbol overflow="visible" id="698f5a37x"><path d="M2.83.14c.94 0 1.5-.39 1.81-.95h.08l.1.81h.76v-3.38c0-1.23-.69-1.8-2.13-1.8-1.43 0-2.03.65-2.18 1.6l.93.1c.11-.6.44-.93 1.22-.93.85 0 1.22.32 1.22 1.04v.34l-1.81.2C1.6-2.7 1.1-2.17 1.1-1.28c0 .92.64 1.42 1.72 1.42zm.25-.77c-.67 0-1.02-.28-1.02-.74 0-.44.28-.72 1-.82l1.58-.19v.41c0 .8-.6 1.34-1.56 1.34zm0 0"/></symbol><symbol overflow="visible" id="698f5a37y"><path d="M2.73.14c.9 0 1.43-.45 1.74-1.08h.06l.13.94h.8v-5.02h-.94v2.7c0 .98-.57 1.62-1.46 1.62-.75 0-1.1-.4-1.1-1.22v-3.1h-.93v3.32c0 1.17.55 1.84 1.7 1.84zm0 0"/></symbol><symbol overflow="visible" id="698f5a37z"><path d="M5.08-5.16c-.94 0-1.58.43-1.9 1.3h-.09l-.07-1.16H1.05v.77h1.1v3.48H.96V0h3.96v-.77H3.1v-1.46c0-1.36.6-2.05 1.83-2.05.4 0 .76.08 1.1.17l.15-.87c-.33-.11-.7-.18-1.11-.18zm0 0"/></symbol><symbol overflow="visible" id="698f5a37A"><path d="M6.17 0L3.98-6.77h-1.3L.5 0h.97l.44-1.47h2.78L5.16 0zM3.28-5.94h.08l1.1 3.74H2.15zm0 0"/></symbol><symbol overflow="visible" id="698f5a37B"><path d="M2.84.14C3.8.14 4.33-.26 4.6-.9h.07L4.8 0h.76v-7.14h-.95v2.95h-.08c-.28-.6-.86-.97-1.67-.97-1.48 0-2.27.99-2.27 2.64C.6-.84 1.36.14 2.84.14zm.22-.8c-.98 0-1.48-.59-1.48-1.84s.5-1.86 1.48-1.86c1.13 0 1.58.8 1.58 1.86S4.2-.66 3.06-.66zm0 0"/></symbol><symbol overflow="visible" id="698f5a37C"><path d="M3.58-5.81c.42 0 .72-.22.72-.67 0-.44-.3-.68-.72-.68-.44 0-.72.24-.72.68 0 .45.28.67.72.67zm.5.8H1.52v.76h1.6v3.48h-1.8V0h4.46v-.77h-1.7zm0 0"/></symbol><symbol overflow="visible" id="698f5a37D"><path d="M3.33.14c1.62 0 2.5-.95 2.5-2.66 0-1.68-.88-2.64-2.5-2.64-1.63 0-2.5.96-2.5 2.64 0 1.7.87 2.66 2.5 2.66zm0-.77c-1.06 0-1.52-.6-1.52-1.89 0-1.28.46-1.87 1.52-1.87 1.08 0 1.53.6 1.53 1.87 0 1.29-.45 1.9-1.53 1.9zm0 0"/></symbol><symbol overflow="visible" id="698f5a37E"><path d="M2.16 0v-2.67c0-.99.59-1.63 1.46-1.63.74 0 1.07.38 1.07 1.22V0h.95v-3.31c0-1.2-.56-1.85-1.67-1.85-.92 0-1.49.46-1.77 1.08h-.06l-.12-.94H1.2V0zm0 0"/></symbol><symbol overflow="visible" id="698f5a37F"><path d="M3.92-7.14H1.36v.76h1.6v5.61H1.15V0H5.7v-.77H3.92zm0 0"/></symbol><symbol overflow="visible" id="698f5a37G"><path d="M3.42.14c1.61 0 2.56-.75 2.56-2 0-1.1-.67-1.6-1.95-1.86l-.97-.2c-.87-.17-1.23-.49-1.23-1.11 0-.7.54-1.11 1.5-1.11 1.06 0 1.51.34 1.69 1.23l.9-.09c-.17-1.28-.98-1.9-2.6-1.9C1.79-6.9.9-6.18.9-4.98c0 1.06.66 1.66 1.88 1.9l1.01.2c.85.17 1.25.4 1.25 1.09 0 .73-.6 1.16-1.6 1.16-1.07 0-1.66-.4-1.8-1.24l-.94.1C.83-.53 1.75.13 3.42.13zm0 0"/></symbol><symbol overflow="visible" id="698f5a37H"><path d="M3.9.14c1.48 0 2.18-.98 2.18-2.64 0-1.67-.7-2.66-2.17-2.66-.91 0-1.49.41-1.79 1h-.06v-2.98h-.95V0h.81l.11-.9h.06c.29.63.82 1.04 1.82 1.04zm-.32-.8c-1.08 0-1.55-.8-1.55-1.84 0-1.06.47-1.86 1.55-1.86 1.1 0 1.51.61 1.51 1.86S4.64-.66 3.58-.66zm0 0"/></symbol><symbol overflow="visible" id="698f5a37I"><path d="M2.58.95l2.39-8.67h-.9L1.7.95zm0 0"/></symbol><symbol overflow="visible" id="698f5a37J"><path d="M1.64 0v-3.17l-.16-2.5h.1L2.9-1.83h.82l1.35-3.84h.1l-.16 2.5V0h.95v-6.77h-1.3l-1.3 3.82h-.09L2-6.77H.69V0zm0 0"/></symbol><symbol overflow="visible" id="698f5a37K"><path d="M3.34.14c1.43 0 2.13-.66 2.25-1.78l-.89-.1c-.1.7-.5 1.08-1.34 1.08-1.03 0-1.52-.64-1.52-1.84 0-1.23.47-1.86 1.52-1.86.84 0 1.23.36 1.34 1.08l.9-.1c-.13-1.09-.82-1.78-2.26-1.78-1.56 0-2.46.97-2.46 2.66 0 1.66.9 2.64 2.46 2.64zm0 0"/></symbol><symbol overflow="visible" id="698f5a37L"><path d="M4.63-6.5c.45 0 .98.08 1.39.2l.2-.72a5.3 5.3 0 0 0-1.64-.26c-1.52 0-2.16.56-2.16 1.87v.4H.9v.76h1.53V0h.94v-4.25h2.53v-.77H3.36v-.3c0-.84.33-1.18 1.27-1.18zm0 0"/></symbol><symbol overflow="visible" id="698f5a37M"><path d="M1.63 0v-2.9c0-.8.15-1.4.71-1.4.41 0 .55.3.55.88V0h.95v-2.9c0-.8.18-1.4.72-1.4.4 0 .57.3.57.88V0h.95v-3.63c0-.92-.28-1.53-1.11-1.53-.63 0-.95.41-1.1.9h-.06c-.1-.52-.44-.9-1.08-.9-.6 0-.93.41-1.06.9H1.6l-.23-.76H.67V0zm0 0"/></symbol><symbol overflow="visible" id="698f5a37N"><path d="M3.36.16c1.4 0 2.2-.6 2.2-1.57 0-.89-.54-1.22-1.47-1.39L3-3c-.67-.14-.86-.33-.86-.73 0-.5.4-.74 1.17-.74.83 0 1.19.27 1.27.8l.9-.05c-.12-1-.8-1.47-2.17-1.47-1.34 0-2.1.53-2.1 1.5 0 .81.45 1.22 1.52 1.44l1.04.2c.56.11.87.24.87.72 0 .52-.45.78-1.28.78-.95 0-1.36-.28-1.42-.87l-.9.06C1.07-.36 1.8.16 3.35.16zm0 0"/></symbol><symbol overflow="visible" id="698f5a37O"><path d="M1.45-2.95c0 2.56 1.08 4.37 3.67 4.84l.11-.67C3.28.86 2.43-.75 2.43-2.95s.85-3.82 2.8-4.16l-.1-.69c-2.6.49-3.68 2.3-3.68 4.85zm0 0"/></symbol><symbol overflow="visible" id="698f5a37P"><path d="M3.33.14c1.65 0 2.6-1.1 2.6-3.52S4.99-6.9 3.34-6.9C1.67-6.9.72-5.8.72-3.37c0 2.4.95 3.51 2.6 3.51zm0-.84c-1.13 0-1.6-.85-1.6-2.67 0-1.86.47-2.7 1.6-2.7 1.12 0 1.6.84 1.6 2.7 0 1.82-.48 2.67-1.6 2.67zM3.3-2.64c.38 0 .56-.28.56-.72 0-.44-.18-.7-.56-.7-.39 0-.56.26-.56.7 0 .44.17.72.56.72zm0 0"/></symbol><symbol overflow="visible" id="698f5a37Q"><path d="M3.25-6.9C1.67-6.9.77-6.04.77-4.6c0 1.41.85 2.18 2.21 2.18 1.04 0 1.58-.52 1.88-1.03h.06c0 1.54-.39 2.78-1.73 2.78-.9 0-1.24-.44-1.36-.97l-.97.1c.22.96.86 1.68 2.33 1.68C4.83.14 5.8-.9 5.8-3.64c0-2.22-.92-3.27-2.56-3.27zm-.02.8c.91 0 1.46.52 1.46 1.44 0 .91-.69 1.47-1.53 1.47-.91 0-1.46-.51-1.46-1.47S2.3-6.1 3.23-6.1zm0 0"/></symbol><symbol overflow="visible" id="698f5a37R"><path d="M1.45-7.1c1.96.33 2.8 1.94 2.8 4.15 0 2.2-.84 3.8-2.8 4.17l.11.67c2.58-.47 3.67-2.28 3.67-4.84 0-2.55-1.09-4.36-3.67-4.85zm0 0"/></symbol></defs><g fill="#515151"><use xlink:href="#698f5a37a" x="71.86667" y="159"/><use xlink:href="#698f5a37b" x="119.63467" y="159"/></g><g fill="#515151"><use xlink:href="#698f5a37c" x="149.80267" y="159"/><use xlink:href="#698f5a37d" x="197.97067" y="159"/></g><use xlink:href="#698f5a37e" x="218.8762" y="159" fill="#515151"/><use xlink:href="#698f5a37f" x="266.6857" y="159" fill="#fff"/><use xlink:href="#698f5a37g" x="287.6762" y="159" fill="#fff"/><use xlink:href="#698f5a37h" x="336.1714" y="159" fill="#fff"/><use xlink:href="#698f5a37i" x="383.1429" y="159" fill="#fff"/><use xlink:href="#698f5a37j" x="455.6381" y="159" fill="#fff"/><g fill="#fff"><use xlink:href="#698f5a37k" x="246.6667" y="252"/><use xlink:href="#698f5a37l" x="253.3337" y="252"/><use xlink:href="#698f5a37m" x="260.0007" y="252"/><use xlink:href="#698f5a37n" x="266.6677" y="252"/><use xlink:href="#698f5a37o" x="273.3347" y="252"/><use xlink:href="#698f5a37p" x="280.0017" y="252"/><use xlink:href="#698f5a37q" x="286.6687" y="252"/><use xlink:href="#698f5a37r" x="293.3357" y="252"/><use xlink:href="#698f5a37s" x="300.0027" y="252"/><use xlink:href="#698f5a37p" x="306.6697" y="252"/><use xlink:href="#698f5a37q" x="313.3367" y="252"/><use xlink:href="#698f5a37r" x="320.0037" y="252"/><use xlink:href="#698f5a37s" x="326.6707" y="252"/><use xlink:href="#698f5a37t" x="333.3377" y="252"/><use xlink:href="#698f5a37u" x="340.0047" y="252"/><use xlink:href="#698f5a37v" x="346.6717" y="252"/></g><g fill="#fff"><use xlink:href="#698f5a37w" x="130" y="266"/><use xlink:href="#698f5a37l" x="136.667" y="266"/><use xlink:href="#698f5a37x" x="143.334" y="266"/><use xlink:href="#698f5a37n" x="150.001" y="266"/><use xlink:href="#698f5a37y" x="156.668" y="266"/><use xlink:href="#698f5a37z" x="163.335" y="266"/><use xlink:href="#698f5a37l" x="170.002" y="266"/><use xlink:href="#698f5a37o" x="176.669" y="266"/><use xlink:href="#698f5a37p" x="183.336" y="266"/><use xlink:href="#698f5a37A" x="190.003" y="266"/><use xlink:href="#698f5a37B" x="196.67" y="266"/><use xlink:href="#698f5a37B" x="203.337" y="266"/><use xlink:href="#698f5a37C" x="210.004" y="266"/><use xlink:href="#698f5a37n" x="216.671" y="266"/><use xlink:href="#698f5a37C" x="223.338" y="266"/><use xlink:href="#698f5a37D" x="230.005" y="266"/><use xlink:href="#698f5a37E" x="236.672" y="266"/><use xlink:href="#698f5a37x" x="243.339" y="266"/><use xlink:href="#698f5a37F" x="250.006" y="266"/><use xlink:href="#698f5a37p" x="256.673" y="266"/><use xlink:href="#698f5a37G" x="263.34" y="266"/><use xlink:href="#698f5a37l" x="270.007" y="266"/><use xlink:href="#698f5a37z" x="276.674" y="266"/><use xlink:href="#698f5a37H" x="283.341" y="266"/><use xlink:href="#698f5a37C" x="290.008" y="266"/><use xlink:href="#698f5a37x" x="296.675" y="266"/><use xlink:href="#698f5a37E" x="303.342" y="266"/><use xlink:href="#698f5a37I" x="310.009" y="266"/><use xlink:href="#698f5a37J" x="316.676" y="266"/><use xlink:href="#698f5a37x" x="323.343" y="266"/><use xlink:href="#698f5a37K" x="330.01" y="266"/><use xlink:href="#698f5a37l" x="336.677" y="266"/><use xlink:href="#698f5a37B" x="343.344" y="266"/><use xlink:href="#698f5a37D" x="350.011" y="266"/><use xlink:href="#698f5a37E" x="356.678" y="266"/><use xlink:href="#698f5a37C" x="363.345" y="266"/><use xlink:href="#698f5a37x" x="370.012" y="266"/><use xlink:href="#698f5a37E" x="376.679" y="266"/><use xlink:href="#698f5a37p" x="383.346" y="266"/><use xlink:href="#698f5a37L" x="390.013" y="266"/><use xlink:href="#698f5a37D" x="396.68" y="266"/><use xlink:href="#698f5a37z" x="403.347" y="266"/><use xlink:href="#698f5a37M" x="410.014" y="266"/><use xlink:href="#698f5a37N" x="416.681" y="266"/><use xlink:href="#698f5a37p" x="423.348" y="266"/><use xlink:href="#698f5a37O" x="430.015" y="266"/><use xlink:href="#698f5a37N" x="436.682" y="266"/><use xlink:href="#698f5a37N" x="443.349" y="266"/><use xlink:href="#698f5a37P" x="450.016" y="266"/><use xlink:href="#698f5a37Q" x="456.683" y="266"/><use xlink:href="#698f5a37R" x="463.35" y="266"/></g></svg>