<?xml version='1.0' encoding='UTF-8'?>
<svg xmlns="http://www.w3.org/2000/svg" xmlns:xlink="http://www.w3.org/1999/xlink" width="600px" height="300px" viewBox="0 0 600 300" x="0px" y="0px" enable-background="new 0 0 600 300"><defs><symbol overflow="visible" id="e8d1f581a"><path d="M18.02 0h6.7v-48.27h17.6v-5.82H.38v5.82h17.65zM16.6 18.81h4.8L24.92 5.2h-6.3zm0 0"/></symbol><symbol overflow="visible" id="e8d1f581b"><path d="M45.03 0h7.08L31.39-54.1h-8.6L1.85 0h7.01l4.58-12.19H40.5zm-29.6-17.64l11.43-30.47h.34l11.32 30.47zm0 0"/></symbol><symbol overflow="visible" id="e8d1f581c"><path d="M49.3 0L31.84-23.05c11.58-.1 17.2-5.64 17.2-15.28 0-10.31-5.88-15.76-18.18-15.76H8.42V0h6.74v-22.75h9.34L41.48 0zM15.16-28.23v-20.14h14.48c9.22 0 12.88 2.62 12.88 10.04 0 7.28-3.7 10.1-13.07 10.1zm0 0"/></symbol><symbol overflow="visible" id="e8d1f581d"><path d="M27.05-59.05c7.54 0 12.3-4.5 12.68-11.84h-5.56c-.53 4.19-2.48 7.08-7.12 7.08-4.61 0-6.52-2.81-7.05-7.08h-5.64c.39 7.34 4.92 11.84 12.69 11.84zM45.03 0h7.08L31.39-54.1h-8.6L1.85 0h7.01l4.58-12.19H40.5zm-29.6-17.64l11.43-30.47h.34l11.32 30.47zm0 0"/></symbol><symbol overflow="visible" id="e8d1f581f"><path d="M16.03-34.55H28.8v-5.56H16.03v-12.47h-5.06L9.57-40.1H1.3v5.56h8.26v23C9.56-3.3 13.37.92 21.83.92c2.6 0 5.25-.5 7.15-1.08l-.71-5.37c-1.41.39-3.16.76-5.14.76-4.7 0-7.1-1.82-7.1-7.39zM14.7 18.81h4.8L23.02 5.2h-6.3zm0 0"/></symbol><symbol overflow="visible" id="e8d1f581g"><path d="M17.48 1.1c6.75 0 11.29-2.82 13.49-7.38h.39L32.03 0h5.42v-27.28c0-9.64-5.42-14.02-15.78-14.02-10.55 0-15.08 4.77-16.22 12.38l6.4.58c.8-4.8 3.35-7.63 9.74-7.63 6.57 0 9.57 2.72 9.57 9v2.78l-13.52 1.75c-9.67 1.22-13.83 4.8-13.83 12.08 0 7.2 4.77 11.47 13.67 11.47zm1.3-5.29c-5.86 0-8.37-2.48-8.37-6.6 0-3.8 2.17-6 7.73-6.77l13.02-1.83v3.84c0 6.57-4.7 11.36-12.38 11.36zm0 0"/></symbol><symbol overflow="visible" id="e8d1f581h"><path d="M7.28 0h6.47v-21.98c0-7.93 4.95-13.1 11.47-13.1 1.56 0 2.86.22 3.76.45l.7-6.14a17.64 17.64 0 0 0-4.12-.48c-5.6 0-9.45 2.97-11.58 8.19h-.39l-.9-7.05h-5.4zm0 0"/></symbol><symbol overflow="visible" id="e8d1f581i"><path d="M22.36-45.56c7.1 0 11.66-4.5 11.89-12.42h-5.27c-.37 4.3-2.04 7.65-6.62 7.65-4.56 0-6.25-3.34-6.63-7.65h-5.32c.21 7.92 4.64 12.42 11.95 12.42zM17.48 1.1c6.75 0 11.29-2.83 13.49-7.4h.39L32.03 0h5.42v-27.28c0-9.64-5.42-14.02-15.78-14.02-10.55 0-15.08 4.77-16.22 12.38l6.4.58c.8-4.8 3.35-7.63 9.74-7.63 6.57 0 9.57 2.72 9.57 9v2.78l-13.52 1.75c-9.67 1.22-13.83 4.8-13.83 12.08 0 7.2 4.77 11.47 13.67 11.47zm1.3-5.3c-5.86 0-8.37-2.48-8.37-6.6 0-3.8 2.17-6 7.73-6.77l13.02-1.83v3.84c0 6.57-4.7 11.36-12.38 11.36zm0 0"/></symbol><symbol overflow="visible" id="e8d1f581j"><path d="M3.83 0v-5.95H6.2v-.82H.45v.82h2.4V0zm0 0"/></symbol><symbol overflow="visible" id="e8d1f581k"><path d="M5.75-2.23v-.43c0-1.6-.9-2.51-2.42-2.51S.87-4.16.87-2.48c0 1.71.91 2.62 2.5 2.62 1.43 0 2.07-.56 2.29-1.52l-.9-.09c-.18.61-.59.9-1.35.9-.94 0-1.52-.54-1.58-1.66zm-2.4-2.2c.93 0 1.43.5 1.48 1.55H1.84c.08-1.07.6-1.56 1.5-1.56zm0 0"/></symbol><symbol overflow="visible" id="e8d1f581l"><path d="M1.83 0l1.42-2h.06l1.46 2H5.8L4-2.53l1.78-2.49H4.8L3.42-3.08h-.08l-1.4-1.94H.89l1.78 2.49L.84 0zm0 0"/></symbol><symbol overflow="visible" id="e8d1f581m"><path d="M5.52-4.25v-.77H3.17v-1.56h-.81l-.14 1.56H.75v.77h1.47v2.4c0 1.3.48 1.94 1.84 1.94C4.6.1 5.14 0 5.55-.14L5.4-.91c-.32.13-.72.2-1.13.2-.8 0-1.1-.37-1.1-1.23v-2.31zm0 0"/></symbol><symbol overflow="visible" id="e8d1f581n"><path d="M3.33-3.42c.47 0 .8-.27.8-.8 0-.51-.33-.8-.8-.8-.47 0-.8.29-.8.8 0 .53.33.8.8.8zm0 3.5c.47 0 .8-.27.8-.78 0-.53-.33-.82-.8-.82-.47 0-.8.29-.8.82 0 .51.33.78.8.78zm0 0"/></symbol><symbol overflow="visible" id="e8d1f581p"><path d="M3.83-5.95H6.2v-.82H.45v.82h2.4V0h.17l-.13.64c.52.05.81.17.81.5 0 .36-.22.42-.48.42-.14 0-.36-.03-.52-.08l-.08.5c.2.07.5.15.79.15.56 0 1.06-.2 1.06-.91 0-.52-.44-.77-.95-.86L3.58 0h.25zm0 0"/></symbol><symbol overflow="visible" id="e8d1f581q"><path d="M6.17 0L3.98-6.77h-1.3L.5 0h.97l.44-1.47h2.78L5.16 0zM3.28-5.94h.08l1.1 3.74H2.15zm0 0"/></symbol><symbol overflow="visible" id="e8d1f581r"><path d="M4.06-2.77c1.25-.04 1.92-.7 1.92-1.96 0-1.36-.7-2.04-2.17-2.04H.92V0h.97v-2.73h1.08L4.95 0h1.1zM1.9-6h1.7c1.07 0 1.46.34 1.46 1.28 0 .9-.44 1.27-1.47 1.27H1.89zm0 0"/></symbol><symbol overflow="visible" id="e8d1f581s"><path d="M3.34-7.36c1.08 0 1.74-.51 1.79-1.72h-.7c-.07.75-.34 1.13-1.09 1.13S2.33-8.3 2.27-9.08h-.7c.04 1.2.66 1.72 1.77 1.72zM6.17 0L3.98-6.77h-1.3L.5 0h.97l.44-1.47h2.78L5.16 0zM3.28-5.94h.08l1.1 3.74H2.15zm0 0"/></symbol><symbol overflow="visible" id="e8d1f581t"><path d="M3.69.08l.37.01C4.6.1 5.14 0 5.55-.14L5.4-.91c-.32.13-.72.2-1.13.2-.8 0-1.1-.37-1.1-1.23v-2.31h2.34v-.77H3.17v-1.56h-.81l-.14 1.56H.75v.77h1.47v2.4c0 .96.25 1.55.94 1.82l-.14.67c.51.05.82.17.82.5 0 .36-.23.42-.5.42-.14 0-.36-.03-.5-.08l-.09.5c.2.07.5.15.78.15.56 0 1.08-.2 1.08-.91 0-.52-.44-.77-.97-.86zm0 0"/></symbol><symbol overflow="visible" id="e8d1f581u"><path d="M2.83.14c.94 0 1.5-.39 1.81-.95h.08l.1.81h.76v-3.38c0-1.23-.69-1.8-2.13-1.8-1.43 0-2.03.65-2.18 1.6l.93.1c.11-.6.44-.93 1.22-.93.85 0 1.22.32 1.22 1.04v.34l-1.81.2C1.6-2.7 1.1-2.17 1.1-1.28c0 .92.64 1.42 1.72 1.42zm.25-.77c-.67 0-1.02-.28-1.02-.74 0-.44.28-.72 1-.82l1.58-.19v.41c0 .8-.6 1.34-1.56 1.34zm0 0"/></symbol><symbol overflow="visible" id="e8d1f581v"><path d="M5.08-5.16c-.94 0-1.58.43-1.9 1.3h-.09l-.07-1.16H1.05v.77h1.1v3.48H.96V0h3.96v-.77H3.1v-1.46c0-1.36.6-2.05 1.83-2.05.4 0 .76.08 1.1.17l.15-.87c-.33-.11-.7-.18-1.11-.18zm0 0"/></symbol><symbol overflow="visible" id="e8d1f581w"><path d="M3.53-5.67c1.05 0 1.64-.56 1.69-1.85h-.69c-.05.77-.26 1.22-1 1.22-.72 0-.95-.45-1-1.22h-.7c.04 1.29.62 1.85 1.7 1.85zM2.83.14c.94 0 1.5-.39 1.81-.95h.08l.1.81h.76v-3.38c0-1.23-.69-1.8-2.13-1.8-1.43 0-2.03.65-2.18 1.6l.93.1c.11-.6.44-.93 1.22-.93.85 0 1.22.32 1.22 1.04v.34l-1.81.2C1.6-2.7 1.1-2.17 1.1-1.28c0 .92.64 1.42 1.72 1.42zm.25-.77c-.67 0-1.02-.28-1.02-.74 0-.44.28-.72 1-.82l1.58-.19v.41c0 .8-.6 1.34-1.56 1.34zm0 0"/></symbol><symbol overflow="visible" id="e8d1f581x"><path d="M5.95-6.77H1.1V0h.99v-2.92H5.3v-.77H2.08v-2.26h3.87zm0 0"/></symbol><symbol overflow="visible" id="e8d1f581y"><path d="M2.73.14c.9 0 1.43-.45 1.74-1.08h.06l.13.94h.8v-5.02h-.94v2.7c0 .98-.57 1.62-1.46 1.62-.75 0-1.1-.4-1.1-1.22v-3.1h-.93v3.32c0 1.17.55 1.84 1.7 1.84zm0 0"/></symbol><symbol overflow="visible" id="e8d1f581z"><path d="M3.33.14c1.62 0 2.5-.95 2.5-2.66 0-1.68-.88-2.64-2.5-2.64-1.63 0-2.5.96-2.5 2.64 0 1.7.87 2.66 2.5 2.66zm0-.77c-1.06 0-1.52-.6-1.52-1.89 0-1.28.46-1.87 1.52-1.87 1.08 0 1.53.6 1.53 1.87 0 1.29-.45 1.9-1.53 1.9zm0 0"/></symbol><symbol overflow="visible" id="e8d1f581A"><path d="M1.63 0v-2.9c0-.8.15-1.4.71-1.4.41 0 .55.3.55.88V0h.95v-2.9c0-.8.18-1.4.72-1.4.4 0 .57.3.57.88V0h.95v-3.63c0-.92-.28-1.53-1.11-1.53-.63 0-.95.41-1.1.9h-.06c-.1-.52-.44-.9-1.08-.9-.6 0-.93.41-1.06.9H1.6l-.23-.76H.67V0zm0 0"/></symbol><symbol overflow="visible" id="e8d1f581B"><path d="M2.16 0v-2.67c0-.99.59-1.63 1.46-1.63.74 0 1.07.38 1.07 1.22V0h.95v-3.31c0-1.2-.56-1.85-1.67-1.85-.92 0-1.49.46-1.77 1.08h-.06l-.12-.94H1.2V0zm0 0"/></symbol><symbol overflow="visible" id="e8d1f581C"><path d="M3.58-5.81c.42 0 .72-.22.72-.67 0-.44-.3-.68-.72-.68-.44 0-.72.24-.72.68 0 .45.28.67.72.67zm.5.8H1.52v.76h1.6v3.48h-1.8V0h4.46v-.77h-1.7zm0 0"/></symbol><symbol overflow="visible" id="e8d1f581D"><path d="M1.45-2.95c0 2.56 1.08 4.37 3.67 4.84l.11-.67C3.28.86 2.43-.75 2.43-2.95s.85-3.82 2.8-4.16l-.1-.69c-2.6.49-3.68 2.3-3.68 4.85zm0 0"/></symbol><symbol overflow="visible" id="e8d1f581E"><path d="M3.36.16c1.4 0 2.2-.6 2.2-1.57 0-.89-.54-1.22-1.47-1.39L3-3c-.67-.14-.86-.33-.86-.73 0-.5.4-.74 1.17-.74.83 0 1.19.27 1.27.8l.9-.05c-.12-1-.8-1.47-2.17-1.47-1.34 0-2.1.53-2.1 1.5 0 .81.45 1.22 1.52 1.44l1.04.2c.56.11.87.24.87.72 0 .52-.45.78-1.28.78-.95 0-1.36-.28-1.42-.87l-.9.06C1.07-.36 1.8.16 3.35.16zm0 0"/></symbol><symbol overflow="visible" id="e8d1f581F"><path d="M3.92-7.14H1.36v.76h1.6v5.61H1.15V0H5.7v-.77H3.92zm0 0"/></symbol><symbol overflow="visible" id="e8d1f581G"><path d="M3.16 2.03c1.67 0 2.4-.86 2.4-2.51v-4.54h-.81l-.13.91h-.06c-.26-.58-.8-1.05-1.73-1.05-1.42 0-2.24 1-2.24 2.52 0 1.6.75 2.56 2.2 2.56.94 0 1.5-.5 1.77-1.03h.05v.72c0 1.17-.42 1.67-1.45 1.67-.93 0-1.3-.34-1.41-.89L.8.5c.12.96.87 1.54 2.36 1.54zM3.06-.8c-.98 0-1.48-.57-1.48-1.82 0-1.13.5-1.75 1.48-1.75 1.06 0 1.58.76 1.58 1.75 0 .95-.56 1.82-1.58 1.82zm0 0"/></symbol><symbol overflow="visible" id="e8d1f581H"><path d="M1.45-7.1c1.96.33 2.8 1.94 2.8 4.15 0 2.2-.84 3.8-2.8 4.17l.11.67c2.58-.47 3.67-2.28 3.67-4.84 0-2.55-1.09-4.36-3.67-4.85zm0 0"/></symbol></defs><use xlink:href="#e8d1f581a" x="115.5048" y="159" fill="#fff"/><g fill="#515151"><use xlink:href="#e8d1f581b" x="152.8762" y="159"/><use xlink:href="#e8d1f581c" x="206.8602" y="159"/></g><g fill="#515151"><use xlink:href="#e8d1f581d" x="259.4042" y="159"/><use xlink:href="#e8d1f581e" x="313.3882" y="159"/></g><use xlink:href="#e8d1f581f" x="334.2476" y="159" fill="#fff"/><g fill="#515151"><use xlink:href="#e8d1f581g" x="365.7524" y="159"/><use xlink:href="#e8d1f581h" x="409.7124" y="159"/></g><use xlink:href="#e8d1f581i" x="440.5524" y="159" fill="#515151"/><g fill="#fff"><use xlink:href="#e8d1f581j" x="250" y="252"/><use xlink:href="#e8d1f581k" x="256.667" y="252"/><use xlink:href="#e8d1f581l" x="263.334" y="252"/><use xlink:href="#e8d1f581m" x="270.001" y="252"/><use xlink:href="#e8d1f581n" x="276.668" y="252"/><use xlink:href="#e8d1f581o" x="283.335" y="252"/><use xlink:href="#e8d1f581p" x="290.002" y="252"/><use xlink:href="#e8d1f581q" x="296.669" y="252"/><use xlink:href="#e8d1f581r" x="303.336" y="252"/><use xlink:href="#e8d1f581s" x="310.003" y="252"/><use xlink:href="#e8d1f581o" x="316.67" y="252"/><use xlink:href="#e8d1f581t" x="323.337" y="252"/><use xlink:href="#e8d1f581u" x="330.004" y="252"/><use xlink:href="#e8d1f581v" x="336.671" y="252"/><use xlink:href="#e8d1f581w" x="343.338" y="252"/></g><g fill="#fff"><use xlink:href="#e8d1f581x" x="193.3333" y="266"/><use xlink:href="#e8d1f581k" x="200.0003" y="266"/><use xlink:href="#e8d1f581u" x="206.6673" y="266"/><use xlink:href="#e8d1f581m" x="213.3343" y="266"/><use xlink:href="#e8d1f581y" x="220.0013" y="266"/><use xlink:href="#e8d1f581v" x="226.6683" y="266"/><use xlink:href="#e8d1f581k" x="233.3353" y="266"/><use xlink:href="#e8d1f581n" x="240.0023" y="266"/><use xlink:href="#e8d1f581o" x="246.6693" y="266"/><use xlink:href="#e8d1f581r" x="253.3363" y="266"/><use xlink:href="#e8d1f581z" x="260.0033" y="266"/><use xlink:href="#e8d1f581A" x="266.6703" y="266"/><use xlink:href="#e8d1f581u" x="273.3373" y="266"/><use xlink:href="#e8d1f581B" x="280.0043" y="266"/><use xlink:href="#e8d1f581C" x="286.6713" y="266"/><use xlink:href="#e8d1f581u" x="293.3383" y="266"/><use xlink:href="#e8d1f581B" x="300.0053" y="266"/><use xlink:href="#e8d1f581o" x="306.6723" y="266"/><use xlink:href="#e8d1f581D" x="313.3393" y="266"/><use xlink:href="#e8d1f581E" x="320.0063" y="266"/><use xlink:href="#e8d1f581k" x="326.6733" y="266"/><use xlink:href="#e8d1f581m" x="333.3403" y="266"/><use xlink:href="#e8d1f581o" x="340.0073" y="266"/><use xlink:href="#e8d1f581F" x="346.6743" y="266"/><use xlink:href="#e8d1f581u" x="353.3413" y="266"/><use xlink:href="#e8d1f581B" x="360.0083" y="266"/><use xlink:href="#e8d1f581G" x="366.6753" y="266"/><use xlink:href="#e8d1f581y" x="373.3423" y="266"/><use xlink:href="#e8d1f581u" x="380.0093" y="266"/><use xlink:href="#e8d1f581G" x="386.6763" y="266"/><use xlink:href="#e8d1f581k" x="393.3433" y="266"/><use xlink:href="#e8d1f581H" x="400.0103" y="266"/></g></svg>