<?xml version='1.0' encoding='UTF-8'?>
<svg xmlns="http://www.w3.org/2000/svg" xmlns:xlink="http://www.w3.org/1999/xlink" width="310px" height="280px" viewBox="0 0 310 280" x="0px" y="0px" enable-background="new 0 0 310 280"><defs><symbol overflow="visible" id="f0a7a752a"><path d="M27.33 0h8.39L22.27-35.48h-8.2L.54 0h7.8l2.48-6.97h14.1zM12.9-12.9L18-27.11h.05l4.92 14.23zm0 0"/></symbol><symbol overflow="visible" id="f0a7a752b"><path d="M12.34.77C16.9.77 19.2-1.6 20.5-4.2h.05l.8 4.19h6.7v-38.06h-7.7v14.4h-.07c-1.33-2.62-3.72-4.42-7.73-4.42-6.9 0-11.2 5.33-11.2 14.53 0 8.9 4.06 14.32 11 14.32zm2.4-6.11c-3.58 0-5.55-2.75-5.55-8.32s1.97-8.3 5.54-8.3c3.86 0 5.7 3.04 5.7 8.27 0 5.2-1.8 8.35-5.7 8.35zm0 0"/></symbol><symbol overflow="visible" id="f0a7a752c"><path d="M10.13.72c4.68 0 7.28-1.99 8.59-4.55h.05L19.44 0h6.58v-17.95c0-6.9-3.85-10.24-11.4-10.24-7.3 0-10.67 2.86-12.34 9.7h7.4c1.07-3.14 2.26-4.01 4.95-4.01 2.73 0 3.89 1.48 3.89 3.58 0 1.4-.4 2.19-1.99 2.47l-6.17 1.04C3.83-14.34 1.2-11.55 1.2-6.97 1.2-2.16 4.58.72 10.13.72zm2.42-5.38c-2.27 0-3.6-1.12-3.6-3.06 0-1.69 1.13-2.72 3.7-3.26l2.96-.61a7.2 7.2 0 002.9-1.16v1.52c0 3.9-2.39 6.57-5.96 6.57zm0 0"/></symbol><symbol overflow="visible" id="f0a7a752d"><path d="M2.86 9.52h7.7v-13.2h.06C12.04-.94 14.38.78 18.48.78c6.72 0 11.11-5.4 11.11-14.43 0-9-4.07-14.42-10.87-14.42-4.78 0-7.02 2.36-8.28 4.95h-.05l-.8-4.18H2.86zM16.09-5.34c-3.71 0-5.62-3.05-5.62-8.35 0-5.15 1.9-8.26 5.62-8.26 3.7 0 5.66 2.68 5.66 8.26 0 5.61-1.95 8.35-5.66 8.35zm0 0"/></symbol><symbol overflow="visible" id="f0a7a752e"><path d="M12.9-21.31h6.52v-6H12.9v-7.38H6.5L5.27-27.3H.64v6h4.63v12.86c0 5.9 2.75 9.17 9.1 9.17 2.15 0 3.79-.36 5.18-.8v-5.86c-.86.2-1.86.4-2.9.4-2.63 0-3.76-1.23-3.76-4.37zm0 0"/></symbol><symbol overflow="visible" id="f0a7a752f"><path d="M27.56-11.52v-3.06c0-8.67-4.9-13.6-12.9-13.6-8.08 0-13.32 5.37-13.32 14.55 0 9.08 4.8 14.4 13.5 14.4 7.18 0 10.7-2.96 12.52-8.86h-7.22c-1.22 2.1-2.22 3.2-5.17 3.2-3.5 0-5.53-2.05-5.94-6.63zM14.7-22.58c3.44 0 5.22 2.03 5.5 6.2H9.08c.51-4.32 2.47-6.2 5.6-6.2zm0 0"/></symbol><symbol overflow="visible" id="f0a7a752g"><path d="M2.86 0h7.7v-12.98c0-5.85 2.69-7.96 6.69-7.96.83 0 1.75.08 2.5.24v-7.1a10.5 10.5 0 00-2.4-.25c-3.8 0-5.65 2.03-6.87 5.75h-.04l-.85-5.01H2.86zm0 0"/></symbol><symbol overflow="visible" id="f0a7a752h"><path d="M7.4 0L4.79-8.1H3.23L.6 0h1.18l.51-1.77h3.35L6.19 0zM3.95-7.13h.1l1.32 4.47h-2.8zm0 0"/></symbol><symbol overflow="visible" id="f0a7a752i"><path d="M3.42.17c1.13 0 1.77-.5 2.1-1.26h.07L5.75 0h.92v-8.58H5.53v3.56h-.08c-.34-.75-1.04-1.17-2.01-1.17C1.64-6.19.72-5 .72-3.02c0 2 .92 3.2 2.7 3.2zm.27-.95c-1.2 0-1.8-.74-1.8-2.22 0-1.52.6-2.23 1.78-2.23 1.35 0 1.9.95 1.9 2.23 0 1.27-.55 2.22-1.88 2.22zm0 0"/></symbol><symbol overflow="visible" id="f0a7a752j"><path d="M3.4.17C4.51.17 5.2-.3 5.57-.97h.08l.12.97h.9v-4.05c0-1.48-.82-2.15-2.54-2.15-1.73 0-2.44.75-2.6 1.9l1.1.11c.13-.7.52-1.1 1.47-1.1 1.01 0 1.47.37 1.47 1.23v.42l-2.17.23c-1.49.18-2.08.82-2.08 1.86 0 1.13.76 1.72 2.06 1.72zm.29-.92c-.81 0-1.2-.33-1.2-.9 0-.52.32-.87 1.2-.96l1.89-.23v.48c0 .95-.75 1.61-1.9 1.61zm0 0"/></symbol><symbol overflow="visible" id="f0a7a752k"><path d="M2.47 2.27V-1h.06c.35.69.95 1.17 2.13 1.17 1.8 0 2.62-1.19 2.62-3.19 0-1.98-.83-3.17-2.6-3.17-1.18 0-1.8.53-2.15 1.27h-.08l-.15-1.1h-.97v8.29zm1.8-3.05C3-.78 2.44-1.75 2.44-3.02c0-1.26.56-2.21 1.83-2.21 1.34 0 1.84.71 1.84 2.21S5.6-.78 4.27-.78zm0 0"/></symbol><symbol overflow="visible" id="f0a7a752l"><path d="M6.63-5.1v-.92H3.8v-1.87h-.98l-.17 1.87H.9v.91h1.75v2.88c0 1.57.57 2.35 2.21 2.35.65 0 1.29-.12 1.79-.3l-.18-.9a3.9 3.9 0 01-1.34.22c-.97 0-1.33-.44-1.33-1.47V-5.1zm0 0"/></symbol><symbol overflow="visible" id="f0a7a752m"><path d="M6.9-2.69v-.5C6.9-5.13 5.82-6.2 4-6.2 2.17-6.2 1.06-5 1.06-2.98c0 2.06 1.08 3.15 3 3.15C5.75.17 6.52-.5 6.8-1.64l-1.08-.13c-.24.75-.7 1.07-1.64 1.07-1.11 0-1.81-.64-1.88-1.99zM4-5.33c1.14 0 1.75.61 1.8 1.88H2.22c.1-1.28.7-1.88 1.78-1.88zm0 0"/></symbol><symbol overflow="visible" id="f0a7a752n"><path d="M6.1-6.19c-1.12 0-1.9.52-2.3 1.57h-.08l-.11-1.4H1.27v.91h1.32v4.19H1.14V0H5.9v-.92H3.73v-1.75c0-1.64.7-2.46 2.2-2.46.48 0 .91.08 1.32.2l.17-1.05c-.39-.13-.83-.2-1.33-.2zm0 0"/></symbol><symbol overflow="visible" id="f0a7a752p"><path d="M1.1-8.1V0h1.18v-2.72h2.03c1.9 0 2.86-.8 2.86-2.64v-.17c0-1.81-.97-2.58-2.83-2.58zM6-5.37C6-4.1 5.48-3.6 4.1-3.6H2.29v-3.58h1.83c1.37 0 1.89.4 1.89 1.66zm0 0"/></symbol><symbol overflow="visible" id="f0a7a752q"><path d="M7.1-8.1H1.32V0h5.8v-.95H2.47v-2.72h3.87v-.9H2.47v-2.59H7.1zm0 0"/></symbol><symbol overflow="visible" id="f0a7a752r"><path d="M1.1-8.1V0h2.54c2.44 0 3.63-1.25 3.63-4.05 0-2.84-1.2-4.06-3.52-4.06zM2.29-.96v-6.2H3.7c1.55 0 2.36.74 2.36 3.1 0 2.35-.81 3.1-2.36 3.1zm0 0"/></symbol><symbol overflow="visible" id="f0a7a752s"><path d="M4.3-6.97c.5 0 .86-.28.86-.81S4.8-8.6 4.3-8.6c-.53 0-.86.28-.86.8 0 .54.33.82.86.82zm.6.95H1.82v.91h1.92v4.19H1.56V0h5.38v-.92H4.89zm0 0"/></symbol><symbol overflow="visible" id="f0a7a752t"><path d="M4.02.19c1.7 0 2.65-.72 2.65-1.88 0-1.06-.65-1.45-1.76-1.67L3.6-3.6c-.81-.16-1.03-.37-1.03-.87 0-.6.45-.88 1.4-.88 1 0 1.43.31 1.52.95l1.1-.06c-.16-1.2-.97-1.75-2.63-1.75-1.61 0-2.5.63-2.5 1.8 0 .97.53 1.47 1.81 1.72l1.25.23c.67.14 1.03.3 1.03.88 0 .62-.53.93-1.53.93-1.16 0-1.62-.32-1.7-1.04l-1.1.07C1.3-.43 2.17.2 4.02.2zm0 0"/></symbol><symbol overflow="visible" id="f0a7a752u"><path d="M4.7-8.58H1.64v.92h1.92v6.74h-2.2V0h5.47v-.92H4.7zm0 0"/></symbol><symbol overflow="visible" id="f0a7a752v"><path d="M4.1-1.03h-.08L2.1-6.02H.95L3.28 0h.49c-.4 1.14-.86 1.52-1.74 1.52-.26 0-.58-.04-.84-.1l-.11.9c.25.06.7.12 1.04.12 1.46 0 2.05-.85 2.66-2.44L7.1-6.02H6zm0 0"/></symbol></defs><use xlink:href="#f0a7a752a" x="56.92571" y="145"/><use xlink:href="#f0a7a752b" x="93.15971" y="145"/><use xlink:href="#f0a7a752c" x="124.09631" y="145"/><use xlink:href="#f0a7a752d" x="152.55971" y="145"/><use xlink:href="#f0a7a752e" x="183.49631" y="145"/><use xlink:href="#f0a7a752f" x="203.83811" y="145"/><use xlink:href="#f0a7a752g" x="232.94411" y="145"/><g fill-opacity=".33"><use xlink:href="#f0a7a752h" x="83" y="230"/><use xlink:href="#f0a7a752i" x="91.0004" y="230"/><use xlink:href="#f0a7a752j" x="99.0008" y="230"/><use xlink:href="#f0a7a752k" x="107.0012" y="230"/><use xlink:href="#f0a7a752l" x="115.0016" y="230"/><use xlink:href="#f0a7a752m" x="123.002" y="230"/><use xlink:href="#f0a7a752n" x="131.0024" y="230"/><use xlink:href="#f0a7a752o" x="139.0028" y="230"/><use xlink:href="#f0a7a752p" x="147.0032" y="230"/><use xlink:href="#f0a7a752q" x="155.0036" y="230"/><use xlink:href="#f0a7a752o" x="163.004" y="230"/><use xlink:href="#f0a7a752r" x="171.0044" y="230"/><use xlink:href="#f0a7a752s" x="179.0048" y="230"/><use xlink:href="#f0a7a752t" x="187.0052" y="230"/><use xlink:href="#f0a7a752k" x="195.0056" y="230"/><use xlink:href="#f0a7a752u" x="203.006" y="230"/><use xlink:href="#f0a7a752j" x="211.0064" y="230"/><use xlink:href="#f0a7a752v" x="219.0068" y="230"/></g></svg>