<?xml version='1.0' encoding='UTF-8'?>
<svg xmlns="http://www.w3.org/2000/svg" xmlns:xlink="http://www.w3.org/1999/xlink" width="400px" height="900px" viewBox="0 0 400 900" x="0px" y="0px" enable-background="new 0 0 400 900"><defs><symbol overflow="visible" id="cf868ef1a"><path d="M21.14 0h.8L11.72-24.97h-.61L.9 0h.76l2.96-7.34h13.54zM4.92-8l6.49-15.95h.03L17.92-8zm0 0"/></symbol><symbol overflow="visible" id="cf868ef1b"><path d="M9.38.55c4.04 0 6.3-2.61 7.09-5.61h.03L16.6 0h.59v-26.78h-.72v13h-.03c-.6-2.61-2.72-5.4-7.03-5.4-4.96 0-7.74 3.73-7.74 9.84C1.67-3.2 4.48.55 9.37.55zm0-.7c-4.46 0-6.99-3.37-6.99-9.2 0-5.8 2.53-9.15 7.02-9.15 4.06 0 7.06 2.75 7.06 9.1 0 6.07-2.78 9.26-7.1 9.26zm0 0"/></symbol><symbol overflow="visible" id="cf868ef1c"><path d="M7.17.55a7.78 7.78 0 007.6-5.25h.03l.15 4.7h.58v-12.7c0-4.43-2.28-6.49-6.12-6.49-3.7 0-5.83 1.92-7.02 5.99h.72c1.05-3.63 2.94-5.33 6.3-5.33 3.54 0 5.39 1.89 5.39 5.86 0 1.15-1.27 1.67-2.93 2.06l-4.8 1.13c-3.6.82-5.4 2.64-5.4 5.28 0 3.04 2.1 4.75 5.5 4.75zm-.1-.66c-2.95 0-4.68-1.51-4.68-4.12 0-2.29 1.4-3.8 4.84-4.6l4.79-1.12c1.8-.44 2.39-.8 2.78-1.38V-8c0 5.06-3.77 7.9-7.74 7.9zm0 0"/></symbol><symbol overflow="visible" id="cf868ef1d"><path d="M3.05 6.88h.72V-4.85h.03A6.78 6.78 0 0010.78.55c5 0 7.78-3.7 7.78-9.85 0-6.18-2.78-9.89-7.78-9.89-3.83 0-6.22 2.55-7.01 5.61h-.04l-.1-5.06h-.58zm7.73-7.02c-4.01 0-7.01-2.72-7.01-9.16 0-6.01 2.85-9.2 7.01-9.2 4.56 0 7.06 3.38 7.06 9.2 0 5.78-2.5 9.16-7.06 9.16zm0 0"/></symbol><symbol overflow="visible" id="cf868ef1e"><path d="M5.06-17.98h6.16v-.66H5.06v-4.9h-.58l-.14 4.9H.54v.66h3.8v13.67C4.34-1.3 5.7.36 8.47.36c1.08 0 2.1-.25 2.94-.61v-.66c-.96.41-1.79.61-2.94.61-2.42 0-3.4-1.37-3.4-4.01zm0 0"/></symbol><symbol overflow="visible" id="cf868ef1f"><path d="M16.86-9.23v-.43c0-5.98-2.53-9.53-7.27-9.53-5.06 0-7.92 3.6-7.92 9.85 0 6.26 2.56 9.89 7.7 9.89 3.55 0 5.58-1.43 7.13-5h-.8c-1.32 2.97-3.07 4.3-6.32 4.3-4.7 0-6.96-3.29-6.99-9.08zM9.59-18.5c4.27 0 6.47 3.19 6.55 8.63H2.4c.14-5.55 2.67-8.63 7.2-8.63zm0 0"/></symbol><symbol overflow="visible" id="cf868ef1g"><path d="M3.05 0h.72v-9.84c0-4.82 1.98-8.5 5.71-8.5.66 0 1.35.06 1.77.21v-.65A5.52 5.52 0 009.59-19c-3.04 0-5.14 2.06-5.82 5.25h-.04l-.1-4.9h-.58zm0 0"/></symbol><symbol overflow="visible" id="cf868ef1i"><path d="M.92-6.77V0h2.11c2.03 0 3.03-1.03 3.03-3.36 0-2.39-1.01-3.4-2.93-3.4zM1.91-.8v-5.17h1.18c1.29 0 1.96.63 1.96 2.61 0 1.94-.67 2.56-1.96 2.56zm0 0"/></symbol><symbol overflow="visible" id="cf868ef1j"><path d="M3.58-5.81c.42 0 .72-.22.72-.67 0-.44-.3-.68-.72-.68-.44 0-.72.24-.72.68 0 .45.28.67.72.67zm.5.8H1.52v.76h1.6v3.48h-1.8V0h4.46v-.77h-1.7zm0 0"/></symbol><symbol overflow="visible" id="cf868ef1k"><path d="M3.36.16c1.4 0 2.2-.6 2.2-1.57 0-.89-.54-1.22-1.47-1.39L3-3c-.67-.14-.86-.33-.86-.73 0-.5.4-.74 1.17-.74.83 0 1.19.27 1.27.8l.9-.05c-.12-1-.8-1.47-2.17-1.47-1.34 0-2.1.53-2.1 1.5 0 .81.45 1.22 1.52 1.44l1.04.2c.56.11.87.24.87.72 0 .52-.45.78-1.28.78-.95 0-1.36-.28-1.42-.87l-.9.06C1.07-.36 1.8.16 3.35.16zm0 0"/></symbol><symbol overflow="visible" id="cf868ef1l"><path d="M2.06 1.9V-.84h.05c.28.58.8.97 1.77.97 1.5 0 2.2-.98 2.2-2.66 0-1.65-.7-2.64-2.19-2.64-.97 0-1.5.44-1.78 1.05h-.08l-.1-.9H1.1v6.9zm1.5-2.56c-1.06 0-1.53-.8-1.53-1.86 0-1.04.47-1.84 1.53-1.84 1.11 0 1.53.61 1.53 1.84 0 1.27-.42 1.86-1.53 1.86zm0 0"/></symbol><symbol overflow="visible" id="cf868ef1m"><path d="M3.92-7.14H1.36v.76h1.6v5.61H1.15V0H5.7v-.77H3.92zm0 0"/></symbol><symbol overflow="visible" id="cf868ef1n"><path d="M2.83.14c.94 0 1.5-.39 1.81-.95h.08l.1.81h.76v-3.38c0-1.23-.69-1.8-2.13-1.8-1.43 0-2.03.65-2.18 1.6l.93.1c.11-.6.44-.93 1.22-.93.85 0 1.22.32 1.22 1.04v.34l-1.81.2C1.6-2.7 1.1-2.17 1.1-1.28c0 .92.64 1.42 1.72 1.42zm.25-.77c-.67 0-1.02-.28-1.02-.74 0-.44.28-.72 1-.82l1.58-.19v.41c0 .8-.6 1.34-1.56 1.34zm0 0"/></symbol><symbol overflow="visible" id="cf868ef1o"><path d="M3.42-.86h-.08L1.77-5.02H.8L2.73 0h.41c-.33.95-.72 1.27-1.45 1.27-.22 0-.49-.04-.69-.08l-.1.73c.2.06.58.11.87.11 1.2 0 1.7-.7 2.21-2.03l1.94-5.02H5zm0 0"/></symbol><symbol overflow="visible" id="cf868ef1p"><path d="M3.83 0v-5.95H6.2v-.82H.45v.82h2.4V0zm0 0"/></symbol><symbol overflow="visible" id="cf868ef1q"><path d="M2.16 0v-2.69c0-.98.6-1.6 1.46-1.6.74 0 1.07.4 1.07 1.2V0h.95v-3.31c0-1.17-.56-1.85-1.67-1.85-.9 0-1.44.46-1.75 1.08h-.06v-3.06H1.2V0zm0 0"/></symbol><symbol overflow="visible" id="cf868ef1r"><path d="M2.16 0v-2.67c0-.99.59-1.63 1.46-1.63.74 0 1.07.38 1.07 1.22V0h.95v-3.31c0-1.2-.56-1.85-1.67-1.85-.92 0-1.49.46-1.77 1.08h-.06l-.12-.94H1.2V0zm0 0"/></symbol><symbol overflow="visible" id="cf868ef1z"><path d="M3.83-5.97h1.73v-.8H1.1v.8h1.75v5.19H1.1V0h4.47v-.78H3.83zm0 0"/></symbol><symbol overflow="visible" id="cf868ef1A"><path d="M5.52-4.25v-.77H3.17v-1.56h-.81l-.14 1.56H.75v.77h1.47v2.4c0 1.3.48 1.94 1.84 1.94C4.6.1 5.14 0 5.55-.14L5.4-.91c-.32.13-.72.2-1.13.2-.8 0-1.1-.37-1.1-1.23v-2.31zm0 0"/></symbol><symbol overflow="visible" id="cf868ef1B"><path d="M3.34.14c1.43 0 2.13-.66 2.25-1.78l-.89-.1c-.1.7-.5 1.08-1.34 1.08-1.03 0-1.52-.64-1.52-1.84 0-1.23.47-1.86 1.52-1.86.84 0 1.23.36 1.34 1.08l.9-.1c-.13-1.09-.82-1.78-2.26-1.78-1.56 0-2.46.97-2.46 2.66 0 1.66.9 2.64 2.46 2.64zm0 0"/></symbol><symbol overflow="visible" id="cf868ef1J"><path d="M5.92-6.77H1.1V0h4.83v-.8H2.06v-2.26h3.22v-.75H2.06v-2.16h3.86zm0 0"/></symbol><symbol overflow="visible" id="cf868ef1K"><path d="M1.83 0l1.42-2h.06l1.46 2H5.8L4-2.53l1.78-2.49H4.8L3.42-3.08h-.08l-1.4-1.94H.89l1.78 2.49L.84 0zm0 0"/></symbol><symbol overflow="visible" id="cf868ef1L"><path d="M5.08-5.16c-.94 0-1.58.43-1.9 1.3h-.09l-.07-1.16H1.05v.77h1.1v3.48H.96V0h3.96v-.77H3.1v-1.46c0-1.36.6-2.05 1.83-2.05.4 0 .76.08 1.1.17l.15-.87c-.33-.11-.7-.18-1.11-.18zm0 0"/></symbol><symbol overflow="visible" id="cf868ef1M"><path d="M3.16 2.03c1.67 0 2.4-.86 2.4-2.51v-4.54h-.81l-.13.91h-.06c-.26-.58-.8-1.05-1.73-1.05-1.42 0-2.24 1-2.24 2.52 0 1.6.75 2.56 2.2 2.56.94 0 1.5-.5 1.77-1.03h.05v.72c0 1.17-.42 1.67-1.45 1.67-.93 0-1.3-.34-1.41-.89L.8.5c.12.96.87 1.54 2.36 1.54zM3.06-.8c-.98 0-1.48-.57-1.48-1.82 0-1.13.5-1.75 1.48-1.75 1.06 0 1.58.76 1.58 1.75 0 .95-.56 1.82-1.58 1.82zm0 0"/></symbol><symbol overflow="visible" id="cf868ef1ab"><path d="M2.08-6.77h-.99V0h4.79v-.81h-3.8zm0 0"/></symbol><symbol overflow="visible" id="cf868ef1aq"><path d="M4.06-2.77c1.25-.04 1.92-.7 1.92-1.96 0-1.36-.7-2.04-2.17-2.04H.92V0h.97v-2.73h1.08L4.95 0h1.1zM1.9-6h1.7c1.07 0 1.46.34 1.46 1.28 0 .9-.44 1.27-1.47 1.27H1.89zm0 0"/></symbol><symbol overflow="visible" id="cf868ef1ar"><path d="M5.75-2.23v-.43c0-1.6-.9-2.51-2.42-2.51S.87-4.16.87-2.48c0 1.71.91 2.62 2.5 2.62 1.43 0 2.07-.56 2.29-1.52l-.9-.09c-.18.61-.59.9-1.35.9-.94 0-1.52-.54-1.58-1.66zm-2.4-2.2c.93 0 1.43.5 1.48 1.55H1.84c.08-1.07.6-1.56 1.5-1.56zm0 0"/></symbol><symbol overflow="visible" id="cf868ef1as"><path d="M2.73.14c.9 0 1.43-.45 1.74-1.08h.06l.13.94h.8v-5.02h-.94v2.7c0 .98-.57 1.62-1.46 1.62-.75 0-1.1-.4-1.1-1.22v-3.1h-.93v3.32c0 1.17.55 1.84 1.7 1.84zm0 0"/></symbol><symbol overflow="visible" id="cf868ef1aH"><path d="M1.64 0v-3.17l-.16-2.5h.1L2.9-1.83h.82l1.35-3.84h.1l-.16 2.5V0h.95v-6.77h-1.3l-1.3 3.82h-.09L2-6.77H.69V0zm0 0"/></symbol><symbol overflow="visible" id="cf868ef1aI"><path d="M2.84.14C3.8.14 4.33-.26 4.6-.9h.07L4.8 0h.76v-7.14h-.95v2.95h-.08c-.28-.6-.86-.97-1.67-.97-1.48 0-2.27.99-2.27 2.64C.6-.84 1.36.14 2.84.14zm.22-.8c-.98 0-1.48-.59-1.48-1.84s.5-1.86 1.48-1.86c1.13 0 1.58.8 1.58 1.86S4.2-.66 3.06-.66zm0 0"/></symbol><symbol overflow="visible" id="cf868ef1aJ"><path d="M1.63 0v-2.9c0-.8.15-1.4.71-1.4.41 0 .55.3.55.88V0h.95v-2.9c0-.8.18-1.4.72-1.4.4 0 .57.3.57.88V0h.95v-3.63c0-.92-.28-1.53-1.11-1.53-.63 0-.95.41-1.1.9h-.06c-.1-.52-.44-.9-1.08-.9-.6 0-.93.41-1.06.9H1.6l-.23-.76H.67V0zm0 0"/></symbol><symbol overflow="visible" id="cf868ef1aY"><path d="M3.42.14c1.61 0 2.56-.75 2.56-2 0-1.1-.67-1.6-1.95-1.86l-.97-.2c-.87-.17-1.23-.49-1.23-1.11 0-.7.54-1.11 1.5-1.11 1.06 0 1.51.34 1.69 1.23l.9-.09c-.17-1.28-.98-1.9-2.6-1.9C1.79-6.9.9-6.18.9-4.98c0 1.06.66 1.66 1.88 1.9l1.01.2c.85.17 1.25.4 1.25 1.09 0 .73-.6 1.16-1.6 1.16-1.07 0-1.66-.4-1.8-1.24l-.94.1C.83-.53 1.75.13 3.42.13zm0 0"/></symbol><symbol overflow="visible" id="cf868ef1aZ"><path d="M3.9.14c1.48 0 2.18-.98 2.18-2.64 0-1.67-.7-2.66-2.17-2.66-.91 0-1.49.41-1.79 1h-.06v-2.98h-.95V0h.81l.11-.9h.06c.29.63.82 1.04 1.82 1.04zm-.32-.8c-1.08 0-1.55-.8-1.55-1.84 0-1.06.47-1.86 1.55-1.86 1.1 0 1.51.61 1.51 1.86S4.64-.66 3.58-.66zm0 0"/></symbol><symbol overflow="visible" id="cf868ef1ba"><path d="M3.33.14c1.62 0 2.5-.95 2.5-2.66 0-1.68-.88-2.64-2.5-2.64-1.63 0-2.5.96-2.5 2.64 0 1.7.87 2.66 2.5 2.66zm0-.77c-1.06 0-1.52-.6-1.52-1.89 0-1.28.46-1.87 1.52-1.87 1.08 0 1.53.6 1.53 1.87 0 1.29-.45 1.9-1.53 1.9zm0 0"/></symbol><symbol overflow="visible" id="cf868ef1bp"><path d="M4.66-3.45c.76-.14 1.15-.67 1.15-1.57 0-1.07-.64-1.75-2.18-1.75H.92V0h2.71C5.2 0 5.98-.64 5.98-1.77c0-1.03-.56-1.43-1.32-1.59zM3.56-6c.9 0 1.31.4 1.31 1.13 0 .71-.4 1.14-1.3 1.14h-1.7V-6zM1.87-.75v-2.27H3.6c.97 0 1.44.33 1.44 1.13 0 .8-.47 1.14-1.44 1.14zm0 0"/></symbol><symbol overflow="visible" id="cf868ef1bS"><path d="M5.77-5.02H4.63L2.3-2.88h-.06v-4.26h-.94V0h.94v-2.31h.06L4.71 0h1.24L3.23-2.69zm0 0"/></symbol><symbol overflow="visible" id="cf868ef1s"><path d="M19.55 0h.75l-5.53-24.97h-.61L-.72 0h.8l4.37-7.34h13.5zM4.8-8l9.49-15.95h.03L17.8-8zm0 0"/></symbol><symbol overflow="visible" id="cf868ef1t"><path d="M8.16.55c3.8 0 6.15-2.22 7.5-5.28h.03L14.92 0h.58l4.75-26.78h-.72l-2.39 13.42h-.05c-.3-2.6-1.87-5.83-6.32-5.83-4.7 0-7.96 3.38-9.08 9.64C.67-3.98 2.77.55 8.16.55zm.04-.7c-4.89 0-6.8-4.08-5.8-9.33 1.13-5.86 3.94-9.02 8.33-9.02 4.88 0 6.52 4.13 5.68 9.38-.97 6.04-4.24 8.98-8.2 8.98zm0 0"/></symbol><symbol overflow="visible" id="cf868ef1u"><path d="M6.33.55c4.06 0 6.37-2.53 7.64-5.08H14L13.31 0h.58l2.17-12.27c.77-4.37-.83-6.92-5.28-6.92-3.69 0-6 1.92-7.56 5.99h.72c1.48-3.63 3.45-5.33 6.81-5.33 3.47 0 4.84 1.51 4.84 4.37 0 2.07-.71 2.97-3.21 3.44L6.95-9.66C3.2-8.94.83-7.28.83-4.2.83-.9 3 .55 6.33.55zm-.06-.66c-2.8 0-4.7-1.19-4.7-4.05 0-2.6 1.95-4.17 5.45-4.86l5.32-1.04c1.6-.33 2.35-.61 2.9-1.16l-.55 2.86C13.72-3.22 10.29-.1 6.27-.1zm0 0"/></symbol><symbol overflow="visible" id="cf868ef1v"><path d="M.19 6.88H.9L3.08-5.29h.03C3.44-2.68 5 .55 9.45.55c4.7 0 7.96-3.38 9.08-9.63 1.02-5.58-1.1-10.1-6.48-10.1-3.8 0-6.14 2.21-7.49 5.29h-.03l.75-4.75H4.7zm9.3-7.02c-4.9 0-6.52-4.13-5.7-9.38 1-6.04 4.24-8.98 8.23-8.98 4.89 0 6.8 4.1 5.8 9.34C16.68-3.3 13.85-.14 9.47-.14zm0 0"/></symbol><symbol overflow="visible" id="cf868ef1w"><path d="M6.6-17.98h6.13l.11-.66H6.7l.87-4.9h-.58l-1.01 4.9h-3.8l-.1.66h3.79L3.55-4.68C3-1.51 3.98.37 6.88.37c.98 0 1.98-.14 2.89-.47l.07-.69c-1.01.4-1.87.5-2.93.5-2.54 0-3.11-1.57-2.64-4.37zm0 0"/></symbol><symbol overflow="visible" id="cf868ef1x"><path d="M16.84-9.23c.2-1.16.3-2.02.3-3 0-4.41-2.25-6.96-6.45-6.96-4.74 0-7.88 3.38-8.97 9.46C.67-3.93 2.66.55 8.12.55c3.85 0 5.8-1.43 7.68-5H15c-1.56 2.97-3.3 4.3-6.84 4.3-4.82 0-6.58-3.83-5.79-9.08zm-6.18-9.27c4.84 0 6.32 3.6 5.57 8.63H2.48c1.05-5.58 3.86-8.63 8.18-8.63zm0 0"/></symbol><symbol overflow="visible" id="cf868ef1y"><path d="M1.4 0h.7l1.76-9.84c.8-4.46 3.03-8.5 6.83-8.5 1.01 0 1.67.21 2.06.32l.16-.65c-.41-.11-1.13-.33-2.14-.33-3.04 0-5.04 1.88-6.2 5.06h-.02l.72-4.7h-.58zm0 0"/></symbol><symbol overflow="visible" id="cf868ef1C"><path d="M20.6 0h1.8l-10-24.97h-1.57L.8 0h1.73l2.72-6.9h12.63zM5.8-8.31l5.77-14.47h.03l5.75 14.47zm0 0"/></symbol><symbol overflow="visible" id="cf868ef1D"><path d="M9.36.55c3.81 0 5.89-2.3 6.77-4.9h.03L16.37 0h1.36v-26.78h-1.62v12.1h-.05c-.72-2.38-2.76-4.65-6.6-4.65-4.96 0-7.9 3.72-7.9 9.95 0 6.2 2.9 9.93 7.8 9.93zM9.6-.9c-4.08 0-6.4-3.05-6.4-8.52 0-5.46 2.32-8.48 6.42-8.48 3.87 0 6.5 2.73 6.5 8.42 0 5.49-2.47 8.58-6.52 8.58zm0 0"/></symbol><symbol overflow="visible" id="cf868ef1E"><path d="M7.28.53c3.92 0 6.34-2.36 7.14-4.62h.03L14.67 0h1.36v-12.72c0-4.47-2.34-6.62-6.48-6.62-3.9 0-6.1 1.93-7.27 6.1H3.9c1-3.34 2.66-4.73 5.72-4.73 3.23 0 4.83 1.72 4.83 5.06 0 1.16-.94 1.7-2.53 2.05L7.23-9.83C3.36-9 1.56-7.14 1.56-4.34 1.56-1.27 3.73.53 7.28.53zM7.41-.8C4.77-.81 3.2-2.2 3.2-4.5c0-2.03 1.29-3.4 4.35-4.08l4.32-.95c1.51-.36 2.17-.69 2.56-1.24v2.63c0 4.6-3.33 7.33-7.03 7.33zm0 0"/></symbol><symbol overflow="visible" id="cf868ef1F"><path d="M2.9 6.83h1.65V-4.11h.03C5.3-1.62 7.44.55 11.18.55c4.96 0 7.91-3.72 7.91-9.93 0-6.26-2.87-9.95-7.84-9.95a6.75 6.75 0 00-6.72 4.9h-.05l-.21-4.35H2.9zM10.96-.9C7.15-.9 4.5-3.6 4.5-9.37c0-5.44 2.56-8.52 6.45-8.52 4.18 0 6.49 3.03 6.49 8.52 0 5.45-2.32 8.48-6.49 8.48zm0 0"/></symbol><symbol overflow="visible" id="cf868ef1G"><path d="M6-17.38h5.83v-1.4H6v-4.99H4.7l-.33 4.99H.65v1.4h3.73v12.61C4.38-1.45 5.87.4 9.03.4a7.9 7.9 0 003-.58v-1.37a7.5 7.5 0 01-2.75.53C6.95-1.03 6-2.31 6-4.93zm0 0"/></symbol><symbol overflow="visible" id="cf868ef1H"><path d="M17.4-9.02v-.9c0-5.92-2.76-9.42-7.67-9.42-5.12 0-8.17 3.64-8.17 9.95 0 6.27 2.72 9.94 8.1 9.94 3.8 0 6-1.66 7.43-5.25h-1.65C14.17-2.1 12.69-.9 9.66-.9 5.42-.9 3.3-3.76 3.2-9.01zm-7.67-8.92c3.93 0 5.94 2.78 6.05 7.66H3.22c.2-4.99 2.5-7.66 6.51-7.66zm0 0"/></symbol><symbol overflow="visible" id="cf868ef1I"><path d="M2.9 0h1.65v-9.94c0-4.64 1.97-7.73 5.45-7.73.64 0 1.34.06 1.78.19V-19a6.39 6.39 0 00-1.69-.2c-2.87 0-4.78 1.8-5.56 4.68h-.05l-.21-4.26H2.9zm0 0"/></symbol><symbol overflow="visible" id="cf868ef1N"><path d="M19.03 0h1.7l-5.36-24.97h-1.56L-.88 0H.99l4.04-6.9H17.6zM5.8-8.31l8.47-14.47h.03l3.03 14.47zm0 0"/></symbol><symbol overflow="visible" id="cf868ef1O"><path d="M8.14.55c3.63 0 5.78-1.96 7.05-4.67h.03L14.69 0h1.36l4.75-26.78h-1.64l-2.22 12.5h-.03c-.47-2.4-2.16-5.05-6.11-5.05-4.72 0-8.1 3.4-9.2 9.67C.57-4 2.82.54 8.13.54zM8.48-.9C3.97-.9 2.3-4.66 3.22-9.5c1.01-5.4 3.5-8.4 7.62-8.4 4.52 0 6.05 3.8 5.27 8.67C15.19-3.7 12.25-.9 8.48-.9zm0 0"/></symbol><symbol overflow="visible" id="cf868ef1P"><path d="M6.4.53c3.79 0 5.93-2.22 7.12-4.47h.03L13.03 0h1.35l2.12-12.1c.81-4.62-.94-7.24-5.55-7.24-4.1 0-6.28 1.93-7.9 6.1h1.6c1.41-3.34 3.08-4.73 6.18-4.73 3.1 0 4.39 1.33 4.39 3.84 0 1.93-.69 2.86-2.9 3.26l-5.09.9C3.3-9.28.72-7.59.72-4.33.72-1.05 2.89.53 6.4.53zM6.6-.8c-2.57 0-4.24-1.1-4.24-3.55 0-2.33 1.73-3.75 4.98-4.34l4.7-.88c1.44-.25 2.18-.53 2.68-1.03l-.44 2.27c-.9 4.71-4.05 7.53-7.67 7.53zm0 0"/></symbol><symbol overflow="visible" id="cf868ef1Q"><path d="M.05 6.83h1.64L3.7-4.53h.05C4.2-2.11 5.91.55 9.83.55c4.78 0 8.1-3.4 9.22-9.7 1.01-5.63-1.22-10.18-6.55-10.18-3.6 0-5.77 1.95-7.05 4.66h-.04l.53-4.11H4.59zM9.8-.9c-4.53 0-6.03-3.8-5.25-8.66.9-5.53 3.83-8.34 7.6-8.34 4.54 0 6.2 3.73 5.27 8.6C16.4-3.89 13.94-.9 9.8-.9zm0 0"/></symbol><symbol overflow="visible" id="cf868ef1R"><path d="M7.42-17.38h5.78l.27-1.4h-5.8l.88-4.99H7.23l-1.2 4.99H2.28l-.23 1.4H5.8L3.67-5.18C3.07-1.73 4.16.38 7.44.38c1.03 0 2.03-.14 2.93-.44l.2-1.43c-.88.32-1.74.45-2.76.45-2.36 0-2.97-1.47-2.51-4.16zm0 0"/></symbol><symbol overflow="visible" id="cf868ef1S"><path d="M17.31-9.02c.22-1.43.32-2.25.32-3.2 0-4.4-2.3-7.12-6.68-7.12-4.9 0-8.23 3.39-9.34 9.53C.56-3.97 2.73.55 8.37.55c4.29 0 6.27-1.77 7.96-5.25h-1.67C13.25-2.05 11.69-.9 8.48-.9c-4.51 0-5.96-3.55-5.37-8.12zm-6.47-8.92c4.32 0 5.72 3.14 5.08 7.66H3.36c1-4.94 3.55-7.66 7.48-7.66zm0 0"/></symbol><symbol overflow="visible" id="cf868ef1T"><path d="M1.25 0h1.63l1.78-10c.76-4.31 2.9-7.66 6.46-7.66.93 0 1.61.2 2.04.3l.3-1.52a7.78 7.78 0 00-2.13-.32c-3 0-4.81 1.73-5.92 4.56h-.04l.55-4.14H4.58zm0 0"/></symbol><symbol overflow="visible" id="cf868ef1U"><path d="M20.05 0h2.8l-9.79-24.97h-2.51L.67 0H3.4l2.48-6.45h11.7zM6.72-8.6l5.05-13h.03l4.98 13zm0 0"/></symbol><symbol overflow="visible" id="cf868ef1V"><path d="M9.36.55a6.51 6.51 0 006.4-4.17h.04L16.14 0h2.14v-26.78h-2.53v11.23h-.05c-.86-2.18-2.8-3.92-6.18-3.92-4.97 0-8.1 3.67-8.1 10.06C1.42-3.19 4.4.55 9.36.55zm.47-2.2c-3.66 0-5.81-2.7-5.81-7.82 0-5.14 2.15-7.83 5.82-7.83 3.7 0 5.96 2.74 5.96 7.78 0 4.91-2.18 7.88-5.97 7.88zm0 0"/></symbol><symbol overflow="visible" id="cf868ef1W"><path d="M7.4.53c3.66 0 5.87-2 6.7-4.03h.03L14.4 0h2.14v-12.75c0-4.53-2.46-6.73-6.85-6.73-4.1 0-6.39 1.93-7.54 6.25h2.5c.95-3.11 2.37-4.2 5.17-4.2 2.89 0 4.25 1.59 4.25 4.29 0 1.16-.61 1.7-2.14 2.05l-4.52.93c-4.19.85-6 2.7-6 5.7 0 3.07 2.25 5 5.99 5zm.37-2.03c-2.38 0-3.75-1.27-3.75-3.28 0-1.78 1.17-2.97 3.87-3.53l3.83-.81c1.25-.27 1.97-.57 2.36-1.07v1.9c0 4.1-2.88 6.79-6.31 6.79zm0 0"/></symbol><symbol overflow="visible" id="cf868ef1X"><path d="M2.77 6.77H5.3V-3.4h.04C6.22-1.14 8.22.55 11.54.55c4.96 0 8.05-3.72 8.05-10.02 0-6.3-2.92-10-7.89-10-3.54 0-5.5 1.94-6.42 4.16h-.03l-.34-3.61H2.77zm8.36-8.41c-3.58 0-5.86-2.72-5.86-7.83 0-4.84 2.2-7.83 5.86-7.83 3.78 0 5.9 2.72 5.9 7.83 0 5.13-2.12 7.83-5.9 7.83zm0 0"/></symbol><symbol overflow="visible" id="cf868ef1Y"><path d="M6.95-16.78h5.52v-2.14H6.95v-5.05H4.92l-.5 5.05H.72v2.14h3.7v11.56C4.42-1.58 6.05.44 9.55.44c1.22 0 2.22-.24 3.1-.56v-2.1c-.76.25-1.57.42-2.57.42-2.22 0-3.13-1.18-3.13-3.72zm0 0"/></symbol><symbol overflow="visible" id="cf868ef1Z"><path d="M17.9-8.78v-1.38c0-5.9-2.95-9.32-8.02-9.32-5.18 0-8.46 3.65-8.46 10.03 0 6.28 2.92 10 8.55 10 4.03 0 6.37-1.9 7.7-5.52h-2.51c-1.2 2.27-2.44 3.33-5.22 3.33-3.75 0-5.75-2.45-5.92-7.14zM9.87-17.4c3.56 0 5.39 2.37 5.54 6.72H4.03c.3-4.46 2.36-6.72 5.84-6.72zm0 0"/></symbol><symbol overflow="visible" id="cf868ef1aa"><path d="M2.77 0H5.3v-10.03c0-4.5 1.98-6.99 5.22-6.99.6 0 1.34.08 1.8.2v-2.4c-.5-.12-1-.2-1.71-.2-2.72 0-4.42 1.53-5.33 4.15h-.03l-.34-3.65H2.77zm0 0"/></symbol><symbol overflow="visible" id="cf868ef1ac"><path d="M18.53 0h2.66l-5.2-24.97h-2.5L-1 0h2.88l3.71-6.44h11.66zM6.78-8.6l7.44-13h.05l2.57 13zm0 0"/></symbol><symbol overflow="visible" id="cf868ef1ad"><path d="M8.1.55c3.45 0 5.4-1.72 6.62-4.05h.03L14.44 0h2.14l4.73-26.78h-2.53l-2.06 11.6h-.03c-.6-2.18-2.42-4.29-5.86-4.29-4.75 0-8.24 3.4-9.35 9.72C.47-4.03 2.86.55 8.11.55zm.68-2.2c-4.19 0-5.6-3.4-4.76-7.85.92-5 3.04-7.8 6.93-7.8 4.16 0 5.55 3.46 4.83 7.94-.86 5.02-3.45 7.72-7 7.72zm0 0"/></symbol><symbol overflow="visible" id="cf868ef1ae"><path d="M6.52.53a7.1 7.1 0 006.56-3.89h.04L12.73 0h2.14l2.1-11.9c.86-4.88-1.08-7.58-5.86-7.58-4.47 0-6.55 1.93-8.23 6.25h2.5c1.34-3.11 2.73-4.2 5.51-4.2 2.72 0 3.95 1.15 3.95 3.34 0 1.8-.62 2.73-2.57 3.03l-4.7.78C3.43-9.61.63-7.91.63-4.45.64-1.17 2.81.53 6.52.53zm.43-2.03c-2.33 0-3.76-.98-3.76-3.08 0-2.06 1.5-3.31 4.48-3.8l4.13-.68c1.25-.22 1.98-.52 2.39-.9l-.31 1.65c-.82 4.3-3.68 6.81-6.93 6.81zm0 0"/></symbol><symbol overflow="visible" id="cf868ef1af"><path d="M-.1 6.77h2.54L4.33-3.75h.03A5.72 5.72 0 0010.2.55c4.83 0 8.25-3.42 9.35-9.72 1.01-5.74-1.36-10.3-6.61-10.3-3.44 0-5.4 1.7-6.61 4.03H6.3l.3-3.48H4.44zm10.2-8.41c-4.16 0-5.57-3.44-4.83-7.95.84-4.99 3.45-7.7 7-7.7 4.18 0 5.57 3.41 4.75 7.87-.91 4.97-3.05 7.78-6.93 7.78zm0 0"/></symbol><symbol overflow="visible" id="cf868ef1ag"><path d="M8.27-16.78h5.43l.36-2.14H8.62l.91-5.05H7.52l-1.44 5.05H2.4L2-16.78h3.7L3.8-5.73C3.13-1.93 4.34.44 7.98.44 9.06.44 10.06.3 10.97 0l.37-2.17c-.8.25-1.65.37-2.62.37-2.19 0-2.85-1.3-2.4-3.93zm0 0"/></symbol><symbol overflow="visible" id="cf868ef1ah"><path d="M17.78-8.78c.27-1.74.33-2.49.33-3.44 0-4.4-2.34-7.26-6.92-7.26-5.05 0-8.56 3.39-9.69 9.62C.44-4 2.81.54 8.63.54c4.71 0 6.73-2.12 8.2-5.5H14.3c-1.26 2.37-2.64 3.32-5.5 3.32-4.25 0-5.36-3.3-4.94-7.14zm-6.76-8.61c3.8 0 5.1 2.67 4.59 6.72H4.23c.96-4.31 3.25-6.72 6.79-6.72zm0 0"/></symbol><symbol overflow="visible" id="cf868ef1ai"><path d="M1.1 0h2.54l1.81-10.19c.74-4.15 2.78-6.78 6.11-6.78.83 0 1.53.17 1.99.28l.43-2.36a6.41 6.41 0 00-2.12-.37c-2.95 0-4.58 1.64-5.61 4.1H6.2l.36-3.6H4.44zm0 0"/></symbol><symbol overflow="visible" id="cf868ef1aj"><path d="M19.72 0h3.42l-9.67-24.97h-3.1L.62 0h3.3l2.34-6.2h11.16zM7.23-8.8l4.64-12.1h.04l4.54 12.1zm0 0"/></symbol><symbol overflow="visible" id="cf868ef1ak"><path d="M9.34.55c3.41 0 5.24-1.8 6.22-3.74h.03L16 0h2.6v-26.78h-3.07v10.69h-.05c-.95-2.04-2.86-3.47-5.93-3.47-4.97 0-8.18 3.67-8.18 10.14 0 6.23 3 9.97 7.97 9.97zm.63-2.63c-3.44 0-5.47-2.54-5.47-7.44s2.03-7.42 5.47-7.42c3.58 0 5.6 2.72 5.6 7.4 0 4.52-1.95 7.46-5.6 7.46zm0 0"/></symbol><symbol overflow="visible" id="cf868ef1al"><path d="M7.45.5c3.5 0 5.58-1.73 6.42-3.6h.05l.31 3.1h2.61v-12.75c0-4.56-2.46-6.84-7.04-6.84-4.27 0-6.57 1.95-7.7 6.34h3.02c.93-2.92 2.22-3.83 4.82-3.83 2.73 0 3.92 1.47 3.92 3.8 0 1.15-.42 1.72-1.9 2.03l-4.43.88c-4.34.84-6.16 2.73-6.16 5.8C1.38-1.44 3.67.5 7.46.5zm.52-2.44c-2.2 0-3.47-1.15-3.47-3 0-1.62 1.13-2.72 3.6-3.22l3.54-.7c1.06-.25 1.83-.52 2.22-1v1.48c0 3.83-2.63 6.44-5.9 6.44zm0 0"/></symbol><symbol overflow="visible" id="cf868ef1am"><path d="M2.7 6.73h3.07v-9.67h.04C6.77-.88 8.7.55 11.77.55c4.95 0 8.15-3.74 8.15-10.05 0-6.34-3-10.06-7.92-10.06-3.45 0-5.28 1.78-6.27 3.73H5.7l-.4-3.19H2.7zm8.52-8.8C7.77-2.08 5.7-4.8 5.7-9.5c0-4.53 2.05-7.44 5.52-7.44 3.56 0 5.58 2.52 5.58 7.44 0 4.9-2.02 7.42-5.58 7.42zm0 0"/></symbol><symbol overflow="visible" id="cf868ef1an"><path d="M7.52-16.4h5.3v-2.62h-5.3v-5.1H5.05l-.61 5.1H.78v2.63h3.66v10.9C4.44-1.66 6.16.46 9.87.46c1.27 0 2.26-.22 3.15-.53V-2.6c-.7.19-1.5.4-2.47.4-2.16 0-3.03-1.15-3.03-3.7zm0 0"/></symbol><symbol overflow="visible" id="cf868ef1ao"><path d="M18.22-8.66v-1.65c0-5.88-3.1-9.28-8.25-9.28-5.2 0-8.6 3.7-8.6 10.1 0 6.29 3 10.04 8.77 10.04 4.19 0 6.64-2.03 7.9-5.67H15c-1.16 2.04-2.25 3.04-4.9 3.04-3.46 0-5.38-2.2-5.6-6.58zm-8.25-8.39c3.37 0 5.06 2.13 5.23 6.14H4.55c.3-4.12 2.22-6.14 5.42-6.14zm0 0"/></symbol><symbol overflow="visible" id="cf868ef1ap"><path d="M2.7 0h3.07v-10.08c0-4.39 1.96-6.53 5.07-6.53.6 0 1.33.06 1.79.17v-2.9a7.49 7.49 0 00-1.72-.2c-2.63 0-4.2 1.37-5.18 3.82H5.7l-.4-3.3H2.7zm0 0"/></symbol><symbol overflow="visible" id="cf868ef1at"><path d="M18.22 0h3.22l-5.08-24.97h-3.1L-1.07 0h3.5l3.5-6.17h11.13zM7.36-8.8l6.84-12.1h.03l2.35 12.1zm0 0"/></symbol><symbol overflow="visible" id="cf868ef1au"><path d="M8.08.55a6.69 6.69 0 006.34-3.67h.03L14.3 0h2.6l4.74-26.78h-3.08l-1.98 11.03h-.03c-.68-2.03-2.6-3.81-5.7-3.81-4.79 0-8.33 3.42-9.43 9.73C.42-4.03 2.86.55 8.08.55zm.86-2.63c-3.99 0-5.2-3.22-4.44-7.44.86-4.7 2.78-7.42 6.5-7.42 3.95 0 5.28 3.24 4.56 7.53-.8 4.7-3.2 7.33-6.62 7.33zm0 0"/></symbol><symbol overflow="visible" id="cf868ef1av"><path d="M6.56.5a6.79 6.79 0 006.27-3.52h.03L12.56 0h2.6l2.09-11.8c.88-5.03-1.14-7.8-6.05-7.8-4.68 0-6.72 1.96-8.42 6.35h3.03c1.3-2.92 2.52-3.83 5.11-3.83 2.52 0 3.69 1.02 3.69 2.99 0 1.73-.58 2.67-2.38 2.95l-4.48.69C3.52-9.83.58-8.11.58-4.53.58-1.27 2.75.5 6.56.5zm.58-2.44c-2.17 0-3.47-.9-3.47-2.75 0-1.9 1.38-3.08 4.22-3.51l3.75-.58c1.16-.16 1.88-.45 2.25-.83l-.25 1.3c-.78 4.06-3.44 6.37-6.5 6.37zm0 0"/></symbol><symbol overflow="visible" id="cf868ef1aw"><path d="M-.19 6.73H2.9L4.7-3.3h.03C5.39-1.23 7.32.55 10.44.55c4.86 0 8.31-3.42 9.4-9.75 1.02-5.78-1.43-10.36-6.65-10.36a6.7 6.7 0 00-6.35 3.65H6.8l.18-3.1h-2.6zm10.46-8.8C6.3-2.08 5-5.35 5.7-9.62c.8-4.69 3.2-7.33 6.63-7.33 3.97 0 5.22 3.2 4.45 7.42-.87 4.72-2.78 7.44-6.51 7.44zm0 0"/></symbol><symbol overflow="visible" id="cf868ef1ax"><path d="M8.77-16.4h5.2l.47-2.62h-5.2l.87-5.1H7.66l-1.55 5.1H2.47l-.45 2.63h3.64L3.87-6.05c-.68 4 .58 6.5 4.46 6.5 1.12 0 2.1-.14 3-.42l.45-2.62c-.75.21-1.58.37-2.51.37-2.1 0-2.75-1.25-2.32-3.83zm0 0"/></symbol><symbol overflow="visible" id="cf868ef1ay"><path d="M18.06-8.66c.27-1.9.36-2.64.36-3.54 0-4.4-2.39-7.4-7.1-7.4-5.15 0-8.73 3.43-9.87 9.68C.35-4 2.85.55 8.8.55c4.93 0 6.98-2.32 8.34-5.67H14.1C12.94-2.94 11.67-2.08 9-2.08c-4.08 0-4.97-3.14-4.67-6.58zm-6.95-8.39c3.5 0 4.73 2.4 4.31 6.14H4.77c.92-3.93 3.06-6.14 6.34-6.14zm0 0"/></symbol><symbol overflow="visible" id="cf868ef1az"><path d="M1 0h3.08L5.9-10.28c.73-4.06 2.7-6.28 5.89-6.28.78 0 1.51.17 1.97.28l.54-2.9a7.55 7.55 0 00-2.14-.35c-2.92 0-4.44 1.53-5.42 3.76h-.03l.25-3.25H4.36zm0 0"/></symbol><symbol overflow="visible" id="cf868ef1aA"><path d="M19.4 0h4.02l-9.56-24.97H10.2L.55 0h3.87l2.2-5.94h10.61zM7.77-8.97l4.2-11.22h.04L16.1-8.97zm0 0"/></symbol><symbol overflow="visible" id="cf868ef1aB"><path d="M9.34.55c3.25 0 4.99-1.6 6-3.3h.04L15.84 0h3.08v-26.78h-3.6v10.17h-.05c-1.05-1.92-2.9-3.05-5.68-3.05-5 0-8.3 3.66-8.3 10.2 0 6.27 3.05 10 8.05 10zm.75-3.08C6.91-2.53 5-4.9 5-9.55c0-4.72 1.9-7.03 5.1-7.03 3.48 0 5.28 2.72 5.28 6.99 0 4.2-1.77 7.06-5.29 7.06zm0 0"/></symbol><symbol overflow="visible" id="cf868ef1aC"><path d="M7.53.5c3.33 0 5.28-1.52 6.16-3.25h.03L14.08 0h3.08v-12.78c0-4.6-2.54-6.9-7.29-6.9-4.37 0-6.71 1.95-7.84 6.43h3.55c.9-2.78 2.06-3.5 4.48-3.5 2.53 0 3.58 1.38 3.58 3.33 0 1.15-.22 1.73-1.66 2.01l-4.34.85C3.11-9.73 1.3-7.81 1.3-4.62 1.3-1.52 3.63.5 7.53.5zm.64-2.86C6.16-2.36 5-3.44 5-5.1 5-6.59 6.05-7.56 8.28-8l3.27-.6c.9-.2 1.7-.45 2.1-.92v1.05c0 3.55-2.35 6.11-5.48 6.11zm0 0"/></symbol><symbol overflow="visible" id="cf868ef1aD"><path d="M2.6 6.69h3.62V-2.5h.05C7.3-.58 9.16.55 11.98.55c4.96 0 8.25-3.74 8.25-10.1 0-6.37-3.04-10.1-7.96-10.1-3.36 0-5.07 1.59-6.08 3.3h-.03l-.47-2.76H2.6zm8.73-9.22C8-2.53 6.16-5.25 6.16-9.55c0-4.17 1.84-7.03 5.17-7.03s5.22 2.31 5.22 7.03c0 4.7-1.9 7.02-5.22 7.02zm0 0"/></symbol><symbol overflow="visible" id="cf868ef1aE"><path d="M8.08-16.03h5.12v-3.08H8.08v-5.14h-2.9l-.73 5.14H.83v3.08h3.62v10.28C4.45-1.73 6.27.47 10.2.47c1.32 0 2.28-.22 3.2-.5V-3c-.67.14-1.46.33-2.37.33-2.1 0-2.95-1.1-2.95-3.6zm0 0"/></symbol><symbol overflow="visible" id="cf868ef1aF"><path d="M18.53-8.5v-1.95c0-5.88-3.22-9.24-8.47-9.24S1.3-15.95 1.3-9.52C1.3-3.22 4.42.55 10.3.55c4.35 0 6.88-2.17 8.08-5.83h-3.55c-1.12 1.84-2.06 2.75-4.56 2.75C7.1-2.53 5.25-4.48 5-8.5zm-8.47-8.22c3.14 0 4.74 1.88 4.92 5.58H5.03c.36-3.81 2.14-5.58 5.03-5.58zm0 0"/></symbol><symbol overflow="visible" id="cf868ef1aG"><path d="M2.6 0h3.62v-10.14c0-4.3 1.95-6.08 4.92-6.08.58 0 1.34.08 1.81.19v-3.44c-.5-.1-1.01-.19-1.73-.19-2.53 0-3.99 1.2-5.03 3.49h-.03l-.47-2.94H2.6zm0 0"/></symbol><symbol overflow="visible" id="cf868ef1aK"><path d="M17.92 0h3.8l-5-24.97h-3.66L-1.16 0h4.13l3.3-5.9h10.56zM7.97-8.97l6.22-11.22h.03l2.06 11.22zm0 0"/></symbol><symbol overflow="visible" id="cf868ef1aL"><path d="M8.05.55c3.22 0 4.92-1.43 6.07-3.3h.05L14.13 0h3.07l4.75-26.78h-3.62l-1.88 10.5h-.04c-.75-1.92-2.75-3.38-5.57-3.38-4.78 0-8.4 3.44-9.48 9.79C.34-4.05 2.87.54 8.05.54zM9.1-2.53c-3.77 0-4.86-3-4.14-6.99.8-4.45 2.5-7.06 6.1-7.06 3.71 0 4.98 3.05 4.29 7.1-.75 4.37-2.97 6.95-6.25 6.95zm0 0"/></symbol><symbol overflow="visible" id="cf868ef1aM"><path d="M6.64.5a6.5 6.5 0 005.94-3.17h.03L12.39 0h3.08l2.06-11.69c.9-5.17-1.23-8-6.22-8-4.92 0-6.87 1.96-8.6 6.44h3.54c1.27-2.78 2.31-3.5 4.73-3.5 2.29 0 3.41.9 3.41 2.67 0 1.67-.55 2.61-2.17 2.83l-4.28.6c-4.35.62-7.4 2.37-7.4 6.06C.53-1.34 2.7.5 6.63.5zm.72-2.86c-2.02 0-3.17-.83-3.17-2.45 0-1.74 1.22-2.83 3.9-3.19l3.4-.47c1.06-.14 1.78-.44 2.1-.76l-.18.95c-.72 3.8-3.22 5.92-6.05 5.92zm0 0"/></symbol><symbol overflow="visible" id="cf868ef1aN"><path d="M-.27 6.69h3.61l1.7-9.52h.04C5.84-.9 7.83.55 10.66.55c4.89 0 8.39-3.44 9.48-9.78 1.02-5.83-1.52-10.43-6.7-10.43-3.22 0-4.92 1.43-6.08 3.3h-.03l.03-2.75H4.28zm10.7-9.22c-3.71 0-4.98-3.05-4.29-7.1.75-4.37 2.97-6.95 6.25-6.95 3.77 0 4.86 3 4.13 6.99-.8 4.45-2.49 7.06-6.08 7.06zm0 0"/></symbol><symbol overflow="visible" id="cf868ef1aO"><path d="M9.27-16.03h5l.53-3.08H9.8l.9-5.14h-2.9l-1.65 5.14H2.53l-.55 3.08h3.63L3.94-6.37C3.22-2.17 4.56.46 8.66.46c1.15 0 2.12-.14 3.03-.4L12.23-3c-.68.17-1.51.33-2.42.33-2 0-2.69-1.17-2.25-3.7zm0 0"/></symbol><symbol overflow="visible" id="cf868ef1aP"><path d="M18.34-8.5c.3-2.1.36-2.8.36-3.7 0-4.4-2.42-7.49-7.23-7.49-5.25 0-8.94 3.44-10.1 9.74C.3-4.02 2.9.55 8.95.55c5.22 0 7.28-2.53 8.5-5.83h-3.55c-1.08 2.03-2.23 2.75-4.7 2.75-3.9 0-4.6-2.97-4.4-5.97zm-7.12-8.22c3.19 0 4.37 2.14 4.01 5.58H5.28c.9-3.55 2.9-5.58 5.94-5.58zm0 0"/></symbol><symbol overflow="visible" id="cf868ef1aQ"><path d="M.9 0h3.63l1.84-10.4c.72-3.97 2.65-5.74 5.68-5.74.73 0 1.48.14 1.95.25l.63-3.4a7.16 7.16 0 00-2.15-.37c-2.89 0-4.3 1.46-5.25 3.49H7.2l.14-2.94H4.27zm0 0"/></symbol><symbol overflow="visible" id="cf868ef1aR"><path d="M19.31 0h4.96l-9.5-24.97h-4.72L.45 0h4.7l1.97-5.4H17.4zM8.44-9.02l3.89-10.64h.03l3.77 10.64zm0 0"/></symbol><symbol overflow="visible" id="cf868ef1aS"><path d="M9.02.55a6.2 6.2 0 005.87-3.4h.03L15.44 0h3.9v-26.78h-4.53v10.16h-.03c-1.01-1.9-2.76-3.08-5.58-3.08-4.92 0-8.07 3.7-8.07 10.2C1.13-3.23 4.08.55 9.02.55zm1.21-3.7c-2.84 0-4.51-2.13-4.51-6.43 0-4.31 1.67-6.44 4.51-6.44 3.08 0 4.66 2.43 4.66 6.41 0 3.92-1.53 6.45-4.66 6.45zm0 0"/></symbol><symbol overflow="visible" id="cf868ef1aT"><path d="M7.33.5c3.31 0 5.22-1.44 6.1-3.23h.04l.4 2.73h3.86v-12.7c0-4.72-2.62-7.07-7.65-7.07-4.77 0-7.11 2-8.25 6.63h4.36c.83-2.5 1.83-3.16 3.98-3.16 2.24 0 3.17 1.2 3.17 2.93 0 1.09-.26 1.62-1.54 1.89l-4.35.76c-4.54.8-6.39 2.74-6.39 5.94C1.06-1.52 3.42.5 7.33.5zM8.5-2.81c-1.81 0-2.86-.96-2.86-2.46 0-1.34.92-2.18 2.95-2.6l2.68-.5a4.4 4.4 0 002.07-.88v1.05c0 3.17-2.03 5.39-4.84 5.39zm0 0"/></symbol><symbol overflow="visible" id="cf868ef1aU"><path d="M2.31 6.69h4.53v-9.22h.04C7.88-.64 9.63.55 12.5.55c4.83 0 8.02-3.77 8.02-10.13 0-6.34-2.94-10.12-7.8-10.12-3.36 0-4.99 1.62-5.95 3.37h-.04l-.51-2.83h-3.9zm9.02-9.85c-2.97 0-4.56-2.42-4.56-6.43 0-3.9 1.59-6.43 4.56-6.43 2.97 0 4.6 2.13 4.6 6.43 0 4.32-1.63 6.43-4.6 6.43zm0 0"/></symbol><symbol overflow="visible" id="cf868ef1aV"><path d="M8.56-15.5h4.86v-3.66H8.56v-5.18H4.9l-.8 5.18H.66v3.66h3.43v9.66C4.1-1.75 5.95.48 10.17.48c1.4 0 2.46-.23 3.4-.51v-3.55c-.63.13-1.37.28-2.2.28-1.98 0-2.8-.97-2.8-3.33zm0 0"/></symbol><symbol overflow="visible" id="cf868ef1aW"><path d="M18.97-8.31v-2.06c0-5.97-3.33-9.4-8.78-9.4-5.47 0-9.06 3.75-9.06 10.22 0 6.33 3.23 10.1 9.26 10.1 4.69 0 7.19-2.13 8.42-6.03H14.5c-.98 1.67-1.81 2.5-4.1 2.5-2.82 0-4.45-1.7-4.71-5.33zM10.2-16.3c2.77 0 4.2 1.64 4.4 4.97H5.73c.36-3.44 1.92-4.97 4.48-4.97zm0 0"/></symbol><symbol overflow="visible" id="cf868ef1aX"><path d="M2.31 0h4.53v-9.63c0-4.21 1.9-5.84 4.82-5.84.56 0 1.28.05 1.76.16v-4.19c-.5-.1-1.01-.19-1.7-.19-2.6 0-3.97 1.3-4.94 3.77h-.03l-.53-3.24h-3.9zm0 0"/></symbol><symbol overflow="visible" id="cf868ef1bb"><path d="M17.88 0h4.68l-4.95-24.97h-4.72L-1.25 0h5l2.97-5.4h10.22zm-9.2-9.02l5.77-10.64h.05l1.86 10.64zm0 0"/></symbol><symbol overflow="visible" id="cf868ef1bc"><path d="M7.67.55c3.2 0 4.9-1.47 6.03-3.4h.03L13.72 0h3.9l4.74-26.78h-4.52l-1.89 10.4h-.03c-.73-1.9-2.58-3.32-5.42-3.32-4.77 0-8.28 3.54-9.34 9.87C.19-4.02 2.53.55 7.67.55zm1.64-3.7c-3.39 0-4.26-2.79-3.6-6.4.74-4.14 2.26-6.47 5.42-6.47 3.34 0 4.37 2.75 3.74 6.49-.71 4.06-2.64 6.37-5.56 6.37zm0 0"/></symbol><symbol overflow="visible" id="cf868ef1bd"><path d="M6.28.5c3.27 0 4.92-1.42 6-3.14h.05L12.16 0h3.89l2.01-11.45c.96-5.4-1.14-8.32-6.58-8.32-5.18 0-7.28 2-9 6.63h4.36c1.14-2.45 2.05-3.16 4.22-3.16 2.02 0 3 .83 3 2.38 0 1.51-.51 2.34-2.03 2.54l-4.23.61C3.34-10.1.3-8.39.3-4.55.3-1.35 2.42.5 6.28.5zm1.4-3.34c-1.8 0-2.8-.74-2.8-2.2 0-1.57 1.09-2.5 3.46-2.85l2.77-.4a4.72 4.72 0 002.16-.74l-.2.95c-.62 3.36-2.8 5.24-5.38 5.24zm0 0"/></symbol><symbol overflow="visible" id="cf868ef1be"><path d="M-.58 6.69h4.52l1.7-9.47h.05C6.39-.9 8.29.55 11.14.55c4.78 0 8.22-3.53 9.31-9.86 1.05-5.94-1.45-10.4-6.5-10.4a6.38 6.38 0 00-6.03 3.38H7.9l.02-2.83H4zM10.5-3.16c-3.36 0-4.4-2.75-3.75-6.46.7-4.08 2.63-6.4 5.56-6.4 3.38 0 4.25 2.79 3.6 6.41-.75 4.13-2.25 6.45-5.41 6.45zm0 0"/></symbol><symbol overflow="visible" id="cf868ef1bf"><path d="M9.64-15.5h4.77l.65-3.66h-4.78l.9-5.18H7.53l-1.75 5.18H2.36L1.7-15.5h3.44L3.63-6.73C2.83-2.27 4.19.48 8.57.48c1.3 0 2.33-.15 3.3-.43l.62-3.63c-.64.16-1.42.28-2.27.28-1.87 0-2.54-1.06-2.12-3.48zm0 0"/></symbol><symbol overflow="visible" id="cf868ef1bg"><path d="M18.73-8.31c.32-2.11.41-2.86.41-3.75 0-4.55-2.53-7.7-7.58-7.7-5.51 0-9.2 3.5-10.37 9.82C.09-3.88 2.89.55 9.08.55c5.26 0 7.6-2.42 8.9-6.03h-4.32c-.97 1.8-1.99 2.5-4.27 2.5-3.42 0-4.1-2.6-3.97-5.33zM11.3-16.3c2.82 0 3.89 1.9 3.6 4.97H5.97c.85-3.2 2.6-4.97 5.32-4.97zm0 0"/></symbol><symbol overflow="visible" id="cf868ef1bh"><path d="M.6 0h4.53l1.75-9.84c.68-3.8 2.5-5.58 5.53-5.58.68 0 1.45.15 1.93.26l.77-4.18a6.8 6.8 0 00-2.16-.36c-2.8 0-4.17 1.4-5.12 3.68H7.8l.1-3.14H3.97zm0 0"/></symbol><symbol overflow="visible" id="cf868ef1bi"><path d="M19.23 0h5.91l-9.47-24.97H9.9L.37 0h5.5l1.75-4.9h9.91zM9.08-9.06l3.6-10.03h.02l3.46 10.03zm0 0"/></symbol><symbol overflow="visible" id="cf868ef1bj"><path d="M8.69.55c3.2 0 4.83-1.68 5.73-3.5h.03L15.02 0h4.71v-26.78h-5.42v10.14h-.03c-.94-1.86-2.62-3.13-5.45-3.13-4.85 0-7.9 3.75-7.9 10.24C.94-3.28 3.8.55 8.7.55zm1.69-4.32c-2.52 0-3.93-1.93-3.93-5.84 0-3.92 1.4-5.84 3.92-5.84 2.7 0 4.02 2.14 4.02 5.82 0 3.66-1.3 5.86-4.02 5.86zm0 0"/></symbol><symbol overflow="visible" id="cf868ef1bk"><path d="M7.13.5c3.3 0 5.12-1.4 6.04-3.2h.03L13.7 0h4.62v-12.63c0-4.85-2.72-7.2-8.01-7.2-5.14 0-7.52 2-8.7 6.81h5.2c.76-2.2 1.6-2.8 3.5-2.8 1.92 0 2.73 1.04 2.73 2.5 0 1-.28 1.54-1.39 1.74l-4.34.74C2.7-10.1.84-8.13.84-4.91.84-1.5 3.22.5 7.13.5zm1.7-3.78c-1.6 0-2.53-.8-2.53-2.14 0-1.2.8-1.92 2.6-2.31l2.08-.43a5.15 5.15 0 002.05-.8v1.05c0 2.75-1.69 4.63-4.2 4.63zm0 0"/></symbol><symbol overflow="visible" id="cf868ef1bl"><path d="M2.02 6.69h5.42V-2.6h.03C8.47-.67 10.1.55 13.02.55c4.71 0 7.8-3.8 7.8-10.16 0-6.33-2.87-10.16-7.65-10.16-3.36 0-4.94 1.68-5.83 3.5h-.03l-.56-2.95H2.02zm9.3-10.46c-2.62 0-3.96-2.14-3.96-5.86 0-3.64 1.34-5.82 3.97-5.82 2.6 0 3.98 1.9 3.98 5.82 0 3.94-1.37 5.86-3.98 5.86zm0 0"/></symbol><symbol overflow="visible" id="cf868ef1bm"><path d="M9.06-15h4.6v-4.22h-4.6v-5.19H4.58l-.88 5.2H.45V-15H3.7v9.05C3.7-1.8 5.64.5 10.1.5c1.5 0 2.68-.25 3.65-.55v-4.14c-.6.16-1.3.3-2.05.3-1.84 0-2.64-.88-2.64-3.08zm0 0"/></symbol><symbol overflow="visible" id="cf868ef1bn"><path d="M19.4-8.1v-2.17c0-6.09-3.46-9.56-9.09-9.56-5.69 0-9.37 3.78-9.37 10.24C.94-3.2 4.33.55 10.44.55c5.04 0 7.53-2.08 8.81-6.25h-5.08c-.86 1.48-1.56 2.26-3.64 2.26-2.45 0-3.89-1.45-4.19-4.67zm-9.07-7.8c2.42 0 3.67 1.45 3.87 4.37H6.4c.35-3.03 1.72-4.36 3.93-4.36zm0 0"/></symbol><symbol overflow="visible" id="cf868ef1bo"><path d="M2.02 0h5.42v-9.14c0-4.11 1.87-5.6 4.7-5.6.58 0 1.23.07 1.75.18v-5c-.48-.11-.98-.17-1.67-.17-2.69 0-3.99 1.42-4.83 4.04h-.05l-.59-3.53H2.02zm0 0"/></symbol><symbol overflow="visible" id="cf868ef1bq"><path d="M17.84 0h5.6L18.5-24.97h-5.78L-1.33 0h5.86l2.64-4.9h9.88zM9.36-9.06l5.37-10.03h.04L16.4-9.06zm0 0"/></symbol><symbol overflow="visible" id="cf868ef1br"><path d="M7.3.55c3.2 0 4.87-1.53 5.95-3.5h.03V0h4.74l4.75-26.78h-5.44l-1.85 10.31h-.03c-.73-1.87-2.43-3.3-5.3-3.3-4.76 0-8.13 3.66-9.17 9.97C0-3.97 2.18.55 7.3.55zm2.23-4.32c-3.03 0-3.67-2.57-3.1-5.84.7-3.78 2.02-5.84 4.77-5.84 2.96 0 3.77 2.45 3.18 5.87-.68 3.75-2.32 5.81-4.85 5.81zm0 0"/></symbol><symbol overflow="visible" id="cf868ef1bs"><path d="M5.92.5C9.28.5 10.88-.83 12-2.6h.03l-.1 2.6h4.68l2-11.23c.97-5.6-1.08-8.6-6.94-8.6-5.45 0-7.73 2-9.42 6.81h5.19c1.01-2.17 1.76-2.8 3.7-2.8 1.77 0 2.58.73 2.58 2.05 0 1.33-.44 2.07-1.86 2.25l-4.2.63C3.08-10.22.05-8.52.05-4.5.05-1.33 2.15.5 5.92.5zM8-3.33c-1.58 0-2.44-.67-2.44-1.92 0-1.4.97-2.19 3.05-2.53l2.14-.33c.94-.16 1.72-.39 2.17-.7l-.19.95C12.2-4.96 10.34-3.33 8-3.33zm0 0"/></symbol><symbol overflow="visible" id="cf868ef1bt"><path d="M-.9 6.69h5.45l1.67-9.44h.05c.68 1.9 2.45 3.3 5.37 3.3 4.66 0 8.03-3.64 9.13-9.97 1.06-6.05-1.4-10.35-6.32-10.35-3.26 0-4.82 1.58-5.95 3.5h-.03l-.03-2.95H3.69zM10.54-3.77c-2.95 0-3.75-2.45-3.17-5.87.67-3.75 2.26-5.81 4.86-5.81 3 0 3.67 2.56 3.08 5.82-.7 3.8-2.02 5.86-4.77 5.86zm0 0"/></symbol><symbol overflow="visible" id="cf868ef1bu"><path d="M10.03-15h4.5l.77-4.22h-4.53l.9-5.19H7.2l-1.8 5.2H2.17L1.41-15h3.25L3.3-7.1C2.47-2.34 3.8.5 8.52.5c1.42 0 2.51-.19 3.51-.47l.75-4.19c-.62.16-1.33.27-2.1.27-1.76 0-2.43-1-2.02-3.3zm0 0"/></symbol><symbol overflow="visible" id="cf868ef1bv"><path d="M19.13-8.1c.34-2.12.43-2.93.43-3.84 0-4.65-2.62-7.89-7.9-7.89-5.79 0-9.5 3.55-10.66 9.94C-.13-3.73 2.9.55 9.2.55c5.36 0 7.93-2.32 9.33-6.25h-5.1c-.88 1.6-1.74 2.26-3.82 2.26-2.95 0-3.61-2.19-3.52-4.65zm-7.79-7.8c2.52 0 3.44 1.68 3.2 4.37H6.68c.77-2.86 2.3-4.36 4.67-4.36zm0 0"/></symbol><symbol overflow="visible" id="cf868ef1bw"><path d="M.31 0h5.42L7.4-9.31c.63-3.63 2.34-5.38 5.4-5.38.65 0 1.41.13 1.93.24l.86-4.94a6.69 6.69 0 00-2.16-.38c-2.73 0-4.06 1.38-4.98 3.93h-.05l.05-3.38H3.7zm0 0"/></symbol><symbol overflow="visible" id="cf868ef1bx"><path d="M19.13 0h7.01l-9.39-24.97H9.7L.27 0h6.48l1.48-4.27h9.5zM9.86-9.1l3.22-9.34h.04l3.05 9.33zm0 0"/></symbol><symbol overflow="visible" id="cf868ef1by"><path d="M8.28.55c3.17 0 4.77-1.7 5.6-3.61h.04l.6 3.06h5.73v-26.78h-6.52v10.1h-.03c-.9-1.79-2.48-3.15-5.32-3.15C3.62-19.83.71-16.02.71-9.6.72-3.34 3.47.55 8.28.55zm2.27-5.05c-2.13 0-3.22-1.67-3.22-5.13s1.1-5.15 3.22-5.15c2.23 0 3.26 1.78 3.26 5.14 0 3.33-1.01 5.14-3.26 5.14zm0 0"/></symbol><symbol overflow="visible" id="cf868ef1bz"><path d="M6.9.5c3.27 0 5.02-1.3 5.96-3.17h.05L13.44 0H19v-12.55c0-5-2.83-7.37-8.47-7.37-5.6 0-7.97 2.06-9.15 7.03h6.17c.67-1.86 1.3-2.4 2.87-2.4 1.58 0 2.25.85 2.25 2.04 0 .9-.33 1.4-1.25 1.56l-4.34.67c-4.61.7-6.52 2.7-6.52 5.94C.56-1.52 2.98.5 6.9.5zm2.33-4.31c-1.34 0-2.15-.66-2.15-1.81 0-1.02.65-1.6 2.19-1.96l1.39-.3c.76-.17 1.45-.4 2.01-.78v1.08c0 2.3-1.31 3.77-3.44 3.77zm0 0"/></symbol><symbol overflow="visible" id="cf868ef1bA"><path d="M1.67 6.69h6.5v-9.32h.05C9.16-.73 10.67.56 13.64.56c4.56 0 7.53-3.85 7.53-10.18 0-6.3-2.76-10.2-7.45-10.2-3.38 0-4.86 1.72-5.69 3.6H8l-.6-3.07H1.68zM11.33-4.5C9.14-4.5 8.1-6.3 8.1-9.66c0-3.3 1.03-5.12 3.22-5.12 2.17 0 3.23 1.65 3.23 5.12S13.5-4.5 11.33-4.5zm0 0"/></symbol><symbol overflow="visible" id="cf868ef1bB"><path d="M9.64-14.38h4.28v-4.92H9.64v-5.22h-5.4l-.96 5.22H.23v4.93h3.05v8.3c0 4.26 2 6.6 6.8 6.6 1.6 0 2.87-.28 3.89-.58v-4.83c-.58.11-1.22.25-1.85.25-1.71 0-2.48-.75-2.48-2.78zm0 0"/></symbol><symbol overflow="visible" id="cf868ef1bC"><path d="M19.92-7.86v-2.3c0-6.21-3.58-9.76-9.47-9.76-5.92 0-9.73 3.8-9.73 10.3C.72-3.2 4.25.54 10.53.54c5.47 0 7.9-2.02 9.25-6.49h-6.03c-.69 1.27-1.25 1.96-3.08 1.96-2.01 0-3.19-1.16-3.48-3.88zm-9.4-7.51c1.95 0 3.01 1.14 3.23 3.62H7.22c.36-2.6 1.47-3.63 3.3-3.63zm0 0"/></symbol><symbol overflow="visible" id="cf868ef1bD"><path d="M1.67 0h6.5v-8.52c0-4 1.81-5.32 4.58-5.32.55 0 1.17.03 1.7.14v-5.9c-.48-.1-.98-.18-1.62-.18-2.77 0-3.99 1.56-4.72 4.4h-.03L7.4-19.3H1.67zm0 0"/></symbol><symbol overflow="visible" id="cf868ef1bE"><path d="M17.81 0h6.64l-4.89-24.97H12.5L-1.42 0h6.89L7.7-4.27h9.47zm-7.6-9.1l4.85-9.34h.03L16.5-9.1zm0 0"/></symbol><symbol overflow="visible" id="cf868ef1bF"><path d="M6.83.55c3.2 0 4.86-1.6 5.89-3.61h.03L12.78 0h5.74l4.73-26.78h-6.52l-1.82 10.2h-.04c-.74-1.86-2.24-3.25-5.15-3.25-4.72 0-7.99 3.8-8.99 10.11C-.2-3.92 1.75.55 6.83.55zM9.8-4.5c-2.6 0-2.98-2.33-2.48-5.14.6-3.4 1.72-5.14 3.94-5.14 2.5 0 3.03 2.1 2.5 5.14-.6 3.37-1.88 5.14-3.96 5.14zm0 0"/></symbol><symbol overflow="visible" id="cf868ef1bG"><path d="M5.5.5c3.44 0 5-1.22 6.14-3.06h.03L11.66 0h5.64l1.93-10.95c1.04-5.86-.96-8.97-7.32-8.97-5.8 0-8.25 2.06-9.93 7.03h6.18c.87-1.77 1.45-2.4 3.07-2.4 1.44 0 2.08.65 2.08 1.71 0 1.14-.37 1.75-1.65 1.92l-4.18.63c-4.71.7-7.7 2.37-7.7 6.6C-.22-1.33 1.84.5 5.5.5zm2.88-4.4c-1.32 0-2-.57-2-1.6 0-1.22.84-1.83 2.54-2.16l1.38-.23c.89-.16 1.68-.38 2.22-.69l-.18.99c-.43 2.34-1.9 3.68-3.96 3.68zm0 0"/></symbol><symbol overflow="visible" id="cf868ef1bH"><path d="M-1.25 6.69h6.52l1.68-9.4h.03C7.6-.84 9.27.54 12.22.54c4.53 0 7.81-3.75 8.92-10.08 1.1-6.17-1.31-10.3-6.06-10.3-3.33 0-4.8 1.66-5.9 3.6h-.04l-.06-3.07H3.34zM10.61-4.5c-2.5 0-3.03-2.13-2.5-5.14.6-3.4 1.84-5.14 4-5.14 2.55 0 2.95 2.31 2.44 5.14-.61 3.39-1.7 5.14-3.94 5.14zm0 0"/></symbol><symbol overflow="visible" id="cf868ef1bI"><path d="M10.48-14.38h4.24l.87-4.92h-4.26l.9-5.22h-5.4l-1.9 5.22H1.96l-.89 4.93H4.1L2.9-7.55C2.02-2.44 3.34.53 8.44.53c1.6 0 2.75-.22 3.81-.51l.84-4.86c-.57.12-1.2.21-1.89.21-1.62 0-2.28-.89-1.9-3.06zm0 0"/></symbol><symbol overflow="visible" id="cf868ef1bJ"><path d="M19.58-7.88c.4-2.12.5-3.01.5-3.92 0-4.8-2.75-8.12-8.31-8.12-6.11 0-9.83 3.62-10.99 10.05C-.36-3.55 2.9.54 9.4.54c5.4 0 8.27-2.2 9.8-6.49h-6.03c-.77 1.32-1.46 1.96-3.32 1.96-2.36 0-2.98-1.74-2.96-3.88zm-8.14-7.5c2.1 0 2.84 1.38 2.69 3.63h-6.6c.67-2.44 1.92-3.63 3.9-3.63zm0 0"/></symbol><symbol overflow="visible" id="cf868ef1bK"><path d="M-.05 0h6.5l1.53-8.67c.6-3.4 2.18-5.16 5.25-5.16.61 0 1.38.13 1.9.24l1.03-5.88a6.65 6.65 0 00-2.16-.36c-2.64 0-3.94 1.33-4.86 4.17h-.03v-3.64H3.36zm0 0"/></symbol><symbol overflow="visible" id="cf868ef1bL"><path d="M19.03 0h8.14l-9.33-24.97H9.52L.19 0h7.45l1.19-3.66h9.1zm-8.39-9.16l2.86-8.6h.03l2.69 8.6zm0 0"/></symbol><symbol overflow="visible" id="cf868ef1bM"><path d="M7.9.55A5.34 5.34 0 0013.3-3.2h.05L14 0h6.73v-26.78h-7.59v10.1h-.05a5.25 5.25 0 00-5.17-3.23C3.25-19.9.5-16.03.5-9.66.5-3.4 3.16.54 7.9.54zm2.82-5.8c-1.75 0-2.5-1.4-2.5-4.4 0-3.02.75-4.46 2.5-4.46 1.76 0 2.48 1.44 2.48 4.45 0 3-.72 4.41-2.48 4.41zm0 0"/></symbol><symbol overflow="visible" id="cf868ef1bN"><path d="M6.66.5c3.26 0 4.92-1.22 5.9-3.14h.03L13.2 0h6.49v-12.45c0-5.18-2.94-7.57-8.9-7.57-6.06 0-8.43 2.1-9.66 7.29h7.15c.58-1.54 1.02-2 2.28-2 1.2 0 1.75.65 1.75 1.56 0 .8-.37 1.26-1.1 1.37l-4.34.61C2.2-10.53.3-8.5.3-5.25.3-1.52 2.75.5 6.66.5zm2.96-4.88c-1.07 0-1.76-.46-1.76-1.45 0-.83.5-1.26 1.76-1.6l.7-.16c.71-.2 1.37-.41 2-.74v1.1c0 1.8-.91 2.86-2.7 2.86zm0 0"/></symbol><symbol overflow="visible" id="cf868ef1bO"><path d="M1.3 6.69h7.6v-9.36h.04C9.84-.8 11.25.55 14.27.55c4.4 0 7.26-3.88 7.26-10.2 0-6.3-2.67-10.26-7.26-10.26-3.38 0-4.79 1.79-5.55 3.74h-.03l-.66-3.19H1.3zM11.33-5.25c-1.78 0-2.5-1.44-2.5-4.45 0-3 .72-4.4 2.5-4.4 1.73 0 2.5 1.4 2.5 4.4 0 3.01-.77 4.45-2.5 4.45zm0 0"/></symbol><symbol overflow="visible" id="cf868ef1bP"><path d="M10.23-13.75h3.96v-5.6h-3.96v-5.26H3.87l-1.04 5.25H0v5.61h2.83v7.56c0 4.35 2.1 6.74 7.2 6.74 1.74 0 3.11-.3 4.16-.63v-5.5c-.55.11-1.13.22-1.67.22-1.55 0-2.29-.6-2.29-2.45zm0 0"/></symbol><symbol overflow="visible" id="cf868ef1bQ"><path d="M20.45-7.63v-2.4c0-6.36-3.73-9.99-9.84-9.99C4.42-20.02.5-16.17.5-9.66.5-3.19 4.2.54 10.6.54c5.9 0 8.3-1.95 9.7-6.73h-6.94c-.53 1.05-.95 1.66-2.53 1.66-1.6 0-2.5-.84-2.83-3.1zm-9.78-7.25c1.53 0 2.4.88 2.61 2.9H8.03c.36-2.13 1.24-2.9 2.64-2.9zm0 0"/></symbol><symbol overflow="visible" id="cf868ef1bR"><path d="M1.3 0h7.6v-7.92c0-3.88 1.77-5.03 4.46-5.03.53 0 1.08.03 1.66.14v-6.85c-.47-.1-.97-.17-1.6-.17-2.86 0-3.97 1.7-4.6 4.74H8.8l-.77-4.27H1.3zm0 0"/></symbol><symbol overflow="visible" id="cf868ef1bT"><path d="M17.77 0h7.71l-4.86-24.97h-8.3L-1.53 0h7.93l1.84-3.66h9.05zm-6.74-9.16l4.35-8.6h.04l1.16 8.6zm0 0"/></symbol><symbol overflow="visible" id="cf868ef1bU"><path d="M6.38.55c3.17 0 4.84-1.68 5.82-3.74h.03L12.27 0H19l4.73-26.78h-7.59l-1.81 10.1h-.03c-.72-1.85-2.07-3.23-5-3.23-4.7 0-7.82 3.96-8.8 10.25C-.4-3.87 1.34.54 6.38.54zm3.68-5.8c-2.17 0-2.28-2.06-1.84-4.45.55-3 1.4-4.4 3.14-4.4 2.03 0 2.28 1.76 1.81 4.4-.54 3.01-1.48 4.45-3.1 4.45zm0 0"/></symbol><symbol overflow="visible" id="cf868ef1bV"><path d="M5.06.5C8.61.5 10.1-.6 11.3-2.53h.03L11.36 0h6.62l1.9-10.67c1.07-6.13-.88-9.35-7.75-9.35-6.1 0-8.77 2.1-10.41 7.29h7.17c.7-1.43 1.11-2 2.44-2 1.12 0 1.6.54 1.6 1.34 0 .94-.34 1.4-1.5 1.6l-4.12.6C2.47-10.45-.5-8.79-.5-4.34-.5-1.34 1.52.5 5.06.5zm3.7-4.98c-1.06 0-1.56-.47-1.56-1.27 0-1.02.7-1.45 2.03-1.78l.61-.14c.83-.19 1.68-.36 2.29-.66l-.2.99c-.32 1.8-1.4 2.86-3.16 2.86zm0 0"/></symbol><symbol overflow="visible" id="cf868ef1bW"><path d="M-1.6 6.69h7.58l1.68-9.36h.03C8.27-.8 9.79.55 12.79.55c4.41 0 7.6-3.88 8.73-10.2 1.12-6.3-1.24-10.26-5.83-10.26-3.36 0-4.74 1.79-5.83 3.74h-.03l-.11-3.19H2.98zM10.65-5.25c-2.04 0-2.29-1.77-1.82-4.4.55-3.02 1.43-4.46 3.16-4.46 2.1 0 2.23 2.06 1.81 4.45-.54 3-1.42 4.41-3.15 4.41zm0 0"/></symbol><symbol overflow="visible" id="cf868ef1bX"><path d="M10.92-13.75h3.96l1.01-5.6h-3.98l.9-5.26H6.44l-1.96 5.25H1.73L.72-13.75h2.8L2.5-8C1.56-2.53 2.9.55 8.36.55c1.73 0 2.97-.25 4.1-.55l.96-5.53c-.53.1-1.08.17-1.7.17-1.49 0-2.13-.8-1.77-2.81zm0 0"/></symbol><symbol overflow="visible" id="cf868ef1bY"><path d="M20.05-7.64c.43-2.13.54-3.11.54-4.02 0-4.92-2.86-8.36-8.71-8.36-6.41 0-10.18 3.7-11.33 10.18C-.61-3.36 2.89.55 9.55.55c5.51 0 8.65-2.07 10.28-6.74h-6.94c-.66 1.05-1.17 1.66-2.8 1.66-1.76 0-2.39-1.27-2.42-3.06zm-8.53-7.24c1.68 0 2.26 1.1 2.2 2.9H8.36c.58-2.02 1.56-2.9 3.16-2.9zm0 0"/></symbol><symbol overflow="visible" id="cf868ef1bZ"><path d="M-.42 0h7.6L8.6-8.03c.55-3.19 1.99-4.92 5.07-4.92.57 0 1.34.1 1.89.22l1.18-6.82a7.2 7.2 0 00-2.17-.36c-2.53 0-3.8 1.3-4.7 4.46h-.03l-.08-3.9H3.02zm0 0"/></symbol></defs><use xlink:href="#cf868ef1a" x="39.55494" y="61.85246"/><use xlink:href="#cf868ef1b" x="62.39294" y="61.85246"/><use xlink:href="#cf868ef1c" x="82.62414" y="61.85246"/><use xlink:href="#cf868ef1d" x="100.75394" y="61.85246"/><use xlink:href="#cf868ef1e" x="120.98514" y="61.85246"/><use xlink:href="#cf868ef1f" x="133.03494" y="61.85246"/><use xlink:href="#cf868ef1g" x="151.49154" y="61.85246"/><g fill-opacity=".33"><use xlink:href="#cf868ef1h" x="58.12542" y="94.7049"/><use xlink:href="#cf868ef1i" x="64.79242" y="94.7049"/><use xlink:href="#cf868ef1j" x="71.45942" y="94.7049"/><use xlink:href="#cf868ef1k" x="78.12642" y="94.7049"/><use xlink:href="#cf868ef1l" x="84.79342" y="94.7049"/><use xlink:href="#cf868ef1m" x="91.46042" y="94.7049"/><use xlink:href="#cf868ef1n" x="98.12742" y="94.7049"/><use xlink:href="#cf868ef1o" x="104.79442" y="94.7049"/><use xlink:href="#cf868ef1h" x="111.46142" y="94.7049"/><use xlink:href="#cf868ef1p" x="118.12842" y="94.7049"/><use xlink:href="#cf868ef1q" x="124.79542" y="94.7049"/><use xlink:href="#cf868ef1j" x="131.46242" y="94.7049"/><use xlink:href="#cf868ef1r" x="138.12942" y="94.7049"/></g><use xlink:href="#cf868ef1s" x="236.67363" y="61.85246"/><use xlink:href="#cf868ef1t" x="259.51163" y="61.85246"/><use xlink:href="#cf868ef1u" x="279.70483" y="61.85246"/><use xlink:href="#cf868ef1v" x="297.83463" y="61.85246"/><use xlink:href="#cf868ef1w" x="318.06583" y="61.85246"/><use xlink:href="#cf868ef1x" x="330.11563" y="61.85246"/><use xlink:href="#cf868ef1y" x="348.55323" y="61.85246"/><g fill-opacity=".33"><use xlink:href="#cf868ef1h" x="231.87458" y="94.7049"/><use xlink:href="#cf868ef1i" x="238.54158" y="94.7049"/><use xlink:href="#cf868ef1j" x="245.20858" y="94.7049"/><use xlink:href="#cf868ef1k" x="251.87558" y="94.7049"/><use xlink:href="#cf868ef1l" x="258.54258" y="94.7049"/><use xlink:href="#cf868ef1m" x="265.20958" y="94.7049"/><use xlink:href="#cf868ef1n" x="271.87658" y="94.7049"/><use xlink:href="#cf868ef1o" x="278.54358" y="94.7049"/><use xlink:href="#cf868ef1h" x="285.21058" y="94.7049"/><use xlink:href="#cf868ef1p" x="291.87758" y="94.7049"/><use xlink:href="#cf868ef1q" x="298.54458" y="94.7049"/><use xlink:href="#cf868ef1j" x="305.21158" y="94.7049"/><use xlink:href="#cf868ef1r" x="311.87858" y="94.7049"/><use xlink:href="#cf868ef1h" x="318.54558" y="94.7049"/><use xlink:href="#cf868ef1z" x="325.21258" y="94.7049"/><use xlink:href="#cf868ef1A" x="331.87958" y="94.7049"/><use xlink:href="#cf868ef1n" x="338.54658" y="94.7049"/><use xlink:href="#cf868ef1m" x="345.21358" y="94.7049"/><use xlink:href="#cf868ef1j" x="351.88058" y="94.7049"/><use xlink:href="#cf868ef1B" x="358.54758" y="94.7049"/></g><use xlink:href="#cf868ef1C" x="37.9897" y="160.88936"/><use xlink:href="#cf868ef1D" x="61.1697" y="160.88936"/><use xlink:href="#cf868ef1E" x="81.7999" y="160.88936"/><use xlink:href="#cf868ef1F" x="100.3477" y="160.88936"/><use xlink:href="#cf868ef1G" x="120.9779" y="160.88936"/><use xlink:href="#cf868ef1H" x="133.6813" y="160.88936"/><use xlink:href="#cf868ef1I" x="152.6091" y="160.88936"/><g fill-opacity=".33"><use xlink:href="#cf868ef1h" x="38.12542" y="193.7418"/><use xlink:href="#cf868ef1i" x="44.79242" y="193.7418"/><use xlink:href="#cf868ef1j" x="51.45942" y="193.7418"/><use xlink:href="#cf868ef1k" x="58.12642" y="193.7418"/><use xlink:href="#cf868ef1l" x="64.79342" y="193.7418"/><use xlink:href="#cf868ef1m" x="71.46042" y="193.7418"/><use xlink:href="#cf868ef1n" x="78.12742" y="193.7418"/><use xlink:href="#cf868ef1o" x="84.79442" y="193.7418"/><use xlink:href="#cf868ef1h" x="91.46142" y="193.7418"/><use xlink:href="#cf868ef1J" x="98.12842" y="193.7418"/><use xlink:href="#cf868ef1K" x="104.79542" y="193.7418"/><use xlink:href="#cf868ef1A" x="111.46242" y="193.7418"/><use xlink:href="#cf868ef1L" x="118.12942" y="193.7418"/><use xlink:href="#cf868ef1n" x="124.79642" y="193.7418"/><use xlink:href="#cf868ef1m" x="131.46342" y="193.7418"/><use xlink:href="#cf868ef1j" x="138.13042" y="193.7418"/><use xlink:href="#cf868ef1M" x="144.79742" y="193.7418"/><use xlink:href="#cf868ef1q" x="151.46442" y="193.7418"/><use xlink:href="#cf868ef1A" x="158.13142" y="193.7418"/></g><use xlink:href="#cf868ef1N" x="235.08125" y="160.88936"/><use xlink:href="#cf868ef1O" x="258.26125" y="160.88936"/><use xlink:href="#cf868ef1P" x="278.89145" y="160.88936"/><use xlink:href="#cf868ef1Q" x="297.42025" y="160.88936"/><use xlink:href="#cf868ef1R" x="318.06565" y="160.88936"/><use xlink:href="#cf868ef1S" x="330.76905" y="160.88936"/><use xlink:href="#cf868ef1T" x="349.67785" y="160.88936"/><g fill-opacity=".33"><use xlink:href="#cf868ef1h" x="211.874583" y="193.7418"/><use xlink:href="#cf868ef1i" x="218.541583" y="193.7418"/><use xlink:href="#cf868ef1j" x="225.208583" y="193.7418"/><use xlink:href="#cf868ef1k" x="231.875583" y="193.7418"/><use xlink:href="#cf868ef1l" x="238.542583" y="193.7418"/><use xlink:href="#cf868ef1m" x="245.209583" y="193.7418"/><use xlink:href="#cf868ef1n" x="251.876583" y="193.7418"/><use xlink:href="#cf868ef1o" x="258.543583" y="193.7418"/><use xlink:href="#cf868ef1h" x="265.210583" y="193.7418"/><use xlink:href="#cf868ef1J" x="271.877583" y="193.7418"/><use xlink:href="#cf868ef1K" x="278.544583" y="193.7418"/><use xlink:href="#cf868ef1A" x="285.211583" y="193.7418"/><use xlink:href="#cf868ef1L" x="291.878583" y="193.7418"/><use xlink:href="#cf868ef1n" x="298.545583" y="193.7418"/><use xlink:href="#cf868ef1m" x="305.212583" y="193.7418"/><use xlink:href="#cf868ef1j" x="311.879583" y="193.7418"/><use xlink:href="#cf868ef1M" x="318.546583" y="193.7418"/><use xlink:href="#cf868ef1q" x="325.213583" y="193.7418"/><use xlink:href="#cf868ef1A" x="331.880583" y="193.7418"/><use xlink:href="#cf868ef1h" x="338.547583" y="193.7418"/><use xlink:href="#cf868ef1z" x="345.214583" y="193.7418"/><use xlink:href="#cf868ef1A" x="351.881583" y="193.7418"/><use xlink:href="#cf868ef1n" x="358.548583" y="193.7418"/><use xlink:href="#cf868ef1m" x="365.215583" y="193.7418"/><use xlink:href="#cf868ef1j" x="371.882583" y="193.7418"/><use xlink:href="#cf868ef1B" x="378.549583" y="193.7418"/></g><use xlink:href="#cf868ef1U" x="36.39732" y="259.92626"/><use xlink:href="#cf868ef1V" x="59.93832" y="259.92626"/><use xlink:href="#cf868ef1W" x="80.98272" y="259.92626"/><use xlink:href="#cf868ef1X" x="99.94472" y="259.92626"/><use xlink:href="#cf868ef1Y" x="120.98912" y="259.92626"/><use xlink:href="#cf868ef1Z" x="134.32712" y="259.92626"/><use xlink:href="#cf868ef1aa" x="153.74512" y="259.92626"/><g fill-opacity=".33"><use xlink:href="#cf868ef1h" x="54.79208" y="292.7787"/><use xlink:href="#cf868ef1i" x="61.45908" y="292.7787"/><use xlink:href="#cf868ef1j" x="68.12608" y="292.7787"/><use xlink:href="#cf868ef1k" x="74.79308" y="292.7787"/><use xlink:href="#cf868ef1l" x="81.46008" y="292.7787"/><use xlink:href="#cf868ef1m" x="88.12708" y="292.7787"/><use xlink:href="#cf868ef1n" x="94.79408" y="292.7787"/><use xlink:href="#cf868ef1o" x="101.46108" y="292.7787"/><use xlink:href="#cf868ef1h" x="108.12808" y="292.7787"/><use xlink:href="#cf868ef1ab" x="114.79508" y="292.7787"/><use xlink:href="#cf868ef1j" x="121.46208" y="292.7787"/><use xlink:href="#cf868ef1M" x="128.12908" y="292.7787"/><use xlink:href="#cf868ef1q" x="134.79608" y="292.7787"/><use xlink:href="#cf868ef1A" x="141.46308" y="292.7787"/></g><use xlink:href="#cf868ef1ac" x="233.51601" y="259.92626"/><use xlink:href="#cf868ef1ad" x="257.05701" y="259.92626"/><use xlink:href="#cf868ef1ae" x="278.09001" y="259.92626"/><use xlink:href="#cf868ef1af" x="297.03301" y="259.92626"/><use xlink:href="#cf868ef1ag" x="318.06601" y="259.92626"/><use xlink:href="#cf868ef1ah" x="331.38501" y="259.92626"/><use xlink:href="#cf868ef1ai" x="350.78401" y="259.92626"/><g fill-opacity=".33"><use xlink:href="#cf868ef1h" x="228.54125" y="292.7787"/><use xlink:href="#cf868ef1i" x="235.20825" y="292.7787"/><use xlink:href="#cf868ef1j" x="241.87525" y="292.7787"/><use xlink:href="#cf868ef1k" x="248.54225" y="292.7787"/><use xlink:href="#cf868ef1l" x="255.20925" y="292.7787"/><use xlink:href="#cf868ef1m" x="261.87625" y="292.7787"/><use xlink:href="#cf868ef1n" x="268.54325" y="292.7787"/><use xlink:href="#cf868ef1o" x="275.21025" y="292.7787"/><use xlink:href="#cf868ef1h" x="281.87725" y="292.7787"/><use xlink:href="#cf868ef1ab" x="288.54425" y="292.7787"/><use xlink:href="#cf868ef1j" x="295.21125" y="292.7787"/><use xlink:href="#cf868ef1M" x="301.87825" y="292.7787"/><use xlink:href="#cf868ef1q" x="308.54525" y="292.7787"/><use xlink:href="#cf868ef1A" x="315.21225" y="292.7787"/><use xlink:href="#cf868ef1h" x="321.87925" y="292.7787"/><use xlink:href="#cf868ef1z" x="328.54625" y="292.7787"/><use xlink:href="#cf868ef1A" x="335.21325" y="292.7787"/><use xlink:href="#cf868ef1n" x="341.88025" y="292.7787"/><use xlink:href="#cf868ef1m" x="348.54725" y="292.7787"/><use xlink:href="#cf868ef1j" x="355.21425" y="292.7787"/><use xlink:href="#cf868ef1B" x="361.88125" y="292.7787"/></g><use xlink:href="#cf868ef1aj" x="35.46542" y="358.96316"/><use xlink:href="#cf868ef1ak" x="59.20782" y="358.96316"/><use xlink:href="#cf868ef1al" x="80.48782" y="358.96316"/><use xlink:href="#cf868ef1am" x="99.70442" y="358.96316"/><use xlink:href="#cf868ef1an" x="120.98442" y="358.96316"/><use xlink:href="#cf868ef1ao" x="134.71762" y="358.96316"/><use xlink:href="#cf868ef1ap" x="154.40542" y="358.96316"/><g fill-opacity=".33"><use xlink:href="#cf868ef1h" x="48.12542" y="391.8156"/><use xlink:href="#cf868ef1i" x="54.79242" y="391.8156"/><use xlink:href="#cf868ef1j" x="61.45942" y="391.8156"/><use xlink:href="#cf868ef1k" x="68.12642" y="391.8156"/><use xlink:href="#cf868ef1l" x="74.79342" y="391.8156"/><use xlink:href="#cf868ef1m" x="81.46042" y="391.8156"/><use xlink:href="#cf868ef1n" x="88.12742" y="391.8156"/><use xlink:href="#cf868ef1o" x="94.79442" y="391.8156"/><use xlink:href="#cf868ef1h" x="101.46142" y="391.8156"/><use xlink:href="#cf868ef1aq" x="108.12842" y="391.8156"/><use xlink:href="#cf868ef1ar" x="114.79542" y="391.8156"/><use xlink:href="#cf868ef1M" x="121.46242" y="391.8156"/><use xlink:href="#cf868ef1as" x="128.12942" y="391.8156"/><use xlink:href="#cf868ef1m" x="134.79642" y="391.8156"/><use xlink:href="#cf868ef1n" x="141.46342" y="391.8156"/><use xlink:href="#cf868ef1L" x="148.13042" y="391.8156"/></g><use xlink:href="#cf868ef1at" x="232.55696" y="358.96316"/><use xlink:href="#cf868ef1au" x="256.29936" y="358.96316"/><use xlink:href="#cf868ef1av" x="277.57936" y="358.96316"/><use xlink:href="#cf868ef1aw" x="296.79596" y="358.96316"/><use xlink:href="#cf868ef1ax" x="318.07596" y="358.96316"/><use xlink:href="#cf868ef1ay" x="331.80916" y="358.96316"/><use xlink:href="#cf868ef1az" x="351.49696" y="358.96316"/><g fill-opacity=".33"><use xlink:href="#cf868ef1h" x="248.54125" y="391.8156"/><use xlink:href="#cf868ef1i" x="255.20825" y="391.8156"/><use xlink:href="#cf868ef1j" x="261.87525" y="391.8156"/><use xlink:href="#cf868ef1k" x="268.54225" y="391.8156"/><use xlink:href="#cf868ef1l" x="275.20925" y="391.8156"/><use xlink:href="#cf868ef1m" x="281.87625" y="391.8156"/><use xlink:href="#cf868ef1n" x="288.54325" y="391.8156"/><use xlink:href="#cf868ef1o" x="295.21025" y="391.8156"/><use xlink:href="#cf868ef1h" x="301.87725" y="391.8156"/><use xlink:href="#cf868ef1z" x="308.54425" y="391.8156"/><use xlink:href="#cf868ef1A" x="315.21125" y="391.8156"/><use xlink:href="#cf868ef1n" x="321.87825" y="391.8156"/><use xlink:href="#cf868ef1m" x="328.54525" y="391.8156"/><use xlink:href="#cf868ef1j" x="335.21225" y="391.8156"/><use xlink:href="#cf868ef1B" x="341.87925" y="391.8156"/></g><use xlink:href="#cf868ef1aA" x="34.50637" y="457.99996"/><use xlink:href="#cf868ef1aB" x="58.46537" y="457.99996"/><use xlink:href="#cf868ef1aC" x="79.99237" y="457.99996"/><use xlink:href="#cf868ef1aD" x="99.46737" y="457.99996"/><use xlink:href="#cf868ef1aE" x="120.99437" y="457.99996"/><use xlink:href="#cf868ef1aF" x="135.11137" y="457.99996"/><use xlink:href="#cf868ef1aG" x="155.08037" y="457.99996"/><g fill-opacity=".33"><use xlink:href="#cf868ef1h" x="51.45875" y="490.8524"/><use xlink:href="#cf868ef1i" x="58.12575" y="490.8524"/><use xlink:href="#cf868ef1j" x="64.79275" y="490.8524"/><use xlink:href="#cf868ef1k" x="71.45975" y="490.8524"/><use xlink:href="#cf868ef1l" x="78.12675" y="490.8524"/><use xlink:href="#cf868ef1m" x="84.79375" y="490.8524"/><use xlink:href="#cf868ef1n" x="91.46075" y="490.8524"/><use xlink:href="#cf868ef1o" x="98.12775" y="490.8524"/><use xlink:href="#cf868ef1h" x="104.79475" y="490.8524"/><use xlink:href="#cf868ef1aH" x="111.46175" y="490.8524"/><use xlink:href="#cf868ef1ar" x="118.12875" y="490.8524"/><use xlink:href="#cf868ef1aI" x="124.79575" y="490.8524"/><use xlink:href="#cf868ef1j" x="131.46275" y="490.8524"/><use xlink:href="#cf868ef1as" x="138.12975" y="490.8524"/><use xlink:href="#cf868ef1aJ" x="144.79675" y="490.8524"/></g><use xlink:href="#cf868ef1aK" x="231.62506" y="457.99996"/><use xlink:href="#cf868ef1aL" x="255.58406" y="457.99996"/><use xlink:href="#cf868ef1aM" x="277.11106" y="457.99996"/><use xlink:href="#cf868ef1aN" x="296.58606" y="457.99996"/><use xlink:href="#cf868ef1aO" x="318.11306" y="457.99996"/><use xlink:href="#cf868ef1aP" x="332.23006" y="457.99996"/><use xlink:href="#cf868ef1aQ" x="352.19906" y="457.99996"/><g fill-opacity=".33"><use xlink:href="#cf868ef1h" x="225.20792" y="490.8524"/><use xlink:href="#cf868ef1i" x="231.87492" y="490.8524"/><use xlink:href="#cf868ef1j" x="238.54192" y="490.8524"/><use xlink:href="#cf868ef1k" x="245.20892" y="490.8524"/><use xlink:href="#cf868ef1l" x="251.87592" y="490.8524"/><use xlink:href="#cf868ef1m" x="258.54292" y="490.8524"/><use xlink:href="#cf868ef1n" x="265.20992" y="490.8524"/><use xlink:href="#cf868ef1o" x="271.87692" y="490.8524"/><use xlink:href="#cf868ef1h" x="278.54392" y="490.8524"/><use xlink:href="#cf868ef1aH" x="285.21092" y="490.8524"/><use xlink:href="#cf868ef1ar" x="291.87792" y="490.8524"/><use xlink:href="#cf868ef1aI" x="298.54492" y="490.8524"/><use xlink:href="#cf868ef1j" x="305.21192" y="490.8524"/><use xlink:href="#cf868ef1as" x="311.87892" y="490.8524"/><use xlink:href="#cf868ef1aJ" x="318.54592" y="490.8524"/><use xlink:href="#cf868ef1h" x="325.21292" y="490.8524"/><use xlink:href="#cf868ef1z" x="331.87992" y="490.8524"/><use xlink:href="#cf868ef1A" x="338.54692" y="490.8524"/><use xlink:href="#cf868ef1n" x="345.21392" y="490.8524"/><use xlink:href="#cf868ef1m" x="351.88092" y="490.8524"/><use xlink:href="#cf868ef1j" x="358.54792" y="490.8524"/><use xlink:href="#cf868ef1B" x="365.21492" y="490.8524"/></g><use xlink:href="#cf868ef1aR" x="33.48399" y="557.03686"/><use xlink:href="#cf868ef1aS" x="58.22199" y="557.03686"/><use xlink:href="#cf868ef1aT" x="79.86299" y="557.03686"/><use xlink:href="#cf868ef1aU" x="99.60399" y="557.03686"/><use xlink:href="#cf868ef1aV" x="121.24499" y="557.03686"/><use xlink:href="#cf868ef1aW" x="135.44939" y="557.03686"/><use xlink:href="#cf868ef1aX" x="155.68059" y="557.03686"/><g fill-opacity=".33"><use xlink:href="#cf868ef1h" x="44.79208" y="589.8893"/><use xlink:href="#cf868ef1i" x="51.45908" y="589.8893"/><use xlink:href="#cf868ef1j" x="58.12608" y="589.8893"/><use xlink:href="#cf868ef1k" x="64.79308" y="589.8893"/><use xlink:href="#cf868ef1l" x="71.46008" y="589.8893"/><use xlink:href="#cf868ef1m" x="78.12708" y="589.8893"/><use xlink:href="#cf868ef1n" x="84.79408" y="589.8893"/><use xlink:href="#cf868ef1o" x="91.46108" y="589.8893"/><use xlink:href="#cf868ef1h" x="98.12808" y="589.8893"/><use xlink:href="#cf868ef1aY" x="104.79508" y="589.8893"/><use xlink:href="#cf868ef1ar" x="111.46208" y="589.8893"/><use xlink:href="#cf868ef1aJ" x="118.12908" y="589.8893"/><use xlink:href="#cf868ef1j" x="124.79608" y="589.8893"/><use xlink:href="#cf868ef1aZ" x="131.46308" y="589.8893"/><use xlink:href="#cf868ef1ba" x="138.13008" y="589.8893"/><use xlink:href="#cf868ef1m" x="144.79708" y="589.8893"/><use xlink:href="#cf868ef1aI" x="151.46408" y="589.8893"/></g><use xlink:href="#cf868ef1bb" x="230.59363" y="557.03686"/><use xlink:href="#cf868ef1bc" x="255.33163" y="557.03686"/><use xlink:href="#cf868ef1bd" x="276.95363" y="557.03686"/><use xlink:href="#cf868ef1be" x="296.71363" y="557.03686"/><use xlink:href="#cf868ef1bf" x="318.33563" y="557.03686"/><use xlink:href="#cf868ef1bg" x="332.54003" y="557.03686"/><use xlink:href="#cf868ef1bh" x="352.77123" y="557.03686"/><g fill-opacity=".33"><use xlink:href="#cf868ef1h" x="218.54125" y="589.8893"/><use xlink:href="#cf868ef1i" x="225.20825" y="589.8893"/><use xlink:href="#cf868ef1j" x="231.87525" y="589.8893"/><use xlink:href="#cf868ef1k" x="238.54225" y="589.8893"/><use xlink:href="#cf868ef1l" x="245.20925" y="589.8893"/><use xlink:href="#cf868ef1m" x="251.87625" y="589.8893"/><use xlink:href="#cf868ef1n" x="258.54325" y="589.8893"/><use xlink:href="#cf868ef1o" x="265.21025" y="589.8893"/><use xlink:href="#cf868ef1h" x="271.87725" y="589.8893"/><use xlink:href="#cf868ef1aY" x="278.54425" y="589.8893"/><use xlink:href="#cf868ef1ar" x="285.21125" y="589.8893"/><use xlink:href="#cf868ef1aJ" x="291.87825" y="589.8893"/><use xlink:href="#cf868ef1j" x="298.54525" y="589.8893"/><use xlink:href="#cf868ef1aZ" x="305.21225" y="589.8893"/><use xlink:href="#cf868ef1ba" x="311.87925" y="589.8893"/><use xlink:href="#cf868ef1m" x="318.54625" y="589.8893"/><use xlink:href="#cf868ef1aI" x="325.21325" y="589.8893"/><use xlink:href="#cf868ef1h" x="331.88025" y="589.8893"/><use xlink:href="#cf868ef1z" x="338.54725" y="589.8893"/><use xlink:href="#cf868ef1A" x="345.21425" y="589.8893"/><use xlink:href="#cf868ef1n" x="351.88125" y="589.8893"/><use xlink:href="#cf868ef1m" x="358.54825" y="589.8893"/><use xlink:href="#cf868ef1j" x="365.21525" y="589.8893"/><use xlink:href="#cf868ef1B" x="371.88225" y="589.8893"/></g><use xlink:href="#cf868ef1bi" x="32.44351" y="656.07376"/><use xlink:href="#cf868ef1bj" x="57.94151" y="656.07376"/><use xlink:href="#cf868ef1bk" x="79.71171" y="656.07376"/><use xlink:href="#cf868ef1bl" x="99.74151" y="656.07376"/><use xlink:href="#cf868ef1bm" x="121.51171" y="656.07376"/><use xlink:href="#cf868ef1bn" x="135.82631" y="656.07376"/><use xlink:href="#cf868ef1bo" x="156.30831" y="656.07376"/><g fill-opacity=".33"><use xlink:href="#cf868ef1h" x="58.12542" y="688.9262"/><use xlink:href="#cf868ef1i" x="64.79242" y="688.9262"/><use xlink:href="#cf868ef1j" x="71.45942" y="688.9262"/><use xlink:href="#cf868ef1k" x="78.12642" y="688.9262"/><use xlink:href="#cf868ef1l" x="84.79342" y="688.9262"/><use xlink:href="#cf868ef1m" x="91.46042" y="688.9262"/><use xlink:href="#cf868ef1n" x="98.12742" y="688.9262"/><use xlink:href="#cf868ef1o" x="104.79442" y="688.9262"/><use xlink:href="#cf868ef1h" x="111.46142" y="688.9262"/><use xlink:href="#cf868ef1bp" x="118.12842" y="688.9262"/><use xlink:href="#cf868ef1ba" x="124.79542" y="688.9262"/><use xlink:href="#cf868ef1m" x="131.46242" y="688.9262"/><use xlink:href="#cf868ef1aI" x="138.12942" y="688.9262"/></g><use xlink:href="#cf868ef1bq" x="229.55315" y="656.07376"/><use xlink:href="#cf868ef1br" x="255.05115" y="656.07376"/><g><use xlink:href="#cf868ef1bs" x="276.80235" y="656.07376"/></g><g><use xlink:href="#cf868ef1bt" x="296.83215" y="656.07376"/></g><g><use xlink:href="#cf868ef1bu" x="318.58335" y="656.07376"/></g><g><use xlink:href="#cf868ef1bv" x="332.89795" y="656.07376"/><use xlink:href="#cf868ef1bw" x="353.37995" y="656.07376"/></g><g fill-opacity=".33"><use xlink:href="#cf868ef1h" x="231.87458" y="688.9262"/><use xlink:href="#cf868ef1i" x="238.54158" y="688.9262"/><use xlink:href="#cf868ef1j" x="245.20858" y="688.9262"/><use xlink:href="#cf868ef1k" x="251.87558" y="688.9262"/><use xlink:href="#cf868ef1l" x="258.54258" y="688.9262"/><use xlink:href="#cf868ef1m" x="265.20958" y="688.9262"/><use xlink:href="#cf868ef1n" x="271.87658" y="688.9262"/><use xlink:href="#cf868ef1o" x="278.54358" y="688.9262"/><use xlink:href="#cf868ef1h" x="285.21058" y="688.9262"/><use xlink:href="#cf868ef1bp" x="291.87758" y="688.9262"/><use xlink:href="#cf868ef1ba" x="298.54458" y="688.9262"/><use xlink:href="#cf868ef1m" x="305.21158" y="688.9262"/><use xlink:href="#cf868ef1aI" x="311.87858" y="688.9262"/><use xlink:href="#cf868ef1h" x="318.54558" y="688.9262"/><use xlink:href="#cf868ef1z" x="325.21258" y="688.9262"/><use xlink:href="#cf868ef1A" x="331.87958" y="688.9262"/><use xlink:href="#cf868ef1n" x="338.54658" y="688.9262"/><use xlink:href="#cf868ef1m" x="345.21358" y="688.9262"/><use xlink:href="#cf868ef1j" x="351.88058" y="688.9262"/><use xlink:href="#cf868ef1B" x="358.54758" y="688.9262"/></g><g><use xlink:href="#cf868ef1bx" x="31.21304" y="755.11066"/><use xlink:href="#cf868ef1by" x="57.64964" y="755.11066"/></g><g><use xlink:href="#cf868ef1bz" x="79.56424" y="755.11066"/><use xlink:href="#cf868ef1bA" x="99.92084" y="755.11066"/></g><g><use xlink:href="#cf868ef1bB" x="121.83544" y="755.11066"/></g><g><use xlink:href="#cf868ef1bC" x="136.26404" y="755.11066"/><use xlink:href="#cf868ef1bD" x="157.03864" y="755.11066"/></g><g fill-opacity=".33"><use xlink:href="#cf868ef1h" x="41.45875" y="787.9631"/><use xlink:href="#cf868ef1i" x="48.12575" y="787.9631"/><use xlink:href="#cf868ef1j" x="54.79275" y="787.9631"/><use xlink:href="#cf868ef1k" x="61.45975" y="787.9631"/><use xlink:href="#cf868ef1l" x="68.12675" y="787.9631"/><use xlink:href="#cf868ef1m" x="74.79375" y="787.9631"/><use xlink:href="#cf868ef1n" x="81.46075" y="787.9631"/><use xlink:href="#cf868ef1o" x="88.12775" y="787.9631"/><use xlink:href="#cf868ef1h" x="94.79475" y="787.9631"/><use xlink:href="#cf868ef1J" x="101.46175" y="787.9631"/><use xlink:href="#cf868ef1K" x="108.12875" y="787.9631"/><use xlink:href="#cf868ef1A" x="114.79575" y="787.9631"/><use xlink:href="#cf868ef1L" x="121.46275" y="787.9631"/><use xlink:href="#cf868ef1n" x="128.12975" y="787.9631"/><use xlink:href="#cf868ef1aZ" x="134.79675" y="787.9631"/><use xlink:href="#cf868ef1ba" x="141.46375" y="787.9631"/><use xlink:href="#cf868ef1m" x="148.13075" y="787.9631"/><use xlink:href="#cf868ef1aI" x="154.79775" y="787.9631"/></g><g><use xlink:href="#cf868ef1bE" x="228.32268" y="755.11066"/><use xlink:href="#cf868ef1bF" x="254.75928" y="755.11066"/><use xlink:href="#cf868ef1bG" x="276.63588" y="755.11066"/></g><g><use xlink:href="#cf868ef1bH" x="297.03048" y="755.11066"/><use xlink:href="#cf868ef1bI" x="318.90708" y="755.11066"/></g><g><use xlink:href="#cf868ef1bJ" x="333.33568" y="755.11066"/><use xlink:href="#cf868ef1bK" x="354.11028" y="755.11066"/></g><g fill-opacity=".33"><use xlink:href="#cf868ef1h" x="215.207917" y="787.9631"/><use xlink:href="#cf868ef1i" x="221.874917" y="787.9631"/><use xlink:href="#cf868ef1j" x="228.541917" y="787.9631"/><use xlink:href="#cf868ef1k" x="235.208917" y="787.9631"/><use xlink:href="#cf868ef1l" x="241.875917" y="787.9631"/><use xlink:href="#cf868ef1m" x="248.542917" y="787.9631"/><use xlink:href="#cf868ef1n" x="255.209917" y="787.9631"/><use xlink:href="#cf868ef1o" x="261.876917" y="787.9631"/><use xlink:href="#cf868ef1h" x="268.543917" y="787.9631"/><use xlink:href="#cf868ef1J" x="275.210917" y="787.9631"/><use xlink:href="#cf868ef1K" x="281.877917" y="787.9631"/><use xlink:href="#cf868ef1A" x="288.544917" y="787.9631"/><use xlink:href="#cf868ef1L" x="295.211917" y="787.9631"/><use xlink:href="#cf868ef1n" x="301.878917" y="787.9631"/><use xlink:href="#cf868ef1aZ" x="308.545917" y="787.9631"/><use xlink:href="#cf868ef1ba" x="315.212917" y="787.9631"/><use xlink:href="#cf868ef1m" x="321.879917" y="787.9631"/><use xlink:href="#cf868ef1aI" x="328.546917" y="787.9631"/><use xlink:href="#cf868ef1h" x="335.213917" y="787.9631"/><use xlink:href="#cf868ef1z" x="341.880917" y="787.9631"/><use xlink:href="#cf868ef1A" x="348.547917" y="787.9631"/><use xlink:href="#cf868ef1n" x="355.214917" y="787.9631"/><use xlink:href="#cf868ef1m" x="361.881917" y="787.9631"/><use xlink:href="#cf868ef1j" x="368.548917" y="787.9631"/><use xlink:href="#cf868ef1B" x="375.215917" y="787.9631"/></g><g><use xlink:href="#cf868ef1bL" x="29.96446" y="854.14756"/><use xlink:href="#cf868ef1bM" x="57.32446" y="854.14756"/><use xlink:href="#cf868ef1bN" x="79.36446" y="854.14756"/></g><g><use xlink:href="#cf868ef1bO" x="100.06686" y="854.14756"/><use xlink:href="#cf868ef1bP" x="122.10686" y="854.14756"/></g><g><use xlink:href="#cf868ef1bQ" x="136.65706" y="854.14756"/></g><g><use xlink:href="#cf868ef1bR" x="157.75466" y="854.14756"/></g><g fill-opacity=".33"><use xlink:href="#cf868ef1h" x="54.79208" y="887"/><use xlink:href="#cf868ef1i" x="61.45908" y="887"/><use xlink:href="#cf868ef1j" x="68.12608" y="887"/><use xlink:href="#cf868ef1k" x="74.79308" y="887"/><use xlink:href="#cf868ef1l" x="81.46008" y="887"/><use xlink:href="#cf868ef1m" x="88.12708" y="887"/><use xlink:href="#cf868ef1n" x="94.79408" y="887"/><use xlink:href="#cf868ef1o" x="101.46108" y="887"/><use xlink:href="#cf868ef1h" x="108.12808" y="887"/><use xlink:href="#cf868ef1bp" x="114.79508" y="887"/><use xlink:href="#cf868ef1m" x="121.46208" y="887"/><use xlink:href="#cf868ef1n" x="128.12908" y="887"/><use xlink:href="#cf868ef1B" x="134.79608" y="887"/><use xlink:href="#cf868ef1bS" x="141.46308" y="887"/></g><g><use xlink:href="#cf868ef1bT" x="227.06506" y="854.14756"/><use xlink:href="#cf868ef1bU" x="254.42506" y="854.14756"/></g><g><use xlink:href="#cf868ef1bV" x="276.44606" y="854.14756"/></g><g><use xlink:href="#cf868ef1bW" x="297.16366" y="854.14756"/></g><g><use xlink:href="#cf868ef1bX" x="319.18466" y="854.14756"/></g><g><use xlink:href="#cf868ef1bY" x="333.73486" y="854.14756"/></g><g><use xlink:href="#cf868ef1bZ" x="354.83246" y="854.14756"/></g><g fill-opacity=".33"><use xlink:href="#cf868ef1h" x="228.54125" y="887"/><use xlink:href="#cf868ef1i" x="235.20825" y="887"/><use xlink:href="#cf868ef1j" x="241.87525" y="887"/><use xlink:href="#cf868ef1k" x="248.54225" y="887"/><use xlink:href="#cf868ef1l" x="255.20925" y="887"/><use xlink:href="#cf868ef1m" x="261.87625" y="887"/><use xlink:href="#cf868ef1n" x="268.54325" y="887"/><use xlink:href="#cf868ef1o" x="275.21025" y="887"/><use xlink:href="#cf868ef1h" x="281.87725" y="887"/><use xlink:href="#cf868ef1bp" x="288.54425" y="887"/><use xlink:href="#cf868ef1m" x="295.21125" y="887"/><use xlink:href="#cf868ef1n" x="301.87825" y="887"/><use xlink:href="#cf868ef1B" x="308.54525" y="887"/><use xlink:href="#cf868ef1bS" x="315.21225" y="887"/><use xlink:href="#cf868ef1h" x="321.87925" y="887"/><use xlink:href="#cf868ef1z" x="328.54625" y="887"/><use xlink:href="#cf868ef1A" x="335.21325" y="887"/><use xlink:href="#cf868ef1n" x="341.88025" y="887"/><use xlink:href="#cf868ef1m" x="348.54725" y="887"/><use xlink:href="#cf868ef1j" x="355.21425" y="887"/><use xlink:href="#cf868ef1B" x="361.88125" y="887"/></g></svg>