<?xml version='1.0' encoding='UTF-8'?>
<svg xmlns="http://www.w3.org/2000/svg" xmlns:xlink="http://www.w3.org/1999/xlink" width="600px" height="300px" viewBox="0 0 600 300" x="0px" y="0px" enable-background="new 0 0 600 300"><defs><symbol overflow="visible" id="553e5a64a"><path d="M22.81 1.14c11.7 0 19.1-7.81 19.1-19.69 0-10.6-3.44-16.87-15.55-21.26-7.61-2.81-11.13-3.88-11.13-7.2 0-2.47 2.41-3.32 6.14-3.93 4.16-.72 10.74-1.33 16.3-1.6l-.34-5.74c-6.17.3-12.19.98-17.75 1.94-7.31 1.22-10.86 3.76-10.86 9.1 0 5.15 4.39 7.74 10.4 9.87l-.04.3c-7.53.7-15.19 6.9-15.19 18.52 0 11.88 7.34 19.7 18.92 19.7zm.05-5.6c-8.31 0-12.4-5.37-12.4-14.5 0-9.12 4.09-14.37 12.4-14.37 8.37 0 12.45 5.25 12.45 14.36 0 9.14-4.08 14.52-12.45 14.52zm0 0"/></symbol><symbol overflow="visible" id="553e5a64b"><path d="M32.98-40.1H7.28V0h6.47v-34.47h19.23zm0 0"/></symbol><symbol overflow="visible" id="553e5a64c"><path d="M39.36-5.67v-34.44h-28c-.16 6.92-.34 13.86-.81 19.42-.64 7.36-2.52 12.72-4.7 15.02H.78v16.34H6.8V0h32.55v10.67h6.05V-5.67zm-26.9 0c2.13-3.13 3.43-8.69 3.91-14.75.27-3.92.55-9.03.74-14.2h15.87v28.95zm0 0"/></symbol><symbol overflow="visible" id="553e5a64d"><path d="M20.03 1.14c11.94 0 19.63-7.42 21.56-19.08 1.8-10.78-1.51-17.14-12-21.48-7.26-3.02-9.75-4.35-9.75-7.25 0-3 3.2-4.14 8.4-4.69 3.87-.37 10.23-1.02 15.23-1.17l-.08-5.75c-5.56.14-12.03.87-17.19 1.51-7.15.93-12.8 3.74-12.8 10.22 0 4.35 3.32 7.35 8.54 9.14l-.14.35c-8.82.83-16 6.39-18.07 17.75-2.14 12 3.63 20.45 16.3 20.45zm.47-5.6c-9.08 0-11.81-6.09-10.22-14.85 1.69-9.07 6.1-14.02 14.56-14.02 8.61 0 11.85 5.75 10.29 14.7C33.52-9.74 29.1-4.45 20.5-4.45zm0 0"/></symbol><symbol overflow="visible" id="553e5a64e"><path d="M36.53-40.1H10.81L3.7 0h6.48l6.14-34.47H35.5zm0 0"/></symbol><symbol overflow="visible" id="553e5a64f"><path d="M36.8-5.67l6.06-34.44H14.89c-1.36 6.92-2.81 14.78-4.27 20.34-1.93 7.35-4.71 11.8-7.26 14.1h-5.11l-2.86 16.34h6.02L3.3 0h32.53l-1.9 10.67H40l2.86-16.34zm-26.47 0c2.78-3.13 4.53-7.55 6.1-13.72.98-3.97 2.2-9.75 3.3-15.23h15.82L30.44-5.68zm0 0"/></symbol><symbol overflow="visible" id="553e5a64g"><path d="M44.72-40.1h-33.9L3.68 0h6.48l6.1-34.28h20.95L31.12 0h6.47zm0 0"/></symbol><symbol overflow="visible" id="553e5a64h"><path d="M37.83-40.1H4.19l-1.03 5.63H16.8L10.67 0h6.47l6.14-34.47H36.8zm0 0"/></symbol><symbol overflow="visible" id="553e5a64i"><path d="M58.36-40.1L52.23-5.68h-17.3l6.13-34.44H34.6L28.45-5.67h-17.3l6.15-34.44H10.8L3.7 0h54.03l7.12-40.1zm0 0"/></symbol><symbol overflow="visible" id="553e5a64j"><path d="M3.83 0v-5.95H6.2v-.82H.45v.82h2.4V0zm0 0"/></symbol><symbol overflow="visible" id="553e5a64k"><path d="M5.75-2.23v-.43c0-1.6-.9-2.51-2.42-2.51S.87-4.16.87-2.48c0 1.71.91 2.62 2.5 2.62 1.43 0 2.07-.56 2.29-1.52l-.9-.09c-.18.61-.59.9-1.35.9-.94 0-1.52-.54-1.58-1.66zm-2.4-2.2c.93 0 1.43.5 1.48 1.55H1.84c.08-1.07.6-1.56 1.5-1.56zm0 0"/></symbol><symbol overflow="visible" id="553e5a64l"><path d="M1.83 0l1.42-2h.06l1.46 2H5.8L4-2.53l1.78-2.49H4.8L3.42-3.08h-.08l-1.4-1.94H.89l1.78 2.49L.84 0zm0 0"/></symbol><symbol overflow="visible" id="553e5a64m"><path d="M5.52-4.25v-.77H3.17v-1.56h-.81l-.14 1.56H.75v.77h1.47v2.4c0 1.3.48 1.94 1.84 1.94C4.6.1 5.14 0 5.55-.14L5.4-.91c-.32.13-.72.2-1.13.2-.8 0-1.1-.37-1.1-1.23v-2.31zm0 0"/></symbol><symbol overflow="visible" id="553e5a64n"><path d="M3.33-3.42c.47 0 .8-.27.8-.8 0-.51-.33-.8-.8-.8-.47 0-.8.29-.8.8 0 .53.33.8.8.8zm0 3.5c.47 0 .8-.27.8-.78 0-.53-.33-.82-.8-.82-.47 0-.8.29-.8.82 0 .51.33.78.8.78zm0 0"/></symbol><symbol overflow="visible" id="553e5a64p"><path d="M3.4.14c1.55 0 2.46-.95 2.46-2.62 0-1.63-.9-2.47-2.19-2.47a2 2 0 0 0-1.9 1.14h-.05c.12-1.55.42-2.13 1.92-2.36.88-.14 1.38-.19 1.86-.25l-.08-.86c-.56.05-1.06.1-1.92.25-2.06.36-2.58 1.34-2.58 4C.92-.78 1.87.14 3.4.14zm0-.75c-1 0-1.5-.72-1.5-1.92 0-1.08.65-1.72 1.58-1.72s1.4.58 1.4 1.78c0 1.25-.49 1.86-1.49 1.86zm0 0"/></symbol><symbol overflow="visible" id="553e5a64q"><path d="M1.44-5.02V0h.95v-4.25h3.22v-.77zm0 0"/></symbol><symbol overflow="visible" id="553e5a64r"><path d="M5.36-5.02H1.7c-.03.82-.06 1.77-.12 2.44-.08.9-.3 1.52-.58 1.81H.4v2.1h.88V0H5.2v1.33h.88v-2.1h-.72zM1.9-.77c.25-.39.4-1.03.47-1.75.04-.46.07-1.12.1-1.75h1.97v3.5zm0 0"/></symbol><symbol overflow="visible" id="553e5a64s"><path d="M1.1-5.02V0h.96v-4.22h2.55V0h.95v-5.02zm0 0"/></symbol><symbol overflow="visible" id="553e5a64t"><path d="M.95-5.02v.77h1.9V0h.96v-4.25h1.9v-.77zm0 0"/></symbol><symbol overflow="visible" id="553e5a64u"><path d="M5.19-.73H3.75v-4.29h-.83v4.29H1.47v-4.29H.64V0h5.4v-5.02h-.85zm0 0"/></symbol><symbol overflow="visible" id="553e5a64v"><path d="M5.95-6.77H1.1V0h.99v-2.92H5.3v-.77H2.08v-2.26h3.87zm0 0"/></symbol><symbol overflow="visible" id="553e5a64w"><path d="M2.83.14c.94 0 1.5-.39 1.81-.95h.08l.1.81h.76v-3.38c0-1.23-.69-1.8-2.13-1.8-1.43 0-2.03.65-2.18 1.6l.93.1c.11-.6.44-.93 1.22-.93.85 0 1.22.32 1.22 1.04v.34l-1.81.2C1.6-2.7 1.1-2.17 1.1-1.28c0 .92.64 1.42 1.72 1.42zm.25-.77c-.67 0-1.02-.28-1.02-.74 0-.44.28-.72 1-.82l1.58-.19v.41c0 .8-.6 1.34-1.56 1.34zm0 0"/></symbol><symbol overflow="visible" id="553e5a64x"><path d="M2.73.14c.9 0 1.43-.45 1.74-1.08h.06l.13.94h.8v-5.02h-.94v2.7c0 .98-.57 1.62-1.46 1.62-.75 0-1.1-.4-1.1-1.22v-3.1h-.93v3.32c0 1.17.55 1.84 1.7 1.84zm0 0"/></symbol><symbol overflow="visible" id="553e5a64y"><path d="M5.08-5.16c-.94 0-1.58.43-1.9 1.3h-.09l-.07-1.16H1.05v.77h1.1v3.48H.96V0h3.96v-.77H3.1v-1.46c0-1.36.6-2.05 1.83-2.05.4 0 .76.08 1.1.17l.15-.87c-.33-.11-.7-.18-1.11-.18zm0 0"/></symbol><symbol overflow="visible" id="553e5a64z"><path d="M.92-6.77V0h2.11c2.03 0 3.03-1.03 3.03-3.36 0-2.39-1.01-3.4-2.93-3.4zM1.91-.8v-5.17h1.18c1.29 0 1.96.63 1.96 2.61 0 1.94-.67 2.56-1.96 2.56zm0 0"/></symbol><symbol overflow="visible" id="553e5a64A"><path d="M4.63-6.5c.45 0 .98.08 1.39.2l.2-.72a5.3 5.3 0 0 0-1.64-.26c-1.52 0-2.16.56-2.16 1.87v.4H.9v.76h1.53V0h.94v-4.25h2.53v-.77H3.36v-.3c0-.84.33-1.18 1.27-1.18zm0 0"/></symbol><symbol overflow="visible" id="553e5a64B"><path d="M3.92-7.14H1.36v.76h1.6v5.61H1.15V0H5.7v-.77H3.92zm0 0"/></symbol><symbol overflow="visible" id="553e5a64C"><path d="M3.42.14c1.61 0 2.56-.75 2.56-2 0-1.1-.67-1.6-1.95-1.86l-.97-.2c-.87-.17-1.23-.49-1.23-1.11 0-.7.54-1.11 1.5-1.11 1.06 0 1.51.34 1.69 1.23l.9-.09c-.17-1.28-.98-1.9-2.6-1.9C1.79-6.9.9-6.18.9-4.98c0 1.06.66 1.66 1.88 1.9l1.01.2c.85.17 1.25.4 1.25 1.09 0 .73-.6 1.16-1.6 1.16-1.07 0-1.66-.4-1.8-1.24l-.94.1C.83-.53 1.75.13 3.42.13zm0 0"/></symbol><symbol overflow="visible" id="553e5a64D"><path d="M3.9.14c1.48 0 2.18-.98 2.18-2.64 0-1.67-.7-2.66-2.17-2.66-.91 0-1.49.41-1.79 1h-.06v-2.98h-.95V0h.81l.11-.9h.06c.29.63.82 1.04 1.82 1.04zm-.32-.8c-1.08 0-1.55-.8-1.55-1.84 0-1.06.47-1.86 1.55-1.86 1.1 0 1.51.61 1.51 1.86S4.64-.66 3.58-.66zm0 0"/></symbol><symbol overflow="visible" id="553e5a64E"><path d="M3.58-5.81c.42 0 .72-.22.72-.67 0-.44-.3-.68-.72-.68-.44 0-.72.24-.72.68 0 .45.28.67.72.67zm.5.8H1.52v.76h1.6v3.48h-1.8V0h4.46v-.77h-1.7zm0 0"/></symbol><symbol overflow="visible" id="553e5a64F"><path d="M2.16 0v-2.67c0-.99.59-1.63 1.46-1.63.74 0 1.07.38 1.07 1.22V0h.95v-3.31c0-1.2-.56-1.85-1.67-1.85-.92 0-1.49.46-1.77 1.08h-.06l-.12-.94H1.2V0zm0 0"/></symbol><symbol overflow="visible" id="553e5a64G"><path d="M2.58.95l2.39-8.67h-.9L1.7.95zm0 0"/></symbol><symbol overflow="visible" id="553e5a64H"><path d="M1.64 0v-3.17l-.16-2.5h.1L2.9-1.83h.82l1.35-3.84h.1l-.16 2.5V0h.95v-6.77h-1.3l-1.3 3.82h-.09L2-6.77H.69V0zm0 0"/></symbol><symbol overflow="visible" id="553e5a64I"><path d="M3.34.14c1.43 0 2.13-.66 2.25-1.78l-.89-.1c-.1.7-.5 1.08-1.34 1.08-1.03 0-1.52-.64-1.52-1.84 0-1.23.47-1.86 1.52-1.86.84 0 1.23.36 1.34 1.08l.9-.1c-.13-1.09-.82-1.78-2.26-1.78-1.56 0-2.46.97-2.46 2.66 0 1.66.9 2.64 2.46 2.64zm0 0"/></symbol><symbol overflow="visible" id="553e5a64J"><path d="M2.84.14C3.8.14 4.33-.26 4.6-.9h.07L4.8 0h.76v-7.14h-.95v2.95h-.08c-.28-.6-.86-.97-1.67-.97-1.48 0-2.27.99-2.27 2.64C.6-.84 1.36.14 2.84.14zm.22-.8c-.98 0-1.48-.59-1.48-1.84s.5-1.86 1.48-1.86c1.13 0 1.58.8 1.58 1.86S4.2-.66 3.06-.66zm0 0"/></symbol><symbol overflow="visible" id="553e5a64K"><path d="M3.33.14c1.62 0 2.5-.95 2.5-2.66 0-1.68-.88-2.64-2.5-2.64-1.63 0-2.5.96-2.5 2.64 0 1.7.87 2.66 2.5 2.66zm0-.77c-1.06 0-1.52-.6-1.52-1.89 0-1.28.46-1.87 1.52-1.87 1.08 0 1.53.6 1.53 1.87 0 1.29-.45 1.9-1.53 1.9zm0 0"/></symbol><symbol overflow="visible" id="553e5a64L"><path d="M1.63 0v-2.9c0-.8.15-1.4.71-1.4.41 0 .55.3.55.88V0h.95v-2.9c0-.8.18-1.4.72-1.4.4 0 .57.3.57.88V0h.95v-3.63c0-.92-.28-1.53-1.11-1.53-.63 0-.95.41-1.1.9h-.06c-.1-.52-.44-.9-1.08-.9-.6 0-.93.41-1.06.9H1.6l-.23-.76H.67V0zm0 0"/></symbol><symbol overflow="visible" id="553e5a64M"><path d="M3.36.16c1.4 0 2.2-.6 2.2-1.57 0-.89-.54-1.22-1.47-1.39L3-3c-.67-.14-.86-.33-.86-.73 0-.5.4-.74 1.17-.74.83 0 1.19.27 1.27.8l.9-.05c-.12-1-.8-1.47-2.17-1.47-1.34 0-2.1.53-2.1 1.5 0 .81.45 1.22 1.52 1.44l1.04.2c.56.11.87.24.87.72 0 .52-.45.78-1.28.78-.95 0-1.36-.28-1.42-.87l-.9.06C1.07-.36 1.8.16 3.35.16zm0 0"/></symbol><symbol overflow="visible" id="553e5a64N"><path d="M1.45-2.95c0 2.56 1.08 4.37 3.67 4.84l.11-.67C3.28.86 2.43-.75 2.43-2.95s.85-3.82 2.8-4.16l-.1-.69c-2.6.49-3.68 2.3-3.68 4.85zm0 0"/></symbol><symbol overflow="visible" id="553e5a64O"><path d="M3.16 2.03c1.67 0 2.4-.86 2.4-2.51v-4.54h-.81l-.13.91h-.06c-.26-.58-.8-1.05-1.73-1.05-1.42 0-2.24 1-2.24 2.52 0 1.6.75 2.56 2.2 2.56.94 0 1.5-.5 1.77-1.03h.05v.72c0 1.17-.42 1.67-1.45 1.67-.93 0-1.3-.34-1.41-.89L.8.5c.12.96.87 1.54 2.36 1.54zM3.06-.8c-.98 0-1.48-.57-1.48-1.82 0-1.13.5-1.75 1.48-1.75 1.06 0 1.58.76 1.58 1.75 0 .95-.56 1.82-1.58 1.82zm0 0"/></symbol><symbol overflow="visible" id="553e5a64P"><path d="M3.33.14c1.65 0 2.6-1.1 2.6-3.52S4.99-6.9 3.34-6.9C1.67-6.9.72-5.8.72-3.37c0 2.4.95 3.51 2.6 3.51zm0-.84c-1.13 0-1.6-.85-1.6-2.67 0-1.86.47-2.7 1.6-2.7 1.12 0 1.6.84 1.6 2.7 0 1.82-.48 2.67-1.6 2.67zM3.3-2.64c.38 0 .56-.28.56-.72 0-.44-.18-.7-.56-.7-.39 0-.56.26-.56.7 0 .44.17.72.56.72zm0 0"/></symbol><symbol overflow="visible" id="553e5a64Q"><path d="M.92-4.42h.88v-1.49h3.1v.05L2.27 0H3.3l2.64-6v-.77H.92zm0 0"/></symbol><symbol overflow="visible" id="553e5a64R"><path d="M1.45-7.1c1.96.33 2.8 1.94 2.8 4.15 0 2.2-.84 3.8-2.8 4.17l.11.67c2.58-.47 3.67-2.28 3.67-4.84 0-2.55-1.09-4.36-3.67-4.85zm0 0"/></symbol></defs><use xlink:href="#553e5a64a" x="89.40952" y="159" fill="#fff"/><g fill="#515151"><use xlink:href="#553e5a64b" x="135.2" y="159"/><use xlink:href="#553e5a64c" x="165.408" y="159"/></g><use xlink:href="#553e5a64d" x="234.4381" y="159" fill="#fff"/><g fill="#515151"><use xlink:href="#553e5a64e" x="280.3048" y="159"/><use xlink:href="#553e5a64f" x="310.5128" y="159"/></g><use xlink:href="#553e5a64g" x="358.7208" y="159" fill="#515151"/><use xlink:href="#553e5a64h" x="407.1688" y="159" fill="#515151"/><use xlink:href="#553e5a64i" x="442.0968" y="159" fill="#515151"/><g fill="#fff"><use xlink:href="#553e5a64j" x="246.6667" y="252"/><use xlink:href="#553e5a64k" x="253.3337" y="252"/><use xlink:href="#553e5a64l" x="260.0007" y="252"/><use xlink:href="#553e5a64m" x="266.6677" y="252"/><use xlink:href="#553e5a64n" x="273.3347" y="252"/><use xlink:href="#553e5a64o" x="280.0017" y="252"/><use xlink:href="#553e5a64p" x="286.6687" y="252"/><use xlink:href="#553e5a64q" x="293.3357" y="252"/><use xlink:href="#553e5a64r" x="300.0027" y="252"/><use xlink:href="#553e5a64o" x="306.6697" y="252"/><use xlink:href="#553e5a64p" x="313.3367" y="252"/><use xlink:href="#553e5a64q" x="320.0037" y="252"/><use xlink:href="#553e5a64r" x="326.6707" y="252"/><use xlink:href="#553e5a64s" x="333.3377" y="252"/><use xlink:href="#553e5a64t" x="340.0047" y="252"/><use xlink:href="#553e5a64u" x="346.6717" y="252"/></g><g fill="#fff"><use xlink:href="#553e5a64v" x="86.66667" y="266"/><use xlink:href="#553e5a64k" x="93.33367" y="266"/><use xlink:href="#553e5a64w" x="100.00067" y="266"/><use xlink:href="#553e5a64m" x="106.66767" y="266"/><use xlink:href="#553e5a64x" x="113.33467" y="266"/><use xlink:href="#553e5a64y" x="120.00167" y="266"/><use xlink:href="#553e5a64k" x="126.66867" y="266"/><use xlink:href="#553e5a64n" x="133.33567" y="266"/><use xlink:href="#553e5a64o" x="140.00267" y="266"/><use xlink:href="#553e5a64z" x="146.66967" y="266"/><use xlink:href="#553e5a64k" x="153.33667" y="266"/><use xlink:href="#553e5a64A" x="160.00367" y="266"/><use xlink:href="#553e5a64w" x="166.67067" y="266"/><use xlink:href="#553e5a64x" x="173.33767" y="266"/><use xlink:href="#553e5a64B" x="180.00467" y="266"/><use xlink:href="#553e5a64m" x="186.67167" y="266"/><use xlink:href="#553e5a64o" x="193.33867" y="266"/><use xlink:href="#553e5a64C" x="200.00567" y="266"/><use xlink:href="#553e5a64k" x="206.67267" y="266"/><use xlink:href="#553e5a64y" x="213.33967" y="266"/><use xlink:href="#553e5a64D" x="220.00667" y="266"/><use xlink:href="#553e5a64E" x="226.67367" y="266"/><use xlink:href="#553e5a64w" x="233.34067" y="266"/><use xlink:href="#553e5a64F" x="240.00767" y="266"/><use xlink:href="#553e5a64G" x="246.67467" y="266"/><use xlink:href="#553e5a64H" x="253.34167" y="266"/><use xlink:href="#553e5a64w" x="260.00867" y="266"/><use xlink:href="#553e5a64I" x="266.67567" y="266"/><use xlink:href="#553e5a64k" x="273.34267" y="266"/><use xlink:href="#553e5a64J" x="280.00967" y="266"/><use xlink:href="#553e5a64K" x="286.67667" y="266"/><use xlink:href="#553e5a64F" x="293.34367" y="266"/><use xlink:href="#553e5a64E" x="300.01067" y="266"/><use xlink:href="#553e5a64w" x="306.67767" y="266"/><use xlink:href="#553e5a64F" x="313.34467" y="266"/><use xlink:href="#553e5a64o" x="320.01167" y="266"/><use xlink:href="#553e5a64A" x="326.67867" y="266"/><use xlink:href="#553e5a64K" x="333.34567" y="266"/><use xlink:href="#553e5a64y" x="340.01267" y="266"/><use xlink:href="#553e5a64L" x="346.67967" y="266"/><use xlink:href="#553e5a64M" x="353.34667" y="266"/><use xlink:href="#553e5a64o" x="360.01367" y="266"/><use xlink:href="#553e5a64N" x="366.68067" y="266"/><use xlink:href="#553e5a64M" x="373.34767" y="266"/><use xlink:href="#553e5a64k" x="380.01467" y="266"/><use xlink:href="#553e5a64m" x="386.68167" y="266"/><use xlink:href="#553e5a64o" x="393.34867" y="266"/><use xlink:href="#553e5a64B" x="400.01567" y="266"/><use xlink:href="#553e5a64w" x="406.68267" y="266"/><use xlink:href="#553e5a64F" x="413.34967" y="266"/><use xlink:href="#553e5a64O" x="420.01667" y="266"/><use xlink:href="#553e5a64x" x="426.68367" y="266"/><use xlink:href="#553e5a64w" x="433.35067" y="266"/><use xlink:href="#553e5a64O" x="440.01767" y="266"/><use xlink:href="#553e5a64k" x="446.68467" y="266"/><use xlink:href="#553e5a64o" x="453.35167" y="266"/><use xlink:href="#553e5a64K" x="460.01867" y="266"/><use xlink:href="#553e5a64y" x="466.68567" y="266"/><use xlink:href="#553e5a64o" x="473.35267" y="266"/><use xlink:href="#553e5a64M" x="480.01967" y="266"/><use xlink:href="#553e5a64M" x="486.68667" y="266"/><use xlink:href="#553e5a64P" x="493.35367" y="266"/><use xlink:href="#553e5a64Q" x="500.02067" y="266"/><use xlink:href="#553e5a64R" x="506.68767" y="266"/></g></svg>