<?xml version='1.0' encoding='UTF-8'?>
<svg xmlns="http://www.w3.org/2000/svg" xmlns:xlink="http://www.w3.org/1999/xlink" width="600px" height="300px" viewBox="0 0 600 300" x="0px" y="0px" enable-background="new 0 0 600 300"><defs><symbol overflow="visible" id="be8e67afa"><path d="M3.2 0h37.9v-5.83H12.09v-.37l12.84-10.4c8.4-6.8 15.53-13.42 15.53-23.13 0-9.2-5.64-15.5-17.48-15.5-12.8 0-17.99 7.8-19.24 18.51l6.68.49c.87-8.08 3.95-13.33 12.48-13.33 7.47 0 10.86 3.65 10.86 10.2 0 6.72-4.8 11.67-13.48 19.13L3.2-5.45zm0 0"/></symbol><symbol overflow="visible" id="be8e67afb"><path d="M23.73 1.14c12.04 0 19.35-6.67 19.35-18.62 0-11.32-6.55-17.54-16.83-17.54-6.48 0-10.75 2.49-13.94 6.22h-.39l2.6-19.47h25.21v-5.82H9.25L5.72-22.8h5.51c2.49-3.04 7.29-6.74 13.38-6.74 7.7 0 11.92 3.67 11.92 12.31 0 8.58-4.72 12.84-12.8 12.84-6.86 0-10.93-2.7-12.53-8.3l-6.51.6c1.06 8.69 8.3 13.22 19.04 13.22zm0 0"/></symbol><symbol overflow="visible" id="be8e67afc"><path d="M15.28-22.47c8.14 0 12.56-3.17 12.56-8.95 0-5.42-4.26-7.28-8.15-7.4v-.23c3.6-.3 7.39-2.93 7.39-7.54 0-5.1-4.11-8.27-11.66-8.27-7.69 0-11.1 3.7-11.84 8.88l5.53.6c.53-3.12 2.31-4.98 6.31-4.98 3.9 0 6.06 1.25 6.06 4.34 0 3.27-2.51 5.07-7.73 5.07h-1.9v4.37h1.95c5.51 0 8.53.92 8.53 4.58 0 3.23-2.14 5.03-7.05 5.03-4.58 0-6.48-1.87-7.05-4.87l-5.53.6c.7 5.41 4.42 8.77 12.58 8.77zM15.55 0h5.78l35.6-54.1h-5.8zm45.1 0h5.6v-6.36h4v-4.6h-4v-19.9h-8.16L42.8-10.75v4.4h17.85zM48.8-10.97v-.19l11.65-15.17h.2v15.36zm0 0"/></symbol><symbol overflow="visible" id="be8e67afd"><path d="M20.77-28.1v-26h-5.2L5.46-50.2v4.87c3.13-1.08 6.32-2.22 9.44-3.28v20.5H4.31v4.88h23.53v-4.88zm0 0"/></symbol><symbol overflow="visible" id="be8e67afe"><path d="M3.36-23.23h23.72v-4.85H11.2v-.26l6.97-4.77c5.83-3.92 8.9-6.78 8.9-12.72 0-5.33-3.65-9.03-11.23-9.03-8.18 0-11.39 4.61-12 10.6l5.41.57c.55-3.89 2.14-6.56 6.6-6.56 4 0 5.68 1.88 5.68 4.84 0 3.61-2.6 6.02-7.1 9.38L3.37-27.77zM15.55 0h5.78l35.6-54.1h-5.8zm34.51 0h6.36l13.75-26.36v-4.5H47.02v4.88h16.71v.23zm0 0"/></symbol><symbol overflow="visible" id="be8e67aff"><path d="M14.47-31.63c-7.61 0-12 4.27-12 10.75 0 6.25 4.12 9.94 10.3 9.94 4.56 0 7.39-2.2 8.76-4.75h.27c-.27 8.64-2.57 11.96-7.63 11.96-3.76 0-5.1-1.91-5.75-3.96l-5.4.64C3.84-2.63 7.36.77 14.17.77c8.64 0 12.85-5.96 12.85-17.49 0-10.14-4.85-14.9-12.55-14.9zm-.03 4.43c3.89 0 6.4 2.48 6.4 6.06 0 3.89-2.9 6.25-6.56 6.25-4 0-6.39-2.33-6.39-6.14 0-3.92 2.52-6.17 6.55-6.17zm0 0"/></symbol><symbol overflow="visible" id="be8e67afg"><path d="M15.9-22.52c7.22 0 12-3.65 12-10.8 0-6.57-4.06-10.23-10.07-10.23-4.3 0-6.6 1.72-8.19 3.58h-.23l1.3-9.25h15.04v-4.87H6.52L4.23-35.84h4.61c1.63-1.75 3.85-3.66 7.43-3.66 3.92 0 6.17 1.9 6.17 6.13 0 4.39-2.6 6.4-6.6 6.4-3.92 0-5.98-1.53-6.8-4.23l-5.46.6c.76 5.27 5.06 8.08 12.31 8.08zM15.54 0h5.78l35.6-54.1h-5.8zm40.9-31.63c-7.6 0-12 4.27-12 10.75 0 6.25 4.13 9.94 10.3 9.94 4.56 0 7.4-2.2 8.75-4.75h.27c-.27 8.64-2.55 11.96-7.61 11.96-3.78 0-5.11-1.91-5.75-3.96l-5.43.64C45.83-2.63 49.33.77 56.16.77c8.64 0 12.82-5.96 12.82-17.49 0-10.14-4.82-14.9-12.53-14.9zm-.03 4.43c3.9 0 6.4 2.48 6.4 6.06 0 3.89-2.9 6.25-6.55 6.25-4 0-6.41-2.33-6.41-6.14 0-3.92 2.52-6.17 6.56-6.17zm0 0"/></symbol><symbol overflow="visible" id="be8e67afh"><path d="M3.83 0v-5.95H6.2v-.82H.45v.82h2.4V0zm0 0"/></symbol><symbol overflow="visible" id="be8e67afi"><path d="M5.75-2.23v-.43c0-1.6-.9-2.51-2.42-2.51S.87-4.16.87-2.48c0 1.71.91 2.62 2.5 2.62 1.43 0 2.07-.56 2.29-1.52l-.9-.09c-.18.61-.59.9-1.35.9-.94 0-1.52-.54-1.58-1.66zm-2.4-2.2c.93 0 1.43.5 1.48 1.55H1.84c.08-1.07.6-1.56 1.5-1.56zm0 0"/></symbol><symbol overflow="visible" id="be8e67afj"><path d="M1.83 0l1.42-2h.06l1.46 2H5.8L4-2.53l1.78-2.49H4.8L3.42-3.08h-.08l-1.4-1.94H.89l1.78 2.49L.84 0zm0 0"/></symbol><symbol overflow="visible" id="be8e67afk"><path d="M5.52-4.25v-.77H3.17v-1.56h-.81l-.14 1.56H.75v.77h1.47v2.4c0 1.3.48 1.94 1.84 1.94C4.6.1 5.14 0 5.55-.14L5.4-.91c-.32.13-.72.2-1.13.2-.8 0-1.1-.37-1.1-1.23v-2.31zm0 0"/></symbol><symbol overflow="visible" id="be8e67afl"><path d="M3.33-3.42c.47 0 .8-.27.8-.8 0-.51-.33-.8-.8-.8-.47 0-.8.29-.8.8 0 .53.33.8.8.8zm0 3.5c.47 0 .8-.27.8-.78 0-.53-.33-.82-.8-.82-.47 0-.8.29-.8.82 0 .51.33.78.8.78zm0 0"/></symbol><symbol overflow="visible" id="be8e67afn"><path d="M5.67 0v-.86H2.14V-.9L3.6-2c1.05-.83 2-1.68 2-2.91 0-1.19-.73-1.99-2.26-1.99-1.66 0-2.3 1.02-2.44 2.33l1 .08c.1-.92.42-1.58 1.44-1.58.87 0 1.26.44 1.26 1.24 0 .9-.8 1.53-1.96 2.53L.83-.81V0zm0 0"/></symbol><symbol overflow="visible" id="be8e67afo"><path d="M3.42.14c1.55 0 2.44-.84 2.44-2.33 0-1.45-.83-2.22-2.14-2.22-.75 0-1.28.27-1.67.72H2l.31-2.22h3.11v-.86H1.53l-.45 3.93h.81c.3-.36.9-.79 1.58-.79.92 0 1.44.43 1.44 1.47 0 .99-.54 1.5-1.49 1.5-.83 0-1.28-.32-1.5-1.01l-.95.1C1.07-.46 2 .13 3.42.13zm0 0"/></symbol><symbol overflow="visible" id="be8e67afp"><path d="M3.25.14c1.58 0 2.53-.69 2.53-1.95 0-1.19-.92-1.56-1.6-1.61v-.05A1.6 1.6 0 0 0 5.6-5.12c0-1.13-.87-1.79-2.3-1.79-1.62 0-2.32.82-2.45 1.88l.97.06c.13-.69.52-1.1 1.47-1.1.86 0 1.35.32 1.35 1.05 0 .86-.6 1.2-1.66 1.2h-.49v.79h.54c1.12 0 1.78.25 1.78 1.14 0 .78-.46 1.22-1.55 1.22-1.06 0-1.48-.4-1.63-1.1l-.98.07C.75-.56 1.56.14 3.25.14zm0 0"/></symbol><symbol overflow="visible" id="be8e67afq"><path d="M2.58.95l2.39-8.67h-.9L1.7.95zm0 0"/></symbol><symbol overflow="visible" id="be8e67afr"><path d="M5.1 0v-1.47H6v-.81h-.9v-4.49H3.8L.48-2.23v.76h3.66V0zM1.5-2.33l2.6-3.53h.04v3.58H1.5zm0 0"/></symbol><symbol overflow="visible" id="be8e67afs"><path d="M4.22-6.77h-.86l-2.03.7v.87c.64-.17 1.26-.38 1.89-.55v4.9H1.03V0h4.9v-.86H4.21zm0 0"/></symbol><symbol overflow="visible" id="be8e67aft"><path d="M.92-4.42h.88v-1.49h3.1v.05L2.27 0H3.3l2.64-6v-.77H.92zm0 0"/></symbol><symbol overflow="visible" id="be8e67afu"><path d="M3.25-6.9C1.67-6.9.77-6.04.77-4.6c0 1.41.85 2.18 2.21 2.18 1.04 0 1.58-.52 1.88-1.03h.06c0 1.54-.39 2.78-1.73 2.78-.9 0-1.24-.44-1.36-.97l-.97.1c.22.96.86 1.68 2.33 1.68C4.83.14 5.8-.9 5.8-3.64c0-2.22-.92-3.27-2.56-3.27zm-.02.8c.91 0 1.46.52 1.46 1.44 0 .91-.69 1.47-1.53 1.47-.91 0-1.46-.51-1.46-1.47S2.3-6.1 3.23-6.1zm0 0"/></symbol><symbol overflow="visible" id="be8e67afv"><path d="M5.95-6.77H1.1V0h.99v-2.92H5.3v-.77H2.08v-2.26h3.87zm0 0"/></symbol><symbol overflow="visible" id="be8e67afw"><path d="M2.83.14c.94 0 1.5-.39 1.81-.95h.08l.1.81h.76v-3.38c0-1.23-.69-1.8-2.13-1.8-1.43 0-2.03.65-2.18 1.6l.93.1c.11-.6.44-.93 1.22-.93.85 0 1.22.32 1.22 1.04v.34l-1.81.2C1.6-2.7 1.1-2.17 1.1-1.28c0 .92.64 1.42 1.72 1.42zm.25-.77c-.67 0-1.02-.28-1.02-.74 0-.44.28-.72 1-.82l1.58-.19v.41c0 .8-.6 1.34-1.56 1.34zm0 0"/></symbol><symbol overflow="visible" id="be8e67afx"><path d="M2.73.14c.9 0 1.43-.45 1.74-1.08h.06l.13.94h.8v-5.02h-.94v2.7c0 .98-.57 1.62-1.46 1.62-.75 0-1.1-.4-1.1-1.22v-3.1h-.93v3.32c0 1.17.55 1.84 1.7 1.84zm0 0"/></symbol><symbol overflow="visible" id="be8e67afy"><path d="M5.08-5.16c-.94 0-1.58.43-1.9 1.3h-.09l-.07-1.16H1.05v.77h1.1v3.48H.96V0h3.96v-.77H3.1v-1.46c0-1.36.6-2.05 1.83-2.05.4 0 .76.08 1.1.17l.15-.87c-.33-.11-.7-.18-1.11-.18zm0 0"/></symbol><symbol overflow="visible" id="be8e67afz"><path d="M3.34.14c1.43 0 2.13-.66 2.25-1.78l-.89-.1c-.1.7-.5 1.08-1.34 1.08-1.03 0-1.52-.64-1.52-1.84 0-1.23.47-1.86 1.52-1.86.84 0 1.23.36 1.34 1.08l.9-.1c-.13-1.09-.82-1.78-2.26-1.78-1.56 0-2.46.97-2.46 2.66 0 1.66.9 2.64 2.46 2.64zm0 0"/></symbol><symbol overflow="visible" id="be8e67afA"><path d="M3.58-5.81c.42 0 .72-.22.72-.67 0-.44-.3-.68-.72-.68-.44 0-.72.24-.72.68 0 .45.28.67.72.67zm.5.8H1.52v.76h1.6v3.48h-1.8V0h4.46v-.77h-1.7zm0 0"/></symbol><symbol overflow="visible" id="be8e67afB"><path d="M3.33.14c1.62 0 2.5-.95 2.5-2.66 0-1.68-.88-2.64-2.5-2.64-1.63 0-2.5.96-2.5 2.64 0 1.7.87 2.66 2.5 2.66zm0-.77c-1.06 0-1.52-.6-1.52-1.89 0-1.28.46-1.87 1.52-1.87 1.08 0 1.53.6 1.53 1.87 0 1.29-.45 1.9-1.53 1.9zm0 0"/></symbol><symbol overflow="visible" id="be8e67afC"><path d="M2.16 0v-2.67c0-.99.59-1.63 1.46-1.63.74 0 1.07.38 1.07 1.22V0h.95v-3.31c0-1.2-.56-1.85-1.67-1.85-.92 0-1.49.46-1.77 1.08h-.06l-.12-.94H1.2V0zm0 0"/></symbol><symbol overflow="visible" id="be8e67afD"><path d="M3.36.16c1.4 0 2.2-.6 2.2-1.57 0-.89-.54-1.22-1.47-1.39L3-3c-.67-.14-.86-.33-.86-.73 0-.5.4-.74 1.17-.74.83 0 1.19.27 1.27.8l.9-.05c-.12-1-.8-1.47-2.17-1.47-1.34 0-2.1.53-2.1 1.5 0 .81.45 1.22 1.52 1.44l1.04.2c.56.11.87.24.87.72 0 .52-.45.78-1.28.78-.95 0-1.36-.28-1.42-.87l-.9.06C1.07-.36 1.8.16 3.35.16zm0 0"/></symbol><symbol overflow="visible" id="be8e67afE"><path d="M1.45-2.95c0 2.56 1.08 4.37 3.67 4.84l.11-.67C3.28.86 2.43-.75 2.43-2.95s.85-3.82 2.8-4.16l-.1-.69c-2.6.49-3.68 2.3-3.68 4.85zm0 0"/></symbol><symbol overflow="visible" id="be8e67afF"><path d="M4.63-6.5c.45 0 .98.08 1.39.2l.2-.72a5.3 5.3 0 0 0-1.64-.26c-1.52 0-2.16.56-2.16 1.87v.4H.9v.76h1.53V0h.94v-4.25h2.53v-.77H3.36v-.3c0-.84.33-1.18 1.27-1.18zm0 0"/></symbol><symbol overflow="visible" id="be8e67afG"><path d="M1.45-7.1c1.96.33 2.8 1.94 2.8 4.15 0 2.2-.84 3.8-2.8 4.17l.11.67c2.58-.47 3.67-2.28 3.67-4.84 0-2.55-1.09-4.36-3.67-4.85zm0 0"/></symbol></defs><g fill="#515151"><use xlink:href="#be8e67afa" x="83.65714" y="159"/><use xlink:href="#be8e67afb" x="128.91314" y="159"/></g><use xlink:href="#be8e67afc" x="196.3429" y="159" fill="#fff"/><use xlink:href="#be8e67afd" x="289.6381" y="159" fill="#fff"/><use xlink:href="#be8e67afe" x="320.1143" y="159" fill="#fff"/><use xlink:href="#be8e67aff" x="392.5714" y="159" fill="#fff"/><use xlink:href="#be8e67afg" x="443.8857" y="159" fill="#fff"/><g fill="#fff"><use xlink:href="#be8e67afh" x="226.6667" y="252"/><use xlink:href="#be8e67afi" x="233.3337" y="252"/><use xlink:href="#be8e67afj" x="240.0007" y="252"/><use xlink:href="#be8e67afk" x="246.6677" y="252"/><use xlink:href="#be8e67afl" x="253.3347" y="252"/><use xlink:href="#be8e67afm" x="260.0017" y="252"/><use xlink:href="#be8e67afn" x="266.6687" y="252"/><use xlink:href="#be8e67afo" x="273.3357" y="252"/><use xlink:href="#be8e67afm" x="280.0027" y="252"/><use xlink:href="#be8e67afp" x="286.6697" y="252"/><use xlink:href="#be8e67afq" x="293.3367" y="252"/><use xlink:href="#be8e67afr" x="300.0037" y="252"/><use xlink:href="#be8e67afm" x="306.6707" y="252"/><use xlink:href="#be8e67afs" x="313.3377" y="252"/><use xlink:href="#be8e67afn" x="320.0047" y="252"/><use xlink:href="#be8e67afq" x="326.6717" y="252"/><use xlink:href="#be8e67aft" x="333.3387" y="252"/><use xlink:href="#be8e67afu" x="340.0057" y="252"/><use xlink:href="#be8e67afm" x="346.6727" y="252"/><use xlink:href="#be8e67afo" x="353.3397" y="252"/><use xlink:href="#be8e67afq" x="360.0067" y="252"/><use xlink:href="#be8e67afu" x="366.6737" y="252"/></g><g fill="#fff"><use xlink:href="#be8e67afv" x="216.6667" y="266"/><use xlink:href="#be8e67afi" x="223.3337" y="266"/><use xlink:href="#be8e67afw" x="230.0007" y="266"/><use xlink:href="#be8e67afk" x="236.6677" y="266"/><use xlink:href="#be8e67afx" x="243.3347" y="266"/><use xlink:href="#be8e67afy" x="250.0017" y="266"/><use xlink:href="#be8e67afi" x="256.6687" y="266"/><use xlink:href="#be8e67afl" x="263.3357" y="266"/><use xlink:href="#be8e67afm" x="270.0027" y="266"/><use xlink:href="#be8e67afv" x="276.6697" y="266"/><use xlink:href="#be8e67afy" x="283.3367" y="266"/><use xlink:href="#be8e67afw" x="290.0037" y="266"/><use xlink:href="#be8e67afz" x="296.6707" y="266"/><use xlink:href="#be8e67afk" x="303.3377" y="266"/><use xlink:href="#be8e67afA" x="310.0047" y="266"/><use xlink:href="#be8e67afB" x="316.6717" y="266"/><use xlink:href="#be8e67afC" x="323.3387" y="266"/><use xlink:href="#be8e67afD" x="330.0057" y="266"/><use xlink:href="#be8e67afm" x="336.6727" y="266"/><use xlink:href="#be8e67afE" x="343.3397" y="266"/><use xlink:href="#be8e67afF" x="350.0067" y="266"/><use xlink:href="#be8e67afy" x="356.6737" y="266"/><use xlink:href="#be8e67afw" x="363.3407" y="266"/><use xlink:href="#be8e67afz" x="370.0077" y="266"/><use xlink:href="#be8e67afG" x="376.6747" y="266"/></g></svg>