<?xml version='1.0' encoding='UTF-8'?>
<svg xmlns="http://www.w3.org/2000/svg" xmlns:xlink="http://www.w3.org/1999/xlink" width="1000px" height="2400px" viewBox="0 0 1000 2400" x="0px" y="0px" enable-background="new 0 0 1000 2400"><defs><symbol overflow="visible" id="43d85ea7a"><path d="M37.8 2.6h19.86v-8.8c24.84-2.1 37.3-13 37.3-33.32 0-20.35-12.46-31.14-37.3-33.25v-7.46H37.8v7.46C12.9-70.66.5-59.87.5-39.52.5-19.2 12.9-8.3 37.8-6.2zm.87-23.63C25.9-22.7 20.86-28.61 20.86-39.52c0-10.89 5.03-16.76 17.81-18.42zm18.11 0v-36.9c12.78 1.65 17.81 7.52 17.81 18.41 0 10.91-5.03 16.83-17.8 18.49zm0 0"/></symbol><symbol overflow="visible" id="43d85ea7b"><path d="M60.92-24.02v-7.03c0-19.03-10.95-29.87-28.94-29.87-18.15 0-29.76 11.62-29.76 31.48C2.22-9.8 13 1.66 32.2 1.66c16.72 0 24.13-6.14 28.28-19.82H42.05c-2.1 3.88-3.82 5.99-9.4 5.99-6.2 0-9.74-3.55-10.68-11.85zM32.16-47.03c5.97 0 9.23 3.48 9.89 11.12H22.08c1.1-7.97 4.48-11.12 10.08-11.12zm0 0"/></symbol><symbol overflow="visible" id="43d85ea7c"><path d="M63.69-58.98H14.17c-.5 12.56-1.22 25.73-2.04 33.75-.85 7.46-3 9.8-7.49 9.8-1.6 0-2.81-.23-4.1-.34V.43c2.83.5 6.16.9 9.3.9 14.18 0 18.49-7.8 19.82-23.63.45-4.98.89-13.23 1.28-21.25h12.83V0h19.92zm0 0"/></symbol><symbol overflow="visible" id="43d85ea7d"><path d="M5.1 0h18.37l20.08-33.14h.1V0h18.88v-58.98H44.11L24.08-25.84h-.13v-33.14H5.1zm0 0"/></symbol><symbol overflow="visible" id="43d85ea7e"><path d="M63.19-58.98H42.72l-17.6 27.06h-.1v-27.06H5.09V0h19.93v-28.94h.1L42.11 0H64.3L44.55-32.42zm0 0"/></symbol><symbol overflow="visible" id="43d85ea7f"><path d="M31.48 1.66c18.49 0 26.35-8.85 29.05-25.57H41.67c-1.72 6.64-3.55 10.13-9.51 10.13-6.88 0-9.7-5.7-9.7-15.44 0-10.45 2.82-15.98 9.7-15.98 5.97 0 7.84 3.2 9.4 9.84h18.92c-2.15-16.55-10.12-25.28-29-25.28-17.92 0-29.26 11.34-29.26 31.42 0 19.6 11.34 30.88 29.26 30.88zm0 0"/></symbol><symbol overflow="visible" id="43d85ea7h"><path d="M6.86 0h20.86v-30.16h26.95V0h20.86v-76.36H54.67v29.44H27.72v-29.44H6.86zm0 0"/></symbol><symbol overflow="visible" id="43d85ea7i"><path d="M32.38 1.66c19.14 0 30.2-11.46 30.2-31.16 0-19.64-11.06-31.14-30.2-31.14-19.1 0-30.16 11.5-30.16 31.14 0 19.7 11.06 31.16 30.16 31.16zm0-15.05c-6.86 0-9.97-4.66-9.97-16.11 0-11.28 3.1-16.1 9.96-16.1 6.97 0 10.02 4.82 10.02 16.1 0 11.45-3.05 16.1-10.02 16.1zm0 0"/></symbol><symbol overflow="visible" id="43d85ea7j"><path d="M50.63-30.48v-.11c5.3-1.33 9.8-5.43 9.8-12.79 0-11.01-6.48-15.6-22.2-15.6H5.1V0h32.64C54.5 0 62.25-4.77 62.25-16.44c0-7.97-4.98-12.45-11.63-14.04zm-17.54-16.5c6.25 0 8.13 1.5 8.13 5.42 0 3.94-1.88 5.92-8.34 5.92h-8.76v-11.34zm1.33 34.92h-10.3v-11.9h10.2c6.29 0 8.5 1.77 8.5 5.87 0 4.09-2.04 6.03-8.4 6.03zm0 0"/></symbol><symbol overflow="visible" id="43d85ea7k"><path d="M33.19-37.05L30-18.94a27.14 27.14 0 01-12.1 2.92c-5.59 0-10.43-1.93-8.98-10.03l1.99-11H8.03L6.05-25.89c-1.61 9.14 4.28 12.53 11.6 12.53 4.16 0 8.55-1.1 11.83-2.77L26.61 0h2.87l6.58-37.05zm0 0"/></symbol><symbol overflow="visible" id="43d85ea7l"><path d="M24.84-27.3H2.66l-.47 2.57h9.65L7.52 0h2.87l4.33-24.73h9.65zm0 0"/></symbol><symbol overflow="visible" id="43d85ea7m"><path d="M13.63.78c7.82 0 12.98-4.9 14.6-14.19 1.46-8.51-2.09-14.67-10.43-14.67-7.78 0-12.94 4.86-14.61 14.14C1.67-5.42 5.27.78 13.63.78zm.24-2.66C6.84-1.88 4.76-7 6.12-13.94c1.51-7.67 5.06-11.48 11.42-11.48 7.05 0 9.14 5.06 7.78 12.01C23.8-5.69 20.25-1.87 13.88-1.87zm0 0"/></symbol><symbol overflow="visible" id="43d85ea7o"><path d="M29.69-27.3H7.72L2.92 0H5.8l4.33-24.63h16.23L22.02 0h2.87zm0 0"/></symbol><symbol overflow="visible" id="43d85ea7p"><path d="M1.1 10.44h2.87l2.72-15.4h.2C7.94-2.24 10.13.79 15.92.79c7.1 0 12.11-5.06 13.67-13.94 1.46-8.23-1.56-14.92-10.28-14.92-4.6 0-7.67 2.19-9.39 5.42H9.7l.27-4.64H7.72zM16.16-1.87c-6.94 0-9.44-5.02-8.19-12 1.14-6.38 4.49-11.55 10.96-11.55 7.15 0 8.98 5.17 7.73 12.26-1.31 7.43-5.17 11.29-10.5 11.29zm0 0"/></symbol><symbol overflow="visible" id="43d85ea7q"><path d="M2.92 0h2.92L26.2-22.44h.2L22.45 0h2.87l4.8-27.3h-2.92L6.79-4.8h-.17l3.97-22.5H7.72zm0 0"/></symbol><symbol overflow="visible" id="43d85ea7r"><path d="M12.14.78c7.14 0 12-3.19 12-9.23 0-3.55-2.3-5.11-4.48-5.43v-.21c2.96-.43 6-2.93 6-7.57 0-3.86-2.83-6.42-9.25-6.42-7.36 0-10.02 3.19-11.9 7.88l2.88.37c1.66-4.08 3.7-5.75 8.77-5.75 5.15 0 6.78 1.63 6.78 4.28 0 3.93-2.77 6.11-7.67 6.11h-4.29l-.42 2.46h4.28c4.55 0 6.54 1.4 6.54 4.54 0 3.9-3.46 6.47-8.99 6.47S5.2-3.23 4.52-7.78l-2.72.16C2.37-1.88 4.72.78 12.14.78zm0 0"/></symbol><symbol overflow="visible" id="43d85ea7s"><path d="M40.08-27.3L35.75-2.56H22.44l4.33-24.74H23.9L19.56-2.56H6.26L10.6-27.3H7.72L2.92 0h35.24l4.8-27.3zm0 0"/></symbol><symbol overflow="visible" id="43d85ea7t"><path d="M28.81-27.3H10.4A756.37 756.37 0 016.31-9.8c-1.3 5.26-2.6 7.4-5.64 7.4-.62 0-1.25-.09-1.56-.15L-1.3 0C-.9.1-.06.27.72.27c4.96 0 6.63-3.3 8.24-9.82.8-3.23 2.45-10.43 3.5-15.18h13L21.07 0h2.88zm0 0"/></symbol><symbol overflow="visible" id="43d85ea7u"><path d="M24-27.3l-2.3 13.11a19.78 19.78 0 01-8.54 1.97c-5.18 0-7.36-1.4-6.27-7.83l1.25-7.25H5.27L3.9-19.4c-1.2 6.93 2.2 9.74 8.82 9.74 3.35 0 6.47-.93 8.5-1.92L19.2 0h2.88l4.8-27.3zm0 0"/></symbol><symbol overflow="visible" id="43d85ea7v"><path d="M14.83.78c7.87 0 12.98-4.9 14.65-14.19 1.47-8.25-2.09-14.25-10.43-14.25-5.07 0-8.72 2.7-10.8 6.36h-.22c2.88-9.75 4.97-13.6 14.83-14.72 4.12-.46 6.78-.78 9.7-1.09l-.15-2.81c-2.57.26-5.07.51-9.86 1.14-11.8 1.51-15.03 7.67-17.64 22.3C3.12-6.58 5.48.78 14.83.78zm.31-2.66C8.1-1.88 6-7 7.36-13.94c1.51-7.67 5.58-11.22 11.42-11.22 7.05 0 9.14 5.07 7.78 11.75C25-5.69 21.5-1.87 15.14-1.87zm0 0"/></symbol><symbol overflow="visible" id="43d85ea7w"><path d="M24.78-27.3L11.38-2.97h-.2L5.8-27.3H2.92l6 27.3h1C6.36 6.42 4.48 8.56.67 8.56c-.72 0-1.92-.22-2.81-.47l-.52 2.55c.79.27 2.2.58 3.4.58C6.68 11.22 8.55 7.4 12.68 0l15.23-27.3zm0 0"/></symbol><symbol overflow="visible" id="43d85ea7x"><path d="M23.53-2.56l4.34-24.74h-17.7c-1.04 4.75-2.34 11.33-3.33 15.08-1.42 5.38-3.18 8.1-5.06 9.66H-1.4L-3.13 7.3h2.7L.84 0h23.44l-1.25 7.31h2.71l1.72-9.87zm-18.42 0C6.89-4.44 8.3-7.62 9.39-12c.78-3.14 1.94-8.3 2.88-12.73h12.3L20.73-2.56zm0 0"/></symbol><symbol overflow="visible" id="43d85ea7y"><path d="M27.03-12.73c.27-1.46.53-3.5.53-4.8 0-6.74-3.6-10.55-10.18-10.55-7.41 0-12.58 5.11-14.15 13.9C1.72-5.65 5.11.77 13.83.77c6.31 0 9.7-2.72 11.6-7.36l-2.77-.36c-1.47 3.35-3.88 5.16-8.57 5.16-6.78 0-9.14-4.53-8.25-10.95zm-9.81-12.79c6.37 0 8.3 4.07 7.4 10.38H6.32c1.62-6.78 5.1-10.38 10.9-10.38zm0 0"/></symbol><symbol overflow="visible" id="43d85ea7z"><path d="M10.6.78c5.06 0 8.56-2.72 10-5.48h.12L20.25 0h2.25l2.97-17.02c1.25-7.3-1.67-11.06-9.03-11.06-6.74 0-9.74 3.03-11.42 8.03l2.8.49c1.37-3.97 3.4-6.02 8.35-6.02 5.02 0 6.85 2.05 6.85 5.75 0 .78-.2 2.45-.52 3.86l-10.23 1.05c-6.74.67-10.49 3.19-10.49 8.56C1.78-1.78 5.06.78 10.6.78zm.26-2.45c-4.02 0-6.22-1.67-6.22-4.8 0-3.97 2.61-5.6 7.58-6.1l9.86-1.05-.63 3.5c-.84 4.59-5.48 8.45-10.6 8.45zm0 0"/></symbol><symbol overflow="visible" id="43d85ea7A"><path d="M21.4-13.78l.05-.2c2.93-.74 5.85-2.82 5.85-7.16 0-4.22-2.99-6.16-8.14-6.16H7.72L2.92 0h11.53C21.92 0 25.9-2.81 25.9-8.34c0-2.72-1.31-4.7-4.5-5.44zm-2.5-11c3.85 0 5.68.98 5.68 3.86 0 3.8-2.61 5.73-7.88 5.73H8.45l1.72-9.6zM14.71-2.5H6.2l1.83-10.23h8.52c4.6 0 6.57 1.25 6.57 4.39 0 4.26-3.18 5.84-8.4 5.84zm0 0"/></symbol><symbol overflow="visible" id="43d85ea7B"><path d="M10.02-8.34h2.82l.57-3.4c.68-3.96 3.76-5.8 6.8-7.82 3.63-2.4 7.18-5.07 7.18-11.55 0-4.95-3.6-8.03-9.48-8.03-8.3 0-11.8 3.6-14.25 10.8l2.86.3c1.98-5.68 4.54-8.5 10.92-8.5 4.73 0 7.18 2.04 7.18 5.74 0 5.07-2.96 7.27-6.15 9.4-3.33 2.24-6.99 4.38-7.88 9.67zm.42 8.6c1.51 0 2.6-.93 2.6-2.67 0-1.18-.82-1.82-1.77-1.82-1.61 0-2.61.95-2.61 2.67 0 1.2.8 1.83 1.78 1.83zm0 0"/></symbol><symbol overflow="visible" id="43d85ea7C"><path d="M9.47.4c5.44 0 8.7-3.71 8.7-9.87 0-6.14-3.28-9.86-8.69-9.86-4.34 0-7.17 2.24-8.09 6.06l1.9.16c.88-3.1 2.87-4.5 6.2-4.5 4.15 0 6.42 2.58 6.71 7.14H7.42v1.67h8.81c-.18 4.75-2.5 7.49-6.76 7.49-3.53 0-5.49-1.42-6.2-4.55l-1.93.17c.7 3.86 3.54 6.1 8.13 6.1zm0 0"/></symbol><symbol overflow="visible" id="43d85ea7D"><path d="M13.83-13.98H4.09c-.09 2.48-.3 6.8-.45 8.87-.2 2.56-.66 3.58-2.14 3.58-.31 0-.66-.03-.84-.06L.53.05c.24.07.78.12 1.24.12 2.6 0 3.37-1.6 3.59-4.98.1-1.6.31-5.08.4-7.55h6.2V0h1.87zm0 0"/></symbol><symbol overflow="visible" id="43d85ea7E"><path d="M13.44-13.98h-2.35l-6.5 6.1H4.5v-6.1H2.62V0H4.5v-6.73h.1L11.3 0h2.4L6.35-7.42zm0 0"/></symbol><symbol overflow="visible" id="43d85ea7F"><path d="M6.17.4C8.6.4 10.23-.7 11.05-2.32h.1L11.42 0h1.51v-9.55c0-3.34-1.84-4.86-5.44-4.86-3.53 0-5.15 1.7-5.53 4.29l1.85.17c.3-1.83 1.3-2.88 3.68-2.88 2.46 0 3.61.97 3.61 3.36v1.14l-4.86.61c-3.37.42-4.82 1.66-4.82 4.17C1.4-1 3.14.4 6.17.4zm.27-1.57c-2.16 0-3.14-.9-3.14-2.47 0-1.44.84-2.31 3-2.61l4.8-.67v1.48c0 2.5-1.88 4.27-4.66 4.27zm0 0"/></symbol><symbol overflow="visible" id="43d85ea7H"><path d="M8.2.4c4.08 0 6.66-2.3 6.66-6.53 0-3.84-2.27-6.01-5.75-6.01-2.4 0-3.95.94-5.1 2.3h-.1l.93-7.4h8.93v-1.7H3.34L2.11-7.97h1.58a6.56 6.56 0 014.98-2.55c2.8 0 4.33 1.38 4.33 4.49 0 3.25-1.84 4.8-4.8 4.8-2.53 0-4.06-.99-4.6-3l-1.88.18C2.23-1.1 4.66.41 8.2.41zm0 0"/></symbol><symbol overflow="visible" id="43d85ea7I"><path d="M9.02.4c4.56 0 7.07-3.37 7.07-9.85 0-6.53-2.51-9.88-7.07-9.88-4.6 0-7.08 3.35-7.08 9.88C1.94-2.97 4.42.4 9.02.4zm0-1.7c-3.68 0-5.14-2.8-5.14-8.15 0-5.4 1.46-8.2 5.14-8.2 3.64 0 5.12 2.8 5.12 8.2 0 5.34-1.48 8.15-5.12 8.15zm0 0"/></symbol><symbol overflow="visible" id="43d85ea7J"><path d="M3.05 0H4.8v-16.78h.16L11.67 0h1.97l6.69-16.78h.17V0h1.86v-18.94h-2.98L12.8-2.3h-.12L6.05-18.94h-3zm0 0"/></symbol><symbol overflow="visible" id="43d85ea7K"><path d="M2.14-6.4H22.7v-1.58H2.14zm0 0"/></symbol><symbol overflow="visible" id="43d85ea7L"><path d="M8.67.4c4.02 0 6.56-2.62 6.56-7.37 0-4.81-2.46-7.12-6.01-7.12a5.66 5.66 0 00-5.47 3.5h-.13c.43-4.85 1.3-6.57 5.65-7.32 2.23-.37 3.59-.53 4.96-.68l-.14-1.82c-1.54.18-2.71.32-5.04.74-5.64.98-6.9 3.86-6.9 11.1C2.14-2.04 4.71.42 8.66.42zm.02-1.67c-3.08 0-4.64-2.14-4.64-6.01 0-3.19 1.97-5.27 4.84-5.27 2.88 0 4.42 1.8 4.42 5.53 0 3.88-1.56 5.75-4.62 5.75zm0 0"/></symbol><symbol overflow="visible" id="43d85ea7M"><path d="M8.05.4c4.1 0 6.54-2.65 6.54-7.42 0-4.75-2.43-7.37-6.54-7.37-4.1 0-6.55 2.62-6.55 7.37C1.5-2.25 3.95.41 8.05.41zm0-1.67c-3.07 0-4.63-1.87-4.63-5.75 0-3.86 1.56-5.71 4.63-5.71 3.1 0 4.64 1.86 4.64 5.71 0 3.88-1.55 5.75-4.64 5.75zm0 0"/></symbol><symbol overflow="visible" id="43d85ea7N"><path d="M11.36-13.98H2.63V0H4.5v-12.36h6.86zm0 0"/></symbol><symbol overflow="visible" id="43d85ea7O"><path d="M2.63 5.3H4.5v-7.63h.1A4.87 4.87 0 009.24.41c3.94 0 6.14-2.74 6.14-7.41s-2.2-7.4-6.07-7.4a5.07 5.07 0 00-4.72 2.9h-.11l-.33-2.48H2.63zM9-1.28C5.9-1.28 4.4-3.77 4.4-7c0-3.23 1.5-5.7 4.6-5.7 2.97 0 4.45 1.86 4.45 5.7 0 3.86-1.48 5.72-4.45 5.72zm0 0"/></symbol><symbol overflow="visible" id="43d85ea7P"><path d="M7.94.4c3.53 0 5.45-1.74 5.81-4.68l-1.84-.17c-.33 2.14-1.55 3.18-3.97 3.18-2.99 0-4.52-1.96-4.52-5.73 0-3.78 1.52-5.73 4.49-5.73 2.4 0 3.68 1.06 3.98 3.23l1.86-.19c-.38-2.97-2.36-4.7-5.84-4.7C3.94-14.4 1.5-11.66 1.5-7 1.5-2.33 3.95.4 7.94.4zm0 0"/></symbol><symbol overflow="visible" id="43d85ea7Q"><path d="M2.63 0h1.92l7.89-11.22h.1V0h1.85v-13.98h-1.92L4.57-2.77h-.1v-11.21H2.63zm0 0"/></symbol><symbol overflow="visible" id="43d85ea7R"><path d="M8.52-15.95c2.9 0 4.1-1.57 4.12-4.28H11.1c0 1.76-.57 2.89-2.57 2.89-1.99 0-2.57-1.13-2.57-2.9H4.4c.02 2.72 1.16 4.29 4.13 4.29zM2.62 0h1.93l7.89-11.22h.1V0h1.85v-13.98h-1.92L4.57-2.77h-.1v-11.21H2.63zm0 0"/></symbol><symbol overflow="visible" id="43d85ea7S"><path d="M9.27 5.3h1.86V.36C16.27.08 19-2.62 19-6.98c0-4.36-2.72-7.08-7.88-7.38V-20H9.28v5.64c-5.2.27-7.9 3-7.9 7.38 0 4.37 2.7 7.07 7.9 7.34zm.03-6.53c-4.27-.24-6.02-2.33-6.02-5.75 0-3.43 1.75-5.54 6.02-5.77zm1.78 0v-11.52c4.25.25 6.03 2.34 6.03 5.77 0 3.42-1.78 5.48-6.03 5.75zm0 0"/></symbol><symbol overflow="visible" id="43d85ea7T"><path d="M2.63 0h1.64v-11.88h.12L9.3 0h1.66l4.9-11.88h.1V0h1.8v-13.98h-2.72L10.25-2.31h-.1l-4.8-11.67H2.64zm0 0"/></symbol><symbol overflow="visible" id="43d85ea7U"><path d="M14.03-6.4v-1.05c0-4.5-2.36-6.96-6.2-6.96-3.8 0-6.33 2.63-6.33 7.49C1.5-2.17 3.98.4 8.02.4c3.53 0 5.15-1.68 5.75-3.9l-1.86-.18c-.46 1.42-1.47 2.44-3.9 2.44-2.8 0-4.46-1.7-4.6-5.18zm-6.2-6.4c2.72 0 4.23 1.6 4.36 4.9H3.42c.27-3.33 1.81-4.9 4.4-4.9zm0 0"/></symbol><symbol overflow="visible" id="43d85ea7V"><path d="M11.73-13.98H.17v1.62h4.86V0H6.9v-12.36h4.84zm0 0"/></symbol><symbol overflow="visible" id="43d85ea7W"><path d="M10.94-13.98v6.48a8.2 8.2 0 01-4.05 1.08c-2.45 0-3.6-.7-3.6-3.78v-3.78H1.43v4.2c0 3.73 1.88 5 5.16 5a9.6 9.6 0 004.36-1.06V0h1.86v-13.98zm0 0"/></symbol><symbol overflow="visible" id="43d85ea7X"><path d="M8.6-8.97H4.5v-5.01H2.62V0H8.6c3.66 0 5.32-1.6 5.32-4.5s-1.66-4.47-5.32-4.47zm-.2 7.4H4.5v-5.84h3.9c2.6 0 3.63.82 3.63 2.91 0 2.1-1.03 2.92-3.64 2.92zm0 0"/></symbol><symbol overflow="visible" id="43d85ea7Y"><path d="M11.4-13.98L7.03-1.83h-.13L2.23-13.98h-2L5.7 0h.68C5.17 3.02 4.05 4 2.44 4c-.4 0-1.06-.06-1.58-.19l-.2 1.61c.48.16 1.2.27 1.84.27 2.95 0 4.27-2 5.64-5.69l5.2-13.98zm0 0"/></symbol><symbol overflow="visible" id="43d85ea7Z"><path d="M12.81-13.98H6.6c-3.45 0-5.17 1.43-5.17 4.2 0 2.5 1.42 4 4.1 4.17L1.32 0H3.5l4.06-5.48h3.4V0h1.85zm-6.1 6.95c-2.43 0-3.4-.83-3.4-2.74 0-1.89.97-2.64 3.4-2.64h4.24v5.38zm0 0"/></symbol><symbol overflow="visible" id="43d85ea7aa"><path d="M14.17-13.98H2.63V0H4.5v-12.3h7.81V0h1.86zm0 0"/></symbol><symbol overflow="visible" id="43d85ea7ab"><path d="M12.4-13.98v5.93H4.5v-5.93H2.62V0H4.5v-6.4h7.9V0h1.88v-13.98zm0 0"/></symbol><symbol overflow="visible" id="43d85ea7ac"><path d="M7.3.4c4.17 0 6.5-2.76 6.5-7.4 0-4.66-2.3-7.4-6.49-7.4-3.43 0-5.43 1.82-5.92 4.57l1.84.19c.44-2 1.72-3.14 4.08-3.14 2.92 0 4.36 1.62 4.58 4.86H5.6v1.54h6.33c-.17 3.36-1.64 5.16-4.62 5.16-2.46 0-3.61-1.16-4.07-3.1l-1.84.18C1.8-1.41 3.72.4 7.3.4zm0 0"/></symbol><symbol overflow="visible" id="43d85ea7ad"><path d="M2.14-6.4h7.9v-1.58h-7.9zm0 0"/></symbol><symbol overflow="visible" id="43d85ea7ae"><path d="M1.22 0h13.01v-1.69H3.81v-.1l4.9-4.18c2.93-2.47 5.27-4.72 5.27-8.08 0-3.1-1.92-5.28-5.9-5.28-4.31 0-6.16 2.63-6.63 6.42l1.88.14c.34-3.06 1.58-4.9 4.72-4.9 2.75 0 4.01 1.34 4.01 3.69 0 2.6-1.75 4.37-4.54 6.84l-6.3 5.58zm0 0"/></symbol><symbol overflow="visible" id="43d85ea7af"><path d="M13.86-9.45v-.14c2.19-.46 3.34-1.85 3.34-4.5 0-2.96-1.68-4.85-6-4.85H3.05V0h8.1c4.35 0 6.5-1.81 6.5-4.95 0-2.97-1.59-4.1-3.8-4.5zm-2.58-7.85c2.81 0 4.05 1.25 4.05 3.5 0 2.24-1.24 3.55-4.05 3.55H4.92v-7.05zm-.01 15.66H4.92v-7.02h6.35c3 0 4.51 1.02 4.51 3.5 0 2.47-1.51 3.52-4.51 3.52zm0 0"/></symbol><symbol overflow="visible" id="43d85ea7ag"><path d="M3.2.23c.85 0 1.49-.48 1.49-1.46 0-.99-.64-1.47-1.49-1.47-.87 0-1.48.48-1.48 1.47 0 .98.6 1.46 1.48 1.46zm0 0"/></symbol><symbol overflow="visible" id="43d85ea7ah"><path d="M2.63 0H8.3c3.67 0 5.3-1.6 5.3-4.5s-1.63-4.47-5.3-4.47H4.5v-5.01H2.62zm13.43 0h1.88v-13.98h-1.88zM4.5-1.58V-7.4h3.63c2.6 0 3.64.82 3.64 2.91 0 2.1-1.04 2.92-3.64 2.92zm0 0"/></symbol><symbol overflow="visible" id="43d85ea7ai"><path d="M5.45 0h1.86v-18.94H5.95L.97-17.02v1.7c1.5-.5 2.98-1.04 4.48-1.54zm0 0"/></symbol><symbol overflow="visible" id="43d85ea7aj"><path d="M8.23-19.33c-4.14 0-6.56 2.3-6.56 6.38 0 3.9 2.47 6.1 6.16 6.1 2.76 0 4.6-1.5 5.42-3.23h.13C13.18-4.9 12.27-1.27 8-1.27c-2.6 0-3.66-1.21-4.1-2.84l-1.87.2C2.58-1.5 4.41.41 8 .41c4.52 0 7.1-2.96 7.1-10.91 0-6.1-2.66-8.83-6.87-8.83zM8.2-17.7c2.9 0 4.68 2 4.68 4.54 0 2.75-1.99 4.72-4.82 4.72-2.9 0-4.53-1.6-4.53-4.64 0-3.04 1.77-4.62 4.67-4.62zm0 0"/></symbol><symbol overflow="visible" id="43d85ea7ak"><path d="M2.58 0h2l8.17-17.42v-1.52H.41v1.7h10.3v.1zm0 0"/></symbol><symbol overflow="visible" id="43d85ea7al"><path d="M9.02.44c4.4 0 7.23-2 7.23-5.44 0-2.9-2.23-4.42-3.86-4.81v-.13a4.4 4.4 0 003.19-4.37c0-3.17-2.56-5.03-6.56-5.03-3.99 0-6.54 1.86-6.54 5.03a4.41 4.41 0 003.16 4.37v.13A4.92 4.92 0 001.77-5C1.77-1.56 4.59.44 9.02.44zm0-10.97c-3.22 0-4.7-1.53-4.7-3.6 0-2.48 1.66-3.59 4.7-3.59 3.03 0 4.7 1.11 4.7 3.6 0 2.06-1.52 3.59-4.7 3.59zm0 9.36c-3.43 0-5.36-1.35-5.36-3.99C3.66-7.53 5.4-9 9.02-9c3.59 0 5.37 1.47 5.37 3.84 0 2.64-1.95 3.99-5.37 3.99zm0 0"/></symbol><symbol overflow="visible" id="43d85ea7am"><path d="M13.4-1.64v-12.34H3.98c-.08 2.42-.17 5.09-.33 7.03-.23 2.65-.87 4.51-1.67 5.3H.27v5.38h1.75V0h11.7v3.73h1.75v-5.37zm-9.46 0c.76-1.1 1.22-3.06 1.39-5.27.12-1.48.22-3.5.31-5.48h5.94v10.75zm0 0"/></symbol><symbol overflow="visible" id="43d85ea7an"><path d="M7.38.4c3.9 0 5.76-1.68 5.76-4.07 0-2.19-1.42-3.25-2.97-3.42v-.13c1.47-.31 2.63-1.3 2.61-3.31 0-2.3-1.69-3.86-5.37-3.86-3.79 0-5.4 1.69-5.75 4.16l1.84.15c.36-1.95 1.45-2.73 3.9-2.73 2.74 0 3.57 1.06 3.57 2.4 0 1.66-1.02 2.5-3.2 2.5H5.53v1.54h2.24c2.6 0 3.54.78 3.54 2.51 0 1.66-1.15 2.69-3.94 2.69-2.67 0-3.87-.97-4.15-2.92l-1.83.15C1.7-1.28 3.45.41 7.38.41zm0 0"/></symbol><symbol overflow="visible" id="43d85ea7ao"><path d="M11.28-7.1v-.12c1.53-.4 2.38-1.39 2.38-3.1 0-2.32-1.4-3.66-4.77-3.66H2.62V0H8.9c3.66 0 5.16-1.34 5.16-3.78 0-1.94-1.05-2.9-2.77-3.31zm-2.51-5.34c2.34 0 3.09.69 3.09 2.19 0 1.52-.81 2.38-3.48 2.38h-3.9v-4.57zM8.75-1.56H4.48v-4.8h4.05c2.6 0 3.7.66 3.7 2.4 0 1.73-.89 2.4-3.48 2.4zm0 0"/></symbol><symbol overflow="visible" id="43d85ea7ap"><path d="M18.03-.92v-1.86l-6.08-4.38v-.14l6.08-4.37v-1.86L9.86-8.02v1.58zm-8.26 0v-1.86L3.69-7.16v-.14l6.08-4.37v-1.86L1.59-8.02v1.58zm0 0"/></symbol><symbol overflow="visible" id="43d85ea7aq"><path d="M10.45.4c5.57 0 8.85-3.67 8.85-9.87 0-6.2-3.28-9.86-8.85-9.86-5.54 0-8.84 3.66-8.84 9.86 0 6.2 3.3 9.88 8.84 9.88zm0-1.71c-4.47 0-6.86-2.85-6.86-8.16 0-5.3 2.4-8.14 6.86-8.14 4.49 0 6.88 2.84 6.88 8.14 0 5.31-2.4 8.16-6.88 8.16zm0 0"/></symbol><symbol overflow="visible" id="43d85ea7ar"><path d="M.81 0h2.03l3.93-5.69h.12L10.97 0h2.15L8.1-6.98l4.94-7H11L7.14-8.44h-.1l-3.98-5.54H.92l4.92 6.82zm0 0"/></symbol><symbol overflow="visible" id="43d85ea7as"><path d="M10.4-13.53v1.86l6.07 4.36v.14L10.4-2.78v1.86l8.15-5.52v-1.58zm-8.26 0v1.86L8.2-7.31v.14L2.14-2.78v1.86l8.16-5.52v-1.58zm0 0"/></symbol><symbol overflow="visible" id="43d85ea7at"><path d="M5.94 5.3H7.8A29.35 29.35 0 014.3-8.27c0-5.71 1.83-10.3 3.5-13.56H5.94c-2 3.75-3.63 8.02-3.63 13.56 0 5.55 1.63 9.82 3.63 13.57zm0 0"/></symbol><symbol overflow="visible" id="43d85ea7au"><path d="M10.31.4c4.56 0 7.28-2.3 8-6.26l-1.92-.17c-.7 3.23-2.52 4.72-6.08 4.72-4.4 0-6.72-2.97-6.72-8.16 0-5.19 2.32-8.14 6.72-8.14 3.55 0 5.3 1.47 6.05 4.67l1.9-.14c-.73-4.01-3.43-6.25-7.95-6.25-5.42 0-8.7 3.72-8.7 9.86C1.6-3.3 4.87.41 10.3.41zm0 0"/></symbol><symbol overflow="visible" id="43d85ea7av"><path d="M1.9-21.83H.06A29.34 29.34 0 013.56-8.27C3.56-2.55 1.72 2.05.05 5.3H1.9C3.92 1.55 5.53-2.72 5.53-8.27c0-5.54-1.6-9.8-3.62-13.56zm0 0"/></symbol><symbol overflow="visible" id="43d85ea7aw"><path d="M3.05 0H4.8v-16.78h.16L11.67 0h1.97l6.69-16.78h.17V0h1.86v-18.94h-2.98L12.8-2.3h-.12L6.05-18.94h-3zm0 0"/></symbol><symbol overflow="visible" id="43d85ea7ax"><path d="M13.95.4c3.97 0 6.38-2.65 6.38-7.42 0-4.75-2.4-7.37-6.38-7.37-3.68 0-6.01 2.25-6.34 6.34H4.5v-5.93H2.62V0H4.5v-6.4h3.1C7.76-2.03 10.13.4 13.94.4zm0-1.67c-2.93 0-4.47-1.87-4.47-5.75 0-3.86 1.54-5.71 4.47-5.71 2.94 0 4.46 1.86 4.46 5.71 0 3.88-1.52 5.75-4.46 5.75zm0 0"/></symbol><symbol overflow="visible" id="43d85ea7ay"><path d="M69.23 2.81c42.22 0 65.1-24.76 65.1-67.54 0-42.77-22.88-67.54-65.1-67.54-42.21 0-65.1 24.77-65.1 67.54 0 42.78 22.89 67.54 65.1 67.54zm0-31.89c-16.32 0-22.89-13.7-22.89-35.65 0-21.96 6.57-35.64 22.9-35.64 16.3 0 22.89 13.68 22.89 35.64 0 21.95-6.58 35.65-22.9 35.65zm0 0"/></symbol><symbol overflow="visible" id="43d85ea7az"><path d="M77.67-80.3H49.72v-17.64h64.36v-31.51H9.38V0h69.98c31.34 0 45.03-15.95 45.03-40.9 0-24.96-13.69-39.4-46.72-39.4zm-8.06 50.28H49.7v-22.14h19.9c12.19 0 15.75 4.13 15.75 11.07 0 6.95-3.56 11.07-15.75 11.07zm0 0"/></symbol><symbol overflow="visible" id="43d85ea7aA"><path d="M9.38 0h64.54c33.77 0 49.35-16.52 49.35-45.6 0-27.38-15.58-43.9-51.04-43.9H50.66v-39.95H9.38zM131.7 0h41.28v-129.45H131.7zM50.66-29.08v-30.86h14.07c12.94 0 18.38 4.69 18.38 15.85 0 10.7-5.44 15.01-18.38 15.01zm0 0"/></symbol><symbol overflow="visible" id="43d85ea7aB"><path d="M82.55-129.45v54.6c-5.44 2.43-11.07 3.55-17.82 3.55-12.01 0-18.2-5.43-18.2-20.08v-38.07H5.63v48.97c0 30.39 21.57 41.07 47.65 41.07 11.45 0 21.4-2.8 29.27-5.62V0h41.28v-129.45zm0 0"/></symbol><symbol overflow="visible" id="43d85ea7aC"><path d="M98.69 0h42.22L92.5-129.45H49.34L.94 0h38.65l6.2-18.95h47.09zM55.16-47.47l14.82-44.66h.2l13.87 44.66zm0 0"/></symbol><symbol overflow="visible" id="43d85ea7aD"><path d="M69.23-139.78c23.83 0 33.2-9.38 36.96-31.9H80.86c-1.5 7.5-3.75 11.26-11.06 11.26-7.32 0-9.58-3.75-11.08-11.25H32.64c3.75 22.51 12.2 31.89 36.6 31.89zM9.37 0h39.41l42.97-72.8h.19V0h39.39v-129.45h-39.4l-42.96 72.8h-.19v-72.8H9.38zm0 0"/></symbol><symbol overflow="visible" id="43d85ea7aE"><path d="M115.4-113.88H13.09V0H43.3v-89.1h41.87V0h30.24zm0 0"/></symbol><symbol overflow="visible" id="43d85ea7aF"><path d="M50.84 2.4c30.4 0 46.44-16.35 46.44-45.15 0-28.7-16.05-45.14-46.44-45.14-30.3 0-46.36 16.44-46.36 45.14 0 28.8 16.05 45.16 46.36 45.16zm0-21.8c-12.43 0-17-7.63-17-23.35 0-15.8 4.57-23.33 17-23.33 12.52 0 17.08 7.53 17.08 23.33 0 15.72-4.56 23.34-17.08 23.34zm0 0"/></symbol><symbol overflow="visible" id="43d85ea7aG"><path d="M49.08 2.4C77.7 2.4 89.8-9.37 92.06-31.43l-27.03-2.72c-1.28 9.07-4.89 14.2-15.08 14.2-11.54 0-16.1-8.27-16.1-22.38 0-15.16 4.56-23.18 16.2-23.18 10.01 0 13.7 5.2 14.98 14.44l27.03-2.73C89.73-74.58 78.11-87.9 49.08-87.9c-28.14 0-44.6 16.44-44.6 45.55 0 28.3 16.46 44.75 44.6 44.75zm0 0"/></symbol><symbol overflow="visible" id="43d85ea7aH"><path d="M83.08-85.48H1.6v22.37h26.3V0h28.87v-63.1h26.3zm0 0"/></symbol><symbol overflow="visible" id="43d85ea7aI"><path d="M10.98 31.28h28.88v-44.75h1.05C44.67-4.09 52.69 2.41 67.05 2.41c21.89 0 34.87-17 34.87-45.07 0-28-12.98-45.23-34.64-45.23-15.08 0-23.1 7.78-27.1 17.72h-1.04l-2.73-15.31H10.98zm44.99-51.25c-11.7 0-16.44-7.94-16.44-22.69 0-15 4.74-22.86 16.44-22.86 11.87 0 16.6 7.46 16.6 22.86 0 15.24-4.73 22.7-16.6 22.7zm0 0"/></symbol><symbol overflow="visible" id="43d85ea7aJ"><path d="M55.33-94.88c22.3 0 31.28-10.17 31.36-29.98h-19.4c0 7.94-2.57 12.83-11.71 12.83-9.22 0-11.8-4.9-11.8-12.83H24.14c.16 19.81 8.34 29.98 31.19 29.98zM10.98 0H40.1l30.64-49.64h1.04V0h27.59v-85.48H70.33L39.6-34.72h-1.03v-50.76h-27.6zm0 0"/></symbol><symbol overflow="visible" id="43d85ea7aK"><path d="M96.88-85.48H67.2L40.9-51.81h-1.04v-33.67H10.98V0h28.88v-35.69h.95L66.48 0h32.55L65.28-46.83zm0 0"/></symbol><symbol overflow="visible" id="43d85ea7aL"><path d="M10.98 0H40.1l30.64-49.64h1.04V0h27.59v-85.48H70.33L39.6-34.72h-1.03v-50.76h-27.6zm0 0"/></symbol><symbol overflow="visible" id="43d85ea7aM"><path d="M30-29.2H16.94v-11.2h26.68v-8.7H6.3V0h24.1C42 0 47.21-5.33 47.21-14.72 47.22-24.12 42-29.2 30-29.2zM27.8-8.33H16.94v-12.89h10.83c6.7 0 9.04 1.75 9.04 6.45s-2.34 6.44-9.01 6.44zm0 0"/></symbol><symbol overflow="visible" id="43d85ea7aN"><path d="M6.3 0h11.3l21.7-33.95h.42V0h10.51v-49.1h-11.3L17.21-15.13h-.4V-49.1H6.3zm0 0"/></symbol><symbol overflow="visible" id="43d85ea7aO"><path d="M27.69 1.03c15.73 0 24.47-9.26 24.47-25.58 0-16.3-8.74-25.57-24.47-25.57-15.69 0-24.44 9.26-24.44 25.57C3.25-8.23 12 1.03 27.69 1.03zm0-8.78c-9.1 0-13.35-5.9-13.35-16.8 0-10.89 4.25-16.8 13.35-16.8 9.12 0 13.34 5.91 13.34 16.8 0 10.9-4.22 16.8-13.34 16.8zm0 0"/></symbol><symbol overflow="visible" id="43d85ea7aP"><path d="M48.44-49.1H36.36L17.63-28.41h-.49V-49.1H6.3V0h10.84v-21.36h.53L35.95 0h12.97L26.97-25.72zm0 0"/></symbol><symbol overflow="visible" id="43d85ea7aQ"><path d="M49.92-49.1h-37.6c-.37 9.35-1.09 24.9-1.88 32.57-.69 6.4-2.35 8.12-6.22 8.12-.97 0-2.08-.12-2.6-.23L1 .2c1.42.4 3.67.66 5.81.66 9.67 0 12.55-5.45 13.4-15.72.57-6.72 1.26-16.39 1.66-25.4h17.16V0h10.9zm0 0"/></symbol><symbol overflow="visible" id="43d85ea7aR"><path d="M6.3 0h9.22v-38.27H16L29.63 0h10.26l13.6-38.27h.48V0h10.5v-49.1H48.19L35.8-12.74h-.42L22.8-49.09H6.28zm0 0"/></symbol><symbol overflow="visible" id="43d85ea7aS"><path d="M38.86 0h11.23L33.22-49.1H18.28L1.31 0H11.9l3.08-9.3h20.87zM17.42-17.25l7.95-24.03h.41l7.69 24.03zm0 0"/></symbol><symbol overflow="visible" id="43d85ea7aT"><path d="M15.17 0h10.9v-40.27h14.96v-8.82H.17v8.82h15zm0 0"/></symbol><symbol overflow="visible" id="43d85ea7aU"><path d="M34.73-49.1v21.82C31.88-25.78 27.9-25 24.1-25c-6.15 0-9.8-2.03-9.8-9.6v-14.5H3.41v17.23c0 11.71 7.92 15.65 18.25 15.65 4.5 0 9.72-1.1 13.06-2.66V0H45.6v-49.1zm0 0"/></symbol><symbol overflow="visible" id="43d85ea7aV"><path d="M43.4-40.44v-8.65H6.3V0h37.1v-8.64H17v-11.92h21.75v-8.1H17v-11.78zm0 0"/></symbol><symbol overflow="visible" id="43d85ea7aW"><path d="M27 1.03c13.44 0 20.81-6.14 22.19-17.69l-10.44-.93c-1.2 6.8-4.56 9.75-11.64 9.75-8.38 0-12.69-5.47-12.69-16.63 0-11.1 4.25-16.76 12.55-16.76 6.87 0 10.4 3 11.72 9.75l10.4-.91c-1.25-11.27-9-17.73-22.12-17.73-15.08 0-23.72 9.37-23.72 25.65 0 16.06 8.6 25.5 23.75 25.5zm0 0"/></symbol><symbol overflow="visible" id="43d85ea7aX"><path d="M28.03-53.27c8.58 0 13.28-3.18 13.28-11.48H33.6c-.12 4.05-1.4 5.33-5.48 5.33s-5.33-1.28-5.47-5.33h-7.81c0 8.3 4.42 11.48 13.2 11.48zM6.3 0h11.3l21.7-33.95h.42V0h10.51v-49.1h-11.3L17.21-15.13h-.4V-49.1H6.3zm0 0"/></symbol><symbol overflow="visible" id="43d85ea7aY"><path d="M36.06 1.53c13.94 0 23.06-6.55 27.88-23.05h-2.05C57.4-6.77 49.4-.4 36.06-.4 18.86-.4 7.58-12.19 7.58-35.45c0-23.07 11.28-34.85 28.48-34.85 13.02 0 20.9 5.33 25.31 20.6h2.05c-4.7-17-13.72-22.53-27.36-22.53-18.23 0-30.53 12.5-30.53 36.78 0 24.48 12.3 36.98 30.53 36.98zm0 0"/></symbol><symbol overflow="visible" id="43d85ea7aZ"><path d="M27.47 1.53C41.8 1.53 50.2-8.7 50.2-26.44c0-17.73-8.39-27.87-22.73-27.87-14.36 0-22.75 10.14-22.75 27.87C4.72-8.7 13.1 1.53 27.47 1.53zm0-1.94c-13.13 0-20.7-9.43-20.7-26.03s7.57-25.92 20.7-25.92c13.1 0 20.69 9.33 20.69 25.92 0 16.6-7.58 26.03-20.7 26.03zm0 0"/></symbol><symbol overflow="visible" id="43d85ea7ba"><path d="M35.86-26.95v-.1c6.25-1.43 9.64-5.12 9.64-12.5 0-8-5.03-13.22-15.47-13.22H8.61V0h22.12c10.25 0 16.3-5.22 16.3-13.94 0-7.89-4.4-11.78-11.17-13.01zm-5.83-23.97c9.42 0 13.63 4.4 13.63 11.47 0 6.56-3.4 11.68-14.46 11.68H10.66v-23.15zm.7 49.08H10.66v-24.08h19.06c10.75 0 15.37 4.3 15.37 11.98 0 7.69-5.12 12.1-14.36 12.1zm0 0"/></symbol><symbol overflow="visible" id="43d85ea7bb"><path d="M8.6 19.47h2.06v-33.2h.1c1.74 7.8 8.1 15.26 19.77 15.26 14.14 0 22.03-10.45 22.03-27.86 0-17.53-7.89-27.98-22.03-27.98-10.86 0-17.62 7.17-19.87 15.89h-.11l-.3-14.35H8.61zM30.54-.41c-11.37 0-19.87-7.68-19.87-25.92 0-17.01 8.09-26.03 19.87-26.03 12.92 0 19.99 9.53 19.99 26.03C50.52-9.93 43.45-.4 30.53-.4zm0 0"/></symbol><symbol overflow="visible" id="43d85ea7bc"><path d="M47.75-26.13v-1.23c0-16.9-7.17-26.95-20.6-26.95-14.34 0-22.43 10.14-22.43 27.87 0 17.74 7.26 27.97 21.83 27.97 10.03 0 15.76-3.98 20.17-14.14h-2.25C40.69-4.2 35.77-.4 26.55-.4 13.22-.4 6.85-9.73 6.77-26.12zm-20.6-26.23c12.1 0 18.35 9.02 18.55 24.4H6.77c.4-15.7 7.57-24.4 20.39-24.4zm0 0"/></symbol><symbol overflow="visible" id="43d85ea7bd"><path d="M8.6 0h1.95v-47.14h.1L32.09 0h1.44l21.4-47.14h.11V0h2.05v-52.77h-1.95L32.89-3.28h-.1L10.46-52.77H8.61zm0 0"/></symbol><symbol overflow="visible" id="43d85ea7be"><path d="M46.02-52.77v24.9H10.66v-24.9H8.6V0h2.05v-25.92h35.36V0h2.04v-52.77zm0 0"/></symbol><symbol overflow="visible" id="43d85ea7bf"><path d="M8.6 0h20c11.77 0 16.9-5.84 16.9-15.17 0-9.31-5.13-15.06-16.9-15.06H10.65v-22.54H8.6zm46.12 0h2.05v-52.77h-2.05zM10.66-1.84V-28.4h17.93c10.25 0 14.86 4.62 14.86 13.22 0 8.6-4.6 13.33-14.86 13.33zm0 0"/></symbol><symbol overflow="visible" id="43d85ea7bg"><path d="M28.69-60.97c7.6 0 10.76-4.81 12.3-13.33h-1.85C37.7-67.13 35.04-62.8 28.7-62.8c-6.66 0-9.02-4.31-10.46-11.49H16.4c1.55 8.52 4.4 13.33 12.3 13.33zM8.6 0h1.94L45.9-49.08h.1V0h2.05v-52.77h-1.95L10.77-3.69h-.11v-49.08H8.6zm0 0"/></symbol><symbol overflow="visible" id="43d85ea7bi"><path d="M38.33-52.77H8.6V0h2.05v-50.83h27.67zm0 0"/></symbol><symbol overflow="visible" id="43d85ea7bj"><path d="M47.34-1.95v-50.82H15.47c-.4 9.32-1.02 19.77-1.64 27.15-.92 10.56-3.38 20.6-6.55 23.67H1.03v15.28h2.05V0h49.9v13.33h2.05V-1.95zm-37.6 0c3.17-4.1 5.21-14.14 6.04-23.68.61-6.85 1.13-16.28 1.53-25.2H45.3v48.88zm0 0"/></symbol><symbol overflow="visible" id="43d85ea7bk"><path d="M275.17-177.67h-59.34l-47.66 81.5h-.34v-81.5h-58.5v81.5H109l-47.67-81.5H2.17L54.33-97-1.17 0h64.34L109-87.17h.33V0h58.5v-87.17h.34L214 0h64.5l-55.67-97zm0 0"/></symbol><symbol overflow="visible" id="43d85ea7bl"><path d="M54.02-204.48h232.42l6.73-37.54H60.75zM59.75 5.05c32.98 0 46.44-17.68 56.38-36.52h.32c6.58 22.9 22.05 36.52 50.5 36.52 31.8 0 44.27-17.33 53.7-35.17h.32V0h51.84l31.8-179.4h-60.58L227.2-84.32c-4.37 25.23-15.3 37.01-29.8 37.01-18.84 0-21.53-13.3-17.67-35.17l17.18-96.94h-60.6l-16.83 95.1C115.11-59.08 104-47.3 89.7-47.3c-18.68 0-21.54-13.45-17.67-35.17L89.2-179.4H28.6L10.45-75.73C2.36-28.43 15.48 5.05 59.75 5.05zm0 0"/></symbol><symbol overflow="visible" id="43d85ea7bm"><path d="M4.05-8.1H1.27V0h2.67c2.72 0 3.92-1.25 3.92-4.05 0-2.84-1.22-4.06-3.81-4.06zm.01 7.22H2.28v-6.35h1.78c1.85 0 2.77.73 2.77 3.18 0 2.44-.92 3.17-2.77 3.17zm0 0"/></symbol><symbol overflow="visible" id="43d85ea7bn"><path d="M1.58-7.05c.39 0 .67-.2.67-.64 0-.45-.28-.65-.67-.65-.4 0-.67.2-.67.65 0 .44.26.64.67.64zM1.09 0h.97v-6.02H1.1zm0 0"/></symbol><symbol overflow="visible" id="43d85ea7bo"><path d="M3.05.17c1.48 0 2.37-.69 2.37-1.87 0-1.02-.6-1.4-1.84-1.68l-.81-.18c-.74-.16-1.05-.4-1.05-.9 0-.65.44-.95 1.26-.95.9 0 1.32.32 1.4 1.04l.95-.08c-.1-1.2-.86-1.77-2.33-1.77-1.4 0-2.23.64-2.23 1.84 0 .96.59 1.44 1.78 1.7l.8.15c.76.15 1.12.34 1.12.94 0 .6-.53.97-1.4.97-1 0-1.5-.35-1.62-1.13l-.95.1C.6-.48 1.4.16 3.05.16zm0 0"/></symbol><symbol overflow="visible" id="43d85ea7bp"><path d="M1.1 2.25h.96V-.98h.05c.34.71 1 1.15 1.94 1.15C5.72.17 6.67-1 6.67-3.02c0-2-.95-3.17-2.6-3.17-.95 0-1.57.46-1.98 1.24h-.04L1.9-6.02h-.82zM3.86-.67c-1.23 0-1.84-.97-1.84-2.35 0-1.37.61-2.32 1.85-2.32 1.2 0 1.8.76 1.8 2.32 0 1.58-.6 2.35-1.8 2.35zm0 0"/></symbol><symbol overflow="visible" id="43d85ea7bq"><path d="M1.1 0h.96v-8.58H1.1zm0 0"/></symbol><symbol overflow="visible" id="43d85ea7br"><path d="M2.63.17c1.01 0 1.68-.42 2.01-1.1h.06l.11.93h.8v-4.1c0-1.43-.8-2.09-2.36-2.09-1.58 0-2.27.7-2.44 1.85l.97.09c.11-.72.5-1.14 1.45-1.14.99 0 1.44.4 1.44 1.34v.42l-2.03.27C1.2-3.19.58-2.64.58-1.55c0 1.08.7 1.72 2.04 1.72zm.18-.8c-.87 0-1.25-.37-1.25-.98 0-.58.33-.9 1.16-1.03l1.95-.27v.58c0 .99-.7 1.7-1.86 1.7zm0 0"/></symbol><symbol overflow="visible" id="43d85ea7bs"><path d="M4.84-6.02L3.08-.9h-.05L1.13-6H.07L2.39 0h.38c-.49 1.17-.94 1.55-1.61 1.55-.2 0-.5-.02-.74-.08l-.1.83c.23.06.55.12.88.12 1.35 0 1.9-.87 2.47-2.42l2.19-6.02zm0 0"/></symbol><symbol overflow="visible" id="43d85ea7bu"><path d="M6.05-4.05v-.06c.93-.2 1.42-.81 1.42-1.94 0-1.26-.7-2.06-2.6-2.06h-3.6V0h3.6c1.91 0 2.8-.78 2.8-2.13 0-1.25-.64-1.75-1.62-1.92zm-1.2-3.22c1.13 0 1.63.46 1.63 1.4 0 .9-.5 1.4-1.62 1.4H2.25v-2.8zm.03 6.43H2.25v-2.82h2.63c1.2 0 1.8.41 1.8 1.41 0 1.02-.6 1.4-1.8 1.4zm0 0"/></symbol><symbol overflow="visible" id="43d85ea7bv"><path d="M3.4.17c1.6 0 2.41-.73 2.57-2.04L5-1.96c-.13.86-.6 1.28-1.6 1.28-1.2 0-1.8-.81-1.8-2.35 0-1.53.59-2.32 1.8-2.32.98 0 1.48.45 1.6 1.3l.97-.08C5.8-5.45 4.94-6.2 3.4-6.2 1.64-6.19.6-5 .6-3.02.6-1 1.64.18 3.4.18zm0 0"/></symbol><symbol overflow="visible" id="43d85ea7bw"><path d="M5.94-6.02h-1.2L2.1-3.45h-.05v-5.13H1.1V0h.97v-2.83h.05L4.83 0h1.22L2.98-3.19zm0 0"/></symbol><symbol overflow="visible" id="43d85ea7bx"><path d="M6.9-7.23v-.88H1.28V0H6.9v-.88H2.28v-2.8h3.9v-.84h-3.9v-2.71zm0 0"/></symbol><symbol overflow="visible" id="43d85ea7by"><path d="M.3 0h1.04l1.57-2.33h.04L4.65 0h1.08L3.61-3l2.1-3.02H4.66L3.11-3.73h-.05L1.44-6.02H.34l2.08 2.94zm0 0"/></symbol><symbol overflow="visible" id="43d85ea7bz"><path d="M2.4-5.19h1.91v-.83h-1.9v-1.87h-.77l-.2 1.87H.19v.83h1.25v3.46C1.44-.5 2 .14 3.28.14c.38 0 .78-.08 1.06-.16l-.1-.8c-.2.05-.47.1-.77.1-.7 0-1.06-.26-1.06-1.1zm0 0"/></symbol><symbol overflow="visible" id="43d85ea7bA"><path d="M1.1 0h.96v-3.3c0-1.18.75-1.97 1.72-1.97.24 0 .44.04.56.08l.11-.92c-.15-.05-.39-.08-.62-.08-.83 0-1.4.44-1.74 1.24h-.04L1.9-6.02h-.82zm0 0"/></symbol><symbol overflow="visible" id="43d85ea7bB"><path d="M4.08.17C5.72.17 6.68-1 6.68-3c0-2.02-.96-3.19-2.63-3.19-.94 0-1.6.44-1.94 1.16h-.05v-3.55H1.1V0h.82l.14-1.06h.04C2.5-.28 3.13.17 4.08.17zm-.2-.84C2.63-.67 2.02-1.62 2.02-3c0-1.38.61-2.34 1.85-2.34 1.2 0 1.8.76 1.8 2.34 0 1.56-.6 2.33-1.8 2.33zm0 0"/></symbol><symbol overflow="visible" id="43d85ea7bC"><path d="M3.47.17c1.81 0 2.86-1.14 2.86-3.19 0-2.04-1.05-3.17-2.86-3.17C1.66-6.19.6-5.06.6-3.02.6-.97 1.66.18 3.47.18zm0-.84c-1.25 0-1.86-.78-1.86-2.35 0-1.56.6-2.32 1.86-2.32 1.25 0 1.86.76 1.86 2.32 0 1.57-.61 2.35-1.86 2.35zm0 0"/></symbol><symbol overflow="visible" id="43d85ea7bD"><path d="M3.17.17c.99 0 1.61-.45 2.02-1.23h.04L5.37 0h.82v-8.58h-.97v3.55h-.05c-.36-.74-1-1.16-1.97-1.16C1.58-6.19.6-5.02.6-3.02.6-1 1.57.18 3.18.18zm.2-.84C2.23-.67 1.61-1.44 1.61-3c0-1.58.6-2.34 1.76-2.34 1.29 0 1.88.95 1.88 2.34 0 1.38-.6 2.33-1.88 2.33zm0 0"/></symbol><symbol overflow="visible" id="43d85ea7bE"><path d="M2.7 0h1v-7.23h2.64v-.88H.06v.88H2.7zm0 0"/></symbol><symbol overflow="visible" id="43d85ea7bF"><path d="M1.1 0h.96v-3.3c0-1.2.78-2 1.83-2 .9 0 1.33.49 1.33 1.6V0h.97v-4.05c0-1.4-.74-2.14-2-2.14-1.03 0-1.67.5-2.08 1.24h-.05v-3.63H1.1zm0 0"/></symbol><symbol overflow="visible" id="43d85ea7bG"><path d="M1.1 0h.96v-3.3c0-1.2.78-2 1.83-2 .9 0 1.33.52 1.33 1.55V0h.97v-4.03c0-1.4-.7-2.16-2.02-2.16-1.01 0-1.67.52-2.08 1.24h-.04L1.9-6.02h-.82zm0 0"/></symbol><symbol overflow="visible" id="43d85ea7bH"><path d="M1.27 0h1.01v-8.1H1.27zm0 0"/></symbol><symbol overflow="visible" id="43d85ea7bI"><path d="M6.06-2.7v-.55c0-1.9-1-2.94-2.68-2.94C1.7-6.19.6-5.08.6-2.99.6-.98 1.63.18 3.45.18c1.53 0 2.25-.7 2.5-1.7L5-1.61c-.19.55-.63.95-1.55.95-1.14 0-1.76-.68-1.84-2.04zM3.38-5.37c1.09 0 1.68.62 1.73 1.92H1.6c.1-1.32.73-1.92 1.76-1.92zm0 0"/></symbol><symbol overflow="visible" id="43d85ea7bJ"><path d="M3.48 2.42c1.88 0 2.7-1.03 2.7-2.9v-5.54h-.8l-.15 1.07H5.2c-.3-.61-.83-1.24-1.96-1.24-1.7 0-2.62 1.22-2.62 3.05 0 1.87.86 3.08 2.62 3.08a2 2 0 001.93-1.2h.06v.78c0 1.39-.5 2.06-1.74 2.06C2.41 1.58 2 1.16 1.86.5L.87.6c.15 1.13.94 1.82 2.61 1.82zM3.4-.89c-1.17 0-1.78-.8-1.78-2.25 0-1.38.6-2.2 1.78-2.2 1.23 0 1.86.96 1.86 2.2 0 1.2-.64 2.25-1.86 2.25zm0 0"/></symbol><symbol overflow="visible" id="43d85ea7bK"><path d="M2.28-.88V-8.1H1.27V0h4.92v-.88zm0 0"/></symbol><symbol overflow="visible" id="43d85ea7bL"><path d="M2.55 2.25h.97a12.14 12.14 0 01-1.54-5.8c0-2.37.75-4.34 1.54-5.78h-.97a11.28 11.28 0 000 11.58zm0 0"/></symbol><symbol overflow="visible" id="43d85ea7bM"><path d="M.48 0h5.7v-.88H1.8v-.06l1.92-1.54C5-3.52 6.06-4.5 6.06-5.95c0-1.4-.84-2.33-2.6-2.33-1.93 0-2.71 1.17-2.9 2.76l1 .08c.13-1.2.6-2 1.88-2 1.1 0 1.62.55 1.62 1.53 0 1.02-.72 1.75-2.01 2.88L.48-.81zm0 0"/></symbol><symbol overflow="visible" id="43d85ea7bN"><path d="M1.19 1.94c.56-.72 1-1.56 1-2.35 0-.48-.24-.8-.72-.8-.4 0-.67.24-.67.66 0 .4.26.63.64.64-.11.55-.42 1.16-.77 1.63zm0 0"/></symbol><symbol overflow="visible" id="43d85ea7bO"><path d="M.92-2.67H4.4v-.83H.92zm0 0"/></symbol><symbol overflow="visible" id="43d85ea7bP"><path d="M3.45-9.03c-.34.4-.87 1.19-.87 1.97 0 .5.26.8.72.8.39 0 .67-.22.67-.66 0-.44-.31-.63-.67-.64.1-.42.4-.9.65-1.25zm-2.14 0a3.3 3.3 0 00-.87 1.97c0 .5.26.8.72.8.37 0 .67-.22.67-.66 0-.44-.31-.63-.69-.64.13-.42.4-.9.66-1.25zm0 0"/></symbol><symbol overflow="visible" id="43d85ea7bQ"><path d="M1-6.27c.36-.4.88-1.18.88-1.96 0-.5-.27-.8-.72-.8-.38 0-.68.22-.68.65 0 .44.32.63.7.65-.13.42-.41.89-.66 1.25zm2.16 0c.34-.4.86-1.18.86-1.96 0-.5-.25-.8-.7-.8-.4 0-.68.22-.68.65 0 .44.31.63.67.65-.12.42-.4.89-.65 1.25zm0 0"/></symbol><symbol overflow="visible" id="43d85ea7bR"><path d="M.9-9.33h-.98c.78 1.44 1.53 3.4 1.53 5.78C1.45-1.17.7.81-.08 2.25H.9a11.28 11.28 0 000-11.58zm0 0"/></symbol><symbol overflow="visible" id="43d85ea7ci"><path d="M1.27 0h.92v-7.02h.06L5.02 0h1.03L8.8-7.02h.06V0h1v-8.1h-1.6L5.62-1.23h-.06L2.85-8.1H1.28zm0 0"/></symbol><symbol overflow="visible" id="43d85ea7cj"><path d="M2.94.17c.98 0 1.6-.51 2.01-1.23H5L5.16 0h.8v-6.02h-.98v3.3c0 1.2-.78 2.02-1.76 2.02-.85 0-1.27-.52-1.27-1.57v-3.75H.98v4.04C.98-.6 1.68.17 2.94.17zm0 0"/></symbol><symbol overflow="visible" id="43d85ea7ck"><path d="M1.1 0h.96v-3.3c0-1.2.78-2 1.77-2 .86 0 1.28.52 1.28 1.55V0h.97v-3.3c0-1.2.78-2 1.78-2 .84 0 1.26.52 1.26 1.55V0h.97v-4.03c0-1.4-.7-2.16-1.95-2.16-1.05 0-1.69.58-2.1 1.35h-.06C5.75-5.7 5.12-6.2 4.12-6.2c-.96 0-1.62.52-2.03 1.24h-.04L1.9-6.02h-.82zm0 0"/></symbol><symbol overflow="visible" id="43d85ea7bS"><path d="M44.14-1.33l1.13-6.1-12.13-9.66.06-.54 15.58-9.8 1.19-7.1-23.52 13.72-1 5.76zm-21.87 0l1.12-6.1-12.12-9.66.06-.54 15.58-9.8 1.2-7.1L4.58-20.81l-1 5.76zm0 0"/></symbol><symbol overflow="visible" id="43d85ea7bT"><path d="M42.22-47.06H12.39L4.05 0H11l7.3-41.1h22.86zm0 0"/></symbol><symbol overflow="visible" id="43d85ea7bU"><path d="M17.7 1c10.86 0 17.22-6.44 19.22-17.9 1.99-11.48-3.05-19.08-14.39-19.08-10.8 0-17.1 6.56-19.08 17.75C1.4-6.77 6.35 1 17.7 1zm.46-5.64c-7.36 0-9.41-5.44-8.08-12.92 1.45-8.42 4.9-12.8 12-12.8 7.42 0 9.6 5.23 8.22 12.8C28.7-9.08 25.3-4.64 18.16-4.64zm0 0"/></symbol><symbol overflow="visible" id="43d85ea7bV"><path d="M.73 12.92h6.63l3.37-19.15h.33C12-2.84 14.37 1 21.55 1c9.2 0 15.43-6.44 17.42-17.9 2-11.48-2.99-19.08-12.72-19.08-6.17 0-9.34 3.04-11.4 6.35h-.33l.26-5.37H9.14zM20.48-4.64c-6.7 0-9.28-5.17-8.03-12.86 1.33-7.95 4.64-12.86 11.74-12.86 7.42 0 9.54 5.23 8.15 12.8-1.59 8.48-4.9 12.92-11.86 12.92zm0 0"/></symbol><symbol overflow="visible" id="43d85ea7bW"><path d="M33.08-5.77L38.25-35H12.98c-1.12 6.03-2.18 12.06-3.43 16.97-1.66 6.17-4.18 10.28-6.3 12.26h-4.64L-4.05 9.28h6.17L3.79 0h27.56L29.7 9.28h6.17l2.66-15.05zm-22.88 0c2.52-2.92 3.93-6.62 5.24-11.93.8-3.18 1.65-7.43 2.53-11.8h12.78L26.58-5.77zm0 0"/></symbol><symbol overflow="visible" id="43d85ea7bY"><path d="M16.67 1C26.81 1 33.23-5.56 35.3-16.83c2.04-11.4-2.92-19.15-14.25-19.15-9.82 0-14.32 4.64-16.77 11.45l6.63.8c2.04-4.64 4.5-6.75 9.67-6.75 6.3 0 8.75 4.1 8.42 10H14.81l-.92 5.3H28.2C26.48-8.21 22.97-4.5 17.14-4.5c-5.78 0-8.1-2.72-8.48-6.97l-6.5.33C2.75-4.11 6.53 1 16.67 1zm0 0"/></symbol><symbol overflow="visible" id="43d85ea7bZ"><path d="M33.6-35H3.79l-1.06 5.7h11.65L9.14 0h6.64l5.24-29.3h11.53zm0 0"/></symbol><symbol overflow="visible" id="43d85ea7ca"><path d="M33.2-35L30.7-20.81H13.33L15.84-35H9.22L2.98 0h6.63l2.66-15.05h17.36L26.96 0h6.64l6.22-35zm0 0"/></symbol><symbol overflow="visible" id="43d85ea7cb"><path d="M35.19-15.44c.47-2.6.73-5.31.73-7.5 0-7.87-4.97-13.12-13.78-13.12-9.69 0-16.64 6.03-18.69 17.76C1.45-6.77 6.35 1 17.7 1c9.68 0 13.58-3.98 15.83-10.02l-6.42-.65c-1.6 3.04-4.05 5.03-8.95 5.03-7.36 0-8.88-5.38-8.49-10.8zM21.67-30.63c6.63 0 8.55 3.93 7.9 10.2H10.6c1.84-6.95 5.36-10.2 11.06-10.2zm0 0"/></symbol><symbol overflow="visible" id="43d85ea7cc"><path d="M38.58-35h-8.42L13.52-20.48h-.33L15.79-35H9.13L2.98 0h6.63l2.84-16.05h.35L25.45 0h7.43L18.82-17.9zm0 0"/></symbol><symbol overflow="visible" id="43d85ea7cd"><path d="M2.98 0h5.83l4.97-27.9h.35L20.07 0h5.76L41.7-27.9h.33L37.1 0h6.37l6.22-35H39.64L24.6-8.02h-.32L18.48-35H9.22zm0 0"/></symbol><symbol overflow="visible" id="43d85ea7ce"><path d="M39.5-35H9.22L2.98 0h6.63l5.17-29.1h17.03L26.64 0h6.63zm0 0"/></symbol><symbol overflow="visible" id="43d85ea7cf"><path d="M23.13-23.27h-9.35L15.84-35H9.22L2.98 0h16.57c9.54 0 15.18-4.97 15.18-13.19 0-5.83-3.18-10.08-11.6-10.08zm-4.11 17.9H10.6l2.25-12.6h8.55c4.9 0 6.76 1.66 6.76 5.11 0 5.11-3.39 7.48-9.15 7.48zm0 0"/></symbol><symbol overflow="visible" id="43d85ea7cg"><path d="M33.6 1c10.34 0 16.71-6.44 18.7-17.9 1.98-11.48-3.05-19.08-13.86-19.08-9.47 0-15.5 5.62-17.9 15.3h-7.21L15.84-35H9.22L2.98 0h6.63l2.66-15.05h7.36C18.95-5.37 23.86 1 33.6 1zm.46-5.64c-6.83 0-8.87-5.44-7.54-12.92 1.45-8.42 4.9-12.8 11.46-12.8 6.9 0 9.08 5.23 7.7 12.8-1.6 8.48-4.98 12.92-11.62 12.92zm0 0"/></symbol><symbol overflow="visible" id="43d85ea7ch"><path d="M30.22-34.53l-1.13 6.1 12.13 9.68-.06.52-15.58 9.8-1.19 7.1 23.53-13.72 1-5.76zm-21.88 0l-1.12 6.1 12.14 9.68-.08.52-15.56 9.8-1.2 7.1 23.53-13.72 1-5.76zm0 0"/></symbol><symbol overflow="visible" id="43d85ea7cl"><path d="M59.88-59.5h-7.96l-34.1 26.98h-.3L22.3-59.5h-6L5.73 0h6l4.99-28.13h.37L43 0h7.13L22.84-30.13zm0 0"/></symbol><symbol overflow="visible" id="43d85ea7cm"><path d="M22.05 1.25C34.98 1.25 43.2-6.7 45.8-21.5c2.39-13.9-3.52-23.72-17.27-23.72-12.86 0-21.03 7.97-23.67 22.63C2.39-8.67 8.34 1.25 22.05 1.25zm.45-5.23c-10.64 0-13.73-7.75-11.73-18.35 2.26-11.73 7.5-17.69 17.3-17.69 10.7 0 13.84 7.63 11.77 18.27C37.6-9.94 32.34-3.98 22.5-3.98zm0 0"/></symbol><symbol overflow="visible" id="43d85ea7cn"><path d="M47.31-43.95H16.64c-1.69 7.83-4.83 21.4-6.45 27.9C8.22-8 6.08-4.8 1.47-4.8c-1.05 0-2.14-.17-2.77-.27L-2.14.08C-1.42.3.33.55 1.72.55 9.94.55 12.9-4.53 15.5-15.13a1608.2 1608.2 0 005.45-23.71h19.57L33.66 0h5.86zm0 0"/></symbol><symbol overflow="visible" id="43d85ea7co"><path d="M43.8-20.16c.45-2.64.83-5.95.83-8.3 0-10.5-5.96-16.79-16.68-16.79-12.03 0-20.5 8-23.04 22.33C2.47-8.9 8.17 1.25 22.25 1.25c10.86 0 16.14-4.56 19.1-12.1l-5.7-.68c-2.21 4.87-5.8 7.67-12.9 7.67-10.4 0-13.53-7.12-12.4-16.3zM27.58-40.23c9.6 0 12.48 6 11.26 15.42h-27.6c2.51-10.17 7.74-15.42 16.34-15.42zm0 0"/></symbol><symbol overflow="visible" id="43d85ea7cp"><path d="M46.64-43.95h-7.87L14.95-24.77h-.32l3.35-19.18h-5.87L4.4 0h5.86l3.68-21.16h.43L32.3 0h6.88L20.1-22.67zm0 0"/></symbol><symbol overflow="visible" id="43d85ea7cq"><path d="M40.77-43.95H4.44l-.96 5.1h15.25L11.91 0h5.86l6.82-38.84h15.22zm0 0"/></symbol><symbol overflow="visible" id="43d85ea7cr"><path d="M4.4 0h6.04L41.3-34.6h.38L35.58 0h5.78l7.75-43.95h-6.03L12.1-9.3h-.3l6.13-34.65h-5.78zm0 0"/></symbol><symbol overflow="visible" id="43d85ea7cs"><path d="M35.16-22.08l.07-.34c4.88-1.17 9.36-4.61 9.36-11.52 0-6.67-4.53-10.01-13.37-10.01H12.16L4.4 0h19.93c11.49 0 18.07-4.4 18.07-13.5 0-4.34-2.3-7.4-7.25-8.58zm-4.78-17.01c6 0 8.68 1.54 8.68 5.78 0 5.7-3.83 8.54-11.7 8.54H14.55l2.6-14.32zM24.46-4.91H11.02l2.73-15.07h13.36c6.83 0 9.64 1.92 9.64 6.4 0 6.4-4.69 8.67-12.28 8.67zm0 0"/></symbol><symbol overflow="visible" id="43d85ea7ct"><path d="M42.88-43.95l-3.29 18.64H14.7l3.32-18.64h-5.86L4.4 0h5.86l3.51-20.16h24.86L35.11 0h5.87l7.75-43.95zm0 0"/></symbol><symbol overflow="visible" id="43d85ea7cu"><path d="M21.03 1.25c8.05 0 12.4-3.81 15.1-8.5h.32L36.08 0h4.78l7.75-43.95h-4.78l-2.52 7.92h-.37c-1.38-4.11-4.81-9.19-13.9-9.19-11.79 0-19.87 8.55-22.18 22.47-2.27 13.73 2.89 24 16.17 24zm1.27-5.23c-10.64 0-13.38-7.96-11.49-18.52 2.05-11.48 7.38-17.52 16.6-17.52 9.64 0 13.53 7.29 11.78 18.27C37.5-11.39 32.3-3.98 22.29-3.98zm0 0"/></symbol><symbol overflow="visible" id="43d85ea7cv"><path d="M44.17-43.95H24.6c-10.96 0-18.39 4.48-18.39 14.87 0 5.83 4.02 10.35 10.7 11.27L.24 0h7.33l16.01-17.22h9.97L30.55 0h5.87zM22.6-22.08c-7.21 0-10.48-2.51-10.48-7.3 0-7.04 4.6-9.64 12.36-9.64h12.95l-2.97 16.94zm0 0"/></symbol><symbol overflow="visible" id="43d85ea7cx"><path d="M62.64-59.5H16.3L5.73 0h6l9.6-54.02h34.36L46.05 0h6.04zm0 0"/></symbol><symbol overflow="visible" id="43d85ea7cy"><path d="M4.4 0h5.12l6.57-37.34h.38L25.27 0h5.23l22-37.34h.34L46.27 0h5.65l7.75-43.95h-8.92L29.3-7.25h-.35l-8.62-36.7h-8.17zm0 0"/></symbol><symbol overflow="visible" id="43d85ea7cz"><path d="M27.45-28.2h-12.2l2.77-15.75h-5.86L4.4 0h18.68C35 0 42.41-5.48 42.41-16.3c0-7.47-4.82-11.9-14.96-11.9zM23.17-4.94H11.2l3.23-18.31h12.02c7.17 0 10.06 2.17 10.06 7.28 0 7.63-4.69 11.03-13.33 11.03zm0 0"/></symbol><symbol overflow="visible" id="43d85ea7cA"><path d="M21.2-19.9H5.34L1.81 0h2.47l3.16-17.69h10.9L15.2 0h2.47zm0 0"/></symbol><symbol overflow="visible" id="43d85ea7cB"><path d="M7.42.42c4.47 0 7.19-2.69 8.03-7.58.83-4.76-1.23-8.01-5.9-8.01-4.46 0-7.16 2.72-8 7.53C.69-2.88 2.73.42 7.42.42zm.19-2.06c-3.34 0-4.28-2.45-3.67-5.8.67-3.75 2.28-5.65 5.42-5.65 3.34 0 4.34 2.37 3.72 5.73-.74 3.78-2.31 5.72-5.47 5.72zm0 0"/></symbol><symbol overflow="visible" id="43d85ea7cC"><path d="M21.47-14.75L19.2-2.09h-6.36l2.27-12.66h-2.4L10.48-2.09H4.1l2.25-12.66H3.98L1.36 0h19.86l2.62-14.75zm0 0"/></symbol><symbol overflow="visible" id="43d85ea7cD"><path d="M1.36 0h2.47l9.73-11.1h.13L11.73 0h2.32l2.62-14.75H14.2L4.47-3.65h-.13l1.97-11.1H3.98zm0 0"/></symbol><symbol overflow="visible" id="43d85ea7cE"><path d="M.4 5.5h2.38l1.44-8.14h.14C4.8-1.2 5.87.42 8.92.42c3.88 0 6.52-2.72 7.36-7.54.83-4.7-1.12-8.05-5.42-8.05a5.33 5.33 0 00-4.9 2.76h-.13l.12-2.34H3.97zm8.27-7.14C5.53-1.64 4.36-4 4.95-7.41c.57-3.39 2.1-5.68 5.27-5.68 3.36 0 4.28 2.39 3.67 5.8-.67 3.7-2.3 5.65-5.22 5.65zm0 0"/></symbol><symbol overflow="visible" id="43d85ea7cF"><path d="M14.75-6.63c.19-1 .31-2.12.31-2.96 0-3.44-2.04-5.6-5.72-5.6-4.04 0-6.93 2.63-7.78 7.5C.72-2.92 2.7.42 7.46.42c3.87 0 5.57-1.6 6.54-4.14l-2.3-.25c-.72 1.45-1.84 2.35-4.06 2.35-3.28 0-4.14-2.33-3.87-5zM9.19-13.2c3.01 0 3.89 1.84 3.54 4.73h-8.6c.8-3.17 2.42-4.73 5.06-4.73zm0 0"/></symbol><symbol overflow="visible" id="43d85ea7cG"><path d="M14.19-14.75l-1.1 6.13H5.3l1.07-6.13H3.98L1.36 0h2.37L4.9-6.55h7.83L11.58 0h2.37l2.63-14.75zm0 0"/></symbol><symbol overflow="visible" id="43d85ea7cH"><path d="M10.55-16.75c3.2 0 4.64-1.66 5.04-4.58h-1.93c-.32 1.78-1.04 2.83-2.99 2.83-1.94 0-2.33-1.05-2.08-2.83H6.63c-.36 2.85.67 4.58 3.92 4.58zM1.35 0h2.48l9.73-11.1h.13L11.73 0h2.32l2.62-14.75H14.2L4.47-3.65h-.13l1.97-11.1H3.98zm0 0"/></symbol><symbol overflow="visible" id="43d85ea7cJ"><path d="M16.45-14.75H3.98L1.36 0h2.37l2.25-12.6h7.7L11.46 0h2.38zm0 0"/></symbol><symbol overflow="visible" id="43d85ea7cK"><path d="M1.36 0h2.1L5.6-12.14h.12L8.47 0h2.1l7-12.14h.15L15.58 0h2.28l2.62-14.75h-3.62L10.09-2.91h-.12L7.3-14.75H3.98zm0 0"/></symbol><symbol overflow="visible" id="43d85ea7cL"><path d="M6.92.42a5.29 5.29 0 004.94-2.76H12L11.86 0h2l2.6-14.75h-2l-.87 2.64h-.12c-.44-1.39-1.5-3.06-4.55-3.06-3.87 0-6.58 2.8-7.37 7.53C.73-2.91 2.65.42 6.92.42zm.64-2.06c-3.33 0-4.23-2.44-3.64-5.8.69-3.73 2.27-5.65 5.3-5.65s4.22 2.3 3.65 5.76c-.56 3.4-2.12 5.69-5.3 5.69zm0 0"/></symbol><symbol overflow="visible" id="43d85ea7cM"><path d="M15.95-14.75h-3.1l-7.5 6.28h-.13l1.12-6.28H3.97L1.36 0h2.37l1.24-6.94h.14L10.78 0h2.7L7.34-7.58zm0 0"/></symbol><symbol overflow="visible" id="43d85ea7cN"><path d="M16.14-2.1h-2.2l2.25-12.65h-2.4L11.57-2.09H4.11l2.23-12.66H3.97L1.36 0h12.19l-.7 3.92h2.24zm0 0"/></symbol><symbol overflow="visible" id="43d85ea7cO"><path d="M13.9-14.75H1.56l-.4 2.08h5.02L3.92 0h2.4l2.24-12.67h4.97zm0 0"/></symbol><symbol overflow="visible" id="43d85ea7cP"><path d="M13.05-14.75L6.55-2.2H6.4L3.9-14.75H1.5L4.56 0h.92c-1.62 2.9-2.57 3.81-4.4 3.81a6.4 6.4 0 01-1.72-.26l-.4 2.01c.54.19 1.38.36 2.2.36C4.55 5.92 5.66 3.8 7.7 0l7.96-14.75zm0 0"/></symbol><symbol overflow="visible" id="43d85ea7cQ"><path d="M12.03-7.36l.03-.14a3.68 3.68 0 003.1-3.84c0-2.2-1.43-3.41-4.58-3.41h-6.6L1.36 0h7.17c3.67 0 5.92-1.44 5.92-4.55 0-1.45-.82-2.42-2.42-2.8zm-1.87-5.45c1.95 0 2.76.48 2.76 1.78 0 1.76-1.17 2.64-3.58 2.64H5.2l.78-4.42zM8.46-1.92H4.06l.83-4.63h4.39c2.07 0 2.9.66 2.9 1.96 0 1.96-1.45 2.67-3.7 2.67zm0 0"/></symbol><symbol overflow="visible" id="43d85ea7cR"><path d="M15.13-14.75H8.16c-3.81 0-6.19 1.64-6.19 5.1 0 1.88 1.29 3.43 3.46 3.78L0 0h2.95l5.11-5.6h3.05L10.13 0h2.39zM7.63-7.53c-2.25 0-3.28-.75-3.28-2.24 0-2.18 1.37-3.03 3.87-3.03h4.18l-.96 5.27zm0 0"/></symbol><symbol overflow="visible" id="43d85ea7cS"><path d="M13.44-14.75H3.98L1.36 0h2.37L6-12.67h7.06zm0 0"/></symbol><symbol overflow="visible" id="43d85ea7cT"><path d="M21.64-14.75H18.7l-6.95 6.28h-.14l1.12-6.28H10.4L9.3-8.47h-.13l-5.22-6.28H1.36l5.76 6.86L-1.09 0h2.92l7.1-6.94h.09L7.8 0h2.33l1.23-6.94h.1L16.63 0h2.57l-5.67-7.5zm0 0"/></symbol><symbol overflow="visible" id="43d85ea7cU"><path d="M12.67-14.75L11.45-7.8c-1.22.53-2.67.85-3.95.85-2.67 0-3.63-.7-3.1-3.74l.74-4.06H2.77l-.82 4.56c-.67 3.83 1.25 5.3 4.88 5.3 1.64 0 3.1-.4 4.25-.9l-1 5.79h2.37l2.61-14.75zm0 0"/></symbol><symbol overflow="visible" id="43d85ea7cV"><path d="M5.56-17.27c1.16 0 1.9-.7 1.9-1.82 0-.85-.52-1.35-1.4-1.35-1.1 0-1.89.7-1.89 1.85 0 .8.52 1.32 1.4 1.32zM1.36 0h2.37l2.63-14.75H3.98zm0 0"/></symbol><symbol overflow="visible" id="43d85ea7cW"><path d="M.83 4.7C2.1 3.4 4.25.78 4.25-1.4c0-.98-.52-1.6-1.56-1.6-1.05 0-1.9.77-1.9 1.88C.8-.32 1.4.16 2.17.2 1.58 1.7.7 2.77-.36 4.12zm0 0"/></symbol><symbol overflow="visible" id="43d85ea7cX"><path d="M6.73.42c4.36 0 6.74-1.95 6.74-4.97 0-1.86-1.2-2.67-2.45-2.9l.03-.13c1.53-.22 3.26-1.44 3.26-4.01 0-2.2-1.6-3.58-5.37-3.58-4.14 0-5.74 1.62-6.72 4.34l2.4.3c.79-1.9 1.7-2.69 4.1-2.69 2.5 0 3.31.75 3.31 2 0 1.83-1.42 2.75-3.76 2.75H6.1l-.34 1.9h2.17c2.23 0 3.2.59 3.2 2 0 1.8-1.45 3.02-4.16 3.02-2.8 0-3.67-.82-3.82-2.89L.84-4.3C.88-1.08 2.42.42 6.74.42zm0 0"/></symbol><symbol overflow="visible" id="43d85ea7cY"><path d="M13.9.42c4.24 0 6.96-2.69 7.82-7.58.83-4.76-1.24-8.01-5.72-8.01-3.94 0-6.52 2.36-7.53 6.58H5.28l1.08-6.16H3.98L1.36 0h2.37L4.9-6.55h3.22C7.75-2.39 9.77.42 13.89.42zm.16-2.06c-3.12 0-4.08-2.45-3.45-5.8.67-3.75 2.28-5.65 5.2-5.65 3.16 0 4.16 2.37 3.52 5.73-.72 3.78-2.31 5.72-5.27 5.72zm0 0"/></symbol><symbol overflow="visible" id="43d85ea7cZ"><path d="M7.4.42c3.7 0 5.93-1.7 6.72-4.9l-2.34-.32c-.7 2.11-1.8 3.16-4.22 3.16-3.28 0-4.23-2.45-3.62-5.8.67-3.75 2.34-5.65 5.22-5.65 2.3 0 3.39 1.09 3.53 3.18l2.37-.1c-.22-3.07-2.04-5.16-5.75-5.16-4.17 0-6.92 2.72-7.76 7.56C.72-2.87 2.73.42 7.39.42zm0 0"/></symbol><symbol overflow="visible" id="43d85ea7db"><path d="M7.42 5.5H9.8l.87-5.13c5.63-.3 8.92-2.92 9.7-7.46.77-4.63-1.67-7.64-6.93-8.04l1.01-5.89H12.1l-1.03 5.88c-5.6.3-8.87 2.97-9.65 7.48C.59-2.94 3.05.02 8.3.38zm1.3-7.14c-3.97-.28-5.55-2.27-4.95-5.9.56-3.35 2.64-5.3 6.98-5.57zm2.26 0l2.04-11.47c3.98.28 5.59 2.28 4.98 5.92-.56 3.33-2.66 5.3-7.02 5.55zm0 0"/></symbol><symbol overflow="visible" id="43d85ea7dc"><path d="M18.23-.77l.4-2.18L13.3-7.3l.02-.18 6.86-4.38.43-2.56-9.75 5.81-.35 2.03zm-8.96 0l.39-2.18L4.34-7.3l.02-.18 6.86-4.38.44-2.56L1.9-8.61l-.35 2.03zm0 0"/></symbol><symbol overflow="visible" id="43d85ea7dd"><path d="M16.19-14.75H5.53a352.5 352.5 0 01-2.1 9.27C2.8-2.92 2.1-1.92.62-1.92c-.36 0-.75-.05-.98-.11L-.76.07C-.47.11.25.22.77.22 3.59.23 4.67-1.4 5.55-5c.37-1.63 1.18-5.06 1.76-7.67h6.13L11.19 0h2.39zm0 0"/></symbol><symbol overflow="visible" id="43d85ea7de"><path d="M7.69-17.3c1.01 0 1.65-.7 1.65-1.67 0-.72-.5-1.16-1.21-1.16-.97 0-1.65.7-1.65 1.68 0 .72.49 1.15 1.2 1.15zm-4.11 0c.98 0 1.64-.7 1.64-1.67 0-.72-.5-1.16-1.22-1.16-.95 0-1.64.7-1.64 1.68 0 .72.53 1.15 1.22 1.15zM1.36 0h2.37l2.63-14.75H3.98zm0 0"/></symbol><symbol overflow="visible" id="43d85ea7df"><path d="M12.47-14.42l-.4 2.19 5.34 4.34-.04.2-6.85 4.36-.44 2.56 9.76-5.8.33-2.04zm-8.97 0l-.4 2.19L8.45-7.9l-.03.2-6.86 4.36L1.1-.77l9.77-5.8.32-2.04zm0 0"/></symbol><symbol overflow="visible" id="43d85ea7dg"><path d="M9.48-9.63H5.47l.89-5.12H3.98L1.36 0H8c4 0 6.44-1.97 6.44-5.5 0-2.5-1.49-4.13-4.96-4.13zM7.9-1.96H4.11l1.01-5.72h3.83c2.24 0 3.11.72 3.11 2.3 0 2.34-1.51 3.42-4.17 3.42zm0 0"/></symbol><symbol overflow="visible" id="43d85ea7dh"><path d="M8.03.42c4.5 0 7.22-2.69 8.06-7.5.8-4.6-1.14-7.7-5.64-7.7a6.2 6.2 0 00-5.64 3.3h-.14c1.5-5.13 2.69-6.52 7.49-7.14 2.15-.3 3.7-.43 5.1-.54l-.12-2.28c-1.44.13-3.36.3-5.55.63-6.37.97-7.86 4.37-9.17 11.78C1.45-3.58 2.77.42 8.03.42zm.22-2.06C4.91-1.64 4-4.1 4.56-7.36c.66-3.73 2.63-5.51 5.63-5.51 3.17 0 4.12 2.37 3.51 5.62-.72 3.67-2.3 5.6-5.45 5.6zm0 0"/></symbol><symbol overflow="visible" id="43d85ea7di"><path d="M13.53-2.1l2.24-12.65H5.48c-.51 2.55-1.04 5.44-1.57 7.48-.72 2.7-1.74 4.35-2.68 5.18H-.64L-1.7 3.92h2.2L1.22 0H13.2l-.7 3.92h2.23l1.05-6.01zm-9.73 0C4.8-3.22 5.47-4.85 6.03-7.12c.38-1.46.81-3.59 1.22-5.6h5.83L11.18-2.1zm0 0"/></symbol><symbol overflow="visible" id="43d85ea7dj"><path d="M-.58 0h2.69l4.87-5.72h.14L10.23 0h2.47L8.78-7.17l6.55-7.58h-2.7L7.8-9.15h-.1l-3.04-5.6H2.19L6.03-7.7zm0 0"/></symbol><symbol overflow="visible" id="43d85ea7dk"><path d="M7.4.42c3.91 0 5.9-1.89 6.93-4.76l-2.35-.32c-.95 2.07-2.04 3.08-4.37 3.08-3.05 0-4.1-2.1-3.81-4.98h6.43l.33-1.92h-6.4c.8-3.08 2.4-4.68 4.98-4.68 2.48 0 3.53 1.11 3.8 3.11l2.31-.1c-.28-3.02-1.95-5.02-5.94-5.02-4.15 0-6.89 2.72-7.76 7.56C.69-2.87 2.73.42 7.4.42zm0 0"/></symbol><symbol overflow="visible" id="43d85ea7dl"><path d="M2.31.23c1.24 0 2.02-.73 2.02-1.98 0-.9-.63-1.36-1.46-1.36-1.25 0-2.01.73-2.01 2C.86-.23 1.48.23 2.3.23zm0 0"/></symbol><symbol overflow="visible" id="43d85ea7da"><path d="M2.13-6.55h8.5l.32-2.04H2.47zm0 0"/></symbol></defs><path d="M20 239.14h960M20 388.07h960M20 688.93h960M20 871.34h960M20 1190.52h960M20 1612.27h960M20 1458.39h960M20 1806.7h960M20 2214.8h960" fill="none" stroke="#ddd"/><use xlink:href="#43d85ea7a" x="40.9091" y="169.0649"/><use xlink:href="#43d85ea7b" x="139.01676" y="169.0649"/><use xlink:href="#43d85ea7c" x="202.57816" y="169.0649"/><use xlink:href="#43d85ea7d" x="271.25236" y="169.0649"/><use xlink:href="#43d85ea7e" x="338.85752" y="169.0649"/><use xlink:href="#43d85ea7f" x="401.66362" y="169.0649"/><use xlink:href="#43d85ea7g" x="464.17922" y="169.0649"/><use xlink:href="#43d85ea7h" x="489.85942" y="169.0649"/><use xlink:href="#43d85ea7i" x="572.24522" y="169.0649"/><use xlink:href="#43d85ea7j" x="637.08482" y="169.0649"/><use xlink:href="#43d85ea7d" x="701.92442" y="169.0649"/><use xlink:href="#43d85ea7e" x="769.43662" y="169.0649"/><use xlink:href="#43d85ea7i" x="832.24272" y="169.0649"/><use xlink:href="#43d85ea7j" x="897.08232" y="169.0649"/><use xlink:href="#43d85ea7k" x="37.551" y="329.4792"/><use xlink:href="#43d85ea7l" x="75.637" y="329.4792"/><use xlink:href="#43d85ea7m" x="98.3242" y="329.4792"/><use xlink:href="#43d85ea7n" x="129.77392" y="329.4792"/><use xlink:href="#43d85ea7o" x="144.40552" y="329.4792"/><use xlink:href="#43d85ea7p" x="177.01152" y="329.4792"/><use xlink:href="#43d85ea7m" x="209.83672" y="329.4792"/><use xlink:href="#43d85ea7q" x="241.23712" y="329.4792"/><use xlink:href="#43d85ea7r" x="274.28152" y="329.4792"/><use xlink:href="#43d85ea7m" x="302.88712" y="329.4792"/><use xlink:href="#43d85ea7s" x="334.28752" y="329.4792"/><use xlink:href="#43d85ea7t" x="380.15512" y="329.4792"/><use xlink:href="#43d85ea7m" x="411.88432" y="329.4792"/><use xlink:href="#43d85ea7n" x="443.28472" y="329.4792"/><use xlink:href="#43d85ea7q" x="457.91632" y="329.4792"/><use xlink:href="#43d85ea7n" x="490.96072" y="329.4792"/><use xlink:href="#43d85ea7u" x="505.59232" y="329.4792"/><use xlink:href="#43d85ea7l" x="535.40352" y="329.4792"/><use xlink:href="#43d85ea7m" x="558.09072" y="329.4792"/><use xlink:href="#43d85ea7n" x="589.49112" y="329.4792"/><use xlink:href="#43d85ea7v" x="604.12272" y="329.4792"/><use xlink:href="#43d85ea7w" x="636.67392" y="329.4792"/><use xlink:href="#43d85ea7x" x="662.70392" y="329.4792"/><use xlink:href="#43d85ea7y" x="694.21392" y="329.4792"/><use xlink:href="#43d85ea7l" x="724.35392" y="329.4792"/><use xlink:href="#43d85ea7n" x="747.04112" y="329.4792"/><use xlink:href="#43d85ea7r" x="761.67272" y="329.4792"/><use xlink:href="#43d85ea7z" x="790.27832" y="329.4792"/><use xlink:href="#43d85ea7A" x="819.97992" y="329.4792"/><use xlink:href="#43d85ea7l" x="850.33912" y="329.4792"/><use xlink:href="#43d85ea7p" x="873.02632" y="329.4792"/><use xlink:href="#43d85ea7z" x="905.85152" y="329.4792"/><use xlink:href="#43d85ea7B" x="934.34752" y="329.4792"/><use xlink:href="#43d85ea7C" x="399.6194" y="963.0039"/><use xlink:href="#43d85ea7D" x="418.9002" y="963.0039"/><use xlink:href="#43d85ea7E" x="435.3642" y="963.0039"/><use xlink:href="#43d85ea7F" x="449.2242" y="963.0039"/><use xlink:href="#43d85ea7G" x="464.5122" y="963.0039"/><use xlink:href="#43d85ea7H" x="471.767" y="963.0039"/><use xlink:href="#43d85ea7I" x="487.979" y="963.0039"/><use xlink:href="#43d85ea7J" x="506.011" y="963.0039"/><use xlink:href="#43d85ea7G" x="531.435" y="963.0039"/><use xlink:href="#43d85ea7K" x="538.673" y="963.0039"/><use xlink:href="#43d85ea7G" x="563.481" y="963.0039"/><use xlink:href="#43d85ea7L" x="570.7526" y="963.0039"/><use xlink:href="#43d85ea7M" x="587.4126" y="963.0039"/><use xlink:href="#43d85ea7D" x="603.1654" y="963.0039"/><use xlink:href="#43d85ea7N" x="619.6294" y="963.0039"/><use xlink:href="#43d85ea7F" x="631.1654" y="963.0039"/><use xlink:href="#43d85ea7O" x="646.4534" y="963.0039"/><use xlink:href="#43d85ea7P" x="663.3374" y="963.0039"/><use xlink:href="#43d85ea7E" x="678.4574" y="963.0039"/><use xlink:href="#43d85ea7Q" x="692.3174" y="963.0039"/><use xlink:href="#43d85ea7R" x="709.3414" y="963.0039"/><use xlink:href="#43d85ea7G" x="726.3654" y="963.0039"/><use xlink:href="#43d85ea7F" x="733.6426" y="963.0039"/><use xlink:href="#43d85ea7O" x="748.9306" y="963.0039"/><use xlink:href="#43d85ea7Q" x="765.8146" y="963.0039"/><use xlink:href="#43d85ea7S" x="782.8386" y="963.0039"/><use xlink:href="#43d85ea7T" x="803.2226" y="963.0039"/><use xlink:href="#43d85ea7U" x="823.6066" y="963.0039"/><use xlink:href="#43d85ea7V" x="839.0906" y="963.0039"/><use xlink:href="#43d85ea7Q" x="850.9906" y="963.0039"/><use xlink:href="#43d85ea7W" x="868.0146" y="963.0039"/><use xlink:href="#43d85ea7U" x="883.4426" y="963.0039"/><use xlink:href="#43d85ea7P" x="898.9266" y="963.0039"/><use xlink:href="#43d85ea7E" x="914.0466" y="963.0039"/><use xlink:href="#43d85ea7Q" x="927.9066" y="963.0039"/><use xlink:href="#43d85ea7R" x="944.9306" y="963.0039"/><use xlink:href="#43d85ea7G" x="961.9546" y="963.0039"/><use xlink:href="#43d85ea7T" x="399.6194" y="1002.0079"/><use xlink:href="#43d85ea7Q" x="420.0034" y="1002.0079"/><use xlink:href="#43d85ea7E" x="437.0274" y="1002.0079"/><use xlink:href="#43d85ea7O" x="450.8874" y="1002.0079"/><use xlink:href="#43d85ea7M" x="467.7714" y="1002.0079"/><use xlink:href="#43d85ea7E" x="483.8994" y="1002.0079"/><use xlink:href="#43d85ea7F" x="497.7594" y="1002.0079"/><use xlink:href="#43d85ea7D" x="513.0474" y="1002.0079"/><use xlink:href="#43d85ea7X" x="529.5114" y="1002.0079"/><use xlink:href="#43d85ea7E" x="544.5474" y="1002.0079"/><use xlink:href="#43d85ea7Y" x="558.4074" y="1002.0079"/><use xlink:href="#43d85ea7D" x="571.9874" y="1002.0079"/><use xlink:href="#43d85ea7Z" x="588.4514" y="1002.0079"/><use xlink:href="#43d85ea7V" x="603.9074" y="1002.0079"/><use xlink:href="#43d85ea7M" x="615.8074" y="1002.0079"/><use xlink:href="#43d85ea7O" x="631.9354" y="1002.0079"/><use xlink:href="#43d85ea7G" x="648.8194" y="1002.0079"/><use xlink:href="#43d85ea7P" x="656.1834" y="1002.0079"/><use xlink:href="#43d85ea7G" x="671.3034" y="1002.0079"/><use xlink:href="#43d85ea7aa" x="678.6674" y="1002.0079"/><use xlink:href="#43d85ea7Q" x="695.4674" y="1002.0079"/><use xlink:href="#43d85ea7V" x="712.4914" y="1002.0079"/><use xlink:href="#43d85ea7F" x="724.3914" y="1002.0079"/><use xlink:href="#43d85ea7ab" x="739.6794" y="1002.0079"/><use xlink:href="#43d85ea7Q" x="756.5914" y="1002.0079"/><use xlink:href="#43d85ea7U" x="773.6154" y="1002.0079"/><use xlink:href="#43d85ea7T" x="789.0994" y="1002.0079"/><use xlink:href="#43d85ea7G" x="809.4834" y="1002.0079"/><use xlink:href="#43d85ea7M" x="816.8474" y="1002.0079"/><use xlink:href="#43d85ea7V" x="832.9754" y="1002.0079"/><use xlink:href="#43d85ea7G" x="844.8754" y="1002.0079"/><use xlink:href="#43d85ea7ac" x="852.2394" y="1002.0079"/><use xlink:href="#43d85ea7D" x="867.1942" y="1002.0079"/><use xlink:href="#43d85ea7U" x="883.6582" y="1002.0079"/><use xlink:href="#43d85ea7E" x="899.1422" y="1002.0079"/><use xlink:href="#43d85ea7ad" x="912.1874" y="1002.0079"/><use xlink:href="#43d85ea7V" x="399.6194" y="1041.0119"/><use xlink:href="#43d85ea7O" x="411.5194" y="1041.0119"/><use xlink:href="#43d85ea7M" x="428.4034" y="1041.0119"/><use xlink:href="#43d85ea7P" x="444.5314" y="1041.0119"/><use xlink:href="#43d85ea7U" x="459.6514" y="1041.0119"/><use xlink:href="#43d85ea7V" x="475.1354" y="1041.0119"/><use xlink:href="#43d85ea7Q" x="487.0354" y="1041.0119"/><use xlink:href="#43d85ea7G" x="504.0594" y="1041.0119"/><use xlink:href="#43d85ea7ae" x="511.4234" y="1041.0119"/><use xlink:href="#43d85ea7ae" x="527.1034" y="1041.0119"/><use xlink:href="#43d85ea7I" x="542.7834" y="1041.0119"/><use xlink:href="#43d85ea7G" x="560.8154" y="1041.0119"/><use xlink:href="#43d85ea7af" x="568.1794" y="1041.0119"/><g><use xlink:href="#43d85ea7ag" x="586.9002" y="1041.0119"/><use xlink:href="#43d85ea7G" x="593.3122" y="1041.0119"/><use xlink:href="#43d85ea7af" x="600.6762" y="1041.0119"/><use xlink:href="#43d85ea7ah" x="620.3042" y="1041.0119"/><use xlink:href="#43d85ea7aa" x="640.8842" y="1041.0119"/><use xlink:href="#43d85ea7Y" x="657.6842" y="1041.0119"/><use xlink:href="#43d85ea7P" x="671.2642" y="1041.0119"/><use xlink:href="#43d85ea7E" x="686.3842" y="1041.0119"/><use xlink:href="#43d85ea7F" x="700.2442" y="1041.0119"/><use xlink:href="#43d85ea7D" x="715.5322" y="1041.0119"/><use xlink:href="#43d85ea7P" x="731.9962" y="1041.0119"/><use xlink:href="#43d85ea7Z" x="747.1162" y="1041.0119"/><use xlink:href="#43d85ea7G" x="762.5722" y="1041.0119"/><use xlink:href="#43d85ea7P" x="769.9362" y="1041.0119"/><use xlink:href="#43d85ea7G" x="785.0562" y="1041.0119"/><use xlink:href="#43d85ea7ai" x="792.4202" y="1041.0119"/></g><g><use xlink:href="#43d85ea7aj" x="803.0602" y="1041.0119"/></g><g><use xlink:href="#43d85ea7ak" x="819.8742" y="1041.0119"/><use xlink:href="#43d85ea7al" x="833.0902" y="1041.0119"/><use xlink:href="#43d85ea7G" x="851.1222" y="1041.0119"/><use xlink:href="#43d85ea7N" x="858.4862" y="1041.0119"/><use xlink:href="#43d85ea7M" x="870.0222" y="1041.0119"/></g><g><use xlink:href="#43d85ea7am" x="885.915" y="1041.0119"/><use xlink:href="#43d85ea7F" x="902.407" y="1041.0119"/><use xlink:href="#43d85ea7G" x="917.695" y="1041.0119"/><use xlink:href="#43d85ea7ab" x="925.059" y="1041.0119"/><use xlink:href="#43d85ea7F" x="941.971" y="1041.0119"/><use xlink:href="#43d85ea7G" x="957.259" y="1041.0119"/></g><g><use xlink:href="#43d85ea7an" x="399.6194" y="1080.0159"/><use xlink:href="#43d85ea7F" x="414.4034" y="1080.0159"/><use xlink:href="#43d85ea7ao" x="429.6914" y="1080.0159"/><use xlink:href="#43d85ea7M" x="445.3714" y="1080.0159"/></g><g><use xlink:href="#43d85ea7am" x="461.2474" y="1080.0159"/><use xlink:href="#43d85ea7U" x="477.7394" y="1080.0159"/><use xlink:href="#43d85ea7G" x="493.2234" y="1080.0159"/><use xlink:href="#43d85ea7ap" x="500.5874" y="1080.0159"/><use xlink:href="#43d85ea7aq" x="520.7474" y="1080.0159"/><use xlink:href="#43d85ea7O" x="541.6634" y="1080.0159"/><use xlink:href="#43d85ea7N" x="558.5474" y="1080.0159"/></g><g><use xlink:href="#43d85ea7V" x="570.4866" y="1080.0159"/><use xlink:href="#43d85ea7U" x="582.3866" y="1080.0159"/></g><g><use xlink:href="#43d85ea7ar" x="597.6046" y="1080.0159"/><use xlink:href="#43d85ea7ab" x="611.5486" y="1080.0159"/><use xlink:href="#43d85ea7Q" x="628.4606" y="1080.0159"/><use xlink:href="#43d85ea7E" x="645.4846" y="1080.0159"/><use xlink:href="#43d85ea7F" x="659.3446" y="1080.0159"/><use xlink:href="#43d85ea7as" x="674.6326" y="1080.0159"/><use xlink:href="#43d85ea7G" x="694.7926" y="1080.0159"/><use xlink:href="#43d85ea7at" x="702.1566" y="1080.0159"/><use xlink:href="#43d85ea7N" x="709.9966" y="1080.0159"/></g><g><use xlink:href="#43d85ea7ag" x="720.5918" y="1080.0159"/><use xlink:href="#43d85ea7G" x="727.0038" y="1080.0159"/><use xlink:href="#43d85ea7au" x="734.3678" y="1080.0159"/><use xlink:href="#43d85ea7Q" x="754.0238" y="1080.0159"/><use xlink:href="#43d85ea7D" x="771.0478" y="1080.0159"/><use xlink:href="#43d85ea7Q" x="787.5118" y="1080.0159"/><use xlink:href="#43d85ea7P" x="804.5358" y="1080.0159"/><use xlink:href="#43d85ea7V" x="819.6558" y="1080.0159"/><use xlink:href="#43d85ea7O" x="831.5558" y="1080.0159"/><use xlink:href="#43d85ea7F" x="848.4398" y="1080.0159"/><use xlink:href="#43d85ea7av" x="863.7278" y="1080.0159"/></g><g><use xlink:href="#43d85ea7ag" x="870.6858" y="1080.0159"/><use xlink:href="#43d85ea7G" x="877.0978" y="1080.0159"/><use xlink:href="#43d85ea7H" x="884.4618" y="1080.0159"/><use xlink:href="#43d85ea7I" x="900.6738" y="1080.0159"/><use xlink:href="#43d85ea7aw" x="918.7058" y="1080.0159"/><use xlink:href="#43d85ea7G" x="944.1298" y="1080.0159"/></g><g><use xlink:href="#43d85ea7Q" x="399.6194" y="1119.0199"/><use xlink:href="#43d85ea7T" x="416.6434" y="1119.0199"/><use xlink:href="#43d85ea7U" x="437.0274" y="1119.0199"/><use xlink:href="#43d85ea7U" x="452.5114" y="1119.0199"/><use xlink:href="#43d85ea7V" x="467.9954" y="1119.0199"/><use xlink:href="#43d85ea7G" x="479.8954" y="1119.0199"/><use xlink:href="#43d85ea7aa" x="487.2594" y="1119.0199"/><use xlink:href="#43d85ea7D" x="504.0594" y="1119.0199"/><use xlink:href="#43d85ea7F" x="520.5234" y="1119.0199"/><use xlink:href="#43d85ea7P" x="535.8114" y="1119.0199"/><use xlink:href="#43d85ea7V" x="550.9314" y="1119.0199"/><use xlink:href="#43d85ea7T" x="562.8314" y="1119.0199"/><use xlink:href="#43d85ea7F" x="583.2154" y="1119.0199"/><use xlink:href="#43d85ea7P" x="598.5034" y="1119.0199"/><use xlink:href="#43d85ea7P" x="613.6234" y="1119.0199"/><use xlink:href="#43d85ea7M" x="628.7434" y="1119.0199"/><use xlink:href="#43d85ea7ao" x="644.8714" y="1119.0199"/><use xlink:href="#43d85ea7Y" x="660.5514" y="1119.0199"/><use xlink:href="#43d85ea7ax" x="674.1314" y="1119.0199"/><use xlink:href="#43d85ea7G" x="695.9714" y="1119.0199"/><use xlink:href="#43d85ea7aa" x="703.3354" y="1119.0199"/><use xlink:href="#43d85ea7M" x="720.1354" y="1119.0199"/></g><g><use xlink:href="#43d85ea7am" x="736.101" y="1119.0199"/><use xlink:href="#43d85ea7P" x="752.593" y="1119.0199"/><use xlink:href="#43d85ea7V" x="767.713" y="1119.0199"/><use xlink:href="#43d85ea7F" x="779.613" y="1119.0199"/><use xlink:href="#43d85ea7ao" x="794.901" y="1119.0199"/><use xlink:href="#43d85ea7E" x="810.581" y="1119.0199"/><use xlink:href="#43d85ea7Y" x="824.441" y="1119.0199"/></g><g><use xlink:href="#43d85ea7ag" x="836.5678" y="1119.0199"/></g><g><use xlink:href="#43d85ea7ay" x="34.0939" y="604.6387"/><use xlink:href="#43d85ea7az" x="186.1779" y="604.6387"/><use xlink:href="#43d85ea7aA" x="327.0329" y="604.6387"/><use xlink:href="#43d85ea7aB" x="523.0479" y="604.6387"/><use xlink:href="#43d85ea7aC" x="669.8129" y="604.6387"/><use xlink:href="#43d85ea7aD" x="825.2459" y="604.6387"/></g><g><use xlink:href="#43d85ea7aE" x="29.7652" y="1375.4355"/><use xlink:href="#43d85ea7aF" x="158.2544" y="1375.4355"/><use xlink:href="#43d85ea7aG" x="259.968" y="1375.4355"/><use xlink:href="#43d85ea7aH" x="355.956" y="1375.4355"/><use xlink:href="#43d85ea7aI" x="440.6612" y="1375.4355"/><use xlink:href="#43d85ea7aF" x="547.09" y="1375.4355"/><use xlink:href="#43d85ea7aJ" x="648.8036" y="1375.4355"/><use xlink:href="#43d85ea7aK" x="759.274" y="1375.4355"/><use xlink:href="#43d85ea7aL" x="857.788" y="1375.4355"/></g><g><use xlink:href="#43d85ea7aM" x="32.5692" y="2330.0467"/><use xlink:href="#43d85ea7aN" x="88.1808" y="2330.0467"/><use xlink:href="#43d85ea7aO" x="150.2538" y="2330.0467"/><use xlink:href="#43d85ea7aP" x="211.1652" y="2330.0467"/><use xlink:href="#43d85ea7aQ" x="265.9782" y="2330.0467"/><use xlink:href="#43d85ea7aN" x="327.6882" y="2330.0467"/><use xlink:href="#43d85ea7aR" x="389.7612" y="2330.0467"/><use xlink:href="#43d85ea7aS" x="466.0638" y="2330.0467"/></g><g><use xlink:href="#43d85ea7aT" x="518.1543" y="2330.0467"/><use xlink:href="#43d85ea7aN" x="564.9087" y="2330.0467"/><use xlink:href="#43d85ea7aU" x="626.9817" y="2330.0467"/><use xlink:href="#43d85ea7aV" x="684.4083" y="2330.0467"/></g><g><use xlink:href="#43d85ea7aW" x="736.29552" y="2330.0467"/><use xlink:href="#43d85ea7aP" x="794.01252" y="2330.0467"/><use xlink:href="#43d85ea7aN" x="848.82552" y="2330.0467"/><use xlink:href="#43d85ea7aX" x="910.89852" y="2330.0467"/></g><g><use xlink:href="#43d85ea7aY" x="35.296" y="1736.7304"/><use xlink:href="#43d85ea7aZ" x="103.7296" y="1736.7304"/></g><g><use xlink:href="#43d85ea7ba" x="158.68092" y="1736.7304"/><use xlink:href="#43d85ea7bb" x="211.08212" y="1736.7304"/><use xlink:href="#43d85ea7bc" x="268.32532" y="1736.7304"/><use xlink:href="#43d85ea7bd" x="320.61892" y="1736.7304"/><use xlink:href="#43d85ea7bc" x="386.25492" y="1736.7304"/><use xlink:href="#43d85ea7be" x="438.54852" y="1736.7304"/><use xlink:href="#43d85ea7be" x="495.25372" y="1736.7304"/><use xlink:href="#43d85ea7bf" x="551.95892" y="1736.7304"/><use xlink:href="#43d85ea7bg" x="617.37972" y="1736.7304"/><use xlink:href="#43d85ea7bh" x="674.08492" y="1736.7304"/><use xlink:href="#43d85ea7bi" x="699.69372" y="1736.7304"/><use xlink:href="#43d85ea7aZ" x="738.53732" y="1736.7304"/><use xlink:href="#43d85ea7bb" x="793.41332" y="1736.7304"/><use xlink:href="#43d85ea7aZ" x="850.65652" y="1736.7304"/></g><g><use xlink:href="#43d85ea7bj" x="904.704" y="1736.7304"/></g><path d="M360.66 932.22v200" fill="none" stroke="#ddd"/><path d="M622.3 1871.27v267.28" fill="none" stroke-width=".99" stroke="#ddd"/><g><use xlink:href="#43d85ea7bk" x="42.3361" y="1119.9266"/></g><g><use xlink:href="#43d85ea7bl" x="655.1511" y="2125.5689"/></g><g fill="#ff5000"><use xlink:href="#43d85ea7bm" x="20" y="669.4252"/><use xlink:href="#43d85ea7bn" x="28.532" y="669.4252"/><use xlink:href="#43d85ea7bo" x="31.676" y="669.4252"/><use xlink:href="#43d85ea7bp" x="37.7" y="669.4252"/><use xlink:href="#43d85ea7bq" x="44.984" y="669.4252"/><use xlink:href="#43d85ea7br" x="48.128" y="669.4252"/><use xlink:href="#43d85ea7bs" x="54.728" y="669.4252"/><use xlink:href="#43d85ea7bt" x="60.656" y="669.4252"/><use xlink:href="#43d85ea7bu" x="63.776" y="669.4252"/><use xlink:href="#43d85ea7bq" x="72.248" y="669.4252"/><use xlink:href="#43d85ea7br" x="75.392" y="669.4252"/><use xlink:href="#43d85ea7bv" x="81.992" y="669.4252"/><use xlink:href="#43d85ea7bw" x="88.52" y="669.4252"/></g><g fill="#ff5000"><use xlink:href="#43d85ea7bm" x="20" y="1171.0132"/><use xlink:href="#43d85ea7bn" x="28.532" y="1171.0132"/><use xlink:href="#43d85ea7bo" x="31.676" y="1171.0132"/><use xlink:href="#43d85ea7bp" x="37.7" y="1171.0132"/><use xlink:href="#43d85ea7bq" x="44.984" y="1171.0132"/><use xlink:href="#43d85ea7br" x="48.128" y="1171.0132"/><use xlink:href="#43d85ea7bs" x="54.728" y="1171.0132"/><use xlink:href="#43d85ea7bt" x="60.656" y="1171.0132"/><use xlink:href="#43d85ea7bx" x="63.776" y="1171.0132"/><use xlink:href="#43d85ea7by" x="71.336" y="1171.0132"/><use xlink:href="#43d85ea7bz" x="77.372" y="1171.0132"/><use xlink:href="#43d85ea7bA" x="82.1" y="1171.0132"/><use xlink:href="#43d85ea7br" x="86.72" y="1171.0132"/><use xlink:href="#43d85ea7bB" x="93.32" y="1171.0132"/><use xlink:href="#43d85ea7bC" x="100.604" y="1171.0132"/><use xlink:href="#43d85ea7bq" x="107.54" y="1171.0132"/><use xlink:href="#43d85ea7bD" x="110.684" y="1171.0132"/></g><g fill="#ff5000"><use xlink:href="#43d85ea7bm" x="20" y="1787.1892"/><use xlink:href="#43d85ea7bn" x="28.532" y="1787.1892"/><use xlink:href="#43d85ea7bo" x="31.676" y="1787.1892"/><use xlink:href="#43d85ea7bp" x="37.7" y="1787.1892"/><use xlink:href="#43d85ea7bq" x="44.984" y="1787.1892"/><use xlink:href="#43d85ea7br" x="48.128" y="1787.1892"/><use xlink:href="#43d85ea7bs" x="54.728" y="1787.1892"/><use xlink:href="#43d85ea7bt" x="60.656" y="1787.1892"/><use xlink:href="#43d85ea7bE" x="63.776" y="1787.1892"/><use xlink:href="#43d85ea7bF" x="70.184" y="1787.1892"/><use xlink:href="#43d85ea7bn" x="77.36" y="1787.1892"/><use xlink:href="#43d85ea7bG" x="80.504" y="1787.1892"/></g><g fill="#ff5000"><use xlink:href="#43d85ea7bm" x="663.824" y="2195.2972"/><use xlink:href="#43d85ea7bn" x="672.356" y="2195.2972"/><use xlink:href="#43d85ea7bo" x="675.5" y="2195.2972"/><use xlink:href="#43d85ea7bp" x="681.524" y="2195.2972"/><use xlink:href="#43d85ea7bq" x="688.808" y="2195.2972"/><use xlink:href="#43d85ea7br" x="691.952" y="2195.2972"/><use xlink:href="#43d85ea7bs" x="698.552" y="2195.2972"/><use xlink:href="#43d85ea7bt" x="704.48" y="2195.2972"/><use xlink:href="#43d85ea7bx" x="707.6" y="2195.2972"/><use xlink:href="#43d85ea7by" x="715.16" y="2195.2972"/><use xlink:href="#43d85ea7bz" x="721.196" y="2195.2972"/><use xlink:href="#43d85ea7bA" x="725.924" y="2195.2972"/><use xlink:href="#43d85ea7br" x="730.544" y="2195.2972"/><use xlink:href="#43d85ea7bB" x="737.144" y="2195.2972"/><use xlink:href="#43d85ea7bC" x="744.428" y="2195.2972"/><use xlink:href="#43d85ea7bq" x="751.364" y="2195.2972"/><use xlink:href="#43d85ea7bD" x="754.508" y="2195.2972"/><use xlink:href="#43d85ea7bt" x="761.792" y="2195.2972"/><use xlink:href="#43d85ea7bH" x="764.912" y="2195.2972"/><use xlink:href="#43d85ea7bz" x="768.452" y="2195.2972"/><use xlink:href="#43d85ea7br" x="773.18" y="2195.2972"/><use xlink:href="#43d85ea7bq" x="779.78" y="2195.2972"/><use xlink:href="#43d85ea7bn" x="782.924" y="2195.2972"/><use xlink:href="#43d85ea7bv" x="786.068" y="2195.2972"/></g><g fill="#ff5000"><use xlink:href="#43d85ea7bE" x="20" y="368.5612"/></g><g fill="#ff5000"><use xlink:href="#43d85ea7bI" x="25.892" y="368.5612"/></g><g fill="#ff5000"><use xlink:href="#43d85ea7by" x="32.5028" y="368.5612"/><use xlink:href="#43d85ea7bz" x="38.5388" y="368.5612"/><use xlink:href="#43d85ea7bt" x="43.2668" y="368.5612"/><use xlink:href="#43d85ea7bx" x="46.3868" y="368.5612"/><use xlink:href="#43d85ea7by" x="53.9468" y="368.5612"/><use xlink:href="#43d85ea7bz" x="59.9828" y="368.5612"/><use xlink:href="#43d85ea7bA" x="64.7108" y="368.5612"/><use xlink:href="#43d85ea7br" x="69.3308" y="368.5612"/><use xlink:href="#43d85ea7bq" x="75.9308" y="368.5612"/><use xlink:href="#43d85ea7bn" x="79.0748" y="368.5612"/><use xlink:href="#43d85ea7bJ" x="82.2188" y="368.5612"/><use xlink:href="#43d85ea7bF" x="89.5028" y="368.5612"/><use xlink:href="#43d85ea7bz" x="96.6788" y="368.5612"/><use xlink:href="#43d85ea7bt" x="101.4068" y="368.5612"/><use xlink:href="#43d85ea7bH" x="104.5268" y="368.5612"/><use xlink:href="#43d85ea7bz" x="108.0668" y="368.5612"/><use xlink:href="#43d85ea7br" x="112.7948" y="368.5612"/><use xlink:href="#43d85ea7bq" x="119.3948" y="368.5612"/><use xlink:href="#43d85ea7bn" x="122.5388" y="368.5612"/><use xlink:href="#43d85ea7bv" x="125.6828" y="368.5612"/></g><g fill="#ff5000"><use xlink:href="#43d85ea7bE" x="20" y="851.8252"/></g><g fill="#ff5000"><use xlink:href="#43d85ea7bI" x="25.892" y="851.8252"/></g><g fill="#ff5000"><use xlink:href="#43d85ea7by" x="32.5028" y="851.8252"/><use xlink:href="#43d85ea7bz" x="38.5388" y="851.8252"/><use xlink:href="#43d85ea7bt" x="43.2668" y="851.8252"/><use xlink:href="#43d85ea7bK" x="46.3868" y="851.8252"/><use xlink:href="#43d85ea7bn" x="52.7948" y="851.8252"/><use xlink:href="#43d85ea7bJ" x="55.9388" y="851.8252"/><use xlink:href="#43d85ea7bF" x="63.2228" y="851.8252"/><use xlink:href="#43d85ea7bz" x="70.3988" y="851.8252"/><use xlink:href="#43d85ea7bt" x="75.1268" y="851.8252"/><use xlink:href="#43d85ea7bH" x="78.2468" y="851.8252"/><use xlink:href="#43d85ea7bz" x="81.7868" y="851.8252"/><use xlink:href="#43d85ea7br" x="86.5148" y="851.8252"/><use xlink:href="#43d85ea7bq" x="93.1148" y="851.8252"/><use xlink:href="#43d85ea7bn" x="96.2588" y="851.8252"/><use xlink:href="#43d85ea7bv" x="99.4028" y="851.8252"/><use xlink:href="#43d85ea7bt" x="105.9308" y="851.8252"/><use xlink:href="#43d85ea7bL" x="109.0508" y="851.8252"/></g><g fill="#ff5000"><use xlink:href="#43d85ea7bo" x="112.496" y="851.8252"/></g><g fill="#ff5000"><use xlink:href="#43d85ea7bz" x="118.4672" y="851.8252"/><use xlink:href="#43d85ea7bs" x="123.1952" y="851.8252"/><use xlink:href="#43d85ea7bq" x="129.1232" y="851.8252"/><use xlink:href="#43d85ea7bn" x="132.2672" y="851.8252"/><use xlink:href="#43d85ea7bo" x="135.4112" y="851.8252"/></g><g fill="#ff5000"><use xlink:href="#43d85ea7bz" x="141.3932" y="851.8252"/><use xlink:href="#43d85ea7bn" x="146.1212" y="851.8252"/><use xlink:href="#43d85ea7bv" x="149.2652" y="851.8252"/><use xlink:href="#43d85ea7bt" x="155.7932" y="851.8252"/><use xlink:href="#43d85ea7bo" x="158.9132" y="851.8252"/></g><g fill="#ff5000"><use xlink:href="#43d85ea7bI" x="164.8388" y="851.8252"/><use xlink:href="#43d85ea7bz" x="171.5108" y="851.8252"/><use xlink:href="#43d85ea7bt" x="176.2388" y="851.8252"/></g><g fill="#ff5000"><use xlink:href="#43d85ea7bM" x="179.3588" y="851.8252"/><use xlink:href="#43d85ea7bN" x="186.1508" y="851.8252"/><use xlink:href="#43d85ea7bt" x="189.1268" y="851.8252"/><use xlink:href="#43d85ea7bo" x="192.2468" y="851.8252"/><use xlink:href="#43d85ea7bn" x="198.2708" y="851.8252"/><use xlink:href="#43d85ea7bG" x="201.4148" y="851.8252"/><use xlink:href="#43d85ea7bJ" x="208.5908" y="851.8252"/><use xlink:href="#43d85ea7bq" x="215.8748" y="851.8252"/><use xlink:href="#43d85ea7bI" x="219.0188" y="851.8252"/><use xlink:href="#43d85ea7bO" x="225.6908" y="851.8252"/><use xlink:href="#43d85ea7bo" x="230.9948" y="851.8252"/></g><g fill="#ff5000"><use xlink:href="#43d85ea7bz" x="236.9636" y="851.8252"/></g><g fill="#ff5000"><use xlink:href="#43d85ea7bC" x="241.5752" y="851.8252"/><use xlink:href="#43d85ea7bA" x="248.5112" y="851.8252"/><use xlink:href="#43d85ea7bI" x="253.1312" y="851.8252"/><use xlink:href="#43d85ea7bs" x="259.8032" y="851.8252"/><use xlink:href="#43d85ea7bt" x="265.7312" y="851.8252"/><use xlink:href="#43d85ea7bP" x="268.8512" y="851.8252"/><use xlink:href="#43d85ea7br" x="273.3032" y="851.8252"/></g><g fill="#ff5000"><use xlink:href="#43d85ea7bQ" x="279.392" y="851.8252"/></g><g fill="#ff5000"><use xlink:href="#43d85ea7bR" x="284.216" y="851.8252"/></g><g fill="#ff5000"><use xlink:href="#43d85ea7bE" x="20" y="2195.2852"/></g><g fill="#ff5000"><use xlink:href="#43d85ea7bI" x="25.892" y="2195.2852"/></g><g fill="#ff5000"><use xlink:href="#43d85ea7by" x="32.5028" y="2195.2852"/><use xlink:href="#43d85ea7bz" x="38.5388" y="2195.2852"/><use xlink:href="#43d85ea7bt" x="43.2668" y="2195.2852"/><use xlink:href="#43d85ea7bH" x="46.3868" y="2195.2852"/><use xlink:href="#43d85ea7bz" x="49.9268" y="2195.2852"/><use xlink:href="#43d85ea7br" x="54.6548" y="2195.2852"/><use xlink:href="#43d85ea7bq" x="61.2548" y="2195.2852"/><use xlink:href="#43d85ea7bn" x="64.3988" y="2195.2852"/><use xlink:href="#43d85ea7bv" x="67.5428" y="2195.2852"/><use xlink:href="#43d85ea7bt" x="74.0708" y="2195.2852"/><use xlink:href="#43d85ea7bL" x="77.1908" y="2195.2852"/></g><g fill="#ff5000"><use xlink:href="#43d85ea7bo" x="80.636" y="2195.2852"/></g><g fill="#ff5000"><use xlink:href="#43d85ea7bz" x="86.6072" y="2195.2852"/><use xlink:href="#43d85ea7bs" x="91.3352" y="2195.2852"/><use xlink:href="#43d85ea7bq" x="97.2632" y="2195.2852"/><use xlink:href="#43d85ea7bn" x="100.4072" y="2195.2852"/><use xlink:href="#43d85ea7bo" x="103.5512" y="2195.2852"/></g><g fill="#ff5000"><use xlink:href="#43d85ea7bz" x="109.5332" y="2195.2852"/><use xlink:href="#43d85ea7bn" x="114.2612" y="2195.2852"/><use xlink:href="#43d85ea7bv" x="117.4052" y="2195.2852"/><use xlink:href="#43d85ea7bt" x="123.9332" y="2195.2852"/><use xlink:href="#43d85ea7bo" x="127.0532" y="2195.2852"/></g><g fill="#ff5000"><use xlink:href="#43d85ea7bI" x="132.9788" y="2195.2852"/><use xlink:href="#43d85ea7bz" x="139.6508" y="2195.2852"/><use xlink:href="#43d85ea7bt" x="144.3788" y="2195.2852"/></g><g fill="#ff5000"><use xlink:href="#43d85ea7bM" x="147.4988" y="2195.2852"/><use xlink:href="#43d85ea7bN" x="154.2908" y="2195.2852"/><use xlink:href="#43d85ea7bt" x="157.2668" y="2195.2852"/><use xlink:href="#43d85ea7bo" x="160.3868" y="2195.2852"/><use xlink:href="#43d85ea7bn" x="166.4108" y="2195.2852"/><use xlink:href="#43d85ea7bG" x="169.5548" y="2195.2852"/><use xlink:href="#43d85ea7bJ" x="176.7308" y="2195.2852"/><use xlink:href="#43d85ea7bq" x="184.0148" y="2195.2852"/><use xlink:href="#43d85ea7bI" x="187.1588" y="2195.2852"/><use xlink:href="#43d85ea7bO" x="193.8308" y="2195.2852"/><use xlink:href="#43d85ea7bo" x="199.1348" y="2195.2852"/></g><g fill="#ff5000"><use xlink:href="#43d85ea7bz" x="205.1036" y="2195.2852"/></g><g fill="#ff5000"><use xlink:href="#43d85ea7bC" x="209.7152" y="2195.2852"/><use xlink:href="#43d85ea7bA" x="216.6512" y="2195.2852"/><use xlink:href="#43d85ea7bI" x="221.2712" y="2195.2852"/><use xlink:href="#43d85ea7bs" x="227.9432" y="2195.2852"/><use xlink:href="#43d85ea7bt" x="233.8712" y="2195.2852"/><use xlink:href="#43d85ea7bP" x="236.9912" y="2195.2852"/><use xlink:href="#43d85ea7br" x="241.4432" y="2195.2852"/></g><g fill="#ff5000"><use xlink:href="#43d85ea7bQ" x="247.532" y="2195.2852"/></g><g fill="#ff5000"><use xlink:href="#43d85ea7bR" x="252.356" y="2195.2852"/></g><g fill="#ff5000"><use xlink:href="#43d85ea7bE" x="20" y="2379.9892"/></g><g fill="#ff5000"><use xlink:href="#43d85ea7bI" x="25.892" y="2379.9892"/></g><g fill="#ff5000"><use xlink:href="#43d85ea7by" x="32.5028" y="2379.9892"/><use xlink:href="#43d85ea7bz" x="38.5388" y="2379.9892"/><use xlink:href="#43d85ea7bt" x="43.2668" y="2379.9892"/><use xlink:href="#43d85ea7bu" x="46.3868" y="2379.9892"/><use xlink:href="#43d85ea7bC" x="54.8588" y="2379.9892"/><use xlink:href="#43d85ea7bq" x="61.7948" y="2379.9892"/><use xlink:href="#43d85ea7bD" x="64.9388" y="2379.9892"/></g><g fill="#ff5000"><use xlink:href="#43d85ea7bE" x="397.496" y="1170.9892"/></g><g fill="#ff5000"><use xlink:href="#43d85ea7bI" x="403.388" y="1170.9892"/></g><g fill="#ff5000"><use xlink:href="#43d85ea7by" x="409.9988" y="1170.9892"/><use xlink:href="#43d85ea7bz" x="416.0348" y="1170.9892"/><use xlink:href="#43d85ea7bt" x="420.7628" y="1170.9892"/><use xlink:href="#43d85ea7bK" x="423.8828" y="1170.9892"/><use xlink:href="#43d85ea7bn" x="430.2908" y="1170.9892"/><use xlink:href="#43d85ea7bJ" x="433.4348" y="1170.9892"/><use xlink:href="#43d85ea7bF" x="440.7188" y="1170.9892"/><use xlink:href="#43d85ea7bz" x="447.8948" y="1170.9892"/></g><g fill="#ff5000"><use xlink:href="#43d85ea7bm" x="20" y="219.6052"/><use xlink:href="#43d85ea7bn" x="28.532" y="219.6052"/><use xlink:href="#43d85ea7bo" x="31.676" y="219.6052"/><use xlink:href="#43d85ea7bp" x="37.7" y="219.6052"/><use xlink:href="#43d85ea7bq" x="44.984" y="219.6052"/><use xlink:href="#43d85ea7br" x="48.128" y="219.6052"/><use xlink:href="#43d85ea7bs" x="54.728" y="219.6052"/><use xlink:href="#43d85ea7bt" x="60.656" y="219.6052"/><use xlink:href="#43d85ea7bx" x="63.776" y="219.6052"/><use xlink:href="#43d85ea7by" x="71.336" y="219.6052"/><use xlink:href="#43d85ea7bz" x="77.372" y="219.6052"/><use xlink:href="#43d85ea7bA" x="82.1" y="219.6052"/><use xlink:href="#43d85ea7br" x="86.72" y="219.6052"/><use xlink:href="#43d85ea7bB" x="93.32" y="219.6052"/><use xlink:href="#43d85ea7bC" x="100.604" y="219.6052"/><use xlink:href="#43d85ea7bq" x="107.54" y="219.6052"/><use xlink:href="#43d85ea7bD" x="110.684" y="219.6052"/></g><g><use xlink:href="#43d85ea7bS" x="36.3883" y="1554.1371"/><use xlink:href="#43d85ea7bT" x="88.7275" y="1554.1371"/></g><g><use xlink:href="#43d85ea7bU" x="122.22598" y="1554.1371"/><use xlink:href="#43d85ea7bV" x="162.59398" y="1554.1371"/><use xlink:href="#43d85ea7bU" x="205.04998" y="1554.1371"/></g><g><use xlink:href="#43d85ea7bW" x="244.81942" y="1554.1371"/><use xlink:href="#43d85ea7bX" x="287.69302" y="1554.1371"/><use xlink:href="#43d85ea7bY" x="305.58022" y="1554.1371"/><use xlink:href="#43d85ea7bZ" x="344.34742" y="1554.1371"/><use xlink:href="#43d85ea7bU" x="375.52822" y="1554.1371"/><use xlink:href="#43d85ea7bX" x="415.89622" y="1554.1371"/><use xlink:href="#43d85ea7ca" x="433.78342" y="1554.1371"/><use xlink:href="#43d85ea7cb" x="476.58742" y="1554.1371"/><use xlink:href="#43d85ea7bX" x="515.42422" y="1554.1371"/><use xlink:href="#43d85ea7cc" x="533.31142" y="1554.1371"/></g><g><use xlink:href="#43d85ea7bU" x="568.57774" y="1554.1371"/><use xlink:href="#43d85ea7cd" x="608.94574" y="1554.1371"/><use xlink:href="#43d85ea7ce" x="661.63294" y="1554.1371"/></g><g><use xlink:href="#43d85ea7cf" x="704.1307" y="1554.1371"/><use xlink:href="#43d85ea7cg" x="742.2019" y="1554.1371"/><use xlink:href="#43d85ea7bZ" x="797.9515" y="1554.1371"/><use xlink:href="#43d85ea7cb" x="829.1323" y="1554.1371"/><use xlink:href="#43d85ea7bV" x="867.9691" y="1554.1371"/></g><g><use xlink:href="#43d85ea7ch" x="910.36942" y="1554.1371"/></g><g fill="#ff5000"><use xlink:href="#43d85ea7bE" x="21.4173" y="1439.0118"/></g><g fill="#ff5000"><use xlink:href="#43d85ea7bI" x="27.3093" y="1439.0118"/></g><g fill="#ff5000"><use xlink:href="#43d85ea7by" x="33.9201" y="1439.0118"/><use xlink:href="#43d85ea7bz" x="39.9561" y="1439.0118"/><use xlink:href="#43d85ea7bt" x="44.6841" y="1439.0118"/><use xlink:href="#43d85ea7bx" x="47.8041" y="1439.0118"/><use xlink:href="#43d85ea7by" x="55.3641" y="1439.0118"/><use xlink:href="#43d85ea7bz" x="61.4001" y="1439.0118"/><use xlink:href="#43d85ea7bA" x="66.1281" y="1439.0118"/><use xlink:href="#43d85ea7br" x="70.7481" y="1439.0118"/><use xlink:href="#43d85ea7bB" x="77.3481" y="1439.0118"/><use xlink:href="#43d85ea7bC" x="84.6321" y="1439.0118"/><use xlink:href="#43d85ea7bq" x="91.5681" y="1439.0118"/><use xlink:href="#43d85ea7bD" x="94.7121" y="1439.0118"/></g><g fill="#ff5000"><use xlink:href="#43d85ea7bE" x="21.5493" y="1592.8998"/></g><g fill="#ff5000"><use xlink:href="#43d85ea7bI" x="27.4413" y="1592.8998"/></g><g fill="#ff5000"><use xlink:href="#43d85ea7by" x="34.0521" y="1592.8998"/><use xlink:href="#43d85ea7bz" x="40.0881" y="1592.8998"/><use xlink:href="#43d85ea7bt" x="44.8161" y="1592.8998"/><use xlink:href="#43d85ea7ci" x="47.9361" y="1592.8998"/><use xlink:href="#43d85ea7bI" x="59.0601" y="1592.8998"/><use xlink:href="#43d85ea7bD" x="65.7321" y="1592.8998"/><use xlink:href="#43d85ea7bn" x="73.0161" y="1592.8998"/><use xlink:href="#43d85ea7cj" x="76.1601" y="1592.8998"/><use xlink:href="#43d85ea7ck" x="83.2041" y="1592.8998"/><use xlink:href="#43d85ea7bt" x="94.2801" y="1592.8998"/><use xlink:href="#43d85ea7bH" x="97.4001" y="1592.8998"/><use xlink:href="#43d85ea7bz" x="100.9401" y="1592.8998"/><use xlink:href="#43d85ea7br" x="105.6681" y="1592.8998"/><use xlink:href="#43d85ea7bq" x="112.2681" y="1592.8998"/><use xlink:href="#43d85ea7bn" x="115.4121" y="1592.8998"/><use xlink:href="#43d85ea7bv" x="118.5561" y="1592.8998"/></g><g><use xlink:href="#43d85ea7cl" x="33.8764" y="804.3652"/></g><g><use xlink:href="#43d85ea7cm" x="85.9636" y="804.3652"/></g><g><use xlink:href="#43d85ea7cn" x="135.4548" y="804.3652"/><use xlink:href="#43d85ea7cn" x="187.1988" y="804.3652"/><use xlink:href="#43d85ea7co" x="238.9428" y="804.3652"/><use xlink:href="#43d85ea7cp" x="287.6068" y="804.3652"/><use xlink:href="#43d85ea7cq" x="331.0788" y="804.3652"/><use xlink:href="#43d85ea7cr" x="368.4788" y="804.3652"/><use xlink:href="#43d85ea7cs" x="421.9828" y="804.3652"/><use xlink:href="#43d85ea7ct" x="471.2628" y="804.3652"/><use xlink:href="#43d85ea7cu" x="524.4148" y="804.3652"/><use xlink:href="#43d85ea7cv" x="577.3908" y="804.3652"/><use xlink:href="#43d85ea7cw" x="625.9668" y="804.3652"/><use xlink:href="#43d85ea7cx" x="649.1108" y="804.3652"/><use xlink:href="#43d85ea7cu" x="714.7588" y="804.3652"/><use xlink:href="#43d85ea7cy" x="767.7348" y="804.3652"/><use xlink:href="#43d85ea7cv" x="831.7988" y="804.3652"/><use xlink:href="#43d85ea7cq" x="880.3748" y="804.3652"/><use xlink:href="#43d85ea7cz" x="917.7748" y="804.3652"/></g><g><use xlink:href="#43d85ea7cA" x="40" y="1902.9383"/><use xlink:href="#43d85ea7cB" x="62.094044" y="1902.9383"/><use xlink:href="#43d85ea7cC" x="79.098515" y="1902.9383"/><use xlink:href="#43d85ea7cD" x="104.311027" y="1902.9383"/><use xlink:href="#43d85ea7cE" x="122.34518" y="1902.9383"/></g><g><use xlink:href="#43d85ea7cF" x="140.152804" y="1902.9383"/><use xlink:href="#43d85ea7cG" x="156.510046" y="1902.9383"/></g><g><use xlink:href="#43d85ea7cD" x="174.441231" y="1902.9383"/><use xlink:href="#43d85ea7cH" x="192.475385" y="1902.9383"/><use xlink:href="#43d85ea7cI" x="210.509538" y="1902.9383"/><use xlink:href="#43d85ea7cJ" x="218.158608" y="1902.9383"/><use xlink:href="#43d85ea7cE" x="235.957406" y="1902.9383"/><use xlink:href="#43d85ea7cD" x="253.785623" y="1902.9383"/><use xlink:href="#43d85ea7cH" x="271.819776" y="1902.9383"/><use xlink:href="#43d85ea7cB" x="289.85393" y="1902.9383"/></g><g><use xlink:href="#43d85ea7cK" x="306.837807" y="1902.9383"/><use xlink:href="#43d85ea7cI" x="328.667076" y="1902.9383"/><use xlink:href="#43d85ea7cL" x="336.316146" y="1902.9383"/><use xlink:href="#43d85ea7cM" x="354.144363" y="1902.9383"/><use xlink:href="#43d85ea7cN" x="369.00121" y="1902.9383"/><use xlink:href="#43d85ea7cF" x="387.094203" y="1902.9383"/><use xlink:href="#43d85ea7cG" x="403.451445" y="1902.9383"/><use xlink:href="#43d85ea7cO" x="421.39734" y="1902.9383"/></g><g><use xlink:href="#43d85ea7cP" x="434.494901" y="1902.9383"/><use xlink:href="#43d85ea7cQ" x="449.028134" y="1902.9383"/><use xlink:href="#43d85ea7cL" x="465.679571" y="1902.9383"/><use xlink:href="#43d85ea7cG" x="483.507788" y="1902.9383"/></g><g><use xlink:href="#43d85ea7cG" x="501.438974" y="1902.9383"/></g><g><use xlink:href="#43d85ea7cR" x="519.370159" y="1902.9383"/><use xlink:href="#43d85ea7cI" x="535.845079" y="1902.9383"/></g><g><use xlink:href="#43d85ea7cP" x="40" y="1947.06755"/><use xlink:href="#43d85ea7cQ" x="54.533233" y="1947.06755"/><use xlink:href="#43d85ea7cL" x="71.18467" y="1947.06755"/><use xlink:href="#43d85ea7cS" x="89.012887" y="1947.06755"/><use xlink:href="#43d85ea7cD" x="101.369077" y="1947.06755"/><use xlink:href="#43d85ea7cI" x="119.40323" y="1947.06755"/><use xlink:href="#43d85ea7cG" x="127.0523" y="1947.06755"/><use xlink:href="#43d85ea7cL" x="144.998195" y="1947.06755"/></g><g><use xlink:href="#43d85ea7cI" x="162.802877" y="1947.06755"/><use xlink:href="#43d85ea7cJ" x="170.451947" y="1947.06755"/><use xlink:href="#43d85ea7cB" x="188.250744" y="1947.06755"/><use xlink:href="#43d85ea7cE" x="205.255215" y="1947.06755"/><use xlink:href="#43d85ea7cB" x="223.083432" y="1947.06755"/></g><g><use xlink:href="#43d85ea7cT" x="239.79665" y="1947.06755"/></g><g><use xlink:href="#43d85ea7cG" x="260.346171" y="1947.06755"/><use xlink:href="#43d85ea7cF" x="278.292066" y="1947.06755"/><use xlink:href="#43d85ea7cU" x="294.649308" y="1947.06755"/></g><g><use xlink:href="#43d85ea7cV" x="311.080099" y="1947.06755"/><use xlink:href="#43d85ea7cW" x="318.788008" y="1947.06755"/><use xlink:href="#43d85ea7cI" x="326.084044" y="1947.06755"/><use xlink:href="#43d85ea7cX" x="333.733114" y="1947.06755"/><use xlink:href="#43d85ea7cI" x="349.384288" y="1947.06755"/><use xlink:href="#43d85ea7cK" x="357.033358" y="1947.06755"/><use xlink:href="#43d85ea7cF" x="378.862627" y="1947.06755"/><use xlink:href="#43d85ea7cO" x="395.219869" y="1947.06755"/><use xlink:href="#43d85ea7cB" x="408.07619" y="1947.06755"/><use xlink:href="#43d85ea7cY" x="425.080661" y="1947.06755"/><use xlink:href="#43d85ea7cI" x="448.322066" y="1947.06755"/><use xlink:href="#43d85ea7cZ" x="455.971136" y="1947.06755"/><use xlink:href="#43d85ea7cO" x="471.975344" y="1947.06755"/><use xlink:href="#43d85ea7cQ" x="484.831666" y="1947.06755"/><use xlink:href="#43d85ea7cB" x="501.483103" y="1947.06755"/><use xlink:href="#43d85ea7cE" x="518.487574" y="1947.06755"/><use xlink:href="#43d85ea7cF" x="536.315791" y="1947.06755"/><use xlink:href="#43d85ea7cG" x="552.673033" y="1947.06755"/></g><g><use xlink:href="#43d85ea7da" x="570.641" y="1947.0675"/></g><g><use xlink:href="#43d85ea7cG" x="40" y="1991.1967"/><use xlink:href="#43d85ea7cR" x="57.945895" y="1991.1967"/><use xlink:href="#43d85ea7cI" x="74.420815" y="1991.1967"/><use xlink:href="#43d85ea7cF" x="82.069885" y="1991.1967"/><use xlink:href="#43d85ea7db" x="98.427127" y="1991.1967"/><use xlink:href="#43d85ea7cF" x="120.197557" y="1991.1967"/><use xlink:href="#43d85ea7cM" x="136.554799" y="1991.1967"/><use xlink:href="#43d85ea7cO" x="151.411647" y="1991.1967"/></g><g><use xlink:href="#43d85ea7cP" x="164.509208" y="1991.1967"/><use xlink:href="#43d85ea7cI" x="179.042441" y="1991.1967"/><use xlink:href="#43d85ea7dc" x="186.691511" y="1991.1967"/><use xlink:href="#43d85ea7cK" x="208.344263" y="1991.1967"/><use xlink:href="#43d85ea7cL" x="230.173532" y="1991.1967"/><use xlink:href="#43d85ea7cO" x="248.001749" y="1991.1967"/><use xlink:href="#43d85ea7cF" x="260.85807" y="1991.1967"/><use xlink:href="#43d85ea7cE" x="277.215312" y="1991.1967"/><use xlink:href="#43d85ea7cV" x="295.043529" y="1991.1967"/><use xlink:href="#43d85ea7cL" x="302.751438" y="1991.1967"/><use xlink:href="#43d85ea7dd" x="320.579655" y="1991.1967"/><use xlink:href="#43d85ea7cV" x="338.113677" y="1991.1967"/><use xlink:href="#43d85ea7cX" x="345.821586" y="1991.1967"/><use xlink:href="#43d85ea7cL" x="361.47276" y="1991.1967"/><use xlink:href="#43d85ea7cN" x="379.300977" y="1991.1967"/><use xlink:href="#43d85ea7cV" x="397.39397" y="1991.1967"/><use xlink:href="#43d85ea7de" x="405.101879" y="1991.1967"/><use xlink:href="#43d85ea7cI" x="412.809788" y="1991.1967"/><use xlink:href="#43d85ea7cP" x="420.458858" y="1991.1967"/><use xlink:href="#43d85ea7cQ" x="434.992091" y="1991.1967"/><use xlink:href="#43d85ea7cL" x="451.643528" y="1991.1967"/><use xlink:href="#43d85ea7cS" x="469.471745" y="1991.1967"/><use xlink:href="#43d85ea7cD" x="481.827935" y="1991.1967"/><use xlink:href="#43d85ea7df" x="499.862088" y="1991.1967"/><use xlink:href="#43d85ea7cW" x="521.51484" y="1991.1967"/><use xlink:href="#43d85ea7cI" x="528.810876" y="1991.1967"/><use xlink:href="#43d85ea7cQ" x="536.459946" y="1991.1967"/><use xlink:href="#43d85ea7cV" x="553.111383" y="1991.1967"/></g><g><use xlink:href="#43d85ea7da" x="560.9446" y="1991.1967"/></g><g><use xlink:href="#43d85ea7cX" x="40" y="2035.3259"/><use xlink:href="#43d85ea7cP" x="55.651174" y="2035.3259"/><use xlink:href="#43d85ea7cL" x="70.184407" y="2035.3259"/><use xlink:href="#43d85ea7dd" x="88.012624" y="2035.3259"/></g><g><use xlink:href="#43d85ea7dg" x="105.564298" y="2035.3259"/><use xlink:href="#43d85ea7cG" x="121.480247" y="2035.3259"/><use xlink:href="#43d85ea7cF" x="139.426142" y="2035.3259"/><use xlink:href="#43d85ea7cI" x="155.783384" y="2035.3259"/><use xlink:href="#43d85ea7cX" x="163.432454" y="2035.3259"/><use xlink:href="#43d85ea7cL" x="179.083628" y="2035.3259"/><use xlink:href="#43d85ea7cM" x="196.911845" y="2035.3259"/><use xlink:href="#43d85ea7cE" x="211.768693" y="2035.3259"/><use xlink:href="#43d85ea7cV" x="229.59691" y="2035.3259"/><use xlink:href="#43d85ea7cJ" x="237.304819" y="2035.3259"/><use xlink:href="#43d85ea7dd" x="255.103616" y="2035.3259"/><use xlink:href="#43d85ea7cF" x="272.637638" y="2035.3259"/><use xlink:href="#43d85ea7cG" x="288.99488" y="2035.3259"/></g><g><use xlink:href="#43d85ea7cG" x="306.926065" y="2035.3259"/></g><g><use xlink:href="#43d85ea7cR" x="324.857251" y="2035.3259"/><use xlink:href="#43d85ea7cI" x="341.332171" y="2035.3259"/></g><g><use xlink:href="#43d85ea7cG" x="349.007718" y="2035.3259"/><use xlink:href="#43d85ea7cF" x="366.953613" y="2035.3259"/><use xlink:href="#43d85ea7cX" x="383.310855" y="2035.3259"/><use xlink:href="#43d85ea7cL" x="398.962029" y="2035.3259"/><use xlink:href="#43d85ea7dh" x="416.790246" y="2035.3259"/><use xlink:href="#43d85ea7cP" x="434.383107" y="2035.3259"/><use xlink:href="#43d85ea7di" x="448.91634" y="2035.3259"/><use xlink:href="#43d85ea7cB" x="466.626879" y="2035.3259"/><use xlink:href="#43d85ea7cQ" x="483.63135" y="2035.3259"/><use xlink:href="#43d85ea7cL" x="500.282787" y="2035.3259"/><use xlink:href="#43d85ea7cG" x="518.111004" y="2035.3259"/></g><g><use xlink:href="#43d85ea7cD" x="536.042189" y="2035.3259"/><use xlink:href="#43d85ea7dj" x="554.076343" y="2035.3259"/><use xlink:href="#43d85ea7cI" x="568.874351" y="2035.3259"/></g><g><use xlink:href="#43d85ea7cV" x="40" y="2079.45515"/><use xlink:href="#43d85ea7cI" x="47.707909" y="2079.45515"/><use xlink:href="#43d85ea7cG" x="55.356979" y="2079.45515"/><use xlink:href="#43d85ea7cF" x="73.302874" y="2079.45515"/><use xlink:href="#43d85ea7cB" x="89.660116" y="2079.45515"/><use xlink:href="#43d85ea7cZ" x="106.664587" y="2079.45515"/><use xlink:href="#43d85ea7cQ" x="122.668795" y="2079.45515"/><use xlink:href="#43d85ea7cB" x="139.320232" y="2079.45515"/><use xlink:href="#43d85ea7dk" x="156.324703" y="2079.45515"/></g><g><use xlink:href="#43d85ea7cG" x="172.549557" y="2079.45515"/></g><g><use xlink:href="#43d85ea7cD" x="190.480742" y="2079.45515"/><use xlink:href="#43d85ea7dj" x="208.514896" y="2079.45515"/><use xlink:href="#43d85ea7cI" x="223.312905" y="2079.45515"/><use xlink:href="#43d85ea7cJ" x="230.961974" y="2079.45515"/><use xlink:href="#43d85ea7cE" x="248.760772" y="2079.45515"/><use xlink:href="#43d85ea7cB" x="266.588989" y="2079.45515"/><use xlink:href="#43d85ea7cZ" x="283.59346" y="2079.45515"/><use xlink:href="#43d85ea7cO" x="299.597668" y="2079.45515"/><use xlink:href="#43d85ea7cB" x="312.45399" y="2079.45515"/><use xlink:href="#43d85ea7cE" x="329.458461" y="2079.45515"/><use xlink:href="#43d85ea7cV" x="347.286678" y="2079.45515"/><use xlink:href="#43d85ea7cQ" x="354.994587" y="2079.45515"/><use xlink:href="#43d85ea7cI" x="371.646024" y="2079.45515"/><use xlink:href="#43d85ea7cX" x="379.295094" y="2079.45515"/><use xlink:href="#43d85ea7cL" x="394.946268" y="2079.45515"/><use xlink:href="#43d85ea7cI" x="412.774485" y="2079.45515"/><use xlink:href="#43d85ea7di" x="420.423555" y="2079.45515"/><use xlink:href="#43d85ea7cB" x="438.134094" y="2079.45515"/><use xlink:href="#43d85ea7cJ" x="455.138565" y="2079.45515"/><use xlink:href="#43d85ea7cB" x="472.937362" y="2079.45515"/><use xlink:href="#43d85ea7cK" x="489.941833" y="2079.45515"/><use xlink:href="#43d85ea7cB" x="511.771102" y="2079.45515"/><use xlink:href="#43d85ea7cS" x="528.775573" y="2079.45515"/><use xlink:href="#43d85ea7cB" x="541.131763" y="2079.45515"/><use xlink:href="#43d85ea7cY" x="558.136234" y="2079.45515"/><use xlink:href="#43d85ea7cI" x="581.377639" y="2079.45515"/></g><g><use xlink:href="#43d85ea7cZ" x="40" y="2123.5844"/><use xlink:href="#43d85ea7cD" x="56.004208" y="2123.5844"/><use xlink:href="#43d85ea7cK" x="74.038362" y="2123.5844"/><use xlink:href="#43d85ea7cQ" x="95.867631" y="2123.5844"/><use xlink:href="#43d85ea7cB" x="112.519068" y="2123.5844"/></g><g><use xlink:href="#43d85ea7dd" x="129.141085" y="2123.5844"/><use xlink:href="#43d85ea7cV" x="146.675107" y="2123.5844"/><use xlink:href="#43d85ea7cU" x="154.383016" y="2123.5844"/></g><g><use xlink:href="#43d85ea7cG" x="170.813807" y="2123.5844"/><use xlink:href="#43d85ea7cD" x="188.759702" y="2123.5844"/><use xlink:href="#43d85ea7dj" x="206.793855" y="2123.5844"/><use xlink:href="#43d85ea7cI" x="221.591864" y="2123.5844"/><use xlink:href="#43d85ea7cJ" x="229.240934" y="2123.5844"/><use xlink:href="#43d85ea7cE" x="247.039731" y="2123.5844"/><use xlink:href="#43d85ea7cB" x="264.867948" y="2123.5844"/><use xlink:href="#43d85ea7cZ" x="281.872419" y="2123.5844"/><use xlink:href="#43d85ea7cO" x="297.876627" y="2123.5844"/><use xlink:href="#43d85ea7cB" x="310.732949" y="2123.5844"/><use xlink:href="#43d85ea7cE" x="327.73742" y="2123.5844"/><use xlink:href="#43d85ea7cB" x="345.565637" y="2123.5844"/><use xlink:href="#43d85ea7cQ" x="362.570108" y="2123.5844"/><use xlink:href="#43d85ea7cD" x="379.221545" y="2123.5844"/><use xlink:href="#43d85ea7dj" x="397.255698" y="2123.5844"/><use xlink:href="#43d85ea7cI" x="412.053707" y="2123.5844"/><use xlink:href="#43d85ea7cZ" x="419.702777" y="2123.5844"/><use xlink:href="#43d85ea7cO" x="435.706985" y="2123.5844"/><use xlink:href="#43d85ea7cE" x="448.563306" y="2123.5844"/><use xlink:href="#43d85ea7cP" x="466.391523" y="2123.5844"/><use xlink:href="#43d85ea7cM" x="480.924756" y="2123.5844"/><use xlink:href="#43d85ea7cO" x="495.781604" y="2123.5844"/></g><g><use xlink:href="#43d85ea7cP" x="508.879165" y="2123.5844"/><use xlink:href="#43d85ea7cE" x="523.412398" y="2123.5844"/></g><g><use xlink:href="#43d85ea7dl" x="540.672819" y="2123.5844"/></g></svg>