<?xml version="1.0" encoding="utf-8"?>
<!-- Generator: Adobe Illustrator 19.2.1, SVG Export Plug-In . SVG Version: 6.00 Build 0)  -->
<svg version="1.1" id="Layer_1" xmlns="http://www.w3.org/2000/svg" xmlns:xlink="http://www.w3.org/1999/xlink" x="0px" y="0px"
	 viewBox="0 0 1240 369" style="enable-background:new 0 0 1240 369;" xml:space="preserve">
<g>
	<path d="M41.6,77.3c3.8-1,4.9-2.2,5.2-5.2l5.7-39.8l-5.8-1.6l0.7-2.2h16.3c15.7,0,23.3,7.5,23.3,19.9c0,18.1-13.1,31.2-29.1,31.2
		h-17L41.6,77.3z M56.4,75.4c15.8,0,22.8-11.6,22.8-25.6c0-11.3-6.4-17.8-17.8-17.8h-1.8l-6,43.4H56.4z"/>
	<path d="M100.9,40.9c2.2,0,4.3,2.4,4.3,7c0,2.3-0.6,6.3-1.5,10.7c-1.2,5.3-2,9.8-2,12.3c0,2.2,0.8,3.4,2,3.9c1.4,0,3.9-0.7,5.1-1.3
		l0.8,2.2c-2.4,2.2-6.1,4.1-9.1,4.6c-3-0.9-5.2-3.9-5.2-7.5c0-2.7,0.8-6.4,1.6-10.4c0.8-4,1.7-9.4,1.7-12.6c0-1.3-0.3-2.6-0.6-3.1
		c-0.8-0.6-2.4-1-5.6-1.1l-0.8-2.1C94.2,42.1,98.6,40.9,100.9,40.9z M104.5,26.4c1.6,0,3.3,1.4,3.3,3.7c0,2.5-1.4,5-4.7,5
		c-1.6,0-3.3-1.2-3.3-3.7C99.9,29,101.5,26.4,104.5,26.4z"/>
	<path d="M140.8,74.8c-4.3,3.5-9.9,5.4-13.5,5.4c-6.6,0-11.7-4.7-11.7-12.8c0-14.9,10.5-26.6,20.1-26.6c4.5,0,6.7,2.2,6.7,4.6
		c0,1.8-1,3.6-2.8,4.8c-2.7-3.1-4.9-4.4-7.1-4.4c-2.4,0-4.7,1.1-6.1,3.5c-1.9,3.1-3.8,8.7-3.8,15c0,7.7,3.4,9.9,8.5,9.9
		c2.5,0,6.2-0.6,8.9-1.7L140.8,74.8z"/>
	<path d="M161.5,31.2L160,41.7h8.6l-1.1,4.4h-8.1c-2.8,18.1-3.2,22.2-3.2,24.9c0,2.5,1,3.7,3,3.7c2.2,0,5-0.8,7.7-2.1l0.8,2.3
		c-3.2,2.9-8.1,5.4-11.7,5.4c-3.9,0-6.6-2.5-6.6-7.2c0-2.4,0.4-5.3,1-9.2l2.5-18c-4.6-0.4-5.7-1.3-6-3l-0.2-0.9l6.7-0.2l1.3-7.9
		L161.5,31.2z"/>
	<path d="M181,40.9c2.2,0,4.3,2.4,4.3,7c0,2.3-0.6,6.3-1.5,10.7c-1.2,5.3-2,9.8-2,12.3c0,2.2,0.8,3.4,2,3.9c1.4,0,3.9-0.7,5.1-1.3
		l0.8,2.2c-2.4,2.2-6.1,4.1-9.1,4.6c-3-0.9-5.2-3.9-5.2-7.5c0-2.7,0.8-6.4,1.6-10.4c0.8-4,1.7-9.4,1.7-12.6c0-1.3-0.3-2.6-0.6-3.1
		c-0.8-0.6-2.4-1-5.6-1.1l-0.8-2.1C174.3,42.1,178.7,40.9,181,40.9z M184.7,26.4c1.6,0,3.3,1.4,3.3,3.7c0,2.5-1.4,5-4.7,5
		c-1.6,0-3.3-1.2-3.3-3.7C180,29,181.7,26.4,184.7,26.4z"/>
	<path d="M214.9,40.9c7.6,0,12.7,5.3,12.7,14.5c0,15-10,24.8-19.2,24.8c-7.6,0-12.7-5.3-12.7-14.5C195.7,50.7,205.7,40.9,214.9,40.9
		z M220.4,57.4c0-8.5-3.3-12.1-7.3-12.1c-5.6,0-10.1,6.7-10.1,18.5c0,8.5,3.3,12.1,7.3,12.1C215.9,75.9,220.4,69.2,220.4,57.4z"/>
	<path d="M238,62c1.1-7.2,1.4-9.5,1.4-12.2c0-1.3-0.2-2.6-0.5-3.1c-0.8-0.6-2.4-1-5.6-1l-0.8-2.2c2.5-1.4,7-2.6,9.2-2.6
		s3.8,2.1,3.8,12.2h0.2c5.1-8.2,9.9-12.2,14.2-12.2c3.9,0,6.9,3.2,6.9,8.5c0,2.5-0.8,7-1.6,10.6c-0.8,4.1-1.7,8.3-1.7,10.9
		c0,2.2,0.8,3.4,2,3.9c1.4,0,3.9-0.7,5.1-1.3l0.8,2.2c-2.4,2.2-6.1,4.1-9.1,4.6c-3-0.9-5.2-3.9-5.2-7.5c0-2.7,0.7-6.1,1.6-10.4
		c0.8-4,1.4-8.1,1.4-11.1c0-2.4-0.6-4.4-1.5-4.9c-4.3,0.4-12.9,8.9-14.4,17.5c-0.9,5.3-1,8.7-1,15.6l-7.9,0.8L238,62z"/>
	<path d="M311.8,75.7c-2.4,2.2-6.1,4.1-9.1,4.6c-3.7-1.3-5.1-4.9-4.4-12c-5.2,8.4-9.9,12-14.4,12c-4.4,0-7.5-4.5-7.5-10.9
		c0-7.4,3.5-16,7.9-21.6c3.4-4.4,7.4-6.9,11-6.9c4,0,8.1,0.9,12.4,2.5c-1.6,9-3.9,22.7-3.9,26.1c0,3.6,0.8,4.8,2,5.2
		c1.5,0,3.9-0.7,5.1-1.3L311.8,75.7z M293.4,45.8c-1.3,0-1.9,0.2-2.3,0.4c-3.6,1.9-7.8,10.3-7.8,19.6c0,6.7,1.8,8.4,4.2,8.4
		c3.7,0,8.1-4.9,10.6-13c1.6-5.3,2.4-10.5,2.7-13.8C298.5,46.4,295.2,45.8,293.4,45.8z"/>
	<path d="M320.7,62c0.7-4.5,1.4-9.5,1.4-12.2c0-1.3-0.2-2.6-0.5-3.1c-0.8-0.6-2.4-1-5.6-1l-0.8-2.2c2.5-1.4,7-2.6,9.2-2.6
		s3.8,2.1,3.8,12.2h0.1c3-7.3,8.4-12.2,11.3-12.2c2.1,0,3.6,2.8,3.7,7.5c-9.5,0.6-14.5,4.5-16.4,15.5c-0.9,5.3-1,8.7-1,15.6
		l-7.9,0.8L320.7,62z"/>
	<path d="M344,43.5c2.5-1.4,7-2.6,9.2-2.6c2.3,0,4.4,1.6,4.4,12.3c0,4-0.4,7.9-0.4,12.5c0,5.8,1,8.5,2.8,8.5c1.9,0,4.6-2.5,6.4-6.8
		c2.1-4.9,5.5-15.1,6.8-20.7c-0.7-0.4-3-0.9-5-1.1l-0.8-2.2c2-1.1,4-1.9,5.7-2.3c0.9-0.2,1.7-0.3,2.5-0.3c2.4,0,3.9,1.8,3.9,4.9
		c0,2.6-1,6.3-5.5,17.9c-10.3,25.8-16.3,32.7-25.3,32.7c-4.3,0-8.4-1.6-8.4-4.3c0-1.6,1.1-3.4,2.6-4.2c2.6,2.5,7.4,4.1,10.8,4.1
		c2.2,0,6.1-5.5,10.2-16.2l-0.3-0.1c-2,1.7-4.2,3.1-6.5,3.1c-3.6,0-6-3.2-6-11.9c0-2.5,0.1-5,0.1-12.4c0-3-0.4-6.4-1-7.9
		c-0.8-0.6-2.1-1-5.3-1L344,43.5z"/>
	<path d="M417.7,40.9c7.6,0,12.7,5.3,12.7,14.5c0,15-10,24.8-19.2,24.8c-7.6,0-12.7-5.3-12.7-14.5C398.4,50.7,408.4,40.9,417.7,40.9
		z M423.1,57.4c0-8.5-3.3-12.1-7.3-12.1c-5.6,0-10.1,6.7-10.1,18.5c0,8.5,3.3,12.1,7.3,12.1C418.6,75.9,423.1,69.2,423.1,57.4z"/>
	<path d="M435.2,92.4c1.6,0,2.8-2,4.8-18.5l3.3-28c-5.2-0.4-6.6-1.3-7-3l-0.2-0.9l7.7-0.3c1.4-10.4,7.2-17.7,14.6-17.7
		c4.1,0,7.3,2.1,7.3,4.9c0,1-0.6,2.5-1.2,3.6h-0.1c-3.6-2.5-7.1-4.2-9.4-4.2c-2.5,0-3.6,2.2-4.7,13.3h8.8L458,46h-8.1L447,68.9
		c-1.7,14-4.1,20-6.9,23.3c-2.7,3.4-5.4,4.3-8.2,4.3c-5,0-8.8-1.8-8.8-4.3c0-1.6,1-3.3,2.6-4.2C427.7,90.2,432.3,92.4,435.2,92.4z"
		/>
	<path d="M496.4,28.4l10,40.3L528,28.4h11.7l-0.8,2.2c-4.1,1-5.1,2.5-5.3,6.2l-2.1,39l5.3,1.5l-0.7,2.2h-17.7l0.8-2.2
		c4.4-0.9,5.3-2.3,5.5-6.2l1.9-31.9l-21,38.7h-4.5l-9.7-38.7l-8,36.7l6.4,1.5l-0.8,2.2h-15.5l0.8-2.2c3.5-0.9,4.9-2.6,5.7-6.2
		l8.9-38.8l-6.1-1.6l0.7-2.2H496.4z"/>
	<path d="M563.8,40.9c7.6,0,12.7,5.3,12.7,14.5c0,15-10,24.8-19.2,24.8c-7.6,0-12.7-5.3-12.7-14.5C544.6,50.7,554.6,40.9,563.8,40.9
		z M569.3,57.4c0-8.5-3.3-12.1-7.3-12.1c-5.6,0-10.1,6.7-10.1,18.5c0,8.5,3.3,12.1,7.3,12.1C564.8,75.9,569.3,69.2,569.3,57.4z"/>
	<path d="M614,24c1.4,0.7,2,1.5,2.7,2.8l-4.9,32c-1,6.1-1.6,9.5-1.6,12c0,2.2,0.8,3.4,1.9,3.9c1.5,0,4-0.7,5.2-1.3l0.8,2.2
		c-2.4,2.2-6.1,4.1-9.2,4.6c-3.2-1.1-4.7-4.2-3.9-11.3c-4.8,8.7-9.7,11.3-14.6,11.3c-4.4,0-7.5-4.5-7.5-10.8
		c0-7.5,3.5-16.1,7.9-21.7c3.4-4.4,7.4-6.9,11-6.9c2,0,5.1,0.8,6.7,1.7c0.7-4.2,1.1-7.6,1.1-10c0-2-1.1-3.1-3-3.1
		c-1.6,0-3.2,0.3-4.2,0.7l-1.1-2.3C605.4,25.5,609.9,24,614,24z M600,45.8c-1.3,0-1.9,0.2-2.3,0.4c-3.6,1.9-7.8,10.3-7.8,19.6
		c0,6.7,1.8,8.4,4.2,8.4c3.7,0,8.1-4.9,10.6-13c1.6-5.3,2.4-9.9,2.7-13.8C605.2,46.4,601.9,45.8,600,45.8z"/>
	<path d="M648,74.8c-4.3,3.5-9.9,5.4-13.5,5.4c-6.6,0-11.7-4.7-11.7-12.8c0-13.3,9.6-26.6,20.3-26.6c4.6,0,7.7,2.8,7.7,7.1
		c0,7.4-8.1,12.5-20.9,14.7c-0.1,0.5-0.1,0.8-0.1,2.1c0,6.9,2.9,9.4,8.5,9.4c2.5,0,6.2-0.6,8.9-1.7L648,74.8z M643.8,49.1
		c0-2.8-1.5-3.9-3.5-3.9c-4.1,0-9.3,6.2-10.1,14.2C639.8,57.4,643.8,53.9,643.8,49.1z"/>
	<path d="M659.8,62c0.7-4.5,1.4-9.5,1.4-12.2c0-1.3-0.2-2.6-0.5-3.1c-0.8-0.6-2.4-1-5.6-1l-0.8-2.2c2.5-1.4,7-2.6,9.2-2.6
		c2.2,0,3.8,2.1,3.8,12.2h0.1c3-7.3,8.4-12.2,11.3-12.2c2.1,0,3.6,2.8,3.7,7.5c-9.5,0.6-14.5,4.5-16.4,15.5c-0.9,5.3-1,8.7-1,15.6
		l-7.9,0.8L659.8,62z"/>
	<path d="M689.2,62c1.1-7.2,1.4-9.5,1.4-12.2c0-1.3-0.2-2.6-0.5-3.1c-0.8-0.6-2.4-1-5.6-1l-0.8-2.2c2.5-1.4,7-2.6,9.2-2.6
		c2.2,0,3.8,2.1,3.8,12.2h0.2c5.1-8.2,9.9-12.2,14.2-12.2c3.9,0,6.9,3.2,6.9,8.5c0,2.5-0.8,7-1.6,10.6c-0.8,4.1-1.7,8.3-1.7,10.9
		c0,2.2,0.8,3.4,2,3.9c1.4,0,3.9-0.7,5.1-1.3l0.8,2.2c-2.4,2.2-6.1,4.1-9.1,4.6c-3-0.9-5.2-3.9-5.2-7.5c0-2.7,0.7-6.1,1.6-10.4
		c0.8-4,1.4-8.1,1.4-11.1c0-2.4-0.6-4.4-1.5-4.9c-4.3,0.4-12.9,8.9-14.4,17.5c-0.9,5.3-1,8.7-1,15.6l-7.9,0.8L689.2,62z"/>
	<path d="M761.9,28.4l-0.7,2.2l-4.9,1.4l4.4,39.5l16.8-41h5l5.6,41.1l16-39.3l-4.4-1.6l0.7-2.2H814l-0.7,2.2
		c-3.5,0.9-5.1,2.6-7.6,8.4l-16.5,40.4l-6.3,1l-5.2-40l-16,39l-6.6,1L748.8,32l-4.9-1.4l0.8-2.2H761.9z"/>
	<path d="M813.3,62c0.7-4.5,1.4-9.5,1.4-12.2c0-1.3-0.2-2.6-0.5-3.1c-0.8-0.6-2.4-1-5.6-1l-0.8-2.2c2.5-1.4,7-2.6,9.2-2.6
		c2.2,0,3.8,2.1,3.8,12.2h0.1c3-7.3,8.4-12.2,11.3-12.2c2.1,0,3.6,2.8,3.7,7.5c-9.5,0.6-14.5,4.5-16.4,15.5c-0.9,5.3-1,8.7-1,15.6
		l-7.9,0.8L813.3,62z"/>
	<path d="M847.2,40.9c2.2,0,4.3,2.4,4.3,7c0,2.3-0.6,6.3-1.5,10.7c-1.2,5.3-2,9.8-2,12.3c0,2.2,0.8,3.4,2,3.9c1.4,0,3.9-0.7,5.1-1.3
		l0.8,2.2c-2.4,2.2-6.1,4.1-9.1,4.6c-3-0.9-5.2-3.9-5.2-7.5c0-2.7,0.8-6.4,1.6-10.4c0.8-4,1.7-9.4,1.7-12.6c0-1.3-0.3-2.6-0.6-3.1
		c-0.8-0.6-2.4-1-5.6-1.1l-0.8-2.1C840.5,42.1,844.9,40.9,847.2,40.9z M850.8,26.4c1.6,0,3.3,1.4,3.3,3.7c0,2.5-1.4,5-4.7,5
		c-1.6,0-3.3-1.2-3.3-3.7C846.2,29,847.8,26.4,850.8,26.4z"/>
	<path d="M900.9,31.2l-1.5,10.5h8.6L907,46h-8.1c-2.8,18.1-3.2,22.2-3.2,24.9c0,2.5,1,3.7,3,3.7c2.2,0,5-0.8,7.7-2.1l0.8,2.3
		c-3.2,2.9-8.1,5.4-11.7,5.4c-3.9,0-6.6-2.5-6.6-7.2c0-2.4,0.4-5.3,1-9.2l2.5-17.8h-18c-2.8,18.1-3.2,22.2-3.2,24.9
		c0,2.5,1,3.7,3,3.7c2.2,0,5-0.8,7.7-2.1l0.8,2.3c-3.2,2.9-8.1,5.4-11.7,5.4c-3.9,0-6.6-2.5-6.6-7.2c0-2.4,0.4-5.3,1-9.2l2.5-18
		c-4.6-0.4-5.7-1.3-6-3l-0.2-0.9l6.7-0.2l1.3-7.9l6.9-2.7l-1.5,10.5h17.9l1.3-7.8L900.9,31.2z"/>
	<path d="M936.2,74.8c-4.3,3.5-9.9,5.4-13.5,5.4c-6.6,0-11.7-4.7-11.7-12.8c0-13.3,9.6-26.6,20.3-26.6c4.6,0,7.7,2.8,7.7,7.1
		c0,7.4-8.1,12.5-20.9,14.7c-0.1,0.5-0.1,0.8-0.1,2.1c0,6.9,2.9,9.4,8.5,9.4c2.5,0,6.2-0.6,8.9-1.7L936.2,74.8z M931.9,49.1
		c0-2.8-1.5-3.9-3.5-3.9c-4.1,0-9.3,6.2-10.1,14.2C928,57.4,931.9,53.9,931.9,49.1z"/>
	<path d="M947.8,62c1.1-7.2,1.4-9.5,1.4-12.2c0-1.3-0.2-2.6-0.5-3.1c-0.8-0.6-2.4-1-5.6-1l-0.8-2.2c2.5-1.4,7-2.6,9.2-2.6
		c2.2,0,3.8,2.1,3.8,12.2h0.2c5.1-8.2,9.9-12.2,14.2-12.2c3.9,0,6.9,3.2,6.9,8.5c0,2.5-0.8,7-1.6,10.6c-0.8,4.1-1.7,8.3-1.7,10.9
		c0,2.2,0.8,3.4,2,3.9c1.4,0,3.9-0.7,5.1-1.3l0.8,2.2c-2.4,2.2-6.1,4.1-9.1,4.6c-3-0.9-5.2-3.9-5.2-7.5c0-2.7,0.7-6.1,1.6-10.4
		c0.8-4,1.4-8.1,1.4-11.1c0-2.4-0.6-4.4-1.5-4.9c-4.3,0.4-12.9,8.9-14.4,17.5c-0.9,5.3-1,8.7-1,15.6l-7.9,0.8L947.8,62z"/>
	<path d="M996.5,77.3c4.2-1.1,5.1-1.9,8.1-8.1l19.4-39.8l6.5-1.8l9.5,48.2l5.5,1.5l-0.7,2.2h-17.3l0.8-2.2l4.2-1.5l-2.3-11.9h-18.6
		l-5.9,11.9l4.2,1.5l-0.8,2.2h-13.4L996.5,77.3z M1029.5,59.8l-4.7-24.1l-11.3,24.1H1029.5z"/>
	<path d="M1054.2,62c0.7-4.5,1.4-9.5,1.4-12.2c0-1.3-0.2-2.6-0.5-3.1c-0.8-0.6-2.4-1-5.6-1l-0.8-2.2c2.5-1.4,7-2.6,9.2-2.6
		c2.2,0,3.8,2.1,3.8,12.2h0.1c3-7.3,8.4-12.2,11.3-12.2c2.1,0,3.6,2.8,3.7,7.5c-9.5,0.6-14.5,4.5-16.4,15.5c-0.9,5.3-1,8.7-1,15.6
		l-7.9,0.8L1054.2,62z"/>
	<path d="M1111.3,75.7c-2.4,2.2-6.1,4.1-9.1,4.6c-3.7-1.3-5.1-4.9-4.4-12c-5.2,8.4-9.9,12-14.4,12c-4.4,0-7.5-4.5-7.5-10.9
		c0-7.4,3.5-16,7.9-21.6c3.4-4.4,7.4-6.9,11-6.9c4,0,8.1,0.9,12.4,2.5c-1.6,9-3.9,22.7-3.9,26.1c0,3.6,0.8,4.8,2,5.2
		c1.5,0,3.9-0.7,5.1-1.3L1111.3,75.7z M1092.9,45.8c-1.3,0-1.9,0.2-2.3,0.4c-3.6,1.9-7.8,10.3-7.8,19.6c0,6.7,1.8,8.4,4.2,8.4
		c3.7,0,8.1-4.9,10.6-13c1.6-5.3,2.4-10.5,2.7-13.8C1098,46.4,1094.7,45.8,1092.9,45.8z"/>
	<path d="M1127.6,24c1.3,0.7,2,1.5,2.7,2.8l-3.5,21.7c-0.3,2-0.8,4.2-1.3,5.5h0.2c5.1-9.6,10.4-13.2,15.2-13.2
		c4.9,0,8.5,3.7,8.5,11.7c0,14.9-9.4,27.6-20.1,27.6c-7,0-10.9-4.5-10.9-12.1c0-3.6,0.4-7.6,1.6-15c1.3-8.2,2.4-16.8,2.4-19.2
		c0-3.1-0.9-4.4-2.8-4.4c-1.6,0-3.2,0.3-4.2,0.7l-1.1-2.3C1118.6,25.5,1123.4,24,1127.6,24z M1131.4,75.9c1.6,0,2.9-0.4,4-1
		c3.4-1.8,7.2-10,7.2-20.2c0-5.8-2-8-4.6-8c-2.5,0-5.3,1.9-8.2,6.7c-2.7,4.6-4.9,11.3-5.5,16.9C1125.2,73.7,1128.4,75.9,1131.4,75.9
		z"/>
	<path d="M1164.2,40.9c2.2,0,4.3,2.4,4.3,7c0,2.3-0.6,6.3-1.5,10.7c-1.2,5.3-2,9.8-2,12.3c0,2.2,0.8,3.4,2,3.9
		c1.4,0,3.9-0.7,5.1-1.3l0.8,2.2c-2.4,2.2-6.1,4.1-9.1,4.6c-3-0.9-5.2-3.9-5.2-7.5c0-2.7,0.8-6.4,1.6-10.4c0.8-4,1.7-9.4,1.7-12.6
		c0-1.3-0.3-2.6-0.6-3.1c-0.8-0.6-2.4-1-5.6-1.1l-0.8-2.1C1157.6,42.1,1162,40.9,1164.2,40.9z M1167.9,26.4c1.6,0,3.3,1.4,3.3,3.7
		c0,2.5-1.4,5-4.7,5c-1.6,0-3.3-1.2-3.3-3.7C1163.3,29,1164.9,26.4,1167.9,26.4z"/>
	<path d="M1204.2,74.8c-4.3,3.5-9.9,5.4-13.5,5.4c-6.6,0-11.7-4.7-11.7-12.8c0-14.9,10.5-26.6,20.1-26.6c4.5,0,6.7,2.2,6.7,4.6
		c0,1.8-1,3.6-2.8,4.8c-2.7-3.1-4.9-4.4-7.1-4.4c-2.4,0-4.7,1.1-6.1,3.5c-1.9,3.1-3.8,8.7-3.8,15c0,7.7,3.4,9.9,8.5,9.9
		c2.5,0,6.2-0.6,8.9-1.7L1204.2,74.8z"/>
</g>
<g>
	<path d="M59.9,285l-1.8,11.8h9.4l-1.4,5.5h-8.7c-3,18.1-3.4,22.2-3.4,25.1c0,2.8,0.9,4.1,3,4.1s5.3-0.9,7.9-2.3l1.4,3.4
		c-3.6,3.1-9.4,5.8-13.8,5.8c-5.4,0-8.7-3.2-8.7-8.5c0-2.4,0.4-5.8,1-10.2l2.7-17.6c-5.3-0.4-6.4-1.9-6.8-3.7l-0.2-1L48,297l1.2-8.1
		L59.9,285z"/>
	<path d="M74.6,319c1-6,1.5-10.5,1.5-12.9c0-1.7-0.2-3.1-0.4-3.4c-0.6-0.4-2.3-0.8-5.7-0.8l-0.8-2.8c3.2-1.9,7.5-3,10.1-3
		c3.2,0,5.3,3.2,5.3,13.2h0.2c2.8-8.5,8-13.2,11.4-13.2c3,0,4.9,3.6,4.9,9.4c-9.5,0.6-14.6,4.2-16.7,12.6c-1.1,4.4-1.5,9.2-1.2,19.6
		l-11.5,0.8L74.6,319z"/>
	<path d="M141,333.1c-2.7,2.5-7.3,4.7-11.5,5.2c-4.4-1.4-6.1-5-5.4-11.9c-4.9,8.4-9.7,11.9-14.6,11.9c-5.4,0-9.5-5.3-9.5-12.4
		c0-7.8,3.4-16.1,8-21.8c4.5-5.5,9.3-8.1,13.9-8.1c4.4,0,10.5,1.1,15,3.1c-2.2,9.6-4.5,22.9-4.5,27.4c0,3.5,0.5,4.6,1.6,5.2
		c1.8-0.2,3.8-0.8,5.7-1.9L141,333.1z M120.1,301.9c-1,0-1.8,0.1-2.3,0.4c-3.4,1.7-7.7,10-7.7,20.3c0,6.6,1.6,8.6,3.7,8.6
		c2.9,0,7.1-4.6,9.8-13c1.9-5.7,2.6-11.2,2.8-15C124.5,302.4,121.6,301.9,120.1,301.9z"/>
	<path d="M149.4,322c0.8,6.4,5.4,10.9,11.1,10.9c3.3,0,5.2-1.7,5.2-3.7s-1.7-3.8-8.8-9c-6.2-4.6-7.5-7.4-7.5-10.9
		c0-5.8,7.7-13.4,15.4-13.4c5.7,0,9.6,3.1,9.6,6.4c0,2.4-1.4,4.4-4.2,5.6c-2.2-3.7-5.5-6-8.7-6c-2.5,0-4.5,1.8-4.5,3.4
		c0,1.9,1.2,3.3,7.6,7.8c7.2,5.2,8.9,8.3,8.9,11.9c0,7.2-7.4,13.6-16.8,13.6c-8.2,0-13-4.6-13-9c0-3.2,2.2-6,5.6-7.6L149.4,322z"/>
	<path d="M194.2,278c1.8,0.7,3,2,4,3.5l-5.9,36.3c-0.7,4.8-1.2,8-1.2,10.2c0,2,0.5,3.1,1.5,3.6c1.8-0.2,4.5-1.1,5.9-1.9l1.2,3.3
		c-2.7,2.5-7.2,4.7-11.4,5.2c-4.3-0.8-6.8-4.3-6.8-8.5c0-3.2,1.4-11.6,2.8-20.6c1.6-8.9,2.9-18,2.9-21.8c0-2-0.7-2.7-2.1-2.7
		s-3,0.5-4.3,1.1l-1.8-3.4C183.6,279.6,188.6,278,194.2,278z"/>
	<path d="M213.4,296c3.7,0,6.4,2.7,6.4,8c0,2.9-0.7,7.3-1.7,11.8c-1.4,5.7-2.1,10-2.1,12.3c0,2,0.5,3.1,1.5,3.6c1.7-0.2,4.1-1,5.9-2
		l1.2,3.4c-2.7,2.5-7.2,4.7-11.5,5.2c-4.1-0.9-6.8-4.3-6.8-8.5c0-2.5,0.6-6.1,1.7-10.8c0.8-4,1.8-9.9,1.8-13.2
		c0-1.4-0.2-2.7-0.4-3.1c-1-0.5-2.9-0.8-5.8-0.9l-0.9-2.6C205.5,297.4,210.5,296,213.4,296z M217.8,279.5c2.5,0,4.6,1.9,4.6,4.8
		c0,3.5-2.1,6.2-6,6.2c-2.7,0-4.6-2-4.6-4.9C211.8,282.1,214.4,279.5,217.8,279.5z"/>
	<path d="M275.9,285l-1.8,11.8h9.4l-1.4,5.5h-8.7c-3,18.1-3.4,22.2-3.4,25.1c0,2.8,0.9,4.1,3,4.1s5.3-0.9,7.9-2.3l1.4,3.4
		c-3.6,3.1-9.4,5.8-13.8,5.8c-5.4,0-8.7-3.2-8.7-8.5c0-2.4,0.3-5.8,1-10.2l2.7-17.4h-17.7c-3,18.1-3.4,22.2-3.4,25.1
		c0,2.8,0.9,4.1,3,4.1s5.3-0.9,7.9-2.3l1.4,3.4c-3.6,3.1-9.4,5.8-13.8,5.8c-5.4,0-8.7-3.2-8.7-8.5c0-2.4,0.4-5.8,1-10.2l2.7-17.6
		c-5.3-0.4-6.4-1.9-6.8-3.7l-0.2-1l7.6-0.2l1.2-8.1l10.6-4l-1.9,12H264l1.2-8L275.9,285z"/>
	<path d="M315,332.7c-5,3.6-11.1,5.6-15.8,5.6c-8,0-14.1-5.5-14.1-14.5c0-13.7,11-28,23.4-28c5.8,0,10,3.4,10,8.8
		c0,6.8-7.3,13.7-22.8,15.8c-0.1,0.4-0.1,0.4-0.1,1.6c0,6.4,3,9.2,8.5,9.2c3.1,0,7.1-0.7,9.7-1.9L315,332.7z M308.7,305.6
		c0-2.9-1.4-4.4-3.4-4.4c-4,0-8.5,5.9-9.4,15.6C305,314.8,308.7,310.8,308.7,305.6z"/>
	<path d="M326.8,319c1-6,1.5-10.5,1.5-12.9c0-1.7-0.2-3.1-0.4-3.4c-0.6-0.4-2.3-0.8-5.7-0.8l-0.8-2.8c3.2-1.9,7.5-3,10.1-3
		c3.2,0,5.3,3.2,5.3,13.2h0.2c2.8-8.5,8-13.2,11.4-13.2c3,0,4.9,3.6,4.9,9.4c-9.5,0.6-14.6,4.2-16.7,12.6c-1.1,4.4-1.5,9.2-1.2,19.6
		l-11.5,0.8L326.8,319z"/>
	<path d="M393.2,333.1c-2.7,2.5-7.3,4.7-11.5,5.2c-4.4-1.4-6.1-5-5.4-11.9c-4.9,8.4-9.7,11.9-14.6,11.9c-5.4,0-9.5-5.3-9.5-12.4
		c0-7.8,3.4-16.1,8-21.8c4.5-5.5,9.3-8.1,13.9-8.1c4.4,0,10.5,1.1,15,3.1c-2.2,9.6-4.5,22.9-4.5,27.4c0,3.5,0.5,4.6,1.6,5.2
		c1.8-0.2,3.8-0.8,5.7-1.9L393.2,333.1z M372.3,301.9c-1,0-1.8,0.1-2.3,0.4c-3.4,1.7-7.7,10-7.7,20.3c0,6.6,1.6,8.6,3.7,8.6
		c2.9,0,7.1-4.6,9.8-13c1.9-5.7,2.6-11.2,2.8-15C376.7,302.4,373.8,301.9,372.3,301.9z"/>
	<path d="M402.4,308.2c-0.9-1.4-2.1-3.7-2.1-5.8c0-3.5,4.2-6.6,9.6-6.6c6.2,0,11.4,3.8,14.5,3.8c1.6,0,2.7-0.6,5.1-3.2l2.9,2.8
		c-6.8,7.3-18.3,20.5-24,27.7c4.8,1.9,7.7,2.6,11.4,2.6c3,0,5.7-1.1,7.5-3.5l0.6,0.2c-1.2,8.7-4.6,12.4-10,12.5
		c-6.6,0.1-10.3-4.1-13.8-4.1c-2,0-3.3,0.9-6.1,4l-3-2.5c7.1-8.8,17.9-21.4,24-28.7c-3.3-1.4-7.2-2.2-9.6-2.2c-3,0-5.2,1-6.7,3
		H402.4z"/>
	<path d="M442.8,296c3.7,0,6.4,2.7,6.4,8c0,2.9-0.7,7.3-1.7,11.8c-1.4,5.7-2.1,10-2.1,12.3c0,2,0.5,3.1,1.5,3.6c1.7-0.2,4.1-1,5.9-2
		l1.2,3.4c-2.7,2.5-7.2,4.7-11.5,5.2c-4.1-0.9-6.8-4.3-6.8-8.5c0-2.5,0.6-6.1,1.7-10.8c0.8-4,1.8-9.9,1.8-13.2
		c0-1.4-0.2-2.7-0.4-3.1c-1-0.5-2.9-0.8-5.8-0.9l-0.9-2.6C434.9,297.4,440,296,442.8,296z M447.2,279.5c2.5,0,4.6,1.9,4.6,4.8
		c0,3.5-2.1,6.2-6,6.2c-2.7,0-4.6-2-4.6-4.9C441.2,282.1,443.8,279.5,447.2,279.5z"/>
	<path d="M481.3,295.9c8.7,0,14.9,6.2,14.9,16c0,15.7-10.9,26.4-22,26.4c-8.7,0-14.9-6.2-14.9-16
		C459.2,306.6,470.1,295.9,481.3,295.9z M485.4,313.8c0-8.5-2.9-12.5-6.6-12.5c-5,0-8.9,6.7-8.9,19.1c0,8.5,2.9,12.5,6.7,12.5
		C481.5,332.9,485.4,326.4,485.4,313.8z"/>
	<path d="M506.2,319.4c1.1-7.5,1.6-10.9,1.6-13.3c0-1.4-0.2-3-0.4-3.4c-0.6-0.4-2.6-0.8-6.1-0.8l-0.9-2.7c2.6-1.7,7.5-3.1,10.5-3.1
		c3.3,0,5.3,3.2,5.3,13.2h0.3c4.7-8.6,10.1-13.2,15.1-13.2s8.7,3.8,8.7,10.2c0,2.5-0.5,6-1.5,10.4c-1,5-1.9,8.9-1.9,11.4
		c0,2,0.6,3,1.7,3.6c1.7-0.2,4.1-0.9,5.6-1.9l1.2,3.3c-2.7,2.5-7.2,4.7-11.5,5.2c-4-1-6.7-4.2-6.7-8.5c0-2.6,0.6-6,1.7-10.8
		c0.8-4,1.6-8.4,1.6-10.9c0-2.1-0.4-3.6-1.1-4.4c-4.3,0.6-11,7-12.8,13.9c-1.6,5.5-2,10-2,19.9l-11.3,0.8L506.2,319.4z"/>
	<path d="M579.6,332.7c-5,3.6-11.1,5.6-15.8,5.6c-8,0-14.1-5.5-14.1-14.5c0-13.7,11-28,23.4-28c5.8,0,10,3.4,10,8.8
		c0,6.8-7.3,13.7-22.8,15.8c-0.1,0.4-0.1,0.4-0.1,1.6c0,6.4,3,9.2,8.5,9.2c3.1,0,7.1-0.7,9.7-1.9L579.6,332.7z M573.4,305.6
		c0-2.9-1.4-4.4-3.4-4.4c-4,0-8.5,5.9-9.4,15.6C569.7,314.8,573.4,310.8,573.4,305.6z"/>
	<path d="M612,296c3.7,0,6.4,2.7,6.4,8c0,2.9-0.7,7.3-1.7,11.8c-1.4,5.7-2.1,10-2.1,12.3c0,2,0.5,3.1,1.5,3.6c1.7-0.2,4.1-1,5.9-2
		l1.2,3.4c-2.7,2.5-7.2,4.7-11.5,5.2c-4.1-0.9-6.8-4.3-6.8-8.5c0-2.5,0.6-6.1,1.7-10.8c0.8-4,1.8-9.9,1.8-13.2
		c0-1.4-0.2-2.7-0.4-3.1c-1-0.5-2.9-0.8-5.8-0.9l-0.9-2.6C604.1,297.4,609.2,296,612,296z M616.5,279.5c2.5,0,4.6,1.9,4.6,4.8
		c0,3.5-2.1,6.2-6,6.2c-2.7,0-4.6-2-4.6-4.9C610.4,282.1,613,279.5,616.5,279.5z"/>
	<path d="M632.3,319.4c1.1-7.5,1.6-10.9,1.6-13.3c0-1.4-0.2-3-0.4-3.4c-0.6-0.4-2.6-0.8-6.1-0.8l-0.9-2.7c2.6-1.7,7.5-3.1,10.5-3.1
		c3.3,0,5.3,3.2,5.3,13.2h0.3c4.7-8.6,10.1-13.2,15.1-13.2s8.7,3.8,8.7,10.2c0,2.5-0.5,6-1.5,10.4c-1,5-1.9,8.9-1.9,11.4
		c0,2,0.6,3,1.7,3.6c1.7-0.2,4.1-0.9,5.6-1.9l1.2,3.3c-2.7,2.5-7.2,4.7-11.5,5.2c-4-1-6.7-4.2-6.7-8.5c0-2.6,0.6-6,1.7-10.8
		c0.8-4,1.6-8.4,1.6-10.9c0-2.1-0.4-3.6-1.1-4.4c-4.3,0.6-11,7-12.8,13.9c-1.6,5.5-2,10-2,19.9l-11.3,0.8L632.3,319.4z"/>
	<path d="M721,332.7c-5,3.6-11.2,5.6-15.8,5.6c-7.7,0-13.8-5.5-13.8-14.5c0-15.4,11.6-28.1,22.4-28.1c5.8,0,9,3.1,9,6.1
		c0,2.3-1.7,4.8-4.7,6.2c-2.6-4-4.9-6-7.3-6c-2.2,0-4.1,0.9-5.5,3.4c-1.9,3.1-3.4,8.7-3.4,15c0,8.1,3.3,10.7,8.2,10.7
		c3.1,0,7-0.7,9.6-1.9L721,332.7z"/>
	<path d="M767.2,333.1c-2.7,2.5-7.3,4.7-11.5,5.2c-4.4-1.4-6.1-5-5.4-11.9c-4.9,8.4-9.7,11.9-14.6,11.9c-5.4,0-9.5-5.3-9.5-12.4
		c0-7.8,3.4-16.1,8-21.8c4.5-5.5,9.3-8.1,13.9-8.1c4.4,0,10.5,1.1,15,3.1c-2.2,9.6-4.5,22.9-4.5,27.4c0,3.5,0.5,4.6,1.6,5.2
		c1.8-0.2,3.8-0.8,5.7-1.9L767.2,333.1z M746.3,301.9c-1,0-1.8,0.1-2.3,0.4c-3.4,1.7-7.7,10-7.7,20.3c0,6.6,1.6,8.6,3.7,8.6
		c2.9,0,7.1-4.6,9.8-13c1.9-5.7,2.6-11.2,2.8-15C750.8,302.4,747.9,301.9,746.3,301.9z"/>
	<path d="M775.3,319c1-6,1.5-10.5,1.5-12.9c0-1.7-0.2-3.1-0.4-3.4c-0.6-0.4-2.3-0.8-5.7-0.8l-0.8-2.8c3.2-1.9,7.5-3,10.1-3
		c3.2,0,5.3,3.2,5.3,13.2h0.2c2.8-8.5,8-13.2,11.4-13.2c3,0,4.9,3.6,4.9,9.4c-9.5,0.6-14.6,4.2-16.7,12.6c-1.1,4.4-1.5,9.2-1.2,19.6
		l-11.5,0.8L775.3,319z"/>
	<path d="M841.6,333.1c-2.7,2.5-7.3,4.7-11.5,5.2c-4.4-1.4-6.1-5-5.4-11.9c-4.9,8.4-9.7,11.9-14.6,11.9c-5.4,0-9.5-5.3-9.5-12.4
		c0-7.8,3.4-16.1,8-21.8c4.5-5.5,9.3-8.1,13.9-8.1c4.4,0,10.5,1.1,15,3.1c-2.2,9.6-4.5,22.9-4.5,27.4c0,3.5,0.5,4.6,1.6,5.2
		c1.8-0.2,3.8-0.8,5.7-1.9L841.6,333.1z M820.7,301.9c-1,0-1.8,0.1-2.3,0.4c-3.4,1.7-7.7,10-7.7,20.3c0,6.6,1.6,8.6,3.7,8.6
		c2.9,0,7.1-4.6,9.8-13c1.9-5.7,2.6-11.2,2.8-15C825.2,302.4,822.3,301.9,820.7,301.9z"/>
	<path d="M892.2,285l-1.8,11.8h9.4l-1.4,5.5h-8.7c-3,18.1-3.4,22.2-3.4,25.1c0,2.8,0.9,4.1,3,4.1s5.3-0.9,7.9-2.3l1.4,3.4
		c-3.6,3.1-9.4,5.8-13.8,5.8c-5.4,0-8.7-3.2-8.7-8.5c0-2.4,0.3-5.8,1-10.2l2.7-17.4H862c-3,18.1-3.4,22.2-3.4,25.1
		c0,2.8,0.9,4.1,3,4.1s5.3-0.9,7.9-2.3l1.4,3.4c-3.6,3.1-9.4,5.8-13.8,5.8c-5.4,0-8.7-3.2-8.7-8.5c0-2.4,0.4-5.8,1-10.2L852,302
		c-5.3-0.4-6.4-1.9-6.8-3.7l-0.2-1l7.6-0.2l1.2-8.1l10.6-4l-1.9,12h17.7l1.2-8L892.2,285z"/>
	<path d="M931.3,332.7c-5,3.6-11.1,5.6-15.8,5.6c-8,0-14.1-5.5-14.1-14.5c0-13.7,11-28,23.4-28c5.8,0,10,3.4,10,8.8
		c0,6.8-7.3,13.7-22.8,15.8c-0.1,0.4-0.1,0.4-0.1,1.6c0,6.4,3,9.2,8.5,9.2c3.1,0,7.1-0.7,9.7-1.9L931.3,332.7z M925,305.6
		c0-2.9-1.4-4.4-3.4-4.4c-4,0-8.5,5.9-9.4,15.6C921.3,314.8,925,310.8,925,305.6z"/>
	<path d="M943.1,319c1-6,1.5-10.5,1.5-12.9c0-1.7-0.2-3.1-0.4-3.4c-0.6-0.4-2.3-0.8-5.7-0.8l-0.8-2.8c3.2-1.9,7.5-3,10.1-3
		c3.2,0,5.3,3.2,5.3,13.2h0.2c2.8-8.5,8-13.2,11.4-13.2c3,0,4.9,3.6,4.9,9.4c-9.5,0.6-14.6,4.2-16.7,12.6c-1.1,4.4-1.5,9.2-1.2,19.6
		l-11.5,0.8L943.1,319z"/>
	<path d="M982.2,296c3.7,0,6.4,2.7,6.4,8c0,2.9-0.7,7.3-1.7,11.8c-1.4,5.7-2.1,10-2.1,12.3c0,2,0.5,3.1,1.5,3.6c1.7-0.2,4.1-1,5.9-2
		l1.2,3.4c-2.7,2.5-7.2,4.7-11.5,5.2c-4.1-0.9-6.8-4.3-6.8-8.5c0-2.5,0.6-6.1,1.7-10.8c0.8-4,1.8-9.9,1.8-13.2
		c0-1.4-0.2-2.7-0.4-3.1c-1-0.5-2.9-0.8-5.8-0.9l-0.9-2.6C974.3,297.4,979.4,296,982.2,296z M986.7,279.5c2.5,0,4.6,1.9,4.6,4.8
		c0,3.5-2.1,6.2-6,6.2c-2.7,0-4.6-2-4.6-4.9C980.7,282.1,983.3,279.5,986.7,279.5z"/>
	<path d="M1027.9,278c1.8,0.7,3,2,4,3.5l-5.9,36.3c-0.7,4.8-1.2,8-1.2,10.2c0,2,0.5,3.1,1.5,3.6c1.8-0.2,4.5-1.1,5.9-1.9l1.2,3.3
		c-2.7,2.5-7.2,4.7-11.4,5.2c-4.3-0.8-6.8-4.3-6.8-8.5c0-3.2,1.4-11.6,2.8-20.6c1.6-8.9,2.9-18,2.9-21.8c0-2-0.7-2.7-2.1-2.7
		s-3,0.5-4.3,1.1l-1.8-3.4C1017.3,279.6,1022.2,278,1027.9,278z"/>
	<path d="M1078.1,333.1c-2.7,2.5-7.3,4.7-11.5,5.2c-4.4-1.4-6.1-5-5.4-11.9c-4.9,8.4-9.7,11.9-14.6,11.9c-5.4,0-9.5-5.3-9.5-12.4
		c0-7.8,3.4-16.1,8-21.8c4.5-5.5,9.3-8.1,13.9-8.1c4.4,0,10.5,1.1,15,3.1c-2.2,9.6-4.5,22.9-4.5,27.4c0,3.5,0.5,4.6,1.6,5.2
		c1.8-0.2,3.8-0.8,5.7-1.9L1078.1,333.1z M1057.2,301.9c-1,0-1.8,0.1-2.3,0.4c-3.4,1.7-7.7,10-7.7,20.3c0,6.6,1.6,8.6,3.7,8.6
		c2.9,0,7.1-4.6,9.8-13c1.9-5.7,2.6-11.2,2.8-15C1061.7,302.4,1058.8,301.9,1057.2,301.9z"/>
	<path d="M1101,285l-1.8,11.8h9.4l-1.4,5.5h-8.7c-3,18.1-3.4,22.2-3.4,25.1c0,2.8,0.9,4.1,3,4.1s5.3-0.9,7.9-2.3l1.4,3.4
		c-3.6,3.1-9.4,5.8-13.8,5.8c-5.4,0-8.7-3.2-8.7-8.5c0-2.4,0.4-5.8,1-10.2l2.7-17.6c-5.3-0.4-6.4-1.9-6.8-3.7l-0.2-1l7.6-0.2
		l1.2-8.1L1101,285z"/>
	<path d="M1121.2,296c3.7,0,6.4,2.7,6.4,8c0,2.9-0.7,7.3-1.7,11.8c-1.4,5.7-2.1,10-2.1,12.3c0,2,0.5,3.1,1.5,3.6
		c1.7-0.2,4.1-1,5.9-2l1.2,3.4c-2.7,2.5-7.2,4.7-11.5,5.2c-4.1-0.9-6.8-4.3-6.8-8.5c0-2.5,0.6-6.1,1.7-10.8c0.8-4,1.8-9.9,1.8-13.2
		c0-1.4-0.2-2.7-0.4-3.1c-1-0.5-2.9-0.8-5.8-0.9l-0.9-2.6C1113.2,297.4,1118.3,296,1121.2,296z M1125.6,279.5c2.5,0,4.6,1.9,4.6,4.8
		c0,3.5-2.1,6.2-6,6.2c-2.7,0-4.6-2-4.6-4.9C1119.6,282.1,1122.2,279.5,1125.6,279.5z"/>
	<path d="M1141.4,319.4c1.1-7.5,1.6-10.9,1.6-13.3c0-1.4-0.2-3-0.4-3.4c-0.6-0.4-2.6-0.8-6.1-0.8l-0.9-2.7c2.6-1.7,7.5-3.1,10.5-3.1
		c3.3,0,5.3,3.2,5.3,13.2h0.3c4.7-8.6,10.1-13.2,15.1-13.2s8.7,3.8,8.7,10.2c0,2.5-0.5,6-1.5,10.4c-1,5-1.9,8.9-1.9,11.4
		c0,2,0.6,3,1.7,3.6c1.7-0.2,4.1-0.9,5.6-1.9l1.2,3.3c-2.7,2.5-7.2,4.7-11.5,5.2c-4-1-6.7-4.2-6.7-8.5c0-2.6,0.6-6,1.7-10.8
		c0.8-4,1.6-8.4,1.6-10.9c0-2.1-0.4-3.6-1.1-4.4c-4.3,0.6-11,7-12.8,13.9c-1.6,5.5-2,10-2,19.9l-11.3,0.8L1141.4,319.4z"/>
	<path d="M1194.4,296c3.7,0,6.4,2.7,6.4,8c0,2.9-0.7,7.3-1.7,11.8c-1.4,5.7-2.1,10-2.1,12.3c0,2,0.5,3.1,1.5,3.6
		c1.7-0.2,4.1-1,5.9-2l1.2,3.4c-2.7,2.5-7.2,4.7-11.5,5.2c-4.1-0.9-6.8-4.3-6.8-8.5c0-2.5,0.6-6.1,1.7-10.8c0.8-4,1.8-9.9,1.8-13.2
		c0-1.4-0.2-2.7-0.4-3.1c-1-0.5-2.9-0.8-5.8-0.9l-0.9-2.6C1186.5,297.4,1191.6,296,1194.4,296z M1198.8,279.5c2.5,0,4.6,1.9,4.6,4.8
		c0,3.5-2.1,6.2-6,6.2c-2.7,0-4.6-2-4.6-4.9C1192.8,282.1,1195.4,279.5,1198.8,279.5z"/>
</g>
<g>
	<path d="M50.2,193.6h8.9v16.7c4.4,4.6,13.3,8.4,21.1,8.4c7.8,0,12-4,12-10.5c0-7-3.2-12-19.6-24.1c-13.9-10.1-18.4-18.2-18.4-27.4
		c0-16.9,15.8-30.8,38.4-30.8c10.6,0,20.1,3,28.1,8.2l-9.3,23.2h-8l-1.9-17.1c-3-2.1-6.8-3.4-10.8-3.4c-9.5,0-13.7,4.9-13.7,10.3
		c0,4.6,2.5,9.1,17.3,20.1c15.2,11.4,20.7,21.1,20.7,31.7c0,20.3-16.9,30.6-36.7,30.6c-13.7,0-28.9-5.1-38.2-12L50.2,193.6z"/>
	<path d="M185.3,219.4c-9.9,6.5-21.5,9.7-31.5,9.7c-15,0-27.6-11-27.6-27.9c0-26.8,22-50.4,42.6-50.4c12.7,0,20.1,7.2,20.1,13.7
		c0,4.8-4.2,10.4-12,13.5c-4-8.4-8.2-13.7-12.7-13.7c-3.2,0-5.5,1.3-8,5.9c-2.9,5.3-4.8,14.6-4.8,24.9c0,14.8,5.1,20,12.9,20
		c6.5,0,13.5-1.7,17.7-3.4L185.3,219.4z"/>
	<path d="M194.8,229.1c7.4-39.7,13.3-81.3,13.3-92.5c0-2.9-0.2-4-1.7-4c-1.5,0-4.8,1-7.2,2.7l-4.2-7.8c8.6-5.7,17.7-8.5,30.2-8.5
		c3.8,1.5,7.2,4.4,9.1,7.4l-5.3,24.1c-1.7,7.8-3.8,16.2-7,25.5h0.8c7.8-15.4,18.1-24.5,28.5-24.5s18.6,8.2,18.6,20.7
		c0,4.2-0.6,8.4-2.5,17.3c-2.3,10.5-3.2,16.1-3.2,20.3c0,2.9,0.6,4.6,1.9,5.9c3.6-0.8,6.1-1.9,10.6-4.6l3,7.8
		c-5.1,4.9-14.4,9.1-24.7,10.3c-8.5-2.3-14.2-7.4-14.2-16.5c0-4.2,0.8-9.9,3-19.2c1.5-6.6,3-14.8,3-18.6c0-3.4-1.1-6.3-2.7-7.2
		c-7.2,2.3-14.2,9.3-17.9,17.5c-4.4,9.7-4.9,19.4-4.9,42.6L194.8,229.1z"/>
	<path d="M292.1,194.1c2.3-13.5,2.5-19.8,2.5-23.2s-0.4-6.3-0.4-6.3c-0.9-0.6-3.6-1.3-9.9-1.3l-1.7-5.9c7.2-4.2,13.7-6.1,18.8-6.1
		c7.8,0,12.4,8,12.4,24.5h0.6c4.2-17.1,12.4-24.5,19.8-24.5c6.7,0,10.8,8,10.8,19.8c-16.2,1.1-25.1,6.6-29.1,15
		c-2.5,5.5-3.4,16.5-2.7,41.4l-27.2,1.5L292.1,194.1z"/>
	<path d="M403.6,219.4c-9.9,6.5-21.5,9.7-31.5,9.7c-16.5,0-28.9-11-28.9-27.9c0-24.1,21.5-50,46-50c12.4,0,21.7,7,21.7,18.6
		c0,10.1-10.3,25.8-42.4,28.7v1.5c0,10.1,5.1,15,14.2,15c6.5,0,13.5-1.7,17.7-3.4L403.6,219.4z M388.8,170.4c0-5.1-2.1-8.2-5.7-8.2
		c-6.1,0-12.7,9.3-14.3,29.3C383.3,188.1,388.8,180.1,388.8,170.4z"/>
	<path d="M435.3,151.4c9.9,0,15.6,5.1,15.6,16c0,5.9-1.5,14.1-3.2,22c-2.5,10.5-3.4,17.3-3.4,20.3c0,2.9,0.2,4.8,1,5.9
		c3.6-0.8,7.4-2.5,12-5.1l2.9,8.4c-5.1,4.9-14.4,9.1-24.5,10.3c-8.9-1.9-14.4-8-14.4-16.7c0-3.6,0.8-9.7,3-19c1.5-6.6,3-17.7,3-23.6
		c0-2.3-0.2-4.8-0.4-5.3c-2.3-0.6-5.9-1.1-10.5-1.1l-1.7-5.3C419.6,154.4,429.4,151.4,435.3,151.4z M444.4,119.3
		c5.9,0,10.5,4.4,10.5,10.5c0,8-4.9,13.1-12.9,13.1c-7,0-10.6-5.1-10.6-10.8C431.3,123.7,438,119.3,444.4,119.3z"/>
	<path d="M494.2,118.9c4,1.5,7.2,4.6,9.1,7.4l-5.9,26c-2.3,9.5-4.9,17.5-8,24.3l1,0.4c10.3-19,18.8-25.7,30.8-25.7
		c11,0,20.3,9.1,20.3,24.3c0,28.3-21.7,53.4-46.6,53.4c-17.5,0-26.6-9.7-26.6-25.1c0-6.3,0.8-12,4.2-30.6
		c2.9-15.2,5.1-29.6,5.1-36.1c0-3.6-0.8-4.8-2.7-4.8c-2.3,0-6.7,1.7-9.3,3l-3.8-7.4C470.7,122.3,481.7,118.9,494.2,118.9z
		 M499.5,217.7c2.1,0,4.6-0.6,6.3-2.3c5.1-4.9,10.5-20.3,10.5-35c0-9.9-2.5-14.4-5.3-14.4c-3.2,0-7.4,3.6-12.2,13.1
		c-4.6,9.1-8,19.8-9.9,30.8C490,214.3,494.6,217.7,499.5,217.7z"/>
	<path d="M557.3,194.1c2.1-13.3,2.7-19.8,2.7-23.2s-0.2-5.7-0.4-6.3c-0.9-0.6-4.9-1.3-11.6-1.3l-1.7-5.5c4.4-3.4,13.7-6.5,20.3-6.5
		c7.8,0,12.4,8,12.4,24.5h0.6c7-16.2,17.3-24.5,27.2-24.5c8.4,0,14.3,6.8,14.3,16.5c0,2.3-0.4,6.1-0.8,8h0.6
		c6.7-15.8,17.3-24.5,26.6-24.5c9.5,0,17.7,8.2,17.7,20.7c0,4.2-0.6,8.4-2.5,17.3c-2.3,10.5-3.2,16.1-3.2,20.3
		c0,2.9,0.6,4.6,1.9,5.9c3.6-0.8,7-2.3,10.6-4.6l3,7.8c-5.1,4.9-14.4,9.1-24.7,10.3c-8.6-2.3-14.3-7.4-14.3-16.5
		c0-4.2,1.5-12.4,3.4-20c2.3-8.7,3.2-13.9,3.2-17.3c0-2.9-0.2-4.6-1.1-6.3c-6.3,1.3-13.3,7.8-16.9,16c-4.2,9.7-5.5,19.4-5.5,42.6
		l-26.6,1.5l7-35.9c1.1-6.3,2.5-13.3,2.5-17.9c0-2.9-0.2-4.6-1.1-6.3c-6.3,1.3-13.9,7.8-17.5,16c-4.2,9.7-5.5,19.4-5.5,42.6
		l-26.6,1.5L557.3,194.1z"/>
	<path d="M760.4,218.8c-5.1,4.9-14.4,9.1-24.5,10.3c-8.7-2.3-12.4-8.4-11.4-19.6c-7.4,14.2-15.6,19.6-24.9,19.6
		c-11.4,0-20-10.8-20-24.1c0-14.1,5.3-27.4,13.7-37.2c9.9-11.6,19.4-16.3,29.8-16.3c8,0,22.6,2.9,30.6,6.6
		c-5.1,17.5-8.9,39-8.9,48.6c0,5.9,0.6,7.6,1.9,8.9c3.6-0.8,6.1-1.9,10.6-4.6L760.4,218.8z M720.1,163.6c-1.3,0-2.7,0.2-3.8,0.8
		c-5.3,2.5-12.7,16.2-12.7,35.5c0,11,1.9,15.2,5.3,15.2s9.9-7.2,14.8-21.9c3.6-10.6,4.8-20.7,4.9-27.7
		C726.4,164.3,722,163.6,720.1,163.6z"/>
	<path d="M776.9,197.4c1.7,12.5,10.3,21.5,21.3,21.5c5.3,0,8.2-2.5,8.2-5.9c0-3.4-3.4-6.5-16.9-15.6c-12.4-8.4-15.4-13.9-15.4-20.9
		c0-12,14.3-25.7,31-25.7c12,0,20.9,5.9,20.9,12.9c0,5.7-3,10.3-10.6,13.1c-3.8-8.7-10.8-14.1-16.7-14.1c-3.4,0-5.9,2.3-5.9,4.9
		c0,3.4,2.5,6.1,14.8,14.1c13.9,8.9,17.5,15.6,17.5,22.8c0,14.2-15,25.5-34.2,25.5c-17.7,0-26.8-9.5-26.8-17.5
		c0-6.3,5.3-12.4,12.5-15.4L776.9,197.4z"/>
	<path d="M893.8,219.4c-9.9,6.5-21.5,9.7-31.5,9.7c-15,0-27.6-11-27.6-27.9c0-26.8,22-50.4,42.6-50.4c12.7,0,20.1,7.2,20.1,13.7
		c0,4.8-4.2,10.4-12,13.5c-4-8.4-8.2-13.7-12.7-13.7c-3.2,0-5.5,1.3-8,5.9c-2.9,5.3-4.8,14.6-4.8,24.9c0,14.8,5.1,20,12.9,20
		c6.5,0,13.5-1.7,17.7-3.4L893.8,219.4z"/>
	<path d="M903.3,229.1c7.4-39.7,13.3-81.3,13.3-92.5c0-2.9-0.2-4-1.7-4c-1.5,0-4.8,1-7.2,2.7l-4.2-7.8c8.5-5.7,17.7-8.5,30.2-8.5
		c3.8,1.5,7.2,4.4,9.1,7.4l-5.3,24.1c-1.7,7.8-3.8,16.2-7,25.5h0.8c7.8-15.4,18.1-24.5,28.5-24.5c10.4,0,18.6,8.2,18.6,20.7
		c0,4.2-0.6,8.4-2.5,17.3c-2.3,10.5-3.2,16.1-3.2,20.3c0,2.9,0.6,4.6,1.9,5.9c3.6-0.8,6.1-1.9,10.6-4.6l3,7.8
		c-5.1,4.9-14.4,9.1-24.7,10.3c-8.6-2.3-14.2-7.4-14.2-16.5c0-4.2,0.8-9.9,3-19.2c1.5-6.6,3-14.8,3-18.6c0-3.4-1.1-6.3-2.7-7.2
		c-7.2,2.3-14.3,9.3-17.9,17.5c-4.4,9.7-4.9,19.4-4.9,42.6L903.3,229.1z"/>
	<path d="M1011.8,151.4c9.9,0,15.6,5.1,15.6,16c0,5.9-1.5,14.1-3.2,22c-2.5,10.5-3.4,17.3-3.4,20.3c0,2.9,0.2,4.8,0.9,5.9
		c3.6-0.8,7.4-2.5,12-5.1l2.8,8.4c-5.1,4.9-14.4,9.1-24.5,10.3c-8.9-1.9-14.4-8-14.4-16.7c0-3.6,0.8-9.7,3-19c1.5-6.6,3-17.7,3-23.6
		c0-2.3-0.2-4.8-0.4-5.3c-2.3-0.6-5.9-1.1-10.5-1.1l-1.7-5.3C996,154.4,1005.9,151.4,1011.8,151.4z M1020.9,119.3
		c5.9,0,10.5,4.4,10.5,10.5c0,8-4.9,13.1-12.9,13.1c-7,0-10.6-5.1-10.6-10.8C1007.8,123.7,1014.4,119.3,1020.9,119.3z"/>
	<path d="M1050,195.9c2.3-13.3,3-21.5,3-24.9c0-2.5-0.2-5.7-0.4-6.3c-1-0.6-4.9-1.3-11.6-1.3l-1.7-5.5c4.4-3.4,13.7-6.5,20.3-6.5
		c7.8,0,12.4,8,12.4,24.5h0.6c7-15.4,17.3-24.5,27.6-24.5c10.5,0,18.6,8.2,18.6,20.7c0,4.2-0.6,8.4-2.5,17.3
		c-2.3,10.5-3.2,16.1-3.2,20.3c0,2.9,0.6,4.6,1.9,5.9c3.6-0.8,7-2.3,10.6-4.6l3,7.8c-5.1,4.9-14.4,9.1-24.7,10.3
		c-8.5-2.3-14.2-7.4-14.2-16.5c0-4.2,1-9.9,3-19.2c1.5-6.6,3-14.8,3-18c0-2.9-0.2-4.6-1.1-6.3c-7.4,1.5-14.6,7.6-18.2,16
		c-4.2,9.7-5.5,19.4-5.5,42.6l-26.6,1.5L1050,195.9z"/>
	<path d="M1194.7,219.4c-9.9,6.5-21.5,9.7-31.5,9.7c-16.5,0-28.9-11-28.9-27.9c0-24.1,21.5-50,46-50c12.4,0,21.7,7,21.7,18.6
		c0,10.1-10.3,25.8-42.4,28.7v1.5c0,10.1,5.1,15,14.2,15c6.5,0,13.5-1.7,17.7-3.4L1194.7,219.4z M1179.9,170.4
		c0-5.1-2.1-8.2-5.7-8.2c-6.1,0-12.7,9.3-14.2,29.3C1174.4,188.1,1179.9,180.1,1179.9,170.4z"/>
</g>
</svg>
