<?xml version='1.0' encoding='UTF-8'?>
<svg xmlns="http://www.w3.org/2000/svg" xmlns:xlink="http://www.w3.org/1999/xlink" width="600px" height="300px" viewBox="0 0 600 300" x="0px" y="0px" enable-background="new 0 0 600 300"><defs><symbol overflow="visible" id="1b7152eda"><path d="M2.42-27.05l1.69 2.2a9.65 9.65 0 015.73-2.02c3.7 0 5.52 2.43 5.52 5.65 0 4.4-3.53 8.6-8.92 13.94L2.42-3.27 2.73 0h16.9l-.13-3.05H6.7l3-2.9c5.3-5.17 9.36-9.9 9.36-15.4 0-4.59-2.83-8.7-8.83-8.7-2.9 0-5.68.97-7.8 3zm0 0"/></symbol><symbol overflow="visible" id="1b7152edb"><path d="M17.9-29.56H3.4v14.87l.35.44c1.9-.63 4.02-1.06 5.73-1.06 3.85 0 6.14 2.2 6.14 5.69 0 2.74-.98 4.68-2.56 5.78-1.19.89-2.78 1.23-4.6 1.23-1.59 0-3.65-.39-5.07-.83L2.56-.66C4.41.13 6.58.54 8.73.54c6.05 0 10.55-3.63 10.55-10.38 0-5.29-3.84-8.43-8.87-8.43-1.24 0-2.47.18-3.61.49l-.05-8.64h11.03zm0 0"/></symbol><symbol overflow="visible" id="1b7152edd"><path d="M26.42-30.48L6.97-.66l2.2 1.5 19.45-29.78zM13.37-15.4h-3.04v-13.55l-2.44-.04L3-27.27l.7 2.16 3.63-.97v10.69H3.22v2.42H13.4zm9.3.17l1.02 1.9c.8-.5 1.98-.93 3.22-.93 1.71 0 2.46.97 2.46 2.42 0 2.25-2.06 4.24-4.5 6.58l-2.28 2.2.18 2.42h9.84l-.1-2.42h-6.3l1-.92c2.79-2.6 5.16-5.12 5.16-8.2 0-2.66-1.53-4.69-4.89-4.69-1.93 0-3.57.67-4.8 1.64zm0 0"/></symbol><symbol overflow="visible" id="1b7152ede"><path d="M26.42-30.48L6.97-.66l2.2 1.5 19.45-29.78zM13.37-15.4h-3.04v-13.55l-2.44-.04L3-27.27l.7 2.16 3.63-.97v10.69H3.22v2.42H13.4zm15.08-1.2L21.44-6.44l.31 2.42h6.84v3.4h2.91v-3.4h2.2l-.08-2.34H31.5v-10.19zm-.97 5.46l1.07-1.74h.04v6.51h-4.28zm0 0"/></symbol><symbol overflow="visible" id="1b7152edf"><path d="M26.42-30.48L6.97-.66l2.2 1.5 19.45-29.78zM2.95-27.75l.92 1.86c.68-.31 1.91-.8 3.2-.8 1.4 0 2.2.7 2.2 1.99 0 1.45-1.07 2.47-2.83 2.47H5.25l.13 2.25h1.1c2.08 0 3.36.8 3.36 2.37 0 .9-.4 1.6-.96 1.98-.46.36-1.16.5-1.91.5-1.24 0-2.6-.4-3.44-.71l-.84 2.17a9.55 9.55 0 004.5 1.04c3.62 0 5.68-2.01 5.68-5.01 0-1.81-1-3.23-2.73-3.84a4.33 4.33 0 002.17-3.75c0-2.47-1.76-3.97-4.64-3.97-2.03 0-3.6.7-4.72 1.45zm25.5 11.16L21.44-6.44l.31 2.42h6.84v3.4h2.91v-3.4h2.2l-.08-2.34H31.5v-10.19zm-.97 5.46l1.07-1.74h.04v6.51h-4.28zm0 0"/></symbol><symbol overflow="visible" id="1b7152edg"><path d="M3.83 0v-5.95H6.2v-.82H.45v.82h2.4V0zm0 0"/></symbol><symbol overflow="visible" id="1b7152edh"><path d="M5.75-2.23v-.43c0-1.6-.9-2.51-2.42-2.51S.87-4.16.87-2.48c0 1.71.91 2.62 2.5 2.62 1.43 0 2.07-.56 2.29-1.52l-.9-.09c-.18.61-.59.9-1.35.9-.94 0-1.52-.54-1.58-1.66zm-2.4-2.2c.93 0 1.43.5 1.48 1.55H1.84c.08-1.07.6-1.56 1.5-1.56zm0 0"/></symbol><symbol overflow="visible" id="1b7152edi"><path d="M1.83 0l1.42-2h.06l1.46 2H5.8L4-2.53l1.78-2.49H4.8L3.42-3.08h-.08l-1.4-1.94H.89l1.78 2.49L.84 0zm0 0"/></symbol><symbol overflow="visible" id="1b7152edj"><path d="M5.52-4.25v-.77H3.17v-1.56h-.81l-.14 1.56H.75v.77h1.47v2.4c0 1.3.48 1.94 1.84 1.94C4.6.1 5.14 0 5.55-.14L5.4-.91c-.32.13-.72.2-1.13.2-.8 0-1.1-.37-1.1-1.23v-2.31zm0 0"/></symbol><symbol overflow="visible" id="1b7152edk"><path d="M3.33-3.42c.47 0 .8-.27.8-.8 0-.51-.33-.8-.8-.8-.47 0-.8.29-.8.8 0 .53.33.8.8.8zm0 3.5c.47 0 .8-.27.8-.78 0-.53-.33-.82-.8-.82-.47 0-.8.29-.8.82 0 .51.33.78.8.78zm0 0"/></symbol><symbol overflow="visible" id="1b7152edm"><path d="M5.67 0v-.86H2.14V-.9L3.6-2c1.05-.83 2-1.68 2-2.91 0-1.19-.73-1.99-2.26-1.99-1.66 0-2.3 1.02-2.44 2.33l1 .08c.1-.92.42-1.58 1.44-1.58.87 0 1.26.44 1.26 1.24 0 .9-.8 1.53-1.96 2.53L.83-.81V0zm0 0"/></symbol><symbol overflow="visible" id="1b7152edn"><path d="M3.42.14c1.55 0 2.44-.84 2.44-2.33 0-1.45-.83-2.22-2.14-2.22-.75 0-1.28.27-1.67.72H2l.31-2.22h3.11v-.86H1.53l-.45 3.93h.81c.3-.36.9-.79 1.58-.79.92 0 1.44.43 1.44 1.47 0 .99-.54 1.5-1.49 1.5-.83 0-1.28-.32-1.5-1.01l-.95.1C1.07-.46 2 .13 3.42.13zm0 0"/></symbol><symbol overflow="visible" id="1b7152edo"><path d="M4.22-6.77h-.86l-2.03.7v.87c.64-.17 1.26-.38 1.89-.55v4.9H1.03V0h4.9v-.86H4.21zm0 0"/></symbol><symbol overflow="visible" id="1b7152edp"><path d="M2.58.95l2.39-8.67h-.9L1.7.95zm0 0"/></symbol><symbol overflow="visible" id="1b7152edq"><path d="M5.1 0v-1.47H6v-.81h-.9v-4.49H3.8L.48-2.23v.76h3.66V0zM1.5-2.33l2.6-3.53h.04v3.58H1.5zm0 0"/></symbol><symbol overflow="visible" id="1b7152edr"><path d="M3.25.14c1.58 0 2.53-.69 2.53-1.95 0-1.19-.92-1.56-1.6-1.61v-.05A1.6 1.6 0 005.6-5.12c0-1.13-.87-1.79-2.3-1.79-1.62 0-2.32.82-2.45 1.88l.97.06c.13-.69.52-1.1 1.47-1.1.86 0 1.35.32 1.35 1.05 0 .86-.6 1.2-1.66 1.2h-.49v.79h.54c1.12 0 1.78.25 1.78 1.14 0 .78-.46 1.22-1.55 1.22-1.06 0-1.48-.4-1.63-1.1l-.98.07C.75-.56 1.56.14 3.25.14zm0 0"/></symbol><symbol overflow="visible" id="1b7152eds"><path d="M5.95-6.77H1.1V0h.99v-2.92H5.3v-.77H2.08v-2.26h3.87zm0 0"/></symbol><symbol overflow="visible" id="1b7152edt"><path d="M2.83.14c.94 0 1.5-.39 1.81-.95h.08l.1.81h.76v-3.38c0-1.23-.69-1.8-2.13-1.8-1.43 0-2.03.65-2.18 1.6l.93.1c.11-.6.44-.93 1.22-.93.85 0 1.22.32 1.22 1.04v.34l-1.81.2C1.6-2.7 1.1-2.17 1.1-1.28c0 .92.64 1.42 1.72 1.42zm.25-.77c-.67 0-1.02-.28-1.02-.74 0-.44.28-.72 1-.82l1.58-.19v.41c0 .8-.6 1.34-1.56 1.34zm0 0"/></symbol><symbol overflow="visible" id="1b7152edu"><path d="M2.73.14c.9 0 1.43-.45 1.74-1.08h.06l.13.94h.8v-5.02h-.94v2.7c0 .98-.57 1.62-1.46 1.62-.75 0-1.1-.4-1.1-1.22v-3.1h-.93v3.32c0 1.17.55 1.84 1.7 1.84zm0 0"/></symbol><symbol overflow="visible" id="1b7152edv"><path d="M5.08-5.16c-.94 0-1.58.43-1.9 1.3h-.09l-.07-1.16H1.05v.77h1.1v3.48H.96V0h3.96v-.77H3.1v-1.46c0-1.36.6-2.05 1.83-2.05.4 0 .76.08 1.1.17l.15-.87c-.33-.11-.7-.18-1.11-.18zm0 0"/></symbol><symbol overflow="visible" id="1b7152edw"><path d="M4.66-3.45c.76-.14 1.15-.67 1.15-1.57 0-1.07-.64-1.75-2.18-1.75H.92V0h2.71C5.2 0 5.98-.64 5.98-1.77c0-1.03-.56-1.43-1.32-1.59zM3.56-6c.9 0 1.31.4 1.31 1.13 0 .71-.4 1.14-1.3 1.14h-1.7V-6zM1.87-.75v-2.27H3.6c.97 0 1.44.33 1.44 1.13 0 .8-.47 1.14-1.44 1.14zm0 0"/></symbol><symbol overflow="visible" id="1b7152edx"><path d="M3.36.16c1.4 0 2.2-.6 2.2-1.57 0-.89-.54-1.22-1.47-1.39L3-3c-.67-.14-.86-.33-.86-.73 0-.5.4-.74 1.17-.74.83 0 1.19.27 1.27.8l.9-.05c-.12-1-.8-1.47-2.17-1.47-1.34 0-2.1.53-2.1 1.5 0 .81.45 1.22 1.52 1.44l1.04.2c.56.11.87.24.87.72 0 .52-.45.78-1.28.78-.95 0-1.36-.28-1.42-.87l-.9.06C1.07-.36 1.8.16 3.35.16zm0 0"/></symbol><symbol overflow="visible" id="1b7152edy"><path d="M3.58-5.81c.42 0 .72-.22.72-.67 0-.44-.3-.68-.72-.68-.44 0-.72.24-.72.68 0 .45.28.67.72.67zm.5.8H1.52v.76h1.6v3.48h-1.8V0h4.46v-.77h-1.7zm0 0"/></symbol><symbol overflow="visible" id="1b7152edz"><path d="M3.34.14c1.43 0 2.13-.66 2.25-1.78l-.89-.1c-.1.7-.5 1.08-1.34 1.08-1.03 0-1.52-.64-1.52-1.84 0-1.23.47-1.86 1.52-1.86.84 0 1.23.36 1.34 1.08l.9-.1c-.13-1.09-.82-1.78-2.26-1.78-1.56 0-2.46.97-2.46 2.66 0 1.66.9 2.64 2.46 2.64zm0 0"/></symbol><symbol overflow="visible" id="1b7152edA"><path d="M4.63-6.5c.45 0 .98.08 1.39.2l.2-.72a5.3 5.3 0 00-1.64-.26c-1.52 0-2.16.56-2.16 1.87v.4H.9v.76h1.53V0h.94v-4.25h2.53v-.77H3.36v-.3c0-.84.33-1.18 1.27-1.18zm0 0"/></symbol><symbol overflow="visible" id="1b7152edB"><path d="M3.33.14c1.62 0 2.5-.95 2.5-2.66 0-1.68-.88-2.64-2.5-2.64-1.63 0-2.5.96-2.5 2.64 0 1.7.87 2.66 2.5 2.66zm0-.77c-1.06 0-1.52-.6-1.52-1.89 0-1.28.46-1.87 1.52-1.87 1.08 0 1.53.6 1.53 1.87 0 1.29-.45 1.9-1.53 1.9zm0 0"/></symbol><symbol overflow="visible" id="1b7152edC"><path d="M2.16 0v-2.67c0-.99.59-1.63 1.46-1.63.74 0 1.07.38 1.07 1.22V0h.95v-3.31c0-1.2-.56-1.85-1.67-1.85-.92 0-1.49.46-1.77 1.08h-.06l-.12-.94H1.2V0zm0 0"/></symbol></defs><g fill="#515151"><use xlink:href="#1b7152eda" x="210.4412" y="145"/><use xlink:href="#1b7152edb" x="232.4552" y="145"/><use xlink:href="#1b7152edc" x="254.0492" y="145"/></g><use xlink:href="#1b7152edd" x="263.5588" y="145" fill="#fff"/><use xlink:href="#1b7152ede" x="308.7353" y="145" fill="#fff"/><use xlink:href="#1b7152edf" x="353.9118" y="145" fill="#fff"/><g fill="#fff"><use xlink:href="#1b7152edg" x="233.3333" y="252"/><use xlink:href="#1b7152edh" x="240.0003" y="252"/><use xlink:href="#1b7152edi" x="246.6673" y="252"/><use xlink:href="#1b7152edj" x="253.3343" y="252"/><use xlink:href="#1b7152edk" x="260.0013" y="252"/><use xlink:href="#1b7152edl" x="266.6683" y="252"/><use xlink:href="#1b7152edm" x="273.3353" y="252"/><use xlink:href="#1b7152edn" x="280.0023" y="252"/><use xlink:href="#1b7152edl" x="286.6693" y="252"/><use xlink:href="#1b7152edo" x="293.3363" y="252"/><use xlink:href="#1b7152edp" x="300.0033" y="252"/><use xlink:href="#1b7152edm" x="306.6703" y="252"/><use xlink:href="#1b7152edl" x="313.3373" y="252"/><use xlink:href="#1b7152edo" x="320.0043" y="252"/><use xlink:href="#1b7152edp" x="326.6713" y="252"/><use xlink:href="#1b7152edq" x="333.3383" y="252"/><use xlink:href="#1b7152edl" x="340.0053" y="252"/><use xlink:href="#1b7152edr" x="346.6723" y="252"/><use xlink:href="#1b7152edp" x="353.3393" y="252"/><use xlink:href="#1b7152edq" x="360.0063" y="252"/></g><g fill="#fff"><use xlink:href="#1b7152eds" x="220" y="266"/><use xlink:href="#1b7152edh" x="226.667" y="266"/><use xlink:href="#1b7152edt" x="233.334" y="266"/><use xlink:href="#1b7152edj" x="240.001" y="266"/><use xlink:href="#1b7152edu" x="246.668" y="266"/><use xlink:href="#1b7152edv" x="253.335" y="266"/><use xlink:href="#1b7152edh" x="260.002" y="266"/><use xlink:href="#1b7152edk" x="266.669" y="266"/><use xlink:href="#1b7152edl" x="273.336" y="266"/><use xlink:href="#1b7152edw" x="280.003" y="266"/><use xlink:href="#1b7152edt" x="286.67" y="266"/><use xlink:href="#1b7152edx" x="293.337" y="266"/><use xlink:href="#1b7152edy" x="300.004" y="266"/><use xlink:href="#1b7152edz" x="306.671" y="266"/><use xlink:href="#1b7152edl" x="313.338" y="266"/><use xlink:href="#1b7152edA" x="320.005" y="266"/><use xlink:href="#1b7152edv" x="326.672" y="266"/><use xlink:href="#1b7152edt" x="333.339" y="266"/><use xlink:href="#1b7152edz" x="340.006" y="266"/><use xlink:href="#1b7152edj" x="346.673" y="266"/><use xlink:href="#1b7152edy" x="353.34" y="266"/><use xlink:href="#1b7152edB" x="360.007" y="266"/><use xlink:href="#1b7152edC" x="366.674" y="266"/><use xlink:href="#1b7152edx" x="373.341" y="266"/></g></svg>