<?xml version='1.0' encoding='UTF-8'?>
<svg xmlns="http://www.w3.org/2000/svg" xmlns:xlink="http://www.w3.org/1999/xlink" width="600px" height="300px" viewBox="0 0 600 300" x="0px" y="0px" enable-background="new 0 0 600 300"><defs><symbol overflow="visible" id="1c7dfe54a"><path d="M3.22-14.6a29.46 29.46 0 013.48 3.97l3.14-2.65a14.48 14.48 0 00-3.53-4.02zm0 0"/></symbol><symbol overflow="visible" id="1c7dfe54b"><path d="M1.67-25.9c3.58 6.52 4.5 10.95 4.5 21.76V0h3.4v-4.81c0-11.33-1.1-15.97-4.95-22.72zm0 0"/></symbol><symbol overflow="visible" id="1c7dfe54c"><path d="M1.67-25.9C5.2-19.62 6.36-14.51 6.36-3.62V0h3.39v-4.33c0-6.87-.58-11.03-1.81-14.42a5.28 5.28 0 003.84 1.81c3 0 5.35-2.6 6.75-10.01l-2.78-.63c-1.5 5.95-2.56 7.42-4.5 7.42-1.45 0-2.78-.89-5.13-4.5l-1.8-2.82zm0 0"/></symbol><symbol overflow="visible" id="1c7dfe54d"><path d="M1.67-25.98c3.49 6.3 4.64 11.34 4.64 22.36V0h3.35v-4.33c0-7.01-.54-10.94-1.68-14.37.9.87 1.9 1.4 2.91 1.4 1.33 0 2.3-1.01 2.73-2.95.63 1.77 1.65 2.47 2.83 2.47 1.9 0 3.63-1.99 4.82-9.34l-2.57-.41C17.7-22.06 17.13-21 16.14-21c-1.02 0-1.62-.97-1.98-5.25h-2.29c-.18 4.81-.84 5.73-2.03 5.73-.89 0-1.95-.75-3.67-3.65l-1.84-3.31zm0 0"/></symbol><symbol overflow="visible" id="1c7dfe54e"><path d="M7.55 0h3.34c0-7.23-1.53-11.03-3.39-14.9-1.1-2.3-2.08-4.29-2.08-6.37 0-1.86.97-3.04 2.66-3.04 2.03 0 3.56 1.93 4.4 6.36h2.3c.66-3.1 2.2-5.57 4.67-7.11l-1.36-2.47a8.97 8.97 0 00-4.32 5.3c-1.02-3.32-3.14-5.3-6.1-5.3-3.17 0-5.37 2.42-5.37 5.95 0 2.4.83 4.6 2.08 7.38C6.26-9.88 7.54-6.36 7.54 0zm0 0"/></symbol><symbol overflow="visible" id="1c7dfe54f"><path d="M8.03.48c2.03 0 3.4-1.14 4.14-3.7.63 2.52 2.17 3.7 4.2 3.7 2.91 0 5.16-3.26 5.16-8.64 0-6.8-3.89-13.9-11.69-19.46l-1.8 2.65c.65.44 1.23.92 1.8 1.36-4.8 5.17-6.96 10.2-6.96 15.63 0 5.3 2.15 8.46 5.15 8.46zM13.6-9.7h-2.7c-.17 5.15-1.14 6.8-2.6 6.8-1.45 0-2.38-1.87-2.38-5.44 0-4.46 1.76-8.7 6.18-13.32 4.41 4.32 6.4 8.86 6.4 13.24 0 3.6-1.15 5.51-2.43 5.51-1.45 0-2.34-1.64-2.47-6.8zm0 0"/></symbol><symbol overflow="visible" id="1c7dfe54g"><path d="M.31-24.97c1.02 1.24 2.81 2.03 5.16 2.03 1.86 0 4.55-.43 6.44-1.01a36.1 36.1 0 00-.7 7.54c0 6.3 1.23 12.27 3.43 17.04L18.12 0a41.03 41.03 0 01-3.78-17.9c0-3.2.27-6.05.57-7.65l-1.32-1.98c-2.46.8-5.43 1.33-7.54 1.33a5.66 5.66 0 01-3.97-1.28zm0 0"/></symbol><symbol overflow="visible" id="1c7dfe54h"><path d="M3.83 0v-5.95H6.2v-.82H.45v.82h2.4V0zm0 0"/></symbol><symbol overflow="visible" id="1c7dfe54i"><path d="M5.75-2.23v-.43c0-1.6-.9-2.51-2.42-2.51S.87-4.16.87-2.48c0 1.71.91 2.62 2.5 2.62 1.43 0 2.07-.56 2.29-1.52l-.9-.09c-.18.61-.59.9-1.35.9-.94 0-1.52-.54-1.58-1.66zm-2.4-2.2c.93 0 1.43.5 1.48 1.55H1.84c.08-1.07.6-1.56 1.5-1.56zm0 0"/></symbol><symbol overflow="visible" id="1c7dfe54j"><path d="M1.83 0l1.42-2h.06l1.46 2H5.8L4-2.53l1.78-2.49H4.8L3.42-3.08h-.08l-1.4-1.94H.89l1.78 2.49L.84 0zm0 0"/></symbol><symbol overflow="visible" id="1c7dfe54k"><path d="M5.52-4.25v-.77H3.17v-1.56h-.81l-.14 1.56H.75v.77h1.47v2.4c0 1.3.48 1.94 1.84 1.94C4.6.1 5.14 0 5.55-.14L5.4-.91c-.32.13-.72.2-1.13.2-.8 0-1.1-.37-1.1-1.23v-2.31zm0 0"/></symbol><symbol overflow="visible" id="1c7dfe54l"><path d="M3.33-3.42c.47 0 .8-.27.8-.8 0-.51-.33-.8-.8-.8-.47 0-.8.29-.8.8 0 .53.33.8.8.8zm0 3.5c.47 0 .8-.27.8-.78 0-.53-.33-.82-.8-.82-.47 0-.8.29-.8.82 0 .51.33.78.8.78zm0 0"/></symbol><symbol overflow="visible" id="1c7dfe54u"><path d="M5.95-6.77H1.1V0h.99v-2.92H5.3v-.77H2.08v-2.26h3.87zm0 0"/></symbol><symbol overflow="visible" id="1c7dfe54v"><path d="M2.83.14c.94 0 1.5-.39 1.81-.95h.08l.1.81h.76v-3.38c0-1.23-.69-1.8-2.13-1.8-1.43 0-2.03.65-2.18 1.6l.93.1c.11-.6.44-.93 1.22-.93.85 0 1.22.32 1.22 1.04v.34l-1.81.2C1.6-2.7 1.1-2.17 1.1-1.28c0 .92.64 1.42 1.72 1.42zm.25-.77c-.67 0-1.02-.28-1.02-.74 0-.44.28-.72 1-.82l1.58-.19v.41c0 .8-.6 1.34-1.56 1.34zm0 0"/></symbol><symbol overflow="visible" id="1c7dfe54w"><path d="M2.73.14c.9 0 1.43-.45 1.74-1.08h.06l.13.94h.8v-5.02h-.94v2.7c0 .98-.57 1.62-1.46 1.62-.75 0-1.1-.4-1.1-1.22v-3.1h-.93v3.32c0 1.17.55 1.84 1.7 1.84zm0 0"/></symbol><symbol overflow="visible" id="1c7dfe54x"><path d="M5.08-5.16c-.94 0-1.58.43-1.9 1.3h-.09l-.07-1.16H1.05v.77h1.1v3.48H.96V0h3.96v-.77H3.1v-1.46c0-1.36.6-2.05 1.83-2.05.4 0 .76.08 1.1.17l.15-.87c-.33-.11-.7-.18-1.11-.18zm0 0"/></symbol><symbol overflow="visible" id="1c7dfe54y"><path d="M3.33.14c1.7 0 2.51-.86 2.51-2.69v-4.22h-.98v4.2c0 1.41-.47 1.9-1.53 1.9S1.8-1.16 1.8-2.57v-4.2H.8v4.22c0 1.83.81 2.7 2.52 2.7zm0 0"/></symbol><symbol overflow="visible" id="1c7dfe54z"><path d="M2.84.14C3.8.14 4.33-.26 4.6-.9h.07L4.8 0h.76v-7.14h-.95v2.95h-.08c-.28-.6-.86-.97-1.67-.97-1.48 0-2.27.99-2.27 2.64C.6-.84 1.36.14 2.84.14zm.22-.8c-.98 0-1.48-.59-1.48-1.84s.5-1.86 1.48-1.86c1.13 0 1.58.8 1.58 1.86S4.2-.66 3.06-.66zm0 0"/></symbol><symbol overflow="visible" id="1c7dfe54A"><path d="M2.16 0v-2.67c0-.99.59-1.63 1.46-1.63.74 0 1.07.38 1.07 1.22V0h.95v-3.31c0-1.2-.56-1.85-1.67-1.85-.92 0-1.49.46-1.77 1.08h-.06l-.12-.94H1.2V0zm0 0"/></symbol><symbol overflow="visible" id="1c7dfe54B"><path d="M1.63 0v-2.9c0-.8.15-1.4.71-1.4.41 0 .55.3.55.88V0h.95v-2.9c0-.8.18-1.4.72-1.4.4 0 .57.3.57.88V0h.95v-3.63c0-.92-.28-1.53-1.11-1.53-.63 0-.95.41-1.1.9h-.06c-.1-.52-.44-.9-1.08-.9-.6 0-.93.41-1.06.9H1.6l-.23-.76H.67V0zm0 0"/></symbol><symbol overflow="visible" id="1c7dfe54C"><path d="M3.92-7.14H1.36v.76h1.6v5.61H1.15V0H5.7v-.77H3.92zm0 0"/></symbol><symbol overflow="visible" id="1c7dfe54D"><path d="M3.36.16c1.4 0 2.2-.6 2.2-1.57 0-.89-.54-1.22-1.47-1.39L3-3c-.67-.14-.86-.33-.86-.73 0-.5.4-.74 1.17-.74.83 0 1.19.27 1.27.8l.9-.05c-.12-1-.8-1.47-2.17-1.47-1.34 0-2.1.53-2.1 1.5 0 .81.45 1.22 1.52 1.44l1.04.2c.56.11.87.24.87.72 0 .52-.45.78-1.28.78-.95 0-1.36-.28-1.42-.87l-.9.06C1.07-.36 1.8.16 3.35.16zm0 0"/></symbol><symbol overflow="visible" id="1c7dfe54E"><path d="M1.45-2.95c0 2.56 1.08 4.37 3.67 4.84l.11-.67C3.28.86 2.43-.75 2.43-2.95s.85-3.82 2.8-4.16l-.1-.69c-2.6.49-3.68 2.3-3.68 4.85zm0 0"/></symbol><symbol overflow="visible" id="1c7dfe54F"><path d="M3.16 2.03c1.67 0 2.4-.86 2.4-2.51v-4.54h-.81l-.13.91h-.06c-.26-.58-.8-1.05-1.73-1.05-1.42 0-2.24 1-2.24 2.52 0 1.6.75 2.56 2.2 2.56.94 0 1.5-.5 1.77-1.03h.05v.72c0 1.17-.42 1.67-1.45 1.67-.93 0-1.3-.34-1.41-.89L.8.5c.12.96.87 1.54 2.36 1.54zM3.06-.8c-.98 0-1.48-.57-1.48-1.82 0-1.13.5-1.75 1.48-1.75 1.06 0 1.58.76 1.58 1.75 0 .95-.56 1.82-1.58 1.82zm0 0"/></symbol><symbol overflow="visible" id="1c7dfe54G"><path d="M3.33.14c1.62 0 2.5-.95 2.5-2.66 0-1.68-.88-2.64-2.5-2.64-1.63 0-2.5.96-2.5 2.64 0 1.7.87 2.66 2.5 2.66zm0-.77c-1.06 0-1.52-.6-1.52-1.89 0-1.28.46-1.87 1.52-1.87 1.08 0 1.53.6 1.53 1.87 0 1.29-.45 1.9-1.53 1.9zm0 0"/></symbol><symbol overflow="visible" id="1c7dfe54H"><path d="M3.33.14c1.65 0 2.6-1.1 2.6-3.52S4.99-6.9 3.34-6.9C1.67-6.9.72-5.8.72-3.37c0 2.4.95 3.51 2.6 3.51zm0-.84c-1.13 0-1.6-.85-1.6-2.67 0-1.86.47-2.7 1.6-2.7 1.12 0 1.6.84 1.6 2.7 0 1.82-.48 2.67-1.6 2.67zM3.3-2.64c.38 0 .56-.28.56-.72 0-.44-.18-.7-.56-.7-.39 0-.56.26-.56.7 0 .44.17.72.56.72zm0 0"/></symbol><symbol overflow="visible" id="1c7dfe54I"><path d="M3.42.14c1.58 0 2.49-.86 2.49-2.3 0-1.42-.86-2.17-2.22-2.17-1.03 0-1.58.5-1.9 1.02h-.04c.03-1.63.4-2.77 1.73-2.77.91 0 1.24.44 1.36.96l.97-.11c-.23-.96-.86-1.68-2.33-1.68C1.84-6.9.86-5.86.86-3.1.86-.9 1.78.14 3.42.14zm.02-.78c-.9 0-1.47-.55-1.47-1.47 0-.9.7-1.47 1.53-1.47.92 0 1.47.52 1.47 1.47 0 .97-.6 1.47-1.53 1.47zm0 0"/></symbol><symbol overflow="visible" id="1c7dfe54J"><path d="M1.45-7.1c1.96.33 2.8 1.94 2.8 4.15 0 2.2-.84 3.8-2.8 4.17l.11.67c2.58-.47 3.67-2.28 3.67-4.84 0-2.55-1.09-4.36-3.67-4.85zm0 0"/></symbol><symbol overflow="visible" id="1c7dfe54n"><path d="M1.38-1.45l.68-.68L1.2-3l-.67.67zm0 0"/></symbol><symbol overflow="visible" id="1c7dfe54o"><path d="M1.14 0h.66c0-2.92-.1-3.38-.57-5.03L.52-5c.53 1.6.62 1.97.62 5zm0 0"/></symbol><symbol overflow="visible" id="1c7dfe54p"><path d="M1.14 0h.66c0-1.28-.02-2.08-.08-2.72.2.06.42.1.6.1 1 0 1.46-.66 1.46-1.77 0-.2-.01-.42-.05-.64l-.65.06c.03.25.04.45.04.63 0 .65-.21.96-.8.96-.52 0-.68-.09-.84-.75l-.25-.9L.52-5c.53 1.6.62 1.97.62 5zm0 0"/></symbol><symbol overflow="visible" id="1c7dfe54q"><path d="M1.14 0h.66c0-1.28-.02-2.08-.08-2.72.2.06.42.1.6.1.26 0 .48-.07.66-.2.24.12.63.2.82.2.84 0 1.22-.66 1.22-1.77 0-.19-.02-.42-.04-.64l-.6.06.01.47c0 .77-.14 1.13-.6 1.13-.15 0-.27-.02-.37-.05.1-.27.14-.58.14-.97 0-.2-.01-.42-.04-.64l-.66.06c.02.25.05.45.05.63 0 .65-.18.96-.6.96-.51 0-.67-.09-.83-.75l-.25-.9L.52-5c.53 1.6.62 1.97.62 5zm0 0"/></symbol><symbol overflow="visible" id="1c7dfe54r"><path d="M1.14 0h.66c0-.92-.02-1.6-.03-2.16.21.04.45.05.71.05.66 0 1.43-.08 2.29-.25L4.84-3c-.53.13-1.32.19-1.56.2-.08 0-.08 0-.12-.06-.1-.14-.32-.48-.32-.86 0-.45.29-.64.7-.64.21 0 .48.06.74.16l.17-.64a2.7 2.7 0 00-.93-.2c-.77 0-1.32.46-1.32 1.35 0 .3.08.64.24.9-.24 0-.47 0-.66-.04-.06 0-.06 0-.08-.1a11.9 11.9 0 00-.47-2.1L.52-5c.53 1.6.62 1.97.62 5zm0 0"/></symbol><symbol overflow="visible" id="1c7dfe54s"><path d="M1.72 0c.25 0 .58-.03.81-.22.3.19.58.22.81.22.52 0 1.18-.27 1.18-1.4 0-1.16-.85-2.23-2.57-3.68l-.47.52.36.33C1-3.2.52-2.43.52-1.43.52-.35 1.08 0 1.72 0zm0-.75c-.36 0-.56-.19-.56-.69 0-.72.3-1.36 1.2-2.37 1.22 1.04 1.5 1.87 1.5 2.42 0 .45-.11.64-.5.64-.5 0-.5-.1-.5-.5v-.36H2.2v.36c0 .4 0 .5-.48.5zm0 0"/></symbol><symbol overflow="visible" id="1c7dfe54t"><path d="M.52 0h.87a5.44 5.44 0 012.95-2.6l.08-.8-1.19.52c-.28.15-.48.16-.71.04a.88.88 0 01-.47-.75c0-.5.34-.74.9-.74a3 3 0 01.77.11l.08-.69a3.1 3.1 0 00-.9-.14c-.88 0-1.54.49-1.54 1.49 0 .58.33 1.12.81 1.4C1.72-1.75 1.13-1 .52 0zm0 0"/></symbol></defs><g fill="#fff"><use xlink:href="#1c7dfe54a" x="235.8529" y="145"/><use xlink:href="#1c7dfe54b" x="248.9089" y="145"/><use xlink:href="#1c7dfe54c" x="261.7849" y="145"/><use xlink:href="#1c7dfe54d" x="282.1009" y="145"/><use xlink:href="#1c7dfe54e" x="304.2353" y="145"/><use xlink:href="#1c7dfe54f" x="321.4853" y="145"/><use xlink:href="#1c7dfe54g" x="343.2353" y="145"/><use xlink:href="#1c7dfe54h" x="265.3222" y="252"/><use xlink:href="#1c7dfe54i" x="271.9892" y="252"/><use xlink:href="#1c7dfe54j" x="278.6562" y="252"/><use xlink:href="#1c7dfe54k" x="285.3232" y="252"/><use xlink:href="#1c7dfe54l" x="291.9902" y="252"/><use xlink:href="#1c7dfe54m" x="298.6572" y="252"/><g><use xlink:href="#1c7dfe54n" x="305.3222" y="252"/></g><g><use xlink:href="#1c7dfe54o" x="307.9" y="252"/><use xlink:href="#1c7dfe54p" x="310.219" y="252"/><use xlink:href="#1c7dfe54q" x="314.518" y="252"/><use xlink:href="#1c7dfe54r" x="320.057" y="252"/></g><g><use xlink:href="#1c7dfe54s" x="325.126" y="252"/></g><g><use xlink:href="#1c7dfe54t" x="329.745" y="252"/></g><g><use xlink:href="#1c7dfe54u" x="150" y="266"/><use xlink:href="#1c7dfe54i" x="156.667" y="266"/><use xlink:href="#1c7dfe54v" x="163.334" y="266"/><use xlink:href="#1c7dfe54k" x="170.001" y="266"/><use xlink:href="#1c7dfe54w" x="176.668" y="266"/><use xlink:href="#1c7dfe54x" x="183.335" y="266"/><use xlink:href="#1c7dfe54i" x="190.002" y="266"/><use xlink:href="#1c7dfe54l" x="196.669" y="266"/><use xlink:href="#1c7dfe54m" x="203.336" y="266"/><use xlink:href="#1c7dfe54y" x="210.003" y="266"/><use xlink:href="#1c7dfe54x" x="216.67" y="266"/><use xlink:href="#1c7dfe54z" x="223.337" y="266"/><use xlink:href="#1c7dfe54w" x="230.004" y="266"/><use xlink:href="#1c7dfe54m" x="236.671" y="266"/><use xlink:href="#1c7dfe54A" x="243.338" y="266"/><use xlink:href="#1c7dfe54w" x="250.005" y="266"/><use xlink:href="#1c7dfe54B" x="256.672" y="266"/><use xlink:href="#1c7dfe54i" x="263.339" y="266"/><use xlink:href="#1c7dfe54x" x="270.006" y="266"/><use xlink:href="#1c7dfe54v" x="276.673" y="266"/><use xlink:href="#1c7dfe54C" x="283.34" y="266"/><use xlink:href="#1c7dfe54D" x="290.007" y="266"/><use xlink:href="#1c7dfe54m" x="296.674" y="266"/><use xlink:href="#1c7dfe54E" x="303.341" y="266"/><use xlink:href="#1c7dfe54D" x="310.008" y="266"/><use xlink:href="#1c7dfe54i" x="316.675" y="266"/><use xlink:href="#1c7dfe54k" x="323.342" y="266"/><use xlink:href="#1c7dfe54m" x="330.009" y="266"/><use xlink:href="#1c7dfe54C" x="336.676" y="266"/><use xlink:href="#1c7dfe54v" x="343.343" y="266"/><use xlink:href="#1c7dfe54A" x="350.01" y="266"/><use xlink:href="#1c7dfe54F" x="356.677" y="266"/><use xlink:href="#1c7dfe54w" x="363.344" y="266"/><use xlink:href="#1c7dfe54v" x="370.011" y="266"/><use xlink:href="#1c7dfe54F" x="376.678" y="266"/><use xlink:href="#1c7dfe54i" x="383.345" y="266"/><use xlink:href="#1c7dfe54m" x="390.012" y="266"/><use xlink:href="#1c7dfe54G" x="396.679" y="266"/><use xlink:href="#1c7dfe54x" x="403.346" y="266"/><use xlink:href="#1c7dfe54m" x="410.013" y="266"/><use xlink:href="#1c7dfe54D" x="416.68" y="266"/><use xlink:href="#1c7dfe54D" x="423.347" y="266"/><use xlink:href="#1c7dfe54H" x="430.014" y="266"/><use xlink:href="#1c7dfe54I" x="436.681" y="266"/><use xlink:href="#1c7dfe54J" x="443.348" y="266"/></g></g></svg>