<?xml version='1.0' encoding='UTF-8'?>
<svg xmlns="http://www.w3.org/2000/svg" xmlns:xlink="http://www.w3.org/1999/xlink" width="600px" height="300px" viewBox="0 0 600 300" x="0px" y="0px" enable-background="new 0 0 600 300"><defs><symbol overflow="visible" id="a00c70f6a"><path d="M4.1-29.34V-.17c2.78.39 5.6.65 7.8.65 7.7 0 11.47-3.6 11.47-8.95 0-4.01-2.25-6.48-6-7.33a7.43 7.43 0 004.38-6.97c0-4.89-3.92-7.23-10.23-7.23-2.35 0-4.9.27-7.41.66zm7.37 2.39c4.01 0 6.58 1.32 6.58 4.89 0 1.68-.63 3.4-2.25 4.33-.93.57-2.18.84-4.07.84-1.23 0-2.46 0-4.1-.05v-9.7c1.32-.19 2.7-.31 3.84-.31zm.36 13.06c5.42 0 7.89 1.98 7.89 5.42 0 1.81-.7 3.44-2.25 4.6-1.14.82-2.74 1.26-5.3 1.26-1.4 0-2.86-.08-4.54-.27v-11.01h4.2zm0 0"/></symbol><symbol overflow="visible" id="a00c70f6b"><path d="M2.95-26.9c0 1.35.9 2.2 2.3 2.2 1.45 0 2.42-.97 2.42-2.43 0-1.37-.87-2.25-2.2-2.25-1.5 0-2.52 1-2.52 2.47zm4.07 6.26l-3.49.08V0h3.49zm0 0"/></symbol><symbol overflow="visible" id="a00c70f6c"><path d="M2.3-9.92C2.3-3.8 5.73.62 11.25.62c6.36 0 9.44-5.7 9.44-11.24 0-6.1-3.35-10.6-8.9-10.6-6.37 0-9.5 5.83-9.5 11.3zm14.82-.19c0 2.78-.67 4.98-1.95 6.31a4.84 4.84 0 01-3.56 1.42c-3.8 0-5.73-3.35-5.73-8.03 0-2.96.75-5.12 2.01-6.4.75-.8 1.95-1.4 3.53-1.4 3.75 0 5.7 3.38 5.7 8.1zm0 0"/></symbol><symbol overflow="visible" id="a00c70f6d"><path d="M2.34-9.7c0 5.86 3.3 10.32 7.9 10.32 2.42 0 4.4-1.25 6.17-2.87V.31c-.08 4.36-.83 7.72-5.6 7.72-2.12 0-4.23-.58-5.83-1.37L3.8 9.3c1.8.97 4.54 1.77 7.36 1.77 6.84 0 8.65-4.86 8.65-11.4v-13.05c0-1.76.08-3.04.4-7.15l-2.91-.39-.32 1.24a8.82 8.82 0 00-5.07-1.55c-6.57 0-9.57 6-9.57 11.52zm3.54-.68c0-2.46.56-5.01 2.06-6.51 1.01-.94 2.2-1.33 3.89-1.33 1.62 0 3.08.34 4.58 1.24v11.64c-1.85 1.68-3.66 2.96-5.64 2.96-3.18 0-4.9-3.4-4.9-8zm0 0"/></symbol><symbol overflow="visible" id="a00c70f6e"><path d="M6.13-20.9l-2.91.38c.31 4.46.36 6.4.36 7.99V0h3.48v-13.81c1.4-2.47 3.27-3.61 5.25-3.61.88 0 1.58.08 2.38.3l.67-3.18a5.19 5.19 0 00-2.83-.8c-2.39 0-4.23 1.5-5.69 4.12zm0 0"/></symbol><symbol overflow="visible" id="a00c70f6f"><path d="M4.67-9.66A5.8 5.8 0 001.9-4.67C1.9-1.5 3.92.48 7.23.48c2.52 0 4.99-1.14 7.14-3.09l.68 2.83 2.86-.4c-.27-4.41-.35-6.21-.35-7.8v-5.3c0-5.42-1.93-7.81-6.31-7.81-3.31 0-6.22 1.42-8.52 3.36l1.29 2.15c2.15-1.5 4.5-2.47 6.57-2.47 2.55 0 3.54 1.5 3.54 5.88v.3c-4.77.4-7.7 1.06-9.46 2.21zm.58 4.58c0-1.31.63-2.15 1.33-2.69 1.01-.7 3-1.18 7.54-1.59v4.2C11.96-3.26 9.75-2.3 7.95-2.3c-1.72 0-2.69-.97-2.69-2.78zm0 0"/></symbol><symbol overflow="visible" id="a00c70f6g"><path d="M6.13-20.9l-2.91.38c.31 4.46.36 6.4.36 8.04v23.07h3.48V-.84A7.92 7.92 0 0011.78.62c6.13 0 9.35-5.87 9.35-11.56-.04-5.83-3.3-10.28-8.07-10.28-2.6 0-4.54 1.24-6.4 3.1zm6.35 2.68c3.4 0 5.04 3.4 5.04 7.94 0 2.6-.58 5.15-2.04 6.58a5.36 5.36 0 01-3.87 1.36c-1.64 0-3.1-.35-4.55-1.24v-12.08c1.82-1.54 3.49-2.56 5.42-2.56zm0 0"/></symbol><symbol overflow="visible" id="a00c70f6h"><path d="M7.02-33.13l-3.49.08V0h3.49v-16.1a11.33 11.33 0 016.12-2.07c2.73 0 3.48 1.72 3.48 5.42V0h3.5v-14.03c0-4.6-1.68-7.19-6.09-7.19-2.6 0-4.9.88-7.01 2.52zm0 0"/></symbol><symbol overflow="visible" id="a00c70f6i"><path d="M19.77-20.6h-3.32L10.67-3.8h-.17c-.27-1.4-.63-2.68-1.06-3.92L4.98-20.6H1.5c0 .67.13 1.33.4 1.95L8.68 0h.75C7.14 5.52 4.8 7.98.97 7.98v2.79c.48.09 1.01.12 1.86.12 3.53 0 6.39-2.64 9.04-9.34l7.54-20.2c.21-.63.36-1.2.36-1.96zm0 0"/></symbol><symbol overflow="visible" id="a00c70f6j"><path d="M3.83 0v-5.95H6.2v-.82H.45v.82h2.4V0zm0 0"/></symbol><symbol overflow="visible" id="a00c70f6k"><path d="M5.75-2.23v-.43c0-1.6-.9-2.51-2.42-2.51S.87-4.16.87-2.48c0 1.71.91 2.62 2.5 2.62 1.43 0 2.07-.56 2.29-1.52l-.9-.09c-.18.61-.59.9-1.35.9-.94 0-1.52-.54-1.58-1.66zm-2.4-2.2c.93 0 1.43.5 1.48 1.55H1.84c.08-1.07.6-1.56 1.5-1.56zm0 0"/></symbol><symbol overflow="visible" id="a00c70f6l"><path d="M1.83 0l1.42-2h.06l1.46 2H5.8L4-2.53l1.78-2.49H4.8L3.42-3.08h-.08l-1.4-1.94H.89l1.78 2.49L.84 0zm0 0"/></symbol><symbol overflow="visible" id="a00c70f6m"><path d="M5.52-4.25v-.77H3.17v-1.56h-.81l-.14 1.56H.75v.77h1.47v2.4c0 1.3.48 1.94 1.84 1.94C4.6.1 5.14 0 5.55-.14L5.4-.91c-.32.13-.72.2-1.13.2-.8 0-1.1-.37-1.1-1.23v-2.31zm0 0"/></symbol><symbol overflow="visible" id="a00c70f6n"><path d="M3.33-3.42c.47 0 .8-.27.8-.8 0-.51-.33-.8-.8-.8-.47 0-.8.29-.8.8 0 .53.33.8.8.8zm0 3.5c.47 0 .8-.27.8-.78 0-.53-.33-.82-.8-.82-.47 0-.8.29-.8.82 0 .51.33.78.8.78zm0 0"/></symbol><symbol overflow="visible" id="a00c70f6p"><path d="M4.66-3.45c.76-.14 1.15-.67 1.15-1.57 0-1.07-.64-1.75-2.18-1.75H.92V0h2.71C5.2 0 5.98-.64 5.98-1.77c0-1.03-.56-1.43-1.32-1.59zM3.56-6c.9 0 1.31.4 1.31 1.13 0 .71-.4 1.14-1.3 1.14h-1.7V-6zM1.87-.75v-2.27H3.6c.97 0 1.44.33 1.44 1.13 0 .8-.47 1.14-1.44 1.14zm0 0"/></symbol><symbol overflow="visible" id="a00c70f6q"><path d="M3.58-5.81c.42 0 .72-.22.72-.67 0-.44-.3-.68-.72-.68-.44 0-.72.24-.72.68 0 .45.28.67.72.67zm.5.8H1.52v.76h1.6v3.48h-1.8V0h4.46v-.77h-1.7zm0 0"/></symbol><symbol overflow="visible" id="a00c70f6r"><path d="M3.33.14c1.62 0 2.5-.95 2.5-2.66 0-1.68-.88-2.64-2.5-2.64-1.63 0-2.5.96-2.5 2.64 0 1.7.87 2.66 2.5 2.66zm0-.77c-1.06 0-1.52-.6-1.52-1.89 0-1.28.46-1.87 1.52-1.87 1.08 0 1.53.6 1.53 1.87 0 1.29-.45 1.9-1.53 1.9zm0 0"/></symbol><symbol overflow="visible" id="a00c70f6s"><path d="M3.16 2.03c1.67 0 2.4-.86 2.4-2.51v-4.54h-.81l-.13.91h-.06c-.26-.58-.8-1.05-1.73-1.05-1.42 0-2.24 1-2.24 2.52 0 1.6.75 2.56 2.2 2.56.94 0 1.5-.5 1.77-1.03h.05v.72c0 1.17-.42 1.67-1.45 1.67-.93 0-1.3-.34-1.41-.89L.8.5c.12.96.87 1.54 2.36 1.54zM3.06-.8c-.98 0-1.48-.57-1.48-1.82 0-1.13.5-1.75 1.48-1.75 1.06 0 1.58.76 1.58 1.75 0 .95-.56 1.82-1.58 1.82zm0 0"/></symbol><symbol overflow="visible" id="a00c70f6t"><path d="M5.08-5.16c-.94 0-1.58.43-1.9 1.3h-.09l-.07-1.16H1.05v.77h1.1v3.48H.96V0h3.96v-.77H3.1v-1.46c0-1.36.6-2.05 1.83-2.05.4 0 .76.08 1.1.17l.15-.87c-.33-.11-.7-.18-1.11-.18zm0 0"/></symbol><symbol overflow="visible" id="a00c70f6u"><path d="M2.83.14c.94 0 1.5-.39 1.81-.95h.08l.1.81h.76v-3.38c0-1.23-.69-1.8-2.13-1.8-1.43 0-2.03.65-2.18 1.6l.93.1c.11-.6.44-.93 1.22-.93.85 0 1.22.32 1.22 1.04v.34l-1.81.2C1.6-2.7 1.1-2.17 1.1-1.28c0 .92.64 1.42 1.72 1.42zm.25-.77c-.67 0-1.02-.28-1.02-.74 0-.44.28-.72 1-.82l1.58-.19v.41c0 .8-.6 1.34-1.56 1.34zm0 0"/></symbol><symbol overflow="visible" id="a00c70f6v"><path d="M2.06 1.9V-.84h.05c.28.58.8.97 1.77.97 1.5 0 2.2-.98 2.2-2.66 0-1.65-.7-2.64-2.19-2.64-.97 0-1.5.44-1.78 1.05h-.08l-.1-.9H1.1v6.9zm1.5-2.56c-1.06 0-1.53-.8-1.53-1.86 0-1.04.47-1.84 1.53-1.84 1.11 0 1.53.61 1.53 1.84 0 1.27-.42 1.86-1.53 1.86zm0 0"/></symbol><symbol overflow="visible" id="a00c70f6w"><path d="M2.16 0v-2.69c0-.98.6-1.6 1.46-1.6.74 0 1.07.4 1.07 1.2V0h.95v-3.31c0-1.17-.56-1.85-1.67-1.85-.9 0-1.44.46-1.75 1.08h-.06v-3.06H1.2V0zm0 0"/></symbol><symbol overflow="visible" id="a00c70f6x"><path d="M3.42-.86h-.08L1.77-5.02H.8L2.73 0h.41c-.33.95-.72 1.27-1.45 1.27-.22 0-.49-.04-.69-.08l-.1.73c.2.06.58.11.87.11 1.2 0 1.7-.7 2.21-2.03l1.94-5.02H5zm0 0"/></symbol><symbol overflow="visible" id="a00c70f6y"><path d="M5.95-6.77H1.1V0h.99v-2.92H5.3v-.77H2.08v-2.26h3.87zm0 0"/></symbol><symbol overflow="visible" id="a00c70f6z"><path d="M2.73.14c.9 0 1.43-.45 1.74-1.08h.06l.13.94h.8v-5.02h-.94v2.7c0 .98-.57 1.62-1.46 1.62-.75 0-1.1-.4-1.1-1.22v-3.1h-.93v3.32c0 1.17.55 1.84 1.7 1.84zm0 0"/></symbol><symbol overflow="visible" id="a00c70f6A"><path d="M6.17 0L3.98-6.77h-1.3L.5 0h.97l.44-1.47h2.78L5.16 0zM3.28-5.94h.08l1.1 3.74H2.15zm0 0"/></symbol><symbol overflow="visible" id="a00c70f6B"><path d="M3.92-7.14H1.36v.76h1.6v5.61H1.15V0H5.7v-.77H3.92zm0 0"/></symbol><symbol overflow="visible" id="a00c70f6C"><path d="M2.16 0v-2.67c0-.99.59-1.63 1.46-1.63.74 0 1.07.38 1.07 1.22V0h.95v-3.31c0-1.2-.56-1.85-1.67-1.85-.92 0-1.49.46-1.77 1.08h-.06l-.12-.94H1.2V0zm0 0"/></symbol><symbol overflow="visible" id="a00c70f6D"><path d="M3.9 0l2-5.02h-.96L3.4-.94h-.07L1.8-5.02H.77L2.78 0zm0 0"/></symbol><symbol overflow="visible" id="a00c70f6E"><path d="M4.63-6.5c.45 0 .98.08 1.39.2l.2-.72a5.3 5.3 0 00-1.64-.26c-1.52 0-2.16.56-2.16 1.87v.4H.9v.76h1.53V0h.94v-4.25h2.53v-.77H3.36v-.3c0-.84.33-1.18 1.27-1.18zm0 0"/></symbol><symbol overflow="visible" id="a00c70f6F"><path d="M1.63 0v-2.9c0-.8.15-1.4.71-1.4.41 0 .55.3.55.88V0h.95v-2.9c0-.8.18-1.4.72-1.4.4 0 .57.3.57.88V0h.95v-3.63c0-.92-.28-1.53-1.11-1.53-.63 0-.95.41-1.1.9h-.06c-.1-.52-.44-.9-1.08-.9-.6 0-.93.41-1.06.9H1.6l-.23-.76H.67V0zm0 0"/></symbol><symbol overflow="visible" id="a00c70f6G"><path d="M3.38-5.9c.12-.5.42-1.04.67-1.41l-.63-.22a4.28 4.28 0 00-1.01 2.39c0 .66.3 1 .9 1 .6 0 .9-.33.9-.9 0-.57-.32-.83-.83-.85zm0 0"/></symbol><symbol overflow="visible" id="a00c70f6H"><path d="M3.3-7.53c-.55 0-.85.3-.85.84 0 .55.36.8.83.8h.03a5.1 5.1 0 01-.69 1.47l.52.23a4.29 4.29 0 001.02-2.4c0-.63-.33-.94-.86-.94zm0 0"/></symbol><symbol overflow="visible" id="a00c70f6I"><path d="M1.45-2.95c0 2.56 1.08 4.37 3.67 4.84l.11-.67C3.28.86 2.43-.75 2.43-2.95s.85-3.82 2.8-4.16l-.1-.69c-2.6.49-3.68 2.3-3.68 4.85zm0 0"/></symbol><symbol overflow="visible" id="a00c70f6J"><path d="M3.36.16c1.4 0 2.2-.6 2.2-1.57 0-.89-.54-1.22-1.47-1.39L3-3c-.67-.14-.86-.33-.86-.73 0-.5.4-.74 1.17-.74.83 0 1.19.27 1.27.8l.9-.05c-.12-1-.8-1.47-2.17-1.47-1.34 0-2.1.53-2.1 1.5 0 .81.45 1.22 1.52 1.44l1.04.2c.56.11.87.24.87.72 0 .52-.45.78-1.28.78-.95 0-1.36-.28-1.42-.87l-.9.06C1.07-.36 1.8.16 3.35.16zm0 0"/></symbol><symbol overflow="visible" id="a00c70f6K"><path d="M3.33.14c1.65 0 2.6-1.1 2.6-3.52S4.99-6.9 3.34-6.9C1.67-6.9.72-5.8.72-3.37c0 2.4.95 3.51 2.6 3.51zm0-.84c-1.13 0-1.6-.85-1.6-2.67 0-1.86.47-2.7 1.6-2.7 1.12 0 1.6.84 1.6 2.7 0 1.82-.48 2.67-1.6 2.67zM3.3-2.64c.38 0 .56-.28.56-.72 0-.44-.18-.7-.56-.7-.39 0-.56.26-.56.7 0 .44.17.72.56.72zm0 0"/></symbol><symbol overflow="visible" id="a00c70f6L"><path d="M3.25.14c1.58 0 2.53-.69 2.53-1.95 0-1.19-.92-1.56-1.6-1.61v-.05A1.6 1.6 0 005.6-5.12c0-1.13-.87-1.79-2.3-1.79-1.62 0-2.32.82-2.45 1.88l.97.06c.13-.69.52-1.1 1.47-1.1.86 0 1.35.32 1.35 1.05 0 .86-.6 1.2-1.66 1.2h-.49v.79h.54c1.12 0 1.78.25 1.78 1.14 0 .78-.46 1.22-1.55 1.22-1.06 0-1.48-.4-1.63-1.1l-.98.07C.75-.56 1.56.14 3.25.14zm0 0"/></symbol><symbol overflow="visible" id="a00c70f6M"><path d="M1.45-7.1c1.96.33 2.8 1.94 2.8 4.15 0 2.2-.84 3.8-2.8 4.17l.11.67c2.58-.47 3.67-2.28 3.67-4.84 0-2.55-1.09-4.36-3.67-4.85zm0 0"/></symbol></defs><use xlink:href="#a00c70f6a" x="206.8015" y="145" fill="#515151"/><g fill="#515151"><use xlink:href="#a00c70f6b" x="232.3015" y="145"/><use xlink:href="#a00c70f6c" x="242.8015" y="145"/></g><use xlink:href="#a00c70f6d" x="265.7868" y="145" fill="#fff"/><g fill="#515151"><use xlink:href="#a00c70f6e" x="289.1691" y="145"/><use xlink:href="#a00c70f6f" x="304.4751" y="145"/></g><use xlink:href="#a00c70f6g" x="325.4211" y="145" fill="#515151"/><use xlink:href="#a00c70f6h" x="348.8271" y="145" fill="#515151"/><use xlink:href="#a00c70f6i" x="372.0531" y="145" fill="#515151"/><g fill="#fff"><use xlink:href="#a00c70f6j" x="250" y="252"/><use xlink:href="#a00c70f6k" x="256.667" y="252"/><use xlink:href="#a00c70f6l" x="263.334" y="252"/><use xlink:href="#a00c70f6m" x="270.001" y="252"/><use xlink:href="#a00c70f6n" x="276.668" y="252"/><use xlink:href="#a00c70f6o" x="283.335" y="252"/><use xlink:href="#a00c70f6p" x="290.002" y="252"/><use xlink:href="#a00c70f6q" x="296.669" y="252"/><use xlink:href="#a00c70f6r" x="303.336" y="252"/><use xlink:href="#a00c70f6s" x="310.003" y="252"/><use xlink:href="#a00c70f6t" x="316.67" y="252"/><use xlink:href="#a00c70f6u" x="323.337" y="252"/><use xlink:href="#a00c70f6v" x="330.004" y="252"/><use xlink:href="#a00c70f6w" x="336.671" y="252"/><use xlink:href="#a00c70f6x" x="343.338" y="252"/></g><g fill="#fff"><use xlink:href="#a00c70f6y" x="170" y="266"/><use xlink:href="#a00c70f6k" x="176.667" y="266"/><use xlink:href="#a00c70f6u" x="183.334" y="266"/><use xlink:href="#a00c70f6m" x="190.001" y="266"/><use xlink:href="#a00c70f6z" x="196.668" y="266"/><use xlink:href="#a00c70f6t" x="203.335" y="266"/><use xlink:href="#a00c70f6k" x="210.002" y="266"/><use xlink:href="#a00c70f6n" x="216.669" y="266"/><use xlink:href="#a00c70f6o" x="223.336" y="266"/><use xlink:href="#a00c70f6A" x="230.003" y="266"/><use xlink:href="#a00c70f6B" x="236.67" y="266"/><use xlink:href="#a00c70f6m" x="243.337" y="266"/><use xlink:href="#a00c70f6k" x="250.004" y="266"/><use xlink:href="#a00c70f6t" x="256.671" y="266"/><use xlink:href="#a00c70f6C" x="263.338" y="266"/><use xlink:href="#a00c70f6u" x="270.005" y="266"/><use xlink:href="#a00c70f6m" x="276.672" y="266"/><use xlink:href="#a00c70f6q" x="283.339" y="266"/><use xlink:href="#a00c70f6D" x="290.006" y="266"/><use xlink:href="#a00c70f6k" x="296.673" y="266"/><use xlink:href="#a00c70f6o" x="303.34" y="266"/><use xlink:href="#a00c70f6E" x="310.007" y="266"/><use xlink:href="#a00c70f6r" x="316.674" y="266"/><use xlink:href="#a00c70f6t" x="323.341" y="266"/><use xlink:href="#a00c70f6F" x="330.008" y="266"/><use xlink:href="#a00c70f6o" x="336.675" y="266"/><use xlink:href="#a00c70f6r" x="343.342" y="266"/><use xlink:href="#a00c70f6E" x="350.009" y="266"/><use xlink:href="#a00c70f6o" x="356.676" y="266"/><use xlink:href="#a00c70f6G" x="363.343" y="266"/><use xlink:href="#a00c70f6s" x="370.01" y="266"/><use xlink:href="#a00c70f6H" x="376.677" y="266"/><use xlink:href="#a00c70f6o" x="383.344" y="266"/><use xlink:href="#a00c70f6I" x="390.011" y="266"/><use xlink:href="#a00c70f6J" x="396.678" y="266"/><use xlink:href="#a00c70f6J" x="403.345" y="266"/><use xlink:href="#a00c70f6K" x="410.012" y="266"/><use xlink:href="#a00c70f6L" x="416.679" y="266"/><use xlink:href="#a00c70f6M" x="423.346" y="266"/></g></svg>