<?xml version='1.0' encoding='UTF-8'?>
<svg xmlns="http://www.w3.org/2000/svg" xmlns:xlink="http://www.w3.org/1999/xlink" width="310px" height="280px" viewBox="0 0 310 280" x="0px" y="0px" enable-background="new 0 0 310 280"><defs><symbol overflow="visible" id="8539ff45a"><path d="M4.2-10.38a23.3 23.3 0 00-1.8 8.76c0 8.21 4.58 12.14 14.22 12.14 9.05 0 13.58-3.4 14.3-11.61C32.22-.33 33.45 0 34.84 0c1.77 0 3.11-.72 4.35-2.58C41.34-.77 43.34 0 45.4 0c2.34 0 4.01-1 5.2-3.34C52.28-.91 54.48 0 57.16 0h.76c.86 0 1.44-1.14 1.44-3.16 0-2.04-.63-3.2-1.44-3.2h-.42c-2.06 0-3.69-.72-5.17-2.9l1.3-5.85-4.7-1.05-1.23 5.27c-.8 3.3-1.3 4.53-2.68 4.53-.91 0-2.05-.42-3.44-1.58l2.25-6.15-4.55-1.72-2.1 5.83c-1.1 2.95-1.66 3.62-2.77 3.62-1.2 0-2.1-.42-3.72-1.95a32.98 32.98 0 00-1.77-6.55l-5.45 1.28a33.71 33.71 0 011.76 9.9c0 6.21-2.25 8.27-8.6 8.27-6.3 0-8.55-1.96-8.55-7.36 0-2.3.48-4.4 1.1-6.36zm0 0"/></symbol><symbol overflow="visible" id="8539ff45b"><path d="M7.36-23.52l3.01-4.25a24.05 24.05 0 00-4.92-3.43l-3.01 4.25c1.53.8 3.48 2.3 4.92 3.43zm2.83 2.63l-5.46 1.44c1 3.01 1.72 5.92 1.72 8.4 0 3.25-1.48 4.7-5.54 4.7H0c-.95 0-1.53 1.24-1.53 3.15C-1.53-1.4-.95 0 0 0h1.53c6.6 0 10.75-3.58 10.75-10.7 0-3.35-.95-7.36-2.1-10.2zm0 0"/></symbol><symbol overflow="visible" id="8539ff45c"><path d="M2.58-35.17l.23 24.23C2.92-2.97 6.01 0 11.95 0h1.43c.87 0 1.53-1.14 1.53-3.16 0-2.04-.72-3.2-1.54-3.2h-.74c-2.93 0-4.18-1.33-4.18-5.1v-24.48zm0 0"/></symbol><symbol overflow="visible" id="8539ff45d"><path d="M-1.53-3.16C-1.53-1.14-.91 0 0 0h6.45c.9 0 1.49-1.14 1.49-3.16 0-2.04-.58-3.2-1.49-3.2H0c-.86 0-1.53 1.16-1.53 3.2zm0 0"/></symbol><symbol overflow="visible" id="8539ff45e"><path d="M8.45-15.1l-2.48 5.02C4.55-7.18 3.39-6.36.44-6.36h-.58c-.81 0-1.4 1.11-1.4 3.25C-1.53-1.14-1 0-.13 0h.81c3.3 0 5.46-.81 7.36-3.44C10.61-1 12.67 0 14.77 0c1.8 0 3.15-.67 4.4-2.63C21.8-.76 24.1 0 26.57 0c3.87 0 6.98-3.2 6.98-9.84a30.75 30.75 0 00-1.82-9.66l-5.2 1.3c.95 3.04 1.58 5.73 1.58 8.4 0 2.58-.81 3.44-2.55 3.44-1.14 0-2.37-.33-4.2-1.53l2.02-6.25-4.55-1.53-1.67 5.1c-1.05 3.4-1.77 4.21-2.97 4.21-1.14 0-2.05-.42-3.63-2L12.67-13zm0 0"/></symbol><symbol overflow="visible" id="8539ff45g"><path d="M15.16-16.4l-5.18 1.06c1.3 4.34 2.2 8.65 2.2 12.8 0 5.6-2.1 7.74-6.45 7.74-1.48 0-3.01-.23-4.06-.56L.23 9.04c1.68.9 4.32 1.66 7.08 1.66 6.36 0 10.42-4.15 10.42-13 0-5.25-1.15-10.26-2.57-14.1zm0 0"/></symbol><symbol overflow="visible" id="8539ff45h"><path d="M28.06-35.9l-5.68.87.23 20.08c.05 6.6-2.11 8.64-11.81 8.64H1.67l.9 6.36h10c11.13 0 15.5-4.83 15.5-13.77zM9.52-33.12l-5.7 2.63L14.4-9.31h1.33l3.6-1.74zm0 0"/></symbol><symbol overflow="visible" id="8539ff45i"><path d="M2.06 9.03c1.63.9 4.35 1.67 7.31 1.67 6.07 0 10.27-3.43 11.18-10.7h1.34c.9 0 1.48-1.14 1.48-3.16 0-2.04-.62-3.2-1.48-3.2h-1.34c-.57-7.4-3.93-12.42-9.36-12.42-4.69 0-8.17 3.97-8.17 8.94 0 5.45 3.92 9.07 12.42 9.7-.58 3.72-2.97 5.39-7.5 5.39-1.92 0-3.4-.28-4.4-.6zM15.58-6.02l-1.77-.1c-4.73-.24-6.4-1.52-6.4-3.86 0-2.16 1.53-3.74 3.48-3.74 2.48 0 4.45 2.4 4.69 7.7zm0 0"/></symbol><symbol overflow="visible" id="8539ff45j"><path d="M-1.53-3.34C-1.53-.86-.72 0 0 0c8.75 0 13.05-2.88 13.05-6.69 0-.3 0-.48-.05-.72C18.02-1.44 22.13 0 25.77 0c1.04 0 1.53-1.14 1.53-3.16 0-2-.49-3.2-1.53-3.2-3.07 0-5.13-.95-10.33-6.55l-8.4-8.93 12.84-12.77-5.97-1.33L1.05-22.89v3.34l5.26 5.36C8.36-12 8.94-10.7 8.94-9.56c0 2.25-2 3.2-8.94 3.2-.81 0-1.53 1.05-1.53 3.02zm0 0"/></symbol><symbol overflow="visible" id="8539ff45k"><path d="M4.02.17c2.01 0 3.15-.89 3.15-2.4 0-1.35-.8-1.93-2.33-2.24L3.67-4.7c-1.01-.2-1.44-.58-1.44-1.35 0-.83.66-1.3 1.88-1.3 1.17 0 1.75.4 1.94 1.46L7.15-6c-.2-1.53-1.21-2.28-3-2.28-1.96 0-3.04.87-3.04 2.31 0 1.28.75 1.99 2.2 2.28l1.22.24c1.02.2 1.52.5 1.52 1.3 0 .9-.72 1.4-2 1.4-1.33 0-1.94-.47-2.11-1.48l-1.11.1C1-.6 1.98.17 4.02.17zm0 0"/></symbol><symbol overflow="visible" id="8539ff45l"><path d="M6.92-6.02H5.55L2.78-3.45H2.7v-5.13H1.56V0H2.7v-2.78h.08L5.64 0h1.5L3.88-3.22zm0 0"/></symbol><symbol overflow="visible" id="8539ff45m"><path d="M4 .17c1.95 0 3-1.14 3-3.19 0-2.03-1.05-3.17-3-3.17S1-5.05 1-3.02C1-.97 2.05.18 4 .18zm0-.92c-1.28 0-1.83-.72-1.83-2.27 0-1.53.55-2.25 1.83-2.25s1.83.72 1.83 2.25C5.83-1.47 5.28-.75 4-.75zm0 0"/></symbol><symbol overflow="visible" id="8539ff45n"><path d="M4.7-8.58H1.64v.92h1.92v6.74h-2.2V0h5.47v-.92H4.7zm0 0"/></symbol><symbol overflow="visible" id="8539ff45o"><path d="M3.4.17C4.51.17 5.2-.3 5.57-.97h.08l.12.97h.9v-4.05c0-1.48-.82-2.15-2.54-2.15-1.73 0-2.44.75-2.6 1.9l1.1.11c.13-.7.52-1.1 1.47-1.1 1.01 0 1.47.37 1.47 1.23v.42l-2.17.23c-1.49.18-2.08.82-2.08 1.86 0 1.13.76 1.72 2.06 1.72zm.29-.92c-.81 0-1.2-.33-1.2-.9 0-.52.32-.87 1.2-.96l1.89-.23v.48c0 .95-.75 1.61-1.9 1.61zm0 0"/></symbol><symbol overflow="visible" id="8539ff45p"><path d="M6.1-6.19c-1.12 0-1.9.52-2.3 1.57h-.08l-.11-1.4H1.27v.91h1.32v4.19H1.14V0H5.9v-.92H3.73v-1.75c0-1.64.7-2.46 2.2-2.46.48 0 .91.08 1.32.2l.17-1.05c-.39-.13-.83-.2-1.33-.2zm0 0"/></symbol><symbol overflow="visible" id="8539ff45r"><path d="M2.6 0v-3.22c0-1.17.71-1.94 1.76-1.94.87 0 1.26.46 1.26 1.47V0h1.15v-3.97c0-1.45-.7-2.22-2-2.22-1.11 0-1.79.55-2.13 1.3h-.08l-.14-1.13h-.97V0zm0 0"/></symbol><symbol overflow="visible" id="8539ff45s"><path d="M4.02.19c1.7 0 2.65-.72 2.65-1.88 0-1.06-.65-1.45-1.76-1.67L3.6-3.6c-.81-.16-1.03-.37-1.03-.87 0-.6.45-.88 1.4-.88 1 0 1.43.31 1.52.95l1.1-.06c-.16-1.2-.97-1.75-2.63-1.75-1.61 0-2.5.63-2.5 1.8 0 .97.53 1.47 1.81 1.72l1.25.23c.67.14 1.03.3 1.03.88 0 .62-.53.93-1.53.93-1.16 0-1.62-.32-1.7-1.04l-1.1.07C1.3-.43 2.17.2 4.02.2zm0 0"/></symbol><symbol overflow="visible" id="8539ff45t"><path d="M7.4 0L4.79-8.1H3.23L.6 0h1.18l.51-1.77h3.35L6.19 0zM3.95-7.13h.1l1.32 4.47h-2.8zm0 0"/></symbol><symbol overflow="visible" id="8539ff45u"><path d="M4.69.17c1.76 0 2.6-1.19 2.6-3.17 0-2-.84-3.19-2.6-3.19-1.1 0-1.8.49-2.14 1.2h-.08v-3.59H1.33V0h.97l.15-1.1h.07c.34.77.96 1.27 2.17 1.27zm-.4-.95C3-.78 2.45-1.75 2.45-3c0-1.28.56-2.23 1.86-2.23S6.1-4.52 6.1-3c0 1.48-.52 2.22-1.8 2.22zm0 0"/></symbol><symbol overflow="visible" id="8539ff45v"><path d="M4.3-6.97c.5 0 .86-.28.86-.81S4.8-8.6 4.3-8.6c-.53 0-.86.28-.86.8 0 .54.33.82.86.82zm.6.95H1.82v.91h1.92v4.19H1.56V0h5.38v-.92H4.89zm0 0"/></symbol><symbol overflow="visible" id="8539ff45w"><path d="M4.02.17c1.7 0 2.56-.78 2.7-2.12l-1.08-.13c-.12.85-.6 1.3-1.6 1.3C2.79-.78 2.2-1.55 2.2-3c0-1.48.58-2.23 1.85-2.23 1 0 1.47.42 1.6 1.3l1.07-.12c-.16-1.33-.99-2.14-2.7-2.14-1.88 0-2.97 1.17-2.97 3.19 0 2 1.1 3.17 2.97 3.17zm0 0"/></symbol></defs><use xlink:href="#8539ff45a" x="11.52206" y="145"/><use xlink:href="#8539ff45b" x="69.35256" y="145"/><use xlink:href="#8539ff45c" x="84.74456" y="145"/><use xlink:href="#8539ff45d" x="98.12806" y="145"/><use xlink:href="#8539ff45d" x="104.58256" y="145"/><use xlink:href="#8539ff45d" x="111.03706" y="145"/><use xlink:href="#8539ff45e" x="117.49156" y="145"/><use xlink:href="#8539ff45f" x="154.15156" y="145"/><use xlink:href="#8539ff45g" x="162.46506" y="145"/><use xlink:href="#8539ff45h" x="183.59006" y="145"/><use xlink:href="#8539ff45i" x="214.17906" y="145"/><use xlink:href="#8539ff45j" x="236.07106" y="145"/><g><use xlink:href="#8539ff45e" x="261.83056" y="145"/></g><g fill-opacity=".33"><use xlink:href="#8539ff45k" x="83" y="230"/><use xlink:href="#8539ff45l" x="91.0004" y="230"/><use xlink:href="#8539ff45m" x="99.0008" y="230"/><use xlink:href="#8539ff45n" x="107.0012" y="230"/><use xlink:href="#8539ff45o" x="115.0016" y="230"/><use xlink:href="#8539ff45p" x="123.002" y="230"/><use xlink:href="#8539ff45q" x="131.0024" y="230"/><use xlink:href="#8539ff45k" x="139.0028" y="230"/><use xlink:href="#8539ff45o" x="147.0032" y="230"/><use xlink:href="#8539ff45r" x="155.0036" y="230"/><use xlink:href="#8539ff45s" x="163.004" y="230"/><use xlink:href="#8539ff45q" x="171.0044" y="230"/><use xlink:href="#8539ff45t" x="179.0048" y="230"/><use xlink:href="#8539ff45p" x="187.0052" y="230"/><use xlink:href="#8539ff45o" x="195.0056" y="230"/><use xlink:href="#8539ff45u" x="203.006" y="230"/><use xlink:href="#8539ff45v" x="211.0064" y="230"/><use xlink:href="#8539ff45w" x="219.0068" y="230"/></g></svg>