<?xml version='1.0' encoding='UTF-8'?>
<svg xmlns="http://www.w3.org/2000/svg" xmlns:xlink="http://www.w3.org/1999/xlink" width="600px" height="300px" viewBox="0 0 600 300" x="0px" y="0px" enable-background="new 0 0 600 300"><defs><symbol overflow="visible" id="b977d68ca"><path d="M.13-12.63v1.82c3.14-.53 6.57-.92 9.67-1.06v-1.85a59.6 59.6 0 00-6.44.53 2.61 2.61 0 01-.63-1.72c0-1.46 1.07-2.3 2.35-2.3.97 0 1.67.5 2.37 1.29l1.24-.97c-.83-1.28-2.03-2.3-3.8-2.3a3.82 3.82 0 00-3.92 3.83c0 1.02.36 1.86.75 2.44-.53.08-1.06.22-1.6.3zM2.02-2.3c0 5.92 4.1 9.44 12.1 9.44 8.01 0 13.14-3.03 13.14-7.58 0-3.31-2.64-5.6-9.66-6.8l-.58 2.65c5.52.75 7.5 2.21 7.5 4.1 0 2.26-3.66 4.37-10.28 4.37-6.05 0-9.27-2.11-9.27-6.7 0-1.85.54-3.62 1.29-5.3l-2.43-.83a13.74 13.74 0 00-1.8 6.65zm0 0"/></symbol><symbol overflow="visible" id="b977d68cb"><path d="M-1.23-24.97c-3.93 0-6.7 3.27-6.7 7.24 0 4.67 3.07 7.06 11.46 7.32-.26 1.94-1.98 3.35-4.45 3.35-.67 0-1.16-.08-1.46-.17l.61 2.73c5.64 0 8.4-2.88 8.4-8.47 0-7.28-3.15-12-7.86-12zm-4.11 7.19c0-2.42 1.71-4.19 3.96-4.19 2.75 0 4.96 2.78 5.04 8.64l-1.54-.04c-5.56-.18-7.46-1.68-7.46-4.41zm0 0"/></symbol><symbol overflow="visible" id="b977d68cc"><path d="M2.03-2.3c0 5.92 4.1 9.44 12.1 9.44 8.01 0 13.14-3.03 13.14-7.58 0-3.31-2.64-5.6-9.66-6.8l-.58 2.65c5.52.75 7.5 2.21 7.5 4.1 0 2.26-3.66 4.37-10.28 4.37-6.05 0-9.27-2.11-9.27-6.7 0-1.85.54-3.62 1.29-5.3l-2.43-.83a13.74 13.74 0 00-1.8 6.65zm14.78 16.28l1.99-2.73A14.2 14.2 0 0015.62 9l-1.95 2.78c.97.53 2.25 1.5 3.14 2.2zm-5.12 0l1.98-2.73c-.87-.84-2.2-1.77-3.22-2.25l-1.93 2.78c1.01.53 2.25 1.5 3.17 2.2zm0 0"/></symbol><symbol overflow="visible" id="b977d68cd"><path d="M-2.03-31.23l1.72-2.43c-.75-.72-1.9-1.5-2.81-1.98l-1.7 2.47c.95.53 1.95 1.28 2.79 1.94zm3.26 4.45l1.94-2.64c-.83-.8-2.06-1.69-3.04-2.17l-1.85 2.65c.88.53 2.11 1.46 2.95 2.16zm-5.2.1l1.85-2.66a15.6 15.6 0 00-3.08-2.11l-1.82 2.6c.93.52 2.13 1.46 3.05 2.16zm2.74 1.71c-3.93 0-6.7 3.27-6.7 7.24 0 4.67 3.07 7.06 11.46 7.32-.26 1.94-1.98 3.35-4.45 3.35-.67 0-1.16-.08-1.46-.17l.61 2.73c5.64 0 8.4-2.88 8.4-8.47 0-7.28-3.15-12-7.86-12zm-4.11 7.19c0-2.42 1.71-4.19 3.96-4.19 2.75 0 4.96 2.78 5.04 8.64l-1.54-.04c-5.56-.18-7.46-1.68-7.46-4.41zm0 0"/></symbol><symbol overflow="visible" id="b977d68ce"><path d="M1.28-27.27L3.27-30a14.1 14.1 0 00-3.22-2.25l-1.94 2.78c.97.53 2.25 1.5 3.17 2.2zm-5.16 0L-1.89-30c-.9-.84-2.17-1.77-3.19-2.25l-1.94 2.78c.97.53 2.2 1.5 3.14 2.2zm2.65 2.3c-3.93 0-6.7 3.27-6.7 7.24 0 4.67 3.07 7.06 11.46 7.32-.26 1.94-1.98 3.35-4.45 3.35-.67 0-1.16-.08-1.46-.17l.61 2.73c5.64 0 8.4-2.88 8.4-8.47 0-7.28-3.15-12-7.86-12zm-4.11 7.19c0-2.42 1.71-4.19 3.96-4.19 2.75 0 4.96 2.78 5.04 8.64l-1.54-.04c-5.56-.18-7.46-1.68-7.46-4.41zm0 0"/></symbol><symbol overflow="visible" id="b977d68cf"><path d="M-1.5-27.17L.63-30.1a16.32 16.32 0 00-3.41-2.38l-2.03 2.9c1.06.59 2.39 1.6 3.31 2.4zm.27 2.2c-3.93 0-6.7 3.27-6.7 7.24 0 4.67 3.07 7.06 11.46 7.32-.26 1.94-1.98 3.35-4.45 3.35-.67 0-1.16-.08-1.46-.17l.61 2.73c5.64 0 8.4-2.88 8.4-8.47 0-7.28-3.15-12-7.86-12zm-4.11 7.19c0-2.42 1.71-4.19 3.96-4.19 2.75 0 4.96 2.78 5.04 8.64l-1.54-.04c-5.56-.18-7.46-1.68-7.46-4.41zm0 0"/></symbol><symbol overflow="visible" id="b977d68cg"><path d="M1.06-17.78l-2.73 1.01C-.17-13.63.53-11.2.53-9.3c0 1.64-.62 2.2-1.67 2.2-.36 0-.99-.08-1.24-.12.13 1.36.83 2.1 2.25 2.1 2.07 0 3.52-1.62 3.52-4.4 0-2.35-.78-5.2-2.33-8.25zm0 0"/></symbol><symbol overflow="visible" id="b977d68ch"><path d="M-1.1-23.56l1.76-2.38c-.75-.7-1.9-1.5-2.86-1.98l-1.64 2.47c.89.53 1.95 1.28 2.73 1.89zm3.3 4.45l1.94-2.6c-.83-.79-2.06-1.66-3.08-2.16l-1.86 2.6c.93.58 2.13 1.5 3 2.16zm-5.25.14l1.86-2.66c-.8-.75-2.08-1.62-3.04-2.15l-1.86 2.66c.93.51 2.17 1.45 3.04 2.15zm4.11 1.19l-2.73 1.01C-.17-13.63.53-11.2.53-9.3c0 1.64-.62 2.2-1.67 2.2-.36 0-.99-.08-1.24-.12.13 1.36.83 2.1 2.25 2.1 2.07 0 3.52-1.62 3.52-4.4 0-2.35-.78-5.2-2.33-8.25zm0 0"/></symbol><symbol overflow="visible" id="b977d68ci"><path d="M1.67-20.08l1.99-2.78c-.88-.83-2.2-1.72-3.18-2.25l-1.93 2.78c.97.58 2.2 1.5 3.12 2.25zm-5.1 0l1.98-2.78c-.9-.83-2.2-1.72-3.22-2.25l-1.96 2.78c.99.58 2.25 1.5 3.2 2.25zm4.5 2.3l-2.74 1.01C-.17-13.63.53-11.2.53-9.3c0 1.64-.62 2.2-1.67 2.2-.36 0-.99-.08-1.24-.12.13 1.36.83 2.1 2.25 2.1 2.07 0 3.52-1.62 3.52-4.4 0-2.35-.78-5.2-2.33-8.25zm0 0"/></symbol><symbol overflow="visible" id="b977d68cj"><path d="M1.06-17.78l-2.73 1.01C-.17-13.63.53-11.2.53-9.3c0 1.64-.62 2.2-1.67 2.2-.36 0-.99-.08-1.24-.12.13 1.36.83 2.1 2.25 2.1 2.07 0 3.52-1.62 3.52-4.4 0-2.35-.78-5.2-2.33-8.25zM5.34 12.7l2.07-2.9c-.93-.9-2.29-1.86-3.35-2.4l-2.08 2.93c1.07.56 2.4 1.58 3.36 2.37zm0 0"/></symbol><symbol overflow="visible" id="b977d68ck"><path d="M3.83 0v-5.95H6.2v-.82H.45v.82h2.4V0zm0 0"/></symbol><symbol overflow="visible" id="b977d68cl"><path d="M5.75-2.23v-.43c0-1.6-.9-2.51-2.42-2.51S.87-4.16.87-2.48c0 1.71.91 2.62 2.5 2.62 1.43 0 2.07-.56 2.29-1.52l-.9-.09c-.18.61-.59.9-1.35.9-.94 0-1.52-.54-1.58-1.66zm-2.4-2.2c.93 0 1.43.5 1.48 1.55H1.84c.08-1.07.6-1.56 1.5-1.56zm0 0"/></symbol><symbol overflow="visible" id="b977d68cm"><path d="M1.83 0l1.42-2h.06l1.46 2H5.8L4-2.53l1.78-2.49H4.8L3.42-3.08h-.08l-1.4-1.94H.89l1.78 2.49L.84 0zm0 0"/></symbol><symbol overflow="visible" id="b977d68cn"><path d="M5.52-4.25v-.77H3.17v-1.56h-.81l-.14 1.56H.75v.77h1.47v2.4c0 1.3.48 1.94 1.84 1.94C4.6.1 5.14 0 5.55-.14L5.4-.91c-.32.13-.72.2-1.13.2-.8 0-1.1-.37-1.1-1.23v-2.31zm0 0"/></symbol><symbol overflow="visible" id="b977d68co"><path d="M3.33-3.42c.47 0 .8-.27.8-.8 0-.51-.33-.8-.8-.8-.47 0-.8.29-.8.8 0 .53.33.8.8.8zm0 3.5c.47 0 .8-.27.8-.78 0-.53-.33-.82-.8-.82-.47 0-.8.29-.8.82 0 .51.33.78.8.78zm0 0"/></symbol><symbol overflow="visible" id="b977d68cA"><path d="M5.95-6.77H1.1V0h.99v-2.92H5.3v-.77H2.08v-2.26h3.87zm0 0"/></symbol><symbol overflow="visible" id="b977d68cB"><path d="M2.83.14c.94 0 1.5-.39 1.81-.95h.08l.1.81h.76v-3.38c0-1.23-.69-1.8-2.13-1.8-1.43 0-2.03.65-2.18 1.6l.93.1c.11-.6.44-.93 1.22-.93.85 0 1.22.32 1.22 1.04v.34l-1.81.2C1.6-2.7 1.1-2.17 1.1-1.28c0 .92.64 1.42 1.72 1.42zm.25-.77c-.67 0-1.02-.28-1.02-.74 0-.44.28-.72 1-.82l1.58-.19v.41c0 .8-.6 1.34-1.56 1.34zm0 0"/></symbol><symbol overflow="visible" id="b977d68cC"><path d="M2.73.14c.9 0 1.43-.45 1.74-1.08h.06l.13.94h.8v-5.02h-.94v2.7c0 .98-.57 1.62-1.46 1.62-.75 0-1.1-.4-1.1-1.22v-3.1h-.93v3.32c0 1.17.55 1.84 1.7 1.84zm0 0"/></symbol><symbol overflow="visible" id="b977d68cD"><path d="M5.08-5.16c-.94 0-1.58.43-1.9 1.3h-.09l-.07-1.16H1.05v.77h1.1v3.48H.96V0h3.96v-.77H3.1v-1.46c0-1.36.6-2.05 1.83-2.05.4 0 .76.08 1.1.17l.15-.87c-.33-.11-.7-.18-1.11-.18zm0 0"/></symbol><symbol overflow="visible" id="b977d68cE"><path d="M6.17 0L3.98-6.77h-1.3L.5 0h.97l.44-1.47h2.78L5.16 0zM3.28-5.94h.08l1.1 3.74H2.15zm0 0"/></symbol><symbol overflow="visible" id="b977d68cF"><path d="M3.9.14c1.48 0 2.18-.98 2.18-2.64 0-1.67-.7-2.66-2.17-2.66-.91 0-1.49.41-1.79 1h-.06v-2.98h-.95V0h.81l.11-.9h.06c.29.63.82 1.04 1.82 1.04zm-.32-.8c-1.08 0-1.55-.8-1.55-1.84 0-1.06.47-1.86 1.55-1.86 1.1 0 1.51.61 1.51 1.86S4.64-.66 3.58-.66zm0 0"/></symbol><symbol overflow="visible" id="b977d68cG"><path d="M3.58-5.81c.42 0 .72-.22.72-.67 0-.44-.3-.68-.72-.68-.44 0-.72.24-.72.68 0 .45.28.67.72.67zm.5.8H1.52v.76h1.6v3.48h-1.8V0h4.46v-.77h-1.7zm0 0"/></symbol><symbol overflow="visible" id="b977d68cH"><path d="M3.34.14c1.43 0 2.13-.66 2.25-1.78l-.89-.1c-.1.7-.5 1.08-1.34 1.08-1.03 0-1.52-.64-1.52-1.84 0-1.23.47-1.86 1.52-1.86.84 0 1.23.36 1.34 1.08l.9-.1c-.13-1.09-.82-1.78-2.26-1.78-1.56 0-2.46.97-2.46 2.66 0 1.66.9 2.64 2.46 2.64zm0 0"/></symbol><symbol overflow="visible" id="b977d68cI"><path d="M3.33.14c1.62 0 2.5-.95 2.5-2.66 0-1.68-.88-2.64-2.5-2.64-1.63 0-2.5.96-2.5 2.64 0 1.7.87 2.66 2.5 2.66zm0-.77c-1.06 0-1.52-.6-1.52-1.89 0-1.28.46-1.87 1.52-1.87 1.08 0 1.53.6 1.53 1.87 0 1.29-.45 1.9-1.53 1.9zm0 0"/></symbol><symbol overflow="visible" id="b977d68cJ"><path d="M2.16 0v-2.67c0-.99.59-1.63 1.46-1.63.74 0 1.07.38 1.07 1.22V0h.95v-3.31c0-1.2-.56-1.85-1.67-1.85-.92 0-1.49.46-1.77 1.08h-.06l-.12-.94H1.2V0zm0 0"/></symbol><symbol overflow="visible" id="b977d68cK"><path d="M3.92-7.14H1.36v.76h1.6v5.61H1.15V0H5.7v-.77H3.92zm0 0"/></symbol><symbol overflow="visible" id="b977d68cL"><path d="M3.36.16c1.4 0 2.2-.6 2.2-1.57 0-.89-.54-1.22-1.47-1.39L3-3c-.67-.14-.86-.33-.86-.73 0-.5.4-.74 1.17-.74.83 0 1.19.27 1.27.8l.9-.05c-.12-1-.8-1.47-2.17-1.47-1.34 0-2.1.53-2.1 1.5 0 .81.45 1.22 1.52 1.44l1.04.2c.56.11.87.24.87.72 0 .52-.45.78-1.28.78-.95 0-1.36-.28-1.42-.87l-.9.06C1.07-.36 1.8.16 3.35.16zm0 0"/></symbol><symbol overflow="visible" id="b977d68cq"><path d="M2.14-1.63l1.53-.1v-.43l-.69.05c-.06.02-.06.02-.07-.03a.45.45 0 01-.07-.22c0-.17.14-.27.4-.27.04 0 .12 0 .18.02v-.44l-.26-.01c-.52 0-.75.36-.75.69 0 .1.01.2.06.3l-.33.02zm.56 3.54c1.16 0 2.14-.64 2.14-1.61 0-.1-.01-.2-.04-.3h.3v-.75H2.9L2.8 0h.48c.8 0 .95.17.95.36 0 .3-.46.78-1.53.78-1.26 0-1.6-.5-1.6-1.34 0-.38.07-.8.18-1.28l-.64-.08c-.12.51-.19 1-.19 1.45 0 1.2.6 2.02 2.25 2.02zm0 0"/></symbol><symbol overflow="visible" id="b977d68cr"><path d="M0 0h1.4c1.23 0 1.82-.08 1.82-1.81v-.33C3.22-3.36 2.7-4 1.9-4 1.03-4 .56-3.28.56-2.48c0 .82.44 1.21 1.5 1.21.22 0 .4-.01.55-.03-.05.55-.27.55-.84.55H0c-.3 0-.38.13-.38.36 0 .27.08.39.38.39zm2.06-1.95c-.67 0-.92-.16-.92-.58 0-.4.25-.74.69-.74.56 0 .8.38.8 1.2 0 .1 0 .1-.1.1-.1.02-.28.02-.47.02zm0 0"/></symbol><symbol overflow="visible" id="b977d68cs"><path d="M2.7 1.9c1.16 0 2.14-.63 2.14-1.6 0-.1-.01-.2-.04-.3h.3v-.75H2.9L2.8 0h.48c.8 0 .95.17.95.36 0 .3-.46.78-1.53.78-1.26 0-1.6-.5-1.6-1.34 0-.38.07-.8.18-1.28l-.64-.08c-.12.51-.19 1-.19 1.45 0 1.2.6 2.02 2.25 2.02zm-.34 1.7l.34-.48.6.46.36-.47-.6-.47-.36.47-.6-.45-.35.46zm0 0"/></symbol><symbol overflow="visible" id="b977d68ct"><path d="M1.48-5.66l.33-.45-.58-.42-.32.44zm-.3.91l.35-.47.61.47.36-.47-.6-.47-.37.47-.6-.47-.35.47zM0 0h1.4c1.23 0 1.82-.08 1.82-1.81v-.33C3.22-3.36 2.7-4 1.9-4 1.03-4 .56-3.28.56-2.48c0 .82.44 1.21 1.5 1.21.22 0 .4-.01.55-.03-.05.55-.27.55-.84.55H0c-.3 0-.38.13-.38.36 0 .27.08.39.38.39zm2.06-1.95c-.67 0-.92-.16-.92-.58 0-.4.25-.74.69-.74.56 0 .8.38.8 1.2 0 .1 0 .1-.1.1-.1.02-.28.02-.47.02zm0 0"/></symbol><symbol overflow="visible" id="b977d68cu"><path d="M1.19-4.75l.34-.47.61.47.36-.47-.6-.47-.37.47-.6-.47-.35.47zM0 0h1.4c1.23 0 1.82-.08 1.82-1.81v-.33C3.22-3.36 2.7-4 1.9-4 1.03-4 .56-3.28.56-2.48c0 .82.44 1.21 1.5 1.21.22 0 .4-.01.55-.03-.05.55-.27.55-.84.55H0c-.3 0-.38.13-.38.36 0 .27.08.39.38.39zm2.06-1.95c-.67 0-.92-.16-.92-.58 0-.4.25-.74.69-.74.56 0 .8.38.8 1.2 0 .1 0 .1-.1.1-.1.02-.28.02-.47.02zm0 0"/></symbol><symbol overflow="visible" id="b977d68cv"><path d="M1.67-4.75l.38-.5-.64-.48-.4.5zM0 0h1.4c1.23 0 1.82-.08 1.82-1.81v-.33C3.22-3.36 2.7-4 1.9-4 1.03-4 .56-3.28.56-2.48c0 .82.44 1.21 1.5 1.21.22 0 .4-.01.55-.03-.05.55-.27.55-.84.55H0c-.3 0-.38.13-.38.36 0 .27.08.39.38.39zm2.06-1.95c-.67 0-.92-.16-.92-.58 0-.4.25-.74.69-.74.56 0 .8.38.8 1.2 0 .1 0 .1-.1.1-.1.02-.28.02-.47.02zm0 0"/></symbol><symbol overflow="visible" id="b977d68cw"><path d="M0 0h1c.8 0 1.08-.34 1.08-1.1v-.26L1.94-3l-.67.06.15 1.61.02.31c0 .27-.1.27-.52.27H0c-.3 0-.38.13-.38.36 0 .27.08.39.38.39zm0 0"/></symbol><symbol overflow="visible" id="b977d68cx"><path d="M1.22-4.6l.33-.45-.58-.42-.33.44zm-.3.91l.35-.45.59.45.36-.47-.6-.46-.35.46-.6-.46-.36.48zM0 0h1c.8 0 1.08-.34 1.08-1.1v-.26L1.94-3l-.67.06.15 1.61.02.31c0 .27-.1.27-.52.27H0c-.3 0-.38.13-.38.36 0 .27.08.39.38.39zm0 0"/></symbol><symbol overflow="visible" id="b977d68cy"><path d="M.92-3.69l.35-.45.59.45.36-.47-.6-.46-.35.46-.6-.46-.36.48zM0 0h1c.8 0 1.08-.34 1.08-1.1v-.26L1.94-3l-.67.06.15 1.61.02.31c0 .27-.1.27-.52.27H0c-.3 0-.38.13-.38.36 0 .27.08.39.38.39zm0 0"/></symbol><symbol overflow="visible" id="b977d68cz"><path d="M0 0h1c.8 0 1.08-.34 1.08-1.1v-.26L1.94-3l-.67.06.15 1.61.02.31c0 .27-.1.27-.52.27H0c-.3 0-.38.13-.38.36 0 .27.08.39.38.39zm.98 1.73l.38-.5-.64-.5-.38.52zm0 0"/></symbol></defs><g fill="#fff"><use xlink:href="#b977d68ca" x="103.74265" y="145"/><use xlink:href="#b977d68cb" x="123.90265" y="145"/><use xlink:href="#b977d68cc" x="143.66665" y="145"/><use xlink:href="#b977d68cd" x="163.56265" y="145"/><use xlink:href="#b977d68cc" x="183.32665" y="145"/><use xlink:href="#b977d68ce" x="203.22265" y="145"/><use xlink:href="#b977d68cc" x="222.98665" y="145"/><use xlink:href="#b977d68cf" x="242.88265" y="145"/><use xlink:href="#b977d68cc" x="262.64665" y="145"/><use xlink:href="#b977d68cb" x="282.54265" y="145"/><use xlink:href="#b977d68ca" x="302.30665" y="145"/><use xlink:href="#b977d68cg" x="322.46665" y="145"/><use xlink:href="#b977d68cc" x="341.30065" y="145"/><use xlink:href="#b977d68ch" x="361.19665" y="145"/><use xlink:href="#b977d68cc" x="380.03065" y="145"/><use xlink:href="#b977d68ci" x="399.92665" y="145"/><use xlink:href="#b977d68cc" x="418.76065" y="145"/><use xlink:href="#b977d68cj" x="438.65665" y="145"/><use xlink:href="#b977d68cc" x="457.49065" y="145"/><use xlink:href="#b977d68cg" x="477.38665" y="145"/><use xlink:href="#b977d68ck" x="205.6944" y="252"/><use xlink:href="#b977d68cl" x="212.3614" y="252"/><use xlink:href="#b977d68cm" x="219.0284" y="252"/><use xlink:href="#b977d68cn" x="225.6954" y="252"/><use xlink:href="#b977d68co" x="232.3624" y="252"/><use xlink:href="#b977d68cp" x="239.0294" y="252"/><use xlink:href="#b977d68cp" x="245.6964" y="252"/><use xlink:href="#b977d68cq" x="252.3611" y="252"/><use xlink:href="#b977d68cr" x="257.4571" y="252"/><use xlink:href="#b977d68cs" x="267.7907" y="252"/><use xlink:href="#b977d68ct" x="272.8867" y="252"/><g><use xlink:href="#b977d68cs" x="283.2204" y="252"/><use xlink:href="#b977d68cu" x="288.3164" y="252"/></g><g><use xlink:href="#b977d68cs" x="298.65" y="252"/><use xlink:href="#b977d68cv" x="303.746" y="252"/></g><g><use xlink:href="#b977d68cs" x="314.0796" y="252"/><use xlink:href="#b977d68cr" x="319.1756" y="252"/></g><g><use xlink:href="#b977d68cq" x="329.5093" y="252"/><use xlink:href="#b977d68cw" x="334.6053" y="252"/></g><g><use xlink:href="#b977d68cs" x="343.8019" y="252"/><use xlink:href="#b977d68cx" x="348.8979" y="252"/></g><g><use xlink:href="#b977d68cs" x="358.0944" y="252"/><use xlink:href="#b977d68cy" x="363.1904" y="252"/></g><g><use xlink:href="#b977d68cs" x="372.387" y="252"/><use xlink:href="#b977d68cz" x="377.483" y="252"/></g><g><use xlink:href="#b977d68cs" x="386.6796" y="252"/><use xlink:href="#b977d68cw" x="391.7756" y="252"/></g><g><use xlink:href="#b977d68cA" x="176.6667" y="266"/><use xlink:href="#b977d68cl" x="183.3337" y="266"/><use xlink:href="#b977d68cB" x="190.0007" y="266"/><use xlink:href="#b977d68cn" x="196.6677" y="266"/><use xlink:href="#b977d68cC" x="203.3347" y="266"/><use xlink:href="#b977d68cD" x="210.0017" y="266"/><use xlink:href="#b977d68cl" x="216.6687" y="266"/><use xlink:href="#b977d68co" x="223.3357" y="266"/><use xlink:href="#b977d68cp" x="230.0027" y="266"/><use xlink:href="#b977d68cE" x="236.6697" y="266"/><use xlink:href="#b977d68cD" x="243.3367" y="266"/><use xlink:href="#b977d68cB" x="250.0037" y="266"/><use xlink:href="#b977d68cF" x="256.6707" y="266"/><use xlink:href="#b977d68cG" x="263.3377" y="266"/><use xlink:href="#b977d68cH" x="270.0047" y="266"/><use xlink:href="#b977d68cp" x="276.6717" y="266"/><use xlink:href="#b977d68cH" x="283.3387" y="266"/><use xlink:href="#b977d68cI" x="290.0057" y="266"/><use xlink:href="#b977d68cJ" x="296.6727" y="266"/><use xlink:href="#b977d68cn" x="303.3397" y="266"/><use xlink:href="#b977d68cl" x="310.0067" y="266"/><use xlink:href="#b977d68cm" x="316.6737" y="266"/><use xlink:href="#b977d68cn" x="323.3407" y="266"/><use xlink:href="#b977d68cC" x="330.0077" y="266"/><use xlink:href="#b977d68cB" x="336.6747" y="266"/><use xlink:href="#b977d68cK" x="343.3417" y="266"/><use xlink:href="#b977d68cp" x="350.0087" y="266"/><use xlink:href="#b977d68cB" x="356.6757" y="266"/><use xlink:href="#b977d68cK" x="363.3427" y="266"/><use xlink:href="#b977d68cn" x="370.0097" y="266"/><use xlink:href="#b977d68cl" x="376.6767" y="266"/><use xlink:href="#b977d68cD" x="383.3437" y="266"/><use xlink:href="#b977d68cJ" x="390.0107" y="266"/><use xlink:href="#b977d68cB" x="396.6777" y="266"/><use xlink:href="#b977d68cn" x="403.3447" y="266"/><use xlink:href="#b977d68cl" x="410.0117" y="266"/><use xlink:href="#b977d68cL" x="416.6787" y="266"/></g></g></svg>