<?xml version='1.0' encoding='UTF-8'?>
<svg xmlns="http://www.w3.org/2000/svg" xmlns:xlink="http://www.w3.org/1999/xlink" width="600px" height="300px" viewBox="0 0 600 300" x="0px" y="0px" enable-background="new 0 0 600 300"><defs><symbol overflow="visible" id="aab15058a"><path d="M15.4-11.9l2.12-2.93c-.97-.87-2.35-1.8-3.4-2.37l-2.03 2.9a33.2 33.2 0 013.3 2.4zM4.13-7.99c-.83 2.1-1.4 4.62-1.4 7.28 0 6.92 3.7 10.06 11.78 10.06 8.34 0 11.78-3.19 11.9-11.34C27.58-.48 29.25 0 31.45 0c.75 0 1.07-.66 1.07-1.72 0-1.1-.32-1.72-1.07-1.72-2.9 0-4.36-1.1-5.64-4.98-.43-1.42-.67-2.2-.84-3l-3.13.65c.93 2.91 1.41 5.74 1.41 8.43 0 6.3-2.25 8.43-8.73 8.43-6.36 0-8.61-2.07-8.61-7.42 0-2.2.4-4.14 1.01-5.9zm0 0"/></symbol><symbol overflow="visible" id="aab15058b"><path d="M11.2 2.9L1.55 3.93v1.81l9.65-1.01zm0 0"/></symbol><symbol overflow="visible" id="aab15058c"><path d="M-1.14-1.81C-1.14-.48-.58 0 0 0c7.86 0 11.34-2.42 11.34-5.64 0-.4-.04-.72-.14-1.11C15.66-1.28 19.2 0 22.67 0c.8 0 1.16-.66 1.16-1.72s-.36-1.72-1.16-1.72c-3.3 0-5.42-1.01-10.4-6.58l-8.13-9 12.31-12.36-3.07-.92L.88-19.8v2.17l5.34 5.73c1.94 2.16 2.56 3.49 2.56 4.85 0 2.43-2.2 3.62-8.78 3.62-.63 0-1.14.56-1.14 1.63zm0 0"/></symbol><symbol overflow="visible" id="aab15058d"><path d="M1.55-30.17l.57 8.55h.61l1.11-.52-.36-8.44zm0 0"/></symbol><symbol overflow="visible" id="aab15058e"><path d="M11.2-24.36l-9.65.98v1.8l9.65-.97zm0 0"/></symbol><symbol overflow="visible" id="aab15058f"><path d="M7.45-8.56V-32.3l-3.08.49.13 22.6c0 4.5-1.4 5.77-3.84 5.77H-.1c-.7 0-1.05.61-1.05 1.72C-1.14-.66-.84 0-.1 0h.96c4.07 0 6.58-2.42 6.58-8.56zm0 0"/></symbol><symbol overflow="visible" id="aab15058g"><path d="M1.9 8.47c1.37.75 3.62 1.33 5.77 1.33 5.83 0 9.63-3.68 9.63-11.74 0-8.12-3.05-13.01-7.86-13.01-3.88 0-6.75 3.22-6.75 7.32 0 4.32 2.73 6.75 8.92 7.46L14.3 0c-.44 4.5-2.74 6.75-7.46 6.75-1.54 0-2.92-.31-4.01-.75zM14.3-3.36l-1.72-.08C7.06-3.63 5.34-5.08 5.34-7.8c0-2.42 1.77-4.19 3.97-4.19 2.69 0 4.77 2.78 4.99 8.64zm0 0"/></symbol><symbol overflow="visible" id="aab15058h"><path d="M1.6-28.72a18.86 18.86 0 005.68-1.9c.88.3 1.94.57 3.17.67l.18-1.86a7.5 7.5 0 01-1.58-.17 4.13 4.13 0 001.06-2.83c0-2.11-1.6-3.49-3.1-3.49a3.4 3.4 0 00-3.21 3.4c0 1.2.58 2.38 1.72 3.27-1.11.4-2.47.75-4.33 1.1zm3.77-6.17c0-.98.75-1.73 1.65-1.73.8 0 1.54.74 1.54 1.95 0 .8-.36 1.55-1.33 2.2-1.32-.58-1.86-1.45-1.86-2.42zM1.9-25.33c0 1.99.99 3.19 2.66 3.19 1.18 0 2.08-.72 2.3-1.86.43.92 1.28 1.4 2.2 1.4 1.4 0 2.42-1.13 2.42-2.85 0-1.24-.31-2.2-.97-3.27l-1.33.44c.4.8.7 1.67.7 2.47 0 .89-.39 1.37-1.04 1.37-.75 0-1.33-.67-1.64-3l-1.46.13c.1.75.14 1.33.14 1.81 0 1.06-.45 1.55-1.2 1.55-.8 0-1.23-.53-1.23-1.72 0-.63.14-1.24.31-1.86l-1.38-.22c-.3.66-.48 1.55-.48 2.42zm0 0"/></symbol><symbol overflow="visible" id="aab15058i"><path d="M6.31-12.97l2.64.7c.68-2.78 2.2-4.5 4.64-4.5 2.91 0 5.43 2.88 6.7 8.2a32.17 32.17 0 00-7.15-.87c-6.39 0-9.56 3.05-9.56 7.5 0 2.25.26 7.58.7 14.6h2.95C6.84 5.83 6.63.05 6.63-1.6c0-2.82 1.93-4.58 6.7-4.58 2.6 0 6.34.48 8.47 1.1l1.32-3.3c-1.54-7.91-5.12-11.49-9.45-11.49-3.83 0-6.44 2.56-7.36 6.9zm0 0"/></symbol><symbol overflow="visible" id="aab15058j"><path d="M.17-35.34v1.8c3.1-.52 6.53-.91 9.63-1.05v-1.85c-2.2.05-4.38.27-6.44.56a2.74 2.74 0 01-.63-1.71c0-1.5 1.07-2.33 2.35-2.33.97 0 1.67.48 2.37 1.31l1.24-.97c-.83-1.31-2.03-2.33-3.8-2.33a3.82 3.82 0 00-3.92 3.83c0 1.02.36 1.86.75 2.44-.53.12-1.06.22-1.55.3zm6.58 2.97l-3.17.51L3.66 0h.67l2.42-.58zm0 0"/></symbol><symbol overflow="visible" id="aab15058k"><path d="M22.86-1.72c0-1.1-.31-1.72-1.16-1.72H20.7c-2.6 0-3.57-1.33-3.7-4.9l-.44-13.05-3.14.39.18 3.84-5.39 2.52c-3.92 1.8-5.56 3.87-5.56 6.56 0 3.4 2.78 5.83 6.27 5.83a6.8 6.8 0 005.43-2.73C14.91-1.77 17.08 0 20.47 0h1.23c.85 0 1.16-.58 1.16-1.72zM5.52-8.38c0-1.5 1.1-2.65 4.18-4.06l3.97-1.9.31 6.62c-1.67 1.84-3.09 2.56-4.8 2.56-2.21 0-3.66-1.32-3.66-3.21zm0 0"/></symbol><symbol overflow="visible" id="aab15058l"><path d="M4.6-37.55l.56 8.57h.62l1.1-.58-.3-8.38zm-3 12.22c0 1.99.96 3.19 2.59 3.19 1.23 0 2.12-.72 2.34-1.86.44.92 1.28 1.4 2.16 1.4 1.45 0 2.44-1.13 2.44-2.85 0-1.24-.32-2.2-.94-3.27l-1.36.44c.44.8.7 1.67.7 2.47 0 .89-.4 1.37-1.01 1.37-.8 0-1.33-.67-1.64-3l-1.46.13c.1.75.14 1.33.14 1.81 0 1.06-.43 1.55-1.23 1.55s-1.2-.53-1.2-1.72c0-.63.09-1.24.26-1.86l-1.36-.22a6.76 6.76 0 00-.44 2.42zm0 0"/></symbol><symbol overflow="visible" id="aab15058m"><path d="M-1.14-1.67C-1.14-.57-.8 0 0 0h.8c2.33 0 4.1-.97 5.08-2.95A5.56 5.56 0 0010.97 0h1.11c.66 0 1.1-.66 1.1-1.72 0-1.1-.49-1.72-1.14-1.72h-.53c-2.79 0-4.07-1.33-4.07-5.03V-32.3l-3.08.49.22 25.54C3.75-4.28 2.52-3.44.4-3.44H0c-.75 0-1.14.56-1.14 1.77zm0 0"/></symbol><symbol overflow="visible" id="aab15058n"><path d="M6.75-32.38l-3.17.52L3.66 0h.67l2.42-.58zm0 0"/></symbol><symbol overflow="visible" id="aab15058o"><path d="M3.83 0v-5.95H6.2v-.82H.45v.82h2.4V0zm0 0"/></symbol><symbol overflow="visible" id="aab15058p"><path d="M5.75-2.23v-.43c0-1.6-.9-2.51-2.42-2.51S.87-4.16.87-2.48c0 1.71.91 2.62 2.5 2.62 1.43 0 2.07-.56 2.29-1.52l-.9-.09c-.18.61-.59.9-1.35.9-.94 0-1.52-.54-1.58-1.66zm-2.4-2.2c.93 0 1.43.5 1.48 1.55H1.84c.08-1.07.6-1.56 1.5-1.56zm0 0"/></symbol><symbol overflow="visible" id="aab15058q"><path d="M1.83 0l1.42-2h.06l1.46 2H5.8L4-2.53l1.78-2.49H4.8L3.42-3.08h-.08l-1.4-1.94H.89l1.78 2.49L.84 0zm0 0"/></symbol><symbol overflow="visible" id="aab15058r"><path d="M5.52-4.25v-.77H3.17v-1.56h-.81l-.14 1.56H.75v.77h1.47v2.4c0 1.3.48 1.94 1.84 1.94C4.6.1 5.14 0 5.55-.14L5.4-.91c-.32.13-.72.2-1.13.2-.8 0-1.1-.37-1.1-1.23v-2.31zm0 0"/></symbol><symbol overflow="visible" id="aab15058s"><path d="M3.33-3.42c.47 0 .8-.27.8-.8 0-.51-.33-.8-.8-.8-.47 0-.8.29-.8.8 0 .53.33.8.8.8zm0 3.5c.47 0 .8-.27.8-.78 0-.53-.33-.82-.8-.82-.47 0-.8.29-.8.82 0 .51.33.78.8.78zm0 0"/></symbol><symbol overflow="visible" id="aab15058I"><path d="M5.95-6.77H1.1V0h.99v-2.92H5.3v-.77H2.08v-2.26h3.87zm0 0"/></symbol><symbol overflow="visible" id="aab15058J"><path d="M2.83.14c.94 0 1.5-.39 1.81-.95h.08l.1.81h.76v-3.38c0-1.23-.69-1.8-2.13-1.8-1.43 0-2.03.65-2.18 1.6l.93.1c.11-.6.44-.93 1.22-.93.85 0 1.22.32 1.22 1.04v.34l-1.81.2C1.6-2.7 1.1-2.17 1.1-1.28c0 .92.64 1.42 1.72 1.42zm.25-.77c-.67 0-1.02-.28-1.02-.74 0-.44.28-.72 1-.82l1.58-.19v.41c0 .8-.6 1.34-1.56 1.34zm0 0"/></symbol><symbol overflow="visible" id="aab15058K"><path d="M2.73.14c.9 0 1.43-.45 1.74-1.08h.06l.13.94h.8v-5.02h-.94v2.7c0 .98-.57 1.62-1.46 1.62-.75 0-1.1-.4-1.1-1.22v-3.1h-.93v3.32c0 1.17.55 1.84 1.7 1.84zm0 0"/></symbol><symbol overflow="visible" id="aab15058L"><path d="M5.08-5.16c-.94 0-1.58.43-1.9 1.3h-.09l-.07-1.16H1.05v.77h1.1v3.48H.96V0h3.96v-.77H3.1v-1.46c0-1.36.6-2.05 1.83-2.05.4 0 .76.08 1.1.17l.15-.87c-.33-.11-.7-.18-1.11-.18zm0 0"/></symbol><symbol overflow="visible" id="aab15058M"><path d="M6.17 0L3.98-6.77h-1.3L.5 0h.97l.44-1.47h2.78L5.16 0zM3.28-5.94h.08l1.1 3.74H2.15zm0 0"/></symbol><symbol overflow="visible" id="aab15058N"><path d="M3.9.14c1.48 0 2.18-.98 2.18-2.64 0-1.67-.7-2.66-2.17-2.66-.91 0-1.49.41-1.79 1h-.06v-2.98h-.95V0h.81l.11-.9h.06c.29.63.82 1.04 1.82 1.04zm-.32-.8c-1.08 0-1.55-.8-1.55-1.84 0-1.06.47-1.86 1.55-1.86 1.1 0 1.51.61 1.51 1.86S4.64-.66 3.58-.66zm0 0"/></symbol><symbol overflow="visible" id="aab15058O"><path d="M3.58-5.81c.42 0 .72-.22.72-.67 0-.44-.3-.68-.72-.68-.44 0-.72.24-.72.68 0 .45.28.67.72.67zm.5.8H1.52v.76h1.6v3.48h-1.8V0h4.46v-.77h-1.7zm0 0"/></symbol><symbol overflow="visible" id="aab15058P"><path d="M3.34.14c1.43 0 2.13-.66 2.25-1.78l-.89-.1c-.1.7-.5 1.08-1.34 1.08-1.03 0-1.52-.64-1.52-1.84 0-1.23.47-1.86 1.52-1.86.84 0 1.23.36 1.34 1.08l.9-.1c-.13-1.09-.82-1.78-2.26-1.78-1.56 0-2.46.97-2.46 2.66 0 1.66.9 2.64 2.46 2.64zm0 0"/></symbol><symbol overflow="visible" id="aab15058Q"><path d="M3.9 0l2-5.02h-.96L3.4-.94h-.07L1.8-5.02H.77L2.78 0zm0 0"/></symbol><symbol overflow="visible" id="aab15058R"><path d="M3.33.14c1.62 0 2.5-.95 2.5-2.66 0-1.68-.88-2.64-2.5-2.64-1.63 0-2.5.96-2.5 2.64 0 1.7.87 2.66 2.5 2.66zm0-.77c-1.06 0-1.52-.6-1.52-1.89 0-1.28.46-1.87 1.52-1.87 1.08 0 1.53.6 1.53 1.87 0 1.29-.45 1.9-1.53 1.9zm0 0"/></symbol><symbol overflow="visible" id="aab15058S"><path d="M3.92-7.14H1.36v.76h1.6v5.61H1.15V0H5.7v-.77H3.92zm0 0"/></symbol><symbol overflow="visible" id="aab15058T"><path d="M3.36.16c1.4 0 2.2-.6 2.2-1.57 0-.89-.54-1.22-1.47-1.39L3-3c-.67-.14-.86-.33-.86-.73 0-.5.4-.74 1.17-.74.83 0 1.19.27 1.27.8l.9-.05c-.12-1-.8-1.47-2.17-1.47-1.34 0-2.1.53-2.1 1.5 0 .81.45 1.22 1.52 1.44l1.04.2c.56.11.87.24.87.72 0 .52-.45.78-1.28.78-.95 0-1.36-.28-1.42-.87l-.9.06C1.07-.36 1.8.16 3.35.16zm0 0"/></symbol><symbol overflow="visible" id="aab15058U"><path d="M2.16 0v-2.67c0-.99.59-1.63 1.46-1.63.74 0 1.07.38 1.07 1.22V0h.95v-3.31c0-1.2-.56-1.85-1.67-1.85-.92 0-1.49.46-1.77 1.08h-.06l-.12-.94H1.2V0zm0 0"/></symbol><symbol overflow="visible" id="aab15058V"><path d="M1.63 0v-2.9c0-.8.15-1.4.71-1.4.41 0 .55.3.55.88V0h.95v-2.9c0-.8.18-1.4.72-1.4.4 0 .57.3.57.88V0h.95v-3.63c0-.92-.28-1.53-1.11-1.53-.63 0-.95.41-1.1.9h-.06c-.1-.52-.44-.9-1.08-.9-.6 0-.93.41-1.06.9H1.6l-.23-.76H.67V0zm0 0"/></symbol><symbol overflow="visible" id="aab15058W"><path d="M5.77-5.02H4.63L2.3-2.88h-.06v-4.26h-.94V0h.94v-2.31h.06L4.71 0h1.24L3.23-2.69zm0 0"/></symbol><symbol overflow="visible" id="aab15058u"><path d="M2.4-2.7l.37-.5-.65-.5-.39.51zm-.15 4.39c1.1 0 2.02-.46 2.1-1.7l.42.01h.17v-.75h-.52c-.06 0-.08 0-.1-.13l-.21-1.8-.67.06c.25 1.95.28 2.23.28 2.39C3.72.55 3.27.92 2.28.92 1.38.92 1.1.58 1.1-.09c0-.35.08-.8.2-1.33l-.65-.06c-.12.51-.2 1-.2 1.43C.44.98.89 1.7 2.25 1.7zm0 0"/></symbol><symbol overflow="visible" id="aab15058v"><path d="M.38 0l1.51-.13v-.42L.38-.42zm0 0"/></symbol><symbol overflow="visible" id="aab15058w"><path d="M0 0h3.42v-.75h-.65l.01-.2c0-.66-.67-1.58-1.9-2.82l2.28-1.06v-.73L.14-4.14v.69c1.3 1.18 1.97 1.97 1.97 2.5 0 .1-.05.2-.4.2H0c-.3 0-.38.13-.38.36 0 .27.08.39.38.39zm0 0"/></symbol><symbol overflow="visible" id="aab15058x"><path d="M.38-4.28l.35-.02v-.97H.38zm0 0"/></symbol><symbol overflow="visible" id="aab15058y"><path d="M.38-4.72l1.51-.12v-.43l-1.51.13zm0 0"/></symbol><symbol overflow="visible" id="aab15058z"><path d="M0 0h.44c1.04 0 1.23-.4 1.23-1.5v-4.06H1v4.23c0 .47 0 .58-.48.58H0c-.3 0-.38.13-.38.36 0 .27.08.39.38.39zm0 0"/></symbol><symbol overflow="visible" id="aab15058A"><path d="M1.08 1.78c1.54 0 2.1-.95 2.1-2.56v-.2c0-1.07-.38-1.94-1.32-1.94-.92 0-1.42.75-1.42 1.64 0 .97.54 1.3 1.51 1.3.18 0 .36-.02.6-.04-.16.79-.75 1.05-1.53 1.05-.16 0-.33 0-.5-.03l.07.73c.16.04.33.05.49.05zm.89-2.5c-.61 0-.94-.12-.94-.6 0-.5.27-.85.75-.85.81 0 .83.95.81 1.33-.01.09-.01.09-.1.1l-.52.02zm0 0"/></symbol><symbol overflow="visible" id="aab15058B"><path d="M.45-5.52l.85-.06c.47-.03.9-.19.9-.81 0-.38-.26-.69-.72-.69-.43 0-.68.3-.68.72 0 .11.01.25.07.4l-.42.02zM1.3-6a.62.62 0 01-.11-.33c0-.22.1-.36.31-.36.22 0 .31.16.31.35 0 .28-.23.32-.44.34zM.9-3.98c.2 0 .35-.07.47-.22.08.06.22.12.36.12.33 0 .6-.33.54-.81l-.05-.38-.36.04.05.4c.01.22-.07.31-.2.31-.07 0-.13-.04-.18-.06.02-.1.02-.14.02-.23v-.4l-.4.04.02.45c0 .08 0 .3-.25.3-.22 0-.19-.17-.17-.25l.1-.47-.4.01c-.01.13-.04.25-.06.38-.1.44.14.77.52.77zm0 0"/></symbol><symbol overflow="visible" id="aab15058C"><path d="M.6 2.25l.68-.05C1.18 1.12 1.12.37 1.1-.2c0-.16 0-.25.14-.27A5.7 5.7 0 003.06 0c.64 0 1-.4 1-1.16 0-1-.58-1.8-1.48-1.8-.74 0-1 .52-1.28 1.27l-.16.5c-.48.06-.7.4-.7.99 0 .45.1 1.54.15 2.45zM3.05-.72c-.33 0-.87-.17-1.15-.26-.18-.05-.18-.05-.05-.4.12-.37.25-.82.73-.82.5 0 .88.45.88 1.04 0 .32-.11.44-.4.44zm0 0"/></symbol><symbol overflow="visible" id="aab15058D"><path d="M.1-6.42l1.5-.11v-.42l-.68.04c-.05 0-.05 0-.08-.03C.83-7 .78-7.08.78-7.17c0-.16.14-.25.4-.25l.18.01v-.43c-.1-.02-.17-.02-.25-.02-.53 0-.77.36-.77.69 0 .1.03.2.07.31l-.32.02zM.51 0h.67v-5.56H.52zm0 0"/></symbol><symbol overflow="visible" id="aab15058E"><path d="M3.55 0h.17v-.75H3.5c-.36 0-.44-.03-.44-.47v-2.64h-.62v.44c-1.25 0-2 .69-2 1.62 0 .74.5 1.1 1.42 1.1.19 0 .39-.02.6-.05.1.53.4.75 1.09.75zM1.89-1.45c-.56 0-.83-.13-.83-.4 0-.5.44-.93 1.38-.96v1.25c0 .1 0 .1-.1.1H1.9zm0 0"/></symbol><symbol overflow="visible" id="aab15058F"><path d="M1.14-5.56l.36-.03v-.96h-.36zM.91-3.98c.18 0 .34-.07.46-.22.08.06.22.12.36.12.33 0 .6-.33.54-.81l-.05-.38-.36.04.05.4c.01.22-.07.31-.2.31-.07 0-.13-.04-.18-.06.02-.1.02-.14.02-.23v-.4l-.4.04.02.45c0 .08 0 .3-.25.3-.22 0-.19-.17-.17-.25l.1-.47-.4.01c-.01.13-.04.25-.06.38-.1.44.14.77.52.77zm0 0"/></symbol><symbol overflow="visible" id="aab15058G"><path d="M0 0h2.23v-.75h-.46c-.1 0-.1 0-.1-.1v-4.71H1v4.7c0 .11 0 .11-.1.11H0c-.3 0-.38.13-.38.36 0 .27.08.39.38.39zm0 0"/></symbol><symbol overflow="visible" id="aab15058H"><path d="M.52 0h.67v-5.56H.52zm0 0"/></symbol></defs><g fill="#fff"><use xlink:href="#aab15058a" x="202.5221" y="145"/><use xlink:href="#aab15058b" x="239.536808" y="147.558824"/><use xlink:href="#aab15058c" x="233.889749" y="145"/><use xlink:href="#aab15058d" x="259.477985" y="129.161764"/><use xlink:href="#aab15058e" x="255.772102" y="132.470588"/><use xlink:href="#aab15058f" x="256.56622" y="144.999998"/><use xlink:href="#aab15058d" x="273.683866" y="144.602939"/><use xlink:href="#aab15058e" x="269.977983" y="147.911762"/><use xlink:href="#aab15058g" x="267.330924" y="144.999998"/><use xlink:href="#aab15058h" x="303.904452" y="144.911763"/><use xlink:href="#aab15058i" x="297.551508" y="144.999998"/><use xlink:href="#aab15058j" x="322.522098" y="144.999998"/><use xlink:href="#aab15058b" x="350.75739" y="145.352939"/><use xlink:href="#aab15058k" x="342.375036" y="144.999998"/><use xlink:href="#aab15058l" x="363.639744" y="132.382352"/><use xlink:href="#aab15058m" x="364.080921" y="144.999998"/><use xlink:href="#aab15058f" x="376.125039" y="144.999998"/><use xlink:href="#aab15058e" x="385.654449" y="132.249998"/><use xlink:href="#aab15058n" x="387.154449" y="144.999998"/><use xlink:href="#aab15058o" x="258.2241" y="252"/><use xlink:href="#aab15058p" x="264.8911" y="252"/><use xlink:href="#aab15058q" x="271.5581" y="252"/><use xlink:href="#aab15058r" x="278.2251" y="252"/><use xlink:href="#aab15058s" x="284.8921" y="252"/><use xlink:href="#aab15058t" x="291.5591" y="252"/><use xlink:href="#aab15058u" x="298.2241" y="252"/><use xlink:href="#aab15058v" x="303.235211" y="253.407407"/><use xlink:href="#aab15058w" x="303.157433" y="252"/><use xlink:href="#aab15058x" x="307.327803" y="249.022222"/><use xlink:href="#aab15058y" x="306.750025" y="250.303703"/><use xlink:href="#aab15058z" x="306.572248" y="251.999999"/><use xlink:href="#aab15058x" x="309.890767" y="251.64074"/><use xlink:href="#aab15058y" x="309.312989" y="252.922221"/><use xlink:href="#aab15058A" x="308.764841" y="251.999999"/><use xlink:href="#aab15058B" x="320.2019" y="252.07037"/><use xlink:href="#aab15058C" x="319.061159" y="252"/><use xlink:href="#aab15058D" x="323.561159" y="252"/><use xlink:href="#aab15058v" x="332.313" y="252.71852"/><g><use xlink:href="#aab15058E" x="331.931518" y="252.000001"/></g><g><use xlink:href="#aab15058F" x="335.638925" y="249.496297"/></g><g><use xlink:href="#aab15058G" x="335.650037" y="252.000001"/><use xlink:href="#aab15058z" x="337.880037" y="252.000001"/></g><g><use xlink:href="#aab15058y" x="339.790778" y="250.303706"/></g><g><use xlink:href="#aab15058H" x="340.072259" y="252.000001"/></g><g><use xlink:href="#aab15058I" x="186.6667" y="266"/><use xlink:href="#aab15058p" x="193.3337" y="266"/><use xlink:href="#aab15058J" x="200.0007" y="266"/><use xlink:href="#aab15058r" x="206.6677" y="266"/><use xlink:href="#aab15058K" x="213.3347" y="266"/><use xlink:href="#aab15058L" x="220.0017" y="266"/><use xlink:href="#aab15058p" x="226.6687" y="266"/><use xlink:href="#aab15058s" x="233.3357" y="266"/><use xlink:href="#aab15058t" x="240.0027" y="266"/><use xlink:href="#aab15058M" x="246.6697" y="266"/><use xlink:href="#aab15058L" x="253.3367" y="266"/><use xlink:href="#aab15058J" x="260.0037" y="266"/><use xlink:href="#aab15058N" x="266.6707" y="266"/><use xlink:href="#aab15058O" x="273.3377" y="266"/><use xlink:href="#aab15058P" x="280.0047" y="266"/><use xlink:href="#aab15058t" x="286.6717" y="266"/><use xlink:href="#aab15058Q" x="293.3387" y="266"/><use xlink:href="#aab15058R" x="300.0057" y="266"/><use xlink:href="#aab15058P" x="306.6727" y="266"/><use xlink:href="#aab15058J" x="313.3397" y="266"/><use xlink:href="#aab15058S" x="320.0067" y="266"/><use xlink:href="#aab15058O" x="326.6737" y="266"/><use xlink:href="#aab15058T" x="333.3407" y="266"/><use xlink:href="#aab15058J" x="340.0077" y="266"/><use xlink:href="#aab15058r" x="346.6747" y="266"/><use xlink:href="#aab15058O" x="353.3417" y="266"/><use xlink:href="#aab15058R" x="360.0087" y="266"/><use xlink:href="#aab15058U" x="366.6757" y="266"/><use xlink:href="#aab15058t" x="373.3427" y="266"/><use xlink:href="#aab15058V" x="380.0097" y="266"/><use xlink:href="#aab15058J" x="386.6767" y="266"/><use xlink:href="#aab15058L" x="393.3437" y="266"/><use xlink:href="#aab15058W" x="400.0107" y="266"/><use xlink:href="#aab15058T" x="406.6777" y="266"/></g></g></svg>