<?xml version='1.0' encoding='UTF-8'?>
<svg xmlns="http://www.w3.org/2000/svg" xmlns:xlink="http://www.w3.org/1999/xlink" width="600px" height="300px" viewBox="0 0 600 300" x="0px" y="0px" enable-background="new 0 0 600 300"><defs><symbol overflow="visible" id="ebf4cda1a"><path d="M3.22-14.6a29.46 29.46 0 013.48 3.97l3.14-2.65a14.48 14.48 0 00-3.53-4.02zm0 0"/></symbol><symbol overflow="visible" id="ebf4cda1b"><path d="M1.67-25.9c3.58 6.52 4.5 10.95 4.5 21.76V0h3.4v-4.81c0-11.33-1.1-15.97-4.95-22.72zm0 0"/></symbol><symbol overflow="visible" id="ebf4cda1c"><path d="M1.67-25.9C5.2-19.62 6.36-14.51 6.36-3.62V0h3.39v-4.33c0-6.87-.58-11.03-1.81-14.42a5.28 5.28 0 003.84 1.81c3 0 5.35-2.6 6.75-10.01l-2.78-.63c-1.5 5.95-2.56 7.42-4.5 7.42-1.45 0-2.78-.89-5.13-4.5l-1.8-2.82zm0 0"/></symbol><symbol overflow="visible" id="ebf4cda1d"><path d="M1.67-25.98c3.49 6.3 4.64 11.34 4.64 22.36V0h3.35v-4.33c0-7.01-.54-10.94-1.68-14.37.9.87 1.9 1.4 2.91 1.4 1.33 0 2.3-1.01 2.73-2.95.63 1.77 1.65 2.47 2.83 2.47 1.9 0 3.63-1.99 4.82-9.34l-2.57-.41C17.7-22.06 17.13-21 16.14-21c-1.02 0-1.62-.97-1.98-5.25h-2.29c-.18 4.81-.84 5.73-2.03 5.73-.89 0-1.95-.75-3.67-3.65l-1.84-3.31zm0 0"/></symbol><symbol overflow="visible" id="ebf4cda1e"><path d="M19.6-16.5l-1.96-1.4a5.63 5.63 0 01-4.67 2.27c-3.22 0-4.81-1.93-4.81-4.45 0-2.6 1.76-4.5 4.23-4.5 1.55 0 2.78.94 3.67 2.83l2.25-1.1c-1.18-3.04-3.26-4.68-5.87-4.68-2.52 0-4.67 1.81-5.64 4.4a34.9 34.9 0 00-2.17-4.4L1.67-25.9c3.58 6.52 4.5 10.94 4.5 21.75V0h3.4v-4.81c0-3.66-.18-6.75-.52-9.44a7.13 7.13 0 004.5 1.55c2.73 0 4.72-1.38 6.04-3.8zm0 0"/></symbol><symbol overflow="visible" id="ebf4cda1f"><path d="M8.03.48c2.03 0 3.4-1.14 4.14-3.7.63 2.52 2.17 3.7 4.2 3.7 2.91 0 5.16-3.26 5.16-8.64 0-6.8-3.89-13.9-11.69-19.46l-1.8 2.65c.65.44 1.23.92 1.8 1.36-4.8 5.17-6.96 10.2-6.96 15.63 0 5.3 2.15 8.46 5.15 8.46zM13.6-9.7h-2.7c-.17 5.15-1.14 6.8-2.6 6.8-1.45 0-2.38-1.87-2.38-5.44 0-4.46 1.76-8.7 6.18-13.32 4.41 4.32 6.4 8.86 6.4 13.24 0 3.6-1.15 5.51-2.43 5.51-1.45 0-2.34-1.64-2.47-6.8zm0 0"/></symbol><symbol overflow="visible" id="ebf4cda1g"><path d="M2.56-.27l3.17.8c4.2-9.1 7.9-13.86 14.57-19.16l-1.86-2.25a45 45 0 00-7.32 6.75c-3.8-1.5-5.43-3.17-5.43-5.37 0-2.3 2.03-4.94 4.5-4.94 1.54 0 2.87.66 4.5 2.52l1.9-1.72c-1.9-2.66-4.15-3.9-6.53-3.9-3.97 0-7.42 3.93-7.42 8.09 0 3.34 2.34 5.95 6.48 7.84A62.33 62.33 0 002.57-.27zm0 0"/></symbol><symbol overflow="visible" id="ebf4cda1h"><path d="M3.83 0v-5.95H6.2v-.82H.45v.82h2.4V0zm0 0"/></symbol><symbol overflow="visible" id="ebf4cda1i"><path d="M5.75-2.23v-.43c0-1.6-.9-2.51-2.42-2.51S.87-4.16.87-2.48c0 1.71.91 2.62 2.5 2.62 1.43 0 2.07-.56 2.29-1.52l-.9-.09c-.18.61-.59.9-1.35.9-.94 0-1.52-.54-1.58-1.66zm-2.4-2.2c.93 0 1.43.5 1.48 1.55H1.84c.08-1.07.6-1.56 1.5-1.56zm0 0"/></symbol><symbol overflow="visible" id="ebf4cda1j"><path d="M1.83 0l1.42-2h.06l1.46 2H5.8L4-2.53l1.78-2.49H4.8L3.42-3.08h-.08l-1.4-1.94H.89l1.78 2.49L.84 0zm0 0"/></symbol><symbol overflow="visible" id="ebf4cda1k"><path d="M5.52-4.25v-.77H3.17v-1.56h-.81l-.14 1.56H.75v.77h1.47v2.4c0 1.3.48 1.94 1.84 1.94C4.6.1 5.14 0 5.55-.14L5.4-.91c-.32.13-.72.2-1.13.2-.8 0-1.1-.37-1.1-1.23v-2.31zm0 0"/></symbol><symbol overflow="visible" id="ebf4cda1l"><path d="M3.33-3.42c.47 0 .8-.27.8-.8 0-.51-.33-.8-.8-.8-.47 0-.8.29-.8.8 0 .53.33.8.8.8zm0 3.5c.47 0 .8-.27.8-.78 0-.53-.33-.82-.8-.82-.47 0-.8.29-.8.82 0 .51.33.78.8.78zm0 0"/></symbol><symbol overflow="visible" id="ebf4cda1u"><path d="M5.95-6.77H1.1V0h.99v-2.92H5.3v-.77H2.08v-2.26h3.87zm0 0"/></symbol><symbol overflow="visible" id="ebf4cda1v"><path d="M2.83.14c.94 0 1.5-.39 1.81-.95h.08l.1.81h.76v-3.38c0-1.23-.69-1.8-2.13-1.8-1.43 0-2.03.65-2.18 1.6l.93.1c.11-.6.44-.93 1.22-.93.85 0 1.22.32 1.22 1.04v.34l-1.81.2C1.6-2.7 1.1-2.17 1.1-1.28c0 .92.64 1.42 1.72 1.42zm.25-.77c-.67 0-1.02-.28-1.02-.74 0-.44.28-.72 1-.82l1.58-.19v.41c0 .8-.6 1.34-1.56 1.34zm0 0"/></symbol><symbol overflow="visible" id="ebf4cda1w"><path d="M2.73.14c.9 0 1.43-.45 1.74-1.08h.06l.13.94h.8v-5.02h-.94v2.7c0 .98-.57 1.62-1.46 1.62-.75 0-1.1-.4-1.1-1.22v-3.1h-.93v3.32c0 1.17.55 1.84 1.7 1.84zm0 0"/></symbol><symbol overflow="visible" id="ebf4cda1x"><path d="M5.08-5.16c-.94 0-1.58.43-1.9 1.3h-.09l-.07-1.16H1.05v.77h1.1v3.48H.96V0h3.96v-.77H3.1v-1.46c0-1.36.6-2.05 1.83-2.05.4 0 .76.08 1.1.17l.15-.87c-.33-.11-.7-.18-1.11-.18zm0 0"/></symbol><symbol overflow="visible" id="ebf4cda1y"><path d="M.92-6.77V0h.99v-2.27h1.68c1.58 0 2.38-.65 2.38-2.2v-.14c0-1.51-.8-2.16-2.34-2.16zM5-4.47c0 1.05-.42 1.45-1.58 1.45H1.91v-2.96h1.51C4.58-5.98 5-5.66 5-4.61zm0 0"/></symbol><symbol overflow="visible" id="ebf4cda1z"><path d="M3.36.16c1.4 0 2.2-.6 2.2-1.57 0-.89-.54-1.22-1.47-1.39L3-3c-.67-.14-.86-.33-.86-.73 0-.5.4-.74 1.17-.74.83 0 1.19.27 1.27.8l.9-.05c-.12-1-.8-1.47-2.17-1.47-1.34 0-2.1.53-2.1 1.5 0 .81.45 1.22 1.52 1.44l1.04.2c.56.11.87.24.87.72 0 .52-.45.78-1.28.78-.95 0-1.36-.28-1.42-.87l-.9.06C1.07-.36 1.8.16 3.35.16zm0 0"/></symbol><symbol overflow="visible" id="ebf4cda1A"><path d="M3.58-5.81c.42 0 .72-.22.72-.67 0-.44-.3-.68-.72-.68-.44 0-.72.24-.72.68 0 .45.28.67.72.67zm.5.8H1.52v.76h1.6v3.48h-1.8V0h4.46v-.77h-1.7zm0 0"/></symbol><symbol overflow="visible" id="ebf4cda1B"><path d="M2.16 0v-2.67c0-.99.59-1.63 1.46-1.63.74 0 1.07.38 1.07 1.22V0h.95v-3.31c0-1.2-.56-1.85-1.67-1.85-.92 0-1.49.46-1.77 1.08h-.06l-.12-.94H1.2V0zm0 0"/></symbol><symbol overflow="visible" id="ebf4cda1C"><path d="M1.63 0v-2.9c0-.8.15-1.4.71-1.4.41 0 .55.3.55.88V0h.95v-2.9c0-.8.18-1.4.72-1.4.4 0 .57.3.57.88V0h.95v-3.63c0-.92-.28-1.53-1.11-1.53-.63 0-.95.41-1.1.9h-.06c-.1-.52-.44-.9-1.08-.9-.6 0-.93.41-1.06.9H1.6l-.23-.76H.67V0zm0 0"/></symbol><symbol overflow="visible" id="ebf4cda1D"><path d="M3.92-7.14H1.36v.76h1.6v5.61H1.15V0H5.7v-.77H3.92zm0 0"/></symbol><symbol overflow="visible" id="ebf4cda1E"><path d="M1.45-2.95c0 2.56 1.08 4.37 3.67 4.84l.11-.67C3.28.86 2.43-.75 2.43-2.95s.85-3.82 2.8-4.16l-.1-.69c-2.6.49-3.68 2.3-3.68 4.85zm0 0"/></symbol><symbol overflow="visible" id="ebf4cda1F"><path d="M2.84.14C3.8.14 4.33-.26 4.6-.9h.07L4.8 0h.76v-7.14h-.95v2.95h-.08c-.28-.6-.86-.97-1.67-.97-1.48 0-2.27.99-2.27 2.64C.6-.84 1.36.14 2.84.14zm.22-.8c-.98 0-1.48-.59-1.48-1.84s.5-1.86 1.48-1.86c1.13 0 1.58.8 1.58 1.86S4.2-.66 3.06-.66zm0 0"/></symbol><symbol overflow="visible" id="ebf4cda1G"><path d="M4.63-6.5c.45 0 .98.08 1.39.2l.2-.72a5.3 5.3 0 00-1.64-.26c-1.52 0-2.16.56-2.16 1.87v.4H.9v.76h1.53V0h.94v-4.25h2.53v-.77H3.36v-.3c0-.84.33-1.18 1.27-1.18zm0 0"/></symbol><symbol overflow="visible" id="ebf4cda1H"><path d="M1.45-7.1c1.96.33 2.8 1.94 2.8 4.15 0 2.2-.84 3.8-2.8 4.17l.11.67c2.58-.47 3.67-2.28 3.67-4.84 0-2.55-1.09-4.36-3.67-4.85zm0 0"/></symbol><symbol overflow="visible" id="ebf4cda1n"><path d="M1.38-1.45l.68-.68L1.2-3l-.67.67zm0 0"/></symbol><symbol overflow="visible" id="ebf4cda1o"><path d="M1.14 0h.66c0-2.92-.1-3.38-.57-5.03L.52-5c.53 1.6.62 1.97.62 5zm0 0"/></symbol><symbol overflow="visible" id="ebf4cda1p"><path d="M1.14 0h.66c0-1.28-.02-2.08-.08-2.72.2.06.42.1.6.1 1 0 1.46-.66 1.46-1.77 0-.2-.01-.42-.05-.64l-.65.06c.03.25.04.45.04.63 0 .65-.21.96-.8.96-.52 0-.68-.09-.84-.75l-.25-.9L.52-5c.53 1.6.62 1.97.62 5zm0 0"/></symbol><symbol overflow="visible" id="ebf4cda1q"><path d="M1.14 0h.66c0-1.28-.02-2.08-.08-2.72.2.06.42.1.6.1.26 0 .48-.07.66-.2.24.12.63.2.82.2.84 0 1.22-.66 1.22-1.77 0-.19-.02-.42-.04-.64l-.6.06.01.47c0 .77-.14 1.13-.6 1.13-.15 0-.27-.02-.37-.05.1-.27.14-.58.14-.97 0-.2-.01-.42-.04-.64l-.66.06c.02.25.05.45.05.63 0 .65-.18.96-.6.96-.51 0-.67-.09-.83-.75l-.25-.9L.52-5c.53 1.6.62 1.97.62 5zm0 0"/></symbol><symbol overflow="visible" id="ebf4cda1r"><path d="M1.14 0h.66c0-.92-.02-1.6-.03-2.16.21.04.45.05.71.05.66 0 1.43-.08 2.29-.25L4.84-3c-.53.13-1.32.19-1.56.2-.08 0-.08 0-.12-.06-.1-.14-.32-.48-.32-.86 0-.45.29-.64.7-.64.21 0 .48.06.74.16l.17-.64a2.7 2.7 0 00-.93-.2c-.77 0-1.32.46-1.32 1.35 0 .3.08.64.24.9-.24 0-.47 0-.66-.04-.06 0-.06 0-.08-.1a11.9 11.9 0 00-.47-2.1L.52-5c.53 1.6.62 1.97.62 5zm0 0"/></symbol><symbol overflow="visible" id="ebf4cda1s"><path d="M1.72 0c.25 0 .58-.03.81-.22.3.19.58.22.81.22.52 0 1.18-.27 1.18-1.4 0-1.16-.85-2.23-2.57-3.68l-.47.52.36.33C1-3.2.52-2.43.52-1.43.52-.35 1.08 0 1.72 0zm0-.75c-.36 0-.56-.19-.56-.69 0-.72.3-1.36 1.2-2.37 1.22 1.04 1.5 1.87 1.5 2.42 0 .45-.11.64-.5.64-.5 0-.5-.1-.5-.5v-.36H2.2v.36c0 .4 0 .5-.48.5zm0 0"/></symbol><symbol overflow="visible" id="ebf4cda1t"><path d="M.52 0h.87a5.44 5.44 0 012.95-2.6l.08-.8-1.19.52c-.28.15-.48.16-.71.04a.88.88 0 01-.47-.75c0-.5.34-.74.9-.74a3 3 0 01.77.11l.08-.69a3.1 3.1 0 00-.9-.14c-.88 0-1.54.49-1.54 1.49 0 .58.33 1.12.81 1.4C1.72-1.75 1.13-1 .52 0zm0 0"/></symbol></defs><g fill="#fff"><use xlink:href="#ebf4cda1a" x="233.0294" y="145"/><use xlink:href="#ebf4cda1b" x="246.0854" y="145"/><use xlink:href="#ebf4cda1c" x="258.9614" y="145"/><use xlink:href="#ebf4cda1d" x="279.2774" y="145"/><use xlink:href="#ebf4cda1e" x="301.4534" y="145"/><use xlink:href="#ebf4cda1f" x="321.4094" y="145"/><use xlink:href="#ebf4cda1g" x="345.2054" y="145"/><use xlink:href="#ebf4cda1h" x="265.3222" y="252"/><use xlink:href="#ebf4cda1i" x="271.9892" y="252"/><use xlink:href="#ebf4cda1j" x="278.6562" y="252"/><use xlink:href="#ebf4cda1k" x="285.3232" y="252"/><use xlink:href="#ebf4cda1l" x="291.9902" y="252"/><use xlink:href="#ebf4cda1m" x="298.6572" y="252"/><g><use xlink:href="#ebf4cda1n" x="305.3222" y="252"/></g><g><use xlink:href="#ebf4cda1o" x="307.9" y="252"/><use xlink:href="#ebf4cda1p" x="310.219" y="252"/><use xlink:href="#ebf4cda1q" x="314.518" y="252"/><use xlink:href="#ebf4cda1r" x="320.057" y="252"/></g><g><use xlink:href="#ebf4cda1s" x="325.126" y="252"/></g><g><use xlink:href="#ebf4cda1t" x="329.745" y="252"/></g><g><use xlink:href="#ebf4cda1u" x="183.3333" y="266"/><use xlink:href="#ebf4cda1i" x="190.0003" y="266"/><use xlink:href="#ebf4cda1v" x="196.6673" y="266"/><use xlink:href="#ebf4cda1k" x="203.3343" y="266"/><use xlink:href="#ebf4cda1w" x="210.0013" y="266"/><use xlink:href="#ebf4cda1x" x="216.6683" y="266"/><use xlink:href="#ebf4cda1i" x="223.3353" y="266"/><use xlink:href="#ebf4cda1l" x="230.0023" y="266"/><use xlink:href="#ebf4cda1m" x="236.6693" y="266"/><use xlink:href="#ebf4cda1y" x="243.3363" y="266"/><use xlink:href="#ebf4cda1i" x="250.0033" y="266"/><use xlink:href="#ebf4cda1x" x="256.6703" y="266"/><use xlink:href="#ebf4cda1z" x="263.3373" y="266"/><use xlink:href="#ebf4cda1A" x="270.0043" y="266"/><use xlink:href="#ebf4cda1v" x="276.6713" y="266"/><use xlink:href="#ebf4cda1B" x="283.3383" y="266"/><use xlink:href="#ebf4cda1m" x="290.0053" y="266"/><use xlink:href="#ebf4cda1B" x="296.6723" y="266"/><use xlink:href="#ebf4cda1w" x="303.3393" y="266"/><use xlink:href="#ebf4cda1C" x="310.0063" y="266"/><use xlink:href="#ebf4cda1i" x="316.6733" y="266"/><use xlink:href="#ebf4cda1x" x="323.3403" y="266"/><use xlink:href="#ebf4cda1v" x="330.0073" y="266"/><use xlink:href="#ebf4cda1D" x="336.6743" y="266"/><use xlink:href="#ebf4cda1z" x="343.3413" y="266"/><use xlink:href="#ebf4cda1m" x="350.0083" y="266"/><use xlink:href="#ebf4cda1E" x="356.6753" y="266"/><use xlink:href="#ebf4cda1F" x="363.3423" y="266"/><use xlink:href="#ebf4cda1i" x="370.0093" y="266"/><use xlink:href="#ebf4cda1G" x="376.6763" y="266"/><use xlink:href="#ebf4cda1v" x="383.3433" y="266"/><use xlink:href="#ebf4cda1w" x="390.0103" y="266"/><use xlink:href="#ebf4cda1D" x="396.6773" y="266"/><use xlink:href="#ebf4cda1k" x="403.3443" y="266"/><use xlink:href="#ebf4cda1H" x="410.0113" y="266"/></g></g></svg>