<?xml version='1.0' encoding='UTF-8'?>
<svg xmlns="http://www.w3.org/2000/svg" xmlns:xlink="http://www.w3.org/1999/xlink" width="300px" height="900px" viewBox="0 0 300 900" x="0px" y="0px" enable-background="new 0 0 300 900"><defs><symbol overflow="visible" id="0f063cb7a"><path d="M3.5-4.9c-.48 1.23-.86 3-.86 4.7 0 4.83 2.42 6.83 7.81 6.83 5.74 0 7.85-2.07 7.85-7.7 0-.29 0-.62-.03-.91C19.72-.47 20.75 0 21.94 0c1.25 0 2.15-.66 2.93-2.28C26.2-.66 27.48 0 28.66 0c1.18 0 2.25-.66 2.9-2.55C32.63-.73 34.08 0 35.76 0h.57c.33 0 .6-.2.6-.53s-.3-.53-.63-.53h-.42c-1.6 0-2.93-.63-3.99-2.75.05-.13.05-.22.08-.36l.66-3.61-.8-.13-.63 3.14c-.53 2.7-1.3 3.7-2.64 3.7-1 0-2.1-.5-3.28-2.07l.2-.5 1.46-3.9-.77-.33-1.39 3.57c-1.03 2.61-1.62 3.24-2.84 3.24-1.13 0-2.02-.42-3.82-2.38-.25-1.6-.71-3.14-1.45-4.6l-.8.37c1.1 2.58 1.5 4.17 1.5 6.6 0 4.95-1.75 6.6-6.92 6.6-5.03 0-6.87-1.66-6.87-5.83 0-1.65.3-3.08.72-4.33zm0 0"/></symbol><symbol overflow="visible" id="0f063cb7b"><path d="M3.67-15.06l1.03-1.38c-.4-.4-1.1-.9-1.62-1.17l-1 1.42c.5.32 1.12.77 1.6 1.13zm1.13 2.98l-.86.36a15.87 15.87 0 011.51 6.45C5.45-2.28 4-1.07.8-1.07H0c-.4 0-.66.21-.66.54 0 .33.27.53.66.53h1.06C4.3 0 6.4-1.56 6.4-5.42c0-2.46-.8-5-1.6-6.66zm0 0"/></symbol><symbol overflow="visible" id="0f063cb7c"><path d="M2.48-23.5v18.8c0 3.08 1.49 4.7 4.3 4.7h.92c.35 0 .64-.2.64-.53s-.34-.53-.67-.53h-.8c-2.46 0-3.46-1.25-3.46-3.9V-23.7zm0 0"/></symbol><symbol overflow="visible" id="0f063cb7d"><path d="M-.66-.53c0 .33.27.53.66.53h3.97c.4 0 .65-.2.65-.53s-.25-.53-.65-.53H0c-.4 0-.66.2-.66.53zm0 0"/></symbol><symbol overflow="visible" id="0f063cb7e"><path d="M6.1-7.08L4.72-4.1C3.67-1.78 2.72-1.06.1-1.06h-.12c-.4 0-.63.17-.63.56 0 .38.2.5.63.5h.3c2.07 0 3.46-.56 4.59-2.45C6.39-.6 7.67 0 9 0c1.16 0 2.02-.47 2.75-1.86C13.38-.56 14.89 0 16.22 0c1.87 0 3.08-1.3 3.08-4.2 0-1.9-.47-3.64-1.33-5.57l-.86.38c.8 1.81 1.25 3.47 1.25 5.22 0 2.04-.69 3.1-2.28 3.1-1.13 0-2.31-.38-3.97-1.62.2-.45.39-1.04.6-1.72l.88-3.03-.82-.23-.83 2.73c-.92 3.13-1.58 3.88-3 3.88-1.1 0-2.1-.46-3.61-2.22.03-.1.1-.22.12-.33l1.36-3.1zm0 0"/></symbol><symbol overflow="visible" id="0f063cb7g"><path d="M8.31-9.2l-.9.3c1 2.8 1.53 6.35 1.53 8.67 0 4.43-1.72 6.51-4.83 6.51a7.41 7.41 0 01-3.08-.66l-.37.77c.93.53 2.39.9 3.67.9 3.45 0 5.6-2.52 5.6-7.62 0-2.6-.6-6.19-1.62-8.87zm0 0"/></symbol><symbol overflow="visible" id="0f063cb7h"><path d="M17.73-23.69l-.92.19v16.19c0 4.93-1.8 6.25-7.18 6.25H1.97L2.13 0h8c5.68 0 7.6-2.25 7.6-6.66zM4.6-20.6l-.86.48 8.88 15.66h.23l.54-.39zm0 0"/></symbol><symbol overflow="visible" id="0f063cb7i"><path d="M1.33 6.4c.95.52 2.51.88 3.73.88 3.97 0 6.58-2.51 6.58-7.28h1.06c.4 0 .68-.2.68-.53s-.27-.53-.68-.53h-1.1C11.43-6.48 9.54-9.5 6.43-9.5a4.54 4.54 0 00-4.44 4.6c0 3.3 2.08 4.87 8.7 4.87-.02 4.23-2.18 6.31-5.95 6.31-.92 0-2.09-.22-3.04-.66zm9.39-7.46L9.23-1.1c-5-.13-6.32-1.33-6.32-3.8C2.9-6.92 4.5-8.5 6.39-8.5c2.34 0 4.06 2.25 4.33 7.44zm0 0"/></symbol><symbol overflow="visible" id="0f063cb7j"><path d="M-.66-.53c0 .33.33.53.66.53 5.75 0 8-1.6 8-3.9 0-.54-.06-.96-.25-1.46C11.22-1.09 13.53 0 16.35 0c.5 0 .65-.23.65-.53 0-.3-.16-.53-.66-.53-2.67 0-4.46-.86-8.34-5.19L1.52-13.5l9.76-9.69-.83-.5L.65-14v1L5.3-7.81C6.55-6.4 7.08-5.36 7.08-4.14c0 1.98-1.92 3.08-7.08 3.08-.33 0-.66.2-.66.53zm0 0"/></symbol><symbol overflow="visible" id="0f063cb7k"><path d="M3.42.14c1.61 0 2.56-.75 2.56-2 0-1.1-.67-1.6-1.95-1.86l-.97-.2c-.87-.17-1.23-.49-1.23-1.11 0-.7.54-1.11 1.5-1.11 1.06 0 1.51.34 1.69 1.23l.9-.09c-.17-1.28-.98-1.9-2.6-1.9C1.79-6.9.9-6.18.9-4.98c0 1.06.66 1.66 1.88 1.9l1.01.2c.85.17 1.25.4 1.25 1.09 0 .73-.6 1.16-1.6 1.16-1.07 0-1.66-.4-1.8-1.24l-.94.1C.83-.53 1.75.13 3.42.13zm0 0"/></symbol><symbol overflow="visible" id="0f063cb7l"><path d="M5.77-5.02H4.63L2.3-2.88h-.06v-4.26h-.94V0h.94v-2.31h.06L4.71 0h1.24L3.23-2.69zm0 0"/></symbol><symbol overflow="visible" id="0f063cb7m"><path d="M3.33.14c1.62 0 2.5-.95 2.5-2.66 0-1.68-.88-2.64-2.5-2.64-1.63 0-2.5.96-2.5 2.64 0 1.7.87 2.66 2.5 2.66zm0-.77c-1.06 0-1.52-.6-1.52-1.89 0-1.28.46-1.87 1.52-1.87 1.08 0 1.53.6 1.53 1.87 0 1.29-.45 1.9-1.53 1.9zm0 0"/></symbol><symbol overflow="visible" id="0f063cb7n"><path d="M3.92-7.14H1.36v.76h1.6v5.61H1.15V0H5.7v-.77H3.92zm0 0"/></symbol><symbol overflow="visible" id="0f063cb7o"><path d="M2.83.14c.94 0 1.5-.39 1.81-.95h.08l.1.81h.76v-3.38c0-1.23-.69-1.8-2.13-1.8-1.43 0-2.03.65-2.18 1.6l.93.1c.11-.6.44-.93 1.22-.93.85 0 1.22.32 1.22 1.04v.34l-1.81.2C1.6-2.7 1.1-2.17 1.1-1.28c0 .92.64 1.42 1.72 1.42zm.25-.77c-.67 0-1.02-.28-1.02-.74 0-.44.28-.72 1-.82l1.58-.19v.41c0 .8-.6 1.34-1.56 1.34zm0 0"/></symbol><symbol overflow="visible" id="0f063cb7p"><path d="M5.08-5.16c-.94 0-1.58.43-1.9 1.3h-.09l-.07-1.16H1.05v.77h1.1v3.48H.96V0h3.96v-.77H3.1v-1.46c0-1.36.6-2.05 1.83-2.05.4 0 .76.08 1.1.17l.15-.87c-.33-.11-.7-.18-1.11-.18zm0 0"/></symbol><symbol overflow="visible" id="0f063cb7r"><path d="M2.16 0v-2.67c0-.99.59-1.63 1.46-1.63.74 0 1.07.38 1.07 1.22V0h.95v-3.31c0-1.2-.56-1.85-1.67-1.85-.92 0-1.49.46-1.77 1.08h-.06l-.12-.94H1.2V0zm0 0"/></symbol><symbol overflow="visible" id="0f063cb7s"><path d="M3.36.16c1.4 0 2.2-.6 2.2-1.57 0-.89-.54-1.22-1.47-1.39L3-3c-.67-.14-.86-.33-.86-.73 0-.5.4-.74 1.17-.74.83 0 1.19.27 1.27.8l.9-.05c-.12-1-.8-1.47-2.17-1.47-1.34 0-2.1.53-2.1 1.5 0 .81.45 1.22 1.52 1.44l1.04.2c.56.11.87.24.87.72 0 .52-.45.78-1.28.78-.95 0-1.36-.28-1.42-.87l-.9.06C1.07-.36 1.8.16 3.35.16zm0 0"/></symbol><symbol overflow="visible" id="0f063cb7t"><path d="M6.17 0L3.98-6.77h-1.3L.5 0h.97l.44-1.47h2.78L5.16 0zM3.28-5.94h.08l1.1 3.74H2.15zm0 0"/></symbol><symbol overflow="visible" id="0f063cb7u"><path d="M3.9.14c1.48 0 2.18-.98 2.18-2.64 0-1.67-.7-2.66-2.17-2.66-.91 0-1.49.41-1.79 1h-.06v-2.98h-.95V0h.81l.11-.9h.06c.29.63.82 1.04 1.82 1.04zm-.32-.8c-1.08 0-1.55-.8-1.55-1.84 0-1.06.47-1.86 1.55-1.86 1.1 0 1.51.61 1.51 1.86S4.64-.66 3.58-.66zm0 0"/></symbol><symbol overflow="visible" id="0f063cb7v"><path d="M3.58-5.81c.42 0 .72-.22.72-.67 0-.44-.3-.68-.72-.68-.44 0-.72.24-.72.68 0 .45.28.67.72.67zm.5.8H1.52v.76h1.6v3.48h-1.8V0h4.46v-.77h-1.7zm0 0"/></symbol><symbol overflow="visible" id="0f063cb7w"><path d="M3.34.14c1.43 0 2.13-.66 2.25-1.78l-.89-.1c-.1.7-.5 1.08-1.34 1.08-1.03 0-1.52-.64-1.52-1.84 0-1.23.47-1.86 1.52-1.86.84 0 1.23.36 1.34 1.08l.9-.1c-.13-1.09-.82-1.78-2.26-1.78-1.56 0-2.46.97-2.46 2.66 0 1.66.9 2.64 2.46 2.64zm0 0"/></symbol><symbol overflow="visible" id="0f063cb7x"><path d="M3.83 0v-5.95H6.2v-.82H.45v.82h2.4V0zm0 0"/></symbol><symbol overflow="visible" id="0f063cb7y"><path d="M2.16 0v-2.69c0-.98.6-1.6 1.46-1.6.74 0 1.07.4 1.07 1.2V0h.95v-3.31c0-1.17-.56-1.85-1.67-1.85-.9 0-1.44.46-1.75 1.08h-.06v-3.06H1.2V0zm0 0"/></symbol><symbol overflow="visible" id="0f063cb7J"><path d="M5.92-6.77H1.1V0h4.83v-.8H2.06v-2.26h3.22v-.75H2.06v-2.16h3.86zm0 0"/></symbol><symbol overflow="visible" id="0f063cb7K"><path d="M1.83 0l1.42-2h.06l1.46 2H5.8L4-2.53l1.78-2.49H4.8L3.42-3.08h-.08l-1.4-1.94H.89l1.78 2.49L.84 0zm0 0"/></symbol><symbol overflow="visible" id="0f063cb7L"><path d="M5.52-4.25v-.77H3.17v-1.56h-.81l-.14 1.56H.75v.77h1.47v2.4c0 1.3.48 1.94 1.84 1.94C4.6.1 5.14 0 5.55-.14L5.4-.91c-.32.13-.72.2-1.13.2-.8 0-1.1-.37-1.1-1.23v-2.31zm0 0"/></symbol><symbol overflow="visible" id="0f063cb7M"><path d="M3.16 2.03c1.67 0 2.4-.86 2.4-2.51v-4.54h-.81l-.13.91h-.06c-.26-.58-.8-1.05-1.73-1.05-1.42 0-2.24 1-2.24 2.52 0 1.6.75 2.56 2.2 2.56.94 0 1.5-.5 1.77-1.03h.05v.72c0 1.17-.42 1.67-1.45 1.67-.93 0-1.3-.34-1.41-.89L.8.5c.12.96.87 1.54 2.36 1.54zM3.06-.8c-.98 0-1.48-.57-1.48-1.82 0-1.13.5-1.75 1.48-1.75 1.06 0 1.58.76 1.58 1.75 0 .95-.56 1.82-1.58 1.82zm0 0"/></symbol><symbol overflow="visible" id="0f063cb7X"><path d="M2.08-6.77h-.99V0h4.79v-.81h-3.8zm0 0"/></symbol><symbol overflow="visible" id="0f063cb7ai"><path d="M4.06-2.77c1.25-.04 1.92-.7 1.92-1.96 0-1.36-.7-2.04-2.17-2.04H.92V0h.97v-2.73h1.08L4.95 0h1.1zM1.9-6h1.7c1.07 0 1.46.34 1.46 1.28 0 .9-.44 1.27-1.47 1.27H1.89zm0 0"/></symbol><symbol overflow="visible" id="0f063cb7aj"><path d="M5.75-2.23v-.43c0-1.6-.9-2.51-2.42-2.51S.87-4.16.87-2.48c0 1.71.91 2.62 2.5 2.62 1.43 0 2.07-.56 2.29-1.52l-.9-.09c-.18.61-.59.9-1.35.9-.94 0-1.52-.54-1.58-1.66zm-2.4-2.2c.93 0 1.43.5 1.48 1.55H1.84c.08-1.07.6-1.56 1.5-1.56zm0 0"/></symbol><symbol overflow="visible" id="0f063cb7ak"><path d="M2.73.14c.9 0 1.43-.45 1.74-1.08h.06l.13.94h.8v-5.02h-.94v2.7c0 .98-.57 1.62-1.46 1.62-.75 0-1.1-.4-1.1-1.22v-3.1h-.93v3.32c0 1.17.55 1.84 1.7 1.84zm0 0"/></symbol><symbol overflow="visible" id="0f063cb7au"><path d="M1.64 0v-3.17l-.16-2.5h.1L2.9-1.83h.82l1.35-3.84h.1l-.16 2.5V0h.95v-6.77h-1.3l-1.3 3.82h-.09L2-6.77H.69V0zm0 0"/></symbol><symbol overflow="visible" id="0f063cb7av"><path d="M2.84.14C3.8.14 4.33-.26 4.6-.9h.07L4.8 0h.76v-7.14h-.95v2.95h-.08c-.28-.6-.86-.97-1.67-.97-1.48 0-2.27.99-2.27 2.64C.6-.84 1.36.14 2.84.14zm.22-.8c-.98 0-1.48-.59-1.48-1.84s.5-1.86 1.48-1.86c1.13 0 1.58.8 1.58 1.86S4.2-.66 3.06-.66zm0 0"/></symbol><symbol overflow="visible" id="0f063cb7aw"><path d="M1.63 0v-2.9c0-.8.15-1.4.71-1.4.41 0 .55.3.55.88V0h.95v-2.9c0-.8.18-1.4.72-1.4.4 0 .57.3.57.88V0h.95v-3.63c0-.92-.28-1.53-1.11-1.53-.63 0-.95.41-1.1.9h-.06c-.1-.52-.44-.9-1.08-.9-.6 0-.93.41-1.06.9H1.6l-.23-.76H.67V0zm0 0"/></symbol><symbol overflow="visible" id="0f063cb7aR"><path d="M4.66-3.45c.76-.14 1.15-.67 1.15-1.57 0-1.07-.64-1.75-2.18-1.75H.92V0h2.71C5.2 0 5.98-.64 5.98-1.77c0-1.03-.56-1.43-1.32-1.59zM3.56-6c.9 0 1.31.4 1.31 1.13 0 .71-.4 1.14-1.3 1.14h-1.7V-6zM1.87-.75v-2.27H3.6c.97 0 1.44.33 1.44 1.13 0 .8-.47 1.14-1.44 1.14zm0 0"/></symbol><symbol overflow="visible" id="0f063cb7z"><path d="M3.38-5.3a13.53 13.53 0 00-.96 4.97c0 4.96 2.55 7.08 8.2 7.08 5.93 0 8.24-2.19 8.24-8.08 0-.1 0-.23-.03-.33C20.16-.44 21.14 0 22.33 0c1.23 0 2.12-.63 2.95-2.16C26.61-.62 27.92 0 29.16 0c1.28 0 2.34-.66 3-2.48A4.74 4.74 0 0036.44 0H37c.4 0 .69-.3.69-.8 0-.53-.33-.82-.74-.82h-.39c-1.56 0-2.84-.6-3.9-2.61l.03-.1.73-3.87-1.23-.27-.69 3.24c-.53 2.62-1.19 3.6-2.48 3.6-.93 0-1.96-.45-3.11-1.87.03-.1.06-.23.14-.34l1.48-4.07-1.19-.5-1.39 3.68c-1 2.51-1.53 3.1-2.68 3.1-1.07 0-1.93-.39-3.61-2.18a17.4 17.4 0 00-1.4-4.6l-1.3.47c1 2.52 1.45 4.24 1.45 6.61 0 4.88-1.72 6.49-6.79 6.49-4.93 0-6.74-1.58-6.74-5.72 0-1.66.3-3.08.75-4.38zm0 0"/></symbol><symbol overflow="visible" id="0f063cb7A"><path d="M3.9-15.25l1.23-1.69a8.69 8.69 0 00-1.96-1.39L1.98-16.6c.6.33 1.36.9 1.93 1.36zm1.26 2.78l-1.35.49c.9 2.06 1.49 4.23 1.49 6.36 0 2.8-1.36 4-4.53 4H0c-.47 0-.73.32-.73.8 0 .5.26.82.73.82h1.06C4.5 0 6.75-1.72 6.75-5.75c0-2.42-.8-5-1.6-6.72zm0 0"/></symbol><symbol overflow="visible" id="0f063cb7B"><path d="M2.38-23.63l.04 18.44C2.42-1.69 4 0 7.02 0h.95c.37 0 .7-.3.7-.8 0-.53-.36-.82-.73-.82h-.75c-2.4 0-3.35-1.2-3.35-3.83V-23.9zm0 0"/></symbol><symbol overflow="visible" id="0f063cb7C"><path d="M-.73-.8c0 .5.3.8.73.8h4.03c.47 0 .77-.3.77-.8 0-.53-.3-.82-.77-.82H0c-.44 0-.73.3-.73.82zm0 0"/></symbol><symbol overflow="visible" id="0f063cb7D"><path d="M6.02-7.64L4.59-4.56C3.58-2.31 2.64-1.63.13-1.63h-.16c-.44 0-.7.27-.7.86 0 .54.23.77.7.77H.3C2.45 0 3.84-.56 5-2.42 6.55-.6 7.88 0 9.2 0c1.2 0 2.05-.47 2.78-1.81C13.62-.56 15.16 0 16.55 0c2.01 0 3.4-1.45 3.4-4.63 0-2-.47-3.84-1.3-5.76l-1.34.47a13.44 13.44 0 011.25 5.33c0 2.01-.68 2.96-2.22 2.96-1.06 0-2.21-.35-3.76-1.48.15-.44.33-.92.48-1.45l.97-3.28-1.22-.36-.9 2.87c-.9 2.99-1.52 3.7-2.85 3.7-1.01 0-1.95-.42-3.4-2.04l.06-.14 1.47-3.27zm0 0"/></symbol><symbol overflow="visible" id="0f063cb7F"><path d="M8.67-9.56l-1.36.36c.96 2.8 1.52 6.3 1.52 8.76 0 4.32-1.69 6.3-4.77 6.3a7.9 7.9 0 01-3.03-.63L.56 6.4c.96.53 2.46.92 3.88.92 3.6 0 5.86-2.54 5.86-7.84 0-2.81-.61-6.34-1.63-9.03zm0 0"/></symbol><symbol overflow="visible" id="0f063cb7G"><path d="M17.97-23.9l-1.42.27.03 15.79c0 4.86-1.75 6.21-7.38 6.21H1.78L2.02 0h7.8c6.05 0 8.15-2.45 8.15-7.14zM4.86-21.04l-1.36.74L12.1-4.8h.37l.86-.53zm0 0"/></symbol><symbol overflow="visible" id="0f063cb7H"><path d="M1.36 6.4c.98.52 2.58.91 3.97.91 3.97 0 6.6-2.48 6.75-7.31h1.06c.42 0 .72-.3.72-.8 0-.53-.3-.82-.72-.82h-1.06c-.2-5.36-2.16-8.5-5.42-8.5-2.7 0-4.68 2.3-4.68 4.89 0 3.37 2.25 5.14 8.7 5.2-.09 3.97-2.15 5.89-5.82 5.89-.99 0-2.11-.24-3-.63zm9.36-8L9.3-1.61C4.6-1.78 3.3-2.92 3.3-5.23A3.36 3.36 0 016.58-8.7c2.25 0 3.9 2.18 4.14 7.1zm0 0"/></symbol><symbol overflow="visible" id="0f063cb7I"><path d="M-.73-.83c0 .56.37.83.73.83 5.83 0 8.2-1.69 8.2-4.03 0-.44-.06-.8-.23-1.24C11.42-1.07 13.83 0 16.57 0c.54 0 .74-.33.74-.8 0-.5-.2-.82-.73-.82-2.61 0-4.3-.8-8.14-5.1l-6.36-7.05 9.6-9.56-1.38-.56-9.64 9.6v1.18l4.4 4.9C6.4-6.7 6.92-5.68 6.92-4.55 6.92-2.64 5.1-1.63 0-1.63c-.36 0-.73.3-.73.8zm0 0"/></symbol><symbol overflow="visible" id="0f063cb7N"><path d="M3.2-5.69c-.6 1.49-.98 3.35-.98 5.25 0 5.11 2.67 7.32 8.56 7.32 6.1 0 8.55-2.25 8.61-8.27C20.58-.36 21.55 0 22.7 0c1.25 0 2.14-.6 2.97-2.05C27.03-.59 28.36 0 29.64 0c1.4 0 2.42-.66 3.16-2.38A4.81 4.81 0 0037.1 0h.56c.42 0 .76-.4.76-1.1 0-.68-.37-1.09-.76-1.09h-.41c-1.52 0-2.77-.56-3.83-2.48l.8-4L32.53-9l-.7 3.31c-.53 2.55-1.13 3.5-2.35 3.5-.86 0-1.86-.42-2.98-1.69l.1-.15 1.56-4.24-1.63-.64-1.42 3.75c-.92 2.41-1.45 2.97-2.52 2.97-1.01 0-1.8-.36-3.4-2.01a17.19 17.19 0 00-1.36-4.6l-1.81.57c.95 2.48 1.39 4.36 1.39 6.67 0 4.81-1.7 6.39-6.63 6.39C5.92 4.83 4.2 3.25 4.2-.8c0-1.65.3-3.1.74-4.39zm0 0"/></symbol><symbol overflow="visible" id="0f063cb7O"><path d="M4.17-15.45l1.4-1.99C4.96-18 4-18.66 3.3-19.04l-1.39 2c.69.4 1.58 1.06 2.25 1.59zm1.4 2.57l-1.9.63c.86 2.1 1.42 4.2 1.42 6.23 0 2.7-1.25 3.83-4.36 3.83H0c-.5 0-.8.44-.8 1.1C-.8-.47-.5 0 0 0h1.03c3.7 0 6.05-1.9 6.05-6.1 0-2.4-.72-4.98-1.52-6.78zm0 0"/></symbol><symbol overflow="visible" id="0f063cb7P"><path d="M2.25-23.8l.06 18.14C2.34-1.75 4.03 0 7.28 0h.92c.47 0 .8-.4.8-1.1 0-.68-.36-1.09-.8-1.09h-.68c-2.33 0-3.25-1.12-3.25-3.76V-24.1zm0 0"/></symbol><symbol overflow="visible" id="0f063cb7Q"><path d="M-.8-1.1C-.8-.4-.5 0 0 0h4.14c.49 0 .8-.4.8-1.1 0-.68-.32-1.09-.8-1.09H0c-.47 0-.8.4-.8 1.1zm0 0"/></symbol><symbol overflow="visible" id="0f063cb7R"><path d="M5.98-8.23l-1.51 3.2C3.44-2.81 2.57-2.2.17-2.2h-.23c-.47 0-.74.38-.74 1.13C-.8-.36-.56 0-.06 0h.39c2.19 0 3.6-.56 4.8-2.38C6.71-.63 8.07 0 9.43 0c1.16 0 2.05-.47 2.82-1.78C13.89-.56 15.42 0 16.88 0c2.18 0 3.76-1.6 3.76-5.1 0-2.09-.48-4.03-1.28-5.95l-1.83.6c.74 1.89 1.2 3.64 1.2 5.42 0 1.98-.67 2.84-2.12 2.84-.98 0-2.08-.33-3.58-1.39.14-.36.27-.75.4-1.15l1.07-3.5-1.69-.54-.94 3.05c-.85 2.84-1.45 3.53-2.64 3.53-1 0-1.86-.39-3.21-1.87l1.53-3.42zm0 0"/></symbol><symbol overflow="visible" id="0f063cb7T"><path d="M9.06-9.92l-1.84.45A30.19 30.19 0 018.73-.66c0 4.24-1.65 6.05-4.67 6.05-1.04 0-2.14-.2-3-.56L.44 6.36c1.01.56 2.58.98 4.06.98 3.77 0 6.19-2.57 6.19-8.03 0-3.04-.66-6.6-1.63-9.23zm0 0"/></symbol><symbol overflow="visible" id="0f063cb7U"><path d="M18.2-24.06l-1.92.31.03 15.38c.03 4.76-1.68 6.21-7.51 6.21H1.62L1.93 0h7.64c6.4 0 8.64-2.64 8.64-7.6zm-13.07 2.6l-1.88.98L11.61-5.1h.47l1.19-.7zm0 0"/></symbol><symbol overflow="visible" id="0f063cb7V"><path d="M1.4 6.36c1.02.56 2.63.98 4.16.98 4.03 0 6.72-2.4 6.99-7.34h.98c.5 0 .83-.4.83-1.1 0-.68-.33-1.09-.83-1.09h-.98c-.24-5.3-2.25-8.56-5.68-8.56-2.8 0-4.85 2.4-4.85 5.19 0 3.48 2.35 5.39 8.67 5.53-.17 3.7-2.16 5.42-5.69 5.42-1.06 0-2.16-.2-2.98-.56zm9.32-8.48l-1.36-.04C5-2.3 3.7-3.4 3.7-5.59c0-1.85 1.4-3.29 3.11-3.29 2.13 0 3.7 2.07 3.9 6.76zm0 0"/></symbol><symbol overflow="visible" id="0f063cb7W"><path d="M-.8-1.13C-.8-.32-.4 0 0 0c5.86 0 8.38-1.75 8.38-4.14 0-.36-.04-.66-.18-.99C11.6-1 14.16 0 16.81 0c.6 0 .83-.44.83-1.1 0-.65-.23-1.09-.83-1.09-2.51 0-4.17-.75-7.93-4.95l-6.24-6.92 9.4-9.4-1.88-.63-9.5 9.46v1.46l4.17 4.56c1.42 1.56 1.89 2.55 1.89 3.64C6.72-3.1 5-2.19 0-2.19c-.44 0-.8.4-.8 1.06zm0 0"/></symbol><symbol overflow="visible" id="0f063cb7Y"><path d="M3.1-5.98A15 15 0 002.06-.53c0 5.2 2.78 7.55 8.84 7.55 6.16 0 8.77-2.32 8.92-8.24C20.91-.32 21.88 0 23 0c1.22 0 2.14-.56 3-1.98C27.36-.56 28.69 0 30.05 0c1.42 0 2.48-.66 3.2-2.34A4.93 4.93 0 0037.63 0h.56c.45 0 .8-.5.8-1.3 0-.82-.38-1.28-.83-1.28h-.35c-1.51 0-2.76-.6-3.8-2.39L34.85-9l-2.04-.44-.74 3.38c-.53 2.48-1.06 3.48-2.22 3.48-.8 0-1.75-.44-2.84-1.56v-.06l1.63-4.36-1.96-.74-1.45 3.8c-.86 2.33-1.36 2.92-2.36 2.92-.98 0-1.75-.36-3.23-1.89a18.81 18.81 0 00-1.33-4.6l-2.25.63c.92 2.42 1.39 4.4 1.39 6.69 0 4.73-1.69 6.31-6.55 6.31-4.77 0-6.45-1.54-6.45-5.56 0-1.64.3-3.1.75-4.42zm0 0"/></symbol><symbol overflow="visible" id="0f063cb7Z"><path d="M4.33-15.63l1.6-2.17c-.74-.67-1.76-1.39-2.55-1.8l-1.52 2.2c.75.46 1.75 1.18 2.47 1.77zm1.5 2.46l-2.22.7c.83 2.11 1.36 4.24 1.36 6.19 0 2.58-1.2 3.7-4.28 3.7H0c-.53 0-.86.5-.86 1.25C-.86-.53-.53 0 0 0h1.03C4.9 0 7.34-1.98 7.34-6.36c0-2.37-.68-4.98-1.51-6.81zm0 0"/></symbol><symbol overflow="visible" id="0f063cb7aa"><path d="M2.19-23.9l.06 17.88C2.28-1.82 4.03 0 7.44 0h.97c.5 0 .86-.5.86-1.3 0-.82-.4-1.28-.86-1.28h-.66c-2.22 0-3.19-1.12-3.19-3.78v-17.86zm0 0"/></symbol><symbol overflow="visible" id="0f063cb7ab"><path d="M-.86-1.3C-.86-.5-.53 0 0 0h4.2c.5 0 .86-.5.86-1.3 0-.82-.36-1.28-.86-1.28H0c-.5 0-.86.46-.86 1.28zm0 0"/></symbol><symbol overflow="visible" id="0f063cb7ac"><path d="M5.95-8.67L4.41-5.36C3.37-3.2 2.55-2.58.17-2.58h-.23c-.5 0-.8.42-.8 1.33 0 .81.27 1.25.8 1.25h.39C2.58 0 4-.56 5.23-2.38 6.84-.63 8.2 0 9.6 0c1.16 0 2.05-.44 2.85-1.75A7.83 7.83 0 0017.14 0c2.28 0 4-1.72 4-5.42 0-2.16-.45-4.2-1.25-6.13l-2.19.66c.74 1.92 1.16 3.7 1.16 5.53 0 1.95-.63 2.78-2.02 2.78-1 0-2.01-.33-3.43-1.36.09-.3.18-.6.3-.92l1.12-3.67-1.99-.64-.96 3.1c-.83 2.76-1.43 3.5-2.55 3.5-.96 0-1.75-.41-3.05-1.8l1.53-3.38zm0 0"/></symbol><symbol overflow="visible" id="0f063cb7ae"><path d="M9.36-10.19l-2.22.5A30.7 30.7 0 018.67-.83c0 4.14-1.62 5.9-4.64 5.9a8.58 8.58 0 01-2.97-.57l-.7 1.86c1.03.56 2.62.98 4.2.98 3.9 0 6.42-2.6 6.42-8.2 0-3.2-.68-6.72-1.62-9.33zm0 0"/></symbol><symbol overflow="visible" id="0f063cb7af"><path d="M18.4-24.22l-2.35.4.1 15.05c0 4.7-1.7 6.2-7.68 6.2H1.48l.33 2.6h7.52c6.69 0 9.06-2.84 9.06-8zM5.32-21.84l-2.25 1.2 8.14 15.28h.56l1.45-.76zm0 0"/></symbol><symbol overflow="visible" id="0f063cb7ag"><path d="M1.42 6.36c1.03.56 2.72.98 4.33.98C9.8 7.34 12.5 5 12.88 0h.98c.53 0 .86-.5.86-1.3 0-.82-.36-1.28-.86-1.28h-.98c-.2-5.26-2.29-8.64-5.8-8.64-2.9 0-5.06 2.45-5.06 5.42 0 3.52 2.48 5.6 8.7 5.8-.27 3.47-2.16 5.06-5.6 5.06a8.08 8.08 0 01-3-.56zm9.33-8.88l-1.31-.06C5.3-2.75 4-3.8 4-5.86 4-7.67 5.33-9 6.98-9 9-9 10.52-7.02 10.75-2.52zm0 0"/></symbol><symbol overflow="visible" id="0f063cb7ah"><path d="M-.86-1.36C-.86-.36-.44 0 0 0c5.9 0 8.5-1.81 8.5-4.23 0-.3-.03-.54-.1-.83C11.76-.96 14.4 0 17 0c.6 0 .88-.5.88-1.3 0-.78-.27-1.28-.88-1.28-2.47 0-4.06-.76-7.8-4.94l-6.1-6.75 9.24-9.26-2.3-.69-9.38 9.36v1.63l4.01 4.3c1.46 1.62 1.9 2.62 1.9 3.63 0 1.83-1.63 2.72-6.57 2.72-.47 0-.86.42-.86 1.22zm0 0"/></symbol><symbol overflow="visible" id="0f063cb7al"><path d="M2.98-6.31A15.3 15.3 0 001.86-.63c0 5.33 2.87 7.74 9.16 7.74 6.21 0 8.96-2.31 9.23-8.17A4.82 4.82 0 0023.33 0c1.22 0 2.15-.53 2.98-1.9C27.73-.52 29.05 0 30.44 0c1.5 0 2.58-.66 3.31-2.28A5.01 5.01 0 0038.15 0h.57c.53 0 .89-.56.89-1.52 0-1-.4-1.53-.9-1.53h-.34c-1.48 0-2.7-.56-3.73-2.28l.83-4.03-2.38-.5-.76 3.4c-.56 2.46-1 3.41-2.08 3.41-.77 0-1.69-.39-2.75-1.42l1.63-4.4-2.33-.86-1.46 3.87c-.82 2.25-1.28 2.81-2.21 2.81-.93 0-1.7-.36-3.08-1.75a17.98 17.98 0 00-1.28-4.56l-2.66.69a19.3 19.3 0 011.33 6.72c0 4.67-1.63 6.22-6.42 6.22-4.66 0-6.35-1.49-6.35-5.49 0-1.62.33-3.1.78-4.44zm0 0"/></symbol><symbol overflow="visible" id="0f063cb7am"><path d="M4.53-15.78l1.75-2.42a15.88 15.88 0 00-2.81-1.99l-1.72 2.42c.9.5 1.98 1.33 2.78 1.99zm1.6 2.28l-2.63.83c.8 2.08 1.33 4.2 1.33 6.1 0 2.43-1.13 3.52-4.17 3.52H0c-.6 0-.92.6-.92 1.49C-.92-.62-.6 0 0 0h1c4.06 0 6.64-2.13 6.64-6.63 0-2.34-.69-4.98-1.51-6.87zm0 0"/></symbol><symbol overflow="visible" id="0f063cb7an"><path d="M2.08-24.02l.1 17.6C2.23-1.9 4.07 0 7.65 0h1c.48 0 .9-.56.9-1.52 0-1-.45-1.53-.9-1.53h-.67c-2.11 0-3.03-1.1-3.03-3.7v-17.64zm0 0"/></symbol><symbol overflow="visible" id="0f063cb7ao"><path d="M-.92-1.52C-.92-.56-.56 0 0 0h4.27c.53 0 .92-.56.92-1.52 0-1-.4-1.53-.92-1.53H0c-.53 0-.92.53-.92 1.53zm0 0"/></symbol><symbol overflow="visible" id="0f063cb7ap"><path d="M5.9-9.17L4.3-5.75c-1.02 2.1-1.78 2.7-4.1 2.7h-.3c-.5 0-.82.5-.82 1.57C-.92-.53-.62 0-.1 0h.45c2.28 0 3.7-.56 4.97-2.34C6.98-.63 8.34 0 9.77 0c1.18 0 2.07-.44 2.87-1.75A7.83 7.83 0 0017.41 0c2.37 0 4.3-1.86 4.3-5.8 0-2.25-.5-4.36-1.26-6.28l-2.57.77a16.14 16.14 0 011.15 5.6c0 1.9-.64 2.66-1.98 2.66-.94 0-1.9-.3-3.28-1.28.06-.2.17-.44.23-.67l1.19-3.88-2.35-.74-1 3.23c-.8 2.66-1.36 3.34-2.37 3.34-.94 0-1.66-.36-2.9-1.65l1.54-3.35zm0 0"/></symbol><symbol overflow="visible" id="0f063cb7aq"><path d="M9.66-10.48l-2.58.56A31.82 31.82 0 018.6-1c0 4.05-1.6 5.7-4.58 5.7a8.87 8.87 0 01-2.94-.53L.27 6.31a9.35 9.35 0 004.4 1.07c4 0 6.61-2.65 6.61-8.41 0-3.38-.69-6.84-1.62-9.45zm0 0"/></symbol><symbol overflow="visible" id="0f063cb7ar"><path d="M18.56-24.4l-2.72.48.11 14.72c.03 4.64-1.65 6.18-7.8 6.18H1.32L1.75.03h7.34c6.99 0 9.47-3.01 9.47-8.4zm-13 2.2l-2.68 1.39L10.8-5.63h.67l1.72-.89zm0 0"/></symbol><symbol overflow="visible" id="0f063cb7as"><path d="M1.45 6.31a9.47 9.47 0 004.5 1.07c4.08 0 6.82-2.32 7.28-7.38h.96c.6 0 .94-.56.94-1.52 0-1-.38-1.53-.94-1.53h-.92c-.24-5.18-2.35-8.7-6.02-8.7-2.98 0-5.2 2.55-5.2 5.66 0 3.57 2.58 5.86 8.67 6.09-.33 3.25-2.16 4.7-5.49 4.7a8.17 8.17 0 01-2.98-.53zm9.3-9.25L9.5-3.02c-3.9-.15-5.17-1.18-5.17-3.1 0-1.75 1.23-3.05 2.81-3.05 1.92 0 3.42 1.92 3.61 6.23zm0 0"/></symbol><symbol overflow="visible" id="0f063cb7at"><path d="M-.92-1.6C-.92-.43-.47 0 0 0c5.95 0 8.67-1.92 8.67-4.33 0-.23-.03-.4-.1-.64C11.9-.92 14.61 0 17.16 0c.66 0 .92-.56.92-1.52s-.26-1.53-.92-1.53c-2.37 0-3.9-.68-7.6-4.83l-6-6.62 9.1-9.13-2.78-.76-9.23 9.27v1.8l3.8 4.05c1.52 1.7 2 2.7 2 3.64 0 1.75-1.6 2.58-6.46 2.58-.5 0-.92.5-.92 1.46zm0 0"/></symbol><symbol overflow="visible" id="0f063cb7ax"><path d="M2.9-6.52A15.26 15.26 0 001.76-.69c0 5.4 2.95 7.88 9.38 7.88 6.24 0 9.09-2.33 9.39-8.14.98.65 1.92.95 3.01.95 1.22 0 2.14-.5 3-1.86A5.92 5.92 0 0030.7 0c1.53 0 2.61-.66 3.38-2.28A5.04 5.04 0 0038.52 0h.56c.53 0 .92-.63.92-1.69s-.42-1.65-.92-1.65h-.33c-1.5 0-2.69-.54-3.7-2.22l.86-4.03-2.63-.57-.78 3.47c-.56 2.42-.97 3.35-2.03 3.35-.72 0-1.61-.36-2.64-1.33l1.6-4.36-2.52-1-1.47 3.94c-.82 2.21-1.25 2.75-2.11 2.75-.92 0-1.66-.33-2.99-1.66a20.77 20.77 0 00-1.25-4.56l-2.95.73a20.14 20.14 0 011.33 6.75c0 4.63-1.66 6.14-6.34 6.14-4.65 0-6.3-1.45-6.3-5.42 0-1.62.33-3.1.8-4.44zm0 0"/></symbol><symbol overflow="visible" id="0f063cb7ay"><path d="M4.67-15.88l1.85-2.59c-.86-.78-2.08-1.6-2.97-2.08L1.72-18c.92.53 2.1 1.42 2.95 2.13zm1.64 2.18l-2.87.86c.76 2.12 1.3 4.2 1.3 6.06 0 2.34-1.07 3.44-4.12 3.44H0c-.6 0-.95.65-.95 1.65C-.95-.69-.6 0 0 0h1c4.16 0 6.84-2.22 6.84-6.81 0-2.32-.7-5-1.53-6.9zm0 0"/></symbol><symbol overflow="visible" id="0f063cb7az"><path d="M2.02-24.1l.14 17.41C2.19-1.92 4.1 0 7.78 0h.99c.53 0 .96-.63.96-1.69s-.46-1.65-.96-1.65h-.63c-2.08 0-2.98-1.07-2.98-3.68v-17.5zm0 0"/></symbol><symbol overflow="visible" id="0f063cb7aA"><path d="M-.95-1.69C-.95-.63-.56 0 0 0h4.3c.56 0 .97-.63.97-1.69s-.41-1.65-.97-1.65H0c-.56 0-.95.59-.95 1.65zm0 0"/></symbol><symbol overflow="visible" id="0f063cb7aB"><path d="M5.9-9.47L4.22-5.98C3.2-3.94 2.48-3.34.23-3.34h-.32c-.5 0-.86.56-.86 1.68C-.95-.59-.63 0-.1 0h.48c2.3 0 3.75-.56 5-2.34C7.08-.63 8.44 0 9.86 0c1.19 0 2.12-.44 2.9-1.72A8.05 8.05 0 0017.62 0c2.44 0 4.45-1.92 4.45-6.02 0-2.3-.48-4.46-1.25-6.39l-2.84.83a16.3 16.3 0 011.16 5.63c0 1.92-.63 2.6-1.93 2.6-.92 0-1.84-.3-3.2-1.21.06-.17.13-.33.19-.53l1.23-3.97-2.54-.83-1.07 3.31c-.76 2.58-1.3 3.24-2.28 3.24-.89 0-1.6-.33-2.75-1.55l1.53-3.34zm0 0"/></symbol><symbol overflow="visible" id="0f063cb7aD"><path d="M9.86-10.69l-2.84.63c.86 2.78 1.51 6 1.51 8.97 0 3.96-1.55 5.56-4.53 5.56a9.31 9.31 0 01-2.9-.5L.2 6.3a9.6 9.6 0 004.5 1.1c4.1 0 6.78-2.68 6.78-8.54 0-3.46-.7-6.95-1.62-9.56zm0 0"/></symbol><symbol overflow="visible" id="0f063cb7aE"><path d="M18.69-24.48l-3 .5.12 14.51c.03 4.61-1.62 6.16-7.9 6.16H1.2L1.7.03h7.28c7.14 0 9.72-3.1 9.72-8.67zm-13 2.04L2.75-20.9 10.56-5.8h.72l1.92-.95zm0 0"/></symbol><symbol overflow="visible" id="0f063cb7aF"><path d="M1.48 6.31c1.04.61 2.79 1.1 4.61 1.1 4.1 0 6.85-2.32 7.38-7.41h.95c.6 0 .97-.63.97-1.69s-.4-1.65-.97-1.65h-.92c-.23-5.16-2.38-8.74-6.13-8.74-3.04 0-5.32 2.61-5.32 5.83 0 3.6 2.65 5.98 8.67 6.25-.36 3.1-2.11 4.47-5.42 4.47a8.47 8.47 0 01-2.96-.5zm9.27-9.51l-1.22-.08c-3.73-.19-5-1.19-5-3.03 0-1.74 1.19-2.96 2.72-2.96 1.88 0 3.34 1.86 3.5 6.07zm0 0"/></symbol><symbol overflow="visible" id="0f063cb7aG"><path d="M-.95-1.75C-.95-.47-.5 0 0 0c5.95 0 8.77-1.95 8.77-4.4 0-.2 0-.3-.07-.5C12.05-.91 14.8 0 17.31 0c.69 0 .96-.63.96-1.69 0-1.03-.27-1.65-.96-1.65-2.36 0-3.84-.7-7.51-4.77l-5.93-6.55 9-9.03-3.04-.83-9.17 9.24v1.9l3.71 3.91c1.55 1.69 1.99 2.69 1.99 3.61 0 1.72-1.53 2.52-6.36 2.52-.5 0-.95.56-.95 1.59zm0 0"/></symbol><symbol overflow="visible" id="0f063cb7aH"><path d="M2.9-7.19a16.32 16.32 0 00-1.24 6.07c0 5.68 3.17 8.4 9.86 8.4 6.25 0 9.39-2.34 9.89-8.05.89.54 1.75.77 2.71.77 1.22 0 2.15-.5 3-1.78C28.63-.53 30.02 0 31.45 0c1.62 0 2.78-.69 3.6-2.31A5.07 5.07 0 0039.59 0h.53c.6 0 .98-.8.98-2.19 0-1.42-.42-2.22-.98-2.22h-.3c-1.44 0-2.56-.48-3.58-2.01l.9-4.03-3.26-.74-.85 3.64c-.57 2.28-.9 3.14-1.85 3.14-.62 0-1.42-.3-2.39-1.09l1.56-4.27-3.14-1.18-1.45 4.03c-.77 2.06-1.17 2.51-1.92 2.51-.83 0-1.45-.3-2.58-1.34a21.7 21.7 0 00-1.23-4.55l-3.77.9a23.42 23.42 0 011.22 6.85c0 4.3-1.55 5.72-5.95 5.72-4.38 0-5.93-1.36-5.93-5.1 0-1.57.33-3.04.77-4.38zm0 0"/></symbol><symbol overflow="visible" id="0f063cb7aI"><path d="M5.1-16.28l2.09-2.94c-1-.94-2.4-1.86-3.42-2.39l-2.08 2.95a24.3 24.3 0 013.4 2.38zm1.95 1.83l-3.77.98c.69 2.1 1.19 4.11 1.19 5.83 0 2.25-1.03 3.23-3.84 3.23H0c-.66 0-1.06.86-1.06 2.2C-1.06-.96-.66 0 0 0h1.06C5.62 0 8.5-2.48 8.5-7.4c0-2.33-.66-5.1-1.45-7.05zm0 0"/></symbol><symbol overflow="visible" id="0f063cb7aJ"><path d="M1.78-24.36l.17 16.78C2.02-2.05 4.17 0 8.27 0h1c.59 0 1.06-.8 1.06-2.19 0-1.42-.5-2.22-1.06-2.22h-.54c-2.01 0-2.87-.92-2.87-3.53v-16.93zm0 0"/></symbol><symbol overflow="visible" id="0f063cb7aK"><path d="M-1.06-2.19C-1.06-.79-.62 0 0 0h4.47C5.09 0 5.5-.8 5.5-2.19c0-1.42-.4-2.22-1.03-2.22H0c-.6 0-1.06.8-1.06 2.22zm0 0"/></symbol><symbol overflow="visible" id="0f063cb7aL"><path d="M5.86-10.45L4.14-6.98c-1 2.01-1.8 2.57-3.84 2.57h-.4c-.56 0-.96.77-.96 2.25C-1.06-.8-.7 0-.1 0h.56c2.28 0 3.76-.56 5.1-2.38C7.33-.68 8.76 0 10.21 0c1.26 0 2.19-.47 3.05-1.81C15.09-.53 16.67 0 18.39 0c2.69 0 4.84-2.22 4.84-6.81-.04-2.4-.56-4.74-1.26-6.69l-3.61.9c.67 2.12 1.1 3.96 1.1 5.82 0 1.78-.57 2.37-1.76 2.37-.8 0-1.65-.21-2.9-1.04l1.39-4.35-3.16-1.06-1.15 3.55c-.72 2.34-1.22 2.9-2.05 2.9-.8 0-1.42-.3-2.52-1.39L8.77-9zm0 0"/></symbol><symbol overflow="visible" id="0f063cb7aN"><path d="M10.48-11.34l-3.56.71c.9 3.02 1.52 6 1.52 8.88 0 3.88-1.46 5.36-4.47 5.36a9.81 9.81 0 01-2.81-.4L.17 6.24a10.8 10.8 0 004.9 1.16c4.4 0 7.21-2.88 7.21-9 0-3.64-.8-7.11-1.8-9.75zm0 0"/></symbol><symbol overflow="visible" id="0f063cb7aO"><path d="M19.42-24.84l-3.94.59.18 13.9c.03 4.55-1.47 5.97-8.18 5.97H1.16L1.78.04H8.7c7.7 0 10.72-3.34 10.72-9.53zm-12.84 1.9L2.64-21.1 9.95-6.45h.94l2.48-1.2zm0 0"/></symbol><symbol overflow="visible" id="0f063cb7aP"><path d="M1.42 6.25c1.13.63 3.02 1.16 5.06 1.16 4.2 0 7.11-2.38 7.75-7.41h.93c.62 0 1.03-.8 1.03-2.19 0-1.42-.44-2.22-1.03-2.22h-.93C13.83-9.53 11.52-13 7.75-13c-3.25 0-5.67 2.75-5.67 6.19 0 3.76 2.72 6.28 8.6 6.72-.38 2.57-2.04 3.73-5.18 3.73-1.33 0-2.36-.2-3.05-.44zm9.36-10.42l-1.22-.06c-3.28-.18-4.44-1.07-4.44-2.7C5.13-8.4 6.2-9.5 7.55-9.5c1.72 0 3.08 1.66 3.23 5.33zm0 0"/></symbol><symbol overflow="visible" id="0f063cb7aQ"><path d="M-1.06-2.31C-1.06-.6-.5 0 0 0c6.06 0 9.03-1.98 9.03-4.63 0-.2 0-.34-.03-.5C12.47-1 15.31 0 17.83 0c.73 0 1.06-.8 1.06-2.19s-.33-2.22-1.06-2.22c-2.11 0-3.53-.65-7.14-4.53l-5.83-6.19 8.9-8.82-4.13-.93-8.9 9.04v2.3l3.65 3.71c1.42 1.52 1.8 2.42 1.8 3.2C6.19-5.05 4.8-4.4 0-4.4c-.56 0-1.06.74-1.06 2.1zm0 0"/></symbol><symbol overflow="visible" id="0f063cb7aS"><path d="M3.05-8.08c-.8 1.63-1.4 4.05-1.4 6.22 0 6.16 3.44 9.2 10.46 9.2 6.28 0 9.73-2.34 10.52-7.9.76.39 1.5.56 2.3.56 1.24 0 2.16-.47 3.07-1.75C29.58-.5 30.97 0 32.42 0c1.72 0 2.95-.73 3.88-2.45A5.25 5.25 0 0041 0h.45c.67 0 1.13-1.06 1.13-2.94 0-1.92-.49-2.95-1.13-2.95h-.22c-1.39 0-2.39-.47-3.34-1.75l.9-4.05-4-.95-1 3.84c-.57 2.14-.87 2.9-1.73 2.9-.5 0-1.15-.26-1.95-.82l1.42-4.1-3.9-1.43-1.49 4.14c-.66 1.86-1.03 2.22-1.69 2.22-.62 0-1.12-.24-1.95-.95-.3-1.77-.73-3.25-1.19-4.5l-5 1.04c.69 2.33 1.16 4.8 1.16 7.1 0 3.7-1.4 4.95-5.36 4.95-3.94 0-5.33-1.19-5.33-4.56 0-1.46.3-2.9.66-4.24zm0 0"/></symbol><symbol overflow="visible" id="0f063cb7aT"><path d="M5.69-16.81l2.42-3.44a19.7 19.7 0 00-4-2.78l-2.4 3.4c1.2.74 2.79 1.9 3.98 2.82zm2.36 1.26l-4.9 1.13c.55 1.98.91 3.9.91 5.48 0 2.19-.95 3.05-3.47 3.05H0c-.73 0-1.16 1.12-1.16 2.9C-1.16-1.28-.73 0 0 0h1.19c5.06 0 8.25-2.84 8.25-8.31 0-2.31-.64-5.22-1.4-7.24zm0 0"/></symbol><symbol overflow="visible" id="0f063cb7aU"><path d="M1.45-24.69L1.7-8.87C1.79-2.29 4.27 0 9.03 0H10c.69 0 1.19-1.06 1.19-2.94 0-1.92-.53-2.95-1.19-2.95h-.4c-1.93 0-2.79-.77-2.79-3.38V-25.4zm0 0"/></symbol><symbol overflow="visible" id="0f063cb7aV"><path d="M-1.16-2.94C-1.16-1.06-.69 0 0 0h4.67c.69 0 1.16-1.06 1.16-2.94 0-1.92-.47-2.95-1.16-2.95H0c-.66 0-1.16 1.03-1.16 2.95zm0 0"/></symbol><symbol overflow="visible" id="0f063cb7aW"><path d="M5.83-11.88L4.06-8.44C3.08-6.45 2.22-5.89.44-5.89h-.5c-.63 0-1.1 1-1.1 2.98 0 1.85.4 2.91 1.1 2.91h.65c2.22 0 3.79-.56 5.16-2.48C7.75-.77 9.2 0 10.72 0c1.36 0 2.34-.5 3.28-1.98C16.1-.56 17.77 0 19.6 0c3.02 0 5.32-2.64 5.21-7.94-.03-2.48-.6-5.06-1.28-7.08l-4.6.99c.59 2.28 1 4.14 1 5.98 0 1.6-.48 2.16-1.46 2.16a5 5 0 01-2.55-.9l1.31-4.07-3.93-1.34-1.32 3.86c-.67 2.03-1.06 2.45-1.73 2.45-.72 0-1.25-.3-2.17-1.19l1.28-3.04zm0 0"/></symbol><symbol overflow="visible" id="0f063cb7aY"><path d="M11.38-12.31l-4.57.94C7.84-8 8.38-5.37 8.38-2.79c0 3.73-1.33 5.2-4.47 5.2-.97 0-1.93-.14-2.58-.34L.17 6.12c1.25.66 3.38 1.32 5.46 1.32 4.82 0 7.8-3.27 7.8-9.78 0-3.68-.88-7.16-2.05-9.97zm0 0"/></symbol><symbol overflow="visible" id="0f063cb7aZ"><path d="M20.55-25.4l-5.3.74.27 13.08c.06 4.56-1.2 5.69-8.54 5.69H1.16L2.02 0h6.42c8.4 0 12.1-3.55 12.1-10.69zM8.08-23.54l-5.4 2.16L9.2-7.41h1.22l3.31-1.5zm0 0"/></symbol><symbol overflow="visible" id="0f063cb7ba"><path d="M1.33 6.13c1.25.65 3.37 1.3 5.69 1.3 4.43 0 7.54-2.57 8.26-7.43h.86c.73 0 1.17-1.06 1.17-2.94 0-1.92-.47-2.95-1.17-2.95h-.92c-.72-5.19-3.28-8.34-7.02-8.34-3.47 0-6.07 2.92-6.07 6.65 0 3.97 2.73 6.66 8.46 7.28-.37 1.86-1.92 2.82-4.9 2.82-1.36 0-2.52-.2-3.2-.44zM10.8-5.5L9.6-5.53c-2.67-.13-3.67-.9-3.67-2.17 0-1.2.83-2.07 2.02-2.07 1.5 0 2.72 1.33 2.87 4.27zm0 0"/></symbol><symbol overflow="visible" id="0f063cb7bb"><path d="M-1.16-3.1c0 2.33.63 3.1 1.2 3.1 6.08 0 9.4-1.95 9.4-5.03 0-.24-.05-.47-.08-.63C13.1-1.19 16.08 0 18.63 0c.76 0 1.18-1.06 1.18-2.94 0-1.89-.45-2.95-1.18-2.95-1.79 0-3.11-.69-6.61-4.17l-5.74-5.72 8.81-8.53-5.7-1.1-8.6 8.74v2.87l3.8 3.64C5.66-9.06 6.06-8.3 6.06-7.7c0 1.25-1.23 1.8-6.03 1.8-.66 0-1.19.96-1.19 2.8zm0 0"/></symbol><symbol overflow="visible" id="0f063cb7bc"><path d="M3.17-9.06A14.86 14.86 0 001.66-2.7C1.66 4 5.39 7.44 12.8 7.44c6.31 0 10.05-2.38 11.14-7.8a5.4 5.4 0 001.9.36c1.24 0 2.21-.44 3.07-1.72C30.64-.5 32.06 0 33.55 0c1.83 0 3.14-.77 4.17-2.55A5.41 5.41 0 0042.66 0h.36c.76 0 1.21-1.36 1.21-3.81 0-2.44-.48-3.8-1.21-3.8h-.18c-1.3 0-2.22-.39-3.1-1.45l.93-3.97-4.9-1.24-1.16 4.05c-.56 2.02-.77 2.61-1.52 2.61-.37 0-.9-.17-1.53-.53l1.33-3.88-4.8-1.71-1.48 4.26c-.53 1.63-.9 1.86-1.4 1.86-.46 0-.82-.14-1.29-.53-.3-1.75-.76-3.2-1.15-4.36l-6.36 1.25A28.35 28.35 0 0117.47-4c0 3.1-1.22 4.13-4.66 4.13-3.48 0-4.7-.99-4.7-3.94 0-1.35.27-2.77.6-4.06zm0 0"/></symbol><symbol overflow="visible" id="0f063cb7bd"><path d="M6.36-17.4l2.81-3.98a23.7 23.7 0 00-4.67-3.28l-2.78 3.97c1.39.83 3.25 2.16 4.64 3.28zm2.81.62l-6.23 1.23c.44 1.96.7 3.7.7 5.16 0 2.08-.92 2.78-3.05 2.78H0c-.8 0-1.3 1.49-1.3 3.8C-1.3-1.7-.8 0 0 0h1.33c5.69 0 9.19-3.28 9.19-9.3 0-2.28-.6-5.39-1.35-7.48zm0 0"/></symbol><symbol overflow="visible" id="0f063cb7be"><path d="M1.06-25.08l.3 14.72C1.52-2.52 4.37 0 9.89 0h.92c.8 0 1.3-1.36 1.3-3.81 0-2.44-.53-3.8-1.3-3.8h-.3c-1.78 0-2.6-.53-2.6-3.17V-26zm0 0"/></symbol><symbol overflow="visible" id="0f063cb7bf"><path d="M-1.3-3.81C-1.3-1.36-.8 0 0 0h4.94c.75 0 1.28-1.36 1.28-3.81 0-2.44-.56-3.8-1.28-3.8H0c-.77 0-1.3 1.36-1.3 3.8zm0 0"/></symbol><symbol overflow="visible" id="0f063cb7bg"><path d="M5.8-13.5L4-10.1C2.98-8.13 2.02-7.6.56-7.6h-.62c-.7 0-1.24 1.32-1.24 3.83C-1.3-1.39-.83 0-.06 0h.8C2.9 0 4.5-.6 5.97-2.58 8.18-.83 9.68 0 11.31 0c1.42 0 2.49-.53 3.49-2.16C17.23-.59 19.03 0 20.9 0c3.46 0 5.9-3.1 5.74-9.2a26.9 26.9 0 00-1.36-7.55l-5.72 1.06c.52 2.55.9 4.4.9 6.25 0 1.36-.41 1.83-1.13 1.83-.56 0-1.16-.17-2.16-.7l1.22-3.7-4.8-1.72-1.51 4.23c-.56 1.66-.9 1.9-1.36 1.9-.6 0-1.03-.28-1.81-1l1.15-2.78zm0 0"/></symbol><symbol overflow="visible" id="0f063cb7bi"><path d="M12.38-13.44l-5.7 1.19c1.16 3.81 1.59 6.06 1.59 8.31C8.27-.36 7.1 1.1 3.84 1.1c-.9 0-1.8-.14-2.36-.26L.18 5.98c1.38.74 3.79 1.46 6.1 1.46 5.3 0 8.44-3.7 8.44-10.61 0-3.81-.99-7.28-2.35-10.27zm0 0"/></symbol><symbol overflow="visible" id="0f063cb7bj"><path d="M21.84-26l-6.82.92.34 12.11c.12 4.6-.83 5.36-8.94 5.36H1.16L2.25 0h5.9c9.22 0 13.7-3.77 13.7-12.05zm-12.1 1.81l-7.02 2.55 5.62 13.1h1.58l4.2-1.79zm0 0"/></symbol><symbol overflow="visible" id="0f063cb7bk"><path d="M1.19 5.98C2.58 6.72 5 7.44 7.6 7.44c4.7 0 8.08-2.77 8.83-7.44h.83c.8 0 1.32-1.36 1.32-3.81 0-2.44-.56-3.8-1.32-3.8h-.93c-1.06-5.23-3.93-7.97-7.6-7.97-3.74 0-6.55 3.11-6.55 7.11 0 4.27 2.78 7.11 8.33 7.97-.4.97-1.79 1.72-4.57 1.72-1.42 0-2.75-.19-3.43-.4zm9.7-12.96l-1.3-.04C7.64-7.1 6.84-7.7 6.84-8.67c0-.8.57-1.42 1.54-1.42 1.24 0 2.3 1 2.51 3.1zm0 0"/></symbol><symbol overflow="visible" id="0f063cb7bl"><path d="M-1.3-4.03C-1.3-.95-.56 0 .03 0c6.19 0 9.83-1.92 9.83-5.45 0-.27-.03-.64-.1-.8C13.84-1.42 16.92 0 19.57 0c.78 0 1.28-1.36 1.28-3.81 0-2.44-.53-3.8-1.28-3.8-1.43 0-2.68-.7-6.03-3.73l-5.65-5.24 8.7-8.17L9.13-26 .88-17.6v3.54l3.94 3.5c.7.67 1.03 1.23 1.03 1.62 0 .97-1.03 1.33-5.83 1.33-.72 0-1.33 1.25-1.33 3.58zm0 0"/></symbol></defs><use xlink:href="#0f063cb7a" x="61.60478" y="58.85246"/><use xlink:href="#0f063cb7b" x="97.87028" y="58.85246"/><use xlink:href="#0f063cb7c" x="106.91078" y="58.85246"/><use xlink:href="#0f063cb7d" x="114.60128" y="58.85246"/><use xlink:href="#0f063cb7d" x="118.55678" y="58.85246"/><use xlink:href="#0f063cb7d" x="122.51228" y="58.85246"/><use xlink:href="#0f063cb7e" x="126.46778" y="58.85246"/><use xlink:href="#0f063cb7f" x="147.74828" y="58.85246"/><use xlink:href="#0f063cb7g" x="154.08878" y="58.85246"/><use xlink:href="#0f063cb7h" x="166.68428" y="58.85246"/><use xlink:href="#0f063cb7i" x="187.37978" y="58.85246"/><use xlink:href="#0f063cb7j" x="200.11028" y="58.85246"/><use xlink:href="#0f063cb7e" x="216.44078" y="58.85246"/><g fill-opacity=".33"><use xlink:href="#0f063cb7k" x="73.33333" y="94.7049"/><use xlink:href="#0f063cb7l" x="80.00033" y="94.7049"/><use xlink:href="#0f063cb7m" x="86.66733" y="94.7049"/><use xlink:href="#0f063cb7n" x="93.33433" y="94.7049"/><use xlink:href="#0f063cb7o" x="100.00133" y="94.7049"/><use xlink:href="#0f063cb7p" x="106.66833" y="94.7049"/><use xlink:href="#0f063cb7q" x="113.33533" y="94.7049"/><use xlink:href="#0f063cb7k" x="120.00233" y="94.7049"/><use xlink:href="#0f063cb7o" x="126.66933" y="94.7049"/><use xlink:href="#0f063cb7r" x="133.33633" y="94.7049"/><use xlink:href="#0f063cb7s" x="140.00333" y="94.7049"/><use xlink:href="#0f063cb7q" x="146.67033" y="94.7049"/><use xlink:href="#0f063cb7t" x="153.33733" y="94.7049"/><use xlink:href="#0f063cb7p" x="160.00433" y="94.7049"/><use xlink:href="#0f063cb7o" x="166.67133" y="94.7049"/><use xlink:href="#0f063cb7u" x="173.33833" y="94.7049"/><use xlink:href="#0f063cb7v" x="180.00533" y="94.7049"/><use xlink:href="#0f063cb7w" x="186.67233" y="94.7049"/><use xlink:href="#0f063cb7q" x="193.33933" y="94.7049"/><use xlink:href="#0f063cb7x" x="200.00633" y="94.7049"/><use xlink:href="#0f063cb7y" x="206.67333" y="94.7049"/><use xlink:href="#0f063cb7v" x="213.34033" y="94.7049"/><use xlink:href="#0f063cb7r" x="220.00733" y="94.7049"/></g><use xlink:href="#0f063cb7z" x="59.75184" y="157.88936"/><use xlink:href="#0f063cb7A" x="96.67884" y="157.88936"/><use xlink:href="#0f063cb7B" x="105.97584" y="157.88936"/><use xlink:href="#0f063cb7C" x="113.92284" y="157.88936"/><use xlink:href="#0f063cb7C" x="117.95484" y="157.88936"/><use xlink:href="#0f063cb7C" x="121.98684" y="157.88936"/><use xlink:href="#0f063cb7D" x="126.01884" y="157.88936"/><use xlink:href="#0f063cb7E" x="148.00584" y="157.88936"/><use xlink:href="#0f063cb7F" x="154.28784" y="157.88936"/><use xlink:href="#0f063cb7G" x="167.18484" y="157.88936"/><use xlink:href="#0f063cb7H" x="187.95684" y="157.88936"/><use xlink:href="#0f063cb7I" x="201.07884" y="157.88936"/><use xlink:href="#0f063cb7D" x="217.66584" y="157.88936"/><g fill-opacity=".33"><use xlink:href="#0f063cb7k" x="53.33333" y="193.7418"/><use xlink:href="#0f063cb7l" x="60.00033" y="193.7418"/><use xlink:href="#0f063cb7m" x="66.66733" y="193.7418"/><use xlink:href="#0f063cb7n" x="73.33433" y="193.7418"/><use xlink:href="#0f063cb7o" x="80.00133" y="193.7418"/><use xlink:href="#0f063cb7p" x="86.66833" y="193.7418"/><use xlink:href="#0f063cb7q" x="93.33533" y="193.7418"/><use xlink:href="#0f063cb7k" x="100.00233" y="193.7418"/><use xlink:href="#0f063cb7o" x="106.66933" y="193.7418"/><use xlink:href="#0f063cb7r" x="113.33633" y="193.7418"/><use xlink:href="#0f063cb7s" x="120.00333" y="193.7418"/><use xlink:href="#0f063cb7q" x="126.67033" y="193.7418"/><use xlink:href="#0f063cb7t" x="133.33733" y="193.7418"/><use xlink:href="#0f063cb7p" x="140.00433" y="193.7418"/><use xlink:href="#0f063cb7o" x="146.67133" y="193.7418"/><use xlink:href="#0f063cb7u" x="153.33833" y="193.7418"/><use xlink:href="#0f063cb7v" x="160.00533" y="193.7418"/><use xlink:href="#0f063cb7w" x="166.67233" y="193.7418"/><use xlink:href="#0f063cb7q" x="173.33933" y="193.7418"/><use xlink:href="#0f063cb7J" x="180.00633" y="193.7418"/><use xlink:href="#0f063cb7K" x="186.67333" y="193.7418"/><use xlink:href="#0f063cb7L" x="193.34033" y="193.7418"/><use xlink:href="#0f063cb7p" x="200.00733" y="193.7418"/><use xlink:href="#0f063cb7o" x="206.67433" y="193.7418"/><use xlink:href="#0f063cb7n" x="213.34133" y="193.7418"/><use xlink:href="#0f063cb7v" x="220.00833" y="193.7418"/><use xlink:href="#0f063cb7M" x="226.67533" y="193.7418"/><use xlink:href="#0f063cb7y" x="233.34233" y="193.7418"/><use xlink:href="#0f063cb7L" x="240.00933" y="193.7418"/></g><use xlink:href="#0f063cb7N" x="57.79963" y="256.92626"/><use xlink:href="#0f063cb7O" x="95.41963" y="256.92626"/><use xlink:href="#0f063cb7P" x="105.01363" y="256.92626"/><use xlink:href="#0f063cb7Q" x="113.22163" y="256.92626"/><use xlink:href="#0f063cb7Q" x="117.35713" y="256.92626"/><use xlink:href="#0f063cb7Q" x="121.49263" y="256.92626"/><use xlink:href="#0f063cb7R" x="125.62813" y="256.92626"/><use xlink:href="#0f063cb7S" x="148.39363" y="256.92626"/><use xlink:href="#0f063cb7T" x="154.61263" y="256.92626"/><use xlink:href="#0f063cb7U" x="167.88313" y="256.92626"/><use xlink:href="#0f063cb7V" x="188.72713" y="256.92626"/><use xlink:href="#0f063cb7W" x="202.25863" y="256.92626"/><use xlink:href="#0f063cb7R" x="219.06613" y="256.92626"/><g fill-opacity=".33"><use xlink:href="#0f063cb7k" x="70" y="292.7787"/><use xlink:href="#0f063cb7l" x="76.667" y="292.7787"/><use xlink:href="#0f063cb7m" x="83.334" y="292.7787"/><use xlink:href="#0f063cb7n" x="90.001" y="292.7787"/><use xlink:href="#0f063cb7o" x="96.668" y="292.7787"/><use xlink:href="#0f063cb7p" x="103.335" y="292.7787"/><use xlink:href="#0f063cb7q" x="110.002" y="292.7787"/><use xlink:href="#0f063cb7k" x="116.669" y="292.7787"/><use xlink:href="#0f063cb7o" x="123.336" y="292.7787"/><use xlink:href="#0f063cb7r" x="130.003" y="292.7787"/><use xlink:href="#0f063cb7s" x="136.67" y="292.7787"/><use xlink:href="#0f063cb7q" x="143.337" y="292.7787"/><use xlink:href="#0f063cb7t" x="150.004" y="292.7787"/><use xlink:href="#0f063cb7p" x="156.671" y="292.7787"/><use xlink:href="#0f063cb7o" x="163.338" y="292.7787"/><use xlink:href="#0f063cb7u" x="170.005" y="292.7787"/><use xlink:href="#0f063cb7v" x="176.672" y="292.7787"/><use xlink:href="#0f063cb7w" x="183.339" y="292.7787"/><use xlink:href="#0f063cb7q" x="190.006" y="292.7787"/><use xlink:href="#0f063cb7X" x="196.673" y="292.7787"/><use xlink:href="#0f063cb7v" x="203.34" y="292.7787"/><use xlink:href="#0f063cb7M" x="210.007" y="292.7787"/><use xlink:href="#0f063cb7y" x="216.674" y="292.7787"/><use xlink:href="#0f063cb7L" x="223.341" y="292.7787"/></g><use xlink:href="#0f063cb7Y" x="56.37684" y="355.96316"/><use xlink:href="#0f063cb7Z" x="94.49634" y="355.96316"/><use xlink:href="#0f063cb7aa" x="104.26584" y="355.96316"/><use xlink:href="#0f063cb7ab" x="112.68534" y="355.96316"/><use xlink:href="#0f063cb7ab" x="116.87484" y="355.96316"/><use xlink:href="#0f063cb7ab" x="121.06434" y="355.96316"/><use xlink:href="#0f063cb7ac" x="125.25384" y="355.96316"/><use xlink:href="#0f063cb7ad" x="148.56834" y="355.96316"/><use xlink:href="#0f063cb7ae" x="154.73784" y="355.96316"/><use xlink:href="#0f063cb7af" x="168.28734" y="355.96316"/><use xlink:href="#0f063cb7ag" x="189.12684" y="355.96316"/><use xlink:href="#0f063cb7ah" x="202.99134" y="355.96316"/><use xlink:href="#0f063cb7ac" x="220.00584" y="355.96316"/><g fill-opacity=".33"><use xlink:href="#0f063cb7k" x="63.33333" y="391.8156"/><use xlink:href="#0f063cb7l" x="70.00033" y="391.8156"/><use xlink:href="#0f063cb7m" x="76.66733" y="391.8156"/><use xlink:href="#0f063cb7n" x="83.33433" y="391.8156"/><use xlink:href="#0f063cb7o" x="90.00133" y="391.8156"/><use xlink:href="#0f063cb7p" x="96.66833" y="391.8156"/><use xlink:href="#0f063cb7q" x="103.33533" y="391.8156"/><use xlink:href="#0f063cb7k" x="110.00233" y="391.8156"/><use xlink:href="#0f063cb7o" x="116.66933" y="391.8156"/><use xlink:href="#0f063cb7r" x="123.33633" y="391.8156"/><use xlink:href="#0f063cb7s" x="130.00333" y="391.8156"/><use xlink:href="#0f063cb7q" x="136.67033" y="391.8156"/><use xlink:href="#0f063cb7t" x="143.33733" y="391.8156"/><use xlink:href="#0f063cb7p" x="150.00433" y="391.8156"/><use xlink:href="#0f063cb7o" x="156.67133" y="391.8156"/><use xlink:href="#0f063cb7u" x="163.33833" y="391.8156"/><use xlink:href="#0f063cb7v" x="170.00533" y="391.8156"/><use xlink:href="#0f063cb7w" x="176.67233" y="391.8156"/><use xlink:href="#0f063cb7q" x="183.33933" y="391.8156"/><use xlink:href="#0f063cb7ai" x="190.00633" y="391.8156"/><use xlink:href="#0f063cb7aj" x="196.67333" y="391.8156"/><use xlink:href="#0f063cb7M" x="203.34033" y="391.8156"/><use xlink:href="#0f063cb7ak" x="210.00733" y="391.8156"/><use xlink:href="#0f063cb7n" x="216.67433" y="391.8156"/><use xlink:href="#0f063cb7o" x="223.34133" y="391.8156"/><use xlink:href="#0f063cb7p" x="230.00833" y="391.8156"/></g><use xlink:href="#0f063cb7al" x="54.83824" y="454.99996"/><use xlink:href="#0f063cb7am" x="93.52024" y="454.99996"/><use xlink:href="#0f063cb7an" x="103.53724" y="454.99996"/><use xlink:href="#0f063cb7ao" x="112.15924" y="454.99996"/><use xlink:href="#0f063cb7ao" x="116.41624" y="454.99996"/><use xlink:href="#0f063cb7ao" x="120.67324" y="454.99996"/><use xlink:href="#0f063cb7ap" x="124.93024" y="454.99996"/><use xlink:href="#0f063cb7aq" x="154.99924" y="454.99996"/><use xlink:href="#0f063cb7ar" x="168.79624" y="454.99996"/><use xlink:href="#0f063cb7as" x="189.65824" y="454.99996"/><use xlink:href="#0f063cb7at" x="203.86024" y="454.99996"/><use xlink:href="#0f063cb7ap" x="221.03224" y="454.99996"/><g fill-opacity=".33"><use xlink:href="#0f063cb7k" x="66.66667" y="490.8524"/><use xlink:href="#0f063cb7l" x="73.33367" y="490.8524"/><use xlink:href="#0f063cb7m" x="80.00067" y="490.8524"/><use xlink:href="#0f063cb7n" x="86.66767" y="490.8524"/><use xlink:href="#0f063cb7o" x="93.33467" y="490.8524"/><use xlink:href="#0f063cb7p" x="100.00167" y="490.8524"/><use xlink:href="#0f063cb7q" x="106.66867" y="490.8524"/><use xlink:href="#0f063cb7k" x="113.33567" y="490.8524"/><use xlink:href="#0f063cb7o" x="120.00267" y="490.8524"/><use xlink:href="#0f063cb7r" x="126.66967" y="490.8524"/><use xlink:href="#0f063cb7s" x="133.33667" y="490.8524"/><use xlink:href="#0f063cb7q" x="140.00367" y="490.8524"/><use xlink:href="#0f063cb7t" x="146.67067" y="490.8524"/><use xlink:href="#0f063cb7p" x="153.33767" y="490.8524"/><use xlink:href="#0f063cb7o" x="160.00467" y="490.8524"/><use xlink:href="#0f063cb7u" x="166.67167" y="490.8524"/><use xlink:href="#0f063cb7v" x="173.33867" y="490.8524"/><use xlink:href="#0f063cb7w" x="180.00567" y="490.8524"/><use xlink:href="#0f063cb7q" x="186.67267" y="490.8524"/><use xlink:href="#0f063cb7au" x="193.33967" y="490.8524"/><use xlink:href="#0f063cb7aj" x="200.00667" y="490.8524"/><use xlink:href="#0f063cb7av" x="206.67367" y="490.8524"/><use xlink:href="#0f063cb7v" x="213.34067" y="490.8524"/><use xlink:href="#0f063cb7ak" x="220.00767" y="490.8524"/><use xlink:href="#0f063cb7aw" x="226.67467" y="490.8524"/></g><use xlink:href="#0f063cb7ax" x="53.8125" y="554.03686"/><use xlink:href="#0f063cb7ay" x="92.8545" y="554.03686"/><use xlink:href="#0f063cb7az" x="103.047" y="554.03686"/><use xlink:href="#0f063cb7aA" x="111.8175" y="554.03686"/><use xlink:href="#0f063cb7aA" x="116.1195" y="554.03686"/><use xlink:href="#0f063cb7aA" x="120.4215" y="554.03686"/><use xlink:href="#0f063cb7aB" x="124.7235" y="554.03686"/><use xlink:href="#0f063cb7aC" x="149.0775" y="554.03686"/><use xlink:href="#0f063cb7aD" x="155.1345" y="554.03686"/><use xlink:href="#0f063cb7aE" x="169.1295" y="554.03686"/><use xlink:href="#0f063cb7aF" x="190.041" y="554.03686"/><use xlink:href="#0f063cb7aG" x="204.468" y="554.03686"/><use xlink:href="#0f063cb7aB" x="221.775" y="554.03686"/><g fill-opacity=".33"><use xlink:href="#0f063cb7k" x="60" y="589.8893"/><use xlink:href="#0f063cb7l" x="66.667" y="589.8893"/><use xlink:href="#0f063cb7m" x="73.334" y="589.8893"/><use xlink:href="#0f063cb7n" x="80.001" y="589.8893"/><use xlink:href="#0f063cb7o" x="86.668" y="589.8893"/><use xlink:href="#0f063cb7p" x="93.335" y="589.8893"/><use xlink:href="#0f063cb7q" x="100.002" y="589.8893"/><use xlink:href="#0f063cb7k" x="106.669" y="589.8893"/><use xlink:href="#0f063cb7o" x="113.336" y="589.8893"/><use xlink:href="#0f063cb7r" x="120.003" y="589.8893"/><use xlink:href="#0f063cb7s" x="126.67" y="589.8893"/><use xlink:href="#0f063cb7q" x="133.337" y="589.8893"/><use xlink:href="#0f063cb7t" x="140.004" y="589.8893"/><use xlink:href="#0f063cb7p" x="146.671" y="589.8893"/><use xlink:href="#0f063cb7o" x="153.338" y="589.8893"/><use xlink:href="#0f063cb7u" x="160.005" y="589.8893"/><use xlink:href="#0f063cb7v" x="166.672" y="589.8893"/><use xlink:href="#0f063cb7w" x="173.339" y="589.8893"/><use xlink:href="#0f063cb7q" x="180.006" y="589.8893"/><use xlink:href="#0f063cb7k" x="186.673" y="589.8893"/><use xlink:href="#0f063cb7aj" x="193.34" y="589.8893"/><use xlink:href="#0f063cb7aw" x="200.007" y="589.8893"/><use xlink:href="#0f063cb7v" x="206.674" y="589.8893"/><use xlink:href="#0f063cb7u" x="213.341" y="589.8893"/><use xlink:href="#0f063cb7m" x="220.008" y="589.8893"/><use xlink:href="#0f063cb7n" x="226.675" y="589.8893"/><use xlink:href="#0f063cb7av" x="233.342" y="589.8893"/></g><use xlink:href="#0f063cb7aH" x="50.66912" y="653.07376"/><g><use xlink:href="#0f063cb7aI" x="90.70562" y="653.07376"/></g><g><use xlink:href="#0f063cb7aJ" x="101.36162" y="653.07376"/></g><g><use xlink:href="#0f063cb7aK" x="110.62712" y="653.07376"/></g><g><use xlink:href="#0f063cb7aK" x="115.09562" y="653.07376"/></g><g><use xlink:href="#0f063cb7aK" x="119.56412" y="653.07376"/></g><g><use xlink:href="#0f063cb7aL" x="124.03262" y="653.07376"/><use xlink:href="#0f063cb7aM" x="149.41262" y="653.07376"/></g><g><use xlink:href="#0f063cb7aN" x="155.16812" y="653.07376"/><use xlink:href="#0f063cb7aO" x="169.79312" y="653.07376"/></g><g><use xlink:href="#0f063cb7aP" x="190.97012" y="653.07376"/></g><g><use xlink:href="#0f063cb7aQ" x="206.12612" y="653.07376"/></g><g><use xlink:href="#0f063cb7aL" x="223.95962" y="653.07376"/></g><g fill-opacity=".33"><use xlink:href="#0f063cb7k" x="73.33333" y="688.9262"/><use xlink:href="#0f063cb7l" x="80.00033" y="688.9262"/><use xlink:href="#0f063cb7m" x="86.66733" y="688.9262"/><use xlink:href="#0f063cb7n" x="93.33433" y="688.9262"/><use xlink:href="#0f063cb7o" x="100.00133" y="688.9262"/><use xlink:href="#0f063cb7p" x="106.66833" y="688.9262"/><use xlink:href="#0f063cb7q" x="113.33533" y="688.9262"/><use xlink:href="#0f063cb7k" x="120.00233" y="688.9262"/><use xlink:href="#0f063cb7o" x="126.66933" y="688.9262"/><use xlink:href="#0f063cb7r" x="133.33633" y="688.9262"/><use xlink:href="#0f063cb7s" x="140.00333" y="688.9262"/><use xlink:href="#0f063cb7q" x="146.67033" y="688.9262"/><use xlink:href="#0f063cb7t" x="153.33733" y="688.9262"/><use xlink:href="#0f063cb7p" x="160.00433" y="688.9262"/><use xlink:href="#0f063cb7o" x="166.67133" y="688.9262"/><use xlink:href="#0f063cb7u" x="173.33833" y="688.9262"/><use xlink:href="#0f063cb7v" x="180.00533" y="688.9262"/><use xlink:href="#0f063cb7w" x="186.67233" y="688.9262"/><use xlink:href="#0f063cb7q" x="193.33933" y="688.9262"/><use xlink:href="#0f063cb7aR" x="200.00633" y="688.9262"/><use xlink:href="#0f063cb7m" x="206.67333" y="688.9262"/><use xlink:href="#0f063cb7n" x="213.34033" y="688.9262"/><use xlink:href="#0f063cb7av" x="220.00733" y="688.9262"/></g><g><use xlink:href="#0f063cb7aS" x="46.3511" y="752.11066"/></g><g><use xlink:href="#0f063cb7aT" x="87.7781" y="752.11066"/></g><g><use xlink:href="#0f063cb7aU" x="99.0956" y="752.11066"/></g><g><use xlink:href="#0f063cb7aV" x="109.0901" y="752.11066"/></g><g><use xlink:href="#0f063cb7aV" x="113.7566" y="752.11066"/></g><g><use xlink:href="#0f063cb7aV" x="118.4231" y="752.11066"/></g><g><use xlink:href="#0f063cb7aW" x="123.0896" y="752.11066"/></g><g><use xlink:href="#0f063cb7aX" x="149.7926" y="752.11066"/></g><g><use xlink:href="#0f063cb7aY" x="155.0846" y="752.11066"/></g><g><use xlink:href="#0f063cb7aZ" x="170.6366" y="752.11066"/></g><g><use xlink:href="#0f063cb7ba" x="192.1781" y="752.11066"/></g><g><use xlink:href="#0f063cb7bb" x="208.3241" y="752.11066"/><use xlink:href="#0f063cb7aW" x="226.9541" y="752.11066"/></g><g fill-opacity=".33"><use xlink:href="#0f063cb7k" x="56.66667" y="787.9631"/><use xlink:href="#0f063cb7l" x="63.33367" y="787.9631"/><use xlink:href="#0f063cb7m" x="70.00067" y="787.9631"/><use xlink:href="#0f063cb7n" x="76.66767" y="787.9631"/><use xlink:href="#0f063cb7o" x="83.33467" y="787.9631"/><use xlink:href="#0f063cb7p" x="90.00167" y="787.9631"/><use xlink:href="#0f063cb7q" x="96.66867" y="787.9631"/><use xlink:href="#0f063cb7k" x="103.33567" y="787.9631"/><use xlink:href="#0f063cb7o" x="110.00267" y="787.9631"/><use xlink:href="#0f063cb7r" x="116.66967" y="787.9631"/><use xlink:href="#0f063cb7s" x="123.33667" y="787.9631"/><use xlink:href="#0f063cb7q" x="130.00367" y="787.9631"/><use xlink:href="#0f063cb7t" x="136.67067" y="787.9631"/><use xlink:href="#0f063cb7p" x="143.33767" y="787.9631"/><use xlink:href="#0f063cb7o" x="150.00467" y="787.9631"/><use xlink:href="#0f063cb7u" x="156.67167" y="787.9631"/><use xlink:href="#0f063cb7v" x="163.33867" y="787.9631"/><use xlink:href="#0f063cb7w" x="170.00567" y="787.9631"/><use xlink:href="#0f063cb7q" x="176.67267" y="787.9631"/><use xlink:href="#0f063cb7J" x="183.33967" y="787.9631"/><use xlink:href="#0f063cb7K" x="190.00667" y="787.9631"/><use xlink:href="#0f063cb7L" x="196.67367" y="787.9631"/><use xlink:href="#0f063cb7p" x="203.34067" y="787.9631"/><use xlink:href="#0f063cb7o" x="210.00767" y="787.9631"/><use xlink:href="#0f063cb7u" x="216.67467" y="787.9631"/><use xlink:href="#0f063cb7m" x="223.34167" y="787.9631"/><use xlink:href="#0f063cb7n" x="230.00867" y="787.9631"/><use xlink:href="#0f063cb7av" x="236.67567" y="787.9631"/></g><g><use xlink:href="#0f063cb7bc" x="41.40441" y="851.14756"/><use xlink:href="#0f063cb7bd" x="84.35241" y="851.14756"/><use xlink:href="#0f063cb7be" x="96.43041" y="851.14756"/><use xlink:href="#0f063cb7bf" x="107.24841" y="851.14756"/></g><g><use xlink:href="#0f063cb7bf" x="112.17141" y="851.14756"/></g><g><use xlink:href="#0f063cb7bf" x="117.09441" y="851.14756"/></g><g><use xlink:href="#0f063cb7bg" x="122.01741" y="851.14756"/><use xlink:href="#0f063cb7bh" x="150.20541" y="851.14756"/></g><g><use xlink:href="#0f063cb7bi" x="154.94841" y="851.14756"/><use xlink:href="#0f063cb7bj" x="171.57141" y="851.14756"/></g><g><use xlink:href="#0f063cb7bk" x="193.59441" y="851.14756"/></g><g><use xlink:href="#0f063cb7bl" x="210.84741" y="851.14756"/></g><g><use xlink:href="#0f063cb7bg" x="230.39541" y="851.14756"/></g><g fill-opacity=".33"><use xlink:href="#0f063cb7k" x="70" y="887"/><use xlink:href="#0f063cb7l" x="76.667" y="887"/><use xlink:href="#0f063cb7m" x="83.334" y="887"/><use xlink:href="#0f063cb7n" x="90.001" y="887"/><use xlink:href="#0f063cb7o" x="96.668" y="887"/><use xlink:href="#0f063cb7p" x="103.335" y="887"/><use xlink:href="#0f063cb7q" x="110.002" y="887"/><use xlink:href="#0f063cb7k" x="116.669" y="887"/><use xlink:href="#0f063cb7o" x="123.336" y="887"/><use xlink:href="#0f063cb7r" x="130.003" y="887"/><use xlink:href="#0f063cb7s" x="136.67" y="887"/><use xlink:href="#0f063cb7q" x="143.337" y="887"/><use xlink:href="#0f063cb7t" x="150.004" y="887"/><use xlink:href="#0f063cb7p" x="156.671" y="887"/><use xlink:href="#0f063cb7o" x="163.338" y="887"/><use xlink:href="#0f063cb7u" x="170.005" y="887"/><use xlink:href="#0f063cb7v" x="176.672" y="887"/><use xlink:href="#0f063cb7w" x="183.339" y="887"/><use xlink:href="#0f063cb7q" x="190.006" y="887"/><use xlink:href="#0f063cb7aR" x="196.673" y="887"/><use xlink:href="#0f063cb7n" x="203.34" y="887"/><use xlink:href="#0f063cb7o" x="210.007" y="887"/><use xlink:href="#0f063cb7w" x="216.674" y="887"/><use xlink:href="#0f063cb7l" x="223.341" y="887"/></g></svg>