<?xml version='1.0' encoding='UTF-8'?>
<svg xmlns="http://www.w3.org/2000/svg" xmlns:xlink="http://www.w3.org/1999/xlink" width="200px" height="340px" viewBox="0 0 200 340" x="0px" y="0px" enable-background="new 0 0 200 340"><defs><symbol overflow="visible" id="46b64208a"><path d="M31.844-24.39c-.516 0-1.563.14-4.297.14-1.016 0-2.594-.11-3.219-.11-.531 0-1.094.11-1.094.876 0 .312.25.562.641.593 2.094.282 2.203.985 2.313 1.688.203 1.562.203 3.531.203 5.484 0 3.047-.11 6.203-.11 7.906 0 .922 0 1.235-.312 1.235-.14 0-.344-.14-.657-.484-3.75-3.72-11.203-11.594-15.828-16.5-.593-.625-.906-.688-1.359-.688-1.156 0-4.453-.188-5.078-.188-.625.047-1.297.391-1.297 1.157 0 .36.313.593.734.64 2.344.141 3.11.828 3.25 1.782.11.797.188 2.875.188 5.843 0 5.875-.188 10.329-.328 12.079-.063.843-.14 1.218-1.89 1.718-.517.14-.767.407-.767.969 0 .281.313.5.704.5.312 0 1.187-.188 3.64-.219 1.188 0 2.453.032 3.078.032 1.297-.032 1.61-.485 1.61-.938 0-.39-.203-.594-.656-.594-1.97 0-2.704-.25-2.813-1.297-.203-2.375-.422-11.718-.422-15.578 0-.765.14-.968.422-.968.313 0 .594.265 1.063.828 3.25 4.03 8.28 8.828 12.203 13.093 2.453 2.657 3.468 4.094 4.515 5.36.39.484.782.734 1.188.734.468 0 .922-.5.922-1.64 0-.875-.11-4.063-.11-5.75 0-4.72.25-8.891.657-14.11.109-1.25.562-1.64 2.593-2.062.703-.141.813-.563.813-.97-.032-.25-.11-.562-.5-.562zm0 0"/></symbol><symbol overflow="visible" id="46b64208b"><path d="M9.203-16.453c-5.25 0-8.187 5.015-8.187 9.562 0 3.782 2.14 7.344 6.718 7.344 3.391 0 6.125-2.203 6.125-4.406 0-.531-.25-.906-.562-.906-.313 0-.313.28-.563.687-.828 1.406-2.171 1.938-3.562 1.938-3.11 0-5.219-2.672-5.219-6.125 0-.594.25-1.063.875-1.063 7.281 0 8.578-.484 9.063-.906.25-.172.312-.422.312-1.047 0-2.516-1.469-5.078-5-5.078zm-1.5 1.719c1.922 0 3 1.64 3 2.734 0 1.39-2.969 1.39-3.812 1.39-2.485 0-2.579-.14-2.579-.562 0-1.531 1.672-3.562 3.391-3.562zm0 0"/></symbol><symbol overflow="visible" id="46b64208c"><path d="M8.36-16.734c-1.954 0-6.75 2.39-6.75 4.484 0 .313.171.906.765.906 3.016 0 2.172-2.547 3.36-3.281.28-.188.64-.281 1.015-.281 1.61 0 2.813 1.36 2.813 4.547 0 1.718-.079 1.89-.422 1.953-3.36.672-7.985 1.469-7.985 5.078C1.156-.672 2.906.39 4.688.39c1.437 0 2.734-.594 4-1.547.406-.313.484-.39.593-.39.14 0 .172.25.281.64.344 1.25 1 1.39 1.813 1.39 2 0 3.922-1.609 3.922-3.25 0-.25-.14-.39-.313-.39-.109 0-.171.047-.421.281-.391.39-1.047.984-1.579.984-.734 0-1.015-.703-1.015-1.921 0-2.766.812-5.047.812-7.985 0-2.234-1.234-4.937-4.422-4.937zM9-7.11c.313 0 .313.28.313.843 0 3.297-.032 3.36-.313 3.641-.563.531-1.688 1.078-2.594 1.078-1.218 0-1.828-1.078-1.828-2.203 0-2.234 2.875-3.36 4.422-3.36zm0 0"/></symbol><symbol overflow="visible" id="46b64208d"><path d="M10.672-16.453c-5.563 0-9.375 4.234-9.375 9.312C1.297-3.016 3.64.484 8.469.484c2.656 0 6.062-1.328 6.062-4.125 0-.39-.187-.765-.422-.765-.078 0-.171 0-.28.172-.985 1.64-2.345 2.28-3.72 2.28-3.64 0-5.875-3.89-5.875-7.327 0-2.578 1.407-5.172 4.344-5.172 1.469 0 2.797.844 4.063 1.89.203.172.312.25.484.25.813 0 1.89-1.484 1.89-2.25a.76.76 0 00-.171-.515c-.703-.844-2.531-1.375-4.172-1.375zm0 0"/></symbol><symbol overflow="visible" id="46b64208e"><path d="M16.453-28.594c-.703 0-1.437.453-4.687 1.125-.844.172-1.094.547-1.094.969 0 .5.172.64.672.64 1.61 0 1.984.094 2.125.876.25 1.422.328 4.578.328 8.562 0 .422-.047.672-.219.672-.203 0-.937-.313-2.547-.313-5.047 0-10.047 3.641-10.047 8.891C.984-3.609 3.11.281 7 .281c2.313 0 4.031-.953 5.219-1.687.625-.375.844-.547.969-.547.109 0 .187.094.187.266 0 .5-.188 1.437-.188 2.03 0 .391.141.704.47.704.28 0 1.359-.313 2.765-.484C18.406.313 19.5-.141 19.5-1.329c0-.14-.078-.281-.219-.281-.312 0-1.078.312-1.953.312-1.094 0-1.187-1.39-1.187-4.203 0-5.875.343-16.906.547-19.11.187-1.984.39-2.937.39-3.421 0-.36-.344-.563-.625-.563zm-3.297 17.157c.281.656.281 1.28.281 3.109 0 1.812-.03 3.078-.14 4.625-.063.828-2.094 1.5-3.531 1.5-3.61 0-5.672-3.39-5.672-6.656 0-2.688 1.578-5.313 4.515-5.313 1.86 0 3.813 1.078 4.547 2.735zm0 0"/></symbol><symbol overflow="visible" id="46b64208f"><path d="M6.406-17.016c-.593 0-1.125.5-3.672 1.407-1.156.421-1.437.796-1.437 1.218 0 .329.062.5.39.5 1.875 0 1.922.422 2.094 1.985.14 1.156.14 2.875.14 4.203 0 5.187 0 6.125-1.437 6.766-.562.234-.593.593-.593.796 0 .203.109.344.343.344.532 0 1.938-.14 3.188-.14 1.719 0 2.14.046 2.562.046.594 0 1.22-.14 1.22-.843 0-.485-.313-.391-1.892-.704-.515-.109-.656-.312-.656-2.125 0-3.468.375-7.703.594-8.578.281-1.125 2.063-1.89 3.39-1.89 2.485 0 3.047 3.047 3.047 6.094 0 1.25 0 5.14-.812 6.078-.766.921-1.61.64-1.61 1.609 0 .219.11.36.36.36.516 0 1.89-.079 3.14-.079 1.891 0 2.032.078 2.672.078.547 0 1-.28 1-.78 0-.485-.734-.376-1.53-.735-.485-.203-.595-.547-.595-1.844 0-.922.375-3.86.375-8.156 0-.985 1.407-2.39 3.375-2.39 2.75 0 3.172 2.171 3.172 5.155 0 6.547-.547 7.094-1.78 7.516-.517.188-.704.5-.704.922 0 .172.11.344.36.344.421 0 .515-.11 3.078-.11.937 0 2.687.032 3 .032 1.125 0 1.937-.094 1.937-.938 0-.563-.734-.281-2.422-.594-.562-.11-.703-.312-.703-.812 0-3.64.36-5.172.36-8.156 0-3.36-1.235-5.766-3.782-5.766-1.719 0-3.86 1.219-5.25 2.094-.453.28-.672.421-.812.421-.141 0-.203-.062-.453-.562-.594-1.188-1.86-2.063-3.22-2.063-2.234 0-5.14 2.25-5.734 2.25-.14 0-.218-.078-.218-.39 0-.735.109-1.438.109-1.86 0-.453-.313-.703-.594-.703zm0 0"/></symbol><symbol overflow="visible" id="46b64208g"><path d="M6.234-25.719c-1.156 0-2.39.907-2.39 2.235 0 .906.594 1.953 1.937 1.953 1.282 0 2.375-1.157 2.375-2.266 0-1.265-.953-1.922-1.922-1.922zM7-17.156c-.672 0-.672.5-4.094 1.75-.844.281-1.125.781-1.125 1.203 0 .312.078.484.39.484.313 0 .657-.031.876-.031.625 0 .875.14 1.015.656.172.813.25 1.656.25 4.656 0 5.61 0 6.75-1.656 7.5-.562.235-.594.625-.594.829 0 .218.11.359.36.359.594 0 1.187-.219 4.437-.219.563 0 .954.032 1.297.032.485 0 1.578-.032 1.578-.907 0-.562-.593-.281-1.859-.484-.422-.078-.766-.281-.766-2.11 0-9.546.485-10.703.485-13.015 0-.453-.313-.703-.594-.703zm0 0"/></symbol><symbol overflow="visible" id="46b64208h"><path d="M2.219-8.047H1.125V0H2v-5.656l-.031-1.11h.015l.532 1.047L5.906 0h1.11v-8.047h-.891v5.531l.047 1.297h-.016l-.547-1.14zm0 0"/></symbol><symbol overflow="visible" id="46b64208i"><path d="M.64-2.688C.64-.843 1.688.126 3.079.126c.672 0 1.344-.14 2-.453L4.844-1a4.468 4.468 0 01-1.61.297c-.937 0-1.578-.563-1.64-1.86h3.531c.063-.296.078-.624.078-.921 0-1.282-.672-2.282-2.016-2.282-1.578 0-2.546 1.36-2.546 3.079zm2.47-2.28c.765 0 1.156.546 1.156 1.312 0 .125 0 .265-.016.406H1.61c.124-1.063.64-1.719 1.5-1.719zm0 0"/></symbol><symbol overflow="visible" id="46b64208j"><path d="M1.266-2.625C.796-2.328.5-1.844.5-1.265c0 .859.563 1.39 1.469 1.39.687 0 1.36-.313 1.937-.828l.172.765.797-.124c-.094-1.188-.094-1.672-.094-2.11v-1.437c0-1.485-.531-2.125-1.734-2.125-.89 0-1.672.375-2.297.906l.344.594c.593-.407 1.218-.672 1.781-.672.703 0 .969.406.969 1.593v.079c-1.297.109-2.094.296-2.578.609zm.156 1.25c0-.36.172-.594.36-.734.296-.188.827-.329 2.062-.422v1.125c-.594.5-1.188.781-1.688.781-.453 0-.734-.266-.734-.75zm0 0"/></symbol><symbol overflow="visible" id="46b64208k"><path d="M.64-2.656C.64-.937 1.579.125 3.11.125c.53 0 1.156-.14 1.734-.406L4.625-1c-.5.203-1 .297-1.39.297-1.032 0-1.641-.656-1.641-2.078 0-.875.25-1.5.656-1.844.203-.156.484-.297.875-.297.469 0 .875.188 1.297.578l.469-.547c-.422-.546-.954-.843-1.704-.843-1.53 0-2.546 1.25-2.546 3.078zm0 0"/></symbol><symbol overflow="visible" id="46b64208l"><path d="M.64-2.61C.64-1.03 1.532.173 2.782.173c.703 0 1.266-.36 1.766-.89l.156.765.797-.11c-.094-1.093-.094-1.578-.094-1.984v-6.969l-.953.032v3.609c-.39-.25-.75-.39-1.266-.39C1.47-5.766.626-4.157.642-2.61zm.97-.203c0-.703.156-1.374.562-1.78.234-.25.562-.36 1.047-.36a2.4 2.4 0 011.234.328v3.188c-.5.468-.984.796-1.516.796-.874 0-1.328-.921-1.328-2.171zm0 0"/></symbol><symbol overflow="visible" id="46b64208m"><path d="M1.672-5.688l-.797.11c.094 1.234.094 1.734.094 2.172V0h.953v-4.219c.484-.406 1.016-.734 1.578-.734.656 0 .875.453.875 1.562V0h.922v-3.75c0-.172 0-.328-.016-.469.485-.406 1.032-.734 1.594-.734.656 0 .86.453.86 1.562V0h.952v-3.75c0-1.313-.453-2.016-1.562-2.016-.781 0-1.375.329-1.969.922-.218-.61-.656-.922-1.406-.922-.766 0-1.344.313-1.906.875zm0 0"/></symbol><symbol overflow="visible" id="46b64208n"><path d="M.797-7.313c0 .36.25.594.625.594.406 0 .672-.265.672-.656 0-.375-.25-.61-.625-.61-.407 0-.672.266-.672.673zM1.89-5.609l-.938.015V0h.938zm0 0"/></symbol><symbol overflow="visible" id="46b64208p"><path d="M.781-5.953C.781-4.563 1.906-4.11 3-3.687c.984.359 1.89.671 1.89 1.624 0 .985-.937 1.36-1.843 1.36a4.28 4.28 0 01-2.172-.61L.5-.578c.594.437 1.578.75 2.531.75 1.516 0 2.86-.75 2.86-2.313 0-1.468-1.235-1.906-2.391-2.343-.922-.344-1.719-.657-1.719-1.547 0-1.016.985-1.297 1.782-1.297.656 0 1.312.156 1.796.328l.282-.734c-.547-.282-1.313-.47-2.032-.47-1.406 0-2.828.673-2.828 2.25zm0 0"/></symbol><symbol overflow="visible" id="46b64208q"><path d="M6.39-8.047H.298l.031.844h2.547V0h.953v-7.203H6.36zm0 0"/></symbol><symbol overflow="visible" id="46b64208r"><path d="M1.578-5.61H.562c.016.188.094.36.22.532l1.421 2.125L.593-.516C.485-.344.392-.187.376 0h.89l1.5-2.313h.016L4.312 0h.954a.947.947 0 00-.22-.516l-1.64-2.421 1.438-2.141c.125-.172.203-.344.234-.531h-.906L2.859-3.563h-.03zm0 0"/></symbol><symbol overflow="visible" id="46b64208s"><path d="M2.188-7.266h-.782l-.218 1.657H.39v.78h.843v3.188c0 1.344.407 1.766 1.313 1.766.422 0 .953-.078 1.437-.25l-.187-.719c-.344.094-.703.14-.906.14-.563 0-.704-.25-.704-1.187v-2.937h1.72v-.781h-1.72zm0 0"/></symbol><symbol overflow="visible" id="46b64208t"><path d="M1.125-7.984V0h.953v-3.281c.297.031.625.047.844.047.265 0 .484-.016.703-.047L5.406 0h1.032a8.004 8.004 0 00-.36-.75L4.547-3.5c1.062-.422 1.656-1.281 1.656-2.36 0-1.515-1.172-2.312-3.094-2.312-.593 0-1.312.078-1.984.188zm2 .671c1.328 0 2.078.5 2.078 1.547 0 .735-.39 1.204-.922 1.454a3.66 3.66 0 01-1.375.25c-.297 0-.547-.032-.828-.047v-3.11a6.493 6.493 0 011.047-.093zm0 0"/></symbol><symbol overflow="visible" id="46b64208u"><path d="M1.172-.89c0 .25.062.437.187.578C.734.124.344.64.344 1.343c-.016 1.078.969 1.703 2.328 1.703 1.594 0 2.812-.797 2.812-2.11 0-1.109-.859-1.562-2.25-1.578-.734-.015-1.187-.062-1.187-.578 0-.203.094-.36.203-.531.156.016.328.031.5.031C4.203-1.719 5-2.64 5-3.766c0-.5-.156-.937-.469-1.28a4.024 4.024 0 011.078-.25l-.046-.829c-.625.031-1.125.313-1.5.672a2.515 2.515 0 00-1.188-.281C1.359-5.734.641-4.688.641-3.641c0 .735.359 1.391 1.046 1.704-.343.343-.515.656-.515 1.046zm2.922-2.813c0 .828-.516 1.25-1.282 1.25-.874 0-1.28-.5-1.28-1.297 0-.781.515-1.234 1.28-1.234.86 0 1.282.5 1.282 1.28zM1.219 1.234c0-.484.25-.859.718-1.187.313.094.672.11.985.11.984.015 1.687.124 1.687.905 0 .329-.14.61-.39.829-.328.265-.844.375-1.407.375-.953 0-1.593-.329-1.593-1.032zm0 0"/></symbol><symbol overflow="visible" id="46b64208v"><path d="M1.844-5.61l-.938.016v3.813c0 1.234.516 1.953 1.672 1.953.735 0 1.344-.328 1.89-.89l.173.765.78-.11c-.077-1.28-.093-1.656-.093-2.156v-3.39h-.953v4.187c-.516.469-1.031.781-1.563.781-.671 0-.968-.453-.968-1.484zm0 0"/></symbol><symbol overflow="visible" id="46b64208w"><path d="M1.89-9.016l-.937.032V-.97c0 .719.344 1.094.985 1.094.296 0 .625-.047.937-.188l-.203-.703a1.18 1.18 0 01-.438.079c-.25 0-.343-.157-.343-.532zm0 0"/></symbol><symbol overflow="visible" id="46b64208x"><path d="M1.672-5.688l-.797.11c.078 1.203.094 1.734.094 2.172V0h.953v-3.75c.375-.688.89-.984 1.422-.984.25 0 .437.015.656.078l.188-.86a1.404 1.404 0 00-.782-.218c-.64 0-1.156.39-1.547 1.109zm0 0"/></symbol><symbol overflow="visible" id="46b64208F"><path d="M2.078-8.047h-.953V0h.953zm0 0"/></symbol><symbol overflow="visible" id="46b64208y"><path d="M31.5-24.531c-.484 0-1.469.203-4.125.234-.984 0-2.484-.172-3.078-.172-.531 0-1.094.219-1.094.985 0 .312.14.562.531.593 1.703.141 2.344.453 2.344 1.157-.078 4.406-.906 10.953-1.156 13.797-.078.906-.078 1.812-.453 1.812-.14 0-.36-.14-.64-.484-3.25-3.829-9.767-12.047-13.75-17.047-.485-.64-.798-.735-1.267-.735-1.078 0-4.156-.172-4.78-.172-.595 0-1.298.344-1.298 1.11 0 .36.204.594.625.64 2.235.204 3.047.594 3.047 1.532 0 .812-.11 3.11-.422 6.125C5.391-9.172 5-4.546 4.766-2.766c-.141.844-.5 1.157-2.391 1.547-.516.14-.797.485-.797 1.047 0 .313.203.484.594.484.312 0 1.015-.062 3.703-.171C7.031.109 8.359.109 8.953.109 10.22.031 10.61-.484 10.61-.984c0-.375-.171-.594-.64-.594-.875 0-2.625-.031-2.625-1.078 0-2.422.593-12.36 1.125-16.282.11-.765.281-1.125.531-1.125.234 0 .516.329.875.813 2.828 4.063 6.89 9.516 10.422 13.719 2.25 2.656 3.156 4.172 4.031 5.468.344.516.656.766 1.078.766.453 0 .813-.39.907-1.86.468-7.39 1.234-12.952 2.453-20.124.218-1.297.39-1.36 2.39-1.61.688-.062.797-.672.797-1.125 0-.234-.062-.515-.453-.515zm0 0"/></symbol><symbol overflow="visible" id="46b64208z"><path d="M4.906-8.125c-.14 0-.25-.094-.25-.313 0-.703.532-2.406 1.157-3.843.734-1.656 1.718-2.563 2.906-2.563 1.078 0 2.375.953 2.375 2.39 0 2.688-5.594 4.329-6.188 4.329zm5.422-8.844c-4.937 0-8.969 6.782-8.969 11.157C1.36-2.142 3.22.625 6.547.625c2.594 0 4.437-1.328 5.875-3.047.39-.484.703-1.047.703-1.422 0-.328-.203-.39-.344-.39-.25 0-.422.25-.953.671C10.61-2.563 9.234-2 8.156-2c-2.734 0-3.64-2.516-3.64-4.438 0-.312.03-.53.25-.562 2.765-.453 9.125-2.203 9.125-6.063 0-1.671-1.297-3.906-3.563-3.906zm0 0"/></symbol><symbol overflow="visible" id="46b64208A"><path d="M14.984-17.922c-.703 0-1.093.672-1.437 1.64-.11.282-.172.5-.531.5-.344 0-.907-.312-2.032-.312-4.156 0-10 6.75-10 11.688C.984-2.141 2.375.53 4.656.53c2.875 0 5.594-5.36 6.969-7.422.14-.171.203-.25.281-.25.063 0 .094.032.094.141 0 .422-.484 2.031-.688 2.969-.328 1.234-.562 2.484-.562 3.265 0 1.22 1.047 1.672 1.844 1.672 1.969 0 5.11-3.64 5.11-5.281 0-.344-.204-.422-.313-.422-.203 0-.313.219-.735.703-.656.766-1.718 1.75-2.406 1.75-.39 0-.64-.11-.64-.625 0-1.719 2.624-12.922 2.624-14.187 0-.547-.234-.766-1.25-.766zm-4.625 3.813c1.188 0 2.172.984 2.172 2.14 0 1.36-.953 2.906-2.344 4.906C8.47-4.655 7.063-3.078 5.814-3.078c-1.157 0-2.032-1.547-2.032-2.844 0-3.594 3.5-8.187 6.578-8.187zm0 0"/></symbol><symbol overflow="visible" id="46b64208B"><path d="M11.906-4.766c-.219 0-.39.25-.844.704-1.156 1.234-2.28 1.89-3.359 1.89-2.281 0-3.125-2.172-3.125-4.719 0-3.578 1.688-7.843 3.578-7.843 2.063 0 2.906 1.859 4.031 1.859.688 0 1.282-1.578 1.282-2.25 0-1.016-1.563-1.75-3.281-1.75-4.97 0-9.032 6.516-9.032 10.688 0 3.218 1.266 6.953 5.11 6.953 2.453 0 4.03-1.61 5.359-3.594.344-.563.594-1.094.594-1.516 0-.343-.219-.422-.313-.422zm0 0"/></symbol><symbol overflow="visible" id="46b64208C"><path d="M14.172-3.016c0-1.421.844-7.375 2-14.906.703-4.515 1.297-6.781 1.297-7.594 0-1.218-.782-1.265-1.922-1.265-2.985 0-4.344.047-4.344.875 0 .812 2.86.187 2.86 2.422 0 .984-.172 4.234-.594 7-.063.343-.235.343-.281.343-.344 0-1.22-.765-2.938-.765-4.375 0-9.203 7-9.203 11.406 0 2.625 1.297 6.094 4.547 6.094 2.312 0 4.797-4.485 5.781-6.266.281-.484.39-.656.531-.656.094 0 .203.062.203.234 0 .282-.171 1.016-.421 1.969-.344 1.36-.594 2.828-.594 3.703 0 1.36 1.015 1.86 1.781 1.86 1.89 0 4.938-4.063 4.938-5.875 0-.391-.204-.5-.313-.5-.203 0-.313.25-.734.812-.625.875-1.47 1.953-2.032 1.953-.343 0-.562-.25-.562-.844zm-7.422.422c-1.781 0-2.625-2.172-2.625-3.953 0-3.328 2.484-8.36 5.469-8.36 1.531 0 2.765 1.298 2.765 2.829 0 1.297-.562 2.765-1.437 4.484-1.36 2.657-2.625 5-4.172 5zm0 0"/></symbol><symbol overflow="visible" id="46b64208D"><path d="M13.938-12.781c0 1.969-2.079 10.89-2.079 12.047 0 .671.391 1.265 1.891 1.265.531 0 .922-.047 1.016-.781 1.296-9.172 4.796-13.89 7.14-13.89.907 0 1.125.703 1.125 1.406 0 2.437-2.484 9.437-2.484 11.75 0 1.234 1.265 1.687 2.062 1.687 1.953 0 5.25-3.672 5.25-5.328 0-.344-.203-.422-.312-.422-.219 0-.313.219-.735.703-.671.782-1.75 1.86-2.453 1.86-.39 0-.625-.204-.625-.735 0-1.156 2.344-7.984 2.344-10.64 0-1.407-1.125-3.188-3.39-3.188-2 0-4.516 3.469-6.094 6.266-.219.39-.39.594-.532.594-.171 0-.25-.11-.25-.344.047-.453.954-2.656.954-4.281 0-1.188-1.22-2.376-2.907-2.376-2.062 0-4.625 3.641-6.265 6.407-.203.39-.39.594-.532.594-.171 0-.234-.11-.234-.344 0-.422.906-3.5.906-4.656 0-1.438-1.265-1.97-2.28-1.97-1.704 0-4.438 3.61-4.47 4.626 0 .312.204.453.313.453.203 0 .422-.063.797-.516.64-.703 1.406-1.437 2-1.437.453 0 .765.281.765.844 0 2.406-1.843 11.296-1.843 12.453 0 .671.234 1.265 1.75 1.265.515 0 .906-.047 1.015-.781 1.282-8.469 4.547-13.922 6.89-13.922.907 0 1.267.703 1.267 1.39zm0 0"/></symbol><symbol overflow="visible" id="46b64208E"><path d="M5.39-13.375c0 1.578-2.702 9.984-2.702 12.469 0 1.39 1.374 1.64 2.171 1.64 1.829 0 5.016-3.328 5.016-4.968 0-.344-.219-.422-.313-.422-.218 0-.359.25-.812.703-.703.734-1.61 1.578-2.313 1.578-.375 0-.625-.25-.625-.781 0-1.156 2.547-9.344 2.547-11.828 0-1.25-1.359-2.094-2.265-2.094-1.407 0-4.453 2.937-4.485 4.297 0 .328.204.469.313.469.219 0 .312-.11.734-.532.672-.672 1.438-1.297 2-1.297.39 0 .735.25.735.766zm-.343-9.438c0 1 .797 1.704 1.844 1.704 1.046 0 1.921-.828 1.921-1.844 0-1.063-.796-1.75-1.843-1.75s-1.922.828-1.922 1.89zm0 0"/></symbol></defs><use xlink:href="#46b64208a" x="8.195" y="100"/><use xlink:href="#46b64208b" x="40.255" y="100"/><use xlink:href="#46b64208c" x="55.48" y="100"/><use xlink:href="#46b64208d" x="70.81" y="100"/><use xlink:href="#46b64208c" x="86.42" y="100"/><use xlink:href="#46b64208e" x="101.75" y="100"/><use xlink:href="#46b64208b" x="121.21" y="100"/><use xlink:href="#46b64208f" x="136.435" y="100"/><use xlink:href="#46b64208g" x="165.835" y="100"/><use xlink:href="#46b64208c" x="176.475" y="100"/><use xlink:href="#46b64208h" x="29.914" y="150" fill="#b7b7b7"/><g fill="#b7b7b7"><use xlink:href="#46b64208i" x="37.966" y="150"/><use xlink:href="#46b64208j" x="43.81" y="150"/><use xlink:href="#46b64208k" x="49.51" y="150"/><use xlink:href="#46b64208j" x="54.862" y="150"/><use xlink:href="#46b64208l" x="60.562" y="150"/><use xlink:href="#46b64208i" x="66.934" y="150"/><use xlink:href="#46b64208m" x="72.778" y="150"/><use xlink:href="#46b64208n" x="82.378" y="150"/><use xlink:href="#46b64208j" x="85.234" y="150"/><use xlink:href="#46b64208o" x="90.934" y="150"/><use xlink:href="#46b64208p" x="93.526" y="150"/></g><use xlink:href="#46b64208m" x="99.97" y="150" fill="#b7b7b7"/><use xlink:href="#46b64208q" x="108.31" y="150" fill="#b7b7b7"/><use xlink:href="#46b64208i" x="113.746" y="150" fill="#b7b7b7"/><g fill="#b7b7b7"><use xlink:href="#46b64208r" x="119.554" y="150"/><use xlink:href="#46b64208s" x="125.194" y="150"/><use xlink:href="#46b64208o" x="129.502" y="150"/><use xlink:href="#46b64208t" x="132.094" y="150"/></g><g fill="#b7b7b7"><use xlink:href="#46b64208i" x="138.826" y="150"/><use xlink:href="#46b64208u" x="144.67" y="150"/><use xlink:href="#46b64208v" x="150.61" y="150"/><use xlink:href="#46b64208w" x="156.91" y="150"/><use xlink:href="#46b64208j" x="160.006" y="150"/><use xlink:href="#46b64208x" x="165.706" y="150"/></g><g><use xlink:href="#46b64208y" x="6.2875" y="250"/><use xlink:href="#46b64208z" x="37.4025" y="250"/><use xlink:href="#46b64208A" x="52.1375" y="250"/><use xlink:href="#46b64208B" x="70.3725" y="250"/><use xlink:href="#46b64208A" x="83.9875" y="250"/><use xlink:href="#46b64208C" x="102.2225" y="250"/><use xlink:href="#46b64208z" x="120.9475" y="250"/><use xlink:href="#46b64208D" x="135.6825" y="250"/><use xlink:href="#46b64208E" x="164.2425" y="250"/><use xlink:href="#46b64208A" x="175.4775" y="250"/></g><g fill="#b7b7b7"><use xlink:href="#46b64208h" x="36.652" y="300"/></g><g fill="#b7b7b7"><use xlink:href="#46b64208i" x="44.704" y="300"/><use xlink:href="#46b64208j" x="50.548" y="300"/><use xlink:href="#46b64208k" x="56.248" y="300"/><use xlink:href="#46b64208j" x="61.6" y="300"/><use xlink:href="#46b64208l" x="67.3" y="300"/><use xlink:href="#46b64208i" x="73.672" y="300"/><use xlink:href="#46b64208m" x="79.516" y="300"/><use xlink:href="#46b64208n" x="89.116" y="300"/><use xlink:href="#46b64208j" x="91.972" y="300"/><use xlink:href="#46b64208o" x="97.672" y="300"/><use xlink:href="#46b64208p" x="100.264" y="300"/></g><g fill="#b7b7b7"><use xlink:href="#46b64208m" x="106.708" y="300"/></g><g fill="#b7b7b7"><use xlink:href="#46b64208q" x="115.048" y="300"/></g><g fill="#b7b7b7"><use xlink:href="#46b64208i" x="120.484" y="300"/></g><g fill="#b7b7b7"><use xlink:href="#46b64208r" x="126.292" y="300"/><use xlink:href="#46b64208s" x="131.932" y="300"/><use xlink:href="#46b64208o" x="136.24" y="300"/><use xlink:href="#46b64208F" x="138.832" y="300"/><use xlink:href="#46b64208s" x="142.036" y="300"/><use xlink:href="#46b64208j" x="146.344" y="300"/><use xlink:href="#46b64208w" x="152.044" y="300"/><use xlink:href="#46b64208n" x="155.14" y="300"/><use xlink:href="#46b64208k" x="157.996" y="300"/></g></svg>