<?xml version='1.0' encoding='UTF-8'?>
<svg xmlns="http://www.w3.org/2000/svg" xmlns:xlink="http://www.w3.org/1999/xlink" width="600px" height="300px" viewBox="0 0 600 300" x="0px" y="0px" enable-background="new 0 0 600 300"><defs><symbol overflow="visible" id="4c1bff54a"><path d="M25.16-31.53c-.97 0-2.22.92-3.32 1.95-3.06 2.92-6.76 8.33-9.03 11.83-.47.72-.53.72-.65.72-.13 0-.27-.13-.27-.4 0-.38.14-.63.53-2.2.9-3.64 1.55-6.95 1.55-8.71 0-2.02-1.88-3.05-3.7-3.05-.85 0-1.57.25-2.33.97-1.96 1.56-4.24 4.75-5.4 6.83-.52.9-.65 1.03-.65 1.36 0 .45.45 1.04.7 1.04.14 0 .27-.2.85-.98 1.25-1.63 3.06-3.64 4.36-3.64 1.04 0 1.23.98 1.23 1.89 0 2.8-.84 5.92-1.56 9.75C6.69-10.14 4.75-.57 4.75.27c0 .45 1.17.78 2.98.78 1.63 0 1.83-.08 1.9-.47.7-4.67 2.26-11.24 3.5-13.85a59.68 59.68 0 013.64-6.42c.98-1.5 2.01-2.93 3.06-4.1 1.1-1.3 2.47-2.48 3.64-2.48 1.42 0 2.2 1.32 2.2 2.47 0 1.44-.39 3.72-.9 6.32-.46 2.2-.97 4.54-1.5 6.89-.91 3.7-1.96 8.25-1.96 9.48 0 1.3.78 2.4 2.49 2.4 1.62 0 3.1-.84 4.8-2.46a31.5 31.5 0 004.8-5.72c.27-.4.73-.97.73-1.36 0-.53-.4-1.38-.66-1.38-.13 0-.31.33-1.03 1.18-1.56 1.82-3.85 3.97-4.88 3.97-.39 0-.51-.4-.51-.91 0-1.9 1.3-6.9 2.39-11.58.78-3.25 1.5-6.23 1.5-8.12 0-1.1-.19-2.08-.64-2.86-1.18-2.35-3.78-3.58-5.14-3.58zm0 0"/></symbol><symbol overflow="visible" id="4c1bff54b"><path d="M27.75-11.7a19.76 19.76 0 002.22-8.97c0-3.9-1.3-7.22-3.4-9.1-.76-.71-1.74-1.37-2.77-1.37-1.63 0-4.96.92-7.43 1.89-2.14.84-2.71 1.05-2.98 1.05-.2 0-.27-.08-.27-.33 0-.45.93-3.84.93-5.92 0-.52-.08-1.57-.53-1.57-1.04 0-4.29 1.7-4.61 2.61-.27.78-.33 3.5-.66 5.66-.19 1.1-.31 1.23-.84 1.48-1.49.66-4.94 2.02-5.6 2.74a.57.57 0 00-.12.39c0 .45.33 1.17.78 1.17.6 0 4.42-1.62 4.81-1.62.33 0 .4.18.4.51 0 .6-.46 3.25-.79 6.05-1.23 9.3-3.37 25.81-4.42 31.72-.66 3.64-3.44 2.86-5.06 4.15-.66.54-.72.93-.72 1.32 0 .3.12.45.45.45.58 0 1.9-.2 5.14-.27 6.11-.12 9.61 0 11.9-.39.77-.12 1.02-1.03 1.02-1.42 0-.47-.12-.66-.51-.72-1.56-.26-5.13-.2-6.44-1.04-.4-.25-.4-.7-.4-1.3 0-2.47.21-4.49.4-7.28.27-3.7.6-7.67.84-7.67.27 0 .79.2 2.1.2 3.7 0 10.9-1.69 16.56-12.42zm-8.7-15.14c1.89 0 3.04.78 4.1 2.28 1.16 1.75 1.35 3.5 1.35 5.58 0 5.92-1.69 11.7-5.58 14.56a6.12 6.12 0 01-3.58 1.1c-2.86 0-5.01-1.37-5.01-2.66 0-.52.08-1.57.14-2.33.39-5.2 1.75-15.67 2.47-16.72.51-.7 3.7-1.81 6.1-1.81zm0 0"/></symbol><symbol overflow="visible" id="4c1bff54c"><path d="M17.88-31.14c-4.36 0-8.25 3.84-10.66 7.1A22.8 22.8 0 002.47-10.2c0 5.51 2.08 11.7 8.58 11.7 3.18 0 6.3-1.63 8.97-4.17a23.03 23.03 0 007.15-16.77c0-6.62-2.92-11.7-9.3-11.7zM15.8-27.5c4.22 0 5.98 4.17 5.98 9.17 0 1.03-.08 2.2-.2 3.31-.52 4.94-3.38 12.82-8.4 12.82-3.55 0-5.32-5.47-5.32-8.99 0-3.83.98-8.31 2.73-11.56.97-1.81 2.68-4.75 5.2-4.75zm0 0"/></symbol><symbol overflow="visible" id="4c1bff54d"><path d="M21.78-4.1c.58-6.62 1.75-16.9 2.66-21.57 1.62-1.17 3-1.69 4.23-1.69 3.44 0 5.33 4.16 5.33 9.22 0 3.9-1.1 8.33-3.4 11.97-2 3.1-4.02 4.1-5.57 4.1-1.7 0-3.19-1.24-3.25-2.02zm-4.69.33a6.29 6.29 0 01-3.96 1.7c-3.38 0-5.91-4.24-5.91-10.02 0-3.38.84-7.29 2.86-11.11 1.23-2.28 3.31-4.7 5.6-4.7 1.29 0 2.71.8 3.95 2.74 0 1.24-1.49 14.75-2.54 21.4zM21.13-.9C21.9.45 22.75.84 24.1.84c2.55 0 6.1-1.8 8.66-4.67a30.34 30.34 0 004.48-6.58 22.7 22.7 0 001.88-8.96c0-6.36-2.99-11.44-7.86-11.44-1.96 0-4.16.84-6.63 2.67.64-4.94 1.17-7.55 2.08-10.6.97-3.38 2.34-4.48 4.94-4.48 1.62 0 3.7.9 4.67.9.72 0 2.34-2 2.34-3.9 0-.84-1.75-1.56-3.5-1.56-4.75 0-9.1 4.3-11.51 7.55-2.47 3.37-2.6 7.01-3.25 11.95a5.17 5.17 0 00-4.43-2.14c-1.3 0-2.71.45-3.95 1.23-2.6 1.69-6.7 5.86-8.33 9.96a23.94 23.94 0 00-1.75 8.82c0 6.5 2.92 11.85 8.07 11.85 1.93 0 4.21-.72 6.89-2.4-.33 2.26-.85 5-1.24 7.27-.65 4.1-1.1 7.99-2.28 9.1-.52.45-.84.45-1.83.45-1.54 0-2.98-.84-3.83-.84-1.04 0-2.4 2.2-2.4 3.3 0 .79.65 1.37 1.23 1.57a6.5 6.5 0 002.86.66c3.58 0 8.72-5.6 10.14-11.7.6-2.41 1.11-6.44 1.57-9.76zm0 0"/></symbol><symbol overflow="visible" id="4c1bff54e"><path d="M17.69-31.33c-2.94 0-6.05 1.95-8.66 4.49-4.87 4.87-7.01 10.32-7.01 16.76 0 6.05 2.46 11.25 7.8 11.25 1.55 0 3.45-.39 5.38-1.44 2.86-1.54 5.74-4.6 6.5-6.04.2-.32.27-.64.27-.9 0-.59-.27-1.04-.52-1.04-.06 0-.14.06-.2.13-2.08 2.07-5.58 4.48-8.38 4.48-3.84 0-5.71-3.31-5.71-7.8 0-1.17 0-1.83.51-1.89 2.27-.25 7.61-1.81 10.72-3.76 2.73-1.7 5.47-5.93 5.47-8.13 0-3.9-2.55-6.1-6.17-6.1zM7.67-15.14c-.26 0-.26-.2-.26-.53 0-.85.9-4.55 2.01-6.9.85-1.8 2.02-3.55 2.92-4.21a5.42 5.42 0 012.68-.58c2.07 0 4.09.9 4.09 3.17 0 1.11-.45 2.94-1.23 3.72-2.54 2.6-8.7 5.33-10.2 5.33zm0 0"/></symbol><symbol overflow="visible" id="4c1bff54f"><path d="M18.6-30.94c-4.24 0-8.07 2.47-11.26 6.3-3.18 3.84-5.32 7.73-5.32 14.31 0 5.78 1.62 11.63 8.51 11.63a7.9 7.9 0 003.52-.78c2.32-1.24 5.64-5.4 6.95-7.47.13-.2.19-.52.19-.72 0-.58-.33-1.11-.64-1.11-.2 0-.6.78-2.4 2.34-1.63 1.44-3.59 2.67-5.27 2.67a4.89 4.89 0 01-3.7-1.89C7.85-7.28 7.4-9.75 7.4-12.28c0-5.78 2.86-15.22 8.18-15.22 2.41 0 4.75 3.78 5.54 3.78 1.17 0 2.34-3 2.34-4.17 0-1.88-1.95-3.05-4.88-3.05zm0 0"/></symbol><symbol overflow="visible" id="4c1bff54g"><path d="M11.25-31.27c-.53 0-.84 0-1.44.27-2.14.9-5.33 5.06-6.75 7.34-.65 1.04-.86 1.24-.86 1.88 0 .47.14 1.05.33 1.05.06 0 .27-.2.72-.66 1.5-1.55 3.58-3.56 4.88-4.34.12-.08.39-.2.51-.2.4 0 .53.32.53.71 0 .4-.33 2.66-1.04 6.17C7.01-13.78 4.8-5.39 4.8-2.08c0 2.2 2.35 3.52 3.77 3.52.78 0 1.83-.92 2.8-1.9 3.7-3.7 9.3-11.3 12.15-15.46.58-.85.72-1.11.78-1.11.13 0 .19.2.19.45 0 .85-.97 4.42-1.75 7.55-.72 2.92-1.44 5.9-1.44 7.53 0 2.16 1.83 3.13 3.33 3.13.97 0 1.42-.52 2.4-1.36a53.22 53.22 0 005.85-6.83C33.67-7.67 34-8.4 34-9.17c0-.58-.14-1.1-.45-1.1-.2 0-.53.52-1.77 1.82-1.69 1.82-3.83 4.03-4.55 4.03-.45 0-.65-.46-.65-1.17 0-.91.33-2.2.65-3.64 1.05-4.43 2.29-10 3.25-14.82.52-2.4 1.3-5.86 1.3-6.37 0-.58-1.48-.58-2.26-.58-1.24 0-2.68.19-2.8.58-.53 1.56-1.24 5.2-1.56 6.17-1.75 5.6-9.04 14.5-12.82 18.27-.45.45-1.3 1.43-1.87 1.43-.4 0-.53-.45-.53-.98 0-.7.33-2.27.6-3.5.96-4.42 2.46-10.6 3.37-15.22.65-3.38.84-4.22.84-5.06 0-1.38-1.88-1.96-3.5-1.96zm0 0"/></symbol><symbol overflow="visible" id="4c1bff54h"><path d="M15.28-27.23c2.6 0 5.27.9 5.27 1.89 0 2.46-1.18 6.23-1.7 7.2-.65.84-2.41 1.7-3.44 1.7-3.25 0-6.77-3.39-6.77-6.31 0-1.69.98-3.25 3.52-4.03 1.1-.33 2.07-.45 3.12-.45zm1.81-3.2c-1.95 0-3.51.27-5.2.85-2.47.9-4.6 3.25-5.78 4.75a8.54 8.54 0 00-1.95 5.2c0 3.2 2.21 6.11 6.7 6.11.39 0 1.23 0 1.69-.06-1.75 1.69-4.82 5.33-8 8.77-.78.84-1.49 1.1-2.27 1.1-1.05 0-1.83-.32-2.73-.32-.46 0-.52.26-.52.66 0 2.14.9 4.67 3.83 4.67 1.89 0 3.19-.9 5.33-4.22 2.73-4.3 5.92-9.11 8-11.19.72-.7 2.01-1.48 2.34-1.48.06 0 .19 0 .19.3 0 1.18-2.66 11.71-2.66 13.85 0 1.9 1.55 2.67 3.11 2.67 1.63 0 2.8-.84 4.1-2.01A21.97 21.97 0 0026.9-5.2 6.35 6.35 0 0028-8c0-.58-.2-1.1-.45-1.1-.2 0-.33.32-1.5 1.7-1.36 1.56-2.8 2.8-3.76 2.8-.52 0-.9-.4-.9-1.45 0-.84.5-3.89.83-5.51 1.04-5.8 2.2-10.28 2.93-13.72.51-2.47 1.5-4.81 1.5-5.33 0-.45-.99-.98-2.22-.98-.58 0-.85 1.3-2.8 1.3-1.69 0-3.31-.13-4.55-.13zm0 0"/></symbol><symbol overflow="visible" id="4c1bff54i"><path d="M3.83 0v-5.95H6.2v-.82H.45v.82h2.4V0zm0 0"/></symbol><symbol overflow="visible" id="4c1bff54j"><path d="M5.75-2.23v-.43c0-1.6-.9-2.51-2.42-2.51S.87-4.16.87-2.48c0 1.71.91 2.62 2.5 2.62 1.43 0 2.07-.56 2.29-1.52l-.9-.09c-.18.61-.59.9-1.35.9-.94 0-1.52-.54-1.58-1.66zm-2.4-2.2c.93 0 1.43.5 1.48 1.55H1.84c.08-1.07.6-1.56 1.5-1.56zm0 0"/></symbol><symbol overflow="visible" id="4c1bff54k"><path d="M1.83 0l1.42-2h.06l1.46 2H5.8L4-2.53l1.78-2.49H4.8L3.42-3.08h-.08l-1.4-1.94H.89l1.78 2.49L.84 0zm0 0"/></symbol><symbol overflow="visible" id="4c1bff54l"><path d="M5.52-4.25v-.77H3.17v-1.56h-.81l-.14 1.56H.75v.77h1.47v2.4c0 1.3.48 1.94 1.84 1.94C4.6.1 5.14 0 5.55-.14L5.4-.91c-.32.13-.72.2-1.13.2-.8 0-1.1-.37-1.1-1.23v-2.31zm0 0"/></symbol><symbol overflow="visible" id="4c1bff54m"><path d="M3.33-3.42c.47 0 .8-.27.8-.8 0-.51-.33-.8-.8-.8-.47 0-.8.29-.8.8 0 .53.33.8.8.8zm0 3.5c.47 0 .8-.27.8-.78 0-.53-.33-.82-.8-.82-.47 0-.8.29-.8.82 0 .51.33.78.8.78zm0 0"/></symbol><symbol overflow="visible" id="4c1bff54o"><path d="M1.1-5.02V0h.96v-4.22h2.55V0h.95v-5.02zm0 0"/></symbol><symbol overflow="visible" id="4c1bff54p"><path d="M2.06 1.9V-.84h.05c.28.58.8.97 1.77.97 1.5 0 2.2-.98 2.2-2.66 0-1.65-.7-2.64-2.19-2.64-.97 0-1.5.44-1.78 1.05h-.08l-.1-.9H1.1v6.9zm1.5-2.56c-1.06 0-1.53-.8-1.53-1.86 0-1.04.47-1.84 1.53-1.84 1.11 0 1.53.61 1.53 1.84 0 1.27-.42 1.86-1.53 1.86zm0 0"/></symbol><symbol overflow="visible" id="4c1bff54q"><path d="M3.33.14c1.62 0 2.5-.95 2.5-2.66 0-1.68-.88-2.64-2.5-2.64-1.63 0-2.5.96-2.5 2.64 0 1.7.87 2.66 2.5 2.66zm0-.77c-1.06 0-1.52-.6-1.52-1.89 0-1.28.46-1.87 1.52-1.87 1.08 0 1.53.6 1.53 1.87 0 1.29-.45 1.9-1.53 1.9zm0 0"/></symbol><symbol overflow="visible" id="4c1bff54r"><path d="M3.73 1.9V.12c1.74-.1 2.6-1.05 2.6-2.63 0-1.6-.86-2.55-2.6-2.64v-2h-.8v2C1.2-5.06.35-4.1.35-2.5.34-.9 1.2.05 2.94.13v1.76zm-.8-2.52C1.7-.68 1.2-1.36 1.2-2.5s.49-1.84 1.74-1.9zm.8-3.77c1.24.06 1.72.75 1.72 1.89S4.97-.69 3.73-.62zm0 0"/></symbol><symbol overflow="visible" id="4c1bff54s"><path d="M5.75-2.23v-.43c0-1.6-.9-2.51-2.42-2.51S.87-4.16.87-2.48c0 1.71.91 2.62 2.5 2.62 1.43 0 2.07-.56 2.29-1.52l-.9-.09c-.18.61-.59.9-1.35.9-.94 0-1.52-.54-1.58-1.66zm-2.4-2.2c.93 0 1.43.5 1.48 1.55H1.84c.08-1.07.6-1.56 1.5-1.56zm0 0"/></symbol><symbol overflow="visible" id="4c1bff54t"><path d="M3.34.14c1.43 0 2.13-.66 2.25-1.78l-.89-.1c-.1.7-.5 1.08-1.34 1.08-1.03 0-1.52-.64-1.52-1.84 0-1.23.47-1.86 1.52-1.86.84 0 1.23.36 1.34 1.08l.9-.1c-.13-1.09-.82-1.78-2.26-1.78-1.56 0-2.46.97-2.46 2.66 0 1.66.9 2.64 2.46 2.64zm0 0"/></symbol><symbol overflow="visible" id="4c1bff54u"><path d="M2.03 0L4.6-3.72h.08V0h.92v-5.02h-.96L2.06-1.27H2v-3.75h-.92V0zm0 0"/></symbol><symbol overflow="visible" id="4c1bff54v"><path d="M2.92-5.02c-1.34 0-1.95.54-1.95 1.55 0 .9.47 1.4 1.34 1.52L.87 0h1.1l1.36-1.88h1.04V0h.96v-5.02zm.11 2.47c-.81 0-1.1-.3-1.1-.9 0-.61.29-.86 1.1-.86h1.35v1.76zm0 0"/></symbol><symbol overflow="visible" id="4c1bff54w"><path d="M5.95-6.77H1.1V0h.99v-2.92H5.3v-.77H2.08v-2.26h3.87zm0 0"/></symbol><symbol overflow="visible" id="4c1bff54x"><path d="M2.83.14c.94 0 1.5-.39 1.81-.95h.08l.1.81h.76v-3.38c0-1.23-.69-1.8-2.13-1.8-1.43 0-2.03.65-2.18 1.6l.93.1c.11-.6.44-.93 1.22-.93.85 0 1.22.32 1.22 1.04v.34l-1.81.2C1.6-2.7 1.1-2.17 1.1-1.28c0 .92.64 1.42 1.72 1.42zm.25-.77c-.67 0-1.02-.28-1.02-.74 0-.44.28-.72 1-.82l1.58-.19v.41c0 .8-.6 1.34-1.56 1.34zm0 0"/></symbol><symbol overflow="visible" id="4c1bff54y"><path d="M2.73.14c.9 0 1.43-.45 1.74-1.08h.06l.13.94h.8v-5.02h-.94v2.7c0 .98-.57 1.62-1.46 1.62-.75 0-1.1-.4-1.1-1.22v-3.1h-.93v3.32c0 1.17.55 1.84 1.7 1.84zm0 0"/></symbol><symbol overflow="visible" id="4c1bff54z"><path d="M5.08-5.16c-.94 0-1.58.43-1.9 1.3h-.09l-.07-1.16H1.05v.77h1.1v3.48H.96V0h3.96v-.77H3.1v-1.46c0-1.36.6-2.05 1.83-2.05.4 0 .76.08 1.1.17l.15-.87c-.33-.11-.7-.18-1.11-.18zm0 0"/></symbol><symbol overflow="visible" id="4c1bff54A"><path d="M6.17 0L3.98-6.77h-1.3L.5 0h.97l.44-1.47h2.78L5.16 0zM3.28-5.94h.08l1.1 3.74H2.15zm0 0"/></symbol><symbol overflow="visible" id="4c1bff54B"><path d="M3.92-7.14H1.36v.76h1.6v5.61H1.15V0H5.7v-.77H3.92zm0 0"/></symbol><symbol overflow="visible" id="4c1bff54C"><path d="M2.16 0v-2.67c0-.99.59-1.63 1.46-1.63.74 0 1.07.38 1.07 1.22V0h.95v-3.31c0-1.2-.56-1.85-1.67-1.85-.92 0-1.49.46-1.77 1.08h-.06l-.12-.94H1.2V0zm0 0"/></symbol><symbol overflow="visible" id="4c1bff54D"><path d="M3.58-5.81c.42 0 .72-.22.72-.67 0-.44-.3-.68-.72-.68-.44 0-.72.24-.72.68 0 .45.28.67.72.67zm.5.8H1.52v.76h1.6v3.48h-1.8V0h4.46v-.77h-1.7zm0 0"/></symbol><symbol overflow="visible" id="4c1bff54E"><path d="M3.9 0l2-5.02h-.96L3.4-.94h-.07L1.8-5.02H.77L2.78 0zm0 0"/></symbol><symbol overflow="visible" id="4c1bff54F"><path d="M4.63-6.5c.45 0 .98.08 1.39.2l.2-.72a5.3 5.3 0 00-1.64-.26c-1.52 0-2.16.56-2.16 1.87v.4H.9v.76h1.53V0h.94v-4.25h2.53v-.77H3.36v-.3c0-.84.33-1.18 1.27-1.18zm0 0"/></symbol><symbol overflow="visible" id="4c1bff54G"><path d="M3.33.14c1.62 0 2.5-.95 2.5-2.66 0-1.68-.88-2.64-2.5-2.64-1.63 0-2.5.96-2.5 2.64 0 1.7.87 2.66 2.5 2.66zm0-.77c-1.06 0-1.52-.6-1.52-1.89 0-1.28.46-1.87 1.52-1.87 1.08 0 1.53.6 1.53 1.87 0 1.29-.45 1.9-1.53 1.9zm0 0"/></symbol><symbol overflow="visible" id="4c1bff54H"><path d="M1.63 0v-2.9c0-.8.15-1.4.71-1.4.41 0 .55.3.55.88V0h.95v-2.9c0-.8.18-1.4.72-1.4.4 0 .57.3.57.88V0h.95v-3.63c0-.92-.28-1.53-1.11-1.53-.63 0-.95.41-1.1.9h-.06c-.1-.52-.44-.9-1.08-.9-.6 0-.93.41-1.06.9H1.6l-.23-.76H.67V0zm0 0"/></symbol><symbol overflow="visible" id="4c1bff54I"><path d="M3.34.14c1.43 0 2.13-.66 2.25-1.78l-.89-.1c-.1.7-.5 1.08-1.34 1.08-1.03 0-1.52-.64-1.52-1.84 0-1.23.47-1.86 1.52-1.86.84 0 1.23.36 1.34 1.08l.9-.1c-.13-1.09-.82-1.78-2.26-1.78-1.56 0-2.46.97-2.46 2.66 0 1.66.9 2.64 2.46 2.64zm0 0"/></symbol><symbol overflow="visible" id="4c1bff54J"><path d="M3.38-5.9c.12-.5.42-1.04.67-1.41l-.63-.22a4.28 4.28 0 00-1.01 2.39c0 .66.3 1 .9 1 .6 0 .9-.33.9-.9 0-.57-.32-.83-.83-.85zm0 0"/></symbol><symbol overflow="visible" id="4c1bff54K"><path d="M3.3-7.53c-.55 0-.85.3-.85.84 0 .55.36.8.83.8h.03a5.1 5.1 0 01-.69 1.47l.52.23a4.29 4.29 0 001.02-2.4c0-.63-.33-.94-.86-.94zm0 0"/></symbol><symbol overflow="visible" id="4c1bff54L"><path d="M1.45-2.95c0 2.56 1.08 4.37 3.67 4.84l.11-.67C3.28.86 2.43-.75 2.43-2.95s.85-3.82 2.8-4.16l-.1-.69c-2.6.49-3.68 2.3-3.68 4.85zm0 0"/></symbol><symbol overflow="visible" id="4c1bff54M"><path d="M3.36.16c1.4 0 2.2-.6 2.2-1.57 0-.89-.54-1.22-1.47-1.39L3-3c-.67-.14-.86-.33-.86-.73 0-.5.4-.74 1.17-.74.83 0 1.19.27 1.27.8l.9-.05c-.12-1-.8-1.47-2.17-1.47-1.34 0-2.1.53-2.1 1.5 0 .81.45 1.22 1.52 1.44l1.04.2c.56.11.87.24.87.72 0 .52-.45.78-1.28.78-.95 0-1.36-.28-1.42-.87l-.9.06C1.07-.36 1.8.16 3.35.16zm0 0"/></symbol><symbol overflow="visible" id="4c1bff54N"><path d="M3.33.14c1.65 0 2.6-1.1 2.6-3.52S4.99-6.9 3.34-6.9C1.67-6.9.72-5.8.72-3.37c0 2.4.95 3.51 2.6 3.51zm0-.84c-1.13 0-1.6-.85-1.6-2.67 0-1.86.47-2.7 1.6-2.7 1.12 0 1.6.84 1.6 2.7 0 1.82-.48 2.67-1.6 2.67zM3.3-2.64c.38 0 .56-.28.56-.72 0-.44-.18-.7-.56-.7-.39 0-.56.26-.56.7 0 .44.17.72.56.72zm0 0"/></symbol><symbol overflow="visible" id="4c1bff54O"><path d="M4.22-6.77h-.86l-2.03.7v.87c.64-.17 1.26-.38 1.89-.55v4.9H1.03V0h4.9v-.86H4.21zm0 0"/></symbol><symbol overflow="visible" id="4c1bff54P"><path d="M3.34-1.56c-.54 0-.82.31-.82.86 0 .5.3.78.76.78-.08.4-.34.95-.65 1.39l.53.25c.57-.67 1-1.67 1-2.36 0-.6-.3-.92-.82-.92zm0 0"/></symbol><symbol overflow="visible" id="4c1bff54Q"><path d="M3.42-.86h-.08L1.77-5.02H.8L2.73 0h.41c-.33.95-.72 1.27-1.45 1.27-.22 0-.49-.04-.69-.08l-.1.73c.2.06.58.11.87.11 1.2 0 1.7-.7 2.21-2.03l1.94-5.02H5zm0 0"/></symbol><symbol overflow="visible" id="4c1bff54R"><path d="M1.45-7.1c1.96.33 2.8 1.94 2.8 4.15 0 2.2-.84 3.8-2.8 4.17l.11.67c2.58-.47 3.67-2.28 3.67-4.84 0-2.55-1.09-4.36-3.67-4.85zm0 0"/></symbol></defs><g fill="#515151"><use xlink:href="#4c1bff54a" x="160.4775" y="153.5"/><use xlink:href="#4c1bff54b" x="196.0325" y="153.5"/><use xlink:href="#4c1bff54c" x="228.5975" y="153.5"/></g><use xlink:href="#4c1bff54d" x="258.3675" y="153.5" fill="#fff"/><g fill="#515151"><use xlink:href="#4c1bff54e" x="299.4475" y="153.5"/><use xlink:href="#4c1bff54f" x="325.1875" y="153.5"/><use xlink:href="#4c1bff54f" x="349.3025" y="153.5"/><use xlink:href="#4c1bff54g" x="373.4175" y="153.5"/></g><use xlink:href="#4c1bff54h" x="409.2325" y="153.5" fill="#515151"/><g fill="#fff"><use xlink:href="#4c1bff54i" x="250" y="252"/><use xlink:href="#4c1bff54j" x="256.667" y="252"/><use xlink:href="#4c1bff54k" x="263.334" y="252"/><use xlink:href="#4c1bff54l" x="270.001" y="252"/><use xlink:href="#4c1bff54m" x="276.668" y="252"/><use xlink:href="#4c1bff54n" x="283.335" y="252"/><use xlink:href="#4c1bff54o" x="290.002" y="252"/><use xlink:href="#4c1bff54p" x="296.669" y="252"/><use xlink:href="#4c1bff54q" x="303.336" y="252"/><use xlink:href="#4c1bff54r" x="310.003" y="252"/><use xlink:href="#4c1bff54s" x="316.67" y="252"/><use xlink:href="#4c1bff54t" x="323.337" y="252"/><use xlink:href="#4c1bff54t" x="330.004" y="252"/><use xlink:href="#4c1bff54u" x="336.671" y="252"/><use xlink:href="#4c1bff54v" x="343.338" y="252"/></g><g fill="#fff"><use xlink:href="#4c1bff54w" x="100" y="266"/><use xlink:href="#4c1bff54j" x="106.667" y="266"/><use xlink:href="#4c1bff54x" x="113.334" y="266"/><use xlink:href="#4c1bff54l" x="120.001" y="266"/><use xlink:href="#4c1bff54y" x="126.668" y="266"/><use xlink:href="#4c1bff54z" x="133.335" y="266"/><use xlink:href="#4c1bff54j" x="140.002" y="266"/><use xlink:href="#4c1bff54m" x="146.669" y="266"/><use xlink:href="#4c1bff54n" x="153.336" y="266"/><use xlink:href="#4c1bff54A" x="160.003" y="266"/><use xlink:href="#4c1bff54B" x="166.67" y="266"/><use xlink:href="#4c1bff54l" x="173.337" y="266"/><use xlink:href="#4c1bff54j" x="180.004" y="266"/><use xlink:href="#4c1bff54z" x="186.671" y="266"/><use xlink:href="#4c1bff54C" x="193.338" y="266"/><use xlink:href="#4c1bff54x" x="200.005" y="266"/><use xlink:href="#4c1bff54l" x="206.672" y="266"/><use xlink:href="#4c1bff54D" x="213.339" y="266"/><use xlink:href="#4c1bff54E" x="220.006" y="266"/><use xlink:href="#4c1bff54j" x="226.673" y="266"/><use xlink:href="#4c1bff54n" x="233.34" y="266"/><use xlink:href="#4c1bff54F" x="240.007" y="266"/><use xlink:href="#4c1bff54G" x="246.674" y="266"/><use xlink:href="#4c1bff54z" x="253.341" y="266"/><use xlink:href="#4c1bff54H" x="260.008" y="266"/><use xlink:href="#4c1bff54n" x="266.675" y="266"/><use xlink:href="#4c1bff54G" x="273.342" y="266"/><use xlink:href="#4c1bff54F" x="280.009" y="266"/><use xlink:href="#4c1bff54n" x="286.676" y="266"/><use xlink:href="#4c1bff54D" x="293.343" y="266"/><use xlink:href="#4c1bff54l" x="300.01" y="266"/><use xlink:href="#4c1bff54x" x="306.677" y="266"/><use xlink:href="#4c1bff54B" x="313.344" y="266"/><use xlink:href="#4c1bff54D" x="320.011" y="266"/><use xlink:href="#4c1bff54I" x="326.678" y="266"/><use xlink:href="#4c1bff54n" x="333.345" y="266"/><use xlink:href="#4c1bff54J" x="340.012" y="266"/><use xlink:href="#4c1bff54j" x="346.679" y="266"/><use xlink:href="#4c1bff54F" x="353.346" y="266"/><use xlink:href="#4c1bff54K" x="360.013" y="266"/><use xlink:href="#4c1bff54n" x="366.68" y="266"/><use xlink:href="#4c1bff54L" x="373.347" y="266"/><use xlink:href="#4c1bff54M" x="380.014" y="266"/><use xlink:href="#4c1bff54M" x="386.681" y="266"/><use xlink:href="#4c1bff54N" x="393.348" y="266"/><use xlink:href="#4c1bff54O" x="400.015" y="266"/><use xlink:href="#4c1bff54P" x="406.682" y="266"/><use xlink:href="#4c1bff54n" x="413.349" y="266"/><use xlink:href="#4c1bff54D" x="420.016" y="266"/><use xlink:href="#4c1bff54l" x="426.683" y="266"/><use xlink:href="#4c1bff54x" x="433.35" y="266"/><use xlink:href="#4c1bff54B" x="440.017" y="266"/><use xlink:href="#4c1bff54D" x="446.684" y="266"/><use xlink:href="#4c1bff54I" x="453.351" y="266"/><use xlink:href="#4c1bff54n" x="460.018" y="266"/><use xlink:href="#4c1bff54G" x="466.685" y="266"/><use xlink:href="#4c1bff54C" x="473.352" y="266"/><use xlink:href="#4c1bff54B" x="480.019" y="266"/><use xlink:href="#4c1bff54Q" x="486.686" y="266"/><use xlink:href="#4c1bff54R" x="493.353" y="266"/></g></svg>