<?xml version='1.0' encoding='UTF-8'?>
<svg xmlns="http://www.w3.org/2000/svg" xmlns:xlink="http://www.w3.org/1999/xlink" width="310px" height="280px" viewBox="0 0 310 280" x="0px" y="0px" enable-background="new 0 0 310 280"><defs><symbol overflow="visible" id="5dbf5130a"><path d="M3.42-31.5c-.98 0-1.22.98-1.22 1.31 0 .27.14.32 1.22.44 2.66.31 4.36 1.48 4.4 2.7.1 1.8.15 4.33.15 6.94 0 7.92-.19 14.63-.45 17.23-.14 1.18-1.63 1.7-3.11 1.8-.72.05-.9.86-.9 1.17 0 .18.13.27.32.27.45 0 .98-.27 5.36-.27 3 0 3.6.1 4.12.1.55 0 1.05-.05 1.4-.24.37-.17.54-.72.54-1.03 0-.19-.13-.26-.31-.26-.13 0-.46.03-.86.03-2.64 0-3.24-.75-3.33-1.88-.17-2.98-.36-15.08-.36-20.8 0-.9 0-1.48.23-1.48.13 0 .41.22.77.67C15.61-19.62 22.86-12.37 28-7.16c3.42 3.47 4.82 5.94 6.3 7.79.18.23.4.35.59.35.76 0 1.03-.26 1.03-1.43 0-1.3-.13-3.47-.13-8.24 0-6.3.27-12.23.67-17.86.17-2.39 1.3-2.92 3.7-3.32.54-.1.98-.65.98-1.22 0-.22-.08-.32-.32-.32-.31 0-2.75.27-6.39.27-2.73 0-3.47-.17-3.95-.17-.81 0-.95.84-.95 1.08 0 .21 0 .3.4.36 2.97.3 3.52.76 3.61 2.46.08 1.58.08 3.24.08 4.86 0 2.44-.08 6.75-.08 10.27 0 1.25 0 2.51.03 3.83 0 .43-.03.67-.22.67-.17 0-.5-.28-.67-.45-4.33-4.6-13.64-13.72-18.95-19.99-2.25-2.6-2.61-3.01-3.6-3.01-2.3 0-4.76-.27-6.7-.27zm0 0"/></symbol><symbol overflow="visible" id="5dbf5130b"><path d="M12.16-21.06C5.3-21.06 1.39-14.98 1.39-9.1 1.4-4.14 4.23.5 9.94.5c4.06 0 7.7-2.94 7.7-5.63 0-.68-.36-.9-.55-.9-.07 0-.12.05-.17.14a5.58 5.58 0 01-5.22 3.42c-4.14 0-6.8-3.87-6.8-8.23 0-1 0-2.03.63-2.03.4 0 .95.04 1.63.04 3.59 0 9.76-.36 10.62-1.22.22-.21.22-.5.22-.76 0-2.7-2.3-6.4-5.84-6.4zm-3.79 7.15c-2.96 0-3.15-.04-3.15-.4 0-1.66 2.03-4.77 4.45-4.77 2.56 0 4.33 2.02 4.33 3.83 0 1.25-3.73 1.34-5.63 1.34zm0 0"/></symbol><symbol overflow="visible" id="5dbf5130c"><path d="M11.83-2.16C11.93 0 13.19.72 14.48.72c2.66 0 4.96-2.4 4.96-3.95a.43.43 0 00-.4-.46c-.46 0-1.35 1.75-2.71 1.75-1.03 0-1.3-1.12-1.3-2.7 0-1.97.81-8.77.81-12.14 0-2.34-2.89-4.45-5.21-4.45-2.35 0-8.43 3.14-8.43 5.53 0 .36.1 1.03.72 1.03.9 0 1.9-.53 2.35-1.13.93-1.26.09-3.18 2.92-3.18 2.39 0 4.04 1.48 4.04 5.98 0 1.13-.07 2.2-.17 2.69-4.54.81-10.53 1.89-10.53 6C1.53-.94 3.33.55 5.72.55c1.94 0 4.19-1 6.1-2.7zm.1-5.93c0 .98-.1 4.21-.13 4.86C10.22-2.11 8.95-1.7 8.02-1.7c-2.18 0-2.7-1.94-2.7-3.52 0-2.8 5.07-3.73 6.48-3.73.12 0 .12.04.12.86zm0 0"/></symbol><symbol overflow="visible" id="5dbf5130d"><path d="M13.31-21.02c-6.56 0-11.6 5.68-11.6 11.93C1.7-3.92 4.76.58 10.74.58c2.48 0 6.03-1.25 7.34-3.81a3.8 3.8 0 00.46-1.72c0-.36-.1-.63-.46-.63-.04 0-.14.05-.18.14-1.58 2.38-3.43 3.28-5.18 3.28-4.67 0-7.51-4.95-7.51-9.54 0-3.55 1.75-6.97 5.36-6.97 1.8 0 3.86.98 5.62 2.37.4.33.53.36.68.36.85 0 2.03-1.7 2.03-2.78 0-1.26-3.3-2.3-5.6-2.3zm0 0"/></symbol><symbol overflow="visible" id="5dbf5130e"><path d="M20.92-36.72c-.45 0-1.03.86-5.03 1.27-.86.08-1.98.3-1.98 1.3 0 .21.09.35.3.35.32 0 .68-.04 1.9-.04.77 0 .9.09.95.4.22.96.49 6.7.49 10.44 0 3.16-.05 3.2-.22 3.2-.27 0-1.13-.64-3.64-.64C6.94-20.44 1.44-14.98 1.44-9c0 4.55 2.84 9.4 7.7 9.4 4.05 0 7.64-3.06 7.95-3.06.1 0 .1.05.1.22 0 .9-.36 2.63-.36 3.2 0 .46.36.58.6.58.26 0 .76-.17 1.7-.4C20.8.54 22.8.14 23.48-.2c.72-.36 1.05-1.03 1.05-1.44 0-.17-.1-.26-.19-.26-.4 0-1.39.58-2.87.58-.64 0-.81-.17-.86-.4-.17-.9-.27-3.6-.27-7.15 0-7.16.36-17.42.82-23.77.17-2.56.36-3.01.36-3.51 0-.36-.33-.58-.6-.58zM7.73-17.28a5.3 5.3 0 013.2-.94c2.38 0 5.13 1.2 6.04 3.45.17.46.17.86.17 3.7 0 2.48-.08 5.4-.17 7.24a9.46 9.46 0 01-4.74 1.44c-4.5 0-7.18-4.58-7.18-8.67 0-2.49.89-4.88 2.68-6.22zm0 0"/></symbol><symbol overflow="visible" id="5dbf5130f"><path d="M8.23-21.52c-.45 0-.9.64-5.8 2.2-.45.15-.68.46-.68.96 0 .14.05.36.4.36 2.54.1 2.62.22 2.66.63.24 2.12.27 5.76.27 10.98 0 3.28-.13 4.95-2.06 5.53-.58.19-.68.67-.68.95 0 .13.1.27.22.27.46 0 1.4-.27 6.49-.27 2.1 0 2.56-.23 2.56-1 0-.17-.05-.26-.31-.26-.77 0-1.99-.1-2.57-.31-.36-.15-.4-.27-.4-1.9.04-4.45.45-11.92.53-12.73.1-.9 3.02-2.08 4.73-2.08 3.6 0 3.91 4.14 3.91 8.25 0 3.14-.27 6.3-.58 7.47-.26 1.13-1.62 1.3-2.1 1.53-.55.22-.6.67-.6.99 0 .1.05.22.22.22.28 0 1.81-.32 4.37-.32 1.25 0 2.38.1 3.11.1 1.03 0 1.56-.27 1.56-.86 0-.4-.53-.17-2.56-.67-.36-.1-.36-.36-.36-1.22.05-3.11.46-5.9.46-9.27 0-2.34-.14-3.23-.14-3.69 0-.5 2.7-2.25 5.04-2.25 3.42 0 3.83 3.07 3.83 7.7 0 2.96-.23 6.12-.64 7.74-.27 1.08-1.34 1.25-2.11 1.49-.63.17-.67.8-.67 1.03 0 .1.05.22.17.22.45 0 1.17-.27 4.55-.27 2.03 0 3.25.05 4.04.05 1.27 0 1.68-.27 1.68-.96 0-.12-.05-.21-.63-.26-1-.1-2.7-.22-3.02-.4-.28-.13-.3-.27-.3-.87 0-1.97.52-7.06.52-10.3 0-3.95-1.03-7.87-4.59-7.87-2.3 0-6.1 2.2-8.14 3.69-.55-2.4-2.52-3.83-4.05-3.83-1.84 0-4.64 1.27-6.65 2.48-.91.54-1.1.68-1.22.68-.14 0-.14-.1-.14-.32 0-.76.26-2.43.26-2.96 0-.29-.22-.65-.58-.65zm0 0"/></symbol><symbol overflow="visible" id="5dbf5130g"><path d="M8.06-32.72c-1.26 0-2.3 1.22-2.3 2.34 0 1.04.72 2.2 2.02 2.2 1.13 0 2.53-1.29 2.53-2.55 0-1.44-1.31-1.99-2.25-1.99zm.9 10.84c-.46 0-1 .72-5.9 2.54-.62.21-.9.67-.9 1.12 0 .27.14.36.45.36.27 0 .98-.14 1.89-.14.4 0 .67.05.72.27.14.67.36 2.8.36 11.65 0 3.33-.31 4.4-2.16 5.1-.81.3-.9.67-.9 1.07 0 .18.09.27.23.27.27 0 2.66-.4 5.8-.4.9 0 1.8.04 2.3.04 1.07 0 1.43-.58 1.43-.98 0-.29-.17-.29-.31-.29-1.8 0-2.66-.21-2.88-.43-.14-.14-.28-.36-.28-1.99.1-16.65.64-16.34.64-17.6 0-.3-.18-.59-.5-.59zm0 0"/></symbol><symbol overflow="visible" id="5dbf5130h"><path d="M2.22 0v-5.38l-.1-1.18h.13L5.35 0H6.9v-8.1H5.8v5.26l.08 1.23h-.12l-3.1-6.5H1.12V0zm0 0"/></symbol><symbol overflow="visible" id="5dbf5130i"><path d="M6.9-2.69v-.5C6.9-5.13 5.82-6.2 4-6.2 2.17-6.2 1.06-5 1.06-2.98c0 2.06 1.08 3.15 3 3.15C5.75.17 6.52-.5 6.8-1.64l-1.08-.13c-.24.75-.7 1.07-1.64 1.07-1.11 0-1.81-.64-1.88-1.99zM4-5.33c1.14 0 1.75.61 1.8 1.88H2.22c.1-1.28.7-1.88 1.78-1.88zm0 0"/></symbol><symbol overflow="visible" id="5dbf5130j"><path d="M3.4.17C4.51.17 5.2-.3 5.57-.97h.08l.12.97h.9v-4.05c0-1.48-.82-2.15-2.54-2.15-1.73 0-2.44.75-2.6 1.9l1.1.11c.13-.7.52-1.1 1.47-1.1 1.01 0 1.47.37 1.47 1.23v.42l-2.17.23c-1.49.18-2.08.82-2.08 1.86 0 1.13.76 1.72 2.06 1.72zm.29-.92c-.81 0-1.2-.33-1.2-.9 0-.52.32-.87 1.2-.96l1.89-.23v.48c0 .95-.75 1.61-1.9 1.61zm0 0"/></symbol><symbol overflow="visible" id="5dbf5130k"><path d="M4.02.17c1.7 0 2.56-.78 2.7-2.12l-1.08-.13c-.12.85-.6 1.3-1.6 1.3C2.79-.78 2.2-1.55 2.2-3c0-1.48.58-2.23 1.85-2.23 1 0 1.47.42 1.6 1.3l1.07-.12c-.16-1.33-.99-2.14-2.7-2.14-1.88 0-2.97 1.17-2.97 3.19 0 2 1.1 3.17 2.97 3.17zm0 0"/></symbol><symbol overflow="visible" id="5dbf5130l"><path d="M3.42.17c1.13 0 1.77-.5 2.1-1.26h.07L5.75 0h.92v-8.58H5.53v3.56h-.08c-.34-.75-1.04-1.17-2.01-1.17C1.64-6.19.72-5 .72-3.02c0 2 .92 3.2 2.7 3.2zm.27-.95c-1.2 0-1.8-.74-1.8-2.22 0-1.52.6-2.23 1.78-2.23 1.35 0 1.9.95 1.9 2.23 0 1.27-.55 2.22-1.88 2.22zm0 0"/></symbol><symbol overflow="visible" id="5dbf5130m"><path d="M1.94 0v-3.47c0-.97.2-1.69.87-1.69.49 0 .66.36.66 1.07V0H4.6v-3.47c0-.97.22-1.69.87-1.69.49 0 .68.35.68 1.07V0H7.3v-4.34c0-1.11-.35-1.85-1.35-1.85-.75 0-1.14.49-1.3 1.07h-.09c-.1-.61-.51-1.07-1.28-1.07-.73 0-1.12.49-1.28 1.07h-.08l-.3-.9H.8V0zm0 0"/></symbol><symbol overflow="visible" id="5dbf5130n"><path d="M4.3-6.97c.5 0 .86-.28.86-.81S4.8-8.6 4.3-8.6c-.53 0-.86.28-.86.8 0 .54.33.82.86.82zm.6.95H1.82v.91h1.92v4.19H1.56V0h5.38v-.92H4.89zm0 0"/></symbol><symbol overflow="visible" id="5dbf5130p"><path d="M4.02.17c2.01 0 3.15-.89 3.15-2.4 0-1.35-.8-1.93-2.33-2.24L3.67-4.7c-1.01-.2-1.44-.58-1.44-1.35 0-.83.66-1.3 1.88-1.3 1.17 0 1.75.4 1.94 1.46L7.15-6c-.2-1.53-1.21-2.28-3-2.28-1.96 0-3.04.87-3.04 2.31 0 1.28.75 1.99 2.2 2.28l1.22.24c1.02.2 1.52.5 1.52 1.3 0 .9-.72 1.4-2 1.4-1.33 0-1.94-.47-2.11-1.48l-1.11.1C1-.6 1.98.17 4.02.17zm0 0"/></symbol><symbol overflow="visible" id="5dbf5130q"><path d="M3.28.17c1.08 0 1.7-.53 2.08-1.3h.08L5.58 0h.97v-6.02H5.4v3.24c0 1.17-.66 1.94-1.74 1.94-.9 0-1.3-.47-1.3-1.47v-3.7H1.24v3.96c0 1.4.68 2.22 2.05 2.22zm0 0"/></symbol><symbol overflow="visible" id="5dbf5130r"><path d="M4.69.17c1.76 0 2.6-1.19 2.6-3.17 0-2-.84-3.19-2.6-3.19-1.1 0-1.8.49-2.14 1.2h-.08v-3.59H1.33V0h.97l.15-1.1h.07c.34.77.96 1.27 2.17 1.27zm-.4-.95C3-.78 2.45-1.75 2.45-3c0-1.28.56-2.23 1.86-2.23S6.1-4.52 6.1-3c0 1.48-.52 2.22-1.8 2.22zm0 0"/></symbol><symbol overflow="visible" id="5dbf5130s"><path d="M2.6 0v-3.22c0-1.19.71-1.94 1.74-1.94.9 0 1.29.49 1.29 1.44V0h1.14v-3.97c0-1.4-.7-2.22-2.02-2.22-1.08 0-1.72.55-2.08 1.3H2.6v-3.69H1.45V0zm0 0"/></symbol></defs><use xlink:href="#5dbf5130a" x="38.0675" y="145"/><use xlink:href="#5dbf5130b" x="79.3325" y="145"/><use xlink:href="#5dbf5130c" x="98.6825" y="145"/><use xlink:href="#5dbf5130d" x="118.1675" y="145"/><use xlink:href="#5dbf5130c" x="137.9675" y="145"/><use xlink:href="#5dbf5130e" x="157.4525" y="145"/><use xlink:href="#5dbf5130b" x="182.2025" y="145"/><use xlink:href="#5dbf5130f" x="201.5525" y="145"/><use xlink:href="#5dbf5130g" x="238.9025" y="145"/><use xlink:href="#5dbf5130c" x="252.4475" y="145"/><g fill-opacity=".33"><use xlink:href="#5dbf5130h" x="83" y="230"/><use xlink:href="#5dbf5130i" x="91.0004" y="230"/><use xlink:href="#5dbf5130j" x="99.0008" y="230"/><use xlink:href="#5dbf5130k" x="107.0012" y="230"/><use xlink:href="#5dbf5130j" x="115.0016" y="230"/><use xlink:href="#5dbf5130l" x="123.002" y="230"/><use xlink:href="#5dbf5130i" x="131.0024" y="230"/><use xlink:href="#5dbf5130m" x="139.0028" y="230"/><use xlink:href="#5dbf5130n" x="147.0032" y="230"/><use xlink:href="#5dbf5130j" x="155.0036" y="230"/><use xlink:href="#5dbf5130o" x="163.004" y="230"/><use xlink:href="#5dbf5130p" x="171.0044" y="230"/><use xlink:href="#5dbf5130q" x="179.0048" y="230"/><use xlink:href="#5dbf5130r" x="187.0052" y="230"/><use xlink:href="#5dbf5130s" x="195.0056" y="230"/><use xlink:href="#5dbf5130i" x="203.006" y="230"/><use xlink:href="#5dbf5130j" x="211.0064" y="230"/><use xlink:href="#5dbf5130l" x="219.0068" y="230"/></g></svg>