<?xml version='1.0' encoding='UTF-8'?>
<svg xmlns="http://www.w3.org/2000/svg" xmlns:xlink="http://www.w3.org/1999/xlink" width="600px" height="300px" viewBox="0 0 600 300" x="0px" y="0px" enable-background="new 0 0 600 300"><defs><symbol overflow="visible" id="11ca77efa"><path d="M42.31-26.27v12.7c0 5.84-.12 8.88-.45 9.87-.27.78-.97 1.1-3.7 1.42-.46.08-.6.14-.72.39-.4.72-.52 1.37-.52 1.89 0 .27.19.27.33.27.45 0 5.4-.27 7.02-.27 5.45 0 7.46.06 8.45.06.39 0 1.1-1.23 1.1-1.95 0-.19 0-.31-.59-.4-4.09-.44-4.54-1.08-4.67-2.91-.26-2.92-.39-5.13-.39-23.72 0-4.42.19-9.56.4-11.05.12-2.16 1.74-2.28 4.4-2.55.72-.06 1.37-1.87 1.37-2.46 0-.2-.2-.25-.45-.25-6.95 0-20.22.25-24.83.25-18.65 0-21.51-.13-23.28-.13-.33 0-.39 0-.51.13-.33.32-.72 1.3-.72 2.15 0 .19.06.25.45.31 4.3.72 5.27 1.05 5.4 3.07.13 2.14.2 4.87.2 23.92 0 7.01-.13 9.75-.27 10.78-.19 1.5-.58 2.28-3.56 2.55-.46.06-.66.18-.85.45A3.61 3.61 0 005.4 0c0 .19.14.33.33.33.33 0 3.06-.27 6.62-.27 5.86 0 7.16.07 8.27.07.9 0 1.36-1.3 1.36-2.02 0-.13-.06-.25-.52-.25-1.95-.06-3.76-.45-4.23-1.56-.52-1.17-.7-6.9-.7-15.4 0-15.15 0-19.18.12-21.34.13-1.62.4-1.94 3.64-1.94H38.1c4.22 0 4.28.26 4.28 4.04zm0 0"/></symbol><symbol overflow="visible" id="11ca77efb"><path d="M16.97-3.13c.58 3.7 1.75 4.18 3.7 4.18.97 0 1.63-.2 2.66-.72a6.49 6.49 0 003.51-4.16c.4-1.1.4-1.56.4-1.62 0-.27-.58-.66-.91-.66-.14 0-.2.06-.27.19-.33 1.04-1.87 2.86-2.98 2.86-1.17 0-1.44-.7-1.44-2.27 0-6.04 1.9-13 1.9-17.87 0-2.22-.34-3.46-2.35-5.27-1.57-1.36-3.7-2.47-5.78-2.47-3.7 0-12.49 4.55-12.49 8.32 0 .45.27 1.62 1.17 1.62.66 0 2.6-.78 3.52-1.23.97-.52 1.23-1.04 1.23-1.63 0-.64-.2-1.03-.2-1.56 0-1.3 1.83-2.4 3.25-2.4 1.38 0 3 .71 4.48 2.09 1.11 1.03 1.44 3.89 1.44 6.5 0 1.8-.2 3.56-.33 4.34-3.9.6-9.68 1.77-12.54 3.39-2.14 1.23-2.99 2.47-2.99 4.6 0 4.76 2.47 7.74 6.5 7.74 2.8 0 6.05-1.5 8.52-3.96zm0-1.75c-2.34 1.7-4.16 2.41-5.53 2.41-2.6 0-3.58-2.67-3.58-4.94 0-1.37.45-2.53 1.62-3.3 2.16-1.38 6.83-2.62 7.68-2.62.26 0 .26.46.26.9 0 1.24-.33 6.5-.45 7.55zm0 0"/></symbol><symbol overflow="visible" id="11ca77efc"><path d="M17.75-1.5c-.53.14-1.1 1.38-1.1 1.56 0 .27.12.46.32.46.39 0 2.08-.46 7.73-.46 1.11 0 2.2.13 2.93.13.45 0 .78-.07.96-.19a3.4 3.4 0 001.11-1.69c0-.2-.18-.2-.64-.26-1.76-.2-2.22-1.11-3-3.05a196.5 196.5 0 01-4.36-12.42c-1.93-6.05-3.43-11.56-3.5-13.13 0-.2-.26-.26-.65-.26-.97 0-2.93.51-3.9.98-.38.19-.65.25-.65.7 0 .33 0 1.05-.4 3-.38 1.88-2 6.11-3.82 10.54-1.37 3.3-2.86 6.68-3.9 9.28-.85 2.15-1.7 3.78-3.7 4.75C.71-1.36.32.13.32.33c0 .12.06.39.25.39.26 0 1.83-.4 4.69-.45C7.16.19 8.84.19 9.94.07c.53-.07 1.5-1.3 1.5-1.57 0-.13-.13-.19-.46-.25-2.53-.53-3.51-.53-3.51-1.5 0-.52.26-1.75.53-2.6a69.98 69.98 0 012.47-7.34c1.36-3.58 2.8-7.03 3.64-9.75.06-.2.12-.39.25-.39.08 0 .14 0 .27.4 1.23 3.76 3.06 9.54 4.8 15.32.4 1.17 1.04 3.31 1.04 3.97 0 .97-.58 1.62-2.72 2.14zm0 0"/></symbol><symbol overflow="visible" id="11ca77efd"><path d="M17.75-1.5c-.53.14-1.1 1.38-1.1 1.56 0 .33.12.46.32.46.45 0 2.72-.46 7.73-.46 1.11 0 2.93.13 3.64.13.64 0 1.1-.07 1.3-.19a3.52 3.52 0 001.11-1.69c0-.2-.2-.2-.66-.26-2.2-.33-2.4-.33-3.18-1.96a139.02 139.02 0 01-5.79-15.46c-1.68-5.33-2.85-9.82-2.92-11.18 0-.2-.32-.26-.72-.26-.65 0-1.62.2-2.53.45-.98.27-1.89.6-1.89 1.23 0 .4 0 1.05-.51 3.25a63.45 63.45 0 01-2.61 7.35c-1.63 4.1-3.7 8.78-5.06 12.22-.85 2.15-1.7 3.78-3.7 4.75C.71-1.36.32.13.32.33c0 .12.06.39.25.39.39 0 1.83-.4 4.69-.45 1.89-.08 4.09 0 4.67-.2.53-.2 1.5-1.18 1.5-1.43 0-.2-.13-.33-.46-.39-2.53-.53-3.51-.53-3.51-1.56 0-.99.84-3.7 1.44-5.53.84-2.6 1.95-5.27 2.92-7.8.9-2.28 1.69-4.42 2.28-6.3.06-.2.12-.39.25-.39.08 0 .14.06.2.25.58 1.83 1.36 4.1 2.2 6.64.79 2.4 1.63 5.07 2.47 7.74.46 1.48 1.38 3.95 1.38 4.93 0 1.04-.66 1.75-2.86 2.27zm0 0"/></symbol><symbol overflow="visible" id="11ca77efe"><path d="M12.6-26.13C11.96-22.8 7.35-10.97 5-4.8c-.7 1.89-1.42 1.89-3.7 1.89-.2 0-.85.45-.85 1.03 0 .39.33 1.62.33 3.7C.78 4.21.4 8.06.4 8.84c0 1.18 1.81 1.7 2.4 1.7.4 0 .65-.27.73-.6C4.48 1.63 3.9.45 8.39.33c6.63-.2 7.2-.2 16.31-.2 2.53 0 2.66 1.43 2.66 3.18 0 2.8-1.17 6.31-1.17 6.7 0 .4.14.65.98.65.72 0 1.69-.4 2.02-1.18 1.95-4.73 3.04-10.26 3.04-11.23 0-.4-.51-1.05-1.03-1.05-.32 0-.6.33-1.82.33-1.3 0-1.7-.2-2.2-1.3-4.24-8.9-8.26-24.12-8.4-26.78 0-.2-.33-.26-.72-.26-.37 0-4.34.51-4.93 1.43-.13.2.06.52-.52 3.25zM8.4-4.16c1.22-6.1 4.6-14.23 5.57-18.4.08-.52.2-.77.39-.77.2 0 .27.13.33.31 1.1 4.49 5.53 14.24 6.89 19.2.06.24.12.5.12.7 0 .59-.39.71-1.54.71-2.22 0-7.88-.06-11.58-.32-.27 0-.33-.25-.33-.52s.06-.58.14-.9zm0 0"/></symbol><symbol overflow="visible" id="11ca77eff"><path d="M35.1-28.08a1.92 1.92 0 001.23-1.83c0-.18-.06-.25-.25-.25-.33 0-4.94.64-8.85.64-2.01 0-.45.85-2.2 4.1-2.34 4.23-6.5 9.5-10.28 15.1a110.9 110.9 0 00-3.31 5.38c-.06.13-.13.19-.19.19-.14 0-.2-.06-.2-.19 0-.51.6-1.83.72-7.73.12-5.08-.27-12.1 1.17-13.9.51-.73 1.87-1.05 2.65-1.18.54-.14 1.05-1.56 1.05-1.83 0-.19-.2-.39-.33-.39-.33 0-4.28.45-7.53.45-2.01 0-3.84-.12-4.42-.12-.4 0-.66.06-.78.12a3.68 3.68 0 00-1.17 1.7c0 .2.18.2.57.26 2.29.39 3.2.26 3.4 1.17.18 1.1.51 7.6.51 13.84a83 83 0 01-.39 8.78c-.13 1.43-.58 2.27-2.92 3.2-.66.18-.72.76-.72 1.23 0 .18.12.3.45.39.52 0 2.47-.53 7.74-.99.9-.06 1.04-.12 1.17-.64.12-.53.33-1.83 1.62-3.97 4.1-6.64 6.96-10.07 9.49-13.78a47.8 47.8 0 003.19-5.08c.06-.12.14-.18.2-.18s.06.06.06.18c0 .33-.33 3.46-.33 7.68 0 7.67 0 11.7-1.17 13.06-.9 1.04-1.81 1.04-2.66 1.31-.59.19-.78 1.49-.78 1.69 0 .19.25.25.4.25.64 0 2.65-.45 7.53-.45 1.56 0 3.96.06 4.8.06 1.12 0 2.02-.7 2.02-1.49 0-.2 0-.39-.26-.39-1.75-.06-3.7-.39-4.35-.72-.32-.12-.45-.26-.45-2.98 0-5.66-.2-10.47-.2-14.38 0-1.62.06-3.04.12-4.34.08-1.77 1.05-2.8 3.64-3.97zm0 0"/></symbol><symbol overflow="visible" id="11ca77efg"><path d="M15.2.66c10.53 0 16.46-7.82 16.46-15.94 0-7.2-4.88-15.08-13.2-15.08-8.38 0-16.71 7.28-16.71 16.13C1.75-6.83 6.56.66 15.2.66zm.72-28.47c6.05 0 9.36 6.42 9.36 13.64 0 5.39-1.42 12.48-8.37 12.48-5.35 0-8.79-5.53-8.79-13.33 0-6.56 2.68-12.8 7.8-12.8zm0 0"/></symbol><symbol overflow="visible" id="11ca77efi"><path d="M25.16-31.53c-.97 0-2.22.92-3.32 1.95-3.06 2.92-6.76 8.33-9.03 11.83-.47.72-.53.72-.65.72-.13 0-.27-.13-.27-.4 0-.38.14-.63.53-2.2.9-3.64 1.55-6.95 1.55-8.71 0-2.02-1.88-3.05-3.7-3.05-.85 0-1.57.25-2.33.97-1.96 1.56-4.24 4.75-5.4 6.83-.52.9-.65 1.03-.65 1.36 0 .45.45 1.04.7 1.04.14 0 .27-.2.85-.98 1.25-1.63 3.06-3.64 4.36-3.64 1.04 0 1.23.98 1.23 1.89 0 2.8-.84 5.92-1.56 9.75C6.69-10.14 4.75-.57 4.75.27c0 .45 1.17.78 2.98.78 1.63 0 1.83-.08 1.9-.47.7-4.67 2.26-11.24 3.5-13.85a59.68 59.68 0 013.64-6.42c.98-1.5 2.01-2.93 3.06-4.1 1.1-1.3 2.47-2.48 3.64-2.48 1.42 0 2.2 1.32 2.2 2.47 0 1.44-.39 3.72-.9 6.32-.46 2.2-.97 4.54-1.5 6.89-.91 3.7-1.96 8.25-1.96 9.48 0 1.3.78 2.4 2.49 2.4 1.62 0 3.1-.84 4.8-2.46a31.5 31.5 0 004.8-5.72c.27-.4.73-.97.73-1.36 0-.53-.4-1.38-.66-1.38-.13 0-.31.33-1.03 1.18-1.56 1.82-3.85 3.97-4.88 3.97-.39 0-.51-.4-.51-.91 0-1.9 1.3-6.9 2.39-11.58.78-3.25 1.5-6.23 1.5-8.12 0-1.1-.19-2.08-.64-2.86-1.18-2.35-3.78-3.58-5.14-3.58zm0 0"/></symbol><symbol overflow="visible" id="11ca77efj"><path d="M17.88-31.14c-4.36 0-8.25 3.84-10.66 7.1A22.8 22.8 0 002.47-10.2c0 5.51 2.08 11.7 8.58 11.7 3.18 0 6.3-1.63 8.97-4.17a23.03 23.03 0 007.15-16.77c0-6.62-2.92-11.7-9.3-11.7zM15.8-27.5c4.22 0 5.98 4.17 5.98 9.17 0 1.03-.08 2.2-.2 3.31-.52 4.94-3.38 12.82-8.4 12.82-3.55 0-5.32-5.47-5.32-8.99 0-3.83.98-8.31 2.73-11.56.97-1.81 2.68-4.75 5.2-4.75zm0 0"/></symbol><symbol overflow="visible" id="11ca77efk"><path d="M19.83-31.45c-1.3 0-4.24.76-5.2 1.42-.52.33-.79.6-.79 1.05 0 1.09-.18 2.53-.96 4.67A132.3 132.3 0 015.71-8.2c-1.69 3.05-2.53 3.7-3.9 3.7-2.6 0-3.84-1.23-4.23-1.23-.32 0-.45.78-.45 1.75 0 2.92.9 5.33 3.58 5.33 2.01 0 3.97-1.75 5.78-5.58 3.31-6.89 5.98-13.33 7.86-18.92.6-1.75.92-2.28 1.1-2.28.34 0 .4 1.7.4 3.33 0 2.53-.06 4.28-.06 8.7 0 6.44.26 8.9.64 11.83.2 1.44 1.31 2.86 2.87 2.86.85 0 1.69-.4 2.53-.97a16.3 16.3 0 004.29-4.69 4.4 4.4 0 00.71-2.14c0-.45-.12-.9-.32-.9-.13 0-.25.18-.97.96-1.3 1.38-2.35 2.35-3.2 2.35-.96 0-1.23-.91-1.41-1.83-.6-2.33-.78-7.08-.78-11.83 0-3.95.12-7.92.3-10.53.09-1.16.27-2.4.27-2.66 0-.39-.32-.51-.9-.51zm0 0"/></symbol><symbol overflow="visible" id="11ca77efl"><path d="M15.28-27.23c2.6 0 5.27.9 5.27 1.89 0 2.46-1.18 6.23-1.7 7.2-.65.84-2.41 1.7-3.44 1.7-3.25 0-6.77-3.39-6.77-6.31 0-1.69.98-3.25 3.52-4.03 1.1-.33 2.07-.45 3.12-.45zm1.81-3.2c-1.95 0-3.51.27-5.2.85-2.47.9-4.6 3.25-5.78 4.75a8.54 8.54 0 00-1.95 5.2c0 3.2 2.21 6.11 6.7 6.11.39 0 1.23 0 1.69-.06-1.75 1.69-4.82 5.33-8 8.77-.78.84-1.49 1.1-2.27 1.1-1.05 0-1.83-.32-2.73-.32-.46 0-.52.26-.52.66 0 2.14.9 4.67 3.83 4.67 1.89 0 3.19-.9 5.33-4.22 2.73-4.3 5.92-9.11 8-11.19.72-.7 2.01-1.48 2.34-1.48.06 0 .19 0 .19.3 0 1.18-2.66 11.71-2.66 13.85 0 1.9 1.55 2.67 3.11 2.67 1.63 0 2.8-.84 4.1-2.01A21.97 21.97 0 0026.9-5.2 6.35 6.35 0 0028-8c0-.58-.2-1.1-.45-1.1-.2 0-.33.32-1.5 1.7-1.36 1.56-2.8 2.8-3.76 2.8-.52 0-.9-.4-.9-1.45 0-.84.5-3.89.83-5.51 1.04-5.8 2.2-10.28 2.93-13.72.51-2.47 1.5-4.81 1.5-5.33 0-.45-.99-.98-2.22-.98-.58 0-.85 1.3-2.8 1.3-1.69 0-3.31-.13-4.55-.13zm0 0"/></symbol><symbol overflow="visible" id="11ca77efm"><path d="M27.95-30.94c-.9 0-1.62.19-1.76.64-.38 1.63-2.14 11.9-3.17 12.55-.79.4-3.33.78-6.11 1.05-1.83.18-5.02.45-5.27.45-.33 0-.39-.13-.39-.33 0-.12.25-.78.45-1.42.85-2.73 2.53-8.33 2.53-11.13 0-1.56-1.56-2.07-3.25-2.07-.65 0-1.17.14-1.56.26-2.98 1.24-6.56 5.85-7.67 7.8-.19.33-.25.9-.25 1.36 0 .53.13.92.25.92.14 0 .27-.2.78-.78.99-1.11 3.7-4.23 5.2-4.23.4 0 .79.32.79 1.3 0 .71-.97 5.98-1.57 8.71C5.06-7.08 3.83-1.1 3.83.2c0 .6 2.54.92 3.58.92.71 0 1.23-.06 1.3-.53.32-2.4 2.09-11.3 2.6-13.7.06-.6 2.8-.99 5.27-1.24 2.2-.2 5.72-.66 6.5-.66.39 0 .58 0 .58.13 0 .53-1.57 5.8-2.54 10.14-.45 2.08-.57 2.67-.57 3.52 0 1.56 1.15 2.46 2.65 2.46 1.63 0 3.38-1.1 4.82-2.28a14.87 14.87 0 004.3-5.45c.18-.4.3-1.05.3-1.56 0-.58-.12-1.03-.3-1.03-.21 0-.21.3-1.38 1.62-1.36 1.55-3.38 3.25-4.16 3.25-.51 0-.6-.72-.6-1.44 0-2.07.93-5.98 1.84-9.8 1.75-7.35 3.25-11.9 3.25-14.06 0-1.03-1.44-1.42-3.32-1.42zm0 0"/></symbol><symbol overflow="visible" id="11ca77efn"><path d="M1.9-11.83a21.2 21.2 0 00-.46 4.49c0 4.75 1.81 8.57 6.3 8.57 2.8 0 9.68-10.71 11.7-13.26.25-.31.39-.45.51-.45.13 0 .2.14.2.32 0 .6-.71 3.25-1.04 4.82-.52 2.2-.97 4.75-.97 6.1C18.14.53 19.83 1.3 21 1.3c1.03 0 1.94-.25 4.1-2.27 2.13-2.01 5.26-6.31 5.32-8.06 0-.45-.33-.78-.6-.78-.05 0-.12 0-.18.06-1.17 1.5-4.03 5.14-5.6 5.14-.63 0-.84-.14-.84-.72 0-1.04.27-2.4.52-4.1 1.44-9.35 4.36-21.63 4.62-23.73 0-.18-.98-.57-1.82-.57-1.36 0-1.43.71-2.02 1.95-.45.97-.78 1.62-1.48 1.62-.72 0-1.5-.2-2.41-.2-2.16 0-3.84.33-5.47 1.17C9.75-26.33 2.92-17.29 1.9-11.83zm5.32-4.42c1.1-3.19 3.25-6.5 6.17-8.64 1.23-.92 2.67-1.77 4.42-1.77s4.03.66 4.03 2.02c0 1.56-.65 5.8-1.62 7.67C17.82-12.42 11.5-4.8 9.17-4.8c-2.01 0-2.86-2.92-2.86-5.85 0-1.89.32-3.9.9-5.59zm0 0"/></symbol><symbol overflow="visible" id="11ca77efo"><path d="M3.83 0v-5.95H6.2v-.82H.45v.82h2.4V0zm0 0"/></symbol><symbol overflow="visible" id="11ca77efp"><path d="M5.75-2.23v-.43c0-1.6-.9-2.51-2.42-2.51S.87-4.16.87-2.48c0 1.71.91 2.62 2.5 2.62 1.43 0 2.07-.56 2.29-1.52l-.9-.09c-.18.61-.59.9-1.35.9-.94 0-1.52-.54-1.58-1.66zm-2.4-2.2c.93 0 1.43.5 1.48 1.55H1.84c.08-1.07.6-1.56 1.5-1.56zm0 0"/></symbol><symbol overflow="visible" id="11ca77efq"><path d="M1.83 0l1.42-2h.06l1.46 2H5.8L4-2.53l1.78-2.49H4.8L3.42-3.08h-.08l-1.4-1.94H.89l1.78 2.49L.84 0zm0 0"/></symbol><symbol overflow="visible" id="11ca77efr"><path d="M5.52-4.25v-.77H3.17v-1.56h-.81l-.14 1.56H.75v.77h1.47v2.4c0 1.3.48 1.94 1.84 1.94C4.6.1 5.14 0 5.55-.14L5.4-.91c-.32.13-.72.2-1.13.2-.8 0-1.1-.37-1.1-1.23v-2.31zm0 0"/></symbol><symbol overflow="visible" id="11ca77efs"><path d="M3.33-3.42c.47 0 .8-.27.8-.8 0-.51-.33-.8-.8-.8-.47 0-.8.29-.8.8 0 .53.33.8.8.8zm0 3.5c.47 0 .8-.27.8-.78 0-.53-.33-.82-.8-.82-.47 0-.8.29-.8.82 0 .51.33.78.8.78zm0 0"/></symbol><symbol overflow="visible" id="11ca77efu"><path d="M.92-6.77V0h.94v-5.92H4.8V0h.94v-6.77zm0 0"/></symbol><symbol overflow="visible" id="11ca77efv"><path d="M2.83.14c.94 0 1.5-.39 1.81-.95h.08l.1.81h.76v-3.38c0-1.23-.69-1.8-2.13-1.8-1.43 0-2.03.65-2.18 1.6l.93.1c.11-.6.44-.93 1.22-.93.85 0 1.22.32 1.22 1.04v.34l-1.81.2C1.6-2.7 1.1-2.17 1.1-1.28c0 .92.64 1.42 1.72 1.42zm.25-.77c-.67 0-1.02-.28-1.02-.74 0-.44.28-.72 1-.82l1.58-.19v.41c0 .8-.6 1.34-1.56 1.34zm0 0"/></symbol><symbol overflow="visible" id="11ca77efw"><path d="M1.58-5.02c-.03.94-.11 2.35-.17 3.08-.08.86-.24 1.19-.74 1.19-.12 0-.23-.02-.31-.03L.3.02c.14.03.36.06.55.06 1.06 0 1.3-.64 1.39-1.9.05-.54.1-1.63.14-2.43h2.06V0h.96v-5.02zm0 0"/></symbol><symbol overflow="visible" id="11ca77efx"><path d="M5.36-5.02H1.7a36.7 36.7 0 01-.12 2.44c-.06.9-.27 1.52-.55 1.81h-.6v2.1h.87V0h3.92v1.33h.87v-2.1h-.73zM1.92-.77c.25-.39.4-1.04.46-1.75.04-.46.07-1.12.1-1.75h1.97v3.5zm0 0"/></symbol><symbol overflow="visible" id="11ca77efy"><path d="M2.03 0L4.6-3.72h.08V0h.92v-5.02h-.96L2.06-1.27H2v-3.75h-.92V0zm0 0"/></symbol><symbol overflow="visible" id="11ca77efz"><path d="M3.33.14c1.62 0 2.5-.95 2.5-2.66 0-1.68-.88-2.64-2.5-2.64-1.63 0-2.5.96-2.5 2.64 0 1.7.87 2.66 2.5 2.66zm0-.77c-1.06 0-1.52-.6-1.52-1.89 0-1.28.46-1.87 1.52-1.87 1.08 0 1.53.6 1.53 1.87 0 1.29-.45 1.9-1.53 1.9zm0 0"/></symbol><symbol overflow="visible" id="11ca77efA"><path d="M1.1-5.02V0h.96v-4.22h2.55V0h.95v-5.02zm0 0"/></symbol><symbol overflow="visible" id="11ca77efB"><path d="M2.92-5.02c-1.34 0-1.95.54-1.95 1.55 0 .9.47 1.4 1.34 1.52L.87 0h1.1l1.36-1.88h1.04V0h.96v-5.02zm.11 2.47c-.81 0-1.1-.3-1.1-.9 0-.61.29-.86 1.1-.86h1.35v1.76zm0 0"/></symbol><symbol overflow="visible" id="11ca77efC"><path d="M4.6-2.97H2.06v-2.05h-.96V0h.96v-2.19H4.6V0h.95v-5.02h-.95zm0 0"/></symbol><symbol overflow="visible" id="11ca77efD"><path d="M5.95-6.77H1.1V0h.99v-2.92H5.3v-.77H2.08v-2.26h3.87zm0 0"/></symbol><symbol overflow="visible" id="11ca77efE"><path d="M2.83.14c.94 0 1.5-.39 1.81-.95h.08l.1.81h.76v-3.38c0-1.23-.69-1.8-2.13-1.8-1.43 0-2.03.65-2.18 1.6l.93.1c.11-.6.44-.93 1.22-.93.85 0 1.22.32 1.22 1.04v.34l-1.81.2C1.6-2.7 1.1-2.17 1.1-1.28c0 .92.64 1.42 1.72 1.42zm.25-.77c-.67 0-1.02-.28-1.02-.74 0-.44.28-.72 1-.82l1.58-.19v.41c0 .8-.6 1.34-1.56 1.34zm0 0"/></symbol><symbol overflow="visible" id="11ca77efF"><path d="M2.73.14c.9 0 1.43-.45 1.74-1.08h.06l.13.94h.8v-5.02h-.94v2.7c0 .98-.57 1.62-1.46 1.62-.75 0-1.1-.4-1.1-1.22v-3.1h-.93v3.32c0 1.17.55 1.84 1.7 1.84zm0 0"/></symbol><symbol overflow="visible" id="11ca77efG"><path d="M5.08-5.16c-.94 0-1.58.43-1.9 1.3h-.09l-.07-1.16H1.05v.77h1.1v3.48H.96V0h3.96v-.77H3.1v-1.46c0-1.36.6-2.05 1.83-2.05.4 0 .76.08 1.1.17l.15-.87c-.33-.11-.7-.18-1.11-.18zm0 0"/></symbol><symbol overflow="visible" id="11ca77efH"><path d="M3.42.14C5.1.14 5.9-.69 6.11-2.17l-.95-.1C4.96-1.19 4.5-.69 3.44-.69c-1.27 0-1.81-.94-1.81-2.69s.54-2.7 1.8-2.7c1.09 0 1.5.49 1.73 1.58l.93-.1c-.21-1.46-.95-2.3-2.62-2.3C1.53-6.9.62-5.6.62-3.38c0 2.2.91 3.51 2.8 3.51zm0 0"/></symbol><symbol overflow="visible" id="11ca77efI"><path d="M3.42-.86h-.08L1.77-5.02H.8L2.73 0h.41c-.33.95-.72 1.27-1.45 1.27-.22 0-.49-.04-.69-.08l-.1.73c.2.06.58.11.87.11 1.2 0 1.7-.7 2.21-2.03l1.94-5.02H5zm0 0"/></symbol><symbol overflow="visible" id="11ca77efJ"><path d="M3.58-5.81c.42 0 .72-.22.72-.67 0-.44-.3-.68-.72-.68-.44 0-.72.24-.72.68 0 .45.28.67.72.67zm.5.8H1.52v.76h1.6v3.48h-1.8V0h4.46v-.77h-1.7zm0 0"/></symbol><symbol overflow="visible" id="11ca77efK"><path d="M3.92-7.14H1.36v.76h1.6v5.61H1.15V0H5.7v-.77H3.92zm0 0"/></symbol><symbol overflow="visible" id="11ca77efL"><path d="M3.34.14c1.43 0 2.13-.66 2.25-1.78l-.89-.1c-.1.7-.5 1.08-1.34 1.08-1.03 0-1.52-.64-1.52-1.84 0-1.23.47-1.86 1.52-1.86.84 0 1.23.36 1.34 1.08l.9-.1c-.13-1.09-.82-1.78-2.26-1.78-1.56 0-2.46.97-2.46 2.66 0 1.66.9 2.64 2.46 2.64zm0 0"/></symbol><symbol overflow="visible" id="11ca77efM"><path d="M3.33.14c1.62 0 2.5-.95 2.5-2.66 0-1.68-.88-2.64-2.5-2.64-1.63 0-2.5.96-2.5 2.64 0 1.7.87 2.66 2.5 2.66zm0-.77c-1.06 0-1.52-.6-1.52-1.89 0-1.28.46-1.87 1.52-1.87 1.08 0 1.53.6 1.53 1.87 0 1.29-.45 1.9-1.53 1.9zm0 0"/></symbol><symbol overflow="visible" id="11ca77efN"><path d="M2.16 0v-2.67c0-.99.59-1.63 1.46-1.63.74 0 1.07.38 1.07 1.22V0h.95v-3.31c0-1.2-.56-1.85-1.67-1.85-.92 0-1.49.46-1.77 1.08h-.06l-.12-.94H1.2V0zm0 0"/></symbol><symbol overflow="visible" id="11ca77efO"><path d="M3.36.16c1.4 0 2.2-.6 2.2-1.57 0-.89-.54-1.22-1.47-1.39L3-3c-.67-.14-.86-.33-.86-.73 0-.5.4-.74 1.17-.74.83 0 1.19.27 1.27.8l.9-.05c-.12-1-.8-1.47-2.17-1.47-1.34 0-2.1.53-2.1 1.5 0 .81.45 1.22 1.52 1.44l1.04.2c.56.11.87.24.87.72 0 .52-.45.78-1.28.78-.95 0-1.36-.28-1.42-.87l-.9.06C1.07-.36 1.8.16 3.35.16zm0 0"/></symbol></defs><use xlink:href="#11ca77efa" x="57.9725" y="153.5" fill="#515151"/><use xlink:href="#11ca77efb" x="113.8725" y="153.5" fill="#fff"/><use xlink:href="#11ca77efc" x="141.6275" y="153.5" fill="#fff"/><use xlink:href="#11ca77efd" x="172.1125" y="153.5" fill="#fff"/><use xlink:href="#11ca77efb" x="202.5975" y="153.5" fill="#fff"/><use xlink:href="#11ca77efe" x="230.3525" y="153.5" fill="#fff"/><g fill="#515151"><use xlink:href="#11ca77eff" x="260.8375" y="153.5"/><use xlink:href="#11ca77efg" x="298.9925" y="153.5"/></g><use xlink:href="#11ca77efh" x="332.2725" y="153.5" fill="#515151"/><g fill="#515151"><use xlink:href="#11ca77efi" x="351.7725" y="153.5"/><use xlink:href="#11ca77efj" x="387.3275" y="153.5"/><use xlink:href="#11ca77efk" x="417.0975" y="153.5"/></g><use xlink:href="#11ca77efl" x="445.3075" y="153.5" fill="#fff"/><g fill="#515151"><use xlink:href="#11ca77efm" x="475.5975" y="153.5"/><use xlink:href="#11ca77efn" x="510.3075" y="153.5"/></g><g fill="#fff"><use xlink:href="#11ca77efo" x="230" y="252"/><use xlink:href="#11ca77efp" x="236.667" y="252"/><use xlink:href="#11ca77efq" x="243.334" y="252"/><use xlink:href="#11ca77efr" x="250.001" y="252"/><use xlink:href="#11ca77efs" x="256.668" y="252"/><use xlink:href="#11ca77eft" x="263.335" y="252"/><use xlink:href="#11ca77efu" x="270.002" y="252"/><use xlink:href="#11ca77efv" x="276.669" y="252"/><use xlink:href="#11ca77efw" x="283.336" y="252"/><use xlink:href="#11ca77efw" x="290.003" y="252"/><use xlink:href="#11ca77efv" x="296.67" y="252"/><use xlink:href="#11ca77efx" x="303.337" y="252"/><use xlink:href="#11ca77efy" x="310.004" y="252"/><use xlink:href="#11ca77efz" x="316.671" y="252"/><use xlink:href="#11ca77eft" x="323.338" y="252"/><use xlink:href="#11ca77efA" x="330.005" y="252"/><use xlink:href="#11ca77efz" x="336.672" y="252"/><use xlink:href="#11ca77efw" x="343.339" y="252"/><use xlink:href="#11ca77efB" x="350.006" y="252"/><use xlink:href="#11ca77efC" x="356.673" y="252"/><use xlink:href="#11ca77efv" x="363.34" y="252"/></g><g fill="#fff"><use xlink:href="#11ca77efD" x="170" y="266"/><use xlink:href="#11ca77efp" x="176.667" y="266"/><use xlink:href="#11ca77efE" x="183.334" y="266"/><use xlink:href="#11ca77efr" x="190.001" y="266"/><use xlink:href="#11ca77efF" x="196.668" y="266"/><use xlink:href="#11ca77efG" x="203.335" y="266"/><use xlink:href="#11ca77efp" x="210.002" y="266"/><use xlink:href="#11ca77efs" x="216.669" y="266"/><use xlink:href="#11ca77eft" x="223.336" y="266"/><use xlink:href="#11ca77efH" x="230.003" y="266"/><use xlink:href="#11ca77efI" x="236.67" y="266"/><use xlink:href="#11ca77efG" x="243.337" y="266"/><use xlink:href="#11ca77efJ" x="250.004" y="266"/><use xlink:href="#11ca77efK" x="256.671" y="266"/><use xlink:href="#11ca77efK" x="263.338" y="266"/><use xlink:href="#11ca77efJ" x="270.005" y="266"/><use xlink:href="#11ca77efL" x="276.672" y="266"/><use xlink:href="#11ca77eft" x="283.339" y="266"/><use xlink:href="#11ca77efL" x="290.006" y="266"/><use xlink:href="#11ca77efM" x="296.673" y="266"/><use xlink:href="#11ca77efN" x="303.34" y="266"/><use xlink:href="#11ca77efr" x="310.007" y="266"/><use xlink:href="#11ca77efp" x="316.674" y="266"/><use xlink:href="#11ca77efq" x="323.341" y="266"/><use xlink:href="#11ca77efr" x="330.008" y="266"/><use xlink:href="#11ca77efF" x="336.675" y="266"/><use xlink:href="#11ca77efE" x="343.342" y="266"/><use xlink:href="#11ca77efK" x="350.009" y="266"/><use xlink:href="#11ca77eft" x="356.676" y="266"/><use xlink:href="#11ca77efE" x="363.343" y="266"/><use xlink:href="#11ca77efK" x="370.01" y="266"/><use xlink:href="#11ca77efr" x="376.677" y="266"/><use xlink:href="#11ca77efp" x="383.344" y="266"/><use xlink:href="#11ca77efG" x="390.011" y="266"/><use xlink:href="#11ca77efN" x="396.678" y="266"/><use xlink:href="#11ca77efE" x="403.345" y="266"/><use xlink:href="#11ca77efr" x="410.012" y="266"/><use xlink:href="#11ca77efp" x="416.679" y="266"/><use xlink:href="#11ca77efO" x="423.346" y="266"/></g></svg>