<?xml version='1.0' encoding='UTF-8'?>
<svg xmlns="http://www.w3.org/2000/svg" xmlns:xlink="http://www.w3.org/1999/xlink" width="600px" height="300px" viewBox="0 0 600 300" x="0px" y="0px" enable-background="new 0 0 600 300"><defs><symbol overflow="visible" id="b14b9efba"><path d="M11.19-39.33c-.4 0-1.56.14-1.56.52a31.6 31.6 0 01-1.32 6.64c-.9 2.92-1.15 3.31-1.15 3.76 0 .4.51.66 1.15.66.78 0 1.56-.27 1.83-.6.33-.45.84-4.02 2.8-4.73 1.42-.53 3.76-.72 8.58-.72 1.56 0 1.89 1.11 1.95 1.96.33 4.4.45 8.82.45 12.92 0 5.2-.2 9.83-.33 13.92-.06 1.81-2.34 2.14-4.03 2.4-1.36.2-1.81 1.82-1.81 2.48 0 .24.19.39.4.39 1.23 0 2.79-.27 8.3-.27 4.55 0 6.11.19 6.83.19 1.56 0 1.95-2 1.95-2.66 0-.33-.14-.51-.71-.51-.33 0-1.63.18-3.07.18-2.01 0-2.2-.51-2.2-2.92 0-5.08-.13-8.06-.13-15.92 0-3.25 0-7.1.07-10.14 0-1.5.12-2.16 1.75-2.16 2.67 0 7.48.08 8.51.2 2.14.4 2.47 2.02 2.99 5.15.14.78 1.62.78 1.89.78.33 0 .39-.27.39-.47 0-1.63.2-4.03.45-6.03.33-2.88.78-3.78.78-4.24 0-.39-.78-.64-1.42-.64-.72 0-1.31 1.49-2.73 1.55-5.4.27-9.63.27-13.99.27-4.73 0-9.28-.07-14.36-.27-1.75-.06-1.36-1.69-2.26-1.69zm0 0"/></symbol><symbol overflow="visible" id="b14b9efbb"><path d="M27.9 1.1C17.02 1.1 8.57-7.27 8.57-18.97c0-10.99 10.2-19.7 21.51-19.7 10.6 0 19.38 7.93 19.38 19.7C49.47-6.95 38.73 1.1 27.89 1.1zm-.73-36.27c-7.6 0-12.22 6.5-12.22 14.7 0 8.83 5.4 17.94 14.96 17.94 7.73 0 12.86-5.66 12.86-15.02 0-9.62-5.58-17.62-15.6-17.62zm0 0"/></symbol><symbol overflow="visible" id="b14b9efbc"><path d="M29.25-39.19c-1.5 0-5 1.75-5 2.27 0 .33.13.6.13 1.36 0 1.56-.58 3.06-1.11 4.75-2.41 7.6-6.36 18.33-9.43 24.7-.9 1.95-3.25 3.05-6.23 3.52-1.24.18-1.69 1.62-1.69 2.26 0 .33.13.4.31.4.99 0 7.04-.34 8.91-.34 3.19 0 4.23.08 4.94.08 1.23 0 1.95-1.56 1.95-2.1 0-.3-.19-.38-.39-.38-2.86-.19-3.83-.4-3.83-1.42 0-.97 1.88-6.32 2.47-8.33.27-.77.58-1.1 1.42-1.16 4.24-.14 5.27-.14 9.7-.14.44 0 .83.14 1.16.85.78 1.76 1.75 5.01 2.67 7.21.2.52.4 1.18.4 1.63 0 1.3-.79 1.5-2.55 1.89-.77.19-1.3 1.48-1.3 2.02 0 .24.2.3.4.3.71 0 1.55-.18 6.5-.18 7.73 0 5.91.19 8.18.19 1.83 0 1.89-2.14 1.89-2.6a.43.43 0 00-.45-.45c-.4 0-1.7.27-2.53.27-1.63 0-2.94-.6-4.18-2.94-4.87-9.22-9.54-25.47-10.78-29.25-.78-2.27-.78-4.4-1.56-4.4zm-2.67 9.16c.2 0 .39.26.65 1.05 1.36 4.42 3.7 11.5 3.7 11.95 0 .26-.05.51-.71.6-.9.05-1.75.05-2.6.05-1.68 0-3.18 0-4.6-.06-.4 0-1.11 0-1.11-.53 0-.64 3.37-9.22 4.09-12.01.13-.54.27-1.05.58-1.05zm0 0"/></symbol><symbol overflow="visible" id="b14b9efbd"><path d="M29.97-37.56c-2.74 0-5.02.25-9.69.25-3.25 0-6.44-.06-7.86-.06-1.1 0-1.83 1.95-1.83 2.53 0 .26.2.45.6.53 1.1.19 5.64.06 5.78 1.69.39 4.42.45 8.7.45 12.93 0 6.24-.12 9.55-.12 14.36 0 1.81-3.4 2.4-5.27 2.66-1.5.2-1.95 1.95-1.95 2.67 0 .27.19.45.51.45C12.16.45 20.61 0 24.44 0c7.67 0 9.5.52 11.58.52.9 0 1.62-.07 2.32-.4 1.9-.7 6.05-7.28 6.05-8.51 0-.78-.84-1.36-1.23-1.36-.2 0-.25 0-.72.72a12.78 12.78 0 01-6.75 5c-2.28.51-4.42.72-6.25.72-5.58 0-6.42-.66-6.5-3.97-.07-4.49-.07-9.94-.07-14.81 0-3.25.07-6.5.2-9.75.07-1.83 2.54-2.22 5.85-2.55 1.38-.13 1.95-2.27 1.95-2.72 0-.45-.32-.45-.9-.45zm0 0"/></symbol><symbol overflow="visible" id="b14b9efbe"><path d="M12.34-25.88c0 1.96 1.32 3.46 3.2 3.46 2.21 0 3.96-2.02 3.96-4.24a3.3 3.3 0 00-3.25-3.43c-2.28 0-3.9 1.75-3.9 4.21zm0 23.08c0 1.96 1.32 3.46 3.2 3.46 2.21 0 3.96-2.02 3.96-4.24a3.3 3.3 0 00-3.25-3.44c-2.28 0-3.9 1.75-3.9 4.22zm0 0"/></symbol><symbol overflow="visible" id="b14b9efbg"><path d="M23.2-46.55c5.66 0 10.47 3.58 10.47 9.17 0 5.6-4.15 9.94-8.72 12.74 4.49 3.45 9.63 7.55 9.63 13.2 0 6.44-6.3 12.49-14.11 12.55-6.03 0-11.95-3.64-11.95-10.47 0-5.84 4.75-9.75 9.8-12.73-5.65-4.18-8.63-8.07-8.63-12.75 0-5.13 5.39-11.7 13.51-11.7zm-3.12 25.7c-4.49 3.04-6.17 7.27-6.17 10.7 0 5.46 4.03 8.59 8.18 8.59 3.72 0 7.1-2.74 7.1-7.14 0-4.88-4.24-9.11-9.11-12.16zm3-5.02c3.64-2.86 5.33-6.96 5.33-10.2 0-5.34-4.3-7.68-7.1-7.68a6.45 6.45 0 00-6.56 6.5c0 4.81 4.3 8.72 8.33 11.38zm0 0"/></symbol><symbol overflow="visible" id="b14b9efbh"><path d="M31.4-37.83c-1.88 0-9.88.52-16 2.27-1.17.33-2.28 3.33-3.3 6.58-.66 2.2-2.02 5.65-2.02 6.95 0 1.36.84 2.01 2.86 2.98 5.2 2.53 11.04 6.05 11.04 11.97 0 7.99-8.25 11.05-13.39 12.4-.96.27-1.42 1.84-1.42 2.54 0 .45.31.72.64.72 1.11 0 4.42-.97 6.44-1.75 6.9-2.8 13.27-8.58 13.27-16.25 0-7.22-6.32-11.9-13.4-14.96-.98-.39-2.6-.84-2.6-1.43 0-1.1 1.17-4.88 2.15-5.13 2.2-.6 11.17-.06 13.13-.72.9-.26 3.25-4.21 3.25-5.65 0-.52-.2-.52-.66-.52zm0 0"/></symbol><symbol overflow="visible" id="b14b9efbi"><path d="M22.88-37.5c-1.7 0-2.66.64-10.6 1.88-.84.14-1.03 1.1-1.03 1.76 0 .19.06.31.13.4 1.17.3 5.45.24 5.59 1.68.25 2.92.39 8.31.39 13.45 0 3.25 0 6.38-.14 8.85-.31 8.57-3.31 6.62-6.03 7.92-.33.12-.66 1.04-.66 1.62 0 .4.13.66.45.66C12.81.72 18 .06 21 .06c2.53 0 4.28.2 5.9.2.66 0 1.18-.07 1.38-.14.4-.18.97-1.35.97-2.01 0-.31-.13-.52-.4-.52-2.66 0-5.52-.12-5.83-2.14-.33-2.22-.4-5.08-.4-10.65 0-17.43 1.04-19.7 1.04-21.33 0-.78-.2-.97-.79-.97zm0 0"/></symbol><symbol overflow="visible" id="b14b9efbj"><path d="M38.03-47.25c-1.1 0-5.4 1.94-7.34 2.98C19.1-38.22 8.19-26.45 8.19-13.9 8.19-4.48 13.39.91 20.4.91c7.21 0 15.67-6.63 15.67-15.02 0-5.39-4.16-10.39-10.47-10.39-2.47 0-5.2.84-6.9 2.2-.65.52-1.5 1.3-1.5 2.22 0 .45.21.85.4.85.39 0 1.5-1.24 4.62-1.24 4.94 0 8.32 3.64 8.32 9.03 0 4.88-3.5 9.63-8.13 9.63-5.2 0-8.25-5.74-8.25-11.58 0-16.19 14.69-27.3 23.08-31.27 1.23-.57 1.36-1.42 1.36-2.01 0-.45-.13-.58-.58-.58zm0 0"/></symbol><symbol overflow="visible" id="b14b9efbk"><path d="M3.83 0v-5.95H6.2v-.82H.45v.82h2.4V0zm0 0"/></symbol><symbol overflow="visible" id="b14b9efbl"><path d="M5.75-2.23v-.43c0-1.6-.9-2.51-2.42-2.51S.87-4.16.87-2.48c0 1.71.91 2.62 2.5 2.62 1.43 0 2.07-.56 2.29-1.52l-.9-.09c-.18.61-.59.9-1.35.9-.94 0-1.52-.54-1.58-1.66zm-2.4-2.2c.93 0 1.43.5 1.48 1.55H1.84c.08-1.07.6-1.56 1.5-1.56zm0 0"/></symbol><symbol overflow="visible" id="b14b9efbm"><path d="M1.83 0l1.42-2h.06l1.46 2H5.8L4-2.53l1.78-2.49H4.8L3.42-3.08h-.08l-1.4-1.94H.89l1.78 2.49L.84 0zm0 0"/></symbol><symbol overflow="visible" id="b14b9efbn"><path d="M5.52-4.25v-.77H3.17v-1.56h-.81l-.14 1.56H.75v.77h1.47v2.4c0 1.3.48 1.94 1.84 1.94C4.6.1 5.14 0 5.55-.14L5.4-.91c-.32.13-.72.2-1.13.2-.8 0-1.1-.37-1.1-1.23v-2.31zm0 0"/></symbol><symbol overflow="visible" id="b14b9efbo"><path d="M3.33-3.42c.47 0 .8-.27.8-.8 0-.51-.33-.8-.8-.8-.47 0-.8.29-.8.8 0 .53.33.8.8.8zm0 3.5c.47 0 .8-.27.8-.78 0-.53-.33-.82-.8-.82-.47 0-.8.29-.8.82 0 .51.33.78.8.78zm0 0"/></symbol><symbol overflow="visible" id="b14b9efbq"><path d="M3.33.14c1.62 0 2.5-.95 2.5-2.66 0-1.68-.88-2.64-2.5-2.64-1.63 0-2.5.96-2.5 2.64 0 1.7.87 2.66 2.5 2.66zm0-.77c-1.06 0-1.52-.6-1.52-1.89 0-1.28.46-1.87 1.52-1.87 1.08 0 1.53.6 1.53 1.87 0 1.29-.45 1.9-1.53 1.9zm0 0"/></symbol><symbol overflow="visible" id="b14b9efbr"><path d="M2.83.14c.94 0 1.5-.39 1.81-.95h.08l.1.81h.76v-3.38c0-1.23-.69-1.8-2.13-1.8-1.43 0-2.03.65-2.18 1.6l.93.1c.11-.6.44-.93 1.22-.93.85 0 1.22.32 1.22 1.04v.34l-1.81.2C1.6-2.7 1.1-2.17 1.1-1.28c0 .92.64 1.42 1.72 1.42zm.25-.77c-.67 0-1.02-.28-1.02-.74 0-.44.28-.72 1-.82l1.58-.19v.41c0 .8-.6 1.34-1.56 1.34zm0 0"/></symbol><symbol overflow="visible" id="b14b9efbs"><path d="M3.92-7.14H1.36v.76h1.6v5.61H1.15V0H5.7v-.77H3.92zm0 0"/></symbol><symbol overflow="visible" id="b14b9efbt"><path d="M3.33.16c1.69 0 2.69-.74 2.69-1.94 0-1.05-.8-1.58-1.43-1.72v-.05c.5-.14 1.2-.58 1.2-1.56 0-1.12-.95-1.81-2.46-1.81-1.52 0-2.46.69-2.46 1.81 0 .97.68 1.4 1.18 1.56v.05c-.6.14-1.4.64-1.4 1.72 0 1.2 1 1.94 2.68 1.94zm0-4.04c-.97 0-1.49-.43-1.49-1.12 0-.78.52-1.1 1.49-1.1.95 0 1.48.32 1.48 1.1 0 .69-.53 1.13-1.48 1.13zm0 3.24c-1.1 0-1.7-.42-1.7-1.25 0-.78.6-1.2 1.7-1.2s1.7.42 1.7 1.2c0 .83-.6 1.25-1.7 1.25zm0 0"/></symbol><symbol overflow="visible" id="b14b9efbu"><path d="M3.42.14c1.55 0 2.44-.84 2.44-2.33 0-1.45-.83-2.22-2.14-2.22-.75 0-1.28.27-1.67.72H2l.31-2.22h3.11v-.86H1.53l-.45 3.93h.81c.3-.36.9-.79 1.58-.79.92 0 1.44.43 1.44 1.47 0 .99-.54 1.5-1.49 1.5-.83 0-1.28-.32-1.5-1.01l-.95.1C1.07-.46 2 .13 3.42.13zm0 0"/></symbol><symbol overflow="visible" id="b14b9efbv"><path d="M4.22-6.77h-.86l-2.03.7v.87c.64-.17 1.26-.38 1.89-.55v4.9H1.03V0h4.9v-.86H4.21zm0 0"/></symbol><symbol overflow="visible" id="b14b9efbw"><path d="M3.42.14c1.58 0 2.49-.86 2.49-2.3 0-1.42-.86-2.17-2.22-2.17-1.03 0-1.58.5-1.9 1.02h-.04c.03-1.63.4-2.77 1.73-2.77.91 0 1.24.44 1.36.96l.97-.11c-.23-.96-.86-1.68-2.33-1.68C1.84-6.9.86-5.86.86-3.1.86-.9 1.78.14 3.42.14zm.02-.78c-.9 0-1.47-.55-1.47-1.47 0-.9.7-1.47 1.53-1.47.92 0 1.47.52 1.47 1.47 0 .97-.6 1.47-1.53 1.47zm0 0"/></symbol><symbol overflow="visible" id="b14b9efbx"><path d="M5.95-6.77H1.1V0h.99v-2.92H5.3v-.77H2.08v-2.26h3.87zm0 0"/></symbol><symbol overflow="visible" id="b14b9efby"><path d="M2.73.14c.9 0 1.43-.45 1.74-1.08h.06l.13.94h.8v-5.02h-.94v2.7c0 .98-.57 1.62-1.46 1.62-.75 0-1.1-.4-1.1-1.22v-3.1h-.93v3.32c0 1.17.55 1.84 1.7 1.84zm0 0"/></symbol><symbol overflow="visible" id="b14b9efbz"><path d="M5.08-5.16c-.94 0-1.58.43-1.9 1.3h-.09l-.07-1.16H1.05v.77h1.1v3.48H.96V0h3.96v-.77H3.1v-1.46c0-1.36.6-2.05 1.83-2.05.4 0 .76.08 1.1.17l.15-.87c-.33-.11-.7-.18-1.11-.18zm0 0"/></symbol><symbol overflow="visible" id="b14b9efbA"><path d="M3.42.14c1.61 0 2.56-.75 2.56-2 0-1.1-.67-1.6-1.95-1.86l-.97-.2c-.87-.17-1.23-.49-1.23-1.11 0-.7.54-1.11 1.5-1.11 1.06 0 1.51.34 1.69 1.23l.9-.09c-.17-1.28-.98-1.9-2.6-1.9C1.79-6.9.9-6.18.9-4.98c0 1.06.66 1.66 1.88 1.9l1.01.2c.85.17 1.25.4 1.25 1.09 0 .73-.6 1.16-1.6 1.16-1.07 0-1.66-.4-1.8-1.24l-.94.1C.83-.53 1.75.13 3.42.13zm0 0"/></symbol><symbol overflow="visible" id="b14b9efbB"><path d="M1.63 0v-2.9c0-.8.15-1.4.71-1.4.41 0 .55.3.55.88V0h.95v-2.9c0-.8.18-1.4.72-1.4.4 0 .57.3.57.88V0h.95v-3.63c0-.92-.28-1.53-1.11-1.53-.63 0-.95.41-1.1.9h-.06c-.1-.52-.44-.9-1.08-.9-.6 0-.93.41-1.06.9H1.6l-.23-.76H.67V0zm0 0"/></symbol><symbol overflow="visible" id="b14b9efbC"><path d="M5.33-2.2v-.75h-4v.75zm0 0"/></symbol><symbol overflow="visible" id="b14b9efbD"><path d="M3.34.14c1.43 0 2.13-.66 2.25-1.78l-.89-.1c-.1.7-.5 1.08-1.34 1.08-1.03 0-1.52-.64-1.52-1.84 0-1.23.47-1.86 1.52-1.86.84 0 1.23.36 1.34 1.08l.9-.1c-.13-1.09-.82-1.78-2.26-1.78-1.56 0-2.46.97-2.46 2.66 0 1.66.9 2.64 2.46 2.64zm0 0"/></symbol><symbol overflow="visible" id="b14b9efbE"><path d="M2.06 1.9V-.84h.05c.28.58.8.97 1.77.97 1.5 0 2.2-.98 2.2-2.66 0-1.65-.7-2.64-2.19-2.64-.97 0-1.5.44-1.78 1.05h-.08l-.1-.9H1.1v6.9zm1.5-2.56c-1.06 0-1.53-.8-1.53-1.86 0-1.04.47-1.84 1.53-1.84 1.11 0 1.53.61 1.53 1.84 0 1.27-.42 1.86-1.53 1.86zm0 0"/></symbol><symbol overflow="visible" id="b14b9efbF"><path d="M2.16 0v-2.67c0-.99.59-1.63 1.46-1.63.74 0 1.07.38 1.07 1.22V0h.95v-3.31c0-1.2-.56-1.85-1.67-1.85-.92 0-1.49.46-1.77 1.08h-.06l-.12-.94H1.2V0zm0 0"/></symbol><symbol overflow="visible" id="b14b9efbG"><path d="M3.36.16c1.4 0 2.2-.6 2.2-1.57 0-.89-.54-1.22-1.47-1.39L3-3c-.67-.14-.86-.33-.86-.73 0-.5.4-.74 1.17-.74.83 0 1.19.27 1.27.8l.9-.05c-.12-1-.8-1.47-2.17-1.47-1.34 0-2.1.53-2.1 1.5 0 .81.45 1.22 1.52 1.44l1.04.2c.56.11.87.24.87.72 0 .52-.45.78-1.28.78-.95 0-1.36-.28-1.42-.87l-.9.06C1.07-.36 1.8.16 3.35.16zm0 0"/></symbol></defs><use xlink:href="#b14b9efba" x="86.3125" y="153.5" fill="#515151"/><use xlink:href="#b14b9efbb" x="133.1775" y="153.5" fill="#515151"/><use xlink:href="#b14b9efba" x="184.8525" y="153.5" fill="#515151"/><use xlink:href="#b14b9efbc" x="230.4175" y="153.5" fill="#515151"/><use xlink:href="#b14b9efbd" x="278.9725" y="153.5" fill="#515151"/><use xlink:href="#b14b9efbe" x="322.1975" y="153.5" fill="#515151"/><use xlink:href="#b14b9efbf" x="348.0675" y="153.5" fill="#515151"/><use xlink:href="#b14b9efbg" x="367.5675" y="153.5" fill="#fff"/><use xlink:href="#b14b9efbh" x="405.5275" y="153.5" fill="#fff"/><use xlink:href="#b14b9efbi" x="440.7575" y="153.5" fill="#fff"/><use xlink:href="#b14b9efbj" x="474.9475" y="153.5" fill="#fff"/><g fill="#fff"><use xlink:href="#b14b9efbk" x="243.3333" y="252"/><use xlink:href="#b14b9efbl" x="250.0003" y="252"/><use xlink:href="#b14b9efbm" x="256.6673" y="252"/><use xlink:href="#b14b9efbn" x="263.3343" y="252"/><use xlink:href="#b14b9efbo" x="270.0013" y="252"/><use xlink:href="#b14b9efbp" x="276.6683" y="252"/><use xlink:href="#b14b9efbk" x="283.3353" y="252"/><use xlink:href="#b14b9efbq" x="290.0023" y="252"/><use xlink:href="#b14b9efbn" x="296.6693" y="252"/><use xlink:href="#b14b9efbr" x="303.3363" y="252"/><use xlink:href="#b14b9efbs" x="310.0033" y="252"/><use xlink:href="#b14b9efbo" x="316.6703" y="252"/><use xlink:href="#b14b9efbp" x="323.3373" y="252"/><use xlink:href="#b14b9efbt" x="330.0043" y="252"/><use xlink:href="#b14b9efbu" x="336.6713" y="252"/><use xlink:href="#b14b9efbv" x="343.3383" y="252"/><use xlink:href="#b14b9efbw" x="350.0053" y="252"/></g><g fill="#fff"><use xlink:href="#b14b9efbx" x="210" y="266"/><use xlink:href="#b14b9efbl" x="216.667" y="266"/><use xlink:href="#b14b9efbr" x="223.334" y="266"/><use xlink:href="#b14b9efbn" x="230.001" y="266"/><use xlink:href="#b14b9efby" x="236.668" y="266"/><use xlink:href="#b14b9efbz" x="243.335" y="266"/><use xlink:href="#b14b9efbl" x="250.002" y="266"/><use xlink:href="#b14b9efbo" x="256.669" y="266"/><use xlink:href="#b14b9efbp" x="263.336" y="266"/><use xlink:href="#b14b9efbA" x="270.003" y="266"/><use xlink:href="#b14b9efbB" x="276.67" y="266"/><use xlink:href="#b14b9efbr" x="283.337" y="266"/><use xlink:href="#b14b9efbs" x="290.004" y="266"/><use xlink:href="#b14b9efbs" x="296.671" y="266"/><use xlink:href="#b14b9efbC" x="303.338" y="266"/><use xlink:href="#b14b9efbD" x="310.005" y="266"/><use xlink:href="#b14b9efbr" x="316.672" y="266"/><use xlink:href="#b14b9efbE" x="323.339" y="266"/><use xlink:href="#b14b9efbp" x="330.006" y="266"/><use xlink:href="#b14b9efbF" x="336.673" y="266"/><use xlink:href="#b14b9efby" x="343.34" y="266"/><use xlink:href="#b14b9efbB" x="350.007" y="266"/><use xlink:href="#b14b9efbl" x="356.674" y="266"/><use xlink:href="#b14b9efbz" x="363.341" y="266"/><use xlink:href="#b14b9efbr" x="370.008" y="266"/><use xlink:href="#b14b9efbs" x="376.675" y="266"/><use xlink:href="#b14b9efbG" x="383.342" y="266"/></g></svg>