<?xml version='1.0' encoding='UTF-8'?>
<svg xmlns="http://www.w3.org/2000/svg" xmlns:xlink="http://www.w3.org/1999/xlink" width="200px" height="340px" viewBox="0 0 200 340" x="0px" y="0px" enable-background="new 0 0 200 340"><defs><symbol overflow="visible" id="290f7ce4a"><path d="M12.39-24.328c-1.078 0-1.296.172-4.515.172-2 0-2.594-.203-3.953-.203-.281 0-.422.343-.422.53 0 .173.031.204.813.267 2.343.218 2.343 1.859 2.343 4.906 0 2.281.032 5.922.032 9.281 0 3.36-.032 6.438-.22 7.031C6.064-.906 5.532-.594 3.75-.422c-.281.031-.422.422-.422.594S3.391.39 3.5.39c.875 0 2.453-.25 3.922-.25 1.531 0 3.328.109 4.797.14.344 0 .625-.172.625-.531 0-.063-.031-.172-.203-.172-1.438-.14-2.204-.203-2.672-.844-.406-.625-.453-4.75-.453-9.796 0-.344.078-.516.453-.594 1.156-.172 2.25-.172 4.844-.172 3.562 0 6.609 0 8.109.11.281.03.312.452.312 4.124 0 2.547-.03 5.422-.28 5.985-.313.703-.829.984-2.376 1.187-.25.031-.39.281-.39.531 0 .094.046.172.218.172 1.266 0 2.063-.172 3.5-.172 1.672 0 3.422.204 5.219.204.313 0 .453-.376.453-.563 0-.094-.031-.14-.36-.172-.827-.062-2.687-.312-2.859-1.437-.172-1.297-.25-3.25-.25-5.594 0-2.734-.03-3.75-.03-8.235 0-2.234.03-4.437.14-5.937.14-1.61.937-1.828 2.406-1.969.39-.031.563-.312.563-.625 0-.11-.063-.14-.282-.14-.797 0-3.25.172-4.468.172-1.235 0-2.172-.11-3.782-.141-.25 0-.468.312-.468.64 0 .125.078.172.53.204 1.298.14 2.485.25 2.485 2.234 0 2.422.031 3.297.031 7.11 0 .562-.03.953-.515.984-1.969.094-6.407.14-9.844.14-1.016 0-2.516 0-3.078-.078-.281-.031-.281-1.015-.281-2.515 0-1.61-.032-2.235-.032-4.907 0-1.64.25-2.968 2.282-2.968.593 0 .796-.391.796-.672 0-.094-.03-.172-.171-.172zm0 0"/></symbol><symbol overflow="visible" id="290f7ce4b"><path d="M13.797-12.64c-.781-2.094-2.36-3.594-4.453-3.594-5.313 0-8.219 4.797-8.219 9.03 0 3.766 2.266 7.548 6.64 7.548 2.485 0 4.938-1.61 5.844-3.563.11-.219.22-.531.22-.672 0-.203-.25-.484-.392-.484-.062 0-.109.063-.25.281-1.14 1.75-2.828 2.313-4.093 2.313-3.219 0-5.281-3.125-5.281-6.485 0-.515 0-1.671.28-1.703 1.438-.11 9.907.281 9.907-1.437 0-.453-.11-.875-.203-1.235zm-2.735.953c0 .28-.671.484-1.5.593-1.515.203-4.062.25-5.39.25-.078 0-.14-.047-.14-.187 0-.453.655-2.438 1.89-3.36.594-.421.969-.484 1.562-.484 2.672 0 3.579 2.281 3.579 3.188zm0 0"/></symbol><symbol overflow="visible" id="290f7ce4c"><path d="M9.563-1.75C9.796 0 10.469.531 11.578.531c1.656 0 3.86-1.719 3.86-2.844 0-.171-.141-.28-.25-.28 0 0-.063 0-.172.109-.454.343-1.157 1.046-1.954 1.046-.812 0-1.015-1.046-1.015-2.125 0-1.968.515-6.828.515-9.421 0-2.235-2.593-3.47-3.984-3.47-1.719 0-6.656 2.423-6.656 4.235 0 .219.14.563.39.563.422 0 1.954-.453 2.063-.844.25-1.078.594-2.203 2.094-2.203 2.422 0 3.36 1.687 3.36 4.906 0 .735-.032 1.39-.095 1.75-3.156.563-8.328 1.61-8.328 4.75 0 2.453 1.5 3.61 3.282 3.61 1.5 0 3.25-.735 4.875-2.063zm.124-4.375c-.062.906-.093 3.11-.124 3.64-1.235.844-2.22 1.157-2.985 1.157-2.094 0-2.375-2.063-2.375-2.984 0-1.954 4.406-2.485 5.422-2.485.063.078.063.422.063.672zm0 0"/></symbol><symbol overflow="visible" id="290f7ce4d"><path d="M8.078-16.031c-.515 0-2.344.25-4.687.25-.657 0-1.047-.078-1.5-.078-.532 0-.813.39-.813.671 0 .25 2.219-.03 2.313.876.109.874.109 2.515.109 4.343 0 5.875 0 7.547-.313 8.36-.171.453-.671.796-1.546.984-.485.094-.563.344-.563.484 0 .203.047.25.281.25.454 0 2.563-.171 3.407-.171C6.016-.063 6.719 0 7.39 0c.421 0 .906-.25.906-.672 0-.172-1.781-.312-1.969-.484-.266-.25-.344-.563-.375-1.407-.031-1.39-.031-2.062-.031-3.734 0-1.469 0-1.75.312-1.75 1.047 0 3.782 3.281 5.485 6.156C12.953.141 12.984.141 14 .141c1.578 0 3.297 0 3.813-.313.218-.11.453-.5.453-.672 0-.062-.032-.094-.141-.094-.094 0-.484.032-.688.032-1.265 0-2.078-.594-2.812-1.656-2.172-3-4.516-5.626-5.563-6.22-.171-.109-.203-.171-.203-.25 0-.109.094-.171.375-.421 2.032-1.672 3.86-3.953 6.125-5.172 1.235-.672 2.344-.39 2.344-1.328 0-.188-.031-.25-.14-.25-.375 0-1.641.281-3.813.281-1.188 0-1.64-.031-2.516-.031-.39 0-.703.406-.703.625 0 .344 1.828.11 1.828.844 0 1.078-3.5 4.046-4.625 4.968-.671.563-1.187.766-1.468.766-.141 0-.204-.031-.204-.203 0-.219-.046-.922-.046-1.75 0-2.625.078-3.719.875-4.172.593-.313 1.375-.563 1.375-1.016 0-.109-.11-.14-.188-.14zm0 0"/></symbol><symbol overflow="visible" id="290f7ce4e"><path d="M9.14-1.813C9.423 0 10.079.563 11.313.563c2.407 0 3.391-3.015 3.391-3.359 0-.11-.172-.312-.312-.312-.079 0-.11.03-.25.234-.391.594-.907 1.375-1.72 1.375-.702 0-.843-.813-.843-1.688 0-2.374.735-7.062.735-9.687 0-2.203-2.376-3.469-3.907-3.469-1.828 0-6.687 2.407-6.687 4.203a.55.55 0 00.562.563c.594 0 1.813-.64 1.89-1.016.095-.672.313-2.11 2.095-2.11 2.03 0 3.328 1.298 3.328 4.454 0 .906-.11 1.781-.172 2.203-2.219.453-5.61 1.25-7.469 2.688-.594.5-.828 1.265-.828 2.109 0 2.438 1.469 3.594 3.14 3.594 1.47 0 3.22-.766 4.876-2.156zm.032-.671C7.937-1.61 7-1.297 6.234-1.297c-1.75 0-2.312-1.578-2.312-3.016 0-.906.312-1.28 1.156-1.609 1.438-.594 3.531-.969 4.266-.969.031 0 .031.063.031.235 0 .812-.203 2.984-.203 4.172zm0 0"/></symbol><symbol overflow="visible" id="290f7ce4f"><path d="M9.14-16.453c-.421 0-1.609.453-1.89.765-.25.25-.14.876-.5 1.938A567.034 567.034 0 012.312-1.61c-.109.313-.359.391-.593.391-.36 0-.672-.14-.907-.14-.28 0-.359.234-.359.625 0 1.156-.516 4.546-.516 4.968 0 .282.235.391.407.391.36 0 .422-.25.531-.813C1.328 1.688 1.578.345 3.078.25 6.016.031 9.797 0 12.188 0c1.046 0 1.609.063 1.609 1.078 0 1.203-.563 2.953-.563 3.328 0 .172.141.25.235.25.422 0 .672-.078.844-.703 1.046-3.422 1.265-4.578 1.265-5.14 0-.141 0-.36-.281-.36-.25 0-.672.219-1.297.219-.484 0-.531-.36-.766-.984-1.437-3.641-2.984-9.407-3.64-12.454-.313-1.375-.25-1.687-.453-1.687zM7.282-11.86c.063 0 .14.312.25.625.453 1.406 3.282 9.593 3.282 9.906 0 .25-.313.344-2.313.344-2.625 0-3.39-.032-4.188-.141-.187-.031-.187-.172-.187-.281 0-1.5 2.14-7.907 2.875-9.86.172-.453.203-.593.281-.593zm0 0"/></symbol><symbol overflow="visible" id="290f7ce4g"><path d="M22.219-16.172c-.235 0-.516.14-2.235.281-2.312.172-3.109.141-3.328.282-.172.109-.234 1.015-.484 2-.813 2.968-2.594 7.062-3.61 9.484-.14.344-.312.734-.421.734-.063 0-.141-.109-.282-.5-.937-2.625-3.078-7.484-3.703-10.39-.172-.797-.172-1.188-.172-1.406 0-.235-.109-.344-.218-.344-.563 0-1.954.25-3.985.25-.812 0-.984-.031-1.469-.031-.421 0-.624.546-.624.734 0 .094.03.172.687.234 1.234.14 1.75.453 1.75 1.375 0 2.156-.453 11.156-1.156 12C2.484-.906.906-.703.906.031c0 .172.078.25.14.25.282 0 1.829-.312 4.173-.312.625 0 1.218.062 1.64.062.282 0 .625-.422.625-.625 0-.078 0-.14-.203-.14-.906 0-2.172-.344-2.172-1.079 0-3.5.11-8.687.344-11.843.047-.203.078-.281.14-.281.079 0 .11.078.141.39.329 2.938 3.954 9.375 5.079 13.828.03.14.109.172.218.172.453 0 1.328-.453 1.39-.844.282-1.5 2.704-7.03 3.86-9.625a22.582 22.582 0 001.25-3.843l.078-.282c.141 0 .032 5.188.203 10.61.032 1.047.079 1.11.079 1.719 0 .828-2.313 1.187-2.313 1.843 0 .172.063.219.172.219.313 0 1.813-.219 4.125-.219.984 0 1.656.032 2.172.032.672 0 .953-.485.953-.688 0-.11 0-.188-.313-.219-2.14-.234-2.171.078-2.28-1.61-.173-2.655-.454-7.14-.454-10.812 0-1.953 1.438-1.406 2.203-2.03.11-.11.25-.423.25-.657 0-.14-.047-.219-.187-.219zm0 0"/></symbol><symbol overflow="visible" id="290f7ce4h"><path d="M19.36-16.063c-.36 0-.704.11-2.532.282-1.047.094-2.265.172-2.297.312-.703 2.797-6.375 9.875-7.875 12.281-.468.735-.468.954-.593.954-.079 0-.11-.047-.11-.188 0-.344.281-.875.313-4.094.03-2.718 0-6.812.562-7.875C7.281-15.219 9-14.937 9-15.78c0-.14-.078-.219-.188-.219-.656 0-1.5.281-4.187.313-.781 0-1.797-.032-2.11-.032-.343 0-.734.422-.734.703 0 .313 1.86.032 1.89.844.032.625.11 3.469.11 6.406 0 2.657-.031 5.313-.281 6.547-.14.828-2 .625-2 1.5 0 .11.14.14.25.14.563 0 4.266-.28 4.484-.702.235-.453.485-.938.938-1.64 1.75-2.766 3.781-5.36 5.781-8.157 1.219-1.719 1.469-2.656 1.578-2.656.063 0 .14.03.14.171 0 .25-.28 2.626-.28 4.97 0 3.53 0 5.874-.563 6.468-.734.813-2.031.594-2.031 1.234 0 .141.172.141.281.141.516 0 1.719-.188 3.328-.188.969 0 1.75.047 2.297.047 1.156 0 1.61-.28 1.61-.703 0-.281-1.813.063-2.266-.562-.25-.344-.25-.453-.25-7.625 0-2.422 0-4.406.39-5.328.25-.594 1.22-.875 1.813-1.11.36-.14.5-.469.5-.672 0-.062-.047-.171-.14-.171zm0 0"/></symbol><symbol overflow="visible" id="290f7ce4i"><path d="M8.36-7.875C6.546-6.656 5.5-5.312 3.39-2.344c-.562.797-1.328 1.5-2.484 1.5-.172 0-.422-.031-.515-.031-.141 0-.25.25-.25.39 0 .626 1.5.829 2.546.829 1.344 0 2-.485 2.594-1.5 1.297-2.172 2.703-4.766 4.313-6.328.515-.5.906-.672 1.36-.672.077 0 .218 0 .218.078 0 1.39 0 2.547-.047 3.5-.094 2.484-.281 3.562-2.094 3.906-.344.078-.422.469-.422.64 0 .095.079.141.172.141.39 0 1.688-.218 3.531-.218 1.157 0 1.579.109 2.532.109.422 0 1.047-.031 1.047-.703 0-.031 0-.14-.141-.14-.11 0-.313.03-.625.03-1.125 0-1.719-.171-1.719-2.015.031-4.375.14-9.25.422-11.344.14-1.156 1.985-.703 1.985-1.64 0-.141-.094-.188-.204-.188-.28 0-.625.188-2.375.188-1.89 0-2.875-.22-4.656-.22-3.328 0-6.265 1.688-6.265 4.407 0 2.14 1.812 3.86 4.718 3.86.453 0 1.016-.048 1.328-.11zm2.812-6.797c-.078.61 0 3.781-.11 5.719 0 .094-.906.265-1.546.265-2.938 0-4.438-1.53-4.438-3.39 0-1.953 1.64-3.047 4.125-3.047 1.016 0 1.969.219 1.969.453zm0 0"/></symbol><symbol overflow="visible" id="290f7ce4j"><path d="M2.219-8.047H1.125V0H2v-5.656l-.031-1.11h.015l.532 1.047L5.906 0h1.11v-8.047h-.891v5.531l.047 1.297h-.016l-.547-1.14zm0 0"/></symbol><symbol overflow="visible" id="290f7ce4k"><path d="M.64-2.688C.64-.843 1.688.126 3.079.126c.672 0 1.344-.14 2-.453L4.844-1a4.468 4.468 0 01-1.61.297c-.937 0-1.578-.563-1.64-1.86h3.531c.063-.296.078-.624.078-.921 0-1.282-.672-2.282-2.016-2.282-1.578 0-2.546 1.36-2.546 3.079zm2.47-2.28c.765 0 1.156.546 1.156 1.312 0 .125 0 .265-.016.406H1.61c.124-1.063.64-1.719 1.5-1.719zm0 0"/></symbol><symbol overflow="visible" id="290f7ce4l"><path d="M1.266-2.625C.796-2.328.5-1.844.5-1.265c0 .859.563 1.39 1.469 1.39.687 0 1.36-.313 1.937-.828l.172.765.797-.124c-.094-1.188-.094-1.672-.094-2.11v-1.437c0-1.485-.531-2.125-1.734-2.125-.89 0-1.672.375-2.297.906l.344.594c.593-.407 1.218-.672 1.781-.672.703 0 .969.406.969 1.593v.079c-1.297.109-2.094.296-2.578.609zm.156 1.25c0-.36.172-.594.36-.734.296-.188.827-.329 2.062-.422v1.125c-.594.5-1.188.781-1.688.781-.453 0-.734-.266-.734-.75zm0 0"/></symbol><symbol overflow="visible" id="290f7ce4m"><path d="M.64-2.656C.64-.937 1.579.125 3.11.125c.53 0 1.156-.14 1.734-.406L4.625-1c-.5.203-1 .297-1.39.297-1.032 0-1.641-.656-1.641-2.078 0-.875.25-1.5.656-1.844.203-.156.484-.297.875-.297.469 0 .875.188 1.297.578l.469-.547c-.422-.546-.954-.843-1.704-.843-1.53 0-2.546 1.25-2.546 3.078zm0 0"/></symbol><symbol overflow="visible" id="290f7ce4n"><path d="M.64-2.61C.64-1.03 1.532.173 2.782.173c.703 0 1.266-.36 1.766-.89l.156.765.797-.11c-.094-1.093-.094-1.578-.094-1.984v-6.969l-.953.032v3.609c-.39-.25-.75-.39-1.266-.39C1.47-5.766.626-4.157.642-2.61zm.97-.203c0-.703.156-1.374.562-1.78.234-.25.562-.36 1.047-.36a2.4 2.4 0 011.234.328v3.188c-.5.468-.984.796-1.516.796-.874 0-1.328-.921-1.328-2.171zm0 0"/></symbol><symbol overflow="visible" id="290f7ce4o"><path d="M1.672-5.688l-.797.11c.094 1.234.094 1.734.094 2.172V0h.953v-4.219c.484-.406 1.016-.734 1.578-.734.656 0 .875.453.875 1.562V0h.922v-3.75c0-.172 0-.328-.016-.469.485-.406 1.032-.734 1.594-.734.656 0 .86.453.86 1.562V0h.952v-3.75c0-1.313-.453-2.016-1.562-2.016-.781 0-1.375.329-1.969.922-.218-.61-.656-.922-1.406-.922-.766 0-1.344.313-1.906.875zm0 0"/></symbol><symbol overflow="visible" id="290f7ce4p"><path d="M.797-7.313c0 .36.25.594.625.594.406 0 .672-.265.672-.656 0-.375-.25-.61-.625-.61-.407 0-.672.266-.672.673zM1.89-5.609l-.938.015V0h.938zm0 0"/></symbol><symbol overflow="visible" id="290f7ce4r"><path d="M1.125-7.984v7.937c.578.11 1.438.172 2.188.172 2.359 0 3.921-1.781 3.921-4.281 0-2.407-1.437-4.016-3.765-4.016-.797 0-1.625.078-2.344.188zm2.297.671c1.781 0 2.797 1.282 2.812 3.22 0 1.218-.468 2.343-1.421 2.968-.375.25-.938.39-1.5.39-.438 0-.876-.015-1.235-.062v-6.422a13.25 13.25 0 011.344-.093zm0 0"/></symbol><symbol overflow="visible" id="290f7ce4s"><path d="M.75-4.11c0 .876.672 1.235 1.484 1.548.72.296 1.391.515 1.391 1.093 0 .516-.5.813-1.172.813-.562 0-1.078-.203-1.547-.516L.5-.547a3.168 3.168 0 001.984.672C3.75.125 4.61-.547 4.61-1.563c0-.984-.812-1.328-1.703-1.671-.656-.25-1.203-.47-1.203-.985 0-.437.39-.718 1.016-.718.469 0 .89.156 1.297.406l.406-.61c-.422-.343-1-.593-1.703-.593-1.078 0-2 .609-1.969 1.625zm0 0"/></symbol><symbol overflow="visible" id="290f7ce4t"><path d="M1.672-5.688l-.797.11c.078 1.203.094 1.734.094 2.187v6.266h.953V-.219c.39.25.766.39 1.281.39 1.672 0 2.547-1.593 2.547-3.14-.016-1.594-.906-2.797-2.203-2.797-.703 0-1.235.329-1.719.829zm1.719.735c.921 0 1.375.922 1.375 2.156 0 .703-.157 1.406-.563 1.781-.266.266-.578.375-1.047.375-.437 0-.844-.093-1.234-.328v-3.297c.5-.421.953-.687 1.469-.687zm0 0"/></symbol><symbol overflow="visible" id="290f7ce4u"><path d="M1.89-9.016l-.937.032V-.97c0 .719.344 1.094.985 1.094.296 0 .625-.047.937-.188l-.203-.703a1.18 1.18 0 01-.438.079c-.25 0-.343-.157-.343-.532zm0 0"/></symbol><symbol overflow="visible" id="290f7ce4v"><path d="M5.375-5.61h-.906L2.906-1.03H2.86a6.552 6.552 0 00-.296-1.063L1.375-5.609H.406c0 .187.031.359.11.53L2.359 0h.204C1.937 1.5 1.313 2.172.265 2.172v.75c.125.031.28.047.5.047.968 0 1.75-.719 2.468-2.547l2.032-5.5a1.2 1.2 0 00.109-.531zm0 0"/></symbol><symbol overflow="visible" id="290f7ce4w"><path d="M1.125-7.984V0h.953v-3.281c.297.031.625.047.844.047.265 0 .484-.016.703-.047L5.406 0h1.032a8.004 8.004 0 00-.36-.75L4.547-3.5c1.062-.422 1.656-1.281 1.656-2.36 0-1.515-1.172-2.312-3.094-2.312-.593 0-1.312.078-1.984.188zm2 .671c1.328 0 2.078.5 2.078 1.547 0 .735-.39 1.204-.922 1.454a3.66 3.66 0 01-1.375.25c-.297 0-.547-.032-.828-.047v-3.11a6.493 6.493 0 011.047-.093zm0 0"/></symbol><symbol overflow="visible" id="290f7ce4x"><path d="M1.172-.89c0 .25.062.437.187.578C.734.124.344.64.344 1.343c-.016 1.078.969 1.703 2.328 1.703 1.594 0 2.812-.797 2.812-2.11 0-1.109-.859-1.562-2.25-1.578-.734-.015-1.187-.062-1.187-.578 0-.203.094-.36.203-.531.156.016.328.031.5.031C4.203-1.719 5-2.64 5-3.766c0-.5-.156-.937-.469-1.28a4.024 4.024 0 011.078-.25l-.046-.829c-.625.031-1.125.313-1.5.672a2.515 2.515 0 00-1.188-.281C1.359-5.734.641-4.688.641-3.641c0 .735.359 1.391 1.046 1.704-.343.343-.515.656-.515 1.046zm2.922-2.813c0 .828-.516 1.25-1.282 1.25-.874 0-1.28-.5-1.28-1.297 0-.781.515-1.234 1.28-1.234.86 0 1.282.5 1.282 1.28zM1.219 1.234c0-.484.25-.859.718-1.187.313.094.672.11.985.11.984.015 1.687.124 1.687.905 0 .329-.14.61-.39.829-.328.265-.844.375-1.407.375-.953 0-1.593-.329-1.593-1.032zm0 0"/></symbol><symbol overflow="visible" id="290f7ce4y"><path d="M1.844-5.61l-.938.016v3.813c0 1.234.516 1.953 1.672 1.953.735 0 1.344-.328 1.89-.89l.173.765.78-.11c-.077-1.28-.093-1.656-.093-2.156v-3.39h-.953v4.187c-.516.469-1.031.781-1.563.781-.671 0-.968-.453-.968-1.484zm0 0"/></symbol><symbol overflow="visible" id="290f7ce4z"><path d="M1.672-5.688l-.797.11c.078 1.203.094 1.734.094 2.172V0h.953v-3.75c.375-.688.89-.984 1.422-.984.25 0 .437.015.656.078l.188-.86a1.404 1.404 0 00-.782-.218c-.64 0-1.156.39-1.547 1.109zm0 0"/></symbol><symbol overflow="visible" id="290f7ce4I"><path d="M2.078-8.047h-.953V0h.953zm0 0"/></symbol><symbol overflow="visible" id="290f7ce4J"><path d="M2.188-7.266h-.782l-.218 1.657H.39v.78h.843v3.188c0 1.344.407 1.766 1.313 1.766.422 0 .953-.078 1.437-.25l-.187-.719c-.344.094-.703.14-.906.14-.563 0-.704-.25-.704-1.187v-2.937h1.72v-.781h-1.72zm0 0"/></symbol><symbol overflow="visible" id="290f7ce4A"><path d="M12.953-24.36c-.734 0-2.875.172-4.734.172-1.75 0-2.797-.171-4.047-.171-.281 0-.469.343-.469.672 0 .093.047.125.5.203 2.266.28 2.516.875 2.516 2.765 0 1.89-.172 3.953-.282 5.844-.171 2.828-.28 5.219-.484 7.875-.172 2.313-.219 3.5-.453 4.438-.36 1.406-.875 1.624-2.625 1.968-.36.063-.531.625-.531.735 0 .109.078.14.172.14.593 0 1.796-.172 3.609-.172 2.344 0 3.078.063 4.313.063.515 0 .656-.234.656-.703 0-.172-.422-.14-1.078-.235-1.579-.25-1.657-.562-1.657-2.062 0-2.14.25-4.797.563-8.203.11-.906.984-.969 3.578-.969 4.438 0 7.906 0 9.828.14.25.032.36.172.36.657 0 1.75-.641 9.062-.813 9.453-.313.625-.938.938-2.516 1.188-.312.03-.53.359-.53.625 0 .109.03.14.14.14.953 0 1.781-.172 3.297-.172 2.718 0 3.672.14 5.109.14.281 0 .516-.374.516-.624 0-.11-.063-.14-.282-.172-1.75-.281-2.765-.453-2.765-1.969 0-1.922.187-4.015.328-6.156.14-2.281.312-4.516.484-6.75.172-2.39.422-4.734.657-6.234.28-1.688 1.156-1.266 2.765-1.86.281-.093.36-.453.36-.625 0-.11-.032-.172-.141-.172-.672 0-2.375.172-4.594.172-1.812 0-2.375-.14-3.844-.14-.343 0-.53.484-.53.703 0 .14.046.172.608.234 1.5.219 2.407.422 2.407 2.11 0 .937-.203 4.203-.344 6.828-.047.968-.219 1.296-.813 1.296-1.5 0-3.5.063-5.875.063-3.468 0-5.468.031-5.75.031-1.109 0-1.468-.14-1.468-.875 0-1.5.219-3.984.5-6.86.312-1.78.562-2.374 2.344-2.515.843-.078 1.156-.562 1.156-.875 0-.11-.078-.14-.14-.14zm0 0"/></symbol><symbol overflow="visible" id="290f7ce4B"><path d="M9.484-16.594c-1.015 0-2.625.735-3.562 1.407-2.953 2.03-4.766 5.765-4.766 10.359 0 3.281 1.407 5.422 3.422 5.422 1.656 0 3.781-1.5 6.203-4.719.11-.14.14-.25.14-.36 0-.171-.108-.421-.25-.421-.03 0-.062.047-.14.11C8.953-3.017 7.11-1.75 5.844-1.75c-1.782 0-2.453-2.688-2.453-5 0-.313 0-.594.046-.984.032-.454.172-.485.376-.532 2.374-.343 5.53-1.39 6.718-2.265.875-.64 1.516-1.578 1.516-2.938 0-1.437-.875-3.125-2.563-3.125zm-2.062 1.782c1.437 0 2.203 1.124 2.203 2.593 0 .531-.172.875-.672 1.235C7.734-10.11 5-9.141 3.891-9.141c-.11 0-.188-.03-.188-.203 0-.11 0-.172.078-.484.344-1.516 1.719-4.985 3.64-4.985zm0 0"/></symbol><symbol overflow="visible" id="290f7ce4C"><path d="M13.656-18.063c-.219 0-.531.422-.734.735-.61.875-.563 1.094-1.016 1.094-.281 0-.703-.078-1.265-.078-.485 0-1.079.078-1.75.28C5.5-14.905 2.03-10.25 1.156-6.468c-.172.735-.25 1.532-.25 2.344 0 2.313.703 4.656 2.25 4.656.172 0 .313-.047.594-.281 2.125-1.86 3.39-3.36 4.719-4.594.39-.375.672-.625.734-.625.11 0 .172.11.172.344 0 .11-.063.422-.172 1.063C9-2.423 8.75-1.079 8.75-.422c0 .531.484.906.875.906 1.016 0 3.984-3.953 4.969-5.734.172-.313.219-.484.219-.594 0-.14-.079-.25-.188-.25-.063 0-.094.032-.172.11-1.047 1.156-2.515 3.218-3.078 3.218-.11 0-.14-.03-.14-.203 0-.187.03-.422.14-1.094.906-5.875 1.578-9.484 2.375-12.078.313-1.015.453-1.25.453-1.39 0-.219-.265-.532-.547-.532zM9.594-6.688c-.703.985-2.453 2.516-4.688 4.375-.218.172-.281.172-.36.172-.562 0-1.25-1.562-1.25-3.453 0-4 2.267-8.75 6.079-8.75.5 0 1.75.031 1.75.485 0 .14 0 .171-.234 1.046-.36 1.297-.875 4.313-1.297 6.126zm0 0"/></symbol><symbol overflow="visible" id="290f7ce4D"><path d="M6.016-16.594c-.141 0-.344.032-.516.11-.844.28-2.938 2.625-3.86 4.343-.28.516-.421.875-.421 1.188 0 .172.11.25.187.25.063 0 .094-.047.313-.328.734-.969 2.125-2.828 2.797-2.828.171 0 .312.109.312.453 0 1.437-1.719 8.75-2.484 11.515C1.859-.109 1.813.203 1.813.422c0 .172.109.281.359.281.937 0 1.86-.5 1.953-.844.531-1.671 1.156-4.343 1.61-5.875.187-.64.734-1.515 1.015-1.515.219 0 .5.812.563 1.125C8.078-3.953 8.688.875 10.53.875c.985 0 2.203-1.078 2.938-2.063.703-.875 1.015-1.5 1.015-1.78 0-.25-.03-.36-.171-.36-.063 0-.11.031-.204.172-.671.812-1.578 1.828-2.109 1.828-1.11 0-1.953-4.313-3.39-6.828-.282-.485-.391-.656-.391-.735 0-.109.078-.203.219-.421.874-1.25 1.89-2.376 2.906-3.391.797-.813 1.25-1.094 1.89-1.094.766 0 1.25.781 1.5.781.422 0 1.125-.812 1.125-1.75 0-.734-.78-1.796-1.718-1.796-1.47 0-5.422 5.671-6.547 7-1.016 1.234-1.438 1.656-1.61 1.656-.062 0-.062-.078-.062-.14 0-.563 1.469-5.017 1.469-7.173 0-.781-.672-1.344-1.375-1.375zm0 0"/></symbol><symbol overflow="visible" id="290f7ce4E"><path d="M8.047-26.39c-1.5 0-3 .671-4.547 2.03-.313.282-.39.532-.39.704 0 .093.078.172.14.172.047 0 .078 0 .281-.11.672-.343 2.031-1.047 3.5-1.047 3.125 0 4.313 3.578 4.594 6.266.031.203.063.766.063 1.953 0 .672-.032 1.266-.204 1.266-.078 0-.171-.11-.453-.422a3.269 3.269 0 00-2.344-1.078c-2.593 0-5.89 3.781-7.14 7.562-.36 1.016-.61 2.516-.61 4.047 0 2.875.875 5.86 3.579 5.86 2.734 0 5.843-3.579 7.203-7.563 1.156-3.36 2.031-7.453 2.031-11.14 0-4.657-1.438-8.5-5.703-8.5zm-.344 11.124c1.578 0 3.11 1.797 3.11 4.063 0 2.703-1.157 6.765-2.485 8.64C7.594-1.5 6.891-1.327 6.297-1.327c-2.063 0-3.078-2.516-3.078-5.422 0-4.281 2.906-8.516 4.484-8.516zm0 0"/></symbol><symbol overflow="visible" id="290f7ce4F"><path d="M15.688-16.375c-.672.344-1.297.656-1.516 1.328-.203.844-1.047 2.688-2.656 5.766a249.6 249.6 0 00-1.782 3.547c-.312.593-.421.625-.53.625-.142 0-.173-.141-.345-1.125-.53-3.188-.953-8.079-1.046-9.344-.079-1.016-.141-1.36-.563-1.36-.563 0-1.86.282-2.531.797-.344.282-.516.453-.516.672 0 .281.11.656.11 1.469 0 2.453-1.344 9.797-2.704 11.484-.312.344-.625.485-1.046.485-.594 0-.954-.313-1.235-.313-.265 0-.375.422-.375 1.078 0 1.204.656 1.97 1.39 1.97.595 0 1.235-.391 2.032-1.891.984-1.782 2.14-6.688 2.672-10.61.234-1.719.312-1.86.516-1.86.14 0 .218.532.39 2.079.375 3.312 1.078 7.797 1.25 10.844 0 .593.219.703.422.703.281 0 .781-.422 1.016-1.016.5-1.156.78-1.89 1.187-2.766 1.125-2.312 2.672-5.28 3.75-7.453.906-1.828 1.266-2.14 1.36-2.14.109 0 .14.031.14.172 0 .109-.031.312-.094.64-.14.625-1.968 9.438-1.968 11.688 0 1.39.984 1.61 1.375 1.61 1.359 0 3.14-2.657 3.734-3.813.36-.641.453-.954.453-1.125 0-.141-.14-.25-.203-.25-.14 0-.172.14-.484.64-.594.828-1.375 1.922-2.11 1.922-.281 0-.344-.219-.344-.562 0-1.72.766-6.688 1.579-10.36.656-3.078.968-3.578.968-3.812 0-.14-.062-.219-.312-.219-.453 0-1.5.25-1.985.5zm0 0"/></symbol><symbol overflow="visible" id="290f7ce4G"><path d="M16.203-16.484c-.656 0-1.89.312-2.031.672-.985 2.484-1.61 5.28-1.922 5.937-1.75 3.64-5.703 8.188-6.438 8.188-.39 0-.671-.235-.671-.829 0-2.343 1.468-8.75 2.28-11.625.391-1.328.485-1.578.485-1.78 0-.392-.562-.563-1.015-.563-.141 0-.235 0-.344.03-1.406.282-3.672 2.735-5.219 5.188-.172.282-.203.454-.203.594 0 .172.063.344.172.344.031 0 .062-.031.14-.11.594-.593 3-3.53 3.532-3.53.11 0 .218.03.218.171 0 .078 0 .219-.187.844C4.172-9.906 2.562-3.531 2.562-.984 2.563.03 3.25.672 4.125.672c1.438 0 4.938-4 7.25-7.36.313-.453.344-.453.422-.453.062 0 .11.079.11.172 0 .14-.141.594-.282 1.125-.563 2.14-1.156 4.766-1.156 5.532 0 .734.734 1.156 1.25 1.156 1.547 0 4.172-3.922 4.969-5.188.187-.281.218-.484.218-.593 0-.141-.031-.25-.14-.25-.078 0-.11.046-.344.328-.703.765-1.797 1.984-2.672 2.765-.281.235-.344.281-.422.281-.094 0-.14-.109-.14-.39 0-.813 1.546-8.64 2.843-12.5.344-1.047.532-1.328.532-1.5 0-.172-.141-.281-.36-.281zm0 0"/></symbol><symbol overflow="visible" id="290f7ce4H"><path d="M12.813-16.625c-.22 0-.735.563-1.235.563-.203 0-.625-.172-1.89-.172-3.907 0-7.126 2.718-7.126 5.937 0 1.969 1.188 3.125 3.25 3.156.282 0 .563-.03.797-.062-2.375.875-3.14 3.906-5 5.422-.203.172-.453.234-.734.234-.813 0-1.125-.375-1.328-.375-.11 0-.25.11-.25.281 0 .235.11.657.219.907C-.141.172.53.672 1.437.672c1.22 0 2.172-1.578 3.282-3.5.953-1.656 2.078-3.438 3.5-4.844.39-.375.953-.594 1.094-.594C8.921-6.937 7.53-1.64 7.53-.422c0 .734.766 1.156 1.25 1.156 1.547 0 4-3.359 4.375-4.062.14-.235.14-.453.14-.516 0-.11-.03-.187-.108-.187-.063 0-.172.11-.313.25-.563.562-1.89 1.86-2.406 1.86-.172 0-.281-.141-.281-.391 0-1.047 2.343-10.954 2.796-12.36.313-1.047.391-1.219.391-1.5 0-.312-.36-.453-.563-.453zM9.313-9a4.021 4.021 0 01-1.547.313c-1.891 0-2.97-1.25-2.97-2.86 0-1.781 1.298-3.812 3.61-3.812 1.11 0 2.406.28 2.406.687 0 .11-.109.39-.25.953-.343 1.36-.968 3.781-1.25 4.719zm0 0"/></symbol></defs><use xlink:href="#290f7ce4a" x="6.48" y="100"/><use xlink:href="#290f7ce4b" x="37.315" y="100"/><use xlink:href="#290f7ce4c" x="52.365" y="100"/><use xlink:href="#290f7ce4d" x="67.87" y="100"/><use xlink:href="#290f7ce4e" x="86.245" y="100"/><use xlink:href="#290f7ce4f" x="101.155" y="100"/><use xlink:href="#290f7ce4b" x="117.325" y="100"/><use xlink:href="#290f7ce4g" x="132.375" y="100"/><use xlink:href="#290f7ce4h" x="156.175" y="100"/><use xlink:href="#290f7ce4i" x="176.72" y="100"/><use xlink:href="#290f7ce4j" x="29.596" y="150" fill="#b7b7b7"/><g fill="#b7b7b7"><use xlink:href="#290f7ce4k" x="37.648" y="150"/><use xlink:href="#290f7ce4l" x="43.492" y="150"/><use xlink:href="#290f7ce4m" x="49.192" y="150"/><use xlink:href="#290f7ce4l" x="54.544" y="150"/><use xlink:href="#290f7ce4n" x="60.244" y="150"/><use xlink:href="#290f7ce4k" x="66.616" y="150"/><use xlink:href="#290f7ce4o" x="72.46" y="150"/><use xlink:href="#290f7ce4p" x="82.06" y="150"/><use xlink:href="#290f7ce4l" x="84.916" y="150"/><use xlink:href="#290f7ce4q" x="90.616" y="150"/><use xlink:href="#290f7ce4r" x="93.208" y="150"/></g><g fill="#b7b7b7"><use xlink:href="#290f7ce4p" x="101.092" y="150"/><use xlink:href="#290f7ce4s" x="103.948" y="150"/><use xlink:href="#290f7ce4t" x="109.12" y="150"/><use xlink:href="#290f7ce4u" x="115.492" y="150"/><use xlink:href="#290f7ce4l" x="118.588" y="150"/></g><g fill="#b7b7b7"><use xlink:href="#290f7ce4v" x="124.204" y="150"/></g><g fill="#b7b7b7"><use xlink:href="#290f7ce4q" x="129.82" y="150"/><use xlink:href="#290f7ce4w" x="132.412" y="150"/></g><g fill="#b7b7b7"><use xlink:href="#290f7ce4k" x="139.144" y="150"/><use xlink:href="#290f7ce4x" x="144.988" y="150"/><use xlink:href="#290f7ce4y" x="150.928" y="150"/><use xlink:href="#290f7ce4u" x="157.228" y="150"/><use xlink:href="#290f7ce4l" x="160.324" y="150"/><use xlink:href="#290f7ce4z" x="166.024" y="150"/></g><g><use xlink:href="#290f7ce4A" x="16.8225" y="250"/><use xlink:href="#290f7ce4B" x="46.5025" y="250"/><use xlink:href="#290f7ce4C" x="59.0325" y="250"/><use xlink:href="#290f7ce4D" x="74.3625" y="250"/><use xlink:href="#290f7ce4C" x="89.7975" y="250"/><use xlink:href="#290f7ce4E" x="105.1275" y="250"/><use xlink:href="#290f7ce4B" x="119.0575" y="250"/><use xlink:href="#290f7ce4F" x="131.5875" y="250"/><use xlink:href="#290f7ce4G" x="150.8025" y="250"/><use xlink:href="#290f7ce4H" x="168.6875" y="250"/></g><g fill="#b7b7b7"><use xlink:href="#290f7ce4j" x="36.334" y="300"/></g><g fill="#b7b7b7"><use xlink:href="#290f7ce4k" x="44.386" y="300"/><use xlink:href="#290f7ce4l" x="50.23" y="300"/><use xlink:href="#290f7ce4m" x="55.93" y="300"/><use xlink:href="#290f7ce4l" x="61.282" y="300"/><use xlink:href="#290f7ce4n" x="66.982" y="300"/><use xlink:href="#290f7ce4k" x="73.354" y="300"/><use xlink:href="#290f7ce4o" x="79.198" y="300"/><use xlink:href="#290f7ce4p" x="88.798" y="300"/><use xlink:href="#290f7ce4l" x="91.654" y="300"/><use xlink:href="#290f7ce4q" x="97.354" y="300"/><use xlink:href="#290f7ce4r" x="99.946" y="300"/></g><g fill="#b7b7b7"><use xlink:href="#290f7ce4p" x="107.83" y="300"/><use xlink:href="#290f7ce4s" x="110.686" y="300"/><use xlink:href="#290f7ce4t" x="115.858" y="300"/><use xlink:href="#290f7ce4u" x="122.23" y="300"/><use xlink:href="#290f7ce4l" x="125.326" y="300"/></g><g fill="#b7b7b7"><use xlink:href="#290f7ce4v" x="130.942" y="300"/></g><g fill="#b7b7b7"><use xlink:href="#290f7ce4q" x="136.558" y="300"/><use xlink:href="#290f7ce4I" x="139.15" y="300"/><use xlink:href="#290f7ce4J" x="142.354" y="300"/><use xlink:href="#290f7ce4l" x="146.662" y="300"/><use xlink:href="#290f7ce4u" x="152.362" y="300"/><use xlink:href="#290f7ce4p" x="155.458" y="300"/><use xlink:href="#290f7ce4m" x="158.314" y="300"/></g></svg>