<?xml version='1.0' encoding='UTF-8'?>
<svg xmlns="http://www.w3.org/2000/svg" xmlns:xlink="http://www.w3.org/1999/xlink" width="200px" height="340px" viewBox="0 0 200 340" x="0px" y="0px" enable-background="new 0 0 200 340"><defs><symbol overflow="visible" id="37d7918aa"><path d="M5.813-20.89c.03 1.921.062 3.984.062 6.468 0 5.11-.172 10.578-.281 12.11-.063.734-1.157 1.015-2.235 1.156-.25.031-.28.11-.312.14-.14.172-.39.844-.39 1.157 0 .062.14.14.171.14.36 0 .922-.219 3.89-.25 1.579-.031 3.11 0 4.313-.062.094 0 .14-.032.203-.11.313-.343.454-.906.454-1.156 0-.031-.063-.062-.141-.062-.11 0-.563.03-.766.03-1.469 0-2.312-.421-2.422-.905-.14-.704-.421-7.5-.421-16.485 0-.281.046-1.125.187-1.125.063 0 .172 0 .484.422 3.188 3.985 8.688 9.594 12.563 13.64 2.906 3.048 4.172 5.298 4.937 6.407.11.14.141.188.203.188.25 0 1.063-.22 1.157-.422.14-.282.187-.672.187-1.235 0-.656-.11-1.219-.11-5.843 0-5.11.282-8.86.563-13.891.094-1.75 1.328-2.14 2.797-2.344.25-.031.313-.11.344-.14.14-.141.422-.907.422-1.188 0-.078-.063-.11-.172-.11-1.266 0-3.922.172-4.578.172-1.375 0-3.547-.171-3.86-.171a.198.198 0 00-.14.062c-.11.11-.344.61-.344 1.063 0 .03 0 .062.11.093 2.156.563 2.937.453 3 1.891.078 1.578.109 2.594.109 3.75 0 2.625-.14 5.078-.14 8.406 0 1.89.03 2.406.03 2.625 0 .282-.062.313-.14.313-.031 0-.11-.032-.235-.172-3.406-3.64-12.187-12.61-15.89-17.156-.563-.672-.781-.735-1.266-.735-2.515 0-4.687-.172-5.5-.172-.094 0-.14.032-.172.063-.25.281-.593.875-.593 1.265 0 .063 0 .11.171.141 2.25.344 3.75.875 3.75 2.031zm0 0"/></symbol><symbol overflow="visible" id="37d7918ab"><path d="M14-11.313c0-2.374-1.297-5.109-4.906-5.109-5.063 0-8.047 5.016-8.047 9.485 0 3.78 2.172 7.39 6.484 7.39 3.078 0 5.703-1.719 6.125-4.016.031-.25.031-.421.031-.703 0-.39-.39-.593-.593-.593-.078 0-.11.03-.14.171-.642 1.813-2.173 2.594-4.032 2.594-2.969 0-5.11-3.015-5.11-6.312 0-.235 0-.485.032-.735.047-.453.219-.687.594-.687 4.375 0 8.687-.281 9.39-.703.14-.078.172-.39.172-.781zm-6.406-3.53c2.093 0 3.156 1.78 3.156 2.765 0 1.234-2.594 1.265-3.688 1.265-1.14 0-2.125-.03-2.859-.109-.14 0-.172-.062-.172-.203.375-2.39 2.235-3.719 3.563-3.719zm0 0"/></symbol><symbol overflow="visible" id="37d7918ac"><path d="M9.234-1.688c.22 1.688.985 2.22 1.61 2.22 1.656 0 3.36-.673 4-2.173.172-.421.344-.984.375-1.296 0-.079-.235-.22-.375-.22-.14.048-1.156 1.516-2.063 1.516-.781 0-.984-.671-.984-1.968 0-3 .797-5.454.797-9.235 0-1.86-2.125-3.812-4.188-3.812-2 0-6.719 2.453-6.719 4.468 0 .36.235.876.625.876.422 0 1.438-.407 1.891-.657 1.219-.672.14-1.922 1.219-2.703a1.954 1.954 0 011.094-.312c.765 0 1.64.359 2.375 1.125.53.53.703 2.375.703 3.89 0 .828-.078 1.563-.14 1.953-2.11.313-4.829.875-6.438 1.75-1.297.672-1.75 1.407-1.75 2.704 0 2.406 1.078 4.015 3.359 4.015 1.531 0 3.281-.797 4.61-2.14zm.11-4.75c0 .594-.063 3.36-.11 3.813-1.218.906-2.203 1.266-2.937 1.266-1.36 0-1.86-1.266-1.86-2.454 0-.812.25-1.578.985-2.03 1.187-.735 2.656-1.188 3.75-1.329.172-.031.172.484.172.734zm0 0"/></symbol><symbol overflow="visible" id="37d7918ad"><path d="M3.75-13.547c-1.578 1.61-2.39 4.031-2.39 6.375C1.36-2.734 4.03.484 8.546.484c1.844 0 3.765-.593 5-2.093.453-.563.844-1.579.844-2 0-.282-.22-.829-.454-.829-.078 0-.109.032-.187.125-.969 1.797-2.344 2.454-3.703 2.454-3.672 0-5.953-3.985-5.953-7.375 0-2.985 1.64-5.36 4.515-5.36 1.22 0 2.938.906 4.204 2.172.109.063.14.063.203.063.28 0 .671-.344.921-.657.313-.421.907-1.125.907-1.687 0-.14-.031-.281-.14-.375-.673-.735-2.454-1.344-4.095-1.344-2.843.047-5.187 1.156-6.859 2.875zm0 0"/></symbol><symbol overflow="visible" id="37d7918ae"><path d="M13.547-15.61a8.804 8.804 0 00-2.703-.421C5.64-16.031 1.047-12.11 1.047-7 1.047-3.25 3.328.313 7.14.313c2.453 0 5.312-1.75 6.187-2.516.047 0 .078.062.078.203 0 .563-.39 2.11-.39 2.703 0 .235.25.453.5.453.375 0 1.015-.422 4.89-1.125.532-.093.875-1.187.875-1.328 0-.14-.031-.25-.172-.25-.109 0-1.265.422-2.28.422-.376 0-.626-.063-.657-.281C16-2.141 15.89-5 15.89-8.47c0-5.25.203-12.14.484-16.593.11-1.329.453-2.938.453-3.141 0-.188-.234-.469-.453-.469-.281 0-.734.39-4.719.985-.172.03-.312.109-.531.39-.203.281-.375.703-.375.844 0 .172.14.234.203.234.39.032 2.172-.031 2.235.219.218.688.53 5.531.53 8.36 0 1.187-.03 2.03-.171 2.03zm-.313 4.204c.094.765.141 1.89.141 3.078 0 1.812-.11 3.844-.188 5.219-1.328.734-2.546 1.046-3.624 1.046-3.579 0-5.61-3.5-5.61-6.75 0-2.734 1.578-5.437 4.516-5.437 1.828 0 3.781 1.063 4.765 2.844zm0 0"/></symbol><symbol overflow="visible" id="37d7918af"><path d="M20.516.203c.28 0 1.187-.203 3.922-.203 1.25 0 2.406.031 3.14.031.36 0 .563 0 .703-.062.14-.078.625-.563.625-.844 0-.14-.062-.172-.203-.172-.765 0-2.25-.14-2.875-.36-.172-.062-.25-.14-.25-.827 0-2.735.422-4.516.422-9.11 0-1.219-.281-2.265-.734-3.047-.735-1.218-1.922-1.812-2.938-1.812-1.953 0-5.078 2.031-6.187 2.906-.391-1.86-2.203-3.015-3.22-3.015-2.171 0-5.577 2.28-5.952 2.453-.078.03-.11.03-.14.03-.079 0-.11-.14-.11-.343 0-.953.172-1.922.172-2.25 0-.172-.235-.547-.563-.547-.234 0-1.36.735-4.328 1.64-.422.142-.703.938-.703 1.017 0 .109.062.203.172.203.218 0 2.14.078 2.234.53.14.517.281 3.079.281 5.845 0 1.859-.093 3.78-.234 5.25-.078.765-.14 1.156-1.297 1.671-.312.141-.562.922-.562.985 0 .078.062.14.203.14.562 0 1.234-.28 4.172-.28.734 0 1.328.03 1.718.03.313 0 .485-.03.625-.093.344-.172.672-.531.672-.844a.14.14 0 00-.14-.14c-.922 0-2.172-.204-2.344-.282-.14-.062-.219-.11-.219-1.578 0-3.844.422-9.688.563-10 .203-.422 1.921-1.297 3.296-1.297 3.11 0 3.172 3.781 3.172 6.047 0 2.422-.28 4.828-.484 5.922-.172.875-1.219 1.187-1.578 1.297-.281.062-.485.844-.485.937 0 .11.063.172.141.172.203 0 .938-.203 2.969-.203 1.265 0 2.625.063 3.265.063.235 0 .407 0 .485-.032.14-.031.625-.484.625-.844 0-.093-.031-.171-.172-.171-.766 0-1.922-.235-2.094-.313-.187-.062-.218-.11-.218-.875 0-2.594.359-4.797.359-7.734 0-1.438-.078-2.094-.078-2.344 0-.39 1.968-1.688 3.61-1.688 1.046 0 2.374.672 2.733 1.688.266.875.375 2.281.375 3.813 0 2.25-.203 4.734-.515 6.203-.188.875-1.297 1.156-1.688 1.328-.312.14-.453.875-.453.937 0 .14.032.172.11.172zm0 0"/></symbol><symbol overflow="visible" id="37d7918ag"><path d="M8.016-23.828c0-1.375-1.047-1.797-1.891-1.797-1.297 0-2.14 1.188-2.14 2.172 0 .953.703 1.828 1.578 1.828 1.093 0 2.453-1.094 2.453-2.203zM2.234.312c.25 0 2-.312 4.516-.312.875 0 1.547.031 1.938.031.203 0 .374-.031.484-.093.312-.22.625-.641.625-.875 0-.079-.031-.141-.11-.141-.937 0-2.296-.281-2.484-.36C7.063-1.5 7-1.546 7-3.016c0-3.28 0-5.453.063-7.343.14-4.375.468-5.922.468-6.266 0-.14-.25-.563-.531-.563-.11 0-.313.141-.703.36-1.328.687-3.25 1.469-3.953 1.703-.313.11-.735 1.063-.735 1.156 0 .11.079.172.141.172.281 0 1.125-.14 1.688-.14.374 0 .546.078.624.28.141.532.282 3.126.282 5.891 0 1.47-.032 2.97-.14 4.266-.141 1.406.03 2-1.61 2.656-.219.11-.281.172-.39.39C2.093-.25 2 .063 2 .173c0 .11.14.14.234.14zm0 0"/></symbol><symbol overflow="visible" id="37d7918ah"><path d="M2.219-8.047H1.125V0H2v-5.656l-.031-1.11h.015l.532 1.047L5.906 0h1.11v-8.047h-.891v5.531l.047 1.297h-.016l-.547-1.14zm0 0"/></symbol><symbol overflow="visible" id="37d7918ai"><path d="M.64-2.688C.64-.843 1.688.126 3.079.126c.672 0 1.344-.14 2-.453L4.844-1a4.468 4.468 0 01-1.61.297c-.937 0-1.578-.563-1.64-1.86h3.531c.063-.296.078-.624.078-.921 0-1.282-.672-2.282-2.016-2.282-1.578 0-2.546 1.36-2.546 3.079zm2.47-2.28c.765 0 1.156.546 1.156 1.312 0 .125 0 .265-.016.406H1.61c.124-1.063.64-1.719 1.5-1.719zm0 0"/></symbol><symbol overflow="visible" id="37d7918aj"><path d="M1.266-2.625C.796-2.328.5-1.844.5-1.265c0 .859.563 1.39 1.469 1.39.687 0 1.36-.313 1.937-.828l.172.765.797-.124c-.094-1.188-.094-1.672-.094-2.11v-1.437c0-1.485-.531-2.125-1.734-2.125-.89 0-1.672.375-2.297.906l.344.594c.593-.407 1.218-.672 1.781-.672.703 0 .969.406.969 1.593v.079c-1.297.109-2.094.296-2.578.609zm.156 1.25c0-.36.172-.594.36-.734.296-.188.827-.329 2.062-.422v1.125c-.594.5-1.188.781-1.688.781-.453 0-.734-.266-.734-.75zm0 0"/></symbol><symbol overflow="visible" id="37d7918ak"><path d="M.64-2.656C.64-.937 1.579.125 3.11.125c.53 0 1.156-.14 1.734-.406L4.625-1c-.5.203-1 .297-1.39.297-1.032 0-1.641-.656-1.641-2.078 0-.875.25-1.5.656-1.844.203-.156.484-.297.875-.297.469 0 .875.188 1.297.578l.469-.547c-.422-.546-.954-.843-1.704-.843-1.53 0-2.546 1.25-2.546 3.078zm0 0"/></symbol><symbol overflow="visible" id="37d7918al"><path d="M.64-2.61C.64-1.03 1.532.173 2.782.173c.703 0 1.266-.36 1.766-.89l.156.765.797-.11c-.094-1.093-.094-1.578-.094-1.984v-6.969l-.953.032v3.609c-.39-.25-.75-.39-1.266-.39C1.47-5.766.626-4.157.642-2.61zm.97-.203c0-.703.156-1.374.562-1.78.234-.25.562-.36 1.047-.36a2.4 2.4 0 011.234.328v3.188c-.5.468-.984.796-1.516.796-.874 0-1.328-.921-1.328-2.171zm0 0"/></symbol><symbol overflow="visible" id="37d7918am"><path d="M1.672-5.688l-.797.11c.094 1.234.094 1.734.094 2.172V0h.953v-4.219c.484-.406 1.016-.734 1.578-.734.656 0 .875.453.875 1.562V0h.922v-3.75c0-.172 0-.328-.016-.469.485-.406 1.032-.734 1.594-.734.656 0 .86.453.86 1.562V0h.952v-3.75c0-1.313-.453-2.016-1.562-2.016-.781 0-1.375.329-1.969.922-.218-.61-.656-.922-1.406-.922-.766 0-1.344.313-1.906.875zm0 0"/></symbol><symbol overflow="visible" id="37d7918an"><path d="M.797-7.313c0 .36.25.594.625.594.406 0 .672-.265.672-.656 0-.375-.25-.61-.625-.61-.407 0-.672.266-.672.673zM1.89-5.609l-.938.015V0h.938zm0 0"/></symbol><symbol overflow="visible" id="37d7918ap"><path d="M6.39-8.047H.298l.031.844h2.547V0h.953v-7.203H6.36zm0 0"/></symbol><symbol overflow="visible" id="37d7918aq"><path d="M1.578-5.61H.562c.016.188.094.36.22.532l1.421 2.125L.593-.516C.485-.344.392-.187.376 0h.89l1.5-2.313h.016L4.312 0h.954a.947.947 0 00-.22-.516l-1.64-2.421 1.438-2.141c.125-.172.203-.344.234-.531h-.906L2.859-3.563h-.03zm0 0"/></symbol><symbol overflow="visible" id="37d7918ar"><path d="M2.188-7.266h-.782l-.218 1.657H.39v.78h.843v3.188c0 1.344.407 1.766 1.313 1.766.422 0 .953-.078 1.437-.25l-.187-.719c-.344.094-.703.14-.906.14-.563 0-.704-.25-.704-1.187v-2.937h1.72v-.781h-1.72zm0 0"/></symbol><symbol overflow="visible" id="37d7918as"><path d="M1.125-7.984V0h.953v-3.281c.297.031.625.047.844.047.265 0 .484-.016.703-.047L5.406 0h1.032a8.004 8.004 0 00-.36-.75L4.547-3.5c1.062-.422 1.656-1.281 1.656-2.36 0-1.515-1.172-2.312-3.094-2.312-.593 0-1.312.078-1.984.188zm2 .671c1.328 0 2.078.5 2.078 1.547 0 .735-.39 1.204-.922 1.454a3.66 3.66 0 01-1.375.25c-.297 0-.547-.032-.828-.047v-3.11a6.493 6.493 0 011.047-.093zm0 0"/></symbol><symbol overflow="visible" id="37d7918at"><path d="M1.172-.89c0 .25.062.437.187.578C.734.124.344.64.344 1.343c-.016 1.078.969 1.703 2.328 1.703 1.594 0 2.812-.797 2.812-2.11 0-1.109-.859-1.562-2.25-1.578-.734-.015-1.187-.062-1.187-.578 0-.203.094-.36.203-.531.156.016.328.031.5.031C4.203-1.719 5-2.64 5-3.766c0-.5-.156-.937-.469-1.28a4.024 4.024 0 011.078-.25l-.046-.829c-.625.031-1.125.313-1.5.672a2.515 2.515 0 00-1.188-.281C1.359-5.734.641-4.688.641-3.641c0 .735.359 1.391 1.046 1.704-.343.343-.515.656-.515 1.046zm2.922-2.813c0 .828-.516 1.25-1.282 1.25-.874 0-1.28-.5-1.28-1.297 0-.781.515-1.234 1.28-1.234.86 0 1.282.5 1.282 1.28zM1.219 1.234c0-.484.25-.859.718-1.187.313.094.672.11.985.11.984.015 1.687.124 1.687.905 0 .329-.14.61-.39.829-.328.265-.844.375-1.407.375-.953 0-1.593-.329-1.593-1.032zm0 0"/></symbol><symbol overflow="visible" id="37d7918au"><path d="M1.844-5.61l-.938.016v3.813c0 1.234.516 1.953 1.672 1.953.735 0 1.344-.328 1.89-.89l.173.765.78-.11c-.077-1.28-.093-1.656-.093-2.156v-3.39h-.953v4.187c-.516.469-1.031.781-1.563.781-.671 0-.968-.453-.968-1.484zm0 0"/></symbol><symbol overflow="visible" id="37d7918av"><path d="M1.89-9.016l-.937.032V-.97c0 .719.344 1.094.985 1.094.296 0 .625-.047.937-.188l-.203-.703a1.18 1.18 0 01-.438.079c-.25 0-.343-.157-.343-.532zm0 0"/></symbol><symbol overflow="visible" id="37d7918aw"><path d="M1.672-5.688l-.797.11c.078 1.203.094 1.734.094 2.172V0h.953v-3.75c.375-.688.89-.984 1.422-.984.25 0 .437.015.656.078l.188-.86a1.404 1.404 0 00-.782-.218c-.64 0-1.156.39-1.547 1.109zm0 0"/></symbol><symbol overflow="visible" id="37d7918aE"><path d="M2.078-8.047h-.953V0h.953zm0 0"/></symbol><symbol overflow="visible" id="37d7918ax"><path d="M31.563-24.531c-.625 0-3.422.203-4.782.203-.984 0-2.14-.11-2.953-.11-.594 0-.765.954-.765 1.094 0 .11.14.14.28.172 1.97.39 2.485.485 2.485 1.469 0 2.25-.203 4.453-.39 6.625-.235 2.969-.547 5.656-.766 8.844-.031.5 0 .562-.14.562-.063 0-.141-.031-.376-.312C21-9.563 13.328-19.078 9.938-23.625c-.485-.672-.657-.734-1.188-.734-1.86 0-3.953-.203-5.078-.203-.563 0-1.016 1-1.016 1.359 0 .14.14.172.39.203 2.142.313 3.392.781 3.392 1.86 0 1.953-.25 4.124-.422 6.656-.375 5.171-.907 10.64-1.188 12.203-.11.734-.984.953-2.375 1.234-.5.11-.812.984-.812 1.219 0 .078.046.14.171.14.329 0 2.172-.25 4.25-.25 1.391 0 3.032-.03 3.672-.03.454 0 .829-.626.829-1.11 0-.188-.032-.25-.126-.25-.218 0-.28.031-.671.031-1.72 0-2.454-.344-2.454-1.187 0-.672.079-2.313.172-4.344.22-3.875.563-9.235.844-12 .11-1.047.11-1.61.36-1.61.124 0 .171 0 .656.704 2.875 4.125 7.312 10.047 10.89 14.14 2.313 2.657 3.25 4.547 4.266 6.047.203.313.39.36.484.36.22 0 .532-.11.782-.5.062-.11.172-.282.234-1.438.281-4.656.563-8.11 1.063-11.89.312-2.454.687-4.938 1.109-7.704.281-1.75 1.187-2.172 2.844-2.375.28-.047.734-.875.734-1.297 0-.109-.047-.14-.188-.14zm0 0"/></symbol><symbol overflow="visible" id="37d7918ay"><path d="M9.516-16.875c-1.579 0-3.25 1.063-4.657 2.422-2.625 2.625-3.78 5.562-3.78 9.031 0 3.25 1.343 6.047 4.202 6.047.844 0 1.86-.203 2.907-.766 1.546-.843 3.124-2.515 3.53-3.296a.892.892 0 00.141-.485c0-.312-.14-.562-.28-.562-.032 0-.063.046-.095.078-1.125 1.11-3.046 2.453-4.546 2.453-2.079 0-3.016-2.031-3.016-4.453 0-.625 0-.985.281-1.016 1.219-.14 3.984-1.016 5.703-2.031 1.813-1.078 2.938-2.938 2.938-4.125 0-2.11-1.36-3.297-3.328-3.297zM4.203-8.406c-.14 0-.14-.094-.14-.281 0-.454.421-2.204 1.015-3.454.453-.984 1.078-1.921 1.578-2.28.235-.173.828-.313 1.422-.313 1.125 0 2.25.562 2.25 1.75 0 .593-.25 1.296-.672 1.718C8.296-9.875 5-8.406 4.203-8.406zm0 0"/></symbol><symbol overflow="visible" id="37d7918az"><path d="M1.016-6.297a11.66 11.66 0 00-.25 2.406c0 2.563.984 4.594 3.406 4.594 1.5 0 5.203-5.64 6.297-7 .14-.172.203-.25.281-.25.063 0 .094.078.094.172 0 .313-.375 1.656-.547 2.484-.281 1.204-.531 2.485-.531 3.22 0 .952.906 1.374 1.546 1.374.547 0 1.047-.14 2.204-1.234 1.156-1.078 2.828-3.39 2.859-4.328 0-.25-.172-.422-.313-.422-.03 0-.062 0-.109.031-.625.813-2.156 2.766-3 2.766-.36 0-.453-.079-.453-.391 0-.563.14-1.219.281-2.125.766-5.047 2.375-11.734 2.516-12.844 0-.11-.563-.25-1.016-.25-.734 0-.765.39-1.094 1.047-.234.531-.484.985-.874.985-.376 0-.735-.11-1.22-.11-1.155 0-2.062.172-2.937.625C5.25-14 1.578-9.234 1.016-6.297zm2.875-2.39c.593-1.704 1.75-3.391 3.312-4.547.672-.485 1.438-.938 2.39-.938.938 0 2.173.344 2.173 1.078 0 .844-.36 3.125-.875 4.14-1.297 2.438-4.704 6.438-5.954 6.438-1.093 0-1.546-1.578-1.546-3.156 0-1.016.171-2.094.5-3.016zm0 0"/></symbol><symbol overflow="visible" id="37d7918aA"><path d="M9.656-16.797c-1.984 0-3.594 1.047-5.172 2.828C2-11.172 1.078-8.609 1.078-5.563c0 3.11.875 6.266 4.594 6.266.766 0 1.39-.172 1.89-.422 1.25-.672 3.047-2.906 3.75-4.031.063-.094.094-.281.094-.375 0-.313-.172-.594-.344-.594-.109 0-.312.407-1.296 1.25-.875.781-1.922 1.438-2.829 1.438-.78 0-1.578-.453-2-1.016-.703-.875-.953-2.203-.953-3.562 0-1.516.329-3.579 1.063-5.297.656-1.563 1.672-2.797 2.766-2.797 1.28 0 3.14 1.75 3.562 1.75.625 0 1.266-1.438 1.266-2.063 0-1.015-1.407-1.78-2.985-1.78zm0 0"/></symbol><symbol overflow="visible" id="37d7918aB"><path d="M10.328-16.734c-2.312 0-3.922 1.406-5.531 3.218-.906 1.063-2 2.672-2.906 4.516-.672 1.328-.875 2.563-.875 4C1.016-2.344 2.14.563 4.937.563c1.391 0 3.532-2.797 6.188-6.72.047-.077.11-.109.14-.109.11 0 .172.141.172.391 0 .484-.906 3.531-.906 5.531 0 .766.703 1.39 1.61 1.39 1.187 0 2.421-1.468 3.218-2.593.454-.625 1.516-2.125 1.516-2.656 0-.344-.14-.703-.281-.703-.11 0-.172.187-.672.812-.625.797-1.61 2-2.344 2-.203 0-.312-.219-.312-.562 0-.5.25-2.453.421-3.813.344-2.875.797-6.203 1.297-9.218a175.554 175.554 0 011.61-9.063c.172-.797.453-1.61.453-2.063 0-.312-.14-.484-.531-.484-.828 0-3.985.516-5.485.906a.501.501 0 00-.328.485c0 .187.11.25.281.25.875.11 2.422.11 2.704.812.03.094.062.344.062.688 0 1.547-.422 5.156-.938 7.593-.078.329-.14.36-.28.36-.313 0-.845-.531-2.204-.531zm-1.406 2c1.578 0 3.047.671 3.047 2.203 0 1.187-.453 3.156-.985 4.265-.546 1.547-3.593 5.891-5.14 5.891-1.407 0-2-2.703-2-3.953 0-2.11.922-4.516 2.172-6.234.875-1.235 2.062-2.172 2.906-2.172zm0 0"/></symbol><symbol overflow="visible" id="37d7918aC"><path d="M13.156-16.938c-.656 0-1.531.875-2.312 1.672-1.64 1.75-3.5 4.282-4.047 5.157-.188.28-.219.343-.281.343-.047 0-.079-.03-.079-.109 0-.172.141-.875.22-1.188.312-1.64.655-3.046.655-3.874 0-1.204-.843-1.829-1.718-1.829-1.078 0-2.125.985-3.25 2.422-.594.735-1.266 1.781-1.266 2.125 0 .281.188.672.39.672.11 0 .22-.281.673-.844.593-.765 1.328-1.359 2.062-1.359.375 0 .516.281.516.625 0 .875-.375 3.11-.594 4.516C3.672-5.734 2.453-.172 2.453.14c0 .25.203.343 1.39.343.845 0 1.204 0 1.298-.343.218-.813.734-3.5 1.265-5.672.203-.844.422-1.61.625-2.172.25-.625.594-1.297.985-1.922 1.437-2.422 3.109-4.516 4.296-4.516.844 0 1.126.844 1.126 1.329 0 1.437-.844 5.421-1.5 8.609-.454 2.14-.813 3.922-.813 4.344 0 .25.25.39 1.516.39.625 0 .875 0 1.015-.5.656-2.375 1.188-5.562 1.89-7.312 1.188-2.969 4.235-6.86 5.657-6.86.703 0 1.063.594 1.063 1.22 0 1.75-1.157 5.921-1.891 9.077-.36 1.5-.64 2.797-.64 3.422 0 .703.671.984 1.437.984.453 0 .984-.109 1.437-.28 1.407-.563 3.782-3.75 3.985-4.266a.85.85 0 00.11-.422c0-.36-.173-.594-.313-.594-.11 0-.282.234-.985.938-.968.984-1.781 1.78-2.343 1.78-.172 0-.344-.062-.344-.28 0-.407.234-1.5.593-2.86.704-2.937 1.813-7.078 1.813-8.297 0-1.687-1.844-3.219-3.047-3.219-.594 0-1.14.454-1.75 1.016-1.64 1.5-3.64 4.297-4.515 5.594-.313.453-.376.594-.516.594-.031 0-.078-.032-.078-.094 0-.14.219-.813.36-1.344.233-.906.452-1.922.452-2.687 0-1.72-1.718-3.079-2.875-3.079zm0 0"/></symbol><symbol overflow="visible" id="37d7918aD"><path d="M8.86-23.094c0-.922-.813-1.61-1.61-1.61-.984 0-1.969 1.22-1.969 2.157 0 .563.703 1.547 1.547 1.547 1.016 0 2.031-1.125 2.031-2.094zm-2.422 6.188c-1.25 0-3.563 2.312-4.516 3.578-.203.265-.234.344-.234.594 0 .312.171.656.343.656.14 0 .453-.344 1.219-1.016.563-.453 1.156-.937 1.578-.937.281 0 .39.172.39.594 0 .984-.734 3.609-1.155 5.39-.625 2.594-1.297 5.313-1.297 7.344 0 .734.421 1.437 1.328 1.437.953 0 2.062-.625 3.156-1.718.797-.829 2.172-2.907 2.172-3.282 0-.218-.14-.359-.25-.359-.172 0-.453.313-1.094.875-.797.734-1.703 1.469-2.125 1.469-.312 0-.39-.235-.39-.594 0-1.078.562-3.14 1.125-5.422.562-2.312 1.359-5.031 1.359-6.75 0-1.437-.875-1.86-1.61-1.86zm0 0"/></symbol></defs><use xlink:href="#37d7918aa" x="9.49" y="100"/><use xlink:href="#37d7918ab" x="40.71" y="100"/><use xlink:href="#37d7918ac" x="55.76" y="100"/><use xlink:href="#37d7918ad" x="70.915" y="100"/><use xlink:href="#37d7918ac" x="86.315" y="100"/><use xlink:href="#37d7918ae" x="101.47" y="100"/><use xlink:href="#37d7918ab" x="120.72" y="100"/><use xlink:href="#37d7918af" x="135.77" y="100"/><use xlink:href="#37d7918ag" x="164.82" y="100"/><use xlink:href="#37d7918ac" x="175.355" y="100"/><use xlink:href="#37d7918ah" x="37.462" y="150" fill="#b7b7b7"/><g fill="#b7b7b7"><use xlink:href="#37d7918ai" x="45.514" y="150"/><use xlink:href="#37d7918aj" x="51.358" y="150"/><use xlink:href="#37d7918ak" x="57.058" y="150"/><use xlink:href="#37d7918aj" x="62.41" y="150"/><use xlink:href="#37d7918al" x="68.11" y="150"/><use xlink:href="#37d7918ai" x="74.482" y="150"/><use xlink:href="#37d7918am" x="80.326" y="150"/><use xlink:href="#37d7918an" x="89.926" y="150"/><use xlink:href="#37d7918aj" x="92.782" y="150"/><use xlink:href="#37d7918ao" x="98.482" y="150"/></g><use xlink:href="#37d7918ap" x="100.762" y="150" fill="#b7b7b7"/><g fill="#b7b7b7"><use xlink:href="#37d7918ai" x="106.198" y="150"/></g><g fill="#b7b7b7"><use xlink:href="#37d7918aq" x="112.006" y="150"/><use xlink:href="#37d7918ar" x="117.646" y="150"/><use xlink:href="#37d7918ao" x="121.954" y="150"/><use xlink:href="#37d7918as" x="124.546" y="150"/></g><g fill="#b7b7b7"><use xlink:href="#37d7918ai" x="131.278" y="150"/><use xlink:href="#37d7918at" x="137.122" y="150"/><use xlink:href="#37d7918au" x="143.062" y="150"/><use xlink:href="#37d7918av" x="149.362" y="150"/><use xlink:href="#37d7918aj" x="152.458" y="150"/><use xlink:href="#37d7918aw" x="158.158" y="150"/></g><g><use xlink:href="#37d7918ax" x="10.8025" y="250"/><use xlink:href="#37d7918ay" x="41.4975" y="250"/><use xlink:href="#37d7918az" x="55.3575" y="250"/><use xlink:href="#37d7918aA" x="72.4375" y="250"/><use xlink:href="#37d7918az" x="85.4225" y="250"/><use xlink:href="#37d7918aB" x="102.5025" y="250"/><use xlink:href="#37d7918ay" x="120.0725" y="250"/><use xlink:href="#37d7918aC" x="133.9325" y="250"/><use xlink:href="#37d7918aD" x="161.3725" y="250"/><use xlink:href="#37d7918az" x="172.1175" y="250"/></g><g fill="#b7b7b7"><use xlink:href="#37d7918ah" x="44.2" y="300"/></g><g fill="#b7b7b7"><use xlink:href="#37d7918ai" x="52.252" y="300"/><use xlink:href="#37d7918aj" x="58.096" y="300"/><use xlink:href="#37d7918ak" x="63.796" y="300"/><use xlink:href="#37d7918aj" x="69.148" y="300"/><use xlink:href="#37d7918al" x="74.848" y="300"/><use xlink:href="#37d7918ai" x="81.22" y="300"/><use xlink:href="#37d7918am" x="87.064" y="300"/><use xlink:href="#37d7918an" x="96.664" y="300"/><use xlink:href="#37d7918aj" x="99.52" y="300"/><use xlink:href="#37d7918ao" x="105.22" y="300"/></g><g fill="#b7b7b7"><use xlink:href="#37d7918ap" x="107.5" y="300"/></g><g fill="#b7b7b7"><use xlink:href="#37d7918ai" x="112.936" y="300"/></g><g fill="#b7b7b7"><use xlink:href="#37d7918aq" x="118.744" y="300"/><use xlink:href="#37d7918ar" x="124.384" y="300"/><use xlink:href="#37d7918ao" x="128.692" y="300"/><use xlink:href="#37d7918aE" x="131.284" y="300"/><use xlink:href="#37d7918ar" x="134.488" y="300"/><use xlink:href="#37d7918aj" x="138.796" y="300"/><use xlink:href="#37d7918av" x="144.496" y="300"/><use xlink:href="#37d7918an" x="147.592" y="300"/><use xlink:href="#37d7918ak" x="150.448" y="300"/></g></svg>