<?xml version='1.0' encoding='UTF-8'?>
<svg xmlns="http://www.w3.org/2000/svg" xmlns:xlink="http://www.w3.org/1999/xlink" width="600px" height="300px" viewBox="0 0 600 300" x="0px" y="0px" enable-background="new 0 0 600 300"><defs><symbol overflow="visible" id="edfc2129a"><path d="M8.58-46.8c-.58 0-1.17.13-1.24.58a38.22 38.22 0 01-1.23 5.33c-.52 1.77-1.5 4.81-1.5 5.2 0 .6.98.99 2.22 1.05.25 0 .39-.06.58-.66 1.82-5.06 3.12-6.37 7.21-6.37 3.32 0 4.36.08 6.05.08 1.36 0 2.02 0 2.08 1.68.06 2.47.06 11.63.06 17.49 0 5.84 0 14.81-.12 17.36-.13 2-3.19 2.72-5.14 2.98-.46.06-.52.13-.72.46-.19.32-.52 1.3-.52 1.89 0 .18.27.18.46.18.59 0 4.48-.45 8.06-.51 3.37 0 8.78.33 9.62.33.2 0 .33 0 .52-.27.2-.27.66-1.23.66-2.08 0-.12 0-.26-.46-.33-.78-.12-5.98-.12-6.05-2.53-.14-4.1-.2-8.51-.2-17.3 0-4.54 0-14.87.06-17.67 0-1.17.54-1.68 1.18-1.76 2.34-.13 4.8-.13 5.98-.13 6.3 0 6.69.33 7.4 6.7.07.58.91.7 1.57.7.45 0 .84-.12.84-.57 0-2.53.13-4.6.33-6.23.33-2.8.72-4.42.72-4.88 0-.47-.84-.47-1.44-.47-.39 0-.64.08-.78.14-.58.25-.97 1.03-2.08 1.18-1.3.18-3.83.18-5.84.18-.72 0-2.28.07-16.9.07-3.32 0-6.63-.07-8.4-.13-.84-.06-1.48-1.1-1.69-1.36-.18-.26-.64-.33-1.3-.33zm0 0"/></symbol><symbol overflow="visible" id="edfc2129b"><path d="M15.67.66c10.66 0 16.95-7.82 16.95-15.94 0-7.2-5.18-15.08-13.64-15.08-8.51 0-17.23 7.28-17.23 16.13C1.75-6.83 6.95.66 15.67.66zm1.75-2.35c-5.39 0-9.23-5.53-9.23-13.33 0-6.56 3.06-12.8 8.25-12.8 6.43 0 9.75 6.43 9.75 13.65 0 5.39-1.42 12.48-8.77 12.48zm0 0"/></symbol><symbol overflow="visible" id="edfc2129e"><path d="M2.4.72c.85 0 2.54-.66 8.7-.66 3.2 0 3.65 0 3.8-.06.5-.19 1.41-1.1 1.41-1.75 0-.4-.25-.4-.39-.4-1.75 0-3.58-.05-3.89-.2-.26-.12-.53-.18-.6-2.92a728.8 728.8 0 01-.24-18.53c0-18.51.76-28.07.76-28.92 0-.33-.45-1.03-1.03-1.03-.45 0-3.19 1.69-8.58 3.7-.65.25-1.3 1.75-1.3 2.08 0 .19.13.33.26.33.98 0 2.4-.27 3.64-.27.39 0 .78.07.84.4.6 5.2.84 15.01.84 24.04 0 7.74-.18 14.83-.45 17.94-.25 3.06-.72 3.19-3.37 3.97-.2.06-.33.12-.46.39A3.75 3.75 0 001.9.45c0 .13.13.27.52.27zm0 0"/></symbol><symbol overflow="visible" id="edfc2129f"><path d="M5.98-25.88c0 1.96 1.3 3.46 3.2 3.46 2.2 0 3.95-2.02 3.95-4.24a3.3 3.3 0 00-3.26-3.43c-2.26 0-3.89 1.75-3.89 4.21zm0 23.08c0 1.96 1.3 3.46 3.2 3.46 2.2 0 3.95-2.02 3.95-4.24a3.3 3.3 0 00-3.26-3.44c-2.26 0-3.89 1.75-3.89 4.22zm0 0"/></symbol><symbol overflow="visible" id="edfc2129h"><path d="M13.78 1.1C7.8 1.1 2.68-3.05 2.68-9.61c0-5.85 5.18-10.27 9.21-13.46-4.81-4.48-8.25-7.73-8.25-13.39 0-6.36 6.3-11.89 13.06-11.89 5.66 0 10.53 3.83 10.53 9.63 0 5.78-4.03 10.45-8.7 13.25 4.28 3.57 9.1 7.87 9.1 13.65 0 6.69-6.32 12.94-13.85 12.94zm-.06-22.8c-4.1 3.5-5.66 7.34-5.66 10.72 0 5.32 4.03 8.9 8.19 8.9 3.19 0 6.23-2.53 6.23-6.76 0-5.33-4.28-9.55-8.76-12.86zm2.98-5.2a13.82 13.82 0 005.27-10.48c0-4.42-3.52-8.12-7.02-8.12-3.25 0-6.3 2.6-6.3 6.69 0 4.95 4.22 9.1 8.05 11.9zm0 0"/></symbol><symbol overflow="visible" id="edfc2129i"><path d="M9.36-24.56c.33 0 8-.2 10.08-.53.78-.13 3.25-4.35 3.25-5.72 0-.33-.07-.52-.33-.52-.45 0-5.72 1.11-12.88 1.11-1.54 0-6.56 12.92-6.56 14.42 0 .99 0 1.5 2.67 3.2 5.97 3.7 8.85 8.38 8.85 12.66 0 5-3.9 9.5-11.13 10.99-.64.14-1.62 1.68-1.62 2.6 0 .4.26.7.72.7.51 0 6.04-1.16 10.86-5.12 3.89-3.25 6.3-7.54 6.3-12.48 0-6.38-5-10.8-12.29-15.73-.26-.2-.78-.58-.78-1.1 0-.98 2.14-4.48 2.86-4.48zm0 0"/></symbol><symbol overflow="visible" id="edfc2129j"><path d="M10.98-30.42c-2.59 0-4.87-.06-6.5-.06-.51 0-.84.9-.84 1.56 0 .33.13.58.27.64 1.42.39 3.89.39 4.8 1.95.38.72.46 2.28.46 4.75 0 2.53-.08 5.99-.08 10.66 0 3.64-.18 6.44-.96 7.4-.85 1.05-3.65 1.44-4.3 1.96-.46.39-.58 1.04-.58 1.5 0 .58.27.64.9.64 1.18 0 5.15-.45 7.1-.45 3.19 0 4.88.2 7.47.2.78 0 1.1-1.63 1.1-1.96 0-.32-.2-.57-.5-.65-2.23-.45-3.98-.58-4.63-1.42-.52-.66-.64-2.99-.64-6.38 0-2.98.25-10.2.25-12.4 0-3 .45-5.02 4.62-5.6.45-.06.85-1.1.85-1.83 0-.45-.14-.78-.46-.78-1.04 0-3.06.27-8.33.27zm0 0"/></symbol><symbol overflow="visible" id="edfc2129k"><path d="M32.1-48.17C21.53-44.6 2.6-28.86 2.6-13.27 2.6-3.25 8.4 1.05 14.68 1.05c7.4 0 15.22-7.22 15.22-15.28 0-5.27-3.97-9.88-9.44-9.88-3.11 0-6.3 1.42-8.31 3.44-.52.51-.6.9-.6 1.3 0 .45.2.84.4.84.32 0 1.56-1.03 4.35-1.03 4.49 0 8.33 3.43 8.33 8.9 0 4.61-3.64 8.46-7.6 8.46-5.48 0-8.46-6.83-8.46-11.9 0-11.78 12.22-26 24.1-31.8.73-.32.93-1.1.93-1.68 0-.51-.06-.78-.6-.78-.18 0-.51.06-.9.19zm0 0"/></symbol><symbol overflow="visible" id="edfc2129c"><path d="M13.58-34.84c0 .26-.4 1.68-.7 3-.2.9-.46 2.2-.46 2.86 0 .25.19.57.58.57 4.22 0 7.34-.45 8.45-.45.4 0 .58 0 .58.45 0 .97-1.23 3.25-2.01 3.38-1.24.33-8.07 0-8.07.53 0 2.33-.12 6.75-.12 10.78 0 2.53.06 4.88.2 6.64.19 3.11 1.81 4.22 3.5 4.22 1.44 0 3.31-.84 4.69-1.83 1.1-.76 1.36-1.15 1.62-1.15.2 0 .25.39.25.78 0 1.62-1.54 3.37-3.7 4.54a12.6 12.6 0 01-5.9 1.7c-4.1 0-6.18-2.54-6.18-8.26 0-6.58.77-13.6.77-16.25 0-.78-.06-1.37-.25-1.62-.2-.2-.66-.2-1.11-.2-1.56 0-3.13.45-3.38.45-.14 0-.26-.25-.26-.52 0-.6.51-1.83 1.69-2.4 4.54-2.29 6.1-4.43 8.57-8 .08-.13.2-.2.33-.2.46 0 .9.52.9.98zm0 0"/></symbol><symbol overflow="visible" id="edfc2129d"><path d="M16.31-3.13c.52 3.65 1.63 4.18 3.52 4.18 3.05 0 6.17-1.83 7.34-4.63.33-.78.72-2.01.72-2.34 0-.19-.33-.46-.6-.46-.24 0-.5.4-.9.85-.9.98-2.34 2.47-3.45 2.47-1.42 0-1.82-1.1-1.82-3.38 0-4.28 1.63-11.83 1.63-16.43 0-2.22-.19-3.65-2.08-5.54-1.44-1.42-3.37-2.53-5.47-2.53-2.01 0-5.84 1.63-8.57 3.77-1.88 1.5-3.11 3.12-3.2 4.81 0 .33.15.9.73.9.65 0 2.86-1.1 3.64-1.74 1.5-1.18.6-2.99 1.56-3.7.58-.4 1.44-1 2.6-1 1.7 0 3.45 1.24 4.16 2.74.58 1.18.79 4.36.79 7.1 0 1.62-.08 3.04-.2 3.7-3.71.58-8.26 1.55-11.18 3.05-2.55 1.3-3.39 2.86-3.39 5.2C2.14-1.8 4.61.66 8.2.66c2.73 0 5.86-1.38 8.12-3.79zm.33-8.18c-.06 1.1-.27 5.6-.33 6.44-2.14 1.62-3.83 2.34-5.12 2.34C8.84-2.53 8-4.61 8-6.77c0-1.42.4-2.59 1.69-3.43a17.7 17.7 0 016.62-2.47c.33-.06.33.9.33 1.36zm0 0"/></symbol><symbol overflow="visible" id="edfc2129l"><path d="M3.83 0v-5.95H6.2v-.82H.45v.82h2.4V0zm0 0"/></symbol><symbol overflow="visible" id="edfc2129m"><path d="M5.75-2.23v-.43c0-1.6-.9-2.51-2.42-2.51S.87-4.16.87-2.48c0 1.71.91 2.62 2.5 2.62 1.43 0 2.07-.56 2.29-1.52l-.9-.09c-.18.61-.59.9-1.35.9-.94 0-1.52-.54-1.58-1.66zm-2.4-2.2c.93 0 1.43.5 1.48 1.55H1.84c.08-1.07.6-1.56 1.5-1.56zm0 0"/></symbol><symbol overflow="visible" id="edfc2129n"><path d="M1.83 0l1.42-2h.06l1.46 2H5.8L4-2.53l1.78-2.49H4.8L3.42-3.08h-.08l-1.4-1.94H.89l1.78 2.49L.84 0zm0 0"/></symbol><symbol overflow="visible" id="edfc2129o"><path d="M5.52-4.25v-.77H3.17v-1.56h-.81l-.14 1.56H.75v.77h1.47v2.4c0 1.3.48 1.94 1.84 1.94C4.6.1 5.14 0 5.55-.14L5.4-.91c-.32.13-.72.2-1.13.2-.8 0-1.1-.37-1.1-1.23v-2.31zm0 0"/></symbol><symbol overflow="visible" id="edfc2129p"><path d="M3.33-3.42c.47 0 .8-.27.8-.8 0-.51-.33-.8-.8-.8-.47 0-.8.29-.8.8 0 .53.33.8.8.8zm0 3.5c.47 0 .8-.27.8-.78 0-.53-.33-.82-.8-.82-.47 0-.8.29-.8.82 0 .51.33.78.8.78zm0 0"/></symbol><symbol overflow="visible" id="edfc2129r"><path d="M3.33.14c1.62 0 2.5-.95 2.5-2.66 0-1.68-.88-2.64-2.5-2.64-1.63 0-2.5.96-2.5 2.64 0 1.7.87 2.66 2.5 2.66zm0-.77c-1.06 0-1.52-.6-1.52-1.89 0-1.28.46-1.87 1.52-1.87 1.08 0 1.53.6 1.53 1.87 0 1.29-.45 1.9-1.53 1.9zm0 0"/></symbol><symbol overflow="visible" id="edfc2129s"><path d="M2.83.14c.94 0 1.5-.39 1.81-.95h.08l.1.81h.76v-3.38c0-1.23-.69-1.8-2.13-1.8-1.43 0-2.03.65-2.18 1.6l.93.1c.11-.6.44-.93 1.22-.93.85 0 1.22.32 1.22 1.04v.34l-1.81.2C1.6-2.7 1.1-2.17 1.1-1.28c0 .92.64 1.42 1.72 1.42zm.25-.77c-.67 0-1.02-.28-1.02-.74 0-.44.28-.72 1-.82l1.58-.19v.41c0 .8-.6 1.34-1.56 1.34zm0 0"/></symbol><symbol overflow="visible" id="edfc2129t"><path d="M3.92-7.14H1.36v.76h1.6v5.61H1.15V0H5.7v-.77H3.92zm0 0"/></symbol><symbol overflow="visible" id="edfc2129u"><path d="M3.33.16c1.69 0 2.69-.74 2.69-1.94 0-1.05-.8-1.58-1.43-1.72v-.05c.5-.14 1.2-.58 1.2-1.56 0-1.12-.95-1.81-2.46-1.81-1.52 0-2.46.69-2.46 1.81 0 .97.68 1.4 1.18 1.56v.05c-.6.14-1.4.64-1.4 1.72 0 1.2 1 1.94 2.68 1.94zm0-4.04c-.97 0-1.49-.43-1.49-1.12 0-.78.52-1.1 1.49-1.1.95 0 1.48.32 1.48 1.1 0 .69-.53 1.13-1.48 1.13zm0 3.24c-1.1 0-1.7-.42-1.7-1.25 0-.78.6-1.2 1.7-1.2s1.7.42 1.7 1.2c0 .83-.6 1.25-1.7 1.25zm0 0"/></symbol><symbol overflow="visible" id="edfc2129v"><path d="M3.42.14c1.55 0 2.44-.84 2.44-2.33 0-1.45-.83-2.22-2.14-2.22-.75 0-1.28.27-1.67.72H2l.31-2.22h3.11v-.86H1.53l-.45 3.93h.81c.3-.36.9-.79 1.58-.79.92 0 1.44.43 1.44 1.47 0 .99-.54 1.5-1.49 1.5-.83 0-1.28-.32-1.5-1.01l-.95.1C1.07-.46 2 .13 3.42.13zm0 0"/></symbol><symbol overflow="visible" id="edfc2129w"><path d="M4.22-6.77h-.86l-2.03.7v.87c.64-.17 1.26-.38 1.89-.55v4.9H1.03V0h4.9v-.86H4.21zm0 0"/></symbol><symbol overflow="visible" id="edfc2129x"><path d="M3.42.14c1.58 0 2.49-.86 2.49-2.3 0-1.42-.86-2.17-2.22-2.17-1.03 0-1.58.5-1.9 1.02h-.04c.03-1.63.4-2.77 1.73-2.77.91 0 1.24.44 1.36.96l.97-.11c-.23-.96-.86-1.68-2.33-1.68C1.84-6.9.86-5.86.86-3.1.86-.9 1.78.14 3.42.14zm.02-.78c-.9 0-1.47-.55-1.47-1.47 0-.9.7-1.47 1.53-1.47.92 0 1.47.52 1.47 1.47 0 .97-.6 1.47-1.53 1.47zm0 0"/></symbol><symbol overflow="visible" id="edfc2129y"><path d="M5.95-6.77H1.1V0h.99v-2.92H5.3v-.77H2.08v-2.26h3.87zm0 0"/></symbol><symbol overflow="visible" id="edfc2129z"><path d="M2.73.14c.9 0 1.43-.45 1.74-1.08h.06l.13.94h.8v-5.02h-.94v2.7c0 .98-.57 1.62-1.46 1.62-.75 0-1.1-.4-1.1-1.22v-3.1h-.93v3.32c0 1.17.55 1.84 1.7 1.84zm0 0"/></symbol><symbol overflow="visible" id="edfc2129A"><path d="M5.08-5.16c-.94 0-1.58.43-1.9 1.3h-.09l-.07-1.16H1.05v.77h1.1v3.48H.96V0h3.96v-.77H3.1v-1.46c0-1.36.6-2.05 1.83-2.05.4 0 .76.08 1.1.17l.15-.87c-.33-.11-.7-.18-1.11-.18zm0 0"/></symbol><symbol overflow="visible" id="edfc2129B"><path d="M4.06-2.77c1.25-.04 1.92-.7 1.92-1.96 0-1.36-.7-2.04-2.17-2.04H.92V0h.97v-2.73h1.08L4.95 0h1.1zM1.9-6h1.7c1.07 0 1.46.34 1.46 1.28 0 .9-.44 1.27-1.47 1.27H1.89zm0 0"/></symbol><symbol overflow="visible" id="edfc2129C"><path d="M2.16 0v-2.67c0-.99.59-1.63 1.46-1.63.74 0 1.07.38 1.07 1.22V0h.95v-3.31c0-1.2-.56-1.85-1.67-1.85-.92 0-1.49.46-1.77 1.08h-.06l-.12-.94H1.2V0zm0 0"/></symbol><symbol overflow="visible" id="edfc2129D"><path d="M3.16 2.03c1.67 0 2.4-.86 2.4-2.51v-4.54h-.81l-.13.91h-.06c-.26-.58-.8-1.05-1.73-1.05-1.42 0-2.24 1-2.24 2.52 0 1.6.75 2.56 2.2 2.56.94 0 1.5-.5 1.77-1.03h.05v.72c0 1.17-.42 1.67-1.45 1.67-.93 0-1.3-.34-1.41-.89L.8.5c.12.96.87 1.54 2.36 1.54zM3.06-.8c-.98 0-1.48-.57-1.48-1.82 0-1.13.5-1.75 1.48-1.75 1.06 0 1.58.76 1.58 1.75 0 .95-.56 1.82-1.58 1.82zm0 0"/></symbol><symbol overflow="visible" id="edfc2129E"><path d="M3.58-5.81c.42 0 .72-.22.72-.67 0-.44-.3-.68-.72-.68-.44 0-.72.24-.72.68 0 .45.28.67.72.67zm.5.8H1.52v.76h1.6v3.48h-1.8V0h4.46v-.77h-1.7zm0 0"/></symbol><symbol overflow="visible" id="edfc2129F"><path d="M1.63 0v-2.9c0-.8.15-1.4.71-1.4.41 0 .55.3.55.88V0h.95v-2.9c0-.8.18-1.4.72-1.4.4 0 .57.3.57.88V0h.95v-3.63c0-.92-.28-1.53-1.11-1.53-.63 0-.95.41-1.1.9h-.06c-.1-.52-.44-.9-1.08-.9-.6 0-.93.41-1.06.9H1.6l-.23-.76H.67V0zm0 0"/></symbol><symbol overflow="visible" id="edfc2129G"><path d="M3.36.16c1.4 0 2.2-.6 2.2-1.57 0-.89-.54-1.22-1.47-1.39L3-3c-.67-.14-.86-.33-.86-.73 0-.5.4-.74 1.17-.74.83 0 1.19.27 1.27.8l.9-.05c-.12-1-.8-1.47-2.17-1.47-1.34 0-2.1.53-2.1 1.5 0 .81.45 1.22 1.52 1.44l1.04.2c.56.11.87.24.87.72 0 .52-.45.78-1.28.78-.95 0-1.36-.28-1.42-.87l-.9.06C1.07-.36 1.8.16 3.35.16zm0 0"/></symbol><symbol overflow="visible" id="edfc2129H"><path d="M1.45-2.95c0 2.56 1.08 4.37 3.67 4.84l.11-.67C3.28.86 2.43-.75 2.43-2.95s.85-3.82 2.8-4.16l-.1-.69c-2.6.49-3.68 2.3-3.68 4.85zm0 0"/></symbol><symbol overflow="visible" id="edfc2129I"><path d="M2.84.14C3.8.14 4.33-.26 4.6-.9h.07L4.8 0h.76v-7.14h-.95v2.95h-.08c-.28-.6-.86-.97-1.67-.97-1.48 0-2.27.99-2.27 2.64C.6-.84 1.36.14 2.84.14zm.22-.8c-.98 0-1.48-.59-1.48-1.84s.5-1.86 1.48-1.86c1.13 0 1.58.8 1.58 1.86S4.2-.66 3.06-.66zm0 0"/></symbol><symbol overflow="visible" id="edfc2129J"><path d="M4.63-6.5c.45 0 .98.08 1.39.2l.2-.72a5.3 5.3 0 00-1.64-.26c-1.52 0-2.16.56-2.16 1.87v.4H.9v.76h1.53V0h.94v-4.25h2.53v-.77H3.36v-.3c0-.84.33-1.18 1.27-1.18zm0 0"/></symbol><symbol overflow="visible" id="edfc2129K"><path d="M1.45-7.1c1.96.33 2.8 1.94 2.8 4.15 0 2.2-.84 3.8-2.8 4.17l.11.67c2.58-.47 3.67-2.28 3.67-4.84 0-2.55-1.09-4.36-3.67-4.85zm0 0"/></symbol></defs><g fill="#515151"><use xlink:href="#edfc2129a" x="152.1575" y="153.5"/><use xlink:href="#edfc2129b" x="196.0325" y="153.5"/></g><use xlink:href="#edfc2129c" x="230.2875" y="153.5" fill="#515151"/><use xlink:href="#edfc2129d" x="252.5825" y="153.5" fill="#515151"/><g fill="#515151"><use xlink:href="#edfc2129e" x="280.0775" y="153.5"/><use xlink:href="#edfc2129f" x="297.5625" y="153.5"/><use xlink:href="#edfc2129g" x="317.0625" y="153.5"/></g><g fill="#fff"><use xlink:href="#edfc2129h" x="336.5625" y="153.5"/><use xlink:href="#edfc2129i" x="367.2425" y="153.5"/><use xlink:href="#edfc2129j" x="392.4625" y="153.5"/><use xlink:href="#edfc2129k" x="415.6025" y="153.5"/></g><g fill="#fff"><use xlink:href="#edfc2129l" x="243.3333" y="252"/><use xlink:href="#edfc2129m" x="250.0003" y="252"/><use xlink:href="#edfc2129n" x="256.6673" y="252"/><use xlink:href="#edfc2129o" x="263.3343" y="252"/><use xlink:href="#edfc2129p" x="270.0013" y="252"/><use xlink:href="#edfc2129q" x="276.6683" y="252"/><use xlink:href="#edfc2129l" x="283.3353" y="252"/><use xlink:href="#edfc2129r" x="290.0023" y="252"/><use xlink:href="#edfc2129o" x="296.6693" y="252"/><use xlink:href="#edfc2129s" x="303.3363" y="252"/><use xlink:href="#edfc2129t" x="310.0033" y="252"/><use xlink:href="#edfc2129p" x="316.6703" y="252"/><use xlink:href="#edfc2129q" x="323.3373" y="252"/><use xlink:href="#edfc2129u" x="330.0043" y="252"/><use xlink:href="#edfc2129v" x="336.6713" y="252"/><use xlink:href="#edfc2129w" x="343.3383" y="252"/><use xlink:href="#edfc2129x" x="350.0053" y="252"/></g><g fill="#fff"><use xlink:href="#edfc2129y" x="183.3333" y="266"/><use xlink:href="#edfc2129m" x="190.0003" y="266"/><use xlink:href="#edfc2129s" x="196.6673" y="266"/><use xlink:href="#edfc2129o" x="203.3343" y="266"/><use xlink:href="#edfc2129z" x="210.0013" y="266"/><use xlink:href="#edfc2129A" x="216.6683" y="266"/><use xlink:href="#edfc2129m" x="223.3353" y="266"/><use xlink:href="#edfc2129p" x="230.0023" y="266"/><use xlink:href="#edfc2129q" x="236.6693" y="266"/><use xlink:href="#edfc2129B" x="243.3363" y="266"/><use xlink:href="#edfc2129s" x="250.0033" y="266"/><use xlink:href="#edfc2129C" x="256.6703" y="266"/><use xlink:href="#edfc2129D" x="263.3373" y="266"/><use xlink:href="#edfc2129E" x="270.0043" y="266"/><use xlink:href="#edfc2129C" x="276.6713" y="266"/><use xlink:href="#edfc2129D" x="283.3383" y="266"/><use xlink:href="#edfc2129q" x="290.0053" y="266"/><use xlink:href="#edfc2129C" x="296.6723" y="266"/><use xlink:href="#edfc2129z" x="303.3393" y="266"/><use xlink:href="#edfc2129F" x="310.0063" y="266"/><use xlink:href="#edfc2129m" x="316.6733" y="266"/><use xlink:href="#edfc2129A" x="323.3403" y="266"/><use xlink:href="#edfc2129s" x="330.0073" y="266"/><use xlink:href="#edfc2129t" x="336.6743" y="266"/><use xlink:href="#edfc2129G" x="343.3413" y="266"/><use xlink:href="#edfc2129q" x="350.0083" y="266"/><use xlink:href="#edfc2129H" x="356.6753" y="266"/><use xlink:href="#edfc2129I" x="363.3423" y="266"/><use xlink:href="#edfc2129m" x="370.0093" y="266"/><use xlink:href="#edfc2129J" x="376.6763" y="266"/><use xlink:href="#edfc2129s" x="383.3433" y="266"/><use xlink:href="#edfc2129z" x="390.0103" y="266"/><use xlink:href="#edfc2129t" x="396.6773" y="266"/><use xlink:href="#edfc2129o" x="403.3443" y="266"/><use xlink:href="#edfc2129K" x="410.0113" y="266"/></g></svg>