<?xml version='1.0' encoding='UTF-8'?>
<svg xmlns="http://www.w3.org/2000/svg" xmlns:xlink="http://www.w3.org/1999/xlink" width="200px" height="340px" viewBox="0 0 200 340" x="0px" y="0px" enable-background="new 0 0 200 340"><defs><symbol overflow="visible" id="4d01aca3a"><path d="M29.016-24.39c-.485 0-2.032.14-3.844.14-1.89 0-3.125-.11-3.688-.11-.515 0-1.078.204-1.078.985 0 .313.172.563.563.594 1.812.172 2.125.562 2.203 1.328.031.625.11 4.203.11 6.125 0 1.015-.22 1.64-1.063 1.672-2.625.14-4.688.14-12.14.14-.735 0-1.017-.234-1.017-1.328 0-1.89 0-4.89.032-6.156.047-1.297.11-1.406 2.078-1.75.594-.11.765-.672.765-1.125 0-.281-.14-.516-.53-.516-.485 0-1.5.203-4.016.203-2.485 0-2.954-.062-3.547-.062-.516 0-1.078.281-1.078 1.047 0 .312.171.562.562.594 1.86.172 2.172.53 2.235 1.297.14 1.437.14 3 .14 6.125-.031 6.124.031 10.671-.25 12.28-.14.845-.344 1.157-1.922 1.438-.562.11-.734.485-.734.985 0 .343.219.625.594.625.312 0 2.703-.11 3.75-.11 2.14 0 2.796.032 3.5.032 1.156 0 1.328-.485 1.328-.97 0-.39-.25-.593-.656-.593-.813 0-1.75-.14-2-1.156-.22-.844-.25-3.922-.25-7.985 0-.53.14-.906.53-1.015.657-.172 1.36-.172 5.673-.172 3.453 0 5.25 0 6.5.062 1.234.079 1.468.36 1.468 1.407 0 3.109 0 6.375-.14 7.421C23-2.094 22.78-1.78 21.28-1.5c-.562.094-.765.453-.765 1.016 0 .343.172.625.593.625.313 0 1.578-.11 3.672-.11 2.172 0 2.625.032 3.328.032 1.188 0 1.438-.454 1.438-.938 0-.39-.25-.594-.672-.594-.844 0-1.922-.14-2.031-1.187-.203-1.969-.203-3.531-.203-12.016 0-2.656.062-4.719.172-6.328.109-1.297.343-1.406 1.953-1.75.593-.14.78-.672.78-1.125 0-.281-.14-.516-.53-.516zm0 0"/></symbol><symbol overflow="visible" id="4d01aca3b"><path d="M9.203-16.453c-5.25 0-8.187 5.015-8.187 9.562 0 3.782 2.14 7.344 6.718 7.344 3.391 0 6.125-2.203 6.125-4.406 0-.531-.25-.906-.562-.906-.313 0-.313.28-.563.687-.828 1.406-2.171 1.938-3.562 1.938-3.11 0-5.219-2.735-5.219-6.547 0-.531.25-.906.875-.906 7.281 0 8.438-.5 8.969-.782.344-.172.406-.594.406-.906 0-2.14-1.469-5.078-5-5.078zm-1.5 1.719c1.922 0 3 1.718 3 2.687 0 1.266-2.969 1.266-3.812 1.266-2.485 0-2.579-.14-2.579-.485 0-1.406 1.672-3.468 3.391-3.468zm0 0"/></symbol><symbol overflow="visible" id="4d01aca3c"><path d="M8.61-16.734c-1.954 0-7 2.39-7 4.484 0 .313.171.906.765.906 3.016 0 2.172-2.547 3.36-3.281.28-.188.64-.281 1.015-.281 1.61 0 3.016 1.36 3.016 4.547 0 1.718-.079 2.203-.422 2.28-3.36.657-8.188 1.142-8.188 4.75 0 2.657 1.75 3.72 3.532 3.72 1.437 0 2.937-.594 4.203-1.547.421-.313.484-.39.593-.39.141 0 .172.25.282.64.343 1.25 1.015 1.39 1.812 1.39 2 0 3.922-1.359 3.922-3 0-.25-.14-.39-.313-.39-.109 0-.171.031-.421.281-.375.39-1.047.734-1.579.734-.734 0-.937-.703-.937-1.921 0-2.766.734-5.047.734-7.985 0-2.234-1.187-4.937-4.375-4.937zM9.28-6.86c.313 0 .313.28.313.843 0 2.938-.11 3.047-.39 3.329-.563.515-1.782 1.109-2.688 1.109-1.235 0-1.829-1.078-1.829-2.203 0-2.235 3.047-3.078 4.594-3.078zm0 0"/></symbol><symbol overflow="visible" id="4d01aca3d"><path d="M17.813-16.344c-.454 0-2.172.25-3.422.25-.875 0-1.579-.11-2.079-.11-.484 0-1.28.032-1.28 1.017 0 .312.14.453.515.484.953.078 1.156.281 1.156.734 0 .813-4.89 5.39-6.187 5.39-.188 0-.282-.062-.282-.515 0-1.234 0-1.89.063-2.812.172-2.125.312-2.719 1.406-3.11.563-.203.703-.53.703-.843 0-.344-.219-.454-.469-.454-.593 0-1.921.25-3.171.25-1.063 0-2.079-.109-2.344-.109-.469 0-1.344.031-1.344.766 0 .469.328.64 1.375.812.563.11.844.281.906 1.813.032 1.125.141 3.015.141 4.734 0 2.063-.063 4.016-.203 5.11-.188 1.296-.64 1.5-1.828 2-.344.125-.422.453-.422.765 0 .234.172.516.5.516.406 0 1.219-.203 3-.235C5.922.063 7.03.063 7.53.031c.375-.031.828-.14.828-.937 0-.735-1.562-.313-1.953-.781-.281-.344-.281-1.141-.281-4.235 0-.766.063-1.39.422-1.39.172 0 .422.14.703.375 2.125 1.828 3.25 4 4.094 5.156C12.813.203 13.469.53 15.125.53c.766 0 1.61-.047 2.266-.281.562-.219.812-.531.812-.984 0-.735-1.781.14-3.125-1.407-2.828-3.28-3.562-4.265-5.281-5.765-.313-.282-.375-.453-.375-.563 0-.219.14-.422.594-.765a58.822 58.822 0 004.578-3.954c2.062-2 3.719-1.203 3.719-2.671 0-.282-.188-.485-.5-.485zm0 0"/></symbol><symbol overflow="visible" id="4d01aca3e"><path d="M8.547-16.734c-1.969 0-7.078 2.312-7.078 4.422 0 .312.14.906.734.906 3.016 0 2.172-2.531 3.39-3.266.282-.172.673-.265 1.063-.265 1.532.03 2.828 1.28 2.828 4.234 0 2.094-.109 2.547-.484 2.625C5.219-7.531.937-6.656.937-3.156.938-.672 2.625.28 4.376.313c1.438 0 2.656-.516 3.984-1.47.422-.312.5-.39.594-.39.14 0 .219.188.328.64.281 1.048.906 1.391 1.703 1.391 2 0 3.61-1.468 3.688-3.109 0-.25-.14-.39-.328-.39-.094 0-.203 0-.453.328-.344.453-.704.874-1.22.874-.733-.046-.905-.875-.905-1.718 0-2.531.968-5.39.968-8.406 0-2.204-1.109-4.797-4.187-4.797zm.406 9.906c.219 0 .281.14.281.39 0 2.032-.03 3.36-.421 3.704C8.5-2.454 7.14-1.61 6.233-1.61 5-1.61 4.438-2.688 4.438-3.813c0-2.25 2.984-3.015 4.515-3.015zm0 0"/></symbol><symbol overflow="visible" id="4d01aca3f"><path d="M7.766-12.11c.171 0 .25.282.359.704 1.469 5.25 2.625 8.39 2.625 9.265 0 .563-.64.672-2.531.672-3.219 0-3.422-.172-3.422-.625 0-1.156 1.812-7.047 2.547-9.281.187-.531.25-.734.422-.734zm1.046-4.453c-1 0-1.75.391-1.812 1.016-.11.922-.203 1.344-.422 2.078A141.544 141.544 0 013.297-3.5c-.64 1.688-.875 1.781-2.078 1.781-.485 0-.797.39-.797.875 0 4.516-.14 6.094-.14 6.547 0 .453.202.734.593.734.453 0 1.016-.03 1.219-1.5C2.688.454 2.828.345 4.656.204c2-.14 5.25-.312 6.188-.312 2.172 0 2.734.218 2.734 2.062 0 1.234-.422 3.36-.422 3.89 0 .454.172.626.563.626.703 0 1.094-.516 1.406-1.75C16 1.329 16.453.203 16.453-.625c0-.531-.281-.781-.64-.781-.266 0-.344.047-.876.047-.343 0-.624-.11-.828-.672-2.171-5.735-3.156-10.985-3.812-13.297-.25-.875-.5-1.235-1.485-1.235zm0 0"/></symbol><symbol overflow="visible" id="4d01aca3g"><path d="M23.094-16.453c-.282 0-1.5.25-3.39.312-2.173.078-2.517-.172-2.829.922-1.297 4.328-2.422 6.406-3.813 9.86-.218.5-.39.703-.562.703-.219 0-.422-.25-.64-.766-1.079-2.734-2.438-5.672-3.141-9.453-.219-1.125-.563-1.156-2.11-1.188-2.062-.03-3.921-.14-4.437-.14-.844 0-1.094.484-1.094 1.015 0 .376.219.516.5.563 1.61.172 2.406.594 2.406 2.125 0 2.313-.14 5.39-.312 8.156-.14 2.172-.203 2.532-1.5 3.047-.703.281-.875.625-.875.984 0 .422.203.516.562.516.766 0 1.297-.062 3.641-.062.453 0 .734.03.969.03.39 0 1.265-.03 1.265-.843 0-.484-.484-.375-1.187-.594-.563-.171-.953-.343-.953-1.78 0-2.735.328-4.579.328-8.673 0-.672.031-1.156.266-1.156.359 0 .359.906 1.796 4.89.907 2.563 1.813 4.735 2.625 7.173.204.64.454 1.015 1.36 1.015.39 0 .734-.14.953-.687 1.36-3.75 2.86-6.344 4.234-10.016.625-1.64.797-1.89 1.016-1.89.203 0 .203.593.203 1.078 0 1.796.281 4.937.281 7.109 0 2.14-.11 2.734-1.578 3.125-.765.203-.937.516-.937.828 0 .36.28.453.593.453.828 0 1.391-.062 4.438-.062.531 0 .906.03 1.187.03.5 0 1.438-.03 1.438-.874 0-.485-.344-.485-1.469-.703-.594-.094-.875-.344-.984-1.89-.14-1.954-.313-4.923-.313-7.345 0-.906 0-1.89.078-2.593.172-1.704 1.36-1.5 1.922-1.782.422-.203.532-.625.532-.937 0-.281-.11-.5-.47-.5zm0 0"/></symbol><symbol overflow="visible" id="4d01aca3h"><path d="M19.422-16.453c-.313 0-2.031.281-4.203.5-.906.094-.906.625-1.39 1.5-1.267 2.265-4.173 6.406-5.782 8.922-.375.593-.797 1.328-1.156 1.89-.204.313-.344.454-.454.454-.14 0-.203-.11-.203-.282 0-.515.204-.906.204-5.453 0-3.36.171-5.14 1.859-5.922.515-.234.656-.656.656-.875 0-.312-.14-.453-.375-.453-.703 0-2.562.313-5.922.313-.515 0-1.156.046-1.156.78 0 .626.672.548 1.188.735.53.172.78.485.812 2.031.031 1.813.11 4.47.11 5.704 0 4.828-.11 5.343-1.516 6.046-.547.282-.547.672-.547.875.031.36.234.422.547.422.5 0 .953-.171 3.75-.53.984-.141.703-.766 1.922-2.548 2.343-3.437 3.296-4.86 5.015-7.484.344-.531.797-1.344 1.156-1.89.204-.329.344-.47.454-.47.14 0 .203.11.203.282 0 .531-.172.922-.203 5.469-.047 4.015-.391 4.968-1.72 5.359-.593.172-.702.516-.702.828 0 .36.219.453.453.453.594 0 1.719-.172 4.547-.172.5 0 .843.032 1.125.032.453 0 1.328-.032 1.328-.766 0-.453-.313-.453-1.36-.625-.562-.11-.734-.813-.812-2.344-.063-1.828-.063-5.11-.063-6.344 0-3.953.032-4.234 1.922-5 .625-.25.672-.734.672-.984 0-.281-.11-.453-.36-.453zm0 0"/></symbol><symbol overflow="visible" id="4d01aca3i"><path d="M9.625-15.047c1.578 0 1.688.344 1.688 2.125 0 1.235-.079 2.39-.188 3.297-.063.531-.453.703-1.703.703-2.39 0-3.828-1.515-3.828-3.578 0-1.297 1.406-2.547 4.031-2.547zm6.438-1.375c-.313 0-1.125.14-3.047.14-1.157 0-2.454-.093-4.016-.093-4.172 0-6.578 2.172-6.578 4.469 0 1.86 1.25 3.86 4.015 4.172.594.062.735.109.735.28 0 .204-.203.454-.875 1.126-3.5 3.531-3.531 5.031-5.453 5.031-.36 0-.563.172-.563.531C.281.281 1.641.563 2.797.563c2.875 0 3.265-3.672 6.828-7.875.422-.5.734-.672 1.016-.672.453 0 .562.359.562 1.89 0 1.469 0 2.453-.11 3.438-.109.906-.484 1.187-1.671 1.61-.39.14-.672.374-.672.734 0 .343.172.593.484.593.422 0 1.438-.14 3.22-.14 1.374 0 2.358.03 3.046.03.39 0 .844-.14.844-.937 0-.734-1.469-.109-2.063-.78-.281-.313-.39-1.11-.39-5.657 0-1.61.109-3.36.218-4.938.141-2.14.313-2.343 1.782-2.843.53-.172.671-.625.671-.97 0-.28-.187-.468-.5-.468zm0 0"/></symbol><symbol overflow="visible" id="4d01aca3j"><path d="M2.219-8.047H1.125V0H2v-5.656l-.031-1.11h.015l.532 1.047L5.906 0h1.11v-8.047h-.891v5.531l.047 1.297h-.016l-.547-1.14zm0 0"/></symbol><symbol overflow="visible" id="4d01aca3k"><path d="M.64-2.688C.64-.843 1.688.126 3.079.126c.672 0 1.344-.14 2-.453L4.844-1a4.468 4.468 0 01-1.61.297c-.937 0-1.578-.563-1.64-1.86h3.531c.063-.296.078-.624.078-.921 0-1.282-.672-2.282-2.016-2.282-1.578 0-2.546 1.36-2.546 3.079zm2.47-2.28c.765 0 1.156.546 1.156 1.312 0 .125 0 .265-.016.406H1.61c.124-1.063.64-1.719 1.5-1.719zm0 0"/></symbol><symbol overflow="visible" id="4d01aca3l"><path d="M1.266-2.625C.796-2.328.5-1.844.5-1.265c0 .859.563 1.39 1.469 1.39.687 0 1.36-.313 1.937-.828l.172.765.797-.124c-.094-1.188-.094-1.672-.094-2.11v-1.437c0-1.485-.531-2.125-1.734-2.125-.89 0-1.672.375-2.297.906l.344.594c.593-.407 1.218-.672 1.781-.672.703 0 .969.406.969 1.593v.079c-1.297.109-2.094.296-2.578.609zm.156 1.25c0-.36.172-.594.36-.734.296-.188.827-.329 2.062-.422v1.125c-.594.5-1.188.781-1.688.781-.453 0-.734-.266-.734-.75zm0 0"/></symbol><symbol overflow="visible" id="4d01aca3m"><path d="M.64-2.656C.64-.937 1.579.125 3.11.125c.53 0 1.156-.14 1.734-.406L4.625-1c-.5.203-1 .297-1.39.297-1.032 0-1.641-.656-1.641-2.078 0-.875.25-1.5.656-1.844.203-.156.484-.297.875-.297.469 0 .875.188 1.297.578l.469-.547c-.422-.546-.954-.843-1.704-.843-1.53 0-2.546 1.25-2.546 3.078zm0 0"/></symbol><symbol overflow="visible" id="4d01aca3n"><path d="M.64-2.61C.64-1.03 1.532.173 2.782.173c.703 0 1.266-.36 1.766-.89l.156.765.797-.11c-.094-1.093-.094-1.578-.094-1.984v-6.969l-.953.032v3.609c-.39-.25-.75-.39-1.266-.39C1.47-5.766.626-4.157.642-2.61zm.97-.203c0-.703.156-1.374.562-1.78.234-.25.562-.36 1.047-.36a2.4 2.4 0 011.234.328v3.188c-.5.468-.984.796-1.516.796-.874 0-1.328-.921-1.328-2.171zm0 0"/></symbol><symbol overflow="visible" id="4d01aca3o"><path d="M1.672-5.688l-.797.11c.094 1.234.094 1.734.094 2.172V0h.953v-4.219c.484-.406 1.016-.734 1.578-.734.656 0 .875.453.875 1.562V0h.922v-3.75c0-.172 0-.328-.016-.469.485-.406 1.032-.734 1.594-.734.656 0 .86.453.86 1.562V0h.952v-3.75c0-1.313-.453-2.016-1.562-2.016-.781 0-1.375.329-1.969.922-.218-.61-.656-.922-1.406-.922-.766 0-1.344.313-1.906.875zm0 0"/></symbol><symbol overflow="visible" id="4d01aca3p"><path d="M.797-7.313c0 .36.25.594.625.594.406 0 .672-.265.672-.656 0-.375-.25-.61-.625-.61-.407 0-.672.266-.672.673zM1.89-5.609l-.938.015V0h.938zm0 0"/></symbol><symbol overflow="visible" id="4d01aca3r"><path d="M.781-5.953C.781-4.563 1.906-4.11 3-3.687c.984.359 1.89.671 1.89 1.624 0 .985-.937 1.36-1.843 1.36a4.28 4.28 0 01-2.172-.61L.5-.578c.594.437 1.578.75 2.531.75 1.516 0 2.86-.75 2.86-2.313 0-1.468-1.235-1.906-2.391-2.343-.922-.344-1.719-.657-1.719-1.547 0-1.016.985-1.297 1.782-1.297.656 0 1.312.156 1.796.328l.282-.734c-.547-.282-1.313-.47-2.032-.47-1.406 0-2.828.673-2.828 2.25zm0 0"/></symbol><symbol overflow="visible" id="4d01aca3s"><path d="M6.39-8.047H.298l.031.844h2.547V0h.953v-7.203H6.36zm0 0"/></symbol><symbol overflow="visible" id="4d01aca3t"><path d="M1.578-5.61H.562c.016.188.094.36.22.532l1.421 2.125L.593-.516C.485-.344.392-.187.376 0h.89l1.5-2.313h.016L4.312 0h.954a.947.947 0 00-.22-.516l-1.64-2.421 1.438-2.141c.125-.172.203-.344.234-.531h-.906L2.859-3.563h-.03zm0 0"/></symbol><symbol overflow="visible" id="4d01aca3u"><path d="M2.188-7.266h-.782l-.218 1.657H.39v.78h.843v3.188c0 1.344.407 1.766 1.313 1.766.422 0 .953-.078 1.437-.25l-.187-.719c-.344.094-.703.14-.906.14-.563 0-.704-.25-.704-1.187v-2.937h1.72v-.781h-1.72zm0 0"/></symbol><symbol overflow="visible" id="4d01aca3v"><path d="M1.125-7.984V0h.953v-3.281c.297.031.625.047.844.047.265 0 .484-.016.703-.047L5.406 0h1.032a8.004 8.004 0 00-.36-.75L4.547-3.5c1.062-.422 1.656-1.281 1.656-2.36 0-1.515-1.172-2.312-3.094-2.312-.593 0-1.312.078-1.984.188zm2 .671c1.328 0 2.078.5 2.078 1.547 0 .735-.39 1.204-.922 1.454a3.66 3.66 0 01-1.375.25c-.297 0-.547-.032-.828-.047v-3.11a6.493 6.493 0 011.047-.093zm0 0"/></symbol><symbol overflow="visible" id="4d01aca3w"><path d="M1.172-.89c0 .25.062.437.187.578C.734.124.344.64.344 1.343c-.016 1.078.969 1.703 2.328 1.703 1.594 0 2.812-.797 2.812-2.11 0-1.109-.859-1.562-2.25-1.578-.734-.015-1.187-.062-1.187-.578 0-.203.094-.36.203-.531.156.016.328.031.5.031C4.203-1.719 5-2.64 5-3.766c0-.5-.156-.937-.469-1.28a4.024 4.024 0 011.078-.25l-.046-.829c-.625.031-1.125.313-1.5.672a2.515 2.515 0 00-1.188-.281C1.359-5.734.641-4.688.641-3.641c0 .735.359 1.391 1.046 1.704-.343.343-.515.656-.515 1.046zm2.922-2.813c0 .828-.516 1.25-1.282 1.25-.874 0-1.28-.5-1.28-1.297 0-.781.515-1.234 1.28-1.234.86 0 1.282.5 1.282 1.28zM1.219 1.234c0-.484.25-.859.718-1.187.313.094.672.11.985.11.984.015 1.687.124 1.687.905 0 .329-.14.61-.39.829-.328.265-.844.375-1.407.375-.953 0-1.593-.329-1.593-1.032zm0 0"/></symbol><symbol overflow="visible" id="4d01aca3x"><path d="M1.844-5.61l-.938.016v3.813c0 1.234.516 1.953 1.672 1.953.735 0 1.344-.328 1.89-.89l.173.765.78-.11c-.077-1.28-.093-1.656-.093-2.156v-3.39h-.953v4.187c-.516.469-1.031.781-1.563.781-.671 0-.968-.453-.968-1.484zm0 0"/></symbol><symbol overflow="visible" id="4d01aca3y"><path d="M1.89-9.016l-.937.032V-.97c0 .719.344 1.094.985 1.094.296 0 .625-.047.937-.188l-.203-.703a1.18 1.18 0 01-.438.079c-.25 0-.343-.157-.343-.532zm0 0"/></symbol><symbol overflow="visible" id="4d01aca3z"><path d="M1.672-5.688l-.797.11c.078 1.203.094 1.734.094 2.172V0h.953v-3.75c.375-.688.89-.984 1.422-.984.25 0 .437.015.656.078l.188-.86a1.404 1.404 0 00-.782-.218c-.64 0-1.156.39-1.547 1.109zm0 0"/></symbol><symbol overflow="visible" id="4d01aca3I"><path d="M2.078-8.047h-.953V0h.953zm0 0"/></symbol><symbol overflow="visible" id="4d01aca3A"><path d="M28.672-24.5c-.5 0-1.297.203-3.828.25-.938 0-2.907-.11-3.453-.11-.532 0-1.063.204-1.063.938 0 .328.11.61.5.64 1.61.141 2.125.282 2.125 1.61 0 1.672-.203 4.125-.312 6.016-.063 1.406-.422 1.406-1.047 1.406-2.14.031-4.235.031-6.375.031-2.266 0-4.156 0-5.844-.078-.734-.031-.875-.312-.875-.969 0-1.89.313-4.203.64-6.234.204-1.297.344-1.61 2.266-1.86.672-.062.781-.656.781-1.109 0-.25-.078-.531-.421-.531-.5 0-1.516.203-4.032.25-.937 0-2.875-.11-3.421-.11-.532 0-1.016.204-1.016.985 0 .313.094.563.484.594 1.61.14 1.922.422 1.922 1.11 0 .812-.031 3.265-.25 6.374-.375 6.125-.734 10.75-1.016 12.531-.125.844-.312.907-1.921 1.266-.485.094-.766.453-.766 1.016 0 .343.172.546.531.546C2.594.063 3.891 0 6.375 0c1.078 0 1.89.11 2.406.11 1.094 0 1.406-.594 1.406-1.094 0-.375-.14-.594-.53-.594-1.079 0-2.126-.11-2.126-1.328 0-1.219.313-4.578.657-7.938.03-.469.171-.844.765-.953.672-.11 2.172-.203 6.344-.203 1.531 0 4.203.031 5.734.094.782.047 1.125.187 1.125.953 0 2.687-.562 7.203-.703 7.906-.203 1.016-.515 1.328-2.094 1.578-.422.063-.734.453-.734 1.016 0 .25.14.516.484.516.313 0 1.547-.063 3.985-.063 1.125 0 2.078.11 2.593.11 1.094 0 1.375-.594 1.375-1.094 0-.375-.14-.594-.53-.594-.766 0-1.891-.063-1.891-1.11 0-1.968.062-3.578.875-12.015.25-2.656.453-4.969.734-6.578.25-1.297.422-1.297 2.094-1.578.64-.094.781-.703.781-1.157 0-.203-.078-.484-.453-.484zm0 0"/></symbol><symbol overflow="visible" id="4d01aca3B"><path d="M4.828-7.625c-.172 0-.281-.078-.281-.313 0-1.75 1.437-6.656 4.203-6.656 1.078 0 2.172.906 2.172 2.172 0 2.594-5.469 4.719-6.094 4.797zm7.563 5.344c.39-.485.703-1.047.703-1.422 0-.328-.219-.422-.36-.422-.234 0-.421.281-.937.688-1.188.984-2.563 1.578-3.781 1.578-1.922 0-3.47-1.47-3.47-3.922 0-.344.11-.625.36-.735 1.563-.453 8.922-2.656 8.922-7.093 0-1.797-1.187-3.438-3.39-3.438-5.126 0-9.11 7.14-9.11 11.203 0 3.672 1.86 6.688 5.188 6.688 2.578 0 4.468-1.328 5.875-3.125zm0 0"/></symbol><symbol overflow="visible" id="4d01aca3C"><path d="M14.734-18.344c-.734 0-1.125.703-1.468 1.719-.11.281-.172.484-.532.484-.343 0-.734-.234-1.843-.234C6.656-16.375.625-9 .625-3.891.625-1.5 2.063.672 4.235.672c2.906 0 5.734-5.89 7.109-7.953.14-.172.203-.25.281-.25.063 0 .094.047.094.14 0 .422-.485 2.032-.688 2.985-.328 1.218-.594 2.86-.594 3.64 0 1.22 1.047 1.672 1.844 1.672 1.969 0 5.11-3.64 5.11-5.281 0-.344-.203-.422-.313-.422-.203 0-.312.219-.734.703-.657.766-1.719 1.75-2.407 1.75-.39 0-.64-.11-.64-.625C13.297-4.688 16-16.203 16-17.5c0-.594-.25-.844-1.266-.844zm-4.515 3.922c1.187 0 2 .953 2 2.172 0 1.469-1.047 3.016-2.453 5.047-1.72 2.516-3.157 4.375-4.454 4.375-1.14 0-1.921-1.156-1.921-2.813 0-3.953 3.75-8.78 6.828-8.78zm0 0"/></symbol><symbol overflow="visible" id="4d01aca3D"><path d="M15.547-16.797c-2.281 0-4.375 3.672-7.781 7.453-.797.906-1.22 1.188-1.391 1.188-.14 0-.25-.063-.25-.39 0-.173.063-.517.14-.829.344-1.578 1.5-4.484 1.5-6.094 0-1.297-.968-1.5-1.78-1.5-.532 0-1.22.172-2.094.797-1.547 1.094-3.125 3.078-3.188 3.86 0 .312.203.453.313.453.203 0 .421-.079.843-.532.625-.703 1.579-1.546 2.032-1.546.343 0 .546.25.546.812C4.375-10.781 2.142-1.75 2.095-.594c0 .656.422 1.266 1.937 1.266.516 0 .938-.188 1.016-.781.234-2.204.687-4.094 1.219-5.844.343-1.188.703-1.469 1.015-1.469 1.469 0 2.14 8.156 4.938 8.156 1.5 0 3.594-3.218 3.594-4.828 0-.39-.126-.672-.313-.672-.172 0-.172.079-.563.563-.484.703-1.218 1.61-1.671 1.61-.985 0-1.547-3.188-3.157-5.532-.484-.688-.656-.734-.656-.969 0-.281.203-.5.563-.844 1.359-1.374 3.359-3.78 4.89-3.78.703 0 1.125.343 1.438.343.625 0 1.015-.938 1.015-1.75 0-1.36-.984-1.672-1.812-1.672zm0 0"/></symbol><symbol overflow="visible" id="4d01aca3E"><path d="M8.438-26.313c-2.422 0-5.672 1.61-5.672 2.829 0 .25.14.453.421.453.11 0 .282-.032.485-.14.812-.392 2.203-.938 3.719-.938 3.703 0 5.796 4.328 5.796 8.078 0 .25-.03.484-.234.484-.11 0-.172-.062-.25-.14-.875-.938-2.031-1.11-2.969-1.11-5.421 0-8.687 7.375-8.687 11.375 0 3.61 1.89 6.188 4.687 6.188C11.86.734 15.781-6.406 15.781-16.625c0-5.25-1.781-9.688-7.344-9.688zM3.921-7.063c.031-4.906 2.547-7.671 4.578-7.671 2.25 0 3.688 2.234 3.688 4.625 0 3.218-1.72 8.468-4.516 8.468-2.422 0-3.75-2.53-3.75-5.421zm0 0"/></symbol><symbol overflow="visible" id="4d01aca3F"><path d="M-.984-1.61C-.984-.39-.563.845.734.845c1.47 0 2.454-1.86 3.329-4.094.875-2.25 1.359-6.688 1.468-8.547.063-1.328.172-1.64.344-1.64.14 0 .219.062.313.453 1.015 5.78 1.406 7.765 2.03 11.968.11.704.423.907.782.907.797 0 1.25-.454 2.234-2.657 1.438-3.187 3.25-7.421 3.813-8.64.562-1.235.765-1.578.953-1.578.172 0 .203.171.203.343 0 .641-.484 2.844-.984 5.391-.344 1.828-.688 3.813-.688 5.328 0 1.719.485 2.656 1.672 2.656 1.89 0 4.969-3.109 4.969-4.796 0-.204-.063-.422-.281-.422-.172 0-.235.109-.703.593-.875.922-1.672 1.407-2.125 1.407-.5 0-.672-.422-.672-1.047 0-1.969.734-5.813 1.515-9.594.313-1.547.657-2.828.657-3.188 0-.375-.204-.593-.766-.593a6 6 0 00-1.89.343c-.954.36-1.266.672-1.548 1.157-.28.5-.546 1.344-1.187 2.765-.844 1.938-1.61 4.063-2.766 6.204-.375.703-.625 1.125-1.015 1.125-.313 0-.454-.36-.594-1.157-.422-2.343-.735-4.906-1.156-7.078-.235-1.328-.313-2.094-.375-2.547-.079-.562-.36-.875-1.125-.875-.532 0-1.547.14-2.094.375-.813.39-1.125.672-1.125 1.235 0 .421.312 1.359.312 3.28 0 2.11-1.046 9.423-3.25 9.423-.593 0-.875-.313-1.125-.313-.625 0-.843.656-.843 1.36zm0 0"/></symbol><symbol overflow="visible" id="4d01aca3G"><path d="M14.672-16.063c-.531 2.766-1.094 4.75-4.281 9.204-2.063 2.875-3.672 4.171-4.375 4.171-.485 0-.485-.328-.485-.609 0-1.469 2.688-8.922 2.688-12 0-1.437-1.25-1.89-2.297-1.89-1.797 0-4.875 3.718-4.906 4.875 0 .312.171.374.312.374.172 0 .36-.062.844-.562 1.125-1.078 2-1.813 2.515-1.813.36 0 .36.344.36.907 0 2.969-2.484 8.5-2.484 11.86C2.563 0 4.171.765 5.187.765c2.75 0 6.329-6.579 7.797-9.235.204-.422.485-.594.625-.594.188 0 .25.11.25.344 0 .36-1.921 5.64-1.921 7.25C11.938.063 13.062.844 14 .844c2.234 0 5.219-3.813 5.25-5.75 0-.485-.172-.625-.344-.625-.218 0-.328.11-.984.906-.906 1.094-1.719 1.969-2.375 1.969-.39 0-.469-.281-.469-.906 0-1.438 2.594-9.532 2.594-12.079 0-.671-.375-1.265-1.89-1.265-.516 0-.97.11-1.11.843zm0 0"/></symbol><symbol overflow="visible" id="4d01aca3H"><path d="M15.016-16.797c-.454 0-.735.422-1.75.422-.485 0-1.22-.281-2.907-.281-3.953 0-7.625 2.547-7.625 5.843 0 2.032 1.641 3.47 4.094 3.47.313 0 .484.03.484.171 0 .14-.109.313-.765.875C3.89-4.063 3.219-2.453 1.89-2.453c-.735 0-.985-.203-1.329-.203-.421 0-.562.484-.562.734C0-.484.938.672 2.344.672c.906 0 1.75-.39 3.219-2.281C7.202-3.703 8.078-5.22 9-6.375c.875-1.11 1.297-1.39 1.64-1.39.172 0 .25.062.25.343 0 .906-1.234 5.281-1.234 6.688 0 .875.703 1.359 1.516 1.359 2.203 0 5.312-3.563 5.312-5.313 0-.25-.14-.5-.312-.5s-.281.047-.563.391c-.843 1.094-1.64 2.063-2.28 2.063-.345 0-.485-.172-.485-.594 0-2.063 1.297-7.11 1.922-9.735.53-2.203.921-2.796.921-3.171 0-.282-.28-.563-.671-.563zm-5.704 1.719c1.532 0 2.485.937 2.485 1.469 0 .968-.39 3.312-.735 4.015-.312.5-.812.672-1.5.672-2.593 0-3.78-1.515-3.78-3.219 0-1.609 1.28-2.937 3.53-2.937zm0 0"/></symbol></defs><use xlink:href="#4d01aca3a" x="5.325" y="100"/><use xlink:href="#4d01aca3b" x="36.09" y="100"/><use xlink:href="#4d01aca3c" x="51.175" y="100"/><use xlink:href="#4d01aca3d" x="66.89" y="100"/><use xlink:href="#4d01aca3e" x="85.475" y="100"/><use xlink:href="#4d01aca3f" x="100.63" y="100"/><use xlink:href="#4d01aca3b" x="117.22" y="100"/><use xlink:href="#4d01aca3g" x="132.305" y="100"/><use xlink:href="#4d01aca3h" x="156.595" y="100"/><use xlink:href="#4d01aca3i" x="177.385" y="100"/><use xlink:href="#4d01aca3j" x="29.914" y="150" fill="#b7b7b7"/><g fill="#b7b7b7"><use xlink:href="#4d01aca3k" x="37.966" y="150"/><use xlink:href="#4d01aca3l" x="43.81" y="150"/><use xlink:href="#4d01aca3m" x="49.51" y="150"/><use xlink:href="#4d01aca3l" x="54.862" y="150"/><use xlink:href="#4d01aca3n" x="60.562" y="150"/><use xlink:href="#4d01aca3k" x="66.934" y="150"/><use xlink:href="#4d01aca3o" x="72.778" y="150"/><use xlink:href="#4d01aca3p" x="82.378" y="150"/><use xlink:href="#4d01aca3l" x="85.234" y="150"/><use xlink:href="#4d01aca3q" x="90.934" y="150"/><use xlink:href="#4d01aca3r" x="93.526" y="150"/></g><use xlink:href="#4d01aca3o" x="99.97" y="150" fill="#b7b7b7"/><use xlink:href="#4d01aca3s" x="108.31" y="150" fill="#b7b7b7"/><use xlink:href="#4d01aca3k" x="113.746" y="150" fill="#b7b7b7"/><g fill="#b7b7b7"><use xlink:href="#4d01aca3t" x="119.554" y="150"/><use xlink:href="#4d01aca3u" x="125.194" y="150"/><use xlink:href="#4d01aca3q" x="129.502" y="150"/><use xlink:href="#4d01aca3v" x="132.094" y="150"/></g><g fill="#b7b7b7"><use xlink:href="#4d01aca3k" x="138.826" y="150"/><use xlink:href="#4d01aca3w" x="144.67" y="150"/><use xlink:href="#4d01aca3x" x="150.61" y="150"/><use xlink:href="#4d01aca3y" x="156.91" y="150"/><use xlink:href="#4d01aca3l" x="160.006" y="150"/><use xlink:href="#4d01aca3z" x="165.706" y="150"/></g><g><use xlink:href="#4d01aca3A" x="6.095" y="250"/><use xlink:href="#4d01aca3B" x="35.425" y="250"/><use xlink:href="#4d01aca3C" x="50.16" y="250"/><use xlink:href="#4d01aca3D" x="68.395" y="250"/><use xlink:href="#4d01aca3C" x="85.58" y="250"/><use xlink:href="#4d01aca3E" x="103.815" y="250"/><use xlink:href="#4d01aca3B" x="120.3" y="250"/><use xlink:href="#4d01aca3F" x="135.035" y="250"/><use xlink:href="#4d01aca3G" x="156.945" y="250"/><use xlink:href="#4d01aca3H" x="176.51" y="250"/></g><g fill="#b7b7b7"><use xlink:href="#4d01aca3j" x="36.652" y="300"/></g><g fill="#b7b7b7"><use xlink:href="#4d01aca3k" x="44.704" y="300"/><use xlink:href="#4d01aca3l" x="50.548" y="300"/><use xlink:href="#4d01aca3m" x="56.248" y="300"/><use xlink:href="#4d01aca3l" x="61.6" y="300"/><use xlink:href="#4d01aca3n" x="67.3" y="300"/><use xlink:href="#4d01aca3k" x="73.672" y="300"/><use xlink:href="#4d01aca3o" x="79.516" y="300"/><use xlink:href="#4d01aca3p" x="89.116" y="300"/><use xlink:href="#4d01aca3l" x="91.972" y="300"/><use xlink:href="#4d01aca3q" x="97.672" y="300"/><use xlink:href="#4d01aca3r" x="100.264" y="300"/></g><g fill="#b7b7b7"><use xlink:href="#4d01aca3o" x="106.708" y="300"/></g><g fill="#b7b7b7"><use xlink:href="#4d01aca3s" x="115.048" y="300"/></g><g fill="#b7b7b7"><use xlink:href="#4d01aca3k" x="120.484" y="300"/></g><g fill="#b7b7b7"><use xlink:href="#4d01aca3t" x="126.292" y="300"/><use xlink:href="#4d01aca3u" x="131.932" y="300"/><use xlink:href="#4d01aca3q" x="136.24" y="300"/><use xlink:href="#4d01aca3I" x="138.832" y="300"/><use xlink:href="#4d01aca3u" x="142.036" y="300"/><use xlink:href="#4d01aca3l" x="146.344" y="300"/><use xlink:href="#4d01aca3y" x="152.044" y="300"/><use xlink:href="#4d01aca3p" x="155.14" y="300"/><use xlink:href="#4d01aca3m" x="157.996" y="300"/></g></svg>