<?xml version='1.0' encoding='UTF-8'?>
<svg xmlns="http://www.w3.org/2000/svg" xmlns:xlink="http://www.w3.org/1999/xlink" width="600px" height="300px" viewBox="0 0 600 300" x="0px" y="0px" enable-background="new 0 0 600 300"><defs><symbol overflow="visible" id="3985a660a"><path d="M20.22-30.22c-2.28 0-5.27 1.36-11.83 8.38-.39.39-.66.59-.84.59-.2 0-.27-.2-.27-.45 0-2.28 2.8-9.18 3.83-10.93 4.75-7.87 12.75-6.95 17.48-11.3 2.8-2.62 2.8-5.21 2.8-6.26 0-1.15-.39-1.36-.64-1.36-.2 0-.33.07-.45.46-.86 2.67-4.11 3.84-5.6 4.23a26.48 26.48 0 00-12.28 7.53C7.94-34.52 4.88-28.2 3.44-21.58a51.06 51.06 0 00-1.1 9.88c0 6.17 1.82 13 8.32 13 3 0 6.17-1.88 8.96-4.67 4.63-4.57 7.94-10.99 7.94-16.85 0-6.1-3.18-10-7.34-10zm-2.34 4.67c2.73 0 4.15 3.7 4.15 8.4 0 4.93-1.87 10.71-4.6 12.54a6.02 6.02 0 01-3.38 1.03c-.99 0-1.96-.19-2.8-.64-2.28-1.17-4.03-4.03-4.03-9.44 0-2.01 0-2.78 1.3-4.73 2.07-3.13 6.23-7.16 9.36-7.16zm0 0"/></symbol><symbol overflow="visible" id="3985a660b"><path d="M11.95-31.4c-2.32 0-6.62 4.3-8.37 6.63-.4.52-.46.66-.46 1.11 0 .58.32 1.24.65 1.24.26 0 .84-.66 2.28-1.9 1.03-.84 2.14-1.74 2.92-1.74.51 0 .72.33.72 1.1 0 1.82-1.38 6.7-2.14 10-1.17 4.82-2.4 9.9-2.4 13.66 0 1.36.77 2.66 2.46 2.66 1.75 0 3.83-1.17 5.84-3.17 1.5-1.56 4.03-5.4 4.03-6.13 0-.37-.26-.64-.45-.64-.33 0-.84.58-2.01 1.63-1.5 1.36-3.2 2.73-3.97 2.73-.58 0-.72-.47-.72-1.1 0-2.02 1.04-5.87 2.1-10.09 1.02-4.28 2.52-9.36 2.52-12.54 0-2.66-1.62-3.44-3-3.44zm-5.39-7.15c-.39 0-.51 1.36-.51 1.83 0 .52.06.78.45.78 2.47 0 3.97-.08 5.45-.08 1.57 0 3.33.08 5.66.08.39 0 .6-1.44.6-2.1 0-.3-.15-.5-.34-.5-2.53 0-4.15.06-5.78.06-1.5 0-3.3-.07-5.53-.07zm0 0"/></symbol><symbol overflow="visible" id="3985a660c"><path d="M27.36-33.28c-.31 0-.52.06-.7.39-.2.33-.99 1.83-1.7 2.53-.4.4-.46.45-.65.45-.12 0-.45-.12-1.04-.3-.97-.34-2.14-.6-3.5-.6-2.35 0-4.43.72-6.83 2.34C7.08-24.5 1.3-16.07 1.3-10.8 1.3-4.16 4.42.72 8.25.72c1.17 0 1.83-.2 3.19-1.24 2.34-1.82 5.14-5.14 7.01-7.42 1.44-1.68 1.77-2.26 2.02-2.26.08 0 .14.12.14.32 0 .4-.33 2.27-1.11 6.82-1.9 10.86-2.73 15.8-5.45 18.01a5.64 5.64 0 01-3.46 1.24c-2.65 0-5.59-2.47-7.15-5.6-.52-.96-.77-.96-1.3-.96-.7 0-2.4.96-2.4 3.5 0 4.3 3.38 7.09 7.03 7.09 3.64 0 6.8-1.77 8.96-3.58 2.8-2.34 5.13-5.33 6.18-8.25 2.4-6.83 2.07-10.08 5.26-30.36 1.42-9.03 1.69-10.26 1.69-10.72 0-.26-.9-.6-1.5-.6zM10.4-4.16c-2.41 0-3.52-3.57-3.52-7.21 0-5.4 2.86-11.96 7.02-14.63a6.42 6.42 0 013.39-1.17c1.75 0 5.18 1.1 5.18 3.84 0 2.4-1.42 7.66-2.07 9.03-1.43 2.86-7.41 10.14-10 10.14zm0 0"/></symbol><symbol overflow="visible" id="3985a660d"><path d="M11.25-31.27c-.53 0-.84 0-1.44.27-2.14.9-5.33 5.06-6.75 7.34-.65 1.04-.86 1.24-.86 1.88 0 .47.14 1.05.33 1.05.06 0 .27-.2.72-.66 1.5-1.55 3.58-3.56 4.88-4.34.12-.08.39-.2.51-.2.4 0 .53.32.53.71 0 .4-.33 2.66-1.04 6.17C7.01-13.78 4.8-5.39 4.8-2.08c0 2.2 2.35 3.52 3.77 3.52.78 0 1.83-.92 2.8-1.9 3.7-3.7 9.3-11.3 12.15-15.46.58-.85.72-1.11.78-1.11.13 0 .19.2.19.45 0 .85-.97 4.42-1.75 7.55-.72 2.92-1.44 5.9-1.44 7.53 0 2.16 1.83 3.13 3.33 3.13.97 0 1.42-.52 2.4-1.36a53.22 53.22 0 005.85-6.83C33.67-7.67 34-8.4 34-9.17c0-.58-.14-1.1-.45-1.1-.2 0-.53.52-1.77 1.82-1.69 1.82-3.83 4.03-4.55 4.03-.45 0-.65-.46-.65-1.17 0-.91.33-2.2.65-3.64 1.05-4.43 2.29-10 3.25-14.82.52-2.4 1.3-5.86 1.3-6.37 0-.58-1.48-.58-2.26-.58-1.24 0-2.68.19-2.8.58-.53 1.56-1.24 5.2-1.56 6.17-1.75 5.6-9.04 14.5-12.82 18.27-.45.45-1.3 1.43-1.87 1.43-.4 0-.53-.45-.53-.98 0-.7.33-2.27.6-3.5.96-4.42 2.46-10.6 3.37-15.22.65-3.38.84-4.22.84-5.06 0-1.38-1.88-1.96-3.5-1.96zm2.33-7.15c-.64 0-.9 1.31-.9 1.76 0 .46.05.72.77.72 2.35 0 5.33-.14 8.33-.14 3.05 0 5.72.14 7.99.14.71 0 1.1-1.37 1.1-2.01 0-.27-.26-.47-.57-.47-5.02 0-5.08.14-8.27.14-2.98 0-3.97-.14-8.45-.14zm0 0"/></symbol><symbol overflow="visible" id="3985a660e"><path d="M12.28-38.42c-.9 0-1.1 1.31-1.1 1.76 0 .46.07.72 1.04.72 7.22 0 13.33-.14 17.55-.14 4.23 0 8.12.14 15.21.14.97 0 1.24-1.37 1.24-2.01 0-.27-.4-.47-.84-.47-7.04 0-10.8.14-15.29.14-4.15 0-11.5-.14-17.8-.14zm-.64 6.97c-1.56 0-2.55.57-3.9 1.75a27.82 27.82 0 00-4.62 5.39c-.78 1.17-.98 1.56-.98 2.28 0 .51.14.97.33.97.2 0 .51-.58 1.5-1.57 1.48-1.48 3.83-3.7 4.81-3.7.45 0 .52.45.52 1.11 0 1.9-1.05 5.99-2.14 10.27C5.98-10.27 4.6-4.88 4.6-2.73c0 1.62 2.01 4.17 4.36 4.17 1.23 0 2.08-.66 3.25-1.77 3.76-3.5 8.58-11.76 10.08-14.42.57-.98.84-1.23.97-1.23.06 0 .14.06.14.18 0 .2-.08.52-.2 1.11-.59 2.53-2.15 9.55-2.15 11.63 0 3.19 2.02 4.42 3.7 4.42.58 0 1.18-.19 1.63-.45 4.36-2.8 9.63-11.77 11.95-15.8.33-.52.53-.78.72-.78.13 0 .2.14.2.39 0 .26-.13.84-.38 1.83-.79 2.92-2.74 9.68-2.74 11.76a3.3 3.3 0 003.25 3.05c1.17 0 2.34-.64 3.64-1.75 2.4-2.02 4.81-5.2 5.6-7.16.12-.39.24-.84.24-1.3 0-.78-.24-1.42-.51-1.42s-.33.4-1.56 1.88c-1.7 2.08-3.83 4.03-4.74 4.03-.47 0-.6-.33-.6-.97 0-2.08 1.37-6.83 2.93-14.23.84-4.03 2.34-9.36 2.34-10.74 0-.7-1.1-.76-2.4-.76-2.2 0-2.47.06-2.6.45-.65 1.88-.84 3.9-1.56 6.5a31.01 31.01 0 01-3.51 7.8c-2.02 3.31-5.4 8.84-8.25 11.1-.72.52-1.57 1.05-2.22 1.05-.32 0-.52-.26-.52-.78 0-1.3.45-3.45 1.05-6.25.84-4.1 2.14-9.42 3.05-13.64a76.3 76.3 0 001.1-5.72c0-.45-.9-.65-2.01-.65-1.36 0-2.92.32-3.13.84-.57 1.83-1.09 7.03-3.37 11.25-2.02 3.9-5.98 10.53-9.3 13.4-.97.83-2.08 1.41-2.65 1.41-.33 0-.6-.12-.6-.64 0-.45.13-1.23.33-2.34.58-3.44 1.56-7.4 2.47-11.11 1.17-4.75 2.2-9.05 2.2-11.19 0-.9-1.36-1.87-3.17-1.87zm0 0"/></symbol><symbol overflow="visible" id="3985a660f"><path d="M11.64-31.45c-1.56 0-2.55.57-3.9 1.75a27.82 27.82 0 00-4.62 5.39c-.78 1.17-.98 1.56-.98 2.28 0 .51.14.97.33.97.2 0 .51-.58 1.5-1.57 1.48-1.48 3.83-3.7 4.81-3.7.45 0 .52.45.52 1.11 0 1.9-1.05 5.99-2.14 10.27C5.98-10.27 4.6-4.88 4.6-2.73c0 1.62 2.01 4.17 4.36 4.17 1.23 0 2.08-.66 3.25-1.77 3.76-3.5 8.51-11.76 10.08-14.42.57-.98.84-1.23.97-1.23.06 0 .14.06.14.18 0 .2-.08.52-.2 1.11-.59 2.53-2.15 9.55-2.15 11.63 0 3.19 2.02 4.42 3.7 4.42.58 0 1.18-.19 1.63-.45 4.36-2.8 9.48-11.77 11.95-15.8.33-.52.53-.78.72-.78.13 0 .2.14.2.39 0 .26-.13.84-.38 1.83-.79 2.92-2.74 9.68-2.74 11.76a3.3 3.3 0 003.25 3.05c1.17 0 2.34-.64 3.64-1.75 2.4-2.02 4.81-5.2 5.6-7.16.12-.39.24-.84.24-1.3 0-.78-.24-1.42-.51-1.42s-.33.4-1.56 1.88c-1.7 2.08-3.83 4.03-4.74 4.03-.47 0-.6-.33-.6-.97 0-2.08 1.37-6.83 2.93-14.23.84-4.03 2.34-9.36 2.34-10.74 0-.7-1.1-.76-2.4-.76-2.2 0-2.47.06-2.6.45-.65 1.88-.84 3.9-1.56 6.5a28.9 28.9 0 01-3.51 7.8c-2.08 3.31-5.4 8.84-8.25 11.1-.72.52-1.57 1.05-2.22 1.05-.32 0-.52-.26-.52-.78 0-1.3.45-3.45 1.05-6.25.84-4.1 2.14-9.42 3.05-13.64a76.3 76.3 0 001.1-5.72c0-.45-.9-.65-2.01-.65-1.36 0-2.92.32-3.13.84-.57 1.83-1.09 7.03-3.37 11.25-2.02 3.9-5.98 10.53-9.3 13.4-.97.83-2.08 1.41-2.65 1.41-.33 0-.6-.12-.6-.64 0-.45.13-1.23.33-2.34.58-3.44 1.56-7.4 2.47-11.11 1.17-4.75 2.2-9.05 2.2-11.19 0-.9-1.36-1.87-3.17-1.87zm0 0"/></symbol><symbol overflow="visible" id="3985a660g"><path d="M3.83 0v-5.95H6.2v-.82H.45v.82h2.4V0zm0 0"/></symbol><symbol overflow="visible" id="3985a660h"><path d="M5.75-2.23v-.43c0-1.6-.9-2.51-2.42-2.51S.87-4.16.87-2.48c0 1.71.91 2.62 2.5 2.62 1.43 0 2.07-.56 2.29-1.52l-.9-.09c-.18.61-.59.9-1.35.9-.94 0-1.52-.54-1.58-1.66zm-2.4-2.2c.93 0 1.43.5 1.48 1.55H1.84c.08-1.07.6-1.56 1.5-1.56zm0 0"/></symbol><symbol overflow="visible" id="3985a660i"><path d="M1.83 0l1.42-2h.06l1.46 2H5.8L4-2.53l1.78-2.49H4.8L3.42-3.08h-.08l-1.4-1.94H.89l1.78 2.49L.84 0zm0 0"/></symbol><symbol overflow="visible" id="3985a660j"><path d="M5.52-4.25v-.77H3.17v-1.56h-.81l-.14 1.56H.75v.77h1.47v2.4c0 1.3.48 1.94 1.84 1.94C4.6.1 5.14 0 5.55-.14L5.4-.91c-.32.13-.72.2-1.13.2-.8 0-1.1-.37-1.1-1.23v-2.31zm0 0"/></symbol><symbol overflow="visible" id="3985a660k"><path d="M3.33-3.42c.47 0 .8-.27.8-.8 0-.51-.33-.8-.8-.8-.47 0-.8.29-.8.8 0 .53.33.8.8.8zm0 3.5c.47 0 .8-.27.8-.78 0-.53-.33-.82-.8-.82-.47 0-.8.29-.8.82 0 .51.33.78.8.78zm0 0"/></symbol><symbol overflow="visible" id="3985a660m"><path d="M3.4.14c1.55 0 2.46-.95 2.46-2.62 0-1.65-.83-2.47-2.17-2.47-.96 0-1.63.48-1.9 1.15h-.07c.12-1.56.42-2.14 1.92-2.37.88-.14 1.38-.19 1.86-.25l-.08-.86c-.6.05-1.22.14-1.92.25C1.45-6.7.92-5.7.92-3.03.92-.78 1.87.14 3.4.14zm0-.75c-1 0-1.5-.72-1.5-1.92 0-1.05.6-1.72 1.57-1.72.94 0 1.4.58 1.4 1.78C4.88-1.22 4.4-.6 3.4-.6zm0 0"/></symbol><symbol overflow="visible" id="3985a660n"><path d="M1.44-5.02V0h.95v-4.25h3.22v-.77zm0 0"/></symbol><symbol overflow="visible" id="3985a660o"><path d="M5.36-5.02H1.7a36.7 36.7 0 01-.12 2.44c-.06.9-.27 1.52-.55 1.81h-.6v2.1h.87V0h3.92v1.33h.87v-2.1h-.73zM1.92-.77c.25-.39.4-1.04.46-1.75.04-.46.07-1.12.1-1.75h1.97v3.5zm0 0"/></symbol><symbol overflow="visible" id="3985a660p"><path d="M1.1-5.02V0h.96v-4.22h2.55V0h.95v-5.02zm0 0"/></symbol><symbol overflow="visible" id="3985a660q"><path d="M.95-5.02v.77h1.9V0h.96v-4.25h1.9v-.77zm0 0"/></symbol><symbol overflow="visible" id="3985a660r"><path d="M5.2-.73H3.75v-4.29h-.83v4.29H1.47v-4.29H.64V0h5.4v-5.02H5.2zm0 0"/></symbol><symbol overflow="visible" id="3985a660s"><path d="M5.95-6.77H1.1V0h.99v-2.92H5.3v-.77H2.08v-2.26h3.87zm0 0"/></symbol><symbol overflow="visible" id="3985a660t"><path d="M2.83.14c.94 0 1.5-.39 1.81-.95h.08l.1.81h.76v-3.38c0-1.23-.69-1.8-2.13-1.8-1.43 0-2.03.65-2.18 1.6l.93.1c.11-.6.44-.93 1.22-.93.85 0 1.22.32 1.22 1.04v.34l-1.81.2C1.6-2.7 1.1-2.17 1.1-1.28c0 .92.64 1.42 1.72 1.42zm.25-.77c-.67 0-1.02-.28-1.02-.74 0-.44.28-.72 1-.82l1.58-.19v.41c0 .8-.6 1.34-1.56 1.34zm0 0"/></symbol><symbol overflow="visible" id="3985a660u"><path d="M2.73.14c.9 0 1.43-.45 1.74-1.08h.06l.13.94h.8v-5.02h-.94v2.7c0 .98-.57 1.62-1.46 1.62-.75 0-1.1-.4-1.1-1.22v-3.1h-.93v3.32c0 1.17.55 1.84 1.7 1.84zm0 0"/></symbol><symbol overflow="visible" id="3985a660v"><path d="M5.08-5.16c-.94 0-1.58.43-1.9 1.3h-.09l-.07-1.16H1.05v.77h1.1v3.48H.96V0h3.96v-.77H3.1v-1.46c0-1.36.6-2.05 1.83-2.05.4 0 .76.08 1.1.17l.15-.87c-.33-.11-.7-.18-1.11-.18zm0 0"/></symbol><symbol overflow="visible" id="3985a660w"><path d="M3.42.14c1.61 0 2.56-.75 2.56-2 0-1.1-.67-1.6-1.95-1.86l-.97-.2c-.87-.17-1.23-.49-1.23-1.11 0-.7.54-1.11 1.5-1.11 1.06 0 1.51.34 1.69 1.23l.9-.09c-.17-1.28-.98-1.9-2.6-1.9C1.79-6.9.9-6.18.9-4.98c0 1.06.66 1.66 1.88 1.9l1.01.2c.85.17 1.25.4 1.25 1.09 0 .73-.6 1.16-1.6 1.16-1.07 0-1.66-.4-1.8-1.24l-.94.1C.83-.53 1.75.13 3.42.13zm0 0"/></symbol><symbol overflow="visible" id="3985a660x"><path d="M3.9.14c1.48 0 2.18-.98 2.18-2.64 0-1.67-.7-2.66-2.17-2.66-.91 0-1.49.41-1.79 1h-.06v-2.98h-.95V0h.81l.11-.9h.06c.29.63.82 1.04 1.82 1.04zm-.32-.8c-1.08 0-1.55-.8-1.55-1.84 0-1.06.47-1.86 1.55-1.86 1.1 0 1.51.61 1.51 1.86S4.64-.66 3.58-.66zm0 0"/></symbol><symbol overflow="visible" id="3985a660y"><path d="M3.58-5.81c.42 0 .72-.22.72-.67 0-.44-.3-.68-.72-.68-.44 0-.72.24-.72.68 0 .45.28.67.72.67zm.5.8H1.52v.76h1.6v3.48h-1.8V0h4.46v-.77h-1.7zm0 0"/></symbol><symbol overflow="visible" id="3985a660z"><path d="M2.16 0v-2.67c0-.99.59-1.63 1.46-1.63.74 0 1.07.38 1.07 1.22V0h.95v-3.31c0-1.2-.56-1.85-1.67-1.85-.92 0-1.49.46-1.77 1.08h-.06l-.12-.94H1.2V0zm0 0"/></symbol><symbol overflow="visible" id="3985a660A"><path d="M2.58.95l2.39-8.67h-.9L1.7.95zm0 0"/></symbol><symbol overflow="visible" id="3985a660B"><path d="M1.64 0v-3.17l-.16-2.5h.1L2.9-1.83h.82l1.35-3.84h.1l-.16 2.5V0h.95v-6.77h-1.3l-1.3 3.82h-.09L2-6.77H.69V0zm0 0"/></symbol><symbol overflow="visible" id="3985a660C"><path d="M3.34.14c1.43 0 2.13-.66 2.25-1.78l-.89-.1c-.1.7-.5 1.08-1.34 1.08-1.03 0-1.52-.64-1.52-1.84 0-1.23.47-1.86 1.52-1.86.84 0 1.23.36 1.34 1.08l.9-.1c-.13-1.09-.82-1.78-2.26-1.78-1.56 0-2.46.97-2.46 2.66 0 1.66.9 2.64 2.46 2.64zm0 0"/></symbol><symbol overflow="visible" id="3985a660D"><path d="M2.84.14C3.8.14 4.33-.26 4.6-.9h.07L4.8 0h.76v-7.14h-.95v2.95h-.08c-.28-.6-.86-.97-1.67-.97-1.48 0-2.27.99-2.27 2.64C.6-.84 1.36.14 2.84.14zm.22-.8c-.98 0-1.48-.59-1.48-1.84s.5-1.86 1.48-1.86c1.13 0 1.58.8 1.58 1.86S4.2-.66 3.06-.66zm0 0"/></symbol><symbol overflow="visible" id="3985a660E"><path d="M3.33.14c1.62 0 2.5-.95 2.5-2.66 0-1.68-.88-2.64-2.5-2.64-1.63 0-2.5.96-2.5 2.64 0 1.7.87 2.66 2.5 2.66zm0-.77c-1.06 0-1.52-.6-1.52-1.89 0-1.28.46-1.87 1.52-1.87 1.08 0 1.53.6 1.53 1.87 0 1.29-.45 1.9-1.53 1.9zm0 0"/></symbol><symbol overflow="visible" id="3985a660F"><path d="M4.63-6.5c.45 0 .98.08 1.39.2l.2-.72a5.3 5.3 0 00-1.64-.26c-1.52 0-2.16.56-2.16 1.87v.4H.9v.76h1.53V0h.94v-4.25h2.53v-.77H3.36v-.3c0-.84.33-1.18 1.27-1.18zm0 0"/></symbol><symbol overflow="visible" id="3985a660G"><path d="M1.63 0v-2.9c0-.8.15-1.4.71-1.4.41 0 .55.3.55.88V0h.95v-2.9c0-.8.18-1.4.72-1.4.4 0 .57.3.57.88V0h.95v-3.63c0-.92-.28-1.53-1.11-1.53-.63 0-.95.41-1.1.9h-.06c-.1-.52-.44-.9-1.08-.9-.6 0-.93.41-1.06.9H1.6l-.23-.76H.67V0zm0 0"/></symbol><symbol overflow="visible" id="3985a660H"><path d="M3.36.16c1.4 0 2.2-.6 2.2-1.57 0-.89-.54-1.22-1.47-1.39L3-3c-.67-.14-.86-.33-.86-.73 0-.5.4-.74 1.17-.74.83 0 1.19.27 1.27.8l.9-.05c-.12-1-.8-1.47-2.17-1.47-1.34 0-2.1.53-2.1 1.5 0 .81.45 1.22 1.52 1.44l1.04.2c.56.11.87.24.87.72 0 .52-.45.78-1.28.78-.95 0-1.36-.28-1.42-.87l-.9.06C1.07-.36 1.8.16 3.35.16zm0 0"/></symbol><symbol overflow="visible" id="3985a660I"><path d="M1.45-2.95c0 2.56 1.08 4.37 3.67 4.84l.11-.67C3.28.86 2.43-.75 2.43-2.95s.85-3.82 2.8-4.16l-.1-.69c-2.6.49-3.68 2.3-3.68 4.85zm0 0"/></symbol><symbol overflow="visible" id="3985a660J"><path d="M3.92-7.14H1.36v.76h1.6v5.61H1.15V0H5.7v-.77H3.92zm0 0"/></symbol><symbol overflow="visible" id="3985a660K"><path d="M3.16 2.03c1.67 0 2.4-.86 2.4-2.51v-4.54h-.81l-.13.91h-.06c-.26-.58-.8-1.05-1.73-1.05-1.42 0-2.24 1-2.24 2.52 0 1.6.75 2.56 2.2 2.56.94 0 1.5-.5 1.77-1.03h.05v.72c0 1.17-.42 1.67-1.45 1.67-.93 0-1.3-.34-1.41-.89L.8.5c.12.96.87 1.54 2.36 1.54zM3.06-.8c-.98 0-1.48-.57-1.48-1.82 0-1.13.5-1.75 1.48-1.75 1.06 0 1.58.76 1.58 1.75 0 .95-.56 1.82-1.58 1.82zm0 0"/></symbol><symbol overflow="visible" id="3985a660L"><path d="M3.33.14c1.65 0 2.6-1.1 2.6-3.52S4.99-6.9 3.34-6.9C1.67-6.9.72-5.8.72-3.37c0 2.4.95 3.51 2.6 3.51zm0-.84c-1.13 0-1.6-.85-1.6-2.67 0-1.86.47-2.7 1.6-2.7 1.12 0 1.6.84 1.6 2.7 0 1.82-.48 2.67-1.6 2.67zM3.3-2.64c.38 0 .56-.28.56-.72 0-.44-.18-.7-.56-.7-.39 0-.56.26-.56.7 0 .44.17.72.56.72zm0 0"/></symbol><symbol overflow="visible" id="3985a660M"><path d="M.92-4.42h.88v-1.49h3.1v.05L2.27 0H3.3l2.64-6v-.77H.92zm0 0"/></symbol><symbol overflow="visible" id="3985a660N"><path d="M1.45-7.1c1.96.33 2.8 1.94 2.8 4.15 0 2.2-.84 3.8-2.8 4.17l.11.67c2.58-.47 3.67-2.28 3.67-4.84 0-2.55-1.09-4.36-3.67-4.85zm0 0"/></symbol></defs><use xlink:href="#3985a660a" x="191.97" y="153.5" fill="#515151"/><use xlink:href="#3985a660b" x="221.35" y="153.5" fill="#fff"/><use xlink:href="#3985a660c" x="240.33" y="153.5" fill="#fff"/><use xlink:href="#3985a660d" x="270.945" y="153.5" fill="#fff"/><use xlink:href="#3985a660e" x="306.76" y="153.5" fill="#fff"/><use xlink:href="#3985a660f" x="357.395" y="153.5" fill="#fff"/><g fill="#fff"><use xlink:href="#3985a660g" x="260" y="252"/><use xlink:href="#3985a660h" x="266.667" y="252"/><use xlink:href="#3985a660i" x="273.334" y="252"/><use xlink:href="#3985a660j" x="280.001" y="252"/><use xlink:href="#3985a660k" x="286.668" y="252"/><use xlink:href="#3985a660l" x="293.335" y="252"/><use xlink:href="#3985a660m" x="300.002" y="252"/><use xlink:href="#3985a660n" x="306.669" y="252"/><use xlink:href="#3985a660o" x="313.336" y="252"/><use xlink:href="#3985a660p" x="320.003" y="252"/><use xlink:href="#3985a660q" x="326.67" y="252"/><use xlink:href="#3985a660r" x="333.337" y="252"/></g><g fill="#fff"><use xlink:href="#3985a660s" x="113.3333" y="266"/><use xlink:href="#3985a660h" x="120.0003" y="266"/><use xlink:href="#3985a660t" x="126.6673" y="266"/><use xlink:href="#3985a660j" x="133.3343" y="266"/><use xlink:href="#3985a660u" x="140.0013" y="266"/><use xlink:href="#3985a660v" x="146.6683" y="266"/><use xlink:href="#3985a660h" x="153.3353" y="266"/><use xlink:href="#3985a660k" x="160.0023" y="266"/><use xlink:href="#3985a660l" x="166.6693" y="266"/><use xlink:href="#3985a660w" x="173.3363" y="266"/><use xlink:href="#3985a660h" x="180.0033" y="266"/><use xlink:href="#3985a660v" x="186.6703" y="266"/><use xlink:href="#3985a660x" x="193.3373" y="266"/><use xlink:href="#3985a660y" x="200.0043" y="266"/><use xlink:href="#3985a660t" x="206.6713" y="266"/><use xlink:href="#3985a660z" x="213.3383" y="266"/><use xlink:href="#3985a660A" x="220.0053" y="266"/><use xlink:href="#3985a660B" x="226.6723" y="266"/><use xlink:href="#3985a660t" x="233.3393" y="266"/><use xlink:href="#3985a660C" x="240.0063" y="266"/><use xlink:href="#3985a660h" x="246.6733" y="266"/><use xlink:href="#3985a660D" x="253.3403" y="266"/><use xlink:href="#3985a660E" x="260.0073" y="266"/><use xlink:href="#3985a660z" x="266.6743" y="266"/><use xlink:href="#3985a660y" x="273.3413" y="266"/><use xlink:href="#3985a660t" x="280.0083" y="266"/><use xlink:href="#3985a660z" x="286.6753" y="266"/><use xlink:href="#3985a660l" x="293.3423" y="266"/><use xlink:href="#3985a660F" x="300.0093" y="266"/><use xlink:href="#3985a660E" x="306.6763" y="266"/><use xlink:href="#3985a660v" x="313.3433" y="266"/><use xlink:href="#3985a660G" x="320.0103" y="266"/><use xlink:href="#3985a660H" x="326.6773" y="266"/><use xlink:href="#3985a660l" x="333.3443" y="266"/><use xlink:href="#3985a660I" x="340.0113" y="266"/><use xlink:href="#3985a660H" x="346.6783" y="266"/><use xlink:href="#3985a660h" x="353.3453" y="266"/><use xlink:href="#3985a660j" x="360.0123" y="266"/><use xlink:href="#3985a660l" x="366.6793" y="266"/><use xlink:href="#3985a660J" x="373.3463" y="266"/><use xlink:href="#3985a660t" x="380.0133" y="266"/><use xlink:href="#3985a660z" x="386.6803" y="266"/><use xlink:href="#3985a660K" x="393.3473" y="266"/><use xlink:href="#3985a660u" x="400.0143" y="266"/><use xlink:href="#3985a660t" x="406.6813" y="266"/><use xlink:href="#3985a660K" x="413.3483" y="266"/><use xlink:href="#3985a660h" x="420.0153" y="266"/><use xlink:href="#3985a660l" x="426.6823" y="266"/><use xlink:href="#3985a660E" x="433.3493" y="266"/><use xlink:href="#3985a660v" x="440.0163" y="266"/><use xlink:href="#3985a660l" x="446.6833" y="266"/><use xlink:href="#3985a660H" x="453.3503" y="266"/><use xlink:href="#3985a660H" x="460.0173" y="266"/><use xlink:href="#3985a660L" x="466.6843" y="266"/><use xlink:href="#3985a660M" x="473.3513" y="266"/><use xlink:href="#3985a660N" x="480.0183" y="266"/></g></svg>