<?xml version='1.0' encoding='UTF-8'?>
<svg xmlns="http://www.w3.org/2000/svg" xmlns:xlink="http://www.w3.org/1999/xlink" width="600px" height="300px" viewBox="0 0 600 300" x="0px" y="0px" enable-background="new 0 0 600 300"><defs><symbol overflow="visible" id="74a89d91a"><path d="M32.05-46.47c-3.38 0-10.86.84-10.86 2.99 0 1.04 1.56 2.53 1.56 3.37 0 .72-.9 1.05-1.56 1.05-2.35 0-5.27-.85-7.28-.85-.79 0-.97.78-.97 1.82 0 3.78 1.87 8.26 10.14 11.25 2.6.9 3.83 1.1 3.83 1.56 0 1.23-3.05 1.56-7.68 2.34-3.82.64-8.37 1.49-10.84 4.74-1.05 1.37-1.83 2.73-1.83 4.48 0 2.22 2.67 2.16 2.67 3.06 0 .52-1.3 2.02-1.82 2.66C4.94-4.87 3.58-2.4 3.58.4c0 1.62.12 4.6 2.2 4.6.9 0 1.56-2.14 5.4-6.3.52-.51.77-.84 1.16-.84.85 0 .4 5.45 3.25 5.45 4.24 0 9.18-1.03 12.94-4.87 2.67-2.66 3.31-7.22 3.78-8.64.13-.4.52-1.63 1.42-1.63.52 0 .52.46.52.58 0 .92-.84 3.78-.84 5.92 0 5.72 2.67 9.24 5.92 9.24.84 0 1.42-.93 1.42-2.02.4-2.01.4-4.75 1.69-4.75.92 0 2.48 5.66 4.36 5.66 5.92 0 14.76-9.49 14.76-17.16 0-4.69-3.9-9.62-7.87-12.03-.97-.58-1.63-.78-1.63-1.3 0-1.04 2.4-2.53 4.24-6.31.25-.58.58-1.1 1.23-1.1.58 0 1.75.32 2.78.7 4.5 1.63 8.99 4.24 8.99 5.54 0 .19-1.83.4-3.2 1.5-1.04.78-1.76 2.4-1.76 4.16 0 5.6 2.35 10.2 5.2 13.26 1 1.1 2.35 1.88 2.8 1.88.6 0 .66-.9.66-1.69 0-.33 0-1.3.4-1.3.3 0 .5.4 1.02 2.08.33 1.03.6 1.75 1.38 3.25.76 1.5 1.75 1.95 2.39 1.95 1.44 0 2.01-3.45 2.01-6.89 0-1.68 0-2.28.4-2.28.2 0 .46 1.05 1.04 1.05.78 0 1.95-2.8 1.95-5.47 0-8.12-4.23-12.73-7.22-12.73-1.56 0-2.46.32-2.98.32-.98 0-.72-.06-1.7-1.1-3.5-3.97-7.4-5.6-12.02-7.35-.84-.33-.84-.51-.84-.84 0-1.11 2.14-5 4.28-8.4 2.22-3.5 3.33-4.09 3.33-5.2 0-.64-1.38-2.78-2.8-2.78-.66 0-1.31.19-1.95.38-5.14 1.5-12.49 4.03-12.49 10.28 0 3.58 2.22 6.17 4.49 7.8.39.26.39.45.39.71 0 .91-3.31 5.72-4.22 5.72-1.05 0-.4-4.1-2.86-8.12-3.06-5.02-9.1-7.8-14.95-7.8zm.18 3.38c5.6 0 12.61 5.32 12.61 11.82 0 2.93-.18 4.75-2.07 5.6-2.72 1.23-5.52 2.34-5.52 3.1 0 1.5.7 1.96 2.2 1.96 2.61 0 5.86-3.95 8.07-3.95 2.67 0 9.54 5.78 9.54 11.56 0 5.53-4.48 11.31-7.98 11.31-1.3 0-2.28-5.33-5.27-5.33-3.7 0-4.87 7.2-5.6 7.2-1.5 0-1.55-5.24-1.55-7.07 0-3.52 1.04-5.33 1.04-8.45 0-1.7-.45-1.96-1.3-1.96-2.15 0-4.23 1.24-5.65 4.36C28.47-8 28.2-5 24.5-2.14a12.17 12.17 0 01-6.44 1.69c-.76 0-.64-2.61-1.42-4.55-.45-1.17-1.75-1.44-2.67-1.44-.7 0-2.6.99-4.4 2.86-1.45 1.5-1.71 1.96-1.9 1.96-.12 0-.2 0-.2-.2 0-1.3 2.4-4.41 3.19-5.26 3.18-3.72 4.75-3.33 4.75-4.48 0-.4-.07-.99-1.36-1.9-.93-.65-2.55-1.5-2.55-2.34 0-4.28 13.4-5.06 16.25-5.51 2.6-.4 5.2-2.61 5.2-5.47 0-1.42-.58-1.9-2.47-2.14-2.92-.4-12.34-3.06-12.34-7.4 0-.34.25-.54.9-.54s2.27.27 3.84.27c3.78 0 3.9-1.44 3.9-2.14 0-.66-.72-1.83-.72-2.41 0-1.3 2.86-1.95 6.17-1.95zM70.2-26.8c.78 0 1.3.27 1.36 1.12.13 1.42.27 3.37.27 4.48 0 1.11.9 1.82 1.95 1.82.78 0 .84-.85.84-1.36 0-2.2-.59-4.3-.59-5.46 0-.39.4-.6.84-.6 3.4 0 6.38 5.85 6.38 9.82 0 1.17-.52 2.28-.97 2.28-.14 0-1.31-.72-1.95-.72-.27 0-.45.2-.45.72 0 .72.12 3.83.12 5.2 0 .32 0 1.37-.27 1.37-.18 0-.3-.07-.7-.97-1.44-3.33-2.4-6.44-5.14-6.44-1.23 0-.9 1.81-1.17 1.81-.72 0-3.7-5.97-3.7-9.75 0-2.92 1.68-3.31 3.18-3.31zM58.1-49.07c.73 0 .98.33.98.78 0 .52-.31 1.9-1.16 3.85-1.31 2.98-1.95 4.4-2.48 4.4-.85 0-2.47-1.3-2.47-3.43 0-1.11.26-2.29.78-3.07 1.5-2.39 3.31-2.53 4.36-2.53zm0 0"/></symbol><symbol overflow="visible" id="74a89d91b"><path d="M72.6-45.5c-.83 0-3.18 1.36-5.65 2.28-5.53 2.02-8.39 2.53-11.89 4.03-5.73 2.47-6.25 4.4-6.97 4.4-1.62 0-.97-5.57-8.57-14.29-2.2-2.53-3.38-4.48-5.07-4.48-1.04 0-1.23 1.44-1.37 2.53-.4 3.72-1.24 7.55-1.24 11.31 0 3.97.66 5.27.66 6.5 0 .4-.19.6-.66.6-1.09 0-3.76-.6-8.04-.6-4.43 0-9.18.84-13.6 1.38-5.2.57-8.76-.33-8.76 1.36 0 1.95 2.14 3.04 4.1 4.42 7.4 5.2 12.85 4.93 12.91 6.5.08 1.42-8.18 7.53-8.18 10.78 0 .72.32 1.17 1.1 1.17 2.99 0 2.41-.51 8.52-.51 2.02 0 4.03.32 4.03.78 0 1.95-7.22 8.06-7.22 12.8 0 1.56.66 2.27 1.57 2.27.78 0 2.01-.84 4.93-2.14 2.61-1.17 8-2.67 11.58-3.96 6.36-2.35 6.42-4.55 7.8-4.55.51 0 1.03.84 1.56 2.08A44.54 44.54 0 0054.2 14.5c.92.97 1.5 1.17 2.16 1.17 1.1 0 1.23-1.17 1.87-5.98.66-4.63.72-5.72.72-9.17 0-2.86-.58-3.9-.58-5.46 0-.26.26-.33.58-.33 1.83 0 2.92.52 9.57.52 1.93 0 5.45-.52 8.82-.97 8.72-1.17 12.03.19 12.03-2.01 0-1.9-2.14-3.25-7.46-6.32-4.75-2.72-8.2-3.17-9.44-3.89-.4-.26-.45-.39-.45-.65 0-.2.14-.4.32-.58 2.02-2.02 8-7.22 8-9.81 0-.99-.45-1.38-1.3-1.38-.71 0-3.24.4-6.63.4-2.14 0-5.66 0-5.66-.98 0-.78 1.31-1.43 4.56-6.1 1.75-2.54 2.53-4.94 2.53-6.05 0-1.36-.45-2.41-1.23-2.41zM25.29-30.36c8.33 0 15.67 6.11 15.67 6.95 0 .2-.06.33-.6.33-1.62 0-9.15-3.31-12.33-3.31-.52 0-.91.2-.91.78 0 1.17.7 1.56 4.28 2.53 7.34 2.02 11.77 2.08 11.7 3.25-.06.6-1.89.66-3.18.66-10.6 0-19.3-3.25-25.94-6.25-.78-.45-4.67-1.88-4.67-2.92 0-.79 2.86-.64 7.73-1.24 2.66-.33 5.45-.78 8.25-.78zm43.63-10.2c.18 0 .3.12.3.33 0 .9-1.87 3.51-4.08 6.5-2.86 3.82-10.2 13.26-14.43 13.26-.45 0-.6-.2-.6-.47 0-.97 4.04-4.6 5.34-5.9 1.04-1.05 1.1-1.7 1.1-2.14 0-.6-.5-1.38-1.23-1.38-.72 0-.97.27-1.95 1.17-1.75 1.63-3.83 5.86-5.52 7.61-.59.58-1.1 1.11-1.43 1.11-.4 0-.64-.26-.64-.78 0-2.34 1.54-7.94 3.25-10.4 3.76-5.46 11.95-6.57 18.18-8.52.99-.33 1.38-.4 1.7-.4zm-2.35 12.94c2.14 0 2.08.18 5.06.18 1.24 0 1.9-.06 2.74-.06.39 0 1.17 0 1.17.45 0 .72-3.06 4.03-4.48 5.02-2.08 1.36-3.85 2.08-5.92 2.08-.58 0-6.57-.78-6.57-1.36 0-.66 3.9-4.24 5.14-5.53.72-.79 1.7-.79 2.86-.79zM36.41-47.25c1.42 0 8.51 10.6 8.51 16.25 0 .78-.53 5.97-1.17 5.97-.72 0-1.63-1.63-5.86-5.27a8.9 8.9 0 01-2.98-6.5c0-1.15.32-10.45 1.5-10.45zM24.38-10.33c-2.15 0-2.08-.26-5.07-.26-1.25 0-1.89.06-2.73.06-.4 0-1.17 0-1.17-.45 0-.72 2.98-4.04 4.42-5 2.08-1.38 3.37-2.08 5.45-2.08.6 0 7.03.9 7.03 1.48 0 .66-3.84 4.16-5.08 5.47-.71.78-1.68.78-2.86.78zm-2.54 13c-.2 0-.32-.14-.32-.33 0-.9 1.89-3.51 4.09-6.5C28.47-8 35.8-17.42 40.05-17.42c.45 0 .58.2.58.45 0 .99-4.1 4.75-5.4 6.05-1.04 1.04-1.1 1.69-1.1 2.14 0 .6.51 1.37 1.23 1.37s.97-.26 1.95-1.17c1.75-1.62 3.9-6.44 5.6-8.19.57-.59 1.23-.92 1.54-.92.4 0 .66.27.66.78 0 2.35-1.9 8.07-3.58 10.54-3.76 5.46-11.76 6.7-18 8.65-.97.31-1.36.4-1.69.4zM54.41 9.3c-1.57 0-8.58-10.6-8.58-16.25 0-.78.78-6.05 1.42-6.05.72 0 .92 1.9 6.1 5.6 2.09 1.48 2.56 5.2 2.56 7.4 0 1.17-.33 9.3-1.5 9.3zM65.45-7.55c-7.22 0-16.3-6.03-16.3-7.2 0-.33.18-.45.7-.45 1.63 0 9.7 3.7 12.87 3.7.53 0 .92-.2.92-.78 0-1.17-.78-1.69-4.3-2.53-3.04-.72-11.89-2.1-11.82-3.25.06-.6 1.89-.66 3.18-.66 10.6 0 19.44 3.25 26.07 6.24.78.45 4.67 1.89 4.67 2.92 0 .78-2.86.65-7.74 1.25-2.65.31-5.45.76-8.25.76zm0 0"/></symbol><symbol overflow="visible" id="74a89d91c"><path d="M18.27-45.95c.84 0 3.18 1.36 5.65 2.26 5.52 2.02 8.4 2.55 11.9 4.03 5.71 2.47 6.24 4.43 6.95 4.43 1.62 0 1.62-5.13 9.23-13.85 2.2-2.53 3.38-4.48 5.06-4.48 1.05 0 1.25 1.44 1.38 2.53.39 3.72 1.23 7.55 1.23 11.31 0 3.97-.65 5.27-.65 6.5 0 .4.2.6.65.6 1.11 0 3.44-.99 7.74-.99 4.42 0 8.84.66 13.26 1.17 5.19.6 8.77-.33 8.77 1.38 0 1.93-2.14 3.04-4.1 4.4-7.4 5.2-12.87 5.54-12.93 7.1-.07 1.42 8.18 7.34 8.18 10.6 0 .71-.3 1.16-1.09 1.16-3 0-2.4-.33-8.52-.33-2.01 0-4.03.33-4.03.79 0 1.95 6.9 8.3 6.9 13.06 0 1.56-.15 2.28-1.57 2.28-.78 0-2.01-.84-4.94-2.16-2.6-1.15-8-2.65-11.57-3.95-6.36-2.34-6.44-4.56-7.8-4.56-.52 0-.66.6-1.24 1.83a52.71 52.71 0 01-10.65 15.28c-.9.97-1.5 1.15-2.14 1.15-1.11 0-1.25-1.15-1.9-5.96a49.75 49.75 0 01-.71-9.18c0-2.86.6-3.89.6-5.45 0-.27-.27-.33-.6-.33-1.81 0-2.35.97-8.97.97-1.95 0-5.45-.33-8.84-.78-8.7-1.17-12.02.2-12.02-2.02 0-1.87 2.2-2.78 7.47-5.9 5.98-3.58 8.39-4.03 9.62-4.75.4-.25.46-.4.46-.64 0-.2-.13-.4-.33-.6-2.02-2.01-8.4-7.14-8.4-9.75 0-.97.48-1.36 1.32-1.36.7 0 3.25.4 6.63.4.71 0 5.78 0 5.78-.99 0-.78-1.24-2.08-4.49-6.75-1.75-2.55-2.53-4.94-2.53-6.05 0-1.37.45-2.4 1.24-2.4zm47.3 15.6c-7.2 0-16.55 6.1-16.55 7.27 0 .33.18.45.7.45 1.62 0 9.95-3.76 13.14-3.76.52 0 .9.2.9.78 0 1.17-.78 1.69-4.3 2.53-3.04.72-11.76 2.08-11.68 3.25.06.6 1.88.66 3.17.66 10.61 0 19.32-3.25 25.94-6.25.78-.45 4.69-1.88 4.69-2.92 0-.79-2.86-.64-7.74-1.24-2.67-.33-5.47-.78-8.26-.78zm-43.6-10.21c-.19 0-.33.12-.33.33 0 .9 1.9 3.51 4.1 6.5 2.85 3.82 10.2 13.26 14.43 13.26.45 0 .58-.2.58-.47 0-.97-4.6-4.01-5.9-5.33-1.05-1.03-1.12-1.68-1.12-2.14 0-.57.52-1.36 1.24-1.36s.97.25 1.95 1.18c1.75 1.62 4.75 5.57 6.44 7.34.58.58 1.23.9 1.56.9.4 0 .64-.26.64-.77 0-2.35-2.53-7.47-4.22-9.94-3.78-5.47-11.43-7.16-17.68-9.11a5.23 5.23 0 00-1.7-.4zm2.34 12.94c-2.14 0-2.08.18-5.08.18-1.23 0-1.87-.06-2.71-.06-.4 0-1.18 0-1.18.45 0 .72 3.05 4.03 4.49 5.02 2.08 1.36 3.83 2.08 5.9 2.08.6 0 6.58-.78 6.58-1.36 0-.66-3.9-4.24-5.14-5.53-.72-.79-1.69-.79-2.86-.79zm30.16-19.63c-1.42 0-8.58 10.6-8.58 16.25 0 .78.45 7.02 1.11 7.02.7 0 1.23-1.7 6.44-5.4 2.08-1.5 2.53-5.2 2.53-7.42 0-1.15-.33-10.45-1.5-10.45zM66.5-10.53c2.14 0 2.08-.27 5.06-.27 1.24 0 1.9.08 2.74.08.39 0 1.17 0 1.17-.47 0-.7-3-3.83-4.42-4.8-2.08-1.37-3.38-2.07-5.47-2.07-.58 0-7.02.9-7.02 1.48 0 .66 3.85 3.97 5.08 5.27.7.78 1.69.78 2.86.78zm2.53 13.2c.19 0 .33-.14.33-.33 0-.9-1.9-3.51-4.1-6.5C62.42-8 55.07-17.42 50.84-17.42c-.45 0-.58.2-.58.45 0 .99 4.55 3.97 5.84 5.27 1.05 1.04 1.11 1.68 1.11 2.14 0 .6-.51 1.37-1.23 1.37s-.99-.26-1.95-1.17c-1.75-1.62-4.82-5.66-6.5-7.4-.58-.6-1.24-.93-1.57-.93-.39 0-.64.27-.64.78 0 2.35 2.66 7.61 4.35 10.08C53.44-1.36 61.09.33 67.34 2.28c.97.31 1.36.4 1.7.4zM36.47 9.3c1.56 0 8.58-10.6 8.58-16.25 0-.78-.78-7.22-1.44-7.22-.7 0-.9 1.89-6.11 5.6-2.08 1.5-2.53 5.2-2.53 7.4 0 1.17.33 10.47 1.5 10.47zM25.42-7.55c7.2 0 16.31-6.03 16.31-7.2 0-.33-.2-.45-.71-.45-1.63 0-9.7 3.7-12.88 3.7-.52 0-.9-.2-.9-.78 0-1.17.78-1.69 4.3-2.53 3.04-.72 11.88-2.1 11.82-3.25-.06-.6-1.9-.66-3.19-.66-10.6 0-19.44 3.25-26.06 6.24-.78.45-4.69 1.89-4.69 2.92 0 .78 2.86.65 7.74 1.25 2.67.31 5.46.76 8.26.76zm0 0"/></symbol><symbol overflow="visible" id="74a89d91d"><path d="M54.6-42.44c3.38 0 11.45 1.03 11.45 3.17 0 1.05-1.57 2.94-1.57 3.79 0 .7.91 1.03 1.57 1.03 2.33 0 4.8-1.24 6.8-1.24.8 0 1 .78 1 1.83 0 3.77-2.93 7.98-9.7 10.98-2.53 1.1-3.84 1.1-3.84 1.57 0 1.23 3.06 1.54 7.67 2.33 3.85.65 8.4 1.56 10.86 4.8a8.86 8.86 0 011.83 5.09c0 2.2-2.67 2.14-2.67 3.04 0 .52 1.3 2.02 1.81 2.67C82.3-.27 83.66 2.2 83.66 5c0 1.63-.6 4.94-2.68 4.94-.9 0-1.75-2.27-5.57-6.42-.53-.54-.78-.85-1.18-.85-.84 0-.14 5-3 5-4.21 0-9.54-.84-13.3-4.69-2.68-2.65-3.34-7.2-3.79-8.64-.12-.39-.39-.84-.78-.84-.4 0-.4.33-.4.58 0 .39.85 3.06.85 5.2 0 3.84-3.37 9.24-6.62 9.24-.9 0-1.17-.72-1.36-1.75-.4-2.02-.2-5.02-1.56-5.02-.91 0-1.9 5.8-3.77 5.8-1.77 0-5.92-2.35-8.72-4.96-3.76-3.43-5.6-7.59-5.6-12.92 0-4.69 2.95-8.6 6.9-10.98.98-.6 1.62-.78 1.62-1.32 0-1.03-1.36-1.62-3.95-6.8-.27-.54-.6-1.12-1.23-1.12-.6 0-1.77.33-2.8.72-4.49 1.63-8.78 3.56-8.78 4.88 0 .39 5.39.12 5.39 5.45 0 5.66-2.66 10.53-6.42 14.3-1.05 1.04-1.77 1.37-2.22 1.37-.46 0-.52-.65-.52-1.44 0-.71.13-1.89.13-2.34 0-.33-.13-.45-.25-.45-.33 0-.66.39-1.18 2.08-.32 1.04-.65 3.39-1.43 4.87C10.66.4 9.69.84 9.04.84 7.6.84 7.01-2.59 7.01-6.05c0-1.68 0-2.26-.4-2.26-.18 0-.45 1.03-1.03 1.03-.78 0-1.95-2.8-1.95-5.45 0-5.99 4.22-12.82 7.22-12.82 1.56 0 2.47.4 2.98.4.97 0 .72-.07 1.7-1.12 3.18-3.56 6.7-4.87 10.73-6.36.7-.32 2.14-.65 2.14-1.37 0-1.1-2.41-5.72-4.3-8.9-2.02-3.44-3.17-3.9-3.17-5 0-.66 1.54-2.41 2.98-2.41.64 0 1.3.2 1.95.39 5.13 1.5 11.96 3.37 11.96 9.62 0 3.58-1.69 5.6-3.97 7.22-.4.25-.4.45-.4.7 0 .93 3 5.66 3.91 5.66 1.05 0-.18-3.5 2.29-7.53 3.04-5.02 9.09-8.19 14.93-8.19zm-.91 4.22c-3.7 0-7.86 1.17-10.47 3.77-1.3 1.3-2.78 4.87-2.78 7.01 0 3.46.51 3.97 3.37 5.66 2.6 1.56 6.5 2.34 6.5 3.12 0 1.57-1.3 2.8-2.8 2.8-2.67 0-7.34-4.3-9.56-4.3-2.72 0-8.3 3.46-8.3 7.68 0 5.59 2.91 10.2 8.18 14.68.9.78 1.75 1.24 2.34 1.24 1.36 0 2.08-4.61 5.14-4.61 3.77 0 2.92 6.37 3.63 6.37.92 0 1.44-1.89 1.44-3.64 0-.9 0-1.56-.33-3.58-.52-3.3-1.03-4.87-1.03-8.06 0-1.75.9-2.01 1.8-2.01 2.15 0 4.82 1.23 6.24 4.42 2.35 5.08 2.1 7.01 5.86 9.95a19.48 19.48 0 008.06 2.33c.79 0 .64-2.02 1.43-4.03.45-1.16 1.76-1.42 2.67-1.42.72 0 1.23.32 3.05 2.28 1.5 1.48 1.76 1.94 1.95 1.94.12 0 .2 0 .2-.2 0-1.37-2.4-4.48-3.19-5.38-3.25-3.78-4.23-3.13-4.23-3.97 0-.72.45-1.38 1.44-1.9.97-.5 2.53-1.5 2.53-2.34 0-4.4-14.81-5.84-17.75-6.3-2.66-.38-5.33-2.66-5.33-5.59 0-1.42.6-1.89 2.55-2.14 2.98-.45 13.76-2.53 13.76-7.01 0-.33-.25-.53-.9-.53-.64 0-1.63.14-3.25.14-3.83 0-5.97-.2-5.97-1.9 0-.65.64-2.28.64-2.85 0-1.36-5.72-1.63-6.9-1.63zM16.3-21.7c-.78 0-1.36.25-1.36 1.1 0 1.5.07 2.07.07 4.48 0 1.1-.91 1.82-1.96 1.82-.78 0-.84-.84-.84-1.37 0-2.2.6-4.28.6-5.46 0-.9-1-1.23-1.84-1.23-2.34 0-4.03 5.4-4.03 9.1 0 1.17.52 2.73.99 2.73.12 0 1.3-1.17 1.93-1.17.27 0 .46.2.46.72 0 .71-.19 3.37-.19 4.75 0 .3 0 1.23.27 1.23.18 0 .51-.45.7-.84 1.23-2.41 3.39-5.41 5.2-5.41 1.24 0 .9 1.83 1.17 1.83.72 0 2.68-3.58 2.68-7.35 0-1.95-1.57-4.93-3.85-4.93zm12.22-23.22c-.19 0-.33.14-.33.6 0 .5.99 2.26 1.83 4.21 1.3 3 1.81 4.88 2.34 4.88 1.04 0 1.94-1.57 1.94-3.2 0-4.09-4.4-6.5-5.78-6.5zm0 0"/></symbol><symbol overflow="visible" id="74a89d91e"><path d="M3.83 0v-5.95H6.2v-.82H.45v.82h2.4V0zm0 0"/></symbol><symbol overflow="visible" id="74a89d91f"><path d="M5.75-2.23v-.43c0-1.6-.9-2.51-2.42-2.51S.87-4.16.87-2.48c0 1.71.91 2.62 2.5 2.62 1.43 0 2.07-.56 2.29-1.52l-.9-.09c-.18.61-.59.9-1.35.9-.94 0-1.52-.54-1.58-1.66zm-2.4-2.2c.93 0 1.43.5 1.48 1.55H1.84c.08-1.07.6-1.56 1.5-1.56zm0 0"/></symbol><symbol overflow="visible" id="74a89d91g"><path d="M1.83 0l1.42-2h.06l1.46 2H5.8L4-2.53l1.78-2.49H4.8L3.42-3.08h-.08l-1.4-1.94H.89l1.78 2.49L.84 0zm0 0"/></symbol><symbol overflow="visible" id="74a89d91h"><path d="M5.52-4.25v-.77H3.17v-1.56h-.81l-.14 1.56H.75v.77h1.47v2.4c0 1.3.48 1.94 1.84 1.94C4.6.1 5.14 0 5.55-.14L5.4-.91c-.32.13-.72.2-1.13.2-.8 0-1.1-.37-1.1-1.23v-2.31zm0 0"/></symbol><symbol overflow="visible" id="74a89d91i"><path d="M3.33-3.42c.47 0 .8-.27.8-.8 0-.51-.33-.8-.8-.8-.47 0-.8.29-.8.8 0 .53.33.8.8.8zm0 3.5c.47 0 .8-.27.8-.78 0-.53-.33-.82-.8-.82-.47 0-.8.29-.8.82 0 .51.33.78.8.78zm0 0"/></symbol><symbol overflow="visible" id="74a89d91k"><path d="M3.9.14c1.48 0 2.18-.98 2.18-2.64 0-1.67-.7-2.66-2.17-2.66-.91 0-1.49.41-1.79 1h-.06v-2.98h-.95V0h.81l.11-.9h.06c.29.63.82 1.04 1.82 1.04zm-.32-.8c-1.08 0-1.55-.8-1.55-1.84 0-1.06.47-1.86 1.55-1.86 1.1 0 1.51.61 1.51 1.86S4.64-.66 3.58-.66zm0 0"/></symbol><symbol overflow="visible" id="74a89d91l"><path d="M2.84.14C3.8.14 4.33-.26 4.6-.9h.07L4.8 0h.76v-7.14h-.95v2.95h-.08c-.28-.6-.86-.97-1.67-.97-1.48 0-2.27.99-2.27 2.64C.6-.84 1.36.14 2.84.14zm.22-.8c-.98 0-1.48-.59-1.48-1.84s.5-1.86 1.48-1.86c1.13 0 1.58.8 1.58 1.86S4.2-.66 3.06-.66zm0 0"/></symbol><symbol overflow="visible" id="74a89d91m"><path d="M3.34.14c1.43 0 2.13-.66 2.25-1.78l-.89-.1c-.1.7-.5 1.08-1.34 1.08-1.03 0-1.52-.64-1.52-1.84 0-1.23.47-1.86 1.52-1.86.84 0 1.23.36 1.34 1.08l.9-.1c-.13-1.09-.82-1.78-2.26-1.78-1.56 0-2.46.97-2.46 2.66 0 1.66.9 2.64 2.46 2.64zm0 0"/></symbol><symbol overflow="visible" id="74a89d91n"><path d="M2.83.14c.94 0 1.5-.39 1.81-.95h.08l.1.81h.76v-3.38c0-1.23-.69-1.8-2.13-1.8-1.43 0-2.03.65-2.18 1.6l.93.1c.11-.6.44-.93 1.22-.93.85 0 1.22.32 1.22 1.04v.34l-1.81.2C1.6-2.7 1.1-2.17 1.1-1.28c0 .92.64 1.42 1.72 1.42zm.25-.77c-.67 0-1.02-.28-1.02-.74 0-.44.28-.72 1-.82l1.58-.19v.41c0 .8-.6 1.34-1.56 1.34zm0 0"/></symbol><symbol overflow="visible" id="74a89d91o"><path d="M5.95-6.77H1.1V0h.99v-2.92H5.3v-.77H2.08v-2.26h3.87zm0 0"/></symbol><symbol overflow="visible" id="74a89d91p"><path d="M2.73.14c.9 0 1.43-.45 1.74-1.08h.06l.13.94h.8v-5.02h-.94v2.7c0 .98-.57 1.62-1.46 1.62-.75 0-1.1-.4-1.1-1.22v-3.1h-.93v3.32c0 1.17.55 1.84 1.7 1.84zm0 0"/></symbol><symbol overflow="visible" id="74a89d91q"><path d="M5.08-5.16c-.94 0-1.58.43-1.9 1.3h-.09l-.07-1.16H1.05v.77h1.1v3.48H.96V0h3.96v-.77H3.1v-1.46c0-1.36.6-2.05 1.83-2.05.4 0 .76.08 1.1.17l.15-.87c-.33-.11-.7-.18-1.11-.18zm0 0"/></symbol><symbol overflow="visible" id="74a89d91r"><path d="M3.33.14c1.9 0 2.76-1.27 2.76-3.52 0-2.26-.86-3.53-2.76-3.53S.58-5.64.58-3.37c0 2.25.86 3.51 2.75 3.51zM3.3-.67c-1.25 0-1.73-.95-1.73-2.7 0-1.77.5-2.72 1.75-2.72s1.75.95 1.75 2.71c0 1.75-.5 2.7-1.77 2.7zm0 0"/></symbol><symbol overflow="visible" id="74a89d91s"><path d="M2.16 0v-2.67c0-.99.59-1.63 1.46-1.63.74 0 1.07.38 1.07 1.22V0h.95v-3.31c0-1.2-.56-1.85-1.67-1.85-.92 0-1.49.46-1.77 1.08h-.06l-.12-.94H1.2V0zm0 0"/></symbol><symbol overflow="visible" id="74a89d91t"><path d="M1.63 0v-2.9c0-.8.15-1.4.71-1.4.41 0 .55.3.55.88V0h.95v-2.9c0-.8.18-1.4.72-1.4.4 0 .57.3.57.88V0h.95v-3.63c0-.92-.28-1.53-1.11-1.53-.63 0-.95.41-1.1.9h-.06c-.1-.52-.44-.9-1.08-.9-.6 0-.93.41-1.06.9H1.6l-.23-.76H.67V0zm0 0"/></symbol><symbol overflow="visible" id="74a89d91u"><path d="M3.36.16c1.4 0 2.2-.6 2.2-1.57 0-.89-.54-1.22-1.47-1.39L3-3c-.67-.14-.86-.33-.86-.73 0-.5.4-.74 1.17-.74.83 0 1.19.27 1.27.8l.9-.05c-.12-1-.8-1.47-2.17-1.47-1.34 0-2.1.53-2.1 1.5 0 .81.45 1.22 1.52 1.44l1.04.2c.56.11.87.24.87.72 0 .52-.45.78-1.28.78-.95 0-1.36-.28-1.42-.87l-.9.06C1.07-.36 1.8.16 3.35.16zm0 0"/></symbol><symbol overflow="visible" id="74a89d91v"><path d="M1.45-2.95c0 2.56 1.08 4.37 3.67 4.84l.11-.67C3.28.86 2.43-.75 2.43-2.95s.85-3.82 2.8-4.16l-.1-.69c-2.6.49-3.68 2.3-3.68 4.85zm0 0"/></symbol><symbol overflow="visible" id="74a89d91w"><path d="M2.06 1.9V-.84h.05c.28.58.8.97 1.77.97 1.5 0 2.2-.98 2.2-2.66 0-1.65-.7-2.64-2.19-2.64-.97 0-1.5.44-1.78 1.05h-.08l-.1-.9H1.1v6.9zm1.5-2.56c-1.06 0-1.53-.8-1.53-1.86 0-1.04.47-1.84 1.53-1.84 1.11 0 1.53.61 1.53 1.84 0 1.27-.42 1.86-1.53 1.86zm0 0"/></symbol><symbol overflow="visible" id="74a89d91x"><path d="M3.33.14c1.62 0 2.5-.95 2.5-2.66 0-1.68-.88-2.64-2.5-2.64-1.63 0-2.5.96-2.5 2.64 0 1.7.87 2.66 2.5 2.66zm0-.77c-1.06 0-1.52-.6-1.52-1.89 0-1.28.46-1.87 1.52-1.87 1.08 0 1.53.6 1.53 1.87 0 1.29-.45 1.9-1.53 1.9zm0 0"/></symbol><symbol overflow="visible" id="74a89d91y"><path d="M3.92-7.14H1.36v.76h1.6v5.61H1.15V0H5.7v-.77H3.92zm0 0"/></symbol><symbol overflow="visible" id="74a89d91z"><path d="M2.44 0l.87-3.31h.06L4.25 0H5.3l1.03-5.02h-.88l-.73 3.94h-.08L3.77-4.4h-.85l-.87 3.33h-.08l-.75-3.94H.34L1.36 0zm0 0"/></symbol><symbol overflow="visible" id="74a89d91A"><path d="M3.34-1.56c-.54 0-.82.31-.82.86 0 .5.3.78.76.78-.08.4-.34.95-.65 1.39l.53.25c.57-.67 1-1.67 1-2.36 0-.6-.3-.92-.82-.92zm0 0"/></symbol><symbol overflow="visible" id="74a89d91B"><path d="M4.22-6.77h-.86l-2.03.7v.87c.64-.17 1.26-.38 1.89-.55v4.9H1.03V0h4.9v-.86H4.21zm0 0"/></symbol><symbol overflow="visible" id="74a89d91C"><path d="M5.1 0v-1.47H6v-.81h-.9v-4.49H3.8L.48-2.23v.76h3.66V0zM1.5-2.33l2.6-3.53h.04v3.58H1.5zm0 0"/></symbol><symbol overflow="visible" id="74a89d91D"><path d="M1.45-7.1c1.96.33 2.8 1.94 2.8 4.15 0 2.2-.84 3.8-2.8 4.17l.11.67c2.58-.47 3.67-2.28 3.67-4.84 0-2.55-1.09-4.36-3.67-4.85zm0 0"/></symbol></defs><g fill="#fff"><use xlink:href="#74a89d91a" x="121.055" y="153.5"/><use xlink:href="#74a89d91b" x="209" y="153.5"/><use xlink:href="#74a89d91c" x="300" y="153.5"/><use xlink:href="#74a89d91d" x="391" y="153.5"/><use xlink:href="#74a89d91e" x="266.6667" y="252"/><use xlink:href="#74a89d91f" x="273.3337" y="252"/><use xlink:href="#74a89d91g" x="280.0007" y="252"/><use xlink:href="#74a89d91h" x="286.6677" y="252"/><use xlink:href="#74a89d91i" x="293.3347" y="252"/><use xlink:href="#74a89d91j" x="300.0017" y="252"/><use xlink:href="#74a89d91k" x="306.6687" y="252"/><use xlink:href="#74a89d91l" x="313.3357" y="252"/><use xlink:href="#74a89d91m" x="320.0027" y="252"/><use xlink:href="#74a89d91n" x="326.6697" y="252"/><g><use xlink:href="#74a89d91o" x="146.6667" y="266"/><use xlink:href="#74a89d91f" x="153.3337" y="266"/><use xlink:href="#74a89d91n" x="160.0007" y="266"/><use xlink:href="#74a89d91h" x="166.6677" y="266"/><use xlink:href="#74a89d91p" x="173.3347" y="266"/><use xlink:href="#74a89d91q" x="180.0017" y="266"/><use xlink:href="#74a89d91f" x="186.6687" y="266"/><use xlink:href="#74a89d91i" x="193.3357" y="266"/><use xlink:href="#74a89d91j" x="200.0027" y="266"/><use xlink:href="#74a89d91r" x="206.6697" y="266"/><use xlink:href="#74a89d91q" x="213.3367" y="266"/><use xlink:href="#74a89d91s" x="220.0037" y="266"/><use xlink:href="#74a89d91n" x="226.6707" y="266"/><use xlink:href="#74a89d91t" x="233.3377" y="266"/><use xlink:href="#74a89d91f" x="240.0047" y="266"/><use xlink:href="#74a89d91s" x="246.6717" y="266"/><use xlink:href="#74a89d91h" x="253.3387" y="266"/><use xlink:href="#74a89d91u" x="260.0057" y="266"/><use xlink:href="#74a89d91j" x="266.6727" y="266"/><use xlink:href="#74a89d91v" x="273.3397" y="266"/><use xlink:href="#74a89d91t" x="280.0067" y="266"/><use xlink:href="#74a89d91n" x="286.6737" y="266"/><use xlink:href="#74a89d91w" x="293.3407" y="266"/><use xlink:href="#74a89d91w" x="300.0077" y="266"/><use xlink:href="#74a89d91f" x="306.6747" y="266"/><use xlink:href="#74a89d91l" x="313.3417" y="266"/><use xlink:href="#74a89d91j" x="320.0087" y="266"/><use xlink:href="#74a89d91h" x="326.6757" y="266"/><use xlink:href="#74a89d91x" x="333.3427" y="266"/><use xlink:href="#74a89d91j" x="340.0097" y="266"/><use xlink:href="#74a89d91y" x="346.6767" y="266"/><use xlink:href="#74a89d91x" x="353.3437" y="266"/><use xlink:href="#74a89d91z" x="360.0107" y="266"/><use xlink:href="#74a89d91f" x="366.6777" y="266"/><use xlink:href="#74a89d91q" x="373.3447" y="266"/><use xlink:href="#74a89d91m" x="380.0117" y="266"/><use xlink:href="#74a89d91n" x="386.6787" y="266"/><use xlink:href="#74a89d91u" x="393.3457" y="266"/><use xlink:href="#74a89d91f" x="400.0127" y="266"/><use xlink:href="#74a89d91A" x="406.6797" y="266"/><use xlink:href="#74a89d91j" x="413.3467" y="266"/><use xlink:href="#74a89d91u" x="420.0137" y="266"/><use xlink:href="#74a89d91u" x="426.6807" y="266"/><use xlink:href="#74a89d91B" x="433.3477" y="266"/><use xlink:href="#74a89d91C" x="440.0147" y="266"/><use xlink:href="#74a89d91D" x="446.6817" y="266"/></g></g></svg>