<?xml version='1.0' encoding='UTF-8'?>
<svg xmlns="http://www.w3.org/2000/svg" xmlns:xlink="http://www.w3.org/1999/xlink" width="200px" height="340px" viewBox="0 0 200 340" x="0px" y="0px" enable-background="new 0 0 200 340"><defs><symbol overflow="visible" id="0c5f4006a"><path d="M2.656-24.5c-.765 0-.937.766-.937 1.016 0 .203.093.25.937.343 2.063.25 3.406 1.157 3.438 2.11.062 1.39.093 3.36.093 5.39 0 6.157-.125 11.375-.343 13.407-.11.906-1.266 1.328-2.407 1.39-.562.031-.703.672-.703.906 0 .141.094.22.235.22.36 0 .781-.22 4.172-.22 2.343 0 2.796.079 3.218.079.422 0 .813-.032 1.079-.172.28-.14.421-.563.421-.813 0-.14-.093-.203-.234-.203-.11 0-.36.031-.672.031-2.062 0-2.515-.593-2.594-1.468-.14-2.313-.28-11.72-.28-16.172 0-.703 0-1.157.187-1.157.093 0 .312.172.593.532 3.282 4.015 8.922 9.656 12.907 13.718 2.672 2.688 3.75 4.625 4.906 6.047.14.188.312.282.453.282.594 0 .813-.204.813-1.11 0-1.015-.11-2.703-.11-6.406 0-4.906.203-9.531.516-13.906.14-1.844 1.015-2.266 2.875-2.578.422-.078.765-.5.765-.953 0-.172-.062-.25-.234-.25-.25 0-2.14.218-4.969.218-2.14 0-2.703-.14-3.093-.14-.625 0-.735.672-.735.843 0 .172 0 .235.328.282 2.297.234 2.719.593 2.797 1.922.063 1.218.063 2.515.063 3.78 0 1.891-.063 5.25-.063 7.97 0 .984 0 1.968.031 2.984 0 .344-.03.516-.172.516-.14 0-.39-.204-.53-.344-3.36-3.563-10.595-10.672-14.735-15.532-1.75-2.03-2.031-2.359-2.797-2.359-1.781 0-3.703-.203-5.219-.203zm0 0"/></symbol><symbol overflow="visible" id="0c5f4006b"><path d="M9.453-16.375c-5.328 0-8.375 4.719-8.375 9.313C1.078-3.22 3.297.39 7.734.39c3.157 0 5.985-2.282 5.985-4.375 0-.532-.281-.704-.422-.704-.063 0-.11.032-.14.11-.876 1.953-2.595 2.656-4.063 2.656-3.219 0-5.281-3.016-5.281-6.406 0-.766 0-1.578.5-1.578.312 0 .734.031 1.25.031 2.796 0 7.593-.281 8.265-.938.172-.171.172-.39.172-.593 0-2.11-1.781-4.969-4.547-4.969zm-2.937 5.563c-2.313 0-2.454-.032-2.454-.313 0-1.297 1.579-3.719 3.47-3.719 1.984 0 3.359 1.578 3.359 2.985 0 .968-2.907 1.046-4.375 1.046zm0 0"/></symbol><symbol overflow="visible" id="0c5f4006c"><path d="M9.203-1.688C9.281 0 10.25.563 11.266.563c2.062 0 3.859-1.859 3.859-3.078 0-.25-.219-.359-.313-.359-.359 0-1.062 1.375-2.109 1.375-.797 0-1.015-.875-1.015-2.11 0-1.53.624-6.828.624-9.453 0-1.812-2.234-3.453-4.046-3.453-1.829 0-6.547 2.453-6.547 4.297 0 .281.062.813.562.813.688 0 1.469-.422 1.813-.875.734-.985.078-2.485 2.281-2.485 1.844 0 3.14 1.157 3.14 4.657 0 .875-.062 1.703-.14 2.093-3.531.625-8.188 1.47-8.188 4.657 0 2.625 1.407 3.78 3.25 3.78 1.516 0 3.266-.765 4.766-2.108zm.078-4.609c0 .766-.078 3.281-.11 3.781-1.233.875-2.202 1.188-2.937 1.188-1.687 0-2.109-1.5-2.109-2.734 0-2.172 3.953-2.907 5.047-2.907.11 0 .11.032.11.672zm0 0"/></symbol><symbol overflow="visible" id="0c5f4006d"><path d="M10.36-16.344c-5.11 0-9.032 4.407-9.032 9.282C1.328-3.048 3.703.452 8.36.452c1.938 0 4.704-.984 5.704-2.969.218-.421.359-.843.359-1.328 0-.281-.078-.5-.36-.5-.03 0-.093.032-.124.11-1.235 1.859-2.672 2.546-4.032 2.546-3.64 0-5.844-3.843-5.844-7.406 0-2.765 1.36-5.437 4.157-5.437 1.406 0 3.015.781 4.375 1.86.328.25.422.28.531.28.672 0 1.578-1.328 1.578-2.171 0-.985-2.562-1.782-4.344-1.782zm0 0"/></symbol><symbol overflow="visible" id="0c5f4006e"><path d="M16.281-28.563c-.36 0-.812.672-3.922.985-.671.062-1.546.25-1.546 1.015 0 .172.078.282.25.282.25 0 .515-.032 1.468-.032.594 0 .703.063.735.313.171.734.39 5.203.39 8.11 0 2.453-.047 2.484-.187 2.484-.203 0-.875-.485-2.828-.485-5.25 0-9.516 4.235-9.516 8.891 0 3.531 2.203 7.313 5.984 7.313 3.141 0 5.954-2.376 6.188-2.376.078 0 .078.032.078.172 0 .704-.281 2.032-.281 2.485 0 .344.281.453.453.453.203 0 .594-.14 1.328-.313C16.172.422 17.75.11 18.265-.14c.563-.28.813-.796.813-1.125 0-.14-.078-.203-.14-.203-.313 0-1.094.453-2.25.453-.485 0-.625-.14-.657-.312-.14-.703-.218-2.797-.218-5.563 0-5.562.28-13.546.64-18.484.14-2 .281-2.344.281-2.734 0-.282-.25-.453-.453-.453zM6.016-13.438c.703-.53 1.578-.734 2.484-.734 1.86 0 4 .938 4.688 2.688.14.359.14.671.14 2.875 0 1.921-.062 4.203-.14 5.64-1.36.797-2.626 1.11-3.672 1.11-3.5 0-5.594-3.563-5.594-6.75 0-1.922.703-3.782 2.094-4.829zm0 0"/></symbol><symbol overflow="visible" id="0c5f4006f"><path d="M6.406-16.734c-.343 0-.703.5-4.515 1.718-.344.11-.532.344-.532.735 0 .11.047.281.329.281 1.953.063 2.015.172 2.062.484.172 1.657.203 4.485.203 8.547 0 2.547-.11 3.844-1.61 4.297-.452.14-.53.531-.53.735 0 .109.078.218.187.218.344 0 1.078-.219 5.031-.219 1.657 0 2-.171 2-.765 0-.14-.031-.203-.25-.203-.594 0-1.531-.078-1.984-.25-.281-.11-.328-.203-.328-1.469.047-3.469.36-9.281.422-9.906.078-.703 2.343-1.61 3.671-1.61 2.813 0 3.047 3.22 3.047 6.407 0 2.453-.203 4.906-.453 5.812-.203.875-1.25 1.016-1.64 1.188-.422.171-.454.53-.454.765 0 .078.032.172.172.172.204 0 1.407-.234 3.391-.234.984 0 1.86.062 2.422.062.797 0 1.219-.203 1.219-.656 0-.313-.422-.14-1.985-.531C16-1.22 16-1.438 16-2.094c.031-2.422.344-4.594.344-7.219 0-1.812-.11-2.515-.11-2.874 0-.376 2.11-1.75 3.922-1.75 2.657 0 2.985 2.39 2.985 6 0 2.296-.188 4.75-.5 6.015-.203.844-1.047.984-1.641 1.156-.484.141-.531.625-.531.797 0 .078.047.172.14.172.36 0 .922-.203 3.547-.203 1.563 0 2.516.031 3.14.031.985 0 1.298-.203 1.298-.734 0-.11-.032-.172-.485-.203-.78-.078-2.109-.172-2.343-.313-.22-.11-.25-.218-.25-.672 0-1.546.422-5.5.422-8.015 0-3.078-.813-6.125-3.579-6.125-1.78 0-4.75 1.718-6.328 2.875-.422-1.86-1.968-2.985-3.156-2.985-1.438 0-3.594.985-5.172 1.938-.703.406-.844.515-.953.515-.094 0-.094-.062-.094-.25 0-.593.203-1.874.203-2.296 0-.22-.171-.5-.453-.5zm0 0"/></symbol><symbol overflow="visible" id="0c5f4006g"><path d="M6.266-25.438c-.985 0-1.782.938-1.782 1.813 0 .813.563 1.719 1.579 1.719.875 0 1.953-1.016 1.953-2 0-1.125-1.016-1.532-1.75-1.532zm.703 8.422c-.36 0-.782.563-4.594 1.97-.484.171-.688.515-.688.874 0 .203.094.281.344.281.203 0 .766-.109 1.469-.109.313 0 .531.031.563.203.109.531.28 2.172.28 9.078 0 2.578-.25 3.422-1.687 3.953-.625.235-.703.516-.703.829 0 .14.078.218.188.218.203 0 2.062-.312 4.515-.312.688 0 1.39.031 1.782.031.843 0 1.124-.453 1.124-.766 0-.218-.14-.218-.25-.218-1.406 0-2.062-.172-2.25-.344-.093-.11-.203-.281-.203-1.547.079-12.938.485-12.703.485-13.688 0-.234-.14-.453-.375-.453zm0 0"/></symbol><symbol overflow="visible" id="0c5f4006h"><path d="M2.219-8.047H1.125V0H2v-5.656l-.031-1.11h.015l.532 1.047L5.906 0h1.11v-8.047h-.891v5.531l.047 1.297h-.016l-.547-1.14zm0 0"/></symbol><symbol overflow="visible" id="0c5f4006i"><path d="M.64-2.688C.64-.843 1.688.126 3.079.126c.672 0 1.344-.14 2-.453L4.844-1a4.468 4.468 0 01-1.61.297c-.937 0-1.578-.563-1.64-1.86h3.531c.063-.296.078-.624.078-.921 0-1.282-.672-2.282-2.016-2.282-1.578 0-2.546 1.36-2.546 3.079zm2.47-2.28c.765 0 1.156.546 1.156 1.312 0 .125 0 .265-.016.406H1.61c.124-1.063.64-1.719 1.5-1.719zm0 0"/></symbol><symbol overflow="visible" id="0c5f4006j"><path d="M1.266-2.625C.796-2.328.5-1.844.5-1.265c0 .859.563 1.39 1.469 1.39.687 0 1.36-.313 1.937-.828l.172.765.797-.124c-.094-1.188-.094-1.672-.094-2.11v-1.437c0-1.485-.531-2.125-1.734-2.125-.89 0-1.672.375-2.297.906l.344.594c.593-.407 1.218-.672 1.781-.672.703 0 .969.406.969 1.593v.079c-1.297.109-2.094.296-2.578.609zm.156 1.25c0-.36.172-.594.36-.734.296-.188.827-.329 2.062-.422v1.125c-.594.5-1.188.781-1.688.781-.453 0-.734-.266-.734-.75zm0 0"/></symbol><symbol overflow="visible" id="0c5f4006k"><path d="M.64-2.656C.64-.937 1.579.125 3.11.125c.53 0 1.156-.14 1.734-.406L4.625-1c-.5.203-1 .297-1.39.297-1.032 0-1.641-.656-1.641-2.078 0-.875.25-1.5.656-1.844.203-.156.484-.297.875-.297.469 0 .875.188 1.297.578l.469-.547c-.422-.546-.954-.843-1.704-.843-1.53 0-2.546 1.25-2.546 3.078zm0 0"/></symbol><symbol overflow="visible" id="0c5f4006l"><path d="M.64-2.61C.64-1.03 1.532.173 2.782.173c.703 0 1.266-.36 1.766-.89l.156.765.797-.11c-.094-1.093-.094-1.578-.094-1.984v-6.969l-.953.032v3.609c-.39-.25-.75-.39-1.266-.39C1.47-5.766.626-4.157.642-2.61zm.97-.203c0-.703.156-1.374.562-1.78.234-.25.562-.36 1.047-.36a2.4 2.4 0 011.234.328v3.188c-.5.468-.984.796-1.516.796-.874 0-1.328-.921-1.328-2.171zm0 0"/></symbol><symbol overflow="visible" id="0c5f4006m"><path d="M1.672-5.688l-.797.11c.094 1.234.094 1.734.094 2.172V0h.953v-4.219c.484-.406 1.016-.734 1.578-.734.656 0 .875.453.875 1.562V0h.922v-3.75c0-.172 0-.328-.016-.469.485-.406 1.032-.734 1.594-.734.656 0 .86.453.86 1.562V0h.952v-3.75c0-1.313-.453-2.016-1.562-2.016-.781 0-1.375.329-1.969.922-.218-.61-.656-.922-1.406-.922-.766 0-1.344.313-1.906.875zm0 0"/></symbol><symbol overflow="visible" id="0c5f4006n"><path d="M.797-7.313c0 .36.25.594.625.594.406 0 .672-.265.672-.656 0-.375-.25-.61-.625-.61-.407 0-.672.266-.672.673zM1.89-5.609l-.938.015V0h.938zm0 0"/></symbol><symbol overflow="visible" id="0c5f4006p"><path d="M.781-5.953C.781-4.563 1.906-4.11 3-3.687c.984.359 1.89.671 1.89 1.624 0 .985-.937 1.36-1.843 1.36a4.28 4.28 0 01-2.172-.61L.5-.578c.594.437 1.578.75 2.531.75 1.516 0 2.86-.75 2.86-2.313 0-1.468-1.235-1.906-2.391-2.343-.922-.344-1.719-.657-1.719-1.547 0-1.016.985-1.297 1.782-1.297.656 0 1.312.156 1.796.328l.282-.734c-.547-.282-1.313-.47-2.032-.47-1.406 0-2.828.673-2.828 2.25zm0 0"/></symbol><symbol overflow="visible" id="0c5f4006q"><path d="M1.844-5.61l-.938.016v3.813c0 1.234.516 1.953 1.672 1.953.735 0 1.344-.328 1.89-.89l.173.765.78-.11c-.077-1.28-.093-1.656-.093-2.156v-3.39h-.953v4.187c-.516.469-1.031.781-1.563.781-.671 0-.968-.453-.968-1.484zm0 0"/></symbol><symbol overflow="visible" id="0c5f4006r"><path d="M1.89-9.016l-.952.032v8.796a6.441 6.441 0 002.046.313c1.891 0 2.704-1.484 2.704-3.016 0-1.625-.782-2.875-2.188-2.875-.64 0-1.156.313-1.61.797zm1.454 4.063c.875 0 1.375.844 1.375 2.14 0 .782-.14 1.344-.61 1.797-.156.172-.546.344-1.046.344-.438 0-.813-.047-1.172-.14V-4.22c.421-.422.937-.734 1.453-.734zm0 0"/></symbol><symbol overflow="visible" id="0c5f4006s"><path d="M1.89-9.016l-.937.032V0h.938v-4.375c.53-.36 1.109-.563 1.687-.563.735 0 .953.47.953 1.47V0h.938v-3.813c0-1.25-.453-1.953-1.657-1.953-.703 0-1.343.235-1.921.672zm0 0"/></symbol><symbol overflow="visible" id="0c5f4006t"><path d="M1.125-7.984V0h.953v-3.281c.297.031.625.047.844.047.265 0 .484-.016.703-.047L5.406 0h1.032a8.004 8.004 0 00-.36-.75L4.547-3.5c1.062-.422 1.656-1.281 1.656-2.36 0-1.515-1.172-2.312-3.094-2.312-.593 0-1.312.078-1.984.188zm2 .671c1.328 0 2.078.5 2.078 1.547 0 .735-.39 1.204-.922 1.454a3.66 3.66 0 01-1.375.25c-.297 0-.547-.032-.828-.047v-3.11a6.493 6.493 0 011.047-.093zm0 0"/></symbol><symbol overflow="visible" id="0c5f4006u"><path d="M1.172-.89c0 .25.062.437.187.578C.734.124.344.64.344 1.343c-.016 1.078.969 1.703 2.328 1.703 1.594 0 2.812-.797 2.812-2.11 0-1.109-.859-1.562-2.25-1.578-.734-.015-1.187-.062-1.187-.578 0-.203.094-.36.203-.531.156.016.328.031.5.031C4.203-1.719 5-2.64 5-3.766c0-.5-.156-.937-.469-1.28a4.024 4.024 0 011.078-.25l-.046-.829c-.625.031-1.125.313-1.5.672a2.515 2.515 0 00-1.188-.281C1.359-5.734.641-4.688.641-3.641c0 .735.359 1.391 1.046 1.704-.343.343-.515.656-.515 1.046zm2.922-2.813c0 .828-.516 1.25-1.282 1.25-.874 0-1.28-.5-1.28-1.297 0-.781.515-1.234 1.28-1.234.86 0 1.282.5 1.282 1.28zM1.219 1.234c0-.484.25-.859.718-1.187.313.094.672.11.985.11.984.015 1.687.124 1.687.905 0 .329-.14.61-.39.829-.328.265-.844.375-1.407.375-.953 0-1.593-.329-1.593-1.032zm0 0"/></symbol><symbol overflow="visible" id="0c5f4006v"><path d="M1.89-9.016l-.937.032V-.97c0 .719.344 1.094.985 1.094.296 0 .625-.047.937-.188l-.203-.703a1.18 1.18 0 01-.438.079c-.25 0-.343-.157-.343-.532zm0 0"/></symbol><symbol overflow="visible" id="0c5f4006w"><path d="M1.672-5.688l-.797.11c.078 1.203.094 1.734.094 2.172V0h.953v-3.75c.375-.688.89-.984 1.422-.984.25 0 .437.015.656.078l.188-.86a1.404 1.404 0 00-.782-.218c-.64 0-1.156.39-1.547 1.109zm0 0"/></symbol><symbol overflow="visible" id="0c5f4006E"><path d="M2.078-8.047h-.953V0h.953zm0 0"/></symbol><symbol overflow="visible" id="0c5f4006F"><path d="M2.188-7.266h-.782l-.218 1.657H.39v.78h.843v3.188c0 1.344.407 1.766 1.313 1.766.422 0 .953-.078 1.437-.25l-.187-.719c-.344.094-.703.14-.906.14-.563 0-.704-.25-.704-1.187v-2.937h1.72v-.781h-1.72zm0 0"/></symbol><symbol overflow="visible" id="0c5f4006x"><path d="M3.781-24.5c-1.015 0-1.125.594-1.125.938 0 .328.172.359.531.39 2.454.25 3.391.813 3.391 2.313C6.578-17.08 5.422-4.906 5-2.172c-.14.813-1.156 1.047-2.516 1.328-.703.14-.703.594-.703.813 0 .203.11.312.36.312.343 0 1.64-.219 3.734-.219 1.297 0 2.875.047 3.64.047.844 0 1.094-.53 1.094-.921 0-.204-.078-.313-.25-.313-.062 0-.39.047-.593.047-1.75 0-2.375-.469-2.375-1.344 0-1.89.593-13.5 1.078-17.031.11-.781.14-.922.25-.922.094 0 .203.078.656.734 4.14 5.922 11.938 14.875 14.64 18.907C24.923.625 25.063.812 25.313.812c.204 0 .688-.078.797-1.828C26.5-8.078 27.156-13.375 28-19.594c.344-2.422.453-3.187 3.047-3.781.625-.14.765-.563.765-.875 0-.14-.062-.25-.25-.25-.312 0-2.484.203-4.718.203-.985 0-2.344-.094-2.828-.094-.813 0-.844.625-.844.797 0 .11.031.25.25.282 1.984.312 2.547.593 2.547 1.64 0 4.14-.766 9.766-.985 14.14-.093 1.829-.14 2.032-.28 2.032-.095 0-.235-.094-.595-.516-3.218-3.89-10.218-12.109-14.172-17.547-.515-.687-.562-.734-1.187-.734-1.781 0-4.375-.203-4.969-.203zm0 0"/></symbol><symbol overflow="visible" id="0c5f4006y"><path d="M9.563-16.734c-1.438 0-3.376 1.187-4.594 2.312-2.594 2.375-3.844 5.469-3.844 9.313 0 3.25 1.36 5.703 3.813 5.703 1.78 0 4.296-1.5 6.156-4.157.25-.359.312-.562.312-.75 0-.171-.094-.343-.234-.343-.11 0-.219.11-.328.218-1.25 1.25-3.14 2.625-4.469 2.625-1.89 0-2.734-2.39-2.734-4.765 0-.844.062-1.234.343-1.266 4.063-.515 8.438-2.687 8.438-5.531 0-1.781-1.047-3.36-2.86-3.36zm-1.75 2.03c1.14 0 2.156.813 2.156 2.142 0 .765-.235 1.124-.625 1.468C8.047-9.906 4.797-8.688 4.03-8.688c-.14 0-.14-.093-.14-.234 0-1.328 1.609-5.781 3.921-5.781zm0 0"/></symbol><symbol overflow="visible" id="0c5f4006z"><path d="M14.172-18.266c-.875 0-1.25 2.203-1.985 2.203-.187 0-.562-.03-.921-.03-1.579 0-3.141.515-4.61 1.64C3.531-12.078.844-8.078.844-4.266c0 3.188 1.219 4.86 2.547 4.86.312 0 .64-.11.953-.344 1.984-1.547 4.093-4.281 5.343-5.781.141-.14.22-.203.282-.203.078 0 .14.062.14.234 0 .672-.875 3.781-.875 4.969 0 .703.704 1.125 1.235 1.125.937 0 3.734-2.938 4.89-5.282.22-.421.22-.53.22-.625 0-.218-.11-.359-.25-.359-.032 0-.063 0-.142.078-.843.969-2.343 2.969-3.046 2.969-.204 0-.282-.063-.282-.313.079-.734.22-1.546.36-2.421.734-4.75 2.172-10.079 2.594-12 .062-.313.062-.485.062-.563 0-.281-.453-.344-.703-.344zM9.766-14c.765 0 1.609.25 1.609.844 0 .422-.422 2.515-.813 4.125-.234 1.015-.453 1.437-1.046 2.281-1.079 1.438-2.72 3-4.157 4.156-.359.281-.53.313-.671.313-.797 0-1.36-1.672-1.36-3.313C3.328-9.234 5.453-14 9.766-14zm0 0"/></symbol><symbol overflow="visible" id="0c5f4006A"><path d="M9.516-16.734c-4.47 0-8.391 6.937-8.391 11.312 0 3.219 1.016 6.094 4.016 6.094 2.03 0 3.953-1.969 5.187-3.688.344-.515.703-1.046.703-1.359 0-.14-.11-.313-.219-.313-.14 0-.171.032-.453.313-.875.938-2.734 2.484-3.953 2.484-1.922 0-2.703-2.453-2.703-5 0-2.703 1.516-7.734 4.063-7.734.812 0 1.968.766 2.593 1.297.391.312.532.312.672.312.547-.046 1.219-1.296 1.219-1.89 0-.985-1.297-1.828-2.734-1.828zm0 0"/></symbol><symbol overflow="visible" id="0c5f4006B"><path d="M16.453-28.031c-.531 0-5.781 1.64-5.781 2.234 0 .219.219.219.531.219.203 0 1.11-.078 1.61-.078.515 0 .843 0 .843.593 0 .5-.64 5.36-1.156 8.094-.11.594-.14.735-.422.735-.25 0-.64-.328-1.578-.328C6.516-16.563.937-10.5.937-4.797c0 2.344.844 5.36 3.016 5.36.281 0 .625-.11.985-.36 1.921-1.328 3.609-3.281 5-5.11.593-.765.671-.796.734-.796.11 0 .172.11.172.344 0 .39-.766 3.328-.766 5.015 0 .625.485 1.188 1.125 1.188 1.25 0 2.766-1.438 3.875-2.938.61-.812 1.203-1.797 1.203-2.25 0-.14-.078-.234-.218-.234-.11 0-.172.062-.313.234-.594.735-2 2.485-2.875 2.485-.172 0-.313-.141-.313-.516 0-1.797 2.938-20.234 4.094-24.266.14-.484.219-.765.219-.937 0-.281-.11-.453-.422-.453zm-7.36 13.5c1.266 0 2.563.422 2.563 1.469 0 1.265-.625 4.484-1.265 6.03-.625 1.5-4.375 4.86-5.11 4.86-1.078 0-1.672-2.344-1.672-4.156 0-3.688 2.688-8.203 5.485-8.203zm0 0"/></symbol><symbol overflow="visible" id="0c5f4006C"><path d="M14.906-6.719c1.266-3.015 4.688-7.39 5.922-7.39.625 0 1.016.53 1.016 1.156 0 1.547-1.407 7.812-2.172 10.953-.14.594-.39 1.516-.39 1.828 0 .422.28.766.952.766 1.328 0 2.828-1.016 4.375-3.078.875-1.157 1.157-1.75 1.157-2.172 0-.14-.078-.282-.22-.282-.108 0-.233.172-.515.5-.984 1.11-2.11 2.297-2.703 2.297-.14 0-.25-.062-.25-.234 0-.531.735-3.078 1.235-5.078.593-2.484 1.218-5.14 1.218-6.375 0-1.719-1.36-2.797-2.515-2.797-1.61 0-4.578 3.984-6.578 6.828-.25.344-.36.485-.454.485-.078 0-.109-.063-.109-.141 0-.344.875-3.188.875-4.438 0-1.515-1.125-2.734-2.375-2.734-1.516 0-4.14 3.438-5.703 5.563-.703.953-.984 1.468-1.125 1.468-.11 0-.11-.14-.11-.281 0-.484.907-3.531.907-4.89 0-.922-.688-1.829-1.64-1.829-.907 0-2.204 1.235-3.47 2.875-.656.875-1.156 1.75-1.156 2.203 0 .25.14.344.25.344.14 0 .219-.062.422-.344 1.078-1.437 1.922-2.343 2.516-2.343.312 0 .453.25.453.625-.063 2.562-1.422 7.875-2.203 11.14C2.094-.313 2.062-.14 2.062.172c0 .39.532.422.876.422.703 0 1.578-.313 1.75-.906.453-1.75 1.125-4.797 1.687-6.266 1.5-3.86 4.719-7.531 5.813-7.531.656 0 1 .671 1 1.187 0 2.531-1.329 7.735-2.063 10.828-.422 1.781-.453 1.953-.453 2.266 0 .39.531.422.875.422.703 0 1.437-.313 1.61-.906.5-1.75 1.155-4.97 1.75-6.407zm0 0"/></symbol><symbol overflow="visible" id="0c5f4006D"><path d="M7-16.734c-1.438 0-4.375 3.015-5.11 4.172-.109.171-.312.453-.312.734 0 .281.14.422.281.422.141 0 .313-.172.485-.36.453-.453 2.031-1.984 2.453-1.984.25 0 .344.14.344.484 0 .735-.797 3.532-1.157 5.079-.28 1.25-1.25 5.14-1.25 7.343 0 .985.344 1.547 1.079 1.547 1.578 0 4.234-3.219 5.109-4.969.11-.218.172-.421.172-.593 0-.188-.063-.36-.203-.36-.079 0-.172.032-.391.313-1.563 2.11-2.438 2.734-2.828 2.734-.281 0-.36-.25-.36-.562.047-1.157.5-3 1.094-5.422 1.532-6.235 1.672-6.922 1.672-7.39 0-.907-.547-1.188-1.078-1.188zm1.125-8.078c-1.266 0-2.063 1.671-2.063 2.687 0 .734.485 1.156 1.188 1.156 1.047 0 2.094-1.531 2.094-2.547 0-.78-.563-1.297-1.219-1.297zm0 0"/></symbol></defs><use xlink:href="#0c5f4006a" x="9.0525" y="100"/><use xlink:href="#0c5f4006b" x="41.1475" y="100"/><use xlink:href="#0c5f4006c" x="56.1975" y="100"/><use xlink:href="#0c5f4006d" x="71.3525" y="100"/><use xlink:href="#0c5f4006c" x="86.7525" y="100"/><use xlink:href="#0c5f4006e" x="101.9075" y="100"/><use xlink:href="#0c5f4006b" x="121.1575" y="100"/><use xlink:href="#0c5f4006f" x="136.2075" y="100"/><use xlink:href="#0c5f4006g" x="165.2575" y="100"/><use xlink:href="#0c5f4006c" x="175.7925" y="100"/><g fill="#b7b7b7"><use xlink:href="#0c5f4006h" x="26.224" y="150"/></g><g fill="#b7b7b7"><use xlink:href="#0c5f4006i" x="34.276" y="150"/><use xlink:href="#0c5f4006j" x="40.12" y="150"/><use xlink:href="#0c5f4006k" x="45.82" y="150"/><use xlink:href="#0c5f4006j" x="51.172" y="150"/><use xlink:href="#0c5f4006l" x="56.872" y="150"/><use xlink:href="#0c5f4006i" x="63.244" y="150"/><use xlink:href="#0c5f4006m" x="69.088" y="150"/><use xlink:href="#0c5f4006n" x="78.688" y="150"/><use xlink:href="#0c5f4006j" x="81.544" y="150"/><use xlink:href="#0c5f4006o" x="87.244" y="150"/><use xlink:href="#0c5f4006p" x="89.836" y="150"/></g><g fill="#b7b7b7"><use xlink:href="#0c5f4006q" x="96.28" y="150"/><use xlink:href="#0c5f4006r" x="102.58" y="150"/><use xlink:href="#0c5f4006s" x="108.892" y="150"/><use xlink:href="#0c5f4006i" x="115.276" y="150"/><use xlink:href="#0c5f4006j" x="121.12" y="150"/><use xlink:href="#0c5f4006l" x="126.82" y="150"/><use xlink:href="#0c5f4006o" x="133.192" y="150"/><use xlink:href="#0c5f4006t" x="135.784" y="150"/></g><g fill="#b7b7b7"><use xlink:href="#0c5f4006i" x="142.516" y="150"/><use xlink:href="#0c5f4006u" x="148.36" y="150"/><use xlink:href="#0c5f4006q" x="154.3" y="150"/><use xlink:href="#0c5f4006v" x="160.6" y="150"/><use xlink:href="#0c5f4006j" x="163.696" y="150"/><use xlink:href="#0c5f4006w" x="169.396" y="150"/></g><g><use xlink:href="#0c5f4006x" x="13.97" y="250"/><use xlink:href="#0c5f4006y" x="44.665" y="250"/><use xlink:href="#0c5f4006z" x="57.86" y="250"/><use xlink:href="#0c5f4006A" x="74.065" y="250"/><use xlink:href="#0c5f4006z" x="86.595" y="250"/><use xlink:href="#0c5f4006B" x="102.8" y="250"/><use xlink:href="#0c5f4006y" x="119.495" y="250"/><use xlink:href="#0c5f4006C" x="132.69" y="250"/><use xlink:href="#0c5f4006D" x="159.43" y="250"/><use xlink:href="#0c5f4006z" x="169.825" y="250"/></g><g fill="#b7b7b7"><use xlink:href="#0c5f4006h" x="32.962" y="300"/></g><g fill="#b7b7b7"><use xlink:href="#0c5f4006i" x="41.014" y="300"/><use xlink:href="#0c5f4006j" x="46.858" y="300"/><use xlink:href="#0c5f4006k" x="52.558" y="300"/><use xlink:href="#0c5f4006j" x="57.91" y="300"/><use xlink:href="#0c5f4006l" x="63.61" y="300"/><use xlink:href="#0c5f4006i" x="69.982" y="300"/><use xlink:href="#0c5f4006m" x="75.826" y="300"/><use xlink:href="#0c5f4006n" x="85.426" y="300"/><use xlink:href="#0c5f4006j" x="88.282" y="300"/><use xlink:href="#0c5f4006o" x="93.982" y="300"/><use xlink:href="#0c5f4006p" x="96.574" y="300"/></g><g fill="#b7b7b7"><use xlink:href="#0c5f4006q" x="103.018" y="300"/><use xlink:href="#0c5f4006r" x="109.318" y="300"/><use xlink:href="#0c5f4006s" x="115.63" y="300"/><use xlink:href="#0c5f4006i" x="122.014" y="300"/><use xlink:href="#0c5f4006j" x="127.858" y="300"/><use xlink:href="#0c5f4006l" x="133.558" y="300"/><use xlink:href="#0c5f4006o" x="139.93" y="300"/><use xlink:href="#0c5f4006E" x="142.522" y="300"/><use xlink:href="#0c5f4006F" x="145.726" y="300"/><use xlink:href="#0c5f4006j" x="150.034" y="300"/><use xlink:href="#0c5f4006v" x="155.734" y="300"/><use xlink:href="#0c5f4006n" x="158.83" y="300"/><use xlink:href="#0c5f4006k" x="161.686" y="300"/></g></svg>