<?xml version='1.0' encoding='UTF-8'?>
<svg xmlns="http://www.w3.org/2000/svg" xmlns:xlink="http://www.w3.org/1999/xlink" width="600px" height="300px" viewBox="0 0 600 300" x="0px" y="0px" enable-background="new 0 0 600 300"><defs><symbol overflow="visible" id="b016ccd0a"><path d="M17.16-3.13c.39 3.13 1.82 4.1 3 4.1 3.04 0 6.23-1.24 7.4-4.03.33-.77.64-1.81.72-2.4 0-.13-.47-.38-.72-.38-.26.06-2.14 2.78-3.84 2.78-1.42 0-1.81-1.24-1.81-3.63 0-5.6 1.5-10.14 1.5-17.17 0-3.44-3.97-7.08-7.82-7.08-3.7 0-12.46 4.55-12.46 8.32 0 .65.45 1.62 1.17 1.62.76 0 2.65-.78 3.5-1.23 2.28-1.24.26-3.58 2.28-5 .58-.4 1.23-.58 2.01-.58 1.43 0 3.05.64 4.43 2.08.96.96 1.3 4.42 1.3 7.2 0 1.56-.13 2.94-.27 3.64-3.9.6-8.97 1.62-11.96 3.25-2.4 1.23-3.25 2.6-3.25 5.02C2.34-2.14 4.36.83 8.58.83c2.86 0 6.1-1.5 8.58-3.96zm.2-8.82c0 1.1-.14 6.23-.2 7.07-2.27 1.7-4.1 2.35-5.46 2.35-2.53 0-3.45-2.35-3.45-4.55 0-1.5.45-2.94 1.83-3.78 2.2-1.36 4.94-2.2 6.95-2.47.33-.06.33.9.33 1.38zm0 0"/></symbol><symbol overflow="visible" id="b016ccd0c"><path d="M14.9-44.27c0-2.53-1.96-3.3-3.53-3.3-2.4 0-3.96 2.2-3.96 4.02 0 1.75 1.3 3.38 2.92 3.38 2.01 0 4.56-2.02 4.56-4.1zM4.15.58C4.6.58 7.86 0 12.55 0c1.62 0 2.86.06 3.57.06.4 0 .7-.06.91-.18.58-.4 1.17-1.18 1.17-1.63 0-.14-.06-.27-.2-.27-1.75 0-4.28-.51-4.6-.65-.28-.13-.4-.19-.4-2.92 0-6.11 0-10.14.13-13.64.26-8.13.84-10.99.84-11.64 0-.27-.45-1.05-.97-1.05-.19 0-.58.26-1.3.65a68.34 68.34 0 01-7.34 3.2c-.6.18-1.38 1.95-1.38 2.13 0 .2.15.33.27.33.52 0 2.08-.27 3.13-.27.7 0 1.03.15 1.17.54.25.96.51 5.78.51 10.9C8.06-11.7 8-8.9 7.8-6.5c-.25 2.6.06 3.7-2.99 4.94-.39.2-.51.33-.72.72-.18.39-.39.96-.39 1.17 0 .19.27.25.46.25zm0 0"/></symbol><symbol overflow="visible" id="b016ccd0d"><path d="M13.27-28.2c.51-.14 1.17-1.38 1.17-1.63 0-.2-.2-.39-.33-.39-.53 0-4.1.52-7.8.52-1.62 0-3.58-.07-4.36-.07-.65 0-1.62 1.3-1.62 1.88 0 .2.19.27.64.27 1.95 0 2.55 1.1 3.19 2.46 4.3 8.91 8.51 21.13 9.8 26.27.09.19.21.25.4.25.6 0 1.62-.52 2.08-.97.26-.27.33-.39.47-.72.25-.78.78-2.2 1.93-5 3.52-8.39 5.35-12.15 7.94-18.14.9-2.01 1.63-3.7 4.22-4.73.45-.27 1.05-1.7 1.05-1.9 0-.12 0-.32-.2-.32-.65.06-3.26.51-5.91.72-1.11.06-5.08.18-5.53.39a4.31 4.31 0 00-1.3 1.56c0 .13.27.25.39.25 2.73.06 4.69.92 4.69 2.08 0 3.39-5.4 13.2-6.97 18.14-.06.2-.25.2-.4.2-.3-1.56-1.68-4.75-2.32-6.7-1.23-3.64-2.16-6.11-3.64-10.86a4.2 4.2 0 01-.33-1.48c0-.93.58-1.57 2.74-2.08zm0 0"/></symbol><symbol overflow="visible" id="b016ccd0b"><path d="M6.95-25.16c-2.92 2.99-4.42 7.47-4.42 11.83C2.53-5.06 7.47.91 15.86.91c3.45 0 7.02-1.1 9.3-3.9a8.1 8.1 0 001.56-3.7c0-.53-.4-1.56-.84-1.56-.15 0-.2.06-.33.25-1.83 3.31-4.36 4.56-6.9 4.56-6.82 0-11.04-7.42-11.04-13.72 0-5.53 3.05-9.95 8.37-9.95 1.77 0 4.7 1.05 7.04 3.4.18.12.25.12.39.12.51 0 .84-.13 1.75-.97.71-.72 1.42-1.83 1.42-2.88a.98.98 0 00-.25-.7c-.4-.4-1.24-.53-2.53-1.38-1.63-.96-1.96-3.3-1.96-5 0-3.82 3.2-8.57 7.93-8.57 6.17 0 6.37 6.37 6.37 9.68 0 1.57-.06 2.47-.39 3.5-.27.93-2.08 1.63-3.7 2.47-1.17.6-1.57 1.57-1.57 2.16 0 .25.07.45.27.45.45 0 1.56-.51 4.03-.51.45 0 .78.06.84.12.13.06.13.58.13 1.63 0 3.12-.97 12.93-.97 17.28 0 5.53 2.72 7.28 5.97 7.28 1.9 0 4.1-.64 5.92-1.69 1.63-.9 3.19-2.8 3.19-3.89 0-.72-.14-1.23-.4-1.23-.05 0-.2.06-.26.12-1.56 1.36-3.83 2.74-5.65 2.74-1.82 0-3.05-1.24-3.11-4.24-.08-2.01-.08-5.97-.08-9.81 0-2.8 0-5.6.08-7.47 0-.27 1.15-.27 2.47-.27 3.04 0 3.89 0 4.34-.12.78-.2 2.34-2.92 2.34-3.97 0-.27-.06-.39-.26-.39-1.3 0-4.8.66-8.25.66-.58 0-.72-.08-.72-2.68 0-2.92.14-3.64.14-5.65 0-4.88-2.67-9.03-7.81-9.03-7.35 0-15.08 5.6-15.08 13.33 0 .64.08 1.23.27 1.87 0 .33-.13.4-.33.4a17.55 17.55 0 00-10.6 5.2zm0 0"/></symbol><symbol overflow="visible" id="b016ccd0e"><path d="M27.17-43.1c5.72 0 5.78 6.38 5.78 9.7 0 1.56-.06 2.46-.39 3.5-.25.92-2.08 1.62-3.7 2.46-1.17.6-1.56 1.57-1.56 2.16 0 .25.06.45.26.45.46 0 1.57-.51 4.03-.51.46 0 .79.06.85.12.12.06.12.58.12 1.63 0 3.12-.97 12.93-.97 17.28 0 5.53 2.72 7.28 5.97 7.28 1.9 0 4.11-.64 5.92-1.69 1.63-.9 3.2-2.8 3.2-3.89 0-.72-.13-1.23-.4-1.23-.06 0-.2.06-.26.12-1.57 1.36-3.83 2.74-5.66 2.74-1.81 0-3.05-1.24-3.11-4.24-.06-2.01-.06-5.97-.06-9.81 0-2.8 0-5.6.06-7.47 0-.27 1.17-.27 2.47-.27 3.05 0 3.89 0 4.34-.12.78-.2 2.35-2.92 2.35-3.97 0-.27-.07-.39-.25-.39-1.32 0-4.82.66-8.27.66-.58 0-.7-.08-.7-2.68 0-2.92.12-3.64.12-5.65 0-4.75-2.47-9.03-7.4-9.03-6.83 0-13.79 5.6-13.79 13.33 0 .84.07 1.09.07 1.68 0 .33-.2.4-.4.4-.26 0-.65-.07-1.04-.07-5.97 0-10.53 3.95-10.53 8.77 0 5.2 6.64 8.32 10.53 11.43 1.83 1.44 2.86 3.13 2.86 4.75 0 2.47-2.14 3.77-4.67 3.77a6.85 6.85 0 01-7.02-7.02c0-.12-.2-.18-.39-.18-.72 0-2.28.7-2.47 1.54-.2.92-.39 2.61-.39 3.9 0 .46 0 .85.06 1.18C2.86-1.62 3.91-.78 5-.33A16.8 16.8 0 0010.98.78c3.38 0 6.7-1.05 8.85-3.51a8.72 8.72 0 002.4-5.72c0-6.63-9.62-9.1-12.54-13.4-.66-.9-.9-1.87-.9-2.71 0-1.96 1.48-3.58 3.88-3.58 3.77 0 6.64 3.05 7.35 6.5 0 .06.14.12.26.12.52 0 1.63-.71 1.9-1.42a21.56 21.56 0 001.02-5.53c0-.97-3.12-.39-3.12-6.05 0-3.82 2.67-8.57 7.1-8.57zm0 0"/></symbol><symbol overflow="visible" id="b016ccd0f"><path d="M3.83 0v-5.95H6.2v-.82H.45v.82h2.4V0zm0 0"/></symbol><symbol overflow="visible" id="b016ccd0g"><path d="M5.75-2.23v-.43c0-1.6-.9-2.51-2.42-2.51S.87-4.16.87-2.48c0 1.71.91 2.62 2.5 2.62 1.43 0 2.07-.56 2.29-1.52l-.9-.09c-.18.61-.59.9-1.35.9-.94 0-1.52-.54-1.58-1.66zm-2.4-2.2c.93 0 1.43.5 1.48 1.55H1.84c.08-1.07.6-1.56 1.5-1.56zm0 0"/></symbol><symbol overflow="visible" id="b016ccd0h"><path d="M1.83 0l1.42-2h.06l1.46 2H5.8L4-2.53l1.78-2.49H4.8L3.42-3.08h-.08l-1.4-1.94H.89l1.78 2.49L.84 0zm0 0"/></symbol><symbol overflow="visible" id="b016ccd0i"><path d="M5.52-4.25v-.77H3.17v-1.56h-.81l-.14 1.56H.75v.77h1.47v2.4c0 1.3.48 1.94 1.84 1.94C4.6.1 5.14 0 5.55-.14L5.4-.91c-.32.13-.72.2-1.13.2-.8 0-1.1-.37-1.1-1.23v-2.31zm0 0"/></symbol><symbol overflow="visible" id="b016ccd0j"><path d="M3.33-3.42c.47 0 .8-.27.8-.8 0-.51-.33-.8-.8-.8-.47 0-.8.29-.8.8 0 .53.33.8.8.8zm0 3.5c.47 0 .8-.27.8-.78 0-.53-.33-.82-.8-.82-.47 0-.8.29-.8.82 0 .51.33.78.8.78zm0 0"/></symbol><symbol overflow="visible" id="b016ccd0l"><path d="M2.83.14c.94 0 1.5-.39 1.81-.95h.08l.1.81h.76v-3.38c0-1.23-.69-1.8-2.13-1.8-1.43 0-2.03.65-2.18 1.6l.93.1c.11-.6.44-.93 1.22-.93.85 0 1.22.32 1.22 1.04v.34l-1.81.2C1.6-2.7 1.1-2.17 1.1-1.28c0 .92.64 1.42 1.72 1.42zm.25-.77c-.67 0-1.02-.28-1.02-.74 0-.44.28-.72 1-.82l1.58-.19v.41c0 .8-.6 1.34-1.56 1.34zm0 0"/></symbol><symbol overflow="visible" id="b016ccd0m"><path d="M3.34.14c1.43 0 2.13-.66 2.25-1.78l-.89-.1c-.1.7-.5 1.08-1.34 1.08-1.03 0-1.52-.64-1.52-1.84 0-1.23.47-1.86 1.52-1.86.84 0 1.23.36 1.34 1.08l.9-.1c-.13-1.09-.82-1.78-2.26-1.78-1.56 0-2.46.97-2.46 2.66 0 1.66.9 2.64 2.46 2.64zm0 0"/></symbol><symbol overflow="visible" id="b016ccd0n"><path d="M3.58-5.81c.42 0 .72-.22.72-.67 0-.44-.3-.68-.72-.68-.44 0-.72.24-.72.68 0 .45.28.67.72.67zm.5.8H1.52v.76h1.6v3.48h-1.8V0h4.46v-.77h-1.7zm0 0"/></symbol><symbol overflow="visible" id="b016ccd0o"><path d="M3.9 0l2-5.02h-.96L3.4-.94h-.07L1.8-5.02H.77L2.78 0zm0 0"/></symbol><symbol overflow="visible" id="b016ccd0p"><path d="M3.36.16c1.4 0 2.2-.6 2.2-1.57 0-.89-.54-1.22-1.47-1.39L3-3c-.67-.14-.86-.33-.86-.73 0-.5.4-.74 1.17-.74.83 0 1.19.27 1.27.8l.9-.05c-.12-1-.8-1.47-2.17-1.47-1.34 0-2.1.53-2.1 1.5 0 .81.45 1.22 1.52 1.44l1.04.2c.56.11.87.24.87.72 0 .52-.45.78-1.28.78-.95 0-1.36-.28-1.42-.87l-.9.06C1.07-.36 1.8.16 3.35.16zm0 0"/></symbol><symbol overflow="visible" id="b016ccd0q"><path d="M5.95-6.77H1.1V0h.99v-2.92H5.3v-.77H2.08v-2.26h3.87zm0 0"/></symbol><symbol overflow="visible" id="b016ccd0r"><path d="M2.73.14c.9 0 1.43-.45 1.74-1.08h.06l.13.94h.8v-5.02h-.94v2.7c0 .98-.57 1.62-1.46 1.62-.75 0-1.1-.4-1.1-1.22v-3.1h-.93v3.32c0 1.17.55 1.84 1.7 1.84zm0 0"/></symbol><symbol overflow="visible" id="b016ccd0s"><path d="M5.08-5.16c-.94 0-1.58.43-1.9 1.3h-.09l-.07-1.16H1.05v.77h1.1v3.48H.96V0h3.96v-.77H3.1v-1.46c0-1.36.6-2.05 1.83-2.05.4 0 .76.08 1.1.17l.15-.87c-.33-.11-.7-.18-1.11-.18zm0 0"/></symbol><symbol overflow="visible" id="b016ccd0t"><path d="M.92-6.77V0h2.11c2.03 0 3.03-1.03 3.03-3.36 0-2.39-1.01-3.4-2.93-3.4zM1.91-.8v-5.17h1.18c1.29 0 1.96.63 1.96 2.61 0 1.94-.67 2.56-1.96 2.56zm0 0"/></symbol><symbol overflow="visible" id="b016ccd0u"><path d="M3.33.14c1.62 0 2.5-.95 2.5-2.66 0-1.68-.88-2.64-2.5-2.64-1.63 0-2.5.96-2.5 2.64 0 1.7.87 2.66 2.5 2.66zm0-.77c-1.06 0-1.52-.6-1.52-1.89 0-1.28.46-1.87 1.52-1.87 1.08 0 1.53.6 1.53 1.87 0 1.29-.45 1.9-1.53 1.9zm0 0"/></symbol><symbol overflow="visible" id="b016ccd0v"><path d="M2.16 0v-2.67c0-.99.59-1.63 1.46-1.63.74 0 1.07.38 1.07 1.22V0h.95v-3.31c0-1.2-.56-1.85-1.67-1.85-.92 0-1.49.46-1.77 1.08h-.06l-.12-.94H1.2V0zm0 0"/></symbol><symbol overflow="visible" id="b016ccd0w"><path d="M3.42-.86h-.08L1.77-5.02H.8L2.73 0h.41c-.33.95-.72 1.27-1.45 1.27-.22 0-.49-.04-.69-.08l-.1.73c.2.06.58.11.87.11 1.2 0 1.7-.7 2.21-2.03l1.94-5.02H5zm0 0"/></symbol><symbol overflow="visible" id="b016ccd0x"><path d="M3.92-7.14H1.36v.76h1.6v5.61H1.15V0H5.7v-.77H3.92zm0 0"/></symbol><symbol overflow="visible" id="b016ccd0y"><path d="M3.16 2.03c1.67 0 2.4-.86 2.4-2.51v-4.54h-.81l-.13.91h-.06c-.26-.58-.8-1.05-1.73-1.05-1.42 0-2.24 1-2.24 2.52 0 1.6.75 2.56 2.2 2.56.94 0 1.5-.5 1.77-1.03h.05v.72c0 1.17-.42 1.67-1.45 1.67-.93 0-1.3-.34-1.41-.89L.8.5c.12.96.87 1.54 2.36 1.54zM3.06-.8c-.98 0-1.48-.57-1.48-1.82 0-1.13.5-1.75 1.48-1.75 1.06 0 1.58.76 1.58 1.75 0 .95-.56 1.82-1.58 1.82zm0 0"/></symbol><symbol overflow="visible" id="b016ccd0z"><path d="M1.45-2.95c0 2.56 1.08 4.37 3.67 4.84l.11-.67C3.28.86 2.43-.75 2.43-2.95s.85-3.82 2.8-4.16l-.1-.69c-2.6.49-3.68 2.3-3.68 4.85zm0 0"/></symbol><symbol overflow="visible" id="b016ccd0A"><path d="M2.84.14C3.8.14 4.33-.26 4.6-.9h.07L4.8 0h.76v-7.14h-.95v2.95h-.08c-.28-.6-.86-.97-1.67-.97-1.48 0-2.27.99-2.27 2.64C.6-.84 1.36.14 2.84.14zm.22-.8c-.98 0-1.48-.59-1.48-1.84s.5-1.86 1.48-1.86c1.13 0 1.58.8 1.58 1.86S4.2-.66 3.06-.66zm0 0"/></symbol><symbol overflow="visible" id="b016ccd0B"><path d="M1.45-7.1c1.96.33 2.8 1.94 2.8 4.15 0 2.2-.84 3.8-2.8 4.17l.11.67c2.58-.47 3.67-2.28 3.67-4.84 0-2.55-1.09-4.36-3.67-4.85zm0 0"/></symbol></defs><use xlink:href="#b016ccd0a" x="200.745" y="153.5" fill="#515151"/><use xlink:href="#b016ccd0b" x="228.89" y="153.5" fill="#fff"/><g fill="#515151"><use xlink:href="#b016ccd0c" x="280.435" y="153.5"/><use xlink:href="#b016ccd0d" x="300" y="153.5"/><use xlink:href="#b016ccd0c" x="331.33" y="153.5"/></g><use xlink:href="#b016ccd0e" x="350.895" y="153.5" fill="#fff"/><g fill="#fff"><use xlink:href="#b016ccd0f" x="253.3333" y="252"/><use xlink:href="#b016ccd0g" x="260.0003" y="252"/><use xlink:href="#b016ccd0h" x="266.6673" y="252"/><use xlink:href="#b016ccd0i" x="273.3343" y="252"/><use xlink:href="#b016ccd0j" x="280.0013" y="252"/><use xlink:href="#b016ccd0k" x="286.6683" y="252"/><use xlink:href="#b016ccd0l" x="293.3353" y="252"/><use xlink:href="#b016ccd0m" x="300.0023" y="252"/><use xlink:href="#b016ccd0i" x="306.6693" y="252"/><use xlink:href="#b016ccd0n" x="313.3363" y="252"/><use xlink:href="#b016ccd0o" x="320.0033" y="252"/><use xlink:href="#b016ccd0n" x="326.6703" y="252"/><use xlink:href="#b016ccd0p" x="333.3373" y="252"/><use xlink:href="#b016ccd0i" x="340.0043" y="252"/></g><g fill="#fff"><use xlink:href="#b016ccd0q" x="170" y="266"/><use xlink:href="#b016ccd0g" x="176.667" y="266"/><use xlink:href="#b016ccd0l" x="183.334" y="266"/><use xlink:href="#b016ccd0i" x="190.001" y="266"/><use xlink:href="#b016ccd0r" x="196.668" y="266"/><use xlink:href="#b016ccd0s" x="203.335" y="266"/><use xlink:href="#b016ccd0g" x="210.002" y="266"/><use xlink:href="#b016ccd0j" x="216.669" y="266"/><use xlink:href="#b016ccd0k" x="223.336" y="266"/><use xlink:href="#b016ccd0t" x="230.003" y="266"/><use xlink:href="#b016ccd0n" x="236.67" y="266"/><use xlink:href="#b016ccd0p" x="243.337" y="266"/><use xlink:href="#b016ccd0m" x="250.004" y="266"/><use xlink:href="#b016ccd0s" x="256.671" y="266"/><use xlink:href="#b016ccd0g" x="263.338" y="266"/><use xlink:href="#b016ccd0i" x="270.005" y="266"/><use xlink:href="#b016ccd0n" x="276.672" y="266"/><use xlink:href="#b016ccd0u" x="283.339" y="266"/><use xlink:href="#b016ccd0v" x="290.006" y="266"/><use xlink:href="#b016ccd0l" x="296.673" y="266"/><use xlink:href="#b016ccd0s" x="303.34" y="266"/><use xlink:href="#b016ccd0w" x="310.007" y="266"/><use xlink:href="#b016ccd0k" x="316.674" y="266"/><use xlink:href="#b016ccd0x" x="323.341" y="266"/><use xlink:href="#b016ccd0n" x="330.008" y="266"/><use xlink:href="#b016ccd0y" x="336.675" y="266"/><use xlink:href="#b016ccd0l" x="343.342" y="266"/><use xlink:href="#b016ccd0i" x="350.009" y="266"/><use xlink:href="#b016ccd0r" x="356.676" y="266"/><use xlink:href="#b016ccd0s" x="363.343" y="266"/><use xlink:href="#b016ccd0g" x="370.01" y="266"/><use xlink:href="#b016ccd0p" x="376.677" y="266"/><use xlink:href="#b016ccd0k" x="383.344" y="266"/><use xlink:href="#b016ccd0z" x="390.011" y="266"/><use xlink:href="#b016ccd0A" x="396.678" y="266"/><use xlink:href="#b016ccd0x" x="403.345" y="266"/><use xlink:href="#b016ccd0n" x="410.012" y="266"/><use xlink:href="#b016ccd0y" x="416.679" y="266"/><use xlink:href="#b016ccd0B" x="423.346" y="266"/></g></svg>