<?xml version='1.0' encoding='UTF-8'?>
<svg xmlns="http://www.w3.org/2000/svg" xmlns:xlink="http://www.w3.org/1999/xlink" width="600px" height="300px" viewBox="0 0 600 300" x="0px" y="0px" enable-background="new 0 0 600 300"><defs><symbol overflow="visible" id="742fb673a"><path d="M26.72 1.56c13 0 25.8-9.62 25.8-23.98 0-14.11-10.4-23.53-23.15-23.53-13.51 0-25.73 10.33-25.73 23.6 0 13.9 10.14 23.91 23.08 23.91zm0-44.6c11.95 0 18.26 11.06 18.26 22.3 0 11.7-6.37 19.18-15.85 19.18-11.91 0-18.27-11.05-18.27-22.82 0-10.71 5.9-18.65 15.86-18.65zm0 0"/></symbol><symbol overflow="visible" id="742fb673b"><path d="M2.4.72c.85 0 2.54-.66 8.7-.66 3.2 0 3.65 0 3.8-.06.5-.19 1.41-1.1 1.41-1.75 0-.4-.25-.4-.39-.4-1.75 0-3.58-.05-3.89-.2-.26-.12-.53-.18-.6-2.92a728.8 728.8 0 01-.24-18.53c0-18.51.76-28.07.76-28.92 0-.33-.45-1.03-1.03-1.03-.45 0-3.19 1.69-8.58 3.7-.65.25-1.3 1.75-1.3 2.08 0 .19.13.33.26.33.98 0 2.4-.27 3.64-.27.39 0 .78.07.84.4.6 5.2.84 15.01.84 24.04 0 7.74-.18 14.83-.45 17.94-.25 3.06-.72 3.19-3.37 3.97-.2.06-.33.12-.46.39A3.75 3.75 0 001.9.45c0 .13.13.27.52.27zm0 0"/></symbol><symbol overflow="visible" id="742fb673c"><path d="M25.16-28.98a16.07 16.07 0 00-5-.79c-9.7 0-18.2 7.29-18.2 16.77C1.95-6.05 6.16.58 13.25.58c4.55 0 9.88-3.25 11.5-4.67.07 0 .13.12.13.39 0 1.03-.7 3.89-.7 5 0 .45.45.84.9.84.72 0 1.88-.78 9.1-2.08.98-.18 1.62-2.2 1.62-2.47 0-.26-.06-.45-.33-.45-.18 0-2.32.78-4.21.78-.72 0-1.18-.12-1.24-.51-.33-1.38-.51-6.7-.51-13.14 0-9.75.39-22.55.9-30.82.19-2.47.85-5.45.85-5.84 0-.33-.46-.84-.85-.84-.51 0-1.36.71-8.78 1.8-.33.09-.58.21-.97.73-.39.51-.72 1.3-.72 1.56 0 .33.27.45.4.45.71.06 4.02-.06 4.15.4.4 1.29.98 10.26.98 15.52 0 2.22-.06 3.79-.32 3.79zm-.6 7.8c.2 1.41.27 3.5.27 5.71 0 3.38-.19 7.16-.33 9.69a14.07 14.07 0 01-6.75 1.95c-6.64 0-10.4-6.5-10.4-12.54 0-5.08 2.92-10.08 8.38-10.08 3.38 0 7.02 1.95 8.83 5.26zm0 0"/></symbol><symbol overflow="visible" id="742fb673f"><path d="M13.4-35.48c0-.4-.4-.85-.8-.85a.57.57 0 00-.44.25c-2.68 3.45-2.54 5.4-8.72 8.64-1.16.6-1.55 1.57-1.55 2.16 0 .25.06.45.25.45.45 0 1.56-.51 4.03-.51.46 0 .78.06.85.12.14.06.14.58.14 1.63 0 3.12-.99 12.93-.99 17.28C6.17-.78 8.91.97 12.16.97c1.89 0 4.09-.64 5.9-1.69 1.63-.9 3.19-2.8 3.19-3.89 0-.72-.13-1.23-.4-1.23a.47.47 0 00-.24.12c-1.56 1.36-3.84 2.74-5.66 2.74-1.82 0-3.06-1.24-3.12-4.24-.06-2.01-.06-5.97-.06-9.81 0-2.8 0-5.6.06-7.47 0-.27 1.17-.27 2.47-.27 3.06 0 3.9 0 4.36-.12.78-.2 2.34-2.92 2.34-3.97 0-.27-.06-.39-.27-.39-1.3 0-4.3.58-7.73.66-.4 0-.66-.27-.66-.6 0-2.08 1.05-5.9 1.05-6.3zm0 0"/></symbol><symbol overflow="visible" id="742fb673g"><path d="M14.23-28.02c.52-.12 1.05-1.36 1.05-1.62a.32.32 0 00-.33-.33c-.72 0-4.1.6-8.64.66-2.01 0-2.8.06-3.33.06-.51 0-.96.06-1.09.13a2.02 2.02 0 00-.98 1.5c0 .26.45.18.78.26 1.5.25 2.47 1.3 3.19 2.92 1.3 3.13 6.62 15.08 8.57 21.77.52 1.7 1.36 4.1 1.36 5.98 0 1.75-1.3 5.66-2.78 9.56-1.37 3.57-4.75 4.1-7.34 5.58-.66.4-1.38 2.28-1.38 2.55 0 .19.27.52.6.52 1.68 0 2.65-.79 8.51-1.11.58 0 .97-.52 1.36-1.96A166.7 166.7 0 0119.9-1.62C22.23-8 25.16-14.56 28.2-22.95c.72-2.1 1.38-3.78 3.97-4.87.45-.27.9-1.9.9-2.16 0-.12-.05-.25-.24-.25-.45 0-2.61.58-5.72.78-1.11.07-5.4.13-5.86.32-.45.2-1.17 1.56-1.17 1.89 0 .12.2.26.33.26 1.68 0 4.8.31 4.8 2.2 0 2.35-4.54 12.35-7 20.02-.07.2-.15.27-.46.27-1.5-6.57-3.45-12.1-5.53-17.61-.45-1.18-1.24-2.86-1.24-3.91 0-1.36 1.57-1.56 3.25-2.02zm0 0"/></symbol><symbol overflow="visible" id="742fb673h"><path d="M26-21c0-4.42-2.4-9.48-9.1-9.48-9.43 0-14.95 9.3-14.95 17.6C1.95-5.83 5.98.85 13.97.85c5.72 0 10.6-3.18 11.37-7.46.08-.46.08-.79.08-1.32 0-.7-.72-1.1-1.1-1.1-.13 0-.21.07-.27.34-1.18 3.37-4.03 4.8-7.47 4.8-5.53 0-9.5-5.58-9.5-11.7 0-.46 0-.92.08-1.37.06-.84.39-1.3 1.09-1.3 8.13 0 16.13-.51 17.42-1.3.27-.12.33-.71.33-1.43zm-11.9-6.56c3.9 0 5.85 3.31 5.85 5.14 0 2.26-4.8 2.34-6.82 2.34-2.15 0-3.96-.08-5.33-.2-.25 0-.33-.13-.33-.4.72-4.41 4.17-6.88 6.64-6.88zm0 0"/></symbol><symbol overflow="visible" id="742fb673d"><path d="M4.03-11.38c.52 0 2.02-.32 6.83-1.1 2.86-.46 5.58-.91 6.17-1.18.78-.3 1.5-2.26 1.5-3.25 0-.78-.92-.78-1.31-.78-.64 0-9.55 2.35-12.28 3.13-1.17.39-1.57.9-1.57 2.08 0 .39.27 1.1.66 1.1zm0 0"/></symbol><symbol overflow="visible" id="742fb673e"><path d="M5.53-9.42c.13 0 .19.06.19.19.06 5.26 3.97 7.21 7.22 7.21 2.47 0 4.67-1.04 4.67-3.37 0-1.83-1.63-3.64-3.64-5.33-1.88-1.5-4.22-3-6.24-4.69-2.28-1.95-4.09-4.21-4.09-7.15 0-4.94 5.4-8.05 9.88-8.05 1.3 0 2.92.19 4.3.45 2.34.4 4.54.52 4.48 1.18-.07 2.2-.6 5.12-.9 6.1-.21.65-.73.97-1.06.97-.18 0-.26-.06-.32-.26-.91-3.25-3.25-6.11-7.86-6.11-2.47 0-3.97 1.62-3.97 3.64 0 3.33 3.51 5.53 6.56 7.55 3.45 2.28 7.1 5.06 7.1 8.9 0 1.75-.66 3.44-1.9 4.94C17.94-.72 14.35.52 10.8.52 8.78.52 6.77.12 5-.66c-1.63-.78-2.14-1.62-2.14-2.86 0-1.3.27-3.1.58-4.15.33-.9 1.5-1.75 2.1-1.75zm0 0"/></symbol><symbol overflow="visible" id="742fb673i"><path d="M3.83 0v-5.95H6.2v-.82H.45v.82h2.4V0zm0 0"/></symbol><symbol overflow="visible" id="742fb673j"><path d="M5.75-2.23v-.43c0-1.6-.9-2.51-2.42-2.51S.87-4.16.87-2.48c0 1.71.91 2.62 2.5 2.62 1.43 0 2.07-.56 2.29-1.52l-.9-.09c-.18.61-.59.9-1.35.9-.94 0-1.52-.54-1.58-1.66zm-2.4-2.2c.93 0 1.43.5 1.48 1.55H1.84c.08-1.07.6-1.56 1.5-1.56zm0 0"/></symbol><symbol overflow="visible" id="742fb673k"><path d="M1.83 0l1.42-2h.06l1.46 2H5.8L4-2.53l1.78-2.49H4.8L3.42-3.08h-.08l-1.4-1.94H.89l1.78 2.49L.84 0zm0 0"/></symbol><symbol overflow="visible" id="742fb673l"><path d="M5.52-4.25v-.77H3.17v-1.56h-.81l-.14 1.56H.75v.77h1.47v2.4c0 1.3.48 1.94 1.84 1.94C4.6.1 5.14 0 5.55-.14L5.4-.91c-.32.13-.72.2-1.13.2-.8 0-1.1-.37-1.1-1.23v-2.31zm0 0"/></symbol><symbol overflow="visible" id="742fb673m"><path d="M3.33-3.42c.47 0 .8-.27.8-.8 0-.51-.33-.8-.8-.8-.47 0-.8.29-.8.8 0 .53.33.8.8.8zm0 3.5c.47 0 .8-.27.8-.78 0-.53-.33-.82-.8-.82-.47 0-.8.29-.8.82 0 .51.33.78.8.78zm0 0"/></symbol><symbol overflow="visible" id="742fb673o"><path d="M3.33.14c1.9 0 2.76-1.27 2.76-3.52 0-2.26-.86-3.53-2.76-3.53S.58-5.64.58-3.37c0 2.25.86 3.51 2.75 3.51zM3.3-.67c-1.25 0-1.73-.95-1.73-2.7 0-1.77.5-2.72 1.75-2.72s1.75.95 1.75 2.71c0 1.75-.5 2.7-1.77 2.7zm0 0"/></symbol><symbol overflow="visible" id="742fb673p"><path d="M3.92-7.14H1.36v.76h1.6v5.61H1.15V0H5.7v-.77H3.92zm0 0"/></symbol><symbol overflow="visible" id="742fb673q"><path d="M2.84.14C3.8.14 4.33-.26 4.6-.9h.07L4.8 0h.76v-7.14h-.95v2.95h-.08c-.28-.6-.86-.97-1.67-.97-1.48 0-2.27.99-2.27 2.64C.6-.84 1.36.14 2.84.14zm.22-.8c-.98 0-1.48-.59-1.48-1.84s.5-1.86 1.48-1.86c1.13 0 1.58.8 1.58 1.86S4.2-.66 3.06-.66zm0 0"/></symbol><symbol overflow="visible" id="742fb673r"><path d="M5.33-2.2v-.75h-4v.75zm0 0"/></symbol><symbol overflow="visible" id="742fb673s"><path d="M3.36.16c1.4 0 2.2-.6 2.2-1.57 0-.89-.54-1.22-1.47-1.39L3-3c-.67-.14-.86-.33-.86-.73 0-.5.4-.74 1.17-.74.83 0 1.19.27 1.27.8l.9-.05c-.12-1-.8-1.47-2.17-1.47-1.34 0-2.1.53-2.1 1.5 0 .81.45 1.22 1.52 1.44l1.04.2c.56.11.87.24.87.72 0 .52-.45.78-1.28.78-.95 0-1.36-.28-1.42-.87l-.9.06C1.07-.36 1.8.16 3.35.16zm0 0"/></symbol><symbol overflow="visible" id="742fb673t"><path d="M3.42-.86h-.08L1.77-5.02H.8L2.73 0h.41c-.33.95-.72 1.27-1.45 1.27-.22 0-.49-.04-.69-.08l-.1.73c.2.06.58.11.87.11 1.2 0 1.7-.7 2.21-2.03l1.94-5.02H5zm0 0"/></symbol><symbol overflow="visible" id="742fb673u"><path d="M5.95-6.77H1.1V0h.99v-2.92H5.3v-.77H2.08v-2.26h3.87zm0 0"/></symbol><symbol overflow="visible" id="742fb673v"><path d="M2.83.14c.94 0 1.5-.39 1.81-.95h.08l.1.81h.76v-3.38c0-1.23-.69-1.8-2.13-1.8-1.43 0-2.03.65-2.18 1.6l.93.1c.11-.6.44-.93 1.22-.93.85 0 1.22.32 1.22 1.04v.34l-1.81.2C1.6-2.7 1.1-2.17 1.1-1.28c0 .92.64 1.42 1.72 1.42zm.25-.77c-.67 0-1.02-.28-1.02-.74 0-.44.28-.72 1-.82l1.58-.19v.41c0 .8-.6 1.34-1.56 1.34zm0 0"/></symbol><symbol overflow="visible" id="742fb673w"><path d="M2.73.14c.9 0 1.43-.45 1.74-1.08h.06l.13.94h.8v-5.02h-.94v2.7c0 .98-.57 1.62-1.46 1.62-.75 0-1.1-.4-1.1-1.22v-3.1h-.93v3.32c0 1.17.55 1.84 1.7 1.84zm0 0"/></symbol><symbol overflow="visible" id="742fb673x"><path d="M5.08-5.16c-.94 0-1.58.43-1.9 1.3h-.09l-.07-1.16H1.05v.77h1.1v3.48H.96V0h3.96v-.77H3.1v-1.46c0-1.36.6-2.05 1.83-2.05.4 0 .76.08 1.1.17l.15-.87c-.33-.11-.7-.18-1.11-.18zm0 0"/></symbol><symbol overflow="visible" id="742fb673y"><path d="M2.16 0v-2.69c0-.98.6-1.6 1.46-1.6.74 0 1.07.4 1.07 1.2V0h.95v-3.31c0-1.17-.56-1.85-1.67-1.85-.9 0-1.44.46-1.75 1.08h-.06v-3.06H1.2V0zm0 0"/></symbol><symbol overflow="visible" id="742fb673z"><path d="M2.06 1.9V-.84h.05c.28.58.8.97 1.77.97 1.5 0 2.2-.98 2.2-2.66 0-1.65-.7-2.64-2.19-2.64-.97 0-1.5.44-1.78 1.05h-.08l-.1-.9H1.1v6.9zm1.5-2.56c-1.06 0-1.53-.8-1.53-1.86 0-1.04.47-1.84 1.53-1.84 1.11 0 1.53.61 1.53 1.84 0 1.27-.42 1.86-1.53 1.86zm0 0"/></symbol><symbol overflow="visible" id="742fb673A"><path d="M2.16 0v-2.67c0-.99.59-1.63 1.46-1.63.74 0 1.07.38 1.07 1.22V0h.95v-3.31c0-1.2-.56-1.85-1.67-1.85-.92 0-1.49.46-1.77 1.08h-.06l-.12-.94H1.2V0zm0 0"/></symbol><symbol overflow="visible" id="742fb673B"><path d="M1.45-2.95c0 2.56 1.08 4.37 3.67 4.84l.11-.67C3.28.86 2.43-.75 2.43-2.95s.85-3.82 2.8-4.16l-.1-.69c-2.6.49-3.68 2.3-3.68 4.85zm0 0"/></symbol><symbol overflow="visible" id="742fb673C"><path d="M3.33.14c1.65 0 2.6-1.1 2.6-3.52S4.99-6.9 3.34-6.9C1.67-6.9.72-5.8.72-3.37c0 2.4.95 3.51 2.6 3.51zm0-.84c-1.13 0-1.6-.85-1.6-2.67 0-1.86.47-2.7 1.6-2.7 1.12 0 1.6.84 1.6 2.7 0 1.82-.48 2.67-1.6 2.67zM3.3-2.64c.38 0 .56-.28.56-.72 0-.44-.18-.7-.56-.7-.39 0-.56.26-.56.7 0 .44.17.72.56.72zm0 0"/></symbol><symbol overflow="visible" id="742fb673D"><path d="M3.25.14c1.58 0 2.53-.69 2.53-1.95 0-1.19-.92-1.56-1.6-1.61v-.05A1.6 1.6 0 005.6-5.12c0-1.13-.87-1.79-2.3-1.79-1.62 0-2.32.82-2.45 1.88l.97.06c.13-.69.52-1.1 1.47-1.1.86 0 1.35.32 1.35 1.05 0 .86-.6 1.2-1.66 1.2h-.49v.79h.54c1.12 0 1.78.25 1.78 1.14 0 .78-.46 1.22-1.55 1.22-1.06 0-1.48-.4-1.63-1.1l-.98.07C.75-.56 1.56.14 3.25.14zm0 0"/></symbol><symbol overflow="visible" id="742fb673E"><path d="M1.45-7.1c1.96.33 2.8 1.94 2.8 4.15 0 2.2-.84 3.8-2.8 4.17l.11.67c2.58-.47 3.67-2.28 3.67-4.84 0-2.55-1.09-4.36-3.67-4.85zm0 0"/></symbol></defs><g fill="#515151"><use xlink:href="#742fb673a" x="172.665" y="153.5"/><use xlink:href="#742fb673b" x="226.55" y="153.5"/><use xlink:href="#742fb673c" x="244.035" y="153.5"/></g><use xlink:href="#742fb673d" x="279.785" y="153.5" fill="#fff"/><use xlink:href="#742fb673e" x="301.43" y="153.5" fill="#515151"/><g fill="#515151"><use xlink:href="#742fb673f" x="326.585" y="153.5"/><use xlink:href="#742fb673g" x="349.53" y="153.5"/><use xlink:href="#742fb673b" x="381.9" y="153.5"/><use xlink:href="#742fb673h" x="399.385" y="153.5"/></g><g fill="#fff"><use xlink:href="#742fb673i" x="250" y="252"/><use xlink:href="#742fb673j" x="256.667" y="252"/><use xlink:href="#742fb673k" x="263.334" y="252"/><use xlink:href="#742fb673l" x="270.001" y="252"/><use xlink:href="#742fb673m" x="276.668" y="252"/><use xlink:href="#742fb673n" x="283.335" y="252"/><use xlink:href="#742fb673o" x="290.002" y="252"/><use xlink:href="#742fb673p" x="296.669" y="252"/><use xlink:href="#742fb673q" x="303.336" y="252"/><use xlink:href="#742fb673r" x="310.003" y="252"/><use xlink:href="#742fb673s" x="316.67" y="252"/><use xlink:href="#742fb673l" x="323.337" y="252"/><use xlink:href="#742fb673t" x="330.004" y="252"/><use xlink:href="#742fb673p" x="336.671" y="252"/><use xlink:href="#742fb673j" x="343.338" y="252"/></g><g fill="#fff"><use xlink:href="#742fb673u" x="193.3333" y="266"/><use xlink:href="#742fb673j" x="200.0003" y="266"/><use xlink:href="#742fb673v" x="206.6673" y="266"/><use xlink:href="#742fb673l" x="213.3343" y="266"/><use xlink:href="#742fb673w" x="220.0013" y="266"/><use xlink:href="#742fb673x" x="226.6683" y="266"/><use xlink:href="#742fb673j" x="233.3353" y="266"/><use xlink:href="#742fb673m" x="240.0023" y="266"/><use xlink:href="#742fb673n" x="246.6693" y="266"/><use xlink:href="#742fb673o" x="253.3363" y="266"/><use xlink:href="#742fb673p" x="260.0033" y="266"/><use xlink:href="#742fb673q" x="266.6703" y="266"/><use xlink:href="#742fb673r" x="273.3373" y="266"/><use xlink:href="#742fb673s" x="280.0043" y="266"/><use xlink:href="#742fb673l" x="286.6713" y="266"/><use xlink:href="#742fb673t" x="293.3383" y="266"/><use xlink:href="#742fb673p" x="300.0053" y="266"/><use xlink:href="#742fb673j" x="306.6723" y="266"/><use xlink:href="#742fb673n" x="313.3393" y="266"/><use xlink:href="#742fb673y" x="320.0063" y="266"/><use xlink:href="#742fb673t" x="326.6733" y="266"/><use xlink:href="#742fb673z" x="333.3403" y="266"/><use xlink:href="#742fb673y" x="340.0073" y="266"/><use xlink:href="#742fb673j" x="346.6743" y="266"/><use xlink:href="#742fb673A" x="353.3413" y="266"/><use xlink:href="#742fb673n" x="360.0083" y="266"/><use xlink:href="#742fb673B" x="366.6753" y="266"/><use xlink:href="#742fb673s" x="373.3423" y="266"/><use xlink:href="#742fb673s" x="380.0093" y="266"/><use xlink:href="#742fb673C" x="386.6763" y="266"/><use xlink:href="#742fb673D" x="393.3433" y="266"/><use xlink:href="#742fb673E" x="400.0103" y="266"/></g></svg>