<?xml version='1.0' encoding='UTF-8'?>
<svg xmlns="http://www.w3.org/2000/svg" xmlns:xlink="http://www.w3.org/1999/xlink" width="310px" height="280px" viewBox="0 0 310 280" x="0px" y="0px" enable-background="new 0 0 310 280"><defs><symbol overflow="visible" id="d7d4f71ba"><path d="M2.83-31.6c-.4 0-.77.68-.77 1 0 .13.05.18.19.18 3.83.14 5.63 2.08 5.72 3.23.17 1.9.22 6.13.22 9 0 5.72-.17 12.2-.53 15.44-.2 1.36-1.99 1.9-3.47 1.94-.46 0-.55.72-.55.95 0 .08.05.13.19.13.86 0 1.53-.18 4.1-.18 2.15 0 2.74.1 5.48.1.59 0 1.17-.05 1.36-.28.17-.22.26-.68.26-.85 0-.1-.1-.14-.22-.14-.4 0-.45.05-1.31.05-2.25 0-2.75-.95-2.83-2.13-.28-3.14-.19-14.53-.23-20.78 0-1.36 0-1.39.14-1.39.1 0 .26.08.76.72C15.3-19.58 21.78-13.23 27.2-7.66c2.97 3.07 5.39 6.4 6.87 8.33.27.36.36.4.46.4.3 0 .67-.16.67-.45 0-.17.04-.93.04-1.56C35.2-3.56 35.2-6.3 35.2-9c0-6.44.19-12.83.5-17.55.17-2.56.76-3.37 4.04-3.64.46-.04.68-.73.68-1.1 0-.16-.1-.21-.18-.21-1.3 0-4.54.31-6.3.31-1.4 0-3.05-.17-4.23-.17-.4 0-.67.58-.67.84 0 .2 0 .29.4.33 2.88.32 3.5.99 3.55 2.61.05 1.7.1 3.6.1 5.58 0 2.66-.05 4.36-.05 8.31 0 2.63.1 4.11.1 6.08 0 .24 0 .4-.15.4-.09 0-.26-.12-.67-.57-4.19-4.64-13.37-13.5-18.76-20.2-2.61-3.25-2.93-3.33-3.74-3.33-2.12 0-4.69-.28-6.98-.28zm0 0"/></symbol><symbol overflow="visible" id="d7d4f71bb"><path d="M17.73-16.25c-1-2.69-3.01-4.63-5.71-4.63-6.85 0-10.58 6.16-10.58 11.61C1.44-4.4 4.36.45 9.98.45c3.2 0 6.35-2.08 7.52-4.6.14-.26.28-.66.28-.85 0-.27-.33-.63-.5-.63-.1 0-.14.1-.31.36A6.32 6.32 0 0111.7-2.3c-4.14 0-6.8-4-6.8-8.32 0-.68 0-2.16.37-2.2C7.1-12.96 18-12.48 18-14.68c0-.58-.14-1.13-.27-1.58zm-3.51 1.22c0 .36-.86.62-1.94.76-1.94.27-5.22.32-6.92.32-.1 0-.19-.05-.19-.22 0-.6.86-3.16 2.44-4.33a3.01 3.01 0 012.01-.63c3.43 0 4.6 2.93 4.6 4.1zm0 0"/></symbol><symbol overflow="visible" id="d7d4f71bc"><path d="M10.53-21.06C8.5-21.06 2.2-18 2.2-15.7c0 .45.2.86.72.86.55 0 1.44-.41 1.8-.77 1.17-1.17.4-3.16 3.34-3.16 2.78 0 4.1 1.9 4.1 5.68 0 1.17-.1 2.25-.14 2.78-3.74.73-10.58 2.08-10.58 6.17C1.44-.94 3.33.5 5.54.5c1.88 0 4.13-.95 6.26-2.66C12.1.04 13 .81 14.58.81c2.39 0 4.86-2.97 4.86-3.87 0-.1-.36-.27-.46-.27-.07 0-.26.17-.62.5-.72.63-1.27 1.08-2.16 1.08-1.07 0-1.26-1.44-1.26-2.94 0-3.81.67-7.42.67-11.73 0-2.85-2.78-4.64-5.08-4.64zM11.8-8.78c.03 0 .03.05.03.5 0 .67-.13 4.19-.13 5.17a6.8 6.8 0 01-3.78 1.44c-2.56 0-2.97-2.61-2.97-3.74 0-2.68 5.49-3.32 6.85-3.37zm0 0"/></symbol><symbol overflow="visible" id="d7d4f71bd"><path d="M16.3-16.38c.36.22.53.36.72.36.12 0 .21-.04.3-.14.82-.8 1.45-1.7 1.45-2.39 0-.22-.05-.39-.22-.57-.5-.55-2.75-1.8-5.5-1.8-2.83 0-6.3 1.84-8.28 3.95a11.83 11.83 0 00-3.02 8.02C1.75-3.7 5.08.58 10.53.58c2.4 0 6.44-1.52 7.83-4.31.19-.36.27-.63.27-.91 0-.27-.13-.8-.36-.8-.05 0-.08.03-.13.08-1.84 2.49-3.78 3.38-5.58 3.38-4.64 0-7.39-4.86-7.39-9.46 0-3.81 1.67-7.1 5.1-7.1 1.8 0 4.21.85 6.03 2.16zm0 0"/></symbol><symbol overflow="visible" id="d7d4f71be"><path d="M20.83-36.55c-.17 0-.36.14-.94.33-1.67.49-4.23.72-4.86 1.03-.45.22-.9.53-.9.81 0 .32.09.44.28.44.17 0 .98-.12 1.53-.12.62 0 1.15.12 1.25.53.18.9.31 5.62.31 9.33 0 4.17-.08 4.26-.27 4.3a8.99 8.99 0 00-3.73-.76C6.75-20.66 1.44-15.39 1.44-9 1.44-4.5 4.36.4 9.45.4c2.74 0 6.4-2.15 7.61-2.87.03 0 .03.03.03.27 0 .98-.17 2.2-.17 2.83 0 .35.36.59.53.59.2 0 3.83-.64 4.9-1.22a6.93 6.93 0 001.85-1.27c.1-.07.14-.21.14-.3 0-.13-.09-.27-.17-.27-.1 0-.28.09-.73.22-.72.23-1.57.4-2.02.4-1.03 0-1.22-.76-1.22-2.34 0-.8.05-1.85.05-3.1 0-7.25.27-19.84.86-26.68.17-2.03.27-2.25.27-2.61 0-.27-.27-.6-.55-.6zM7.73-17.59a5.35 5.35 0 013.3-1.04c2.38 0 5.03 1.3 5.99 3.24.07.19.07.67.07 4 0 2.66-.03 5.86-.07 7.75a9.6 9.6 0 01-4.79 1.53c-4.26 0-7.32-4.5-7.32-8.64 0-3.1 1.03-5.55 2.82-6.84zm0 0"/></symbol><symbol overflow="visible" id="d7d4f71bf"><path d="M8.38-21.19c-.2 0-.6.27-1.32.58-1.43.63-3.06 1.17-4.67 1.9-.4.16-.64.44-.64.71 0 .19.05.22.19.22.12 0 .98-.08 1.48-.08.72 0 1.3.08 1.4.36.13.67.26 4.9.26 9.63 0 5.98 0 6.7-2.28 7.15-.46.1-.64.63-.64.86 0 .13.04.17.14.17C2.75.31 4.23.1 7.88.1c2.65 0 3.59 0 3.59-.8 0-.15-.03-.2-.49-.23a9.27 9.27 0 01-2.48-.54c-.17-.15-.31-.58-.31-1.94 0-.81.4-11.56.45-12.69 0-.5 3.06-2.03 5.05-2.03 3.81 0 3.86 4.42 3.86 8.52 0 6.3-.1 8.3-2.7 8.9-.41.1-.58.58-.58.77 0 .1.04.22.14.22.53 0 1.25-.27 4.8-.27 1 0 1.8.05 2.43.05 1.36 0 1.9-.14 1.9-.82 0-.21-.13-.21-.46-.21-1.9 0-2.61-.05-2.61-1.68 0-.98.45-5.57.45-8.64 0-1.39-.1-2.87-.22-4.45.82-.72 3.6-2.25 5.53-2.25 3.16 0 3.64 3.95 3.64 8.5 0 2.97-.21 5.94-.57 7.34-.24.85-1.4 1.25-2.11 1.44-.5.14-.69.5-.69.77 0 .14.1.22.23.22.41 0 1.13-.22 4.82-.22 1.17 0 2.78.04 3.54.04.77 0 1.46-.23 1.46-.86 0-.14-.05-.17-1.1-.26-1.3-.1-2.25-.19-2.56-.5-.08-.1-.17-.27-.17-.67 0-.9.53-6.61.53-9.68 0-4.37-.72-8.51-4.45-8.51-2.07 0-5.68 1.81-8.28 3.66-.63-2.44-2.25-3.79-4.14-3.79-2.3 0-6.57 2.11-7.79 3.33-.14-.1-.14-.4-.14-.81.05-.81.33-2.34.33-2.66 0-.3-.19-.53-.4-.53zm0 0"/></symbol><symbol overflow="visible" id="d7d4f71bg"><path d="M8.06-32.72c-1.22 0-2.25 1.17-2.25 2.16 0 1.17.9 2.22 2.11 2.22 1.03 0 2.3-1.13 2.3-2.25 0-1.27-1.27-2.13-2.16-2.13zm.85 11.03c-.13 0-.49.22-1.08.5-1.8.85-3.28 1.44-5 2.07-.36.09-.63.54-.63.9 0 .13.05.17.2.17.2 0 1.33-.17 1.96-.17.45 0 .81.03.9.36.18.67.32 6.2.32 10.34 0 6.04-.22 6.08-2.02 6.58-.81.22-1.04.85-1.04.99s.14.17.23.17C3.02.22 4.35 0 7.38 0c1 0 1.8.05 2.43.05.86 0 1.4-.05 1.75-.27.24-.14.46-.36.46-.6 0-.09-.05-.12-.36-.16-.96-.15-2.7-.55-2.75-.65-.1-.12-.18-.48-.18-1.84 0-5.34.05-13 .41-16.42.05-.45.22-1.08.22-1.3 0-.28-.22-.5-.45-.5zm0 0"/></symbol><symbol overflow="visible" id="d7d4f71bh"><path d="M2.22 0v-5.38l-.1-1.18h.13L5.35 0H6.9v-8.1H5.8v5.26l.08 1.23h-.12l-3.1-6.5H1.12V0zm0 0"/></symbol><symbol overflow="visible" id="d7d4f71bi"><path d="M6.9-2.69v-.5C6.9-5.13 5.82-6.2 4-6.2 2.17-6.2 1.06-5 1.06-2.98c0 2.06 1.08 3.15 3 3.15C5.75.17 6.52-.5 6.8-1.64l-1.08-.13c-.24.75-.7 1.07-1.64 1.07-1.11 0-1.81-.64-1.88-1.99zM4-5.33c1.14 0 1.75.61 1.8 1.88H2.22c.1-1.28.7-1.88 1.78-1.88zm0 0"/></symbol><symbol overflow="visible" id="d7d4f71bj"><path d="M3.4.17C4.51.17 5.2-.3 5.57-.97h.08l.12.97h.9v-4.05c0-1.48-.82-2.15-2.54-2.15-1.73 0-2.44.75-2.6 1.9l1.1.11c.13-.7.52-1.1 1.47-1.1 1.01 0 1.47.37 1.47 1.23v.42l-2.17.23c-1.49.18-2.08.82-2.08 1.86 0 1.13.76 1.72 2.06 1.72zm.29-.92c-.81 0-1.2-.33-1.2-.9 0-.52.32-.87 1.2-.96l1.89-.23v.48c0 .95-.75 1.61-1.9 1.61zm0 0"/></symbol><symbol overflow="visible" id="d7d4f71bk"><path d="M4.02.17c1.7 0 2.56-.78 2.7-2.12l-1.08-.13c-.12.85-.6 1.3-1.6 1.3C2.79-.78 2.2-1.55 2.2-3c0-1.48.58-2.23 1.85-2.23 1 0 1.47.42 1.6 1.3l1.07-.12c-.16-1.33-.99-2.14-2.7-2.14-1.88 0-2.97 1.17-2.97 3.19 0 2 1.1 3.17 2.97 3.17zm0 0"/></symbol><symbol overflow="visible" id="d7d4f71bl"><path d="M3.42.17c1.13 0 1.77-.5 2.1-1.26h.07L5.75 0h.92v-8.58H5.53v3.56h-.08c-.34-.75-1.04-1.17-2.01-1.17C1.64-6.19.72-5 .72-3.02c0 2 .92 3.2 2.7 3.2zm.27-.95c-1.2 0-1.8-.74-1.8-2.22 0-1.52.6-2.23 1.78-2.23 1.35 0 1.9.95 1.9 2.23 0 1.27-.55 2.22-1.88 2.22zm0 0"/></symbol><symbol overflow="visible" id="d7d4f71bm"><path d="M1.94 0v-3.47c0-.97.2-1.69.87-1.69.49 0 .66.36.66 1.07V0H4.6v-3.47c0-.97.22-1.69.87-1.69.49 0 .68.35.68 1.07V0H7.3v-4.34c0-1.11-.35-1.85-1.35-1.85-.75 0-1.14.49-1.3 1.07h-.09c-.1-.61-.51-1.07-1.28-1.07-.73 0-1.12.49-1.28 1.07h-.08l-.3-.9H.8V0zm0 0"/></symbol><symbol overflow="visible" id="d7d4f71bn"><path d="M4.3-6.97c.5 0 .86-.28.86-.81S4.8-8.6 4.3-8.6c-.53 0-.86.28-.86.8 0 .54.33.82.86.82zm.6.95H1.82v.91h1.92v4.19H1.56V0h5.38v-.92H4.89zm0 0"/></symbol><symbol overflow="visible" id="d7d4f71bp"><path d="M1.1-8.1V0h2.54c2.44 0 3.63-1.25 3.63-4.05 0-2.84-1.2-4.06-3.52-4.06zM2.29-.96v-6.2H3.7c1.55 0 2.36.74 2.36 3.1 0 2.35-.81 3.1-2.36 3.1zm0 0"/></symbol><symbol overflow="visible" id="d7d4f71bq"><path d="M4.02.19c1.7 0 2.65-.72 2.65-1.88 0-1.06-.65-1.45-1.76-1.67L3.6-3.6c-.81-.16-1.03-.37-1.03-.87 0-.6.45-.88 1.4-.88 1 0 1.43.31 1.52.95l1.1-.06c-.16-1.2-.97-1.75-2.63-1.75-1.61 0-2.5.63-2.5 1.8 0 .97.53 1.47 1.81 1.72l1.25.23c.67.14 1.03.3 1.03.88 0 .62-.53.93-1.53.93-1.16 0-1.62-.32-1.7-1.04l-1.1.07C1.3-.43 2.17.2 4.02.2zm0 0"/></symbol><symbol overflow="visible" id="d7d4f71br"><path d="M2.47 2.27V-1h.06c.35.69.95 1.17 2.13 1.17 1.8 0 2.62-1.19 2.62-3.19 0-1.98-.83-3.17-2.6-3.17-1.18 0-1.8.53-2.15 1.27h-.08l-.15-1.1h-.97v8.29zm1.8-3.05C3-.78 2.44-1.75 2.44-3.02c0-1.26.56-2.21 1.83-2.21 1.34 0 1.84.71 1.84 2.21S5.6-.78 4.27-.78zm0 0"/></symbol><symbol overflow="visible" id="d7d4f71bs"><path d="M4.7-8.58H1.64v.92h1.92v6.74h-2.2V0h5.47v-.92H4.7zm0 0"/></symbol><symbol overflow="visible" id="d7d4f71bt"><path d="M4.1-1.03h-.08L2.1-6.02H.95L3.28 0h.49c-.4 1.14-.86 1.52-1.74 1.52-.26 0-.58-.04-.84-.1l-.11.9c.25.06.7.12 1.04.12 1.46 0 2.05-.85 2.66-2.44L7.1-6.02H6zm0 0"/></symbol></defs><use xlink:href="#d7d4f71ba" x="38.495" y="145"/><use xlink:href="#d7d4f71bb" x="78.905" y="145"/><use xlink:href="#d7d4f71bc" x="98.255" y="145"/><use xlink:href="#d7d4f71bd" x="117.74" y="145"/><use xlink:href="#d7d4f71bc" x="137.54" y="145"/><use xlink:href="#d7d4f71be" x="157.025" y="145"/><use xlink:href="#d7d4f71bb" x="181.775" y="145"/><use xlink:href="#d7d4f71bf" x="201.125" y="145"/><use xlink:href="#d7d4f71bg" x="238.475" y="145"/><use xlink:href="#d7d4f71bc" x="252.02" y="145"/><g fill-opacity=".33"><use xlink:href="#d7d4f71bh" x="83" y="230"/><use xlink:href="#d7d4f71bi" x="91.0004" y="230"/><use xlink:href="#d7d4f71bj" x="99.0008" y="230"/><use xlink:href="#d7d4f71bk" x="107.0012" y="230"/><use xlink:href="#d7d4f71bj" x="115.0016" y="230"/><use xlink:href="#d7d4f71bl" x="123.002" y="230"/><use xlink:href="#d7d4f71bi" x="131.0024" y="230"/><use xlink:href="#d7d4f71bm" x="139.0028" y="230"/><use xlink:href="#d7d4f71bn" x="147.0032" y="230"/><use xlink:href="#d7d4f71bj" x="155.0036" y="230"/><use xlink:href="#d7d4f71bo" x="163.004" y="230"/><use xlink:href="#d7d4f71bp" x="171.0044" y="230"/><use xlink:href="#d7d4f71bn" x="179.0048" y="230"/><use xlink:href="#d7d4f71bq" x="187.0052" y="230"/><use xlink:href="#d7d4f71br" x="195.0056" y="230"/><use xlink:href="#d7d4f71bs" x="203.006" y="230"/><use xlink:href="#d7d4f71bj" x="211.0064" y="230"/><use xlink:href="#d7d4f71bt" x="219.0068" y="230"/></g></svg>