<?xml version='1.0' encoding='UTF-8'?>
<svg xmlns="http://www.w3.org/2000/svg" xmlns:xlink="http://www.w3.org/1999/xlink" width="600px" height="300px" viewBox="0 0 600 300" x="0px" y="0px" enable-background="new 0 0 600 300"><defs><symbol overflow="visible" id="77947209a"><path d="M10.27-23.47c.14-.78 2.8-2.14 7.15-2.14a9.65 9.65 0 018.45 5.14 15.53 15.53 0 011.43 6.69c0 5.53-2.86 11.76-8.46 11.76-2.71 0-6.95-1.35-8.04-3.37-.66-1.24-.86-5.8-.86-10.02 0-3.76.2-7.28.33-8.06zM-.33-48.75c0 .45.27.52.72.52.72 0 1.9-.25 2.86-.25.72 0 1.56.06 1.63.57.51 4.22.65 11.64.65 19.32 0 12.8-.47 26.45-.72 28.26 0 .27.13.33.4.33.5 0 1.56-.33 2.85-.33.58 0 1.24.06 1.96.27 1.36.39 2.98.58 4.73.58 5.08 0 11.13-1.75 14.23-6.18 2.29-3.18 3.85-7.21 3.85-11.25 0-3.5-1.24-7.07-4.1-10a9.36 9.36 0 00-7.03-3.06c-3.3 0-7.14 1.5-11.5 4.03.27-10.98.4-16.18.72-23.14.06-1.23.4-2.6.4-3.44 0-.45-.52-.98-1-.98-.76 0-1.87.92-9.02 2.47-.2.08-.46.2-.58.47-.6 1.15-1.05 1.42-1.05 1.81zm0 0"/></symbol><symbol overflow="visible" id="77947209b"><path d="M17.16-3.13c.39 3.13 1.82 4.1 3 4.1 3.04 0 6.23-1.24 7.4-4.03.33-.77.64-1.81.72-2.4 0-.13-.47-.38-.72-.38-.26.06-2.14 2.78-3.84 2.78-1.42 0-1.81-1.24-1.81-3.63 0-5.6 1.5-10.14 1.5-17.17 0-3.44-3.97-7.08-7.82-7.08-3.7 0-12.46 4.55-12.46 8.32 0 .65.45 1.62 1.17 1.62.76 0 2.65-.78 3.5-1.23 2.28-1.24.26-3.58 2.28-5 .58-.4 1.23-.58 2.01-.58 1.43 0 3.05.64 4.43 2.08.96.96 1.3 4.42 1.3 7.2 0 1.56-.13 2.94-.27 3.64-3.9.6-8.97 1.62-11.96 3.25-2.4 1.23-3.25 2.6-3.25 5.02C2.34-2.14 4.36.83 8.58.83c2.86 0 6.1-1.5 8.58-3.96zm.2-8.82c0 1.1-.14 6.23-.2 7.07-2.27 1.7-4.1 2.35-5.46 2.35-2.53 0-3.45-2.35-3.45-4.55 0-1.5.45-2.94 1.83-3.78 2.2-1.36 4.94-2.2 6.95-2.47.33-.06.33.9.33 1.38zm0 0"/></symbol><symbol overflow="visible" id="77947209d"><path d="M26-21c0-4.42-2.4-9.48-9.1-9.48-9.43 0-14.95 9.3-14.95 17.6C1.95-5.83 5.98.85 13.97.85c5.72 0 10.6-3.18 11.37-7.46.08-.46.08-.79.08-1.32 0-.7-.72-1.1-1.1-1.1-.13 0-.21.07-.27.34-1.18 3.37-4.03 4.8-7.47 4.8-5.53 0-9.5-5.58-9.5-11.7 0-.46 0-.92.08-1.37.06-.84.39-1.3 1.09-1.3 8.13 0 16.13-.51 17.42-1.3.27-.12.33-.71.33-1.43zm-11.9-6.56c3.9 0 5.85 3.31 5.85 5.14 0 2.26-4.8 2.34-6.82 2.34-2.15 0-3.96-.08-5.33-.2-.25 0-.33-.13-.33-.4.72-4.41 4.17-6.88 6.64-6.88zm0 0"/></symbol><symbol overflow="visible" id="77947209e"><path d="M25.16-28.98a16.07 16.07 0 00-5-.79c-9.7 0-18.2 7.29-18.2 16.77C1.95-6.05 6.16.58 13.25.58c4.55 0 9.88-3.25 11.5-4.67.07 0 .13.12.13.39 0 1.03-.7 3.89-.7 5 0 .45.45.84.9.84.72 0 1.88-.78 9.1-2.08.98-.18 1.62-2.2 1.62-2.47 0-.26-.06-.45-.33-.45-.18 0-2.32.78-4.21.78-.72 0-1.18-.12-1.24-.51-.33-1.38-.51-6.7-.51-13.14 0-9.75.39-22.55.9-30.82.19-2.47.85-5.45.85-5.84 0-.33-.46-.84-.85-.84-.51 0-1.36.71-8.78 1.8-.33.09-.58.21-.97.73-.39.51-.72 1.3-.72 1.56 0 .33.27.45.4.45.71.06 4.02-.06 4.15.4.4 1.29.98 10.26.98 15.52 0 2.22-.06 3.79-.32 3.79zm-.6 7.8c.2 1.41.27 3.5.27 5.71 0 3.38-.19 7.16-.33 9.69a14.07 14.07 0 01-6.75 1.95c-6.64 0-10.4-6.5-10.4-12.54 0-5.08 2.92-10.08 8.38-10.08 3.38 0 7.02 1.95 8.83 5.26zm0 0"/></symbol><symbol overflow="visible" id="77947209c"><path d="M45.17-44.33c.33 3.7.4 8.97.45 14.11 0 .52-.12.84-.64.9-3.57.26-10.07.52-13.14.52-.7 0-.7-.39-.7-2.8 0-14.56 2.66-17.21 6.36-17.21 2.28 0 5.98 1.1 7.67 4.48zm-14.3-2.98a9.5 9.5 0 00-8.25-4.42c-2.85 0-5.4 1.03-6.56 1.75-7.03 4.42-8.51 9.03-8.51 13.84-.08 5.72-.92 7.67-3.07 8.45-1.56.58-2.28 1.24-2.28 1.88 0 .14.14.2.4.2.59 0 1.04-.06 2.54-.06.84 0 1.63 0 1.81.06.27.52.33 3.05.33 6.17 0 5-.2 11.13-.2 13.46 0 2.4-.64 3.9-3.9 4.48-.45.06-1.16.98-1.16 1.69 0 .14.12.26.26.26.7 0 2.33-.33 7.8-.33 3.37 0 4.67 0 5.65-.24.64-.2 1.63-1.18 1.63-1.63 0-.2-.14-.33-.27-.33-3.04 0-4.09-.51-4.36-.9-.39-.72-.51-8.27-.51-14.38 0-3.5.06-6.56.06-7.6 0-.32 0-.59.45-.71 1.5-.2 6.77-.52 10.14-.52 1.63 0 2.8.07 2.94.25.19.33.25 2.53.25 5.47 0 5.19-.18 12.16-.18 14.55 0 2.4-.72 3.72-3.13 4.42-.45.14-1.17 1.05-1.17 1.69 0 .14.12.26.26.26.64 0 1.43-.26 6.63-.26 4.36 0 5.78 0 6.95-.19.78-.13 1.69-1.17 1.69-1.69 0-.12-.13-.26-.31-.26-3.2 0-5.02-.58-5.27-.9-.39-.73-.53-9.18-.53-15.8 0-3.77.06-7.02.06-7.8.86-.13 1.83-.2 13.72-.2.72 0 .84.46.84 1.1 0 12.68 0 17.88-.24 20.35-.2 2.22-1.05 2.73-2.94 3.51-.77.33-1.1 1.5-1.1 1.75 0 .13.2.27.4.27h.12c2.67-.4 5.2-.52 7.22-.52 2.14 0 3.76.13 4.55.13.26 0 .45 0 .51-.07.33-.2 1.05-.71 1.38-1.68l.06-.2c0-.13-.06-.33-.27-.33-1.75 0-3.7 0-4.03-.13-.45-.2-.64-1.83-.64-3.58-.14-5.39-.39-13.57-.39-21.12 0-19.24.7-20.8.7-24.7 0-.32-.51-1.04-.97-1.04-.57 0-1.89 1.49-2.92 2.35-.12.12-.26.12-.39.12-.12 0-.26-.06-.51-.2a12.54 12.54 0 00-5.86-1.63c-4.94 0-7.86 3.91-9.42 4.96zm-4.15 5.58c0 1.43-.27 3.39-.4 6.7-.2 6.1.13 6.3-2.21 6.44-2.02.12-4.73.18-7.08.18-1.69 0-3.19-.06-4.16-.12-.45-.06-.53-.6-.53-3.84 0-9.7 1.24-16.05 6.5-16.05 1.96 0 5.47 1.56 7.1 3.83.58.98.78 1.76.78 2.86zm0 0"/></symbol><symbol overflow="visible" id="77947209g"><path d="M5.33-28.02c-.64.2-2.35 1.5-2.35 2.02 0 .13.15.19.4.19.45 0 1.68-.07 2.73-.07.78 0 1.5 0 1.62.15.27.25.33 3.3.33 6.68 0 4.94-.12 11.2-.2 13.46-.25 2.4-.7 3.57-3.77 4.09-.51.06-1.23 1.17-1.23 1.69 0 .14.12.26.27.26.96 0 2.14-.33 8.7-.33 4.15 0 5.39 0 6.37-.18.64-.13 1.88-1.24 1.88-1.75 0-.14 0-.27-.31-.27-3.4 0-6.05-.51-6.32-.9-.39-.72-.51-8.91-.51-15.35 0-3.7.06-6.83.06-7.67 0-.27 4.03-.4 6.23-.4 2.68 0 8.07.34 8.2.85.26.99.52 5.86.52 11.11 0 2.74-.06 5.6-.26 8-.19 2.47-.25 3.7-3.38 5-.65.33-.9 1.56-.9 1.83 0 .19.18.19.39.19 1.23 0 2.86-.58 7.73-.58 1.63 0 3.56.06 4.28.06.4 0 .66 0 1.05-.18.39-.2 1.03-.99 1.03-1.57 0-.12-.06-.26-.25-.26-1.77 0-4.3-.52-4.62-.64-.33-.14-.4-.2-.4-2.94 0-4.03-.06-7.08-.06-9.67.06-11.38.72-13.33.72-14.32 0-.39-.51-1.03-1.1-1.03h-.13c-8 1.7-9.49 1.49-18.47 1.82-.4 0-.52-.33-.52-.64 0-5.33.13-9.44.72-12.49 1.17-5.84 3.58-7.94 6.17-7.94 2.28 0 6.57.86 8.52 6.97.12.45.39.58.72.58 1.3 0 3.7-2.92 3.7-5.14 0-.4-.06-.64-.2-.97-2-4.16-5.06-5.39-8.05-5.39a15.8 15.8 0 00-7.87 2.4c-6.96 4.5-8.46 10.4-8.46 15.2 0 5.73-.9 7.56-2.98 8.13zm0 0"/></symbol><symbol overflow="visible" id="77947209h"><path d="M11.5-31.4c.6 0 1.38.65 1.38 1.04 0 .6-.46 3.19-.46 4.23 0 .4 0 .65.25.65.27 0 2.4-1.43 4.69-2.54 2.2-1.1 4.73-2.14 6.5-2.14 2.2 0 6.05 2.2 6.56 5.79.27 1.62.4 3.7.4 5.98 0 4.55-.4 10-.4 14.23 0 1.3.06 1.43.64 1.63.92.33 3.33.72 5.27.72.33 0 .33.06.33.31 0 .53-.64 1.44-1.1 1.56-.2.07-.72.07-1.5.07-1.5 0-3.97-.07-6.56-.07-5.53 0-6.64.4-7.03.4-.13 0-.25-.13-.25-.34 0-.24.39-1.48.9-1.62.79-.19 3.25-.52 3.44-2.14.78-5.98.99-10.4.99-13.27 0-1.68-.07-2.92-.13-3.56-.26-3.39-3.51-5.66-5.65-5.66-2.41 0-6.25 1.36-6.58 2.15-.25.57-1.16 11.56-1.16 18.71 0 2.74.13 2.8.4 2.93.3.14 2.98.45 4.66.45.2 0 .27.14.27.33 0 .65-.98 1.83-2.16 1.83-.76 0-2.14-.08-3.5-.08-4.75 0-7.15.53-7.67.53-.2 0-.39 0-.39-.2 0-.25.19-1.63.9-1.96 2.08-.97 2.29-1.75 2.41-3.1.33-3.85.33-6.38.33-9.7 0-4.93-.2-9.42-.33-10.4-.06-.4-.51-.52-1.03-.52-.86 0-1.95.33-2.94.33-.18 0-.39-.06-.39-.33 0-.71.66-2.07 1.24-2.34 2.54-1.1 4.3-1.94 5.86-2.86.9-.52 1.5-1.03 1.81-1.03zm0 0"/></symbol><symbol overflow="visible" id="77947209i"><path d="M18.2-31.4c-4.36 0-8.26 3.84-10.65 7.09-3 3.97-4.75 8.72-4.75 13.84C2.8-4.94 5.14 1.3 11.5 1.3c3.19 0 6.19-1.75 8.84-4.28a22.4 22.4 0 007.1-16.64c0-3-.6-5.93-2.49-8.46a8.24 8.24 0 00-6.75-3.31zm-2.14 3.84c4.22 0 5.97 4.15 5.97 9.17 0 1.03-.06 2.2-.19 3.31-.53 4.94-3.25 12.55-8.26 12.55-3.56 0-5.4-5.4-5.4-8.9 0-3.85 1-8.34 2.74-11.59.97-1.8 2.6-4.54 5.14-4.54zm0 0"/></symbol><symbol overflow="visible" id="77947209k"><path d="M17.94-31.2c-3.7 0-6.69 1.95-9.63 5.26-4.6 5.2-6.3 9.96-6.3 15.61 0 5.78 1.63 11.63 8.52 11.63a7.9 7.9 0 003.52-.78c2.32-1.24 5.64-5.4 6.95-7.47.13-.2.19-.52.19-.72 0-.58-.33-1.11-.64-1.11-.2 0-.6.78-2.4 2.34-1.63 1.44-3.59 2.67-5.27 2.67a4.89 4.89 0 01-3.7-1.89C7.85-7.28 7.4-9.75 7.4-12.28c0-2.8.59-6.64 1.95-9.81 1.23-2.94 3.12-5.2 5.14-5.2 2.4 0 5.84 3.24 6.63 3.24 1.17 0 2.34-2.67 2.34-3.84 0-1.88-2.61-3.31-5.53-3.31zm0 0"/></symbol><symbol overflow="visible" id="77947209l"><path d="M17.69-31.33c-2.94 0-6.05 1.95-8.66 4.49-4.87 4.87-7.01 10.32-7.01 16.76 0 6.05 2.46 11.25 7.8 11.25 1.55 0 3.45-.39 5.38-1.44 2.86-1.54 5.8-4.67 6.58-6.1.19-.32.25-.65.25-.91 0-.58-.25-1.03-.51-1.03-.07 0-.13.06-.2.12-2.09 2.08-5.65 4.55-8.45 4.55-3.84 0-5.59-3.77-5.59-8.25 0-1.17 0-1.83.52-1.9 2.28-.26 7.4-1.88 10.6-3.76 3.38-2.01 5.46-5.47 5.46-7.67 0-3.9-2.55-6.1-6.17-6.1zm-9.9 15.74c-.24 0-.24-.2-.24-.54 0-.84.76-4.09 1.87-6.43.85-1.82 2.02-3.57 2.92-4.22a5.42 5.42 0 012.68-.58c2.07 0 4.15 1.03 4.15 3.25 0 1.1-.45 2.4-1.23 3.17-2.53 2.61-8.64 5.35-10.14 5.35zm0 0"/></symbol><symbol overflow="visible" id="77947209j"><path d="M22.75-47.19c2.4 0 4.81 1.17 5.98 2.47.58.66.64.84.64 1.11 0 .25-.18.52-.7 1.23-.65.91-1.17 1.82-1.95 3.44-1.44 3.13-1.9 6.11-2.22 8.25-.13.78-.19 1.05-.58 1.05-.39 0-1.69.06-3.45.06-1.75 0-5.97-.12-6.69-.19-.65-.06-.65-.45-.65-.78 0-.39.78-4.75 1.37-7.01 1.48-5.8 3.9-9.63 8.25-9.63zm2.47-3.84c-2.8 0-5.33 1.37-7.67 3.19-6.24 4.93-8.46 11.43-9.43 17.87-.06.45-.96.45-2.28.45-1.48 0-1.8.14-2.14.4-.26.2-.64 1.17-.64 1.5 0 .26 0 .45.19.57.19.2 1.56.47 3.58.47.64 0 .72.19.72.77 0 .6-.53 4.42-.78 6.5C5.72-11.71 5 4.49 2.92 12.03 2.08 15.2.66 15.86-2.2 15.86c-.86 0-2.16-.4-2.8-.4-.84 0-2.34 1.57-2.34 3.71 0 1.17 1.62 1.69 3.18 1.69 4.29 0 7.35-4.03 10.2-8.83 2.48-4.17 3.2-10.67 4.23-17.62 1.04-6.57 1.56-13.46 2.21-19.63.13-1.3.13-1.36 1.18-1.36.51 0 2.32.13 3.7.13 3.58 0 5.66-.07 5.9-.07.54 0 .6.2.6.64 0 .54-.33 2.08-1.11 9.5-.84 7.8-1.95 17.88-3.25 24.44-.9 4.67-1.69 7.02-4.55 7.02-1.56 0-4.3-1.11-4.93-1.11-.99 0-2.41 2.1-2.41 3.39 0 1.56 2.08 2.2 3.95 2.2 2.1 0 3.52-.64 5.4-2.26a28.43 28.43 0 006.12-7.94c2.34-4.94 3.44-14.3 4.36-22.55.58-5.2.97-9.69 1.48-12.69.06-.45.33-.57.6-.57.3 0 1.23.06 4.8.06 2.27 0 4.74-.19 6.12-.19.58 0 .76.31.76 1.1 0 1.82-1.42 7.28-2.2 10.59-1.17 4.81-2.4 9.89-2.4 13.66 0 1.35.77 2.67 2.46 2.67 1.75 0 3.85-1.17 5.86-3.19 1.49-1.56 4.02-5.4 4.02-6.1 0-.4-.25-.67-.46-.67-.3 0-.84.58-2.01 1.63-1.49 1.36-3.17 2.73-3.95 2.73-.6 0-.72-.45-.72-1.1 0-2.02 1.03-5.85 2.08-10.08.96-3.83 2.53-9.04 2.53-12.86 0-1.63-.85-2.1-1.96-2.1-1.3 0-3.56.47-7.92.6-1.69.06-3.84.06-6.5.06-.51 0-.51-.27-.51-.78 0-1.17.7-8.97 3.56-13 1.56-2.27 3.25-2.86 5.08-2.86 2.07 0 4.22 1.5 5.59 3.7.45.72.84.72 1.3.72 1.23 0 3.3-1.1 3.3-3.97 0-2.01-3.04-4.94-6.82-4.94-2.4 0-5 1.3-7.08 2.74-.78.51-.84.51-1.04.51-.33 0-.46-.18-1.49-1.17-1.89-1.75-4.56-2.34-6.7-2.34zm0 0"/></symbol><symbol overflow="visible" id="77947209m"><path d="M3.83 0v-5.95H6.2v-.82H.45v.82h2.4V0zm0 0"/></symbol><symbol overflow="visible" id="77947209n"><path d="M5.75-2.23v-.43c0-1.6-.9-2.51-2.42-2.51S.87-4.16.87-2.48c0 1.71.91 2.62 2.5 2.62 1.43 0 2.07-.56 2.29-1.52l-.9-.09c-.18.61-.59.9-1.35.9-.94 0-1.52-.54-1.58-1.66zm-2.4-2.2c.93 0 1.43.5 1.48 1.55H1.84c.08-1.07.6-1.56 1.5-1.56zm0 0"/></symbol><symbol overflow="visible" id="77947209o"><path d="M1.83 0l1.42-2h.06l1.46 2H5.8L4-2.53l1.78-2.49H4.8L3.42-3.08h-.08l-1.4-1.94H.89l1.78 2.49L.84 0zm0 0"/></symbol><symbol overflow="visible" id="77947209p"><path d="M5.52-4.25v-.77H3.17v-1.56h-.81l-.14 1.56H.75v.77h1.47v2.4c0 1.3.48 1.94 1.84 1.94C4.6.1 5.14 0 5.55-.14L5.4-.91c-.32.13-.72.2-1.13.2-.8 0-1.1-.37-1.1-1.23v-2.31zm0 0"/></symbol><symbol overflow="visible" id="77947209q"><path d="M3.33-3.42c.47 0 .8-.27.8-.8 0-.51-.33-.8-.8-.8-.47 0-.8.29-.8.8 0 .53.33.8.8.8zm0 3.5c.47 0 .8-.27.8-.78 0-.53-.33-.82-.8-.82-.47 0-.8.29-.8.82 0 .51.33.78.8.78zm0 0"/></symbol><symbol overflow="visible" id="77947209s"><path d="M3.9.14c1.48 0 2.18-.98 2.18-2.64 0-1.67-.7-2.66-2.17-2.66-.91 0-1.49.41-1.79 1h-.06v-2.98h-.95V0h.81l.11-.9h.06c.29.63.82 1.04 1.82 1.04zm-.32-.8c-1.08 0-1.55-.8-1.55-1.84 0-1.06.47-1.86 1.55-1.86 1.1 0 1.51.61 1.51 1.86S4.64-.66 3.58-.66zm0 0"/></symbol><symbol overflow="visible" id="77947209t"><path d="M2.83.14c.94 0 1.5-.39 1.81-.95h.08l.1.81h.76v-3.38c0-1.23-.69-1.8-2.13-1.8-1.43 0-2.03.65-2.18 1.6l.93.1c.11-.6.44-.93 1.22-.93.85 0 1.22.32 1.22 1.04v.34l-1.81.2C1.6-2.7 1.1-2.17 1.1-1.28c0 .92.64 1.42 1.72 1.42zm.25-.77c-.67 0-1.02-.28-1.02-.74 0-.44.28-.72 1-.82l1.58-.19v.41c0 .8-.6 1.34-1.56 1.34zm0 0"/></symbol><symbol overflow="visible" id="77947209u"><path d="M4.63-6.5c.45 0 .98.08 1.39.2l.2-.72a5.3 5.3 0 00-1.64-.26c-1.52 0-2.16.56-2.16 1.87v.4H.9v.76h1.53V0h.94v-4.25h2.53v-.77H3.36v-.3c0-.84.33-1.18 1.27-1.18zm0 0"/></symbol><symbol overflow="visible" id="77947209v"><path d="M3.92-7.14H1.36v.76h1.6v5.61H1.15V0H5.7v-.77H3.92zm0 0"/></symbol><symbol overflow="visible" id="77947209w"><path d="M2.84.14C3.8.14 4.33-.26 4.6-.9h.07L4.8 0h.76v-7.14h-.95v2.95h-.08c-.28-.6-.86-.97-1.67-.97-1.48 0-2.27.99-2.27 2.64C.6-.84 1.36.14 2.84.14zm.22-.8c-.98 0-1.48-.59-1.48-1.84s.5-1.86 1.48-1.86c1.13 0 1.58.8 1.58 1.86S4.2-.66 3.06-.66zm0 0"/></symbol><symbol overflow="visible" id="77947209x"><path d="M3.58-5.81c.42 0 .72-.22.72-.67 0-.44-.3-.68-.72-.68-.44 0-.72.24-.72.68 0 .45.28.67.72.67zm.5.8H1.52v.76h1.6v3.48h-1.8V0h4.46v-.77h-1.7zm0 0"/></symbol><symbol overflow="visible" id="77947209y"><path d="M2.16 0v-2.67c0-.99.59-1.63 1.46-1.63.74 0 1.07.38 1.07 1.22V0h.95v-3.31c0-1.2-.56-1.85-1.67-1.85-.92 0-1.49.46-1.77 1.08h-.06l-.12-.94H1.2V0zm0 0"/></symbol><symbol overflow="visible" id="77947209z"><path d="M3.33.14c1.62 0 2.5-.95 2.5-2.66 0-1.68-.88-2.64-2.5-2.64-1.63 0-2.5.96-2.5 2.64 0 1.7.87 2.66 2.5 2.66zm0-.77c-1.06 0-1.52-.6-1.52-1.89 0-1.28.46-1.87 1.52-1.87 1.08 0 1.53.6 1.53 1.87 0 1.29-.45 1.9-1.53 1.9zm0 0"/></symbol><symbol overflow="visible" id="77947209A"><path d="M3.34.14c1.43 0 2.13-.66 2.25-1.78l-.89-.1c-.1.7-.5 1.08-1.34 1.08-1.03 0-1.52-.64-1.52-1.84 0-1.23.47-1.86 1.52-1.86.84 0 1.23.36 1.34 1.08l.9-.1c-.13-1.09-.82-1.78-2.26-1.78-1.56 0-2.46.97-2.46 2.66 0 1.66.9 2.64 2.46 2.64zm0 0"/></symbol><symbol overflow="visible" id="77947209B"><path d="M5.95-6.77H1.1V0h.99v-2.92H5.3v-.77H2.08v-2.26h3.87zm0 0"/></symbol><symbol overflow="visible" id="77947209C"><path d="M2.73.14c.9 0 1.43-.45 1.74-1.08h.06l.13.94h.8v-5.02h-.94v2.7c0 .98-.57 1.62-1.46 1.62-.75 0-1.1-.4-1.1-1.22v-3.1h-.93v3.32c0 1.17.55 1.84 1.7 1.84zm0 0"/></symbol><symbol overflow="visible" id="77947209D"><path d="M5.08-5.16c-.94 0-1.58.43-1.9 1.3h-.09l-.07-1.16H1.05v.77h1.1v3.48H.96V0h3.96v-.77H3.1v-1.46c0-1.36.6-2.05 1.83-2.05.4 0 .76.08 1.1.17l.15-.87c-.33-.11-.7-.18-1.11-.18zm0 0"/></symbol><symbol overflow="visible" id="77947209E"><path d="M3.42.14c1.61 0 2.56-.75 2.56-2 0-1.1-.67-1.6-1.95-1.86l-.97-.2c-.87-.17-1.23-.49-1.23-1.11 0-.7.54-1.11 1.5-1.11 1.06 0 1.51.34 1.69 1.23l.9-.09c-.17-1.28-.98-1.9-2.6-1.9C1.79-6.9.9-6.18.9-4.98c0 1.06.66 1.66 1.88 1.9l1.01.2c.85.17 1.25.4 1.25 1.09 0 .73-.6 1.16-1.6 1.16-1.07 0-1.66-.4-1.8-1.24l-.94.1C.83-.53 1.75.13 3.42.13zm0 0"/></symbol><symbol overflow="visible" id="77947209F"><path d="M3.16 2.03c1.67 0 2.4-.86 2.4-2.51v-4.54h-.81l-.13.91h-.06c-.26-.58-.8-1.05-1.73-1.05-1.42 0-2.24 1-2.24 2.52 0 1.6.75 2.56 2.2 2.56.94 0 1.5-.5 1.77-1.03h.05v.72c0 1.17-.42 1.67-1.45 1.67-.93 0-1.3-.34-1.41-.89L.8.5c.12.96.87 1.54 2.36 1.54zM3.06-.8c-.98 0-1.48-.57-1.48-1.82 0-1.13.5-1.75 1.48-1.75 1.06 0 1.58.76 1.58 1.75 0 .95-.56 1.82-1.58 1.82zm0 0"/></symbol><symbol overflow="visible" id="77947209G"><path d="M3.36.16c1.4 0 2.2-.6 2.2-1.57 0-.89-.54-1.22-1.47-1.39L3-3c-.67-.14-.86-.33-.86-.73 0-.5.4-.74 1.17-.74.83 0 1.19.27 1.27.8l.9-.05c-.12-1-.8-1.47-2.17-1.47-1.34 0-2.1.53-2.1 1.5 0 .81.45 1.22 1.52 1.44l1.04.2c.56.11.87.24.87.72 0 .52-.45.78-1.28.78-.95 0-1.36-.28-1.42-.87l-.9.06C1.07-.36 1.8.16 3.35.16zm0 0"/></symbol><symbol overflow="visible" id="77947209H"><path d="M1.45-2.95c0 2.56 1.08 4.37 3.67 4.84l.11-.67C3.28.86 2.43-.75 2.43-2.95s.85-3.82 2.8-4.16l-.1-.69c-2.6.49-3.68 2.3-3.68 4.85zm0 0"/></symbol><symbol overflow="visible" id="77947209I"><path d="M1.45-7.1c1.96.33 2.8 1.94 2.8 4.15 0 2.2-.84 3.8-2.8 4.17l.11.67c2.58-.47 3.67-2.28 3.67-4.84 0-2.55-1.09-4.36-3.67-4.85zm0 0"/></symbol></defs><g fill="#515151"><use xlink:href="#77947209a" x="71.4275" y="153.5"/><use xlink:href="#77947209b" x="106.0075" y="153.5"/></g><use xlink:href="#77947209c" x="134.1525" y="153.5" fill="#fff"/><g fill="#515151"><use xlink:href="#77947209d" x="190.8325" y="153.5"/><use xlink:href="#77947209e" x="218.7825" y="153.5"/><use xlink:href="#77947209f" x="254.5325" y="153.5"/></g><use xlink:href="#77947209g" x="274.0325" y="153.5" fill="#fff"/><use xlink:href="#77947209h" x="313.4875" y="153.5" fill="#515151"/><g fill="#515151"><use xlink:href="#77947209d" x="349.8875" y="153.5"/><use xlink:href="#77947209f" x="377.8375" y="153.5"/></g><use xlink:href="#77947209i" x="397.3375" y="153.5" fill="#515151"/><use xlink:href="#77947209j" x="427.1075" y="153.5" fill="#fff"/><g fill="#515151"><use xlink:href="#77947209k" x="478.7175" y="153.5"/><use xlink:href="#77947209l" x="502.8325" y="153.5"/></g><g fill="#fff"><use xlink:href="#77947209m" x="216.6667" y="252"/><use xlink:href="#77947209n" x="223.3337" y="252"/><use xlink:href="#77947209o" x="230.0007" y="252"/><use xlink:href="#77947209p" x="236.6677" y="252"/><use xlink:href="#77947209q" x="243.3347" y="252"/><use xlink:href="#77947209r" x="250.0017" y="252"/><use xlink:href="#77947209s" x="256.6687" y="252"/><use xlink:href="#77947209t" x="263.3357" y="252"/><use xlink:href="#77947209u" x="270.0027" y="252"/><use xlink:href="#77947209u" x="276.6697" y="252"/><use xlink:href="#77947209v" x="283.3367" y="252"/><use xlink:href="#77947209n" x="290.0037" y="252"/><use xlink:href="#77947209w" x="296.6707" y="252"/><use xlink:href="#77947209r" x="303.3377" y="252"/><use xlink:href="#77947209u" x="310.0047" y="252"/><use xlink:href="#77947209x" x="316.6717" y="252"/><use xlink:href="#77947209y" x="323.3387" y="252"/><use xlink:href="#77947209n" x="330.0057" y="252"/><use xlink:href="#77947209r" x="336.6727" y="252"/><use xlink:href="#77947209z" x="343.3397" y="252"/><use xlink:href="#77947209u" x="350.0067" y="252"/><use xlink:href="#77947209u" x="356.6737" y="252"/><use xlink:href="#77947209x" x="363.3407" y="252"/><use xlink:href="#77947209A" x="370.0077" y="252"/><use xlink:href="#77947209n" x="376.6747" y="252"/></g><g fill="#fff"><use xlink:href="#77947209B" x="186.6667" y="266"/><use xlink:href="#77947209n" x="193.3337" y="266"/><use xlink:href="#77947209t" x="200.0007" y="266"/><use xlink:href="#77947209p" x="206.6677" y="266"/><use xlink:href="#77947209C" x="213.3347" y="266"/><use xlink:href="#77947209D" x="220.0017" y="266"/><use xlink:href="#77947209n" x="226.6687" y="266"/><use xlink:href="#77947209q" x="233.3357" y="266"/><use xlink:href="#77947209r" x="240.0027" y="266"/><use xlink:href="#77947209E" x="246.6697" y="266"/><use xlink:href="#77947209p" x="253.3367" y="266"/><use xlink:href="#77947209t" x="260.0037" y="266"/><use xlink:href="#77947209y" x="266.6707" y="266"/><use xlink:href="#77947209w" x="273.3377" y="266"/><use xlink:href="#77947209t" x="280.0047" y="266"/><use xlink:href="#77947209D" x="286.6717" y="266"/><use xlink:href="#77947209w" x="293.3387" y="266"/><use xlink:href="#77947209r" x="300.0057" y="266"/><use xlink:href="#77947209v" x="306.6727" y="266"/><use xlink:href="#77947209x" x="313.3397" y="266"/><use xlink:href="#77947209F" x="320.0067" y="266"/><use xlink:href="#77947209t" x="326.6737" y="266"/><use xlink:href="#77947209p" x="333.3407" y="266"/><use xlink:href="#77947209C" x="340.0077" y="266"/><use xlink:href="#77947209D" x="346.6747" y="266"/><use xlink:href="#77947209n" x="353.3417" y="266"/><use xlink:href="#77947209G" x="360.0087" y="266"/><use xlink:href="#77947209r" x="366.6757" y="266"/><use xlink:href="#77947209H" x="373.3427" y="266"/><use xlink:href="#77947209v" x="380.0097" y="266"/><use xlink:href="#77947209x" x="386.6767" y="266"/><use xlink:href="#77947209F" x="393.3437" y="266"/><use xlink:href="#77947209t" x="400.0107" y="266"/><use xlink:href="#77947209I" x="406.6777" y="266"/></g></svg>