<?xml version='1.0' encoding='UTF-8'?>
<svg xmlns="http://www.w3.org/2000/svg" xmlns:xlink="http://www.w3.org/1999/xlink" width="600px" height="300px" viewBox="0 0 600 300" x="0px" y="0px" enable-background="new 0 0 600 300"><defs><symbol overflow="visible" id="c5c4a664a"><path d="M8.58-46.8c-.58 0-1.17.13-1.24.58a38.22 38.22 0 01-1.23 5.33c-.52 1.77-1.5 4.81-1.5 5.2 0 .6.98.99 2.22 1.05.25 0 .39-.06.58-.66 1.82-5.06 3.12-6.37 7.21-6.37 3.32 0 4.36.08 6.05.08 1.36 0 2.02 0 2.08 1.68.06 2.47.06 11.63.06 17.49 0 5.84 0 14.81-.12 17.36-.13 2-3.19 2.72-5.14 2.98-.46.06-.52.13-.72.46-.19.32-.52 1.3-.52 1.89 0 .18.27.18.46.18.59 0 4.48-.45 8.06-.51 3.37 0 8.78.33 9.62.33.2 0 .33 0 .52-.27.2-.27.66-1.23.66-2.08 0-.12 0-.26-.46-.33-.78-.12-5.98-.12-6.05-2.53-.14-4.1-.2-8.51-.2-17.3 0-4.54 0-14.87.06-17.67 0-1.17.54-1.68 1.18-1.76 2.34-.13 4.8-.13 5.98-.13 6.3 0 6.69.33 7.4 6.7.07.58.91.7 1.57.7.45 0 .84-.12.84-.57 0-2.53.13-4.6.33-6.23.33-2.8.72-4.42.72-4.88 0-.47-.84-.47-1.44-.47-.39 0-.64.08-.78.14-.58.25-.97 1.03-2.08 1.18-1.3.18-3.83.18-5.84.18-.72 0-2.28.07-16.9.07-3.32 0-6.63-.07-8.4-.13-.84-.06-1.48-1.1-1.69-1.36-.18-.26-.64-.33-1.3-.33zm0 0"/></symbol><symbol overflow="visible" id="c5c4a664b"><path d="M15.67.66c10.66 0 16.95-7.82 16.95-15.94 0-7.2-5.18-15.08-13.64-15.08-8.51 0-17.23 7.28-17.23 16.13C1.75-6.83 6.95.66 15.67.66zm1.75-2.35c-5.39 0-9.23-5.53-9.23-13.33 0-6.56 3.06-12.8 8.25-12.8 6.43 0 9.75 6.43 9.75 13.65 0 5.39-1.42 12.48-8.77 12.48zm0 0"/></symbol><symbol overflow="visible" id="c5c4a664e"><path d="M2.4.72c.85 0 2.54-.66 8.7-.66 3.2 0 3.65 0 3.8-.06.5-.19 1.41-1.1 1.41-1.75 0-.4-.25-.4-.39-.4-1.75 0-3.58-.05-3.89-.2-.26-.12-.53-.18-.6-2.92a728.8 728.8 0 01-.24-18.53c0-18.51.76-28.07.76-28.92 0-.33-.45-1.03-1.03-1.03-.45 0-3.19 1.69-8.58 3.7-.65.25-1.3 1.75-1.3 2.08 0 .19.13.33.26.33.98 0 2.4-.27 3.64-.27.39 0 .78.07.84.4.6 5.2.84 15.01.84 24.04 0 7.74-.18 14.83-.45 17.94-.25 3.06-.72 3.19-3.37 3.97-.2.06-.33.12-.46.39A3.75 3.75 0 001.9.45c0 .13.13.27.52.27zm0 0"/></symbol><symbol overflow="visible" id="c5c4a664f"><path d="M5.98-25.88c0 1.96 1.3 3.46 3.2 3.46 2.2 0 3.95-2.02 3.95-4.24a3.3 3.3 0 00-3.26-3.43c-2.26 0-3.89 1.75-3.89 4.21zm0 23.08c0 1.96 1.3 3.46 3.2 3.46 2.2 0 3.95-2.02 3.95-4.24a3.3 3.3 0 00-3.26-3.44c-2.26 0-3.89 1.75-3.89 4.22zm0 0"/></symbol><symbol overflow="visible" id="c5c4a664i"><path d="M10.02-52.4c-1.18 0-2.55.4-2.55 1.18 0 9.16.08 24.64.08 47.97 0 12.6-.08 18.84-.08 20.4 0 .79.08 1.12 1.23 1.12 1.18 0 2.35-.33 2.35-1.11 0-1.24-.07-29.11-.07-48.7 0-10.32.07-16.76.07-19.68 0-.78-.25-1.17-1.03-1.17zm0 0"/></symbol><symbol overflow="visible" id="c5c4a664c"><path d="M13.58-34.84c0 .26-.4 1.68-.7 3-.2.9-.46 2.2-.46 2.86 0 .25.19.57.58.57 4.22 0 7.34-.45 8.45-.45.4 0 .58 0 .58.45 0 .97-1.23 3.25-2.01 3.38-1.24.33-8.07 0-8.07.53 0 2.33-.12 6.75-.12 10.78 0 2.53.06 4.88.2 6.64.19 3.11 1.81 4.22 3.5 4.22 1.44 0 3.31-.84 4.69-1.83 1.1-.76 1.36-1.15 1.62-1.15.2 0 .25.39.25.78 0 1.62-1.54 3.37-3.7 4.54a12.6 12.6 0 01-5.9 1.7c-4.1 0-6.18-2.54-6.18-8.26 0-6.58.77-13.6.77-16.25 0-.78-.06-1.37-.25-1.62-.2-.2-.66-.2-1.11-.2-1.56 0-3.13.45-3.38.45-.14 0-.26-.25-.26-.52 0-.6.51-1.83 1.69-2.4 4.54-2.29 6.1-4.43 8.57-8 .08-.13.2-.2.33-.2.46 0 .9.52.9.98zm0 0"/></symbol><symbol overflow="visible" id="c5c4a664d"><path d="M16.31-3.13c.52 3.65 1.63 4.18 3.52 4.18 3.05 0 6.17-1.83 7.34-4.63.33-.78.72-2.01.72-2.34 0-.19-.33-.46-.6-.46-.24 0-.5.4-.9.85-.9.98-2.34 2.47-3.45 2.47-1.42 0-1.82-1.1-1.82-3.38 0-4.28 1.63-11.83 1.63-16.43 0-2.22-.19-3.65-2.08-5.54-1.44-1.42-3.37-2.53-5.47-2.53-2.01 0-5.84 1.63-8.57 3.77-1.88 1.5-3.11 3.12-3.2 4.81 0 .33.15.9.73.9.65 0 2.86-1.1 3.64-1.74 1.5-1.18.6-2.99 1.56-3.7.58-.4 1.44-1 2.6-1 1.7 0 3.45 1.24 4.16 2.74.58 1.18.79 4.36.79 7.1 0 1.62-.08 3.04-.2 3.7-3.71.58-8.26 1.55-11.18 3.05-2.55 1.3-3.39 2.86-3.39 5.2C2.14-1.8 4.61.66 8.2.66c2.73 0 5.86-1.38 8.12-3.79zm.33-8.18c-.06 1.1-.27 5.6-.33 6.44-2.14 1.62-3.83 2.34-5.12 2.34C8.84-2.53 8-4.61 8-6.77c0-1.42.4-2.59 1.69-3.43a17.7 17.7 0 016.62-2.47c.33-.06.33.9.33 1.36zm0 0"/></symbol><symbol overflow="visible" id="c5c4a664h"><path d="M19.1-24.83c-4.08-2.4-8.7-6.23-8.7-10.86 0-3.89 3.38-6.37 6.9-6.37a7.42 7.42 0 017.14 7.28c0 3.19-1.69 7.16-5.33 9.95zm-3.04 4.75c4.88 2.6 9.42 6.3 9.42 11.56 0 4.7-3.84 7.47-7.87 7.47A8.19 8.19 0 019.3-9.42c0-3.58 1.8-8 6.76-10.66zm-1.7-1.1c-5.9 2.73-10.4 6.16-10.4 12.09 0 6.62 5.92 10.26 11.84 10.26 8.45 0 15.4-5.53 15.4-12.36 0-5.58-5.6-9.36-10.2-12.6 4.55-2.66 8.7-6.82 8.7-12.15 0-5.47-4.75-8.84-10.39-8.84-7.48 0-14.04 5.33-14.04 11.62 0 5.47 4.67 9.05 9.09 11.97zm0 0"/></symbol><symbol overflow="visible" id="c5c4a664j"><path d="M6.17 2.34c0 .4.33.46.52.46.92 0 3.33-.4 4.95-.85C19.95-.27 29.25-6.56 29.25-16.3c0-9.75-10.92-12.94-19.1-14.57-.34-.06-.46-.26-.46-.57 0-.4 1.03-4.03 1.56-5.2.31-.85.58-1 1.17-1.05 2.53-.2 5.06-.2 7.35-.2 3.04 0 6.17 0 7.8-.26.9-.12 1.68-.78 2.46-2.59.58-1.38.9-2.67.9-3.25 0-.33-.12-.53-.38-.53-.33 0-1.7.39-5.6.78-3.7.4-8.76.92-13.84 1.9-.9.18-1.69 2.66-2.4 5.44-1.55 6.32-1.88 7.16-1.88 8.07 0 .71.51 1.76 1.1 2.15 1.5 1.1 15.27 2.66 15.27 12.08 0 5.92-3.76 9.36-7.67 11.38C12.03-.91 8.7-.27 7.41.12 6.37.46 6.17 1.96 6.17 2.35zm0 0"/></symbol><symbol overflow="visible" id="c5c4a664k"><path d="M8.64-1.75C7.86-1.62 7.41-.52 7.41.27c0 .39.14.64.59.64.45 0 1.88-.25 5.84-.58 2.35-.2 4.61-.27 6.9-.27 4.54 0 5.2.13 6.1.13.52 0 1.5-1.55 1.5-2.4 0-.32-.14-.52-.45-.52-1.05 0-1.83.14-3.19.14-1.95 0-3.7-.47-3.76-2.8-.14-4.75-.2-10.86-.2-16.9 0-4.29 0-8.52.06-12.23.06-5.39.45-8.3.45-9.23 0-.31-.4-.78-.84-.78-.58 0-1.04.6-5.46 2.01-1.89.6-4.75 1.24-6.1 1.63-.72.2-1.24 1.31-1.24 1.89 0 .4.33.4.7.4.72 0 1.77-.13 2.8-.13 1.5 0 3.64.25 3.7 1.48.2 6.83.27 19.56.27 26.27 0 7.8-1.11 8.51-6.44 9.23zm0 0"/></symbol><symbol overflow="visible" id="c5c4a664l"><path d="M20.47-25.03c-3.38 0-8.13 1.76-8.13 4.03 0 .66.2 1.05.47 1.05.38 0 1.55-1.5 4.55-1.5 6.1 0 8.7 4.42 8.7 9.17 0 5.33-3.37 10.92-8.84 10.92-5.19 0-8.05-4.87-8.05-11.58 0-10.65 7.02-25.28 24.11-31.51.72-.27.72-.4.72-.6 0-.64-.45-.84-1.17-.84-1.63 0-4.49 1.1-6.25 1.83-13.19 5.39-23.2 16.76-23.2 30.1 0 8.96 5.4 15 12.87 15 2.34 0 4.88-.59 7.47-1.82a14.7 14.7 0 008.2-13.06c0-5.47-3.84-11.2-11.45-11.2zm0 0"/></symbol><symbol overflow="visible" id="c5c4a664m"><path d="M3.83 0v-5.95H6.2v-.82H.45v.82h2.4V0zm0 0"/></symbol><symbol overflow="visible" id="c5c4a664n"><path d="M5.75-2.23v-.43c0-1.6-.9-2.51-2.42-2.51S.87-4.16.87-2.48c0 1.71.91 2.62 2.5 2.62 1.43 0 2.07-.56 2.29-1.52l-.9-.09c-.18.61-.59.9-1.35.9-.94 0-1.52-.54-1.58-1.66zm-2.4-2.2c.93 0 1.43.5 1.48 1.55H1.84c.08-1.07.6-1.56 1.5-1.56zm0 0"/></symbol><symbol overflow="visible" id="c5c4a664o"><path d="M1.83 0l1.42-2h.06l1.46 2H5.8L4-2.53l1.78-2.49H4.8L3.42-3.08h-.08l-1.4-1.94H.89l1.78 2.49L.84 0zm0 0"/></symbol><symbol overflow="visible" id="c5c4a664p"><path d="M5.52-4.25v-.77H3.17v-1.56h-.81l-.14 1.56H.75v.77h1.47v2.4c0 1.3.48 1.94 1.84 1.94C4.6.1 5.14 0 5.55-.14L5.4-.91c-.32.13-.72.2-1.13.2-.8 0-1.1-.37-1.1-1.23v-2.31zm0 0"/></symbol><symbol overflow="visible" id="c5c4a664q"><path d="M3.33-3.42c.47 0 .8-.27.8-.8 0-.51-.33-.8-.8-.8-.47 0-.8.29-.8.8 0 .53.33.8.8.8zm0 3.5c.47 0 .8-.27.8-.78 0-.53-.33-.82-.8-.82-.47 0-.8.29-.8.82 0 .51.33.78.8.78zm0 0"/></symbol><symbol overflow="visible" id="c5c4a664s"><path d="M3.33.14c1.62 0 2.5-.95 2.5-2.66 0-1.68-.88-2.64-2.5-2.64-1.63 0-2.5.96-2.5 2.64 0 1.7.87 2.66 2.5 2.66zm0-.77c-1.06 0-1.52-.6-1.52-1.89 0-1.28.46-1.87 1.52-1.87 1.08 0 1.53.6 1.53 1.87 0 1.29-.45 1.9-1.53 1.9zm0 0"/></symbol><symbol overflow="visible" id="c5c4a664t"><path d="M2.83.14c.94 0 1.5-.39 1.81-.95h.08l.1.81h.76v-3.38c0-1.23-.69-1.8-2.13-1.8-1.43 0-2.03.65-2.18 1.6l.93.1c.11-.6.44-.93 1.22-.93.85 0 1.22.32 1.22 1.04v.34l-1.81.2C1.6-2.7 1.1-2.17 1.1-1.28c0 .92.64 1.42 1.72 1.42zm.25-.77c-.67 0-1.02-.28-1.02-.74 0-.44.28-.72 1-.82l1.58-.19v.41c0 .8-.6 1.34-1.56 1.34zm0 0"/></symbol><symbol overflow="visible" id="c5c4a664u"><path d="M3.92-7.14H1.36v.76h1.6v5.61H1.15V0H5.7v-.77H3.92zm0 0"/></symbol><symbol overflow="visible" id="c5c4a664v"><path d="M3.33.16c1.69 0 2.69-.74 2.69-1.94 0-1.05-.8-1.58-1.43-1.72v-.05c.5-.14 1.2-.58 1.2-1.56 0-1.12-.95-1.81-2.46-1.81-1.52 0-2.46.69-2.46 1.81 0 .97.68 1.4 1.18 1.56v.05c-.6.14-1.4.64-1.4 1.72 0 1.2 1 1.94 2.68 1.94zm0-4.04c-.97 0-1.49-.43-1.49-1.12 0-.78.52-1.1 1.49-1.1.95 0 1.48.32 1.48 1.1 0 .69-.53 1.13-1.48 1.13zm0 3.24c-1.1 0-1.7-.42-1.7-1.25 0-.78.6-1.2 1.7-1.2s1.7.42 1.7 1.2c0 .83-.6 1.25-1.7 1.25zm0 0"/></symbol><symbol overflow="visible" id="c5c4a664w"><path d="M3.42.14c1.55 0 2.44-.84 2.44-2.33 0-1.45-.83-2.22-2.14-2.22-.75 0-1.28.27-1.67.72H2l.31-2.22h3.11v-.86H1.53l-.45 3.93h.81c.3-.36.9-.79 1.58-.79.92 0 1.44.43 1.44 1.47 0 .99-.54 1.5-1.49 1.5-.83 0-1.28-.32-1.5-1.01l-.95.1C1.07-.46 2 .13 3.42.13zm0 0"/></symbol><symbol overflow="visible" id="c5c4a664x"><path d="M4.22-6.77h-.86l-2.03.7v.87c.64-.17 1.26-.38 1.89-.55v4.9H1.03V0h4.9v-.86H4.21zm0 0"/></symbol><symbol overflow="visible" id="c5c4a664y"><path d="M3.42.14c1.58 0 2.49-.86 2.49-2.3 0-1.42-.86-2.17-2.22-2.17-1.03 0-1.58.5-1.9 1.02h-.04c.03-1.63.4-2.77 1.73-2.77.91 0 1.24.44 1.36.96l.97-.11c-.23-.96-.86-1.68-2.33-1.68C1.84-6.9.86-5.86.86-3.1.86-.9 1.78.14 3.42.14zm.02-.78c-.9 0-1.47-.55-1.47-1.47 0-.9.7-1.47 1.53-1.47.92 0 1.47.52 1.47 1.47 0 .97-.6 1.47-1.53 1.47zm0 0"/></symbol><symbol overflow="visible" id="c5c4a664z"><path d="M5.95-6.77H1.1V0h.99v-2.92H5.3v-.77H2.08v-2.26h3.87zm0 0"/></symbol><symbol overflow="visible" id="c5c4a664A"><path d="M2.73.14c.9 0 1.43-.45 1.74-1.08h.06l.13.94h.8v-5.02h-.94v2.7c0 .98-.57 1.62-1.46 1.62-.75 0-1.1-.4-1.1-1.22v-3.1h-.93v3.32c0 1.17.55 1.84 1.7 1.84zm0 0"/></symbol><symbol overflow="visible" id="c5c4a664B"><path d="M5.08-5.16c-.94 0-1.58.43-1.9 1.3h-.09l-.07-1.16H1.05v.77h1.1v3.48H.96V0h3.96v-.77H3.1v-1.46c0-1.36.6-2.05 1.83-2.05.4 0 .76.08 1.1.17l.15-.87c-.33-.11-.7-.18-1.11-.18zm0 0"/></symbol><symbol overflow="visible" id="c5c4a664C"><path d="M3.9.14c1.48 0 2.18-.98 2.18-2.64 0-1.67-.7-2.66-2.17-2.66-.91 0-1.49.41-1.79 1h-.06v-2.98h-.95V0h.81l.11-.9h.06c.29.63.82 1.04 1.82 1.04zm-.32-.8c-1.08 0-1.55-.8-1.55-1.84 0-1.06.47-1.86 1.55-1.86 1.1 0 1.51.61 1.51 1.86S4.64-.66 3.58-.66zm0 0"/></symbol><symbol overflow="visible" id="c5c4a664D"><path d="M3.58-5.81c.42 0 .72-.22.72-.67 0-.44-.3-.68-.72-.68-.44 0-.72.24-.72.68 0 .45.28.67.72.67zm.5.8H1.52v.76h1.6v3.48h-1.8V0h4.46v-.77h-1.7zm0 0"/></symbol><symbol overflow="visible" id="c5c4a664E"><path d="M2.16 0v-2.67c0-.99.59-1.63 1.46-1.63.74 0 1.07.38 1.07 1.22V0h.95v-3.31c0-1.2-.56-1.85-1.67-1.85-.92 0-1.49.46-1.77 1.08h-.06l-.12-.94H1.2V0zm0 0"/></symbol><symbol overflow="visible" id="c5c4a664F"><path d="M3.16 2.03c1.67 0 2.4-.86 2.4-2.51v-4.54h-.81l-.13.91h-.06c-.26-.58-.8-1.05-1.73-1.05-1.42 0-2.24 1-2.24 2.52 0 1.6.75 2.56 2.2 2.56.94 0 1.5-.5 1.77-1.03h.05v.72c0 1.17-.42 1.67-1.45 1.67-.93 0-1.3-.34-1.41-.89L.8.5c.12.96.87 1.54 2.36 1.54zM3.06-.8c-.98 0-1.48-.57-1.48-1.82 0-1.13.5-1.75 1.48-1.75 1.06 0 1.58.76 1.58 1.75 0 .95-.56 1.82-1.58 1.82zm0 0"/></symbol><symbol overflow="visible" id="c5c4a664G"><path d="M1.63 0v-2.9c0-.8.15-1.4.71-1.4.41 0 .55.3.55.88V0h.95v-2.9c0-.8.18-1.4.72-1.4.4 0 .57.3.57.88V0h.95v-3.63c0-.92-.28-1.53-1.11-1.53-.63 0-.95.41-1.1.9h-.06c-.1-.52-.44-.9-1.08-.9-.6 0-.93.41-1.06.9H1.6l-.23-.76H.67V0zm0 0"/></symbol><symbol overflow="visible" id="c5c4a664H"><path d="M3.36.16c1.4 0 2.2-.6 2.2-1.57 0-.89-.54-1.22-1.47-1.39L3-3c-.67-.14-.86-.33-.86-.73 0-.5.4-.74 1.17-.74.83 0 1.19.27 1.27.8l.9-.05c-.12-1-.8-1.47-2.17-1.47-1.34 0-2.1.53-2.1 1.5 0 .81.45 1.22 1.52 1.44l1.04.2c.56.11.87.24.87.72 0 .52-.45.78-1.28.78-.95 0-1.36-.28-1.42-.87l-.9.06C1.07-.36 1.8.16 3.35.16zm0 0"/></symbol><symbol overflow="visible" id="c5c4a664I"><path d="M1.45-2.95c0 2.56 1.08 4.37 3.67 4.84l.11-.67C3.28.86 2.43-.75 2.43-2.95s.85-3.82 2.8-4.16l-.1-.69c-2.6.49-3.68 2.3-3.68 4.85zm0 0"/></symbol><symbol overflow="visible" id="c5c4a664J"><path d="M3.34.14c1.43 0 2.13-.66 2.25-1.78l-.89-.1c-.1.7-.5 1.08-1.34 1.08-1.03 0-1.52-.64-1.52-1.84 0-1.23.47-1.86 1.52-1.86.84 0 1.23.36 1.34 1.08l.9-.1c-.13-1.09-.82-1.78-2.26-1.78-1.56 0-2.46.97-2.46 2.66 0 1.66.9 2.64 2.46 2.64zm0 0"/></symbol><symbol overflow="visible" id="c5c4a664K"><path d="M1.45-7.1c1.96.33 2.8 1.94 2.8 4.15 0 2.2-.84 3.8-2.8 4.17l.11.67c2.58-.47 3.67-2.28 3.67-4.84 0-2.55-1.09-4.36-3.67-4.85zm0 0"/></symbol></defs><g fill="#515151"><use xlink:href="#c5c4a664a" x="111.0125" y="153.5"/><use xlink:href="#c5c4a664b" x="154.8875" y="153.5"/></g><use xlink:href="#c5c4a664c" x="189.1425" y="153.5" fill="#515151"/><use xlink:href="#c5c4a664d" x="211.4375" y="153.5" fill="#515151"/><g fill="#515151"><use xlink:href="#c5c4a664e" x="238.9325" y="153.5"/><use xlink:href="#c5c4a664f" x="256.4175" y="153.5"/><use xlink:href="#c5c4a664g" x="275.9175" y="153.5"/></g><use xlink:href="#c5c4a664h" x="295.4175" y="153.5" fill="#fff"/><use xlink:href="#c5c4a664i" x="330.2575" y="153.5" fill="#515151"/><use xlink:href="#c5c4a664j" x="348.3275" y="153.5" fill="#fff"/><use xlink:href="#c5c4a664i" x="383.1675" y="153.5" fill="#515151"/><use xlink:href="#c5c4a664k" x="401.2375" y="153.5" fill="#fff"/><use xlink:href="#c5c4a664i" x="436.0775" y="153.5" fill="#515151"/><use xlink:href="#c5c4a664l" x="454.1475" y="153.5" fill="#fff"/><g fill="#fff"><use xlink:href="#c5c4a664m" x="243.3333" y="252"/><use xlink:href="#c5c4a664n" x="250.0003" y="252"/><use xlink:href="#c5c4a664o" x="256.6673" y="252"/><use xlink:href="#c5c4a664p" x="263.3343" y="252"/><use xlink:href="#c5c4a664q" x="270.0013" y="252"/><use xlink:href="#c5c4a664r" x="276.6683" y="252"/><use xlink:href="#c5c4a664m" x="283.3353" y="252"/><use xlink:href="#c5c4a664s" x="290.0023" y="252"/><use xlink:href="#c5c4a664p" x="296.6693" y="252"/><use xlink:href="#c5c4a664t" x="303.3363" y="252"/><use xlink:href="#c5c4a664u" x="310.0033" y="252"/><use xlink:href="#c5c4a664q" x="316.6703" y="252"/><use xlink:href="#c5c4a664r" x="323.3373" y="252"/><use xlink:href="#c5c4a664v" x="330.0043" y="252"/><use xlink:href="#c5c4a664w" x="336.6713" y="252"/><use xlink:href="#c5c4a664x" x="343.3383" y="252"/><use xlink:href="#c5c4a664y" x="350.0053" y="252"/></g><g fill="#fff"><use xlink:href="#c5c4a664z" x="116.6667" y="266"/><use xlink:href="#c5c4a664n" x="123.3337" y="266"/><use xlink:href="#c5c4a664t" x="130.0007" y="266"/><use xlink:href="#c5c4a664p" x="136.6677" y="266"/><use xlink:href="#c5c4a664A" x="143.3347" y="266"/><use xlink:href="#c5c4a664B" x="150.0017" y="266"/><use xlink:href="#c5c4a664n" x="156.6687" y="266"/><use xlink:href="#c5c4a664q" x="163.3357" y="266"/><use xlink:href="#c5c4a664r" x="170.0027" y="266"/><use xlink:href="#c5c4a664m" x="176.6697" y="266"/><use xlink:href="#c5c4a664t" x="183.3367" y="266"/><use xlink:href="#c5c4a664C" x="190.0037" y="266"/><use xlink:href="#c5c4a664A" x="196.6707" y="266"/><use xlink:href="#c5c4a664u" x="203.3377" y="266"/><use xlink:href="#c5c4a664t" x="210.0047" y="266"/><use xlink:href="#c5c4a664B" x="216.6717" y="266"/><use xlink:href="#c5c4a664r" x="223.3387" y="266"/><use xlink:href="#c5c4a664u" x="230.0057" y="266"/><use xlink:href="#c5c4a664D" x="236.6727" y="266"/><use xlink:href="#c5c4a664E" x="243.3397" y="266"/><use xlink:href="#c5c4a664D" x="250.0067" y="266"/><use xlink:href="#c5c4a664E" x="256.6737" y="266"/><use xlink:href="#c5c4a664F" x="263.3407" y="266"/><use xlink:href="#c5c4a664r" x="270.0077" y="266"/><use xlink:href="#c5c4a664E" x="276.6747" y="266"/><use xlink:href="#c5c4a664A" x="283.3417" y="266"/><use xlink:href="#c5c4a664G" x="290.0087" y="266"/><use xlink:href="#c5c4a664n" x="296.6757" y="266"/><use xlink:href="#c5c4a664B" x="303.3427" y="266"/><use xlink:href="#c5c4a664t" x="310.0097" y="266"/><use xlink:href="#c5c4a664u" x="316.6767" y="266"/><use xlink:href="#c5c4a664H" x="323.3437" y="266"/><use xlink:href="#c5c4a664r" x="330.0107" y="266"/><use xlink:href="#c5c4a664I" x="336.6777" y="266"/><use xlink:href="#c5c4a664u" x="343.3447" y="266"/><use xlink:href="#c5c4a664E" x="350.0117" y="266"/><use xlink:href="#c5c4a664A" x="356.6787" y="266"/><use xlink:href="#c5c4a664G" x="363.3457" y="266"/><use xlink:href="#c5c4a664r" x="370.0127" y="266"/><use xlink:href="#c5c4a664s" x="376.6797" y="266"/><use xlink:href="#c5c4a664B" x="383.3467" y="266"/><use xlink:href="#c5c4a664r" x="390.0137" y="266"/><use xlink:href="#c5c4a664p" x="396.6807" y="266"/><use xlink:href="#c5c4a664E" x="403.3477" y="266"/><use xlink:href="#c5c4a664A" x="410.0147" y="266"/><use xlink:href="#c5c4a664G" x="416.6817" y="266"/><use xlink:href="#c5c4a664r" x="423.3487" y="266"/><use xlink:href="#c5c4a664s" x="430.0157" y="266"/><use xlink:href="#c5c4a664B" x="436.6827" y="266"/><use xlink:href="#c5c4a664r" x="443.3497" y="266"/><use xlink:href="#c5c4a664J" x="450.0167" y="266"/><use xlink:href="#c5c4a664t" x="456.6837" y="266"/><use xlink:href="#c5c4a664H" x="463.3507" y="266"/><use xlink:href="#c5c4a664n" x="470.0177" y="266"/><use xlink:href="#c5c4a664K" x="476.6847" y="266"/></g></svg>