<?xml version='1.0' encoding='UTF-8'?>
<svg xmlns="http://www.w3.org/2000/svg" xmlns:xlink="http://www.w3.org/1999/xlink" width="200px" height="340px" viewBox="0 0 200 340" x="0px" y="0px" enable-background="new 0 0 200 340"><defs><symbol overflow="visible" id="077ca4e8a"><path d="M9.828-13.266c-.625 0-.625-.343-.625-2.906 0-3.36-.031-3.672-.031-4.156 0-1.75.062-2.703 1.86-2.813 1.077-.062 1.327-.515 1.327-.968 0-.141-.078-.22-.171-.22-.782 0-2.172.22-4.735.22-2.203 0-2.453-.188-3.672-.188-.172 0-.672.14-.672.781 0 .141.047.203.329.235 1.921.25 2.546.422 2.624 1.75.063 1.343.125 3.64.125 6.797 0 10.64-.03 11.265-.171 12.046C5.78-1.405 5.39-1.016 3.703-.812c-.406.078-.625.39-.625.875 0 .109.078.218.219.218.484 0 1.61-.172 3.39-.172 3.985 0 3.391.063 4.97.063.28 0 .593-.375.593-.844 0-.094-.031-.203-.172-.203-1.437 0-2.25-.203-2.484-.938-.36-1.015-.39-4.453-.39-9.25 0-.796 0-.843 3.577-.843 5.25 0 9.438 0 10.281.14.22.047.282.188.282.641 0 7.234-.032 8.703-.25 9.266-.203.562-.657.921-2.344 1.093-.313.032-.422.516-.422.766 0 .172.11.203.219.203.562 0 1.672-.172 3.422-.172 4.453 0 4.484.14 5.11.14.327 0 .53-.452.53-.765 0-.14-.03-.219-.39-.25-1.36-.14-2.516-.422-2.625-1.328-.172-1.5-.235-3.89-.235-6.969 0-8.953.063-11.234.141-12.39.063-1.36.828-1.469 2.375-1.703.453-.078.625-.563.625-.875 0-.188-.031-.25-.172-.25-.625 0-2.656.172-4.765.172-1.25 0-2.094-.11-3.563-.11-.531 0-.672.61-.672.844 0 .14 0 .219.281.25 1.75.25 2.625-.031 2.703 2.094.032 1.234.032 4.375.032 6.343 0 1.016-.032 1.391-.657 1.391-3.437.078-9.078.11-12.859.11zm0 0"/></symbol><symbol overflow="visible" id="077ca4e8b"><path d="M9.203-16.313c-5.172 0-8.125 4.907-8.125 9.25 0 3.766 2.219 7.454 6.547 7.454 2.875 0 6.125-2.032 6.125-4.454 0-.453-.281-.593-.453-.593-.11 0-.14.031-.281.312C12.14-2.594 10.562-1.922 9-1.922 5.922-1.922 3.812-5 3.812-8.328c0-1.235 0-1.578 1.047-1.578 4.032 0 9.11-.031 9.11-1.078 0-.282-.031-.563-.078-.875-.375-2.313-1.813-4.454-4.688-4.454zm-1.672 1.47c2.375 0 3.36 2.062 3.36 3.015 0 1.015-3.297 1.047-5.016 1.047-1.469 0-1.844 0-1.844-.281 0-.985 1.422-3.782 3.5-3.782zm0 0"/></symbol><symbol overflow="visible" id="077ca4e8c"><path d="M9.516-1.578c.312 1.86.984 2.11 2.062 2.11 1.938 0 3.922-1.798 3.922-2.985 0-.172-.094-.313-.234-.313-.079 0-.11.032-.141.079-.25.234-1.188 1.14-1.938 1.14-.828 0-1.078-.766-1.078-1.984 0-2.172.594-5.985.594-8.469 0-2.484-1.469-4.563-4.094-4.563-1.78 0-6.796 2.422-6.796 4.375 0 .282.187.672.609.672.656 0 2.125-.421 2.234-1.015.172-1.016.172-2.313 1.922-2.313 2.344 0 3.25 1.86 3.25 5.188 0 .703-.031 1.297-.094 1.64-3.546.532-8.406 1.5-8.406 4.547 0 2.735 1.547 3.86 3.438 3.86 1.53 0 3.28-.735 4.75-1.97zm.14-4.688c-.031.735-.094 3.22-.14 3.704-1.22.874-2.235 1.234-3 1.234-1.657 0-2.141-1.438-2.141-2.734 0-2 3.844-2.657 5.14-2.766.141 0 .141.312.141.562zm0 0"/></symbol><symbol overflow="visible" id="077ca4e8d"><path d="M3.39-14.11c.079 1.126.11 2.594.11 4.141 0 8.5 0 8.75-2.031 9.344-.313.094-.485.344-.485.594 0 .234.094.281.375.281.282 0 1.329-.219 3.61-.219.906 0 1.36.032 1.828.032.594 0 1.562-.063 1.562-.875 0-.454-.625-.094-2.03-.375-.345-.079-.407-.5-.407-4.829 0-1.515 0-1.828.266-1.828.921 0 3.609 3.047 5.359 6.032C12.703.14 12.953.28 14.203.28c2.453 0 4.11-.078 4.11-.984 0-.172-.047-.313-.25-.313-.141 0-.454.032-.704.032-1.297 0-1.922-.485-2.687-1.532-1.938-2.593-3.86-4.734-5.36-5.78-.359-.25-.39-.313-.39-.423 0-.172.14-.234.984-1.047 1.61-1.546 4.235-3.953 5.25-4.546 1.5-.876 2.625-.735 2.625-1.641 0-.188-.078-.328-.281-.328-.344 0-1.547.328-3.219.328-1.781 0-2.062-.078-2.734-.078-.594 0-.735.453-.735.672 0 .171.032.28.25.312.454.063 1.329.14 1.329.594 0 .844-3.157 3.953-4.657 5.11-.53.421-1.078.734-1.437.734-.281 0-.281-.282-.281-2.172 0-2.906.14-3.75 1.546-4.266.657-.25.704-.5.704-.765 0-.188-.079-.282-.25-.282-.25 0-1.188.282-3.672.282-1.047 0-2.25-.079-2.563-.079-.703 0-.906.344-.906.704 0 .171.031.25.344.25.703 0 2.14.234 2.172.828zm0 0"/></symbol><symbol overflow="visible" id="077ca4e8e"><path d="M9.172-1.781c.062 1.672.906 2.343 1.89 2.343 2.032 0 3.563-2.062 3.563-3.296 0-.235-.063-.422-.281-.422-.313 0-1.016 1.578-1.953 1.578-.735 0-.766-.766-.766-1.984 0-1.547.828-6.766.828-9.391 0-1.813-2.156-3.531-4.187-3.531-1.829 0-6.625 2.453-6.625 4.234 0 .281.078.813.562.813.703 0 1.781-.5 2.063-.985.562-.984-.063-2.39 2.14-2.39 1.86 0 3.188 1.203 3.188 4.703 0 .875-.14 1.64-.172 2.03-2.281.688-8.344 1.11-8.344 4.548C1.078-.906 2.594.39 4.438.39c1.515 0 3.234-.844 4.734-2.172zm.203-4.547c0 .766-.203 3.312-.234 3.812-1.235.875-2.204 1.22-2.954 1.22-1.671 0-2.125-1.72-2.125-2.938 0-.954.516-1.438 1.72-1.922C7.202-6.75 8.858-7 9.281-7c.093 0 .093.031.093.672zm0 0"/></symbol><symbol overflow="visible" id="077ca4e8f"><path d="M6.75-13.938c-.766 2.391-2.828 7.922-4.375 11.766-.234.625-.344.844-.766.844-.25 0-.734-.078-.875-.078-.28 0-.421.281-.421.64 0 .172.078.625.078 1.22 0 1.359-.36 3.608-.36 4.171 0 .563.453.766.985.766.28 0 .39-.172.453-.485.625-3.61.078-4.562 2.703-4.703C7.562.031 8.125.031 12.047.031c1.36 0 1.64.281 1.64 1.657 0 1.14-.53 3.109-.53 3.312 0 .219.14.313.452.313.391 0 .735-.125.922-.688.938-3.078 1.39-5.047 1.422-5.61 0-.171-.094-.453-.375-.453-.219 0-.562.141-.875.141-.64 0-.812-.281-1.047-.844-1.969-4.828-3.469-11.046-4-13.406-.172-.828-.375-.906-.734-.906-.344 0-1.188.219-1.578.5-.375.312-.235.765-.594 2.015zm.703 2.141c.11 0 .219.14.313.453.78 2.281 3.218 9.313 3.218 9.844 0 .313-.312.344-2.515.344-4.203 0-4.235-.032-4.235-.532 0-.171.079-.515.204-1.14.39-1.797 1.89-6.485 2.703-8.547.109-.25.203-.422.312-.422zm0 0"/></symbol><symbol overflow="visible" id="077ca4e8g"><path d="M22.547-16.344c-.219 0-1.094.39-3.406.39-1.75 0-2.094 0-2.313.235-.234.313-.062.36-.797 2.766-.765 2.594-2.625 6.86-3.468 8.578-.25.531-.282.531-.344.531-.078 0-.11 0-.36-.562-.937-2.063-2.968-7.5-3.671-10.219-.282-1.016-.032-1.328-.626-1.328-.53 0-1.046.094-2.734.094-1.531 0-2.203-.094-2.547-.094-.734 0-.812.656-.812.828 0 .219.14.281.343.281 1.625 0 2.25.39 2.25 1.469 0 3.125-.312 10.953-1.187 11.828-.703.703-2 .64-2 1.547 0 .203.11.313.281.313.203 0 1.813-.204 4.125-.204.563 0 1.016.032 1.266.032.984 0 1.016-.625 1.016-.735 0-.172-.079-.281-.282-.281-1.61 0-2-.594-2-1.75 0-3.672.172-8.016.36-9.875.03-.594.062-.688.14-.688.063 0 .063.032.235.547.359 1.094 1.046 3.157 1.656 4.594C8.688-5.594 10.109-2.422 10.75-.03c.063.234.14.375.453.375.422 0 1.11-.14 1.328-.875.625-2.156 2.375-6.125 3.5-8.64a32.937 32.937 0 001.36-3.642c.14-.453.218-.624.28-.624.079 0 .11.03.11.515 0 1.61.203 9.625.203 10.156 0 1.407-.234 1.61-1.984 2.235-.25.11-.39.281-.39.562 0 .219.109.281.25.281.312 0 2.03-.25 4.234-.25 1.39 0 1.812.047 2.031.047.734 0 1.047-.453 1.047-.843 0-.204-.078-.313-.313-.313-.109 0-.5.031-1.125.031-.843 0-.937-.28-1.047-1.64-.218-2.797-.453-6.485-.453-10.36 0-2.796 2.516-1.125 2.516-3.046 0-.22-.063-.282-.203-.282zm0 0"/></symbol><symbol overflow="visible" id="077ca4e8h"><path d="M18.938-15.156c.484-.203.593-.563.593-.735 0-.14-.031-.25-.25-.25-.203 0-1.156.282-4.515.422-.829.031-.454.735-1.157 2.063C12-10.61 8.22-6.125 6.516-3.11c-.282.484-.36.734-.454.734-.078 0-.109-.047-.109-.14 0-.313.313-.954.344-4.141.031-6.219.14-7.063.594-7.688.562-.781 2.062-.39 2.062-1.515 0-.094-.062-.204-.172-.204-.422 0-1.89.282-4.125.282-.906 0-1.922-.031-2.234-.031-.64 0-.875.343-.875.687 0 .219.031.281.312.281.735 0 1.704.11 1.704.703 0 .766.187 3.579.187 6.329 0 2.109 0 5.468-.36 6.515-.203.703-1.89.766-1.89 1.5 0 .219.11.281.313.281.39 0 .984-.171 4.062-.484.734-.063.594-.844 1.438-2.172 2.03-3.281 3.718-5.39 5.421-7.797 1.329-1.86 1.657-2.734 1.72-2.734.03 0 .077.031.077.14 0 .25-.219 1.86-.219 3.954 0 5.421-.062 6.75-.593 7.343-.766.844-1.953.422-1.953 1.266 0 .203.062.281.234.281.453 0 1.578-.219 3.719-.219.765 0 1.187.047 2.234.047S19.5-.14 19.5-.67c0-.141-.078-.235-.39-.235-1.157 0-1.672-.11-1.954-.313-.281-.218-.328-.953-.328-9.703 0-2.625.078-3.36 2.11-4.234zm0 0"/></symbol><symbol overflow="visible" id="077ca4e8i"><path d="M15.781-16.234c-.281 0-.906.234-2.312.234-1.813 0-2.938-.172-4.922-.172-3.64 0-6.203 2.11-6.203 4.485 0 2.203 1.922 3.984 4.906 3.984.375 0 .625 0 .625.078 0 .094-.063.203-.672.625-1.422 1.016-2.797 2.797-4.187 4.828C2.453-1.359 1.75-1.016.594-.937c-.344 0-.485 0-.485.343C.11.203 1.58.422 2.625.422c.906 0 1.89-.39 2.313-1.094 1.5-2.578 4.265-7.406 5.984-7.406.11 0 .203.031.203.312 0 .313-.031 2.204-.031 3.329-.031 2.546-.14 3.14-1.953 3.734-.422.14-.5.453-.5.64 0 .172.109.235.218.235.485 0 1.391-.203 3.563-.203 1.234 0 1.828.062 2.515.062.641 0 1.094-.234 1.094-.734 0-.172-.031-.235-.25-.235-1.812 0-2.265 0-2.265-1.89 0-6.688.093-8.375.343-10.469.172-1.515.422-1.375 1.641-1.922.39-.187.531-.5.531-.703 0-.219-.078-.312-.25-.312zm-4.656 1.64c.047.344.047.563.047 2.406 0 3.047-.047 3.157-.188 3.266-.171.11-.546.203-1.187.203-2.906 0-4.578-1.437-4.578-3.422 0-1.718 1.36-2.984 3.984-2.984 1.094 0 1.89.11 1.922.531zm0 0"/></symbol><symbol overflow="visible" id="077ca4e8j"><path d="M2.219-8.047H1.125V0H2v-5.656l-.031-1.11h.015l.532 1.047L5.906 0h1.11v-8.047h-.891v5.531l.047 1.297h-.016l-.547-1.14zm0 0"/></symbol><symbol overflow="visible" id="077ca4e8k"><path d="M.64-2.688C.64-.843 1.688.126 3.079.126c.672 0 1.344-.14 2-.453L4.844-1a4.468 4.468 0 01-1.61.297c-.937 0-1.578-.563-1.64-1.86h3.531c.063-.296.078-.624.078-.921 0-1.282-.672-2.282-2.016-2.282-1.578 0-2.546 1.36-2.546 3.079zm2.47-2.28c.765 0 1.156.546 1.156 1.312 0 .125 0 .265-.016.406H1.61c.124-1.063.64-1.719 1.5-1.719zm0 0"/></symbol><symbol overflow="visible" id="077ca4e8l"><path d="M1.266-2.625C.796-2.328.5-1.844.5-1.265c0 .859.563 1.39 1.469 1.39.687 0 1.36-.313 1.937-.828l.172.765.797-.124c-.094-1.188-.094-1.672-.094-2.11v-1.437c0-1.485-.531-2.125-1.734-2.125-.89 0-1.672.375-2.297.906l.344.594c.593-.407 1.218-.672 1.781-.672.703 0 .969.406.969 1.593v.079c-1.297.109-2.094.296-2.578.609zm.156 1.25c0-.36.172-.594.36-.734.296-.188.827-.329 2.062-.422v1.125c-.594.5-1.188.781-1.688.781-.453 0-.734-.266-.734-.75zm0 0"/></symbol><symbol overflow="visible" id="077ca4e8m"><path d="M.64-2.656C.64-.937 1.579.125 3.11.125c.53 0 1.156-.14 1.734-.406L4.625-1c-.5.203-1 .297-1.39.297-1.032 0-1.641-.656-1.641-2.078 0-.875.25-1.5.656-1.844.203-.156.484-.297.875-.297.469 0 .875.188 1.297.578l.469-.547c-.422-.546-.954-.843-1.704-.843-1.53 0-2.546 1.25-2.546 3.078zm0 0"/></symbol><symbol overflow="visible" id="077ca4e8n"><path d="M.64-2.61C.64-1.03 1.532.173 2.782.173c.703 0 1.266-.36 1.766-.89l.156.765.797-.11c-.094-1.093-.094-1.578-.094-1.984v-6.969l-.953.032v3.609c-.39-.25-.75-.39-1.266-.39C1.47-5.766.626-4.157.642-2.61zm.97-.203c0-.703.156-1.374.562-1.78.234-.25.562-.36 1.047-.36a2.4 2.4 0 011.234.328v3.188c-.5.468-.984.796-1.516.796-.874 0-1.328-.921-1.328-2.171zm0 0"/></symbol><symbol overflow="visible" id="077ca4e8o"><path d="M1.672-5.688l-.797.11c.094 1.234.094 1.734.094 2.172V0h.953v-4.219c.484-.406 1.016-.734 1.578-.734.656 0 .875.453.875 1.562V0h.922v-3.75c0-.172 0-.328-.016-.469.485-.406 1.032-.734 1.594-.734.656 0 .86.453.86 1.562V0h.952v-3.75c0-1.313-.453-2.016-1.562-2.016-.781 0-1.375.329-1.969.922-.218-.61-.656-.922-1.406-.922-.766 0-1.344.313-1.906.875zm0 0"/></symbol><symbol overflow="visible" id="077ca4e8p"><path d="M.797-7.313c0 .36.25.594.625.594.406 0 .672-.265.672-.656 0-.375-.25-.61-.625-.61-.407 0-.672.266-.672.673zM1.89-5.609l-.938.015V0h.938zm0 0"/></symbol><symbol overflow="visible" id="077ca4e8r"><path d="M.781-5.953C.781-4.563 1.906-4.11 3-3.687c.984.359 1.89.671 1.89 1.624 0 .985-.937 1.36-1.843 1.36a4.28 4.28 0 01-2.172-.61L.5-.578c.594.437 1.578.75 2.531.75 1.516 0 2.86-.75 2.86-2.313 0-1.468-1.235-1.906-2.391-2.343-.922-.344-1.719-.657-1.719-1.547 0-1.016.985-1.297 1.782-1.297.656 0 1.312.156 1.796.328l.282-.734c-.547-.282-1.313-.47-2.032-.47-1.406 0-2.828.673-2.828 2.25zm0 0"/></symbol><symbol overflow="visible" id="077ca4e8s"><path d="M1.844-5.61l-.938.016v3.813c0 1.234.516 1.953 1.672 1.953.735 0 1.344-.328 1.89-.89l.173.765.78-.11c-.077-1.28-.093-1.656-.093-2.156v-3.39h-.953v4.187c-.516.469-1.031.781-1.563.781-.671 0-.968-.453-.968-1.484zm0 0"/></symbol><symbol overflow="visible" id="077ca4e8t"><path d="M1.89-9.016l-.952.032v8.796a6.441 6.441 0 002.046.313c1.891 0 2.704-1.484 2.704-3.016 0-1.625-.782-2.875-2.188-2.875-.64 0-1.156.313-1.61.797zm1.454 4.063c.875 0 1.375.844 1.375 2.14 0 .782-.14 1.344-.61 1.797-.156.172-.546.344-1.046.344-.438 0-.813-.047-1.172-.14V-4.22c.421-.422.937-.734 1.453-.734zm0 0"/></symbol><symbol overflow="visible" id="077ca4e8u"><path d="M1.89-9.016l-.937.032V0h.938v-4.375c.53-.36 1.109-.563 1.687-.563.735 0 .953.47.953 1.47V0h.938v-3.813c0-1.25-.453-1.953-1.657-1.953-.703 0-1.343.235-1.921.672zm0 0"/></symbol><symbol overflow="visible" id="077ca4e8v"><path d="M1.125-7.984V0h.953v-3.281c.297.031.625.047.844.047.265 0 .484-.016.703-.047L5.406 0h1.032a8.004 8.004 0 00-.36-.75L4.547-3.5c1.062-.422 1.656-1.281 1.656-2.36 0-1.515-1.172-2.312-3.094-2.312-.593 0-1.312.078-1.984.188zm2 .671c1.328 0 2.078.5 2.078 1.547 0 .735-.39 1.204-.922 1.454a3.66 3.66 0 01-1.375.25c-.297 0-.547-.032-.828-.047v-3.11a6.493 6.493 0 011.047-.093zm0 0"/></symbol><symbol overflow="visible" id="077ca4e8w"><path d="M1.172-.89c0 .25.062.437.187.578C.734.124.344.64.344 1.343c-.016 1.078.969 1.703 2.328 1.703 1.594 0 2.812-.797 2.812-2.11 0-1.109-.859-1.562-2.25-1.578-.734-.015-1.187-.062-1.187-.578 0-.203.094-.36.203-.531.156.016.328.031.5.031C4.203-1.719 5-2.64 5-3.766c0-.5-.156-.937-.469-1.28a4.024 4.024 0 011.078-.25l-.046-.829c-.625.031-1.125.313-1.5.672a2.515 2.515 0 00-1.188-.281C1.359-5.734.641-4.688.641-3.641c0 .735.359 1.391 1.046 1.704-.343.343-.515.656-.515 1.046zm2.922-2.813c0 .828-.516 1.25-1.282 1.25-.874 0-1.28-.5-1.28-1.297 0-.781.515-1.234 1.28-1.234.86 0 1.282.5 1.282 1.28zM1.219 1.234c0-.484.25-.859.718-1.187.313.094.672.11.985.11.984.015 1.687.124 1.687.905 0 .329-.14.61-.39.829-.328.265-.844.375-1.407.375-.953 0-1.593-.329-1.593-1.032zm0 0"/></symbol><symbol overflow="visible" id="077ca4e8x"><path d="M1.89-9.016l-.937.032V-.97c0 .719.344 1.094.985 1.094.296 0 .625-.047.937-.188l-.203-.703a1.18 1.18 0 01-.438.079c-.25 0-.343-.157-.343-.532zm0 0"/></symbol><symbol overflow="visible" id="077ca4e8y"><path d="M1.672-5.688l-.797.11c.078 1.203.094 1.734.094 2.172V0h.953v-3.75c.375-.688.89-.984 1.422-.984.25 0 .437.015.656.078l.188-.86a1.404 1.404 0 00-.782-.218c-.64 0-1.156.39-1.547 1.109zm0 0"/></symbol><symbol overflow="visible" id="077ca4e8H"><path d="M2.078-8.047h-.953V0h.953zm0 0"/></symbol><symbol overflow="visible" id="077ca4e8I"><path d="M2.188-7.266h-.782l-.218 1.657H.39v.78h.843v3.188c0 1.344.407 1.766 1.313 1.766.422 0 .953-.078 1.437-.25l-.187-.719c-.344.094-.703.14-.906.14-.563 0-.704-.25-.704-1.187v-2.937h1.72v-.781h-1.72zm0 0"/></symbol><symbol overflow="visible" id="077ca4e8z"><path d="M12.281-24.39c-.172 0-1.89.203-4.265.203-1.922 0-2.907-.172-3.391-.172-.64 0-.844.453-.844.734 0 .203.031.313.39.344 1.954.218 2.235.703 2.235 2.218 0 2.891-.453 9.485-.765 13.86C5.25-1.75 5.187-1.36 2.937-.906c-.765.14-.796.625-.796.797 0 .171.062.359.343.359.344 0 1.579-.188 3.438-.188 2.484 0 3.562.079 3.812.079.422 0 .97-.172.97-.766 0-.281-.142-.313-.407-.36-2.031-.28-2.219-.374-2.219-1.64 0-1.813.25-5.047.563-8.406C8.719-12 9-12 15.156-12c2.516 0 5.781.031 6.969.172.203.031.313.14.313.562 0 2.516-.563 8.36-.735 9.125-.14.563-.39.954-2 1.157-.797.109-.875.671-.875.875 0 .171.078.28.281.28.313 0 1.782-.171 3.75-.171 2.344 0 3.188.11 3.703.11.735 0 .875-.422.875-.735 0-.188-.062-.281-.343-.313-2.032-.25-2.422-.421-2.422-1.687 0-3.39.812-14.39 1.469-19.078.218-1.39.922-1.219 2.53-1.61.345-.062.548-.562.548-.796 0-.11-.032-.328-.282-.328-.515 0-2.156.187-3.953.187-2.828 0-3.359-.11-3.922-.11-.796 0-.937.563-.937.735 0 .203.063.313.313.344 1.89.281 2.703.39 2.703 2.14 0 .907-.25 4.063-.36 6.438-.062 1.125-.234 1.328-.797 1.328-2.25.047-8.187.078-10.718.078-2.172 0-2.407-.14-2.407-.765 0-.985.172-3.97.735-7.532.203-1.218.562-1.297 2.203-1.61.594-.108.797-.562.797-.874 0-.219-.063-.313-.313-.313zm0 0"/></symbol><symbol overflow="visible" id="077ca4e8A"><path d="M9.563-16.734c-1.266 0-2.626.5-4.594 2.25-2.625 2.343-3.844 5.53-3.844 9.375 0 3.25 1.36 5.703 3.813 5.703 1.78 0 4.296-1.5 6.156-4.157.25-.359.312-.562.312-.75 0-.171-.094-.343-.234-.343-.11 0-.219.11-.328.218-1.25 1.25-3.14 2.579-4.469 2.579-1.89 0-2.734-2.204-2.734-4.579 0-.843.062-1.234.343-1.265 4.063-.516 8.438-2.828 8.438-5.672 0-1.781-1.047-3.36-2.86-3.36zm-1.891 1.922c1.36 0 2.297.921 2.297 2.25 0 .765-.235 1.156-.625 1.5C8.047-9.876 4.797-8.642 4.03-8.642c-.14 0-.14-.109-.14-.25 0-1.328 1.5-5.921 3.78-5.921zm0 0"/></symbol><symbol overflow="visible" id="077ca4e8B"><path d="M13.938-18.031c-.876 0-.985 1.718-1.75 1.718-.188 0-.563-.03-.922-.03-1.579 0-2.938.28-4.688 1.718C3.5-12.109.844-8.078.844-4.265.844-1.079 2.063.593 3.39.593c.312 0 .64-.11.953-.344 1.984-1.547 4.093-4.281 5.343-5.781.141-.14.22-.203.282-.203.078 0 .14.062.14.234 0 .672-.875 3.781-.875 4.969 0 .703.704 1.094 1.235 1.094.937 0 3.734-2.907 4.89-5.25.22-.422.22-.532.22-.625 0-.22-.11-.36-.25-.36-.032 0-.063 0-.142.078-.843.969-2.343 2.969-3.046 2.969-.204 0-.282-.063-.282-.313.5-5.14 2.344-12.421 2.704-14.171.062-.282.062-.5.062-.563 0-.281-.453-.36-.688-.36zm-4.172 3.64c.765 0 1.609.282 1.609.922 0 .453-.422 2.578-.813 4.266-.234 1.078-.453 1.5-1.046 2.344-1.079 1.437-2.72 3.109-4.157 4.265-.359.281-.53.313-.671.313-.797 0-1.36-1.672-1.36-3.313 0-3.328 2.063-8.797 6.438-8.797zm0 0"/></symbol><symbol overflow="visible" id="077ca4e8C"><path d="M14.531-16.625c-1.75 0-4.656 4.266-7.047 7.203-1.156 1.438-1.25 1.547-1.468 1.547-.063 0-.141-.063-.141-.203 0-.735 1.578-5.25 1.578-7.281 0-.875-.656-1.329-1.328-1.329-1.219 0-3.64 2.204-4.797 4.375-.203.376-.312.688-.312.97 0 .218.109.359.203.359.14 0 .187-.079.39-.36 1.047-1.437 2.094-2.453 2.594-2.453.234 0 .453.11.453.469 0 2.344-1.61 8.61-2.234 10.984-.36 1.297-.531 1.781-.531 2.281 0 .688.671.797 1.156.797.937 0 1.219-.25 1.328-.734.703-2.906 1.36-7.453 2.375-7.453C7.844-7.422 8.469.844 11.031.844c1.422 0 3.781-2.938 3.781-4.094 0-.25-.109-.39-.218-.39-.063 0-.172 0-.422.28-.656.704-1.328 1.579-1.781 1.579-1.157 0-1.86-3.5-3.5-6.344-.313-.484-.344-.625-.344-.766 0-.562 2.203-3.015 3.172-3.812.812-.672 1.297-1.047 1.89-1.047.813 0 1.266.688 1.72.688.39 0 1.015-.829 1.015-1.704s-.766-1.859-1.813-1.859zm0 0"/></symbol><symbol overflow="visible" id="077ca4e8D"><path d="M4.86.734c6.577 0 9.484-12 9.484-17.468 0-4.266-.938-9.657-5.906-9.657-1.641 0-3.47.703-5.11 2.094-.36.281-.453.531-.453.735 0 .14.063.28.234.28.188 0 .422-.171.875-.374.594-.282 1.829-.813 3.125-.813 3.922 0 5 5.047 5 8.188 0 .64-.03 1.093-.171 1.093-.11 0-.11-.078-.422-.421-.735-.844-1.75-1.079-2.563-1.079-3.11 0-7.969 5.063-7.969 11.5C.984-2.063 2.094.734 4.86.734zM6.796-1.5C4.625-1.5 3.5-4.031 3.5-6.938c0-3.39 2.094-8.187 4.86-8.187 1.374 0 2.906 1.61 2.906 4 0 3.953-2.032 9.625-4.47 9.625zm0 0"/></symbol><symbol overflow="visible" id="077ca4e8E"><path d="M15.86-16.375c-1.516.688-1.266.797-2.485 3.5-.781 1.672-1.61 3.734-3.688 7.281-.312.516-.406.688-.546.688-.188 0-.282-.344-.422-1.11-.531-2.671-1.047-8.156-1.235-9.734-.093-.984-.14-1.219-.593-1.219-.516 0-3.11.547-3.11 1.532 0 .5.14 1.015.14 2.874 0 4.344-1.124 8.47-2.14 9.797-.375.454-.734.563-1.11.563-.609 0-1.062-.453-1.374-.453-.313 0-.422.344-.422.906C-1.125-.594-.594.625.422.625c2.453 0 4.062-6.547 4.516-12.39.109-1.47.171-1.704.28-1.704.095 0 .173.14.282.735.484 2.546 1.39 9.265 1.703 12 .078.53.219.703.5.703.656 0 1.11-1.516 2.797-4.688 1.5-2.875 3.219-6.375 4.125-7.922.36-.593.453-.625.531-.625.063 0 .11.079.11.204 0 .468-.454 2.5-1.235 6.624-.422 2.172-.734 4.266-.734 5.454 0 1.437 1.125 1.687 1.578 1.687 1.89 0 3.61-2.984 4.234-4.312.11-.204.25-.563.25-.766 0-.14-.078-.203-.14-.203-.11 0-.172.062-.422.375-.531.703-1.719 2.25-2.516 2.25-.36 0-.422-.39-.422-.875 0-2.485.907-7.219 1.438-9.625.594-2.735 1.047-3.781 1.047-4.14 0-.204-.078-.313-.36-.313-.593 0-1.703.343-2.125.531zm0 0"/></symbol><symbol overflow="visible" id="077ca4e8F"><path d="M5.64-2.063c-.25 0-.39-.171-.39-.624 0-1.891 1.547-8.204 2.344-11.344.14-.594.39-1.516.39-1.828 0-.422-.5-.766-1.156-.766-1.328 0-2.906 1.297-4.453 3.36-.875 1.156-1.156 1.75-1.156 2.171 0 .14.078.281.218.281.11 0 .25-.171.516-.5.984-1.109 2.313-2.578 2.906-2.578.141 0 .25.063.25.235 0 .703-2.546 9.734-2.546 12.531 0 1.063.687 1.797 1.703 1.797 1.609 0 5.296-4.703 6.859-6.938.844-1.218 1.125-1.78 1.266-1.78.109 0 .109.14.109.28 0 .485-1.547 5.735-1.547 7.094 0 .922.625 1.516 1.578 1.516.906 0 2.625-1.969 3.89-3.61.657-.875 1.142-1.75 1.142-2.203 0-.25-.125-.343-.235-.343-.14 0-.219.062-.422.343C15.75-3.5 14.484-2.094 14-2.094c-.14 0-.25-.11-.25-.39 0-1.47 1.61-8.079 2.453-11.407.453-1.796.531-2 .531-2.312 0-.39-.53-.422-.875-.422-.703 0-1.578.313-1.75.906-.312 1.094-.984 3.64-1.515 4.828-1.39 3.157-5.938 8.829-6.953 8.829zm0 0"/></symbol><symbol overflow="visible" id="077ca4e8G"><path d="M13.188-16.625c-.344 0-.829.39-1.47.39-.312 0-.968-.14-2.374-.14-3.281 0-7.031 2.969-7.031 5.938 0 1.828 1.328 3.156 3.562 3.187.25 0 .64 0 .875-.063-1.89 1.188-3.14 3.25-4.438 4.829-.562.734-.874.843-1.265.843-.594 0-1.11-.5-1.39-.5-.282 0-.282.5-.282.704C-.485-.204.422.733 1.688.733c.796 0 1.421-.343 2.515-2.062C5.422-3.36 6.828-5.875 8.328-7.391c.422-.453.985-.765 1.156-.765.079 0 .11.031.11.172 0 .39-1.547 6.125-1.547 7.39C8.047.25 8.64.672 9.312.672c1.75 0 3.282-1.969 4.235-3.328.344-.5.625-1.047.625-1.438 0-.172-.063-.281-.172-.281-.11 0-.25.14-.453.344-.625.672-1.781 1.828-2.344 1.828-.25 0-.39-.172-.39-.563 0-1.859 1.64-8.296 2.25-10.64.484-1.953.687-2.375.687-2.688a.544.544 0 00-.563-.531zm-4.782 1.36c1.281 0 2.485.64 2.485 1.124 0 .985-.813 4.094-1.157 4.797-.25.453-1.015.594-1.656.594-2.094 0-3.312-1.438-3.312-2.906 0-1.86 1.53-3.61 3.64-3.61zm0 0"/></symbol></defs><use xlink:href="#077ca4e8a" x="6.3575" y="100"/><use xlink:href="#077ca4e8b" x="37.1925" y="100"/><use xlink:href="#077ca4e8c" x="52.2425" y="100"/><use xlink:href="#077ca4e8d" x="67.7475" y="100"/><use xlink:href="#077ca4e8e" x="86.1225" y="100"/><use xlink:href="#077ca4e8f" x="101.0325" y="100"/><use xlink:href="#077ca4e8b" x="117.3075" y="100"/><use xlink:href="#077ca4e8g" x="132.3575" y="100"/><use xlink:href="#077ca4e8h" x="156.1925" y="100"/><use xlink:href="#077ca4e8i" x="176.7375" y="100"/><g fill="#b7b7b7"><use xlink:href="#077ca4e8j" x="26.224" y="150"/></g><g fill="#b7b7b7"><use xlink:href="#077ca4e8k" x="34.276" y="150"/><use xlink:href="#077ca4e8l" x="40.12" y="150"/><use xlink:href="#077ca4e8m" x="45.82" y="150"/><use xlink:href="#077ca4e8l" x="51.172" y="150"/><use xlink:href="#077ca4e8n" x="56.872" y="150"/><use xlink:href="#077ca4e8k" x="63.244" y="150"/><use xlink:href="#077ca4e8o" x="69.088" y="150"/><use xlink:href="#077ca4e8p" x="78.688" y="150"/><use xlink:href="#077ca4e8l" x="81.544" y="150"/><use xlink:href="#077ca4e8q" x="87.244" y="150"/><use xlink:href="#077ca4e8r" x="89.836" y="150"/></g><g fill="#b7b7b7"><use xlink:href="#077ca4e8s" x="96.28" y="150"/><use xlink:href="#077ca4e8t" x="102.58" y="150"/><use xlink:href="#077ca4e8u" x="108.892" y="150"/><use xlink:href="#077ca4e8k" x="115.276" y="150"/><use xlink:href="#077ca4e8l" x="121.12" y="150"/><use xlink:href="#077ca4e8n" x="126.82" y="150"/><use xlink:href="#077ca4e8q" x="133.192" y="150"/><use xlink:href="#077ca4e8v" x="135.784" y="150"/></g><g fill="#b7b7b7"><use xlink:href="#077ca4e8k" x="142.516" y="150"/><use xlink:href="#077ca4e8w" x="148.36" y="150"/><use xlink:href="#077ca4e8s" x="154.3" y="150"/><use xlink:href="#077ca4e8x" x="160.6" y="150"/><use xlink:href="#077ca4e8l" x="163.696" y="150"/><use xlink:href="#077ca4e8y" x="169.396" y="150"/></g><g><use xlink:href="#077ca4e8z" x="13.8825" y="250"/><use xlink:href="#077ca4e8A" x="43.2825" y="250"/><use xlink:href="#077ca4e8B" x="56.5125" y="250"/><use xlink:href="#077ca4e8C" x="72.7175" y="250"/><use xlink:href="#077ca4e8B" x="88.7125" y="250"/><use xlink:href="#077ca4e8D" x="104.9175" y="250"/><use xlink:href="#077ca4e8A" x="119.5825" y="250"/><use xlink:href="#077ca4e8E" x="132.8125" y="250"/><use xlink:href="#077ca4e8F" x="152.8325" y="250"/><use xlink:href="#077ca4e8G" x="170.7175" y="250"/></g><g fill="#b7b7b7"><use xlink:href="#077ca4e8j" x="32.962" y="300"/></g><g fill="#b7b7b7"><use xlink:href="#077ca4e8k" x="41.014" y="300"/><use xlink:href="#077ca4e8l" x="46.858" y="300"/><use xlink:href="#077ca4e8m" x="52.558" y="300"/><use xlink:href="#077ca4e8l" x="57.91" y="300"/><use xlink:href="#077ca4e8n" x="63.61" y="300"/><use xlink:href="#077ca4e8k" x="69.982" y="300"/><use xlink:href="#077ca4e8o" x="75.826" y="300"/><use xlink:href="#077ca4e8p" x="85.426" y="300"/><use xlink:href="#077ca4e8l" x="88.282" y="300"/><use xlink:href="#077ca4e8q" x="93.982" y="300"/><use xlink:href="#077ca4e8r" x="96.574" y="300"/></g><g fill="#b7b7b7"><use xlink:href="#077ca4e8s" x="103.018" y="300"/><use xlink:href="#077ca4e8t" x="109.318" y="300"/><use xlink:href="#077ca4e8u" x="115.63" y="300"/><use xlink:href="#077ca4e8k" x="122.014" y="300"/><use xlink:href="#077ca4e8l" x="127.858" y="300"/><use xlink:href="#077ca4e8n" x="133.558" y="300"/><use xlink:href="#077ca4e8q" x="139.93" y="300"/><use xlink:href="#077ca4e8H" x="142.522" y="300"/><use xlink:href="#077ca4e8I" x="145.726" y="300"/><use xlink:href="#077ca4e8l" x="150.034" y="300"/><use xlink:href="#077ca4e8x" x="155.734" y="300"/><use xlink:href="#077ca4e8p" x="158.83" y="300"/><use xlink:href="#077ca4e8m" x="161.686" y="300"/></g></svg>