<?xml version='1.0' encoding='UTF-8'?>
<svg xmlns="http://www.w3.org/2000/svg" xmlns:xlink="http://www.w3.org/1999/xlink" width="600px" height="300px" viewBox="0 0 600 300" x="0px" y="0px" enable-background="new 0 0 600 300"><defs><symbol overflow="visible" id="b92eec35a"><path d="M37.19-42.19c-13.72 0-25.24 11.25-25.24 24.77C11.95-6.7 18.6 4.6 32.5 4.6c4.6 0 9.88-1.94 12.81-4.42.52-.46.52-1.3.52-2.14 0-.2 0-.33-.27-.33-.33 0-1.81.92-2.47 1.23-2.65 1.38-5.72 2.67-9.68 2.67-11.18 0-17.49-9.03-17.49-19.37 0-12.08 7.88-21.58 19.95-21.58 9.5 0 16.7 5.92 16.7 15.47 0 6.7-4.48 14.17-9.66 14.17-1.63 0-2.47-.33-2.47-2.4 0-2.2 1.48-8.64 2.2-11.9.66-2.73 1.81-6.7 1.81-7.21 0-.2-.06-.33-.18-.4-.4-.12-1.24-.12-1.57-.12-.78 0-1.1.58-1.42 1.24-.2.26-.33.39-.6.39-.32 0-1.02-1.05-3.18-1.05-1.94 0-5.06 2.02-7.02 3.84-3.76 3.5-6.68 8.77-6.68 14.24 0 3.31 1.15 6.17 4.15 6.17 2.47 0 6.5-3.9 9.3-7.4a13.9 13.9 0 00-.45 3.82c0 3.06 1.3 3.52 3.64 3.52 7.53 0 15.53-8.46 15.53-16.97 0-11.95-8.52-18.27-18.78-18.27zM30.6-11.5c-1.75 0-2.33-2.16-2.33-4.3 0-4.67 3.17-11.56 6.3-11.56 1.5 0 4.42.25 4.42 1.81 0 1.36-.52 4.94-1.44 7.22-1.42 3.52-5.06 6.83-6.95 6.83zm0 0"/></symbol><symbol overflow="visible" id="b92eec35b"><path d="M25.48-37.31c-2.92 0-10.14.33-13.71.51-1.36.08-1.75 2.02-1.75 2.55 0 .31.25.45.7.52 2.28.32 6.31-.27 6.31 3.18 0 2.66-2.14 23.33-2.47 25.16-.26 1.81-2.67 2.53-5.39 3.19C8.07-1.95 7.8-.33 7.8.13c0 .2.14.32.33.32C9.8.45 14.1.06 15.59 0c2.74-.06 3.97-.06 6.38-.06.97 0 1.62-1.5 1.62-2.22 0-.25-.06-.45-.32-.45-3.2-.13-4.43.39-4.43-2.15 0-4.48.79-17.87 1.63-25.54.08-.58.14-.9.33-.9.32 0 1.23 2.34 1.68 3.5 1.9 4.88 5.72 13.52 8.2 20.6C32.39-2.4 32.9-.39 33.35.4c.2.33.4.45.85.45.65 0 1.44-.18 1.69-.78.78-1.95 1.89-4.54 2.85-6.89 3.25-7.67 8.66-18.26 10.29-22.75.45-1.23.51-2.14.96-2.14.13 0 .27.06.33.72.72 6.95 1.42 23.98 1.42 25.86 0 1.89-1.8 2.4-4.42 2.8-.97.14-1.23 1.62-1.23 2.21 0 .32.2.46.39.46.92 0 7.16-.52 10.67-.52 1.63 0 3.11.19 4.1.19 1.03 0 1.68-1.69 1.68-2.4 0-.46-.33-.52-.6-.52-3.1-.2-4.27.06-4.66-2.22-.85-5.19-2.08-23.53-2.08-26.31 0-1.96 2.6-2.94 5.45-3.46 1.38-.26 1.77-1.95 1.77-2.4 0-.4-.2-.52-.4-.52-1.76 0-11.12 1.03-13.26 1.03-.66 0-1.83-.06-2.14-.06-.6 0-.6.6-.6 1.05 0 1.3 0 2.53-.32 3.64-2.08 7.14-5.4 13.06-8.7 19.69-1.05 2.07-1.3 2.67-1.57 2.67-.25 0-.72-1.05-1.69-3.46a404.4 404.4 0 01-7.54-19.75 7.26 7.26 0 01-.52-2.4c0-.6.13-.9.13-1.3 0-.39-.32-.6-.7-.6zm0 0"/></symbol><symbol overflow="visible" id="b92eec35c"><path d="M37.1-37.83c-2.85 0-10.13.58-13.7.58-5.13 0-9.56-.31-11.57-.31-1.56 0-2.14 1.75-2.14 2.14 0 .25.06.45.45.51 1.17.27 4.75.27 5.06 1.75.4 1.9.53 8.52.53 12.75 0 5.33-.26 14.36-.45 15.86-.2 1.42-1.62 1.82-3.64 2.27-.78.2-1.31 1.44-1.31 2.1 0 .37.2.45.47.45.57 0 1.68-.15 13.3-.15 3.52 0 6.5.33 8.8.33 1.35 0 2.52-.12 3.37-.51 1.04-.52 1.89-1.83 2.85-3.52.66-1.17 1.9-3.1 1.9-3.7 0-.58-.85-1.63-1.44-1.63-.25 0-.45.4-1.75 1.96a9.49 9.49 0 01-3.97 2.98c-1.55.6-5.19.99-8.05.99-3 0-4.87-.08-4.87-4.18 0-2.65 0-10.26.31-10.65.33-.4.6-.46 3.58-.46 1.89 0 3.37.07 4.23.13 1.75.2 1.55.98 2.2 2.67.2.52 1.05.78 1.7.78.45 0 .77-.12.77-.51 0-4.96.52-6.58.52-7.88 0-.45-.84-.45-1.36-.45-.72 0-.97.39-1.23.84-.72 1.44-1.63 1.63-7.94 1.63-2.27 0-2.66-.07-2.66-.9 0-3.07.07-6.96.13-10.09.06-1.3.6-1.75 1.95-2.01 1.56-.33 4.67-.4 6.83-.4 4.28 0 5.06.4 5.51 4.43.08.6 1.18.9 1.9.9.45 0 .65-.12.65-.64 0-2.67.25-5.01.9-7.54 0-.19-.26-.52-1.82-.52zm0 0"/></symbol><symbol overflow="visible" id="b92eec35d"><path d="M29.97-37.56c-2.74 0-5.02.25-9.69.25-3.25 0-6.44-.06-7.86-.06-1.1 0-1.83 1.95-1.83 2.53 0 .26.2.45.6.53 1.1.19 5.64.06 5.78 1.69.39 4.42.45 8.7.45 12.93 0 6.24-.12 9.55-.12 14.36 0 1.81-3.4 2.4-5.27 2.66-1.5.2-1.95 1.95-1.95 2.67 0 .27.19.45.51.45C12.16.45 20.61 0 24.44 0c7.67 0 9.5.52 11.58.52.9 0 1.62-.07 2.32-.4 1.9-.7 6.05-7.28 6.05-8.51 0-.78-.84-1.36-1.23-1.36-.2 0-.25 0-.72.72a12.78 12.78 0 01-6.75 5c-2.28.51-4.42.72-6.25.72-5.58 0-6.42-.66-6.5-3.97-.07-4.49-.07-9.94-.07-14.81 0-3.25.07-6.5.2-9.75.07-1.83 2.54-2.22 5.85-2.55 1.38-.13 1.95-2.27 1.95-2.72 0-.45-.32-.45-.9-.45zm0 0"/></symbol><symbol overflow="visible" id="b92eec35e"><path d="M27.9 1.1C17.02 1.1 8.57-7.27 8.57-18.97c0-10.99 10.2-19.7 21.51-19.7 10.6 0 19.38 7.93 19.38 19.7C49.47-6.95 38.73 1.1 27.89 1.1zm-.73-36.27c-7.6 0-12.22 6.5-12.22 14.7 0 8.83 5.4 17.94 14.96 17.94 7.73 0 12.86-5.66 12.86-15.02 0-9.62-5.58-17.62-15.6-17.62zm0 0"/></symbol><symbol overflow="visible" id="b92eec35f"><path d="M26.19.45c-5.25 0-7.92-.51-11.69-.51-3.25 0-3.64.25-4.36.25-.33 0-.45-.32-.45-.64 0-.46.64-1.83 1.69-2.02 1.23-.26 3.64-.33 3.82-2.14.2-1.62.33-7.6.33-15.67 0-4.75 0-9.49-.25-13-.14-1.63-3.9-1.69-5.08-1.9-.39-.05-.39-.24-.39-.38 0-.25.46-2.08 1.63-2.08 1.23 0 2.6.2 6.1.2 8.13 0 6.57-.39 12.82-.39 11.83 0 20.67 6.5 20.67 18.2 0 5.58-2.22 10.99-5.53 13.91C40.3-1.1 34.4.45 26.19.45zm2.8-35.42c-5.33 0-7.74 0-7.8 1.95-.25 7.2-.33 13.65-.33 20.93 0 3.06.08 6.17.45 7.09.78 1.88 5.14 2.6 7.61 2.6 10.14 0 15.61-6.5 15.61-16.2 0-5.84-3.39-16.37-15.55-16.37zm0 0"/></symbol><symbol overflow="visible" id="b92eec35g"><path d="M21.06-37.31c.4 0 .52.12.52.39 0 .45-.33 1.83-1.17 1.95-.85.13-1.75.19-1.75.66 0 .64.57 1.69.84 2.26 2.2 4.42 5.4 7.8 7.22 11.38.12.26.19.33.33.33.12 0 .18-.07.39-.46 1.62-3.25 7.73-10.86 7.73-13.14 0-.64-1.56-.9-2.6-.9-.59 0-.73-.2-.73-.52 0-.39.79-2.14 1.83-2.14 1.9 0 2.6.25 4.16.25 5.33 0 7.28-.4 7.86-.4.47 0 .53.21.53.46 0 .72-.9 2.35-1.83 2.4-1.48.09-3.83.34-6.05 3.59-2.4 3.51-6.36 8.26-8.82 12.54-.54.85-.6 3.25-.6 9.57 0 1.23 0 2.65.06 4.28.08 2.01 1.57 2.22 2.86 2.22.79 0 1.11-.08 1.32-.08.3 0 .51.14.51.6 0 1.02-.45 2.2-2.01 2.2C29.7.13 28.02 0 25.55 0c-4.43 0-5.93.27-6.63.27-.47 0-.65-.15-.65-.4 0-.39.18-2.01 1.56-2.34 1.42-.33 2.98.06 3.25-2.28.25-2.6.25-2.86.25-10 0-.98-.13-2.02-.45-2.86-2.54-6.37-7.93-12.1-10.72-16.19-.66-.98-2.47-1.04-3.77-1.1-1.23-.07-1.44-.2-1.44-.46 0-.27.2-2.02 1.75-2.02 1.96 0 2.49.2 4.7.2 6.5 0 7.2-.13 7.66-.13zm0 0"/></symbol><symbol overflow="visible" id="b92eec35h"><path d="M26.33-45.05c-.14 0-.2 0-.78.33-7.61 3.97-13.27 14.63-13.27 25.8 0 8.78 3.64 19.25 11.83 24.37.53.33.66.33.78.33.72 0 2.16-2.01 2.16-2.53 0-.13-.08-.19-.27-.27C18.98-.9 15.6-11.1 15.6-19.69c0-9.23 4.1-18.4 11.2-22.68.32-.2.44-.4.44-.54 0-.3-.32-2.14-.9-2.14zm0 0"/></symbol><symbol overflow="visible" id="b92eec35i"><path d="M22.88-37.5c-1.7 0-2.66.64-10.6 1.88-.84.14-1.03 1.1-1.03 1.76 0 .19.06.31.13.4 1.17.3 5.45.24 5.59 1.68.25 2.92.39 8.31.39 13.45 0 3.25 0 6.38-.14 8.85-.31 8.57-3.31 6.62-6.03 7.92-.33.12-.66 1.04-.66 1.62 0 .4.13.66.45.66C12.81.72 18 .06 21 .06c2.53 0 4.28.2 5.9.2.66 0 1.18-.07 1.38-.14.4-.18.97-1.35.97-2.01 0-.31-.13-.52-.4-.52-2.66 0-5.52-.12-5.83-2.14-.33-2.22-.4-5.08-.4-10.65 0-17.43 1.04-19.7 1.04-21.33 0-.78-.2-.97-.79-.97zm0 0"/></symbol><symbol overflow="visible" id="b92eec35j"><path d="M23.2-46.55c5.66 0 10.47 3.58 10.47 9.17 0 5.6-4.15 9.94-8.72 12.74 4.49 3.45 9.63 7.55 9.63 13.2 0 6.44-6.3 12.49-14.11 12.55-6.03 0-11.95-3.64-11.95-10.47 0-5.84 4.75-9.75 9.8-12.73-5.65-4.18-8.63-8.07-8.63-12.75 0-5.13 5.39-11.7 13.51-11.7zm-3.12 25.7c-4.49 3.04-6.17 7.27-6.17 10.7 0 5.46 4.03 8.59 8.18 8.59 3.72 0 7.1-2.74 7.1-7.14 0-4.88-4.24-9.11-9.11-12.16zm3-5.02c3.64-2.86 5.33-6.96 5.33-10.2 0-5.34-4.3-7.68-7.1-7.68a6.45 6.45 0 00-6.56 6.5c0 4.81 4.3 8.72 8.33 11.38zm0 0"/></symbol><symbol overflow="visible" id="b92eec35k"><path d="M5.92 10.02c1.1 0 5.4-1.96 7.35-3 11.56-6.05 21.96-18 21.96-30.55 0-9.16-5.53-14.17-12.21-14.17-7.04 0-14.96 6.1-14.96 14.83 0 5.32 4.1 10.32 10.2 10.32 2.41 0 4.94-.72 6.63-2.07.66-.52 1.5-1.3 1.5-2.2 0-.48-.2-.87-.39-.87-.4 0-1.81 1.17-4.48 1.17-4.75 0-8.13-3.64-8.13-8.96 0-4.88 3.25-9.55 7.73-9.55 5 0 8.25 5.26 8.25 11.5 0 15.8-14.3 26.9-22.68 30.87-1.24.6-1.36 1.5-1.36 2.08 0 .46.12.6.6.6zm0 0"/></symbol><symbol overflow="visible" id="b92eec35l"><path d="M20.16-37.77c-4.36 0-10.02 3.46-11.32 7.55-.14.31-.2.84-.2 1.24 0 .45.14.9.4.9.13 0 .32-.12.52-.33 2.14-2.2 4.67-4.21 7.99-4.21 3.45 0 5.65 3.64 5.65 7.28 0 8.25-11.17 20.46-14.8 23.39C7.33-1.11 7.33-.72 7.33-.4c0 .58.27 1.1.97 1.1.92 0 3.06-.13 8.46-.13 4.03 0 5.26.08 10.86.08 2.01 0 3.43 0 4.48-.27.84-.2 1.3-1.95 1.83-4.03.58-2.28.9-2.92.9-3.44 0-.6-.53-1.1-.84-1.1-.06 0-.14.05-.2.12-1.24 1.62-2.2 2.67-4.42 3-3.05.37-8.77.7-13.85.7-.9 0-1.48 0-1.48-.19 0-.2 1.54-1.62 2.39-2.47 5.98-6.37 12.36-14.23 12.36-21 0-4.67-3.13-9.75-8.64-9.75zm0 0"/></symbol><symbol overflow="visible" id="b92eec35m"><path d="M13.19 5.78c.14 0 .2 0 .78-.33 7.6-3.95 13.26-14.62 13.26-25.8 0-8.77-3.64-19.23-11.82-24.37-.52-.33-.66-.33-.79-.33-.71 0-2.14 2.02-2.14 2.53 0 .15.07.2.25.27 7.82 3.9 11.2 14.1 11.2 22.69 0 9.23-4.1 18.39-11.2 22.68-.3.2-.45.4-.45.52 0 .33.33 2.14.9 2.14zm0 0"/></symbol><symbol overflow="visible" id="b92eec35n"><path d="M14.23-38.42c-.96 0-1.68.26-1.68.78 0 1.44.39 4.48.57 11.52.2 6.23.4 12.73.99 14.42.06.32.25.45.52.45.96 0 2.14-.7 2.14-2.4s.2-5.52.92-12.8c.58-6.18 1.36-9.96 1.36-10.74 0-.9-2.93-1.23-4.82-1.23zM11.7-2.86C11.7-.9 13 .58 14.9.58c2.2 0 3.94-2.02 3.94-4.22a3.3 3.3 0 00-3.25-3.44c-2.26 0-3.89 1.75-3.89 4.22zm0 0"/></symbol><symbol overflow="visible" id="b92eec35o"><path d="M3.83 0v-5.95H6.2v-.82H.45v.82h2.4V0zm0 0"/></symbol><symbol overflow="visible" id="b92eec35p"><path d="M5.75-2.23v-.43c0-1.6-.9-2.51-2.42-2.51S.87-4.16.87-2.48c0 1.71.91 2.62 2.5 2.62 1.43 0 2.07-.56 2.29-1.52l-.9-.09c-.18.61-.59.9-1.35.9-.94 0-1.52-.54-1.58-1.66zm-2.4-2.2c.93 0 1.43.5 1.48 1.55H1.84c.08-1.07.6-1.56 1.5-1.56zm0 0"/></symbol><symbol overflow="visible" id="b92eec35q"><path d="M1.83 0l1.42-2h.06l1.46 2H5.8L4-2.53l1.78-2.49H4.8L3.42-3.08h-.08l-1.4-1.94H.89l1.78 2.49L.84 0zm0 0"/></symbol><symbol overflow="visible" id="b92eec35r"><path d="M5.52-4.25v-.77H3.17v-1.56h-.81l-.14 1.56H.75v.77h1.47v2.4c0 1.3.48 1.94 1.84 1.94C4.6.1 5.14 0 5.55-.14L5.4-.91c-.32.13-.72.2-1.13.2-.8 0-1.1-.37-1.1-1.23v-2.31zm0 0"/></symbol><symbol overflow="visible" id="b92eec35s"><path d="M3.33-3.42c.47 0 .8-.27.8-.8 0-.51-.33-.8-.8-.8-.47 0-.8.29-.8.8 0 .53.33.8.8.8zm0 3.5c.47 0 .8-.27.8-.78 0-.53-.33-.82-.8-.82-.47 0-.8.29-.8.82 0 .51.33.78.8.78zm0 0"/></symbol><symbol overflow="visible" id="b92eec35u"><path d="M5.42-3.63c-.15-.43-.51-.75-1.19-.75-.98 0-1.54.66-1.54 1.83 0 1.13.6 1.85 1.72 1.85 1.07 0 1.75-.61 1.75-1.93v-.65c0-2.06-.72-3.13-2.66-3.13C1.47-6.4.64-5.08.64-3.14v.94c0 2.06.92 3.26 3.22 3.26.6 0 1.22-.12 1.58-.28L5.3.25C4.94.41 4.42.5 3.86.5 1.96.5 1.3-.44 1.3-2.2v-.94c0-1.53.51-2.69 2.2-2.69 1.56 0 2.05.86 2.05 2.2zm-.98 2.35c-.69 0-1.02-.42-1.02-1.27 0-.86.33-1.23.99-1.23.7 0 1.01.44 1.01 1.22 0 .9-.36 1.28-.98 1.28zm0 0"/></symbol><symbol overflow="visible" id="b92eec35v"><path d="M1.63 0v-2.9c0-.8.15-1.4.71-1.4.41 0 .55.3.55.88V0h.95v-2.9c0-.8.18-1.4.72-1.4.4 0 .57.3.57.88V0h.95v-3.63c0-.92-.28-1.53-1.11-1.53-.63 0-.95.41-1.1.9h-.06c-.1-.52-.44-.9-1.08-.9-.6 0-.93.41-1.06.9H1.6l-.23-.76H.67V0zm0 0"/></symbol><symbol overflow="visible" id="b92eec35w"><path d="M3.92-7.14H1.36v.76h1.6v5.61H1.15V0H5.7v-.77H3.92zm0 0"/></symbol><symbol overflow="visible" id="b92eec35x"><path d="M3.33.14c1.62 0 2.5-.95 2.5-2.66 0-1.68-.88-2.64-2.5-2.64-1.63 0-2.5.96-2.5 2.64 0 1.7.87 2.66 2.5 2.66zm0-.77c-1.06 0-1.52-.6-1.52-1.89 0-1.28.46-1.87 1.52-1.87 1.08 0 1.53.6 1.53 1.87 0 1.29-.45 1.9-1.53 1.9zm0 0"/></symbol><symbol overflow="visible" id="b92eec35y"><path d="M2.84.14C3.8.14 4.33-.26 4.6-.9h.07L4.8 0h.76v-7.14h-.95v2.95h-.08c-.28-.6-.86-.97-1.67-.97-1.48 0-2.27.99-2.27 2.64C.6-.84 1.36.14 2.84.14zm.22-.8c-.98 0-1.48-.59-1.48-1.84s.5-1.86 1.48-1.86c1.13 0 1.58.8 1.58 1.86S4.2-.66 3.06-.66zm0 0"/></symbol><symbol overflow="visible" id="b92eec35z"><path d="M3.42-.86h-.08L1.77-5.02H.8L2.73 0h.41c-.33.95-.72 1.27-1.45 1.27-.22 0-.49-.04-.69-.08l-.1.73c.2.06.58.11.87.11 1.2 0 1.7-.7 2.21-2.03l1.94-5.02H5zm0 0"/></symbol><symbol overflow="visible" id="b92eec35A"><path d="M1.45-2.95c0 2.56 1.08 4.37 3.67 4.84l.11-.67C3.28.86 2.43-.75 2.43-2.95s.85-3.82 2.8-4.16l-.1-.69c-2.6.49-3.68 2.3-3.68 4.85zm0 0"/></symbol><symbol overflow="visible" id="b92eec35B"><path d="M4.22-6.77h-.86l-2.03.7v.87c.64-.17 1.26-.38 1.89-.55v4.9H1.03V0h4.9v-.86H4.21zm0 0"/></symbol><symbol overflow="visible" id="b92eec35C"><path d="M3.33.16c1.69 0 2.69-.74 2.69-1.94 0-1.05-.8-1.58-1.43-1.72v-.05c.5-.14 1.2-.58 1.2-1.56 0-1.12-.95-1.81-2.46-1.81-1.52 0-2.46.69-2.46 1.81 0 .97.68 1.4 1.18 1.56v.05c-.6.14-1.4.64-1.4 1.72 0 1.2 1 1.94 2.68 1.94zm0-4.04c-.97 0-1.49-.43-1.49-1.12 0-.78.52-1.1 1.49-1.1.95 0 1.48.32 1.48 1.1 0 .69-.53 1.13-1.48 1.13zm0 3.24c-1.1 0-1.7-.42-1.7-1.25 0-.78.6-1.2 1.7-1.2s1.7.42 1.7 1.2c0 .83-.6 1.25-1.7 1.25zm0 0"/></symbol><symbol overflow="visible" id="b92eec35D"><path d="M3.25-6.9C1.67-6.9.77-6.04.77-4.6c0 1.41.85 2.18 2.21 2.18 1.04 0 1.58-.52 1.88-1.03h.06c0 1.54-.39 2.78-1.73 2.78-.9 0-1.24-.44-1.36-.97l-.97.1c.22.96.86 1.68 2.33 1.68C4.83.14 5.8-.9 5.8-3.64c0-2.22-.92-3.27-2.56-3.27zm-.02.8c.91 0 1.46.52 1.46 1.44 0 .91-.69 1.47-1.53 1.47-.91 0-1.46-.51-1.46-1.47S2.3-6.1 3.23-6.1zm0 0"/></symbol><symbol overflow="visible" id="b92eec35E"><path d="M5.67 0v-.86H2.14V-.9L3.6-2c1.05-.83 2-1.68 2-2.91 0-1.19-.73-1.99-2.26-1.99-1.66 0-2.3 1.02-2.44 2.33l1 .08c.1-.92.42-1.58 1.44-1.58.87 0 1.26.44 1.26 1.24 0 .9-.8 1.53-1.96 2.53L.83-.81V0zm0 0"/></symbol><symbol overflow="visible" id="b92eec35F"><path d="M1.45-7.1c1.96.33 2.8 1.94 2.8 4.15 0 2.2-.84 3.8-2.8 4.17l.11.67c2.58-.47 3.67-2.28 3.67-4.84 0-2.55-1.09-4.36-3.67-4.85zm0 0"/></symbol><symbol overflow="visible" id="b92eec35G"><path d="M3.72-1.77l.1-2.56v-2.81h-.96v2.81l.08 2.56zM3.32.08c.37 0 .6-.2.6-.58 0-.38-.23-.58-.6-.58-.35 0-.57.2-.57.58 0 .38.22.58.58.58zm0 0"/></symbol><symbol overflow="visible" id="b92eec35H"><path d="M5.95-6.77H1.1V0h.99v-2.92H5.3v-.77H2.08v-2.26h3.87zm0 0"/></symbol><symbol overflow="visible" id="b92eec35I"><path d="M2.83.14c.94 0 1.5-.39 1.81-.95h.08l.1.81h.76v-3.38c0-1.23-.69-1.8-2.13-1.8-1.43 0-2.03.65-2.18 1.6l.93.1c.11-.6.44-.93 1.22-.93.85 0 1.22.32 1.22 1.04v.34l-1.81.2C1.6-2.7 1.1-2.17 1.1-1.28c0 .92.64 1.42 1.72 1.42zm.25-.77c-.67 0-1.02-.28-1.02-.74 0-.44.28-.72 1-.82l1.58-.19v.41c0 .8-.6 1.34-1.56 1.34zm0 0"/></symbol><symbol overflow="visible" id="b92eec35J"><path d="M2.73.14c.9 0 1.43-.45 1.74-1.08h.06l.13.94h.8v-5.02h-.94v2.7c0 .98-.57 1.62-1.46 1.62-.75 0-1.1-.4-1.1-1.22v-3.1h-.93v3.32c0 1.17.55 1.84 1.7 1.84zm0 0"/></symbol><symbol overflow="visible" id="b92eec35K"><path d="M5.08-5.16c-.94 0-1.58.43-1.9 1.3h-.09l-.07-1.16H1.05v.77h1.1v3.48H.96V0h3.96v-.77H3.1v-1.46c0-1.36.6-2.05 1.83-2.05.4 0 .76.08 1.1.17l.15-.87c-.33-.11-.7-.18-1.11-.18zm0 0"/></symbol><symbol overflow="visible" id="b92eec35L"><path d="M3.42.14c1.61 0 2.56-.75 2.56-2 0-1.1-.67-1.6-1.95-1.86l-.97-.2c-.87-.17-1.23-.49-1.23-1.11 0-.7.54-1.11 1.5-1.11 1.06 0 1.51.34 1.69 1.23l.9-.09c-.17-1.28-.98-1.9-2.6-1.9C1.79-6.9.9-6.18.9-4.98c0 1.06.66 1.66 1.88 1.9l1.01.2c.85.17 1.25.4 1.25 1.09 0 .73-.6 1.16-1.6 1.16-1.07 0-1.66-.4-1.8-1.24l-.94.1C.83-.53 1.75.13 3.42.13zm0 0"/></symbol><symbol overflow="visible" id="b92eec35M"><path d="M3.34.14c1.43 0 2.13-.66 2.25-1.78l-.89-.1c-.1.7-.5 1.08-1.34 1.08-1.03 0-1.52-.64-1.52-1.84 0-1.23.47-1.86 1.52-1.86.84 0 1.23.36 1.34 1.08l.9-.1c-.13-1.09-.82-1.78-2.26-1.78-1.56 0-2.46.97-2.46 2.66 0 1.66.9 2.64 2.46 2.64zm0 0"/></symbol><symbol overflow="visible" id="b92eec35N"><path d="M2.06 1.9V-.84h.05c.28.58.8.97 1.77.97 1.5 0 2.2-.98 2.2-2.66 0-1.65-.7-2.64-2.19-2.64-.97 0-1.5.44-1.78 1.05h-.08l-.1-.9H1.1v6.9zm1.5-2.56c-1.06 0-1.53-.8-1.53-1.86 0-1.04.47-1.84 1.53-1.84 1.11 0 1.53.61 1.53 1.84 0 1.27-.42 1.86-1.53 1.86zm0 0"/></symbol><symbol overflow="visible" id="b92eec35O"><path d="M3.58-5.81c.42 0 .72-.22.72-.67 0-.44-.3-.68-.72-.68-.44 0-.72.24-.72.68 0 .45.28.67.72.67zm.5.8H1.52v.76h1.6v3.48h-1.8V0h4.46v-.77h-1.7zm0 0"/></symbol><symbol overflow="visible" id="b92eec35P"><path d="M3.36.16c1.4 0 2.2-.6 2.2-1.57 0-.89-.54-1.22-1.47-1.39L3-3c-.67-.14-.86-.33-.86-.73 0-.5.4-.74 1.17-.74.83 0 1.19.27 1.27.8l.9-.05c-.12-1-.8-1.47-2.17-1.47-1.34 0-2.1.53-2.1 1.5 0 .81.45 1.22 1.52 1.44l1.04.2c.56.11.87.24.87.72 0 .52-.45.78-1.28.78-.95 0-1.36-.28-1.42-.87l-.9.06C1.07-.36 1.8.16 3.35.16zm0 0"/></symbol><symbol overflow="visible" id="b92eec35Q"><path d="M3.34-1.56c-.54 0-.82.31-.82.86 0 .5.3.78.76.78-.08.4-.34.95-.65 1.39l.53.25c.57-.67 1-1.67 1-2.36 0-.6-.3-.92-.82-.92zm0 0"/></symbol><symbol overflow="visible" id="b92eec35R"><path d="M3.16 2.03c1.67 0 2.4-.86 2.4-2.51v-4.54h-.81l-.13.91h-.06c-.26-.58-.8-1.05-1.73-1.05-1.42 0-2.24 1-2.24 2.52 0 1.6.75 2.56 2.2 2.56.94 0 1.5-.5 1.77-1.03h.05v.72c0 1.17-.42 1.67-1.45 1.67-.93 0-1.3-.34-1.41-.89L.8.5c.12.96.87 1.54 2.36 1.54zM3.06-.8c-.98 0-1.48-.57-1.48-1.82 0-1.13.5-1.75 1.48-1.75 1.06 0 1.58.76 1.58 1.75 0 .95-.56 1.82-1.58 1.82zm0 0"/></symbol><symbol overflow="visible" id="b92eec35S"><path d="M2.16 0v-2.69c0-.98.6-1.6 1.46-1.6.74 0 1.07.4 1.07 1.2V0h.95v-3.31c0-1.17-.56-1.85-1.67-1.85-.9 0-1.44.46-1.75 1.08h-.06v-3.06H1.2V0zm0 0"/></symbol><symbol overflow="visible" id="b92eec35T"><path d="M2.16 0v-2.67c0-.99.59-1.63 1.46-1.63.74 0 1.07.38 1.07 1.22V0h.95v-3.31c0-1.2-.56-1.85-1.67-1.85-.92 0-1.49.46-1.77 1.08h-.06l-.12-.94H1.2V0zm0 0"/></symbol><symbol overflow="visible" id="b92eec35U"><path d="M5.4-1.22c.43-.66.66-1.51.66-2.44l-.83-.09c0 .75-.14 1.4-.4 1.92l-1.7-1.83c.8-.42 1.39-.96 1.39-1.86 0-.87-.66-1.4-1.61-1.4-1.14 0-1.72.62-1.72 1.47 0 .72.47 1.3.83 1.68-.8.41-1.52.99-1.52 2.1C.5-.44 1.52.14 2.7.14c.9 0 1.64-.3 2.2-.78l.58.64h1.05zM2.86-6.25c.44 0 .82.23.82.73 0 .7-.47 1.11-1 1.41-.47-.53-.67-.92-.67-1.34 0-.47.3-.8.85-.8zM2.81-.62c-.83 0-1.42-.41-1.42-1.18 0-.76.5-1.18 1.05-1.5l1.94 2.1c-.4.37-.91.57-1.57.57zm0 0"/></symbol></defs><g fill="#fff"><use xlink:href="#b92eec35a" x="118.845" y="121"/><use xlink:href="#b92eec35b" x="178.45" y="121"/><use xlink:href="#b92eec35c" x="243.645" y="121"/><use xlink:href="#b92eec35d" x="287.26" y="121"/><use xlink:href="#b92eec35e" x="330.485" y="121"/><use xlink:href="#b92eec35f" x="382.16" y="121"/><use xlink:href="#b92eec35g" x="435.46" y="121"/><use xlink:href="#b92eec35h" x="183.6175" y="186"/><use xlink:href="#b92eec35i" x="214.1675" y="186"/><use xlink:href="#b92eec35j" x="248.3575" y="186"/><use xlink:href="#b92eec35k" x="286.3175" y="186"/><use xlink:href="#b92eec35l" x="324.9275" y="186"/><use xlink:href="#b92eec35m" x="360.8075" y="186"/><use xlink:href="#b92eec35n" x="391.3575" y="186"/><use xlink:href="#b92eec35o" x="230" y="252"/><use xlink:href="#b92eec35p" x="236.667" y="252"/><use xlink:href="#b92eec35q" x="243.334" y="252"/><use xlink:href="#b92eec35r" x="250.001" y="252"/><use xlink:href="#b92eec35s" x="256.668" y="252"/><use xlink:href="#b92eec35t" x="263.335" y="252"/><use xlink:href="#b92eec35u" x="270.002" y="252"/><use xlink:href="#b92eec35v" x="276.669" y="252"/><use xlink:href="#b92eec35p" x="283.336" y="252"/><use xlink:href="#b92eec35w" x="290.003" y="252"/><use xlink:href="#b92eec35x" x="296.67" y="252"/><use xlink:href="#b92eec35y" x="303.337" y="252"/><use xlink:href="#b92eec35z" x="310.004" y="252"/><use xlink:href="#b92eec35t" x="316.671" y="252"/><use xlink:href="#b92eec35A" x="323.338" y="252"/><use xlink:href="#b92eec35B" x="330.005" y="252"/><use xlink:href="#b92eec35C" x="336.672" y="252"/><use xlink:href="#b92eec35D" x="343.339" y="252"/><use xlink:href="#b92eec35E" x="350.006" y="252"/><use xlink:href="#b92eec35F" x="356.673" y="252"/><use xlink:href="#b92eec35G" x="363.34" y="252"/><g><use xlink:href="#b92eec35H" x="126.6667" y="266"/><use xlink:href="#b92eec35p" x="133.3337" y="266"/><use xlink:href="#b92eec35I" x="140.0007" y="266"/><use xlink:href="#b92eec35r" x="146.6677" y="266"/><use xlink:href="#b92eec35J" x="153.3347" y="266"/><use xlink:href="#b92eec35K" x="160.0017" y="266"/><use xlink:href="#b92eec35p" x="166.6687" y="266"/><use xlink:href="#b92eec35s" x="173.3357" y="266"/><use xlink:href="#b92eec35t" x="180.0027" y="266"/><use xlink:href="#b92eec35L" x="186.6697" y="266"/><use xlink:href="#b92eec35v" x="193.3367" y="266"/><use xlink:href="#b92eec35I" x="200.0037" y="266"/><use xlink:href="#b92eec35w" x="206.6707" y="266"/><use xlink:href="#b92eec35w" x="213.3377" y="266"/><use xlink:href="#b92eec35t" x="220.0047" y="266"/><use xlink:href="#b92eec35M" x="226.6717" y="266"/><use xlink:href="#b92eec35I" x="233.3387" y="266"/><use xlink:href="#b92eec35N" x="240.0057" y="266"/><use xlink:href="#b92eec35O" x="246.6727" y="266"/><use xlink:href="#b92eec35r" x="253.3397" y="266"/><use xlink:href="#b92eec35I" x="260.0067" y="266"/><use xlink:href="#b92eec35w" x="266.6737" y="266"/><use xlink:href="#b92eec35P" x="273.3407" y="266"/><use xlink:href="#b92eec35Q" x="280.0077" y="266"/><use xlink:href="#b92eec35t" x="286.6747" y="266"/><use xlink:href="#b92eec35J" x="293.3417" y="266"/><use xlink:href="#b92eec35N" x="300.0087" y="266"/><use xlink:href="#b92eec35K" x="306.6757" y="266"/><use xlink:href="#b92eec35O" x="313.3427" y="266"/><use xlink:href="#b92eec35R" x="320.0097" y="266"/><use xlink:href="#b92eec35S" x="326.6767" y="266"/><use xlink:href="#b92eec35r" x="333.3437" y="266"/><use xlink:href="#b92eec35P" x="340.0107" y="266"/><use xlink:href="#b92eec35t" x="346.6777" y="266"/><use xlink:href="#b92eec35x" x="353.3447" y="266"/><use xlink:href="#b92eec35T" x="360.0117" y="266"/><use xlink:href="#b92eec35w" x="366.6787" y="266"/><use xlink:href="#b92eec35z" x="373.3457" y="266"/><use xlink:href="#b92eec35t" x="380.0127" y="266"/><use xlink:href="#b92eec35A" x="386.6797" y="266"/><use xlink:href="#b92eec35P" x="393.3467" y="266"/><use xlink:href="#b92eec35v" x="400.0137" y="266"/><use xlink:href="#b92eec35M" x="406.6807" y="266"/><use xlink:href="#b92eec35N" x="413.3477" y="266"/><use xlink:href="#b92eec35t" x="420.0147" y="266"/><use xlink:href="#b92eec35U" x="426.6817" y="266"/><use xlink:href="#b92eec35t" x="433.3487" y="266"/><use xlink:href="#b92eec35M" x="440.0157" y="266"/><use xlink:href="#b92eec35E" x="446.6827" y="266"/><use xlink:href="#b92eec35P" x="453.3497" y="266"/><use xlink:href="#b92eec35M" x="460.0167" y="266"/><use xlink:href="#b92eec35F" x="466.6837" y="266"/></g></g></svg>