<?xml version='1.0' encoding='UTF-8'?>
<svg xmlns="http://www.w3.org/2000/svg" xmlns:xlink="http://www.w3.org/1999/xlink" width="600px" height="300px" viewBox="0 0 600 300" x="0px" y="0px" enable-background="new 0 0 600 300"><defs><symbol overflow="visible" id="f68e7d8da"><path d="M11.95-31.33c-3.04 0-6.3 1.9-8.82 5.2-.6.7-.99 1.7-.99 2.41 0 .52.2.84.6.84.18 0 .45-.14.84-.39 2.2-1.62 4.15-2.54 5.78-2.54 2.67 0 4.3 2.22 4.3 5.34 0 6.63-8.27 16.05-11.52 19.36-.25.33-.39.53-.39 1.11 0 .45.33.72.78.72 5.33.06 9.3.12 12.28.12 6.97 0 8.78-.12 9.3-.84C24.83-.97 26-4.6 26-5.72c0-.66-.33-.97-.66-.97-.3 0-.9 2.14-6.75 2.14-1.68 0-5.86-.06-9.8-.06-.34 0-.54 0-.54-.26 0-.13.06-.27.27-.58.96-1.7 10.46-10.4 10.46-18.27 0-3.84-2.86-7.6-7.03-7.6zm0 0"/></symbol><symbol overflow="visible" id="f68e7d8db"><path d="M9.36-24.56c.33 0 8-.2 10.08-.53.78-.13 3.25-4.35 3.25-5.72 0-.33-.07-.52-.33-.52-.45 0-5.72 1.11-12.88 1.11-1.54 0-6.56 12.92-6.56 14.42 0 .99 0 1.5 2.67 3.2 5.97 3.7 8.85 8.38 8.85 12.66 0 5-3.9 9.5-11.13 10.99-.64.14-1.62 1.68-1.62 2.6 0 .4.26.7.72.7.51 0 6.04-1.16 10.86-5.12 3.89-3.25 6.3-7.54 6.3-12.48 0-6.38-5-10.8-12.29-15.73-.26-.2-.78-.58-.78-1.1 0-.98 2.14-4.48 2.86-4.48zm0 0"/></symbol><symbol overflow="visible" id="f68e7d8dd"><path d="M10.27 2.34c.39.4.98.72 1.37.72.25 0 .52-.08.7-.39 2.22-3.12 8.4-13.08 15.61-24.58 4.49-7.15 9.24-14.68 13.33-21.12.9-1.42 1.3-2.08 1.3-2.2 0-.72-.99-1.44-1.5-1.44-.58 0-.9.45-2.02 2.01A747.97 747.97 0 0026.4-24.89 3993.52 3993.52 0 0010.33.84c-.25.4-.31.66-.31.85 0 .2.06.45.25.65zm4.8-47.9c-.38 0-.9.45-3.57 1.42-2.27.84-4.6 1.7-5.27 1.89-.3.06-.57.72-.57 1.17 0 .27.06.45.26.45.9-.06 1.69-.06 2.27-.06 1.89 0 2.4.25 2.47 1.11.14 1.63.2 3.83.2 6.17 0 3.44-.2 6.9-.53 9.1-.25 1.68-1.36 2.28-3.44 2.6-.45.07-.9 1.1-.9 1.7 0 .24.06.45.32.45.52 0 2.53-.27 6.63-.33 1.3 0 2.86-.06 5.45-.06.84 0 1.17-1.11 1.17-1.57 0-.51 0-.57-1.3-.65-2.92-.13-3.18-.85-3.18-2.2 0-4.43.06-9.94.26-14.57.13-3.58.58-5.26.58-5.78a.86.86 0 00-.84-.84zm17.04 25.8a2.6 2.6 0 00-.52 1.37c0 .33.2.58.52.58.33 0 .58-.19 1.36-.78a9.87 9.87 0 015.2-1.63c2.02 0 3.64.99 3.64 3.97 0 5.4-5.45 10.53-10.72 15.14-.53.45-.71.84-.71 1.17 0 .52.51.78 1.35.78.72 0 2.55-.12 4.75-.12 5.54 0 9.88.25 10.93.25.39 0 .65-.13.84-.45.9-1.49 1.9-3.83 1.95-4.88 0-.33-.2-1.36-.6-1.36-.12 0-.18.06-.24.13-1.17 1.17-1.83 2.07-3.25 2.34-.84.19-4.1.19-6.44.19-1.17 0-2.22-.06-2.8-.06-.26 0-.57 0-.57-.13 0-.06.06-.27.84-.97 3.64-3.51 9.3-7.81 9.3-14.17 0-3.45-2.35-6.05-5.99-6.05-3.25 0-6.95 1.57-8.84 4.67zm0 0"/></symbol><symbol overflow="visible" id="f68e7d8de"><path d="M11.05 2.34c.39.4.98.72 1.37.72.25 0 .52-.08.7-.39 2.22-3.12 8.4-13.08 15.61-24.58 4.49-7.15 9.22-14.68 13.33-21.12.9-1.42 1.3-2.08 1.3-2.2 0-.72-.98-1.44-1.5-1.44-.58 0-.9.45-2.02 2.01a747.97 747.97 0 00-12.67 19.77A3993.52 3993.52 0 0011.11.84c-.25.4-.31.66-.31.85 0 .2.06.45.25.65zm4.03-47.9c-.4 0-.9.45-3.58 1.42-2.27.84-4.6 1.7-5.27 1.89-.3.06-.57.72-.57 1.17 0 .27.06.45.26.45.9-.06 1.69-.06 2.27-.06 1.89 0 2.4.25 2.47 1.11.14 1.63.2 3.83.2 6.17 0 3.44-.2 6.9-.53 9.1-.25 1.68-1.36 2.28-3.44 2.6-.45.07-.9 1.1-.9 1.7 0 .24.06.45.32.45.52 0 2.53-.27 6.63-.33 1.3 0 2.86-.06 5.45-.06.84 0 1.17-1.11 1.17-1.57 0-.51 0-.57-1.3-.65-2.92-.13-3.18-.85-3.18-2.2 0-4.43.06-9.94.26-14.57.13-3.58.58-5.26.58-5.78a.86.86 0 00-.84-.84zm28.8 19.37c-.13 0-.33.13-.46.25-.9.9-1.75 1.9-2.53 2.8-2.22 2.4-9.23 10.33-11.9 13.2-.7.77-1.3 1.63-1.3 2.08 0 .19.06.31.51.4 2.55.38 10.99.5 11.46.5.25 0 .39 0 .39.4 0 2.92-.27 6.56-.27 7.4 0 .33.33.46.78.46.58 0 1.42-.2 2.47-.72.97-.45 1.17-.7 1.17-1.36 0-2.6.13-4.94.13-5.6 0-.25 0-.45.45-.45.99 0 2.61 0 3.19-.06.9-.06 1.56-2.47 1.56-2.92 0-.46-.2-.52-.39-.52-.66 0-1.05.19-4.36.19-.25 0-.33-.19-.33-.33 0-.19-.06-1.17-.06-4.94 0-3.3.14-8.18.14-9.3 0-.63-.2-1.48-.66-1.48zm-3.65 6.3c.07 0 .13.06.13.27 0 3.37-.19 7.28-.31 8.96-.08.72-.14.72-.4.72-.2 0-1.5.06-2.27.06-1.57 0-3.7-.06-4.61-.06-.27 0-.46-.08-.46-.2 0-.06 0-.13.46-.72 1.42-1.87 2.46-3.05 3.7-4.6a369.1 369.1 0 003.31-4.04c.27-.33.4-.4.45-.4zm0 0"/></symbol><symbol overflow="visible" id="f68e7d8df"><path d="M12.16 2.34c.39.4.96.72 1.36.72.26 0 .53-.08.71-.39 2.2-3.12 8.4-13.08 15.6-24.58 4.48-7.15 9.23-14.68 13.33-21.12.9-1.42 1.3-2.08 1.3-2.2 0-.72-.98-1.44-1.5-1.44-.59 0-.9.45-2 2.01a747.97 747.97 0 00-12.68 19.77A3405.5 3405.5 0 0012.22.84c-.27.4-.33.66-.33.85 0 .2.06.45.27.65zm32.56-28.67c-.13 0-.33.14-.45.27-.91.9-1.75 1.87-2.54 2.8-2.21 2.4-9.23 10.32-11.9 13.18-.7.78-1.3 1.63-1.3 2.08 0 .2.06.33.53.4 2.53.38 10.99.52 11.44.52.25 0 .4 0 .4.4 0 2.91-.27 6.55-.27 7.4 0 .33.32.45.78.45.57 0 1.42-.2 2.47-.72.96-.45 1.17-.72 1.17-1.36 0-2.6.12-4.93.12-5.59 0-.27 0-.45.45-.45.99 0 2.61 0 3.2-.07.9-.06 1.55-2.46 1.55-2.92 0-.47-.18-.53-.39-.53-.65 0-1.04.2-4.35.2-.26 0-.32-.2-.32-.32 0-.2-.08-1.18-.08-4.94 0-3.31.15-8.19.15-9.3 0-.65-.2-1.5-.66-1.5zm-3.64 6.31c.06 0 .12.07.12.25 0 3.4-.18 7.29-.3 8.97-.09.72-.15.72-.4.72-.2 0-1.5.06-2.28.06-1.56 0-3.7-.06-4.61-.06-.27 0-.45-.06-.45-.19 0-.06 0-.14.45-.71 1.42-1.9 2.47-3.07 3.7-4.61a369.1 369.1 0 003.31-4.04c.27-.32.4-.39.46-.39zm-26.13-24.7c-2.14 0-4.23 1.03-5.65 2.02-1.11.78-2.28 2.01-2.28 2.86 0 .45.14.84.45.84.26 0 .53-.27 1.37-.78a8.02 8.02 0 014.04-1.36c1.68 0 3.18.9 3.18 2.98 0 2.8-3.84 5.47-6.76 6.44-.66.19-1.11 1.24-1.11 1.9 0 .38.12.57.45.57s1.38-.4 3.25-.4c2.92 0 5.47 1.12 5.47 4.3 0 3.7-3.52 5.98-6.9 5.98-.77 0-1.04-.13-1.55-.13-1.24 0-2.54 1.81-2.54 2.53 0 .6 1.63.66 2.15.66 2.46 0 5.92-1.38 8.64-3.38 2.67-1.95 4.75-4.56 4.75-7.28 0-3.06-2.35-5.34-6.63-5.34-.39 0-.78 0-.78-.13 0-.06.13-.12.58-.45 2.4-1.5 5.2-4.16 5.2-7.02 0-3-2.6-4.8-5.33-4.8zm0 0"/></symbol><symbol overflow="visible" id="f68e7d8dg"><path d="M3.83 0v-5.95H6.2v-.82H.45v.82h2.4V0zm0 0"/></symbol><symbol overflow="visible" id="f68e7d8dh"><path d="M5.75-2.23v-.43c0-1.6-.9-2.51-2.42-2.51S.87-4.16.87-2.48c0 1.71.91 2.62 2.5 2.62 1.43 0 2.07-.56 2.29-1.52l-.9-.09c-.18.61-.59.9-1.35.9-.94 0-1.52-.54-1.58-1.66zm-2.4-2.2c.93 0 1.43.5 1.48 1.55H1.84c.08-1.07.6-1.56 1.5-1.56zm0 0"/></symbol><symbol overflow="visible" id="f68e7d8di"><path d="M1.83 0l1.42-2h.06l1.46 2H5.8L4-2.53l1.78-2.49H4.8L3.42-3.08h-.08l-1.4-1.94H.89l1.78 2.49L.84 0zm0 0"/></symbol><symbol overflow="visible" id="f68e7d8dj"><path d="M5.52-4.25v-.77H3.17v-1.56h-.81l-.14 1.56H.75v.77h1.47v2.4c0 1.3.48 1.94 1.84 1.94C4.6.1 5.14 0 5.55-.14L5.4-.91c-.32.13-.72.2-1.13.2-.8 0-1.1-.37-1.1-1.23v-2.31zm0 0"/></symbol><symbol overflow="visible" id="f68e7d8dk"><path d="M3.33-3.42c.47 0 .8-.27.8-.8 0-.51-.33-.8-.8-.8-.47 0-.8.29-.8.8 0 .53.33.8.8.8zm0 3.5c.47 0 .8-.27.8-.78 0-.53-.33-.82-.8-.82-.47 0-.8.29-.8.82 0 .51.33.78.8.78zm0 0"/></symbol><symbol overflow="visible" id="f68e7d8dm"><path d="M5.67 0v-.86H2.14V-.9L3.6-2c1.05-.83 2-1.68 2-2.91 0-1.19-.73-1.99-2.26-1.99-1.66 0-2.3 1.02-2.44 2.33l1 .08c.1-.92.42-1.58 1.44-1.58.87 0 1.26.44 1.26 1.24 0 .9-.8 1.53-1.96 2.53L.83-.81V0zm0 0"/></symbol><symbol overflow="visible" id="f68e7d8dn"><path d="M3.42.14c1.55 0 2.44-.84 2.44-2.33 0-1.45-.83-2.22-2.14-2.22-.75 0-1.28.27-1.67.72H2l.31-2.22h3.11v-.86H1.53l-.45 3.93h.81c.3-.36.9-.79 1.58-.79.92 0 1.44.43 1.44 1.47 0 .99-.54 1.5-1.49 1.5-.83 0-1.28-.32-1.5-1.01l-.95.1C1.07-.46 2 .13 3.42.13zm0 0"/></symbol><symbol overflow="visible" id="f68e7d8do"><path d="M4.22-6.77h-.86l-2.03.7v.87c.64-.17 1.26-.38 1.89-.55v4.9H1.03V0h4.9v-.86H4.21zm0 0"/></symbol><symbol overflow="visible" id="f68e7d8dp"><path d="M2.58.95l2.39-8.67h-.9L1.7.95zm0 0"/></symbol><symbol overflow="visible" id="f68e7d8dq"><path d="M5.1 0v-1.47H6v-.81h-.9v-4.49H3.8L.48-2.23v.76h3.66V0zM1.5-2.33l2.6-3.53h.04v3.58H1.5zm0 0"/></symbol><symbol overflow="visible" id="f68e7d8dr"><path d="M3.25.14c1.58 0 2.53-.69 2.53-1.95 0-1.19-.92-1.56-1.6-1.61v-.05A1.6 1.6 0 005.6-5.12c0-1.13-.87-1.79-2.3-1.79-1.62 0-2.32.82-2.45 1.88l.97.06c.13-.69.52-1.1 1.47-1.1.86 0 1.35.32 1.35 1.05 0 .86-.6 1.2-1.66 1.2h-.49v.79h.54c1.12 0 1.78.25 1.78 1.14 0 .78-.46 1.22-1.55 1.22-1.06 0-1.48-.4-1.63-1.1l-.98.07C.75-.56 1.56.14 3.25.14zm0 0"/></symbol><symbol overflow="visible" id="f68e7d8ds"><path d="M5.95-6.77H1.1V0h.99v-2.92H5.3v-.77H2.08v-2.26h3.87zm0 0"/></symbol><symbol overflow="visible" id="f68e7d8dt"><path d="M2.83.14c.94 0 1.5-.39 1.81-.95h.08l.1.81h.76v-3.38c0-1.23-.69-1.8-2.13-1.8-1.43 0-2.03.65-2.18 1.6l.93.1c.11-.6.44-.93 1.22-.93.85 0 1.22.32 1.22 1.04v.34l-1.81.2C1.6-2.7 1.1-2.17 1.1-1.28c0 .92.64 1.42 1.72 1.42zm.25-.77c-.67 0-1.02-.28-1.02-.74 0-.44.28-.72 1-.82l1.58-.19v.41c0 .8-.6 1.34-1.56 1.34zm0 0"/></symbol><symbol overflow="visible" id="f68e7d8du"><path d="M2.73.14c.9 0 1.43-.45 1.74-1.08h.06l.13.94h.8v-5.02h-.94v2.7c0 .98-.57 1.62-1.46 1.62-.75 0-1.1-.4-1.1-1.22v-3.1h-.93v3.32c0 1.17.55 1.84 1.7 1.84zm0 0"/></symbol><symbol overflow="visible" id="f68e7d8dv"><path d="M5.08-5.16c-.94 0-1.58.43-1.9 1.3h-.09l-.07-1.16H1.05v.77h1.1v3.48H.96V0h3.96v-.77H3.1v-1.46c0-1.36.6-2.05 1.83-2.05.4 0 .76.08 1.1.17l.15-.87c-.33-.11-.7-.18-1.11-.18zm0 0"/></symbol><symbol overflow="visible" id="f68e7d8dw"><path d="M4.66-3.45c.76-.14 1.15-.67 1.15-1.57 0-1.07-.64-1.75-2.18-1.75H.92V0h2.71C5.2 0 5.98-.64 5.98-1.77c0-1.03-.56-1.43-1.32-1.59zM3.56-6c.9 0 1.31.4 1.31 1.13 0 .71-.4 1.14-1.3 1.14h-1.7V-6zM1.87-.75v-2.27H3.6c.97 0 1.44.33 1.44 1.13 0 .8-.47 1.14-1.44 1.14zm0 0"/></symbol><symbol overflow="visible" id="f68e7d8dx"><path d="M3.36.16c1.4 0 2.2-.6 2.2-1.57 0-.89-.54-1.22-1.47-1.39L3-3c-.67-.14-.86-.33-.86-.73 0-.5.4-.74 1.17-.74.83 0 1.19.27 1.27.8l.9-.05c-.12-1-.8-1.47-2.17-1.47-1.34 0-2.1.53-2.1 1.5 0 .81.45 1.22 1.52 1.44l1.04.2c.56.11.87.24.87.72 0 .52-.45.78-1.28.78-.95 0-1.36-.28-1.42-.87l-.9.06C1.07-.36 1.8.16 3.35.16zm0 0"/></symbol><symbol overflow="visible" id="f68e7d8dy"><path d="M3.58-5.81c.42 0 .72-.22.72-.67 0-.44-.3-.68-.72-.68-.44 0-.72.24-.72.68 0 .45.28.67.72.67zm.5.8H1.52v.76h1.6v3.48h-1.8V0h4.46v-.77h-1.7zm0 0"/></symbol><symbol overflow="visible" id="f68e7d8dz"><path d="M3.34.14c1.43 0 2.13-.66 2.25-1.78l-.89-.1c-.1.7-.5 1.08-1.34 1.08-1.03 0-1.52-.64-1.52-1.84 0-1.23.47-1.86 1.52-1.86.84 0 1.23.36 1.34 1.08l.9-.1c-.13-1.09-.82-1.78-2.26-1.78-1.56 0-2.46.97-2.46 2.66 0 1.66.9 2.64 2.46 2.64zm0 0"/></symbol><symbol overflow="visible" id="f68e7d8dA"><path d="M4.63-6.5c.45 0 .98.08 1.39.2l.2-.72a5.3 5.3 0 00-1.64-.26c-1.52 0-2.16.56-2.16 1.87v.4H.9v.76h1.53V0h.94v-4.25h2.53v-.77H3.36v-.3c0-.84.33-1.18 1.27-1.18zm0 0"/></symbol><symbol overflow="visible" id="f68e7d8dB"><path d="M3.33.14c1.62 0 2.5-.95 2.5-2.66 0-1.68-.88-2.64-2.5-2.64-1.63 0-2.5.96-2.5 2.64 0 1.7.87 2.66 2.5 2.66zm0-.77c-1.06 0-1.52-.6-1.52-1.89 0-1.28.46-1.87 1.52-1.87 1.08 0 1.53.6 1.53 1.87 0 1.29-.45 1.9-1.53 1.9zm0 0"/></symbol><symbol overflow="visible" id="f68e7d8dC"><path d="M2.16 0v-2.67c0-.99.59-1.63 1.46-1.63.74 0 1.07.38 1.07 1.22V0h.95v-3.31c0-1.2-.56-1.85-1.67-1.85-.92 0-1.49.46-1.77 1.08h-.06l-.12-.94H1.2V0zm0 0"/></symbol></defs><g fill="#515151"><use xlink:href="#f68e7d8da" x="165.905" y="153.5"/><use xlink:href="#f68e7d8db" x="192.425" y="153.5"/><use xlink:href="#f68e7d8dc" x="217.645" y="153.5"/></g><use xlink:href="#f68e7d8dd" x="237.145" y="153.5" fill="#fff"/><use xlink:href="#f68e7d8dc" x="289.795" y="153.5" fill="#fff"/><use xlink:href="#f68e7d8de" x="309.295" y="153.5" fill="#fff"/><use xlink:href="#f68e7d8dc" x="361.945" y="153.5" fill="#fff"/><use xlink:href="#f68e7d8df" x="381.445" y="153.5" fill="#fff"/><g fill="#fff"><use xlink:href="#f68e7d8dg" x="233.3333" y="252"/><use xlink:href="#f68e7d8dh" x="240.0003" y="252"/><use xlink:href="#f68e7d8di" x="246.6673" y="252"/><use xlink:href="#f68e7d8dj" x="253.3343" y="252"/><use xlink:href="#f68e7d8dk" x="260.0013" y="252"/><use xlink:href="#f68e7d8dl" x="266.6683" y="252"/><use xlink:href="#f68e7d8dm" x="273.3353" y="252"/><use xlink:href="#f68e7d8dn" x="280.0023" y="252"/><use xlink:href="#f68e7d8dl" x="286.6693" y="252"/><use xlink:href="#f68e7d8do" x="293.3363" y="252"/><use xlink:href="#f68e7d8dp" x="300.0033" y="252"/><use xlink:href="#f68e7d8dm" x="306.6703" y="252"/><use xlink:href="#f68e7d8dl" x="313.3373" y="252"/><use xlink:href="#f68e7d8do" x="320.0043" y="252"/><use xlink:href="#f68e7d8dp" x="326.6713" y="252"/><use xlink:href="#f68e7d8dq" x="333.3383" y="252"/><use xlink:href="#f68e7d8dl" x="340.0053" y="252"/><use xlink:href="#f68e7d8dr" x="346.6723" y="252"/><use xlink:href="#f68e7d8dp" x="353.3393" y="252"/><use xlink:href="#f68e7d8dq" x="360.0063" y="252"/></g><g fill="#fff"><use xlink:href="#f68e7d8ds" x="220" y="266"/><use xlink:href="#f68e7d8dh" x="226.667" y="266"/><use xlink:href="#f68e7d8dt" x="233.334" y="266"/><use xlink:href="#f68e7d8dj" x="240.001" y="266"/><use xlink:href="#f68e7d8du" x="246.668" y="266"/><use xlink:href="#f68e7d8dv" x="253.335" y="266"/><use xlink:href="#f68e7d8dh" x="260.002" y="266"/><use xlink:href="#f68e7d8dk" x="266.669" y="266"/><use xlink:href="#f68e7d8dl" x="273.336" y="266"/><use xlink:href="#f68e7d8dw" x="280.003" y="266"/><use xlink:href="#f68e7d8dt" x="286.67" y="266"/><use xlink:href="#f68e7d8dx" x="293.337" y="266"/><use xlink:href="#f68e7d8dy" x="300.004" y="266"/><use xlink:href="#f68e7d8dz" x="306.671" y="266"/><use xlink:href="#f68e7d8dl" x="313.338" y="266"/><use xlink:href="#f68e7d8dA" x="320.005" y="266"/><use xlink:href="#f68e7d8dv" x="326.672" y="266"/><use xlink:href="#f68e7d8dt" x="333.339" y="266"/><use xlink:href="#f68e7d8dz" x="340.006" y="266"/><use xlink:href="#f68e7d8dj" x="346.673" y="266"/><use xlink:href="#f68e7d8dy" x="353.34" y="266"/><use xlink:href="#f68e7d8dB" x="360.007" y="266"/><use xlink:href="#f68e7d8dC" x="366.674" y="266"/><use xlink:href="#f68e7d8dx" x="373.341" y="266"/></g></svg>