<?xml version='1.0' encoding='UTF-8'?>
<svg xmlns="http://www.w3.org/2000/svg" xmlns:xlink="http://www.w3.org/1999/xlink" width="600px" height="300px" viewBox="0 0 600 300" x="0px" y="0px" enable-background="new 0 0 600 300"><defs><symbol overflow="visible" id="4ee0e2dba"><path d="M2.8-1.69C2.34-1.63 1.63 0 1.63.2c0 .14.12.26.26.26C4.94.2 8.4.12 11.44.12c4.75 0 6.17 0 7.15-.18.46-.13 1.7-1.38 1.7-1.75 0-.14-.07-.27-.27-.27-2.99 0-7.08-.65-7.74-1.83-.19-.3-.19-2.26-.19-4.6 0-5.79.33-15.87.4-17.43 0-.45 4.03-.18 5.71-.58.85-.2 2.2-2.21 2.2-2.92 0-.14 0-.2-.12-.2-1.23 0-3.51.58-7.34.58-.72 0-.9-.38-.9-.97 0-4.22.63-9.63 1.41-13.19 1.05-4.42 2.99-6.89 5.72-6.89 1.9 0 3.85 1.03 5.66 3.25.12.19.45.45.65.45 1.18 0 2.93-2.92 2.93-4.48 0-2.4-2.6-3-4.82-3-3.51 0-6.3 1.7-7.53 2.55-6.97 4.48-8.45 10.39-8.6 15.2-.18 7.22-.83 6.62-2.46 7.28-.31.13-.84.27-1.03.4-.6.32-1.9 1.5-1.9 2.07 0 .12.13.27.4.27.65-.07 1.69-.15 2.53-.15.84 0 1.77 0 1.83.14.39.79.45 6.24.45 11.05 0 3.83-.06 7.4-.06 9.1 0 2.4-1.17 3.7-4.42 4.3zm0 0"/></symbol><symbol overflow="visible" id="4ee0e2dbb"><path d="M17.16-3.13c.39 3.13 1.82 4.1 3 4.1 3.04 0 6.23-1.24 7.4-4.03.33-.77.64-1.81.72-2.4 0-.13-.47-.38-.72-.38-.26.06-2.14 2.78-3.84 2.78-1.42 0-1.81-1.24-1.81-3.63 0-5.6 1.5-10.14 1.5-17.17 0-3.44-3.97-7.08-7.82-7.08-3.7 0-12.46 4.55-12.46 8.32 0 .65.45 1.62 1.17 1.62.76 0 2.65-.78 3.5-1.23 2.28-1.24.26-3.58 2.28-5 .58-.4 1.23-.58 2.01-.58 1.43 0 3.05.64 4.43 2.08.96.96 1.3 4.42 1.3 7.2 0 1.56-.13 2.94-.27 3.64-3.9.6-8.97 1.62-11.96 3.25-2.4 1.23-3.25 2.6-3.25 5.02C2.34-2.14 4.36.83 8.58.83c2.86 0 6.1-1.5 8.58-3.96zm.2-8.82c0 1.1-.14 6.23-.2 7.07-2.27 1.7-4.1 2.35-5.46 2.35-2.53 0-3.45-2.35-3.45-4.55 0-1.5.45-2.94 1.83-3.78 2.2-1.36 4.94-2.2 6.95-2.47.33-.06.33.9.33 1.38zm-3.84-35.83c-3.77 0-6.5 2.47-6.5 6.7 0 4.49 3.3 6.44 6.37 6.44 3.7 0 6.69-2.61 6.69-6.56 0-4.49-2.99-6.58-6.56-6.58zm-.25 2.8c2.2 0 3.82 2.21 3.82 4.09 0 1.89-1.36 3.39-3.18 3.39-1.75 0-3.83-1.77-3.83-4.1 0-1.95 1.23-3.38 3.19-3.38zm0 0"/></symbol><symbol overflow="visible" id="4ee0e2dbc"><path d="M10.2-31.2c-2.47 2.14-4.48 2.86-6.23 3.7-.4.2-.53.4-.72.78-.4.72-.58 1.63-.58 1.83 0 .19.25.39.4.39.24 0 1.87-.72 2.91-.72.4 0 .64.06.79.33.45 1.1.9 5 .9 9.48 0 3.52-.26 7.41-.98 10.72-.38 1.63-1.1 2.55-2.47 3.07-.52.18-.84 1.5-.84 1.68 0 .2.14.33.32.33C4.1.4 5.2 0 10.92 0c2.66 0 5.14.06 6.63.06.78 0 1.3 0 1.5-.06.45-.13 1.1-1.17 1.1-1.56 0-.19 0-.46-.38-.46-1.57 0-5.14-.57-6.32-.96-.39-.15-.57-.2-.64-1.63-.2-4.17-.26-6.83-.26-9.69 0-2.34.12-7.87.64-8.78.6-1.03 2.4-1.62 4.03-1.62 1.83 0 3.12.45 4.36 1.95.06.06.12.13.26.13 1.04 0 2.86-3.96 2.86-5.2 0-1.7-1.62-2.6-3.06-2.6-3.05 0-9.36 6.37-9.3 6.37-.18 0-.18-.14-.18-.39 0-3.06-.2-5.47-.46-6.31-.06-.25-.65-.58-1.1-.58-.13 0-.27 0-.4.13zm0 0"/></symbol><symbol overflow="visible" id="4ee0e2dbd"><path d="M14.9-44.27c0-2.53-1.96-3.3-3.53-3.3-2.4 0-3.96 2.2-3.96 4.02 0 1.75 1.3 3.38 2.92 3.38 2.01 0 4.56-2.02 4.56-4.1zM4.15.58C4.6.58 7.86 0 12.55 0c1.62 0 2.86.06 3.57.06.4 0 .7-.06.91-.18.58-.4 1.17-1.18 1.17-1.63 0-.14-.06-.27-.2-.27-1.75 0-4.28-.51-4.6-.65-.28-.13-.4-.19-.4-2.92 0-6.11 0-10.14.13-13.64.26-8.13.84-10.99.84-11.64 0-.27-.45-1.05-.97-1.05-.19 0-.58.26-1.3.65a68.34 68.34 0 01-7.34 3.2c-.6.18-1.38 1.95-1.38 2.13 0 .2.15.33.27.33.52 0 2.08-.27 3.13-.27.7 0 1.03.15 1.17.54.25.96.51 5.78.51 10.9C8.06-11.7 8-8.9 7.8-6.5c-.25 2.6.06 3.7-2.99 4.94-.39.2-.51.33-.72.72-.18.39-.39.96-.39 1.17 0 .19.27.25.46.25zm0 0"/></symbol><symbol overflow="visible" id="4ee0e2dbe"><path d="M1.5.72c.64 0 2.8-.66 7.86-.66 2.4 0 2.73 0 2.86-.06.65-.19 1.3-.97 1.3-1.5 0-.13-.07-.25-.25-.25-1.77 0-2.22-.06-2.47-.2-.33-.13-.6-.2-.6-2.92 0-5.54.13-6.11.13-8.97 0-.52.14-.97.53-.97s.78.25 1.23.7c3.05 3.31 5.97 6.31 8.58 9.69.64.9.9 1.5.9 1.95 0 1.03-1.55.97-2.59 1.36-.45.2-.71.66-.71.99 0 .24.12.39.26.39.31 0 2.27-.46 5.66-.46 3.25 0 5.18.46 6.3.46.26 0 .45 0 .65-.08.45-.13 1.63-1.24 1.63-1.69 0-.13-.15-.19-.27-.19a7.66 7.66 0 01-5.2-2.92c-4.1-4.81-7.99-8.72-10.53-12.16-.13-.2-.2-.32-.2-.45 0-.2.13-.39.4-.72.97-1.17 2.92-3 5.97-6.17 2.22-2.28 4.81-3.12 6.97-3.64.51-.14 1.36-2.02 1.36-2.47 0-.14 0-.26-.2-.26-.46 0-3.38.84-8.71.84-3.52 0-4.3-.19-5.78-.19-.66 0-1.24 1.49-1.24 1.88 0 .14.2.26.33.26 2.66 0 5.27.4 5.27 1.36 0 .78-2.49 3.7-5.53 6.56-2.02 1.9-4.22 3.2-4.7 3.2-.24 0-.3-.26-.3-1.88 0-26.6.64-33.1.64-34.27 0-.45-.52-1.03-.97-1.03-.66 0-3.97 2.08-8.52 3.7-.72.25-1.23 1.63-1.23 2.02 0 .06.06.19.19.19 1.3 0 3.18-.25 3.7-.25.53 0 .78.06.84.45.47 4.73.72 13.39.72 21.52 0 9.8-.33 17.73-.64 20.98-.2 2.16-1.1 3-3.33 3.9-.31.13-.37.27-.51.52C1.05-.12.9.27.9.4c0 .27.4.33.6.33zm0 0"/></symbol><symbol overflow="visible" id="4ee0e2dbf"><path d="M2.4.72c.85 0 2.54-.66 8.7-.66 3.2 0 3.65 0 3.8-.06.5-.19 1.41-1.1 1.41-1.75 0-.4-.25-.4-.39-.4-1.75 0-3.58-.05-3.89-.2-.26-.12-.53-.18-.6-2.92a728.8 728.8 0 01-.24-18.53c0-18.51.76-28.07.76-28.92 0-.33-.45-1.03-1.03-1.03-.45 0-3.19 1.69-8.58 3.7-.65.25-1.3 1.75-1.3 2.08 0 .19.13.33.26.33.98 0 2.4-.27 3.64-.27.39 0 .78.07.84.4.6 5.2.84 15.01.84 24.04 0 7.74-.18 14.83-.45 17.94-.25 3.06-.72 3.19-3.37 3.97-.2.06-.33.12-.46.39A3.75 3.75 0 001.9.45c0 .13.13.27.52.27zm0 0"/></symbol><symbol overflow="visible" id="4ee0e2dbh"><path d="M24.44-50.83c-3.83 0-8.25 2.86-10.92 6.63-1.36 1.89-2.2 2.8-3.38 5.47a29.55 29.55 0 00-2.28 8.57c-.06.52-.31.52-.52.52-1.56 0-3.04.06-3.96.52-.32.14-.65 1.17-.65 1.5 0 .26 0 .45.2.57.71.53 2.85.53 3.9.53.51 0 .51.2.51.64 0 .54-.32 2.08-.96 9.5-.72 7.8-1.7 17.88-2.86 24.44-.85 4.67-1.63 7.02-4.49 7.02-1.56 0-4.3-1.11-4.95-1.11-.97 0-2.33 2.1-2.33 3.39 0 1.56 2.08 2.2 3.95 2.2 2.1 0 3.52-.64 5.4-2.26a28.17 28.17 0 005.98-7.94C9.3 4.42 10.33-4.94 11.1-13.2c.45-5.08.84-9.75 1.31-12.75.06-.45.25-.58.52-.58.12 0 .78.07 1.36.07 2.01 0 4.23-.4 5.26-.85.6-.2.99-1.43.99-2.14 0-.26-.08-.47-.2-.47-.52 0-1.18.27-6.9.27-.51 0-.51-.27-.51-.78 0-1.17.58-9.1 3.37-13.13 1.38-1.95 3-2.86 5-2.86 2.88 0 5.02 2.35 5.92 2.35 1.05 0 2.8-1.83 2.8-3 0-2.02-2.47-3.77-5.6-3.77zm0 0"/></symbol><symbol overflow="visible" id="4ee0e2dbi"><path d="M18.2-31.4c-4.36 0-8.26 3.84-10.65 7.09-3 3.97-4.75 8.72-4.75 13.84C2.8-4.94 5.14 1.3 11.5 1.3c3.19 0 6.19-1.75 8.84-4.28a22.4 22.4 0 007.1-16.64c0-3-.6-5.93-2.49-8.46a8.24 8.24 0 00-6.75-3.31zm-2.14 3.84c4.22 0 5.97 4.15 5.97 9.17 0 1.03-.06 2.2-.19 3.31-.53 4.94-3.25 12.55-8.26 12.55-3.56 0-5.4-5.4-5.4-8.9 0-3.85 1-8.34 2.74-11.59.97-1.8 2.6-4.54 5.14-4.54zm0 0"/></symbol><symbol overflow="visible" id="4ee0e2dbn"><path d="M8.97-34.7c-1.17 7.92-2.8 17.8-4.1 25.47-.39 2.34-.9 5.46-.9 7.42 0 2.33.51 3.17 2.47 3.17 1.1 0 2.26-.31 3.25-.84 2.86-1.57 5.51-5 6.83-7.14.12-.27.18-.54.18-.79 0-.53-.12-.9-.39-.9-.25 0-.51.31-1.68 1.36-1.5 1.3-3.32 3.12-4.22 3.12-.93 0-1.24-1.17-1.24-2.1 0-1.48.46-4.09.77-6.23 1.37-8.78 3.33-20.4 5.08-29.96.32-1.76.96-4.61.96-6.5 0-1.57-.3-1.88-1.42-1.88-1.89 0-4.23.64-8.39 1.42-.72.14-.84.78-.84 1.11 0 .4.26.52.51.52 1.32 0 3.33.26 3.79 1.23.18.4.3 1.17.3 2.08 0 2.47-.5 6.5-.96 9.44zm0 0"/></symbol><symbol overflow="visible" id="4ee0e2dbo"><path d="M1.9-11.7a21.3 21.3 0 00-.46 4.48c0 4.75 1.81 8.52 6.3 8.52 2.8 0 9.68-10.47 11.7-13 .25-.33.39-.46.51-.46.13 0 .2.13.2.33 0 .58-.71 3.05-1.04 4.61a32.6 32.6 0 00-.97 5.99C18.14.52 19.83 1.3 21 1.3c1.03 0 1.94-.25 4.1-2.27 2.13-2.01 5.26-6.31 5.32-8.06 0-.45-.33-.78-.6-.78-.05 0-.12 0-.18.06-1.17 1.5-4.03 5.14-5.6 5.14-.63 0-.84-.14-.84-.72 0-1.04.27-2.28.52-3.97 1.44-9.36 4.42-21.76 4.69-23.86 0-.18-1.05-.45-1.9-.45-1.35 0-1.42.72-2.01 1.95-.45.97-.9 1.83-1.63 1.83-.7 0-1.35-.2-2.26-.2-2.16 0-3.84.33-5.47 1.17C9.75-26 2.92-17.16 1.9-11.7zm5.32-4.43c1.1-3.18 3.25-6.3 6.17-8.43 1.23-.92 2.67-1.77 4.42-1.77s4.03.66 4.03 2.02c0 1.56-.65 5.78-1.62 7.67C17.82-12.1 11.5-4.7 9.17-4.7c-2.01 0-2.86-2.92-2.86-5.84 0-1.9.32-3.9.9-5.6zm0 0"/></symbol><symbol overflow="visible" id="4ee0e2dbq"><path d="M8.9-31.84c-2.21 0-5.26 3.37-6.88 6.03a7.12 7.12 0 00-1.11 2.8c0 .39.39.92.78.92.26 0 .39-.27 1.1-1.11 1.12-1.3 2.6-2.93 3.38-2.93.52 0 1.11.2 1.63 2.33.84 3.58 2.86 15.68 2.86 23.22 0 3.77-.46 6.9-1.57 8.44a7.93 7.93 0 01-6.8 3.45c-1.32 0-2.42-.2-3.2-.2-.78 0-1.3.33-1.95.84-1.1.99-1.83 2.49-1.83 3.46 0 .39.08.65.33.84a8.64 8.64 0 004.3 1.05c2.14 0 4.67-.72 6.3-2.49 4.3-4.48 6.7-8.97 9.82-14.03 6.69-10.86 12.92-24.05 12.92-28.86 0-1.89-1.09-3.51-2.53-3.51-1.5 0-3.82 1.82-3.82 2.86 0 .78 1.03 2.15 1.03 4.62 0 7.67-3.83 13.78-7.08 19.05-.78 1.3-1.05 1.48-1.24 1.48-.2 0-.26-.39-.32-1.62-.33-5.85-.52-17.82-2.54-23.14-.78-2.08-2.07-3.5-3.57-3.5zm0 0"/></symbol><symbol overflow="visible" id="4ee0e2dbj"><path d="M15.73-31.84c-2.15 0-4.93 1.87-6.7 3.89-3.7 4.3-5.84 9.1-5.84 13.9 0 3.72 1.5 6.97 5 8.33.45.19.72.4.72.58 0 .14-.07.2-.2.33-1.24 1.17-3.05 2.6-3.05 3.97 0 1.56 1.36 2.46 2.73 3.64.13.12.25.26.25.39 0 .19-.12.25-.39.45C6.44 4.7 4.3 5.92 2.28 7.34c-3.25 2.22-5.53 3.91-5.53 6.7 0 5.34 5.33 8 10.33 8 4.23 0 7.87-1.18 10.34-2.66 3.31-2.08 8.7-7.1 8.7-10.86 0-2.14-1.8-3.77-4.28-5.14C19.38 2.01 16.77.96 14.63-.2 11.95-1.56 10.4-3.06 10.4-3.9c.06-.78 3.1-2.4 5.39-4.67 5.78-5.86 7.34-11.19 7.34-15.01 0-1.05-.12-1.44-.12-1.83 0-.25.12-.31.3-.31.66 0 3 .64 5.27.64 1.11 0 1.57-1.49 1.57-2.99 0-.6 0-.72-.4-.78-2.01-.33-6.23 0-7.98-.78-1.5-.72-4.36-2.2-6.05-2.2zM10.98 4.55c.13 0 .27 0 .79.2 1.23.52 3.57 1.69 5.78 2.92 2.34 1.3 4.23 2.74 4.23 4.81 0 2.33-7.28 5.46-11.45 5.46-5.06 0-8.83-3.58-8.83-6.24 0-1.68 6.44-5.86 8.83-6.95a2 2 0 01.65-.2zM13.4-27.7c2.67 0 5.33 2.53 5.33 6.96 0 1.8-.33 3.9-1.56 6.37-1.49 3.05-3.9 5.4-4.94 5.4-1.3 0-2.8-1.3-3.58-3.38a14.19 14.19 0 01-.78-4.75c0-3.2.6-7.02 3.12-9.36.72-.72 1.5-1.24 2.41-1.24zm0 0"/></symbol><symbol overflow="visible" id="4ee0e2dbk"><path d="M15.73-31.84c-2.15 0-4.93 1.87-6.7 3.89-3.7 4.3-5.84 9.1-5.84 13.9 0 3.72 1.5 6.97 5 8.33.45.19.72.4.72.58 0 .14-.2.26-.33.39C7.4-3.58 6.5-2.08 6.5-.72c0 1.5 1.81 2.4 3.19 3.58.12.12.25.27.25.39 0 .19-.13.27-.31.45a73.85 73.85 0 00-5.47 3.7c-2.99 2.22-5 3.91-5 6.57 0 5.4 5.2 7.94 9.93 7.94 4.1 0 7.68-1.24 9.96-2.8 3.12-2.08 8-6.95 8-10.72 0-2.28-2.02-3.9-4.57-5.2C19.95 1.8 17.3.84 15.14-.27c-2.72-1.3-4.73-2.8-4.81-3.64.08-.78 3.19-2.4 5.47-4.67 5.78-5.86 7.34-11.19 7.34-15.01 0-1.05-.12-1.44-.12-1.83 0-.25.12-.31.3-.31.66 0 2.02.64 3.65.64 1.1 0 1.56-1.49 1.56-2.99 0-.6 0-.72-.39-.78-2.02-.33-4.6 0-6.36-.78-1.5-.72-4.36-2.2-6.05-2.2zM12.28 4.55c.14 0 .27 0 .72.2 1.23.45 3.52 1.56 5.72 2.8 2.28 1.23 4.22 2.72 4.22 4.8 0 2.28-6.88 5.46-10.85 5.46-4.8 0-8.32-3.45-8.45-6.04-.06-1.7 5.78-5.93 8-7.02.31-.14.52-.2.64-.2zM13.4-27.7c2.67 0 5.33 2.53 5.33 6.96 0 1.8-.33 3.9-1.56 6.37-1.49 3.05-3.9 5.4-4.94 5.4-1.3 0-2.8-1.3-3.58-3.38a14.19 14.19 0 01-.78-4.75c0-3.2.6-7.02 3.12-9.36.72-.72 1.5-1.24 2.41-1.24zm0 0"/></symbol><symbol overflow="visible" id="4ee0e2dbl"><path d="M8.9-31.84c-2.21 0-5.26 3.37-6.88 6.03a7.12 7.12 0 00-1.11 2.8c0 .39.39.92.78.92.26 0 .39-.27 1.1-1.11 1.12-1.3 2.6-2.93 3.38-2.93.52 0 1.11.2 1.63 2.33.84 3.58 2.86 15.68 2.86 23.22 0 3.77-.46 6.9-1.57 8.44-1.75 2.47-3.7 3.39-5.57 3.39-.99 0-1.32-.14-2.02-.14-.72 0-1.17.33-1.77.84a5.7 5.7 0 00-1.62 3.46c0 1.3 1.62 1.89 3.06 1.89 1.96 0 3.58-.72 5.06-2.49 3.91-4.48 6.7-8.97 9.83-14.03 6.69-10.86 12.92-24.05 12.92-28.86 0-1.89-1.09-3.51-2.53-3.51-1.5 0-3.82 1.82-3.82 2.86 0 .78 1.03 2.15 1.03 4.62 0 7.67-3.83 13.78-7.08 19.05-.78 1.3-1.05 1.48-1.24 1.48-.2 0-.26-.39-.32-1.62-.33-5.85-.52-17.82-2.54-23.14-.78-2.08-2.07-3.5-3.57-3.5zm0 0"/></symbol><symbol overflow="visible" id="4ee0e2dbp"><path d="M26.84-31.66c-.57 0-1.1.85-1.95 1.9-.84 1.09-1.75 2.2-2.6 2.2-1.88 0-3.76-.85-6.1-2.08-3.46-1.9-5.27-2.47-6.77-2.47-2.34 0-6.83 4.22-6.83 8.31 0 .72.6.93.99.93.33 0 .51-.54 1.17-1.5.78-1.18 1.56-2.35 2.66-2.35 2.21 0 5.4 1.95 9.3 3.06 2.07.58 2.34.58 2.34.91 0 .72-.78 1.5-2.4 3.52-3.52 4.28-8 10.45-12.3 13.96C2.48-3.7 1.18-2.28 1.18-.52c0 .7.52 2.02 1.42 2.02.93 0 2.68-3.52 5.14-3.52 1.7 0 4.36.72 6.7 1.83 3.96 1.88 6.37 3.17 8.84 3.17 3.25 0 8.39-4.87 8.39-7.4 0-.72-.72-1.17-1.24-1.17-.65 0-1.95 3.57-5.47 3.57-2.72 0-7.98-3.7-13.84-4.15-.64-.06-.64-.33-.64-.46 0-.84 1.87-3.25 2.8-4.35 3.04-3.91 6.95-8.4 9.93-11.58 1.5-1.63 1.63-1.82 2.61-2.78 1.63-1.63 2.66-2.94 2.66-4.43 0-1.17-.84-1.89-1.63-1.89zm0 0"/></symbol><symbol overflow="visible" id="4ee0e2dbr"><path d="M3.83 0v-5.95H6.2v-.82H.45v.82h2.4V0zm0 0"/></symbol><symbol overflow="visible" id="4ee0e2dbs"><path d="M5.75-2.23v-.43c0-1.6-.9-2.51-2.42-2.51S.87-4.16.87-2.48c0 1.71.91 2.62 2.5 2.62 1.43 0 2.07-.56 2.29-1.52l-.9-.09c-.18.61-.59.9-1.35.9-.94 0-1.52-.54-1.58-1.66zm-2.4-2.2c.93 0 1.43.5 1.48 1.55H1.84c.08-1.07.6-1.56 1.5-1.56zm0 0"/></symbol><symbol overflow="visible" id="4ee0e2dbt"><path d="M1.83 0l1.42-2h.06l1.46 2H5.8L4-2.53l1.78-2.49H4.8L3.42-3.08h-.08l-1.4-1.94H.89l1.78 2.49L.84 0zm0 0"/></symbol><symbol overflow="visible" id="4ee0e2dbu"><path d="M5.52-4.25v-.77H3.17v-1.56h-.81l-.14 1.56H.75v.77h1.47v2.4c0 1.3.48 1.94 1.84 1.94C4.6.1 5.14 0 5.55-.14L5.4-.91c-.32.13-.72.2-1.13.2-.8 0-1.1-.37-1.1-1.23v-2.31zm0 0"/></symbol><symbol overflow="visible" id="4ee0e2dbv"><path d="M3.33-3.42c.47 0 .8-.27.8-.8 0-.51-.33-.8-.8-.8-.47 0-.8.29-.8.8 0 .53.33.8.8.8zm0 3.5c.47 0 .8-.27.8-.78 0-.53-.33-.82-.8-.82-.47 0-.8.29-.8.82 0 .51.33.78.8.78zm0 0"/></symbol><symbol overflow="visible" id="4ee0e2dbx"><path d="M4.63-6.5c.45 0 .98.08 1.39.2l.2-.72a5.3 5.3 0 00-1.64-.26c-1.52 0-2.16.56-2.16 1.87v.4H.9v.76h1.53V0h.94v-4.25h2.53v-.77H3.36v-.3c0-.84.33-1.18 1.27-1.18zm0 0"/></symbol><symbol overflow="visible" id="4ee0e2dby"><path d="M3.52-5.53c.85 0 1.32-.44 1.32-1.14 0-.69-.45-1.13-1.3-1.13-.85 0-1.34.46-1.34 1.16 0 .67.47 1.1 1.32 1.1zm.01-.52c-.47 0-.67-.26-.67-.6 0-.38.22-.62.67-.62.45 0 .66.24.66.6s-.2.62-.66.62zm-.7 6.2c.94 0 1.5-.4 1.81-.96h.08l.1.81h.76v-3.38c0-1.23-.69-1.8-2.13-1.8-1.43 0-2.03.65-2.18 1.6l.93.1c.11-.6.44-.93 1.22-.93.85 0 1.22.32 1.22 1.04v.34l-1.81.2C1.6-2.7 1.1-2.17 1.1-1.28c0 .92.64 1.42 1.72 1.42zm.25-.78c-.67 0-1.02-.28-1.02-.74 0-.44.28-.72 1-.82l1.58-.19v.41c0 .8-.6 1.34-1.56 1.34zm0 0"/></symbol><symbol overflow="visible" id="4ee0e2dbz"><path d="M5.08-5.16c-.94 0-1.58.43-1.9 1.3h-.09l-.07-1.16H1.05v.77h1.1v3.48H.96V0h3.96v-.77H3.1v-1.46c0-1.36.6-2.05 1.83-2.05.4 0 .76.08 1.1.17l.15-.87c-.33-.11-.7-.18-1.11-.18zm0 0"/></symbol><symbol overflow="visible" id="4ee0e2dbA"><path d="M3.58-5.81c.42 0 .72-.22.72-.67 0-.44-.3-.68-.72-.68-.44 0-.72.24-.72.68 0 .45.28.67.72.67zm.5.8H1.52v.76h1.6v3.48h-1.8V0h4.46v-.77h-1.7zm0 0"/></symbol><symbol overflow="visible" id="4ee0e2dbB"><path d="M5.77-5.02H4.63L2.3-2.88h-.06v-4.26h-.94V0h.94v-2.31h.06L4.71 0h1.24L3.23-2.69zm0 0"/></symbol><symbol overflow="visible" id="4ee0e2dbC"><path d="M3.92-7.14H1.36v.76h1.6v5.61H1.15V0H5.7v-.77H3.92zm0 0"/></symbol><symbol overflow="visible" id="4ee0e2dbD"><path d="M3.33.14c1.62 0 2.5-.95 2.5-2.66 0-1.68-.88-2.64-2.5-2.64-1.63 0-2.5.96-2.5 2.64 0 1.7.87 2.66 2.5 2.66zm0-.77c-1.06 0-1.52-.6-1.52-1.89 0-1.28.46-1.87 1.52-1.87 1.08 0 1.53.6 1.53 1.87 0 1.29-.45 1.9-1.53 1.9zm0 0"/></symbol><symbol overflow="visible" id="4ee0e2dbE"><path d="M3.16 2.03c1.67 0 2.4-.86 2.4-2.51v-4.54h-.81l-.13.91h-.06c-.26-.58-.8-1.05-1.73-1.05-1.42 0-2.24 1-2.24 2.52 0 1.6.75 2.56 2.2 2.56.94 0 1.5-.5 1.77-1.03h.05v.72c0 1.17-.42 1.67-1.45 1.67-.93 0-1.3-.34-1.41-.89L.8.5c.12.96.87 1.54 2.36 1.54zM3.06-.8c-.98 0-1.48-.57-1.48-1.82 0-1.13.5-1.75 1.48-1.75 1.06 0 1.58.76 1.58 1.75 0 .95-.56 1.82-1.58 1.82zm0 0"/></symbol><symbol overflow="visible" id="4ee0e2dbF"><path d="M3.42-.86h-.08L1.77-5.02H.8L2.73 0h.41c-.33.95-.72 1.27-1.45 1.27-.22 0-.49-.04-.69-.08l-.1.73c.2.06.58.11.87.11 1.2 0 1.7-.7 2.21-2.03l1.94-5.02H5zm0 0"/></symbol><symbol overflow="visible" id="4ee0e2dbG"><path d="M2.83.14c.94 0 1.5-.39 1.81-.95h.08l.1.81h.76v-3.38c0-1.23-.69-1.8-2.13-1.8-1.43 0-2.03.65-2.18 1.6l.93.1c.11-.6.44-.93 1.22-.93.85 0 1.22.32 1.22 1.04v.34l-1.81.2C1.6-2.7 1.1-2.17 1.1-1.28c0 .92.64 1.42 1.72 1.42zm.25-.77c-.67 0-1.02-.28-1.02-.74 0-.44.28-.72 1-.82l1.58-.19v.41c0 .8-.6 1.34-1.56 1.34zm0 0"/></symbol><symbol overflow="visible" id="4ee0e2dbH"><path d="M5.55 0v-.75H2.3v-.06l3.2-3.49v-.72H1.2v.75H4.3v.07L1.11-.72V0zm0 0"/></symbol><symbol overflow="visible" id="4ee0e2dbI"><path d="M5.95-6.77H1.1V0h.99v-2.92H5.3v-.77H2.08v-2.26h3.87zm0 0"/></symbol><symbol overflow="visible" id="4ee0e2dbJ"><path d="M2.73.14c.9 0 1.43-.45 1.74-1.08h.06l.13.94h.8v-5.02h-.94v2.7c0 .98-.57 1.62-1.46 1.62-.75 0-1.1-.4-1.1-1.22v-3.1h-.93v3.32c0 1.17.55 1.84 1.7 1.84zm0 0"/></symbol><symbol overflow="visible" id="4ee0e2dbK"><path d="M3.42.14C5.1.14 5.9-.69 6.11-2.17l-.95-.1C4.96-1.19 4.5-.69 3.44-.69c-1.27 0-1.81-.94-1.81-2.69s.54-2.7 1.8-2.7c1.09 0 1.5.49 1.73 1.58l.93-.1c-.21-1.46-.95-2.3-2.62-2.3C1.53-6.9.62-5.6.62-3.38c0 2.2.91 3.51 2.8 3.51zm0 0"/></symbol><symbol overflow="visible" id="4ee0e2dbL"><path d="M2.16 0v-2.67c0-.99.59-1.63 1.46-1.63.74 0 1.07.38 1.07 1.22V0h.95v-3.31c0-1.2-.56-1.85-1.67-1.85-.92 0-1.49.46-1.77 1.08h-.06l-.12-.94H1.2V0zm0 0"/></symbol><symbol overflow="visible" id="4ee0e2dbM"><path d="M3.36.16c1.4 0 2.2-.6 2.2-1.57 0-.89-.54-1.22-1.47-1.39L3-3c-.67-.14-.86-.33-.86-.73 0-.5.4-.74 1.17-.74.83 0 1.19.27 1.27.8l.9-.05c-.12-1-.8-1.47-2.17-1.47-1.34 0-2.1.53-2.1 1.5 0 .81.45 1.22 1.52 1.44l1.04.2c.56.11.87.24.87.72 0 .52-.45.78-1.28.78-.95 0-1.36-.28-1.42-.87l-.9.06C1.07-.36 1.8.16 3.35.16zm0 0"/></symbol><symbol overflow="visible" id="4ee0e2dbN"><path d="M1.45-2.95c0 2.56 1.08 4.37 3.67 4.84l.11-.67C3.28.86 2.43-.75 2.43-2.95s.85-3.82 2.8-4.16l-.1-.69c-2.6.49-3.68 2.3-3.68 4.85zm0 0"/></symbol><symbol overflow="visible" id="4ee0e2dbO"><path d="M3.34.14c1.43 0 2.13-.66 2.25-1.78l-.89-.1c-.1.7-.5 1.08-1.34 1.08-1.03 0-1.52-.64-1.52-1.84 0-1.23.47-1.86 1.52-1.86.84 0 1.23.36 1.34 1.08l.9-.1c-.13-1.09-.82-1.78-2.26-1.78-1.56 0-2.46.97-2.46 2.66 0 1.66.9 2.64 2.46 2.64zm0 0"/></symbol><symbol overflow="visible" id="4ee0e2dbP"><path d="M1.45-7.1c1.96.33 2.8 1.94 2.8 4.15 0 2.2-.84 3.8-2.8 4.17l.11.67c2.58-.47 3.67-2.28 3.67-4.84 0-2.55-1.09-4.36-3.67-4.85zm0 0"/></symbol></defs><use xlink:href="#4ee0e2dba" x="73.4425" y="153.5" fill="#fff"/><g fill="#515151"><use xlink:href="#4ee0e2dbb" x="94.8925" y="153.5"/><use xlink:href="#4ee0e2dbc" x="123.0375" y="153.5"/><use xlink:href="#4ee0e2dbd" x="148.3225" y="153.5"/><use xlink:href="#4ee0e2dbe" x="167.8875" y="153.5"/><use xlink:href="#4ee0e2dbb" x="199.8675" y="153.5"/><use xlink:href="#4ee0e2dbf" x="228.0125" y="153.5"/><use xlink:href="#4ee0e2dbg" x="245.4975" y="153.5"/></g><g fill="#515151"><use xlink:href="#4ee0e2dbh" x="264.9975" y="153.5"/><use xlink:href="#4ee0e2dbi" x="283.4575" y="153.5"/></g><use xlink:href="#4ee0e2dbj" x="313.2275" y="153.5" fill="#fff"/><use xlink:href="#4ee0e2dbk" x="341.8925" y="153.5" fill="#fff"/><use xlink:href="#4ee0e2dbl" x="370.5575" y="153.5" fill="#fff"/><g fill="#515151"><use xlink:href="#4ee0e2dbm" x="399.6775" y="153.5"/><use xlink:href="#4ee0e2dbn" x="419.1775" y="153.5"/><use xlink:href="#4ee0e2dbo" x="436.7925" y="153.5"/></g><use xlink:href="#4ee0e2dbp" x="468.5125" y="153.5" fill="#fff"/><use xlink:href="#4ee0e2dbq" x="497.4375" y="153.5" fill="#515151"/><g fill="#fff"><use xlink:href="#4ee0e2dbr" x="220" y="252"/><use xlink:href="#4ee0e2dbs" x="226.667" y="252"/><use xlink:href="#4ee0e2dbt" x="233.334" y="252"/><use xlink:href="#4ee0e2dbu" x="240.001" y="252"/><use xlink:href="#4ee0e2dbv" x="246.668" y="252"/><use xlink:href="#4ee0e2dbw" x="253.335" y="252"/><use xlink:href="#4ee0e2dbx" x="260.002" y="252"/><use xlink:href="#4ee0e2dby" x="266.669" y="252"/><use xlink:href="#4ee0e2dbz" x="273.336" y="252"/><use xlink:href="#4ee0e2dbA" x="280.003" y="252"/><use xlink:href="#4ee0e2dbB" x="286.67" y="252"/><use xlink:href="#4ee0e2dby" x="293.337" y="252"/><use xlink:href="#4ee0e2dbC" x="300.004" y="252"/><use xlink:href="#4ee0e2dbw" x="306.671" y="252"/><use xlink:href="#4ee0e2dbx" x="313.338" y="252"/><use xlink:href="#4ee0e2dbD" x="320.005" y="252"/><use xlink:href="#4ee0e2dbE" x="326.672" y="252"/><use xlink:href="#4ee0e2dbE" x="333.339" y="252"/><use xlink:href="#4ee0e2dbF" x="340.006" y="252"/><use xlink:href="#4ee0e2dbw" x="346.673" y="252"/><use xlink:href="#4ee0e2dbC" x="353.34" y="252"/><use xlink:href="#4ee0e2dbG" x="360.007" y="252"/><use xlink:href="#4ee0e2dbH" x="366.674" y="252"/><use xlink:href="#4ee0e2dbF" x="373.341" y="252"/></g><g fill="#fff"><use xlink:href="#4ee0e2dbI" x="176.6667" y="266"/><use xlink:href="#4ee0e2dbs" x="183.3337" y="266"/><use xlink:href="#4ee0e2dbG" x="190.0007" y="266"/><use xlink:href="#4ee0e2dbu" x="196.6677" y="266"/><use xlink:href="#4ee0e2dbJ" x="203.3347" y="266"/><use xlink:href="#4ee0e2dbz" x="210.0017" y="266"/><use xlink:href="#4ee0e2dbs" x="216.6687" y="266"/><use xlink:href="#4ee0e2dbv" x="223.3357" y="266"/><use xlink:href="#4ee0e2dbw" x="230.0027" y="266"/><use xlink:href="#4ee0e2dbK" x="236.6697" y="266"/><use xlink:href="#4ee0e2dbD" x="243.3367" y="266"/><use xlink:href="#4ee0e2dbL" x="250.0037" y="266"/><use xlink:href="#4ee0e2dbu" x="256.6707" y="266"/><use xlink:href="#4ee0e2dbs" x="263.3377" y="266"/><use xlink:href="#4ee0e2dbt" x="270.0047" y="266"/><use xlink:href="#4ee0e2dbu" x="276.6717" y="266"/><use xlink:href="#4ee0e2dbJ" x="283.3387" y="266"/><use xlink:href="#4ee0e2dbG" x="290.0057" y="266"/><use xlink:href="#4ee0e2dbC" x="296.6727" y="266"/><use xlink:href="#4ee0e2dbw" x="303.3397" y="266"/><use xlink:href="#4ee0e2dbG" x="310.0067" y="266"/><use xlink:href="#4ee0e2dbC" x="316.6737" y="266"/><use xlink:href="#4ee0e2dbu" x="323.3407" y="266"/><use xlink:href="#4ee0e2dbs" x="330.0077" y="266"/><use xlink:href="#4ee0e2dbz" x="336.6747" y="266"/><use xlink:href="#4ee0e2dbL" x="343.3417" y="266"/><use xlink:href="#4ee0e2dbG" x="350.0087" y="266"/><use xlink:href="#4ee0e2dbu" x="356.6757" y="266"/><use xlink:href="#4ee0e2dbs" x="363.3427" y="266"/><use xlink:href="#4ee0e2dbM" x="370.0097" y="266"/><use xlink:href="#4ee0e2dbw" x="376.6767" y="266"/><use xlink:href="#4ee0e2dbN" x="383.3437" y="266"/><use xlink:href="#4ee0e2dbO" x="390.0107" y="266"/><use xlink:href="#4ee0e2dbG" x="396.6777" y="266"/><use xlink:href="#4ee0e2dbC" x="403.3447" y="266"/><use xlink:href="#4ee0e2dbu" x="410.0117" y="266"/><use xlink:href="#4ee0e2dbP" x="416.6787" y="266"/></g></svg>