<?xml version='1.0' encoding='UTF-8'?>
<svg xmlns="http://www.w3.org/2000/svg" xmlns:xlink="http://www.w3.org/1999/xlink" width="600px" height="300px" viewBox="0 0 600 300" x="0px" y="0px" enable-background="new 0 0 600 300"><defs><symbol overflow="visible" id="54a3895aa"><path d="M10.98-30.42c-2.59 0-4.87-.06-6.5-.06-.51 0-.84.9-.84 1.56 0 .33.13.58.27.64 1.42.39 3.89.39 4.8 1.95.38.72.46 2.28.46 4.75 0 2.53-.08 5.99-.08 10.66 0 3.64-.18 6.44-.96 7.4-.85 1.05-3.65 1.44-4.3 1.96-.46.39-.58 1.04-.58 1.5 0 .58.27.64.9.64 1.18 0 5.15-.45 7.1-.45 3.19 0 4.88.2 7.47.2.78 0 1.1-1.63 1.1-1.96 0-.32-.2-.57-.5-.65-2.23-.45-3.98-.58-4.63-1.42-.52-.66-.64-2.99-.64-6.38 0-2.98.25-10.2.25-12.4 0-3 .45-5.02 4.62-5.6.45-.06.85-1.1.85-1.83 0-.45-.14-.78-.46-.78-1.04 0-3.06.27-8.33.27zm0 0"/></symbol><symbol overflow="visible" id="54a3895ab"><path d="M13.78 1.1C7.8 1.1 2.68-3.05 2.68-9.61c0-5.85 5.18-10.27 9.21-13.46-4.81-4.48-8.25-7.73-8.25-13.39 0-6.36 6.3-11.89 13.06-11.89 5.66 0 10.53 3.83 10.53 9.63 0 5.78-4.03 10.45-8.7 13.25 4.28 3.57 9.1 7.87 9.1 13.65 0 6.69-6.32 12.94-13.85 12.94zm-.06-22.8c-4.1 3.5-5.66 7.34-5.66 10.72 0 5.32 4.03 8.9 8.19 8.9 3.19 0 6.23-2.53 6.23-6.76 0-5.33-4.28-9.55-8.76-12.86zm2.98-5.2a13.82 13.82 0 005.27-10.48c0-4.42-3.52-8.12-7.02-8.12-3.25 0-6.3 2.6-6.3 6.69 0 4.95 4.22 9.1 8.05 11.9zm0 0"/></symbol><symbol overflow="visible" id="54a3895ac"><path d="M12.34-22.48c.47 2.53 1.24 2.86 2.61 2.86 1.63 0 3.64-.93 4.43-2.22.18-.33.25-.72.25-1.1 0-.26-.07-.47-.2-.47-.38 0-1.29 1.05-2.13 1.05-.93 0-1.32-.66-1.32-2.14 0-1.56.85-5.8.85-10.8 0-2.26-2.92-4.54-5.64-4.54-2.74 0-8.52 2.92-8.52 5.32 0 .58.58 1.24 1.16 1.24.39 0 1.89-.78 2.28-1.36.51-.78.2-1.44 1.62-2.34a3.52 3.52 0 011.83-.58c.7 0 2 .37 2.6 1.3.71 1.03.71 3.37.71 5.12-2.85.39-6.3 1.44-8.51 2.55a4.16 4.16 0 00-2.4 3.82c0 3.07 1.95 5.08 4.42 5.08 1.93 0 4.21-1.04 5.96-2.8zm.33-6.11c0 .57-.25 4.21-.33 4.73-1.48.98-2.71 1.38-3.64 1.38-1.62 0-2.39-1.24-2.39-2.86 0-.99.38-1.9 1.36-2.47a13.2 13.2 0 014.81-1.63c.2 0 .2.46.2.85zm0 0"/></symbol><symbol overflow="visible" id="54a3895ae"><path d="M11.95-31.33c-3.04 0-6.3 1.9-8.82 5.2-.6.7-.99 1.7-.99 2.41 0 .52.2.84.6.84.18 0 .45-.14.84-.39 2.2-1.62 4.15-2.54 5.78-2.54 2.67 0 4.3 2.22 4.3 5.34 0 6.63-8.27 16.05-11.52 19.36-.25.33-.39.53-.39 1.11 0 .45.33.72.78.72 5.33.06 9.3.12 12.28.12 6.97 0 8.78-.12 9.3-.84C24.83-.97 26-4.6 26-5.72c0-.66-.33-.97-.66-.97-.3 0-.9 2.14-6.75 2.14-1.68 0-5.86-.06-9.8-.06-.34 0-.54 0-.54-.26 0-.13.06-.27.27-.58.96-1.7 10.46-10.4 10.46-18.27 0-3.84-2.86-7.6-7.03-7.6zm0 0"/></symbol><symbol overflow="visible" id="54a3895af"><path d="M13.84-39.9c-7.01 0-11.56 4.54-11.56 10.38 0 5.86 4.22 9.96 8.9 9.96 5.59 0 10.85-4.3 10.85-10.99 0-5.86-4.67-9.36-8.19-9.36zm-.39 17.93c-4.67 0-6.62-5.47-6.62-9.75 0-3.51 1.95-6.23 4.28-6.23 4.3 0 6.64 5.45 6.64 9.75 0 2.72-1.56 6.23-4.3 6.23zm0 0"/></symbol><symbol overflow="visible" id="54a3895ah"><path d="M9.36-24.56c.33 0 8-.2 10.08-.53.78-.13 3.25-4.35 3.25-5.72 0-.33-.07-.52-.33-.52-.45 0-5.72 1.11-12.88 1.11-1.54 0-6.56 12.92-6.56 14.42 0 .99 0 1.5 2.67 3.2 5.97 3.7 8.85 8.38 8.85 12.66 0 5-3.9 9.5-11.13 10.99-.64.14-1.62 1.68-1.62 2.6 0 .4.26.7.72.7.51 0 6.04-1.16 10.86-5.12 3.89-3.25 6.3-7.54 6.3-12.48 0-6.38-5-10.8-12.29-15.73-.26-.2-.78-.58-.78-1.1 0-.98 2.14-4.48 2.86-4.48zm0 0"/></symbol><symbol overflow="visible" id="54a3895ag"><path d="M25.67-33.6c-5.39-7.54-5.51-10.6-6.75-10.6-6.1 0-8.12-.64-11.06-.64-.45 0-.58.25-.58.57 0 .79.33 1.96 1.11 2.08 3.31.6 5.58.85 5.58 5.72 0 2.28-.06 12.61-.06 17.16 0 3.72 0 11.45-.4 14.25-.18 1.62-2.26 2.2-5.84 3.04-.6.13-.98 1.83-.98 2.35 0 .19.08.33.2.33.4 0 2.8-.47 7.8-.47 3.12 0 4.62.08 5.78.08.78 0 1.89-1.63 1.89-2.16 0-.19-.13-.25-.78-.31-1.69-.2-3.9-.72-4.03-2.1-.33-2.98-.4-11.17-.4-19.03 0-3.72 0-7.22.07-9.95 0-.19 0-.27.14-.27.19 0 .45.4.97 1.11C28.02-19.38 38.48-6.17 42.7.91c.2.26.46.32.99.32.76 0 1.87-.06 1.87-1.23 0-1.63-.06-4.88-.06-7.73 0-8.2.52-16.58.52-24.11 0-4.18.39-6.44 1.04-7.82.72-1.54 3.9-1.62 7.22-2.59.64-.19 1.16-1.56 1.16-2.14 0-.2-.06-.33-.25-.33-2.08.19-4.36.58-9.75.58-1.56 0-4.63-.13-5.27-.13-.9 0-1.17 1.11-1.17 1.63 0 .27 0 .45.52.58 1.68.47 3-.06 3 6.12 0 7.8-.08 15.33-.08 19.03 0 1.18 0 4.1-.38 4.1-.26 0-.98-.9-1.7-1.63A394.18 394.18 0 0125.67-33.6zm37.19 1.62c-7.55 0-12.42 4.75-12.42 10.92 0 6.25 4.48 10.34 9.56 10.34 5.97 0 11.63-4.36 11.63-11.45 0-6.11-5-9.81-8.77-9.81zm-.45 18.86c-5.02 0-7.1-5.8-7.1-10.2 0-3.79 2.08-6.59 4.63-6.59 4.6 0 7.08 5.72 7.08 10.22 0 2.78-1.63 6.57-4.61 6.57zM52.27-3.38c1.23.13 4.8.13 8.37.13 3.52 0 6.9.06 7.73.06.79 0 2.08-1.23 2.08-2.8 0-.32-.12-.57-.45-.57-1.56 0-4.94.06-8.31.06-5.78 0-7.55-.13-8.4-.13-1.02 0-1.62 1.57-1.62 2.47 0 .4 0 .72.6.79zm0 0"/></symbol><symbol overflow="visible" id="54a3895ai"><path d="M3.83 0v-5.95H6.2v-.82H.45v.82h2.4V0zm0 0"/></symbol><symbol overflow="visible" id="54a3895aj"><path d="M5.75-2.23v-.43c0-1.6-.9-2.51-2.42-2.51S.87-4.16.87-2.48c0 1.71.91 2.62 2.5 2.62 1.43 0 2.07-.56 2.29-1.52l-.9-.09c-.18.61-.59.9-1.35.9-.94 0-1.52-.54-1.58-1.66zm-2.4-2.2c.93 0 1.43.5 1.48 1.55H1.84c.08-1.07.6-1.56 1.5-1.56zm0 0"/></symbol><symbol overflow="visible" id="54a3895ak"><path d="M1.83 0l1.42-2h.06l1.46 2H5.8L4-2.53l1.78-2.49H4.8L3.42-3.08h-.08l-1.4-1.94H.89l1.78 2.49L.84 0zm0 0"/></symbol><symbol overflow="visible" id="54a3895al"><path d="M5.52-4.25v-.77H3.17v-1.56h-.81l-.14 1.56H.75v.77h1.47v2.4c0 1.3.48 1.94 1.84 1.94C4.6.1 5.14 0 5.55-.14L5.4-.91c-.32.13-.72.2-1.13.2-.8 0-1.1-.37-1.1-1.23v-2.31zm0 0"/></symbol><symbol overflow="visible" id="54a3895am"><path d="M3.33-3.42c.47 0 .8-.27.8-.8 0-.51-.33-.8-.8-.8-.47 0-.8.29-.8.8 0 .53.33.8.8.8zm0 3.5c.47 0 .8-.27.8-.78 0-.53-.33-.82-.8-.82-.47 0-.8.29-.8.82 0 .51.33.78.8.78zm0 0"/></symbol><symbol overflow="visible" id="54a3895ao"><path d="M4.22-6.77h-.86l-2.03.7v.87c.64-.17 1.26-.38 1.89-.55v4.9H1.03V0h4.9v-.86H4.21zm0 0"/></symbol><symbol overflow="visible" id="54a3895ap"><path d="M3.33.16c1.69 0 2.69-.74 2.69-1.94 0-1.05-.8-1.58-1.43-1.72v-.05c.5-.14 1.2-.58 1.2-1.56 0-1.12-.95-1.81-2.46-1.81-1.52 0-2.46.69-2.46 1.81 0 .97.68 1.4 1.18 1.56v.05c-.6.14-1.4.64-1.4 1.72 0 1.2 1 1.94 2.68 1.94zm0-4.04c-.97 0-1.49-.43-1.49-1.12 0-.78.52-1.1 1.49-1.1.95 0 1.48.32 1.48 1.1 0 .69-.53 1.13-1.48 1.13zm0 3.24c-1.1 0-1.7-.42-1.7-1.25 0-.78.6-1.2 1.7-1.2s1.7.42 1.7 1.2c0 .83-.6 1.25-1.7 1.25zm0 0"/></symbol><symbol overflow="visible" id="54a3895aq"><path d="M2.83.14c.94 0 1.5-.39 1.81-.95h.08l.1.81h.76v-3.38c0-1.23-.69-1.8-2.13-1.8-1.43 0-2.03.65-2.18 1.6l.93.1c.11-.6.44-.93 1.22-.93.85 0 1.22.32 1.22 1.04v.34l-1.81.2C1.6-2.7 1.1-2.17 1.1-1.28c0 .92.64 1.42 1.72 1.42zm.25-.77c-.67 0-1.02-.28-1.02-.74 0-.44.28-.72 1-.82l1.58-.19v.41c0 .8-.6 1.34-1.56 1.34zm0 0"/></symbol><symbol overflow="visible" id="54a3895ar"><path d="M5.67 0v-.86H2.14V-.9L3.6-2c1.05-.83 2-1.68 2-2.91 0-1.19-.73-1.99-2.26-1.99-1.66 0-2.3 1.02-2.44 2.33l1 .08c.1-.92.42-1.58 1.44-1.58.87 0 1.26.44 1.26 1.24 0 .9-.8 1.53-1.96 2.53L.83-.81V0zm0 0"/></symbol><symbol overflow="visible" id="54a3895as"><path d="M3.33.14c1.62 0 2.5-.95 2.5-2.66 0-1.68-.88-2.64-2.5-2.64-1.63 0-2.5.96-2.5 2.64 0 1.7.87 2.66 2.5 2.66zm0-.77c-1.06 0-1.52-.6-1.52-1.89 0-1.28.46-1.87 1.52-1.87 1.08 0 1.53.6 1.53 1.87 0 1.29-.45 1.9-1.53 1.9zm0 0"/></symbol><symbol overflow="visible" id="54a3895at"><path d="M1.84 0v-4.48l-.06-.99h.1L4.46 0h1.28v-6.77h-.92v4.4l.06 1.03h-.1L2.21-6.77H.92V0zm0 0"/></symbol><symbol overflow="visible" id="54a3895au"><path d="M3.42.14c1.55 0 2.44-.84 2.44-2.33 0-1.45-.83-2.22-2.14-2.22-.75 0-1.28.27-1.67.72H2l.31-2.22h3.11v-.86H1.53l-.45 3.93h.81c.3-.36.9-.79 1.58-.79.92 0 1.44.43 1.44 1.47 0 .99-.54 1.5-1.49 1.5-.83 0-1.28-.32-1.5-1.01l-.95.1C1.07-.46 2 .13 3.42.13zm0 0"/></symbol><symbol overflow="visible" id="54a3895av"><path d="M5.95-6.77H1.1V0h.99v-2.92H5.3v-.77H2.08v-2.26h3.87zm0 0"/></symbol><symbol overflow="visible" id="54a3895aw"><path d="M2.73.14c.9 0 1.43-.45 1.74-1.08h.06l.13.94h.8v-5.02h-.94v2.7c0 .98-.57 1.62-1.46 1.62-.75 0-1.1-.4-1.1-1.22v-3.1h-.93v3.32c0 1.17.55 1.84 1.7 1.84zm0 0"/></symbol><symbol overflow="visible" id="54a3895ax"><path d="M5.08-5.16c-.94 0-1.58.43-1.9 1.3h-.09l-.07-1.16H1.05v.77h1.1v3.48H.96V0h3.96v-.77H3.1v-1.46c0-1.36.6-2.05 1.83-2.05.4 0 .76.08 1.1.17l.15-.87c-.33-.11-.7-.18-1.11-.18zm0 0"/></symbol><symbol overflow="visible" id="54a3895ay"><path d="M3.33.14c1.9 0 2.76-1.27 2.76-3.52 0-2.26-.86-3.53-2.76-3.53S.58-5.64.58-3.37c0 2.25.86 3.51 2.75 3.51zM3.3-.67c-1.25 0-1.73-.95-1.73-2.7 0-1.77.5-2.72 1.75-2.72s1.75.95 1.75 2.71c0 1.75-.5 2.7-1.77 2.7zm0 0"/></symbol><symbol overflow="visible" id="54a3895az"><path d="M2.84.14C3.8.14 4.33-.26 4.6-.9h.07L4.8 0h.76v-7.14h-.95v2.95h-.08c-.28-.6-.86-.97-1.67-.97-1.48 0-2.27.99-2.27 2.64C.6-.84 1.36.14 2.84.14zm.22-.8c-.98 0-1.48-.59-1.48-1.84s.5-1.86 1.48-1.86c1.13 0 1.58.8 1.58 1.86S4.2-.66 3.06-.66zm0 0"/></symbol><symbol overflow="visible" id="54a3895aA"><path d="M3.58-5.81c.42 0 .72-.22.72-.67 0-.44-.3-.68-.72-.68-.44 0-.72.24-.72.68 0 .45.28.67.72.67zm.5.8H1.52v.76h1.6v3.48h-1.8V0h4.46v-.77h-1.7zm0 0"/></symbol><symbol overflow="visible" id="54a3895aB"><path d="M2.16 0v-2.67c0-.99.59-1.63 1.46-1.63.74 0 1.07.38 1.07 1.22V0h.95v-3.31c0-1.2-.56-1.85-1.67-1.85-.92 0-1.49.46-1.77 1.08h-.06l-.12-.94H1.2V0zm0 0"/></symbol><symbol overflow="visible" id="54a3895aC"><path d="M3.92-7.14H1.36v.76h1.6v5.61H1.15V0H5.7v-.77H3.92zm0 0"/></symbol><symbol overflow="visible" id="54a3895aD"><path d="M3.36.16c1.4 0 2.2-.6 2.2-1.57 0-.89-.54-1.22-1.47-1.39L3-3c-.67-.14-.86-.33-.86-.73 0-.5.4-.74 1.17-.74.83 0 1.19.27 1.27.8l.9-.05c-.12-1-.8-1.47-2.17-1.47-1.34 0-2.1.53-2.1 1.5 0 .81.45 1.22 1.52 1.44l1.04.2c.56.11.87.24.87.72 0 .52-.45.78-1.28.78-.95 0-1.36-.28-1.42-.87l-.9.06C1.07-.36 1.8.16 3.35.16zm0 0"/></symbol><symbol overflow="visible" id="54a3895aE"><path d="M1.45-2.95c0 2.56 1.08 4.37 3.67 4.84l.11-.67C3.28.86 2.43-.75 2.43-2.95s.85-3.82 2.8-4.16l-.1-.69c-2.6.49-3.68 2.3-3.68 4.85zm0 0"/></symbol><symbol overflow="visible" id="54a3895aF"><path d="M1.45-7.1c1.96.33 2.8 1.94 2.8 4.15 0 2.2-.84 3.8-2.8 4.17l.11.67c2.58-.47 3.67-2.28 3.67-4.84 0-2.55-1.09-4.36-3.67-4.85zm0 0"/></symbol></defs><g fill="#515151"><use xlink:href="#54a3895aa" x="154.335" y="153.5"/><use xlink:href="#54a3895ab" x="177.475" y="153.5"/></g><use xlink:href="#54a3895ac" x="208.155" y="153.5" fill="#fff"/><g fill="#515151"><use xlink:href="#54a3895ad" x="229.41" y="153.5"/><use xlink:href="#54a3895ae" x="248.91" y="153.5"/></g><use xlink:href="#54a3895af" x="275.43" y="153.5" fill="#fff"/><use xlink:href="#54a3895ad" x="299.74" y="153.5" fill="#515151"/><use xlink:href="#54a3895ag" x="319.24" y="153.5" fill="#fff"/><g fill="#515151"><use xlink:href="#54a3895ah" x="393.925" y="153.5"/><use xlink:href="#54a3895ae" x="419.145" y="153.5"/></g><g fill="#fff"><use xlink:href="#54a3895ai" x="243.3333" y="252"/><use xlink:href="#54a3895aj" x="250.0003" y="252"/><use xlink:href="#54a3895ak" x="256.6673" y="252"/><use xlink:href="#54a3895al" x="263.3343" y="252"/><use xlink:href="#54a3895am" x="270.0013" y="252"/><use xlink:href="#54a3895an" x="276.6683" y="252"/><use xlink:href="#54a3895ao" x="283.3353" y="252"/><use xlink:href="#54a3895ap" x="290.0023" y="252"/><use xlink:href="#54a3895aq" x="296.6693" y="252"/><use xlink:href="#54a3895an" x="303.3363" y="252"/><use xlink:href="#54a3895ar" x="310.0033" y="252"/><use xlink:href="#54a3895as" x="316.6703" y="252"/><use xlink:href="#54a3895an" x="323.3373" y="252"/><use xlink:href="#54a3895at" x="330.0043" y="252"/><use xlink:href="#54a3895as" x="336.6713" y="252"/><use xlink:href="#54a3895au" x="343.3383" y="252"/><use xlink:href="#54a3895ar" x="350.0053" y="252"/></g><g fill="#fff"><use xlink:href="#54a3895av" x="220" y="266"/><use xlink:href="#54a3895aj" x="226.667" y="266"/><use xlink:href="#54a3895aq" x="233.334" y="266"/><use xlink:href="#54a3895al" x="240.001" y="266"/><use xlink:href="#54a3895aw" x="246.668" y="266"/><use xlink:href="#54a3895ax" x="253.335" y="266"/><use xlink:href="#54a3895aj" x="260.002" y="266"/><use xlink:href="#54a3895am" x="266.669" y="266"/><use xlink:href="#54a3895an" x="273.336" y="266"/><use xlink:href="#54a3895ay" x="280.003" y="266"/><use xlink:href="#54a3895ax" x="286.67" y="266"/><use xlink:href="#54a3895az" x="293.337" y="266"/><use xlink:href="#54a3895aA" x="300.004" y="266"/><use xlink:href="#54a3895aB" x="306.671" y="266"/><use xlink:href="#54a3895aq" x="313.338" y="266"/><use xlink:href="#54a3895aC" x="320.005" y="266"/><use xlink:href="#54a3895aD" x="326.672" y="266"/><use xlink:href="#54a3895an" x="333.339" y="266"/><use xlink:href="#54a3895aE" x="340.006" y="266"/><use xlink:href="#54a3895as" x="346.673" y="266"/><use xlink:href="#54a3895ax" x="353.34" y="266"/><use xlink:href="#54a3895az" x="360.007" y="266"/><use xlink:href="#54a3895aB" x="366.674" y="266"/><use xlink:href="#54a3895aF" x="373.341" y="266"/></g></svg>