<?xml version='1.0' encoding='UTF-8'?>
<svg xmlns="http://www.w3.org/2000/svg" xmlns:xlink="http://www.w3.org/1999/xlink" width="200px" height="340px" viewBox="0 0 200 340" x="0px" y="0px" enable-background="new 0 0 200 340"><defs><symbol overflow="visible" id="6cd056c5a"><path d="M15.89-13.61c-2.093 0-4.234-.046-6.328-.078-.64 0-.671-.109-.671-3.187 0-3.453 0-4.125.14-4.969.14-.906.766-.797 2.235-1.078a.492.492 0 00.359-.219c.234-.312.453-.875.453-1.109 0-.078-.031-.11-.14-.11-.876 0-3.188.141-4.766.141-1.89 0-3.281-.11-3.672-.11-.063 0-.172 0-.281.142-.11.171-.313.562-.313.984 0 .11.031.14.39.203 2.017.36 2.298.453 2.345 1.61.062 1.156.062 2.671.062 6.203 0 10.5-.031 11.546-.11 12.078C5.5-2.031 5.25-1.547 3.61-1.297c-.25.031-.28.078-.39.219-.14.203-.344.766-.344 1.078 0 .11.031.14.172.14.172 0 1.469-.14 3.39-.14 3.157 0 3.922.031 4.516.031.485 0 .875-.765.875-1.156 0-.094 0-.14-.39-.203-1.532-.25-1.954-.39-2.157-.703-.328-.485-.39-4.516-.39-9.063 0-.453.03-.734.562-.812.422-.063 1.078-.094 5.703-.094h3.531c4.063 0 4.375.031 4.594.172.094.11.172.422.172.703v3.703c0 3.11-.031 4.688-.172 5.219-.11.39-.64.844-2.14 1.015-.391.032-.625.875-.625 1.157 0 .14.172.172.234.172.281 0 1.266-.141 3.328-.141 3.719 0 4.375.031 4.906.031.313 0 .657-.625.703-1.11 0-.109 0-.187-.328-.218-2.203-.25-2.484-.484-2.547-1.469-.109-1.578-.171-2.937-.171-6.296 0-9.876.03-11.626.172-12.563.14-.984.453-1.094 2.03-1.266.282-.03.376-.062.485-.203.11-.14.422-.781.422-1.156 0-.11-.11-.11-.172-.11-.422 0-3.719.141-4.625.141-2.031 0-3.36-.11-3.89-.11-.313 0-.594.985-.594 1.157 0 .11.047.14.531.219 2.031.265 2.484.406 2.484 2.234 0 .735-.03 1.047-.03 2.453 0 1.5.03 2.125.03 3.25 0 1.22-.203 1.329-.797 1.329-2.14.03-4.656.078-6.796.078zm0 0"/></symbol><symbol overflow="visible" id="6cd056c5b"><path d="M14-11.094c0-2.562-1.297-5.328-4.906-5.328-5.063 0-8.047 5.016-8.047 9.485 0 3.78 2.172 7.39 6.484 7.39 3.078 0 5.703-1.719 6.125-4.016.031-.25.031-.421.031-.703 0-.39-.39-.593-.593-.593-.078 0-.11.03-.14.171-.642 1.813-2.173 2.594-4.032 2.594-2.969 0-5.11-3.015-5.11-6.312 0-.235 0-.485.032-.735.078-.546.187-.656.562-.656 4.375 0 8.61-.219 9.344-.594.14-.078.25-.25.25-.703zm-6.406-3.75c2.093 0 3.156 1.89 3.156 2.875 0 1.156-2.563 1.219-3.688 1.219-1.64 0-2.156-.031-2.859-.14-.172-.032-.172-.094-.172-.235.407-2.344 2.235-3.719 3.563-3.719zm0 0"/></symbol><symbol overflow="visible" id="6cd056c5c"><path d="M9.516-1.438c.218 1.688.921 1.97 1.718 1.97 1.016 0 1.579-.141 2.204-.47.953-.406 1.546-.906 1.859-1.703.14-.359.281-.812.281-.984 0-.063-.172-.25-.422-.25-.11 0-1.047 1.234-2 1.234-.734 0-.969-.64-.969-1.89 0-2.453.688-5.11.688-9.453 0-1.407-1.813-3.672-4.234-3.672-2.125 0-6.922 2.453-6.922 4.468 0 .36.172.844.593.844.204 0 1.532-.422 2.094-.734.422-.203.5-.344.5-.485-.047-.28-.047-.453-.047-.593 0-1.235.782-1.86 1.797-1.86.766 0 1.64.391 2.407 1.157.562.593.765 2.656.765 4.234 0 .703-.031 1.297-.094 1.61-2.171.312-4.968.874-6.656 1.75-1.297.671-1.812 1.406-1.812 2.702 0 .344.03.688.093 1.11C1.72-.391 3.156.453 4.86.453c1.579 0 3.329-.703 4.657-1.89zm.109-5c0 .594-.063 3.36-.11 3.813-1.25.906-2.265 1.266-3.046 1.266-1.36 0-1.922-1.235-1.922-2.454 0-.734.281-1.296 1.016-1.75 1.578-.953 3.53-1.328 3.89-1.328.172 0 .172.204.172.454zm0 0"/></symbol><symbol overflow="visible" id="6cd056c5d"><path d="M3.39-13.89c.11 1.578.11 3.187.11 4.656 0 2.796-.063 5.171-.172 6.406-.078 1.187-.765 1.64-2 2.156-.312.14-.39.703-.39.953 0 .14.187.14.28.14.36 0 1.345-.28 3.72-.28 1.953 0 2.375 0 2.796-.11.204-.031.704-.703.704-1.015 0-.063-.032-.141-.141-.141-.953 0-1.719-.031-1.922-.094-.14-.078-.281-.11-.36-1.578-.062-1.469-.093-1.094-.093-2.984 0-1.5 0-1.844.234-1.844.25 0 .844.516 1.157.766C8.64-5.703 10.39-3.5 11.905-1.08 12.781.313 13.437.454 14.453.454c1.047 0 2.594 0 3.11-.281.421-.203.78-.656.78-.984 0-.094 0-.313-.171-.313-.14 0-.61.047-.844.047-1.328 0-1.719-.36-2.594-1.438-1.921-2.453-3.843-4.453-5.64-5.64-.235-.172-.281-.25-.281-.313 0-.11.078-.172.562-.531.953-.656 2.14-1.672 4.031-3.703 1.188-1.266 1.61-1.469 2.735-1.86 1.422-.484 1.75-1.015 1.75-1.437 0-.172-.078-.344-.282-.344-.39 0-1.578.344-3.125.344-1.218 0-2.125-.094-2.625-.094-.375 0-.734.657-.734.907 0 .374 1.328.28 1.328.734 0 .172-.031.344-.375.797-.984 1.265-2.734 3.36-4.344 4.484-.39.25-.984.672-1.359.672-.219 0-.313-.078-.313-.313 0-.359-.046-1.265-.046-2.03 0-2.766.25-3.75 1.578-4.063.562-.14.703-.906.703-1.047 0-.14-.14-.219-.25-.219-.344 0-2.031.281-3.703.281-2.422 0-2.532-.03-2.625-.03-.219 0-.39.03-.422.062-.313.218-.594.593-.594.921 0 .094.11.094.313.126 1.265.187 2.343.14 2.375.921zm0 0"/></symbol><symbol overflow="visible" id="6cd056c5e"><path d="M9.14-1.688c.313 2 .938 2.25 1.985 2.25.531 0 .875-.109 1.438-.39 1.046-.484 1.578-1.297 1.89-2.235.219-.593.219-.843.219-.874 0-.141-.328-.36-.5-.36-.063 0-.11.047-.14.11-.173.562-1.016 1.546-1.61 1.546-.625 0-.766-.39-.766-1.234 0-3.25 1.016-7 1.016-9.625 0-1.188-.172-1.844-1.266-2.828-.844-.735-1.984-1.328-3.11-1.328-2 0-6.718 2.453-6.718 4.468 0 .25.14.876.625.876.36 0 1.406-.407 1.89-.657.532-.281.673-.562.673-.875 0-.344-.11-.562-.11-.844 0-.703.985-1.296 1.75-1.296.735 0 1.61.39 2.407 1.125.609.562.78 2.093.78 3.5 0 .984-.109 1.921-.171 2.343-2.11.313-5.219.954-6.766 1.829-1.156.656-1.61 1.328-1.61 2.484 0 2.547 1.329 4.156 3.5 4.156 1.516 0 3.266-.797 4.595-2.14zm0-.937c-1.265.906-2.25 1.297-2.984 1.297-1.39 0-1.922-1.438-1.922-2.656 0-.735.25-1.375.875-1.797 1.157-.735 3.672-1.39 4.125-1.39.141 0 .141.234.141.484 0 .671-.172 3.5-.234 4.062zm0 0"/></symbol><symbol overflow="visible" id="6cd056c5f"><path d="M6.828-14.063c-.39 1.782-3.156 8.188-4.406 11.5-.39 1.016-.5 1.016-1.719 1.016-.14 0-.5.25-.5.563 0 .218.219.875.219 2.03 0 1.298-.219 3.36-.219 3.782 0 .625.844.906 1.156.906.188 0 .36-.14.391-.312C2.313.938 1.953.282 4.375.203 7.938.11 8.328.063 12.703.063 13.938.063 14 .843 14 1.78c0 1.516-.563 3.407-.563 3.61 0 .203.032.343.454.343.359 0 .812-.203.984-.625.938-2.546 1.438-5.53 1.438-6.046 0-.22-.25-.563-.5-.563-.172 0-.407.094-.829.094-.359 0-.734-.032-.984-.625-2.031-4.797-3.953-12.985-4.031-14.422 0-.11-.14-.14-.313-.14-.203 0-2.234.28-2.594.78-.062.063.079.266-.234 1.75zM4.344-2.203c.703-3.578 2.593-7.594 3.078-9.844.062-.265.14-.406.25-.406.062 0 .094.062.14.172.516 2.406 2.625 7.562 3.282 10.219.031.14.078.28.078.374 0 .329-.219.391-.781.391-1.047 0-3.922 0-5.907-.14-.171 0-.218-.141-.218-.282 0-.14.046-.312.078-.484zm0 0"/></symbol><symbol overflow="visible" id="6cd056c5g"><path d="M18.234-2.484c0 .796-.422 1.437-2.14 1.89-.313.11-.453.485-.453.656 0 .22.171.329.312.329.328 0 2.25-.282 4.344-.282 1.047 0 1.187.063 1.64.063.22 0 .391 0 .563-.063.594-.25.844-.812.844-1.156 0-.172-.14-.219-.282-.219-.203 0-.734.141-1.125.141-.734 0-.828-.313-.937-1.75a206.64 206.64 0 01-.422-7.969c0-.812-.031-1.406-.031-1.969.031-2.374 1.156-1.859 2.094-2.265.39-.188.5-.844.5-1.125 0-.25-.141-.313-.25-.313-.172 0-2.203.453-3.391.453-.953 0-1.547-.03-1.89-.03-.25 0-.391.03-.532.093-.422.219-.25.563-.937 2.813-.641 2.062-1.72 4.609-2.563 6.5-.984 2.171-1.078 2.375-1.265 2.375-.126 0-.376-.516-.626-1.11-1.124-2.734-2.234-5.562-3.468-9.594-.203-.562-.14-.906-.875-.906-.485 0-1.219-.031-2.657-.031-.906 0-1.75-.14-2.765-.14-.453 0-.625.796-.625.968 0 .219.062.281.203.281 2.453.078 2.531.313 2.531 2.594 0 2.516-.36 7-.562 9.313-.11 1.046-.953 1.64-1.969 2-.422.125-.625.656-.625.968 0 .25.14.313.39.313C1.47.344 3.814.25 6.829.25c.563 0 .797-.781.797-1.016 0-.218-.14-.28-.344-.28-1.578 0-1.828-.735-1.828-1.47 0-.984.328-6.343.328-7.843 0-.704 0-1.5.032-2.172 0-.203.062-.25.14-.25.063 0 .172.078.234.36.329 1.25.704 2.343 1.375 4.015.907 2.219 2.454 5.64 3.11 8.062.14.375.281.625.594.625.359 0 1.015-.031 1.234-.594 1.11-3.156 2.625-6.546 3.672-8.828 1.047-2.265 1.328-3.64 1.469-3.64.203 0 .453.5.453 5.469 0 1.953.14 4.796.14 4.828zm0 0"/></symbol><symbol overflow="visible" id="6cd056c5h"><path d="M18.906-15.125c.625-.234.657-.828.657-.969 0-.11-.032-.14-.141-.14-.172 0-2.656.343-4.75.343-1.094 0-.25.454-1.203 2.204-1.25 2.28-3.5 5.109-5.531 8.124-.625.938-1.704 2.766-1.782 2.907-.031.062-.062.094-.093.094-.079 0-.11-.032-.11-.094 0-.281.313-.985.375-4.172.078-2.734-.14-6.5.64-7.484.282-.391 1.016-.563 1.438-.626.281-.078.547-.843.547-.984 0-.11-.094-.219-.172-.219-.172 0-2.312.25-4.062.25-1.078 0-2.063-.062-2.375-.062-.203 0-.344.031-.422.062-.281.172-.625.766-.625.907 0 .109.11.109.312.14 1.22.219 1.72.14 1.829.64.093.595.265 4.095.265 7.454 0 1.813-.062 3.422-.203 4.719-.063.765-.313 1.219-1.578 1.719-.344.109-.375.421-.375.656 0 .11.062.187.234.219C2.063.563 3.11.28 5.953.03c.484-.031.563-.062.625-.344.078-.28.172-.984.875-2.14 2.203-3.563 3.75-5.422 5.11-7.422 1.015-1.469 1.64-2.547 1.718-2.719.031-.078.063-.11.11-.11.03 0 .03.032.03.11 0 .172-.171 1.844-.171 4.125 0 4.125 0 6.297-.64 7.031-.485.563-.97.563-1.422.704-.329.109-.422.796-.422.906 0 .11.14.14.203.14.344 0 1.437-.25 4.062-.25.844 0 2.14.047 2.594.047.594 0 1.078-.39 1.078-.812 0-.11 0-.203-.14-.203-.938-.031-2-.219-2.344-.39-.172-.063-.25-.141-.25-1.61 0-3.047-.094-5.64-.094-7.735 0-.875.031-1.64.063-2.343.03-.954.562-1.5 1.968-2.141zm0 0"/></symbol><symbol overflow="visible" id="6cd056c5i"><path d="M15.953-16.453c-.515 0-1.75.281-3.281.281-.672 0-2.235-.14-4.203-.14-3.953 0-6.094 2.421-6.094 4.515 0 2.281 2.11 4.172 5.188 4.172.25 0 .343 0 .343.031 0 .032-.14.11-.703.453-1.187.735-2.797 2.516-4.437 4.907C2.062-1.22 1.78-1.156.344-1.016.109-.984.03-.844.03-.625c0 .281.25.594.703.766.344.14 1.079.343 1.547.343.938 0 1.985-.234 2.438-.968 1.297-2.11 3.578-6.063 5.328-7.25.25-.141.625-.282.844-.282.14 0 .203.032.203.172 0 2.532-.031 4.594-.14 5.39-.063.735-.626 1.329-1.892 1.688-.312.063-.453.563-.453.797 0 .14.141.219.25.219.594 0 1.22-.25 3.704-.25 1.265 0 2.343.063 2.843.063.344 0 .797-.485.797-.938 0-.11-.031-.172-.11-.172-.937 0-1.952-.172-2.265-.5-.14-.14-.172-.516-.172-1.5 0-4.297.14-7.734.281-10.11.094-1.718.313-1.437 1.75-2.062.266-.11.547-.812.547-.984 0-.078-.03-.25-.28-.25zm-4.781 1.922c.031.39.062 1.297.062 2.484 0 1.063-.03 2.219-.171 3.047-.032.188-.313.25-.954.25a10.55 10.55 0 01-1.984-.203c-1.719-.39-2.766-1.86-2.766-3.297 0-1.156.594-2.14 2.063-2.594.875-.281 1.578-.281 2.234-.281.813 0 1.438 0 1.516.594zm0 0"/></symbol><symbol overflow="visible" id="6cd056c5j"><path d="M2.219-8.047H1.125V0H2v-5.656l-.031-1.11h.015l.532 1.047L5.906 0h1.11v-8.047h-.891v5.531l.047 1.297h-.016l-.547-1.14zm0 0"/></symbol><symbol overflow="visible" id="6cd056c5k"><path d="M.64-2.688C.64-.843 1.688.126 3.079.126c.672 0 1.344-.14 2-.453L4.844-1a4.468 4.468 0 01-1.61.297c-.937 0-1.578-.563-1.64-1.86h3.531c.063-.296.078-.624.078-.921 0-1.282-.672-2.282-2.016-2.282-1.578 0-2.546 1.36-2.546 3.079zm2.47-2.28c.765 0 1.156.546 1.156 1.312 0 .125 0 .265-.016.406H1.61c.124-1.063.64-1.719 1.5-1.719zm0 0"/></symbol><symbol overflow="visible" id="6cd056c5l"><path d="M1.266-2.625C.796-2.328.5-1.844.5-1.265c0 .859.563 1.39 1.469 1.39.687 0 1.36-.313 1.937-.828l.172.765.797-.124c-.094-1.188-.094-1.672-.094-2.11v-1.437c0-1.485-.531-2.125-1.734-2.125-.89 0-1.672.375-2.297.906l.344.594c.593-.407 1.218-.672 1.781-.672.703 0 .969.406.969 1.593v.079c-1.297.109-2.094.296-2.578.609zm.156 1.25c0-.36.172-.594.36-.734.296-.188.827-.329 2.062-.422v1.125c-.594.5-1.188.781-1.688.781-.453 0-.734-.266-.734-.75zm0 0"/></symbol><symbol overflow="visible" id="6cd056c5m"><path d="M.64-2.656C.64-.937 1.579.125 3.11.125c.53 0 1.156-.14 1.734-.406L4.625-1c-.5.203-1 .297-1.39.297-1.032 0-1.641-.656-1.641-2.078 0-.875.25-1.5.656-1.844.203-.156.484-.297.875-.297.469 0 .875.188 1.297.578l.469-.547c-.422-.546-.954-.843-1.704-.843-1.53 0-2.546 1.25-2.546 3.078zm0 0"/></symbol><symbol overflow="visible" id="6cd056c5n"><path d="M.64-2.61C.64-1.03 1.532.173 2.782.173c.703 0 1.266-.36 1.766-.89l.156.765.797-.11c-.094-1.093-.094-1.578-.094-1.984v-6.969l-.953.032v3.609c-.39-.25-.75-.39-1.266-.39C1.47-5.766.626-4.157.642-2.61zm.97-.203c0-.703.156-1.374.562-1.78.234-.25.562-.36 1.047-.36a2.4 2.4 0 011.234.328v3.188c-.5.468-.984.796-1.516.796-.874 0-1.328-.921-1.328-2.171zm0 0"/></symbol><symbol overflow="visible" id="6cd056c5o"><path d="M1.672-5.688l-.797.11c.094 1.234.094 1.734.094 2.172V0h.953v-4.219c.484-.406 1.016-.734 1.578-.734.656 0 .875.453.875 1.562V0h.922v-3.75c0-.172 0-.328-.016-.469.485-.406 1.032-.734 1.594-.734.656 0 .86.453.86 1.562V0h.952v-3.75c0-1.313-.453-2.016-1.562-2.016-.781 0-1.375.329-1.969.922-.218-.61-.656-.922-1.406-.922-.766 0-1.344.313-1.906.875zm0 0"/></symbol><symbol overflow="visible" id="6cd056c5p"><path d="M.797-7.313c0 .36.25.594.625.594.406 0 .672-.265.672-.656 0-.375-.25-.61-.625-.61-.407 0-.672.266-.672.673zM1.89-5.609l-.938.015V0h.938zm0 0"/></symbol><symbol overflow="visible" id="6cd056c5r"><path d="M6.39-8.047H.298l.031.844h2.547V0h.953v-7.203H6.36zm0 0"/></symbol><symbol overflow="visible" id="6cd056c5s"><path d="M1.578-5.61H.562c.016.188.094.36.22.532l1.421 2.125L.593-.516C.485-.344.392-.187.376 0h.89l1.5-2.313h.016L4.312 0h.954a.947.947 0 00-.22-.516l-1.64-2.421 1.438-2.141c.125-.172.203-.344.234-.531h-.906L2.859-3.563h-.03zm0 0"/></symbol><symbol overflow="visible" id="6cd056c5t"><path d="M2.188-7.266h-.782l-.218 1.657H.39v.78h.843v3.188c0 1.344.407 1.766 1.313 1.766.422 0 .953-.078 1.437-.25l-.187-.719c-.344.094-.703.14-.906.14-.563 0-.704-.25-.704-1.187v-2.937h1.72v-.781h-1.72zm0 0"/></symbol><symbol overflow="visible" id="6cd056c5u"><path d="M1.125-7.984V0h.953v-3.281c.297.031.625.047.844.047.265 0 .484-.016.703-.047L5.406 0h1.032a8.004 8.004 0 00-.36-.75L4.547-3.5c1.062-.422 1.656-1.281 1.656-2.36 0-1.515-1.172-2.312-3.094-2.312-.593 0-1.312.078-1.984.188zm2 .671c1.328 0 2.078.5 2.078 1.547 0 .735-.39 1.204-.922 1.454a3.66 3.66 0 01-1.375.25c-.297 0-.547-.032-.828-.047v-3.11a6.493 6.493 0 011.047-.093zm0 0"/></symbol><symbol overflow="visible" id="6cd056c5v"><path d="M1.172-.89c0 .25.062.437.187.578C.734.124.344.64.344 1.343c-.016 1.078.969 1.703 2.328 1.703 1.594 0 2.812-.797 2.812-2.11 0-1.109-.859-1.562-2.25-1.578-.734-.015-1.187-.062-1.187-.578 0-.203.094-.36.203-.531.156.016.328.031.5.031C4.203-1.719 5-2.64 5-3.766c0-.5-.156-.937-.469-1.28a4.024 4.024 0 011.078-.25l-.046-.829c-.625.031-1.125.313-1.5.672a2.515 2.515 0 00-1.188-.281C1.359-5.734.641-4.688.641-3.641c0 .735.359 1.391 1.046 1.704-.343.343-.515.656-.515 1.046zm2.922-2.813c0 .828-.516 1.25-1.282 1.25-.874 0-1.28-.5-1.28-1.297 0-.781.515-1.234 1.28-1.234.86 0 1.282.5 1.282 1.28zM1.219 1.234c0-.484.25-.859.718-1.187.313.094.672.11.985.11.984.015 1.687.124 1.687.905 0 .329-.14.61-.39.829-.328.265-.844.375-1.407.375-.953 0-1.593-.329-1.593-1.032zm0 0"/></symbol><symbol overflow="visible" id="6cd056c5w"><path d="M1.844-5.61l-.938.016v3.813c0 1.234.516 1.953 1.672 1.953.735 0 1.344-.328 1.89-.89l.173.765.78-.11c-.077-1.28-.093-1.656-.093-2.156v-3.39h-.953v4.187c-.516.469-1.031.781-1.563.781-.671 0-.968-.453-.968-1.484zm0 0"/></symbol><symbol overflow="visible" id="6cd056c5x"><path d="M1.89-9.016l-.937.032V-.97c0 .719.344 1.094.985 1.094.296 0 .625-.047.937-.188l-.203-.703a1.18 1.18 0 01-.438.079c-.25 0-.343-.157-.343-.532zm0 0"/></symbol><symbol overflow="visible" id="6cd056c5y"><path d="M1.672-5.688l-.797.11c.078 1.203.094 1.734.094 2.172V0h.953v-3.75c.375-.688.89-.984 1.422-.984.25 0 .437.015.656.078l.188-.86a1.404 1.404 0 00-.782-.218c-.64 0-1.156.39-1.547 1.109zm0 0"/></symbol><symbol overflow="visible" id="6cd056c5H"><path d="M2.078-8.047h-.953V0h.953zm0 0"/></symbol><symbol overflow="visible" id="6cd056c5z"><path d="M12.11-24.469c-.797 0-2.97.219-4.438.219-1.516 0-2.453-.11-3.5-.11-.39 0-.672.797-.672 1.047 0 .141.063.172.313.22 2.203.312 2.25.515 2.25 1.671 0 1.5-.079 2.985-.36 6.61-.516 7.25-.562 10.609-.844 11.843-.28 1.25-.421 1.36-2.125 1.75-.39.063-.703.828-.703 1.157 0 .062.031.171.172.171C2.563.11 3.5 0 5.36 0c3.422 0 2.907.031 4.094.031.516 0 .938-.875.938-1.078 0-.172-.032-.219-.485-.281-.906-.11-1.61-.219-1.86-.422-.28-.25-.28-.594-.28-1.156 0-1.531.25-4.766.562-8.125.031-.453.14-.656.625-.766.469-.11 2.281-.172 5.89-.172 1.845 0 6.188 0 7.032.14.203.032.313.173.313.485 0 .5-.11 2.656-.172 3.86-.172 3.14-.344 4.859-.563 5.39-.203.485-.562.656-1.953.938-.422.078-.734.703-.734 1.125 0 .062.03.14.203.14.25 0 .625-.109 2.625-.109 1.547 0 3.812-.031 4.547-.031.5 0 .843-.672.875-1.016 0-.11-.063-.219-.344-.25-1.75-.172-2.281-.39-2.281-1.36.047-1.609.109-3.155.422-6.515.312-3.422.671-9.625 1.187-12.531.219-1.11.5-1.188 2.11-1.328.421-.032.796-.938.796-1.266 0-.094-.062-.172-.172-.172-.422 0-3.422.219-4.297.219-1.968 0-2.25-.11-3.546-.11-.657 0-.907.907-.907 1.047 0 .11.078.141.25.172 2.485.422 2.547.532 2.547 2.313 0 .906-.093 4.375-.203 5.844-.11 1.265-.281 1.375-.844 1.375-.875 0-4.437.03-6.718.03-2.094 0-5.454 0-5.985-.03-.344-.047-.484-.11-.484-.641 0-.484.406-6.016.906-7.688.281-.921.656-.875 2.063-1.125.39-.078.796-.765.796-1.187 0-.14-.062-.219-.203-.219zm0 0"/></symbol><symbol overflow="visible" id="6cd056c5A"><path d="M9.516-16.875c-1.579 0-3.25 1.063-4.657 2.422-2.625 2.625-3.78 5.562-3.78 9.031 0 3.25 1.343 6.047 4.202 6.047.844 0 1.86-.203 2.907-.766 1.546-.843 3.078-2.484 3.5-3.25a.94.94 0 00.14-.5c0-.312-.14-.546-.281-.546-.031 0-.063.03-.11.062-1.109 1.125-3 2.422-4.5 2.422-2.078 0-3.093-1.797-3.093-4.203 0-.64 0-.985.281-1.016 1.234-.14 4.094-.984 5.781-2.031 1.469-.906 2.938-3.188 2.938-4.375 0-2.11-1.36-3.297-3.328-3.297zM4.125-8.156c-.14 0-.14-.11-.14-.281 0-.454.5-2.454 1.093-3.704.453-.984 1.078-1.921 1.578-2.28.235-.173.828-.313 1.422-.313 1.125 0 2.219.484 2.219 1.718 0 .594-.25 1.579-.672 1.985-1.36 1.406-4.688 2.875-5.5 2.875zm0 0"/></symbol><symbol overflow="visible" id="6cd056c5B"><path d="M1.016-6.375a11.92 11.92 0 00-.25 2.422c0 2.547.984 4.625 3.406 4.625 1.5 0 5.203-5.781 6.297-7.14.14-.188.203-.25.281-.25.063 0 .094.062.094.171 0 .313-.375 1.75-.547 2.594-.281 1.187-.531 2.547-.531 3.281 0 .953.906 1.375 1.546 1.375.547 0 1.047-.14 2.204-1.234 1.156-1.078 2.828-3.39 2.859-4.328 0-.25-.172-.422-.313-.422-.03 0-.062 0-.109.031-.625.813-2.156 2.766-3 2.766-.36 0-.453-.079-.453-.391 0-.563.14-1.297.281-2.203.766-5.031 2.344-11.656 2.485-12.766 0-.11-.532-.328-.985-.328-.734 0-.765.39-1.094 1.063-.234.515-.406.875-.796.875-.391 0-.813-.11-1.297-.11-1.156 0-2.063.172-2.938.625-2.906 1.547-6.578 6.406-7.14 9.344zM3.89-8.75c.593-1.719 1.75-3.5 3.312-4.656.672-.485 1.438-.938 2.39-.938.938 0 2.173.344 2.173 1.078 0 .844-.36 3.11-.875 4.125-1.297 2.454-4.704 6.547-5.954 6.547-1.093 0-1.546-1.578-1.546-3.14 0-1.016.171-2.11.5-3.016zm0 0"/></symbol><symbol overflow="visible" id="6cd056c5C"><path d="M5.875-16.828c-.203 0-.422.031-.625.094-1.219.39-3.563 2.937-4.234 4.234-.11.219-.172.5-.172.734 0 .282.094.5.203.5.078 0 .14-.14.594-.703.64-.765 1.656-1.781 2.28-1.781.423 0 .563.094.563.453 0 .797-.39 3.39-.703 4.719-.734 4.234-1.86 7.312-1.86 8.64 0 .61.22.704.907.704.735 0 1.719-.063 1.797-.454.453-2.453 1.5-7.843 2.063-7.843.703 0 1.359 2.672 2.312 5.218.594 1.61 1.39 3.157 2.578 3.157.39 0 .781-.25 1.266-.64 1.094-.829 2.203-2.485 2.203-3.532 0-.453-.14-.735-.281-.735-.141 0-.313.282-.704.766-.624.781-.906.953-1.328.953-.484 0-.906-.484-1.421-1.578-.844-1.812-1.688-3.812-2.532-4.625-.234-.234-.234-.265-.234-.344 0-.062.062-.14.234-.312.781-.875 1.86-2.344 3.047-3.36.906-.812 1.547-1.234 2.344-1.234.562 0 1.047.219 1.469.563.046.046.078.046.109.046.313-.046 1.016-1.234 1.016-2.078 0-.765-.844-1.421-1.86-1.421-1.078 0-2.406 1.328-3.844 2.937-1.296 1.469-2.109 2.86-3.671 4.438-1.016 1.015-1.204 1.296-1.407 1.296-.062 0-.109-.062-.109-.203 0-.5.39-1.687.64-2.594.454-1.64 1.016-3.64 1.016-4.687 0-.422-.11-.672-.39-.922-.344-.265-.813-.406-1.266-.406zm0 0"/></symbol><symbol overflow="visible" id="6cd056c5D"><path d="M8.219-26.36c-1.703 0-3.563.704-5.203 2.204-.188.14-.22.39-.22.593 0 .282.142.5.25.5.142 0 2.095-1.234 4.126-1.234 3.812 0 5.39 4.656 5.39 8.125 0 .594-.03.906-.14.906-.063 0-.11-.03-.422-.375-.875-.953-1.844-1.125-2.719-1.125-3.328 0-6.719 4.407-7.672 7.594-.39 1.297-.593 2.594-.593 3.813C1.016-2 2.516.812 5.359.812c3.079 0 6.47-3.609 7.797-7.562 1.047-3.047 1.828-6.828 1.828-10.266 0-5.03-1.687-9.343-6.765-9.343zm.11 11.344c1.718 0 3.437 1.75 3.437 3.954 0 2.593-1.094 6.406-2.422 8.234-.656.906-1.125 1.14-2.063 1.14-2.281 0-3.468-2.515-3.468-5.421 0-2.516.765-4.47 1.75-5.954.671-1 1.406-1.64 1.859-1.812.281-.11.594-.14.906-.14zm0 0"/></symbol><symbol overflow="visible" id="6cd056c5E"><path d="M6.578-17.047c-.344 0-1.125.11-2.172.813-.453.312-.593.547-.593.797 0 .359.218.53.359 1.124.062.282.14.704.14 1.25 0 3.126-1.546 8.891-2.765 10.266-.25.281-.531.375-.781.375-.657 0-1.047-.453-1.297-.453-.235 0-.516.563-.516 1.297 0 1.047.344 2.203 1.5 2.203.766 0 1.578-.594 2.235-2.063C3.843-4.03 4.577-6.968 5.14-10.5c.14-.734.171-.875.25-.875.109 0 .14.203.28.984.657 3.704 1.298 5.954 1.86 9.657.063.453.282.593.485.593.39 0 .906-.421 1.187-1.078.563-1.375.985-2.172 1.547-3.328 1.047-2.11 2.234-4.062 3.36-5.984.624-1.094.968-1.688 1.156-1.688.062 0 .093.078.093.219 0 .344-.734 3.984-1.078 5.813-.344 1.921-.625 3.734-.625 5.109 0 1.531 1.219 1.781 1.703 1.781.704 0 1.204-.312 1.829-.844.843-.734 1.64-1.718 2.203-2.656.39-.672.562-1.015.562-1.406 0-.234-.078-.563-.172-.563-.078 0-.187.188-.672.782-.625.765-1.547 1.75-2.28 1.75-.376 0-.485-.36-.485-.985 0-1.047.172-2.344.312-3.328.453-3.422.985-5.672 1.297-7.25.422-1.953.766-2.656.766-2.937 0-.203-.203-.235-.375-.235-.453 0-1.297.282-1.922.594-.781.375-1.547.938-1.61 1.328-.187.906-.874 2.235-2.812 5.672a516.376 516.376 0 01-2.063 3.672c-.28.484-.421.562-.562.562-.203 0-.281-.25-.453-.984-1.047-4.375-1.438-6.719-1.61-8.188-.171-1.328-.203-1.968-.375-2.515-.078-.219-.218-.219-.359-.219zm0 0"/></symbol><symbol overflow="visible" id="6cd056c5F"><path d="M6.063-16.828c-.282 0-.47 0-.782.14-1.156.485-2.86 2.72-3.64 3.954-.344.546-.454.656-.454 1.015 0 .235.079.547.172.547.047 0 .141-.094.391-.344.813-.843 1.922-1.921 2.625-2.343.063-.032.203-.11.281-.11.203 0 .282.172.282.39 0 .204-.172 1.438-.563 3.329-.594 2.828-1.781 7.344-1.781 9.125 0 1.188 1.25 1.89 2.031 1.89.422 0 .969-.484 1.5-1.015 2-1.984 5-6.078 6.547-8.328.312-.453.39-.594.422-.594.062 0 .094.11.094.25 0 .453-.516 2.375-.938 4.063-.39 1.562-.766 3.171-.766 4.046 0 1.157.97 1.688 1.782 1.688.53 0 .765-.281 1.296-.734.985-.954 2.407-2.594 3.141-3.672.422-.594.61-.985.61-1.406 0-.313-.079-.594-.25-.594-.11 0-.282.281-.954.984-.906.984-2.062 2.172-2.437 2.172-.25 0-.36-.25-.36-.64 0-.485.172-1.188.36-1.954a358.53 358.53 0 001.75-7.984c.265-1.297.687-3.14.687-3.422 0-.313-.797-.313-1.218-.313-.672 0-1.438.094-1.5.313-.282.828-.672 2.797-.844 3.313-.953 3.015-4.86 7.812-6.89 9.843-.25.25-.704.766-1.016.766-.22 0-.282-.235-.282-.516 0-.39.172-1.234.313-1.89C6.188-7.25 7-10.563 7.484-13.063c.36-1.812.454-2.265.454-2.718 0-.735-1-1.047-1.875-1.047zm0 0"/></symbol><symbol overflow="visible" id="6cd056c5G"><path d="M8.219-14.672c1.406 0 2.844.5 2.844 1.016 0 1.344-.626 3.36-.907 3.89-.36.454-1.297.907-1.86.907-1.75 0-3.64-1.813-3.64-3.391 0-.906.532-1.75 1.89-2.172a5.867 5.867 0 011.673-.25zm.984-1.703c-1.047 0-1.89.14-2.797.453-1.328.485-2.484 1.75-3.11 2.547-.702.875-1.062 1.89-1.062 2.813 0 1.703 1.204 3.28 3.61 3.28.218 0 .672 0 .906-.03-.938.906-2.578 2.875-4.297 4.718C2.031-2.14 1.641-2 1.22-2 .672-2 .25-2.172-.25-2.172c-.234 0-.281.14-.281.36 0 1.14.5 2.515 2.078 2.515 1.016 0 1.703-.5 2.86-2.281 1.468-2.313 3.187-4.89 4.312-6.016.375-.39 1.078-.812 1.25-.812.047 0 .11 0 .11.187 0 .625-1.438 6.297-1.438 7.453C8.64.25 9.484.672 10.328.672c.875 0 1.5-.469 2.203-1.094.766-.703 1.469-1.61 1.953-2.375.36-.562.594-1.156.594-1.515 0-.313-.094-.594-.234-.594-.11 0-.172.187-.813.922-.734.828-1.5 1.5-2.031 1.5-.281 0-.484-.204-.484-.766 0-.453.28-2.11.453-2.984.562-3.11 1.187-5.532 1.578-7.375.281-1.329.797-2.594.797-2.875 0-.25-.516-.532-1.188-.532-.312 0-.453.703-1.5.703-.906 0-1.781-.062-2.453-.062zm0 0"/></symbol></defs><use xlink:href="#6cd056c5a" x="6.165" y="100"/><use xlink:href="#6cd056c5b" x="37" y="100"/><use xlink:href="#6cd056c5c" x="52.05" y="100"/><use xlink:href="#6cd056c5d" x="67.555" y="100"/><use xlink:href="#6cd056c5e" x="85.93" y="100"/><use xlink:href="#6cd056c5f" x="100.875" y="100"/><use xlink:href="#6cd056c5b" x="117.29" y="100"/><use xlink:href="#6cd056c5g" x="132.34" y="100"/><use xlink:href="#6cd056c5h" x="156.245" y="100"/><use xlink:href="#6cd056c5i" x="176.79" y="100"/><use xlink:href="#6cd056c5j" x="37.462" y="150" fill="#b7b7b7"/><g fill="#b7b7b7"><use xlink:href="#6cd056c5k" x="45.514" y="150"/><use xlink:href="#6cd056c5l" x="51.358" y="150"/><use xlink:href="#6cd056c5m" x="57.058" y="150"/><use xlink:href="#6cd056c5l" x="62.41" y="150"/><use xlink:href="#6cd056c5n" x="68.11" y="150"/><use xlink:href="#6cd056c5k" x="74.482" y="150"/><use xlink:href="#6cd056c5o" x="80.326" y="150"/><use xlink:href="#6cd056c5p" x="89.926" y="150"/><use xlink:href="#6cd056c5l" x="92.782" y="150"/><use xlink:href="#6cd056c5q" x="98.482" y="150"/></g><use xlink:href="#6cd056c5r" x="100.762" y="150" fill="#b7b7b7"/><g fill="#b7b7b7"><use xlink:href="#6cd056c5k" x="106.198" y="150"/></g><g fill="#b7b7b7"><use xlink:href="#6cd056c5s" x="112.006" y="150"/><use xlink:href="#6cd056c5t" x="117.646" y="150"/><use xlink:href="#6cd056c5q" x="121.954" y="150"/><use xlink:href="#6cd056c5u" x="124.546" y="150"/></g><g fill="#b7b7b7"><use xlink:href="#6cd056c5k" x="131.278" y="150"/><use xlink:href="#6cd056c5v" x="137.122" y="150"/><use xlink:href="#6cd056c5w" x="143.062" y="150"/><use xlink:href="#6cd056c5x" x="149.362" y="150"/><use xlink:href="#6cd056c5l" x="152.458" y="150"/><use xlink:href="#6cd056c5y" x="158.158" y="150"/></g><g><use xlink:href="#6cd056c5z" x="10.26" y="250"/><use xlink:href="#6cd056c5A" x="39.415" y="250"/><use xlink:href="#6cd056c5B" x="53.275" y="250"/><use xlink:href="#6cd056c5C" x="70.355" y="250"/><use xlink:href="#6cd056c5B" x="86.91" y="250"/><use xlink:href="#6cd056c5D" x="103.99" y="250"/><use xlink:href="#6cd056c5A" x="119.46" y="250"/><use xlink:href="#6cd056c5E" x="133.32" y="250"/><use xlink:href="#6cd056c5F" x="154.145" y="250"/><use xlink:href="#6cd056c5G" x="173.43" y="250"/></g><g fill="#b7b7b7"><use xlink:href="#6cd056c5j" x="44.2" y="300"/></g><g fill="#b7b7b7"><use xlink:href="#6cd056c5k" x="52.252" y="300"/><use xlink:href="#6cd056c5l" x="58.096" y="300"/><use xlink:href="#6cd056c5m" x="63.796" y="300"/><use xlink:href="#6cd056c5l" x="69.148" y="300"/><use xlink:href="#6cd056c5n" x="74.848" y="300"/><use xlink:href="#6cd056c5k" x="81.22" y="300"/><use xlink:href="#6cd056c5o" x="87.064" y="300"/><use xlink:href="#6cd056c5p" x="96.664" y="300"/><use xlink:href="#6cd056c5l" x="99.52" y="300"/><use xlink:href="#6cd056c5q" x="105.22" y="300"/></g><g fill="#b7b7b7"><use xlink:href="#6cd056c5r" x="107.5" y="300"/></g><g fill="#b7b7b7"><use xlink:href="#6cd056c5k" x="112.936" y="300"/></g><g fill="#b7b7b7"><use xlink:href="#6cd056c5s" x="118.744" y="300"/><use xlink:href="#6cd056c5t" x="124.384" y="300"/><use xlink:href="#6cd056c5q" x="128.692" y="300"/><use xlink:href="#6cd056c5H" x="131.284" y="300"/><use xlink:href="#6cd056c5t" x="134.488" y="300"/><use xlink:href="#6cd056c5l" x="138.796" y="300"/><use xlink:href="#6cd056c5x" x="144.496" y="300"/><use xlink:href="#6cd056c5p" x="147.592" y="300"/><use xlink:href="#6cd056c5m" x="150.448" y="300"/></g></svg>