<?xml version='1.0' encoding='UTF-8'?>
<svg xmlns="http://www.w3.org/2000/svg" xmlns:xlink="http://www.w3.org/1999/xlink" width="600px" height="300px" viewBox="0 0 600 300" x="0px" y="0px" enable-background="new 0 0 600 300"><defs><symbol overflow="visible" id="948bd1d6a"><path d="M9.1-32.17c-2.02 0-6.7 4.48-6.7 8.19 0 .71.73 1.04 1.12 1.04.3 0 .51-.53 1.17-1.5.76-1.17 1.54-2.34 2.65-2.34 1.9 0 6.32 2.28 9.43 3.12 1.95.52 2.28.52 2.28.85 0 .72-.78 1.42-2.35 3.5C14.1-15.86 7.34-7.55 4.7-5.53 1.5-3.13 1.17-1.81 1.17-.4c0 .72.64 1.89 1.56 1.89.58 0 1.24-1.23 2.15-2.02.96-.84 1.56-1.37 2.28-1.37 3.43 0 8.82 7.03 13.18 7.03 2.47 0 5.85-4.69 5.85-6.5 0-.72-.46-1.1-.85-1.1-.39 0-1.09 2.27-3.37 2.27-2.47 0-5.66-3.19-11.38-5.65-.57-.27-.57-.33-.57-.6.06-1.17 6.8-9.23 12.6-15.4 1.49-1.63 2.2-2.6 3.25-3.5 1.7-1.44 2.86-2.86 2.86-4.36 0-1.18-1.17-1.96-1.95-1.96-.51 0-1.1.85-1.83 1.75-.76 1.05-1.8 2.35-2.72 2.35-1.76 0-3.7-.9-5.71-1.96-2.55-1.3-5.14-2.65-7.43-2.65zm0 0"/></symbol><symbol overflow="visible" id="948bd1d6c"><path d="M28.73-31.45c-.2 0-.39 0-.84.51-1.44 1.75-2.73 3.25-4.62 3.25-2.93 0-8.91-4.93-11.96-4.93-3 0-8.51 5.18-8.51 7.92 0 .72.51 1.1.9 1.1.72 0 2.14-3.76 5.08-3.76 2.33 0 7.28 3.64 10.99 3.64.57 0 .9 0 .9.19 0 .12-.2.33-.65.78a156.45 156.45 0 01-11.38 9.69c-3.89 3.04-4.28 2.86-5.9 4.03C1.16-7.93.71-6.95.71-6.11c0 1.11.45 1.9 1.1 1.9.77 0 .91-1.24 3.18-1.24 1.31 0 2.6.64 3.4 1.42 7.72 7.47 12.72 25.28 24.04 25.28 3.5 0 8.12-1.63 11.04-5.06.58-.66.91-1.3.91-1.9 0-.77-.52-1.35-.84-1.35-.13 0-.25.06-.4.19-2.98 3.06-4.8 3.96-7.98 3.96-11.97 0-15.15-21.84-24.12-26.12-.97-.45-1.03-.66-1.03-.99 0-.45 1.54-2.01 3.7-3.89 4.48-3.96 9.6-7.87 10.47-8.71 4.15-3.2 6.36-4.88 6.36-6.44 0-1.36-.85-2.4-1.82-2.4zm0 0"/></symbol><symbol overflow="visible" id="948bd1d6i"><path d="M28.6-31.2c.98 0 2.21.98 2.21 2.34 0 1.75-3 4.03-7.54 7.55-.33.25-5.27 4.1-9.16 7.53-2.16 1.89-3.9 3.64-3.9 4.1 0 .32.12.59.9.98 1.89.9 3.58 2.92 5.02 5.18C19.68 2.2 25.09 12.1 30.09 12.1c2.02 0 2.86-2.4 3.38-4.87.2-.99.53-1.3.92-1.3 1.1 0 2.33 1.24 2.33 2.66 0 1.83-4.4 6.37-9.94 6.37-9.75 0-12.6-15.07-17.69-19.56a5.44 5.44 0 00-3.04-1.37c-1.83 0-2.8 1.89-3.64 1.89-.66 0-1.18-.85-1.18-1.96 0-.84.52-1.68 2.08-2.86 1.3-.96 2.67-1.68 6.56-4.75 4.7-3.64 6.57-5.12 10.99-9.28.45-.47.72-.78.72-.92 0-.19-.33-.19-.9-.19-4.88 0-8.2-3.57-11.2-3.57A1.5 1.5 0 008-26.2c0 1.03.31 1.69.31 2.53 0 1.43-1.81 2.47-2.78 2.47-.66 0-1.23-1.04-1.23-2.53 0-3.39 4.8-8.12 8.43-8.12 3 0 7.68 4.21 11.32 4.21 1.68 0 3-1.68 3.57-2.98.27-.6.79-.6.97-.6zm28.27-14.18c-1.8 0-1.56 5.72-6.3 5.72-5.79 0-9.88-7.47-17.5-7.47-4.73 0-10.98 4.76-10.98 9.63 0 1.23.47 3.19 1.83 3.19 1.42 0 3.05-2.4 3.05-3.52 0-.72-.52-2.14-.52-3.19 0-1.23.9-2.53 2.68-2.53 6.62 0 10.98 8.46 17.42 8.46 1.42 0 2.72-.53 3.04-.53.13 0 .2.06.2.2 0 .19-.2.45-.98 1.42-5.51 6.9-12.94 15.08-20.08 21.06-4.75 3.9-7.09 5.33-7.09 7.4 0 1.12.98 2.74 2.02 2.74.84 0 1.62-1.17 2.6-2.65 1.04-1.63 2.15-2.8 3.26-2.8 2.26 0 3.5.78 5.32 3.44C39.97 2.67 41.6 24.64 57 24.64c6.95 0 13.72-6.64 13.72-13.66 0-1.1-.66-2.73-1.95-2.73-1.3 0-3.2 1.31-3.2 2.22 0 .78 1.5 2.65 1.5 4.6 0 3.13-3.3 5.27-6.43 5.27-17.73 0-14.03-26.84-26.97-31.98-.78-.31-1.05-.25-1.05-.45s.54-.64 1.32-1.43a274.55 274.55 0 0016.89-18.2c2.73-3.19 5.47-6.23 7.48-8.64a4.68 4.68 0 001.1-2.94c0-1.36-1.57-2.08-2.53-2.08zm0 0"/></symbol><symbol overflow="visible" id="948bd1d6b"><path d="M17.69-31.33c-2.94 0-6.05 1.95-8.66 4.49-4.87 4.87-7.01 10.32-7.01 16.76 0 6.05 2.46 11.25 7.8 11.25 1.55 0 3.45-.39 5.38-1.44 2.86-1.54 5.8-4.67 6.58-6.1.19-.32.25-.65.25-.91 0-.58-.25-1.03-.51-1.03-.07 0-.13.06-.2.12-2.09 2.08-5.65 4.55-8.45 4.55-3.84 0-5.59-3.77-5.59-8.25 0-1.17 0-1.83.52-1.9 2.28-.26 7.4-1.88 10.6-3.76 3.38-2.01 5.46-5.47 5.46-7.67 0-3.9-2.55-6.1-6.17-6.1zm-9.9 15.74c-.24 0-.24-.2-.24-.54 0-.84.76-4.09 1.87-6.43.85-1.82 2.02-3.57 2.92-4.22a5.42 5.42 0 012.68-.58c2.07 0 4.15 1.03 4.15 3.25 0 1.1-.45 2.4-1.23 3.17-2.53 2.61-8.64 5.35-10.14 5.35zm0 0"/></symbol><symbol overflow="visible" id="948bd1d6d"><path d="M11.25-31.27c-.53 0-.84 0-1.44.27-2.14.9-5.33 5.06-6.75 7.34-.65 1.04-.86 1.24-.86 1.88 0 .47.14 1.05.33 1.05.06 0 .27-.2.72-.66 1.5-1.55 3.58-3.56 4.88-4.34.12-.08.39-.2.51-.2.4 0 .53.32.53.71 0 .4-.33 2.66-1.04 6.17C7.01-13.78 4.8-5.39 4.8-2.08c0 2.2 2.35 3.52 3.77 3.52.78 0 1.83-.92 2.8-1.9 3.7-3.7 9.3-11.3 12.15-15.46.58-.85.72-1.11.78-1.11.13 0 .19.2.19.45 0 .85-.97 4.42-1.75 7.55-.72 2.92-1.44 5.9-1.44 7.53 0 2.16 1.83 3.13 3.33 3.13.97 0 1.42-.52 2.4-1.36a53.22 53.22 0 005.85-6.83C33.67-7.67 34-8.4 34-9.17c0-.58-.14-1.1-.45-1.1-.2 0-.53.52-1.77 1.82-1.69 1.82-3.83 4.03-4.55 4.03-.45 0-.65-.46-.65-1.17 0-.91.33-2.2.65-3.64 1.05-4.43 2.29-10 3.25-14.82.52-2.4 1.3-5.86 1.3-6.37 0-.58-1.48-.58-2.26-.58-1.24 0-2.68.19-2.8.58-.53 1.56-1.24 5.2-1.56 6.17-1.75 5.6-9.04 14.5-12.82 18.27-.45.45-1.3 1.43-1.87 1.43-.4 0-.53-.45-.53-.98 0-.7.33-2.27.6-3.5.96-4.42 2.46-10.6 3.37-15.22.65-3.38.84-4.22.84-5.06 0-1.38-1.88-1.96-3.5-1.96zm0 0"/></symbol><symbol overflow="visible" id="948bd1d6e"><path d="M8.97-34.7c-1.17 7.92-2.8 17.8-4.1 25.47-.39 2.34-.9 5.46-.9 7.42 0 2.33.51 3.17 2.47 3.17 1.1 0 2.26-.31 3.25-.84 2.86-1.57 5.51-5 6.83-7.14.12-.27.18-.54.18-.79 0-.53-.12-.9-.39-.9-.25 0-.51.31-1.68 1.36-1.5 1.3-3.32 3.12-4.22 3.12-.93 0-1.24-1.17-1.24-2.1 0-1.48.46-4.09.77-6.23 1.37-8.78 3.33-20.4 5.08-29.96.32-1.76.96-4.61.96-6.5 0-1.57-.3-1.88-1.42-1.88-1.89 0-4.23.64-8.39 1.42-.72.14-.84.78-.84 1.11 0 .4.26.52.51.52 1.32 0 3.33.26 3.79 1.23.18.4.3 1.17.3 2.08 0 2.47-.5 6.5-.96 9.44zm0 0"/></symbol><symbol overflow="visible" id="948bd1d6f"><path d="M1.9-11.7a21.3 21.3 0 00-.46 4.48c0 4.75 1.81 8.52 6.3 8.52 2.8 0 9.68-10.47 11.7-13 .25-.33.39-.46.51-.46.13 0 .2.13.2.33 0 .58-.71 3.05-1.04 4.61a32.6 32.6 0 00-.97 5.99C18.14.52 19.83 1.3 21 1.3c1.03 0 1.94-.25 4.1-2.27 2.13-2.01 5.26-6.31 5.32-8.06 0-.45-.33-.78-.6-.78-.05 0-.12 0-.18.06-1.17 1.5-4.03 5.14-5.6 5.14-.63 0-.84-.14-.84-.72 0-1.04.27-2.28.52-3.97 1.44-9.36 4.42-21.76 4.69-23.86 0-.18-1.05-.45-1.9-.45-1.35 0-1.42.72-2.01 1.95-.45.97-.9 1.83-1.63 1.83-.7 0-1.35-.2-2.26-.2-2.16 0-3.84.33-5.47 1.17C9.75-26 2.92-17.16 1.9-11.7zm5.32-4.43c1.1-3.18 3.25-6.3 6.17-8.43 1.23-.92 2.67-1.77 4.42-1.77s4.03.66 4.03 2.02c0 1.56-.65 5.78-1.62 7.67C17.82-12.1 11.5-4.7 9.17-4.7c-2.01 0-2.86-2.92-2.86-5.84 0-1.9.32-3.9.9-5.6zm0 0"/></symbol><symbol overflow="visible" id="948bd1d6h"><path d="M12.94-51.28c-.66 0-2.61.97-8.52 2.2-.6.14-.65.52-.65.9 0 .27.06.4.2.48.72.3 3.37.45 3.83.84.39.31.39.97.39 1.75 0 3.31-2.8 19.69-4.22 29.52-.45 2.86-1.05 6.95-1.05 9.21 0 4.94 2.67 7.68 6.9 7.68 3.57 0 7-2.47 8.77-3.97 5.13-4.4 9.88-11.77 9.88-18.06 0-3.52-.72-6.11-2.4-8.13a6.46 6.46 0 00-4.55-2.28c-3.64 0-10.72 10.02-11.7 11.52-.26.39-.34.45-.46.45-.13 0-.19-.27-.19-.6 0-.3.06-.84.19-1.42 1.83-7.67 2.73-15.8 4.16-23.92.53-2.92.71-3.7.71-4.3 0-.97-.51-1.87-1.3-1.87zM19.56-26c2.28 0 3.58 4.1 3.58 6.9 0 5.05-2.4 10.2-4.87 13.26-1.63 1.93-3.91 2.98-5.79 2.98C9.56-2.86 8-4.16 8-7.46c0-2.56.64-6.06 1.36-7.35C10.33-17.1 16.25-26 19.56-26zm0 0"/></symbol><symbol overflow="visible" id="948bd1d6j"><path d="M3.83 0v-5.95H6.2v-.82H.45v.82h2.4V0zm0 0"/></symbol><symbol overflow="visible" id="948bd1d6k"><path d="M5.75-2.23v-.43c0-1.6-.9-2.51-2.42-2.51S.87-4.16.87-2.48c0 1.71.91 2.62 2.5 2.62 1.43 0 2.07-.56 2.29-1.52l-.9-.09c-.18.61-.59.9-1.35.9-.94 0-1.52-.54-1.58-1.66zm-2.4-2.2c.93 0 1.43.5 1.48 1.55H1.84c.08-1.07.6-1.56 1.5-1.56zm0 0"/></symbol><symbol overflow="visible" id="948bd1d6l"><path d="M1.83 0l1.42-2h.06l1.46 2H5.8L4-2.53l1.78-2.49H4.8L3.42-3.08h-.08l-1.4-1.94H.89l1.78 2.49L.84 0zm0 0"/></symbol><symbol overflow="visible" id="948bd1d6m"><path d="M5.52-4.25v-.77H3.17v-1.56h-.81l-.14 1.56H.75v.77h1.47v2.4c0 1.3.48 1.94 1.84 1.94C4.6.1 5.14 0 5.55-.14L5.4-.91c-.32.13-.72.2-1.13.2-.8 0-1.1-.37-1.1-1.23v-2.31zm0 0"/></symbol><symbol overflow="visible" id="948bd1d6n"><path d="M3.33-3.42c.47 0 .8-.27.8-.8 0-.51-.33-.8-.8-.8-.47 0-.8.29-.8.8 0 .53.33.8.8.8zm0 3.5c.47 0 .8-.27.8-.78 0-.53-.33-.82-.8-.82-.47 0-.8.29-.8.82 0 .51.33.78.8.78zm0 0"/></symbol><symbol overflow="visible" id="948bd1d6p"><path d="M5.55 0v-.75H2.3v-.06l3.2-3.49v-.72H1.2v.75H4.3v.07L1.11-.72V0zm0 0"/></symbol><symbol overflow="visible" id="948bd1d6q"><path d="M2.73.14c.9 0 1.43-.45 1.74-1.08h.06l.13.94h.8v-5.02h-.94v2.7c0 .98-.57 1.62-1.46 1.62-.75 0-1.1-.4-1.1-1.22v-3.1h-.93v3.32c0 1.17.55 1.84 1.7 1.84zm0 0"/></symbol><symbol overflow="visible" id="948bd1d6r"><path d="M3.92-7.14H1.36v.76h1.6v5.61H1.15V0H5.7v-.77H3.92zm0 0"/></symbol><symbol overflow="visible" id="948bd1d6s"><path d="M2.83.14c.94 0 1.5-.39 1.81-.95h.08l.1.81h.76v-3.38c0-1.23-.69-1.8-2.13-1.8-1.43 0-2.03.65-2.18 1.6l.93.1c.11-.6.44-.93 1.22-.93.85 0 1.22.32 1.22 1.04v.34l-1.81.2C1.6-2.7 1.1-2.17 1.1-1.28c0 .92.64 1.42 1.72 1.42zm.25-.77c-.67 0-1.02-.28-1.02-.74 0-.44.28-.72 1-.82l1.58-.19v.41c0 .8-.6 1.34-1.56 1.34zm0 0"/></symbol><symbol overflow="visible" id="948bd1d6t"><path d="M3.9.14c1.48 0 2.18-.98 2.18-2.64 0-1.67-.7-2.66-2.17-2.66-.91 0-1.49.41-1.79 1h-.06v-2.98h-.95V0h.81l.11-.9h.06c.29.63.82 1.04 1.82 1.04zm-.32-.8c-1.08 0-1.55-.8-1.55-1.84 0-1.06.47-1.86 1.55-1.86 1.1 0 1.51.61 1.51 1.86S4.64-.66 3.58-.66zm0 0"/></symbol><symbol overflow="visible" id="948bd1d6u"><path d="M5.95-6.77H1.1V0h.99v-2.92H5.3v-.77H2.08v-2.26h3.87zm0 0"/></symbol><symbol overflow="visible" id="948bd1d6v"><path d="M5.08-5.16c-.94 0-1.58.43-1.9 1.3h-.09l-.07-1.16H1.05v.77h1.1v3.48H.96V0h3.96v-.77H3.1v-1.46c0-1.36.6-2.05 1.83-2.05.4 0 .76.08 1.1.17l.15-.87c-.33-.11-.7-.18-1.11-.18zm0 0"/></symbol><symbol overflow="visible" id="948bd1d6w"><path d="M1.9 0v-3.03h2.87V0h.98v-6.77h-.98v2.91H1.9v-2.9H.92V0zm0 0"/></symbol><symbol overflow="visible" id="948bd1d6x"><path d="M3.58-5.81c.42 0 .72-.22.72-.67 0-.44-.3-.68-.72-.68-.44 0-.72.24-.72.68 0 .45.28.67.72.67zm.5.8H1.52v.76h1.6v3.48h-1.8V0h4.46v-.77h-1.7zm0 0"/></symbol><symbol overflow="visible" id="948bd1d6y"><path d="M3.36.16c1.4 0 2.2-.6 2.2-1.57 0-.89-.54-1.22-1.47-1.39L3-3c-.67-.14-.86-.33-.86-.73 0-.5.4-.74 1.17-.74.83 0 1.19.27 1.27.8l.9-.05c-.12-1-.8-1.47-2.17-1.47-1.34 0-2.1.53-2.1 1.5 0 .81.45 1.22 1.52 1.44l1.04.2c.56.11.87.24.87.72 0 .52-.45.78-1.28.78-.95 0-1.36-.28-1.42-.87l-.9.06C1.07-.36 1.8.16 3.35.16zm0 0"/></symbol><symbol overflow="visible" id="948bd1d6z"><path d="M3.33.14c1.62 0 2.5-.95 2.5-2.66 0-1.68-.88-2.64-2.5-2.64-1.63 0-2.5.96-2.5 2.64 0 1.7.87 2.66 2.5 2.66zm0-.77c-1.06 0-1.52-.6-1.52-1.89 0-1.28.46-1.87 1.52-1.87 1.08 0 1.53.6 1.53 1.87 0 1.29-.45 1.9-1.53 1.9zm0 0"/></symbol><symbol overflow="visible" id="948bd1d6A"><path d="M3.34.14c1.43 0 2.13-.66 2.25-1.78l-.89-.1c-.1.7-.5 1.08-1.34 1.08-1.03 0-1.52-.64-1.52-1.84 0-1.23.47-1.86 1.52-1.86.84 0 1.23.36 1.34 1.08l.9-.1c-.13-1.09-.82-1.78-2.26-1.78-1.56 0-2.46.97-2.46 2.66 0 1.66.9 2.64 2.46 2.64zm0 0"/></symbol><symbol overflow="visible" id="948bd1d6B"><path d="M2.44 0l.87-3.31h.06L4.25 0H5.3l1.03-5.02h-.88l-.73 3.94h-.08L3.77-4.4h-.85l-.87 3.33h-.08l-.75-3.94H.34L1.36 0zm0 0"/></symbol><symbol overflow="visible" id="948bd1d6C"><path d="M2.16 0v-2.69c0-.98.6-1.6 1.46-1.6.74 0 1.07.4 1.07 1.2V0h.95v-3.31c0-1.17-.56-1.85-1.67-1.85-.9 0-1.44.46-1.75 1.08h-.06v-3.06H1.2V0zm0 0"/></symbol><symbol overflow="visible" id="948bd1d6D"><path d="M1.45-2.95c0 2.56 1.08 4.37 3.67 4.84l.11-.67C3.28.86 2.43-.75 2.43-2.95s.85-3.82 2.8-4.16l-.1-.69c-2.6.49-3.68 2.3-3.68 4.85zm0 0"/></symbol><symbol overflow="visible" id="948bd1d6E"><path d="M3.33.14c1.65 0 2.6-1.1 2.6-3.52S4.99-6.9 3.34-6.9C1.67-6.9.72-5.8.72-3.37c0 2.4.95 3.51 2.6 3.51zm0-.84c-1.13 0-1.6-.85-1.6-2.67 0-1.86.47-2.7 1.6-2.7 1.12 0 1.6.84 1.6 2.7 0 1.82-.48 2.67-1.6 2.67zM3.3-2.64c.38 0 .56-.28.56-.72 0-.44-.18-.7-.56-.7-.39 0-.56.26-.56.7 0 .44.17.72.56.72zm0 0"/></symbol><symbol overflow="visible" id="948bd1d6F"><path d="M5.67 0v-.86H2.14V-.9L3.6-2c1.05-.83 2-1.68 2-2.91 0-1.19-.73-1.99-2.26-1.99-1.66 0-2.3 1.02-2.44 2.33l1 .08c.1-.92.42-1.58 1.44-1.58.87 0 1.26.44 1.26 1.24 0 .9-.8 1.53-1.96 2.53L.83-.81V0zm0 0"/></symbol><symbol overflow="visible" id="948bd1d6G"><path d="M3.34-1.56c-.54 0-.82.31-.82.86 0 .5.3.78.76.78-.08.4-.34.95-.65 1.39l.53.25c.57-.67 1-1.67 1-2.36 0-.6-.3-.92-.82-.92zm0 0"/></symbol><symbol overflow="visible" id="948bd1d6H"><path d="M2.16 0v-2.67c0-.99.59-1.63 1.46-1.63.74 0 1.07.38 1.07 1.22V0h.95v-3.31c0-1.2-.56-1.85-1.67-1.85-.92 0-1.49.46-1.77 1.08h-.06l-.12-.94H1.2V0zm0 0"/></symbol><symbol overflow="visible" id="948bd1d6I"><path d="M3.42-.86h-.08L1.77-5.02H.8L2.73 0h.41c-.33.95-.72 1.27-1.45 1.27-.22 0-.49-.04-.69-.08l-.1.73c.2.06.58.11.87.11 1.2 0 1.7-.7 2.21-2.03l1.94-5.02H5zm0 0"/></symbol><symbol overflow="visible" id="948bd1d6J"><path d="M1.45-7.1c1.96.33 2.8 1.94 2.8 4.15 0 2.2-.84 3.8-2.8 4.17l.11.67c2.58-.47 3.67-2.28 3.67-4.84 0-2.55-1.09-4.36-3.67-4.85zm0 0"/></symbol></defs><use xlink:href="#948bd1d6a" x="120.3075" y="153.5" fill="#515151"/><use xlink:href="#948bd1d6b" x="146.1775" y="153.5" fill="#515151"/><use xlink:href="#948bd1d6c" x="171.9175" y="153.5" fill="#fff"/><g fill="#515151"><use xlink:href="#948bd1d6d" x="199.5425" y="153.5"/><use xlink:href="#948bd1d6e" x="235.3575" y="153.5"/><use xlink:href="#948bd1d6f" x="252.9725" y="153.5"/><use xlink:href="#948bd1d6g" x="284.6925" y="153.5"/><use xlink:href="#948bd1d6h" x="304.1925" y="153.5"/><use xlink:href="#948bd1d6b" x="334.4825" y="153.5"/></g><g fill="#515151"><use xlink:href="#948bd1d6e" x="358.5975" y="153.5"/><use xlink:href="#948bd1d6b" x="376.2125" y="153.5"/></g><use xlink:href="#948bd1d6i" x="401.9525" y="153.5" fill="#fff"/><use xlink:href="#948bd1d6f" x="447.9725" y="153.5" fill="#515151"/><g fill="#fff"><use xlink:href="#948bd1d6j" x="233.3333" y="252"/><use xlink:href="#948bd1d6k" x="240.0003" y="252"/><use xlink:href="#948bd1d6l" x="246.6673" y="252"/><use xlink:href="#948bd1d6m" x="253.3343" y="252"/><use xlink:href="#948bd1d6n" x="260.0013" y="252"/><use xlink:href="#948bd1d6o" x="266.6683" y="252"/><use xlink:href="#948bd1d6p" x="273.3353" y="252"/><use xlink:href="#948bd1d6k" x="280.0023" y="252"/><use xlink:href="#948bd1d6p" x="286.6693" y="252"/><use xlink:href="#948bd1d6q" x="293.3363" y="252"/><use xlink:href="#948bd1d6r" x="300.0033" y="252"/><use xlink:href="#948bd1d6s" x="306.6703" y="252"/><use xlink:href="#948bd1d6o" x="313.3373" y="252"/><use xlink:href="#948bd1d6t" x="320.0043" y="252"/><use xlink:href="#948bd1d6k" x="326.6713" y="252"/><use xlink:href="#948bd1d6r" x="333.3383" y="252"/><use xlink:href="#948bd1d6k" x="340.0053" y="252"/><use xlink:href="#948bd1d6p" x="346.6723" y="252"/><use xlink:href="#948bd1d6p" x="353.3393" y="252"/><use xlink:href="#948bd1d6s" x="360.0063" y="252"/></g><g fill="#fff"><use xlink:href="#948bd1d6u" x="143.3333" y="266"/><use xlink:href="#948bd1d6k" x="150.0003" y="266"/><use xlink:href="#948bd1d6s" x="156.6673" y="266"/><use xlink:href="#948bd1d6m" x="163.3343" y="266"/><use xlink:href="#948bd1d6q" x="170.0013" y="266"/><use xlink:href="#948bd1d6v" x="176.6683" y="266"/><use xlink:href="#948bd1d6k" x="183.3353" y="266"/><use xlink:href="#948bd1d6n" x="190.0023" y="266"/><use xlink:href="#948bd1d6o" x="196.6693" y="266"/><use xlink:href="#948bd1d6w" x="203.3363" y="266"/><use xlink:href="#948bd1d6x" x="210.0033" y="266"/><use xlink:href="#948bd1d6y" x="216.6703" y="266"/><use xlink:href="#948bd1d6m" x="223.3373" y="266"/><use xlink:href="#948bd1d6z" x="230.0043" y="266"/><use xlink:href="#948bd1d6v" x="236.6713" y="266"/><use xlink:href="#948bd1d6x" x="243.3383" y="266"/><use xlink:href="#948bd1d6A" x="250.0053" y="266"/><use xlink:href="#948bd1d6s" x="256.6723" y="266"/><use xlink:href="#948bd1d6r" x="263.3393" y="266"/><use xlink:href="#948bd1d6o" x="270.0063" y="266"/><use xlink:href="#948bd1d6y" x="276.6733" y="266"/><use xlink:href="#948bd1d6B" x="283.3403" y="266"/><use xlink:href="#948bd1d6s" x="290.0073" y="266"/><use xlink:href="#948bd1d6y" x="296.6743" y="266"/><use xlink:href="#948bd1d6C" x="303.3413" y="266"/><use xlink:href="#948bd1d6k" x="310.0083" y="266"/><use xlink:href="#948bd1d6y" x="316.6753" y="266"/><use xlink:href="#948bd1d6o" x="323.3423" y="266"/><use xlink:href="#948bd1d6D" x="330.0093" y="266"/><use xlink:href="#948bd1d6y" x="336.6763" y="266"/><use xlink:href="#948bd1d6y" x="343.3433" y="266"/><use xlink:href="#948bd1d6E" x="350.0103" y="266"/><use xlink:href="#948bd1d6F" x="356.6773" y="266"/><use xlink:href="#948bd1d6G" x="363.3443" y="266"/><use xlink:href="#948bd1d6o" x="370.0113" y="266"/><use xlink:href="#948bd1d6x" x="376.6783" y="266"/><use xlink:href="#948bd1d6m" x="383.3453" y="266"/><use xlink:href="#948bd1d6s" x="390.0123" y="266"/><use xlink:href="#948bd1d6r" x="396.6793" y="266"/><use xlink:href="#948bd1d6x" x="403.3463" y="266"/><use xlink:href="#948bd1d6A" x="410.0133" y="266"/><use xlink:href="#948bd1d6o" x="416.6803" y="266"/><use xlink:href="#948bd1d6z" x="423.3473" y="266"/><use xlink:href="#948bd1d6H" x="430.0143" y="266"/><use xlink:href="#948bd1d6r" x="436.6813" y="266"/><use xlink:href="#948bd1d6I" x="443.3483" y="266"/><use xlink:href="#948bd1d6J" x="450.0153" y="266"/></g></svg>