<?xml version='1.0' encoding='UTF-8'?>
<svg xmlns="http://www.w3.org/2000/svg" xmlns:xlink="http://www.w3.org/1999/xlink" width="600px" height="300px" viewBox="0 0 600 300" x="0px" y="0px" enable-background="new 0 0 600 300"><defs><symbol overflow="visible" id="ddcfaf2fa"><path d="M10.27.06c4.36 0 5.01.2 7.48.2.19 0 .25 0 .4-.14.12-.12.83-1.68.83-2.14 0-.12 0-.18-.59-.26-2.27-.25-4.81-.58-5-1.63-.06-.45-.06-.84-.06-1.68.12-5.4.72-21.7 1.81-31.2.14-.91.2-2.21.2-2.21h.07c.57 1.95 1.3 3.52 1.95 5.45 2.53 7.36 6.3 16.07 9.55 24.97C28.98-2.92 29.58.66 30.03.66c.27 0 2.2-.27 2.53-1.11.78-2.47 1.5-4.61 3.31-8.9 3.79-8.85 9.24-17.88 12.43-26.34.58-1.56.64-2.14.72-2.47.06 0 .18 0 .18.13 0 9.89.6 17.81.6 32.76 0 2.08-1.96 3.13-6.05 3.64-.53.07-.66.13-.72.27a3.6 3.6 0 00-.45 1.69c0 .25.12.33.25.33.65 0 5.01-.54 10.73-.54 4.67 0 6.69.27 7.14.27.14 0 .27-.06.4-.27a6.7 6.7 0 00.77-2.32c0-.14-.12-.2-.24-.2-3.79-.07-5.93-.07-5.99-2.87-.2-13.57-.97-22.62-1.05-33.46 0-2.35.14-3.2 5.6-3.97.45-.07.65-.13.72-.27.32-.58.57-1.48.57-2.2 0-.14-.18-.14-.45-.14-5.45.08-7.14.65-13.51.65-.33 0-.4.27-.46.78a24.2 24.2 0 01-.84 4.7c-2.47 7.65-8.27 18.05-12.94 27.15-.26.53-.45.84-.6.84-.12 0-.18-.12-.3-.37-3.07-6.38-6.26-14.96-9.18-24.46a80.33 80.33 0 01-2.26-8.04c-.08-.4-.2-.47-.33-.47-.53 0-5.02-.13-8.66-.25-2.72-.06-5.78-.33-6.36-.33-.14 0-.26 0-.39.27-.14.18-.6 1.48-.6 2.07 0 .13 0 .2.67.25 1.62.2 3.25.46 3.82.66a4.16 4.16 0 012.61 4.03c0 1.95-1.89 25.4-2.53 32.11-.26 2.4-1.89 2.86-4.48 3.58-.47.12-.53.19-.66.39-.2.25-.72 1.63-.72 2.02 0 .12.2.18.33.18C5.84.4 8.45.06 10.27.06zm0 0"/></symbol><symbol overflow="visible" id="ddcfaf2fb"><path d="M13.9-44.92c-3.5 0-7.28-.25-8.37-.25-.08 0-.2 0-.33.12a3.98 3.98 0 00-.72 1.83c0 .13.07.19.4.25 4.42.72 6.1.99 6.23 3.06.14 2.14.14 5.13.14 11.7 0 19.5 0 21.44-.27 22.68C10.6-3.52 9.3-2.6 6.18-2.2c-.52.06-.59.12-.73.25A5.1 5.1 0 004.81.06c0 .13.19.2.33.2.4 0 3.9-.2 7.47-.26 3.19 0 7.73 0 10.08.06.12 0 .33 0 .45-.18.19-.27.72-1.18.72-1.83 0-.07 0-.13-.33-.2-3.25-.65-5.08-.83-5.47-1.29-.76-.78-.84-11.37-.84-16.97 0-17.03 0-17.42.26-20.4.13-1.7 3.32-1.63 5.2-1.9.46-.06.52-.12.65-.26.26-.25.78-1.56.78-2.08 0-.12-.13-.18-.25-.18-1.38 0-7.1.3-9.95.3zm8.07-16.31c-.19 0-.58.2-1.5.92-2.66 2.26-7.74 7.14-9.75 9.6-.64.73-.85 1.18-.85 1.38 0 .58.46.7.79.7.26 0 .98-.39 1.89-.9 3.3-1.75 10.32-5.84 12.54-7.53.25-.14.33-.33.33-.6 0-1.23-2.01-3.57-3.45-3.57zm0 0"/></symbol><symbol overflow="visible" id="ddcfaf2fd"><path d="M10.8-38.81c.06 3.58.12 7.42.12 12.03 0 9.48-.33 19.62-.51 22.48-.14 1.38-2.16 1.9-4.18 2.16-.45.06-.51.19-.57.25A5.17 5.17 0 004.94.27c0 .12.26.25.33.25.65 0 1.68-.4 7.21-.46 2.93-.06 5.79 0 7.99-.12.2 0 .26-.07.39-.2.6-.65.84-1.7.84-2.15 0-.06-.12-.12-.25-.12-.2 0-1.04.06-1.43.06-2.72 0-4.29-.78-4.49-1.69-.25-1.3-.78-13.9-.78-30.62 0-.52.06-2.08.33-2.08.12 0 .33 0 .9.78 5.93 7.4 16.13 17.81 23.35 25.36 5.39 5.66 7.73 9.81 9.15 11.9.2.26.27.32.4.32.45 0 1.95-.4 2.15-.78a5.5 5.5 0 00.31-2.28c0-1.24-.18-2.27-.18-10.86 0-9.49.51-16.44 1.03-25.8.2-3.25 2.48-3.97 5.2-4.36.45-.06.6-.19.66-.25.26-.26.78-1.7.78-2.22 0-.12-.14-.18-.33-.18-2.34 0-7.28.3-8.52.3-2.53 0-6.56-.3-7.15-.3-.13 0-.19.06-.25.12-.2.19-.66 1.11-.66 1.95 0 .07 0 .13.2.2 4.04 1.04 5.46.84 5.58 3.5.14 2.93.2 4.82.2 6.96 0 4.88-.26 9.42-.26 15.6 0 3.5.06 4.48.06 4.87 0 .53-.12.6-.25.6-.06 0-.2-.07-.45-.34-6.31-6.76-22.63-23.4-29.52-31.84-1.04-1.23-1.42-1.37-2.34-1.37-4.67 0-8.7-.33-10.2-.33-.19 0-.25.08-.33.14-.45.51-1.1 1.62-1.1 2.34 0 .13 0 .19.32.25 4.17.66 6.97 1.63 6.97 3.77zm0 0"/></symbol><symbol overflow="visible" id="ddcfaf2ff"><path d="M38.1.4c.5 0 2.2-.4 7.27-.4 2.33 0 4.49.06 5.85.06.66 0 1.05 0 1.3-.12.26-.13 1.17-1.05 1.17-1.56 0-.27-.13-.33-.4-.33-1.41 0-4.15-.25-5.32-.64-.33-.14-.45-.27-.45-1.57 0-5.07.78-8.39.78-16.9 0-2.27-.52-4.22-1.36-5.66a6.63 6.63 0 00-5.47-3.37c-3.64 0-9.42 3.76-11.5 5.39-.72-3.44-4.1-5.6-5.99-5.6-4.03 0-10.32 4.24-11.04 4.57-.13.06-.2.06-.27.06-.12 0-.19-.27-.19-.66 0-1.75.33-3.58.33-4.15 0-.33-.47-1.05-1.04-1.05-.46 0-2.54 1.37-8.07 3.06-.78.27-1.3 1.75-1.3 1.9 0 .18.13.38.33.38.4 0 3.96.13 4.16.97.27.97.52 5.72.52 10.86 0 3.44-.2 7.02-.46 9.75-.12 1.42-.26 2.14-2.4 3.11C3.97-1.23 3.52.19 3.52.33c0 .12.12.25.39.25 1.03 0 2.26-.52 7.73-.52 1.36 0 2.47.07 3.17.07.6 0 .92-.07 1.17-.2.66-.32 1.24-.98 1.24-1.55 0-.13-.06-.27-.25-.27-1.69 0-4.03-.4-4.36-.52-.27-.12-.4-.18-.4-2.92 0-7.15.79-18 1.06-18.6.39-.77 3.56-2.4 6.1-2.4 5.79 0 5.91 7.02 5.91 11.25 0 4.49-.51 8.97-.9 10.99-.33 1.62-2.29 2.2-2.93 2.4-.51.13-.9 1.56-.9 1.75 0 .2.12.33.25.33.39 0 1.76-.39 5.53-.39 2.34 0 4.87.13 6.05.13.45 0 .78 0 .9-.07.27-.06 1.17-.9 1.17-1.56 0-.19-.06-.31-.33-.31-1.43 0-3.57-.47-3.9-.6-.31-.12-.4-.18-.4-1.62 0-4.81.66-8.9.66-14.36 0-2.67-.12-3.9-.12-4.36 0-.72 3.64-3.13 6.69-3.13 1.95 0 4.42 1.24 5.08 3.13.51 1.63.7 4.22.7 7.08 0 4.17-.4 8.78-.97 11.51-.33 1.63-2.4 2.14-3.13 2.47-.57.25-.84 1.63-.84 1.75 0 .27.06.33.2.33zm0 0"/></symbol><symbol overflow="visible" id="ddcfaf2fg"><path d="M4.6-1.5c-.63.27-.9 1.56-.9 1.83 0 .12.27.25.46.25.53 0 3.57-.58 8.39-.58 1.62 0 2.86.06 3.57.06.4 0 .79-.06 1.04-.25.65-.53 1.04-1.17 1.04-1.56 0-.14-.06-.27-.2-.27-1.75 0-4.28-.51-4.6-.65-.28-.13-.4-.19-.4-2.92 0-22.75.97-22.61.97-25.29 0-.26-.45-1.04-.97-1.04-.58 0-2.28 1.56-8.64 3.84-.45.13-1.3 1.36-1.3 2.14 0 .27.06.33.19.33.52 0 1.9-.27 2.92-.27.72 0 1.24.15 1.38.54.25.96.51 5.78.51 10.9C8.06-11.7 8-8.9 7.8-6.5c-.25 2.6.14 3.64-3.2 5zm7.82-48.1c-.86 1.63-6.89 14.57-6.89 15.66 0 .33.4.53.64.53.33 0 .46-.06.85-.45.59-.66 10.07-12.42 10.07-13.78 0-.98-2.01-2.67-3.51-2.67-.58 0-.9.2-1.16.72zm0 0"/></symbol><symbol overflow="visible" id="ddcfaf2fi"><path d="M3.83.58c.72 0 2.34-.52 7.81-.52 1.36 0 2.47.07 3.25.07.58 0 .84-.07 1.03-.13.4-.13 1.3-1.1 1.3-1.5 0-.4-.13-.52-.31-.52-1.77 0-4.18-.32-4.49-.45-.26-.12-.39-.2-.39-2.92 0-7.16.9-18.14 1.16-18.72.39-.78 3.9-2.16 6.37-2.16 2.92 0 5 2.08 5.53 4.75.25 1.36.4 3.38.4 5.72 0 4.03-.4 8.85-1.05 11.77-.4 1.62-2.2 2.14-2.92 2.34-.66.19-1.05 1.5-1.05 1.69 0 .19.14.33.26.33.52 0 1.9-.4 6.83-.4 2.47 0 4.75.07 6.17.07.72 0 1.24 0 1.44-.06.31-.07.97-.99 1.03-1.44 0-.13 0-.45-.18-.45-2.94-.07-4.49-.25-5.33-.58-.33-.14-.53-.27-.53-1.77 0-4.54.78-10.06.78-15.01 0-1.94-.13-3.77-.46-5.4-.57-2.85-3.7-5.38-6.43-5.38-4.74 0-10.93 4.48-11.38 4.48-.19 0-.19-.27-.19-.66 0-1.48.33-3.89.33-4.28 0-.32-.78-.98-1.31-.98-.13 0-.19 0-.58.26a45.88 45.88 0 01-7.22 3.64c-.78.33-1.3 2.15-1.3 2.35 0 .19.13.33.27.33 1.24 0 2.66-.33 3.17-.33.6 0 .99.12 1.05.51.13 1.05.4 5.6.4 10.6 0 3.31-.07 6.76-.4 9.48-.12 1.38-.39 2.35-2.47 3.07-.6.18-1.04 1.8-1.04 1.95 0 .12.14.25.45.25zm0 0"/></symbol><symbol overflow="visible" id="ddcfaf2fc"><path d="M11.77-45.05c-4.88 0-6.24-.06-6.96-.06a.37.37 0 00-.33.19 3.3 3.3 0 00-.57 1.7c0 .19.06.25.84.4.97.12 3.38.5 4.22.84.9.3 1.5.9 1.62 1.93.13 1.17.13 11.77.13 24.13 0 3.64.08 6.17.08 8.7 0 5.53-1.24 10.74-4.43 13.53C4.81 7.67 3.7 7.67 3.44 7.8c-.19.14-.19.39-.19.6 0 .57.72 1.87 1.23 1.87.4 0 7.8-3.64 11.25-10.08 1.04-1.94 1.24-4.55 1.24-7.14 0-7.94-.2-15.02-.2-21 0-5 0-8.9.32-12.02.27-2.28 2.68-2.6 4.1-2.8.45-.06.6-.14.72-.26.39-.4.9-1.5.9-1.95 0-.13-.18-.25-.33-.25-.57 0-4.48.18-10.71.18zm9.48-16.18c-.19 0-.58.2-1.48.92-2.68 2.26-7.74 7.14-9.75 9.6-.66.73-.85 1.18-.85 1.38 0 .58.46.7.77.7.26 0 .98-.39 1.89-.9 3.31-1.75 10.34-5.84 12.54-7.53.27-.14.33-.33.33-.6 0-1.23-2.01-3.57-3.45-3.57zm0 0"/></symbol><symbol overflow="visible" id="ddcfaf2fh"><path d="M3.77-28.14c-.58.25-1.3 1.42-1.3 2.02 0 .18.12.25.26.25 3.58 0 4.61.06 4.94.65.13.27.27.9.27 1.95 0 1.49-.27 5.27-.27 7.35 0 6.23.4 12.54.4 18 0 9.3-1.12 16.25-7.74 16.25-.6 0-1.24-.06-2.08-.19-.2 0-.27.19-.27.31 0 1.24 2.74 2.22 4.7 2.22 1.93 0 3.94-.72 5.18-1.62 4.62-3.52 5.2-11.11 5.2-23.86 0-4.82-.12-9.69-.12-14.5 0-9.1.64-10.85.64-11.57 0-.39-.52-1.04-.97-1.04-.19 0-.33.14-.72.33-2.8 1.56-7.34 3.06-8.12 3.45zm8.96-21.45c-.84 1.62-6.89 14.56-6.89 15.65 0 .33.4.53.66.53.33 0 .45-.06.84-.45.6-.66 10.08-12.42 10.08-13.78 0-.98-2.01-2.67-3.51-2.67-.58 0-.91.2-1.18.72zm0 0"/></symbol><symbol overflow="visible" id="ddcfaf2fj"><path d="M3.83 0v-5.95H6.2v-.82H.45v.82h2.4V0zm0 0"/></symbol><symbol overflow="visible" id="ddcfaf2fk"><path d="M5.75-2.23v-.43c0-1.6-.9-2.51-2.42-2.51S.87-4.16.87-2.48c0 1.71.91 2.62 2.5 2.62 1.43 0 2.07-.56 2.29-1.52l-.9-.09c-.18.61-.59.9-1.35.9-.94 0-1.52-.54-1.58-1.66zm-2.4-2.2c.93 0 1.43.5 1.48 1.55H1.84c.08-1.07.6-1.56 1.5-1.56zm0 0"/></symbol><symbol overflow="visible" id="ddcfaf2fl"><path d="M1.83 0l1.42-2h.06l1.46 2H5.8L4-2.53l1.78-2.49H4.8L3.42-3.08h-.08l-1.4-1.94H.89l1.78 2.49L.84 0zm0 0"/></symbol><symbol overflow="visible" id="ddcfaf2fm"><path d="M5.52-4.25v-.77H3.17v-1.56h-.81l-.14 1.56H.75v.77h1.47v2.4c0 1.3.48 1.94 1.84 1.94C4.6.1 5.14 0 5.55-.14L5.4-.91c-.32.13-.72.2-1.13.2-.8 0-1.1-.37-1.1-1.23v-2.31zm0 0"/></symbol><symbol overflow="visible" id="ddcfaf2fn"><path d="M3.33-3.42c.47 0 .8-.27.8-.8 0-.51-.33-.8-.8-.8-.47 0-.8.29-.8.8 0 .53.33.8.8.8zm0 3.5c.47 0 .8-.27.8-.78 0-.53-.33-.82-.8-.82-.47 0-.8.29-.8.82 0 .51.33.78.8.78zm0 0"/></symbol><symbol overflow="visible" id="ddcfaf2fp"><path d="M1.64 0v-3.17l-.16-2.5h.1L2.9-1.83h.82l1.35-3.84h.1l-.16 2.5V0h.95v-6.77h-1.3l-1.3 3.82h-.09L2-6.77H.69V0zm0 0"/></symbol><symbol overflow="visible" id="ddcfaf2fq"><path d="M3.7-7.31l1.32-1.82h-.97L2.95-7.3zm.13 1.34h1.73v-.8H1.1v.8h1.75v5.19H1.1V0h4.47v-.78H3.83zm0 0"/></symbol><symbol overflow="visible" id="ddcfaf2fr"><path d="M5.56-6.77h-3.8v.83h2.82v3.44c0 1.23-.28 1.81-1.36 1.81-.94 0-1.24-.48-1.33-1.3l-.03-.15-.92.1.01.18c.13 1.25.78 2 2.28 2 1.7 0 2.33-.86 2.33-2.64zm0 0"/></symbol><symbol overflow="visible" id="ddcfaf2fs"><path d="M1.84 0v-4.48l-.06-.99h.1L4.46 0h1.28v-6.77h-.92v4.4l.06 1.03h-.1L2.21-6.77H.92V0zm0 0"/></symbol><symbol overflow="visible" id="ddcfaf2ft"><path d="M1.63 0v-2.9c0-.8.15-1.4.71-1.4.41 0 .55.3.55.88V0h.95v-2.9c0-.8.18-1.4.72-1.4.4 0 .57.3.57.88V0h.95v-3.63c0-.92-.28-1.53-1.11-1.53-.63 0-.95.41-1.1.9h-.06c-.1-.52-.44-.9-1.08-.9-.6 0-.93.41-1.06.9H1.6l-.23-.76H.67V0zm0 0"/></symbol><symbol overflow="visible" id="ddcfaf2fu"><path d="M4.17-7.8l-1.1 2.08h.76L5.14-7.8zm-.1 2.78H1.53v.77h1.6v3.48h-1.8V0h4.46v-.77h-1.7zm0 0"/></symbol><symbol overflow="visible" id="ddcfaf2fv"><path d="M4.14-7.16c-.44 0-.72.24-.72.68 0 .45.28.67.72.67.42 0 .72-.22.72-.67 0-.44-.3-.68-.72-.68zm-2.8 2.14v.77h2.33v4.16c0 .95-.36 1.28-1.28 1.28-.4 0-.89-.08-1.23-.22l-.22.78c.42.17 1.1.28 1.6.28 1.55 0 2.08-.67 2.08-2.1v-4.95zm0 0"/></symbol><symbol overflow="visible" id="ddcfaf2fw"><path d="M2.16 0v-2.67c0-.99.59-1.63 1.46-1.63.74 0 1.07.38 1.07 1.22V0h.95v-3.31c0-1.2-.56-1.85-1.67-1.85-.92 0-1.49.46-1.77 1.08h-.06l-.12-.94H1.2V0zm0 0"/></symbol><symbol overflow="visible" id="ddcfaf2fx"><path d="M5.95-6.77H1.1V0h.99v-2.92H5.3v-.77H2.08v-2.26h3.87zm0 0"/></symbol><symbol overflow="visible" id="ddcfaf2fy"><path d="M2.83.14c.94 0 1.5-.39 1.81-.95h.08l.1.81h.76v-3.38c0-1.23-.69-1.8-2.13-1.8-1.43 0-2.03.65-2.18 1.6l.93.1c.11-.6.44-.93 1.22-.93.85 0 1.22.32 1.22 1.04v.34l-1.81.2C1.6-2.7 1.1-2.17 1.1-1.28c0 .92.64 1.42 1.72 1.42zm.25-.77c-.67 0-1.02-.28-1.02-.74 0-.44.28-.72 1-.82l1.58-.19v.41c0 .8-.6 1.34-1.56 1.34zm0 0"/></symbol><symbol overflow="visible" id="ddcfaf2fz"><path d="M2.73.14c.9 0 1.43-.45 1.74-1.08h.06l.13.94h.8v-5.02h-.94v2.7c0 .98-.57 1.62-1.46 1.62-.75 0-1.1-.4-1.1-1.22v-3.1h-.93v3.32c0 1.17.55 1.84 1.7 1.84zm0 0"/></symbol><symbol overflow="visible" id="ddcfaf2fA"><path d="M5.08-5.16c-.94 0-1.58.43-1.9 1.3h-.09l-.07-1.16H1.05v.77h1.1v3.48H.96V0h3.96v-.77H3.1v-1.46c0-1.36.6-2.05 1.83-2.05.4 0 .76.08 1.1.17l.15-.87c-.33-.11-.7-.18-1.11-.18zm0 0"/></symbol><symbol overflow="visible" id="ddcfaf2fB"><path d="M.92-6.77V0h2.11c2.03 0 3.03-1.03 3.03-3.36 0-2.39-1.01-3.4-2.93-3.4zM1.91-.8v-5.17h1.18c1.29 0 1.96.63 1.96 2.61 0 1.94-.67 2.56-1.96 2.56zm0 0"/></symbol><symbol overflow="visible" id="ddcfaf2fC"><path d="M3.34.14c1.43 0 2.13-.66 2.25-1.78l-.89-.1c-.1.7-.5 1.08-1.34 1.08-1.03 0-1.52-.64-1.52-1.84 0-1.23.47-1.86 1.52-1.86.84 0 1.23.36 1.34 1.08l.9-.1c-.13-1.09-.82-1.78-2.26-1.78-1.56 0-2.46.97-2.46 2.66 0 1.66.9 2.64 2.46 2.64zm0 0"/></symbol><symbol overflow="visible" id="ddcfaf2fD"><path d="M2.16 0v-2.69c0-.98.6-1.6 1.46-1.6.74 0 1.07.4 1.07 1.2V0h.95v-3.31c0-1.17-.56-1.85-1.67-1.85-.9 0-1.44.46-1.75 1.08h-.06v-3.06H1.2V0zm0 0"/></symbol><symbol overflow="visible" id="ddcfaf2fE"><path d="M3.38-5.9c.12-.5.42-1.04.67-1.41l-.63-.22a4.28 4.28 0 00-1.01 2.39c0 .66.3 1 .9 1 .6 0 .9-.33.9-.9 0-.57-.32-.83-.83-.85zm0 0"/></symbol><symbol overflow="visible" id="ddcfaf2fF"><path d="M3.58-5.81c.42 0 .72-.22.72-.67 0-.44-.3-.68-.72-.68-.44 0-.72.24-.72.68 0 .45.28.67.72.67zm.5.8H1.52v.76h1.6v3.48h-1.8V0h4.46v-.77h-1.7zm0 0"/></symbol><symbol overflow="visible" id="ddcfaf2fG"><path d="M3.3-7.53c-.55 0-.85.3-.85.84 0 .55.36.8.83.8h.03a5.1 5.1 0 01-.69 1.47l.52.23a4.29 4.29 0 001.02-2.4c0-.63-.33-.94-.86-.94zm0 0"/></symbol><symbol overflow="visible" id="ddcfaf2fH"><path d="M2.44 0l.87-3.31h.06L4.25 0H5.3l1.03-5.02h-.88l-.73 3.94h-.08L3.77-4.4h-.85l-.87 3.33h-.08l-.75-3.94H.34L1.36 0zm0 0"/></symbol><symbol overflow="visible" id="ddcfaf2fI"><path d="M1.45-2.95c0 2.56 1.08 4.37 3.67 4.84l.11-.67C3.28.86 2.43-.75 2.43-2.95s.85-3.82 2.8-4.16l-.1-.69c-2.6.49-3.68 2.3-3.68 4.85zm0 0"/></symbol><symbol overflow="visible" id="ddcfaf2fJ"><path d="M3.36.16c1.4 0 2.2-.6 2.2-1.57 0-.89-.54-1.22-1.47-1.39L3-3c-.67-.14-.86-.33-.86-.73 0-.5.4-.74 1.17-.74.83 0 1.19.27 1.27.8l.9-.05c-.12-1-.8-1.47-2.17-1.47-1.34 0-2.1.53-2.1 1.5 0 .81.45 1.22 1.52 1.44l1.04.2c.56.11.87.24.87.72 0 .52-.45.78-1.28.78-.95 0-1.36-.28-1.42-.87l-.9.06C1.07-.36 1.8.16 3.35.16zm0 0"/></symbol><symbol overflow="visible" id="ddcfaf2fK"><path d="M3.92-7.14H1.36v.76h1.6v5.61H1.15V0H5.7v-.77H3.92zm0 0"/></symbol><symbol overflow="visible" id="ddcfaf2fL"><path d="M3.16 2.03c1.67 0 2.4-.86 2.4-2.51v-4.54h-.81l-.13.91h-.06c-.26-.58-.8-1.05-1.73-1.05-1.42 0-2.24 1-2.24 2.52 0 1.6.75 2.56 2.2 2.56.94 0 1.5-.5 1.77-1.03h.05v.72c0 1.17-.42 1.67-1.45 1.67-.93 0-1.3-.34-1.41-.89L.8.5c.12.96.87 1.54 2.36 1.54zM3.06-.8c-.98 0-1.48-.57-1.48-1.82 0-1.13.5-1.75 1.48-1.75 1.06 0 1.58.76 1.58 1.75 0 .95-.56 1.82-1.58 1.82zm0 0"/></symbol><symbol overflow="visible" id="ddcfaf2fM"><path d="M1.45-7.1c1.96.33 2.8 1.94 2.8 4.15 0 2.2-.84 3.8-2.8 4.17l.11.67c2.58-.47 3.67-2.28 3.67-4.84 0-2.55-1.09-4.36-3.67-4.85zm0 0"/></symbol></defs><use xlink:href="#ddcfaf2fa" x="140.6525" y="153.5" fill="#515151"/><use xlink:href="#ddcfaf2fb" x="203.3125" y="153.5" fill="#fff"/><use xlink:href="#ddcfaf2fc" x="229.1825" y="153.5" fill="#fff"/><g fill="#515151"><use xlink:href="#ddcfaf2fd" x="253.1025" y="153.5"/><use xlink:href="#ddcfaf2fe" x="311.0825" y="153.5"/><use xlink:href="#ddcfaf2ff" x="330.5825" y="153.5"/></g><use xlink:href="#ddcfaf2fg" x="384.5325" y="153.5" fill="#fff"/><use xlink:href="#ddcfaf2fh" x="404.0975" y="153.5" fill="#fff"/><use xlink:href="#ddcfaf2fi" x="422.8175" y="153.5" fill="#515151"/><g fill="#fff"><use xlink:href="#ddcfaf2fj" x="250" y="252"/><use xlink:href="#ddcfaf2fk" x="256.667" y="252"/><use xlink:href="#ddcfaf2fl" x="263.334" y="252"/><use xlink:href="#ddcfaf2fm" x="270.001" y="252"/><use xlink:href="#ddcfaf2fn" x="276.668" y="252"/><use xlink:href="#ddcfaf2fo" x="283.335" y="252"/><use xlink:href="#ddcfaf2fp" x="290.002" y="252"/><use xlink:href="#ddcfaf2fq" x="296.669" y="252"/><use xlink:href="#ddcfaf2fr" x="303.336" y="252"/><use xlink:href="#ddcfaf2fs" x="310.003" y="252"/><use xlink:href="#ddcfaf2fo" x="316.67" y="252"/><use xlink:href="#ddcfaf2ft" x="323.337" y="252"/><use xlink:href="#ddcfaf2fu" x="330.004" y="252"/><use xlink:href="#ddcfaf2fv" x="336.671" y="252"/><use xlink:href="#ddcfaf2fw" x="343.338" y="252"/></g><g fill="#fff"><use xlink:href="#ddcfaf2fx" x="150" y="266"/><use xlink:href="#ddcfaf2fk" x="156.667" y="266"/><use xlink:href="#ddcfaf2fy" x="163.334" y="266"/><use xlink:href="#ddcfaf2fm" x="170.001" y="266"/><use xlink:href="#ddcfaf2fz" x="176.668" y="266"/><use xlink:href="#ddcfaf2fA" x="183.335" y="266"/><use xlink:href="#ddcfaf2fk" x="190.002" y="266"/><use xlink:href="#ddcfaf2fn" x="196.669" y="266"/><use xlink:href="#ddcfaf2fo" x="203.336" y="266"/><use xlink:href="#ddcfaf2fB" x="210.003" y="266"/><use xlink:href="#ddcfaf2fz" x="216.67" y="266"/><use xlink:href="#ddcfaf2fm" x="223.337" y="266"/><use xlink:href="#ddcfaf2fC" x="230.004" y="266"/><use xlink:href="#ddcfaf2fD" x="236.671" y="266"/><use xlink:href="#ddcfaf2fo" x="243.338" y="266"/><use xlink:href="#ddcfaf2fE" x="250.005" y="266"/><use xlink:href="#ddcfaf2fF" x="256.672" y="266"/><use xlink:href="#ddcfaf2fv" x="263.339" y="266"/><use xlink:href="#ddcfaf2fG" x="270.006" y="266"/><use xlink:href="#ddcfaf2fo" x="276.673" y="266"/><use xlink:href="#ddcfaf2fH" x="283.34" y="266"/><use xlink:href="#ddcfaf2fF" x="290.007" y="266"/><use xlink:href="#ddcfaf2fm" x="296.674" y="266"/><use xlink:href="#ddcfaf2fD" x="303.341" y="266"/><use xlink:href="#ddcfaf2fo" x="310.008" y="266"/><use xlink:href="#ddcfaf2fy" x="316.675" y="266"/><use xlink:href="#ddcfaf2fC" x="323.342" y="266"/><use xlink:href="#ddcfaf2fz" x="330.009" y="266"/><use xlink:href="#ddcfaf2fm" x="336.676" y="266"/><use xlink:href="#ddcfaf2fk" x="343.343" y="266"/><use xlink:href="#ddcfaf2fo" x="350.01" y="266"/><use xlink:href="#ddcfaf2fI" x="356.677" y="266"/><use xlink:href="#ddcfaf2fJ" x="363.344" y="266"/><use xlink:href="#ddcfaf2fk" x="370.011" y="266"/><use xlink:href="#ddcfaf2fm" x="376.678" y="266"/><use xlink:href="#ddcfaf2fo" x="383.345" y="266"/><use xlink:href="#ddcfaf2fK" x="390.012" y="266"/><use xlink:href="#ddcfaf2fy" x="396.679" y="266"/><use xlink:href="#ddcfaf2fw" x="403.346" y="266"/><use xlink:href="#ddcfaf2fL" x="410.013" y="266"/><use xlink:href="#ddcfaf2fz" x="416.68" y="266"/><use xlink:href="#ddcfaf2fy" x="423.347" y="266"/><use xlink:href="#ddcfaf2fL" x="430.014" y="266"/><use xlink:href="#ddcfaf2fk" x="436.681" y="266"/><use xlink:href="#ddcfaf2fM" x="443.348" y="266"/></g></svg>