<?xml version='1.0' encoding='UTF-8'?>
<svg xmlns="http://www.w3.org/2000/svg" xmlns:xlink="http://www.w3.org/1999/xlink" width="2200px" height="1280px" viewBox="0 0 2200 1280" y="0px" x="0px" enable-background="new 0 0 2200 1280"><defs><symbol overflow="visible" id="588ac40aa"><path d="M66.11-55.578l-8.626 40.312h-.406L55.5-26.875l-5.484-28.703H32.594l-7.625 40.312h-.422l-1.735-11.53-6.39-28.782H1.25c.078 2.234.906 5.062 1.734 8.125L15.516.172l17.25-.344 7.468-39.89h.407l1.172 9.78L47.53.173l17.25-.344L78.47-47.359c.922-3 1.906-5.985 2-8.22zm0 0"/></symbol><symbol overflow="visible" id="588ac40ab"><path d="M2.578-19.156c0 11.36 6.969 20.312 19.906 20.312 13.688 0 21.563-9.625 21.563-22.062 0-11.36-6.89-20.907-19.828-20.907-13.688 0-21.64 10.204-21.64 22.657zm26.703-.344c0 3.734-.75 6.813-1.984 8.719-.75 1.078-1.906 1.828-3.735 1.828-4.062 0-6.14-4.906-6.14-11.703 0-3.89.828-7.469 1.984-9.203.75-1.172 1.907-1.828 3.735-1.828 4.062 0 6.14 5.468 6.14 12.187zm0 0"/></symbol><symbol overflow="visible" id="588ac40ac"><path d="M4.234-62.047v52.5C4.234-2.407 8.297.906 14.266.906c3.484 0 7.218-.656 10.453-1.812l-1.485-10.047c-.75.25-1.328.328-1.922.328-1.734 0-2.312-.984-2.312-3.484v-48.266zm0 0"/></symbol><symbol overflow="visible" id="588ac40ad"><path d="M3.734-39.906c.657 10.125.829 14.281.829 18V0h14.765v-29.281c1.985-1.328 3.985-1.985 5.969-1.985 2.906 0 3.812 1.657 3.812 6.047V0h14.766v-27.797c0-9.281-4.469-14.015-13.266-14.015-5.39 0-9.625 2-13.265 5.89l-2.5-5.562zm0 0"/></symbol><symbol overflow="visible" id="588ac40ae"><path d="M3.656-36l3.563 8.297c3.734-1.906 8.125-3.156 11.86-3.156 3.983 0 5.562 1.578 5.64 6.547-8.297.75-14.266 2.156-17.828 4.812-2.985 2.25-4.813 5.484-4.813 9.625C2.078-2.906 6.718.906 13.766.906c4.812 0 9.218-2.234 12.78-5.89L29.11.656 40.062-1c-.5-9.453-.75-13.344-.75-16.828v-8.219c0-10.281-5.14-15.515-16.75-15.515-7.14 0-14.187 2.25-18.906 5.562zM18.672-8.547c-2.406 0-3.328-1.406-3.328-3.734 0-1.485.422-2.485 1.406-3.235 1.078-.75 3.406-1.328 7.969-1.484v6.219c-2.157 1.484-4.235 2.234-6.047 2.234zm0 0"/></symbol><symbol overflow="visible" id="588ac40ag"><path d="M5.219-55.578V0h37.343l-.5-10.953H19.985v-11.781H36.75v-10.782H19.984v-11.109h21.907l.578-10.953zm0 0"/></symbol><symbol overflow="visible" id="588ac40ah"><path d="M4.14-40.563v27.626c0 9.374 4.657 14.093 13.282 14.093 5.14 0 9.281-1.984 12.86-5.89L32.765.5 43.719-1c-.5-9.953-.75-14.094-.75-17.75v-21.984H28.203v29.375c-1.906 1.328-3.812 1.984-5.469 1.984-2.656 0-3.828-1.734-3.828-6.297v-25.14zm0 0"/></symbol><symbol overflow="visible" id="588ac40ai"><path d="M3.734-39.906c.579 10.203.829 14.281.829 18V0h14.765v-24.64c2.485-2.157 5.063-2.907 7.969-2.907 1.734 0 3.14.172 4.64.5l2.157-12.937c-1.735-1-3.985-1.578-6.14-1.578-4.563 0-7.626 2.984-10.032 7.468l-3.078-7.39zm0 0"/></symbol><symbol overflow="visible" id="588ac40aj"><path d="M24.063-9.203c-1.579 0-3.157-.344-4.735-1v-19.25c1.985-1.235 3.735-1.906 5.39-1.906 3.735 0 5.391 4.234 5.391 11.28 0 3.579-.578 7.22-1.984 9.126-.922 1.172-2.078 1.75-4.063 1.75zM3.813-39.906c.5 10.125.75 14.36.75 18V19.5h14.765V-1.406c2.235 1.578 4.64 2.484 8.047 2.484 9.375 0 17.75-10.531 17.75-22.562 0-11.703-6.719-20.328-16.094-20.328-4.812 0-8.547 2.25-11.687 5.812l-2.5-5.484zm0 0"/></symbol><symbol overflow="visible" id="588ac40ak"><path d="M6.063-70.516v88.438h11.03v-88.438zm0 0"/></symbol><symbol overflow="visible" id="588ac40al"><path d="M23.14-27.125c-.828 0-1.906-.078-3.156-.172v-17.656c1.578-.094 3.078-.172 4.235-.172 5.968 0 9.218 2.328 9.218 8.297 0 4.062-1.5 6.797-3.828 8.203-1.578 1.078-3.89 1.5-6.468 1.5zM5.22-55.156V0h14.765v-16.5c1.5.156 3 .234 4.328.234 15.594 0 24.375-8.953 24.375-21.234 0-12.938-9.453-18.984-26.046-18.984-6.547 0-12.938.656-17.422 1.328zm0 0"/></symbol><symbol overflow="visible" id="588ac40am"><path d="M3.656-36l3.563 8.297c3.734-1.906 8.125-3.156 11.86-3.156 3.983 0 5.562 1.578 5.64 6.547-8.297.75-14.266 2.156-17.828 4.812-2.985 2.25-4.813 5.484-4.813 9.625C2.078-2.906 6.718.906 13.766.906c4.812 0 9.218-2.234 12.78-5.89L29.11.656 40.062-1c-.5-9.453-.75-13.344-.75-16.828v-8.219c0-10.281-5.14-15.515-16.75-15.515-7.14 0-14.187 2.25-18.906 5.562zM18.672-8.547c-2.406 0-3.328-1.406-3.328-3.734 0-1.485.422-2.485 1.406-3.235 1.078-.75 3.406-1.328 7.969-1.484v6.219c-2.157 1.484-4.235 2.234-6.047 2.234zm0 0"/></symbol><symbol overflow="visible" id="588ac40an"><path d="M13.36-40.734l-1 8.797c-.907 8.546-3.157 17.421-7.797 22.062H1.155v23.64h12.531V0H38v13.766h12.516V-9.875h-5.641v-30.86zm11.437 10.703l.094-.828h6.375v20.984H19.25c2.984-4.89 4.89-12.281 5.547-20.156zm0 0"/></symbol><symbol overflow="visible" id="588ac40ao"><path d="M4.39-40.563V0h14.766v-40.813zm.173-12.53c0 3.734 2.734 6.39 7.14 6.39 4.797 0 7.797-2.984 7.797-7.219 0-3.812-2.656-6.469-6.969-6.469-4.906 0-7.969 2.907-7.969 7.297zm0 0"/></symbol><symbol overflow="visible" id="588ac40ap"><path d="M2.578-19.156c0 11.36 6.969 20.312 19.906 20.312 13.688 0 21.563-9.625 21.563-22.062 0-11.36-6.89-20.907-19.828-20.907-13.688 0-21.64 10.204-21.64 22.657zm26.703-.344c0 3.734-.75 6.813-1.984 8.719-.75 1.078-1.906 1.828-3.735 1.828-4.062 0-6.14-4.906-6.14-11.703 0-3.89.828-7.469 1.984-9.203.75-1.172 1.907-1.828 3.735-1.828 4.062 0 6.14 5.468 6.14 12.187zm0 0"/></symbol><symbol overflow="visible" id="588ac40aq"><path d="M2.734-26.797C2.734-10.28 12.531.906 28.781.906c7.297 0 12.938-1.484 17.422-3.64L42.97-12.86c-3.313 1.25-7.297 1.906-10.703 1.906-10.61 0-14.016-8.125-14.016-16.75 0-5.14 1.328-10.203 4.484-13.531 1.985-2.063 5.063-3.391 9.125-3.391 3.641 0 6.625.656 10.032 2.156l4.734-9.953c-3.656-2.156-8.797-4.062-16.266-4.062-18 0-27.625 14.093-27.625 29.687zm0 0"/></symbol><symbol overflow="visible" id="588ac40ar"><path d="M4.39-40.484V-.172C7.72.328 14.595.906 20.829.906c15.672 0 22.719-3.64 22.719-12.844 0-4.734-2.563-8.046-7.547-9.718 3.813-1.907 6.063-4.89 6.063-9.375 0-7.297-6.391-10.532-19.829-10.532-6.968 0-13.859.5-17.843 1.079zm18 8.297c4.313 0 5.985 1 5.985 3.656 0 2.734-1.828 4.062-6.313 4.062H18v-7.547c1.5-.093 2.984-.172 4.39-.172zm.5 23.39a46.6 46.6 0 0 1-4.89-.25v-7.625h4.89c4.313 0 6.47.906 6.47 3.813 0 3.078-1.985 4.062-6.47 4.062zm0 0"/></symbol><symbol overflow="visible" id="588ac40as"><path d="M19.25-58.563C6.14-54.828 3.562-43.218 3.562-23.39c0 17 6.22 24.47 20 24.47 12.516 0 20.313-7.97 20.313-20.735 0-11.953-5.297-18.922-16.25-18.922-4.234 0-7.547 1.25-10.125 3.078.328-6.39 1.75-10.375 8.625-12.11 5.484-1.328 12.61-2.578 15.516-3.156l-1.828-11.609c-6.47.828-14.344 1.984-20.563 3.813zm4.563 49.266c-4.235 0-5.813-3.062-5.735-15.344l-.156-2.062c1.406-1.094 3.39-2.078 5.797-2.078 4.234 0 5.734 3.062 5.734 9.125 0 6.547-1.578 10.36-5.64 10.36zm0 0"/></symbol><symbol overflow="visible" id="588ac40at"><path d="M23.063-29.203c-.907 0-1.907 0-3.079-.078v-15.672c1.672-.094 3.25-.172 4.328-.172 6.125 0 9.125 2.484 9.125 7.547 0 3.906-1.578 5.89-3.656 7.047-1.578.922-3.734 1.328-6.718 1.328zM5.218-55.156V0h14.765v-18.672c1.5.094 3.078.172 4.235.172.672 0 1.328 0 1.906-.078L35.422 0h15.094c-.25-1.906-1.235-4.063-2.313-5.89l-8.969-16.344c5.891-3.485 9.453-9.282 9.453-16.594 0-12.516-10.78-17.656-26.203-17.656-6.062 0-13.109.734-17.265 1.328zm0 0"/></symbol><symbol overflow="visible" id="588ac40au"><path d="M23.063-9.375c-3.735 0-5.47-4.234-5.47-11.281 0-3.657.579-7.14 1.985-9.125.828-1.157 2.078-1.735 4.14-1.735 1.5 0 3.079.328 4.735.985v19.078c-1.984 1.422-3.812 2.078-5.39 2.078zM2.578-19.25C2.656-7.469 9.625 1.078 19 1.078c4.64 0 8.203-2.156 11.36-5.89L32.843.5 43.969-1c-.578-9.781-.828-13.766-.828-17.422v-43.953l-14.688.328v22.813c-2.234-1.657-4.64-2.578-7.969-2.578-9.703 0-17.906 10.624-17.906 22.562zm0 0"/></symbol><symbol overflow="visible" id="588ac40av"><path d="M4.39-40.563V0h14.766v-40.813zm.173-12.53c0 3.734 2.734 6.39 7.14 6.39 4.797 0 7.797-2.984 7.797-7.219 0-3.812-2.656-6.469-6.969-6.469-4.906 0-7.969 2.907-7.969 7.297zm0 0"/></symbol><symbol overflow="visible" id="588ac40aw"><path d="M3.406-39.313c0 10.782 8.953 14.422 17.172 17.657 5.047 1.906 8.297 3.234 8.297 6.562 0 3.313-3.156 4.813-8.047 4.813-4.984 0-10.797-1.422-14.687-3.078L1.984-3.234C6.297-1 13.86 1.156 21.562 1.156c13.282 0 22.657-6.14 22.657-17.328 0-10.453-8.219-14.187-17.516-18C21.813-36 18.75-37.5 18.75-40.64c0-3.578 3.313-4.656 7.719-4.656 4.218 0 8.781 1 12.36 2.25l3.89-9.625C38.484-55 32.516-56.734 25.625-56.734c-12.594 0-22.219 5.89-22.219 17.422zm0 0"/></symbol><symbol overflow="visible" id="588ac40ax"><path d="M30.11-40.734L22.983-12.36h-.422c-.406-3.485-1-6.797-1.734-10.125L16.5-40.734h-15c0 2.078.406 3.984.984 5.734L14.11.172l16.578-.344L43.142-35c.578-1.672 1.078-3.656 1.078-5.734zm0 0"/></symbol><symbol overflow="visible" id="588ac40ay"><path d="M4.39-62.047v60.39C10.126 0 16.173.907 22.64.907c14.766 0 22.079-9.703 22.157-22.312 0-11.61-6.39-20.407-16.422-20.407-3.906 0-6.813 1.657-9.219 4.157v-24.719zm19.079 52.5c-1.407 0-2.89-.078-4.313-.328v-19.484c1.672-1.25 3.485-2.078 5.235-2.078 3.734 0 5.39 4.312 5.39 11.03 0 4.313-.422 7.298-2.078 9.376-.828 1-2.234 1.484-4.234 1.484zm0 0"/></symbol><symbol overflow="visible" id="588ac40az"><path d="M3.656-36l3.563 8.297c3.734-1.906 8.125-3.156 11.86-3.156 3.983 0 5.562 1.578 5.64 6.547-8.297.75-14.266 2.156-17.828 4.812-2.985 2.25-4.813 5.484-4.813 9.625C2.078-2.906 6.718.906 13.766.906c4.812 0 9.218-2.234 12.78-5.89L29.11.656 40.062-1c-.5-9.453-.75-13.344-.75-16.828v-8.219c0-10.281-5.14-15.515-16.75-15.515-7.14 0-14.187 2.25-18.906 5.562zM18.672-8.547c-2.406 0-3.328-1.406-3.328-3.734 0-1.485.422-2.485 1.406-3.235 1.078-.75 3.406-1.328 7.969-1.484v6.219c-2.157 1.484-4.235 2.234-6.047 2.234zm-5.563-42.89l5.391 6.14 16.672-11.281v-.984l-6.547-7.97zm0 0"/></symbol><symbol overflow="visible" id="588ac40aA"><path d="M46.375-40.563V0h13.938v-40.813zM20.656.907c14.938 0 21.235-4.72 21.235-14.516 0-9.532-5.47-14.016-18.5-14.016-1.828 0-3.641.172-5.141.422v-13.61l-13.86.25V-.172C7.876.328 14.017.906 20.657.906zm.578-9.532c-1 0-1.984-.078-2.984-.172v-9.281a21.237 21.237 0 0 1 3.234-.25c4.813 0 6.391 1.484 6.391 4.64 0 3.735-2.078 5.063-6.64 5.063zm0 0"/></symbol><symbol overflow="visible" id="588ac40aB"><path d="M2.578-19.156C2.578-6.546 10.531.906 22.813.906c5.64 0 11.53-1.328 16.421-3.484l-2.656-8.281c-3.312.906-7.375 1.484-10.781 1.484-4.735 0-7.625-2.234-8.453-7.375h22.39c.422-2.078.657-4.656.657-6.813 0-10.53-5.141-18.156-16.828-18.156-13.11 0-20.985 10.032-20.985 22.563zm20.406-12.782c3.235 0 4.72 2.235 4.72 5.641 0 .672 0 1.5-.079 2.156H17.25c.5-4.968 2.078-7.797 5.734-7.797zm1.813-20.906c0 3.657 2.578 5.969 6.312 5.969 4.141 0 6.97-2.734 6.97-6.875 0-3.656-2.579-5.969-6.313-5.969-4.22 0-6.97 2.735-6.97 6.875zm-18 0c0 3.657 2.578 5.969 6.312 5.969 4.235 0 6.97-2.734 6.97-6.875 0-3.656-2.579-5.969-6.313-5.969-4.22 0-6.97 2.735-6.97 6.875zm0 0"/></symbol><symbol overflow="visible" id="588ac40aC"><path d="M29.703-40.563v14.594H19.078v-14.843l-14.687.25V0h14.687v-15.516h10.625V0h14.672v-40.813zm0 0"/></symbol><symbol overflow="visible" id="588ac40aD"><path d="M24.469-22.563c-4.64 0-6.39-1.656-6.39-4.89 0-3.656 2-4.813 6.562-4.813 1.078 0 2.156.078 3.234.157v9.468zM3.406-5.718C2.734-3.312 2.078-1.079 1.734 0h14.532c2.984-11.281 3.312-14.016 8.203-14.016h3.406V0h13.688v-40.484c-3.157-.5-9.376-1.078-16.266-1.078-14.766 0-21.485 4.062-21.485 13.937 0 4.813 2.485 8.547 6.72 10.875-3.391 1.328-5.22 4.39-7.126 11.031zm0 0"/></symbol><symbol overflow="visible" id="588ac40aE"><path d="M5.219-55.578V0h37.343l-.5-10.953H19.985v-11.781H36.75v-10.782H19.984v-11.109h21.907l.578-10.953zm0 0"/></symbol><symbol overflow="visible" id="588ac40aF"><path d="M30.188-40.734L22.983-12.36h-.422c-.406-3.485-.906-6.797-1.656-10.125l-4.312-18.25H1.578c0 2.078.328 3.984.906 5.734L13.938-.656h5.218c-3.734 7.375-10.453 10.61-18 10.61v10.28c1.578.25 3.485.5 6.14.5 11.532 0 19.079-7.797 24.97-24.218L43.14-35c.578-1.672.984-3.656.984-5.734zm-7.204-13.688c-4.234 0-4.562-2.812-4.562-8.203l-10.875.406C7.39-51.094 12.03-46.03 22.812-46.03c10.532 0 15.422-4.907 15.266-16.188l-10.703-.406c0 5.469-.422 8.203-4.39 8.203zm0 0"/></symbol><symbol overflow="visible" id="588ac40aG"><path d="M24.063-9.203c-1.579 0-3.157-.344-4.735-1v-19.25c1.985-1.235 3.735-1.906 5.39-1.906 3.735 0 5.391 4.234 5.391 11.28 0 3.579-.578 7.22-1.984 9.126-.922 1.172-2.078 1.75-4.063 1.75zM3.813-39.906c.5 10.125.75 14.36.75 18V19.5h14.765V-1.406c2.235 1.578 4.64 2.484 8.047 2.484 9.375 0 17.75-10.531 17.75-22.562 0-11.703-6.719-20.328-16.094-20.328-4.812 0-8.547 2.25-11.687 5.812l-2.5-5.484zm0 0"/></symbol><symbol overflow="visible" id="588ac40aH"><path d="M4.39-40.734V0H19v-30.188h9.875V0h14.516v-40.734zm0 0"/></symbol><symbol overflow="visible" id="588ac40aI"><path d="M5.219-55.578V0h34.093l-.578-11.36h-18.75v-44.218zm0 0"/></symbol><symbol overflow="visible" id="588ac40aJ"><path d="M2.578-19.156C2.578-6.546 10.531.906 22.813.906c5.64 0 11.53-1.328 16.421-3.484l-2.656-8.281c-3.312.906-7.375 1.484-10.781 1.484-4.735 0-7.625-2.234-8.453-7.375h22.39c.422-2.078.657-4.656.657-6.813 0-10.53-5.141-18.156-16.828-18.156-13.11 0-20.985 10.032-20.985 22.563zm20.406-12.782c3.235 0 4.72 2.235 4.72 5.641 0 .672 0 1.5-.079 2.156H17.25c.5-4.968 2.078-7.797 5.734-7.797zm0 0"/></symbol><symbol overflow="visible" id="588ac40aK"><path d="M3.656-36l3.563 8.297c3.734-1.906 8.125-3.156 11.86-3.156 3.983 0 5.562 1.578 5.64 6.547-8.297.75-14.266 2.156-17.828 4.812-2.985 2.25-4.813 5.484-4.813 9.625C2.078-2.906 6.718.906 13.766.906c4.812 0 9.218-2.234 12.78-5.89L29.11.656 40.062-1c-.5-9.453-.75-13.344-.75-16.828v-8.219c0-10.281-5.14-15.515-16.75-15.515-7.14 0-14.187 2.25-18.906 5.562zM18.672-8.547c-2.406 0-3.328-1.406-3.328-3.734 0-1.485.422-2.485 1.406-3.235 1.078-.75 3.406-1.328 7.969-1.484v6.219c-2.157 1.484-4.235 2.234-6.047 2.234zm2.984-46.781c-3.906 0-5.984-2.656-6.562-7.469L6.719-61.39c.828 9.625 5.968 15.36 14.593 15.36 8.547 0 14.282-5.563 15.11-15.516l-8.14-1.25c-.407 4.734-2.813 7.469-6.626 7.469zm0 0"/></symbol><symbol overflow="visible" id="588ac40aL"><path d="M2.734-27.125C2.734-12.781 10.031-.656 24.97 1c3.906 9.625 9.875 15.5 18.078 15.5 4.312 0 7.969-.828 10.953-1.984l-1.656-9.782c-1.328.329-3.235.407-4.813.407-3.812 0-7.875-.907-11.11-5.063C48.439-3.312 55.25-14.594 55.25-28.375c0-15.5-8.375-28.36-25.64-28.36-17.079 0-26.876 13.016-26.876 29.61zm37.078-1c0 5.39-1.156 11.703-4.468 15.266-1.328 1.5-3.328 2.656-6.235 2.656-7.547 0-10.859-8.625-10.859-17.5 0-5.563 1.406-11.453 4.484-14.766 1.407-1.656 3.485-2.906 6.375-2.906 7.391 0 10.703 7.969 10.703 17.25zm0 0"/></symbol><symbol overflow="visible" id="588ac40aM"><path d="M4.39-40.563V0h14.766v-40.813zm0 0"/></symbol><symbol overflow="visible" id="588ac40aN"><path d="M3.813-39.906c.578 10.125.75 14.36.75 18V0h14.765v-29.281c1.906-1.25 3.813-1.985 5.64-1.985 2.579 0 3.485 1.563 3.485 6.375V0H43.22v-27.547c0-.578 0-1.156-.078-1.734 1.906-1.25 3.812-1.985 5.64-1.985 2.563 0 3.563 1.563 3.563 6.375V0H67.03v-27.547c0-9.531-4.406-14.265-12.781-14.265-5.313 0-9.375 2-12.766 5.734-2.078-3.828-5.734-5.734-11.047-5.734-5.39 0-9.53 2.078-13.015 5.984l-2.578-5.656zm0 0"/></symbol><symbol overflow="visible" id="588ac40aO"><path d="M26.703-41.563h.422l2.734 12.688 2.157 7.39h-11.11zM18.5-55.406L1.734-6.641C.828-4.062.5-1.828.422 0h14.265l3.141-10.86H35L38.156 0h14.36c-.094-1.984-.5-4.14-1.328-6.719L35.593-55.75zm0 0"/></symbol><symbol overflow="visible" id="588ac40aP"><path d="M2.578-19.156C2.578-6.546 10.531.906 22.813.906c5.64 0 11.53-1.328 16.421-3.484l-2.656-8.281c-3.312.906-7.375 1.484-10.781 1.484-4.735 0-7.625-2.234-8.453-7.375h22.39c.422-2.078.657-4.656.657-6.813 0-10.53-5.141-18.156-16.828-18.156-13.11 0-20.985 10.032-20.985 22.563zm20.406-12.782c3.235 0 4.72 2.235 4.72 5.641 0 .672 0 1.5-.079 2.156H17.25c.5-4.968 2.078-7.797 5.734-7.797zm0 0"/></symbol><symbol overflow="visible" id="588ac40aQ"><path d="M11.031-40.734l-.75 10.953c-.828 13.61-2.312 18.75-9.031 19V.329c1.156.327 3.313.577 5.969.577 4.562 0 7.797-1.484 10.031-4.14 4.656-5.141 5.734-14.938 6.219-26.047l.093-1.078h5.391V0H43.47v-40.734zm0 0"/></symbol><symbol overflow="visible" id="588ac40aR"><path d="M4.39-40.563V0h14.766v-40.813zm8.97-12.28c0 3.656 2.656 5.968 6.296 5.968 4.157 0 6.89-2.734 6.89-6.875 0-3.656-2.483-5.969-6.218-5.969-4.156 0-6.969 2.813-6.969 6.875zm-16.266 0c0 3.656 2.578 5.968 6.312 5.968 4.14 0 6.875-2.734 6.875-6.875 0-3.656-2.562-5.969-6.219-5.969-4.234 0-6.968 2.813-6.968 6.875zm0 0"/></symbol><symbol overflow="visible" id="588ac40aS"><path d="M5.219-55.578V0h14.765v-22.313h4.985c8.125 0 8.218 4.641 13.61 22.313h15.265c-.594-1.656-1.5-4.734-2.657-8.297-3.656-11.781-5.484-18.172-12.78-19.734 6.796-1.828 8.046-7.719 11.202-19.75.828-3.157 1.485-5.813 2.078-7.797H36.75c-4.063 17.828-3.906 22.234-12.11 22.234h-4.656v-22.234zm0 0"/></symbol><symbol overflow="visible" id="588ac40aT"><path d="M38.234-40.734L30.86-13.031h-.25l-1.828-8.281-5.718-19.422H6.297L3.563-6.891C3.313-4.562 3.233-2.328 3.155 0h12.031l1.235-28.031h.328l1.828 8.953L23.968 0H36l7.875-28.031h.344L44.125-19l.672 19h13.016c0-1.984-.079-4.234-.25-6.39l-2.485-34.344zm0 0"/></symbol><symbol overflow="visible" id="588ac40aU"><path d="M30.438-40.734l-10.11 19.078-2.984 7.468h-.094l.828-9.53v-17.016l-13.687.093V0h14.937l10.203-18.172 3.407-8.203h.078l-.828 10.11V0h13.687v-40.734zm0 0"/></symbol><symbol overflow="visible" id="588ac40aV"><path d="M2.578-19.156C2.578-6.546 10.531.906 22.813.906c5.64 0 11.53-1.328 16.421-3.484l-2.656-8.281c-3.312.906-7.375 1.484-10.781 1.484-4.735 0-7.625-2.234-8.453-7.375h22.39c.422-2.078.657-4.656.657-6.813 0-10.53-5.141-18.156-16.828-18.156-13.11 0-20.985 10.032-20.985 22.563zm20.406-12.782c3.235 0 4.72 2.235 4.72 5.641 0 .672 0 1.5-.079 2.156H17.25c.5-4.968 2.078-7.797 5.734-7.797zm1.813-20.906c0 3.657 2.578 5.969 6.312 5.969 4.141 0 6.97-2.734 6.97-6.875 0-3.656-2.579-5.969-6.313-5.969-4.22 0-6.97 2.735-6.97 6.875zm-18 0c0 3.657 2.578 5.969 6.312 5.969 4.235 0 6.97-2.734 6.97-6.875 0-3.656-2.579-5.969-6.313-5.969-4.22 0-6.97 2.735-6.97 6.875zm0 0"/></symbol><symbol overflow="visible" id="588ac40aW"><path d="M22.484.906c15.016 0 21.891-4.718 21.891-14.515 0-9.532-6.14-14.016-19.328-14.016-2.235 0-4.469.25-6.297.5v-13.688l-14.36.25V-.172C7.876.328 15.767.906 22.485.906zm.5-9.531c-1.328 0-2.828-.078-4.234-.25V-18c1.484-.172 3.156-.328 4.563-.328 4.89 0 6.546 1.578 6.546 4.719 0 3.656-2.156 4.984-6.875 4.984zm0 0"/></symbol><symbol overflow="visible" id="588ac40aX"><path d="M3.234-6.39c0 4.484 2.985 7.546 7.47 7.546 4.562 0 7.546-3.062 7.546-7.703 0-4.312-2.906-7.219-7.469-7.219-4.484 0-7.547 2.985-7.547 7.375zm0 0"/></symbol><symbol overflow="visible" id="588ac40aY"><path d="M4.39-40.734V0h14.688v-29.86h15.516v-10.874zm0 0"/></symbol><symbol overflow="visible" id="588ac40aZ"><path d="M25.547-58.734v17.172c-15.344 1.25-22.89 7.296-22.89 22.234 0 13.36 7.296 19.156 22.89 20.234v16.922h13.187v-17C54-.5 61.547-6.547 61.547-21.484c0-13.266-7.297-19-22.813-20.157v-17.422zm22.156 38.078c0 7.39-2.156 10.453-8.969 11.453V-31.61c6.563.828 8.97 3.406 8.97 10.953zm-31.11.578c0-7.547 2.313-10.453 8.954-11.438v22.313c-6.469-.75-8.953-3.328-8.953-10.875zm0 0"/></symbol><symbol overflow="visible" id="588ac40aaa"><path d="M10.031-53.422L6.797-40.734H1.828v10.375h5.64v17.172C7.469-3.063 12.189.905 20.735.905c5.97 0 10.703-1.328 14.188-2.89l-2.234-8.97c-2.157.5-4.407.75-5.813.75-3.563 0-4.64-1.5-4.64-6.89v-13.265h11.53v-10.375h-11.53v-12.688zm0 0"/></symbol><symbol overflow="visible" id="588ac40aab"><path d="M30.188-40.734L22.983-12.36h-.422c-.406-3.485-.906-6.797-1.656-10.125l-4.312-18.25H1.578c0 2.078.328 3.984.906 5.734L13.938-.656h5.218c-3.734 7.375-10.453 10.61-18 10.61v10.28c1.578.25 3.485.5 6.14.5 11.532 0 19.079-7.797 24.97-24.218L43.14-35c.578-1.672.984-3.656.984-5.734zm0 0"/></symbol><symbol overflow="visible" id="588ac40aac"><path d="M23.14-27.125c-.828 0-1.906-.078-3.156-.172v-17.656c1.578-.094 3.078-.172 4.235-.172 5.968 0 9.218 2.328 9.218 8.297 0 4.062-1.5 6.797-3.828 8.203-1.578 1.078-3.89 1.5-6.468 1.5zM5.22-55.156V0h14.765v-16.5c1.5.156 3 .234 4.328.234 15.594 0 24.375-8.953 24.375-21.234 0-12.938-9.453-18.984-26.046-18.984-6.547 0-12.938.656-17.422 1.328zm0 0"/></symbol><symbol overflow="visible" id="588ac40aad"><path d="M23.063-9.953c-3.735 0-5.47-4.156-5.47-10.703 0-3.485.485-7.14 1.985-9.125.906-1.157 2.156-1.735 4.14-1.735 1.5 0 3.079.328 4.735.985v18.422c-1.984 1.406-3.812 2.156-5.39 2.156zM2.578-19.328C2.578-8.297 9.547.5 19 .5c3.734 0 6.797-1.406 9.453-3.813v1.907C28.375 5.969 26.625 9.78 19.828 9.78c-3.562 0-7.547-.734-10.781-1.984l-3.578 9.625c4.312 2.078 10.297 3.562 16.515 3.562 15.766 0 20.985-10.53 20.985-25.797V-23.39c0-3.656.172-6.312.578-16.593l-10.703-1.5-1.328 3c-2.891-2.078-6.22-3.328-10.11-3.328-11.86 0-18.828 11.624-18.828 22.484zm0 0"/></symbol><symbol overflow="visible" id="588ac40aae"><path d="M4.39-62.047V0h14.766v-29.281c2-1 3.985-1.5 5.985-1.5 2.812 0 3.89 1.75 3.89 5.89V0H43.72v-27.703c0-9.375-4.64-14.11-13.188-14.11-4.484 0-8.14 1.25-11.375 3.813v-24.375zm0 0"/></symbol><symbol overflow="visible" id="588ac40aaf"><path d="M26.703-41.563h.422l2.734 12.688 2.157 7.39h-11.11zM18.5-55.406L1.734-6.641C.828-4.062.5-1.828.422 0h14.265l3.141-10.86H35L38.156 0h14.36c-.094-1.984-.5-4.14-1.328-6.719L35.593-55.75zm0 0"/></symbol><symbol overflow="visible" id="588ac40aag"><path d="M2.656-38.734l1.985 8.78c2.5-.577 6.718-1.312 10.453-1.312 3.734 0 5.969.657 5.969 3.141 0 2.656-2.563 3.484-7.704 3.484H8.875v8.22h4.563c5.64 0 8.124.75 8.124 3.483 0 2.735-2.812 3.485-7.453 3.485-3.578 0-8.14-.828-10.296-1.406L1.905-1.656C4.313-.578 10.453.906 17.5.906c11.953 0 18.828-3.969 18.828-12.36 0-4.468-2.312-7.952-7.047-9.702 4.157-1.985 6.313-5.219 6.313-9.703 0-6.797-5.735-10.703-16.516-10.703-7.547 0-13.36 1.5-16.422 2.828zm0 0"/></symbol><symbol overflow="visible" id="588ac40aah"><path d="M1.734-40.734v11.03H13.61V0h14.672v-29.703h11.875v-11.031zm0 0"/></symbol><symbol overflow="visible" id="588ac40aai"><path d="M22.156-15.422c5.047 0 5.047 3.563 8.375 15.422h14.766c-.344-1-1.25-4.063-1.906-6.469-2.657-8.875-4.407-12.86-9.125-14.015 4.312-1.672 5.89-6.063 8.203-14.61.75-2.562 1.172-4.312 1.578-5.64H29.359c-2.484 11.125-2.062 15.437-7.375 15.437H19v-15.515l-14.61.25V0H19v-15.422zm0 0"/></symbol><symbol overflow="visible" id="588ac40aaj"><path d="M2.656-19.078C2.656-6.063 10.031.906 22.641.906c5.984 0 10.703-1.406 14.109-3.14l-2.828-9.125c-2.984.906-6.297 1.406-8.375 1.406-5.313 0-8.047-3.406-8.047-10.375 0-3.813.922-6.797 2.578-8.453.985-.922 2.235-1.5 4.39-1.5 2.329 0 5.485.672 8.376 2.078L37-37.406c-2.734-2.5-7.547-4.157-13.281-4.157-13.516 0-21.063 9.047-21.063 22.485zm0 0"/></symbol><symbol overflow="visible" id="588ac40aak"><path d="M5.219-55.578V0h14.765v-55.578zm0 0"/></symbol><symbol overflow="visible" id="588ac40aal"><path d="M48.438-55.578l-10.61 40.312H37.5l-2.406-11.03-8.969-29.282H7.719L3.812-6.468C3.656-4.314 3.485-2.079 3.485 0h13.36l1.406-41.063h.422l2.39 11.032L29.86 0h14.188L55.25-41.063h.406l-.078 10.954L56.828 0h13.844c0-2.156-.078-3.984-.25-5.969l-3.563-49.61zm0 0"/></symbol><symbol overflow="visible" id="588ac40aam"><path d="M4.39-40.563V0H60.22v-40.813l-13.594.25v30.438h-7.64v-30.688l-13.36.25v30.438H18v-30.688zm0 0"/></symbol><symbol overflow="visible" id="588ac40aan"><path d="M30.188-40.734L22.983-12.36h-.422c-.406-3.485-.906-6.797-1.656-10.125l-4.312-18.25H1.578c0 2.078.328 3.984.906 5.734L13.938-.656h5.218c-3.734 7.375-10.453 10.61-18 10.61v10.28c1.578.25 3.485.5 6.14.5 11.532 0 19.079-7.797 24.97-24.218L43.14-35c.578-1.672.984-3.656.984-5.734zm0 0"/></symbol><symbol overflow="visible" id="588ac40aao"><path d="M4.39-40.563V0h14.188v-15.672h5.969c.922 10.86 6.484 16.828 18.172 16.828 13.437 0 19.406-8.125 19.406-22.14 0-13.36-5.875-20.828-18.578-20.828-10.703 0-16.922 5.812-18.656 16.015h-6.313v-15.015zm43.313 20.079c0 7.797-.75 11.859-4.562 11.859-3.907 0-4.985-3.313-4.985-12.031 0-7.375.75-11.36 4.735-11.36 3.734 0 4.812 3.235 4.812 11.532zm0 0"/></symbol><symbol overflow="visible" id="588ac40aap"><path d="M3.813-40.734l.421 10.203h18.578L2.235-10.125 3.563 0h35.593l-.5-10.125H19.328l20.485-20.156-1.329-10.453zm0 0"/></symbol><symbol overflow="visible" id="588ac40aaq"><path d="M2.656-19.25c0 11.531 6.219 20.406 16.5 20.406 3.735 0 6.719-1.328 9.125-3.312V19.5h14.766v-58.484c-5.719-1.75-11.938-2.578-18.078-2.578-15.188 0-22.313 9.703-22.313 22.312zM23.313-9.203c-3.985 0-5.641-4.313-5.641-11.125 0-3.735.328-7.297 2.078-9.281.828-1 2.234-1.578 4.313-1.578 1.328 0 2.812.156 4.218.406v20.5c-1.812.656-3.562 1.078-4.968 1.078zm0 0"/></symbol><symbol overflow="visible" id="588ac40aar"><path d="M3.234-28.375c.079 6.719 5.313 9.469 10.875 11.625 4.141 1.563 7.375 2.734 7.375 4.89 0 1.735-2.078 2.657-5.218 2.657-3.407 0-6.891-.922-10.297-2.578L1.984-3.312C6.141-.75 11.36.905 18.078.905c11.625 0 18.25-5.297 18.25-13.265 0-6.891-5.062-9.704-11.781-12.188-3.89-1.5-6.547-2.5-6.547-4.562 0-1.328 1.25-2.407 4.234-2.407 2.563 0 5.97.828 8.953 2.157l3.985-8.547c-3.734-2.25-8.125-3.657-13.688-3.657-10.78 0-18.328 5.141-18.25 13.188zm0 0"/></symbol><symbol overflow="visible" id="588ac40aas"><path d="M2.078-52.922l2.735 9.953c2.656-.828 6.968-2.078 12.78-2.078 8.704 0 11.938 3.406 12.845 11.61H9.703v10.624h20.735c-.735 8.047-4.141 12.188-12.938 12.188-4.813 0-9.953-.984-12.688-1.813L1.735-2.483C5.063-.828 10.781.906 19.406.906c17.016 0 25.719-9.281 25.719-28.703 0-19.078-6.469-28.687-24.797-28.687-8.969 0-14.937 2.062-18.25 3.562zm0 0"/></symbol><symbol overflow="visible" id="588ac40aat"><path d="M2.328-40.734c0 2.078.656 3.812 1.735 5.734l8.375 14.422L3.655-5.641C2.578-3.734 1.828-1.984 1.828 0h13.266l6.562-14.516h.328L28.531 0h14.61c0-1.984-.75-3.813-1.75-5.64l-9.125-15.188L40.734-35c1.078-1.922 1.735-3.656 1.828-5.734h-13.78l-5.72 13.78h-.328l-5.64-13.78zm0 0"/></symbol><symbol overflow="visible" id="588ac40aau"><path d="M5.219-55.578V0h14.765v-19.75h16.688v-10.781H19.984v-14.094H41.72l.593-10.953zm0 0"/></symbol><symbol overflow="visible" id="588ac40aav"><path d="M4.39-40.563V0H19v-15.422h3.156c5.047 0 5.047 3.563 8.375 15.422h7.047v13.766h12.438v-23.891h-7.797c-2.063-6.375-3.985-9.375-7.953-10.36 4.312-1.671 5.89-6.062 8.203-14.609.75-2.562 1.172-4.312 1.578-5.64H29.359c-2.484 11.125-2.062 15.437-7.375 15.437H19v-15.515zm0 0"/></symbol><symbol overflow="visible" id="588ac40aaw"><path d="M35.594-55.578l-9.547 22.984h-.328l-2.985-7.718-6.812-15.266H.5c.078 2.406 1.234 5.062 2.906 8.219l14.516 27.53V0h14.672v-19.656L47.28-47.36c1.75-3.235 2.907-5.891 2.985-8.22zm0 0"/></symbol><symbol overflow="visible" id="588ac40aax"><path d="M2.734-27.125c0 15.422 8.47 28.281 25.72 28.281 17 0 26.796-13.015 26.796-29.531 0-15.5-8.375-28.36-25.64-28.36-17.079 0-26.876 13.016-26.876 29.61zm37.078-1c0 5.39-1.156 11.703-4.468 15.266-1.328 1.5-3.328 2.656-6.235 2.656-7.547 0-10.859-8.625-10.859-17.5 0-5.563 1.406-11.453 4.484-14.766 1.407-1.656 3.485-2.906 6.375-2.906 7.391 0 10.703 7.969 10.703 17.25zm0 0"/></symbol><symbol overflow="visible" id="588ac40aay"><path d="M30.438-40.734l-10.11 19.078-2.984 7.468h-.094l.828-9.53v-17.016l-13.687.093V0h14.937l10.203-18.172 3.407-8.203h.078l-.828 10.11V0h13.687v-40.734zM12.78-56.25v8.969h25.703v-8.969zm0 0"/></symbol><symbol overflow="visible" id="588ac40aaz"><path d="M35.594-55.578l-9.547 22.984h-.328l-2.985-7.718-6.812-15.266H.5c.078 2.406 1.234 5.062 2.906 8.219l14.516 27.53V0h14.672v-19.656L47.28-47.36c1.75-3.235 2.907-5.891 2.985-8.22zm-19.5-12.781l2.812 7.64 20.907-6.14.093-1-3.656-9.532zm0 0"/></symbol><symbol overflow="visible" id="588ac40aaA"><path d="M28.203-40.563l-6.469 28.204h-.5l-.75-7.625-4.562-20.75H1.5c0 2.078.406 3.906.984 5.734L12.86.172l15.766-.344 6.047-26.531H35l.922 6.719L40.734.172l16.5-.344L68.11-35c.579-1.75 1.079-3.734 1.079-5.734H56L50.11-12.36h-.5l-1-7.625-4.97-20.828zm0 0"/></symbol><symbol overflow="visible" id="588ac40aaB"><path d="M31.266-40.734L21.984-26.22h-2.828v-36.156l-14.765.328V0h14.765v-15.344h3L30.938 0H46.28c-.156-1.984-.828-3.734-2.062-5.64L33.516-21.907l9.453-13.266c1.578-2.328 2.406-3.812 2.484-5.562zm0 0"/></symbol></defs><path fill="#e75e05" d="M0 0h2200v1280H0z"/><use xlink:href="#588ac40aa" x="-6.75794" y="135.4225" fill="#fff"/><g fill="#fff"><use xlink:href="#588ac40ab" x="70.476424" y="135.4225"/><use xlink:href="#588ac40ac" x="117.099101" y="135.4225"/><use xlink:href="#588ac40ad" x="142.56736" y="135.4225"/><use xlink:href="#588ac40ae" x="190.600332" y="135.4225"/><use xlink:href="#588ac40af" x="234.153544" y="135.4225"/><use xlink:href="#588ac40ag" x="249.915659" y="135.4225"/></g><g fill="#fff"><use xlink:href="#588ac40ah" x="294.796208" y="135.4225"/><use xlink:href="#588ac40ai" x="342.331428" y="135.4225"/></g><g fill="#fff"><use xlink:href="#588ac40ab" x="375.763704" y="135.4225"/><use xlink:href="#588ac40aj" x="422.386381" y="135.4225"/><use xlink:href="#588ac40ae" x="470.087518" y="135.4225"/><use xlink:href="#588ac40af" x="513.640731" y="135.4225"/><use xlink:href="#588ac40ak" x="529.402846" y="135.4225"/><use xlink:href="#588ac40af" x="552.465309" y="135.4225"/><use xlink:href="#588ac40al" x="568.227424" y="135.4225"/></g><g fill="#fff"><use xlink:href="#588ac40am" x="617.172939" y="135.4225"/><use xlink:href="#588ac40an" x="660.726151" y="135.4225"/><use xlink:href="#588ac40ao" x="713.90255" y="135.4225"/><use xlink:href="#588ac40ap" x="737.462764" y="135.4225"/><use xlink:href="#588ac40af" x="784.085441" y="135.4225"/><use xlink:href="#588ac40aq" x="799.847555" y="135.4225"/><use xlink:href="#588ac40ar" x="847.631651" y="135.4225"/><use xlink:href="#588ac40ap" x="893.756577" y="135.4225"/><use xlink:href="#588ac40as" x="940.379254" y="135.4225"/><use xlink:href="#588ac40ap" x="987.001931" y="135.4225"/></g><g fill="#fff"><use xlink:href="#588ac40an" x="1032.712065" y="135.4225"/><use xlink:href="#588ac40am" x="1085.888463" y="135.4225"/><use xlink:href="#588ac40af" x="1129.441676" y="135.4225"/><use xlink:href="#588ac40ak" x="1145.203791" y="135.4225"/><use xlink:href="#588ac40af" x="1168.266254" y="135.4225"/><use xlink:href="#588ac40at" x="1184.028369" y="135.4225"/><use xlink:href="#588ac40ae" x="1236.292224" y="135.4225"/><use xlink:href="#588ac40au" x="1279.845436" y="135.4225"/><use xlink:href="#588ac40av" x="1327.546574" y="135.4225"/><use xlink:href="#588ac40ab" x="1351.106788" y="135.4225"/><use xlink:href="#588ac40af" x="1397.729465" y="135.4225"/><use xlink:href="#588ac40aw" x="1413.49158" y="135.4225"/><use xlink:href="#588ac40ax" x="1460.114257" y="135.4225"/><use xlink:href="#588ac40ab" x="1505.409598" y="135.4225"/><use xlink:href="#588ac40ay" x="1552.032275" y="135.4225"/><use xlink:href="#588ac40ab" x="1599.401578" y="135.4225"/><use xlink:href="#588ac40au" x="1646.024255" y="135.4225"/><use xlink:href="#588ac40ad" x="1693.725393" y="135.4225"/><use xlink:href="#588ac40az" x="1741.758364" y="135.4225"/><use xlink:href="#588ac40af" x="1785.311577" y="135.4225"/><use xlink:href="#588ac40ag" x="1801.073692" y="135.4225"/><use xlink:href="#588ac40ax" x="1846.369033" y="135.4225"/><use xlink:href="#588ac40ai" x="1891.664374" y="135.4225"/></g><g fill="#fff"><use xlink:href="#588ac40ab" x="1925.09665" y="135.4225"/><use xlink:href="#588ac40aj" x="1971.719327" y="135.4225"/><use xlink:href="#588ac40ae" x="2019.420464" y="135.4225"/><use xlink:href="#588ac40af" x="2062.973677" y="135.4225"/><use xlink:href="#588ac40ak" x="2078.735792" y="135.4225"/><use xlink:href="#588ac40af" x="2101.798255" y="135.4225"/><use xlink:href="#588ac40al" x="2117.56037" y="135.4225"/></g><g fill="#fff"><use xlink:href="#588ac40am" x="2166.505885" y="135.4225"/><use xlink:href="#588ac40an" x="2210.059097" y="135.4225"/><use xlink:href="#588ac40aA" x="2263.235496" y="135.4225"/><use xlink:href="#588ac40aB" x="2327.943125" y="135.4225"/><use xlink:href="#588ac40af" x="2370.998587" y="135.4225"/></g><g fill="#fff"><use xlink:href="#588ac40an" x="-53.2147" y="253.389487"/><use xlink:href="#588ac40aC" x="-0.0383015" y="253.389487"/><use xlink:href="#588ac40am" x="48.741297" y="253.389487"/><use xlink:href="#588ac40aD" x="92.294509" y="253.389487"/><use xlink:href="#588ac40af" x="138.253518" y="253.389487"/><use xlink:href="#588ac40aE" x="154.015633" y="253.389487"/></g><g fill="#fff"><use xlink:href="#588ac40aF" x="198.232514" y="253.389487"/><use xlink:href="#588ac40aG" x="243.527855" y="253.389487"/><use xlink:href="#588ac40ap" x="291.228992" y="253.389487"/><use xlink:href="#588ac40aH" x="337.851669" y="253.389487"/><use xlink:href="#588ac40am" x="385.718724" y="253.389487"/><use xlink:href="#588ac40af" x="429.271936" y="253.389487"/><use xlink:href="#588ac40ak" x="445.034051" y="253.389487"/><use xlink:href="#588ac40af" x="468.096514" y="253.389487"/><use xlink:href="#588ac40at" x="483.858629" y="253.389487"/><use xlink:href="#588ac40ae" x="536.122484" y="253.389487"/><use xlink:href="#588ac40au" x="579.675697" y="253.389487"/><use xlink:href="#588ac40av" x="627.376834" y="253.389487"/><use xlink:href="#588ac40ab" x="650.937048" y="253.389487"/><use xlink:href="#588ac40af" x="697.559725" y="253.389487"/><use xlink:href="#588ac40ag" x="713.32184" y="253.389487"/></g><g fill="#fff"><use xlink:href="#588ac40ah" x="758.202388" y="253.389487"/><use xlink:href="#588ac40ai" x="805.737609" y="253.389487"/></g><g fill="#fff"><use xlink:href="#588ac40ab" x="839.161589" y="253.389487"/><use xlink:href="#588ac40aj" x="885.784266" y="253.389487"/><use xlink:href="#588ac40ae" x="933.485403" y="253.389487"/><use xlink:href="#588ac40af" x="977.038616" y="253.389487"/><use xlink:href="#588ac40aI" x="992.800731" y="253.389487"/><use xlink:href="#588ac40av" x="1033.450396" y="253.389487"/><use xlink:href="#588ac40ay" x="1057.01061" y="253.389487"/><use xlink:href="#588ac40aJ" x="1104.379913" y="253.389487"/><use xlink:href="#588ac40ai" x="1147.435375" y="253.389487"/></g><g fill="#fff"><use xlink:href="#588ac40aK" x="1180.701733" y="253.389487"/><use xlink:href="#588ac40af" x="1224.254946" y="253.389487"/><use xlink:href="#588ac40ak" x="1240.017061" y="253.389487"/><use xlink:href="#588ac40af" x="1263.079524" y="253.389487"/><use xlink:href="#588ac40al" x="1278.841639" y="253.389487"/></g><g fill="#fff"><use xlink:href="#588ac40am" x="1327.787154" y="253.389487"/><use xlink:href="#588ac40an" x="1371.340366" y="253.389487"/><use xlink:href="#588ac40aA" x="1424.516765" y="253.389487"/><use xlink:href="#588ac40aB" x="1489.224395" y="253.389487"/><use xlink:href="#588ac40af" x="1532.279856" y="253.389487"/><use xlink:href="#588ac40aq" x="1548.041971" y="253.389487"/><use xlink:href="#588ac40ar" x="1595.826067" y="253.389487"/><use xlink:href="#588ac40am" x="1641.950993" y="253.389487"/><use xlink:href="#588ac40as" x="1685.504206" y="253.389487"/><use xlink:href="#588ac40ap" x="1732.126883" y="253.389487"/></g><g fill="#fff"><use xlink:href="#588ac40an" x="1777.845312" y="253.389487"/><use xlink:href="#588ac40am" x="1831.021711" y="253.389487"/><use xlink:href="#588ac40af" x="1874.574923" y="253.389487"/><use xlink:href="#588ac40ak" x="1890.337038" y="253.389487"/><use xlink:href="#588ac40af" x="1913.399501" y="253.389487"/><use xlink:href="#588ac40aL" x="1929.161616" y="253.389487"/><use xlink:href="#588ac40aM" x="1987.232566" y="253.389487"/><use xlink:href="#588ac40ai" x="2010.79278" y="253.389487"/><use xlink:href="#588ac40aM" x="2045.469433" y="253.389487"/><use xlink:href="#588ac40aN" x="2069.029647" y="253.389487"/><use xlink:href="#588ac40af" x="2140.20804" y="253.389487"/></g><use xlink:href="#588ac40aO" x="2154.393944" y="253.389487" fill="#fff"/><use xlink:href="#588ac40al" x="-10.250493" y="371.356474" fill="#fff"/><g fill="#fff"><use xlink:href="#588ac40aP" x="38.454442" y="371.356474"/><use xlink:href="#588ac40am" x="81.509904" y="371.356474"/><use xlink:href="#588ac40aQ" x="125.063116" y="371.356474"/><use xlink:href="#588ac40ao" x="173.013129" y="371.356474"/></g><g fill="#fff"><use xlink:href="#588ac40aR" x="197.817721" y="371.356474"/><use xlink:href="#588ac40af" x="221.377935" y="371.356474"/><use xlink:href="#588ac40ak" x="237.14005" y="371.356474"/><use xlink:href="#588ac40af" x="260.202513" y="371.356474"/><use xlink:href="#588ac40aS" x="275.964628" y="371.356474"/></g><g fill="#fff"><use xlink:href="#588ac40aG" x="331.049072" y="371.356474"/><use xlink:href="#588ac40aA" x="378.75021" y="371.356474"/><use xlink:href="#588ac40aT" x="443.45784" y="371.356474"/><use xlink:href="#588ac40af" x="504.598254" y="371.356474"/><use xlink:href="#588ac40al" x="520.360369" y="371.356474"/></g><g fill="#fff"><use xlink:href="#588ac40aP" x="569.057009" y="371.356474"/><use xlink:href="#588ac40am" x="612.11247" y="371.356474"/><use xlink:href="#588ac40aQ" x="655.665683" y="371.356474"/><use xlink:href="#588ac40aU" x="703.615696" y="371.356474"/><use xlink:href="#588ac40aU" x="753.888546" y="371.356474"/><use xlink:href="#588ac40af" x="804.161397" y="371.356474"/><use xlink:href="#588ac40ak" x="819.923512" y="371.356474"/><use xlink:href="#588ac40af" x="842.985975" y="371.356474"/><use xlink:href="#588ac40at" x="858.74809" y="371.356474"/><use xlink:href="#588ac40ae" x="911.011945" y="371.356474"/><use xlink:href="#588ac40au" x="954.565158" y="371.356474"/><use xlink:href="#588ac40av" x="1002.266295" y="371.356474"/><use xlink:href="#588ac40ab" x="1025.826509" y="371.356474"/><use xlink:href="#588ac40af" x="1072.449186" y="371.356474"/><use xlink:href="#588ac40aw" x="1088.211301" y="371.356474"/><use xlink:href="#588ac40ac" x="1134.833979" y="371.356474"/><use xlink:href="#588ac40ab" x="1160.302238" y="371.356474"/><use xlink:href="#588ac40ay" x="1206.924915" y="371.356474"/><use xlink:href="#588ac40ab" x="1254.294219" y="371.356474"/><use xlink:href="#588ac40au" x="1300.916896" y="371.356474"/><use xlink:href="#588ac40ad" x="1348.618033" y="371.356474"/><use xlink:href="#588ac40ae" x="1396.651005" y="371.356474"/><use xlink:href="#588ac40af" x="1440.204217" y="371.356474"/><use xlink:href="#588ac40ag" x="1455.966332" y="371.356474"/><use xlink:href="#588ac40ax" x="1501.261673" y="371.356474"/><use xlink:href="#588ac40ai" x="1546.557014" y="371.356474"/></g><g fill="#fff"><use xlink:href="#588ac40ab" x="1579.98929" y="371.356474"/><use xlink:href="#588ac40aj" x="1626.611967" y="371.356474"/><use xlink:href="#588ac40ae" x="1674.313104" y="371.356474"/><use xlink:href="#588ac40af" x="1717.866317" y="371.356474"/><use xlink:href="#588ac40ak" x="1733.628432" y="371.356474"/><use xlink:href="#588ac40af" x="1756.690895" y="371.356474"/><use xlink:href="#588ac40al" x="1772.45301" y="371.356474"/></g><g fill="#fff"><use xlink:href="#588ac40am" x="1821.398525" y="371.356474"/><use xlink:href="#588ac40an" x="1864.951737" y="371.356474"/><use xlink:href="#588ac40aU" x="1918.128136" y="371.356474"/><use xlink:href="#588ac40ap" x="1968.400987" y="371.356474"/><use xlink:href="#588ac40af" x="2015.023664" y="371.356474"/><use xlink:href="#588ac40aq" x="2030.785779" y="371.356474"/><use xlink:href="#588ac40aQ" x="2078.569875" y="371.356474"/><use xlink:href="#588ac40ap" x="2126.519888" y="371.356474"/><use xlink:href="#588ac40as" x="2173.142565" y="371.356474"/><use xlink:href="#588ac40ap" x="2219.765242" y="371.356474"/></g><g fill="#fff"><use xlink:href="#588ac40ap" x="-8.334151" y="489.323461"/><use xlink:href="#588ac40aH" x="38.288526" y="489.323461"/><use xlink:href="#588ac40am" x="86.15558" y="489.323461"/><use xlink:href="#588ac40af" x="129.708793" y="489.323461"/><use xlink:href="#588ac40ak" x="145.470908" y="489.323461"/><use xlink:href="#588ac40af" x="168.533371" y="489.323461"/><use xlink:href="#588ac40at" x="184.295486" y="489.323461"/><use xlink:href="#588ac40ae" x="236.559341" y="489.323461"/><use xlink:href="#588ac40au" x="280.112553" y="489.323461"/><use xlink:href="#588ac40av" x="327.813691" y="489.323461"/><use xlink:href="#588ac40ab" x="351.373905" y="489.323461"/><use xlink:href="#588ac40af" x="397.996582" y="489.323461"/><use xlink:href="#588ac40ag" x="413.758697" y="489.323461"/><use xlink:href="#588ac40ax" x="459.054038" y="489.323461"/><use xlink:href="#588ac40ai" x="504.349379" y="489.323461"/></g><g fill="#fff"><use xlink:href="#588ac40ab" x="537.781654" y="489.323461"/><use xlink:href="#588ac40aj" x="584.404331" y="489.323461"/><use xlink:href="#588ac40ae" x="632.105469" y="489.323461"/><use xlink:href="#588ac40af" x="675.658681" y="489.323461"/><use xlink:href="#588ac40ag" x="691.420796" y="489.323461"/><use xlink:href="#588ac40af" x="736.716137" y="489.323461"/><use xlink:href="#588ac40aI" x="752.478252" y="489.323461"/><use xlink:href="#588ac40av" x="793.127917" y="489.323461"/><use xlink:href="#588ac40ai" x="816.688131" y="489.323461"/></g><g fill="#fff"><use xlink:href="#588ac40aV" x="850.120406" y="489.323461"/><use xlink:href="#588ac40af" x="893.175868" y="489.323461"/><use xlink:href="#588ac40ak" x="908.937983" y="489.323461"/><use xlink:href="#588ac40af" x="932.000446" y="489.323461"/><use xlink:href="#588ac40al" x="947.762561" y="489.323461"/></g><g fill="#fff"><use xlink:href="#588ac40am" x="996.708076" y="489.323461"/><use xlink:href="#588ac40an" x="1040.261288" y="489.323461"/><use xlink:href="#588ac40aU" x="1093.437687" y="489.323461"/><use xlink:href="#588ac40ap" x="1143.710538" y="489.323461"/><use xlink:href="#588ac40af" x="1190.333215" y="489.323461"/><use xlink:href="#588ac40aq" x="1206.09533" y="489.323461"/><use xlink:href="#588ac40ar" x="1253.879426" y="489.323461"/><use xlink:href="#588ac40ap" x="1300.004352" y="489.323461"/><use xlink:href="#588ac40as" x="1346.627029" y="489.323461"/><use xlink:href="#588ac40ap" x="1393.249706" y="489.323461"/></g><g fill="#fff"><use xlink:href="#588ac40an" x="1438.95984" y="489.323461"/><use xlink:href="#588ac40am" x="1492.136238" y="489.323461"/><use xlink:href="#588ac40af" x="1535.689451" y="489.323461"/><use xlink:href="#588ac40ak" x="1551.451566" y="489.323461"/><use xlink:href="#588ac40af" x="1574.514028" y="489.323461"/><use xlink:href="#588ac40aq" x="1590.276143" y="489.323461"/><use xlink:href="#588ac40aU" x="1638.06024" y="489.323461"/><use xlink:href="#588ac40as" x="1688.333091" y="489.323461"/><use xlink:href="#588ac40aU" x="1734.955768" y="489.323461"/><use xlink:href="#588ac40aG" x="1785.228619" y="489.323461"/><use xlink:href="#588ac40aW" x="1832.929756" y="489.323461"/></g><g fill="#fff"><use xlink:href="#588ac40af" x="1878.888765" y="489.323461"/><use xlink:href="#588ac40al" x="1894.65088" y="489.323461"/></g><g fill="#fff"><use xlink:href="#588ac40aP" x="1943.34752" y="489.323461"/><use xlink:href="#588ac40am" x="1986.402981" y="489.323461"/><use xlink:href="#588ac40aQ" x="2029.956194" y="489.323461"/><use xlink:href="#588ac40aU" x="2077.906207" y="489.323461"/><use xlink:href="#588ac40aU" x="2128.179058" y="489.323461"/><use xlink:href="#588ac40af" x="2178.451909" y="489.323461"/><use xlink:href="#588ac40ak" x="2194.214024" y="489.323461"/><use xlink:href="#588ac40af" x="2217.276487" y="489.323461"/><use xlink:href="#588ac40aX" x="2233.038602" y="489.323461"/><use xlink:href="#588ac40aX" x="2254.607812" y="489.323461"/><use xlink:href="#588ac40aX" x="2276.177022" y="489.323461"/><use xlink:href="#588ac40aX" x="2297.746232" y="489.323461"/><use xlink:href="#588ac40aX" x="2319.315442" y="489.323461"/><use xlink:href="#588ac40af" x="2340.884652" y="489.323461"/></g><g fill="#fff"><use xlink:href="#588ac40aY" x="-35.461581" y="607.290448"/><use xlink:href="#588ac40aG" x="0.791284" y="607.290448"/><use xlink:href="#588ac40am" x="48.492421" y="607.290448"/><use xlink:href="#588ac40aZ" x="92.045634" y="607.290448"/><use xlink:href="#588ac40af" x="156.255513" y="607.290448"/><use xlink:href="#588ac40ak" x="172.017628" y="607.290448"/><use xlink:href="#588ac40af" x="195.080091" y="607.290448"/></g><g fill="#393d41"><use xlink:href="#588ac40at" x="210.8376" y="607.1865"/><use xlink:href="#588ac40ae" x="263.101455" y="607.1865"/><use xlink:href="#588ac40au" x="306.654667" y="607.1865"/><use xlink:href="#588ac40av" x="354.355805" y="607.1865"/><use xlink:href="#588ac40ab" x="377.916019" y="607.1865"/><use xlink:href="#588ac40af" x="424.538696" y="607.1865"/><use xlink:href="#588ac40aI" x="440.300811" y="607.1865"/><use xlink:href="#588ac40av" x="480.950476" y="607.1865"/><use xlink:href="#588ac40ay" x="504.51069" y="607.1865"/><use xlink:href="#588ac40aJ" x="551.879993" y="607.1865"/><use xlink:href="#588ac40ai" x="594.935455" y="607.1865"/><use xlink:href="#588ac40aaa" x="629.612108" y="607.1865"/><use xlink:href="#588ac40aab" x="665.699055" y="607.1865"/></g><g fill="#fff"><use xlink:href="#588ac40af" x="710.0772" y="607.1865"/><use xlink:href="#588ac40ak" x="725.839315" y="607.1865"/><use xlink:href="#588ac40af" x="748.901778" y="607.1865"/><use xlink:href="#588ac40aac" x="764.663893" y="607.1865"/></g><g fill="#fff"><use xlink:href="#588ac40ab" x="813.360532" y="607.1865"/><use xlink:href="#588ac40ac" x="859.983209" y="607.1865"/></g><use xlink:href="#588ac40aab" x="884.207091" y="607.1865" fill="#fff"/><g fill="#fff"><use xlink:href="#588ac40aad" x="928.009179" y="607.1865"/><use xlink:href="#588ac40ai" x="975.5444" y="607.1865"/></g><g fill="#fff"><use xlink:href="#588ac40ae" x="1008.810758" y="607.1865"/><use xlink:href="#588ac40aj" x="1052.363971" y="607.1865"/><use xlink:href="#588ac40aae" x="1100.065108" y="607.1865"/><use xlink:href="#588ac40af" x="1147.932163" y="607.1865"/><use xlink:href="#588ac40ak" x="1163.694278" y="607.1865"/><use xlink:href="#588ac40af" x="1186.756741" y="607.1865"/></g><g fill="#fff"><use xlink:href="#588ac40aaf" x="1200.942644" y="607.1865"/><use xlink:href="#588ac40aag" x="1254.367918" y="607.1865"/><use xlink:href="#588ac40am" x="1293.52433" y="607.1865"/></g><use xlink:href="#588ac40aah" x="1336.330916" y="607.1865" fill="#fff"/><g fill="#fff"><use xlink:href="#588ac40aQ" x="1374.325909" y="607.1865"/><use xlink:href="#588ac40aA" x="1422.275922" y="607.1865"/><use xlink:href="#588ac40aai" x="1486.983552" y="607.1865"/><use xlink:href="#588ac40af" x="1534.021022" y="607.1865"/><use xlink:href="#588ac40al" x="1549.783137" y="607.1865"/></g><g fill="#fff"><use xlink:href="#588ac40am" x="1598.728652" y="607.1865"/><use xlink:href="#588ac40an" x="1642.281864" y="607.1865"/><use xlink:href="#588ac40aU" x="1695.458263" y="607.1865"/><use xlink:href="#588ac40ap" x="1745.731114" y="607.1865"/><use xlink:href="#588ac40aaj" x="1792.353791" y="607.1865"/><use xlink:href="#588ac40aA" x="1831.095411" y="607.1865"/><use xlink:href="#588ac40af" x="1895.803041" y="607.1865"/><use xlink:href="#588ac40ak" x="1911.565156" y="607.1865"/><use xlink:href="#588ac40af" x="1934.627619" y="607.1865"/><use xlink:href="#588ac40aak" x="1950.389734" y="607.1865"/></g><g fill="#fff"><use xlink:href="#588ac40au" x="1975.194325" y="607.1865"/><use xlink:href="#588ac40aJ" x="2022.895463" y="607.1865"/><use xlink:href="#588ac40ac" x="2065.950924" y="607.1865"/><use xlink:href="#588ac40af" x="2091.419184" y="607.1865"/><use xlink:href="#588ac40al" x="2107.181299" y="607.1865"/></g><g fill="#fff"><use xlink:href="#588ac40aP" x="2155.877938" y="607.1865"/><use xlink:href="#588ac40am" x="2198.9334" y="607.1865"/><use xlink:href="#588ac40aQ" x="2242.486612" y="607.1865"/><use xlink:href="#588ac40aU" x="2290.436625" y="607.1865"/><use xlink:href="#588ac40aU" x="2340.709476" y="607.1865"/><use xlink:href="#588ac40af" x="2390.982327" y="607.1865"/></g><g fill="#fff"><use xlink:href="#588ac40aai" x="-20.704226" y="725.153487"/><use xlink:href="#588ac40am" x="25.918451" y="725.153487"/></g><use xlink:href="#588ac40aag" x="69.471663" y="725.153487" fill="#fff"/><use xlink:href="#588ac40af" x="108.628075" y="725.153487" fill="#fff"/><use xlink:href="#588ac40al" x="124.39019" y="725.153487" fill="#fff"/><g fill="#fff"><use xlink:href="#588ac40aP" x="172.672037" y="725.153487"/><use xlink:href="#588ac40am" x="215.312706" y="725.153487"/><use xlink:href="#588ac40aQ" x="258.451126" y="725.153487"/><use xlink:href="#588ac40aU" x="305.986347" y="725.153487"/><use xlink:href="#588ac40aU" x="355.844405" y="725.153487"/><use xlink:href="#588ac40af" x="405.702464" y="725.153487"/><use xlink:href="#588ac40ak" x="421.049786" y="725.153487"/><use xlink:href="#588ac40af" x="443.697457" y="725.153487"/><use xlink:href="#588ac40aal" x="459.044779" y="725.153487"/><use xlink:href="#588ac40am" x="532.960803" y="725.153487"/><use xlink:href="#588ac40aG" x="576.099223" y="725.153487"/><use xlink:href="#588ac40aam" x="623.385568" y="725.153487"/><use xlink:href="#588ac40ap" x="687.595447" y="725.153487"/><use xlink:href="#588ac40af" x="733.803331" y="725.153487"/><use xlink:href="#588ac40al" x="749.150654" y="725.153487"/></g><g fill="#fff"><use xlink:href="#588ac40am" x="797.681376" y="725.153487"/><use xlink:href="#588ac40an" x="840.819796" y="725.153487"/><use xlink:href="#588ac40aU" x="893.581402" y="725.153487"/><use xlink:href="#588ac40ap" x="943.439461" y="725.153487"/><use xlink:href="#588ac40af" x="989.647345" y="725.153487"/><use xlink:href="#588ac40ak" x="1004.994668" y="725.153487"/><use xlink:href="#588ac40af" x="1027.642338" y="725.153487"/><use xlink:href="#588ac40al" x="1042.989661" y="725.153487"/></g><g fill="#fff"><use xlink:href="#588ac40am" x="1091.528679" y="725.153487"/><use xlink:href="#588ac40an" x="1134.667099" y="725.153487"/><use xlink:href="#588ac40aU" x="1187.428705" y="725.153487"/><use xlink:href="#588ac40ap" x="1237.286763" y="725.153487"/><use xlink:href="#588ac40af" x="1283.494648" y="725.153487"/></g><g fill="#fff"><use xlink:href="#588ac40aaf" x="1297.265759" y="725.153487"/><use xlink:href="#588ac40aag" x="1350.27624" y="725.153487"/><use xlink:href="#588ac40am" x="1389.01786" y="725.153487"/></g><g fill="#fff"><use xlink:href="#588ac40aah" x="1431.409653" y="725.153487"/><use xlink:href="#588ac40aan" x="1472.888903" y="725.153487"/><use xlink:href="#588ac40aah" x="1517.769452" y="725.153487"/><use xlink:href="#588ac40aao" x="1559.248702" y="725.153487"/><use xlink:href="#588ac40aC" x="1623.707456" y="725.153487"/><use xlink:href="#588ac40af" x="1672.072262" y="725.153487"/><use xlink:href="#588ac40ak" x="1687.419584" y="725.153487"/><use xlink:href="#588ac40af" x="1710.067255" y="725.153487"/></g><g fill="#fff"><use xlink:href="#588ac40aO" x="1723.838366" y="725.153487"/><use xlink:href="#588ac40aap" x="1776.848847" y="725.153487"/><use xlink:href="#588ac40ae" x="1818.825848" y="725.153487"/><use xlink:href="#588ac40au" x="1861.964268" y="725.153487"/><use xlink:href="#588ac40ac" x="1909.250613" y="725.153487"/><use xlink:href="#588ac40aM" x="1934.30408" y="725.153487"/><use xlink:href="#588ac40aaq" x="1957.449502" y="725.153487"/><use xlink:href="#588ac40af" x="2004.404013" y="725.153487"/><use xlink:href="#588ac40at" x="2019.751335" y="725.153487"/><use xlink:href="#588ac40ae" x="2071.600398" y="725.153487"/><use xlink:href="#588ac40au" x="2114.738818" y="725.153487"/><use xlink:href="#588ac40av" x="2162.025163" y="725.153487"/><use xlink:href="#588ac40ab" x="2185.170584" y="725.153487"/><use xlink:href="#588ac40aar" x="2231.378469" y="725.153487"/><use xlink:href="#588ac40ah" x="2269.622337" y="725.153487"/><use xlink:href="#588ac40af" x="2316.742765" y="725.153487"/><use xlink:href="#588ac40aX" x="2332.090088" y="725.153487"/><use xlink:href="#588ac40aX" x="2353.244505" y="725.153487"/></g><use xlink:href="#588ac40aU" x="-18.630264" y="843.120474" fill="#fff"/><use xlink:href="#588ac40ap" x="31.227795" y="843.120474" fill="#fff"/><use xlink:href="#588ac40af" x="77.435679" y="843.120474" fill="#fff"/><g fill="#fff"><use xlink:href="#588ac40aaf" x="91.20679" y="843.120474"/><use xlink:href="#588ac40aag" x="144.632064" y="843.120474"/><use xlink:href="#588ac40am" x="183.788476" y="843.120474"/><use xlink:href="#588ac40an" x="227.341689" y="843.120474"/><use xlink:href="#588ac40aQ" x="280.518087" y="843.120474"/><use xlink:href="#588ac40aA" x="328.4681" y="843.120474"/><use xlink:href="#588ac40aY" x="393.17573" y="843.120474"/></g><g fill="#fff"><use xlink:href="#588ac40af" x="428.681968" y="843.120474"/><use xlink:href="#588ac40ak" x="444.444083" y="843.120474"/><use xlink:href="#588ac40af" x="467.506546" y="843.120474"/><use xlink:href="#588ac40aas" x="483.268661" y="843.120474"/></g><use xlink:href="#588ac40aat" x="530.720923" y="843.120474" fill="#fff"/><g fill="#fff"><use xlink:href="#588ac40ap" x="573.610468" y="843.120474"/><use xlink:href="#588ac40af" x="620.233144" y="843.120474"/><use xlink:href="#588ac40aS" x="635.995259" y="843.120474"/><use xlink:href="#588ac40am" x="691.494496" y="843.120474"/><use xlink:href="#588ac40ar" x="735.047708" y="843.120474"/><use xlink:href="#588ac40aai" x="781.172634" y="843.120474"/></g><g fill="#fff"><use xlink:href="#588ac40am" x="827.795312" y="843.120474"/><use xlink:href="#588ac40aag" x="871.348524" y="843.120474"/><use xlink:href="#588ac40am" x="910.504936" y="843.120474"/><use xlink:href="#588ac40af" x="954.058149" y="843.120474"/><use xlink:href="#588ac40ak" x="969.820264" y="843.120474"/><use xlink:href="#588ac40af" x="992.882726" y="843.120474"/><use xlink:href="#588ac40at" x="1008.644841" y="843.120474"/><use xlink:href="#588ac40ae" x="1060.908696" y="843.120474"/><use xlink:href="#588ac40au" x="1104.461909" y="843.120474"/><use xlink:href="#588ac40av" x="1152.163046" y="843.120474"/><use xlink:href="#588ac40ab" x="1175.72326" y="843.120474"/><use xlink:href="#588ac40af" x="1222.345937" y="843.120474"/><use xlink:href="#588ac40aau" x="1238.108052" y="843.120474"/></g><g fill="#fff"><use xlink:href="#588ac40ae" x="1279.17251" y="843.120474"/><use xlink:href="#588ac40ai" x="1322.725722" y="843.120474"/></g><g fill="#fff"><use xlink:href="#588ac40au" x="1356.166294" y="843.120474"/><use xlink:href="#588ac40ae" x="1403.867431" y="843.120474"/><use xlink:href="#588ac40af" x="1447.420644" y="843.120474"/><use xlink:href="#588ac40ak" x="1463.182759" y="843.120474"/><use xlink:href="#588ac40af" x="1486.245222" y="843.120474"/></g><g fill="#fff"><use xlink:href="#588ac40aaf" x="1500.431125" y="843.120474"/><use xlink:href="#588ac40aag" x="1553.856399" y="843.120474"/><use xlink:href="#588ac40am" x="1593.012811" y="843.120474"/></g><use xlink:href="#588ac40aah" x="1635.819397" y="843.120474" fill="#fff"/><g fill="#fff"><use xlink:href="#588ac40af" x="1676.966813" y="843.120474"/><use xlink:href="#588ac40aE" x="1692.728928" y="843.120474"/></g><g fill="#fff"><use xlink:href="#588ac40aan" x="1736.945809" y="843.120474"/><use xlink:href="#588ac40aG" x="1782.24115" y="843.120474"/><use xlink:href="#588ac40ap" x="1829.942287" y="843.120474"/><use xlink:href="#588ac40aH" x="1876.564964" y="843.120474"/><use xlink:href="#588ac40am" x="1924.432019" y="843.120474"/><use xlink:href="#588ac40af" x="1967.985231" y="843.120474"/><use xlink:href="#588ac40ak" x="1983.747346" y="843.120474"/><use xlink:href="#588ac40af" x="2006.809809" y="843.120474"/></g><g fill="#fff"><use xlink:href="#588ac40aaf" x="2020.995713" y="843.120474"/><use xlink:href="#588ac40aag" x="2074.420987" y="843.120474"/><use xlink:href="#588ac40am" x="2113.577399" y="843.120474"/></g><g fill="#fff"><use xlink:href="#588ac40aah" x="2156.383985" y="843.120474"/><use xlink:href="#588ac40aah" x="2198.278027" y="843.120474"/><use xlink:href="#588ac40aA" x="2240.17207" y="843.120474"/><use xlink:href="#588ac40aav" x="2304.8797" y="843.120474"/><use xlink:href="#588ac40af" x="2356.231011" y="843.120474"/></g><g fill="#fff"><use xlink:href="#588ac40aU" x="0.864984" y="961.087461"/><use xlink:href="#588ac40ap" x="51.137835" y="961.087461"/><use xlink:href="#588ac40aaj" x="97.760512" y="961.087461"/><use xlink:href="#588ac40aA" x="136.502131" y="961.087461"/><use xlink:href="#588ac40af" x="201.209761" y="961.087461"/><use xlink:href="#588ac40ak" x="216.971876" y="961.087461"/><use xlink:href="#588ac40af" x="240.034339" y="961.087461"/><use xlink:href="#588ac40al" x="255.796454" y="961.087461"/></g><g fill="#fff"><use xlink:href="#588ac40am" x="304.741969" y="961.087461"/><use xlink:href="#588ac40an" x="348.295182" y="961.087461"/><use xlink:href="#588ac40aU" x="401.47158" y="961.087461"/><use xlink:href="#588ac40ap" x="451.744431" y="961.087461"/><use xlink:href="#588ac40af" x="498.367108" y="961.087461"/></g><g fill="#fff"><use xlink:href="#588ac40aaf" x="512.553012" y="961.087461"/><use xlink:href="#588ac40aag" x="565.978286" y="961.087461"/><use xlink:href="#588ac40am" x="605.134698" y="961.087461"/></g><g fill="#fff"><use xlink:href="#588ac40aah" x="647.941284" y="961.087461"/><use xlink:href="#588ac40aah" x="689.835326" y="961.087461"/><use xlink:href="#588ac40aA" x="731.729368" y="961.087461"/><use xlink:href="#588ac40aai" x="796.436998" y="961.087461"/><use xlink:href="#588ac40af" x="843.474468" y="961.087461"/><use xlink:href="#588ac40ak" x="859.236583" y="961.087461"/><use xlink:href="#588ac40af" x="882.299046" y="961.087461"/></g><g fill="#fff"><use xlink:href="#588ac40aaf" x="896.476654" y="961.087461"/><use xlink:href="#588ac40aag" x="949.901928" y="961.087461"/><use xlink:href="#588ac40am" x="989.05834" y="961.087461"/></g><g fill="#fff"><use xlink:href="#588ac40aah" x="1031.864926" y="961.087461"/><use xlink:href="#588ac40aah" x="1073.758968" y="961.087461"/><use xlink:href="#588ac40aA" x="1115.653011" y="961.087461"/><use xlink:href="#588ac40aai" x="1180.360641" y="961.087461"/><use xlink:href="#588ac40af" x="1227.39811" y="961.087461"/></g><use xlink:href="#588ac40aaw" x="1241.335138" y="961.087461" fill="#fff"/><g fill="#fff"><use xlink:href="#588ac40aC" x="1287.377106" y="961.087461"/><use xlink:href="#588ac40am" x="1336.156704" y="961.087461"/><use xlink:href="#588ac40aQ" x="1379.709916" y="961.087461"/><use xlink:href="#588ac40aY" x="1427.659929" y="961.087461"/><use xlink:href="#588ac40aA" x="1463.912794" y="961.087461"/><use xlink:href="#588ac40aaj" x="1528.620424" y="961.087461"/><use xlink:href="#588ac40aA" x="1567.362043" y="961.087461"/><use xlink:href="#588ac40af" x="1632.069673" y="961.087461"/><use xlink:href="#588ac40ak" x="1647.831788" y="961.087461"/><use xlink:href="#588ac40af" x="1670.894251" y="961.087461"/><use xlink:href="#588ac40al" x="1686.656366" y="961.087461"/></g><g fill="#fff"><use xlink:href="#588ac40am" x="1735.610177" y="961.087461"/><use xlink:href="#588ac40an" x="1779.16339" y="961.087461"/><use xlink:href="#588ac40aU" x="1832.339788" y="961.087461"/><use xlink:href="#588ac40ap" x="1882.612639" y="961.087461"/><use xlink:href="#588ac40af" x="1929.235316" y="961.087461"/></g><g fill="#fff"><use xlink:href="#588ac40aaf" x="1943.42122" y="961.087461"/><use xlink:href="#588ac40aag" x="1996.846494" y="961.087461"/><use xlink:href="#588ac40am" x="2036.002906" y="961.087461"/></g><g fill="#fff"><use xlink:href="#588ac40aah" x="2078.809492" y="961.087461"/><use xlink:href="#588ac40aah" x="2120.703534" y="961.087461"/><use xlink:href="#588ac40aA" x="2162.597577" y="961.087461"/><use xlink:href="#588ac40aai" x="2227.305207" y="961.087461"/><use xlink:href="#588ac40af" x="2274.342676" y="961.087461"/><use xlink:href="#588ac40ak" x="2290.104791" y="961.087461"/><use xlink:href="#588ac40af" x="2313.167254" y="961.087461"/></g><g fill="#fff"><use xlink:href="#588ac40ap" x="-69.317907" y="1079.054448"/><use xlink:href="#588ac40aU" x="-22.69523" y="1079.054448"/><use xlink:href="#588ac40af" x="27.577621" y="1079.054448"/></g><g fill="#fff"><use xlink:href="#588ac40aaf" x="40.104354" y="1079.054448"/><use xlink:href="#588ac40ar" x="93.529628" y="1079.054448"/><use xlink:href="#588ac40aG" x="139.654554" y="1079.054448"/></g><g fill="#fff"><use xlink:href="#588ac40aan" x="186.028356" y="1079.054448"/><use xlink:href="#588ac40aH" x="231.323697" y="1079.054448"/><use xlink:href="#588ac40ap" x="279.190751" y="1079.054448"/><use xlink:href="#588ac40aU" x="325.813428" y="1079.054448"/><use xlink:href="#588ac40af" x="376.086279" y="1079.054448"/><use xlink:href="#588ac40aax" x="391.848394" y="1079.054448"/></g><g fill="#fff"><use xlink:href="#588ac40aag" x="449.670469" y="1079.054448"/><use xlink:href="#588ac40ap" x="488.826881" y="1079.054448"/></g><g fill="#fff"><use xlink:href="#588ac40an" x="534.537014" y="1079.054448"/><use xlink:href="#588ac40af" x="587.713413" y="1079.054448"/><use xlink:href="#588ac40ak" x="603.475528" y="1079.054448"/><use xlink:href="#588ac40af" x="626.537991" y="1079.054448"/><use xlink:href="#588ac40al" x="642.300106" y="1079.054448"/></g><g fill="#fff"><use xlink:href="#588ac40am" x="691.245621" y="1079.054448"/><use xlink:href="#588ac40an" x="734.798833" y="1079.054448"/><use xlink:href="#588ac40aU" x="787.975232" y="1079.054448"/><use xlink:href="#588ac40ap" x="838.248083" y="1079.054448"/><use xlink:href="#588ac40aU" x="884.870759" y="1079.054448"/><use xlink:href="#588ac40af" x="935.14361" y="1079.054448"/><use xlink:href="#588ac40aax" x="950.905725" y="1079.054448"/></g><g fill="#fff"><use xlink:href="#588ac40aag" x="1008.7278" y="1079.054448"/><use xlink:href="#588ac40ap" x="1047.884212" y="1079.054448"/></g><g fill="#fff"><use xlink:href="#588ac40an" x="1093.594345" y="1079.054448"/><use xlink:href="#588ac40aay" x="1146.770744" y="1079.054448"/><use xlink:href="#588ac40af" x="1197.043595" y="1079.054448"/><use xlink:href="#588ac40ak" x="1212.80571" y="1079.054448"/><use xlink:href="#588ac40af" x="1235.868173" y="1079.054448"/><use xlink:href="#588ac40al" x="1251.630288" y="1079.054448"/></g><g fill="#fff"><use xlink:href="#588ac40am" x="1300.575803" y="1079.054448"/><use xlink:href="#588ac40an" x="1344.129015" y="1079.054448"/><use xlink:href="#588ac40aU" x="1397.305414" y="1079.054448"/><use xlink:href="#588ac40ap" x="1447.578265" y="1079.054448"/><use xlink:href="#588ac40af" x="1494.200942" y="1079.054448"/><use xlink:href="#588ac40aax" x="1509.963057" y="1079.054448"/></g><g fill="#fff"><use xlink:href="#588ac40aag" x="1567.785132" y="1079.054448"/><use xlink:href="#588ac40ap" x="1606.941544" y="1079.054448"/></g><g fill="#fff"><use xlink:href="#588ac40an" x="1652.659973" y="1079.054448"/><use xlink:href="#588ac40aU" x="1705.836371" y="1079.054448"/><use xlink:href="#588ac40af" x="1756.109222" y="1079.054448"/><use xlink:href="#588ac40ak" x="1771.871337" y="1079.054448"/><use xlink:href="#588ac40af" x="1794.9338" y="1079.054448"/></g><g fill="#fff"><use xlink:href="#588ac40aO" x="1809.119704" y="1079.054448"/><use xlink:href="#588ac40aap" x="1862.544978" y="1079.054448"/><use xlink:href="#588ac40ae" x="1904.936771" y="1079.054448"/></g><g fill="#fff"><use xlink:href="#588ac40aaa" x="1948.241108" y="1079.054448"/><use xlink:href="#588ac40af" x="1984.328056" y="1079.054448"/></g><use xlink:href="#588ac40aaz" x="1998.265084" y="1079.054448" fill="#fff"/><use xlink:href="#588ac40aJ" x="2041.486462" y="1079.054448" fill="#fff"/><g fill="#fff"><use xlink:href="#588ac40aaA" x="2083.297546" y="1079.054448"/><use xlink:href="#588ac40ai" x="2153.729313" y="1079.054448"/></g><g fill="#fff"><use xlink:href="#588ac40ab" x="2187.161588" y="1079.054448"/><use xlink:href="#588ac40aj" x="2233.784265" y="1079.054448"/><use xlink:href="#588ac40ae" x="2281.485403" y="1079.054448"/><use xlink:href="#588ac40af" x="2325.038615" y="1079.054448"/><use xlink:href="#588ac40ak" x="2340.80073" y="1079.054448"/><use xlink:href="#588ac40af" x="2363.863193" y="1079.054448"/></g><g fill="#fff"><use xlink:href="#588ac40aab" x="-106.317398" y="1197.021435"/><use xlink:href="#588ac40aaB" x="-61.022057" y="1197.021435"/><use xlink:href="#588ac40af" x="-13.735712" y="1197.021435"/><use xlink:href="#588ac40at" x="2.026403" y="1197.021435"/><use xlink:href="#588ac40ae" x="54.290258" y="1197.021435"/><use xlink:href="#588ac40au" x="97.84347" y="1197.021435"/><use xlink:href="#588ac40av" x="145.544608" y="1197.021435"/><use xlink:href="#588ac40ab" x="169.104822" y="1197.021435"/><use xlink:href="#588ac40aar" x="215.727499" y="1197.021435"/></g><use xlink:href="#588ac40aab" x="253.141782" y="1197.021435" fill="#fff"/><g fill="#fff"><use xlink:href="#588ac40af" x="297.52458" y="1197.021435"/><use xlink:href="#588ac40ak" x="313.286695" y="1197.021435"/><use xlink:href="#588ac40af" x="336.349158" y="1197.021435"/><use xlink:href="#588ac40al" x="352.111273" y="1197.021435"/></g><g fill="#fff"><use xlink:href="#588ac40am" x="401.056788" y="1197.021435"/><use xlink:href="#588ac40an" x="444.61" y="1197.021435"/><use xlink:href="#588ac40aU" x="497.786399" y="1197.021435"/><use xlink:href="#588ac40ap" x="548.059249" y="1197.021435"/><use xlink:href="#588ac40af" x="594.681926" y="1197.021435"/></g><g fill="#fff"><use xlink:href="#588ac40aaf" x="608.859534" y="1197.021435"/><use xlink:href="#588ac40aag" x="662.284808" y="1197.021435"/><use xlink:href="#588ac40am" x="701.44122" y="1197.021435"/></g><use xlink:href="#588ac40aah" x="744.247806" y="1197.021435" fill="#fff"/><g fill="#fff"><use xlink:href="#588ac40aQ" x="782.242799" y="1197.021435"/><use xlink:href="#588ac40aA" x="830.192812" y="1197.021435"/><use xlink:href="#588ac40aai" x="894.900442" y="1197.021435"/><use xlink:href="#588ac40af" x="941.937912" y="1197.021435"/><use xlink:href="#588ac40ak" x="957.700027" y="1197.021435"/><use xlink:href="#588ac40af" x="980.76249" y="1197.021435"/><use xlink:href="#588ac40aax" x="996.524605" y="1197.021435"/></g><g fill="#fff"><use xlink:href="#588ac40aag" x="1054.346679" y="1197.021435"/><use xlink:href="#588ac40ap" x="1093.503091" y="1197.021435"/></g><g fill="#fff"><use xlink:href="#588ac40an" x="1139.213225" y="1197.021435"/><use xlink:href="#588ac40aQ" x="1192.389623" y="1197.021435"/><use xlink:href="#588ac40aU" x="1240.339636" y="1197.021435"/><use xlink:href="#588ac40aai" x="1290.612487" y="1197.021435"/><use xlink:href="#588ac40af" x="1337.649957" y="1197.021435"/><use xlink:href="#588ac40al" x="1353.412072" y="1197.021435"/></g><g fill="#fff"><use xlink:href="#588ac40am" x="1402.357587" y="1197.021435"/><use xlink:href="#588ac40an" x="1445.910799" y="1197.021435"/><use xlink:href="#588ac40aU" x="1499.087198" y="1197.021435"/><use xlink:href="#588ac40ap" x="1549.360049" y="1197.021435"/><use xlink:href="#588ac40aaj" x="1595.982726" y="1197.021435"/><use xlink:href="#588ac40aU" x="1634.724345" y="1197.021435"/><use xlink:href="#588ac40af" x="1684.997196" y="1197.021435"/><use xlink:href="#588ac40ak" x="1700.759311" y="1197.021435"/><use xlink:href="#588ac40af" x="1723.821774" y="1197.021435"/><use xlink:href="#588ac40al" x="1739.583889" y="1197.021435"/></g><g fill="#fff"><use xlink:href="#588ac40am" x="1788.529404" y="1197.021435"/><use xlink:href="#588ac40an" x="1832.082617" y="1197.021435"/><use xlink:href="#588ac40aU" x="1885.259015" y="1197.021435"/><use xlink:href="#588ac40ap" x="1935.531866" y="1197.021435"/><use xlink:href="#588ac40af" x="1982.154543" y="1197.021435"/><use xlink:href="#588ac40aax" x="1997.916658" y="1197.021435"/></g><g fill="#fff"><use xlink:href="#588ac40aag" x="2055.738733" y="1197.021435"/><use xlink:href="#588ac40ap" x="2094.895145" y="1197.021435"/></g><use xlink:href="#588ac40an" x="2140.605278" y="1197.021435" fill="#fff"/></svg>