<?xml version='1.0' encoding='UTF-8'?>
<svg xmlns="http://www.w3.org/2000/svg" xmlns:xlink="http://www.w3.org/1999/xlink" width="450px" height="260px" viewBox="0 0 450 260" y="0px" x="0px" enable-background="new 0 0 450 260"><defs><symbol overflow="visible" id="405c1034a"><path d="M1.172-7.063c0 4.11 2.187 7.297 6.5 7.297 1.562 0 3.047-.359 4.25-1l-.563-1.609c-1.046.469-2.203.766-3.39.766-3.485 0-4.625-2.75-4.625-5.61 0-1.781.437-3.578 1.578-4.765.734-.735 1.703-1.157 2.953-1.157 1.188 0 2.203.313 3.219.86l.781-1.594c-.969-.625-2.344-1.11-3.984-1.11-4.61 0-6.72 3.922-6.72 7.922zm0 0"/></symbol><symbol overflow="visible" id="405c1034b"><path d="M8.14-10.344L5.438-2.156h-.093a13.218 13.218 0 0 0-.532-2.094l-2.015-6.094H.703c0 .36.094.688.203 1.031L4.266 0h.468C3.656 2.625 2.438 3.734.484 3.766v1.609c.282.031.579.078 1.032.078 1.937 0 3.406-1.422 4.78-4.906l3.61-9.86c.125-.328.219-.656.219-1.03zm0 0"/></symbol><symbol overflow="visible" id="405c1034c"><path d="M1.516-10.297c.171 2.328.218 3.281.218 4.11V0h2.032v-6.844c.703-1.125 1.578-1.578 2.578-1.578.406 0 .765.047 1.187.156l.36-1.921a2.703 2.703 0 0 0-1.438-.391c-1.172 0-2.094.719-2.828 1.969l-.39-1.907zm0 0"/></symbol><symbol overflow="visible" id="405c1034d"><path d="M1.688-10.313V0h2.03v-10.36zm-.282-3.218c0 .75.5 1.219 1.282 1.219.828 0 1.359-.563 1.359-1.376 0-.718-.484-1.234-1.25-1.234-.813 0-1.39.578-1.39 1.39zm0 0"/></symbol><symbol overflow="visible" id="405c1034e"><path d="M1.656-16.484v14.547c0 1.406.703 2.171 2 2.171.594 0 1.25-.125 1.89-.359L5.11-1.672c-.312.11-.578.156-.796.156-.438 0-.61-.265-.61-.921v-14.079zm0 0"/></symbol><symbol overflow="visible" id="405c1034f"><path d="M1.125-4.89c0 3.202 1.75 5.124 4.64 5.124.985 0 2.157-.25 3.25-.765l-.453-1.516c-.921.328-1.812.5-2.53.5-1.813 0-2.845-1.11-2.845-3.578 0-1.5.376-2.64 1.079-3.219.39-.297.875-.5 1.515-.5.813 0 1.563.328 2.407.969l.937-1.234c-.828-.97-1.844-1.47-3.203-1.47-2.906 0-4.797 2.313-4.797 5.688zm0 0"/></symbol><symbol overflow="visible" id="405c1034h"><path d="M1.313-8.906l.75 1.265c1.062-.734 2.187-1.187 3.171-1.187 1.235 0 1.72.687 1.72 2.734V-6c-2.329.188-3.735.516-4.626 1.078C1.453-4.375.875-3.469.875-2.359.875-.766 1.906.234 3.609.234c1.25 0 2.47-.546 3.516-1.484L7.453.125l1.703-.234C9-2.36 8.953-3.281 8.953-4.063v-2.625c0-2.734-1.031-3.89-3.297-3.89-1.718 0-3.187.672-4.343 1.672zm2.75 7.547c-.782 0-1.204-.438-1.204-1.266 0-.61.266-.984.61-1.219.469-.297 1.39-.531 3.484-.703v1.89c-1.016.829-2.047 1.298-2.89 1.298zm0 0"/></symbol><symbol overflow="visible" id="405c1034i"><path d="M1.516-10.297c.171 2.281.218 3.281.218 4.11V0h2.032v-7.703c.89-.719 1.89-1.203 2.875-1.203 1.28 0 1.609.86 1.609 2.61V0h2.047v-7.063c0-2.28-.86-3.578-3.125-3.578-1.438 0-2.578.516-3.625 1.532l-.313-1.407zm0 0"/></symbol><symbol overflow="visible" id="405c1034j"><path d="M5.516-1.453C4-1.453 3.187-2.97 3.187-5.22c0-1.234.266-2.375.954-3.047.39-.421.968-.64 1.796-.64a4.2 4.2 0 0 1 2.157.562v5.61c-.86.796-1.719 1.28-2.578 1.28zM1.094-4.797C1.125-1.875 2.844.313 5.14.313c1.234 0 2.25-.594 3.171-1.547L8.626.109l1.688-.218c-.157-2.141-.172-3.016-.172-3.782v-12.625l-2.047.032v6.547c-.688-.454-1.344-.704-2.219-.704-3.11 0-4.797 2.97-4.781 5.844zm0 0"/></symbol><symbol overflow="visible" id="405c1034k"><path d="M1.172-7.016c0 4.063 2.156 7.25 6.687 7.25 1.563 0 3.047-.359 4.344-1.046v-6.625h-5.14v1.78h3.171v3.766c-.734.172-1.484.282-2.203.282-3.547 0-4.687-2.766-4.687-5.61 0-1.875.484-3.578 1.672-4.75.687-.687 1.625-1.172 3-1.172 1.187 0 2.218.313 3.265.891l.781-1.625c-1.156-.719-2.453-1.11-3.937-1.11-4.688 0-6.953 3.876-6.953 7.97zm0 0"/></symbol><symbol overflow="visible" id="405c1034l"><path d="M1.094-4.906c0 3.343 1.937 5.14 4.578 5.14a8.92 8.92 0 0 0 3.812-.843L8.97-2.047c-.953.36-2.078.5-2.938.5-1.625 0-2.703-.922-2.843-3.094h6.359c.11-.53.172-1.171.172-1.734 0-2.422-1.25-4.25-3.828-4.25-2.97 0-4.797 2.531-4.797 5.719zm4.64-4.047c1.329 0 1.97.906 1.97 2.203 0 .219 0 .453-.032.672H3.219c.219-1.781 1.047-2.875 2.515-2.875zm0 0"/></symbol><symbol overflow="visible" id="405c1034m"><path d="M8.297-10.344L3.734-5.14v-11.375l-2.046.032V0h2.046v-2.64l1.547-1.657L8.421 0h2.22a2.61 2.61 0 0 0-.516-1.016L6.578-5.703l3.234-3.719c.313-.328.485-.625.532-.922zm0 0"/></symbol><symbol overflow="visible" id="405c1034n"><path d="M.969-10.344c.015.36.172.688.422 1.031l2.593 3.907-2.906 4.39C.844-.687.688-.375.688 0h1.89l2.594-4.063h.047L7.875 0h2.063c-.016-.375-.172-.703-.391-1.031L6.578-5.406l2.625-3.907a2.42 2.42 0 0 0 .406-1.03H7.672L5.39-6.704h-.063l-2.187-3.64zm0 0"/></symbol><symbol overflow="visible" id="405c1034o"><path d="M2.625-13.422l-.469 3.078H.72v1.703h1.547v5.516c0 2.594.859 3.36 2.53 3.36.829 0 1.907-.172 2.845-.5l-.407-1.516a7.521 7.521 0 0 1-1.64.218c-1.016 0-1.297-.437-1.297-2.109V-8.64h3.156v-1.703H4.297v-3.078zm0 0"/></symbol><symbol overflow="visible" id="405c1034p"><path d="M1.297-7.484c.016 1.625 1.281 2.312 2.75 2.89 1.297.5 2.516.89 2.516 1.86 0 .828-.86 1.28-2.016 1.28-1 0-1.922-.327-2.828-.921L.875-1.031A6.111 6.111 0 0 0 4.641.234c2.421 0 4.03-1.265 4.03-3.187 0-1.828-1.483-2.485-3.155-3.078C4.312-6.484 3.39-6.86 3.39-7.72c0-.687.609-1.172 1.687-1.172.844 0 1.625.282 2.375.766l.89-1.313c-.843-.656-1.874-1.14-3.218-1.14-2.094 0-3.875 1.156-3.828 3.094zm0 0"/></symbol><symbol overflow="visible" id="405c1034q"><path d="M1.094-4.953c0 3.078 1.75 5.266 4.531 5.266 3.234 0 4.875-2.797 4.875-5.688 0-3.031-1.719-5.266-4.516-5.266-3.218 0-4.89 2.86-4.89 5.688zm7.312-.11c0 1.297-.328 2.329-.875 2.954a2.336 2.336 0 0 1-1.672.671c-1.765 0-2.671-1.546-2.671-3.796 0-1.407.359-2.422.906-3.016.328-.36.875-.656 1.672-.656 1.734 0 2.64 1.578 2.64 3.844zm0 0"/></symbol><symbol overflow="visible" id="405c1034r"><path d="M2.36-12.469v2.125H.796v1.703h1.562L2.375 0h2.031v-8.64h2.532v-1.704H4.405v-2.422c0-1.359.485-2.187 1.672-2.187.719 0 1.375.281 1.86.562l.78-1.359c-.734-.547-1.609-.984-2.78-.984-2.438 0-3.579 1.859-3.579 4.265zm0 0"/></symbol><symbol overflow="visible" id="405c1034s"><path d="M1.39-10.828c0 2.594 2.079 3.437 4.11 4.234 1.766.625 3.297 1.188 3.297 2.766 0 1.656-1.61 2.265-3.235 2.265-1.406 0-2.75-.39-3.937-1.062L.859-1.031C1.953-.281 3.734.312 5.563.312c2.906 0 5.375-1.406 5.375-4.312 0-2.688-2.22-3.5-4.407-4.344C4.891-8.954 3.5-9.53 3.5-11c0-1.719 1.688-2.172 3.125-2.172 1.203 0 2.39.281 3.25.61l.625-1.579c-1.063-.562-2.453-.906-3.828-.906-2.672 0-5.281 1.281-5.281 4.219zm0 0"/></symbol><symbol overflow="visible" id="405c1034t"><path d="M5.438-7.531c-.485 0-.922-.016-1.391-.063V-13c.656-.094 1.328-.14 1.828-.14 2.313 0 3.578.859 3.578 2.64 0 1.328-.656 2.094-1.562 2.516-.672.328-1.532.453-2.454.453zm-3.454-7.094V0h2.063v-5.813a18.24 18.24 0 0 0 1.469.079c.421 0 .828-.032 1.218-.079L9.938 0h2.14c-.11-.422-.375-.922-.64-1.438L8.671-6.313c1.906-.796 2.969-2.375 2.969-4.359 0-2.812-2.25-4.312-5.829-4.312-1.171 0-2.53.14-3.828.359zm0 0"/></symbol><symbol overflow="visible" id="405c1034u"><path d="M2-14.734L1.984 0h2.047v-6.094h5.235v-1.781H4.03v-5.078h6.485l.093-1.781zm0 0"/></symbol><symbol overflow="visible" id="405c1034v"><path d="M2-14.734L1.984 0h8.657l-.063-1.781H4.047v-4.86h5.219v-1.78h-5.22v-4.532h6.47l.062-1.781zm0 0"/></symbol><symbol overflow="visible" id="405c1034w"><path d="M.594 1.563l1.734.609 6.14-17.313-1.734-.656zm0 0"/></symbol><symbol overflow="visible" id="405c1034x"><path d="M1.984-14.734V0h8.22l-.063-1.781H4.047v-12.953zm0 0"/></symbol></defs><path fill="#212121" d="M0 0h450v260H0z"/><use xlink:href="#405c1034a" x="94.9057" y="174.2913" fill="#fff"/><use xlink:href="#405c1034b" x="107.1157" y="174.2913" fill="#fff"/><use xlink:href="#405c1034c" x="117.9837" y="174.2913" fill="#fff"/><use xlink:href="#405c1034d" x="126.3437" y="174.2913" fill="#fff"/><use xlink:href="#405c1034e" x="131.8657" y="174.2913" fill="#fff"/><use xlink:href="#405c1034e" x="137.8717" y="174.2913" fill="#fff"/><use xlink:href="#405c1034d" x="143.8777" y="174.2913" fill="#fff"/><use xlink:href="#405c1034f" x="149.3997" y="174.2913" fill="#fff"/><use xlink:href="#405c1034g" x="159.4097" y="174.2913" fill="#fff"/><use xlink:href="#405c1034h" x="164.2277" y="174.2913" fill="#fff"/><use xlink:href="#405c1034i" x="174.9417" y="174.2913" fill="#fff"/><use xlink:href="#405c1034j" x="186.9537" y="174.2913" fill="#fff"/><use xlink:href="#405c1034g" x="198.9217" y="174.2913" fill="#fff"/><use xlink:href="#405c1034k" x="203.7397" y="174.2913" fill="#fff"/><use xlink:href="#405c1034c" x="217.4677" y="174.2913" fill="#fff"/><use xlink:href="#405c1034l" x="225.4317" y="174.2913" fill="#fff"/><use xlink:href="#405c1034l" x="236.3657" y="174.2913" fill="#fff"/><use xlink:href="#405c1034m" x="247.2997" y="174.2913" fill="#fff"/><use xlink:href="#405c1034g" x="258.5197" y="174.2913" fill="#fff"/><use xlink:href="#405c1034l" x="263.3377" y="174.2913" fill="#fff"/><use xlink:href="#405c1034n" x="274.2035" y="174.2913" fill="#fff"/><use xlink:href="#405c1034o" x="284.9175" y="174.2913" fill="#fff"/><use xlink:href="#405c1034l" x="293.2555" y="174.2913" fill="#fff"/><use xlink:href="#405c1034i" x="304.1895" y="174.2913" fill="#fff"/><use xlink:href="#405c1034p" x="316.2015" y="174.2913" fill="#fff"/><use xlink:href="#405c1034d" x="325.9695" y="174.2913" fill="#fff"/><use xlink:href="#405c1034q" x="331.4915" y="174.2913" fill="#fff"/><g fill="#fff"><use xlink:href="#405c1034i" x="343.1955" y="174.2913"/><use xlink:href="#405c1034g" x="355.0975" y="174.2913"/></g><use xlink:href="#405c1034g" x="360.0277" y="174.2913" fill="#fff"/><g fill="#fff"><use xlink:href="#405c1034q" x="106.2137" y="202.2973"/><use xlink:href="#405c1034r" x="117.7857" y="202.2973"/></g><use xlink:href="#405c1034s" x="129.8197" y="202.2973" fill="#fff"/><use xlink:href="#405c1034m" x="141.8537" y="202.2973" fill="#fff"/><use xlink:href="#405c1034q" x="152.6117" y="202.2973" fill="#fff"/><use xlink:href="#405c1034e" x="164.3157" y="202.2973" fill="#fff"/><use xlink:href="#405c1034h" x="170.3217" y="202.2973" fill="#fff"/><use xlink:href="#405c1034c" x="181.0357" y="202.2973" fill="#fff"/><use xlink:href="#405c1034g" x="188.9337" y="202.2973" fill="#fff"/><use xlink:href="#405c1034s" x="193.7517" y="202.2973" fill="#fff"/><use xlink:href="#405c1034h" x="205.7857" y="202.2973" fill="#fff"/><use xlink:href="#405c1034i" x="216.4997" y="202.2973" fill="#fff"/><use xlink:href="#405c1034p" x="228.5117" y="202.2973" fill="#fff"/><use xlink:href="#405c1034g" x="238.2797" y="202.2973" fill="#fff"/><use xlink:href="#405c1034r" x="243.0977" y="202.2973" fill="#fff"/><use xlink:href="#405c1034q" x="250.4897" y="202.2973" fill="#fff"/><use xlink:href="#405c1034c" x="262.1937" y="202.2973" fill="#fff"/><use xlink:href="#405c1034g" x="270.0917" y="202.2973" fill="#fff"/><use xlink:href="#405c1034t" x="274.9097" y="202.2973" fill="#fff"/><use xlink:href="#405c1034u" x="287.9997" y="202.2973" fill="#fff"/><use xlink:href="#405c1034v" x="299.5277" y="202.2973" fill="#fff"/><use xlink:href="#405c1034w" x="311.3637" y="202.2973" fill="#fff"/><use xlink:href="#405c1034t" x="320.5597" y="202.2973" fill="#fff"/><use xlink:href="#405c1034x" x="333.6497" y="202.2973" fill="#fff"/><path d="M129.965 77.46c2.586-.276 4.676-1.515 6.46-3.339 1.59-1.621 2.845-3.504 4.09-5.387 1.602-2.418 3.18-4.847 5.094-7.035 2.328-2.66 5.211-4.398 8.688-5.082 3.262-.64 6.465-.328 9.617.676.094.027.188.07.371.14-1.16.169-2.2.426-3.18.899-1.69.809-3.05 2.023-4.253 3.438-1.743 2.05-3.13 4.351-4.637 6.566-1.41 2.066-2.828 4.133-4.625 5.894-2.38 2.336-5.242 3.727-8.528 4.22-2.097.316-4.199.241-6.277-.177-.957-.195-1.898-.457-2.844-.687l.024-.125" fill="#fff"/><path d="M135.945 30.984c-.183.75-.394 1.493-.539 2.25-.289 1.508-.101 2.993.27 4.465.496 1.969 1.367 3.785 2.27 5.586 1.406 2.805 2.933 5.55 4.042 8.496.602 1.594.992 3.23 1.106 4.938.195 2.976-.512 5.738-1.88 8.355-1.112 2.125-2.589 3.965-4.323 5.54.183-.778.41-1.583.566-2.4.254-1.35.113-2.69-.187-4.019-.426-1.867-1.2-3.597-2.04-5.308-1.25-2.551-2.535-5.09-3.753-7.66-.86-1.817-1.465-3.727-1.672-5.735-.317-3.023.27-5.887 1.61-8.601 1.062-2.149 2.495-4.032 4.237-5.676.075-.07.153-.137.227-.203.02-.016.047-.02.066-.028" fill="#fff"/><path d="M136.016 68.8c-.817-1.82-2.086-3.257-3.746-4.35a16.45 16.45 0 0 0-4.07-1.923c-2.66-.84-5.345-1.613-8.009-2.453-2.3-.726-4.57-1.543-6.586-2.918-2.507-1.707-4.328-3.98-5.511-6.761-1.055-2.493-1.578-5.083-1.473-7.793.004-.075.012-.149.024-.329.109.192.18.301.234.418.902 1.79 2.277 3.121 3.98 4.137 2.118 1.262 4.457 1.938 6.79 2.645 2.44.742 4.882 1.472 7.288 2.308 3.708 1.285 6.688 3.52 8.684 6.961 1.316 2.27 2.07 4.73 2.324 7.34.09.898.13 1.797.192 2.695zm0 0M149.832 79.832c-.723 1.453-1.402 2.828-2.082 4.195-.863 1.739-1.742 3.47-2.582 5.215-.203.418-.43.582-.922.578-6.719-.02-13.437-.011-20.156-.011-.504 0-.504 0-.504-.504 0-3.004.008-6.004-.008-9.008 0-.367.102-.473.477-.473 8.441.008 16.886.008 25.328.008zm0 0M140.91 91.246c-.32.742-.601 1.41-.89 2.074-3.153 7.25-6.301 14.504-9.458 21.754-.55 1.278-1.12 2.543-1.664 3.824-.113.266-.257.375-.543.356a7.705 7.705 0 0 0-.996 0c-.332.027-.441-.11-.398-.418.004-.05 0-.102 0-.152V91.785c0-.539 0-.539.543-.539h12.95zm0 0M176.566 89.73h-4.824l-3.66-5.734h-.039v5.734h-3.879V74.816h5.797c2.95 0 5.184 1.407 5.184 4.59 0 2.059-1.149 3.84-3.266 4.215zm-8.523-8.226h.375c1.266 0 2.691-.238 2.691-1.86 0-1.62-1.425-1.859-2.691-1.859h-.375zm0 0" fill="#fff"/><path d="M187.902 89.73h-3.601v-1.125h-.04c-.632 1.008-1.878 1.461-3.066 1.461-3.004 0-5.12-2.511-5.12-5.418 0-2.906 2.077-5.398 5.081-5.398 1.168 0 2.395.434 3.145 1.324v-.988h3.601zm-8.109-5.062c0 1.285.852 2.273 2.312 2.273 1.465 0 2.317-.988 2.317-2.273 0-1.246-.852-2.293-2.317-2.293-1.46 0-2.312 1.047-2.312 2.293M197.395 88.605h-.04c-.632 1.008-1.878 1.465-3.066 1.465-3.004 0-5.121-2.511-5.121-5.422 0-2.906 2.078-5.398 5.082-5.398 1.168 0 2.395.434 3.145 1.324v-7.258h3.601V89.73h-3.601zm-4.508-3.937c0 1.285.851 2.277 2.312 2.277 1.465 0 2.317-.992 2.317-2.277 0-1.246-.852-2.293-2.317-2.293-1.46 0-2.312 1.047-2.312 2.293M207.125 75.688c0 1.109-.91 2.019-2.016 2.019-1.109 0-2.02-.91-2.02-2.02 0-1.105.911-2.015 2.02-2.015 1.106 0 2.016.91 2.016 2.016m-.215 14.042h-3.601V79.586h3.601zm0 0M220.598 84.668c0 3.441-2.852 5.402-6.114 5.402-3.246 0-6.113-1.941-6.113-5.402 0-3.461 2.848-5.418 6.113-5.418 3.262 0 6.114 1.957 6.114 5.418m-8.43 0c0 1.285.852 2.277 2.316 2.277 1.465 0 2.313-.992 2.313-2.277 0-1.246-.848-2.293-2.313-2.293-1.464 0-2.316 1.047-2.316 2.293M226.035 78.102v2.492h4.25v3.285h-4.25v5.851h-3.879V74.82h8.567v3.282zm0 0M235.668 81.246h.039c.691-1.246 1.879-1.8 3.281-1.8h.692v3.46c-.493-.273-.97-.336-1.52-.336-2 0-2.492 1.328-2.492 3.067v4.093h-3.602V79.586h3.602zm0 0M251.488 85.262h-7.574c0 1.465.77 2.254 2.254 2.254.773 0 1.328-.254 1.723-.93h3.46c-.277 1.187-.988 2.059-1.917 2.633-.93.574-2.079.847-3.246.847-3.36 0-5.875-1.894-5.875-5.398 0-3.383 2.316-5.418 5.617-5.418 3.523 0 5.558 2.176 5.558 5.637zm-3.343-2.078c-.176-.97-1.067-1.602-2.036-1.602-1.047 0-1.918.555-2.136 1.602zm0 0M263.633 85.262h-7.574c0 1.465.77 2.254 2.253 2.254.774 0 1.325-.254 1.72-.93h3.464c-.277 1.187-.988 2.059-1.922 2.633-.926.574-2.074.847-3.242.847-3.363 0-5.875-1.894-5.875-5.398 0-3.383 2.316-5.418 5.617-5.418 3.524 0 5.559 2.176 5.559 5.637zm-3.344-2.078c-.176-.97-1.066-1.602-2.035-1.602-1.05 0-1.918.555-2.137 1.602zm0 0M269.012 78.102v2.492h4.37v3.285h-4.37v2.57h4.61v3.281h-8.485V74.82h8.484v3.282zm0 0M278.844 79.586v5.418c0 1.285.312 2.195 1.797 2.195 1.484 0 1.8-.91 1.8-2.195v-5.418h3.602v6.113c0 3.34-2.356 4.371-5.402 4.371-3.043 0-5.399-1.03-5.399-4.37v-6.114zm0 0M291.68 81.246h.039c.691-1.246 1.879-1.8 3.281-1.8h.691v3.46c-.492-.273-.968-.336-1.52-.336-2 0-2.491 1.328-2.491 3.067v4.093h-3.602V79.586h3.602zm0 0M308.39 84.668c0 3.441-2.847 5.402-6.109 5.402-3.246 0-6.113-1.941-6.113-5.402 0-3.461 2.848-5.418 6.113-5.418 3.262 0 6.11 1.957 6.11 5.418m-8.426 0c0 1.285.851 2.277 2.316 2.277 1.461 0 2.313-.992 2.313-2.277 0-1.246-.852-2.293-2.313-2.293-1.465 0-2.316 1.047-2.316 2.293M313.258 80.734h.039c.652-1.011 1.879-1.484 3.066-1.484 3.024 0 5.121 2.531 5.121 5.438 0 2.93-2.074 5.382-5.082 5.382-1.168 0-2.375-.418-3.144-1.308v6.035h-3.602V79.586h3.602zm-.121 3.934c0 1.285.851 2.277 2.316 2.277 1.461 0 2.313-.992 2.313-2.277 0-1.246-.852-2.293-2.313-2.293-1.465 0-2.316 1.047-2.316 2.293M333.469 85.262h-7.574c0 1.465.77 2.254 2.253 2.254.774 0 1.329-.254 1.723-.93h3.461c-.277 1.187-.988 2.059-1.918 2.633-.93.574-2.078.847-3.246.847-3.36 0-5.875-1.894-5.875-5.398 0-3.383 2.316-5.418 5.617-5.418 3.524 0 5.559 2.176 5.559 5.637zm-3.34-2.078c-.18-.97-1.07-1.602-2.04-1.602-1.046 0-1.917.555-2.136 1.602zm0 0M176.566 113.566h-4.824l-3.66-5.734h-.039v5.734h-3.879V98.652h5.797c2.95 0 5.184 1.407 5.184 4.59 0 2.059-1.149 3.84-3.266 4.215zm-8.523-8.226h.375c1.266 0 2.691-.238 2.691-1.86 0-1.62-1.425-1.859-2.691-1.859h-.375zm0 0" fill="#fff"/><path d="M187.902 113.566h-3.601v-1.125h-.04c-.632 1.008-1.878 1.461-3.066 1.461-3.004 0-5.12-2.511-5.12-5.418 0-2.906 2.077-5.398 5.081-5.398 1.168 0 2.395.434 3.145 1.324v-.988h3.601zm-8.109-5.062c0 1.285.852 2.273 2.312 2.273 1.465 0 2.317-.988 2.317-2.273 0-1.246-.852-2.293-2.317-2.293-1.46 0-2.312 1.047-2.312 2.293M197.395 112.441h-.04c-.632 1.008-1.878 1.465-3.066 1.465-3.004 0-5.121-2.511-5.121-5.422 0-2.906 2.078-5.398 5.082-5.398 1.168 0 2.395.434 3.145 1.324v-7.258h3.601v16.414h-3.601zm-4.508-3.937c0 1.285.851 2.273 2.312 2.273 1.465 0 2.317-.988 2.317-2.273 0-1.246-.852-2.293-2.317-2.293-1.46 0-2.312 1.047-2.312 2.293M207.125 99.523c0 1.11-.91 2.02-2.016 2.02-1.109 0-2.02-.91-2.02-2.02 0-1.105.911-2.015 2.02-2.015 1.106 0 2.016.91 2.016 2.015m-.215 14.043h-3.601v-10.144h3.601zm0 0M220.598 108.504c0 3.441-2.852 5.402-6.114 5.402-3.246 0-6.113-1.941-6.113-5.402 0-3.461 2.848-5.418 6.113-5.418 3.262 0 6.114 1.957 6.114 5.418m-8.43 0c0 1.285.852 2.277 2.316 2.277 1.465 0 2.313-.992 2.313-2.277 0-1.246-.848-2.293-2.313-2.293-1.464 0-2.316 1.047-2.316 2.293M226.035 110.285h4.649v3.281h-8.528V98.652h3.88zm0 0M235.824 99.523c0 1.11-.91 2.02-2.015 2.02-1.11 0-2.02-.91-2.02-2.02 0-1.105.91-2.015 2.02-2.015 1.105 0 2.015.91 2.015 2.015m-.219 14.043h-3.597v-10.144h3.597zm0 0M237.8 97.152h3.602v7.258c.77-.89 1.977-1.324 3.145-1.324 3.008 0 5.082 2.492 5.082 5.398 0 2.926-2.094 5.418-5.121 5.418-1.188 0-2.414-.453-3.067-1.46h-.039v1.124h-3.601zm3.485 11.352c0 1.285.848 2.273 2.313 2.273 1.464 0 2.312-.988 2.312-2.273 0-1.246-.847-2.293-2.312-2.293-1.465 0-2.313 1.047-2.313 2.293M261.715 109.098h-7.574c0 1.465.77 2.254 2.254 2.254.77 0 1.324-.258 1.718-.93h3.465c-.277 1.187-.992 2.058-1.922 2.633-.93.574-2.074.847-3.242.847-3.363 0-5.875-1.898-5.875-5.398 0-3.383 2.313-5.418 5.617-5.418 3.52 0 5.559 2.176 5.559 5.637zm-3.344-2.078c-.176-.97-1.066-1.602-2.035-1.602-1.05 0-1.922.555-2.137 1.602zm0 0M266.54 105.082h.038c.695-1.246 1.879-1.8 3.285-1.8h.692v3.464c-.493-.277-.97-.34-1.524-.34-1.996 0-2.492 1.328-2.492 3.067v4.093h-3.598v-10.144h3.598zm0 0M276.605 113.566h-3.597v-7.18h-1.168v-2.964h1.168v-3.047h3.597v3.047h2.04v2.965h-2.04zm0 0M279.258 103.422h4.152l2.711 5.2 2.649-5.2h4.093l-8.129 15.21H280.7l3.461-6.448zm0 0" fill="#fff"/></svg>