<?xml version='1.0' encoding='UTF-8'?>
<svg xmlns="http://www.w3.org/2000/svg" xmlns:xlink="http://www.w3.org/1999/xlink" width="600px" height="300px" viewBox="0 0 600 300" x="0px" y="0px" enable-background="new 0 0 600 300"><defs><symbol overflow="visible" id="e7308f9ea"><path d="M39.38-48.19c-1.76 1-6.16 1.88-12.76 1.88-8.14 0-12.65-1.2-17.82-1.2-4.07 0-6.6 2.63-6.6 4.82 0 1.11.33 1.88.99 2.75 2.2-.87 6.15-1.53 9.47-1.53 1.42 0 4.39.22 6.59.55-1.55 7.6-3.19 20.47-3.19 29.6 0 10.12 1.1 12.3 3.08 12.3 1.66 0 4.63-.76 5.4-1.96-.88-2.75-1.34-7.16-1.34-13.86 0-8.7 1-18.93 2.1-25.75h2.42c6.48 0 9.69-.44 11-1.2 1.44-.9 1.98-1.88 1.98-3.2 0-.88-.76-2.63-1.33-3.2zm0 0"/></symbol><symbol overflow="visible" id="e7308f9eb"><path d="M17.38.44c9.03 0 16.39-7.92 16.39-18.92 0-9.9-6.6-16.61-14.63-16.61-9.02 0-16.39 8.14-16.39 19.14C2.75-6.05 9.35.44 17.38.44zm1.21-30.03c4.4 0 8.04 3.75 8.04 11.43 0 8.25-3.75 13.1-8.7 13.1-4.4 0-8.02-3.52-8.02-11.22 0-8.25 3.73-13.31 8.68-13.31zm0 0"/></symbol><symbol overflow="visible" id="e7308f9ec"><path d="M3.3-32.34c-.99.89-1.64 2.09-1.64 4.4l6.48-.43C7.7-23.2 6.37-15.53 6.37-10.23c0 6.82 4.2 10.56 9.25 10.56 5.5 0 10-4.06 10-7.03 0-.78-.21-1.44-.76-1.88-2.31 2.2-4.73 3.4-7.16 3.4-3.07 0-4.72-1.63-4.72-7.02 0-4.2.44-13.32.66-16.28 2.64-.11 5.5-.22 8.36-.22.98-1.11 1.44-2.99 1.55-4.4l-.24-.12c-2.86 0-7.14.33-9.12.55l.1-1.31c2.1-3.43 3.2-6.07 3.2-8.47 0-2.42-2.86-4.63-4.94-4.63-1.77 0-2.86 2.97-3.43 9.9-.65 2.74-2.74 4.4-5.82 4.84zm0 0"/></symbol><symbol overflow="visible" id="e7308f9ed"><path d="M38.6-5.83c-.87.44-1.87.77-3.29.77-1.76 0-2.75-1.99-2.97-8.8-.1-3.62.22-8.36.88-10.89 1.98-4.3 2.42-6.38 2.42-8.14 0-1.66-2.1-3.52-3.73-3.52-1.88 0-3.54 2.2-4.63 8.25h-.1c-1.77-4.18-5.07-6.6-8.7-6.6-7.92 0-15.18 8.7-15.18 19.92C3.3-5.5 8.8.44 15.3.44c5.39 0 9.23-4.07 11.22-10.46h.1c.44 7.49 3.3 10.46 6.6 10.46 3.51 0 6.16-2.53 6.16-4.4 0-.77-.22-1.43-.77-1.87zm-12.08-17.6l-.11 4.84c-1.99 8.46-5.85 12.98-9.7 12.98-3.62 0-6.26-3.08-6.26-10.12 0-8.36 3.85-12.97 8.36-12.97 2.64 0 5.83 1.53 7.7 5.26zm0 0"/></symbol><symbol overflow="visible" id="e7308f9ee"><path d="M20.34-7.48a6.93 6.93 0 01-4.82 1.87c-2.43 0-3.97-2.1-3.97-11.87 0-7.7.43-14.86 1.22-18.49 2.53-5.17 4.39-10.23 4.39-12.1 0-2.3-3.2-5.16-5.29-5.16-1.85 0-2.85 1.42-3.84 5.6-1.65 7.15-3.08 18.26-3.08 30.47C4.95-3.08 8.47.44 14.41.44c3.75 0 7.15-3.08 7.15-5.72 0-.99-.54-1.88-1.22-2.2zm0 0"/></symbol><symbol overflow="visible" id="e7308f9ef"><path d="M4.95-30.36c0 2.42 1.99 4.4 4.4 4.4 2.42 0 4.4-1.98 4.4-4.4 0-2.42-1.98-4.4-4.4-4.4-2.41 0-4.4 1.98-4.4 4.4zm0 26.4c0 2.41 1.99 4.4 4.4 4.4 2.42 0 4.4-1.99 4.4-4.4 0-2.42-1.98-4.4-4.4-4.4-2.41 0-4.4 1.98-4.4 4.4zm0 0"/></symbol><symbol overflow="visible" id="e7308f9eh"><path d="M12.66-24.1c-5.5 2.65-8.82 6.73-8.82 12.23C3.84-4.74 9.91.43 18.27.43c8.9 0 15.28-5.6 15.28-13.2 0-5.5-3.3-9.56-9.24-12.75v-.1c5.4-2.97 7.7-6.5 7.7-10.9 0-6.04-5.28-11.43-12.98-11.43-7.6 0-13.64 6.15-13.64 12.86 0 4.3 2.31 7.8 7.27 10.89zm3.62 1.88c8.25 3.19 11.22 6.7 11.22 10.34 0 4.18-3.3 7.36-8.58 7.36-5.6 0-9.36-3.73-9.36-8.46 0-4.07 2.53-7.25 6.72-9.24zm4.52-5.17c-7.16-2.97-9.36-5.5-9.36-9.13 0-3.42 2.86-6.5 7.15-6.5 4.29 0 7.7 3.65 7.7 7.7 0 3.41-1.65 5.84-5.5 7.93zm0 0"/></symbol><symbol overflow="visible" id="e7308f9ei"><path d="M6.6-35.42c.56 2.97 1.1 8.36 1.1 11.22 0 3.51-.54 8.8-1.22 11a3.38 3.38 0 002.2 2.86c2.87-1.32 5.95-2.43 8.8-2.43 5.61 0 10.46 3.54 10.46 9.91 0 5.94-3.96 10.13-12.2 10.13-4.96 0-8.58-1.44-10.9-3.08-.54.33-.89.87-.89 1.97 0 2.96 4.63 6.6 13.1 6.6 11.65 0 18.04-7.48 18.04-15.73 0-9.12-7.37-14.51-14.53-14.51-3.51 0-6.81 1.3-9.01 2.42l-.11-.13c1-2.62 1.44-9.78 1-13.4 2.62.54 7.8.87 10.33.87 7.8 0 10.89-2.53 10.89-5.6 0-.88-.44-1.88-.99-2.32h-.33c-1.43.87-5.5 1.66-9.9 1.66-4.28 0-12.1-.79-15.63-1.66zm0 0"/></symbol><symbol overflow="visible" id="e7308f9ej"><path d="M1.66-23.44c.22 2.32 1.64 3.97 4.06 3.97 2.64 0 7.16-2.97 10.78-7.05l.1.11v24.97C16.6 0 17.82.44 19.37.44c2.75 0 4.4-.55 4.4-1.64 0-2.42-1.43-16.07-1.43-23.44 0-2.2 0-4.4.22-5.72.89-1.1 1.22-1.98 1.22-2.86 0-1.55-1.33-3.08-2.97-3.08-.35 0-.57 0-.9.11-2.3 3.96-10 9.67-18.24 12.75zm0 0"/></symbol><symbol overflow="visible" id="e7308f9ek"><path d="M24.53-42.8c2.75 0 4.95.78 6.27 1.44.89-.44 1.43-.77 1.43-1.55 0-2.4-3.42-5.04-8.92-5.04-10.43 0-19.47 11.1-19.47 26.17C3.84-7.92 10.34.44 20.34.44c8.47 0 15.3-6.92 15.3-16.17 0-8.04-5.28-13.97-12.87-13.97-4.5 0-8.8 2.1-12.32 5.6.66-11.43 5.72-18.7 14.08-18.7zM10.45-19.9c3.08-3.08 7.03-4.85 10-4.85 5.28 0 8.6 3.73 8.6 9.23 0 5.96-2.64 10.46-8.7 10.46-5.94 0-9.57-4.63-9.9-14.85zm0 0"/></symbol><symbol overflow="visible" id="e7308f9el"><path d="M3.83 0v-5.95H6.2v-.82H.45v.82h2.4V0zm0 0"/></symbol><symbol overflow="visible" id="e7308f9em"><path d="M5.75-2.23v-.43c0-1.6-.9-2.51-2.42-2.51S.87-4.16.87-2.48c0 1.71.91 2.62 2.5 2.62 1.43 0 2.07-.56 2.29-1.52l-.9-.09c-.18.61-.59.9-1.35.9-.94 0-1.52-.54-1.58-1.66zm-2.4-2.2c.93 0 1.43.5 1.48 1.55H1.84c.08-1.07.6-1.56 1.5-1.56zm0 0"/></symbol><symbol overflow="visible" id="e7308f9en"><path d="M1.83 0l1.42-2h.06l1.46 2H5.8L4-2.53l1.78-2.49H4.8L3.42-3.08h-.08l-1.4-1.94H.89l1.78 2.49L.84 0zm0 0"/></symbol><symbol overflow="visible" id="e7308f9eo"><path d="M5.52-4.25v-.77H3.17v-1.56h-.81l-.14 1.56H.75v.77h1.47v2.4c0 1.3.48 1.94 1.84 1.94C4.6.1 5.14 0 5.55-.14L5.4-.91c-.32.13-.72.2-1.13.2-.8 0-1.1-.37-1.1-1.23v-2.31zm0 0"/></symbol><symbol overflow="visible" id="e7308f9ep"><path d="M3.33-3.42c.47 0 .8-.27.8-.8 0-.51-.33-.8-.8-.8-.47 0-.8.29-.8.8 0 .53.33.8.8.8zm0 3.5c.47 0 .8-.27.8-.78 0-.53-.33-.82-.8-.82-.47 0-.8.29-.8.82 0 .51.33.78.8.78zm0 0"/></symbol><symbol overflow="visible" id="e7308f9er"><path d="M3.33.14c1.62 0 2.5-.95 2.5-2.66 0-1.68-.88-2.64-2.5-2.64-1.63 0-2.5.96-2.5 2.64 0 1.7.87 2.66 2.5 2.66zm0-.77c-1.06 0-1.52-.6-1.52-1.89 0-1.28.46-1.87 1.52-1.87 1.08 0 1.53.6 1.53 1.87 0 1.29-.45 1.9-1.53 1.9zm0 0"/></symbol><symbol overflow="visible" id="e7308f9es"><path d="M2.83.14c.94 0 1.5-.39 1.81-.95h.08l.1.81h.76v-3.38c0-1.23-.69-1.8-2.13-1.8-1.43 0-2.03.65-2.18 1.6l.93.1c.11-.6.44-.93 1.22-.93.85 0 1.22.32 1.22 1.04v.34l-1.81.2C1.6-2.7 1.1-2.17 1.1-1.28c0 .92.64 1.42 1.72 1.42zm.25-.77c-.67 0-1.02-.28-1.02-.74 0-.44.28-.72 1-.82l1.58-.19v.41c0 .8-.6 1.34-1.56 1.34zm0 0"/></symbol><symbol overflow="visible" id="e7308f9et"><path d="M3.92-7.14H1.36v.76h1.6v5.61H1.15V0H5.7v-.77H3.92zm0 0"/></symbol><symbol overflow="visible" id="e7308f9eu"><path d="M3.33.16c1.69 0 2.69-.74 2.69-1.94 0-1.05-.8-1.58-1.43-1.72v-.05c.5-.14 1.2-.58 1.2-1.56 0-1.12-.95-1.81-2.46-1.81-1.52 0-2.46.69-2.46 1.81 0 .97.68 1.4 1.18 1.56v.05c-.6.14-1.4.64-1.4 1.72 0 1.2 1 1.94 2.68 1.94zm0-4.04c-.97 0-1.49-.43-1.49-1.12 0-.78.52-1.1 1.49-1.1.95 0 1.48.32 1.48 1.1 0 .69-.53 1.13-1.48 1.13zm0 3.24c-1.1 0-1.7-.42-1.7-1.25 0-.78.6-1.2 1.7-1.2s1.7.42 1.7 1.2c0 .83-.6 1.25-1.7 1.25zm0 0"/></symbol><symbol overflow="visible" id="e7308f9ev"><path d="M3.42.14c1.55 0 2.44-.84 2.44-2.33 0-1.45-.83-2.22-2.14-2.22-.75 0-1.28.27-1.67.72H2l.31-2.22h3.11v-.86H1.53l-.45 3.93h.81c.3-.36.9-.79 1.58-.79.92 0 1.44.43 1.44 1.47 0 .99-.54 1.5-1.49 1.5-.83 0-1.28-.32-1.5-1.01l-.95.1C1.07-.46 2 .13 3.42.13zm0 0"/></symbol><symbol overflow="visible" id="e7308f9ew"><path d="M4.22-6.77h-.86l-2.03.7v.87c.64-.17 1.26-.38 1.89-.55v4.9H1.03V0h4.9v-.86H4.21zm0 0"/></symbol><symbol overflow="visible" id="e7308f9ex"><path d="M3.42.14c1.58 0 2.49-.86 2.49-2.3 0-1.42-.86-2.17-2.22-2.17-1.03 0-1.58.5-1.9 1.02h-.04c.03-1.63.4-2.77 1.73-2.77.91 0 1.24.44 1.36.96l.97-.11c-.23-.96-.86-1.68-2.33-1.68C1.84-6.9.86-5.86.86-3.1.86-.9 1.78.14 3.42.14zm.02-.78c-.9 0-1.47-.55-1.47-1.47 0-.9.7-1.47 1.53-1.47.92 0 1.47.52 1.47 1.47 0 .97-.6 1.47-1.53 1.47zm0 0"/></symbol><symbol overflow="visible" id="e7308f9ey"><path d="M5.95-6.77H1.1V0h.99v-2.92H5.3v-.77H2.08v-2.26h3.87zm0 0"/></symbol><symbol overflow="visible" id="e7308f9ez"><path d="M2.73.14c.9 0 1.43-.45 1.74-1.08h.06l.13.94h.8v-5.02h-.94v2.7c0 .98-.57 1.62-1.46 1.62-.75 0-1.1-.4-1.1-1.22v-3.1h-.93v3.32c0 1.17.55 1.84 1.7 1.84zm0 0"/></symbol><symbol overflow="visible" id="e7308f9eA"><path d="M5.08-5.16c-.94 0-1.58.43-1.9 1.3h-.09l-.07-1.16H1.05v.77h1.1v3.48H.96V0h3.96v-.77H3.1v-1.46c0-1.36.6-2.05 1.83-2.05.4 0 .76.08 1.1.17l.15-.87c-.33-.11-.7-.18-1.11-.18zm0 0"/></symbol><symbol overflow="visible" id="e7308f9eB"><path d="M4.06-2.77c1.25-.04 1.92-.7 1.92-1.96 0-1.36-.7-2.04-2.17-2.04H.92V0h.97v-2.73h1.08L4.95 0h1.1zM1.9-6h1.7c1.07 0 1.46.34 1.46 1.28 0 .9-.44 1.27-1.47 1.27H1.89zm0 0"/></symbol><symbol overflow="visible" id="e7308f9eC"><path d="M2.16 0v-2.67c0-.99.59-1.63 1.46-1.63.74 0 1.07.38 1.07 1.22V0h.95v-3.31c0-1.2-.56-1.85-1.67-1.85-.92 0-1.49.46-1.77 1.08h-.06l-.12-.94H1.2V0zm0 0"/></symbol><symbol overflow="visible" id="e7308f9eD"><path d="M3.16 2.03c1.67 0 2.4-.86 2.4-2.51v-4.54h-.81l-.13.91h-.06c-.26-.58-.8-1.05-1.73-1.05-1.42 0-2.24 1-2.24 2.52 0 1.6.75 2.56 2.2 2.56.94 0 1.5-.5 1.77-1.03h.05v.72c0 1.17-.42 1.67-1.45 1.67-.93 0-1.3-.34-1.41-.89L.8.5c.12.96.87 1.54 2.36 1.54zM3.06-.8c-.98 0-1.48-.57-1.48-1.82 0-1.13.5-1.75 1.48-1.75 1.06 0 1.58.76 1.58 1.75 0 .95-.56 1.82-1.58 1.82zm0 0"/></symbol><symbol overflow="visible" id="e7308f9eE"><path d="M3.58-5.81c.42 0 .72-.22.72-.67 0-.44-.3-.68-.72-.68-.44 0-.72.24-.72.68 0 .45.28.67.72.67zm.5.8H1.52v.76h1.6v3.48h-1.8V0h4.46v-.77h-1.7zm0 0"/></symbol><symbol overflow="visible" id="e7308f9eF"><path d="M1.63 0v-2.9c0-.8.15-1.4.71-1.4.41 0 .55.3.55.88V0h.95v-2.9c0-.8.18-1.4.72-1.4.4 0 .57.3.57.88V0h.95v-3.63c0-.92-.28-1.53-1.11-1.53-.63 0-.95.41-1.1.9h-.06c-.1-.52-.44-.9-1.08-.9-.6 0-.93.41-1.06.9H1.6l-.23-.76H.67V0zm0 0"/></symbol><symbol overflow="visible" id="e7308f9eG"><path d="M3.36.16c1.4 0 2.2-.6 2.2-1.57 0-.89-.54-1.22-1.47-1.39L3-3c-.67-.14-.86-.33-.86-.73 0-.5.4-.74 1.17-.74.83 0 1.19.27 1.27.8l.9-.05c-.12-1-.8-1.47-2.17-1.47-1.34 0-2.1.53-2.1 1.5 0 .81.45 1.22 1.52 1.44l1.04.2c.56.11.87.24.87.72 0 .52-.45.78-1.28.78-.95 0-1.36-.28-1.42-.87l-.9.06C1.07-.36 1.8.16 3.35.16zm0 0"/></symbol><symbol overflow="visible" id="e7308f9eH"><path d="M1.45-2.95c0 2.56 1.08 4.37 3.67 4.84l.11-.67C3.28.86 2.43-.75 2.43-2.95s.85-3.82 2.8-4.16l-.1-.69c-2.6.49-3.68 2.3-3.68 4.85zm0 0"/></symbol><symbol overflow="visible" id="e7308f9eI"><path d="M2.84.14C3.8.14 4.33-.26 4.6-.9h.07L4.8 0h.76v-7.14h-.95v2.95h-.08c-.28-.6-.86-.97-1.67-.97-1.48 0-2.27.99-2.27 2.64C.6-.84 1.36.14 2.84.14zm.22-.8c-.98 0-1.48-.59-1.48-1.84s.5-1.86 1.48-1.86c1.13 0 1.58.8 1.58 1.86S4.2-.66 3.06-.66zm0 0"/></symbol><symbol overflow="visible" id="e7308f9eJ"><path d="M4.63-6.5c.45 0 .98.08 1.39.2l.2-.72a5.3 5.3 0 00-1.64-.26c-1.52 0-2.16.56-2.16 1.87v.4H.9v.76h1.53V0h.94v-4.25h2.53v-.77H3.36v-.3c0-.84.33-1.18 1.27-1.18zm0 0"/></symbol><symbol overflow="visible" id="e7308f9eK"><path d="M1.45-7.1c1.96.33 2.8 1.94 2.8 4.15 0 2.2-.84 3.8-2.8 4.17l.11.67c2.58-.47 3.67-2.28 3.67-4.84 0-2.55-1.09-4.36-3.67-4.85zm0 0"/></symbol></defs><use xlink:href="#e7308f9ea" x="134.945" y="141" fill="#515151"/><g fill="#515151"><use xlink:href="#e7308f9eb" x="167.395" y="141"/><use xlink:href="#e7308f9ec" x="203.915" y="141"/></g><g fill="#515151"><use xlink:href="#e7308f9ed" x="228.995" y="141"/><use xlink:href="#e7308f9ee" x="269.255" y="141"/><use xlink:href="#e7308f9ef" x="290.815" y="141"/><use xlink:href="#e7308f9eg" x="307.865" y="141"/></g><g fill="#fff"><use xlink:href="#e7308f9eh" x="321.065" y="141"/><use xlink:href="#e7308f9ei" x="358.465" y="141"/><use xlink:href="#e7308f9ej" x="396.305" y="141"/><use xlink:href="#e7308f9ek" x="425.565" y="141"/></g><g fill="#fff"><use xlink:href="#e7308f9el" x="243.3333" y="252"/><use xlink:href="#e7308f9em" x="250.0003" y="252"/><use xlink:href="#e7308f9en" x="256.6673" y="252"/><use xlink:href="#e7308f9eo" x="263.3343" y="252"/><use xlink:href="#e7308f9ep" x="270.0013" y="252"/><use xlink:href="#e7308f9eq" x="276.6683" y="252"/><use xlink:href="#e7308f9el" x="283.3353" y="252"/><use xlink:href="#e7308f9er" x="290.0023" y="252"/><use xlink:href="#e7308f9eo" x="296.6693" y="252"/><use xlink:href="#e7308f9es" x="303.3363" y="252"/><use xlink:href="#e7308f9et" x="310.0033" y="252"/><use xlink:href="#e7308f9ep" x="316.6703" y="252"/><use xlink:href="#e7308f9eq" x="323.3373" y="252"/><use xlink:href="#e7308f9eu" x="330.0043" y="252"/><use xlink:href="#e7308f9ev" x="336.6713" y="252"/><use xlink:href="#e7308f9ew" x="343.3383" y="252"/><use xlink:href="#e7308f9ex" x="350.0053" y="252"/></g><g fill="#fff"><use xlink:href="#e7308f9ey" x="183.3333" y="266"/><use xlink:href="#e7308f9em" x="190.0003" y="266"/><use xlink:href="#e7308f9es" x="196.6673" y="266"/><use xlink:href="#e7308f9eo" x="203.3343" y="266"/><use xlink:href="#e7308f9ez" x="210.0013" y="266"/><use xlink:href="#e7308f9eA" x="216.6683" y="266"/><use xlink:href="#e7308f9em" x="223.3353" y="266"/><use xlink:href="#e7308f9ep" x="230.0023" y="266"/><use xlink:href="#e7308f9eq" x="236.6693" y="266"/><use xlink:href="#e7308f9eB" x="243.3363" y="266"/><use xlink:href="#e7308f9es" x="250.0033" y="266"/><use xlink:href="#e7308f9eC" x="256.6703" y="266"/><use xlink:href="#e7308f9eD" x="263.3373" y="266"/><use xlink:href="#e7308f9eE" x="270.0043" y="266"/><use xlink:href="#e7308f9eC" x="276.6713" y="266"/><use xlink:href="#e7308f9eD" x="283.3383" y="266"/><use xlink:href="#e7308f9eq" x="290.0053" y="266"/><use xlink:href="#e7308f9eC" x="296.6723" y="266"/><use xlink:href="#e7308f9ez" x="303.3393" y="266"/><use xlink:href="#e7308f9eF" x="310.0063" y="266"/><use xlink:href="#e7308f9em" x="316.6733" y="266"/><use xlink:href="#e7308f9eA" x="323.3403" y="266"/><use xlink:href="#e7308f9es" x="330.0073" y="266"/><use xlink:href="#e7308f9et" x="336.6743" y="266"/><use xlink:href="#e7308f9eG" x="343.3413" y="266"/><use xlink:href="#e7308f9eq" x="350.0083" y="266"/><use xlink:href="#e7308f9eH" x="356.6753" y="266"/><use xlink:href="#e7308f9eI" x="363.3423" y="266"/><use xlink:href="#e7308f9em" x="370.0093" y="266"/><use xlink:href="#e7308f9eJ" x="376.6763" y="266"/><use xlink:href="#e7308f9es" x="383.3433" y="266"/><use xlink:href="#e7308f9ez" x="390.0103" y="266"/><use xlink:href="#e7308f9et" x="396.6773" y="266"/><use xlink:href="#e7308f9eo" x="403.3443" y="266"/><use xlink:href="#e7308f9eK" x="410.0113" y="266"/></g></svg>