<?xml version='1.0' encoding='UTF-8'?>
<svg xmlns="http://www.w3.org/2000/svg" xmlns:xlink="http://www.w3.org/1999/xlink" width="600px" height="300px" viewBox="0 0 600 300" x="0px" y="0px" enable-background="new 0 0 600 300"><defs><symbol overflow="visible" id="45bb1913a"><path d="M26.63-30.14c-.33-.88-1.88-2.53-3.75-2.53-2.32 0-3.74 3.62-3.74 8.69-1.2 2.86-3.4 4.84-9.02 7.59-6.06 2.97-7.59 5.72-7.59 8.8 0 4.73 4.28 8.9 9.13 8.9 3.53 0 6.5-1.75 8.57-4.83 1-1.43 2.32-4.4 2.64-7.15C24.1-3.2 27.4 0 33 0c4.19 0 7.38-3.19 8.69-8.36h.1C44.12-2.86 47.85 0 53.14 0c8.46 0 11.89-6.6 11.89-19.8 0-16.28-7.82-27.93-13.97-27.93a4.9 4.9 0 00-4.74 5.04c0 4.4 2.86 6.61 5.4 6.61a5.7 5.7 0 004.16-1.87c2.54 3.64 4.85 10.23 4.85 18.15 0 9.68-2.42 12.53-7.38 12.53-5.5 0-9.67-4.06-10.89-13.42-.54-4.39-.98-10.43-1.1-13.08-.2-5.71-1.87-7.26-4.62-7.26-2.18 0-3.95 1.33-3.95 3.51 0 2.32.88 4.41 2.97 9.91 2.53 6.81 3.4 10.23 3.4 13.1 0 4.6-2.42 7.24-6.48 7.24-4.73 0-7.37-3.4-7.37-12.3 0-4.2.54-8.04 1.32-10.57zm-4.96 11.77c0 6.93-5.06 12.43-10.45 12.43-2.53 0-3.85-1.54-3.85-3.08 0-1.43.99-2.53 5.29-3.75 4.28-1.2 7.03-3.07 9.01-5.6zm52.14-19.47c.66 1.98 1.2 4.84 1.42 11.54.46 11.35.9 16.5 3.54 22.57C79.97-.88 80.95 0 81.63 0c.65 0 1.96-1.44 1.96-2.42 0-1.31-3.51-7.7-3.51-16.83 0-7.05.44-11.98.44-16.6 0-8.8-2.97-13.1-7.7-13.1-3.09 0-4.94 2.2-4.94 4.95 0 3.19 2.75 5.6 5.93 6.16zM40.16-63.47c-1.55.66-2.97 3.08-3.2 4.52 1.98 1.1 3.3 2.86 3.3 4.72 0 1.65-.88 2.53-2.2 2.53-2.2 0-3.97-1.75-5.6-6.6-.66 0-1.88.99-2.21 1.64 0 1.11.55 2.97 1.44 4.52-.35 1.2-1.66 2.53-2.99 2.53-2.4 0-3.3-2.64-2.4-7.27a4.42 4.42 0 00-2.2-.65 13.1 13.1 0 00-1.33 6.26c0 4.08 2.09 6.83 5.06 6.83 2.64 0 4.51-2.42 5.28-5.17a6.19 6.19 0 005.06 2.86c2.97 0 5.94-2.64 5.94-7.38 0-3.4-1.55-6.92-3.95-9.34zM25.84-74.8c2.2 6.38 3.1 12.99 4.74 12.99.55 0 1.55-.9 1.55-1.44 0-1.31-1.44-6.27-2.2-12.1-.88-6.06-2.32-7.48-4.74-7.48-1.99 0-3.52 1.42-3.52 3.4 0 2.54 1.88 4.41 4.17 4.63zm0 0"/></symbol><symbol overflow="visible" id="45bb1913b"><path d="M21.34 22.88c0 1.87 1.32 3.53 3.3 3.53 1.98 0 3.4-1.66 3.4-3.54 0-2.18-1.41-4.39-3.4-4.39-1.98 0-3.3 2.2-3.3 4.4zm10.22 0c0 1.87 1.33 3.53 3.32 3.53 1.96 0 3.4-1.66 3.4-3.54 0-2.18-1.44-4.39-3.4-4.39-1.99 0-3.32 2.2-3.32 4.4zm13.2-48.72c0 4.28 1.66 6.48 3.65 6.48 3.73 0 6.48-2.86 6.48-5.6 0-4.41-5.06-9.02-13.75-9.02-9.8 0-17.83 7.14-17.83 15.82 0 5.4 3.64 9.36 8.25 10.9H28.6c-7.36 0-11.1-2.54-12.86-11.66.99-7.38 1.97-15.63 1.97-20.67 0-3.97-1.97-6.18-4.93-6.18-2.86 0-4.52 2.2-4.52 5.07 0 6.15 3.08 13.42 3.08 20.58 0 7.03-9.13 9.67-9.13 19.8 0 9 6.82 15.16 18.36 15.16 9.47 0 19.7-2.75 25.86-2.75 4.74 0 6.38 2.32 6.38 4.41 0 .77-.22 1.44-.55 2.1.22.21.55.43 1.1.43 1.21 0 1.98-1.1 2.63-2.64.68-1.55 1-2.97 1-4.08 0-3.3-3.18-7.47-9.68-7.47-6.82 0-17.49 2.75-27.5 2.75-9.24 0-13.32-4.4-13.32-9.25 0-5.04 4.3-7.57 6.72-11.32C16.5-3.3 21.67 0 35.86 0h16.6c7.6 0 10.02-1.55 10.02-4.3 0-2.97-2.42-4.17-5.39-4.17-3.64 0-6.28 1.53-12.98 1.53-8.47 0-15.3-5.04-15.3-11.1a9.4 9.4 0 019.58-9.35c2.64 0 4.95.66 6.38 1.55zm0 0"/></symbol><symbol overflow="visible" id="45bb1913c"><path d="M17.27 14.95c0 1.88 1.32 3.53 3.3 3.53a3.46 3.46 0 003.41-3.53c0-2.18-1.43-4.39-3.42-4.39-1.97 0-3.3 2.2-3.3 4.4zm10.23 0c0 1.88 1.31 3.53 3.3 3.53 1.98 0 3.4-1.65 3.4-3.53 0-2.18-1.42-4.39-3.4-4.39-1.99 0-3.3 2.2-3.3 4.4zm23.66-8.47c.22.22.54.46 1.09.46 2.53 0 3.63-4.85 3.63-6.72 0-3.3-3.2-7.49-10.79-7.49-8.8 0-16.39 3.08-30.14 3.08-7.36 0-9.45-1.1-9.45-2.18 0-.9.66-1.88 5.83-3.65 7.92-2.75 10.89-7.14 10.89-14.3 0-13.96-6.27-26.16-12.53-26.16-2.75 0-5.4 1.96-5.4 5.17 0 3.84 2.87 6.7 5.73 6.7 1.42 0 3.07-.66 3.84-1.33 2.53 3.64 4.08 9.03 4.08 14.42 0 4.72-1.55 6.6-7.92 9.57-6.61 2.97-8.58 5.28-8.58 8.9 0 6.17 5.15 10.13 14.95 10.13C27.94 3.08 37.62 0 45.31 0c4.74 0 6.4 2.31 6.4 4.4 0 .77-.23 1.43-.55 2.08zm0 0"/></symbol><symbol overflow="visible" id="45bb1913d"><path d="M3.83 0v-5.95H6.2v-.82H.45v.82h2.4V0zm0 0"/></symbol><symbol overflow="visible" id="45bb1913e"><path d="M5.75-2.23v-.43c0-1.6-.9-2.51-2.42-2.51S.87-4.16.87-2.48c0 1.71.91 2.62 2.5 2.62 1.43 0 2.07-.56 2.29-1.52l-.9-.09c-.18.61-.59.9-1.35.9-.94 0-1.52-.54-1.58-1.66zm-2.4-2.2c.93 0 1.43.5 1.48 1.55H1.84c.08-1.07.6-1.56 1.5-1.56zm0 0"/></symbol><symbol overflow="visible" id="45bb1913f"><path d="M1.83 0l1.42-2h.06l1.46 2H5.8L4-2.53l1.78-2.49H4.8L3.42-3.08h-.08l-1.4-1.94H.89l1.78 2.49L.84 0zm0 0"/></symbol><symbol overflow="visible" id="45bb1913g"><path d="M5.52-4.25v-.77H3.17v-1.56h-.81l-.14 1.56H.75v.77h1.47v2.4c0 1.3.48 1.94 1.84 1.94C4.6.1 5.14 0 5.55-.14L5.4-.91c-.32.13-.72.2-1.13.2-.8 0-1.1-.37-1.1-1.23v-2.31zm0 0"/></symbol><symbol overflow="visible" id="45bb1913h"><path d="M3.33-3.42c.47 0 .8-.27.8-.8 0-.51-.33-.8-.8-.8-.47 0-.8.29-.8.8 0 .53.33.8.8.8zm0 3.5c.47 0 .8-.27.8-.78 0-.53-.33-.82-.8-.82-.47 0-.8.29-.8.82 0 .51.33.78.8.78zm0 0"/></symbol><symbol overflow="visible" id="45bb1913q"><path d="M5.95-6.77H1.1V0h.99v-2.92H5.3v-.77H2.08v-2.26h3.87zm0 0"/></symbol><symbol overflow="visible" id="45bb1913r"><path d="M2.83.14c.94 0 1.5-.39 1.81-.95h.08l.1.81h.76v-3.38c0-1.23-.69-1.8-2.13-1.8-1.43 0-2.03.65-2.18 1.6l.93.1c.11-.6.44-.93 1.22-.93.85 0 1.22.32 1.22 1.04v.34l-1.81.2C1.6-2.7 1.1-2.17 1.1-1.28c0 .92.64 1.42 1.72 1.42zm.25-.77c-.67 0-1.02-.28-1.02-.74 0-.44.28-.72 1-.82l1.58-.19v.41c0 .8-.6 1.34-1.56 1.34zm0 0"/></symbol><symbol overflow="visible" id="45bb1913s"><path d="M2.73.14c.9 0 1.43-.45 1.74-1.08h.06l.13.94h.8v-5.02h-.94v2.7c0 .98-.57 1.62-1.46 1.62-.75 0-1.1-.4-1.1-1.22v-3.1h-.93v3.32c0 1.17.55 1.84 1.7 1.84zm0 0"/></symbol><symbol overflow="visible" id="45bb1913t"><path d="M5.08-5.16c-.94 0-1.58.43-1.9 1.3h-.09l-.07-1.16H1.05v.77h1.1v3.48H.96V0h3.96v-.77H3.1v-1.46c0-1.36.6-2.05 1.83-2.05.4 0 .76.08 1.1.17l.15-.87c-.33-.11-.7-.18-1.11-.18zm0 0"/></symbol><symbol overflow="visible" id="45bb1913u"><path d="M.92-6.77V0h2.11c2.03 0 3.03-1.03 3.03-3.36 0-2.39-1.01-3.4-2.93-3.4zM1.91-.8v-5.17h1.18c1.29 0 1.96.63 1.96 2.61 0 1.94-.67 2.56-1.96 2.56zm0 0"/></symbol><symbol overflow="visible" id="45bb1913v"><path d="M3.58-5.81c.42 0 .72-.22.72-.67 0-.44-.3-.68-.72-.68-.44 0-.72.24-.72.68 0 .45.28.67.72.67zm.5.8H1.52v.76h1.6v3.48h-1.8V0h4.46v-.77h-1.7zm0 0"/></symbol><symbol overflow="visible" id="45bb1913w"><path d="M3.36.16c1.4 0 2.2-.6 2.2-1.57 0-.89-.54-1.22-1.47-1.39L3-3c-.67-.14-.86-.33-.86-.73 0-.5.4-.74 1.17-.74.83 0 1.19.27 1.27.8l.9-.05c-.12-1-.8-1.47-2.17-1.47-1.34 0-2.1.53-2.1 1.5 0 .81.45 1.22 1.52 1.44l1.04.2c.56.11.87.24.87.72 0 .52-.45.78-1.28.78-.95 0-1.36-.28-1.42-.87l-.9.06C1.07-.36 1.8.16 3.35.16zm0 0"/></symbol><symbol overflow="visible" id="45bb1913x"><path d="M3.34.14c1.43 0 2.13-.66 2.25-1.78l-.89-.1c-.1.7-.5 1.08-1.34 1.08-1.03 0-1.52-.64-1.52-1.84 0-1.23.47-1.86 1.52-1.86.84 0 1.23.36 1.34 1.08l.9-.1c-.13-1.09-.82-1.78-2.26-1.78-1.56 0-2.46.97-2.46 2.66 0 1.66.9 2.64 2.46 2.64zm0 0"/></symbol><symbol overflow="visible" id="45bb1913y"><path d="M3.33.14c1.62 0 2.5-.95 2.5-2.66 0-1.68-.88-2.64-2.5-2.64-1.63 0-2.5.96-2.5 2.64 0 1.7.87 2.66 2.5 2.66zm0-.77c-1.06 0-1.52-.6-1.52-1.89 0-1.28.46-1.87 1.52-1.87 1.08 0 1.53.6 1.53 1.87 0 1.29-.45 1.9-1.53 1.9zm0 0"/></symbol><symbol overflow="visible" id="45bb1913z"><path d="M2.16 0v-2.67c0-.99.59-1.63 1.46-1.63.74 0 1.07.38 1.07 1.22V0h.95v-3.31c0-1.2-.56-1.85-1.67-1.85-.92 0-1.49.46-1.77 1.08h-.06l-.12-.94H1.2V0zm0 0"/></symbol><symbol overflow="visible" id="45bb1913A"><path d="M3.42-.86h-.08L1.77-5.02H.8L2.73 0h.41c-.33.95-.72 1.27-1.45 1.27-.22 0-.49-.04-.69-.08l-.1.73c.2.06.58.11.87.11 1.2 0 1.7-.7 2.21-2.03l1.94-5.02H5zm0 0"/></symbol><symbol overflow="visible" id="45bb1913B"><path d="M3.92-7.14H1.36v.76h1.6v5.61H1.15V0H5.7v-.77H3.92zm0 0"/></symbol><symbol overflow="visible" id="45bb1913C"><path d="M3.16 2.03c1.67 0 2.4-.86 2.4-2.51v-4.54h-.81l-.13.91h-.06c-.26-.58-.8-1.05-1.73-1.05-1.42 0-2.24 1-2.24 2.52 0 1.6.75 2.56 2.2 2.56.94 0 1.5-.5 1.77-1.03h.05v.72c0 1.17-.42 1.67-1.45 1.67-.93 0-1.3-.34-1.41-.89L.8.5c.12.96.87 1.54 2.36 1.54zM3.06-.8c-.98 0-1.48-.57-1.48-1.82 0-1.13.5-1.75 1.48-1.75 1.06 0 1.58.76 1.58 1.75 0 .95-.56 1.82-1.58 1.82zm0 0"/></symbol><symbol overflow="visible" id="45bb1913D"><path d="M1.45-2.95c0 2.56 1.08 4.37 3.67 4.84l.11-.67C3.28.86 2.43-.75 2.43-2.95s.85-3.82 2.8-4.16l-.1-.69c-2.6.49-3.68 2.3-3.68 4.85zm0 0"/></symbol><symbol overflow="visible" id="45bb1913E"><path d="M2.84.14C3.8.14 4.33-.26 4.6-.9h.07L4.8 0h.76v-7.14h-.95v2.95h-.08c-.28-.6-.86-.97-1.67-.97-1.48 0-2.27.99-2.27 2.64C.6-.84 1.36.14 2.84.14zm.22-.8c-.98 0-1.48-.59-1.48-1.84s.5-1.86 1.48-1.86c1.13 0 1.58.8 1.58 1.86S4.2-.66 3.06-.66zm0 0"/></symbol><symbol overflow="visible" id="45bb1913F"><path d="M1.45-7.1c1.96.33 2.8 1.94 2.8 4.15 0 2.2-.84 3.8-2.8 4.17l.11.67c2.58-.47 3.67-2.28 3.67-4.84 0-2.55-1.09-4.36-3.67-4.85zm0 0"/></symbol><symbol overflow="visible" id="45bb1913j"><path d="M3.55 0h.17v-.75H3.5c-.36 0-.44-.03-.44-.47v-2.64h-.62v.44c-1.25 0-2 .69-2 1.62 0 .74.5 1.1 1.42 1.1.19 0 .39-.02.6-.05.1.53.4.75 1.09.75zM1.89-1.45c-.56 0-.83-.13-.83-.4 0-.5.44-.93 1.38-.96v1.25c0 .1 0 .1-.1.1H1.9zm0 0"/></symbol><symbol overflow="visible" id="45bb1913k"><path d="M1.14-5.56l.36-.03v-.96h-.36zM.91-3.98c.18 0 .34-.07.46-.22.08.06.22.12.36.12.33 0 .6-.33.54-.81l-.05-.38-.36.04.05.4c.01.22-.07.31-.2.31-.07 0-.13-.04-.18-.06.02-.1.02-.14.02-.23v-.4l-.4.04.02.45c0 .08 0 .3-.25.3-.22 0-.19-.17-.17-.25l.1-.47-.4.01c-.01.13-.04.25-.06.38-.1.44.14.77.52.77zm0 0"/></symbol><symbol overflow="visible" id="45bb1913l"><path d="M0 0h2.23v-.75h-.46c-.1 0-.1 0-.1-.1v-4.71H1v4.7c0 .11 0 .11-.1.11H0c-.3 0-.38.13-.38.36 0 .27.08.39.38.39zm0 0"/></symbol><symbol overflow="visible" id="45bb1913m"><path d="M0 0h.44c1.04 0 1.23-.4 1.23-1.5v-4.06H1v4.23c0 .47 0 .58-.48.58H0c-.3 0-.38.13-.38.36 0 .27.08.39.38.39zm0 0"/></symbol><symbol overflow="visible" id="45bb1913n"><path d="M.52 0h.67v-5.56H.52zm0 0"/></symbol><symbol overflow="visible" id="45bb1913o"><path d="M2.7 1.9c1.16 0 2.14-.63 2.14-1.6 0-.1-.01-.2-.04-.3h.3v-.75H2.9L2.8 0h.48c.8 0 .95.17.95.36 0 .3-.46.78-1.53.78-1.26 0-1.6-.5-1.6-1.34 0-.38.07-.8.18-1.28l-.64-.08c-.12.51-.19 1-.19 1.45 0 1.2.6 2.02 2.25 2.02zm-.34 1.7l.34-.48.6.46.36-.47-.6-.47-.36.47-.6-.45-.35.46zm0 0"/></symbol><symbol overflow="visible" id="45bb1913p"><path d="M0 0h.28a8.2 8.2 0 003.28-.58l.08-.73c-1.06.4-1.6.45-1.8.45-.07.02-.07.02-.12-.03-.11-.1-.5-.44-.5-.92 0-.4.26-.61.78-.61.25 0 .56.04.86.14L3-2.95a2.95 2.95 0 00-.98-.2c-.94 0-1.47.62-1.47 1.34 0 .33.12.76.34 1.06H0c-.3 0-.38.13-.38.36 0 .27.08.39.38.39zm0 0"/></symbol></defs><g fill="#fff"><use xlink:href="#45bb1913a" x="183.62" y="141"/><use xlink:href="#45bb1913b" x="281.52" y="141"/><use xlink:href="#45bb1913c" x="358.3" y="141"/><use xlink:href="#45bb1913d" x="259.0593" y="252"/><use xlink:href="#45bb1913e" x="265.7263" y="252"/><use xlink:href="#45bb1913f" x="272.3933" y="252"/><use xlink:href="#45bb1913g" x="279.0603" y="252"/><use xlink:href="#45bb1913h" x="285.7273" y="252"/><use xlink:href="#45bb1913i" x="292.3943" y="252"/><use xlink:href="#45bb1913j" x="299.0593" y="252"/><use xlink:href="#45bb1913k" x="302.766707" y="249.496296"/><use xlink:href="#45bb1913l" x="302.777818" y="252"/><use xlink:href="#45bb1913m" x="305.007818" y="252"/><g><use xlink:href="#45bb1913n" x="307.20004" y="252"/></g><g><use xlink:href="#45bb1913o" x="315.5704" y="252"/></g><g><use xlink:href="#45bb1913l" x="320.6664" y="252"/><use xlink:href="#45bb1913p" x="322.8964" y="252"/></g><g><use xlink:href="#45bb1913o" x="333.6519" y="252"/><use xlink:href="#45bb1913m" x="338.7479" y="252"/></g><g><use xlink:href="#45bb1913q" x="170" y="266"/><use xlink:href="#45bb1913e" x="176.667" y="266"/><use xlink:href="#45bb1913r" x="183.334" y="266"/><use xlink:href="#45bb1913g" x="190.001" y="266"/><use xlink:href="#45bb1913s" x="196.668" y="266"/><use xlink:href="#45bb1913t" x="203.335" y="266"/><use xlink:href="#45bb1913e" x="210.002" y="266"/><use xlink:href="#45bb1913h" x="216.669" y="266"/><use xlink:href="#45bb1913i" x="223.336" y="266"/><use xlink:href="#45bb1913u" x="230.003" y="266"/><use xlink:href="#45bb1913v" x="236.67" y="266"/><use xlink:href="#45bb1913w" x="243.337" y="266"/><use xlink:href="#45bb1913x" x="250.004" y="266"/><use xlink:href="#45bb1913t" x="256.671" y="266"/><use xlink:href="#45bb1913e" x="263.338" y="266"/><use xlink:href="#45bb1913g" x="270.005" y="266"/><use xlink:href="#45bb1913v" x="276.672" y="266"/><use xlink:href="#45bb1913y" x="283.339" y="266"/><use xlink:href="#45bb1913z" x="290.006" y="266"/><use xlink:href="#45bb1913r" x="296.673" y="266"/><use xlink:href="#45bb1913t" x="303.34" y="266"/><use xlink:href="#45bb1913A" x="310.007" y="266"/><use xlink:href="#45bb1913i" x="316.674" y="266"/><use xlink:href="#45bb1913B" x="323.341" y="266"/><use xlink:href="#45bb1913v" x="330.008" y="266"/><use xlink:href="#45bb1913C" x="336.675" y="266"/><use xlink:href="#45bb1913r" x="343.342" y="266"/><use xlink:href="#45bb1913g" x="350.009" y="266"/><use xlink:href="#45bb1913s" x="356.676" y="266"/><use xlink:href="#45bb1913t" x="363.343" y="266"/><use xlink:href="#45bb1913e" x="370.01" y="266"/><use xlink:href="#45bb1913w" x="376.677" y="266"/><use xlink:href="#45bb1913i" x="383.344" y="266"/><use xlink:href="#45bb1913D" x="390.011" y="266"/><use xlink:href="#45bb1913E" x="396.678" y="266"/><use xlink:href="#45bb1913B" x="403.345" y="266"/><use xlink:href="#45bb1913v" x="410.012" y="266"/><use xlink:href="#45bb1913C" x="416.679" y="266"/><use xlink:href="#45bb1913F" x="423.346" y="266"/></g></g></svg>