<?xml version='1.0' encoding='UTF-8'?>
<svg xmlns="http://www.w3.org/2000/svg" xmlns:xlink="http://www.w3.org/1999/xlink" width="600px" height="300px" viewBox="0 0 600 300" x="0px" y="0px" enable-background="new 0 0 600 300"><defs><symbol overflow="visible" id="470389efa"><path d="M9.34-24.97c0 2.64 2.2 6.05 5.96 6.05 1.97 0 4.28-1.88 4.28-4.28 0-3.2-2.2-6.4-5.4-6.4-3.07 0-4.84 2.2-4.84 4.63zm0 0"/></symbol><symbol overflow="visible" id="470389efb"><path d="M17.16-4.19C17.8-.1 18.37.44 19.14.44c1.31 0 2.75-2.53 2.75-4.85 0-8.68-4.19-26.06-8.58-35.64-2.97-6.26-4.62-7.36-6.6-7.36-1.76 0-3.96 1.86-3.96 4.18 0 1.32.77 2.85 3.73 7.92C12.31-25.3 15.3-15.51 17.16-4.2zm0 0"/></symbol><symbol overflow="visible" id="470389efc"><path d="M24.86-46.97a8.97 8.97 0 011.44 4.84c0 2.76-1.55 4.61-4.96 4.61-3.75 0-6.93-2.18-11-7.14C8.8-46.64 7.6-47.4 6.27-47.4c-1.97 0-3.52 1.86-3.52 3.96 0 1.54.66 2.64 3.08 7.26 5.94 11.33 8.25 21.78 9.47 31.56.43 3.97 1.1 5.07 1.86 5.07 1.32 0 2.96-2.53 2.96-4.85 0-8.14-2.53-20.67-5.39-29.03l.11-.1c2.1 1.74 5.07 3.18 8.04 3.18 4.73 0 8.03-3.95 8.03-9.02 0-4.73-2.75-8.03-4.61-8.03-.68 0-1.11.22-1.44.44zm0 0"/></symbol><symbol overflow="visible" id="470389efd"><path d="M30.69-46.97a11.7 11.7 0 012.1 6.05c0 1.98-1 3.4-2.65 3.4a4.8 4.8 0 01-3.4-1.2c-.33-3.84-2.32-7.16-4.08-7.16-.66 0-1.2.22-1.54.44a12 12 0 011.32 4.74c0 1.87-.99 3.3-3.19 3.3-2.64 0-4.95-1.54-8.03-5.83-2.2-3.08-3.3-4.18-4.74-4.18a3.77 3.77 0 00-3.73 3.74c0 1.55.66 2.64 3.08 7.26 5.94 11.33 8.25 22 9.47 31.78.43 3.97 1.2 5.07 1.86 5.07 1.32 0 2.96-2.53 2.96-4.85 0-7.46-2.75-21.78-5.39-28.7l.11-.1c1.88 1.87 3.75 2.96 6.07 2.96 2.07 0 3.73-1.1 4.71-2.86a8.59 8.59 0 005.4 2.2c3.3 0 5.93-3.18 5.93-7.48 0-5.5-2.86-9.02-4.72-9.02-.67 0-1.21.22-1.54.44zm0 0"/></symbol><symbol overflow="visible" id="470389efe"><path d="M30.14-43.02c-1.55-2.3-4.84-4.39-7.6-4.39-3.95 0-7.24 3.2-9.77 8.91h-.22l-2.1-5.83a4.51 4.51 0 00-4.18-3.08c-1.97 0-3.52 1.86-3.52 3.96 0 1.54.66 2.64 3.08 7.26 5.94 11.33 8.25 21.78 9.47 31.56.43 3.97 1.1 5.07 1.86 5.07 1.32 0 2.96-2.53 2.96-4.85 0-6.26-1.2-14.07-3.18-21.65l.1-.13c1.77 1 4.52 1.99 7.05 1.99 3.85 0 7.47-4.96 7.47-6.6 0-1-.54-1.54-1.1-1.65a14.69 14.69 0 01-7.59 1.98c-4.17 0-7.46-1.22-7.46-3.73 0-2.32 3.3-6.61 5.93-6.61 1.75 0 3.08.65 4.72 1.87 1.88-.65 3.75-3.08 4.08-4.08zm0 0"/></symbol><symbol overflow="visible" id="470389eff"><path d="M17.27-40.48C7.37-30.91 3.84-22.44 3.84-13.86 3.84-5.5 9.02.44 14.41.44c3.3 0 5.6-2.31 7.48-5.61h.22c1.98 3.97 4.73 5.6 7.37 5.6 5.5 0 10.22-5.82 10.22-16.71 0-13.97-13.08-30.03-20.56-30.03-3.3 0-6.48 1.65-6.48 2.75 0 1 3.4 2.1 4.6 3.08zm2.75 31.35c-1.1 1.86-2.75 2.97-4.83 2.97-3.42 0-6.17-2.42-6.17-8.57 0-7.05 3.86-15.41 12.43-23.11 7.82 4.95 13.1 15.07 13.1 22.89 0 5.93-2.32 8.68-5.61 8.68-2.75 0-4.3-1-5.28-2.86 1.09-2.42 1.64-4.51 1.64-5.93 0-2.2-2.75-5.06-5.07-5.06-.98 0-1.53.76-1.64 2.07-.21 2.32.44 6.07 1.43 8.93zm0 0"/></symbol><symbol overflow="visible" id="470389efg"><path d="M34.44-31.34c-3.64 3.95-7.7 5.82-13.2 5.82-6.29 0-10.79-3.3-10.79-7.8 0-4.96 3.96-8.8 9.78-8.8 1.77 0 2.97.32 4.41 1.2 0 3.3 1.31 5.83 3.3 5.83 2.97 0 5.39-2.86 5.39-5.61 0-3.85-5.4-7.92-12.42-7.92-9.47 0-15.96 8.03-15.96 15.3 0 6.7 5.4 11.98 13.64 12.98v.32C10.45-13.53 5.94-6.16 5.94-3.62c0 1.2 1 4.06 1.65 4.06.77 0 1.64-1.2 3.63-4.07a60.65 60.65 0 0118.7-17.17c6.05-3.51 7.14-5.93 7.14-8.14 0-1.42-1.2-2.4-2.62-2.4zm0 0"/></symbol><symbol overflow="visible" id="470389efh"><path d="M3.83 0v-5.95H6.2v-.82H.45v.82h2.4V0zm0 0"/></symbol><symbol overflow="visible" id="470389efi"><path d="M5.75-2.23v-.43c0-1.6-.9-2.51-2.42-2.51S.87-4.16.87-2.48c0 1.71.91 2.62 2.5 2.62 1.43 0 2.07-.56 2.29-1.52l-.9-.09c-.18.61-.59.9-1.35.9-.94 0-1.52-.54-1.58-1.66zm-2.4-2.2c.93 0 1.43.5 1.48 1.55H1.84c.08-1.07.6-1.56 1.5-1.56zm0 0"/></symbol><symbol overflow="visible" id="470389efj"><path d="M1.83 0l1.42-2h.06l1.46 2H5.8L4-2.53l1.78-2.49H4.8L3.42-3.08h-.08l-1.4-1.94H.89l1.78 2.49L.84 0zm0 0"/></symbol><symbol overflow="visible" id="470389efk"><path d="M5.52-4.25v-.77H3.17v-1.56h-.81l-.14 1.56H.75v.77h1.47v2.4c0 1.3.48 1.94 1.84 1.94C4.6.1 5.14 0 5.55-.14L5.4-.91c-.32.13-.72.2-1.13.2-.8 0-1.1-.37-1.1-1.23v-2.31zm0 0"/></symbol><symbol overflow="visible" id="470389efl"><path d="M3.33-3.42c.47 0 .8-.27.8-.8 0-.51-.33-.8-.8-.8-.47 0-.8.29-.8.8 0 .53.33.8.8.8zm0 3.5c.47 0 .8-.27.8-.78 0-.53-.33-.82-.8-.82-.47 0-.8.29-.8.82 0 .51.33.78.8.78zm0 0"/></symbol><symbol overflow="visible" id="470389efu"><path d="M5.95-6.77H1.1V0h.99v-2.92H5.3v-.77H2.08v-2.26h3.87zm0 0"/></symbol><symbol overflow="visible" id="470389efv"><path d="M2.83.14c.94 0 1.5-.39 1.81-.95h.08l.1.81h.76v-3.38c0-1.23-.69-1.8-2.13-1.8-1.43 0-2.03.65-2.18 1.6l.93.1c.11-.6.44-.93 1.22-.93.85 0 1.22.32 1.22 1.04v.34l-1.81.2C1.6-2.7 1.1-2.17 1.1-1.28c0 .92.64 1.42 1.72 1.42zm.25-.77c-.67 0-1.02-.28-1.02-.74 0-.44.28-.72 1-.82l1.58-.19v.41c0 .8-.6 1.34-1.56 1.34zm0 0"/></symbol><symbol overflow="visible" id="470389efw"><path d="M2.73.14c.9 0 1.43-.45 1.74-1.08h.06l.13.94h.8v-5.02h-.94v2.7c0 .98-.57 1.62-1.46 1.62-.75 0-1.1-.4-1.1-1.22v-3.1h-.93v3.32c0 1.17.55 1.84 1.7 1.84zm0 0"/></symbol><symbol overflow="visible" id="470389efx"><path d="M5.08-5.16c-.94 0-1.58.43-1.9 1.3h-.09l-.07-1.16H1.05v.77h1.1v3.48H.96V0h3.96v-.77H3.1v-1.46c0-1.36.6-2.05 1.83-2.05.4 0 .76.08 1.1.17l.15-.87c-.33-.11-.7-.18-1.11-.18zm0 0"/></symbol><symbol overflow="visible" id="470389efy"><path d="M2.08-6.77h-.99V0h4.79v-.81h-3.8zm0 0"/></symbol><symbol overflow="visible" id="470389efz"><path d="M3.58-5.81c.42 0 .72-.22.72-.67 0-.44-.3-.68-.72-.68-.44 0-.72.24-.72.68 0 .45.28.67.72.67zm.5.8H1.52v.76h1.6v3.48h-1.8V0h4.46v-.77h-1.7zm0 0"/></symbol><symbol overflow="visible" id="470389efA"><path d="M2.16 0v-2.67c0-.99.59-1.63 1.46-1.63.74 0 1.07.38 1.07 1.22V0h.95v-3.31c0-1.2-.56-1.85-1.67-1.85-.92 0-1.49.46-1.77 1.08h-.06l-.12-.94H1.2V0zm0 0"/></symbol><symbol overflow="visible" id="470389efB"><path d="M3.16 2.03c1.67 0 2.4-.86 2.4-2.51v-4.54h-.81l-.13.91h-.06c-.26-.58-.8-1.05-1.73-1.05-1.42 0-2.24 1-2.24 2.52 0 1.6.75 2.56 2.2 2.56.94 0 1.5-.5 1.77-1.03h.05v.72c0 1.17-.42 1.67-1.45 1.67-.93 0-1.3-.34-1.41-.89L.8.5c.12.96.87 1.54 2.36 1.54zM3.06-.8c-.98 0-1.48-.57-1.48-1.82 0-1.13.5-1.75 1.48-1.75 1.06 0 1.58.76 1.58 1.75 0 .95-.56 1.82-1.58 1.82zm0 0"/></symbol><symbol overflow="visible" id="470389efC"><path d="M.92-6.77V0h.99v-2.27h1.68c1.58 0 2.38-.65 2.38-2.2v-.14c0-1.51-.8-2.16-2.34-2.16zM5-4.47c0 1.05-.42 1.45-1.58 1.45H1.91v-2.96h1.51C4.58-5.98 5-5.66 5-4.61zm0 0"/></symbol><symbol overflow="visible" id="470389efD"><path d="M3.36.16c1.4 0 2.2-.6 2.2-1.57 0-.89-.54-1.22-1.47-1.39L3-3c-.67-.14-.86-.33-.86-.73 0-.5.4-.74 1.17-.74.83 0 1.19.27 1.27.8l.9-.05c-.12-1-.8-1.47-2.17-1.47-1.34 0-2.1.53-2.1 1.5 0 .81.45 1.22 1.52 1.44l1.04.2c.56.11.87.24.87.72 0 .52-.45.78-1.28.78-.95 0-1.36-.28-1.42-.87l-.9.06C1.07-.36 1.8.16 3.35.16zm0 0"/></symbol><symbol overflow="visible" id="470389efE"><path d="M1.63 0v-2.9c0-.8.15-1.4.71-1.4.41 0 .55.3.55.88V0h.95v-2.9c0-.8.18-1.4.72-1.4.4 0 .57.3.57.88V0h.95v-3.63c0-.92-.28-1.53-1.11-1.53-.63 0-.95.41-1.1.9h-.06c-.1-.52-.44-.9-1.08-.9-.6 0-.93.41-1.06.9H1.6l-.23-.76H.67V0zm0 0"/></symbol><symbol overflow="visible" id="470389efF"><path d="M3.92-7.14H1.36v.76h1.6v5.61H1.15V0H5.7v-.77H3.92zm0 0"/></symbol><symbol overflow="visible" id="470389efG"><path d="M1.45-2.95c0 2.56 1.08 4.37 3.67 4.84l.11-.67C3.28.86 2.43-.75 2.43-2.95s.85-3.82 2.8-4.16l-.1-.69c-2.6.49-3.68 2.3-3.68 4.85zm0 0"/></symbol><symbol overflow="visible" id="470389efH"><path d="M2.84.14C3.8.14 4.33-.26 4.6-.9h.07L4.8 0h.76v-7.14h-.95v2.95h-.08c-.28-.6-.86-.97-1.67-.97-1.48 0-2.27.99-2.27 2.64C.6-.84 1.36.14 2.84.14zm.22-.8c-.98 0-1.48-.59-1.48-1.84s.5-1.86 1.48-1.86c1.13 0 1.58.8 1.58 1.86S4.2-.66 3.06-.66zm0 0"/></symbol><symbol overflow="visible" id="470389efI"><path d="M4.63-6.5c.45 0 .98.08 1.39.2l.2-.72a5.3 5.3 0 00-1.64-.26c-1.52 0-2.16.56-2.16 1.87v.4H.9v.76h1.53V0h.94v-4.25h2.53v-.77H3.36v-.3c0-.84.33-1.18 1.27-1.18zm0 0"/></symbol><symbol overflow="visible" id="470389efJ"><path d="M1.45-7.1c1.96.33 2.8 1.94 2.8 4.15 0 2.2-.84 3.8-2.8 4.17l.11.67c2.58-.47 3.67-2.28 3.67-4.84 0-2.55-1.09-4.36-3.67-4.85zm0 0"/></symbol><symbol overflow="visible" id="470389efn"><path d="M1.38-1.45l.68-.68L1.2-3l-.67.67zm0 0"/></symbol><symbol overflow="visible" id="470389efo"><path d="M1.14 0h.66c0-2.92-.1-3.38-.57-5.03L.52-5c.53 1.6.62 1.97.62 5zm0 0"/></symbol><symbol overflow="visible" id="470389efp"><path d="M1.14 0h.66c0-1.28-.02-2.08-.08-2.72.2.06.42.1.6.1 1 0 1.46-.66 1.46-1.77 0-.2-.01-.42-.05-.64l-.65.06c.03.25.04.45.04.63 0 .65-.21.96-.8.96-.52 0-.68-.09-.84-.75l-.25-.9L.52-5c.53 1.6.62 1.97.62 5zm0 0"/></symbol><symbol overflow="visible" id="470389efq"><path d="M1.14 0h.66c0-1.28-.02-2.08-.08-2.72.2.06.42.1.6.1.26 0 .48-.07.66-.2.24.12.63.2.82.2.84 0 1.22-.66 1.22-1.77 0-.19-.02-.42-.04-.64l-.6.06.01.47c0 .77-.14 1.13-.6 1.13-.15 0-.27-.02-.37-.05.1-.27.14-.58.14-.97 0-.2-.01-.42-.04-.64l-.66.06c.02.25.05.45.05.63 0 .65-.18.96-.6.96-.51 0-.67-.09-.83-.75l-.25-.9L.52-5c.53 1.6.62 1.97.62 5zm0 0"/></symbol><symbol overflow="visible" id="470389efr"><path d="M1.14 0h.66c0-.92-.02-1.6-.03-2.16.21.04.45.05.71.05.66 0 1.43-.08 2.29-.25L4.84-3c-.53.13-1.32.19-1.56.2-.08 0-.08 0-.12-.06-.1-.14-.32-.48-.32-.86 0-.45.29-.64.7-.64.21 0 .48.06.74.16l.17-.64a2.7 2.7 0 00-.93-.2c-.77 0-1.32.46-1.32 1.35 0 .3.08.64.24.9-.24 0-.47 0-.66-.04-.06 0-.06 0-.08-.1a11.9 11.9 0 00-.47-2.1L.52-5c.53 1.6.62 1.97.62 5zm0 0"/></symbol><symbol overflow="visible" id="470389efs"><path d="M1.72 0c.25 0 .58-.03.81-.22.3.19.58.22.81.22.52 0 1.18-.27 1.18-1.4 0-1.16-.85-2.23-2.57-3.68l-.47.52.36.33C1-3.2.52-2.43.52-1.43.52-.35 1.08 0 1.72 0zm0-.75c-.36 0-.56-.19-.56-.69 0-.72.3-1.36 1.2-2.37 1.22 1.04 1.5 1.87 1.5 2.42 0 .45-.11.64-.5.64-.5 0-.5-.1-.5-.5v-.36H2.2v.36c0 .4 0 .5-.48.5zm0 0"/></symbol><symbol overflow="visible" id="470389eft"><path d="M.52 0h.87a5.44 5.44 0 012.95-2.6l.08-.8-1.19.52c-.28.15-.48.16-.71.04a.88.88 0 01-.47-.75c0-.5.34-.74.9-.74a3 3 0 01.77.11l.08-.69a3.1 3.1 0 00-.9-.14c-.88 0-1.54.49-1.54 1.49 0 .58.33 1.12.81 1.4C1.72-1.75 1.13-1 .52 0zm0 0"/></symbol></defs><g fill="#fff"><use xlink:href="#470389efa" x="173.005" y="141"/><use xlink:href="#470389efb" x="201.935" y="141"/><use xlink:href="#470389efc" x="229.875" y="141"/><use xlink:href="#470389efd" x="266.835" y="141"/><use xlink:href="#470389efe" x="308.745" y="141"/><use xlink:href="#470389eff" x="343.615" y="141"/><use xlink:href="#470389efg" x="387.175" y="141"/><g><use xlink:href="#470389efh" x="265.3222" y="252"/><use xlink:href="#470389efi" x="271.9892" y="252"/><use xlink:href="#470389efj" x="278.6562" y="252"/><use xlink:href="#470389efk" x="285.3232" y="252"/><use xlink:href="#470389efl" x="291.9902" y="252"/><use xlink:href="#470389efm" x="298.6572" y="252"/></g><g><use xlink:href="#470389efn" x="305.3222" y="252"/></g><g><use xlink:href="#470389efo" x="307.9" y="252"/><use xlink:href="#470389efp" x="310.219" y="252"/><use xlink:href="#470389efq" x="314.518" y="252"/><use xlink:href="#470389efr" x="320.057" y="252"/></g><g><use xlink:href="#470389efs" x="325.126" y="252"/></g><g><use xlink:href="#470389eft" x="329.745" y="252"/></g><g><use xlink:href="#470389efu" x="160" y="266"/><use xlink:href="#470389efi" x="166.667" y="266"/><use xlink:href="#470389efv" x="173.334" y="266"/><use xlink:href="#470389efk" x="180.001" y="266"/><use xlink:href="#470389efw" x="186.668" y="266"/><use xlink:href="#470389efx" x="193.335" y="266"/><use xlink:href="#470389efi" x="200.002" y="266"/><use xlink:href="#470389efl" x="206.669" y="266"/><use xlink:href="#470389efm" x="213.336" y="266"/><use xlink:href="#470389efy" x="220.003" y="266"/><use xlink:href="#470389efz" x="226.67" y="266"/><use xlink:href="#470389efA" x="233.337" y="266"/><use xlink:href="#470389efz" x="240.004" y="266"/><use xlink:href="#470389efA" x="246.671" y="266"/><use xlink:href="#470389efB" x="253.338" y="266"/><use xlink:href="#470389efm" x="260.005" y="266"/><use xlink:href="#470389efC" x="266.672" y="266"/><use xlink:href="#470389efi" x="273.339" y="266"/><use xlink:href="#470389efx" x="280.006" y="266"/><use xlink:href="#470389efD" x="286.673" y="266"/><use xlink:href="#470389efz" x="293.34" y="266"/><use xlink:href="#470389efv" x="300.007" y="266"/><use xlink:href="#470389efA" x="306.674" y="266"/><use xlink:href="#470389efm" x="313.341" y="266"/><use xlink:href="#470389efA" x="320.008" y="266"/><use xlink:href="#470389efw" x="326.675" y="266"/><use xlink:href="#470389efE" x="333.342" y="266"/><use xlink:href="#470389efi" x="340.009" y="266"/><use xlink:href="#470389efx" x="346.676" y="266"/><use xlink:href="#470389efv" x="353.343" y="266"/><use xlink:href="#470389efF" x="360.01" y="266"/><use xlink:href="#470389efD" x="366.677" y="266"/><use xlink:href="#470389efm" x="373.344" y="266"/><use xlink:href="#470389efG" x="380.011" y="266"/><use xlink:href="#470389efH" x="386.678" y="266"/><use xlink:href="#470389efi" x="393.345" y="266"/><use xlink:href="#470389efI" x="400.012" y="266"/><use xlink:href="#470389efv" x="406.679" y="266"/><use xlink:href="#470389efw" x="413.346" y="266"/><use xlink:href="#470389efF" x="420.013" y="266"/><use xlink:href="#470389efk" x="426.68" y="266"/><use xlink:href="#470389efJ" x="433.347" y="266"/></g></g></svg>