<?xml version='1.0' encoding='UTF-8'?>
<svg xmlns="http://www.w3.org/2000/svg" xmlns:xlink="http://www.w3.org/1999/xlink" width="600px" height="300px" viewBox="0 0 600 300" x="0px" y="0px" enable-background="new 0 0 600 300"><defs><symbol overflow="visible" id="811dfe80a"><path d="M5.72 11.1a1.81 1.81 0 00-1.31-.54c-1.33 0-2.75 2.2-2.75 6.38 0 9.25 7.36 17.04 19.68 17.04 16.18 0 27.07-11.54 27.07-28.37 0-1.99-.22-3.84-.57-5.61h3.2c1.43 0 2.52-1.44 2.52-3.63 0-2.2-1.1-3.64-2.51-3.64h-6.07c-2.07-3.4-4.93-5.39-7.68-5.39s-4.52 1.88-4.52 4.52c0 4.08 4.06 7.05 10.24 7.92 1.2 1.1 1.64 3.4 1.64 5.72 0 10.9-8.7 20.56-22.33 20.56-10.24 0-16.94-5.93-16.94-12.42 0-.98.11-1.87.33-2.53zm23.33-35.52c0 1.87 1.3 3.51 3.3 3.51 1.96 0 3.4-1.64 3.4-3.51 0-2.2-1.44-4.4-3.4-4.4-2 0-3.3 2.2-3.3 4.4zm0 0"/></symbol><symbol overflow="visible" id="811dfe80b"><path d="M1.1 36.84c0 .78.56 1.33 1.21 1.33.44 0 1.2-.22 1.99-.44l13.07-3.96c1.99-.66 2.43-1.2 2.43-2.32v-.87c0-.77-.55-1.31-1.32-1.31-.43 0-1.32.21-2.42.54l-13.1 4.07c-1.3.32-1.87.89-1.87 2.09zm0 0"/></symbol><symbol overflow="visible" id="811dfe80c"><path d="M13.42-33.66a41.07 41.07 0 00-7.81-.78c-2.97 0-5.4 3.2-5.4 6.83 0 1.77 1.77 2.53 3.85 2.53 1.88 0 4.85-.65 6.72-1.22 8.69 0 13.86 4.85 13.86 9.47 0 5.17-5.06 9.56-21.12 9.56H0c-1.66 0-2.75 1.44-2.75 3.64S-1.65 0 0 0h1.88c13.18 0 21.21-3.84 24.96-9.23C28.6-3.3 32.9 0 38.5 0c1.66 0 2.64-1.44 2.64-3.63 0-2.2-.98-3.64-2.64-3.64-4.84 0-8.58-2.86-9.02-10.21v-.11c-.1-5.61-3.53-11.11-11.78-14.97 8.25-6.92 11.9-12.42 11.9-14.74 0-1.65-2.43-3.51-3.76-3.51-.98 0-1.64.65-2.3 1.97-1.98 3.86-4.95 8.68-10.12 15.18zm0 0"/></symbol><symbol overflow="visible" id="811dfe80d"><path d="M8.36-64.02c2.2 6.38 3.08 12.97 4.73 12.97.55 0 1.54-.87 1.54-1.42 0-1.33-1.43-6.26-2.2-12.1-.88-6.06-2.3-7.48-4.73-7.48-1.98 0-3.51 1.42-3.51 3.4 0 2.54 1.86 4.42 4.17 4.63zm0 0"/></symbol><symbol overflow="visible" id="811dfe80e"><path d="M1.66-52.36c0 .77.54 1.31 1.2 1.31.44 0 1.2-.22 1.98-.43l13.1-3.96c1.97-.65 2.4-1.22 2.4-2.31v-.88c0-.78-.54-1.32-1.3-1.32-.45 0-1.34.22-2.43.54L3.5-55.33c-1.3.33-1.85.88-1.85 2.1zm0 0"/></symbol><symbol overflow="visible" id="811dfe80f"><path d="M7.27-37.84c2.53 3.64 4.28 11 4.28 18.92C11.55-9.45 8.58-7.27 0-7.27c-1.44 0-2.75 1.44-2.75 3.64S-1.44 0 0 0c5.5 0 9.8-1.55 12.2-4.3 2.32-2.64 3.64-6.26 3.64-14.62 0-15.95-6.15-29.49-13.09-29.49-3.19 0-4.95 2.43-4.95 5.28 0 4.41 2.86 6.61 5.72 6.61 1.43 0 2.96-.67 3.75-1.32zm0 0"/></symbol><symbol overflow="visible" id="811dfe80g"><path d="M25.63-.44c.21.88.32 1.75.32 3.08 0 7.81-6.04 14.19-21.1 14.19-1.44 0-2.97-.11-3.87-.22-.21.22-.43.66-.43 1.33 0 2.62 4.3 6.15 10.45 6.15 11.33 0 20.02-10.67 20.02-24.86 0-11.32-5.83-20.57-11.99-20.57-4.73 0-10.78 5.93-10.78 12.54 0 5.72 4.3 9.57 11.44 9.57 2.53 0 4.84-.55 5.93-1.2zm-1.1-5.72c-.55.22-1.66.33-2.75.33-5.6 0-8.69-2.53-8.69-5.17a3.86 3.86 0 013.85-3.73c3.4 0 6.83 4.06 7.6 8.57zm0 0"/></symbol><symbol overflow="visible" id="811dfe80h"><path d="M4.84-52.8c0 .55.44 1.53 1.43 1.53 1.87 0 6.17-2.42 8.25-5.93a11.13 11.13 0 001.65-5.94c0-3.3-2.1-6.6-4.84-6.6-1.88 0-4.52 2.2-4.52 5.18 0 2.19 1.55 3.4 3.42 3.4.66 0 1.75-.32 2.08-.54-.44 3.51-2.62 6.26-7.47 8.9zm0 0"/></symbol><symbol overflow="visible" id="811dfe80i"><path d="M17.81-69.84c-1.53.65-2.97 3.07-3.18 4.5 1.98 1.1 3.3 2.86 3.3 4.73 0 1.66-.88 2.53-2.2 2.53-2.2 0-3.96-1.76-5.6-6.6-.68 0-1.88 1-2.2 1.65 0 1.1.54 2.97 1.41 4.51-.32 1.2-1.64 2.54-2.96 2.54-2.43 0-3.3-2.65-2.43-7.27-.33-.33-1.53-.66-2.18-.66a13.07 13.07 0 00-1.33 6.27c0 4.08 2.1 6.83 5.06 6.83 2.64 0 4.52-2.42 5.28-5.17a6.23 6.23 0 005.06 2.85c2.97 0 5.94-2.64 5.94-7.37 0-3.4-1.55-6.94-3.97-9.34zm0 0"/></symbol><symbol overflow="visible" id="811dfe80j"><path d="M32.34 16.6c-.54.12-1.76.34-4.95.34-12.33 0-21.23-7.14-21.23-14.96 0-3.3 2.3-6.17 4.95-6.17 1.66 0 2.75.9 3.95 1.88C16.61-1.1 18.48.22 21.9.22c5.61 0 12.2-5.5 12.2-13.75 0-6.7-3.73-10.56-8.57-10.56-5.07 0-10.46 4.73-12.64 11.21C5.71-9.12 2.2-3.18 2.2 3.3c0 10.67 8.14 20.25 20.13 20.25 6.15 0 10.34-4.4 10.34-5.96 0-.43-.1-.76-.33-.98zM23.2-16.82c2.53 0 4.2 1.77 4.2 4.63 0 3.07-2.32 6.15-5.4 6.15-2.53 0-4.63-1.65-4.63-4.4 0-3.2 2.97-6.38 5.83-6.38zm0 0"/></symbol><symbol overflow="visible" id="811dfe80k"><path d="M6.48-37.84C7.16-35.86 7.7-33 7.92-26.3c.44 11.35.88 16.5 3.52 22.57C12.66-.88 13.64 0 14.3 0c.65 0 1.98-1.44 1.98-2.42 0-1.31-3.51-7.7-3.51-16.83 0-7.05.43-11.98.43-16.6 0-8.8-2.97-13.1-7.7-13.1A4.74 4.74 0 00.55-44c0 3.19 2.75 5.6 5.93 6.16zm2.86-27.07c0-1.64-1.2-2.64-3.18-2.64-3.2 0-7.47 4.08-7.47 8.03 0 1.66 1.42 2.65 3.3 3.43-.55.76-1.22 1.75-1.22 2.4 0 .56 2.53 1.55 3.3 1.55.88 0 1-1.66 2.09-3.52 3.07-.89 3.86-1.76 3.86-2.75 0-.89-.46-1.54-1.66-1.54s-3.3.89-4.63 1.76c-1.2 0-1.75-.65-1.75-1.54 0-1.54 1.65-3.41 3.08-3.41.77 0 1.2.44 1.99.44 1.75 0 2.3-1.2 2.3-2.2zm0 0"/></symbol><symbol overflow="visible" id="811dfe80l"><path d="M25.63-30.14c-.33-.88-1.86-2.53-3.74-2.53-2.31 0-3.73 3.62-3.73 8.69-1.22 2.86-3.43 4.84-9.04 7.59-6.04 2.97-7.57 5.72-7.57 8.8 0 4.73 4.28 8.9 9.12 8.9 3.52 0 6.49-1.75 8.58-4.83.98-1.43 2.2-4.3 2.97-7.8C23.77-3.63 28.59 0 34.88 0c1.42 0 2.74-1.44 2.74-3.63 0-2.2-1.32-3.64-2.74-3.64-6.4 0-10.57-4.39-10.57-13.3 0-3.2.55-7.04 1.32-9.57zm-4.94 11.77c0 6.93-5.07 12.43-10.46 12.43-2.53 0-3.86-1.54-3.86-3.08 0-1.43 1-2.53 5.29-3.75 4.3-1.2 7.04-3.07 9.03-5.6zm0 0"/></symbol><symbol overflow="visible" id="811dfe80m"><path d="M11.33-8.36h.1A12.19 12.19 0 0022.99 0c1.44 0 2.75-1.44 2.75-3.63 0-2.2-1.3-3.64-2.75-3.64-5.04 0-9.34-3.4-10.89-13.42a182.86 182.86 0 01-1.53-15.72c-.22-5.72-2.2-8.03-4.95-8.03-2.2 0-3.95 1.31-3.95 3.52 0 2.31.87 4.84 3.07 10.34 2.64 6.7 4.18 11.88 4.18 15.06 0 5.07-3.08 8.25-8.91 8.25-1.44 0-2.75 1.44-2.75 3.64S-1.44 0 0 0c5.94 0 9.8-3.63 11.33-8.36zm0 0"/></symbol><symbol overflow="visible" id="811dfe80n"><path d="M6.48-37.84C7.16-35.86 7.7-33 7.92-26.3c.44 11.35.88 16.5 3.52 22.57C12.66-.88 13.64 0 14.3 0c.65 0 1.98-1.44 1.98-2.42 0-1.31-3.51-7.7-3.51-16.83 0-7.05.43-11.98.43-16.6 0-8.8-2.97-13.1-7.7-13.1A4.74 4.74 0 00.55-44c0 3.19 2.75 5.6 5.93 6.16zm0 0"/></symbol><symbol overflow="visible" id="811dfe80o"><path d="M3.83 0v-5.95H6.2v-.82H.45v.82h2.4V0zm0 0"/></symbol><symbol overflow="visible" id="811dfe80p"><path d="M5.75-2.23v-.43c0-1.6-.9-2.51-2.42-2.51S.87-4.16.87-2.48c0 1.71.91 2.62 2.5 2.62 1.43 0 2.07-.56 2.29-1.52l-.9-.09c-.18.61-.59.9-1.35.9-.94 0-1.52-.54-1.58-1.66zm-2.4-2.2c.93 0 1.43.5 1.48 1.55H1.84c.08-1.07.6-1.56 1.5-1.56zm0 0"/></symbol><symbol overflow="visible" id="811dfe80q"><path d="M1.83 0l1.42-2h.06l1.46 2H5.8L4-2.53l1.78-2.49H4.8L3.42-3.08h-.08l-1.4-1.94H.89l1.78 2.49L.84 0zm0 0"/></symbol><symbol overflow="visible" id="811dfe80r"><path d="M5.52-4.25v-.77H3.17v-1.56h-.81l-.14 1.56H.75v.77h1.47v2.4c0 1.3.48 1.94 1.84 1.94C4.6.1 5.14 0 5.55-.14L5.4-.91c-.32.13-.72.2-1.13.2-.8 0-1.1-.37-1.1-1.23v-2.31zm0 0"/></symbol><symbol overflow="visible" id="811dfe80s"><path d="M3.33-3.42c.47 0 .8-.27.8-.8 0-.51-.33-.8-.8-.8-.47 0-.8.29-.8.8 0 .53.33.8.8.8zm0 3.5c.47 0 .8-.27.8-.78 0-.53-.33-.82-.8-.82-.47 0-.8.29-.8.82 0 .51.33.78.8.78zm0 0"/></symbol><symbol overflow="visible" id="811dfe80I"><path d="M5.95-6.77H1.1V0h.99v-2.92H5.3v-.77H2.08v-2.26h3.87zm0 0"/></symbol><symbol overflow="visible" id="811dfe80J"><path d="M2.83.14c.94 0 1.5-.39 1.81-.95h.08l.1.81h.76v-3.38c0-1.23-.69-1.8-2.13-1.8-1.43 0-2.03.65-2.18 1.6l.93.1c.11-.6.44-.93 1.22-.93.85 0 1.22.32 1.22 1.04v.34l-1.81.2C1.6-2.7 1.1-2.17 1.1-1.28c0 .92.64 1.42 1.72 1.42zm.25-.77c-.67 0-1.02-.28-1.02-.74 0-.44.28-.72 1-.82l1.58-.19v.41c0 .8-.6 1.34-1.56 1.34zm0 0"/></symbol><symbol overflow="visible" id="811dfe80K"><path d="M2.73.14c.9 0 1.43-.45 1.74-1.08h.06l.13.94h.8v-5.02h-.94v2.7c0 .98-.57 1.62-1.46 1.62-.75 0-1.1-.4-1.1-1.22v-3.1h-.93v3.32c0 1.17.55 1.84 1.7 1.84zm0 0"/></symbol><symbol overflow="visible" id="811dfe80L"><path d="M5.08-5.16c-.94 0-1.58.43-1.9 1.3h-.09l-.07-1.16H1.05v.77h1.1v3.48H.96V0h3.96v-.77H3.1v-1.46c0-1.36.6-2.05 1.83-2.05.4 0 .76.08 1.1.17l.15-.87c-.33-.11-.7-.18-1.11-.18zm0 0"/></symbol><symbol overflow="visible" id="811dfe80M"><path d="M6.17 0L3.98-6.77h-1.3L.5 0h.97l.44-1.47h2.78L5.16 0zM3.28-5.94h.08l1.1 3.74H2.15zm0 0"/></symbol><symbol overflow="visible" id="811dfe80N"><path d="M3.9.14c1.48 0 2.18-.98 2.18-2.64 0-1.67-.7-2.66-2.17-2.66-.91 0-1.49.41-1.79 1h-.06v-2.98h-.95V0h.81l.11-.9h.06c.29.63.82 1.04 1.82 1.04zm-.32-.8c-1.08 0-1.55-.8-1.55-1.84 0-1.06.47-1.86 1.55-1.86 1.1 0 1.51.61 1.51 1.86S4.64-.66 3.58-.66zm0 0"/></symbol><symbol overflow="visible" id="811dfe80O"><path d="M3.58-5.81c.42 0 .72-.22.72-.67 0-.44-.3-.68-.72-.68-.44 0-.72.24-.72.68 0 .45.28.67.72.67zm.5.8H1.52v.76h1.6v3.48h-1.8V0h4.46v-.77h-1.7zm0 0"/></symbol><symbol overflow="visible" id="811dfe80P"><path d="M3.34.14c1.43 0 2.13-.66 2.25-1.78l-.89-.1c-.1.7-.5 1.08-1.34 1.08-1.03 0-1.52-.64-1.52-1.84 0-1.23.47-1.86 1.52-1.86.84 0 1.23.36 1.34 1.08l.9-.1c-.13-1.09-.82-1.78-2.26-1.78-1.56 0-2.46.97-2.46 2.66 0 1.66.9 2.64 2.46 2.64zm0 0"/></symbol><symbol overflow="visible" id="811dfe80Q"><path d="M3.9 0l2-5.02h-.96L3.4-.94h-.07L1.8-5.02H.77L2.78 0zm0 0"/></symbol><symbol overflow="visible" id="811dfe80R"><path d="M3.33.14c1.62 0 2.5-.95 2.5-2.66 0-1.68-.88-2.64-2.5-2.64-1.63 0-2.5.96-2.5 2.64 0 1.7.87 2.66 2.5 2.66zm0-.77c-1.06 0-1.52-.6-1.52-1.89 0-1.28.46-1.87 1.52-1.87 1.08 0 1.53.6 1.53 1.87 0 1.29-.45 1.9-1.53 1.9zm0 0"/></symbol><symbol overflow="visible" id="811dfe80S"><path d="M3.92-7.14H1.36v.76h1.6v5.61H1.15V0H5.7v-.77H3.92zm0 0"/></symbol><symbol overflow="visible" id="811dfe80T"><path d="M3.36.16c1.4 0 2.2-.6 2.2-1.57 0-.89-.54-1.22-1.47-1.39L3-3c-.67-.14-.86-.33-.86-.73 0-.5.4-.74 1.17-.74.83 0 1.19.27 1.27.8l.9-.05c-.12-1-.8-1.47-2.17-1.47-1.34 0-2.1.53-2.1 1.5 0 .81.45 1.22 1.52 1.44l1.04.2c.56.11.87.24.87.72 0 .52-.45.78-1.28.78-.95 0-1.36-.28-1.42-.87l-.9.06C1.07-.36 1.8.16 3.35.16zm0 0"/></symbol><symbol overflow="visible" id="811dfe80U"><path d="M2.16 0v-2.67c0-.99.59-1.63 1.46-1.63.74 0 1.07.38 1.07 1.22V0h.95v-3.31c0-1.2-.56-1.85-1.67-1.85-.92 0-1.49.46-1.77 1.08h-.06l-.12-.94H1.2V0zm0 0"/></symbol><symbol overflow="visible" id="811dfe80V"><path d="M1.63 0v-2.9c0-.8.15-1.4.71-1.4.41 0 .55.3.55.88V0h.95v-2.9c0-.8.18-1.4.72-1.4.4 0 .57.3.57.88V0h.95v-3.63c0-.92-.28-1.53-1.11-1.53-.63 0-.95.41-1.1.9h-.06c-.1-.52-.44-.9-1.08-.9-.6 0-.93.41-1.06.9H1.6l-.23-.76H.67V0zm0 0"/></symbol><symbol overflow="visible" id="811dfe80W"><path d="M5.77-5.02H4.63L2.3-2.88h-.06v-4.26h-.94V0h.94v-2.31h.06L4.71 0h1.24L3.23-2.69zm0 0"/></symbol><symbol overflow="visible" id="811dfe80u"><path d="M2.4-2.7l.37-.5-.65-.5-.39.51zm-.15 4.39c1.1 0 2.02-.46 2.1-1.7l.42.01h.17v-.75h-.52c-.06 0-.08 0-.1-.13l-.21-1.8-.67.06c.25 1.95.28 2.23.28 2.39C3.72.55 3.27.92 2.28.92 1.38.92 1.1.58 1.1-.09c0-.35.08-.8.2-1.33l-.65-.06c-.12.51-.2 1-.2 1.43C.44.98.89 1.7 2.25 1.7zm0 0"/></symbol><symbol overflow="visible" id="811dfe80v"><path d="M.38 0l1.51-.13v-.42L.38-.42zm0 0"/></symbol><symbol overflow="visible" id="811dfe80w"><path d="M0 0h3.42v-.75h-.65l.01-.2c0-.66-.67-1.58-1.9-2.82l2.28-1.06v-.73L.14-4.14v.69c1.3 1.18 1.97 1.97 1.97 2.5 0 .1-.05.2-.4.2H0c-.3 0-.38.13-.38.36 0 .27.08.39.38.39zm0 0"/></symbol><symbol overflow="visible" id="811dfe80x"><path d="M.38-4.28l.35-.02v-.97H.38zm0 0"/></symbol><symbol overflow="visible" id="811dfe80y"><path d="M.38-4.72l1.51-.12v-.43l-1.51.13zm0 0"/></symbol><symbol overflow="visible" id="811dfe80z"><path d="M0 0h.44c1.04 0 1.23-.4 1.23-1.5v-4.06H1v4.23c0 .47 0 .58-.48.58H0c-.3 0-.38.13-.38.36 0 .27.08.39.38.39zm0 0"/></symbol><symbol overflow="visible" id="811dfe80A"><path d="M1.08 1.78c1.54 0 2.1-.95 2.1-2.56v-.2c0-1.07-.38-1.94-1.32-1.94-.92 0-1.42.75-1.42 1.64 0 .97.54 1.3 1.51 1.3.18 0 .36-.02.6-.04-.16.79-.75 1.05-1.53 1.05-.16 0-.33 0-.5-.03l.07.73c.16.04.33.05.49.05zm.89-2.5c-.61 0-.94-.12-.94-.6 0-.5.27-.85.75-.85.81 0 .83.95.81 1.33-.01.09-.01.09-.1.1l-.52.02zm0 0"/></symbol><symbol overflow="visible" id="811dfe80B"><path d="M.45-5.52l.85-.06c.47-.03.9-.19.9-.81 0-.38-.26-.69-.72-.69-.43 0-.68.3-.68.72 0 .11.01.25.07.4l-.42.02zM1.3-6a.62.62 0 01-.11-.33c0-.22.1-.36.31-.36.22 0 .31.16.31.35 0 .28-.23.32-.44.34zM.9-3.98c.2 0 .35-.07.47-.22.08.06.22.12.36.12.33 0 .6-.33.54-.81l-.05-.38-.36.04.05.4c.01.22-.07.31-.2.31-.07 0-.13-.04-.18-.06.02-.1.02-.14.02-.23v-.4l-.4.04.02.45c0 .08 0 .3-.25.3-.22 0-.19-.17-.17-.25l.1-.47-.4.01c-.01.13-.04.25-.06.38-.1.44.14.77.52.77zm0 0"/></symbol><symbol overflow="visible" id="811dfe80C"><path d="M.6 2.25l.68-.05C1.18 1.12 1.12.37 1.1-.2c0-.16 0-.25.14-.27A5.7 5.7 0 003.06 0c.64 0 1-.4 1-1.16 0-1-.58-1.8-1.48-1.8-.74 0-1 .52-1.28 1.27l-.16.5c-.48.06-.7.4-.7.99 0 .45.1 1.54.15 2.45zM3.05-.72c-.33 0-.87-.17-1.15-.26-.18-.05-.18-.05-.05-.4.12-.37.25-.82.73-.82.5 0 .88.45.88 1.04 0 .32-.11.44-.4.44zm0 0"/></symbol><symbol overflow="visible" id="811dfe80D"><path d="M.1-6.42l1.5-.11v-.42l-.68.04c-.05 0-.05 0-.08-.03C.83-7 .78-7.08.78-7.17c0-.16.14-.25.4-.25l.18.01v-.43c-.1-.02-.17-.02-.25-.02-.53 0-.77.36-.77.69 0 .1.03.2.07.31l-.32.02zM.51 0h.67v-5.56H.52zm0 0"/></symbol><symbol overflow="visible" id="811dfe80E"><path d="M3.55 0h.17v-.75H3.5c-.36 0-.44-.03-.44-.47v-2.64h-.62v.44c-1.25 0-2 .69-2 1.62 0 .74.5 1.1 1.42 1.1.19 0 .39-.02.6-.05.1.53.4.75 1.09.75zM1.89-1.45c-.56 0-.83-.13-.83-.4 0-.5.44-.93 1.38-.96v1.25c0 .1 0 .1-.1.1H1.9zm0 0"/></symbol><symbol overflow="visible" id="811dfe80F"><path d="M1.14-5.56l.36-.03v-.96h-.36zM.91-3.98c.18 0 .34-.07.46-.22.08.06.22.12.36.12.33 0 .6-.33.54-.81l-.05-.38-.36.04.05.4c.01.22-.07.31-.2.31-.07 0-.13-.04-.18-.06.02-.1.02-.14.02-.23v-.4l-.4.04.02.45c0 .08 0 .3-.25.3-.22 0-.19-.17-.17-.25l.1-.47-.4.01c-.01.13-.04.25-.06.38-.1.44.14.77.52.77zm0 0"/></symbol><symbol overflow="visible" id="811dfe80G"><path d="M0 0h2.23v-.75h-.46c-.1 0-.1 0-.1-.1v-4.71H1v4.7c0 .11 0 .11-.1.11H0c-.3 0-.38.13-.38.36 0 .27.08.39.38.39zm0 0"/></symbol><symbol overflow="visible" id="811dfe80H"><path d="M.52 0h.67v-5.56H.52zm0 0"/></symbol></defs><g fill="#fff"><use xlink:href="#811dfe80a" x="140.775" y="141"/><use xlink:href="#811dfe80b" x="197.425" y="133.52"/><use xlink:href="#811dfe80c" x="191.815" y="141"/><use xlink:href="#811dfe80d" x="223.935" y="125.38"/><use xlink:href="#811dfe80e" x="224.265" y="136.05"/><use xlink:href="#811dfe80f" x="230.315" y="141"/><use xlink:href="#811dfe80d" x="253.635" y="151.45"/><use xlink:href="#811dfe80e" x="253.965" y="162.12"/><use xlink:href="#811dfe80g" x="247.805" y="141"/><use xlink:href="#811dfe80h" x="299.945" y="136.38"/><use xlink:href="#811dfe80i" x="300.935" y="155.41"/><use xlink:href="#811dfe80j" x="294.225" y="141"/><use xlink:href="#811dfe80k" x="330.415" y="141"/><use xlink:href="#811dfe80b" x="370.345" y="126.15"/><use xlink:href="#811dfe80l" x="363.195" y="141"/><use xlink:href="#811dfe80d" x="389.375" y="117.02"/><use xlink:href="#811dfe80i" x="390.365" y="136.05"/><use xlink:href="#811dfe80m" x="398.065" y="141"/><use xlink:href="#811dfe80f" x="421.055" y="141"/><use xlink:href="#811dfe80e" x="434.695" y="137.15"/><use xlink:href="#811dfe80n" x="439.645" y="141"/><use xlink:href="#811dfe80o" x="258.2241" y="252"/><use xlink:href="#811dfe80p" x="264.8911" y="252"/><use xlink:href="#811dfe80q" x="271.5581" y="252"/><use xlink:href="#811dfe80r" x="278.2251" y="252"/><use xlink:href="#811dfe80s" x="284.8921" y="252"/><use xlink:href="#811dfe80t" x="291.5591" y="252"/><use xlink:href="#811dfe80u" x="298.2241" y="252"/><use xlink:href="#811dfe80v" x="303.235211" y="253.407407"/><use xlink:href="#811dfe80w" x="303.157433" y="252"/><use xlink:href="#811dfe80x" x="307.327803" y="249.022222"/><use xlink:href="#811dfe80y" x="306.750025" y="250.303703"/><use xlink:href="#811dfe80z" x="306.572248" y="251.999999"/><use xlink:href="#811dfe80x" x="309.890767" y="251.64074"/><use xlink:href="#811dfe80y" x="309.312989" y="252.922221"/><use xlink:href="#811dfe80A" x="308.764841" y="251.999999"/><use xlink:href="#811dfe80B" x="320.2019" y="252.07037"/><use xlink:href="#811dfe80C" x="319.061159" y="252"/><use xlink:href="#811dfe80D" x="323.561159" y="252"/><g><use xlink:href="#811dfe80v" x="332.313" y="252.71852"/></g><g><use xlink:href="#811dfe80E" x="331.931518" y="252.000001"/></g><g><use xlink:href="#811dfe80F" x="335.638925" y="249.496297"/></g><g><use xlink:href="#811dfe80G" x="335.650037" y="252.000001"/><use xlink:href="#811dfe80z" x="337.880037" y="252.000001"/></g><g><use xlink:href="#811dfe80y" x="339.790778" y="250.303706"/></g><g><use xlink:href="#811dfe80H" x="340.072259" y="252.000001"/></g><g><use xlink:href="#811dfe80I" x="186.6667" y="266"/><use xlink:href="#811dfe80p" x="193.3337" y="266"/><use xlink:href="#811dfe80J" x="200.0007" y="266"/><use xlink:href="#811dfe80r" x="206.6677" y="266"/><use xlink:href="#811dfe80K" x="213.3347" y="266"/><use xlink:href="#811dfe80L" x="220.0017" y="266"/><use xlink:href="#811dfe80p" x="226.6687" y="266"/><use xlink:href="#811dfe80s" x="233.3357" y="266"/><use xlink:href="#811dfe80t" x="240.0027" y="266"/><use xlink:href="#811dfe80M" x="246.6697" y="266"/><use xlink:href="#811dfe80L" x="253.3367" y="266"/><use xlink:href="#811dfe80J" x="260.0037" y="266"/><use xlink:href="#811dfe80N" x="266.6707" y="266"/><use xlink:href="#811dfe80O" x="273.3377" y="266"/><use xlink:href="#811dfe80P" x="280.0047" y="266"/><use xlink:href="#811dfe80t" x="286.6717" y="266"/><use xlink:href="#811dfe80Q" x="293.3387" y="266"/><use xlink:href="#811dfe80R" x="300.0057" y="266"/><use xlink:href="#811dfe80P" x="306.6727" y="266"/><use xlink:href="#811dfe80J" x="313.3397" y="266"/><use xlink:href="#811dfe80S" x="320.0067" y="266"/><use xlink:href="#811dfe80O" x="326.6737" y="266"/><use xlink:href="#811dfe80T" x="333.3407" y="266"/><use xlink:href="#811dfe80J" x="340.0077" y="266"/><use xlink:href="#811dfe80r" x="346.6747" y="266"/><use xlink:href="#811dfe80O" x="353.3417" y="266"/><use xlink:href="#811dfe80R" x="360.0087" y="266"/><use xlink:href="#811dfe80U" x="366.6757" y="266"/><use xlink:href="#811dfe80t" x="373.3427" y="266"/><use xlink:href="#811dfe80V" x="380.0097" y="266"/><use xlink:href="#811dfe80J" x="386.6767" y="266"/><use xlink:href="#811dfe80L" x="393.3437" y="266"/><use xlink:href="#811dfe80W" x="400.0107" y="266"/><use xlink:href="#811dfe80T" x="406.6777" y="266"/></g></g></svg>