<?xml version='1.0' encoding='UTF-8'?>
<svg xmlns="http://www.w3.org/2000/svg" xmlns:xlink="http://www.w3.org/1999/xlink" width="600px" height="300px" viewBox="0 0 600 300" x="0px" y="0px" enable-background="new 0 0 600 300"><defs><symbol overflow="visible" id="ef7346b0a"><path d="M32.23-14.95c-2.75.65-5.6 3.07-6.6 5.15 5.71 7.49 7.15 10.9 7.15 14.32 0 8.36-7.26 15.39-17.72 15.39-5.94 0-10.87-1.54-13.19-3.3-.78.22-1.32.87-1.32 1.87 0 4.07 6.83 9.35 13.53 9.35 15.19 0 23.22-13.2 23.22-25.19 0-1.66-.24-4.52-.46-5.5l.11-.1A10.4 10.4 0 0044.22 0c1.55 0 2.75-1.44 2.75-3.63 0-2.2-1.31-3.64-2.75-3.64-4.52 0-8.69-2.75-11.99-7.68zm-11-11.57c0 1.88 1.32 3.54 3.3 3.54 1.99 0 3.4-1.66 3.4-3.54 0-2.18-1.41-4.39-3.4-4.39-1.98 0-3.3 2.2-3.3 4.4zm0 0"/></symbol><symbol overflow="visible" id="ef7346b0b"><path d="M8.69-18.27c-.44 1.77-.33 3.2-.99 5.4-1.22 3.74-3.75 5.6-7.7 5.6-1.44 0-2.86.79-2.86 3.64C-2.86-.65-1.3 0 .11 0c4.51 0 8.14-3.19 9.8-8.25C11.87-3.08 16.94 0 22.55 0c1.43 0 2.97-.77 2.97-3.63 0-2.96-1.54-3.64-2.97-3.64-6.38 0-9.68-4.28-9.9-12.86a5.9 5.9 0 00-3.96 1.86zM2.2 8.58c0 1.87 1.32 3.51 3.3 3.51 1.98 0 3.4-1.64 3.4-3.51 0-2.2-1.42-4.4-3.4-4.4s-3.3 2.2-3.3 4.4zm10.24 0c0 1.87 1.31 3.51 3.3 3.51 1.96 0 3.4-1.64 3.4-3.51 0-2.2-1.44-4.4-3.4-4.4-1.99 0-3.3 2.2-3.3 4.4zm0 0"/></symbol><symbol overflow="visible" id="ef7346b0c"><path d="M24.2-2.53A10.55 10.55 0 0031.45 0c1.88 0 2.99-1.44 2.99-3.63 0-2.2-1.11-3.64-2.99-3.64-3.07 0-4.72-.87-8.47-5.6-3.4-4.4-5.28-5.5-7.8-5.5-2.74 0-4.95 1.32-7.91 5.71C4.4-8.36 2.3-7.26 0-7.26c-1.55 0-2.75 1.43-2.75 3.63S-1.55 0 0 0c2.53 0 4.95-1.1 6.48-2.75 2.54 4.4 5.61 7.05 9.58 7.05 4.07 0 6.6-3.2 8.14-6.83zm-2.97-3.3a5.79 5.79 0 01-5.06 2.86c-2.86 0-4.84-1.44-6.72-4.62 1.22-2.43 2.64-4.18 4.85-4.18 2.2 0 4.84 2.2 6.93 5.94zm0 0"/></symbol><symbol overflow="visible" id="ef7346b0d"><path d="M9.45-4.63c1.33 3.32 4.52 6.29 8.49 6.29 5.37 0 9.23-5.07 9.23-11.35 0-6.48-4.62-10.87-8.8-10.87-3.53 0-6.06 1.53-9.14 6.37C5.93-9.02 3.73-7.27 0-7.27c-1.55 0-2.64 1.44-2.64 3.64S-1.54 0 0 0c4.4 0 7.05-1.66 9.45-4.63zm2.43-3.95c1.76-3.4 3.53-5.39 5.93-5.39 2.32 0 4.3 1.77 4.3 4.85 0 2.53-1.77 4.17-4.4 4.17-2.3 0-4.29-1.2-5.84-3.63zm0 0"/></symbol><symbol overflow="visible" id="ef7346b0e"><path d="M3.83 0v-5.95H6.2v-.82H.45v.82h2.4V0zm0 0"/></symbol><symbol overflow="visible" id="ef7346b0f"><path d="M5.75-2.23v-.43c0-1.6-.9-2.51-2.42-2.51S.87-4.16.87-2.48c0 1.71.91 2.62 2.5 2.62 1.43 0 2.07-.56 2.29-1.52l-.9-.09c-.18.61-.59.9-1.35.9-.94 0-1.52-.54-1.58-1.66zm-2.4-2.2c.93 0 1.43.5 1.48 1.55H1.84c.08-1.07.6-1.56 1.5-1.56zm0 0"/></symbol><symbol overflow="visible" id="ef7346b0g"><path d="M1.83 0l1.42-2h.06l1.46 2H5.8L4-2.53l1.78-2.49H4.8L3.42-3.08h-.08l-1.4-1.94H.89l1.78 2.49L.84 0zm0 0"/></symbol><symbol overflow="visible" id="ef7346b0h"><path d="M5.52-4.25v-.77H3.17v-1.56h-.81l-.14 1.56H.75v.77h1.47v2.4c0 1.3.48 1.94 1.84 1.94C4.6.1 5.14 0 5.55-.14L5.4-.91c-.32.13-.72.2-1.13.2-.8 0-1.1-.37-1.1-1.23v-2.31zm0 0"/></symbol><symbol overflow="visible" id="ef7346b0i"><path d="M3.33-3.42c.47 0 .8-.27.8-.8 0-.51-.33-.8-.8-.8-.47 0-.8.29-.8.8 0 .53.33.8.8.8zm0 3.5c.47 0 .8-.27.8-.78 0-.53-.33-.82-.8-.82-.47 0-.8.29-.8.82 0 .51.33.78.8.78zm0 0"/></symbol><symbol overflow="visible" id="ef7346b0o"><path d="M5.95-6.77H1.1V0h.99v-2.92H5.3v-.77H2.08v-2.26h3.87zm0 0"/></symbol><symbol overflow="visible" id="ef7346b0p"><path d="M2.83.14c.94 0 1.5-.39 1.81-.95h.08l.1.81h.76v-3.38c0-1.23-.69-1.8-2.13-1.8-1.43 0-2.03.65-2.18 1.6l.93.1c.11-.6.44-.93 1.22-.93.85 0 1.22.32 1.22 1.04v.34l-1.81.2C1.6-2.7 1.1-2.17 1.1-1.28c0 .92.64 1.42 1.72 1.42zm.25-.77c-.67 0-1.02-.28-1.02-.74 0-.44.28-.72 1-.82l1.58-.19v.41c0 .8-.6 1.34-1.56 1.34zm0 0"/></symbol><symbol overflow="visible" id="ef7346b0q"><path d="M2.73.14c.9 0 1.43-.45 1.74-1.08h.06l.13.94h.8v-5.02h-.94v2.7c0 .98-.57 1.62-1.46 1.62-.75 0-1.1-.4-1.1-1.22v-3.1h-.93v3.32c0 1.17.55 1.84 1.7 1.84zm0 0"/></symbol><symbol overflow="visible" id="ef7346b0r"><path d="M5.08-5.16c-.94 0-1.58.43-1.9 1.3h-.09l-.07-1.16H1.05v.77h1.1v3.48H.96V0h3.96v-.77H3.1v-1.46c0-1.36.6-2.05 1.83-2.05.4 0 .76.08 1.1.17l.15-.87c-.33-.11-.7-.18-1.11-.18zm0 0"/></symbol><symbol overflow="visible" id="ef7346b0s"><path d="M6.17 0L3.98-6.77h-1.3L.5 0h.97l.44-1.47h2.78L5.16 0zM3.28-5.94h.08l1.1 3.74H2.15zm0 0"/></symbol><symbol overflow="visible" id="ef7346b0t"><path d="M3.92-7.14H1.36v.76h1.6v5.61H1.15V0H5.7v-.77H3.92zm0 0"/></symbol><symbol overflow="visible" id="ef7346b0u"><path d="M2.16 0v-2.67c0-.99.59-1.63 1.46-1.63.74 0 1.07.38 1.07 1.22V0h.95v-3.31c0-1.2-.56-1.85-1.67-1.85-.92 0-1.49.46-1.77 1.08h-.06l-.12-.94H1.2V0zm0 0"/></symbol><symbol overflow="visible" id="ef7346b0v"><path d="M3.58-5.81c.42 0 .72-.22.72-.67 0-.44-.3-.68-.72-.68-.44 0-.72.24-.72.68 0 .45.28.67.72.67zm.5.8H1.52v.76h1.6v3.48h-1.8V0h4.46v-.77h-1.7zm0 0"/></symbol><symbol overflow="visible" id="ef7346b0w"><path d="M3.9 0l2-5.02h-.96L3.4-.94h-.07L1.8-5.02H.77L2.78 0zm0 0"/></symbol><symbol overflow="visible" id="ef7346b0x"><path d="M4.63-6.5c.45 0 .98.08 1.39.2l.2-.72a5.3 5.3 0 00-1.64-.26c-1.52 0-2.16.56-2.16 1.87v.4H.9v.76h1.53V0h.94v-4.25h2.53v-.77H3.36v-.3c0-.84.33-1.18 1.27-1.18zm0 0"/></symbol><symbol overflow="visible" id="ef7346b0y"><path d="M3.33.14c1.62 0 2.5-.95 2.5-2.66 0-1.68-.88-2.64-2.5-2.64-1.63 0-2.5.96-2.5 2.64 0 1.7.87 2.66 2.5 2.66zm0-.77c-1.06 0-1.52-.6-1.52-1.89 0-1.28.46-1.87 1.52-1.87 1.08 0 1.53.6 1.53 1.87 0 1.29-.45 1.9-1.53 1.9zm0 0"/></symbol><symbol overflow="visible" id="ef7346b0z"><path d="M1.63 0v-2.9c0-.8.15-1.4.71-1.4.41 0 .55.3.55.88V0h.95v-2.9c0-.8.18-1.4.72-1.4.4 0 .57.3.57.88V0h.95v-3.63c0-.92-.28-1.53-1.11-1.53-.63 0-.95.41-1.1.9h-.06c-.1-.52-.44-.9-1.08-.9-.6 0-.93.41-1.06.9H1.6l-.23-.76H.67V0zm0 0"/></symbol><symbol overflow="visible" id="ef7346b0A"><path d="M2.84.14C3.8.14 4.33-.26 4.6-.9h.07L4.8 0h.76v-7.14h-.95v2.95h-.08c-.28-.6-.86-.97-1.67-.97-1.48 0-2.27.99-2.27 2.64C.6-.84 1.36.14 2.84.14zm.22-.8c-.98 0-1.48-.59-1.48-1.84s.5-1.86 1.48-1.86c1.13 0 1.58.8 1.58 1.86S4.2-.66 3.06-.66zm0 0"/></symbol><symbol overflow="visible" id="ef7346b0B"><path d="M3.38-5.9c.12-.5.42-1.04.67-1.41l-.63-.22a4.28 4.28 0 00-1.01 2.39c0 .66.3 1 .9 1 .6 0 .9-.33.9-.9 0-.57-.32-.83-.83-.85zm0 0"/></symbol><symbol overflow="visible" id="ef7346b0C"><path d="M3.3-7.53c-.55 0-.85.3-.85.84 0 .55.36.8.83.8h.03a5.1 5.1 0 01-.69 1.47l.52.23a4.29 4.29 0 001.02-2.4c0-.63-.33-.94-.86-.94zm0 0"/></symbol><symbol overflow="visible" id="ef7346b0D"><path d="M1.45-2.95c0 2.56 1.08 4.37 3.67 4.84l.11-.67C3.28.86 2.43-.75 2.43-2.95s.85-3.82 2.8-4.16l-.1-.69c-2.6.49-3.68 2.3-3.68 4.85zm0 0"/></symbol><symbol overflow="visible" id="ef7346b0E"><path d="M3.36.16c1.4 0 2.2-.6 2.2-1.57 0-.89-.54-1.22-1.47-1.39L3-3c-.67-.14-.86-.33-.86-.73 0-.5.4-.74 1.17-.74.83 0 1.19.27 1.27.8l.9-.05c-.12-1-.8-1.47-2.17-1.47-1.34 0-2.1.53-2.1 1.5 0 .81.45 1.22 1.52 1.44l1.04.2c.56.11.87.24.87.72 0 .52-.45.78-1.28.78-.95 0-1.36-.28-1.42-.87l-.9.06C1.07-.36 1.8.16 3.35.16zm0 0"/></symbol><symbol overflow="visible" id="ef7346b0F"><path d="M3.33.14c1.65 0 2.6-1.1 2.6-3.52S4.99-6.9 3.34-6.9C1.67-6.9.72-5.8.72-3.37c0 2.4.95 3.51 2.6 3.51zm0-.84c-1.13 0-1.6-.85-1.6-2.67 0-1.86.47-2.7 1.6-2.7 1.12 0 1.6.84 1.6 2.7 0 1.82-.48 2.67-1.6 2.67zM3.3-2.64c.38 0 .56-.28.56-.72 0-.44-.18-.7-.56-.7-.39 0-.56.26-.56.7 0 .44.17.72.56.72zm0 0"/></symbol><symbol overflow="visible" id="ef7346b0G"><path d="M3.25.14c1.58 0 2.53-.69 2.53-1.95 0-1.19-.92-1.56-1.6-1.61v-.05A1.6 1.6 0 005.6-5.12c0-1.13-.87-1.79-2.3-1.79-1.62 0-2.32.82-2.45 1.88l.97.06c.13-.69.52-1.1 1.47-1.1.86 0 1.35.32 1.35 1.05 0 .86-.6 1.2-1.66 1.2h-.49v.79h.54c1.12 0 1.78.25 1.78 1.14 0 .78-.46 1.22-1.55 1.22-1.06 0-1.48-.4-1.63-1.1l-.98.07C.75-.56 1.56.14 3.25.14zm0 0"/></symbol><symbol overflow="visible" id="ef7346b0H"><path d="M1.45-7.1c1.96.33 2.8 1.94 2.8 4.15 0 2.2-.84 3.8-2.8 4.17l.11.67c2.58-.47 3.67-2.28 3.67-4.84 0-2.55-1.09-4.36-3.67-4.85zm0 0"/></symbol><symbol overflow="visible" id="ef7346b0k"><path d="M1.5-3.36l.4-.5-.67-.5-.37.5zM.19 1.77c1.3 0 1.8-.65 1.92-1.8.17.03.34.03.47.03h.17v-.75h-.5c-.1 0-.1 0-.1-.1 0-.54-.04-1.15-.1-1.84l-.67.06c.06.68.12 1.41.12 1.97 0 1.25-.33 1.7-1.5 1.7-.08 0-.14 0-.22-.02l.08.73.33.02zm0 0"/></symbol><symbol overflow="visible" id="ef7346b0l"><path d="M0 0h2.66v-.75h-.44c-.06 0-.08 0-.1-.03l-.01-.06-.13-1.85-.64.03.13 1.8v.1l-.1.01H0c-.3 0-.38.13-.38.36 0 .27.08.39.38.39zm.6 1.67l.35-.45.61.45.36-.47-.6-.47-.37.47-.6-.47-.35.49zm0 0"/></symbol><symbol overflow="visible" id="ef7346b0m"><path d="M2.63 0a1 1 0 00.73-.27c.2.25.5.27.83.27v-.75c-.38 0-.57 0-.57-.4 0-1-.57-1.82-1.48-1.82-.87 0-1.1.78-1.45 1.83l-.06.19c-.07.2-.1.2-.24.2H0c-.3 0-.38.13-.38.36 0 .27.08.39.38.39h.3c.45 0 .62-.1.76-.38.63.24 1.16.38 1.56.38zm.01-.72c-.33 0-.89-.17-1.16-.26-.17-.05-.17-.05-.06-.4.14-.37.27-.82.75-.82.49 0 .86.45.86 1.04 0 .32-.1.44-.39.44zm0 0"/></symbol><symbol overflow="visible" id="ef7346b0n"><path d="M2.63 0c.65 0 1-.4 1-1.16 0-1-.58-1.8-1.49-1.8-.87 0-1.1.77-1.45 1.82l-.06.19c-.07.2-.1.2-.24.2H0c-.3 0-.38.13-.38.36 0 .27.08.39.38.39h.3c.45 0 .62-.1.76-.38.63.24 1.16.38 1.56.38zm.01-.72c-.33 0-.89-.17-1.16-.26-.17-.05-.17-.05-.06-.4.14-.37.27-.82.75-.82.49 0 .86.45.86 1.04 0 .32-.1.44-.39.44zm0 0"/></symbol></defs><g fill="#515151"><use xlink:href="#ef7346b0a" x="236.97" y="141"/><use xlink:href="#ef7346b0b" x="281.19" y="141"/></g><use xlink:href="#ef7346b0c" x="303.74" y="141" fill="#fff"/><use xlink:href="#ef7346b0d" x="335.2" y="141" fill="#515151"/><g fill="#fff"><use xlink:href="#ef7346b0e" x="273.1667" y="252"/><use xlink:href="#ef7346b0f" x="279.8337" y="252"/><use xlink:href="#ef7346b0g" x="286.5007" y="252"/><use xlink:href="#ef7346b0h" x="293.1677" y="252"/><use xlink:href="#ef7346b0i" x="299.8347" y="252"/><use xlink:href="#ef7346b0j" x="306.5017" y="252"/></g><g fill="#fff"><use xlink:href="#ef7346b0k" x="313.1667" y="252"/><use xlink:href="#ef7346b0l" x="315.9227" y="252"/></g><g fill="#fff"><use xlink:href="#ef7346b0m" x="318.5787" y="252"/><use xlink:href="#ef7346b0n" x="322.7647" y="252"/></g><g fill="#fff"><use xlink:href="#ef7346b0o" x="140" y="266"/><use xlink:href="#ef7346b0f" x="146.667" y="266"/><use xlink:href="#ef7346b0p" x="153.334" y="266"/><use xlink:href="#ef7346b0h" x="160.001" y="266"/><use xlink:href="#ef7346b0q" x="166.668" y="266"/><use xlink:href="#ef7346b0r" x="173.335" y="266"/><use xlink:href="#ef7346b0f" x="180.002" y="266"/><use xlink:href="#ef7346b0i" x="186.669" y="266"/><use xlink:href="#ef7346b0j" x="193.336" y="266"/><use xlink:href="#ef7346b0s" x="200.003" y="266"/><use xlink:href="#ef7346b0t" x="206.67" y="266"/><use xlink:href="#ef7346b0h" x="213.337" y="266"/><use xlink:href="#ef7346b0f" x="220.004" y="266"/><use xlink:href="#ef7346b0r" x="226.671" y="266"/><use xlink:href="#ef7346b0u" x="233.338" y="266"/><use xlink:href="#ef7346b0p" x="240.005" y="266"/><use xlink:href="#ef7346b0h" x="246.672" y="266"/><use xlink:href="#ef7346b0v" x="253.339" y="266"/><use xlink:href="#ef7346b0w" x="260.006" y="266"/><use xlink:href="#ef7346b0f" x="266.673" y="266"/><use xlink:href="#ef7346b0j" x="273.34" y="266"/><use xlink:href="#ef7346b0x" x="280.007" y="266"/><use xlink:href="#ef7346b0y" x="286.674" y="266"/><use xlink:href="#ef7346b0r" x="293.341" y="266"/><use xlink:href="#ef7346b0z" x="300.008" y="266"/><use xlink:href="#ef7346b0j" x="306.675" y="266"/><use xlink:href="#ef7346b0y" x="313.342" y="266"/><use xlink:href="#ef7346b0x" x="320.009" y="266"/><use xlink:href="#ef7346b0j" x="326.676" y="266"/><use xlink:href="#ef7346b0z" x="333.343" y="266"/><use xlink:href="#ef7346b0f" x="340.01" y="266"/><use xlink:href="#ef7346b0A" x="346.677" y="266"/><use xlink:href="#ef7346b0v" x="353.344" y="266"/><use xlink:href="#ef7346b0p" x="360.011" y="266"/><use xlink:href="#ef7346b0t" x="366.678" y="266"/><use xlink:href="#ef7346b0j" x="373.345" y="266"/><use xlink:href="#ef7346b0B" x="380.012" y="266"/><use xlink:href="#ef7346b0z" x="386.679" y="266"/><use xlink:href="#ef7346b0v" x="393.346" y="266"/><use xlink:href="#ef7346b0z" x="400.013" y="266"/><use xlink:href="#ef7346b0C" x="406.68" y="266"/><use xlink:href="#ef7346b0j" x="413.347" y="266"/><use xlink:href="#ef7346b0D" x="420.014" y="266"/><use xlink:href="#ef7346b0E" x="426.681" y="266"/><use xlink:href="#ef7346b0E" x="433.348" y="266"/><use xlink:href="#ef7346b0F" x="440.015" y="266"/><use xlink:href="#ef7346b0G" x="446.682" y="266"/><use xlink:href="#ef7346b0H" x="453.349" y="266"/></g></svg>