<?xml version='1.0' encoding='UTF-8'?>
<svg xmlns="http://www.w3.org/2000/svg" xmlns:xlink="http://www.w3.org/1999/xlink" width="600px" height="300px" viewBox="0 0 600 300" x="0px" y="0px" enable-background="new 0 0 600 300"><defs><symbol overflow="visible" id="4338d191a"><path d="M23.77-38.72c0 1.88 1.3 3.52 3.3 3.52 1.98 0 3.4-1.64 3.4-3.52 0-2.2-1.42-4.4-3.4-4.4-2 0-3.3 2.2-3.3 4.4zm10.21 0c0 1.88 1.33 3.52 3.32 3.52 1.97 0 3.4-1.64 3.4-3.52 0-2.2-1.43-4.4-3.4-4.4-1.99 0-3.32 2.2-3.32 4.4zm-22.1 26.95A19.65 19.65 0 002.2 5.4c0 11.33 8.47 21.23 21.68 21.23 10 0 16.39-5.82 16.39-8.68 0-1-1-1.33-1-1.33-2.54 1.1-6.93 2.1-12.86 2.1-12.44 0-20.47-6.4-20.47-14.87 0-4.06 1.76-7.03 4.73-9.01-.1.44-.22 1.22-.22 2.2 0 6.49 3.3 11 9.13 11 5.28 0 10.23-5.5 10.23-12.65 0-6.49-4.08-10-8.25-10-2.1 0-4.08.54-5.28 1.09l-.1-.11c2.41-5.5 7.7-9.67 13.3-9.67 1.97 0 3.63.54 4.83.98a19.62 19.62 0 002.42-7.6 10.07 10.07 0 00-5.04-1.3c-7.6 0-15.96 7.25-19.82 19.46zm3.3 4.5c1-.43 2.52-.76 3.96-.76 3.73 0 6.16 2.1 6.16 4.95 0 2.64-1.64 4.52-4.5 4.52-3.86 0-5.85-2.75-5.85-6.72 0-.88.11-1.77.24-1.99zm0 0"/></symbol><symbol overflow="visible" id="4338d191b"><path d="M14.4-.88c1-.43 2.54-.67 4.08-.67 3.74 0 6.6 2.32 6.6 5.4 0 2.42-1.53 4.18-4.28 4.18-3.64 0-5.61-3.08-6.18-6.94-.1-.65-.21-1.3-.21-1.97zM38.18.23c3.08 0 5.4-2.2 6.38-5.72a8.94 8.94 0 008.03 5.17c4.84 0 8.47-5.06 8.47-11.98 0-4.52-2.1-9.25-5.07-12-2.42.43-4.93 3.18-5.5 6.15 3.54 1.66 6.18 4.3 6.18 7.05 0 1.88-1.22 3.52-3.75 3.52-3.52 0-5.94-2.75-7.47-8.8-.56-.55-2.1-.88-4.19-.88a23 23 0 01.55 4.61c0 3.64-1.42 5.61-4.07 5.61-2.53 0-4.84-1.86-7.26-6.8-2.1-4.3-4.63-5.84-7.49-5.84-5.17 0-10.78 6.38-12.09 13.97-5.06 2.86-9.02 8.8-9.02 16.28 0 11.33 8.47 21.24 21.68 21.24 10 0 16.39-5.85 16.39-8.7 0-1-1-1.32-1-1.32-2.53 1.1-6.92 2.1-12.88 2.1-12.42 0-20.45-6.4-20.45-14.97 0-3.63 1.76-6.16 4.62-8.04 0 .79.11 1.55.22 2.32.88 6.83 4.74 11.44 10.35 11.44 5.39 0 8.57-4.5 8.57-9.68 0-6.93-4.4-12.43-10.67-12.43-1.22 0-2.2.21-2.97.32l-.67.11c1.22-3.51 4.08-6.04 7.16-6.04 2.64 0 4.19.89 6.48 5.17C31.7-2.42 34.1.22 38.17.22zm0 0"/></symbol><symbol overflow="visible" id="4338d191c"><path d="M19.14 21.78c0 1.88 1.31 3.52 3.3 3.52 1.98 0 3.4-1.64 3.4-3.52 0-2.2-1.42-4.4-3.4-4.4-1.99 0-3.3 2.2-3.3 4.4zm10.23 0c0 1.88 1.32 3.52 3.3 3.52 1.99 0 3.4-1.64 3.4-3.52 0-2.2-1.41-4.4-3.4-4.4-1.98 0-3.3 2.2-3.3 4.4zm-9.03-59.4c0 1.87 1.33 3.53 3.32 3.53 1.96 0 3.4-1.66 3.4-3.53 0-2.2-1.43-4.4-3.4-4.4-1.99 0-3.32 2.2-3.32 4.4zm25.64 53.35c.44.44.88.66 1.86.66 1.88 0 5.5-3.62 5.5-8.8 0-4.84-3.4-8.25-9.67-8.25-3.62 0-6.26.66-11.98 3.41-6.4 3.08-8.82 3.95-13.75 3.95-8.7 0-12.99-4.17-12.99-8.47 0-2.18 1.32-3.84 3.3-3.84 1.98 0 3.19.66 7.27 3.52C19.14.33 21.12.98 23.98.98c6.49 0 11.55-6.15 11.55-15.28 0-8.25-6.05-16.06-11.22-16.06-4.62 0-9.58 6.27-9.58 12.1 0 4.95 4.2 9.14 9.8 9.14 2.42 0 4.17-.68 5.72-1.44l.44.33a6.2 6.2 0 01-6.38 6.17c-2.31 0-4.08-.78-8.25-4.52-3.4-3.08-5.06-3.97-7.6-3.97-3.84 0-7.15 4.3-7.15 9.7 0 9 7.16 16.82 16.74 16.82 4.06 0 6.48-.66 13.75-3.85C38.83 7.05 40.8 6.6 42.9 6.6c3.63 0 5.83 1.88 5.83 4.41 0 1.66-1 3.4-2.75 4.73zM29.92-17.16a9.65 9.65 0 01-5.39 1.43c-3.51 0-5.39-1.32-5.39-3.08 0-1.99 2.1-4.07 4.17-4.07 3.1 0 5.96 2.97 6.61 5.72zm0 0"/></symbol><symbol overflow="visible" id="4338d191d"><path d="M29.27-35.1c-8.82 3.54-16.4 14.98-17.94 24.1C5.83-5.72 2.2 1.55 2.2 8.8c0 11.76 9.35 19.9 20.24 19.9 17.93 0 30.58-14.4 30.58-26.06 0-1.87-.66-3.73-1.1-4.62C53.45-.77 55.77 0 58.52 0c1.54 0 2.75-1.31 2.75-3.63 0-2.53-1.32-3.64-2.75-3.64-3.63 0-6.82-1.3-9.9-4.6a21.62 21.62 0 01-3.64-4.85c-2.64.77-5.28 2.86-6.26 4.95C45.09-4.3 48.19.33 49.17 3.3c-1.65 8.03-12.76 17.5-26.95 17.5-10.02 0-16.28-5.85-16.28-12.77C5.94 4.41 7.59.22 11-3.62c.55 5.39 4.19 9.23 8.36 9.23 6.27 0 11.1-6.81 11.1-14.4 0-5.94-3.07-8.7-7.02-8.7-2.53 0-5.07 1.1-7.49 3.08l-.1-.1c2.42-5.94 8.57-12 16.71-15.52 0-2.31-1.54-4.74-3.3-5.06zM15.3-7.47c1.97-2.2 4.6-3.41 6.92-3.41 2.64 0 4.08 1.98 4.08 4.3 0 2.75-2.2 5.6-5.28 5.6-3.2 0-5.4-3.2-5.72-6.5zm-5.07-18.93c1.86 0 2.75-1.42 2.75-3.18 0-2.43-1.65-4.85-3.86-4.85-1.53 0-2.74 1.22-2.74 3.53 0 2.54 1.76 4.5 3.85 4.5zm7.14-6.7c1.88 0 2.75-1.44 2.75-3.19 0-2.42-1.64-4.84-3.84-4.84-1.55 0-2.75 1.2-2.75 3.52 0 2.53 1.77 4.51 3.85 4.51zm0 0"/></symbol><symbol overflow="visible" id="4338d191e"><path d="M9.9-8.69C7.38-7.8 3.09-7.27 0-7.27c-1.77 0-2.86 1.55-2.86 3.64C-2.86-1.3-1.66 0 0 0c2.31 0 5.4-.77 7.38-1.88l.1.11c-.54 1.22-1 2.75-1 4.63 0 5.28 3.64 9.23 8.58 9.23 5.85 0 11.46-6.37 11.46-13.53 0-4.94-3.54-9.23-8.47-9.23-1.33 0-2.64.33-3.53.65a43.58 43.58 0 001.87-12.86c0-12.54-5.39-22.56-10.78-22.56C2.64-45.44 0-43.45 0-39.8c0 3.4 2.31 6.26 5.72 6.26 1.44 0 2.75-.65 3.4-1.43 1.44 2.75 2.76 8.68 2.76 13.3 0 4.2-.55 8.59-1.97 13zm2.3 4.85a9.48 9.48 0 012.99-.46c3.73 0 6.26 2.42 6.26 5.61 0 2.2-1.87 4.19-4.95 4.19A5.03 5.03 0 0111.22.22c0-1.66.55-3.3.98-4.06zm0 0"/></symbol><symbol overflow="visible" id="4338d191f"><path d="M45.31-23.55c-2.51.78-4.6 3.32-5.6 5.4 6.27 7.26 8.48 10.88 9.46 13.85-1.65 8.03-12.76 17.5-26.95 17.5C12.2 13.2 5.94 7.38 5.94.44c0-3.63 1.65-7.82 5.06-11.66.55 5.4 4.19 9.24 8.36 9.24 6.27 0 11.1-6.82 11.1-14.41 0-5.94-3.07-8.69-7.02-8.69-2.64 0-5.17.99-7.27 2.64l-.33.33c2.43-5.94 8.58-11.98 16.72-15.52 0-2.3-1.54-4.71-3.3-5.06-8.8 3.53-16.39 14.97-17.93 24.1C5.83-13.31 2.2-6.05 2.2 1.2c0 11.77 9.35 19.91 20.24 19.91 17.93 0 30.58-14.42 30.58-27.71 0-4.2-1.2-8.93-7.7-16.96zM15.3-15.06c1.97-2.2 4.6-3.42 6.92-3.42 2.64 0 4.08 1.98 4.08 4.18 0 2.86-2.2 5.72-5.28 5.72-3.2 0-5.4-3.19-5.72-6.48zM11.66-34.1c1.87 0 2.75-1.44 2.75-3.2 0-2.41-1.64-4.84-3.85-4.84-1.54 0-2.75 1.2-2.75 3.52 0 2.53 1.75 4.52 3.85 4.52zm7.15-6.72c1.88 0 2.75-1.42 2.75-3.19 0-2.42-1.65-4.84-3.86-4.84-1.53 0-2.75 1.22-2.75 3.53 0 2.51 1.77 4.5 3.86 4.5zm0 0"/></symbol><symbol overflow="visible" id="4338d191g"><path d="M3.83 0v-5.95H6.2v-.82H.45v.82h2.4V0zm0 0"/></symbol><symbol overflow="visible" id="4338d191h"><path d="M5.75-2.23v-.43c0-1.6-.9-2.51-2.42-2.51S.87-4.16.87-2.48c0 1.71.91 2.62 2.5 2.62 1.43 0 2.07-.56 2.29-1.52l-.9-.09c-.18.61-.59.9-1.35.9-.94 0-1.52-.54-1.58-1.66zm-2.4-2.2c.93 0 1.43.5 1.48 1.55H1.84c.08-1.07.6-1.56 1.5-1.56zm0 0"/></symbol><symbol overflow="visible" id="4338d191i"><path d="M1.83 0l1.42-2h.06l1.46 2H5.8L4-2.53l1.78-2.49H4.8L3.42-3.08h-.08l-1.4-1.94H.89l1.78 2.49L.84 0zm0 0"/></symbol><symbol overflow="visible" id="4338d191j"><path d="M5.52-4.25v-.77H3.17v-1.56h-.81l-.14 1.56H.75v.77h1.47v2.4c0 1.3.48 1.94 1.84 1.94C4.6.1 5.14 0 5.55-.14L5.4-.91c-.32.13-.72.2-1.13.2-.8 0-1.1-.37-1.1-1.23v-2.31zm0 0"/></symbol><symbol overflow="visible" id="4338d191k"><path d="M3.33-3.42c.47 0 .8-.27.8-.8 0-.51-.33-.8-.8-.8-.47 0-.8.29-.8.8 0 .53.33.8.8.8zm0 3.5c.47 0 .8-.27.8-.78 0-.53-.33-.82-.8-.82-.47 0-.8.29-.8.82 0 .51.33.78.8.78zm0 0"/></symbol><symbol overflow="visible" id="4338d191w"><path d="M5.95-6.77H1.1V0h.99v-2.92H5.3v-.77H2.08v-2.26h3.87zm0 0"/></symbol><symbol overflow="visible" id="4338d191x"><path d="M2.83.14c.94 0 1.5-.39 1.81-.95h.08l.1.81h.76v-3.38c0-1.23-.69-1.8-2.13-1.8-1.43 0-2.03.65-2.18 1.6l.93.1c.11-.6.44-.93 1.22-.93.85 0 1.22.32 1.22 1.04v.34l-1.81.2C1.6-2.7 1.1-2.17 1.1-1.28c0 .92.64 1.42 1.72 1.42zm.25-.77c-.67 0-1.02-.28-1.02-.74 0-.44.28-.72 1-.82l1.58-.19v.41c0 .8-.6 1.34-1.56 1.34zm0 0"/></symbol><symbol overflow="visible" id="4338d191y"><path d="M2.73.14c.9 0 1.43-.45 1.74-1.08h.06l.13.94h.8v-5.02h-.94v2.7c0 .98-.57 1.62-1.46 1.62-.75 0-1.1-.4-1.1-1.22v-3.1h-.93v3.32c0 1.17.55 1.84 1.7 1.84zm0 0"/></symbol><symbol overflow="visible" id="4338d191z"><path d="M5.08-5.16c-.94 0-1.58.43-1.9 1.3h-.09l-.07-1.16H1.05v.77h1.1v3.48H.96V0h3.96v-.77H3.1v-1.46c0-1.36.6-2.05 1.83-2.05.4 0 .76.08 1.1.17l.15-.87c-.33-.11-.7-.18-1.11-.18zm0 0"/></symbol><symbol overflow="visible" id="4338d191A"><path d="M3.42.14c1.61 0 2.56-.75 2.56-2 0-1.1-.67-1.6-1.95-1.86l-.97-.2c-.87-.17-1.23-.49-1.23-1.11 0-.7.54-1.11 1.5-1.11 1.06 0 1.51.34 1.69 1.23l.9-.09c-.17-1.28-.98-1.9-2.6-1.9C1.79-6.9.9-6.18.9-4.98c0 1.06.66 1.66 1.88 1.9l1.01.2c.85.17 1.25.4 1.25 1.09 0 .73-.6 1.16-1.6 1.16-1.07 0-1.66-.4-1.8-1.24l-.94.1C.83-.53 1.75.13 3.42.13zm0 0"/></symbol><symbol overflow="visible" id="4338d191B"><path d="M2.16 0v-2.67c0-.99.59-1.63 1.46-1.63.74 0 1.07.38 1.07 1.22V0h.95v-3.31c0-1.2-.56-1.85-1.67-1.85-.92 0-1.49.46-1.77 1.08h-.06l-.12-.94H1.2V0zm0 0"/></symbol><symbol overflow="visible" id="4338d191C"><path d="M2.84.14C3.8.14 4.33-.26 4.6-.9h.07L4.8 0h.76v-7.14h-.95v2.95h-.08c-.28-.6-.86-.97-1.67-.97-1.48 0-2.27.99-2.27 2.64C.6-.84 1.36.14 2.84.14zm.22-.8c-.98 0-1.48-.59-1.48-1.84s.5-1.86 1.48-1.86c1.13 0 1.58.8 1.58 1.86S4.2-.66 3.06-.66zm0 0"/></symbol><symbol overflow="visible" id="4338d191D"><path d="M3.92-7.14H1.36v.76h1.6v5.61H1.15V0H5.7v-.77H3.92zm0 0"/></symbol><symbol overflow="visible" id="4338d191E"><path d="M3.58-5.81c.42 0 .72-.22.72-.67 0-.44-.3-.68-.72-.68-.44 0-.72.24-.72.68 0 .45.28.67.72.67zm.5.8H1.52v.76h1.6v3.48h-1.8V0h4.46v-.77h-1.7zm0 0"/></symbol><symbol overflow="visible" id="4338d191F"><path d="M3.16 2.03c1.67 0 2.4-.86 2.4-2.51v-4.54h-.81l-.13.91h-.06c-.26-.58-.8-1.05-1.73-1.05-1.42 0-2.24 1-2.24 2.52 0 1.6.75 2.56 2.2 2.56.94 0 1.5-.5 1.77-1.03h.05v.72c0 1.17-.42 1.67-1.45 1.67-.93 0-1.3-.34-1.41-.89L.8.5c.12.96.87 1.54 2.36 1.54zM3.06-.8c-.98 0-1.48-.57-1.48-1.82 0-1.13.5-1.75 1.48-1.75 1.06 0 1.58.76 1.58 1.75 0 .95-.56 1.82-1.58 1.82zm0 0"/></symbol><symbol overflow="visible" id="4338d191G"><path d="M3.36.16c1.4 0 2.2-.6 2.2-1.57 0-.89-.54-1.22-1.47-1.39L3-3c-.67-.14-.86-.33-.86-.73 0-.5.4-.74 1.17-.74.83 0 1.19.27 1.27.8l.9-.05c-.12-1-.8-1.47-2.17-1.47-1.34 0-2.1.53-2.1 1.5 0 .81.45 1.22 1.52 1.44l1.04.2c.56.11.87.24.87.72 0 .52-.45.78-1.28.78-.95 0-1.36-.28-1.42-.87l-.9.06C1.07-.36 1.8.16 3.35.16zm0 0"/></symbol><symbol overflow="visible" id="4338d191H"><path d="M1.45-2.95c0 2.56 1.08 4.37 3.67 4.84l.11-.67C3.28.86 2.43-.75 2.43-2.95s.85-3.82 2.8-4.16l-.1-.69c-2.6.49-3.68 2.3-3.68 4.85zm0 0"/></symbol><symbol overflow="visible" id="4338d191I"><path d="M1.45-7.1c1.96.33 2.8 1.94 2.8 4.15 0 2.2-.84 3.8-2.8 4.17l.11.67c2.58-.47 3.67-2.28 3.67-4.84 0-2.55-1.09-4.36-3.67-4.85zm0 0"/></symbol><symbol overflow="visible" id="4338d191m"><path d="M.6 2.25l.68-.05C1.18 1.12 1.12.37 1.1-.2c0-.16 0-.25.14-.27A5.7 5.7 0 003.06 0c.31 0 .55-.1.72-.27.2.25.5.27.83.27v-.75c-.38 0-.55 0-.55-.4 0-1-.58-1.82-1.48-1.82-.74 0-1 .53-1.28 1.28l-.16.5c-.48.06-.7.4-.7.99 0 .45.1 1.54.15 2.45zM3.05-.72c-.33 0-.87-.17-1.15-.26-.18-.05-.18-.05-.05-.4.12-.37.25-.82.73-.82.5 0 .88.45.88 1.04 0 .32-.11.44-.4.44zm0 0"/></symbol><symbol overflow="visible" id="4338d191n"><path d="M.92-3.69l.35-.45.59.45.36-.47-.6-.46-.35.46-.6-.46-.36.48zM0 0h1c.8 0 1.08-.34 1.08-1.1v-.26L1.94-3l-.67.06.15 1.61.02.31c0 .27-.1.27-.52.27H0c-.3 0-.38.13-.38.36 0 .27.08.39.38.39zm0 0"/></symbol><symbol overflow="visible" id="4338d191o"><path d="M0 0h2.42c.33 0 .56-.08.7-.25.16.19.4.25.74.25h.28c.83 0 1.1-.38 1.1-1.08 0-.1 0-.19-.02-.28L5.1-2.69l-.67.06c.04.49.1.96.12 1.3.02.14.02.24.02.31 0 .27-.1.27-.52.27h-.15c-.32 0-.43 0-.43-.36v-1.51h-.64v1.53c0 .32-.09.34-.42.34h-.64c-.1 0-.1 0-.08-.1l.14-1.77-.64-.04-.14 1.82c0 .09 0 .09-.1.09H0c-.3 0-.38.13-.38.36 0 .27.08.39.38.39zm0 0"/></symbol><symbol overflow="visible" id="4338d191p"><path d="M2.7 1.9c1.16 0 2.14-.63 2.14-1.6 0-.1-.01-.2-.04-.3h.3v-.75H2.9L2.8 0h.48c.8 0 .95.17.95.36 0 .3-.46.78-1.53.78-1.26 0-1.6-.5-1.6-1.34 0-.38.07-.8.18-1.28l-.64-.08c-.12.51-.19 1-.19 1.45 0 1.2.6 2.02 2.25 2.02zm-.34 1.7l.34-.48.6.46.36-.47-.6-.47-.36.47-.6-.45-.35.46zm0 0"/></symbol><symbol overflow="visible" id="4338d191q"><path d="M1.67-4.75l.38-.5-.64-.48-.4.5zM0 0h1.4c1.23 0 1.82-.08 1.82-1.81v-.33C3.22-3.36 2.7-4 1.9-4 1.03-4 .56-3.28.56-2.48c0 .82.44 1.21 1.5 1.21.22 0 .4-.01.55-.03-.05.55-.27.55-.84.55H0c-.3 0-.38.13-.38.36 0 .27.08.39.38.39zm2.06-1.95c-.67 0-.92-.16-.92-.58 0-.4.25-.74.69-.74.56 0 .8.38.8 1.2 0 .1 0 .1-.1.1-.1.02-.28.02-.47.02zm0 0"/></symbol><symbol overflow="visible" id="4338d191r"><path d="M1.45-4.31l.35-.47.6.45.37-.47-.61-.47-.36.47-.6-.45-.36.47zM1.9.03c.9 0 1.42-.58 1.42-1.33 0-.84-.65-1.6-1.89-2.3L1-3.07l.22.14c-.47.47-.78 1-.78 1.58C.44-.56.97.03 1.89.03zm0-.76c-.6 0-.83-.29-.83-.66 0-.36.25-.8.7-1.19.66.44.93.8.93 1.2 0 .4-.24.65-.8.65zm0 0"/></symbol><symbol overflow="visible" id="4338d191s"><path d="M.19 1.77c1.3 0 1.8-.65 1.92-1.8.17.03.34.03.47.03h.17v-.75h-.5c-.1 0-.1 0-.1-.1 0-.54-.04-1.15-.1-1.84l-.67.06c.06.68.12 1.41.12 1.97 0 1.25-.33 1.7-1.5 1.7-.08 0-.14 0-.22-.02l.08.73.33.02zm0 0"/></symbol><symbol overflow="visible" id="4338d191t"><path d="M2.63 0a1 1 0 00.73-.27c.2.25.5.27.83.27v-.75c-.38 0-.57 0-.57-.4 0-1-.57-1.82-1.48-1.82-.87 0-1.1.78-1.45 1.83l-.06.19c-.07.2-.1.2-.24.2H0c-.3 0-.38.13-.38.36 0 .27.08.39.38.39h.3c.45 0 .62-.1.76-.38.63.24 1.16.38 1.56.38zm.01-.72c-.33 0-.89-.17-1.16-.26-.17-.05-.17-.05-.06-.4.14-.37.27-.82.75-.82.49 0 .86.45.86 1.04 0 .32-.1.44-.39.44zm0 0"/></symbol><symbol overflow="visible" id="4338d191u"><path d="M0 0h.44c1.04 0 1.23-.4 1.23-1.5v-4.06H1v4.23c0 .47 0 .58-.48.58H0c-.3 0-.38.13-.38.36 0 .27.08.39.38.39zm0 0"/></symbol><symbol overflow="visible" id="4338d191v"><path d="M-.14 1.75l.33.02c1.56 0 1.95-.94 1.95-2.58 0-.55-.03-1.17-.1-1.88l-.67.06c.07.68.13 1.41.13 1.97 0 1.25-.33 1.7-1.5 1.7-.08 0-.14 0-.22-.02zm0 0"/></symbol></defs><g fill="#fff"><use xlink:href="#4338d191a" x="122.405" y="141"/><use xlink:href="#4338d191b" x="178.285" y="141"/><use xlink:href="#4338d191c" x="254.405" y="141"/><use xlink:href="#4338d191d" x="322.495" y="141"/><use xlink:href="#4338d191e" x="381.015" y="141"/><use xlink:href="#4338d191f" x="422.375" y="141"/><use xlink:href="#4338d191g" x="244.2667" y="252"/><use xlink:href="#4338d191h" x="250.9337" y="252"/><use xlink:href="#4338d191i" x="257.6007" y="252"/><use xlink:href="#4338d191j" x="264.2677" y="252"/><use xlink:href="#4338d191k" x="270.9347" y="252"/><use xlink:href="#4338d191l" x="277.6017" y="252"/><use xlink:href="#4338d191m" x="284.2667" y="252"/><use xlink:href="#4338d191n" x="288.8777" y="252"/><g><use xlink:href="#4338d191m" x="298.0741" y="252"/><use xlink:href="#4338d191o" x="302.6851" y="252"/></g><g><use xlink:href="#4338d191p" x="315.0296" y="252"/><use xlink:href="#4338d191q" x="320.1256" y="252"/></g><g><use xlink:href="#4338d191r" x="330.4593" y="252"/><use xlink:href="#4338d191s" x="333.9003" y="252"/></g><g><use xlink:href="#4338d191t" x="336.6613" y="252"/></g><g><use xlink:href="#4338d191u" x="340.8423" y="252"/></g><g><use xlink:href="#4338d191r" x="349.7" y="252"/><use xlink:href="#4338d191v" x="353.141" y="252"/></g><g><use xlink:href="#4338d191w" x="186.6667" y="266"/><use xlink:href="#4338d191h" x="193.3337" y="266"/><use xlink:href="#4338d191x" x="200.0007" y="266"/><use xlink:href="#4338d191j" x="206.6677" y="266"/><use xlink:href="#4338d191y" x="213.3347" y="266"/><use xlink:href="#4338d191z" x="220.0017" y="266"/><use xlink:href="#4338d191h" x="226.6687" y="266"/><use xlink:href="#4338d191k" x="233.3357" y="266"/><use xlink:href="#4338d191l" x="240.0027" y="266"/><use xlink:href="#4338d191A" x="246.6697" y="266"/><use xlink:href="#4338d191j" x="253.3367" y="266"/><use xlink:href="#4338d191x" x="260.0037" y="266"/><use xlink:href="#4338d191B" x="266.6707" y="266"/><use xlink:href="#4338d191C" x="273.3377" y="266"/><use xlink:href="#4338d191x" x="280.0047" y="266"/><use xlink:href="#4338d191z" x="286.6717" y="266"/><use xlink:href="#4338d191C" x="293.3387" y="266"/><use xlink:href="#4338d191l" x="300.0057" y="266"/><use xlink:href="#4338d191D" x="306.6727" y="266"/><use xlink:href="#4338d191E" x="313.3397" y="266"/><use xlink:href="#4338d191F" x="320.0067" y="266"/><use xlink:href="#4338d191x" x="326.6737" y="266"/><use xlink:href="#4338d191j" x="333.3407" y="266"/><use xlink:href="#4338d191y" x="340.0077" y="266"/><use xlink:href="#4338d191z" x="346.6747" y="266"/><use xlink:href="#4338d191h" x="353.3417" y="266"/><use xlink:href="#4338d191G" x="360.0087" y="266"/><use xlink:href="#4338d191l" x="366.6757" y="266"/><use xlink:href="#4338d191H" x="373.3427" y="266"/><use xlink:href="#4338d191D" x="380.0097" y="266"/><use xlink:href="#4338d191E" x="386.6767" y="266"/><use xlink:href="#4338d191F" x="393.3437" y="266"/><use xlink:href="#4338d191x" x="400.0107" y="266"/><use xlink:href="#4338d191I" x="406.6777" y="266"/></g></g></svg>