<?xml version='1.0' encoding='UTF-8'?>
<svg xmlns="http://www.w3.org/2000/svg" xmlns:xlink="http://www.w3.org/1999/xlink" width="310px" height="280px" viewBox="0 0 310 280" x="0px" y="0px" enable-background="new 0 0 310 280"><defs><symbol overflow="visible" id="da80740fa"><path d="M25.63-29.4a4.31 4.31 0 00-3.9-2.73c-2.42 0-4.2 3.36-4.2 9.04-1.05 2.51-3.36 4.51-8.72 7.14-5.76 2.82-7.23 5.45-7.23 8.39 0 4.62 4.1 8.83 8.81 8.83a9.6 9.6 0 008.19-4.63c.95-1.36 2.1-3.98 2.84-7.14C23.2-3.36 27.82 0 33.92 0c1.36 0 2.63-1.78 2.63-4.4 0-2.74-1.38-4.52-2.63-4.52-5.89 0-9.56-3.9-9.56-11.77 0-2.93.53-6.3 1.27-8.72zm-5.9 11.96c0 6.2-4.3 10.72-9.03 10.72-2.1 0-3.36-1.26-3.36-2.62 0-1.27.96-2.2 4.63-3.25 3.67-1.07 6.1-2.63 7.76-4.85zm-14.9-2.1c2 0 2.94-1.46 2.94-3.35 0-2.63-1.79-5.25-4.1-5.25C2-28.14.73-26.78.73-24.36c0 2.73 1.9 4.83 4.1 4.83zm7.25-6.6c1.98 0 2.94-1.58 2.94-3.47 0-2.52-1.79-5.14-4.1-5.14-1.69 0-2.94 1.25-2.94 3.78 0 2.72 1.9 4.83 4.1 4.83zm0 0"/></symbol><symbol overflow="visible" id="da80740fb"><path d="M6.3-17.1C5.78-11.87 3.67-8.93 0-8.93c-1.36 0-2.63 1.78-2.63 4.51C-2.63-1.78-1.57 0 0 0c3.25 0 5.88-2.2 7.34-5.67C9.24-1.78 12.08.2 15.33.2c3.47 0 5.56-2.3 6.3-5.56C23.2-2.2 26.05-.3 29.3-.3c3.47 0 5.45-2.31 6.3-5.25C37.47-2 40.63 0 44.61 0c1.58 0 2.74-1.69 2.74-4.4 0-2.74-1.16-4.52-2.73-4.52-4.63 0-7.68-3.27-8.93-8.52-.64-.51-2.73-1.04-4.4-1.14.4 1.56.82 3.36.82 5.14 0 2.52-.82 4.2-2.71 4.2-2.85 0-5.36-2.53-6.83-8.3-.42-.52-2.2-.94-4.2-.94.3 1.37.53 3.15.53 4.62 0 3.25-1.38 5.14-3.58 5.14-2.52 0-4.83-2.62-5.67-7.45a6.17 6.17 0 00-3.36-.94zm3.47-10.84c0 2 1.36 3.69 3.46 3.69 2.1 0 3.46-1.69 3.46-3.69 0-2.3-1.36-4.6-3.46-4.6-2.1 0-3.46 2.3-3.46 4.6zm9.96 0c0 2 1.38 3.69 3.47 3.69 2 0 3.47-1.69 3.47-3.69 0-2.3-1.47-4.6-3.47-4.6-2.1 0-3.47 2.3-3.47 4.6zm-4.92-9.43c0 1.89 1.36 3.56 3.46 3.56 2 0 3.46-1.67 3.46-3.56 0-2.32-1.46-4.63-3.46-4.63-2.1 0-3.46 2.31-3.46 4.63zm0 0"/></symbol><symbol overflow="visible" id="da80740fc"><path d="M12.28-36.33c-3.05 1.47-5.76 5.56-6.4 8.61 3.68 4.52 6.3 9.97 6.3 13.66 0 3.56-3.77 5.14-12.18 5.14-1.47 0-2.73 1.36-2.73 4.51C-2.73-1.36-1.47 0 0 0c10.81 0 17.33-5.56 17.33-16.69 0-7.56-2.2-16.08-5.05-19.64zm2-15.75c0-1.89-1.47-3.05-3.58-3.05-3.87 0-8.28 4.32-8.28 8.5 0 1.8 1.25 2.74 3.36 3.47-.73.85-1.58 2-1.58 2.63 0 .73 2.83 2.1 3.78 2.1.83 0 1.47-1.88 2.63-3.77 3.56-.96 4.52-1.9 4.52-3.05 0-1.06-.65-1.9-1.8-1.9-1.47 0-3.88.84-5.56 2.1-.94-.2-1.36-.84-1.36-1.67 0-1.47 1.67-3.16 3.15-3.16.83 0 1.25.43 2.1.43 1.67 0 2.62-1.16 2.62-2.63zm0 0"/></symbol><symbol overflow="visible" id="da80740fd"><path d="M10.92 6.83c1.58 0 3.78-.74 4.72-1.47A116.7 116.7 0 0114.6-4.83h.22C16.8-1.47 20.37 0 24.47 0c1.36 0 2.62-1.78 2.62-4.4 0-2.74-1.26-4.52-2.62-4.52-6.72 0-9.99-3.58-9.99-10.3 0-5.87.64-10.6.64-15.01 0-8.08-3.46-12.7-8.4-12.7-3.47 0-5.36 2.3-5.36 5.24 0 3.47 2.84 5.99 6.2 6.72.85 2 1.58 5.05 1.58 11.24.2 9.67 0 19.53 1.78 30.56zm0 0"/></symbol><symbol overflow="visible" id="da80740fe"><path d="M0-8.92c-1.58 0-2.63 1.78-2.63 4.51C-2.63-1.78-1.57 0 0 0h29.3c8.5 0 12.28-1.69 12.28-5.36 0-3.05-2.63-4.72-5.67-4.72-3.47 0-6.41 1.67-13.33 1.67-7.67 0-13.02-4.18-13.02-9.54 0-4.32 3.46-8.1 8.5-8.1 2.32 0 4.2.53 5.36 1.16 0 4.1 1.99 6.52 3.99 6.52 4.09 0 7.03-3.16 7.03-6.1 0-4.94-5.25-9.76-13.97-9.76C10.8-34.23 3.05-27.2 3.05-19c0 5.03 3.25 8.6 7.14 10.08zm0 0"/></symbol><symbol overflow="visible" id="da80740ff"><path d="M7.4 0L4.79-8.1H3.23L.6 0h1.18l.51-1.77h3.35L6.19 0zM3.95-7.13h.1l1.32 4.47h-2.8zm0 0"/></symbol><symbol overflow="visible" id="da80740fg"><path d="M4.3-6.97c.5 0 .86-.28.86-.81S4.8-8.6 4.3-8.6c-.53 0-.86.28-.86.8 0 .54.33.82.86.82zm.6.95H1.82v.91h1.92v4.19H1.56V0h5.38v-.92H4.89zm0 0"/></symbol><symbol overflow="visible" id="da80740fh"><path d="M4.02.19c1.7 0 2.65-.72 2.65-1.88 0-1.06-.65-1.45-1.76-1.67L3.6-3.6c-.81-.16-1.03-.37-1.03-.87 0-.6.45-.88 1.4-.88 1 0 1.43.31 1.52.95l1.1-.06c-.16-1.2-.97-1.75-2.63-1.75-1.61 0-2.5.63-2.5 1.8 0 .97.53 1.47 1.81 1.72l1.25.23c.67.14 1.03.3 1.03.88 0 .62-.53.93-1.53.93-1.16 0-1.62-.32-1.7-1.04l-1.1.07C1.3-.43 2.17.2 4.02.2zm0 0"/></symbol><symbol overflow="visible" id="da80740fi"><path d="M2.6 0v-3.22c0-1.19.71-1.94 1.74-1.94.9 0 1.29.49 1.29 1.44V0h1.14v-3.97c0-1.4-.7-2.22-2.02-2.22-1.08 0-1.72.55-2.08 1.3H2.6v-3.69H1.45V0zm0 0"/></symbol><symbol overflow="visible" id="da80740fj"><path d="M3.4.17C4.51.17 5.2-.3 5.57-.97h.08l.12.97h.9v-4.05c0-1.48-.82-2.15-2.54-2.15-1.73 0-2.44.75-2.6 1.9l1.1.11c.13-.7.52-1.1 1.47-1.1 1.01 0 1.47.37 1.47 1.23v.42l-2.17.23c-1.49.18-2.08.82-2.08 1.86 0 1.13.76 1.72 2.06 1.72zm.29-.92c-.81 0-1.2-.33-1.2-.9 0-.52.32-.87 1.2-.96l1.89-.23v.48c0 .95-.75 1.61-1.9 1.61zm0 0"/></symbol><symbol overflow="visible" id="da80740fl"><path d="M6.1-6.19c-1.12 0-1.9.52-2.3 1.57h-.08l-.11-1.4H1.27v.91h1.32v4.19H1.14V0H5.9v-.92H3.73v-1.75c0-1.64.7-2.46 2.2-2.46.48 0 .91.08 1.32.2l.17-1.05c-.39-.13-.83-.2-1.33-.2zm0 0"/></symbol><symbol overflow="visible" id="da80740fm"><path d="M4.69.17c1.76 0 2.6-1.19 2.6-3.17 0-2-.84-3.19-2.6-3.19-1.1 0-1.8.49-2.14 1.2h-.08v-3.59H1.33V0h.97l.15-1.1h.07c.34.77.96 1.27 2.17 1.27zm-.4-.95C3-.78 2.45-1.75 2.45-3c0-1.28.56-2.23 1.86-2.23S6.1-4.52 6.1-3c0 1.48-.52 2.22-1.8 2.22zm0 0"/></symbol><symbol overflow="visible" id="da80740fn"><path d="M4.02.17c1.7 0 2.56-.78 2.7-2.12l-1.08-.13c-.12.85-.6 1.3-1.6 1.3C2.79-.78 2.2-1.55 2.2-3c0-1.48.58-2.23 1.85-2.23 1 0 1.47.42 1.6 1.3l1.07-.12c-.16-1.33-.99-2.14-2.7-2.14-1.88 0-2.97 1.17-2.97 3.19 0 2 1.1 3.17 2.97 3.17zm0 0"/></symbol></defs><use xlink:href="#da80740fa" x="72.68" y="145"/><use xlink:href="#da80740fb" x="106.595" y="145"/><use xlink:href="#da80740fc" x="151.22" y="145"/><use xlink:href="#da80740fd" x="170.435" y="145"/><use xlink:href="#da80740fe" x="194.9" y="145"/><g fill-opacity=".33"><use xlink:href="#da80740ff" x="107" y="230"/><use xlink:href="#da80740fg" x="115.0004" y="230"/><use xlink:href="#da80740fh" x="123.0008" y="230"/><use xlink:href="#da80740fi" x="131.0012" y="230"/><use xlink:href="#da80740fj" x="139.0016" y="230"/><use xlink:href="#da80740fk" x="147.002" y="230"/><use xlink:href="#da80740ff" x="155.0024" y="230"/><use xlink:href="#da80740fl" x="163.0028" y="230"/><use xlink:href="#da80740fj" x="171.0032" y="230"/><use xlink:href="#da80740fm" x="179.0036" y="230"/><use xlink:href="#da80740fg" x="187.004" y="230"/><use xlink:href="#da80740fn" x="195.0044" y="230"/></g></svg>