<?xml version='1.0' encoding='UTF-8'?>
<svg xmlns="http://www.w3.org/2000/svg" xmlns:xlink="http://www.w3.org/1999/xlink" width="600px" height="300px" viewBox="0 0 600 300" x="0px" y="0px" enable-background="new 0 0 600 300"><defs><symbol overflow="visible" id="4f33ffd7a"><path d="M15.06-19.47c0 2.64 2.31 6.05 6.94 6.05 2.2 0 4.73-1.88 4.73-4.28 0-3.2-2.3-6.4-6.28-6.4-3.73 0-5.39 2.2-5.39 4.63zm0 0"/></symbol><symbol overflow="visible" id="4f33ffd7c"><path d="M25.19-4.95c1 3.4 1.76 5.28 2.86 5.28 1.1 0 2.42-2.53 2.42-4.85 0-5.5-4.28-17.04-13.1-26.82-3.07-3.43-5.17-4.85-6.92-4.85-1.76 0-3.51 1.64-3.51 2.97 0 1.42.87 2.53 4.28 5.61 6.26 5.83 11 12.98 13.97 22.66zm0 0"/></symbol><symbol overflow="visible" id="4f33ffd7d"><path d="M27.72-35.1a8.47 8.47 0 012.64 6.16c0 2.75-1.2 4.74-4.95 4.74-5.4 0-9.13-3.96-13.54-8.9-1.85-2.1-3.4-3.09-5.17-3.09-2.3 0-3.62 1.64-3.62 3.63 0 1.44.76 2.42 3.3 5.6C11-21.11 15.3-14.18 17.59-3.51c.57 2.65.9 3.85 1.99 3.85 1.33 0 2.97-2.31 2.97-4.17 0-5.96-1.64-11.79-5.4-18.05l.33-.22c2.97 2.86 5.96 4.52 9.58 4.52 5.72 0 9.02-4.08 9.02-9.58 0-5.83-3.63-9.02-5.94-9.02-.87 0-1.98.55-2.42 1.1zm0 0"/></symbol><symbol overflow="visible" id="4f33ffd7e"><path d="M30.58-35.75c1.44 1.98 2.1 4.3 2.1 6.05 0 2.64-1.12 4.51-3.41 4.51-1.33 0-2.43-.87-3.43-2.31-.32-3.84-2.3-7.27-4.06-7.27-.66 0-1.22.22-1.55.46a12.2 12.2 0 011.33 5.15c0 2.54-1 4.08-3.3 4.08-2.74 0-5.06-1.87-8.14-6.94-2.2-3.07-3.53-4.17-4.95-4.17-1.98 0-3.51 1.64-3.51 3.74 0 1.54.1 2.2 3.07 6.6a48.63 48.63 0 017.93 21.23c.43 3.96 1.3 5.06 1.96 5.06 1.33 0 2.97-2.53 2.97-4.85 0-7.46-1.2-12.2-3.95-17.48l.33-.22c2.2 2.86 4.08 4.17 6.37 4.17 2.1 0 3.54-1.1 4.41-2.86a7.93 7.93 0 005.4 2.2c3.94 0 6.7-3.62 6.7-8.57 0-5.5-2.87-9.02-4.73-9.02-.67 0-1.21.22-1.54.44zm0 0"/></symbol><symbol overflow="visible" id="4f33ffd7f"><path d="M34.55-31.8c-1.77-2.3-5.28-4.39-8.25-4.39-4.3 0-7.82 3.19-10.68 8.9h-.1l-2.43-5.82a4.73 4.73 0 00-4.51-3.08c-1.99 0-3.4 1.88-3.4 3.96 0 1.54.65 2.64 3.29 7.26C15.07-13.64 17.48-3.19 18.7 6.6c.55 3.97 1.2 5.07 1.99 5.07 1.42 0 3.08-2.54 3.08-4.85 0-6.26-1.33-14.08-3.54-21.65l.11-.11c1.88.98 4.85 1.97 7.6 1.97 4.08 0 8.14-4.96 8.14-6.6 0-.98-.55-1.55-1.1-1.65a17.8 17.8 0 01-8.25 1.98c-4.62 0-8.25-1.2-8.25-3.73 0-2.32 3.63-6.61 6.49-6.61 1.98 0 3.3.65 5.17 1.87 1.98-.66 4.06-3.08 4.4-4.08zm0 0"/></symbol><symbol overflow="visible" id="4f33ffd7g"><path d="M17.48-41.58C6.81-30.25 3.62-22.55 3.62-13.86 3.63-5.5 8.59.44 13.87.44c3.08 0 5.39-2.31 7.16-5.61h.21c1.86 3.97 4.5 5.6 7.14 5.6 5.18 0 9.8-5.82 9.8-15.84 0-14.51-11.98-32-18.81-32-3.19 0-5.72 1.2-5.72 2.32 0 1.09 2.31 1.97 3.84 3.51zm1.66 32.45c-.98 1.86-2.53 2.97-4.52 2.97-3.3 0-5.82-2.42-5.82-8.57 0-7.16 2.86-13.43 12.22-24.32C29.05-31.45 33-23.09 33-14.95c0 5.93-2.1 8.68-5.28 8.68-2.53 0-4.06-1-4.95-2.86 1-2.42 1.54-4.51 1.54-5.93 0-2.2-2.64-5.06-4.95-5.06-.88 0-1.42.76-1.55 2.07-.22 2.32.46 6.07 1.33 8.93zm0 0"/></symbol><symbol overflow="visible" id="4f33ffd7h"><path d="M36.4-20.13c-3.73 3.96-7.92 5.83-13.63 5.83-6.38 0-11.11-3.3-11.11-7.8 0-4.96 4.18-8.8 10.12-8.8 1.88 0 3.08.32 4.63 1.2-.11 3.3 1.3 5.82 3.3 5.82 3.07 0 5.5-2.85 5.5-5.6 0-3.85-5.5-7.93-12.77-7.93-9.67 0-16.28 8.03-16.28 15.3 0 6.7 5.71 11.66 14.18 12.66v.32C13.1-3.08 7.16 5.07 7.16 7.6c0 1.2.98 4.07 1.64 4.07.76 0 1.22-1.2 3.3-4.07a66 66 0 0119.7-17.71c6.15-3.52 7.25-5.4 7.25-7.58 0-1.44-1.2-2.43-2.64-2.43zm0 0"/></symbol><symbol overflow="visible" id="4f33ffd7b"><path d="M20.23 12.2c-.32-3.95-.54-8.57-.54-19.47-.22-19.03 2.42-35.07 2.42-42.89 0-1.87-1.1-3.07-3.19-3.07-2.1 0-2.86.98-3.62 4.28-1 4.51-1.66 22-1.66 36.86 0 13.07 1.31 21.1 2.1 22.87.54 1.2.87 1.99 2.3 1.99.77 0 1.54-.22 2.2-.57zm0 0"/></symbol><symbol overflow="visible" id="4f33ffd7i"><path d="M3.83 0v-5.95H6.2v-.82H.45v.82h2.4V0zm0 0"/></symbol><symbol overflow="visible" id="4f33ffd7j"><path d="M5.75-2.23v-.43c0-1.6-.9-2.51-2.42-2.51S.87-4.16.87-2.48c0 1.71.91 2.62 2.5 2.62 1.43 0 2.07-.56 2.29-1.52l-.9-.09c-.18.61-.59.9-1.35.9-.94 0-1.52-.54-1.58-1.66zm-2.4-2.2c.93 0 1.43.5 1.48 1.55H1.84c.08-1.07.6-1.56 1.5-1.56zm0 0"/></symbol><symbol overflow="visible" id="4f33ffd7k"><path d="M1.83 0l1.42-2h.06l1.46 2H5.8L4-2.53l1.78-2.49H4.8L3.42-3.08h-.08l-1.4-1.94H.89l1.78 2.49L.84 0zm0 0"/></symbol><symbol overflow="visible" id="4f33ffd7l"><path d="M5.52-4.25v-.77H3.17v-1.56h-.81l-.14 1.56H.75v.77h1.47v2.4c0 1.3.48 1.94 1.84 1.94C4.6.1 5.14 0 5.55-.14L5.4-.91c-.32.13-.72.2-1.13.2-.8 0-1.1-.37-1.1-1.23v-2.31zm0 0"/></symbol><symbol overflow="visible" id="4f33ffd7m"><path d="M3.33-3.42c.47 0 .8-.27.8-.8 0-.51-.33-.8-.8-.8-.47 0-.8.29-.8.8 0 .53.33.8.8.8zm0 3.5c.47 0 .8-.27.8-.78 0-.53-.33-.82-.8-.82-.47 0-.8.29-.8.82 0 .51.33.78.8.78zm0 0"/></symbol><symbol overflow="visible" id="4f33ffd7v"><path d="M5.95-6.77H1.1V0h.99v-2.92H5.3v-.77H2.08v-2.26h3.87zm0 0"/></symbol><symbol overflow="visible" id="4f33ffd7w"><path d="M2.83.14c.94 0 1.5-.39 1.81-.95h.08l.1.81h.76v-3.38c0-1.23-.69-1.8-2.13-1.8-1.43 0-2.03.65-2.18 1.6l.93.1c.11-.6.44-.93 1.22-.93.85 0 1.22.32 1.22 1.04v.34l-1.81.2C1.6-2.7 1.1-2.17 1.1-1.28c0 .92.64 1.42 1.72 1.42zm.25-.77c-.67 0-1.02-.28-1.02-.74 0-.44.28-.72 1-.82l1.58-.19v.41c0 .8-.6 1.34-1.56 1.34zm0 0"/></symbol><symbol overflow="visible" id="4f33ffd7x"><path d="M2.73.14c.9 0 1.43-.45 1.74-1.08h.06l.13.94h.8v-5.02h-.94v2.7c0 .98-.57 1.62-1.46 1.62-.75 0-1.1-.4-1.1-1.22v-3.1h-.93v3.32c0 1.17.55 1.84 1.7 1.84zm0 0"/></symbol><symbol overflow="visible" id="4f33ffd7y"><path d="M5.08-5.16c-.94 0-1.58.43-1.9 1.3h-.09l-.07-1.16H1.05v.77h1.1v3.48H.96V0h3.96v-.77H3.1v-1.46c0-1.36.6-2.05 1.83-2.05.4 0 .76.08 1.1.17l.15-.87c-.33-.11-.7-.18-1.11-.18zm0 0"/></symbol><symbol overflow="visible" id="4f33ffd7z"><path d="M3.9.14c1.48 0 2.18-.98 2.18-2.64 0-1.67-.7-2.66-2.17-2.66-.91 0-1.49.41-1.79 1h-.06v-2.98h-.95V0h.81l.11-.9h.06c.29.63.82 1.04 1.82 1.04zm-.32-.8c-1.08 0-1.55-.8-1.55-1.84 0-1.06.47-1.86 1.55-1.86 1.1 0 1.51.61 1.51 1.86S4.64-.66 3.58-.66zm0 0"/></symbol><symbol overflow="visible" id="4f33ffd7A"><path d="M3.92-7.14H1.36v.76h1.6v5.61H1.15V0H5.7v-.77H3.92zm0 0"/></symbol><symbol overflow="visible" id="4f33ffd7B"><path d="M2.16 0v-2.67c0-.99.59-1.63 1.46-1.63.74 0 1.07.38 1.07 1.22V0h.95v-3.31c0-1.2-.56-1.85-1.67-1.85-.92 0-1.49.46-1.77 1.08h-.06l-.12-.94H1.2V0zm0 0"/></symbol><symbol overflow="visible" id="4f33ffd7C"><path d="M3.16 2.03c1.67 0 2.4-.86 2.4-2.51v-4.54h-.81l-.13.91h-.06c-.26-.58-.8-1.05-1.73-1.05-1.42 0-2.24 1-2.24 2.52 0 1.6.75 2.56 2.2 2.56.94 0 1.5-.5 1.77-1.03h.05v.72c0 1.17-.42 1.67-1.45 1.67-.93 0-1.3-.34-1.41-.89L.8.5c.12.96.87 1.54 2.36 1.54zM3.06-.8c-.98 0-1.48-.57-1.48-1.82 0-1.13.5-1.75 1.48-1.75 1.06 0 1.58.76 1.58 1.75 0 .95-.56 1.82-1.58 1.82zm0 0"/></symbol><symbol overflow="visible" id="4f33ffd7D"><path d="M3.58-5.81c.42 0 .72-.22.72-.67 0-.44-.3-.68-.72-.68-.44 0-.72.24-.72.68 0 .45.28.67.72.67zm.5.8H1.52v.76h1.6v3.48h-1.8V0h4.46v-.77h-1.7zm0 0"/></symbol><symbol overflow="visible" id="4f33ffd7E"><path d="M.92-6.77V0h.99v-2.27h1.68c1.58 0 2.38-.65 2.38-2.2v-.14c0-1.51-.8-2.16-2.34-2.16zM5-4.47c0 1.05-.42 1.45-1.58 1.45H1.91v-2.96h1.51C4.58-5.98 5-5.66 5-4.61zm0 0"/></symbol><symbol overflow="visible" id="4f33ffd7F"><path d="M3.36.16c1.4 0 2.2-.6 2.2-1.57 0-.89-.54-1.22-1.47-1.39L3-3c-.67-.14-.86-.33-.86-.73 0-.5.4-.74 1.17-.74.83 0 1.19.27 1.27.8l.9-.05c-.12-1-.8-1.47-2.17-1.47-1.34 0-2.1.53-2.1 1.5 0 .81.45 1.22 1.52 1.44l1.04.2c.56.11.87.24.87.72 0 .52-.45.78-1.28.78-.95 0-1.36-.28-1.42-.87l-.9.06C1.07-.36 1.8.16 3.35.16zm0 0"/></symbol><symbol overflow="visible" id="4f33ffd7G"><path d="M1.63 0v-2.9c0-.8.15-1.4.71-1.4.41 0 .55.3.55.88V0h.95v-2.9c0-.8.18-1.4.72-1.4.4 0 .57.3.57.88V0h.95v-3.63c0-.92-.28-1.53-1.11-1.53-.63 0-.95.41-1.1.9h-.06c-.1-.52-.44-.9-1.08-.9-.6 0-.93.41-1.06.9H1.6l-.23-.76H.67V0zm0 0"/></symbol><symbol overflow="visible" id="4f33ffd7H"><path d="M1.45-2.95c0 2.56 1.08 4.37 3.67 4.84l.11-.67C3.28.86 2.43-.75 2.43-2.95s.85-3.82 2.8-4.16l-.1-.69c-2.6.49-3.68 2.3-3.68 4.85zm0 0"/></symbol><symbol overflow="visible" id="4f33ffd7I"><path d="M3.33.14c1.62 0 2.5-.95 2.5-2.66 0-1.68-.88-2.64-2.5-2.64-1.63 0-2.5.96-2.5 2.64 0 1.7.87 2.66 2.5 2.66zm0-.77c-1.06 0-1.52-.6-1.52-1.89 0-1.28.46-1.87 1.52-1.87 1.08 0 1.53.6 1.53 1.87 0 1.29-.45 1.9-1.53 1.9zm0 0"/></symbol><symbol overflow="visible" id="4f33ffd7J"><path d="M5.4-1.22c.43-.66.66-1.51.66-2.44l-.83-.09c0 .75-.14 1.4-.4 1.92l-1.7-1.83c.8-.42 1.39-.96 1.39-1.86 0-.87-.66-1.4-1.61-1.4-1.14 0-1.72.62-1.72 1.47 0 .72.47 1.3.83 1.68-.8.41-1.52.99-1.52 2.1C.5-.44 1.52.14 2.7.14c.9 0 1.64-.3 2.2-.78l.58.64h1.05zM2.86-6.25c.44 0 .82.23.82.73 0 .7-.47 1.11-1 1.41-.47-.53-.67-.92-.67-1.34 0-.47.3-.8.85-.8zM2.81-.62c-.83 0-1.42-.41-1.42-1.18 0-.76.5-1.18 1.05-1.5l1.94 2.1c-.4.37-.91.57-1.57.57zm0 0"/></symbol><symbol overflow="visible" id="4f33ffd7K"><path d="M1.45-7.1c1.96.33 2.8 1.94 2.8 4.15 0 2.2-.84 3.8-2.8 4.17l.11.67c2.58-.47 3.67-2.28 3.67-4.84 0-2.55-1.09-4.36-3.67-4.85zm0 0"/></symbol><symbol overflow="visible" id="4f33ffd7o"><path d="M1.38-1.45l.68-.68L1.2-3l-.67.67zm0 0"/></symbol><symbol overflow="visible" id="4f33ffd7p"><path d="M1.14 0h.66c0-2.92-.1-3.38-.57-5.03L.52-5c.53 1.6.62 1.97.62 5zm0 0"/></symbol><symbol overflow="visible" id="4f33ffd7q"><path d="M1.14 0h.66c0-1.28-.02-2.08-.08-2.72.2.06.42.1.6.1 1 0 1.46-.66 1.46-1.77 0-.2-.01-.42-.05-.64l-.65.06c.03.25.04.45.04.63 0 .65-.21.96-.8.96-.52 0-.68-.09-.84-.75l-.25-.9L.52-5c.53 1.6.62 1.97.62 5zm0 0"/></symbol><symbol overflow="visible" id="4f33ffd7r"><path d="M1.14 0h.66c0-1.28-.02-2.08-.08-2.72.2.06.42.1.6.1.26 0 .48-.07.66-.2.24.12.63.2.82.2.84 0 1.22-.66 1.22-1.77 0-.19-.02-.42-.04-.64l-.6.06.01.47c0 .77-.14 1.13-.6 1.13-.15 0-.27-.02-.37-.05.1-.27.14-.58.14-.97 0-.2-.01-.42-.04-.64l-.66.06c.02.25.05.45.05.63 0 .65-.18.96-.6.96-.51 0-.67-.09-.83-.75l-.25-.9L.52-5c.53 1.6.62 1.97.62 5zm0 0"/></symbol><symbol overflow="visible" id="4f33ffd7s"><path d="M1.14 0h.66c0-.92-.02-1.6-.03-2.16.21.04.45.05.71.05.66 0 1.43-.08 2.29-.25L4.84-3c-.53.13-1.32.19-1.56.2-.08 0-.08 0-.12-.06-.1-.14-.32-.48-.32-.86 0-.45.29-.64.7-.64.21 0 .48.06.74.16l.17-.64a2.7 2.7 0 00-.93-.2c-.77 0-1.32.46-1.32 1.35 0 .3.08.64.24.9-.24 0-.47 0-.66-.04-.06 0-.06 0-.08-.1a11.9 11.9 0 00-.47-2.1L.52-5c.53 1.6.62 1.97.62 5zm0 0"/></symbol><symbol overflow="visible" id="4f33ffd7t"><path d="M1.72 0c.25 0 .58-.03.81-.22.3.19.58.22.81.22.52 0 1.18-.27 1.18-1.4 0-1.16-.85-2.23-2.57-3.68l-.47.52.36.33C1-3.2.52-2.43.52-1.43.52-.35 1.08 0 1.72 0zm0-.75c-.36 0-.56-.19-.56-.69 0-.72.3-1.36 1.2-2.37 1.22 1.04 1.5 1.87 1.5 2.42 0 .45-.11.64-.5.64-.5 0-.5-.1-.5-.5v-.36H2.2v.36c0 .4 0 .5-.48.5zm0 0"/></symbol><symbol overflow="visible" id="4f33ffd7u"><path d="M.52 0h.87a5.44 5.44 0 012.95-2.6l.08-.8-1.19.52c-.28.15-.48.16-.71.04a.88.88 0 01-.47-.75c0-.5.34-.74.9-.74a3 3 0 01.77.11l.08-.69a3.1 3.1 0 00-.9-.14c-.88 0-1.54.49-1.54 1.49 0 .58.33 1.12.81 1.4C1.72-1.75 1.13-1 .52 0zm0 0"/></symbol></defs><use xlink:href="#4f33ffd7a" x="52.72" y="141" fill="#fff"/><use xlink:href="#4f33ffd7b" x="94.52" y="141" fill="#515151"/><use xlink:href="#4f33ffd7c" x="128.18" y="141" fill="#fff"/><use xlink:href="#4f33ffd7b" x="169.98" y="141" fill="#515151"/><use xlink:href="#4f33ffd7d" x="203.64" y="141" fill="#fff"/><use xlink:href="#4f33ffd7b" x="245.44" y="141" fill="#515151"/><use xlink:href="#4f33ffd7e" x="279.1" y="141" fill="#fff"/><use xlink:href="#4f33ffd7b" x="320.9" y="141" fill="#515151"/><use xlink:href="#4f33ffd7f" x="354.56" y="141" fill="#fff"/><use xlink:href="#4f33ffd7b" x="396.36" y="141" fill="#515151"/><use xlink:href="#4f33ffd7g" x="430.02" y="141" fill="#fff"/><use xlink:href="#4f33ffd7b" x="471.82" y="141" fill="#515151"/><use xlink:href="#4f33ffd7h" x="505.48" y="141" fill="#fff"/><g fill="#fff"><use xlink:href="#4f33ffd7i" x="265.3222" y="252"/><use xlink:href="#4f33ffd7j" x="271.9892" y="252"/><use xlink:href="#4f33ffd7k" x="278.6562" y="252"/><use xlink:href="#4f33ffd7l" x="285.3232" y="252"/><use xlink:href="#4f33ffd7m" x="291.9902" y="252"/><use xlink:href="#4f33ffd7n" x="298.6572" y="252"/></g><use xlink:href="#4f33ffd7o" x="305.3222" y="252" fill="#fff"/><g fill="#fff"><use xlink:href="#4f33ffd7p" x="307.9" y="252"/><use xlink:href="#4f33ffd7q" x="310.219" y="252"/><use xlink:href="#4f33ffd7r" x="314.518" y="252"/><use xlink:href="#4f33ffd7s" x="320.057" y="252"/></g><use xlink:href="#4f33ffd7t" x="325.126" y="252" fill="#fff"/><use xlink:href="#4f33ffd7u" x="329.745" y="252" fill="#fff"/><g fill="#fff"><use xlink:href="#4f33ffd7v" x="116.6667" y="266"/><use xlink:href="#4f33ffd7j" x="123.3337" y="266"/><use xlink:href="#4f33ffd7w" x="130.0007" y="266"/><use xlink:href="#4f33ffd7l" x="136.6677" y="266"/><use xlink:href="#4f33ffd7x" x="143.3347" y="266"/><use xlink:href="#4f33ffd7y" x="150.0017" y="266"/><use xlink:href="#4f33ffd7j" x="156.6687" y="266"/><use xlink:href="#4f33ffd7m" x="163.3357" y="266"/><use xlink:href="#4f33ffd7n" x="170.0027" y="266"/><use xlink:href="#4f33ffd7i" x="176.6697" y="266"/><use xlink:href="#4f33ffd7w" x="183.3367" y="266"/><use xlink:href="#4f33ffd7z" x="190.0037" y="266"/><use xlink:href="#4f33ffd7x" x="196.6707" y="266"/><use xlink:href="#4f33ffd7A" x="203.3377" y="266"/><use xlink:href="#4f33ffd7w" x="210.0047" y="266"/><use xlink:href="#4f33ffd7y" x="216.6717" y="266"/><use xlink:href="#4f33ffd7n" x="223.3387" y="266"/><use xlink:href="#4f33ffd7y" x="230.0057" y="266"/><use xlink:href="#4f33ffd7w" x="236.6727" y="266"/><use xlink:href="#4f33ffd7B" x="243.3397" y="266"/><use xlink:href="#4f33ffd7C" x="250.0067" y="266"/><use xlink:href="#4f33ffd7D" x="256.6737" y="266"/><use xlink:href="#4f33ffd7B" x="263.3407" y="266"/><use xlink:href="#4f33ffd7C" x="270.0077" y="266"/><use xlink:href="#4f33ffd7n" x="276.6747" y="266"/><use xlink:href="#4f33ffd7E" x="283.3417" y="266"/><use xlink:href="#4f33ffd7j" x="290.0087" y="266"/><use xlink:href="#4f33ffd7y" x="296.6757" y="266"/><use xlink:href="#4f33ffd7F" x="303.3427" y="266"/><use xlink:href="#4f33ffd7D" x="310.0097" y="266"/><use xlink:href="#4f33ffd7w" x="316.6767" y="266"/><use xlink:href="#4f33ffd7B" x="323.3437" y="266"/><use xlink:href="#4f33ffd7n" x="330.0107" y="266"/><use xlink:href="#4f33ffd7B" x="336.6777" y="266"/><use xlink:href="#4f33ffd7x" x="343.3447" y="266"/><use xlink:href="#4f33ffd7G" x="350.0117" y="266"/><use xlink:href="#4f33ffd7j" x="356.6787" y="266"/><use xlink:href="#4f33ffd7y" x="363.3457" y="266"/><use xlink:href="#4f33ffd7w" x="370.0127" y="266"/><use xlink:href="#4f33ffd7A" x="376.6797" y="266"/><use xlink:href="#4f33ffd7F" x="383.3467" y="266"/><use xlink:href="#4f33ffd7n" x="390.0137" y="266"/><use xlink:href="#4f33ffd7H" x="396.6807" y="266"/><use xlink:href="#4f33ffd7I" x="403.3477" y="266"/><use xlink:href="#4f33ffd7B" x="410.0147" y="266"/><use xlink:href="#4f33ffd7x" x="416.6817" y="266"/><use xlink:href="#4f33ffd7G" x="423.3487" y="266"/><use xlink:href="#4f33ffd7n" x="430.0157" y="266"/><use xlink:href="#4f33ffd7J" x="436.6827" y="266"/><use xlink:href="#4f33ffd7n" x="443.3497" y="266"/><use xlink:href="#4f33ffd7l" x="450.0167" y="266"/><use xlink:href="#4f33ffd7B" x="456.6837" y="266"/><use xlink:href="#4f33ffd7x" x="463.3507" y="266"/><use xlink:href="#4f33ffd7G" x="470.0177" y="266"/><use xlink:href="#4f33ffd7K" x="476.6847" y="266"/></g></svg>