<?xml version='1.0' encoding='UTF-8'?>
<svg xmlns="http://www.w3.org/2000/svg" xmlns:xlink="http://www.w3.org/1999/xlink" width="600px" height="300px" viewBox="0 0 600 300" x="0px" y="0px" enable-background="new 0 0 600 300"><defs><symbol overflow="visible" id="17162787a"><path d="M9.34-19.47c0 2.64 2.2 6.05 5.96 6.05 1.97 0 4.28-1.88 4.28-4.28 0-3.2-2.2-6.4-5.4-6.4-3.07 0-4.84 2.2-4.84 4.63zm0 0"/></symbol><symbol overflow="visible" id="17162787b"><path d="M17.16-3.3C17.8-.22 18.37.33 19.14.33c1.31 0 2.75-2.31 2.75-4.17 0-6.61-4.08-19.93-8.58-26.85-2.86-4.4-4.62-5.5-6.6-5.5-1.76 0-3.96 1.75-3.96 3.63 0 1.22.66 2.64 3.73 6.6A53.46 53.46 0 0117.16-3.3zm0 0"/></symbol><symbol overflow="visible" id="17162787c"><path d="M24.86-35.1a9 9 0 012.42 5.73c0 2.53-.98 4.07-3.73 4.07-3.32 0-7.7-2.2-12.77-8.68a5.54 5.54 0 00-4.51-2.2c-1.97 0-3.52 1.87-3.52 3.62 0 1.33.55 2.2 3.08 5.6C11.66-19.02 14.08-11 15.3-3.51 15.73-.44 16.4.33 17.16.33c1.32 0 2.96-2.31 2.96-4.17 0-5.96-1.2-11.79-4.06-18.05l.33-.22a13.18 13.18 0 008.8 3.4c4.51 0 7.6-3.5 7.6-8.68 0-5.5-3.3-8.8-5.73-8.8-.65 0-1.76.55-2.2 1.1zm0 0"/></symbol><symbol overflow="visible" id="17162787d"><path d="M30.69-35.75c1.33 1.98 2.1 4.3 2.1 6.05 0 1.98-1 3.4-2.65 3.4a4.8 4.8 0 01-3.4-1.2c-.33-3.84-2.32-7.27-4.08-7.27-.66 0-1.2.22-1.54.46a12.33 12.33 0 011.32 4.83c0 1.87-.99 3.3-3.19 3.3-2.64 0-4.95-1.54-8.03-5.84-2.2-3.07-3.52-4.17-4.95-4.17-1.97 0-3.52 1.64-3.52 3.74 0 1.54.1 2.2 3.08 6.6a48.47 48.47 0 018.03 21.23C14.3-.67 15.06.43 15.73.43c1.32 0 2.97-2.53 2.97-4.85 0-7.46-1.1-11.32-3.97-17.48l.11-.11c1.88 1.88 3.75 2.97 6.07 2.97 2.07 0 3.73-1.1 4.71-2.86a8.59 8.59 0 005.4 2.2c3.3 0 5.93-3.18 5.93-7.48 0-5.5-2.86-9.02-4.72-9.02-.67 0-1.21.22-1.54.44zm0 0"/></symbol><symbol overflow="visible" id="17162787e"><path d="M33 2.42c-3.3 1.64-6.48 2.64-10.23 2.64-5.4 0-8.58-2.97-8.58-6.93 0-2.97 2.1-6.7 6.26-9.46 4.96 0 8.6-2.31 8.6-5.17 0-1.2-1-2.75-2.32-2.75-1.32 0-2.75.55-4.73 1.66-7.16-1.55-10.9-4.52-10.9-6.83 0-2.1 3.2-4.74 11-5.28a5.12 5.12 0 001.45-3.2c0-1.98-1.55-3.4-4.08-3.4-5.83 0-13.42 6.7-13.42 13.97 0 3.85 3.18 7.7 9.8 9.78v.11C10.12-7.7 8.14-3.3 8.14.76c0 5.83 4.94 10.9 12.76 10.9 7.36 0 13.3-4.5 13.3-7.6 0-1.1-.55-1.31-1.21-1.64zm0 0"/></symbol><symbol overflow="visible" id="17162787f"><path d="M5.83-16.28c0 7.48 4.95 12.66 11.87 12.66 7.49 0 13.1-5.94 13.1-13.32 0-9.58-6.16-16.72-11.77-16.72-6.37 0-13.2 8.03-13.2 17.38zm12.1-10.24c3.74 0 7.91 5.29 7.91 10.02 0 2.75-2.86 5.72-7.57 5.72-4.52 0-7.49-2.75-7.49-6.38 0-4.73 3.52-9.36 7.16-9.36zm0 0"/></symbol><symbol overflow="visible" id="17162787g"><path d="M3.52-35.64a1.67 1.67 0 00-1.1-.44C1.44-36.08 0-34.66 0-31.9c0 4.85 3.3 7.93 8.9 7.93 4.08 0 8.8-1.2 11.33-2.32l.11.11c0 6.61 0 15.08 1.55 22.78 1.2 6.38 2.42 9.46 3.84 11.88 1.33 2.31 2.54 3.19 3.97 3.19 1.75 0 3.96-1.75 3.96-3.85 0-1.54-.99-3.18-3.2-7.6a56.47 56.47 0 01-5.82-21c-.33-3.74-.33-6.27-.77-9.57-.32-2.64-1.21-3.52-2.96-3.52-1.11 0-2.54.33-4.3.88a26.47 26.47 0 01-7.7 1.31c-3.74 0-5.4-1.31-5.4-3.95zm0 0"/></symbol><symbol overflow="visible" id="17162787h"><path d="M3.83 0v-5.95H6.2v-.82H.45v.82h2.4V0zm0 0"/></symbol><symbol overflow="visible" id="17162787i"><path d="M5.75-2.23v-.43c0-1.6-.9-2.51-2.42-2.51S.87-4.16.87-2.48c0 1.71.91 2.62 2.5 2.62 1.43 0 2.07-.56 2.29-1.52l-.9-.09c-.18.61-.59.9-1.35.9-.94 0-1.52-.54-1.58-1.66zm-2.4-2.2c.93 0 1.43.5 1.48 1.55H1.84c.08-1.07.6-1.56 1.5-1.56zm0 0"/></symbol><symbol overflow="visible" id="17162787j"><path d="M1.83 0l1.42-2h.06l1.46 2H5.8L4-2.53l1.78-2.49H4.8L3.42-3.08h-.08l-1.4-1.94H.89l1.78 2.49L.84 0zm0 0"/></symbol><symbol overflow="visible" id="17162787k"><path d="M5.52-4.25v-.77H3.17v-1.56h-.81l-.14 1.56H.75v.77h1.47v2.4c0 1.3.48 1.94 1.84 1.94C4.6.1 5.14 0 5.55-.14L5.4-.91c-.32.13-.72.2-1.13.2-.8 0-1.1-.37-1.1-1.23v-2.31zm0 0"/></symbol><symbol overflow="visible" id="17162787l"><path d="M3.33-3.42c.47 0 .8-.27.8-.8 0-.51-.33-.8-.8-.8-.47 0-.8.29-.8.8 0 .53.33.8.8.8zm0 3.5c.47 0 .8-.27.8-.78 0-.53-.33-.82-.8-.82-.47 0-.8.29-.8.82 0 .51.33.78.8.78zm0 0"/></symbol><symbol overflow="visible" id="17162787u"><path d="M5.95-6.77H1.1V0h.99v-2.92H5.3v-.77H2.08v-2.26h3.87zm0 0"/></symbol><symbol overflow="visible" id="17162787v"><path d="M2.83.14c.94 0 1.5-.39 1.81-.95h.08l.1.81h.76v-3.38c0-1.23-.69-1.8-2.13-1.8-1.43 0-2.03.65-2.18 1.6l.93.1c.11-.6.44-.93 1.22-.93.85 0 1.22.32 1.22 1.04v.34l-1.81.2C1.6-2.7 1.1-2.17 1.1-1.28c0 .92.64 1.42 1.72 1.42zm.25-.77c-.67 0-1.02-.28-1.02-.74 0-.44.28-.72 1-.82l1.58-.19v.41c0 .8-.6 1.34-1.56 1.34zm0 0"/></symbol><symbol overflow="visible" id="17162787w"><path d="M2.73.14c.9 0 1.43-.45 1.74-1.08h.06l.13.94h.8v-5.02h-.94v2.7c0 .98-.57 1.62-1.46 1.62-.75 0-1.1-.4-1.1-1.22v-3.1h-.93v3.32c0 1.17.55 1.84 1.7 1.84zm0 0"/></symbol><symbol overflow="visible" id="17162787x"><path d="M5.08-5.16c-.94 0-1.58.43-1.9 1.3h-.09l-.07-1.16H1.05v.77h1.1v3.48H.96V0h3.96v-.77H3.1v-1.46c0-1.36.6-2.05 1.83-2.05.4 0 .76.08 1.1.17l.15-.87c-.33-.11-.7-.18-1.11-.18zm0 0"/></symbol><symbol overflow="visible" id="17162787y"><path d="M4.06-2.77c1.25-.04 1.92-.7 1.92-1.96 0-1.36-.7-2.04-2.17-2.04H.92V0h.97v-2.73h1.08L4.95 0h1.1zM1.9-6h1.7c1.07 0 1.46.34 1.46 1.28 0 .9-.44 1.27-1.47 1.27H1.89zm0 0"/></symbol><symbol overflow="visible" id="17162787z"><path d="M2.16 0v-2.67c0-.99.59-1.63 1.46-1.63.74 0 1.07.38 1.07 1.22V0h.95v-3.31c0-1.2-.56-1.85-1.67-1.85-.92 0-1.49.46-1.77 1.08h-.06l-.12-.94H1.2V0zm0 0"/></symbol><symbol overflow="visible" id="17162787A"><path d="M3.16 2.03c1.67 0 2.4-.86 2.4-2.51v-4.54h-.81l-.13.91h-.06c-.26-.58-.8-1.05-1.73-1.05-1.42 0-2.24 1-2.24 2.52 0 1.6.75 2.56 2.2 2.56.94 0 1.5-.5 1.77-1.03h.05v.72c0 1.17-.42 1.67-1.45 1.67-.93 0-1.3-.34-1.41-.89L.8.5c.12.96.87 1.54 2.36 1.54zM3.06-.8c-.98 0-1.48-.57-1.48-1.82 0-1.13.5-1.75 1.48-1.75 1.06 0 1.58.76 1.58 1.75 0 .95-.56 1.82-1.58 1.82zm0 0"/></symbol><symbol overflow="visible" id="17162787B"><path d="M3.58-5.81c.42 0 .72-.22.72-.67 0-.44-.3-.68-.72-.68-.44 0-.72.24-.72.68 0 .45.28.67.72.67zm.5.8H1.52v.76h1.6v3.48h-1.8V0h4.46v-.77h-1.7zm0 0"/></symbol><symbol overflow="visible" id="17162787C"><path d="M6.17 0L3.98-6.77h-1.3L.5 0h.97l.44-1.47h2.78L5.16 0zM3.28-5.94h.08l1.1 3.74H2.15zm0 0"/></symbol><symbol overflow="visible" id="17162787D"><path d="M3.9.14c1.48 0 2.18-.98 2.18-2.64 0-1.67-.7-2.66-2.17-2.66-.91 0-1.49.41-1.79 1h-.06v-2.98h-.95V0h.81l.11-.9h.06c.29.63.82 1.04 1.82 1.04zm-.32-.8c-1.08 0-1.55-.8-1.55-1.84 0-1.06.47-1.86 1.55-1.86 1.1 0 1.51.61 1.51 1.86S4.64-.66 3.58-.66zm0 0"/></symbol><symbol overflow="visible" id="17162787E"><path d="M3.34.14c1.43 0 2.13-.66 2.25-1.78l-.89-.1c-.1.7-.5 1.08-1.34 1.08-1.03 0-1.52-.64-1.52-1.84 0-1.23.47-1.86 1.52-1.86.84 0 1.23.36 1.34 1.08l.9-.1c-.13-1.09-.82-1.78-2.26-1.78-1.56 0-2.46.97-2.46 2.66 0 1.66.9 2.64 2.46 2.64zm0 0"/></symbol><symbol overflow="visible" id="17162787F"><path d="M1.63 0v-2.9c0-.8.15-1.4.71-1.4.41 0 .55.3.55.88V0h.95v-2.9c0-.8.18-1.4.72-1.4.4 0 .57.3.57.88V0h.95v-3.63c0-.92-.28-1.53-1.11-1.53-.63 0-.95.41-1.1.9h-.06c-.1-.52-.44-.9-1.08-.9-.6 0-.93.41-1.06.9H1.6l-.23-.76H.67V0zm0 0"/></symbol><symbol overflow="visible" id="17162787G"><path d="M3.92-7.14H1.36v.76h1.6v5.61H1.15V0H5.7v-.77H3.92zm0 0"/></symbol><symbol overflow="visible" id="17162787H"><path d="M3.36.16c1.4 0 2.2-.6 2.2-1.57 0-.89-.54-1.22-1.47-1.39L3-3c-.67-.14-.86-.33-.86-.73 0-.5.4-.74 1.17-.74.83 0 1.19.27 1.27.8l.9-.05c-.12-1-.8-1.47-2.17-1.47-1.34 0-2.1.53-2.1 1.5 0 .81.45 1.22 1.52 1.44l1.04.2c.56.11.87.24.87.72 0 .52-.45.78-1.28.78-.95 0-1.36-.28-1.42-.87l-.9.06C1.07-.36 1.8.16 3.35.16zm0 0"/></symbol><symbol overflow="visible" id="17162787I"><path d="M1.45-2.95c0 2.56 1.08 4.37 3.67 4.84l.11-.67C3.28.86 2.43-.75 2.43-2.95s.85-3.82 2.8-4.16l-.1-.69c-2.6.49-3.68 2.3-3.68 4.85zm0 0"/></symbol><symbol overflow="visible" id="17162787J"><path d="M3.33.14c1.62 0 2.5-.95 2.5-2.66 0-1.68-.88-2.64-2.5-2.64-1.63 0-2.5.96-2.5 2.64 0 1.7.87 2.66 2.5 2.66zm0-.77c-1.06 0-1.52-.6-1.52-1.89 0-1.28.46-1.87 1.52-1.87 1.08 0 1.53.6 1.53 1.87 0 1.29-.45 1.9-1.53 1.9zm0 0"/></symbol><symbol overflow="visible" id="17162787K"><path d="M1.45-7.1c1.96.33 2.8 1.94 2.8 4.15 0 2.2-.84 3.8-2.8 4.17l.11.67c2.58-.47 3.67-2.28 3.67-4.84 0-2.55-1.09-4.36-3.67-4.85zm0 0"/></symbol><symbol overflow="visible" id="17162787n"><path d="M1.38-1.45l.68-.68L1.2-3l-.67.67zm0 0"/></symbol><symbol overflow="visible" id="17162787o"><path d="M1.14 0h.66c0-2.92-.1-3.38-.57-5.03L.52-5c.53 1.6.62 1.97.62 5zm0 0"/></symbol><symbol overflow="visible" id="17162787p"><path d="M1.14 0h.66c0-1.28-.02-2.08-.08-2.72.2.06.42.1.6.1 1 0 1.46-.66 1.46-1.77 0-.2-.01-.42-.05-.64l-.65.06c.03.25.04.45.04.63 0 .65-.21.96-.8.96-.52 0-.68-.09-.84-.75l-.25-.9L.52-5c.53 1.6.62 1.97.62 5zm0 0"/></symbol><symbol overflow="visible" id="17162787q"><path d="M1.14 0h.66c0-1.28-.02-2.08-.08-2.72.2.06.42.1.6.1.26 0 .48-.07.66-.2.24.12.63.2.82.2.84 0 1.22-.66 1.22-1.77 0-.19-.02-.42-.04-.64l-.6.06.01.47c0 .77-.14 1.13-.6 1.13-.15 0-.27-.02-.37-.05.1-.27.14-.58.14-.97 0-.2-.01-.42-.04-.64l-.66.06c.02.25.05.45.05.63 0 .65-.18.96-.6.96-.51 0-.67-.09-.83-.75l-.25-.9L.52-5c.53 1.6.62 1.97.62 5zm0 0"/></symbol><symbol overflow="visible" id="17162787r"><path d="M2.33.05c.31 0 .69-.03 1.1-.1L3.5-.8c-.5.08-.9.1-1.22.1-.86 0-1.08-.26-1.08-.59 0-.5.66-.87 1.78-1.22l.07-.76c-.4.19-.77.26-1.03.26-.49 0-.75-.18-.75-.4 0-.22.17-.66 1.15-.92l.06-.72C1.31-4.84.66-4.11.66-3.4c0 .36.2.7.6.89-.43.31-.74.78-.74 1.25 0 .83.59 1.3 1.8 1.3zm0 0"/></symbol><symbol overflow="visible" id="17162787s"><path d="M2.33-.22c1.2 0 1.76-.64 1.76-1.7 0-1.19-.67-2.74-1.8-2.74-1.09 0-1.77 1.5-1.77 2.7 0 1.1.6 1.74 1.8 1.74zm.01-.75C1.5-.97 1.17-1.34 1.17-2c0-.75.46-1.9 1.14-1.9.69 0 1.13 1.18 1.13 1.93 0 .7-.38 1-1.1 1zm0 0"/></symbol><symbol overflow="visible" id="17162787t"><path d="M2.84 0h.7c-.23-1-.29-1.83-.29-2.75 0-.67.03-1.4.08-2.28H.59l-.07.75h2.06l-.03 1.36c0 1 .08 1.84.3 2.92zm0 0"/></symbol></defs><g fill="#fff"><use xlink:href="#17162787a" x="179.055" y="141"/><use xlink:href="#17162787b" x="207.985" y="141"/><use xlink:href="#17162787c" x="235.925" y="141"/><use xlink:href="#17162787d" x="272.885" y="141"/><use xlink:href="#17162787e" x="312.595" y="141"/><use xlink:href="#17162787f" x="347.355" y="141"/><use xlink:href="#17162787g" x="383.985" y="141"/><use xlink:href="#17162787h" x="267.1593" y="252"/><use xlink:href="#17162787i" x="273.8263" y="252"/><use xlink:href="#17162787j" x="280.4933" y="252"/><use xlink:href="#17162787k" x="287.1603" y="252"/><use xlink:href="#17162787l" x="293.8273" y="252"/><use xlink:href="#17162787m" x="300.4943" y="252"/><use xlink:href="#17162787n" x="307.1593" y="252"/><use xlink:href="#17162787o" x="309.1813" y="252"/><g><use xlink:href="#17162787p" x="311.5033" y="252"/></g><g><use xlink:href="#17162787q" x="315.7953" y="252"/></g><g><use xlink:href="#17162787r" x="321.0773" y="252"/></g><g><use xlink:href="#17162787s" x="324.8293" y="252"/></g><g><use xlink:href="#17162787t" x="328.7813" y="252"/></g><g><use xlink:href="#17162787u" x="170" y="266"/><use xlink:href="#17162787i" x="176.667" y="266"/><use xlink:href="#17162787v" x="183.334" y="266"/><use xlink:href="#17162787k" x="190.001" y="266"/><use xlink:href="#17162787w" x="196.668" y="266"/><use xlink:href="#17162787x" x="203.335" y="266"/><use xlink:href="#17162787i" x="210.002" y="266"/><use xlink:href="#17162787l" x="216.669" y="266"/><use xlink:href="#17162787m" x="223.336" y="266"/><use xlink:href="#17162787y" x="230.003" y="266"/><use xlink:href="#17162787v" x="236.67" y="266"/><use xlink:href="#17162787z" x="243.337" y="266"/><use xlink:href="#17162787A" x="250.004" y="266"/><use xlink:href="#17162787B" x="256.671" y="266"/><use xlink:href="#17162787z" x="263.338" y="266"/><use xlink:href="#17162787A" x="270.005" y="266"/><use xlink:href="#17162787m" x="276.672" y="266"/><use xlink:href="#17162787C" x="283.339" y="266"/><use xlink:href="#17162787x" x="290.006" y="266"/><use xlink:href="#17162787v" x="296.673" y="266"/><use xlink:href="#17162787D" x="303.34" y="266"/><use xlink:href="#17162787B" x="310.007" y="266"/><use xlink:href="#17162787E" x="316.674" y="266"/><use xlink:href="#17162787m" x="323.341" y="266"/><use xlink:href="#17162787z" x="330.008" y="266"/><use xlink:href="#17162787w" x="336.675" y="266"/><use xlink:href="#17162787F" x="343.342" y="266"/><use xlink:href="#17162787i" x="350.009" y="266"/><use xlink:href="#17162787x" x="356.676" y="266"/><use xlink:href="#17162787v" x="363.343" y="266"/><use xlink:href="#17162787G" x="370.01" y="266"/><use xlink:href="#17162787H" x="376.677" y="266"/><use xlink:href="#17162787m" x="383.344" y="266"/><use xlink:href="#17162787I" x="390.011" y="266"/><use xlink:href="#17162787J" x="396.678" y="266"/><use xlink:href="#17162787z" x="403.345" y="266"/><use xlink:href="#17162787w" x="410.012" y="266"/><use xlink:href="#17162787F" x="416.679" y="266"/><use xlink:href="#17162787K" x="423.346" y="266"/></g></g></svg>