<?xml version='1.0' encoding='UTF-8'?>
<svg xmlns="http://www.w3.org/2000/svg" xmlns:xlink="http://www.w3.org/1999/xlink" width="600px" height="300px" viewBox="0 0 600 300" x="0px" y="0px" enable-background="new 0 0 600 300"><defs><symbol overflow="visible" id="490bc422a"><path d="M15.06-24.97c0 2.64 2.31 6.05 6.94 6.05 2.2 0 4.73-1.88 4.73-4.28 0-3.2-2.3-6.4-6.28-6.4-3.73 0-5.39 2.2-5.39 4.63zm0 0"/></symbol><symbol overflow="visible" id="490bc422c"><path d="M25.3-4.19C26.19-.1 26.84.44 27.6.44c1.45 0 2.87-2.53 2.87-4.85 0-8.8-4.28-23.86-11.44-34.86-4.08-6.28-6.16-8.14-8.36-8.14-1.22 0-3.86 1.32-3.86 3.63 0 1.33.78 2.75 4.63 7.6 6.6 8.13 11.33 19.35 13.86 32zm0 0"/></symbol><symbol overflow="visible" id="490bc422d"><path d="M27.72-46.97a8.21 8.21 0 011.55 4.84c0 2.76-1.66 4.61-5.4 4.61-4.18 0-7.7-2.07-12.1-7.14-1.64-1.87-2.86-2.75-4.29-2.75-1.98 0-3.42 1.86-3.42 3.96 0 1.54.67 2.64 3.32 7.26 6.48 11.33 8.8 21.78 10 31.56C17.8-.65 18.59.45 19.36.45c1.33 0 3.08-2.53 3.08-4.85 0-8.14-2.86-20.67-5.94-29.03l.1-.1c2.32 1.74 5.5 3.18 8.8 3.18 5.07 0 8.58-3.95 8.58-9.02 0-4.73-2.85-8.03-4.82-8.03-.68 0-1.11.22-1.44.44zm0 0"/></symbol><symbol overflow="visible" id="490bc422e"><path d="M30.58-46.97a11.7 11.7 0 012.1 6.05c0 1.98-1 3.4-2.65 3.4a4.8 4.8 0 01-3.4-1.2c-.33-3.84-2.32-7.16-4.08-7.16-.66 0-1.2.22-1.53.44a12 12 0 011.3 4.74c0 1.87-.98 3.3-3.07 3.3-2.64 0-4.95-1.54-8.03-5.83-2.2-3.08-3.3-4.18-4.74-4.18a3.77 3.77 0 00-3.73 3.74c0 1.55.66 2.64 3.08 7.26 5.94 11.33 8.14 22 9.36 31.78C15.63-.65 16.5.45 17.16.45c1.32 0 2.96-2.53 2.96-4.85 0-7.46-2.75-21.78-5.39-28.7l.11-.1c1.88 1.87 3.75 2.96 6.07 2.96 2.07 0 3.62-1.1 4.6-2.86a8.55 8.55 0 005.4 2.2c3.3 0 5.93-3.18 5.93-7.48 0-5.5-2.86-9.02-4.72-9.02-.67 0-1.21.22-1.54.44zm0 0"/></symbol><symbol overflow="visible" id="490bc422f"><path d="M34.55-43.02c-1.77-2.3-5.28-4.39-8.25-4.39-4.3 0-7.82 3.2-10.68 8.91h-.1l-2.43-5.83a4.73 4.73 0 00-4.51-3.08c-1.99 0-3.4 1.86-3.4 3.96 0 1.54.65 2.64 3.29 7.26 6.6 11.33 9.01 21.78 10.23 31.56C19.25-.65 19.9.45 20.7.45c1.42 0 3.08-2.53 3.08-4.85 0-6.26-1.33-14.07-3.54-21.65l.11-.13c1.88 1 4.85 1.99 7.6 1.99 4.08 0 8.14-4.96 8.14-6.6 0-1-.55-1.54-1.1-1.65a17.8 17.8 0 01-8.25 1.98c-4.62 0-8.25-1.22-8.25-3.73 0-2.32 3.63-6.61 6.49-6.61 1.98 0 3.3.65 5.17 1.87 1.98-.65 4.06-3.08 4.4-4.08zm0 0"/></symbol><symbol overflow="visible" id="490bc422g"><path d="M17.48-41.58C6.81-30.25 3.62-22.55 3.62-13.86 3.63-5.5 8.59.44 13.87.44c3.08 0 5.39-2.31 7.16-5.61h.21c1.86 3.97 4.5 5.6 7.14 5.6 5.18 0 9.8-5.82 9.8-15.84 0-14.51-11.98-32-18.81-32-3.19 0-5.72 1.2-5.72 2.32 0 1.09 2.31 1.97 3.84 3.51zm1.66 32.45c-.98 1.86-2.53 2.97-4.52 2.97-3.3 0-5.82-2.42-5.82-8.57 0-7.16 2.86-13.43 12.22-24.32C29.05-31.45 33-23.09 33-14.95c0 5.93-2.1 8.68-5.28 8.68-2.53 0-4.06-1-4.95-2.86 1-2.42 1.54-4.51 1.54-5.93 0-2.2-2.64-5.06-4.95-5.06-.88 0-1.42.76-1.55 2.07-.22 2.32.46 6.07 1.33 8.93zm0 0"/></symbol><symbol overflow="visible" id="490bc422h"><path d="M36.4-31.34c-3.73 3.95-7.92 5.82-13.63 5.82-6.38 0-11.11-3.3-11.11-7.8 0-4.96 4.18-8.8 10.12-8.8 1.88 0 3.08.32 4.63 1.2-.11 3.3 1.3 5.83 3.3 5.83 3.07 0 5.5-2.86 5.5-5.61 0-3.85-5.5-7.92-12.77-7.92-9.67 0-16.28 8.03-16.28 15.3 0 6.7 5.71 11.65 14.18 12.63v.35C13.1-14.3 7.16-6.16 7.16-3.63c0 1.2.98 4.07 1.64 4.07.76 0 1.22-1.2 3.3-4.07a66 66 0 0119.7-17.71c6.15-3.52 7.25-5.4 7.25-7.6 0-1.42-1.2-2.4-2.64-2.4zm0 0"/></symbol><symbol overflow="visible" id="490bc422b"><path d="M20.23 12.2c-.32-3.95-.54-8.57-.54-19.47-.22-19.03 2.42-35.07 2.42-42.89 0-1.87-1.1-3.07-3.19-3.07-2.1 0-2.86.98-3.62 4.28-1 4.51-1.66 22-1.66 36.86 0 13.07 1.31 21.1 2.1 22.87.54 1.2.87 1.99 2.3 1.99.77 0 1.54-.22 2.2-.57zm0 0"/></symbol><symbol overflow="visible" id="490bc422i"><path d="M3.83 0v-5.95H6.2v-.82H.45v.82h2.4V0zm0 0"/></symbol><symbol overflow="visible" id="490bc422j"><path d="M5.75-2.23v-.43c0-1.6-.9-2.51-2.42-2.51S.87-4.16.87-2.48c0 1.71.91 2.62 2.5 2.62 1.43 0 2.07-.56 2.29-1.52l-.9-.09c-.18.61-.59.9-1.35.9-.94 0-1.52-.54-1.58-1.66zm-2.4-2.2c.93 0 1.43.5 1.48 1.55H1.84c.08-1.07.6-1.56 1.5-1.56zm0 0"/></symbol><symbol overflow="visible" id="490bc422k"><path d="M1.83 0l1.42-2h.06l1.46 2H5.8L4-2.53l1.78-2.49H4.8L3.42-3.08h-.08l-1.4-1.94H.89l1.78 2.49L.84 0zm0 0"/></symbol><symbol overflow="visible" id="490bc422l"><path d="M5.52-4.25v-.77H3.17v-1.56h-.81l-.14 1.56H.75v.77h1.47v2.4c0 1.3.48 1.94 1.84 1.94C4.6.1 5.14 0 5.55-.14L5.4-.91c-.32.13-.72.2-1.13.2-.8 0-1.1-.37-1.1-1.23v-2.31zm0 0"/></symbol><symbol overflow="visible" id="490bc422m"><path d="M3.33-3.42c.47 0 .8-.27.8-.8 0-.51-.33-.8-.8-.8-.47 0-.8.29-.8.8 0 .53.33.8.8.8zm0 3.5c.47 0 .8-.27.8-.78 0-.53-.33-.82-.8-.82-.47 0-.8.29-.8.82 0 .51.33.78.8.78zm0 0"/></symbol><symbol overflow="visible" id="490bc422v"><path d="M5.95-6.77H1.1V0h.99v-2.92H5.3v-.77H2.08v-2.26h3.87zm0 0"/></symbol><symbol overflow="visible" id="490bc422w"><path d="M2.83.14c.94 0 1.5-.39 1.81-.95h.08l.1.81h.76v-3.38c0-1.23-.69-1.8-2.13-1.8-1.43 0-2.03.65-2.18 1.6l.93.1c.11-.6.44-.93 1.22-.93.85 0 1.22.32 1.22 1.04v.34l-1.81.2C1.6-2.7 1.1-2.17 1.1-1.28c0 .92.64 1.42 1.72 1.42zm.25-.77c-.67 0-1.02-.28-1.02-.74 0-.44.28-.72 1-.82l1.58-.19v.41c0 .8-.6 1.34-1.56 1.34zm0 0"/></symbol><symbol overflow="visible" id="490bc422x"><path d="M2.73.14c.9 0 1.43-.45 1.74-1.08h.06l.13.94h.8v-5.02h-.94v2.7c0 .98-.57 1.62-1.46 1.62-.75 0-1.1-.4-1.1-1.22v-3.1h-.93v3.32c0 1.17.55 1.84 1.7 1.84zm0 0"/></symbol><symbol overflow="visible" id="490bc422y"><path d="M5.08-5.16c-.94 0-1.58.43-1.9 1.3h-.09l-.07-1.16H1.05v.77h1.1v3.48H.96V0h3.96v-.77H3.1v-1.46c0-1.36.6-2.05 1.83-2.05.4 0 .76.08 1.1.17l.15-.87c-.33-.11-.7-.18-1.11-.18zm0 0"/></symbol><symbol overflow="visible" id="490bc422z"><path d="M3.9.14c1.48 0 2.18-.98 2.18-2.64 0-1.67-.7-2.66-2.17-2.66-.91 0-1.49.41-1.79 1h-.06v-2.98h-.95V0h.81l.11-.9h.06c.29.63.82 1.04 1.82 1.04zm-.32-.8c-1.08 0-1.55-.8-1.55-1.84 0-1.06.47-1.86 1.55-1.86 1.1 0 1.51.61 1.51 1.86S4.64-.66 3.58-.66zm0 0"/></symbol><symbol overflow="visible" id="490bc422A"><path d="M3.92-7.14H1.36v.76h1.6v5.61H1.15V0H5.7v-.77H3.92zm0 0"/></symbol><symbol overflow="visible" id="490bc422B"><path d="M3.58-5.81c.42 0 .72-.22.72-.67 0-.44-.3-.68-.72-.68-.44 0-.72.24-.72.68 0 .45.28.67.72.67zm.5.8H1.52v.76h1.6v3.48h-1.8V0h4.46v-.77h-1.7zm0 0"/></symbol><symbol overflow="visible" id="490bc422C"><path d="M2.16 0v-2.67c0-.99.59-1.63 1.46-1.63.74 0 1.07.38 1.07 1.22V0h.95v-3.31c0-1.2-.56-1.85-1.67-1.85-.92 0-1.49.46-1.77 1.08h-.06l-.12-.94H1.2V0zm0 0"/></symbol><symbol overflow="visible" id="490bc422D"><path d="M3.16 2.03c1.67 0 2.4-.86 2.4-2.51v-4.54h-.81l-.13.91h-.06c-.26-.58-.8-1.05-1.73-1.05-1.42 0-2.24 1-2.24 2.52 0 1.6.75 2.56 2.2 2.56.94 0 1.5-.5 1.77-1.03h.05v.72c0 1.17-.42 1.67-1.45 1.67-.93 0-1.3-.34-1.41-.89L.8.5c.12.96.87 1.54 2.36 1.54zM3.06-.8c-.98 0-1.48-.57-1.48-1.82 0-1.13.5-1.75 1.48-1.75 1.06 0 1.58.76 1.58 1.75 0 .95-.56 1.82-1.58 1.82zm0 0"/></symbol><symbol overflow="visible" id="490bc422E"><path d="M.92-6.77V0h.99v-2.27h1.68c1.58 0 2.38-.65 2.38-2.2v-.14c0-1.51-.8-2.16-2.34-2.16zM5-4.47c0 1.05-.42 1.45-1.58 1.45H1.91v-2.96h1.51C4.58-5.98 5-5.66 5-4.61zm0 0"/></symbol><symbol overflow="visible" id="490bc422F"><path d="M3.36.16c1.4 0 2.2-.6 2.2-1.57 0-.89-.54-1.22-1.47-1.39L3-3c-.67-.14-.86-.33-.86-.73 0-.5.4-.74 1.17-.74.83 0 1.19.27 1.27.8l.9-.05c-.12-1-.8-1.47-2.17-1.47-1.34 0-2.1.53-2.1 1.5 0 .81.45 1.22 1.52 1.44l1.04.2c.56.11.87.24.87.72 0 .52-.45.78-1.28.78-.95 0-1.36-.28-1.42-.87l-.9.06C1.07-.36 1.8.16 3.35.16zm0 0"/></symbol><symbol overflow="visible" id="490bc422G"><path d="M1.63 0v-2.9c0-.8.15-1.4.71-1.4.41 0 .55.3.55.88V0h.95v-2.9c0-.8.18-1.4.72-1.4.4 0 .57.3.57.88V0h.95v-3.63c0-.92-.28-1.53-1.11-1.53-.63 0-.95.41-1.1.9h-.06c-.1-.52-.44-.9-1.08-.9-.6 0-.93.41-1.06.9H1.6l-.23-.76H.67V0zm0 0"/></symbol><symbol overflow="visible" id="490bc422H"><path d="M1.45-2.95c0 2.56 1.08 4.37 3.67 4.84l.11-.67C3.28.86 2.43-.75 2.43-2.95s.85-3.82 2.8-4.16l-.1-.69c-2.6.49-3.68 2.3-3.68 4.85zm0 0"/></symbol><symbol overflow="visible" id="490bc422I"><path d="M1.45-7.1c1.96.33 2.8 1.94 2.8 4.15 0 2.2-.84 3.8-2.8 4.17l.11.67c2.58-.47 3.67-2.28 3.67-4.84 0-2.55-1.09-4.36-3.67-4.85zm0 0"/></symbol><symbol overflow="visible" id="490bc422o"><path d="M1.38-1.45l.68-.68L1.2-3l-.67.67zm0 0"/></symbol><symbol overflow="visible" id="490bc422p"><path d="M1.14 0h.66c0-2.92-.1-3.38-.57-5.03L.52-5c.53 1.6.62 1.97.62 5zm0 0"/></symbol><symbol overflow="visible" id="490bc422q"><path d="M1.14 0h.66c0-1.28-.02-2.08-.08-2.72.2.06.42.1.6.1 1 0 1.46-.66 1.46-1.77 0-.2-.01-.42-.05-.64l-.65.06c.03.25.04.45.04.63 0 .65-.21.96-.8.96-.52 0-.68-.09-.84-.75l-.25-.9L.52-5c.53 1.6.62 1.97.62 5zm0 0"/></symbol><symbol overflow="visible" id="490bc422r"><path d="M1.14 0h.66c0-1.28-.02-2.08-.08-2.72.2.06.42.1.6.1.26 0 .48-.07.66-.2.24.12.63.2.82.2.84 0 1.22-.66 1.22-1.77 0-.19-.02-.42-.04-.64l-.6.06.01.47c0 .77-.14 1.13-.6 1.13-.15 0-.27-.02-.37-.05.1-.27.14-.58.14-.97 0-.2-.01-.42-.04-.64l-.66.06c.02.25.05.45.05.63 0 .65-.18.96-.6.96-.51 0-.67-.09-.83-.75l-.25-.9L.52-5c.53 1.6.62 1.97.62 5zm0 0"/></symbol><symbol overflow="visible" id="490bc422s"><path d="M1.14 0h.66c0-.92-.02-1.6-.03-2.16.21.04.45.05.71.05.66 0 1.43-.08 2.29-.25L4.84-3c-.53.13-1.32.19-1.56.2-.08 0-.08 0-.12-.06-.1-.14-.32-.48-.32-.86 0-.45.29-.64.7-.64.21 0 .48.06.74.16l.17-.64a2.7 2.7 0 00-.93-.2c-.77 0-1.32.46-1.32 1.35 0 .3.08.64.24.9-.24 0-.47 0-.66-.04-.06 0-.06 0-.08-.1a11.9 11.9 0 00-.47-2.1L.52-5c.53 1.6.62 1.97.62 5zm0 0"/></symbol><symbol overflow="visible" id="490bc422t"><path d="M1.72 0c.25 0 .58-.03.81-.22.3.19.58.22.81.22.52 0 1.18-.27 1.18-1.4 0-1.16-.85-2.23-2.57-3.68l-.47.52.36.33C1-3.2.52-2.43.52-1.43.52-.35 1.08 0 1.72 0zm0-.75c-.36 0-.56-.19-.56-.69 0-.72.3-1.36 1.2-2.37 1.22 1.04 1.5 1.87 1.5 2.42 0 .45-.11.64-.5.64-.5 0-.5-.1-.5-.5v-.36H2.2v.36c0 .4 0 .5-.48.5zm0 0"/></symbol><symbol overflow="visible" id="490bc422u"><path d="M.52 0h.87a5.44 5.44 0 012.95-2.6l.08-.8-1.19.52c-.28.15-.48.16-.71.04a.88.88 0 01-.47-.75c0-.5.34-.74.9-.74a3 3 0 01.77.11l.08-.69a3.1 3.1 0 00-.9-.14c-.88 0-1.54.49-1.54 1.49 0 .58.33 1.12.81 1.4C1.72-1.75 1.13-1 .52 0zm0 0"/></symbol></defs><use xlink:href="#490bc422a" x="52.72" y="141" fill="#fff"/><use xlink:href="#490bc422b" x="94.52" y="141" fill="#515151"/><use xlink:href="#490bc422c" x="128.18" y="141" fill="#fff"/><use xlink:href="#490bc422b" x="169.98" y="141" fill="#515151"/><use xlink:href="#490bc422d" x="203.64" y="141" fill="#fff"/><use xlink:href="#490bc422b" x="245.44" y="141" fill="#515151"/><use xlink:href="#490bc422e" x="279.1" y="141" fill="#fff"/><use xlink:href="#490bc422b" x="320.9" y="141" fill="#515151"/><use xlink:href="#490bc422f" x="354.56" y="141" fill="#fff"/><use xlink:href="#490bc422b" x="396.36" y="141" fill="#515151"/><use xlink:href="#490bc422g" x="430.02" y="141" fill="#fff"/><use xlink:href="#490bc422b" x="471.82" y="141" fill="#515151"/><use xlink:href="#490bc422h" x="505.48" y="141" fill="#fff"/><g fill="#fff"><use xlink:href="#490bc422i" x="265.3222" y="252"/><use xlink:href="#490bc422j" x="271.9892" y="252"/><use xlink:href="#490bc422k" x="278.6562" y="252"/><use xlink:href="#490bc422l" x="285.3232" y="252"/><use xlink:href="#490bc422m" x="291.9902" y="252"/><use xlink:href="#490bc422n" x="298.6572" y="252"/></g><use xlink:href="#490bc422o" x="305.3222" y="252" fill="#fff"/><g fill="#fff"><use xlink:href="#490bc422p" x="307.9" y="252"/><use xlink:href="#490bc422q" x="310.219" y="252"/><use xlink:href="#490bc422r" x="314.518" y="252"/><use xlink:href="#490bc422s" x="320.057" y="252"/></g><use xlink:href="#490bc422t" x="325.126" y="252" fill="#fff"/><use xlink:href="#490bc422u" x="329.745" y="252" fill="#fff"/><g fill="#fff"><use xlink:href="#490bc422v" x="143.3333" y="266"/><use xlink:href="#490bc422j" x="150.0003" y="266"/><use xlink:href="#490bc422w" x="156.6673" y="266"/><use xlink:href="#490bc422l" x="163.3343" y="266"/><use xlink:href="#490bc422x" x="170.0013" y="266"/><use xlink:href="#490bc422y" x="176.6683" y="266"/><use xlink:href="#490bc422j" x="183.3353" y="266"/><use xlink:href="#490bc422m" x="190.0023" y="266"/><use xlink:href="#490bc422n" x="196.6693" y="266"/><use xlink:href="#490bc422i" x="203.3363" y="266"/><use xlink:href="#490bc422w" x="210.0033" y="266"/><use xlink:href="#490bc422z" x="216.6703" y="266"/><use xlink:href="#490bc422x" x="223.3373" y="266"/><use xlink:href="#490bc422A" x="230.0043" y="266"/><use xlink:href="#490bc422w" x="236.6713" y="266"/><use xlink:href="#490bc422y" x="243.3383" y="266"/><use xlink:href="#490bc422n" x="250.0053" y="266"/><use xlink:href="#490bc422A" x="256.6723" y="266"/><use xlink:href="#490bc422B" x="263.3393" y="266"/><use xlink:href="#490bc422C" x="270.0063" y="266"/><use xlink:href="#490bc422B" x="276.6733" y="266"/><use xlink:href="#490bc422C" x="283.3403" y="266"/><use xlink:href="#490bc422D" x="290.0073" y="266"/><use xlink:href="#490bc422n" x="296.6743" y="266"/><use xlink:href="#490bc422E" x="303.3413" y="266"/><use xlink:href="#490bc422j" x="310.0083" y="266"/><use xlink:href="#490bc422y" x="316.6753" y="266"/><use xlink:href="#490bc422F" x="323.3423" y="266"/><use xlink:href="#490bc422B" x="330.0093" y="266"/><use xlink:href="#490bc422w" x="336.6763" y="266"/><use xlink:href="#490bc422C" x="343.3433" y="266"/><use xlink:href="#490bc422n" x="350.0103" y="266"/><use xlink:href="#490bc422C" x="356.6773" y="266"/><use xlink:href="#490bc422x" x="363.3443" y="266"/><use xlink:href="#490bc422G" x="370.0113" y="266"/><use xlink:href="#490bc422j" x="376.6783" y="266"/><use xlink:href="#490bc422y" x="383.3453" y="266"/><use xlink:href="#490bc422w" x="390.0123" y="266"/><use xlink:href="#490bc422A" x="396.6793" y="266"/><use xlink:href="#490bc422F" x="403.3463" y="266"/><use xlink:href="#490bc422n" x="410.0133" y="266"/><use xlink:href="#490bc422H" x="416.6803" y="266"/><use xlink:href="#490bc422l" x="423.3473" y="266"/><use xlink:href="#490bc422C" x="430.0143" y="266"/><use xlink:href="#490bc422x" x="436.6813" y="266"/><use xlink:href="#490bc422G" x="443.3483" y="266"/><use xlink:href="#490bc422I" x="450.0153" y="266"/></g></svg>