<?xml version='1.0' encoding='UTF-8'?>
<svg xmlns="http://www.w3.org/2000/svg" xmlns:xlink="http://www.w3.org/1999/xlink" width="600px" height="300px" viewBox="0 0 600 300" x="0px" y="0px" enable-background="new 0 0 600 300"><defs><symbol overflow="visible" id="6c5f36cda"><path d="M2.42-41.03c.99-.66 2.31-1.31 3.19-1.31 1.76 0 2.97.98 2.97 4.5 0 3.07-.99 8.57-.99 11.65 0 7.49 4.85 11.78 10.79 11.78 4.06 0 7.46-2.86 9.45-6.5h.1C27.4-6.8 23.67-1.2 15.64-1.2c-2.54 0-5.5-.77-7.16-1.54-.44.33-.77.66-.77 1.1 0 2.74 3.74 5.17 10.11 5.17 9.69 0 15.08-6.49 15.63-23.54.1-3.18.76-9.14 1.98-14.3 2.31-6.27 3.52-8.37 3.52-10.34 0-1.98-1.99-3.4-3.85-3.4-3.64 0-5.72 4.39-7.15 21-2.2 4.62-5.17 7.26-8.58 7.26-3.63 0-5.17-1.98-5.17-6.93 0-2.97 1-8.25 1-12.32 0-5.83-2.53-8.9-6.83-8.9-3.3 0-7.27 2.86-7.27 4.93 0 .79.57 1.55 1.33 1.99zm0 0"/></symbol><symbol overflow="visible" id="6c5f36cde"><path d="M1.44-28.38c1.2-.43 2.08-.78 3.62-.78 1.88 0 2.86 1 2.86 4.74 0 3.97-.87 8.14-.87 12.65 0 7.82 4.06 12.2 9.34 12.2 4.4 0 8.14-2.74 10.67-7.8h.11c-.22 17.71-4.51 23-11.44 23-3.64 0-6.5-1.22-7.92-2.54-.76.33-1.54.99-1.54 2.2 0 2.87 4.95 5.84 10.23 5.84 9.02 0 15.4-6.5 16.17-20.7.55-10 .11-16.16 1.1-22.1 1.21-4.85 1.76-7.6 1.76-9.78 0-2.32-2.1-3.32-3.84-3.32-2.53 0-3.75 1.44-4.19 6.07-.33 3.3-.33 8.36-.55 14.4-2.2 5.28-5.72 8.7-9.14 8.7-2.62 0-4.17-2.1-4.17-6.5 0-5.06.88-12 .88-15.07 0-5.06-2.43-7.6-6.05-7.6-4.06 0-7.92 2.97-7.92 4.63 0 .55.32 1.33.89 1.77zm6.81-16.17c0 2.32 1.55 3.96 3.73 3.96 2.64 0 4.2-2.32 4.2-4.61a3.8 3.8 0 00-3.87-3.97c-2.75 0-4.06 2.31-4.06 4.62zm19.9 0c0 2.32 1.55 3.96 3.76 3.96 2.64 0 4.17-2.32 4.17-4.61 0-2.32-1.64-3.97-3.85-3.97-2.75 0-4.07 2.31-4.07 4.62zm0 0"/></symbol><symbol overflow="visible" id="6c5f36cdb"><path d="M6.05-12.44C3.4-11.54 2.2-9.8 2.2-7.59 2.2-3.3 7.05.55 14.3.55c7.6 0 13.2-5.28 13.2-11.77 0-4.51-2.31-7.15-9.45-9.69-5.96-2.07-7.6-3.3-7.6-5.28 0-2.51 2.53-4.17 5.5-4.17s5.94 1.88 6.6 4.63c2.2-.46 3.4-2.1 3.4-3.64 0-3.3-3.07-5.94-8.25-5.94-6.92 0-12.53 5.39-12.53 11.33 0 4.73 2.86 7.7 9.24 9.68 6.5 2.1 8.14 3.3 8.14 5.61 0 2.53-2.1 4.28-6.05 4.28-5.06 0-9.23-3.18-10.45-8.03zm0 0"/></symbol><symbol overflow="visible" id="6c5f36cdc"><path d="M1.2-28.38c.9-.43 1.88-.78 2.64-.78 1.99 0 3.1 1.66 4.52 12.22C10.13-3.62 12.3.33 17.48.33c2.54 0 6.4-2.31 9.58-7.27 4.85-7.58 7.6-17.04 7.6-23.86 0-1.87-3.43-4.84-7.49-4.84h-.76c.21 1.1.65 3.73.65 7.16 0 10.78-4.84 22.76-8.03 22.76-1.98 0-2.64-2.1-4.08-15.51-1.3-11.77-4.17-13.54-7.57-13.54-3.54 0-7.05 2.97-7.05 4.63 0 .55.33 1.33.87 1.77zm0 0"/></symbol><symbol overflow="visible" id="6c5f36cdd"><path d="M26.4-26.06c1.87-1 2.76-2.64 2.76-3.86 0-2.86-2.2-5.17-5.07-5.17-3.96 0-7.8 3.75-10.67 12.32h-.22c.66-9.03-1.65-12-5.93-12-3.64 0-6.72 2.97-6.72 4.63 0 .55.32 1.33.89 1.77 1.2-.44 2.62-.79 3.84-.79 1.77 0 2.53 2.32 2.53 7.7 0 5.94-1 11.34-1 14.3C6.81-2.3 8.7.44 10.9.44c1.88 0 4.17-2.64 4.17-4.28 0-3.1-1.2-5.96-1.2-8.82 0-7.36 4.62-14.95 8.69-14.95 1.43 0 2.75.55 3.86 1.55zm0 0"/></symbol><symbol overflow="visible" id="6c5f36cdf"><path d="M3.83 0v-5.95H6.2v-.82H.45v.82h2.4V0zm0 0"/></symbol><symbol overflow="visible" id="6c5f36cdg"><path d="M5.75-2.23v-.43c0-1.6-.9-2.51-2.42-2.51S.87-4.16.87-2.48c0 1.71.91 2.62 2.5 2.62 1.43 0 2.07-.56 2.29-1.52l-.9-.09c-.18.61-.59.9-1.35.9-.94 0-1.52-.54-1.58-1.66zm-2.4-2.2c.93 0 1.43.5 1.48 1.55H1.84c.08-1.07.6-1.56 1.5-1.56zm0 0"/></symbol><symbol overflow="visible" id="6c5f36cdh"><path d="M1.83 0l1.42-2h.06l1.46 2H5.8L4-2.53l1.78-2.49H4.8L3.42-3.08h-.08l-1.4-1.94H.89l1.78 2.49L.84 0zm0 0"/></symbol><symbol overflow="visible" id="6c5f36cdi"><path d="M5.52-4.25v-.77H3.17v-1.56h-.81l-.14 1.56H.75v.77h1.47v2.4c0 1.3.48 1.94 1.84 1.94C4.6.1 5.14 0 5.55-.14L5.4-.91c-.32.13-.72.2-1.13.2-.8 0-1.1-.37-1.1-1.23v-2.31zm0 0"/></symbol><symbol overflow="visible" id="6c5f36cdj"><path d="M3.33-3.42c.47 0 .8-.27.8-.8 0-.51-.33-.8-.8-.8-.47 0-.8.29-.8.8 0 .53.33.8.8.8zm0 3.5c.47 0 .8-.27.8-.78 0-.53-.33-.82-.8-.82-.47 0-.8.29-.8.82 0 .51.33.78.8.78zm0 0"/></symbol><symbol overflow="visible" id="6c5f36cdl"><path d="M3.83-5.97h1.73v-.8H1.1v.8h1.75v5.19H1.1V0h4.47v-.78H3.83zm0 0"/></symbol><symbol overflow="visible" id="6c5f36cdm"><path d="M5.56-6.77h-3.8v.83h2.82v3.44c0 1.23-.28 1.81-1.36 1.81-.94 0-1.24-.48-1.33-1.3l-.03-.15-.92.1.01.18c.13 1.25.78 2 2.28 2 1.7 0 2.33-.86 2.33-2.64zm0 0"/></symbol><symbol overflow="visible" id="6c5f36cdn"><path d="M3.36.16c1.4 0 2.2-.6 2.2-1.57 0-.89-.54-1.22-1.47-1.39L3-3c-.67-.14-.86-.33-.86-.73 0-.5.4-.74 1.17-.74.83 0 1.19.27 1.27.8l.9-.05c-.12-1-.8-1.47-2.17-1.47-1.34 0-2.1.53-2.1 1.5 0 .81.45 1.22 1.52 1.44l1.04.2c.56.11.87.24.87.72 0 .52-.45.78-1.28.78-.95 0-1.36-.28-1.42-.87l-.9.06C1.07-.36 1.8.16 3.35.16zm0 0"/></symbol><symbol overflow="visible" id="6c5f36cdo"><path d="M3.9 0l2-5.02h-.96L3.4-.94h-.07L1.8-5.02H.77L2.78 0zm0 0"/></symbol><symbol overflow="visible" id="6c5f36cdp"><path d="M5.08-5.16c-.94 0-1.58.43-1.9 1.3h-.09l-.07-1.16H1.05v.77h1.1v3.48H.96V0h3.96v-.77H3.1v-1.46c0-1.36.6-2.05 1.83-2.05.4 0 .76.08 1.1.17l.15-.87c-.33-.11-.7-.18-1.11-.18zm0 0"/></symbol><symbol overflow="visible" id="6c5f36cdq"><path d="M3.58-5.81c.42 0 .72-.22.72-.67 0-.44-.3-.68-.72-.68-.44 0-.72.24-.72.68 0 .45.28.67.72.67zm.5.8H1.52v.76h1.6v3.48h-1.8V0h4.46v-.77h-1.7zm0 0"/></symbol><symbol overflow="visible" id="6c5f36cdr"><path d="M4.14-7.16c-.44 0-.72.24-.72.68 0 .45.28.67.72.67.42 0 .72-.22.72-.67 0-.44-.3-.68-.72-.68zm-2.8 2.14v.77h2.33v4.16c0 .95-.36 1.28-1.28 1.28-.4 0-.89-.08-1.23-.22l-.22.78c.42.17 1.1.28 1.6.28 1.55 0 2.08-.67 2.08-2.1v-4.95zm0 0"/></symbol><symbol overflow="visible" id="6c5f36cds"><path d="M5.95-6.77H1.1V0h.99v-2.92H5.3v-.77H2.08v-2.26h3.87zm0 0"/></symbol><symbol overflow="visible" id="6c5f36cdt"><path d="M2.83.14c.94 0 1.5-.39 1.81-.95h.08l.1.81h.76v-3.38c0-1.23-.69-1.8-2.13-1.8-1.43 0-2.03.65-2.18 1.6l.93.1c.11-.6.44-.93 1.22-.93.85 0 1.22.32 1.22 1.04v.34l-1.81.2C1.6-2.7 1.1-2.17 1.1-1.28c0 .92.64 1.42 1.72 1.42zm.25-.77c-.67 0-1.02-.28-1.02-.74 0-.44.28-.72 1-.82l1.58-.19v.41c0 .8-.6 1.34-1.56 1.34zm0 0"/></symbol><symbol overflow="visible" id="6c5f36cdu"><path d="M2.73.14c.9 0 1.43-.45 1.74-1.08h.06l.13.94h.8v-5.02h-.94v2.7c0 .98-.57 1.62-1.46 1.62-.75 0-1.1-.4-1.1-1.22v-3.1h-.93v3.32c0 1.17.55 1.84 1.7 1.84zm0 0"/></symbol><symbol overflow="visible" id="6c5f36cdv"><path d="M.92-6.77V0h2.11c2.03 0 3.03-1.03 3.03-3.36 0-2.39-1.01-3.4-2.93-3.4zM1.91-.8v-5.17h1.18c1.29 0 1.96.63 1.96 2.61 0 1.94-.67 2.56-1.96 2.56zm0 0"/></symbol><symbol overflow="visible" id="6c5f36cdw"><path d="M3.34.14c1.43 0 2.13-.66 2.25-1.78l-.89-.1c-.1.7-.5 1.08-1.34 1.08-1.03 0-1.52-.64-1.52-1.84 0-1.23.47-1.86 1.52-1.86.84 0 1.23.36 1.34 1.08l.9-.1c-.13-1.09-.82-1.78-2.26-1.78-1.56 0-2.46.97-2.46 2.66 0 1.66.9 2.64 2.46 2.64zm0 0"/></symbol><symbol overflow="visible" id="6c5f36cdx"><path d="M2.16 0v-2.69c0-.98.6-1.6 1.46-1.6.74 0 1.07.4 1.07 1.2V0h.95v-3.31c0-1.17-.56-1.85-1.67-1.85-.9 0-1.44.46-1.75 1.08h-.06v-3.06H1.2V0zm0 0"/></symbol><symbol overflow="visible" id="6c5f36cdy"><path d="M1.45-2.95c0 2.56 1.08 4.37 3.67 4.84l.11-.67C3.28.86 2.43-.75 2.43-2.95s.85-3.82 2.8-4.16l-.1-.69c-2.6.49-3.68 2.3-3.68 4.85zm0 0"/></symbol><symbol overflow="visible" id="6c5f36cdz"><path d="M3.92-7.14H1.36v.76h1.6v5.61H1.15V0H5.7v-.77H3.92zm0 0"/></symbol><symbol overflow="visible" id="6c5f36cdA"><path d="M2.16 0v-2.67c0-.99.59-1.63 1.46-1.63.74 0 1.07.38 1.07 1.22V0h.95v-3.31c0-1.2-.56-1.85-1.67-1.85-.92 0-1.49.46-1.77 1.08h-.06l-.12-.94H1.2V0zm0 0"/></symbol><symbol overflow="visible" id="6c5f36cdB"><path d="M3.16 2.03c1.67 0 2.4-.86 2.4-2.51v-4.54h-.81l-.13.91h-.06c-.26-.58-.8-1.05-1.73-1.05-1.42 0-2.24 1-2.24 2.52 0 1.6.75 2.56 2.2 2.56.94 0 1.5-.5 1.77-1.03h.05v.72c0 1.17-.42 1.67-1.45 1.67-.93 0-1.3-.34-1.41-.89L.8.5c.12.96.87 1.54 2.36 1.54zM3.06-.8c-.98 0-1.48-.57-1.48-1.82 0-1.13.5-1.75 1.48-1.75 1.06 0 1.58.76 1.58 1.75 0 .95-.56 1.82-1.58 1.82zm0 0"/></symbol><symbol overflow="visible" id="6c5f36cdC"><path d="M1.45-7.1c1.96.33 2.8 1.94 2.8 4.15 0 2.2-.84 3.8-2.8 4.17l.11.67c2.58-.47 3.67-2.28 3.67-4.84 0-2.55-1.09-4.36-3.67-4.85zm0 0"/></symbol></defs><use xlink:href="#6c5f36cda" x="213.76" y="141" fill="#fff"/><use xlink:href="#6c5f36cdb" x="251.6" y="141" fill="#515151"/><g fill="#515151"><use xlink:href="#6c5f36cdc" x="279.98" y="141"/><use xlink:href="#6c5f36cdd" x="317.16" y="141"/></g><use xlink:href="#6c5f36cde" x="346.86" y="141" fill="#fff"/><g fill="#fff"><use xlink:href="#6c5f36cdf" x="256.6667" y="252"/><use xlink:href="#6c5f36cdg" x="263.3337" y="252"/><use xlink:href="#6c5f36cdh" x="270.0007" y="252"/><use xlink:href="#6c5f36cdi" x="276.6677" y="252"/><use xlink:href="#6c5f36cdj" x="283.3347" y="252"/><use xlink:href="#6c5f36cdk" x="290.0017" y="252"/><use xlink:href="#6c5f36cdl" x="296.6687" y="252"/><use xlink:href="#6c5f36cdm" x="303.3357" y="252"/><use xlink:href="#6c5f36cdn" x="310.0027" y="252"/><use xlink:href="#6c5f36cdo" x="316.6697" y="252"/><use xlink:href="#6c5f36cdp" x="323.3367" y="252"/><use xlink:href="#6c5f36cdq" x="330.0037" y="252"/><use xlink:href="#6c5f36cdr" x="336.6707" y="252"/></g><g fill="#fff"><use xlink:href="#6c5f36cds" x="203.3333" y="266"/><use xlink:href="#6c5f36cdg" x="210.0003" y="266"/><use xlink:href="#6c5f36cdt" x="216.6673" y="266"/><use xlink:href="#6c5f36cdi" x="223.3343" y="266"/><use xlink:href="#6c5f36cdu" x="230.0013" y="266"/><use xlink:href="#6c5f36cdp" x="236.6683" y="266"/><use xlink:href="#6c5f36cdg" x="243.3353" y="266"/><use xlink:href="#6c5f36cdj" x="250.0023" y="266"/><use xlink:href="#6c5f36cdk" x="256.6693" y="266"/><use xlink:href="#6c5f36cdv" x="263.3363" y="266"/><use xlink:href="#6c5f36cdu" x="270.0033" y="266"/><use xlink:href="#6c5f36cdi" x="276.6703" y="266"/><use xlink:href="#6c5f36cdw" x="283.3373" y="266"/><use xlink:href="#6c5f36cdx" x="290.0043" y="266"/><use xlink:href="#6c5f36cdk" x="296.6713" y="266"/><use xlink:href="#6c5f36cdy" x="303.3383" y="266"/><use xlink:href="#6c5f36cdn" x="310.0053" y="266"/><use xlink:href="#6c5f36cdg" x="316.6723" y="266"/><use xlink:href="#6c5f36cdi" x="323.3393" y="266"/><use xlink:href="#6c5f36cdk" x="330.0063" y="266"/><use xlink:href="#6c5f36cdz" x="336.6733" y="266"/><use xlink:href="#6c5f36cdt" x="343.3403" y="266"/><use xlink:href="#6c5f36cdA" x="350.0073" y="266"/><use xlink:href="#6c5f36cdB" x="356.6743" y="266"/><use xlink:href="#6c5f36cdu" x="363.3413" y="266"/><use xlink:href="#6c5f36cdt" x="370.0083" y="266"/><use xlink:href="#6c5f36cdB" x="376.6753" y="266"/><use xlink:href="#6c5f36cdg" x="383.3423" y="266"/><use xlink:href="#6c5f36cdC" x="390.0093" y="266"/></g></svg>