<?xml version='1.0' encoding='UTF-8'?>
<svg xmlns="http://www.w3.org/2000/svg" xmlns:xlink="http://www.w3.org/1999/xlink" width="600px" height="300px" viewBox="0 0 600 300" x="0px" y="0px" enable-background="new 0 0 600 300"><defs><symbol overflow="visible" id="34a4fb75a"><path d="M10.34-34.44a45.33 45.33 0 0112.43 10.78c-3.96 6.4-5.5 11.79-5.5 16.72 0 6.5 3.75 10.46 8.25 10.46 4.84 0 8.57-4.29 8.57-11.11 0-4.85-2.3-10.57-5.6-16.07 3.85-4.82 9.46-10.1 17.39-16.28 5.93-4.6 6.59-5.6 6.59-6.92 0-1.2-1.42-3.52-3.3-3.52-1.44 0-4.4 1.32-13.2 10.44-4.4 4.52-7.7 8.49-10.34 12.11C19.46-35.86 10.78-42.9 4.95-42.9c-3.3 0-5.06 2.64-5.06 5.28 0 4.08 2.97 6.72 5.94 6.72 2.31 0 3.73-1.43 4.51-3.53zm15.29 14.75c2.53 3.96 3.96 7.82 3.96 11.11 0 2.31-1.43 4.4-3.96 4.4-2.43 0-3.85-1.76-3.85-4.4 0-3.3 1.2-6.94 3.84-11.1zm0 0"/></symbol><symbol overflow="visible" id="34a4fb75b"><path d="M3.83 0v-5.95H6.2v-.82H.45v.82h2.4V0zm0 0"/></symbol><symbol overflow="visible" id="34a4fb75c"><path d="M5.75-2.23v-.43c0-1.6-.9-2.51-2.42-2.51S.87-4.16.87-2.48c0 1.71.91 2.62 2.5 2.62 1.43 0 2.07-.56 2.29-1.52l-.9-.09c-.18.61-.59.9-1.35.9-.94 0-1.52-.54-1.58-1.66zm-2.4-2.2c.93 0 1.43.5 1.48 1.55H1.84c.08-1.07.6-1.56 1.5-1.56zm0 0"/></symbol><symbol overflow="visible" id="34a4fb75d"><path d="M1.83 0l1.42-2h.06l1.46 2H5.8L4-2.53l1.78-2.49H4.8L3.42-3.08h-.08l-1.4-1.94H.89l1.78 2.49L.84 0zm0 0"/></symbol><symbol overflow="visible" id="34a4fb75e"><path d="M5.52-4.25v-.77H3.17v-1.56h-.81l-.14 1.56H.75v.77h1.47v2.4c0 1.3.48 1.94 1.84 1.94C4.6.1 5.14 0 5.55-.14L5.4-.91c-.32.13-.72.2-1.13.2-.8 0-1.1-.37-1.1-1.23v-2.31zm0 0"/></symbol><symbol overflow="visible" id="34a4fb75f"><path d="M3.33-3.42c.47 0 .8-.27.8-.8 0-.51-.33-.8-.8-.8-.47 0-.8.29-.8.8 0 .53.33.8.8.8zm0 3.5c.47 0 .8-.27.8-.78 0-.53-.33-.82-.8-.82-.47 0-.8.29-.8.82 0 .51.33.78.8.78zm0 0"/></symbol><symbol overflow="visible" id="34a4fb75i"><path d="M5.95-6.77H1.1V0h.99v-2.92H5.3v-.77H2.08v-2.26h3.87zm0 0"/></symbol><symbol overflow="visible" id="34a4fb75j"><path d="M2.83.14c.94 0 1.5-.39 1.81-.95h.08l.1.81h.76v-3.38c0-1.23-.69-1.8-2.13-1.8-1.43 0-2.03.65-2.18 1.6l.93.1c.11-.6.44-.93 1.22-.93.85 0 1.22.32 1.22 1.04v.34l-1.81.2C1.6-2.7 1.1-2.17 1.1-1.28c0 .92.64 1.42 1.72 1.42zm.25-.77c-.67 0-1.02-.28-1.02-.74 0-.44.28-.72 1-.82l1.58-.19v.41c0 .8-.6 1.34-1.56 1.34zm0 0"/></symbol><symbol overflow="visible" id="34a4fb75k"><path d="M2.73.14c.9 0 1.43-.45 1.74-1.08h.06l.13.94h.8v-5.02h-.94v2.7c0 .98-.57 1.62-1.46 1.62-.75 0-1.1-.4-1.1-1.22v-3.1h-.93v3.32c0 1.17.55 1.84 1.7 1.84zm0 0"/></symbol><symbol overflow="visible" id="34a4fb75l"><path d="M5.08-5.16c-.94 0-1.58.43-1.9 1.3h-.09l-.07-1.16H1.05v.77h1.1v3.48H.96V0h3.96v-.77H3.1v-1.46c0-1.36.6-2.05 1.83-2.05.4 0 .76.08 1.1.17l.15-.87c-.33-.11-.7-.18-1.11-.18zm0 0"/></symbol><symbol overflow="visible" id="34a4fb75m"><path d="M6.17 0L3.98-6.77h-1.3L.5 0h.97l.44-1.47h2.78L5.16 0zM3.28-5.94h.08l1.1 3.74H2.15zm0 0"/></symbol><symbol overflow="visible" id="34a4fb75n"><path d="M3.92-7.14H1.36v.76h1.6v5.61H1.15V0H5.7v-.77H3.92zm0 0"/></symbol><symbol overflow="visible" id="34a4fb75o"><path d="M2.16 0v-2.67c0-.99.59-1.63 1.46-1.63.74 0 1.07.38 1.07 1.22V0h.95v-3.31c0-1.2-.56-1.85-1.67-1.85-.92 0-1.49.46-1.77 1.08h-.06l-.12-.94H1.2V0zm0 0"/></symbol><symbol overflow="visible" id="34a4fb75p"><path d="M3.58-5.81c.42 0 .72-.22.72-.67 0-.44-.3-.68-.72-.68-.44 0-.72.24-.72.68 0 .45.28.67.72.67zm.5.8H1.52v.76h1.6v3.48h-1.8V0h4.46v-.77h-1.7zm0 0"/></symbol><symbol overflow="visible" id="34a4fb75q"><path d="M3.9 0l2-5.02h-.96L3.4-.94h-.07L1.8-5.02H.77L2.78 0zm0 0"/></symbol><symbol overflow="visible" id="34a4fb75r"><path d="M4.63-6.5c.45 0 .98.08 1.39.2l.2-.72a5.3 5.3 0 00-1.64-.26c-1.52 0-2.16.56-2.16 1.87v.4H.9v.76h1.53V0h.94v-4.25h2.53v-.77H3.36v-.3c0-.84.33-1.18 1.27-1.18zm0 0"/></symbol><symbol overflow="visible" id="34a4fb75s"><path d="M3.33.14c1.62 0 2.5-.95 2.5-2.66 0-1.68-.88-2.64-2.5-2.64-1.63 0-2.5.96-2.5 2.64 0 1.7.87 2.66 2.5 2.66zm0-.77c-1.06 0-1.52-.6-1.52-1.89 0-1.28.46-1.87 1.52-1.87 1.08 0 1.53.6 1.53 1.87 0 1.29-.45 1.9-1.53 1.9zm0 0"/></symbol><symbol overflow="visible" id="34a4fb75t"><path d="M1.63 0v-2.9c0-.8.15-1.4.71-1.4.41 0 .55.3.55.88V0h.95v-2.9c0-.8.18-1.4.72-1.4.4 0 .57.3.57.88V0h.95v-3.63c0-.92-.28-1.53-1.11-1.53-.63 0-.95.41-1.1.9h-.06c-.1-.52-.44-.9-1.08-.9-.6 0-.93.41-1.06.9H1.6l-.23-.76H.67V0zm0 0"/></symbol><symbol overflow="visible" id="34a4fb75u"><path d="M3.38-5.9c.12-.5.42-1.04.67-1.41l-.63-.22a4.28 4.28 0 00-1.01 2.39c0 .66.3 1 .9 1 .6 0 .9-.33.9-.9 0-.57-.32-.83-.83-.85zm0 0"/></symbol><symbol overflow="visible" id="34a4fb75v"><path d="M3.3-7.53c-.55 0-.85.3-.85.84 0 .55.36.8.83.8h.03a5.1 5.1 0 01-.69 1.47l.52.23a4.29 4.29 0 001.02-2.4c0-.63-.33-.94-.86-.94zm0 0"/></symbol><symbol overflow="visible" id="34a4fb75w"><path d="M3.16 2.03c1.67 0 2.4-.86 2.4-2.51v-4.54h-.81l-.13.91h-.06c-.26-.58-.8-1.05-1.73-1.05-1.42 0-2.24 1-2.24 2.52 0 1.6.75 2.56 2.2 2.56.94 0 1.5-.5 1.77-1.03h.05v.72c0 1.17-.42 1.67-1.45 1.67-.93 0-1.3-.34-1.41-.89L.8.5c.12.96.87 1.54 2.36 1.54zM3.06-.8c-.98 0-1.48-.57-1.48-1.82 0-1.13.5-1.75 1.48-1.75 1.06 0 1.58.76 1.58 1.75 0 .95-.56 1.82-1.58 1.82zm0 0"/></symbol><symbol overflow="visible" id="34a4fb75x"><path d="M1.45-2.95c0 2.56 1.08 4.37 3.67 4.84l.11-.67C3.28.86 2.43-.75 2.43-2.95s.85-3.82 2.8-4.16l-.1-.69c-2.6.49-3.68 2.3-3.68 4.85zm0 0"/></symbol><symbol overflow="visible" id="34a4fb75y"><path d="M3.36.16c1.4 0 2.2-.6 2.2-1.57 0-.89-.54-1.22-1.47-1.39L3-3c-.67-.14-.86-.33-.86-.73 0-.5.4-.74 1.17-.74.83 0 1.19.27 1.27.8l.9-.05c-.12-1-.8-1.47-2.17-1.47-1.34 0-2.1.53-2.1 1.5 0 .81.45 1.22 1.52 1.44l1.04.2c.56.11.87.24.87.72 0 .52-.45.78-1.28.78-.95 0-1.36-.28-1.42-.87l-.9.06C1.07-.36 1.8.16 3.35.16zm0 0"/></symbol><symbol overflow="visible" id="34a4fb75z"><path d="M3.33.14c1.65 0 2.6-1.1 2.6-3.52S4.99-6.9 3.34-6.9C1.67-6.9.72-5.8.72-3.37c0 2.4.95 3.51 2.6 3.51zm0-.84c-1.13 0-1.6-.85-1.6-2.67 0-1.86.47-2.7 1.6-2.7 1.12 0 1.6.84 1.6 2.7 0 1.82-.48 2.67-1.6 2.67zM3.3-2.64c.38 0 .56-.28.56-.72 0-.44-.18-.7-.56-.7-.39 0-.56.26-.56.7 0 .44.17.72.56.72zm0 0"/></symbol><symbol overflow="visible" id="34a4fb75A"><path d="M3.42.14c1.58 0 2.49-.86 2.49-2.3 0-1.42-.86-2.17-2.22-2.17-1.03 0-1.58.5-1.9 1.02h-.04c.03-1.63.4-2.77 1.73-2.77.91 0 1.24.44 1.36.96l.97-.11c-.23-.96-.86-1.68-2.33-1.68C1.84-6.9.86-5.86.86-3.1.86-.9 1.78.14 3.42.14zm.02-.78c-.9 0-1.47-.55-1.47-1.47 0-.9.7-1.47 1.53-1.47.92 0 1.47.52 1.47 1.47 0 .97-.6 1.47-1.53 1.47zm0 0"/></symbol><symbol overflow="visible" id="34a4fb75B"><path d="M1.45-7.1c1.96.33 2.8 1.94 2.8 4.15 0 2.2-.84 3.8-2.8 4.17l.11.67c2.58-.47 3.67-2.28 3.67-4.84 0-2.55-1.09-4.36-3.67-4.85zm0 0"/></symbol><symbol overflow="visible" id="34a4fb75h"><path d="M.52.31c.34.05.71.08 1.06.08.65 0 1.28-.1 1.65-.42.57-.45.68-1.3.68-2.64v-2.9h-.68v2.9c0 1.78-.07 2.31-1.62 2.31-.33 0-.7-.03-1.17-.08zm1.2-1.14c.2-.06.53-.25.6-.37-.4-1.18-.71-2.25-1.02-3.28l-.72.14c.4 1.21.8 2.43 1.14 3.51zm0 0"/></symbol></defs><g fill="#fff"><use xlink:href="#34a4fb75a" x="272.61" y="141"/><use xlink:href="#34a4fb75b" x="277.7889" y="252"/><use xlink:href="#34a4fb75c" x="284.4559" y="252"/><use xlink:href="#34a4fb75d" x="291.1229" y="252"/><use xlink:href="#34a4fb75e" x="297.7899" y="252"/><use xlink:href="#34a4fb75f" x="304.4569" y="252"/><use xlink:href="#34a4fb75g" x="311.1239" y="252"/><g><use xlink:href="#34a4fb75h" x="317.7889" y="252"/></g><g><use xlink:href="#34a4fb75i" x="116.6667" y="266"/><use xlink:href="#34a4fb75c" x="123.3337" y="266"/><use xlink:href="#34a4fb75j" x="130.0007" y="266"/><use xlink:href="#34a4fb75e" x="136.6677" y="266"/><use xlink:href="#34a4fb75k" x="143.3347" y="266"/><use xlink:href="#34a4fb75l" x="150.0017" y="266"/><use xlink:href="#34a4fb75c" x="156.6687" y="266"/><use xlink:href="#34a4fb75f" x="163.3357" y="266"/><use xlink:href="#34a4fb75g" x="170.0027" y="266"/><use xlink:href="#34a4fb75m" x="176.6697" y="266"/><use xlink:href="#34a4fb75n" x="183.3367" y="266"/><use xlink:href="#34a4fb75e" x="190.0037" y="266"/><use xlink:href="#34a4fb75c" x="196.6707" y="266"/><use xlink:href="#34a4fb75l" x="203.3377" y="266"/><use xlink:href="#34a4fb75o" x="210.0047" y="266"/><use xlink:href="#34a4fb75j" x="216.6717" y="266"/><use xlink:href="#34a4fb75e" x="223.3387" y="266"/><use xlink:href="#34a4fb75p" x="230.0057" y="266"/><use xlink:href="#34a4fb75q" x="236.6727" y="266"/><use xlink:href="#34a4fb75c" x="243.3397" y="266"/><use xlink:href="#34a4fb75g" x="250.0067" y="266"/><use xlink:href="#34a4fb75r" x="256.6737" y="266"/><use xlink:href="#34a4fb75s" x="263.3407" y="266"/><use xlink:href="#34a4fb75l" x="270.0077" y="266"/><use xlink:href="#34a4fb75t" x="276.6747" y="266"/><use xlink:href="#34a4fb75g" x="283.3417" y="266"/><use xlink:href="#34a4fb75s" x="290.0087" y="266"/><use xlink:href="#34a4fb75r" x="296.6757" y="266"/><use xlink:href="#34a4fb75g" x="303.3427" y="266"/><use xlink:href="#34a4fb75u" x="310.0097" y="266"/><use xlink:href="#34a4fb75n" x="316.6767" y="266"/><use xlink:href="#34a4fb75j" x="323.3437" y="266"/><use xlink:href="#34a4fb75t" x="330.0107" y="266"/><use xlink:href="#34a4fb75g" x="336.6777" y="266"/><use xlink:href="#34a4fb75j" x="343.3447" y="266"/><use xlink:href="#34a4fb75n" x="350.0117" y="266"/><use xlink:href="#34a4fb75p" x="356.6787" y="266"/><use xlink:href="#34a4fb75r" x="363.3457" y="266"/><use xlink:href="#34a4fb75v" x="370.0127" y="266"/><use xlink:href="#34a4fb75g" x="376.6797" y="266"/><use xlink:href="#34a4fb75n" x="383.3467" y="266"/><use xlink:href="#34a4fb75p" x="390.0137" y="266"/><use xlink:href="#34a4fb75w" x="396.6807" y="266"/><use xlink:href="#34a4fb75j" x="403.3477" y="266"/><use xlink:href="#34a4fb75e" x="410.0147" y="266"/><use xlink:href="#34a4fb75k" x="416.6817" y="266"/><use xlink:href="#34a4fb75l" x="423.3487" y="266"/><use xlink:href="#34a4fb75c" x="430.0157" y="266"/><use xlink:href="#34a4fb75g" x="436.6827" y="266"/><use xlink:href="#34a4fb75x" x="443.3497" y="266"/><use xlink:href="#34a4fb75y" x="450.0167" y="266"/><use xlink:href="#34a4fb75y" x="456.6837" y="266"/><use xlink:href="#34a4fb75z" x="463.3507" y="266"/><use xlink:href="#34a4fb75A" x="470.0177" y="266"/><use xlink:href="#34a4fb75B" x="476.6847" y="266"/></g></g></svg>