<?xml version='1.0' encoding='UTF-8'?>
<svg xmlns="http://www.w3.org/2000/svg" xmlns:xlink="http://www.w3.org/1999/xlink" width="600px" height="300px" viewBox="0 0 600 300" x="0px" y="0px" enable-background="new 0 0 600 300"><defs><symbol overflow="visible" id="488a3166a"><path d="M36.84-32.45a27 27 0 01-1.2 6.83c-9.45.54-19.47 6.7-28.16 18.46-4.4.35-5.28.68-5.28 1.44 0 1.31.88 3.74 1.86 4.95.46.55 1 .77 6.28.77h25.08c14.52 0 21.45-5.6 21.45-12.31 0-6.61-7.15-12.11-16.28-13.2 1.53-3.43 2.53-6.94 2.53-10.35 0-4.19-2.53-6.6-5.5-6.6a4.74 4.74 0 00-4.84 4.84c0 2.3 1.31 4.07 4.06 5.17zM23.44-7.27c4.93-2.53 10.1-7.25 13.86-12.64 8.01.55 11.98 4.5 11.98 8.04 0 2.53-2.31 4.6-13.86 4.6zm9.45-12.64C28.7-13.64 19.36-8.03 11.87-7.27c5.94-6.8 12.55-11.87 21.02-12.64zm0 0"/></symbol><symbol overflow="visible" id="488a3166b"><path d="M25.73 0c.11.33.22 1.1.22 2.2 0 8.25-6.04 14.63-21.1 14.63-1.55 0-3.3-.11-3.87-.22-.21.22-.43.66-.43 1.33 0 2.62 4.3 6.15 10.45 6.15C22.33 24.1 31.02 12.77 31.02 0h2.2c1.44 0 2.86-1.44 2.86-3.63 0-2.2-1.42-3.64-2.86-3.64h-2.64c-1.1-8.25-6.38-15.28-12.1-15.28-4.73 0-10.34 5.94-10.34 12.53C8.14-4.3 14.41 0 25.74 0zm-1.2-7.27h-1.87c-6.6 0-9.68-1.86-9.68-4.93a3.9 3.9 0 013.96-3.75c3.08 0 7.15 4.3 7.6 8.68zm0 0"/></symbol><symbol overflow="visible" id="488a3166c"><path d="M24.2-3.63C28.16-1.54 34.31 0 41.03 0c1.66 0 2.64-1.44 2.64-3.63 0-2.2-.98-3.64-2.64-3.64h-1.1c-3.52 0-7.37-.32-9.24-.87 3.3-2.75 4.95-6.05 4.95-10.13 0-7.14-5.6-12.3-13.97-13.53 2.2-2.97 3.63-6.26 3.63-9.67 0-3.51-1.86-6.37-4.5-6.37-4.4 0-9.14 8.36-9.14 17.48C4.19-27.72-.11-22.88-.11-19.58c0 2.1 1.42 3.19 3.52 3.19 2.75 0 6.15-1.88 8.8-4.52.77 4.41 3.3 9.47 6.16 12.33-2.42.66-11.78 1.31-17.06 1.31H0c-1.1 0-2.2 1.44-2.2 3.64C-2.2-1.3-1.1 0 0 0h1.88C9.22 0 19.02-1.66 24.2-3.63zm-5.93-23.54c7.46.76 11.98 4.62 11.98 9.47 0 2.97-1.98 5.6-5.06 7.03-2.97-1.77-8.25-8.36-8.9-14.3zm-2.54-4.17c-.1-.79-.1-1.22-.1-1.88.1-5.17 2.18-8.03 3.4-8.03.99 0 1.53.77 1.53 2.2 0 2.2-1.42 5.17-3.73 7.49zm-4.07 6.04c-1.97 2.43-5.29 4.4-6.82 4.4-.43 0-.78-.23-.78-.55 0-1.43 4.08-3.96 7.6-4.74zm0 0"/></symbol><symbol overflow="visible" id="488a3166d"><path d="M22.44-6.6C19.36-6.8 6.94-7.26 0-7.26c-1.44 0-2.86 1.88-2.86 3.64C-2.86-1.76-1.44 0 0 0c6.27 0 20.69-1.2 24.64-1.2C28.6-1.2 31.7 0 35.1 0c3.3 0 4.96-1.44 4.96-3.52 0-1.87-1.66-3.42-5.74-3.42-5.6 0-9.23-2.3-15.17-10.22 4.4-.1 7.05-3.53 7.05-10.56 0-10.56-5.96-21.12-11.13-23.33a4.17 4.17 0 00-1.86-.43c-3.07 0-4.95 2.09-4.95 5.28 0 3.3 2.64 6.15 5.5 6.15 1.88 0 3.52-.87 4.19-1.75 2.08 2.64 3.95 8.7 3.95 14.08 0 5.5-1.33 6.6-4.3 6.6-3.18 0-7.25-4.61-11.87-4.61-3.19 0-5.17 1.86-5.17 3.84 0 2.31 1.98 4.19 6.72 4.19 7.03 0 10.43 9.01 15.28 10.89 0 .1-.11.1-.11.22zM1.09-33.86c0 1.85 1.33 3.51 3.32 3.51 1.96 0 3.4-1.66 3.4-3.52 0-2.2-1.43-4.4-3.4-4.4-1.99 0-3.32 2.2-3.32 4.4zm0 0"/></symbol><symbol overflow="visible" id="488a3166e"><path d="M6.48-37.84C7.16-35.86 7.7-33 7.92-26.3c.44 11.35.88 16.5 3.52 22.57C12.66-.88 13.64 0 14.3 0c.65 0 1.98-1.44 1.98-2.42 0-1.31-3.51-7.7-3.51-16.83 0-7.05.43-11.98.43-16.6 0-8.8-2.97-13.1-7.7-13.1A4.74 4.74 0 00.55-44c0 3.19 2.75 5.6 5.93 6.16zm0 0"/></symbol><symbol overflow="visible" id="488a3166f"><path d="M3.83 0v-5.95H6.2v-.82H.45v.82h2.4V0zm0 0"/></symbol><symbol overflow="visible" id="488a3166g"><path d="M5.75-2.23v-.43c0-1.6-.9-2.51-2.42-2.51S.87-4.16.87-2.48c0 1.71.91 2.62 2.5 2.62 1.43 0 2.07-.56 2.29-1.52l-.9-.09c-.18.61-.59.9-1.35.9-.94 0-1.52-.54-1.58-1.66zm-2.4-2.2c.93 0 1.43.5 1.48 1.55H1.84c.08-1.07.6-1.56 1.5-1.56zm0 0"/></symbol><symbol overflow="visible" id="488a3166h"><path d="M1.83 0l1.42-2h.06l1.46 2H5.8L4-2.53l1.78-2.49H4.8L3.42-3.08h-.08l-1.4-1.94H.89l1.78 2.49L.84 0zm0 0"/></symbol><symbol overflow="visible" id="488a3166i"><path d="M5.52-4.25v-.77H3.17v-1.56h-.81l-.14 1.56H.75v.77h1.47v2.4c0 1.3.48 1.94 1.84 1.94C4.6.1 5.14 0 5.55-.14L5.4-.91c-.32.13-.72.2-1.13.2-.8 0-1.1-.37-1.1-1.23v-2.31zm0 0"/></symbol><symbol overflow="visible" id="488a3166j"><path d="M3.33-3.42c.47 0 .8-.27.8-.8 0-.51-.33-.8-.8-.8-.47 0-.8.29-.8.8 0 .53.33.8.8.8zm0 3.5c.47 0 .8-.27.8-.78 0-.53-.33-.82-.8-.82-.47 0-.8.29-.8.82 0 .51.33.78.8.78zm0 0"/></symbol><symbol overflow="visible" id="488a3166r"><path d="M5.95-6.77H1.1V0h.99v-2.92H5.3v-.77H2.08v-2.26h3.87zm0 0"/></symbol><symbol overflow="visible" id="488a3166s"><path d="M2.83.14c.94 0 1.5-.39 1.81-.95h.08l.1.81h.76v-3.38c0-1.23-.69-1.8-2.13-1.8-1.43 0-2.03.65-2.18 1.6l.93.1c.11-.6.44-.93 1.22-.93.85 0 1.22.32 1.22 1.04v.34l-1.81.2C1.6-2.7 1.1-2.17 1.1-1.28c0 .92.64 1.42 1.72 1.42zm.25-.77c-.67 0-1.02-.28-1.02-.74 0-.44.28-.72 1-.82l1.58-.19v.41c0 .8-.6 1.34-1.56 1.34zm0 0"/></symbol><symbol overflow="visible" id="488a3166t"><path d="M2.73.14c.9 0 1.43-.45 1.74-1.08h.06l.13.94h.8v-5.02h-.94v2.7c0 .98-.57 1.62-1.46 1.62-.75 0-1.1-.4-1.1-1.22v-3.1h-.93v3.32c0 1.17.55 1.84 1.7 1.84zm0 0"/></symbol><symbol overflow="visible" id="488a3166u"><path d="M5.08-5.16c-.94 0-1.58.43-1.9 1.3h-.09l-.07-1.16H1.05v.77h1.1v3.48H.96V0h3.96v-.77H3.1v-1.46c0-1.36.6-2.05 1.83-2.05.4 0 .76.08 1.1.17l.15-.87c-.33-.11-.7-.18-1.11-.18zm0 0"/></symbol><symbol overflow="visible" id="488a3166v"><path d="M6.17 0L3.98-6.77h-1.3L.5 0h.97l.44-1.47h2.78L5.16 0zM3.28-5.94h.08l1.1 3.74H2.15zm0 0"/></symbol><symbol overflow="visible" id="488a3166w"><path d="M3.92-7.14H1.36v.76h1.6v5.61H1.15V0H5.7v-.77H3.92zm0 0"/></symbol><symbol overflow="visible" id="488a3166x"><path d="M2.16 0v-2.67c0-.99.59-1.63 1.46-1.63.74 0 1.07.38 1.07 1.22V0h.95v-3.31c0-1.2-.56-1.85-1.67-1.85-.92 0-1.49.46-1.77 1.08h-.06l-.12-.94H1.2V0zm0 0"/></symbol><symbol overflow="visible" id="488a3166y"><path d="M3.58-5.81c.42 0 .72-.22.72-.67 0-.44-.3-.68-.72-.68-.44 0-.72.24-.72.68 0 .45.28.67.72.67zm.5.8H1.52v.76h1.6v3.48h-1.8V0h4.46v-.77h-1.7zm0 0"/></symbol><symbol overflow="visible" id="488a3166z"><path d="M3.9 0l2-5.02h-.96L3.4-.94h-.07L1.8-5.02H.77L2.78 0zm0 0"/></symbol><symbol overflow="visible" id="488a3166A"><path d="M4.63-6.5c.45 0 .98.08 1.39.2l.2-.72a5.3 5.3 0 00-1.64-.26c-1.52 0-2.16.56-2.16 1.87v.4H.9v.76h1.53V0h.94v-4.25h2.53v-.77H3.36v-.3c0-.84.33-1.18 1.27-1.18zm0 0"/></symbol><symbol overflow="visible" id="488a3166B"><path d="M3.33.14c1.62 0 2.5-.95 2.5-2.66 0-1.68-.88-2.64-2.5-2.64-1.63 0-2.5.96-2.5 2.64 0 1.7.87 2.66 2.5 2.66zm0-.77c-1.06 0-1.52-.6-1.52-1.89 0-1.28.46-1.87 1.52-1.87 1.08 0 1.53.6 1.53 1.87 0 1.29-.45 1.9-1.53 1.9zm0 0"/></symbol><symbol overflow="visible" id="488a3166C"><path d="M1.63 0v-2.9c0-.8.15-1.4.71-1.4.41 0 .55.3.55.88V0h.95v-2.9c0-.8.18-1.4.72-1.4.4 0 .57.3.57.88V0h.95v-3.63c0-.92-.28-1.53-1.11-1.53-.63 0-.95.41-1.1.9h-.06c-.1-.52-.44-.9-1.08-.9-.6 0-.93.41-1.06.9H1.6l-.23-.76H.67V0zm0 0"/></symbol><symbol overflow="visible" id="488a3166D"><path d="M3.38-5.9c.12-.5.42-1.04.67-1.41l-.63-.22a4.28 4.28 0 00-1.01 2.39c0 .66.3 1 .9 1 .6 0 .9-.33.9-.9 0-.57-.32-.83-.83-.85zm0 0"/></symbol><symbol overflow="visible" id="488a3166E"><path d="M2.16 0v-2.69c0-.98.6-1.6 1.46-1.6.74 0 1.07.4 1.07 1.2V0h.95v-3.31c0-1.17-.56-1.85-1.67-1.85-.9 0-1.44.46-1.75 1.08h-.06v-3.06H1.2V0zm0 0"/></symbol><symbol overflow="visible" id="488a3166F"><path d="M3.3-7.53c-.55 0-.85.3-.85.84 0 .55.36.8.83.8h.03a5.1 5.1 0 01-.69 1.47l.52.23a4.29 4.29 0 001.02-2.4c0-.63-.33-.94-.86-.94zm0 0"/></symbol><symbol overflow="visible" id="488a3166G"><path d="M1.45-2.95c0 2.56 1.08 4.37 3.67 4.84l.11-.67C3.28.86 2.43-.75 2.43-2.95s.85-3.82 2.8-4.16l-.1-.69c-2.6.49-3.68 2.3-3.68 4.85zm0 0"/></symbol><symbol overflow="visible" id="488a3166H"><path d="M3.36.16c1.4 0 2.2-.6 2.2-1.57 0-.89-.54-1.22-1.47-1.39L3-3c-.67-.14-.86-.33-.86-.73 0-.5.4-.74 1.17-.74.83 0 1.19.27 1.27.8l.9-.05c-.12-1-.8-1.47-2.17-1.47-1.34 0-2.1.53-2.1 1.5 0 .81.45 1.22 1.52 1.44l1.04.2c.56.11.87.24.87.72 0 .52-.45.78-1.28.78-.95 0-1.36-.28-1.42-.87l-.9.06C1.07-.36 1.8.16 3.35.16zm0 0"/></symbol><symbol overflow="visible" id="488a3166I"><path d="M3.33.14c1.65 0 2.6-1.1 2.6-3.52S4.99-6.9 3.34-6.9C1.67-6.9.72-5.8.72-3.37c0 2.4.95 3.51 2.6 3.51zm0-.84c-1.13 0-1.6-.85-1.6-2.67 0-1.86.47-2.7 1.6-2.7 1.12 0 1.6.84 1.6 2.7 0 1.82-.48 2.67-1.6 2.67zM3.3-2.64c.38 0 .56-.28.56-.72 0-.44-.18-.7-.56-.7-.39 0-.56.26-.56.7 0 .44.17.72.56.72zm0 0"/></symbol><symbol overflow="visible" id="488a3166J"><path d="M3.42.14c1.55 0 2.44-.84 2.44-2.33 0-1.45-.83-2.22-2.14-2.22-.75 0-1.28.27-1.67.72H2l.31-2.22h3.11v-.86H1.53l-.45 3.93h.81c.3-.36.9-.79 1.58-.79.92 0 1.44.43 1.44 1.47 0 .99-.54 1.5-1.49 1.5-.83 0-1.28-.32-1.5-1.01l-.95.1C1.07-.46 2 .13 3.42.13zm0 0"/></symbol><symbol overflow="visible" id="488a3166K"><path d="M1.45-7.1c1.96.33 2.8 1.94 2.8 4.15 0 2.2-.84 3.8-2.8 4.17l.11.67c2.58-.47 3.67-2.28 3.67-4.84 0-2.55-1.09-4.36-3.67-4.85zm0 0"/></symbol><symbol overflow="visible" id="488a3166l"><path d="M.53 0H4.8c1.06 0 1.34-.22 1.34-1.1 0-1.21-.66-2.02-1.6-2.02-.67 0-1 .25-2.27 1.35l-.02-3.8h-.66v4.71c0 .11 0 .11-.09.11H.44zm1.53-.75c1.56-1.38 1.81-1.63 2.46-1.63.62 0 1.01.47 1.01 1.24 0 .34-.05.39-.48.39zm0 0"/></symbol><symbol overflow="visible" id="488a3166m"><path d="M1.08 1.78c1.28 0 1.89-.66 2.06-1.78h.6v-.75h-.55v-.23c0-1.07-.4-1.94-1.33-1.94-.92 0-1.42.75-1.42 1.64C.44-.27 1.1 0 2.13 0h.42c-.14.67-.63 1.03-1.53 1.03-.16 0-.32 0-.5-.03l.07.73c.16.04.33.05.49.05zm.9-2.53c-.57 0-.95-.1-.95-.56 0-.52.27-.86.75-.86.56 0 .86.44.81 1.42zm0 0"/></symbol><symbol overflow="visible" id="488a3166n"><path d="M0 0h6.05v-.75h-.57l.02-.36c0-1.2-.64-2.01-1.6-2.01-.67 0-1 .25-2.27 1.35l-.02-3.8H.95v4.71c0 .11 0 .11-.1.11H0c-.3 0-.38.13-.38.36 0 .27.08.39.38.39zm1.44-.75C3-2.13 3.25-2.38 3.88-2.38c.62 0 1.01.47 1.01 1.24 0 .34-.05.39-.47.39zm0 0"/></symbol><symbol overflow="visible" id="488a3166o"><path d="M3.05-3.48L3.42-4l-.64-.48-.37.5zM0 0h1.08C2.3 0 3.02-.34 3.8-1.08 4.1-.28 4.86 0 5.62 0h.16v-.75h-.1c-.57 0-1.12-.16-1.4-.78l.27-.25c.04-.05.04-.05.1-.05l.54.08.1-.64-1.84-.28-1.6-.24-.29-.03C.96-2.94.55-2.6.6-1.8l.68.03c0-.35.07-.46.35-.46l.27.01 1.24.17.68.1c-.1.07-.22.17-.31.26l-.17.16C2.55-.83 2-.75.78-.75H0c-.3 0-.38.13-.38.36 0 .27.08.39.38.39zm0 0"/></symbol><symbol overflow="visible" id="488a3166p"><path d="M0 0h.44c1.04 0 1.23-.4 1.23-1.5v-4.06H1v4.23c0 .47 0 .58-.48.58H0c-.3 0-.38.13-.38.36 0 .27.08.39.38.39zm0 0"/></symbol><symbol overflow="visible" id="488a3166q"><path d="M.52 0h.67v-5.56H.52zm0 0"/></symbol></defs><g fill="#515151"><use xlink:href="#488a3166a" x="205.18" y="141"/><use xlink:href="#488a3166b" x="262.05" y="141"/></g><use xlink:href="#488a3166c" x="295.27" y="141" fill="#fff"/><g fill="#515151"><use xlink:href="#488a3166d" x="336.3" y="141"/><use xlink:href="#488a3166e" x="375.24" y="141"/></g><g fill="#fff"><use xlink:href="#488a3166f" x="266.9796" y="252"/><use xlink:href="#488a3166g" x="273.6466" y="252"/><use xlink:href="#488a3166h" x="280.3136" y="252"/><use xlink:href="#488a3166i" x="286.9806" y="252"/><use xlink:href="#488a3166j" x="293.6476" y="252"/><use xlink:href="#488a3166k" x="300.3146" y="252"/></g><g fill="#fff"><use xlink:href="#488a3166l" x="306.9796" y="252"/><use xlink:href="#488a3166m" x="313.5576" y="252"/></g><g fill="#fff"><use xlink:href="#488a3166n" x="317.2956" y="252"/><use xlink:href="#488a3166o" x="323.3436" y="252"/><use xlink:href="#488a3166p" x="329.1316" y="252"/></g><use xlink:href="#488a3166q" x="331.3296" y="252" fill="#fff"/><g fill="#fff"><use xlink:href="#488a3166r" x="163.3333" y="266"/><use xlink:href="#488a3166g" x="170.0003" y="266"/><use xlink:href="#488a3166s" x="176.6673" y="266"/><use xlink:href="#488a3166i" x="183.3343" y="266"/><use xlink:href="#488a3166t" x="190.0013" y="266"/><use xlink:href="#488a3166u" x="196.6683" y="266"/><use xlink:href="#488a3166g" x="203.3353" y="266"/><use xlink:href="#488a3166j" x="210.0023" y="266"/><use xlink:href="#488a3166k" x="216.6693" y="266"/><use xlink:href="#488a3166v" x="223.3363" y="266"/><use xlink:href="#488a3166w" x="230.0033" y="266"/><use xlink:href="#488a3166i" x="236.6703" y="266"/><use xlink:href="#488a3166g" x="243.3373" y="266"/><use xlink:href="#488a3166u" x="250.0043" y="266"/><use xlink:href="#488a3166x" x="256.6713" y="266"/><use xlink:href="#488a3166s" x="263.3383" y="266"/><use xlink:href="#488a3166i" x="270.0053" y="266"/><use xlink:href="#488a3166y" x="276.6723" y="266"/><use xlink:href="#488a3166z" x="283.3393" y="266"/><use xlink:href="#488a3166g" x="290.0063" y="266"/><use xlink:href="#488a3166k" x="296.6733" y="266"/><use xlink:href="#488a3166A" x="303.3403" y="266"/><use xlink:href="#488a3166B" x="310.0073" y="266"/><use xlink:href="#488a3166u" x="316.6743" y="266"/><use xlink:href="#488a3166C" x="323.3413" y="266"/><use xlink:href="#488a3166k" x="330.0083" y="266"/><use xlink:href="#488a3166B" x="336.6753" y="266"/><use xlink:href="#488a3166A" x="343.3423" y="266"/><use xlink:href="#488a3166k" x="350.0093" y="266"/><use xlink:href="#488a3166D" x="356.6763" y="266"/><use xlink:href="#488a3166i" x="363.3433" y="266"/><use xlink:href="#488a3166s" x="370.0103" y="266"/><use xlink:href="#488a3166E" x="376.6773" y="266"/><use xlink:href="#488a3166F" x="383.3443" y="266"/><use xlink:href="#488a3166k" x="390.0113" y="266"/><use xlink:href="#488a3166G" x="396.6783" y="266"/><use xlink:href="#488a3166H" x="403.3453" y="266"/><use xlink:href="#488a3166H" x="410.0123" y="266"/><use xlink:href="#488a3166I" x="416.6793" y="266"/><use xlink:href="#488a3166J" x="423.3463" y="266"/><use xlink:href="#488a3166K" x="430.0133" y="266"/></g></svg>