<?xml version='1.0' encoding='UTF-8'?>
<svg xmlns="http://www.w3.org/2000/svg" xmlns:xlink="http://www.w3.org/1999/xlink" width="510.236px" height="666.142px" viewBox="0 0 510.236 666.142" y="0px" x="0px" enable-background="new 0 0 510.236 666.142"><defs><symbol overflow="visible" id="89e3aafbc"><path d="M44.516-14.375c-2.75 2.438-7.032 4.438-12.391 4.438-7.344 0-11.469-3.672-12.078-11.782 2.906 1.516 6.734 2.75 10.86 2.75 9.484 0 16.218-6.281 16.218-15.297 0-8.875-6.89-15.609-17.594-15.609-14.843 0-26.312 12.703-26.312 27.078C3.219-7.953 13.156.61 27.687.61c11.172 0 18.985-6.578 18.985-11.171 0-1.829-.922-3.047-2.156-3.813zM19.89-26.922c.453-9.031 3.984-13.922 8.109-13.922 2.906 0 5.203 2.438 5.203 6.719 0 4.75-2.453 7.969-7.656 7.969-2.297 0-3.969-.313-5.656-.766zm0 0"/></symbol><symbol overflow="visible" id="89e3aafbd"><path d="M30.75-11.469c-1.219 1.063-2.75 2.14-5.203 2.14-3.203 0-5.203-2.608-5.203-14.39 0-10.86.765-20.797 2-25.703C25.859-56.453 28-62.89 28-65.484c0-3.985-6.125-8.563-11.328-8.563-3.36 0-4.578 1.828-6.266 7.797-2.453 8.563-5.203 26.625-5.203 45.75C5.203-4.437 12.234.61 20.656.61c7.032 0 11.782-4.594 11.782-8.876 0-1.375-.766-2.593-1.688-3.203zm0 0"/></symbol><symbol overflow="visible" id="89e3aafbf"><path d="M6.266-51.11c2-1.218 4.296-2.14 5.968-2.14 2.454 0 3.672 1.688 3.672 5.813 0 10.265-4.437 22.187-4.437 33.515C11.469-4.437 14.375.61 19.438.61c2.75 0 7.796-1.53 10.093-3.203-.922-2.61-1.375-8.265-1.375-19.437 2.438 1.531 6.422 2.906 11.625 2.906 12.39 0 24.016-9.64 24.016-23.875 0-14.375-12.844-24.313-29.531-24.313-17.438 0-30.141 7.344-30.141 11.922 0 1.844 1.078 3.22 2.14 4.282zm22.343 21.422c.922-8.109 2.141-14.375 2.141-21.421 0-2.282-.297-4.282-.61-5.5 1.532-.453 2.594-.61 4.438-.61 6.734 0 13.156 5.047 13.156 14.375 0 9.188-5.047 14.39-12.703 14.39-3.047 0-5.047-.608-6.422-1.233zm0 0"/></symbol><symbol overflow="visible" id="89e3aafbg"><path d="M1.688-37.797c1.671-.61 3.062-1.062 4.734-1.062 2.297 0 3.984 1.218 3.984 7.03 0 7.188-1.531 13.47-1.531 19.282C8.875-3.984 13.922.61 21.109.61c6.438 0 11.782-3.828 11.782-7.187 0-1.078-.453-2.453-1.063-3.219-.922.469-2.297 1.078-3.984 1.078-2.14 0-3.203-1.219-3.203-5.656 0-7.047 1.515-14.688 1.515-21.89 0-8.876-5.343-13.157-12.234-13.157-7.656 0-13.766 5.36-13.766 8.578 0 1.063.766 2.438 1.532 3.047zm10.859-26.312c0 4.437 3.062 7.5 7.031 7.5 4.906 0 7.656-4.282 7.656-8.422 0-4.438-3.062-7.485-7.03-7.485-5.36 0-7.657 4.438-7.657 8.407zm0 0"/></symbol><symbol overflow="visible" id="89e3aafbh"><path d="M10.563-18.203c-5.36.765-8.579 3.672-8.579 7.797C1.984-3.984 9.188.922 20.97.922c12.843 0 22.937-7.344 22.937-16.985 0-5.656-3.203-9.64-12.687-13.625-9.188-3.671-11.172-5.203-11.172-7.343 0-2.438 2.297-4.438 5.203-4.438 3.672 0 7.64 2.453 8.719 7.5 5.5-.61 9.031-3.828 9.031-7.343 0-4.282-5.36-8.72-15.61-8.72-12.25 0-21.734 8.266-21.734 17.438 0 6.125 3.828 9.953 12.703 13.313 9.328 3.218 11.328 5.203 11.328 7.656 0 2.75-2.14 4.438-6.28 4.438-5.97 0-11.313-4.75-12.845-11.016zm0 0"/></symbol><symbol overflow="visible" id="89e3aafbi"><path d="M3.984-45.438C2.297-43.766 1.22-40.39 1.22-37.03l8.11-.61C8.874-31.063 7.5-22.953 7.5-16.219 7.5-5.359 14.234.61 22.64.61c8.876 0 14.844-5.203 14.844-10.093 0-1.532-.312-2.61-1.078-3.672-2.437 2.14-5.5 3.828-8.406 3.828-3.516 0-5.516-2.297-5.516-9.344 0-5.5.625-15.453.922-18.812 3.375-.313 6.89-.313 10.563-.313 1.687-2.14 2.75-5.656 2.75-8.719l-.61-.297c-4.28 0-9.328.141-11.78.61l.155-1.688c2.438-4.125 3.97-7.797 3.97-11.015 0-4.125-5.97-7.953-10.704-7.953-3.516 0-5.813 4.89-6.422 16.515-.922 2.61-3.375 4.438-7.344 4.907zm0 0"/></symbol><symbol overflow="visible" id="89e3aafbj"><path d="M56.61-9.797c-1.22.469-2.141 1.078-4.126 1.078-2.14 0-3.375-2.297-3.375-9.187-.156-5.657.47-12.547 1.078-16.063 2.438-4.593 3.516-8.406 3.516-11.015 0-2.907-4.75-6.735-8.875-6.735-3.516 0-5.969 3.219-7.656 10.719h-.453c-1.985-5.813-6.422-8.422-11.469-8.422-11.172 0-21.734 12.703-21.734 28.156C3.516-7.656 11.469.61 20.813.61c7.343 0 11.921-4.734 14.687-12.546h.61C36.718-3.829 40.233.608 46.812.608c5.671 0 10.874-3.828 10.874-7.187 0-1.078-.312-2.453-1.078-3.219zM36.11-33.5l-.61 7.484c-2.14 10.407-5.36 15.453-9.484 15.453-3.672 0-6.578-3.203-6.578-11.921 0-10.11 4.28-15.766 9.328-15.766 2.75 0 5.656 1.688 7.343 4.75zm0 0"/></symbol><symbol overflow="visible" id="89e3aafbk"><path d="M36.406-32.89c5.828-.766 8.422-3.829 8.422-7.344 0-4.75-5.5-9.641-15.453-9.641-13.922 0-26.156 12.547-26.156 27.234C3.219-8.109 13.156.61 26.625.61c10.547 0 17.438-6.578 17.438-11.015 0-1.985-.922-3.203-1.985-3.828-2.61 2.296-6.578 4.296-11.016 4.296-7.046 0-11.171-4.906-11.171-14.546 0-10.86 4.28-16.36 8.562-16.36 3.375 0 6.125 3.047 7.953 7.953zm0 0"/></symbol><symbol overflow="visible" id="89e3aafbl"><path d="M57.063-9.797c-1.22.469-2.141 1.078-3.97 1.078-1.984 0-3.062-1.078-3.062-5.36 0-7.03 1.078-13.765 1.078-20.343 0-8.719-5.203-15-12.25-15-7.797 0-13.609 5.047-18.047 14.688h-.468c.312-5.203 1.375-12.703 2.297-16.063 3.218-8.422 4.437-12.094 4.437-14.687 0-3.985-6.265-8.563-11.469-8.563-3.375 0-4.75 1.672-6.28 7.797-2.298 9.953-4.126 41.313-4.126 55.688 0 6.28 3.516 11.171 7.5 11.171 5.203 0 10.25-4.593 10.25-7.796 0-3.375-1.234-6.125-1.375-10.407-.156-2.14-.156-5.203.14-7.187 1.845-5.516 6.438-11.016 9.641-11.016 2.297 0 3.985 1.984 3.985 7.188 0 5.812-1.078 12.547-1.078 16.062C34.266-3.828 39.469.61 46.203.61c6.734 0 11.938-3.828 11.938-7.187 0-1.078-.313-2.453-1.078-3.219zm0 0"/></symbol><symbol overflow="visible" id="89e3aafbm"><path d="M25.25.61c14.531 0 26.313-10.86 26.313-27.391 0-14.532-9.485-23.094-22.032-23.094C15-49.875 3.22-38.859 3.22-22.344 3.219-7.954 12.703.61 25.25.61zm2.594-41.157c3.672 0 7.047 4.281 7.047 14.688 0 10.859-3.672 17.14-7.97 17.14-3.671 0-7.03-4.14-7.03-14.531 0-10.719 3.672-17.297 7.953-17.297zm0 0"/></symbol><symbol overflow="visible" id="89e3aafbn"><path d="M51.86-46.047c6.593-.922 9.953-4.297 9.953-8.422 0-6.578-7.657-12.843-20.047-12.843-21.11 0-36.11 17.593-36.11 38.093C5.656-10.859 16.22.61 31.984.61c6.578 0 11.313-2.14 14.375-4.734l.313.14c0 4.75-.766 13.313-2.156 19.891l.468.469c10.094-.313 16.063-4.906 16.063-10.86 0-4.437-2.297-13.937-2.14-20.359 2.14-4.437 3.671-9.328 3.671-11.625 0-3.672-5.36-7.656-9.64-7.656-2.297 0-3.672 1.078-4.594 3.531-1.219 2.907-1.672 9.782-1.672 16.219-1.688 1.672-5.203 3.203-9.344 3.203-8.562 0-14.375-5.969-14.375-19.89 0-16.063 7.797-25.235 16.672-25.235 5.36 0 10.563 3.813 12.234 10.25zm0 0"/></symbol><symbol overflow="visible" id="89e3aafbo"><path d="M37.938-32.281c4.296-1.688 6.578-5.203 6.578-8.563 0-4.593-3.36-8.734-7.797-8.734-5.047 0-10.407 4.14-13.469 17.297h-.61c1.532-12.86-2.437-17.14-9.171-17.14-6.89 0-13.016 4.905-13.016 8.577 0 1.063.625 2.438 1.39 3.047 1.673-.61 3.204-1.062 4.891-1.062 2.141 0 3.063 2.297 3.063 8.109 0 8.719-1.688 14.844-1.688 20.5 0 5.969 3.516 10.86 7.5 10.86 5.204 0 10.25-4.594 10.25-7.798 0-3.984-1.53-7.046-1.53-11.78 0-8.266 4.89-15 9.03-15 2.141 0 3.516.609 4.578 1.687zm0 0"/></symbol><symbol overflow="visible" id="89e3aafbq"><path d="M1.844-37.797c1.672-.61 3.047-1.062 4.734-1.062 2.297 0 3.36 2.14 3.36 7.5 0 6.265-.454 19.734-1.063 26.609-1.844 8.734-2.906 18.063-2.906 23.266 0 5.656 2.593 10.859 7.343 10.859 4.891 0 9.938-5.813 9.938-9.64 0-4.282-1.672-11.782-1.531-19.126 0-2.453.312-4.734.468-6.578 2.594 4.125 6.579 6.578 13 6.578 10.72 0 21.266-10.703 21.266-28.297 0-13.468-7.64-21.734-16.219-21.734-6.734 0-12.547 4.14-16.062 12.094h-.453c.453-8.422-3.375-12.094-9.64-12.094-6.892 0-13.767 4.906-13.767 8.578 0 1.063.766 2.438 1.532 3.047zm22.172 9.953c2.453-6.578 6.125-9.953 9.64-9.953 3.672 0 6.282 4.14 6.282 11.938 0 10.718-3.829 16.062-8.876 16.062-3.375 0-6.125-1.672-7.656-3.969zm0 0"/></symbol><symbol overflow="visible" id="89e3aafbs"><path d="M1.219-38.563c1.234-.609 2.453-.906 3.531-.906 2.594 0 4.578 2.297 5.813 16.36C12.092-4.75 18.203.609 25.093.609c6.579 0 11.016-4.734 14.532-14.218h.469C42.375-4.438 46.672.609 52.937.609c5.516 0 10.563-3.062 16.376-11.312 6.421-9.188 9.328-20.656 9.328-30.453 0-4.282-5.813-9.485-13.313-9.485-2.75 0-4.437.453-5.203.922 1.078 3.516 2.14 9.485 2.14 15.453 0 14.688-4.578 24.172-7.484 24.172-2.453 0-5.062-6.437-5.203-21.734.906-2.906 1.672-6.266 1.672-8.11 0-3.828-5.5-8.406-9.938-8.406-3.515 0-5.812 3.36-5.812 8.25 0 2.297.61 7.047 1.063 10.719-2.438 12.234-5.344 19.281-7.954 19.281-1.687 0-2.593-3.062-3.218-16.531-.61-18.813-5.188-22.797-13-22.797-7.032 0-12.844 4.438-12.844 7.656 0 1.375.766 2.438 1.672 3.203zm0 0"/></symbol><symbol overflow="visible" id="89e3aafbt"><path d="M1.984-37.797c1.688-.61 3.22-1.062 4.907-1.062 1.984 0 3.046 2.297 3.046 8.109 0 7.64-1.828 14.844-1.828 20.5C8.11-4.281 11.781.61 15.766.61c5.203 0 10.25-4.594 10.25-7.641 0-4.14-1.532-7.203-1.532-11.485 0-1.828.157-4.437.453-6.265 2.141-6.282 5.97-11.016 9.188-11.016 3.36 0 5.047 4.89 3.969 15.594-.61 2.156-1.375 5.969-1.375 9.344 0 7.187 2.453 11.468 6.578 11.468 5.36 0 10.094-3.828 10.094-7.64 0-3.672-1.672-7.344-1.672-16.688 1.984-6.875 5.5-12.078 9.172-12.078 2.297 0 4.14 1.984 4.14 7.188 0 5.812-1.078 12.547-1.078 16.062C63.953-3.828 69.156.61 76.047.61c6.578 0 11.781-3.828 11.781-7.187 0-1.078-.312-2.453-1.078-3.219-1.531.61-2.14 1.078-3.984 1.078-1.829 0-3.047-1.219-3.047-5.36 0-7.03 1.062-13.921 1.062-20.343 0-8.719-5.36-15-12.39-15-7.657 0-13 5.047-17.282 15.453h-.468c1.078-9.328-2.453-15.453-9.641-15.453-7.5 0-13.313 5.656-16.984 15.922h-.453c1.375-11.016-3.22-15.922-9.954-15.922-6.875 0-13 4.906-13 8.578 0 1.063.61 2.438 1.375 3.047zm0 0"/></symbol><symbol overflow="visible" id="89e3aafbu"><path d="M20.5-37.797c.313-4.125 1.078-8.562 1.844-11.625C25.859-56.453 28-62.734 28-65.484c0-3.985-6.125-8.563-11.328-8.563-3.36 0-4.735 1.984-6.266 7.797-2.453 8.875-5.203 29.219-5.203 41.766C5.203-8.11 12.703.609 26.016.609 40.234.61 53.25-10.859 53.25-27.844c0-13.468-7.5-21.578-16.531-21.578-6.89 0-12.078 4.438-15.907 11.781zm.156 8.266c2.75-5.5 6.266-8.266 9.485-8.266 3.828 0 6.578 4.14 6.578 11.781 0 10.875-4.125 16.22-9.032 16.22-4.734 0-7.343-3.813-7.343-13.923 0-3.203.156-4.734.312-5.812zm0 0"/></symbol><symbol overflow="visible" id="89e3aafbv"><path d="M6.266-51.11c2-1.218 4.296-2.14 5.968-2.14 2.454 0 3.672 1.688 3.672 5.813 0 10.265-4.437 22.187-4.437 33.515C11.469-4.437 14.375.61 19.438.61c2.75 0 7.796-1.53 10.093-3.203-.922-2.765-1.375-6.734-1.375-15.156 0-15.297 2.594-24.938 2.594-33.36 0-2.28-.297-4.28-.61-5.5 1.532-.453 2.594-.609 4.438-.609 9.328 0 15.906 5.657 15.906 14.532A17.3 17.3 0 0 1 45.75-30.75c-2.14-1.078-4.594-1.531-6.422-1.531-4.14 0-7.5 3.062-7.5 6.265 0 3.532 3.828 6.578 6.422 6.578 1.688 0 3.063-.296 4.75-1.062 2.75 3.063 6.11 9.172 11.156 19.89 7.203 15.454 14.235 22.485 25.25 22.485 9.328 0 15.906-6.422 15.906-11.469 0-1.375-.906-3.062-2.28-3.515-1.235 1.218-3.532 2.296-7.204 2.296-7.344 0-11.312-4.593-17.125-14.546-5.36-8.875-9.64-15.907-14.234-20.344v-.453c7.656-4.594 11.937-10.719 11.937-18.36 0-12.703-12.703-22.797-30.75-22.797-18.828 0-31.531 7.344-31.531 11.922 0 1.844 1.078 3.22 2.14 4.282zm0 0"/></symbol><symbol overflow="visible" id="89e3aafbw"><path d="M1.984-37.797c1.688-.61 3.22-1.062 4.907-1.062 1.984 0 3.046 2.297 3.046 8.109 0 8.563-1.828 14.844-1.828 20.5C8.11-4.281 11.781.61 15.766.61c5.203 0 10.25-4.594 10.25-7.798 0-3.984-1.532-7.046-1.532-11.328 0-1.828.157-4.437.453-6.265 1.844-5.672 5.657-11.016 9.188-11.016 2.14 0 4.125 1.984 4.125 7.188 0 5.812-1.078 12.547-1.078 16.062C37.172-3.828 42.375.61 49.109.61c6.735 0 11.938-3.828 11.938-7.187 0-1.078-.313-2.453-1.078-3.219-1.063.469-2.14 1.078-3.969 1.078-1.844 0-3.063-1.078-3.063-5.36 0-7.03 1.079-13.765 1.079-20.343 0-8.719-5.36-15-12.407-15-7.797 0-13.922 5.656-17.593 15.922h-.453c1.375-11.016-3.22-15.922-9.954-15.922-6.875 0-13 4.906-13 8.578 0 1.063.61 2.438 1.375 3.047zm0 0"/></symbol><symbol overflow="visible" id="89e3aafbx"><path d="M1.984-38.563c1.235-.609 2.454-.906 3.532-.906 2.593 0 4.28 2.297 5.812 16.672C12.86-5.657 17.281.61 26.016.61c5.5 0 11.78-3.515 17.437-11.015 6.89-9.485 10.406-20.953 10.406-30.75 0-4.282-5.812-9.328-13.312-9.485-2.75 0-4.438.453-5.203.922 1.218 3.516 2.14 9.485 2.14 15.453 0 13.766-4.593 24.172-7.656 24.172-1.984 0-2.906-3.515-3.812-18.828-1.078-16.062-5.203-20.5-13.157-20.5-6.734 0-12.546 4.438-12.546 7.656 0 1.375.765 2.438 1.671 3.203zm0 0"/></symbol><symbol overflow="visible" id="89e3aafbz"><path d="M4.438-54.625c1.687-.906 2.906-1.531 4.89-1.531 3.375 0 5.047 3.672 5.969 21.578C16.53-5.516 24.016.609 33.812.609c16.22 0 33.204-22.187 33.204-53.547 0-8.874-10.86-14.53-20.204-14.53l-.14.452c1.516 4.75 2.906 14.235 2.906 22.954 0 19.421-6.89 32.89-12.094 32.89-3.359 0-5.5-3.672-5.812-29.062-.313-21.735-4.75-27.078-15-27.078-6.875 0-14.078 4.89-14.078 9.484 0 1.375.765 2.437 1.844 3.203zm0 0"/></symbol><symbol overflow="visible" id="89e3aafbC"><path d="M6.125-54.156C8.109-55.391 10.406-56 12.094-56c2.437 0 3.515 2.14 3.515 7.5 0 11.625-2.906 24.328-2.906 34.578 0 9.938 3.969 14.531 8.11 14.531 5.046 0 9.484-3.671 9.484-8.406 0-3.672-1.375-11.015-1.531-16.844 2.75-15.14 9.484-26.765 14.53-26.765 2.907 0 4.75 2.906 4.75 9.797 0 9.015-2 16.968-2 27.687C46.047-3.984 50.189.61 54.314.61c4.906 0 9.328-3.671 9.328-8.406 0-3.672-1.375-11.015-1.516-16.844 2.594-15.14 9.328-26.765 14.375-26.765 2.906 0 4.89 2.906 4.89 9.797 0 9.015-1.984 17.125-1.984 24.937C79.406-4.594 85.22.61 93.484.61c7.797 0 13.313-5.046 13.313-9.64 0-1.531-1.078-2.906-1.844-3.516-1.828 1.531-4.578 2.906-6.266 2.906-2.296 0-3.374-1.828-3.374-8.875 0-11.625 1.843-19.578 1.843-29.53 0-13-6.281-19.267-14.078-19.267-8.562 0-15.297 6.579-20.5 22.032l-.453-.157c.453-2.75.766-4.906.766-7.046 0-8.875-5.063-14.828-12.094-14.828-8.719 0-16.063 6.421-21.266 22.03l-.312-.156c.61-3.671.922-5.812.922-9.953 0-7.343-4.438-11.922-11.172-11.922-8.563 0-14.985 5.344-14.985 9.329 0 1.828 1.063 2.906 2.141 3.828zm0 0"/></symbol><symbol overflow="visible" id="89e3aafbF"><path d="M78.64 5.813c-1.984 2.75-4.593 4.593-8.718 4.593-5.813 0-10.86-2.75-21.734-11.172-10.094-7.656-17.891-11.328-22.485-13 3.985-6.125 5.656-12.39 6.735-24.64.921-13 4.124-16.516 8.718-16.516 4.125 0 8.719 2.297 11.016 4.89 3.516-2.14 4.437-4.437 4.437-6.577 0-4.282-5.656-10.703-15-10.703-15.14 0-25.703 13.453-25.703 35.328 0 7.656-.453 11.78-1.984 15.922C6.734-15.142 1.984-11.47 1.984-7.5c0 4.75 3.985 8.719 8.72 8.719 3.671 0 6.733-1.985 9.5-4.735 5.343 2.297 11.468 7.797 18.5 14.079C50.03 20.968 56.921 24.015 64.718 24.015c11.015 0 16.672-7.953 16.672-14.375 0-1.985-1.22-3.22-2.75-3.829zm0 0"/></symbol><symbol overflow="visible" id="89e3aafbH"><path d="M57.063-13.313c-1.063 1.079-2.907 1.844-4.735 1.844-4.75 0-7.344-3.219-11.016-8.578l.157-.453c7.953-3.516 11.781-9.328 11.781-15.766 0-7.953-5.813-13.156-13.625-13.156-8.563 0-16.063 6.578-20.047 15.453l-.453-.156c.922-7.344 2.453-13.313 3.516-16.672 3.218-8.422 4.437-12.094 4.437-14.687 0-3.985-6.265-8.563-11.469-8.563-3.375 0-4.75 1.672-6.28 7.797-2.298 9.953-4.126 41.313-4.126 55.688 0 6.28 3.516 11.171 7.5 11.171 4.578 0 9.016-4.593 9.016-7.796 0-3.672-2.594-6.891-2.594-11.625 0-9.032 7.797-18.985 16.219-18.985 3.672 0 6.125 2.453 6.125 5.969 0 2.765-1.375 5.36-3.828 7.187-1.844-2.28-3.985-4.125-6.282-4.125-3.359 0-7.03 4.282-7.03 7.188 0 2.765 1.687 4.437 5.046 5.047C33.203-3.828 38.703.609 46.047.609c6.89 0 12.703-5.203 12.703-9.64 0-1.672-.922-3.36-1.688-4.281zm0 0"/></symbol><clipPath id="a"><path d="M0 0h510.234v666.14H0zm0 0"/></clipPath><clipPath id="b"><path d="M0 0h510.234v35H0zm0 0"/></clipPath><clipPath id="p"><path d="M367 89h143.234v82H367zm0 0"/></clipPath><clipPath id="r"><path d="M456 198h54.234v53H456zm0 0"/></clipPath><clipPath id="y"><path d="M303 398h207.234v69H303zm0 0"/></clipPath><clipPath id="A"><path d="M411 521h99.234v54H411zm0 0"/></clipPath><clipPath id="B"><path d="M0 614h102v52.14H0zm0 0"/></clipPath><clipPath id="D"><path d="M99 609h134v57.14H99zm0 0"/></clipPath><clipPath id="E"><path d="M255 614h80v52.14h-80zm0 0"/></clipPath><clipPath id="G"><path d="M308 607h202.234v59.14H308zm0 0"/></clipPath></defs><g clip-path="url(#a)"><path d="M0 666.14h510.234V0H0zm0 0" fill="#ffc3af"/></g><g fill="#fff" clip-path="url(#b)"><use xlink:href="#89e3aafbc" x="-4.8574" y="33.5736"/><use xlink:href="#89e3aafbd" x="45.3266" y="33.5736"/><use xlink:href="#89e3aafbe" x="77.7626" y="33.5736"/><use xlink:href="#89e3aafbf" x="96.1226" y="33.5736"/><use xlink:href="#89e3aafbg" x="161.4536" y="33.5736"/><use xlink:href="#89e3aafbh" x="194.9606" y="33.5736"/><use xlink:href="#89e3aafbi" x="240.8606" y="33.5736"/><use xlink:href="#89e3aafbj" x="278.3456" y="33.5736"/><use xlink:href="#89e3aafbk" x="336.7916" y="33.5736"/><use xlink:href="#89e3aafbl" x="382.3856" y="33.5736"/><use xlink:href="#89e3aafbg" x="441.1376" y="33.5736"/><use xlink:href="#89e3aafbm" x="474.6446" y="33.5736"/></g><use xlink:href="#89e3aafbm" x="16.1035" y="141.5917" fill="#fff"/><use xlink:href="#89e3aafbk" x="-29.4912" y="141.5917" fill="#fff"/><path d="M112.492 94.773c.309-3.21.613-5.964 1.38-8.718-2.142-1.993-6.122-4.133-9.18-4.133-5.204 0-8.876 4.437-9.333 12.851zm14.844 10.407c0 26.773-.766 34.882-2.754 43.757-2.45 11.32-9.336 18.512-18.363 18.512-7.496 0-12.239-3.976-12.239-8.722 0-1.836.918-3.211 2.602-3.672 1.375 2.144 3.52 3.52 6.273 3.52 4.286 0 6.73-3.825 8.11-13.466 1.07-7.953 1.222-22.797 1.375-39.93H95.203c-.152 18.817-.61 38.094-2.445 45.594-2.754 12.086-10.559 20.196-21.422 20.196-7.648 0-12.238-4.133-12.238-8.723 0-1.836 1.07-3.21 2.754-3.672 1.375 2.145 3.52 3.52 6.882 3.52 5.051 0 8.262-3.977 9.489-11.477 1.375-8.414 1.836-27.539 1.988-45.594-4.895-.609-9.64-4.59-9.64-7.343a5.34 5.34 0 0 1 1.226-3.364c1.836.153 5.66.457 8.719.457 1.53-15.3 9.64-24.328 21.421-24.328 6.731 0 12.7 4.285 14.84 8.262 3.672-7.039 9.793-11.168 17.594-11.168 8.57 0 14.996 5.66 14.996 11.016 0 2.144-1.222 3.52-3.672 4.285-1.988-2.14-5.66-3.824-8.875-3.824-5.203 0-8.875 4.437-9.332 15.757 5.508 0 9.793-.457 13.157-1.07l.765.305c0 4.133-.918 8.262-2.45 10.254-2.292.61-7.034.918-11.624.918" fill="#fff"/><g fill="#fff"><use xlink:href="#89e3aafbc" x="138.6558" y="141.5917"/><use xlink:href="#89e3aafbc" x="188.8398" y="141.5917"/><use xlink:href="#89e3aafbe" x="239.0238" y="141.5917"/><use xlink:href="#89e3aafbn" x="257.3838" y="141.5917"/></g><use xlink:href="#89e3aafbo" x="322.7148" y="141.5917" fill="#fff"/><g fill="#fff" clip-path="url(#p)"><use xlink:href="#89e3aafbj" x="364.1699" y="141.5917"/><use xlink:href="#89e3aafbq" x="422.6159" y="141.5917"/><use xlink:href="#89e3aafbc" x="482.5919" y="141.5917"/></g><g clip-path="url(#r)"><use xlink:href="#89e3aafbs" x="456.5819" y="249.6097" fill="#fff"/></g><use xlink:href="#89e3aafbm" x="404.4209" y="249.6093" fill="#fff"/><use xlink:href="#89e3aafbd" x="373.3619" y="249.6093" fill="#fff"/><use xlink:href="#89e3aafbd" x="340.9259" y="249.6093" fill="#fff"/><use xlink:href="#89e3aafbj" x="282.4799" y="249.6093" fill="#fff"/><use xlink:href="#89e3aafbt" x="194.0459" y="249.6093" fill="#fff"/><use xlink:href="#89e3aafbl" x="135.2939" y="249.6093" fill="#fff"/><use xlink:href="#89e3aafbh" x="89.3939" y="249.6093" fill="#fff"/><use xlink:href="#89e3aafbo" x="47.3189" y="249.6093" fill="#fff"/><use xlink:href="#89e3aafbj" x="-11.1318" y="249.6093" fill="#fff"/><use xlink:href="#89e3aafbc" x="462.4032" y="357.6273" fill="#fff"/><use xlink:href="#89e3aafbu" x="405.7939" y="357.6274" fill="#fff"/><use xlink:href="#89e3aafbq" x="346.8889" y="357.6274" fill="#fff"/><use xlink:href="#89e3aafbh" x="300.9889" y="357.6274" fill="#fff"/><use xlink:href="#89e3aafbj" x="242.5429" y="357.6274" fill="#fff"/><use xlink:href="#89e3aafbv" x="171.8569" y="357.6274" fill="#fff"/><use xlink:href="#89e3aafbe" x="153.4969" y="357.6274" fill="#fff"/><use xlink:href="#89e3aafbw" x="91.8379" y="357.6274" fill="#fff"/><use xlink:href="#89e3aafbc" x="41.6539" y="357.6274" fill="#fff"/><use xlink:href="#89e3aafbx" x="-14.1914" y="357.6274" fill="#fff"/><use xlink:href="#89e3aafbc" x="157.4736" y="465.6459" fill="#fff"/><use xlink:href="#89e3aafbt" x="69.0396" y="465.6459" fill="#fff"/><use xlink:href="#89e3aafbm" x="14.8776" y="465.6459" fill="#fff"/><use xlink:href="#89e3aafbf" x="-47.8535" y="465.6459" fill="#fff"/><path d="M231.68 423.723c-3.672 0-6.426 4.894-6.426 11.629 0 6.578 2.445 10.097 5.355 10.097 3.672 0 6.426-4.894 6.426-11.629 0-6.578-2.297-10.097-5.355-10.097m-8.11 48.195c-3.215 2.45-4.898 5.05-4.898 7.652 0 4.282 3.98 7.496 11.629 7.496 6.426 0 11.015-2.906 11.015-6.273 0-5.356-9.636-6.426-17.746-8.875m24.938-47.734c1.836 2.445 3.215 6.117 3.215 10.71 0 8.415-7.344 17.286-20.961 18.051-.766.766-1.684 1.993-1.684 3.368 0 8.109 26.926 3.824 26.926 18.82 0 11.015-12.852 19.89-29.223 19.89-13.46 0-20.5-5.511-20.5-12.242 0-5.508 4.13-10.402 11.168-13.312-2.449-1.528-3.976-3.516-3.976-6.27 0-4.59 3.672-8.11 9.945-11.172v-.304c-7.344-1.989-12.852-8.11-12.852-15.91 0-9.793 8.72-20.043 22.797-20.043 4.742 0 9.028 1.835 11.934 4.742 1.683-5.969 5.2-9.028 8.414-9.028 3.21 0 5.66 2.754 5.66 6.426a7.84 7.84 0 0 1-1.988 5.203c-3.367-.156-6.73.153-8.875 1.07" fill="#fff"/><use xlink:href="#89e3aafbo" x="258.4541" y="465.6459" fill="#fff"/><g fill="#fff" clip-path="url(#y)"><use xlink:href="#89e3aafbj" x="299.916" y="465.6459"/><use xlink:href="#89e3aafbw" x="358.362" y="465.6459"/><use xlink:href="#89e3aafbj" x="420.021" y="465.6459"/><use xlink:href="#89e3aafbi" x="478.467" y="465.6459"/></g><use xlink:href="#89e3aafbe" x="254.7827" y="573.6635" fill="#fff"/><use xlink:href="#89e3aafbe" x="236.4227" y="573.6635" fill="#fff"/><use xlink:href="#89e3aafbm" x="181.6487" y="573.6635" fill="#fff"/><use xlink:href="#89e3aafbi" x="144.9287" y="573.6635" fill="#fff"/><use xlink:href="#89e3aafbi" x="108.0557" y="573.6635" fill="#fff"/><use xlink:href="#89e3aafbc" x="57.8717" y="573.6635" fill="#fff"/><use xlink:href="#89e3aafbo" x="15.9497" y="573.6635" fill="#fff"/><use xlink:href="#89e3aafbj" x="-42.4961" y="573.6635" fill="#fff"/><path d="M292.254 521.031c0-4.129-1.992-6.883-4.746-6.883-3.059 0-4.895 2.598-4.895 9.024 0 2.91.457 5.969 1.375 9.183 4.742-3.062 8.266-6.43 8.266-11.324M271.44 554.54c0 7.344 5.512 12.7 14.23 12.7.614 0 .919-.153 1.532-.153-5.355-6.734-9.793-13.77-12.851-20.504-1.993 2.14-2.91 4.742-2.91 7.957m79.867 30.598c0 5.203-6.883 11.629-16.215 11.629-14.692 0-29.836-9.946-41.922-22.797a32.815 32.815 0 0 1-9.945 1.531c-15.61 0-25.399-7.344-25.399-18.207 0-8.723 6.274-13.922 13.461-18.055-1.375-4.285-2.293-8.414-2.293-11.933 0-12.7 9.027-21.422 20.195-21.422 9.793 0 16.524 6.12 16.524 13.773 0 10.403-10.402 14.38-19.735 18.817 3.06 7.652 7.954 15.453 14.227 22.644 6.734-5.965 11.934-16.219 12.547-29.527 6.273 0 11.933 6.273 11.933 9.945 0 10.863-7.648 20.348-17.593 26.621 10.25 9.18 22.336 15.758 34.73 15.758 3.672 0 5.965-.918 7.192-2.14 1.375.456 2.293 2.14 2.293 3.363" fill="#fff"/><use xlink:href="#89e3aafbe" x="332.0312" y="573.6635" fill="#fff"/><use xlink:href="#89e3aafbz" x="341.3642" y="573.6635" fill="#fff"/><g fill="#fff" clip-path="url(#A)"><use xlink:href="#89e3aafbj" x="408.377" y="573.6635"/><use xlink:href="#89e3aafbw" x="466.823" y="573.6635"/></g><g clip-path="url(#B)"><use xlink:href="#89e3aafbC" x="-4.876" y="681.6815" fill="#fff"/></g><g fill="#fff" clip-path="url(#D)"><use xlink:href="#89e3aafbg" x="99.623" y="681.6815"/><use xlink:href="#89e3aafbw" x="133.13" y="681.6815"/><use xlink:href="#89e3aafbi" x="194.789" y="681.6815"/></g><g clip-path="url(#E)"><use xlink:href="#89e3aafbF" x="253.541" y="681.6815" fill="#fff"/></g><g fill="#fff" clip-path="url(#G)"><use xlink:href="#89e3aafbj" x="304.643" y="681.6815"/><use xlink:href="#89e3aafbH" x="363.089" y="681.6815"/><use xlink:href="#89e3aafbm" x="421.841" y="681.6815"/><use xlink:href="#89e3aafbm" x="476.615" y="681.6815"/></g></svg>