<?xml version='1.0' encoding='UTF-8'?>
<svg xmlns="http://www.w3.org/2000/svg" xmlns:xlink="http://www.w3.org/1999/xlink" width="600px" height="300px" viewBox="0 0 600 300" x="0px" y="0px" enable-background="new 0 0 600 300"><defs><symbol overflow="visible" id="c6628d33a"><path d="M26.05 7.08l-5.11-9.49c1.56-.95 2.7-2.28 2.7-3.89 0-2.83-3.55-4.86-5.87-4.86-1.75 0-2.7 1.08-2.7 3.07 0 .71.16 1.67.52 2.57-.89.3-1.9.54-2.68.54-1.93 0-3.43-.54-4.4-1.57a5.65 5.65 0 01-1.43-4.01c0-3 3.19-5.58 7.5-8.16a42.92 42.92 0 0015.19 3.17V-.78C31.07-.06 33 .48 34.5.72l.42-.36c-.19-3.6-.23-7.67-.23-11.88v-21.36h6.76l.42-.48c-.23-1.2-.78-2.45-1.37-3.42H23.64l-.42.42c.23 1.2.78 2.45 1.37 3.48h5.18v12.6a31.2 31.2 0 01-3.55.19c-3.3 0-6.13-.43-8.4-1.14v-.07c2.7-1.8 4.5-4.43 4.5-7.2 0-4.2-3.9-9.13-9.54-9.13-3.9 0-7.86 2.47-7.86 7.57 0 3.65 1.99 6.54 5.03 8.76v.11c-4.37 2.4-7.54 5.7-7.54 9.61C2.4-6.3 7.98-.9 15.06-.9c.85 0 1.67-.1 2.52-.3l3.84 10.34c1.8-.07 3.85-.91 4.63-2.05zm-15.68-35.1c-.53-2.46.79-4.43 2.58-5.04 1.1-.49 2.11-.6 3.36.06A3.97 3.97 0 0118-29.7c0 2.28-1.86 4.62-4.69 6.25a7.18 7.18 0 01-2.94-4.57zm0 0"/></symbol><symbol overflow="visible" id="c6628d33b"><path d="M24.19 6.48L14.8-1.08c4.27-1.2 8.47-3.72 8.47-8.4 0-3.6-2.58-6.9-7.92-8.29l-5.64-1.5c-1.5-.36-2.4-.78-2.4-1.43 0-.72 1.02-1.14 4.2-1.14h16.56V-.78C29.4-.06 31.27.48 32.8.72l.42-.36c-.23-3.6-.3-7.67-.3-11.88v-21.36h6.85l.42-.48a12.1 12.1 0 00-1.39-3.42H-.95l-.43.42c.24 1.2.79 2.45 1.38 3.48h28.08v6.79H10.73c-5.57 0-7.6 1.67-7.6 4.3 0 3 2.51 5.41 5.21 6.73 1.97.9 3.96 1.37 6.66 2.1 2.22.54 4.2 1.2 4.2 2.65 0 1.9-3 4.67-7.92 5.33-1.8-1.74-3.12-2.64-4.8-2.64-1.8 0-3.12 2.28-3.12 4.32 0 1.99 1.69 3.17 4.92 3.17.66 0 1.44-.06 2.22-.1l10.27 10.37a8.13 8.13 0 003.42-3.66zm0 0"/></symbol><symbol overflow="visible" id="c6628d33c"><path d="M5.05-8.1C1.92-8.1-.72-6-.72-2.7c0 4.43 4.2 6.3 7.44 6.3 1.2 0 2.22-.05 3.19-.24.65 3.9 5.28 5.83 9 5.83 4.5 0 8.45-2.9 9.17-7.56l3.19 8.09a9 9 0 004.6-2.1L29.41-4.02c2.45-1.32 4.01-3.18 4.01-4.68 0-2.28-3.36-5.75-6.72-5.75-2.1 0-3.18 1.5-3.18 3.65 0 1.08.25 2.4.71 3.66-1.43.36-2.8.55-4.01.55-1.67 0-3.66-.36-4.63-1.04A9.22 9.22 0 0111.7-15c0-3.9 2.58-6.23 8.88-6.23h8.83l.4-.43c-.17-3.54-.23-6.42-.23-10.62v-.6h7.98l.42-.48c-.25-1.2-.78-2.45-1.32-3.42H-.95l-.43.42c.24 1.2.79 2.45 1.38 3.48h24.72v7.08h-5.94c-7.62 0-12.19 3.85-12.19 9.78 0 7.57 7.2 13.57 16.04 13.57.46 0 .89 0 1.37-.07.06.43.06.79.06 1.2 0 3.9-2.76 7.62-6.36 7.62a3.2 3.2 0 01-3.25-3.17c0-1.44.97-2.35 2.96-3l-.07-.68a8.35 8.35 0 00-3.96-1.97A5.07 5.07 0 0010.13.6C9.3.8 8.45.84 7.62.84c-2.4 0-3.9-1.32-3.9-3 0-1.5 1.14-2.21 2.22-2.21.72 0 1.62.35 2.28 1.14l.65-.25a7.75 7.75 0 00-.42-3.6 6.63 6.63 0 00-3.4-1.01zm0 0"/></symbol><symbol overflow="visible" id="c6628d33d"><path d="M31.8 7.44L25.62-4.2c2.52-1.25 4.02-3.11 4.02-4.61 0-2.35-3.36-5.77-6.66-5.77-2.1 0-3.25 1.44-3.25 3.6 0 1.14.32 2.4.79 3.67-1.5.4-2.82.6-4.02.6-1.69 0-3.6-.43-4.69-1.09A8.93 8.93 0 017.92-15c0-3.9 2.64-6.13 8.7-6.13h9l.47-.42c-.23-3.53-.3-6.36-.3-10.6v-.73h7.93l.42-.48c-.23-1.2-.78-2.45-1.37-3.42H-.95l-.43.42c.24 1.2.79 2.45 1.38 3.48h21v7.26h-6.23C7.3-25.63 2.8-21.91 2.8-16.2c0 6.72 5.6 12.18 12.97 13.39v.04l-10.5 6c.36 1.5 1.2 3 2.88 4.04L22.3-2.52l4.69 12a8.59 8.59 0 004.8-2.04zm0 0"/></symbol><symbol overflow="visible" id="c6628d33e"><path d="M11.77-26.77c-2.64 0-5.29 1.4-10.04 4.27a6.44 6.44 0 002.96 4.2c4.01-2.57 6.04-3.9 8.1-3.9 1.73 0 3.23.97 8.5 5.4L5.95-7.73a6.75 6.75 0 003.12 3.95l14.35-9.6h.1v12.6a16.8 16.8 0 004.76 1.5l.46-.36c-.23-3.6-.3-7.67-.3-11.88v-21.36h6.79l.42-.48a12 12 0 00-1.33-3.42H-.95l-.43.42c.24 1.2.79 2.45 1.38 3.48h23.52v13.32h-.11c-6.36-5.52-8.6-7.2-11.64-7.2zm0 0"/></symbol><symbol overflow="visible" id="c6628d33f"><path d="M6.84 2.81l15-13.5.18.13v9.78C23.34-.06 25.2.48 26.7.72l.49-.36c-.25-3.6-.32-7.67-.32-11.88v-21.36h6.85l.42-.48c-.3-1.2-.78-2.45-1.37-3.42H-3.36l-.42.42c.23 1.2.78 2.45 1.37 3.48h5.6v10.38c0 7.92 5.22 12.6 11.1 13.27L3.48-.84A7.2 7.2 0 006.83 2.8zM9.6-15c-1.18-1.69-1.5-4.14-1.5-6.55v-11.32h13.93v16.01c-1.93 2.52-4.68 3.48-7.61 3.48-1.7 0-4.1-.6-4.82-1.62zm0 0"/></symbol><symbol overflow="visible" id="c6628d33g"><path d="M2.58-14.88C7.56-7.26 13.98-3.54 20.8-3.54c.78 0 1.5-.04 2.24-.17v3.06h-6.61c-5.7 0-8.22 2.29-8.22 5.35 0 3.65 4.01 7.97 7.86 7.97 1.01 0 2.22-.18 6.36-1.44.48-.17 1.01-.42 1.5-.42 1.14 0 1.92.9 1.92 2.34 0 2.22-2.1 4.56-7.08 4.56-3.66 0-7.73-1.5-12.78-7.86-.66.07-2.22.96-2.34 1.68 4.86 6.71 10.68 10.07 16.43 10.07 5.77 0 9.55-3.17 9.55-7.5a7.17 7.17 0 00-7.08-7.07c-.72 0-1.68.25-2.4.42-3.11.9-4.38 1.2-5.35 1.2-1.5 0-2.75-1.08-2.75-2.64 0-1.69.96-2.7 4.8-2.7h9.84l.36-.42c-.18-2.75-.18-4.86-.18-7.93 2.64-1.5 4.32-4.01 4.32-6.95a7.66 7.66 0 00-7.8-7.73c-.96 0-2.27.17-3.77.59a18.3 18.3 0 01-5.29 1.08c-1.62 0-3.12-1.74-3.12-3.36 0-1.67 1.73-2.81 5.22-2.81h11.34l.42-.43c-.12-2.28-.18-4.5-.18-6.78v-1.43h7.56l.42-.49c-.23-1.2-.78-2.45-1.38-3.42H-.95l-.43.42c.24 1.2.79 2.45 1.38 3.48h23.58v4.44h-8.16c-5.4 0-8.34 2.4-8.34 5.52 0 4.14 4.44 9.19 8.51 9.19 1.2 0 2.83-.32 5.6-1.14 1.97-.61 3.17-.91 3.89-.91 1.33 0 2.15 1.08 2.15 2.64 0 2.64-2.32 5.45-7.96 5.45-4.57 0-9.25-2.1-14.41-8.87a3.06 3.06 0 00-2.28 1.68zm0 0"/></symbol><symbol overflow="visible" id="c6628d33h"><path d="M31.56 9.13l-5.1-9.36c1.85-1.15 3.12-2.7 3.12-4.33 0-2.58-3.78-5.1-6.24-5.1-1.92 0-3 1.44-3 3.54 0 .78.3 1.8.72 2.76-1.56.6-3.3.95-4.92.95-1.27 0-2.64-.1-3.72-.82A6.06 6.06 0 019.78-8.1c0-2.29 1.56-5.11 7.99-5.11 1.73 0 3.82.3 5.93.72l.43-.43c-.25-1.6-.68-2.93-1.4-4.25a32.47 32.47 0 00-6.1-.65c-2.77 0-4.99.4-6.72 1.18-1.4-1.3-2.35-2.68-2.35-4.18 0-2.4 1.8-3.32 5.58-3.32h11.94l.48-.42c-.12-2.45-.25-5.03-.25-8.32h7.33l.42-.49c-.25-1.2-.78-2.45-1.37-3.42H-.95l-.43.42c.24 1.2.79 2.45 1.38 3.48h20.52v4.44h-9.24c-5.05 0-8.47 2.46-8.47 6.36 0 2.45 1.63 5.03 4.14 7.31a7.06 7.06 0 00-2.33 5.29c0 6.3 7.02 11.34 14.16 11.34 1.44 0 2.88-.24 4.27-.6l3.65 9.9a9.36 9.36 0 004.86-2.04zm0 0"/></symbol><symbol overflow="visible" id="c6628d33i"><path d="M25.14-32.05v-.83h9.17l.38-.48c-.25-1.2-.74-2.45-1.33-3.42H-.95l-.43.42c.24 1.2.79 2.45 1.38 3.48h20.45v6.43h-6.17c-7.86 0-11.22 4.43-11.22 9.53 0 6.42 6.78 13.69 15.72 13.69.72 0 1.38-.07 2.03-.13V.36H15.6C8.58.36 5.05 4.26 5.05 9.13c0 5.68 5.87 12.46 13.73 12.46 6.13 0 9.49-3.65 9.49-7.5 0-3.3-3.07-7.3-7.14-7.3-3.97 0-6.49 2.7-6.49 6.16 0 1.82.9 3.43 2.4 5.05v.13c-1.56-.13-3.18-.55-3.96-1.08a8.63 8.63 0 01-3.66-7.03c0-3.18 1.86-5.64 7.27-5.64h8.03l.36-.36c-.13-3.24-.17-4.8-.17-8.7a7.44 7.44 0 003.95-6.6c0-3.66-3.23-7.86-7.67-7.86-4.27 0-7.03 2.94-7.03 6.6 0 1.8.84 3.73 2.64 5.46v.06c-1.86-.12-3.96-.6-4.8-1.2a10.45 10.45 0 01-4.31-7.98c0-3.11 1.73-6 7.6-6h9.66l.43-.43c-.18-3.59-.24-5.28-.24-9.42zM18.3-10.98c0-3.11 1.98-4.61 3.97-4.61 1.54 0 2.93 1.01 2.93 2.8 0 2.48-1.86 5.16-5.93 5.71a10 10 0 01-.97-3.9zm.12 25.39c0-2.83 1.99-4.4 4.02-4.4 1.62 0 2.47 1.15 2.47 2.77 0 2.28-2.05 4.67-5.64 5.22a9.24 9.24 0 01-.85-3.6zm0 0"/></symbol><symbol overflow="visible" id="c6628d33j"><path d="M24.6-5.22a15.06 15.06 0 005.52-4.26 8.2 8.2 0 00-3.48-3.36 14.3 14.3 0 01-10.92 4.86c-1.5 0-3.06-.24-4.31-.96a7.84 7.84 0 01-3.85-6.9c0-3.66 2.64-5.82 8.16-5.82h8.76l.47-.36c-.23-3.48-.23-5.34-.23-9.48v-1.38h7.69l.36-.48c-.25-1.2-.72-2.45-1.33-3.42H-.96l-.42.42c.24 1.2.79 2.45 1.38 3.48h20.05v6.72h-5.6c-7.14 0-11.68 3.6-11.68 9.36 0 7.32 7.25 12.9 14.64 12.9 1.07 0 2.09-.05 3.04-.18V0h-3.72C9.13 0 5.64 3.78 5.64 8.4c0 5.7 5.77 11.29 13.14 11.29 4.02 0 7.86-1.92 10.31-4.99a5.99 5.99 0 00-3.17-3.25c-2.47 2.9-5.87 4.4-8.64 4.4-1.44 0-3.06-.2-4.33-1.04a6.16 6.16 0 01-2.93-5.39c0-2.94 1.92-5.22 7.39-5.22h7.01l.42-.42c-.25-3.36-.25-4.98-.25-9zm0 0"/></symbol><symbol overflow="visible" id="c6628d33k"><path d="M17.16-19.31c-2.16 0-4.68.53-6.85 1.6a4.55 4.55 0 01-1.37-3.1c0-1.88 1.75-3.49 6.48-3.49H27l.48-.42c-.12-2.47-.18-4.98-.18-8.16h7.2l.42-.48c-.23-1.2-.78-2.45-1.37-3.42H-.95l-.43.42c.24 1.2.79 2.45 1.38 3.48h22.44v4.26h-8.7c-5.65 0-9.47 2.7-9.47 6.3 0 2.46 1.18 4.55 3.23 6.48a9.83 9.83 0 00-3.42 7.62c0 7.31 6.36 14.28 21.12 17.1.66-.96.9-1.93 1.02-3.36C15 3.36 9-1.8 9-7.5c0-5.4 4.8-7.98 9.36-7.98 1.5 0 2.77.18 3.78.54a936.3 936.3 0 01-7.37 6.66c-1.14 1.14-1.63 2.15-1.63 3.12 0 2.64 3.72 3.85 6.06 3.85 1.38 0 2.35-.61 2.35-2.11a7 7 0 00-1.27-3.9l-.36-.6c1.74-1.8 3.42-3.42 5.03-5.03.97 1.18 1.27 2.75 1.27 4.37 0 2.52-.66 4.74-1.67 6.66a6.43 6.43 0 003.4 3l.55-.06c1.8-2.7 2.45-5.52 2.45-8.04 0-6.67-5.87-12.3-13.8-12.3zm0 0"/></symbol><symbol overflow="visible" id="c6628d33l"><path d="M20.05-12.48c-4.1 0-7.33 2.21-7.33 5.7 0 4.73 4.98 7.5 8.87 7.5 2.05 0 3.91-.66 4.99-1.63h.19v3.13c1.25.65 2.75 1.14 4.18 1.44l.49-.36c-.24-3.53-.3-7.08-.3-10.61 0-6.38-5.94-12-13.73-12-2.22 0-4.82.53-7.1 1.6a4.85 4.85 0 01-1.37-3.1c0-1.88 1.75-3.49 6.48-3.49H27l.48-.42c-.12-2.47-.18-4.98-.18-8.16h7.8l.42-.48c-.3-1.2-.79-2.45-1.38-3.42H-.96l-.42.42c.24 1.2.79 2.45 1.38 3.48h22.44v4.26h-8.7c-5.65 0-9.47 2.7-9.47 6.3 0 2.46 1.18 4.55 3.23 6.48a9.46 9.46 0 00-3.42 7.43c0 7.33 6.3 14.6 21.19 18.07.65-1.02.89-1.93 1.01-3.43C14.94 3.48 8.94-1.69 8.94-7.8c0-5.1 4.98-7.68 9.42-7.68 4.73 0 7.37 2.1 8.16 5.04l-.11.06a11.14 11.14 0 00-6.36-2.1zm-1.82 9.3c-.71-.54-.95-1.68-.95-2.4 0-2.22 2.16-3.3 4.74-3.3 1.68 0 3.36.43 4.75 1.2v1.2a7.5 7.5 0 01-6.49 3.71c-.9 0-1.62-.17-2.05-.42zm0 0"/></symbol><symbol overflow="visible" id="c6628d33m"><path d="M26.05 7.08l-5.11-9.49c1.56-.95 2.7-2.28 2.7-3.89 0-2.83-3.55-4.86-5.87-4.86-1.75 0-2.7 1.08-2.7 3.07 0 .65.16 1.67.52 2.57-.89.36-1.8.54-2.64.54-1.97 0-3.4-.54-4.43-1.61a5.62 5.62 0 01-1.44-3.91c0-3 3.06-5.58 7.2-8.05a39 39 0 0015.06 4.03c.43 3.24 4.86 7.61 7.93 7.61 1.6 0 2.8-1.37 2.8-4.96v-1.7h13.74C57.2-9.11 61.5-7.01 66-7.01c2.45 0 5.4-.71 7.5-2.4l.13.06v8.58C75-.06 76.86.48 78.36.72l.48-.36c-.25-3.6-.3-7.67-.3-11.88v-21.36h6.77l.42-.48c-.23-1.2-.78-2.45-1.37-3.42H23.64l-.42.42c.23 1.2.78 2.45 1.37 3.48h9.91l.66 13.74c-1.8.06-3.85.12-5.7.12-4.87 0-8.88-.67-12.05-1.8v-.12c3.23-2.1 4.9-4.86 4.9-7.56 0-4.14-3.89-9.13-9.53-9.13-3.78 0-7.86 2.35-7.86 7.57 0 3.48 2.03 6.42 5.03 8.76v.11c-4.37 2.4-7.54 5.64-7.54 9.61C2.4-6.3 7.98-.9 15.06-.9c.85 0 1.67-.1 2.52-.3l3.84 10.34c1.8-.07 3.85-.91 4.63-2.05zM9.55-29.34c0-2.7 1.9-4.61 4.25-4.61 1.2 0 2.22.4 2.93 1.18A4.07 4.07 0 0118-29.7c0 2.4-1.98 4.86-5.05 6.48-2.22-1.69-3.4-3.78-3.4-6.12zm50.03 2.1c0 3.11-3.06 4.44-8.22 5.7-.48.84-.6 1.74-.55 2.63.19.43.38.85.61 1.27-3.65-.13-7.69-.3-11.51-.36-.07-4.2-.32-9.95-.61-14.88h17.64c1.8 1.93 2.64 3.83 2.64 5.65zm1.62-5.53v-.1h12.42v16.85a10.36 10.36 0 01-8.53 4.8c-4.54 0-7.73-2.34-9-7.01 5.47-1.5 8.28-3.97 8.28-7.4 0-2.68-1.37-5.15-3.17-7.14zm0 0"/></symbol><symbol overflow="visible" id="c6628d33n"><path d="M32.16-15.19l-.18-4.73a37.8 37.8 0 01-9.54 1.14c-2.28 0-4.57-.17-6.66-.49.6-1.96.85-4.25.85-6.82 0-1.86-.13-4.5-.43-6.79h15.9l.42-.48c-.3-1.2-.79-2.45-1.38-3.42H-.96l-.42.42c.24 1.2.79 2.45 1.38 3.48h11.94v3.66c0 3.13-.17 5.52-.72 7.56H7.98c-3 0-4.32 1.32-4.32 3.3 0 6.17 8.76 15.42 18.84 19.5 1.27-.72 1.73-2.05 1.73-3.3-5.93-3.12-10.5-6.54-12.95-11.4a7.2 7.2 0 002.94-2.46 41.39 41.39 0 0017.94.83zm0 0"/></symbol><symbol overflow="visible" id="c6628d33o"><path d="M34.5-36.78H-.95l-.43.42c.24 1.2.79 2.45 1.38 3.48h23.7v7.86h-8.4c-8.58 0-13.02 3.36-13.02 9.43 0 5.21 4.2 11.28 9.78 16.07 1.2-.42 2.16-1.2 2.52-2.1-4.63-5.29-7.08-9.3-7.08-12.9 0-4.43 3.42-6 9.72-6 2.05 0 4.26.11 6.48.3V-.78c1.38.72 3.24 1.26 4.74 1.5l.48-.36c-.23-3.6-.3-7.67-.3-11.88v-21.36h6.83l.42-.48c-.3-1.2-.78-2.45-1.37-3.42zm0 0"/></symbol><symbol overflow="visible" id="c6628d33p"><path d="M24.66-11.05v-1.6c3.84-3.62 6.78-5.16 9.42-5.16 1.37 0 2.34.3 3.23.89 1.2 6.12 9.38 14.28 18.67 18.06 1.25-.72 1.74-2.05 1.74-3.3-5.94-3.12-10.5-6.54-12.95-11.4a7.3 7.3 0 002.93-2.46 40.6 40.6 0 0010.74 1.44c1.98 0 4.01-.12 6-.42a12.41 12.41 0 0010.8 6.36c1.2 0 3.42-.17 5.76-1.44C82.98-6.59 86.52-2.94 91.56.55a5.46 5.46 0 002.28-2.64c-7.32-5.29-9.65-10.2-9.65-13.5 0-3.2 2.15-5.29 4.86-5.29 1.67 0 3.4.9 4.97 2.7-.18.73-.3 1.5-.3 2.34 0 1.26.12 2.57.42 3.78a8.44 8.44 0 004.38 2.34l.54-.42a14.73 14.73 0 01-.54-3.78c0-4.14 2.4-6.9 5.7-6.9 1.14 0 2.1.24 3 .66V-.78a16.1 16.1 0 004.73 1.5l.42-.36c-.17-3.6-.23-7.67-.23-11.88v-21.36h6.78l.42-.48c-.25-1.2-.78-2.45-1.39-3.42H-.95l-.43.42c.24 1.2.79 2.45 1.38 3.48h19.8v8.76l-.18.06a13.43 13.43 0 00-7.85-2.64c-5.11 0-10.27 3.12-10.27 9.18 0 6.6 6 10.68 11.05 10.68 2.15 0 4.86-.72 7.07-2.4l.18.12v8.34a16.2 16.2 0 004.75 1.5l.4-.36c-.23-3.6-.3-7.2-.3-11.4zm63.06-14.22a8.48 8.48 0 00-8.7 8.54c0 .78.06 1.5.25 2.28a9.25 9.25 0 01-5.22 1.54c-2.05 0-3.9-.53-4.86-1.6-1.1-1.27-1.5-3.91-1.5-6.49v-11.88h39.53v9h-.13a8.55 8.55 0 00-4.01-1.03 9.64 9.64 0 00-7.56 3.55c-2.22-2.7-4.86-3.9-7.8-3.9zM32.94-22.3c-3.17 0-5.88 1.37-8.1 3.23l-.18-.06v-13.73h20.76v3.65c0 3.13-.19 5.52-.72 7.56h-3.25a5.3 5.3 0 00-3.23.85 9.63 9.63 0 00-5.28-1.5zm17.15-3.78c0-1.86-.1-4.5-.4-6.79h13.08v11.52c0 .66.04 1.31.17 1.98-2.28.43-4.63.6-7.02.6-2.28 0-4.56-.17-6.65-.49.59-1.96.82-4.25.82-6.82zM8.05-11.7a5.65 5.65 0 01-1.7-4.32c0-4.5 3.37-6.48 6.92-6.48 2.39 0 4.5.84 6.53 2.22v4.69c-2.35 2.8-5.88 4.67-8.88 4.67-1.2 0-2.47-.3-2.87-.78zm0 0"/></symbol><symbol overflow="visible" id="c6628d33q"><path d="M24.66-11.05v-1.6c3.84-3.62 6.78-5.16 9.42-5.16 2.34 0 3.6.95 4.92 2.62l2.4-2.1c-1.5-3.05-4.68-5.02-8.46-5.02-3.17 0-5.88 1.37-8.1 3.23l-.18-.06v-13.73h15.06l.42-.49a12 12 0 00-1.33-3.42H-.95l-.43.42c.24 1.2.79 2.45 1.38 3.48h19.8v8.76l-.18.06a13.43 13.43 0 00-7.85-2.64c-5.11 0-10.27 3.12-10.27 9.18 0 6.6 6 10.68 11.05 10.68 2.15 0 4.86-.72 7.07-2.4l.18.12v8.34a16.2 16.2 0 004.75 1.5l.4-.36c-.23-3.6-.3-7.2-.3-11.4zM8.05-11.7a5.65 5.65 0 01-1.7-4.32c0-4.5 3.37-6.48 6.92-6.48 2.39 0 4.5.84 6.53 2.22v4.69c-2.35 2.8-5.88 4.67-8.88 4.67-1.2 0-2.47-.3-2.87-.78zm0 0"/></symbol><symbol overflow="visible" id="c6628d33r"><path d="M5.95-6.77H1.1V0h.99v-2.92H5.3v-.77H2.08v-2.26h3.87zm0 0"/></symbol><symbol overflow="visible" id="c6628d33s"><path d="M5.75-2.23v-.43c0-1.6-.9-2.51-2.42-2.51S.87-4.16.87-2.48c0 1.71.91 2.62 2.5 2.62 1.43 0 2.07-.56 2.29-1.52l-.9-.09c-.18.61-.59.9-1.35.9-.94 0-1.52-.54-1.58-1.66zm-2.4-2.2c.93 0 1.43.5 1.48 1.55H1.84c.08-1.07.6-1.56 1.5-1.56zm0 0"/></symbol><symbol overflow="visible" id="c6628d33t"><path d="M2.83.14c.94 0 1.5-.39 1.81-.95h.08l.1.81h.76v-3.38c0-1.23-.69-1.8-2.13-1.8-1.43 0-2.03.65-2.18 1.6l.93.1c.11-.6.44-.93 1.22-.93.85 0 1.22.32 1.22 1.04v.34l-1.81.2C1.6-2.7 1.1-2.17 1.1-1.28c0 .92.64 1.42 1.72 1.42zm.25-.77c-.67 0-1.02-.28-1.02-.74 0-.44.28-.72 1-.82l1.58-.19v.41c0 .8-.6 1.34-1.56 1.34zm0 0"/></symbol><symbol overflow="visible" id="c6628d33u"><path d="M5.52-4.25v-.77H3.17v-1.56h-.81l-.14 1.56H.75v.77h1.47v2.4c0 1.3.48 1.94 1.84 1.94C4.6.1 5.14 0 5.55-.14L5.4-.91c-.32.13-.72.2-1.13.2-.8 0-1.1-.37-1.1-1.23v-2.31zm0 0"/></symbol><symbol overflow="visible" id="c6628d33v"><path d="M2.73.14c.9 0 1.43-.45 1.74-1.08h.06l.13.94h.8v-5.02h-.94v2.7c0 .98-.57 1.62-1.46 1.62-.75 0-1.1-.4-1.1-1.22v-3.1h-.93v3.32c0 1.17.55 1.84 1.7 1.84zm0 0"/></symbol><symbol overflow="visible" id="c6628d33w"><path d="M5.08-5.16c-.94 0-1.58.43-1.9 1.3h-.09l-.07-1.16H1.05v.77h1.1v3.48H.96V0h3.96v-.77H3.1v-1.46c0-1.36.6-2.05 1.83-2.05.4 0 .76.08 1.1.17l.15-.87c-.33-.11-.7-.18-1.11-.18zm0 0"/></symbol><symbol overflow="visible" id="c6628d33x"><path d="M3.33-3.42c.47 0 .8-.27.8-.8 0-.51-.33-.8-.8-.8-.47 0-.8.29-.8.8 0 .53.33.8.8.8zm0 3.5c.47 0 .8-.27.8-.78 0-.53-.33-.82-.8-.82-.47 0-.8.29-.8.82 0 .51.33.78.8.78zm0 0"/></symbol><symbol overflow="visible" id="c6628d33z"><path d="M6.17 0L3.98-6.77h-1.3L.5 0h.97l.44-1.47h2.78L5.16 0zM3.28-5.94h.08l1.1 3.74H2.15zm0 0"/></symbol><symbol overflow="visible" id="c6628d33A"><path d="M2.44 0l.87-3.31h.06L4.25 0H5.3l1.03-5.02h-.88l-.73 3.94h-.08L3.77-4.4h-.85l-.87 3.33h-.08l-.75-3.94H.34L1.36 0zm0 0"/></symbol><symbol overflow="visible" id="c6628d33B"><path d="M3.58-5.81c.42 0 .72-.22.72-.67 0-.44-.3-.68-.72-.68-.44 0-.72.24-.72.68 0 .45.28.67.72.67zm.5.8H1.52v.76h1.6v3.48h-1.8V0h4.46v-.77h-1.7zm0 0"/></symbol><symbol overflow="visible" id="c6628d33C"><path d="M2.84.14C3.8.14 4.33-.26 4.6-.9h.07L4.8 0h.76v-7.14h-.95v2.95h-.08c-.28-.6-.86-.97-1.67-.97-1.48 0-2.27.99-2.27 2.64C.6-.84 1.36.14 2.84.14zm.22-.8c-.98 0-1.48-.59-1.48-1.84s.5-1.86 1.48-1.86c1.13 0 1.58.8 1.58 1.86S4.2-.66 3.06-.66zm0 0"/></symbol><symbol overflow="visible" id="c6628d33D"><path d="M2.16 0v-2.67c0-.99.59-1.63 1.46-1.63.74 0 1.07.38 1.07 1.22V0h.95v-3.31c0-1.2-.56-1.85-1.67-1.85-.92 0-1.49.46-1.77 1.08h-.06l-.12-.94H1.2V0zm0 0"/></symbol><symbol overflow="visible" id="c6628d33E"><path d="M3.16 2.03c1.67 0 2.4-.86 2.4-2.51v-4.54h-.81l-.13.91h-.06c-.26-.58-.8-1.05-1.73-1.05-1.42 0-2.24 1-2.24 2.52 0 1.6.75 2.56 2.2 2.56.94 0 1.5-.5 1.77-1.03h.05v.72c0 1.17-.42 1.67-1.45 1.67-.93 0-1.3-.34-1.41-.89L.8.5c.12.96.87 1.54 2.36 1.54zM3.06-.8c-.98 0-1.48-.57-1.48-1.82 0-1.13.5-1.75 1.48-1.75 1.06 0 1.58.76 1.58 1.75 0 .95-.56 1.82-1.58 1.82zm0 0"/></symbol><symbol overflow="visible" id="c6628d33F"><path d="M3.33.14c1.62 0 2.5-.95 2.5-2.66 0-1.68-.88-2.64-2.5-2.64-1.63 0-2.5.96-2.5 2.64 0 1.7.87 2.66 2.5 2.66zm0-.77c-1.06 0-1.52-.6-1.52-1.89 0-1.28.46-1.87 1.52-1.87 1.08 0 1.53.6 1.53 1.87 0 1.29-.45 1.9-1.53 1.9zm0 0"/></symbol><symbol overflow="visible" id="c6628d33G"><path d="M4.63-6.5c.45 0 .98.08 1.39.2l.2-.72a5.3 5.3 0 00-1.64-.26c-1.52 0-2.16.56-2.16 1.87v.4H.9v.76h1.53V0h.94v-4.25h2.53v-.77H3.36v-.3c0-.84.33-1.18 1.27-1.18zm0 0"/></symbol><symbol overflow="visible" id="c6628d33H"><path d="M3.34.14c1.43 0 2.13-.66 2.25-1.78l-.89-.1c-.1.7-.5 1.08-1.34 1.08-1.03 0-1.52-.64-1.52-1.84 0-1.23.47-1.86 1.52-1.86.84 0 1.23.36 1.34 1.08l.9-.1c-.13-1.09-.82-1.78-2.26-1.78-1.56 0-2.46.97-2.46 2.66 0 1.66.9 2.64 2.46 2.64zm0 0"/></symbol><symbol overflow="visible" id="c6628d33I"><path d="M4.14-7.16c-.44 0-.72.24-.72.68 0 .45.28.67.72.67.42 0 .72-.22.72-.67 0-.44-.3-.68-.72-.68zm-2.8 2.14v.77h2.33v4.16c0 .95-.36 1.28-1.28 1.28-.4 0-.89-.08-1.23-.22l-.22.78c.42.17 1.1.28 1.6.28 1.55 0 2.08-.67 2.08-2.1v-4.95zm0 0"/></symbol><symbol overflow="visible" id="c6628d33J"><path d="M3.36.16c1.4 0 2.2-.6 2.2-1.57 0-.89-.54-1.22-1.47-1.39L3-3c-.67-.14-.86-.33-.86-.73 0-.5.4-.74 1.17-.74.83 0 1.19.27 1.27.8l.9-.05c-.12-1-.8-1.47-2.17-1.47-1.34 0-2.1.53-2.1 1.5 0 .81.45 1.22 1.52 1.44l1.04.2c.56.11.87.24.87.72 0 .52-.45.78-1.28.78-.95 0-1.36-.28-1.42-.87l-.9.06C1.07-.36 1.8.16 3.35.16zm0 0"/></symbol></defs><g fill="#fff"><use xlink:href="#c6628d33a" x="18.12" y="115"/><use xlink:href="#c6628d33b" x="72.18" y="115"/><use xlink:href="#c6628d33c" x="124.56" y="115"/><use xlink:href="#c6628d33d" x="174.78" y="115"/><use xlink:href="#c6628d33e" x="221.1" y="115"/><use xlink:href="#c6628d33f" x="268.98" y="115"/><use xlink:href="#c6628d33g" x="315.3" y="115"/><use xlink:href="#c6628d33h" x="363.48" y="115"/><use xlink:href="#c6628d33i" x="408.72" y="115"/><use xlink:href="#c6628d33j" x="455.64" y="115"/><use xlink:href="#c6628d33k" x="500.64" y="115"/><use xlink:href="#c6628d33l" x="547.74" y="115"/><use xlink:href="#c6628d33m" x="112.8" y="195"/><use xlink:href="#c6628d33n" x="210.72" y="195"/><use xlink:href="#c6628d33o" x="238.44" y="195"/><use xlink:href="#c6628d33p" x="286.5" y="195"/><use xlink:href="#c6628d33q" x="418.02" y="195"/><use xlink:href="#c6628d33o" x="452.7" y="195"/><g><use xlink:href="#c6628d33r" x="186.6667" y="266"/><use xlink:href="#c6628d33s" x="193.3337" y="266"/><use xlink:href="#c6628d33t" x="200.0007" y="266"/><use xlink:href="#c6628d33u" x="206.6677" y="266"/><use xlink:href="#c6628d33v" x="213.3347" y="266"/><use xlink:href="#c6628d33w" x="220.0017" y="266"/><use xlink:href="#c6628d33s" x="226.6687" y="266"/><use xlink:href="#c6628d33x" x="233.3357" y="266"/><use xlink:href="#c6628d33y" x="240.0027" y="266"/><use xlink:href="#c6628d33z" x="246.6697" y="266"/><use xlink:href="#c6628d33y" x="253.3367" y="266"/><use xlink:href="#c6628d33A" x="260.0037" y="266"/><use xlink:href="#c6628d33B" x="266.6707" y="266"/><use xlink:href="#c6628d33C" x="273.3377" y="266"/><use xlink:href="#c6628d33s" x="280.0047" y="266"/><use xlink:href="#c6628d33y" x="286.6717" y="266"/><use xlink:href="#c6628d33w" x="293.3387" y="266"/><use xlink:href="#c6628d33t" x="300.0057" y="266"/><use xlink:href="#c6628d33D" x="306.6727" y="266"/><use xlink:href="#c6628d33E" x="313.3397" y="266"/><use xlink:href="#c6628d33s" x="320.0067" y="266"/><use xlink:href="#c6628d33y" x="326.6737" y="266"/><use xlink:href="#c6628d33F" x="333.3407" y="266"/><use xlink:href="#c6628d33G" x="340.0077" y="266"/><use xlink:href="#c6628d33y" x="346.6747" y="266"/><use xlink:href="#c6628d33H" x="353.3417" y="266"/><use xlink:href="#c6628d33F" x="360.0087" y="266"/><use xlink:href="#c6628d33D" x="366.6757" y="266"/><use xlink:href="#c6628d33I" x="373.3427" y="266"/><use xlink:href="#c6628d33v" x="380.0097" y="266"/><use xlink:href="#c6628d33D" x="386.6767" y="266"/><use xlink:href="#c6628d33H" x="393.3437" y="266"/><use xlink:href="#c6628d33u" x="400.0107" y="266"/><use xlink:href="#c6628d33J" x="406.6777" y="266"/></g></g></svg>