<?xml version='1.0' encoding='UTF-8'?>
<svg xmlns="http://www.w3.org/2000/svg" xmlns:xlink="http://www.w3.org/1999/xlink" width="310px" height="280px" viewBox="0 0 310 280" x="0px" y="0px" enable-background="new 0 0 310 280"><defs><symbol overflow="visible" id="45919c9ea"><path d="M35.34-14.81l-.5-6.42a36.02 36.02 0 01-9.95 1.45c-2.14 0-4.36-.25-6.44-.63.4-1.76.58-3.65.58-5.67 0-1.89-.19-4.8-.58-7.31h17.08l.56-.63a13.14 13.14 0 00-2.01-4.6H-1.45l-.57.57c.44 1.77 1.15 3.4 2.02 4.66h12.22v2.64c0 3.9-.13 6.19-.63 8H7.94c-3.03 0-4.53 1.64-4.53 3.66 0 7.18 10.2 17.2 20.65 20.67a5.2 5.2 0 002.4-4.35c-6.8-3.71-11.02-7-12.91-10.9a7.78 7.78 0 002.7-2.2c3.9 1.14 7.44 1.89 11.4 1.89 2.4 0 5-.25 7.7-.83zm0 0"/></symbol><symbol overflow="visible" id="45919c9eb"><path d="M20.66-8.06l.2.12V-.8c1.95 1 4.66 1.62 6.86 1.89l.62-.52c-.3-3.78-.37-8.06-.37-12.47v-.87c3.9-3.66 6.94-5.74 9.64-5.74 1.77 0 2.64 1.07 2.64 2.7 0 2.96-2.9 6.87-7.36 9.59.81 2.2 2.2 4.15 4.28 5.36 6.17-3.54 9.2-8.33 9.2-13.18 0-5.86-4.35-10.51-10.59-10.51-2.64 0-5.03.93-7.56 2.7l-.25-.12V-33.4h21.8l.57-.63a16.8 16.8 0 00-2.01-4.6H-1.45l-.57.57c.44 1.77 1.15 3.4 2.02 4.66h20.86v7.94l-.2.06a13.81 13.81 0 00-8.2-2.7c-5.6 0-11.13 3.53-11.13 10.07 0 7.32 6.8 12.04 12.6 12.04 2.13 0 4.79-.7 6.73-2.08zM9.2-12.16c-.7-.56-1.07-1.7-1.07-3.21 0-4.35 3.28-6.93 7.06-6.93 1.89 0 3.45.63 5.67 1.7v3.77c-2.78 3.16-6.88 5.36-9.33 5.36-1.01 0-1.83-.19-2.33-.69zm0 0"/></symbol><symbol overflow="visible" id="45919c9ec"><path d="M-1.45-38.63l-.57.58c.44 1.77 1.15 3.4 2.02 4.66h6.05V-.81C8 .19 10.7.8 12.92 1.08l.63-.52c-.32-3.78-.38-8.25-.38-12.65v-21.3h7.3l.58-.63c-.4-1.7-1.14-3.34-2.02-4.6h-7.19L2.2-51.78c-2.51-3.4-5.54-5.42-9.64-5.42-2.33 0-6.1.93-8.5 1.83a9.45 9.45 0 002.64 6.48c2.02-.81 4.49-1.64 6.57-1.64 2.01 0 3.7.58 5.65 2.97l7.31 8.94zm0 0"/></symbol><symbol overflow="visible" id="45919c9ed"><path d="M11.84-26.45c-6.17 0-9.64 4.47-9.64 9.18 0 5.86 4.92 12.55 13.93 18.54a7.66 7.66 0 003.15-3.54C12.03-7.8 9.77-12.78 9.77-15.8c0-2.9 2.07-4.4 4.28-4.4 1.39 0 2.78.62 3.9 1.94-.12.7-.18 1.38-.18 2.08 0 1.13.12 2.58.43 3.85a14.34 14.34 0 006.18 2.51l.7-.5a15.71 15.71 0 01-.52-3.65c0-3.6 1.83-6.24 5.36-6.24.5 0 .95.06 1.45.19V-.81c1.96 1 4.72 1.62 6.86 1.89l.65-.52c-.32-3.78-.38-8.25-.38-12.65v-21.3h7.36l.52-.63c-.4-1.7-1.15-3.34-2.02-4.6H-1.45l-.57.57c.44 1.77 1.15 3.4 2.02 4.66h31.38v8.44h-.13a8.28 8.28 0 00-3.66-.88c-2.89 0-5.6 1.19-7.43 3.28-2.2-2.47-4.72-3.9-8.32-3.9zm0 0"/></symbol><symbol overflow="visible" id="45919c9ee"><path d="M-1.45-38.63l-.57.58c.44 1.77 1.15 3.4 2.02 4.66h6.05V-.81C8 .19 10.7.8 12.92 1.08l.63-.52c-.32-3.78-.38-8.25-.38-12.65v-21.3h7.3l.58-.63c-.4-1.7-1.14-3.34-2.02-4.6zm0 0"/></symbol><symbol overflow="visible" id="45919c9ef"><path d="M26.72-38.63H-1.45l-.57.58c.44 1.77 1.15 3.4 2.02 4.66h12.22v2.64c0 3.9-.13 6.19-.63 8H7.94c-3.03 0-4.53 1.64-4.53 3.66 0 7.18 10.2 17.2 20.65 20.67a5.2 5.2 0 002.4-4.35c-6.8-3.71-11.02-7-12.91-10.9 4.15-2.08 5.48-6.86 5.48-12.4 0-1.9-.19-4.8-.58-7.32h9.7l.58-.63a16.8 16.8 0 00-2.01-4.6zm0 0"/></symbol><symbol overflow="visible" id="45919c9eg"><path d="M4.02.17c2.01 0 3.15-.89 3.15-2.4 0-1.35-.8-1.93-2.33-2.24L3.67-4.7c-1.01-.2-1.44-.58-1.44-1.35 0-.83.66-1.3 1.88-1.3 1.17 0 1.75.4 1.94 1.46L7.15-6c-.2-1.53-1.21-2.28-3-2.28-1.96 0-3.04.87-3.04 2.31 0 1.28.75 1.99 2.2 2.28l1.22.24c1.02.2 1.52.5 1.52 1.3 0 .9-.72 1.4-2 1.4-1.33 0-1.94-.47-2.11-1.48l-1.11.1C1-.6 1.98.17 4.02.17zm0 0"/></symbol><symbol overflow="visible" id="45919c9eh"><path d="M6.92-6.02H5.55L2.78-3.45H2.7v-5.13H1.56V0H2.7v-2.78h.08L5.64 0h1.5L3.88-3.22zm0 0"/></symbol><symbol overflow="visible" id="45919c9ei"><path d="M4 .17c1.95 0 3-1.14 3-3.19 0-2.03-1.05-3.17-3-3.17S1-5.05 1-3.02C1-.97 2.05.18 4 .18zm0-.92c-1.28 0-1.83-.72-1.83-2.27 0-1.53.55-2.25 1.83-2.25s1.83.72 1.83 2.25C5.83-1.47 5.28-.75 4-.75zm0 0"/></symbol><symbol overflow="visible" id="45919c9ej"><path d="M4.7-8.58H1.64v.92h1.92v6.74h-2.2V0h5.47v-.92H4.7zm0 0"/></symbol><symbol overflow="visible" id="45919c9ek"><path d="M3.4.17C4.51.17 5.2-.3 5.57-.97h.08l.12.97h.9v-4.05c0-1.48-.82-2.15-2.54-2.15-1.73 0-2.44.75-2.6 1.9l1.1.11c.13-.7.52-1.1 1.47-1.1 1.01 0 1.47.37 1.47 1.23v.42l-2.17.23c-1.49.18-2.08.82-2.08 1.86 0 1.13.76 1.72 2.06 1.72zm.29-.92c-.81 0-1.2-.33-1.2-.9 0-.52.32-.87 1.2-.96l1.89-.23v.48c0 .95-.75 1.61-1.9 1.61zm0 0"/></symbol><symbol overflow="visible" id="45919c9el"><path d="M6.1-6.19c-1.12 0-1.9.52-2.3 1.57h-.08l-.11-1.4H1.27v.91h1.32v4.19H1.14V0H5.9v-.92H3.73v-1.75c0-1.64.7-2.46 2.2-2.46.48 0 .91.08 1.32.2l.17-1.05c-.39-.13-.83-.2-1.33-.2zm0 0"/></symbol><symbol overflow="visible" id="45919c9en"><path d="M1.1-8.1V0h2.54c2.44 0 3.63-1.25 3.63-4.05 0-2.84-1.2-4.06-3.52-4.06zM2.29-.96v-6.2H3.7c1.55 0 2.36.74 2.36 3.1 0 2.35-.81 3.1-2.36 3.1zm0 0"/></symbol><symbol overflow="visible" id="45919c9eo"><path d="M6.9-2.69v-.5C6.9-5.13 5.82-6.2 4-6.2 2.17-6.2 1.06-5 1.06-2.98c0 2.06 1.08 3.15 3 3.15C5.75.17 6.52-.5 6.8-1.64l-1.08-.13c-.24.75-.7 1.07-1.64 1.07-1.11 0-1.81-.64-1.88-1.99zM4-5.33c1.14 0 1.75.61 1.8 1.88H2.22c.1-1.28.7-1.88 1.78-1.88zm0 0"/></symbol><symbol overflow="visible" id="45919c9ep"><path d="M4.66 0l2.42-6.02H5.92L4.1-1.12h-.07l-1.86-4.9H.92L3.34 0zm0 0"/></symbol><symbol overflow="visible" id="45919c9eq"><path d="M2.6 0v-3.22c0-1.17.71-1.94 1.76-1.94.87 0 1.26.46 1.26 1.47V0h1.15v-3.97c0-1.45-.7-2.22-2-2.22-1.11 0-1.79.55-2.13 1.3h-.08l-.14-1.13h-.97V0zm0 0"/></symbol><symbol overflow="visible" id="45919c9er"><path d="M3.78 2.44c2 0 2.9-1.03 2.9-3.02v-5.44H5.7l-.15 1.1h-.08c-.31-.7-.95-1.27-2.08-1.27C1.7-6.19.72-5 .72-3.17c0 1.92.89 3.06 2.64 3.06 1.12 0 1.8-.6 2.1-1.22h.07v.86c0 1.4-.51 2-1.75 2-1.1 0-1.55-.4-1.67-1.06L.95.57C1.11 1.76 2 2.45 3.78 2.45zm-.1-3.4c-1.18 0-1.79-.68-1.79-2.2 0-1.34.61-2.09 1.78-2.09 1.28 0 1.9.92 1.9 2.1 0 1.15-.68 2.2-1.9 2.2zm0 0"/></symbol><symbol overflow="visible" id="45919c9es"><path d="M4.3-6.97c.5 0 .86-.28.86-.81S4.8-8.6 4.3-8.6c-.53 0-.86.28-.86.8 0 .54.33.82.86.82zm.6.95H1.82v.91h1.92v4.19H1.56V0h5.38v-.92H4.89zm0 0"/></symbol></defs><use xlink:href="#45919c9ea" x="62.453" y="145"/><use xlink:href="#45919c9eb" x="91.874" y="145"/><use xlink:href="#45919c9ec" x="138.431" y="145"/><use xlink:href="#45919c9ed" x="157.457" y="145"/><use xlink:href="#45919c9ee" x="201.809" y="145"/><use xlink:href="#45919c9ef" x="220.835" y="145"/><g fill-opacity=".33"><use xlink:href="#45919c9eg" x="87" y="230"/><use xlink:href="#45919c9eh" x="95.0004" y="230"/><use xlink:href="#45919c9ei" x="103.0008" y="230"/><use xlink:href="#45919c9ej" x="111.0012" y="230"/><use xlink:href="#45919c9ek" x="119.0016" y="230"/><use xlink:href="#45919c9el" x="127.002" y="230"/><use xlink:href="#45919c9em" x="135.0024" y="230"/><use xlink:href="#45919c9en" x="143.0028" y="230"/><use xlink:href="#45919c9eo" x="151.0032" y="230"/><use xlink:href="#45919c9ep" x="159.0036" y="230"/><use xlink:href="#45919c9ek" x="167.004" y="230"/><use xlink:href="#45919c9eq" x="175.0044" y="230"/><use xlink:href="#45919c9ek" x="183.0048" y="230"/><use xlink:href="#45919c9er" x="191.0052" y="230"/><use xlink:href="#45919c9ek" x="199.0056" y="230"/><use xlink:href="#45919c9el" x="207.006" y="230"/><use xlink:href="#45919c9es" x="215.0064" y="230"/></g></svg>