<?xml version='1.0' encoding='UTF-8'?>
<svg xmlns="http://www.w3.org/2000/svg" xmlns:xlink="http://www.w3.org/1999/xlink" width="600px" height="300px" viewBox="0 0 600 300" x="0px" y="0px" enable-background="new 0 0 600 300"><defs><symbol overflow="visible" id="d8df05baa"><path d="M11.22-11.52v-21.36h6.65l.43-.48c-.24-1.2-.78-2.45-1.38-3.42H9.91a10.97 10.97 0 01-1.99-5.81c0-4.99 5.58-8.05 14.88-8.05 10.68 0 27.84 4.14 44.7 11.94a3.99 3.99 0 001.5-2.46C53.45-49.73 35.4-54.9 22.27-54.9 9.9-54.9 3-50.4 3-44.28c0 2.87 1.56 5.51 3.36 7.37v.13H-.95l-.43.42c.24 1.2.79 2.45 1.38 3.48h6.3v32.1a16.8 16.8 0 004.75 1.5l.47-.36c-.24-3.6-.3-7.67-.3-11.88zm0 0"/></symbol><symbol overflow="visible" id="d8df05bab"><path d="M22.5 1.14c1.27-.72 1.73-2.05 1.73-3.3-5.93-3.12-10.5-6.54-12.95-11.4a7.2 7.2 0 002.94-2.46 40.6 40.6 0 0010.73 1.44c1.93 0 3.85-.12 5.77-.36 3.42 5.35 8.16 7.92 13.14 7.92 2.52 0 5.52-.71 7.56-2.4l.13.06v8.58c1.3.72 3.23 1.26 4.73 1.5l.42-.36c-.18-3.6-.25-7.67-.25-11.88v-21.36h6.78l.43-.48c-.24-1.2-.78-2.45-1.38-3.42H45.91l-.43.42c.24 1.2.79 2.45 1.38 3.48h4.69v16.86a10.27 10.27 0 01-8.64 4.8c-4.46 0-7.63-2.22-8.9-6.84 6.68-1.99 10.8-5.35 10.8-9.96 0-4.32-3.36-9.6-9.53-9.6-3.19 0-5.47 1.43-6.36 3.6-.23-.96-.72-1.98-1.2-2.76H-.95l-.43.42c.24 1.2.79 2.45 1.38 3.48h11.94v3.66c0 3.13-.17 5.52-.72 7.56H7.98c-3 0-4.32 1.32-4.32 3.3 0 6.17 8.76 15.42 18.84 19.5zm-5.88-27.23c0-1.86-.12-4.5-.42-6.79h12.43c-.07.3-.07.6-.07.9 0 3.42 2.88 5.89 6.17 6.96a3.52 3.52 0 001.33-2.1C34.2-28.2 33-29.29 33-30.91c0-1.67 1.38-2.93 3.36-2.93 2.83 0 4.02 2.57 4.02 4.62 0 4.08-4.8 6.24-11.16 7.86-.3.66-.49 1.38-.53 2.1-1.99.35-4.14.48-6.25.48-2.28 0-4.57-.13-6.66-.49.6-1.96.85-4.25.85-6.82zm0 0"/></symbol><symbol overflow="visible" id="d8df05bac"><path d="M24.72-36.78H-.95l-.43.42c.24 1.2.79 2.45 1.38 3.48h11.94v3.66c0 3.13-.17 5.52-.72 7.56H7.98c-3 0-4.32 1.32-4.32 3.3 0 6.17 8.76 15.42 18.84 19.5 1.27-.72 1.73-2.05 1.73-3.3-5.93-3.12-10.5-6.54-12.95-11.4 3.9-1.86 5.35-6.53 5.35-12.53 0-1.86-.13-4.5-.43-6.79h9.43l.42-.48c-.25-1.2-.78-2.45-1.33-3.42zm0 0"/></symbol><symbol overflow="visible" id="d8df05bad"><path d="M-24.23-48.78c-2.18 0-4.63.84-7.08 2.34a5.83 5.83 0 002.45 4.14c2.22-1.26 4.14-2.1 6-2.1 1.73 0 3.72.71 6.72 3.24l6.72 5.7h3.06l.36-.48-3.9-13.44c-1.68-5.89-4.55-8.17-9.18-8.17-1.98 0-4.5.36-6.48.97 0 1.86.42 3.42 1.43 4.63 1.99-.67 3.72-1.1 5.35-1.1 2.34 0 4.14 1.27 5.34 4.4l3.36 8.74-.19.07-4.07-4.08c-2.82-2.88-6-4.86-9.9-4.86zm0 0"/></symbol><symbol overflow="visible" id="d8df05bae"><path d="M28.38 6.3V-6.2a7.74 7.74 0 002.64-5.75 7.58 7.58 0 00-7.68-7.69c-1.2 0-2.7.25-4.62.72-2.16.61-3.42.91-4.27.91-1.5 0-3.1-1.63-3.1-3.36 0-1.62 1.2-2.83 5.09-2.83h11.15l.43-.36c-.11-1.9-.18-5.15-.18-8.32h12.79l.42-.49c-.25-1.2-.78-2.45-1.4-3.42H-.94l-.43.42c.24 1.2.79 2.45 1.38 3.48h23.4v4.57h-7.92c-5.46 0-8.34 2.39-8.34 5.58 0 4.07 4.2 8.93 8.28 8.93 1.08 0 2.88-.3 4.92-.9 1.86-.53 3.43-.96 4.38-.96 1.37 0 2.16 1.2 2.16 2.75 0 2.6-2.22 5.29-7.74 5.29-4.69 0-8.94-2.04-14.05-8.65-.95.25-1.86.91-2.28 1.75 2.28 3.36 4.81 6 7.5 7.8l.49 10.63c-.9-.07-1.74-.13-2.52-.13-2.64 0-3.6 1.08-3.6 2.64 0 2.7 4.13 6.42 6.84 6.42 2.34 0 3.48-2.7 3.48-7.14 0-3.06-.19-6.84-.36-10.2 1.92.72 3.9 1.08 6 1.08 1.14 0 2.22-.13 3.23-.42V16.5a17.4 17.4 0 004.33 1.44l.43-.36c-.2-3.42-.25-7.31-.25-11.28zm7.2-28.93c-1.99 0-3.53 2.05-3.53 3.91 0 1.44 1.6 2.58 2.93 2.58 1.97 0 3.43-2.05 3.43-3.9 0-1.5-1.33-2.59-2.83-2.59zm0 0"/></symbol><symbol overflow="visible" id="d8df05baf"><path d="M32.16-15.19l-.18-4.73a37.8 37.8 0 01-9.54 1.14c-2.28 0-4.57-.17-6.66-.49.6-1.96.85-4.25.85-6.82 0-1.86-.13-4.5-.43-6.79h15.9l.42-.48c-.3-1.2-.79-2.45-1.38-3.42H-.96l-.42.42c.24 1.2.79 2.45 1.38 3.48h11.94v3.66c0 3.13-.17 5.52-.72 7.56H7.98c-3 0-4.32 1.32-4.32 3.3 0 6.17 8.76 15.42 18.84 19.5 1.27-.72 1.73-2.05 1.73-3.3-5.93-3.12-10.5-6.54-12.95-11.4a7.2 7.2 0 002.94-2.46 41.39 41.39 0 0017.94.83zm0 0"/></symbol><symbol overflow="visible" id="d8df05bag"><path d="M34.5-36.78H-.95l-.43.42c.24 1.2.79 2.45 1.38 3.48h23.7v7.86h-8.4c-8.58 0-13.02 3.36-13.02 9.43 0 5.21 4.2 11.28 9.78 16.07 1.2-.42 2.16-1.2 2.52-2.1-4.63-5.29-7.08-9.3-7.08-12.9 0-4.43 3.42-6 9.72-6 2.05 0 4.26.11 6.48.3V-.78c1.38.72 3.24 1.26 4.74 1.5l.48-.36c-.23-3.6-.3-7.67-.3-11.88v-21.36h6.83l.42-.48c-.3-1.2-.78-2.45-1.37-3.42zm0 0"/></symbol><symbol overflow="visible" id="d8df05bah"><path d="M-13.92 8.22C-11.7 6.48-9.6 5.7-8.22 5.7c2.03 0 3.53 1.32 3.53 3.78 0 3-2.68 4.14-5.45 4.14-4.02 0-9.36-2.7-14.94-11.57-1.08.04-2.28 1.01-2.7 1.67 5.83 9.9 12.78 14.1 18.9 14.1 5.52 0 8.4-3.48 8.4-7.45 0-4.18-3.6-8.64-9.18-8.64-2.4 0-4.68.85-7.14 2.83a4.02 4.02 0 002.88 3.66zm0 0"/></symbol><symbol overflow="visible" id="d8df05bai"><path d="M28.73-21.48v-11.4h6.2l.41-.48c-.25-1.2-.78-2.45-1.39-3.42H-.95l-.43.42c.24 1.2.79 2.45 1.38 3.48h4.73v10.2c0 4.26 1.7 7.68 4.2 10.02v.18c-2.5 1.32-4.5 3.84-4.5 7.03 0 6.17 8.05 11.1 14.95 11.1C25.27 5.64 30.13 3 32.52-.2a7.9 7.9 0 00-3.47-3.53c-2.9 3-6.55 5.22-11.28 5.22-1.7 0-3.32-.23-4.93-.95C11.77.06 9.48-1.92 9.48-4.8c0-2.83 2.94-4.56 7.57-5.22 7.67-1.14 11.68-4.56 11.68-11.46zm-5.93 3l-11.4-14.4h12.41v10.8c0 1.38-.3 2.58-.76 3.6zm-11.64 2.82c-1.08-1.39-1.5-3.42-1.5-5.93V-30h.18L21-16.02a10.34 10.34 0 01-5.94 1.74c-1.8 0-3.36-.66-3.9-1.38zm0 0"/></symbol><symbol overflow="visible" id="d8df05baj"><path d="M14.1-27.3c-6.6 0-11.82 3.9-11.82 10.08C2.28-10.69 9.23-6 15.18-6c2.63 0 5.82-.72 8.46-2.7l.13.06v7.86C25.07-.06 27 .48 28.5.72l.42-.36c-.19-3.6-.23-7.67-.23-11.88v-21.36h6.76l.42-.48c-.23-1.2-.78-2.45-1.37-3.42H-.95l-.43.42c.24 1.2.79 2.45 1.38 3.48h23.77v9.11l-.13.07c-2.52-2.4-6-3.6-9.55-3.6zM9.35-11.1c-1.5-1.13-2.16-3.06-2.16-5.1 0-3.66 3.07-6.9 8.03-6.9 2.77 0 5.35.83 8.54 3.37v4.43c-2.54 3.85-6.61 5.22-10.46 5.22-1.5 0-3.4-.54-3.95-1.01zm0 0"/></symbol><symbol overflow="visible" id="d8df05bak"><path d="M-.95-36.78l-.43.42c.24 1.2.79 2.45 1.38 3.48h6.3v32.1a16.8 16.8 0 004.75 1.5l.47-.36c-.24-3.6-.3-7.67-.3-11.88v-21.36H18l.42-.48c-.23-1.2-.78-2.45-1.37-3.42zm0 0"/></symbol><symbol overflow="visible" id="d8df05bal"><path d="M35.64-11.52v-21.36h6.84l.43-.48c-.25-1.2-.78-2.45-1.4-3.42H-.94l-.43.42c.24 1.2.79 2.45 1.38 3.48h11.81v3.66c0 2.77-.17 5.34-.76 7.56h-3.2c-3 0-4.37 1.32-4.37 3.3 0 6.17 8.82 15.42 18.9 19.5a3.79 3.79 0 001.75-3.3c-5.94-3.12-10.5-6.54-13.04-11.4a7.25 7.25 0 002.96-2.46c3.4.96 7.07 1.44 10.73 1.44 2.03 0 4.08-.19 6-.42V-.78c1.31.72 3.24 1.26 4.74 1.5l.42-.36c-.24-3.6-.3-7.67-.3-11.88zM16.5-26.09c0-1.93-.13-4.46-.42-6.79h14.7v13.02a35.32 35.32 0 01-8.83 1.02c-2.15 0-4.25-.11-6.3-.43.62-1.96.85-4.25.85-6.82zm0 0"/></symbol><symbol overflow="visible" id="d8df05bam"><path d="M11.16-17.52H22.2V-.78c1.38.72 3.24 1.26 4.74 1.5l.48-.36c-.23-3.6-.3-7.67-.3-11.88v-21.36h6.79l.4-.48a10.5 10.5 0 00-1.37-3.42H-.96l-.42.42c.24 1.2.79 2.45 1.38 3.48h22.2v11.33a337.8 337.8 0 00-17.22-.53C2.1-22.08.66-20.77.66-18.9c0 3.43 4.62 8.29 7.75 8.29 1.6 0 2.75-1.5 2.75-4.32zm0 0"/></symbol><symbol overflow="visible" id="d8df05ban"><path d="M-6.13 10.38a7.82 7.82 0 01-4.96 2.1c-1.82 0-3.07-1.14-3.07-3.12 0-2.22 2.4-3.48 4.8-3.48 3.9 0 7.92 3.06 14.88 11.93a3.95 3.95 0 002.53-1.86C1.69 7.31-3.35 1.7-10.31 1.7c-5.35 0-8.24 3.04-8.24 6.76 0 4.2 3.78 7.86 8.7 7.86 2.35 0 4.5-.65 6.66-2.62a6.75 6.75 0 00-2.94-3.31zm0 0"/></symbol><symbol overflow="visible" id="d8df05bao"><path d="M11.22-11.52v-21.36h6.65l.43-.48c-.24-1.2-.78-2.45-1.38-3.42H9.91c-1.4-2.1-2.18-4.27-2.18-6.17 0-4.33 3.97-7.2 10.4-7.2 7.43 0 17.09 3.84 28.01 11.45a4.14 4.14 0 001.92-2.28C37.5-49.5 26.81-54.42 17.28-54.42c-9.19 0-14.4 4.44-14.4 9.9 0 3.07 1.62 5.7 3.48 7.61v.13H-.95l-.43.42c.24 1.2.79 2.45 1.38 3.48h6.3v32.1a16.8 16.8 0 004.75 1.5l.47-.36c-.24-3.6-.3-7.67-.3-11.88zm0 0"/></symbol><symbol overflow="visible" id="d8df05bap"><path d="M17.1-13.56h11.59V-.78c1.37.72 3.23 1.26 4.73 1.5l.49-.36c-.25-3.6-.32-7.67-.32-11.88v-21.36h6.78l.43-.48c-.24-1.2-.78-2.45-1.38-3.42H20.58l-.42.42c.3 1.2.78 2.45 1.39 3.48h7.14v15.18c-3.74-.11-7.82-.24-11.77-.3l-.23-10.14c-.13-5.05-4.27-9.48-9.42-9.48-4.08 0-6.49 2.46-6.49 5.76 0 3.55 3.3 6.6 7.86 7.67.6-.65.95-1.5 1.08-2.45-2.77-.95-4.56-2.58-4.56-4.5 0-1.5 1.32-2.7 3.06-2.7 2.1 0 3.65 1.86 3.72 4.75l.3 11.03h-1.62c-2.82 0-4.26 1.26-4.26 3.12 0 3.24 4.69 8.03 7.92 8.03 1.56 0 2.81-1.37 2.81-4.96zm0 0"/></symbol><symbol overflow="visible" id="d8df05baq"><path d="M3.78-21.06c1.74 0 2.88-1.32 2.88-3 0-1.92-1.38-3.85-3.24-3.85a3.01 3.01 0 00-3.06 3.13c0 1.86 1.5 3.72 3.42 3.72zm0 15.72c1.74 0 2.88-1.32 2.88-3 0-1.93-1.38-3.85-3.24-3.85A3.01 3.01 0 00.36-9.06c0 1.86 1.5 3.72 3.42 3.72zm0 0"/></symbol><symbol overflow="visible" id="d8df05bar"><path d="M5.95-6.77H1.1V0h.99v-2.92H5.3v-.77H2.08v-2.26h3.87zm0 0"/></symbol><symbol overflow="visible" id="d8df05bas"><path d="M5.75-2.23v-.43c0-1.6-.9-2.51-2.42-2.51S.87-4.16.87-2.48c0 1.71.91 2.62 2.5 2.62 1.43 0 2.07-.56 2.29-1.52l-.9-.09c-.18.61-.59.9-1.35.9-.94 0-1.52-.54-1.58-1.66zm-2.4-2.2c.93 0 1.43.5 1.48 1.55H1.84c.08-1.07.6-1.56 1.5-1.56zm0 0"/></symbol><symbol overflow="visible" id="d8df05bat"><path d="M2.83.14c.94 0 1.5-.39 1.81-.95h.08l.1.81h.76v-3.38c0-1.23-.69-1.8-2.13-1.8-1.43 0-2.03.65-2.18 1.6l.93.1c.11-.6.44-.93 1.22-.93.85 0 1.22.32 1.22 1.04v.34l-1.81.2C1.6-2.7 1.1-2.17 1.1-1.28c0 .92.64 1.42 1.72 1.42zm.25-.77c-.67 0-1.02-.28-1.02-.74 0-.44.28-.72 1-.82l1.58-.19v.41c0 .8-.6 1.34-1.56 1.34zm0 0"/></symbol><symbol overflow="visible" id="d8df05bau"><path d="M5.52-4.25v-.77H3.17v-1.56h-.81l-.14 1.56H.75v.77h1.47v2.4c0 1.3.48 1.94 1.84 1.94C4.6.1 5.14 0 5.55-.14L5.4-.91c-.32.13-.72.2-1.13.2-.8 0-1.1-.37-1.1-1.23v-2.31zm0 0"/></symbol><symbol overflow="visible" id="d8df05bav"><path d="M2.73.14c.9 0 1.43-.45 1.74-1.08h.06l.13.94h.8v-5.02h-.94v2.7c0 .98-.57 1.62-1.46 1.62-.75 0-1.1-.4-1.1-1.22v-3.1h-.93v3.32c0 1.17.55 1.84 1.7 1.84zm0 0"/></symbol><symbol overflow="visible" id="d8df05baw"><path d="M5.08-5.16c-.94 0-1.58.43-1.9 1.3h-.09l-.07-1.16H1.05v.77h1.1v3.48H.96V0h3.96v-.77H3.1v-1.46c0-1.36.6-2.05 1.83-2.05.4 0 .76.08 1.1.17l.15-.87c-.33-.11-.7-.18-1.11-.18zm0 0"/></symbol><symbol overflow="visible" id="d8df05bax"><path d="M3.33-3.42c.47 0 .8-.27.8-.8 0-.51-.33-.8-.8-.8-.47 0-.8.29-.8.8 0 .53.33.8.8.8zm0 3.5c.47 0 .8-.27.8-.78 0-.53-.33-.82-.8-.82-.47 0-.8.29-.8.82 0 .51.33.78.8.78zm0 0"/></symbol><symbol overflow="visible" id="d8df05baz"><path d="M3.34.14c1.7 0 2.64-.75 2.64-2 0-1.1-.67-1.6-1.95-1.86l-.97-.2c-.84-.16-1.2-.49-1.2-1.11 0-.7.56-1.11 1.56-1.11.99 0 1.47.34 1.63 1.23L5.97-5C5.8-6.28 4.95-6.9 3.45-6.9 1.81-6.9.92-6.18.92-4.98c0 1.06.63 1.66 1.85 1.9l1.01.2c.85.17 1.25.4 1.25 1.09 0 .73-.6 1.16-1.66 1.16-1.1 0-1.6-.4-1.75-1.24l-.93.1C.84-.53 1.66.13 3.34.13zm0 0"/></symbol><symbol overflow="visible" id="d8df05baA"><path d="M2.16 0v-2.67c0-.99.59-1.63 1.46-1.63.74 0 1.07.38 1.07 1.22V0h.95v-3.31c0-1.2-.56-1.85-1.67-1.85-.92 0-1.49.46-1.77 1.08h-.06l-.12-.94H1.2V0zm0 0"/></symbol><symbol overflow="visible" id="d8df05baB"><path d="M3.36.16c1.4 0 2.2-.6 2.2-1.57 0-.89-.54-1.22-1.47-1.39L3-3c-.67-.14-.86-.33-.86-.73 0-.5.4-.74 1.17-.74.83 0 1.19.27 1.27.8l.9-.05c-.12-1-.8-1.47-2.17-1.47-1.34 0-2.1.53-2.1 1.5 0 .81.45 1.22 1.52 1.44l1.04.2c.56.11.87.24.87.72 0 .52-.45.78-1.28.78-.95 0-1.36-.28-1.42-.87l-.9.06C1.07-.36 1.8.16 3.35.16zm0 0"/></symbol><symbol overflow="visible" id="d8df05baC"><path d="M5.77-5.02H4.63L2.3-2.88h-.06v-4.26h-.94V0h.94v-2.31h.06L4.71 0h1.24L3.23-2.69zm0 0"/></symbol><symbol overflow="visible" id="d8df05baD"><path d="M3.58-5.81c.42 0 .72-.22.72-.67 0-.44-.3-.68-.72-.68-.44 0-.72.24-.72.68 0 .45.28.67.72.67zm.5.8H1.52v.76h1.6v3.48h-1.8V0h4.46v-.77h-1.7zm0 0"/></symbol><symbol overflow="visible" id="d8df05baE"><path d="M4.63-6.5c.45 0 .98.08 1.39.2l.2-.72a5.3 5.3 0 00-1.64-.26c-1.52 0-2.16.56-2.16 1.87v.4H.9v.76h1.53V0h.94v-4.25h2.53v-.77H3.36v-.3c0-.84.33-1.18 1.27-1.18zm0 0"/></symbol><symbol overflow="visible" id="d8df05baF"><path d="M3.33.14c1.62 0 2.5-.95 2.5-2.66 0-1.68-.88-2.64-2.5-2.64-1.63 0-2.5.96-2.5 2.64 0 1.7.87 2.66 2.5 2.66zm0-.77c-1.06 0-1.52-.6-1.52-1.89 0-1.28.46-1.87 1.52-1.87 1.08 0 1.53.6 1.53 1.87 0 1.29-.45 1.9-1.53 1.9zm0 0"/></symbol><symbol overflow="visible" id="d8df05baG"><path d="M1.63 0v-2.9c0-.8.15-1.4.71-1.4.41 0 .55.3.55.88V0h.95v-2.9c0-.8.18-1.4.72-1.4.4 0 .57.3.57.88V0h.95v-3.63c0-.92-.28-1.53-1.11-1.53-.63 0-.95.41-1.1.9h-.06c-.1-.52-.44-.9-1.08-.9-.6 0-.93.41-1.06.9H1.6l-.23-.76H.67V0zm0 0"/></symbol><symbol overflow="visible" id="d8df05baH"><path d="M1.45-2.95c0 2.56 1.08 4.37 3.67 4.84l.11-.67C3.28.86 2.43-.75 2.43-2.95s.85-3.82 2.8-4.16l-.1-.69c-2.6.49-3.68 2.3-3.68 4.85zm0 0"/></symbol><symbol overflow="visible" id="d8df05baI"><path d="M3.92-7.14H1.36v.76h1.6v5.61H1.15V0H5.7v-.77H3.92zm0 0"/></symbol><symbol overflow="visible" id="d8df05baJ"><path d="M3.16 2.03c1.67 0 2.4-.86 2.4-2.51v-4.54h-.81l-.13.91h-.06c-.26-.58-.8-1.05-1.73-1.05-1.42 0-2.24 1-2.24 2.52 0 1.6.75 2.56 2.2 2.56.94 0 1.5-.5 1.77-1.03h.05v.72c0 1.17-.42 1.67-1.45 1.67-.93 0-1.3-.34-1.41-.89L.8.5c.12.96.87 1.54 2.36 1.54zM3.06-.8c-.98 0-1.48-.57-1.48-1.82 0-1.13.5-1.75 1.48-1.75 1.06 0 1.58.76 1.58 1.75 0 .95-.56 1.82-1.58 1.82zm0 0"/></symbol><symbol overflow="visible" id="d8df05baK"><path d="M1.45-7.1c1.96.33 2.8 1.94 2.8 4.15 0 2.2-.84 3.8-2.8 4.17l.11.67c2.58-.47 3.67-2.28 3.67-4.84 0-2.55-1.09-4.36-3.67-4.85zm0 0"/></symbol></defs><g fill="#515151"><use xlink:href="#d8df05baa" x="41.1" y="155"/><use xlink:href="#d8df05bab" x="57.78" y="155"/></g><g fill="#515151"><use xlink:href="#d8df05bac" x="120.06" y="155"/><use xlink:href="#d8df05bad" x="142.5" y="155"/></g><use xlink:href="#d8df05bac" x="144.78" y="155" fill="#515151"/><g fill="#fff"><use xlink:href="#d8df05bae" x="169.5" y="155"/><use xlink:href="#d8df05bad" x="203.76" y="155"/></g><g fill="#515151"><use xlink:href="#d8df05baf" x="209.16" y="155"/><use xlink:href="#d8df05bag" x="236.88" y="155"/></g><use xlink:href="#d8df05bah" x="273.24" y="155" fill="#515151"/><use xlink:href="#d8df05bai" x="271.38" y="155" fill="#fff"/><use xlink:href="#d8df05bah" x="302.34" y="160.7" fill="#fff"/><g fill="#515151"><use xlink:href="#d8df05baj" x="305.34" y="155"/><use xlink:href="#d8df05bak" x="339.84" y="155"/><use xlink:href="#d8df05bal" x="356.88" y="155"/></g><g fill="#515151"><use xlink:href="#d8df05baf" x="398.4" y="155"/><use xlink:href="#d8df05bag" x="426.12" y="155"/></g><g fill="#515151"><use xlink:href="#d8df05bam" x="460.62" y="155"/><use xlink:href="#d8df05ban" x="495.3" y="155"/></g><g fill="#515151"><use xlink:href="#d8df05bao" x="493.56" y="155"/><use xlink:href="#d8df05bap" x="510.3" y="155"/><use xlink:href="#d8df05baq" x="549.72" y="155"/></g><g fill="#fff"><use xlink:href="#d8df05bar" x="173.3333" y="266"/><use xlink:href="#d8df05bas" x="180.0003" y="266"/><use xlink:href="#d8df05bat" x="186.6673" y="266"/><use xlink:href="#d8df05bau" x="193.3343" y="266"/><use xlink:href="#d8df05bav" x="200.0013" y="266"/><use xlink:href="#d8df05baw" x="206.6683" y="266"/><use xlink:href="#d8df05bas" x="213.3353" y="266"/><use xlink:href="#d8df05bax" x="220.0023" y="266"/><use xlink:href="#d8df05bay" x="226.6693" y="266"/><use xlink:href="#d8df05baz" x="233.3363" y="266"/><use xlink:href="#d8df05bat" x="240.0033" y="266"/><use xlink:href="#d8df05baA" x="246.6703" y="266"/><use xlink:href="#d8df05baB" x="253.3373" y="266"/><use xlink:href="#d8df05baC" x="260.0043" y="266"/><use xlink:href="#d8df05baw" x="266.6713" y="266"/><use xlink:href="#d8df05baD" x="273.3383" y="266"/><use xlink:href="#d8df05bau" x="280.0053" y="266"/><use xlink:href="#d8df05bay" x="286.6723" y="266"/><use xlink:href="#d8df05baE" x="293.3393" y="266"/><use xlink:href="#d8df05baF" x="300.0063" y="266"/><use xlink:href="#d8df05baw" x="306.6733" y="266"/><use xlink:href="#d8df05baG" x="313.3403" y="266"/><use xlink:href="#d8df05baB" x="320.0073" y="266"/><use xlink:href="#d8df05bay" x="326.6743" y="266"/><use xlink:href="#d8df05baH" x="333.3413" y="266"/><use xlink:href="#d8df05baB" x="340.0083" y="266"/><use xlink:href="#d8df05bas" x="346.6753" y="266"/><use xlink:href="#d8df05bau" x="353.3423" y="266"/><use xlink:href="#d8df05bay" x="360.0093" y="266"/><use xlink:href="#d8df05baI" x="366.6763" y="266"/><use xlink:href="#d8df05bat" x="373.3433" y="266"/><use xlink:href="#d8df05baA" x="380.0103" y="266"/><use xlink:href="#d8df05baJ" x="386.6773" y="266"/><use xlink:href="#d8df05bav" x="393.3443" y="266"/><use xlink:href="#d8df05bat" x="400.0113" y="266"/><use xlink:href="#d8df05baJ" x="406.6783" y="266"/><use xlink:href="#d8df05bas" x="413.3453" y="266"/><use xlink:href="#d8df05baK" x="420.0123" y="266"/></g></svg>