<?xml version='1.0' encoding='UTF-8'?>
<svg xmlns="http://www.w3.org/2000/svg" xmlns:xlink="http://www.w3.org/1999/xlink" width="600px" height="300px" viewBox="0 0 600 300" x="0px" y="0px" enable-background="new 0 0 600 300"><defs><symbol overflow="visible" id="85c1b059a"><path d="M11.22-11.52v-21.36h6.65l.43-.48c-.24-1.2-.78-2.45-1.38-3.42H9.91a10.8 10.8 0 01-1.93-5.7c0-5.29 6.72-8.46 17.64-8.46 12.6 0 34.32 4.31 54.72 12.24a3.71 3.71 0 001.32-2.58C63.06-49.8 40.5-55.14 25.08-55.14c-14.1 0-22.02 4.44-22.02 10.98 0 2.82 1.5 5.4 3.3 7.25v.13H-.95l-.43.42c.24 1.2.79 2.45 1.38 3.48h6.3v32.1a16.8 16.8 0 004.75 1.5l.47-.36c-.24-3.6-.3-7.67-.3-11.88zm0 0"/></symbol><symbol overflow="visible" id="85c1b059b"><path d="M24.66-11.05v-1.6c3.84-3.62 6.78-5.16 9.42-5.16 1.37 0 2.34.3 3.23.89 1.2 6.12 9.38 14.28 18.67 18.06 1.25-.72 1.74-2.05 1.74-3.3-5.94-3.12-10.5-6.54-12.95-11.4a7.3 7.3 0 002.93-2.46 40.6 40.6 0 0010.74 1.44c1.98 0 4.01-.12 6-.42a12.41 12.41 0 0010.8 6.36c1.2 0 3.42-.17 5.76-1.44C82.98-6.59 86.52-2.94 91.56.55a5.46 5.46 0 002.28-2.64c-7.32-5.29-9.65-10.2-9.65-13.5 0-3.2 2.15-5.29 4.86-5.29 1.67 0 3.4.9 4.97 2.7-.18.73-.3 1.5-.3 2.34 0 1.26.12 2.57.42 3.78a8.44 8.44 0 004.38 2.34l.54-.42a14.73 14.73 0 01-.54-3.78c0-4.14 2.4-6.9 5.7-6.9 1.14 0 2.1.24 3 .66V-.78a16.1 16.1 0 004.73 1.5l.42-.36c-.17-3.6-.23-7.67-.23-11.88v-21.36h6.78l.42-.48c-.25-1.2-.78-2.45-1.39-3.42H-.95l-.43.42c.24 1.2.79 2.45 1.38 3.48h19.8v8.76l-.18.06a13.43 13.43 0 00-7.85-2.64c-5.11 0-10.27 3.12-10.27 9.18 0 6.6 6 10.68 11.05 10.68 2.15 0 4.86-.72 7.07-2.4l.18.12v8.34a16.2 16.2 0 004.75 1.5l.4-.36c-.23-3.6-.3-7.2-.3-11.4zm63.06-14.22a8.48 8.48 0 00-8.7 8.54c0 .78.06 1.5.25 2.28a9.25 9.25 0 01-5.22 1.54c-2.05 0-3.9-.53-4.86-1.6-1.1-1.27-1.5-3.91-1.5-6.49v-11.88h39.53v9h-.13a8.55 8.55 0 00-4.01-1.03 9.64 9.64 0 00-7.56 3.55c-2.22-2.7-4.86-3.9-7.8-3.9zM32.94-22.3c-3.17 0-5.88 1.37-8.1 3.23l-.18-.06v-13.73h20.76v3.65c0 3.13-.19 5.52-.72 7.56h-3.25a5.3 5.3 0 00-3.23.85 9.63 9.63 0 00-5.28-1.5zm17.15-3.78c0-1.86-.1-4.5-.4-6.79h13.08v11.52c0 .66.04 1.31.17 1.98-2.28.43-4.63.6-7.02.6-2.28 0-4.56-.17-6.65-.49.59-1.96.82-4.25.82-6.82zM8.05-11.7a5.65 5.65 0 01-1.7-4.32c0-4.5 3.37-6.48 6.92-6.48 2.39 0 4.5.84 6.53 2.22v4.69c-2.35 2.8-5.88 4.67-8.88 4.67-1.2 0-2.47-.3-2.87-.78zm0 0"/></symbol><symbol overflow="visible" id="85c1b059c"><path d="M11.22-11.52v-21.36h6.65l.43-.48c-.24-1.2-.78-2.45-1.38-3.42h-6.9a11.6 11.6 0 01-2.33-6.6c0-3.9 2.68-6 6.47-6 4.56 0 9.25 3.07 16.39 10.68a3.7 3.7 0 001.97-2.22C26.16-48.91 20.4-53.58 13.2-53.58 7.31-53.58 2.77-50.4 2.77-45a11.3 11.3 0 003.65 8.1v.12H-.95l-.43.42c.24 1.2.79 2.45 1.38 3.48h6.3v32.1a16.8 16.8 0 004.75 1.5l.47-.36c-.24-3.6-.3-7.67-.3-11.88zm0 0"/></symbol><symbol overflow="visible" id="85c1b059d"><path d="M24.72-36.78H-.95l-.43.42c.24 1.2.79 2.45 1.38 3.48h11.94v3.66c0 3.13-.17 5.52-.72 7.56H7.98c-3 0-4.32 1.32-4.32 3.3 0 6.17 8.76 15.42 18.84 19.5 1.27-.72 1.73-2.05 1.73-3.3-5.93-3.12-10.5-6.54-12.95-11.4 3.9-1.86 5.35-6.53 5.35-12.53 0-1.86-.13-4.5-.43-6.79h9.43l.42-.48c-.25-1.2-.78-2.45-1.33-3.42zm0 0"/></symbol><symbol overflow="visible" id="85c1b059e"><path d="M11.22-11.52v-21.36h6.65l.43-.48c-.24-1.2-.78-2.45-1.38-3.42H9.91a10.97 10.97 0 01-1.99-5.81c0-5.05 6-8.18 15.78-8.18 11.35 0 30 4.27 48.11 12.07.78-.6 1.33-1.5 1.46-2.46-16.57-8.57-36.2-13.8-50.11-13.8C10.2-54.95 3-50.45 3-44.21c0 2.88 1.56 5.45 3.36 7.31v.13H-.95l-.43.42c.24 1.2.79 2.45 1.38 3.48h6.3v32.1a16.8 16.8 0 004.75 1.5l.47-.36c-.24-3.6-.3-7.67-.3-11.88zm0 0"/></symbol><symbol overflow="visible" id="85c1b059f"><path d="M-1.92-53.16a6.5 6.5 0 00-5.35-2.57c-3.71 0-7.07 2.45-7.07 7.3 0 3 1.32 6.43 3.36 9.73 1.07-.42 1.92-1.25 2.17-2.03-1.14-1.93-2.24-3.79-2.24-5.83 0-2.58 1.75-4.92 4.93-4.92 1.62 0 3.12.67 4.43 2.1l.49-.3c-.07-1.13-.3-2.4-.72-3.48zM-4.62-42c1.8 0 2.76-1.44 2.76-2.88 0-2.04-1.5-3.35-2.94-3.35-1.8 0-2.83 1.5-2.83 3 0 1.92 1.63 3.23 3 3.23zm0 0"/></symbol><symbol overflow="visible" id="85c1b059g"><path d="M24.66-11.05v-1.8c4.2-4 7.5-5.7 10.86-5.7 1.56 0 3.06.32 4.62.85l-.06-3.6a11.66 11.66 0 00-5.77-1.5c-3 0-6.1 1.08-9.47 3.72l-.18-.06v-13.73h15l.42-.49c-.24-1.2-.78-2.45-1.38-3.42H-.95l-.43.42c.24 1.2.79 2.45 1.38 3.48h19.8v8.76l-.18.06a13.43 13.43 0 00-7.85-2.64c-5.11 0-10.27 3.12-10.27 9.18 0 6.6 6 10.68 11.05 10.68 2.15 0 4.86-.72 7.07-2.4l.18.12v8.34a16.2 16.2 0 004.75 1.5l.4-.36c-.23-3.6-.3-7.2-.3-11.4zm-16.68-.72c-1.03-.89-1.62-2.32-1.62-4.25 0-4.5 3.36-6.48 6.9-6.48 2.4 0 4.5.84 6.54 2.22v4.69c-2.35 2.8-5.88 4.67-8.88 4.67-1.2 0-2.28-.24-2.94-.85zm0 0"/></symbol><symbol overflow="visible" id="85c1b059h"><path d="M19.63-9.23l.17.1v8.35a16.2 16.2 0 004.75 1.5l.4-.36c-.23-3.6-.3-7.2-.3-11.4v-1.98c3.66-3.6 6.43-5.46 9.26-5.46 2.32 0 3.4 1.39 3.4 3.54 0 3.24-2.45 6.72-6.47 9.49a6.9 6.9 0 003 3.89c5.16-3.36 7.93-7.67 7.93-12 0-5.35-3.91-9.24-9.25-9.24-2.88 0-5.46 1.32-7.68 3.18l-.18-.07v-13.18H44.8l.42-.49c-.23-1.2-.78-2.45-1.3-3.42H-.96l-.43.42c.24 1.2.79 2.45 1.38 3.48h19.8v8.76l-.18.06a13.43 13.43 0 00-7.85-2.64c-5.11 0-10.27 3.12-10.27 9.18 0 6.6 6 10.68 11.05 10.68 2.15 0 4.86-.72 7.07-2.4zM8.04-11.7c-1.1-.9-1.7-2.4-1.7-4.32 0-4.5 3.37-6.48 6.92-6.48 2.39 0 4.5.84 6.53 2.22v4.69c-2.35 2.8-5.88 4.67-8.88 4.67-1.2 0-2.28-.24-2.87-.78zm0 0"/></symbol><symbol overflow="visible" id="85c1b059j"><path d="M11.22-11.52v-21.36h6.65l.43-.48c-.24-1.2-.78-2.45-1.38-3.42H9.91a10.8 10.8 0 01-1.93-5.7c0-5.29 6.72-8.46 17.64-8.46 12.6 0 34.32 4.31 54.72 12.24a3.71 3.71 0 001.32-2.58C63.06-49.8 40.5-55.14 25.08-55.14c-14.1 0-22.02 4.44-22.02 10.98 0 2.82 1.5 5.4 3.3 7.25v.13H-.95l-.43.42c.24 1.2.79 2.45 1.38 3.48h6.3v32.1a16.8 16.8 0 004.75 1.5l.47-.36c-.24-3.6-.3-7.67-.3-11.88zm0 0"/></symbol><symbol overflow="visible" id="85c1b059k"><path d="M26.05 7.08l-5.11-9.49c1.56-.95 2.7-2.28 2.7-3.89 0-2.83-3.55-4.86-5.87-4.86-1.75 0-2.7 1.08-2.7 3.07 0 .65.16 1.67.52 2.57-.89.36-1.8.54-2.64.54-1.97 0-3.4-.54-4.43-1.61a5.62 5.62 0 01-1.44-3.91c0-3 3.06-5.58 7.2-8.05a39 39 0 0015.06 4.03c.43 3.24 4.86 7.61 7.93 7.61 1.6 0 2.8-1.37 2.8-4.96v-1.7h13.74C57.2-9.11 61.5-7.01 66-7.01c2.45 0 5.4-.71 7.5-2.4l.13.06v8.58C75-.06 76.86.48 78.36.72l.48-.36c-.25-3.6-.3-7.67-.3-11.88v-21.36h6.77l.42-.48c-.23-1.2-.78-2.45-1.37-3.42H23.64l-.42.42c.23 1.2.78 2.45 1.37 3.48h9.91l.66 13.74c-1.8.06-3.85.12-5.7.12-4.87 0-8.88-.67-12.05-1.8v-.12c3.23-2.1 4.9-4.86 4.9-7.56 0-4.14-3.89-9.13-9.53-9.13-3.78 0-7.86 2.35-7.86 7.57 0 3.48 2.03 6.42 5.03 8.76v.11c-4.37 2.4-7.54 5.64-7.54 9.61C2.4-6.3 7.98-.9 15.06-.9c.85 0 1.67-.1 2.52-.3l3.84 10.34c1.8-.07 3.85-.91 4.63-2.05zM9.55-29.34c0-2.7 1.9-4.61 4.25-4.61 1.2 0 2.22.4 2.93 1.18A4.07 4.07 0 0118-29.7c0 2.4-1.98 4.86-5.05 6.48-2.22-1.69-3.4-3.78-3.4-6.12zm50.03 2.1c0 3.11-3.06 4.44-8.22 5.7-.48.84-.6 1.74-.55 2.63.19.43.38.85.61 1.27-3.65-.13-7.69-.3-11.51-.36-.07-4.2-.32-9.95-.61-14.88h17.64c1.8 1.93 2.64 3.83 2.64 5.65zm1.62-5.53v-.1h12.42v16.85a10.36 10.36 0 01-8.53 4.8c-4.54 0-7.73-2.34-9-7.01 5.47-1.5 8.28-3.97 8.28-7.4 0-2.68-1.37-5.15-3.17-7.14zm0 0"/></symbol><symbol overflow="visible" id="85c1b059l"><path d="M5.95-6.77H1.1V0h.99v-2.92H5.3v-.77H2.08v-2.26h3.87zm0 0"/></symbol><symbol overflow="visible" id="85c1b059m"><path d="M5.75-2.23v-.43c0-1.6-.9-2.51-2.42-2.51S.87-4.16.87-2.48c0 1.71.91 2.62 2.5 2.62 1.43 0 2.07-.56 2.29-1.52l-.9-.09c-.18.61-.59.9-1.35.9-.94 0-1.52-.54-1.58-1.66zm-2.4-2.2c.93 0 1.43.5 1.48 1.55H1.84c.08-1.07.6-1.56 1.5-1.56zm0 0"/></symbol><symbol overflow="visible" id="85c1b059n"><path d="M2.83.14c.94 0 1.5-.39 1.81-.95h.08l.1.81h.76v-3.38c0-1.23-.69-1.8-2.13-1.8-1.43 0-2.03.65-2.18 1.6l.93.1c.11-.6.44-.93 1.22-.93.85 0 1.22.32 1.22 1.04v.34l-1.81.2C1.6-2.7 1.1-2.17 1.1-1.28c0 .92.64 1.42 1.72 1.42zm.25-.77c-.67 0-1.02-.28-1.02-.74 0-.44.28-.72 1-.82l1.58-.19v.41c0 .8-.6 1.34-1.56 1.34zm0 0"/></symbol><symbol overflow="visible" id="85c1b059o"><path d="M5.52-4.25v-.77H3.17v-1.56h-.81l-.14 1.56H.75v.77h1.47v2.4c0 1.3.48 1.94 1.84 1.94C4.6.1 5.14 0 5.55-.14L5.4-.91c-.32.13-.72.2-1.13.2-.8 0-1.1-.37-1.1-1.23v-2.31zm0 0"/></symbol><symbol overflow="visible" id="85c1b059p"><path d="M2.73.14c.9 0 1.43-.45 1.74-1.08h.06l.13.94h.8v-5.02h-.94v2.7c0 .98-.57 1.62-1.46 1.62-.75 0-1.1-.4-1.1-1.22v-3.1h-.93v3.32c0 1.17.55 1.84 1.7 1.84zm0 0"/></symbol><symbol overflow="visible" id="85c1b059q"><path d="M5.08-5.16c-.94 0-1.58.43-1.9 1.3h-.09l-.07-1.16H1.05v.77h1.1v3.48H.96V0h3.96v-.77H3.1v-1.46c0-1.36.6-2.05 1.83-2.05.4 0 .76.08 1.1.17l.15-.87c-.33-.11-.7-.18-1.11-.18zm0 0"/></symbol><symbol overflow="visible" id="85c1b059r"><path d="M3.33-3.42c.47 0 .8-.27.8-.8 0-.51-.33-.8-.8-.8-.47 0-.8.29-.8.8 0 .53.33.8.8.8zm0 3.5c.47 0 .8-.27.8-.78 0-.53-.33-.82-.8-.82-.47 0-.8.29-.8.82 0 .51.33.78.8.78zm0 0"/></symbol><symbol overflow="visible" id="85c1b059t"><path d="M3.42.14C5.1.14 5.9-.69 6.11-2.17l-.95-.1C4.96-1.19 4.5-.69 3.44-.69c-1.27 0-1.81-.94-1.81-2.69s.54-2.7 1.8-2.7c1.09 0 1.5.49 1.73 1.58l.93-.1c-.21-1.46-.95-2.3-2.62-2.3C1.53-6.9.62-5.6.62-3.38c0 2.2.91 3.51 2.8 3.51zm0 0"/></symbol><symbol overflow="visible" id="85c1b059u"><path d="M3.33.14c1.62 0 2.5-.95 2.5-2.66 0-1.68-.88-2.64-2.5-2.64-1.63 0-2.5.96-2.5 2.64 0 1.7.87 2.66 2.5 2.66zm0-.77c-1.06 0-1.52-.6-1.52-1.89 0-1.28.46-1.87 1.52-1.87 1.08 0 1.53.6 1.53 1.87 0 1.29-.45 1.9-1.53 1.9zm0 0"/></symbol><symbol overflow="visible" id="85c1b059v"><path d="M2.16 0v-2.67c0-.99.59-1.63 1.46-1.63.74 0 1.07.38 1.07 1.22V0h.95v-3.31c0-1.2-.56-1.85-1.67-1.85-.92 0-1.49.46-1.77 1.08h-.06l-.12-.94H1.2V0zm0 0"/></symbol><symbol overflow="visible" id="85c1b059w"><path d="M1.83 0l1.42-2h.06l1.46 2H5.8L4-2.53l1.78-2.49H4.8L3.42-3.08h-.08l-1.4-1.94H.89l1.78 2.49L.84 0zm0 0"/></symbol><symbol overflow="visible" id="85c1b059x"><path d="M3.92-7.14H1.36v.76h1.6v5.61H1.15V0H5.7v-.77H3.92zm0 0"/></symbol><symbol overflow="visible" id="85c1b059y"><path d="M1.63 0v-2.9c0-.8.15-1.4.71-1.4.41 0 .55.3.55.88V0h.95v-2.9c0-.8.18-1.4.72-1.4.4 0 .57.3.57.88V0h.95v-3.63c0-.92-.28-1.53-1.11-1.53-.63 0-.95.41-1.1.9h-.06c-.1-.52-.44-.9-1.08-.9-.6 0-.93.41-1.06.9H1.6l-.23-.76H.67V0zm0 0"/></symbol><symbol overflow="visible" id="85c1b059z"><path d="M4.63-6.5c.45 0 .98.08 1.39.2l.2-.72a5.3 5.3 0 00-1.64-.26c-1.52 0-2.16.56-2.16 1.87v.4H.9v.76h1.53V0h.94v-4.25h2.53v-.77H3.36v-.3c0-.84.33-1.18 1.27-1.18zm0 0"/></symbol><symbol overflow="visible" id="85c1b059A"><path d="M3.36.16c1.4 0 2.2-.6 2.2-1.57 0-.89-.54-1.22-1.47-1.39L3-3c-.67-.14-.86-.33-.86-.73 0-.5.4-.74 1.17-.74.83 0 1.19.27 1.27.8l.9-.05c-.12-1-.8-1.47-2.17-1.47-1.34 0-2.1.53-2.1 1.5 0 .81.45 1.22 1.52 1.44l1.04.2c.56.11.87.24.87.72 0 .52-.45.78-1.28.78-.95 0-1.36-.28-1.42-.87l-.9.06C1.07-.36 1.8.16 3.35.16zm0 0"/></symbol></defs><g fill="#fff"><use xlink:href="#85c1b059a" x="93.24" y="155"/><use xlink:href="#85c1b059b" x="109.86" y="155"/><use xlink:href="#85c1b059c" x="241.38" y="155"/><use xlink:href="#85c1b059d" x="258.18" y="155"/><use xlink:href="#85c1b059e" x="296.46" y="155"/><use xlink:href="#85c1b059f" x="379.26" y="155"/><use xlink:href="#85c1b059g" x="313.14" y="155"/><use xlink:href="#85c1b059h" x="348.3" y="155"/><use xlink:href="#85c1b059i" x="392.22" y="155"/><g><use xlink:href="#85c1b059j" x="405.78" y="155"/></g><g><use xlink:href="#85c1b059f" x="497.1" y="155"/></g><g><use xlink:href="#85c1b059k" x="422.4" y="155"/><use xlink:href="#85c1b059i" x="506.76" y="155"/></g><g><use xlink:href="#85c1b059l" x="196.6667" y="266"/><use xlink:href="#85c1b059m" x="203.3337" y="266"/><use xlink:href="#85c1b059n" x="210.0007" y="266"/><use xlink:href="#85c1b059o" x="216.6677" y="266"/><use xlink:href="#85c1b059p" x="223.3347" y="266"/><use xlink:href="#85c1b059q" x="230.0017" y="266"/><use xlink:href="#85c1b059m" x="236.6687" y="266"/><use xlink:href="#85c1b059r" x="243.3357" y="266"/><use xlink:href="#85c1b059s" x="250.0027" y="266"/><use xlink:href="#85c1b059t" x="256.6697" y="266"/><use xlink:href="#85c1b059u" x="263.3367" y="266"/><use xlink:href="#85c1b059v" x="270.0037" y="266"/><use xlink:href="#85c1b059o" x="276.6707" y="266"/><use xlink:href="#85c1b059m" x="283.3377" y="266"/><use xlink:href="#85c1b059w" x="290.0047" y="266"/><use xlink:href="#85c1b059o" x="296.6717" y="266"/><use xlink:href="#85c1b059p" x="303.3387" y="266"/><use xlink:href="#85c1b059n" x="310.0057" y="266"/><use xlink:href="#85c1b059x" x="316.6727" y="266"/><use xlink:href="#85c1b059s" x="323.3397" y="266"/><use xlink:href="#85c1b059y" x="330.0067" y="266"/><use xlink:href="#85c1b059n" x="336.6737" y="266"/><use xlink:href="#85c1b059o" x="343.3407" y="266"/><use xlink:href="#85c1b059q" x="350.0077" y="266"/><use xlink:href="#85c1b059n" x="356.6747" y="266"/><use xlink:href="#85c1b059s" x="363.3417" y="266"/><use xlink:href="#85c1b059z" x="370.0087" y="266"/><use xlink:href="#85c1b059u" x="376.6757" y="266"/><use xlink:href="#85c1b059q" x="383.3427" y="266"/><use xlink:href="#85c1b059y" x="390.0097" y="266"/><use xlink:href="#85c1b059A" x="396.6767" y="266"/></g></g></svg>