<?xml version='1.0' encoding='UTF-8'?>
<svg xmlns="http://www.w3.org/2000/svg" xmlns:xlink="http://www.w3.org/1999/xlink" width="600px" height="300px" viewBox="0 0 600 300" x="0px" y="0px" enable-background="new 0 0 600 300"><defs><symbol overflow="visible" id="48a068fdb"><path d="M10.44-35.58c-1.63-.48-2.22-1.62-2.22-2.87 0-2.24 1.86-5.05 3.65-6.78-.06-.85-.59-1.4-1.37-1.7-3.84 1.8-7.98 6.85-7.98 10.93 0 2.58 1.56 4.27 3.96 4.27 2.04 0 3.72-1.5 3.96-3.85zm11.04 0c-1.62-.48-2.21-1.62-2.21-2.87 0-2.24 1.86-5.05 3.65-6.78-.06-.85-.6-1.4-1.37-1.7-3.85 1.8-7.99 6.85-7.99 10.93 0 2.58 1.56 4.27 3.96 4.27 2.04 0 3.71-1.5 3.96-3.85zm0 0"/></symbol><symbol overflow="visible" id="48a068fdc"><path d="M11.22-11.52v-21.36h6.65l.43-.48c-.24-1.2-.78-2.45-1.38-3.42H9.91c-1.4-2.1-2.18-4.27-2.18-6.24 0-4.14 3.49-7.07 9.43-7.07 6.84 0 14.93 3.82 24.71 11.39a3.67 3.67 0 001.93-2.28c-9.49-8.46-18.6-13.38-27.53-13.38-8.47 0-13.46 4.44-13.46 9.78 0 3.06 1.69 5.77 3.55 7.67v.13H-.95l-.43.42c.24 1.2.79 2.45 1.38 3.48h6.3v32.1a16.8 16.8 0 004.75 1.5l.47-.36c-.24-3.6-.3-7.67-.3-11.88zm0 0"/></symbol><symbol overflow="visible" id="48a068fdd"><path d="M14.1-27.3c-6.6 0-11.82 3.9-11.82 10.08C2.28-10.69 9.23-6 15.18-6c2.63 0 5.82-.72 8.46-2.7l.13.06v7.86C25.07-.06 27 .48 28.5.72l.42-.36c-.19-3.6-.23-7.67-.23-11.88v-21.36h6.76l.42-.48c-.23-1.2-.78-2.45-1.37-3.42H-.95l-.43.42c.24 1.2.79 2.45 1.38 3.48h23.77v9.11l-.13.07c-2.52-2.4-6-3.6-9.55-3.6zM9.35-11.1c-1.5-1.13-2.16-3.06-2.16-5.1 0-3.66 3.07-6.9 8.03-6.9 2.77 0 5.35.83 8.54 3.37v4.43c-2.54 3.85-6.61 5.22-10.46 5.22-1.5 0-3.4-.54-3.95-1.01zm0 0"/></symbol><symbol overflow="visible" id="48a068fde"><path d="M4.38-36.78H-3.6l-.43.42c.24 1.2.79 2.45 1.38 3.48h7.98l.43-.48c-.25-1.2-.79-2.45-1.4-3.42zm0 0"/></symbol><symbol overflow="visible" id="48a068fdf"><path d="M3.72-11.88A74.41 74.41 0 0014.45-18c1.4.6 2.83 1.08 4.2 1.5v.13c-3.88 1.25-6.23 3.82-6.23 6.82 0 4.46 4.63 8.18 9.9 8.18 2.4 0 4.26-.85 5.7-2.05v3.36c1.32.72 3.18 1.26 4.75 1.5l.42-.36c-.25-3.6-.31-7.67-.31-11.88v-22.07h6.84l.42-.49c-.3-1.2-.78-2.45-1.37-3.42H22.62l-.42.42c.3 1.2.78 2.45 1.38 3.48h4.44v13.8a39.15 39.15 0 01-10.44-1.5c2.47-2.4 3.9-4.92 3.9-7.73 0-5.05-4.62-9.32-9.6-9.32-4.02 0-7.74 2.7-7.74 7.7 0 4 2.4 7.13 5.7 9.41a94.67 94.67 0 01-8.57 4.57 7.5 7.5 0 002.45 4.07zm5.1-17.46c0-2.64 1.87-4.68 4.13-4.68 2.4 0 4.2 2.04 4.2 4.61 0 2.47-1.67 4.7-4.2 6.72-2.93-1.97-4.14-4.5-4.14-6.65zm9.3 23.76a4.17 4.17 0 01-1.03-2.87c0-3.85 4.2-6 9.32-6 .53 0 1.14 0 1.6.04v4.4c-1.37 3.17-4.37 5.21-7.3 5.21-1.15 0-2-.3-2.59-.78zm0 0"/></symbol><symbol overflow="visible" id="48a068fdg"><path d="M35.7-3c0 2.05 1.61 3.6 3.66 3.6A3.57 3.57 0 0043.02-3c0-1.86-1.61-3.3-3.66-3.3S35.7-4.86 35.7-3zm-15 0c0 2.05 1.61 3.6 3.66 3.6A3.57 3.57 0 0028.02-3c0-1.86-1.61-3.3-3.66-3.3S20.7-4.86 20.7-3zM5.64-3C5.64-.95 7.27.6 9.3.6A3.57 3.57 0 0012.95-3c0-1.86-1.6-3.3-3.65-3.3-2.03 0-3.66 1.44-3.66 3.3zm0 0"/></symbol><symbol overflow="visible" id="48a068fdh"><path d="M15.78-41.94c1.31.42 1.86 1.44 1.86 2.4 0 1.91-1.56 4.32-3.06 5.76 0 .78.54 1.2 1.2 1.5 3.17-1.56 6.66-5.81 6.66-9.3 0-2.15-1.25-3.65-3.36-3.65-1.67 0-3.17 1.3-3.3 3.3zm-9.42 0c1.33.42 1.86 1.44 1.86 2.4 0 1.91-1.56 4.32-3.06 5.76 0 .78.54 1.2 1.2 1.5 3.19-1.56 6.66-5.81 6.66-9.3 0-2.15-1.25-3.65-3.36-3.65-1.68 0-3.18 1.3-3.3 3.3zm0 0"/></symbol><symbol overflow="visible" id="48a068fdj"><path d="M14.22-37.63c-3.95 0-7.86 1.04-11.22 2.77 0 3.23.42 6.3 1.02 9.42 1.14.49 2.21.42 3.3 0 .05-2.51.3-5.1.77-7.56 1.2-.23 2.83-.42 4.2-.42 4.4 0 7.02 3.3 7.02 7.33 0 6.4-6.95 13.01-17.15 21.23-.11 1.92.12 3.42.65 4.8h10.2c3.91 0 9.68 0 13.08.12l.49-.42c.55-3.36.72-6.9.65-10.33a6.03 6.03 0 00-3.23-.23c-.55 2.1-1.2 4.44-1.92 6.48H7.86l4.44-3.78c6.48-5.51 12.54-11.7 12.54-19.26 0-6.24-4.32-10.14-10.62-10.14zm0 0"/></symbol><symbol overflow="visible" id="48a068fdk"><path d="M26.81-2.77a17.73 17.73 0 00-4.43-.95 39.1 39.1 0 01-.24-4.56v-1.74h6.42c.36-1.2.42-2.17.24-3.42l-6.66-.36v-22.43c-1.5-.68-3-.91-4.5-.91L1.62-14.1c0 1.43.3 2.8.83 4.07h14.7v3c0 1.14-.06 2.29-.23 3.3-2.1.42-3.9.78-5.87.95 0 .91.1 1.93.47 2.83 2.76 0 5.17-.12 8.04-.12 1.99 0 5.28 0 6.9.12.3-.9.41-1.86.35-2.83zm-9.76-28.3h.1v17.34H5.78l9.53-13.82zm0 0"/></symbol><symbol overflow="visible" id="48a068fdl"><path d="M3.55-34.86c.04 2.88.36 5.77.89 8.64 1.26.42 2.34.42 3.48 0 .06-2.34.24-4.56.6-6.78 1.26-.23 2.89-.42 4.32-.42 3.85 0 6.18 2.58 6.18 5.47 0 2.93-2.75 6.53-7.61 6.6a6.62 6.62 0 00-.43 3.83l.43.36c.59-.06 1.37-.12 2.28-.12 3.72 0 6.89 2.7 6.89 6.6 0 2.23-.78 4.32-2.22 5.76-.6.6-2.81 1.5-5.34 1.5-1.74 0-3.47-.13-4.8-.42-.6-2.35-.95-4.74-1.27-7.14a5.37 5.37 0 00-3.04.25c-.43 3.1-.61 6.42-.61 9.65 3 1.2 6 1.86 9.25 1.86 7.25 0 13.5-5.58 13.5-12.42 0-4.2-2.18-7.67-7.46-8.94 3.97-2.05 5.83-5.15 5.83-8.76 0-4.44-4.14-8.29-9.72-8.29a24.4 24.4 0 00-11.15 2.77zm0 0"/></symbol><symbol overflow="visible" id="48a068fdm"><path d="M3.83 0v-5.95H6.2v-.82H.45v.82h2.4V0zm0 0"/></symbol><symbol overflow="visible" id="48a068fdn"><path d="M5.75-2.23v-.43c0-1.6-.9-2.51-2.42-2.51S.87-4.16.87-2.48c0 1.71.91 2.62 2.5 2.62 1.43 0 2.07-.56 2.29-1.52l-.9-.09c-.18.61-.59.9-1.35.9-.94 0-1.52-.54-1.58-1.66zm-2.4-2.2c.93 0 1.43.5 1.48 1.55H1.84c.08-1.07.6-1.56 1.5-1.56zm0 0"/></symbol><symbol overflow="visible" id="48a068fdo"><path d="M1.83 0l1.42-2h.06l1.46 2H5.8L4-2.53l1.78-2.49H4.8L3.42-3.08h-.08l-1.4-1.94H.89l1.78 2.49L.84 0zm0 0"/></symbol><symbol overflow="visible" id="48a068fdp"><path d="M5.52-4.25v-.77H3.17v-1.56h-.81l-.14 1.56H.75v.77h1.47v2.4c0 1.3.48 1.94 1.84 1.94C4.6.1 5.14 0 5.55-.14L5.4-.91c-.32.13-.72.2-1.13.2-.8 0-1.1-.37-1.1-1.23v-2.31zm0 0"/></symbol><symbol overflow="visible" id="48a068fdq"><path d="M3.33-3.42c.47 0 .8-.27.8-.8 0-.51-.33-.8-.8-.8-.47 0-.8.29-.8.8 0 .53.33.8.8.8zm0 3.5c.47 0 .8-.27.8-.78 0-.53-.33-.82-.8-.82-.47 0-.8.29-.8.82 0 .51.33.78.8.78zm0 0"/></symbol><symbol overflow="visible" id="48a068fds"><path d="M2.3-5.97c.1-.47.39-1 .64-1.34l-.58-.22c-.34.39-.95 1.39-.95 2.26 0 .6.3.93.86.93.54 0 .82-.32.82-.85 0-.51-.32-.78-.8-.78zm2.17 0c.1-.47.39-1 .62-1.34l-.56-.22c-.34.39-.95 1.39-.95 2.26 0 .6.31.93.86.93.53 0 .83-.32.83-.85 0-.51-.33-.78-.8-.78zm0 0"/></symbol><symbol overflow="visible" id="48a068fdw"><path d="M1.05.1c.43 0 .7-.27.7-.85 0-.56-.27-.83-.7-.83-.46 0-.7.27-.7.83 0 .58.24.84.7.84zm2.28 0c.44 0 .7-.27.7-.85 0-.56-.26-.83-.7-.83-.46 0-.69.27-.69.83 0 .58.23.84.69.84zM5.6.1c.45 0 .7-.27.7-.85 0-.56-.25-.83-.7-.83-.45 0-.69.27-.69.83 0 .58.24.84.69.84zm0 0"/></symbol><symbol overflow="visible" id="48a068fdx"><path d="M2.25-7.53c-.52 0-.81.28-.81.8 0 .51.34.76.78.76h.03c-.1.47-.4 1.02-.64 1.38l.5.2c.34-.4.95-1.36.95-2.25 0-.6-.31-.9-.81-.9zm2.17 0c-.51 0-.81.28-.81.8 0 .51.34.76.78.76h.03c-.1.47-.39 1.02-.64 1.38l.5.2c.33-.4.95-1.36.95-2.25 0-.6-.3-.9-.8-.9zm0 0"/></symbol><symbol overflow="visible" id="48a068fdy"><path d="M5.67 0v-.86H2.14V-.9L3.6-2c1.05-.83 2-1.68 2-2.91 0-1.19-.73-1.99-2.26-1.99-1.66 0-2.3 1.02-2.44 2.33l1 .08c.1-.92.42-1.58 1.44-1.58.87 0 1.26.44 1.26 1.24 0 .9-.8 1.53-1.96 2.53L.83-.81V0zm0 0"/></symbol><symbol overflow="visible" id="48a068fdz"><path d="M5.1 0v-1.47H6v-.81h-.9v-4.49H3.8L.48-2.23v.76h3.66V0zM1.5-2.33l2.6-3.53h.04v3.58H1.5zm0 0"/></symbol><symbol overflow="visible" id="48a068fdA"><path d="M3.25.14c1.58 0 2.53-.69 2.53-1.95 0-1.19-.92-1.56-1.6-1.61v-.05A1.6 1.6 0 005.6-5.12c0-1.13-.87-1.79-2.3-1.79-1.62 0-2.32.82-2.45 1.88l.97.06c.13-.69.52-1.1 1.47-1.1.86 0 1.35.32 1.35 1.05 0 .86-.6 1.2-1.66 1.2h-.49v.79h.54c1.12 0 1.78.25 1.78 1.14 0 .78-.46 1.22-1.55 1.22-1.06 0-1.48-.4-1.63-1.1l-.98.07C.75-.56 1.56.14 3.25.14zm0 0"/></symbol><symbol overflow="visible" id="48a068fdB"><path d="M5.95-6.77H1.1V0h.99v-2.92H5.3v-.77H2.08v-2.26h3.87zm0 0"/></symbol><symbol overflow="visible" id="48a068fdC"><path d="M2.83.14c.94 0 1.5-.39 1.81-.95h.08l.1.81h.76v-3.38c0-1.23-.69-1.8-2.13-1.8-1.43 0-2.03.65-2.18 1.6l.93.1c.11-.6.44-.93 1.22-.93.85 0 1.22.32 1.22 1.04v.34l-1.81.2C1.6-2.7 1.1-2.17 1.1-1.28c0 .92.64 1.42 1.72 1.42zm.25-.77c-.67 0-1.02-.28-1.02-.74 0-.44.28-.72 1-.82l1.58-.19v.41c0 .8-.6 1.34-1.56 1.34zm0 0"/></symbol><symbol overflow="visible" id="48a068fdD"><path d="M2.73.14c.9 0 1.43-.45 1.74-1.08h.06l.13.94h.8v-5.02h-.94v2.7c0 .98-.57 1.62-1.46 1.62-.75 0-1.1-.4-1.1-1.22v-3.1h-.93v3.32c0 1.17.55 1.84 1.7 1.84zm0 0"/></symbol><symbol overflow="visible" id="48a068fdE"><path d="M5.08-5.16c-.94 0-1.58.43-1.9 1.3h-.09l-.07-1.16H1.05v.77h1.1v3.48H.96V0h3.96v-.77H3.1v-1.46c0-1.36.6-2.05 1.83-2.05.4 0 .76.08 1.1.17l.15-.87c-.33-.11-.7-.18-1.11-.18zm0 0"/></symbol><symbol overflow="visible" id="48a068fdF"><path d="M6.17 0L3.98-6.77h-1.3L.5 0h.97l.44-1.47h2.78L5.16 0zM3.28-5.94h.08l1.1 3.74H2.15zm0 0"/></symbol><symbol overflow="visible" id="48a068fdG"><path d="M2.84.14C3.8.14 4.33-.26 4.6-.9h.07L4.8 0h.76v-7.14h-.95v2.95h-.08c-.28-.6-.86-.97-1.67-.97-1.48 0-2.27.99-2.27 2.64C.6-.84 1.36.14 2.84.14zm.22-.8c-.98 0-1.48-.59-1.48-1.84s.5-1.86 1.48-1.86c1.13 0 1.58.8 1.58 1.86S4.2-.66 3.06-.66zm0 0"/></symbol><symbol overflow="visible" id="48a068fdH"><path d="M2.06 1.9V-.84h.05c.28.58.8.97 1.77.97 1.5 0 2.2-.98 2.2-2.66 0-1.65-.7-2.64-2.19-2.64-.97 0-1.5.44-1.78 1.05h-.08l-.1-.9H1.1v6.9zm1.5-2.56c-1.06 0-1.53-.8-1.53-1.86 0-1.04.47-1.84 1.53-1.84 1.11 0 1.53.61 1.53 1.84 0 1.27-.42 1.86-1.53 1.86zm0 0"/></symbol><symbol overflow="visible" id="48a068fdI"><path d="M2.08-6.77h-.99V0h4.79v-.81h-3.8zm0 0"/></symbol><symbol overflow="visible" id="48a068fdJ"><path d="M3.58-5.81c.42 0 .72-.22.72-.67 0-.44-.3-.68-.72-.68-.44 0-.72.24-.72.68 0 .45.28.67.72.67zm.5.8H1.52v.76h1.6v3.48h-1.8V0h4.46v-.77h-1.7zm0 0"/></symbol><symbol overflow="visible" id="48a068fdK"><path d="M2.16 0v-2.67c0-.99.59-1.63 1.46-1.63.74 0 1.07.38 1.07 1.22V0h.95v-3.31c0-1.2-.56-1.85-1.67-1.85-.92 0-1.49.46-1.77 1.08h-.06l-.12-.94H1.2V0zm0 0"/></symbol><symbol overflow="visible" id="48a068fdL"><path d="M3.34.14c1.43 0 2.13-.66 2.25-1.78l-.89-.1c-.1.7-.5 1.08-1.34 1.08-1.03 0-1.52-.64-1.52-1.84 0-1.23.47-1.86 1.52-1.86.84 0 1.23.36 1.34 1.08l.9-.1c-.13-1.09-.82-1.78-2.26-1.78-1.56 0-2.46.97-2.46 2.66 0 1.66.9 2.64 2.46 2.64zm0 0"/></symbol><symbol overflow="visible" id="48a068fdM"><path d="M3.33.14c1.62 0 2.5-.95 2.5-2.66 0-1.68-.88-2.64-2.5-2.64-1.63 0-2.5.96-2.5 2.64 0 1.7.87 2.66 2.5 2.66zm0-.77c-1.06 0-1.52-.6-1.52-1.89 0-1.28.46-1.87 1.52-1.87 1.08 0 1.53.6 1.53 1.87 0 1.29-.45 1.9-1.53 1.9zm0 0"/></symbol><symbol overflow="visible" id="48a068fdN"><path d="M1.63 0v-2.9c0-.8.15-1.4.71-1.4.41 0 .55.3.55.88V0h.95v-2.9c0-.8.18-1.4.72-1.4.4 0 .57.3.57.88V0h.95v-3.63c0-.92-.28-1.53-1.11-1.53-.63 0-.95.41-1.1.9h-.06c-.1-.52-.44-.9-1.08-.9-.6 0-.93.41-1.06.9H1.6l-.23-.76H.67V0zm0 0"/></symbol><symbol overflow="visible" id="48a068fdO"><path d="M3.92-7.14H1.36v.76h1.6v5.61H1.15V0H5.7v-.77H3.92zm0 0"/></symbol><symbol overflow="visible" id="48a068fdP"><path d="M3.36.16c1.4 0 2.2-.6 2.2-1.57 0-.89-.54-1.22-1.47-1.39L3-3c-.67-.14-.86-.33-.86-.73 0-.5.4-.74 1.17-.74.83 0 1.19.27 1.27.8l.9-.05c-.12-1-.8-1.47-2.17-1.47-1.34 0-2.1.53-2.1 1.5 0 .81.45 1.22 1.52 1.44l1.04.2c.56.11.87.24.87.72 0 .52-.45.78-1.28.78-.95 0-1.36-.28-1.42-.87l-.9.06C1.07-.36 1.8.16 3.35.16zm0 0"/></symbol><symbol overflow="visible" id="48a068fdQ"><path d="M1.45-2.95c0 2.56 1.08 4.37 3.67 4.84l.11-.67C3.28.86 2.43-.75 2.43-2.95s.85-3.82 2.8-4.16l-.1-.69c-2.6.49-3.68 2.3-3.68 4.85zm0 0"/></symbol><symbol overflow="visible" id="48a068fdR"><path d="M3.16 2.03c1.67 0 2.4-.86 2.4-2.51v-4.54h-.81l-.13.91h-.06c-.26-.58-.8-1.05-1.73-1.05-1.42 0-2.24 1-2.24 2.52 0 1.6.75 2.56 2.2 2.56.94 0 1.5-.5 1.77-1.03h.05v.72c0 1.17-.42 1.67-1.45 1.67-.93 0-1.3-.34-1.41-.89L.8.5c.12.96.87 1.54 2.36 1.54zM3.06-.8c-.98 0-1.48-.57-1.48-1.82 0-1.13.5-1.75 1.48-1.75 1.06 0 1.58.76 1.58 1.75 0 .95-.56 1.82-1.58 1.82zm0 0"/></symbol><symbol overflow="visible" id="48a068fdS"><path d="M3.33.14c1.65 0 2.6-1.1 2.6-3.52S4.99-6.9 3.34-6.9C1.67-6.9.72-5.8.72-3.37c0 2.4.95 3.51 2.6 3.51zm0-.84c-1.13 0-1.6-.85-1.6-2.67 0-1.86.47-2.7 1.6-2.7 1.12 0 1.6.84 1.6 2.7 0 1.82-.48 2.67-1.6 2.67zM3.3-2.64c.38 0 .56-.28.56-.72 0-.44-.18-.7-.56-.7-.39 0-.56.26-.56.7 0 .44.17.72.56.72zm0 0"/></symbol><symbol overflow="visible" id="48a068fdT"><path d="M1.45-7.1c1.96.33 2.8 1.94 2.8 4.15 0 2.2-.84 3.8-2.8 4.17l.11.67c2.58-.47 3.67-2.28 3.67-4.84 0-2.55-1.09-4.36-3.67-4.85zm0 0"/></symbol><symbol overflow="visible" id="48a068fdt"><path d="M6.55-7.1l.62-.56a4.74 4.74 0 00-3.7-1.71C1.89-9.38.92-8.6.92-7.31v.81H-.23v.77H.92V0h.94v-5.73h1.17v-.77H1.86v-.81c0-.78.55-1.24 1.6-1.24 1.5 0 2.54.75 3.09 1.44zm0 0"/></symbol><symbol overflow="visible" id="48a068fdu"><path d="M4.64 0v-5.73H5.8v-.77H-.23v.77h3.92v2.45c0 .76-.46 1.37-1.24 1.37-.64 0-1.06-.43-1.06-1.04 0-.85.77-1.2 1.52-1l-.07-.85C1.66-5.02.41-4.38.41-2.95c0 1.14.86 1.87 1.89 1.87.72 0 1.15-.31 1.36-.54h.03V0zm0 0"/></symbol><symbol overflow="visible" id="48a068fdv"><path d="M1.81-3.9l.56-.6a.67.67 0 01-.53-.66c0-.36.25-.65.7-.65.46 0 .88.37.88 1.1 0 .91-.73 1.48-1.72 1.48-.3 0-.68-.07-1.01-.2l-.56.74.74.6L3.23.16l.8-.54L2.8-1.54c-.49-.43-.82-.65-1.1-.89v-.03c1.4.05 2.67-.73 2.67-2.26 0-.96-.6-1.86-1.85-1.86-.96 0-1.63.65-1.63 1.43 0 .61.33 1.1.92 1.25zM9.47 0v-5.73h1.15v-.77H5.17v.77h3.35v2.45c0 .76-.46 1.37-1.22 1.37-.66 0-1.08-.43-1.08-1.04 0-.85.78-1.2 1.53-1l-.08-.85c-1.19-.22-2.44.42-2.44 1.85 0 1.14.86 1.87 1.9 1.87.71 0 1.15-.31 1.35-.54h.04V0zm0 0"/></symbol></defs><use xlink:href="#48a068fda" x="149.4" y="147.5" fill="#fff"/><use xlink:href="#48a068fdb" x="162.18" y="147.5" fill="#fff"/><g fill="#515151"><use xlink:href="#48a068fdc" x="186.96" y="147.5"/><use xlink:href="#48a068fdd" x="203.7" y="147.5"/></g><g fill="#515151"><use xlink:href="#48a068fde" x="238.2" y="147.5"/><use xlink:href="#48a068fdf" x="238.2" y="147.5"/></g><g fill="#fff"><use xlink:href="#48a068fdg" x="276.96" y="147.5"/><use xlink:href="#48a068fdh" x="325.56" y="147.5"/><use xlink:href="#48a068fdi" x="347.58" y="147.5"/><use xlink:href="#48a068fdj" x="361.14" y="147.5"/><use xlink:href="#48a068fdk" x="390.84" y="147.5"/><use xlink:href="#48a068fdl" x="421.26" y="147.5"/></g><g fill="#fff"><use xlink:href="#48a068fdm" x="243.9683" y="251"/><use xlink:href="#48a068fdn" x="250.6353" y="251"/><use xlink:href="#48a068fdo" x="257.3023" y="251"/><use xlink:href="#48a068fdp" x="263.9693" y="251"/><use xlink:href="#48a068fdq" x="270.6363" y="251"/><use xlink:href="#48a068fdr" x="277.3033" y="251"/><use xlink:href="#48a068fdr" x="283.9703" y="251"/><use xlink:href="#48a068fds" x="290.6373" y="251"/></g><g fill="#fff"><use xlink:href="#48a068fdt" x="297.3017" y="251"/><use xlink:href="#48a068fdu" x="300.0817" y="251"/></g><use xlink:href="#48a068fdv" x="305.6417" y="251" fill="#fff"/><g fill="#fff"><use xlink:href="#48a068fdw" x="316.0317" y="251"/><use xlink:href="#48a068fdx" x="322.6987" y="251"/><use xlink:href="#48a068fdr" x="329.3657" y="251"/><use xlink:href="#48a068fdy" x="336.0327" y="251"/><use xlink:href="#48a068fdz" x="342.6997" y="251"/><use xlink:href="#48a068fdA" x="349.3667" y="251"/></g><g fill="#fff"><use xlink:href="#48a068fdB" x="66.66667" y="266"/><use xlink:href="#48a068fdn" x="73.33367" y="266"/><use xlink:href="#48a068fdC" x="80.00067" y="266"/><use xlink:href="#48a068fdp" x="86.66767" y="266"/><use xlink:href="#48a068fdD" x="93.33467" y="266"/><use xlink:href="#48a068fdE" x="100.00167" y="266"/><use xlink:href="#48a068fdn" x="106.66867" y="266"/><use xlink:href="#48a068fdq" x="113.33567" y="266"/><use xlink:href="#48a068fdr" x="120.00267" y="266"/><use xlink:href="#48a068fdF" x="126.66967" y="266"/><use xlink:href="#48a068fdG" x="133.33667" y="266"/><use xlink:href="#48a068fdC" x="140.00367" y="266"/><use xlink:href="#48a068fdH" x="146.67067" y="266"/><use xlink:href="#48a068fdp" x="153.33767" y="266"/><use xlink:href="#48a068fdn" x="160.00467" y="266"/><use xlink:href="#48a068fdG" x="166.67167" y="266"/><use xlink:href="#48a068fdr" x="173.33867" y="266"/><use xlink:href="#48a068fdI" x="180.00567" y="266"/><use xlink:href="#48a068fdC" x="186.67267" y="266"/><use xlink:href="#48a068fdp" x="193.33967" y="266"/><use xlink:href="#48a068fdJ" x="200.00667" y="266"/><use xlink:href="#48a068fdK" x="206.67367" y="266"/><use xlink:href="#48a068fdr" x="213.34067" y="266"/><use xlink:href="#48a068fdH" x="220.00767" y="266"/><use xlink:href="#48a068fdD" x="226.67467" y="266"/><use xlink:href="#48a068fdK" x="233.34167" y="266"/><use xlink:href="#48a068fdL" x="240.00867" y="266"/><use xlink:href="#48a068fdp" x="246.67567" y="266"/><use xlink:href="#48a068fdD" x="253.34267" y="266"/><use xlink:href="#48a068fdC" x="260.00967" y="266"/><use xlink:href="#48a068fdp" x="266.67667" y="266"/><use xlink:href="#48a068fdJ" x="273.34367" y="266"/><use xlink:href="#48a068fdM" x="280.01067" y="266"/><use xlink:href="#48a068fdK" x="286.67767" y="266"/><use xlink:href="#48a068fdr" x="293.34467" y="266"/><use xlink:href="#48a068fdC" x="300.01167" y="266"/><use xlink:href="#48a068fdK" x="306.67867" y="266"/><use xlink:href="#48a068fdG" x="313.34567" y="266"/><use xlink:href="#48a068fdr" x="320.01267" y="266"/><use xlink:href="#48a068fdK" x="326.67967" y="266"/><use xlink:href="#48a068fdD" x="333.34667" y="266"/><use xlink:href="#48a068fdN" x="340.01367" y="266"/><use xlink:href="#48a068fdn" x="346.68067" y="266"/><use xlink:href="#48a068fdE" x="353.34767" y="266"/><use xlink:href="#48a068fdC" x="360.01467" y="266"/><use xlink:href="#48a068fdO" x="366.68167" y="266"/><use xlink:href="#48a068fdP" x="373.34867" y="266"/><use xlink:href="#48a068fdr" x="380.01567" y="266"/><use xlink:href="#48a068fdQ" x="386.68267" y="266"/><use xlink:href="#48a068fdP" x="393.34967" y="266"/><use xlink:href="#48a068fdn" x="400.01667" y="266"/><use xlink:href="#48a068fdp" x="406.68367" y="266"/><use xlink:href="#48a068fdr" x="413.35067" y="266"/><use xlink:href="#48a068fdO" x="420.01767" y="266"/><use xlink:href="#48a068fdC" x="426.68467" y="266"/><use xlink:href="#48a068fdK" x="433.35167" y="266"/><use xlink:href="#48a068fdR" x="440.01867" y="266"/><use xlink:href="#48a068fdD" x="446.68567" y="266"/><use xlink:href="#48a068fdC" x="453.35267" y="266"/><use xlink:href="#48a068fdR" x="460.01967" y="266"/><use xlink:href="#48a068fdn" x="466.68667" y="266"/><use xlink:href="#48a068fdr" x="473.35367" y="266"/><use xlink:href="#48a068fdM" x="480.02067" y="266"/><use xlink:href="#48a068fdE" x="486.68767" y="266"/><use xlink:href="#48a068fdr" x="493.35467" y="266"/><use xlink:href="#48a068fdP" x="500.02167" y="266"/><use xlink:href="#48a068fdP" x="506.68867" y="266"/><use xlink:href="#48a068fdS" x="513.35567" y="266"/><use xlink:href="#48a068fdA" x="520.02267" y="266"/><use xlink:href="#48a068fdT" x="526.68967" y="266"/></g></svg>