<?xml version='1.0' encoding='UTF-8'?>
<svg xmlns="http://www.w3.org/2000/svg" xmlns:xlink="http://www.w3.org/1999/xlink" width="600px" height="300px" viewBox="0 0 600 300" x="0px" y="0px" enable-background="new 0 0 600 300"><defs><symbol overflow="visible" id="a01cf277a"><path d="M23.16-17.28h-7.02c-2.34 0-4.33.3-5.87.9C8.7-17.7 7.63-19.2 7.63-20.8c0-2.4 1.8-3.32 5.57-3.32h11.94l.48-.42c-.12-2.45-.18-5.03-.18-8.32h7.33l.35-.49c-.24-1.2-.71-2.45-1.32-3.42H-.95l-.43.42c.24 1.2.79 2.45 1.38 3.48h20.58v4.44h-9.24c-5.04 0-8.46 2.46-8.46 6.36 0 2.58 1.68 5.22 4.26 7.44A6.93 6.93 0 004.8-9.36c0 6.3 7.2 11.1 13.75 11.1 4.43 0 8.32-2.29 10.25-5.04-.6-1.33-1.93-2.64-2.88-3.48h-.6c-2.4 2.87-5.27 4.33-9 4.33a7.8 7.8 0 01-3.84-.85 5.83 5.83 0 01-2.76-4.92c0-2.28 1.69-4.56 7.69-4.56h6.82l.43-.42c-.36-1.61-.72-2.82-1.5-4.08zm0 0"/></symbol><symbol overflow="visible" id="a01cf277b"><path d="M11.77-26.77c-2.64 0-5.29 1.4-10.04 4.27a6.44 6.44 0 002.96 4.2c4.01-2.57 6.04-3.9 8.1-3.9 1.73 0 3.23.97 8.5 5.4L5.95-7.73a6.75 6.75 0 003.12 3.95l14.35-9.6h.1v12.6a16.8 16.8 0 004.76 1.5l.46-.36c-.23-3.6-.3-7.67-.3-11.88v-1.03c1.57 1.14 3.26 1.99 5.12 1.99a8.46 8.46 0 007.18-4.56c2.54 1.62 3.55 3.42 3.55 5.04 0 2.46-2.58 4.63-5.16 5.58a6.16 6.16 0 002.29 4.02c5.03-1.86 7.43-5.22 7.43-8.75 0-3.68-2.7-6.61-6.6-9.13.35-1.14.54-2.4.54-3.66 0-2.7-1.37-3.67-3.78-3.67-2.81 0-5.22 1.2-5.22 3.19 0 1.31 1.27 3.36 3.3 4.73-.85 2.35-3.06 3.07-4.74 3.07-1.32 0-2.7-.6-3.9-1.5v-16.68h22.8l.42-.48c-.24-1.2-.78-2.45-1.38-3.42H-.95l-.43.42c.24 1.2.79 2.45 1.38 3.48h23.52v13.32h-.11c-6.36-5.52-8.6-7.2-11.64-7.2zm0 0"/></symbol><symbol overflow="visible" id="a01cf277c"><path d="M28.44 6.48L23.34-3c1.68-.9 2.75-2.22 2.75-3.84 0-2.94-3.59-4.93-5.93-4.93-1.74 0-2.64 1.08-2.64 3 0 .79.18 1.75.48 2.64-.84.32-1.73.55-2.77.55-1.67 0-3.17-.6-4.14-1.56a6.67 6.67 0 01-1.54-4.44c0-4.14 3.04-8.58 12.65-8.58h8.35V-.78c1.3.72 3.23 1.26 4.73 1.5l.42-.36c-.25-3.6-.3-7.67-.3-11.88v-21.36h6.83l.43-.48c-.24-1.2-.78-2.45-1.38-3.42H-.95l-.43.42c.24 1.2.79 2.45 1.38 3.48h30.55v8.4H1.27L.84-24c.24 1.14.79 2.45 1.38 3.42h6.72l.06.17c-2.81 1.57-4.2 4.75-4.2 7.63C4.8-6.95 10.38-1.5 17.16-1.5c.96 0 1.92-.13 2.82-.3l3.83 10.32c1.88-.07 3.85-.9 4.63-2.04zm0 0"/></symbol><symbol overflow="visible" id="a01cf277d"><path d="M5.95-6.77H1.1V0h.99v-2.92H5.3v-.77H2.08v-2.26h3.87zm0 0"/></symbol><symbol overflow="visible" id="a01cf277e"><path d="M5.75-2.23v-.43c0-1.6-.9-2.51-2.42-2.51S.87-4.16.87-2.48c0 1.71.91 2.62 2.5 2.62 1.43 0 2.07-.56 2.29-1.52l-.9-.09c-.18.61-.59.9-1.35.9-.94 0-1.52-.54-1.58-1.66zm-2.4-2.2c.93 0 1.43.5 1.48 1.55H1.84c.08-1.07.6-1.56 1.5-1.56zm0 0"/></symbol><symbol overflow="visible" id="a01cf277f"><path d="M2.83.14c.94 0 1.5-.39 1.81-.95h.08l.1.81h.76v-3.38c0-1.23-.69-1.8-2.13-1.8-1.43 0-2.03.65-2.18 1.6l.93.1c.11-.6.44-.93 1.22-.93.85 0 1.22.32 1.22 1.04v.34l-1.81.2C1.6-2.7 1.1-2.17 1.1-1.28c0 .92.64 1.42 1.72 1.42zm.25-.77c-.67 0-1.02-.28-1.02-.74 0-.44.28-.72 1-.82l1.58-.19v.41c0 .8-.6 1.34-1.56 1.34zm0 0"/></symbol><symbol overflow="visible" id="a01cf277g"><path d="M5.52-4.25v-.77H3.17v-1.56h-.81l-.14 1.56H.75v.77h1.47v2.4c0 1.3.48 1.94 1.84 1.94C4.6.1 5.14 0 5.55-.14L5.4-.91c-.32.13-.72.2-1.13.2-.8 0-1.1-.37-1.1-1.23v-2.31zm0 0"/></symbol><symbol overflow="visible" id="a01cf277h"><path d="M2.73.14c.9 0 1.43-.45 1.74-1.08h.06l.13.94h.8v-5.02h-.94v2.7c0 .98-.57 1.62-1.46 1.62-.75 0-1.1-.4-1.1-1.22v-3.1h-.93v3.32c0 1.17.55 1.84 1.7 1.84zm0 0"/></symbol><symbol overflow="visible" id="a01cf277i"><path d="M5.08-5.16c-.94 0-1.58.43-1.9 1.3h-.09l-.07-1.16H1.05v.77h1.1v3.48H.96V0h3.96v-.77H3.1v-1.46c0-1.36.6-2.05 1.83-2.05.4 0 .76.08 1.1.17l.15-.87c-.33-.11-.7-.18-1.11-.18zm0 0"/></symbol><symbol overflow="visible" id="a01cf277j"><path d="M3.33-3.42c.47 0 .8-.27.8-.8 0-.51-.33-.8-.8-.8-.47 0-.8.29-.8.8 0 .53.33.8.8.8zm0 3.5c.47 0 .8-.27.8-.78 0-.53-.33-.82-.8-.82-.47 0-.8.29-.8.82 0 .51.33.78.8.78zm0 0"/></symbol><symbol overflow="visible" id="a01cf277l"><path d="M2.16 0v-2.69c0-.98.6-1.6 1.46-1.6.74 0 1.07.4 1.07 1.2V0h.95v-3.31c0-1.17-.56-1.85-1.67-1.85-.9 0-1.44.46-1.75 1.08h-.06v-3.06H1.2V0zm0 0"/></symbol><symbol overflow="visible" id="a01cf277m"><path d="M3.92-7.14H1.36v.76h1.6v5.61H1.15V0H5.7v-.77H3.92zm0 0"/></symbol><symbol overflow="visible" id="a01cf277n"><path d="M2.16 0v-2.67c0-.99.59-1.63 1.46-1.63.74 0 1.07.38 1.07 1.22V0h.95v-3.31c0-1.2-.56-1.85-1.67-1.85-.92 0-1.49.46-1.77 1.08h-.06l-.12-.94H1.2V0zm0 0"/></symbol><symbol overflow="visible" id="a01cf277o"><path d="M3.58-5.81c.42 0 .72-.22.72-.67 0-.44-.3-.68-.72-.68-.44 0-.72.24-.72.68 0 .45.28.67.72.67zm.5.8H1.52v.76h1.6v3.48h-1.8V0h4.46v-.77h-1.7zm0 0"/></symbol><symbol overflow="visible" id="a01cf277p"><path d="M3.9 0l2-5.02h-.96L3.4-.94h-.07L1.8-5.02H.77L2.78 0zm0 0"/></symbol><symbol overflow="visible" id="a01cf277q"><path d="M4.63-6.5c.45 0 .98.08 1.39.2l.2-.72a5.3 5.3 0 00-1.64-.26c-1.52 0-2.16.56-2.16 1.87v.4H.9v.76h1.53V0h.94v-4.25h2.53v-.77H3.36v-.3c0-.84.33-1.18 1.27-1.18zm0 0"/></symbol><symbol overflow="visible" id="a01cf277r"><path d="M3.33.14c1.62 0 2.5-.95 2.5-2.66 0-1.68-.88-2.64-2.5-2.64-1.63 0-2.5.96-2.5 2.64 0 1.7.87 2.66 2.5 2.66zm0-.77c-1.06 0-1.52-.6-1.52-1.89 0-1.28.46-1.87 1.52-1.87 1.08 0 1.53.6 1.53 1.87 0 1.29-.45 1.9-1.53 1.9zm0 0"/></symbol><symbol overflow="visible" id="a01cf277s"><path d="M1.63 0v-2.9c0-.8.15-1.4.71-1.4.41 0 .55.3.55.88V0h.95v-2.9c0-.8.18-1.4.72-1.4.4 0 .57.3.57.88V0h.95v-3.63c0-.92-.28-1.53-1.11-1.53-.63 0-.95.41-1.1.9h-.06c-.1-.52-.44-.9-1.08-.9-.6 0-.93.41-1.06.9H1.6l-.23-.76H.67V0zm0 0"/></symbol><symbol overflow="visible" id="a01cf277t"><path d="M3.36.16c1.4 0 2.2-.6 2.2-1.57 0-.89-.54-1.22-1.47-1.39L3-3c-.67-.14-.86-.33-.86-.73 0-.5.4-.74 1.17-.74.83 0 1.19.27 1.27.8l.9-.05c-.12-1-.8-1.47-2.17-1.47-1.34 0-2.1.53-2.1 1.5 0 .81.45 1.22 1.52 1.44l1.04.2c.56.11.87.24.87.72 0 .52-.45.78-1.28.78-.95 0-1.36-.28-1.42-.87l-.9.06C1.07-.36 1.8.16 3.35.16zm0 0"/></symbol><symbol overflow="visible" id="a01cf277u"><path d="M1.45-2.95c0 2.56 1.08 4.37 3.67 4.84l.11-.67C3.28.86 2.43-.75 2.43-2.95s.85-3.82 2.8-4.16l-.1-.69c-2.6.49-3.68 2.3-3.68 4.85zm0 0"/></symbol><symbol overflow="visible" id="a01cf277v"><path d="M3.33.14c1.65 0 2.6-1.1 2.6-3.52S4.99-6.9 3.34-6.9C1.67-6.9.72-5.8.72-3.37c0 2.4.95 3.51 2.6 3.51zm0-.84c-1.13 0-1.6-.85-1.6-2.67 0-1.86.47-2.7 1.6-2.7 1.12 0 1.6.84 1.6 2.7 0 1.82-.48 2.67-1.6 2.67zM3.3-2.64c.38 0 .56-.28.56-.72 0-.44-.18-.7-.56-.7-.39 0-.56.26-.56.7 0 .44.17.72.56.72zm0 0"/></symbol><symbol overflow="visible" id="a01cf277w"><path d="M3.42.14c1.58 0 2.49-.86 2.49-2.3 0-1.42-.86-2.17-2.22-2.17-1.03 0-1.58.5-1.9 1.02h-.04c.03-1.63.4-2.77 1.73-2.77.91 0 1.24.44 1.36.96l.97-.11c-.23-.96-.86-1.68-2.33-1.68C1.84-6.9.86-5.86.86-3.1.86-.9 1.78.14 3.42.14zm.02-.78c-.9 0-1.47-.55-1.47-1.47 0-.9.7-1.47 1.53-1.47.92 0 1.47.52 1.47 1.47 0 .97-.6 1.47-1.53 1.47zm0 0"/></symbol><symbol overflow="visible" id="a01cf277x"><path d="M1.45-7.1c1.96.33 2.8 1.94 2.8 4.15 0 2.2-.84 3.8-2.8 4.17l.11.67c2.58-.47 3.67-2.28 3.67-4.84 0-2.55-1.09-4.36-3.67-4.85zm0 0"/></symbol></defs><g fill="#fff"><use xlink:href="#a01cf277a" x="224.76" y="155"/><use xlink:href="#a01cf277b" x="270.12" y="155"/><use xlink:href="#a01cf277c" x="333.96" y="155"/><use xlink:href="#a01cf277d" x="163.3333" y="266"/><use xlink:href="#a01cf277e" x="170.0003" y="266"/><use xlink:href="#a01cf277f" x="176.6673" y="266"/><use xlink:href="#a01cf277g" x="183.3343" y="266"/><use xlink:href="#a01cf277h" x="190.0013" y="266"/><use xlink:href="#a01cf277i" x="196.6683" y="266"/><use xlink:href="#a01cf277e" x="203.3353" y="266"/><use xlink:href="#a01cf277j" x="210.0023" y="266"/><use xlink:href="#a01cf277k" x="216.6693" y="266"/><use xlink:href="#a01cf277d" x="223.3363" y="266"/><use xlink:href="#a01cf277h" x="230.0033" y="266"/><use xlink:href="#a01cf277i" x="236.6703" y="266"/><use xlink:href="#a01cf277g" x="243.3373" y="266"/><use xlink:href="#a01cf277l" x="250.0043" y="266"/><use xlink:href="#a01cf277e" x="256.6713" y="266"/><use xlink:href="#a01cf277i" x="263.3383" y="266"/><use xlink:href="#a01cf277k" x="270.0053" y="266"/><use xlink:href="#a01cf277f" x="276.6723" y="266"/><use xlink:href="#a01cf277m" x="283.3393" y="266"/><use xlink:href="#a01cf277g" x="290.0063" y="266"/><use xlink:href="#a01cf277e" x="296.6733" y="266"/><use xlink:href="#a01cf277i" x="303.3403" y="266"/><use xlink:href="#a01cf277n" x="310.0073" y="266"/><use xlink:href="#a01cf277f" x="316.6743" y="266"/><use xlink:href="#a01cf277g" x="323.3413" y="266"/><use xlink:href="#a01cf277o" x="330.0083" y="266"/><use xlink:href="#a01cf277p" x="336.6753" y="266"/><use xlink:href="#a01cf277e" x="343.3423" y="266"/><use xlink:href="#a01cf277k" x="350.0093" y="266"/><use xlink:href="#a01cf277q" x="356.6763" y="266"/><use xlink:href="#a01cf277r" x="363.3433" y="266"/><use xlink:href="#a01cf277i" x="370.0103" y="266"/><use xlink:href="#a01cf277s" x="376.6773" y="266"/><use xlink:href="#a01cf277t" x="383.3443" y="266"/><use xlink:href="#a01cf277k" x="390.0113" y="266"/><use xlink:href="#a01cf277u" x="396.6783" y="266"/><use xlink:href="#a01cf277t" x="403.3453" y="266"/><use xlink:href="#a01cf277t" x="410.0123" y="266"/><use xlink:href="#a01cf277v" x="416.6793" y="266"/><use xlink:href="#a01cf277w" x="423.3463" y="266"/><use xlink:href="#a01cf277x" x="430.0133" y="266"/></g></svg>