<?xml version='1.0' encoding='UTF-8'?>
<svg xmlns="http://www.w3.org/2000/svg" xmlns:xlink="http://www.w3.org/1999/xlink" width="600px" height="300px" viewBox="0 0 600 300" x="0px" y="0px" enable-background="new 0 0 600 300"><defs><symbol overflow="visible" id="41bcca74a"><path d="M17.22-14.64h9.97V-.78c1.31.72 3.23 1.26 4.73 1.5l.42-.36c-.18-3.6-.25-7.67-.25-11.88v-3.12h4.86c5.17 0 6.67 1.27 6.67 3.23 0 2.22-2.34 5.18-5.21 7.14.36 1.63 1.54 3 3.17 3.91 3.65-2.45 6.06-5.83 6.06-9.9 0-4.38-3.19-8.7-11.1-8.7H32.1v-13.91h16.75l.43-.49c-.25-1.2-.79-2.45-1.4-3.42h-27.1l-.43.42c.24 1.2.72 2.45 1.32 3.48h5.53v13.97H17.05l-.25-9.23c-.11-4.67-4.25-9.48-9.43-9.48-4.07 0-6.42 2.46-6.42 5.76 0 3.55 3.32 6.6 7.82 7.67.65-.72.95-1.6 1.07-2.51-2.7-.9-4.56-2.52-4.56-4.44 0-1.5 1.31-2.7 3.06-2.7 2.22 0 3.66 2.1 3.72 4.75l.3 10.18h-1.63c-2.8 0-4.37 1.2-4.37 3.07 0 3.25 4.8 8.1 8.05 8.1 1.54 0 2.8-1.5 2.8-5.04zm0 0"/></symbol><symbol overflow="visible" id="41bcca74b"><path d="M10.98-25.27a8.48 8.48 0 00-8.7 8.54c0 5.32 4.2 11.51 12.53 17.28A5.39 5.39 0 0017.1-2.1C9.8-7.38 7.44-12.3 7.44-15.6c0-3.2 2.15-5.29 4.86-5.29 1.68 0 3.42.9 4.98 2.7-.19.73-.3 1.5-.3 2.34 0 1.26.11 2.57.43 3.78a8.38 8.38 0 004.37 2.34l.53-.42a14.68 14.68 0 01-.53-3.78c0-4.14 2.4-6.9 5.7-6.9 1.14 0 2.1.24 3 .66V-.78c1.32.72 3.24 1.26 4.74 1.5l.42-.36c-.19-3.6-.23-7.67-.23-11.88v-21.36h6.78l.4-.48c-.23-1.2-.78-2.45-1.37-3.42H-.95l-.43.42c.24 1.2.79 2.45 1.38 3.48h30.48v9h-.12a8.55 8.55 0 00-4.02-1.03 9.62 9.62 0 00-7.56 3.55c-2.22-2.7-4.86-3.9-7.8-3.9zm0 0"/></symbol><symbol overflow="visible" id="41bcca74c"><path d="M13.2-13.56h12.9V-.78a16.8 16.8 0 004.74 1.5l.47-.36c-.23-3.6-.3-7.67-.3-11.88v-21.36h6.79l.42-.48c-.24-1.2-.78-2.45-1.38-3.42H-.96l-.42.42c.24 1.2.79 2.45 1.38 3.48h7.63l.78 14.82H6.7c-2.8 0-4.26 1.26-4.26 3.12 0 3.24 4.75 8.03 7.92 8.03 1.63 0 2.83-1.37 2.83-4.96zM13.02-18c-.07-4.2-.3-10.02-.6-14.88H26.1v15.24c-4.14-.17-8.68-.3-13.07-.36zm0 0"/></symbol><symbol overflow="visible" id="41bcca74e"><path d="M-.95-36.78l-.43.42c.24 1.2.79 2.45 1.38 3.48h6.3v32.1a16.8 16.8 0 004.75 1.5l.47-.36c-.24-3.6-.3-7.67-.3-11.88v-21.36H18l.42-.48c-.23-1.2-.78-2.45-1.37-3.42zm0 0"/></symbol><symbol overflow="visible" id="41bcca74f"><path d="M-16.63-49.69c1.82 0 2.77-1.5 2.77-2.94 0-2.09-1.5-3.42-2.94-3.42-1.86 0-2.89 1.57-2.89 3.07 0 1.98 1.63 3.3 3.07 3.3zm-9.89-2.1c1.74 6.79 6 10.21 10.97 10.21 6.2 0 8.6-5.4 8.6-10.08-.85-.42-2.47-.65-3.61-.72l-.49.36c0 3.47-1.54 6.47-5.26 6.47-2.96 0-5.53-1.86-7.46-7.18-.89.1-1.92.42-2.75.95zm0 0"/></symbol><symbol overflow="visible" id="41bcca74g"><path d="M7.31-18.6c-3 0-4.12 1.26-4.12 3.05 0 3.13 4.8 7.4 7.9 7.4 2.6 0 3.91-3 3.91-8.12 0-5.15-.36-11.45-.72-16.6h12.53V-.78C28.14-.06 30 .48 31.5.72l.48-.36c-.25-3.6-.3-7.67-.3-11.88v-21.36h6.84l.42-.48c-.3-1.2-.78-2.45-1.38-3.42H-.95l-.43.42c.24 1.2.79 2.45 1.38 3.48h9.48l.66 14.4c-1.08-.07-1.92-.11-2.83-.11zm0 0"/></symbol><symbol overflow="visible" id="41bcca74h"><path d="M29.58-31.92v-.95h7.2l.42-.49a12.1 12.1 0 00-1.39-3.42H-.95l-.43.42c.24 1.2.79 2.45 1.38 3.48h24.78v5.04h-8.34c-5.64 0-9.72 2.64-9.72 6.54 0 4.5 4.8 10.02 8.83 10.02 1.54 0 3.23-.49 5.57-1.27 2.04-.65 3.11-.95 4.15-.95 2.09 0 3.17 1.14 3.17 3.36 0 3.6-3.24 6.72-8.28 6.72-5.04 0-10.38-2.77-16.32-11.46a5 5 0 00-2.7 1.74C6.24-3.91 13.37.84 21.42.84c6.42 0 11.7-3.84 11.7-9.96 0-4.86-4.8-8.7-8.93-8.7-1.46 0-2.77.18-4.88.9-2.22.72-3.4 1.08-4.73 1.08-2.16 0-3.17-2.64-3.17-4.08 0-2.22 2.09-3.66 6.46-3.66h11.47l.43-.36c-.2-2.4-.2-5.58-.2-7.98zm0 0"/></symbol><symbol overflow="visible" id="41bcca74i"><path d="M5.95-6.77H1.1V0h.99v-2.92H5.3v-.77H2.08v-2.26h3.87zm0 0"/></symbol><symbol overflow="visible" id="41bcca74j"><path d="M5.75-2.23v-.43c0-1.6-.9-2.51-2.42-2.51S.87-4.16.87-2.48c0 1.71.91 2.62 2.5 2.62 1.43 0 2.07-.56 2.29-1.52l-.9-.09c-.18.61-.59.9-1.35.9-.94 0-1.52-.54-1.58-1.66zm-2.4-2.2c.93 0 1.43.5 1.48 1.55H1.84c.08-1.07.6-1.56 1.5-1.56zm0 0"/></symbol><symbol overflow="visible" id="41bcca74k"><path d="M2.83.14c.94 0 1.5-.39 1.81-.95h.08l.1.81h.76v-3.38c0-1.23-.69-1.8-2.13-1.8-1.43 0-2.03.65-2.18 1.6l.93.1c.11-.6.44-.93 1.22-.93.85 0 1.22.32 1.22 1.04v.34l-1.81.2C1.6-2.7 1.1-2.17 1.1-1.28c0 .92.64 1.42 1.72 1.42zm.25-.77c-.67 0-1.02-.28-1.02-.74 0-.44.28-.72 1-.82l1.58-.19v.41c0 .8-.6 1.34-1.56 1.34zm0 0"/></symbol><symbol overflow="visible" id="41bcca74l"><path d="M5.52-4.25v-.77H3.17v-1.56h-.81l-.14 1.56H.75v.77h1.47v2.4c0 1.3.48 1.94 1.84 1.94C4.6.1 5.14 0 5.55-.14L5.4-.91c-.32.13-.72.2-1.13.2-.8 0-1.1-.37-1.1-1.23v-2.31zm0 0"/></symbol><symbol overflow="visible" id="41bcca74m"><path d="M2.73.14c.9 0 1.43-.45 1.74-1.08h.06l.13.94h.8v-5.02h-.94v2.7c0 .98-.57 1.62-1.46 1.62-.75 0-1.1-.4-1.1-1.22v-3.1h-.93v3.32c0 1.17.55 1.84 1.7 1.84zm0 0"/></symbol><symbol overflow="visible" id="41bcca74n"><path d="M5.08-5.16c-.94 0-1.58.43-1.9 1.3h-.09l-.07-1.16H1.05v.77h1.1v3.48H.96V0h3.96v-.77H3.1v-1.46c0-1.36.6-2.05 1.83-2.05.4 0 .76.08 1.1.17l.15-.87c-.33-.11-.7-.18-1.11-.18zm0 0"/></symbol><symbol overflow="visible" id="41bcca74o"><path d="M3.33-3.42c.47 0 .8-.27.8-.8 0-.51-.33-.8-.8-.8-.47 0-.8.29-.8.8 0 .53.33.8.8.8zm0 3.5c.47 0 .8-.27.8-.78 0-.53-.33-.82-.8-.82-.47 0-.8.29-.8.82 0 .51.33.78.8.78zm0 0"/></symbol><symbol overflow="visible" id="41bcca74q"><path d="M1.84 0v-4.48l-.06-.99h.1L4.46 0h1.28v-6.77h-.92v4.4l.06 1.03h-.1L2.21-6.77H.92V0zm0 0"/></symbol><symbol overflow="visible" id="41bcca74r"><path d="M2.06 1.9V-.84h.05c.28.58.8.97 1.77.97 1.5 0 2.2-.98 2.2-2.66 0-1.65-.7-2.64-2.19-2.64-.97 0-1.5.44-1.78 1.05h-.08l-.1-.9H1.1v6.9zm1.5-2.56c-1.06 0-1.53-.8-1.53-1.86 0-1.04.47-1.84 1.53-1.84 1.11 0 1.53.61 1.53 1.84 0 1.27-.42 1.86-1.53 1.86zm0 0"/></symbol><symbol overflow="visible" id="41bcca74s"><path d="M3.92-7.14H1.36v.76h1.6v5.61H1.15V0H5.7v-.77H3.92zm0 0"/></symbol><symbol overflow="visible" id="41bcca74t"><path d="M3.58-5.81c.42 0 .72-.22.72-.67 0-.44-.3-.68-.72-.68-.44 0-.72.24-.72.68 0 .45.28.67.72.67zm.5.8H1.52v.76h1.6v3.48h-1.8V0h4.46v-.77h-1.7zm0 0"/></symbol><symbol overflow="visible" id="41bcca74u"><path d="M4.63-6.5c.45 0 .98.08 1.39.2l.2-.72a5.3 5.3 0 00-1.64-.26c-1.52 0-2.16.56-2.16 1.87v.4H.9v.76h1.53V0h.94v-4.25h2.53v-.77H3.36v-.3c0-.84.33-1.18 1.27-1.18zm0 0"/></symbol><symbol overflow="visible" id="41bcca74v"><path d="M3.33.14c1.62 0 2.5-.95 2.5-2.66 0-1.68-.88-2.64-2.5-2.64-1.63 0-2.5.96-2.5 2.64 0 1.7.87 2.66 2.5 2.66zm0-.77c-1.06 0-1.52-.6-1.52-1.89 0-1.28.46-1.87 1.52-1.87 1.08 0 1.53.6 1.53 1.87 0 1.29-.45 1.9-1.53 1.9zm0 0"/></symbol><symbol overflow="visible" id="41bcca74w"><path d="M1.63 0v-2.9c0-.8.15-1.4.71-1.4.41 0 .55.3.55.88V0h.95v-2.9c0-.8.18-1.4.72-1.4.4 0 .57.3.57.88V0h.95v-3.63c0-.92-.28-1.53-1.11-1.53-.63 0-.95.41-1.1.9h-.06c-.1-.52-.44-.9-1.08-.9-.6 0-.93.41-1.06.9H1.6l-.23-.76H.67V0zm0 0"/></symbol><symbol overflow="visible" id="41bcca74x"><path d="M3.36.16c1.4 0 2.2-.6 2.2-1.57 0-.89-.54-1.22-1.47-1.39L3-3c-.67-.14-.86-.33-.86-.73 0-.5.4-.74 1.17-.74.83 0 1.19.27 1.27.8l.9-.05c-.12-1-.8-1.47-2.17-1.47-1.34 0-2.1.53-2.1 1.5 0 .81.45 1.22 1.52 1.44l1.04.2c.56.11.87.24.87.72 0 .52-.45.78-1.28.78-.95 0-1.36-.28-1.42-.87l-.9.06C1.07-.36 1.8.16 3.35.16zm0 0"/></symbol><symbol overflow="visible" id="41bcca74y"><path d="M1.45-2.95c0 2.56 1.08 4.37 3.67 4.84l.11-.67C3.28.86 2.43-.75 2.43-2.95s.85-3.82 2.8-4.16l-.1-.69c-2.6.49-3.68 2.3-3.68 4.85zm0 0"/></symbol><symbol overflow="visible" id="41bcca74z"><path d="M2.16 0v-2.67c0-.99.59-1.63 1.46-1.63.74 0 1.07.38 1.07 1.22V0h.95v-3.31c0-1.2-.56-1.85-1.67-1.85-.92 0-1.49.46-1.77 1.08h-.06l-.12-.94H1.2V0zm0 0"/></symbol><symbol overflow="visible" id="41bcca74A"><path d="M3.16 2.03c1.67 0 2.4-.86 2.4-2.51v-4.54h-.81l-.13.91h-.06c-.26-.58-.8-1.05-1.73-1.05-1.42 0-2.24 1-2.24 2.52 0 1.6.75 2.56 2.2 2.56.94 0 1.5-.5 1.77-1.03h.05v.72c0 1.17-.42 1.67-1.45 1.67-.93 0-1.3-.34-1.41-.89L.8.5c.12.96.87 1.54 2.36 1.54zM3.06-.8c-.98 0-1.48-.57-1.48-1.82 0-1.13.5-1.75 1.48-1.75 1.06 0 1.58.76 1.58 1.75 0 .95-.56 1.82-1.58 1.82zm0 0"/></symbol><symbol overflow="visible" id="41bcca74B"><path d="M3.33.14c1.65 0 2.6-1.1 2.6-3.52S4.99-6.9 3.34-6.9C1.67-6.9.72-5.8.72-3.37c0 2.4.95 3.51 2.6 3.51zm0-.84c-1.13 0-1.6-.85-1.6-2.67 0-1.86.47-2.7 1.6-2.7 1.12 0 1.6.84 1.6 2.7 0 1.82-.48 2.67-1.6 2.67zM3.3-2.64c.38 0 .56-.28.56-.72 0-.44-.18-.7-.56-.7-.39 0-.56.26-.56.7 0 .44.17.72.56.72zm0 0"/></symbol><symbol overflow="visible" id="41bcca74C"><path d="M5.67 0v-.86H2.14V-.9L3.6-2c1.05-.83 2-1.68 2-2.91 0-1.19-.73-1.99-2.26-1.99-1.66 0-2.3 1.02-2.44 2.33l1 .08c.1-.92.42-1.58 1.44-1.58.87 0 1.26.44 1.26 1.24 0 .9-.8 1.53-1.96 2.53L.83-.81V0zm0 0"/></symbol><symbol overflow="visible" id="41bcca74D"><path d="M1.45-7.1c1.96.33 2.8 1.94 2.8 4.15 0 2.2-.84 3.8-2.8 4.17l.11.67c2.58-.47 3.67-2.28 3.67-4.84 0-2.55-1.09-4.36-3.67-4.85zm0 0"/></symbol></defs><use xlink:href="#41bcca74a" x="140.49" y="155" fill="#fff"/><g fill="#515151"><use xlink:href="#41bcca74b" x="188.37" y="155"/><use xlink:href="#41bcca74c" x="229.59" y="155"/><use xlink:href="#41bcca74b" x="266.43" y="155"/><use xlink:href="#41bcca74d" x="307.65" y="155"/></g><g fill="#fff"><use xlink:href="#41bcca74a" x="321.21" y="155"/><use xlink:href="#41bcca74e" x="369.09" y="155"/></g><use xlink:href="#41bcca74f" x="386.19" y="155" fill="#fff"/><g fill="#515151"><use xlink:href="#41bcca74g" x="386.13" y="155"/><use xlink:href="#41bcca74h" x="423.69" y="155"/></g><g fill="#fff"><use xlink:href="#41bcca74i" x="153.3333" y="266"/><use xlink:href="#41bcca74j" x="160.0003" y="266"/><use xlink:href="#41bcca74k" x="166.6673" y="266"/><use xlink:href="#41bcca74l" x="173.3343" y="266"/><use xlink:href="#41bcca74m" x="180.0013" y="266"/><use xlink:href="#41bcca74n" x="186.6683" y="266"/><use xlink:href="#41bcca74j" x="193.3353" y="266"/><use xlink:href="#41bcca74o" x="200.0023" y="266"/><use xlink:href="#41bcca74p" x="206.6693" y="266"/><use xlink:href="#41bcca74q" x="213.3363" y="266"/><use xlink:href="#41bcca74j" x="220.0033" y="266"/><use xlink:href="#41bcca74r" x="226.6703" y="266"/><use xlink:href="#41bcca74k" x="233.3373" y="266"/><use xlink:href="#41bcca74s" x="240.0043" y="266"/><use xlink:href="#41bcca74t" x="246.6713" y="266"/><use xlink:href="#41bcca74p" x="253.3383" y="266"/><use xlink:href="#41bcca74u" x="260.0053" y="266"/><use xlink:href="#41bcca74v" x="266.6723" y="266"/><use xlink:href="#41bcca74n" x="273.3393" y="266"/><use xlink:href="#41bcca74w" x="280.0063" y="266"/><use xlink:href="#41bcca74x" x="286.6733" y="266"/><use xlink:href="#41bcca74p" x="293.3403" y="266"/><use xlink:href="#41bcca74y" x="300.0073" y="266"/><use xlink:href="#41bcca74x" x="306.6743" y="266"/><use xlink:href="#41bcca74j" x="313.3413" y="266"/><use xlink:href="#41bcca74l" x="320.0083" y="266"/><use xlink:href="#41bcca74p" x="326.6753" y="266"/><use xlink:href="#41bcca74s" x="333.3423" y="266"/><use xlink:href="#41bcca74k" x="340.0093" y="266"/><use xlink:href="#41bcca74z" x="346.6763" y="266"/><use xlink:href="#41bcca74A" x="353.3433" y="266"/><use xlink:href="#41bcca74m" x="360.0103" y="266"/><use xlink:href="#41bcca74k" x="366.6773" y="266"/><use xlink:href="#41bcca74A" x="373.3443" y="266"/><use xlink:href="#41bcca74j" x="380.0113" y="266"/><use xlink:href="#41bcca74p" x="386.6783" y="266"/><use xlink:href="#41bcca74v" x="393.3453" y="266"/><use xlink:href="#41bcca74n" x="400.0123" y="266"/><use xlink:href="#41bcca74p" x="406.6793" y="266"/><use xlink:href="#41bcca74x" x="413.3463" y="266"/><use xlink:href="#41bcca74x" x="420.0133" y="266"/><use xlink:href="#41bcca74B" x="426.6803" y="266"/><use xlink:href="#41bcca74C" x="433.3473" y="266"/><use xlink:href="#41bcca74D" x="440.0143" y="266"/></g></svg>