<?xml version='1.0' encoding='UTF-8'?>
<svg xmlns="http://www.w3.org/2000/svg" xmlns:xlink="http://www.w3.org/1999/xlink" width="600px" height="300px" viewBox="0 0 600 300" x="0px" y="0px" enable-background="new 0 0 600 300"><defs><symbol overflow="visible" id="dd53510ba"><path d="M14.77-5.94a10.7 10.7 0 0010.86-10.92C25.63-23.8 19.55-30 12.9-30 6.42-30 1.62-25.08 1.62-19.02c0 6.96 6.18 13.08 13.15 13.08zm-.85-19.86c4.67 0 7.31 3.72 7.31 7.32 0 3.67-2.64 8.34-7.86 8.34-4.6 0-7.24-3.72-7.24-7.38 0-3.67 2.64-8.28 7.8-8.28zm0 0"/></symbol><symbol overflow="visible" id="dd53510bb"><path d="M20.45.36c-.23-3.6-.3-7.67-.3-11.88v-13.86c0-6.67-4.3-11.4-10.07-11.4-5.03 0-8.52 3.72-8.52 8.05 0 5.39 5.4 10.54 10.8 10.54.9 0 1.92-.17 3-.6v18c1.27.73 3.12 1.27 4.62 1.5zm-5.1-27.6v3.11a7.64 7.64 0 01-4.62 1.75c-1.18 0-2.21-.25-2.87-.84A5.7 5.7 0 016.55-27c0-2.81 1.8-5.88 4.8-5.88s4 2.94 4 5.65zm0 0"/></symbol><symbol overflow="visible" id="dd53510bc"><path d="M23.28-1.44l-9-11.76c5.16-1.99 10.38-6.36 10.38-11.88 0-6.06-5.35-11.7-12.36-11.7-2.52 0-6.24.84-9.85 3.12a7.47 7.47 0 002.53 4.86c3-1.98 6.36-3.6 9.24-3.6 1.86 0 3.42.6 4.44 1.8a6.34 6.34 0 011.39 4.02c0 3.36-2.35 6.85-8.11 8.81-.9-1.37-2.1-2.64-3.6-2.64-2.04 0-4.68 2.22-4.68 4.7 0 1.62 1.56 3.59 5.21 3.59.49 0 1.04-.07 1.57-.11l8.28 13.67a7.43 7.43 0 004.56-2.88zm0 0"/></symbol><symbol overflow="visible" id="dd53510bd"><path d="M20.34 2.94L14.88-4.2c6.67-.9 9.96-4.38 9.96-8.46 0-3-2.04-6.06-5.89-8.4 2.47-1.38 4.14-3.36 4.14-6.07 0-5.15-5.68-9.53-10.9-9.53-2.64 0-5.47.66-9 2.46.1 1.68.95 3.65 2.15 4.62 3.54-1.8 6.36-2.64 8.35-2.64 1.67 0 3.23.6 3.95 1.2.66.6 1.14 1.57 1.14 2.46 0 4.92-7.98 5.58-12 6.25a7.8 7.8 0 001.44 4.25c2.15-.24 4.69-.66 7.01-1.38 3.36 1.25 5.11 3.3 5.11 5.75 0 2.17-1.8 4.33-7.43 4.99-1.1-1.8-2.22-3-3.61-3-1.8 0-4.08 1.75-4.08 3.65 0 1.93 2.4 3.68 6 3.97l5.15 9.6a7.69 7.69 0 003.97-2.58zm0 0"/></symbol><symbol overflow="visible" id="dd53510be"><path d="M18.95-15.66l-2.32-3c3.1-3.84 8.39-9.3 9.78-15.48a7.35 7.35 0 00-4.82-1.5c-.82 4.92-4.6 9.55-7.73 13.37L3.59-35.45a7.71 7.71 0 00-4.01 3.1L11.05-19.3c-3.49 4.08-5.6 6.72-5.6 9.76 0 4.7 4.4 9 9.32 9 4.67 0 7.3-3.4 7.3-7.37 0-2.52-.95-4.92-3.12-7.74zM10.73-5.52c-.53-.6-.82-1.39-.82-2.34 0-2.28 2.09-5.1 4.3-7.8l.56.6c2.09 2.47 2.93 4.56 2.93 6.36a4.15 4.15 0 01-4.07 4.32 4.17 4.17 0 01-2.9-1.14zm0 0"/></symbol><symbol overflow="visible" id="dd53510bf"><path d="M5.88-36.3c-1.97 4.92-2.29 8.28-2.29 9.96 0 7.5 5.41 12.48 10.46 12.48.76 0 1.5-.19 2.15-.36l.11.06a14.45 14.45 0 01-4.37 5.1 10.2 10.2 0 00-3.9-.96c-1.74 0-2.82 1.2-2.82 2.88 0 2.58 1.69 4.37 3.66 4.37a8.1 8.1 0 003.9-1.25A54.49 54.49 0 0124.6 3.12 4.12 4.12 0 0026.77.48c-2.11-1.75-6.43-5.17-10.7-7.32 5.35-5.58 8.16-13.14 8.41-23.46 0-1.14 0-1.56-.12-2.76-1.14-.53-3-1.02-4.2-1.14l-.43.36c0 .84.07 1.68.07 2.47-.07 2.8-.3 5.45-.66 7.92v-.13c-.66 3.6-2.52 5.7-5.45 5.7-1.4 0-2.77-.42-3.61-1.32-1.31-1.25-1.74-3.11-1.74-5.35 0-3.53 1.2-7.54 2.4-10.01a8.57 8.57 0 00-4.87-1.74zm0 0"/></symbol><symbol overflow="visible" id="dd53510bg"><path d="M27.6 1.8l-4.38-8.82a4.53 4.53 0 002.1-3.67c0-2.33-2.7-4.01-4.98-4.01-1.43 0-2.4.84-2.4 2.4 0 .72.12 1.44.42 2.22-1.27.49-2.58.78-3.84.78-1.86 0-3.72-.48-4.93-1.62a4.94 4.94 0 01-1.25-3.53c0-3.07 2.75-5.28 9.9-5.28.84 0 1.8 0 2.7.04l.48-.36c-.12-1.37-.6-3-1.26-3.95a24.5 24.5 0 00-9.72.72c-1.56-1.56-2.35-3.13-2.35-4.44 0-2.34 2.29-4.08 6.61-4.08 2.28 0 4.74.43 6.24.78l.42-.42a9.9 9.9 0 00-1.2-4.26 25.42 25.42 0 00-5.88-.66c-4.98 0-10.73 1.5-10.73 6.84 0 2.58 1.86 5.29 4.14 7.44a7.27 7.27 0 00-3.78 6.53c0 5.47 6.17 10.5 12.59 10.5 1.14 0 2.4-.17 3.55-.47l3 9.07a7.97 7.97 0 004.54-1.75zm0 0"/></symbol><symbol overflow="visible" id="dd53510bh"><path d="M4.98-30.9a8.5 8.5 0 00-3.78 1.02C3.55-19.2 8.45-2.05 20.94-2.05c6.9 0 9.97-5.45 9.97-12.04 0-7.93-4.4-16.63-11.47-16.63-3.78 0-6.72 2.7-6.72 6.6 0 5.04 4.98 10.62 11.87 10.62.61 0 1.2-.06 1.82-.13-.49 3.43-2.22 6.68-6.43 6.68-6.9 0-12.12-9.07-15-23.96zm15.9 13.38a6.7 6.7 0 01-3.18-5.53c0-2.26 1.5-3.65 3.24-3.65 3.36 0 4.98 4.92 5.47 8.93-1.1.49-2.11.79-3.07.79s-1.86-.18-2.46-.54zm0 0"/></symbol><symbol overflow="visible" id="dd53510bi"><path d="M25.63-27.55H.55l-.43.43c.24 1.14.9 2.82 1.57 3.78h6.1l.07.12A12.12 12.12 0 005.7-16.5c0 5.94 5.88 10.08 11.7 10.08 3.54 0 7.44-1.56 9-1.56.66 0 1.08.25 1.08.84 0 .66-.6 1.73-2.46 3.12.84 1.32 2.1 2.58 3.36 3.36h.54c2.16-1.56 3.13-3.42 3.13-5.1 0-3.18-3.61-6.47-7.33-6.47-2.58 0-6.78 1.54-9.66 1.54a4.5 4.5 0 01-2.7-.72c-1.2-.89-1.67-2.39-1.67-4.14 0-2.87 1.5-5.68 3.23-7.8H26.7l.43-.42c-.25-1.18-.91-2.8-1.5-3.78zm0 0"/></symbol><symbol overflow="visible" id="dd53510bj"><path d="M16.38-36.36c-6 0-10.32 2.22-10.32 6.48 0 2.1 1.08 4.57 3.66 7.32l-.06.12H.06l-.42.42A12 12 0 001.2-18.3h6.3l.06.11a7.54 7.54 0 00-1.86 4.92c0 5.05 5.22 9.32 10.93 9.32 3.06 0 6.35-1.33 7.85-1.33.66 0 1.02.23 1.02.78 0 .72-.6 1.8-2.45 3.19a10.9 10.9 0 003.36 3.3H27c2.1-1.5 3.06-3.37 3.06-5.05 0-3.13-3.36-6.49-7.5-6.49-2.64 0-5.83 1.33-8.22 1.33-.9 0-1.68-.12-2.21-.55-1.15-.82-1.57-2.32-1.57-3.71 0-2.4 1.38-4.8 3.49-5.82h11.39l.42-.42c-.23-1.2-.84-2.83-1.44-3.78H13.86c-2.4-2.34-3.3-4.44-3.3-5.88 0-2.4 2.52-3.48 6.42-3.48 2.82 0 5.33.6 6.9.95l.42-.4a9.7 9.7 0 00-1.2-4.27 33.39 33.39 0 00-6.73-.78zm0 0"/></symbol><symbol overflow="visible" id="dd53510bk"><path d="M3.83 0v-5.95H6.2v-.82H.45v.82h2.4V0zm0 0"/></symbol><symbol overflow="visible" id="dd53510bl"><path d="M5.75-2.23v-.43c0-1.6-.9-2.51-2.42-2.51S.87-4.16.87-2.48c0 1.71.91 2.62 2.5 2.62 1.43 0 2.07-.56 2.29-1.52l-.9-.09c-.18.61-.59.9-1.35.9-.94 0-1.52-.54-1.58-1.66zm-2.4-2.2c.93 0 1.43.5 1.48 1.55H1.84c.08-1.07.6-1.56 1.5-1.56zm0 0"/></symbol><symbol overflow="visible" id="dd53510bm"><path d="M1.83 0l1.42-2h.06l1.46 2H5.8L4-2.53l1.78-2.49H4.8L3.42-3.08h-.08l-1.4-1.94H.89l1.78 2.49L.84 0zm0 0"/></symbol><symbol overflow="visible" id="dd53510bn"><path d="M5.52-4.25v-.77H3.17v-1.56h-.81l-.14 1.56H.75v.77h1.47v2.4c0 1.3.48 1.94 1.84 1.94C4.6.1 5.14 0 5.55-.14L5.4-.91c-.32.13-.72.2-1.13.2-.8 0-1.1-.37-1.1-1.23v-2.31zm0 0"/></symbol><symbol overflow="visible" id="dd53510bo"><path d="M3.33-3.42c.47 0 .8-.27.8-.8 0-.51-.33-.8-.8-.8-.47 0-.8.29-.8.8 0 .53.33.8.8.8zm0 3.5c.47 0 .8-.27.8-.78 0-.53-.33-.82-.8-.82-.47 0-.8.29-.8.82 0 .51.33.78.8.78zm0 0"/></symbol><symbol overflow="visible" id="dd53510bA"><path d="M5.95-6.77H1.1V0h.99v-2.92H5.3v-.77H2.08v-2.26h3.87zm0 0"/></symbol><symbol overflow="visible" id="dd53510bB"><path d="M2.83.14c.94 0 1.5-.39 1.81-.95h.08l.1.81h.76v-3.38c0-1.23-.69-1.8-2.13-1.8-1.43 0-2.03.65-2.18 1.6l.93.1c.11-.6.44-.93 1.22-.93.85 0 1.22.32 1.22 1.04v.34l-1.81.2C1.6-2.7 1.1-2.17 1.1-1.28c0 .92.64 1.42 1.72 1.42zm.25-.77c-.67 0-1.02-.28-1.02-.74 0-.44.28-.72 1-.82l1.58-.19v.41c0 .8-.6 1.34-1.56 1.34zm0 0"/></symbol><symbol overflow="visible" id="dd53510bC"><path d="M2.73.14c.9 0 1.43-.45 1.74-1.08h.06l.13.94h.8v-5.02h-.94v2.7c0 .98-.57 1.62-1.46 1.62-.75 0-1.1-.4-1.1-1.22v-3.1h-.93v3.32c0 1.17.55 1.84 1.7 1.84zm0 0"/></symbol><symbol overflow="visible" id="dd53510bD"><path d="M5.08-5.16c-.94 0-1.58.43-1.9 1.3h-.09l-.07-1.16H1.05v.77h1.1v3.48H.96V0h3.96v-.77H3.1v-1.46c0-1.36.6-2.05 1.83-2.05.4 0 .76.08 1.1.17l.15-.87c-.33-.11-.7-.18-1.11-.18zm0 0"/></symbol><symbol overflow="visible" id="dd53510bE"><path d="M6.17 0L3.98-6.77h-1.3L.5 0h.97l.44-1.47h2.78L5.16 0zM3.28-5.94h.08l1.1 3.74H2.15zm0 0"/></symbol><symbol overflow="visible" id="dd53510bF"><path d="M3.92-7.14H1.36v.76h1.6v5.61H1.15V0H5.7v-.77H3.92zm0 0"/></symbol><symbol overflow="visible" id="dd53510bG"><path d="M2.16 0v-2.67c0-.99.59-1.63 1.46-1.63.74 0 1.07.38 1.07 1.22V0h.95v-3.31c0-1.2-.56-1.85-1.67-1.85-.92 0-1.49.46-1.77 1.08h-.06l-.12-.94H1.2V0zm0 0"/></symbol><symbol overflow="visible" id="dd53510bH"><path d="M3.58-5.81c.42 0 .72-.22.72-.67 0-.44-.3-.68-.72-.68-.44 0-.72.24-.72.68 0 .45.28.67.72.67zm.5.8H1.52v.76h1.6v3.48h-1.8V0h4.46v-.77h-1.7zm0 0"/></symbol><symbol overflow="visible" id="dd53510bI"><path d="M3.9 0l2-5.02h-.96L3.4-.94h-.07L1.8-5.02H.77L2.78 0zm0 0"/></symbol><symbol overflow="visible" id="dd53510bJ"><path d="M1.63 0v-2.9c0-.8.15-1.4.71-1.4.41 0 .55.3.55.88V0h.95v-2.9c0-.8.18-1.4.72-1.4.4 0 .57.3.57.88V0h.95v-3.63c0-.92-.28-1.53-1.11-1.53-.63 0-.95.41-1.1.9h-.06c-.1-.52-.44-.9-1.08-.9-.6 0-.93.41-1.06.9H1.6l-.23-.76H.67V0zm0 0"/></symbol><symbol overflow="visible" id="dd53510bK"><path d="M3.36.16c1.4 0 2.2-.6 2.2-1.57 0-.89-.54-1.22-1.47-1.39L3-3c-.67-.14-.86-.33-.86-.73 0-.5.4-.74 1.17-.74.83 0 1.19.27 1.27.8l.9-.05c-.12-1-.8-1.47-2.17-1.47-1.34 0-2.1.53-2.1 1.5 0 .81.45 1.22 1.52 1.44l1.04.2c.56.11.87.24.87.72 0 .52-.45.78-1.28.78-.95 0-1.36-.28-1.42-.87l-.9.06C1.07-.36 1.8.16 3.35.16zm0 0"/></symbol><symbol overflow="visible" id="dd53510bL"><path d="M4.22-6.77h-.86l-2.03.7v.87c.64-.17 1.26-.38 1.89-.55v4.9H1.03V0h4.9v-.86H4.21zm0 0"/></symbol><symbol overflow="visible" id="dd53510bM"><path d="M3.34-1.52c-.51 0-.8.32-.8.82 0 .5.33.78.76.78-.1.4-.36.95-.7 1.39l.5.23A4.48 4.48 0 004.13-.64c0-.55-.3-.88-.78-.88zm0 0"/></symbol><symbol overflow="visible" id="dd53510bN"><path d="M3.42.14c1.55 0 2.44-.84 2.44-2.33 0-1.45-.83-2.22-2.14-2.22-.75 0-1.28.27-1.67.72H2l.31-2.22h3.11v-.86H1.53l-.45 3.93h.81c.3-.36.9-.79 1.58-.79.92 0 1.44.43 1.44 1.47 0 .99-.54 1.5-1.49 1.5-.83 0-1.28-.32-1.5-1.01l-.95.1C1.07-.46 2 .13 3.42.13zm0 0"/></symbol><symbol overflow="visible" id="dd53510bO"><path d="M3.33.16c1.69 0 2.69-.74 2.69-1.94 0-1.05-.8-1.58-1.43-1.72v-.05c.5-.14 1.2-.58 1.2-1.56 0-1.12-.95-1.81-2.46-1.81-1.52 0-2.46.69-2.46 1.81 0 .97.68 1.4 1.18 1.56v.05c-.6.14-1.4.64-1.4 1.72 0 1.2 1 1.94 2.68 1.94zm0-4.04c-.97 0-1.49-.43-1.49-1.12 0-.78.52-1.1 1.49-1.1.95 0 1.48.32 1.48 1.1 0 .69-.53 1.13-1.48 1.13zm0 3.24c-1.1 0-1.7-.42-1.7-1.25 0-.78.6-1.2 1.7-1.2s1.7.42 1.7 1.2c0 .83-.6 1.25-1.7 1.25zm0 0"/></symbol><symbol overflow="visible" id="dd53510bP"><path d="M2.84.14C3.8.14 4.33-.26 4.6-.9h.07L4.8 0h.76v-7.14h-.95v2.95h-.08c-.28-.6-.86-.97-1.67-.97-1.48 0-2.27.99-2.27 2.64C.6-.84 1.36.14 2.84.14zm.22-.8c-.98 0-1.48-.59-1.48-1.84s.5-1.86 1.48-1.86c1.13 0 1.58.8 1.58 1.86S4.2-.66 3.06-.66zm0 0"/></symbol><symbol overflow="visible" id="dd53510bQ"><path d="M3.25-6.9C1.67-6.9.77-6.04.77-4.6c0 1.41.85 2.18 2.21 2.18 1.04 0 1.58-.52 1.88-1.03h.06c0 1.54-.39 2.78-1.73 2.78-.9 0-1.24-.44-1.36-.97l-.97.1c.22.96.86 1.68 2.33 1.68C4.83.14 5.8-.9 5.8-3.64c0-2.22-.92-3.27-2.56-3.27zm-.02.8c.91 0 1.46.52 1.46 1.44 0 .91-.69 1.47-1.53 1.47-.91 0-1.46-.51-1.46-1.47S2.3-6.1 3.23-6.1zm0 0"/></symbol><symbol overflow="visible" id="dd53510bR"><path d="M1.45-2.95c0 2.56 1.08 4.37 3.67 4.84l.11-.67C3.28.86 2.43-.75 2.43-2.95s.85-3.82 2.8-4.16l-.1-.69c-2.6.49-3.68 2.3-3.68 4.85zm0 0"/></symbol><symbol overflow="visible" id="dd53510bS"><path d="M3.33.14c1.65 0 2.6-1.1 2.6-3.52S4.99-6.9 3.34-6.9C1.67-6.9.72-5.8.72-3.37c0 2.4.95 3.51 2.6 3.51zm0-.84c-1.13 0-1.6-.85-1.6-2.67 0-1.86.47-2.7 1.6-2.7 1.12 0 1.6.84 1.6 2.7 0 1.82-.48 2.67-1.6 2.67zM3.3-2.64c.38 0 .56-.28.56-.72 0-.44-.18-.7-.56-.7-.39 0-.56.26-.56.7 0 .44.17.72.56.72zm0 0"/></symbol><symbol overflow="visible" id="dd53510bT"><path d="M1.45-7.1c1.96.33 2.8 1.94 2.8 4.15 0 2.2-.84 3.8-2.8 4.17l.11.67c2.58-.47 3.67-2.28 3.67-4.84 0-2.55-1.09-4.36-3.67-4.85zm0 0"/></symbol><symbol overflow="visible" id="dd53510bq"><path d="M2.38-5.31c-1.1 0-1.82.75-1.82 1.84 0 1.1.7 1.83 1.81 1.83 1.1 0 1.83-.74 1.83-1.83 0-1.1-.72-1.84-1.83-1.84zm0 2.87c-.58 0-.94-.4-.94-1.03 0-.62.36-1.06.94-1.06.59 0 .95.44.95 1.06 0 .61-.38 1.03-.96 1.03zm0 0"/></symbol><symbol overflow="visible" id="dd53510br"><path d="M2.77-4.14c-.65 0-1.11-.36-1.11-.9 0-.48.3-.76.75-.76.46 0 .78.32.78.77 0 .33-.06.6-.25.87-.05.02-.11.02-.17.02zM2.48 0h.91c.1-.14.19-.36.19-.58 0-.55-.4-.98-1.58-1.8 1.34-.65 2.06-1.53 2.06-2.64 0-.9-.68-1.59-1.67-1.59-.95 0-1.62.64-1.62 1.55 0 .9.8 1.45 1.5 1.45h.17c-.35.27-.85.55-1.52.84v.57c1.31.9 1.72 1.22 1.72 1.64 0 .19-.06.36-.16.47zm0 0"/></symbol><symbol overflow="visible" id="dd53510bs"><path d="M.69-3.9c-.03.09-.03.21-.03.3 0 .52.39 1.04 1.01 1.12L2.81-.2l.99-.27-1.4-2.19c.96-.17 1.94-.8 1.94-2.04 0-1.17-.9-1.9-2.04-1.9-.57 0-1.03.15-1.4.4l.47.75c.29-.2.61-.28.97-.28.61 0 1.08.36 1.08 1.04 0 .77-.67 1.2-1.5 1.28l-.72-.82zm0 0"/></symbol><symbol overflow="visible" id="dd53510bt"><path d="M3.1.6l.96-.5-1.4-1.02v-.03c.82-.07 1.65-.55 1.65-1.5 0-.9-.68-1.27-1.17-1.36v-.03c.42-.18.84-.57.84-1.24 0-.94-.75-1.53-1.78-1.53-.86 0-1.33.3-1.64.55l.61.7A1.4 1.4 0 012.2-5.8c.54 0 .87.3.87.78 0 .61-.54.93-1.51.97l.17.8c.17-.03.36-.05.51-.05.72 0 1.13.28 1.13.85 0 .51-.45.86-1.23.86-.13 0-.2 0-.36-.03l-.93-.72-.42.42c-.01.08 0 .14.02.22.08.48.53.87 1.3.9zm0 0"/></symbol><symbol overflow="visible" id="dd53510bu"><path d="M2.56-.3C3.7-.3 4.4-.94 4.4-1.92c0-.78-.51-1.28-1.12-1.74.7-.5 1.37-1.07 1.37-2.04 0-.4-.08-.64-.19-.83l-.89.31c.08.13.14.33.14.56 0 .66-.53 1.1-1.14 1.52-.6-.42-1.14-.86-1.14-1.52 0-.23.06-.43.14-.56L.7-6.53c-.13.19-.2.44-.2.83 0 .97.67 1.54 1.35 2.04-.59.46-1.1.96-1.1 1.74 0 .98.71 1.62 1.82 1.62zm0-.8c-.54 0-.89-.27-.89-.84 0-.48.4-.86.9-1.22.5.36.88.74.88 1.22 0 .56-.33.85-.89.85zm0 0"/></symbol><symbol overflow="visible" id="dd53510bv"><path d="M4.44.06l1.01-.2-1.12-2.4a.94.94 0 00.23-.66c0-.4-.34-.78-.68-1.13l-.65.27.2 1.03c-.15.12-.41.26-.91.26-.6 0-1.04-.39-1.04-1.14 0-.75.4-1.56 1.02-2.23l-.8-.49A4.3 4.3 0 00.55-3.85c0 1.2.82 1.94 1.93 1.94.57 0 .93-.13 1.18-.27zm0 0"/></symbol><symbol overflow="visible" id="dd53510bw"><path d="M4.48.6L5.53.4 4.47-1.11c.16-.2.26-.47.26-.77 0-.33-.21-.69-.43-.84l-.6.17v.86c-.17.14-.53.22-.83.22-.78 0-1.12-.33-1.12-.83 0-.56.45-1 1.92-1.1l-.15-.8c-.15.02-.29.02-.4.02-.95 0-1.43-.34-1.43-.84 0-.5.4-.74 1.01-.74.5 0 .85.1 1.08.2l.25-.8c-.2-.1-.73-.24-1.33-.24C1.4-6.6.7-5.95.7-5.12c0 .68.47 1.18 1.22 1.35v.05C1.27-3.48.78-3 .78-2.32c0 1.07.92 1.65 2.06 1.65.43 0 .85-.1 1.02-.17zm0 0"/></symbol><symbol overflow="visible" id="dd53510bx"><path d="M4.55-2.98c-.58 0-.9-.32-.9-.79 0-.43.29-.68.65-.68.43 0 .83.34.83 1.25v.08c-.18.09-.38.14-.58.14zm-1 2.57c1.47 0 2.43-1.04 2.43-2.76 0-1.4-.8-2.08-1.71-2.08-.83 0-1.5.6-1.5 1.45 0 .92.68 1.5 1.56 1.5.26 0 .51-.04.72-.14-.24.85-.83 1.24-1.58 1.24-1.27 0-1.88-1.36-1.88-2.96 0-.86.11-1.73.28-2.3l-.92.05A10.6 10.6 0 00.7-4.14c0 1.95.88 3.73 2.85 3.73zm0 0"/></symbol><symbol overflow="visible" id="dd53510by"><path d="M2.23-3.69l1.85-2.4-.85-.43-1.8 2.38C.85-3.41.62-2.95.62-2.28c0 1.1.94 1.89 2.23 1.89a2.9 2.9 0 001.93-.66L4.3-1.8c-.4.35-.9.55-1.53.55-.75 0-1.2-.44-1.2-1.02 0-.53.24-.8.66-1.42zm0 0"/></symbol><symbol overflow="visible" id="dd53510bz"><path d="M1.58-4.92c0-.53.36-.85.8-.85.53 0 .8.33.8.83 0 .57-.34.96-1.23.97-.22-.33-.37-.62-.37-.95zM2.7 0h.99c.15-.22.33-.52.33-.95 0-.46-.27-.88-.57-1.24l-.9-1.06c.89-.1 1.56-.7 1.56-1.69 0-.89-.66-1.67-1.74-1.67-1.03 0-1.71.69-1.71 1.69 0 .58.28 1.15.78 1.73l1.25 1.46c.22.26.37.54.37.82 0 .4-.19.64-.36.85zm0 0"/></symbol></defs><use xlink:href="#dd53510ba" x="158.22" y="147.5" fill="#515151"/><use xlink:href="#dd53510bb" x="184.74" y="147.5" fill="#fff"/><g fill="#515151"><use xlink:href="#dd53510bc" x="209.34" y="147.5"/><use xlink:href="#dd53510bd" x="237.12" y="147.5"/><use xlink:href="#dd53510be" x="265.38" y="147.5"/></g><use xlink:href="#dd53510bf" x="293.04" y="147.5" fill="#fff"/><g fill="#515151"><use xlink:href="#dd53510bg" x="320.88" y="147.5"/><use xlink:href="#dd53510bh" x="347.64" y="147.5"/></g><use xlink:href="#dd53510bi" x="380.46" y="147.5" fill="#fff"/><use xlink:href="#dd53510bj" x="411.96" y="147.5" fill="#fff"/><g fill="#fff"><use xlink:href="#dd53510bk" x="254.235" y="251"/><use xlink:href="#dd53510bl" x="260.902" y="251"/><use xlink:href="#dd53510bm" x="267.569" y="251"/><use xlink:href="#dd53510bn" x="274.236" y="251"/><use xlink:href="#dd53510bo" x="280.903" y="251"/><use xlink:href="#dd53510bp" x="287.57" y="251"/></g><g fill="#fff"><use xlink:href="#dd53510bq" x="294.235" y="251"/><use xlink:href="#dd53510br" x="298.985" y="251"/><use xlink:href="#dd53510bs" x="303.745" y="251"/><use xlink:href="#dd53510bt" x="308.695" y="251"/><use xlink:href="#dd53510bu" x="313.635" y="251"/><use xlink:href="#dd53510bv" x="318.765" y="251"/><use xlink:href="#dd53510bw" x="324.195" y="251"/><use xlink:href="#dd53510bx" x="329.455" y="251"/><use xlink:href="#dd53510by" x="336.025" y="251"/><use xlink:href="#dd53510bz" x="340.935" y="251"/></g><g fill="#fff"><use xlink:href="#dd53510bA" x="130" y="266"/><use xlink:href="#dd53510bl" x="136.667" y="266"/><use xlink:href="#dd53510bB" x="143.334" y="266"/><use xlink:href="#dd53510bn" x="150.001" y="266"/><use xlink:href="#dd53510bC" x="156.668" y="266"/><use xlink:href="#dd53510bD" x="163.335" y="266"/><use xlink:href="#dd53510bl" x="170.002" y="266"/><use xlink:href="#dd53510bo" x="176.669" y="266"/><use xlink:href="#dd53510bp" x="183.336" y="266"/><use xlink:href="#dd53510bE" x="190.003" y="266"/><use xlink:href="#dd53510bF" x="196.67" y="266"/><use xlink:href="#dd53510bn" x="203.337" y="266"/><use xlink:href="#dd53510bl" x="210.004" y="266"/><use xlink:href="#dd53510bD" x="216.671" y="266"/><use xlink:href="#dd53510bG" x="223.338" y="266"/><use xlink:href="#dd53510bB" x="230.005" y="266"/><use xlink:href="#dd53510bn" x="236.672" y="266"/><use xlink:href="#dd53510bH" x="243.339" y="266"/><use xlink:href="#dd53510bI" x="250.006" y="266"/><use xlink:href="#dd53510bl" x="256.673" y="266"/><use xlink:href="#dd53510bp" x="263.34" y="266"/><use xlink:href="#dd53510bG" x="270.007" y="266"/><use xlink:href="#dd53510bC" x="276.674" y="266"/><use xlink:href="#dd53510bJ" x="283.341" y="266"/><use xlink:href="#dd53510bl" x="290.008" y="266"/><use xlink:href="#dd53510bD" x="296.675" y="266"/><use xlink:href="#dd53510bB" x="303.342" y="266"/><use xlink:href="#dd53510bF" x="310.009" y="266"/><use xlink:href="#dd53510bK" x="316.676" y="266"/><use xlink:href="#dd53510bp" x="323.343" y="266"/><use xlink:href="#dd53510bL" x="330.01" y="266"/><use xlink:href="#dd53510bM" x="336.677" y="266"/><use xlink:href="#dd53510bp" x="343.344" y="266"/><use xlink:href="#dd53510bN" x="350.011" y="266"/><use xlink:href="#dd53510bM" x="356.678" y="266"/><use xlink:href="#dd53510bp" x="363.345" y="266"/><use xlink:href="#dd53510bO" x="370.012" y="266"/><use xlink:href="#dd53510bM" x="376.679" y="266"/><use xlink:href="#dd53510bp" x="383.346" y="266"/><use xlink:href="#dd53510bB" x="390.013" y="266"/><use xlink:href="#dd53510bG" x="396.68" y="266"/><use xlink:href="#dd53510bP" x="403.347" y="266"/><use xlink:href="#dd53510bp" x="410.014" y="266"/><use xlink:href="#dd53510bQ" x="416.681" y="266"/><use xlink:href="#dd53510bp" x="423.348" y="266"/><use xlink:href="#dd53510bR" x="430.015" y="266"/><use xlink:href="#dd53510bK" x="436.682" y="266"/><use xlink:href="#dd53510bK" x="443.349" y="266"/><use xlink:href="#dd53510bS" x="450.016" y="266"/><use xlink:href="#dd53510bN" x="456.683" y="266"/><use xlink:href="#dd53510bT" x="463.35" y="266"/></g></svg>