<?xml version='1.0' encoding='UTF-8'?>
<svg xmlns="http://www.w3.org/2000/svg" xmlns:xlink="http://www.w3.org/1999/xlink" width="600px" height="300px" viewBox="0 0 600 300" x="0px" y="0px" enable-background="new 0 0 600 300"><defs><symbol overflow="visible" id="17bbcce5a"><path d="M18.02 0h6.7v-48.27h17.6v-5.82H.38v5.82h17.65zm0 0"/></symbol><symbol overflow="visible" id="17bbcce5b"><path d="M23.08 1.14c12.12 0 19.1-7.58 19.1-21.25 0-13.6-6.98-21.14-19.1-21.14-12.06 0-19 7.53-19 21.14 0 13.67 6.94 21.25 19 21.25zm0-5.6c-8.3 0-12.38-5.26-12.38-15.65 0-10.36 4.08-15.52 12.38-15.52 8.34 0 12.47 5.16 12.47 15.52 0 10.4-4.13 15.66-12.47 15.66zm0 0"/></symbol><symbol overflow="visible" id="17bbcce5c"><path d="M16.03-34.55H28.8v-5.56H16.03v-12.47h-5.06L9.57-40.1H1.3v5.56h8.26v23C9.56-3.3 13.37.92 21.83.92c2.6 0 5.25-.5 7.15-1.08l-.71-5.37c-1.41.39-3.16.76-5.14.76-4.7 0-7.1-1.82-7.1-7.39zm0 0"/></symbol><symbol overflow="visible" id="17bbcce5d"><path d="M17.48 1.1c6.75 0 11.29-2.82 13.49-7.38h.39L32.03 0h5.42v-27.28c0-9.64-5.42-14.02-15.78-14.02-10.55 0-15.08 4.77-16.22 12.38l6.4.58c.8-4.8 3.35-7.63 9.74-7.63 6.57 0 9.57 2.72 9.57 9v2.78l-13.52 1.75c-9.67 1.22-13.83 4.8-13.83 12.08 0 7.2 4.77 11.47 13.67 11.47zm1.3-5.29c-5.86 0-8.37-2.48-8.37-6.6 0-3.8 2.17-6 7.73-6.77l13.02-1.83v3.84c0 6.57-4.7 11.36-12.38 11.36zm0 0"/></symbol><symbol overflow="visible" id="17bbcce5e"><path d="M7.28 0h6.47v-57.14H7.28zm0 0"/></symbol><symbol overflow="visible" id="17bbcce5f"><path d="M9.9-31.02c2.7 0 4.7-1.48 4.7-4.56 0-3.1-2-4.53-4.7-4.53-2.78 0-4.68 1.44-4.68 4.53 0 3.08 1.9 4.56 4.69 4.56zM9.9.64c2.7 0 4.7-1.48 4.7-4.56 0-3.13-2-4.53-4.7-4.53-2.78 0-4.68 1.4-4.68 4.53C5.22-.84 7.12.64 9.9.64zm0 0"/></symbol><symbol overflow="visible" id="17bbcce5g"><path d="M25.9 1.25c13.07 0 21.15-5.78 21.15-15.53 0-8.31-6.4-12.66-11.2-13.75v-.34c3.73-1.16 9.26-4.61 9.26-12.5 0-8.99-7.4-14.41-19.2-14.41-11.77 0-19.13 5.42-19.13 14.4 0 7.77 5.38 11.29 9.19 12.5v.35c-4.61 1.1-11.13 5.22-11.13 13.75 0 9.75 8.08 15.53 21.07 15.53zm0-31.8c-8.42 0-12.6-3.92-12.6-9.64 0-6.67 4.42-9.6 12.6-9.6 8.2 0 12.7 2.93 12.7 9.6 0 5.72-4.27 9.64-12.7 9.64zm0 26.28c-9.26 0-14.48-3.62-14.48-10.62 0-6.56 4.96-10.36 14.49-10.36 9.51 0 14.51 3.8 14.51 10.36 0 7-5.26 10.62-14.51 10.62zm0 0"/></symbol><symbol overflow="visible" id="17bbcce5h"><path d="M23.73 1.14c12.04 0 19.35-6.67 19.35-18.62 0-11.32-6.55-17.54-16.83-17.54-6.48 0-10.75 2.49-13.94 6.22h-.39l2.6-19.47h25.21v-5.82H9.25L5.72-22.8h5.51c2.49-3.04 7.29-6.74 13.38-6.74 7.7 0 11.92 3.67 11.92 12.31 0 8.58-4.72 12.84-12.8 12.84-6.86 0-10.93-2.7-12.53-8.3l-6.51.6c1.06 8.69 8.3 13.22 19.04 13.22zm0 0"/></symbol><symbol overflow="visible" id="17bbcce5i"><path d="M15.36 0h6.47v-54.1H16.6L2.55-48.6v5.9c4.26-1.46 8.53-2.97 12.8-4.42zm0 0"/></symbol><symbol overflow="visible" id="17bbcce5j"><path d="M25.53 1.14c12.22 0 19.31-6.73 19.31-18.33 0-11.23-6.98-17.43-17.68-17.43-8.08 0-12.91 4.18-15.32 8.71h-.34c.42-13.98 3.1-23.65 14.56-23.65 7.35 0 10.17 3.47 11.32 7.89l6.54-.74c-1.67-7.26-6.81-12.82-17.83-12.82-13.03 0-20.64 8.42-20.64 30.73 0 17.56 7.5 25.64 20.08 25.64zm.11-5.48c-7.78 0-12.58-5.04-12.58-12.3 0-7.6 5.64-12.66 13.03-12.66 7.82 0 12.32 4.38 12.32 12.5 0 8.22-4.88 12.46-12.77 12.46zm0 0"/></symbol><symbol overflow="visible" id="17bbcce5k"><path d="M3.83 0v-5.95H6.2v-.82H.45v.82h2.4V0zm0 0"/></symbol><symbol overflow="visible" id="17bbcce5l"><path d="M5.75-2.23v-.43c0-1.6-.9-2.51-2.42-2.51S.87-4.16.87-2.48c0 1.71.91 2.62 2.5 2.62 1.43 0 2.07-.56 2.29-1.52l-.9-.09c-.18.61-.59.9-1.35.9-.94 0-1.52-.54-1.58-1.66zm-2.4-2.2c.93 0 1.43.5 1.48 1.55H1.84c.08-1.07.6-1.56 1.5-1.56zm0 0"/></symbol><symbol overflow="visible" id="17bbcce5m"><path d="M1.83 0l1.42-2h.06l1.46 2H5.8L4-2.53l1.78-2.49H4.8L3.42-3.08h-.08l-1.4-1.94H.89l1.78 2.49L.84 0zm0 0"/></symbol><symbol overflow="visible" id="17bbcce5n"><path d="M5.52-4.25v-.77H3.17v-1.56h-.81l-.14 1.56H.75v.77h1.47v2.4c0 1.3.48 1.94 1.84 1.94C4.6.1 5.14 0 5.55-.14L5.4-.91c-.32.13-.72.2-1.13.2-.8 0-1.1-.37-1.1-1.23v-2.31zm0 0"/></symbol><symbol overflow="visible" id="17bbcce5o"><path d="M3.33-3.42c.47 0 .8-.27.8-.8 0-.51-.33-.8-.8-.8-.47 0-.8.29-.8.8 0 .53.33.8.8.8zm0 3.5c.47 0 .8-.27.8-.78 0-.53-.33-.82-.8-.82-.47 0-.8.29-.8.82 0 .51.33.78.8.78zm0 0"/></symbol><symbol overflow="visible" id="17bbcce5q"><path d="M3.33.14c1.62 0 2.5-.95 2.5-2.66 0-1.68-.88-2.64-2.5-2.64-1.63 0-2.5.96-2.5 2.64 0 1.7.87 2.66 2.5 2.66zm0-.77c-1.06 0-1.52-.6-1.52-1.89 0-1.28.46-1.87 1.52-1.87 1.08 0 1.53.6 1.53 1.87 0 1.29-.45 1.9-1.53 1.9zm0 0"/></symbol><symbol overflow="visible" id="17bbcce5r"><path d="M2.83.14c.94 0 1.5-.39 1.81-.95h.08l.1.81h.76v-3.38c0-1.23-.69-1.8-2.13-1.8-1.43 0-2.03.65-2.18 1.6l.93.1c.11-.6.44-.93 1.22-.93.85 0 1.22.32 1.22 1.04v.34l-1.81.2C1.6-2.7 1.1-2.17 1.1-1.28c0 .92.64 1.42 1.72 1.42zm.25-.77c-.67 0-1.02-.28-1.02-.74 0-.44.28-.72 1-.82l1.58-.19v.41c0 .8-.6 1.34-1.56 1.34zm0 0"/></symbol><symbol overflow="visible" id="17bbcce5s"><path d="M3.92-7.14H1.36v.76h1.6v5.61H1.15V0H5.7v-.77H3.92zm0 0"/></symbol><symbol overflow="visible" id="17bbcce5t"><path d="M3.33.16c1.69 0 2.69-.74 2.69-1.94 0-1.05-.8-1.58-1.43-1.72v-.05c.5-.14 1.2-.58 1.2-1.56 0-1.12-.95-1.81-2.46-1.81-1.52 0-2.46.69-2.46 1.81 0 .97.68 1.4 1.18 1.56v.05c-.6.14-1.4.64-1.4 1.72 0 1.2 1 1.94 2.68 1.94zm0-4.04c-.97 0-1.49-.43-1.49-1.12 0-.78.52-1.1 1.49-1.1.95 0 1.48.32 1.48 1.1 0 .69-.53 1.13-1.48 1.13zm0 3.24c-1.1 0-1.7-.42-1.7-1.25 0-.78.6-1.2 1.7-1.2s1.7.42 1.7 1.2c0 .83-.6 1.25-1.7 1.25zm0 0"/></symbol><symbol overflow="visible" id="17bbcce5u"><path d="M3.42.14c1.55 0 2.44-.84 2.44-2.33 0-1.45-.83-2.22-2.14-2.22-.75 0-1.28.27-1.67.72H2l.31-2.22h3.11v-.86H1.53l-.45 3.93h.81c.3-.36.9-.79 1.58-.79.92 0 1.44.43 1.44 1.47 0 .99-.54 1.5-1.49 1.5-.83 0-1.28-.32-1.5-1.01l-.95.1C1.07-.46 2 .13 3.42.13zm0 0"/></symbol><symbol overflow="visible" id="17bbcce5v"><path d="M4.22-6.77h-.86l-2.03.7v.87c.64-.17 1.26-.38 1.89-.55v4.9H1.03V0h4.9v-.86H4.21zm0 0"/></symbol><symbol overflow="visible" id="17bbcce5w"><path d="M3.42.14c1.58 0 2.49-.86 2.49-2.3 0-1.42-.86-2.17-2.22-2.17-1.03 0-1.58.5-1.9 1.02h-.04c.03-1.63.4-2.77 1.73-2.77.91 0 1.24.44 1.36.96l.97-.11c-.23-.96-.86-1.68-2.33-1.68C1.84-6.9.86-5.86.86-3.1.86-.9 1.78.14 3.42.14zm.02-.78c-.9 0-1.47-.55-1.47-1.47 0-.9.7-1.47 1.53-1.47.92 0 1.47.52 1.47 1.47 0 .97-.6 1.47-1.53 1.47zm0 0"/></symbol><symbol overflow="visible" id="17bbcce5x"><path d="M5.95-6.77H1.1V0h.99v-2.92H5.3v-.77H2.08v-2.26h3.87zm0 0"/></symbol><symbol overflow="visible" id="17bbcce5y"><path d="M2.73.14c.9 0 1.43-.45 1.74-1.08h.06l.13.94h.8v-5.02h-.94v2.7c0 .98-.57 1.62-1.46 1.62-.75 0-1.1-.4-1.1-1.22v-3.1h-.93v3.32c0 1.17.55 1.84 1.7 1.84zm0 0"/></symbol><symbol overflow="visible" id="17bbcce5z"><path d="M5.08-5.16c-.94 0-1.58.43-1.9 1.3h-.09l-.07-1.16H1.05v.77h1.1v3.48H.96V0h3.96v-.77H3.1v-1.46c0-1.36.6-2.05 1.83-2.05.4 0 .76.08 1.1.17l.15-.87c-.33-.11-.7-.18-1.11-.18zm0 0"/></symbol><symbol overflow="visible" id="17bbcce5A"><path d="M2.08-6.77h-.99V0h4.79v-.81h-3.8zm0 0"/></symbol><symbol overflow="visible" id="17bbcce5B"><path d="M3.58-5.81c.42 0 .72-.22.72-.67 0-.44-.3-.68-.72-.68-.44 0-.72.24-.72.68 0 .45.28.67.72.67zm.5.8H1.52v.76h1.6v3.48h-1.8V0h4.46v-.77h-1.7zm0 0"/></symbol><symbol overflow="visible" id="17bbcce5C"><path d="M2.16 0v-2.67c0-.99.59-1.63 1.46-1.63.74 0 1.07.38 1.07 1.22V0h.95v-3.31c0-1.2-.56-1.85-1.67-1.85-.92 0-1.49.46-1.77 1.08h-.06l-.12-.94H1.2V0zm0 0"/></symbol><symbol overflow="visible" id="17bbcce5D"><path d="M3.16 2.03c1.67 0 2.4-.86 2.4-2.51v-4.54h-.81l-.13.91h-.06c-.26-.58-.8-1.05-1.73-1.05-1.42 0-2.24 1-2.24 2.52 0 1.6.75 2.56 2.2 2.56.94 0 1.5-.5 1.77-1.03h.05v.72c0 1.17-.42 1.67-1.45 1.67-.93 0-1.3-.34-1.41-.89L.8.5c.12.96.87 1.54 2.36 1.54zM3.06-.8c-.98 0-1.48-.57-1.48-1.82 0-1.13.5-1.75 1.48-1.75 1.06 0 1.58.76 1.58 1.75 0 .95-.56 1.82-1.58 1.82zm0 0"/></symbol><symbol overflow="visible" id="17bbcce5E"><path d="M1.63 0v-2.9c0-.8.15-1.4.71-1.4.41 0 .55.3.55.88V0h.95v-2.9c0-.8.18-1.4.72-1.4.4 0 .57.3.57.88V0h.95v-3.63c0-.92-.28-1.53-1.11-1.53-.63 0-.95.41-1.1.9h-.06c-.1-.52-.44-.9-1.08-.9-.6 0-.93.41-1.06.9H1.6l-.23-.76H.67V0zm0 0"/></symbol><symbol overflow="visible" id="17bbcce5F"><path d="M3.36.16c1.4 0 2.2-.6 2.2-1.57 0-.89-.54-1.22-1.47-1.39L3-3c-.67-.14-.86-.33-.86-.73 0-.5.4-.74 1.17-.74.83 0 1.19.27 1.27.8l.9-.05c-.12-1-.8-1.47-2.17-1.47-1.34 0-2.1.53-2.1 1.5 0 .81.45 1.22 1.52 1.44l1.04.2c.56.11.87.24.87.72 0 .52-.45.78-1.28.78-.95 0-1.36-.28-1.42-.87l-.9.06C1.07-.36 1.8.16 3.35.16zm0 0"/></symbol><symbol overflow="visible" id="17bbcce5G"><path d="M1.45-2.95c0 2.56 1.08 4.37 3.67 4.84l.11-.67C3.28.86 2.43-.75 2.43-2.95s.85-3.82 2.8-4.16l-.1-.69c-2.6.49-3.68 2.3-3.68 4.85zm0 0"/></symbol><symbol overflow="visible" id="17bbcce5H"><path d="M2.84.14C3.8.14 4.33-.26 4.6-.9h.07L4.8 0h.76v-7.14h-.95v2.95h-.08c-.28-.6-.86-.97-1.67-.97-1.48 0-2.27.99-2.27 2.64C.6-.84 1.36.14 2.84.14zm.22-.8c-.98 0-1.48-.59-1.48-1.84s.5-1.86 1.48-1.86c1.13 0 1.58.8 1.58 1.86S4.2-.66 3.06-.66zm0 0"/></symbol><symbol overflow="visible" id="17bbcce5I"><path d="M4.63-6.5c.45 0 .98.08 1.39.2l.2-.72a5.3 5.3 0 00-1.64-.26c-1.52 0-2.16.56-2.16 1.87v.4H.9v.76h1.53V0h.94v-4.25h2.53v-.77H3.36v-.3c0-.84.33-1.18 1.27-1.18zm0 0"/></symbol><symbol overflow="visible" id="17bbcce5J"><path d="M1.45-7.1c1.96.33 2.8 1.94 2.8 4.15 0 2.2-.84 3.8-2.8 4.17l.11.67c2.58-.47 3.67-2.28 3.67-4.84 0-2.55-1.09-4.36-3.67-4.85zm0 0"/></symbol></defs><g fill="#515151"><use xlink:href="#17bbcce5a" x="98.95238" y="159"/><use xlink:href="#17bbcce5b" x="138.23238" y="159"/></g><use xlink:href="#17bbcce5c" x="184.47238" y="159" fill="#515151"/><use xlink:href="#17bbcce5d" x="215.99238" y="159" fill="#515151"/><use xlink:href="#17bbcce5e" x="259.99238" y="159" fill="#515151"/><use xlink:href="#17bbcce5f" x="280.95238" y="159" fill="#515151"/><g fill="#fff"><use xlink:href="#17bbcce5g" x="321.5429" y="159"/><use xlink:href="#17bbcce5h" x="373.0069" y="159"/></g><use xlink:href="#17bbcce5i" x="419.5909" y="159" fill="#fff"/><use xlink:href="#17bbcce5j" x="451.5349" y="159" fill="#fff"/><g fill="#fff"><use xlink:href="#17bbcce5k" x="243.3333" y="252"/><use xlink:href="#17bbcce5l" x="250.0003" y="252"/><use xlink:href="#17bbcce5m" x="256.6673" y="252"/><use xlink:href="#17bbcce5n" x="263.3343" y="252"/><use xlink:href="#17bbcce5o" x="270.0013" y="252"/><use xlink:href="#17bbcce5p" x="276.6683" y="252"/><use xlink:href="#17bbcce5k" x="283.3353" y="252"/><use xlink:href="#17bbcce5q" x="290.0023" y="252"/><use xlink:href="#17bbcce5n" x="296.6693" y="252"/><use xlink:href="#17bbcce5r" x="303.3363" y="252"/><use xlink:href="#17bbcce5s" x="310.0033" y="252"/><use xlink:href="#17bbcce5o" x="316.6703" y="252"/><use xlink:href="#17bbcce5p" x="323.3373" y="252"/><use xlink:href="#17bbcce5t" x="330.0043" y="252"/><use xlink:href="#17bbcce5u" x="336.6713" y="252"/><use xlink:href="#17bbcce5v" x="343.3383" y="252"/><use xlink:href="#17bbcce5w" x="350.0053" y="252"/></g><g fill="#fff"><use xlink:href="#17bbcce5x" x="186.6667" y="266"/><use xlink:href="#17bbcce5l" x="193.3337" y="266"/><use xlink:href="#17bbcce5r" x="200.0007" y="266"/><use xlink:href="#17bbcce5n" x="206.6677" y="266"/><use xlink:href="#17bbcce5y" x="213.3347" y="266"/><use xlink:href="#17bbcce5z" x="220.0017" y="266"/><use xlink:href="#17bbcce5l" x="226.6687" y="266"/><use xlink:href="#17bbcce5o" x="233.3357" y="266"/><use xlink:href="#17bbcce5p" x="240.0027" y="266"/><use xlink:href="#17bbcce5A" x="246.6697" y="266"/><use xlink:href="#17bbcce5B" x="253.3367" y="266"/><use xlink:href="#17bbcce5C" x="260.0037" y="266"/><use xlink:href="#17bbcce5B" x="266.6707" y="266"/><use xlink:href="#17bbcce5C" x="273.3377" y="266"/><use xlink:href="#17bbcce5D" x="280.0047" y="266"/><use xlink:href="#17bbcce5p" x="286.6717" y="266"/><use xlink:href="#17bbcce5C" x="293.3387" y="266"/><use xlink:href="#17bbcce5y" x="300.0057" y="266"/><use xlink:href="#17bbcce5E" x="306.6727" y="266"/><use xlink:href="#17bbcce5l" x="313.3397" y="266"/><use xlink:href="#17bbcce5z" x="320.0067" y="266"/><use xlink:href="#17bbcce5r" x="326.6737" y="266"/><use xlink:href="#17bbcce5s" x="333.3407" y="266"/><use xlink:href="#17bbcce5F" x="340.0077" y="266"/><use xlink:href="#17bbcce5p" x="346.6747" y="266"/><use xlink:href="#17bbcce5G" x="353.3417" y="266"/><use xlink:href="#17bbcce5H" x="360.0087" y="266"/><use xlink:href="#17bbcce5l" x="366.6757" y="266"/><use xlink:href="#17bbcce5I" x="373.3427" y="266"/><use xlink:href="#17bbcce5r" x="380.0097" y="266"/><use xlink:href="#17bbcce5y" x="386.6767" y="266"/><use xlink:href="#17bbcce5s" x="393.3437" y="266"/><use xlink:href="#17bbcce5n" x="400.0107" y="266"/><use xlink:href="#17bbcce5J" x="406.6777" y="266"/></g></svg>