<?xml version='1.0' encoding='UTF-8'?>
<svg xmlns="http://www.w3.org/2000/svg" xmlns:xlink="http://www.w3.org/1999/xlink" width="500px" height="900px" viewBox="0 0 500 900" x="0px" y="0px" enable-background="new 0 0 500 900"><defs><symbol overflow="visible" id="acc60a47a"><path d="M20.1-19.66c0-4.57-2.18-6.62-6.76-6.62H2.2l-.36 2.51h11.3c3.18 0 4.56 1.36 4.56 4.57V0h2.42zm0 0"/></symbol><symbol overflow="visible" id="acc60a47b"><path d="M26.83-13.58c0-7.76-1.9-13.17-9.95-13.17-.74 0-2.35.19-3.07.47l-.37 2.47c.83-.28 2.6-.47 3.44-.47 6.48 0 7.53 4.3 7.53 10.7 0 7.77-2.43 11.85-8.82 11.85-6.4 0-8.82-4.08-8.82-11.85v-12.7H4.34v12.84C4.34-4.3 7.81.7 15.6.7c7.77 0 11.24-5.35 11.24-14.27zm0 0"/></symbol><symbol overflow="visible" id="acc60a47c"><path d="M12.9-26.97c-6.04 0-10.15 2.69-10.15 8.36 0 5.72 3.23 7.55 7.86 7.55.78 0 1.4-.1 1.97-.19l.36-2.28c-.46.05-1.42.14-2.19.14-3.06 0-5.58-1.1-5.58-5.22 0-3.97 2.69-5.84 7.72-5.84 6.13 0 9.14 2.97 9.14 11.2 0 8.17-3.51 11.52-10.73 11.52-2.57 0-4.63-.55-6.96-1.2L3.98-.44C6.18.19 8.64.69 11.3.69c8.68 0 13.15-4.35 13.15-13.94 0-9.6-4.06-13.72-11.56-13.72zm0 0"/></symbol><symbol overflow="visible" id="acc60a47d"><path d="M16.45 0h2.43v-23.77h2.84l.36-2.51H2.18l-.35 2.51h14.62zm0 0"/></symbol><symbol overflow="visible" id="acc60a47e"><path d="M2.75 0h2.42l2-8.92c.94-4.11 1.86-5.2 4.47-5.64C15.12-9.84 18.42-5.03 21.58 0h2.87c-2.6-4.16-5.3-8.2-8.14-12.14 3.63-.75 5.22-2.69 6.17-7.11L24-26.28h-2.42L20.2-19.8c-.78 3.82-1.92 5.14-5.18 5.86-3.13-4.28-6.38-8.39-9.8-12.34H2.28c2.77 3.22 5.44 6.53 8 9.94-3.06.75-4.3 2.26-5.34 6.82zm0 0"/></symbol><symbol overflow="visible" id="acc60a47g"><path d="M3.83 0v-5.95H6.2v-.82H.45v.82h2.4V0zm0 0"/></symbol><symbol overflow="visible" id="acc60a47h"><path d="M5.75-2.23v-.43c0-1.6-.9-2.51-2.42-2.51S.87-4.16.87-2.48c0 1.71.91 2.62 2.5 2.62 1.43 0 2.07-.56 2.29-1.52l-.9-.09c-.18.61-.59.9-1.35.9-.94 0-1.52-.54-1.58-1.66zm-2.4-2.2c.93 0 1.43.5 1.48 1.55H1.84c.08-1.07.6-1.56 1.5-1.56zm0 0"/></symbol><symbol overflow="visible" id="acc60a47i"><path d="M1.83 0l1.42-2h.06l1.46 2H5.8L4-2.53l1.78-2.49H4.8L3.42-3.08h-.08l-1.4-1.94H.89l1.78 2.49L.84 0zm0 0"/></symbol><symbol overflow="visible" id="acc60a47j"><path d="M5.52-4.25v-.77H3.17v-1.56h-.81l-.14 1.56H.75v.77h1.47v2.4c0 1.3.48 1.94 1.84 1.94C4.6.1 5.14 0 5.55-.14L5.4-.91c-.32.13-.72.2-1.13.2-.8 0-1.1-.37-1.1-1.23v-2.31zm0 0"/></symbol><symbol overflow="visible" id="acc60a47k"><path d="M5.92-6.77H1.1V0h4.83v-.8H2.06v-2.26h3.22v-.75H2.06v-2.16h3.86zm0 0"/></symbol><symbol overflow="visible" id="acc60a47l"><path d="M5.08-5.16c-.94 0-1.58.43-1.9 1.3h-.09l-.07-1.16H1.05v.77h1.1v3.48H.96V0h3.96v-.77H3.1v-1.46c0-1.36.6-2.05 1.83-2.05.4 0 .76.08 1.1.17l.15-.87c-.33-.11-.7-.18-1.11-.18zm0 0"/></symbol><symbol overflow="visible" id="acc60a47m"><path d="M2.83.14c.94 0 1.5-.39 1.81-.95h.08l.1.81h.76v-3.38c0-1.23-.69-1.8-2.13-1.8-1.43 0-2.03.65-2.18 1.6l.93.1c.11-.6.44-.93 1.22-.93.85 0 1.22.32 1.22 1.04v.34l-1.81.2C1.6-2.7 1.1-2.17 1.1-1.28c0 .92.64 1.42 1.72 1.42zm.25-.77c-.67 0-1.02-.28-1.02-.74 0-.44.28-.72 1-.82l1.58-.19v.41c0 .8-.6 1.34-1.56 1.34zm0 0"/></symbol><symbol overflow="visible" id="acc60a47n"><path d="M3.92-7.14H1.36v.76h1.6v5.61H1.15V0H5.7v-.77H3.92zm0 0"/></symbol><symbol overflow="visible" id="acc60a47o"><path d="M3.58-5.81c.42 0 .72-.22.72-.67 0-.44-.3-.68-.72-.68-.44 0-.72.24-.72.68 0 .45.28.67.72.67zm.5.8H1.52v.76h1.6v3.48h-1.8V0h4.46v-.77h-1.7zm0 0"/></symbol><symbol overflow="visible" id="acc60a47p"><path d="M3.16 2.03c1.67 0 2.4-.86 2.4-2.51v-4.54h-.81l-.13.91h-.06c-.26-.58-.8-1.05-1.73-1.05-1.42 0-2.24 1-2.24 2.52 0 1.6.75 2.56 2.2 2.56.94 0 1.5-.5 1.77-1.03h.05v.72c0 1.17-.42 1.67-1.45 1.67-.93 0-1.3-.34-1.41-.89L.8.5c.12.96.87 1.54 2.36 1.54zM3.06-.8c-.98 0-1.48-.57-1.48-1.82 0-1.13.5-1.75 1.48-1.75 1.06 0 1.58.76 1.58 1.75 0 .95-.56 1.82-1.58 1.82zm0 0"/></symbol><symbol overflow="visible" id="acc60a47q"><path d="M2.16 0v-2.69c0-.98.6-1.6 1.46-1.6.74 0 1.07.4 1.07 1.2V0h.95v-3.31c0-1.17-.56-1.85-1.67-1.85-.9 0-1.44.46-1.75 1.08h-.06v-3.06H1.2V0zm0 0"/></symbol><symbol overflow="visible" id="acc60a47w"><path d="M3.83-5.97h1.73v-.8H1.1v.8h1.75v5.19H1.1V0h4.47v-.78H3.83zm0 0"/></symbol><symbol overflow="visible" id="acc60a47x"><path d="M3.34.14c1.43 0 2.13-.66 2.25-1.78l-.89-.1c-.1.7-.5 1.08-1.34 1.08-1.03 0-1.52-.64-1.52-1.84 0-1.23.47-1.86 1.52-1.86.84 0 1.23.36 1.34 1.08l.9-.1c-.13-1.09-.82-1.78-2.26-1.78-1.56 0-2.46.97-2.46 2.66 0 1.66.9 2.64 2.46 2.64zm0 0"/></symbol><symbol overflow="visible" id="acc60a47D"><path d="M2.08-6.77h-.99V0h4.79v-.81h-3.8zm0 0"/></symbol><symbol overflow="visible" id="acc60a47O"><path d="M4.06-2.77c1.25-.04 1.92-.7 1.92-1.96 0-1.36-.7-2.04-2.17-2.04H.92V0h.97v-2.73h1.08L4.95 0h1.1zM1.9-6h1.7c1.07 0 1.46.34 1.46 1.28 0 .9-.44 1.27-1.47 1.27H1.89zm0 0"/></symbol><symbol overflow="visible" id="acc60a47P"><path d="M2.73.14c.9 0 1.43-.45 1.74-1.08h.06l.13.94h.8v-5.02h-.94v2.7c0 .98-.57 1.62-1.46 1.62-.75 0-1.1-.4-1.1-1.22v-3.1h-.93v3.32c0 1.17.55 1.84 1.7 1.84zm0 0"/></symbol><symbol overflow="visible" id="acc60a47aa"><path d="M1.64 0v-3.17l-.16-2.5h.1L2.9-1.83h.82l1.35-3.84h.1l-.16 2.5V0h.95v-6.77h-1.3l-1.3 3.82h-.09L2-6.77H.69V0zm0 0"/></symbol><symbol overflow="visible" id="acc60a47ab"><path d="M2.84.14C3.8.14 4.33-.26 4.6-.9h.07L4.8 0h.76v-7.14h-.95v2.95h-.08c-.28-.6-.86-.97-1.67-.97-1.48 0-2.27.99-2.27 2.64C.6-.84 1.36.14 2.84.14zm.22-.8c-.98 0-1.48-.59-1.48-1.84s.5-1.86 1.48-1.86c1.13 0 1.58.8 1.58 1.86S4.2-.66 3.06-.66zm0 0"/></symbol><symbol overflow="visible" id="acc60a47ac"><path d="M1.63 0v-2.9c0-.8.15-1.4.71-1.4.41 0 .55.3.55.88V0h.95v-2.9c0-.8.18-1.4.72-1.4.4 0 .57.3.57.88V0h.95v-3.63c0-.92-.28-1.53-1.11-1.53-.63 0-.95.41-1.1.9h-.06c-.1-.52-.44-.9-1.08-.9-.6 0-.93.41-1.06.9H1.6l-.23-.76H.67V0zm0 0"/></symbol><symbol overflow="visible" id="acc60a47an"><path d="M3.42.14c1.61 0 2.56-.75 2.56-2 0-1.1-.67-1.6-1.95-1.86l-.97-.2c-.87-.17-1.23-.49-1.23-1.11 0-.7.54-1.11 1.5-1.11 1.06 0 1.51.34 1.69 1.23l.9-.09c-.17-1.28-.98-1.9-2.6-1.9C1.79-6.9.9-6.18.9-4.98c0 1.06.66 1.66 1.88 1.9l1.01.2c.85.17 1.25.4 1.25 1.09 0 .73-.6 1.16-1.6 1.16-1.07 0-1.66-.4-1.8-1.24l-.94.1C.83-.53 1.75.13 3.42.13zm0 0"/></symbol><symbol overflow="visible" id="acc60a47ao"><path d="M3.9.14c1.48 0 2.18-.98 2.18-2.64 0-1.67-.7-2.66-2.17-2.66-.91 0-1.49.41-1.79 1h-.06v-2.98h-.95V0h.81l.11-.9h.06c.29.63.82 1.04 1.82 1.04zm-.32-.8c-1.08 0-1.55-.8-1.55-1.84 0-1.06.47-1.86 1.55-1.86 1.1 0 1.51.61 1.51 1.86S4.64-.66 3.58-.66zm0 0"/></symbol><symbol overflow="visible" id="acc60a47ap"><path d="M3.33.14c1.62 0 2.5-.95 2.5-2.66 0-1.68-.88-2.64-2.5-2.64-1.63 0-2.5.96-2.5 2.64 0 1.7.87 2.66 2.5 2.66zm0-.77c-1.06 0-1.52-.6-1.52-1.89 0-1.28.46-1.87 1.52-1.87 1.08 0 1.53.6 1.53 1.87 0 1.29-.45 1.9-1.53 1.9zm0 0"/></symbol><symbol overflow="visible" id="acc60a47aA"><path d="M4.66-3.45c.76-.14 1.15-.67 1.15-1.57 0-1.07-.64-1.75-2.18-1.75H.92V0h2.71C5.2 0 5.98-.64 5.98-1.77c0-1.03-.56-1.43-1.32-1.59zM3.56-6c.9 0 1.31.4 1.31 1.13 0 .71-.4 1.14-1.3 1.14h-1.7V-6zM1.87-.75v-2.27H3.6c.97 0 1.44.33 1.44 1.13 0 .8-.47 1.14-1.44 1.14zm0 0"/></symbol><symbol overflow="visible" id="acc60a47r"><path d="M21.13-18.97c.8-4.58-.88-7.31-5.91-7.31H4.39l-.69 2.51h10.83c4.13 0 4.67 1.83 4.13 5.02L15.36 0h2.42zm0 0"/></symbol><symbol overflow="visible" id="acc60a47s"><path d="M26.92-13.58c1.33-7.76 0-13.17-7.86-13.17-.73 0-2.23.19-3.01.47l-.7 2.47c.88-.28 2.43-.47 3.26-.47 6.48 0 6.98 4.3 5.89 10.7C23.17-5.8 19.98-1.73 13.58-1.73s-8.1-4.08-6.72-11.85l2.23-12.7H6.67l-2.19 12.6C2.88-4.52 5.53.7 13.3.7c8.1 0 12.12-5.35 13.62-14.27zm0 0"/></symbol><symbol overflow="visible" id="acc60a47t"><path d="M15.17-26.97C9.1-26.97 4.7-24.28 3.7-18.6c-1 5.72 2.28 7.55 6.67 7.55.79 0 1.43-.1 2.02-.24l.6-2.28c-.6.14-1.43.19-2.2.19-3.07 0-5.5-1.1-4.66-5.22.78-3.97 3.75-5.84 8.78-5.84 5.67 0 8.59 2.97 7.12 11.2-1.42 8.17-5.3 11.52-11.84 11.52-2.55 0-5.2-.55-7.4-1.52L1.96-.92C4.07.05 7.13.68 9.78.68c8.24 0 12.99-4.34 14.67-13.93 1.7-9.6-2.37-13.72-9.28-13.72zm0 0"/></symbol><symbol overflow="visible" id="acc60a47u"><path d="M14.13 0h2.42l4.2-23.77h2.97l.69-2.51H4.39l-.69 2.51h14.63zm0 0"/></symbol><symbol overflow="visible" id="acc60a47v"><path d="M.4 0h2.57l3.56-8.92c1.72-4.31 2.4-5.31 5.45-5.69C14.7-9.89 17.25-5.03 19.52 0h2.6c-1.84-4.1-3.89-8.14-6.03-12.05 4.25-.64 5.68-2.57 7.5-7.2l2.74-7.03h-2.56l-2.38 6.26c-1.53 4-2.56 5.49-6.33 6.18-2.42-4.32-5-8.47-7.7-12.44H4.6c2.17 3.2 4.28 6.47 6.26 9.83-3.45.73-4.64 2.14-6.57 6.93zm0 0"/></symbol><symbol overflow="visible" id="acc60a47y"><path d="M20.58-19.2c0-4.74-2.55-7.16-7.25-7.16H2.22l-.4 3.16H12.7c3.2 0 4.74 1.47 4.74 4.67V0h3.14zm0 0"/></symbol><symbol overflow="visible" id="acc60a47z"><path d="M27-13.58c0-8.15-2.3-13.23-9.92-13.23-.78 0-2.42.18-3.19.45l-.37 3.14c.8-.25 2.34-.47 3.23-.47 5.92 0 7.1 3.88 7.1 10.11 0 7.42-2.33 11.22-8.33 11.22s-8.35-3.8-8.35-11.22v-12.78H4.05v12.88C4.05-4.41 7.47.69 15.47.69 23.45.69 27-4.73 27-13.58zm0 0"/></symbol><symbol overflow="visible" id="acc60a47A"><path d="M13.03-27.05c-6.2 0-10.36 2.82-10.36 8.47 0 5.7 3.35 7.63 7.78 7.63.97 0 1.78-.1 2.44-.27l.4-2.84c-.6.14-1.54.25-2.5.25-2.85 0-5-1.16-5-4.77 0-3.65 2.52-5.36 7.24-5.36 5.75 0 8.6 2.86 8.6 10.64 0 7.82-3.36 10.94-10.43 10.94-2.5 0-4.73-.55-6.89-1.16l-.4 3.08C6.08.2 8.64.7 11.36.7c8.87 0 13.39-4.46 13.39-13.99 0-9.45-4.16-13.75-11.72-13.75zm0 0"/></symbol><symbol overflow="visible" id="acc60a47B"><path d="M16.4 0h3.12v-23.2h2.95l.4-3.16H2.23l-.4 3.16H16.4zm0 0"/></symbol><symbol overflow="visible" id="acc60a47C"><path d="M2.75 0h3.17l1.92-9.3c.85-3.93 1.6-4.87 3.88-5.28C15.2-9.89 18.48-5.05 21.62 0h3.7a227.36 227.36 0 00-8.04-12.05c3.6-.78 5.1-2.73 6.08-7.25l1.52-7.06h-3.2l-1.24 6.22c-.78 3.9-1.77 5.36-4.67 5.98-3.11-4.25-6.33-8.32-9.7-12.2H2.27c2.67 3.1 5.31 6.31 7.83 9.63-2.95.73-4.14 2.21-5.16 6.8zm0 0"/></symbol><symbol overflow="visible" id="acc60a47E"><path d="M21.52-18.58c.86-4.89-1.22-7.78-6.41-7.78H4.4l-.82 3.16h10.74c3.8 0 4.53 1.76 3.98 4.97L15.11 0h3.12zm0 0"/></symbol><symbol overflow="visible" id="acc60a47F"><path d="M27.06-13.58c1.4-8.15-.39-13.23-7.89-13.23-.9 0-2.28.18-3.08.45l-.8 3.14a13.4 13.4 0 013.16-.47c5.9 0 6.55 3.88 5.49 10.11C22.66-6.16 19.6-2.36 13.59-2.36c-5.98 0-7.65-3.8-6.34-11.22l2.27-12.78H6.38L4.13-13.64C2.56-4.58 5.24.69 13.24.69c8.34 0 12.3-5.38 13.82-14.27zm0 0"/></symbol><symbol overflow="visible" id="acc60a47G"><path d="M15.27-27.05c-6.32 0-10.7 2.82-11.66 8.47-.95 5.7 2.4 7.63 6.67 7.63a9 9 0 002.4-.32l.71-2.8c-.7.18-1.53.26-2.48.26-2.86 0-4.88-1.16-4.16-4.77.67-3.65 3.47-5.36 8.17-5.36 5.44 0 8.08 2.86 6.72 10.64C20.3-5.48 16.66-2.36 10.22-2.36A19.4 19.4 0 012.9-3.89L1.87-.95A20.25 20.25 0 009.84.69c8.53 0 13.28-4.46 14.92-13.99 1.66-9.45-2.42-13.75-9.48-13.75zm0 0"/></symbol><symbol overflow="visible" id="acc60a47H"><path d="M14.06 0h3.13l4.1-23.2h3.1l.83-3.16H4.4l-.82 3.16h14.57zm0 0"/></symbol><symbol overflow="visible" id="acc60a47I"><path d="M.4 0h3.32L7.3-9.3c1.54-4.07 2.18-4.97 4.76-5.3A158.8 158.8 0 0119.6 0H23c-1.86-4.1-3.84-8.1-5.97-11.98 4.19-.66 5.6-2.58 7.42-7.27l2.75-7.1h-3.3l-2.27 6.05c-1.52 4.05-2.47 5.58-5.79 6.22-2.42-4.28-4.98-8.39-7.65-12.28H4.6c2.14 3.06 4.19 6.27 6.16 9.53-3.27.69-4.5 2.08-6.38 6.8zm0 0"/></symbol><symbol overflow="visible" id="acc60a47J"><path d="M21.03-18.75c0-4.86-2.86-7.7-7.75-7.7H2.27l-.44 3.84H12.3c3.2 0 4.87 1.52 4.87 4.72V0h3.86zm0 0"/></symbol><symbol overflow="visible" id="acc60a47K"><path d="M27.13-13.58c0-8.53-2.65-13.33-9.88-13.33-.77 0-2.47.24-3.27.46l-.43 3.82c.82-.25 2.14-.45 3.1-.45 5.33 0 6.65 3.4 6.65 9.5 0 7.11-2.25 10.63-7.88 10.63-5.6 0-7.83-3.52-7.83-10.63v-12.87H3.72v12.92C3.72-4.55 7.16.69 15.34.69c8.2 0 11.79-5.52 11.79-14.27zm0 0"/></symbol><symbol overflow="visible" id="acc60a47L"><path d="M13.17-27.13c-6.39 0-10.6 2.94-10.6 8.6 0 5.7 3.45 7.72 7.7 7.72 1.2 0 2.18-.14 2.95-.36l.42-3.4c-.72.2-1.66.35-2.81.35-2.63 0-4.4-1.2-4.4-4.31 0-3.34 2.35-4.86 6.74-4.86 5.4 0 8.05 2.73 8.05 10.05 0 7.45-3.19 10.39-10.11 10.39-2.45 0-4.83-.55-6.83-1.16L3.86-.44C5.98.25 8.64.7 11.4.7c9.09 0 13.62-4.6 13.62-14.03 0-9.32-4.25-13.79-11.86-13.79zm0 0"/></symbol><symbol overflow="visible" id="acc60a47M"><path d="M16.3 0h3.86v-22.6h3.09l.4-3.85H2.28l-.44 3.84H16.3zm0 0"/></symbol><symbol overflow="visible" id="acc60a47N"><path d="M2.75 0h3.9l1.88-9.67c.72-3.77 1.35-4.56 3.27-4.94C15.25-9.94 18.53-5.08 21.67 0h4.52C23.64-4.1 21-8.1 18.27-11.95c3.54-.78 4.98-2.77 5.96-7.4l1.5-7.1h-3.9l-1.17 5.95c-.75 4-1.61 5.55-4.11 6.14a184.1 184.1 0 00-9.68-12.1H2.29c2.61 3 5.14 6.12 7.61 9.37-2.78.68-3.95 2.17-4.94 6.68zm0 0"/></symbol><symbol overflow="visible" id="acc60a47Q"><path d="M21.88-18.22c.9-5.17-1.54-8.23-6.86-8.23H4.4l-.91 3.84h10.6c3.53 0 4.43 1.67 3.84 4.88L14.83 0h3.87zm0 0"/></symbol><symbol overflow="visible" id="acc60a47R"><path d="M27.2-13.58c1.49-8.53-.75-13.33-7.93-13.33-1.1 0-2.33.24-3.13.46l-.94 3.82c.86-.25 2.13-.45 3.11-.45 5.33 0 6.1 3.4 5.03 9.5-1.23 7.11-4.09 10.63-9.7 10.63-5.62 0-7.23-3.52-5.98-10.63l2.26-12.87H6.06L3.81-13.6C2.23-4.61 4.95.69 13.14.69c8.63 0 12.53-5.42 14.06-14.27zm0 0"/></symbol><symbol overflow="visible" id="acc60a47S"><path d="M15.36-27.13c-6.53 0-10.92 2.94-11.84 8.6-.91 5.7 2.5 7.67 6.67 7.67 1.08 0 2-.14 2.81-.36l.81-3.36c-.81.22-1.67.36-2.81.36-2.64 0-4.23-1.2-3.66-4.31.64-3.34 3.24-4.86 7.63-4.86 5.22 0 7.51 2.73 6.26 10.05C19.98-5.9 16.61-2.95 10.22-2.95c-2.42 0-5.3-.77-7.17-1.58L1.78-1A20.5 20.5 0 009.88.69c8.84 0 13.54-4.6 15.2-14.03 1.6-9.32-2.47-13.79-9.72-13.79zm0 0"/></symbol><symbol overflow="visible" id="acc60a47T"><path d="M13.97 0h3.86l4-22.6h3.25l.9-3.85H4.41l-.91 3.84h14.47zm0 0"/></symbol><symbol overflow="visible" id="acc60a47U"><path d="M.4 0h4.05l3.57-9.67c1.42-3.86 2.04-4.6 4.14-4.96 2.7 4.66 5.26 9.55 7.48 14.63h4.22c-1.83-4.1-3.81-8.06-5.9-11.9 4.1-.7 5.54-2.58 7.37-7.35l2.73-7.2h-4.04l-2.18 5.87c-1.5 4.08-2.39 5.7-5.23 6.25-2.4-4.25-4.95-8.3-7.61-12.12H4.6a186.3 186.3 0 016.06 9.28c-3.11.64-4.38 1.97-6.18 6.64zm0 0"/></symbol><symbol overflow="visible" id="acc60a47V"><path d="M21.48-18.28c0-5.03-3.2-8.24-8.23-8.24H2.28l-.45 4.49h10.06c3.19 0 5.03 1.6 5.03 4.8V0h4.56zm0 0"/></symbol><symbol overflow="visible" id="acc60a47W"><path d="M27.3-13.58c0-8.9-3.02-13.39-9.83-13.39-.83 0-2.56.22-3.4.45l-.45 4.49c.83-.24 1.88-.45 2.93-.45 4.75 0 6.17 2.96 6.17 8.9 0 6.77-2.14 10.02-7.36 10.02C10.16-3.56 8-6.81 8-13.58v-12.94H3.42v12.94C3.42-4.66 6.82.7 15.22.7 23.64.69 27.3-4.9 27.3-13.58zm0 0"/></symbol><symbol overflow="visible" id="acc60a47X"><path d="M13.3-27.2c-6.53 0-10.78 3.06-10.78 8.68 0 5.72 3.51 7.82 7.59 7.82 1.4 0 2.55-.13 3.42-.46l.45-3.92c-.86.27-1.78.46-3.1.46-2.43 0-3.83-1.29-3.83-3.9 0-3.01 2.18-4.34 6.25-4.34 5.03 0 7.5 2.61 7.5 9.47 0 7.08-3.02 9.83-9.78 9.83-2.38 0-4.94-.55-6.77-1.14L3.8-.4C5.9.27 8.64.68 11.47.68c9.28 0 13.86-4.7 13.86-14.08 0-9.14-4.35-13.81-12.03-13.81zm0 0"/></symbol><symbol overflow="visible" id="acc60a47Y"><path d="M16.23 0h4.57v-22.03H24l.45-4.49H2.28l-.45 4.49h14.4zm0 0"/></symbol><symbol overflow="visible" id="acc60a47Z"><path d="M2.75 0h4.66l1.78-10.06c.64-3.58 1.1-4.22 2.7-4.56C15.31-9.98 18.61-5.1 21.72 0h5.34c-2.53-4.1-5.14-8.06-7.84-11.86 3.53-.8 4.87-2.81 5.87-7.53l1.52-7.13h-4.67l-1.05 5.68c-.75 4.09-1.47 5.76-3.6 6.28-3.1-4.22-6.27-8.22-9.57-11.96H2.28c2.52 2.86 5.02 5.88 7.44 9.04-2.67.65-3.8 2.12-4.74 6.65zm0 0"/></symbol><symbol overflow="visible" id="acc60a47ad"><path d="M22.27-17.83c.95-5.48-1.88-8.69-7.36-8.69H4.44l-1.05 4.49h10.5c3.2 0 4.3 1.6 3.7 4.8L14.58 0h4.58zm0 0"/></symbol><symbol overflow="visible" id="acc60a47ae"><path d="M27.34-13.58c1.55-8.9-1.15-13.39-7.95-13.39-1.28 0-2.39.22-3.2.45l-1.07 4.49a12.1 12.1 0 013.04-.45c4.75 0 5.65 2.96 4.6 8.9-1.18 6.77-3.89 10.02-9.09 10.02-5.22 0-6.81-3.25-5.62-10.02l2.28-12.94H5.77l-2.3 12.94C1.92-4.66 4.66.7 13.07.7c8.87 0 12.71-5.44 14.27-14.27zm0 0"/></symbol><symbol overflow="visible" id="acc60a47af"><path d="M15.45-27.2c-6.76 0-11.15 3.06-12.03 8.68-.86 5.72 2.61 7.77 6.69 7.77 1.23 0 2.28-.17 3.19-.45l.92-3.88c-.92.27-1.78.46-3.11.46-2.42 0-3.61-1.29-3.16-3.9.55-3.01 2.97-4.34 7.05-4.34 4.98 0 6.98 2.61 5.84 9.47-1.18 7.08-4.3 9.83-10.6 9.83-2.38 0-5.35-.88-7.08-1.61L1.69-1.05A20 20 0 009.92.7c9.14 0 13.85-4.7 15.46-14.08 1.54-9.14-2.52-13.81-9.93-13.81zm0 0"/></symbol><symbol overflow="visible" id="acc60a47ag"><path d="M13.9 0h4.57l3.89-22.03h3.37l1.05-4.49H4.44l-1.05 4.49h14.4zm0 0"/></symbol><symbol overflow="visible" id="acc60a47ah"><path d="M.4 0h4.82l3.56-10.06c1.25-3.61 1.83-4.22 3.47-4.56C14.95-9.98 17.48-5.1 19.7 0h5.03c-1.82-4.1-3.78-8.05-5.82-11.81 4.01-.74 5.45-2.61 7.28-7.44l2.75-7.27h-4.8l-2.06 5.68c-1.49 4.1-2.31 5.78-4.69 6.28-2.39-4.22-4.94-8.22-7.56-11.96H4.6c2.01 2.83 4 5.86 5.92 8.99-2.92.6-4.22 1.89-5.95 6.47zm0 0"/></symbol><symbol overflow="visible" id="acc60a47ai"><path d="M22.1-18.06c0-5.33-3.2-8.52-8.63-8.52H2.07l-.44 5.53h9.93c3.2 0 4.83 1.4 4.83 4.6V0h5.72zm0 0"/></symbol><symbol overflow="visible" id="acc60a47aj"><path d="M28.02-13.63c0-8.74-2.83-13.43-9.91-13.43-.94 0-2.77.25-3.6.48l-.45 5.45c.7-.2 1.74-.45 2.72-.45 4.3 0 5.6 2.63 5.6 8.05 0 6.12-1.94 9.05-6.7 9.05s-6.7-2.93-6.7-9.05v-13.05H3.27v13.25C3.27-4.45 7.02.7 15.55.7c8.51 0 12.47-5.33 12.47-14.31zm0 0"/></symbol><symbol overflow="visible" id="acc60a47ak"><path d="M13.58-27.3c-6.92 0-11.22 3.16-11.22 8.88 0 5.73 3.45 7.84 7.92 7.84 1.44 0 2.52-.12 3.36-.39l.47-4.37c-.77.23-1.56.37-2.7.37-2.18 0-3.43-1.08-3.43-3.31 0-2.6 1.99-3.75 5.6-3.75 4.64 0 6.83 2.39 6.83 8.6 0 6.41-2.74 8.95-9.24 8.95-2.58 0-4.9-.47-7.08-1.07L3.64-.39C5.87.28 8.66.69 11.8.69c9.64 0 14.26-4.83 14.26-14.16 0-9.05-4.3-13.83-12.48-13.83zm0 0"/></symbol><symbol overflow="visible" id="acc60a47al"><path d="M15.77 0h5.71v-21.05h3.25l.46-5.53H2.08l-.46 5.53h14.15zm0 0"/></symbol><symbol overflow="visible" id="acc60a47am"><path d="M2.42 0h5.64L9.7-9.81c.54-3.14.94-3.78 2.33-4.13C15.25-9.52 18.36-4.84 21.3 0h6.54c-2.54-4.1-5.12-8.1-7.82-11.95 3.62-.8 5.06-2.75 5.96-7.4l1.41-7.23h-5.62l-.93 5.45c-.64 3.9-1.23 5.43-3.1 5.96a166.32 166.32 0 00-9.1-11.4H1.97c2.53 2.88 5.05 5.96 7.47 9.15-2.78.73-4.02 2.34-4.9 6.9zm0 0"/></symbol><symbol overflow="visible" id="acc60a47aq"><path d="M22.83-17.53c1.01-5.69-1.8-9.05-7.61-9.05H4.28L3-21.05h10.3c3.2 0 4.23 1.4 3.64 4.6L14.06 0h5.7zm0 0"/></symbol><symbol overflow="visible" id="acc60a47ar"><path d="M28.06-13.63c1.52-8.74-.98-13.43-8.04-13.43-1.27 0-2.43.23-3.33.48l-1.28 5.45a10.7 10.7 0 012.8-.45c4.3 0 5.15 2.63 4.2 8.05-1.08 6.12-3.54 9.05-8.29 9.05-4.74 0-6.17-2.93-5.09-9.05l2.31-13.05H5.63L3.3-13.47C1.77-4.6 4.78.7 13.3.7c9.1 0 13.17-5.22 14.76-14.31zm0 0"/></symbol><symbol overflow="visible" id="acc60a47as"><path d="M15.7-27.3c-7.12 0-11.56 3.16-12.43 8.88-.86 5.73 2.56 7.81 6.92 7.81a12 12 0 003.19-.4l1.03-4.33c-.82.23-1.57.37-2.7.37-2.18 0-3.23-1.1-2.84-3.31.46-2.61 2.63-3.75 6.24-3.75 4.6 0 6.37 2.39 5.34 8.6-1.06 6.41-3.92 8.95-10 8.95-2.5 0-5.36-.75-7.32-1.54L1.48-1.05A21.87 21.87 0 0010.16.7c9.6 0 14.37-4.83 15.95-14.16 1.5-9.05-2.47-13.83-10.4-13.83zm0 0"/></symbol><symbol overflow="visible" id="acc60a47at"><path d="M13.42 0h5.7l3.74-21.05h3.37l1.29-5.53H4.28L3-21.05h14.14zm0 0"/></symbol><symbol overflow="visible" id="acc60a47au"><path d="M.1 0h5.8l3.35-9.81c1.1-3.14 1.58-3.78 3.03-4.13 2.53 4.42 4.9 9.1 7.02 13.94h6.22c-1.83-4.1-3.75-8.1-5.82-11.9 4.11-.74 5.68-2.57 7.4-7.35l2.63-7.33h-5.8l-1.85 5.45c-1.33 3.91-2.08 5.44-4.16 5.96-2.28-4.03-4.7-7.85-7.2-11.4h-6.4c2 2.87 4 5.93 5.91 9.1-3.1.67-4.5 2.16-6.21 6.77zm0 0"/></symbol><symbol overflow="visible" id="acc60a47av"><path d="M22.75-17.81c0-5.64-3.2-8.85-9.08-8.85H1.87l-.45 6.6h9.85c3.2 0 4.62 1.18 4.62 4.37V0h6.86zm0 0"/></symbol><symbol overflow="visible" id="acc60a47aw"><path d="M28.75-13.69c0-8.6-2.67-13.44-10.03-13.44-1.03 0-2.97.27-3.8.5l-.45 6.44c.6-.2 1.62-.45 2.56-.45 3.81 0 5 2.27 5 7.17 0 5.45-1.73 8.1-6.03 8.1-4.3 0-6.03-2.65-6.03-8.1v-13.19H3.1v13.61C3.1-4.25 7.2.7 15.84.7c8.64 0 12.91-5.05 12.91-14.38zm0 0"/></symbol><symbol overflow="visible" id="acc60a47ax"><path d="M13.84-27.36c-7.28 0-11.65 3.25-11.65 9.03 0 5.74 3.4 7.88 8.26 7.88 1.46 0 2.49-.11 3.33-.36l.44-4.78c-.67.18-1.33.3-2.28.3-1.92 0-3-.91-3-2.74 0-2.2 1.76-3.16 4.9-3.16 4.29 0 6.16 2.19 6.16 7.7 0 5.74-2.47 8.12-8.64 8.12-2.83 0-4.9-.44-7.42-1.05L3.47-.36C5.83.28 8.69.7 12.1.7c10 0 14.67-4.97 14.67-14.22 0-8.94-4.25-13.83-12.94-13.83zm0 0"/></symbol><symbol overflow="visible" id="acc60a47ay"><path d="M15.3 0h6.86v-20.06h3.3l.46-6.6H1.87l-.45 6.6H15.3zm0 0"/></symbol><symbol overflow="visible" id="acc60a47az"><path d="M2.13 0H8.7l1.52-9.53c.44-2.72.73-3.4 1.94-3.72C15.2-9.05 18.1-4.61 20.89 0h7.73a241.74 241.74 0 00-7.8-12.05c3.71-.78 5.21-2.67 6.04-7.25l1.3-7.36h-6.58l-.78 5.27c-.52 3.67-1.03 5.1-2.61 5.6-2.8-3.85-5.69-7.48-8.64-10.87H1.67c2.53 2.96 5.05 6.07 7.5 9.32-2.9.76-4.25 2.56-5.12 7.12zm0 0"/></symbol><symbol overflow="visible" id="acc60a47aB"><path d="M23.4-17.25c1.05-5.9-1.76-9.4-7.85-9.4H4.09l-1.51 6.59h10.1c3.21 0 4.2 1.18 3.6 4.37L13.53 0h6.86zm0 0"/></symbol><symbol overflow="visible" id="acc60a47aC"><path d="M28.8-13.69c1.47-8.6-.82-13.44-8.14-13.44-1.27 0-2.44.2-3.47.5l-1.5 6.4a9.6 9.6 0 012.6-.41c3.82 0 4.62 2.27 3.74 7.17-.95 5.45-3.12 8.1-7.42 8.1s-5.58-2.65-4.63-8.1l2.33-13.19H5.47L3.13-13.37C1.58-4.55 4.88.69 13.53.69c9.3 0 13.64-4.99 15.27-14.38zm0 0"/></symbol><symbol overflow="visible" id="acc60a47aD"><path d="M15.94-27.36c-7.49 0-11.99 3.25-12.86 9.03-.85 5.74 2.54 7.86 7.2 7.86 1.36 0 2.3-.15 3.16-.39l1.14-4.75c-.7.2-1.35.31-2.3.31-1.92 0-2.8-.95-2.5-2.78.35-2.17 2.28-3.1 5.44-3.1 4.19 0 5.76 2.18 4.84 7.7-.95 5.73-3.56 8.1-9.39 8.1-2.6 0-5.34-.64-7.54-1.5L1.27-1.03a23.63 23.63 0 009.1 1.72c10.1 0 14.92-4.97 16.45-14.22 1.47-8.94-2.4-13.83-10.9-13.83zm0 0"/></symbol><symbol overflow="visible" id="acc60a47aE"><path d="M12.94 0h6.86l3.54-20.06h3.43l1.51-6.6H4.1l-1.51 6.6h13.9zm0 0"/></symbol><symbol overflow="visible" id="acc60a47aF"><path d="M-.23 0H6.6l3.16-9.53c.9-2.75 1.3-3.4 2.54-3.72 2.36 4.2 4.61 8.64 6.56 13.25h7.4c-1.79-4.1-3.74-8.14-5.77-12 4.23-.73 5.9-2.53 7.5-7.22l2.52-7.44h-6.77l-1.67 5.27c-1.16 3.7-1.83 5.1-3.66 5.62-2.17-3.84-4.44-7.5-6.81-10.89H4c2.02 2.94 4 6.05 5.96 9.24-3.35.76-4.83 2.42-6.5 7.1zm0 0"/></symbol><symbol overflow="visible" id="acc60a47aG"><path d="M23.47-17.53c0-6.02-3.19-9.22-9.55-9.22H1.62l-.45 7.88h9.7c3.2 0 4.38.93 4.38 4.12V0h8.22zm0 0"/></symbol><symbol overflow="visible" id="acc60a47aH"><path d="M29.63-13.73c0-8.43-2.46-13.52-10.13-13.52-1.17 0-3.22.3-4.05.53L15-19.08a6.96 6.96 0 012.3-.47c3.28 0 4.32 1.86 4.32 6.13 0 4.69-1.48 6.95-5.23 6.95-3.75 0-5.23-2.26-5.23-6.95v-13.33H2.92v14C2.92-4 7.45.69 16.23.69c8.77 0 13.4-4.75 13.4-14.42zm0 0"/></symbol><symbol overflow="visible" id="acc60a47aI"><path d="M14.17-27.47c-7.75 0-12.15 3.36-12.15 9.25 0 5.77 3.3 7.9 8.65 7.9 1.49 0 2.42-.09 3.25-.26l.44-5.31c-.53.12-1.06.19-1.78.19-1.63 0-2.52-.66-2.52-2.07 0-1.65 1.5-2.43 4.11-2.43 3.81 0 5.38 1.93 5.38 6.67 0 4.94-2.16 7.06-8 7.06-3.07 0-4.88-.34-7.8-.95L3.3-.34C5.8.28 8.7.69 12.5.69c10.42 0 15.16-5.1 15.16-14.31 0-8.83-4.2-13.85-13.49-13.85zm0 0"/></symbol><symbol overflow="visible" id="acc60a47aJ"><path d="M14.75 0h8.22v-18.88h3.36l.45-7.87H1.62l-.45 7.88h13.58zm0 0"/></symbol><symbol overflow="visible" id="acc60a47aK"><path d="M1.73 0h7.79l1.3-9.23c.3-2.2.54-2.88 1.5-3.2C15.1-8.49 17.81-4.32 20.38 0h9.16a236.8 236.8 0 00-7.78-12.14c3.8-.8 5.43-2.61 6.17-7.11l1.15-7.5h-7.75l-.59 5.03c-.4 3.4-.75 4.69-2.03 5.19-2.61-3.61-5.3-7.02-8.06-10.22H1.28c2.58 3.03 5.1 6.2 7.55 9.47-3.02.87-4.53 2.81-5.33 7.45zm0 0"/></symbol><symbol overflow="visible" id="acc60a47aL"><path d="M24.1-16.9c1.09-6.15-1.68-9.85-8.16-9.85H3.9l-1.79 7.88h9.86c3.2 0 4.08.93 3.49 4.12L12.89 0h8.23zm0 0"/></symbol><symbol overflow="visible" id="acc60a47aM"><path d="M29.67-13.73c1.4-8.43-.62-13.52-8.23-13.52-1.28 0-2.52.2-3.66.53L16-19.12a7.18 7.18 0 012.38-.43c3.26 0 3.98 1.86 3.21 6.13-.8 4.69-2.68 6.95-6.43 6.95-3.75 0-4.8-2.26-3.99-6.95l2.36-13.33H5.3L2.95-13.23C1.42-4.5 5.03.69 13.81.69 23.4.69 28-4.01 29.67-13.73zm0 0"/></symbol><symbol overflow="visible" id="acc60a47aN"><path d="M16.23-27.47c-7.89 0-12.48 3.36-13.36 9.25-.84 5.77 2.52 7.9 7.5 7.9 1.44 0 2.29-.15 3.15-.3l1.26-5.29c-.56.14-1.06.2-1.8.2-1.62 0-2.3-.73-2.12-2.1.25-1.66 1.87-2.4 4.48-2.4 3.72 0 5.02 1.94 4.25 6.68-.82 4.94-3.14 7.06-8.67 7.06-2.73 0-5.34-.5-7.81-1.42L1.05-1.03A25.92 25.92 0 0010.62.69c10.72 0 15.6-5.1 17.1-14.31 1.42-8.83-2.34-13.85-11.49-13.85zm0 0"/></symbol><symbol overflow="visible" id="acc60a47aO"><path d="M12.36 0h8.23l3.35-18.88h3.42l1.78-7.87H3.91l-1.79 7.88H15.7zm0 0"/></symbol><symbol overflow="visible" id="acc60a47aP"><path d="M-.6 0h8.02l2.9-9.23c.73-2.2 1.04-2.88 2.02-3.2 2.18 3.95 4.2 8.12 6.04 12.43h8.82a165.6 165.6 0 00-5.76-12.1c4.37-.73 6.17-2.48 7.65-7.12l2.38-7.53H23.5l-1.42 5.03c-.99 3.45-1.55 4.72-3.02 5.22-2.03-3.6-4.15-7.05-6.37-10.25H3.66c2.01 3 4.03 6.16 5.93 9.42-3.53.83-5.14 2.7-6.78 7.44zm0 0"/></symbol></defs><use xlink:href="#acc60a47a" x="60.56161" y="156.14347"/><use xlink:href="#acc60a47b" x="83.87521" y="156.14347"/><use xlink:href="#acc60a47c" x="113.81281" y="156.14347"/><use xlink:href="#acc60a47d" x="141.01441" y="156.14347"/><use xlink:href="#acc60a47e" x="165.62401" y="156.14347"/><g fill-opacity=".33"><use xlink:href="#acc60a47f" x="73.12542" y="187.2869"/><use xlink:href="#acc60a47g" x="79.79242" y="187.2869"/><use xlink:href="#acc60a47h" x="86.45942" y="187.2869"/><use xlink:href="#acc60a47i" x="93.12642" y="187.2869"/><use xlink:href="#acc60a47j" x="99.79342" y="187.2869"/><use xlink:href="#acc60a47f" x="106.46042" y="187.2869"/><use xlink:href="#acc60a47k" x="113.12742" y="187.2869"/><use xlink:href="#acc60a47i" x="119.79442" y="187.2869"/><use xlink:href="#acc60a47j" x="126.46142" y="187.2869"/><use xlink:href="#acc60a47l" x="133.12842" y="187.2869"/><use xlink:href="#acc60a47m" x="139.79542" y="187.2869"/><use xlink:href="#acc60a47n" x="146.46242" y="187.2869"/><use xlink:href="#acc60a47o" x="153.12942" y="187.2869"/><use xlink:href="#acc60a47p" x="159.79642" y="187.2869"/><use xlink:href="#acc60a47q" x="166.46342" y="187.2869"/><use xlink:href="#acc60a47j" x="173.13042" y="187.2869"/></g><use xlink:href="#acc60a47r" x="307.64411" y="156.14347"/><use xlink:href="#acc60a47s" x="330.95771" y="156.14347"/><use xlink:href="#acc60a47t" x="360.94331" y="156.14347"/><use xlink:href="#acc60a47u" x="388.14491" y="156.14347"/><use xlink:href="#acc60a47v" x="412.75451" y="156.14347"/><g fill-opacity=".33"><use xlink:href="#acc60a47f" x="296.87458" y="187.2869"/><use xlink:href="#acc60a47g" x="303.54158" y="187.2869"/><use xlink:href="#acc60a47h" x="310.20858" y="187.2869"/><use xlink:href="#acc60a47i" x="316.87558" y="187.2869"/><use xlink:href="#acc60a47j" x="323.54258" y="187.2869"/><use xlink:href="#acc60a47f" x="330.20958" y="187.2869"/><use xlink:href="#acc60a47k" x="336.87658" y="187.2869"/><use xlink:href="#acc60a47i" x="343.54358" y="187.2869"/><use xlink:href="#acc60a47j" x="350.21058" y="187.2869"/><use xlink:href="#acc60a47l" x="356.87758" y="187.2869"/><use xlink:href="#acc60a47m" x="363.54458" y="187.2869"/><use xlink:href="#acc60a47n" x="370.21158" y="187.2869"/><use xlink:href="#acc60a47o" x="376.87858" y="187.2869"/><use xlink:href="#acc60a47p" x="383.54558" y="187.2869"/><use xlink:href="#acc60a47q" x="390.21258" y="187.2869"/><use xlink:href="#acc60a47j" x="396.87958" y="187.2869"/><use xlink:href="#acc60a47f" x="403.54658" y="187.2869"/><use xlink:href="#acc60a47w" x="410.21358" y="187.2869"/><use xlink:href="#acc60a47j" x="416.88058" y="187.2869"/><use xlink:href="#acc60a47m" x="423.54758" y="187.2869"/><use xlink:href="#acc60a47n" x="430.21458" y="187.2869"/><use xlink:href="#acc60a47o" x="436.88158" y="187.2869"/><use xlink:href="#acc60a47x" x="443.54858" y="187.2869"/></g><use xlink:href="#acc60a47y" x="59.39589" y="257.76227"/><use xlink:href="#acc60a47z" x="83.18949" y="257.76227"/><use xlink:href="#acc60a47A" x="113.19909" y="257.76227"/><use xlink:href="#acc60a47B" x="140.60709" y="257.76227"/><use xlink:href="#acc60a47C" x="165.90789" y="257.76227"/><g fill-opacity=".33"><use xlink:href="#acc60a47f" x="89.79208" y="288.9057"/><use xlink:href="#acc60a47g" x="96.45908" y="288.9057"/><use xlink:href="#acc60a47h" x="103.12608" y="288.9057"/><use xlink:href="#acc60a47i" x="109.79308" y="288.9057"/><use xlink:href="#acc60a47j" x="116.46008" y="288.9057"/><use xlink:href="#acc60a47f" x="123.12708" y="288.9057"/><use xlink:href="#acc60a47D" x="129.79408" y="288.9057"/><use xlink:href="#acc60a47o" x="136.46108" y="288.9057"/><use xlink:href="#acc60a47p" x="143.12808" y="288.9057"/><use xlink:href="#acc60a47q" x="149.79508" y="288.9057"/><use xlink:href="#acc60a47j" x="156.46208" y="288.9057"/></g><use xlink:href="#acc60a47E" x="306.46696" y="257.76227"/><use xlink:href="#acc60a47F" x="330.26056" y="257.76227"/><use xlink:href="#acc60a47G" x="360.29416" y="257.76227"/><use xlink:href="#acc60a47H" x="387.70216" y="257.76227"/><use xlink:href="#acc60a47I" x="413.00296" y="257.76227"/><g fill-opacity=".33"><use xlink:href="#acc60a47f" x="313.54125" y="288.9057"/><use xlink:href="#acc60a47g" x="320.20825" y="288.9057"/><use xlink:href="#acc60a47h" x="326.87525" y="288.9057"/><use xlink:href="#acc60a47i" x="333.54225" y="288.9057"/><use xlink:href="#acc60a47j" x="340.20925" y="288.9057"/><use xlink:href="#acc60a47f" x="346.87625" y="288.9057"/><use xlink:href="#acc60a47D" x="353.54325" y="288.9057"/><use xlink:href="#acc60a47o" x="360.21025" y="288.9057"/><use xlink:href="#acc60a47p" x="366.87725" y="288.9057"/><use xlink:href="#acc60a47q" x="373.54425" y="288.9057"/><use xlink:href="#acc60a47j" x="380.21125" y="288.9057"/><use xlink:href="#acc60a47f" x="386.87825" y="288.9057"/><use xlink:href="#acc60a47w" x="393.54525" y="288.9057"/><use xlink:href="#acc60a47j" x="400.21225" y="288.9057"/><use xlink:href="#acc60a47m" x="406.87925" y="288.9057"/><use xlink:href="#acc60a47n" x="413.54625" y="288.9057"/><use xlink:href="#acc60a47o" x="420.21325" y="288.9057"/><use xlink:href="#acc60a47x" x="426.88025" y="288.9057"/></g><use xlink:href="#acc60a47J" x="58.18446" y="359.38117"/><use xlink:href="#acc60a47K" x="82.48206" y="359.38117"/><use xlink:href="#acc60a47L" x="112.58766" y="359.38117"/><use xlink:href="#acc60a47M" x="140.24526" y="359.38117"/><use xlink:href="#acc60a47N" x="166.27086" y="359.38117"/><g fill-opacity=".33"><use xlink:href="#acc60a47f" x="83.12542" y="390.5246"/><use xlink:href="#acc60a47g" x="89.79242" y="390.5246"/><use xlink:href="#acc60a47h" x="96.45942" y="390.5246"/><use xlink:href="#acc60a47i" x="103.12642" y="390.5246"/><use xlink:href="#acc60a47j" x="109.79342" y="390.5246"/><use xlink:href="#acc60a47f" x="116.46042" y="390.5246"/><use xlink:href="#acc60a47O" x="123.12742" y="390.5246"/><use xlink:href="#acc60a47h" x="129.79442" y="390.5246"/><use xlink:href="#acc60a47p" x="136.46142" y="390.5246"/><use xlink:href="#acc60a47P" x="143.12842" y="390.5246"/><use xlink:href="#acc60a47n" x="149.79542" y="390.5246"/><use xlink:href="#acc60a47m" x="156.46242" y="390.5246"/><use xlink:href="#acc60a47l" x="163.12942" y="390.5246"/></g><use xlink:href="#acc60a47Q" x="305.27839" y="359.38117"/><use xlink:href="#acc60a47R" x="329.57599" y="359.38117"/><use xlink:href="#acc60a47S" x="359.68159" y="359.38117"/><use xlink:href="#acc60a47T" x="387.33919" y="359.38117"/><use xlink:href="#acc60a47U" x="413.36479" y="359.38117"/><g fill-opacity=".33"><use xlink:href="#acc60a47f" x="333.54125" y="390.5246"/><use xlink:href="#acc60a47g" x="340.20825" y="390.5246"/><use xlink:href="#acc60a47h" x="346.87525" y="390.5246"/><use xlink:href="#acc60a47i" x="353.54225" y="390.5246"/><use xlink:href="#acc60a47j" x="360.20925" y="390.5246"/><use xlink:href="#acc60a47f" x="366.87625" y="390.5246"/><use xlink:href="#acc60a47w" x="373.54325" y="390.5246"/><use xlink:href="#acc60a47j" x="380.21025" y="390.5246"/><use xlink:href="#acc60a47m" x="386.87725" y="390.5246"/><use xlink:href="#acc60a47n" x="393.54425" y="390.5246"/><use xlink:href="#acc60a47o" x="400.21125" y="390.5246"/><use xlink:href="#acc60a47x" x="406.87825" y="390.5246"/></g><use xlink:href="#acc60a47V" x="57.01875" y="460.99997"/><use xlink:href="#acc60a47W" x="81.79635" y="460.99997"/><use xlink:href="#acc60a47X" x="111.96915" y="460.99997"/><use xlink:href="#acc60a47Y" x="139.80915" y="460.99997"/><use xlink:href="#acc60a47Z" x="166.54995" y="460.99997"/><g fill-opacity=".33"><use xlink:href="#acc60a47f" x="86.45875" y="492.1434"/><use xlink:href="#acc60a47g" x="93.12575" y="492.1434"/><use xlink:href="#acc60a47h" x="99.79275" y="492.1434"/><use xlink:href="#acc60a47i" x="106.45975" y="492.1434"/><use xlink:href="#acc60a47j" x="113.12675" y="492.1434"/><use xlink:href="#acc60a47f" x="119.79375" y="492.1434"/><use xlink:href="#acc60a47aa" x="126.46075" y="492.1434"/><use xlink:href="#acc60a47h" x="133.12775" y="492.1434"/><use xlink:href="#acc60a47ab" x="139.79475" y="492.1434"/><use xlink:href="#acc60a47o" x="146.46175" y="492.1434"/><use xlink:href="#acc60a47P" x="153.12875" y="492.1434"/><use xlink:href="#acc60a47ac" x="159.79575" y="492.1434"/></g><use xlink:href="#acc60a47ad" x="304.10125" y="460.99997"/><use xlink:href="#acc60a47ae" x="328.87885" y="460.99997"/><use xlink:href="#acc60a47af" x="359.03245" y="460.99997"/><use xlink:href="#acc60a47ag" x="386.88205" y="460.99997"/><use xlink:href="#acc60a47ah" x="413.62765" y="460.99997"/><g fill-opacity=".33"><use xlink:href="#acc60a47f" x="310.20792" y="492.1434"/><use xlink:href="#acc60a47g" x="316.87492" y="492.1434"/><use xlink:href="#acc60a47h" x="323.54192" y="492.1434"/><use xlink:href="#acc60a47i" x="330.20892" y="492.1434"/><use xlink:href="#acc60a47j" x="336.87592" y="492.1434"/><use xlink:href="#acc60a47f" x="343.54292" y="492.1434"/><use xlink:href="#acc60a47aa" x="350.20992" y="492.1434"/><use xlink:href="#acc60a47h" x="356.87692" y="492.1434"/><use xlink:href="#acc60a47ab" x="363.54392" y="492.1434"/><use xlink:href="#acc60a47o" x="370.21092" y="492.1434"/><use xlink:href="#acc60a47P" x="376.87792" y="492.1434"/><use xlink:href="#acc60a47ac" x="383.54492" y="492.1434"/><use xlink:href="#acc60a47f" x="390.21192" y="492.1434"/><use xlink:href="#acc60a47w" x="396.87892" y="492.1434"/><use xlink:href="#acc60a47j" x="403.54592" y="492.1434"/><use xlink:href="#acc60a47m" x="410.21292" y="492.1434"/><use xlink:href="#acc60a47n" x="416.87992" y="492.1434"/><use xlink:href="#acc60a47o" x="423.54692" y="492.1434"/><use xlink:href="#acc60a47x" x="430.21392" y="492.1434"/></g><use xlink:href="#acc60a47ai" x="55.95589" y="562.61887"/><use xlink:href="#acc60a47aj" x="81.00709" y="562.61887"/><use xlink:href="#acc60a47ak" x="111.62629" y="562.61887"/><use xlink:href="#acc60a47al" x="140.03749" y="562.61887"/><use xlink:href="#acc60a47am" x="167.15269" y="562.61887"/><g fill-opacity=".33"><use xlink:href="#acc60a47f" x="79.79208" y="593.7623"/><use xlink:href="#acc60a47g" x="86.45908" y="593.7623"/><use xlink:href="#acc60a47h" x="93.12608" y="593.7623"/><use xlink:href="#acc60a47i" x="99.79308" y="593.7623"/><use xlink:href="#acc60a47j" x="106.46008" y="593.7623"/><use xlink:href="#acc60a47f" x="113.12708" y="593.7623"/><use xlink:href="#acc60a47an" x="119.79408" y="593.7623"/><use xlink:href="#acc60a47h" x="126.46108" y="593.7623"/><use xlink:href="#acc60a47ac" x="133.12808" y="593.7623"/><use xlink:href="#acc60a47o" x="139.79508" y="593.7623"/><use xlink:href="#acc60a47ao" x="146.46208" y="593.7623"/><use xlink:href="#acc60a47ap" x="153.12908" y="593.7623"/><use xlink:href="#acc60a47n" x="159.79608" y="593.7623"/><use xlink:href="#acc60a47ab" x="166.46308" y="593.7623"/></g><use xlink:href="#acc60a47aq" x="303.03839" y="562.61887"/><use xlink:href="#acc60a47ar" x="328.08959" y="562.61887"/><use xlink:href="#acc60a47as" x="358.70879" y="562.61887"/><use xlink:href="#acc60a47at" x="387.16799" y="562.61887"/><use xlink:href="#acc60a47au" x="414.28319" y="562.61887"/><g fill-opacity=".33"><use xlink:href="#acc60a47f" x="303.54125" y="593.7623"/><use xlink:href="#acc60a47g" x="310.20825" y="593.7623"/><use xlink:href="#acc60a47h" x="316.87525" y="593.7623"/><use xlink:href="#acc60a47i" x="323.54225" y="593.7623"/><use xlink:href="#acc60a47j" x="330.20925" y="593.7623"/><use xlink:href="#acc60a47f" x="336.87625" y="593.7623"/><use xlink:href="#acc60a47an" x="343.54325" y="593.7623"/><use xlink:href="#acc60a47h" x="350.21025" y="593.7623"/><use xlink:href="#acc60a47ac" x="356.87725" y="593.7623"/><use xlink:href="#acc60a47o" x="363.54425" y="593.7623"/><use xlink:href="#acc60a47ao" x="370.21125" y="593.7623"/><use xlink:href="#acc60a47ap" x="376.87825" y="593.7623"/><use xlink:href="#acc60a47n" x="383.54525" y="593.7623"/><use xlink:href="#acc60a47ab" x="390.21225" y="593.7623"/><use xlink:href="#acc60a47f" x="396.87925" y="593.7623"/><use xlink:href="#acc60a47w" x="403.54625" y="593.7623"/><use xlink:href="#acc60a47j" x="410.21325" y="593.7623"/><use xlink:href="#acc60a47m" x="416.88025" y="593.7623"/><use xlink:href="#acc60a47n" x="423.54725" y="593.7623"/><use xlink:href="#acc60a47o" x="430.21425" y="593.7623"/><use xlink:href="#acc60a47x" x="436.88125" y="593.7623"/></g><use xlink:href="#acc60a47av" x="54.85875" y="664.23767"/><use xlink:href="#acc60a47aw" x="80.20755" y="664.23767"/><use xlink:href="#acc60a47ax" x="111.31635" y="664.23767"/><use xlink:href="#acc60a47ay" x="140.31315" y="664.23767"/><use xlink:href="#acc60a47az" x="167.77395" y="664.23767"/><g fill-opacity=".33"><use xlink:href="#acc60a47f" x="93.12542" y="695.3811"/><use xlink:href="#acc60a47g" x="99.79242" y="695.3811"/><use xlink:href="#acc60a47h" x="106.45942" y="695.3811"/><use xlink:href="#acc60a47i" x="113.12642" y="695.3811"/><use xlink:href="#acc60a47j" x="119.79342" y="695.3811"/><use xlink:href="#acc60a47f" x="126.46042" y="695.3811"/><use xlink:href="#acc60a47aA" x="133.12742" y="695.3811"/><use xlink:href="#acc60a47ap" x="139.79442" y="695.3811"/><use xlink:href="#acc60a47n" x="146.46142" y="695.3811"/><use xlink:href="#acc60a47ab" x="153.12842" y="695.3811"/></g><use xlink:href="#acc60a47aB" x="301.94125" y="664.23767"/><use xlink:href="#acc60a47aC" x="327.29005" y="664.23767"/><use xlink:href="#acc60a47aD" x="358.39885" y="664.23767"/><use xlink:href="#acc60a47aE" x="387.39565" y="664.23767"/><g><use xlink:href="#acc60a47aF" x="414.85645" y="664.23767"/></g><g fill-opacity=".33"><use xlink:href="#acc60a47f" x="316.87458" y="695.3811"/><use xlink:href="#acc60a47g" x="323.54158" y="695.3811"/><use xlink:href="#acc60a47h" x="330.20858" y="695.3811"/><use xlink:href="#acc60a47i" x="336.87558" y="695.3811"/><use xlink:href="#acc60a47j" x="343.54258" y="695.3811"/><use xlink:href="#acc60a47f" x="350.20958" y="695.3811"/><use xlink:href="#acc60a47aA" x="356.87658" y="695.3811"/><use xlink:href="#acc60a47ap" x="363.54358" y="695.3811"/><use xlink:href="#acc60a47n" x="370.21058" y="695.3811"/><use xlink:href="#acc60a47ab" x="376.87758" y="695.3811"/><use xlink:href="#acc60a47f" x="383.54458" y="695.3811"/><use xlink:href="#acc60a47w" x="390.21158" y="695.3811"/><use xlink:href="#acc60a47j" x="396.87858" y="695.3811"/><use xlink:href="#acc60a47m" x="403.54558" y="695.3811"/><use xlink:href="#acc60a47n" x="410.21258" y="695.3811"/><use xlink:href="#acc60a47o" x="416.87958" y="695.3811"/><use xlink:href="#acc60a47x" x="423.54658" y="695.3811"/></g><g><use xlink:href="#acc60a47aG" x="53.59018" y="765.85657"/><use xlink:href="#acc60a47aH" x="79.26058" y="765.85657"/></g><g><use xlink:href="#acc60a47aI" x="110.93098" y="765.85657"/></g><g><use xlink:href="#acc60a47aJ" x="140.58538" y="765.85657"/></g><g><use xlink:href="#acc60a47aK" x="168.51178" y="765.85657"/></g><g fill-opacity=".33"><use xlink:href="#acc60a47f" x="76.45875" y="797"/><use xlink:href="#acc60a47g" x="83.12575" y="797"/><use xlink:href="#acc60a47h" x="89.79275" y="797"/><use xlink:href="#acc60a47i" x="96.45975" y="797"/><use xlink:href="#acc60a47j" x="103.12675" y="797"/><use xlink:href="#acc60a47f" x="109.79375" y="797"/><use xlink:href="#acc60a47k" x="116.46075" y="797"/><use xlink:href="#acc60a47i" x="123.12775" y="797"/><use xlink:href="#acc60a47j" x="129.79475" y="797"/><use xlink:href="#acc60a47l" x="136.46175" y="797"/><use xlink:href="#acc60a47m" x="143.12875" y="797"/><use xlink:href="#acc60a47ao" x="149.79575" y="797"/><use xlink:href="#acc60a47ap" x="156.46275" y="797"/><use xlink:href="#acc60a47n" x="163.12975" y="797"/><use xlink:href="#acc60a47ab" x="169.79675" y="797"/></g><g><use xlink:href="#acc60a47aL" x="300.69554" y="765.85657"/><use xlink:href="#acc60a47aM" x="326.36594" y="765.85657"/></g><g><use xlink:href="#acc60a47aN" x="357.98834" y="765.85657"/></g><g><use xlink:href="#acc60a47aO" x="387.64274" y="765.85657"/></g><g><use xlink:href="#acc60a47aP" x="415.56914" y="765.85657"/></g><g fill-opacity=".33"><use xlink:href="#acc60a47f" x="300.20792" y="797"/><use xlink:href="#acc60a47g" x="306.87492" y="797"/><use xlink:href="#acc60a47h" x="313.54192" y="797"/><use xlink:href="#acc60a47i" x="320.20892" y="797"/><use xlink:href="#acc60a47j" x="326.87592" y="797"/><use xlink:href="#acc60a47f" x="333.54292" y="797"/><use xlink:href="#acc60a47k" x="340.20992" y="797"/><use xlink:href="#acc60a47i" x="346.87692" y="797"/><use xlink:href="#acc60a47j" x="353.54392" y="797"/><use xlink:href="#acc60a47l" x="360.21092" y="797"/><use xlink:href="#acc60a47m" x="366.87792" y="797"/><use xlink:href="#acc60a47ao" x="373.54492" y="797"/><use xlink:href="#acc60a47ap" x="380.21192" y="797"/><use xlink:href="#acc60a47n" x="386.87892" y="797"/><use xlink:href="#acc60a47ab" x="393.54592" y="797"/><use xlink:href="#acc60a47f" x="400.21292" y="797"/><use xlink:href="#acc60a47w" x="406.87992" y="797"/><use xlink:href="#acc60a47j" x="413.54692" y="797"/><use xlink:href="#acc60a47m" x="420.21392" y="797"/><use xlink:href="#acc60a47n" x="426.88092" y="797"/><use xlink:href="#acc60a47o" x="433.54792" y="797"/><use xlink:href="#acc60a47x" x="440.21492" y="797"/></g></svg>