<?xml version='1.0' encoding='UTF-8'?>
<svg xmlns="http://www.w3.org/2000/svg" xmlns:xlink="http://www.w3.org/1999/xlink" width="600px" height="300px" viewBox="0 0 600 300" x="0px" y="0px" enable-background="new 0 0 600 300"><defs><symbol overflow="visible" id="6d1d0f15a"><path d="M45.03 0h7.08L31.39-54.1h-8.6L1.85 0h7.01l4.58-12.19H40.5zm-29.6-17.64l11.43-30.47h.34l11.32 30.47zm0 0"/></symbol><symbol overflow="visible" id="6d1d0f15b"><path d="M20.77-35.73v-25.99h-5.2l-10.12 3.9v4.87c3.13-1.07 6.32-2.2 9.44-3.28v20.5H4.31v4.87h23.53v-4.87zm0 0"/></symbol><symbol overflow="visible" id="6d1d0f15c"><path d="M40.34-27.02v-.37c6.25-1.4 9.49-5.38 9.49-12.88 0-8.45-4.72-13.82-17.3-13.82H8.43V0H32.5c12.72 0 18.63-5.25 18.63-14.14 0-8.33-4.24-11.66-10.79-12.88zm-7.97-21.4c7.52 0 10.91 2.97 10.91 9.3 0 6.01-3.39 9.37-10.9 9.37H15.05v-18.67zm.13 42.75H15.05v-18.67H32.5c8.03 0 12.08 2.67 12.08 9.37 0 6.7-4.05 9.3-12.08 9.3zm0 0"/></symbol><symbol overflow="visible" id="6d1d0f15d"><path d="M3.36-30.86h23.72v-4.83H11.2v-.28l6.97-4.75c5.83-3.92 8.9-6.78 8.9-12.73 0-5.33-3.65-9.02-11.23-9.02-8.18 0-11.39 4.61-12 10.58l5.41.58c.55-3.9 2.14-6.55 6.6-6.55 4 0 5.68 1.86 5.68 4.83 0 3.62-2.6 6.01-7.1 9.37L3.37-35.39zm0 0"/></symbol><symbol overflow="visible" id="6d1d0f15e"><path d="M29.8 1.14c13.48 0 21.4-6.55 23.26-18.2l-6.7-.53C44.46-8.7 39.58-4.77 29.8-4.77c-12 0-18.33-8.07-18.33-22.28 0-14.2 6.33-22.28 18.28-22.28 9.67 0 14.48 4.03 16.53 12.75l6.67-.48c-1.93-11.7-9.9-18.17-23.2-18.17-15.77 0-25.22 10.54-25.22 28.18s9.4 28.2 25.27 28.2zm0 0"/></symbol><symbol overflow="visible" id="6d1d0f15f"><path d="M15.28-30.1c8.14 0 12.56-3.15 12.56-8.95 0-5.4-4.26-7.28-8.15-7.39v-.23c3.6-.3 7.39-2.92 7.39-7.53 0-5.11-4.11-8.27-11.66-8.27-7.69 0-11.1 3.69-11.84 8.88l5.53.6c.53-3.12 2.31-5 6.31-5 3.9 0 6.06 1.27 6.06 4.35 0 3.28-2.51 5.06-7.73 5.06h-1.9v4.4h1.95c5.51 0 8.53.9 8.53 4.55 0 3.26-2.14 5.04-7.05 5.04-4.58 0-6.48-1.86-7.05-4.88l-5.53.61c.7 5.4 4.42 8.77 12.58 8.77zm0 0"/></symbol><symbol overflow="visible" id="6d1d0f15g"><path d="M3.83 0v-5.95H6.2v-.82H.45v.82h2.4V0zm0 0"/></symbol><symbol overflow="visible" id="6d1d0f15h"><path d="M5.75-2.23v-.43c0-1.6-.9-2.51-2.42-2.51S.87-4.16.87-2.48c0 1.71.91 2.62 2.5 2.62 1.43 0 2.07-.56 2.29-1.52l-.9-.09c-.18.61-.59.9-1.35.9-.94 0-1.52-.54-1.58-1.66zm-2.4-2.2c.93 0 1.43.5 1.48 1.55H1.84c.08-1.07.6-1.56 1.5-1.56zm0 0"/></symbol><symbol overflow="visible" id="6d1d0f15i"><path d="M1.83 0l1.42-2h.06l1.46 2H5.8L4-2.53l1.78-2.49H4.8L3.42-3.08h-.08l-1.4-1.94H.89l1.78 2.49L.84 0zm0 0"/></symbol><symbol overflow="visible" id="6d1d0f15j"><path d="M5.52-4.25v-.77H3.17v-1.56h-.81l-.14 1.56H.75v.77h1.47v2.4c0 1.3.48 1.94 1.84 1.94C4.6.1 5.14 0 5.55-.14L5.4-.91c-.32.13-.72.2-1.13.2-.8 0-1.1-.37-1.1-1.23v-2.31zm0 0"/></symbol><symbol overflow="visible" id="6d1d0f15k"><path d="M3.33-3.42c.47 0 .8-.27.8-.8 0-.51-.33-.8-.8-.8-.47 0-.8.29-.8.8 0 .53.33.8.8.8zm0 3.5c.47 0 .8-.27.8-.78 0-.53-.33-.82-.8-.82-.47 0-.8.29-.8.82 0 .51.33.78.8.78zm0 0"/></symbol><symbol overflow="visible" id="6d1d0f15m"><path d="M6.17 0L3.98-6.77h-1.3L.5 0h.97l.44-1.47h2.78L5.16 0zM3.28-5.94h.08l1.1 3.74H2.15zm0 0"/></symbol><symbol overflow="visible" id="6d1d0f15n"><path d="M4.22-6.77h-.86l-2.03.7v.87c.64-.17 1.26-.38 1.89-.55v4.9H1.03V0h4.9v-.86H4.21zm0 0"/></symbol><symbol overflow="visible" id="6d1d0f15o"><path d="M4.66-3.45c.76-.14 1.15-.67 1.15-1.57 0-1.07-.64-1.75-2.18-1.75H.92V0h2.71C5.2 0 5.98-.64 5.98-1.77c0-1.03-.56-1.43-1.32-1.59zM3.56-6c.9 0 1.31.4 1.31 1.13 0 .71-.4 1.14-1.3 1.14h-1.7V-6zM1.87-.75v-2.27H3.6c.97 0 1.44.33 1.44 1.13 0 .8-.47 1.14-1.44 1.14zm0 0"/></symbol><symbol overflow="visible" id="6d1d0f15p"><path d="M5.67 0v-.86H2.14V-.9L3.6-2c1.05-.83 2-1.68 2-2.91 0-1.19-.73-1.99-2.26-1.99-1.66 0-2.3 1.02-2.44 2.33l1 .08c.1-.92.42-1.58 1.44-1.58.87 0 1.26.44 1.26 1.24 0 .9-.8 1.53-1.96 2.53L.83-.81V0zm0 0"/></symbol><symbol overflow="visible" id="6d1d0f15q"><path d="M3.42.14C5.1.14 5.9-.69 6.11-2.17l-.95-.1C4.96-1.19 4.5-.69 3.44-.69c-1.27 0-1.81-.94-1.81-2.69s.54-2.7 1.8-2.7c1.09 0 1.5.49 1.73 1.58l.93-.1c-.21-1.46-.95-2.3-2.62-2.3C1.53-6.9.62-5.6.62-3.38c0 2.2.91 3.51 2.8 3.51zm0 0"/></symbol><symbol overflow="visible" id="6d1d0f15r"><path d="M3.25.14c1.58 0 2.53-.69 2.53-1.95 0-1.19-.92-1.56-1.6-1.61v-.05A1.6 1.6 0 005.6-5.12c0-1.13-.87-1.79-2.3-1.79-1.62 0-2.32.82-2.45 1.88l.97.06c.13-.69.52-1.1 1.47-1.1.86 0 1.35.32 1.35 1.05 0 .86-.6 1.2-1.66 1.2h-.49v.79h.54c1.12 0 1.78.25 1.78 1.14 0 .78-.46 1.22-1.55 1.22-1.06 0-1.48-.4-1.63-1.1l-.98.07C.75-.56 1.56.14 3.25.14zm0 0"/></symbol><symbol overflow="visible" id="6d1d0f15s"><path d="M5.95-6.77H1.1V0h.99v-2.92H5.3v-.77H2.08v-2.26h3.87zm0 0"/></symbol><symbol overflow="visible" id="6d1d0f15t"><path d="M2.83.14c.94 0 1.5-.39 1.81-.95h.08l.1.81h.76v-3.38c0-1.23-.69-1.8-2.13-1.8-1.43 0-2.03.65-2.18 1.6l.93.1c.11-.6.44-.93 1.22-.93.85 0 1.22.32 1.22 1.04v.34l-1.81.2C1.6-2.7 1.1-2.17 1.1-1.28c0 .92.64 1.42 1.72 1.42zm.25-.77c-.67 0-1.02-.28-1.02-.74 0-.44.28-.72 1-.82l1.58-.19v.41c0 .8-.6 1.34-1.56 1.34zm0 0"/></symbol><symbol overflow="visible" id="6d1d0f15u"><path d="M2.73.14c.9 0 1.43-.45 1.74-1.08h.06l.13.94h.8v-5.02h-.94v2.7c0 .98-.57 1.62-1.46 1.62-.75 0-1.1-.4-1.1-1.22v-3.1h-.93v3.32c0 1.17.55 1.84 1.7 1.84zm0 0"/></symbol><symbol overflow="visible" id="6d1d0f15v"><path d="M5.08-5.16c-.94 0-1.58.43-1.9 1.3h-.09l-.07-1.16H1.05v.77h1.1v3.48H.96V0h3.96v-.77H3.1v-1.46c0-1.36.6-2.05 1.83-2.05.4 0 .76.08 1.1.17l.15-.87c-.33-.11-.7-.18-1.11-.18zm0 0"/></symbol><symbol overflow="visible" id="6d1d0f15w"><path d="M3.42.14c1.61 0 2.56-.75 2.56-2 0-1.1-.67-1.6-1.95-1.86l-.97-.2c-.87-.17-1.23-.49-1.23-1.11 0-.7.54-1.11 1.5-1.11 1.06 0 1.51.34 1.69 1.23l.9-.09c-.17-1.28-.98-1.9-2.6-1.9C1.79-6.9.9-6.18.9-4.98c0 1.06.66 1.66 1.88 1.9l1.01.2c.85.17 1.25.4 1.25 1.09 0 .73-.6 1.16-1.6 1.16-1.07 0-1.66-.4-1.8-1.24l-.94.1C.83-.53 1.75.13 3.42.13zm0 0"/></symbol><symbol overflow="visible" id="6d1d0f15x"><path d="M2.06 1.9V-.84h.05c.28.58.8.97 1.77.97 1.5 0 2.2-.98 2.2-2.66 0-1.65-.7-2.64-2.19-2.64-.97 0-1.5.44-1.78 1.05h-.08l-.1-.9H1.1v6.9zm1.5-2.56c-1.06 0-1.53-.8-1.53-1.86 0-1.04.47-1.84 1.53-1.84 1.11 0 1.53.61 1.53 1.84 0 1.27-.42 1.86-1.53 1.86zm0 0"/></symbol><symbol overflow="visible" id="6d1d0f15y"><path d="M3.36.16c1.4 0 2.2-.6 2.2-1.57 0-.89-.54-1.22-1.47-1.39L3-3c-.67-.14-.86-.33-.86-.73 0-.5.4-.74 1.17-.74.83 0 1.19.27 1.27.8l.9-.05c-.12-1-.8-1.47-2.17-1.47-1.34 0-2.1.53-2.1 1.5 0 .81.45 1.22 1.52 1.44l1.04.2c.56.11.87.24.87.72 0 .52-.45.78-1.28.78-.95 0-1.36-.28-1.42-.87l-.9.06C1.07-.36 1.8.16 3.35.16zm0 0"/></symbol><symbol overflow="visible" id="6d1d0f15z"><path d="M3.34.14c1.43 0 2.13-.66 2.25-1.78l-.89-.1c-.1.7-.5 1.08-1.34 1.08-1.03 0-1.52-.64-1.52-1.84 0-1.23.47-1.86 1.52-1.86.84 0 1.23.36 1.34 1.08l.9-.1c-.13-1.09-.82-1.78-2.26-1.78-1.56 0-2.46.97-2.46 2.66 0 1.66.9 2.64 2.46 2.64zm0 0"/></symbol><symbol overflow="visible" id="6d1d0f15A"><path d="M3.58-5.81c.42 0 .72-.22.72-.67 0-.44-.3-.68-.72-.68-.44 0-.72.24-.72.68 0 .45.28.67.72.67zm.5.8H1.52v.76h1.6v3.48h-1.8V0h4.46v-.77h-1.7zm0 0"/></symbol><symbol overflow="visible" id="6d1d0f15B"><path d="M1.45-2.95c0 2.56 1.08 4.37 3.67 4.84l.11-.67C3.28.86 2.43-.75 2.43-2.95s.85-3.82 2.8-4.16l-.1-.69c-2.6.49-3.68 2.3-3.68 4.85zm0 0"/></symbol><symbol overflow="visible" id="6d1d0f15C"><path d="M1.45-7.1c1.96.33 2.8 1.94 2.8 4.15 0 2.2-.84 3.8-2.8 4.17l.11.67c2.58-.47 3.67-2.28 3.67-4.84 0-2.55-1.09-4.36-3.67-4.85zm0 0"/></symbol></defs><use xlink:href="#6d1d0f15a" x="174.0952" y="159" fill="#515151"/><use xlink:href="#6d1d0f15b" x="221.7905" y="159" fill="#fff"/><use xlink:href="#6d1d0f15c" x="252.2667" y="159" fill="#515151"/><use xlink:href="#6d1d0f15d" x="307.9619" y="159" fill="#fff"/><use xlink:href="#6d1d0f15e" x="338.4381" y="159" fill="#515151"/><use xlink:href="#6d1d0f15f" x="395.4286" y="159" fill="#fff"/><g fill="#fff"><use xlink:href="#6d1d0f15g" x="260" y="252"/><use xlink:href="#6d1d0f15h" x="266.667" y="252"/><use xlink:href="#6d1d0f15i" x="273.334" y="252"/><use xlink:href="#6d1d0f15j" x="280.001" y="252"/><use xlink:href="#6d1d0f15k" x="286.668" y="252"/><use xlink:href="#6d1d0f15l" x="293.335" y="252"/><use xlink:href="#6d1d0f15m" x="300.002" y="252"/><use xlink:href="#6d1d0f15n" x="306.669" y="252"/><use xlink:href="#6d1d0f15o" x="313.336" y="252"/><use xlink:href="#6d1d0f15p" x="320.003" y="252"/><use xlink:href="#6d1d0f15q" x="326.67" y="252"/><use xlink:href="#6d1d0f15r" x="333.337" y="252"/></g><g fill="#fff"><use xlink:href="#6d1d0f15s" x="210" y="266"/><use xlink:href="#6d1d0f15h" x="216.667" y="266"/><use xlink:href="#6d1d0f15t" x="223.334" y="266"/><use xlink:href="#6d1d0f15j" x="230.001" y="266"/><use xlink:href="#6d1d0f15u" x="236.668" y="266"/><use xlink:href="#6d1d0f15v" x="243.335" y="266"/><use xlink:href="#6d1d0f15h" x="250.002" y="266"/><use xlink:href="#6d1d0f15k" x="256.669" y="266"/><use xlink:href="#6d1d0f15l" x="263.336" y="266"/><use xlink:href="#6d1d0f15w" x="270.003" y="266"/><use xlink:href="#6d1d0f15u" x="276.67" y="266"/><use xlink:href="#6d1d0f15x" x="283.337" y="266"/><use xlink:href="#6d1d0f15h" x="290.004" y="266"/><use xlink:href="#6d1d0f15v" x="296.671" y="266"/><use xlink:href="#6d1d0f15y" x="303.338" y="266"/><use xlink:href="#6d1d0f15z" x="310.005" y="266"/><use xlink:href="#6d1d0f15v" x="316.672" y="266"/><use xlink:href="#6d1d0f15A" x="323.339" y="266"/><use xlink:href="#6d1d0f15x" x="330.006" y="266"/><use xlink:href="#6d1d0f15j" x="336.673" y="266"/><use xlink:href="#6d1d0f15l" x="343.34" y="266"/><use xlink:href="#6d1d0f15B" x="350.007" y="266"/><use xlink:href="#6d1d0f15y" x="356.674" y="266"/><use xlink:href="#6d1d0f15u" x="363.341" y="266"/><use xlink:href="#6d1d0f15x" x="370.008" y="266"/><use xlink:href="#6d1d0f15y" x="376.675" y="266"/><use xlink:href="#6d1d0f15C" x="383.342" y="266"/></g></svg>