<?xml version='1.0' encoding='UTF-8'?>
<svg xmlns="http://www.w3.org/2000/svg" xmlns:xlink="http://www.w3.org/1999/xlink" width="600px" height="300px" viewBox="0 0 600 300" x="0px" y="0px" enable-background="new 0 0 600 300"><defs><symbol overflow="visible" id="987681f7a"><path d="M21.14 1.14c6.6 0 10.7-2.97 13.4-8.19h.4l.9 7.05h5.41v-57.14h-6.47v23.58h-.34c-2.33-4.88-6.6-7.69-13.06-7.69-10.91 0-17.3 7.84-17.3 21.17 0 13.4 6.33 21.22 17.06 21.22zm1.38-5.64c-7.7 0-11.82-5.1-11.82-15.53 0-10.49 4.11-15.6 11.77-15.6 8.6 0 12.55 6.38 12.55 15.6 0 9.22-3.94 15.53-12.5 15.53zm0 0"/></symbol><symbol overflow="visible" id="987681f7b"><path d="M7.28 0h6.47v-21.98c0-7.93 4.95-13.1 11.47-13.1 1.56 0 2.86.22 3.76.45l.7-6.14a17.64 17.64 0 00-4.12-.48c-5.6 0-9.45 2.97-11.58 8.19h-.39l-.9-7.05h-5.4zm0 0"/></symbol><symbol overflow="visible" id="987681f7c"><path d="M21.3 1.14c6.39 0 10.6-3 13.25-8.19h.39l.9 7.05h5.41v-40.1h-5.4l-.91 6.54h-.4c-2.23-4.8-6.65-7.69-13-7.69-11.18 0-17.46 7.84-17.46 21.22 0 13.36 6.28 21.17 17.22 21.17zm1.45-5.64C14.7-4.5 10.7-9.6 10.7-20.03c0-10.49 4-15.6 12.05-15.6 8.22 0 12.27 6.41 12.27 15.6 0 9.17-4.05 15.53-12.27 15.53zm0 0"/></symbol><symbol overflow="visible" id="987681f7d"><path d="M23.28 16.1c12.45 0 17.97-6.88 17.97-19.33v-36.88h-5.4l-.91 7.05h-.4c-1.9-4.05-5.48-8.19-13-8.19-11.37 0-17.46 8.14-17.46 20.33C4.08-8.45 9.8-.42 21.53-.42c7.53 0 11.05-4.38 12.88-8.03h.37v5.22c0 9.3-3.28 13.78-11.5 13.78-7.25 0-9.98-2.9-10.86-7.24L5.82 4c.93 7.55 6.26 12.1 17.46 12.1zm-.66-22c-7.87 0-11.92-5.3-11.92-15.02 0-9.22 4.05-14.7 11.93-14.7 8.23 0 12.34 6.4 12.34 14.7 0 8-4.19 15.01-12.34 15.01zm0 0"/></symbol><symbol overflow="visible" id="987681f7e"><path d="M23.08 1.14c12.12 0 19.1-7.58 19.1-21.25 0-13.6-6.98-21.14-19.1-21.14-12.06 0-19 7.53-19 21.14 0 13.67 6.94 21.25 19 21.25zm0-5.6c-8.3 0-12.38-5.26-12.38-15.65 0-10.36 4.08-15.52 12.38-15.52 8.34 0 12.47 5.16 12.47 15.52 0 10.4-4.13 15.66-12.47 15.66zm0 0"/></symbol><symbol overflow="visible" id="987681f7f"><path d="M7.28 0h6.47v-21.94c0-8.04 5.19-13.37 12.19-13.37 6.03 0 8.87 3.39 8.87 10.33V0h6.49v-26.9c0-9.26-4.7-14.35-13.46-14.35-6.8 0-11.2 3.42-13.86 8.19h-.39l-.9-7.05h-5.4zm0 0"/></symbol><symbol overflow="visible" id="987681f7g"><path d="M3.83 0v-5.95H6.2v-.82H.45v.82h2.4V0zm0 0"/></symbol><symbol overflow="visible" id="987681f7h"><path d="M5.75-2.23v-.43c0-1.6-.9-2.51-2.42-2.51S.87-4.16.87-2.48c0 1.71.91 2.62 2.5 2.62 1.43 0 2.07-.56 2.29-1.52l-.9-.09c-.18.61-.59.9-1.35.9-.94 0-1.52-.54-1.58-1.66zm-2.4-2.2c.93 0 1.43.5 1.48 1.55H1.84c.08-1.07.6-1.56 1.5-1.56zm0 0"/></symbol><symbol overflow="visible" id="987681f7i"><path d="M1.83 0l1.42-2h.06l1.46 2H5.8L4-2.53l1.78-2.49H4.8L3.42-3.08h-.08l-1.4-1.94H.89l1.78 2.49L.84 0zm0 0"/></symbol><symbol overflow="visible" id="987681f7j"><path d="M5.52-4.25v-.77H3.17v-1.56h-.81l-.14 1.56H.75v.77h1.47v2.4c0 1.3.48 1.94 1.84 1.94C4.6.1 5.14 0 5.55-.14L5.4-.91c-.32.13-.72.2-1.13.2-.8 0-1.1-.37-1.1-1.23v-2.31zm0 0"/></symbol><symbol overflow="visible" id="987681f7k"><path d="M3.33-3.42c.47 0 .8-.27.8-.8 0-.51-.33-.8-.8-.8-.47 0-.8.29-.8.8 0 .53.33.8.8.8zm0 3.5c.47 0 .8-.27.8-.78 0-.53-.33-.82-.8-.82-.47 0-.8.29-.8.82 0 .51.33.78.8.78zm0 0"/></symbol><symbol overflow="visible" id="987681f7m"><path d="M2.84.14C3.8.14 4.33-.26 4.6-.9h.07L4.8 0h.76v-7.14h-.95v2.95h-.08c-.28-.6-.86-.97-1.67-.97-1.48 0-2.27.99-2.27 2.64C.6-.84 1.36.14 2.84.14zm.22-.8c-.98 0-1.48-.59-1.48-1.84s.5-1.86 1.48-1.86c1.13 0 1.58.8 1.58 1.86S4.2-.66 3.06-.66zm0 0"/></symbol><symbol overflow="visible" id="987681f7n"><path d="M5.08-5.16c-.94 0-1.58.43-1.9 1.3h-.09l-.07-1.16H1.05v.77h1.1v3.48H.96V0h3.96v-.77H3.1v-1.46c0-1.36.6-2.05 1.83-2.05.4 0 .76.08 1.1.17l.15-.87c-.33-.11-.7-.18-1.11-.18zm0 0"/></symbol><symbol overflow="visible" id="987681f7o"><path d="M2.83.14c.94 0 1.5-.39 1.81-.95h.08l.1.81h.76v-3.38c0-1.23-.69-1.8-2.13-1.8-1.43 0-2.03.65-2.18 1.6l.93.1c.11-.6.44-.93 1.22-.93.85 0 1.22.32 1.22 1.04v.34l-1.81.2C1.6-2.7 1.1-2.17 1.1-1.28c0 .92.64 1.42 1.72 1.42zm.25-.77c-.67 0-1.02-.28-1.02-.74 0-.44.28-.72 1-.82l1.58-.19v.41c0 .8-.6 1.34-1.56 1.34zm0 0"/></symbol><symbol overflow="visible" id="987681f7p"><path d="M3.16 2.03c1.67 0 2.4-.86 2.4-2.51v-4.54h-.81l-.13.91h-.06c-.26-.58-.8-1.05-1.73-1.05-1.42 0-2.24 1-2.24 2.52 0 1.6.75 2.56 2.2 2.56.94 0 1.5-.5 1.77-1.03h.05v.72c0 1.17-.42 1.67-1.45 1.67-.93 0-1.3-.34-1.41-.89L.8.5c.12.96.87 1.54 2.36 1.54zM3.06-.8c-.98 0-1.48-.57-1.48-1.82 0-1.13.5-1.75 1.48-1.75 1.06 0 1.58.76 1.58 1.75 0 .95-.56 1.82-1.58 1.82zm0 0"/></symbol><symbol overflow="visible" id="987681f7q"><path d="M3.33.14c1.62 0 2.5-.95 2.5-2.66 0-1.68-.88-2.64-2.5-2.64-1.63 0-2.5.96-2.5 2.64 0 1.7.87 2.66 2.5 2.66zm0-.77c-1.06 0-1.52-.6-1.52-1.89 0-1.28.46-1.87 1.52-1.87 1.08 0 1.53.6 1.53 1.87 0 1.29-.45 1.9-1.53 1.9zm0 0"/></symbol><symbol overflow="visible" id="987681f7r"><path d="M2.16 0v-2.67c0-.99.59-1.63 1.46-1.63.74 0 1.07.38 1.07 1.22V0h.95v-3.31c0-1.2-.56-1.85-1.67-1.85-.92 0-1.49.46-1.77 1.08h-.06l-.12-.94H1.2V0zm0 0"/></symbol><symbol overflow="visible" id="987681f7s"><path d="M5.95-6.77H1.1V0h.99v-2.92H5.3v-.77H2.08v-2.26h3.87zm0 0"/></symbol><symbol overflow="visible" id="987681f7t"><path d="M2.73.14c.9 0 1.43-.45 1.74-1.08h.06l.13.94h.8v-5.02h-.94v2.7c0 .98-.57 1.62-1.46 1.62-.75 0-1.1-.4-1.1-1.22v-3.1h-.93v3.32c0 1.17.55 1.84 1.7 1.84zm0 0"/></symbol><symbol overflow="visible" id="987681f7u"><path d="M6.17 0L3.98-6.77h-1.3L.5 0h.97l.44-1.47h2.78L5.16 0zM3.28-5.94h.08l1.1 3.74H2.15zm0 0"/></symbol><symbol overflow="visible" id="987681f7v"><path d="M3.92-7.14H1.36v.76h1.6v5.61H1.15V0H5.7v-.77H3.92zm0 0"/></symbol><symbol overflow="visible" id="987681f7w"><path d="M3.58-5.81c.42 0 .72-.22.72-.67 0-.44-.3-.68-.72-.68-.44 0-.72.24-.72.68 0 .45.28.67.72.67zm.5.8H1.52v.76h1.6v3.48h-1.8V0h4.46v-.77h-1.7zm0 0"/></symbol><symbol overflow="visible" id="987681f7x"><path d="M3.9 0l2-5.02h-.96L3.4-.94h-.07L1.8-5.02H.77L2.78 0zm0 0"/></symbol><symbol overflow="visible" id="987681f7y"><path d="M4.63-6.5c.45 0 .98.08 1.39.2l.2-.72a5.3 5.3 0 00-1.64-.26c-1.52 0-2.16.56-2.16 1.87v.4H.9v.76h1.53V0h.94v-4.25h2.53v-.77H3.36v-.3c0-.84.33-1.18 1.27-1.18zm0 0"/></symbol><symbol overflow="visible" id="987681f7z"><path d="M1.63 0v-2.9c0-.8.15-1.4.71-1.4.41 0 .55.3.55.88V0h.95v-2.9c0-.8.18-1.4.72-1.4.4 0 .57.3.57.88V0h.95v-3.63c0-.92-.28-1.53-1.11-1.53-.63 0-.95.41-1.1.9h-.06c-.1-.52-.44-.9-1.08-.9-.6 0-.93.41-1.06.9H1.6l-.23-.76H.67V0zm0 0"/></symbol><symbol overflow="visible" id="987681f7A"><path d="M3.38-5.9c.12-.5.42-1.04.67-1.41l-.63-.22a4.28 4.28 0 00-1.01 2.39c0 .66.3 1 .9 1 .6 0 .9-.33.9-.9 0-.57-.32-.83-.83-.85zm0 0"/></symbol><symbol overflow="visible" id="987681f7B"><path d="M3.3-7.53c-.55 0-.85.3-.85.84 0 .55.36.8.83.8h.03a5.1 5.1 0 01-.69 1.47l.52.23a4.29 4.29 0 001.02-2.4c0-.63-.33-.94-.86-.94zm0 0"/></symbol><symbol overflow="visible" id="987681f7C"><path d="M1.45-2.95c0 2.56 1.08 4.37 3.67 4.84l.11-.67C3.28.86 2.43-.75 2.43-2.95s.85-3.82 2.8-4.16l-.1-.69c-2.6.49-3.68 2.3-3.68 4.85zm0 0"/></symbol><symbol overflow="visible" id="987681f7D"><path d="M3.36.16c1.4 0 2.2-.6 2.2-1.57 0-.89-.54-1.22-1.47-1.39L3-3c-.67-.14-.86-.33-.86-.73 0-.5.4-.74 1.17-.74.83 0 1.19.27 1.27.8l.9-.05c-.12-1-.8-1.47-2.17-1.47-1.34 0-2.1.53-2.1 1.5 0 .81.45 1.22 1.52 1.44l1.04.2c.56.11.87.24.87.72 0 .52-.45.78-1.28.78-.95 0-1.36-.28-1.42-.87l-.9.06C1.07-.36 1.8.16 3.35.16zm0 0"/></symbol><symbol overflow="visible" id="987681f7E"><path d="M3.33.14c1.65 0 2.6-1.1 2.6-3.52S4.99-6.9 3.34-6.9C1.67-6.9.72-5.8.72-3.37c0 2.4.95 3.51 2.6 3.51zm0-.84c-1.13 0-1.6-.85-1.6-2.67 0-1.86.47-2.7 1.6-2.7 1.12 0 1.6.84 1.6 2.7 0 1.82-.48 2.67-1.6 2.67zM3.3-2.64c.38 0 .56-.28.56-.72 0-.44-.18-.7-.56-.7-.39 0-.56.26-.56.7 0 .44.17.72.56.72zm0 0"/></symbol><symbol overflow="visible" id="987681f7F"><path d="M5.67 0v-.86H2.14V-.9L3.6-2c1.05-.83 2-1.68 2-2.91 0-1.19-.73-1.99-2.26-1.99-1.66 0-2.3 1.02-2.44 2.33l1 .08c.1-.92.42-1.58 1.44-1.58.87 0 1.26.44 1.26 1.24 0 .9-.8 1.53-1.96 2.53L.83-.81V0zm0 0"/></symbol><symbol overflow="visible" id="987681f7G"><path d="M1.45-7.1c1.96.33 2.8 1.94 2.8 4.15 0 2.2-.84 3.8-2.8 4.17l.11.67c2.58-.47 3.67-2.28 3.67-4.84 0-2.55-1.09-4.36-3.67-4.85zm0 0"/></symbol></defs><g fill="#515151"><use xlink:href="#987681f7a" x="164.781" y="159"/><use xlink:href="#987681f7b" x="213.317" y="159"/></g><use xlink:href="#987681f7c" x="244.1333" y="159" fill="#fff"/><g fill="#515151"><use xlink:href="#987681f7d" x="292.6667" y="159"/><use xlink:href="#987681f7e" x="341.2027" y="159"/><use xlink:href="#987681f7f" x="387.4187" y="159"/></g><g fill="#fff"><use xlink:href="#987681f7g" x="260" y="252"/><use xlink:href="#987681f7h" x="266.667" y="252"/><use xlink:href="#987681f7i" x="273.334" y="252"/><use xlink:href="#987681f7j" x="280.001" y="252"/><use xlink:href="#987681f7k" x="286.668" y="252"/><use xlink:href="#987681f7l" x="293.335" y="252"/><use xlink:href="#987681f7m" x="300.002" y="252"/><use xlink:href="#987681f7n" x="306.669" y="252"/><use xlink:href="#987681f7o" x="313.336" y="252"/><use xlink:href="#987681f7p" x="320.003" y="252"/><use xlink:href="#987681f7q" x="326.67" y="252"/><use xlink:href="#987681f7r" x="333.337" y="252"/></g><g fill="#fff"><use xlink:href="#987681f7s" x="170" y="266"/><use xlink:href="#987681f7h" x="176.667" y="266"/><use xlink:href="#987681f7o" x="183.334" y="266"/><use xlink:href="#987681f7j" x="190.001" y="266"/><use xlink:href="#987681f7t" x="196.668" y="266"/><use xlink:href="#987681f7n" x="203.335" y="266"/><use xlink:href="#987681f7h" x="210.002" y="266"/><use xlink:href="#987681f7k" x="216.669" y="266"/><use xlink:href="#987681f7l" x="223.336" y="266"/><use xlink:href="#987681f7u" x="230.003" y="266"/><use xlink:href="#987681f7v" x="236.67" y="266"/><use xlink:href="#987681f7j" x="243.337" y="266"/><use xlink:href="#987681f7h" x="250.004" y="266"/><use xlink:href="#987681f7n" x="256.671" y="266"/><use xlink:href="#987681f7r" x="263.338" y="266"/><use xlink:href="#987681f7o" x="270.005" y="266"/><use xlink:href="#987681f7j" x="276.672" y="266"/><use xlink:href="#987681f7w" x="283.339" y="266"/><use xlink:href="#987681f7x" x="290.006" y="266"/><use xlink:href="#987681f7h" x="296.673" y="266"/><use xlink:href="#987681f7l" x="303.34" y="266"/><use xlink:href="#987681f7y" x="310.007" y="266"/><use xlink:href="#987681f7q" x="316.674" y="266"/><use xlink:href="#987681f7n" x="323.341" y="266"/><use xlink:href="#987681f7z" x="330.008" y="266"/><use xlink:href="#987681f7l" x="336.675" y="266"/><use xlink:href="#987681f7q" x="343.342" y="266"/><use xlink:href="#987681f7y" x="350.009" y="266"/><use xlink:href="#987681f7l" x="356.676" y="266"/><use xlink:href="#987681f7A" x="363.343" y="266"/><use xlink:href="#987681f7o" x="370.01" y="266"/><use xlink:href="#987681f7B" x="376.677" y="266"/><use xlink:href="#987681f7l" x="383.344" y="266"/><use xlink:href="#987681f7C" x="390.011" y="266"/><use xlink:href="#987681f7D" x="396.678" y="266"/><use xlink:href="#987681f7D" x="403.345" y="266"/><use xlink:href="#987681f7E" x="410.012" y="266"/><use xlink:href="#987681f7F" x="416.679" y="266"/><use xlink:href="#987681f7G" x="423.346" y="266"/></g></svg>