<?xml version='1.0' encoding='UTF-8'?>
<svg xmlns="http://www.w3.org/2000/svg" xmlns:xlink="http://www.w3.org/1999/xlink" width="600px" height="300px" viewBox="0 0 600 300" x="0px" y="0px" enable-background="new 0 0 600 300"><defs><symbol overflow="visible" id="228e4cbca"><path d="M8.42 0h6.74v-54.1H8.42zm0 0"/></symbol><symbol overflow="visible" id="228e4cbcb"><path d="M17.4.92c2.1 0 4.43-.5 5.5-.89l-.7-5.14c-.82.24-2.12.47-3.34.47-3.5 0-5.19-1.27-5.19-5.38v-47.12H7.2v47.5C7.2-2.47 10.55.92 17.4.92zm0 0"/></symbol><symbol overflow="visible" id="228e4cbcc"><path d="M10.52-46.94c2.59 0 4.45-1.37 4.45-4.34 0-2.97-1.86-4.3-4.45-4.3-2.68 0-4.46 1.33-4.46 4.3 0 2.97 1.78 4.34 4.46 4.34zM7.28 0h6.47v-40.1H7.28zm0 0"/></symbol><symbol overflow="visible" id="228e4cbcd"><path d="M7.28 0h6.47v-21.94c0-8.04 5.19-13.37 12.19-13.37 6.03 0 8.87 3.39 8.87 10.33V0h6.49v-26.9c0-9.26-4.7-14.35-13.46-14.35-6.8 0-11.2 3.42-13.86 8.19h-.39l-.9-7.05h-5.4zm0 0"/></symbol><symbol overflow="visible" id="228e4cbce"><path d="M23.08 1.14c12.12 0 19.1-7.58 19.1-21.25 0-13.6-6.98-21.14-19.1-21.14-12.06 0-19 7.53-19 21.14 0 13.67 6.94 21.25 19 21.25zm0-5.6c-8.3 0-12.38-5.26-12.38-15.65 0-10.36 4.08-15.52 12.38-15.52 8.34 0 12.47 5.16 12.47 15.52 0 10.4-4.13 15.66-12.47 15.66zm0 0"/></symbol><symbol overflow="visible" id="228e4cbcf"><path d="M20.31 1.14c9.9 0 15.85-4.56 15.85-12.53 0-6.7-4.13-9.38-12.32-11.16l-5.43-1.18c-4.85-1.04-6.94-2.6-6.94-6.1 0-4.19 2.89-6.25 8.45-6.25 5.88 0 8.77 2.1 9.22 6.94l6.4-.53c-.6-7.9-5.71-11.74-15.54-11.74-9.3 0-14.86 4.2-14.86 12.2 0 6.4 3.97 9.59 11.9 11.27l5.29 1.1c5.03 1.03 7.47 2.25 7.47 6.21 0 4.11-3.55 6.47-9.38 6.47-6.51 0-9.98-2.3-10.7-7.46l-6.4.54c.68 8 5.98 12.22 17 12.22zm0 0"/></symbol><symbol overflow="visible" id="228e4cbcg"><path d="M3.83 0v-5.95H6.2v-.82H.45v.82h2.4V0zm0 0"/></symbol><symbol overflow="visible" id="228e4cbch"><path d="M5.75-2.23v-.43c0-1.6-.9-2.51-2.42-2.51S.87-4.16.87-2.48c0 1.71.91 2.62 2.5 2.62 1.43 0 2.07-.56 2.29-1.52l-.9-.09c-.18.61-.59.9-1.35.9-.94 0-1.52-.54-1.58-1.66zm-2.4-2.2c.93 0 1.43.5 1.48 1.55H1.84c.08-1.07.6-1.56 1.5-1.56zm0 0"/></symbol><symbol overflow="visible" id="228e4cbci"><path d="M1.83 0l1.42-2h.06l1.46 2H5.8L4-2.53l1.78-2.49H4.8L3.42-3.08h-.08l-1.4-1.94H.89l1.78 2.49L.84 0zm0 0"/></symbol><symbol overflow="visible" id="228e4cbcj"><path d="M5.52-4.25v-.77H3.17v-1.56h-.81l-.14 1.56H.75v.77h1.47v2.4c0 1.3.48 1.94 1.84 1.94C4.6.1 5.14 0 5.55-.14L5.4-.91c-.32.13-.72.2-1.13.2-.8 0-1.1-.37-1.1-1.23v-2.31zm0 0"/></symbol><symbol overflow="visible" id="228e4cbck"><path d="M3.33-3.42c.47 0 .8-.27.8-.8 0-.51-.33-.8-.8-.8-.47 0-.8.29-.8.8 0 .53.33.8.8.8zm0 3.5c.47 0 .8-.27.8-.78 0-.53-.33-.82-.8-.82-.47 0-.8.29-.8.82 0 .51.33.78.8.78zm0 0"/></symbol><symbol overflow="visible" id="228e4cbcm"><path d="M3.83-5.97h1.73v-.8H1.1v.8h1.75v5.19H1.1V0h4.47v-.78H3.83zm0 0"/></symbol><symbol overflow="visible" id="228e4cbcn"><path d="M3.92-7.14H1.36v.76h1.6v5.61H1.15V0H5.7v-.77H3.92zm0 0"/></symbol><symbol overflow="visible" id="228e4cbco"><path d="M3.58-5.81c.42 0 .72-.22.72-.67 0-.44-.3-.68-.72-.68-.44 0-.72.24-.72.68 0 .45.28.67.72.67zm.5.8H1.52v.76h1.6v3.48h-1.8V0h4.46v-.77h-1.7zm0 0"/></symbol><symbol overflow="visible" id="228e4cbcp"><path d="M2.16 0v-2.67c0-.99.59-1.63 1.46-1.63.74 0 1.07.38 1.07 1.22V0h.95v-3.31c0-1.2-.56-1.85-1.67-1.85-.92 0-1.49.46-1.77 1.08h-.06l-.12-.94H1.2V0zm0 0"/></symbol><symbol overflow="visible" id="228e4cbcq"><path d="M3.33.14c1.62 0 2.5-.95 2.5-2.66 0-1.68-.88-2.64-2.5-2.64-1.63 0-2.5.96-2.5 2.64 0 1.7.87 2.66 2.5 2.66zm0-.77c-1.06 0-1.52-.6-1.52-1.89 0-1.28.46-1.87 1.52-1.87 1.08 0 1.53.6 1.53 1.87 0 1.29-.45 1.9-1.53 1.9zm0 0"/></symbol><symbol overflow="visible" id="228e4cbcr"><path d="M3.36.16c1.4 0 2.2-.6 2.2-1.57 0-.89-.54-1.22-1.47-1.39L3-3c-.67-.14-.86-.33-.86-.73 0-.5.4-.74 1.17-.74.83 0 1.19.27 1.27.8l.9-.05c-.12-1-.8-1.47-2.17-1.47-1.34 0-2.1.53-2.1 1.5 0 .81.45 1.22 1.52 1.44l1.04.2c.56.11.87.24.87.72 0 .52-.45.78-1.28.78-.95 0-1.36-.28-1.42-.87l-.9.06C1.07-.36 1.8.16 3.35.16zm0 0"/></symbol><symbol overflow="visible" id="228e4cbcs"><path d="M5.95-6.77H1.1V0h.99v-2.92H5.3v-.77H2.08v-2.26h3.87zm0 0"/></symbol><symbol overflow="visible" id="228e4cbct"><path d="M2.83.14c.94 0 1.5-.39 1.81-.95h.08l.1.81h.76v-3.38c0-1.23-.69-1.8-2.13-1.8-1.43 0-2.03.65-2.18 1.6l.93.1c.11-.6.44-.93 1.22-.93.85 0 1.22.32 1.22 1.04v.34l-1.81.2C1.6-2.7 1.1-2.17 1.1-1.28c0 .92.64 1.42 1.72 1.42zm.25-.77c-.67 0-1.02-.28-1.02-.74 0-.44.28-.72 1-.82l1.58-.19v.41c0 .8-.6 1.34-1.56 1.34zm0 0"/></symbol><symbol overflow="visible" id="228e4cbcu"><path d="M2.73.14c.9 0 1.43-.45 1.74-1.08h.06l.13.94h.8v-5.02h-.94v2.7c0 .98-.57 1.62-1.46 1.62-.75 0-1.1-.4-1.1-1.22v-3.1h-.93v3.32c0 1.17.55 1.84 1.7 1.84zm0 0"/></symbol><symbol overflow="visible" id="228e4cbcv"><path d="M5.08-5.16c-.94 0-1.58.43-1.9 1.3h-.09l-.07-1.16H1.05v.77h1.1v3.48H.96V0h3.96v-.77H3.1v-1.46c0-1.36.6-2.05 1.83-2.05.4 0 .76.08 1.1.17l.15-.87c-.33-.11-.7-.18-1.11-.18zm0 0"/></symbol><symbol overflow="visible" id="228e4cbcw"><path d="M6.17 0L3.98-6.77h-1.3L.5 0h.97l.44-1.47h2.78L5.16 0zM3.28-5.94h.08l1.1 3.74H2.15zm0 0"/></symbol><symbol overflow="visible" id="228e4cbcx"><path d="M3.9 0l2-5.02h-.96L3.4-.94h-.07L1.8-5.02H.77L2.78 0zm0 0"/></symbol><symbol overflow="visible" id="228e4cbcy"><path d="M4.63-6.5c.45 0 .98.08 1.39.2l.2-.72a5.3 5.3 0 00-1.64-.26c-1.52 0-2.16.56-2.16 1.87v.4H.9v.76h1.53V0h.94v-4.25h2.53v-.77H3.36v-.3c0-.84.33-1.18 1.27-1.18zm0 0"/></symbol><symbol overflow="visible" id="228e4cbcz"><path d="M1.63 0v-2.9c0-.8.15-1.4.71-1.4.41 0 .55.3.55.88V0h.95v-2.9c0-.8.18-1.4.72-1.4.4 0 .57.3.57.88V0h.95v-3.63c0-.92-.28-1.53-1.11-1.53-.63 0-.95.41-1.1.9h-.06c-.1-.52-.44-.9-1.08-.9-.6 0-.93.41-1.06.9H1.6l-.23-.76H.67V0zm0 0"/></symbol><symbol overflow="visible" id="228e4cbcA"><path d="M3.38-5.9c.12-.5.42-1.04.67-1.41l-.63-.22a4.28 4.28 0 00-1.01 2.39c0 .66.3 1 .9 1 .6 0 .9-.33.9-.9 0-.57-.32-.83-.83-.85zm0 0"/></symbol><symbol overflow="visible" id="228e4cbcB"><path d="M3.3-7.53c-.55 0-.85.3-.85.84 0 .55.36.8.83.8h.03a5.1 5.1 0 01-.69 1.47l.52.23a4.29 4.29 0 001.02-2.4c0-.63-.33-.94-.86-.94zm0 0"/></symbol><symbol overflow="visible" id="228e4cbcC"><path d="M1.45-2.95c0 2.56 1.08 4.37 3.67 4.84l.11-.67C3.28.86 2.43-.75 2.43-2.95s.85-3.82 2.8-4.16l-.1-.69c-2.6.49-3.68 2.3-3.68 4.85zm0 0"/></symbol><symbol overflow="visible" id="228e4cbcD"><path d="M3.33.14c1.65 0 2.6-1.1 2.6-3.52S4.99-6.9 3.34-6.9C1.67-6.9.72-5.8.72-3.37c0 2.4.95 3.51 2.6 3.51zm0-.84c-1.13 0-1.6-.85-1.6-2.67 0-1.86.47-2.7 1.6-2.7 1.12 0 1.6.84 1.6 2.7 0 1.82-.48 2.67-1.6 2.67zM3.3-2.64c.38 0 .56-.28.56-.72 0-.44-.18-.7-.56-.7-.39 0-.56.26-.56.7 0 .44.17.72.56.72zm0 0"/></symbol><symbol overflow="visible" id="228e4cbcE"><path d="M5.1 0v-1.47H6v-.81h-.9v-4.49H3.8L.48-2.23v.76h3.66V0zM1.5-2.33l2.6-3.53h.04v3.58H1.5zm0 0"/></symbol><symbol overflow="visible" id="228e4cbcF"><path d="M1.45-7.1c1.96.33 2.8 1.94 2.8 4.15 0 2.2-.84 3.8-2.8 4.17l.11.67c2.58-.47 3.67-2.28 3.67-4.84 0-2.55-1.09-4.36-3.67-4.85zm0 0"/></symbol></defs><use xlink:href="#228e4cbca" x="174.2095" y="159" fill="#515151"/><use xlink:href="#228e4cbcb" x="197.7905" y="159" fill="#fff"/><use xlink:href="#228e4cbcb" x="223.6952" y="159" fill="#fff"/><g fill="#515151"><use xlink:href="#228e4cbcc" x="249.6" y="159"/><use xlink:href="#228e4cbcd" x="270.592" y="159"/></g><use xlink:href="#228e4cbce" x="318.384" y="159" fill="#515151"/><g fill="#515151"><use xlink:href="#228e4cbcc" x="364.576" y="159"/><use xlink:href="#228e4cbcf" x="385.568" y="159"/></g><g fill="#fff"><use xlink:href="#228e4cbcg" x="253.3333" y="252"/><use xlink:href="#228e4cbch" x="260.0003" y="252"/><use xlink:href="#228e4cbci" x="266.6673" y="252"/><use xlink:href="#228e4cbcj" x="273.3343" y="252"/><use xlink:href="#228e4cbck" x="280.0013" y="252"/><use xlink:href="#228e4cbcl" x="286.6683" y="252"/><use xlink:href="#228e4cbcm" x="293.3353" y="252"/><use xlink:href="#228e4cbcn" x="300.0023" y="252"/><use xlink:href="#228e4cbcn" x="306.6693" y="252"/><use xlink:href="#228e4cbco" x="313.3363" y="252"/><use xlink:href="#228e4cbcp" x="320.0033" y="252"/><use xlink:href="#228e4cbcq" x="326.6703" y="252"/><use xlink:href="#228e4cbco" x="333.3373" y="252"/><use xlink:href="#228e4cbcr" x="340.0043" y="252"/></g><g fill="#fff"><use xlink:href="#228e4cbcs" x="170" y="266"/><use xlink:href="#228e4cbch" x="176.667" y="266"/><use xlink:href="#228e4cbct" x="183.334" y="266"/><use xlink:href="#228e4cbcj" x="190.001" y="266"/><use xlink:href="#228e4cbcu" x="196.668" y="266"/><use xlink:href="#228e4cbcv" x="203.335" y="266"/><use xlink:href="#228e4cbch" x="210.002" y="266"/><use xlink:href="#228e4cbck" x="216.669" y="266"/><use xlink:href="#228e4cbcl" x="223.336" y="266"/><use xlink:href="#228e4cbcw" x="230.003" y="266"/><use xlink:href="#228e4cbcn" x="236.67" y="266"/><use xlink:href="#228e4cbcj" x="243.337" y="266"/><use xlink:href="#228e4cbch" x="250.004" y="266"/><use xlink:href="#228e4cbcv" x="256.671" y="266"/><use xlink:href="#228e4cbcp" x="263.338" y="266"/><use xlink:href="#228e4cbct" x="270.005" y="266"/><use xlink:href="#228e4cbcj" x="276.672" y="266"/><use xlink:href="#228e4cbco" x="283.339" y="266"/><use xlink:href="#228e4cbcx" x="290.006" y="266"/><use xlink:href="#228e4cbch" x="296.673" y="266"/><use xlink:href="#228e4cbcl" x="303.34" y="266"/><use xlink:href="#228e4cbcy" x="310.007" y="266"/><use xlink:href="#228e4cbcq" x="316.674" y="266"/><use xlink:href="#228e4cbcv" x="323.341" y="266"/><use xlink:href="#228e4cbcz" x="330.008" y="266"/><use xlink:href="#228e4cbcl" x="336.675" y="266"/><use xlink:href="#228e4cbcq" x="343.342" y="266"/><use xlink:href="#228e4cbcy" x="350.009" y="266"/><use xlink:href="#228e4cbcl" x="356.676" y="266"/><use xlink:href="#228e4cbcA" x="363.343" y="266"/><use xlink:href="#228e4cbcn" x="370.01" y="266"/><use xlink:href="#228e4cbcB" x="376.677" y="266"/><use xlink:href="#228e4cbcl" x="383.344" y="266"/><use xlink:href="#228e4cbcC" x="390.011" y="266"/><use xlink:href="#228e4cbcr" x="396.678" y="266"/><use xlink:href="#228e4cbcr" x="403.345" y="266"/><use xlink:href="#228e4cbcD" x="410.012" y="266"/><use xlink:href="#228e4cbcE" x="416.679" y="266"/><use xlink:href="#228e4cbcF" x="423.346" y="266"/></g></svg>