<?xml version='1.0' encoding='UTF-8'?>
<svg xmlns="http://www.w3.org/2000/svg" xmlns:xlink="http://www.w3.org/1999/xlink" width="600px" height="300px" viewBox="0 0 600 300" x="0px" y="0px" enable-background="new 0 0 600 300"><defs><symbol overflow="visible" id="8fcc8807a"><path d="M42.4-54.1H12.32v5.83H35.7v27.93c0 10.78-3.88 15.57-13.17 15.57-9.38 0-13.2-4.42-13.94-14.43l-6.64.53C2.78-5.53 8.88 1.14 22.36 1.14S42.4-5.83 42.4-20.69zm0 0"/></symbol><symbol overflow="visible" id="8fcc8807b"><path d="M45.03 0h7.08L31.39-54.1h-8.6L1.85 0h7.01l4.58-12.19H40.5zm-29.6-17.64l11.43-30.47h.34l11.32 30.47zm0 0"/></symbol><symbol overflow="visible" id="8fcc8807c"><path d="M8.42 0h6.17v-43.23h.38L46.02 0h6.7v-54.1h-6.13v43.24h-.39L15.12-54.09h-6.7zm0 0"/></symbol><symbol overflow="visible" id="8fcc8807d"><path d="M23.13 1.06c7.84 0 14.01-2.31 18.46-6.47L46.9 0h7.7l-9.26-9.64c3.7-5.48 5.37-12.8 5.64-19.81l-6.36-.53c0 5.34-.95 11.57-3.5 15.96l-14.64-15.2c6.22-2.89 11.81-6.94 11.81-15.01 0-7.05-5.25-11-13.83-11-10.17 0-14.51 4.9-14.51 10.92 0 5.9 3.97 10.25 7.25 13.69-6.86 3.23-13.11 7.57-13.11 16.76 0 10.4 8.23 14.92 19.05 14.92zm-.46-34.12c-4.5-4.74-6.56-7.05-6.56-11.02 0-3.42 2.48-6.1 8.34-6.1 4.53 0 7.9 1.91 7.9 6.15 0 5.89-4.35 8.48-9.68 10.97zm.64 28.56c-8.18 0-12.6-3.66-12.6-9.78 0-6.64 4.71-9.8 10.35-12.35L37.6-9.55C34.17-6.2 29.3-4.5 23.31-4.5zm0 0"/></symbol><symbol overflow="visible" id="8fcc8807e"><path d="M49.3 0L31.84-23.05c11.58-.1 17.2-5.64 17.2-15.28 0-10.31-5.88-15.76-18.18-15.76H8.42V0h6.74v-22.75h9.34L41.48 0zM15.16-28.23v-20.14h14.48c9.22 0 12.88 2.62 12.88 10.04 0 7.28-3.7 10.1-13.07 10.1zm0 0"/></symbol><symbol overflow="visible" id="8fcc8807f"><path d="M8.42 0h6.74v-54.1H8.42zm0 0"/></symbol><symbol overflow="visible" id="8fcc8807g"><path d="M49.48-54.1h-8.34L15.5-30.01h-.34v-24.07H8.42V0h6.74v-25.03h.39L41.4 0h8.73L21.45-27.81zm0 0"/></symbol><symbol overflow="visible" id="8fcc8807h"><path d="M25.33 1.14c12.73 0 20.08-6.1 20.08-15.73 0-8.83-5.25-13.04-15.85-14.97l-7.01-1.25c-7.58-1.38-10.58-4.16-10.58-9.64 0-5.9 4.67-9.2 12.6-9.2 8.76 0 12.57 2.63 13.87 10.07l6.62-.45c-1.33-10.6-7.92-15.2-20.45-15.2-12.08 0-19.23 5.51-19.23 15.2 0 8.34 4.87 13.01 15.3 15l7 1.34c7.71 1.44 11.13 3.61 11.13 9.4 0 5.95-4.95 9.84-13.28 9.84-9.56 0-14.06-3.36-15.28-10.07l-6.63.54C4.7-3.92 11.78 1.14 25.32 1.14zm0 0"/></symbol><symbol overflow="visible" id="8fcc8807i"><path d="M3.83 0v-5.95H6.2v-.82H.45v.82h2.4V0zm0 0"/></symbol><symbol overflow="visible" id="8fcc8807j"><path d="M5.75-2.23v-.43c0-1.6-.9-2.51-2.42-2.51S.87-4.16.87-2.48c0 1.71.91 2.62 2.5 2.62 1.43 0 2.07-.56 2.29-1.52l-.9-.09c-.18.61-.59.9-1.35.9-.94 0-1.52-.54-1.58-1.66zm-2.4-2.2c.93 0 1.43.5 1.48 1.55H1.84c.08-1.07.6-1.56 1.5-1.56zm0 0"/></symbol><symbol overflow="visible" id="8fcc8807k"><path d="M1.83 0l1.42-2h.06l1.46 2H5.8L4-2.53l1.78-2.49H4.8L3.42-3.08h-.08l-1.4-1.94H.89l1.78 2.49L.84 0zm0 0"/></symbol><symbol overflow="visible" id="8fcc8807l"><path d="M5.52-4.25v-.77H3.17v-1.56h-.81l-.14 1.56H.75v.77h1.47v2.4c0 1.3.48 1.94 1.84 1.94C4.6.1 5.14 0 5.55-.14L5.4-.91c-.32.13-.72.2-1.13.2-.8 0-1.1-.37-1.1-1.23v-2.31zm0 0"/></symbol><symbol overflow="visible" id="8fcc8807m"><path d="M3.33-3.42c.47 0 .8-.27.8-.8 0-.51-.33-.8-.8-.8-.47 0-.8.29-.8.8 0 .53.33.8.8.8zm0 3.5c.47 0 .8-.27.8-.78 0-.53-.33-.82-.8-.82-.47 0-.8.29-.8.82 0 .51.33.78.8.78zm0 0"/></symbol><symbol overflow="visible" id="8fcc8807o"><path d="M5.56-6.77h-3.8v.83h2.82v3.44c0 1.23-.28 1.81-1.36 1.81-.94 0-1.24-.48-1.33-1.3l-.03-.15-.92.1.01.18c.13 1.25.78 2 2.28 2 1.7 0 2.33-.86 2.33-2.64zm0 0"/></symbol><symbol overflow="visible" id="8fcc8807p"><path d="M6.17 0L3.98-6.77h-1.3L.5 0h.97l.44-1.47h2.78L5.16 0zM3.28-5.94h.08l1.1 3.74H2.15zm0 0"/></symbol><symbol overflow="visible" id="8fcc8807q"><path d="M1.84 0v-4.48l-.06-.99h.1L4.46 0h1.28v-6.77h-.92v4.4l.06 1.03h-.1L2.21-6.77H.92V0zm0 0"/></symbol><symbol overflow="visible" id="8fcc8807r"><path d="M5.4-1.22c.43-.66.66-1.51.66-2.44l-.83-.09c0 .75-.14 1.4-.4 1.92l-1.7-1.83c.8-.42 1.39-.96 1.39-1.86 0-.87-.66-1.4-1.61-1.4-1.14 0-1.72.62-1.72 1.47 0 .72.47 1.3.83 1.68-.8.41-1.52.99-1.52 2.1C.5-.44 1.52.14 2.7.14c.9 0 1.64-.3 2.2-.78l.58.64h1.05zM2.86-6.25c.44 0 .82.23.82.73 0 .7-.47 1.11-1 1.41-.47-.53-.67-.92-.67-1.34 0-.47.3-.8.85-.8zM2.81-.62c-.83 0-1.42-.41-1.42-1.18 0-.76.5-1.18 1.05-1.5l1.94 2.1c-.4.37-.91.57-1.57.57zm0 0"/></symbol><symbol overflow="visible" id="8fcc8807s"><path d="M4.06-2.77c1.25-.04 1.92-.7 1.92-1.96 0-1.36-.7-2.04-2.17-2.04H.92V0h.97v-2.73h1.08L4.95 0h1.1zM1.9-6h1.7c1.07 0 1.46.34 1.46 1.28 0 .9-.44 1.27-1.47 1.27H1.89zm0 0"/></symbol><symbol overflow="visible" id="8fcc8807t"><path d="M3.83-5.97h1.73v-.8H1.1v.8h1.75v5.19H1.1V0h4.47v-.78H3.83zm0 0"/></symbol><symbol overflow="visible" id="8fcc8807u"><path d="M4.95-6.77L2.37-3.78H1.9v-2.99H.92V0h.97v-3.08h.49L4.96 0h1.19L3.23-3.5l2.85-3.27zm0 0"/></symbol><symbol overflow="visible" id="8fcc8807v"><path d="M3.42.14c1.61 0 2.56-.75 2.56-2 0-1.1-.67-1.6-1.95-1.86l-.97-.2c-.87-.17-1.23-.49-1.23-1.11 0-.7.54-1.11 1.5-1.11 1.06 0 1.51.34 1.69 1.23l.9-.09c-.17-1.28-.98-1.9-2.6-1.9C1.79-6.9.9-6.18.9-4.98c0 1.06.66 1.66 1.88 1.9l1.01.2c.85.17 1.25.4 1.25 1.09 0 .73-.6 1.16-1.6 1.16-1.07 0-1.66-.4-1.8-1.24l-.94.1C.83-.53 1.75.13 3.42.13zm0 0"/></symbol><symbol overflow="visible" id="8fcc8807w"><path d="M5.95-6.77H1.1V0h.99v-2.92H5.3v-.77H2.08v-2.26h3.87zm0 0"/></symbol><symbol overflow="visible" id="8fcc8807x"><path d="M2.83.14c.94 0 1.5-.39 1.81-.95h.08l.1.81h.76v-3.38c0-1.23-.69-1.8-2.13-1.8-1.43 0-2.03.65-2.18 1.6l.93.1c.11-.6.44-.93 1.22-.93.85 0 1.22.32 1.22 1.04v.34l-1.81.2C1.6-2.7 1.1-2.17 1.1-1.28c0 .92.64 1.42 1.72 1.42zm.25-.77c-.67 0-1.02-.28-1.02-.74 0-.44.28-.72 1-.82l1.58-.19v.41c0 .8-.6 1.34-1.56 1.34zm0 0"/></symbol><symbol overflow="visible" id="8fcc8807y"><path d="M2.73.14c.9 0 1.43-.45 1.74-1.08h.06l.13.94h.8v-5.02h-.94v2.7c0 .98-.57 1.62-1.46 1.62-.75 0-1.1-.4-1.1-1.22v-3.1h-.93v3.32c0 1.17.55 1.84 1.7 1.84zm0 0"/></symbol><symbol overflow="visible" id="8fcc8807z"><path d="M5.08-5.16c-.94 0-1.58.43-1.9 1.3h-.09l-.07-1.16H1.05v.77h1.1v3.48H.96V0h3.96v-.77H3.1v-1.46c0-1.36.6-2.05 1.83-2.05.4 0 .76.08 1.1.17l.15-.87c-.33-.11-.7-.18-1.11-.18zm0 0"/></symbol><symbol overflow="visible" id="8fcc8807A"><path d="M3.92-7.14H1.36v.76h1.6v5.61H1.15V0H5.7v-.77H3.92zm0 0"/></symbol><symbol overflow="visible" id="8fcc8807B"><path d="M2.16 0v-2.67c0-.99.59-1.63 1.46-1.63.74 0 1.07.38 1.07 1.22V0h.95v-3.31c0-1.2-.56-1.85-1.67-1.85-.92 0-1.49.46-1.77 1.08h-.06l-.12-.94H1.2V0zm0 0"/></symbol><symbol overflow="visible" id="8fcc8807C"><path d="M3.58-5.81c.42 0 .72-.22.72-.67 0-.44-.3-.68-.72-.68-.44 0-.72.24-.72.68 0 .45.28.67.72.67zm.5.8H1.52v.76h1.6v3.48h-1.8V0h4.46v-.77h-1.7zm0 0"/></symbol><symbol overflow="visible" id="8fcc8807D"><path d="M3.9 0l2-5.02h-.96L3.4-.94h-.07L1.8-5.02H.77L2.78 0zm0 0"/></symbol><symbol overflow="visible" id="8fcc8807E"><path d="M4.63-6.5c.45 0 .98.08 1.39.2l.2-.72a5.3 5.3 0 00-1.64-.26c-1.52 0-2.16.56-2.16 1.87v.4H.9v.76h1.53V0h.94v-4.25h2.53v-.77H3.36v-.3c0-.84.33-1.18 1.27-1.18zm0 0"/></symbol><symbol overflow="visible" id="8fcc8807F"><path d="M3.33.14c1.62 0 2.5-.95 2.5-2.66 0-1.68-.88-2.64-2.5-2.64-1.63 0-2.5.96-2.5 2.64 0 1.7.87 2.66 2.5 2.66zm0-.77c-1.06 0-1.52-.6-1.52-1.89 0-1.28.46-1.87 1.52-1.87 1.08 0 1.53.6 1.53 1.87 0 1.29-.45 1.9-1.53 1.9zm0 0"/></symbol><symbol overflow="visible" id="8fcc8807G"><path d="M1.63 0v-2.9c0-.8.15-1.4.71-1.4.41 0 .55.3.55.88V0h.95v-2.9c0-.8.18-1.4.72-1.4.4 0 .57.3.57.88V0h.95v-3.63c0-.92-.28-1.53-1.11-1.53-.63 0-.95.41-1.1.9h-.06c-.1-.52-.44-.9-1.08-.9-.6 0-.93.41-1.06.9H1.6l-.23-.76H.67V0zm0 0"/></symbol><symbol overflow="visible" id="8fcc8807H"><path d="M3.38-5.9c.12-.5.42-1.04.67-1.41l-.63-.22a4.28 4.28 0 00-1.01 2.39c0 .66.3 1 .9 1 .6 0 .9-.33.9-.9 0-.57-.32-.83-.83-.85zm0 0"/></symbol><symbol overflow="visible" id="8fcc8807I"><path d="M3.3-7.53c-.55 0-.85.3-.85.84 0 .55.36.8.83.8h.03a5.1 5.1 0 01-.69 1.47l.52.23a4.29 4.29 0 001.02-2.4c0-.63-.33-.94-.86-.94zm0 0"/></symbol><symbol overflow="visible" id="8fcc8807J"><path d="M1.45-2.95c0 2.56 1.08 4.37 3.67 4.84l.11-.67C3.28.86 2.43-.75 2.43-2.95s.85-3.82 2.8-4.16l-.1-.69c-2.6.49-3.68 2.3-3.68 4.85zm0 0"/></symbol><symbol overflow="visible" id="8fcc8807K"><path d="M3.36.16c1.4 0 2.2-.6 2.2-1.57 0-.89-.54-1.22-1.47-1.39L3-3c-.67-.14-.86-.33-.86-.73 0-.5.4-.74 1.17-.74.83 0 1.19.27 1.27.8l.9-.05c-.12-1-.8-1.47-2.17-1.47-1.34 0-2.1.53-2.1 1.5 0 .81.45 1.22 1.52 1.44l1.04.2c.56.11.87.24.87.72 0 .52-.45.78-1.28.78-.95 0-1.36-.28-1.42-.87l-.9.06C1.07-.36 1.8.16 3.35.16zm0 0"/></symbol><symbol overflow="visible" id="8fcc8807L"><path d="M3.33.14c1.65 0 2.6-1.1 2.6-3.52S4.99-6.9 3.34-6.9C1.67-6.9.72-5.8.72-3.37c0 2.4.95 3.51 2.6 3.51zm0-.84c-1.13 0-1.6-.85-1.6-2.67 0-1.86.47-2.7 1.6-2.7 1.12 0 1.6.84 1.6 2.7 0 1.82-.48 2.67-1.6 2.67zM3.3-2.64c.38 0 .56-.28.56-.72 0-.44-.18-.7-.56-.7-.39 0-.56.26-.56.7 0 .44.17.72.56.72zm0 0"/></symbol><symbol overflow="visible" id="8fcc8807M"><path d="M4.22-6.77h-.86l-2.03.7v.87c.64-.17 1.26-.38 1.89-.55v4.9H1.03V0h4.9v-.86H4.21zm0 0"/></symbol><symbol overflow="visible" id="8fcc8807N"><path d="M3.34.14c1.43 0 2.13-.66 2.25-1.78l-.89-.1c-.1.7-.5 1.08-1.34 1.08-1.03 0-1.52-.64-1.52-1.84 0-1.23.47-1.86 1.52-1.86.84 0 1.23.36 1.34 1.08l.9-.1c-.13-1.09-.82-1.78-2.26-1.78-1.56 0-2.46.97-2.46 2.66 0 1.66.9 2.64 2.46 2.64zm0 0"/></symbol><symbol overflow="visible" id="8fcc8807O"><path d="M1.45-7.1c1.96.33 2.8 1.94 2.8 4.15 0 2.2-.84 3.8-2.8 4.17l.11.67c2.58-.47 3.67-2.28 3.67-4.84 0-2.55-1.09-4.36-3.67-4.85zm0 0"/></symbol></defs><use xlink:href="#8fcc8807a" x="55.40952" y="159" fill="#fff"/><g fill="#515151"><use xlink:href="#8fcc8807b" x="104.66667" y="159"/><use xlink:href="#8fcc8807c" x="158.65067" y="159"/></g><use xlink:href="#8fcc8807d" x="240.69867" y="159" fill="#515151"/><use xlink:href="#8fcc8807e" x="317.70667" y="159" fill="#515151"/><use xlink:href="#8fcc8807f" x="371.219" y="159" fill="#fff"/><use xlink:href="#8fcc8807a" x="394.8" y="159" fill="#fff"/><g fill="#515151"><use xlink:href="#8fcc8807g" x="444.819" y="159"/><use xlink:href="#8fcc8807h" x="494.419" y="159"/></g><g fill="#fff"><use xlink:href="#8fcc8807i" x="243.3333" y="252"/><use xlink:href="#8fcc8807j" x="250.0003" y="252"/><use xlink:href="#8fcc8807k" x="256.6673" y="252"/><use xlink:href="#8fcc8807l" x="263.3343" y="252"/><use xlink:href="#8fcc8807m" x="270.0013" y="252"/><use xlink:href="#8fcc8807n" x="276.6683" y="252"/><use xlink:href="#8fcc8807o" x="283.3353" y="252"/><use xlink:href="#8fcc8807p" x="290.0023" y="252"/><use xlink:href="#8fcc8807q" x="296.6693" y="252"/><use xlink:href="#8fcc8807n" x="303.3363" y="252"/><use xlink:href="#8fcc8807r" x="310.0033" y="252"/><use xlink:href="#8fcc8807n" x="316.6703" y="252"/><use xlink:href="#8fcc8807s" x="323.3373" y="252"/><use xlink:href="#8fcc8807t" x="330.0043" y="252"/><use xlink:href="#8fcc8807o" x="336.6713" y="252"/><use xlink:href="#8fcc8807u" x="343.3383" y="252"/><use xlink:href="#8fcc8807v" x="350.0053" y="252"/></g><g fill="#fff"><use xlink:href="#8fcc8807w" x="143.3333" y="266"/><use xlink:href="#8fcc8807j" x="150.0003" y="266"/><use xlink:href="#8fcc8807x" x="156.6673" y="266"/><use xlink:href="#8fcc8807l" x="163.3343" y="266"/><use xlink:href="#8fcc8807y" x="170.0013" y="266"/><use xlink:href="#8fcc8807z" x="176.6683" y="266"/><use xlink:href="#8fcc8807j" x="183.3353" y="266"/><use xlink:href="#8fcc8807m" x="190.0023" y="266"/><use xlink:href="#8fcc8807n" x="196.6693" y="266"/><use xlink:href="#8fcc8807p" x="203.3363" y="266"/><use xlink:href="#8fcc8807A" x="210.0033" y="266"/><use xlink:href="#8fcc8807l" x="216.6703" y="266"/><use xlink:href="#8fcc8807j" x="223.3373" y="266"/><use xlink:href="#8fcc8807z" x="230.0043" y="266"/><use xlink:href="#8fcc8807B" x="236.6713" y="266"/><use xlink:href="#8fcc8807x" x="243.3383" y="266"/><use xlink:href="#8fcc8807l" x="250.0053" y="266"/><use xlink:href="#8fcc8807C" x="256.6723" y="266"/><use xlink:href="#8fcc8807D" x="263.3393" y="266"/><use xlink:href="#8fcc8807j" x="270.0063" y="266"/><use xlink:href="#8fcc8807n" x="276.6733" y="266"/><use xlink:href="#8fcc8807E" x="283.3403" y="266"/><use xlink:href="#8fcc8807F" x="290.0073" y="266"/><use xlink:href="#8fcc8807z" x="296.6743" y="266"/><use xlink:href="#8fcc8807G" x="303.3413" y="266"/><use xlink:href="#8fcc8807n" x="310.0083" y="266"/><use xlink:href="#8fcc8807F" x="316.6753" y="266"/><use xlink:href="#8fcc8807E" x="323.3423" y="266"/><use xlink:href="#8fcc8807n" x="330.0093" y="266"/><use xlink:href="#8fcc8807H" x="336.6763" y="266"/><use xlink:href="#8fcc8807o" x="343.3433" y="266"/><use xlink:href="#8fcc8807I" x="350.0103" y="266"/><use xlink:href="#8fcc8807n" x="356.6773" y="266"/><use xlink:href="#8fcc8807J" x="363.3443" y="266"/><use xlink:href="#8fcc8807K" x="370.0113" y="266"/><use xlink:href="#8fcc8807K" x="376.6783" y="266"/><use xlink:href="#8fcc8807L" x="383.3453" y="266"/><use xlink:href="#8fcc8807M" x="390.0123" y="266"/><use xlink:href="#8fcc8807n" x="396.6793" y="266"/><use xlink:href="#8fcc8807F" x="403.3463" y="266"/><use xlink:href="#8fcc8807z" x="410.0133" y="266"/><use xlink:href="#8fcc8807n" x="416.6803" y="266"/><use xlink:href="#8fcc8807N" x="423.3473" y="266"/><use xlink:href="#8fcc8807x" x="430.0143" y="266"/><use xlink:href="#8fcc8807K" x="436.6813" y="266"/><use xlink:href="#8fcc8807j" x="443.3483" y="266"/><use xlink:href="#8fcc8807O" x="450.0153" y="266"/></g></svg>