<?xml version='1.0' encoding='UTF-8'?>
<svg xmlns="http://www.w3.org/2000/svg" xmlns:xlink="http://www.w3.org/1999/xlink" width="310px" height="280px" viewBox="0 0 310 280" x="0px" y="0px" enable-background="new 0 0 310 280"><defs><symbol overflow="visible" id="aca037cca"><path d="M30.33-23.73c0-7.54-4.27-11.8-12.11-11.8H2.5l-.6 8.76h13.13c4.27 0 6.16 1.6 6.16 5.86V0h9.14zm0 0"/></symbol><symbol overflow="visible" id="aca037ccb"><path d="M38.34-18.25c0-11.47-3.57-17.92-13.39-17.92-1.36 0-3.95.36-5.04.67l-.61 8.6c.78-.29 2.15-.62 3.4-.62 5.1 0 6.68 3.02 6.68 9.57 0 7.25-2.32 10.8-8.05 10.8-5.72 0-8.05-3.55-8.05-10.8v-17.58H4.14v18.12C4.14-5.67 9.6.92 21.12.92c11.52 0 17.22-6.75 17.22-19.17zm0 0"/></symbol><symbol overflow="visible" id="aca037ccc"><path d="M18.47-36.48c-9.72 0-15.55 4.32-15.55 12.04 0 7.64 4.55 10.52 11 10.52 1.96 0 3.33-.16 4.46-.5l.57-6.36c-.87.23-1.76.39-3.04.39-2.57 0-3.99-1.22-3.99-3.66 0-2.92 2.35-4.2 6.55-4.2 5.7 0 8.2 2.92 8.2 10.27 0 7.65-3.3 10.82-11.53 10.82-3.77 0-6.55-.57-9.9-1.4L4.61-.48C7.78.36 11.59.92 16.16.92c13.3 0 19.56-6.62 19.56-18.97 0-11.9-5.67-18.43-17.25-18.43zm0 0"/></symbol><symbol overflow="visible" id="aca037ccd"><path d="M20.4 0h9.13v-26.77h4.42l.61-8.76H2.5l-.6 8.76h18.5zm0 0"/></symbol><symbol overflow="visible" id="aca037cce"><path d="M2.83 0h8.78l2.02-12.7c.57-3.63.96-4.52 2.59-4.97C20.27-12.07 24.14-6.16 27.86 0h10.3a333.59 333.59 0 00-10.4-16.06c4.94-1.03 6.96-3.57 8.05-9.66l1.74-9.81h-8.78l-1.04 7c-.7 4.9-1.37 6.8-3.46 7.47a216.8 216.8 0 00-11.54-14.47H2.22a240.3 240.3 0 0110 12.4c-3.88 1.04-5.67 3.41-6.83 9.5zm0 0"/></symbol><symbol overflow="visible" id="aca037ccf"><path d="M7.4 0L4.79-8.1H3.23L.6 0h1.18l.51-1.77h3.35L6.19 0zM3.95-7.13h.1l1.32 4.47h-2.8zm0 0"/></symbol><symbol overflow="visible" id="aca037ccg"><path d="M3.42.17c1.13 0 1.77-.5 2.1-1.26h.07L5.75 0h.92v-8.58H5.53v3.56h-.08c-.34-.75-1.04-1.17-2.01-1.17C1.64-6.19.72-5 .72-3.02c0 2 .92 3.2 2.7 3.2zm.27-.95c-1.2 0-1.8-.74-1.8-2.22 0-1.52.6-2.23 1.78-2.23 1.35 0 1.9.95 1.9 2.23 0 1.27-.55 2.22-1.88 2.22zm0 0"/></symbol><symbol overflow="visible" id="aca037cch"><path d="M3.4.17C4.51.17 5.2-.3 5.57-.97h.08l.12.97h.9v-4.05c0-1.48-.82-2.15-2.54-2.15-1.73 0-2.44.75-2.6 1.9l1.1.11c.13-.7.52-1.1 1.47-1.1 1.01 0 1.47.37 1.47 1.23v.42l-2.17.23c-1.49.18-2.08.82-2.08 1.86 0 1.13.76 1.72 2.06 1.72zm.29-.92c-.81 0-1.2-.33-1.2-.9 0-.52.32-.87 1.2-.96l1.89-.23v.48c0 .95-.75 1.61-1.9 1.61zm0 0"/></symbol><symbol overflow="visible" id="aca037cci"><path d="M2.47 2.27V-1h.06c.35.69.95 1.17 2.13 1.17 1.8 0 2.62-1.19 2.62-3.19 0-1.98-.83-3.17-2.6-3.17-1.18 0-1.8.53-2.15 1.27h-.08l-.15-1.1h-.97v8.29zm1.8-3.05C3-.78 2.44-1.75 2.44-3.02c0-1.26.56-2.21 1.83-2.21 1.34 0 1.84.71 1.84 2.21S5.6-.78 4.27-.78zm0 0"/></symbol><symbol overflow="visible" id="aca037ccj"><path d="M6.63-5.1v-.92H3.8v-1.87h-.98l-.17 1.87H.9v.91h1.75v2.88c0 1.57.57 2.35 2.21 2.35.65 0 1.29-.12 1.79-.3l-.18-.9a3.9 3.9 0 01-1.34.22c-.97 0-1.33-.44-1.33-1.47V-5.1zm0 0"/></symbol><symbol overflow="visible" id="aca037cck"><path d="M6.9-2.69v-.5C6.9-5.13 5.82-6.2 4-6.2 2.17-6.2 1.06-5 1.06-2.98c0 2.06 1.08 3.15 3 3.15C5.75.17 6.52-.5 6.8-1.64l-1.08-.13c-.24.75-.7 1.07-1.64 1.07-1.11 0-1.81-.64-1.88-1.99zM4-5.33c1.14 0 1.75.61 1.8 1.88H2.22c.1-1.28.7-1.88 1.78-1.88zm0 0"/></symbol><symbol overflow="visible" id="aca037ccl"><path d="M6.1-6.19c-1.12 0-1.9.52-2.3 1.57h-.08l-.11-1.4H1.27v.91h1.32v4.19H1.14V0H5.9v-.92H3.73v-1.75c0-1.64.7-2.46 2.2-2.46.48 0 .91.08 1.32.2l.17-1.05c-.39-.13-.83-.2-1.33-.2zm0 0"/></symbol><symbol overflow="visible" id="aca037ccn"><path d="M2.28 0v-3.64h3.44V0h1.17v-8.1H5.72v3.46H2.28v-3.47H1.11V0zm0 0"/></symbol><symbol overflow="visible" id="aca037cco"><path d="M4.69.17c1.76 0 2.6-1.19 2.6-3.17 0-2-.84-3.19-2.6-3.19-1.1 0-1.8.49-2.14 1.2h-.08v-3.59H1.33V0h.97l.15-1.1h.07c.34.77.96 1.27 2.17 1.27zm-.4-.95C3-.78 2.45-1.75 2.45-3c0-1.28.56-2.23 1.86-2.23S6.1-4.52 6.1-3c0 1.48-.52 2.22-1.8 2.22zm0 0"/></symbol><symbol overflow="visible" id="aca037ccp"><path d="M2.92 0l1.05-3.98h.08L5.09 0h1.27l1.23-6.02H6.55l-.9 4.72h-.07L4.52-5.28h-1L2.45-1.3h-.08l-.9-4.72H.4L1.64 0zm0 0"/></symbol><symbol overflow="visible" id="aca037ccq"><path d="M4.6 0v-7.14h2.85v-.97H.55v.97H3.4V0zm0 0"/></symbol><symbol overflow="visible" id="aca037ccr"><path d="M2.2 0l1.7-2.4h.08L5.72 0h1.26L4.8-3.03l2.14-2.99H5.75L4.11-3.69H4L2.34-6.02H1.06l2.16 2.97L1.02 0zm0 0"/></symbol></defs><use xlink:href="#aca037cca" x="59.53333" y="145"/><use xlink:href="#aca037ccb" x="93.33173" y="145"/><use xlink:href="#aca037ccc" x="134.81013" y="145"/><use xlink:href="#aca037ccd" x="173.47253" y="145"/><use xlink:href="#aca037cce" x="210.08693" y="145"/><g fill-opacity=".33"><use xlink:href="#aca037ccf" x="79" y="230"/><use xlink:href="#aca037ccg" x="87.0004" y="230"/><use xlink:href="#aca037cch" x="95.0008" y="230"/><use xlink:href="#aca037cci" x="103.0012" y="230"/><use xlink:href="#aca037ccj" x="111.0016" y="230"/><use xlink:href="#aca037cck" x="119.002" y="230"/><use xlink:href="#aca037ccl" x="127.0024" y="230"/><use xlink:href="#aca037ccm" x="135.0028" y="230"/><use xlink:href="#aca037ccn" x="143.0032" y="230"/><use xlink:href="#aca037cck" x="151.0036" y="230"/><use xlink:href="#aca037cco" x="159.004" y="230"/><use xlink:href="#aca037ccl" x="167.0044" y="230"/><use xlink:href="#aca037cck" x="175.0048" y="230"/><use xlink:href="#aca037ccp" x="183.0052" y="230"/><use xlink:href="#aca037ccm" x="191.0056" y="230"/><use xlink:href="#aca037ccq" x="199.006" y="230"/><use xlink:href="#aca037cck" x="207.0064" y="230"/><use xlink:href="#aca037ccr" x="215.0068" y="230"/><use xlink:href="#aca037ccj" x="223.0072" y="230"/></g></svg>