<?xml version='1.0' encoding='UTF-8'?>
<svg xmlns="http://www.w3.org/2000/svg" xmlns:xlink="http://www.w3.org/1999/xlink" width="600px" height="300px" viewBox="0 0 600 300" x="0px" y="0px" enable-background="new 0 0 600 300"><defs><symbol overflow="visible" id="3a7ff261a"><path d="M27.23 1.14c10.94 0 17.22-7.81 17.22-21.17 0-13.38-6.28-21.22-17.43-21.22-6.33 0-10.68 2.9-12.93 7.69h-.34v-23.58H7.28V0h5.4l.91-7.05h.4c2.65 5.2 6.85 8.2 13.24 8.2zM25.8-4.5c-8.24 0-12.27-6.36-12.27-15.53 0-9.19 4.03-15.6 12.27-15.6 8.03 0 12.03 5.11 12.03 15.6 0 10.44-4 15.53-12.03 15.53zm0 0"/></symbol><symbol overflow="visible" id="3a7ff261b"><path d="M17.48 1.1c6.75 0 11.29-2.82 13.49-7.38h.39L32.03 0h5.42v-27.28c0-9.64-5.42-14.02-15.78-14.02-10.55 0-15.08 4.77-16.22 12.38l6.4.58c.8-4.8 3.35-7.63 9.74-7.63 6.57 0 9.57 2.67 9.57 8.9 0 1.88-1.14 3.04-3.32 3.34l-10.2 1.3C8.27-21.3 3.81-17.3 3.81-10.37c0 6.86 4.77 11.47 13.67 11.47zm1.27-5.29c-5.83 0-8.34-2.48-8.34-6.6 0-3.68 2.17-5.9 7.73-6.66l9.33-1.25c2.12-.27 3.23-.77 3.69-1.4v4.55c0 6.57-4.64 11.36-12.41 11.36zm0 0"/></symbol><symbol overflow="visible" id="3a7ff261c"><path d="M7.28 0h6.47v-57.14H7.28zm0 0"/></symbol><symbol overflow="visible" id="3a7ff261d"><path d="M7.28 0h6.47v-21.94c0-8.04 5.19-13.37 12.19-13.37 6.03 0 8.87 3.39 8.87 10.33V0h6.49v-26.9c0-9.26-4.7-14.35-13.46-14.35-6.8 0-11.2 3.42-13.86 8.19h-.39l-.9-7.05h-5.4zm0 0"/></symbol><symbol overflow="visible" id="3a7ff261e"><path d="M22.67 1.14c10.63 0 16.03-4.9 17.14-13.6l-6.48-.57c-.88 5.72-4.03 8.58-10.58 8.58-8.05 0-12.05-5.46-12.05-15.63 0-10.2 3.93-15.55 11.97-15.55 6.47 0 9.83 2.99 10.63 8.7l6.51-.54c-1.06-8.76-6.89-13.78-17.14-13.78-11.73 0-18.6 7.88-18.6 21.17 0 13.4 6.9 21.22 18.6 21.22zm0 0"/></symbol><symbol overflow="visible" id="3a7ff261f"><path d="M40.45-18.02v-3.65c0-12.58-6.73-19.63-17.93-19.63-11.16 0-18.44 7.47-18.44 21.38 0 13.33 6.78 21.06 18.97 21.06 10.17 0 14.97-4.69 16.68-11.31l-6.4-.61c-1.3 3.73-4.11 6.36-10.36 6.36-7.5 0-11.77-4.5-12.27-13.6zM22.52-35.89c7.3 0 11.2 4.27 11.54 12.87H10.78c.72-8.8 4.8-12.87 11.74-12.87zm0 0"/></symbol><symbol overflow="visible" id="3a7ff261g"><path d="M3.83 0v-5.95H6.2v-.82H.45v.82h2.4V0zm0 0"/></symbol><symbol overflow="visible" id="3a7ff261h"><path d="M5.75-2.23v-.43c0-1.6-.9-2.51-2.42-2.51S.87-4.16.87-2.48c0 1.71.91 2.62 2.5 2.62 1.43 0 2.07-.56 2.29-1.52l-.9-.09c-.18.61-.59.9-1.35.9-.94 0-1.52-.54-1.58-1.66zm-2.4-2.2c.93 0 1.43.5 1.48 1.55H1.84c.08-1.07.6-1.56 1.5-1.56zm0 0"/></symbol><symbol overflow="visible" id="3a7ff261i"><path d="M1.83 0l1.42-2h.06l1.46 2H5.8L4-2.53l1.78-2.49H4.8L3.42-3.08h-.08l-1.4-1.94H.89l1.78 2.49L.84 0zm0 0"/></symbol><symbol overflow="visible" id="3a7ff261j"><path d="M5.52-4.25v-.77H3.17v-1.56h-.81l-.14 1.56H.75v.77h1.47v2.4c0 1.3.48 1.94 1.84 1.94C4.6.1 5.14 0 5.55-.14L5.4-.91c-.32.13-.72.2-1.13.2-.8 0-1.1-.37-1.1-1.23v-2.31zm0 0"/></symbol><symbol overflow="visible" id="3a7ff261k"><path d="M3.33-3.42c.47 0 .8-.27.8-.8 0-.51-.33-.8-.8-.8-.47 0-.8.29-.8.8 0 .53.33.8.8.8zm0 3.5c.47 0 .8-.27.8-.78 0-.53-.33-.82-.8-.82-.47 0-.8.29-.8.82 0 .51.33.78.8.78zm0 0"/></symbol><symbol overflow="visible" id="3a7ff261m"><path d="M3.9.14c1.48 0 2.18-.98 2.18-2.64 0-1.67-.7-2.66-2.17-2.66-.91 0-1.49.41-1.79 1h-.06v-2.98h-.95V0h.81l.11-.9h.06c.29.63.82 1.04 1.82 1.04zm-.32-.8c-1.08 0-1.55-.8-1.55-1.84 0-1.06.47-1.86 1.55-1.86 1.1 0 1.51.61 1.51 1.86S4.64-.66 3.58-.66zm0 0"/></symbol><symbol overflow="visible" id="3a7ff261n"><path d="M2.83.14c.94 0 1.5-.39 1.81-.95h.08l.1.81h.76v-3.38c0-1.23-.69-1.8-2.13-1.8-1.43 0-2.03.65-2.18 1.6l.93.1c.11-.6.44-.93 1.22-.93.85 0 1.22.32 1.22 1.04v.34l-1.81.2C1.6-2.7 1.1-2.17 1.1-1.28c0 .92.64 1.42 1.72 1.42zm.25-.77c-.67 0-1.02-.28-1.02-.74 0-.44.28-.72 1-.82l1.58-.19v.41c0 .8-.6 1.34-1.56 1.34zm0 0"/></symbol><symbol overflow="visible" id="3a7ff261o"><path d="M3.92-7.14H1.36v.76h1.6v5.61H1.15V0H5.7v-.77H3.92zm0 0"/></symbol><symbol overflow="visible" id="3a7ff261p"><path d="M2.16 0v-2.67c0-.99.59-1.63 1.46-1.63.74 0 1.07.38 1.07 1.22V0h.95v-3.31c0-1.2-.56-1.85-1.67-1.85-.92 0-1.49.46-1.77 1.08h-.06l-.12-.94H1.2V0zm0 0"/></symbol><symbol overflow="visible" id="3a7ff261q"><path d="M3.34.14c1.43 0 2.13-.66 2.25-1.78l-.89-.1c-.1.7-.5 1.08-1.34 1.08-1.03 0-1.52-.64-1.52-1.84 0-1.23.47-1.86 1.52-1.86.84 0 1.23.36 1.34 1.08l.9-.1c-.13-1.09-.82-1.78-2.26-1.78-1.56 0-2.46.97-2.46 2.66 0 1.66.9 2.64 2.46 2.64zm0 0"/></symbol><symbol overflow="visible" id="3a7ff261r"><path d="M5.95-6.77H1.1V0h.99v-2.92H5.3v-.77H2.08v-2.26h3.87zm0 0"/></symbol><symbol overflow="visible" id="3a7ff261s"><path d="M2.73.14c.9 0 1.43-.45 1.74-1.08h.06l.13.94h.8v-5.02h-.94v2.7c0 .98-.57 1.62-1.46 1.62-.75 0-1.1-.4-1.1-1.22v-3.1h-.93v3.32c0 1.17.55 1.84 1.7 1.84zm0 0"/></symbol><symbol overflow="visible" id="3a7ff261t"><path d="M5.08-5.16c-.94 0-1.58.43-1.9 1.3h-.09l-.07-1.16H1.05v.77h1.1v3.48H.96V0h3.96v-.77H3.1v-1.46c0-1.36.6-2.05 1.83-2.05.4 0 .76.08 1.1.17l.15-.87c-.33-.11-.7-.18-1.11-.18zm0 0"/></symbol><symbol overflow="visible" id="3a7ff261u"><path d="M3.42.14c1.61 0 2.56-.75 2.56-2 0-1.1-.67-1.6-1.95-1.86l-.97-.2c-.87-.17-1.23-.49-1.23-1.11 0-.7.54-1.11 1.5-1.11 1.06 0 1.51.34 1.69 1.23l.9-.09c-.17-1.28-.98-1.9-2.6-1.9C1.79-6.9.9-6.18.9-4.98c0 1.06.66 1.66 1.88 1.9l1.01.2c.85.17 1.25.4 1.25 1.09 0 .73-.6 1.16-1.6 1.16-1.07 0-1.66-.4-1.8-1.24l-.94.1C.83-.53 1.75.13 3.42.13zm0 0"/></symbol><symbol overflow="visible" id="3a7ff261v"><path d="M3.33.14c1.62 0 2.5-.95 2.5-2.66 0-1.68-.88-2.64-2.5-2.64-1.63 0-2.5.96-2.5 2.64 0 1.7.87 2.66 2.5 2.66zm0-.77c-1.06 0-1.52-.6-1.52-1.89 0-1.28.46-1.87 1.52-1.87 1.08 0 1.53.6 1.53 1.87 0 1.29-.45 1.9-1.53 1.9zm0 0"/></symbol><symbol overflow="visible" id="3a7ff261w"><path d="M4.63-6.5c.45 0 .98.08 1.39.2l.2-.72a5.3 5.3 0 00-1.64-.26c-1.52 0-2.16.56-2.16 1.87v.4H.9v.76h1.53V0h.94v-4.25h2.53v-.77H3.36v-.3c0-.84.33-1.18 1.27-1.18zm0 0"/></symbol><symbol overflow="visible" id="3a7ff261x"><path d="M3.38-5.9c.12-.5.42-1.04.67-1.41l-.63-.22a4.28 4.28 0 00-1.01 2.39c0 .66.3 1 .9 1 .6 0 .9-.33.9-.9 0-.57-.32-.83-.83-.85zm0 0"/></symbol><symbol overflow="visible" id="3a7ff261y"><path d="M3.3-7.53c-.55 0-.85.3-.85.84 0 .55.36.8.83.8h.03a5.1 5.1 0 01-.69 1.47l.52.23a4.29 4.29 0 001.02-2.4c0-.63-.33-.94-.86-.94zm0 0"/></symbol><symbol overflow="visible" id="3a7ff261z"><path d="M2.84.14C3.8.14 4.33-.26 4.6-.9h.07L4.8 0h.76v-7.14h-.95v2.95h-.08c-.28-.6-.86-.97-1.67-.97-1.48 0-2.27.99-2.27 2.64C.6-.84 1.36.14 2.84.14zm.22-.8c-.98 0-1.48-.59-1.48-1.84s.5-1.86 1.48-1.86c1.13 0 1.58.8 1.58 1.86S4.2-.66 3.06-.66zm0 0"/></symbol><symbol overflow="visible" id="3a7ff261A"><path d="M3.36.16c1.4 0 2.2-.6 2.2-1.57 0-.89-.54-1.22-1.47-1.39L3-3c-.67-.14-.86-.33-.86-.73 0-.5.4-.74 1.17-.74.83 0 1.19.27 1.27.8l.9-.05c-.12-1-.8-1.47-2.17-1.47-1.34 0-2.1.53-2.1 1.5 0 .81.45 1.22 1.52 1.44l1.04.2c.56.11.87.24.87.72 0 .52-.45.78-1.28.78-.95 0-1.36-.28-1.42-.87l-.9.06C1.07-.36 1.8.16 3.35.16zm0 0"/></symbol><symbol overflow="visible" id="3a7ff261B"><path d="M1.45-2.95c0 2.56 1.08 4.37 3.67 4.84l.11-.67C3.28.86 2.43-.75 2.43-2.95s.85-3.82 2.8-4.16l-.1-.69c-2.6.49-3.68 2.3-3.68 4.85zm0 0"/></symbol><symbol overflow="visible" id="3a7ff261C"><path d="M4.22-6.77h-.86l-2.03.7v.87c.64-.17 1.26-.38 1.89-.55v4.9H1.03V0h4.9v-.86H4.21zm0 0"/></symbol><symbol overflow="visible" id="3a7ff261D"><path d="M3.42.14c1.58 0 2.49-.86 2.49-2.3 0-1.42-.86-2.17-2.22-2.17-1.03 0-1.58.5-1.9 1.02h-.04c.03-1.63.4-2.77 1.73-2.77.91 0 1.24.44 1.36.96l.97-.11c-.23-.96-.86-1.68-2.33-1.68C1.84-6.9.86-5.86.86-3.1.86-.9 1.78.14 3.42.14zm.02-.78c-.9 0-1.47-.55-1.47-1.47 0-.9.7-1.47 1.53-1.47.92 0 1.47.52 1.47 1.47 0 .97-.6 1.47-1.53 1.47zm0 0"/></symbol><symbol overflow="visible" id="3a7ff261E"><path d="M1.45-7.1c1.96.33 2.8 1.94 2.8 4.15 0 2.2-.84 3.8-2.8 4.17l.11.67c2.58-.47 3.67-2.28 3.67-4.84 0-2.55-1.09-4.36-3.67-4.85zm0 0"/></symbol></defs><use xlink:href="#3a7ff261a" x="153.3714" y="159" fill="#515151"/><use xlink:href="#3a7ff261b" x="201.9048" y="159" fill="#fff"/><use xlink:href="#3a7ff261c" x="245.8667" y="159" fill="#515151"/><use xlink:href="#3a7ff261b" x="266.8571" y="159" fill="#fff"/><g fill="#515151"><use xlink:href="#3a7ff261d" x="310.819" y="159"/><use xlink:href="#3a7ff261e" x="358.627" y="159"/></g><use xlink:href="#3a7ff261f" x="402.195" y="159" fill="#515151"/><g fill="#fff"><use xlink:href="#3a7ff261g" x="256.6667" y="252"/><use xlink:href="#3a7ff261h" x="263.3337" y="252"/><use xlink:href="#3a7ff261i" x="270.0007" y="252"/><use xlink:href="#3a7ff261j" x="276.6677" y="252"/><use xlink:href="#3a7ff261k" x="283.3347" y="252"/><use xlink:href="#3a7ff261l" x="290.0017" y="252"/><use xlink:href="#3a7ff261m" x="296.6687" y="252"/><use xlink:href="#3a7ff261n" x="303.3357" y="252"/><use xlink:href="#3a7ff261o" x="310.0027" y="252"/><use xlink:href="#3a7ff261n" x="316.6697" y="252"/><use xlink:href="#3a7ff261p" x="323.3367" y="252"/><use xlink:href="#3a7ff261q" x="330.0037" y="252"/><use xlink:href="#3a7ff261h" x="336.6707" y="252"/></g><g fill="#fff"><use xlink:href="#3a7ff261r" x="146.6667" y="266"/><use xlink:href="#3a7ff261h" x="153.3337" y="266"/><use xlink:href="#3a7ff261n" x="160.0007" y="266"/><use xlink:href="#3a7ff261j" x="166.6677" y="266"/><use xlink:href="#3a7ff261s" x="173.3347" y="266"/><use xlink:href="#3a7ff261t" x="180.0017" y="266"/><use xlink:href="#3a7ff261h" x="186.6687" y="266"/><use xlink:href="#3a7ff261k" x="193.3357" y="266"/><use xlink:href="#3a7ff261l" x="200.0027" y="266"/><use xlink:href="#3a7ff261u" x="206.6697" y="266"/><use xlink:href="#3a7ff261v" x="213.3367" y="266"/><use xlink:href="#3a7ff261w" x="220.0037" y="266"/><use xlink:href="#3a7ff261j" x="226.6707" y="266"/><use xlink:href="#3a7ff261h" x="233.3377" y="266"/><use xlink:href="#3a7ff261t" x="240.0047" y="266"/><use xlink:href="#3a7ff261l" x="246.6717" y="266"/><use xlink:href="#3a7ff261x" x="253.3387" y="266"/><use xlink:href="#3a7ff261n" x="260.0057" y="266"/><use xlink:href="#3a7ff261y" x="266.6727" y="266"/><use xlink:href="#3a7ff261l" x="273.3397" y="266"/><use xlink:href="#3a7ff261n" x="280.0067" y="266"/><use xlink:href="#3a7ff261p" x="286.6737" y="266"/><use xlink:href="#3a7ff261z" x="293.3407" y="266"/><use xlink:href="#3a7ff261l" x="300.0077" y="266"/><use xlink:href="#3a7ff261t" x="306.6747" y="266"/><use xlink:href="#3a7ff261h" x="313.3417" y="266"/><use xlink:href="#3a7ff261o" x="320.0087" y="266"/><use xlink:href="#3a7ff261n" x="326.6757" y="266"/><use xlink:href="#3a7ff261j" x="333.3427" y="266"/><use xlink:href="#3a7ff261h" x="340.0097" y="266"/><use xlink:href="#3a7ff261z" x="346.6767" y="266"/><use xlink:href="#3a7ff261l" x="353.3437" y="266"/><use xlink:href="#3a7ff261o" x="360.0107" y="266"/><use xlink:href="#3a7ff261h" x="366.6777" y="266"/><use xlink:href="#3a7ff261j" x="373.3447" y="266"/><use xlink:href="#3a7ff261j" x="380.0117" y="266"/><use xlink:href="#3a7ff261h" x="386.6787" y="266"/><use xlink:href="#3a7ff261t" x="393.3457" y="266"/><use xlink:href="#3a7ff261A" x="400.0127" y="266"/><use xlink:href="#3a7ff261l" x="406.6797" y="266"/><use xlink:href="#3a7ff261B" x="413.3467" y="266"/><use xlink:href="#3a7ff261A" x="420.0137" y="266"/><use xlink:href="#3a7ff261A" x="426.6807" y="266"/><use xlink:href="#3a7ff261C" x="433.3477" y="266"/><use xlink:href="#3a7ff261D" x="440.0147" y="266"/><use xlink:href="#3a7ff261E" x="446.6817" y="266"/></g></svg>