<?xml version='1.0' encoding='UTF-8'?>
<svg xmlns="http://www.w3.org/2000/svg" xmlns:xlink="http://www.w3.org/1999/xlink" width="310px" height="280px" viewBox="0 0 310 280" x="0px" y="0px" enable-background="new 0 0 310 280"><defs><symbol overflow="visible" id="c353e1bea"><path d="M28.77-22.52c0-9.09-5.14-14.23-15.7-14.23H1.56v8.77h9.32c6.16 0 8.76 2.26 8.76 8.07V0h9.14zm0 0"/></symbol><symbol overflow="visible" id="c353e1beb"><path d="M36.72-18.86c0-11.95-3.92-18.56-13.34-18.56-1.44 0-4.24.36-5.33.67v8.66a9.4 9.4 0 013.25-.61c4.45 0 6.4 3.18 6.4 10.14 0 7.43-2.07 11.4-7.86 11.4-5.57 0-7.84-3.96-7.84-11.4v-18.19H2.86v18.64C2.86-6.19 8.3.92 19.66.92c11.57 0 17.06-7.4 17.06-19.78zm0 0"/></symbol><symbol overflow="visible" id="c353e1bec"><path d="M17.4-37.67c-9.71 0-15.18 4.94-15.18 12.4 0 7.8 4.8 10.77 11.44 10.77 1.95 0 3.43-.25 4.5-.53v-6.36c-.85.27-1.68.36-2.61.36-2.66 0-4.36-1.22-4.36-3.75 0-2.8 1.92-4.63 6.1-4.63 4.96 0 8.04 3.54 8.04 10.79 0 7.62-3.6 11.46-11.19 11.46-3.87 0-6.31-.6-9.78-1.86v8.13C7.4.28 10.78.92 15.3.92c12.5 0 19.17-7.3 19.17-19.6 0-12.2-6.44-19-17.06-19zm0 0"/></symbol><symbol overflow="visible" id="c353e1bed"><path d="M18.83 0h9.15v-27.98h4.08v-8.77H1.55v8.77h17.28zm0 0"/></symbol><symbol overflow="visible" id="c353e1bee"><path d="M2.53 0h8.78l1.8-12.9c.42-2.37 1.03-3.58 1.7-4.57L26.51 0h10.3L26.48-15.45c3.97-2.35 5.97-5.58 7.32-11.46l2.4-9.84h-8.8l-1.68 7.03c-.8 3.63-1.58 6.44-3.11 8.49-3.47-5.2-6.94-10.38-10.4-15.52H1.93c2.9 4.36 5.81 8.69 8.72 13.05-2.69 1.82-4.8 4.9-5.7 10.26zm0 0"/></symbol><symbol overflow="visible" id="c353e1bef"><path d="M7.4 0L4.79-8.1H3.23L.6 0h1.18l.51-1.77h3.35L6.19 0zM3.95-7.13h.1l1.32 4.47h-2.8zm0 0"/></symbol><symbol overflow="visible" id="c353e1beg"><path d="M3.42.17c1.13 0 1.77-.5 2.1-1.26h.07L5.75 0h.92v-8.58H5.53v3.56h-.08c-.34-.75-1.04-1.17-2.01-1.17C1.64-6.19.72-5 .72-3.02c0 2 .92 3.2 2.7 3.2zm.27-.95c-1.2 0-1.8-.74-1.8-2.22 0-1.52.6-2.23 1.78-2.23 1.35 0 1.9.95 1.9 2.23 0 1.27-.55 2.22-1.88 2.22zm0 0"/></symbol><symbol overflow="visible" id="c353e1beh"><path d="M3.4.17C4.51.17 5.2-.3 5.57-.97h.08l.12.97h.9v-4.05c0-1.48-.82-2.15-2.54-2.15-1.73 0-2.44.75-2.6 1.9l1.1.11c.13-.7.52-1.1 1.47-1.1 1.01 0 1.47.37 1.47 1.23v.42l-2.17.23c-1.49.18-2.08.82-2.08 1.86 0 1.13.76 1.72 2.06 1.72zm.29-.92c-.81 0-1.2-.33-1.2-.9 0-.52.32-.87 1.2-.96l1.89-.23v.48c0 .95-.75 1.61-1.9 1.61zm0 0"/></symbol><symbol overflow="visible" id="c353e1bei"><path d="M2.47 2.27V-1h.06c.35.69.95 1.17 2.13 1.17 1.8 0 2.62-1.19 2.62-3.19 0-1.98-.83-3.17-2.6-3.17-1.18 0-1.8.53-2.15 1.27h-.08l-.15-1.1h-.97v8.29zm1.8-3.05C3-.78 2.44-1.75 2.44-3.02c0-1.26.56-2.21 1.83-2.21 1.34 0 1.84.71 1.84 2.21S5.6-.78 4.27-.78zm0 0"/></symbol><symbol overflow="visible" id="c353e1bej"><path d="M6.63-5.1v-.92H3.8v-1.87h-.98l-.17 1.87H.9v.91h1.75v2.88c0 1.57.57 2.35 2.21 2.35.65 0 1.29-.12 1.79-.3l-.18-.9a3.9 3.9 0 01-1.34.22c-.97 0-1.33-.44-1.33-1.47V-5.1zm0 0"/></symbol><symbol overflow="visible" id="c353e1bek"><path d="M6.9-2.69v-.5C6.9-5.13 5.82-6.2 4-6.2 2.17-6.2 1.06-5 1.06-2.98c0 2.06 1.08 3.15 3 3.15C5.75.17 6.52-.5 6.8-1.64l-1.08-.13c-.24.75-.7 1.07-1.64 1.07-1.11 0-1.81-.64-1.88-1.99zM4-5.33c1.14 0 1.75.61 1.8 1.88H2.22c.1-1.28.7-1.88 1.78-1.88zm0 0"/></symbol><symbol overflow="visible" id="c353e1bel"><path d="M6.1-6.19c-1.12 0-1.9.52-2.3 1.57h-.08l-.11-1.4H1.27v.91h1.32v4.19H1.14V0H5.9v-.92H3.73v-1.75c0-1.64.7-2.46 2.2-2.46.48 0 .91.08 1.32.2l.17-1.05c-.39-.13-.83-.2-1.33-.2zm0 0"/></symbol><symbol overflow="visible" id="c353e1ben"><path d="M2.28 0v-3.64h3.44V0h1.17v-8.1H5.72v3.46H2.28v-3.47H1.11V0zm0 0"/></symbol><symbol overflow="visible" id="c353e1beo"><path d="M4.69.17c1.76 0 2.6-1.19 2.6-3.17 0-2-.84-3.19-2.6-3.19-1.1 0-1.8.49-2.14 1.2h-.08v-3.59H1.33V0h.97l.15-1.1h.07c.34.77.96 1.27 2.17 1.27zm-.4-.95C3-.78 2.45-1.75 2.45-3c0-1.28.56-2.23 1.86-2.23S6.1-4.52 6.1-3c0 1.48-.52 2.22-1.8 2.22zm0 0"/></symbol><symbol overflow="visible" id="c353e1bep"><path d="M2.92 0l1.05-3.98h.08L5.09 0h1.27l1.23-6.02H6.55l-.9 4.72h-.07L4.52-5.28h-1L2.45-1.3h-.08l-.9-4.72H.4L1.64 0zm0 0"/></symbol><symbol overflow="visible" id="c353e1beq"><path d="M1.1-8.1V0h2.54c2.44 0 3.63-1.25 3.63-4.05 0-2.84-1.2-4.06-3.52-4.06zM2.29-.96v-6.2H3.7c1.55 0 2.36.74 2.36 3.1 0 2.35-.81 3.1-2.36 3.1zm0 0"/></symbol><symbol overflow="visible" id="c353e1ber"><path d="M4.3-6.97c.5 0 .86-.28.86-.81S4.8-8.6 4.3-8.6c-.53 0-.86.28-.86.8 0 .54.33.82.86.82zm.6.95H1.82v.91h1.92v4.19H1.56V0h5.38v-.92H4.89zm0 0"/></symbol><symbol overflow="visible" id="c353e1bes"><path d="M4.02.19c1.7 0 2.65-.72 2.65-1.88 0-1.06-.65-1.45-1.76-1.67L3.6-3.6c-.81-.16-1.03-.37-1.03-.87 0-.6.45-.88 1.4-.88 1 0 1.43.31 1.52.95l1.1-.06c-.16-1.2-.97-1.75-2.63-1.75-1.61 0-2.5.63-2.5 1.8 0 .97.53 1.47 1.81 1.72l1.25.23c.67.14 1.03.3 1.03.88 0 .62-.53.93-1.53.93-1.16 0-1.62-.32-1.7-1.04l-1.1.07C1.3-.43 2.17.2 4.02.2zm0 0"/></symbol><symbol overflow="visible" id="c353e1bet"><path d="M4.7-8.58H1.64v.92h1.92v6.74h-2.2V0h5.47v-.92H4.7zm0 0"/></symbol><symbol overflow="visible" id="c353e1beu"><path d="M4.1-1.03h-.08L2.1-6.02H.95L3.28 0h.49c-.4 1.14-.86 1.52-1.74 1.52-.26 0-.58-.04-.84-.1l-.11.9c.25.06.7.12 1.04.12 1.46 0 2.05-.85 2.66-2.44L7.1-6.02H6zm0 0"/></symbol></defs><use xlink:href="#c353e1bea" x="64.97333" y="145"/><use xlink:href="#c353e1beb" x="96.88373" y="145"/><use xlink:href="#c353e1bec" x="135.83413" y="145"/><use xlink:href="#c353e1bed" x="172.48053" y="145"/><g><use xlink:href="#c353e1bee" x="206.31093" y="145"/></g><g fill-opacity=".33"><use xlink:href="#c353e1bef" x="67" y="230"/><use xlink:href="#c353e1beg" x="75.0004" y="230"/><use xlink:href="#c353e1beh" x="83.0008" y="230"/><use xlink:href="#c353e1bei" x="91.0012" y="230"/><use xlink:href="#c353e1bej" x="99.0016" y="230"/><use xlink:href="#c353e1bek" x="107.002" y="230"/><use xlink:href="#c353e1bel" x="115.0024" y="230"/><use xlink:href="#c353e1bem" x="123.0028" y="230"/><use xlink:href="#c353e1ben" x="131.0032" y="230"/><use xlink:href="#c353e1bek" x="139.0036" y="230"/><use xlink:href="#c353e1beo" x="147.004" y="230"/><use xlink:href="#c353e1bel" x="155.0044" y="230"/><use xlink:href="#c353e1bek" x="163.0048" y="230"/><use xlink:href="#c353e1bep" x="171.0052" y="230"/><use xlink:href="#c353e1bem" x="179.0056" y="230"/><use xlink:href="#c353e1beq" x="187.006" y="230"/><use xlink:href="#c353e1ber" x="195.0064" y="230"/><use xlink:href="#c353e1bes" x="203.0068" y="230"/><use xlink:href="#c353e1bei" x="211.0072" y="230"/><use xlink:href="#c353e1bet" x="219.0076" y="230"/><use xlink:href="#c353e1beh" x="227.008" y="230"/><use xlink:href="#c353e1beu" x="235.0084" y="230"/></g></svg>