<?xml version='1.0' encoding='UTF-8'?>
<svg xmlns="http://www.w3.org/2000/svg" xmlns:xlink="http://www.w3.org/1999/xlink" width="1280px" height="800px" viewBox="0 0 1280 800" x="0px" y="0px" enable-background="new 0 0 1280 800"><defs><symbol overflow="visible" id="5b5d0595a"><path d="M21.625-74.5l5.64-7.453 9.876 7.453 7.609-10.047-10.984-8.328-5.625 7.453-9.875-7.453-7.61 10.094zm8.172 76.156c15.89 0 24.172-10.375 24.172-24.937 0-15.344-9.594-30.578-31.782-42.938L11.376-50.984c1.594.937 3.078 1.875 4.516 2.75-7.344 8.828-10.375 17.062-10.375 25.28 0 14.673 8.28 24.61 24.28 24.61zm.11-23.734c-4.298 0-10.485-.985-10.485-4.078 0-2.266 1.875-6.297 9.281-13.14 8.156 6.468 11.14 10.874 11.14 13.14 0 3.093-3.859 4.078-9.937 4.078zm0 0"/></symbol><symbol overflow="visible" id="5b5d0595b"><path d="M31.672 0h1v-23.625h-1.328c-5.078 0-6.063-.984-6.063-7.281v-50.766H6.078v54.406C6.078-9.156 12.578 0 31.672 0zm0 0"/></symbol><symbol overflow="visible" id="5b5d0595c"><path d="M0 0h3.969C10.656 0 16.28-1.328 19.75-5.078 23.281-1.328 28.969 0 33.328 0h2.766v-23.625h-.547c-2.766 0-4.484-.547-5.469-2.031-.828-1.157-1.156-2.875-1.156-5.36v-16.437H12.687v15.562c0 2.594-.265 4.797-1.812 6.282-1.266 1.265-3.484 1.984-7.125 1.984H0c-7.5 0-11.031 3.984-11.031 12.813C-11.031-2.533-6.625 0 0 0zm7.344 29.406l5.625-7.437 9.875 7.437 7.625-10.031-10.985-8.344-5.64 7.453-9.875-7.453-7.61 10.11zm0 0"/></symbol><symbol overflow="visible" id="5b5d0595d"><path d="M0 0h14.563C33.108 0 42.328-4.797 53.14-13.406 58.39-.72 68.203 0 79.14 0h5.078v-23.625H65.89l3.359-2.094c1.39-.875 2.875-1.593 4.422-2.047 1.266-.437 2.656-.703 4.031-.812v-20.094c-5.187 0-12.422-1.719-20.312-3.594-7.828-1.875-16.282-3.906-24-4.515-1.5-.11-2.922-.172-4.36-.172-16.281 0-23.297 10.375-23.297 27.156H21.97c.656-5.297 2.812-7.172 8.61-7.172.983 0 2.093.047 3.312.11 2.593.218 5.515.547 8.609.984 3.031.453 6.234 1 9.266 1.547-.891.672-1.72 1.266-2.594 1.937l-.89.657c-8.985 6.797-19.579 8.109-26.423 8.109H0c-7.5 0-11.031 3.984-11.031 12.813C-11.031-2.533-6.625 0 0 0zm0 0"/></symbol><symbol overflow="visible" id="5b5d0595e"><path d="M0 0h2.594c21.468 0 27.203-12.797 27.203-35.766v-45.906H10.594v48.563c0 8.28-1.985 9.484-7.89 9.484H0c-7.5 0-11.031 3.984-11.031 12.813C-11.031-2.533-6.625 0 0 0zm0 0"/></symbol><symbol overflow="visible" id="5b5d0595f"><path d="M6.078 0h19.203v-81.672H6.078zm0 0"/></symbol><symbol overflow="visible" id="5b5d0595h"><path d="M7.5 32.344h18.547C25.172 16.437 24.5 4.969 24.5-1.438c0-2.859.89-4.187 4.25-4.187 6.625 4.25 14.297 7.063 21.906 7.063 14.797 0 20.313-10.594 20.313-23.954 0-17-11.14-30.687-25.063-30.687-11.031 0-16.765 6.734-21.625 17.437-1.265 2.813-2.984 6.125-3.86 9.828C9.548-24.063 5.517-16.108 5.517-5.297c0 8.5 1.109 24.063 1.984 37.64zM50.984-20.86c-3.53 0-7.937-.61-11.14-1.985-3.532-1.5-3.75-2.984-2.422-5.187 1.594-2.703 3.75-4.422 7.281-4.422 5.125 0 12.688 3.984 12.688 8.719 0 2.109-2.75 2.875-6.407 2.875zm0 0"/></symbol><symbol overflow="visible" id="5b5d0595i"><path d="M24 26.766C39.844 26.766 49.328 15.28 53.203 0h7.61v-23.625h-5.844a59.205 59.205 0 00-.672-4.516c-2.64-14.578-10.86-26.937-25.828-26.937-12.907 0-22.953 14.016-22.953 31.453C5.516-8.937 14.906-2.312 32-2.312c2.547 0 5.078-.172 7.188-.344-4.47 5.531-13.97 8.453-26.5 8.453-2.25 0-4.688-.063-7.172-.281v18.437C12.312 25.61 18.484 26.766 24 26.766zm6.797-50.172c-8.828 0-11.485-2.094-11.594-3.86-.11-2.968 4.313-5.734 9.375-5.734 6.688 0 10.656 4.422 11.656 9.594zm0 0"/></symbol><symbol overflow="visible" id="5b5d0595j"><path d="M0 0h5.406c7.563 0 12.14-2.094 14.907-5.078C23.172-2.047 27.922 0 34.108 0h3.97v-23.625h-.657c-4.594 0-6.516-1.813-6.516-6.953v-51.094H11.703v50.656c0 5.844-3.312 7.391-8.719 7.391H0c-7.5 0-11.031 3.984-11.031 12.813C-11.031-2.533-6.625 0 0 0zm0 0"/></symbol><symbol overflow="visible" id="5b5d0595k"><path d="M0 0h4.422c18.312 0 37.187-1.328 53.64-7.953v-21.188c-10.5 3.75-18.437 5.516-25.171 5.516-1.828 0-3.532-.266-5.078-.719-4.907-1.422-7.954-4.906-7.954-8.547 0-4.297 5.97-6.953 11.703-6.953 4.97 0 8.5.657 15.125 2.203l3.641-17.328c-6.625-2.86-14.125-4.734-20.969-4.734-15.453 0-25.5 12.797-25.5 26.812 0 3.032.5 6.188 1.5 9.266H0c-7.5 0-11.031 3.984-11.031 12.813C-11.031-2.533-6.625 0 0 0zm0 0"/></symbol><symbol overflow="visible" id="5b5d0595l"><path d="M39.188 27.594c15.609 0 30.406-7.782 30.406-21.469 0-2.375-1.11-4.469-3.313-6.125H73.5v-7.89H41.437V0h2.376C57.5 0 63.186 2.813 63.186 7.453c0 6.844-11.593 12.25-24.062 12.25-17.156 0-25.5-8.937-25.5-23.187 0-5.625 1.438-12.141 3.922-19.25h-7C8.062-15.391 6.672-8.5 6.672-2.204c0 17.938 10.719 29.798 32.516 29.798zm-4.641 22.625l4.469-5.907-7.563-5.687-4.469 5.906zm12.531 0l4.406-5.907-7.562-5.687-4.406 5.906zm0 0"/></symbol><symbol overflow="visible" id="5b5d0595m"><path d="M0 0h3.313c5.953 0 11.093-1.11 13.953-5.188C20.422-.827 24.28 0 29.296 0h2v-7.89h-1.655c-6.797 0-8.563-2.766-8.563-10.094v-63.688h-7v63.453c0 8.016-2.11 10.328-8.719 10.328H0c-3.14 0-3.922 1.329-3.922 3.86C-3.922-1.266-3.14 0 0 0zm0 0"/></symbol><symbol overflow="visible" id="5b5d0595n"><path d="M36.313-49.281l4.64-6.188-7.844-5.843-4.64 6.078zM0 0h7.672c17.375 0 27.047-3.484 40.39-14.297l7.626-5.625c3.421-2.594 5.953-4.14 9.546-4.797 1.157-.218 2.422-.328 3.797-.328V-32.5c-7.719 0-17.265-2.047-26.203-3.984-6.406-1.375-12.594-2.703-17.547-3.188a29.318 29.318 0 00-3.765-.234c-9.875 0-14.563 6.14-14.563 16.672h6.344c0-6.125 2.328-9.438 8.61-9.438.937 0 2.046.063 3.312.172 4.031.438 9.547 1.547 15.281 2.703 4.86.985 9.938 1.985 14.406 2.531-2.265 1.547-4.578 3.266-6.781 4.813l-5.406 3.75C32.78-11.031 24.453-7.891 7.672-7.891H0c-3.14 0-3.922 1.329-3.922 3.86C-3.922-1.266-3.14 0 0 0zm0 0"/></symbol><symbol overflow="visible" id="5b5d0595o"><path d="M7.719 0h7.015v-81.672H7.72zm0 0"/></symbol><symbol overflow="visible" id="5b5d0595p"><path d="M24.281 0h4.907c12.359 0 18.218-5.516 18.218-15.063 0-2.203-.328-4.64-.89-7.28-1.813-7.735-6.391-17.11-13.953-27.985l-5.97 4.078c7.735 11.484 11.704 19.438 13.141 25.328.547 2.11.766 3.922.766 5.531 0 6.344-4.844 7.5-12.86 7.5H25c-9.375 0-11.75-1.265-11.75-8.609v-2.313H6.625v3.36C6.625-3.97 12.313 0 24.281 0zm0 0"/></symbol><symbol overflow="visible" id="5b5d0595r"><path d="M8.938 32.719h7.171c-1.437-15.563-2.593-27.422-2.593-35.094 0-4.25 1.609-6.406 6.125-5.953C25.547-2.703 33.766.89 40.39.828c5.03 0 8.672-2.422 10.937-6.297C53.36-1.437 57.61 0 62.688 0v-7.89c-5.954 0-8.391-2.094-8.391-8.829 0-12.968-7.5-23.734-19.094-23.734-9.375 0-14.344 8.281-17.437 16.937-.766 2.375-1.703 5.532-1.875 8.125-6.282.547-9.266 4.907-9.266 13.016 0 7.625 1.156 21.406 2.313 35.094zM40.39-7.016c-5.188 0-12.36-2.921-16.282-7.39-1.812-2.203-1.703-4.14.063-8 2.484-5.578 5.797-10.266 11.031-10.266 7.516 0 13.031 6.516 13.031 15.281 0 4.75-1.609 10.328-7.843 10.375zm0 0"/></symbol><symbol overflow="visible" id="5b5d0595s"><path d="M37.078.828c4.969 0 8.672-2.422 10.875-6.297C50-1.437 54.25 0 59.328 0v-7.89c-5.969 0-8.39-2.094-8.39-8.829 0-12.968-7.454-23.734-19.047-23.734-8.61 0-13.344 6.844-16.61 14.578l-2.094 5.188C8.938-9.829 6.954-7.892 1.938-7.892H0c-3.14 0-3.922 1.329-3.922 3.86C-3.922-1.266-3.14 0 0 0h2.156c7.172 0 10.266-2.531 13.297-9C21.578-2.984 30.125.89 37.078.828zm0-7.844c-5.187 0-12.406-2.921-16.328-7.39-1.828-2.203-1.656-4.14.063-8 2.468-5.578 5.78-10.266 11.03-10.266 7.5 0 13.079 6.516 13.079 15.281 0 4.75-1.656 10.328-7.844 10.375zm0 0"/></symbol><symbol overflow="visible" id="5b5d0595t"><path d="M0 0h49.938c6.796 0 13.296-.5 17.718-3.703C72.516-.547 77.75 0 83.046 0v-7.89c-5.187 0-8.218-.329-10.859-2.204.829-2.11 1.266-4.578 1.266-7.625 0-13.906-8.719-23.453-21.187-23.453-9.11 0-19.813 6.188-32.172 21.688l-1.219-17.657h-6.797l1.5 22.47c.39 6.062-.89 6.78-5.797 6.78H0c-3.14 0-3.922 1.329-3.922 3.86C-3.922-1.266-3.14 0 0 0zm18.813-7.89C32.78-26.485 43.483-33.329 52.047-33.329c9.422 0 15 7.5 15 15.562 0 8.828-6.734 9.875-17.984 9.875zm0 0"/></symbol><symbol overflow="visible" id="5b5d0595u"><path d="M37.078.828c9.219-.062 13.86-7.672 13.86-17.547 0-12.968-7.454-23.734-19.047-23.734-8.61 0-13.344 6.844-16.61 14.578-.765 1.875-1.484 3.688-2.094 5.188C8.938-9.829 6.954-7.892 1.938-7.892H0c-3.14 0-3.922 1.329-3.922 3.86C-3.922-1.266-3.14 0 0 0h2.156c7.172 0 10.266-2.531 13.297-9C21.578-2.984 30.125.89 37.078.828zm0-7.844c-5.187 0-12.406-2.921-16.328-7.39-1.828-2.203-1.656-4.14.063-8 2.468-5.578 5.78-10.266 11.03-10.266 7.5 0 13.079 6.516 13.079 15.281 0 4.75-1.656 10.328-7.844 10.375zm0 0"/></symbol><symbol overflow="visible" id="5b5d0595v"><path d="M42.203-52.36l6.781-8.234 10.157 8.235 7-8.532-10.157-8.343-6.953 8.28L39-69.186l-7.063 8.53zM29.078 0H74.61C88.734 0 94.75-6.828 94.75-20.547c0-1.469-.063-2.922-.172-4.562-.766-8.875-1.516-18.5-2.219-26.797L77.875-50.61c.828 8.578 1.578 17.156 2.39 25.859.126 1.625.235 2.797.235 3.734 0 2.797-1.047 2.86-5.781 2.86H29.125c-8.578 0-8.64 0-8.64-8.063V-46h-14v25.328C6.484-6.359 12.78 0 29.077 0zm0 0"/></symbol><symbol overflow="visible" id="5b5d0595w"><path d="M7.36 0h14.89v-87.563H7.36zm0 0"/></symbol><symbol overflow="visible" id="5b5d0595x"><path d="M2.922 29.125c21.547 0 30.406-10.5 33.094-29.422C38.594 0 41.156 0 43.609 0h2.516v-18.156h-7.594c-1.515 0-1.64 0-1.687-1.344-.125-8.281-.766-18.031-1.578-27.547L20.78-46C21.953-34.031 23-21.14 23-13.61 23 4.438 18.797 12.204-.406 12.204c-1.172 0-2.39 0-3.625-.062l1.172 16.75c1.984.125 3.906.234 5.78.234zm0 0"/></symbol><symbol overflow="visible" id="5b5d0595y"><path d="M51.313.64c13.546 0 20.609-6.827 20.609-21.078 0-13.484-9.578-32.28-40.688-52.015l-8.468 13.078C33.28-53.125 41.046-47 46.53-41.515c8.344 8.296 11.735 15.484 11.735 20.328 0 4.25-2.282 5.78-5.61 5.78-2.797 0-6.765-.702-9.578-1.343 1.984-2.344 3.797-6.188 3.969-11.156.469-11.157-8.578-23.063-19.906-23.64-11.203-.595-20.547 10.624-21.25 23.343-.344 3.687.64 7.125 2.859 10.047H0c-5.89 0-7.188 2.453-7.188 8.875C-7.188-2.562-5.718 0 0 0h3.5c9.516 0 18.797-.766 25.344-3.203C37.828-.641 45.125.64 51.312.64zm-25.22-21.359c-5.187-.593-8.75-4.625-8.515-8.828.172-4.484 4.672-9.047 9.281-8.687 4.672.28 8.985 5.078 8.75 10.03-.234 4.673-5.187 7.954-9.515 7.485zm0 0"/></symbol><symbol overflow="visible" id="5b5d0595z"><path d="M18.625 29.484c20.61 0 31.172-11.093 34.328-29.484h9.688v-18.156h-8.875c-.063-1.813-.235-3.328-.407-4.844-1.453-16.063-8.64-27.438-22.468-27.438-15.422 0-24.407 12.782-24.407 28.313 0 16 9.625 22.016 25.563 22.016 3.156 0 6.14-.188 8.937-.532C37.72 8.641 30.125 12.672 18.22 12.672c-3.047 0-6.375-.235-9.813-.64l1.172 16.812c3.031.343 6.063.64 9.047.64zM31.469-17.28c-7.828 0-11.907-1.516-11.907-6.532 0-5.5 3.61-10.453 10.438-10.453 7.594 0 11.281 5.72 11.047 16.875-3.281.047-6.61.11-9.578.11zm0 0"/></symbol><symbol overflow="visible" id="5b5d0595A"><path d="M0 0h15.234C37.36 0 47.812-3.797 59.656-15.406 64.563-4.61 75.422 0 89.61 0h3.86v-18.156H90.14c-8.579 0-16.235-1.282-20.954-7.766l4.079-4.437c.812-.875.812-.938 2.046-.703 2.735.359 5.485.828 8.235 1.171l2.266-14.25c-9.282-1.515-18.5-2.968-27.782-4.437-8.468-1.344-16.937-2.734-25.39-4.016-2.172-.36-4.203-.531-6.078-.531-11.563 0-17.86 6.484-17.516 21.781l13.781.813c0-4.969 1.453-6.719 5.781-6.719 1.282 0 2.797.125 4.61.406 5.422.766 10.922 1.578 16.406 2.344 2.39.344 4.781.64 7.234.984a37.572 37.572 0 00-3.328 3.094l-1.86 1.813c-9.75 9.75-16.812 10.453-33.812 10.453H0c-5.89 0-7.188 2.453-7.188 8.875C-7.188-2.562-5.718 0 0 0zm41.734 28.375l7.485-9.11-10.922-8.937-7.594 9.11zm0 0"/></symbol><symbol overflow="visible" id="5b5d0595B"><path d="M42.39.172c5.766 0 10.438-1.688 13.657-5.078C59.484-.172 64.39 0 70 0v-18.156c-5.672-.063-8.703-.235-9-5.657-1.047-16.296-11.14-29.14-25.797-29.14-15.36 0-19.672 14.187-24.047 26.969l-1.75 4.843c-1 2.875-1.297 2.985-3.453 2.985H0c-5.89 0-7.188 2.453-7.188 8.875C-7.188-2.562-5.718 0 0 0h3.797c7.765 0 11.328-1.64 13.781-5.656C27.203-2.046 35.734.172 42.391.172zm.172-17.219c-4.156 0-11.5-1.812-17.171-3.625-1.22-1.281-.875-2.265.64-6 1.875-4.5 4.032-9.469 9.875-9.469 7 0 12.25 7.016 12.25 13.844 0 3.797-1.75 5.25-5.593 5.25zm0 0"/></symbol><symbol overflow="visible" id="5b5d0595C"><path d="M0 0h7.422c16.515 0 21.594-8 21.594-26.906v-60.657h-14.72v62.922c0 5.672-.343 6.485-5.718 6.485H0c-5.89 0-7.188 2.453-7.188 8.875C-7.188-2.562-5.718 0 0 0zm0 0"/></symbol><symbol overflow="visible" id="5b5d0595D"><path d="M10.703-22.156l1.031-1.407-1.75-1.312-1.046 1.39zm3.485 0l1.03-1.407-1.765-1.312-1.031 1.39zM17.047 0h.797v-.797h-.797c-3.172 0-4.172-1.125-4.172-4.61v-12.75h-.797v2.673c-5.562.406-9.672 3.765-9.672 8.046 0 2.72 2.031 4.485 5 4.485 1.438 0 3.547-.625 4.672-2.172C12.125-1.422 13.516 0 17.047 0zm-9.64-3.766c-2.563 0-4.204-1.437-4.204-3.671 0-4.438 4.64-6.875 8.875-7.25v6.64c0 .813-.078 1.547-.484 2.25-.5.875-2.281 2.031-4.188 2.031zm0 0"/></symbol><symbol overflow="visible" id="5b5d0595E"><path d="M0 0h2.313C5.874 0 7.734-.781 8.28-3.344c.094-.515.156-1.11.156-1.812 0-2.328-.562-5.203-1.671-8.64h-.891c1.172 3.515 1.766 6.437 1.766 8.718 0 .594-.047 1.125-.141 1.578C7.047-1.375 5.453-.797 2.312-.797H0c-.313 0-.484.11-.484.39 0 .25.078.407.484.407zm1.344 6.719l1.031-1.407L.625 4-.422 5.406zm3.468 0L5.86 5.312 4.094 4 3.062 5.406zm0 0"/></symbol><symbol overflow="visible" id="5b5d0595F"><path d="M-.797 7.36c.453.015.922.046 1.375.046C6.625 7.406 9 3.688 9-2.766c0-2.39-.313-5.312-.922-8.828h-.844c.61 3.313.97 6.313.97 8.828 0 6.563-2.47 9.407-7.97 9.407-.328 0-.671-.016-1.03-.047zm0 0"/></symbol><symbol overflow="visible" id="5b5d0595G"><path d="M9 0h.594c2.125 0 5.172.14 5.922-2.5C16.687-.406 18.046 0 19.562 0h.36v-.797h-.36c-1.609 0-2.718-.406-3.921-3.281l-5.204-12.406-.718.328 4.844 11.562c.171.438.28.875.28 1.282 0 1.406-1.25 2.515-4.327 2.515H8.687c-3.28 0-5.562 0-5.562-3.25v-1.64h-.719v1.562C2.406 0 5.312 0 9 0zm0 0"/></symbol><symbol overflow="visible" id="5b5d0595H"><path d="M7.594-15.594L8.64-17l-1.766-1.313-1.031 1.391zM0 0h3.797C6.734 0 8.078-1.063 8.64-2.734 9.312-.797 10.766 0 13.203 0h.672v-.797h-.672c-1.5 0-2.484-.328-3.14-1-.766-.828-1.016-2.156-1.016-4.125v-5.672h-.813v5.672c0 2.078-.296 3.406-1.093 4.188-.704.671-1.766.937-3.344.937H0c-.313 0-.484.11-.484.39 0 .25.078.407.484.407zm0 0"/></symbol><symbol overflow="visible" id="5b5d0595I"><path d="M0 0h4.563c3.296 0 5.656-.625 7.125-1.86C12.812-.218 14.344 0 16.843 0v-.797c-2.469 0-3.625-.14-4.61-1.64.782-.938 1.172-2.141 1.172-3.61 0-4.25-3.219-8.969-11.062-16.25l14.531-6.422v-.875L1.562-22.766v.813c7.844 7.312 11.032 11.906 11.032 15.906 0 3.563-2.547 5.25-8.031 5.25H0c-.313 0-.484.11-.484.39 0 .25.078.407.484.407zm0 0"/></symbol><symbol overflow="visible" id="5b5d0595J"><path d="M0 0h2.125c2.75 0 4.016-1.094 4.563-2.703C7.405-.797 8.858 0 11.078 0c2.5 0 4.14-.922 4.797-2.719C16.515-.797 17.859 0 20.203 0h.031c3.078 0 4.344-1.703 4.61-4.188.015-.296.031-.625.031-.968 0-1.719-.39-3.89-1.188-6.438h-.89c.844 2.64 1.281 4.797 1.281 6.516 0 .297-.015.578-.031.844-.235 2.03-1.313 3.437-3.813 3.437h-.03c-2.892 0-3.923-1.281-3.923-5.125v-5.672h-.797v6.39c0 3.204-1.687 4.407-4.406 4.407-1.437 0-2.562-.437-3.234-1.515-.485-.813-.719-1.97-.61-3.61l.36-5.672h-.797l-.36 5.672C6.204-2.359 5.407-.797 2.125-.797H0c-.313 0-.484.11-.484.39 0 .25.078.407.484.407zm0 0"/></symbol><symbol overflow="visible" id="5b5d0595K"><path d="M2.406.281c1.36.156 2.64.235 3.797.235 4.86 0 8-1.422 9.797-4.313 1.313-2.203 1.922-5.156 1.922-9.047v-16.75h-.797v16.75c0 8.766-2.89 12.563-10.969 12.563-1.156 0-2.39-.078-3.75-.235zm6.719-4.437c.188 0 .594-.125.75-.282C9.594-9.483 7-16.358 3.953-22.313h-.906c3.719 7.266 6 14.235 6.078 18.157zM3.062 10.766L10.939 10v-.797l-1.922.203c-.782.078-1.422 0-1.922-.187-1.047-.375-1.547-1.203-1.547-2.094 0-.938.719-1.844 2.11-1.844.5 0 1.109.125 1.796.407l.25-.813c-.719-.297-1.406-.438-2.015-.438-1.75 0-2.907 1.125-2.907 2.688 0 1.063.578 2.11 1.422 2.578l-3.14.25zm0 0"/></symbol><symbol overflow="visible" id="5b5d0595L"><path d="M2.797 0h.797v-29.594h-.797zm0 0"/></symbol><symbol overflow="visible" id="5b5d0595N"><path d="M0 0h1.406c3.032 0 6-.688 9.156-2.188C12.906-.766 15.517 0 18.735 0h1.172v-.797h-1.172c-2.812 0-5.156-.64-7.28-1.765 2.312-1.235 4.124-2.797 4.858-4.532.094-.14.141-.36.25-.718.25-.907-.14-2.532-.406-2.954a3.777 3.777 0 00-.562-.671C14.5-12.485 12.64-13 10.5-13c-2.438 0-5.203.64-7.766 1.953v.969C4.954-7 7.22-4.453 9.813-2.703 6.905-1.406 4.186-.797 1.405-.797H0c-.313 0-.484.11-.484.39 0 .25.078.407.484.407zm10.656-3.047C8.062-4.719 5.812-7.234 3.5-10.484l-.047-.032c2.328-1.125 4.89-1.718 7.047-1.718 2.313 0 4.203.64 5 1.953.375.594.484 1.375.344 2.078-.39 1.969-2.485 3.781-5.188 5.156zm0 0"/></symbol><symbol overflow="visible" id="5b5d0595O"><path d="M12.953.797c2.735-.031 4.453-2.485 4.453-6.11 0-4.125-2.531-7.093-5.922-7.093-2.796 0-4.14 2.219-5.546 5.281-.094.219-.204.469-.297.688C4.047-2.688 3.312-.798.844-.798H0c-.313 0-.484.11-.484.39 0 .25.078.407.484.407h.766C3 0 4.046-1.094 5.078-3.266c2.063 2.36 5.5 4.11 7.875 4.063zm0-.797c-2 .047-4.906-1.406-6.906-3.36-.64-.64-.531-.843.312-2.765 1.485-3.281 2.516-5.438 5.047-5.438 3 0 5.188 2.516 5.188 6.25 0 2.157-.719 5.266-3.64 5.313zm0 0"/></symbol><symbol overflow="visible" id="5b5d0595P"><path d="M6.719 0h.484v-.797H6.72c-2.563 0-3.125-1.125-3.125-3.719v-25.078h-.797v25.078C2.797-1.312 3.687 0 6.719 0zm0 0"/></symbol><symbol overflow="visible" id="5b5d0595Q"><path d="M0 0h2.406c5.14 0 8.11-1.063 14.469-5.203 2 3.906 4.25 5.203 8.766 5.203h.922v-.797h-.922c-4.282 0-6.266-1.14-8.078-4.828l.937-.578c1.297-.813 2.578-1.516 4.016-1.844a8.544 8.544 0 011.562-.156V-9c-3.86 0-7.625-.86-10.812-1.594-1.813-.422-3.422-.812-4.782-.969-.468-.03-.89-.078-1.28-.078-2.579 0-3.798 1.375-3.798 4h.797c0-2.062.844-3.203 3-3.203.344 0 .703.031 1.078.063 1.516.156 3.453.594 5.485 1.062 2.39.563 4.937 1.125 7.171 1.313-.921.36-1.921.969-3.359 1.86L14-4.313C10.766-2.283 7.234-.797 2.406-.797H0c-.313 0-.484.11-.484.39 0 .25.078.407.484.407zm12.719 6.719l1.047-1.407L12 4l-1.047 1.406zm0 0"/></symbol><symbol overflow="visible" id="5b5d0595R"><path d="M0 0h2.313C5.874 0 7.734-.781 8.28-3.344c.094-.515.156-1.11.156-1.812 0-2.328-.562-5.203-1.671-8.64h-.891c1.172 3.515 1.766 6.437 1.766 8.718 0 .594-.047 1.125-.141 1.578C7.047-1.375 5.453-.797 2.312-.797H0c-.313 0-.484.11-.484.39 0 .25.078.407.484.407zm3.078 6.719l1.047-1.407L2.359 4 1.313 5.406zm0 0"/></symbol><symbol overflow="visible" id="5b5d0595S"><path d="M0 0h1.406c2.938 0 4.282-1.063 4.828-2.734C6.922-.797 8.36 0 10.797 0h.687v-.797h-.687c-3.203 0-4.156-1.515-4.156-5.125v-23.672h-.797v23.672c0 3.875-1.047 5.125-4.438 5.125H0c-.313 0-.484.11-.484.39 0 .25.078.407.484.407zm0 0"/></symbol><symbol overflow="visible" id="5b5d0595T"><path d="M0 0h3.797C6.734 0 8.078-1.063 8.64-2.734 9.312-.797 10.766 0 13.203 0h.672v-.797h-.672c-1.5 0-2.484-.328-3.14-1-.766-.828-1.016-2.156-1.016-4.125v-5.672h-.813v5.672c0 2.078-.296 3.406-1.093 4.188-.704.671-1.766.937-3.344.937H0c-.313 0-.484.11-.484.39 0 .25.078.407.484.407zm3.188 6.719l1.03-1.407L2.454 4 1.422 5.406zm3.468 0l1.047-1.407L5.937 4l-1.03 1.406zm0 0"/></symbol><symbol overflow="visible" id="5b5d0595U"><path d="M12.953.797c1.922-.016 3.344-1.25 4.031-3.25C17.547-.5 19.047 0 20.562 0v-.797c-2.437 0-3.156-1.484-3.156-4.516 0-4.125-2.531-7.093-5.922-7.093-2.796 0-4.14 2.219-5.546 5.281l-.297.688C4.047-2.688 3.312-.798.844-.798H0c-.313 0-.484.11-.484.39 0 .25.078.407.484.407h.766C3 0 4.046-1.094 5.078-3.266c2.063 2.36 5.5 4.11 7.875 4.063zm0-.797c-2 .047-4.906-1.406-6.906-3.36-.64-.64-.531-.843.312-2.765 1.485-3.281 2.516-5.438 5.047-5.438 3 0 5.188 2.516 5.188 6.25 0 2.157-.719 5.266-3.64 5.313zm0 0"/></symbol><symbol overflow="visible" id="5b5d0595V"><path d="M0 0h1.719c4.078 0 5.593-1.844 5.593-6.844v-22.75h-.796v22.75c0 4.563-1.204 6.047-4.797 6.047H0c-.313 0-.484.11-.484.39 0 .25.078.407.484.407zm0 0"/></symbol><symbol overflow="visible" id="5b5d0595W"><path d="M11.203-13.797l1.031-1.406-1.75-1.313-1.046 1.391zM10.156 7.047c5.844 0 9.047-3.484 9.047-9.813 0-2.718-.562-5.515-1.719-8.828h-.797c1.157 3.235 1.72 6.156 1.72 8.828 0 5.844-2.891 9-8.25 9-3.845 0-6.954-2.437-6.954-7.187 0-2.047.485-4.25 1.485-6.969h-.844C2.875-5.406 2.406-3.047 2.406-.953c0 5.234 3.438 8 7.75 8zm0 0"/></symbol><symbol overflow="visible" id="5b5d0595X"><path d="M6.438 7.86c4.687 0 6.843-3.376 7.468-7.86h3.328v-.797h-3.25c.079-.828.094-1.64.094-2.969 0-4.75-1.953-8.234-5.64-8.234C5.233-12 2.64-8.953 2.64-5.203 2.64-1.797 4.766 0 8.64 0h4.453c-.39 2.36-1.219 7.078-6.813 7.078-1.093 0-2.406-.203-3.875-.594v.75c1.36.391 2.719.625 4.031.625zm2.25-8.657c-3.485 0-5.25-1.437-5.25-4.406 0-3.313 2.25-6 5-6 3.062 0 5.515 3.265 4.765 10.406zm0 0"/></symbol><symbol overflow="visible" id="5b5d0595Y"><path d="M8.36-19.36l1.046-1.406-1.765-1.312-1.047 1.39zM0 0h1.438C3.796 0 6.64-.563 9.046-1.719c2.797 1.203 5.906 1.797 8 1.766l.75-.047v-.797h-1.11c-1.843 0-4.265-.437-6.734-1.39 2.188-1.032 4.485-3.25 4.485-5.86 0-4.953-3.485-7.312-5.438-7.312-1.953 0-5.688 2.203-5.688 7.437 0 2.64 2.172 4.547 4.782 5.781C6-1.219 3.563-.797 1.406-.797H0c-.313 0-.484.11-.484.39 0 .25.078.407.484.407zm9-2.688c-.766 0-4.875-2.234-4.875-5.234 0-4.719 3.078-6.64 4.875-6.64 1.797 0 4.64 2.046 4.64 6.515 0 3.125-3.843 5.36-4.64 5.36zm0 0"/></symbol><symbol overflow="visible" id="5b5d0595Z"><path d="M0 0h4.563c5.921 0 8.843-2 8.843-6.047 0-4.25-3.219-8.969-11.062-16.25l14.531-6.422v-.875L1.562-22.766v.813c7.844 7.312 11.032 11.906 11.032 15.906 0 3.563-2.547 5.25-8.031 5.25H0c-.313 0-.484.11-.484.39 0 .25.078.407.484.407zm0 0"/></symbol><symbol overflow="visible" id="5b5d0595aa"><path d="M12.406-14.063l1.969-2.609-3.36-2.547-1.968 2.625zm-.703 22.844c6.047 0 11.016-2.656 11.016-10.094 0-1.39-.219-3.14-1.36-12.624l-3.484.296C19.141-3.5 19.344-2 19.344-1.234c0 4.078-2.39 6.046-7.485 6.046-4.687 0-6.203-1.843-6.203-5.312 0-1.813.469-4.125 1.047-6.86l-3.36-.39c-.64 2.703-1.03 5.25-1.03 7.484 0 5.391 2.343 9.047 9.39 9.047zm0 0"/></symbol><symbol overflow="visible" id="5b5d0595ab"><path d="M8.625 0h.89v-3.922h-.234c-3.125 0-3.125 0-3.125-3.203v-21.766H2.703v23.375C2.703-1.625 4.5 0 8.625 0zm0 0"/></symbol><symbol overflow="visible" id="5b5d0595ac"><path d="M16.172 8.969l1.36-3.266c-.532-.156-1.204-.344-1.704-.5-.531-.172-.531-.172.047-1.312C17.313 1.047 18.313 0 20.641 0h1.125v-3.922h-.922c-3.36 0-5.438 1.547-7.75 6-.328.64-.672 1.297-1.016 1.922C8.922 2.89 7.36 1.89 6.688-.031c4.906-.25 9.64-2.11 9.64-7.25 0-4.578-2.687-8.625-6.36-8.625-4.921 0-7.077 6.86-7.077 11.75v.234H0c-1.578 0-1.922.64-1.922 1.922 0 1.39.375 2 1.922 2h3.39c1.25 4.547 4.985 6.813 12.188 8.797.188.062.406.125.594.172zM6.125-3.921V-4.5c0-3.813 1.578-7.64 3.844-7.64 1.89 0 3.172 2.359 3.172 5.046 0 2.547-3.313 3.172-7.016 3.172zm0 0"/></symbol><symbol overflow="visible" id="5b5d0595ad"><path d="M9.438-21.61l1.968-2.624-3.36-2.532-1.968 2.61zM0 0h1.5c3.297 0 6.219-.344 8.656-1.047C12.578-.344 15.5 0 18.687 0h1.5v-3.922h-2.734c-.703 0-1.36 0-2-.047 1.188-1.234 1.844-2.734 1.844-4.5 0-4.594-3.86-9.281-7.203-9.281-3.547 0-7.203 4.5-7.203 9.281 0 1.766.656 3.266 1.89 4.5-.656.047-1.312.047-2.047.047H0c-1.578 0-1.922.64-1.922 1.922 0 1.39.375 2 1.922 2zm10.125-4.656S5.969-5.313 5.969-8.86c0-2.313 1.953-5.125 4.125-5.125 1.984 0 4.125 3.156 4.125 5.312 0 3.36-4.094 4.016-4.094 4.016zm0 0"/></symbol><symbol overflow="visible" id="5b5d0595ae"><path d="M0 0h21.766c5.547 0 6.937-1.156 6.937-5.734 0-6.329-3.36-10.516-8.36-10.516-3.468 0-5.218 1.313-12.155 7.375l-.344-4.938-3.313.172L5-6.359c.156 2.437-.453 2.437-2.797 2.437H0c-1.578 0-1.922.64-1.922 1.922 0 1.39.375 2 1.922 2zm7.563-3.922c8.109-7.094 9.421-8.406 12.703-8.406 3.265 0 5.312 2.422 5.312 6.36 0 1.812-.265 2.046-2.5 2.046zm0 0"/></symbol><symbol overflow="visible" id="5b5d0595af"><path d="M2.703 0h3.453v-28.89H2.703zm0 0"/></symbol><symbol overflow="visible" id="5b5d0595ah"><path d="M5.86-10.672c-2 2.547-3.548 5.313-3.548 8.094C2.313-.766 3.156.5 5.079.5c1.547 0 2.547-1 2.547-2.547 0-1.547-1.016-2.328-2.39-2.422.421-1.828 1.468-3.875 2.624-5.437zm0 0"/></symbol><symbol overflow="visible" id="5b5d0595ai"><path d="M5.89 0h3.47c0-15.219-.5-17.531-2.97-26.188L2.704-26c2.735 8.344 3.188 10.25 3.188 26zm0 0"/></symbol><symbol overflow="visible" id="5b5d0595aj"><path d="M5.89 0h3.47c0-6.625-.094-10.797-.407-14.11 1.078.297 2.14.47 3.11.47 1.374 0 2.515-.344 3.437-.985 1.281.61 3.297.984 4.266.984 4.39 0 6.343-3.468 6.343-9.156 0-1.047-.078-2.203-.187-3.39l-3.156.375c.03.89.078 1.703.078 2.437 0 3.922-.766 5.813-3.078 5.813-.86 0-1.485-.063-2.016-.188.5-1.39.734-3.094.734-5.047 0-1.078-.078-2.203-.234-3.39l-3.422.375c.156 1.234.266 2.312.266 3.234 0 3.39-.844 5.015-3.031 5.015-2.72 0-3.532-.468-4.376-3.875-.343-1.421-.78-2.937-1.296-4.75L2.703-26c2.735 8.344 3.188 10.25 3.188 26zm0 0"/></symbol><symbol overflow="visible" id="5b5d0595ak"><path d="M15.375 0h3.453c-1.375-9.016-1.422-11.75-1.422-15.64 0-7.157-2.234-10.75-7.125-10.75-3.969 0-7.578 3.78-7.578 9.328 0 4.734 3.266 7.093 8.281 7.093 1.032 0 2.157-.11 3.329-.297.187 3.61.578 6.797 1.062 10.266zm-4.86-13.86c-3.203 0-4.468-.937-4.468-3.203 0-3.468 1.734-5.437 4.078-5.437 3.875 0 4.031 3.375 4.031 7.906 0 .453 0 .453-.484.516-.672.078-1.969.219-3.156.219zm0 0"/></symbol><symbol overflow="visible" id="5b5d0595al"><path d="M11.094-26.188C10.047-19.843 6.656-8.438 2.704-.39L6.436 0c2.032-4.047 4.688-11.75 6.422-18.188C14.563-11.75 17.172-4.28 19.22 0l3.734-.39c-3.969-8-7.312-19.454-8.36-25.797zm0 0"/></symbol><symbol overflow="visible" id="5b5d0595am"><path d="M1 9.14c6.719 0 9.281-3.312 9.984-9.296.907.156 1.75.156 2.454.156h.89v-3.922h-2.656c-.5 0-.5 0-.5-.5-.016-2.797-.235-5.937-.547-9.515l-3.484.296c.312 3.47.671 7.266.671 10.22 0 6.546-1.703 8.75-7.828 8.75-.375 0-.75 0-1.14-.016l.39 3.78c.61.032 1.204.048 1.766.048zm0 0"/></symbol><symbol overflow="visible" id="5b5d0595an"><path d="M.766-26.11l9.718-4.593v-2.813L.766-28.969zM0 0h8.672c3.312 0 5.812-1.5 5.812-4.969 0-3.422-3.53-8.218-9.906-14.578l11.875-5.531v-3.813L.766-21.5v3.516C7.516-11.75 10.984-7.704 10.984-4.97c0 .61-.28 1.047-2.093 1.047H0c-1.578 0-1.922.64-1.922 1.922 0 1.39.375 2 1.922 2zm0 0"/></symbol><symbol overflow="visible" id="5b5d0595ao"><path d="M5.64 9.219c6.626 0 9.766-3.344 10.657-9.219h3.11v-3.922h-2.845v-1.156c0-5.594-2-10.14-6.859-10.14-4.812 0-7.39 3.937-7.39 8.562C2.313-1.344 5.78 0 11.063 0h2.187c-.719 3.531-3.234 5.39-7.953 5.39-.813 0-1.672-.03-2.594-.156l.375 3.813c.844.094 1.703.172 2.563.172zm4.641-13.14c-3 0-4.89-.548-4.89-2.938 0-2.61 1.343-4.422 3.89-4.422 2.922 0 4.438 2.281 4.203 7.36zm0 0"/></symbol><symbol overflow="visible" id="5b5d0595ap"><path d="M7.281-19.14l1.969-2.626-3.36-2.547-1.968 2.625zM0 0h5.203c4.14 0 5.64-1.797 5.64-5.656 0-.469-.015-.938-.062-1.438-.234-2.86-.5-6.015-.703-8.5l-3.484.297c.265 2.781.531 5.578.765 8.406.063.672.094 1.188.094 1.594 0 1.375-.5 1.375-2.672 1.375H0c-1.578 0-1.922.64-1.922 1.922 0 1.39.375 2 1.922 2zm0 0"/></symbol><symbol overflow="visible" id="5b5d0595aq"><path d="M7.703-17.688l1.969-2.609-3.36-2.547-1.953 2.625zM0 0h13.797v-3.922h-2.281c-.313 0-.422 0-.454-.14-.046-.063-.046-.172-.062-.344L10.328-14l-3.312.172.625 9.375c.03.281.046.406-.032.469-.078.062-.187.062-.437.062H0c-1.578 0-1.922.64-1.922 1.922 0 1.39.375 2 1.922 2zm0 0"/></symbol><symbol overflow="visible" id="5b5d0595ar"><path d="M17.063.313c3.937 0 5.968-1.735 5.968-6.094 0-3.766-2.547-10.047-12.203-16.328L8.75-19.031c2.953 1.781 5.313 3.703 7.047 5.547 2.687 2.89 3.969 5.703 3.969 7.75 0 1.687-.891 2.5-2.391 2.5-.89 0-2.438-.266-3.813-.579 1.032-1.078 1.688-2.374 1.813-3.968.266-3.313-2.656-7.125-5.938-7.469-3.312-.344-6.671 2.61-7.093 6.5-.203 1.813.375 3.469 1.64 4.828H0c-1.578 0-1.922.64-1.922 1.922 0 1.39.375 2 1.922 2h1.156C4.36 0 7.47-.25 9.437-1c3.141.89 5.61 1.313 7.626 1.313zM8.515-5.313c-2.079-.344-3.282-1.813-3.157-3.282.11-1.687 1.875-3.5 3.61-3.312 1.812.203 3.515 2.078 3.36 4.015-.157 1.766-2.204 2.844-3.813 2.579zm0 0"/></symbol><symbol overflow="visible" id="5b5d0595as"><path d="M9.828.156c4.735 0 7.39-2.969 7.39-6.937 0-4.344-3.421-8.282-9.78-12.016l-2.282 2.89c.422.235.828.485 1.219.688-2.484 2.453-4.063 5.188-4.063 8.203C2.313-2.922 5 .156 9.829.156zm.031-3.969c-3.125 0-4.312-1.468-4.312-3.421 0-1.891 1.266-4.11 3.625-6.204 3.39 2.329 4.812 4.188 4.812 6.313 0 2.047-1.203 3.313-4.125 3.313zm0 0"/></symbol><symbol overflow="visible" id="5b5d0595at"><path d="M.766-26.11l9.718-4.593v-2.813L.766-28.969zM0 0h17.75v-3.922h-3.344c.063-.328.078-.687.078-1.047 0-3.422-3.53-8.218-9.906-14.578l11.875-5.531v-3.813L.766-21.5v3.516C7.516-11.75 10.984-7.704 10.984-4.97c0 .61-.28 1.047-2.093 1.047H0c-1.578 0-1.922.64-1.922 1.922 0 1.39.375 2 1.922 2zm0 0"/></symbol><symbol overflow="visible" id="5b5d0595au"><path d="M15.578-22.25l1.719-2.313-2.953-2.234-1.703 2.313zm-1.531 4.766l1.797-2.407 3.14 2.391 1.875-2.469-3.156-2.406-1.812 2.406-3.141-2.39-1.844 2.468zM0 0h12.563c1.765 0 2.953-.406 3.656-1.313C16.984-.39 18.187 0 19.844 0h9.812v-3.922h-2.265c-.485 0-.485 0-.532-.484-.203-3.14-.437-6.266-.64-9.407l-3.313.172c.203 3.063.39 6.125.61 9.188.03.531.03.531-.485.531h-2.687c-1.64 0-2.266 0-2.266-1.86v-7.859h-3.312v7.985c0 1.687-.5 1.734-2.204 1.734H9.297c-.516 0-.516 0-.469-.531l.766-9.188-3.313-.171-.75 9.406c-.047.484-.047.484-.531.484H0c-1.578 0-1.922.64-1.922 1.922 0 1.39.375 2 1.922 2zm0 0"/></symbol><symbol overflow="visible" id="5b5d0595av"><path d="M0 0h5.203c4.14 0 5.64-1.797 5.64-5.656 0-.469-.015-.938-.062-1.438-.234-2.86-.5-6.015-.703-8.5l-3.484.297c.265 2.781.531 5.578.765 8.406.063.672.094 1.188.094 1.594 0 1.375-.5 1.375-2.672 1.375H0c-1.578 0-1.922.64-1.922 1.922 0 1.39.375 2 1.922 2zm2.594 8.719l1.812-2.406 3.14 2.39 1.876-2.469-3.156-2.406-1.813 2.406-3.14-2.375-1.86 2.454zm0 0"/></symbol><symbol overflow="visible" id="5b5d0595aw"><path d="M13.672 0c1.64 0 2.906-.469 3.781-1.406C18.531-.094 20.093 0 21.766 0v-3.922c-1.922 0-2.891 0-2.891-2.094 0-5.171-3-9.39-7.703-9.39-4.625 0-5.735 4.062-7.578 9.469l-.313.968C2.906-3.922 2.734-3.922 2-3.922H0c-1.578 0-1.922.64-1.922 1.922 0 1.39.375 2 1.922 2h1.547C3.89 0 4.813-.563 5.516-1.969 8.766-.766 11.562 0 13.672 0zm.062-3.734c-1.718 0-4.609-.875-6.015-1.344-.907-.313-.907-.313-.282-2.094.672-1.922 1.313-4.312 3.875-4.312 2.532 0 4.485 2.375 4.485 5.453 0 1.656-.578 2.297-2.063 2.297zm0 0"/></symbol><symbol overflow="visible" id="5b5d0595ax"><path d="M11.14 0h2.11L8.172-13.531h-2.61L.423 0H2.5l1.063-2.938h6.53zm-7-4.531l2.657-7.328h.094l2.64 7.328zm0 0"/></symbol><symbol overflow="visible" id="5b5d0595ay"><path d="M1.75 0h1.906v-5.531c0-1.86 1.219-3 2.781-3 .407 0 .704.062.954.11l.187-1.813a5.744 5.744 0 00-1-.11c-1.344 0-2.297.625-2.86 2.016h-.093l-.25-1.735H1.75zm0 0"/></symbol><symbol overflow="visible" id="5b5d0595az"><path d="M4.328.266c1.656 0 2.75-.641 3.266-1.766h.093L7.891 0H9.5v-6.813c0-2.421-1.406-3.546-4.016-3.546-2.734 0-3.843 1.156-4.156 3.14l1.875.157c.188-1.094.735-1.75 2.266-1.75 1.515 0 2.187.64 2.187 2.093v.578l-3.281.422C1.937-5.406.891-4.5.891-2.64.89-.859 2.062.266 4.328.266zm.469-1.516c-1.406 0-1.953-.61-1.953-1.531 0-.875.484-1.36 1.734-1.531l3.078-.438v.86c0 1.484-1.015 2.64-2.86 2.64zm0 0"/></symbol><symbol overflow="visible" id="5b5d0595aA"><path d="M6.984.281c2.688 0 4.266-1.953 4.266-5.312 0-3.344-1.578-5.313-4.36-5.313-1.53 0-2.577.688-3.14 1.89h-.094v-5.827H1.75V0h1.625l.25-1.734h.094C4.406-.406 5.406.28 6.984.28zm-.53-1.61c-1.907 0-2.829-1.421-2.829-3.702 0-2.266.922-3.688 2.828-3.688 1.906 0 2.86 1.219 2.86 3.688 0 2.484-.954 3.703-2.86 3.703zm0 0"/></symbol><symbol overflow="visible" id="5b5d0595aB"><path d="M2.703-11.719c.75 0 1.281-.375 1.281-1.219 0-.828-.53-1.203-1.28-1.203-.767 0-1.282.375-1.282 1.204 0 .843.516 1.218 1.281 1.218zM1.75 0h1.906v-10.063H1.75zm0 0"/></symbol><symbol overflow="visible" id="5b5d0595aC"><path d="M5.672.281c2.781 0 4.125-1.219 4.406-3.469l-1.906-.14c-.203 1.328-.922 2-2.485 2-1.875 0-2.765-1.313-2.765-3.703 0-2.39.875-3.688 2.75-3.688 1.531 0 2.297.735 2.484 2.047l1.922-.14c-.265-2.25-1.75-3.532-4.406-3.532-3 0-4.719 1.985-4.719 5.313C.953-1.656 2.672.28 5.672.28zm0 0"/></symbol><symbol overflow="visible" id="5b5d0595aD"><path d="M2.031 0h2v-6h7.172v6h2v-13.531h-2v5.812H4.031v-5.812h-2zm0 0"/></symbol><symbol overflow="visible" id="5b5d0595aE"><path d="M10.203-4.438V-5.5c0-3.094-1.687-4.86-4.547-4.86-2.86 0-4.703 1.86-4.703 5.344 0 3.282 1.64 5.297 4.844 5.297 2.562 0 3.797-1.14 4.234-2.875L8.156-2.78c-.312.875-1 1.453-2.39 1.453-1.75 0-2.704-1.031-2.844-3.11zM5.656-8.796c1.735 0 2.578.985 2.672 2.938h-5.39c.187-2 1.093-2.938 2.718-2.938zm0 0"/></symbol><symbol overflow="visible" id="5b5d0595aF"><path d="M3.406 0h2.485l2.265-7.922h.047L10.453 0h2.485l3.124-10.063h-1.89l-2.328 8.22h-.11l-2.312-8.22H7.078l-2.266 8.22h-.109l-2.36-8.22H.282zm0 0"/></symbol><symbol overflow="visible" id="5b5d0595aG"><path d="M2.875 0c4.047 0 4.813-1.766 4.813-5.813v-23.25H17.89c6.312 0 9.093 3.032 9.093 9.094V0H28v-19.969c0-6.656-3.188-10.093-10.11-10.093H3.39v1h3.282v23c0 3.53-.25 5.109-3.797 5.109h-.5V0zm0 0"/></symbol><symbol overflow="visible" id="5b5d0595aH"><path d="M2.781-30.063v-5.062H1.766v6.063h18.593C17.031-19.36 13.75-9.703 10.406 0h1.11c3.343-9.75 6.734-19.563 10.062-29.313v-.75zm0 0"/></symbol><symbol overflow="visible" id="5b5d0595aI"><path d="M10.266-21.484c0-6.157-2.188-8.578-7.594-8.578h-.14v1h.14c4.812 0 6.578 2.03 6.578 7.578v7.328h1.016zm0 0"/></symbol><symbol overflow="visible" id="5b5d0595aJ"><path d="M3.281 0h1.11l2.484-10.766c1.016-4.421 2.14-6.187 4.75-7.75C16.078-12.328 20.515-6.172 24.969 0h1.265C23.141-4.25 20.094-8.516 17-12.781c3.719-2.078 5.203-4.281 6.703-9.156l2.531-8.125H25.11l-2.265 7.53c-1.563 5.141-3.235 7.126-6.39 8.97a7546.888 7546.888 0 00-11.907-16.5H3.28c2.61 3.578 5.188 7.187 7.781 10.78-2.703 1.516-4.109 3.845-5.203 8.36zm0 0"/></symbol><symbol overflow="visible" id="5b5d0595aL"><path d="M2.578 8.078c1.516-2.765 3.078-6.61 3.078-8.734 0-1.266-.547-2.078-1.61-2.078-.968 0-1.624.656-1.624 1.671C2.422-.046 3.078.5 4.047.5c.219 0 .406-.047.578-.094-.375 1.969-1.64 5.11-3.063 7.672zm0 0"/></symbol><symbol overflow="visible" id="5b5d0595aM"><path d="M5.313 0h22.171v-19.969c0-6.656-3.172-10.093-10.093-10.093H2.53v1h2.781zM17.39-29.063c6.312 0 9.093 3.032 9.093 9.094V-.953H6.312v-28.11zm0 0"/></symbol><symbol overflow="visible" id="5b5d0595aN"><path d="M2.016.766L3.53-.61C5.86-2.672 9.75-7.172 11.516-11.344L11.625 0h.906v-21.484c0-6.157-2.172-8.578-7.578-8.578h-.406v1h.406c4.797 0 6.563 2.03 6.563 7.578v7.984C9.796-8.89 5.812-4.047 3.187-1.61L2.016-.561zm0 0"/></symbol><symbol overflow="visible" id="5b5d0595aO"><path d="M10-21.484c0-6.157-2.172-8.578-7.578-8.578h-.14v1h.14c4.812 0 6.578 2.03 6.578 7.578V0h1zm0 0"/></symbol><symbol overflow="visible" id="5b5d0595aP"><path d="M3.531-30.063l3.875 9.829L3.796 0h1.048l3.5-19.563c1-5.812 4.297-10 9.703-10 6.312 0 9.906 4.5 9.906 14C27.953-6.219 24.656-.5 16.828-.5c-1.672 0-3.39-.203-4.547-.516V0c1.156.297 2.875.5 4.547.5 8.594 0 12.125-6.203 12.125-16.063 0-10.265-4.094-15.015-10.906-15.015-5.563 0-8.906 3.812-10.156 8.765l-3.235-8.25zm0 0"/></symbol><symbol overflow="visible" id="5b5d0595aQ"><path d="M26.375-19.969c0-6.656-3.172-10.093-10.11-10.093H4.548v1h11.719c6.328 0 9.109 3.03 9.109 9.093V0h1zM5.812 0v-20.219H4.798V0zm0 0"/></symbol><symbol overflow="visible" id="5b5d0595aR"><path d="M13.89-30.828c-6.406 0-10.093 3.797-10.093 10 0 5.812 3.89 8.453 8.187 8.453 1.204 0 2.063-.203 3.172-.516v-1c-1.11.297-1.969.5-3.172.5-3.703 0-7.187-2.218-7.187-7.437 0-5.656 3.281-8.938 9.094-8.938 7.234 0 10.171 4.188 10.171 13.344V6.563h1v-22.985c0-9.703-3.328-14.406-11.171-14.406zm0 0"/></symbol><symbol overflow="visible" id="5b5d0595aS"><path d="M6.313 0v-29.063H17.03c6.313 0 9.094 3.032 9.094 9.094V0h1.016v-19.969c0-6.656-3.188-10.093-10.11-10.093h-14.5v1h2.781V0zm0 0"/></symbol><symbol overflow="visible" id="5b5d0595aT"><path d="M20.563-19.969c0-6.656-3.172-10.093-10.11-10.093H1.766v1h8.687c6.328 0 9.11 3.03 9.11 9.093V0h1zm0 0"/></symbol><symbol overflow="visible" id="5b5d0595aU"><path d="M29.813-16.266v-13.797h-1v13.797C28.813-6.172 26.53-.25 16.922-.25c-7.14 0-10.219-3.281-11.344-9.156 8.39-2.25 12.36-5.547 12.36-15.156v-5.5h-1.016v5.5c0 9.125-3.703 12.062-11.516 14.203-.25-1.766-.36-3.735-.36-5.907v-13.797h-1v13.797C4.047-5.656 6.829.766 16.923.766c10.11 0 12.89-6.422 12.89-17.032zm0 0"/></symbol><symbol overflow="visible" id="5b5d0595aV"><path d="M15.188 0h76.921v-51.531c0-17.672-9.406-27.063-28.156-27.063H5.437L4.095-56.156h11.093zM56.03-56.156c9.407 0 12.89 2.75 12.89 12.156v23.11H38.36v-35.266zm0 0"/></symbol><symbol overflow="visible" id="5b5d0595aW"><path d="M45.281-52.61c0-17.734-7.734-25.984-26.203-25.984H6.922l-1.344 23.11h4.828c8.938 0 11.828 2.14 11.828 11.75v17l23.047-1.344zm0 0"/></symbol><symbol overflow="visible" id="5b5d0595aX"><path d="M26.531-78.594V-95.39l-23.11 1.344V-56.5h40.923C42.125-41.719 36.016-22.906 23.454 0h25.515c10.687-19.813 18.687-42.656 20.828-64.422v-14.172zm0 0"/></symbol><symbol overflow="visible" id="5b5d0595aY"><path d="M45.953-52.203c0-17.734-8.875-26.39-27.406-26.39H6.25L4.906-55.485h4.907c9.062 0 11.953 2.406 11.953 11.609V0h24.187zm0 0"/></symbol><symbol overflow="visible" id="5b5d0595aZ"><path d="M104.125-44.469v-34.125H79.937v36.063c0 16.265-7.718 23.047-23.843 23.047-12.219 0-19.407-3.688-22.297-12.22 22.906-1.077 31.437-6.655 32.719-25.874l1.343-21.016h-20.5l-1.343 16.719C45.28-53 43.203-48.437 32.313-47.235v-31.359H8.125v34.125c0 34.39 17 46.485 47.969 46.485 31.031 0 48.031-12.094 48.031-46.485zm0 0"/></symbol><symbol overflow="visible" id="5b5d0595ba"><path d="M39.375 0v-55.484h15.844c9.406 0 12.828 2.75 12.828 12.156V0h24.187v-51.531c0-17.672-9.406-27.063-28.078-27.063H5.437l-1.343 23.11h11.093V0zm0 0"/></symbol><symbol overflow="visible" id="5b5d0595bb"><path d="M50.656-52.203c0-17.734-8.875-26.39-27.406-26.39H9L7.656-55.485h6.86c9 0 11.953 2.406 11.953 11.609v22.313H6.78L5.438 0h45.218zm0 0"/></symbol><symbol overflow="visible" id="5b5d0595bc"><path d="M30.188-42.188c1.937-11.187-3.657-16.78-14.329-16.78h-5.484L8.031-49h5.281c5.907 0 7.938 2.531 6.813 9.14l-2.531 14.438 9.86-1.015zm0 0"/></symbol><symbol overflow="visible" id="5b5d0595bd"><path d="M53.984-9.766h-9.203l5.235-29.89c2.14-12.188-4.157-19.313-16.36-19.313h-21.25L10.062-49h21.36c7.11 0 9.453 3.563 8.234 10.672L34.672-9.766H2.234L-.109 0h51.75zm0 0"/></symbol><symbol overflow="visible" id="5b5d0595be"><path d="M28.063 1.531c18.203 0 29.078-11.094 32.421-31.11 3.36-20.14-5.78-30.905-22.468-30.905-18.188 0-29.063 10.765-32.422 30.906-3.36 20.015 5.797 31.11 22.468 31.11zm1.421-9.469c-11.593 0-16.062-7.421-13.718-21.64C18-43.11 24.906-50.531 36.5-50.531c11.594 0 16.063 7.422 13.828 20.953-2.344 14.219-9.25 21.64-20.844 21.64zm0 0"/></symbol><symbol overflow="visible" id="5b5d0595bf"><path d="M30.703-42.188c1.938-11.187-3.656-16.78-14.328-16.78H9.859L7.516-49h5.593c6.11 0 8.141 2.531 7.016 9.14L13.109 0h10.172zm0 0"/></symbol><symbol overflow="visible" id="5b5d0595bg"><path d="M19.266-58.969l2.343-13.218-10.172 1.015-3.859 22.063h34.969C38.578-34.47 28.516-16.375 14.687 0h11.797C41.734-18.094 49.25-35.781 53.22-50.531l1.531-8.438zm0 0"/></symbol><symbol overflow="visible" id="5b5d0595bh"><path d="M65.469-58.969H13.922L11.594-49h41.672c-3.453 14.234-13.407 33.953-25.11 49h11.188c13.218-17.078 21.14-36.703 24.61-50.422zM11.797 13.22l8.437-47.782L9.97-33.547 1.625 13.22zm0 0"/></symbol><symbol overflow="visible" id="5b5d0595bi"><path d="M.922 0h10.672l7.922-22.36c2.797-8.03 4.078-9.406 7.734-10.171C33.25-22.22 38.89-11.328 43.813 0H55c-4.063-9.094-8.39-17.89-12.953-26.281 8.937-1.625 12.14-5.797 16.203-16.516l6.11-16.172H53.687l-4.579 12.61c-3.312 9.156-5.14 12.859-10.422 13.984-5.343-9.406-10.984-18.313-16.828-26.594H10.266a359.821 359.821 0 0113.171 19.985c-6.515 1.312-9.406 4.218-13.265 14.375zm0 0"/></symbol><symbol overflow="visible" id="5b5d0595bj"><path d="M2.39 0C6.97 0 8.032-2.406 8.032-6.89v-14.36H14c4.64 0 6.813 2.094 6.813 6.406V0h2.812v-15.469c0-5.5-3.172-8.531-9.11-8.531H2.313v2.75h2.985v14.031c0 3.063-.375 4.532-3.297 4.532h-.375V0zm0 0"/></symbol><symbol overflow="visible" id="5b5d0595bk"><path d="M9.375-16.672C9.375-21.766 7.641-24 2.656-24H1.75v2.75h.656c3.188 0 4.235 1.281 4.235 4.688v5.703h2.734zm0 0"/></symbol><symbol overflow="visible" id="5b5d0595bl"><path d="M4.031-24v-4.281h-2.75v6.984h13.875C12.75-14.187 10.391-7.109 7.984 0h2.954c2.453-7.219 4.937-14.469 7.39-21.688V-24zm0 0"/></symbol><symbol overflow="visible" id="5b5d0595bm"><path d="M22.813-12.14c0-8.266-2.641-12.266-8.344-12.266-.844 0-2.39.203-3.094.406v2.75c.703-.203 1.61-.406 2.578-.406 4.375 0 6.047 3.093 6.047 9.515 0 6.5-1.844 10.11-7.14 10.11-5.172 0-7.141-3.61-7.141-10.11V-24H2.906v11.938C2.906-4.22 5.641.608 12.781.608c7.266 0 10.031-5.046 10.031-12.75zm0 0"/></symbol><symbol overflow="visible" id="5b5d0595bn"><path d="M1.281.61l1.344-.813c2.11-1.234 4.594-3.953 5.766-6.984L8.609 0h2.47v-16.172c0-5.36-1.673-7.828-6.923-7.828H3.063v2.75h.843c3.172 0 4.438 1.281 4.438 5.453v4.281c-.813 3.407-3.828 6.72-6 8.25L1.28-2.53zm0 0"/></symbol><symbol overflow="visible" id="5b5d0595bo"><path d="M16.75 0v-21.25h2.406V-24H1.281v2.75h12.672V0zm0 0"/></symbol><symbol overflow="visible" id="5b5d0595bq"><path d="M9.375-16.672C9.375-21.766 7.562-24 2.594-24H1.547v2.75h.781c3.188 0 4.235 1.281 4.235 4.672V0h2.812zm0 0"/></symbol><symbol overflow="visible" id="5b5d0595br"><path d="M18.328-10.922v-2.203C18.328-20.281 14.625-24 7.391-24H2.109v2.75H7c5.516 0 8.516 2.36 8.516 8.39v1.704c0 6.015-3.391 8.453-8.516 8.453H1.906V0h5.485c7.078 0 10.937-3.734 10.937-10.922zm0 0"/></symbol><symbol overflow="visible" id="5b5d0595bs"><path d="M17.156-15.469C17.156-20.969 14-24 8.188-24H1.28v2.75h6.282c4.64 0 6.78 2.094 6.78 6.406V0h2.813zm0 0"/></symbol><symbol overflow="visible" id="5b5d0595bt"><path d="M2.344 0h2.89l1.75-8.547c.579-2.812 1.344-3.937 2.47-4.89C12.577-8.97 15.718-4.47 18.827 0h3.328c-2.328-3.344-4.656-6.703-7-10.047 2.375-1.375 3.61-3.281 4.672-6.875L21.906-24h-2.875l-1.781 6.094c-.938 3.25-1.813 4.781-3.36 6C11.063-15.937 8.25-19.97 5.438-24H2.11c2 2.875 3.985 5.734 5.985 8.594C6.359-14.312 5.14-12.5 4.39-9.172zm0 0"/></symbol><symbol overflow="visible" id="5b5d0595bu"><path d="M20.61-2.688h-2.563v-12.78c0-5.5-3.172-8.532-9.11-8.532h-6.25v2.75h5.735c4.64 0 6.812 2.094 6.812 6.406v12.156H1.906V0H20.61zm0 0"/></symbol><symbol overflow="visible" id="5b5d0595bv"><path d="M4.094 0H23.25v-15.469c0-5.5-3.14-8.531-9.11-8.531H1.75v2.75h2.344zm9.578-21.25c4.625 0 6.844 2.094 6.844 6.406v12.156H6.844V-21.25zm0 0"/></symbol><symbol overflow="visible" id="5b5d0595bw"><path d="M8.11 0v-21.313h3.671V-24H1.61v2.688h3.688V0zm0 0"/></symbol><symbol overflow="visible" id="5b5d0595bx"><path d="M2.313-24l2.828 8.797L2.516 0H5.28l2.407-14.188c.718-4.296 2.687-7.5 6.656-7.5 4.5 0 6.672 3.125 6.672 9.329 0 6.484-2.016 10.125-7.11 10.125-1 0-2.312-.188-3.062-.391v2.61c.86.234 2.14.421 3.297.421 6.984 0 9.671-4.828 9.671-12.765 0-8.204-3.437-12.047-9.062-12.047-4.469 0-6.64 2.718-7.703 6.031L5.203-24zm0 0"/></symbol><symbol overflow="visible" id="5b5d0595by"><path d="M10.922-24.61c-5.5 0-8.781 3.079-8.781 7.813 0 4.719 2.968 6.703 6.625 6.703a9.645 9.645 0 002.796-.406v-2.438c-.812.235-1.484.36-2.453.36-2.39 0-4.171-1.328-4.171-4.219 0-3.25 2.265-5.11 5.984-5.11 4.672 0 7.406 3.11 7.406 9.688 0 6.938-3.344 10.188-8.797 10.188-2.203 0-4.015-.375-6.015-1.219v2.703C5.516.297 7.562.61 9.766.61c7.109 0 11.359-4.484 11.359-12.828 0-8.047-3.734-12.39-10.203-12.39zm0 0"/></symbol><symbol overflow="visible" id="5b5d0595bz"><path d="M81.438-52.75c0-20.313-12.094-31.86-35.376-31.86H9.142v17.032h33.203c14.828 0 21.515 5.906 21.515 19.687V0h17.578zM27.358 0v-48.031H9.844V0zm0 0"/></symbol><symbol overflow="visible" id="5b5d0595bA"><path d="M76.594-16.313H66.53V-52.75c0-20.313-12.094-31.86-35.312-31.86H8.656v17.032h18.766c14.844 0 21.531 5.906 21.531 19.687v31.578H5.843V0h70.75zm0 0"/></symbol><symbol overflow="visible" id="5b5d0595bB"><path d="M37.766-55.984c0-19.266-6.266-28.625-27.36-28.625H5.281v17.03h2.813c9.844 0 12.719 3.72 12.719 13.923v18.14h16.953zm0 0"/></symbol><symbol overflow="visible" id="5b5d0595bC"><path d="M83.203-43.328c0-28.61-9.86-42.75-30.453-42.75-2.89 0-9.281.766-11.813 1.469v16.89c2.313-.781 4.985-1.406 8.016-1.406 11.734 0 16.875 8.078 16.875 26.078 0 19.344-5.484 29.266-20.187 29.266-14.203 0-20.188-9.922-20.188-29.266v-41.562H7.875v42.343c0 27.844 11.531 44.375 37.344 44.375 26.297 0 37.984-17.515 37.984-45.437zm0 0"/></symbol><symbol overflow="visible" id="5b5d0595bD"><path d="M64.14-52.75c0-20.313-12.171-31.86-34.812-31.86H3.875v17.032h21.094c14.843 0 21.593 5.906 21.593 19.687V0h17.579zm0 0"/></symbol><symbol overflow="visible" id="5b5d0595bE"><path d="M38.266-55.984c0-19.266-6.907-28.625-28-28.625H4.578v17.03h3.375c9.844 0 12.719 3.72 12.719 13.782V0h17.594zm0 0"/></symbol><symbol overflow="visible" id="5b5d0595bF"><path d="M82.36-84.61H9.14v17.032H63.72C57.39-45.078 51.203-22.5 44.875 0h17.578c6.61-23.344 13.297-46.484 19.906-69.828zm-55 102.891v-67.375H9.843v67.375zm0 0"/></symbol></defs><path d="M0 0h1280v800H0z"/><g fill="#fff"><use xlink:href="#5b5d0595a" x="68.1231" y="713.9332"/><use xlink:href="#5b5d0595b" x="127.5741" y="713.9332"/><use xlink:href="#5b5d0595c" x="160.2051" y="713.9332"/><use xlink:href="#5b5d0595d" x="196.2631" y="713.9332"/><use xlink:href="#5b5d0595e" x="280.4481" y="713.9332"/><use xlink:href="#5b5d0595f" x="316.3571" y="713.9332"/><use xlink:href="#5b5d0595g" x="347.6471" y="713.9332"/><use xlink:href="#5b5d0595h" x="372.9771" y="713.9332"/><use xlink:href="#5b5d0595i" x="449.4141" y="713.9332"/><use xlink:href="#5b5d0595j" x="510.2061" y="713.9332"/><use xlink:href="#5b5d0595k" x="548.3501" y="713.9332"/></g><g fill="#fff"><use xlink:href="#5b5d0595l" x="65.7391" y="485.9632"/><use xlink:href="#5b5d0595m" x="139.1961" y="485.9632"/><use xlink:href="#5b5d0595n" x="170.4861" y="485.9632"/><use xlink:href="#5b5d0595o" x="246.1781" y="485.9632"/><use xlink:href="#5b5d0595p" x="268.6771" y="485.9632"/><use xlink:href="#5b5d0595q" x="322.7641" y="485.9632"/><use xlink:href="#5b5d0595r" x="349.7331" y="485.9632"/><use xlink:href="#5b5d0595s" x="412.4621" y="485.9632"/></g><g fill="#fff"><use xlink:href="#5b5d0595t" x="471.8386" y="485.9632"/><use xlink:href="#5b5d0595u" x="554.8316" y="485.9632"/></g><g fill="#fff"><use xlink:href="#5b5d0595v" x="68.4524" y="277.7538"/><use xlink:href="#5b5d0595w" x="169.647329" y="277.7538"/></g><g fill="#fff"><use xlink:href="#5b5d0595x" x="193.527441" y="277.7538"/><use xlink:href="#5b5d0595y" x="239.711419" y="277.7538"/><use xlink:href="#5b5d0595z" x="318.050796" y="277.7538"/><use xlink:href="#5b5d0595A" x="380.627722" y="277.7538"/><use xlink:href="#5b5d0595B" x="474.099051" y="277.7538"/><use xlink:href="#5b5d0595C" x="544.084329" y="277.7538"/><use xlink:href="#5b5d0595w" x="580.495588" y="277.7538"/></g><g fill="#fff"><use xlink:href="#5b5d0595D" x="70.2005" y="579.2476"/><use xlink:href="#5b5d0595E" x="88.0205" y="579.2476"/></g><g fill="#fff"><use xlink:href="#5b5d0595F" x="96.2825" y="579.2476"/><use xlink:href="#5b5d0595G" x="107.6765" y="579.2476"/><use xlink:href="#5b5d0595H" x="127.6025" y="579.2476"/><use xlink:href="#5b5d0595I" x="141.4805" y="579.2476"/><use xlink:href="#5b5d0595J" x="158.3825" y="579.2476"/><use xlink:href="#5b5d0595K" x="185.6525" y="579.2476"/><use xlink:href="#5b5d0595L" x="206.3885" y="579.2476"/><use xlink:href="#5b5d0595M" x="212.8145" y="579.2476"/><use xlink:href="#5b5d0595D" x="222.8045" y="579.2476"/><use xlink:href="#5b5d0595N" x="240.6245" y="579.2476"/><use xlink:href="#5b5d0595O" x="260.5505" y="579.2476"/><use xlink:href="#5b5d0595P" x="280.3685" y="579.2476"/><use xlink:href="#5b5d0595Q" x="287.5505" y="579.2476"/><use xlink:href="#5b5d0595R" x="314.1185" y="579.2476"/><use xlink:href="#5b5d0595M" x="324.9725" y="579.2476"/><use xlink:href="#5b5d0595D" x="334.9625" y="579.2476"/><use xlink:href="#5b5d0595S" x="352.7825" y="579.2476"/><use xlink:href="#5b5d0595T" x="364.2845" y="579.2476"/><use xlink:href="#5b5d0595U" x="378.1625" y="579.2476"/><use xlink:href="#5b5d0595Q" x="398.7365" y="579.2476"/><use xlink:href="#5b5d0595V" x="425.3045" y="579.2476"/><use xlink:href="#5b5d0595L" x="435.4025" y="579.2476"/><use xlink:href="#5b5d0595M" x="441.8285" y="579.2476"/><use xlink:href="#5b5d0595W" x="451.8185" y="579.2476"/><use xlink:href="#5b5d0595X" x="473.4185" y="579.2476"/><use xlink:href="#5b5d0595H" x="490.6445" y="579.2476"/><use xlink:href="#5b5d0595Y" x="504.5225" y="579.2476"/><use xlink:href="#5b5d0595V" x="522.3425" y="579.2476"/><use xlink:href="#5b5d0595L" x="532.4405" y="579.2476"/><use xlink:href="#5b5d0595M" x="538.8665" y="579.2476"/><use xlink:href="#5b5d0595D" x="548.8565" y="579.2476"/></g><g fill="#fff"><use xlink:href="#5b5d0595T" x="566.6171" y="579.2476"/><use xlink:href="#5b5d0595S" x="580.4951" y="579.2476"/><use xlink:href="#5b5d0595Z" x="591.9971" y="579.2476"/></g><g fill="#fff"><use xlink:href="#5b5d0595aa" x="70.02" y="371.0812"/><use xlink:href="#5b5d0595ab" x="95.032" y="371.0812"/><use xlink:href="#5b5d0595ac" x="104.548" y="371.0812"/><use xlink:href="#5b5d0595ad" x="126.336" y="371.0812"/><use xlink:href="#5b5d0595ae" x="146.512" y="371.0812"/><use xlink:href="#5b5d0595af" x="177.504" y="371.0812"/><use xlink:href="#5b5d0595ag" x="186.344" y="371.0812"/><use xlink:href="#5b5d0595ah" x="196.744" y="371.0812"/><use xlink:href="#5b5d0595ag" x="206.936" y="371.0812"/></g><use xlink:href="#5b5d0595ai" x="217.336" y="371.0812" fill="#fff"/><use xlink:href="#5b5d0595aj" x="228.4328" y="371.0812" fill="#fff"/><g fill="#fff"><use xlink:href="#5b5d0595ak" x="255.7016" y="371.0812"/><use xlink:href="#5b5d0595al" x="276.2936" y="371.0812"/></g><g fill="#fff"><use xlink:href="#5b5d0595ag" x="301.94" y="371.0812"/><use xlink:href="#5b5d0595ah" x="312.34" y="371.0812"/><use xlink:href="#5b5d0595ag" x="322.532" y="371.0812"/><use xlink:href="#5b5d0595af" x="332.932" y="371.0812"/></g><g fill="#fff"><use xlink:href="#5b5d0595am" x="339.744" y="371.0812"/><use xlink:href="#5b5d0595an" x="354.096" y="371.0812"/><use xlink:href="#5b5d0595ao" x="370.892" y="371.0812"/><use xlink:href="#5b5d0595ap" x="390.288" y="371.0812"/><use xlink:href="#5b5d0595ag" x="403.444" y="371.0812"/><use xlink:href="#5b5d0595am" x="413.844" y="371.0812"/><use xlink:href="#5b5d0595aq" x="428.196" y="371.0812"/><use xlink:href="#5b5d0595ar" x="441.976" y="371.0812"/></g><g fill="#fff"><use xlink:href="#5b5d0595ag" x="467.3" y="371.0812"/><use xlink:href="#5b5d0595as" x="477.7" y="371.0812"/></g><g fill="#fff"><use xlink:href="#5b5d0595ab" x="497.252" y="371.0812"/><use xlink:href="#5b5d0595at" x="506.768" y="371.0812"/><use xlink:href="#5b5d0595au" x="524.5" y="371.0812"/><use xlink:href="#5b5d0595av" x="554.14" y="371.0812"/><use xlink:href="#5b5d0595ab" x="567.296" y="371.0812"/><use xlink:href="#5b5d0595aw" x="576.812" y="371.0812"/><use xlink:href="#5b5d0595ap" x="598.6" y="371.0812"/></g><g fill="#fff"><use xlink:href="#5b5d0595ax" x="70" y="86.1902"/><use xlink:href="#5b5d0595ay" x="83.68" y="86.1902"/><use xlink:href="#5b5d0595az" x="91.5" y="86.1902"/><use xlink:href="#5b5d0595aA" x="102.56" y="86.1902"/><use xlink:href="#5b5d0595aB" x="114.76" y="86.1902"/><use xlink:href="#5b5d0595aC" x="120.16" y="86.1902"/></g><g fill="#fff"><use xlink:href="#5b5d0595aD" x="670" y="86.1902"/><use xlink:href="#5b5d0595aE" x="685.24" y="86.1902"/><use xlink:href="#5b5d0595aA" x="696.4" y="86.1902"/><use xlink:href="#5b5d0595ay" x="708.6" y="86.1902"/><use xlink:href="#5b5d0595aE" x="716.42" y="86.1902"/><use xlink:href="#5b5d0595aF" x="727.58" y="86.1902"/></g><use xlink:href="#5b5d0595aG" x="668.7961" y="573.0893" fill="#fff"/><use xlink:href="#5b5d0595aH" x="700.179746" y="573.0893" fill="#fff"/><g fill="#fff"><use xlink:href="#5b5d0595aI" x="725.200695" y="573.0893"/><use xlink:href="#5b5d0595aJ" x="738.998037" y="573.0893"/><use xlink:href="#5b5d0595aK" x="768.503123" y="573.0893"/><use xlink:href="#5b5d0595aL" x="781.132997" y="573.0893"/><use xlink:href="#5b5d0595aM" x="789.199136" y="573.0893"/></g><use xlink:href="#5b5d0595aI" x="819.473688" y="573.0893" fill="#fff"/><use xlink:href="#5b5d0595aN" x="832.358283" y="573.0893" fill="#fff"/><g fill="#fff"><use xlink:href="#5b5d0595aO" x="848.58608" y="573.0893"/><use xlink:href="#5b5d0595aP" x="862.383422" y="573.0893"/></g><use xlink:href="#5b5d0595aH" x="892.758801" y="573.0893" fill="#fff"/><use xlink:href="#5b5d0595aJ" x="916.458389" y="573.0893" fill="#fff"/><use xlink:href="#5b5d0595aQ" x="944.96582" y="573.0893" fill="#fff"/><g fill="#fff"><use xlink:href="#5b5d0595aK" x="975.134239" y="573.0893"/><use xlink:href="#5b5d0595aR" x="987.764114" y="573.0893"/></g><use xlink:href="#5b5d0595aO" x="1016.520958" y="573.0893" fill="#fff"/><g fill="#fff"><use xlink:href="#5b5d0595aS" x="1029.814167" y="573.0893"/><use xlink:href="#5b5d0595aK" x="1060.752053" y="573.0893"/><use xlink:href="#5b5d0595aG" x="1073.381927" y="573.0893"/></g><use xlink:href="#5b5d0595aT" x="1104.765574" y="573.0893" fill="#fff"/><g fill="#fff"><use xlink:href="#5b5d0595aO" x="1129.022362" y="573.0893"/><use xlink:href="#5b5d0595aP" x="1142.819704" y="573.0893"/><use xlink:href="#5b5d0595aU" x="1174.288258" y="573.0893"/></g><g fill="#fff"><use xlink:href="#5b5d0595aV" x="665.501" y="279.4575"/><use xlink:href="#5b5d0595aW" x="764.961061" y="279.4575"/><use xlink:href="#5b5d0595aX" x="816.877801" y="279.4575"/><use xlink:href="#5b5d0595aY" x="893.342132" y="279.4575"/></g><g fill="#fff"><use xlink:href="#5b5d0595aZ" x="945.752646" y="279.4575"/><use xlink:href="#5b5d0595ba" x="1058.050813" y="279.4575"/></g><use xlink:href="#5b5d0595bb" x="1157.567305" y="279.4575" fill="#fff"/><use xlink:href="#5b5d0595bc" x="664.3978" y="482.5071" fill="#fff"/><use xlink:href="#5b5d0595bd" x="700.583813" y="482.5071" fill="#fff"/><use xlink:href="#5b5d0595bc" x="758.438735" y="482.5071" fill="#fff"/><g fill="#fff"><use xlink:href="#5b5d0595be" x="794.016311" y="482.5071"/><use xlink:href="#5b5d0595bf" x="858.916298" y="482.5071"/></g><use xlink:href="#5b5d0595bg" x="895.51861" y="482.5071" fill="#fff"/><use xlink:href="#5b5d0595bh" x="949.552119" y="482.5071" fill="#fff"/><g fill="#fff"><use xlink:href="#5b5d0595be" x="1014.718964" y="482.5071"/><use xlink:href="#5b5d0595bh" x="1079.618952" y="482.5071"/></g><use xlink:href="#5b5d0595bi" x="1144.98861" y="482.5071" fill="#fff"/><use xlink:href="#5b5d0595bj" x="671.7148" y="364.0561" fill="#fff"/><g fill="#fff"><use xlink:href="#5b5d0595bk" x="697.547554" y="364.0561"/><use xlink:href="#5b5d0595bl" x="709.728442" y="364.0561"/><use xlink:href="#5b5d0595bm" x="730.465455" y="364.0561"/></g><g fill="#fff"><use xlink:href="#5b5d0595bk" x="754.911527" y="364.0561"/><use xlink:href="#5b5d0595bn" x="767.092414" y="364.0561"/></g><g fill="#fff"><use xlink:href="#5b5d0595bk" x="780.37759" y="364.0561"/><use xlink:href="#5b5d0595bo" x="792.558478" y="364.0561"/><use xlink:href="#5b5d0595bp" x="813.927716" y="364.0561"/><use xlink:href="#5b5d0595bj" x="823.706145" y="364.0561"/></g><g fill="#fff"><use xlink:href="#5b5d0595bq" x="850.120548" y="364.0561"/><use xlink:href="#5b5d0595bl" x="862.385732" y="364.0561"/><use xlink:href="#5b5d0595br" x="883.122745" y="364.0561"/></g><g fill="#fff"><use xlink:href="#5b5d0595bk" x="902.936708" y="364.0561"/><use xlink:href="#5b5d0595bs" x="915.117595" y="364.0561"/><use xlink:href="#5b5d0595bo" x="935.180234" y="364.0561"/></g><g fill="#fff"><use xlink:href="#5b5d0595bt" x="956.073195" y="364.0561"/><use xlink:href="#5b5d0595bu" x="980.350674" y="364.0561"/><use xlink:href="#5b5d0595bp" x="1001.762061" y="364.0561"/><use xlink:href="#5b5d0595bv" x="1011.54049" y="364.0561"/><use xlink:href="#5b5d0595bw" x="1037.672498" y="364.0561"/><use xlink:href="#5b5d0595bk" x="1051.665767" y="364.0561"/><use xlink:href="#5b5d0595bl" x="1063.846654" y="364.0561"/><use xlink:href="#5b5d0595bx" x="1084.583667" y="364.0561"/><use xlink:href="#5b5d0595bs" x="1110.420636" y="364.0561"/></g><g fill="#fff"><use xlink:href="#5b5d0595bq" x="1130.390548" y="364.0561"/><use xlink:href="#5b5d0595by" x="1142.655733" y="364.0561"/><use xlink:href="#5b5d0595bs" x="1165.963798" y="364.0561"/><use xlink:href="#5b5d0595by" x="1186.026436" y="364.0561"/></g><use xlink:href="#5b5d0595bz" x="660.817" y="713.5841" fill="#fff"/><use xlink:href="#5b5d0595bA" x="750.830703" y="713.5841" fill="#fff"/><g fill="#fff"><use xlink:href="#5b5d0595bB" x="826.504241" y="713.5841"/><use xlink:href="#5b5d0595bC" x="872.877174" y="713.5841"/></g><g fill="#fff"><use xlink:href="#5b5d0595bB" x="960.646072" y="713.5841"/><use xlink:href="#5b5d0595bD" x="1007.019005" y="713.5841"/><use xlink:href="#5b5d0595bE" x="1079.679779" y="713.5841"/><use xlink:href="#5b5d0595bF" x="1126.495765" y="713.5841"/></g></svg>