<?xml version='1.0' encoding='UTF-8'?>
<svg xmlns="http://www.w3.org/2000/svg" xmlns:xlink="http://www.w3.org/1999/xlink" width="1280px" height="800px" viewBox="0 0 1280 800" x="0px" y="0px" enable-background="new 0 0 1280 800"><defs><symbol overflow="visible" id="7ab9ad7ea"><path d="M7.531.281c3.485 0 5.5-1.64 5.938-4.625l-2-.156C11.03-2.344 9.89-1.453 7.53-1.453c-2.843 0-4.375-1.906-4.375-5.313 0-3.406 1.531-5.312 4.344-5.312 2.328 0 3.469.969 3.953 3.031l1.969-.14c-.438-2.985-2.485-4.626-5.922-4.626-4 0-6.39 2.626-6.39 7.047C1.11-2.344 3.483.281 7.53.281zm0 0"/></symbol><symbol overflow="visible" id="7ab9ad7eb"><path d="M8-10.063L5.281-1.733h-.093l-3.032-8.329H.094L3.906 0h.766c-.75 1.766-1.438 2.328-2.594 2.328a7.64 7.64 0 01-1.281-.14L.594 3.796c.422.11 1 .203 1.61.203C4.577 4 5.53 2.516 6.421 0l3.562-10.063zm0 0"/></symbol><symbol overflow="visible" id="7ab9ad7ec"><path d="M1.75 0h1.906v-5.531c0-1.86 1.219-3 2.781-3 .407 0 .704.062.954.11l.187-1.813a5.744 5.744 0 00-1-.11c-1.344 0-2.297.625-2.86 2.016h-.093l-.25-1.735H1.75zm0 0"/></symbol><symbol overflow="visible" id="7ab9ad7ed"><path d="M2.703-11.719c.75 0 1.281-.375 1.281-1.219 0-.828-.53-1.203-1.28-1.203-.767 0-1.282.375-1.282 1.204 0 .843.516 1.218 1.281 1.218zM1.75 0h1.906v-10.063H1.75zm0 0"/></symbol><symbol overflow="visible" id="7ab9ad7ee"><path d="M1.75 0h1.906v-14.281H1.75zm0 0"/></symbol><symbol overflow="visible" id="7ab9ad7ef"><path d="M5.672.281c2.781 0 4.125-1.219 4.406-3.469l-1.906-.14c-.203 1.328-.922 2-2.485 2-1.875 0-2.765-1.313-2.765-3.703 0-2.39.875-3.688 2.75-3.688 1.531 0 2.297.735 2.484 2.047l1.922-.14c-.265-2.25-1.75-3.532-4.406-3.532-3 0-4.719 1.985-4.719 5.313C.953-1.656 2.672.28 5.672.28zm0 0"/></symbol><symbol overflow="visible" id="7ab9ad7ebs"><path d="M7.156.313c2.657 0 3.953-1.297 4.594-2.688h.11L12.077 0h1.578v-6.875H8.312v1.578h3.438C11.328-3.016 9.984-1.39 7.5-1.39c-2.719 0-4.36-1.859-4.36-5.375 0-3.421 1.547-5.312 4.485-5.312 2.453 0 3.516 1.015 3.938 2.75l1.984-.156c-.328-2.5-2.219-4.329-5.953-4.329-4.11 0-6.485 2.61-6.485 7.047C1.11-2.172 3.594.313 7.156.313zm0 0"/></symbol><symbol overflow="visible" id="7ab9ad7ebt"><path d="M10.203-4.438V-5.5c0-3.094-1.687-4.86-4.547-4.86-2.86 0-4.703 1.86-4.703 5.344 0 3.282 1.64 5.297 4.844 5.297 2.562 0 3.797-1.14 4.234-2.875L8.156-2.78c-.312.875-1 1.453-2.39 1.453-1.75 0-2.704-1.031-2.844-3.11zM5.656-8.796c1.735 0 2.578.985 2.672 2.938h-5.39c.187-2 1.093-2.938 2.718-2.938zm0 0"/></symbol><symbol overflow="visible" id="7ab9ad7ebu"><path d="M10.172-10.063H7.859L3.75-5.89h-.094v-8.39H1.75V0h1.906v-4.61h.094L8.031 0h2.328L5.406-5.313zm0 0"/></symbol><symbol overflow="visible" id="7ab9ad7eg"><path d="M57.672-61.672h-11.11L18.845-34.75h-.422v-26.922H9.297V0h9.125v-27.969h.515L46.642 0h11.734L26.75-31.797zm0 0"/></symbol><symbol overflow="visible" id="7ab9ad7eh"><path d="M38.484-22.938v-.421c4.422-1.141 7.72-4.172 7.72-10.172 0-7.469-4.157-12.328-15.892-12.328H7.985V0h22.844c12.25 0 16.688-5.297 16.688-12.328 0-6.438-3.657-9.219-9.032-10.61zM28.922-39c6.781 0 8.953 1.734 8.953 6 0 4.422-2.266 6.594-9.563 6.594H16.5V-39zm.437 32.14H16.5v-12.937h12.516c7.03 0 9.984 1.563 9.984 6.422 0 4.86-2.516 6.516-9.64 6.516zm0 0"/></symbol><symbol overflow="visible" id="7ab9ad7ei"><path d="M19.719 1.219c7.562 0 12.593-2.953 14.937-8.078h.438L35.954 0h7.39v-31.094c0-11.031-6.422-16.156-18.328-16.156-12.5 0-17.547 5.297-18.938 14.328l8.516.703c.875-4.953 3.39-8 10.328-8 6.953 0 10 2.953 10 9.563v2.687l-14.938 1.907C8.86-24.672 4.078-20.5 4.078-12.079c0 8.172 5.297 13.297 15.64 13.297zm2.172-6.953c-6.422 0-8.953-2.782-8.953-6.954 0-3.984 2.265-6.156 7.906-6.937l14.078-2v3.906c0 6.782-4.61 11.985-13.031 11.985zm0 0"/></symbol><symbol overflow="visible" id="7ab9ad7ej"><path d="M46.031-7.563v-38.296H12.938c-.079 7.906-.25 14.937-.782 21.359-.687 8.078-2.86 14.344-5.203 16.938H.875v19.718h8.078V0h36.125v12.156h8.078V-7.562zm-30.484 0c2.437-3.562 3.906-9.812 4.437-16.5.25-4.078.516-9.203.688-14.593h16.86v31.093zm0 0"/></symbol><symbol overflow="visible" id="7ab9ad7ek"><path d="M7.984 16.938h8.688V-7.297h.437c2.516 5.469 7.297 8.594 14.328 8.594 12.688 0 19.891-8.938 19.891-24.235 0-15.28-7.203-24.234-19.453-24.234-7.203 0-11.813 3.14-14.938 9.219H16.5l-1.125-7.906h-7.39zm21.47-23.016c-8.688 0-12.954-6.516-12.954-16.86 0-10.421 4.266-16.843 12.953-16.843 8.672 0 13.016 5.562 13.016 16.843 0 11.297-4.344 16.86-13.016 16.86zm0 0"/></symbol><symbol overflow="visible" id="7ab9ad7el"><path d="M7.984 0h9.047l22.485-33.703h.437V0h8.422v-45.86h-9.031l-22.5 33.704h-.422V-45.86H7.984zm0 0"/></symbol><symbol overflow="visible" id="7ab9ad7em"><path d="M-4.61-52.375h6.954l8.25-15.547H1.219zm0 0"/></symbol><symbol overflow="visible" id="7ab9ad7en"><path d="M36.484-45.86L24.062-7.905h-.437L9.812-45.86H.438L17.813 0h3.468c-3.39 8.078-6.515 10.594-11.812 10.594-1.656 0-4-.25-5.828-.61l-.954 7.297c1.922.532 4.61.953 7.391.953 10.766 0 15.11-6.765 19.188-18.234l16.25-45.86zm0 0"/></symbol><symbol overflow="visible" id="7ab9ad7eo"><path d="M7.984 0h7.657v-36.563h.421L30.407 0h7.547l14.344-36.563h.422V0h8.343v-45.86H48.47L34.922-10.515h-.438L20.578-45.859H7.984zm0 0"/></symbol><symbol overflow="visible" id="7ab9ad7ep"><path d="M68.766-71.688H7.687V0h16.36v-58.078h28.422V0h16.297zm0 0"/></symbol><symbol overflow="visible" id="7ab9ad7eq"><path d="M30.078 1.563C47.422 1.563 57.5-9.25 57.5-27.642c0-18.28-10.078-29.078-27.422-29.078-17.297 0-27.375 10.797-27.375 29.078 0 18.391 10.078 29.203 27.375 29.203zm0-12.157c-7.75 0-11.531-5.36-11.531-17.047 0-11.578 3.781-16.984 11.531-16.984 7.781 0 11.578 5.406 11.578 16.984 0 11.688-3.797 17.047-11.578 17.047zm0 0"/></symbol><symbol overflow="visible" id="7ab9ad7er"><path d="M29.297 1.563c16.25 0 23.469-8.063 26.015-22.86H40.36c-1.922 7.219-4.203 10.5-10.703 10.5-7.578 0-11.062-6.031-11.062-16.625 0-11.062 3.484-16.937 11.062-16.937 6.657 0 8.89 3.172 10.594 10.187h15.016c-2.188-15.125-9.61-22.547-25.97-22.547-16.468 0-26.593 10.703-26.593 29.297 0 18.438 10.125 28.985 26.594 28.985zm0 0"/></symbol><symbol overflow="visible" id="7ab9ad7es"><path d="M48.719-55.156H.516v12.406h16.312V0h15.578v-42.75H48.72zm0 0"/></symbol><symbol overflow="visible" id="7ab9ad7et"><path d="M5.766 19.219h15.578v-26.64h.11c2.858 5.5 7.577 8.983 15.89 8.983 13.562 0 22.437-10.906 22.437-29.14 0-18.188-8.25-29.14-21.968-29.14-9.657 0-14.172 4.78-16.72 10.015h-.109l-1.609-8.453H5.765zm26.75-30.016c-7.532 0-11.375-6.14-11.375-16.844 0-10.437 3.843-16.718 11.375-16.718 7.484 0 11.422 5.453 11.422 16.718 0 11.328-3.938 16.844-11.422 16.844zm0 0"/></symbol><symbol overflow="visible" id="7ab9ad7eu"><path d="M31.844-61.547c10.86 0 16.093-4.578 17.61-16.734H38.546c-.938 4.672-1.922 7.531-6.39 7.531-4.516 0-5.516-2.86-6.391-7.531H14.344c1.5 12.156 6.484 16.734 17.5 16.734zM5.766 0H20.25l21.828-34.172h.094V0h14.86v-55.156H42.546L20.719-21.031h-.094v-34.125H5.765zm0 0"/></symbol><symbol overflow="visible" id="7ab9ad7ev"><path d="M56.719-55.156H40.094L21.454-29.86h-.11v-25.297H5.766V0h15.578v-27.422h.11L39.936 0h17.829L37.188-30.078zm0 0"/></symbol><symbol overflow="visible" id="7ab9ad7ew"><path d="M5.766 0H20.25l21.828-34.172h.094V0h14.86v-55.156H42.546L20.719-21.031h-.094v-34.125H5.765zm0 0"/></symbol><symbol overflow="visible" id="7ab9ad7ex"><path d="M7.656 0h3.172v-43.734h.078L31.422 0h2.781L54.72-43.734h.078V0h3.39v-51.016h-3.5L32.984-4.656h-.078l-21.812-46.36H7.656zm0 0"/></symbol><symbol overflow="visible" id="7ab9ad7ey"><path d="M26.438 1.11c13.64 0 22.546-9.36 22.546-26.626 0-17.265-8.906-26.609-22.547-26.609-13.64 0-22.593 9.344-22.593 26.61 0 17.265 8.953 26.624 22.593 26.624zm0-3.063c-11.766 0-19.11-8.063-19.11-23.563 0-15.484 7.344-23.547 19.11-23.547 11.718 0 19.078 8.063 19.078 23.547 0 15.5-7.36 23.563-19.078 23.563zm0 0"/></symbol><symbol overflow="visible" id="7ab9ad7ez"><path d="M45.172-3.031v-47.985H13.5c-.266 12.125-.64 20.547-1.344 28.313-.734 7.765-2.25 14.687-5.5 19.672H.484v15.015h3.282V0h45.406v11.984h3.297V-3.03zm-35.047 0c2.734-4.406 4.406-11.172 5.078-18.453.735-6.985 1.172-16.266 1.469-26.5h25.062v44.953zm0 0"/></symbol><symbol overflow="visible" id="7ab9ad7eA"><path d="M40-47.984v-3.032H7.656V0H40v-3.031H11.094v-21.375h24.36v-2.953h-24.36v-20.625zm0 0"/></symbol><symbol overflow="visible" id="7ab9ad7eB"><path d="M26.172-51.016H7.656V0h3.438v-20.563H26.14c11.422 0 17.109-5.578 17.109-15.343 0-9.75-5.688-15.11-17.078-15.11zm-.36 27.47H11.095v-24.485h14.75c9.468 0 14.015 3.953 14.015 12.125 0 8.14-4.547 12.36-14.047 12.36zm0 0"/></symbol><symbol overflow="visible" id="7ab9ad7eC"><path d="M7.656 0h3.438v-24.438h30.875V0h3.468v-51.016H41.97v23.547H11.094v-23.547H7.656zm0 0"/></symbol><symbol overflow="visible" id="7ab9ad7eD"><path d="M7.656 0h3.328l31.282-45.406h.062V0h3.438v-51.016h-3.282L11.172-5.578h-.078v-45.438H7.656zm0 0"/></symbol><symbol overflow="visible" id="7ab9ad7eE"><path d="M23.766 1.11c12.312 0 18.968-5.516 18.968-15.126 0-7.125-4.953-11.093-11.156-12.046v-.079c5.5-1.218 9.75-4.922 9.719-12.453-.031-8.328-5.875-13.531-17.672-13.531-11.688 0-15.828 5.688-19.156 15.047h3.437c3-7.813 6.407-12.172 15.719-12.172 9.719 0 14.313 4.14 14.313 10.875 0 6.906-4.36 10.906-13.063 10.906h-8.5v2.922H25c9.234 0 14.344 3.438 14.344 10.344 0 7.734-5.188 12.469-15.578 12.39C12.796-1.89 9.469-6.327 6.5-13.608H3.062C5.985-4.625 10.47 1.109 23.767 1.109zm0 0"/></symbol><symbol overflow="visible" id="7ab9ad7eF"><path d="M18.578-21.422l-1.781 10.094c-1.75.906-4.063 1.453-6.344 1.453-3.281 0-5.312-.984-4.562-5.25l1.14-6.297H4.344l-1.14 6.5c-.938 5.281 2.218 7.375 7 7.375 2.202 0 4.437-.5 6.155-1.344L14.781 0h2.672l3.797-21.422zm0 0"/></symbol><symbol overflow="visible" id="7ab9ad7eG"><path d="M14.969-15.875H1.656l-.406 2.219h5.406L4.22 0H6.78L9.22-13.656h5.344zm0 0"/></symbol><symbol overflow="visible" id="7ab9ad7eH"><path d="M8 .453c4.797 0 7.734-2.89 8.64-8.156.891-5.125-1.328-8.625-6.374-8.625-4.782 0-7.688 2.922-8.61 8.11C.734-3.095 2.938.452 8 .452zm.188-2.219c-3.594 0-4.61-2.64-3.954-6.25.735-4.03 2.47-6.078 5.844-6.078 3.594 0 4.672 2.563 4 6.172-.797 4.078-2.5 6.156-5.89 6.156zm0 0"/></symbol><symbol overflow="visible" id="7ab9ad7eJ"><path d="M17.703-15.875H4.281L1.47 0H4.03l2.407-13.578h8.296L12.328 0h2.563zm0 0"/></symbol><symbol overflow="visible" id="7ab9ad7eK"><path d="M.438 5.922H3l1.547-8.766h.14C5.173-1.297 6.313.453 9.61.453c4.157 0 7.016-2.922 7.922-8.11.89-5.077-1.218-8.671-5.843-8.671-2.766 0-4.313 1.36-5.282 2.984h-.125l.125-2.531h-2.14zm8.89-7.688c-3.375 0-4.64-2.53-4-6.218.61-3.641 2.266-6.11 5.672-6.11 3.61 0 4.61 2.578 3.953 6.235-.734 4-2.484 6.093-5.625 6.093zm0 0"/></symbol><symbol overflow="visible" id="7ab9ad7eL"><path d="M1.469 0h2.656l10.469-11.938h.14L12.625 0h2.5l2.828-15.875h-2.656L4.812-3.922h-.14l2.11-11.953h-2.5zm0 0"/></symbol><symbol overflow="visible" id="7ab9ad7eM"><path d="M7.25.453c4.688 0 7.25-2.094 7.25-5.36 0-1.984-1.281-2.859-2.64-3.124l.03-.125c1.657-.235 3.516-1.563 3.516-4.313 0-2.39-1.719-3.86-5.781-3.86-4.469 0-6.172 1.75-7.234 4.673l2.593.312c.844-2.047 1.797-2.875 4.391-2.875 2.703 0 3.578.797 3.578 2.14 0 1.97-1.531 2.954-4.062 2.954H6.578l-.36 2.063h2.313c2.422 0 3.453.625 3.453 2.14 0 1.953-1.562 3.266-4.468 3.266-3.016 0-3.954-.89-4.125-3.125l-2.485.14C.953-1.156 2.61.453 7.25.453zm0 0"/></symbol><symbol overflow="visible" id="7ab9ad7eN"><path d="M23.11-15.875L20.671-2.25h-6.844l2.438-13.625h-2.578L11.265-2.25H4.422l2.422-13.625H4.28L1.47 0h21.375l2.828-15.875zm0 0"/></symbol><symbol overflow="visible" id="7ab9ad7eO"><path d="M17.422-15.875H5.953C5.36-12.969 4.25-8.172 3.687-5.891 3.016-3.156 2.25-2.062.658-2.062c-.391 0-.813-.063-1.063-.126l-.39 2.25C-.517.142.265.25.827.25c3.047 0 4.203-1.766 5.14-5.64.407-1.75 1.282-5.438 1.907-8.266h6.594L12.047 0h2.562zm0 0"/></symbol><symbol overflow="visible" id="7ab9ad7eP"><path d="M13.656-15.875l-1.328 7.469c-1.297.578-2.875.922-4.265.922-2.86 0-3.891-.75-3.313-4.016l.781-4.375H2.97l-.875 4.906c-.719 4.125 1.36 5.703 5.25 5.703a11.53 11.53 0 004.593-.968L10.845 0h2.562l2.813-15.875zm0 0"/></symbol><symbol overflow="visible" id="7ab9ad7eQ"><path d="M8.64.453c4.844 0 7.782-2.89 8.688-8.062.86-4.97-1.234-8.297-6.078-8.297-3.047 0-4.875 1.547-6.078 3.547h-.156c1.64-5.516 2.906-7.016 8.078-7.688a83.962 83.962 0 015.484-.562l-.14-2.47c-1.532.142-3.594.313-5.97.688-6.843 1.032-8.437 4.703-9.859 12.657C1.563-3.844 2.97.453 8.641.453zm.25-2.219c-3.609 0-4.593-2.64-3.968-6.156.703-4.016 2.812-5.937 6.047-5.937 3.406 0 4.437 2.562 3.781 6.046-.766 3.97-2.484 6.047-5.86 6.047zm0 0"/></symbol><symbol overflow="visible" id="7ab9ad7eR"><path d="M14.047-15.875l-7 13.5H6.89l-2.688-13.5H1.61L4.922 0h.984c-1.765 3.11-2.781 4.11-4.75 4.11-.64 0-1.328-.141-1.843-.298l-.438 2.172c.578.204 1.5.391 2.375.391 3.64 0 4.844-2.281 7.047-6.375l8.562-15.875zm0 0"/></symbol><symbol overflow="visible" id="7ab9ad7eS"><path d="M14.563-2.25l2.406-13.625H5.89c-.532 2.734-1.11 5.844-1.688 8.047-.766 2.906-1.86 4.672-2.875 5.578H-.688l-1.14 6.469h2.39L1.313 0h12.876l-.75 4.219h2.406l1.125-6.469zm-10.47 0C5.189-3.484 5.876-5.234 6.5-7.672c.39-1.578.875-3.86 1.313-6.031h6.265L12.047-2.25zm0 0"/></symbol><symbol overflow="visible" id="7ab9ad7eT"><path d="M15.875-7.14c.203-1.063.344-2.282.344-3.188 0-3.703-2.203-6.016-6.157-6.016-4.359 0-7.468 2.813-8.39 8.063C.766-3.141 2.906.453 8.032.453c4.155 0 6-1.734 7.03-4.453l-2.468-.266c-.766 1.563-1.969 2.516-4.375 2.516-3.531 0-4.453-2.5-4.156-5.39zm-5.984-7.063c3.25 0 4.203 1.969 3.812 5.094H4.438c.875-3.422 2.609-5.094 5.453-5.094zm0 0"/></symbol><symbol overflow="visible" id="7ab9ad7eU"><path d="M6.047.438c2.75 0 4.547-1.375 5.312-2.922h.125L11.281 0h2.14l1.704-9.64c.734-4.25-.875-6.704-5.5-6.704-4.094 0-5.89 1.64-6.797 4.766l2.5.344c.61-2.063 1.75-3 3.969-3 2.656 0 3.562.953 3.562 2.843 0 .563-.109 1.235-.28 2l-5.563.532C3.062-8.453.89-7.08.89-3.86.89-1.266 2.734.437 6.047.437zm.516-2.079c-2 0-3.079-.828-3.079-2.453 0-1.875 1.329-2.625 3.657-2.86l5.093-.515-.28 1.516C11.5-3.437 9.218-1.641 6.561-1.641zm0 0"/></symbol><symbol overflow="visible" id="7ab9ad7eV"><path d="M12.953-7.922l.031-.14c1.813-.391 3.329-1.704 3.329-4.157 0-2.36-1.532-3.656-4.922-3.656H4.28L1.47 0h7.718c3.954 0 6.376-1.547 6.376-4.89 0-1.563-.891-2.61-2.61-3.032zm-2.015-5.875c2.093 0 2.968.531 2.968 1.922 0 1.906-1.25 2.844-3.844 2.844H5.595l.843-4.766zM9.108-2.062H4.36l.891-4.985h4.719c2.25 0 3.14.703 3.14 2.094 0 2.14-1.578 2.89-4 2.89zm0 0"/></symbol><symbol overflow="visible" id="7ab9ad7eW"><path d="M5.719-5.234h2.437l.266-1.5c.344-2.172 2.047-3.266 3.781-4.438 2.078-1.406 4.188-2.89 4.188-6.562 0-3.282-2.532-4.891-6-4.891-5.157 0-7.125 2.094-8.532 6.438l2.532.343c1-3.031 2.265-4.61 5.625-4.61 2.515 0 3.875 1.048 3.875 2.954 0 2.438-1.485 3.516-3.157 4.64-1.937 1.266-4.171 2.594-4.75 6.016zM6.234.25c1.282 0 2.094-.75 2.094-2.047 0-.906-.656-1.375-1.469-1.375-1.296 0-2.093.75-2.093 2.047 0 .906.64 1.375 1.468 1.375zm0 0"/></symbol><symbol overflow="visible" id="7ab9ad7eX"><path d="M25.89-2.719l.188-.844-10.125-8.28v-.048l13.016-8.265.187-1.047L15-12.297l-.094.688zm-11.515 0l.172-.844-10.125-8.28v-.048l13.015-8.265.188-1.047-14.14 8.906-.094.688zm0 0"/></symbol><symbol overflow="visible" id="7ab9ad7eY"><path d="M25.89-31.188H8.36L2.843 0h.906l5.375-30.328h16.594zm0 0"/></symbol><symbol overflow="visible" id="7ab9ad7eZ"><path d="M10.484.672c6.282 0 10.22-4.203 11.61-12.016 1.265-6.953-1.266-12.61-8.36-12.61-6.28 0-10.203 4.157-11.609 11.985C.906-5.063 3.297.671 10.485.671zm.047-.86c-6.594 0-8.594-5.14-7.5-11.703 1.219-7.312 4.781-11.203 10.656-11.203 6.516 0 8.782 5.11 7.516 11.657C19.797-4.11 16.406-.188 10.531-.188zm0 0"/></symbol><symbol overflow="visible" id="7ab9ad7eaa"><path d="M.219 8.594h.906L3.844-6.594h.047C4.297-3.344 6.234.672 11.797.672c5.875 0 9.937-4.203 11.344-12.016 1.265-6.953-1.36-12.61-8.094-12.61-4.75 0-7.688 2.75-9.36 6.595h-.03l.937-5.922h-.719zM11.844-.187c-6.11 0-8.14-5.141-7.094-11.704C5.969-19.437 10.031-23.094 15-23.094c6.11 0 8.5 5.11 7.234 11.657-1.406 7.328-4.922 11.25-10.39 11.25zm0 0"/></symbol><symbol overflow="visible" id="7ab9ad7eab"><path d="M18.984-.86l3.97-22.421H8.905C8-19.156 7-14.094 6.062-10.844 4.704-6.234 2.938-2.219 1.266-.859h-2.72l-1.171 6.734h.906L-.672 0h22l-1.031 5.875h.906l1.172-6.734zm-16.547 0c1.672-1.765 3.25-5.827 4.485-9.984.89-3.031 1.797-7.594 2.656-11.578h12.344L18.078-.859zm0 0"/></symbol><symbol overflow="visible" id="7ab9ad7ead"><path d="M9.61.672c6.046 0 9.984-4.156 11.39-11.969 1.219-6.922-.953-12.656-8.14-12.656-5.016 0-7.547 2.312-10.079 7.187h.953c2.391-4.25 4.422-6.328 9.079-6.328 6.234 0 8.14 4.61 7.406 10.625H7.39l-.188.86h12.938C18.875-4.063 15.297-.188 9.688-.188c-4.641 0-6.454-1.984-7.5-6.546h-.86C2.468-1.625 4.5.672 9.61.672zm0 0"/></symbol><symbol overflow="visible" id="7ab9ad7eae"><path d="M19.89-23.281H2.267l-.141.86h8.36L6.546 0h.906l3.938-22.422h8.359zm0 0"/></symbol><symbol overflow="visible" id="7ab9ad7eaf"><path d="M22.344-23.281l-1.89 10.984H4.858L6.75-23.28h-.89L1.78 0h.907l1.984-11.438h15.594L18.28 0h.907l4.062-23.281zm0 0"/></symbol><symbol overflow="visible" id="7ab9ad7eag"><path d="M21.031-11.531c.235-1.438.375-2.531.375-3.75 0-5.516-2.812-8.672-8.047-8.672-5.921 0-9.859 4.203-11.218 11.797C.844-4.922 3.328.672 10.14.672c4.796 0 7.234-1.75 9.593-6.234h-1C16.797-1.86 14.625-.188 10.187-.188c-6 0-8.218-4.782-7.234-11.344zm-7.718-11.563c6.046 0 7.906 4.469 6.953 10.75H3.094c1.312-6.953 4.844-10.75 10.219-10.75zm0 0"/></symbol><symbol overflow="visible" id="7ab9ad7eah"><path d="M20.766-23.281h-1.407L4.86-12.016h-.046L6.75-23.28h-.89L1.78 0h.907l2.078-11.844h.046L15.892 0h1.218L6.031-11.844zm0 0"/></symbol><symbol overflow="visible" id="7ab9ad7eai"><path d="M1.781 0h.86l3.703-21.016h.047L12.14 0h.625l13.109-20.797h.047L22.266 0h.89l4.078-23.281h-.906L12.672-1.453h-.047L6.672-23.281h-.813zm0 0"/></symbol><symbol overflow="visible" id="7ab9ad7eaj"><path d="M22.938-23.281H5.858L1.781 0h.907l3.937-22.422h15.266L17.969 0h.906zm0 0"/></symbol><symbol overflow="visible" id="7ab9ad7eak"><path d="M13.172-13.328H5l1.75-9.953h-.89L1.78 0h9.578c5.25 0 8.547-2.984 8.547-7.734 0-3.422-2.125-5.594-6.734-5.594zM11.406-.813H2.828L4.86-12.515h8.266c4.031 0 5.875 1.72 5.875 4.782 0 4.203-2.75 6.921-7.594 6.921zm0 0"/></symbol><symbol overflow="visible" id="7ab9ad7eal"><path d="M18.469.672c5.875 0 9.797-4.203 11.203-12.016 1.265-6.953-1.266-12.61-7.953-12.61-5.75 0-9.625 3.985-11.125 11.485H4.859L6.75-23.28h-.89L1.78 0h.907l2.03-11.61h5.75C9.376-4.874 11.814.673 18.469.673zm.031-.86c-6.188 0-8.172-5.14-7.094-11.703 1.219-7.312 4.797-11.203 10.266-11.203 6.094 0 8.36 5.11 7.094 11.657C27.359-4.11 23.969-.188 18.5-.188zm0 0"/></symbol><symbol overflow="visible" id="7ab9ad7eam"><path d="M17.11-21.203l-.188.86 10.125 8.28v.047L14.03-3.75l-.172 1.031L28-11.609l.094-.688zm-11.532 0l-.172.86 10.125 8.28v.047L2.516-3.75l-.188 1.031 14.14-8.89.095-.688zm0 0"/></symbol><symbol overflow="visible" id="7ab9ad7ean"><path d="M7.172 0h18.14v-43.625h.11L44.562 0h13.626l19.187-43.625h.125V0h20.86v-79.75H76.11L53.218-27.625h-.11L29.422-79.75H7.172zm0 0"/></symbol><symbol overflow="visible" id="7ab9ad7eao"><path d="M33.75 1.734c17.39 0 29.297-8.203 29.297-29.25v-34.093H42.25v35.547c0 8.5-2.61 11.671-8.5 11.671-5.844 0-8.547-3.171-8.547-11.671V-61.61H4.391v34.093c0 21.047 12.015 29.25 29.359 29.25zm0 0"/></symbol><symbol overflow="visible" id="7ab9ad7eap"><path d="M33.813 1.734c19.984 0 30.734-11.562 30.734-28.265 0-6.875-2.766-13.453-6.75-17.453v-.11h13.172v-17.515H36.984c-22.937 0-34.672 12.03-34.672 32.547 0 18.828 11.563 30.796 31.5 30.796zm0-15.718c-7.172 0-10.407-4.86-10.407-16.235 0-10.64 3.235-15.672 10.407-15.672 7.28 0 10.453 5.032 10.453 15.672 0 11.375-3.172 16.235-10.453 16.235zm0 0"/></symbol><symbol overflow="visible" id="7ab9ad7eaq"><path d="M53.86-44.094v-17.515H-.579v17.515h16.36v26.407c0 13.187 6.468 19.359 20.515 19.359 5.547 0 9.531-.922 12.36-1.906v-14.97c-1.032.298-3.75.75-6.063.75-4.563 0-6.703-1.952-6.703-6.983v-22.657zm0 0"/></symbol><symbol overflow="visible" id="7ab9ad7ear"><path d="M24.563 1.672c5.03 0 8.5-.75 11.39-1.781v-14.97c-1.047.282-2.844.626-4.344.626-4.328 0-6.125-1.953-6.125-6.985v-40.171H4.687v43.062c0 13.11 5.891 20.219 19.875 20.219zm0 0"/></symbol><symbol overflow="visible" id="7ab9ad7eas"><path d="M66-61.61H44.61L26.233-33.343h-.109v-28.265H5.312V0h20.813v-30.219h.11L43.984 0h23.171l-20.64-33.86zm0 0"/></symbol><symbol overflow="visible" id="7ab9ad7eat"><path d="M25.594-68.938h14.218l12.313-19.421H32.703zm8.218 70.672c19.985 0 31.547-11.968 31.547-32.53 0-20.517-11.562-32.548-31.546-32.548-19.938 0-31.5 12.032-31.5 32.547 0 20.563 11.562 32.531 31.5 32.531zm0-15.718c-7.171 0-10.406-4.86-10.406-16.813 0-11.797 3.235-16.828 10.407-16.828 7.28 0 10.453 5.031 10.453 16.828 0 11.953-3.172 16.813-10.453 16.813zm0 0"/></symbol><symbol overflow="visible" id="7ab9ad7eau"><path d="M54.203 21.375c3.188-5.766 5.61-11.313 5.61-17.672 0-13.187-9.016-16.828-17.922-20-8.953-3.297-17.844-6.297-17.844-18.031 0-7.563 2.312-12.89 9.469-12.89 6.25 0 8.156 3.359 9.828 10.296h19.703c-2.25-17.281-10.516-26.422-30.39-26.422-19.36 0-29.766 12.657-29.766 30.172 0 21.844 13.578 27.11 24.093 31.031C33.687.281 39.187 2.375 39.187 7.688c0 4.046-1.968 8.203-4.859 13.687zm0 0"/></symbol><symbol overflow="visible" id="7ab9ad7eav"><path d="M59.563-62.703v-9.39H9.828V0h49.734v-9.406H20.797v-22.36h31.969v-8.984h-31.97v-21.953zm0 0"/></symbol><symbol overflow="visible" id="7ab9ad7eaw"><path d="M22.156 0h9.719L53.5-55.172H43.047L27.594-13.578h-.11L11.812-55.172H.517zm0 0"/></symbol><symbol overflow="visible" id="7ab9ad7eax"><path d="M29.313 1.563c16.093 0 26.125-10.97 26.125-26.329 0-14.843-7.938-22.78-19.235-27.265-9.5-3.766-14.734-6.594-14.734-12.235 0-4.078 2.937-6.484 8.672-6.484 6.593 0 8.78 2.313 11.078 9.203h10.25C48.437-72.734 44.156-78.89 30.25-78.89c-12.75 0-19.125 5.954-19.125 14.422 0 7.516 4.922 12.219 11.078 15.047v.094C12.593-47.438 3.5-39.812 3.5-24.766c0 15.36 9.922 26.328 25.813 26.328zm.109-8.876c-9.938 0-15.266-6.906-15.266-18.187 0-10.969 5.438-18.39 15.266-18.39 9.719 0 15.36 7.218 15.36 18.39 0 11.281-5.438 18.188-15.36 18.188zm0 0"/></symbol><symbol overflow="visible" id="7ab9ad7eay"><path d="M22.36 1.36c3.234 0 5.64-.516 7.312-1.157v-8.36c-1.14.313-3.031.626-4.594.626-4.594 0-6.89-1.672-6.89-7v-40.64H7.733v41.374C7.734-3.766 12.547 1.36 22.36 1.36zm0 0"/></symbol><symbol overflow="visible" id="7ab9ad7eaz"><path d="M26.75 1.563c9.719 0 15.156-4.594 18.281-10.547h.11c1.25 7.203 5.328 10.546 12.953 10.546 2.515 0 4.5-.406 6.172-1.046v-8.25c-1.25.312-2.516.421-3.454.421-4.171 0-6.156-1.562-6.156-7.937v-39.922h-8.89l-1.047 8.563h-.094c-2.938-5.532-7.844-10.125-17.031-10.125-14.328 0-23.828 10.75-23.828 29.14S12.546 1.563 26.75 1.563zm2.719-8.876c-9.61 0-15.047-6.687-15.047-20.28 0-13.579 5.437-20.266 15.047-20.266s14.937 7.843 14.937 20.265c0 12.032-5.328 20.282-14.937 20.282zm0 0"/></symbol><symbol overflow="visible" id="7ab9ad7eaA"><path d="M7.844-62.703h8.047l9.296-15.672H14.11zM22.359 1.359c3.235 0 5.641-.515 7.313-1.156v-8.36c-1.14.313-3.031.626-4.594.626-4.594 0-6.89-1.672-6.89-7v-40.64H7.733v41.374C7.734-3.766 12.547 1.36 22.36 1.36zm0 0"/></symbol><symbol overflow="visible" id="7ab9ad7eaB"><path d="M43.89-45.766v-9.406H-.515v9.406h16.61v31.97c0 10.343 5.218 15.155 15.25 15.155 3.343 0 6.281-.734 7.843-1.25V-8.25c-1.156.313-4.078.719-5.859.719-4.594 0-7.203-1.672-7.203-7v-31.235zm0 0"/></symbol><symbol overflow="visible" id="7ab9ad7eaC"><path d="M43.781 19.328h10.453v-55.484c0-12.532-6.265-20.578-19.015-20.578-8.985 0-14.11 4.484-17.344 10.03h-.11l-1.359-8.468H7.531V0H17.97v-29.266c0-11.28 5.75-18.062 14.422-18.062 7.734 0 11.39 4.594 11.39 13.578zm0 0"/></symbol><symbol overflow="visible" id="7ab9ad7eaD"><path d="M7.531 19.328h10.125V-2.516C20.375.313 23.72 1.563 28.531 1.563c8.985 0 13.063-4.797 15.453-10.438h.11c.937 7.203 5.125 10.438 12.75 10.438 2.515 0 4.5-.407 6.172-1.047v-8.25a14.878 14.878 0 01-3.453.421c-4.188 0-6.172-1.562-6.172-7.937v-39.922H42.953v30.516c0 10.125-5.547 16.922-13.906 16.922-7.11 0-11.078-4.079-11.078-14.313v-33.125H7.53zm0 0"/></symbol><symbol overflow="visible" id="7ab9ad7eaE"><path d="M26.078-55.203h-1.36l-22.874 54V0h47.11v-1.203zM3.688-1.437l21.671-51.516h.078l21.61 51.516zm0 0"/></symbol><symbol overflow="visible" id="7ab9ad7eaF"><path d="M8.64 0h1.594v-27.36h36V0h1.61v-55.203h-1.61v26.328h-36v-26.328H8.641zm0 0"/></symbol><symbol overflow="visible" id="7ab9ad7eaG"><path d="M8.64 0h1.516v-51.438h.078L34.562 0h1.282l24.312-51.438h.078V0h1.61v-55.203h-1.61L35.281-2.234h-.078l-24.969-52.97H8.641zm0 0"/></symbol><symbol overflow="visible" id="7ab9ad7eaH"><path d="M8.64 0h1.594v-55.203H8.641zm0 0"/></symbol><symbol overflow="visible" id="7ab9ad7eaI"><path d="M28.078 1.203c14.156 0 23.766-9.765 23.766-28.797 0-19.047-9.61-28.812-23.766-28.812-14.156 0-23.765 9.765-23.765 28.812 0 19.032 9.609 28.797 23.765 28.797zm0-1.516c-13.36 0-22.156-9.203-22.156-27.28 0-18.095 8.797-27.282 22.156-27.282 13.36 0 22.156 9.188 22.156 27.281 0 18.078-8.797 27.282-22.156 27.282zm0 0"/></symbol><symbol overflow="visible" id="7ab9ad7eaJ"><path d="M22 0h1.516v-22.156l21.203-33.047h-1.844l-20.078 31.36h-.078L2.562-55.204H.798L22-22.156zm0 0"/></symbol><symbol overflow="visible" id="7ab9ad7eaK"><path d="M27.594-55.203H8.64V0h1.593v-23.047h17.36c12.406 0 18.172-5.672 18.172-16.234 0-10.563-5.766-15.922-18.172-15.922zm0 30.64h-17.36v-29.125h17.36c11.453 0 16.562 4.735 16.562 14.407 0 9.687-5.11 14.718-16.562 14.718zm0 0"/></symbol><symbol overflow="visible" id="7ab9ad7eaL"><path d="M39.766-55.203H8.64V0h1.593v-53.688h29.532zm0 0"/></symbol><symbol overflow="visible" id="7ab9ad7eaM"><path d="M46.719 0h1.765L25.922-55.203h-1.36L2 0h1.688l6.546-16.234h29.922zM10.875-17.688l14.328-35.265h.078l14.313 35.266zm0 0"/></symbol><symbol overflow="visible" id="7ab9ad7eaN"><path d="M15.75.672c10.516 0 16.14-6.047 17.922-16.422 1.766-10.297-3.422-16.406-12.594-16.406-10.297 0-15.984 6.031-17.797 16.406C1.47-5.453 6.61.672 15.75.672zm.578-4.047c-6.797 0-9.719-4.25-8.297-12.375 1.422-8.11 5.328-12.375 12.547-12.375 6.844 0 9.766 4.266 8.344 12.375C27.5-7.625 23.594-3.375 16.328-3.375zm0 0"/></symbol><symbol overflow="visible" id="7ab9ad7eaO"><path d="M8.781.578c1.203 0 2.39-.36 3.016-.625l-.219-3.406c-.531.125-1.281.265-2.047.265-1.672 0-2.39-.89-2.031-2.984l3.11-17.25H6.171L3.156-6.484C2.344-1.954 4.344.578 8.781.578zm0 0"/></symbol><symbol overflow="visible" id="7ab9ad7eaP"><path d="M25.813-23.422h-5.625L9.046-13.703h-.219l1.735-9.719H6.125L2 0h4.438l1.906-10.734h.219L17.03 0H22l-9.406-11.984zm0 0"/></symbol><symbol overflow="visible" id="7ab9ad7eaQ"><path d="M11.844.672c7.281 0 11.531-4.313 12.86-11.985 1.343-7.671-2.032-12.78-9.626-12.78-7.219 0-11.437 4.39-12.765 11.89C.937-4.531 4.266.672 11.842.672zm.312-3.781C7.234-3.11 5.86-6.75 6.75-11.75c.969-5.64 3.281-8.563 8.016-8.563 4.968 0 6.437 3.5 5.5 8.563-1.063 5.672-3.313 8.64-8.11 8.64zm0 0"/></symbol><symbol overflow="visible" id="7ab9ad7eaR"><path d="M17.172-23.422c-1.422-8.156-2.485-10.515-7.016-10.515-1.234 0-2.344.218-3.281.484l.578 3.734c.797-.187 1.328-.312 2.172-.312 2.125 0 2.578 1.328 3.64 6.61H11.36L-1.734 0h4.89l10.5-19.39h.235L16.766 0h4.53zm0 0"/></symbol><symbol overflow="visible" id="7ab9ad7eaS"><path d="M25.328-23.422h-4.875L10.688-5.328h-.22l-3.64-18.094H2.312L7.5.266l-1.422 8.39h4.344L11.844.312zm0 0"/></symbol><symbol overflow="visible" id="7ab9ad7eaT"><path d="M13.36-26.75h3.671l5.375-7.938h-4.922zM11.843.672c7.281 0 11.531-4.313 12.86-11.985 1.343-7.671-2.032-12.78-9.626-12.78-7.219 0-11.437 4.39-12.765 11.89C.937-4.531 4.266.672 11.842.672zm.312-3.781C7.234-3.11 5.86-6.75 6.75-11.75c.969-5.64 3.281-8.563 8.016-8.563 4.968 0 6.437 3.5 5.5 8.563-1.063 5.672-3.313 8.64-8.11 8.64zm0 0"/></symbol><symbol overflow="visible" id="7ab9ad7eaU"><path d="M17.078 9.094c1.422-1.516 3.063-3.64 3.063-6.344 0-4.563-3.547-5.719-6.97-6.969-3.14-1.156-6.155-2.437-6.155-6.656 0-4.656 2.609-9.438 7.75-9.438 3.515 0 4.937 1.72 5.203 4.782l4.422-.219c-.344-4.875-3.188-8.344-9.313-8.344-8.156 0-12.594 6.438-12.594 13.797 0 6.297 4.75 8.031 8.563 9.5 2.578.969 4.703 1.86 4.703 3.953 0 1.594-1.25 3.094-2.36 4.61zm0 0"/></symbol><symbol overflow="visible" id="7ab9ad7eaW"><path d="M11.844.672c7.281 0 11.625-4.75 12.515-11.094.485-3.547-.5-6.828-3.015-8.828v-.188h6.343l.704-3.984H16.063c-8.344 0-12.563 4.39-13.797 11.438C.937-4.531 4.266.672 11.844.672zm.312-3.781c-4.922 0-6.25-3.641-5.453-8.422.875-5.188 3.188-8.125 7.938-8.125 4.968 0 6.39 3.515 5.5 8.562-.891 5.016-3.188 7.985-7.985 7.985zm0 0"/></symbol><symbol overflow="visible" id="7ab9ad7eaX"><path d="M-2.922 8.656h4.735l8.484-12.11h.312l4.61 12.11h4.437l-5.765-15.36 11.218-16.718h-4.75l-8.03 12.11h-.267l-4.656-12.11H2.97L8.78-8.156zm0 0"/></symbol><symbol overflow="visible" id="7ab9ad7eaY"><path d="M10.797.672c6.844 0 10.422-2.531 11.312-7.547l-4.437-.36c-.61 2.97-2.875 4.344-6.64 4.344-3.563 0-5.25-1.187-5.25-3.28 0-2.97 2.577-3.985 6.437-3.985h2.89l.579-3.5H12.89c-3.063 0-4.844-.89-4.844-3.11 0-2.39 2-3.765 5.953-3.765 3.64 0 4.703 1.187 5.047 3.937l4.39-.312c-.484-4.703-2.921-7.188-9-7.188-6.656 0-10.64 3.016-10.64 7.11 0 2.797 1.765 4.39 4.078 4.828l-.047.219C4.016-11.172 1.36-9 1.36-5.141c0 3.235 2.782 5.813 9.438 5.813zm0 0"/></symbol><symbol overflow="visible" id="7ab9ad7eaZ"><path d="M11.719.672c7.265 0 11.703-4.531 12.672-10.875.937-6.125-.875-9.578-6.735-12.156-3.468-1.5-5.062-2.75-5.062-4.485 0-2.218 1.734-3.625 4.844-3.625 2.875 0 3.984.969 4.203 3.453l4.312-.218c-.312-3.86-1.953-6.703-8.078-6.703-5.938 0-9.578 2.937-9.578 6.968 0 2.969 1.906 4.563 4.078 5.672l-.094.219C7.047-20.188 3.11-17.297 2-11.094.844-4.53 4.125.672 11.719.672zm.297-3.781c-4.922 0-6.25-3.454-5.532-8.063.75-4.797 3.547-7.719 7.844-7.719 4.656 0 6.563 2.97 5.719 7.938-.797 4.61-3.235 7.844-8.031 7.844zm0 0"/></symbol><symbol overflow="visible" id="7ab9ad7eba"><path d="M10.75.672c4.36 0 6.844-2.14 8.125-4.797h.219C18.922-1.594 20.297.578 23.625.578c1.328 0 2.531-.265 3.14-.531l-.124-3.469c-.532.14-1.11.235-1.641.235-1.64 0-2-1.079-1.688-2.891l3.063-17.344h-3.781l-1.407 4.172h-.234c-.61-2.266-2.219-4.844-7-4.844-6.031 0-10.344 4.313-11.672 11.985C.953-4.438 4.281.67 10.75.67zm1.469-3.781c-5.016 0-6.438-3.5-5.5-8.563 1.062-5.672 3.281-8.64 7.937-8.64 4.485 0 6.219 3.453 5.375 8.593-.89 5.328-3.11 8.61-7.812 8.61zm0 0"/></symbol><symbol overflow="visible" id="7ab9ad7ebb"><path d="M.469 8.656h4.297l1.78-10.078C7.563-.094 9.11.672 11.517.672c4.203 0 5.937-2.36 7.14-4.39h.219c0 2.609 1.25 4.39 4.39 4.39 1.204 0 2.36-.266 3.11-.531l-.14-3.422c-.579.125-.97.172-1.376.172-1.547 0-2.297-.657-1.812-3.375l3.015-16.938h-4.437l-2.313 12.953c-.75 4.297-3.453 7.188-7.218 7.188-3.156 0-4.75-1.735-4-6.078l2.484-14.063H6.141zm0 0"/></symbol><symbol overflow="visible" id="7ab9ad7ebc"><path d="M8.39 0h2.329l4.969-27.969h10.171l.375-2.125H3.562l-.39 2.125h10.172zm0 0"/></symbol><symbol overflow="visible" id="7ab9ad7ebd"><path d="M11.063.64c6.359 0 10.546-3.984 11.859-11.53 1.187-6.907-1.688-11.907-8.469-11.907-6.312 0-10.515 3.938-11.875 11.485C1.36-4.407 4.281.64 11.063.64zm.203-2.171c-5.72 0-7.407-4.14-6.313-9.781 1.234-6.235 4.11-9.329 9.281-9.329 5.735 0 7.422 4.11 6.329 9.75-1.235 6.266-4.125 9.36-9.297 9.36zm0 0"/></symbol><symbol overflow="visible" id="7ab9ad7ebf"><path d="M11.063.64c6.359 0 10.546-3.984 11.703-11.109.547-3.39-.22-7.328-2.97-9.36l.032-.14h6.281l.375-2.203h-11.78c-6.735 0-10.892 3.953-12.157 11.063C1.359-4.406 4.28.64 11.062.64zm.203-2.171c-5.72 0-7.407-4.14-6.344-9.578C6.062-16.906 8.938-20 14.109-20c5.72 0 7.422 4.11 6.282 9.75-1.157 5.625-3.953 8.719-9.125 8.719zm0 0"/></symbol><symbol overflow="visible" id="7ab9ad7ebg"><path d="M11.484 8.469h2.329L15.219.594C23.266.25 28.39-3.688 29.672-10.844c1.187-6.781-2.64-11.484-10.344-11.922l1.094-6.047h-2.328L17-22.765c-8.063.297-13.188 4.282-14.422 11.5C1.438-4.453 5.172.22 12.891.594zm1.829-9.953c-6.876-.344-9.407-4.032-8.36-9.782 1.063-5.765 4.75-9.125 11.75-9.421zm2.234 0l3.39-19.203c6.875.343 9.375 4.078 8.36 9.843-1.016 5.766-4.75 9.063-11.75 9.36zm0 0"/></symbol><symbol overflow="visible" id="7ab9ad7ebh"><path d="M10.781.64c4.156 0 6.453-1.906 7.797-4.406h.172C18.625-1.109 19.984.422 22.984.422c.891 0 1.657-.203 2.172-.375l-.125-1.953c-.468.125-1.062.25-1.703.25-1.984 0-2.453-1.36-2.11-3.172l3.048-17.344h-1.828l-1.22 4.031h-.171c-.766-2.03-2.594-4.656-7.203-4.656-6.063 0-10.14 4.453-11.235 11.313C1.5-4.704 3.83.64 10.781.64zm.297-2.171c-5.672 0-7.078-4.36-6.094-9.953C6.047-17.5 9-20.641 13.797-20.641c5.172 0 7.281 3.86 6.36 9.75-.86 5.297-3.735 9.36-9.079 9.36zm0 0"/></symbol><symbol overflow="visible" id="7ab9ad7ebi"><path d="M7.422.422c.922 0 1.906-.203 2.406-.375l-.125-1.953a6.903 6.903 0 01-1.734.25c-1.703 0-2.922-.5-2.453-3.266l3-17.25H6.187L3.267-5.344C2.578-1.312 4.328.422 7.422.422zm0 0"/></symbol><symbol overflow="visible" id="7ab9ad7ebj"><path d="M.469 8.469h2.328L5-3.984h.172C6.016-1.828 7.797.64 12.5.64c5.766 0 9.828-4.11 11.11-11.157 1.218-6.906-1.407-12.28-8.266-12.28-6.656 0-10.172 4.452-11.313 11.015zm12.25-10c-5.64 0-7.672-4.063-6.656-9.735.937-5.171 3.218-9.375 8.89-9.375 5.813 0 7.297 4.157 6.281 9.953-1.062 6.032-4.203 9.157-8.515 9.157zm0 0"/></symbol><symbol overflow="visible" id="7ab9ad7ebk"><path d="M23.063-22.172H19.75L7.031-12.25H6.86l1.75-9.922H6.266L2.375 0h2.328L6.61-10.938h.22L16.358 0h2.844L9.234-11.484zm0 0"/></symbol><symbol overflow="visible" id="7ab9ad7ebl"><path d="M13.64-25.563h2.126l4.796-7.578H17.97zM11.063.642c6.36 0 10.547-3.985 11.86-11.532 1.187-6.906-1.688-11.906-8.469-11.906-6.312 0-10.515 3.938-11.875 11.485C1.36-4.407 4.281.64 11.063.64zm.204-2.172c-5.72 0-7.407-4.14-6.313-9.781 1.234-6.235 4.11-9.329 9.281-9.329 5.735 0 7.422 4.11 6.329 9.75-1.235 6.266-4.125 9.36-9.297 9.36zm0 0"/></symbol><symbol overflow="visible" id="7ab9ad7ebm"><path d="M22.672-22.172h-2.547L9.109-2.844h-.171L4.75-22.172H2.375L7.422.297 6.016 8.469h2.25L9.656.344zm0 0"/></symbol><symbol overflow="visible" id="7ab9ad7ebn"><path d="M6.531-25.563h2.11l4.796-7.578h-2.593zM7.421.422c.923 0 1.907-.203 2.407-.375l-.125-1.953a6.903 6.903 0 01-1.734.25c-1.703 0-2.922-.5-2.453-3.266l3-17.25H6.187L3.267-5.344C2.578-1.312 4.328.422 7.422.422zm0 0"/></symbol><symbol overflow="visible" id="7ab9ad7ebo"><path d="M7.375 0h2.5l12.797-22.172h-2.547L9.156-2.844h-.172L4.75-22.172H2.375zm0 0"/></symbol><symbol overflow="visible" id="7ab9ad7ebp"><path d="M9.89.64c5.891 0 9.25-2.593 10.141-6.75l-2.25-.202c-.89 3.437-3.484 4.906-7.765 4.906-4.188 0-5.922-1.266-5.922-3.766 0-3.172 2.672-5.172 7.75-5.172h2.672l.343-1.984h-2.671c-4.282 0-5.766-1.281-5.766-3.656 0-3 2.281-4.782 6.984-4.782 4.453 0 5.344 1.688 5.735 4.625l2.234-.218c-.5-3.47-1.938-6.438-7.797-6.438-5.594 0-9.406 2.5-9.406 6.813 0 2.375 1.578 4.125 3.86 4.546v.172c-2.75.25-6.266 2.5-6.266 6.313C1.766-1.437 4.562.64 9.89.64zm0 0"/></symbol><symbol overflow="visible" id="7ab9ad7ebq"><path d="M19.11-19.969l.39-2.203H1.953l-.39 2.203h7.421L6.406-5.079c-.64 3.766 1.438 5.5 4.657 5.5 1.062 0 2.078-.202 2.718-.374l-.14-1.953c-.547.125-1.391.25-2.157.25-1.859 0-3.265-.766-2.843-3.266l2.625-15.047zm0 0"/></symbol><symbol overflow="visible" id="7ab9ad7ebr"><path d="M27.719-19.969l.375-2.203H3.016l-.391 2.203h4.797L3.906 0h2.281l3.516-19.969h10.719L17.75-5.125C17.031-1.109 18.86.422 21.828.422c.719 0 1.531-.125 1.985-.297l-.125-1.953a7.23 7.23 0 01-1.516.172c-1.656 0-2.672-.547-2.203-3.266l2.703-15.047zm0 0"/></symbol></defs><path d="M0 0h1280v800H0z"/><g fill="#fff"><use xlink:href="#7ab9ad7ea" x="70" y="86.1902"/><use xlink:href="#7ab9ad7eb" x="84.46" y="86.1902"/><use xlink:href="#7ab9ad7ec" x="94.54" y="86.1902"/><use xlink:href="#7ab9ad7ed" x="102.36" y="86.1902"/><use xlink:href="#7ab9ad7ee" x="107.76" y="86.1902"/><use xlink:href="#7ab9ad7ee" x="113.16" y="86.1902"/><use xlink:href="#7ab9ad7ed" x="118.56" y="86.1902"/><use xlink:href="#7ab9ad7ef" x="123.96" y="86.1902"/></g><g fill="#fff"><use xlink:href="#7ab9ad7eg" x="63.2351" y="264.641"/><use xlink:href="#7ab9ad7eh" x="122.059874" y="264.641"/><use xlink:href="#7ab9ad7ei" x="174.22696" y="264.641"/><use xlink:href="#7ab9ad7ej" x="224.661224" y="264.641"/></g><g fill="#fff"><use xlink:href="#7ab9ad7ek" x="280.895884" y="264.641"/><use xlink:href="#7ab9ad7el" x="336.528616" y="264.641"/></g><use xlink:href="#7ab9ad7em" x="364.591225" y="264.641" fill="#fff"/><g fill="#fff"><use xlink:href="#7ab9ad7eh" x="392.900078" y="264.641"/><use xlink:href="#7ab9ad7el" x="445.067164" y="264.641"/><use xlink:href="#7ab9ad7en" x="501.429506" y="264.641"/><use xlink:href="#7ab9ad7eo" x="547.39491" y="264.641"/></g><g fill="#fff"><use xlink:href="#7ab9ad7ep" x="64.5867" y="494.2507"/><use xlink:href="#7ab9ad7eq" x="141.045962" y="494.2507"/><use xlink:href="#7ab9ad7er" x="201.25354" y="494.2507"/></g><g fill="#fff"><use xlink:href="#7ab9ad7es" x="259.007005" y="494.2507"/><use xlink:href="#7ab9ad7et" x="308.198342" y="494.2507"/><use xlink:href="#7ab9ad7eq" x="370.696426" y="494.2507"/><use xlink:href="#7ab9ad7eu" x="430.904004" y="494.2507"/><use xlink:href="#7ab9ad7ev" x="493.729304" y="494.2507"/><use xlink:href="#7ab9ad7ew" x="551.21009" y="494.2507"/></g><g fill="#fff"><use xlink:href="#7ab9ad7ex" x="66.054" y="714.6735"/><use xlink:href="#7ab9ad7ey" x="140.359595" y="714.6735"/></g><g fill="#fff"><use xlink:href="#7ab9ad7ez" x="200.596043" y="714.6735"/><use xlink:href="#7ab9ad7eA" x="263.487926" y="714.6735"/><use xlink:href="#7ab9ad7eB" x="315.509607" y="714.6735"/><use xlink:href="#7ab9ad7eC" x="369.239463" y="714.6735"/><use xlink:href="#7ab9ad7eD" x="430.811393" y="714.6735"/><use xlink:href="#7ab9ad7eE" x="492.6939" y="714.6735"/><use xlink:href="#7ab9ad7ex" x="549.141306" y="714.6735"/></g><g fill="#fff"><use xlink:href="#7ab9ad7eF" x="66.7971" y="587.396"/><use xlink:href="#7ab9ad7eG" x="88.998331" y="587.396"/><use xlink:href="#7ab9ad7eH" x="102.83847" y="587.396"/><use xlink:href="#7ab9ad7eI" x="121.144193" y="587.396"/><use xlink:href="#7ab9ad7eJ" x="129.378601" y="587.396"/><use xlink:href="#7ab9ad7eK" x="148.539435" y="587.396"/><use xlink:href="#7ab9ad7eH" x="167.73194" y="587.396"/></g><g fill="#fff"><use xlink:href="#7ab9ad7eL" x="186.01866" y="587.396"/><use xlink:href="#7ab9ad7eM" x="205.43286" y="587.396"/><use xlink:href="#7ab9ad7eH" x="222.281726" y="587.396"/><use xlink:href="#7ab9ad7eN" x="240.587448" y="587.396"/><use xlink:href="#7ab9ad7eO" x="267.729324" y="587.396"/><use xlink:href="#7ab9ad7eH" x="286.60512" y="587.396"/><use xlink:href="#7ab9ad7eI" x="304.910843" y="587.396"/><use xlink:href="#7ab9ad7eL" x="313.145251" y="587.396"/><use xlink:href="#7ab9ad7eI" x="332.559451" y="587.396"/><use xlink:href="#7ab9ad7eP" x="340.793859" y="587.396"/></g><g fill="#fff"><use xlink:href="#7ab9ad7eG" x="358.482001" y="587.396"/><use xlink:href="#7ab9ad7eH" x="372.322141" y="587.396"/><use xlink:href="#7ab9ad7eI" x="390.627863" y="587.396"/><use xlink:href="#7ab9ad7eQ" x="398.862271" y="587.396"/><use xlink:href="#7ab9ad7eR" x="417.801409" y="587.396"/><use xlink:href="#7ab9ad7eS" x="433.446785" y="587.396"/><use xlink:href="#7ab9ad7eT" x="452.512606" y="587.396"/><use xlink:href="#7ab9ad7eG" x="470.121571" y="587.396"/><use xlink:href="#7ab9ad7eI" x="483.961711" y="587.396"/><use xlink:href="#7ab9ad7eM" x="492.196119" y="587.396"/><use xlink:href="#7ab9ad7eU" x="509.044984" y="587.396"/><use xlink:href="#7ab9ad7eV" x="526.432253" y="587.396"/><use xlink:href="#7ab9ad7eG" x="544.357926" y="587.396"/><use xlink:href="#7ab9ad7eK" x="558.198066" y="587.396"/><use xlink:href="#7ab9ad7eU" x="577.390571" y="587.396"/></g><use xlink:href="#7ab9ad7eW" x="594.03991" y="587.396" fill="#fff"/><g fill="#fff"><use xlink:href="#7ab9ad7eX" x="66.3485" y="362.1661"/><use xlink:href="#7ab9ad7eY" x="97.712487" y="362.1661"/></g><g fill="#fff"><use xlink:href="#7ab9ad7eZ" x="117.641193" y="362.1661"/><use xlink:href="#7ab9ad7eaa" x="141.840336" y="362.1661"/><use xlink:href="#7ab9ad7eZ" x="167.083364" y="362.1661"/></g><g fill="#fff"><use xlink:href="#7ab9ad7eab" x="190.917147" y="362.1661"/><use xlink:href="#7ab9ad7eac" x="216.539769" y="362.1661"/><use xlink:href="#7ab9ad7ead" x="227.832703" y="362.1661"/><use xlink:href="#7ab9ad7eae" x="250.987961" y="362.1661"/><use xlink:href="#7ab9ad7eZ" x="269.066144" y="362.1661"/><use xlink:href="#7ab9ad7eac" x="293.265287" y="362.1661"/><use xlink:href="#7ab9ad7eaf" x="304.558221" y="362.1661"/><use xlink:href="#7ab9ad7eag" x="329.564002" y="362.1661"/><use xlink:href="#7ab9ad7eac" x="352.576912" y="362.1661"/><use xlink:href="#7ab9ad7eah" x="363.869846" y="362.1661"/></g><g fill="#fff"><use xlink:href="#7ab9ad7eZ" x="383.096302" y="362.1661"/><use xlink:href="#7ab9ad7eai" x="407.295445" y="362.1661"/><use xlink:href="#7ab9ad7eaj" x="436.286967" y="362.1661"/><use xlink:href="#7ab9ad7eak" x="460.960603" y="362.1661"/><use xlink:href="#7ab9ad7eal" x="483.831166" y="362.1661"/><use xlink:href="#7ab9ad7eae" x="515.622197" y="362.1661"/><use xlink:href="#7ab9ad7eag" x="533.70038" y="362.1661"/><use xlink:href="#7ab9ad7eaa" x="556.713291" y="362.1661"/><use xlink:href="#7ab9ad7eam" x="581.956318" y="362.1661"/></g><g fill="#fff"><use xlink:href="#7ab9ad7ean" x="669.5487" y="496.4342"/><use xlink:href="#7ab9ad7eao" x="775.132335" y="496.4342"/></g><use xlink:href="#7ab9ad7eap" x="842.511685" y="496.4342" fill="#fff"/><g fill="#fff"><use xlink:href="#7ab9ad7eaq" x="915.510025" y="496.4342"/><use xlink:href="#7ab9ad7ear" x="971.942658" y="496.4342"/><use xlink:href="#7ab9ad7eas" x="1009.807134" y="496.4342"/></g><g fill="#fff"><use xlink:href="#7ab9ad7eat" x="1075.341804" y="496.4342"/><use xlink:href="#7ab9ad7eau" x="1143.060963" y="496.4342"/></g><use xlink:href="#7ab9ad7eav" x="661.4582" y="268.3025" fill="#fff"/><use xlink:href="#7ab9ad7eaw" x="724.675868" y="268.3025" fill="#fff"/><use xlink:href="#7ab9ad7eax" x="777.657145" y="268.3025" fill="#fff"/><use xlink:href="#7ab9ad7eay" x="836.584964" y="268.3025" fill="#fff"/><use xlink:href="#7ab9ad7eaz" x="868.775286" y="268.3025" fill="#fff"/><use xlink:href="#7ab9ad7eaA" x="936.326688" y="268.3025" fill="#fff"/><use xlink:href="#7ab9ad7eaB" x="968.506039" y="268.3025" fill="#fff"/><use xlink:href="#7ab9ad7eaC" x="1016.056434" y="268.3025" fill="#fff"/><g fill="#fff"><use xlink:href="#7ab9ad7eaD" x="1076.970091" y="268.3025"/><use xlink:href="#7ab9ad7eaz" x="1142.469826" y="268.3025"/></g><g fill="#fff"><use xlink:href="#7ab9ad7eaE" x="670.3166" y="715.2547"/><use xlink:href="#7ab9ad7eaF" x="730.3766" y="715.2547"/><use xlink:href="#7ab9ad7eaG" x="796.0646" y="715.2547"/><use xlink:href="#7ab9ad7eaH" x="875.7806" y="715.2547"/><use xlink:href="#7ab9ad7eaI" x="903.9206" y="715.2547"/></g><g fill="#fff"><use xlink:href="#7ab9ad7eaJ" x="966.5174" y="715.2547"/><use xlink:href="#7ab9ad7eaK" x="1021.2854" y="715.2547"/><use xlink:href="#7ab9ad7eaL" x="1078.6574" y="715.2547"/><use xlink:href="#7ab9ad7eaH" x="1130.9894" y="715.2547"/><use xlink:href="#7ab9ad7eaM" x="1159.1294" y="715.2547"/></g><g fill="#fff"><use xlink:href="#7ab9ad7eaN" x="670.3649" y="591.6402"/><use xlink:href="#7ab9ad7eaO" x="705.907576" y="591.6402"/></g><g fill="#fff"><use xlink:href="#7ab9ad7eaP" x="720.73954" y="591.6402"/><use xlink:href="#7ab9ad7eaQ" x="744.776265" y="591.6402"/></g><use xlink:href="#7ab9ad7eaR" x="771.128155" y="591.6402" fill="#fff"/><g fill="#fff"><use xlink:href="#7ab9ad7eaQ" x="794.200616" y="591.6402"/><use xlink:href="#7ab9ad7eaS" x="821.21864" y="591.6402"/><use xlink:href="#7ab9ad7eaO" x="844.696371" y="591.6402"/></g><g fill="#fff"><use xlink:href="#7ab9ad7eaP" x="859.537651" y="591.6402"/><use xlink:href="#7ab9ad7eaT" x="883.574376" y="591.6402"/><use xlink:href="#7ab9ad7eaU" x="910.5924" y="591.6402"/><use xlink:href="#7ab9ad7eaV" x="935.607363" y="591.6402"/><use xlink:href="#7ab9ad7eaW" x="947.579143" y="591.6402"/><use xlink:href="#7ab9ad7eaX" x="975.668571" y="591.6402"/></g><g fill="#fff"><use xlink:href="#7ab9ad7eaY" x="999.136986" y="591.6402"/><use xlink:href="#7ab9ad7eaZ" x="1024.151949" y="591.6402"/><use xlink:href="#7ab9ad7eaO" x="1050.937059" y="591.6402"/></g><use xlink:href="#7ab9ad7eba" x="1065.890138" y="591.6402" fill="#fff"/><g fill="#fff"><use xlink:href="#7ab9ad7eaW" x="1095.814929" y="591.6402"/><use xlink:href="#7ab9ad7ebb" x="1123.904357" y="591.6402"/></g><g fill="#fff"><use xlink:href="#7ab9ad7eaT" x="1153.451827" y="591.6402"/><use xlink:href="#7ab9ad7eaU" x="1180.469851" y="591.6402"/></g><use xlink:href="#7ab9ad7ebc" x="667.4" y="363.5798" fill="#fff"/><g fill="#fff"><use xlink:href="#7ab9ad7ebd" x="688.590376" y="363.5798"/><use xlink:href="#7ab9ad7ebe" x="714.088246" y="363.5798"/><use xlink:href="#7ab9ad7ebf" x="725.969452" y="363.5798"/></g><g fill="#fff"><use xlink:href="#7ab9ad7ebg" x="753.038133" y="363.5798"/><use xlink:href="#7ab9ad7ebh" x="785.299836" y="363.5798"/><use xlink:href="#7ab9ad7ebi" x="814.001626" y="363.5798"/></g><g fill="#fff"><use xlink:href="#7ab9ad7ebj" x="826.550316" y="363.5798"/><use xlink:href="#7ab9ad7ebi" x="852.804667" y="363.5798"/><use xlink:href="#7ab9ad7ebk" x="866.198836" y="363.5798"/><use xlink:href="#7ab9ad7ebl" x="887.691804" y="363.5798"/><use xlink:href="#7ab9ad7ebe" x="913.189674" y="363.5798"/><use xlink:href="#7ab9ad7ebm" x="925.07088" y="363.5798"/><use xlink:href="#7ab9ad7ebn" x="946.207858" y="363.5798"/></g><g fill="#fff"><use xlink:href="#7ab9ad7ebo" x="958.369407" y="363.5798"/><use xlink:href="#7ab9ad7ebp" x="979.506385" y="363.5798"/><use xlink:href="#7ab9ad7ebq" x="1002.734811" y="363.5798"/></g><g fill="#fff"><use xlink:href="#7ab9ad7ebh" x="1021.526696" y="363.5798"/><use xlink:href="#7ab9ad7ebi" x="1050.228487" y="363.5798"/><use xlink:href="#7ab9ad7ebe" x="1063.622655" y="363.5798"/><use xlink:href="#7ab9ad7ebq" x="1075.503862" y="363.5798"/></g><g fill="#fff"><use xlink:href="#7ab9ad7ebd" x="1094.286847" y="363.5798"/><use xlink:href="#7ab9ad7ebr" x="1119.784717" y="363.5798"/><use xlink:href="#7ab9ad7ebi" x="1148.041519" y="363.5798"/><use xlink:href="#7ab9ad7ebk" x="1161.435688" y="363.5798"/><use xlink:href="#7ab9ad7ebl" x="1182.928656" y="363.5798"/></g><g fill="#fff"><use xlink:href="#7ab9ad7ebs" x="670" y="86.1902"/><use xlink:href="#7ab9ad7ec" x="685.4" y="86.1902"/><use xlink:href="#7ab9ad7ebt" x="693.22" y="86.1902"/><use xlink:href="#7ab9ad7ebt" x="704.38" y="86.1902"/><use xlink:href="#7ab9ad7ebu" x="715.54" y="86.1902"/></g></svg>