<?xml version='1.0' encoding='UTF-8'?>
<svg xmlns="http://www.w3.org/2000/svg" xmlns:xlink="http://www.w3.org/1999/xlink" width="600px" height="300px" viewBox="0 0 600 300" x="0px" y="0px" enable-background="new 0 0 600 300"><defs><symbol overflow="visible" id="1086d907a"><path d="M26.45-1.8L25.98 0h10.97l.36-1.8-3.83-.84v-14.88c2.82-1.56 4.8-2.34 7.08-2.57 1.92.82 3 2.57 3 5.64v10.07c0 1.61-.72 2.22-2.51 2.58L40.56 0h10.99l.36-1.8-3.85-.84v-13.63c0-4.8-2.51-7.25-6.42-7.25-2.22 0-4.5.96-8.45 4.08.17-.9.3-2.22.3-3.6v-10.74l-.68-.24-3.83 2.4H.6l1.46 7.2h1.97l.6-3.95 7.68-.91v24.06c0 2.22-.66 3.06-3.49 3.42L8.34 0h12.54l.42-1.8-4.2-.84v-26.64l11.88.97v23.93c0 1.61-.71 2.22-2.53 2.58zm0 0"/></symbol><symbol overflow="visible" id="1086d907b"><path d="M19.73-1.08l-.53-1.86c-1.2.36-2.47.6-3.97.6-5.45 0-8.15-2.75-8.32-9.07h13.18a15.03 15.03 0 001.04-4.86c0-4.8-2.94-7.43-7.82-7.43-6.76 0-11.22 5.76-11.22 13.5C2.1-3.3 6.3.6 12.55.6c2.75 0 5.32-.66 7.18-1.68zm-3.36-12.97l-9.46.74c.1-2.4 1.18-5.64 2.03-7.03 1.2-.6 2.4-.9 3.65-.9 2.22 0 4.04 1.55 4.04 4.68 0 .97-.13 1.98-.25 2.51zm0 0"/></symbol><symbol overflow="visible" id="1086d907d"><path d="M2.34-1.8L1.86 0H12.9l.36-1.8-3.91-.84v-31.38l-8.1.96-.35 1.8 3.95.84v26.05c0 1.6-.72 2.21-2.52 2.57zm0 0"/></symbol><symbol overflow="visible" id="1086d907e"><path d="M12.72.6c6.72 0 11.47-5.94 11.47-13.38 0-6.42-3.85-10.92-10.75-10.92-7.5 0-11.35 6.48-11.35 13.5C2.1-3.66 5.81.6 12.72.6zm.9-2.65c-3.67 0-6.71-3.3-6.71-9.47 0-6.6 1.9-9.54 5.68-9.54 3.61 0 6.79 3.48 6.79 9.54 0 7.25-2.22 9.47-5.75 9.47zm0 0"/></symbol><symbol overflow="visible" id="1086d907f"><path d="M24.66-22.98H21.3l-.49 1.68 3.78 1.2v14.52c0 4.8 2.22 6 5.18 6 2.15 0 4.18-.54 6.53-2.04l-.72-2.1c-1.38.6-2.52.9-3.72.9-2.1 0-2.77-.77-2.77-4.45v-12.82h5.83l.78-2.9h-6.97c.13-.46.25-1.85.25-3 0-4.73-2.57-8.03-7.68-8.03-4.57 0-7.74 2.7-7.74 6.66 0 1.38.66 3.17 1.5 4.08-.6-.24-1.92-.42-3.25-.42-4.97 0-8.26 3.48-8.26 6.84 0 2.58 1.14 4.38 5.45 6.66 4.69 2.47 5.7 3.72 5.7 5.34 0 1.67-1.07 2.81-3.72 2.81-2.04 0-3.9-.53-5.46-1.8l-.6-3.23h-1.8L1.86-1.86a19.45 19.45 0 009 2.45c4.44 0 7.62-2.75 7.62-6.78 0-2.81-1.39-4.8-6.18-7.43-4.32-2.33-5.28-3.36-5.28-4.8 0-.66.3-1.56.6-2.03.96-.36 2.1-.61 3.3-.61 1.63 0 2.88.42 4.02 1.14l.6 2.51h1.8l1.2-4.8c-1.74-1.13-2.59-2.57-2.59-4.56 0-2.87 1.75-4.6 4.63-4.6 2.87 0 4.5 2.15 4.5 5.39 0 1.2-.24 2.4-.42 3zm0 0"/></symbol><symbol overflow="visible" id="1086d907g"><path d="M2.58-20.64l2.47 3.42c2.51-2.22 4.8-3.66 6.53-4.2 2.04.84 3.3 2.87 3.3 6.65v.91C9-13.08 5.45-11.8 3.65-10.38A5.63 5.63 0 001.8-6.12c0 4.26 3.06 6.6 6.54 6.6 2.52 0 4.97-1.2 6.85-3.3.6 2.34 1.97 3.3 3.89 3.3 1.2 0 2.83-.9 3.6-1.92v-.78l-3.3-.9v-12.43c0-4.97-3.3-8.03-7.44-8.03-3.42 0-6.3.9-9.36 2.94zm12.3 9.42v2.45c0 1.63.06 3 .06 3.91a6.18 6.18 0 01-4.92 2.22c-2.52 0-3.72-1.5-3.72-4.08 0-1.33.25-2.47.65-3.3 1.4-.67 4.82-1.2 7.92-1.2zm0 0"/></symbol><symbol overflow="visible" id="1086d907h"><path d="M2.94-1.8L2.52 0H13.5l.36-1.8-3.84-.84v-15.17l8.76-1.99c-.3-2.51-1.26-3.72-2.47-3.72-1.6 0-4.12 1.32-6.6 4.08l-1.07-4.08-6.72 1.02-.42 1.73 4.02.91v15.48c0 1.61-.72 2.22-2.58 2.58zm0 0"/></symbol><symbol overflow="visible" id="1086d907i"><path d="M9.78-29.64l-4.5.78v5.88H.78L.3-21.3l4.98 1.2v14.52c0 4.8 2.22 6 5.16 6 2.15 0 4.2-.54 6.54-2.04l-.71-2.1c-1.4.6-2.54.9-3.72.9-2.11 0-2.77-.77-2.77-4.45v-12.82h5.81l.79-2.9h-6.6zm0 0"/></symbol><symbol overflow="visible" id="1086d907j"><path d="M7.8-32.81c-1.86 0-2.88.89-2.88 2.75 0 1.86.85 2.83 2.88 2.83 1.8 0 2.7-.97 2.7-2.83 0-1.8-.95-2.75-2.7-2.75zM2.94-1.8L2.52 0H13.5l.36-1.8-3.84-.84v-20.88l-8.1 1.02-.42 1.73 4.02.91v15.48c0 1.61-.72 2.22-2.58 2.58zm0 0"/></symbol><symbol overflow="visible" id="1086d907k"><path d="M3.13-1.8L2.7 0h11.35l.36-1.8-4.2-.84V-20.1h5.45l.6-2.9H10.2v-1.24c0-2.9.24-4.57.72-5.83.72-.17 1.44-.24 2.52-.24 1.44 0 3.36.24 4.8.66l1.32-4.38h-.48c-9.06 0-13.2 2.58-13.38 11.04H1.2L.72-21.3l4.98 1.2v15.73c0 1.6-.72 2.21-2.58 2.57zm0 0"/></symbol><symbol overflow="visible" id="1086d907l"><path d="M25.08-22.98h-3.36l-.49 1.68 3.79 1.2v14.52c0 4.67 2.21 6 5.17 6 2.15 0 4.18-.54 6.53-2.04L36-3.73c-1.38.6-2.52.9-3.72.9-2.1 0-2.76-.77-2.76-4.45v-12.82h5.82l.78-2.9h-6.96c.12-.65.25-1.85.25-3 0-4.73-2.7-8.03-7.4-8.03-4.56 0-7.73 2.7-7.73 6.66 0 1.38.53 2.77 1.56 3.95-.65-.17-1.68-.3-2.53-.3-6.4 0-11.22 5.77-11.22 13.5C2.1-3 6 .6 12.55.6c2.15 0 4.73-.59 6.4-1.5l-.53-1.96c-.97.23-2.22.46-3.6.46-5.04 0-7.91-2.68-7.91-9 0-3.65.65-6.95 1.54-8.57.9-.36 2.47-.72 3.74-.72 1.6 0 2.75.36 3.53.97l.65 2.64h2.05l1.08-5.11a5.77 5.77 0 01-2.81-4.8c0-2.64 1.54-4.38 4.37-4.38 2.7 0 4.44 1.74 4.44 5.4 0 1.07-.23 2.4-.42 3zm0 0"/></symbol><symbol overflow="visible" id="1086d907m"><path d="M3.13-7.08L1.85-1.86a19.45 19.45 0 009 2.45c4.44 0 7.62-2.75 7.62-6.78 0-2.81-1.39-4.8-6.18-7.43-4.32-2.33-5.28-3.36-5.28-4.8 0-.66.3-1.56.6-2.03.96-.36 2.1-.61 3.3-.61 1.63 0 2.88.42 4.02 1.14l.6 2.51h1.8l1.2-4.8c-1.8-.88-4.02-1.5-6.73-1.5-4.97 0-8.26 3.5-8.26 6.85 0 2.58 1.14 4.38 5.45 6.66 4.69 2.47 5.7 3.72 5.7 5.34 0 1.67-1.07 2.81-3.72 2.81-2.04 0-3.9-.53-5.46-1.8l-.6-3.23zm0 0"/></symbol><symbol overflow="visible" id="1086d907n"><path d="M3.83 0v-5.95H6.2v-.82H.45v.82h2.4V0zm0 0"/></symbol><symbol overflow="visible" id="1086d907o"><path d="M5.75-2.23v-.43c0-1.6-.9-2.51-2.42-2.51S.87-4.16.87-2.48c0 1.71.91 2.62 2.5 2.62 1.43 0 2.07-.56 2.29-1.52l-.9-.09c-.18.61-.59.9-1.35.9-.94 0-1.52-.54-1.58-1.66zm-2.4-2.2c.93 0 1.43.5 1.48 1.55H1.84c.08-1.07.6-1.56 1.5-1.56zm0 0"/></symbol><symbol overflow="visible" id="1086d907p"><path d="M1.83 0l1.42-2h.06l1.46 2H5.8L4-2.53l1.78-2.49H4.8L3.42-3.08h-.08l-1.4-1.94H.89l1.78 2.49L.84 0zm0 0"/></symbol><symbol overflow="visible" id="1086d907q"><path d="M5.52-4.25v-.77H3.17v-1.56h-.81l-.14 1.56H.75v.77h1.47v2.4c0 1.3.48 1.94 1.84 1.94C4.6.1 5.14 0 5.55-.14L5.4-.91c-.32.13-.72.2-1.13.2-.8 0-1.1-.37-1.1-1.23v-2.31zm0 0"/></symbol><symbol overflow="visible" id="1086d907r"><path d="M3.33-3.42c.47 0 .8-.27.8-.8 0-.51-.33-.8-.8-.8-.47 0-.8.29-.8.8 0 .53.33.8.8.8zm0 3.5c.47 0 .8-.27.8-.78 0-.53-.33-.82-.8-.82-.47 0-.8.29-.8.82 0 .51.33.78.8.78zm0 0"/></symbol><symbol overflow="visible" id="1086d907t"><path d="M2.16 0v-2.69c0-.98.6-1.6 1.46-1.6.74 0 1.07.4 1.07 1.2V0h.95v-3.31c0-1.17-.56-1.85-1.67-1.85-.9 0-1.44.46-1.75 1.08h-.06v-3.06H1.2V0zm0 0"/></symbol><symbol overflow="visible" id="1086d907u"><path d="M3.92-7.14H1.36v.76h1.6v5.61H1.15V0H5.7v-.77H3.92zm0 0"/></symbol><symbol overflow="visible" id="1086d907v"><path d="M3.33.14c1.62 0 2.5-.95 2.5-2.66 0-1.68-.88-2.64-2.5-2.64-1.63 0-2.5.96-2.5 2.64 0 1.7.87 2.66 2.5 2.66zm0-.77c-1.06 0-1.52-.6-1.52-1.89 0-1.28.46-1.87 1.52-1.87 1.08 0 1.53.6 1.53 1.87 0 1.29-.45 1.9-1.53 1.9zm0 0"/></symbol><symbol overflow="visible" id="1086d907w"><path d="M3.36.16c1.4 0 2.2-.6 2.2-1.57 0-.89-.54-1.22-1.47-1.39L3-3c-.67-.14-.86-.33-.86-.73 0-.5.4-.74 1.17-.74.83 0 1.19.27 1.27.8l.9-.05c-.12-1-.8-1.47-2.17-1.47-1.34 0-2.1.53-2.1 1.5 0 .81.45 1.22 1.52 1.44l1.04.2c.56.11.87.24.87.72 0 .52-.45.78-1.28.78-.95 0-1.36-.28-1.42-.87l-.9.06C1.07-.36 1.8.16 3.35.16zm0 0"/></symbol><symbol overflow="visible" id="1086d907x"><path d="M2.83.14c.94 0 1.5-.39 1.81-.95h.08l.1.81h.76v-3.38c0-1.23-.69-1.8-2.13-1.8-1.43 0-2.03.65-2.18 1.6l.93.1c.11-.6.44-.93 1.22-.93.85 0 1.22.32 1.22 1.04v.34l-1.81.2C1.6-2.7 1.1-2.17 1.1-1.28c0 .92.64 1.42 1.72 1.42zm.25-.77c-.67 0-1.02-.28-1.02-.74 0-.44.28-.72 1-.82l1.58-.19v.41c0 .8-.6 1.34-1.56 1.34zm0 0"/></symbol><symbol overflow="visible" id="1086d907y"><path d="M5.08-5.16c-.94 0-1.58.43-1.9 1.3h-.09l-.07-1.16H1.05v.77h1.1v3.48H.96V0h3.96v-.77H3.1v-1.46c0-1.36.6-2.05 1.83-2.05.4 0 .76.08 1.1.17l.15-.87c-.33-.11-.7-.18-1.11-.18zm0 0"/></symbol><symbol overflow="visible" id="1086d907z"><path d="M3.58-5.81c.42 0 .72-.22.72-.67 0-.44-.3-.68-.72-.68-.44 0-.72.24-.72.68 0 .45.28.67.72.67zm.5.8H1.52v.76h1.6v3.48h-1.8V0h4.46v-.77h-1.7zm0 0"/></symbol><symbol overflow="visible" id="1086d907A"><path d="M4.63-6.5c.45 0 .98.08 1.39.2l.2-.72a5.3 5.3 0 00-1.64-.26c-1.52 0-2.16.56-2.16 1.87v.4H.9v.76h1.53V0h.94v-4.25h2.53v-.77H3.36v-.3c0-.84.33-1.18 1.27-1.18zm0 0"/></symbol><symbol overflow="visible" id="1086d907B"><path d="M3.34.14c1.43 0 2.13-.66 2.25-1.78l-.89-.1c-.1.7-.5 1.08-1.34 1.08-1.03 0-1.52-.64-1.52-1.84 0-1.23.47-1.86 1.52-1.86.84 0 1.23.36 1.34 1.08l.9-.1c-.13-1.09-.82-1.78-2.26-1.78-1.56 0-2.46.97-2.46 2.66 0 1.66.9 2.64 2.46 2.64zm0 0"/></symbol><symbol overflow="visible" id="1086d907C"><path d="M5.95-6.77H1.1V0h.99v-2.92H5.3v-.77H2.08v-2.26h3.87zm0 0"/></symbol><symbol overflow="visible" id="1086d907D"><path d="M2.73.14c.9 0 1.43-.45 1.74-1.08h.06l.13.94h.8v-5.02h-.94v2.7c0 .98-.57 1.62-1.46 1.62-.75 0-1.1-.4-1.1-1.22v-3.1h-.93v3.32c0 1.17.55 1.84 1.7 1.84zm0 0"/></symbol><symbol overflow="visible" id="1086d907E"><path d="M.92-6.77V0h2.11c2.03 0 3.03-1.03 3.03-3.36 0-2.39-1.01-3.4-2.93-3.4zM1.91-.8v-5.17h1.18c1.29 0 1.96.63 1.96 2.61 0 1.94-.67 2.56-1.96 2.56zm0 0"/></symbol><symbol overflow="visible" id="1086d907F"><path d="M2.16 0v-2.67c0-.99.59-1.63 1.46-1.63.74 0 1.07.38 1.07 1.22V0h.95v-3.31c0-1.2-.56-1.85-1.67-1.85-.92 0-1.49.46-1.77 1.08h-.06l-.12-.94H1.2V0zm0 0"/></symbol><symbol overflow="visible" id="1086d907G"><path d="M3.42-.86h-.08L1.77-5.02H.8L2.73 0h.41c-.33.95-.72 1.27-1.45 1.27-.22 0-.49-.04-.69-.08l-.1.73c.2.06.58.11.87.11 1.2 0 1.7-.7 2.21-2.03l1.94-5.02H5zm0 0"/></symbol><symbol overflow="visible" id="1086d907H"><path d="M3.16 2.03c1.67 0 2.4-.86 2.4-2.51v-4.54h-.81l-.13.91h-.06c-.26-.58-.8-1.05-1.73-1.05-1.42 0-2.24 1-2.24 2.52 0 1.6.75 2.56 2.2 2.56.94 0 1.5-.5 1.77-1.03h.05v.72c0 1.17-.42 1.67-1.45 1.67-.93 0-1.3-.34-1.41-.89L.8.5c.12.96.87 1.54 2.36 1.54zM3.06-.8c-.98 0-1.48-.57-1.48-1.82 0-1.13.5-1.75 1.48-1.75 1.06 0 1.58.76 1.58 1.75 0 .95-.56 1.82-1.58 1.82zm0 0"/></symbol><symbol overflow="visible" id="1086d907I"><path d="M1.45-2.95c0 2.56 1.08 4.37 3.67 4.84l.11-.67C3.28.86 2.43-.75 2.43-2.95s.85-3.82 2.8-4.16l-.1-.69c-2.6.49-3.68 2.3-3.68 4.85zm0 0"/></symbol><symbol overflow="visible" id="1086d907J"><path d="M2.84.14C3.8.14 4.33-.26 4.6-.9h.07L4.8 0h.76v-7.14h-.95v2.95h-.08c-.28-.6-.86-.97-1.67-.97-1.48 0-2.27.99-2.27 2.64C.6-.84 1.36.14 2.84.14zm.22-.8c-.98 0-1.48-.59-1.48-1.84s.5-1.86 1.48-1.86c1.13 0 1.58.8 1.58 1.86S4.2-.66 3.06-.66zm0 0"/></symbol><symbol overflow="visible" id="1086d907K"><path d="M1.45-7.1c1.96.33 2.8 1.94 2.8 4.15 0 2.2-.84 3.8-2.8 4.17l.11.67c2.58-.47 3.67-2.28 3.67-4.84 0-2.55-1.09-4.36-3.67-4.85zm0 0"/></symbol></defs><use xlink:href="#1086d907a" x="125.25" y="141" fill="#fff"/><g fill="#515151"><use xlink:href="#1086d907b" x="178.23" y="141"/><use xlink:href="#1086d907c" x="201.09" y="141"/><use xlink:href="#1086d907d" x="212.49" y="141"/><use xlink:href="#1086d907e" x="226.65" y="141"/></g><use xlink:href="#1086d907f" x="252.93" y="141" fill="#fff"/><g fill="#515151"><use xlink:href="#1086d907c" x="289.77" y="141"/><use xlink:href="#1086d907g" x="301.17" y="141"/><use xlink:href="#1086d907h" x="324.75" y="141"/><use xlink:href="#1086d907i" x="344.01" y="141"/><use xlink:href="#1086d907j" x="361.53" y="141"/><use xlink:href="#1086d907k" x="376.59" y="141"/><use xlink:href="#1086d907g" x="393.39" y="141"/></g><use xlink:href="#1086d907l" x="416.97" y="141" fill="#fff"/><use xlink:href="#1086d907m" x="454.23" y="141" fill="#515151"/><g fill="#fff"><use xlink:href="#1086d907n" x="220" y="252"/><use xlink:href="#1086d907o" x="226.667" y="252"/><use xlink:href="#1086d907p" x="233.334" y="252"/><use xlink:href="#1086d907q" x="240.001" y="252"/><use xlink:href="#1086d907r" x="246.668" y="252"/><use xlink:href="#1086d907s" x="253.335" y="252"/><use xlink:href="#1086d907n" x="260.002" y="252"/><use xlink:href="#1086d907t" x="266.669" y="252"/><use xlink:href="#1086d907o" x="273.336" y="252"/><use xlink:href="#1086d907s" x="280.003" y="252"/><use xlink:href="#1086d907u" x="286.67" y="252"/><use xlink:href="#1086d907v" x="293.337" y="252"/><use xlink:href="#1086d907w" x="300.004" y="252"/><use xlink:href="#1086d907q" x="306.671" y="252"/><use xlink:href="#1086d907s" x="313.338" y="252"/><use xlink:href="#1086d907x" x="320.005" y="252"/><use xlink:href="#1086d907y" x="326.672" y="252"/><use xlink:href="#1086d907q" x="333.339" y="252"/><use xlink:href="#1086d907z" x="340.006" y="252"/><use xlink:href="#1086d907A" x="346.673" y="252"/><use xlink:href="#1086d907x" x="353.34" y="252"/><use xlink:href="#1086d907B" x="360.007" y="252"/><use xlink:href="#1086d907q" x="366.674" y="252"/><use xlink:href="#1086d907w" x="373.341" y="252"/></g><g fill="#fff"><use xlink:href="#1086d907C" x="170" y="266"/><use xlink:href="#1086d907o" x="176.667" y="266"/><use xlink:href="#1086d907x" x="183.334" y="266"/><use xlink:href="#1086d907q" x="190.001" y="266"/><use xlink:href="#1086d907D" x="196.668" y="266"/><use xlink:href="#1086d907y" x="203.335" y="266"/><use xlink:href="#1086d907o" x="210.002" y="266"/><use xlink:href="#1086d907r" x="216.669" y="266"/><use xlink:href="#1086d907s" x="223.336" y="266"/><use xlink:href="#1086d907E" x="230.003" y="266"/><use xlink:href="#1086d907z" x="236.67" y="266"/><use xlink:href="#1086d907w" x="243.337" y="266"/><use xlink:href="#1086d907B" x="250.004" y="266"/><use xlink:href="#1086d907y" x="256.671" y="266"/><use xlink:href="#1086d907o" x="263.338" y="266"/><use xlink:href="#1086d907q" x="270.005" y="266"/><use xlink:href="#1086d907z" x="276.672" y="266"/><use xlink:href="#1086d907v" x="283.339" y="266"/><use xlink:href="#1086d907F" x="290.006" y="266"/><use xlink:href="#1086d907x" x="296.673" y="266"/><use xlink:href="#1086d907y" x="303.34" y="266"/><use xlink:href="#1086d907G" x="310.007" y="266"/><use xlink:href="#1086d907s" x="316.674" y="266"/><use xlink:href="#1086d907u" x="323.341" y="266"/><use xlink:href="#1086d907z" x="330.008" y="266"/><use xlink:href="#1086d907H" x="336.675" y="266"/><use xlink:href="#1086d907x" x="343.342" y="266"/><use xlink:href="#1086d907q" x="350.009" y="266"/><use xlink:href="#1086d907D" x="356.676" y="266"/><use xlink:href="#1086d907y" x="363.343" y="266"/><use xlink:href="#1086d907o" x="370.01" y="266"/><use xlink:href="#1086d907w" x="376.677" y="266"/><use xlink:href="#1086d907s" x="383.344" y="266"/><use xlink:href="#1086d907I" x="390.011" y="266"/><use xlink:href="#1086d907J" x="396.678" y="266"/><use xlink:href="#1086d907u" x="403.345" y="266"/><use xlink:href="#1086d907z" x="410.012" y="266"/><use xlink:href="#1086d907H" x="416.679" y="266"/><use xlink:href="#1086d907K" x="423.346" y="266"/></g></svg>