<?xml version='1.0' encoding='UTF-8'?>
<svg xmlns="http://www.w3.org/2000/svg" xmlns:xlink="http://www.w3.org/1999/xlink" width="600px" height="300px" viewBox="0 0 600 300" x="0px" y="0px" enable-background="new 0 0 600 300"><defs><symbol overflow="visible" id="4db698b4a"><path d="M27.66-24.36l1.5-5.83a27.73 27.73 0 00-9.72-1.9C9.78-32.1 2.8-24.23 2.8-15.06 2.81-5.7 8.94.59 18.2.59c3.65 0 7.08-.95 10.01-2.68l.6-5.96h-2.1l-1.68 3.9a11.26 11.26 0 01-6.36 1.74c-6.07 0-10.44-4.67-10.44-13.25 0-9.3 4.62-13.43 10.69-13.43 1.86 0 4.54.71 6.04 1.6l.74 3.13zm0 0"/></symbol><symbol overflow="visible" id="4db698b4b"><path d="M3.36-1.8L2.88 0h21.48l1.14-7.08h-1.92l-1.92 3.66-10.61.78V-15.3h9.53l.65-2.64H11.05v-11.04l9.89.6.54 3.36h1.86l1.68-6.6H2.34l-.36 1.75 4.25.89v23.7c0 2.16-.53 3-2.87 3.48zm0 0"/></symbol><symbol overflow="visible" id="4db698b4c"><path d="M3.36-1.8L2.88 0h21.48l1.14-7.86h-2.1L21.49-3.3l-10.43.66v-23.77c0-2.09.6-2.93 2.8-3.46l.5-1.75h-12l-.37 1.75 4.25.89v23.7c0 2.16-.53 3-2.87 3.48zm0 0"/></symbol><symbol overflow="visible" id="4db698b4d"><path d="M-6-17.05c0 2.11 1.02 3.25 3.3 3.25 2.15 0 3.25-1.2 3.25-3.25 0-2.1-1.2-3.3-3.25-3.3-2.1 0-3.3 1.08-3.3 3.3zm0 0"/></symbol><symbol overflow="visible" id="4db698b4e"><path d="M.66-1.8L.3 0h9.6l.3-1.8-2.82-.84 2.46-7.02h11.82l2.46 7.02-2.57.84-.32 1.8h11.41l.23-1.8-3.65-.84-10.74-29.77-3.96.91L5.7-6.42C4.62-3.42 3.9-2.64.66-1.8zM20.7-12.3H10.63l5.03-14.47h.06zm0 0"/></symbol><symbol overflow="visible" id="4db698b4g"><path d="M18.95-.9l-.53-1.98c-.97.24-2.22.47-3.6.47-5.04 0-7.91-2.68-7.91-9 0-3.65.65-6.95 1.54-8.57.9-.36 2.47-.72 3.74-.72 1.6 0 2.75.36 3.53.97l.65 2.64h2.05l1.14-5.18a12.25 12.25 0 00-6.25-1.43c-6.4 0-11.22 5.76-11.22 13.5C2.1-3 6 .6 12.55.6c2.15 0 4.73-.6 6.4-1.5zm0 0"/></symbol><symbol overflow="visible" id="4db698b4h"><path d="M19.73-1.08l-.53-1.86c-1.2.36-2.47.6-3.97.6-5.45 0-8.15-2.75-8.32-9.07h13.18a15.03 15.03 0 001.04-4.86c0-4.8-2.94-7.43-7.82-7.43-6.76 0-11.22 5.76-11.22 13.5C2.1-3.3 6.3.6 12.55.6c2.75 0 5.32-.66 7.18-1.68zm-3.36-12.97l-9.46.74c.1-2.4 1.18-5.64 2.03-7.03 1.2-.6 2.4-.9 3.65-.9 2.22 0 4.04 1.55 4.04 4.68 0 .97-.13 1.98-.25 2.51zm0 0"/></symbol><symbol overflow="visible" id="4db698b4i"><path d="M2.34-1.8L1.86 0H12.9l.36-1.8-3.91-.84v-31.38l-8.1.96-.35 1.8 3.95.84v26.05c0 1.6-.72 2.21-2.52 2.57zm0 0"/></symbol><symbol overflow="visible" id="4db698b4j"><path d="M2.1-16.98c0 2.1 1.02 3.25 3.3 3.25 2.16 0 3.24-1.2 3.24-3.25 0-2.1-1.2-3.3-3.23-3.3-2.11 0-3.32 1.08-3.32 3.3zm0 0"/></symbol><symbol overflow="visible" id="4db698b4k"><path d="M2.58-20.64l2.47 3.42c2.51-2.22 4.8-3.66 6.53-4.2 2.04.84 3.3 2.87 3.3 6.65v.91C9-13.08 5.45-11.8 3.65-10.38A5.63 5.63 0 001.8-6.12c0 4.26 3.06 6.6 6.54 6.6 2.52 0 4.97-1.2 6.85-3.3.6 2.34 1.97 3.3 3.89 3.3 1.2 0 2.83-.9 3.6-1.92v-.78l-3.3-.9v-12.43c0-4.97-3.3-8.03-7.44-8.03-3.42 0-6.3.9-9.36 2.94zm12.3 9.42v2.45c0 1.63.06 3 .06 3.91a6.18 6.18 0 01-4.92 2.22c-2.52 0-3.72-1.5-3.72-4.08 0-1.33.25-2.47.65-3.3 1.4-.67 4.82-1.2 7.92-1.2zm0 0"/></symbol><symbol overflow="visible" id="4db698b4l"><path d="M3.83 0v-5.95H6.2v-.82H.45v.82h2.4V0zm0 0"/></symbol><symbol overflow="visible" id="4db698b4m"><path d="M5.75-2.23v-.43c0-1.6-.9-2.51-2.42-2.51S.87-4.16.87-2.48c0 1.71.91 2.62 2.5 2.62 1.43 0 2.07-.56 2.29-1.52l-.9-.09c-.18.61-.59.9-1.35.9-.94 0-1.52-.54-1.58-1.66zm-2.4-2.2c.93 0 1.43.5 1.48 1.55H1.84c.08-1.07.6-1.56 1.5-1.56zm0 0"/></symbol><symbol overflow="visible" id="4db698b4n"><path d="M1.83 0l1.42-2h.06l1.46 2H5.8L4-2.53l1.78-2.49H4.8L3.42-3.08h-.08l-1.4-1.94H.89l1.78 2.49L.84 0zm0 0"/></symbol><symbol overflow="visible" id="4db698b4o"><path d="M5.52-4.25v-.77H3.17v-1.56h-.81l-.14 1.56H.75v.77h1.47v2.4c0 1.3.48 1.94 1.84 1.94C4.6.1 5.14 0 5.55-.14L5.4-.91c-.32.13-.72.2-1.13.2-.8 0-1.1-.37-1.1-1.23v-2.31zm0 0"/></symbol><symbol overflow="visible" id="4db698b4p"><path d="M3.33-3.42c.47 0 .8-.27.8-.8 0-.51-.33-.8-.8-.8-.47 0-.8.29-.8.8 0 .53.33.8.8.8zm0 3.5c.47 0 .8-.27.8-.78 0-.53-.33-.82-.8-.82-.47 0-.8.29-.8.82 0 .51.33.78.8.78zm0 0"/></symbol><symbol overflow="visible" id="4db698b4r"><path d="M3.42.14C5.1.14 5.9-.69 6.11-2.17l-.95-.1C4.96-1.19 4.5-.69 3.44-.69c-1.27 0-1.81-.94-1.81-2.69s.54-2.7 1.8-2.7c1.09 0 1.5.49 1.73 1.58l.93-.1c-.21-1.46-.95-2.3-2.62-2.3C1.53-6.9.62-5.6.62-3.38c0 2.2.91 3.51 2.8 3.51zm0 0"/></symbol><symbol overflow="visible" id="4db698b4s"><path d="M5.92-6.77H1.1V0h4.83v-.8H2.06v-2.26h3.22v-.75H2.06v-2.16h3.86zm0 0"/></symbol><symbol overflow="visible" id="4db698b4t"><path d="M2.08-6.77h-.99V0h4.79v-.81h-3.8zm0 0"/></symbol><symbol overflow="visible" id="4db698b4u"><path d="M3.33-1.98c.51 0 .83-.27.83-.8 0-.56-.32-.83-.83-.83-.52 0-.81.27-.81.83 0 .53.3.8.8.8zm0 0"/></symbol><symbol overflow="visible" id="4db698b4v"><path d="M6.17 0L3.98-6.77h-1.3L.5 0h.97l.44-1.47h2.78L5.16 0zM3.28-5.94h.08l1.1 3.74H2.15zm0 0"/></symbol><symbol overflow="visible" id="4db698b4w"><path d="M3.34.14c1.43 0 2.13-.66 2.25-1.78l-.89-.1c-.1.7-.5 1.08-1.34 1.08-1.03 0-1.52-.64-1.52-1.84 0-1.23.47-1.86 1.52-1.86.84 0 1.23.36 1.34 1.08l.9-.1c-.13-1.09-.82-1.78-2.26-1.78-1.56 0-2.46.97-2.46 2.66 0 1.66.9 2.64 2.46 2.64zm0 0"/></symbol><symbol overflow="visible" id="4db698b4x"><path d="M3.92-7.14H1.36v.76h1.6v5.61H1.15V0H5.7v-.77H3.92zm0 0"/></symbol><symbol overflow="visible" id="4db698b4y"><path d="M2.83.14c.94 0 1.5-.39 1.81-.95h.08l.1.81h.76v-3.38c0-1.23-.69-1.8-2.13-1.8-1.43 0-2.03.65-2.18 1.6l.93.1c.11-.6.44-.93 1.22-.93.85 0 1.22.32 1.22 1.04v.34l-1.81.2C1.6-2.7 1.1-2.17 1.1-1.28c0 .92.64 1.42 1.72 1.42zm.25-.77c-.67 0-1.02-.28-1.02-.74 0-.44.28-.72 1-.82l1.58-.19v.41c0 .8-.6 1.34-1.56 1.34zm0 0"/></symbol><symbol overflow="visible" id="4db698b4z"><path d="M5.95-6.77H1.1V0h.99v-2.92H5.3v-.77H2.08v-2.26h3.87zm0 0"/></symbol><symbol overflow="visible" id="4db698b4A"><path d="M2.73.14c.9 0 1.43-.45 1.74-1.08h.06l.13.94h.8v-5.02h-.94v2.7c0 .98-.57 1.62-1.46 1.62-.75 0-1.1-.4-1.1-1.22v-3.1h-.93v3.32c0 1.17.55 1.84 1.7 1.84zm0 0"/></symbol><symbol overflow="visible" id="4db698b4B"><path d="M5.08-5.16c-.94 0-1.58.43-1.9 1.3h-.09l-.07-1.16H1.05v.77h1.1v3.48H.96V0h3.96v-.77H3.1v-1.46c0-1.36.6-2.05 1.83-2.05.4 0 .76.08 1.1.17l.15-.87c-.33-.11-.7-.18-1.11-.18zm0 0"/></symbol><symbol overflow="visible" id="4db698b4C"><path d="M2.16 0v-2.67c0-.99.59-1.63 1.46-1.63.74 0 1.07.38 1.07 1.22V0h.95v-3.31c0-1.2-.56-1.85-1.67-1.85-.92 0-1.49.46-1.77 1.08h-.06l-.12-.94H1.2V0zm0 0"/></symbol><symbol overflow="visible" id="4db698b4D"><path d="M1.45-2.95c0 2.56 1.08 4.37 3.67 4.84l.11-.67C3.28.86 2.43-.75 2.43-2.95s.85-3.82 2.8-4.16l-.1-.69c-2.6.49-3.68 2.3-3.68 4.85zm0 0"/></symbol><symbol overflow="visible" id="4db698b4E"><path d="M3.36.16c1.4 0 2.2-.6 2.2-1.57 0-.89-.54-1.22-1.47-1.39L3-3c-.67-.14-.86-.33-.86-.73 0-.5.4-.74 1.17-.74.83 0 1.19.27 1.27.8l.9-.05c-.12-1-.8-1.47-2.17-1.47-1.34 0-2.1.53-2.1 1.5 0 .81.45 1.22 1.52 1.44l1.04.2c.56.11.87.24.87.72 0 .52-.45.78-1.28.78-.95 0-1.36-.28-1.42-.87l-.9.06C1.07-.36 1.8.16 3.35.16zm0 0"/></symbol><symbol overflow="visible" id="4db698b4F"><path d="M3.16 2.03c1.67 0 2.4-.86 2.4-2.51v-4.54h-.81l-.13.91h-.06c-.26-.58-.8-1.05-1.73-1.05-1.42 0-2.24 1-2.24 2.52 0 1.6.75 2.56 2.2 2.56.94 0 1.5-.5 1.77-1.03h.05v.72c0 1.17-.42 1.67-1.45 1.67-.93 0-1.3-.34-1.41-.89L.8.5c.12.96.87 1.54 2.36 1.54zM3.06-.8c-.98 0-1.48-.57-1.48-1.82 0-1.13.5-1.75 1.48-1.75 1.06 0 1.58.76 1.58 1.75 0 .95-.56 1.82-1.58 1.82zm0 0"/></symbol><symbol overflow="visible" id="4db698b4G"><path d="M1.45-7.1c1.96.33 2.8 1.94 2.8 4.15 0 2.2-.84 3.8-2.8 4.17l.11.67c2.58-.47 3.67-2.28 3.67-4.84 0-2.55-1.09-4.36-3.67-4.85zm0 0"/></symbol></defs><g fill="#515151"><use xlink:href="#4db698b4a" x="168.3" y="141"/><use xlink:href="#4db698b4b" x="199.08" y="141"/></g><use xlink:href="#4db698b4c" x="226.68" y="141" fill="#fff"/><use xlink:href="#4db698b4d" x="252.96" y="141" fill="#fff"/><use xlink:href="#4db698b4c" x="255.6" y="141" fill="#fff"/><g fill="#515151"><use xlink:href="#4db698b4e" x="281.88" y="141"/><use xlink:href="#4db698b4f" x="315.06" y="141"/><use xlink:href="#4db698b4g" x="326.46" y="141"/><use xlink:href="#4db698b4h" x="346.8" y="141"/></g><use xlink:href="#4db698b4i" x="369.06" y="141" fill="#fff"/><use xlink:href="#4db698b4j" x="383.22" y="141" fill="#fff"/><use xlink:href="#4db698b4i" x="393.96" y="141" fill="#fff"/><use xlink:href="#4db698b4k" x="408.12" y="141" fill="#515151"/><g fill="#fff"><use xlink:href="#4db698b4l" x="236.6667" y="252"/><use xlink:href="#4db698b4m" x="243.3337" y="252"/><use xlink:href="#4db698b4n" x="250.0007" y="252"/><use xlink:href="#4db698b4o" x="256.6677" y="252"/><use xlink:href="#4db698b4p" x="263.3347" y="252"/><use xlink:href="#4db698b4q" x="270.0017" y="252"/><use xlink:href="#4db698b4r" x="276.6687" y="252"/><use xlink:href="#4db698b4s" x="283.3357" y="252"/><use xlink:href="#4db698b4t" x="290.0027" y="252"/><use xlink:href="#4db698b4u" x="296.6697" y="252"/><use xlink:href="#4db698b4t" x="303.3367" y="252"/><use xlink:href="#4db698b4v" x="310.0037" y="252"/><use xlink:href="#4db698b4q" x="316.6707" y="252"/><use xlink:href="#4db698b4w" x="323.3377" y="252"/><use xlink:href="#4db698b4m" x="330.0047" y="252"/><use xlink:href="#4db698b4x" x="336.6717" y="252"/><use xlink:href="#4db698b4u" x="343.3387" y="252"/><use xlink:href="#4db698b4x" x="350.0057" y="252"/><use xlink:href="#4db698b4y" x="356.6727" y="252"/></g><g fill="#fff"><use xlink:href="#4db698b4z" x="196.6667" y="266"/><use xlink:href="#4db698b4m" x="203.3337" y="266"/><use xlink:href="#4db698b4y" x="210.0007" y="266"/><use xlink:href="#4db698b4o" x="216.6677" y="266"/><use xlink:href="#4db698b4A" x="223.3347" y="266"/><use xlink:href="#4db698b4B" x="230.0017" y="266"/><use xlink:href="#4db698b4m" x="236.6687" y="266"/><use xlink:href="#4db698b4p" x="243.3357" y="266"/><use xlink:href="#4db698b4q" x="250.0027" y="266"/><use xlink:href="#4db698b4r" x="256.6697" y="266"/><use xlink:href="#4db698b4y" x="263.3367" y="266"/><use xlink:href="#4db698b4o" x="270.0037" y="266"/><use xlink:href="#4db698b4y" x="276.6707" y="266"/><use xlink:href="#4db698b4x" x="283.3377" y="266"/><use xlink:href="#4db698b4y" x="290.0047" y="266"/><use xlink:href="#4db698b4C" x="296.6717" y="266"/><use xlink:href="#4db698b4q" x="303.3387" y="266"/><use xlink:href="#4db698b4D" x="310.0057" y="266"/><use xlink:href="#4db698b4E" x="316.6727" y="266"/><use xlink:href="#4db698b4m" x="323.3397" y="266"/><use xlink:href="#4db698b4o" x="330.0067" y="266"/><use xlink:href="#4db698b4q" x="336.6737" y="266"/><use xlink:href="#4db698b4x" x="343.3407" y="266"/><use xlink:href="#4db698b4y" x="350.0077" y="266"/><use xlink:href="#4db698b4C" x="356.6747" y="266"/><use xlink:href="#4db698b4F" x="363.3417" y="266"/><use xlink:href="#4db698b4A" x="370.0087" y="266"/><use xlink:href="#4db698b4y" x="376.6757" y="266"/><use xlink:href="#4db698b4F" x="383.3427" y="266"/><use xlink:href="#4db698b4m" x="390.0097" y="266"/><use xlink:href="#4db698b4G" x="396.6767" y="266"/></g></svg>