<?xml version='1.0' encoding='UTF-8'?>
<svg xmlns="http://www.w3.org/2000/svg" xmlns:xlink="http://www.w3.org/1999/xlink" width="600px" height="300px" viewBox="0 0 600 300" x="0px" y="0px" enable-background="new 0 0 600 300"><defs><symbol overflow="visible" id="3a6500d2a"><path d="M.66-1.8L.3 0h9.6l.3-1.8-2.82-.84 2.46-7.02h11.82l2.46 7.02-2.57.84-.32 1.8h11.41l.23-1.8-3.65-.84-10.74-29.77-3.96.91L5.7-6.42C4.62-3.42 3.9-2.64.66-1.8zM20.7-12.3H10.63l5.03-14.47h.06zm0 0"/></symbol><symbol overflow="visible" id="3a6500d2b"><path d="M9.66-35.45L.9-30.35l1.01 1.66 5.7-3.23v11.51c0 2.29-1.03 3.32-4.03 3.61l-.3 1.5h11.16l.32-1.5-3.97-.84v-17.22zm0 0"/></symbol><symbol overflow="visible" id="3a6500d2c"><path d="M15-31.63H2.34l-.36 1.75 4.25.9v23.76c0 2.1-.53 2.94-2.87 3.42L2.88 0h13.39c7.01 0 11.8-3.48 11.8-9 0-3.95-2.63-6.66-7.3-7.63v-.17c3.65-1.14 5.51-3.72 5.51-7.07 0-4.2-3.12-7.75-11.28-7.75zm-.06 13.93h-3.9v-11.28h2.4c5.28 0 7.8 1.8 7.8 5.53 0 3.89-1.86 5.75-6.3 5.75zm-3.9 15.06V-15.3h4.09c5.03 0 7.8 2.35 7.8 6.6 0 4.43-2.35 6.06-8.12 6.06zm0 0"/></symbol><symbol overflow="visible" id="3a6500d2d"><path d="M1.69-15.3h13.9l.49-3.48-.06-.06-10.97 1.39-.07-.13 3.54-2.51c4.92-3.49 6.48-6.2 6.48-9.07 0-3.96-2.88-6.3-6.55-6.3-2.87 0-5.57 1.5-7.54 3.9v.06l3 2.16h.04c1.14-1.74 3.2-3.6 4.46-4.02 1.54.6 3 1.86 3 4.2 0 1.97-1.04 4.08-5.41 8.1L1.69-17.1zm0 0"/></symbol><symbol overflow="visible" id="3a6500d2e"><path d="M27.66-24.36l1.5-5.83a27.73 27.73 0 00-9.72-1.9C9.78-32.1 2.8-24.23 2.8-15.06 2.81-5.7 8.94.59 18.2.59c3.65 0 7.08-.95 10.01-2.68l.6-5.96h-2.1l-1.68 3.9a11.26 11.26 0 01-6.36 1.74c-6.07 0-10.44-4.67-10.44-13.25 0-9.3 4.62-13.43 10.69-13.43 1.86 0 4.54.71 6.04 1.6l.74 3.13zm0 0"/></symbol><symbol overflow="visible" id="3a6500d2f"><path d="M2.34-20.58l-.96 3.85a14.84 14.84 0 006.84 1.86c3.48 0 5.87-2.05 5.87-5.05 0-2.03-1.01-3.53-4.67-5.45-3.23-1.7-4.01-2.41-4.01-3.43 0-.42.23-1.07.46-1.39.72-.3 1.57-.4 2.41-.4 1.2 0 2.16.3 3 .78l.42 1.9h1.5l.9-3.59A11.42 11.42 0 009-32.64c-3.84 0-6.42 2.64-6.42 5.16 0 1.86.9 3.25 4.2 4.86 3.53 1.8 4.31 2.64 4.31 3.78 0 1.14-.82 1.98-2.75 1.98-1.5 0-2.93-.42-4.07-1.33l-.49-2.39zm0 0"/></symbol><symbol overflow="visible" id="3a6500d2g"><path d="M6.78-32.1H.91l-.25 1.32 2.53.66v9.06c0 4.33 1.67 6.12 5.1 6.12 2.5 0 4.26-.84 5.87-2.87l.78 2.87 5.28-.36.23-1.39-2.8-.53v-14.87H11.4l-.25 1.3 2.89.66v10.5c-1.2 1.7-2.6 2.35-4.2 2.35-2.12 0-3.07-1.14-3.07-4.86zm0 0"/></symbol><symbol overflow="visible" id="3a6500d2h"><path d="M1.73-9.36l-.35 1.44h8.57l.25-1.44-2.93-.6v-3.77c0-.91-.13-1.86-.25-2.29a7.1 7.1 0 004.2 1.14c4.44 0 8.58-4.14 8.58-9.78 0-5.04-3.18-7.98-6.9-7.98-2.17 0-3.84.78-5.82 2.83l-.96-2.7-5.17.71-.3 1.32 3 .67v18.6c0 1.13-.52 1.62-1.92 1.85zm5.54-9.55v-9.04c1.8-1.86 3.04-2.4 4.67-2.4 1.98 0 4.01 2.4 4.01 6.41 0 3.24-.89 5.35-2.03 6.6-.72.3-1.5.42-2.22.42-2.04 0-3.36-.66-4.43-1.99zm0 0"/></symbol><symbol overflow="visible" id="3a6500d2i"><path d="M3.83 0v-5.95H6.2v-.82H.45v.82h2.4V0zm0 0"/></symbol><symbol overflow="visible" id="3a6500d2j"><path d="M5.75-2.23v-.43c0-1.6-.9-2.51-2.42-2.51S.87-4.16.87-2.48c0 1.71.91 2.62 2.5 2.62 1.43 0 2.07-.56 2.29-1.52l-.9-.09c-.18.61-.59.9-1.35.9-.94 0-1.52-.54-1.58-1.66zm-2.4-2.2c.93 0 1.43.5 1.48 1.55H1.84c.08-1.07.6-1.56 1.5-1.56zm0 0"/></symbol><symbol overflow="visible" id="3a6500d2k"><path d="M1.83 0l1.42-2h.06l1.46 2H5.8L4-2.53l1.78-2.49H4.8L3.42-3.08h-.08l-1.4-1.94H.89l1.78 2.49L.84 0zm0 0"/></symbol><symbol overflow="visible" id="3a6500d2l"><path d="M5.52-4.25v-.77H3.17v-1.56h-.81l-.14 1.56H.75v.77h1.47v2.4c0 1.3.48 1.94 1.84 1.94C4.6.1 5.14 0 5.55-.14L5.4-.91c-.32.13-.72.2-1.13.2-.8 0-1.1-.37-1.1-1.23v-2.31zm0 0"/></symbol><symbol overflow="visible" id="3a6500d2m"><path d="M3.33-3.42c.47 0 .8-.27.8-.8 0-.51-.33-.8-.8-.8-.47 0-.8.29-.8.8 0 .53.33.8.8.8zm0 3.5c.47 0 .8-.27.8-.78 0-.53-.33-.82-.8-.82-.47 0-.8.29-.8.82 0 .51.33.78.8.78zm0 0"/></symbol><symbol overflow="visible" id="3a6500d2o"><path d="M6.17 0L3.98-6.77h-1.3L.5 0h.97l.44-1.47h2.78L5.16 0zM3.28-5.94h.08l1.1 3.74H2.15zm0 0"/></symbol><symbol overflow="visible" id="3a6500d2p"><path d="M4.22-6.77h-.86l-2.03.7v.87c.64-.17 1.26-.38 1.89-.55v4.9H1.03V0h4.9v-.86H4.21zm0 0"/></symbol><symbol overflow="visible" id="3a6500d2q"><path d="M4.66-3.45c.76-.14 1.15-.67 1.15-1.57 0-1.07-.64-1.75-2.18-1.75H.92V0h2.71C5.2 0 5.98-.64 5.98-1.77c0-1.03-.56-1.43-1.32-1.59zM3.56-6c.9 0 1.31.4 1.31 1.13 0 .71-.4 1.14-1.3 1.14h-1.7V-6zM1.87-.75v-2.27H3.6c.97 0 1.44.33 1.44 1.13 0 .8-.47 1.14-1.44 1.14zm0 0"/></symbol><symbol overflow="visible" id="3a6500d2r"><path d="M5.67 0v-.86H2.14V-.9L3.6-2c1.05-.83 2-1.68 2-2.91 0-1.19-.73-1.99-2.26-1.99-1.66 0-2.3 1.02-2.44 2.33l1 .08c.1-.92.42-1.58 1.44-1.58.87 0 1.26.44 1.26 1.24 0 .9-.8 1.53-1.96 2.53L.83-.81V0zm0 0"/></symbol><symbol overflow="visible" id="3a6500d2s"><path d="M3.42.14C5.1.14 5.9-.69 6.11-2.17l-.95-.1C4.96-1.19 4.5-.69 3.44-.69c-1.27 0-1.81-.94-1.81-2.69s.54-2.7 1.8-2.7c1.09 0 1.5.49 1.73 1.58l.93-.1c-.21-1.46-.95-2.3-2.62-2.3C1.53-6.9.62-5.6.62-3.38c0 2.2.91 3.51 2.8 3.51zm0 0"/></symbol><symbol overflow="visible" id="3a6500d2t"><path d="M3.36.16c1.4 0 2.2-.6 2.2-1.57 0-.89-.54-1.22-1.47-1.39L3-3c-.67-.14-.86-.33-.86-.73 0-.5.4-.74 1.17-.74.83 0 1.19.27 1.27.8l.9-.05c-.12-1-.8-1.47-2.17-1.47-1.34 0-2.1.53-2.1 1.5 0 .81.45 1.22 1.52 1.44l1.04.2c.56.11.87.24.87.72 0 .52-.45.78-1.28.78-.95 0-1.36-.28-1.42-.87l-.9.06C1.07-.36 1.8.16 3.35.16zm0 0"/></symbol><symbol overflow="visible" id="3a6500d2u"><path d="M2.73.14c.9 0 1.43-.45 1.74-1.08h.06l.13.94h.8v-5.02h-.94v2.7c0 .98-.57 1.62-1.46 1.62-.75 0-1.1-.4-1.1-1.22v-3.1h-.93v3.32c0 1.17.55 1.84 1.7 1.84zm0 0"/></symbol><symbol overflow="visible" id="3a6500d2v"><path d="M2.06 1.9V-.84h.05c.28.58.8.97 1.77.97 1.5 0 2.2-.98 2.2-2.66 0-1.65-.7-2.64-2.19-2.64-.97 0-1.5.44-1.78 1.05h-.08l-.1-.9H1.1v6.9zm1.5-2.56c-1.06 0-1.53-.8-1.53-1.86 0-1.04.47-1.84 1.53-1.84 1.11 0 1.53.61 1.53 1.84 0 1.27-.42 1.86-1.53 1.86zm0 0"/></symbol><symbol overflow="visible" id="3a6500d2w"><path d="M5.95-6.77H1.1V0h.99v-2.92H5.3v-.77H2.08v-2.26h3.87zm0 0"/></symbol><symbol overflow="visible" id="3a6500d2x"><path d="M2.83.14c.94 0 1.5-.39 1.81-.95h.08l.1.81h.76v-3.38c0-1.23-.69-1.8-2.13-1.8-1.43 0-2.03.65-2.18 1.6l.93.1c.11-.6.44-.93 1.22-.93.85 0 1.22.32 1.22 1.04v.34l-1.81.2C1.6-2.7 1.1-2.17 1.1-1.28c0 .92.64 1.42 1.72 1.42zm.25-.77c-.67 0-1.02-.28-1.02-.74 0-.44.28-.72 1-.82l1.58-.19v.41c0 .8-.6 1.34-1.56 1.34zm0 0"/></symbol><symbol overflow="visible" id="3a6500d2y"><path d="M5.08-5.16c-.94 0-1.58.43-1.9 1.3h-.09l-.07-1.16H1.05v.77h1.1v3.48H.96V0h3.96v-.77H3.1v-1.46c0-1.36.6-2.05 1.83-2.05.4 0 .76.08 1.1.17l.15-.87c-.33-.11-.7-.18-1.11-.18zm0 0"/></symbol><symbol overflow="visible" id="3a6500d2z"><path d="M3.42.14c1.61 0 2.56-.75 2.56-2 0-1.1-.67-1.6-1.95-1.86l-.97-.2c-.87-.17-1.23-.49-1.23-1.11 0-.7.54-1.11 1.5-1.11 1.06 0 1.51.34 1.69 1.23l.9-.09c-.17-1.28-.98-1.9-2.6-1.9C1.79-6.9.9-6.18.9-4.98c0 1.06.66 1.66 1.88 1.9l1.01.2c.85.17 1.25.4 1.25 1.09 0 .73-.6 1.16-1.6 1.16-1.07 0-1.66-.4-1.8-1.24l-.94.1C.83-.53 1.75.13 3.42.13zm0 0"/></symbol><symbol overflow="visible" id="3a6500d2A"><path d="M3.34.14c1.43 0 2.13-.66 2.25-1.78l-.89-.1c-.1.7-.5 1.08-1.34 1.08-1.03 0-1.52-.64-1.52-1.84 0-1.23.47-1.86 1.52-1.86.84 0 1.23.36 1.34 1.08l.9-.1c-.13-1.09-.82-1.78-2.26-1.78-1.56 0-2.46.97-2.46 2.66 0 1.66.9 2.64 2.46 2.64zm0 0"/></symbol><symbol overflow="visible" id="3a6500d2B"><path d="M3.58-5.81c.42 0 .72-.22.72-.67 0-.44-.3-.68-.72-.68-.44 0-.72.24-.72.68 0 .45.28.67.72.67zm.5.8H1.52v.76h1.6v3.48h-1.8V0h4.46v-.77h-1.7zm0 0"/></symbol><symbol overflow="visible" id="3a6500d2C"><path d="M1.45-2.95c0 2.56 1.08 4.37 3.67 4.84l.11-.67C3.28.86 2.43-.75 2.43-2.95s.85-3.82 2.8-4.16l-.1-.69c-2.6.49-3.68 2.3-3.68 4.85zm0 0"/></symbol><symbol overflow="visible" id="3a6500d2D"><path d="M1.45-7.1c1.96.33 2.8 1.94 2.8 4.15 0 2.2-.84 3.8-2.8 4.17l.11.67c2.58-.47 3.67-2.28 3.67-4.84 0-2.55-1.09-4.36-3.67-4.85zm0 0"/></symbol></defs><use xlink:href="#3a6500d2a" x="207.3" y="141" fill="#515151"/><use xlink:href="#3a6500d2b" x="240.48" y="141" fill="#fff"/><use xlink:href="#3a6500d2c" x="256.14" y="141" fill="#515151"/><use xlink:href="#3a6500d2d" x="286.32" y="141" fill="#fff"/><use xlink:href="#3a6500d2e" x="303.6" y="141" fill="#515151"/><use xlink:href="#3a6500d2f" x="334.38" y="141" fill="#fff"/><use xlink:href="#3a6500d2g" x="349.98" y="141" fill="#fff"/><use xlink:href="#3a6500d2h" x="371.34" y="141" fill="#fff"/><g fill="#fff"><use xlink:href="#3a6500d2i" x="253.3333" y="252"/><use xlink:href="#3a6500d2j" x="260.0003" y="252"/><use xlink:href="#3a6500d2k" x="266.6673" y="252"/><use xlink:href="#3a6500d2l" x="273.3343" y="252"/><use xlink:href="#3a6500d2m" x="280.0013" y="252"/><use xlink:href="#3a6500d2n" x="286.6683" y="252"/><use xlink:href="#3a6500d2o" x="293.3353" y="252"/><use xlink:href="#3a6500d2p" x="300.0023" y="252"/><use xlink:href="#3a6500d2q" x="306.6693" y="252"/><use xlink:href="#3a6500d2r" x="313.3363" y="252"/><use xlink:href="#3a6500d2s" x="320.0033" y="252"/><use xlink:href="#3a6500d2t" x="326.6703" y="252"/><use xlink:href="#3a6500d2u" x="333.3373" y="252"/><use xlink:href="#3a6500d2v" x="340.0043" y="252"/></g><g fill="#fff"><use xlink:href="#3a6500d2w" x="210" y="266"/><use xlink:href="#3a6500d2j" x="216.667" y="266"/><use xlink:href="#3a6500d2x" x="223.334" y="266"/><use xlink:href="#3a6500d2l" x="230.001" y="266"/><use xlink:href="#3a6500d2u" x="236.668" y="266"/><use xlink:href="#3a6500d2y" x="243.335" y="266"/><use xlink:href="#3a6500d2j" x="250.002" y="266"/><use xlink:href="#3a6500d2m" x="256.669" y="266"/><use xlink:href="#3a6500d2n" x="263.336" y="266"/><use xlink:href="#3a6500d2z" x="270.003" y="266"/><use xlink:href="#3a6500d2u" x="276.67" y="266"/><use xlink:href="#3a6500d2v" x="283.337" y="266"/><use xlink:href="#3a6500d2j" x="290.004" y="266"/><use xlink:href="#3a6500d2y" x="296.671" y="266"/><use xlink:href="#3a6500d2t" x="303.338" y="266"/><use xlink:href="#3a6500d2A" x="310.005" y="266"/><use xlink:href="#3a6500d2y" x="316.672" y="266"/><use xlink:href="#3a6500d2B" x="323.339" y="266"/><use xlink:href="#3a6500d2v" x="330.006" y="266"/><use xlink:href="#3a6500d2l" x="336.673" y="266"/><use xlink:href="#3a6500d2n" x="343.34" y="266"/><use xlink:href="#3a6500d2C" x="350.007" y="266"/><use xlink:href="#3a6500d2t" x="356.674" y="266"/><use xlink:href="#3a6500d2u" x="363.341" y="266"/><use xlink:href="#3a6500d2v" x="370.008" y="266"/><use xlink:href="#3a6500d2t" x="376.675" y="266"/><use xlink:href="#3a6500d2D" x="383.342" y="266"/></g></svg>