<?xml version='1.0' encoding='UTF-8'?>
<svg xmlns="http://www.w3.org/2000/svg" xmlns:xlink="http://www.w3.org/1999/xlink" width="600px" height="300px" viewBox="0 0 600 300" x="0px" y="0px" enable-background="new 0 0 600 300"><defs><symbol overflow="visible" id="cce1c93ea"><path d="M8.81-1.8L8.34 0h12.54l.42-1.8-4.2-.84v-26.64l7.68.9.6 3.96h1.98l1.44-7.2H.6l1.45 7.2h1.97l.6-3.95 7.68-.91v24.06c0 2.22-.66 3.06-3.49 3.42zm8.24 4.67l-4.5.79c.23.71.4 1.62.4 2.21 0 1.44-.6 2.18-3.47 4.04l.79 1.73c5.21-1.86 7.3-3.9 7.3-5.94a8 8 0 00-.52-2.83zm0 0"/></symbol><symbol overflow="visible" id="cce1c93eb"><path d="M.66-1.8L.3 0h9.6l.3-1.8-2.82-.84 2.46-7.02h11.82l2.46 7.02-2.57.84-.32 1.8h11.41l.23-1.8-3.65-.84-10.74-29.77-3.96.91L5.7-6.42C4.62-3.42 3.9-2.64.66-1.8zM20.7-12.3H10.63l5.03-14.47h.06zm0 0"/></symbol><symbol overflow="visible" id="cce1c93ec"><path d="M3.36-1.8L2.88 0H14.8l.42-1.8-4.18-.84v-10.67h5.26l5.28 8.33C24.55-.3 25.86.3 28.02.3c1.2 0 2.46-.36 3.36-.9l.3-1.5c-2.34-.24-3.37-1.02-5.4-4.13l-5.34-8.22c3.97-1.63 6.12-4.86 6.12-8.28 0-5.41-4.14-8.9-12.06-8.9H2.34l-.36 1.75 4.25.9v23.82c0 2.04-.53 2.88-2.87 3.36zm7.69-13.86v-13.56h1.97c5.46 0 8.89 2.1 8.89 6.72 0 4.73-2.64 6.84-6.91 6.84zm0 0"/></symbol><symbol overflow="visible" id="cce1c93ed"><path d="M10.5-41.52h-.42l-1.31 1.57a8.36 8.36 0 007.8 4.8 8.4 8.4 0 007.79-4.8l-1.31-1.57h-.43a7.84 7.84 0 01-6.06 2.82 7.79 7.79 0 01-6.06-2.82zM.66-1.8L.3 0h9.6l.3-1.8-2.82-.84 2.46-7.02h11.82l2.46 7.02-2.57.84-.32 1.8h11.41l.23-1.8-3.65-.84-10.74-29.77-3.96.91L5.7-6.42C4.62-3.42 3.9-2.64.66-1.8zM20.7-12.3H10.63l5.03-14.47h.06zm0 0"/></symbol><symbol overflow="visible" id="cce1c93ee"><path d="M6.6-6.19l-3 4.57L6.77.71c-.12 1.44-1.01 3.66-3 6.12v.07L5.1 8.2h.07c4.39-3.05 5.93-5.63 5.93-8.5 0-2.41-1.43-4.63-4.5-5.9zm0 0"/></symbol><symbol overflow="visible" id="cce1c93eg"><path d="M9.78-29.64l-4.5.78v5.88H.78L.3-21.3l4.98 1.2v14.52c0 4.8 2.22 6 5.16 6 2.15 0 4.2-.54 6.54-2.04l-.71-2.1c-1.4.6-2.54.9-3.72.9-2.11 0-2.77-.77-2.77-4.45v-12.82h5.81l.79-2.9h-6.6zM11.1 2.05L7.63 3.06c.3.53.53 1.25.53 2.1 0 1.2-.54 2.4-3.07 3.96l.72 1.26c4.33-1.61 6.25-3.36 6.25-5.76 0-.96-.36-1.85-.97-2.57zm0 0"/></symbol><symbol overflow="visible" id="cce1c93eh"><path d="M2.58-20.64l2.47 3.42c2.51-2.22 4.8-3.66 6.53-4.2 2.04.84 3.3 2.87 3.3 6.65v.91C9-13.08 5.45-11.8 3.65-10.38A5.63 5.63 0 001.8-6.12c0 4.26 3.06 6.6 6.54 6.6 2.52 0 4.97-1.2 6.85-3.3.6 2.34 1.97 3.3 3.89 3.3 1.2 0 2.83-.9 3.6-1.92v-.78l-3.3-.9v-12.43c0-4.97-3.3-8.03-7.44-8.03-3.42 0-6.3.9-9.36 2.94zm12.3 9.42v2.45c0 1.63.06 3 .06 3.91a6.18 6.18 0 01-4.92 2.22c-2.52 0-3.72-1.5-3.72-4.08 0-1.33.25-2.47.65-3.3 1.4-.67 4.82-1.2 7.92-1.2zm0 0"/></symbol><symbol overflow="visible" id="cce1c93ei"><path d="M2.94-1.8L2.52 0H13.5l.36-1.8-3.84-.84v-15.17l8.76-1.99c-.3-2.51-1.26-3.72-2.47-3.72-1.6 0-4.12 1.32-6.6 4.08l-1.07-4.08-6.72 1.02-.42 1.73 4.02.91v15.48c0 1.61-.72 2.22-2.58 2.58zm0 0"/></symbol><symbol overflow="visible" id="cce1c93ej"><path d="M6.6-33l-1.68 1.31c.85 2.96 3.17 4.99 6.49 4.99a6.5 6.5 0 006.46-4.99L16.2-33h-.3c-1.03 2.05-2.46 3.3-4.5 3.3S7.93-30.95 6.9-33zM2.57-20.64l2.47 3.42c2.51-2.22 4.8-3.66 6.53-4.2 2.04.84 3.3 2.87 3.3 6.65v.91C9-13.08 5.45-11.8 3.65-10.38A5.63 5.63 0 001.8-6.12c0 4.26 3.06 6.6 6.54 6.6 2.52 0 4.97-1.2 6.85-3.3.6 2.34 1.97 3.3 3.89 3.3 1.2 0 2.83-.9 3.6-1.92v-.78l-3.3-.9v-12.43c0-4.97-3.3-8.03-7.44-8.03-3.42 0-6.3.9-9.36 2.94zm12.3 9.42v2.45c0 1.63.06 3 .06 3.91a6.18 6.18 0 01-4.92 2.22c-2.52 0-3.72-1.5-3.72-4.08 0-1.33.25-2.47.65-3.3 1.4-.67 4.82-1.2 7.92-1.2zm0 0"/></symbol><symbol overflow="visible" id="cce1c93ek"><path d="M3.83 0v-5.95H6.2v-.82H.45v.82h2.4V0zm0 0"/></symbol><symbol overflow="visible" id="cce1c93el"><path d="M5.75-2.23v-.43c0-1.6-.9-2.51-2.42-2.51S.87-4.16.87-2.48c0 1.71.91 2.62 2.5 2.62 1.43 0 2.07-.56 2.29-1.52l-.9-.09c-.18.61-.59.9-1.35.9-.94 0-1.52-.54-1.58-1.66zm-2.4-2.2c.93 0 1.43.5 1.48 1.55H1.84c.08-1.07.6-1.56 1.5-1.56zm0 0"/></symbol><symbol overflow="visible" id="cce1c93em"><path d="M1.83 0l1.42-2h.06l1.46 2H5.8L4-2.53l1.78-2.49H4.8L3.42-3.08h-.08l-1.4-1.94H.89l1.78 2.49L.84 0zm0 0"/></symbol><symbol overflow="visible" id="cce1c93en"><path d="M5.52-4.25v-.77H3.17v-1.56h-.81l-.14 1.56H.75v.77h1.47v2.4c0 1.3.48 1.94 1.84 1.94C4.6.1 5.14 0 5.55-.14L5.4-.91c-.32.13-.72.2-1.13.2-.8 0-1.1-.37-1.1-1.23v-2.31zm0 0"/></symbol><symbol overflow="visible" id="cce1c93eo"><path d="M3.33-3.42c.47 0 .8-.27.8-.8 0-.51-.33-.8-.8-.8-.47 0-.8.29-.8.8 0 .53.33.8.8.8zm0 3.5c.47 0 .8-.27.8-.78 0-.53-.33-.82-.8-.82-.47 0-.8.29-.8.82 0 .51.33.78.8.78zm0 0"/></symbol><symbol overflow="visible" id="cce1c93eq"><path d="M3.83-5.95H6.2v-.82H.45v.82h2.4V0h.17l-.13.64c.52.05.81.17.81.5 0 .36-.22.42-.48.42-.14 0-.36-.03-.52-.08l-.08.5c.2.07.5.15.79.15.56 0 1.06-.2 1.06-.91 0-.52-.44-.77-.95-.86L3.58 0h.25zm0 0"/></symbol><symbol overflow="visible" id="cce1c93er"><path d="M6.17 0L3.98-6.77h-1.3L.5 0h.97l.44-1.47h2.78L5.16 0zM3.28-5.94h.08l1.1 3.74H2.15zm0 0"/></symbol><symbol overflow="visible" id="cce1c93es"><path d="M4.06-2.77c1.25-.04 1.92-.7 1.92-1.96 0-1.36-.7-2.04-2.17-2.04H.92V0h.97v-2.73h1.08L4.95 0h1.1zM1.9-6h1.7c1.07 0 1.46.34 1.46 1.28 0 .9-.44 1.27-1.47 1.27H1.89zm0 0"/></symbol><symbol overflow="visible" id="cce1c93et"><path d="M3.34-7.36c1.08 0 1.74-.51 1.79-1.72h-.7c-.07.75-.34 1.13-1.09 1.13S2.33-8.3 2.27-9.08h-.7c.04 1.2.66 1.72 1.77 1.72zM6.17 0L3.98-6.77h-1.3L.5 0h.97l.44-1.47h2.78L5.16 0zM3.28-5.94h.08l1.1 3.74H2.15zm0 0"/></symbol><symbol overflow="visible" id="cce1c93eu"><path d="M3.34-1.56c-.54 0-.82.31-.82.86 0 .5.3.78.76.78-.08.4-.34.95-.65 1.39l.53.25c.57-.67 1-1.67 1-2.36 0-.6-.3-.92-.82-.92zm0 0"/></symbol><symbol overflow="visible" id="cce1c93ev"><path d="M3.69.08l.37.01C4.6.1 5.14 0 5.55-.14L5.4-.91c-.32.13-.72.2-1.13.2-.8 0-1.1-.37-1.1-1.23v-2.31h2.34v-.77H3.17v-1.56h-.81l-.14 1.56H.75v.77h1.47v2.4c0 .96.25 1.55.94 1.82l-.14.67c.51.05.82.17.82.5 0 .36-.23.42-.5.42-.14 0-.36-.03-.5-.08l-.09.5c.2.07.5.15.78.15.56 0 1.08-.2 1.08-.91 0-.52-.44-.77-.97-.86zm0 0"/></symbol><symbol overflow="visible" id="cce1c93ew"><path d="M2.83.14c.94 0 1.5-.39 1.81-.95h.08l.1.81h.76v-3.38c0-1.23-.69-1.8-2.13-1.8-1.43 0-2.03.65-2.18 1.6l.93.1c.11-.6.44-.93 1.22-.93.85 0 1.22.32 1.22 1.04v.34l-1.81.2C1.6-2.7 1.1-2.17 1.1-1.28c0 .92.64 1.42 1.72 1.42zm.25-.77c-.67 0-1.02-.28-1.02-.74 0-.44.28-.72 1-.82l1.58-.19v.41c0 .8-.6 1.34-1.56 1.34zm0 0"/></symbol><symbol overflow="visible" id="cce1c93ex"><path d="M5.08-5.16c-.94 0-1.58.43-1.9 1.3h-.09l-.07-1.16H1.05v.77h1.1v3.48H.96V0h3.96v-.77H3.1v-1.46c0-1.36.6-2.05 1.83-2.05.4 0 .76.08 1.1.17l.15-.87c-.33-.11-.7-.18-1.11-.18zm0 0"/></symbol><symbol overflow="visible" id="cce1c93ey"><path d="M3.53-5.67c1.05 0 1.64-.56 1.69-1.85h-.69c-.05.77-.26 1.22-1 1.22-.72 0-.95-.45-1-1.22h-.7c.04 1.29.62 1.85 1.7 1.85zM2.83.14c.94 0 1.5-.39 1.81-.95h.08l.1.81h.76v-3.38c0-1.23-.69-1.8-2.13-1.8-1.43 0-2.03.65-2.18 1.6l.93.1c.11-.6.44-.93 1.22-.93.85 0 1.22.32 1.22 1.04v.34l-1.81.2C1.6-2.7 1.1-2.17 1.1-1.28c0 .92.64 1.42 1.72 1.42zm.25-.77c-.67 0-1.02-.28-1.02-.74 0-.44.28-.72 1-.82l1.58-.19v.41c0 .8-.6 1.34-1.56 1.34zm0 0"/></symbol><symbol overflow="visible" id="cce1c93ez"><path d="M5.95-6.77H1.1V0h.99v-2.92H5.3v-.77H2.08v-2.26h3.87zm0 0"/></symbol><symbol overflow="visible" id="cce1c93eA"><path d="M2.73.14c.9 0 1.43-.45 1.74-1.08h.06l.13.94h.8v-5.02h-.94v2.7c0 .98-.57 1.62-1.46 1.62-.75 0-1.1-.4-1.1-1.22v-3.1h-.93v3.32c0 1.17.55 1.84 1.7 1.84zm0 0"/></symbol><symbol overflow="visible" id="cce1c93eB"><path d="M3.33.14c1.62 0 2.5-.95 2.5-2.66 0-1.68-.88-2.64-2.5-2.64-1.63 0-2.5.96-2.5 2.64 0 1.7.87 2.66 2.5 2.66zm0-.77c-1.06 0-1.52-.6-1.52-1.89 0-1.28.46-1.87 1.52-1.87 1.08 0 1.53.6 1.53 1.87 0 1.29-.45 1.9-1.53 1.9zm0 0"/></symbol><symbol overflow="visible" id="cce1c93eC"><path d="M1.63 0v-2.9c0-.8.15-1.4.71-1.4.41 0 .55.3.55.88V0h.95v-2.9c0-.8.18-1.4.72-1.4.4 0 .57.3.57.88V0h.95v-3.63c0-.92-.28-1.53-1.11-1.53-.63 0-.95.41-1.1.9h-.06c-.1-.52-.44-.9-1.08-.9-.6 0-.93.41-1.06.9H1.6l-.23-.76H.67V0zm0 0"/></symbol><symbol overflow="visible" id="cce1c93eD"><path d="M2.16 0v-2.67c0-.99.59-1.63 1.46-1.63.74 0 1.07.38 1.07 1.22V0h.95v-3.31c0-1.2-.56-1.85-1.67-1.85-.92 0-1.49.46-1.77 1.08h-.06l-.12-.94H1.2V0zm0 0"/></symbol><symbol overflow="visible" id="cce1c93eE"><path d="M3.58-5.81c.42 0 .72-.22.72-.67 0-.44-.3-.68-.72-.68-.44 0-.72.24-.72.68 0 .45.28.67.72.67zm.5.8H1.52v.76h1.6v3.48h-1.8V0h4.46v-.77h-1.7zm0 0"/></symbol><symbol overflow="visible" id="cce1c93eF"><path d="M1.45-2.95c0 2.56 1.08 4.37 3.67 4.84l.11-.67C3.28.86 2.43-.75 2.43-2.95s.85-3.82 2.8-4.16l-.1-.69c-2.6.49-3.68 2.3-3.68 4.85zm0 0"/></symbol><symbol overflow="visible" id="cce1c93eG"><path d="M3.36.16c1.4 0 2.2-.6 2.2-1.57 0-.89-.54-1.22-1.47-1.39L3-3c-.67-.14-.86-.33-.86-.73 0-.5.4-.74 1.17-.74.83 0 1.19.27 1.27.8l.9-.05c-.12-1-.8-1.47-2.17-1.47-1.34 0-2.1.53-2.1 1.5 0 .81.45 1.22 1.52 1.44l1.04.2c.56.11.87.24.87.72 0 .52-.45.78-1.28.78-.95 0-1.36-.28-1.42-.87l-.9.06C1.07-.36 1.8.16 3.35.16zm0 0"/></symbol><symbol overflow="visible" id="cce1c93eH"><path d="M3.92-7.14H1.36v.76h1.6v5.61H1.15V0H5.7v-.77H3.92zm0 0"/></symbol><symbol overflow="visible" id="cce1c93eI"><path d="M3.16 2.03c1.67 0 2.4-.86 2.4-2.51v-4.54h-.81l-.13.91h-.06c-.26-.58-.8-1.05-1.73-1.05-1.42 0-2.24 1-2.24 2.52 0 1.6.75 2.56 2.2 2.56.94 0 1.5-.5 1.77-1.03h.05v.72c0 1.17-.42 1.67-1.45 1.67-.93 0-1.3-.34-1.41-.89L.8.5c.12.96.87 1.54 2.36 1.54zM3.06-.8c-.98 0-1.48-.57-1.48-1.82 0-1.13.5-1.75 1.48-1.75 1.06 0 1.58.76 1.58 1.75 0 .95-.56 1.82-1.58 1.82zm0 0"/></symbol><symbol overflow="visible" id="cce1c93eJ"><path d="M1.45-7.1c1.96.33 2.8 1.94 2.8 4.15 0 2.2-.84 3.8-2.8 4.17l.11.67c2.58-.47 3.67-2.28 3.67-4.84 0-2.55-1.09-4.36-3.67-4.85zm0 0"/></symbol></defs><use xlink:href="#cce1c93ea" x="181.5" y="141" fill="#fff"/><g fill="#515151"><use xlink:href="#cce1c93eb" x="207.9" y="141"/><use xlink:href="#cce1c93ec" x="241.08" y="141"/><use xlink:href="#cce1c93ed" x="273.78" y="141"/><use xlink:href="#cce1c93ee" x="306.96" y="141"/><use xlink:href="#cce1c93ef" x="323.16" y="141"/></g><use xlink:href="#cce1c93eg" x="334.56" y="141" fill="#fff"/><g fill="#515151"><use xlink:href="#cce1c93eh" x="352.08" y="141"/><use xlink:href="#cce1c93ei" x="375.66" y="141"/><use xlink:href="#cce1c93ej" x="394.92" y="141"/></g><g fill="#fff"><use xlink:href="#cce1c93ek" x="246.6667" y="252"/><use xlink:href="#cce1c93el" x="253.3337" y="252"/><use xlink:href="#cce1c93em" x="260.0007" y="252"/><use xlink:href="#cce1c93en" x="266.6677" y="252"/><use xlink:href="#cce1c93eo" x="273.3347" y="252"/><use xlink:href="#cce1c93ep" x="280.0017" y="252"/><use xlink:href="#cce1c93eq" x="286.6687" y="252"/><use xlink:href="#cce1c93er" x="293.3357" y="252"/><use xlink:href="#cce1c93es" x="300.0027" y="252"/><use xlink:href="#cce1c93et" x="306.6697" y="252"/><use xlink:href="#cce1c93eu" x="313.3367" y="252"/><use xlink:href="#cce1c93ep" x="320.0037" y="252"/><use xlink:href="#cce1c93ev" x="326.6707" y="252"/><use xlink:href="#cce1c93ew" x="333.3377" y="252"/><use xlink:href="#cce1c93ex" x="340.0047" y="252"/><use xlink:href="#cce1c93ey" x="346.6717" y="252"/></g><g fill="#fff"><use xlink:href="#cce1c93ez" x="193.3333" y="266"/><use xlink:href="#cce1c93el" x="200.0003" y="266"/><use xlink:href="#cce1c93ew" x="206.6673" y="266"/><use xlink:href="#cce1c93en" x="213.3343" y="266"/><use xlink:href="#cce1c93eA" x="220.0013" y="266"/><use xlink:href="#cce1c93ex" x="226.6683" y="266"/><use xlink:href="#cce1c93el" x="233.3353" y="266"/><use xlink:href="#cce1c93eo" x="240.0023" y="266"/><use xlink:href="#cce1c93ep" x="246.6693" y="266"/><use xlink:href="#cce1c93es" x="253.3363" y="266"/><use xlink:href="#cce1c93eB" x="260.0033" y="266"/><use xlink:href="#cce1c93eC" x="266.6703" y="266"/><use xlink:href="#cce1c93ew" x="273.3373" y="266"/><use xlink:href="#cce1c93eD" x="280.0043" y="266"/><use xlink:href="#cce1c93eE" x="286.6713" y="266"/><use xlink:href="#cce1c93ew" x="293.3383" y="266"/><use xlink:href="#cce1c93eD" x="300.0053" y="266"/><use xlink:href="#cce1c93ep" x="306.6723" y="266"/><use xlink:href="#cce1c93eF" x="313.3393" y="266"/><use xlink:href="#cce1c93eG" x="320.0063" y="266"/><use xlink:href="#cce1c93el" x="326.6733" y="266"/><use xlink:href="#cce1c93en" x="333.3403" y="266"/><use xlink:href="#cce1c93ep" x="340.0073" y="266"/><use xlink:href="#cce1c93eH" x="346.6743" y="266"/><use xlink:href="#cce1c93ew" x="353.3413" y="266"/><use xlink:href="#cce1c93eD" x="360.0083" y="266"/><use xlink:href="#cce1c93eI" x="366.6753" y="266"/><use xlink:href="#cce1c93eA" x="373.3423" y="266"/><use xlink:href="#cce1c93ew" x="380.0093" y="266"/><use xlink:href="#cce1c93eI" x="386.6763" y="266"/><use xlink:href="#cce1c93el" x="393.3433" y="266"/><use xlink:href="#cce1c93eJ" x="400.0103" y="266"/></g></svg>