<?xml version='1.0' encoding='UTF-8'?>
<svg xmlns="http://www.w3.org/2000/svg" xmlns:xlink="http://www.w3.org/1999/xlink" width="600px" height="300px" viewBox="0 0 600 300" x="0px" y="0px" enable-background="new 0 0 600 300"><defs><symbol overflow="visible" id="187f373aa"><path d="M3.13-7.08L1.85-1.86a19.45 19.45 0 009 2.45c4.44 0 7.62-2.75 7.62-6.78 0-2.81-1.39-4.8-6.18-7.43-4.32-2.33-5.28-3.36-5.28-4.8 0-.66.3-1.56.6-2.03.96-.36 2.1-.61 3.3-.61 1.63 0 2.88.42 4.02 1.14l.6 2.51h1.8l1.2-4.8c-1.8-.88-4.02-1.5-6.73-1.5-4.97 0-8.26 3.5-8.26 6.85 0 2.58 1.14 4.38 5.45 6.66 4.69 2.47 5.7 3.72 5.7 5.34 0 1.67-1.07 2.81-3.72 2.81-2.04 0-3.9-.53-5.46-1.8l-.6-3.23zm0 0"/></symbol><symbol overflow="visible" id="187f373ab"><path d="M9.78-29.64l-4.5.78v5.88H.78L.3-21.3l4.98 1.2v14.52c0 4.8 2.22 6 5.16 6 2.15 0 4.2-.54 6.54-2.04l-.71-2.1c-1.4.6-2.54.9-3.72.9-2.11 0-2.77-.77-2.77-4.45v-12.82h5.81l.79-2.9h-6.6zm0 0"/></symbol><symbol overflow="visible" id="187f373ac"><path d="M2.94-1.8L2.52 0H13.5l.36-1.8-3.84-.84v-15.17l8.76-1.99c-.3-2.51-1.26-3.72-2.47-3.72-1.6 0-4.12 1.32-6.6 4.08l-1.07-4.08-6.72 1.02-.42 1.73 4.02.91v15.48c0 1.61-.72 2.22-2.58 2.58zm0 0"/></symbol><symbol overflow="visible" id="187f373ad"><path d="M2.58-20.64l2.47 3.42c2.51-2.22 4.8-3.66 6.53-4.2 2.04.84 3.3 2.87 3.3 6.65v.91C9-13.08 5.45-11.8 3.65-10.38A5.63 5.63 0 001.8-6.12c0 4.26 3.06 6.6 6.54 6.6 2.52 0 4.97-1.2 6.85-3.3.6 2.34 1.97 3.3 3.89 3.3 1.2 0 2.83-.9 3.6-1.92v-.78l-3.3-.9v-12.43c0-4.97-3.3-8.03-7.44-8.03-3.42 0-6.3.9-9.36 2.94zm12.3 9.42v2.45c0 1.63.06 3 .06 3.91a6.18 6.18 0 01-4.92 2.22c-2.52 0-3.72-1.5-3.72-4.08 0-1.33.25-2.47.65-3.3 1.4-.67 4.82-1.2 7.92-1.2zm0 0"/></symbol><symbol overflow="visible" id="187f373ae"><path d="M3.13-1.8L2.63 0h7.56v-22.69c0-4.43.24-6.1.72-7.37a7.52 7.52 0 014.31-1.32c3 0 5.29 1.97 5.29 4.86 0 1.32-.24 2.4-.83 3.83-2.7 1.33-4.14 3.25-4.14 5.7 0 2.47 1.43 4.4 5.39 6.61 4.62 2.58 5.76 3.9 5.76 5.65 0 1.6-1.32 2.75-3.97 2.75a7.6 7.6 0 01-4.96-1.8l-.32-3.36h-2.22l-1.3 5.4C16.55-.18 19.3.67 22.5.67c4.2 0 7.98-2.4 7.98-6.9 0-2.63-1.2-4.45-6-7.32-4.2-2.52-5.1-3.49-5.1-4.8 0-1.56 1.56-2.64 4.07-3.12a10.06 10.06 0 001.57-5.22c0-4.32-3.43-7.32-8.82-7.32-6.65 0-10.43 4.44-10.5 11.04H1.2L.72-21.3l4.98 1.2v15.73c0 1.6-.72 2.21-2.58 2.57zm0 0"/></symbol><symbol overflow="visible" id="187f373af"><path d="M19.73-1.08l-.53-1.86c-1.2.36-2.47.6-3.97.6-5.45 0-8.15-2.75-8.32-9.07h13.18a15.03 15.03 0 001.04-4.86c0-4.8-2.94-7.43-7.82-7.43-6.76 0-11.22 5.76-11.22 13.5C2.1-3.3 6.3.6 12.55.6c2.75 0 5.32-.66 7.18-1.68zm-3.36-12.97l-9.46.74c.1-2.4 1.18-5.64 2.03-7.03 1.2-.6 2.4-.9 3.65-.9 2.22 0 4.04 1.55 4.04 4.68 0 .97-.13 1.98-.25 2.51zm0 0"/></symbol><symbol overflow="visible" id="187f373ag"><path d="M4.38-8.77L2.7-2.57C5.77-.85 9.66.58 13.5.58c5.58 0 10.27-3.53 10.27-9.04 0-3.68-1.63-6.2-8.41-9.97-6-3.36-7.02-4.56-7.02-6.53 0-2.24 2.46-4.2 5.64-4.2 2.16 0 3.96.42 5.22 1.24l.53 3.32h1.86l1.46-5.29a17.3 17.3 0 00-8.28-2.21c-6.13 0-10.27 4.5-10.27 8.8 0 3.24 1.63 5.77 7.56 8.95 6.36 3.42 7.92 5.21 7.92 7.5 0 2.57-2.28 4.5-5.89 4.5-2.93 0-5.28-1.02-7.07-2.64l-.43-3.79zm0 0"/></symbol><symbol overflow="visible" id="187f373ah"><path d="M8.81-1.8L8.34 0h12.54l.42-1.8-4.2-.84v-26.64l7.68.9.6 3.96h1.98l1.44-7.2H.6l1.45 7.2h1.97l.6-3.95 7.68-.91v24.06c0 2.22-.66 3.06-3.49 3.42zm0 0"/></symbol><symbol overflow="visible" id="187f373ai"><path d="M3.36-1.8L2.88 0H14.8l.42-1.8-4.18-.84v-10.67h5.26l5.28 8.33C24.55-.3 25.86.3 28.02.3c1.2 0 2.46-.36 3.36-.9l.3-1.5c-2.34-.24-3.37-1.02-5.4-4.13l-5.34-8.22c3.97-1.63 6.12-4.86 6.12-8.28 0-5.41-4.14-8.9-12.06-8.9H2.34l-.36 1.75 4.25.9v23.82c0 2.04-.53 2.88-2.87 3.36zm7.69-13.86v-13.56h1.97c5.46 0 8.89 2.1 8.89 6.72 0 4.73-2.64 6.84-6.91 6.84zm0 0"/></symbol><symbol overflow="visible" id="187f373aj"><path d="M.66-1.8L.3 0h9.6l.3-1.8-2.82-.84 2.46-7.02h11.82l2.46 7.02-2.57.84-.32 1.8h11.41l.23-1.8-3.65-.84-10.74-29.77-3.96.91L5.7-6.42C4.62-3.42 3.9-2.64.66-1.8zM20.7-12.3H10.63l5.03-14.47h.06zm0 0"/></symbol><symbol overflow="visible" id="187f373ak"><path d="M11.05 0v-28.98l12.3.54-7.76 11.75v.61c9.91 3.17 12.2 5.4 12.2 9.13 0 2.8-1.93 4.6-5.16 4.6-1.99 0-3.55-.3-4.7-.84l-.41-3.76H15.3L13.62-.78C15.6 0 19.02.59 22.02.59c5.4 0 9.54-3.4 9.54-8.51 0-4.56-3.06-7.99-10.92-10.74l7.31-11.21v-1.75H2.35l-.37 1.75 4.25.89v23.76c0 2.1-.53 2.94-2.87 3.42L2.88 0zm0 0"/></symbol><symbol overflow="visible" id="187f373al"><path d="M3.36-1.8L2.88 0h21.48l1.14-7.08h-1.92l-1.92 3.66-10.61.78V-15.3h9.53l.65-2.64H11.05v-11.04l9.89.6.54 3.36h1.86l1.68-6.6H2.34l-.36 1.75 4.25.89v23.7c0 2.16-.53 3-2.87 3.48zm0 0"/></symbol><symbol overflow="visible" id="187f373am"><path d="M3.83 0v-5.95H6.2v-.82H.45v.82h2.4V0zm0 0"/></symbol><symbol overflow="visible" id="187f373an"><path d="M5.75-2.23v-.43c0-1.6-.9-2.51-2.42-2.51S.87-4.16.87-2.48c0 1.71.91 2.62 2.5 2.62 1.43 0 2.07-.56 2.29-1.52l-.9-.09c-.18.61-.59.9-1.35.9-.94 0-1.52-.54-1.58-1.66zm-2.4-2.2c.93 0 1.43.5 1.48 1.55H1.84c.08-1.07.6-1.56 1.5-1.56zm0 0"/></symbol><symbol overflow="visible" id="187f373ao"><path d="M1.83 0l1.42-2h.06l1.46 2H5.8L4-2.53l1.78-2.49H4.8L3.42-3.08h-.08l-1.4-1.94H.89l1.78 2.49L.84 0zm0 0"/></symbol><symbol overflow="visible" id="187f373ap"><path d="M5.52-4.25v-.77H3.17v-1.56h-.81l-.14 1.56H.75v.77h1.47v2.4c0 1.3.48 1.94 1.84 1.94C4.6.1 5.14 0 5.55-.14L5.4-.91c-.32.13-.72.2-1.13.2-.8 0-1.1-.37-1.1-1.23v-2.31zm0 0"/></symbol><symbol overflow="visible" id="187f373aq"><path d="M3.33-3.42c.47 0 .8-.27.8-.8 0-.51-.33-.8-.8-.8-.47 0-.8.29-.8.8 0 .53.33.8.8.8zm0 3.5c.47 0 .8-.27.8-.78 0-.53-.33-.82-.8-.82-.47 0-.8.29-.8.82 0 .51.33.78.8.78zm0 0"/></symbol><symbol overflow="visible" id="187f373as"><path d="M3.36.16c1.4 0 2.2-.6 2.2-1.57 0-.89-.54-1.22-1.47-1.39L3-3c-.67-.14-.86-.33-.86-.73 0-.5.4-.74 1.17-.74.83 0 1.19.27 1.27.8l.9-.05c-.12-1-.8-1.47-2.17-1.47-1.34 0-2.1.53-2.1 1.5 0 .81.45 1.22 1.52 1.44l1.04.2c.56.11.87.24.87.72 0 .52-.45.78-1.28.78-.95 0-1.36-.28-1.42-.87l-.9.06C1.07-.36 1.8.16 3.35.16zm0 0"/></symbol><symbol overflow="visible" id="187f373at"><path d="M5.08-5.16c-.94 0-1.58.43-1.9 1.3h-.09l-.07-1.16H1.05v.77h1.1v3.48H.96V0h3.96v-.77H3.1v-1.46c0-1.36.6-2.05 1.83-2.05.4 0 .76.08 1.1.17l.15-.87c-.33-.11-.7-.18-1.11-.18zm0 0"/></symbol><symbol overflow="visible" id="187f373au"><path d="M2.83.14c.94 0 1.5-.39 1.81-.95h.08l.1.81h.76v-3.38c0-1.23-.69-1.8-2.13-1.8-1.43 0-2.03.65-2.18 1.6l.93.1c.11-.6.44-.93 1.22-.93.85 0 1.22.32 1.22 1.04v.34l-1.81.2C1.6-2.7 1.1-2.17 1.1-1.28c0 .92.64 1.42 1.72 1.42zm.25-.77c-.67 0-1.02-.28-1.02-.74 0-.44.28-.72 1-.82l1.58-.19v.41c0 .8-.6 1.34-1.56 1.34zm0 0"/></symbol><symbol overflow="visible" id="187f373av"><path d="M3.77.14c1.3 0 2.14-.6 2.14-2 0-1.33-.97-1.86-1.8-1.89v-.05c.64-.12 1.3-.62 1.3-1.67 0-1.1-.83-1.81-2.13-1.81-1.5 0-2.26.83-2.26 2.53V0h.95v-4.8c0-1.23.37-1.73 1.31-1.73.77 0 1.24.44 1.24 1.14 0 .87-.58 1.31-1.38 1.31h-.17v.75h.22c1.06 0 1.8.36 1.8 1.4 0 1-.54 1.32-1.41 1.32a3.6 3.6 0 01-.86-.1l-.1.7c.38.09.74.15 1.15.15zm0 0"/></symbol><symbol overflow="visible" id="187f373aw"><path d="M3.42.14c1.61 0 2.56-.75 2.56-2 0-1.1-.67-1.6-1.95-1.86l-.97-.2c-.87-.17-1.23-.49-1.23-1.11 0-.7.54-1.11 1.5-1.11 1.06 0 1.51.34 1.69 1.23l.9-.09c-.17-1.28-.98-1.9-2.6-1.9C1.79-6.9.9-6.18.9-4.98c0 1.06.66 1.66 1.88 1.9l1.01.2c.85.17 1.25.4 1.25 1.09 0 .73-.6 1.16-1.6 1.16-1.07 0-1.66-.4-1.8-1.24l-.94.1C.83-.53 1.75.13 3.42.13zm0 0"/></symbol><symbol overflow="visible" id="187f373ax"><path d="M4.06-2.77c1.25-.04 1.92-.7 1.92-1.96 0-1.36-.7-2.04-2.17-2.04H.92V0h.97v-2.73h1.08L4.95 0h1.1zM1.9-6h1.7c1.07 0 1.46.34 1.46 1.28 0 .9-.44 1.27-1.47 1.27H1.89zm0 0"/></symbol><symbol overflow="visible" id="187f373ay"><path d="M6.17 0L3.98-6.77h-1.3L.5 0h.97l.44-1.47h2.78L5.16 0zM3.28-5.94h.08l1.1 3.74H2.15zm0 0"/></symbol><symbol overflow="visible" id="187f373az"><path d="M3.9.14c1.41 0 2.16-.67 2.16-1.95 0-1.27-.84-1.77-2.06-1.85l1.69-2.2v-.58c-.7-.31-1.6-.47-2.32-.47C1.78-6.9.9-6.17.9-4.2V0h.92v-4.22c0-1.4.5-1.9 1.53-1.9.43 0 .96.06 1.36.23v.03l-1.62 2.2v.57c1.44 0 2.06.34 2.06 1.26 0 .86-.56 1.2-1.39 1.2-.38 0-.81-.06-1.1-.14l-.1.74c.36.1.9.17 1.36.17zm0 0"/></symbol><symbol overflow="visible" id="187f373aA"><path d="M5.92-6.77H1.1V0h4.83v-.8H2.06v-2.26h3.22v-.75H2.06v-2.16h3.86zm0 0"/></symbol><symbol overflow="visible" id="187f373aB"><path d="M5.95-6.77H1.1V0h.99v-2.92H5.3v-.77H2.08v-2.26h3.87zm0 0"/></symbol><symbol overflow="visible" id="187f373aC"><path d="M2.73.14c.9 0 1.43-.45 1.74-1.08h.06l.13.94h.8v-5.02h-.94v2.7c0 .98-.57 1.62-1.46 1.62-.75 0-1.1-.4-1.1-1.22v-3.1h-.93v3.32c0 1.17.55 1.84 1.7 1.84zm0 0"/></symbol><symbol overflow="visible" id="187f373aD"><path d="M3.92-7.14H1.36v.76h1.6v5.61H1.15V0H5.7v-.77H3.92zm0 0"/></symbol><symbol overflow="visible" id="187f373aE"><path d="M2.16 0v-2.67c0-.99.59-1.63 1.46-1.63.74 0 1.07.38 1.07 1.22V0h.95v-3.31c0-1.2-.56-1.85-1.67-1.85-.92 0-1.49.46-1.77 1.08h-.06l-.12-.94H1.2V0zm0 0"/></symbol><symbol overflow="visible" id="187f373aF"><path d="M3.58-5.81c.42 0 .72-.22.72-.67 0-.44-.3-.68-.72-.68-.44 0-.72.24-.72.68 0 .45.28.67.72.67zm.5.8H1.52v.76h1.6v3.48h-1.8V0h4.46v-.77h-1.7zm0 0"/></symbol><symbol overflow="visible" id="187f373aG"><path d="M3.9 0l2-5.02h-.96L3.4-.94h-.07L1.8-5.02H.77L2.78 0zm0 0"/></symbol><symbol overflow="visible" id="187f373aH"><path d="M4.63-6.5c.45 0 .98.08 1.39.2l.2-.72a5.3 5.3 0 00-1.64-.26c-1.52 0-2.16.56-2.16 1.87v.4H.9v.76h1.53V0h.94v-4.25h2.53v-.77H3.36v-.3c0-.84.33-1.18 1.27-1.18zm0 0"/></symbol><symbol overflow="visible" id="187f373aI"><path d="M3.33.14c1.62 0 2.5-.95 2.5-2.66 0-1.68-.88-2.64-2.5-2.64-1.63 0-2.5.96-2.5 2.64 0 1.7.87 2.66 2.5 2.66zm0-.77c-1.06 0-1.52-.6-1.52-1.89 0-1.28.46-1.87 1.52-1.87 1.08 0 1.53.6 1.53 1.87 0 1.29-.45 1.9-1.53 1.9zm0 0"/></symbol><symbol overflow="visible" id="187f373aJ"><path d="M1.63 0v-2.9c0-.8.15-1.4.71-1.4.41 0 .55.3.55.88V0h.95v-2.9c0-.8.18-1.4.72-1.4.4 0 .57.3.57.88V0h.95v-3.63c0-.92-.28-1.53-1.11-1.53-.63 0-.95.41-1.1.9h-.06c-.1-.52-.44-.9-1.08-.9-.6 0-.93.41-1.06.9H1.6l-.23-.76H.67V0zm0 0"/></symbol><symbol overflow="visible" id="187f373aK"><path d="M3.55-2.73h1.67C5.09-1.45 4.58-.64 3.36-.64c-1.25 0-1.78-1.03-1.78-2.73 0-1.77.53-2.72 1.81-2.72.9 0 1.47.45 1.69 1.43l.95-.09C5.8-6 5.11-6.91 3.41-6.91 1.44-6.9.58-5.59.58-3.37.58-1.2 1.4.13 3.14.13c1.3 0 1.78-.73 2-1.36h.1L5.33 0h.75v-3.42H3.55zm0 0"/></symbol><symbol overflow="visible" id="187f373aL"><path d="M5.55 0v-.75H2.3v-.06l3.2-3.49v-.72H1.2v.75H4.3v.07L1.11-.72V0zm0 0"/></symbol><symbol overflow="visible" id="187f373aM"><path d="M1.45-2.95c0 2.56 1.08 4.37 3.67 4.84l.11-.67C3.28.86 2.43-.75 2.43-2.95s.85-3.82 2.8-4.16l-.1-.69c-2.6.49-3.68 2.3-3.68 4.85zm0 0"/></symbol><symbol overflow="visible" id="187f373aN"><path d="M2.44 0l.87-3.31h.06L4.25 0H5.3l1.03-5.02h-.88l-.73 3.94h-.08L3.77-4.4h-.85l-.87 3.33h-.08l-.75-3.94H.34L1.36 0zm0 0"/></symbol><symbol overflow="visible" id="187f373aO"><path d="M3.34.14c1.43 0 2.13-.66 2.25-1.78l-.89-.1c-.1.7-.5 1.08-1.34 1.08-1.03 0-1.52-.64-1.52-1.84 0-1.23.47-1.86 1.52-1.86.84 0 1.23.36 1.34 1.08l.9-.1c-.13-1.09-.82-1.78-2.26-1.78-1.56 0-2.46.97-2.46 2.66 0 1.66.9 2.64 2.46 2.64zm0 0"/></symbol><symbol overflow="visible" id="187f373aP"><path d="M1.45-7.1c1.96.33 2.8 1.94 2.8 4.15 0 2.2-.84 3.8-2.8 4.17l.11.67c2.58-.47 3.67-2.28 3.67-4.84 0-2.55-1.09-4.36-3.67-4.85zm0 0"/></symbol><symbol overflow="visible" id="187f373aQ"><path d="M2.16 0v-2.69c0-.98.6-1.6 1.46-1.6.74 0 1.07.4 1.07 1.2V0h.95v-3.31c0-1.17-.56-1.85-1.67-1.85-.9 0-1.44.46-1.75 1.08h-.06v-3.06H1.2V0zm0 0"/></symbol><symbol overflow="visible" id="187f373aR"><path d="M2.06 1.9V-.84h.05c.28.58.8.97 1.77.97 1.5 0 2.2-.98 2.2-2.66 0-1.65-.7-2.64-2.19-2.64-.97 0-1.5.44-1.78 1.05h-.08l-.1-.9H1.1v6.9zm1.5-2.56c-1.06 0-1.53-.8-1.53-1.86 0-1.04.47-1.84 1.53-1.84 1.11 0 1.53.61 1.53 1.84 0 1.27-.42 1.86-1.53 1.86zm0 0"/></symbol><symbol overflow="visible" id="187f373aS"><path d="M4.22-6.77h-.86l-2.03.7v.87c.64-.17 1.26-.38 1.89-.55v4.9H1.03V0h4.9v-.86H4.21zm0 0"/></symbol><symbol overflow="visible" id="187f373aT"><path d="M3.33.14c1.65 0 2.6-1.1 2.6-3.52S4.99-6.9 3.34-6.9C1.67-6.9.72-5.8.72-3.37c0 2.4.95 3.51 2.6 3.51zm0-.84c-1.13 0-1.6-.85-1.6-2.67 0-1.86.47-2.7 1.6-2.7 1.12 0 1.6.84 1.6 2.7 0 1.82-.48 2.67-1.6 2.67zM3.3-2.64c.38 0 .56-.28.56-.72 0-.44-.18-.7-.56-.7-.39 0-.56.26-.56.7 0 .44.17.72.56.72zm0 0"/></symbol></defs><g fill="#515151"><use xlink:href="#187f373aa" x="232.29" y="111"/><use xlink:href="#187f373ab" x="252.81" y="111"/><use xlink:href="#187f373ac" x="270.33" y="111"/><use xlink:href="#187f373ad" x="289.59" y="111"/><use xlink:href="#187f373ae" x="313.17" y="111"/><use xlink:href="#187f373af" x="344.85" y="111"/></g><use xlink:href="#187f373ag" x="209.1" y="171" fill="#515151"/><g fill="#515151"><use xlink:href="#187f373ah" x="234.66" y="171"/><use xlink:href="#187f373ai" x="264.06" y="171"/><use xlink:href="#187f373aj" x="296.76" y="171"/></g><use xlink:href="#187f373ak" x="329.94" y="171" fill="#fff"/><use xlink:href="#187f373al" x="363.3" y="171" fill="#515151"/><g fill="#fff"><use xlink:href="#187f373am" x="236.6667" y="252"/><use xlink:href="#187f373an" x="243.3337" y="252"/><use xlink:href="#187f373ao" x="250.0007" y="252"/><use xlink:href="#187f373ap" x="256.6677" y="252"/><use xlink:href="#187f373aq" x="263.3347" y="252"/><use xlink:href="#187f373ar" x="270.0017" y="252"/><use xlink:href="#187f373as" x="276.6687" y="252"/><use xlink:href="#187f373ap" x="283.3357" y="252"/><use xlink:href="#187f373at" x="290.0027" y="252"/><use xlink:href="#187f373au" x="296.6697" y="252"/><use xlink:href="#187f373av" x="303.3367" y="252"/><use xlink:href="#187f373an" x="310.0037" y="252"/><use xlink:href="#187f373ar" x="316.6707" y="252"/><use xlink:href="#187f373aw" x="323.3377" y="252"/><use xlink:href="#187f373am" x="330.0047" y="252"/><use xlink:href="#187f373ax" x="336.6717" y="252"/><use xlink:href="#187f373ay" x="343.3387" y="252"/><use xlink:href="#187f373az" x="350.0057" y="252"/><use xlink:href="#187f373aA" x="356.6727" y="252"/><use xlink:href="#187f373ar" x="363.3397" y="252"/></g><g fill="#fff"><use xlink:href="#187f373aB" x="43.33333" y="266"/><use xlink:href="#187f373an" x="50.00033" y="266"/><use xlink:href="#187f373au" x="56.66733" y="266"/><use xlink:href="#187f373ap" x="63.33433" y="266"/><use xlink:href="#187f373aC" x="70.00133" y="266"/><use xlink:href="#187f373at" x="76.66833" y="266"/><use xlink:href="#187f373an" x="83.33533" y="266"/><use xlink:href="#187f373aq" x="90.00233" y="266"/><use xlink:href="#187f373ar" x="96.66933" y="266"/><use xlink:href="#187f373ay" x="103.33633" y="266"/><use xlink:href="#187f373aD" x="110.00333" y="266"/><use xlink:href="#187f373ap" x="116.67033" y="266"/><use xlink:href="#187f373an" x="123.33733" y="266"/><use xlink:href="#187f373at" x="130.00433" y="266"/><use xlink:href="#187f373aE" x="136.67133" y="266"/><use xlink:href="#187f373au" x="143.33833" y="266"/><use xlink:href="#187f373ap" x="150.00533" y="266"/><use xlink:href="#187f373aF" x="156.67233" y="266"/><use xlink:href="#187f373aG" x="163.33933" y="266"/><use xlink:href="#187f373an" x="170.00633" y="266"/><use xlink:href="#187f373ar" x="176.67333" y="266"/><use xlink:href="#187f373aH" x="183.34033" y="266"/><use xlink:href="#187f373aI" x="190.00733" y="266"/><use xlink:href="#187f373at" x="196.67433" y="266"/><use xlink:href="#187f373aJ" x="203.34133" y="266"/><use xlink:href="#187f373ar" x="210.00833" y="266"/><use xlink:href="#187f373aI" x="216.67533" y="266"/><use xlink:href="#187f373aH" x="223.34233" y="266"/><use xlink:href="#187f373ar" x="230.00933" y="266"/><use xlink:href="#187f373aK" x="236.67633" y="266"/><use xlink:href="#187f373an" x="243.34333" y="266"/><use xlink:href="#187f373at" x="250.01033" y="266"/><use xlink:href="#187f373aJ" x="256.67733" y="266"/><use xlink:href="#187f373au" x="263.34433" y="266"/><use xlink:href="#187f373aE" x="270.01133" y="266"/><use xlink:href="#187f373ar" x="276.67833" y="266"/><use xlink:href="#187f373an" x="283.34533" y="266"/><use xlink:href="#187f373as" x="290.01233" y="266"/><use xlink:href="#187f373aL" x="296.67933" y="266"/><use xlink:href="#187f373an" x="303.34633" y="266"/><use xlink:href="#187f373ap" x="310.01333" y="266"/><use xlink:href="#187f373ap" x="316.68033" y="266"/><use xlink:href="#187f373ar" x="323.34733" y="266"/><use xlink:href="#187f373aM" x="330.01433" y="266"/><use xlink:href="#187f373aD" x="336.68133" y="266"/><use xlink:href="#187f373aI" x="343.34833" y="266"/><use xlink:href="#187f373aN" x="350.01533" y="266"/><use xlink:href="#187f373an" x="356.68233" y="266"/><use xlink:href="#187f373at" x="363.34933" y="266"/><use xlink:href="#187f373aO" x="370.01633" y="266"/><use xlink:href="#187f373au" x="376.68333" y="266"/><use xlink:href="#187f373as" x="383.35033" y="266"/><use xlink:href="#187f373an" x="390.01733" y="266"/><use xlink:href="#187f373aP" x="396.68433" y="266"/><use xlink:href="#187f373ar" x="403.35133" y="266"/><use xlink:href="#187f373aN" x="410.01833" y="266"/><use xlink:href="#187f373aF" x="416.68533" y="266"/><use xlink:href="#187f373ap" x="423.35233" y="266"/><use xlink:href="#187f373aQ" x="430.01933" y="266"/><use xlink:href="#187f373aF" x="436.68633" y="266"/><use xlink:href="#187f373aE" x="443.35333" y="266"/><use xlink:href="#187f373ar" x="450.02033" y="266"/><use xlink:href="#187f373aO" x="456.68733" y="266"/><use xlink:href="#187f373au" x="463.35433" y="266"/><use xlink:href="#187f373aR" x="470.02133" y="266"/><use xlink:href="#187f373aF" x="476.68833" y="266"/><use xlink:href="#187f373ap" x="483.35533" y="266"/><use xlink:href="#187f373au" x="490.02233" y="266"/><use xlink:href="#187f373aD" x="496.68933" y="266"/><use xlink:href="#187f373as" x="503.35633" y="266"/><use xlink:href="#187f373ar" x="510.02333" y="266"/><use xlink:href="#187f373aM" x="516.69033" y="266"/><use xlink:href="#187f373as" x="523.35733" y="266"/><use xlink:href="#187f373as" x="530.02433" y="266"/><use xlink:href="#187f373aS" x="536.69133" y="266"/><use xlink:href="#187f373aT" x="543.35833" y="266"/><use xlink:href="#187f373aP" x="550.02533" y="266"/></g></svg>