<?xml version='1.0' encoding='UTF-8'?>
<svg xmlns="http://www.w3.org/2000/svg" xmlns:xlink="http://www.w3.org/1999/xlink" width="600px" height="300px" viewBox="0 0 600 300" x="0px" y="0px" enable-background="new 0 0 600 300"><defs><symbol overflow="visible" id="1108fd69a"><path d="M8.81-1.8L8.34 0h12.54l.42-1.8-4.2-.84v-26.64l7.68.9.6 3.96h1.98l1.44-7.2H.6l1.45 7.2h1.97l.6-3.95 7.68-.91v24.06c0 2.22-.66 3.06-3.49 3.42zm0 0"/></symbol><symbol overflow="visible" id="1108fd69b"><path d="M12.72.6c6.72 0 11.47-5.94 11.47-13.38 0-6.42-3.85-10.92-10.75-10.92-7.5 0-11.35 6.48-11.35 13.5C2.1-3.66 5.81.6 12.72.6zm.9-2.65c-3.67 0-6.71-3.3-6.71-9.47 0-6.6 1.9-9.54 5.68-9.54 3.61 0 6.79 3.48 6.79 9.54 0 7.25-2.22 9.47-5.75 9.47zm0 0"/></symbol><symbol overflow="visible" id="1108fd69c"><path d="M9.78-29.64l-4.5.78v5.88H.78L.3-21.3l4.98 1.2v14.52c0 4.8 2.22 6 5.16 6 2.15 0 4.2-.54 6.54-2.04l-.71-2.1c-1.4.6-2.54.9-3.72.9-2.11 0-2.77-.77-2.77-4.45v-12.82h5.81l.79-2.9h-6.6zm0 0"/></symbol><symbol overflow="visible" id="1108fd69d"><path d="M2.58-20.64l2.47 3.42c2.51-2.22 4.8-3.66 6.53-4.2 2.04.84 3.3 2.87 3.3 6.65v.91C9-13.08 5.45-11.8 3.65-10.38A5.63 5.63 0 001.8-6.12c0 4.26 3.06 6.6 6.54 6.6 2.52 0 4.97-1.2 6.85-3.3.6 2.34 1.97 3.3 3.89 3.3 1.2 0 2.83-.9 3.6-1.92v-.78l-3.3-.9v-12.43c0-4.97-3.3-8.03-7.44-8.03-3.42 0-6.3.9-9.36 2.94zm12.3 9.42v2.45c0 1.63.06 3 .06 3.91a6.18 6.18 0 01-4.92 2.22c-2.52 0-3.72-1.5-3.72-4.08 0-1.33.25-2.47.65-3.3 1.4-.67 4.82-1.2 7.92-1.2zm0 0"/></symbol><symbol overflow="visible" id="1108fd69e"><path d="M2.34-1.8L1.86 0H12.9l.36-1.8-3.91-.84v-31.38l-8.1.96-.35 1.8 3.95.84v26.05c0 1.6-.72 2.21-2.52 2.57zm0 0"/></symbol><symbol overflow="visible" id="1108fd69f"><path d="M5.05-19.69c0 2.11 1.01 3.25 3.3 3.25 2.15 0 3.23-1.2 3.23-3.25 0-2.1-1.2-3.3-3.24-3.3-2.1 0-3.3 1.08-3.3 3.3zm0 16.75C5.05-.84 6.06.3 8.35.3c2.15 0 3.23-1.2 3.23-3.24 0-2.1-1.2-3.3-3.24-3.3-2.1 0-3.3 1.08-3.3 3.3zm0 0"/></symbol><symbol overflow="visible" id="1108fd69h"><path d="M10.2-15.9v.06C5.7-13.98 3.2-10.86 3.2-7.31c0 4.37 4.08 7.9 10.5 7.9 6.23 0 10.73-3.71 10.73-8.64 0-3.72-2.15-6.47-7.14-8.87v-.06c4.08-1.86 6.06-4.38 6.06-7.61 0-4.2-3.42-7.82-9.36-7.82-6 0-9.71 4.46-9.71 8.41 0 3.36 1.92 6.06 5.93 8.1zm5.28-1.97c-5.64-2.47-7.32-4.27-7.32-7.08 0-2.7 2.53-4.82 5.76-4.82 2.7 0 5.16 1.93 5.16 5.47 0 2.58-.95 4.61-3.6 6.43zm-3.71 2.93c7.18 3.06 8.8 5.1 8.8 8.1 0 2.57-2.45 4.8-6.41 4.8-4.44 0-6.72-2.65-6.72-6.05 0-2.96 1.5-5.18 4.33-6.85zm0 0"/></symbol><symbol overflow="visible" id="1108fd69i"><path d="M4.8-34.02V2.94h3.25v-36.96zm0 0"/></symbol><symbol overflow="visible" id="1108fd69j"><path d="M5.1-31.63v15.61h.06c1.32-.36 3.48-.71 5.46-.71 5.16 0 8.58 2.39 8.58 7.14 0 4.18-2.7 7.18-8.28 7.18-2.87 0-5.4-.71-7.69-1.9h-.1L1.73-2.1C4.2-.42 8.16.59 11.64.59 19.44.6 24-4.2 24-9.9c0-6.1-4.92-9.71-10.92-9.71-1.63 0-3.96.35-5.35.78H7.7v-8.88h14.39v-3.9zm0 0"/></symbol><symbol overflow="visible" id="1108fd69k"><path d="M6.13-1.8L5.58 0h19.44l.48-1.8-7.8-1.14v-28.62l-1.32-.85-13.02 6.72 1.2 2.28 8.64-4.25V-5.4c0 2.35-1.2 3-7.07 3.61zm0 0"/></symbol><symbol overflow="visible" id="1108fd69l"><path d="M21.84-27.55l1.5-2.22a11.6 11.6 0 00-6.96-2.32c-7.61 0-13.02 5.93-13.02 16.5C3.36-4.44 7.2.59 14.22.59 20.45.6 24.9-4.44 24.9-10.69c0-5.94-3.68-9.4-8.64-9.47-3-.06-6.36 1.61-8.18 3.3.25-8.22 3.36-12.23 8.64-12.23 2.18 0 3.97.78 4.99 1.54zM8.1-15.12c1.63-1.02 4.33-2.04 6.36-2.04 3.85 0 5.96 2.4 5.96 7.08 0 4.8-2.41 8.03-5.83 8.03-4.08 0-6.49-3.04-6.49-13.07zm0 0"/></symbol><symbol overflow="visible" id="1108fd69m"><path d="M3.83 0v-5.95H6.2v-.82H.45v.82h2.4V0zm0 0"/></symbol><symbol overflow="visible" id="1108fd69n"><path d="M5.75-2.23v-.43c0-1.6-.9-2.51-2.42-2.51S.87-4.16.87-2.48c0 1.71.91 2.62 2.5 2.62 1.43 0 2.07-.56 2.29-1.52l-.9-.09c-.18.61-.59.9-1.35.9-.94 0-1.52-.54-1.58-1.66zm-2.4-2.2c.93 0 1.43.5 1.48 1.55H1.84c.08-1.07.6-1.56 1.5-1.56zm0 0"/></symbol><symbol overflow="visible" id="1108fd69o"><path d="M1.83 0l1.42-2h.06l1.46 2H5.8L4-2.53l1.78-2.49H4.8L3.42-3.08h-.08l-1.4-1.94H.89l1.78 2.49L.84 0zm0 0"/></symbol><symbol overflow="visible" id="1108fd69p"><path d="M5.52-4.25v-.77H3.17v-1.56h-.81l-.14 1.56H.75v.77h1.47v2.4c0 1.3.48 1.94 1.84 1.94C4.6.1 5.14 0 5.55-.14L5.4-.91c-.32.13-.72.2-1.13.2-.8 0-1.1-.37-1.1-1.23v-2.31zm0 0"/></symbol><symbol overflow="visible" id="1108fd69q"><path d="M3.33-3.42c.47 0 .8-.27.8-.8 0-.51-.33-.8-.8-.8-.47 0-.8.29-.8.8 0 .53.33.8.8.8zm0 3.5c.47 0 .8-.27.8-.78 0-.53-.33-.82-.8-.82-.47 0-.8.29-.8.82 0 .51.33.78.8.78zm0 0"/></symbol><symbol overflow="visible" id="1108fd69s"><path d="M3.33.14c1.62 0 2.5-.95 2.5-2.66 0-1.68-.88-2.64-2.5-2.64-1.63 0-2.5.96-2.5 2.64 0 1.7.87 2.66 2.5 2.66zm0-.77c-1.06 0-1.52-.6-1.52-1.89 0-1.28.46-1.87 1.52-1.87 1.08 0 1.53.6 1.53 1.87 0 1.29-.45 1.9-1.53 1.9zm0 0"/></symbol><symbol overflow="visible" id="1108fd69t"><path d="M2.83.14c.94 0 1.5-.39 1.81-.95h.08l.1.81h.76v-3.38c0-1.23-.69-1.8-2.13-1.8-1.43 0-2.03.65-2.18 1.6l.93.1c.11-.6.44-.93 1.22-.93.85 0 1.22.32 1.22 1.04v.34l-1.81.2C1.6-2.7 1.1-2.17 1.1-1.28c0 .92.64 1.42 1.72 1.42zm.25-.77c-.67 0-1.02-.28-1.02-.74 0-.44.28-.72 1-.82l1.58-.19v.41c0 .8-.6 1.34-1.56 1.34zm0 0"/></symbol><symbol overflow="visible" id="1108fd69u"><path d="M3.92-7.14H1.36v.76h1.6v5.61H1.15V0H5.7v-.77H3.92zm0 0"/></symbol><symbol overflow="visible" id="1108fd69v"><path d="M3.33.16c1.69 0 2.69-.74 2.69-1.94 0-1.05-.8-1.58-1.43-1.72v-.05c.5-.14 1.2-.58 1.2-1.56 0-1.12-.95-1.81-2.46-1.81-1.52 0-2.46.69-2.46 1.81 0 .97.68 1.4 1.18 1.56v.05c-.6.14-1.4.64-1.4 1.72 0 1.2 1 1.94 2.68 1.94zm0-4.04c-.97 0-1.49-.43-1.49-1.12 0-.78.52-1.1 1.49-1.1.95 0 1.48.32 1.48 1.1 0 .69-.53 1.13-1.48 1.13zm0 3.24c-1.1 0-1.7-.42-1.7-1.25 0-.78.6-1.2 1.7-1.2s1.7.42 1.7 1.2c0 .83-.6 1.25-1.7 1.25zm0 0"/></symbol><symbol overflow="visible" id="1108fd69w"><path d="M3.42.14c1.55 0 2.44-.84 2.44-2.33 0-1.45-.83-2.22-2.14-2.22-.75 0-1.28.27-1.67.72H2l.31-2.22h3.11v-.86H1.53l-.45 3.93h.81c.3-.36.9-.79 1.58-.79.92 0 1.44.43 1.44 1.47 0 .99-.54 1.5-1.49 1.5-.83 0-1.28-.32-1.5-1.01l-.95.1C1.07-.46 2 .13 3.42.13zm0 0"/></symbol><symbol overflow="visible" id="1108fd69x"><path d="M4.22-6.77h-.86l-2.03.7v.87c.64-.17 1.26-.38 1.89-.55v4.9H1.03V0h4.9v-.86H4.21zm0 0"/></symbol><symbol overflow="visible" id="1108fd69y"><path d="M3.42.14c1.58 0 2.49-.86 2.49-2.3 0-1.42-.86-2.17-2.22-2.17-1.03 0-1.58.5-1.9 1.02h-.04c.03-1.63.4-2.77 1.73-2.77.91 0 1.24.44 1.36.96l.97-.11c-.23-.96-.86-1.68-2.33-1.68C1.84-6.9.86-5.86.86-3.1.86-.9 1.78.14 3.42.14zm.02-.78c-.9 0-1.47-.55-1.47-1.47 0-.9.7-1.47 1.53-1.47.92 0 1.47.52 1.47 1.47 0 .97-.6 1.47-1.53 1.47zm0 0"/></symbol><symbol overflow="visible" id="1108fd69z"><path d="M5.95-6.77H1.1V0h.99v-2.92H5.3v-.77H2.08v-2.26h3.87zm0 0"/></symbol><symbol overflow="visible" id="1108fd69A"><path d="M2.73.14c.9 0 1.43-.45 1.74-1.08h.06l.13.94h.8v-5.02h-.94v2.7c0 .98-.57 1.62-1.46 1.62-.75 0-1.1-.4-1.1-1.22v-3.1h-.93v3.32c0 1.17.55 1.84 1.7 1.84zm0 0"/></symbol><symbol overflow="visible" id="1108fd69B"><path d="M5.08-5.16c-.94 0-1.58.43-1.9 1.3h-.09l-.07-1.16H1.05v.77h1.1v3.48H.96V0h3.96v-.77H3.1v-1.46c0-1.36.6-2.05 1.83-2.05.4 0 .76.08 1.1.17l.15-.87c-.33-.11-.7-.18-1.11-.18zm0 0"/></symbol><symbol overflow="visible" id="1108fd69C"><path d="M3.9.14c1.48 0 2.18-.98 2.18-2.64 0-1.67-.7-2.66-2.17-2.66-.91 0-1.49.41-1.79 1h-.06v-2.98h-.95V0h.81l.11-.9h.06c.29.63.82 1.04 1.82 1.04zm-.32-.8c-1.08 0-1.55-.8-1.55-1.84 0-1.06.47-1.86 1.55-1.86 1.1 0 1.51.61 1.51 1.86S4.64-.66 3.58-.66zm0 0"/></symbol><symbol overflow="visible" id="1108fd69D"><path d="M3.58-5.81c.42 0 .72-.22.72-.67 0-.44-.3-.68-.72-.68-.44 0-.72.24-.72.68 0 .45.28.67.72.67zm.5.8H1.52v.76h1.6v3.48h-1.8V0h4.46v-.77h-1.7zm0 0"/></symbol><symbol overflow="visible" id="1108fd69E"><path d="M2.16 0v-2.67c0-.99.59-1.63 1.46-1.63.74 0 1.07.38 1.07 1.22V0h.95v-3.31c0-1.2-.56-1.85-1.67-1.85-.92 0-1.49.46-1.77 1.08h-.06l-.12-.94H1.2V0zm0 0"/></symbol><symbol overflow="visible" id="1108fd69F"><path d="M3.16 2.03c1.67 0 2.4-.86 2.4-2.51v-4.54h-.81l-.13.91h-.06c-.26-.58-.8-1.05-1.73-1.05-1.42 0-2.24 1-2.24 2.52 0 1.6.75 2.56 2.2 2.56.94 0 1.5-.5 1.77-1.03h.05v.72c0 1.17-.42 1.67-1.45 1.67-.93 0-1.3-.34-1.41-.89L.8.5c.12.96.87 1.54 2.36 1.54zM3.06-.8c-.98 0-1.48-.57-1.48-1.82 0-1.13.5-1.75 1.48-1.75 1.06 0 1.58.76 1.58 1.75 0 .95-.56 1.82-1.58 1.82zm0 0"/></symbol><symbol overflow="visible" id="1108fd69G"><path d="M1.63 0v-2.9c0-.8.15-1.4.71-1.4.41 0 .55.3.55.88V0h.95v-2.9c0-.8.18-1.4.72-1.4.4 0 .57.3.57.88V0h.95v-3.63c0-.92-.28-1.53-1.11-1.53-.63 0-.95.41-1.1.9h-.06c-.1-.52-.44-.9-1.08-.9-.6 0-.93.41-1.06.9H1.6l-.23-.76H.67V0zm0 0"/></symbol><symbol overflow="visible" id="1108fd69H"><path d="M3.36.16c1.4 0 2.2-.6 2.2-1.57 0-.89-.54-1.22-1.47-1.39L3-3c-.67-.14-.86-.33-.86-.73 0-.5.4-.74 1.17-.74.83 0 1.19.27 1.27.8l.9-.05c-.12-1-.8-1.47-2.17-1.47-1.34 0-2.1.53-2.1 1.5 0 .81.45 1.22 1.52 1.44l1.04.2c.56.11.87.24.87.72 0 .52-.45.78-1.28.78-.95 0-1.36-.28-1.42-.87l-.9.06C1.07-.36 1.8.16 3.35.16zm0 0"/></symbol><symbol overflow="visible" id="1108fd69I"><path d="M1.45-2.95c0 2.56 1.08 4.37 3.67 4.84l.11-.67C3.28.86 2.43-.75 2.43-2.95s.85-3.82 2.8-4.16l-.1-.69c-2.6.49-3.68 2.3-3.68 4.85zm0 0"/></symbol><symbol overflow="visible" id="1108fd69J"><path d="M5.4-1.22c.43-.66.66-1.51.66-2.44l-.83-.09c0 .75-.14 1.4-.4 1.92l-1.7-1.83c.8-.42 1.39-.96 1.39-1.86 0-.87-.66-1.4-1.61-1.4-1.14 0-1.72.62-1.72 1.47 0 .72.47 1.3.83 1.68-.8.41-1.52.99-1.52 2.1C.5-.44 1.52.14 2.7.14c.9 0 1.64-.3 2.2-.78l.58.64h1.05zM2.86-6.25c.44 0 .82.23.82.73 0 .7-.47 1.11-1 1.41-.47-.53-.67-.92-.67-1.34 0-.47.3-.8.85-.8zM2.81-.62c-.83 0-1.42-.41-1.42-1.18 0-.76.5-1.18 1.05-1.5l1.94 2.1c-.4.37-.91.57-1.57.57zm0 0"/></symbol><symbol overflow="visible" id="1108fd69K"><path d="M1.45-7.1c1.96.33 2.8 1.94 2.8 4.15 0 2.2-.84 3.8-2.8 4.17l.11.67c2.58-.47 3.67-2.28 3.67-4.84 0-2.55-1.09-4.36-3.67-4.85zm0 0"/></symbol></defs><use xlink:href="#1108fd69a" x="158.76" y="141" fill="#515151"/><g fill="#515151"><use xlink:href="#1108fd69b" x="183.36" y="141"/><use xlink:href="#1108fd69c" x="209.64" y="141"/><use xlink:href="#1108fd69d" x="227.16" y="141"/><use xlink:href="#1108fd69e" x="250.74" y="141"/><use xlink:href="#1108fd69f" x="264.9" y="141"/><use xlink:href="#1108fd69g" x="280.92" y="141"/></g><use xlink:href="#1108fd69h" x="292.32" y="141" fill="#fff"/><use xlink:href="#1108fd69i" x="319.92" y="141" fill="#515151"/><use xlink:href="#1108fd69j" x="332.76" y="141" fill="#fff"/><use xlink:href="#1108fd69i" x="360.36" y="141" fill="#515151"/><use xlink:href="#1108fd69k" x="373.2" y="141" fill="#fff"/><use xlink:href="#1108fd69i" x="400.8" y="141" fill="#515151"/><use xlink:href="#1108fd69l" x="413.64" y="141" fill="#fff"/><g fill="#fff"><use xlink:href="#1108fd69m" x="243.3333" y="252"/><use xlink:href="#1108fd69n" x="250.0003" y="252"/><use xlink:href="#1108fd69o" x="256.6673" y="252"/><use xlink:href="#1108fd69p" x="263.3343" y="252"/><use xlink:href="#1108fd69q" x="270.0013" y="252"/><use xlink:href="#1108fd69r" x="276.6683" y="252"/><use xlink:href="#1108fd69m" x="283.3353" y="252"/><use xlink:href="#1108fd69s" x="290.0023" y="252"/><use xlink:href="#1108fd69p" x="296.6693" y="252"/><use xlink:href="#1108fd69t" x="303.3363" y="252"/><use xlink:href="#1108fd69u" x="310.0033" y="252"/><use xlink:href="#1108fd69q" x="316.6703" y="252"/><use xlink:href="#1108fd69r" x="323.3373" y="252"/><use xlink:href="#1108fd69v" x="330.0043" y="252"/><use xlink:href="#1108fd69w" x="336.6713" y="252"/><use xlink:href="#1108fd69x" x="343.3383" y="252"/><use xlink:href="#1108fd69y" x="350.0053" y="252"/></g><g fill="#fff"><use xlink:href="#1108fd69z" x="146.6667" y="266"/><use xlink:href="#1108fd69n" x="153.3337" y="266"/><use xlink:href="#1108fd69t" x="160.0007" y="266"/><use xlink:href="#1108fd69p" x="166.6677" y="266"/><use xlink:href="#1108fd69A" x="173.3347" y="266"/><use xlink:href="#1108fd69B" x="180.0017" y="266"/><use xlink:href="#1108fd69n" x="186.6687" y="266"/><use xlink:href="#1108fd69q" x="193.3357" y="266"/><use xlink:href="#1108fd69r" x="200.0027" y="266"/><use xlink:href="#1108fd69m" x="206.6697" y="266"/><use xlink:href="#1108fd69t" x="213.3367" y="266"/><use xlink:href="#1108fd69C" x="220.0037" y="266"/><use xlink:href="#1108fd69A" x="226.6707" y="266"/><use xlink:href="#1108fd69u" x="233.3377" y="266"/><use xlink:href="#1108fd69t" x="240.0047" y="266"/><use xlink:href="#1108fd69B" x="246.6717" y="266"/><use xlink:href="#1108fd69r" x="253.3387" y="266"/><use xlink:href="#1108fd69u" x="260.0057" y="266"/><use xlink:href="#1108fd69D" x="266.6727" y="266"/><use xlink:href="#1108fd69E" x="273.3397" y="266"/><use xlink:href="#1108fd69D" x="280.0067" y="266"/><use xlink:href="#1108fd69E" x="286.6737" y="266"/><use xlink:href="#1108fd69F" x="293.3407" y="266"/><use xlink:href="#1108fd69r" x="300.0077" y="266"/><use xlink:href="#1108fd69E" x="306.6747" y="266"/><use xlink:href="#1108fd69A" x="313.3417" y="266"/><use xlink:href="#1108fd69G" x="320.0087" y="266"/><use xlink:href="#1108fd69n" x="326.6757" y="266"/><use xlink:href="#1108fd69B" x="333.3427" y="266"/><use xlink:href="#1108fd69t" x="340.0097" y="266"/><use xlink:href="#1108fd69u" x="346.6767" y="266"/><use xlink:href="#1108fd69H" x="353.3437" y="266"/><use xlink:href="#1108fd69r" x="360.0107" y="266"/><use xlink:href="#1108fd69I" x="366.6777" y="266"/><use xlink:href="#1108fd69u" x="373.3447" y="266"/><use xlink:href="#1108fd69E" x="380.0117" y="266"/><use xlink:href="#1108fd69A" x="386.6787" y="266"/><use xlink:href="#1108fd69G" x="393.3457" y="266"/><use xlink:href="#1108fd69r" x="400.0127" y="266"/><use xlink:href="#1108fd69J" x="406.6797" y="266"/><use xlink:href="#1108fd69r" x="413.3467" y="266"/><use xlink:href="#1108fd69p" x="420.0137" y="266"/><use xlink:href="#1108fd69E" x="426.6807" y="266"/><use xlink:href="#1108fd69A" x="433.3477" y="266"/><use xlink:href="#1108fd69G" x="440.0147" y="266"/><use xlink:href="#1108fd69K" x="446.6817" y="266"/></g></svg>