<?xml version='1.0' encoding='UTF-8'?>
<svg xmlns="http://www.w3.org/2000/svg" xmlns:xlink="http://www.w3.org/1999/xlink" width="600px" height="300px" viewBox="0 0 600 300" x="0px" y="0px" enable-background="new 0 0 600 300"><defs><symbol overflow="visible" id="f5f4eba4a"><path d="M8.64-1.69L8.34 0h11.94l.3-1.8-3.85-.72v-22.56l6.68.78.71 4.57h1.8l1.56-7.5H1.2l1.57 7.5h1.8l.71-4.57 6.66-.78v20.52c0 1.75-.6 2.51-3.3 2.87zm0 0"/></symbol><symbol overflow="visible" id="f5f4eba4b"><path d="M15.78.6c9 0 13.86-5.7 13.86-14.7 0-8.1-4.5-13.5-12.3-13.5C8.34-27.6 3-21.77 3-12.77 3-4.68 7.98.59 15.78.59zM8.1-13.8c0-7.5 3.2-11.1 7.99-11.1 5.4 0 8.47 4.38 8.47 11.88 0 7.5-3.13 10.93-7.93 10.93-5.4 0-8.53-4.2-8.53-11.7zm0 0"/></symbol><symbol overflow="visible" id="f5f4eba4c"><path d="M.9-1.69L.6 0h8.95l.3-1.8-2.7-.72 2.2-5.7h10.63l2.16 5.7-3 .72-.3 1.8H30.3l.3-1.8-3.37-.72-9.71-25.07-3.96.95L5.52-5.7C4.56-3.12 3.78-2.28.9-1.7zm18.18-8.94h-8.94l4.44-11.8h.06zm0 0"/></symbol><symbol overflow="visible" id="f5f4eba4d"><path d="M3.06-1.69L2.76 0h20.16l.95-7.56h-2.09l-2.22 4.43-8.4.68v-19.63c0-2.1.65-3.06 3.25-3.48l.3-1.67H3l-.3 1.8 3.66.71v20.1c0 1.8-.6 2.57-3.3 2.93zm0 0"/></symbol><symbol overflow="visible" id="f5f4eba4e"><path d="M5.05-19.69c0 2.11 1.01 3.25 3.3 3.25 2.15 0 3.23-1.2 3.23-3.25 0-2.1-1.2-3.3-3.24-3.3-2.1 0-3.3 1.08-3.3 3.3zm0 16.75C5.05-.84 6.06.3 8.35.3c2.15 0 3.23-1.2 3.23-3.24 0-2.1-1.2-3.3-3.24-3.3-2.1 0-3.3 1.08-3.3 3.3zm0 0"/></symbol><symbol overflow="visible" id="f5f4eba4g"><path d="M9.06-13.86v.13C5.1-12.23 3.3-9.6 3.3-6.6 3.3-2.58 7.3.59 13.5.59c5.81 0 9.84-3 9.84-7.5 0-3.04-1.75-5.39-5.89-7.43v-.11c3.32-1.2 5.11-3.49 5.11-6.32 0-4.25-3.65-7.07-8.7-7.07-5.4 0-9.42 3.25-9.42 7.62 0 2.64 1.62 4.86 4.62 6.36zm6.53-1.5c-5.93-2.16-7.43-3.72-7.43-5.83 0-2.45 1.98-4.18 5.1-4.18 2.76 0 5.1 1.96 5.1 4.85a6 6 0 01-2.77 5.16zM11-12.9c6.88 2.54 8.51 4.4 8.51 6.97 0 2.16-1.73 4.08-5.58 4.08-3.9 0-6.36-1.98-6.36-5.22a6.53 6.53 0 013.42-5.83zm0 0"/></symbol><symbol overflow="visible" id="f5f4eba4h"><path d="M4.2-27.23v13.8h.07c1.18-.37 3.17-.73 4.92-.73 4.12 0 6.89 2.04 6.89 5.88 0 3.55-2.22 6-6.6 6-2.64 0-4.92-.78-6.67-1.67h-.04L1.5-1.85C3.66-.36 7.02.58 10.2.58c6.6 0 10.61-4.01 10.61-9.1 0-5.05-4.01-8.41-9.17-8.41-2.45 0-4.8.9-4.8.9h-.06v-7.32h12.53v-3.9zm0 0"/></symbol><symbol overflow="visible" id="f5f4eba4i"><path d="M5.16-1.8L4.73 0H18.2l.36-1.8-4.46-.72V-27l-1.6-.9L1.2-21.49l1.14 2.04 7.2-3.97.05.13v18.36c0 2.04-.89 2.7-4.43 3.12zm0 0"/></symbol><symbol overflow="visible" id="f5f4eba4j"><path d="M20.34-23.64l1.44-2.1a11.35 11.35 0 00-6.9-2.1c-7.26 0-11.58 5.53-11.58 14.57C3.3-3.59 7.14.6 13.69.6c6.1 0 9.83-4.14 9.83-9.59 0-5.34-3.6-8.45-8.33-8.52-2.64-.06-5.24.9-7.03 2.4h-.07c0-6.79 3.13-9.9 7.4-9.9 1.96 0 3.53.54 4.73 1.38zM8.1-13.44a13.37 13.37 0 015.47-1.33c3.06 0 5.46 1.86 5.46 6.2 0 4.13-1.97 6.59-5.22 6.59-5.75 0-5.7-7.74-5.7-11.46zm0 0"/></symbol><symbol overflow="visible" id="f5f4eba4k"><path d="M3.83 0v-5.95H6.2v-.82H.45v.82h2.4V0zm0 0"/></symbol><symbol overflow="visible" id="f5f4eba4l"><path d="M5.75-2.23v-.43c0-1.6-.9-2.51-2.42-2.51S.87-4.16.87-2.48c0 1.71.91 2.62 2.5 2.62 1.43 0 2.07-.56 2.29-1.52l-.9-.09c-.18.61-.59.9-1.35.9-.94 0-1.52-.54-1.58-1.66zm-2.4-2.2c.93 0 1.43.5 1.48 1.55H1.84c.08-1.07.6-1.56 1.5-1.56zm0 0"/></symbol><symbol overflow="visible" id="f5f4eba4m"><path d="M1.83 0l1.42-2h.06l1.46 2H5.8L4-2.53l1.78-2.49H4.8L3.42-3.08h-.08l-1.4-1.94H.89l1.78 2.49L.84 0zm0 0"/></symbol><symbol overflow="visible" id="f5f4eba4n"><path d="M5.52-4.25v-.77H3.17v-1.56h-.81l-.14 1.56H.75v.77h1.47v2.4c0 1.3.48 1.94 1.84 1.94C4.6.1 5.14 0 5.55-.14L5.4-.91c-.32.13-.72.2-1.13.2-.8 0-1.1-.37-1.1-1.23v-2.31zm0 0"/></symbol><symbol overflow="visible" id="f5f4eba4o"><path d="M3.33-3.42c.47 0 .8-.27.8-.8 0-.51-.33-.8-.8-.8-.47 0-.8.29-.8.8 0 .53.33.8.8.8zm0 3.5c.47 0 .8-.27.8-.78 0-.53-.33-.82-.8-.82-.47 0-.8.29-.8.82 0 .51.33.78.8.78zm0 0"/></symbol><symbol overflow="visible" id="f5f4eba4q"><path d="M3.33.14c1.62 0 2.5-.95 2.5-2.66 0-1.68-.88-2.64-2.5-2.64-1.63 0-2.5.96-2.5 2.64 0 1.7.87 2.66 2.5 2.66zm0-.77c-1.06 0-1.52-.6-1.52-1.89 0-1.28.46-1.87 1.52-1.87 1.08 0 1.53.6 1.53 1.87 0 1.29-.45 1.9-1.53 1.9zm0 0"/></symbol><symbol overflow="visible" id="f5f4eba4r"><path d="M2.83.14c.94 0 1.5-.39 1.81-.95h.08l.1.81h.76v-3.38c0-1.23-.69-1.8-2.13-1.8-1.43 0-2.03.65-2.18 1.6l.93.1c.11-.6.44-.93 1.22-.93.85 0 1.22.32 1.22 1.04v.34l-1.81.2C1.6-2.7 1.1-2.17 1.1-1.28c0 .92.64 1.42 1.72 1.42zm.25-.77c-.67 0-1.02-.28-1.02-.74 0-.44.28-.72 1-.82l1.58-.19v.41c0 .8-.6 1.34-1.56 1.34zm0 0"/></symbol><symbol overflow="visible" id="f5f4eba4s"><path d="M3.92-7.14H1.36v.76h1.6v5.61H1.15V0H5.7v-.77H3.92zm0 0"/></symbol><symbol overflow="visible" id="f5f4eba4t"><path d="M3.33.16c1.69 0 2.69-.74 2.69-1.94 0-1.05-.8-1.58-1.43-1.72v-.05c.5-.14 1.2-.58 1.2-1.56 0-1.12-.95-1.81-2.46-1.81-1.52 0-2.46.69-2.46 1.81 0 .97.68 1.4 1.18 1.56v.05c-.6.14-1.4.64-1.4 1.72 0 1.2 1 1.94 2.68 1.94zm0-4.04c-.97 0-1.49-.43-1.49-1.12 0-.78.52-1.1 1.49-1.1.95 0 1.48.32 1.48 1.1 0 .69-.53 1.13-1.48 1.13zm0 3.24c-1.1 0-1.7-.42-1.7-1.25 0-.78.6-1.2 1.7-1.2s1.7.42 1.7 1.2c0 .83-.6 1.25-1.7 1.25zm0 0"/></symbol><symbol overflow="visible" id="f5f4eba4u"><path d="M3.42.14c1.55 0 2.44-.84 2.44-2.33 0-1.45-.83-2.22-2.14-2.22-.75 0-1.28.27-1.67.72H2l.31-2.22h3.11v-.86H1.53l-.45 3.93h.81c.3-.36.9-.79 1.58-.79.92 0 1.44.43 1.44 1.47 0 .99-.54 1.5-1.49 1.5-.83 0-1.28-.32-1.5-1.01l-.95.1C1.07-.46 2 .13 3.42.13zm0 0"/></symbol><symbol overflow="visible" id="f5f4eba4v"><path d="M4.22-6.77h-.86l-2.03.7v.87c.64-.17 1.26-.38 1.89-.55v4.9H1.03V0h4.9v-.86H4.21zm0 0"/></symbol><symbol overflow="visible" id="f5f4eba4w"><path d="M3.42.14c1.58 0 2.49-.86 2.49-2.3 0-1.42-.86-2.17-2.22-2.17-1.03 0-1.58.5-1.9 1.02h-.04c.03-1.63.4-2.77 1.73-2.77.91 0 1.24.44 1.36.96l.97-.11c-.23-.96-.86-1.68-2.33-1.68C1.84-6.9.86-5.86.86-3.1.86-.9 1.78.14 3.42.14zm.02-.78c-.9 0-1.47-.55-1.47-1.47 0-.9.7-1.47 1.53-1.47.92 0 1.47.52 1.47 1.47 0 .97-.6 1.47-1.53 1.47zm0 0"/></symbol><symbol overflow="visible" id="f5f4eba4x"><path d="M5.95-6.77H1.1V0h.99v-2.92H5.3v-.77H2.08v-2.26h3.87zm0 0"/></symbol><symbol overflow="visible" id="f5f4eba4y"><path d="M2.73.14c.9 0 1.43-.45 1.74-1.08h.06l.13.94h.8v-5.02h-.94v2.7c0 .98-.57 1.62-1.46 1.62-.75 0-1.1-.4-1.1-1.22v-3.1h-.93v3.32c0 1.17.55 1.84 1.7 1.84zm0 0"/></symbol><symbol overflow="visible" id="f5f4eba4z"><path d="M5.08-5.16c-.94 0-1.58.43-1.9 1.3h-.09l-.07-1.16H1.05v.77h1.1v3.48H.96V0h3.96v-.77H3.1v-1.46c0-1.36.6-2.05 1.83-2.05.4 0 .76.08 1.1.17l.15-.87c-.33-.11-.7-.18-1.11-.18zm0 0"/></symbol><symbol overflow="visible" id="f5f4eba4A"><path d="M3.42.14c1.61 0 2.56-.75 2.56-2 0-1.1-.67-1.6-1.95-1.86l-.97-.2c-.87-.17-1.23-.49-1.23-1.11 0-.7.54-1.11 1.5-1.11 1.06 0 1.51.34 1.69 1.23l.9-.09c-.17-1.28-.98-1.9-2.6-1.9C1.79-6.9.9-6.18.9-4.98c0 1.06.66 1.66 1.88 1.9l1.01.2c.85.17 1.25.4 1.25 1.09 0 .73-.6 1.16-1.6 1.16-1.07 0-1.66-.4-1.8-1.24l-.94.1C.83-.53 1.75.13 3.42.13zm0 0"/></symbol><symbol overflow="visible" id="f5f4eba4B"><path d="M1.63 0v-2.9c0-.8.15-1.4.71-1.4.41 0 .55.3.55.88V0h.95v-2.9c0-.8.18-1.4.72-1.4.4 0 .57.3.57.88V0h.95v-3.63c0-.92-.28-1.53-1.11-1.53-.63 0-.95.41-1.1.9h-.06c-.1-.52-.44-.9-1.08-.9-.6 0-.93.41-1.06.9H1.6l-.23-.76H.67V0zm0 0"/></symbol><symbol overflow="visible" id="f5f4eba4C"><path d="M5.33-2.2v-.75h-4v.75zm0 0"/></symbol><symbol overflow="visible" id="f5f4eba4D"><path d="M3.34.14c1.43 0 2.13-.66 2.25-1.78l-.89-.1c-.1.7-.5 1.08-1.34 1.08-1.03 0-1.52-.64-1.52-1.84 0-1.23.47-1.86 1.52-1.86.84 0 1.23.36 1.34 1.08l.9-.1c-.13-1.09-.82-1.78-2.26-1.78-1.56 0-2.46.97-2.46 2.66 0 1.66.9 2.64 2.46 2.64zm0 0"/></symbol><symbol overflow="visible" id="f5f4eba4E"><path d="M2.06 1.9V-.84h.05c.28.58.8.97 1.77.97 1.5 0 2.2-.98 2.2-2.66 0-1.65-.7-2.64-2.19-2.64-.97 0-1.5.44-1.78 1.05h-.08l-.1-.9H1.1v6.9zm1.5-2.56c-1.06 0-1.53-.8-1.53-1.86 0-1.04.47-1.84 1.53-1.84 1.11 0 1.53.61 1.53 1.84 0 1.27-.42 1.86-1.53 1.86zm0 0"/></symbol><symbol overflow="visible" id="f5f4eba4F"><path d="M2.16 0v-2.67c0-.99.59-1.63 1.46-1.63.74 0 1.07.38 1.07 1.22V0h.95v-3.31c0-1.2-.56-1.85-1.67-1.85-.92 0-1.49.46-1.77 1.08h-.06l-.12-.94H1.2V0zm0 0"/></symbol><symbol overflow="visible" id="f5f4eba4G"><path d="M3.36.16c1.4 0 2.2-.6 2.2-1.57 0-.89-.54-1.22-1.47-1.39L3-3c-.67-.14-.86-.33-.86-.73 0-.5.4-.74 1.17-.74.83 0 1.19.27 1.27.8l.9-.05c-.12-1-.8-1.47-2.17-1.47-1.34 0-2.1.53-2.1 1.5 0 .81.45 1.22 1.52 1.44l1.04.2c.56.11.87.24.87.72 0 .52-.45.78-1.28.78-.95 0-1.36-.28-1.42-.87l-.9.06C1.07-.36 1.8.16 3.35.16zm0 0"/></symbol><symbol overflow="visible" id="f5f4eba4H"><path d="M1.45-2.95c0 2.56 1.08 4.37 3.67 4.84l.11-.67C3.28.86 2.43-.75 2.43-2.95s.85-3.82 2.8-4.16l-.1-.69c-2.6.49-3.68 2.3-3.68 4.85zm0 0"/></symbol><symbol overflow="visible" id="f5f4eba4I"><path d="M5.67 0v-.86H2.14V-.9L3.6-2c1.05-.83 2-1.68 2-2.91 0-1.19-.73-1.99-2.26-1.99-1.66 0-2.3 1.02-2.44 2.33l1 .08c.1-.92.42-1.58 1.44-1.58.87 0 1.26.44 1.26 1.24 0 .9-.8 1.53-1.96 2.53L.83-.81V0zm0 0"/></symbol><symbol overflow="visible" id="f5f4eba4J"><path d="M1.45-7.1c1.96.33 2.8 1.94 2.8 4.15 0 2.2-.84 3.8-2.8 4.17l.11.67c2.58-.47 3.67-2.28 3.67-4.84 0-2.55-1.09-4.36-3.67-4.85zm0 0"/></symbol></defs><use xlink:href="#f5f4eba4a" x="166.59" y="141" fill="#515151"/><use xlink:href="#f5f4eba4b" x="194.07" y="141" fill="#515151"/><use xlink:href="#f5f4eba4a" x="226.11" y="141" fill="#515151"/><use xlink:href="#f5f4eba4c" x="252.39" y="141" fill="#515151"/><use xlink:href="#f5f4eba4d" x="283.59" y="141" fill="#515151"/><g fill="#515151"><use xlink:href="#f5f4eba4e" x="308.97" y="141"/><use xlink:href="#f5f4eba4f" x="324.99" y="141"/></g><use xlink:href="#f5f4eba4g" x="336.39" y="141" fill="#fff"/><use xlink:href="#f5f4eba4h" x="363.03" y="141" fill="#fff"/><use xlink:href="#f5f4eba4i" x="386.55" y="141" fill="#fff"/><use xlink:href="#f5f4eba4j" x="406.89" y="141" fill="#fff"/><g fill="#fff"><use xlink:href="#f5f4eba4k" x="243.3333" y="252"/><use xlink:href="#f5f4eba4l" x="250.0003" y="252"/><use xlink:href="#f5f4eba4m" x="256.6673" y="252"/><use xlink:href="#f5f4eba4n" x="263.3343" y="252"/><use xlink:href="#f5f4eba4o" x="270.0013" y="252"/><use xlink:href="#f5f4eba4p" x="276.6683" y="252"/><use xlink:href="#f5f4eba4k" x="283.3353" y="252"/><use xlink:href="#f5f4eba4q" x="290.0023" y="252"/><use xlink:href="#f5f4eba4n" x="296.6693" y="252"/><use xlink:href="#f5f4eba4r" x="303.3363" y="252"/><use xlink:href="#f5f4eba4s" x="310.0033" y="252"/><use xlink:href="#f5f4eba4o" x="316.6703" y="252"/><use xlink:href="#f5f4eba4p" x="323.3373" y="252"/><use xlink:href="#f5f4eba4t" x="330.0043" y="252"/><use xlink:href="#f5f4eba4u" x="336.6713" y="252"/><use xlink:href="#f5f4eba4v" x="343.3383" y="252"/><use xlink:href="#f5f4eba4w" x="350.0053" y="252"/></g><g fill="#fff"><use xlink:href="#f5f4eba4x" x="186.6667" y="266"/><use xlink:href="#f5f4eba4l" x="193.3337" y="266"/><use xlink:href="#f5f4eba4r" x="200.0007" y="266"/><use xlink:href="#f5f4eba4n" x="206.6677" y="266"/><use xlink:href="#f5f4eba4y" x="213.3347" y="266"/><use xlink:href="#f5f4eba4z" x="220.0017" y="266"/><use xlink:href="#f5f4eba4l" x="226.6687" y="266"/><use xlink:href="#f5f4eba4o" x="233.3357" y="266"/><use xlink:href="#f5f4eba4p" x="240.0027" y="266"/><use xlink:href="#f5f4eba4A" x="246.6697" y="266"/><use xlink:href="#f5f4eba4B" x="253.3367" y="266"/><use xlink:href="#f5f4eba4r" x="260.0037" y="266"/><use xlink:href="#f5f4eba4s" x="266.6707" y="266"/><use xlink:href="#f5f4eba4s" x="273.3377" y="266"/><use xlink:href="#f5f4eba4C" x="280.0047" y="266"/><use xlink:href="#f5f4eba4D" x="286.6717" y="266"/><use xlink:href="#f5f4eba4r" x="293.3387" y="266"/><use xlink:href="#f5f4eba4E" x="300.0057" y="266"/><use xlink:href="#f5f4eba4p" x="306.6727" y="266"/><use xlink:href="#f5f4eba4F" x="313.3397" y="266"/><use xlink:href="#f5f4eba4y" x="320.0067" y="266"/><use xlink:href="#f5f4eba4B" x="326.6737" y="266"/><use xlink:href="#f5f4eba4l" x="333.3407" y="266"/><use xlink:href="#f5f4eba4z" x="340.0077" y="266"/><use xlink:href="#f5f4eba4r" x="346.6747" y="266"/><use xlink:href="#f5f4eba4s" x="353.3417" y="266"/><use xlink:href="#f5f4eba4G" x="360.0087" y="266"/><use xlink:href="#f5f4eba4p" x="366.6757" y="266"/><use xlink:href="#f5f4eba4H" x="373.3427" y="266"/><use xlink:href="#f5f4eba4D" x="380.0097" y="266"/><use xlink:href="#f5f4eba4I" x="386.6767" y="266"/><use xlink:href="#f5f4eba4G" x="393.3437" y="266"/><use xlink:href="#f5f4eba4D" x="400.0107" y="266"/><use xlink:href="#f5f4eba4J" x="406.6777" y="266"/></g></svg>