<?xml version='1.0' encoding='UTF-8'?>
<svg xmlns="http://www.w3.org/2000/svg" xmlns:xlink="http://www.w3.org/1999/xlink" width="600px" height="300px" viewBox="0 0 600 300" x="0px" y="0px" enable-background="new 0 0 600 300"><defs><symbol overflow="visible" id="84ade0caa"><path d="M4.02-30.42v28.69A18.9 18.9 0 0012.66.59c7.03 0 12.48-4.96 12.48-13.37 0-6.78-3.9-10.92-8.83-10.92-2.81 0-5.58 1.26-8.03 4.2.17-.48.24-1.44.24-2.22v-12.3l-8.1.96-.42 1.8zm4.5 26.28v-12.84c1.92-2.46 4.39-3.79 6.18-3.79 2.82 0 5.64 3.36 5.64 8.9 0 4.18-1.03 7.24-2.82 9.17a8.86 8.86 0 01-9-1.44zm0 0"/></symbol><symbol overflow="visible" id="84ade0cab"><path d="M2.58-20.64l2.47 3.42c2.51-2.22 4.8-3.66 6.53-4.2 2.04.84 3.3 2.87 3.3 6.65v.91C9-13.08 5.45-11.8 3.65-10.38A5.63 5.63 0 001.8-6.12c0 4.26 3.06 6.6 6.54 6.6 2.52 0 4.97-1.2 6.85-3.3.6 2.34 1.97 3.3 3.89 3.3 1.2 0 2.83-.9 3.6-1.92v-.78l-3.3-.9v-12.43c0-4.97-3.3-8.03-7.44-8.03-3.42 0-6.3.9-9.36 2.94zm12.3 9.42v2.45c0 1.63.06 3 .06 3.91a6.18 6.18 0 01-4.92 2.22c-2.52 0-3.72-1.5-3.72-4.08 0-1.33.25-2.47.65-3.3 1.4-.67 4.82-1.2 7.92-1.2zm0 0"/></symbol><symbol overflow="visible" id="84ade0cac"><path d="M5.7-22.98H1.2L.72-21.3l4.98 1.2v15.73c0 1.6-.72 2.21-2.58 2.57L2.7 0h11.35l.36-1.8-4.2-.84V-20.1h11.38v15.71c0 1.61-.71 2.22-2.57 2.58L18.55 0h11.39l.36-1.8-4.2-.84V-20.1h5.46l.53-2.9h-6v-1.24c0-2.9.25-4.2.72-5.41a10.8 10.8 0 014.4-.95 9.18 9.18 0 016.29 2.51v23.7c0 1.61-.72 2.22-2.52 2.58L34.5 0h11.05l.36-1.8L42-2.64v-31.38h-.55l-3.04 1.86a10.18 10.18 0 00-5.96-1.86c-6.36 0-10.86 3.43-10.86 11.04H10.2v-1.25c0-2.9.24-4.57.72-5.83.72-.17 1.44-.24 2.7-.24 1.26 0 2.7.3 3.66.66l1.56-4.38h-.12c-8.88 0-12.78 2.82-13.02 11.04zm0 0"/></symbol><symbol overflow="visible" id="84ade0cad"><path d="M19.73-1.08l-.53-1.86c-1.2.36-2.47.6-3.97.6-5.45 0-8.15-2.75-8.32-9.07h13.18a15.03 15.03 0 001.04-4.86c0-4.8-2.94-7.43-7.82-7.43-6.76 0-11.22 5.76-11.22 13.5C2.1-3.3 6.3.6 12.55.6c2.75 0 5.32-.66 7.18-1.68zm-3.36-12.97l-9.46.74c.1-2.4 1.18-5.64 2.03-7.03 1.2-.6 2.4-.9 3.65-.9 2.22 0 4.04 1.55 4.04 4.68 0 .97-.13 1.98-.25 2.51zm0 0"/></symbol><symbol overflow="visible" id="84ade0cae"><path d="M19.98.6l6.79-.6.36-1.8-3.85-.72v-31.5l-8.1.96-.41 1.8 4.01.84v6.19c0 .46.06 1.25.17 1.67l-.04.06a8.67 8.67 0 00-4.33-1.2c-8.7 0-12.49 7.14-12.49 13.56C2.1-3.36 6.3.59 11.1.59c3.25 0 5.54-.89 7.7-3.82zm-1.2-19.02v12.36c-1.73 2.64-3.55 3.72-5.7 3.72-3.36 0-6.17-2.75-6.17-8.82 0-4.2 1.01-7.32 2.75-9.18a8.66 8.66 0 013.54-.72c2.28 0 3.96 1.01 5.58 2.64zm0 0"/></symbol><symbol overflow="visible" id="84ade0cag"><path d="M12.72.6c6.72 0 11.47-5.94 11.47-13.38 0-6.42-3.85-10.92-10.75-10.92-7.5 0-11.35 6.48-11.35 13.5C2.1-3.66 5.81.6 12.72.6zm.9-2.65c-3.67 0-6.71-3.3-6.71-9.47 0-6.6 1.9-9.54 5.68-9.54 3.61 0 6.79 3.48 6.79 9.54 0 7.25-2.22 9.47-5.75 9.47zm0 0"/></symbol><symbol overflow="visible" id="84ade0cah"><path d="M26.1-20.1h11.4v15.73c0 1.6-.72 2.21-2.52 2.57L34.5 0h11.05l.3-1.8L42-2.64v-20.34H26.1v-1.25c0-2.9.24-4.57.71-5.83a11.2 11.2 0 012.7-.24c1.27 0 2.7.3 3.68.66l1.54-4.38h-.1c-8.9 0-12.79 2.82-13.04 11.04H10.2v-1.25c0-2.9.24-4.57.72-5.83.72-.17 1.44-.24 2.7-.24 1.26 0 2.7.3 3.66.66l1.56-4.38h-.12c-8.88 0-12.78 2.82-13.02 11.04H1.2L.72-21.3l4.98 1.2v15.73c0 1.6-.72 2.21-2.58 2.57L2.7 0h11.35l.36-1.8-4.2-.84V-20.1h11.38v15.71c0 1.61-.71 2.22-2.57 2.58L18.55 0h11.39l.36-1.8-4.2-.84zm10.68-10.92c0 1.86.84 2.82 2.88 2.82 1.8 0 2.7-.96 2.7-2.82 0-1.8-.95-2.76-2.7-2.76-1.86 0-2.88.9-2.88 2.76zm0 0"/></symbol><symbol overflow="visible" id="84ade0cai"><path d="M18.95-.9l-.53-1.98c-.97.24-2.22.47-3.6.47-5.04 0-7.91-2.68-7.91-9 0-3.65.65-6.95 1.54-8.57.9-.36 2.47-.72 3.74-.72 1.6 0 2.75.36 3.53.97l.65 2.64h2.05l1.14-5.18a12.25 12.25 0 00-6.25-1.43c-6.4 0-11.22 5.76-11.22 13.5C2.1-3 6 .6 12.55.6c2.15 0 4.73-.6 6.4-1.5zm0 0"/></symbol><symbol overflow="visible" id="84ade0caj"><path d="M8.77-22.98H1.2l-.3 1.75 3.37.89V-7.7c0 5.77 2.09 8.17 6.59 8.17 3.36 0 5.58-1.03 7.73-3.84h.07L19.8.48 26.64 0l.3-1.8-3.85-.72v-20.46h-7.96l-.36 1.75 3.82.89v14.53c-1.6 2.33-3.46 3.3-5.75 3.3-2.76 0-4.07-1.63-4.07-6.85zm0 0"/></symbol><symbol overflow="visible" id="84ade0cak"><path d="M9.78-29.64l-4.5.78v5.88H.78L.3-21.3l4.98 1.2v14.46C5.28-.84 7.5.42 10.44.42c2.15 0 4.2-.54 6.54-2.04l-.71-2.1c-1.4.6-2.54.9-3.72.9-2.11 0-2.77-.84-2.77-4.5v-12.77h10.99v14.51c0 4.8 2.21 6 5.15 6 2.16 0 4.2-.54 6.6-2.04l-.79-2.1c-1.37.6-2.51.9-3.65.9-2.16 0-2.81-.77-2.81-4.5v-12.77h5.8l.79-2.9h-6.6v-6.65l-4.5.78v5.88H9.79zm0 0"/></symbol><symbol overflow="visible" id="84ade0cal"><path d="M2.94-1.8L2.52 0H13.5l.36-1.8-3.84-.84v-14.88c2.82-1.56 4.8-2.34 7.07-2.57 1.93.82 3 2.57 3 5.64v10.07c0 1.61-.71 2.22-2.51 2.58L17.09 0h10.99l.36-1.8-3.85-.84v-13.63c0-4.8-2.51-7.25-6.4-7.25-2.24 0-4.4.96-8.47 4.08l-1.08-4.08-6.72 1.02-.42 1.73 4.02.91v15.48c0 1.61-.72 2.22-2.58 2.58zm0 0"/></symbol><symbol overflow="visible" id="84ade0cam"><path d="M3.83 0v-5.95H6.2v-.82H.45v.82h2.4V0zm0 0"/></symbol><symbol overflow="visible" id="84ade0can"><path d="M5.75-2.23v-.43c0-1.6-.9-2.51-2.42-2.51S.87-4.16.87-2.48c0 1.71.91 2.62 2.5 2.62 1.43 0 2.07-.56 2.29-1.52l-.9-.09c-.18.61-.59.9-1.35.9-.94 0-1.52-.54-1.58-1.66zm-2.4-2.2c.93 0 1.43.5 1.48 1.55H1.84c.08-1.07.6-1.56 1.5-1.56zm0 0"/></symbol><symbol overflow="visible" id="84ade0cao"><path d="M1.83 0l1.42-2h.06l1.46 2H5.8L4-2.53l1.78-2.49H4.8L3.42-3.08h-.08l-1.4-1.94H.89l1.78 2.49L.84 0zm0 0"/></symbol><symbol overflow="visible" id="84ade0cap"><path d="M5.52-4.25v-.77H3.17v-1.56h-.81l-.14 1.56H.75v.77h1.47v2.4c0 1.3.48 1.94 1.84 1.94C4.6.1 5.14 0 5.55-.14L5.4-.91c-.32.13-.72.2-1.13.2-.8 0-1.1-.37-1.1-1.23v-2.31zm0 0"/></symbol><symbol overflow="visible" id="84ade0caq"><path d="M3.33-3.42c.47 0 .8-.27.8-.8 0-.51-.33-.8-.8-.8-.47 0-.8.29-.8.8 0 .53.33.8.8.8zm0 3.5c.47 0 .8-.27.8-.78 0-.53-.33-.82-.8-.82-.47 0-.8.29-.8.82 0 .51.33.78.8.78zm0 0"/></symbol><symbol overflow="visible" id="84ade0cas"><path d="M3.9.14c1.48 0 2.18-.98 2.18-2.64 0-1.67-.7-2.66-2.17-2.66-.91 0-1.49.41-1.79 1h-.06v-2.98h-.95V0h.81l.11-.9h.06c.29.63.82 1.04 1.82 1.04zm-.32-.8c-1.08 0-1.55-.8-1.55-1.84 0-1.06.47-1.86 1.55-1.86 1.1 0 1.51.61 1.51 1.86S4.64-.66 3.58-.66zm0 0"/></symbol><symbol overflow="visible" id="84ade0cat"><path d="M2.83.14c.94 0 1.5-.39 1.81-.95h.08l.1.81h.76v-3.38c0-1.23-.69-1.8-2.13-1.8-1.43 0-2.03.65-2.18 1.6l.93.1c.11-.6.44-.93 1.22-.93.85 0 1.22.32 1.22 1.04v.34l-1.81.2C1.6-2.7 1.1-2.17 1.1-1.28c0 .92.64 1.42 1.72 1.42zm.25-.77c-.67 0-1.02-.28-1.02-.74 0-.44.28-.72 1-.82l1.58-.19v.41c0 .8-.6 1.34-1.56 1.34zm0 0"/></symbol><symbol overflow="visible" id="84ade0cau"><path d="M4.63-6.5c.45 0 .98.08 1.39.2l.2-.72a5.3 5.3 0 00-1.64-.26c-1.52 0-2.16.56-2.16 1.87v.4H.9v.76h1.53V0h.94v-4.25h2.53v-.77H3.36v-.3c0-.84.33-1.18 1.27-1.18zm0 0"/></symbol><symbol overflow="visible" id="84ade0cav"><path d="M3.92-7.14H1.36v.76h1.6v5.61H1.15V0H5.7v-.77H3.92zm0 0"/></symbol><symbol overflow="visible" id="84ade0caw"><path d="M2.84.14C3.8.14 4.33-.26 4.6-.9h.07L4.8 0h.76v-7.14h-.95v2.95h-.08c-.28-.6-.86-.97-1.67-.97-1.48 0-2.27.99-2.27 2.64C.6-.84 1.36.14 2.84.14zm.22-.8c-.98 0-1.48-.59-1.48-1.84s.5-1.86 1.48-1.86c1.13 0 1.58.8 1.58 1.86S4.2-.66 3.06-.66zm0 0"/></symbol><symbol overflow="visible" id="84ade0cax"><path d="M3.33.14c1.62 0 2.5-.95 2.5-2.66 0-1.68-.88-2.64-2.5-2.64-1.63 0-2.5.96-2.5 2.64 0 1.7.87 2.66 2.5 2.66zm0-.77c-1.06 0-1.52-.6-1.52-1.89 0-1.28.46-1.87 1.52-1.87 1.08 0 1.53.6 1.53 1.87 0 1.29-.45 1.9-1.53 1.9zm0 0"/></symbol><symbol overflow="visible" id="84ade0cay"><path d="M3.58-5.81c.42 0 .72-.22.72-.67 0-.44-.3-.68-.72-.68-.44 0-.72.24-.72.68 0 .45.28.67.72.67zm.5.8H1.52v.76h1.6v3.48h-1.8V0h4.46v-.77h-1.7zm0 0"/></symbol><symbol overflow="visible" id="84ade0caz"><path d="M3.34.14c1.43 0 2.13-.66 2.25-1.78l-.89-.1c-.1.7-.5 1.08-1.34 1.08-1.03 0-1.52-.64-1.52-1.84 0-1.23.47-1.86 1.52-1.86.84 0 1.23.36 1.34 1.08l.9-.1c-.13-1.09-.82-1.78-2.26-1.78-1.56 0-2.46.97-2.46 2.66 0 1.66.9 2.64 2.46 2.64zm0 0"/></symbol><symbol overflow="visible" id="84ade0caA"><path d="M2.73.14c.9 0 1.43-.45 1.74-1.08h.06l.13.94h.8v-5.02h-.94v2.7c0 .98-.57 1.62-1.46 1.62-.75 0-1.1-.4-1.1-1.22v-3.1h-.93v3.32c0 1.17.55 1.84 1.7 1.84zm0 0"/></symbol><symbol overflow="visible" id="84ade0caB"><path d="M2.16 0v-2.67c0-.99.59-1.63 1.46-1.63.74 0 1.07.38 1.07 1.22V0h.95v-3.31c0-1.2-.56-1.85-1.67-1.85-.92 0-1.49.46-1.77 1.08h-.06l-.12-.94H1.2V0zm0 0"/></symbol><symbol overflow="visible" id="84ade0caC"><path d="M5.95-6.77H1.1V0h.99v-2.92H5.3v-.77H2.08v-2.26h3.87zm0 0"/></symbol><symbol overflow="visible" id="84ade0caD"><path d="M5.08-5.16c-.94 0-1.58.43-1.9 1.3h-.09l-.07-1.16H1.05v.77h1.1v3.48H.96V0h3.96v-.77H3.1v-1.46c0-1.36.6-2.05 1.83-2.05.4 0 .76.08 1.1.17l.15-.87c-.33-.11-.7-.18-1.11-.18zm0 0"/></symbol><symbol overflow="visible" id="84ade0caE"><path d="M3.42.14c1.61 0 2.56-.75 2.56-2 0-1.1-.67-1.6-1.95-1.86l-.97-.2c-.87-.17-1.23-.49-1.23-1.11 0-.7.54-1.11 1.5-1.11 1.06 0 1.51.34 1.69 1.23l.9-.09c-.17-1.28-.98-1.9-2.6-1.9C1.79-6.9.9-6.18.9-4.98c0 1.06.66 1.66 1.88 1.9l1.01.2c.85.17 1.25.4 1.25 1.09 0 .73-.6 1.16-1.6 1.16-1.07 0-1.66-.4-1.8-1.24l-.94.1C.83-.53 1.75.13 3.42.13zm0 0"/></symbol><symbol overflow="visible" id="84ade0caF"><path d="M3.16 2.03c1.67 0 2.4-.86 2.4-2.51v-4.54h-.81l-.13.91h-.06c-.26-.58-.8-1.05-1.73-1.05-1.42 0-2.24 1-2.24 2.52 0 1.6.75 2.56 2.2 2.56.94 0 1.5-.5 1.77-1.03h.05v.72c0 1.17-.42 1.67-1.45 1.67-.93 0-1.3-.34-1.41-.89L.8.5c.12.96.87 1.54 2.36 1.54zM3.06-.8c-.98 0-1.48-.57-1.48-1.82 0-1.13.5-1.75 1.48-1.75 1.06 0 1.58.76 1.58 1.75 0 .95-.56 1.82-1.58 1.82zm0 0"/></symbol><symbol overflow="visible" id="84ade0caG"><path d="M3.36.16c1.4 0 2.2-.6 2.2-1.57 0-.89-.54-1.22-1.47-1.39L3-3c-.67-.14-.86-.33-.86-.73 0-.5.4-.74 1.17-.74.83 0 1.19.27 1.27.8l.9-.05c-.12-1-.8-1.47-2.17-1.47-1.34 0-2.1.53-2.1 1.5 0 .81.45 1.22 1.52 1.44l1.04.2c.56.11.87.24.87.72 0 .52-.45.78-1.28.78-.95 0-1.36-.28-1.42-.87l-.9.06C1.07-.36 1.8.16 3.35.16zm0 0"/></symbol><symbol overflow="visible" id="84ade0caH"><path d="M1.45-2.95c0 2.56 1.08 4.37 3.67 4.84l.11-.67C3.28.86 2.43-.75 2.43-2.95s.85-3.82 2.8-4.16l-.1-.69c-2.6.49-3.68 2.3-3.68 4.85zm0 0"/></symbol><symbol overflow="visible" id="84ade0caI"><path d="M1.45-7.1c1.96.33 2.8 1.94 2.8 4.15 0 2.2-.84 3.8-2.8 4.17l.11.67c2.58-.47 3.67-2.28 3.67-4.84 0-2.55-1.09-4.36-3.67-4.85zm0 0"/></symbol></defs><g fill="#515151"><use xlink:href="#84ade0caa" x="83.97" y="141"/><use xlink:href="#84ade0cab" x="111.21" y="141"/></g><use xlink:href="#84ade0cac" x="134.79" y="141" fill="#fff"/><g fill="#515151"><use xlink:href="#84ade0cad" x="181.59" y="141"/><use xlink:href="#84ade0cae" x="204.45" y="141"/><use xlink:href="#84ade0caf" x="232.47" y="141"/><use xlink:href="#84ade0cag" x="243.87" y="141"/></g><use xlink:href="#84ade0cah" x="270.15" y="141" fill="#fff"/><g fill="#515151"><use xlink:href="#84ade0cai" x="317.19" y="141"/><use xlink:href="#84ade0cad" x="337.53" y="141"/><use xlink:href="#84ade0caf" x="360.39" y="141"/><use xlink:href="#84ade0caa" x="371.79" y="141"/><use xlink:href="#84ade0caj" x="399.03" y="141"/></g><use xlink:href="#84ade0cak" x="427.17" y="141" fill="#fff"/><g fill="#515151"><use xlink:href="#84ade0cag" x="460.23" y="141"/><use xlink:href="#84ade0cal" x="486.51" y="141"/></g><g fill="#fff"><use xlink:href="#84ade0cam" x="210" y="252"/><use xlink:href="#84ade0can" x="216.667" y="252"/><use xlink:href="#84ade0cao" x="223.334" y="252"/><use xlink:href="#84ade0cap" x="230.001" y="252"/><use xlink:href="#84ade0caq" x="236.668" y="252"/><use xlink:href="#84ade0car" x="243.335" y="252"/><use xlink:href="#84ade0cas" x="250.002" y="252"/><use xlink:href="#84ade0cat" x="256.669" y="252"/><use xlink:href="#84ade0cau" x="263.336" y="252"/><use xlink:href="#84ade0cau" x="270.003" y="252"/><use xlink:href="#84ade0cav" x="276.67" y="252"/><use xlink:href="#84ade0can" x="283.337" y="252"/><use xlink:href="#84ade0caw" x="290.004" y="252"/><use xlink:href="#84ade0car" x="296.671" y="252"/><use xlink:href="#84ade0cax" x="303.338" y="252"/><use xlink:href="#84ade0cau" x="310.005" y="252"/><use xlink:href="#84ade0cau" x="316.672" y="252"/><use xlink:href="#84ade0cay" x="323.339" y="252"/><use xlink:href="#84ade0caz" x="330.006" y="252"/><use xlink:href="#84ade0can" x="336.673" y="252"/><use xlink:href="#84ade0car" x="343.34" y="252"/><use xlink:href="#84ade0cas" x="350.007" y="252"/><use xlink:href="#84ade0caA" x="356.674" y="252"/><use xlink:href="#84ade0cap" x="363.341" y="252"/><use xlink:href="#84ade0cap" x="370.008" y="252"/><use xlink:href="#84ade0cax" x="376.675" y="252"/><use xlink:href="#84ade0caB" x="383.342" y="252"/></g><g fill="#fff"><use xlink:href="#84ade0caC" x="186.6667" y="266"/><use xlink:href="#84ade0can" x="193.3337" y="266"/><use xlink:href="#84ade0cat" x="200.0007" y="266"/><use xlink:href="#84ade0cap" x="206.6677" y="266"/><use xlink:href="#84ade0caA" x="213.3347" y="266"/><use xlink:href="#84ade0caD" x="220.0017" y="266"/><use xlink:href="#84ade0can" x="226.6687" y="266"/><use xlink:href="#84ade0caq" x="233.3357" y="266"/><use xlink:href="#84ade0car" x="240.0027" y="266"/><use xlink:href="#84ade0caE" x="246.6697" y="266"/><use xlink:href="#84ade0cap" x="253.3367" y="266"/><use xlink:href="#84ade0cat" x="260.0037" y="266"/><use xlink:href="#84ade0caB" x="266.6707" y="266"/><use xlink:href="#84ade0caw" x="273.3377" y="266"/><use xlink:href="#84ade0cat" x="280.0047" y="266"/><use xlink:href="#84ade0caD" x="286.6717" y="266"/><use xlink:href="#84ade0caw" x="293.3387" y="266"/><use xlink:href="#84ade0car" x="300.0057" y="266"/><use xlink:href="#84ade0cav" x="306.6727" y="266"/><use xlink:href="#84ade0cay" x="313.3397" y="266"/><use xlink:href="#84ade0caF" x="320.0067" y="266"/><use xlink:href="#84ade0cat" x="326.6737" y="266"/><use xlink:href="#84ade0cap" x="333.3407" y="266"/><use xlink:href="#84ade0caA" x="340.0077" y="266"/><use xlink:href="#84ade0caD" x="346.6747" y="266"/><use xlink:href="#84ade0can" x="353.3417" y="266"/><use xlink:href="#84ade0caG" x="360.0087" y="266"/><use xlink:href="#84ade0car" x="366.6757" y="266"/><use xlink:href="#84ade0caH" x="373.3427" y="266"/><use xlink:href="#84ade0cav" x="380.0097" y="266"/><use xlink:href="#84ade0cay" x="386.6767" y="266"/><use xlink:href="#84ade0caF" x="393.3437" y="266"/><use xlink:href="#84ade0cat" x="400.0107" y="266"/><use xlink:href="#84ade0caI" x="406.6777" y="266"/></g></svg>