<?xml version='1.0' encoding='UTF-8'?>
<svg xmlns="http://www.w3.org/2000/svg" xmlns:xlink="http://www.w3.org/1999/xlink" width="310px" height="280px" viewBox="0 0 310 280" x="0px" y="0px" enable-background="new 0 0 310 280"><defs><symbol overflow="visible" id="98838b73a"><path d="M3.6-3.13L2.96 0h14.5l.47-3.13-5.22-1.17v-18.8c0-2.09-.08-4.59-.24-6.07h.24a32.96 32.96 0 003.26 4.3L37.36 0h4.37v-34.16c0-2.34.7-3.28 4.05-3.82l.63-3.13H32.06l-.47 3.13 5.22 1.17v17.08c0 3.12.08 5.37.16 6.78h-.24a67.69 67.69 0 00-3.5-4.28L12.48-41.11H2.81l-.54 3.13 5.53 1.17v29.8c0 2.4-.7 3.34-4.2 3.88zm0 0"/></symbol><symbol overflow="visible" id="98838b73b"><path d="M2.97-26.2l4.6 5.22c3.2-3.2 6.24-5.54 8.65-6.55 2.19 1.1 3.51 3.73 3.51 8.1v1.1c-7.56.94-12.32 2.5-14.67 4.28A7.17 7.17 0 002.2-8.27c0 5.61 4.75 8.9 9.6 8.9 3.34 0 6.23-1.96 8.41-4.61a6.39 6.39 0 006.32 4.6c2.03 0 4.37-1.25 5.78-2.96v-1.33l-4.53-1.17V-19.9c0-6.94-4.91-11.08-11.08-11.08-5.61 0-9.6 1.56-13.72 4.77zm16.76 11.6v2.9c0 1.95 0 3.75.08 4.84a7 7 0 01-5.37 2.4c-2.66 0-4.22-1.7-4.22-4.82 0-1.56.31-3.05.78-3.9 1.8-.79 5.38-1.41 8.73-1.41zm0 0"/></symbol><symbol overflow="visible" id="98838b73c"><path d="M3.83-9.83L2.27-2.8C6.16-.55 10.69.79 14.89.79c7.03 0 11.55-3.84 11.55-9.45 0-3.75-1.96-6.46-8.82-9.9-5.76-2.82-6.93-3.99-6.93-5.63 0-.76.39-1.7.86-2.17 1.1-.39 2.26-.7 3.65-.7a8 8 0 014.77 1.4l.78 3.82h3.66l1.71-6.86c-2.4-1.4-5.92-2.35-9.75-2.35-7.32 0-12.3 5-12.3 9.83 0 3.6 1.93 5.94 7.95 8.74 6.39 3.04 7.56 4.3 7.56 6.17 0 1.78-1.4 3.03-4.38 3.03-2.4 0-4.9-.63-6.78-2.17l-.94-4.38zm0 0"/></symbol><symbol overflow="visible" id="98838b73d"><path d="M10.92-43.45c-3.12 0-4.69 1.33-4.69 4.22 0 2.8 1.25 4.14 4.7 4.14 3.12 0 4.5-1.33 4.5-4.14 0-2.82-1.54-4.22-4.5-4.22zM3.44-2.97L2.89 0h16.14l.55-2.97-4.69-1.17v-26.83L2.11-29.4l-.55 2.66 5.3 1.33v19.19c0 2.09-.86 2.87-3.42 3.26zm0 0"/></symbol><symbol overflow="visible" id="98838b73e"><path d="M3.44-2.97L2.89 0h15.6l.54-2.97-4.14-1.17v-18.1c3.05-1.87 5.7-3.03 8.05-3.34 2.17.86 3.1 2.72 3.1 6.7v12.65c0 2.09-.93 2.87-3.18 3.26L22.23 0h15.44l.55-2.97-4.13-1.17v-18.1c3.03-1.87 5.46-2.95 8.11-3.34 2.1.94 3.03 2.88 3.03 6.7v12.65c0 2.09-.93 2.87-3.26 3.26L41.34 0h15.99l.62-2.97-4.67-1.17v-16.77c0-6.54-3.83-10.06-8.9-10.06-3.27 0-6.32 1.4-10.76 5.7-1.56-3.67-4.3-5.7-8.04-5.7-3.42 0-6.63 1.56-11.06 5.7l-2.04-5.7L2.11-29.4l-.55 2.66 5.3 1.33v19.19c0 2.09-.86 2.87-3.42 3.26zm0 0"/></symbol><symbol overflow="visible" id="98838b73f"><path d="M2.22 0v-5.38l-.1-1.18h.13L5.35 0H6.9v-8.1H5.8v5.26l.08 1.23h-.12l-3.1-6.5H1.12V0zm0 0"/></symbol><symbol overflow="visible" id="98838b73g"><path d="M3.4.17C4.51.17 5.2-.3 5.57-.97h.08l.12.97h.9v-4.05c0-1.48-.82-2.15-2.54-2.15-1.73 0-2.44.75-2.6 1.9l1.1.11c.13-.7.52-1.1 1.47-1.1 1.01 0 1.47.37 1.47 1.23v.42l-2.17.23c-1.49.18-2.08.82-2.08 1.86 0 1.13.76 1.72 2.06 1.72zm.29-.92c-.81 0-1.2-.33-1.2-.9 0-.52.32-.87 1.2-.96l1.89-.23v.48c0 .95-.75 1.61-1.9 1.61zm0 0"/></symbol><symbol overflow="visible" id="98838b73h"><path d="M4.02.19c1.7 0 2.65-.72 2.65-1.88 0-1.06-.65-1.45-1.76-1.67L3.6-3.6c-.81-.16-1.03-.37-1.03-.87 0-.6.45-.88 1.4-.88 1 0 1.43.31 1.52.95l1.1-.06c-.16-1.2-.97-1.75-2.63-1.75-1.61 0-2.5.63-2.5 1.8 0 .97.53 1.47 1.81 1.72l1.25.23c.67.14 1.03.3 1.03.88 0 .62-.53.93-1.53.93-1.16 0-1.62-.32-1.7-1.04l-1.1.07C1.3-.43 2.17.2 4.02.2zm0 0"/></symbol><symbol overflow="visible" id="98838b73i"><path d="M4.3-6.97c.5 0 .86-.28.86-.81S4.8-8.6 4.3-8.6c-.53 0-.86.28-.86.8 0 .54.33.82.86.82zm.6.95H1.82v.91h1.92v4.19H1.56V0h5.38v-.92H4.89zm0 0"/></symbol><symbol overflow="visible" id="98838b73j"><path d="M1.94 0v-3.47c0-.97.2-1.69.87-1.69.49 0 .66.36.66 1.07V0H4.6v-3.47c0-.97.22-1.69.87-1.69.49 0 .68.35.68 1.07V0H7.3v-4.34c0-1.11-.35-1.85-1.35-1.85-.75 0-1.14.49-1.3 1.07h-.09c-.1-.61-.51-1.07-1.28-1.07-.73 0-1.12.49-1.28 1.07h-.08l-.3-.9H.8V0zm0 0"/></symbol><symbol overflow="visible" id="98838b73l"><path d="M2.48-8.1H1.31V0h5.74v-.98H2.48zm0 0"/></symbol><symbol overflow="visible" id="98838b73m"><path d="M6.63-5.1v-.92H3.8v-1.87h-.98l-.17 1.87H.9v.91h1.75v2.88c0 1.57.57 2.35 2.21 2.35.65 0 1.29-.12 1.79-.3l-.18-.9a3.9 3.9 0 01-1.34.22c-.97 0-1.33-.44-1.33-1.47V-5.1zm0 0"/></symbol><symbol overflow="visible" id="98838b73n"><path d="M2.6 0v-3.22c0-1.17.71-1.94 1.76-1.94.87 0 1.26.46 1.26 1.47V0h1.15v-3.97c0-1.45-.7-2.22-2-2.22-1.11 0-1.79.55-2.13 1.3h-.08l-.14-1.13h-.97V0zm0 0"/></symbol></defs><use xlink:href="#98838b73a" x="45.917" y="145"/><use xlink:href="#98838b73b" x="93.809" y="145"/><use xlink:href="#98838b73c" x="126.881" y="145"/><use xlink:href="#98838b73c" x="155.585" y="145"/><use xlink:href="#98838b73d" x="184.289" y="145"/><use xlink:href="#98838b73e" x="205.193" y="145"/><g fill-opacity=".33"><use xlink:href="#98838b73f" x="107" y="230"/><use xlink:href="#98838b73g" x="115.0004" y="230"/><use xlink:href="#98838b73h" x="123.0008" y="230"/><use xlink:href="#98838b73h" x="131.0012" y="230"/><use xlink:href="#98838b73i" x="139.0016" y="230"/><use xlink:href="#98838b73j" x="147.002" y="230"/><use xlink:href="#98838b73k" x="155.0024" y="230"/><use xlink:href="#98838b73l" x="163.0028" y="230"/><use xlink:href="#98838b73g" x="171.0032" y="230"/><use xlink:href="#98838b73m" x="179.0036" y="230"/><use xlink:href="#98838b73i" x="187.004" y="230"/><use xlink:href="#98838b73n" x="195.0044" y="230"/></g></svg>